<svg xmlns="http://www.w3.org/2000/svg" viewBox="0 0 382 382"><g fill="none" stroke-width="2"><path stroke="#7d4c43" d="M218.33 67.47q1.65 1.53 1.7 2.97c.04 1.65-2.3 3.06-2.78 4.53q-.21.65.44.42 1.25-.44 1.95.85.22.4.1.84-.19.72.27 1.11.41.34.91.14.52-.21.93 0 .28.14.25.95-.07 2.45-1.72 4.35" vector-effect="non-scaling-stroke"/><path stroke="#014f48" d="M220.38 83.63q-.47 1.86-.21 3.61.08.54.57.31 1.16-.54 1.19-2.36" vector-effect="non-scaling-stroke"/><path stroke="#7d4c43" d="M221.93 85.19q1.06-.2 2.12.25.44.2.87-.01.52-.23 1.07-.22a.71.71 0 0 1 .66.51l.78 2.63" vector-effect="non-scaling-stroke"/><path stroke="#014f48" d="M227.43 88.35q.69 1.01.7 1.51.02 2.09.88.19.57-1.25.14-2.27" vector-effect="non-scaling-stroke"/><path stroke="#7d4c43" d="M229.15 87.78q.5-2.95 2.2-4.41" vector-effect="non-scaling-stroke"/><path stroke="#014f48" d="M231.35 83.37q1.4.66 2.13.28.37-.19.07-.48-.42-.4-1.79-.15" vector-effect="non-scaling-stroke"/><path stroke="#7d4c43" d="M231.76 83.02q.78-2.73.11-4.3" vector-effect="non-scaling-stroke"/><path stroke="#014f48" d="M231.87 78.72q.06-.75-.14-1.11-.33-.59-.61.02l-.41.88" vector-effect="non-scaling-stroke"/><path stroke="#7d4c43" d="M230.71 78.51q-.55.27-1.07.31-.57.04-.54-.5l.16-3.47a1.03 1 77.9 0 1 .54-.85q1.24-.65 1.16-2.34a.74.74 0 0 1 .3-.63l.32-.24M231.79 70.97q.5.86 1.36 1.26.54.24.66-.34.05-.23-.04-.53M239.27 71.11q-.59 1.33.43 2.47.37.42.84.11.51-.33.54-1.2.02-.62.66-.51l2.47.43q.36.06.79-.06.68-.18 1.43.38a.94.94 0 0 0 .92.12q.71-.3 1.15-.81.35-.4.12-.87l-.63-1.29M252.74 73.69q-.76.84.57 1.7.62.4.95-.44M255.04 75.6q1.84 3.22-.23 4.4-.49.28-.37.67l1.12 3.71q.16.54-.41.64l-1.01.18q-.53.1-.38.76.39 1.77-.14 3.58" vector-effect="non-scaling-stroke"/><path stroke="#014f48" d="M253.62 89.54q-.32.04-.61-.13-.4-.24-.67.13-.17.21-.13.49.09.64.81 1.01" vector-effect="non-scaling-stroke"/><path stroke="#7d4c43" d="m253.02 91.04.1 1.71" vector-effect="non-scaling-stroke"/><path stroke="#014f48" d="m253.12 92.75-1.06 2.73a1.02 1.02 0 0 0 1.09 1.38l.83-.11" vector-effect="non-scaling-stroke"/><path stroke="#7d4c43" d="M253.98 96.75q.93.65 1.29 1.79" vector-effect="non-scaling-stroke"/><path stroke="#014f48" d="m255.27 98.54-.09 2.87q0 .11.08.19.13.1.26.08.12-.01.14-.12l.65-3.03M256.31 98.53q1.05.54 1.38-.31" vector-effect="non-scaling-stroke"/><path stroke="#7d4c43" d="M257.69 98.22c.66-1.62-.64-2.19-.58-3.45q.03-.74.78-1.31a.82.82 0 0 1 .94-.03q1.65 1.04 2.24-.75.07-.2.27-.27.17-.07.32 0 .2.08.22.33l.18 2.5q.05.8.68.35.86-.62 1.36.25c.49.85 1.19 1.09 1.9 1.23a.54.54 0 0 0 .64-.4q.55-2.27 2.74-1.63a.85.85 0 0 1 .4 1.38q-1.61 1.83.44 3.27.95.67.22 1.46l-.39.42a1.46 1.04 70.6 0 0-.29 1.01q.15 1.89-1.46 4.99-1.87 3.6 1.66 5.12a.54.54 0 0 0 .73-.66l-.45-1.3q-.19-.56.38-.63 1.59-.21 2.66-.75.51-.25.64.3.37 1.59 2.35 2.91a.29.29 0 0 0 .45-.19q.22-1.19 1.41-1.43.5-.11.55.41.44 4.79-.55 8.91" vector-effect="non-scaling-stroke"/><path stroke="#014f48" d="M278.13 120.26q-1.63 2.61 2.2 3.51.53.13.6-.41.13-.98-1.06-1.62" vector-effect="non-scaling-stroke"/><path stroke="#7d4c43" d="M279.87 121.74q1.07-1.01 2.45-1.29.51-.11.94.18.35.23.73.28.54.07.92-.31l.91-.92q1.21-1.21 1.54.48l1.09 5.57" vector-effect="non-scaling-stroke"/><path stroke="#014f48" d="M288.45 125.73q-.26.81.38 1.78.21.32-.09.48l-.28.16q-.61.34.34.59 1.26.35 1.42 1.89.02.26.28.2l.28-.06q.1-.02.1-.13l-.14-4.66" vector-effect="non-scaling-stroke"/><path stroke="#7d4c43" d="M290.74 125.98q.68-1.91 3.23-3.14M109.55 149.66q.66-1.1 1.72-1.09.45 0 .19-.36-1.01-1.42-1.24-3.28-.04-.33-.25-.46-.41-.26-.59.18-.21.52-.24.57-.95 1.6-1.09-.22-.12-1.51.36-4.14.1-.53.57-.79 2.15-1.19 1.98-3.48-.2-2.66 1.68-.59l1.57 1.74a.51.44-64.2 0 0 .79-.33q.15-1 .76-1.88.3-.45.89-.16l.48.24q.39.19.65-.29.62-1.17 1.63-1.55.89-.33.43-1.16-.97-1.77-.91-2.53.04-.52.53-.79l1.7-.94q.58-.32.4-.96l-.23-.87q-.1-.38.31-.59.48-.24 1.03.22a.63.45 23.7 0 1 .22.37l.54 4.81a.46.38 77.9 0 0 .53.41l1.26-.46q.48-.18.89.16c.69.57 1.04 1.64.59 2.57q-.4.83-.4 1-.01.41.28.39.19-.02.28-.23.24-.53.66-.13.28.27.29.73.04 1.89-.01 3.86a1.28 1.28 0 0 0 .32.89q.68.76.29 1.59-.24.53.03 1.08l1.06 2.19q.22.45.16.98l-.1.81q-.06.51.58.61.3.05 1.08-.14.52-.12.71.38.45 1.19.17 2.31-.02.1.06.15l.22.13q.1.06.15-.05l1.95-4.45q.15-.36-.26-.64c-2.82-1.89.18-4.65 1.92-6.05a.63.63 0 0 1 .86.05q.27.28.26.72-.02.64.62.08 1.28-1.11 3.4-1.29.62-.05.33-.59-1.26-2.39 1.7-4.05.59-.33.61.34l.07 2.55q.02.7.64.4l1.38-.65a.6.6 0 0 1 .84.39q.37 1.53-.19 2.79-.18.4.24.53 1.29.39.65 2.09-.17.45-.01.91.44 1.26.3 2.54-.06.48.28.83.97 1.03.48 2.04" vector-effect="non-scaling-stroke"/><path stroke="#014f48" d="M148.6 149.1q-.23 1.23 1.76 1.95.61.22.69.86.05.41.31.68.45.46.47-.18l.09-1.88a.68.6-1.5 0 1 .62-.57l.62-.06q.54-.04.31-.7-.5-1.39-1.55-2.41" vector-effect="non-scaling-stroke"/><path stroke="#7d4c43" d="M151.92 146.79q-.42-1.51 2.17-3.34.35-.25.72-.06.19.1.3.16.49.27.72-.24.64-1.44 2.49-1.71.51-.08.29-.54-.83-1.77-.02-3.25.58-1.06 1.07-.57.18.17.62 1.48a.18.18 0 0 0 .28.09q.97-.69 1.4-.76.62-.09.79.4.19.58.06 1.1-.12.48.14.9l3.73 6.02" vector-effect="non-scaling-stroke"/><path stroke="#014f48" d="M166.68 146.47q.66.75.16 1.41-1.38 1.83.7.8.83-.41 1.26-.68.55-.34.87.29l.64 1.27a.58.57-6.8 0 0 .38.29l.59.14a.3.28 83.7 0 0 .31-.42q-1-2.29-.2-4.59.21-.6.05-.97-.21-.5-.67-.67-.47-.18-.79.21-.43.51-.95.51" vector-effect="non-scaling-stroke"/><path stroke="#7d4c43" d="m169.03 144.06.65-5.41q.06-.51.57-.56.14-.01.27-.06.47-.18.6-.67.44-1.57 1.19-2.68.3-.45.09-.95-.53-1.25-.6-2.66-.03-.5.37-.81.6-.48 1.45-.75" vector-effect="non-scaling-stroke"/><path stroke="#014f48" d="M173.62 129.51q.62-.52 1.45-.04.4.23.76-.05.52-.42 1.1-.04.41.27.78.34l3.92.79q.33.06.34-.33l.09-2.46q.02-.53.52-.68l.88-.25q.64-.19.17-.65l-2.74-2.75q-.33-.33-.58.1l-.96 1.69" vector-effect="non-scaling-stroke"/><path stroke="#7d4c43" d="M179.35 125.18q-.74-1.94-.9-4.91-.11-2.05-1.86-3.44-.39-.3-.22-.77l.65-1.78" vector-effect="non-scaling-stroke"/><path stroke="#014f48" d="M177.02 114.28q2.3-2.15 2.68-5.44.06-.48-.19-.89-.33-.58.04-1.27.6-1.1-.36-.3-1.46 1.2-1.39 3.53" vector-effect="non-scaling-stroke"/><path stroke="#7d4c43" d="m177.8 109.91-2.17-1.81q-.37-.31-.85-.42-.81-.19-1.3-1.02" vector-effect="non-scaling-stroke"/><path stroke="#014f48" d="M173.48 106.66q.5-.84-.02-1.62a1.02 1.02 0 0 1-.13-.88q.36-1.14-.5-2.57-.68-1.13-.69.19-.02 1.98-1.25 2.93a.9.67 26.8 0 1-.66.12q-.14-.03-.25-.16-.44-.52-.77.07t-.4 1.34" vector-effect="non-scaling-stroke"/><path stroke="#7d4c43" d="M168.81 106.08c-.92 1.2.02 3.13.1 4.02q.05.53-.28.9-.96 1.08-2.77 1.07-.53-.01-.63-.53c-.41-2.22-.77-3.98-3.55-3.62a.38.38 0 0 1-.39-.55q.87-1.62 1.27-3.74.1-.52-.24-.85l-.49-.48a1.19.96-69.3 0 1-.29-.89q.22-2.6-2.01-3.67-.51-.25-.5-.81l.03-2.15q.02-.93.71-.38.78.63 1.18-.51a1.96 1.52-15.2 0 1 .62-.82l3.69-2.84a.54.53-54 0 0-.14-.93q-1.55-.53-1.92-2.92-.23-1.47.74-3.21 1.18-2.12 1.11-5.36a.49.47 75.2 0 0-.7-.42l-.36.2q-.46.26-.79-.21-.98-1.36-.97-2.97M174.5 71.88l.64 1.53q.19.47.64.32l1.88-.64a.43.39 81.2 0 1 .52.43v.59a.19.18-44.1 0 0 .37 0q.13-1.47 1.52-2.23.47-.25.31-.75l-.47-1.51q-.14-.44-.59-.56-1.02-.26-1.67-1.01" vector-effect="non-scaling-stroke"/><path stroke="#7e9b8b" d="M290.74 125.98q-.9.85-2.29-.25M279.87 121.74q-.63-.18-1.74-1.48M257.69 98.22q-1.08-.21-1.38.31M256.31 98.53l-1.04.01M253.98 96.75q-1.28-1.37-.57-3.25.14-.36-.29-.75M253.02 91.04q.44-.71.6-1.5M168.81 106.08q.9.06 2.69-.83 1.18-.58 1.98 1.41M177.8 109.91l-.78 4.37M179.35 125.18l.18 1.13a1.03 1 63 0 1-.26.86l-1.51 1.58q-.24.24-.59.12-.09-.04-.33-.31-.38-.42-.83-.09-.44.32-1.09.03-.49-.22-.86.16-.35.35-.44.85M169.03 144.06q-.45 1.31-2.35 2.41M151.92 146.79q-.21 4.66-3.32 2.31" vector-effect="non-scaling-stroke"/><path stroke="#7d4c43" d="M99.99 146.23q1.08-1.26.91-2.56-.07-.53-.57-.73-1.36-.53-1.99-1.56a.89.89 0 0 1-.03-.86q.81-1.64.77-2.62-.02-.56-.57-.65-1.38-.23-1.58-1.31-.09-.52-.59-.68-.47-.15-.63.97-.07.52-.52.26-.6-.34-.55-.77.54-5.2.37-5.99-.14-.67-.71-.3-1.06.69-2.7-.04-.52-.24-.88.21-.75.91-.74 2.94a.37.37 0 0 1-.52.34q-.75-.32-1.22-1.21-.23-.45-1.76-5.07-.14-.4.08-.75.09-.15.14-.28a.4.4 0 0 0-.37-.55q-.61 0-1.51.41-.59.27-.68-.34l-.21-1.54a.52.51 64.9 0 0-.85-.32q-1.57 1.47-.73 3.39a1.4 1.4 0 0 1 .06.95q-1.14 3.89-2.45 5.44-.38.45-.33.84l.45 3.42q.16 1.16.9.24.25-.31.75-1.38.07-.13.21-.11l.31.05q.34.05.17.35-.48.87-.02 1.53.28.41.31.91.12 1.94-1.06 3.97" vector-effect="non-scaling-stroke"/><path stroke="#7e9b8b" d="M230.71 78.51q.48.28 1.16.21M231.76 83.02q-.16.46-.41.35M229.15 87.78l-1.72.57M221.93 85.19q-.8-.29-1.55-1.56" vector-effect="non-scaling-stroke"/></g><path d="M218.33 67.47q1.65 1.53 1.7 2.97c.04 1.65-2.3 3.06-2.78 4.53q-.21.65.44.42 1.25-.44 1.95.85.22.4.1.84-.19.72.27 1.11.41.34.91.14.52-.21.93 0 .28.14.25.95-.07 2.45-1.72 4.35-.47 1.86-.21 3.61.08.54.57.31 1.16-.54 1.19-2.36 1.06-.2 2.12.25.44.2.87-.01.52-.23 1.07-.22a.71.71 0 0 1 .66.51l.78 2.63q.69 1.01.7 1.51.02 2.09.88.19.57-1.25.14-2.27.5-2.95 2.2-4.41 1.4.66 2.13.28.37-.19.07-.48-.42-.4-1.79-.15.78-2.73.11-4.3.06-.75-.14-1.11-.33-.59-.61.02l-.41.88q-.55.27-1.07.31-.57.04-.54-.5l.16-3.47a1.03 1 77.9 0 1 .54-.85q1.24-.65 1.16-2.34a.74.74 0 0 1 .3-.63l.32-.24q-.14.03.21.18.5.86 1.36 1.26.54.24.66-.34.05-.23-.04-.53 3.17-1.46 5.5-.25-.59 1.33.43 2.47.37.42.84.11.51-.33.54-1.2.02-.62.66-.51l2.47.43q.36.06.79-.06.68-.18 1.43.38a.94.94 0 0 0 .92.12q.71-.3 1.15-.81.35-.4.12-.87l-.63-1.29 4.75 3.81q-.76.84.57 1.7.62.4.95-.44.91.38.78.65 1.84 3.22-.23 4.4-.49.28-.37.67l1.12 3.71q.16.54-.41.64l-1.01.18q-.53.1-.38.76.39 1.77-.14 3.58-.32.04-.61-.13-.4-.24-.67.13-.17.21-.13.49.09.64.81 1.01l.1 1.71-1.06 2.73a1.02 1.02 0 0 0 1.09 1.38l.83-.11q.93.65 1.29 1.79l-.09 2.87q0 .11.08.19.13.1.26.08.12-.01.14-.12l.65-3.03q1.05.54 1.38-.31c.66-1.62-.64-2.19-.58-3.45q.03-.74.78-1.31a.82.82 0 0 1 .94-.03q1.65 1.04 2.24-.75.07-.2.27-.27.17-.07.32 0 .2.08.22.33l.18 2.5q.05.8.68.35.86-.62 1.36.25c.49.85 1.19 1.09 1.9 1.23a.54.54 0 0 0 .64-.4q.55-2.27 2.74-1.63a.85.85 0 0 1 .4 1.38q-1.61 1.83.44 3.27.95.67.22 1.46l-.39.42a1.46 1.04 70.6 0 0-.29 1.01q.15 1.89-1.46 4.99-1.87 3.6 1.66 5.12a.54.54 0 0 0 .73-.66l-.45-1.3q-.19-.56.38-.63 1.59-.21 2.66-.75.51-.25.64.3.37 1.59 2.35 2.91a.29.29 0 0 0 .45-.19q.22-1.19 1.41-1.43.5-.11.55.41.44 4.79-.55 8.91-1.63 2.61 2.2 3.51.53.13.6-.41.13-.98-1.06-1.62 1.07-1.01 2.45-1.29.51-.11.94.18.35.23.73.28.54.07.92-.31l.91-.92q1.21-1.21 1.54.48l1.09 5.57q-.26.81.38 1.78.21.32-.09.48l-.28.16q-.61.34.34.59 1.26.35 1.42 1.89.02.26.28.2l.28-.06q.1-.02.1-.13l-.14-4.66q.68-1.91 3.23-3.14c-.89 8.08-4.39 15.85-7.22 23.45q-.75 2.02-2.41 11.2-.52 2.85-1.44 4.14c-2.18 3.06-7.83 2.79-10.68 1.46-4.77-2.22-7.01-3.52-11.49-.55q-3 1.98-6.9 3.04-3.58.97-8.16.03-6.2-1.27-8.06-1.96-8.35-3.06-9.18-3.26-6.85-1.71-13.83-.54-3.4.57-11.2 1.71-6.11.9-11.31.71c-8.28-.32-18.32-2.71-26.1-6.29q-2.59-1.2-5.88-1.55c-2.97-.32-5.37-.68-8.17-.64q-16.18.24-30.94-1.35-5.53-.6-11.45-2.78.66-1.1 1.72-1.09.45 0 .19-.36-1.01-1.42-1.24-3.28-.04-.33-.25-.46-.41-.26-.59.18-.21.52-.24.57-.95 1.6-1.09-.22-.12-1.51.36-4.14.1-.53.57-.79 2.15-1.19 1.98-3.48-.2-2.66 1.68-.59l1.57 1.74a.51.44-64.2 0 0 .79-.33q.15-1 .76-1.88.3-.45.89-.16l.48.24q.39.19.65-.29.62-1.17 1.63-1.55.89-.33.43-1.16-.97-1.77-.91-2.53.04-.52.53-.79l1.7-.94q.58-.32.4-.96l-.23-.87q-.1-.38.31-.59.48-.24 1.03.22a.63.45 23.7 0 1 .22.37l.54 4.81a.46.38 77.9 0 0 .53.41l1.26-.46q.48-.18.89.16c.69.57 1.04 1.64.59 2.57q-.4.83-.4 1-.01.41.28.39.19-.02.28-.23.24-.53.66-.13.28.27.29.73.04 1.89-.01 3.86a1.28 1.28 0 0 0 .32.89q.68.76.29 1.59-.24.53.03 1.08l1.06 2.19q.22.45.16.98l-.1.81q-.06.51.58.61.3.05 1.08-.14.52-.12.71.38.45 1.19.17 2.31-.02.1.06.15l.22.13q.1.06.15-.05l1.95-4.45q.15-.36-.26-.64c-2.82-1.89.18-4.65 1.92-6.05a.63.63 0 0 1 .86.05q.27.28.26.72-.02.64.62.08 1.28-1.11 3.4-1.29.62-.05.33-.59-1.26-2.39 1.7-4.05.59-.33.61.34l.07 2.55q.02.7.64.4l1.38-.65a.6.6 0 0 1 .84.39q.37 1.53-.19 2.79-.18.4.24.53 1.29.39.65 2.09-.17.45-.01.91.44 1.26.3 2.54-.06.48.28.83.97 1.03.48 2.04-.23 1.23 1.76 1.95.61.22.69.86.05.41.31.68.45.46.47-.18l.09-1.88a.68.6-1.5 0 1 .62-.57l.62-.06q.54-.04.31-.7-.5-1.39-1.55-2.41-.42-1.51 2.17-3.34.35-.25.72-.06.19.1.3.16.49.27.72-.24.64-1.44 2.49-1.71.51-.08.29-.54-.83-1.77-.02-3.25.58-1.06 1.07-.57.18.17.62 1.48a.18.18 0 0 0 .28.09q.97-.69 1.4-.76.62-.09.79.4.19.58.06 1.1-.12.48.14.9l3.73 6.02q.66.75.16 1.41-1.38 1.83.7.8.83-.41 1.26-.68.55-.34.87.29l.64 1.27a.58.57-6.8 0 0 .38.29l.59.14a.3.28 83.7 0 0 .31-.42q-1-2.29-.2-4.59.21-.6.05-.97-.21-.5-.67-.67-.47-.18-.79.21-.43.51-.95.51l.65-5.41q.06-.51.57-.56.14-.01.27-.06.47-.18.6-.67.44-1.57 1.19-2.68.3-.45.09-.95-.53-1.25-.6-2.66-.03-.5.37-.81.6-.48 1.45-.75.62-.52 1.45-.04.4.23.76-.05.52-.42 1.1-.04.41.27.78.34l3.92.79q.33.06.34-.33l.09-2.46q.02-.53.52-.68l.88-.25q.64-.19.17-.65l-2.74-2.75q-.33-.33-.58.1l-.96 1.69q-.74-1.94-.9-4.91-.11-2.05-1.86-3.44-.39-.3-.22-.77l.65-1.78q2.3-2.15 2.68-5.44.06-.48-.19-.89-.33-.58.04-1.27.6-1.1-.36-.3-1.46 1.2-1.39 3.53l-2.17-1.81q-.37-.31-.85-.42-.81-.19-1.3-1.02.5-.84-.02-1.62a1.02 1.02 0 0 1-.13-.88q.36-1.14-.5-2.57-.68-1.13-.69.19-.02 1.98-1.25 2.93a.9.67 26.8 0 1-.66.12q-.14-.03-.25-.16-.44-.52-.77.07t-.4 1.34c-.92 1.2.02 3.13.1 4.02q.05.53-.28.9-.96 1.08-2.77 1.07-.53-.01-.63-.53c-.41-2.22-.77-3.98-3.55-3.62a.38.38 0 0 1-.39-.55q.87-1.62 1.27-3.74.1-.52-.24-.85l-.49-.48a1.19.96-69.3 0 1-.29-.89q.22-2.6-2.01-3.67-.51-.25-.5-.81l.03-2.15q.02-.93.71-.38.78.63 1.18-.51a1.96 1.52-15.2 0 1 .62-.82l3.69-2.84a.54.53-54 0 0-.14-.93q-1.55-.53-1.92-2.92-.23-1.47.74-3.21 1.18-2.12 1.11-5.36a.49.47 75.2 0 0-.7-.42l-.36.2q-.46.26-.79-.21-.98-1.36-.97-2.97 2.61.72 4.79 2.1 1.33.85 4.1.09.48-.13.75-.55l2.63-4.17.64 1.53q.19.47.64.32l1.88-.64a.43.39 81.2 0 1 .52.43v.59a.19.18-44.1 0 0 .37 0q.13-1.47 1.52-2.23.47-.25.31-.75l-.47-1.51q-.14-.44-.59-.56-1.02-.26-1.67-1.01c3.87-1.57 6.46.42 9.71 2.23a1.7 1.7 0 0 0 1.48.09q3.72-1.57 6.96-3.11 2.3-1.09 6.73-1.05.02 0 3.05.34 3.33.37 8.93-.47 1.95-.29 3.82 1.39"/><path fill="#f99786" d="M218.33 67.47q3.96.82 7.66 1.28 1.46.18 5.59 2.04l-.32.24a.74.74 0 0 0-.3.63q.08 1.69-1.16 2.34a1.03 1 77.9 0 0-.54.85l-.16 3.47q-.03.54.54.5.52-.04 1.07-.31.48.28 1.16.21.67 1.57-.11 4.3-.16.46-.41.35-1.7 1.46-2.2 4.41l-1.72.57-.78-2.63a.71.71 0 0 0-.66-.51q-.55-.01-1.07.22-.43.21-.87.01-1.06-.45-2.12-.25-.8-.29-1.55-1.56 1.65-1.9 1.72-4.35.03-.81-.25-.95-.41-.21-.93 0-.5.2-.91-.14-.46-.39-.27-1.11.12-.44-.1-.84-.7-1.29-1.95-.85-.65.23-.44-.42c.48-1.47 2.82-2.88 2.78-4.53q-.05-1.44-1.7-2.97M177.65 68.05q.65.75 1.67 1.01.45.12.59.56l.47 1.51q.16.5-.31.75-1.39.76-1.52 2.23a.19.18-44.1 0 1-.37 0v-.59a.43.39 81.2 0 0-.52-.43l-1.88.64q-.45.15-.64-.32l-.64-1.53q.96-2.82 3.15-3.83M247.99 69.88l.63 1.29q.23.47-.12.87-.44.51-1.15.81a.94.94 0 0 1-.92-.12q-.75-.56-1.43-.38-.43.12-.79.06l-2.47-.43q-.64-.11-.66.51-.03.87-.54 1.2-.47.31-.84-.11-1.02-1.14-.43-2.47zM233.77 71.36q.09.3.04.53-.12.58-.66.34-.86-.4-1.36-1.26zM162.23 74.41q-.01 1.61.97 2.97.33.47.79.21l.36-.2a.49.47 75.2 0 1 .7.42q.07 3.24-1.11 5.36-.97 1.74-.74 3.21.37 2.39 1.92 2.92a.54.53-54 0 1 .14.93l-3.69 2.84a1.96 1.52-15.2 0 0-.62.82q-.4 1.14-1.18.51-.69-.55-.71.38l-.03 2.15q-.01.56.5.81 2.23 1.07 2.01 3.67a1.19.96-69.3 0 0 .29.89l.49.48q.34.33.24.85-.4 2.12-1.27 3.74a.38.38 0 0 0 .39.55c2.78-.36 3.14 1.4 3.55 3.62q.1.52.63.53 1.81.01 2.77-1.07.33-.37.28-.9c-.08-.89-1.02-2.82-.1-4.02q.9.06 2.69-.83 1.18-.58 1.98 1.41.49.83 1.3 1.02.48.11.85.42l2.17 1.81-.78 4.37-.65 1.78q-.17.47.22.77 1.75 1.39 1.86 3.44.16 2.97.9 4.91l.18 1.13a1.03 1 63 0 1-.26.86l-1.51 1.58q-.24.24-.59.12-.09-.04-.33-.31-.38-.42-.83-.09-.44.32-1.09.03-.49-.22-.86.16-.35.35-.44.85-.85.27-1.45.75-.4.31-.37.81.07 1.41.6 2.66.21.5-.09.95-.75 1.11-1.19 2.68-.13.49-.6.67-.13.05-.27.06-.51.05-.57.56l-.65 5.41q-.45 1.31-2.35 2.41l-3.73-6.02q-.26-.42-.14-.9.13-.52-.06-1.1-.17-.49-.79-.4-.43.07-1.4.76a.18.18 0 0 1-.28-.09q-.44-1.31-.62-1.48-.49-.49-1.07.57-.81 1.48.02 3.25.22.46-.29.54-1.85.27-2.49 1.71-.23.51-.72.24-.11-.06-.3-.16-.37-.19-.72.06-2.59 1.83-2.17 3.34-.21 4.66-3.32 2.31.49-1.01-.48-2.04-.34-.35-.28-.83.14-1.28-.3-2.54-.16-.46.01-.91.64-1.7-.65-2.09-.42-.13-.24-.53.56-1.26.19-2.79a.6.6 0 0 0-.84-.39l-1.38.65q-.62.3-.64-.4l-.07-2.55q-.02-.67-.61-.34-2.96 1.66-1.7 4.05.29.54-.33.59-2.12.18-3.4 1.29-.64.56-.62-.08.01-.44-.26-.72a.63.63 0 0 0-.86-.05c-1.74 1.4-4.74 4.16-1.92 6.05q.41.28.26.64l-1.95 4.45q-.05.11-.15.05l-.22-.13q-.08-.05-.06-.15.28-1.12-.17-2.31-.19-.5-.71-.38-.78.19-1.08.14-.64-.1-.58-.61l.1-.81q.06-.53-.16-.98l-1.06-2.19q-.27-.55-.03-1.08.39-.83-.29-1.59a1.28 1.28 0 0 1-.32-.89q.05-1.97.01-3.86-.01-.46-.29-.73-.42-.4-.66.13-.09.21-.28.23-.29.02-.28-.39 0-.17.4-1c.45-.93.1-2-.59-2.57q-.41-.34-.89-.16l-1.26.46a.46.38 77.9 0 1-.53-.41l-.54-4.81a.63.45 23.7 0 0-.22-.37q-.55-.46-1.03-.22-.41.21-.31.59l.23.87q.18.64-.4.96l-1.7.94q-.49.27-.53.79-.06.76.91 2.53.46.83-.43 1.16-1.01.38-1.63 1.55-.26.48-.65.29l-.48-.24q-.59-.29-.89.16-.61.88-.76 1.88a.51.44-64.2 0 1-.79.33l-1.57-1.74q-1.88-2.07-1.68.59.17 2.29-1.98 3.48-.47.26-.57.79-.48 2.63-.36 4.14.14 1.82 1.09.22.03-.05.24-.57.18-.44.59-.18.21.13.25.46.23 1.86 1.24 3.28.26.36-.19.36-1.06-.01-1.72 1.09l-9.56-3.43q1.08-1.26.91-2.56-.07-.53-.57-.73-1.36-.53-1.99-1.56a.89.89 0 0 1-.03-.86q.81-1.64.77-2.62-.02-.56-.57-.65-1.38-.23-1.58-1.31-.09-.52-.59-.68-.47-.15-.63.97-.07.52-.52.26-.6-.34-.55-.77.54-5.2.37-5.99-.14-.67-.71-.3-1.06.69-2.7-.04-.52-.24-.88.21-.75.91-.74 2.94a.37.37 0 0 1-.52.34q-.75-.32-1.22-1.21-.23-.45-1.76-5.07-.14-.4.08-.75.09-.15.14-.28a.4.4 0 0 0-.37-.55q-.61 0-1.51.41-.59.27-.68-.34l-.21-1.54a.52.51 64.9 0 0-.85-.32q-1.57 1.47-.73 3.39a1.4 1.4 0 0 1 .06.95q-1.14 3.89-2.45 5.44-.38.45-.33.84l.45 3.42q.16 1.16.9.24.25-.31.75-1.38.07-.13.21-.11l.31.05q.34.05.17.35-.48.87-.02 1.53.28.41.31.91.12 1.94-1.06 3.97-3.6-.63-5.74-3.01c-3.5-3.9 1.66-14.63 4.16-18.26q5.47-7.94 8.98-12.26 1.37-1.68 3.41-2.12 22.92-4.92 40.08-11.14 7.42-2.69 12.32-8.19 4.64-5.22 5.33-12.82.19-2.12 2.24-2.96 1.24-.52 3.2 0 3.45.91 6.6 2.34M252.74 73.69l1.52 1.26q-.33.84-.95.44-1.33-.86-.57-1.7M255.04 75.6l6.97 5.67a2.24 2.24 0 0 0 1.76.48q2.07-.33 5.96-.79 3.13-.38 6.02.19 5.37 1.06 7.97 1.87c2.28.72 3.8 1.52 4.26 4.22q.61 3.55-.4 7.14-.28 1.01-.09 1.27.25.33 1.08.36.49.02.83.53.11.15.85 3.13.3 1.21 1.52 3.04.93 1.4 1.12 3.02.97 8.28 1.37 11.57c.22 1.79-.07 3.7-.29 5.54q-2.55 1.23-3.23 3.14-.9.85-2.29-.25l-1.09-5.57q-.33-1.69-1.54-.48l-.91.92q-.38.38-.92.31-.38-.05-.73-.28-.43-.29-.94-.18-1.38.28-2.45 1.29-.63-.18-1.74-1.48.99-4.12.55-8.91-.05-.52-.55-.41-1.19.24-1.41 1.43a.29.29 0 0 1-.45.19q-1.98-1.32-2.35-2.91-.13-.55-.64-.3-1.07.54-2.66.75-.57.07-.38.63l.45 1.3a.54.54 0 0 1-.73.66q-3.53-1.52-1.66-5.12 1.61-3.1 1.46-4.99a1.46 1.04 70.6 0 1 .29-1.01l.39-.42q.73-.79-.22-1.46-2.05-1.44-.44-3.27a.85.85 0 0 0-.4-1.38q-2.19-.64-2.74 1.63a.54.54 0 0 1-.64.4c-.71-.14-1.41-.38-1.9-1.23q-.5-.87-1.36-.25-.63.45-.68-.35l-.18-2.5q-.02-.25-.22-.33-.15-.07-.32 0-.2.07-.27.27-.59 1.79-2.24.75a.82.82 0 0 0-.94.03q-.75.57-.78 1.31c-.06 1.26 1.24 1.83.58 3.45q-1.08-.21-1.38.31l-1.04.01q-.36-1.14-1.29-1.79-1.28-1.37-.57-3.25.14-.36-.29-.75l-.1-1.71q.44-.71.6-1.5.53-1.81.14-3.58-.15-.66.38-.76l1.01-.18q.57-.1.41-.64l-1.12-3.71q-.12-.39.37-.67 2.07-1.18.23-4.4"/><path fill="#029e8f" d="M231.87 78.72q-.68.07-1.16-.21l.41-.88q.28-.61.61-.02.2.36.14 1.11M231.35 83.37q.25.11.41-.35 1.37-.25 1.79.15.3.29-.07.48-.73.38-2.13-.28M220.38 83.63q.75 1.27 1.55 1.56-.03 1.82-1.19 2.36-.49.23-.57-.31-.26-1.75.21-3.61M229.15 87.78q.43 1.02-.14 2.27-.86 1.9-.88-.19-.01-.5-.7-1.51zM253.62 89.54q-.16.79-.6 1.5-.72-.37-.81-1.01-.04-.28.13-.49.27-.37.67-.13.29.17.61.13M253.98 96.75l-.83.11a1.02 1.02 0 0 1-1.09-1.38l1.06-2.73q.43.39.29.75-.71 1.88.57 3.25M257.69 98.22q-.33.85-1.38.31.3-.52 1.38-.31M256.31 98.53l-.65 3.03q-.02.11-.14.12-.13.02-.26-.08-.08-.08-.08-.19l.09-2.87zM173.48 106.66q-.8-1.99-1.98-1.41-1.79.89-2.69.83.07-.75.4-1.34t.77-.07q.11.13.25.16a.9.67 26.8 0 0 .66-.12q1.23-.95 1.25-2.93.01-1.32.69-.19.86 1.43.5 2.57a1.02 1.02 0 0 0 .13.88q.52.78.02 1.62M177.02 114.28l.78-4.37q-.07-2.33 1.39-3.53.96-.8.36.3-.37.69-.04 1.27.25.41.19.89-.38 3.29-2.68 5.44M278.13 120.26q1.11 1.3 1.74 1.48 1.19.64 1.06 1.62-.07.54-.6.41-3.83-.9-2.2-3.51"/><path d="m99.99 146.23-18.34-3.4q1.18-2.03 1.06-3.97-.03-.5-.31-.91-.46-.66.02-1.53.17-.3-.17-.35l-.31-.05q-.14-.02-.21.11-.5 1.07-.75 1.38-.74.92-.9-.24l-.45-3.42q-.05-.39.33-.84 1.31-1.55 2.45-5.44a1.4 1.4 0 0 0-.06-.95q-.84-1.92.73-3.39a.52.51 64.9 0 1 .85.32l.21 1.54q.09.61.68.34.9-.41 1.51-.41a.4.4 0 0 1 .37.55q-.05.13-.14.28-.22.35-.08.75 1.53 4.62 1.76 5.07.47.89 1.22 1.21a.37.37 0 0 0 .52-.34q-.01-2.03.74-2.94.36-.45.88-.21 1.64.73 2.7.04.57-.37.71.3.17.79-.37 5.99-.05.43.55.77.45.26.52-.26.16-1.12.63-.97.5.16.59.68.2 1.08 1.58 1.31.55.09.57.65.04.98-.77 2.62a.89.89 0 0 0 .03.86q.63 1.03 1.99 1.56.5.2.57.73.17 1.3-.91 2.56"/><path fill="#029e8f" d="M173.62 129.51q.09-.5.44-.85.37-.38.86-.16.65.29 1.09-.03.45-.33.83.09.24.27.33.31.35.12.59-.12l1.51-1.58a1.03 1 63 0 0 .26-.86l-.18-1.13.96-1.69q.25-.43.58-.1l2.74 2.75q.47.46-.17.65l-.88.25q-.5.15-.52.68l-.09 2.46q-.01.39-.34.33l-3.92-.79q-.37-.07-.78-.34-.58-.38-1.1.04-.36.28-.76.05-.83-.48-1.45.04M290.74 125.98l.14 4.66q0 .11-.1.13l-.28.06q-.26.06-.28-.2-.16-1.54-1.42-1.89-.95-.25-.34-.59l.28-.16q.3-.16.09-.48-.64-.97-.38-1.78 1.39 1.1 2.29.25M166.68 146.47q1.9-1.1 2.35-2.41.52 0 .95-.51.32-.39.79-.21.46.17.67.67.16.37-.05.97-.8 2.3.2 4.59a.3.28 83.7 0 1-.31.42l-.59-.14a.58.57-6.8 0 1-.38-.29l-.64-1.27q-.32-.63-.87-.29-.43.27-1.26.68-2.08 1.03-.7-.8.5-.66-.16-1.41M148.6 149.1q3.11 2.35 3.32-2.31 1.05 1.02 1.55 2.41.23.66-.31.7l-.62.06a.68.6-1.5 0 0-.62.57l-.09 1.88q-.02.64-.47.18-.26-.27-.31-.68-.08-.64-.69-.86-1.99-.72-1.76-1.95"/></svg>