<svg xmlns="http://www.w3.org/2000/svg" viewBox="0 0 382 382"><g fill="none" stroke="#43592d" stroke-width="2"><path d="M216.27 66.41q-.26.62-.07.94a.5.5 0 0 0 .75.13q.52-.43.34-.68M218.25 67.36q1.07.84.04 1.88-.37.38.01.75.89.87 2.31 1.18a.37.37 0 0 1 .16.65q-1.55 1.26-2.53 3.42-.09.2-.35.35l-.3.18a.64.26-23 0 0-.31.31l-1.25 4.46a.28.28 0 0 0 .29.36l.29-.02q.12-.01.15-.15.28-1.44 1.2-2.34.44-.44.88 0 2.09 2.15 2.92 2.48a2.43 1.68-63.1 0 1 .43 3.11l-1.83 3.24q-.28.48.06.89.59.71.52 1.26-.07.6-.62.67l-.63.09q-.72.09-.19.66 1.77 1.9 1.55 5.25-.08 1.32.93.46.76-.64.54-1.54-.12-.53.15-.91l1.11-1.58q.34-.49.01-1.03l-.38-.62q-.3-.5.09-.89l.46-.46a.65.65 0 0 1 .91-.01q.79.76 1.58.5a.73.73 0 0 0 .51-.7q0-.34.14-.76.26-.78.92-.05l2.58 2.84q.25.29-.02.73l-.16.25q-.34.53.22.8 3 1.43 5.3-1.64.05-.07 0-.14l-.2-.23a.24.17-39.7 0 0-.29.02l-.56.46q-.52.43-.68-.17l-.16-.62q-.17-.65-.77-.37l-.53.24q-.59.27-.68-.38-.25-1.77 1.38-3.26.41-.37.14-.79l-.28-.44q-.34-.52.22-.86l2.24-1.36q.38-.23.24-.62-.47-1.38-1.13-1.63a.87.87 0 0 1-.4-1.3q.52-.77.46-1.3a.5.47 66.8 0 0-.79-.34l-.39.36q-.48.44-.72-.18-.17-.44-.14-1.02.02-.28-.26-.3l-.3-.01q-.21-.01-.24.22l-.25 1.9q-.07.54-.61.37-.52-.17-.84-.54a.75.75 0 0 1-.06-.9q1.87-2.82 1.68-5.16-.13-1.65 1.14-.45.39.37.9.36a.84.84 0 0 0 .74-.47q.37-.78.12-1.26M239.2 70.97l2.13 4.6q.22.49.76.46l.45-.03q.43-.02.22-.39-.75-1.3-.79-2.79-.02-.77.76-.77h1.41q.67 0 .73.66l.18 1.92q.03.32.34.23l.3-.1q.15-.04.17-.2l.09-1.01a.45.44-65 0 1 .76-.29l1.36 1.41q.36.36.58-.08l1.51-3.04M254 74.68q-.69.09-.73.2a1.41 1.41 0 0 0 1.39 1.81q.42-.01.83-.73M256.21 76.43q-.46.39-.07.91 1.59 2.17-.39 3.37a.66.66 0 0 0-.28.79q.65 1.79.36 3.7-.08.51-.56.71l-.59.25q-.51.22-.18.74.78 1.19.48 3.39-.09.65-.68.36-.19-.1-.43-.19-.52-.21-1.07.06-.65.33-.6.95a.68.67 17.1 0 0 .25.47q1.72 1.4 1.65 2.92-.03.45-.43.68l-2.04 1.17q-.65.38-.3.92 1.02 1.55-.03 2.73-.07.08-.05.22.04.16.11.24.14.15.29-.01l.73-.76a2.12 2.05 59.1 0 1 3.48.93l.7 2.38q.12.41-.2.82-.35.44-.28 1.32a.36.33-14.7 0 0 .49.26l.24-.1q.26-.1.23-.29-.13-1.18.41-1.36.39-.13.51.27.11.43.43.52a.23.22 85.5 0 0 .26-.31q-.88-1.92-.49-4.02a.67.66 21.6 0 1 1.02-.43l1.04.65q1.01.64.66-.5l-1.11-3.57q-.18-.58-.67-.22-.26.19-.53.31-.68.3-.27-.32 1.4-2.1 2.96-2.36 1.03-.17 2.38 1.08a.51.49 39.8 0 1 .07.67l-.36.49q-.44.58.28.7.65.11 1.51-.59a.49.49 0 0 1 .8.34q.11 1.37 1.43 2.1.51.28.56-.34l.17-1.82q.05-.56.57-.64.87-.14 1.66.02a.82.82 0 0 1 .49 1.31q-1.69 2.19.82 3.75a.55.52-47.5 0 1 .01.88l-1 .78q-.39.31-.19.84.95 2.54-1.8 4.85-.33.28-.13.66 1.21 2.35-1.02 3.29-.39.16-.44.57-.02.16.01.31.15.65.69.27l.48-.34q.34-.24.52.23l1.58 4.13a.59.56-12.5 0 0 .59.36l.52-.05q.57-.05.24-.47-.79-.99.11-1.62a1.68 1.67-7.5 0 0 .61-.8q.75-2.06 1.16-2.89 1.03-2.12 1.3.22.09.76.12.88.16.66.64.35.76-.49 1.91.32.04.03.42.07.23.02.37.01a.42.42 0 0 0 .34-.63q-.4-.69-.38-.87.03-.37.35-.47.15-.04.29-.05a.78.78 0 0 1 .77.51q.8 2.2 1.15 3.68c.35 1.48-.71 3.57-1.59 5.7q-.18.45.06.85l.32.55a.62.61-34.6 0 1-.15.8q-1.35 1.06-2.16 2.22-.64.92.32.35 1.29-.78 2.58-.4.57.17.61.76l.19 2.59q.02.23.27.22l.32-.01q.37-.02.34-.29-.27-2.19 1.37-2.59.52-.13.25-.59-1.21-2.13.28-3.48 1.19-1.09 1.02.56-.04.28.14 1.03a.45.45 0 0 0 .14.24q.79.69.93-.97.06-.63.67-.27l.28.17q.56.33.79-.29.38-1.03 1.37-2.13.18-.19.38-.02l.22.18q.23.19 0 .4-.38.34-.46.55-.23.67.47.54.02-.01.3.02.41.03.41.44.03 3.7 1.78 7.61M174.61 159.09q.81-.93-.17-2.2-.27-.35.04-.57l2.69-1.86a2.44 2.35-39.6 0 1 3.06.24l2.2 2.2a.36.3-69.1 0 0 .53-.3c.09-1.63-1.91-3.19-.33-5.09q.4-.49-.22-.59-.6-.1-1.41.64-.88.8-.94-.39-.08-1.42-.88-2.83-.27-.47.05-.89.79-1.06.86-1.82a.42.42 0 0 0-.62-.4q-1.03.6-1.68.27-.53-.25-.66.31-.09.39-.1.45-.39 1.26-.92.14l-.94-1.97q-.2-.44.05-.91.79-1.45.96-3.87.05-.58.66-.62l1.49-.08q.5-.03.25-.56-.34-.73-.37-.89-.08-.46.28-1.41.58-1.52.36-3.39a1.28 1.28 0 0 0-.43-.82q-1.09-.94-1.39-1.82a.83.6-28.7 0 1 .39-.8c1.27-.85 2.49-.82 2.82-2.74q.03-.18.2-.22.15-.03.3.04.27.14.19.43-.23.77.18.97.72.35.84-.44l.1-.69q.06-.44.54-.29.29.09.38 1.03a.44.44 0 0 0 .74.29q.33-.3.72-.36a.49.49 0 0 1 .56.56q-.07.51.22.79a.38.36 33.8 0 0 .6-.11l1.34-3.09q.27-.62.69-.11 2.13 2.6 4.83 3.41a.36.36 0 0 0 .43-.5l-1.34-2.76q-.37-.75-.81-.05-.16.25-.39.33a.41.41 0 0 1-.49-.59q1.15-2.03.14-4.1-.19-.4-.02-.99c.52-1.74 1.71-3.13.87-5.4q-.49-1.31-.86.04l-.41 1.5q-.14.5-.63.59-1.67.29-2.74 1.02-.42.28-.17.72l.42.72q.36.62-.29.81-.57.17-1.02-.45-.29-.41-.53-1.06-.18-.49-.68-.6-1.05-.25-1.03-1.07.01-.37.26-.72l.23-.34a.33.32-66.2 0 0-.18-.51q-1.69-.34-1.5-2.47a.64.55 70.5 0 0-.99-.57l-.42.53a.14.04 16.5 0 1-.13 0q-.25-.07-.33-.48a.72.72 0 0 1 .13-.57q.84-1.12.34-1.94-.32-.54.15-.96 1.3-1.14.86-2.04-.26-.54.29-.74l.39-.14q.61-.22.25-.79-.94-1.5.72-2.96 1.53-1.34-.42-1.24l-.91.04q-.65.04-.71-.7l-.23-2.7q-.04-.48-.5-.36-.39.11-.92.62-.38.37-.15.86l.45.95q.23.51-.09.87-.71.79-.9 3.03a.3.3 0 0 1-.5.21q-.83-.71-1.34-.77-.69-.09-.86.54l-.29 1.17a.28.26 24.6 0 1-.42.14l-.24-.16q-.22-.15-.19-.36.33-2.9-.59-4.64-.29-.53.22-.86.18-.12.25-.36a.3.3 0 0 0-.44-.34l-1.98 1.22a.91.87 52 0 0-.14 1.38q.31.32.45.82.14.52-.34.77-1.07.57-2.69.67-.7.04-.34.64.7 1.18.07 2.26-.27.47-.09.98.72 2.06 2.14 2.48.64.2.18.68-.48.49-.99.43-1.61-.17-2.44.36a.67.67 0 0 1-.98-.32q-.41-1.02-1.23-1.98-.41-.47-.91-.19l-.53.3q-.61.35-.62-.38c-.02-1.84.93-3.47.56-5.25q-.95-4.46-4.36-7.31a.31.31 0 0 1 .13-.54c1.63-.37 2.8-1 4.06-2.52q.57-.69 1.85-1.3.47-.22.79.19.19.24.38.23.49-.03.3-.48-.82-1.94-1.83-2.37a.99.8 5 0 1-.51-.49l-1.14-2.93q-.18-.47.28-.47l1.8-.02q.82 0 .32-.66-.27-.37-.4-.75-.17-.52.07-1.01 1.59-3.33-.02-6.36M174.71 71.51q.17 1.47 1.87 1.74.57.09.5.66-.09.73-.84 1.38-.47.4.08.67.27.13.87.08a.83.83 0 0 0 .72-.6l.31-1.02q.15-.53.7-.55.57-.02.8.44.2.39.37 1.98.07.61.73.66l.33.03a.88.84 74.1 0 0 .71-1.37q-1.04-1.53-.86-2.89.06-.51.58-.59.92-.15 1.33-.54a.65.65 0 0 0 .08-.84q-.93-1.31-1.06-2.12-.09-.58-.66-.7-.72-.17-1.38.66-.4.51-.79-.01-.28-.36-.37-.86M164.04 75.07l-.7 1.07q-.27.43-.02.88.31.53.91.72.46.14.62-.31l.61-1.74M170.9 157.93q.2-.84 1.48-.98.65-.06.29-.6l-.31-.47q-.29-.43.06-.86.83-1.01.44-2.45a.7.7 0 0 0-.66-.51q-1.82-.06-2.52-.68-1.38-1.24.48-1.42.56-.06.84-.64a.67.66 34.7 0 0-.14-.78q-1.93-1.81-2.17-3.77-.1-.82-.69-.32-.2.17-.48.16a.42.42 0 0 1-.4-.44q.06-2.13-2.18-2.18a.91.81 77.6 0 1-.76-.56l-.41-.96a.48.48 0 0 0-.76-.17q-1.79 1.58-.34 4.03a.6.6 0 0 1-.15.78q-2.1 1.61-4.52 1.93-.56.08-.83.58l-.45.85a1 1 0 0 1-.6.49q-1.38.41-1.14 1.79.24 1.42 1.68 1.98 1.77.7 1.12 1.41M151.01 153.66l-1.39-1.6a.9.9 0 0 1-.16-.9q.62-1.7.05-3.2-.2-.52-.01-1.04l.34-.96q.19-.54-.28-.71l-1.06-.37a.82.79-62.2 0 1-.35-1.23q.53-.76.83-1.8a.58.58 0 0 0-.06-.46q-.59-.97-2.35.37a.41.41 0 0 1-.65-.28q-.17-1.34.66-2.63.26-.41.06-.85-.24-.53-.87-.81-.53-.24-.69.33-.4 1.47-1.49 2.59-.39.4-.11.89.5.88-.54 1.58-.55.38-1.55.48-1.38.15-1.52.9-.35 1.9-.9.08-.31-1.03-1.03-1.72-.48-.46-.73.16-.48 1.16-1.38 2.21c-1.63 1.9-.57 3.82 1.6 4.54q.67.23.08.62-1.69 1.1-1.76 3.67M128.74 152.97l2.09-2.34a.89.88-55.3 0 0-.25-1.38l-1.98-1.03a.74.72 39.6 0 1-.14-1.23q.82-.62 1.36-1.52.26-.43.03-.87-.45-.91-1.11-1.34-.64-.44-.32-1.14.6-1.34.5-2.21-.07-.51-.53-.75l-1.01-.5a.63.61 29.8 0 1-.26-.89q1.29-1.95-.42-4.34-.43-.61-.62.13l-.16.65q-.12.45-.53.67-.37.2-.64.13-.58-.15-.31-.69 1.34-2.68-.63-5.9a.49.49 0 0 0-.71-.13q-1.18.9-.62 1.82.29.46-.21.68-2.34 1.02-2.32 3.29 0 .6.6.79l.64.21q1.32.43-.01.78-1.83.49-2.44 2.67-.17.63-.6.14-.26-.29-.2-.91.05-.6-.55-.54-.64.07-1.08 1.1-.48 1.14.41 2.18a.3.27-19.5 0 1-.24.46l-.58.02q-.25.01-.33-.1l-1.64-2.49a.98.82 37 0 0-1.68.08q-.51 2.92-2.41 5.21-.71.86-.85 1.79-.12.87.04 2.17.02.19.2.26.15.07.37.02a.39.37-3.6 0 0 .31-.32l.07-.67q.06-.56.61-.86 1.04-.59 1.5 1.33.19.8.71.21l.28-.3q.31-.35.65.1 1.52 2.01.23 3.65M101.99 146.88q-1-1.09-2.44-1.53-.39-.12-.63.2l-.19.25M97.93 145.6q-.01-1.69.99-3.56a1.16 1.16 0 0 0 .07-.94q-.51-1.41-1.99-2.61-.51-.42-.96-.03l-.38.33a.47.43 70.5 0 1-.72-.38q-.05-1.69.72-4.04a1.35 1.35 0 0 0-.03-.92q-.5-1.26.01-1.79a.42.42 0 0 0-.23-.7q-.59-.1-1.01.28-1.37 1.23-2.71.14-.44-.36-.86.04-.8.78-.28 1.8.25.48-.11.89-1.21 1.37-1.79 1.65-.61.29-.6-.38.04-4.01-1.25-7.85-.16-.49-.59-.19l-.28.2q-.58.42-.85-.23l-.91-2.19q-.94-2.26-1.18.03-.09.85-.69 2.61-.17.5.02 1 .54 1.36-.77 2.23a.62.62 0 0 0-.08.98q.86.76.37 1.67-.24.44-.74.44l-1.39.02a.64.62 79 0 0-.56.87q.66 1.75 1.12 3.74.18.82 1.1 1.16.53.2.57-.34l.15-1.8q.15-1.94.83-.11l.59 1.6q.16.44-.13.86-.67 1-.08 1.84.61.85.47 1.31" vector-effect="non-scaling-stroke"/><path d="M216.41 75.79q.19.27.58.12a.19.19 0 0 0 .08-.3q-.26-.33-.47-.35-.63-.09-.19.53M231.83 95.57q.3.64.33.72.75 1.67.79-.16.01-.35-.28-.95-.27-.6-.55-.82-1.43-1.14-.63.5.04.08.34.71M177.34 132.18a.27.27 0 0 0-.16.38q.19.38.73.1a.3.3 0 0 0-.05-.55q-.14-.05-.52.07M82.26 131.3a.24.24 0 0 0-.08.36q.31.46.47-.05.05-.19-.09-.31-.13-.09-.3 0M90.15 135.2q-.18.57.32.55.29-.01.3-.3.01-.15-.11-.33a.29.29 0 0 0-.51.08M95.18 140.37a.28.28 0 0 0 .19.45q.47.06.45-.47-.01-.29-.3-.25-.16.02-.34.27M159.2 148.24q-.19.33.03.52.31.28.52-.09.17-.32-.02-.5-.31-.31-.53.07" vector-effect="non-scaling-stroke"/></g><path d="M216.27 66.41q-.26.62-.07.94a.5.5 0 0 0 .75.13q.52-.43.34-.68l.96.56q1.07.84.04 1.88-.37.38.01.75.89.87 2.31 1.18a.37.37 0 0 1 .16.65q-1.55 1.26-2.53 3.42-.09.2-.35.35l-.3.18a.64.26-23 0 0-.31.31l-1.25 4.46a.28.28 0 0 0 .29.36l.29-.02q.12-.01.15-.15.28-1.44 1.2-2.34.44-.44.88 0 2.09 2.15 2.92 2.48a2.43 1.68-63.1 0 1 .43 3.11l-1.83 3.24q-.28.48.06.89.59.71.52 1.26-.07.6-.62.67l-.63.09q-.72.09-.19.66 1.77 1.9 1.55 5.25-.08 1.32.93.46.76-.64.54-1.54-.12-.53.15-.91l1.11-1.58q.34-.49.01-1.03l-.38-.62q-.3-.5.09-.89l.46-.46a.65.65 0 0 1 .91-.01q.79.76 1.58.5a.73.73 0 0 0 .51-.7q0-.34.14-.76.26-.78.92-.05l2.58 2.84q.25.29-.02.73l-.16.25q-.34.53.22.8 3 1.43 5.3-1.64.05-.07 0-.14l-.2-.23a.24.17-39.7 0 0-.29.02l-.56.46q-.52.43-.68-.17l-.16-.62q-.17-.65-.77-.37l-.53.24q-.59.27-.68-.38-.25-1.77 1.38-3.26.41-.37.14-.79l-.28-.44q-.34-.52.22-.86l2.24-1.36q.38-.23.24-.62-.47-1.38-1.13-1.63a.87.87 0 0 1-.4-1.3q.52-.77.46-1.3a.5.47 66.8 0 0-.79-.34l-.39.36q-.48.44-.72-.18-.17-.44-.14-1.02.02-.28-.26-.3l-.3-.01q-.21-.01-.24.22l-.25 1.9q-.07.54-.61.37-.52-.17-.84-.54a.75.75 0 0 1-.06-.9q1.87-2.82 1.68-5.16-.13-1.65 1.14-.45.39.37.9.36a.84.84 0 0 0 .74-.47q.37-.78.12-1.26 2.08-1.49 4.28-.29l2.13 4.6q.22.49.76.46l.45-.03q.43-.02.22-.39-.75-1.3-.79-2.79-.02-.77.76-.77h1.41q.67 0 .73.66l.18 1.92q.03.32.34.23l.3-.1q.15-.04.17-.2l.09-1.01a.45.44-65 0 1 .76-.29l1.36 1.41q.36.36.58-.08l1.51-3.04 3.84 3.13q-.69.09-.73.2a1.41 1.41 0 0 0 1.39 1.81q.42-.01.83-.73l.72.47q-.46.39-.07.91 1.59 2.17-.39 3.37a.66.66 0 0 0-.28.79q.65 1.79.36 3.7-.08.51-.56.71l-.59.25q-.51.22-.18.74.78 1.19.48 3.39-.09.65-.68.36-.19-.1-.43-.19-.52-.21-1.07.06-.65.33-.6.95a.68.67 17.1 0 0 .25.47q1.72 1.4 1.65 2.92-.03.45-.43.68l-2.04 1.17q-.65.38-.3.92 1.02 1.55-.03 2.73-.07.08-.05.22.04.16.11.24.14.15.29-.01l.73-.76a2.12 2.05 59.1 0 1 3.48.93l.7 2.38q.12.41-.2.82-.35.44-.28 1.32a.36.33-14.7 0 0 .49.26l.24-.1q.26-.1.23-.29-.13-1.18.41-1.36.39-.13.51.27.11.43.43.52a.23.22 85.5 0 0 .26-.31q-.88-1.92-.49-4.02a.67.66 21.6 0 1 1.02-.43l1.04.65q1.01.64.66-.5l-1.11-3.57q-.18-.58-.67-.22-.26.19-.53.31-.68.3-.27-.32 1.4-2.1 2.96-2.36 1.03-.17 2.38 1.08a.51.49 39.8 0 1 .07.67l-.36.49q-.44.58.28.7.65.11 1.51-.59a.49.49 0 0 1 .8.34q.11 1.37 1.43 2.1.51.28.56-.34l.17-1.82q.05-.56.57-.64.87-.14 1.66.02a.82.82 0 0 1 .49 1.31q-1.69 2.19.82 3.75a.55.52-47.5 0 1 .01.88l-1 .78q-.39.31-.19.84.95 2.54-1.8 4.85-.33.28-.13.66 1.21 2.35-1.02 3.29-.39.16-.44.57-.02.16.01.31.15.65.69.27l.48-.34q.34-.24.52.23l1.58 4.13a.59.56-12.5 0 0 .59.36l.52-.05q.57-.05.24-.47-.79-.99.11-1.62a1.68 1.67-7.5 0 0 .61-.8q.75-2.06 1.16-2.89 1.03-2.12 1.3.22.09.76.12.88.16.66.64.35.76-.49 1.91.32.04.03.42.07.23.02.37.01a.42.42 0 0 0 .34-.63q-.4-.69-.38-.87.03-.37.35-.47.15-.04.29-.05a.78.78 0 0 1 .77.51q.8 2.2 1.15 3.68c.35 1.48-.71 3.57-1.59 5.7q-.18.45.06.85l.32.55a.62.61-34.6 0 1-.15.8q-1.35 1.06-2.16 2.22-.64.92.32.35 1.29-.78 2.58-.4.57.17.61.76l.19 2.59q.02.23.27.22l.32-.01q.37-.02.34-.29-.27-2.19 1.37-2.59.52-.13.25-.59-1.21-2.13.28-3.48 1.19-1.09 1.02.56-.04.28.14 1.03a.45.45 0 0 0 .14.24q.79.69.93-.97.06-.63.67-.27l.28.17q.56.33.79-.29.38-1.03 1.37-2.13.18-.19.38-.02l.22.18q.23.19 0 .4-.38.34-.46.55-.23.67.47.54.02-.01.3.02.41.03.41.44.03 3.7 1.78 7.61-2.28 7.02-5.34 14.66-.88 2.21-2.62 11.98-.5 2.78-1.45 4.13c-2.15 3.04-7.54 2.77-10.51 1.51q-.59-.25-4.91-2.1c-2.33-.99-4.55.21-7.05 1.69q-5.96 3.52-10.69 3.34-3.12-.11-8.55-1.41-3.71-.88-8.2-2.71-4.38-1.78-8.92-2.38-4.08-.53-9.09.24-.77.12-10.99 1.68-6.15.93-11.08.78-9.37-.29-18.3-3.18.81-.93-.17-2.2-.27-.35.04-.57l2.69-1.86a2.44 2.35-39.6 0 1 3.06.24l2.2 2.2a.36.3-69.1 0 0 .53-.3c.09-1.63-1.91-3.19-.33-5.09q.4-.49-.22-.59-.6-.1-1.41.64-.88.8-.94-.39-.08-1.42-.88-2.83-.27-.47.05-.89.79-1.06.86-1.82a.42.42 0 0 0-.62-.4q-1.03.6-1.68.27-.53-.25-.66.31-.09.39-.1.45-.39 1.26-.92.14l-.94-1.97q-.2-.44.05-.91.79-1.45.96-3.87.05-.58.66-.62l1.49-.08q.5-.03.25-.56-.34-.73-.37-.89-.08-.46.28-1.41.58-1.52.36-3.39a1.28 1.28 0 0 0-.43-.82q-1.09-.94-1.39-1.82a.83.6-28.7 0 1 .39-.8c1.27-.85 2.49-.82 2.82-2.74q.03-.18.2-.22.15-.03.3.04.27.14.19.43-.23.77.18.97.72.35.84-.44l.1-.69q.06-.44.54-.29.29.09.38 1.03a.44.44 0 0 0 .74.29q.33-.3.72-.36a.49.49 0 0 1 .56.56q-.07.51.22.79a.38.36 33.8 0 0 .6-.11l1.34-3.09q.27-.62.69-.11 2.13 2.6 4.83 3.41a.36.36 0 0 0 .43-.5l-1.34-2.76q-.37-.75-.81-.05-.16.25-.39.33a.41.41 0 0 1-.49-.59q1.15-2.03.14-4.1-.19-.4-.02-.99c.52-1.74 1.71-3.13.87-5.4q-.49-1.31-.86.04l-.41 1.5q-.14.5-.63.59-1.67.29-2.74 1.02-.42.28-.17.72l.42.72q.36.62-.29.81-.57.17-1.02-.45-.29-.41-.53-1.06-.18-.49-.68-.6-1.05-.25-1.03-1.07.01-.37.26-.72l.23-.34a.33.32-66.2 0 0-.18-.51q-1.69-.34-1.5-2.47a.64.55 70.5 0 0-.99-.57l-.42.53a.14.04 16.5 0 1-.13 0q-.25-.07-.33-.48a.72.72 0 0 1 .13-.57q.84-1.12.34-1.94-.32-.54.15-.96 1.3-1.14.86-2.04-.26-.54.29-.74l.39-.14q.61-.22.25-.79-.94-1.5.72-2.96 1.53-1.34-.42-1.24l-.91.04q-.65.04-.71-.7l-.23-2.7q-.04-.48-.5-.36-.39.11-.92.62-.38.37-.15.86l.45.95q.23.51-.09.87-.71.79-.9 3.03a.3.3 0 0 1-.5.21q-.83-.71-1.34-.77-.69-.09-.86.54l-.29 1.17a.28.26 24.6 0 1-.42.14l-.24-.16q-.22-.15-.19-.36.33-2.9-.59-4.64-.29-.53.22-.86.18-.12.25-.36a.3.3 0 0 0-.44-.34l-1.98 1.22a.91.87 52 0 0-.14 1.38q.31.32.45.82.14.52-.34.77-1.07.57-2.69.67-.7.04-.34.64.7 1.18.07 2.26-.27.47-.09.98.72 2.06 2.14 2.48.64.2.18.68-.48.49-.99.43-1.61-.17-2.44.36a.67.67 0 0 1-.98-.32q-.41-1.02-1.23-1.98-.41-.47-.91-.19l-.53.3q-.61.35-.62-.38c-.02-1.84.93-3.47.56-5.25q-.95-4.46-4.36-7.31a.31.31 0 0 1 .13-.54c1.63-.37 2.8-1 4.06-2.52q.57-.69 1.85-1.3.47-.22.79.19.19.24.38.23.49-.03.3-.48-.82-1.94-1.83-2.37a.99.8 5 0 1-.51-.49l-1.14-2.93q-.18-.47.28-.47l1.8-.02q.82 0 .32-.66-.27-.37-.4-.75-.17-.52.07-1.01 1.59-3.33-.02-6.36 2.43 1.04 4.84.34.48-.14.75-.56l2.87-4.48q.17 1.47 1.87 1.74.57.09.5.66-.09.73-.84 1.38-.47.4.08.67.27.13.87.08a.83.83 0 0 0 .72-.6l.31-1.02q.15-.53.7-.55.57-.02.8.44.2.39.37 1.98.07.61.73.66l.33.03a.88.84 74.1 0 0 .71-1.37q-1.04-1.53-.86-2.89.06-.51.58-.59.92-.15 1.33-.54a.65.65 0 0 0 .08-.84q-.93-1.31-1.06-2.12-.09-.58-.66-.7-.72-.17-1.38.66-.4.51-.79-.01-.28-.36-.37-.86c3.3-.87 5.95 1.02 8.59 2.56a1.74 1.74 0 0 0 1.58.08q5.86-2.62 6.72-2.96 4.29-1.7 8.15-1.17 6.19.85 7.91.48 3.22-.7 4.59-.3m.14 9.38q.19.27.58.12a.19.19 0 0 0 .08-.3q-.26-.33-.47-.35-.63-.09-.19.53m15.42 19.78q.3.64.33.72.75 1.67.79-.16.01-.35-.28-.95-.27-.6-.55-.82-1.43-1.14-.63.5.04.08.34.71"/><path fill="#86b25a" d="M216.27 66.41q.58.12 1.02.39.18.25-.34.68a.5.5 0 0 1-.75-.13q-.19-.32.07-.94M234.92 71.26q.25.48-.12 1.26a.84.84 0 0 1-.74.47q-.51.01-.9-.36-1.27-1.2-1.14.45.19 2.34-1.68 5.16a.75.75 0 0 0 .06.9q.32.37.84.54.54.17.61-.37l.25-1.9q.03-.23.24-.22l.3.01q.28.02.26.3-.03.58.14 1.02.24.62.72.18l.39-.36a.5.47 66.8 0 1 .79.34q.06.53-.46 1.3a.87.87 0 0 0 .4 1.3q.66.25 1.13 1.63.14.39-.24.62l-2.24 1.36q-.56.34-.22.86l.28.44q.27.42-.14.79-1.63 1.49-1.38 3.26.09.65.68.38l.53-.24q.6-.28.77.37l.16.62q.16.6.68.17l.56-.46a.24.17-39.7 0 1 .29-.02l.2.23q.05.07 0 .14-2.3 3.07-5.3 1.64-.56-.27-.22-.8l.16-.25q.27-.44.02-.73l-2.58-2.84q-.66-.73-.92.05-.14.42-.14.76a.73.73 0 0 1-.51.7q-.79.26-1.58-.5a.65.65 0 0 0-.91.01l-.46.46q-.39.39-.09.89l.38.62q.33.54-.01 1.03l-1.11 1.58q-.27.38-.15.91.22.9-.54 1.54-1.01.86-.93-.46.22-3.35-1.55-5.25-.53-.57.19-.66l.63-.09q.55-.07.62-.67.07-.55-.52-1.26-.34-.41-.06-.89l1.83-3.24a2.43 1.68-63.1 0 0-.43-3.11q-.83-.33-2.92-2.48-.44-.44-.88 0-.92.9-1.2 2.34-.03.14-.15.15l-.29.02a.28.28 0 0 1-.29-.36l1.25-4.46a.64.26-23 0 1 .31-.31l.3-.18q.26-.15.35-.35.98-2.16 2.53-3.42a.37.37 0 0 0-.16-.65q-1.42-.31-2.31-1.18-.38-.37-.01-.75 1.03-1.04-.04-1.88zM178.73 67.72q.09.5.37.86.39.52.79.01.66-.83 1.38-.66.57.12.66.7.13.81 1.06 2.12a.65.65 0 0 1-.08.84q-.41.39-1.33.54-.52.08-.58.59-.18 1.36.86 2.89a.88.84 74.1 0 1-.71 1.37l-.33-.03q-.66-.05-.73-.66-.17-1.59-.37-1.98-.23-.46-.8-.44-.55.02-.7.55l-.31 1.02a.83.83 0 0 1-.72.6q-.6.05-.87-.08-.55-.27-.08-.67.75-.65.84-1.38.07-.57-.5-.66-1.7-.27-1.87-1.74.97-3.08 4.02-3.79M250.16 71.55l-1.51 3.04q-.22.44-.58.08l-1.36-1.41a.45.44-65 0 0-.76.29l-.09 1.01q-.02.16-.17.2l-.3.1q-.31.09-.34-.23l-.18-1.92q-.06-.66-.73-.66h-1.41q-.78 0-.76.77.04 1.49.79 2.79.21.37-.22.39l-.45.03q-.54.03-.76-.46l-2.13-4.6 1.11.23q.49.09.94-.11 5.82-2.63 8.91.46M164.04 75.07l-.7 1.07q-.27.43-.02.88.31.53.91.72.46.14.62-.31l.61-1.74.79.52q1.61 3.03.02 6.36-.24.49-.07 1.01.13.38.4.75.5.66-.32.66l-1.8.02q-.46 0-.28.47l1.14 2.93a.99.8 5 0 0 .51.49q1.01.43 1.83 2.37.19.45-.3.48-.19.01-.38-.23-.32-.41-.79-.19-1.28.61-1.85 1.3c-1.26 1.52-2.43 2.15-4.06 2.52a.31.31 0 0 0-.13.54q3.41 2.85 4.36 7.31c.37 1.78-.58 3.41-.56 5.25q.01.73.62.38l.53-.3q.5-.28.91.19.82.96 1.23 1.98a.67.67 0 0 0 .98.32q.83-.53 2.44-.36.51.06.99-.43.46-.48-.18-.68-1.42-.42-2.14-2.48-.18-.51.09-.98.63-1.08-.07-2.26-.36-.6.34-.64 1.62-.1 2.69-.67.48-.25.34-.77-.14-.5-.45-.82a.91.87 52 0 1 .14-1.38l1.98-1.22a.3.3 0 0 1 .44.34q-.07.24-.25.36-.51.33-.22.86.92 1.74.59 4.64-.03.21.19.36l.24.16a.28.26 24.6 0 0 .42-.14l.29-1.17q.17-.63.86-.54.51.06 1.34.77a.3.3 0 0 0 .5-.21q.19-2.24.9-3.03.32-.36.09-.87l-.45-.95q-.23-.49.15-.86.53-.51.92-.62.46-.12.5.36l.23 2.7q.06.74.71.7l.91-.04q1.95-.1.42 1.24-1.66 1.46-.72 2.96.36.57-.25.79l-.39.14q-.55.2-.29.74.44.9-.86 2.04-.47.42-.15.96.5.82-.34 1.94a.72.72 0 0 0-.13.57q.08.41.33.48a.14.04 16.5 0 0 .13 0l.42-.53a.64.55 70.5 0 1 .99.57q-.19 2.13 1.5 2.47a.33.32-66.2 0 1 .18.51l-.23.34q-.25.35-.26.72-.02.82 1.03 1.07.5.11.68.6.24.65.53 1.06.45.62 1.02.45.65-.19.29-.81l-.42-.72q-.25-.44.17-.72 1.07-.73 2.74-1.02.49-.09.63-.59l.41-1.5q.37-1.35.86-.04c.84 2.27-.35 3.66-.87 5.4q-.17.59.02.99 1.01 2.07-.14 4.1a.41.41 0 0 0 .49.59q.23-.08.39-.33.44-.7.81.05l1.34 2.76a.36.36 0 0 1-.43.5q-2.7-.81-4.83-3.41-.42-.51-.69.11l-1.34 3.09a.38.36 33.8 0 1-.6.11q-.29-.28-.22-.79a.49.49 0 0 0-.56-.56q-.39.06-.72.36a.44.44 0 0 1-.74-.29q-.09-.94-.38-1.03-.48-.15-.54.29l-.1.69q-.12.79-.84.44-.41-.2-.18-.97.08-.29-.19-.43-.15-.07-.3-.04-.17.04-.2.22c-.33 1.92-1.55 1.89-2.82 2.74a.83.6-28.7 0 0-.39.8q.3.88 1.39 1.82a1.28 1.28 0 0 1 .43.82q.22 1.87-.36 3.39-.36.95-.28 1.41.03.16.37.89.25.53-.25.56l-1.49.08q-.61.04-.66.62-.17 2.42-.96 3.87-.25.47-.05.91l.94 1.97q.53 1.12.92-.14.01-.06.1-.45.13-.56.66-.31.65.33 1.68-.27a.42.42 0 0 1 .62.4q-.07.76-.86 1.82-.32.42-.05.89.8 1.41.88 2.83.06 1.19.94.39.81-.74 1.41-.64.62.1.22.59c-1.58 1.9.42 3.46.33 5.09a.36.3-69.1 0 1-.53.3l-2.2-2.2a2.44 2.35-39.6 0 0-3.06-.24l-2.69 1.86q-.31.22-.04.57.98 1.27.17 2.2l-3.71-1.16q.2-.84 1.48-.98.65-.06.29-.6l-.31-.47q-.29-.43.06-.86.83-1.01.44-2.45a.7.7 0 0 0-.66-.51q-1.82-.06-2.52-.68-1.38-1.24.48-1.42.56-.06.84-.64a.67.66 34.7 0 0-.14-.78q-1.93-1.81-2.17-3.77-.1-.82-.69-.32-.2.17-.48.16a.42.42 0 0 1-.4-.44q.06-2.13-2.18-2.18a.91.81 77.6 0 1-.76-.56l-.41-.96a.48.48 0 0 0-.76-.17q-1.79 1.58-.34 4.03a.6.6 0 0 1-.15.78q-2.1 1.61-4.52 1.93-.56.08-.83.58l-.45.85a1 1 0 0 1-.6.49q-1.38.41-1.14 1.79.24 1.42 1.68 1.98 1.77.7 1.12 1.41l-6.77-.48-1.39-1.6a.9.9 0 0 1-.16-.9q.62-1.7.05-3.2-.2-.52-.01-1.04l.34-.96q.19-.54-.28-.71l-1.06-.37a.82.79-62.2 0 1-.35-1.23q.53-.76.83-1.8a.58.58 0 0 0-.06-.46q-.59-.97-2.35.37a.41.41 0 0 1-.65-.28q-.17-1.34.66-2.63.26-.41.06-.85-.24-.53-.87-.81-.53-.24-.69.33-.4 1.47-1.49 2.59-.39.4-.11.89.5.88-.54 1.58-.55.38-1.55.48-1.38.15-1.52.9-.35 1.9-.9.08-.31-1.03-1.03-1.72-.48-.46-.73.16-.48 1.16-1.38 2.21c-1.63 1.9-.57 3.82 1.6 4.54q.67.23.08.62-1.69 1.1-1.76 3.67l-7.01-.55 2.09-2.34a.89.88-55.3 0 0-.25-1.38l-1.98-1.03a.74.72 39.6 0 1-.14-1.23q.82-.62 1.36-1.52.26-.43.03-.87-.45-.91-1.11-1.34-.64-.44-.32-1.14.6-1.34.5-2.21-.07-.51-.53-.75l-1.01-.5a.63.61 29.8 0 1-.26-.89q1.29-1.95-.42-4.34-.43-.61-.62.13l-.16.65q-.12.45-.53.67-.37.2-.64.13-.58-.15-.31-.69 1.34-2.68-.63-5.9a.49.49 0 0 0-.71-.13q-1.18.9-.62 1.82.29.46-.21.68-2.34 1.02-2.32 3.29 0 .6.6.79l.64.21q1.32.43-.01.78-1.83.49-2.44 2.67-.17.63-.6.14-.26-.29-.2-.91.05-.6-.55-.54-.64.07-1.08 1.1-.48 1.14.41 2.18a.3.27-19.5 0 1-.24.46l-.58.02q-.25.01-.33-.1l-1.64-2.49a.98.82 37 0 0-1.68.08q-.51 2.92-2.41 5.21-.71.86-.85 1.79-.12.87.04 2.17.02.19.2.26.15.07.37.02a.39.37-3.6 0 0 .31-.32l.07-.67q.06-.56.61-.86 1.04-.59 1.5 1.33.19.8.71.21l.28-.3q.31-.35.65.1 1.52 2.01.23 3.65l-11.97-4.18q-1-1.09-2.44-1.53-.39-.12-.63.2l-.19.25q-.62.04-.8-.2-.01-1.69.99-3.56a1.16 1.16 0 0 0 .07-.94q-.51-1.41-1.99-2.61-.51-.42-.96-.03l-.38.33a.47.43 70.5 0 1-.72-.38q-.05-1.69.72-4.04a1.35 1.35 0 0 0-.03-.92q-.5-1.26.01-1.79a.42.42 0 0 0-.23-.7q-.59-.1-1.01.28-1.37 1.23-2.71.14-.44-.36-.86.04-.8.78-.28 1.8.25.48-.11.89-1.21 1.37-1.79 1.65-.61.29-.6-.38.04-4.01-1.25-7.85-.16-.49-.59-.19l-.28.2q-.58.42-.85-.23l-.91-2.19q-.94-2.26-1.18.03-.09.85-.69 2.61-.17.5.02 1 .54 1.36-.77 2.23a.62.62 0 0 0-.08.98q.86.76.37 1.67-.24.44-.74.44l-1.39.02a.64.62 79 0 0-.56.87q.66 1.75 1.12 3.74.18.82 1.1 1.16.53.2.57-.34l.15-1.8q.15-1.94.83-.11l.59 1.6q.16.44-.13.86-.67 1-.08 1.84.61.85.47 1.31-4.64-.49-7.37-2.87c-4.59-4 1.53-15.92 4.36-19.87q4.53-6.3 7.82-10.65c1.32-1.73 2.83-2.5 5.11-2.97q19.02-3.9 38.31-10.61 4.16-1.45 7.82-3.92 9.31-6.29 10.43-17.48.2-2.01 2.26-2.8 1.3-.49 3.08 0 4.29 1.2 8.45 3.01m13.3 57.11a.27.27 0 0 0-.16.38q.19.38.73.1a.3.3 0 0 0-.05-.55q-.14-.05-.52.07M254 74.68q.9.53 1.49 1.28-.41.72-.83.73a1.41 1.41 0 0 1-1.39-1.81q.04-.11.73-.2"/><path d="m165.46 75.69-.61 1.74q-.16.45-.62.31-.6-.19-.91-.72-.25-.45.02-.88l.7-1.07q.87.13 1.42.62"/><path fill="#86b25a" d="M216.6 75.26q.21.02.47.35a.19.19 0 0 1-.08.3q-.39.15-.58-.12-.44-.62.19-.53M256.21 76.43l5.6 4.67a2.76 2.76 0 0 0 2.16.61q2.59-.37 6.02-.79 2.83-.34 6.01.28 6.38 1.25 8.86 2.24c1.74.7 2.72 1.56 3.08 3.59q.69 3.97-.54 8.11-.18.61.45.74l.86.18a.99.98 83.4 0 1 .7.55q.25.54.7 2.64.38 1.7 2.26 4.32.27.38.33.84 1.15 9.32 1.59 13.09.57 4.9-1.98 13.36-1.75-3.91-1.78-7.61 0-.41-.41-.44-.28-.03-.3-.02-.7.13-.47-.54.08-.21.46-.55.23-.21 0-.4l-.22-.18q-.2-.17-.38.02-.99 1.1-1.37 2.13-.23.62-.79.29l-.28-.17q-.61-.36-.67.27-.14 1.66-.93.97a.45.45 0 0 1-.14-.24q-.18-.75-.14-1.03.17-1.65-1.02-.56-1.49 1.35-.28 3.48.27.46-.25.59-1.64.4-1.37 2.59.03.27-.34.29l-.32.01q-.25.01-.27-.22l-.19-2.59q-.04-.59-.61-.76-1.29-.38-2.58.4-.96.57-.32-.35.81-1.16 2.16-2.22a.62.61-34.6 0 0 .15-.8l-.32-.55q-.24-.4-.06-.85c.88-2.13 1.94-4.22 1.59-5.7q-.35-1.48-1.15-3.68a.78.78 0 0 0-.77-.51q-.14.01-.29.05-.32.1-.35.47-.02.18.38.87a.42.42 0 0 1-.34.63q-.14.01-.37-.01-.38-.04-.42-.07-1.15-.81-1.91-.32-.48.31-.64-.35-.03-.12-.12-.88-.27-2.34-1.3-.22-.41.83-1.16 2.89a1.68 1.67-7.5 0 1-.61.8q-.9.63-.11 1.62.33.42-.24.47l-.52.05a.59.56-12.5 0 1-.59-.36l-1.58-4.13q-.18-.47-.52-.23l-.48.34q-.54.38-.69-.27-.03-.15-.01-.31.05-.41.44-.57 2.23-.94 1.02-3.29-.2-.38.13-.66 2.75-2.31 1.8-4.85-.2-.53.19-.84l1-.78a.55.52-47.5 0 0-.01-.88q-2.51-1.56-.82-3.75a.82.82 0 0 0-.49-1.31q-.79-.16-1.66-.02-.52.08-.57.64l-.17 1.82q-.05.62-.56.34-1.32-.73-1.43-2.1a.49.49 0 0 0-.8-.34q-.86.7-1.51.59-.72-.12-.28-.7l.36-.49a.51.49 39.8 0 0-.07-.67q-1.35-1.25-2.38-1.08-1.56.26-2.96 2.36-.41.62.27.32.27-.12.53-.31.49-.36.67.22l1.11 3.57q.35 1.14-.66.5l-1.04-.65a.67.66 21.6 0 0-1.02.43q-.39 2.1.49 4.02a.23.22 85.5 0 1-.26.31q-.32-.09-.43-.52-.12-.4-.51-.27-.54.18-.41 1.36.03.19-.23.29l-.24.1a.36.33-14.7 0 1-.49-.26q-.07-.88.28-1.32.32-.41.2-.82l-.7-2.38a2.12 2.05 59.1 0 0-3.48-.93l-.73.76q-.15.16-.29.01-.07-.08-.11-.24-.02-.14.05-.22 1.05-1.18.03-2.73-.35-.54.3-.92l2.04-1.17q.4-.23.43-.68.07-1.52-1.65-2.92a.68.67 17.1 0 1-.25-.47q-.05-.62.6-.95.55-.27 1.07-.06.24.09.43.19.59.29.68-.36.3-2.2-.48-3.39-.33-.52.18-.74l.59-.25q.48-.2.56-.71.29-1.91-.36-3.7a.66.66 0 0 1 .28-.79q1.98-1.2.39-3.37-.39-.52.07-.91M232.67 95.18q.29.6.28.95-.04 1.83-.79.16-.03-.08-.33-.72-.3-.63-.34-.71-.8-1.64.63-.5.28.22.55.82"/><path d="m97.93 145.6-14.16-2.37q.14-.46-.47-1.31-.59-.84.08-1.84.29-.42.13-.86l-.59-1.6q-.68-1.83-.83.11l-.15 1.8q-.04.54-.57.34-.92-.34-1.1-1.16-.46-1.99-1.12-3.74a.64.62 79 0 1 .56-.87l1.39-.02q.5 0 .74-.44.49-.91-.37-1.67a.62.62 0 0 1 .08-.98q1.31-.87.77-2.23-.19-.5-.02-1 .6-1.76.69-2.61.24-2.29 1.18-.03l.91 2.19q.27.65.85.23l.28-.2q.43-.3.59.19 1.29 3.84 1.25 7.85-.01.67.6.38.58-.28 1.79-1.65.36-.41.11-.89-.52-1.02.28-1.8.42-.4.86-.04 1.34 1.09 2.71-.14.42-.38 1.01-.28a.42.42 0 0 1 .23.7q-.51.53-.01 1.79a1.35 1.35 0 0 1 .03.92q-.77 2.35-.72 4.04a.47.43 70.5 0 0 .72.38l.38-.33q.45-.39.96.03 1.48 1.2 1.99 2.61a1.16 1.16 0 0 1-.07.94q-1 1.87-.99 3.56m-15.67-14.3a.24.24 0 0 0-.08.36q.31.46.47-.05.05-.19-.09-.31-.13-.09-.3 0m7.89 3.9q-.18.57.32.55.29-.01.3-.3.01-.15-.11-.33a.29.29 0 0 0-.51.08m5.03 5.17a.28.28 0 0 0 .19.45q.47.06.45-.47-.01-.29-.3-.25-.16.02-.34.27M128.74 152.97q-7.46.04-14.78-1.91 1.29-1.64-.23-3.65-.34-.45-.65-.1l-.28.3q-.52.59-.71-.21-.46-1.92-1.5-1.33-.55.3-.61.86l-.07.67a.39.37-3.6 0 1-.31.32q-.22.05-.37-.02-.18-.07-.2-.26-.16-1.3-.04-2.17.14-.93.85-1.79 1.9-2.29 2.41-5.21a.98.82 37 0 1 1.68-.08l1.64 2.49q.08.11.33.1l.58-.02a.3.27-19.5 0 0 .24-.46q-.89-1.04-.41-2.18.44-1.03 1.08-1.1.6-.06.55.54-.06.62.2.91.43.49.6-.14.61-2.18 2.44-2.67 1.33-.35.01-.78l-.64-.21q-.6-.19-.6-.79-.02-2.27 2.32-3.29.5-.22.21-.68-.56-.92.62-1.82a.49.49 0 0 1 .71.13q1.97 3.22.63 5.9-.27.54.31.69.27.07.64-.13.41-.22.53-.67l.16-.65q.19-.74.62-.13 1.71 2.39.42 4.34a.63.61 29.8 0 0 .26.89l1.01.5q.46.24.53.75.1.87-.5 2.21-.32.7.32 1.14.66.43 1.11 1.34.23.44-.03.87-.54.9-1.36 1.52a.74.72 39.6 0 0 .14 1.23l1.98 1.03a.89.88-55.3 0 1 .25 1.38z"/><path fill="#86b25a" d="M82.26 131.3q.17-.09.3 0 .14.12.09.31-.16.51-.47.05a.24.24 0 0 1 .08-.36"/><path d="M177.34 132.18q.38-.12.52-.07a.3.3 0 0 1 .05.55q-.54.28-.73-.1a.27.27 0 0 1 .16-.38"/><path fill="#86b25a" d="M90.15 135.2a.29.29 0 0 1 .51-.08q.12.18.11.33-.01.29-.3.3-.5.02-.32-.55"/><path d="m151.01 153.66-15.26-.14q.07-2.57 1.76-3.67.59-.39-.08-.62c-2.17-.72-3.23-2.64-1.6-4.54q.9-1.05 1.38-2.21.25-.62.73-.16.72.69 1.03 1.72.55 1.82.9-.08.14-.75 1.52-.9 1-.1 1.55-.48 1.04-.7.54-1.58-.28-.49.11-.89 1.09-1.12 1.49-2.59.16-.57.69-.33.63.28.87.81.2.44-.06.85-.83 1.29-.66 2.63a.41.41 0 0 0 .65.28q1.76-1.34 2.35-.37a.58.58 0 0 1 .06.46q-.3 1.04-.83 1.8a.82.79-62.2 0 0 .35 1.23l1.06.37q.47.17.28.71l-.34.96q-.19.52.01 1.04.57 1.5-.05 3.2a.9.9 0 0 0 .16.9z"/><path fill="#86b25a" d="M95.18 140.37q.18-.25.34-.27.29-.04.3.25.02.53-.45.47a.28.28 0 0 1-.19-.45"/><path d="M170.9 157.93q-3.02-1.15-6.09-2.39-1.67-.67-3.44-.91-1.84-.24-3.59-.49.65-.71-1.12-1.41-1.44-.56-1.68-1.98-.24-1.38 1.14-1.79a1 1 0 0 0 .6-.49l.45-.85q.27-.5.83-.58 2.42-.32 4.52-1.93a.6.6 0 0 0 .15-.78q-1.45-2.45.34-4.03a.48.48 0 0 1 .76.17l.41.96a.91.81 77.6 0 0 .76.56q2.24.05 2.18 2.18a.42.42 0 0 0 .4.44q.28.01.48-.16.59-.5.69.32.24 1.96 2.17 3.77a.67.66 34.7 0 1 .14.78q-.28.58-.84.64-1.86.18-.48 1.42.7.62 2.52.68a.7.7 0 0 1 .66.51q.39 1.44-.44 2.45-.35.43-.06.86l.31.47q.36.54-.29.6-1.28.14-1.48.98m-11.7-9.69q-.19.33.03.52.31.28.52-.09.17-.32-.02-.5-.31-.31-.53.07M101.99 146.88l-3.26-1.08.19-.25q.24-.32.63-.2 1.44.44 2.44 1.53"/><path fill="#86b25a" d="M159.2 148.24q.22-.38.53-.07.19.18.02.5-.21.37-.52.09-.22-.19-.03-.52"/></svg>