<svg xmlns="http://www.w3.org/2000/svg" viewBox="0 0 382 382"><g fill="none" stroke="#1f454f" stroke-width="2"><path d="M219.19 67.83q-.28.89 1.19 1.19.52.11.42.63-.05.24-.41.5a.64.34 71.9 0 0-.1.59q.03.13.21.37.27.36-.05.76c-.73.91-2.69 2.28-2.42 4.39a.44.44 0 0 0 .62.34q.8-.38 1.21-.11.59.38.74.69.79 1.59 1.81 2.09a.95.95 0 0 1 .53.76q.22 2.29-.71 4.94-.59 1.71.97 2.83a.44.44 0 0 0 .7-.32l.11-1.58q.03-.49.59-.66l2.63-.79a1.29 1.16 76.2 0 1 1.5 1.02q.37 1.82.97 2.82a.88.88 0 0 0 1.29.24q1.25-.97.68-2.38-.22-.52-.13-.86l.75-2.78q.14-.5.41-.58l.31-.09q.24-.08.22-.4l-.24-3.13q-.18-2.35-1.94-.83-.36.31-.45.33-.53.08-.59-.56-.29-2.99 2.58-6.06M240.2 71.26q-.31 1.36.89 2.24.46.34.69-.18l1.32-2.84M244.21 70.41q-.42.83-.33 1.79.04.48.5.34.69-.22 1.67-.11 1.93.2 3.27-1.45M257.34 77.3l-2.75 2.56q-.76.71.1 1.31 1.32.93 1.22 2.95-.02.53-.58.74l-.59.23q-.62.23-.26.75.69.99.51 2.09-.09.56-.55.8l-1.08.57q-.52.27-.23.76 1.44 2.35.05 5.98-.27.7.45.46 2.2-.76 2.3 2.87a.34.34 0 0 0 .65.14q.48-.97 1.99-1.84.65-.38.42-1.1-.77-2.51-.78-2.56-.26-1.04.92-1.65a.67.67 0 0 1 .78.12q.68.67 2.73-.16a.23.19 80.6 0 1 .26.23l.06 2.66q.01.73.64.42.12-.05.31-.12.47-.18.92.06c1.97 1.05 3.78-.21 5.41-1.25q.66-.42.59.13-.02.16-.28.42-.35.36-.45.84c-.27 1.28.82 2.7.7 3.81q-.12 1.22-.58 2.25-.23.53.08 1.01.5.76-.42 1.07-.56.18-.36.86.18.59-1 5.52-.11.46.32.68 1.05.51 1.07 1.66.04 2.41 1.12.42.92-1.69 1.13-3.41a.7.7 0 0 1 .62-.6q1.5-.17 2.02.73.81 1.4 2.38 2.06.57.24.71-.36.03-.12.08-.36.16-.65.38-.86.35-.34.86-.25.55.09.7.62.2.67-.52 1.73-.34.5.25.6l.4.07q.56.09.39.7-.59 2.11-.52 6.41.01.39-.36 1.06-.33.58.07.76l2.3 1.05a.83.83 0 0 0 1.01-1.26q-1.07-1.41-.92-2.03.16-.67.71-.25 1.24.97 2.29.21.45-.33.89-.12l.33.16a.47.47 0 0 0 .68-.39q.05-.63.19-.68a1.94 1.59-10.1 0 1 2.49 1.39q0 3.31 1.67 6.5.23.42.59.11l1.7-1.47M111.53 150.35q2.1-3.29-.65-6.01-.33-.32-.71-.04l-.23.16q-1.45 1.04-.81-.61.81-2.04 1.69-4.5.43-1.21 1.54-1.6.51-.18.23-.65-.21-.34-.29-.59a.49.47 5.2 0 1 .69-.56l3.2 1.68q.54.29.38-.36-.31-1.23.72-2.84.5-.79.58.17l.08.98q.02.26.26.29.18.03.38-.18a.55.55 0 0 0 .16-.34q.12-1.31 1.65-1.53a.65.65 0 0 0 .56-.61q.01-.47-.38-1.13-.29-.48-.07-.99.27-.63-.1-1.26-.34-.57.3-.74 2.37-.66 2.33-3.07-.03-1.87.94-.28 1.22 1.99.97 5.39-.05.65.54.58l3.16-.34a.4.32 89.1 0 1 .35.42q-.06 1.35-.44 2.08a1.1 1.09-41.6 0 0-.06.89l.93 2.47a1.07 1.06-41.8 0 1-.05.86q-.74 1.45 1.01 2.91a.79.77 43.5 0 1 .05 1.17l-.92.84q-.56.52.15.78.89.32 1.77 1.14a.63.63 0 0 1 .13.74q-.87 1.78-.47 4.03.01.08.09.11.16.07.26.04.29-.09.37-.37.29-1.01.65-1.28a1.56 1.51-29.2 0 1 2.36.63q.31.78.54.93.39.27.46-.2l.56-4.07q.06-.49-.27-.86-.63-.68-.89-1.29-.22-.51.07-.98.46-.74 1.85-2.08.77-.74 2.37-.88 1.77-.14 3.83-1.1a.73.73 0 0 0 .26-1.13q-.43-.51-.5-1.26-.06-.55.46-.73 1.47-.5 1.51-1.66.01-.18.11-.26.17-.13.27-.13.38-.03.4.36l.16 2.73q.04.61.6.42l.64-.22a.89.76 51.9 0 1 .77.16q1.48 1.15.54 2.52-.44.63.45.82.18.04.39.26.25.26.22.63-.22 2.32.74 5.82.14.52.68.54l.44.01q.55.02.18.45-.92 1.05-.67 2.63.09.57.6.29 1.28-.72 2.85.16 1.7.95.9-.69-.59-1.22.62-3.18.12-.18-.1-.47l-.14-.19q-.17-.22-.41.01l-.59.56q-.51.49-.7-.17t.1-.97q2.04-2.23 2.22-3.86.05-.49.42-.25l.26.18q.26.17.57-.05l3.03-2.09q.44-.31.16-.78-1.18-1.98.42-4.35.35-.52.78-.08.65.66 1.18 2.03.1.27.39.25.11-.01.25-.14a.4.39 43.4 0 1 .53-.02q3.07 2.63 4.11 6.08.14.45.69.51l1.36.15a.35.33 13.7 0 1 .29.46q-.09.22-.26.28-.76.31-.21.83l1.13 1.04a.35.33-69.5 0 0 .56-.27v-1.73q0-.71.69-.72.67 0 1.36.43 1.28.81.76-.61l-1.21-3.35q-.19-.51-.6-.15-.12.1-.26.19-.59.37-.62-.32-.17-3.45-.04-5.07.05-.55.31-.85.17-.19.81-.46.5-.21.62-.69l.66-2.64a.77.73 30.6 0 0-.2-.71q-1.33-1.36-1.23-2.94.04-.62.63-.79 1.29-.39 1.43-1.47.08-.66.61-.26.29.22.17.88a.4.4 0 0 0 .58.43q.36-.18.38-.65.04-.64.53-.62l3.1.11q.43.02.52-.52.06-.36.16-.44.43-.38.83-.09l.26.19q.75.53.66-.38-.06-.64-.4-1.39-.21-.48.05-.92.67-1.09-.28-2.24-.96-1.16-2.14.66-.71 1.09-1.16-.13-.43-1.12-.51-2.54a3.38 2.31-84.8 0 0-1.51-2.73q-1.18-.51-.99-2.15c.22-1.84 1.46-2.67 2.06-4.33q.82-2.25-.04-3.89-.67-1.27-.89.17l-.27 1.67q-.08.56-.61.5-.71-.09-1.42-.62-.45-.34-.93.02l-.26.2q-.56.42-.56-.25 0-1.51-.08-2.71-.19-3.16-2.08-.67-.03.04-.1 1.05-.04.49-.48.73-1.55.83-2.27 3.08a1.05.78 38.1 0 0 .24.88l1.43 1.69a.66.42-57.6 0 1 0 .61q-.07.16-.41.39-.56.39-1 .21-1.41-.56-2.6-.79-.69-.14-.18-.62.49-.48-.01-.82-1.67-1.14-2.81-1.39-.87-.19-.36-.91 1.94-2.74 1.57-4.38-.13-.55-.67-.72l-.75-.24q-.16-.05-.02-.32.01-.01.14-.24.26-.45.05-.84l-.9-1.65q-.31-.57-.73-.33l-.56.33a.23.2 74 0 1-.3-.19q-.13-1.54-1.02-3.02-.17-.28.15-.36 3.64-.85 6.26-4.29.37-.49-.21-.68-1.69-.56-1.42-2 .02-.07.07-1.67.05-1.35 1.31-1.73.53-.16.14-.55-.16-.16-.26-.35-.25-.52 0-1.03 1.08-2.25.78-4.74M175.1 70.66q.83.56 1.06 1.8.11.59.55.18 1-.94 2.47-.6a.58.58 0 0 0 .71-.52q.07-.94.74-1.65.35-.37-.02-.72-.76-.72-.76-1.71M162.29 74.45l.92 1.92q.2.42.6.18.9-.56 1.89-.75M102.02 146.95q-.01-2.45-1.38-4.59-.15-.24-.46-.1l-.32.14q-1.28.56-.88-.7l1-3.24a1.19 1.18 20.9 0 0-.64-1.43q-1.57-.72-2.91-.3-.7.21-.61-.51l.57-4.75q.05-.43-.09-.82l-.46-1.2a.64.64 0 0 0-.82-.37l-3.4 1.24q-.44.16-.54.69-.1.55-.31 1.41-.09.38-.29.53-.36.29-.85-.01a.37.36-85.7 0 1-.15-.17l-1.99-4.95q-.18-.46.09-.94.38-.69.36-1.14-.03-.58-.6-.66-.78-.11-1.44.44-.53.46-.79-.2-.81-2.07-1.46-2.18-.59-.1-.64.51-.12 1.59.41 3.18.16.47 0 .9l-1.68 4.61q-.16.45-.58.67l-.67.36a.91.86-16 0 0-.48.81q.05 1.18 1.03 3.2.26.53.74.2.91-.63 1.57.13.34.39.17.87-.74 2.13-.5 4.47" vector-effect="non-scaling-stroke"/><path d="M294.33 120.5q-1.48 1.25-1.91 2.78-.15.52.34.76.49.23 1.04.01" vector-effect="non-scaling-stroke"/></g><path d="M219.19 67.83q-.28.89 1.19 1.19.52.11.42.63-.05.24-.41.5a.64.34 71.9 0 0-.1.59q.03.13.21.37.27.36-.05.76c-.73.91-2.69 2.28-2.42 4.39a.44.44 0 0 0 .62.34q.8-.38 1.21-.11.59.38.74.69.79 1.59 1.81 2.09a.95.95 0 0 1 .53.76q.22 2.29-.71 4.94-.59 1.71.97 2.83a.44.44 0 0 0 .7-.32l.11-1.58q.03-.49.59-.66l2.63-.79a1.29 1.16 76.2 0 1 1.5 1.02q.37 1.82.97 2.82a.88.88 0 0 0 1.29.24q1.25-.97.68-2.38-.22-.52-.13-.86l.75-2.78q.14-.5.41-.58l.31-.09q.24-.08.22-.4l-.24-3.13q-.18-2.35-1.94-.83-.36.31-.45.33-.53.08-.59-.56-.29-2.99 2.58-6.06 1.1.05 3.79-.56 1.99-.44 3.82.63-.31 1.36.89 2.24.46.34.69-.18l1.32-2.84q.44-.3 1.11-.07-.42.83-.33 1.79.04.48.5.34.69-.22 1.67-.11 1.93.2 3.27-1.45l8.02 6.32-2.75 2.56q-.76.71.1 1.31 1.32.93 1.22 2.95-.02.53-.58.74l-.59.23q-.62.23-.26.75.69.99.51 2.09-.09.56-.55.8l-1.08.57q-.52.27-.23.76 1.44 2.35.05 5.98-.27.7.45.46 2.2-.76 2.3 2.87a.34.34 0 0 0 .65.14q.48-.97 1.99-1.84.65-.38.42-1.1-.77-2.51-.78-2.56-.26-1.04.92-1.65a.67.67 0 0 1 .78.12q.68.67 2.73-.16a.23.19 80.6 0 1 .26.23l.06 2.66q.01.73.64.42.12-.05.31-.12.47-.18.92.06c1.97 1.05 3.78-.21 5.41-1.25q.66-.42.59.13-.02.16-.28.42-.35.36-.45.84c-.27 1.28.82 2.7.7 3.81q-.12 1.22-.58 2.25-.23.53.08 1.01.5.76-.42 1.07-.56.18-.36.86.18.59-1 5.52-.11.46.32.68 1.05.51 1.07 1.66.04 2.41 1.12.42.92-1.69 1.13-3.41a.7.7 0 0 1 .62-.6q1.5-.17 2.02.73.81 1.4 2.38 2.06.57.24.71-.36.03-.12.08-.36.16-.65.38-.86.35-.34.86-.25.55.09.7.62.2.67-.52 1.73-.34.5.25.6l.4.07q.56.09.39.7-.59 2.11-.52 6.41.01.39-.36 1.06-.33.58.07.76l2.3 1.05a.83.83 0 0 0 1.01-1.26q-1.07-1.41-.92-2.03.16-.67.71-.25 1.24.97 2.29.21.45-.33.89-.12l.33.16a.47.47 0 0 0 .68-.39q.05-.63.19-.68a1.94 1.59-10.1 0 1 2.49 1.39q0 3.31 1.67 6.5.23.42.59.11l1.7-1.47q-.15 2.12-.73 4-2.55 8.22-5.78 16.22-.9 2.23-2.7 12.17-.5 2.8-1.44 4.12c-2.17 3.08-7.83 2.8-10.68 1.47q-3.89-1.81-5.11-2.14c-2.43-.64-4.09.23-6.37 1.58q-6.55 3.91-11.23 3.54-6.57-.5-14.17-3.26-7.76-2.83-10.24-3.15-5.48-.7-10.9.26-3.35.59-13.19 1.96c-3.16.44-5.37.37-8.54.38q-1.82.01-3.43-.17-11.75-1.32-22.78-5.98-2.97-1.26-5.67-1.6c-1.86-.24-5.2-.72-7.89-.69q-16.2.14-30.76-1.26-4.94-.47-10.41-2.21 2.1-3.29-.65-6.01-.33-.32-.71-.04l-.23.16q-1.45 1.04-.81-.61.81-2.04 1.69-4.5.43-1.21 1.54-1.6.51-.18.23-.65-.21-.34-.29-.59a.49.47 5.2 0 1 .69-.56l3.2 1.68q.54.29.38-.36-.31-1.23.72-2.84.5-.79.58.17l.08.98q.02.26.26.29.18.03.38-.18a.55.55 0 0 0 .16-.34q.12-1.31 1.65-1.53a.65.65 0 0 0 .56-.61q.01-.47-.38-1.13-.29-.48-.07-.99.27-.63-.1-1.26-.34-.57.3-.74 2.37-.66 2.33-3.07-.03-1.87.94-.28 1.22 1.99.97 5.39-.05.65.54.58l3.16-.34a.4.32 89.1 0 1 .35.42q-.06 1.35-.44 2.08a1.1 1.09-41.6 0 0-.06.89l.93 2.47a1.07 1.06-41.8 0 1-.05.86q-.74 1.45 1.01 2.91a.79.77 43.5 0 1 .05 1.17l-.92.84q-.56.52.15.78.89.32 1.77 1.14a.63.63 0 0 1 .13.74q-.87 1.78-.47 4.03.01.08.09.11.16.07.26.04.29-.09.37-.37.29-1.01.65-1.28a1.56 1.51-29.2 0 1 2.36.63q.31.78.54.93.39.27.46-.2l.56-4.07q.06-.49-.27-.86-.63-.68-.89-1.29-.22-.51.07-.98.46-.74 1.85-2.08.77-.74 2.37-.88 1.77-.14 3.83-1.1a.73.73 0 0 0 .26-1.13q-.43-.51-.5-1.26-.06-.55.46-.73 1.47-.5 1.51-1.66.01-.18.11-.26.17-.13.27-.13.38-.03.4.36l.16 2.73q.04.61.6.42l.64-.22a.89.76 51.9 0 1 .77.16q1.48 1.15.54 2.52-.44.63.45.82.18.04.39.26.25.26.22.63-.22 2.32.74 5.82.14.52.68.54l.44.01q.55.02.18.45-.92 1.05-.67 2.63.09.57.6.29 1.28-.72 2.85.16 1.7.95.9-.69-.59-1.22.62-3.18.12-.18-.1-.47l-.14-.19q-.17-.22-.41.01l-.59.56q-.51.49-.7-.17t.1-.97q2.04-2.23 2.22-3.86.05-.49.42-.25l.26.18q.26.17.57-.05l3.03-2.09q.44-.31.16-.78-1.18-1.98.42-4.35.35-.52.78-.08.65.66 1.18 2.03.1.27.39.25.11-.01.25-.14a.4.39 43.4 0 1 .53-.02q3.07 2.63 4.11 6.08.14.45.69.51l1.36.15a.35.33 13.7 0 1 .29.46q-.09.22-.26.28-.76.31-.21.83l1.13 1.04a.35.33-69.5 0 0 .56-.27v-1.73q0-.71.69-.72.67 0 1.36.43 1.28.81.76-.61l-1.21-3.35q-.19-.51-.6-.15-.12.1-.26.19-.59.37-.62-.32-.17-3.45-.04-5.07.05-.55.31-.85.17-.19.81-.46.5-.21.62-.69l.66-2.64a.77.73 30.6 0 0-.2-.71q-1.33-1.36-1.23-2.94.04-.62.63-.79 1.29-.39 1.43-1.47.08-.66.61-.26.29.22.17.88a.4.4 0 0 0 .58.43q.36-.18.38-.65.04-.64.53-.62l3.1.11q.43.02.52-.52.06-.36.16-.44.43-.38.83-.09l.26.19q.75.53.66-.38-.06-.64-.4-1.39-.21-.48.05-.92.67-1.09-.28-2.24-.96-1.16-2.14.66-.71 1.09-1.16-.13-.43-1.12-.51-2.54a3.38 2.31-84.8 0 0-1.51-2.73q-1.18-.51-.99-2.15c.22-1.84 1.46-2.67 2.06-4.33q.82-2.25-.04-3.89-.67-1.27-.89.17l-.27 1.67q-.08.56-.61.5-.71-.09-1.42-.62-.45-.34-.93.02l-.26.2q-.56.42-.56-.25 0-1.51-.08-2.71-.19-3.16-2.08-.67-.03.04-.1 1.05-.04.49-.48.73-1.55.83-2.27 3.08a1.05.78 38.1 0 0 .24.88l1.43 1.69a.66.42-57.6 0 1 0 .61q-.07.16-.41.39-.56.39-1 .21-1.41-.56-2.6-.79-.69-.14-.18-.62.49-.48-.01-.82-1.67-1.14-2.81-1.39-.87-.19-.36-.91 1.94-2.74 1.57-4.38-.13-.55-.67-.72l-.75-.24q-.16-.05-.02-.32.01-.01.14-.24.26-.45.05-.84l-.9-1.65q-.31-.57-.73-.33l-.56.33a.23.2 74 0 1-.3-.19q-.13-1.54-1.02-3.02-.17-.28.15-.36 3.64-.85 6.26-4.29.37-.49-.21-.68-1.69-.56-1.42-2 .02-.07.07-1.67.05-1.35 1.31-1.73.53-.16.14-.55-.16-.16-.26-.35-.25-.52 0-1.03 1.08-2.25.78-4.74 2.48 1.18 5.03.55.49-.12.76-.55l3.33-5.4q.83.56 1.06 1.8.11.59.55.18 1-.94 2.47-.6a.58.58 0 0 0 .71-.52q.07-.94.74-1.65.35-.37-.02-.72-.76-.72-.76-1.71 4.04.19 7.08 2.67a1.8 1.8 0 0 0 1.82.27q2.41-.98 6.88-3.01 4.17-1.89 10.85-.77 3.05.51 6.39-.25c2.54-.58 4.33.07 6.32 1.48"/><path fill="#3d8a9e" d="M179.85 67.44q0 .99.76 1.71.37.35.02.72-.67.71-.74 1.65a.58.58 0 0 1-.71.52q-1.47-.34-2.47.6-.44.41-.55-.18-.23-1.24-1.06-1.8 1.08-2.66 4.75-3.22M219.19 67.83q6.79.31 13.4 3.36-2.87 3.07-2.58 6.06.06.64.59.56.09-.02.45-.33 1.76-1.52 1.94.83l.24 3.13q.02.32-.22.4l-.31.09q-.27.08-.41.58l-.75 2.78q-.09.34.13.86.57 1.41-.68 2.38a.88.88 0 0 1-1.29-.24q-.6-1-.97-2.82a1.29 1.16 76.2 0 0-1.5-1.02l-2.63.79q-.56.17-.59.66l-.11 1.58a.44.44 0 0 1-.7.32q-1.56-1.12-.97-2.83.93-2.65.71-4.94a.95.95 0 0 0-.53-.76q-1.02-.5-1.81-2.09-.15-.31-.74-.69-.41-.27-1.21.11a.44.44 0 0 1-.62-.34c-.27-2.11 1.69-3.48 2.42-4.39q.32-.4.05-.76-.18-.24-.21-.37a.64.34 71.9 0 1 .1-.59q.36-.26.41-.5.1-.52-.42-.63-1.47-.3-1.19-1.19M249.32 70.98q-1.34 1.65-3.27 1.45-.98-.11-1.67.11-.46.14-.5-.34-.09-.96.33-1.79 3.47-1.49 5.11.57M243.1 70.48l-1.32 2.84q-.23.52-.69.18-1.2-.88-.89-2.24 1.28.01 2.9-.78M162.29 74.45l.92 1.92q.2.42.6.18.9-.56 1.89-.75l.28.26q.3 2.49-.78 4.74-.25.51 0 1.03.1.19.26.35.39.39-.14.55-1.26.38-1.31 1.73-.05 1.6-.07 1.67-.27 1.44 1.42 2 .58.19.21.68-2.62 3.44-6.26 4.29-.32.08-.15.36.89 1.48 1.02 3.02a.23.2 74 0 0 .3.19l.56-.33q.42-.24.73.33l.9 1.65q.21.39-.05.84-.13.23-.14.24-.14.27.02.32l.75.24q.54.17.67.72.37 1.64-1.57 4.38-.51.72.36.91 1.14.25 2.81 1.39.5.34.01.82-.51.48.18.62 1.19.23 2.6.79.44.18 1-.21.34-.23.41-.39a.66.42-57.6 0 0 0-.61l-1.43-1.69a1.05.78 38.1 0 1-.24-.88q.72-2.25 2.27-3.08.44-.24.48-.73.07-1.01.1-1.05 1.89-2.49 2.08.67.08 1.2.08 2.71 0 .67.56.25l.26-.2q.48-.36.93-.02.71.53 1.42.62.53.06.61-.5l.27-1.67q.22-1.44.89-.17.86 1.64.04 3.89c-.6 1.66-1.84 2.49-2.06 4.33q-.19 1.64.99 2.15a3.38 2.31-84.8 0 1 1.51 2.73q.08 1.42.51 2.54.45 1.22 1.16.13 1.18-1.82 2.14-.66.95 1.15.28 2.24-.26.44-.05.92.34.75.4 1.39.09.91-.66.38l-.26-.19q-.4-.29-.83.09-.1.08-.16.44-.09.54-.52.52l-3.1-.11q-.49-.02-.53.62-.02.47-.38.65a.4.4 0 0 1-.58-.43q.12-.66-.17-.88-.53-.4-.61.26-.14 1.08-1.43 1.47-.59.17-.63.79-.1 1.58 1.23 2.94a.77.73 30.6 0 1 .2.71l-.66 2.64q-.12.48-.62.69-.64.27-.81.46-.26.3-.31.85-.13 1.62.04 5.07.03.69.62.32.14-.09.26-.19.41-.36.6.15l1.21 3.35q.52 1.42-.76.61-.69-.43-1.36-.43-.69.01-.69.72v1.73a.35.33-69.5 0 1-.56.27l-1.13-1.04q-.55-.52.21-.83.17-.06.26-.28a.35.33 13.7 0 0-.29-.46l-1.36-.15q-.55-.06-.69-.51-1.04-3.45-4.11-6.08a.4.39 43.4 0 0-.53.02q-.14.13-.25.14-.29.02-.39-.25-.53-1.37-1.18-2.03-.43-.44-.78.08-1.6 2.37-.42 4.35.28.47-.16.78l-3.03 2.09q-.31.22-.57.05l-.26-.18q-.37-.24-.42.25-.18 1.63-2.22 3.86-.29.31-.1.97t.7.17l.59-.56q.24-.23.41-.01l.14.19q.22.29.1.47-1.21 1.96-.62 3.18.8 1.64-.9.69-1.57-.88-2.85-.16-.51.28-.6-.29-.25-1.58.67-2.63.37-.43-.18-.45l-.44-.01q-.54-.02-.68-.54-.96-3.5-.74-5.82.03-.37-.22-.63-.21-.22-.39-.26-.89-.19-.45-.82.94-1.37-.54-2.52a.89.76 51.9 0 0-.77-.16l-.64.22q-.56.19-.6-.42l-.16-2.73q-.02-.39-.4-.36-.1 0-.27.13-.1.08-.11.26-.04 1.16-1.51 1.66-.52.18-.46.73.07.75.5 1.26a.73.73 0 0 1-.26 1.13q-2.06.96-3.83 1.1-1.6.14-2.37.88-1.39 1.34-1.85 2.08-.29.47-.07.98.26.61.89 1.29.33.37.27.86l-.56 4.07q-.07.47-.46.2-.23-.15-.54-.93a1.56 1.51-29.2 0 0-2.36-.63q-.36.27-.65 1.28-.08.28-.37.37-.1.03-.26-.04-.08-.03-.09-.11-.4-2.25.47-4.03a.63.63 0 0 0-.13-.74q-.88-.82-1.77-1.14-.71-.26-.15-.78l.92-.84a.79.77 43.5 0 0-.05-1.17q-1.75-1.46-1.01-2.91a1.07 1.06-41.8 0 0 .05-.86l-.93-2.47a1.1 1.09-41.6 0 1 .06-.89q.38-.73.44-2.08a.4.32 89.1 0 0-.35-.42l-3.16.34q-.59.07-.54-.58.25-3.4-.97-5.39-.97-1.59-.94.28.04 2.41-2.33 3.07-.64.17-.3.74.37.63.1 1.26-.22.51.07.99.39.66.38 1.13a.65.65 0 0 1-.56.61q-1.53.22-1.65 1.53a.55.55 0 0 1-.16.34q-.2.21-.38.18-.24-.03-.26-.29l-.08-.98q-.08-.96-.58-.17-1.03 1.61-.72 2.84.16.65-.38.36l-3.2-1.68a.49.47 5.2 0 0-.69.56q.08.25.29.59.28.47-.23.65-1.11.39-1.54 1.6-.88 2.46-1.69 4.5-.64 1.65.81.61l.23-.16q.38-.28.71.04 2.75 2.72.65 6.01l-9.51-3.4q-.01-2.45-1.38-4.59-.15-.24-.46-.1l-.32.14q-1.28.56-.88-.7l1-3.24a1.19 1.18 20.9 0 0-.64-1.43q-1.57-.72-2.91-.3-.7.21-.61-.51l.57-4.75q.05-.43-.09-.82l-.46-1.2a.64.64 0 0 0-.82-.37l-3.4 1.24q-.44.16-.54.69-.1.55-.31 1.41-.09.38-.29.53-.36.29-.85-.01a.37.36-85.7 0 1-.15-.17l-1.99-4.95q-.18-.46.09-.94.38-.69.36-1.14-.03-.58-.6-.66-.78-.11-1.44.44-.53.46-.79-.2-.81-2.07-1.46-2.18-.59-.1-.64.51-.12 1.59.41 3.18.16.47 0 .9l-1.68 4.61q-.16.45-.58.67l-.67.36a.91.86-16 0 0-.48.81q.05 1.18 1.03 3.2.26.53.74.2.91-.63 1.57.13.34.39.17.87-.74 2.13-.5 4.47-5.57-.53-7.67-3.91-1.01-1.63-.29-5.6c.76-4.2 2.54-8.31 5-11.95q4.69-6.96 9.33-12.68c.82-1.01 2.48-1.63 3.93-1.94q14.97-3.16 29.11-7.53 9.05-2.79 13.78-4.96c6.9-3.17 12.96-10.21 13.67-17.75q.27-2.91 1.86-4.3 1.21-1.05 4.06-.31 3.34.86 6.49 2.33"/><path d="M165.7 75.8q-.99.19-1.89.75-.4.24-.6-.18l-.92-1.92z"/><path fill="#3d8a9e" d="M294.33 120.5q-1.48 1.25-1.91 2.78-.15.52.34.76.49.23 1.04.01l-.25 1.06-1.7 1.47q-.36.31-.59-.11-1.67-3.19-1.67-6.5a1.94 1.59-10.1 0 0-2.49-1.39q-.14.05-.19.68a.47.47 0 0 1-.68.39l-.33-.16q-.44-.21-.89.12-1.05.76-2.29-.21-.55-.42-.71.25-.15.62.92 2.03a.83.83 0 0 1-1.01 1.26l-2.3-1.05q-.4-.18-.07-.76.37-.67.36-1.06-.07-4.3.52-6.41.17-.61-.39-.7l-.4-.07q-.59-.1-.25-.6.72-1.06.52-1.73-.15-.53-.7-.62-.51-.09-.86.25-.22.21-.38.86-.05.24-.08.36-.14.6-.71.36-1.57-.66-2.38-2.06-.52-.9-2.02-.73a.7.7 0 0 0-.62.6q-.21 1.72-1.13 3.41-1.08 1.99-1.12-.42-.02-1.15-1.07-1.66-.43-.22-.32-.68 1.18-4.93 1-5.52-.2-.68.36-.86.92-.31.42-1.07-.31-.48-.08-1.01.46-1.03.58-2.25c.12-1.11-.97-2.53-.7-3.81q.1-.48.45-.84.26-.26.28-.42.07-.55-.59-.13c-1.63 1.04-3.44 2.3-5.41 1.25q-.45-.24-.92-.06-.19.07-.31.12-.63.31-.64-.42l-.06-2.66a.23.19 80.6 0 0-.26-.23q-2.05.83-2.73.16a.67.67 0 0 0-.78-.12q-1.18.61-.92 1.65.01.05.78 2.56.23.72-.42 1.1-1.51.87-1.99 1.84a.34.34 0 0 1-.65-.14q-.1-3.63-2.3-2.87-.72.24-.45-.46 1.39-3.63-.05-5.98-.29-.49.23-.76l1.08-.57q.46-.24.55-.8.18-1.1-.51-2.09-.36-.52.26-.75l.59-.23q.56-.21.58-.74.1-2.02-1.22-2.95-.86-.6-.1-1.31l2.75-2.56 4.61 3.94a2.25 2.25 0 0 0 1.8.51q2.73-.43 5.98-.78 3.11-.34 6.03.17 4.73.83 9.12 2.32 2.46.84 2.94 3.1.93 4.35-.45 8.59-.18.56.44.7l.97.22q.63.14.73.74.52 3.32 2.16 5.65 1.01 1.45 1.34 3.97.94 7.24 1.32 14.07"/><path d="m294.33 120.5-.53 3.55q-.55.22-1.04-.01-.49-.24-.34-.76.43-1.53 1.91-2.78M102.02 146.95q-5.94-2.06-9.01-2.49-5.05-.69-9.99-1.41-.24-2.34.5-4.47.17-.48-.17-.87-.66-.76-1.57-.13-.48.33-.74-.2-.98-2.02-1.03-3.2a.91.86-16 0 1 .48-.81l.67-.36q.42-.22.58-.67l1.68-4.61q.16-.43 0-.9-.53-1.59-.41-3.18.05-.61.64-.51.65.11 1.46 2.18.26.66.79.2.66-.55 1.44-.44.57.08.6.66.02.45-.36 1.14-.27.48-.09.94l1.99 4.95a.37.36-85.7 0 0 .15.17q.49.3.85.01.2-.15.29-.53.21-.86.31-1.41.1-.53.54-.69l3.4-1.24a.64.64 0 0 1 .82.37l.46 1.2q.14.39.09.82l-.57 4.75q-.09.72.61.51 1.34-.42 2.91.3a1.19 1.18 20.9 0 1 .64 1.43l-1 3.24q-.4 1.26.88.7l.32-.14q.31-.14.46.1 1.37 2.14 1.38 4.59"/></svg>