<svg xmlns="http://www.w3.org/2000/svg" viewBox="0 0 382 382"><g fill="none" stroke="#3b0309" stroke-width="2"><path d="M219 67.64q.73 1.1.72 2.38 0 1.14-.9 2.14-1 1.13-2.44 3.07-.3.41.04.79.5.53 1.05.66t.54-.44q-.01-.52.16-.84a.36.36 0 0 1 .65.05q.38 1.22 1.73 2.7a1.52 1.52 0 0 1 .39.88q.22 2.4-1.53 5.22a.6.6 0 0 0 .04.68q.37.48-.05 1.35-.54 1.13.4.3.71-.62 1.5-2.24.26-.53.78-.25 1.76.93 3.28 1.01a.63.63 0 0 1 .6.67q-.16 2.16.67 3.53.22.36-.04.7-.37.48-.36.54.08.61.59.14.57-.52 1.22-.74.48-.15.36-.65-.56-2.39 1.51-4.77a.62.62 0 0 1 .83-.1q.9.63 1.57.56.51-.05.32-.52l-1.12-2.71a1.09.93-47.9 0 1 .03-.78q.56-1.36-.6-2.34a.9.9 0 0 0-.88-.16l-.37.14q-.58.2-.63-.4-.33-4.6 3.54-6.95M239.24 71.17l-.14 3.02q-.03.65.6.81.3.08.69-.02.55-.14.55-.7.01-.84-.4-1.19-1.45-1.24.36-1.35.61-.03 1.37-.69.57-.5.64.28l.17 2.12q.05.52.47.26.18-.11.27-.27.16-.31.49-.18 1.81.72 3.46-.67.39-.33.21-.81-.41-1.12-1.48-2.02M255.08 75.53q-.37.34-.52.67-.28.62.4.57 1.04-.07 1.12 1.3.07 1.4-1.94 2.66a.2.2 0 0 0-.07.27q1.07 1.9.53 3.25-.67 1.68-.78 2.63-.3 2.62-1.28 7.01-.08.36-.46.87-.1.13-.32.28-.55.36.02.68 2.61 1.46 2.28 4.79-.02.17.16.2l.31.05a.26.26 0 0 0 .3-.25q.06-1.67 1.56-1.37.33.06.52.22.17.14.36.25.57.3.09-.44-.61-.93.09-1.95.7-1 .28-2.03-.28-.69-.2-1 .15-.61.63-.84.47-.23.86.11.67.6 1.19.46.47-.12.6-.59.11-.4.16-.49.94-1.75.99.17l.08 2.93q.02.55.55.48 1.34-.16 3.54 1.12.45.27.65-.22.51-1.3 2.69-2.1.71-.27.68.49-.06.99-1.59 2.33-.73.64.35.83.32.05.81.45.32.26.23.68l-1.37 6.49q-.03.16-.16.27-.16.12-.23.18-.38.28-.41.58-.31 3.14.27 5.77.11.52.63.4.65-.14 1.23-.5M269.91 113.19q.47.42.74.35-.04-.19-.74-.35" vector-effect="non-scaling-stroke"/><path d="M269.91 113.19q1-1.3.5-2.66-.15-.4.27-.45 1.98-.24 2.41 1.2.19.64.75.26.35-.24.65-.2.53.06.57.79 0 .14.15.35.27.4.45-.01l.44-1a1 .98-41.8 0 1 1.85.09c.64 2.13.66 4 0 6.46q-.84 3.14.2 6.48.18.59.67.21 1.33-1.03 1.28-2.38-.06-2.08 1.61-.85 1.67 1.22 3.24-.98a.78.76-65.1 0 1 .8-.31q.36.09.72.59.59.8.54 1.25-.21 1.91.54 3.27.27.47-.13.84-.54.49.25 1.01.42.28.07.64l-.37.39q-.59.61.26.72.98.13 1.74.92a.36.36 0 0 0 .63-.21q.22-1.93-.29-2.43-1.14-1.12.38-1.68 2.91-1.06 3.03-3.19.03-.47.19-.76.52-.94.84-.1M109.66 149.68q2.62-1.42-.72-5.12-.4-.44-.85-.17l-.28.18a.69.64 85.5 0 1-.93-.85l1.35-3.78q.2-.56.73-.58l.28-.01a.64.63 4.6 0 0 .6-.5q.29-1.41.9-2.18.36-.45-.16-.71-.34-.18-.29-.52a.29.29 0 0 1 .53-.11q.12.21.31.31a.51.51 0 0 0 .56-.07q.36-.31.65-.4.62-.18.67.47l.16 1.85q.04.46.5.47l.39.02q.71.02.38-.62-.48-.94.65-2.85a.68.21 9.5 0 1 .62-.08q.14.02 1.97.22a1.67 1.59 88.4 0 0 1.73-1.92l-.33-2.21q-.08-.51.18-.92l2.01-3.22q.3-.47.76-.09c1.37 1.15.81 3.09 1.01 4.66q.12.88.94.54 2.86-1.19 2.94.26a.81.7 58.2 0 1-.05.33l-.6 1.5q-.2.48.11.9c.76 1.03 1.25 1.53 1.3 2.79q.16 4.57.09 5.04a1.42.85-70.2 0 0 .21 1.07q1.26 1.36.15 3.34-.32.58.12 1.08.67.75 2.26-.51a.27.26 68.4 0 1 .42.19l.2 1.91q.1.92.57.13.83-1.41 1.54-2.3.83-1.04.81-1.85-.03-1.03-1.57-1.74a.78.78 0 0 1-.21-1.28q2.2-2.07 2.94-3.83.38-.91.7.02.35 1.01 1.05 1.89a.34.34 0 0 0 .6-.12q.37-1.36 2.28-1.3a1.2 1.2 0 0 0 1.23-1.37q-.28-1.97.81-3.3a.51.51 0 0 1 .87.17q.61 1.9 2.73 2.75.45.18.41.69l-.11 1.26a1.25 1.07 37.9 0 0 .13.61q.83 1.69.75 5.11c-.02 1.14.14 1.34.8 2.25q.3.42-.01.82-.4.53-.44 1.07a.7.7 0 0 0 .54.73q1.1.26 1.64 1.51a.46.46 0 0 0 .68.2q2.55-1.77 2.06-4a.46.43 66.3 0 0-.69-.3l-.61.45q-.41.31-.55-.2-.16-.56.3-1.11.33-.39 1.72-1.78.69-.69 1.98-1.37 1.68-.9 3.26-2.18.37-.3.22-.75-.3-.88-.3-1.53a.77.72 24.4 0 1 1.31-.45l.88.93q.24.25.7.08.52-.21.97-.19.77.02.39.69-.52.92.9 2.12a.71.71 0 0 1 .19.82q-.51 1.19.65 1.4.51.1.32.63l-.15.39q-.16.44.16.79.69.77 1.41 2.05a2.46 2.2 45.2 0 0 4.12.25q.81-1.66-.45-3.87-.26-.45-.62-.1l-.31.3a.45.41 65.6 0 1-.71-.3q-.04-.28.08-.73.71-2.72 1.01-3.4a2.33 2.32-10 0 1 .55-.78q2.26-2.11 2.15-3.64-.26-3.81-.35-4.12-.19-.67.38-.68.45-.01 1.03.42.45.33.7-.16l.26-.49q.21-.41.7-.28 2.96.84 3.64 1.69.33.41.83.25.3-.09.51-.08.39.01.5.39l.25.84q.17.57.48 0l1.6-3.02q.23-.43.57-.09l.21.21a.58.52-49.4 0 0 .82-.11q.1-.13.02-.58-.08-.39-.35-.68-1.57-1.63-1.97-2.71-.18-.46-.51-.09-.09.1-.13.47-.13 1.3-1.1.42-.51-.46-1.15-2.07-.24-.62.08-2.24.46-2.25-1.18-3.32-.48-.31-.36-.87.29-1.29-.11-2.31-.21-.51.09-.96c1.31-2.05 5.48-4.42 2.88-7.08a.58.58 0 0 0-.98.26q-.35 1.35-1.24 1.19-2.68-.5-3.38-2.93-.15-.51.05-1 .52-1.33.51-1.39-.67-3.34-2.23-.36-.07.12-.88 1.22-.11.15-.5.21-.56.07-.48-.49.06-.36-.03-.68-.19-.69-.65-.15-1.98 2.32-.55 5.67.67 1.59-.79 2.44-.44.25-.89.02-1.1-.54-2.31.05-.54.26-.64-.33-.5-3.07-2.75-4.66-.48-.33-.26-.84l1.24-2.84q.23-.53-.31-.76-1.12-.48-.78-1.41a2.97 2.81-61 0 0-.84-3.26q-1.61-1.3-2.3-2.84-.26-.58.38-.6l1-.04q.45-.02.83-.34 1.09-.94 3.75-2.21 1.19-.58.87-1.65-.14-.45-.63-.62l-.95-.31a.77.69 12 0 1-.53-.73l.25-3.23a.94.82 85.4 0 1 .6-.8q1.12-.33.46-1.32-.31-.47-.04-.96.96-1.72.92-3.49-.01-.55-.49-.82-3.64-2.11-1.92-3.92M174.51 71.85q.44.61.63 1.66.13.7.63.19l.47-.47a.45.42 63.8 0 1 .73.28l.15.93q.13.84.73.25l1.99-1.98a.89.89 0 0 0 .24-.82q-.15-.7-.71-1.02a.52.46-56.9 0 1-.1-.72l.39-.53a.41.37 33.7 0 0-.14-.55q-.2-.13-.51-.08-1.41.22-2.15-.47M99.78 146.19l.75-2.35q.12-.38-.08-.73-1.18-2.04-2.5-1.63-1.59.49-.75-1.05l1.86-3.4q.36-.66-.33-.85-.21-.06-.89.38a.45.45 0 0 1-.68-.26q-.24-.9-.64-1.22-.35-.29-.77-.06l-1.2.66a.42.41-.4 0 1-.58-.55q1.72-2.99.51-5.78-.07-.17.18-.46.05-.06.14-.25.22-.5-.28-.69-.78-.31-1.39.47-.06.09-.47 1.07-.21.51-.76.46-.46-.04-.76-.36a1.15.99-62.5 0 0-1.76.71q-.09.39.22.95.27.49-.25.69-.47.18-.8 0-1.33-.72-.98-1.93.14-.5-.09-.96l-1.7-3.47q-.22-.43-.68-.57-1.05-.3-1.25-1.51a.47.47 0 0 0-.67-.34q-.33.17-.77.84-.47.72-.4 1.38.35 3.23-1.17 5.92a1.83 1.82-89.5 0 1-.71.71q-1.77.96-.7 2.99.24.47-.01.92-.64 1.15.94 1.87.55.25.56-.35.01-.65.21-1.04.33-.64.66.07l.78 1.71q.14.29-.06.73l-1.66 3.66M168.18 150.37a.25.25 0 0 0 .15.36q.37.11.47-.16a.27.27 0 0 0-.03-.26q-.34-.44-.59.06" vector-effect="non-scaling-stroke"/><path d="M160.3 93.26q-.26.28.13.62a.29.28 18 0 0 .47-.24q-.02-.3-.2-.42-.21-.15-.4.04" vector-effect="non-scaling-stroke"/></g><path d="M219 67.64q.73 1.1.72 2.38 0 1.14-.9 2.14-1 1.13-2.44 3.07-.3.41.04.79.5.53 1.05.66t.54-.44q-.01-.52.16-.84a.36.36 0 0 1 .65.05q.38 1.22 1.73 2.7a1.52 1.52 0 0 1 .39.88q.22 2.4-1.53 5.22a.6.6 0 0 0 .04.68q.37.48-.05 1.35-.54 1.13.4.3.71-.62 1.5-2.24.26-.53.78-.25 1.76.93 3.28 1.01a.63.63 0 0 1 .6.67q-.16 2.16.67 3.53.22.36-.04.7-.37.48-.36.54.08.61.59.14.57-.52 1.22-.74.48-.15.36-.65-.56-2.39 1.51-4.77a.62.62 0 0 1 .83-.1q.9.63 1.57.56.51-.05.32-.52l-1.12-2.71a1.09.93-47.9 0 1 .03-.78q.56-1.36-.6-2.34a.9.9 0 0 0-.88-.16l-.37.14q-.58.2-.63-.4-.33-4.6 3.54-6.95 1.19-.05 4.65-.98 1.05-.29 1.99.89l-.14 3.02q-.03.65.6.81.3.08.69-.02.55-.14.55-.7.01-.84-.4-1.19-1.45-1.24.36-1.35.61-.03 1.37-.69.57-.5.64.28l.17 2.12q.05.52.47.26.18-.11.27-.27.16-.31.49-.18 1.81.72 3.46-.67.39-.33.21-.81-.41-1.12-1.48-2.02 1.09-.09 1.5.2 2.85 1.99 7.08 5.57-.37.34-.52.67-.28.62.4.57 1.04-.07 1.12 1.3.07 1.4-1.94 2.66a.2.2 0 0 0-.07.27q1.07 1.9.53 3.25-.67 1.68-.78 2.63-.3 2.62-1.28 7.01-.08.36-.46.87-.1.13-.32.28-.55.36.02.68 2.61 1.46 2.28 4.79-.02.17.16.2l.31.05a.26.26 0 0 0 .3-.25q.06-1.67 1.56-1.37.33.06.52.22.17.14.36.25.57.3.09-.44-.61-.93.09-1.95.7-1 .28-2.03-.28-.69-.2-1 .15-.61.63-.84.47-.23.86.11.67.6 1.19.46.47-.12.6-.59.11-.4.16-.49.94-1.75.99.17l.08 2.93q.02.55.55.48 1.34-.16 3.54 1.12.45.27.65-.22.51-1.3 2.69-2.1.71-.27.68.49-.06.99-1.59 2.33-.73.64.35.83.32.05.81.45.32.26.23.68l-1.37 6.49q-.03.16-.16.27-.16.12-.23.18-.38.28-.41.58-.31 3.14.27 5.77.11.52.63.4.65-.14 1.23-.5.47.42.74.35-.04-.19-.74-.35 1-1.3.5-2.66-.15-.4.27-.45 1.98-.24 2.41 1.2.19.64.75.26.35-.24.65-.2.53.06.57.79 0 .14.15.35.27.4.45-.01l.44-1a1 .98-41.8 0 1 1.85.09c.64 2.13.66 4 0 6.46q-.84 3.14.2 6.48.18.59.67.21 1.33-1.03 1.28-2.38-.06-2.08 1.61-.85 1.67 1.22 3.24-.98a.78.76-65.1 0 1 .8-.31q.36.09.72.59.59.8.54 1.25-.21 1.91.54 3.27.27.47-.13.84-.54.49.25 1.01.42.28.07.64l-.37.39q-.59.61.26.72.98.13 1.74.92a.36.36 0 0 0 .63-.21q.22-1.93-.29-2.43-1.14-1.12.38-1.68 2.91-1.06 3.03-3.19.03-.47.19-.76.52-.94.84-.1-.83 7.96-3.05 13.37-5.44 13.21-6.88 22.87-.43 2.82-1.39 4.04c-2.33 2.95-7.76 2.69-10.61 1.36q-3.85-1.8-5.11-2.14c-2.55-.68-4.13.28-6.58 1.72q-6.1 3.6-10.77 3.43-2.29-.08-8.53-1.43-3.31-.72-8.17-2.69-4.45-1.81-8.95-2.4-4.29-.56-9.13.23-1.02.17-10.99 1.68-6.26.94-11.08.8c-8.49-.26-18.13-2.44-26.14-6q-3.35-1.49-7.44-1.98-6.08-.74-11.03-.52-5.1.22-11.03-.18-13.26-.88-16.02-1.07-4.74-.33-11.59-2.86 2.62-1.42-.72-5.12-.4-.44-.85-.17l-.28.18a.69.64 85.5 0 1-.93-.85l1.35-3.78q.2-.56.73-.58l.28-.01a.64.63 4.6 0 0 .6-.5q.29-1.41.9-2.18.36-.45-.16-.71-.34-.18-.29-.52a.29.29 0 0 1 .53-.11q.12.21.31.31a.51.51 0 0 0 .56-.07q.36-.31.65-.4.62-.18.67.47l.16 1.85q.04.46.5.47l.39.02q.71.02.38-.62-.48-.94.65-2.85a.68.21 9.5 0 1 .62-.08q.14.02 1.97.22a1.67 1.59 88.4 0 0 1.73-1.92l-.33-2.21q-.08-.51.18-.92l2.01-3.22q.3-.47.76-.09c1.37 1.15.81 3.09 1.01 4.66q.12.88.94.54 2.86-1.19 2.94.26a.81.7 58.2 0 1-.05.33l-.6 1.5q-.2.48.11.9c.76 1.03 1.25 1.53 1.3 2.79q.16 4.57.09 5.04a1.42.85-70.2 0 0 .21 1.07q1.26 1.36.15 3.34-.32.58.12 1.08.67.75 2.26-.51a.27.26 68.4 0 1 .42.19l.2 1.91q.1.92.57.13.83-1.41 1.54-2.3.83-1.04.81-1.85-.03-1.03-1.57-1.74a.78.78 0 0 1-.21-1.28q2.2-2.07 2.94-3.83.38-.91.7.02.35 1.01 1.05 1.89a.34.34 0 0 0 .6-.12q.37-1.36 2.28-1.3a1.2 1.2 0 0 0 1.23-1.37q-.28-1.97.81-3.3a.51.51 0 0 1 .87.17q.61 1.9 2.73 2.75.45.18.41.69l-.11 1.26a1.25 1.07 37.9 0 0 .13.61q.83 1.69.75 5.11c-.02 1.14.14 1.34.8 2.25q.3.42-.01.82-.4.53-.44 1.07a.7.7 0 0 0 .54.73q1.1.26 1.64 1.51a.46.46 0 0 0 .68.2q2.55-1.77 2.06-4a.46.43 66.3 0 0-.69-.3l-.61.45q-.41.31-.55-.2-.16-.56.3-1.11.33-.39 1.72-1.78.69-.69 1.98-1.37 1.68-.9 3.26-2.18.37-.3.22-.75-.3-.88-.3-1.53a.77.72 24.4 0 1 1.31-.45l.88.93q.24.25.7.08.52-.21.97-.19.77.02.39.69-.52.92.9 2.12a.71.71 0 0 1 .19.82q-.51 1.19.65 1.4.51.1.32.63l-.15.39q-.16.44.16.79.69.77 1.41 2.05a2.46 2.2 45.2 0 0 4.12.25q.81-1.66-.45-3.87-.26-.45-.62-.1l-.31.3a.45.41 65.6 0 1-.71-.3q-.04-.28.08-.73.71-2.72 1.01-3.4a2.33 2.32-10 0 1 .55-.78q2.26-2.11 2.15-3.64-.26-3.81-.35-4.12-.19-.67.38-.68.45-.01 1.03.42.45.33.7-.16l.26-.49q.21-.41.7-.28 2.96.84 3.64 1.69.33.41.83.25.3-.09.51-.08.39.01.5.39l.25.84q.17.57.48 0l1.6-3.02q.23-.43.57-.09l.21.21a.58.52-49.4 0 0 .82-.11q.1-.13.02-.58-.08-.39-.35-.68-1.57-1.63-1.97-2.71-.18-.46-.51-.09-.09.1-.13.47-.13 1.3-1.1.42-.51-.46-1.15-2.07-.24-.62.08-2.24.46-2.25-1.18-3.32-.48-.31-.36-.87.29-1.29-.11-2.31-.21-.51.09-.96c1.31-2.05 5.48-4.42 2.88-7.08a.58.58 0 0 0-.98.26q-.35 1.35-1.24 1.19-2.68-.5-3.38-2.93-.15-.51.05-1 .52-1.33.51-1.39-.67-3.34-2.23-.36-.07.12-.88 1.22-.11.15-.5.21-.56.07-.48-.49.06-.36-.03-.68-.19-.69-.65-.15-1.98 2.32-.55 5.67.67 1.59-.79 2.44-.44.25-.89.02-1.1-.54-2.31.05-.54.26-.64-.33-.5-3.07-2.75-4.66-.48-.33-.26-.84l1.24-2.84q.23-.53-.31-.76-1.12-.48-.78-1.41a2.97 2.81-61 0 0-.84-3.26q-1.61-1.3-2.3-2.84-.26-.58.38-.6l1-.04q.45-.02.83-.34 1.09-.94 3.75-2.21 1.19-.58.87-1.65-.14-.45-.63-.62l-.95-.31a.77.69 12 0 1-.53-.73l.25-3.23a.94.82 85.4 0 1 .6-.8q1.12-.33.46-1.32-.31-.47-.04-.96.96-1.72.92-3.49-.01-.55-.49-.82-3.64-2.11-1.92-3.92 2.44.71 4.53 2.03 1.21.75 3.93.01.48-.13.75-.55l2.64-4.2q.44.61.63 1.66.13.7.63.19l.47-.47a.45.42 63.8 0 1 .73.28l.15.93q.13.84.73.25l1.99-1.98a.89.89 0 0 0 .24-.82q-.15-.7-.71-1.02a.52.46-56.9 0 1-.1-.72l.39-.53a.41.37 33.7 0 0-.14-.55q-.2-.13-.51-.08-1.41.22-2.15-.47c3.8-2.35 7.19-.25 10.36 1.7a1.8 1.8 0 0 0 1.63.13q2.61-1.07 4.54-1.97 3.1-1.46 4.56-1.79 3.49-.81 9.33.09 2.59.4 5.68-.36c2.35-.57 4.12.11 6.04 1.32m-50.82 82.73a.25.25 0 0 0 .15.36q.37.11.47-.16a.27.27 0 0 0-.03-.26q-.34-.44-.59.06"/><path fill="#760612" d="M232.6 71.26q-3.87 2.35-3.54 6.95.05.6.63.4l.37-.14a.9.9 0 0 1 .88.16q1.16.98.6 2.34a1.09.93-47.9 0 0-.03.78l1.12 2.71q.19.47-.32.52-.67.07-1.57-.56a.62.62 0 0 0-.83.1q-2.07 2.38-1.51 4.77.12.5-.36.65-.65.22-1.22.74-.51.47-.59-.14-.01-.06.36-.54.26-.34.04-.7-.83-1.37-.67-3.53a.63.63 0 0 0-.6-.67q-1.52-.08-3.28-1.01-.52-.28-.78.25-.79 1.62-1.5 2.24-.94.83-.4-.3.42-.87.05-1.35a.6.6 0 0 1-.04-.68q1.75-2.82 1.53-5.22a1.52 1.52 0 0 0-.39-.88q-1.35-1.48-1.73-2.7a.36.36 0 0 0-.65-.05q-.17.32-.16.84.01.57-.54.44t-1.05-.66q-.34-.38-.04-.79 1.44-1.94 2.44-3.07.9-1 .9-2.14.01-1.28-.72-2.38 3.51.65 7 1.1 1.96.26 6.6 2.52M176.86 68.52q.74.69 2.15.47.31-.05.51.08a.41.37 33.7 0 1 .14.55l-.39.53a.52.46-56.9 0 0 .1.72q.56.32.71 1.02a.89.89 0 0 1-.24.82l-1.99 1.98q-.6.59-.73-.25l-.15-.93a.45.42 63.8 0 0-.73-.28l-.47.47q-.5.51-.63-.19-.19-1.05-.63-1.66.75-2.22 2.35-3.33M246.5 69.76q1.07.9 1.48 2.02.18.48-.21.81-1.65 1.39-3.46.67-.33-.13-.49.18-.09.16-.27.27-.42.26-.47-.26l-.17-2.12q-.07-.78-.64-.28-.76.66-1.37.69-1.81.11-.36 1.35.41.35.4 1.19 0 .56-.55.7-.39.1-.69.02-.63-.16-.6-.81l.14-3.02zM162.66 74.56q-1.72 1.81 1.92 3.92.48.27.49.82.04 1.77-.92 3.49-.27.49.04.96.66.99-.46 1.32a.94.82 85.4 0 0-.6.8l-.25 3.23a.77.69 12 0 0 .53.73l.95.31q.49.17.63.62.32 1.07-.87 1.65-2.66 1.27-3.75 2.21-.38.32-.83.34l-1 .04q-.64.02-.38.6.69 1.54 2.3 2.84a2.97 2.81-61 0 1 .84 3.26q-.34.93.78 1.41.54.23.31.76l-1.24 2.84q-.22.51.26.84 2.25 1.59 2.75 4.66.1.59.64.33 1.21-.59 2.31-.05.45.23.89-.02 1.46-.85.79-2.44-1.43-3.35.55-5.67.46-.54.65.15.09.32.03.68-.08.56.48.49.39-.06.5-.21.81-1.1.88-1.22 1.56-2.98 2.23.36.01.06-.51 1.39-.2.49-.05 1 .7 2.43 3.38 2.93.89.16 1.24-1.19a.58.58 0 0 1 .98-.26c2.6 2.66-1.57 5.03-2.88 7.08q-.3.45-.09.96.4 1.02.11 2.31-.12.56.36.87 1.64 1.07 1.18 3.32-.32 1.62-.08 2.24.64 1.61 1.15 2.07.97.88 1.1-.42.04-.37.13-.47.33-.37.51.09.4 1.08 1.97 2.71.27.29.35.68.08.45-.02.58a.58.52-49.4 0 1-.82.11l-.21-.21q-.34-.34-.57.09l-1.6 3.02q-.31.57-.48 0l-.25-.84q-.11-.38-.5-.39-.21-.01-.51.08-.5.16-.83-.25-.68-.85-3.64-1.69-.49-.13-.7.28l-.26.49q-.25.49-.7.16-.58-.43-1.03-.42-.57.01-.38.68.09.31.35 4.12.11 1.53-2.15 3.64a2.33 2.32-10 0 0-.55.78q-.3.68-1.01 3.4-.12.45-.08.73a.45.41 65.6 0 0 .71.3l.31-.3q.36-.35.62.1 1.26 2.21.45 3.87a2.46 2.2 45.2 0 1-4.12-.25q-.72-1.28-1.41-2.05-.32-.35-.16-.79l.15-.39q.19-.53-.32-.63-1.16-.21-.65-1.4a.71.71 0 0 0-.19-.82q-1.42-1.2-.9-2.12.38-.67-.39-.69-.45-.02-.97.19-.46.17-.7-.08l-.88-.93a.77.72 24.4 0 0-1.31.45q0 .65.3 1.53.15.45-.22.75-1.58 1.28-3.26 2.18-1.29.68-1.98 1.37-1.39 1.39-1.72 1.78-.46.55-.3 1.11.14.51.55.2l.61-.45a.46.43 66.3 0 1 .69.3q.49 2.23-2.06 4a.46.46 0 0 1-.68-.2q-.54-1.25-1.64-1.51a.7.7 0 0 1-.54-.73q.04-.54.44-1.07.31-.4.01-.82c-.66-.91-.82-1.11-.8-2.25q.08-3.42-.75-5.11a1.25 1.07 37.9 0 1-.13-.61l.11-1.26q.04-.51-.41-.69-2.12-.85-2.73-2.75a.51.51 0 0 0-.87-.17q-1.09 1.33-.81 3.3a1.2 1.2 0 0 1-1.23 1.37q-1.91-.06-2.28 1.3a.34.34 0 0 1-.6.12q-.7-.88-1.05-1.89-.32-.93-.7-.02-.74 1.76-2.94 3.83a.78.78 0 0 0 .21 1.28q1.54.71 1.57 1.74.02.81-.81 1.85-.71.89-1.54 2.3-.47.79-.57-.13l-.2-1.91a.27.26 68.4 0 0-.42-.19q-1.59 1.26-2.26.51-.44-.5-.12-1.08 1.11-1.98-.15-3.34a1.42.85-70.2 0 1-.21-1.07q.07-.47-.09-5.04c-.05-1.26-.54-1.76-1.3-2.79q-.31-.42-.11-.9l.6-1.5a.81.7 58.2 0 0 .05-.33q-.08-1.45-2.94-.26-.82.34-.94-.54c-.2-1.57.36-3.51-1.01-4.66q-.46-.38-.76.09l-2.01 3.22q-.26.41-.18.92l.33 2.21a1.67 1.59 88.4 0 1-1.73 1.92q-1.83-.2-1.97-.22a.68.21 9.5 0 0-.62.08q-1.13 1.91-.65 2.85.33.64-.38.62l-.39-.02q-.46-.01-.5-.47l-.16-1.85q-.05-.65-.67-.47-.29.09-.65.4a.51.51 0 0 1-.56.07q-.19-.1-.31-.31a.29.29 0 0 0-.53.11q-.05.34.29.52.52.26.16.71-.61.77-.9 2.18a.64.63 4.6 0 1-.6.5l-.28.01q-.53.02-.73.58l-1.35 3.78a.69.64 85.5 0 0 .93.85l.28-.18q.45-.27.85.17 3.34 3.7.72 5.12l-9.88-3.49.75-2.35q.12-.38-.08-.73-1.18-2.04-2.5-1.63-1.59.49-.75-1.05l1.86-3.4q.36-.66-.33-.85-.21-.06-.89.38a.45.45 0 0 1-.68-.26q-.24-.9-.64-1.22-.35-.29-.77-.06l-1.2.66a.42.41-.4 0 1-.58-.55q1.72-2.99.51-5.78-.07-.17.18-.46.05-.06.14-.25.22-.5-.28-.69-.78-.31-1.39.47-.06.09-.47 1.07-.21.51-.76.46-.46-.04-.76-.36a1.15.99-62.5 0 0-1.76.71q-.09.39.22.95.27.49-.25.69-.47.18-.8 0-1.33-.72-.98-1.93.14-.5-.09-.96l-1.7-3.47q-.22-.43-.68-.57-1.05-.3-1.25-1.51a.47.47 0 0 0-.67-.34q-.33.17-.77.84-.47.72-.4 1.38.35 3.23-1.17 5.92a1.83 1.82-89.5 0 1-.71.71q-1.77.96-.7 2.99.24.47-.01.92-.64 1.15.94 1.87.55.25.56-.35.01-.65.21-1.04.33-.64.66.07l.78 1.71q.14.29-.06.73l-1.66 3.66q-4.14-.87-5.52-3.83c-2.24-4.82 2.59-14.27 5.42-18.22q6.06-8.47 8.17-11.11c1.08-1.36 2.71-2.13 4.61-2.52q18.79-3.79 38.66-10.7 4.53-1.58 8.49-4.48 8.5-6.22 9.52-16.67.21-2.14 2.25-2.98 1.25-.51 3.19.01 3.64.98 7.02 2.49m-2.36 18.7q-.26.28.13.62a.29.28 18 0 0 .47-.24q-.02-.3-.2-.42-.21-.15-.4.04M294.15 121.45q-.32-.84-.84.1-.16.29-.19.76-.12 2.13-3.03 3.19-1.52.56-.38 1.68.51.5.29 2.43a.36.36 0 0 1-.63.21q-.76-.79-1.74-.92-.85-.11-.26-.72l.37-.39q.35-.36-.07-.64-.79-.52-.25-1.01.4-.37.13-.84-.75-1.36-.54-3.27.05-.45-.54-1.25-.36-.5-.72-.59a.78.76-65.1 0 0-.8.31q-1.57 2.2-3.24.98-1.67-1.23-1.61.85.05 1.35-1.28 2.38-.49.38-.67-.21-1.04-3.34-.2-6.48c.66-2.46.64-4.33 0-6.46a1 .98-41.8 0 0-1.85-.09l-.44 1q-.18.41-.45.01-.15-.21-.15-.35-.04-.73-.57-.79-.3-.04-.65.2-.56.38-.75-.26-.43-1.44-2.41-1.2-.42.05-.27.45.5 1.36-.5 2.66-.58.36-1.23.5-.52.12-.63-.4-.58-2.63-.27-5.77.03-.3.41-.58.07-.06.23-.18.13-.11.16-.27l1.37-6.49q.09-.42-.23-.68-.49-.4-.81-.45-1.08-.19-.35-.83 1.53-1.34 1.59-2.33.03-.76-.68-.49-2.18.8-2.69 2.1-.2.49-.65.22-2.2-1.28-3.54-1.12-.53.07-.55-.48l-.08-2.93q-.05-1.92-.99-.17-.05.09-.16.49-.13.47-.6.59-.52.14-1.19-.46-.39-.34-.86-.11-.48.23-.63.84-.08.31.2 1 .42 1.03-.28 2.03-.7 1.02-.09 1.95.48.74-.09.44-.19-.11-.36-.25-.19-.16-.52-.22-1.5-.3-1.56 1.37a.26.26 0 0 1-.3.25l-.31-.05q-.18-.03-.16-.2.33-3.33-2.28-4.79-.57-.32-.02-.68.22-.15.32-.28.38-.51.46-.87.98-4.39 1.28-7.01.11-.95.78-2.63.54-1.35-.53-3.25a.2.2 0 0 1 .07-.27q2.01-1.26 1.94-2.66-.08-1.37-1.12-1.3-.68.05-.4-.57.15-.33.52-.67l6.87 5.69a2.38 2.38 0 0 0 1.88.52q1.78-.28 5.93-.79 3.08-.38 5.95.18 6.19 1.21 9.09 2.29c1.89.69 2.83 1.7 3.18 3.86q.62 3.84-.61 7.95a.53.53 0 0 0 .43.67l.97.15q.64.09.74.74.57 3.55 2.25 5.81 1 1.34 1.24 3.66.41 3.9 1.12 11.88.15 1.66.03 3.31"/><path d="M160.7 93.22q.18.12.2.42a.29.28 18 0 1-.47.24q-.39-.34-.13-.62.19-.19.4-.04"/><path fill="#760612" d="M269.91 113.19q.7.16.74.35-.27.07-.74-.35"/><path d="M99.78 146.19q-6.23-1.93-9.05-2.14-5-.36-9.88-1.48l1.66-3.66q.2-.44.06-.73l-.78-1.71q-.33-.71-.66-.07-.2.39-.21 1.04-.01.6-.56.35-1.58-.72-.94-1.87.25-.45.01-.92-1.07-2.03.7-2.99a1.83 1.82-89.5 0 0 .71-.71q1.52-2.69 1.17-5.92-.07-.66.4-1.38.44-.67.77-.84a.47.47 0 0 1 .67.34q.2 1.21 1.25 1.51.46.14.68.57l1.7 3.47q.23.46.09.96-.35 1.21.98 1.93.33.18.8 0 .52-.2.25-.69-.31-.56-.22-.95a1.15.99-62.5 0 1 1.76-.71q.3.32.76.36.55.05.76-.46.41-.98.47-1.07.61-.78 1.39-.47.5.19.28.69-.09.19-.14.25-.25.29-.18.46 1.21 2.79-.51 5.78a.42.41-.4 0 0 .58.55l1.2-.66q.42-.23.77.06.4.32.64 1.22a.45.45 0 0 0 .68.26q.68-.44.89-.38.69.19.33.85l-1.86 3.4q-.84 1.54.75 1.05 1.32-.41 2.5 1.63.2.35.08.73z"/><path fill="#760612" d="M168.18 150.37q.25-.5.59-.06a.27.27 0 0 1 .03.26q-.1.27-.47.16a.25.25 0 0 1-.15-.36"/></svg>