<svg xmlns="http://www.w3.org/2000/svg" viewBox="0 0 382 382"><g fill="none" stroke="#716a6f" stroke-width="2"><path d="M215.1 66.26q2.3.77 2.04 3.27-.03.32.29.29l.33-.04q.1-.01.1-.11l.11-2.46M220.05 67.91q-.3 1.18.05 2.3.14.45.58.61 2.15.78 1.17 3.26-.73 1.86-4.69 5.6-.43.39-.01.8.32.32.96.5.49.14.71.61l.38.78q.25.52.81.19.99-.6.41-1.92-.15-.34.18-.49.17-.07.37-.08.42-.02.64.36l1.06 1.77a.92.88 60.5 0 0 1.19.36q1.21-.64 1.49-.62.63.05.22.79-.32.6-.08 1.39.16.52.13 1.29-.24 5.72.65 11.12.1.63.73.56l.26-.04a.95.81 89.8 0 0 .72-.85l.21-2.68q.07-.77.61-.3.85.74 1.62.8a.33.3-9.1 0 0 .34-.43l-1.57-3.25q-.31-.63.25-.93 1.39-.75 2.19-2.8.22-.56.85-.28l2.61 1.15q.42.18.92-.01.49-.19 1.2.18.78.39.45-.42l-2.27-5.64q-.18-.44.21-.8l1.92-1.82q.71-.68-.24-.94-2.71-.74-3.75-.42-.61.18-.54-.46.12-.99-.67-2.45-.26-.49.27-.64l.67-.19q.57-.16.71-.74.21-.9-.2-1.91M234.74 70.99q.43 1.14 1.76.78.57-.15 1.49-1.23M241.2 71.31q.93.98.31 1.94-.29.45.21.65 1.15.47 1.61.94a.28.28 0 0 0 .47-.26q-.05-.22-.2-.37-.42-.39-.2-.91l1.28-3.01M246.08 70.03l-.07 3.63q-.01.36.37.17l.32-.17q.17-.09.17-.28-.03-.55.23-.94.34-.54.75-.05.55.66 1.16.07.38-.37.8-.06.78.56 1.45.16M258.33 78.14q-1.23 1.53-2.95 2.28-.72.32.03.56.47.16.82.11.61-.08.66.57l.16 2.41q.04.46-.39.64l-1.42.6q-.49.21-.22.73l.88 1.69q.27.52.15 1.02-.43 1.73-2.07 2.29-2.04.69-.22 1.76 2.07 1.23 2.18 4.22.02.58-.58.84l-.68.31q-.52.22-.18.73.74 1.12-.43 3.12-.13.22-.06.47.04.13.12.22.24.3.52.06l.76-.64a.37.37 0 0 1 .61.23q.07.42.47.44a.33.33 0 0 0 .33-.43q-.09-.24-.39-.32a.37.35 26 0 1-.22-.56l1.81-2.16a.55.52-46.4 0 1 .81-.04l1.23 1.35q.48.52.69-.14l1.41-4.62q.07-.25-.07-.47-.16-.25-.49-.33a.3.26-52.5 0 0-.21.05l-.74.47q-.64.41-.62-.34.03-.9.81-1.69.4-.41.9-.14 1.11.6 1.8-.39 1.3-1.87 1.37.35l.12 3.3q.01.19.25.15l.33-.05a.31.31 0 0 0 .26-.32q-.05-.86.27-1.16a.4.4 0 0 1 .65.2q.56 2.15 2.52 1.54.5-.16.28-.64-.61-1.37.23-1.86.46-.27.96-.07.79.31 1.21.05 1.7-1.07.81.8l-1.42 2.99q-.26.53.27.72l1.61.6q.46.17.35.71-.9 4.24-2.04 7.23-.08.22-.29.41l-.4.35q-.26.24-.15.79.63 2.94-1.29 6.1-.3.5.25.68.8.26 1.23-.51.03-.05.1-.33.06-.21.07-.3.11-.63.71-.41 2.11.78 2.58 2.46.02.1.29.05l.32-.06q.09-.01.03-.19-.67-1.85-.26-3.35.12-.45-.11-.89l-.32-.66a.76.74 58.8 0 1 .22-.94q1.12-.82 2.36-.79.55.01.83.5l1.04 1.85a.85.81 52.1 0 0 1.32.2l2.07-2.24q.46-.51.63.15 1.47 5.76-.22 10.93-.16.52.11.83l1.11 1.27q.36.42.07.88-.24.37-.84 1.03-.83.92-.93 1.38-.21.98.94 1.88.47.36.72-.15l.93-1.83a.82.82 0 0 1 1.4-.1q.67.95 1.45 1.3a.36.35-87.9 0 0 .47-.45l-1.63-4.8q-.13-.4.27-.6 1.54-.75 2.57-.37.48.17.88-.13 1.94-1.45 1.35-2.66-.24-.51.19-1.04l.48-.6a.4.4 0 0 1 .7.15q.28 1.12.4 1.77.18 1.01 1.12.58M165.64 155.72q-2.12-.77-1.78-5 .04-.57-.53-.63l-1.64-.18q-.71-.07-.31-.69 1.51-2.33 1.81-4.56a.82.82 0 0 1 1.38-.49q1.13 1.07 1.87.83.49-.16.24-.61-.07-.14-.16-.25-.39-.5.17-.79 1.76-.92 2.18-3.42.09-.52-.3-.87l-1.24-1.16a.55.52-45.7 0 1 .01-.77l1.8-1.75q.55-.54.72.2.47 1.96 1.49 1.51a.73.73 0 0 0 .36-.36l.62-1.32a.72.65-71.4 0 1 .74-.41q.95.18.97 2.13.01.92.81.45l.38-.23q.68-.4.68.37l.02 2.33q.01 1.25 1.04.45.69-.53 1.32-.54.59-.01.62.59.09 2.1-.28 3.2-1 2.93 1.06.7l2.87-3.1q.38-.42.66.13l1.52 2.93a.5.49-29.3 0 1-.19.64q-.25.16-.33.49a.3.3 0 0 0 .52.27q1.02-1.11 1.56-.78a1.08.73 19.6 0 1 .53.71l.28 4q.01.22.23.17l.38-.1a.26.26 0 0 0 .2-.25q-.05-5.14.57-6.83a.92.92 0 0 0-.12-.87q-.69-.92-1.66-.17-.53.41-.74-.22-.13-.39.73-1.65a1.23 1.23 0 0 0-.02-1.41c-.7-.96-.65-1.82.06-2.96q1.02-1.64 2.08-3.12.51-.71.36-.86-.63-.63-1.23.02-1.4 1.51-2.01 1.6-.53.08-.69-.44l-.41-1.35a.47.44 57.7 0 0-.78-.19q-.89 1.03-1.24 2.41-.14.51-.61.29-.59-.27-.7-.79-.21-.98.12-3.45.07-.48-.17-.92-.29-.55-.2-1.03.11-.53.66-.59.33-.03.42-.05.62-.08.28-.61-.72-1.13-.15-2.29.22-.45.07-.94-.51-1.68-1.63-2.21a1.76 1.76 0 0 1-.42-2.9q3.42-3.06 4.87-5.54.31-.53.76-.12.68.61 1.02 2.19.05.2.25.26.17.04.28 0 .31-.14.19-.46-1.11-2.95 1.09-5.2 1.43-1.46 1.76-2.54.15-.52-.21-.92-.78-.84-1.74-.04-.42.36-.8-.05-.43-.47-1.34-2.22-.14-.25-.59-.42-.65-.24-.55.44.15 1.14-.64 4.04-.13.46-.57.29-1.74-.67-3.13-3a.81.48 50.7 0 0-1.08-.39q-.09.18-.46.39-.52.29-.53-.3l-.1-8.76q-.04-3.12-1.27-.26-.54 1.27-.91 2.9a1.09 1.09 0 0 1-1.48.75q-1.4-.58-2.65-1.85a.27.27 0 0 0-.45.27q.07.23.19.38a.81.71 43.1 0 1 .08.88q-.53.85-1.11 2.54c-.51 1.51-.22 2.1.48 3.45q.36.68-.34 1.03l-1.79.89q-.63.32-.74-.39-.09-.58-.7-1.53a1.02 1.01 77.6 0 0-.72-.46q-.23-.04-.53.14-1.22.7-1.07-.7.18-1.7 1.04-4.67.04-.14-.09-.53-.12-.37-.44-.44a.4.4 0 0 0-.5.34q-.03.34-.37.43a.35.34 3.1 0 1-.42-.46q.05-.11.49-.36.37-.22.16-.59l-1.11-1.96a.49.48-43.2 0 0-.83-.02q-.1.15-.31.28-.59.37-.6-.32-.03-2.5 1.66-4.04 1.48-1.35 4.93-3.79.54-.38-.03-.58l-2.91-1.03q-.57-.2-.21-.75.52-.78-.1-1.41a.57.57 0 0 1 .12-.88q2.12-1.26 1.07-2.94-.27-.43-.03-.89.62-1.16.5-2.27M175.97 69.23q-.18 1.26.11 2.29.18.64.65.17.72-.72 1.54-.76.67-.03.7.65l.11 2.19q0 .05.05.08.16.11.3.07.24-.06.31-.3.41-1.27 1.33-2.36a.49.49 0 0 1 .76.01q.23.28.21 1.12-.01.66.58.36.57-.3.87-.66a.72.72 0 0 0 .06-.83q-.87-1.41-.5-3.28M154.77 153.8q-.67-.62-.64-1.17.02-.42.67-.9 1.02-.75 1.13-1.64.06-.52-.31-.89-1.13-1.14-1.42-1.81-.2-.47.04-.92.74-1.45.8-2.73a.47.46-13 0 0-.69-.42l-.48.26q-1.32.71-.92-.74.15-.52.98-1.53.29-.36.07-.77-.11-.21-.28-.31-.35-.19-.73-.04l-1.27.51q-.65.26-.63-.44.1-2.82-1.09-3.92-.42-.4-.77.06-1.55 2.07-.4 4.62.21.46-.16.82l-1.94 1.84q-.47.44-.74-.12-.15-.3-.08-.61a.57.57 0 0 0-.8-.65q-.34.17-.62.63-.29.5.02.99.17.27.19.42.07.69-.44.34-.55-.39-.83-.92a1.04 1.04 0 0 0-1.9.14q-.61 1.75-1.89 2.45a1.94 1.43 67.7 0 0-.53 2.14q.05.16.19.26a.24.24 0 0 0 .39-.16q.15-1.16.51-1.45.52-.4.74.22.64 1.77.43 2.98-.08.48 0 .95l.44 2.54M140.69 153.87q-1.12-.86-2.38-.26M136.7 153.46q-.96-1.16-2.33-1.71-.45-.18-.46-.66-.01-.16-.01-.32.01-.61-.61-.34l-.33.14q-.54.23-.97-.04-1.08-.66-.39-1.67.34-.5 2-1.82a.53.53 0 0 0 .11-.72q-1.82-2.67-1.3-4.43a1.33 1.33 0 0 0-.1-1.01q-1.23-2.29-.86-4.08.1-.45-.14-.85-1.2-2-2.38-1.37-.48.26-.81-.18-1.62-2.24-.59-3.62.37-.5-.06-.94-.68-.68-1.51-.88-.59-.14-.67.52-.01.07.22.64.18.46-.2.68l-1.59.93a1.26 1.26 0 0 0-.38 1.82q.34.48.52 1.23.13.52-.17.92l-1.96 2.64q-.3.42-.78.18-.86-.43-1.46.36a.78.78 0 0 0-.1.78l.29.66q.17.4-.1.73-.14.16-.25.22-.34.18-.65-.13l-2.05-2.06q-2.27-2.27-2.21.86.02 1.17-.47 3.19-.14.56-.69.76-1.89.66-1.22 3.57.11.49.54.24l.41-.25q.54-.32 1.06.05.6.41 1.29-.21a.4.4 0 0 1 .65.22q.09.47-.06.69-1.01 1.46-.97 3.21M99.76 146.14l2.09-3.75a.99.99 0 0 0-1.11-1.44q-4.01 1.03-4.34-2.52-.05-.53.27-.76l.65-.5q.38-.29.21-.88-.41-1.43.11-3.93.12-.61-.48-.47-1.24.26-1.99 1.61-.25.44-.74.32t-.51-1.21a.42.41-18.9 0 0-.67-.32l-.83.61a.62.59 58.4 0 0-.16.76q.33.66.35.71 1.1 2.51-1.32 1.32l-1.81-.89q-.27-.13-.1-.43l.15-.27q.18-.32.01-.68-.62-1.26-.6-4.24.01-1.22-1.02-1.22h-1.25q-.5 0-.56-.57l-.15-1.38q-.18-1.79-1.02-.21-.28.51-.73 1.89-.16.49.08.94.41.76.5 1.37.07.44-.21.8l-1.35 1.74q-.39.51.01 1.09l.48.7q.36.51-.36.55l-.43.03q-.53.04-.65.6-.44 1.95-.21 4.13.02.2.25.2h.27q.25-.01.28-.25l.15-1q.11-.78.56-.2 1.79 2.29 1.18 4.97" vector-effect="non-scaling-stroke"/><path d="M176.18 95.6q0 .33.43.25a.32.32 0 0 0 .27-.33q-.01-.38-.31-.35a.43.43 0 0 0-.39.43M131.45 134.14q-.61.06-.53.57a.39.39 0 0 0 .61.26q.2-.14.27-.4a.34.34 0 0 0-.35-.43M99.95 139.526a.94.52 1 0 0-.93-.536.94.52 1 0 0-.95.504.94.52 1 0 0 .93.536.94.52 1 0 0 .95-.504M119.05 142.22q-.03.42.33.55.29.1.36-.2.06-.23-.22-.52a.27.27 0 0 0-.47.17" vector-effect="non-scaling-stroke"/></g><path d="M215.1 66.26q2.3.77 2.04 3.27-.03.32.29.29l.33-.04q.1-.01.1-.11l.11-2.46 2.08.7q-.3 1.18.05 2.3.14.45.58.61 2.15.78 1.17 3.26-.73 1.86-4.69 5.6-.43.39-.01.8.32.32.96.5.49.14.71.61l.38.78q.25.52.81.19.99-.6.41-1.92-.15-.34.18-.49.17-.07.37-.08.42-.02.64.36l1.06 1.77a.92.88 60.5 0 0 1.19.36q1.21-.64 1.49-.62.63.05.22.79-.32.6-.08 1.39.16.52.13 1.29-.24 5.72.65 11.12.1.63.73.56l.26-.04a.95.81 89.8 0 0 .72-.85l.21-2.68q.07-.77.61-.3.85.74 1.62.8a.33.3-9.1 0 0 .34-.43l-1.57-3.25q-.31-.63.25-.93 1.39-.75 2.19-2.8.22-.56.85-.28l2.61 1.15q.42.18.92-.01.49-.19 1.2.18.78.39.45-.42l-2.27-5.64q-.18-.44.21-.8l1.92-1.82q.71-.68-.24-.94-2.71-.74-3.75-.42-.61.18-.54-.46.12-.99-.67-2.45-.26-.49.27-.64l.67-.19q.57-.16.71-.74.21-.9-.2-1.91.48-.21.97-.23.43 1.14 1.76.78.57-.15 1.49-1.23l3.21.77q.93.98.31 1.94-.29.45.21.65 1.15.47 1.61.94a.28.28 0 0 0 .47-.26q-.05-.22-.2-.37-.42-.39-.2-.91l1.28-3.01q.63-.37 1.4-.26l-.07 3.63q-.01.36.37.17l.32-.17q.17-.09.17-.28-.03-.55.23-.94.34-.54.75-.05.55.66 1.16.07.38-.37.8-.06.78.56 1.45.16l7.07 5.58q-1.23 1.53-2.95 2.28-.72.32.03.56.47.16.82.11.61-.08.66.57l.16 2.41q.04.46-.39.64l-1.42.6q-.49.21-.22.73l.88 1.69q.27.52.15 1.02-.43 1.73-2.07 2.29-2.04.69-.22 1.76 2.07 1.23 2.18 4.22.02.58-.58.84l-.68.31q-.52.22-.18.73.74 1.12-.43 3.12-.13.22-.06.47.04.13.12.22.24.3.52.06l.76-.64a.37.37 0 0 1 .61.23q.07.42.47.44a.33.33 0 0 0 .33-.43q-.09-.24-.39-.32a.37.35 26 0 1-.22-.56l1.81-2.16a.55.52-46.4 0 1 .81-.04l1.23 1.35q.48.52.69-.14l1.41-4.62q.07-.25-.07-.47-.16-.25-.49-.33a.3.26-52.5 0 0-.21.05l-.74.47q-.64.41-.62-.34.03-.9.81-1.69.4-.41.9-.14 1.11.6 1.8-.39 1.3-1.87 1.37.35l.12 3.3q.01.19.25.15l.33-.05a.31.31 0 0 0 .26-.32q-.05-.86.27-1.16a.4.4 0 0 1 .65.2q.56 2.15 2.52 1.54.5-.16.28-.64-.61-1.37.23-1.86.46-.27.96-.07.79.31 1.21.05 1.7-1.07.81.8l-1.42 2.99q-.26.53.27.72l1.61.6q.46.17.35.71-.9 4.24-2.04 7.23-.08.22-.29.41l-.4.35q-.26.24-.15.79.63 2.94-1.29 6.1-.3.5.25.68.8.26 1.23-.51.03-.05.1-.33.06-.21.07-.3.11-.63.71-.41 2.11.78 2.58 2.46.02.1.29.05l.32-.06q.09-.01.03-.19-.67-1.85-.26-3.35.12-.45-.11-.89l-.32-.66a.76.74 58.8 0 1 .22-.94q1.12-.82 2.36-.79.55.01.83.5l1.04 1.85a.85.81 52.1 0 0 1.32.2l2.07-2.24q.46-.51.63.15 1.47 5.76-.22 10.93-.16.52.11.83l1.11 1.27q.36.42.07.88-.24.37-.84 1.03-.83.92-.93 1.38-.21.98.94 1.88.47.36.72-.15l.93-1.83a.82.82 0 0 1 1.4-.1q.67.95 1.45 1.3a.36.35-87.9 0 0 .47-.45l-1.63-4.8q-.13-.4.27-.6 1.54-.75 2.57-.37.48.17.88-.13 1.94-1.45 1.35-2.66-.24-.51.19-1.04l.48-.6a.4.4 0 0 1 .7.15q.28 1.12.4 1.77.18 1.01 1.12.58-.5 7-2.76 13.37-2.31 6.53-4.77 13.01-.79 2.06-2.41 11.07-.56 3.13-1.45 4.4-1.43 2.04-4.46 2.34c-4.23.43-6.51-.95-11.02-2.87-2.32-1-4.51.2-7.04 1.69q-5.96 3.51-10.68 3.35-3.06-.11-8.56-1.42-3.64-.87-8.2-2.71-4.4-1.78-8.91-2.39-3.88-.53-9.12.25-8.7 1.3-11.29 1.71c-12.88 2.08-26.12-.35-38.03-5.8q-2.12-.77-1.78-5 .04-.57-.53-.63l-1.64-.18q-.71-.07-.31-.69 1.51-2.33 1.81-4.56a.82.82 0 0 1 1.38-.49q1.13 1.07 1.87.83.49-.16.24-.61-.07-.14-.16-.25-.39-.5.17-.79 1.76-.92 2.18-3.42.09-.52-.3-.87l-1.24-1.16a.55.52-45.7 0 1 .01-.77l1.8-1.75q.55-.54.72.2.47 1.96 1.49 1.51a.73.73 0 0 0 .36-.36l.62-1.32a.72.65-71.4 0 1 .74-.41q.95.18.97 2.13.01.92.81.45l.38-.23q.68-.4.68.37l.02 2.33q.01 1.25 1.04.45.69-.53 1.32-.54.59-.01.62.59.09 2.1-.28 3.2-1 2.93 1.06.7l2.87-3.1q.38-.42.66.13l1.52 2.93a.5.49-29.3 0 1-.19.64q-.25.16-.33.49a.3.3 0 0 0 .52.27q1.02-1.11 1.56-.78a1.08.73 19.6 0 1 .53.71l.28 4q.01.22.23.17l.38-.1a.26.26 0 0 0 .2-.25q-.05-5.14.57-6.83a.92.92 0 0 0-.12-.87q-.69-.92-1.66-.17-.53.41-.74-.22-.13-.39.73-1.65a1.23 1.23 0 0 0-.02-1.41c-.7-.96-.65-1.82.06-2.96q1.02-1.64 2.08-3.12.51-.71.36-.86-.63-.63-1.23.02-1.4 1.51-2.01 1.6-.53.08-.69-.44l-.41-1.35a.47.44 57.7 0 0-.78-.19q-.89 1.03-1.24 2.41-.14.51-.61.29-.59-.27-.7-.79-.21-.98.12-3.45.07-.48-.17-.92-.29-.55-.2-1.03.11-.53.66-.59.33-.03.42-.05.62-.08.28-.61-.72-1.13-.15-2.29.22-.45.07-.94-.51-1.68-1.63-2.21a1.76 1.76 0 0 1-.42-2.9q3.42-3.06 4.87-5.54.31-.53.76-.12.68.61 1.02 2.19.05.2.25.26.17.04.28 0 .31-.14.19-.46-1.11-2.95 1.09-5.2 1.43-1.46 1.76-2.54.15-.52-.21-.92-.78-.84-1.74-.04-.42.36-.8-.05-.43-.47-1.34-2.22-.14-.25-.59-.42-.65-.24-.55.44.15 1.14-.64 4.04-.13.46-.57.29-1.74-.67-3.13-3a.81.48 50.7 0 0-1.08-.39q-.09.18-.46.39-.52.29-.53-.3l-.1-8.76q-.04-3.12-1.27-.26-.54 1.27-.91 2.9a1.09 1.09 0 0 1-1.48.75q-1.4-.58-2.65-1.85a.27.27 0 0 0-.45.27q.07.23.19.38a.81.71 43.1 0 1 .08.88q-.53.85-1.11 2.54c-.51 1.51-.22 2.1.48 3.45q.36.68-.34 1.03l-1.79.89q-.63.32-.74-.39-.09-.58-.7-1.53a1.02 1.01 77.6 0 0-.72-.46q-.23-.04-.53.14-1.22.7-1.07-.7.18-1.7 1.04-4.67.04-.14-.09-.53-.12-.37-.44-.44a.4.4 0 0 0-.5.34q-.03.34-.37.43a.35.34 3.1 0 1-.42-.46q.05-.11.49-.36.37-.22.16-.59l-1.11-1.96a.49.48-43.2 0 0-.83-.02q-.1.15-.31.28-.59.37-.6-.32-.03-2.5 1.66-4.04 1.48-1.35 4.93-3.79.54-.38-.03-.58l-2.91-1.03q-.57-.2-.21-.75.52-.78-.1-1.41a.57.57 0 0 1 .12-.88q2.12-1.26 1.07-2.94-.27-.43-.03-.89.62-1.16.5-2.27 1.57.16 2.7-.17 1.03-.29 1.83-1.7 1.64-2.87 3.46-5.74-.18 1.26.11 2.29.18.64.65.17.72-.72 1.54-.76.67-.03.7.65l.11 2.19q0 .05.05.08.16.11.3.07.24-.06.31-.3.41-1.27 1.33-2.36a.49.49 0 0 1 .76.01q.23.28.21 1.12-.01.66.58.36.57-.3.87-.66a.72.72 0 0 0 .06-.83q-.87-1.41-.5-3.28l4.14 2.25a2.03 2.03 0 0 0 1.78.09q4.27-1.85 7.03-3.1c2.99-1.35 6.72-1.16 10.35-.64q1.9.27 4.34.04 2.27-.22 4.41-.36M176.18 95.6q0 .33.43.25a.32.32 0 0 0 .27-.33q-.01-.38-.31-.35a.43.43 0 0 0-.39.43"/><path fill="#e1d3de" d="m217.97 67.21-.11 2.46q0 .1-.1.11l-.33.04q-.32.03-.29-.29.26-2.5-2.04-3.27 1.71-.05 2.87.95M183.05 67.98q-.37 1.87.5 3.28a.72.72 0 0 1-.06.83q-.3.36-.87.66-.59.3-.58-.36.02-.84-.21-1.12a.49.49 0 0 0-.76-.01q-.92 1.09-1.33 2.36-.07.24-.31.3-.14.04-.3-.07-.05-.03-.05-.08l-.11-2.19q-.03-.68-.7-.65-.82.04-1.54.76-.47.47-.65-.17-.29-1.03-.11-2.29 2.91-2.69 7.08-1.25M233.77 71.22q.41 1.01.2 1.91-.14.58-.71.74l-.67.19q-.53.15-.27.64.79 1.46.67 2.45-.07.64.54.46 1.04-.32 3.75.42.95.26.24.94l-1.92 1.82q-.39.36-.21.8l2.27 5.64q.33.81-.45.42-.71-.37-1.2-.18-.5.19-.92.01l-2.61-1.15q-.63-.28-.85.28-.8 2.05-2.19 2.8-.56.3-.25.93l1.57 3.25a.33.3-9.1 0 1-.34.43q-.77-.06-1.62-.8-.54-.47-.61.3l-.21 2.68a.95.81 89.8 0 1-.72.85l-.26.04q-.63.07-.73-.56-.89-5.4-.65-11.12.03-.77-.13-1.29-.24-.79.08-1.39.41-.74-.22-.79-.28-.02-1.49.62a.92.88 60.5 0 1-1.19-.36l-1.06-1.77q-.22-.38-.64-.36-.2.01-.37.08-.33.15-.18.49.58 1.32-.41 1.92-.56.33-.81-.19l-.38-.78q-.22-.47-.71-.61-.64-.18-.96-.5-.42-.41.01-.8 3.96-3.74 4.69-5.6.98-2.48-1.17-3.26-.44-.16-.58-.61-.35-1.12-.05-2.3 6.54.5 12.58 3.2.3.13 1.14.11M251.26 72.56q-.67.4-1.45-.16-.42-.31-.8.06-.61.59-1.16-.07-.41-.49-.75.05-.26.39-.23.94 0 .19-.17.28l-.32.17q-.38.19-.37-.17l.07-3.63q.45-.2.94-.26.44-.05.89.21 1.8 1.05 3.35 2.58M244.68 70.29l-1.28 3.01q-.22.52.2.91.15.15.2.37a.28.28 0 0 1-.47.26q-.46-.47-1.61-.94-.5-.2-.21-.65.62-.96-.31-1.94 1.66-1.09 3.48-1.02M237.99 70.54q-.92 1.08-1.49 1.23-1.33.36-1.76-.78 1.64-.52 3.25-.45M167.98 76.84q.12 1.11-.5 2.27-.24.46.03.89 1.05 1.68-1.07 2.94a.57.57 0 0 0-.12.88q.62.63.1 1.41-.36.55.21.75l2.91 1.03q.57.2.03.58-3.45 2.44-4.93 3.79-1.69 1.54-1.66 4.04.01.69.6.32.21-.13.31-.28a.49.48-43.2 0 1 .83.02l1.11 1.96q.21.37-.16.59-.44.25-.49.36a.35.34 3.1 0 0 .42.46q.34-.09.37-.43a.4.4 0 0 1 .5-.34q.32.07.44.44.13.39.09.53-.86 2.97-1.04 4.67-.15 1.4 1.07.7.3-.18.53-.14a1.02 1.01 77.6 0 1 .72.46q.61.95.7 1.53.11.71.74.39l1.79-.89q.7-.35.34-1.03c-.7-1.35-.99-1.94-.48-3.45q.58-1.69 1.11-2.54a.81.71 43.1 0 0-.08-.88q-.12-.15-.19-.38a.27.27 0 0 1 .45-.27q1.25 1.27 2.65 1.85a1.09 1.09 0 0 0 1.48-.75q.37-1.63.91-2.9 1.23-2.86 1.27.26l.1 8.76q.01.59.53.3.37-.21.46-.39a.81.48 50.7 0 1 1.08.39q1.39 2.33 3.13 3 .44.17.57-.29.79-2.9.64-4.04-.1-.68.55-.44.45.17.59.42.91 1.75 1.34 2.22.38.41.8.05.96-.8 1.74.04.36.4.21.92-.33 1.08-1.76 2.54-2.2 2.25-1.09 5.2.12.32-.19.46-.11.04-.28 0-.2-.06-.25-.26-.34-1.58-1.02-2.19-.45-.41-.76.12-1.45 2.48-4.87 5.54a1.76 1.76 0 0 0 .42 2.9q1.12.53 1.63 2.21.15.49-.07.94-.57 1.16.15 2.29.34.53-.28.61-.09.02-.42.05-.55.06-.66.59-.09.48.2 1.03.24.44.17.92-.33 2.47-.12 3.45.11.52.7.79.47.22.61-.29.35-1.38 1.24-2.41a.47.44 57.7 0 1 .78.19l.41 1.35q.16.52.69.44.61-.09 2.01-1.6.6-.65 1.23-.02.15.15-.36.86-1.06 1.48-2.08 3.12c-.71 1.14-.76 2-.06 2.96a1.23 1.23 0 0 1 .02 1.41q-.86 1.26-.73 1.65.21.63.74.22.97-.75 1.66.17a.92.92 0 0 1 .12.87q-.62 1.69-.57 6.83a.26.26 0 0 1-.2.25l-.38.1q-.22.05-.23-.17l-.28-4a1.08.73 19.6 0 0-.53-.71q-.54-.33-1.56.78a.3.3 0 0 1-.52-.27q.08-.33.33-.49a.5.49-29.3 0 0 .19-.64l-1.52-2.93q-.28-.55-.66-.13l-2.87 3.1q-2.06 2.23-1.06-.7.37-1.1.28-3.2-.03-.6-.62-.59-.63.01-1.32.54-1.03.8-1.04-.45l-.02-2.33q0-.77-.68-.37l-.38.23q-.8.47-.81-.45-.02-1.95-.97-2.13a.72.65-71.4 0 0-.74.41l-.62 1.32a.73.73 0 0 1-.36.36q-1.02.45-1.49-1.51-.17-.74-.72-.2l-1.8 1.75a.55.52-45.7 0 0-.01.77l1.24 1.16q.39.35.3.87-.42 2.5-2.18 3.42-.56.29-.17.79.09.11.16.25.25.45-.24.61-.74.24-1.87-.83a.82.82 0 0 0-1.38.49q-.3 2.23-1.81 4.56-.4.62.31.69l1.64.18q.57.06.53.63-.34 4.23 1.78 5l-10.87-1.92q-.67-.62-.64-1.17.02-.42.67-.9 1.02-.75 1.13-1.64.06-.52-.31-.89-1.13-1.14-1.42-1.81-.2-.47.04-.92.74-1.45.8-2.73a.47.46-13 0 0-.69-.42l-.48.26q-1.32.71-.92-.74.15-.52.98-1.53.29-.36.07-.77-.11-.21-.28-.31-.35-.19-.73-.04l-1.27.51q-.65.26-.63-.44.1-2.82-1.09-3.92-.42-.4-.77.06-1.55 2.07-.4 4.62.21.46-.16.82l-1.94 1.84q-.47.44-.74-.12-.15-.3-.08-.61a.57.57 0 0 0-.8-.65q-.34.17-.62.63-.29.5.02.99.17.27.19.42.07.69-.44.34-.55-.39-.83-.92a1.04 1.04 0 0 0-1.9.14q-.61 1.75-1.89 2.45a1.94 1.43 67.7 0 0-.53 2.14q.05.16.19.26a.24.24 0 0 0 .39-.16q.15-1.16.51-1.45.52-.4.74.22.64 1.77.43 2.98-.08.48 0 .95l.44 2.54q-.47-.14-1.12.04-1.12-.86-2.38-.26l-1.61-.15q-.96-1.16-2.33-1.71-.45-.18-.46-.66-.01-.16-.01-.32.01-.61-.61-.34l-.33.14q-.54.23-.97-.04-1.08-.66-.39-1.67.34-.5 2-1.82a.53.53 0 0 0 .11-.72q-1.82-2.67-1.3-4.43a1.33 1.33 0 0 0-.1-1.01q-1.23-2.29-.86-4.08.1-.45-.14-.85-1.2-2-2.38-1.37-.48.26-.81-.18-1.62-2.24-.59-3.62.37-.5-.06-.94-.68-.68-1.51-.88-.59-.14-.67.52-.01.07.22.64.18.46-.2.68l-1.59.93a1.26 1.26 0 0 0-.38 1.82q.34.48.52 1.23.13.52-.17.92l-1.96 2.64q-.3.42-.78.18-.86-.43-1.46.36a.78.78 0 0 0-.1.78l.29.66q.17.4-.1.73-.14.16-.25.22-.34.18-.65-.13l-2.05-2.06q-2.27-2.27-2.21.86.02 1.17-.47 3.19-.14.56-.69.76-1.89.66-1.22 3.57.11.49.54.24l.41-.25q.54-.32 1.06.05.6.41 1.29-.21a.4.4 0 0 1 .65.22q.09.47-.06.69-1.01 1.46-.97 3.21l-15.2-5.27 2.09-3.75a.99.99 0 0 0-1.11-1.44q-4.01 1.03-4.34-2.52-.05-.53.27-.76l.65-.5q.38-.29.21-.88-.41-1.43.11-3.93.12-.61-.48-.47-1.24.26-1.99 1.61-.25.44-.74.32t-.51-1.21a.42.41-18.9 0 0-.67-.32l-.83.61a.62.59 58.4 0 0-.16.76q.33.66.35.71 1.1 2.51-1.32 1.32l-1.81-.89q-.27-.13-.1-.43l.15-.27q.18-.32.01-.68-.62-1.26-.6-4.24.01-1.22-1.02-1.22h-1.25q-.5 0-.56-.57l-.15-1.38q-.18-1.79-1.02-.21-.28.51-.73 1.89-.16.49.08.94.41.76.5 1.37.07.44-.21.8l-1.35 1.74q-.39.51.01 1.09l.48.7q.36.51-.36.55l-.43.03q-.53.04-.65.6-.44 1.95-.21 4.13.02.2.25.2h.27q.25-.01.28-.25l.15-1q.11-.78.56-.2 1.79 2.29 1.18 4.97-3.2-.33-5.92-1.42c-3.69-1.48-4.57-4.47-3.81-8.33q1.3-6.56 5.04-12.04 4.73-6.94 8.98-12.27c1.07-1.34 2.63-2.01 4.44-2.38q14.76-3.06 29.13-7.54c8.06-2.51 14.81-4.37 20.9-10.11q5.75-5.43 6.65-14.06.25-2.42 2.38-3.19 1.32-.48 3.43.14 6.22 1.85 12 4.68m-36.53 57.3q-.61.06-.53.57a.39.39 0 0 0 .61.26q.2-.14.27-.4a.34.34 0 0 0-.35-.43m-31.5 5.386a.94.52 1 0 0-.93-.536.94.52 1 0 0-.95.504.94.52 1 0 0 .93.536.94.52 1 0 0 .95-.504M258.33 78.14l3.37 2.92a2.83 2.83 0 0 0 2.26.66q2.03-.3 5.83-.77 2.86-.36 5.91.2 5.24.96 9.13 2.27c1.72.58 2.78 1.72 3.12 3.65q.69 3.89-.57 8.08-.18.58.41.71l1.1.24a.82.82 0 0 1 .63.68q.53 3.47 2.11 5.6.99 1.34 1.31 3.78.91 6.83 1.4 13.56-.94.43-1.12-.58-.12-.65-.4-1.77a.4.4 0 0 0-.7-.15l-.48.6q-.43.53-.19 1.04.59 1.21-1.35 2.66-.4.3-.88.13-1.03-.38-2.57.37-.4.2-.27.6l1.63 4.8a.36.35-87.9 0 1-.47.45q-.78-.35-1.45-1.3a.82.82 0 0 0-1.4.1l-.93 1.83q-.25.51-.72.15-1.15-.9-.94-1.88.1-.46.93-1.38.6-.66.84-1.03.29-.46-.07-.88l-1.11-1.27q-.27-.31-.11-.83 1.69-5.17.22-10.93-.17-.66-.63-.15l-2.07 2.24a.85.81 52.1 0 1-1.32-.2l-1.04-1.85q-.28-.49-.83-.5-1.24-.03-2.36.79a.76.74 58.8 0 0-.22.94l.32.66q.23.44.11.89-.41 1.5.26 3.35.06.18-.03.19l-.32.06q-.27.05-.29-.05-.47-1.68-2.58-2.46-.6-.22-.71.41-.01.09-.07.3-.07.28-.1.33-.43.77-1.23.51-.55-.18-.25-.68 1.92-3.16 1.29-6.1-.11-.55.15-.79l.4-.35q.21-.19.29-.41 1.14-2.99 2.04-7.23.11-.54-.35-.71l-1.61-.6q-.53-.19-.27-.72l1.42-2.99q.89-1.87-.81-.8-.42.26-1.21-.05-.5-.2-.96.07-.84.49-.23 1.86.22.48-.28.64-1.96.61-2.52-1.54a.4.4 0 0 0-.65-.2q-.32.3-.27 1.16a.31.31 0 0 1-.26.32l-.33.05q-.24.04-.25-.15l-.12-3.3q-.07-2.22-1.37-.35-.69.99-1.8.39-.5-.27-.9.14-.78.79-.81 1.69-.02.75.62.34l.74-.47a.3.26-52.5 0 1 .21-.05q.33.08.49.33.14.22.07.47l-1.41 4.62q-.21.66-.69.14l-1.23-1.35a.55.52-46.4 0 0-.81.04l-1.81 2.16a.37.35 26 0 0 .22.56q.3.08.39.32a.33.33 0 0 1-.33.43q-.4-.02-.47-.44a.37.37 0 0 0-.61-.23l-.76.64q-.28.24-.52-.06-.08-.09-.12-.22-.07-.25.06-.47 1.17-2 .43-3.12-.34-.51.18-.73l.68-.31q.6-.26.58-.84-.11-2.99-2.18-4.22-1.82-1.07.22-1.76 1.64-.56 2.07-2.29.12-.5-.15-1.02l-.88-1.69q-.27-.52.22-.73l1.42-.6q.43-.18.39-.64l-.16-2.41q-.05-.65-.66-.57-.35.05-.82-.11-.75-.24-.03-.56 1.72-.75 2.95-2.28"/><path fill="#e1d3de" d="M176.18 95.6a.43.43 0 0 1 .39-.43q.3-.03.31.35a.32.32 0 0 1-.27.33q-.43.08-.43-.25"/><path d="M99.76 146.14q-7.36-2.14-15-2.78.61-2.68-1.18-4.97-.45-.58-.56.2l-.15 1q-.03.24-.28.25h-.27q-.23 0-.25-.2-.23-2.18.21-4.13.12-.56.65-.6l.43-.03q.72-.04.36-.55l-.48-.7q-.4-.58-.01-1.09l1.35-1.74q.28-.36.21-.8-.09-.61-.5-1.37-.24-.45-.08-.94.45-1.38.73-1.89.84-1.58 1.02.21l.15 1.38q.06.57.56.57h1.25q1.03 0 1.02 1.22-.02 2.98.6 4.24.17.36-.01.68l-.15.27q-.17.3.1.43l1.81.89q2.42 1.19 1.32-1.32-.02-.05-.35-.71a.62.59 58.4 0 1 .16-.76l.83-.61a.42.41-18.9 0 1 .67.32q.02 1.09.51 1.21t.74-.32q.75-1.35 1.99-1.61.6-.14.48.47-.52 2.5-.11 3.93.17.59-.21.88l-.65.5q-.32.23-.27.76.33 3.55 4.34 2.52a.99.99 0 0 1 1.11 1.44zM136.7 153.46q-11.04-.04-21.74-2.05-.04-1.75.97-3.21.15-.22.06-.69a.4.4 0 0 0-.65-.22q-.69.62-1.29.21-.52-.37-1.06-.05l-.41.25q-.43.25-.54-.24-.67-2.91 1.22-3.57.55-.2.69-.76.49-2.02.47-3.19-.06-3.13 2.21-.86l2.05 2.06q.31.31.65.13.11-.06.25-.22.27-.33.1-.73l-.29-.66a.78.78 0 0 1 .1-.78q.6-.79 1.46-.36.48.24.78-.18l1.96-2.64q.3-.4.17-.92-.18-.75-.52-1.23a1.26 1.26 0 0 1 .38-1.82l1.59-.93q.38-.22.2-.68-.23-.57-.22-.64.08-.66.67-.52.83.2 1.51.88.43.44.06.94-1.03 1.38.59 3.62.33.44.81.18 1.18-.63 2.38 1.37.24.4.14.85-.37 1.79.86 4.08a1.33 1.33 0 0 1 .1 1.01q-.52 1.76 1.3 4.43a.53.53 0 0 1-.11.72q-1.66 1.32-2 1.82-.69 1.01.39 1.67.43.27.97.04l.33-.14q.62-.27.61.34 0 .16.01.32.01.48.46.66 1.37.55 2.33 1.71m-17.65-11.24q-.03.42.33.55.29.1.36-.2.06-.23-.22-.52a.27.27 0 0 0-.47.17M131.45 134.14a.34.34 0 0 1 .35.43q-.07.26-.27.4a.39.39 0 0 1-.61-.26q-.08-.51.53-.57M154.77 153.8l-12.96.03-.44-2.54q-.08-.47 0-.95.21-1.21-.43-2.98-.22-.62-.74-.22-.36.29-.51 1.45a.24.24 0 0 1-.39.16q-.14-.1-.19-.26a1.94 1.43 67.7 0 1 .53-2.14q1.28-.7 1.89-2.45a1.04 1.04 0 0 1 1.9-.14q.28.53.83.92.51.35.44-.34-.02-.15-.19-.42-.31-.49-.02-.99.28-.46.62-.63a.57.57 0 0 1 .8.65q-.07.31.08.61.27.56.74.12l1.94-1.84q.37-.36.16-.82-1.15-2.55.4-4.62.35-.46.77-.06 1.19 1.1 1.09 3.92-.02.7.63.44l1.27-.51q.38-.15.73.04.17.1.28.31.22.41-.07.77-.83 1.01-.98 1.53-.4 1.45.92.74l.48-.26a.47.46-13 0 1 .69.42q-.06 1.28-.8 2.73-.24.45-.04.92.29.67 1.42 1.81.37.37.31.89-.11.89-1.13 1.64-.65.48-.67.9-.03.55.64 1.17"/><ellipse rx=".94" ry=".52" transform="rotate(1 -7943.626 5742.466)"/><path fill="#e1d3de" d="M119.05 142.22a.27.27 0 0 1 .47-.17q.28.29.22.52-.07.3-.36.2-.36-.13-.33-.55"/><path d="M140.69 153.87q-1.21.16-2.38-.26 1.26-.6 2.38.26"/></svg>