<svg xmlns="http://www.w3.org/2000/svg" viewBox="0 0 382 382"><g fill="none" stroke="#483a25" stroke-width="2"><path d="M216.56 66.55q-.82.49-1.92.49-.16 0-.27.08-.13.1-.16.26-.05.23.31.38l1.93.84q.37.17.54-.42.21-.69.07-1.46M218.05 67.26q-.55 2.2 1.4 3.75.47.37.15.87-.44.71.08 1.52a.34.34 0 0 1-.34.52q-.76-.11-1.2-.06-.47.06-1.01 1-1.59 2.74-2.71 5.2-.8 1.73.58.41.71-.69 1.57-1.16a1.73 1.46-18.9 0 1 2.49.96q.09.93 2.07.76a.66.66 0 0 1 .72.64q.06 3.63-2.09 4.98a1.46 1.46 0 0 0-.64.88q-.26 1.01-.77 1.44-.63.53-.43-.27.17-.69 0-1.22a.31.31 0 0 0-.58-.02q-.52 1.38-1.92 1.79a.43.43 0 0 0-.2.71q.58.62 1.28.76a.53.39 25.6 0 0 .39-.07l.46-.37q.51-.41.56.28.19 3.04-.21 4.13a1.3 1.3 0 0 1-.62.71q-1.59.83-2.03 1.12-2.35 1.57.41.87.24-.06 2.14 1.13.19.12.89 1.48.76 1.47 3.01.89a.47.47 0 0 0 .21-.8q-.96-.92-1.99-1.23-.62-.18-.2-.67.47-.56 0-1.06a.68.68 0 0 1-.04-.89q.41-.52.73-1.63.15-.53.66-.22l.37.22q.55.33.72-.24.3-1.01-.55-2.5-.44-.76.44-.75 1.86.03 4.33-.55a2.3 2.3 0 0 1 2.64 1.34q.57 1.34.62 3.53.01.49.32.86c1.13 1.37 1.42 1.46 3.48 1.97q1.47.36 1.8 2.13a.54.54 0 0 0 .51.44l.28.01q.12 0 .11-.12-.1-2.35.94-4.78.21-.48.09-1.41-.08-.62-.67-.31-.33.18-.62 1.27a.66.66 0 0 1-.59.49q-.25.02-.41-.07-.37-.19-.52-.67-.34-1.12-1.21-1.4-1.01-.31-.77-1.34l1.26-5.45a.95.92-70.6 0 1 1.31-.65l3.57 1.76q.2.1.36-.11l.24-.3a.35.31 28.8 0 0-.18-.5l-1.09-.42q-.53-.21-.65-.72-.29-1.2.68-2.6a.25.25 0 0 0-.34-.36q-.5.29-1.13 1.16-.77 1.06-1.06-.13l-.62-2.53q-.15-.6.27-.94l.81-.66q.44-.36.07-.84-.54-.69-.99-.97a.43.43 0 0 0-.65.29q-.15.88-.36 1.07-.64.58-.67-.1l-.05-1.02q-.03-.69-.59-.3-.4.27-.64 1.4-.11.5-.62.49-.31 0-.46-.02-.57-.07-.3-.63l.16-.3q.25-.49.04-.98-.91-2.11 1.39-3.53.69-.42 3.96-2.04.34-.17.63-.65.74-1.22-.28-1M238.46 70.67q-.4.15-.38.5.04.59.62.76l.85.26q.42.13.15.54l-.37.54q-.31.48.18.93l2.72 2.52q.42.4.28-.29l-.51-2.55a.77.74-81.9 0 1 1.08-.85q3.45 1.92 7.21 1.99.57.01.35-.51l-1.64-3.9M253.95 74.62q-1.35.72-.86 2.67.14.55.71.59c1.49.12 3.18.69 3.12 2.41q-.03.58-.62.61l-1.6.08q-.49.03-.69.48-.1.25-.1.55a.85.84-79.8 0 0 .55.8l.72.27a1.55 1.53-57 0 1 .53 2.54q-1.08 1.06-1.9-.31-.15-.25-.39-.08-.15.1-.18.19a.36.26-70 0 0 .13.46l.5.12q.34.08.1.4l-.71.92q-.45.6.35.71l.77.12a.4.39 17.5 0 1 .31.56l-.86 1.65q-.31.58-.82.15-.19-.16-.42-.2-.87-.12-.48.71l1.49 3.25a.75.65-38.3 0 1-.14.76q-1.03 1.16-1.69 1.57-.62.39-.66-.34-.05-.89-.47-1.12-.62-.33-.65.42l-.13 2.73q-.02.43-.36.77-.98.99-.56 2.87.06.27.3.14l.52-.29q.11-.06.13-.18l.28-1.12a.36.36 0 0 1 .65-.12q.24.35.53.33.42-.02.52-.43l.13-.49q.17-.7.78-.39l1.67.84q.46.23.48.73l.26 5.56a.73.72-19.9 0 0 1.16.53l1.19-.88q.38-.28.11-.79-.93-1.72.85-3.97.19-.24.46-.04l.3.21a.5.42-81.1 0 0 .65-.56q-.08-.4-.5-1.19-.32-.59.27-.72l.93-.2a.36.35 52 0 0 .08-.66l-1.83-.9a.84.69 18.6 0 1-.47-.76q.22-1.68 1.94-.99a.81.69 28.9 0 0 .88-.18l.45-.56q1.17-1.46 1.23.46l.09 3.05q.01.21.25.36.18.1.4.06.3-.05.28-.36-.03-.44-.01-.49.6-1.56 1.03.06.35 1.34 2.06 1.09.49-.08.72-.48l.72-1.29q.32-.57.9-.3.55.26.57 1.17.06 2.78 1.6 4.04.51.41-.11.61-.2.06-.49.05-.71-.03-.48.65.49 1.42-.45 2.18a.94.93-25.5 0 0-.32.92c.5 2.36-2.41 5.29-4.09 6.53q-1.4 1.03.33.89.51-.04 1.26-.72.45-.41.71.13 1.54 3.11.68 5.68a.36.36 0 0 0 .65.31q.33-.51 1.32-.29a.31.31 0 0 1 .16.52q-.46.49-.51.57-.59.92.32.48.74-.35 1.16-1.05.3-.48.02-.7l-1.09-.86q-.62-.5-.13-.99l1.84-1.85q1.06-1.06-.47-1.15-.16-.01-.36-.23-.32-.35-.06-.75.31-.48.87-.69.52-.2 1.01.13l3.42 2.29q.39.26.81.03.94-.53 1.69-1.67.17-.25.33-.07l.25.27a.67.44 43.4 0 1 .16.68q-1.23 1.86.41 2.68a.53.53 0 0 1 .28.61q-.09.34-.37.34-.36 0-.57.28-.21.3-.07 1.01.11.5-.15.95-1.22 2.07-.77 4.08a.72.71 70.3 0 1-.37.79l-1.29.66q-2.12 1.07.47 1.71.39.1 1.13 1.07a.75.75 0 0 1 .15.57q-.16 1-.7 1.75a.73.7 43.6 0 0 .04.86q.24.29 1.18.67a.83.79 8.9 0 1 .52.67l.11 1.26q.16 1.7 1.04.2.3-.53.58-1.58.13-.48-.06-.94-1.26-3 1.1-4.83.16-.12.21-.3.05-.2-.01-.33a.55.49 76.5 0 0-.46-.33q-.74.01-.86-.04-.66-.3.2-.75l1.56-.81q.57-.29.63.41l.03.45q.05.68.61.38.89-.46 1.69-.01.47.27.62-.26.18-.65.4-.92a.88.84-63.2 0 1 .87-.31q1.49.36 1.75 1.72a1.3 1.3 0 0 1-.16.92q-.42.71-.35.95.1.34.44.34.05 0 .35-.08a.46.46 0 0 1 .57.34q.08.39-.32.6-.5.27-.11.83l.32.45q.37.53-.16.71l-.53.17q-.68.23-.33.87.32.59 1.05.95a.6.6 0 0 1 .07 1.04q-1.5 1-1.67 2.44-.06.51-.58.49-.22 0-.35-.19-.79-1.14-1.08.2-.12.53.21.91.18.21.75.21.88.01 1.76.23M178.93 160.27q1.37-1.79-.07-3.04-.37-.32-.34-.81.17-2.02 2.08-2.63.49-.16.37-.66-.26-1.04-1.17-2.59-.62-1.07-.75.2l-.18 1.81q-.06.62-.53.26-1.03-.8-1.29-1.9-.38-1.62-1.06-.31-.77 1.51-.49 2.6.48 1.9-.62.38-1.92-2.66.43-4.9.3-.28.15-.66-.22-.58.04-1.1.24-.46.05-.86l-.21-.46a.49.46-9.6 0 1 .49-.65q1.3.09 2.2.58 1.62.91.73-.82-.99-1.94-.01-4.8.8-2.33-1.02-3.1-.54-.22-.17-.67.89-1.05-.08-2.43a.34.2 79.6 0 1 .19-.52l.83.75q.34.3.76.17.26-.09.46-.4.18-.26.21-.72.11-1.28.26-1.54.33-.55.75-.09l1.13 1.21q.17.19.29.16l.38-.07q.27-.05.27-.21.01-.92.3-1.05.51-.25.58.32l.06.53q.08.64.65.36 1.19-.59 1.78-.43a.71.68-86.6 0 1 .5.59l.37 2.73q.01.14.1.16l.36.11q.29.08.28-.17-.08-1.53.35-2.44.34-.69.8-.92.54-.26.63.34.35 2.22 1.11 2.81 2.25 1.75 2.11 4.1-.04.68.54.29l.77-.52q1.21-.82 1.61.6.45 1.61 1.59 2.08.56.23.32-.33-1.55-3.6-4.37-7.6-.18-.25-.5-.22-.05 0-.33-.01-.52-.03.08-.73.34-.38.32-.8-.11-2.74.09-5.08a1.05 1.02-16.5 0 1 .42-.74l2.88-2.14a.83.77 39.7 0 1 .85-.05q2.3 1.22 5.03.74 1.42-.25.09-.83l-1.41-.62q-.39-.17-1.03.02-.87.26-1.73-1.16-1.74-2.84-.66-4.42.3-.43.01-.86-.59-.92.99-2.25.24-.21.18-.52l-.05-.26q-.06-.31-.36-.21-1.55.51-2.81 2.26-.31.44-.01.89.74 1.12.12 1.74a.7.7 0 0 1-.42.2q-.7.08-1.07.42a.85.77 51.3 0 0-.07 1.06l.63.88q.45.63-.3.61l-2.6-.06q-.65-.02-.68-.62l-.12-2.68a.45.42-19.9 0 0-.7-.3l-.61.43q-.48.33-.25.99l.22.63q.18.51-.27.78-2.03 1.24-.64 3.35.16.25-.09.41l-.25.17a.56.56 0 0 1-.76-.16l-2.27-3.32q-.32-.47-.08-.98.58-1.25.61-1.83.02-.51-.35-.86-1.32-1.23-1.79-2.32-.24-.57-.72-.19-.92.71-1.58.58-.79-.16-.18-.7l1.27-1.1a.64.6 58.4 0 0 .15-.71l-.31-.73q-.21-.5-.05-.94.83-2.32.91-4.03.03-.76.65-.32.99.69 1.56.53.52-.14.23-.6-.93-1.5-.67-2.44.45-1.68.94-.07.01.03.12.76.04.23.27.21l.27-.01q.31-.02.28-.34-.09-1.03.65-1.37.44-.2.45-.69.02-.88.74-1.8a.34.28 25.4 0 0-.21-.47q-.15-.04-.52.4-.3.35-.72.16-.25-.12-.43-.39-.15-.23-.41-.23-.4-.01-.54.45a.52.51 49.6 0 0-.02.23q.13.88-.15 1.06-.38.26-.55-.17c-.95-2.45-1.9-3.78.55-5.87q.05-.04.02-.11l-.12-.27a.22.22 0 0 0-.32-.1q-1.86 1.22-2.84-.34-.17-.27-.47-1.19-.45-1.39-.97-.04l-.61 1.57q-.18.49.35.66.94.29 1.64 1 .38.38.16.8l-1.38 2.7q-.24.47.01 1l.41.85q.23.49-.2.84-.99.8-1.83.72-.83-.08-.27-.68l.5-.52q.26-.28-.07-.43-.24-.1-.39-.08-.32.03-.44.33-.33.78-.68 1.04-.41.3-.86.06c-3.52-1.81-2.19-4.24-1.53-7.1q.07-.3-.22-.32l-.25-.02q-.37-.03-.38.25-.06 1.64-1.09 1.86-1.53.33-.6 1.53l.35.44a.53.52 57.5 0 1-.17.79q-1.22.61-1.54 2.48a.37.37 0 0 1-.61.21q-.26-.24-.33-.95-.06-.69-.67-.37-.89.47-1.83-.13-.35-.22-.4.2l-.04.27q0 .04.03.06 2.89 1.62.95 3.87-.34.41-.1.88.29.56 1.07 1.07.43.29.85-.02.22-.17.57-.24.84-.16.47.67l-1.05 2.32q-.24.53-.74.21-.8-.52-2.19.34-.17.1-.36.02l-.26-.15q-.25-.14-.05-.34.56-.56.74-.97.18-.42-.07-.79-.34-.48-.9-.14-.45.27-.89 0-1.03-.63-2.37-.59-.77.02-.43-.66l2.3-4.65a.33.29-8.8 0 0-.5-.32q-.14.11-.22.22-.33.46-.65.18l-.6-.54q-.53-.47-.23-.92 1.39-2.14-.34-3.69-.45-.41-.96-.15l-.38.2q-.44.22-.66-.21l-.83-1.62q-.27-.54.16-.85l4.96-3.56a1.42 1.32-64.3 0 1 .64-.25l1.38-.16a.45.36 69.2 0 0 .21-.65c-.26-.45-.54-.84-.59-1.24q-.11-.89.77-1.54.12-.09.06-.22-.08-.15-.24-.2-.27-.08-.43.15-.68.98-1.56 1.47-.72.4-.61-.42.29-2.21-.6-3.53a.45.33 66.7 0 1 .15-.66l1.68-.13q.77-.05.34-.63-.33-.43-.44-.82-.16-.52.13-.99 1.27-2.03.24-3.55-.29-.43-.02-.88.61-.99-.96-1.95a.31.3-69.1 0 0-.46.21l-.19 1.05q-.12.65-.55.14-1.71-2.01-.35-3.48M173.77 72.97q.05.96.38 1.49.29.49.68.08.67-.69 1.59-.67a.39.39 0 0 1 .29.64q-1.06 1.27-.76 3.13a.42.42 0 0 0 .69.24l1.53-1.4a.83.76 52.3 0 1 1.19.21q.71 1.07-.05 1.53a.39.36 36.3 0 0 .13.67l1.02.31a.35.34-84.7 0 0 .43-.38q-.22-2.55 1.32-5.27.26-.46.78-.52.54-.07.86-.46.26-.33.16-.74l-.08-.35q-.13-.59-.67-.21l-.53.38q-.67.48-.69-.34l-.06-1.59a.9.9 0 0 0-1.51-.64l-.72.67q-.55.5-.67-.24l-.31-1.82M169 157.22q.15-1.97-1.51-2.49-.17-.06-.18-.23-.01-.1.01-.27.02-.08.18-.09l.73-.07a.5.5 0 0 0 .29-.88q-1.81-1.65-1.09-3.19.28-.59-.34-.79-.77-.25-1.32-2.37-.5-1.93-2.07-1.28a.45.45 0 0 1-.55-.18q-.09-.15-.11-.3-.19-1.36-1.03-.55l-1.72 1.68q-.57.55.21.48.49-.04.6-.34a.3.3 0 0 1 .43-.16q1.21.65-.86 2.78a1.54.89-47.7 0 1-1.59.51q-.12-.08-.6-.15-.84-.12-.45.75l.53 1.15q.2.44-.13.88-.29.38-.75.59-.64.3-.68-.42l-.1-2.5q-.03-.51-.51-.66-.25-.08-.59.01-.44.1-.71.68-.44.92-1.31 1.3a.95.95 0 0 0-.56.75l-.24 1.83M147.96 153.68q-.52-.23-.76-.01M146.23 153.7q.7-1.47 2.24-1.88a.35.35 0 0 0 .13-.62q-1.93-1.47-1.22-3.11.23-.53.03-1.07-.55-1.52-.05-3.01.16-.46.02-.96-.17-.6-.82-.77-.59-.16-.46.44.14.67-.24.93-.51.34-.57-.27l-.42-5.07q-.02-.15-.3-.16h-.28q-.18-.01-.19.28l-.03 2.25q-.01.57-.55.49-.82-.13-1.11.12-.46.39.03.73 1.09.75 1.36 1.36.25.57-.36.61l-1.83.12q-.52.03-.59.53-.08.61-.4.95-.57.59-.58-.23 0-.69-.28-.94-.46-.41-.6.27-.08.38-.05 1.38.01.24-.07.38-.13.21-.25.28-.48.3-.7-.22l-1.36-3.2a.21.21 0 0 0-.36-.03l-3.03 5.07q-.38.63.3.33.12-.06.22-.13.58-.44.95.13l1.65 2.54q.24.36-.01.81-.5.87-1.4 1.35M128.15 152.93q1.62-3.02-1.87-6.36-.62-.6.27-.58l1.8.05a.35.29-14 0 0 .34-.46q-1.91-2.65-.87-5.36.48-1.26-.78-.85-.04.01-.3.2a.51.41 51.4 0 1-.62-.13q-.23-.28.2-1.13 1.09-2.12 1.33-2.51a.47.44-63.3 0 0-.2-.68l-1.7-.66q-.67-.26-.77.47-.05.45-.33.7-.55.5-.53-.24.08-3.23-1.26-5.97a.38.37 44.7 0 0-.68-.01l-1.32 2.91q-.25.55-.79.31l-.39-.18q-.75-.35-.7.4t.99 3.81a.15.15 0 0 1-.08.18q-1.69.94-1.96 2.75-.06.46-.48.25-.45-.23-.46-.94a.56.56 0 0 0-.78-.51q-.43.17-.73.59a.88.84-49.7 0 0 .07 1.09l1.24 1.3q.33.34-.08.58-.67.39-1.89-.04a1.24 1.24 0 0 1-.71-.65q-1-2.17-2.26-2.88-1.13-.64-.67.71l.44 1.3q.19.58-.22.9l-2.49 1.89q-.25.19-.34.84l-.66 5.03M98.76 145.81q.05-.34-.26-.4-.31-.05-.71.15M97 145.26l-.61-1.56q-.19-.5.32-.64 1.31-.38 2.13-1.18a.52.5 37.9 0 0-.12-.8l-2.27-1.36q-.38-.23-.51-.75-.05-.25-.2-.5-.4-.68-.61.09-.37 1.39-1.28 2.1-.7.56-.45-.3 1.05-3.51 1.5-8.57a.71.71 0 0 0-.36-.68q-.39-.22-.9 0-.74.32-.99.77-.67 1.25-1.7.69a.92.92 0 0 0-.97.05q-.54.38-.68.61-.4.62.35.69l.74.06q.61.05.34.62l-.94 1.99q-.18.39-.57.17-.15-.09-.46-1.35a.35.33-24.4 0 0-.52-.18l-.55.37q-.56.38-.62-.26c-.25-2.55.32-5.48-1.35-8.04q-.12-.19-.39-.17-.45.04-.45.49.01.95-.45 1.06a.32.32 0 0 1-.38-.32q.04-1.76-.09-2.57-.14-.87-1.04-.8a.79.75 9.9 0 0-.64.42l-.93 1.93q-.27.57.37.59.61.02.95.31.44.36.19.91l-1.38 3.07q-.16.36-.01.74l.16.4q.19.5-.34.59l-1.64.28a.78.75-11 0 0-.65.9q.47 2.07.48 3.86.01.39.84.84.53.29.61-.31.13-1.03.4-1.32.43-.45.91-.24 1.25.56 1.72 1.67.2.46-.12.85-.92 1.13-.9 2.62" vector-effect="non-scaling-stroke"/><path d="M255.31 75.74q-.24.34-.17.66a.49.49 0 0 0 .79.29l.29-.24M154.98 153.93q.01-.55-.48-.58-.39-.02-.72.33M127.04 152.91q-.17-.35-.54-.37-.42-.02-.54.35M113.74 150.96q.2-1.47 1.07-2.53a.34.34 0 0 0-.32-.55l-.81.15q-.45.09-.53.49l-.21 1.02q-.27 1.27-.99.22-.69-.99-1.02-1.77-.99-2.29-1.86-.13-.12.3-.38 1.45M234.01 74.52q-.03.51.5.26a.3.3 0 0 0 .05-.51q-.52-.37-.55.25M231.31 76.23q-.13.16-.14.32a.32.32 0 0 0 .36.34q.43-.06.2-.6-.16-.37-.42-.06M240.27 76.34q-.22.73-.22.74.2 1.41.94.17.35-.59-.34-1.05a.25.25 0 0 0-.38.14M182.32 78.33l-1.1.72a.42.4 36.7 0 0 .13.72q1.11.37 1.44-.21.18-.32.19-.87.02-.8-.66-.36M217.01 80.4q0 .31.2.42.33.18.54-.13.33-.49-.4-.59a.3.3 0 0 0-.34.3M180.96 81.44a.44.44 0 0 0-.44-.44.44.44 0 0 0-.44.44.44.44 0 0 0 .44.44.44.44 0 0 0 .44-.44M184.94 94.6a.42.42 0 0 0-.42-.42.42.42 0 0 0-.42.42.42.42 0 0 0 .42.42.42.42 0 0 0 .42-.42M175.26 95.3q-.48.59.29.59.47 0 .25-.51-.21-.48-.54-.08M162.21 96.16a.3.3 0 0 0-.1.51q.39.35.59-.02a.35.35 0 0 0-.2-.49q-.15-.05-.29 0M172.43 96.14q-.32.16-.17.61a.32.32 0 0 0 .5.15q.28-.23.05-.65a.28.28 0 0 0-.38-.11M230.51 102.36q-.75-1.04.84-1.4.5-.12.34-.61-.58-1.81-1.16-2.29-.36-.3-.84-.19-.65.15-.32.75l.24.44q.23.41-.11.78l-1.15 1.23a.46.44 28 0 0 .24.74q.74.19 1.81.96a.26.15 75.5 0 0 .11-.41M171.66 99.8q1.01-.84 1.14-1.12.39-.82-.36-.45-.9.45-1.17 1.3a.25.25 0 0 0 .39.27M248.44 98.46q-.09.46.13.51.29.07.36-.22.08-.28-.11-.43a.24.24 0 0 0-.38.14M180.27 100.82q.16.22.81.12a.28.28 0 0 0 .12-.51q-.5-.35-.78-.24-.48.2-.15.63M218.26 101.23q-.36.65-.28 1.03.25 1.31.96.14.34-.56.05-1.15-.35-.7-.73-.02M248.48 103.01q-.27.42-.25.5a.34.28 47.9 0 0 .59.08l.09-.39a.24.24 0 0 0-.43-.19M188.03 104.2q.02.49.27.59.29.12.38-.18.13-.45-.28-.65a.26.26 0 0 0-.37.24M258.47 107.42q.2-.91-.61-.46-1.63.92-.75 3.43.45 1.29.74-.05l.62-2.92M253.24 109.802a1.26.39 134.3 0 0 1.16-.63 1.26.39 134.3 0 0 .6-1.174 1.26.39 134.3 0 0-1.16.63 1.26.39 134.3 0 0-.6 1.174M198.14 111.45a.29.29 0 0 0 .03.33q.3.37.54 0 .18-.29-.02-.56-.22-.32-.55.23M193.72 115.48q-.53.96-.54 1.09-.08.67.55.37.25-.13.75-1.04.5-.9.48-1.19-.09-.69-.61-.26-.1.07-.63 1.03M264.45 114.91q-.47.33-.29.63.48.77.76-.14.04-.12-.08-.38a.26.26 0 0 0-.39-.11M272.03 116.15a.41.41 0 0 0-.11.45q.32.86.82.04a.38.38 0 0 0-.12-.52q-.33-.2-.59.03M199.1 126.54q-.18.41-.03.9a.46.46 0 0 0 .77.18q.49-.52-.11-1.18a.38.38 0 0 0-.63.1M282.35 128.21q-.65.38-.23.75a.33.33 0 0 0 .44-.01q.55-.53.07-.75a.31.31 0 0 0-.28.01M196.36 136.16q-.69.39-.31.79a.3.3 0 0 0 .38.05q.66-.43.28-.8a.29.29 0 0 0-.35-.04M287.864 139.69a.46.35 25.8 0 0-.262-.515.46.35 25.8 0 0-.566.115.46.35 25.8 0 0 .262.515.46.35 25.8 0 0 .566-.115M192.92 141.46a.35.35 0 0 0-.35-.35.35.35 0 0 0-.35.35.35.35 0 0 0 .35.35.35.35 0 0 0 .35-.35M183.18 157.38a.28.28 0 0 0 .19.45q.45.05.47-.44.02-.31-.29-.28-.18.02-.37.27M186.16 159.38q.42-.6.5-.8.26-.72-.38-.34l-1.65.97q-.5.29-.17.71l.54.7q.38.49.74.02.17-.23.18-.52.01-.41.24-.74M93.51 132.06a.39.38-84.1 0 0-.22.18q-.36.65.28.51a.39.39 0 0 0 .25-.58q-.11-.17-.31-.11M121.06 136.36q-.02.36.22.56a.26.26 0 0 0 .42-.13q.19-.67-.36-.69a.27.27 0 0 0-.28.26M119.12 138.14a.38.38 0 0 0 0 .67q.24.13.6-.11a.35.35 0 0 0 .04-.55q-.25-.22-.64-.01M126.1 148.43q-.12.32.47.4a.3.3 0 0 0 .32-.4q-.11-.28-.45-.26-.26.03-.34.26" vector-effect="non-scaling-stroke"/></g><path d="M216.56 66.55q-.82.49-1.92.49-.16 0-.27.08-.13.1-.16.26-.05.23.31.38l1.93.84q.37.17.54-.42.21-.69.07-1.46l.99.54q-.55 2.2 1.4 3.75.47.37.15.87-.44.71.08 1.52a.34.34 0 0 1-.34.52q-.76-.11-1.2-.06-.47.06-1.01 1-1.59 2.74-2.71 5.2-.8 1.73.58.41.71-.69 1.57-1.16a1.73 1.46-18.9 0 1 2.49.96q.09.93 2.07.76a.66.66 0 0 1 .72.64q.06 3.63-2.09 4.98a1.46 1.46 0 0 0-.64.88q-.26 1.01-.77 1.44-.63.53-.43-.27.17-.69 0-1.22a.31.31 0 0 0-.58-.02q-.52 1.38-1.92 1.79a.43.43 0 0 0-.2.71q.58.62 1.28.76a.53.39 25.6 0 0 .39-.07l.46-.37q.51-.41.56.28.19 3.04-.21 4.13a1.3 1.3 0 0 1-.62.71q-1.59.83-2.03 1.12-2.35 1.57.41.87.24-.06 2.14 1.13.19.12.89 1.48.76 1.47 3.01.89a.47.47 0 0 0 .21-.8q-.96-.92-1.99-1.23-.62-.18-.2-.67.47-.56 0-1.06a.68.68 0 0 1-.04-.89q.41-.52.73-1.63.15-.53.66-.22l.37.22q.55.33.72-.24.3-1.01-.55-2.5-.44-.76.44-.75 1.86.03 4.33-.55a2.3 2.3 0 0 1 2.64 1.34q.57 1.34.62 3.53.01.49.32.86c1.13 1.37 1.42 1.46 3.48 1.97q1.47.36 1.8 2.13a.54.54 0 0 0 .51.44l.28.01q.12 0 .11-.12-.1-2.35.94-4.78.21-.48.09-1.41-.08-.62-.67-.31-.33.18-.62 1.27a.66.66 0 0 1-.59.49q-.25.02-.41-.07-.37-.19-.52-.67-.34-1.12-1.21-1.4-1.01-.31-.77-1.34l1.26-5.45a.95.92-70.6 0 1 1.31-.65l3.57 1.76q.2.1.36-.11l.24-.3a.35.31 28.8 0 0-.18-.5l-1.09-.42q-.53-.21-.65-.72-.29-1.2.68-2.6a.25.25 0 0 0-.34-.36q-.5.29-1.13 1.16-.77 1.06-1.06-.13l-.62-2.53q-.15-.6.27-.94l.81-.66q.44-.36.07-.84-.54-.69-.99-.97a.43.43 0 0 0-.65.29q-.15.88-.36 1.07-.64.58-.67-.1l-.05-1.02q-.03-.69-.59-.3-.4.27-.64 1.4-.11.5-.62.49-.31 0-.46-.02-.57-.07-.3-.63l.16-.3q.25-.49.04-.98-.91-2.11 1.39-3.53.69-.42 3.96-2.04.34-.17.63-.65.74-1.22-.28-1 .78-.83 2.21-.26-.4.15-.38.5.04.59.62.76l.85.26q.42.13.15.54l-.37.54q-.31.48.18.93l2.72 2.52q.42.4.28-.29l-.51-2.55a.77.74-81.9 0 1 1.08-.85q3.45 1.92 7.21 1.99.57.01.35-.51l-1.64-3.9 4.95 4.01q-1.35.72-.86 2.67.14.55.71.59c1.49.12 3.18.69 3.12 2.41q-.03.58-.62.61l-1.6.08q-.49.03-.69.48-.1.25-.1.55a.85.84-79.8 0 0 .55.8l.72.27a1.55 1.53-57 0 1 .53 2.54q-1.08 1.06-1.9-.31-.15-.25-.39-.08-.15.1-.18.19a.36.26-70 0 0 .13.46l.5.12q.34.08.1.4l-.71.92q-.45.6.35.71l.77.12a.4.39 17.5 0 1 .31.56l-.86 1.65q-.31.58-.82.15-.19-.16-.42-.2-.87-.12-.48.71l1.49 3.25a.75.65-38.3 0 1-.14.76q-1.03 1.16-1.69 1.57-.62.39-.66-.34-.05-.89-.47-1.12-.62-.33-.65.42l-.13 2.73q-.02.43-.36.77-.98.99-.56 2.87.06.27.3.14l.52-.29q.11-.06.13-.18l.28-1.12a.36.36 0 0 1 .65-.12q.24.35.53.33.42-.02.52-.43l.13-.49q.17-.7.78-.39l1.67.84q.46.23.48.73l.26 5.56a.73.72-19.9 0 0 1.16.53l1.19-.88q.38-.28.11-.79-.93-1.72.85-3.97.19-.24.46-.04l.3.21a.5.42-81.1 0 0 .65-.56q-.08-.4-.5-1.19-.32-.59.27-.72l.93-.2a.36.35 52 0 0 .08-.66l-1.83-.9a.84.69 18.6 0 1-.47-.76q.22-1.68 1.94-.99a.81.69 28.9 0 0 .88-.18l.45-.56q1.17-1.46 1.23.46l.09 3.05q.01.21.25.36.18.1.4.06.3-.05.28-.36-.03-.44-.01-.49.6-1.56 1.03.06.35 1.34 2.06 1.09.49-.08.72-.48l.72-1.29q.32-.57.9-.3.55.26.57 1.17.06 2.78 1.6 4.04.51.41-.11.61-.2.06-.49.05-.71-.03-.48.65.49 1.42-.45 2.18a.94.93-25.5 0 0-.32.92c.5 2.36-2.41 5.29-4.09 6.53q-1.4 1.03.33.89.51-.04 1.26-.72.45-.41.71.13 1.54 3.11.68 5.68a.36.36 0 0 0 .65.31q.33-.51 1.32-.29a.31.31 0 0 1 .16.52q-.46.49-.51.57-.59.92.32.48.74-.35 1.16-1.05.3-.48.02-.7l-1.09-.86q-.62-.5-.13-.99l1.84-1.85q1.06-1.06-.47-1.15-.16-.01-.36-.23-.32-.35-.06-.75.31-.48.87-.69.52-.2 1.01.13l3.42 2.29q.39.26.81.03.94-.53 1.69-1.67.17-.25.33-.07l.25.27a.67.44 43.4 0 1 .16.68q-1.23 1.86.41 2.68a.53.53 0 0 1 .28.61q-.09.34-.37.34-.36 0-.57.28-.21.3-.07 1.01.11.5-.15.95-1.22 2.07-.77 4.08a.72.71 70.3 0 1-.37.79l-1.29.66q-2.12 1.07.47 1.71.39.1 1.13 1.07a.75.75 0 0 1 .15.57q-.16 1-.7 1.75a.73.7 43.6 0 0 .04.86q.24.29 1.18.67a.83.79 8.9 0 1 .52.67l.11 1.26q.16 1.7 1.04.2.3-.53.58-1.58.13-.48-.06-.94-1.26-3 1.1-4.83.16-.12.21-.3.05-.2-.01-.33a.55.49 76.5 0 0-.46-.33q-.74.01-.86-.04-.66-.3.2-.75l1.56-.81q.57-.29.63.41l.03.45q.05.68.61.38.89-.46 1.69-.01.47.27.62-.26.18-.65.4-.92a.88.84-63.2 0 1 .87-.31q1.49.36 1.75 1.72a1.3 1.3 0 0 1-.16.92q-.42.71-.35.95.1.34.44.34.05 0 .35-.08a.46.46 0 0 1 .57.34q.08.39-.32.6-.5.27-.11.83l.32.45q.37.53-.16.71l-.53.17q-.68.23-.33.87.32.59 1.05.95a.6.6 0 0 1 .07 1.04q-1.5 1-1.67 2.44-.06.51-.58.49-.22 0-.35-.19-.79-1.14-1.08.2-.12.53.21.91.18.21.75.21.88.01 1.76.23-3.77 9.3-5.43 19.14-.54 3.23-1.41 4.34c-2.36 3.02-7.72 2.71-10.66 1.39-3.27-1.46-5.35-2.92-8.58-2.02q-.69.19-3.15 1.64-6.06 3.57-10.72 3.4-2.35-.08-8.54-1.44-3.61-.8-8.22-2.72-3.96-1.65-8.92-2.37-3.62-.53-9.11.27-9.28 1.36-16.5 2.35-8.05 1.1-19.54-1.92 1.37-1.79-.07-3.04-.37-.32-.34-.81.17-2.02 2.08-2.63.49-.16.37-.66-.26-1.04-1.17-2.59-.62-1.07-.75.2l-.18 1.81q-.06.62-.53.26-1.03-.8-1.29-1.9-.38-1.62-1.06-.31-.77 1.51-.49 2.6.48 1.9-.62.38-1.92-2.66.43-4.9.3-.28.15-.66-.22-.58.04-1.1.24-.46.05-.86l-.21-.46a.49.46-9.6 0 1 .49-.65q1.3.09 2.2.58 1.62.91.73-.82-.99-1.94-.01-4.8.8-2.33-1.02-3.1-.54-.22-.17-.67.89-1.05-.08-2.43a.34.2 79.6 0 1 .19-.52l.83.75q.34.3.76.17.26-.09.46-.4.18-.26.21-.72.11-1.28.26-1.54.33-.55.75-.09l1.13 1.21q.17.19.29.16l.38-.07q.27-.05.27-.21.01-.92.3-1.05.51-.25.58.32l.06.53q.08.64.65.36 1.19-.59 1.78-.43a.71.68-86.6 0 1 .5.59l.37 2.73q.01.14.1.16l.36.11q.29.08.28-.17-.08-1.53.35-2.44.34-.69.8-.92.54-.26.63.34.35 2.22 1.11 2.81 2.25 1.75 2.11 4.1-.04.68.54.29l.77-.52q1.21-.82 1.61.6.45 1.61 1.59 2.08.56.23.32-.33-1.55-3.6-4.37-7.6-.18-.25-.5-.22-.05 0-.33-.01-.52-.03.08-.73.34-.38.32-.8-.11-2.74.09-5.08a1.05 1.02-16.5 0 1 .42-.74l2.88-2.14a.83.77 39.7 0 1 .85-.05q2.3 1.22 5.03.74 1.42-.25.09-.83l-1.41-.62q-.39-.17-1.03.02-.87.26-1.73-1.16-1.74-2.84-.66-4.42.3-.43.01-.86-.59-.92.99-2.25.24-.21.18-.52l-.05-.26q-.06-.31-.36-.21-1.55.51-2.81 2.26-.31.44-.01.89.74 1.12.12 1.74a.7.7 0 0 1-.42.2q-.7.08-1.07.42a.85.77 51.3 0 0-.07 1.06l.63.88q.45.63-.3.61l-2.6-.06q-.65-.02-.68-.62l-.12-2.68a.45.42-19.9 0 0-.7-.3l-.61.43q-.48.33-.25.99l.22.63q.18.51-.27.78-2.03 1.24-.64 3.35.16.25-.09.41l-.25.17a.56.56 0 0 1-.76-.16l-2.27-3.32q-.32-.47-.08-.98.58-1.25.61-1.83.02-.51-.35-.86-1.32-1.23-1.79-2.32-.24-.57-.72-.19-.92.71-1.58.58-.79-.16-.18-.7l1.27-1.1a.64.6 58.4 0 0 .15-.71l-.31-.73q-.21-.5-.05-.94.83-2.32.91-4.03.03-.76.65-.32.99.69 1.56.53.52-.14.23-.6-.93-1.5-.67-2.44.45-1.68.94-.07.01.03.12.76.04.23.27.21l.27-.01q.31-.02.28-.34-.09-1.03.65-1.37.44-.2.45-.69.02-.88.74-1.8a.34.28 25.4 0 0-.21-.47q-.15-.04-.52.4-.3.35-.72.16-.25-.12-.43-.39-.15-.23-.41-.23-.4-.01-.54.45a.52.51 49.6 0 0-.02.23q.13.88-.15 1.06-.38.26-.55-.17c-.95-2.45-1.9-3.78.55-5.87q.05-.04.02-.11l-.12-.27a.22.22 0 0 0-.32-.1q-1.86 1.22-2.84-.34-.17-.27-.47-1.19-.45-1.39-.97-.04l-.61 1.57q-.18.49.35.66.94.29 1.64 1 .38.38.16.8l-1.38 2.7q-.24.47.01 1l.41.85q.23.49-.2.84-.99.8-1.83.72-.83-.08-.27-.68l.5-.52q.26-.28-.07-.43-.24-.1-.39-.08-.32.03-.44.33-.33.78-.68 1.04-.41.3-.86.06c-3.52-1.81-2.19-4.24-1.53-7.1q.07-.3-.22-.32l-.25-.02q-.37-.03-.38.25-.06 1.64-1.09 1.86-1.53.33-.6 1.53l.35.44a.53.52 57.5 0 1-.17.79q-1.22.61-1.54 2.48a.37.37 0 0 1-.61.21q-.26-.24-.33-.95-.06-.69-.67-.37-.89.47-1.83-.13-.35-.22-.4.2l-.04.27q0 .04.03.06 2.89 1.62.95 3.87-.34.41-.1.88.29.56 1.07 1.07.43.29.85-.02.22-.17.57-.24.84-.16.47.67l-1.05 2.32q-.24.53-.74.21-.8-.52-2.19.34-.17.1-.36.02l-.26-.15q-.25-.14-.05-.34.56-.56.74-.97.18-.42-.07-.79-.34-.48-.9-.14-.45.27-.89 0-1.03-.63-2.37-.59-.77.02-.43-.66l2.3-4.65a.33.29-8.8 0 0-.5-.32q-.14.11-.22.22-.33.46-.65.18l-.6-.54q-.53-.47-.23-.92 1.39-2.14-.34-3.69-.45-.41-.96-.15l-.38.2q-.44.22-.66-.21l-.83-1.62q-.27-.54.16-.85l4.96-3.56a1.42 1.32-64.3 0 1 .64-.25l1.38-.16a.45.36 69.2 0 0 .21-.65c-.26-.45-.54-.84-.59-1.24q-.11-.89.77-1.54.12-.09.06-.22-.08-.15-.24-.2-.27-.08-.43.15-.68.98-1.56 1.47-.72.4-.61-.42.29-2.21-.6-3.53a.45.33 66.7 0 1 .15-.66l1.68-.13q.77-.05.34-.63-.33-.43-.44-.82-.16-.52.13-.99 1.27-2.03.24-3.55-.29-.43-.02-.88.61-.99-.96-1.95a.31.3-69.1 0 0-.46.21l-.19 1.05q-.12.65-.55.14-1.71-2.01-.35-3.48c2.58.81 3.79 2.43 7.13 1.53q.49-.13.75-.55l1.9-3.08q.05.96.38 1.49.29.49.68.08.67-.69 1.59-.67a.39.39 0 0 1 .29.64q-1.06 1.27-.76 3.13a.42.42 0 0 0 .69.24l1.53-1.4a.83.76 52.3 0 1 1.19.21q.71 1.07-.05 1.53a.39.36 36.3 0 0 .13.67l1.02.31a.35.34-84.7 0 0 .43-.38q-.22-2.55 1.32-5.27.26-.46.78-.52.54-.07.86-.46.26-.33.16-.74l-.08-.35q-.13-.59-.67-.21l-.53.38q-.67.48-.69-.34l-.06-1.59a.9.9 0 0 0-1.51-.64l-.72.67q-.55.5-.67-.24l-.31-1.82c3.41-.85 5.85 1.09 8.82 2.7a1.12 1.12 0 0 0 .92.06q2.18-.79 4.64-1.95 3.57-1.68 4.69-1.9 4.06-.8 8.84 0 3.45.58 7.64-.5.86-.23 2.24.45m17.45 7.97q-.03.51.5.26a.3.3 0 0 0 .05-.51q-.52-.37-.55.25m-2.7 1.71q-.13.16-.14.32a.32.32 0 0 0 .36.34q.43-.06.2-.6-.16-.37-.42-.06m8.96.11q-.22.73-.22.74.2 1.41.94.17.35-.59-.34-1.05a.25.25 0 0 0-.38.14m-57.95 1.99-1.1.72a.42.4 36.7 0 0 .13.72q1.11.37 1.44-.21.18-.32.19-.87.02-.8-.66-.36m34.69 2.07q0 .31.2.42.33.18.54-.13.33-.49-.4-.59a.3.3 0 0 0-.34.3m-36.05 1.04a.44.44 0 0 0-.44-.44.44.44 0 0 0-.44.44.44.44 0 0 0 .44.44.44.44 0 0 0 .44-.44m3.98 13.16a.42.42 0 0 0-.42-.42.42.42 0 0 0-.42.42.42.42 0 0 0 .42.42.42.42 0 0 0 .42-.42m-9.68.7q-.48.59.29.59.47 0 .25-.51-.21-.48-.54-.08m-13.05.86a.3.3 0 0 0-.1.51q.39.35.59-.02a.35.35 0 0 0-.2-.49q-.15-.05-.29 0m10.22-.02q-.32.16-.17.61a.32.32 0 0 0 .5.15q.28-.23.05-.65a.28.28 0 0 0-.38-.11m58.08 6.22q-.75-1.04.84-1.4.5-.12.34-.61-.58-1.81-1.16-2.29-.36-.3-.84-.19-.65.15-.32.75l.24.44q.23.41-.11.78l-1.15 1.23a.46.44 28 0 0 .24.74q.74.19 1.81.96a.26.15 75.5 0 0 .11-.41m-58.85-2.56q1.01-.84 1.14-1.12.39-.82-.36-.45-.9.45-1.17 1.3a.25.25 0 0 0 .39.27m76.78-1.34q-.09.46.13.51.29.07.36-.22.08-.28-.11-.43a.24.24 0 0 0-.38.14m-68.17 2.36q.16.22.81.12a.28.28 0 0 0 .12-.51q-.5-.35-.78-.24-.48.2-.15.63m37.99.41q-.36.65-.28 1.03.25 1.31.96.14.34-.56.05-1.15-.35-.7-.73-.02m30.22 1.78q-.27.42-.25.5a.34.28 47.9 0 0 .59.08l.09-.39a.24.24 0 0 0-.43-.19m-60.45 1.19q.02.49.27.59.29.12.38-.18.13-.45-.28-.65a.26.26 0 0 0-.37.24m70.44 3.22q.2-.91-.61-.46-1.63.92-.75 3.43.45 1.29.74-.05zm-5.23 2.382a1.26.39 134.3 0 0 1.16-.63 1.26.39 134.3 0 0 .6-1.174 1.26.39 134.3 0 0-1.16.63 1.26.39 134.3 0 0-.6 1.174m-55.1 1.648a.29.29 0 0 0 .03.33q.3.37.54 0 .18-.29-.02-.56-.22-.32-.55.23m-4.42 4.03q-.53.96-.54 1.09-.08.67.55.37.25-.13.75-1.04.5-.9.48-1.19-.09-.69-.61-.26-.1.07-.63 1.03m70.73-.57q-.47.33-.29.63.48.77.76-.14.04-.12-.08-.38a.26.26 0 0 0-.39-.11m7.58 1.24a.41.41 0 0 0-.11.45q.32.86.82.04a.38.38 0 0 0-.12-.52q-.33-.2-.59.03m-72.93 10.39q-.18.41-.03.9a.46.46 0 0 0 .77.18q.49-.52-.11-1.18a.38.38 0 0 0-.63.1m83.25 1.67q-.65.38-.23.75a.33.33 0 0 0 .44-.01q.55-.53.07-.75a.31.31 0 0 0-.28.01m-85.99 7.95q-.69.39-.31.79a.3.3 0 0 0 .38.05q.66-.43.28-.8a.29.29 0 0 0-.35-.04m91.504 3.53a.46.35 25.8 0 0-.262-.515.46.35 25.8 0 0-.566.115.46.35 25.8 0 0 .262.515.46.35 25.8 0 0 .566-.115m-94.944 1.77a.35.35 0 0 0-.35-.35.35.35 0 0 0-.35.35.35.35 0 0 0 .35.35.35.35 0 0 0 .35-.35m-9.74 15.92a.28.28 0 0 0 .19.45q.45.05.47-.44.02-.31-.29-.28-.18.02-.37.27m2.98 2q.42-.6.5-.8.26-.72-.38-.34l-1.65.97q-.5.29-.17.71l.54.7q.38.49.74.02.17-.23.18-.52.01-.41.24-.74"/><path fill="#907349" d="M217.06 66.72q.14.77-.07 1.46-.17.59-.54.42l-1.93-.84q-.36-.15-.31-.38.03-.16.16-.26.11-.08.27-.08 1.1 0 1.92-.49.3-.01.5.17M236.25 70.93q1.02-.22.28 1-.29.48-.63.65-3.27 1.62-3.96 2.04-2.3 1.42-1.39 3.53.21.49-.04.98l-.16.3q-.27.56.3.63.15.02.46.02.51.01.62-.49.24-1.13.64-1.4.56-.39.59.3l.05 1.02q.03.68.67.1.21-.19.36-1.07a.43.43 0 0 1 .65-.29q.45.28.99.97.37.48-.07.84l-.81.66q-.42.34-.27.94l.62 2.53q.29 1.19 1.06.13.63-.87 1.13-1.16a.25.25 0 0 1 .34.36q-.97 1.4-.68 2.6.12.51.65.72l1.09.42a.35.31 28.8 0 1 .18.5l-.24.3q-.16.21-.36.11l-3.57-1.76a.95.92-70.6 0 0-1.31.65l-1.26 5.45q-.24 1.03.77 1.34.87.28 1.21 1.4.15.48.52.67.16.09.41.07a.66.66 0 0 0 .59-.49q.29-1.09.62-1.27.59-.31.67.31.12.93-.09 1.41-1.04 2.43-.94 4.78.01.12-.11.12l-.28-.01a.54.54 0 0 1-.51-.44q-.33-1.77-1.8-2.13c-2.06-.51-2.35-.6-3.48-1.97q-.31-.37-.32-.86-.05-2.19-.62-3.53a2.3 2.3 0 0 0-2.64-1.34q-2.47.58-4.33.55-.88-.01-.44.75.85 1.49.55 2.5-.17.57-.72.24l-.37-.22q-.51-.31-.66.22-.32 1.11-.73 1.63a.68.68 0 0 0 .04.89q.47.5 0 1.06-.42.49.2.67 1.03.31 1.99 1.23a.47.47 0 0 1-.21.8q-2.25.58-3.01-.89-.7-1.36-.89-1.48-1.9-1.19-2.14-1.13-2.76.7-.41-.87.44-.29 2.03-1.12a1.3 1.3 0 0 0 .62-.71q.4-1.09.21-4.13-.05-.69-.56-.28l-.46.37a.53.39 25.6 0 1-.39.07q-.7-.14-1.28-.76a.43.43 0 0 1 .2-.71q1.4-.41 1.92-1.79a.31.31 0 0 1 .58.02q.17.53 0 1.22-.2.8.43.27.51-.43.77-1.44a1.46 1.46 0 0 1 .64-.88q2.15-1.35 2.09-4.98a.66.66 0 0 0-.72-.64q-1.98.17-2.07-.76a1.73 1.46-18.9 0 0-2.49-.96q-.86.47-1.57 1.16-1.38 1.32-.58-.41 1.12-2.46 2.71-5.2.54-.94 1.01-1 .44-.05 1.2.06a.34.34 0 0 0 .34-.52q-.52-.81-.08-1.52.32-.5-.15-.87-1.95-1.55-1.4-3.75 2.51.74 5.12 1.11 2.46.34 5.04 1.29 4.25 1.57 8.04 1.27M178.77 67.69l.31 1.82q.12.74.67.24l.72-.67a.9.9 0 0 1 1.51.64l.06 1.59q.02.82.69.34l.53-.38q.54-.38.67.21l.08.35q.1.41-.16.74-.32.39-.86.46-.52.06-.78.52-1.54 2.72-1.32 5.27a.35.34-84.7 0 1-.43.38l-1.02-.31a.39.36 36.3 0 1-.13-.67q.76-.46.05-1.53a.83.76 52.3 0 0-1.19-.21l-1.53 1.4a.42.42 0 0 1-.69-.24q-.3-1.86.76-3.13a.39.39 0 0 0-.29-.64q-.92-.02-1.59.67-.39.41-.68-.08-.33-.53-.38-1.49c1.4-2.67 2.18-4.62 5-5.28M249 70.61l1.64 3.9q.22.52-.35.51-3.76-.07-7.21-1.99a.77.74-81.9 0 0-1.08.85l.51 2.55q.14.69-.28.29l-2.72-2.52q-.49-.45-.18-.93l.37-.54q.27-.41-.15-.54l-.85-.26q-.58-.17-.62-.76-.02-.35.38-.5.84.27 1.67.41.77.13 1.66-.21 4.56-1.76 7.21-.26M163.99 75.07q-1.36 1.47.35 3.48.43.51.55-.14l.19-1.05a.31.3-69.1 0 1 .46-.21q1.57.96.96 1.95-.27.45.02.88 1.03 1.52-.24 3.55-.29.47-.13.99.11.39.44.82.43.58-.34.63l-1.68.13a.45.33 66.7 0 0-.15.66q.89 1.32.6 3.53-.11.82.61.42.88-.49 1.56-1.47.16-.23.43-.15.16.05.24.2.06.13-.06.22-.88.65-.77 1.54c.05.4.33.79.59 1.24a.45.36 69.2 0 1-.21.65l-1.38.16a1.42 1.32-64.3 0 0-.64.25l-4.96 3.56q-.43.31-.16.85l.83 1.62q.22.43.66.21l.38-.2q.51-.26.96.15 1.73 1.55.34 3.69-.3.45.23.92l.6.54q.32.28.65-.18.08-.11.22-.22a.33.29-8.8 0 1 .5.32l-2.3 4.65q-.34.68.43.66 1.34-.04 2.37.59.44.27.89 0 .56-.34.9.14.25.37.07.79-.18.41-.74.97-.2.2.05.34l.26.15q.19.08.36-.02 1.39-.86 2.19-.34.5.32.74-.21l1.05-2.32q.37-.83-.47-.67-.35.07-.57.24-.42.31-.85.02-.78-.51-1.07-1.07-.24-.47.1-.88 1.94-2.25-.95-3.87-.03-.02-.03-.06l.04-.27q.05-.42.4-.2.94.6 1.83.13.61-.32.67.37.07.71.33.95a.37.37 0 0 0 .61-.21q.32-1.87 1.54-2.48a.53.52 57.5 0 0 .17-.79l-.35-.44q-.93-1.2.6-1.53 1.03-.22 1.09-1.86.01-.28.38-.25l.25.02q.29.02.22.32c-.66 2.86-1.99 5.29 1.53 7.1q.45.24.86-.06.35-.26.68-1.04.12-.3.44-.33.15-.02.39.08.33.15.07.43l-.5.52q-.56.6.27.68.84.08 1.83-.72.43-.35.2-.84l-.41-.85q-.25-.53-.01-1l1.38-2.7q.22-.42-.16-.8-.7-.71-1.64-1-.53-.17-.35-.66l.61-1.57q.52-1.35.97.04.3.92.47 1.19.98 1.56 2.84.34a.22.22 0 0 1 .32.1l.12.27q.03.07-.02.11c-2.45 2.09-1.5 3.42-.55 5.87q.17.43.55.17.28-.18.15-1.06a.52.51 49.6 0 1 .02-.23q.14-.46.54-.45.26 0 .41.23.18.27.43.39.42.19.72-.16.37-.44.52-.4a.34.28 25.4 0 1 .21.47q-.72.92-.74 1.8-.01.49-.45.69-.74.34-.65 1.37.03.32-.28.34l-.27.01q-.23.02-.27-.21-.11-.73-.12-.76-.49-1.61-.94.07-.26.94.67 2.44.29.46-.23.6-.57.16-1.56-.53-.62-.44-.65.32-.08 1.71-.91 4.03-.16.44.05.94l.31.73a.64.6 58.4 0 1-.15.71l-1.27 1.1q-.61.54.18.7.66.13 1.58-.58.48-.38.72.19.47 1.09 1.79 2.32.37.35.35.86-.03.58-.61 1.83-.24.51.08.98l2.27 3.32a.56.56 0 0 0 .76.16l.25-.17q.25-.16.09-.41-1.39-2.11.64-3.35.45-.27.27-.78l-.22-.63q-.23-.66.25-.99l.61-.43a.45.42-19.9 0 1 .7.3l.12 2.68q.03.6.68.62l2.6.06q.75.02.3-.61l-.63-.88a.85.77 51.3 0 1 .07-1.06q.37-.34 1.07-.42a.7.7 0 0 0 .42-.2q.62-.62-.12-1.74-.3-.45.01-.89 1.26-1.75 2.81-2.26.3-.1.36.21l.05.26q.06.31-.18.52-1.58 1.33-.99 2.25.29.43-.01.86-1.08 1.58.66 4.42.86 1.42 1.73 1.16.64-.19 1.03-.02l1.41.62q1.33.58-.09.83-2.73.48-5.03-.74a.83.77 39.7 0 0-.85.05l-2.88 2.14a1.05 1.02-16.5 0 0-.42.74q-.2 2.34-.09 5.08.02.42-.32.8-.6.7-.08.73.28.01.33.01.32-.03.5.22 2.82 4 4.37 7.6.24.56-.32.33-1.14-.47-1.59-2.08-.4-1.42-1.61-.6l-.77.52q-.58.39-.54-.29.14-2.35-2.11-4.1-.76-.59-1.11-2.81-.09-.6-.63-.34-.46.23-.8.92-.43.91-.35 2.44.01.25-.28.17l-.36-.11q-.09-.02-.1-.16l-.37-2.73a.71.68-86.6 0 0-.5-.59q-.59-.16-1.78.43-.57.28-.65-.36l-.06-.53q-.07-.57-.58-.32-.29.13-.3 1.05 0 .16-.27.21l-.38.07q-.12.03-.29-.16l-1.13-1.21q-.42-.46-.75.09-.15.26-.26 1.54-.03.46-.21.72-.2.31-.46.4-.42.13-.76-.17l-.83-.75a.34.2 79.6 0 0-.19.52q.97 1.38.08 2.43-.37.45.17.67 1.82.77 1.02 3.1-.98 2.86.01 4.8.89 1.73-.73.82-.9-.49-2.2-.58a.49.46-9.6 0 0-.49.65l.21.46q.19.4-.05.86-.26.52-.04 1.1.15.38-.15.66-2.35 2.24-.43 4.9 1.1 1.52.62-.38-.28-1.09.49-2.6.68-1.31 1.06.31.26 1.1 1.29 1.9.47.36.53-.26l.18-1.81q.13-1.27.75-.2.91 1.55 1.17 2.59.12.5-.37.66-1.91.61-2.08 2.63-.03.49.34.81 1.44 1.25.07 3.04l-9.93-3.05q.15-1.97-1.51-2.49-.17-.06-.18-.23-.01-.1.01-.27.02-.08.18-.09l.73-.07a.5.5 0 0 0 .29-.88q-1.81-1.65-1.09-3.19.28-.59-.34-.79-.77-.25-1.32-2.37-.5-1.93-2.07-1.28a.45.45 0 0 1-.55-.18q-.09-.15-.11-.3-.19-1.36-1.03-.55l-1.72 1.68q-.57.55.21.48.49-.04.6-.34a.3.3 0 0 1 .43-.16q1.21.65-.86 2.78a1.54.89-47.7 0 1-1.59.51q-.12-.08-.6-.15-.84-.12-.45.75l.53 1.15q.2.44-.13.88-.29.38-.75.59-.64.3-.68-.42l-.1-2.5q-.03-.51-.51-.66-.25-.08-.59.01-.44.1-.71.68-.44.92-1.31 1.3a.95.95 0 0 0-.56.75l-.24 1.83-5.02-.01q-.52-.23-.76-.01l-.97.03q.7-1.47 2.24-1.88a.35.35 0 0 0 .13-.62q-1.93-1.47-1.22-3.11.23-.53.03-1.07-.55-1.52-.05-3.01.16-.46.02-.96-.17-.6-.82-.77-.59-.16-.46.44.14.67-.24.93-.51.34-.57-.27l-.42-5.07q-.02-.15-.3-.16h-.28q-.18-.01-.19.28l-.03 2.25q-.01.57-.55.49-.82-.13-1.11.12-.46.39.03.73 1.09.75 1.36 1.36.25.57-.36.61l-1.83.12q-.52.03-.59.53-.08.61-.4.95-.57.59-.58-.23 0-.69-.28-.94-.46-.41-.6.27-.08.38-.05 1.38.01.24-.07.38-.13.21-.25.28-.48.3-.7-.22l-1.36-3.2a.21.21 0 0 0-.36-.03l-3.03 5.07q-.38.63.3.33.12-.06.22-.13.58-.44.95.13l1.65 2.54q.24.36-.01.81-.5.87-1.4 1.35l-6.9-.45q1.62-3.02-1.87-6.36-.62-.6.27-.58l1.8.05a.35.29-14 0 0 .34-.46q-1.91-2.65-.87-5.36.48-1.26-.78-.85-.04.01-.3.2a.51.41 51.4 0 1-.62-.13q-.23-.28.2-1.13 1.09-2.12 1.33-2.51a.47.44-63.3 0 0-.2-.68l-1.7-.66q-.67-.26-.77.47-.05.45-.33.7-.55.5-.53-.24.08-3.23-1.26-5.97a.38.37 44.7 0 0-.68-.01l-1.32 2.91q-.25.55-.79.31l-.39-.18q-.75-.35-.7.4t.99 3.81a.15.15 0 0 1-.08.18q-1.69.94-1.96 2.75-.06.46-.48.25-.45-.23-.46-.94a.56.56 0 0 0-.78-.51q-.43.17-.73.59a.88.84-49.7 0 0 .07 1.09l1.24 1.3q.33.34-.08.58-.67.39-1.89-.04a1.24 1.24 0 0 1-.71-.65q-1-2.17-2.26-2.88-1.13-.64-.67.71l.44 1.3q.19.58-.22.9l-2.49 1.89q-.25.19-.34.84l-.66 5.03-9.15-3.24q.05-.34-.26-.4-.31-.05-.71.15-.53-.04-.79-.3l-.61-1.56q-.19-.5.32-.64 1.31-.38 2.13-1.18a.52.5 37.9 0 0-.12-.8l-2.27-1.36q-.38-.23-.51-.75-.05-.25-.2-.5-.4-.68-.61.09-.37 1.39-1.28 2.1-.7.56-.45-.3 1.05-3.51 1.5-8.57a.71.71 0 0 0-.36-.68q-.39-.22-.9 0-.74.32-.99.77-.67 1.25-1.7.69a.92.92 0 0 0-.97.05q-.54.38-.68.61-.4.62.35.69l.74.06q.61.05.34.62l-.94 1.99q-.18.39-.57.17-.15-.09-.46-1.35a.35.33-24.4 0 0-.52-.18l-.55.37q-.56.38-.62-.26c-.25-2.55.32-5.48-1.35-8.04q-.12-.19-.39-.17-.45.04-.45.49.01.95-.45 1.06a.32.32 0 0 1-.38-.32q.04-1.76-.09-2.57-.14-.87-1.04-.8a.79.75 9.9 0 0-.64.42l-.93 1.93q-.27.57.37.59.61.02.95.31.44.36.19.91l-1.38 3.07q-.16.36-.01.74l.16.4q.19.5-.34.59l-1.64.28a.78.75-11 0 0-.65.9q.47 2.07.48 3.86.01.39.84.84.53.29.61-.31.13-1.03.4-1.32.43-.45.91-.24 1.25.56 1.72 1.67.2.46-.12.85-.92 1.13-.9 2.62c-5.05-.83-9.41-3.24-7.94-9.37q1.61-6.72 3.52-9.69 5.97-9.3 10.78-14.99c.92-1.08 2.59-1.87 4.06-2.15 10.66-2.04 21.5-5.12 31.63-8.27q7.3-2.27 11.38-4.25 8.36-4.07 12.24-12.46.81-1.75 1.6-6.9.34-2.17 2.21-2.98 1.22-.52 3.22.04 4.27 1.18 8.35 2.99"/><path fill="#907349" d="M234.01 74.52q.03-.62.55-.25a.3.3 0 0 1-.05.51q-.53.25-.5-.26M253.95 74.62l1.36 1.12q-.24.34-.17.66a.49.49 0 0 0 .79.29l.29-.24 5.75 4.8a2.2 2.2 0 0 0 1.72.49q1.91-.27 6.02-.79 3.04-.39 6.05.2 5.01.97 8.53 2.06c2.04.62 3.31 1.74 3.69 3.98q.63 3.78-.6 7.99a.56.56 0 0 0 .44.71l.97.18q.63.11.72.74.51 3.36 2.19 5.7.97 1.35 1.25 3.72.59 5.06.95 8.17.55 4.7.12 8.17-1.01 8.1-4.31 15.64-.88-.22-1.76-.23-.57 0-.75-.21-.33-.38-.21-.91.29-1.34 1.08-.2.13.19.35.19.52.02.58-.49.17-1.44 1.67-2.44a.6.6 0 0 0-.07-1.04q-.73-.36-1.05-.95-.35-.64.33-.87l.53-.17q.53-.18.16-.71l-.32-.45q-.39-.56.11-.83.4-.21.32-.6a.46.46 0 0 0-.57-.34q-.3.08-.35.08-.34 0-.44-.34-.07-.24.35-.95a1.3 1.3 0 0 0 .16-.92q-.26-1.36-1.75-1.72a.88.84-63.2 0 0-.87.31q-.22.27-.4.92-.15.53-.62.26-.8-.45-1.69.01-.56.3-.61-.38l-.03-.45q-.06-.7-.63-.41l-1.56.81q-.86.45-.2.75.12.05.86.04a.55.49 76.5 0 1 .46.33q.06.13.01.33-.05.18-.21.3-2.36 1.83-1.1 4.83.19.46.06.94-.28 1.05-.58 1.58-.88 1.5-1.04-.2l-.11-1.26a.83.79 8.9 0 0-.52-.67q-.94-.38-1.18-.67a.73.7 43.6 0 1-.04-.86q.54-.75.7-1.75a.75.75 0 0 0-.15-.57q-.74-.97-1.13-1.07-2.59-.64-.47-1.71l1.29-.66a.72.71 70.3 0 0 .37-.79q-.45-2.01.77-4.08.26-.45.15-.95-.14-.71.07-1.01.21-.28.57-.28.28 0 .37-.34a.53.53 0 0 0-.28-.61q-1.64-.82-.41-2.68a.67.44 43.4 0 0-.16-.68l-.25-.27q-.16-.18-.33.07-.75 1.14-1.69 1.67-.42.23-.81-.03l-3.42-2.29q-.49-.33-1.01-.13-.56.21-.87.69-.26.4.06.75.2.22.36.23 1.53.09.47 1.15l-1.84 1.85q-.49.49.13.99l1.09.86q.28.22-.02.7-.42.7-1.16 1.05-.91.44-.32-.48.05-.08.51-.57a.31.31 0 0 0-.16-.52q-.99-.22-1.32.29a.36.36 0 0 1-.65-.31q.86-2.57-.68-5.68-.26-.54-.71-.13-.75.68-1.26.72-1.73.14-.33-.89c1.68-1.24 4.59-4.17 4.09-6.53a.94.93-25.5 0 1 .32-.92q.94-.76.45-2.18-.23-.68.48-.65.29.01.49-.05.62-.2.11-.61-1.54-1.26-1.6-4.04-.02-.91-.57-1.17-.58-.27-.9.3l-.72 1.29q-.23.4-.72.48-1.71.25-2.06-1.09-.43-1.62-1.03-.06-.02.05.01.49.02.31-.28.36-.22.04-.4-.06-.24-.15-.25-.36l-.09-3.05q-.06-1.92-1.23-.46l-.45.56a.81.69 28.9 0 1-.88.18q-1.72-.69-1.94.99a.84.69 18.6 0 0 .47.76l1.83.9a.36.35 52 0 1-.08.66l-.93.2q-.59.13-.27.72.42.79.5 1.19a.5.42-81.1 0 1-.65.56l-.3-.21q-.27-.2-.46.04-1.78 2.25-.85 3.97.27.51-.11.79l-1.19.88a.73.72-19.9 0 1-1.16-.53l-.26-5.56q-.02-.5-.48-.73l-1.67-.84q-.61-.31-.78.39l-.13.49q-.1.41-.52.43-.29.02-.53-.33a.36.36 0 0 0-.65.12l-.28 1.12q-.02.12-.13.18l-.52.29q-.24.13-.3-.14-.42-1.88.56-2.87.34-.34.36-.77l.13-2.73q.03-.75.65-.42.42.23.47 1.12.04.73.66.34.66-.41 1.69-1.57a.75.65-38.3 0 0 .14-.76l-1.49-3.25q-.39-.83.48-.71.23.04.42.2.51.43.82-.15l.86-1.65a.4.39 17.5 0 0-.31-.56l-.77-.12q-.8-.11-.35-.71l.71-.92q.24-.32-.1-.4l-.5-.12a.36.26-70 0 1-.13-.46q.03-.09.18-.19.24-.17.39.08.82 1.37 1.9.31a1.55 1.53-57 0 0-.53-2.54l-.72-.27a.85.84-79.8 0 1-.55-.8q0-.3.1-.55.2-.45.69-.48l1.6-.08q.59-.03.62-.61c.06-1.72-1.63-2.29-3.12-2.41q-.57-.04-.71-.59-.49-1.95.86-2.67"/><path d="m256.22 76.45-.29.24a.49.49 0 0 1-.79-.29q-.07-.32.17-.66z"/><path fill="#907349" d="M231.31 76.23q.26-.31.42.06.23.54-.2.6a.32.32 0 0 1-.36-.34q.01-.16.14-.32M240.27 76.34a.25.25 0 0 1 .38-.14q.69.46.34 1.05-.74 1.24-.94-.17 0-.01.22-.74M181.22 79.05l1.1-.72q.68-.44.66.36-.01.55-.19.87-.33.58-1.44.21a.42.4 36.7 0 1-.13-.72M217.01 80.4a.3.3 0 0 1 .34-.3q.73.1.4.59-.21.31-.54.13-.2-.11-.2-.42"/><circle cx="180.52" cy="81.44" r=".44" fill="#907349"/><circle cx="184.52" cy="94.6" r=".42" fill="#907349"/><path fill="#907349" d="M175.26 95.3q.33-.4.54.08.22.51-.25.51-.77 0-.29-.59M162.21 96.16q.14-.05.29 0a.35.35 0 0 1 .2.49q-.2.37-.59.02a.3.3 0 0 1 .1-.51M172.43 96.14a.28.28 0 0 1 .38.11q.23.42-.05.65a.32.32 0 0 1-.5-.15q-.15-.45.17-.61M230.51 102.36a.26.15 75.5 0 1-.11.41q-1.07-.77-1.81-.96a.46.44 28 0 1-.24-.74l1.15-1.23q.34-.37.11-.78l-.24-.44q-.33-.6.32-.75.48-.11.84.19.58.48 1.16 2.29.16.49-.34.61-1.59.36-.84 1.4M171.66 99.8a.25.25 0 0 1-.39-.27q.27-.85 1.17-1.3.75-.37.36.45-.13.28-1.14 1.12M248.44 98.46a.24.24 0 0 1 .38-.14q.19.15.11.43-.07.29-.36.22-.22-.05-.13-.51M180.42 100.19q.28-.11.78.24a.28.28 0 0 1-.12.51q-.65.1-.81-.12-.33-.43.15-.63M218.26 101.23q.38-.68.73.02.29.59-.05 1.15-.71 1.17-.96-.14-.08-.38.28-1.03M248.48 103.01a.24.24 0 0 1 .43.19l-.09.39a.34.28 47.9 0 1-.59-.08q-.02-.08.25-.5M188.03 104.2a.26.26 0 0 1 .37-.24q.41.2.28.65-.09.3-.38.18-.25-.1-.27-.59M258.47 107.42l-.62 2.92q-.29 1.34-.74.05-.88-2.51.75-3.43.81-.45.61.46"/><ellipse fill="#907349" rx="1.26" ry=".39" transform="rotate(134.3 104.115 107.992)"/><path fill="#907349" d="M198.14 111.45q.33-.55.55-.23.2.27.02.56-.24.37-.54 0a.29.29 0 0 1-.03-.33M194.48 115.9q-.5.91-.75 1.04-.63.3-.55-.37.01-.13.54-1.09t.63-1.03q.52-.43.61.26.02.29-.48 1.19M264.45 114.91a.26.26 0 0 1 .39.11q.12.26.08.38-.28.91-.76.14-.18-.3.29-.63M272.03 116.15q.26-.23.59-.03a.38.38 0 0 1 .12.52q-.5.82-.82-.04a.41.41 0 0 1 .11-.45"/><path d="m97 145.26-14.06-2.16q-.02-1.49.9-2.62.32-.39.12-.85-.47-1.11-1.72-1.67-.48-.21-.91.24-.27.29-.4 1.32-.08.6-.61.31-.83-.45-.84-.84-.01-1.79-.48-3.86a.78.75-11 0 1 .65-.9l1.64-.28q.53-.09.34-.59l-.16-.4q-.15-.38.01-.74l1.38-3.07q.25-.55-.19-.91-.34-.29-.95-.31-.64-.02-.37-.59l.93-1.93a.79.75 9.9 0 1 .64-.42q.9-.07 1.04.8.13.81.09 2.57a.32.32 0 0 0 .38.32q.46-.11.45-1.06 0-.45.45-.49.27-.02.39.17c1.67 2.56 1.1 5.49 1.35 8.04q.06.64.62.26l.55-.37a.35.33-24.4 0 1 .52.18q.31 1.26.46 1.35.39.22.57-.17l.94-1.99q.27-.57-.34-.62l-.74-.06q-.75-.07-.35-.69.14-.23.68-.61a.92.92 0 0 1 .97-.05q1.03.56 1.7-.69.25-.45.99-.77.51-.22.9 0a.71.71 0 0 1 .36.68q-.45 5.06-1.5 8.57-.25.86.45.3.91-.71 1.28-2.1.21-.77.61-.09.15.25.2.5.13.52.51.75l2.27 1.36a.52.5 37.9 0 1 .12.8q-.82.8-2.13 1.18-.51.14-.32.64zm-3.49-13.2a.39.38-84.1 0 0-.22.18q-.36.65.28.51a.39.39 0 0 0 .25-.58q-.11-.17-.31-.11"/><path fill="#907349" d="M199.1 126.54a.38.38 0 0 1 .63-.1q.6.66.11 1.18a.46.46 0 0 1-.77-.18q-.15-.49.03-.9M282.35 128.21a.31.31 0 0 1 .28-.01q.48.22-.07.75a.33.33 0 0 1-.44.01q-.42-.37.23-.75"/><path d="M128.15 152.93q-.77.09-1.11-.02-.17-.35-.54-.37-.42-.02-.54.35-6.27-.23-12.22-1.93.2-1.47 1.07-2.53a.34.34 0 0 0-.32-.55l-.81.15q-.45.09-.53.49l-.21 1.02q-.27 1.27-.99.22-.69-.99-1.02-1.77-.99-2.29-1.86-.13-.12.3-.38 1.45l-.78-.26.66-5.03q.09-.65.34-.84l2.49-1.89q.41-.32.22-.9l-.44-1.3q-.46-1.35.67-.71 1.26.71 2.26 2.88a1.24 1.24 0 0 0 .71.65q1.22.43 1.89.04.41-.24.08-.58l-1.24-1.3a.88.84-49.7 0 1-.07-1.09q.3-.42.73-.59a.56.56 0 0 1 .78.51q.01.71.46.94.42.21.48-.25.27-1.81 1.96-2.75a.15.15 0 0 0 .08-.18q-.94-3.06-.99-3.81t.7-.4l.39.18q.54.24.79-.31l1.32-2.91a.38.37 44.7 0 1 .68.01q1.34 2.74 1.26 5.97-.02.74.53.24.28-.25.33-.7.1-.73.77-.47l1.7.66a.47.44-63.3 0 1 .2.68q-.24.39-1.33 2.51-.43.85-.2 1.13a.51.41 51.4 0 0 .62.13q.26-.19.3-.2 1.26-.41.78.85-1.04 2.71.87 5.36a.35.29-14 0 1-.34.46l-1.8-.05q-.89-.02-.27.58 3.49 3.34 1.87 6.36m-7.09-16.57q-.02.36.22.56a.26.26 0 0 0 .42-.13q.19-.67-.36-.69a.27.27 0 0 0-.28.26m-1.94 1.78a.38.38 0 0 0 0 .67q.24.13.6-.11a.35.35 0 0 0 .04-.55q-.25-.22-.64-.01m6.98 10.29q-.12.32.47.4a.3.3 0 0 0 .32-.4q-.11-.28-.45-.26-.26.03-.34.26"/><path fill="#907349" d="M93.51 132.06q.2-.06.31.11a.39.39 0 0 1-.25.58q-.64.14-.28-.51a.39.38-84.1 0 1 .22-.18M121.06 136.36a.27.27 0 0 1 .28-.26q.55.02.36.69a.26.26 0 0 1-.42.13q-.24-.2-.22-.56M196.36 136.16a.29.29 0 0 1 .35.04q.38.37-.28.8a.3.3 0 0 1-.38-.05q-.38-.4.31-.79M119.12 138.14q.39-.21.64.01a.35.35 0 0 1-.04.55q-.36.24-.6.11a.38.38 0 0 1 0-.67"/><path d="m146.23 153.7-11.18-.32q.9-.48 1.4-1.35.25-.45.01-.81l-1.65-2.54q-.37-.57-.95-.13-.1.07-.22.13-.68.3-.3-.33l3.03-5.07a.21.21 0 0 1 .36.03l1.36 3.2q.22.52.7.22.12-.07.25-.28.08-.14.07-.38-.03-1 .05-1.38.14-.68.6-.27.28.25.28.94.01.82.58.23.32-.34.4-.95.07-.5.59-.53l1.83-.12q.61-.04.36-.61-.27-.61-1.36-1.36-.49-.34-.03-.73.29-.25 1.11-.12.54.08.55-.49l.03-2.25q.01-.29.19-.28h.28q.28.01.3.16l.42 5.07q.06.61.57.27.38-.26.24-.93-.13-.6.46-.44.65.17.82.77.14.5-.02.96-.5 1.49.05 3.01.2.54-.03 1.07-.71 1.64 1.22 3.11a.35.35 0 0 1-.13.62q-1.54.41-2.24 1.88"/><ellipse fill="#907349" rx=".46" ry=".35" transform="rotate(25.8 -160.798 697.281)"/><circle cx="192.57" cy="141.46" r=".35" fill="#907349"/><path d="M169 157.22q-6.57-3.1-14.02-3.29.01-.55-.48-.58-.39-.02-.72.33l-.8.01.24-1.83a.95.95 0 0 1 .56-.75q.87-.38 1.31-1.3.27-.58.71-.68.34-.09.59-.01.48.15.51.66l.1 2.5q.04.72.68.42.46-.21.75-.59.33-.44.13-.88l-.53-1.15q-.39-.87.45-.75.48.07.6.15a1.54.89-47.7 0 0 1.59-.51q2.07-2.13.86-2.78a.3.3 0 0 0-.43.16q-.11.3-.6.34-.78.07-.21-.48l1.72-1.68q.84-.81 1.03.55.02.15.11.3a.45.45 0 0 0 .55.18q1.57-.65 2.07 1.28.55 2.12 1.32 2.37.62.2.34.79-.72 1.54 1.09 3.19a.5.5 0 0 1-.29.88l-.73.07q-.16.01-.18.09-.02.17-.01.27.01.17.18.23 1.66.52 1.51 2.49M98.76 145.81q-.54-.02-.97-.25.4-.2.71-.15.31.06.26.4"/><path fill="#907349" d="m113.74 150.96-5.05-1.65q.26-1.15.38-1.45.87-2.16 1.86.13.33.78 1.02 1.77.72 1.05.99-.22l.21-1.02q.08-.4.53-.49l.81-.15a.34.34 0 0 1 .32.55q-.87 1.06-1.07 2.53M126.44 148.17q.34-.02.45.26a.3.3 0 0 1-.32.4q-.59-.08-.47-.4.08-.23.34-.26M127.04 152.91l-1.08-.02q.12-.37.54-.35.37.02.54.37"/><path d="m147.96 153.68-.76-.01q.24-.22.76.01"/><path fill="#907349" d="M154.98 153.93q-.4-.27-1.2-.25.33-.35.72-.33.49.03.48.58M183.18 157.38q.19-.25.37-.27.31-.03.29.28-.02.49-.47.44a.28.28 0 0 1-.19-.45M185.92 160.12q-.01.29-.18.52-.36.47-.74-.02l-.54-.7q-.33-.42.17-.71l1.65-.97q.64-.38.38.34-.08.2-.5.8-.23.33-.24.74"/></svg>