<svg xmlns="http://www.w3.org/2000/svg" viewBox="0 0 382 382"><g fill="none" stroke="#051f02" stroke-width="2"><path d="M219.23 67.76q.45 1.24 1.23 2.06a2.05 2.05 0 0 1 .37 2.29q-1.31 2.76-3.02 3.96-.47.33-.36.69l.76 2.52a.31.3-45.4 0 0 .57-.02l.2-.61a.46.44-63.1 0 1 .69-.24l3.96 2.98a.87.84-74.9 0 1 .33.6q.53 5.32-2.57 9.2-.32.41-.03.85.17.26.51.45.49.27.98.01 1.15-.59 2.56.07.51.24.6-.32.15-1.03-.49-2.25a1.16 1.08-23.1 0 1 .69-1.55l2.22-.77q.44-.16.55-.53.19-.61.51-.94.39-.41.87-.12 1.24.74 1.84 2.19.19.47.67.66.57.22 1.41.18.54-.02.7-.55.24-.8-1.69-2.11a.47.46-63.4 0 1-.17-.54l1.07-3.05q.16-.45.64-.74l.86-.52a.88.87-39.7 0 0 .14-1.41l-4.05-3.6a1.39 1.34-55 0 1-.26-1.68l1.93-3.52M244.84 70.26l.2 3.14q.03.5.52.38.19-.05.31-.2.38-.5.96-.12l.5.33q.43.28.48-.3.14-1.57 1.85-2.23M257.75 77.66q-.67 2.13-2.35 2.69a.65.64 67.1 0 0-.36.91l1.7 3.33q.26.52-.38.48-1.22-.08-1.94.24a.68.68 0 0 0-.34.93l1.44 2.9q.29.6-.45.84-.76.25-1.42.82-.39.33-.18.81l1.32 3.16q.21.49-.09.91-.79 1.14-2.31 2.25a.58.55-53 0 0 .11 1l1.95.64q.49.16.56-.28l.07-.42q.08-.52.7-.38 2.72.62 2.29 3.47a.55.54 71.8 0 0 .92.48l.31-.33q.41-.43.2-.9-.5-1.13-.51-2.21 0-.57.53-.66a.5.5 0 0 1 .45.17q.29.32.51.28a.22.22 0 0 0 .16-.32q-1.22-2.42-1.43-2.99-.48-1.35.83-1.98.47-.23.91.05.85.54 1.45.32.49-.18.57-.69.07-.49.39-.86.53-.62.56.21l.13 3.48q.03.63.65.49c1.18-.26 2.14.82 3.6.42a.47.37-18.9 0 0 .35-.54l-.36-.79q-.26-.57.28-.55 1.54.08 2.86-.72a.2.19.5 0 1 .26.27q-.44.7-.13 1.72.16.5-.24.9l-.74.77q-.36.37.15.66 1.34.77 1.65 1.39.23.47-.07.91-.64.93-.71 1.57-.67 6.07-2.96 9.43a1.27 1.27 0 0 0 1.02 1.98q2.04.04 2.65 1.61.25.65.52 0l.71-1.74q.17-.42-.07-.83-.49-.85-.42-2.16.04-.69.64-.35.57.31 1.34.15a.76.33-15.3 0 1 .71.1l.47.77a.37.3-32.2 0 0 .48.06q.33-.21.84-.26a.96.5 83 0 1 .6.88q.01.12.24.42a.19.19 0 0 0 .35-.08q.29-1.57 1.3-1.55.53.01.77.49 1.11 2.19 1.03 3.07-.25 2.63-.44 5.27-.01.14-.09.2l-.38.32q-.18.14-.12.4.42 2.03-.77 4.55-.11.23.03.43.09.13.2.19.2.1.36-.06.8-.88 1.67-.77.59.07.66.66l.21 1.9q.02.19.21.21l.33.03q.08 0 .11-.13l.69-3.03q.09-.41-.15-1.02-.4-1.03-.26-2.04.08-.55.62-.55l3.57-.06q.54-.01.7-.54l.28-.91a.72.71-82.8 0 1 .64-.51q.97-.04 1.51.84.82 1.33 2.34 4.66M158.64 154.2q1.23-2.47.1-4.72-.3-.58-.82-.19-.22.17-.49.15-.7-.05-.27-.66l1.32-1.9q.34-.49.41-.95.17-1.1.46-1.51a.66.66 0 0 1 .9-.18q1.48.95 1.92-.45.18-.54.67-.32l.23.11q.63.28.84-.4.67-2.13.43-4.35-.09-.87.69-1.39a.7.7 0 0 1 .88.1q1.13 1.14 2.25 1.03.53-.06.8.41.93 1.65 2.13.65a.41.4 69.6 0 1 .67.31q0 .32-.39 1.16a1.44 1.41 19.3 0 0 .98 1.98l.92.22q.62.15.2.63-.74.84-.43 2.26.13.6.66.29 1.19-.68 2.62-.28.58.16.59.78l.13 5.77q0 .07.06.1.15.09.25.1.35.04.49-.32.47-1.24 1.15-1.7.46-.32.33-.87-.47-2.01.97-5.42.21-.5.74-.52 1.2-.06 2.35-.81a.92.89-45.9 0 0 0-1.54l-2.7-1.58q-.59-.35-.28-.92.67-1.23.49-1.58-.29-.53-.72-.18l-1.12.92a.93.91 68.3 0 1-1.49-.66l-.33-4.02q-.05-.62.56-.66l1.28-.08q.58-.04.39-.62-.59-1.76-.57-5.15 0-.72-1.17-2.07-.34-.39 0-.79 1.99-2.39 2.56-2.62 3.59-1.43 5.23-2.72c1.22-.96 2.58-.9 4.04-1.87q.66-.44-.02-.85-2.71-1.6-2.16-4.99.1-.58-.44-1a.49.49 0 0 0-.76.24q-.33 1.03-1.36.83-.57-.1-.65.47-.11.73-.13.8-.68 1.72-1.58.2l-1.64-2.77q-.3-.51-.87-.48-.75.05-1.09-.29-.36-.36-.25-1.21.39-3.04 1.35-7.1.25-1.07-.22-1.7-.28-.37-.72-.26-.91.23-1.53.81-.43.39-.12.88t.29.77a.47.44-80.7 0 1-.55.43q-1.54-.41-2.22-.42-.53-.01-.79-.47c-.45-.79-1.4-2.75-1.52-2.8q-.14-.07-.26-.04-.26.08-.25.35.09 2.5-1.5 3.82-.42.34-.46.87-.16 1.89.43 3.02 2.02 3.9-1.58 1.63-1.78-1.12-3.92-2.02-.48-.2-.57-.72-.37-2.04 1.07-3.77.65-.78-.32-.81-.05 0-.21.12-.23.18-.5.05-.1-.06-.24-.22-.25-.3-.07-.65.83-1.63-.72-3.34-.17-.18-.41-.13l-.28.06a.56.56 0 0 1-.67-.45q-.38-2.07.87-4.12.25-.41.73-.38 1.82.1 3.98-1.47a.57.57 0 0 0 .18-.7q-.99-2.14-2.39-2.63a.87.81-80.4 0 1-.55-.82l.05-2.18q.01-.58.59-.7l.79-.15q.47-.1.55-.71t-.26-1.17q-.25-.42-.06-.87.66-1.63.4-3.67M174.69 71.44q.17.69.44 1.04.28.37.62.14l.34-.21a.8.76 50.2 0 1 .96.11q1.02.99 2.17-.23.53-.56.7.19.35 1.59 1.6 2.17.54.25.43-.33-.15-.8-.89-1.52-.41-.4-.28-.95.13-.56.66-.83a.87.87 0 0 0 .47-.74q.05-1.32.95-2.37M154.29 153.72q-.76-1.78-2.28-3.1-.4-.35-.21-.71l.44-.83q.26-.47-.07-.92-1.29-1.8-.58-3.83.16-.45-.12-.88l-.4-.64q-.23-.37-.22-.9.04-2.7-2.15-2.57-.55.04-.65-.51-.24-1.35-.69-1.73a.69.57 43 0 0-.85-.06l-.82.79q-.39.38-.18.92l.4 1.05a.74.66 66.9 0 1-.3.89l-3.11 1.5q-.55.26-.14.71l.24.27q.52.57-.26.8-.14.04-.3.02-.48-.04-.74-.47l-1.23-1.96q-.33-.54-.67-.07l-2.07 2.84a1.14 1.13 62.1 0 0-.21.72q.05 1.26.75 2.45.25.43.28.93l.34 5.29M137.22 153.52q-.36-1.63-1.83-1.13-.5.17-.94.91M132.37 153.14q1.52-3.66-1.44-4.78a1.18 1.17-64.5 0 1-.59-1.69l.9-1.57q.26-.43.06-.93-.77-1.9-.54-4.08.05-.46-.19-.85-.52-.84-1.68-1.4-.52-.25-.32-.73l1.27-3.06q.21-.52-.21-.82-.78-.56-3.14.44-.43.19-.43-.28 0-3.4-1-5.48-.86-1.8-.9.19-.04 2.04-2.44 3.13-.51.23-.29.74.31.7.07 1.2-.26.56.31.78l.52.21q.49.19.21.67-1.7 2.89-3.89 1.76-.65-.33-.66.3l-.03 3.43q0 .49-.55.62l-.35.08q-.56.13-.79-.4-.86-1.99-1.97-2.89-1.54-1.25-1 .76l.25.93q.11.43-.22.7-2.85 2.31-2.68 5.62.06 1.17.92 1.9.54.45.55-.25v-.47q.01-1.07.58-.16 1.14 1.84.56 4.15M102.77 147.19q-1.15-2.11-3.11-1.59-.49.13-.71-.13l-.37-.43q-.43-.51-.05-.93l1.91-2.12q.35-.38.07-.81-.49-.75.07-1.44a.4.2-73.1 0 0-.1-.62l-.41.38q-.39.36-.62.17l-1.48-1.2q-.75-.61-.89.21l-.15.81a.4.39 25.5 0 1-.65.22l-.66-.57q-.51-.44-.11-1.06c.85-1.32.21-3.07.97-4.18q.31-.45-.01-.9-.53-.75.34-1.28a.37.37 0 0 0 0-.63q-.29-.17-.89-.11-.44.04-.99.53-1.15 1.04-2.02-.03a.58.55-41 0 0-.82-.04l-.63.59a.55.48 51.1 0 0-.03.69q.88 1.2.54 2.87-.1.5-.56.28-1.43-.72-1.9-1.79-1.21-2.76-1.66-6.23-.06-.5-.53-.7-2.25-.93-2.49-2.56-.14-.9-.58-.13l-1.13 1.94a.98.98 0 0 0 .01 1.01l.75 1.21a.79.79 0 0 1-.08.94l-1.58 1.79q-.37.42-.27.95.1.52.53.93.52.5-.23.62l-1.49.23q-.71.11-.27.66.74.92.48 3.44a.47.47 0 0 0 .61.49q.28-.09.48-.28a.63.63 0 0 1 .83 0q2.02 1.77.68 4.85M241.13 73.51q-.07.82-.07.84.11.62.6.3.93-.64.96-1.02t-.78-1.16q-.43-.4-.64.2-.01.02-.07.84" vector-effect="non-scaling-stroke"/></g><path d="M219.23 67.76q.45 1.24 1.23 2.06a2.05 2.05 0 0 1 .37 2.29q-1.31 2.76-3.02 3.96-.47.33-.36.69l.76 2.52a.31.3-45.4 0 0 .57-.02l.2-.61a.46.44-63.1 0 1 .69-.24l3.96 2.98a.87.84-74.9 0 1 .33.6q.53 5.32-2.57 9.2-.32.41-.03.85.17.26.51.45.49.27.98.01 1.15-.59 2.56.07.51.24.6-.32.15-1.03-.49-2.25a1.16 1.08-23.1 0 1 .69-1.55l2.22-.77q.44-.16.55-.53.19-.61.51-.94.39-.41.87-.12 1.24.74 1.84 2.19.19.47.67.66.57.22 1.41.18.54-.02.7-.55.24-.8-1.69-2.11a.47.46-63.4 0 1-.17-.54l1.07-3.05q.16-.45.64-.74l.86-.52a.88.87-39.7 0 0 .14-1.41l-4.05-3.6a1.39 1.34-55 0 1-.26-1.68l1.93-3.52 3.58-1.04q.48-.14.95.03l2.48.88a.99.98 39.9 0 0 .81-.08q1.69-.95 3.57-.93l.2 3.14q.03.5.52.38.19-.05.31-.2.38-.5.96-.12l.5.33q.43.28.48-.3.14-1.57 1.85-2.23l8.09 6.4q-.67 2.13-2.35 2.69a.65.64 67.1 0 0-.36.91l1.7 3.33q.26.52-.38.48-1.22-.08-1.94.24a.68.68 0 0 0-.34.93l1.44 2.9q.29.6-.45.84-.76.25-1.42.82-.39.33-.18.81l1.32 3.16q.21.49-.09.91-.79 1.14-2.31 2.25a.58.55-53 0 0 .11 1l1.95.64q.49.16.56-.28l.07-.42q.08-.52.7-.38 2.72.62 2.29 3.47a.55.54 71.8 0 0 .92.48l.31-.33q.41-.43.2-.9-.5-1.13-.51-2.21 0-.57.53-.66a.5.5 0 0 1 .45.17q.29.32.51.28a.22.22 0 0 0 .16-.32q-1.22-2.42-1.43-2.99-.48-1.35.83-1.98.47-.23.91.05.85.54 1.45.32.49-.18.57-.69.07-.49.39-.86.53-.62.56.21l.13 3.48q.03.63.65.49c1.18-.26 2.14.82 3.6.42a.47.37-18.9 0 0 .35-.54l-.36-.79q-.26-.57.28-.55 1.54.08 2.86-.72a.2.19.5 0 1 .26.27q-.44.7-.13 1.72.16.5-.24.9l-.74.77q-.36.37.15.66 1.34.77 1.65 1.39.23.47-.07.91-.64.93-.71 1.57-.67 6.07-2.96 9.43a1.27 1.27 0 0 0 1.02 1.98q2.04.04 2.65 1.61.25.65.52 0l.71-1.74q.17-.42-.07-.83-.49-.85-.42-2.16.04-.69.64-.35.57.31 1.34.15a.76.33-15.3 0 1 .71.1l.47.77a.37.3-32.2 0 0 .48.06q.33-.21.84-.26a.96.5 83 0 1 .6.88q.01.12.24.42a.19.19 0 0 0 .35-.08q.29-1.57 1.3-1.55.53.01.77.49 1.11 2.19 1.03 3.07-.25 2.63-.44 5.27-.01.14-.09.2l-.38.32q-.18.14-.12.4.42 2.03-.77 4.55-.11.23.03.43.09.13.2.19.2.1.36-.06.8-.88 1.67-.77.59.07.66.66l.21 1.9q.02.19.21.21l.33.03q.08 0 .11-.13l.69-3.03q.09-.41-.15-1.02-.4-1.03-.26-2.04.08-.55.62-.55l3.57-.06q.54-.01.7-.54l.28-.91a.72.71-82.8 0 1 .64-.51q.97-.04 1.51.84.82 1.33 2.34 4.66-1.06 6.66-2.58 10.09-4.96 11.29-6.93 23.06-.48 2.88-1.39 4.04c-2.33 2.97-7.71 2.68-10.6 1.35-5.01-2.29-6.96-3.47-11.7-.42q-2.88 1.85-6.63 2.91-3.49.98-8.3.02-6.33-1.26-8.16-1.96-7.03-2.72-10-3.45-6.07-1.51-12.86-.3-1.18.21-11.04 1.65-6.81 1.01-11.12.76-14.08-.79-26.92-6.52c-2.26-1.01-4.47-1.16-6.87-1.57q1.23-2.47.1-4.72-.3-.58-.82-.19-.22.17-.49.15-.7-.05-.27-.66l1.32-1.9q.34-.49.41-.95.17-1.1.46-1.51a.66.66 0 0 1 .9-.18q1.48.95 1.92-.45.18-.54.67-.32l.23.11q.63.28.84-.4.67-2.13.43-4.35-.09-.87.69-1.39a.7.7 0 0 1 .88.1q1.13 1.14 2.25 1.03.53-.06.8.41.93 1.65 2.13.65a.41.4 69.6 0 1 .67.31q0 .32-.39 1.16a1.44 1.41 19.3 0 0 .98 1.98l.92.22q.62.15.2.63-.74.84-.43 2.26.13.6.66.29 1.19-.68 2.62-.28.58.16.59.78l.13 5.77q0 .07.06.1.15.09.25.1.35.04.49-.32.47-1.24 1.15-1.7.46-.32.33-.87-.47-2.01.97-5.42.21-.5.74-.52 1.2-.06 2.35-.81a.92.89-45.9 0 0 0-1.54l-2.7-1.58q-.59-.35-.28-.92.67-1.23.49-1.58-.29-.53-.72-.18l-1.12.92a.93.91 68.3 0 1-1.49-.66l-.33-4.02q-.05-.62.56-.66l1.28-.08q.58-.04.39-.62-.59-1.76-.57-5.15 0-.72-1.17-2.07-.34-.39 0-.79 1.99-2.39 2.56-2.62 3.59-1.43 5.23-2.72c1.22-.96 2.58-.9 4.04-1.87q.66-.44-.02-.85-2.71-1.6-2.16-4.99.1-.58-.44-1a.49.49 0 0 0-.76.24q-.33 1.03-1.36.83-.57-.1-.65.47-.11.73-.13.8-.68 1.72-1.58.2l-1.64-2.77q-.3-.51-.87-.48-.75.05-1.09-.29-.36-.36-.25-1.21.39-3.04 1.35-7.1.25-1.07-.22-1.7-.28-.37-.72-.26-.91.23-1.53.81-.43.39-.12.88t.29.77a.47.44-80.7 0 1-.55.43q-1.54-.41-2.22-.42-.53-.01-.79-.47c-.45-.79-1.4-2.75-1.52-2.8q-.14-.07-.26-.04-.26.08-.25.35.09 2.5-1.5 3.82-.42.34-.46.87-.16 1.89.43 3.02 2.02 3.9-1.58 1.63-1.78-1.12-3.92-2.02-.48-.2-.57-.72-.37-2.04 1.07-3.77.65-.78-.32-.81-.05 0-.21.12-.23.18-.5.05-.1-.06-.24-.22-.25-.3-.07-.65.83-1.63-.72-3.34-.17-.18-.41-.13l-.28.06a.56.56 0 0 1-.67-.45q-.38-2.07.87-4.12.25-.41.73-.38 1.82.1 3.98-1.47a.57.57 0 0 0 .18-.7q-.99-2.14-2.39-2.63a.87.81-80.4 0 1-.55-.82l.05-2.18q.01-.58.59-.7l.79-.15q.47-.1.55-.71t-.26-1.17q-.25-.42-.06-.87.66-1.63.4-3.67 2.16.72 4.13.1.47-.15.73-.57l2.84-4.55q.17.69.44 1.04.28.37.62.14l.34-.21a.8.76 50.2 0 1 .96.11q1.02.99 2.17-.23.53-.56.7.19.35 1.59 1.6 2.17.54.25.43-.33-.15-.8-.89-1.52-.41-.4-.28-.95.13-.56.66-.83a.87.87 0 0 0 .47-.74q.05-1.32.95-2.37 1.92.81 3.72 2.04 1.12.76 2.15.38 3.19-1.16 4.65-1.93c4.45-2.34 8.29-2.61 13.49-1.77q2.87.46 6-.29 1.8-.44 3.28.01 1.62.49 3.08 1.41m21.9 5.75q-.07.82-.07.84.11.62.6.3.93-.64.96-1.02t-.78-1.16q-.43-.4-.64.2-.01.02-.07.84"/><path fill="#0a3d03" d="M182.86 67.91q-.9 1.05-.95 2.37a.87.87 0 0 1-.47.74q-.53.27-.66.83-.13.55.28.95.74.72.89 1.52.11.58-.43.33-1.25-.58-1.6-2.17-.17-.75-.7-.19-1.15 1.22-2.17.23a.8.76 50.2 0 0-.96-.11l-.34.21q-.34.23-.62-.14-.27-.35-.44-1.04 2.13-5.21 8.17-3.53M233.45 71.4l-1.93 3.52a1.39 1.34-55 0 0 .26 1.68l4.05 3.6a.88.87-39.7 0 1-.14 1.41l-.86.52q-.48.29-.64.74l-1.07 3.05a.47.46-63.4 0 0 .17.54q1.93 1.31 1.69 2.11-.16.53-.7.55-.84.04-1.41-.18-.48-.19-.67-.66-.6-1.45-1.84-2.19-.48-.29-.87.12-.32.33-.51.94-.11.37-.55.53l-2.22.77a1.16 1.08-23.1 0 0-.69 1.55q.64 1.22.49 2.25-.09.56-.6.32-1.41-.66-2.56-.07-.49.26-.98-.01-.34-.19-.51-.45-.29-.44.03-.85 3.1-3.88 2.57-9.2a.87.84-74.9 0 0-.33-.6l-3.96-2.98a.46.44-63.1 0 0-.69.24l-.2.61a.31.3-45.4 0 1-.57.02l-.76-2.52q-.11-.36.36-.69 1.71-1.2 3.02-3.96a2.05 2.05 0 0 0-.37-2.29q-.78-.82-1.23-2.06 2.51.32 4.97.73 2.31.38 4.69 1.24 2.27.82 4.56 1.67M249.66 71.26q-1.71.66-1.85 2.23-.05.58-.48.3l-.5-.33q-.58-.38-.96.12-.12.15-.31.2-.49.12-.52-.38l-.2-3.14q2.92-1.34 4.82 1M166.99 76.46q.26 2.04-.4 3.67-.19.45.06.87.34.56.26 1.17t-.55.71l-.79.15q-.58.12-.59.7l-.05 2.18a.87.81-80.4 0 0 .55.82q1.4.49 2.39 2.63a.57.57 0 0 1-.18.7q-2.16 1.57-3.98 1.47-.48-.03-.73.38-1.25 2.05-.87 4.12a.56.56 0 0 0 .67.45l.28-.06q.24-.05.41.13 1.55 1.71.72 3.34-.18.35.07.65.14.16.24.22.27.13.5-.05.16-.12.21-.12.97.03.32.81-1.44 1.73-1.07 3.77.09.52.57.72 2.14.9 3.92 2.02 3.6 2.27 1.58-1.63-.59-1.13-.43-3.02.04-.53.46-.87 1.59-1.32 1.5-3.82-.01-.27.25-.35.12-.03.26.04c.12.05 1.07 2.01 1.52 2.8q.26.46.79.47.68.01 2.22.42a.47.44-80.7 0 0 .55-.43q.02-.28-.29-.77t.12-.88q.62-.58 1.53-.81.44-.11.72.26.47.63.22 1.7-.96 4.06-1.35 7.1-.11.85.25 1.21.34.34 1.09.29.57-.03.87.48l1.64 2.77q.9 1.52 1.58-.2.02-.07.13-.8.08-.57.65-.47 1.03.2 1.36-.83a.49.49 0 0 1 .76-.24q.54.42.44 1-.55 3.39 2.16 4.99.68.41.02.85c-1.46.97-2.82.91-4.04 1.87q-1.64 1.29-5.23 2.72-.57.23-2.56 2.62-.34.4 0 .79 1.17 1.35 1.17 2.07-.02 3.39.57 5.15.19.58-.39.62l-1.28.08q-.61.04-.56.66l.33 4.02a.93.91 68.3 0 0 1.49.66l1.12-.92q.43-.35.72.18.18.35-.49 1.58-.31.57.28.92l2.7 1.58a.92.89-45.9 0 1 0 1.54q-1.15.75-2.35.81-.53.02-.74.52-1.44 3.41-.97 5.42.13.55-.33.87-.68.46-1.15 1.7-.14.36-.49.32-.1-.01-.25-.1-.06-.03-.06-.1l-.13-5.77q-.01-.62-.59-.78-1.43-.4-2.62.28-.53.31-.66-.29-.31-1.42.43-2.26.42-.48-.2-.63l-.92-.22a1.44 1.41 19.3 0 1-.98-1.98q.39-.84.39-1.16a.41.4 69.6 0 0-.67-.31q-1.2 1-2.13-.65-.27-.47-.8-.41-1.12.11-2.25-1.03a.7.7 0 0 0-.88-.1q-.78.52-.69 1.39.24 2.22-.43 4.35-.21.68-.84.4l-.23-.11q-.49-.22-.67.32-.44 1.4-1.92.45a.66.66 0 0 0-.9.18q-.29.41-.46 1.51-.07.46-.41.95l-1.32 1.9q-.43.61.27.66.27.02.49-.15.52-.39.82.19 1.13 2.25-.1 4.72l-4.35-.48q-.76-1.78-2.28-3.1-.4-.35-.21-.71l.44-.83q.26-.47-.07-.92-1.29-1.8-.58-3.83.16-.45-.12-.88l-.4-.64q-.23-.37-.22-.9.04-2.7-2.15-2.57-.55.04-.65-.51-.24-1.35-.69-1.73a.69.57 43 0 0-.85-.06l-.82.79q-.39.38-.18.92l.4 1.05a.74.66 66.9 0 1-.3.89l-3.11 1.5q-.55.26-.14.71l.24.27q.52.57-.26.8-.14.04-.3.02-.48-.04-.74-.47l-1.23-1.96q-.33-.54-.67-.07l-2.07 2.84a1.14 1.13 62.1 0 0-.21.72q.05 1.26.75 2.45.25.43.28.93l.34 5.29q-.5-.28-1.27-.2-.36-1.63-1.83-1.13-.5.17-.94.91l-2.08-.16q1.52-3.66-1.44-4.78a1.18 1.17-64.5 0 1-.59-1.69l.9-1.57q.26-.43.06-.93-.77-1.9-.54-4.08.05-.46-.19-.85-.52-.84-1.68-1.4-.52-.25-.32-.73l1.27-3.06q.21-.52-.21-.82-.78-.56-3.14.44-.43.19-.43-.28 0-3.4-1-5.48-.86-1.8-.9.19-.04 2.04-2.44 3.13-.51.23-.29.74.31.7.07 1.2-.26.56.31.78l.52.21q.49.19.21.67-1.7 2.89-3.89 1.76-.65-.33-.66.3l-.03 3.43q0 .49-.55.62l-.35.08q-.56.13-.79-.4-.86-1.99-1.97-2.89-1.54-1.25-1 .76l.25.93q.11.43-.22.7-2.85 2.31-2.68 5.62.06 1.17.92 1.9.54.45.55-.25v-.47q.01-1.07.58-.16 1.14 1.84.56 4.15l-10.49-3.72q-1.15-2.11-3.11-1.59-.49.13-.71-.13l-.37-.43q-.43-.51-.05-.93l1.91-2.12q.35-.38.07-.81-.49-.75.07-1.44a.4.2-73.1 0 0-.1-.62l-.41.38q-.39.36-.62.17l-1.48-1.2q-.75-.61-.89.21l-.15.81a.4.39 25.5 0 1-.65.22l-.66-.57q-.51-.44-.11-1.06c.85-1.32.21-3.07.97-4.18q.31-.45-.01-.9-.53-.75.34-1.28a.37.37 0 0 0 0-.63q-.29-.17-.89-.11-.44.04-.99.53-1.15 1.04-2.02-.03a.58.55-41 0 0-.82-.04l-.63.59a.55.48 51.1 0 0-.03.69q.88 1.2.54 2.87-.1.5-.56.28-1.43-.72-1.9-1.79-1.21-2.76-1.66-6.23-.06-.5-.53-.7-2.25-.93-2.49-2.56-.14-.9-.58-.13l-1.13 1.94a.98.98 0 0 0 .01 1.01l.75 1.21a.79.79 0 0 1-.08.94l-1.58 1.79q-.37.42-.27.95.1.52.53.93.52.5-.23.62l-1.49.23q-.71.11-.27.66.74.92.48 3.44a.47.47 0 0 0 .61.49q.28-.09.48-.28a.63.63 0 0 1 .83 0q2.02 1.77.68 4.85-4.82-.61-7.43-3.12c-3.98-3.84 1.49-15.06 4.03-18.72q4.33-6.23 8.3-11.43c1.39-1.82 2.91-2.66 5.29-3.13q11.12-2.19 25.45-6.43 11.66-3.45 17.06-6 8.31-3.91 12.41-12.63.74-1.55 1.55-6.81.3-1.97 2.03-2.84 1.19-.6 3.07-.11 6.1 1.58 11.66 4.44M242.62 73.63q-.03.38-.96 1.02-.49.32-.6-.3 0-.02.07-.84.06-.82.07-.84.21-.6.64-.2.81.78.78 1.16M257.75 77.66l4.13 3.54a2.42 2.42 0 0 0 1.95.55q2.01-.32 5.91-.8 3.07-.37 6 .19 4.97.97 8.41 2.02c1.89.58 3.5 1.64 3.78 3.9q.45 3.68.28 4.38-.51 2.03-.7 3.84-.06.6.49.68l.91.13a.74.73-89.4 0 1 .62.64q.36 3.06 2.14 5.72 1 1.5 1.28 3.71.64 5.1 1.26 10.82c.28 2.59-.09 5.01-.47 7.56q-1.52-3.33-2.34-4.66-.54-.88-1.51-.84a.72.71-82.8 0 0-.64.51l-.28.91q-.16.53-.7.54l-3.57.06q-.54 0-.62.55-.14 1.01.26 2.04.24.61.15 1.02l-.69 3.03q-.03.13-.11.13l-.33-.03q-.19-.02-.21-.21l-.21-1.9q-.07-.59-.66-.66-.87-.11-1.67.77-.16.16-.36.06-.11-.06-.2-.19-.14-.2-.03-.43 1.19-2.52.77-4.55-.06-.26.12-.4l.38-.32q.08-.06.09-.2.19-2.64.44-5.27.08-.88-1.03-3.07-.24-.48-.77-.49-1.01-.02-1.3 1.55a.19.19 0 0 1-.35.08q-.23-.3-.24-.42a.96.5 83 0 0-.6-.88q-.51.05-.84.26a.37.3-32.2 0 1-.48-.06l-.47-.77a.76.33-15.3 0 0-.71-.1q-.77.16-1.34-.15-.6-.34-.64.35-.07 1.31.42 2.16.24.41.07.83l-.71 1.74q-.27.65-.52 0-.61-1.57-2.65-1.61a1.27 1.27 0 0 1-1.02-1.98q2.29-3.36 2.96-9.43.07-.64.71-1.57.3-.44.07-.91-.31-.62-1.65-1.39-.51-.29-.15-.66l.74-.77q.4-.4.24-.9-.31-1.02.13-1.72a.2.19.5 0 0-.26-.27q-1.32.8-2.86.72-.54-.02-.28.55l.36.79a.47.37-18.9 0 1-.35.54c-1.46.4-2.42-.68-3.6-.42q-.62.14-.65-.49l-.13-3.48q-.03-.83-.56-.21-.32.37-.39.86-.08.51-.57.69-.6.22-1.45-.32-.44-.28-.91-.05-1.31.63-.83 1.98.21.57 1.43 2.99a.22.22 0 0 1-.16.32q-.22.04-.51-.28a.5.5 0 0 0-.45-.17q-.53.09-.53.66.01 1.08.51 2.21.21.47-.2.9l-.31.33a.55.54 71.8 0 1-.92-.48q.43-2.85-2.29-3.47-.62-.14-.7.38l-.07.42q-.07.44-.56.28l-1.95-.64a.58.55-53 0 1-.11-1q1.52-1.11 2.31-2.25.3-.42.09-.91l-1.32-3.16q-.21-.48.18-.81.66-.57 1.42-.82.74-.24.45-.84l-1.44-2.9a.68.68 0 0 1 .34-.93q.72-.32 1.94-.24.64.04.38-.48l-1.7-3.33a.65.64 67.1 0 1 .36-.91q1.68-.56 2.35-2.69"/><path d="M102.77 147.19q-9.36-3.28-19.2-3.95 1.34-3.08-.68-4.85a.63.63 0 0 0-.83 0q-.2.19-.48.28a.47.47 0 0 1-.61-.49q.26-2.52-.48-3.44-.44-.55.27-.66l1.49-.23q.75-.12.23-.62-.43-.41-.53-.93-.1-.53.27-.95l1.58-1.79a.79.79 0 0 0 .08-.94l-.75-1.21a.98.98 0 0 1-.01-1.01l1.13-1.94q.44-.77.58.13.24 1.63 2.49 2.56.47.2.53.7.45 3.47 1.66 6.23.47 1.07 1.9 1.79.46.22.56-.28.34-1.67-.54-2.87a.55.48 51.1 0 1 .03-.69l.63-.59a.58.55-41 0 1 .82.04q.87 1.07 2.02.03.55-.49.99-.53.6-.06.89.11a.37.37 0 0 1 0 .63q-.87.53-.34 1.28.32.45.01.9c-.76 1.11-.12 2.86-.97 4.18q-.4.62.11 1.06l.66.57a.4.39 25.5 0 0 .65-.22l.15-.81q.14-.82.89-.21l1.48 1.2q.23.19.62-.17l.41-.38a.4.2-73.1 0 1 .1.62q-.56.69-.07 1.44.28.43-.07.81l-1.91 2.12q-.38.42.05.93l.37.43q.22.26.71.13 1.96-.52 3.11 1.59M132.37 153.14q-9.64.17-19.11-2.23.58-2.31-.56-4.15-.57-.91-.58.16v.47q-.01.7-.55.25-.86-.73-.92-1.9-.17-3.31 2.68-5.62.33-.27.22-.7l-.25-.93q-.54-2.01 1-.76 1.11.9 1.97 2.89.23.53.79.4l.35-.08q.55-.13.55-.62l.03-3.43q.01-.63.66-.3 2.19 1.13 3.89-1.76.28-.48-.21-.67l-.52-.21q-.57-.22-.31-.78.24-.5-.07-1.2-.22-.51.29-.74 2.4-1.09 2.44-3.13.04-1.99.9-.19 1 2.08 1 5.48 0 .47.43.28 2.36-1 3.14-.44.42.3.21.82l-1.27 3.06q-.2.48.32.73 1.16.56 1.68 1.4.24.39.19.85-.23 2.18.54 4.08.2.5-.06.93l-.9 1.57a1.18 1.17-64.5 0 0 .59 1.69q2.96 1.12 1.44 4.78M154.29 153.72h-15.8l-.34-5.29q-.03-.5-.28-.93-.7-1.19-.75-2.45a1.14 1.13 62.1 0 1 .21-.72l2.07-2.84q.34-.47.67.07l1.23 1.96q.26.43.74.47.16.02.3-.02.78-.23.26-.8l-.24-.27q-.41-.45.14-.71l3.11-1.5a.74.66 66.9 0 0 .3-.89l-.4-1.05q-.21-.54.18-.92l.82-.79a.69.57 43 0 1 .85.06q.45.38.69 1.73.1.55.65.51 2.19-.13 2.15 2.57-.01.53.22.9l.4.64q.28.43.12.88-.71 2.03.58 3.83.33.45.07.92l-.44.83q-.19.36.21.71 1.52 1.32 2.28 3.1M137.22 153.52q-1.41.14-2.77-.22.44-.74.94-.91 1.47-.5 1.83 1.13"/></svg>