<svg xmlns="http://www.w3.org/2000/svg" viewBox="0 0 382 382"><g fill="none" stroke="#177730" stroke-width="2"><path d="M219.17 67.86q1.72 3.13-1.56 6.25-1.82 1.73.88 1.81 1.03.03 1.9 1.59.2.35.57.48 1.54.53.8 2.52-1.31 3.53-1.48 4.07-.25.78.52.44l1.66-.73q.49-.22.99-.01l.56.23q.4.16.84-.01 1.57-.61 2.01 1.28.2.84.37 2.75a.62.62 0 0 0 .58.56q.66.05.9-.64 1.03-2.96 1.52-4.84.17-.63.79-.63h1.36a.36.27 78 0 0 .22-.47q-.22-.65-.89-3.73-.46-2.16-2.03-1.15-.55.36-.64-.3-.27-2.16.3-2.97 1.66-2.35 1.96-3.68M239.2 71.02q-.49 1.59 1.26 2.82.1.07.22.01.11-.06.19-.18.07-.12-.04-.2-.34-.22-.64-.97-.23-.58.39-.64.68-.07 1.17-.32.61-.31.87-.22l3.95 1.4q.77.27 1.6-.34l.44-.33a.55.54 33 0 0-.22-.96q-1.19-.29-1.9-1.18M255.08 75.47l.85 2.39a.78.76-35 0 1-.14.75l-1.08 1.27a.93.82 59.1 0 0-.15.82q.52 1.79.2 3.82a.76.76 0 0 1-.61.63q-.18.04-.36.01-.57-.1-.21.68 1.06 2.31-1.04 4.1a.81.81 0 0 0 .07 1.29q1.22.83 1.44 1.93a.62.6-12.5 0 1-.47.71l-1.03.24q-.53.13-.65.65-.07.31.05.57.2.48.73.56l1.78.26q.47.08.5.58l.13 3.02q.01.07.04.1.13.1.31.07a.45.45 0 0 0 .37-.34q.27-1.25 1.63-1.81a.92.92 0 0 0 .56-.71q.18-1.23-.73-2.46a1.16 1.07 34.6 0 1-.21-.91q.13-.57 1-1.17.43-.31.87.01.42.3.83.38.52.11.95-.18l.53-.36q.63-.42.67.33l.13 2.56q.05.88.73.32.89-.74 2.16.79.51.62 1.4.66a.39.38-12.2 0 0 .36-.56l-.43-.84q-.29-.57.35-.54 1.63.06 2.82-.95.07-.06.17-.07.05 0 .27.09a.14.14 0 0 1 .05.22c-.66.86-1.05 1.38-.74 2.51q1.49 5.36-.88 10.44-.22.47.15.84.27.27.05.61-.21.32-.6.27-.19-.03-.36.04-.5.21-.15.63 1.79 2.16 3.06 3.07.46.33.52-.24.07-.78-.64-1.82-.32-.47.09-.84 1.07-.98 2.58-.86.57.04.73.59.46 1.55 2.7 2 .43.09.27-.32-.07-.19-.27-.3a.52.52 0 0 1-.01-.92q.12-.06.32-.17a.61.6 59.8 0 1 .8.21q1.22 1.95 1.16 2.4-.4 3.02-.76 7.03-.15 1.82.96 2.97.35.36.85.24.62-.15.87-.76a.87.87 0 0 0 0-.66l-.33-.79a.41.41 0 0 1 .37-.57q2.26-.12 3.67.7.48.29.57-.26.16-.97.19-1 .44-.45.84-.06 1.13 1.1 1.6 2.67.31 1.06.8 4.74a1.08 1.08 0 0 0 1.84.61q1.1-1.11.36-2.51-.24-.45.08-.84l3.67-4.58M109.47 149.63l2.05-2.99q.35-.51-.25-.61l-.75-.12q-.64-.11-.22-.59l.44-.5a.5.44 26.3 0 0-.3-.75q-.76-.19-1.68.65a.46.46 0 0 1-.71-.1q-.22-.37-.08-1.13.16-.82.88-2.31a.86.86 0 0 0-.11-.92l-.34-.42q-.46-.55.24-.71 2.92-.68 2.4-4.08-.26-1.66.96-.51l2.58 2.4q.5.45 1 .15.45-.27.17-.67l-.35-.52q-.33-.49.04-.92.92-1.05 1.75-.33.4.34.75-.03l1.86-1.93a.72.67-39.5 0 0 .12-.85q-.87-1.4-.96-2.72-.04-.57.5-.82l.77-.36q.47-.22.64-.73.42-1.26 1.43-2.03a.38.38 0 0 1 .61.31q-.03 1.85 1.06 3.54c.65 1 1.93 1.15 2.58 2.15.58.9.31 2.02.8 2.69.79 1.08.57 3.59.17 4.61a.72.72 0 0 0 .25.85q1.19.87.66 1.95-.25.52.2.88 2.01 1.59.63 3.22-.4.46-.16 1.02.2.48.71.53.33.04.78-.19.49-.24.67-.35.67-.43.71.36l.09 1.95q0 .05.03.09.13.14.3.16.29.02.38-.25.52-1.6 1.6-2.77a.66.65 47.4 0 0 .04-.84l-1.09-1.39q-.3-.38-.16-.84.87-2.84 2.86-4.39.51-.4 1.32.23.39.31.84.09 1.37-.65 3.2-.8.54-.04.57-.58.05-.73-.62-1.59a.59.55 49.3 0 1 .03-.76l1.81-1.75a.46.4-25.3 0 1 .76.22l.08 2.98q.02.9.57.25.11-.14 1.19-.67.64-.32 1.03.28.28.43.03.87-.93 1.66.45 2.58.47.31.33.86-.08.3-.18.44a.87.71 48.1 0 0 .04.92q.8 1.18.01 2.2-.34.45.1.88l.9.88q.36.35.06.84l-.46.79a.87.83 22.4 0 0 .55 1.24q3.04.8 4.14-1.28.37-.69.15-1.04-.32-.51-1.14-.6a.91.91 0 0 1-.57-1.53q1.4-1.49 2.03-2.77.23-.47.77-.54l2.61-.35a1.15 1.07-18.5 0 0 .88-1.63q-.75-1.25.71-3.76a.42.42 0 0 1 .68-.06c1.2 1.41 2.47 1.66 3.41 3.39.68 1.26 2.37 3.76 2.37 4.02q0 .07-.14.47-.18.49.31.66.87.31 1.34 1.44.22.52.77.61 1.27.21 2.37.78.58.3.32-.31l-.2-.45a.93.85 49.5 0 1 .03-.8q1.27-2.27-.92-3.24a.82.72-76.6 0 1-.42-.8l.39-4.34q.05-.47.55-.72.58-.29 1.28-1.92.58-1.36.71-3.12c.18-2.54 1.27-3.35 3.69-2.75q2.56.64 3.67.2.66-.27.57.62-.03.36.3.6.42.3.54-.21.83-3.64.05-6-.06-.18-.23-.23t-.29 0q-.31.12-.27.46.08.61.02.82-.17.55-.68.27-1.35-.72-1.37-2.49-.02-2.42-.21-4.51-.06-.68-.63-.73l-.47-.05q-.7-.07-.34-.74.73-1.32.72-3.31-.01-.52.34-.9l2.22-2.42a.54.5 43.2 0 0-.05-.72l-.29-.28a1.1 1.06-43.9 0 0-1.47.01q-1.35 1.2-2.26-1.19a.24.24 0 0 0-.36-.11l-.71.48q-.47.31-.48-.25l-.08-4.02a.39.39 0 0 0-.68-.24q-1.52 1.78-4.16 2.1a1.13 1.08-30.8 0 0-.55 1.99l.79.53q.4.26.2.76l-.71 1.77a.94.88 3.3 0 1-.65.54q-1.21.28-2.46-.07-.51-.14-.68-.63-1.01-2.92-2.55-3.5-.54-.2-.59-.79-.16-1.94 1.73-3.09a.42.42 0 0 0 .03-.7q-.33-.24-.85-.26a.85.85 0 0 1-.7-1.29q.72-1.2-.41-3.18-.3-.52-.67-.06-.16.19-.41.33-.64.33-.63-.39.02-1.45-.64-2.43-.35-.52.13-.8l6.4-3.74q.39-.23.12-.61-.45-.66-1.48-.81-.65-.09-.62-.81l.13-3.28a.88.83-9.7 0 1 .57-.76l.62-.23q.61-.23.16-.73-.71-.76-.3-1.48 1.2-2.1.81-4.03-.13-.65-.63-.21-.75.67-1.61.64-.58-.02-.6-.6l-.12-3.18M174.68 71.67q-.46 3.56 5.03.03a.77.77 0 0 0 .08-1.24q-1.07-.88-.26-1.71a.49.49 0 0 0-.08-.74q-.36-.24-1.2-.1M292.69 104.97q-.29.21-.24.5.03.22.31.26M99.92 146.23c.68-1.5 1.93-3.67.03-4.87q-.42-.27-.81-.01l-.49.33q-.68.46-.65-.37.07-1.7.94-3.45a1.32 1.32 0 0 0-.39-1.65q-1.62-1.19-3.08-.46-.53.27-.53-.32-.01-2.69.46-4.41.15-.54.04-.9l-.47-1.51q-.21-.68-.74-.26-1.28 1.04-2.2.21a1.11 1.02-62.5 0 0-1.7.62l-.69 2.52q-.14.53-.66.46-.86-.1-.89-.96-.11-2.95-.8-5.22-.4-1.28-1.14-1.81-1.87-1.31-2.11-1.63-.63-.83-.98.01l-.87 2.13q-.21.5.07.91.93 1.38 0 2.56c-1.01 1.29-1.26 2.09-1.6 3.52q-.08.34-.42.42l-.36.09q-.57.19-.37.58.74 1.46.39 4.13-.05.36.12.69.14.26.33.29a.88.59 17.6 0 0 .75-.22q.99-1.28 1.14-1.38.85-.54.46.28-.08.17-.27.43-.31.41-.04.86c1.38 2.26-.43 3.07-.48 4.98" vector-effect="non-scaling-stroke"/><path d="M178.03 68.03q-.07.54-.49.75-.39.18-.84-.09M126.39 134.4q-.1.2-.05.31.07.17.21.06.2-.17.12-.36a.15.15 0 0 0-.28-.01M151.24 150.59q.01.27.29.26.38-.03.35-.39a.28.28 0 0 0-.16-.23q-.51-.25-.48.36" vector-effect="non-scaling-stroke"/></g><path d="M219.17 67.86q1.72 3.13-1.56 6.25-1.82 1.73.88 1.81 1.03.03 1.9 1.59.2.35.57.48 1.54.53.8 2.52-1.31 3.53-1.48 4.07-.25.78.52.44l1.66-.73q.49-.22.99-.01l.56.23q.4.16.84-.01 1.57-.61 2.01 1.28.2.84.37 2.75a.62.62 0 0 0 .58.56q.66.05.9-.64 1.03-2.96 1.52-4.84.17-.63.79-.63h1.36a.36.27 78 0 0 .22-.47q-.22-.65-.89-3.73-.46-2.16-2.03-1.15-.55.36-.64-.3-.27-2.16.3-2.97 1.66-2.35 1.96-3.68 2.02.88 5.06-.06 1.37-.42 2.84.4-.49 1.59 1.26 2.82.1.07.22.01.11-.06.19-.18.07-.12-.04-.2-.34-.22-.64-.97-.23-.58.39-.64.68-.07 1.17-.32.61-.31.87-.22l3.95 1.4q.77.27 1.6-.34l.44-.33a.55.54 33 0 0-.22-.96q-1.19-.29-1.9-1.18.83-.33 1.64.23 3.61 2.5 6.95 5.33l.85 2.39a.78.76-35 0 1-.14.75l-1.08 1.27a.93.82 59.1 0 0-.15.82q.52 1.79.2 3.82a.76.76 0 0 1-.61.63q-.18.04-.36.01-.57-.1-.21.68 1.06 2.31-1.04 4.1a.81.81 0 0 0 .07 1.29q1.22.83 1.44 1.93a.62.6-12.5 0 1-.47.71l-1.03.24q-.53.13-.65.65-.07.31.05.57.2.48.73.56l1.78.26q.47.08.5.58l.13 3.02q.01.07.04.1.13.1.31.07a.45.45 0 0 0 .37-.34q.27-1.25 1.63-1.81a.92.92 0 0 0 .56-.71q.18-1.23-.73-2.46a1.16 1.07 34.6 0 1-.21-.91q.13-.57 1-1.17.43-.31.87.01.42.3.83.38.52.11.95-.18l.53-.36q.63-.42.67.33l.13 2.56q.05.88.73.32.89-.74 2.16.79.51.62 1.4.66a.39.38-12.2 0 0 .36-.56l-.43-.84q-.29-.57.35-.54 1.63.06 2.82-.95.07-.06.17-.07.05 0 .27.09a.14.14 0 0 1 .05.22c-.66.86-1.05 1.38-.74 2.51q1.49 5.36-.88 10.44-.22.47.15.84.27.27.05.61-.21.32-.6.27-.19-.03-.36.04-.5.21-.15.63 1.79 2.16 3.06 3.07.46.33.52-.24.07-.78-.64-1.82-.32-.47.09-.84 1.07-.98 2.58-.86.57.04.73.59.46 1.55 2.7 2 .43.09.27-.32-.07-.19-.27-.3a.52.52 0 0 1-.01-.92q.12-.06.32-.17a.61.6 59.8 0 1 .8.21q1.22 1.95 1.16 2.4-.4 3.02-.76 7.03-.15 1.82.96 2.97.35.36.85.24.62-.15.87-.76a.87.87 0 0 0 0-.66l-.33-.79a.41.41 0 0 1 .37-.57q2.26-.12 3.67.7.48.29.57-.26.16-.97.19-1 .44-.45.84-.06 1.13 1.1 1.6 2.67.31 1.06.8 4.74a1.08 1.08 0 0 0 1.84.61q1.1-1.11.36-2.51-.24-.45.08-.84l3.67-4.58q-.59 9.14-3.49 16.09-4.95 11.87-6.51 21.91-.47 2.97-1.37 4.18c-2.28 3.05-7.8 2.81-10.69 1.46-4.78-2.23-6.99-3.51-11.49-.55q-3.04 1.99-6.9 3.04-3.59.97-8.16.03-6.2-1.27-8.06-1.96-8.29-3.04-9.18-3.26-6.86-1.72-13.83-.54-3.55.6-11.02 1.68-6.43.93-11.14.75c-8.6-.31-18.19-2.66-26.34-6.26q-2.56-1.13-5.71-1.52-3.9-.48-3.94-.49-2.11-.26-3.96-.22-14.55.29-30.54-1.28-6.38-.62-12.48-2.88l2.05-2.99q.35-.51-.25-.61l-.75-.12q-.64-.11-.22-.59l.44-.5a.5.44 26.3 0 0-.3-.75q-.76-.19-1.68.65a.46.46 0 0 1-.71-.1q-.22-.37-.08-1.13.16-.82.88-2.31a.86.86 0 0 0-.11-.92l-.34-.42q-.46-.55.24-.71 2.92-.68 2.4-4.08-.26-1.66.96-.51l2.58 2.4q.5.45 1 .15.45-.27.17-.67l-.35-.52q-.33-.49.04-.92.92-1.05 1.75-.33.4.34.75-.03l1.86-1.93a.72.67-39.5 0 0 .12-.85q-.87-1.4-.96-2.72-.04-.57.5-.82l.77-.36q.47-.22.64-.73.42-1.26 1.43-2.03a.38.38 0 0 1 .61.31q-.03 1.85 1.06 3.54c.65 1 1.93 1.15 2.58 2.15.58.9.31 2.02.8 2.69.79 1.08.57 3.59.17 4.61a.72.72 0 0 0 .25.85q1.19.87.66 1.95-.25.52.2.88 2.01 1.59.63 3.22-.4.46-.16 1.02.2.48.71.53.33.04.78-.19.49-.24.67-.35.67-.43.71.36l.09 1.95q0 .05.03.09.13.14.3.16.29.02.38-.25.52-1.6 1.6-2.77a.66.65 47.4 0 0 .04-.84l-1.09-1.39q-.3-.38-.16-.84.87-2.84 2.86-4.39.51-.4 1.32.23.39.31.84.09 1.37-.65 3.2-.8.54-.04.57-.58.05-.73-.62-1.59a.59.55 49.3 0 1 .03-.76l1.81-1.75a.46.4-25.3 0 1 .76.22l.08 2.98q.02.9.57.25.11-.14 1.19-.67.64-.32 1.03.28.28.43.03.87-.93 1.66.45 2.58.47.31.33.86-.08.3-.18.44a.87.71 48.1 0 0 .04.92q.8 1.18.01 2.2-.34.45.1.88l.9.88q.36.35.06.84l-.46.79a.87.83 22.4 0 0 .55 1.24q3.04.8 4.14-1.28.37-.69.15-1.04-.32-.51-1.14-.6a.91.91 0 0 1-.57-1.53q1.4-1.49 2.03-2.77.23-.47.77-.54l2.61-.35a1.15 1.07-18.5 0 0 .88-1.63q-.75-1.25.71-3.76a.42.42 0 0 1 .68-.06c1.2 1.41 2.47 1.66 3.41 3.39.68 1.26 2.37 3.76 2.37 4.02q0 .07-.14.47-.18.49.31.66.87.31 1.34 1.44.22.52.77.61 1.27.21 2.37.78.58.3.32-.31l-.2-.45a.93.85 49.5 0 1 .03-.8q1.27-2.27-.92-3.24a.82.72-76.6 0 1-.42-.8l.39-4.34q.05-.47.55-.72.58-.29 1.28-1.92.58-1.36.71-3.12c.18-2.54 1.27-3.35 3.69-2.75q2.56.64 3.67.2.66-.27.57.62-.03.36.3.6.42.3.54-.21.83-3.64.05-6-.06-.18-.23-.23t-.29 0q-.31.12-.27.46.08.61.02.82-.17.55-.68.27-1.35-.72-1.37-2.49-.02-2.42-.21-4.51-.06-.68-.63-.73l-.47-.05q-.7-.07-.34-.74.73-1.32.72-3.31-.01-.52.34-.9l2.22-2.42a.54.5 43.2 0 0-.05-.72l-.29-.28a1.1 1.06-43.9 0 0-1.47.01q-1.35 1.2-2.26-1.19a.24.24 0 0 0-.36-.11l-.71.48q-.47.31-.48-.25l-.08-4.02a.39.39 0 0 0-.68-.24q-1.52 1.78-4.16 2.1a1.13 1.08-30.8 0 0-.55 1.99l.79.53q.4.26.2.76l-.71 1.77a.94.88 3.3 0 1-.65.54q-1.21.28-2.46-.07-.51-.14-.68-.63-1.01-2.92-2.55-3.5-.54-.2-.59-.79-.16-1.94 1.73-3.09a.42.42 0 0 0 .03-.7q-.33-.24-.85-.26a.85.85 0 0 1-.7-1.29q.72-1.2-.41-3.18-.3-.52-.67-.06-.16.19-.41.33-.64.33-.63-.39.02-1.45-.64-2.43-.35-.52.13-.8l6.4-3.74q.39-.23.12-.61-.45-.66-1.48-.81-.65-.09-.62-.81l.13-3.28a.88.83-9.7 0 1 .57-.76l.62-.23q.61-.23.16-.73-.71-.76-.3-1.48 1.2-2.1.81-4.03-.13-.65-.63-.21-.75.67-1.61.64-.58-.02-.6-.6l-.12-3.18q2.75.81 5.21 2.29 1.26.76 3.94.02.46-.13.73-.54l2.82-4.39q-.46 3.56 5.03.03a.77.77 0 0 0 .08-1.24q-1.07-.88-.26-1.71a.49.49 0 0 0-.08-.74q-.36-.24-1.2-.1c3.4-1.28 6.27.71 9.01 2.33a1.77 1.77 0 0 0 1.57.12q2.2-.89 4.54-1.98 3.19-1.48 4.6-1.8 3.55-.79 8.9.06 2.78.44 6.01-.28 1.89-.42 3.26-.03 1.62.46 3.03 1.53m-92.78 66.54q-.1.2-.05.31.07.17.21.06.2-.17.12-.36a.15.15 0 0 0-.28-.01m24.85 16.19q.01.27.29.26.38-.03.35-.39a.28.28 0 0 0-.16-.23q-.51-.25-.48.36"/><path fill="#2eee60" d="M219.17 67.86q6.54.27 12.13 2.82-.3 1.33-1.96 3.68-.57.81-.3 2.97.09.66.64.3 1.57-1.01 2.03 1.15.67 3.08.89 3.73a.36.27 78 0 1-.22.47h-1.36q-.62 0-.79.63-.49 1.88-1.52 4.84-.24.69-.9.64a.62.62 0 0 1-.58-.56q-.17-1.91-.37-2.75-.44-1.89-2.01-1.28-.44.17-.84.01l-.56-.23q-.5-.21-.99.01l-1.66.73q-.77.34-.52-.44.17-.54 1.48-4.07.74-1.99-.8-2.52-.37-.13-.57-.48-.87-1.56-1.9-1.59-2.7-.08-.88-1.81 3.28-3.12 1.56-6.25"/><path d="M178.03 68.03q-.07.54-.49.75-.39.18-.84-.09.54-.6 1.33-.66"/><path fill="#2eee60" d="M178.25 67.91q.84-.14 1.2.1a.49.49 0 0 1 .08.74q-.81.83.26 1.71a.77.77 0 0 1-.08 1.24q-5.49 3.53-5.03-.03.58-2.07 2.02-2.98.45.27.84.09.42-.21.49-.75zM246.49 69.91q.71.89 1.9 1.18a.55.54 33 0 1 .22.96l-.44.33q-.83.61-1.6.34l-3.95-1.4q-.26-.09-.87.22-.49.25-1.17.32-.62.06-.39.64.3.75.64.97.11.08.04.2-.08.12-.19.18-.12.06-.22-.01-1.75-1.23-1.26-2.82zM161.98 74.29l.12 3.18q.02.58.6.6.86.03 1.61-.64.5-.44.63.21.39 1.93-.81 4.03-.41.72.3 1.48.45.5-.16.73l-.62.23a.88.83-9.7 0 0-.57.76l-.13 3.28q-.03.72.62.81 1.03.15 1.48.81.27.38-.12.61l-6.4 3.74q-.48.28-.13.8.66.98.64 2.43-.01.72.63.39.25-.14.41-.33.37-.46.67.06 1.13 1.98.41 3.18a.85.85 0 0 0 .7 1.29q.52.02.85.26a.42.42 0 0 1-.03.7q-1.89 1.15-1.73 3.09.05.59.59.79 1.54.58 2.55 3.5.17.49.68.63 1.25.35 2.46.07a.94.88 3.3 0 0 .65-.54l.71-1.77q.2-.5-.2-.76l-.79-.53a1.13 1.08-30.8 0 1 .55-1.99q2.64-.32 4.16-2.1a.39.39 0 0 1 .68.24l.08 4.02q.01.56.48.25l.71-.48a.24.24 0 0 1 .36.11q.91 2.39 2.26 1.19a1.1 1.06-43.9 0 1 1.47-.01l.29.28a.54.5 43.2 0 1 .05.72l-2.22 2.42q-.35.38-.34.9.01 1.99-.72 3.31-.36.67.34.74l.47.05q.57.05.63.73.19 2.09.21 4.51.02 1.77 1.37 2.49.51.28.68-.27.06-.21-.02-.82-.04-.34.27-.46.12-.05.29 0t.23.23q.78 2.36-.05 6-.12.51-.54.21-.33-.24-.3-.6.09-.89-.57-.62-1.11.44-3.67-.2c-2.42-.6-3.51.21-3.69 2.75q-.13 1.76-.71 3.12-.7 1.63-1.28 1.92-.5.25-.55.72l-.39 4.34a.82.72-76.6 0 0 .42.8q2.19.97.92 3.24a.93.85 49.5 0 0-.03.8l.2.45q.26.61-.32.31-1.1-.57-2.37-.78-.55-.09-.77-.61-.47-1.13-1.34-1.44-.49-.17-.31-.66.14-.4.14-.47c0-.26-1.69-2.76-2.37-4.02-.94-1.73-2.21-1.98-3.41-3.39a.42.42 0 0 0-.68.06q-1.46 2.51-.71 3.76a1.15 1.07-18.5 0 1-.88 1.63l-2.61.35q-.54.07-.77.54-.63 1.28-2.03 2.77a.91.91 0 0 0 .57 1.53q.82.09 1.14.6.22.35-.15 1.04-1.1 2.08-4.14 1.28a.87.83 22.4 0 1-.55-1.24l.46-.79q.3-.49-.06-.84l-.9-.88q-.44-.43-.1-.88.79-1.02-.01-2.2a.87.71 48.1 0 1-.04-.92q.1-.14.18-.44.14-.55-.33-.86-1.38-.92-.45-2.58.25-.44-.03-.87-.39-.6-1.03-.28-1.08.53-1.19.67-.55.65-.57-.25l-.08-2.98a.46.4-25.3 0 0-.76-.22l-1.81 1.75a.59.55 49.3 0 0-.03.76q.67.86.62 1.59-.03.54-.57.58-1.83.15-3.2.8-.45.22-.84-.09-.81-.63-1.32-.23-1.99 1.55-2.86 4.39-.14.46.16.84l1.09 1.39a.66.65 47.4 0 1-.04.84q-1.08 1.17-1.6 2.77-.09.27-.38.25-.17-.02-.3-.16-.03-.04-.03-.09l-.09-1.95q-.04-.79-.71-.36-.18.11-.67.35-.45.23-.78.19-.51-.05-.71-.53-.24-.56.16-1.02 1.38-1.63-.63-3.22-.45-.36-.2-.88.53-1.08-.66-1.95a.72.72 0 0 1-.25-.85c.4-1.02.62-3.53-.17-4.61-.49-.67-.22-1.79-.8-2.69-.65-1-1.93-1.15-2.58-2.15q-1.09-1.69-1.06-3.54a.38.38 0 0 0-.61-.31q-1.01.77-1.43 2.03-.17.51-.64.73l-.77.36q-.54.25-.5.82.09 1.32.96 2.72a.72.67-39.5 0 1-.12.85l-1.86 1.93q-.35.37-.75.03-.83-.72-1.75.33-.37.43-.04.92l.35.52q.28.4-.17.67-.5.3-1-.15l-2.58-2.4q-1.22-1.15-.96.51.52 3.4-2.4 4.08-.7.16-.24.71l.34.42a.86.86 0 0 1 .11.92q-.72 1.49-.88 2.31-.14.76.08 1.13a.46.46 0 0 0 .71.1q.92-.84 1.68-.65a.5.44 26.3 0 1 .3.75l-.44.5q-.42.48.22.59l.75.12q.6.1.25.61l-2.05 2.99-9.55-3.4c.68-1.5 1.93-3.67.03-4.87q-.42-.27-.81-.01l-.49.33q-.68.46-.65-.37.07-1.7.94-3.45a1.32 1.32 0 0 0-.39-1.65q-1.62-1.19-3.08-.46-.53.27-.53-.32-.01-2.69.46-4.41.15-.54.04-.9l-.47-1.51q-.21-.68-.74-.26-1.28 1.04-2.2.21a1.11 1.02-62.5 0 0-1.7.62l-.69 2.52q-.14.53-.66.46-.86-.1-.89-.96-.11-2.95-.8-5.22-.4-1.28-1.14-1.81-1.87-1.31-2.11-1.63-.63-.83-.98.01l-.87 2.13q-.21.5.07.91.93 1.38 0 2.56c-1.01 1.29-1.26 2.09-1.6 3.52q-.08.34-.42.42l-.36.09q-.57.19-.37.58.74 1.46.39 4.13-.05.36.12.69.14.26.33.29a.88.59 17.6 0 0 .75-.22q.99-1.28 1.14-1.38.85-.54.46.28-.08.17-.27.43-.31.41-.04.86c1.38 2.26-.43 3.07-.48 4.98-3.46-.46-7.59-2.88-7.17-6.85q.86-8.01 5.42-14.57 5.37-7.72 8.88-12.1c1.05-1.3 2.65-2.02 4.44-2.39q18.85-3.84 37.98-10.47 4.97-1.72 8.64-4.28 9.06-6.33 10.13-17.24.2-2.08 2.27-2.87 1.25-.48 3.09.01 3.28.85 6.39 2.23M292.69 104.97q-.29.21-.24.5.03.22.31.26l1.52 13.72-3.67 4.58q-.32.39-.08.84.74 1.4-.36 2.51a1.08 1.08 0 0 1-1.84-.61q-.49-3.68-.8-4.74-.47-1.57-1.6-2.67-.4-.39-.84.06-.03.03-.19 1-.09.55-.57.26-1.41-.82-3.67-.7a.41.41 0 0 0-.37.57l.33.79a.87.87 0 0 1 0 .66q-.25.61-.87.76-.5.12-.85-.24-1.11-1.15-.96-2.97.36-4.01.76-7.03.06-.45-1.16-2.4a.61.6 59.8 0 0-.8-.21q-.2.11-.32.17a.52.52 0 0 0 .01.92q.2.11.27.3.16.41-.27.32-2.24-.45-2.7-2-.16-.55-.73-.59-1.51-.12-2.58.86-.41.37-.09.84.71 1.04.64 1.82-.06.57-.52.24-1.27-.91-3.06-3.07-.35-.42.15-.63.17-.07.36-.04.39.05.6-.27.22-.34-.05-.61-.37-.37-.15-.84 2.37-5.08.88-10.44c-.31-1.13.08-1.65.74-2.51a.14.14 0 0 0-.05-.22q-.22-.09-.27-.09-.1.01-.17.07-1.19 1.01-2.82.95-.64-.03-.35.54l.43.84a.39.38-12.2 0 1-.36.56q-.89-.04-1.4-.66-1.27-1.53-2.16-.79-.68.56-.73-.32l-.13-2.56q-.04-.75-.67-.33l-.53.36q-.43.29-.95.18-.41-.08-.83-.38-.44-.32-.87-.01-.87.6-1 1.17a1.16 1.07 34.6 0 0 .21.91q.91 1.23.73 2.46a.92.92 0 0 1-.56.71q-1.36.56-1.63 1.81a.45.45 0 0 1-.37.34q-.18.03-.31-.07-.03-.03-.04-.1l-.13-3.02q-.03-.5-.5-.58l-1.78-.26q-.53-.08-.73-.56-.12-.26-.05-.57.12-.52.65-.65l1.03-.24a.62.6-12.5 0 0 .47-.71q-.22-1.1-1.44-1.93a.81.81 0 0 1-.07-1.29q2.1-1.79 1.04-4.1-.36-.78.21-.68.18.03.36-.01a.76.76 0 0 0 .61-.63q.32-2.03-.2-3.82a.93.82 59.1 0 1 .15-.82l1.08-1.27a.78.76-35 0 0 .14-.75l-.85-2.39 7.19 6a1.26 1.26 0 0 0 .93.28c3.84-.38 7.98-1.36 11.72-.73q5.62.94 9.87 2.38c1.56.53 2.82 1.62 3.1 3.47q.58 3.74.13 5.62-.61 2.53-.6 2.76a.71.5-87.4 0 0 .41.64l.9.19q.53.11.74.65z"/><path d="m292.69 104.97.07.76q-.28-.04-.31-.26-.05-.29.24-.5M99.92 146.23q-6.19-1.93-9.19-2.18-4.43-.35-8.82-1.23c.05-1.91 1.86-2.72.48-4.98q-.27-.45.04-.86.19-.26.27-.43.39-.82-.46-.28-.15.1-1.14 1.38a.88.59 17.6 0 1-.75.22q-.19-.03-.33-.29-.17-.33-.12-.69.35-2.67-.39-4.13-.2-.39.37-.58l.36-.09q.34-.08.42-.42c.34-1.43.59-2.23 1.6-3.52q.93-1.18 0-2.56-.28-.41-.07-.91l.87-2.13q.35-.84.98-.01.24.32 2.11 1.63.74.53 1.14 1.81.69 2.27.8 5.22.03.86.89.96.52.07.66-.46l.69-2.52a1.11 1.02-62.5 0 1 1.7-.62q.92.83 2.2-.21.53-.42.74.26l.47 1.51q.11.36-.04.9-.47 1.72-.46 4.41 0 .59.53.32 1.46-.73 3.08.46a1.32 1.32 0 0 1 .39 1.65q-.87 1.75-.94 3.45-.03.83.65.37l.49-.33q.39-.26.81.01c1.9 1.2.65 3.37-.03 4.87"/><path fill="#2eee60" d="M126.39 134.4a.15.15 0 0 1 .28.01q.08.19-.12.36-.14.11-.21-.06-.05-.11.05-.31M151.24 150.59q-.03-.61.48-.36a.28.28 0 0 1 .16.23q.03.36-.35.39-.28.01-.29-.26"/></svg>