<svg xmlns="http://www.w3.org/2000/svg" viewBox="0 0 382 382"><g fill="none" stroke="#447a15" stroke-width="2"><path d="M219.54 67.86q.62.76.52 1.82-.07.74-.8 1.54-.9.98-2.15 2.33-.41.45-.05.95.47.65 2.09.52.96-.07.37.77l-.19.28q-.32.46.02.79l2.24 2.23q.32.32.09.72-1.6 2.74-1.84 3.49-.2.64.03 1.24.24.6.75.15l1.12-1q.43-.37.86-.26l2.9.8q.58.16.5.71-.37 2.5 1.13 3.83a.44.44 0 0 0 .73-.29q.22-2.22 1.5-4.13a.91.84-71.9 0 1 .72-.4l1.01-.01q.69 0 .39-.73-.65-1.58-.14-3.5.1-.39-.04-.77-.14-.35-.38-.57a.59.59 0 0 0-.87.09q-.21.29-.5.33-.58.07-.59-.51-.12-4.42 1.93-7.81M231.98 71.07q.07.25.24.4.21.18.45.04t.33-.07M239.18 70.83q-.54 1.62.25 2.81.15.23.45.31.34.1.6.02.57-.16.26-.6l-.55-.8a.44.39 65 0 1 .2-.66q1.57-.37 1.82-1.11M242.73 70.68q.4 1.33.19 2.66-.09.55.45.42.22-.05.35-.19.28-.32.7-.2 1.63.47 3.37-.78.45-.32.15-.78l-1.36-2.07M252.71 73.82q-.66.26-.56.77.11.53.65.49.61-.04 1.2-.35M255.19 75.65l.4 1.6a1.03 1.03 0 0 1-.17.86q-2.19 3.01-.6 5.62a.7.7 0 0 1-.16.91q-.36.28-.85.29a.56.56 0 0 0-.47.86q1.53 2.47-.56 3.26a.56.49-22.4 0 0-.34.69l1.15 2.53q.24.52-.19.91l-.8.74q-.44.4-.01.88 1.63 1.85 1.34 4.37-.17 1.51.92.4l3.12-3.15q.31-.31.03-.72l-.8-1.2q-.3-.45-.13-.94.13-.36.85-.98a.77.77 0 0 1 .91-.07q1.39.88 2.42-.06.64-.59.68.3l.09 2.53q.03.71.66.36l.44-.23q.49-.27.87.09 1.02.99 1.59 1.32 1.51.87.9-.74l-.19-.5q-.21-.56.39-.58l1.39-.04a.75.71 83.8 0 1 .73.61l.87 4.71a.9.63-44.4 0 1-.1.53q-.67 1.28-.06 2.27.39.63-.34.75-.93.16-.59 1.11a1.26 1.26 0 0 1-.07.99q-1.53 2.99-.45 6.37.17.53.67.32l1.88-.78q.45-.18.08-.56-.89-.9-.66-1.62.22-.66.76-.21.72.61 1.26 0 .49-.54.79.34.41 1.17 2.39 1.87.49.17.64-.33l.25-.84a.5.48-58.1 0 1 .83-.21c1.48 1.66 2.11 2.99 1.32 5.32q-.66 1.98-.83 4.41a3.63 3.63 0 0 0 .6 2.26q.44.67.54.72.94.5 1.11-.33.5-2.43 1.01-2.97 1-1.1 1.22.39.13.86.91 1.1.62.18.8-.37l.18-.56q.88-2.75 2.36-.14c.96 1.68.78 3.97.94 7.12q.03.51.48.75.64.35 1.57.12a1 1 0 0 0 .62-1.48l-.49-.82q-.3-.5.17-.77 2.51-1.44 2.65-4.58a.29.29 0 0 1 .49-.2q.78.72 1.66.71M108.65 149.33q.51-.98 1.68-1.52.44-.21.18-.63-.67-1.09-.54-2.42a.46.46 0 0 0-.72-.43q-1.23.83-2.04-.66-.24-.44-.08-.88l1.1-2.94q.16-.44.65-.68 1.79-.9 1.55-3.38-.05-.59.1-.88.16-.29.35-.5a.68.54-47.7 0 1 .87-.15l2.58 2.51q.41.41.56-.06.22-.69.13-1.8a.68.68 0 0 1 .59-.73q2.6-.34 3.87-2.13.29-.4.08-.84-.59-1.24-.63-2.1-.02-.57.51-.82l1.01-.48a.8.71-12.6 0 0 .45-.63l.09-1.51a.61.58 20.9 0 1 .97-.4c1.39 1.04.98 3.11 1.03 5.19a.34.34 0 0 0 .53.28q1.71-1.06 2.84-.78.56.15.59.73.05 1.17-.42 2.19a1.1 1.1 0 0 0 0 .91q1.67 3.76 1 7.72-.09.51.34.82 1.86 1.34.34 3.19-.3.37-.09 1a.38.38 0 0 0 .61.16q.6-.56 1.2-.63.6-.08.82.53l.43 1.22q.19.52.61.11 2.05-2.02 1.9-4.34-.04-.54-.58-.62-.8-.12-1.04-.71-.22-.56.25-1.04l2.77-2.83q.39-.4.82.02l1 .99q1.03 1.03 1.05-.4.01-.81 1.03-.97 1.35-.2 1.42-.22.43-.08.2-.4l-.22-.31q-.23-.33-.09-.64.96-2.11 1.46-2.79 1.07-1.48 1.14.38l.03.99a1.06 1.06 0 0 0 1.2 1.02q1.3-.17 1.75.45.32.44 0 .88-1.12 1.49.41 2.47.44.29.28.78-.05.17-.14.33-.26.48-.03.97.58 1.24.09 2.56a.72.72 0 0 0 .27.85q1.47 1.02.59 1.78-.48.42-.02.88l1.58 1.58q.42.41.87.05 1.9-1.57 2.26-2.74.19-.61-.44-.72-1.79-.3-1.67-1.36a.66.65-15.9 0 1 .25-.44q1.39-1.1 1.91-2.7.3-.92.93-.21l1.2 1.37a.28.28 0 0 0 .48-.11q.43-1.41 1.76-1.89.48-.17.47-.68-.03-1.79.05-2.69.27-3.06 2.25-.25.34.48 1.99 1.87.24.21.35.51 1.32 3.69 2.95 5.66.34.41.06.79l-.36.49a.51.43 15.9 0 0 .46.69q.4.01 1.38-.74.81-.61 1.1.43.03.1.19.2.35.22.53-.15 1.02-2.16-1.33-6.16-.4-.68.27-1.08 1.02-.61.56-1.79-.22-.57.36-.77 1.28-.45 1.99-2.77.19-.61-.16-1.14-.6-.89.81-2.84.29-.4.56.01.09.13.2.24.43.38.66-.3l.21-.62q.22-.66.72-.27l1.04.82a1.09.82-25.1 0 0 .77.16q.93-.15 2.62.46a1.37 1.37 0 0 0 1.43-.31q2.68-2.63.29-4.55-.53-.43-.76.21-.09.26-.35.42-.52.33-.66-.3l-.58-2.63q-.09-.39.13-1 .61-1.75-.69-3.3c-2.72-3.21.36-5.37 2.36-7.31a1 .88-30.9 0 0 .28-.9l-.48-1.9q-.07-.28-.35-.26-.13.01-.24.07-.23.11-.32.44l-.23.82q-.2.7-.67.21-1.11-1.13-2.78-1.72a.75.74-80.9 0 1-.5-.69l-.07-3.71q-.01-.73-.6-.31-1.42 1.02-3.29.76-.54-.07-.86.37-1.75 2.37-.25 5.25a1.04.98-16.4 0 1-.84 1.43l-1.22.14a1.82 1.78 71.5 0 1-1.74-.89l-1.6-2.75a1.36 1.01 2.4 0 0-.63-.51q-1.22-.48-.92-1.99.53-2.65-.03-5.24c-.35-1.67-2-3.79-2.63-4.83q-.33-.53.05-.84 1.07-.88 1.77-2.55.22-.52.79-.55l2.39-.09a.65.65 0 0 0 .54-.98q-1.08-1.83-1.01-4.06.02-.4-.21-.71l-.22-.3q-.48-.67.35-.7l.37-.02q.5-.01.62-.51.57-2.43.77-4.61.08-.99-.78-2.49-.32-.57-.76-.19l-.31.28a.49.43 67.5 0 1-.73-.37q-.1-.76-.65-1.32-.44-.46.06-.85.44-.34 1.12-.56M174.45 71.91q.8.81 1.97 1.29.54.23.6.81.04.4.27.72a.37.27 37 0 0 .61.01l.12-1.5q.04-.49.28-.9.8-1.37.74-2.65-.03-.57-.54-.32-1.44.72-1.84-.7M99.71 146.17l1.14-3.02q.2-.51-.15-.88l-2.34-2.55q-.41-.43-.26-.95.2-.66.7-1.27.31-.37.13-.81-.19-.46-.62-.5a1.53 1.53 0 0 1-1.3-1.06q-.33-1.01-.87-1.23a.56.56 0 0 0-.74.37q-.39 1.3-.76 1.51-.7.41-.68-.26.03-1.53.77-2.88a1.85 1.85 0 0 0 .22-.91q-.01-.75-.54-1.94a.91.9-42.2 0 1 .05-.82l.22-.39q.3-.52-.29-.66-.33-.08-.62.12-1.77 1.22-3.87 1.01-.87-.08-.49.71.58 1.2.49 1.22a2.35 1.93-8.5 0 1-2.77-1.67q-.18-2.67-1.26-4.66-.31-.58-.84-.21l-.23.15q-.53.37-.63-.26-.24-1.53-.26-1.6-.35-1-1.1-.82-.53.13-.68.65-.43 1.57.24 3.42.19.51 0 1l-1.69 4.37q-.2.5-.7.76-1.69.87-.56 2.99.22.42 0 .85-.63 1.26 1.01 1.89a.43.43 0 0 0 .58-.4q-.01-.68.26-1.12.37-.6.64.06 1.62 3.95-.79 6.23M292.68 104.96q-.32.16-.25.48.06.26.31.32" vector-effect="non-scaling-stroke"/></g><path d="M219.54 67.86q.62.76.52 1.82-.07.74-.8 1.54-.9.98-2.15 2.33-.41.45-.05.95.47.65 2.09.52.96-.07.37.77l-.19.28q-.32.46.02.79l2.24 2.23q.32.32.09.72-1.6 2.74-1.84 3.49-.2.64.03 1.24.24.6.75.15l1.12-1q.43-.37.86-.26l2.9.8q.58.16.5.71-.37 2.5 1.13 3.83a.44.44 0 0 0 .73-.29q.22-2.22 1.5-4.13a.91.84-71.9 0 1 .72-.4l1.01-.01q.69 0 .39-.73-.65-1.58-.14-3.5.1-.39-.04-.77-.14-.35-.38-.57a.59.59 0 0 0-.87.09q-.21.29-.5.33-.58.07-.59-.51-.12-4.42 1.93-7.81l1.09.6q.07.25.24.4.21.18.45.04t.33-.07q3.31-1.31 6.18-.61-.54 1.62.25 2.81.15.23.45.31.34.1.6.02.57-.16.26-.6l-.55-.8a.44.39 65 0 1 .2-.66q1.57-.37 1.82-1.11.53.09.52-.12.4 1.33.19 2.66-.09.55.45.42.22-.05.35-.19.28-.32.7-.2 1.63.47 3.37-.78.45-.32.15-.78l-1.36-2.07q3.23.68 6.13 4.08-.66.26-.56.77.11.53.65.49.61-.04 1.2-.35.85.35 1.19.92l.4 1.6a1.03 1.03 0 0 1-.17.86q-2.19 3.01-.6 5.62a.7.7 0 0 1-.16.91q-.36.28-.85.29a.56.56 0 0 0-.47.86q1.53 2.47-.56 3.26a.56.49-22.4 0 0-.34.69l1.15 2.53q.24.52-.19.91l-.8.74q-.44.4-.01.88 1.63 1.85 1.34 4.37-.17 1.51.92.4l3.12-3.15q.31-.31.03-.72l-.8-1.2q-.3-.45-.13-.94.13-.36.85-.98a.77.77 0 0 1 .91-.07q1.39.88 2.42-.06.64-.59.68.3l.09 2.53q.03.71.66.36l.44-.23q.49-.27.87.09 1.02.99 1.59 1.32 1.51.87.9-.74l-.19-.5q-.21-.56.39-.58l1.39-.04a.75.71 83.8 0 1 .73.61l.87 4.71a.9.63-44.4 0 1-.1.53q-.67 1.28-.06 2.27.39.63-.34.75-.93.16-.59 1.11a1.26 1.26 0 0 1-.07.99q-1.53 2.99-.45 6.37.17.53.67.32l1.88-.78q.45-.18.08-.56-.89-.9-.66-1.62.22-.66.76-.21.72.61 1.26 0 .49-.54.79.34.41 1.17 2.39 1.87.49.17.64-.33l.25-.84a.5.48-58.1 0 1 .83-.21c1.48 1.66 2.11 2.99 1.32 5.32q-.66 1.98-.83 4.41a3.63 3.63 0 0 0 .6 2.26q.44.67.54.72.94.5 1.11-.33.5-2.43 1.01-2.97 1-1.1 1.22.39.13.86.91 1.1.62.18.8-.37l.18-.56q.88-2.75 2.36-.14c.96 1.68.78 3.97.94 7.12q.03.51.48.75.64.35 1.57.12a1 1 0 0 0 .62-1.48l-.49-.82q-.3-.5.17-.77 2.51-1.44 2.65-4.58a.29.29 0 0 1 .49-.2q.78.72 1.66.71-.71 6.77-3.01 13.05l-4.62 12.66q-.68 1.87-2.3 10.81-.52 2.9-1.43 4.15c-2.21 3.07-7.79 2.78-10.68 1.46-5.27-2.39-6.83-3.4-11.68-.42q-5.38 3.31-10.8 3.49-1.27.04-8.73-1.56-3.25-.7-8.44-2.8-3.98-1.62-8.65-2.24-4.14-.54-8.77.25-1.42.25-14.05 2.05c-11.36 1.62-24.03-1.15-34.4-5.61q-3.41-1.46-6.92-1.89-7.07-.87-11.66-.59-5.21.33-12.17-.24-3.99-.33-14.22-.93-5.23-.31-13.08-3.27.51-.98 1.68-1.52.44-.21.18-.63-.67-1.09-.54-2.42a.46.46 0 0 0-.72-.43q-1.23.83-2.04-.66-.24-.44-.08-.88l1.1-2.94q.16-.44.65-.68 1.79-.9 1.55-3.38-.05-.59.1-.88.16-.29.35-.5a.68.54-47.7 0 1 .87-.15l2.58 2.51q.41.41.56-.06.22-.69.13-1.8a.68.68 0 0 1 .59-.73q2.6-.34 3.87-2.13.29-.4.08-.84-.59-1.24-.63-2.1-.02-.57.51-.82l1.01-.48a.8.71-12.6 0 0 .45-.63l.09-1.51a.61.58 20.9 0 1 .97-.4c1.39 1.04.98 3.11 1.03 5.19a.34.34 0 0 0 .53.28q1.71-1.06 2.84-.78.56.15.59.73.05 1.17-.42 2.19a1.1 1.1 0 0 0 0 .91q1.67 3.76 1 7.72-.09.51.34.82 1.86 1.34.34 3.19-.3.37-.09 1a.38.38 0 0 0 .61.16q.6-.56 1.2-.63.6-.08.82.53l.43 1.22q.19.52.61.11 2.05-2.02 1.9-4.34-.04-.54-.58-.62-.8-.12-1.04-.71-.22-.56.25-1.04l2.77-2.83q.39-.4.82.02l1 .99q1.03 1.03 1.05-.4.01-.81 1.03-.97 1.35-.2 1.42-.22.43-.08.2-.4l-.22-.31q-.23-.33-.09-.64.96-2.11 1.46-2.79 1.07-1.48 1.14.38l.03.99a1.06 1.06 0 0 0 1.2 1.02q1.3-.17 1.75.45.32.44 0 .88-1.12 1.49.41 2.47.44.29.28.78-.05.17-.14.33-.26.48-.03.97.58 1.24.09 2.56a.72.72 0 0 0 .27.85q1.47 1.02.59 1.78-.48.42-.02.88l1.58 1.58q.42.41.87.05 1.9-1.57 2.26-2.74.19-.61-.44-.72-1.79-.3-1.67-1.36a.66.65-15.9 0 1 .25-.44q1.39-1.1 1.91-2.7.3-.92.93-.21l1.2 1.37a.28.28 0 0 0 .48-.11q.43-1.41 1.76-1.89.48-.17.47-.68-.03-1.79.05-2.69.27-3.06 2.25-.25.34.48 1.99 1.87.24.21.35.51 1.32 3.69 2.95 5.66.34.41.06.79l-.36.49a.51.43 15.9 0 0 .46.69q.4.01 1.38-.74.81-.61 1.1.43.03.1.19.2.35.22.53-.15 1.02-2.16-1.33-6.16-.4-.68.27-1.08 1.02-.61.56-1.79-.22-.57.36-.77 1.28-.45 1.99-2.77.19-.61-.16-1.14-.6-.89.81-2.84.29-.4.56.01.09.13.2.24.43.38.66-.3l.21-.62q.22-.66.72-.27l1.04.82a1.09.82-25.1 0 0 .77.16q.93-.15 2.62.46a1.37 1.37 0 0 0 1.43-.31q2.68-2.63.29-4.55-.53-.43-.76.21-.09.26-.35.42-.52.33-.66-.3l-.58-2.63q-.09-.39.13-1 .61-1.75-.69-3.3c-2.72-3.21.36-5.37 2.36-7.31a1 .88-30.9 0 0 .28-.9l-.48-1.9q-.07-.28-.35-.26-.13.01-.24.07-.23.11-.32.44l-.23.82q-.2.7-.67.21-1.11-1.13-2.78-1.72a.75.74-80.9 0 1-.5-.69l-.07-3.71q-.01-.73-.6-.31-1.42 1.02-3.29.76-.54-.07-.86.37-1.75 2.37-.25 5.25a1.04.98-16.4 0 1-.84 1.43l-1.22.14a1.82 1.78 71.5 0 1-1.74-.89l-1.6-2.75a1.36 1.01 2.4 0 0-.63-.51q-1.22-.48-.92-1.99.53-2.65-.03-5.24c-.35-1.67-2-3.79-2.63-4.83q-.33-.53.05-.84 1.07-.88 1.77-2.55.22-.52.79-.55l2.39-.09a.65.65 0 0 0 .54-.98q-1.08-1.83-1.01-4.06.02-.4-.21-.71l-.22-.3q-.48-.67.35-.7l.37-.02q.5-.01.62-.51.57-2.43.77-4.61.08-.99-.78-2.49-.32-.57-.76-.19l-.31.28a.49.43 67.5 0 1-.73-.37q-.1-.76-.65-1.32-.44-.46.06-.85.44-.34 1.12-.56 2.4.72 4.68 2.08 1.26.75 3.94.02.47-.13.73-.54l2.58-4.15q.8.81 1.97 1.29.54.23.6.81.04.4.27.72a.37.27 37 0 0 .61.01l.12-1.5q.04-.49.28-.9.8-1.37.74-2.65-.03-.57-.54-.32-1.44.72-1.84-.7c3.58-2.55 7.43-.51 10.45 1.5a1.88 1.88 0 0 0 1.74.18c2.89-1.17 6.43-3.15 9.11-3.76q3.54-.81 8.91.05 2.67.44 5.94-.27c2.61-.56 4.55.19 6.73 1.49"/><path fill="#88f429" d="M230.89 70.47q-2.05 3.39-1.93 7.81.01.58.59.51.29-.04.5-.33a.59.59 0 0 1 .87-.09q.24.22.38.57.14.38.04.77-.51 1.92.14 3.5.3.73-.39.73l-1.01.01a.91.84-71.9 0 0-.72.4q-1.28 1.91-1.5 4.13a.44.44 0 0 1-.73.29q-1.5-1.33-1.13-3.83.08-.55-.5-.71l-2.9-.8q-.43-.11-.86.26l-1.12 1q-.51.45-.75-.15-.23-.6-.03-1.24.24-.75 1.84-3.49.23-.4-.09-.72l-2.24-2.23q-.34-.33-.02-.79l.19-.28q.59-.84-.37-.77-1.62.13-2.09-.52-.36-.5.05-.95 1.25-1.35 2.15-2.33.73-.8.8-1.54.1-1.06-.52-1.82 6.45.44 11.35 2.61M176.66 68.67q.4 1.42 1.84.7.51-.25.54.32.06 1.28-.74 2.65-.24.41-.28.9l-.12 1.5a.37.27 37 0 1-.61-.01q-.23-.32-.27-.72-.06-.58-.6-.81-1.17-.48-1.97-1.29.77-2.09 2.21-3.24M246.58 69.74l1.36 2.07q.3.46-.15.78-1.74 1.25-3.37.78-.42-.12-.7.2-.13.14-.35.19-.54.13-.45-.42.21-1.33-.19-2.66zM242.21 70.8q-.25.74-1.82 1.11a.44.39 65 0 0-.2.66l.55.8q.31.44-.26.6-.26.08-.6-.02-.3-.08-.45-.31-.79-1.19-.25-2.81 1.43.32 3.03-.03M233 71.44q-.09-.07-.33.07t-.45-.04q-.17-.15-.24-.4.62.01 1.02.37M162.52 74.5q-.68.22-1.12.56-.5.39-.06.85.55.56.65 1.32a.49.43 67.5 0 0 .73.37l.31-.28q.44-.38.76.19.86 1.5.78 2.49-.2 2.18-.77 4.61-.12.5-.62.51l-.37.02q-.83.03-.35.7l.22.3q.23.31.21.71-.07 2.23 1.01 4.06a.65.65 0 0 1-.54.98l-2.39.09q-.57.03-.79.55-.7 1.67-1.77 2.55-.38.31-.05.84c.63 1.04 2.28 3.16 2.63 4.83q.56 2.59.03 5.24-.3 1.51.92 1.99a1.36 1.01 2.4 0 1 .63.51l1.6 2.75a1.82 1.78 71.5 0 0 1.74.89l1.22-.14a1.04.98-16.4 0 0 .84-1.43q-1.5-2.88.25-5.25.32-.44.86-.37 1.87.26 3.29-.76.59-.42.6.31l.07 3.71a.75.74-80.9 0 0 .5.69q1.67.59 2.78 1.72.47.49.67-.21l.23-.82q.09-.33.32-.44.11-.06.24-.07.28-.02.35.26l.48 1.9a1 .88-30.9 0 1-.28.9c-2 1.94-5.08 4.1-2.36 7.31q1.3 1.55.69 3.3-.22.61-.13 1l.58 2.63q.14.63.66.3.26-.16.35-.42.23-.64.76-.21 2.39 1.92-.29 4.55a1.37 1.37 0 0 1-1.43.31q-1.69-.61-2.62-.46a1.09.82-25.1 0 1-.77-.16l-1.04-.82q-.5-.39-.72.27l-.21.62q-.23.68-.66.3-.11-.11-.2-.24-.27-.41-.56-.01-1.41 1.95-.81 2.84.35.53.16 1.14-.71 2.32-1.99 2.77-.58.2-.36.77.46 1.18-.56 1.79-.67.4-.27 1.08 2.35 4 1.33 6.16-.18.37-.53.15-.16-.1-.19-.2-.29-1.04-1.1-.43-.98.75-1.38.74a.51.43 15.9 0 1-.46-.69l.36-.49q.28-.38-.06-.79-1.63-1.97-2.95-5.66-.11-.3-.35-.51-1.65-1.39-1.99-1.87-1.98-2.81-2.25.25-.08.9-.05 2.69.01.51-.47.68-1.33.48-1.76 1.89a.28.28 0 0 1-.48.11l-1.2-1.37q-.63-.71-.93.21-.52 1.6-1.91 2.7a.66.65-15.9 0 0-.25.44q-.12 1.06 1.67 1.36.63.11.44.72-.36 1.17-2.26 2.74-.45.36-.87-.05l-1.58-1.58q-.46-.46.02-.88.88-.76-.59-1.78a.72.72 0 0 1-.27-.85q.49-1.32-.09-2.56-.23-.49.03-.97.09-.16.14-.33.16-.49-.28-.78-1.53-.98-.41-2.47.32-.44 0-.88-.45-.62-1.75-.45a1.06 1.06 0 0 1-1.2-1.02l-.03-.99q-.07-1.86-1.14-.38-.5.68-1.46 2.79-.14.31.09.64l.22.31q.23.32-.2.4-.07.02-1.42.22-1.02.16-1.03.97-.02 1.43-1.05.4l-1-.99q-.43-.42-.82-.02l-2.77 2.83q-.47.48-.25 1.04.24.59 1.04.71.54.08.58.62.15 2.32-1.9 4.34-.42.41-.61-.11l-.43-1.22q-.22-.61-.82-.53-.6.07-1.2.63a.38.38 0 0 1-.61-.16q-.21-.63.09-1 1.52-1.85-.34-3.19-.43-.31-.34-.82.67-3.96-1-7.72a1.1 1.1 0 0 1 0-.91q.47-1.02.42-2.19-.03-.58-.59-.73-1.13-.28-2.84.78a.34.34 0 0 1-.53-.28c-.05-2.08.36-4.15-1.03-5.19a.61.58 20.9 0 0-.97.4l-.09 1.51a.8.71-12.6 0 1-.45.63l-1.01.48q-.53.25-.51.82.04.86.63 2.1.21.44-.08.84-1.27 1.79-3.87 2.13a.68.68 0 0 0-.59.73q.09 1.11-.13 1.8-.15.47-.56.06l-2.58-2.51a.68.54-47.7 0 0-.87.15q-.19.21-.35.5-.15.29-.1.88.24 2.48-1.55 3.38-.49.24-.65.68l-1.1 2.94q-.16.44.08.88.81 1.49 2.04.66a.46.46 0 0 1 .72.43q-.13 1.33.54 2.42.26.42-.18.63-1.17.54-1.68 1.52l-8.94-3.16 1.14-3.02q.2-.51-.15-.88l-2.34-2.55q-.41-.43-.26-.95.2-.66.7-1.27.31-.37.13-.81-.19-.46-.62-.5a1.53 1.53 0 0 1-1.3-1.06q-.33-1.01-.87-1.23a.56.56 0 0 0-.74.37q-.39 1.3-.76 1.51-.7.41-.68-.26.03-1.53.77-2.88a1.85 1.85 0 0 0 .22-.91q-.01-.75-.54-1.94a.91.9-42.2 0 1 .05-.82l.22-.39q.3-.52-.29-.66-.33-.08-.62.12-1.77 1.22-3.87 1.01-.87-.08-.49.71.58 1.2.49 1.22a2.35 1.93-8.5 0 1-2.77-1.67q-.18-2.67-1.26-4.66-.31-.58-.84-.21l-.23.15q-.53.37-.63-.26-.24-1.53-.26-1.6-.35-1-1.1-.82-.53.13-.68.65-.43 1.57.24 3.42.19.51 0 1l-1.69 4.37q-.2.5-.7.76-1.69.87-.56 2.99.22.42 0 .85-.63 1.26 1.01 1.89a.43.43 0 0 0 .58-.4q-.01-.68.26-1.12.37-.6.64.06 1.62 3.95-.79 6.23-4.04-.77-5.59-3.47-1.2-2.08-.42-5.86 1.28-6.27 4.85-11.56 3.34-4.96 8.4-11.61c1.56-2.05 2.98-2.75 5.72-3.32q13.85-2.86 28.16-7.3 8.58-2.65 14.31-5.19 2.89-1.29 6.71-4.78 5.99-5.48 6.95-14.49.22-2.15 2.22-2.96 1.28-.51 3.21 0 3.49.94 6.88 2.43M252.71 73.82q.75.24 1.29.91-.59.31-1.2.35-.54.04-.65-.49-.1-.51.56-.77M255.19 75.65l6.58 5.47a2.73 2.73 0 0 0 2.12.6c3.4-.47 7.56-1.3 11.18-.68q6.61 1.14 10.13 2.56 2.17.87 2.62 2.89.95 4.29-.46 8.62-.18.57.44.73l1.08.28a.86.78 3.6 0 1 .62.64q.65 3.75 2.87 6.92.23.33.27.74l.04.54q-.32.16-.25.48.06.26.31.32 1.48 7.65 1.52 15.2-.88.01-1.66-.71a.29.29 0 0 0-.49.2q-.14 3.14-2.65 4.58-.47.27-.17.77l.49.82a1 1 0 0 1-.62 1.48q-.93.23-1.57-.12-.45-.24-.48-.75c-.16-3.15.02-5.44-.94-7.12q-1.48-2.61-2.36.14l-.18.56q-.18.55-.8.37-.78-.24-.91-1.1-.22-1.49-1.22-.39-.51.54-1.01 2.97-.17.83-1.11.33-.1-.05-.54-.72a3.63 3.63 0 0 1-.6-2.26q.17-2.43.83-4.41c.79-2.33.16-3.66-1.32-5.32a.5.48-58.1 0 0-.83.21l-.25.84q-.15.5-.64.33-1.98-.7-2.39-1.87-.3-.88-.79-.34-.54.61-1.26 0-.54-.45-.76.21-.23.72.66 1.62.37.38-.08.56l-1.88.78q-.5.21-.67-.32-1.08-3.38.45-6.37a1.26 1.26 0 0 0 .07-.99q-.34-.95.59-1.11.73-.12.34-.75-.61-.99.06-2.27a.9.63-44.4 0 0 .1-.53l-.87-4.71a.75.71 83.8 0 0-.73-.61l-1.39.04q-.6.02-.39.58l.19.5q.61 1.61-.9.74-.57-.33-1.59-1.32-.38-.36-.87-.09l-.44.23q-.63.35-.66-.36l-.09-2.53q-.04-.89-.68-.3-1.03.94-2.42.06a.77.77 0 0 0-.91.07q-.72.62-.85.98-.17.49.13.94l.8 1.2q.28.41-.03.72l-3.12 3.15q-1.09 1.11-.92-.4.29-2.52-1.34-4.37-.43-.48.01-.88l.8-.74q.43-.39.19-.91l-1.15-2.53a.56.49-22.4 0 1 .34-.69q2.09-.79.56-3.26a.56.56 0 0 1 .47-.86q.49-.01.85-.29a.7.7 0 0 0 .16-.91q-1.59-2.61.6-5.62a1.03 1.03 0 0 0 .17-.86z"/><path d="m292.68 104.96.06.8q-.25-.06-.31-.32-.07-.32.25-.48M99.71 146.17q-5.55-1.73-9.22-2.14-6.54-.75-9.37-1.42 2.41-2.28.79-6.23-.27-.66-.64-.06-.27.44-.26 1.12a.43.43 0 0 1-.58.4q-1.64-.63-1.01-1.89.22-.43 0-.85-1.13-2.12.56-2.99.5-.26.7-.76l1.69-4.37q.19-.49 0-1-.67-1.85-.24-3.42.15-.52.68-.65.75-.18 1.1.82.02.07.26 1.6.1.63.63.26l.23-.15q.53-.37.84.21 1.08 1.99 1.26 4.66a2.35 1.93-8.5 0 0 2.77 1.67q.09-.02-.49-1.22-.38-.79.49-.71 2.1.21 3.87-1.01.29-.2.62-.12.59.14.29.66l-.22.39a.91.9-42.2 0 0-.05.82q.53 1.19.54 1.94a1.85 1.85 0 0 1-.22.91q-.74 1.35-.77 2.88-.02.67.68.26.37-.21.76-1.51a.56.56 0 0 1 .74-.37q.54.22.87 1.23a1.53 1.53 0 0 0 1.3 1.06q.43.04.62.5.18.44-.13.81-.5.61-.7 1.27-.15.52.26.95l2.34 2.55q.35.37.15.88z"/></svg>