<svg xmlns="http://www.w3.org/2000/svg" viewBox="0 0 382 382"><g fill="none" stroke="#416a36" stroke-width="2"><path d="m216.51 66.45.7 2.03a.38.38 0 0 0 .63.14q.29-.3.33-1.29M220.23 67.96q-.67.57-.94 1.34-.19.56.32.87l2.04 1.24q.43.26.37.77-.3 2.42-2 4.3-.29.32-.7.19-.22-.07-.33-.17a.46.19 39.9 0 0-.55-.17q-.47 1.36-2.24 2.05a.22.22 0 0 0 .01.41q1.3.4 2.91 1.72.39.32.8.04.53-.35.91-.45a.77.72-22.2 0 1 .83.32l1.26 2.07a.51.51 0 0 0 .71.16l.28-.18q1.06-.69 1.09.59.01.71-.22 9.08c-.04 1.62-.66 2.97-1.46 4.25q-.31.51.27.6 1.25.19 1.9-.12.61-.29.04-.66-.18-.11-.28-.3-.32-.57.31-.75.93-.26 1.62-.77.37-.27.73.01l.39.29q.57.44.63-.27.04-.53-.17-.93-.59-1.11-.25-1.39.29-.24.14-.62l-.51-1.29a.84.82 78.4 0 1 .74-1.15l1.49-.03q.65-.01.65-.61v-1.62a.98.9 24.8 0 1 1.66-.53l3.1 3.2a.89.8 56.7 0 0 .89.24q1.21-.45.96-1.31-.61-2.06-2.13-2.7-.5-.22-.51-.83l-.03-2.96q0-.61.53-.8 1.37-.48 2.06-1.09.38-.34.13-.78-.83-1.49-1.86-.7-.66.51-.75-.29l-.03-.31q-.05-.38-.38-.57l-2.21-1.25a.61.57-62.4 0 1-.21-.77l1.95-4.02M234.55 71.09q.26.29.56.41.37.15.6-.08t.29-.71M241.15 71.3q1.02.9.26 2.12-.36.58.34.56l1.85-.03a.25.22-13.9 0 0 .23-.34q-.12-.2-.19-.26a1.37 1.25-31.4 0 1 .65-2.24q1.78-.48 1.8 1.37a.31.31 0 0 0 .54.2q.82-.88 1.52-.26.35.31.76.07l1.36-.79M258.42 78.15q-1.23 1.5-2.97 2.13-.62.22-.52.82l.08.46q.11.6.58.27l.67-.45q.7-.48.71.33l.02 2.5q.01.7-.75.72l-1.72.05q-.74.02-.32.59c.61.83 1.57 1.41 1.75 2.38q.27 1.39-.06 2.43-.15.48-.64.54l-1.8.21a.62.59 86.3 0 0-.52.62q0 .14.04.31.07.32.37.45 2.12.94 2.53 3.43.08.51-.28.89-1.64 1.75-2.53 3.96a.8.78 24.1 0 0 .39.99l1.81.89q.64.31.69-.22l.16-1.67a.89.85 87.1 0 1 .67-.77q.57-.12 1.27.09.56.17.78.7.58 1.36 1.39 2.01.39.31.57-.15.21-.52-.2-1.53a1.33 1.33 0 0 1 0-.98q.82-2.12-.33-4.81-.31-.72.5-1.75a.73.73 0 0 1 .97-.16q.67.44 1.45 0 .6-.35 1.01.21.82 1.16.86 2.69.02.84.65.3 1.3-1.11 2.56.01.7.61 1.18.3.46-.3.18-.76l-.35-.56q-.32-.5.28-.62 1.1-.23 1.9.18a.9.9 0 0 1 .48.79q.02 1.16-.61 2.36a.64.64 0 0 0 .21.82q2.16 1.44.72 3.29-.34.44-.17.97.12.38.55.78a.35.35 0 0 1-.15.6q-1.17.28-1.49.97a.75.75 0 0 0 .16.87q.41.38.56.7.2.44-.29.62l-.38.14q-.41.16-.64-.2-.35-.56-.67-.68a.22.21 2.2 0 0-.3.26l1.41 4.54q.14.46-.17.83-.81.99-2.19 1.32-.24.06-.23.38 0 .14.3.31a.62.62 0 0 0 .64-.02q1.2-.76 1.84-.27.5.39.96 0l.31-.26q.5-.42.62.24l.15.75q.14.78.62.17 1.71-2.16.75-3.8-.3-.52.29-.63.99-.18 1.5-.6.62-.49.66.35l.1 1.6q.03.66.58.36l3.12-1.71q.56-.3.94.29l1.78 2.81q.19.31.02.75-1.08 2.78-.74 5.48a.6.58 82.8 0 1-.49.67l-.37.04q-.68.09-.39.7l1.08 2.37q.14.3-.01.78-.59 1.95-1.87 2.24-1.09.24-.08.67l1.77.76q.42.18.59-.32.43-1.27 1.12-2a.49.49 0 0 1 .85.26q.26 1.78 1.54 2.26.64.25.42-.4-.94-2.84-.38-3.46.51-.57.18-.85-.3-.27-.71-.17-1.43.32-.49-.8.82-.99 1.99-1.85a.23.22 65.6 0 1 .35.13q.21.93.27 1.21.2.93.61.05l.41-.86q.24-.52.75-.67 1.2-.35 1.34-1.61a.66.66 0 0 1 .97-.5l2.2 1.2M162.8 154.68q-.99-.9.01-2.15a.92.91 21.3 0 0-.66-1.48l-1.43-.11q-.69-.05-.33-.64 1.75-2.86 1.68-5.82a.35.35 0 0 1 .6-.26q1.78 1.77 2.26 2.18 1.45 1.23.97-.62-.11-.43-.84-1.61-.02-.02-.06-.29-.03-.16 0-.39a.35.32 23.5 0 1 .55-.19l.63.48q.42.31.66-.27l.94-2.22q.22-.51-.06-.99-.85-1.47-.11-2.66a.56.56 0 0 0-.09-.7q-.32-.3-.19-.71a.5.5 0 0 1 .77-.25q1.57 1.18 4.55 1.22a.21.21 0 0 1 .13.38q-.72.52-.6.96.13.51.65.43.8-.13 1.48.12.55.21.58.8l.13 2.41a.51.49-19.7 0 0 .81.36q1.37-.96 2.02-.12a.71.71 0 0 1-.03.9q-1.61 1.81.28 3.26 1.02.78.48-.39-.3-.63-.3-.64-.24-.64.47-.64l3.41-.01q.62 0 .67.61l.23 2.48q.06.6.62.78l.57.19a.84.83-84.7 0 1 .56.68q.26 2.01-.32 3.28-.72 1.58.62.48 1.11-.91.82-4.21a1.25 1.25 0 0 1 .89-1.31q1.24-.37 2-1.4.43-.57-.25-.57l-2.66-.01a.95.88 18.9 0 1-.79-1.46q1.61-1.87.33-3.77-.31-.45.11-.8 2.02-1.76 3.18-4.67.26-.65-.42-.46l-3.34.96q-.46.13-.78-.14l-.23-.2q-.5-.42-.77.22-.17.41-.25.58-.26.56-.6.71-.43.18-.88-.05-.31-.16-.14-.49l.13-.24a1.27 1.16 52 0 0 .07-.92l-1.26-4.06a1.28 1.2 54.1 0 1 .14-1.05q.61-.94 1.84-1.23.52-.11.32-.61-.75-1.92-.66-4.68.02-.77-.68-.34l-.67.4a.39.38 74.5 0 1-.57-.34l-.02-2.05q0-.56.46-.85.91-.58 2.8-3.23.55-.76 3.06-1.94a.51.51 0 0 1 .73.48q-.03.74.38 1.04.49.35.51-.28l.17-4.99q.02-.67.55-.26l.77.6a.8.79 49.8 0 0 .86.08l2.29-1.21q.58-.3.23-.63l-1.8-1.69q-.41-.39-.8-.12l-.66.46a.29.29 0 0 1-.46-.2q-.29-1.91-1.64-2.55a1.11 1.11 0 0 0-.94 0q-1.68.77-.85 2.26.28.51-.29.66-.83.21-1.67 0a.72.72 0 0 1-.54-.76q.19-2.3-2.72-2.86-.28-.06-.42.19-.1.17-.3.27-.7.34-.56-.44.01-.06.27-.26.29-.21.22-.56-.6-3.02.94-5.81.31-.55-.32-.61-1.08-.1-1.19-1.01-.06-.52.29-.91.78-.89.57-1.9-.05-.22-.31-.2-.37.02-.41.39-.14 1.53-1.3 1.55-.64.02-.86.61-.28.75.73 1.66a.37.37 0 0 1-.24.64h-1.23q-.49 0-.86.29-.98.78-1.81.26-.47-.3-.78.17-.66 1-2.12 1.25-.54.1-.37.59l1.49 4.41q.19.55-.34.84l-1.87.98q-.59.31-.62-.36l-.08-1.57q-.03-.58-.53-.76-.83-.28-2.01-.06-1.85.36-.81-1.22.57-.87 1.41-2.91a1.34 1.21-67.4 0 0-.6-1.69l-.75-.32q-.5-.21-.56-.78-.11-1.02-.23-1.25-.19-.4-.72-.73-1.28-.8-1.98-2.55-.23-.55.36-.55l1.88.03q.77.01.33-.66l-.53-.79a.29.22-15.8 0 1 .26-.36q4.08-.35 3.5-3.31-.12-.67-.73-.83l-.47-.13a.52.38 13.8 0 1-.4-.48q.01-.1.17-.26.39-.42.15-.88l-.66-1.27q-.25-.48.37-.91.14-.1 1.06-.31.52-.12.22-.52l-.49-.65q-.33-.45-.05-.89 1.13-1.78.81-3.99M175.69 69.64q.31 1.26 1.57 1.44.57.08.65.64.11.78.64 1.39.31.36.05.75-.42.61-.42.73-.03.69.52.32.96-.65 1.35-2.26.11-.49.58-.66.72-.27 1.47.6.79.94.98 1.02 1.72.78.74-1-1.22-2.21-.77-4.63M164.98 75.51q-.06.41.02.77.1.48.44.56.42.09.82-.61M154.8 153.7q-.82-.36-1.33-.83-.37-.34-.06-.7l1.27-1.44a1.01 1.01 0 0 0 .22-.93q-.26-.93-1.13-1.6-.4-.31-.29-.8.74-3.16-1.21-6.63-.28-.49-.83-.42-.38.06-.71.23-.6.33-.65-.33l-.19-2.71a.37.37 0 0 0-.62-.25l-1.85 1.63a.65.58 55.2 0 0-.09.77l.44.78a2.07 1.62-14.3 0 1-1.9 2.48q-1.8.14-2 1.18-.26 1.32-1.08.14-.43-.62-.96-.93-.48-.28-.89.1-1.7 1.58-2.91 4.66a.45.35-89 0 0 .45.61l.75-.46q.52-.31.88.19l.3.42q.28.39.07.86-.93 2.1.36 4.18M135.5 153.45l-2.49-2.96q-.4-.48-.95-.16l-.37.23q-.68.4-.67-.38l.03-1.31q.01-.52.47-.71l1.05-.42a.62.6 70.6 0 0 .34-.75q-.8-2.58-2.35-3.35-.68-.33.01-.65.49-.22.74-.23a.66.53.9 0 0 .63-.49q.1-1.05-.11-1.52-.13-.31-1.16-.83-1.06-.54-.52-2.04.84-2.3.93-2.9.14-.88-.7-.59-.99.34-1.76.05-.64-.24-.65.76-.01.5-.45.59-.58.13-.55-.47.22-3.95-.75-6.09-1.13-2.51-1.19.14-.03 1.04-1.57 2.93-.21.26-.34.95-.19.93.44 1.98.26.44-.1.8l-2.66 2.62q-.42.41-.82.04l-.26-.25q-.57-.55-.65.22l-.27 2.82a.69.67-58.2 0 1-1.26.31q-1.2-2-2.81-2.52-.55-.18-.63.39l-.17 1.33a1.45 1.45 0 0 1-.39.81q-1.3 1.36-2.06 4.13-.17.61.05 1.18.44 1.11.47 1.18.68 1.34 1.02-.16.01-.01.11-.77a.27.26 21.3 0 1 .42-.18q.99.69 2.17.91.42.09.12.39-.92.93-1.08 2.82M99.71 146.12q.53-1.55.97-3.28.8-3.1-2.12-3.61-.62-.11-.59.5l.07 1.82q.01.26-.27.29l-.31.02a.31.26-4.8 0 1-.33-.24q-.11-1.53-.67-2.84-.2-.46.03-.92 1.45-2.87.48-5.24-.25-.6-.77-.2-1.17.94-2.1.18a1.16 1.16 0 0 0-1.8.46q-.81 1.95.38 3.39.86 1.04-.27.31-1.07-.71-1.54-.04a.38.38 0 0 1-.66-.06q-.83-1.84-.8-2.3c.08-1.48-.6-3.7-.96-4.65q-.15-.42.02-.71l.22-.39a.51.47 8.1 0 0-.56-.7q-.54.1-1.31.68-.72.55-.77-.35l-.1-1.51q-.05-.82-.74-.38-1.76 1.13-.81 2.62a.83.8 39.5 0 1 .09.73l-1.78 4.73q-.13.36-.54.52l-.47.19q-.49.19-.62.68-.51 1.86 1.04 2.71.29.15.59.03.13-.06.25-.14.47-.35.82.13 1.58 2.14 1.01 4.79" vector-effect="non-scaling-stroke"/><path d="M218.15 83.41a.27.27 0 0 0 .28.41q.2-.04.31-.25a.3.3 0 0 0-.05-.35q-.27-.28-.54.19M234.43 89.13q-.56.35-.08.63a.31.31 0 0 0 .47-.27q0-.16-.05-.26-.11-.24-.34-.1M171.99 97.65q.09 1.08.3 1.23.5.33.85-.16.59-.85.56-1.2-.03-.36-.74-1.11-.42-.43-.87-.02-.18.18-.1 1.26M186.24 104.29q-.13.15-.14.35-.01.17.14.28.18.14.34.11.36-.06.29-.44-.02-.13-.21-.32-.22-.22-.42.02" vector-effect="non-scaling-stroke"/></g><path d="m216.51 66.45.7 2.03a.38.38 0 0 0 .63.14q.29-.3.33-1.29l2.06.63q-.67.57-.94 1.34-.19.56.32.87l2.04 1.24q.43.26.37.77-.3 2.42-2 4.3-.29.32-.7.19-.22-.07-.33-.17a.46.19 39.9 0 0-.55-.17q-.47 1.36-2.24 2.05a.22.22 0 0 0 .01.41q1.3.4 2.91 1.72.39.32.8.04.53-.35.91-.45a.77.72-22.2 0 1 .83.32l1.26 2.07a.51.51 0 0 0 .71.16l.28-.18q1.06-.69 1.09.59.01.71-.22 9.08c-.04 1.62-.66 2.97-1.46 4.25q-.31.51.27.6 1.25.19 1.9-.12.61-.29.04-.66-.18-.11-.28-.3-.32-.57.31-.75.93-.26 1.62-.77.37-.27.73.01l.39.29q.57.44.63-.27.04-.53-.17-.93-.59-1.11-.25-1.39.29-.24.14-.62l-.51-1.29a.84.82 78.4 0 1 .74-1.15l1.49-.03q.65-.01.65-.61v-1.62a.98.9 24.8 0 1 1.66-.53l3.1 3.2a.89.8 56.7 0 0 .89.24q1.21-.45.96-1.31-.61-2.06-2.13-2.7-.5-.22-.51-.83l-.03-2.96q0-.61.53-.8 1.37-.48 2.06-1.09.38-.34.13-.78-.83-1.49-1.86-.7-.66.51-.75-.29l-.03-.31q-.05-.38-.38-.57l-2.21-1.25a.61.57-62.4 0 1-.21-.77l1.95-4.02q-.42 0 .36-.22.26.29.56.41.37.15.6-.08t.29-.71q2.45-.38 5.15.59 1.02.9.26 2.12-.36.58.34.56l1.85-.03a.25.22-13.9 0 0 .23-.34q-.12-.2-.19-.26a1.37 1.25-31.4 0 1 .65-2.24q1.78-.48 1.8 1.37a.31.31 0 0 0 .54.2q.82-.88 1.52-.26.35.31.76.07l1.36-.79 8.15 6.45q-1.23 1.5-2.97 2.13-.62.22-.52.82l.08.46q.11.6.58.27l.67-.45q.7-.48.71.33l.02 2.5q.01.7-.75.72l-1.72.05q-.74.02-.32.59c.61.83 1.57 1.41 1.75 2.38q.27 1.39-.06 2.43-.15.48-.64.54l-1.8.21a.62.59 86.3 0 0-.52.62q0 .14.04.31.07.32.37.45 2.12.94 2.53 3.43.08.51-.28.89-1.64 1.75-2.53 3.96a.8.78 24.1 0 0 .39.99l1.81.89q.64.31.69-.22l.16-1.67a.89.85 87.1 0 1 .67-.77q.57-.12 1.27.09.56.17.78.7.58 1.36 1.39 2.01.39.31.57-.15.21-.52-.2-1.53a1.33 1.33 0 0 1 0-.98q.82-2.12-.33-4.81-.31-.72.5-1.75a.73.73 0 0 1 .97-.16q.67.44 1.45 0 .6-.35 1.01.21.82 1.16.86 2.69.02.84.65.3 1.3-1.11 2.56.01.7.61 1.18.3.46-.3.18-.76l-.35-.56q-.32-.5.28-.62 1.1-.23 1.9.18a.9.9 0 0 1 .48.79q.02 1.16-.61 2.36a.64.64 0 0 0 .21.82q2.16 1.44.72 3.29-.34.44-.17.97.12.38.55.78a.35.35 0 0 1-.15.6q-1.17.28-1.49.97a.75.75 0 0 0 .16.87q.41.38.56.7.2.44-.29.62l-.38.14q-.41.16-.64-.2-.35-.56-.67-.68a.22.21 2.2 0 0-.3.26l1.41 4.54q.14.46-.17.83-.81.99-2.19 1.32-.24.06-.23.38 0 .14.3.31a.62.62 0 0 0 .64-.02q1.2-.76 1.84-.27.5.39.96 0l.31-.26q.5-.42.62.24l.15.75q.14.78.62.17 1.71-2.16.75-3.8-.3-.52.29-.63.99-.18 1.5-.6.62-.49.66.35l.1 1.6q.03.66.58.36l3.12-1.71q.56-.3.94.29l1.78 2.81q.19.31.02.75-1.08 2.78-.74 5.48a.6.58 82.8 0 1-.49.67l-.37.04q-.68.09-.39.7l1.08 2.37q.14.3-.01.78-.59 1.95-1.87 2.24-1.09.24-.08.67l1.77.76q.42.18.59-.32.43-1.27 1.12-2a.49.49 0 0 1 .85.26q.26 1.78 1.54 2.26.64.25.42-.4-.94-2.84-.38-3.46.51-.57.18-.85-.3-.27-.71-.17-1.43.32-.49-.8.82-.99 1.99-1.85a.23.22 65.6 0 1 .35.13q.21.93.27 1.21.2.93.61.05l.41-.86q.24-.52.75-.67 1.2-.35 1.34-1.61a.66.66 0 0 1 .97-.5l2.2 1.2q-.62 6.97-2.94 13.43-2.2 6.16-4.53 12.28-.83 2.15-2.53 11.58-.52 2.87-1.43 4.14c-2.17 3-7.71 2.79-10.55 1.52-3.58-1.6-5.36-2.91-8.56-2.15q-.83.19-3.17 1.58-6.6 3.91-11.33 3.5-8.37-.74-19.66-5.41-1.08-.45-6.89-1.16-3.23-.4-6.92.18-2.07.33-11.54 1.72-7.15 1.05-11.64.87-9.38-.39-18.24-3.2-5.97-1.89-11.61-4.41-.99-.9.01-2.15a.92.91 21.3 0 0-.66-1.48l-1.43-.11q-.69-.05-.33-.64 1.75-2.86 1.68-5.82a.35.35 0 0 1 .6-.26q1.78 1.77 2.26 2.18 1.45 1.23.97-.62-.11-.43-.84-1.61-.02-.02-.06-.29-.03-.16 0-.39a.35.32 23.5 0 1 .55-.19l.63.48q.42.31.66-.27l.94-2.22q.22-.51-.06-.99-.85-1.47-.11-2.66a.56.56 0 0 0-.09-.7q-.32-.3-.19-.71a.5.5 0 0 1 .77-.25q1.57 1.18 4.55 1.22a.21.21 0 0 1 .13.38q-.72.52-.6.96.13.51.65.43.8-.13 1.48.12.55.21.58.8l.13 2.41a.51.49-19.7 0 0 .81.36q1.37-.96 2.02-.12a.71.71 0 0 1-.03.9q-1.61 1.81.28 3.26 1.02.78.48-.39-.3-.63-.3-.64-.24-.64.47-.64l3.41-.01q.62 0 .67.61l.23 2.48q.06.6.62.78l.57.19a.84.83-84.7 0 1 .56.68q.26 2.01-.32 3.28-.72 1.58.62.48 1.11-.91.82-4.21a1.25 1.25 0 0 1 .89-1.31q1.24-.37 2-1.4.43-.57-.25-.57l-2.66-.01a.95.88 18.9 0 1-.79-1.46q1.61-1.87.33-3.77-.31-.45.11-.8 2.02-1.76 3.18-4.67.26-.65-.42-.46l-3.34.96q-.46.13-.78-.14l-.23-.2q-.5-.42-.77.22-.17.41-.25.58-.26.56-.6.71-.43.18-.88-.05-.31-.16-.14-.49l.13-.24a1.27 1.16 52 0 0 .07-.92l-1.26-4.06a1.28 1.2 54.1 0 1 .14-1.05q.61-.94 1.84-1.23.52-.11.32-.61-.75-1.92-.66-4.68.02-.77-.68-.34l-.67.4a.39.38 74.5 0 1-.57-.34l-.02-2.05q0-.56.46-.85.91-.58 2.8-3.23.55-.76 3.06-1.94a.51.51 0 0 1 .73.48q-.03.74.38 1.04.49.35.51-.28l.17-4.99q.02-.67.55-.26l.77.6a.8.79 49.8 0 0 .86.08l2.29-1.21q.58-.3.23-.63l-1.8-1.69q-.41-.39-.8-.12l-.66.46a.29.29 0 0 1-.46-.2q-.29-1.91-1.64-2.55a1.11 1.11 0 0 0-.94 0q-1.68.77-.85 2.26.28.51-.29.66-.83.21-1.67 0a.72.72 0 0 1-.54-.76q.19-2.3-2.72-2.86-.28-.06-.42.19-.1.17-.3.27-.7.34-.56-.44.01-.06.27-.26.29-.21.22-.56-.6-3.02.94-5.81.31-.55-.32-.61-1.08-.1-1.19-1.01-.06-.52.29-.91.78-.89.57-1.9-.05-.22-.31-.2-.37.02-.41.39-.14 1.53-1.3 1.55-.64.02-.86.61-.28.75.73 1.66a.37.37 0 0 1-.24.64h-1.23q-.49 0-.86.29-.98.78-1.81.26-.47-.3-.78.17-.66 1-2.12 1.25-.54.1-.37.59l1.49 4.41q.19.55-.34.84l-1.87.98q-.59.31-.62-.36l-.08-1.57q-.03-.58-.53-.76-.83-.28-2.01-.06-1.85.36-.81-1.22.57-.87 1.41-2.91a1.34 1.21-67.4 0 0-.6-1.69l-.75-.32q-.5-.21-.56-.78-.11-1.02-.23-1.25-.19-.4-.72-.73-1.28-.8-1.98-2.55-.23-.55.36-.55l1.88.03q.77.01.33-.66l-.53-.79a.29.22-15.8 0 1 .26-.36q4.08-.35 3.5-3.31-.12-.67-.73-.83l-.47-.13a.52.38 13.8 0 1-.4-.48q.01-.1.17-.26.39-.42.15-.88l-.66-1.27q-.25-.48.37-.91.14-.1 1.06-.31.52-.12.22-.52l-.49-.65q-.33-.45-.05-.89 1.13-1.78.81-3.99 1.6.24 2.75-.09 1.02-.3 1.84-1.73 1.52-2.64 3.17-5.32.31 1.26 1.57 1.44.57.08.65.64.11.78.64 1.39.31.36.05.75-.42.61-.42.73-.03.69.52.32.96-.65 1.35-2.26.11-.49.58-.66.72-.27 1.47.6.79.94.98 1.02 1.72.78.74-1-1.22-2.21-.77-4.63l4.07 2.23a2.15 2.15 0 0 0 1.92.08q5.45-2.44 6.59-2.89 4.35-1.71 8.14-1.18 6.28.89 8.1.46 3.16-.76 4.64-.23m1.64 16.96a.27.27 0 0 0 .28.41q.2-.04.31-.25a.3.3 0 0 0-.05-.35q-.27-.28-.54.19m16.28 5.72q-.56.35-.08.63a.31.31 0 0 0 .47-.27q0-.16-.05-.26-.11-.24-.34-.1m-62.44 8.52q.09 1.08.3 1.23.5.33.85-.16.59-.85.56-1.2-.03-.36-.74-1.11-.42-.43-.87-.02-.18.18-.1 1.26m14.25 6.64q-.13.15-.14.35-.01.17.14.28.18.14.34.11.36-.06.29-.44-.02-.13-.21-.32-.22-.22-.42.02"/><path fill="#82d46b" d="M218.17 67.33q-.04.99-.33 1.29a.38.38 0 0 1-.63-.14l-.7-2.03zM183.05 67.98q-.45 2.42.77 4.63.98 1.78-.74 1-.19-.08-.98-1.02-.75-.87-1.47-.6-.47.17-.58.66-.39 1.61-1.35 2.26-.55.37-.52-.32 0-.12.42-.73.26-.39-.05-.75-.53-.61-.64-1.39-.08-.56-.65-.64-1.26-.18-1.57-1.44 2.7-3.21 7.36-1.66M220.23 67.96q6.43.44 12.41 3.05.54.23 1.55.3l-1.95 4.02a.61.57-62.4 0 0 .21.77l2.21 1.25q.33.19.38.57l.03.31q.09.8.75.29 1.03-.79 1.86.7.25.44-.13.78-.69.61-2.06 1.09-.53.19-.53.8l.03 2.96q.01.61.51.83 1.52.64 2.13 2.7.25.86-.96 1.31a.89.8 56.7 0 1-.89-.24l-3.1-3.2a.98.9 24.8 0 0-1.66.53v1.62q0 .6-.65.61l-1.49.03a.84.82 78.4 0 0-.74 1.15l.51 1.29q.15.38-.14.62-.34.28.25 1.39.21.4.17.93-.06.71-.63.27l-.39-.29q-.36-.28-.73-.01-.69.51-1.62.77-.63.18-.31.75.1.19.28.3.57.37-.04.66-.65.31-1.9.12-.58-.09-.27-.6c.8-1.28 1.42-2.63 1.46-4.25q.23-8.37.22-9.08-.03-1.28-1.09-.59l-.28.18a.51.51 0 0 1-.71-.16l-1.26-2.07a.77.72-22.2 0 0-.83-.32q-.38.1-.91.45-.41.28-.8-.04-1.61-1.32-2.91-1.72a.22.22 0 0 1-.01-.41q1.77-.69 2.24-2.05a.46.19 39.9 0 1 .55.17q.11.1.33.17.41.13.7-.19 1.7-1.88 2-4.3.06-.51-.37-.77l-2.04-1.24q-.51-.31-.32-.87.27-.77.94-1.34M250.27 71.7l-1.36.79q-.41.24-.76-.07-.7-.62-1.52.26a.31.31 0 0 1-.54-.2q-.02-1.85-1.8-1.37a1.37 1.25-31.4 0 0-.65 2.24q.07.06.19.26a.25.22-13.9 0 1-.23.34l-1.85.03q-.7.02-.34-.56.76-1.22-.26-2.12 2.85-1.26 5.95-1.55.51-.05.92.25zM236 70.71q-.06.48-.29.71t-.6.08q-.3-.12-.56-.41zM164.98 75.51q-.06.41.02.77.1.48.44.56.42.09.82-.61l1.67.55q.32 2.21-.81 3.99-.28.44.05.89l.49.65q.3.4-.22.52-.92.21-1.06.31-.62.43-.37.91l.66 1.27q.24.46-.15.88-.16.16-.17.26a.52.38 13.8 0 0 .4.48l.47.13q.61.16.73.83.58 2.96-3.5 3.31a.29.22-15.8 0 0-.26.36l.53.79q.44.67-.33.66l-1.88-.03q-.59 0-.36.55.7 1.75 1.98 2.55.53.33.72.73.12.23.23 1.25.06.57.56.78l.75.32a1.34 1.21-67.4 0 1 .6 1.69q-.84 2.04-1.41 2.91-1.04 1.58.81 1.22 1.18-.22 2.01.06.5.18.53.76l.08 1.57q.03.67.62.36l1.87-.98q.53-.29.34-.84l-1.49-4.41q-.17-.49.37-.59 1.46-.25 2.12-1.25.31-.47.78-.17.83.52 1.81-.26.37-.29.86-.29h1.23a.37.37 0 0 0 .24-.64q-1.01-.91-.73-1.66.22-.59.86-.61 1.16-.02 1.3-1.55.04-.37.41-.39.26-.02.31.2.21 1.01-.57 1.9-.35.39-.29.91.11.91 1.19 1.01.63.06.32.61-1.54 2.79-.94 5.81.07.35-.22.56-.26.2-.27.26-.14.78.56.44.2-.1.3-.27.14-.25.42-.19 2.91.56 2.72 2.86a.72.72 0 0 0 .54.76q.84.21 1.67 0 .57-.15.29-.66-.83-1.49.85-2.26a1.11 1.11 0 0 1 .94 0q1.35.64 1.64 2.55a.29.29 0 0 0 .46.2l.66-.46q.39-.27.8.12l1.8 1.69q.35.33-.23.63l-2.29 1.21a.8.79 49.8 0 1-.86-.08l-.77-.6q-.53-.41-.55.26l-.17 4.99q-.02.63-.51.28-.41-.3-.38-1.04a.51.51 0 0 0-.73-.48q-2.51 1.18-3.06 1.94-1.89 2.65-2.8 3.23-.46.29-.46.85l.02 2.05a.39.38 74.5 0 0 .57.34l.67-.4q.7-.43.68.34-.09 2.76.66 4.68.2.5-.32.61-1.23.29-1.84 1.23a1.28 1.2 54.1 0 0-.14 1.05l1.26 4.06a1.27 1.16 52 0 1-.07.92l-.13.24q-.17.33.14.49.45.23.88.05.34-.15.6-.71.08-.17.25-.58.27-.64.77-.22l.23.2q.32.27.78.14l3.34-.96q.68-.19.42.46-1.16 2.91-3.18 4.67-.42.35-.11.8 1.28 1.9-.33 3.77a.95.88 18.9 0 0 .79 1.46l2.66.01q.68 0 .25.57-.76 1.03-2 1.4a1.25 1.25 0 0 0-.89 1.31q.29 3.3-.82 4.21-1.34 1.1-.62-.48.58-1.27.32-3.28a.84.83-84.7 0 0-.56-.68l-.57-.19q-.56-.18-.62-.78l-.23-2.48q-.05-.61-.67-.61l-3.41.01q-.71 0-.47.64 0 .01.3.64.54 1.17-.48.39-1.89-1.45-.28-3.26a.71.71 0 0 0 .03-.9q-.65-.84-2.02.12a.51.49-19.7 0 1-.81-.36l-.13-2.41q-.03-.59-.58-.8-.68-.25-1.48-.12-.52.08-.65-.43-.12-.44.6-.96a.21.21 0 0 0-.13-.38q-2.98-.04-4.55-1.22a.5.5 0 0 0-.77.25q-.13.41.19.71a.56.56 0 0 1 .09.7q-.74 1.19.11 2.66.28.48.06.99l-.94 2.22q-.24.58-.66.27l-.63-.48a.35.32 23.5 0 0-.55.19q-.03.23 0 .39.04.27.06.29.73 1.18.84 1.61.48 1.85-.97.62-.48-.41-2.26-2.18a.35.35 0 0 0-.6.26q.07 2.96-1.68 5.82-.36.59.33.64l1.43.11a.92.91 21.3 0 1 .66 1.48q-1 1.25-.01 2.15l-8-.98q-.82-.36-1.33-.83-.37-.34-.06-.7l1.27-1.44a1.01 1.01 0 0 0 .22-.93q-.26-.93-1.13-1.6-.4-.31-.29-.8.74-3.16-1.21-6.63-.28-.49-.83-.42-.38.06-.71.23-.6.33-.65-.33l-.19-2.71a.37.37 0 0 0-.62-.25l-1.85 1.63a.65.58 55.2 0 0-.09.77l.44.78a2.07 1.62-14.3 0 1-1.9 2.48q-1.8.14-2 1.18-.26 1.32-1.08.14-.43-.62-.96-.93-.48-.28-.89.1-1.7 1.58-2.91 4.66a.45.35-89 0 0 .45.61l.75-.46q.52-.31.88.19l.3.42q.28.39.07.86-.93 2.1.36 4.18l-5.34-.45-2.49-2.96q-.4-.48-.95-.16l-.37.23q-.68.4-.67-.38l.03-1.31q.01-.52.47-.71l1.05-.42a.62.6 70.6 0 0 .34-.75q-.8-2.58-2.35-3.35-.68-.33.01-.65.49-.22.74-.23a.66.53.9 0 0 .63-.49q.1-1.05-.11-1.52-.13-.31-1.16-.83-1.06-.54-.52-2.04.84-2.3.93-2.9.14-.88-.7-.59-.99.34-1.76.05-.64-.24-.65.76-.01.5-.45.59-.58.13-.55-.47.22-3.95-.75-6.09-1.13-2.51-1.19.14-.03 1.04-1.57 2.93-.21.26-.34.95-.19.93.44 1.98.26.44-.1.8l-2.66 2.62q-.42.41-.82.04l-.26-.25q-.57-.55-.65.22l-.27 2.82a.69.67-58.2 0 1-1.26.31q-1.2-2-2.81-2.52-.55-.18-.63.39l-.17 1.33a1.45 1.45 0 0 1-.39.81q-1.3 1.36-2.06 4.13-.17.61.05 1.18.44 1.11.47 1.18.68 1.34 1.02-.16.01-.01.11-.77a.27.26 21.3 0 1 .42-.18q.99.69 2.17.91.42.09.12.39-.92.93-1.08 2.82l-15.05-5.18q.53-1.55.97-3.28.8-3.1-2.12-3.61-.62-.11-.59.5l.07 1.82q.01.26-.27.29l-.31.02a.31.26-4.8 0 1-.33-.24q-.11-1.53-.67-2.84-.2-.46.03-.92 1.45-2.87.48-5.24-.25-.6-.77-.2-1.17.94-2.1.18a1.16 1.16 0 0 0-1.8.46q-.81 1.95.38 3.39.86 1.04-.27.31-1.07-.71-1.54-.04a.38.38 0 0 1-.66-.06q-.83-1.84-.8-2.3c.08-1.48-.6-3.7-.96-4.65q-.15-.42.02-.71l.22-.39a.51.47 8.1 0 0-.56-.7q-.54.1-1.31.68-.72.55-.77-.35l-.1-1.51q-.05-.82-.74-.38-1.76 1.13-.81 2.62a.83.8 39.5 0 1 .09.73l-1.78 4.73q-.13.36-.54.52l-.47.19q-.49.19-.62.68-.51 1.86 1.04 2.71.29.15.59.03.13-.06.25-.14.47-.35.82.13 1.58 2.14 1.01 4.79-5.41-.31-8.53-3.09c-4.21-3.74 1.36-15.21 3.9-18.85q4.54-6.51 8.3-11.44c1.36-1.78 2.91-2.63 5.28-3.11q18.41-3.72 38.27-10.59 4.13-1.43 7.81-3.93 9.36-6.37 10.43-17.49.18-1.87 2.09-2.72 1.23-.55 2.96-.1 4.98 1.28 9.68 3.49"/><path d="M166.26 76.23q-.4.7-.82.61-.34-.08-.44-.56-.08-.36-.02-.77.62-.05 1.28.72"/><path fill="#82d46b" d="m258.42 78.15 3.41 2.98a2.55 2.55 0 0 0 2.05.6q2.56-.37 6.09-.81 2.79-.34 6.05.27 5.15.98 8.8 2.23c1.69.57 2.79 1.68 3.13 3.6q.68 3.94-.55 8.1-.18.6.45.75l1.03.24a.87.82 3.1 0 1 .65.68q.53 3.43 2.06 5.53 1.03 1.42 1.37 3.91.95 6.98 1.38 13.98l-2.2-1.2a.66.66 0 0 0-.97.5q-.14 1.26-1.34 1.61-.51.15-.75.67l-.41.86q-.41.88-.61-.05-.06-.28-.27-1.21a.23.22 65.6 0 0-.35-.13q-1.17.86-1.99 1.85-.94 1.12.49.8.41-.1.71.17.33.28-.18.85-.56.62.38 3.46.22.65-.42.4-1.28-.48-1.54-2.26a.49.49 0 0 0-.85-.26q-.69.73-1.12 2-.17.5-.59.32l-1.77-.76q-1.01-.43.08-.67 1.28-.29 1.87-2.24.15-.48.01-.78l-1.08-2.37q-.29-.61.39-.7l.37-.04a.6.58 82.8 0 0 .49-.67q-.34-2.7.74-5.48.17-.44-.02-.75l-1.78-2.81q-.38-.59-.94-.29l-3.12 1.71q-.55.3-.58-.36l-.1-1.6q-.04-.84-.66-.35-.51.42-1.5.6-.59.11-.29.63.96 1.64-.75 3.8-.48.61-.62-.17l-.15-.75q-.12-.66-.62-.24l-.31.26q-.46.39-.96 0-.64-.49-1.84.27a.62.62 0 0 1-.64.02q-.3-.17-.3-.31-.01-.32.23-.38 1.38-.33 2.19-1.32.31-.37.17-.83l-1.41-4.54a.22.21 2.2 0 1 .3-.26q.32.12.67.68.23.36.64.2l.38-.14q.49-.18.29-.62-.15-.32-.56-.7a.75.75 0 0 1-.16-.87q.32-.69 1.49-.97a.35.35 0 0 0 .15-.6q-.43-.4-.55-.78-.17-.53.17-.97 1.44-1.85-.72-3.29a.64.64 0 0 1-.21-.82q.63-1.2.61-2.36a.9.9 0 0 0-.48-.79q-.8-.41-1.9-.18-.6.12-.28.62l.35.56q.28.46-.18.76-.48.31-1.18-.3-1.26-1.12-2.56-.01-.63.54-.65-.3-.04-1.53-.86-2.69-.41-.56-1.01-.21-.78.44-1.45 0a.73.73 0 0 0-.97.16q-.81 1.03-.5 1.75 1.15 2.69.33 4.81a1.33 1.33 0 0 0 0 .98q.41 1.01.2 1.53-.18.46-.57.15-.81-.65-1.39-2.01-.22-.53-.78-.7-.7-.21-1.27-.09a.89.85 87.1 0 0-.67.77l-.16 1.67q-.05.53-.69.22l-1.81-.89a.8.78 24.1 0 1-.39-.99q.89-2.21 2.53-3.96.36-.38.28-.89-.41-2.49-2.53-3.43-.3-.13-.37-.45-.04-.17-.04-.31a.62.59 86.3 0 1 .52-.62l1.8-.21q.49-.06.64-.54.33-1.04.06-2.43c-.18-.97-1.14-1.55-1.75-2.38q-.42-.57.32-.59l1.72-.05q.76-.02.75-.72l-.02-2.5q-.01-.81-.71-.33l-.67.45q-.47.33-.58-.27l-.08-.46q-.1-.6.52-.82 1.74-.63 2.97-2.13M218.15 83.41q.27-.47.54-.19a.3.3 0 0 1 .05.35q-.11.21-.31.25a.27.27 0 0 1-.28-.41M234.43 89.13q.23-.14.34.1.05.1.05.26a.31.31 0 0 1-.47.27q-.48-.28.08-.63M173.7 97.52q.03.35-.56 1.2-.35.49-.85.16-.21-.15-.3-1.23-.08-1.08.1-1.26.45-.41.87.02.71.75.74 1.11M186.24 104.29q.2-.24.42-.02.19.19.21.32.07.38-.29.44-.16.03-.34-.11-.15-.11-.14-.28.01-.2.14-.35"/><path d="M99.71 146.12q-7.32-2.1-14.92-2.78.57-2.65-1.01-4.79-.35-.48-.82-.13-.12.08-.25.14-.3.12-.59-.03-1.55-.85-1.04-2.71.13-.49.62-.68l.47-.19q.41-.16.54-.52l1.78-4.73a.83.8 39.5 0 0-.09-.73q-.95-1.49.81-2.62.69-.44.74.38l.1 1.51q.05.9.77.35.77-.58 1.31-.68a.51.47 8.1 0 1 .56.7l-.22.39q-.17.29-.02.71c.36.95 1.04 3.17.96 4.65q-.03.46.8 2.3a.38.38 0 0 0 .66.06q.47-.67 1.54.04 1.13.73.27-.31-1.19-1.44-.38-3.39a1.16 1.16 0 0 1 1.8-.46q.93.76 2.1-.18.52-.4.77.2.97 2.37-.48 5.24-.23.46-.03.92.56 1.31.67 2.84a.31.26-4.8 0 0 .33.24l.31-.02q.28-.03.27-.29l-.07-1.82q-.03-.61.59-.5 2.92.51 2.12 3.61-.44 1.73-.97 3.28M135.5 153.45q-8.08-.27-14.25-.96-2.72-.3-6.49-1.19.16-1.89 1.08-2.82.3-.3-.12-.39-1.18-.22-2.17-.91a.27.26 21.3 0 0-.42.18q-.1.76-.11.77-.34 1.5-1.02.16-.03-.07-.47-1.18-.22-.57-.05-1.18.76-2.77 2.06-4.13a1.45 1.45 0 0 0 .39-.81l.17-1.33q.08-.57.63-.39 1.61.52 2.81 2.52a.69.67-58.2 0 0 1.26-.31l.27-2.82q.08-.77.65-.22l.26.25q.4.37.82-.04l2.66-2.62q.36-.36.1-.8-.63-1.05-.44-1.98.13-.69.34-.95 1.54-1.89 1.57-2.93.06-2.65 1.19-.14.97 2.14.75 6.09-.03.6.55.47.44-.09.45-.59.01-1 .65-.76.77.29 1.76-.05.84-.29.7.59-.09.6-.93 2.9-.54 1.5.52 2.04 1.03.52 1.16.83.21.47.11 1.52a.66.53.9 0 1-.63.49q-.25.01-.74.23-.69.32-.01.65 1.55.77 2.35 3.35a.62.6 70.6 0 1-.34.75l-1.05.42q-.46.19-.47.71l-.03 1.31q-.01.78.67.38l.37-.23q.55-.32.95.16zM154.8 153.7l-13.96.2q-1.29-2.08-.36-4.18.21-.47-.07-.86l-.3-.42q-.36-.5-.88-.19l-.75.46a.45.35-89 0 1-.45-.61q1.21-3.08 2.91-4.66.41-.38.89-.1.53.31.96.93.82 1.18 1.08-.14.2-1.04 2-1.18a2.07 1.62-14.3 0 0 1.9-2.48l-.44-.78a.65.58 55.2 0 1 .09-.77l1.85-1.63a.37.37 0 0 1 .62.25l.19 2.71q.05.66.65.33.33-.17.71-.23.55-.07.83.42 1.95 3.47 1.21 6.63-.11.49.29.8.87.67 1.13 1.6a1.01 1.01 0 0 1-.22.93l-1.27 1.44q-.31.36.06.7.51.47 1.33.83"/></svg>