<svg xmlns="http://www.w3.org/2000/svg" viewBox="0 0 382 382"><g fill="none" stroke-width="2"><path stroke="#192b01" d="M219.17 67.72q.3 2.09 2.39 2.29.74.07.52.52-.05.09-.66.58a.52.52 0 0 0 .05.85q.37.23.16.7-.13.29-.44.54-2.93 2.35-2.07 6.23.14.64.67.25.64-.48.97-1.04.22-.38-.18-.56-.31-.15-.25-.52.09-.56.51-.16l1.91 1.82q.29.27.76.2l.83-.12a.62.56-3.5 0 1 .71.57l-.46 9.63q-.02.27.3.14 2.15-.84 2.22-2.45.03-.61.58-.89 1.18-.59 1.65-1.88a.61.61 0 0 1 .81-.35q1.65.73 1.94 2.36a.5.5 0 0 0 .82.29q1-.87.48-1.85-.27-.49-.11-1l1.03-3.5q.18-.59.64-.56l.32.02a.43.3 39.2 0 0-.2-.72l-.31-.02q-.45-.03-.57-.61c-.23-1.19-.21-1.81-1.01-2.6q-1.32-1.3-2.62-2.56" vector-effect="non-scaling-stroke"/><path stroke="#172a7f" d="m230.56 73.32.71-.61" vector-effect="non-scaling-stroke"/><path stroke="#192b01" d="M231.27 72.71q.82-.63 1.31-1.42M241.27 71.36q-.06.45.05.89.12.54.67.63.18.03.34-.03.55-.21.14-.64l-.95-.98M244.97 70.24q.31 1.08.14 2.26-.03.24.21.23l.36-.02q.15-.01.15-.16-.08-1.26.43-1.67a.45.45 0 0 1 .71.19q.35.89 1.2.8.33-.04.55-.41.2-.32.29-.74" vector-effect="non-scaling-stroke"/><path stroke="#172a7f" d="M257.57 77.49q.24 1.35-.76 2" vector-effect="non-scaling-stroke"/><path stroke="#192b01" d="M256.81 79.49q-1.07-.45-1.54.03-.39.39-.06.84.49.67 1.56.91" vector-effect="non-scaling-stroke"/><path stroke="#172a7f" d="M256.77 81.27q-.51 1.6.42 2.15" vector-effect="non-scaling-stroke"/><path stroke="#192b01" d="M257.19 83.42q-.96.69-2.04.9a1.1 1.09 71 0 0-.76 1.58l1.31 2.59a.53.52 63.7 0 1-.24.71l-1.76.84q-.71.35-.17.93l2.16 2.33a1.08 1.05 44.9 0 1 .02 1.44c-1.06 1.16-1.72 1.63-1.73 2.57q0 .64.58.35.93-.49 1.51-.09a.87.86 43.7 0 0 1-.03q.77-.57 1.06.8.15.68.7.18l1.73-1.56a.58.45-42.5 0 0 .13-.73l-1.2-1.26a.7.54 54 0 1 .03-1.03q2.27-.99 3.08-2.66" vector-effect="non-scaling-stroke"/><path stroke="#172a7f" d="M262.6 91.28q.61-.41 1.75-.17" vector-effect="non-scaling-stroke"/><path stroke="#192b01" d="m264.35 91.11-.2 3.05a.49.49 0 0 0 .7.48q.43-.19.59-.5.28-.55.21.07-.01.1.19.78.09.32.32.54.75.71 2.09.43.69-.15.34-.73l-.31-.52q-.34-.57.33-.75.67-.19 1.94-.04.52.05.46.58-.26 2.37.82 3.89.36.51 1.15.35" vector-effect="non-scaling-stroke"/><path stroke="#172a7f" d="M272.98 98.74q.53.24.69.76.08.28-.59.62" vector-effect="non-scaling-stroke"/><path stroke="#192b01" d="M273.08 100.12q-.24-.35-.59.53-.51 1.29-.79 2.68-.09.41-.47.6-.18.09-.3.1-.61.05-.37.73.42 1.21-.22 2.74-.22.51 0 1.1l.21.58q.16.43-.1.87-.4.69-.36 1.03.06.54.57.73 1.15.43 1.49 1.59.2.7.62.11 1.68-2.34.73-3.62-.45-.6.27-.8.77-.22 1.39-.69.58-.45.68.28l.26 1.71q.06.41.5.21l.41-.18a.68.53-38.1 0 1 .56 0q1.18.67 2.1.56.47-.05.47-.54l-.01-1.16q-.01-1.03.35-.06 1.4 3.79 1.33 4.79-.08 1.19-.28 8.44-.02.56.54.6 1.56.08 1.96 1.09.72 1.79.98-.12.19-1.38-.49-3.34-.16-.47.18-.84l1.24-1.32q.5-.53.77.19l.22.6a.73.73 0 0 0 1.32.08l1.5-2.71a.57.57 0 0 1 .98-.03q1.94 3.02 2.99 7.55M156.88 154q.19-1.88 1.54-3.37.35-.39.72-.04.45.42 1.05.41.45-.01.37-.43l-.83-4.1q-.12-.57-.68-.69-.8-.17-.29-.98.23-.37-.08-.66-.3-.28-.34-.46-.06-.35.29-.44 1.32-.33 1.53-1.9.25-1.81 1.39-.27.28.37.52.54a.24.23 8.1 0 0 .37-.26l-.1-.26q-.21-.53.12-.91l1.88-2.15q.34-.39.16-.88-.71-1.91.3-3.6a.45.43-40.7 0 1 .79.05l.28.71a.51.49 65.1 0 0 .7.27q1.89-1.03 2.56.81a.51.44-20 0 0 .63.24l.44-.17q.37-.13.42.21.28 1.81 1.78 2.72.42.26.53.71l.23.95q.34 1.4 1.14.18.61-.93 1.12-.91.48.01.88.64.01.01.77 1.21 1.28 2.04 1.42-.37.14-2.35 2-5.14.32-.48-.25-.56-1.09-.17-1.39-1.57-.11-.52-.63-.63-.66-.15-1.43.74a.39.39 0 0 1-.32.13q-.35-.02-.38-.28c-.05-.57.24-.98.47-1.44q.21-.44 0-.89-1.05-2.21.45-3.29.42-.3.33-.74l-1.2-5.98a1.14.8-43.5 0 1 .14-.69q.79-1.41 2.8-2.85.43-.31.92-.12.81.32.92-.7.08-.69.86-.4l.63.23q.44.16.53-.35l.29-1.54a.87.86-60.7 0 1 1.5-.42q.51.58.89.49.47-.11.1-.41-2.14-1.77-1.77-4.66.07-.58-.51-.48-.49.09-.85.66-.6.93-.65 1.37a.43.43 0 0 1-.65.31q-.85-.53-1.82-.67-.6-.09-.23-.57 1.2-1.6-.32-2.89-.36-.31-.83-.05l-.4.23q-.64.35-.67-.35-.1-2.48.89-5.71.36-1.2-.11-2.11a.84.84 0 0 0-1.46-.06q-1.04 1.66-2.52 2.19-.51.18-.71-.32-.57-1.42-1.24-2.01a.44.44 0 0 0-.73.27q-.3 2.21-1.58 3.39-.52.48-.09 1.01l.98 1.23a.91.85-28.8 0 1-.44 1.36l-1.43.53a1.1 1.06-21.8 0 1-1.37-.56q-1.01-2.29-3.06-2.93a.09.09 0 0 1-.06-.12q1.21-2.76.51-4.02-1.47-2.63-3.53-5.06" vector-effect="non-scaling-stroke"/><path stroke="#172a7f" d="M161.07 94.37q-1.89-1.51.34-3.08" vector-effect="non-scaling-stroke"/><path stroke="#192b01" d="M161.41 91.29q.89 1.6 2.22-2.14" vector-effect="non-scaling-stroke"/><path stroke="#172a7f" d="M163.63 89.15q.06.24.41-.18" vector-effect="non-scaling-stroke"/><path stroke="#192b01" d="m164.04 88.97 2.38.05q.61.01.6-.59l-.06-1.71q-.03-.8-.82-.71-.71.09-1.34-.15" vector-effect="non-scaling-stroke"/><path stroke="#172a7f" d="M164.8 85.86q-.75-1.7-.56-3.14" vector-effect="non-scaling-stroke"/><path stroke="#192b01" d="M164.24 82.72q.19-1.01 2.25-.95.75.02.15-.43-1.68-1.27.05-2.59.21-.16.04-.37-.16-.19-.38-.33-.55-.35-.23-.92.19-.33.75-.64M175.06 70.78q.94-.82 1.57-.87t.48.56q-.25 1 .01 1.4a.32.31 44.8 0 0 .53.01l.4-.64a1.1 1.05 40.7 0 1 1.72-.08l.53.59q.48.55.5-.18l.12-4.11" vector-effect="non-scaling-stroke"/><path stroke="#305580" d="m292.68 104.87-2.83 2.66q-.37.35-.94.37l-4.96.21q-.45.02-.83.33-.14.12-.32.19-.54.22-.74-.34-.38-1.08-1.14-.91-.51.12-.77-.35-.83-1.53-2.66-2.27-.44-.18-.73-.55c-.87-1.12-.97-2-2.27-2.97q-.74-.55-1.41-1.12M272.98 98.74q.86-4.41-2.28-6.35-.44-.27-.94-.17-.43.09-.75.37-.4.34-.85.05-1.85-1.19-3.81-1.53M262.6 91.28q-2.75-.49-4.28-2.75-.13-.19.04-.24h.01q.16-.04.23.04 1.28 1.46 2.44 1.59 1.03.11.41-.73l-4.26-5.77M256.77 81.27q.25-.9.04-1.78" vector-effect="non-scaling-stroke"/><path stroke="#192b01" d="M155.28 153.84q.84-.85.13-1.97-.27-.42-.03-.84.55-.96.47-2.21-.04-.67-.62-.34-1.11.64-1.55-.41-.22-.52-.06-1.06.4-1.4-.78-2.78-.27-.32-.26-.82l.04-1.4q.02-.56-.43-.83-1.84-1.14-.4-3.11.29-.4-.15-.6-.68-.31-1.12-.33a1.68 1.55 86.9 0 1-1.49-1.44q-.22-1.6-.94-1.77-.61-.15-.89.41-.66 1.3-1.09 2.96c-.58 2.27-1.6 2.61-3.53 3.33a1.13.78 46.9 0 1-.92-.2q-.33-.24-.76-.97-.38-.66-.6.07-.35 1.16-1.8 2.49-.41.37-.41.93.02 1.55 1.17 2.98a1.08 1.08 0 0 1 .21.89q-.23 1.13.04 2.44.08.44-.19.82-.28.4-.72.57-.48.17-.56-.31l-.1-.55q-.08-.45-.5-.33-2.54.7-2.67 2.17-.02.21-.23.23-.15.01-.29-.12a.7.7 0 0 1-.22-.58q.33-3.35-1.56-5.49-.41-.47-.18-1.05.73-1.79-.46-3.48a1.11 1.11 0 0 1-.15-.97q.47-1.53-1.13-4.08-.64-1.01-.05-2.06l1.03-1.85" vector-effect="non-scaling-stroke"/><path stroke="#305580" d="m164 75.07.09 2.23q.02.53.39.9.47.48-.08.87a.88.88 0 0 0-.36.58q-.26 1.73.2 3.07M164.8 85.86q-1.19.58-1.48 1.57-.14.48.23.83.37.34.49.71M163.63 89.15q-.9-.7-1.16.07-.38 1.15-1.06 2.07M161.07 94.37q-.17 1.25.19 2.1.21.48.72.51l.44.03q.11.01.15.11.22.59-.18.59a.34.34 0 0 0-.34.28q-.55 3.08 1.41 5.92.28.41.08.86l-.24.56q-.2.46-.05.93 2.66 8.06 1.46 15.6-.56 3.51-2.27 6.08-1.34 2-3.68 3.29c-2.32 1.28-6.44.81-9.8.79q-2.66-.01-3.8.77-1.35.93-3.05 2.57-3.13 3.02-6.7.19-2.03-1.6-3.88-3.37" vector-effect="non-scaling-stroke"/><path stroke="#172a7f" d="m131.53 132.18-.96-.71" vector-effect="non-scaling-stroke"/><path stroke="#305580" d="m130.57 131.47-3.04-3.26" vector-effect="non-scaling-stroke"/><path stroke="#172a7f" d="M127.53 128.21q-4.44-4.37-5.89 3.57" vector-effect="non-scaling-stroke"/><path stroke="#305580" d="M121.64 131.78q-2.06.27-3.82 3.34-.24.41-.7.33-.95-.17-2.2.58" vector-effect="non-scaling-stroke"/><path stroke="#172a7f" d="M114.92 136.03q.13-1.04-1.19-.23" vector-effect="non-scaling-stroke"/><path stroke="#305580" d="M113.73 135.8q-1.26 1-2.23 2.39-.13.19-.15.45-.02.28.08.45.25.45-.17.74-2.33 1.59-5.26 1.18-.48-.07-.86-.38l-2.31-1.93" vector-effect="non-scaling-stroke"/><path stroke="#172a7f" d="m102.83 138.7-1.8-1.88" vector-effect="non-scaling-stroke"/><path stroke="#305580" d="M101.03 136.82q-1.22-1.86-2.78-1.97" vector-effect="non-scaling-stroke"/><path stroke="#172a7f" d="m98.25 134.85-.21-.85" vector-effect="non-scaling-stroke"/><path stroke="#305580" d="m98.04 134 .48-.19q.4-.15.09-.44-.11-.1-.33-.18" vector-effect="non-scaling-stroke"/><path stroke="#172a7f" d="m98.28 133.19-1.37-3.37q-.18-.44-.58-.19-1.69 1.07-4.96 1.07" vector-effect="non-scaling-stroke"/><path stroke="#305580" d="M91.37 130.7q-.71-2.01-2.48-2.81" vector-effect="non-scaling-stroke"/><path stroke="#172a7f" d="M88.89 127.89q.7-2.21-2.19-2.65-.6-.09-.66-.58l-.07-.62q-.05-.48-.63-.49-.53-.02-.91.67-1.33 2.42-1.26 2.53.99 1.58.16 3.44-.05.11-1.03 1.81-.48.85-1.33 1.52a.84.84 0 0 0-.32.77l.61 4.49" vector-effect="non-scaling-stroke"/><path stroke="#305580" d="M81.26 138.78q-.43 1.9-.24 3.84M292.96 107.5q-1.02 2.85-3.54 3.91-1.67.7-3.11-.07-1.55-.82-2.79-2.06-.2-.2-.32-.1v.01a.13.13 0 0 0-.02.18c1.73 2.04 2.9 4.05 5.36 3.62q.85-.15 2-1.21 1.24-1.14 2.59-2.02M222.53 68.24q3.67 4.4 7.76 2.05M231.27 72.71q-.06-.19-.16-.31a.46.46 0 0 0-.59-.1q-1.2.71-2.15.8-.2.02-.26.22-.04.16-.05.25 0 .33.33.34.97.03 2.17-.59" vector-effect="non-scaling-stroke"/><path stroke="#192b01" d="m127.53 128.21-1.4 2.49q-.26.45.08.85l.81.96q.41.49.74-.08.14-.25.09-1-.05-.59.47-.3 1.2.67 2.25.34M113.99 151.07q-.38-2.43.53-4.25.2-.4-.17-.66-1.58-1.12-2.74-.52-.67.35-.63-.41.04-.82.73-1.62.33-.38.23-.86-.1-.46-.62-.82a.4.4 0 0 1-.12-.53q.2-.34.52-.32.53.04.83-.4 1.56-2.31 1.18-4.88M114.92 136.03q1.75.91 2.44 2.33.34.71.52-.06c.23-1.03.74-1.55 1.76-2.06q4.27-2.13 2-4.46M88.89 127.89q-.86 1.15 1.01 3.54.17.22.01.46-.09.14-.25.19-.78.25-.44.67.13.18.35.28a.71.71 0 0 1 .41.55q.09.63.02.88a.35.35 0 0 0 .48.4q2.55-1.22.89-4.16M98.28 133.19q-.5 0-.73.15-.27.19-.05.43.16.19.54.23M98.25 134.85q-1.19.33-1.22 1.14-.05 1.34.07 2.78.02.17.2.17l.38-.02q.18 0 .2-.18l.17-1.51q.06-.62.58-.42.42.16.91.91.51.79.97 1.08.48.32.41-.25-.13-1.05.11-1.73M102.83 138.7l-1.16.56a.35.28-44.3 0 0-.08.58l.38.12q.51.17.05.61-1.07 1.03-1.92 3.39-.4 1.11.64.55.03-.02.45-.25t.72.14q.51.62 1.36.6.61-.02.62.59l.05 2.06M83.5 143.26l.96-1.27q.31-.4-.04-.77-.83-.89-.37-1.94.1-.24.23-.31l.36-.18q.44-.21.02-.63l-.84-.83q-.58-.56-.7.27-.04.26.05.53a.59.59 0 0 1-.33.75q-.7.29-1.58-.1" vector-effect="non-scaling-stroke"/><path stroke="#305580" d="M222.99 70.18a.42.42 0 0 0 .24.66q.33.08.64-.15.29-.22.06-.5-.51-.61-.94-.01M225.22 73.51q.56.29 1.17.38.15.02.24-.03.15-.07.22-.14.25-.23-.07-.36-1.21-.49-1.23-.49-.01-.02-1.11-.72-.29-.19-.33.15-.02.1.01.26.01.1.11.21.43.45.99.74M165.14 106.77q-.34-.41-.54-.46-.72-.17-.24.46.66.86 1.1 1.01.94.3.36-.48-.02-.03-.21-.14-.27-.16-.47-.39M168.01 114.75q.55 7.89-4.45 14.34-.31.41-.91 1.71-.22.45-.66.7-.83.46-3.42 2.29-1.83 1.29-4.33 1.21c-.99-.03-2.29-.84-3.5-1.45a.21.21 0 0 0-.23.35q3.08 2.49 5.26 1.88 4.88-1.38 8.35-5.63.06-.07 1.88-2.66.88-1.24 1.3-2.91c.4-1.57 1.39-3.77 1.61-5.51q.61-4.79-1.53-8.92-.33-.64-.74-.87-.8-.44-.28.31.35.5 1.03 2.52.54 1.61.62 2.64M145.95 134.247a1.15.37-37.7 0 0-1.136.41 1.15.37-37.7 0 0-.684.996 1.15.37-37.7 0 0 1.136-.41 1.15.37-37.7 0 0 .684-.996M142.41 136.1q-.23.16-.32.27a.26.26 0 0 0 .32.39q.37-.21.4-.42a.25.25 0 0 0-.4-.24M137.73 138.7l.07-.3a.21.21 0 0 0-.18-.26q-2.14-.18-4.02-1.16-.06-.04-.12.01l-.23.23q-.14.14.02.26 1.88 1.38 4.19 1.43.21 0 .27-.21M276.795 106.667a1.77.32 43 0 0-1.077-1.441 1.77.32 43 0 0-1.513-.973 1.77.32 43 0 0 1.077 1.441 1.77.32 43 0 0 1.513.973" vector-effect="non-scaling-stroke"/><path stroke="#192b01" d="M86.59 125.6q-.16-.24-.35-.01-.15.18-.13.88.01.3.31.3.13-.01.24-.09.17-.14.16-.4-.02-.38-.23-.68" vector-effect="non-scaling-stroke"/><path stroke="#305580" d="M107.91 143.503a1.98.48-.2 0 0-1.982-.473 1.98.48-.2 0 0-1.978.487 1.98.48-.2 0 0 1.982.473 1.98.48-.2 0 0 1.978-.487" vector-effect="non-scaling-stroke"/></g><path d="M219.17 67.72q.3 2.09 2.39 2.29.74.07.52.52-.05.09-.66.58a.52.52 0 0 0 .05.85q.37.23.16.7-.13.29-.44.54-2.93 2.35-2.07 6.23.14.64.67.25.64-.48.97-1.04.22-.38-.18-.56-.31-.15-.25-.52.09-.56.51-.16l1.91 1.82q.29.27.76.2l.83-.12a.62.56-3.5 0 1 .71.57l-.46 9.63q-.02.27.3.14 2.15-.84 2.22-2.45.03-.61.58-.89 1.18-.59 1.65-1.88a.61.61 0 0 1 .81-.35q1.65.73 1.94 2.36a.5.5 0 0 0 .82.29q1-.87.48-1.85-.27-.49-.11-1l1.03-3.5q.18-.59.64-.56l.32.02a.43.3 39.2 0 0-.2-.72l-.31-.02q-.45-.03-.57-.61c-.23-1.19-.21-1.81-1.01-2.6q-1.32-1.3-2.62-2.56l.71-.61q.82-.63 1.31-1.42 1.81-.21 3.66-.62 1.3-.28 2.52.04 1.24.33 2.51.65-.06.45.05.89.12.54.67.63.18.03.34-.03.55-.21.14-.64l-.95-.98q1.47-1.18 3.45-.99.31 1.08.14 2.26-.03.24.21.23l.36-.02q.15-.01.15-.16-.08-1.26.43-1.67a.45.45 0 0 1 .71.19q.35.89 1.2.8.33-.04.55-.41.2-.32.29-.74l8.56 6.77q.24 1.35-.76 2-1.07-.45-1.54.03-.39.39-.06.84.49.67 1.56.91-.51 1.6.42 2.15-.96.69-2.04.9a1.1 1.09 71 0 0-.76 1.58l1.31 2.59a.53.52 63.7 0 1-.24.71l-1.76.84q-.71.35-.17.93l2.16 2.33a1.08 1.05 44.9 0 1 .02 1.44c-1.06 1.16-1.72 1.63-1.73 2.57q0 .64.58.35.93-.49 1.51-.09a.87.86 43.7 0 0 1-.03q.77-.57 1.06.8.15.68.7.18l1.73-1.56a.58.45-42.5 0 0 .13-.73l-1.2-1.26a.7.54 54 0 1 .03-1.03q2.27-.99 3.08-2.66.61-.41 1.75-.17l-.2 3.05a.49.49 0 0 0 .7.48q.43-.19.59-.5.28-.55.21.07-.01.1.19.78.09.32.32.54.75.71 2.09.43.69-.15.34-.73l-.31-.52q-.34-.57.33-.75.67-.19 1.94-.04.52.05.46.58-.26 2.37.82 3.89.36.51 1.15.35.53.24.69.76.08.28-.59.62-.24-.35-.59.53-.51 1.29-.79 2.68-.09.41-.47.6-.18.09-.3.1-.61.05-.37.73.42 1.21-.22 2.74-.22.51 0 1.1l.21.58q.16.43-.1.87-.4.69-.36 1.03.06.54.57.73 1.15.43 1.49 1.59.2.7.62.11 1.68-2.34.73-3.62-.45-.6.27-.8.77-.22 1.39-.69.58-.45.68.28l.26 1.71q.06.41.5.21l.41-.18a.68.53-38.1 0 1 .56 0q1.18.67 2.1.56.47-.05.47-.54l-.01-1.16q-.01-1.03.35-.06 1.4 3.79 1.33 4.79-.08 1.19-.28 8.44-.02.56.54.6 1.56.08 1.96 1.09.72 1.79.98-.12.19-1.38-.49-3.34-.16-.47.18-.84l1.24-1.32q.5-.53.77.19l.22.6a.73.73 0 0 0 1.32.08l1.5-2.71a.57.57 0 0 1 .98-.03q1.94 3.02 2.99 7.55-.75 6.07-2.63 10.62-5.34 12.88-6.87 22.87-.43 2.82-1.39 4.04c-2.32 2.95-7.77 2.69-10.61 1.36q-3.85-1.8-5.11-2.14c-2.54-.67-4.16.28-6.58 1.72q-5.92 3.49-10.78 3.43-2.07-.03-8.52-1.43-3.22-.69-8.17-2.69-4.63-1.87-8.94-2.4-4.42-.55-9.15.23-4.28.7-13.95 2.08c-11.72 1.66-24.72-1.41-35.46-6.06q-2.1-.91-4.25-1.2-2.18-.29-4.43-.63.19-1.88 1.54-3.37.35-.39.72-.04.45.42 1.05.41.45-.01.37-.43l-.83-4.1q-.12-.57-.68-.69-.8-.17-.29-.98.23-.37-.08-.66-.3-.28-.34-.46-.06-.35.29-.44 1.32-.33 1.53-1.9.25-1.81 1.39-.27.28.37.52.54a.24.23 8.1 0 0 .37-.26l-.1-.26q-.21-.53.12-.91l1.88-2.15q.34-.39.16-.88-.71-1.91.3-3.6a.45.43-40.7 0 1 .79.05l.28.71a.51.49 65.1 0 0 .7.27q1.89-1.03 2.56.81a.51.44-20 0 0 .63.24l.44-.17q.37-.13.42.21.28 1.81 1.78 2.72.42.26.53.71l.23.95q.34 1.4 1.14.18.61-.93 1.12-.91.48.01.88.64.01.01.77 1.21 1.28 2.04 1.42-.37.14-2.35 2-5.14.32-.48-.25-.56-1.09-.17-1.39-1.57-.11-.52-.63-.63-.66-.15-1.43.74a.39.39 0 0 1-.32.13q-.35-.02-.38-.28c-.05-.57.24-.98.47-1.44q.21-.44 0-.89-1.05-2.21.45-3.29.42-.3.33-.74l-1.2-5.98a1.14.8-43.5 0 1 .14-.69q.79-1.41 2.8-2.85.43-.31.92-.12.81.32.92-.7.08-.69.86-.4l.63.23q.44.16.53-.35l.29-1.54a.87.86-60.7 0 1 1.5-.42q.51.58.89.49.47-.11.1-.41-2.14-1.77-1.77-4.66.07-.58-.51-.48-.49.09-.85.66-.6.93-.65 1.37a.43.43 0 0 1-.65.31q-.85-.53-1.82-.67-.6-.09-.23-.57 1.2-1.6-.32-2.89-.36-.31-.83-.05l-.4.23q-.64.35-.67-.35-.1-2.48.89-5.71.36-1.2-.11-2.11a.84.84 0 0 0-1.46-.06q-1.04 1.66-2.52 2.19-.51.18-.71-.32-.57-1.42-1.24-2.01a.44.44 0 0 0-.73.27q-.3 2.21-1.58 3.39-.52.48-.09 1.01l.98 1.23a.91.85-28.8 0 1-.44 1.36l-1.43.53a1.1 1.06-21.8 0 1-1.37-.56q-1.01-2.29-3.06-2.93a.09.09 0 0 1-.06-.12q1.21-2.76.51-4.02-1.47-2.63-3.53-5.06-1.89-1.51.34-3.08.89 1.6 2.22-2.14.06.24.41-.18l2.38.05q.61.01.6-.59l-.06-1.71q-.03-.8-.82-.71-.71.09-1.34-.15-.75-1.7-.56-3.14.19-1.01 2.25-.95.75.02.15-.43-1.68-1.27.05-2.59.21-.16.04-.37-.16-.19-.38-.33-.55-.35-.23-.92.19-.33.75-.64 2.07.61 4.13.12.49-.12.76-.55l3.3-5.28q.94-.82 1.57-.87t.48.56q-.25 1 .01 1.4a.32.31 44.8 0 0 .53.01l.4-.64a1.1 1.05 40.7 0 1 1.72-.08l.53.59q.48.55.5-.18l.12-4.11q3.27.65 6.45 2.9a1.02 1.02 0 0 0 .91.13c3.17-1.05 6.78-3.25 9.63-3.89q3.68-.83 9.15.06 2.66.44 5.83-.33 1.76-.42 3.23.01 1.64.49 3.05 1.38"/><path fill="#315601" d="m180.92 67.46-.12 4.11q-.02.73-.5.18l-.53-.59a1.1 1.05 40.7 0 0-1.72.08l-.4.64a.32.31 44.8 0 1-.53-.01q-.26-.4-.01-1.4.15-.61-.48-.56t-1.57.87q1.48-3.41 5.86-3.32M222.53 68.24q3.67 4.4 7.76 2.05l2.29 1q-.49.79-1.31 1.42-.06-.19-.16-.31a.46.46 0 0 0-.59-.1q-1.2.71-2.15.8-.2.02-.26.22-.04.16-.05.25 0 .33.33.34.97.03 2.17-.59 1.3 1.26 2.62 2.56c.8.79.78 1.41 1.01 2.6q.12.58.57.61l.31.02a.43.3 39.2 0 1 .2.72l-.32-.02q-.46-.03-.64.56l-1.03 3.5q-.16.51.11 1 .52.98-.48 1.85a.5.5 0 0 1-.82-.29q-.29-1.63-1.94-2.36a.61.61 0 0 0-.81.35q-.47 1.29-1.65 1.88-.55.28-.58.89-.07 1.61-2.22 2.45-.32.13-.3-.14l.46-9.63a.62.56-3.5 0 0-.71-.57l-.83.12q-.47.07-.76-.2l-1.91-1.82q-.42-.4-.51.16-.06.37.25.52.4.18.18.56-.33.56-.97 1.04-.53.39-.67-.25-.86-3.88 2.07-6.23.31-.25.44-.54.21-.47-.16-.7a.52.52 0 0 1-.05-.85q.61-.49.66-.58.22-.45-.52-.52-2.09-.2-2.39-2.29zm.46 1.94a.42.42 0 0 0 .24.66q.33.08.64-.15.29-.22.06-.5-.51-.61-.94-.01m2.23 3.33q.56.29 1.17.38.15.02.24-.03.15-.07.22-.14.25-.23-.07-.36-1.21-.49-1.23-.49-.01-.02-1.11-.72-.29-.19-.33.15-.02.1.01.26.01.1.11.21.43.45.99.74"/><path fill="#2e53fe" d="M230.29 70.29q-4.09 2.35-7.76-2.05 3.74.23 7.76 2.05M222.99 70.18q.43-.6.94.01.23.28-.06.5-.31.23-.64.15a.42.42 0 0 1-.24-.66"/><path fill="#315601" d="M249.01 70.72q-.09.42-.29.74-.22.37-.55.41-.85.09-1.2-.8a.45.45 0 0 0-.71-.19q-.51.41-.43 1.67 0 .15-.15.16l-.36.02q-.24.01-.21-.23.17-1.18-.14-2.26 2.71-1.13 4.04.48M241.52 71.23l.95.98q.41.43-.14.64-.16.06-.34.03-.55-.09-.67-.63-.11-.44-.05-.89.12-.06.25-.13"/><path fill="#2e53fe" d="m164 75.07.09 2.23q.02.53.39.9.47.48-.08.87a.88.88 0 0 0-.36.58q-.26 1.73.2 3.07-.19 1.44.56 3.14-1.19.58-1.48 1.57-.14.48.23.83.37.34.49.71-.35.42-.41.18-.9-.7-1.16.07-.38 1.15-1.06 2.07-2.23 1.57-.34 3.08-.17 1.25.19 2.1.21.48.72.51l.44.03q.11.01.15.11.22.59-.18.59a.34.34 0 0 0-.34.28q-.55 3.08 1.41 5.92.28.41.08.86l-.24.56q-.2.46-.05.93 2.66 8.06 1.46 15.6-.56 3.51-2.27 6.08-1.34 2-3.68 3.29c-2.32 1.28-6.44.81-9.8.79q-2.66-.01-3.8.77-1.35.93-3.05 2.57-3.13 3.02-6.7.19-2.03-1.6-3.88-3.37l-.96-.71-3.04-3.26q-4.44-4.37-5.89 3.57-2.06.27-3.82 3.34-.24.41-.7.33-.95-.17-2.2.58.13-1.04-1.19-.23-1.26 1-2.23 2.39-.13.19-.15.45-.02.28.08.45.25.45-.17.74-2.33 1.59-5.26 1.18-.48-.07-.86-.38l-2.31-1.93-1.8-1.88q-1.22-1.86-2.78-1.97l-.21-.85.48-.19q.4-.15.09-.44-.11-.1-.33-.18l-1.37-3.37q-.18-.44-.58-.19-1.69 1.07-4.96 1.07-.71-2.01-2.48-2.81.7-2.21-2.19-2.65-.6-.09-.66-.58l-.07-.62q-.05-.48-.63-.49-.53-.02-.91.67-1.33 2.42-1.26 2.53.99 1.58.16 3.44-.05.11-1.03 1.81-.48.85-1.33 1.52a.84.84 0 0 0-.32.77l.61 4.49q-.43 1.9-.24 3.84-3.8-.75-5.39-3.35-1.3-2.11-.61-5.65 1.22-6.33 4.75-11.58 5.18-7.69 9.4-12.87c1.03-1.27 2.79-1.99 4.52-2.32q12.05-2.33 28.55-7.37 10.09-3.08 14.18-5.12 8.39-4.19 12.2-12.43.76-1.62 1.61-6.96.35-2.24 2.37-2.98 1.23-.45 3.32.15 4.13 1.2 8.08 2.93M225.55 72.87q.02 0 1.23.49.32.13.07.36-.07.07-.22.14-.09.05-.24.03-.61-.09-1.17-.38t-.99-.74q-.1-.11-.11-.21-.03-.16-.01-.26.04-.34.33-.15 1.1.7 1.11.72M231.27 72.71l-.71.61q-1.2.62-2.17.59-.33-.01-.33-.34.01-.09.05-.25.06-.2.26-.22.95-.09 2.15-.8a.46.46 0 0 1 .59.1q.1.12.16.31"/><path fill="#315601" d="M166.87 76.49q-.56.31-.75.64-.32.57.23.92.22.14.38.33.17.21-.04.37-1.73 1.32-.05 2.59.6.45-.15.43-2.06-.06-2.25.95-.46-1.34-.2-3.07a.88.88 0 0 1 .36-.58q.55-.39.08-.87-.37-.37-.39-.9l-.09-2.23q1.49.41 2.87 1.42"/><path fill="#2e53fe" d="m292.68 104.87-2.83 2.66q-.37.35-.94.37l-4.96.21q-.45.02-.83.33-.14.12-.32.19-.54.22-.74-.34-.38-1.08-1.14-.91-.51.12-.77-.35-.83-1.53-2.66-2.27-.44-.18-.73-.55c-.87-1.12-.97-2-2.27-2.97q-.74-.55-1.41-1.12.67-.34.59-.62-.16-.52-.69-.76.86-4.41-2.28-6.35-.44-.27-.94-.17-.43.09-.75.37-.4.34-.85.05-1.85-1.19-3.81-1.53-1.14-.24-1.75.17-2.75-.49-4.28-2.75-.13-.19.04-.24h.01q.16-.04.23.04 1.28 1.46 2.44 1.59 1.03.11.41-.73l-4.26-5.77q-.93-.55-.42-2.15.25-.9.04-1.78 1-.65.76-2l4.38 3.75a2.24 2.24 0 0 0 1.8.51q1.98-.31 5.98-.8 3.06-.37 6.02.2 4.72.91 8.32 1.99c2.2.65 3.56 1.74 3.93 4.19q.58 3.8-.62 7.82-.17.56.46.71l.93.21q.52.12.67.66c.55 1.95.83 3.46 2.14 5.58q.78 1.26 1.1 2.56"/><path fill="#315601" d="M256.81 79.49q.21.88-.04 1.78-1.07-.24-1.56-.91-.33-.45.06-.84.47-.48 1.54-.03M257.19 83.42l4.26 5.77q.62.84-.41.73-1.16-.13-2.44-1.59-.07-.08-.23-.04h-.01q-.17.05-.04.24 1.53 2.26 4.28 2.75-.81 1.67-3.08 2.66a.7.54 54 0 0-.03 1.03l1.2 1.26a.58.45-42.5 0 1-.13.73l-1.73 1.56q-.55.5-.7-.18-.29-1.37-1.06-.8a.87.86 43.7 0 1-1 .03q-.58-.4-1.51.09-.58.29-.58-.35c.01-.94.67-1.41 1.73-2.57a1.08 1.05 44.9 0 0-.02-1.44l-2.16-2.33q-.54-.58.17-.93l1.76-.84a.53.52 63.7 0 0 .24-.71l-1.31-2.59a1.1 1.09 71 0 1 .76-1.58q1.08-.21 2.04-.9M164.8 85.86q.63.24 1.34.15.79-.09.82.71l.06 1.71q.01.6-.6.59l-2.38-.05q-.12-.37-.49-.71-.37-.35-.23-.83.29-.99 1.48-1.57M163.63 89.15q-1.33 3.74-2.22 2.14.68-.92 1.06-2.07.26-.77 1.16-.07M272.98 98.74q-.79.16-1.15-.35-1.08-1.52-.82-3.89.06-.53-.46-.58-1.27-.15-1.94.04-.67.18-.33.75l.31.52q.35.58-.34.73-1.34.28-2.09-.43-.23-.22-.32-.54-.2-.68-.19-.78.07-.62-.21-.07-.16.31-.59.5a.49.49 0 0 1-.7-.48l.2-3.05q1.96.34 3.81 1.53.45.29.85-.05.32-.28.75-.37.5-.1.94.17 3.14 1.94 2.28 6.35M156.88 154l-1.6-.16q.84-.85.13-1.97-.27-.42-.03-.84.55-.96.47-2.21-.04-.67-.62-.34-1.11.64-1.55-.41-.22-.52-.06-1.06.4-1.4-.78-2.78-.27-.32-.26-.82l.04-1.4q.02-.56-.43-.83-1.84-1.14-.4-3.11.29-.4-.15-.6-.68-.31-1.12-.33a1.68 1.55 86.9 0 1-1.49-1.44q-.22-1.6-.94-1.77-.61-.15-.89.41-.66 1.3-1.09 2.96c-.58 2.27-1.6 2.61-3.53 3.33a1.13.78 46.9 0 1-.92-.2q-.33-.24-.76-.97-.38-.66-.6.07-.35 1.16-1.8 2.49-.41.37-.41.93.02 1.55 1.17 2.98a1.08 1.08 0 0 1 .21.89q-.23 1.13.04 2.44.08.44-.19.82-.28.4-.72.57-.48.17-.56-.31l-.1-.55q-.08-.45-.5-.33-2.54.7-2.67 2.17-.02.21-.23.23-.15.01-.29-.12a.7.7 0 0 1-.22-.58q.33-3.35-1.56-5.49-.41-.47-.18-1.05.73-1.79-.46-3.48a1.11 1.11 0 0 1-.15-.97q.47-1.53-1.13-4.08-.64-1.01-.05-2.06l1.03-1.85q1.85 1.77 3.88 3.37 3.57 2.83 6.7-.19 1.7-1.64 3.05-2.57 1.14-.78 3.8-.77c3.36.02 7.48.49 9.8-.79q2.34-1.29 3.68-3.29 1.71-2.57 2.27-6.08 1.2-7.54-1.46-15.6-.15-.47.05-.93l.24-.56q.2-.45-.08-.86-1.96-2.84-1.41-5.92a.34.34 0 0 1 .34-.28q.4 0 .18-.59-.04-.1-.15-.11l-.44-.03q-.51-.03-.72-.51-.36-.85-.19-2.1 2.06 2.43 3.53 5.06.7 1.26-.51 4.02a.09.09 0 0 0 .06.12q2.05.64 3.06 2.93a1.1 1.06-21.8 0 0 1.37.56l1.43-.53a.91.85-28.8 0 0 .44-1.36l-.98-1.23q-.43-.53.09-1.01 1.28-1.18 1.58-3.39a.44.44 0 0 1 .73-.27q.67.59 1.24 2.01.2.5.71.32 1.48-.53 2.52-2.19a.84.84 0 0 1 1.46.06q.47.91.11 2.11-.99 3.23-.89 5.71.03.7.67.35l.4-.23q.47-.26.83.05 1.52 1.29.32 2.89-.37.48.23.57.97.14 1.82.67a.43.43 0 0 0 .65-.31q.05-.44.65-1.37.36-.57.85-.66.58-.1.51.48-.37 2.89 1.77 4.66.37.3-.1.41-.38.09-.89-.49a.87.86-60.7 0 0-1.5.42l-.29 1.54q-.09.51-.53.35l-.63-.23q-.78-.29-.86.4-.11 1.02-.92.7-.49-.19-.92.12-2.01 1.44-2.8 2.85a1.14.8-43.5 0 0-.14.69l1.2 5.98q.09.44-.33.74-1.5 1.08-.45 3.29.21.45 0 .89c-.23.46-.52.87-.47 1.44q.03.26.38.28a.39.39 0 0 0 .32-.13q.77-.89 1.43-.74.52.11.63.63.3 1.4 1.39 1.57.57.08.25.56-1.86 2.79-2 5.14-.14 2.41-1.42.37-.76-1.2-.77-1.21-.4-.63-.88-.64-.51-.02-1.12.91-.8 1.22-1.14-.18l-.23-.95q-.11-.45-.53-.71-1.5-.91-1.78-2.72-.05-.34-.42-.21l-.44.17a.51.44-20 0 1-.63-.24q-.67-1.84-2.56-.81a.51.49 65.1 0 1-.7-.27l-.28-.71a.45.43-40.7 0 0-.79-.05q-1.01 1.69-.3 3.6.18.49-.16.88l-1.88 2.15q-.33.38-.12.91l.1.26a.24.23 8.1 0 1-.37.26q-.24-.17-.52-.54-1.14-1.54-1.39.27-.21 1.57-1.53 1.9-.35.09-.29.44.04.18.34.46.31.29.08.66-.51.81.29.98.56.12.68.69l.83 4.1q.08.42-.37.43-.6.01-1.05-.41-.37-.35-.72.04-1.35 1.49-1.54 3.37m8.26-47.23q-.34-.41-.54-.46-.72-.17-.24.46.66.86 1.1 1.01.94.3.36-.48-.02-.03-.21-.14-.27-.16-.47-.39m2.87 7.98q.55 7.89-4.45 14.34-.31.41-.91 1.71-.22.45-.66.7-.83.46-3.42 2.29-1.83 1.29-4.33 1.21c-.99-.03-2.29-.84-3.5-1.45a.21.21 0 0 0-.23.35q3.08 2.49 5.26 1.88 4.88-1.38 8.35-5.63.06-.07 1.88-2.66.88-1.24 1.3-2.91c.4-1.57 1.39-3.77 1.61-5.51q.61-4.79-1.53-8.92-.33-.64-.74-.87-.8-.44-.28.31.35.5 1.03 2.52.54 1.61.62 2.64m-22.06 19.497a1.15.37-37.7 0 0-1.136.41 1.15.37-37.7 0 0-.684.996 1.15.37-37.7 0 0 1.136-.41 1.15.37-37.7 0 0 .684-.996m-3.54 1.853q-.23.16-.32.27a.26.26 0 0 0 .32.39q.37-.21.4-.42a.25.25 0 0 0-.4-.24m-4.68 2.6.07-.3a.21.21 0 0 0-.18-.26q-2.14-.18-4.02-1.16-.06-.04-.12.01l-.23.23q-.14.14.02.26 1.88 1.38 4.19 1.43.21 0 .27-.21M273.08 100.12q.67.57 1.41 1.12c1.3.97 1.4 1.85 2.27 2.97q.29.37.73.55 1.83.74 2.66 2.27.26.47.77.35.76-.17 1.14.91.2.56.74.34.18-.07.32-.19.38-.31.83-.33l4.96-.21q.57-.02.94-.37l2.83-2.66q.39 1.51.28 2.63-1.02 2.85-3.54 3.91-1.67.7-3.11-.07-1.55-.82-2.79-2.06-.2-.2-.32-.1v.01a.13.13 0 0 0-.02.18c1.73 2.04 2.9 4.05 5.36 3.62q.85-.15 2-1.21 1.24-1.14 2.59-2.02 1.91 7.37.59 14.44-1.05-4.53-2.99-7.55a.57.57 0 0 0-.98.03l-1.5 2.71a.73.73 0 0 1-1.32-.08l-.22-.6q-.27-.72-.77-.19l-1.24 1.32q-.34.37-.18.84.68 1.96.49 3.34-.26 1.91-.98.12-.4-1.01-1.96-1.09-.56-.04-.54-.6.2-7.25.28-8.44.07-1-1.33-4.79-.36-.97-.35.06l.01 1.16q0 .49-.47.54-.92.11-2.1-.56a.68.53-38.1 0 0-.56 0l-.41.18q-.44.2-.5-.21l-.26-1.71q-.1-.73-.68-.28-.62.47-1.39.69-.72.2-.27.8.95 1.28-.73 3.62-.42.59-.62-.11-.34-1.16-1.49-1.59-.51-.19-.57-.73-.04-.34.36-1.03.26-.44.1-.87l-.21-.58q-.22-.59 0-1.1.64-1.53.22-2.74-.24-.68.37-.73.12-.01.3-.1.38-.19.47-.6.28-1.39.79-2.68.35-.88.59-.53m3.715 6.547a1.77.32 43 0 0-1.077-1.441 1.77.32 43 0 0-1.513-.973 1.77.32 43 0 0 1.077 1.441 1.77.32 43 0 0 1.513.973"/><ellipse fill="#2e53fe" rx="1.77" ry=".32" transform="rotate(43 3.887 402.429)"/><path fill="#2e53fe" d="M165.61 107.16q.19.11.21.14.58.78-.36.48-.44-.15-1.1-1.01-.48-.63.24-.46.2.05.54.46.2.23.47.39M292.96 107.5q.4 1.38.17 2.26-1.35.88-2.59 2.02-1.15 1.06-2 1.21c-2.46.43-3.63-1.58-5.36-3.62a.13.13 0 0 1 .02-.18v-.01q.12-.1.32.1 1.24 1.24 2.79 2.06 1.44.77 3.11.07 2.52-1.06 3.54-3.91M167.39 112.11q-.68-2.02-1.03-2.52-.52-.75.28-.31.41.23.74.87 2.14 4.13 1.53 8.92c-.22 1.74-1.21 3.94-1.61 5.51q-.42 1.67-1.3 2.91-1.82 2.59-1.88 2.66-3.47 4.25-8.35 5.63-2.18.61-5.26-1.88a.21.21 0 0 1 .23-.35c1.21.61 2.51 1.42 3.5 1.45q2.5.08 4.33-1.21 2.59-1.83 3.42-2.29.44-.25.66-.7.6-1.3.91-1.71 5-6.45 4.45-14.34-.08-1.03-.62-2.64"/><path d="M88.89 127.89q-.86 1.15 1.01 3.54.17.22.01.46-.09.14-.25.19-.78.25-.44.67.13.18.35.28a.71.71 0 0 1 .41.55q.09.63.02.88a.35.35 0 0 0 .48.4q2.55-1.22.89-4.16 3.27 0 4.96-1.07.4-.25.58.19l1.37 3.37q-.5 0-.73.15-.27.19-.05.43.16.19.54.23l.21.85q-1.19.33-1.22 1.14-.05 1.34.07 2.78.02.17.2.17l.38-.02q.18 0 .2-.18l.17-1.51q.06-.62.58-.42.42.16.91.91.51.79.97 1.08.48.32.41-.25-.13-1.05.11-1.73l1.8 1.88-1.16.56a.35.28-44.3 0 0-.08.58l.38.12q.51.17.05.61-1.07 1.03-1.92 3.39-.4 1.11.64.55.03-.02.45-.25t.72.14q.51.62 1.36.6.61-.02.62.59l.05 2.06q-9.77-3.71-20.44-4.39l.96-1.27q.31-.4-.04-.77-.83-.89-.37-1.94.1-.24.23-.31l.36-.18q.44-.21.02-.63l-.84-.83q-.58-.56-.7.27-.04.26.05.53a.59.59 0 0 1-.33.75q-.7.29-1.58-.1l-.61-4.49a.84.84 0 0 1 .32-.77q.85-.67 1.33-1.52.98-1.7 1.03-1.81.83-1.86-.16-3.44-.07-.11 1.26-2.53.38-.69.91-.67.58.01.63.49l.07.62q.06.49.66.58 2.89.44 2.19 2.65m-2.3-2.29q-.16-.24-.35-.01-.15.18-.13.88.01.3.31.3.13-.01.24-.09.17-.14.16-.4-.02-.38-.23-.68"/><path fill="#315601" d="M86.59 125.6q.21.3.23.68.01.26-.16.4-.11.08-.24.09-.3 0-.31-.3-.02-.7.13-.88.19-.23.35.01"/><path d="m127.53 128.21-1.4 2.49q-.26.45.08.85l.81.96q.41.49.74-.08.14-.25.09-1-.05-.59.47-.3 1.2.67 2.25.34l.96.71-1.03 1.85q-.59 1.05.05 2.06 1.6 2.55 1.13 4.08a1.11 1.11 0 0 0 .15.97q1.19 1.69.46 3.48-.23.58.18 1.05 1.89 2.14 1.56 5.49a.7.7 0 0 0 .22.58q.14.13.29.12.21-.02.23-.23.13-1.47 2.67-2.17.42-.12.5.33l.1.55q.08.48.56.31.44-.17.72-.57.27-.38.19-.82-.27-1.31-.04-2.44a1.08 1.08 0 0 0-.21-.89q-1.15-1.43-1.17-2.98 0-.56.41-.93 1.45-1.33 1.8-2.49.22-.73.6-.07.43.73.76.97a1.13.78 46.9 0 0 .92.2c1.93-.72 2.95-1.06 3.53-3.33q.43-1.66 1.09-2.96.28-.56.89-.41.72.17.94 1.77a1.68 1.55 86.9 0 0 1.49 1.44q.44.02 1.12.33.44.2.15.6-1.44 1.97.4 3.11.45.27.43.83l-.04 1.4q-.01.5.26.82 1.18 1.38.78 2.78-.16.54.06 1.06.44 1.05 1.55.41.58-.33.62.34.08 1.25-.47 2.21-.24.42.03.84.71 1.12-.13 1.97-4.59-.17-9.2-.02-5.07.17-9.15-.17-7.71-.65-15.44-1.05-1.8-.1-7.5-1.53-.38-2.43.53-4.25.2-.4-.17-.66-1.58-1.12-2.74-.52-.67.35-.63-.41.04-.82.73-1.62.33-.38.23-.86-.1-.46-.62-.82a.4.4 0 0 1-.12-.53q.2-.34.52-.32.53.04.83-.4 1.56-2.31 1.18-4.88 1.32-.81 1.19.23 1.75.91 2.44 2.33.34.71.52-.06c.23-1.03.74-1.55 1.76-2.06q4.27-2.13 2-4.46 1.45-7.94 5.89-3.57"/><path fill="#315601" d="M91.37 130.7q1.66 2.94-.89 4.16a.35.35 0 0 1-.48-.4q.07-.25-.02-.88a.71.71 0 0 0-.41-.55q-.22-.1-.35-.28-.34-.42.44-.67.16-.05.25-.19.16-.24-.01-.46-1.87-2.39-1.01-3.54 1.77.8 2.48 2.81M127.53 128.21l3.04 3.26q-1.05.33-2.25-.34-.52-.29-.47.3.05.75-.09 1-.33.57-.74.08l-.81-.96q-.34-.4-.08-.85zM121.64 131.78q2.27 2.33-2 4.46c-1.02.51-1.53 1.03-1.76 2.06q-.18.77-.52.06-.69-1.42-2.44-2.33 1.25-.75 2.2-.58.46.08.7-.33 1.76-3.07 3.82-3.34M98.28 133.19q.22.08.33.18.31.29-.09.44l-.48.19q-.38-.04-.54-.23-.22-.24.05-.43.23-.15.73-.15"/><ellipse fill="#2e53fe" rx="1.15" ry=".37" transform="rotate(-37.7 270.161 -144.943)"/><path fill="#315601" d="M98.25 134.85q1.56.11 2.78 1.97-.24.68-.11 1.73.07.57-.41.25-.46-.29-.97-1.08-.49-.75-.91-.91-.52-.2-.58.42l-.17 1.51q-.02.18-.2.18l-.38.02q-.18 0-.2-.17-.12-1.44-.07-2.78.03-.81 1.22-1.14M113.73 135.8q.38 2.57-1.18 4.88-.3.44-.83.4-.32-.02-.52.32a.4.4 0 0 0 .12.53q.52.36.62.82.1.48-.23.86-.69.8-.73 1.62-.04.76.63.41 1.16-.6 2.74.52.37.26.17.66-.91 1.82-.53 4.25l-10.05-3.42-.05-2.06q-.01-.61-.62-.59-.85.02-1.36-.6-.3-.37-.72-.14t-.45.25q-1.04.56-.64-.55.85-2.36 1.92-3.39.46-.44-.05-.61l-.38-.12a.35.28-44.3 0 1 .08-.58l1.16-.56 2.31 1.93q.38.31.86.38 2.93.41 5.26-1.18.42-.29.17-.74-.1-.17-.08-.45.02-.26.15-.45.97-1.39 2.23-2.39m-5.82 7.703a1.98.48-.2 0 0-1.982-.473 1.98.48-.2 0 0-1.978.487 1.98.48-.2 0 0 1.982.473 1.98.48-.2 0 0 1.978-.487"/><path fill="#2e53fe" d="M142.41 136.1a.25.25 0 0 1 .4.24q-.03.21-.4.42a.26.26 0 0 1-.32-.39q.09-.11.32-.27"/><path fill="#315601" d="m83.5 143.26-2.48-.64q-.19-1.94.24-3.84.88.39 1.58.1a.59.59 0 0 0 .33-.75q-.09-.27-.05-.53.12-.83.7-.27l.84.83q.42.42-.02.63l-.36.18q-.13.07-.23.31-.46 1.05.37 1.94.35.37.04.77z"/><path fill="#2e53fe" d="M137.46 138.91q-2.31-.05-4.19-1.43-.16-.12-.02-.26l.23-.23q.06-.05.12-.01 1.88.98 4.02 1.16a.21.21 0 0 1 .18.26l-.07.3q-.06.21-.27.21"/><ellipse fill="#2e53fe" rx="1.98" ry=".48" transform="rotate(-.2 41165.51 -30274.924)"/></svg>