<svg xmlns="http://www.w3.org/2000/svg" viewBox="0 0 382 382"><g fill="none" stroke="#297b02" stroke-width="2"><path d="M216.51 66.48q.82 1.81 1.81.89M219.55 67.85q.64 1.82 1.43 2.66a3.12 2.78-49.2 0 1 .06 3.79l-3.25 4.44q-.35.47.09.9.64.64 1.42 1.01.48.24.57-.27l.12-.7a.52.51 27.8 0 1 .88-.25l2.09 2.06q.44.43.92.04.12-.1.27-.19a.56.54-27.9 0 1 .81.23l.84 2.04q.21.5.07.94c-.56 1.82-1.11 3.5-.36 5.52q.48 1.32.31 2.81-.08.7.52.32 1.92-1.21 1.78-4.02a.86.86 0 0 1 .48-.81q1.93-.98 2.4-2.32.9-2.52 1.96.09.04.08 1.03 1.37.29.38.75.24.71-.23.94-.79.19-.49-.1-1.4-.9-2.79-.2-5.7.11-.45-.51-2.41-.16-.48-.6-.49l-1.36-.02a1.22 1.17 16.6 0 1-1.03-1.83q1.26-1.9 1.08-3.79M234.95 71.02q.24.58.7.39.29-.11.14-.6M241.21 71.31q.64.85.79 2.22.06.57.56.29.65-.37.99-.84a.62.62 0 0 0-.09-.84q-.28-.25-.39-.54a.53.53 0 0 1 .39-.7q2.56-.51 2.58 1.53.01.8.69.4.26-.16.21-1.29-.02-.47.45-.49.25-.02.4.14 1.52 1.64 2.39.44M258.52 78.25q-1.36.74-2.62 1.42-.54.29-.72.78-.21.56.32.6l.8.05q.51.03.54.57l.14 2.58q.02.47-.46.59l-1.29.32a.61.58-27.2 0 0-.33.95q2.36 2.64-.22 4.71a1.4 1.4 0 0 1-.78.3q-.31.02-.54.11-.7.29.28.61 1.61.53 2.14 2.72c.4 1.65-.76 3.36-.92 5q-.07.7.14 1.09.39.73.71-.04l.47-1.1q.2-.46.69-.52.8-.1 1.58.18.51.18.59.71.14.84.66 1.22.43.31.46-.23.03-.71.89-3.6.3-1-.56-2.4-.51-.84.46-1.33l2.23-1.16q.85-.43 1.3.48.42.84.56 2.49.06.67.63.34l.41-.23q.34-.2.7.01 1.04.6 2.53.49a.41.37-12.4 0 0 .37-.51l-.28-.67q-.38-.92.43-.85l1.53.14q.67.06.66.7-.02 1.13-1.01 3.38-.14.3.47.6l1.43.7q.02.01-.15.59l-2.46 8.79q-.13.47-.06.63l.4.93q.32.78.01 1.27-.57.88-.7 1.96a.45.45 0 0 0 .5.49q1.01-.13 1.72-.75.42-.38.79.04.35.39.32.53-.41 1.74.6.45 1.21-1.53.25-3.25-.3-.53.25-.82l1.86-.99q.63-.34.68.41l.11 1.71q.04.64.53.3.89-.63 1.61-.12a.44.43 26.2 0 0 .68-.22l.24-.81q.14-.48.63-.63.64-.19.93.44 1.36 2.94.81 6.9-.07.51.12.98.54 1.34-.61 2.31-.53.46 0 .92 1.65 1.41.14 3.2-.21.25-.09 1.12.08.61.5.16 1.36-1.48 2.68-.48.41.31.63-.14l.9-1.86q.27-.56-.34-.5-.41.05-.87-.07a.44.44 0 0 1-.15-.79q1.34-.97 1.74-2.67a.42.4-39.9 0 1 .81.05v.81q0 .68.65.37l1.95-.93q.51-.24.48-.81-.01-.17.02-.34.12-.63.66-.28 1.12.72 2.67 1.06M163.25 154.73l-.75-3.03q-.13-.49.09-.95.1-.21.08-.46-.03-.29-.57-.68-.6-.42-1.31-.69a1.41 1.41 0 0 1-.62-2.17q1.68-2.21 2.03-3.24.21-.63.69-.17.76.74 1.18.82.55.1.68-.42l.5-1.95a1.07.88-7.9 0 1 .59-.65q1.16-.5 1.9-1.53.57-.8.16-1.28-.37-.43-1.38-.38a.3.3 0 0 1-.26-.46q.82-1.23.77-2.64a.83.83 0 0 1 .42-.75q.33-.18.72-.1a.9.9 0 0 1 .7.63q.26.91.2 2.06-.01.24.22.28l.28.05q.2.03.24-.17.37-1.67 1.34-2.61a.49.49 0 0 1 .84.35l.06 2.92q.01.53.56.26.18-.08.89-.62.31-.24.56-.24.34-.01.59.16a.45.45 0 0 1 .05.69q-.97.98-.71 1.82.22.69.71.15.95-1.05 1.71-.78.48.17.51.69.13 2.32-.22 4.45 0 .03.03.03l.28.04q.21.03.26-.18.62-2.84 3.19-1.78.76.31 2.09 1.78.36.39.84.19.25-.1.38-.36.13-.23.01-.47-.11-.21-.2-.27a.83.47-60.1 0 1 .01-.9q.57-1.08.49-3.33-.03-.87.8-2.67a.83.78-54.7 0 0-.12-.89l-2.06-2.22q-.51-.56-.71.14-.17.58-.17 1.08.01.77-.76.75l-.31-.01q-.82-.03-.75-.85.24-2.71-.53-4.4-.25-.55.13-.87l.75-.65q.41-.35.23-.78l-.4-.96q-.2-.49.06-.95 1.64-3-.53-3.68a.97.97 0 0 1-.67-.8q-.16-1.19.73-2.41.31-.45.32-1.01l.01-1.05q.01-.51.48-.39.26.07.39.29.21.36.59.2.4-.17.37-.77-.03-.57.48-.71.14-.05.73.39.45.34.71-.16.15-.29.15-.63-.01-.57.63-.53.05 0 .55.2.44.18.65-.2l2.32-4.09q.23-.41-.09-.71l-2.51-2.47q-.45-.45-1.02.01-.29.24-.73 1.45a.83.83 0 0 1-.61.53q-.9.19-1.08-.65-.13-.62-.15-1.78-.01-.53-.55-.55l-2.68-.06q-.45-.01-.37-.49.13-.82.44-7.17.03-.73-.28-1.44a.47.47 0 0 0-.85 0q-.97 2.25-2.95 3.88a.38.38 0 0 1-.61-.23q-.26-1.56-1.55-2.5a.45.43-72.4 0 0-.69.38l-.01 1.5q0 .56-.33.95-1.19 1.41.07 3.47a.53.52 52.4 0 1-.07.65l-1.69 1.64q-.26.25-.44-.05-1.13-1.91-3.88-2.79a.82.82 0 0 1-.34-1.34q1.19-1.26.59-2.64-.51-1.14-.93-3.14-.11-.51-.62-.66-2.49-.72-2.3-3.09a.8.8 0 0 1 .62-.71q1.37-.31 1.6-1.57a.69.69 0 0 1 .64-.57l2.47-.12q.71-.04.74-.73l.11-2.38q.04-.88-.75-.5l-.84.4a.37.34-17.5 0 1-.52-.25q-.39-2.72 1.33-4.39a.72.71 53.2 0 0 .12-.87q-.63-1.13.05-2.14.3-.43.02-.87-.52-.81-.32-1.67M175.66 69.68q.44 1.18 1.75 1.51.49.12.59.65l.17.86q.15.77.62.16l1.23-1.58a.43.43 0 0 1 .62-.06q1.11.95 1.86.86a.34.34 0 0 0 .23-.54q-1.19-1.61-.63-3.86M161.97 154.65q-.45-.14-.95-.13M156.97 153.97q.32-2.39-2.14-2.12a.73.73 0 0 1-.71-1.11q1.02-1.66.8-3.02-.08-.52-.58-.62l-.88-.19a.37.36-61.9 0 1-.18-.61l1.28-1.31a.66.6-41.4 0 0 .09-.82q-.74-1.01-2.14-1.29-.63-.13-.25-.64.76-1.02.68-2.57-.03-.55-.57-.69-.66-.18-1.36.49-1.11 1.06-1.08-.47l.05-2.22q.01-.76-.66-.44l-1.97.92a.76.74 60.9 0 0-.3 1.1l.97 1.5a.55.53 61 0 1-.21.79l-3.46 1.6a.86.75-8.3 0 0-.47.54l-.13.57q-.17.73-.53.03l-.97-1.89a.75.63-46.1 0 0-1.2.13l-2.71 4.64a.44.42-73.9 0 0 .35.66q.94.01 1.62.93a1.06 1.06 0 0 1 .17.92q-.56 2.03-.23 2.84 1.12 2.76-1.19.7-.75-.67-2.02 1.24M135.2 153.28l-.34-2.36q-.08-.53-.53-.73l-2.8-1.23q-.59-.26-.14-.8l1.11-1.34a1.83 1.43-62.7 0 0-.53-2.82q-.32-.04-.65-.24a.65.65 0 0 1-.23-.86q1.06-1.91.83-4-.13-1.22-1.05-.34-.2.19-.46.11a.5.5 0 0 1-.3-.71q1-1.83.9-3.07-.04-.55-.49-.75l-1.8-.82q-.5-.23-.61.3l-.21 1a.32.26-82.2 0 1-.28.26l-.25-.01q-.42-.01-.39-.35.26-3.48-1.12-6.09-.27-.49-.68-.23a.52.52 0 0 0-.23.55q.46 2.15-1.41 2.46a.73.72-8.1 0 0-.6.8q.13 1.09.72 2.07a1.83 1.83 0 0 1-1.41 2.76q-3.61.31-3.38 3.72a.31.31 0 0 1-.48.28q-1.16-.79-1.54-2.35-.15-.59-.63-.24l-.31.21q-.44.32-.95-.12-.11-.1-.27-.16-.66-.27-.38.48.02.05.42.57.28.36.17.81-.71 2.72-2.31 3.23-.55.17-.57.76l-.07 3.44q-.02.87.66.32.84-.67 1.74-.78.61-.08.59.54l-.13 3.78M101.96 146.82q-.26-.84-1.42-.45M99.84 146.18q.51-2.61 2.1-4.81a.81.81 0 0 0-.68-1.28q-1.46.04-2.36-.6-.43-.31-.85 0-.51.36-1.28.52-.6.13-.45-.47 1.12-4.45 1.43-5.26.26-.66.02-1-.43-.6-.65-.82a.7.7 0 0 0-.83-.12l-.88.48a1.01 1.01 0 0 1-1.07-.06q-1.45-1.02-2.22.65-.43.95.59 2.06a.32.32 0 0 1-.19.54l-.54.07a.75.62-14.3 0 1-.74-.35l-1.81-3.9q-.18-.38 0-.75.05-.11.11-.23.28-.59-.35-.83l-.59-.23q-.55-.21-.2-.62c.32-.38.57-.61.6-1.16q.04-.77-.68-1.06-.49-.19-.95.18l-.61.49q-.65.53-.73-.24l-.05-.5q-.07-.71-.69-.47l-1.8.69q-.69.26-.09.83l1.09 1.06q.25.24.11.6l-1.95 4.88q-.14.36-.54.51l-.65.25a.76.74 77.5 0 0-.48.77q.03.43.57 1.21.2.28.01.58l-.21.35q-.27.46.06.9.41.55 1 .86a.34.33 19.7 0 0 .49-.22l.23-1.21a.47.45-63.7 0 1 .75-.27q1.08 1.02.54 1.78-.31.44 0 .88.82 1.16.32 2.47" vector-effect="non-scaling-stroke"/></g><path d="M216.51 66.48q.82 1.81 1.81.89.64.06 1.23.48.64 1.82 1.43 2.66a3.12 2.78-49.2 0 1 .06 3.79l-3.25 4.44q-.35.47.09.9.64.64 1.42 1.01.48.24.57-.27l.12-.7a.52.51 27.8 0 1 .88-.25l2.09 2.06q.44.43.92.04.12-.1.27-.19a.56.54-27.9 0 1 .81.23l.84 2.04q.21.5.07.94c-.56 1.82-1.11 3.5-.36 5.52q.48 1.32.31 2.81-.08.7.52.32 1.92-1.21 1.78-4.02a.86.86 0 0 1 .48-.81q1.93-.98 2.4-2.32.9-2.52 1.96.09.04.08 1.03 1.37.29.38.75.24.71-.23.94-.79.19-.49-.1-1.4-.9-2.79-.2-5.7.11-.45-.51-2.41-.16-.48-.6-.49l-1.36-.02a1.22 1.17 16.6 0 1-1.03-1.83q1.26-1.9 1.08-3.79 1.07-.36 1.99-.3.24.58.7.39.29-.11.14-.6 2.62-.6 5.42.5.64.85.79 2.22.06.57.56.29.65-.37.99-.84a.62.62 0 0 0-.09-.84q-.28-.25-.39-.54a.53.53 0 0 1 .39-.7q2.56-.51 2.58 1.53.01.8.69.4.26-.16.21-1.29-.02-.47.45-.49.25-.02.4.14 1.52 1.64 2.39.44l8.34 6.62q-1.36.74-2.62 1.42-.54.29-.72.78-.21.56.32.6l.8.05q.51.03.54.57l.14 2.58q.02.47-.46.59l-1.29.32a.61.58-27.2 0 0-.33.95q2.36 2.64-.22 4.71a1.4 1.4 0 0 1-.78.3q-.31.02-.54.11-.7.29.28.61 1.61.53 2.14 2.72c.4 1.65-.76 3.36-.92 5q-.07.7.14 1.09.39.73.71-.04l.47-1.1q.2-.46.69-.52.8-.1 1.58.18.51.18.59.71.14.84.66 1.22.43.31.46-.23.03-.71.89-3.6.3-1-.56-2.4-.51-.84.46-1.33l2.23-1.16q.85-.43 1.3.48.42.84.56 2.49.06.67.63.34l.41-.23q.34-.2.7.01 1.04.6 2.53.49a.41.37-12.4 0 0 .37-.51l-.28-.67q-.38-.92.43-.85l1.53.14q.67.06.66.7-.02 1.13-1.01 3.38-.14.3.47.6l1.43.7q.02.01-.15.59l-2.46 8.79q-.13.47-.06.63l.4.93q.32.78.01 1.27-.57.88-.7 1.96a.45.45 0 0 0 .5.49q1.01-.13 1.72-.75.42-.38.79.04.35.39.32.53-.41 1.74.6.45 1.21-1.53.25-3.25-.3-.53.25-.82l1.86-.99q.63-.34.68.41l.11 1.71q.04.64.53.3.89-.63 1.61-.12a.44.43 26.2 0 0 .68-.22l.24-.81q.14-.48.63-.63.64-.19.93.44 1.36 2.94.81 6.9-.07.51.12.98.54 1.34-.61 2.31-.53.46 0 .92 1.65 1.41.14 3.2-.21.25-.09 1.12.08.61.5.16 1.36-1.48 2.68-.48.41.31.63-.14l.9-1.86q.27-.56-.34-.5-.41.05-.87-.07a.44.44 0 0 1-.15-.79q1.34-.97 1.74-2.67a.42.4-39.9 0 1 .81.05v.81q0 .68.65.37l1.95-.93q.51-.24.48-.81-.01-.17.02-.34.12-.63.66-.28 1.12.72 2.67 1.06-.48 7.54-2.99 14.43-.91 2.51-4.48 12.08-.94 2.51-2.54 11.58-.5 2.81-1.44 4.13c-2.18 3.07-7.84 2.79-10.68 1.46q-3.85-1.8-5.11-2.14c-2.52-.67-4.25.29-6.57 1.72q-5.3 3.28-10.8 3.49-1.21.05-8.74-1.56-3.32-.71-8.44-2.81-3.95-1.61-8.64-2.23-3.94-.52-8.79.22-5.34.82-11.25 1.72-6.34.97-11.33.74-15.26-.71-29.3-7.51l-.75-3.03q-.13-.49.09-.95.1-.21.08-.46-.03-.29-.57-.68-.6-.42-1.31-.69a1.41 1.41 0 0 1-.62-2.17q1.68-2.21 2.03-3.24.21-.63.69-.17.76.74 1.18.82.55.1.68-.42l.5-1.95a1.07.88-7.9 0 1 .59-.65q1.16-.5 1.9-1.53.57-.8.16-1.28-.37-.43-1.38-.38a.3.3 0 0 1-.26-.46q.82-1.23.77-2.64a.83.83 0 0 1 .42-.75q.33-.18.72-.1a.9.9 0 0 1 .7.63q.26.91.2 2.06-.01.24.22.28l.28.05q.2.03.24-.17.37-1.67 1.34-2.61a.49.49 0 0 1 .84.35l.06 2.92q.01.53.56.26.18-.08.89-.62.31-.24.56-.24.34-.01.59.16a.45.45 0 0 1 .05.69q-.97.98-.71 1.82.22.69.71.15.95-1.05 1.71-.78.48.17.51.69.13 2.32-.22 4.45 0 .03.03.03l.28.04q.21.03.26-.18.62-2.84 3.19-1.78.76.31 2.09 1.78.36.39.84.19.25-.1.38-.36.13-.23.01-.47-.11-.21-.2-.27a.83.47-60.1 0 1 .01-.9q.57-1.08.49-3.33-.03-.87.8-2.67a.83.78-54.7 0 0-.12-.89l-2.06-2.22q-.51-.56-.71.14-.17.58-.17 1.08.01.77-.76.75l-.31-.01q-.82-.03-.75-.85.24-2.71-.53-4.4-.25-.55.13-.87l.75-.65q.41-.35.23-.78l-.4-.96q-.2-.49.06-.95 1.64-3-.53-3.68a.97.97 0 0 1-.67-.8q-.16-1.19.73-2.41.31-.45.32-1.01l.01-1.05q.01-.51.48-.39.26.07.39.29.21.36.59.2.4-.17.37-.77-.03-.57.48-.71.14-.05.73.39.45.34.71-.16.15-.29.15-.63-.01-.57.63-.53.05 0 .55.2.44.18.65-.2l2.32-4.09q.23-.41-.09-.71l-2.51-2.47q-.45-.45-1.02.01-.29.24-.73 1.45a.83.83 0 0 1-.61.53q-.9.19-1.08-.65-.13-.62-.15-1.78-.01-.53-.55-.55l-2.68-.06q-.45-.01-.37-.49.13-.82.44-7.17.03-.73-.28-1.44a.47.47 0 0 0-.85 0q-.97 2.25-2.95 3.88a.38.38 0 0 1-.61-.23q-.26-1.56-1.55-2.5a.45.43-72.4 0 0-.69.38l-.01 1.5q0 .56-.33.95-1.19 1.41.07 3.47a.53.52 52.4 0 1-.07.65l-1.69 1.64q-.26.25-.44-.05-1.13-1.91-3.88-2.79a.82.82 0 0 1-.34-1.34q1.19-1.26.59-2.64-.51-1.14-.93-3.14-.11-.51-.62-.66-2.49-.72-2.3-3.09a.8.8 0 0 1 .62-.71q1.37-.31 1.6-1.57a.69.69 0 0 1 .64-.57l2.47-.12q.71-.04.74-.73l.11-2.38q.04-.88-.75-.5l-.84.4a.37.34-17.5 0 1-.52-.25q-.39-2.72 1.33-4.39a.72.71 53.2 0 0 .12-.87q-.63-1.13.05-2.14.3-.43.02-.87-.52-.81-.32-1.67 1.82.54 3.24.2 1.23-.29 2.21-1.98 1.46-2.54 3.02-5.08.44 1.18 1.75 1.51.49.12.59.65l.17.86q.15.77.62.16l1.23-1.58a.43.43 0 0 1 .62-.06q1.11.95 1.86.86a.34.34 0 0 0 .23-.54q-1.19-1.61-.63-3.86l5.06 2.53a2.29 2.29 0 0 0 1.92.06q3.42-1.45 6.72-3.01 1.75-.83 5.56-1.13.03 0 5.25.52 3.96.39 7.89-.58.56-.13 2.01.41"/><path fill="#52f504" d="M218.32 67.37q-.99.92-1.81-.89zM182.1 67.68q-.56 2.25.63 3.86a.34.34 0 0 1-.23.54q-.75.09-1.86-.86a.43.43 0 0 0-.62.06l-1.23 1.58q-.47.61-.62-.16l-.17-.86q-.1-.53-.59-.65-1.31-.33-1.75-1.51 2.29-2.86 6.44-2M232.96 71.32q.18 1.89-1.08 3.79a1.22 1.17 16.6 0 0 1.03 1.83l1.36.02q.44.01.6.49.62 1.96.51 2.41-.7 2.91.2 5.7.29.91.1 1.4-.23.56-.94.79-.46.14-.75-.24-.99-1.29-1.03-1.37-1.06-2.61-1.96-.09-.47 1.34-2.4 2.32a.86.86 0 0 0-.48.81q.14 2.81-1.78 4.02-.6.38-.52-.32.17-1.49-.31-2.81c-.75-2.02-.2-3.7.36-5.52q.14-.44-.07-.94l-.84-2.04a.56.54-27.9 0 0-.81-.23q-.15.09-.27.19-.48.39-.92-.04l-2.09-2.06a.52.51 27.8 0 0-.88.25l-.12.7q-.09.51-.57.27-.78-.37-1.42-1.01-.44-.43-.09-.9l3.25-4.44a3.12 2.78-49.2 0 0-.06-3.79q-.79-.84-1.43-2.66 7.06.46 13.41 3.47M250.18 71.63q-.87 1.2-2.39-.44-.15-.16-.4-.14-.47.02-.45.49.05 1.13-.21 1.29-.68.4-.69-.4-.02-2.04-2.58-1.53a.53.53 0 0 0-.39.7q.11.29.39.54a.62.62 0 0 1 .09.84q-.34.47-.99.84-.5.28-.56-.29-.15-1.37-.79-2.22 6.15-3.01 8.97.32M235.79 70.81q.15.49-.14.6-.46.19-.7-.39zM167.19 76.54q-.2.86.32 1.67.28.44-.02.87-.68 1.01-.05 2.14a.72.71 53.2 0 1-.12.87q-1.72 1.67-1.33 4.39a.37.34-17.5 0 0 .52.25l.84-.4q.79-.38.75.5l-.11 2.38q-.03.69-.74.73l-2.47.12a.69.69 0 0 0-.64.57q-.23 1.26-1.6 1.57a.8.8 0 0 0-.62.71q-.19 2.37 2.3 3.09.51.15.62.66.42 2 .93 3.14.6 1.38-.59 2.64a.82.82 0 0 0 .34 1.34q2.75.88 3.88 2.79.18.3.44.05l1.69-1.64a.53.52 52.4 0 0 .07-.65q-1.26-2.06-.07-3.47.33-.39.33-.95l.01-1.5a.45.43-72.4 0 1 .69-.38q1.29.94 1.55 2.5a.38.38 0 0 0 .61.23q1.98-1.63 2.95-3.88a.47.47 0 0 1 .85 0q.31.71.28 1.44-.31 6.35-.44 7.17-.08.48.37.49l2.68.06q.54.02.55.55.02 1.16.15 1.78.18.84 1.08.65a.83.83 0 0 0 .61-.53q.44-1.21.73-1.45.57-.46 1.02-.01l2.51 2.47q.32.3.09.71l-2.32 4.09q-.21.38-.65.2-.5-.2-.55-.2-.64-.04-.63.53 0 .34-.15.63-.26.5-.71.16-.59-.44-.73-.39-.51.14-.48.71.03.6-.37.77-.38.16-.59-.2-.13-.22-.39-.29-.47-.12-.48.39l-.01 1.05q-.01.56-.32 1.01-.89 1.22-.73 2.41a.97.97 0 0 0 .67.8q2.17.68.53 3.68-.26.46-.06.95l.4.96q.18.43-.23.78l-.75.65q-.38.32-.13.87.77 1.69.53 4.4-.07.82.75.85l.31.01q.77.02.76-.75 0-.5.17-1.08.2-.7.71-.14l2.06 2.22a.83.78-54.7 0 1 .12.89q-.83 1.8-.8 2.67.08 2.25-.49 3.33a.83.47-60.1 0 0-.01.9q.09.06.2.27.12.24-.01.47-.13.26-.38.36-.48.2-.84-.19-1.33-1.47-2.09-1.78-2.57-1.06-3.19 1.78-.05.21-.26.18l-.28-.04q-.03 0-.03-.03.35-2.13.22-4.45-.03-.52-.51-.69-.76-.27-1.71.78-.49.54-.71-.15-.26-.84.71-1.82a.45.45 0 0 0-.05-.69q-.25-.17-.59-.16-.25 0-.56.24-.71.54-.89.62-.55.27-.56-.26l-.06-2.92a.49.49 0 0 0-.84-.35q-.97.94-1.34 2.61-.04.2-.24.17l-.28-.05q-.23-.04-.22-.28.06-1.15-.2-2.06a.9.9 0 0 0-.7-.63q-.39-.08-.72.1a.83.83 0 0 0-.42.75q.05 1.41-.77 2.64a.3.3 0 0 0 .26.46q1.01-.05 1.38.38.41.48-.16 1.28-.74 1.03-1.9 1.53a1.07.88-7.9 0 0-.59.65l-.5 1.95q-.13.52-.68.42-.42-.08-1.18-.82-.48-.46-.69.17-.35 1.03-2.03 3.24a1.41 1.41 0 0 0 .62 2.17q.71.27 1.31.69.54.39.57.68.02.25-.08.46-.22.46-.09.95l.75 3.03q-.58.11-1.28-.08-.45-.14-.95-.13l-4.05-.55q.32-2.39-2.14-2.12a.73.73 0 0 1-.71-1.11q1.02-1.66.8-3.02-.08-.52-.58-.62l-.88-.19a.37.36-61.9 0 1-.18-.61l1.28-1.31a.66.6-41.4 0 0 .09-.82q-.74-1.01-2.14-1.29-.63-.13-.25-.64.76-1.02.68-2.57-.03-.55-.57-.69-.66-.18-1.36.49-1.11 1.06-1.08-.47l.05-2.22q.01-.76-.66-.44l-1.97.92a.76.74 60.9 0 0-.3 1.1l.97 1.5a.55.53 61 0 1-.21.79l-3.46 1.6a.86.75-8.3 0 0-.47.54l-.13.57q-.17.73-.53.03l-.97-1.89a.75.63-46.1 0 0-1.2.13l-2.71 4.64a.44.42-73.9 0 0 .35.66q.94.01 1.62.93a1.06 1.06 0 0 1 .17.92q-.56 2.03-.23 2.84 1.12 2.76-1.19.7-.75-.67-2.02 1.24l-1.84-.28-.34-2.36q-.08-.53-.53-.73l-2.8-1.23q-.59-.26-.14-.8l1.11-1.34a1.83 1.43-62.7 0 0-.53-2.82q-.32-.04-.65-.24a.65.65 0 0 1-.23-.86q1.06-1.91.83-4-.13-1.22-1.05-.34-.2.19-.46.11a.5.5 0 0 1-.3-.71q1-1.83.9-3.07-.04-.55-.49-.75l-1.8-.82q-.5-.23-.61.3l-.21 1a.32.26-82.2 0 1-.28.26l-.25-.01q-.42-.01-.39-.35.26-3.48-1.12-6.09-.27-.49-.68-.23a.52.52 0 0 0-.23.55q.46 2.15-1.41 2.46a.73.72-8.1 0 0-.6.8q.13 1.09.72 2.07a1.83 1.83 0 0 1-1.41 2.76q-3.61.31-3.38 3.72a.31.31 0 0 1-.48.28q-1.16-.79-1.54-2.35-.15-.59-.63-.24l-.31.21q-.44.32-.95-.12-.11-.1-.27-.16-.66-.27-.38.48.02.05.42.57.28.36.17.81-.71 2.72-2.31 3.23-.55.17-.57.76l-.07 3.44q-.02.87.66.32.84-.67 1.74-.78.61-.08.59.54l-.13 3.78-12.85-4.51q-.26-.84-1.42-.45-.2-.13-.7-.19.51-2.61 2.1-4.81a.81.81 0 0 0-.68-1.28q-1.46.04-2.36-.6-.43-.31-.85 0-.51.36-1.28.52-.6.13-.45-.47 1.12-4.45 1.43-5.26.26-.66.02-1-.43-.6-.65-.82a.7.7 0 0 0-.83-.12l-.88.48a1.01 1.01 0 0 1-1.07-.06q-1.45-1.02-2.22.65-.43.95.59 2.06a.32.32 0 0 1-.19.54l-.54.07a.75.62-14.3 0 1-.74-.35l-1.81-3.9q-.18-.38 0-.75.05-.11.11-.23.28-.59-.35-.83l-.59-.23q-.55-.21-.2-.62c.32-.38.57-.61.6-1.16q.04-.77-.68-1.06-.49-.19-.95.18l-.61.49q-.65.53-.73-.24l-.05-.5q-.07-.71-.69-.47l-1.8.69q-.69.26-.09.83l1.09 1.06q.25.24.11.6l-1.95 4.88q-.14.36-.54.51l-.65.25a.76.74 77.5 0 0-.48.77q.03.43.57 1.21.2.28.01.58l-.21.35q-.27.46.06.9.41.55 1 .86a.34.33 19.7 0 0 .49-.22l.23-1.21a.47.45-63.7 0 1 .75-.27q1.08 1.02.54 1.78-.31.44 0 .88.82 1.16.32 2.47-5.35-.31-8.47-3.08c-4.22-3.75 1.36-15.23 3.89-18.86q5.36-7.69 8.88-12.09c1.05-1.3 2.63-2.02 4.43-2.38q17.05-3.47 35.97-9.76 6.73-2.23 10.81-5.11 8.88-6.25 9.99-17.2.19-1.86 2.1-2.72 1.25-.56 2.95-.12 6.23 1.62 11.9 4.53M258.52 78.25l3.32 2.89q.86.75 1.99.59 2.19-.31 6.1-.8 2.91-.35 6.12.28c3.85.76 8.08 1.33 10.68 3.33q.96.74 1.28 2.87.55 3.75-.59 7.71-.18.62.45.76l.99.23q.53.12.63.66.56 3.2 2.09 5.52 1.04 1.57 1.37 4.01.9 6.58 1.4 13.11-1.55-.34-2.67-1.06-.54-.35-.66.28-.03.17-.02.34.03.57-.48.81l-1.95.93q-.65.31-.65-.37v-.81a.42.4-39.9 0 0-.81-.05q-.4 1.7-1.74 2.67a.44.44 0 0 0 .15.79q.46.12.87.07.61-.06.34.5l-.9 1.86q-.22.45-.63.14-1.32-1-2.68.48-.42.45-.5-.16-.12-.87.09-1.12 1.51-1.79-.14-3.2-.53-.46 0-.92 1.15-.97.61-2.31-.19-.47-.12-.98.55-3.96-.81-6.9-.29-.63-.93-.44-.49.15-.63.63l-.24.81a.44.43 26.2 0 1-.68.22q-.72-.51-1.61.12-.49.34-.53-.3l-.11-1.71q-.05-.75-.68-.41l-1.86.99q-.55.29-.25.82.96 1.72-.25 3.25-1.01 1.29-.6-.45.03-.14-.32-.53-.37-.42-.79-.04-.71.62-1.72.75a.45.45 0 0 1-.5-.49q.13-1.08.7-1.96.31-.49-.01-1.27l-.4-.93q-.07-.16.06-.63l2.46-8.79q.17-.58.15-.59l-1.43-.7q-.61-.3-.47-.6.99-2.25 1.01-3.38.01-.64-.66-.7l-1.53-.14q-.81-.07-.43.85l.28.67a.41.37-12.4 0 1-.37.51q-1.49.11-2.53-.49-.36-.21-.7-.01l-.41.23q-.57.33-.63-.34-.14-1.65-.56-2.49-.45-.91-1.3-.48l-2.23 1.16q-.97.49-.46 1.33.86 1.4.56 2.4-.86 2.89-.89 3.6-.03.54-.46.23-.52-.38-.66-1.22-.08-.53-.59-.71-.78-.28-1.58-.18-.49.06-.69.52l-.47 1.1q-.32.77-.71.04-.21-.39-.14-1.09c.16-1.64 1.32-3.35.92-5q-.53-2.19-2.14-2.72-.98-.32-.28-.61.23-.09.54-.11a1.4 1.4 0 0 0 .78-.3q2.58-2.07.22-4.71a.61.58-27.2 0 1 .33-.95l1.29-.32q.48-.12.46-.59l-.14-2.58q-.03-.54-.54-.57l-.8-.05q-.53-.04-.32-.6.18-.49.72-.78 1.26-.68 2.62-1.42"/><path d="M99.84 146.18q-7.22-2.14-15.1-2.85.5-1.31-.32-2.47-.31-.44 0-.88.54-.76-.54-1.78a.47.45-63.7 0 0-.75.27l-.23 1.21a.34.33 19.7 0 1-.49.22q-.59-.31-1-.86-.33-.44-.06-.9l.21-.35q.19-.3-.01-.58-.54-.78-.57-1.21a.76.74 77.5 0 1 .48-.77l.65-.25q.4-.15.54-.51l1.95-4.88q.14-.36-.11-.6l-1.09-1.06q-.6-.57.09-.83l1.8-.69q.62-.24.69.47l.05.5q.08.77.73.24l.61-.49q.46-.37.95-.18.72.29.68 1.06c-.03.55-.28.78-.6 1.16q-.35.41.2.62l.59.23q.63.24.35.83-.06.12-.11.23-.18.37 0 .75l1.81 3.9a.75.62-14.3 0 0 .74.35l.54-.07a.32.32 0 0 0 .19-.54q-1.02-1.11-.59-2.06.77-1.67 2.22-.65a1.01 1.01 0 0 0 1.07.06l.88-.48a.7.7 0 0 1 .83.12q.22.22.65.82.24.34-.02 1-.31.81-1.43 5.26-.15.6.45.47.77-.16 1.28-.52.42-.31.85 0 .9.64 2.36.6a.81.81 0 0 1 .68 1.28q-1.59 2.2-2.1 4.81M135.2 153.28q-10.45.12-20.39-1.95l.13-3.78q.02-.62-.59-.54-.9.11-1.74.78-.68.55-.66-.32l.07-3.44q.02-.59.57-.76 1.6-.51 2.31-3.23.11-.45-.17-.81-.4-.52-.42-.57-.28-.75.38-.48.16.06.27.16.51.44.95.12l.31-.21q.48-.35.63.24.38 1.56 1.54 2.35a.31.31 0 0 0 .48-.28q-.23-3.41 3.38-3.72a1.83 1.83 0 0 0 1.41-2.76q-.59-.98-.72-2.07a.73.72-8.1 0 1 .6-.8q1.87-.31 1.41-2.46a.52.52 0 0 1 .23-.55q.41-.26.68.23 1.38 2.61 1.12 6.09-.03.34.39.35l.25.01a.32.26-82.2 0 0 .28-.26l.21-1q.11-.53.61-.3l1.8.82q.45.2.49.75.1 1.24-.9 3.07a.5.5 0 0 0 .3.71q.26.08.46-.11.92-.88 1.05.34.23 2.09-.83 4a.65.65 0 0 0 .23.86q.33.2.65.24a1.83 1.43-62.7 0 1 .53 2.82l-1.11 1.34q-.45.54.14.8l2.8 1.23q.45.2.53.73zM156.97 153.97l-19.93-.41q1.27-1.91 2.02-1.24 2.31 2.06 1.19-.7-.33-.81.23-2.84a1.06 1.06 0 0 0-.17-.92q-.68-.92-1.62-.93a.44.42-73.9 0 1-.35-.66l2.71-4.64a.75.63-46.1 0 1 1.2-.13l.97 1.89q.36.7.53-.03l.13-.57a.86.75-8.3 0 1 .47-.54l3.46-1.6a.55.53 61 0 0 .21-.79l-.97-1.5a.76.74 60.9 0 1 .3-1.1l1.97-.92q.67-.32.66.44l-.05 2.22q-.03 1.53 1.08.47.7-.67 1.36-.49.54.14.57.69.08 1.55-.68 2.57-.38.51.25.64 1.4.28 2.14 1.29a.66.6-41.4 0 1-.09.82l-1.28 1.31a.37.36-61.9 0 0 .18.61l.88.19q.5.1.58.62.22 1.36-.8 3.02a.73.73 0 0 0 .71 1.11q2.46-.27 2.14 2.12M101.96 146.82q-.77-.09-1.42-.45 1.16-.39 1.42.45M161.97 154.65q-.54.07-.95-.13.5-.01.95.13"/></svg>