<svg xmlns="http://www.w3.org/2000/svg" viewBox="0 0 382 382"><g fill="none" stroke="#76472a" stroke-width="2"><path d="M216.17 66.77q-.32.91.71 1.14.57.12 1.34-.08a.51.51 0 0 1 .65.49q0 1.38 1.64 1.88.57.17.49.75-.07.53-.45 1.01-.34.41-.07.86.24.41.21.82-.04.5-.5.71-3.68 1.66-3.17 5.61.25 1.92 1.38.27.04-.06.79-1.69.27-.6.76-.17.16.14.39.38.35.37.26.96-.04.31-.23.63a.43.4-73.6 0 0 .33.64l2.56.04q.79.02.36.67-.84 1.27-.08 2.35.33.46-.16 1l-.62.68a1.1.68 74.2 0 0-.21.72q.12 2.99-1.93 4.88c-.72.67-.69 1.31-.6 2.18q.03.23.29.2l.26-.04a.33.31-88.4 0 0 .27-.27l.11-.64q.11-.62.71-.45 2.79.8 2.34 4.11a.34.3 8.3 0 0 .3.34l.38.06q.14.02.16-.12l.55-3.91q.06-.46-.09-.93-.7-2.24 3.03-3.19 1.43-.36.08-.57-.13-.02-.1-.45.05-.55.53-.29 1.11.59 1.43.87 1.73 1.52 3.23 5.53.14.37.57.38.61.02.5-.59-.22-1.17.77-3.56a1.1 1.1 0 0 0-.01-.86q-.4-.9-1.51-1.29-.67-.23-.27-.83.66-.99.55-3.35-.03-.52.51-.55l1.67-.11q1.07-.07.37-.79l-1.95-2q-.47-.48-.27-1.03l.19-.54q.23-.62-.44-.69-1.28-.13-2.59.88a.39.39 0 0 1-.62-.27q-.3-2.91 1.44-4.59.39-.38.11-.84-.24-.39-.2-.81a.42.42 0 0 1 .65-.32q2.48 1.54 4.24-1.46M240.19 71.35q-.37 1.43 1.36 2.75a.59.58 37.4 0 1 .11.82l-.3.4q-.62.81.29.35 1.44-.75 1.47-2.41.01-.46.11-.78.22-.64.29-.74 1.35-1.84 1.42.52l.02.83q.02.6.62.5l5.71-1.01M257.24 77.25q-.29 1.46-1.43 2.35a1.68 1.63 59.2 0 0-.47 1.98l1.29 2.88q.21.47-.25.79-.83.57-1.62.73a.54.54 0 0 0-.37.79q1.58 2.78-.81 3.42a.78.78 0 0 0-.43 1.21q1.11 1.54 1.7 3.51.15.49-.21.86-.99 1.04-1.87 1.99-.69.74-.69 1.28-.01.88 1.05 1.59.55.37.78-.3l.18-.55q.2-.6.76-.35.76.33 1.38-.06.62-.38.63.35.03 1.27.82 4.57.12.48.45.11c.36-.41.71-1.08.77-1.7q.24-2.85.96-4.9.17-.48-.02-.95-.69-1.69.25-3.29.43-.73.73.1l.21.58q.19.54.69.33 1.21-.48 1.66-.36.58.16.57.74l-.02 1.29a.42.4-7 0 0 .52.38q.21-.05.35-.12.48-.22.96.01 2.29 1.08 5.2-1.06 1.62-1.19.52.54-.97 1.54-.15 3.54c.48 1.15.43 1.98-.09 3.22q-.22.52.15.94.25.3.3.62.08.51-.43.62-.87.2-1.22.8-.25.44.09.85l.57.7q.44.54-.19.7-.6.15-1.22.06-2.05-.26-.51 1.26.15.15.9.91.29.29 0 .58l-1.45 1.45a1.04 1.02-62.8 0 0 .54 1.76l1.6.24q.52.08.56.64l.15 1.92q.17 2.32.92.12 1.06-3.11 1.16-6.12.02-.63.6-.38.73.31 1.39.04.64-.25.81.41.4 1.48 1.9 2.13a.79.67-52.8 0 0 .78-.18l1.63-1.5q.58-.54.7.19.14.78-.45 1.37-.76.78.16 1.36 1.42.9.75 1.88-.3.46-.14.98.7 2.24-1.55 4.61a.35.32-45.9 0 0-.02.47l.88.87q.56.56-.06 1.05-1.61 1.25-1.53 2.05.06.6.6.4l1.26-.47q.55-.2.86.26 1.2 1.77.86 2.76-.31.89.44.32.81-.62.35-1.6-.24-.49.13-.82l.79-.69a1.19 1.12 37.5 0 0-.3-1.88q-.5-.26-.71-.59a.42.42 0 0 1 .34-.65q1.11-.05 1.44-1.4.06-.24.28-.37.18-.11.38-.09.46.05.4.51l-.21 1.45q-.06.4.38.53.29.08.55-.34a.51.46-30.4 0 0 .08-.25l.02-.51q.02-.73.67-.41.67.34.99.31.51-.05.46-.56-.11-1.1.03-1.58.18-.63.61-.13.31.37.55 1.21.18.58.78.58.21 0 .48.18a.41.41 0 0 1 .1.6q-.52.63-.16 1a.5.29 59.1 0 0 .28.16l.86.05a.31.31 0 0 1 .2.53q-.75.72-.17 1.45a.98.98 0 0 1 .19.86q-.34 1.32-.01 2.19M159.02 154.24l-1.25-2.69a.44.44 0 0 0-.66-.17l-.33.26q-.48.36-.72-.18-.14-.32-.01-.72.16-.46.4-.65 1.82-1.39 1.75-3.52a.55.54-77 0 1 .8-.51l1.19.64a.65.64-53.5 0 0 .77-.12l3.73-3.81q.51-.53-.16-.69l-.6-.15q-.64-.16-.48-.77l.6-2.2q.4-1.5 1.3-.12.41.64.8 1.56a.64.64 0 0 0 1.17.02q.43-.89.97-1.11.61-.25.65.41l.18 2.5a.41.4 78.4 0 0 .53.36q.18-.06.3-.14.64-.38.76.35.27 1.59 2.03 3.74.31.37.08.8-.83 1.55-.79 3.06.02.55.56.42.44-.1.49-1.16.04-.71.63-.34.86.53 1.61.11.62-.35.66.36.19 3.9-.64 5.76-1.17 2.64.85.62.21-.22 1.17-.07.47.07.53.54.13 1 .43 1.64.32.7.5-.05.51-2.15-.52-4.78-.17-.44.08-.86l2.33-3.82a1.27 1.21-83.7 0 1 .61-.52q1.47-.56 3.14.37a.59.55-57.9 0 0 .75-.2l.16-.24a.51.48-55.1 0 0-.1-.69q-1.06-.75-1.5-1.76-.23-.52-.75-.28-.61.27-.83-.13-1.05-1.87-1.23-2.97-.37-2.37-1.48-.24-.37.71-.71 1.5-.22.51-.68.2-.53-.36-.83-1.02c-.92-2.04 1.67-3.72.23-5.94q-.34-.51.26-.66 2.31-.55 1.63-2.52-.17-.51-.04-1.06l.68-2.81a.43.4 87.3 0 0-.52-.51l-.91.35q-.62.24-.59-.41l.08-2.25q.03-.6.54-.7 1.26-.23 1.85-3.04.04-.21.18-.05.38.41.83.53a.36.36 0 0 0 .45-.35q-.03-.99.35-1.06.6-.11.66.5.06.57.28.83a.5.46-43.7 0 0 .73-.02l1.09-1.19q.45-.49.84-.01.29.35.2 1.02-.02.11.07.18.12.11.28.1.2-.01.31-.2l1.1-2.03q.35-.66.88-.22.58.48 1.39 1.38.13.14.27.17.15.03.27-.01.44-.14.33-.59-.49-1.9 1.18-2.55a.23.23 0 0 0-.08-.44q-.7 0-1.22.17a.48.48 0 0 1-.62-.43q-.1-1.56-.91-3.63c-.5-1.27.02-2.72.41-3.77q.14-.4-.25-.54l-.24-.09a.63.63 0 0 0-.79.33q-.77 1.72-2.76 2.39a.44.44 0 0 0-.29.53q.57 2.21-.67 1.77a.75.66-1.1 0 1-.4-.34l-2.54-4.99q-.26-.51-.78-.21-.78.45-1.25 0-.39-.37-.3-.9.66-3.89 1.92-5.71.32-.46.2-.87l-.51-1.88a.72.7 72.1 0 1 .43-.85l.83-.32a.54.44-21.6 0 0 .35-.62l-.11-.25a.98.8 72.2 0 0-.94-.6q-1.86.33-3.19 1.57-.41.37-.09.82.66.95-.01 1.52-.42.35-.96.27-1.12-.16-1.92.02a1.04.68 58.5 0 1-.84-.4q-.37-.44-.82-2.49-.19-.87-1.19-.73-.61.09-.28.61 1.08 1.69.12 2.67a1.15 1.15 0 0 1-.93.35q-.36-.04-.74-.21-.54-.24-.67.25l-.72 2.83q-.1.42.25.72.67.58 1.73.93.44.15.3.59-.76 2.5-2.72 2.35-.58-.05-.69-.62l-.27-1.49a1.3 1.26 83.9 0 0-1.27-1.07l-2.22.07q-.57.01-.27-.5.55-.98 1.6-4.78.08-.3-.01-.44-.26-.39-.57-.05-.55.59-.84.44-.5-.27-.21-.75.87-1.45-.46-3.36-.36-.52-.8-.16l-.3.24q-.54.43-.6-.28-.23-2.37.93-4.46a1.65 1.65 0 0 1 1.42-.84q1.76-.02 3.12-.78.46-.25.26-.7L166.65 88q-.18-.41-.63-.3-.21.06-.25.07-.57.18-.68-.47-.48-2.89 1.08-3.47.64-.24.37-.6l-.19-.26q-.42-.56-.18-1.1.83-1.85.86-3.46.04-1.96-1.25-.69-.29.29-.76.32-.5.04-.73-.41l-1.54-3.05M174.67 71.49q2.8.46 2.53 2.3-.29 1.92 1.07.47l.84-.88q.51-.56.84.07.19.37.18.68a.78.78 0 0 0 .52.77q1.11.38 1.87.06.44-.19.12-.55-.25-.27-.61-.32-.88-.12-.58-.87l.92-2.35a1.29.97-86.1 0 1 .56-.65q.39-.18.69-.55.41-.5-.22-.61-1.45-.27-1.59-1.41M153.1 153.64l-2.61-2.07q-.38-.3-.07-.6l1.19-1.09q.44-.4-.01-.78l-.95-.8q-.45-.38-.22-.92.71-1.72.29-3-.14-.44-.61-.5l-.36-.05q-.62-.08-.24-.58.88-1.18-.19-2.32-1.73-1.85-2.58-3.41-.28-.51-.75-.18-1.22.85-1.83 5.41a.23.23 0 0 1-.36.16q-1.47-1.03-2.25-.06-.39.48-.15 1.01l.22.51q.26.59-.23.73l-.36-.04q-.56-.05-.75-.58-.72-2.01-1.71-1.21a.39.07-34.2 0 0-.15.14l-.72 1.14q-.25.39-.75.59-1.28.49-.9 2.07.16.68.75.3.21-.14.48-.2a.68.68 0 0 1 .77.4q1.32 3.1-1.91 5.88M135.96 153.4l-.67-.03M130.9 153.09q1.96-2.54.24-4.61-.39-.47-.96-.21l-.57.26q-.65.29-.59-.38.07-.84 1.44-2.02.83-.71-.11-1.25-1.66-.96-.94-2.67.6-1.4.58-3.5-.01-.6-.58-.38l-.44.17q-1.4.55-.71-.79 1.13-2.2.03-3.14-.43-.36-.91-.18l-1.33.49a.86.83-7.8 0 1-1.16-.84q.15-1.48.9-2.61a.92.92 0 0 0 .15-.59q-.09-.97-1.3-1.01-.74-.02-.3-.62.4-.55.41-.56.37-.77-.51-.49-.35.11-.56.57c-.61 1.31-.98 1.71-2.07 2.41q-1.21.78-.03 2.95.51.93-.06 1.77l-1.9 2.8q-.28.43-.47-.07-.1-.25-.24-1.01-.16-.89-.67-.14-1.24 1.79-.54 3.09a.41.41 0 0 1-.37.61c-1.27-.04-2.13-1.56-2.58-2.71q-.23-.57-.83-.45-.74.16-1.21.75-.31.38-.25.87.33 2.64-1.85 3.68a.92.91 77.9 0 0-.51.81l-.07 3.17q-.02.93.75.48.68-.39 1.36-1.44.08-.13.23-.13.17-.01.33.05.32.13.11.37l-.51.59q-.28.33.08.75 1.09 1.28 1.94.27.18-.21.41-.08.15.08.18.17.05.15-.1.33-.96 1.24-2.24 2.07M101.01 146.54q.09-.58-.08-.92-.28-.55-.79-.21-.34.22-.61.64M99.06 145.92l-.67-.95q-.33-.47.11-.83 1.98-1.62 1.47-4.45-.09-.47-.57-.51-.28-.02-.5.16a.37.37 0 0 1-.59-.19q-.23-.92-1.58-1.08-.26-.03-.45.17-.34.35.06.63.51.37.5.76a.28.28 0 0 1-.36.26q-.46-.15-1.17-1.3a1.01 1.01 0 0 1-.07-.93q1.01-2.38.75-6.18a.35.34-85.6 0 0-.27-.32q-.18-.04-.29.01a.76.46-83.2 0 0-.33.43l-.24.7q-.19.56-.65.29-1.04-.61-2.34-.58-.5.01-.6.5-.26 1.28-.3 1.37-1.11 2.77-1.91-.04-.63-2.19-1.79-4.3-.06-.12-.25-.79-.16-.54-.07-.92.15-.73-.45-.52l-.95.31a.45.43-9 0 1-.59-.41l.05-1.55a.5.48 68.5 0 0-.84-.37L82.49 127q-.63.64.08 1.18l.9.69q.26.2.15.52-1.29 4.02-3.22 5.13-.54.31-.2.84 1.06 1.62.76 4.18a.31.31 0 0 0 .27.34l.28.04q.32.04.37-.28l.13-.88a.81.77 41.6 0 1 1.54-.06q.7 2.26.36 4.57" vector-effect="non-scaling-stroke"/><path d="M216.19 76.68q.08.31.5.18a.25.25 0 0 0 .16-.31q-.1-.34-.43-.26-.32.08-.23.39M180.52 103.02q-.31.32-.11.69a.34.34 0 0 0 .61-.02q.19-.49-.02-.68-.25-.22-.48.01" vector-effect="non-scaling-stroke"/></g><path d="M216.17 66.77q-.32.91.71 1.14.57.12 1.34-.08a.51.51 0 0 1 .65.49q0 1.38 1.64 1.88.57.17.49.75-.07.53-.45 1.01-.34.41-.07.86.24.41.21.82-.04.5-.5.71-3.68 1.66-3.17 5.61.25 1.92 1.38.27.04-.06.79-1.69.27-.6.76-.17.16.14.39.38.35.37.26.96-.04.31-.23.63a.43.4-73.6 0 0 .33.64l2.56.04q.79.02.36.67-.84 1.27-.08 2.35.33.46-.16 1l-.62.68a1.1.68 74.2 0 0-.21.72q.12 2.99-1.93 4.88c-.72.67-.69 1.31-.6 2.18q.03.23.29.2l.26-.04a.33.31-88.4 0 0 .27-.27l.11-.64q.11-.62.71-.45 2.79.8 2.34 4.11a.34.3 8.3 0 0 .3.34l.38.06q.14.02.16-.12l.55-3.91q.06-.46-.09-.93-.7-2.24 3.03-3.19 1.43-.36.08-.57-.13-.02-.1-.45.05-.55.53-.29 1.11.59 1.43.87 1.73 1.52 3.23 5.53.14.37.57.38.61.02.5-.59-.22-1.17.77-3.56a1.1 1.1 0 0 0-.01-.86q-.4-.9-1.51-1.29-.67-.23-.27-.83.66-.99.55-3.35-.03-.52.51-.55l1.67-.11q1.07-.07.37-.79l-1.95-2q-.47-.48-.27-1.03l.19-.54q.23-.62-.44-.69-1.28-.13-2.59.88a.39.39 0 0 1-.62-.27q-.3-2.91 1.44-4.59.39-.38.11-.84-.24-.39-.2-.81a.42.42 0 0 1 .65-.32q2.48 1.54 4.24-1.46 1.48-.25 2.98.82-.37 1.43 1.36 2.75a.59.58 37.4 0 1 .11.82l-.3.4q-.62.81.29.35 1.44-.75 1.47-2.41.01-.46.11-.78.22-.64.29-.74 1.35-1.84 1.42.52l.02.83q.02.6.62.5l5.71-1.01 5.95 4.67q-.29 1.46-1.43 2.35a1.68 1.63 59.2 0 0-.47 1.98l1.29 2.88q.21.47-.25.79-.83.57-1.62.73a.54.54 0 0 0-.37.79q1.58 2.78-.81 3.42a.78.78 0 0 0-.43 1.21q1.11 1.54 1.7 3.51.15.49-.21.86-.99 1.04-1.87 1.99-.69.74-.69 1.28-.01.88 1.05 1.59.55.37.78-.3l.18-.55q.2-.6.76-.35.76.33 1.38-.06.62-.38.63.35.03 1.27.82 4.57.12.48.45.11c.36-.41.71-1.08.77-1.7q.24-2.85.96-4.9.17-.48-.02-.95-.69-1.69.25-3.29.43-.73.73.1l.21.58q.19.54.69.33 1.21-.48 1.66-.36.58.16.57.74l-.02 1.29a.42.4-7 0 0 .52.38q.21-.05.35-.12.48-.22.96.01 2.29 1.08 5.2-1.06 1.62-1.19.52.54-.97 1.54-.15 3.54c.48 1.15.43 1.98-.09 3.22q-.22.52.15.94.25.3.3.62.08.51-.43.62-.87.2-1.22.8-.25.44.09.85l.57.7q.44.54-.19.7-.6.15-1.22.06-2.05-.26-.51 1.26.15.15.9.91.29.29 0 .58l-1.45 1.45a1.04 1.02-62.8 0 0 .54 1.76l1.6.24q.52.08.56.64l.15 1.92q.17 2.32.92.12 1.06-3.11 1.16-6.12.02-.63.6-.38.73.31 1.39.04.64-.25.81.41.4 1.48 1.9 2.13a.79.67-52.8 0 0 .78-.18l1.63-1.5q.58-.54.7.19.14.78-.45 1.37-.76.78.16 1.36 1.42.9.75 1.88-.3.46-.14.98.7 2.24-1.55 4.61a.35.32-45.9 0 0-.02.47l.88.87q.56.56-.06 1.05-1.61 1.25-1.53 2.05.06.6.6.4l1.26-.47q.55-.2.86.26 1.2 1.77.86 2.76-.31.89.44.32.81-.62.35-1.6-.24-.49.13-.82l.79-.69a1.19 1.12 37.5 0 0-.3-1.88q-.5-.26-.71-.59a.42.42 0 0 1 .34-.65q1.11-.05 1.44-1.4.06-.24.28-.37.18-.11.38-.09.46.05.4.51l-.21 1.45q-.06.4.38.53.29.08.55-.34a.51.46-30.4 0 0 .08-.25l.02-.51q.02-.73.67-.41.67.34.99.31.51-.05.46-.56-.11-1.1.03-1.58.18-.63.61-.13.31.37.55 1.21.18.58.78.58.21 0 .48.18a.41.41 0 0 1 .1.6q-.52.63-.16 1a.5.29 59.1 0 0 .28.16l.86.05a.31.31 0 0 1 .2.53q-.75.72-.17 1.45a.98.98 0 0 1 .19.86q-.34 1.32-.01 2.19-2.09 6.77-4.72 13.58c-1.9 4.94-2.92 9.62-3.77 14.72-.6 3.58-1.88 6.01-5.57 6.42q-3.91.43-6.53-.79-3.87-1.81-5.11-2.14c-2.53-.67-4.19.29-6.58 1.7q-6.37 3.77-11.02 3.41-6.72-.51-13.88-3.16-7.58-2.8-10.45-3.21-5.37-.75-11.41.27-4.95.84-10.33 1.6-6.57.92-10.42.75-14.28-.64-27.62-6.6-1.56-.69-3.13-.93-1.66-.26-3.25-.54l-1.25-2.69a.44.44 0 0 0-.66-.17l-.33.26q-.48.36-.72-.18-.14-.32-.01-.72.16-.46.4-.65 1.82-1.39 1.75-3.52a.55.54-77 0 1 .8-.51l1.19.64a.65.64-53.5 0 0 .77-.12l3.73-3.81q.51-.53-.16-.69l-.6-.15q-.64-.16-.48-.77l.6-2.2q.4-1.5 1.3-.12.41.64.8 1.56a.64.64 0 0 0 1.17.02q.43-.89.97-1.11.61-.25.65.41l.18 2.5a.41.4 78.4 0 0 .53.36q.18-.06.3-.14.64-.38.76.35.27 1.59 2.03 3.74.31.37.08.8-.83 1.55-.79 3.06.02.55.56.42.44-.1.49-1.16.04-.71.63-.34.86.53 1.61.11.62-.35.66.36.19 3.9-.64 5.76-1.17 2.64.85.62.21-.22 1.17-.07.47.07.53.54.13 1 .43 1.64.32.7.5-.05.51-2.15-.52-4.78-.17-.44.08-.86l2.33-3.82a1.27 1.21-83.7 0 1 .61-.52q1.47-.56 3.14.37a.59.55-57.9 0 0 .75-.2l.16-.24a.51.48-55.1 0 0-.1-.69q-1.06-.75-1.5-1.76-.23-.52-.75-.28-.61.27-.83-.13-1.05-1.87-1.23-2.97-.37-2.37-1.48-.24-.37.71-.71 1.5-.22.51-.68.2-.53-.36-.83-1.02c-.92-2.04 1.67-3.72.23-5.94q-.34-.51.26-.66 2.31-.55 1.63-2.52-.17-.51-.04-1.06l.68-2.81a.43.4 87.3 0 0-.52-.51l-.91.35q-.62.24-.59-.41l.08-2.25q.03-.6.54-.7 1.26-.23 1.85-3.04.04-.21.18-.05.38.41.83.53a.36.36 0 0 0 .45-.35q-.03-.99.35-1.06.6-.11.66.5.06.57.28.83a.5.46-43.7 0 0 .73-.02l1.09-1.19q.45-.49.84-.01.29.35.2 1.02-.02.11.07.18.12.11.28.1.2-.01.31-.2l1.1-2.03q.35-.66.88-.22.58.48 1.39 1.38.13.14.27.17.15.03.27-.01.44-.14.33-.59-.49-1.9 1.18-2.55a.23.23 0 0 0-.08-.44q-.7 0-1.22.17a.48.48 0 0 1-.62-.43q-.1-1.56-.91-3.63c-.5-1.27.02-2.72.41-3.77q.14-.4-.25-.54l-.24-.09a.63.63 0 0 0-.79.33q-.77 1.72-2.76 2.39a.44.44 0 0 0-.29.53q.57 2.21-.67 1.77a.75.66-1.1 0 1-.4-.34l-2.54-4.99q-.26-.51-.78-.21-.78.45-1.25 0-.39-.37-.3-.9.66-3.89 1.92-5.71.32-.46.2-.87l-.51-1.88a.72.7 72.1 0 1 .43-.85l.83-.32a.54.44-21.6 0 0 .35-.62l-.11-.25a.98.8 72.2 0 0-.94-.6q-1.86.33-3.19 1.57-.41.37-.09.82.66.95-.01 1.52-.42.35-.96.27-1.12-.16-1.92.02a1.04.68 58.5 0 1-.84-.4q-.37-.44-.82-2.49-.19-.87-1.19-.73-.61.09-.28.61 1.08 1.69.12 2.67a1.15 1.15 0 0 1-.93.35q-.36-.04-.74-.21-.54-.24-.67.25l-.72 2.83q-.1.42.25.72.67.58 1.73.93.44.15.3.59-.76 2.5-2.72 2.35-.58-.05-.69-.62l-.27-1.49a1.3 1.26 83.9 0 0-1.27-1.07l-2.22.07q-.57.01-.27-.5.55-.98 1.6-4.78.08-.3-.01-.44-.26-.39-.57-.05-.55.59-.84.44-.5-.27-.21-.75.87-1.45-.46-3.36-.36-.52-.8-.16l-.3.24q-.54.43-.6-.28-.23-2.37.93-4.46a1.65 1.65 0 0 1 1.42-.84q1.76-.02 3.12-.78.46-.25.26-.7L166.65 88q-.18-.41-.63-.3-.21.06-.25.07-.57.18-.68-.47-.48-2.89 1.08-3.47.64-.24.37-.6l-.19-.26q-.42-.56-.18-1.1.83-1.85.86-3.46.04-1.96-1.25-.69-.29.29-.76.32-.5.04-.73-.41l-1.54-3.05q2.37.73 4.46 1.99 1.25.77 3.94.02.47-.13.73-.55l2.79-4.55q2.8.46 2.53 2.3-.29 1.92 1.07.47l.84-.88q.51-.56.84.07.19.37.18.68a.78.78 0 0 0 .52.77q1.11.38 1.87.06.44-.19.12-.55-.25-.27-.61-.32-.88-.12-.58-.87l.92-2.35a1.29.97-86.1 0 1 .56-.65q.39-.18.69-.55.41-.5-.22-.61-1.45-.27-1.59-1.41 2.9.8 5.05 2.41.99.73 2.11.24 6.25-2.73 6.67-2.9 4.3-1.73 8.12-1.15 5.88.89 7.92.46 3.46-.74 4.49.06m.02 9.91q.08.31.5.18a.25.25 0 0 0 .16-.31q-.1-.34-.43-.26-.32.08-.23.39"/><path fill="#ec8e53" d="M216.17 66.77q7.95 1.35 15.28 3.94 1.5.52 2.86.34 1.36-.19 2.9-.52-1.76 3-4.24 1.46a.42.42 0 0 0-.65.32q-.04.42.2.81.28.46-.11.84-1.74 1.68-1.44 4.59a.39.39 0 0 0 .62.27q1.31-1.01 2.59-.88.67.07.44.69l-.19.54q-.2.55.27 1.03l1.95 2q.7.72-.37.79l-1.67.11q-.54.03-.51.55.11 2.36-.55 3.35-.4.6.27.83 1.11.39 1.51 1.29a1.1 1.1 0 0 1 .01.86q-.99 2.39-.77 3.56.11.61-.5.59-.43-.01-.57-.38-1.5-4.01-3.23-5.53-.32-.28-1.43-.87-.48-.26-.53.29-.03.43.1.45 1.35.21-.08.57-3.73.95-3.03 3.19.15.47.09.93l-.55 3.91q-.02.14-.16.12l-.38-.06a.34.3 8.3 0 1-.3-.34q.45-3.31-2.34-4.11-.6-.17-.71.45l-.11.64a.33.31-88.4 0 1-.27.27l-.26.04q-.26.03-.29-.2c-.09-.87-.12-1.51.6-2.18q2.05-1.89 1.93-4.88a1.1.68 74.2 0 1 .21-.72l.62-.68q.49-.54.16-1-.76-1.08.08-2.35.43-.65-.36-.67l-2.56-.04a.43.4-73.6 0 1-.33-.64q.19-.32.23-.63.09-.59-.26-.96-.23-.24-.39-.38-.49-.43-.76.17-.75 1.63-.79 1.69-1.13 1.65-1.38-.27-.51-3.95 3.17-5.61.46-.21.5-.71.03-.41-.21-.82-.27-.45.07-.86.38-.48.45-1.01.08-.58-.49-.75-1.64-.5-1.64-1.88a.51.51 0 0 0-.65-.49q-.77.2-1.34.08-1.03-.23-.71-1.14M181.81 67.65q.14 1.14 1.59 1.41.63.11.22.61-.3.37-.69.55a1.29.97-86.1 0 0-.56.65l-.92 2.35q-.3.75.58.87.36.05.61.32.32.36-.12.55-.76.32-1.87-.06a.78.78 0 0 1-.52-.77q.01-.31-.18-.68-.33-.63-.84-.07l-.84.88q-1.36 1.45-1.07-.47.27-1.84-2.53-2.3 1.85-4.71 7.14-3.84M251.29 72.58l-5.71 1.01q-.6.1-.62-.5l-.02-.83q-.07-2.36-1.42-.52-.07.1-.29.74-.1.32-.11.78-.03 1.66-1.47 2.41-.91.46-.29-.35l.3-.4a.59.58 37.4 0 0-.11-.82q-1.73-1.32-1.36-2.75l6.53-1.54q.49-.12.95.1 1.94.9 3.62 2.67M162.75 74.58l1.54 3.05q.23.45.73.41.47-.03.76-.32 1.29-1.27 1.25.69-.03 1.61-.86 3.46-.24.54.18 1.1l.19.26q.27.36-.37.6-1.56.58-1.08 3.47.11.65.68.47.04-.01.25-.07.45-.11.63.3l1.13 2.55q.2.45-.26.7-1.36.76-3.12.78a1.65 1.65 0 0 0-1.42.84q-1.16 2.09-.93 4.46.06.71.6.28l.3-.24q.44-.36.8.16 1.33 1.91.46 3.36-.29.48.21.75.29.15.84-.44.31-.34.57.05.09.14.01.44-1.05 3.8-1.6 4.78-.3.51.27.5l2.22-.07a1.3 1.26 83.9 0 1 1.27 1.07l.27 1.49q.11.57.69.62 1.96.15 2.72-2.35.14-.44-.3-.59-1.06-.35-1.73-.93-.35-.3-.25-.72l.72-2.83q.13-.49.67-.25.38.17.74.21a1.15 1.15 0 0 0 .93-.35q.96-.98-.12-2.67-.33-.52.28-.61 1-.14 1.19.73.45 2.05.82 2.49a1.04.68 58.5 0 0 .84.4q.8-.18 1.92-.02.54.08.96-.27.67-.57.01-1.52-.32-.45.09-.82 1.33-1.24 3.19-1.57a.98.8 72.2 0 1 .94.6l.11.25a.54.44-21.6 0 1-.35.62l-.83.32a.72.7 72.1 0 0-.43.85l.51 1.88q.12.41-.2.87-1.26 1.82-1.92 5.71-.09.53.3.9.47.45 1.25 0 .52-.3.78.21l2.54 4.99a.75.66-1.1 0 0 .4.34q1.24.44.67-1.77a.44.44 0 0 1 .29-.53q1.99-.67 2.76-2.39a.63.63 0 0 1 .79-.33l.24.09q.39.14.25.54c-.39 1.05-.91 2.5-.41 3.77q.81 2.07.91 3.63a.48.48 0 0 0 .62.43q.52-.17 1.22-.17a.23.23 0 0 1 .08.44q-1.67.65-1.18 2.55.11.45-.33.59-.12.04-.27.01-.14-.03-.27-.17-.81-.9-1.39-1.38-.53-.44-.88.22l-1.1 2.03q-.11.19-.31.2-.16.01-.28-.1-.09-.07-.07-.18.09-.67-.2-1.02-.39-.48-.84.01l-1.09 1.19a.5.46-43.7 0 1-.73.02q-.22-.26-.28-.83-.06-.61-.66-.5-.38.07-.35 1.06a.36.36 0 0 1-.45.35q-.45-.12-.83-.53-.14-.16-.18.05-.59 2.81-1.85 3.04-.51.1-.54.7l-.08 2.25q-.03.65.59.41l.91-.35a.43.4 87.3 0 1 .52.51l-.68 2.81q-.13.55.04 1.06.68 1.97-1.63 2.52-.6.15-.26.66c1.44 2.22-1.15 3.9-.23 5.94q.3.66.83 1.02.46.31.68-.2.34-.79.71-1.5 1.11-2.13 1.48.24.18 1.1 1.23 2.97.22.4.83.13.52-.24.75.28.44 1.01 1.5 1.76a.51.48-55.1 0 1 .1.69l-.16.24a.59.55-57.9 0 1-.75.2q-1.67-.93-3.14-.37a1.27 1.21-83.7 0 0-.61.52l-2.33 3.82q-.25.42-.08.86 1.03 2.63.52 4.78-.18.75-.5.05-.3-.64-.43-1.64-.06-.47-.53-.54-.96-.15-1.17.07-2.02 2.02-.85-.62.83-1.86.64-5.76-.04-.71-.66-.36-.75.42-1.61-.11-.59-.37-.63.34-.05 1.06-.49 1.16-.54.13-.56-.42-.04-1.51.79-3.06.23-.43-.08-.8-1.76-2.15-2.03-3.74-.12-.73-.76-.35-.12.08-.3.14a.41.4 78.4 0 1-.53-.36l-.18-2.5q-.04-.66-.65-.41-.54.22-.97 1.11a.64.64 0 0 1-1.17-.02q-.39-.92-.8-1.56-.9-1.38-1.3.12l-.6 2.2q-.16.61.48.77l.6.15q.67.16.16.69l-3.73 3.81a.65.64-53.5 0 1-.77.12l-1.19-.64a.55.54-77 0 0-.8.51q.07 2.13-1.75 3.52-.24.19-.4.65-.13.4.01.72.24.54.72.18l.33-.26a.44.44 0 0 1 .66.17l1.25 2.69-5.92-.6-2.61-2.07q-.38-.3-.07-.6l1.19-1.09q.44-.4-.01-.78l-.95-.8q-.45-.38-.22-.92.71-1.72.29-3-.14-.44-.61-.5l-.36-.05q-.62-.08-.24-.58.88-1.18-.19-2.32-1.73-1.85-2.58-3.41-.28-.51-.75-.18-1.22.85-1.83 5.41a.23.23 0 0 1-.36.16q-1.47-1.03-2.25-.06-.39.48-.15 1.01l.22.51q.26.59-.23.73l-.36-.04q-.56-.05-.75-.58-.72-2.01-1.71-1.21a.39.07-34.2 0 0-.15.14l-.72 1.14q-.25.39-.75.59-1.28.49-.9 2.07.16.68.75.3.21-.14.48-.2a.68.68 0 0 1 .77.4q1.32 3.1-1.91 5.88-.09-.1-.18-.19l-.67-.03-4.39-.28q1.96-2.54.24-4.61-.39-.47-.96-.21l-.57.26q-.65.29-.59-.38.07-.84 1.44-2.02.83-.71-.11-1.25-1.66-.96-.94-2.67.6-1.4.58-3.5-.01-.6-.58-.38l-.44.17q-1.4.55-.71-.79 1.13-2.2.03-3.14-.43-.36-.91-.18l-1.33.49a.86.83-7.8 0 1-1.16-.84q.15-1.48.9-2.61a.92.92 0 0 0 .15-.59q-.09-.97-1.3-1.01-.74-.02-.3-.62.4-.55.41-.56.37-.77-.51-.49-.35.11-.56.57c-.61 1.31-.98 1.71-2.07 2.41q-1.21.78-.03 2.95.51.93-.06 1.77l-1.9 2.8q-.28.43-.47-.07-.1-.25-.24-1.01-.16-.89-.67-.14-1.24 1.79-.54 3.09a.41.41 0 0 1-.37.61c-1.27-.04-2.13-1.56-2.58-2.71q-.23-.57-.83-.45-.74.16-1.21.75-.31.38-.25.87.33 2.64-1.85 3.68a.92.91 77.9 0 0-.51.81l-.07 3.17q-.02.93.75.48.68-.39 1.36-1.44.08-.13.23-.13.17-.01.33.05.32.13.11.37l-.51.59q-.28.33.08.75 1.09 1.28 1.94.27.18-.21.41-.08.15.08.18.17.05.15-.1.33-.96 1.24-2.24 2.07l-11.56-4.15q.09-.58-.08-.92-.28-.55-.79-.21-.34.22-.61.64-.25-.11-.47-.13l-.67-.95q-.33-.47.11-.83 1.98-1.62 1.47-4.45-.09-.47-.57-.51-.28-.02-.5.16a.37.37 0 0 1-.59-.19q-.23-.92-1.58-1.08-.26-.03-.45.17-.34.35.06.63.51.37.5.76a.28.28 0 0 1-.36.26q-.46-.15-1.17-1.3a1.01 1.01 0 0 1-.07-.93q1.01-2.38.75-6.18a.35.34-85.6 0 0-.27-.32q-.18-.04-.29.01a.76.46-83.2 0 0-.33.43l-.24.7q-.19.56-.65.29-1.04-.61-2.34-.58-.5.01-.6.5-.26 1.28-.3 1.37-1.11 2.77-1.91-.04-.63-2.19-1.79-4.3-.06-.12-.25-.79-.16-.54-.07-.92.15-.73-.45-.52l-.95.31a.45.43-9 0 1-.59-.41l.05-1.55a.5.48 68.5 0 0-.84-.37L82.49 127q-.63.64.08 1.18l.9.69q.26.2.15.52-1.29 4.02-3.22 5.13-.54.31-.2.84 1.06 1.62.76 4.18a.31.31 0 0 0 .27.34l.28.04q.32.04.37-.28l.13-.88a.81.77 41.6 0 1 1.54-.06q.7 2.26.36 4.57-2.82-.38-5.4-1.51c-3.49-1.54-4.19-4.4-3.5-8.05q1.25-6.56 5.06-12.15 4.93-7.23 8.98-12.26c1.09-1.34 2.6-2 4.42-2.38q16.92-3.49 35.6-9.6 7.06-2.31 11.33-5.38 8.79-6.31 9.86-17.09.2-2.02 2.24-2.82 1.22-.47 3.09.03 3.7 1 7.16 2.52m17.77 28.44q-.31.32-.11.69a.34.34 0 0 0 .61-.02q.19-.49-.02-.68-.25-.22-.48.01"/><path fill="#ec8e53" d="M216.42 76.29q.33-.08.43.26a.25.25 0 0 1-.16.31q-.42.13-.5-.18-.09-.31.23-.39M257.24 77.25l4.73 4a2.23 2.23 0 0 0 1.79.5q2.19-.35 5.97-.79 3.04-.36 6.02.19 5.47.99 9.27 2.36 2.36.86 2.83 3.07.88 4.23-.47 8.54a.61.6 14.9 0 0 .45.77l1.03.22a.88.79 3.1 0 1 .67.67q.51 3.44 2.11 5.63 1.02 1.4 1.32 3.8.47 3.87 1.34 11.54.44 3.87-1.49 11.41-.33-.87.01-2.19a.98.98 0 0 0-.19-.86q-.58-.73.17-1.45a.31.31 0 0 0-.2-.53l-.86-.05a.5.29 59.1 0 1-.28-.16q-.36-.37.16-1a.41.41 0 0 0-.1-.6q-.27-.18-.48-.18-.6 0-.78-.58-.24-.84-.55-1.21-.43-.5-.61.13-.14.48-.03 1.58.05.51-.46.56-.32.03-.99-.31-.65-.32-.67.41l-.02.51a.51.46-30.4 0 1-.08.25q-.26.42-.55.34-.44-.13-.38-.53l.21-1.45q.06-.46-.4-.51-.2-.02-.38.09-.22.13-.28.37-.33 1.35-1.44 1.4a.42.42 0 0 0-.34.65q.21.33.71.59a1.19 1.12 37.5 0 1 .3 1.88l-.79.69q-.37.33-.13.82.46.98-.35 1.6-.75.57-.44-.32.34-.99-.86-2.76-.31-.46-.86-.26l-1.26.47q-.54.2-.6-.4-.08-.8 1.53-2.05.62-.49.06-1.05l-.88-.87a.35.32-45.9 0 1 .02-.47q2.25-2.37 1.55-4.61-.16-.52.14-.98.67-.98-.75-1.88-.92-.58-.16-1.36.59-.59.45-1.37-.12-.73-.7-.19l-1.63 1.5a.79.67-52.8 0 1-.78.18q-1.5-.65-1.9-2.13-.17-.66-.81-.41-.66.27-1.39-.04-.58-.25-.6.38-.1 3.01-1.16 6.12-.75 2.2-.92-.12l-.15-1.92q-.04-.56-.56-.64l-1.6-.24a1.04 1.02-62.8 0 1-.54-1.76l1.45-1.45q.29-.29 0-.58-.75-.76-.9-.91-1.54-1.52.51-1.26.62.09 1.22-.06.63-.16.19-.7l-.57-.7q-.34-.41-.09-.85.35-.6 1.22-.8.51-.11.43-.62-.05-.32-.3-.62-.37-.42-.15-.94c.52-1.24.57-2.07.09-3.22q-.82-2 .15-3.54 1.1-1.73-.52-.54-2.91 2.14-5.2 1.06-.48-.23-.96-.01-.14.07-.35.12a.42.4-7 0 1-.52-.38l.02-1.29q.01-.58-.57-.74-.45-.12-1.66.36-.5.21-.69-.33l-.21-.58q-.3-.83-.73-.1-.94 1.6-.25 3.29.19.47.02.95-.72 2.05-.96 4.9c-.06.62-.41 1.29-.77 1.7q-.33.37-.45-.11-.79-3.3-.82-4.57-.01-.73-.63-.35-.62.39-1.38.06-.56-.25-.76.35l-.18.55q-.23.67-.78.3-1.06-.71-1.05-1.59 0-.54.69-1.28.88-.95 1.87-1.99.36-.37.21-.86-.59-1.97-1.7-3.51a.78.78 0 0 1 .43-1.21q2.39-.64.81-3.42a.54.54 0 0 1 .37-.79q.79-.16 1.62-.73.46-.32.25-.79l-1.29-2.88a1.68 1.63 59.2 0 1 .47-1.98q1.14-.89 1.43-2.35"/><path d="M181 103.01q.21.19.02.68a.34.34 0 0 1-.61.02q-.2-.37.11-.69.23-.23.48-.01M99.06 145.92q-7.39-2.02-15.15-2.65.34-2.31-.36-4.57a.81.77 41.6 0 0-1.54.06l-.13.88q-.05.32-.37.28l-.28-.04a.31.31 0 0 1-.27-.34q.3-2.56-.76-4.18-.34-.53.2-.84 1.93-1.11 3.22-5.13.11-.32-.15-.52l-.9-.69q-.71-.54-.08-1.18l1.68-1.71a.5.48 68.5 0 1 .84.37l-.05 1.55a.45.43-9 0 0 .59.41l.95-.31q.6-.21.45.52-.09.38.07.92.19.67.25.79 1.16 2.11 1.79 4.3.8 2.81 1.91.04.04-.09.3-1.37.1-.49.6-.5 1.3-.03 2.34.58.46.27.65-.29l.24-.7a.76.46-83.2 0 1 .33-.43q.11-.05.29-.01a.35.34-85.6 0 1 .27.32q.26 3.8-.75 6.18a1.01 1.01 0 0 0 .07.93q.71 1.15 1.17 1.3a.28.28 0 0 0 .36-.26q.01-.39-.5-.76-.4-.28-.06-.63.19-.2.45-.17 1.35.16 1.58 1.08a.37.37 0 0 0 .59.19q.22-.18.5-.16.48.04.57.51.51 2.83-1.47 4.45-.44.36-.11.83zM130.9 153.09q-9.38.1-18.33-2.4 1.28-.83 2.24-2.07.15-.18.1-.33-.03-.09-.18-.17-.23-.13-.41.08-.85 1.01-1.94-.27-.36-.42-.08-.75l.51-.59q.21-.24-.11-.37-.16-.06-.33-.05-.15 0-.23.13-.68 1.05-1.36 1.44-.77.45-.75-.48l.07-3.17a.92.91 77.9 0 1 .51-.81q2.18-1.04 1.85-3.68-.06-.49.25-.87.47-.59 1.21-.75.6-.12.83.45c.45 1.15 1.31 2.67 2.58 2.71a.41.41 0 0 0 .37-.61q-.7-1.3.54-3.09.51-.75.67.14.14.76.24 1.01.19.5.47.07l1.9-2.8q.57-.84.06-1.77-1.18-2.17.03-2.95c1.09-.7 1.46-1.1 2.07-2.41q.21-.46.56-.57.88-.28.51.49-.01.01-.41.56-.44.6.3.62 1.21.04 1.3 1.01a.92.92 0 0 1-.15.59q-.75 1.13-.9 2.61a.86.83-7.8 0 0 1.16.84l1.33-.49q.48-.18.91.18 1.1.94-.03 3.14-.69 1.34.71.79l.44-.17q.57-.22.58.38.02 2.1-.58 3.5-.72 1.71.94 2.67.94.54.11 1.25-1.37 1.18-1.44 2.02-.06.67.59.38l.57-.26q.57-.26.96.21 1.72 2.07-.24 4.61M153.1 153.64l-16.96-.05q3.23-2.78 1.91-5.88a.68.68 0 0 0-.77-.4q-.27.06-.48.2-.59.38-.75-.3-.38-1.58.9-2.07.5-.2.75-.59l.72-1.14a.39.07-34.2 0 1 .15-.14q.99-.8 1.71 1.21.19.53.75.58l.36.04q.49-.14.23-.73l-.22-.51q-.24-.53.15-1.01.78-.97 2.25.06a.23.23 0 0 0 .36-.16q.61-4.56 1.83-5.41.47-.33.75.18.85 1.56 2.58 3.41 1.07 1.14.19 2.32-.38.5.24.58l.36.05q.47.06.61.5.42 1.28-.29 3-.23.54.22.92l.95.8q.45.38.01.78l-1.19 1.09q-.31.3.07.6zM101.01 146.54q-.82-.11-1.48-.49.27-.42.61-.64.51-.34.79.21.17.34.08.92M135.96 153.4l-.67-.03z"/></svg>