<svg xmlns="http://www.w3.org/2000/svg" viewBox="0 0 382 382"><g fill="none" stroke="#7a4218" stroke-width="2"><path d="M217.46 66.9q-.24.38.12.54.36.15.7-.1M219.55 67.86l.55 1.23q.22.5.72.72 1.57.71 1.28 2.71c-.23 1.55-1.81 2.69-3.48 4.39q-.38.4-.23.84l.88 2.49a.24.24 0 0 0 .46-.06q.2-1.56.49-1.78.5-.39.89.12 1.31 1.71 3.43 2.75.43.21.42.68l-.21 9.31q-.02.96.57.49.13-.11.57-1.03.27-.57.89-.35l.7.25q.64.23.57-.4-.13-1.27-.65-2.26a.86.86 0 0 1 .39-1.18q1.87-.88 2.42-2.24.25-.62.87-.05l2.63 2.38a.76.34-18.2 0 0 .6.07q.2-.04.3-.11a.71.63 63.5 0 0 .22-.81q-1.07-2.77-.65-5.46.09-.56.65-.73l.34-.1q.49-.14.3-.58-.15-.35-.47-.61-.49-.39-.6-.73-.21-.62.37-1.22.3-.31-.04-.57-.15-.11-.48-.09-.66.04-1.42.72a.58.57-40.3 0 1-.83-.07q-.36-.44.06-1.28 1-2.01.95-3.96M234.71 71.03q.23.65.79.54.27-.05.36-.28.09-.2.12-.5M240.97 71.36q-.13.65.44 1.26.37.39.81.31a.74.74 0 0 0 .59-.58q.19-.87.59-1.24a.72.69-45.9 0 1 .93-.04l.57.49a.66.66 0 0 0 .84.01q1.16-.92 2.14-.22 1.24.89 2.4.38M257.82 77.72l-2.35 2.44q-.48.49.17.69 1.99.59 1.28 3.29-.12.46-.51.65l-1.04.52q-.54.28-.44.86.2 1.2.98 2.5a.82.82 0 0 1-.62 1.23q-1.01.11-1.5.29-1.79.64-.11 1.54 1.44.76 1.88 2.45.15.55-.1 1.03l-1.2 2.29q-.89 1.69.92.85 1.41-.65 3.07.43.39.26.53.71.2.65.7 1.29.24.29.31-.06l.99-4.86a.74.68 9.6 0 0-.64-.81q-.7-.1-.87-.36a.66.47 62.1 0 1 .11-.89l3.97-1.39q.54-.19.67.38.52 2.29 2.08 1.61.63-.27.84.38.4 1.28 1.13 1.25a.66.66 0 0 0 .6-.45q.48-1.4 1.24-1.53 1.21-.21 1.79.16.43.29.2.75-1.3 2.59.43 4.9a.63.61 16.2 0 1 .08.14q.33.83-.31 1-.63.16-.47.7l.14.48q.11.36-.06.93l-1.54 5.18q-.15.49.05 1.05l.3.88q.13.38-.11.79-.4.67-.41 1.23a.67.67 0 0 0 .61.68q2.28.19 3.62-.27.53-.18.14-.62l-.9-1.04q-.39-.45-.03-.99.66-.98 1.77-.43.69.34 3.12 2.02.45.31.81-.09l1.67-1.86q1.27-1.41 1.27.44c-.01 1.73.41 3.16.29 4.89q-.4 5.64-.53 9.32-.02.59.52.35l2.93-1.31q.56-.25.34-.87l-.44-1.26a.81.81 0 0 1 .85-1.07q3.36.38 4.09-2.37.14-.52.67-.4 2.93.63 3.15 4.78M157.81 154.15q.78-.51 1.09-1.6.18-.6.7-.25.58.4 1.15.6.55.19.77.06.48-.28.18-.76-1.03-1.66-.2-3.42.22-.46-.04-.91-.26-.43-.63-.58-.35-.15-.65.05l-.47.31q-.69.47-.67-.37l.05-2.56q.01-.65.62-.37.58.26.79.3.54.09.57-.43l.08-1.68q.04-.76.89-.42l1.35.54q.47.18.53-.36.17-1.59 1.35-3.32.27-.39.17-.86-.47-2.18 1.23-4.04a.63.59 43.2 0 1 .88 0q.3.29.38 1.23.01.18.13.32.16.21.33.18.37-.06.42-.42.14-.92.72-1.27.44-.26.77.08l4.24 4.45a1.14 1.06 20.6 0 1 .3.59l.42 2.75q.12.83.57.14l1.05-1.63a.71.7-40.2 0 1 1.24.09l1.41 3.35a1.01.51.8 0 0 .76.4l.41.06a.51.47 84.3 0 0 .5-.66q-.8-2.67.05-6.09.12-.48.58-.68 1.01-.44 1.52-1.03a.43.43 0 0 0-.31-.71q-1.79-.05-2.27-1.82-.15-.56-.73-.52-1.03.07-1.16 1.73-.01.21-.25.23l-.3.03q-.37.03-.33-.28.37-2.79-.56-4.86-.24-.52.23-.85.72-.51 1.1-1.09a1.77 1.77 0 0 0 .29-.87q.19-3.24-1.61-6.09-.36-.58.3-.74 1.37-.33 1.32-2.15-.01-.57.54-.68 4.2-.84 5.94-3.82.29-.49.8-.56l.67-.08q.61-.08.18-.55-1.93-2.12-2.48-4.28-.21-.8-.61-.06l-1.36 2.55a.59.54 44 0 1-.98-.03q-.79-1.23-1.09-2.51-.12-.53-.69-.69l-1.44-.41q-.57-.17-.54-.66l.35-5.8q.02-.42-.14-.88-.35-1.04-.05-1.47.5-.7-.27-.26-.68.4-.79 1.31-.06.51-.55.65l-2.98.85q-.66.18-.57-.54.04-.29.04-.84 0-.47-.18-.68-.34-.42-.71-.41-.43.01-.46.54-.01.1-.03.44-.03.49-.36.87-2.26 2.56-.74 5.23.24.43-.17.64l-1.69.88q-.44.23-.59-.24-.36-1.18-1.16-2.08-.38-.43-.83-.06-.61.52-1.28.16-.82-.46-.44-1.26l1.5-3.19q.23-.46-.32-.71l-1.02-.46q-.49-.22-.51-.65l-.11-2.44q-.03-.63-.63-.43l-.77.26q-.38.13-.41-.27-.11-1.45-.86-2.6a.42.42 0 0 1 .24-.64q3.33-.96 6.1-4.2.34-.4-.03-.77-1.41-1.4-2.3-3.44-.22-.52.25-.82 1.76-1.12 1.04-2.83-.2-.48-.07-.97l.7-2.5M174.91 71q3.27-.59 3.26 1.55 0 .2.18.29.15.08.28.04.25-.06.28-.35l.1-.98q.08-.77.77-.62 1.05.24 1.43.65.72.79.8-.32l.23-3.54M156.19 153.9q-.22-1.01.45-2.09.26-.42-.11-.59l-2.83-1.35q-.43-.2-.24-.66l1.12-2.74q.12-.29-.09-.53-.27-.32-.62-.53a.98.95-65.5 0 1-.4-1.13l.32-.98q.16-.47-.1-.81-1.42-1.85-2.05-4a.87.87 0 0 0-.83-.63l-1.2-.02q-.47 0-.21-.46l.4-.71q.26-.45.06-.86l-.71-1.44a.44.44 0 0 0-.79 0q-.72 1.48-1.71 1.84a.94.94 0 0 0-.38 1.51q.76.85.75 1.4a.65.65 0 0 1-.54.64q-2.32.39-3.58 1.66-.38.38-.84.12-.79-.44-1.25-1.3-.02-.03-.05-.02l-.25.06q-.28.08-.15.35l.4.78q.23.47-.22.73l-1.94 1.11q-.39.23-.46.69-.33 2.41.88 3.15.47.28.39.82-.15.97.82 2.26a.94.87-39.9 0 1-.16 1.21l-.25.23a.54.51 45.2 0 1-.71-.03l-1.34-1.26a.39.38 24.8 0 0-.65.23q-.13 1.44-1.49 1.57a.77.77 0 0 0-.67.54q-.08.28.02.62M133.96 153.16l.98-3.07q.16-.52-.34-.7l-.62-.21q-.54-.19-.77-.77-.6-1.53-.6-2.54.01-1.45-.46-2.57-.63-1.48-.51-3.29.04-.53-.27-.97l-1-1.48q-.32-.47-.1-.94.66-1.37.79-2.55.07-.59-.42-.82l-1.88-.89q-.55-.27-.67.31-.14.71-.48 1.02-.5.46-.54-.22-.22-4.12-.26-4.55-.1-1.06-.79-1.67a.57.56-57.6 0 0-.89.2l-1.2 2.8q-.22.52-.72.3l-.44-.2a.59.59 0 0 0-.81.69l.79 2.92q.12.44-.14.85-1.41 2.26-2.99 1.67-.62-.24-1.03.29-1.02 1.31.26 2.76.09.11-.02.16-.09.04-.1.05-.06.05-.35-.14l-2.92-2q-.41-.28-.55-.76-.12-.41-.34-.6-.54-.46-.57.25-.08 2.46-.22 2.77-1.28 2.89-2.45 6.21a.44.44 0 0 0 .47.58q.58-.08 1.35-.76.47-.41.73.15.84 1.86.43 3.31-.14.48.1.93l.92 1.75M104.26 147.75q-.93-2.88-3.81-2.12-.55.14-.54-.43.04-1.81 1.45-3.17.37-.36.27-.86-.15-.69.13-1.52a.35.35 0 0 0-.59-.36q-1.08 1.14-2.05-.81a.48.48 0 0 0-.78-.12q-.29.31-.54 1.08-.19.62-.8.22l-.23-.15a.92.87 24.3 0 1-.39-.96q1.06-4.2 1.16-5.29.03-.36-.56-1.68a.51.51 0 0 0-.76-.2q-1.21.87-2.47.09a.81.81 0 0 0-.95.06q-.68.56-.26 1.74.17.49-.31.68-.66.25-2.29.19-.61-.02-.5-.61.2-1.17-.86-4.5-.19-.59-.02-.97l.19-.4q.29-.66-.52-.63-.7.03-1.18.36-1.24.83-1.09-.72.09-.87-.06-1.23-.25-.59-.76-.2-1.43 1.09-.71 2.84a1.07 1 46 0 1 .01.77l-1.68 4.23q-.22.55-.71.88-1.65 1.1-.56 3.16a.98.97 43.8 0 1 .02.87l-.26.53a.65.48-15.7 0 0 1.05.4q.84-.74 1.48-.65.55.07.73 1.03.38 2.04-.53 4" vector-effect="non-scaling-stroke"/><path d="M176.39 97.39q-.21.29.1.38a.25.25 0 0 0 .29-.34q-.17-.34-.39-.04M90.07 135.67q.03.5.51.34.37-.12.33-.46-.04-.32-.34-.45-.56-.25-.5.57" vector-effect="non-scaling-stroke"/></g><path d="M217.46 66.9q-.24.38.12.54.36.15.7-.1.74.09 1.27.52l.55 1.23q.22.5.72.72 1.57.71 1.28 2.71c-.23 1.55-1.81 2.69-3.48 4.39q-.38.4-.23.84l.88 2.49a.24.24 0 0 0 .46-.06q.2-1.56.49-1.78.5-.39.89.12 1.31 1.71 3.43 2.75.43.21.42.68l-.21 9.31q-.02.96.57.49.13-.11.57-1.03.27-.57.89-.35l.7.25q.64.23.57-.4-.13-1.27-.65-2.26a.86.86 0 0 1 .39-1.18q1.87-.88 2.42-2.24.25-.62.87-.05l2.63 2.38a.76.34-18.2 0 0 .6.07q.2-.04.3-.11a.71.63 63.5 0 0 .22-.81q-1.07-2.77-.65-5.46.09-.56.65-.73l.34-.1q.49-.14.3-.58-.15-.35-.47-.61-.49-.39-.6-.73-.21-.62.37-1.22.3-.31-.04-.57-.15-.11-.48-.09-.66.04-1.42.72a.58.57-40.3 0 1-.83-.07q-.36-.44.06-1.28 1-2.01.95-3.96.82-.36 1.7-.31.23.65.79.54.27-.05.36-.28.09-.2.12-.5 2.39-.57 4.99.57-.13.65.44 1.26.37.39.81.31a.74.74 0 0 0 .59-.58q.19-.87.59-1.24a.72.69-45.9 0 1 .93-.04l.57.49a.66.66 0 0 0 .84.01q1.16-.92 2.14-.22 1.24.89 2.4.38l7.54 5.99-2.35 2.44q-.48.49.17.69 1.99.59 1.28 3.29-.12.46-.51.65l-1.04.52q-.54.28-.44.86.2 1.2.98 2.5a.82.82 0 0 1-.62 1.23q-1.01.11-1.5.29-1.79.64-.11 1.54 1.44.76 1.88 2.45.15.55-.1 1.03l-1.2 2.29q-.89 1.69.92.85 1.41-.65 3.07.43.39.26.53.71.2.65.7 1.29.24.29.31-.06l.99-4.86a.74.68 9.6 0 0-.64-.81q-.7-.1-.87-.36a.66.47 62.1 0 1 .11-.89l3.97-1.39q.54-.19.67.38.52 2.29 2.08 1.61.63-.27.84.38.4 1.28 1.13 1.25a.66.66 0 0 0 .6-.45q.48-1.4 1.24-1.53 1.21-.21 1.79.16.43.29.2.75-1.3 2.59.43 4.9a.63.61 16.2 0 1 .08.14q.33.83-.31 1-.63.16-.47.7l.14.48q.11.36-.06.93l-1.54 5.18q-.15.49.05 1.05l.3.88q.13.38-.11.79-.4.67-.41 1.23a.67.67 0 0 0 .61.68q2.28.19 3.62-.27.53-.18.14-.62l-.9-1.04q-.39-.45-.03-.99.66-.98 1.77-.43.69.34 3.12 2.02.45.31.81-.09l1.67-1.86q1.27-1.41 1.27.44c-.01 1.73.41 3.16.29 4.89q-.4 5.64-.53 9.32-.02.59.52.35l2.93-1.31q.56-.25.34-.87l-.44-1.26a.81.81 0 0 1 .85-1.07q3.36.38 4.09-2.37.14-.52.67-.4 2.93.63 3.15 4.78-.5 6.89-2.73 12.3-5.5 13.33-7.05 23.49-.42 2.7-1.43 3.91c-2.37 2.83-7.75 2.56-10.52 1.26q-3.86-1.81-5.11-2.15c-2.56-.68-4.12.28-6.58 1.72q-6.11 3.6-10.77 3.43-2.38-.08-8.54-1.44-3.64-.81-8.22-2.72-4.01-1.67-8.92-2.36-3.99-.56-9.1.23-1.93.3-11 1.67-6.35.95-11.04.81c-9.32-.27-18.98-2.82-27.69-6.58-2.46-1.06-4.85-1.12-7.44-1.56q.78-.51 1.09-1.6.18-.6.7-.25.58.4 1.15.6.55.19.77.06.48-.28.18-.76-1.03-1.66-.2-3.42.22-.46-.04-.91-.26-.43-.63-.58-.35-.15-.65.05l-.47.31q-.69.47-.67-.37l.05-2.56q.01-.65.62-.37.58.26.79.3.54.09.57-.43l.08-1.68q.04-.76.89-.42l1.35.54q.47.18.53-.36.17-1.59 1.35-3.32.27-.39.17-.86-.47-2.18 1.23-4.04a.63.59 43.2 0 1 .88 0q.3.29.38 1.23.01.18.13.32.16.21.33.18.37-.06.42-.42.14-.92.72-1.27.44-.26.77.08l4.24 4.45a1.14 1.06 20.6 0 1 .3.59l.42 2.75q.12.83.57.14l1.05-1.63a.71.7-40.2 0 1 1.24.09l1.41 3.35a1.01.51.8 0 0 .76.4l.41.06a.51.47 84.3 0 0 .5-.66q-.8-2.67.05-6.09.12-.48.58-.68 1.01-.44 1.52-1.03a.43.43 0 0 0-.31-.71q-1.79-.05-2.27-1.82-.15-.56-.73-.52-1.03.07-1.16 1.73-.01.21-.25.23l-.3.03q-.37.03-.33-.28.37-2.79-.56-4.86-.24-.52.23-.85.72-.51 1.1-1.09a1.77 1.77 0 0 0 .29-.87q.19-3.24-1.61-6.09-.36-.58.3-.74 1.37-.33 1.32-2.15-.01-.57.54-.68 4.2-.84 5.94-3.82.29-.49.8-.56l.67-.08q.61-.08.18-.55-1.93-2.12-2.48-4.28-.21-.8-.61-.06l-1.36 2.55a.59.54 44 0 1-.98-.03q-.79-1.23-1.09-2.51-.12-.53-.69-.69l-1.44-.41q-.57-.17-.54-.66l.35-5.8q.02-.42-.14-.88-.35-1.04-.05-1.47.5-.7-.27-.26-.68.4-.79 1.31-.06.51-.55.65l-2.98.85q-.66.18-.57-.54.04-.29.04-.84 0-.47-.18-.68-.34-.42-.71-.41-.43.01-.46.54-.01.1-.03.44-.03.49-.36.87-2.26 2.56-.74 5.23.24.43-.17.64l-1.69.88q-.44.23-.59-.24-.36-1.18-1.16-2.08-.38-.43-.83-.06-.61.52-1.28.16-.82-.46-.44-1.26l1.5-3.19q.23-.46-.32-.71l-1.02-.46q-.49-.22-.51-.65l-.11-2.44q-.03-.63-.63-.43l-.77.26q-.38.13-.41-.27-.11-1.45-.86-2.6a.42.42 0 0 1 .24-.64q3.33-.96 6.1-4.2.34-.4-.03-.77-1.41-1.4-2.3-3.44-.22-.52.25-.82 1.76-1.12 1.04-2.83-.2-.48-.07-.97l.7-2.5q1.95.5 3.79.05.49-.12.76-.55l3.15-5.06q3.27-.59 3.26 1.55 0 .2.18.29.15.08.28.04.25-.06.28-.35l.1-.98q.08-.77.77-.62 1.05.24 1.43.65.72.79.8-.32l.23-3.54 4.79 2.44a2.49 2.49 0 0 0 2.08.09q2.25-.93 4.57-2 3.46-1.6 4.75-1.79 3.95-.57 8.85.21 2.96.47 7.02-.59 1.21-.31 3.16.82m-41.07 30.49q-.21.29.1.38a.25.25 0 0 0 .29-.34q-.17-.34-.39-.04"/><path fill="#f3832f" d="M217.46 66.9q.45.16.82.44-.34.25-.7.1-.36-.16-.12-.54M182.24 67.72l-.23 3.54q-.08 1.11-.8.32-.38-.41-1.43-.65-.69-.15-.77.62l-.1.98q-.03.29-.28.35-.13.04-.28-.04-.18-.09-.18-.29.01-2.14-3.26-1.55 2.05-4.41 7.33-3.28M233.01 71.34q.05 1.95-.95 3.96-.42.84-.06 1.28a.58.57-40.3 0 0 .83.07q.76-.68 1.42-.72.33-.02.48.09.34.26.04.57-.58.6-.37 1.22.11.34.6.73.32.26.47.61.19.44-.3.58l-.34.1q-.56.17-.65.73-.42 2.69.65 5.46a.71.63 63.5 0 1-.22.81q-.1.07-.3.11a.76.34-18.2 0 1-.6-.07l-2.63-2.38q-.62-.57-.87.05-.55 1.36-2.42 2.24a.86.86 0 0 0-.39 1.18q.52.99.65 2.26.07.63-.57.4l-.7-.25q-.62-.22-.89.35-.44.92-.57 1.03-.59.47-.57-.49l.21-9.31q.01-.47-.42-.68-2.12-1.04-3.43-2.75-.39-.51-.89-.12-.29.22-.49 1.78a.24.24 0 0 1-.46.06l-.88-2.49q-.15-.44.23-.84c1.67-1.7 3.25-2.84 3.48-4.39q.29-2-1.28-2.71-.5-.22-.72-.72l-.55-1.23q7.03.43 13.46 3.48M250.28 71.73q-1.16.51-2.4-.38-.98-.7-2.14.22a.66.66 0 0 1-.84-.01l-.57-.49a.72.69-45.9 0 0-.93.04q-.4.37-.59 1.24a.74.74 0 0 1-.59.58q-.44.08-.81-.31-.57-.61-.44-1.26 2.62-1.16 5.4-1.49 1.2-.14 2.12.44.93.58 1.79 1.42M235.98 70.79q-.03.3-.12.5-.09.23-.36.28-.56.11-.79-.54zM167.21 76.56l-.7 2.5q-.13.49.07.97.72 1.71-1.04 2.83-.47.3-.25.82.89 2.04 2.3 3.44.37.37.03.77-2.77 3.24-6.1 4.2a.42.42 0 0 0-.24.64q.75 1.15.86 2.6.03.4.41.27l.77-.26q.6-.2.63.43l.11 2.44q.02.43.51.65l1.02.46q.55.25.32.71l-1.5 3.19q-.38.8.44 1.26.67.36 1.28-.16.45-.37.83.06.8.9 1.16 2.08.15.47.59.24l1.69-.88q.41-.21.17-.64-1.52-2.67.74-5.23.33-.38.36-.87.02-.34.03-.44.03-.53.46-.54.37-.01.71.41.18.21.18.68 0 .55-.04.84-.09.72.57.54l2.98-.85q.49-.14.55-.65.11-.91.79-1.31.77-.44.27.26-.3.43.05 1.47.16.46.14.88l-.35 5.8q-.03.49.54.66l1.44.41q.57.16.69.69.3 1.28 1.09 2.51a.59.54 44 0 0 .98.03l1.36-2.55q.4-.74.61.06.55 2.16 2.48 4.28.43.47-.18.55l-.67.08q-.51.07-.8.56-1.74 2.98-5.94 3.82-.55.11-.54.68.05 1.82-1.32 2.15-.66.16-.3.74 1.8 2.85 1.61 6.09a1.77 1.77 0 0 1-.29.87q-.38.58-1.1 1.09-.47.33-.23.85.93 2.07.56 4.86-.04.31.33.28l.3-.03q.24-.02.25-.23.13-1.66 1.16-1.73.58-.04.73.52.48 1.77 2.27 1.82a.43.43 0 0 1 .31.71q-.51.59-1.52 1.03-.46.2-.58.68-.85 3.42-.05 6.09a.51.47 84.3 0 1-.5.66l-.41-.06a1.01.51.8 0 1-.76-.4l-1.41-3.35a.71.7-40.2 0 0-1.24-.09l-1.05 1.63q-.45.69-.57-.14l-.42-2.75a1.14 1.06 20.6 0 0-.3-.59l-4.24-4.45q-.33-.34-.77-.08-.58.35-.72 1.27-.05.36-.42.42-.17.03-.33-.18-.12-.14-.13-.32-.08-.94-.38-1.23a.63.59 43.2 0 0-.88 0q-1.7 1.86-1.23 4.04.1.47-.17.86-1.18 1.73-1.35 3.32-.06.54-.53.36l-1.35-.54q-.85-.34-.89.42l-.08 1.68q-.03.52-.57.43-.21-.04-.79-.3-.61-.28-.62.37l-.05 2.56q-.02.84.67.37l.47-.31q.3-.2.65-.05.37.15.63.58.26.45.04.91-.83 1.76.2 3.42.3.48-.18.76-.22.13-.77-.06-.57-.2-1.15-.6-.52-.35-.7.25-.31 1.09-1.09 1.6l-1.62-.25q-.22-1.01.45-2.09.26-.42-.11-.59l-2.83-1.35q-.43-.2-.24-.66l1.12-2.74q.12-.29-.09-.53-.27-.32-.62-.53a.98.95-65.5 0 1-.4-1.13l.32-.98q.16-.47-.1-.81-1.42-1.85-2.05-4a.87.87 0 0 0-.83-.63l-1.2-.02q-.47 0-.21-.46l.4-.71q.26-.45.06-.86l-.71-1.44a.44.44 0 0 0-.79 0q-.72 1.48-1.71 1.84a.94.94 0 0 0-.38 1.51q.76.85.75 1.4a.65.65 0 0 1-.54.64q-2.32.39-3.58 1.66-.38.38-.84.12-.79-.44-1.25-1.3-.02-.03-.05-.02l-.25.06q-.28.08-.15.35l.4.78q.23.47-.22.73l-1.94 1.11q-.39.23-.46.69-.33 2.41.88 3.15.47.28.39.82-.15.97.82 2.26a.94.87-39.9 0 1-.16 1.21l-.25.23a.54.51 45.2 0 1-.71-.03l-1.34-1.26a.39.38 24.8 0 0-.65.23q-.13 1.44-1.49 1.57a.77.77 0 0 0-.67.54q-.08.28.02.62l-1.02-.12.98-3.07q.16-.52-.34-.7l-.62-.21q-.54-.19-.77-.77-.6-1.53-.6-2.54.01-1.45-.46-2.57-.63-1.48-.51-3.29.04-.53-.27-.97l-1-1.48q-.32-.47-.1-.94.66-1.37.79-2.55.07-.59-.42-.82l-1.88-.89q-.55-.27-.67.31-.14.71-.48 1.02-.5.46-.54-.22-.22-4.12-.26-4.55-.1-1.06-.79-1.67a.57.56-57.6 0 0-.89.2l-1.2 2.8q-.22.52-.72.3l-.44-.2a.59.59 0 0 0-.81.69l.79 2.92q.12.44-.14.85-1.41 2.26-2.99 1.67-.62-.24-1.03.29-1.02 1.31.26 2.76.09.11-.02.16-.09.04-.1.05-.06.05-.35-.14l-2.92-2q-.41-.28-.55-.76-.12-.41-.34-.6-.54-.46-.57.25-.08 2.46-.22 2.77-1.28 2.89-2.45 6.21a.44.44 0 0 0 .47.58q.58-.08 1.35-.76.47-.41.73.15.84 1.86.43 3.31-.14.48.1.93l.92 1.75-11.07-3.68q-.93-2.88-3.81-2.12-.55.14-.54-.43.04-1.81 1.45-3.17.37-.36.27-.86-.15-.69.13-1.52a.35.35 0 0 0-.59-.36q-1.08 1.14-2.05-.81a.48.48 0 0 0-.78-.12q-.29.31-.54 1.08-.19.62-.8.22l-.23-.15a.92.87 24.3 0 1-.39-.96q1.06-4.2 1.16-5.29.03-.36-.56-1.68a.51.51 0 0 0-.76-.2q-1.21.87-2.47.09a.81.81 0 0 0-.95.06q-.68.56-.26 1.74.17.49-.31.68-.66.25-2.29.19-.61-.02-.5-.61.2-1.17-.86-4.5-.19-.59-.02-.97l.19-.4q.29-.66-.52-.63-.7.03-1.18.36-1.24.83-1.09-.72.09-.87-.06-1.23-.25-.59-.76-.2-1.43 1.09-.71 2.84a1.07 1 46 0 1 .01.77l-1.68 4.23q-.22.55-.71.88-1.65 1.1-.56 3.16a.98.97 43.8 0 1 .02.87l-.26.53a.65.48-15.7 0 0 1.05.4q.84-.74 1.48-.65.55.07.73 1.03.38 2.04-.53 4-2.63-.42-4.96-1.28c-3.8-1.41-4.79-4.51-3.98-8.46q1.38-6.81 5.32-12.45 4.28-6.13 8.1-11.15c1.36-1.78 2.97-2.66 5.3-3.12q15.95-3.16 35.86-9.73 5.82-1.93 9.59-4.35 9.87-6.37 11.04-17.9.19-1.91 2.09-2.76 1.18-.54 2.94-.08 6.23 1.6 11.93 4.54M257.82 77.72l4.13 3.52a2.22 2.22 0 0 0 1.76.51c3.69-.53 7.64-1.29 11.08-.75q6.16.96 10.55 2.65 2.07.79 2.52 3.03.85 4.21-.48 8.44a.6.6 0 0 0 .44.76l1.06.23a.84.83 2.4 0 1 .65.71q.41 3.07 2.11 5.61 1.04 1.55 1.35 3.91.54 4.14 1.22 11.16.2 2.14-.26 4.64-.22-4.15-3.15-4.78-.53-.12-.67.4-.73 2.75-4.09 2.37a.81.81 0 0 0-.85 1.07l.44 1.26q.22.62-.34.87l-2.93 1.31q-.54.24-.52-.35.13-3.68.53-9.32c.12-1.73-.3-3.16-.29-4.89q0-1.85-1.27-.44l-1.67 1.86q-.36.4-.81.09-2.43-1.68-3.12-2.02-1.11-.55-1.77.43-.36.54.03.99l.9 1.04q.39.44-.14.62-1.34.46-3.62.27a.67.67 0 0 1-.61-.68q.01-.56.41-1.23.24-.41.11-.79l-.3-.88q-.2-.56-.05-1.05l1.54-5.18q.17-.57.06-.93l-.14-.48q-.16-.54.47-.7.64-.17.31-1a.63.61 16.2 0 0-.08-.14q-1.73-2.31-.43-4.9.23-.46-.2-.75-.58-.37-1.79-.16-.76.13-1.24 1.53a.66.66 0 0 1-.6.45q-.73.03-1.13-1.25-.21-.65-.84-.38-1.56.68-2.08-1.61-.13-.57-.67-.38l-3.97 1.39a.66.47 62.1 0 0-.11.89q.17.26.87.36a.74.68 9.6 0 1 .64.81l-.99 4.86q-.07.35-.31.06-.5-.64-.7-1.29-.14-.45-.53-.71-1.66-1.08-3.07-.43-1.81.84-.92-.85l1.2-2.29q.25-.48.1-1.03-.44-1.69-1.88-2.45-1.68-.9.11-1.54.49-.18 1.5-.29a.82.82 0 0 0 .62-1.23q-.78-1.3-.98-2.5-.1-.58.44-.86l1.04-.52q.39-.19.51-.65.71-2.7-1.28-3.29-.65-.2-.17-.69z"/><path fill="#f3832f" d="M176.39 97.39q.22-.3.39.04a.25.25 0 0 1-.29.34q-.31-.09-.1-.38"/><path d="M104.26 147.75q-9.81-3.76-20.28-4.45.91-1.96.53-4-.18-.96-.73-1.03-.64-.09-1.48.65a.65.48-15.7 0 1-1.05-.4l.26-.53a.98.97 43.8 0 0-.02-.87q-1.09-2.06.56-3.16.49-.33.71-.88l1.68-4.23a1.07 1 46 0 0-.01-.77q-.72-1.75.71-2.84.51-.39.76.2.15.36.06 1.23-.15 1.55 1.09.72.48-.33 1.18-.36.81-.03.52.63l-.19.4q-.17.38.02.97 1.06 3.33.86 4.5-.11.59.5.61 1.63.06 2.29-.19.48-.19.31-.68-.42-1.18.26-1.74a.81.81 0 0 1 .95-.06q1.26.78 2.47-.09a.51.51 0 0 1 .76.2q.59 1.32.56 1.68-.1 1.09-1.16 5.29a.92.87 24.3 0 0 .39.96l.23.15q.61.4.8-.22.25-.77.54-1.08a.48.48 0 0 1 .78.12q.97 1.95 2.05.81a.35.35 0 0 1 .59.36q-.28.83-.13 1.52.1.5-.27.86-1.41 1.36-1.45 3.17-.01.57.54.43 2.88-.76 3.81 2.12m-14.19-12.08q.03.5.51.34.37-.12.33-.46-.04-.32-.34-.45-.56-.25-.5.57M133.96 153.16q-9.54.2-18.63-1.73l-.92-1.75q-.24-.45-.1-.93.41-1.45-.43-3.31-.26-.56-.73-.15-.77.68-1.35.76a.44.44 0 0 1-.47-.58q1.17-3.32 2.45-6.21.14-.31.22-2.77.03-.71.57-.25.22.19.34.6.14.48.55.76l2.92 2q.29.19.35.14.01-.01.1-.05.11-.05.02-.16-1.28-1.45-.26-2.76.41-.53 1.03-.29 1.58.59 2.99-1.67.26-.41.14-.85l-.79-2.92a.59.59 0 0 1 .81-.69l.44.2q.5.22.72-.3l1.2-2.8a.57.56-57.6 0 1 .89-.2q.69.61.79 1.67.04.43.26 4.55.04.68.54.22.34-.31.48-1.02.12-.58.67-.31l1.88.89q.49.23.42.82-.13 1.18-.79 2.55-.22.47.1.94l1 1.48q.31.44.27.97-.12 1.81.51 3.29.47 1.12.46 2.57 0 1.01.6 2.54.23.58.77.77l.62.21q.5.18.34.7zM156.19 153.9q-7.07-.23-14.18.02c-2.47.09-4.64-.28-7.03-.64q-.1-.34-.02-.62a.77.77 0 0 1 .67-.54q1.36-.13 1.49-1.57a.39.38 24.8 0 1 .65-.23l1.34 1.26a.54.51 45.2 0 0 .71.03l.25-.23a.94.87-39.9 0 0 .16-1.21q-.97-1.29-.82-2.26.08-.54-.39-.82-1.21-.74-.88-3.15.07-.46.46-.69l1.94-1.11q.45-.26.22-.73l-.4-.78q-.13-.27.15-.35l.25-.06q.03-.01.05.02.46.86 1.25 1.3.46.26.84-.12 1.26-1.27 3.58-1.66a.65.65 0 0 0 .54-.64q.01-.55-.75-1.4a.94.94 0 0 1 .38-1.51q.99-.36 1.71-1.84a.44.44 0 0 1 .79 0l.71 1.44q.2.41-.06.86l-.4.71q-.26.46.21.46l1.2.02a.87.87 0 0 1 .83.63q.63 2.15 2.05 4 .26.34.1.81l-.32.98a.98.95-65.5 0 0 .4 1.13q.35.21.62.53.21.24.09.53l-1.12 2.74q-.19.46.24.66l2.83 1.35q.37.17.11.59-.67 1.08-.45 2.09"/><path fill="#f3832f" d="M90.07 135.67q-.06-.82.5-.57.3.13.34.45.04.34-.33.46-.48.16-.51-.34"/></svg>