<svg xmlns="http://www.w3.org/2000/svg" viewBox="0 0 382 382"><g fill="none" stroke="#21061a" stroke-width="2"><path d="M215.29 66.23q.32.54.25.96-.09.44-.52.58-.35.12-.61.38-.49.5.13.83.38.21.6.57.33.53.71.03l.67-.87a.87.87 0 0 0 .08-.92q-.33-.64.12-1.18M217.87 67.26l2.07 5.14a1.6 1.6 0 0 1-.95 2.11q-3.99 1.42-3.98 5.8 0 .8.68.36.83-.54 1.78.09.57.38.59-.33l.06-2.06q.01-.14.11-.16l.36-.08a.26.24-7.2 0 1 .32.23q.02 2.69 2.14 3.62.46.2.48.7l.14 3.53a1.42 1.1-34.3 0 1-.26.79l-1.93 2.76q-.31.44-.8.21-.71-.34-.69-1.42.01-.29-.24-.43-.16-.1-.3-.03-.18.1-.23.37-.43 2.29-2.91 2.75-.13.02-.18.14-.08.17-.08.25-.02.29.28.3 1 0 1.67-.35.4-.21.8.01 3 1.7 1.69 4.49-.21.46-.01.92l.11.26q.2.47-.13.87-1.36 1.63-2.58 1.95-1.94.52.02 1.03.15.04 1.3-.59.45-.25.86.07.8.62 1.17-.24a.69.69 0 0 1 1.15-.2q1.81 1.99.92 3.32a.28.28 0 0 0 .44.35l.65-.69q.33-.35.16-.87-1.24-3.72-1.37-4.66-.15-1.17.92-2.16.49-.45.89.08.24.31.58.28.6-.06.11-.41-1.89-1.36-1.57-3.68.07-.5.57-.58 2.17-.37 3.67.32.48.22.53-.3l.08-.91q.19-2.03 1.39-.43 1.14 1.52 1.79 4.36c.15.69.8 1.51 1.27 1.94q.48.43.04.91l-.71.75q-.36.39-.15.99.72 2.03-.69 4.49a.42.35 26.5 0 0 .23.52l.33.15q.3.14.37-.15.37-1.62 1.42-1.89.57-.14.38-.7-.18-.53.03-1.17.15-.48-.08-.93-.53-1 .53-1.74.49-.34 1.01-.1l3.37 1.53q.66.31.27-.3-1.66-2.55-.34-4.7.31-.5-.27-.63-.4-.08-.69.1-.46.27-.45.8.01.45-.43.89-.46.45-.51-.17l-.15-1.74a.92.92 0 0 0-.59-.79q-1.78-.66-1.04-2.7c.45-1.24.52-2.84 1.54-3.54q1.55-1.05 3.26-.07.22.12.45-.04l.27-.2a.25.22-46.5 0 0 .01-.39q-.64-.37-1.41-.47a.7.7 0 0 1-.43-.23q-.32-.35-.23-.79.1-.52.62-.66l1.37-.37a.3.24 70.7 0 0 .14-.38l-.12-.29q-.09-.24-.36-.11-1.71.85-2.65 1.8-.46.47-.68-.15-.71-1.99-.21-3.91.51-1.98-1.15-1.01-.16.1-1.06-.24-.49-.19-.51.3l-.06 1.46a.57.57 0 0 1-.83.48q-.42-.22-.71-.64-.29-.43-.05-.9.58-1.13.21-2.21-.26-.74.24-.39.24.16.48.13a.51.5 89 0 0 .44-.46l.19-2.51q.05-.64.66-.31l.8.42q.49.26.83-.18l2.26-2.87M240.15 71.29q-.62 3.68 1.79 6.27 1.12 1.19 1.13-.45 0-1.46-1.02-3.2a.68.68 0 0 1 .62-1.03q2.86.1 4.59 2.54.29.42.65.05l3.07-3.15M254 74.73q-.33.64-.02 1.1.24.34.69.29.37-.04.79-.25M256.2 76.45q-.31 1.31.18 2.55.18.47-.12.88l-1.76 2.37q-.34.47.22.59 1.44.3 1.05 2.31a1.17.99 81.1 0 1-.42.68l-2.05 1.48q-.05.03-.03.1l.08.29q.08.27.27.07.33-.37.73-.52.57-.22.57.39.01 1.95-.9 2.81a.68.68 0 0 1-.86.07q-.29-.21-.53-.27a.53.53 0 0 0-.67.53q.06 1.72 1.57 4.41.25.44-.11.81-.42.43-1.45.9-.46.2-.72.63-.74 1.2-1.2 2.27-.5 1.15-.94 1.25-2.08.46-.01 1.03 2.13.59 2.98-2.36.05-.18.11-.26.14-.18.18-.2a.51.31 76.2 0 1 .47.48l.08.47q.08.52.58.67 2.35.73 2.55 3.01.05.61-.73 2.7-.54 1.43-.23 2.88.04.19.15.28.13.11.3.1.41-.03.46-.43l.28-1.96q.09-.64.78-.37l1.27.51q.69.27.61-.4-.13-1.02-1.32-2.05-.51-.44-.06-.94.65-.73.48-2.46-.08-.78.57-.33 1.86 1.32 3.32-.78a.38.38 0 0 0-.27-.6q-1.4-.16-1.83-1.32-.17-.48-.62-.72-.25-.13-.49-.1-.58.07-.15-.74.34-.64-.17-1.5-.33-.54.3-.62.94-.12 2.99.82.22.1.28-.14l.23-.97q.2-.86.92-.11l.47.5a.65.43-53.1 0 1-.03.68q-.72 1.12-.37 2.58.05.21.1.23.14.07.28.09a.31.31 0 0 0 .35-.31q-.01-1.26.9-1.45.54-.11.97.34l.94.98q.99 1.02 1.2-.44l.16-1.04q.08-.58.62-.4 1.04.35 1.68-.14a.37.37 0 0 1 .59.26q.13 1.31-.28 2.53-.16.48.02 1.07l.6 2.03q.13.43-.27.75-.31.25-.38.38-.23.47 0 .93.57 1.12-.54 1.73-.48.26-.42.8.15 1.35-.9 3.94-.38.94-1.53 1.78-1.37 1-1.89 1.74-.62.87.29.32 2.05-1.24 3.71 1.78.61 1.11.72 3.3.01.19.26.23l.22.04q.29.05.31-.23.2-2.07 1.42-2.67a1.93 1.55 65.3 0 0 .59-2.35l-.69-1.57q-.33-.75.57-.86l1.17-.13q.72-.08.83.65l.16 1.18q.09.62.7.65l1.72.08q.49.02.6-.49.22-.98 1.05-1.12.55-.1.77.41.39.92-.19 1.74-.4.55.28.57.54.02.73.54.17.49.08 1.13-.3 2.26-2 6.61-.34.88-1.17 1.48-1.34.97.24 1.45 1.24.37 1.82 1.51 1.14 2.24-1.43 3.67-.1.06-.04.16l.16.28q.14.23.36.09 1.32-.81 2.64-.05.54.3.67-.3.33-1.46-.25-2.41-.28-.47.23-.65.97-.35 1.86-1.51.28-.38-.08-.72l-.99-.95q-.49-.47-.13-1.01.35-.52 1.11-.86.5-.23.88.17.22.22.35.77a1.16 1.15-83.3 0 0 .6.75q.63.32 2.05.12.45-.07.46-.52l.03-1.88q0-.16.13-.26.16-.14.33-.13.34.02.41.35.22.97 1 1.46a1.14 1.14 0 0 1 .5.68q.85 3.23-.05 5.95-.23.73.03 1.15.3.49 1.05.73M185.69 161.65q1.4-.62 1.43-1.95.01-.44.41-.65 1.71-.87 2.63.57a.4.4 0 0 0 .72-.12q.13-.54-.02-.93-.2-.51-.74-.43-4.33.64-4.27-3.78.01-.28-.36-.22l-.26.05q-.14.03-.14.22l-.1 2.88q-.01.62-.75.63-1.41.03-2.53.65-.75.42-.73-.44.06-3.03-.66-4.93a.98.89-41.9 0 1 .09-.81l.79-1.34q.24-.41.16-.87l-.49-2.95q-.03-.18-.11-.19l-.27-.02a.4.4 0 0 0-.42.43q.2 2.63-2.11 2.65-.48 0-.72.54l-.43 1.01a.34.34 0 0 1-.64-.08l-.59-3.02q-.04-.2.13-.28l.36-.18q.32-.16.36-.67.18-2.19-.18-3.46-.17-.58.41-.76 1.05-.32 2.5.34 1.12.52.58-.6-.72-1.5 0-3.76.75-2.32-1.01-3.59a.34.33-54.6 0 1-.08-.46q.12-.17.12-.39-.02-.34-.03-.36-1.09-1.53-.14-2.38a.57.57 0 0 1 .5-.13q.77.17 1.89-1.16.46-.55.68.13.4 1.2 2.26 1.08 1.33-.09 1.73-.19.16-.04.22-.2.04-.11.01-.29-.04-.36-.39-.33-1.31.08-2.29-.19-.1-.03-.1-.06l.05-.3a.3.17-82.7 0 1 .2-.27q1.98.2 2.94-.63.62-.54.67.32l.11 1.53a.43.41-13.4 0 0 .59.34c.8-.32 1.04-1.2 1.57-2.28a.76.71 18 0 1 .81-.38l.4.08q.47.09.5.57.11 1.63.53 2.48.25.49-.1.91-.12.15-.27.46-.31.61-.01 1.04.22.33.85.52.25.07.9-.16.07-.03.42-1.4.16-.61.64-.2 1.5 1.28 1.01 4.03-.04.22.16.31.21.11.27.12.49.16.49-.36-.04-2.95 2.89-3.66.15-.04.14-.25l-.01-.27q0-.12-.12-.12l-2.95-.11q-.49-.01-.66-.47-.72-1.91.41-2.8.22-.17.06-.4l-.15-.24q-.02-.03-.05 0-.8.85-1.73 1.75-.54.52-.62-.23-.16-1.47.64-2.73.27-.43.25-.93-.06-1.1-.59-2.1a1.61 1.61 0 0 1 .38-1.98q2.01-1.73 2.68-3.42.16-.4.46.01l.17.23q.28.39.57.17 2.29-1.82 3.35-4.89.33-.97-.63-.61-1.1.42-1.58 2.22-.12.46-.46.12-.94-.93-2.4-.7a.75.75 0 0 1-.86-.82q.32-2.88-.75-5.73-.02-.08-.12-.1l-.55-.11q-.6-.13-.34.3.69 1.17.72 2.52.02.67-.22.94-.25.27-1.25.18-.08 0-.14.04-.12.09-.19.22-.15.28.18.36l1.07.27a.79.76 30 0 1 .38 1.31q-1.48 1.37-.17 2.91.38.45-.19.59c-1.56.36-2.29-.43-3.91-1.45q-1.98-1.25-.9.74.13.24-.58 1.37a.8.8 0 0 0 .02.9q1.02 1.45.86 2.14a.4.4 0 0 1-.61.24q-1.71-1.15-2.9-3.24-.25-.45-.11-.93l.7-2.36a.86.76-66.8 0 0-.31-.94q-.12-.07-1.01.2-.49.16-.69-.32-.44-1.06-1.21-.72a.99.94 86.3 0 1-1.27-1.18l1.28-4.88a.6.6 0 0 1 .2-.31q.7-.56.57-1.23-.1-.52.23-.77l.46-.34q.39-.29.19-.83-.21-.56-.2-.98.01-.53.52-.7 1.13-.39 2.85-2.5.36-.45-.13-.66l-1.79-.79q-.56-.24-.7.35l-.14.6q-.21.91-.79.24l-.64-.74a1.47 1.46-67.8 0 1-.36-.85q-.09-1.18-.58-2.15-.22-.43-.02-.86.53-1.18.41-1.79-.38-2.01-.85.02-.05.21-.17 1.41-.05.51-.55.59-1.07.15-2.05.97-.16.13-.15.29.01.31.03.35.21.38.69.08.32-.19.51-.51.18-.31.41-.08l.87.89q.32.33.07.68-.26.38-1.09.83-1.14.62.78 2.32.48.42-.06.72l-1.77.97a.33.32-19.7 0 1-.48-.22l-.07-.41q-.29-1.57-1.2-.33-.15.21-.67 1.28-.98 2.01-1.04-.2c-.04-1.67-1.1-3.43-1.18-5.01q-.08-1.59-.11-2.49-.01-.35-.34-.17l-.41.22q-.19.09-.15.29.38 1.94-.45 2.61-.45.36-.04.75 1 .97-.04 2.1-1.38 1.49-2.53 1.38-.63-.06-.74.51l-.62 3.26a1.1 1.08-59.8 0 0 .23.89l1.56 1.89q.78.95-.32 1.51l-1.69.85q-1.04.53-1.27-.61-.71-3.5-2.8-2.41-1.75.91-.89-.81.58-1.15 1.09-3.94.09-.51-.37-.74-.89-.45-.9-.82-.03-.85.55-.44l.5.36q.33.23.65-.07.18-.18.04-.39-1.59-2.31-4.01-2.69-.61-.1-.37-.66.25-.63-.69-1.73-1.34-1.54.53-1.39.44.04.95-.22.44-.22.63-.67c1.25-2.99 3.16-1.96 5.61-2.24q.63-.07.2-.57l-1.24-1.43a.59.34 33.4 0 1-.14-.28q-.04-.29.16-.55.33-.45-.26-.72l-.47-.21a.69.61-60 0 0-.79.26q-.18.26-.47.42-.22.11-.29 0-.05-.08-.09-.12a.33.25-41.7 0 1 .09-.44q.71-.55.06-1.26-.35-.38-.27-.89.11-.64.83-1.2.39-.31.3-.79-.22-1.23.1-2.25.15-.49.62-.67 2.04-.76.8-2.86-1.05-1.77-2.97-.85-.5.24-.63-.29-.37-1.55.65-2.9M173.67 73.09q.53.7 2.13-.14.5-.26.87.16.5.54.3 1.76-.22 1.34 1.12 1.17.57-.08 1.32.09.57.13.62.77l.14 1.56a.6.56 86.7 0 0 .58.55l1.66-.04q.63-.01.28-.48-2.59-3.53.65-6.37 1.34-1.18-.4-.98-.82.1-1.07-1.44a1.39 1.02 65.9 0 0-1.91-1.09q-.1.12-.07.85.02.32-.3.35-.13.02-.25-.02-.19-.05-.29-.41-.22-.77-.3-1.66M171.75 158.21q.4-1.08-.03-1.71a.91.91 0 0 0-.83-.4q-.86.08-1.5-.39-.45-.33-.2-.83 1.22-2.39-.16-4.08-.38-.46-.38-.88l.01-.89q.01-.48-.28-.87-1.39-1.9-1.65-3.59a.74.74 0 0 0-.7-.63q-.73-.04-1.05.42-.1.15-.11.53-.01.52-.31.67a.26.26 0 0 1-.37-.27q.18-1.01.01-1.47a.7.7 0 0 0-.89-.42q-2.19.78-2.19 4.99a1.24.8-81.6 0 1-1.16 1.32q-.04-.02-.52-.04-.55-.03-.33.47l.48 1.12q.17.41-.26.59l-.3.14a.41.4-28.2 0 1-.5-.15q-.48-.72-1.14-1.94-.23-.44-.53-.6a.36.36 0 0 0-.54.32q.03 2-3.02 4.02M148.33 153.65q.59-2.63.24-5.14-.08-.57.35-.71l.41-.14q.59-.18.17-.63-.78-.83-1.3-.6-1.36.59-.82-.82c.38-.99.61-1.66-.06-2.66q-1.11-1.64-1.47-3.45a.41.41 0 0 0-.64-.25q-2.42 1.72-1.22 3.53a1.15.69-54.5 0 1-.08 1q-.12.24-.78.64-.42.26-.89.12-1.43-.41-2.8.18-.5.21-1 .01l-.67-.26q-.53-.21-.97.13-1.54 1.22-2.09 3.37-.12.46.25.77 2.5 2.11 2.65 4.93M129.51 153q.44-1.03.37-1.92-.04-.54-.51-.77l-3.17-1.57a.39.38-47 0 1-.02-.68l2.21-1.32a1.1 1.02 51.2 0 0 .13-1.68q-1.57-1.52-.39-2.78.38-.4.22-.95l-.59-2.06q-.15-.53-.09-.99l.29-2.42q.08-.68-.56-.8-1.16-.21-2.66.56-.52.26-.57-.31-.3-2.95-.33-3.15-.64-3.67-2.18-.47-.03.05-.8 1.21a1.1 1.1 0 0 0-.14.91q.72 2.55-.2 4.12-1.4 2.4-3.06 1.49-1.9-1.05-1.22 1.19.04.12.33.59.31.5-.25.68-1.86.61-2.41-1.12-.16-.51-.64-.72l-1.45-.63q-.7-.3-.29.36.56.91.5 1.32-.08.51-.54.72c-1.33.6-2.41 1.62-2.45 3.24q-.02 1.14-.66 2.21-.31.52.29.56 2.75.17 3.59 2.81M95.97 145.01l2.93-3.34a.99.96 29 0 0-.47-1.56l-.65-.2q-.54-.17-.63-.68-.22-1.24-1.43-1.28a.44.44 0 0 0-.26.07q-.66.46.06.99.41.3.14.72-.44.72-.93.99-.63.36-.66-.37-.02-.87-.56-1.55-.37-.48.13-.83 2.03-1.4 1.26-5.35-.08-.45-.53-.36-2.68.54-3.73.26-.61-.16-.61.43l-.06 4.5q0 .25-.25.37-.17.08-.34.02-.27-.09-.32-.36-.15-.91-.36-1.05-.38-.27-.81.07-.2.17-.45.21-.57.11-.44-.69.05-.35.4-.92.26-.43.21-.91l-.73-6.7a.66.66 0 0 0-.7-.58q-.65.04-1.52.59-.49.31-.55-.3l-.16-1.7q-.08-.87-.62-.22-1.72 2.08-.66 4.28.22.46-.08.97l-1.38 2.34a.69.46-46 0 0-.09.49l.28.88q.18.6-.45.7l-1.09.18q-.59.09-.33.67.64 1.42.49 3.75a.28.26 7.4 0 0 .23.27l.27.06q.27.05.3-.2.12-.93.47-1.41a.86.86 0 0 1 .78-.34q.97.1 1.08 1.57.04.59.5.23.81-.63.89-.62.75.1.05.74l-1.18 1.06q-.39.35 0 .76.68.7.67 1.56" vector-effect="non-scaling-stroke"/><path d="M114.59 151.2q-.4-1.6-.89-2.56-.67-1.33-.58.15.04.76-.69 1.74M177.24 77.42q-.06.58.48.34a.29.29 0 0 0 .16-.3q-.02-.24-.33-.28a.28.28 0 0 0-.31.24M181.17 81.45a.32.32 0 0 0 .26.35q.44.08.48-.26a.39.39 0 0 0-.26-.42q-.44-.16-.48.33M179.16 95.6a.31.31 0 0 0 .49.17q.7-.55.32-1.52-.09-.22-.4-.24-.43-.03-.47.4-.07.66.06 1.19M249.26 96.31q-.34.43.18.46.22.01.25-.21.03-.17-.07-.27-.19-.19-.36.02M172.14 97.68q-.05.48.01.67.44 1.36.83-.03.01-.03-.08-.84-.03-.26-.29-.28-.17-.01-.3.07-.15.09-.17.41M265.93 98.36a.51.51 0 0 0-.51-.51.51.51 0 0 0-.51.51.51.51 0 0 0 .51.51.51.51 0 0 0 .51-.51M216.89 103.45a.35.35 0 0 0-.35-.35.35.35 0 0 0-.35.35.35.35 0 0 0 .35.35.35.35 0 0 0 .35-.35M250.21 103.13q-.58 1.07.04 1.61a.39.39 0 0 0 .64-.2q.18-.79-.03-1.36a.36.36 0 0 0-.65-.05M200.474 120.76a.76.42 92 0 0 .446-.745.76.42 92 0 0-.393-.775.76.42 92 0 0-.447.745.76.42 92 0 0 .393.775M271.82 121.45a.27.27 0 0 0-.27-.27.27.27 0 0 0-.27.27.27.27 0 0 0 .27.27.27.27 0 0 0 .27-.27M276.86 128.5q.05-.23-.15-.31-.23-.09-.38.1-.29.34.09.46.36.11.44-.25M189.28 155.47q.05.57.48.25.26-.19.02-.41-.09-.08-.24-.1a.24.24 0 0 0-.26.26M182.19 156.39a.27.27 0 0 0 .15.46q.31.04.57-.27a.28.28 0 0 0-.18-.46q-.24-.04-.54.27" vector-effect="non-scaling-stroke"/></g><path d="M215.29 66.23q.32.54.25.96-.09.44-.52.58-.35.12-.61.38-.49.5.13.83.38.21.6.57.33.53.71.03l.67-.87a.87.87 0 0 0 .08-.92q-.33-.64.12-1.18 1.02.21 1.15.65l2.07 5.14a1.6 1.6 0 0 1-.95 2.11q-3.99 1.42-3.98 5.8 0 .8.68.36.83-.54 1.78.09.57.38.59-.33l.06-2.06q.01-.14.11-.16l.36-.08a.26.24-7.2 0 1 .32.23q.02 2.69 2.14 3.62.46.2.48.7l.14 3.53a1.42 1.1-34.3 0 1-.26.79l-1.93 2.76q-.31.44-.8.21-.71-.34-.69-1.42.01-.29-.24-.43-.16-.1-.3-.03-.18.1-.23.37-.43 2.29-2.91 2.75-.13.02-.18.14-.08.17-.08.25-.02.29.28.3 1 0 1.67-.35.4-.21.8.01 3 1.7 1.69 4.49-.21.46-.01.92l.11.26q.2.47-.13.87-1.36 1.63-2.58 1.95-1.94.52.02 1.03.15.04 1.3-.59.45-.25.86.07.8.62 1.17-.24a.69.69 0 0 1 1.15-.2q1.81 1.99.92 3.32a.28.28 0 0 0 .44.35l.65-.69q.33-.35.16-.87-1.24-3.72-1.37-4.66-.15-1.17.92-2.16.49-.45.89.08.24.31.58.28.6-.06.11-.41-1.89-1.36-1.57-3.68.07-.5.57-.58 2.17-.37 3.67.32.48.22.53-.3l.08-.91q.19-2.03 1.39-.43 1.14 1.52 1.79 4.36c.15.69.8 1.51 1.27 1.94q.48.43.04.91l-.71.75q-.36.39-.15.99.72 2.03-.69 4.49a.42.35 26.5 0 0 .23.52l.33.15q.3.14.37-.15.37-1.62 1.42-1.89.57-.14.38-.7-.18-.53.03-1.17.15-.48-.08-.93-.53-1 .53-1.74.49-.34 1.01-.1l3.37 1.53q.66.31.27-.3-1.66-2.55-.34-4.7.31-.5-.27-.63-.4-.08-.69.1-.46.27-.45.8.01.45-.43.89-.46.45-.51-.17l-.15-1.74a.92.92 0 0 0-.59-.79q-1.78-.66-1.04-2.7c.45-1.24.52-2.84 1.54-3.54q1.55-1.05 3.26-.07.22.12.45-.04l.27-.2a.25.22-46.5 0 0 .01-.39q-.64-.37-1.41-.47a.7.7 0 0 1-.43-.23q-.32-.35-.23-.79.1-.52.62-.66l1.37-.37a.3.24 70.7 0 0 .14-.38l-.12-.29q-.09-.24-.36-.11-1.71.85-2.65 1.8-.46.47-.68-.15-.71-1.99-.21-3.91.51-1.98-1.15-1.01-.16.1-1.06-.24-.49-.19-.51.3l-.06 1.46a.57.57 0 0 1-.83.48q-.42-.22-.71-.64-.29-.43-.05-.9.58-1.13.21-2.21-.26-.74.24-.39.24.16.48.13a.51.5 89 0 0 .44-.46l.19-2.51q.05-.64.66-.31l.8.42q.49.26.83-.18l2.26-2.87q1.11-.94 3.55.52-.62 3.68 1.79 6.27 1.12 1.19 1.13-.45 0-1.46-1.02-3.2a.68.68 0 0 1 .62-1.03q2.86.1 4.59 2.54.29.42.65.05l3.07-3.15 3.02 2.41q-.33.64-.02 1.1.24.34.69.29.37-.04.79-.25l.74.58q-.31 1.31.18 2.55.18.47-.12.88l-1.76 2.37q-.34.47.22.59 1.44.3 1.05 2.31a1.17.99 81.1 0 1-.42.68l-2.05 1.48q-.05.03-.03.1l.08.29q.08.27.27.07.33-.37.73-.52.57-.22.57.39.01 1.95-.9 2.81a.68.68 0 0 1-.86.07q-.29-.21-.53-.27a.53.53 0 0 0-.67.53q.06 1.72 1.57 4.41.25.44-.11.81-.42.43-1.45.9-.46.2-.72.63-.74 1.2-1.2 2.27-.5 1.15-.94 1.25-2.08.46-.01 1.03 2.13.59 2.98-2.36.05-.18.11-.26.14-.18.18-.2a.51.31 76.2 0 1 .47.48l.08.47q.08.52.58.67 2.35.73 2.55 3.01.05.61-.73 2.7-.54 1.43-.23 2.88.04.19.15.28.13.11.3.1.41-.03.46-.43l.28-1.96q.09-.64.78-.37l1.27.51q.69.27.61-.4-.13-1.02-1.32-2.05-.51-.44-.06-.94.65-.73.48-2.46-.08-.78.57-.33 1.86 1.32 3.32-.78a.38.38 0 0 0-.27-.6q-1.4-.16-1.83-1.32-.17-.48-.62-.72-.25-.13-.49-.1-.58.07-.15-.74.34-.64-.17-1.5-.33-.54.3-.62.94-.12 2.99.82.22.1.28-.14l.23-.97q.2-.86.92-.11l.47.5a.65.43-53.1 0 1-.03.68q-.72 1.12-.37 2.58.05.21.1.23.14.07.28.09a.31.31 0 0 0 .35-.31q-.01-1.26.9-1.45.54-.11.97.34l.94.98q.99 1.02 1.2-.44l.16-1.04q.08-.58.62-.4 1.04.35 1.68-.14a.37.37 0 0 1 .59.26q.13 1.31-.28 2.53-.16.48.02 1.07l.6 2.03q.13.43-.27.75-.31.25-.38.38-.23.47 0 .93.57 1.12-.54 1.73-.48.26-.42.8.15 1.35-.9 3.94-.38.94-1.53 1.78-1.37 1-1.89 1.74-.62.87.29.32 2.05-1.24 3.71 1.78.61 1.11.72 3.3.01.19.26.23l.22.04q.29.05.31-.23.2-2.07 1.42-2.67a1.93 1.55 65.3 0 0 .59-2.35l-.69-1.57q-.33-.75.57-.86l1.17-.13q.72-.08.83.65l.16 1.18q.09.62.7.65l1.72.08q.49.02.6-.49.22-.98 1.05-1.12.55-.1.77.41.39.92-.19 1.74-.4.55.28.57.54.02.73.54.17.49.08 1.13-.3 2.26-2 6.61-.34.88-1.17 1.48-1.34.97.24 1.45 1.24.37 1.82 1.51 1.14 2.24-1.43 3.67-.1.06-.04.16l.16.28q.14.23.36.09 1.32-.81 2.64-.05.54.3.67-.3.33-1.46-.25-2.41-.28-.47.23-.65.97-.35 1.86-1.51.28-.38-.08-.72l-.99-.95q-.49-.47-.13-1.01.35-.52 1.11-.86.5-.23.88.17.22.22.35.77a1.16 1.15-83.3 0 0 .6.75q.63.32 2.05.12.45-.07.46-.52l.03-1.88q0-.16.13-.26.16-.14.33-.13.34.02.41.35.22.97 1 1.46a1.14 1.14 0 0 1 .5.68q.85 3.23-.05 5.95-.23.73.03 1.15.3.49 1.05.73-2.12 5.95-4.42 11.81-.98 2.51-2.7 12.15-.49 2.8-1.44 4.13c-2.18 3.08-7.83 2.8-10.68 1.47q-3.84-1.8-5.11-2.14c-2.55-.68-4.12.28-6.58 1.72q-6.11 3.6-10.77 3.43-2.36-.08-8.54-1.44-3.52-.78-8.23-2.72-3.96-1.63-8.92-2.38-3.44-.53-9.1.29-9.36 1.36-16.5 2.34-4.69.65-12.78-.54 1.4-.62 1.43-1.95.01-.44.41-.65 1.71-.87 2.63.57a.4.4 0 0 0 .72-.12q.13-.54-.02-.93-.2-.51-.74-.43-4.33.64-4.27-3.78.01-.28-.36-.22l-.26.05q-.14.03-.14.22l-.1 2.88q-.01.62-.75.63-1.41.03-2.53.65-.75.42-.73-.44.06-3.03-.66-4.93a.98.89-41.9 0 1 .09-.81l.79-1.34q.24-.41.16-.87l-.49-2.95q-.03-.18-.11-.19l-.27-.02a.4.4 0 0 0-.42.43q.2 2.63-2.11 2.65-.48 0-.72.54l-.43 1.01a.34.34 0 0 1-.64-.08l-.59-3.02q-.04-.2.13-.28l.36-.18q.32-.16.36-.67.18-2.19-.18-3.46-.17-.58.41-.76 1.05-.32 2.5.34 1.12.52.58-.6-.72-1.5 0-3.76.75-2.32-1.01-3.59a.34.33-54.6 0 1-.08-.46q.12-.17.12-.39-.02-.34-.03-.36-1.09-1.53-.14-2.38a.57.57 0 0 1 .5-.13q.77.17 1.89-1.16.46-.55.68.13.4 1.2 2.26 1.08 1.33-.09 1.73-.19.16-.04.22-.2.04-.11.01-.29-.04-.36-.39-.33-1.31.08-2.29-.19-.1-.03-.1-.06l.05-.3a.3.17-82.7 0 1 .2-.27q1.98.2 2.94-.63.62-.54.67.32l.11 1.53a.43.41-13.4 0 0 .59.34c.8-.32 1.04-1.2 1.57-2.28a.76.71 18 0 1 .81-.38l.4.08q.47.09.5.57.11 1.63.53 2.48.25.49-.1.91-.12.15-.27.46-.31.61-.01 1.04.22.33.85.52.25.07.9-.16.07-.03.42-1.4.16-.61.64-.2 1.5 1.28 1.01 4.03-.04.22.16.31.21.11.27.12.49.16.49-.36-.04-2.95 2.89-3.66.15-.04.14-.25l-.01-.27q0-.12-.12-.12l-2.95-.11q-.49-.01-.66-.47-.72-1.91.41-2.8.22-.17.06-.4l-.15-.24q-.02-.03-.05 0-.8.85-1.73 1.75-.54.52-.62-.23-.16-1.47.64-2.73.27-.43.25-.93-.06-1.1-.59-2.1a1.61 1.61 0 0 1 .38-1.98q2.01-1.73 2.68-3.42.16-.4.46.01l.17.23q.28.39.57.17 2.29-1.82 3.35-4.89.33-.97-.63-.61-1.1.42-1.58 2.22-.12.46-.46.12-.94-.93-2.4-.7a.75.75 0 0 1-.86-.82q.32-2.88-.75-5.73-.02-.08-.12-.1l-.55-.11q-.6-.13-.34.3.69 1.17.72 2.52.02.67-.22.94-.25.27-1.25.18-.08 0-.14.04-.12.09-.19.22-.15.28.18.36l1.07.27a.79.76 30 0 1 .38 1.31q-1.48 1.37-.17 2.91.38.45-.19.59c-1.56.36-2.29-.43-3.91-1.45q-1.98-1.25-.9.74.13.24-.58 1.37a.8.8 0 0 0 .02.9q1.02 1.45.86 2.14a.4.4 0 0 1-.61.24q-1.71-1.15-2.9-3.24-.25-.45-.11-.93l.7-2.36a.86.76-66.8 0 0-.31-.94q-.12-.07-1.01.2-.49.16-.69-.32-.44-1.06-1.21-.72a.99.94 86.3 0 1-1.27-1.18l1.28-4.88a.6.6 0 0 1 .2-.31q.7-.56.57-1.23-.1-.52.23-.77l.46-.34q.39-.29.19-.83-.21-.56-.2-.98.01-.53.52-.7 1.13-.39 2.85-2.5.36-.45-.13-.66l-1.79-.79q-.56-.24-.7.35l-.14.6q-.21.91-.79.24l-.64-.74a1.47 1.46-67.8 0 1-.36-.85q-.09-1.18-.58-2.15-.22-.43-.02-.86.53-1.18.41-1.79-.38-2.01-.85.02-.05.21-.17 1.41-.05.51-.55.59-1.07.15-2.05.97-.16.13-.15.29.01.31.03.35.21.38.69.08.32-.19.51-.51.18-.31.41-.08l.87.89q.32.33.07.68-.26.38-1.09.83-1.14.62.78 2.32.48.42-.06.72l-1.77.97a.33.32-19.7 0 1-.48-.22l-.07-.41q-.29-1.57-1.2-.33-.15.21-.67 1.28-.98 2.01-1.04-.2c-.04-1.67-1.1-3.43-1.18-5.01q-.08-1.59-.11-2.49-.01-.35-.34-.17l-.41.22q-.19.09-.15.29.38 1.94-.45 2.61-.45.36-.04.75 1 .97-.04 2.1-1.38 1.49-2.53 1.38-.63-.06-.74.51l-.62 3.26a1.1 1.08-59.8 0 0 .23.89l1.56 1.89q.78.95-.32 1.51l-1.69.85q-1.04.53-1.27-.61-.71-3.5-2.8-2.41-1.75.91-.89-.81.58-1.15 1.09-3.94.09-.51-.37-.74-.89-.45-.9-.82-.03-.85.55-.44l.5.36q.33.23.65-.07.18-.18.04-.39-1.59-2.31-4.01-2.69-.61-.1-.37-.66.25-.63-.69-1.73-1.34-1.54.53-1.39.44.04.95-.22.44-.22.63-.67c1.25-2.99 3.16-1.96 5.61-2.24q.63-.07.2-.57l-1.24-1.43a.59.34 33.4 0 1-.14-.28q-.04-.29.16-.55.33-.45-.26-.72l-.47-.21a.69.61-60 0 0-.79.26q-.18.26-.47.42-.22.11-.29 0-.05-.08-.09-.12a.33.25-41.7 0 1 .09-.44q.71-.55.06-1.26-.35-.38-.27-.89.11-.64.83-1.2.39-.31.3-.79-.22-1.23.1-2.25.15-.49.62-.67 2.04-.76.8-2.86-1.05-1.77-2.97-.85-.5.24-.63-.29-.37-1.55.65-2.9 3.05 2.08 6.28 1.32.49-.12.77-.54l1.9-2.98q.53.7 2.13-.14.5-.26.87.16.5.54.3 1.76-.22 1.34 1.12 1.17.57-.08 1.32.09.57.13.62.77l.14 1.56a.6.56 86.7 0 0 .58.55l1.66-.04q.63-.01.28-.48-2.59-3.53.65-6.37 1.34-1.18-.4-.98-.82.1-1.07-1.44a1.39 1.02 65.9 0 0-1.91-1.09q-.1.12-.07.85.02.32-.3.35-.13.02-.25-.02-.19-.05-.29-.41-.22-.77-.3-1.66c3.28-.89 5.97 1.03 8.51 2.53a1.77 1.77 0 0 0 1.57.11q2.15-.87 4.54-1.98 3.18-1.48 4.6-1.8 3.56-.79 8.71.04 3.42.55 7.53-.56c.35-.1.79-.01 1.08.17m-38.05 11.19q-.06.58.48.34a.29.29 0 0 0 .16-.3q-.02-.24-.33-.28a.28.28 0 0 0-.31.24m3.93 4.03a.32.32 0 0 0 .26.35q.44.08.48-.26a.39.39 0 0 0-.26-.42q-.44-.16-.48.33m-2.01 14.15a.31.31 0 0 0 .49.17q.7-.55.32-1.52-.09-.22-.4-.24-.43-.03-.47.4-.07.66.06 1.19m70.1.71q-.34.43.18.46.22.01.25-.21.03-.17-.07-.27-.19-.19-.36.02m-77.12 1.37q-.05.48.01.67.44 1.36.83-.03.01-.03-.08-.84-.03-.26-.29-.28-.17-.01-.3.07-.15.09-.17.41m93.79.68a.51.51 0 0 0-.51-.51.51.51 0 0 0-.51.51.51.51 0 0 0 .51.51.51.51 0 0 0 .51-.51m-49.04 5.09a.35.35 0 0 0-.35-.35.35.35 0 0 0-.35.35.35.35 0 0 0 .35.35.35.35 0 0 0 .35-.35m33.32-.32q-.58 1.07.04 1.61a.39.39 0 0 0 .64-.2q.18-.79-.03-1.36a.36.36 0 0 0-.65-.05m-49.737 17.63a.76.42 92 0 0 .447-.745.76.42 92 0 0-.393-.775.76.42 92 0 0-.447.745.76.42 92 0 0 .393.775m71.347.69a.27.27 0 0 0-.27-.27.27.27 0 0 0-.27.27.27.27 0 0 0 .27.27.27.27 0 0 0 .27-.27m5.04 7.05q.05-.23-.15-.31-.23-.09-.38.1-.29.34.09.46.36.11.44-.25m-87.58 26.97q.05.57.48.25.26-.19.02-.41-.09-.08-.24-.1a.24.24 0 0 0-.26.26m-7.09.92a.27.27 0 0 0 .15.46q.31.04.57-.27a.28.28 0 0 0-.18-.46q-.24-.04-.54.27"/><path fill="#420b33" d="M216.72 66.61q-.45.54-.12 1.18a.87.87 0 0 1-.08.92l-.67.87q-.38.5-.71-.03-.22-.36-.6-.57-.62-.33-.13-.83.26-.26.61-.38.43-.14.52-.58.07-.42-.25-.96.88-.03 1.43.38M236.6 70.77l-2.26 2.87q-.34.44-.83.18l-.8-.42q-.61-.33-.66.31l-.19 2.51a.51.5 89 0 1-.44.46q-.24.03-.48-.13-.5-.35-.24.39.37 1.08-.21 2.21-.24.47.05.9.29.42.71.64a.57.57 0 0 0 .83-.48l.06-1.46q.02-.49.51-.3.9.34 1.06.24 1.66-.97 1.15 1.01-.5 1.92.21 3.91.22.62.68.15.94-.95 2.65-1.8.27-.13.36.11l.12.29a.3.24 70.7 0 1-.14.38l-1.37.37q-.52.14-.62.66-.09.44.23.79a.7.7 0 0 0 .43.23q.77.1 1.41.47a.25.22-46.5 0 1-.01.39l-.27.2q-.23.16-.45.04-1.71-.98-3.26.07c-1.02.7-1.09 2.3-1.54 3.54q-.74 2.04 1.04 2.7a.92.92 0 0 1 .59.79l.15 1.74q.05.62.51.17.44-.44.43-.89-.01-.53.45-.8.29-.18.69-.1.58.13.27.63-1.32 2.15.34 4.7.39.61-.27.3l-3.37-1.53q-.52-.24-1.01.1-1.06.74-.53 1.74.23.45.08.93-.21.64-.03 1.17.19.56-.38.7-1.05.27-1.42 1.89-.07.29-.37.15l-.33-.15a.42.35 26.5 0 1-.23-.52q1.41-2.46.69-4.49-.21-.6.15-.99l.71-.75q.44-.48-.04-.91c-.47-.43-1.12-1.25-1.27-1.94q-.65-2.84-1.79-4.36-1.2-1.6-1.39.43l-.08.91q-.05.52-.53.3-1.5-.69-3.67-.32-.5.08-.57.58-.32 2.32 1.57 3.68.49.35-.11.41-.34.03-.58-.28-.4-.53-.89-.08-1.07.99-.92 2.16.13.94 1.37 4.66.17.52-.16.87l-.65.69a.28.28 0 0 1-.44-.35q.89-1.33-.92-3.32a.69.69 0 0 0-1.15.2q-.37.86-1.17.24-.41-.32-.86-.07-1.15.63-1.3.59-1.96-.51-.02-1.03 1.22-.32 2.58-1.95.33-.4.13-.87l-.11-.26q-.2-.46.01-.92 1.31-2.79-1.69-4.49-.4-.22-.8-.01-.67.35-1.67.35-.3-.01-.28-.3 0-.08.08-.25.05-.12.18-.14 2.48-.46 2.91-2.75.05-.27.23-.37.14-.07.3.03.25.14.24.43-.02 1.08.69 1.42.49.23.8-.21l1.93-2.76a1.42 1.1-34.3 0 0 .26-.79l-.14-3.53q-.02-.5-.48-.7-2.12-.93-2.14-3.62a.26.24-7.2 0 0-.32-.23l-.36.08q-.1.02-.11.16l-.06 2.06q-.02.71-.59.33-.95-.63-1.78-.09-.68.44-.68-.36-.01-4.38 3.98-5.8a1.6 1.6 0 0 0 .95-2.11l-2.07-5.14q2.76.76 5.41 1.12 2.32.32 4.82 1.29 4.53 1.74 8.5 1.1M178.75 67.72q.08.89.3 1.66.1.36.29.41.12.04.25.02.32-.03.3-.35-.03-.73.07-.85a1.39 1.02 65.9 0 1 1.91 1.09q.25 1.54 1.07 1.44 1.74-.2.4.98-3.24 2.84-.65 6.37.35.47-.28.48l-1.66.04a.6.56 86.7 0 1-.58-.55l-.14-1.56q-.05-.64-.62-.77-.75-.17-1.32-.09-1.34.17-1.12-1.17.2-1.22-.3-1.76-.37-.42-.87-.16-1.6.84-2.13.14c1.28-2.28 2.13-4.76 5.08-5.37M250.98 72.32l-3.07 3.15q-.36.37-.65-.05-1.73-2.44-4.59-2.54a.68.68 0 0 0-.62 1.03q1.02 1.74 1.02 3.2-.01 1.64-1.13.45-2.41-2.59-1.79-6.27l6.93-1.55q.5-.11.89.21zM164.72 75.29q-1.02 1.35-.65 2.9.13.53.63.29 1.92-.92 2.97.85 1.24 2.1-.8 2.86-.47.18-.62.67-.32 1.02-.1 2.25.09.48-.3.79-.72.56-.83 1.2-.08.51.27.89.65.71-.06 1.26a.33.25-41.7 0 0-.09.44q.04.04.09.12.07.11.29 0 .29-.16.47-.42a.69.61-60 0 1 .79-.26l.47.21q.59.27.26.72-.2.26-.16.55a.59.34 33.4 0 0 .14.28l1.24 1.43q.43.5-.2.57c-2.45.28-4.36-.75-5.61 2.24q-.19.45-.63.67-.51.26-.95.22-1.87-.15-.53 1.39.94 1.1.69 1.73-.24.56.37.66 2.42.38 4.01 2.69.14.21-.04.39-.32.3-.65.07l-.5-.36q-.58-.41-.55.44.01.37.9.82.46.23.37.74-.51 2.79-1.09 3.94-.86 1.72.89.81 2.09-1.09 2.8 2.41.23 1.14 1.27.61l1.69-.85q1.1-.56.32-1.51l-1.56-1.89a1.1 1.08-59.8 0 1-.23-.89l.62-3.26q.11-.57.74-.51 1.15.11 2.53-1.38 1.04-1.13.04-2.1-.41-.39.04-.75.83-.67.45-2.61-.04-.2.15-.29l.41-.22q.33-.18.34.17.03.9.11 2.49c.08 1.58 1.14 3.34 1.18 5.01q.06 2.21 1.04.2.52-1.07.67-1.28.91-1.24 1.2.33l.07.41a.33.32-19.7 0 0 .48.22l1.77-.97q.54-.3.06-.72-1.92-1.7-.78-2.32.83-.45 1.09-.83.25-.35-.07-.68l-.87-.89q-.23-.23-.41.08-.19.32-.51.51-.48.3-.69-.08-.02-.04-.03-.35-.01-.16.15-.29.98-.82 2.05-.97.5-.08.55-.59.12-1.2.17-1.41.47-2.03.85-.02.12.61-.41 1.79-.2.43.02.86.49.97.58 2.15a1.47 1.46-67.8 0 0 .36.85l.64.74q.58.67.79-.24l.14-.6q.14-.59.7-.35l1.79.79q.49.21.13.66-1.72 2.11-2.85 2.5-.51.17-.52.7-.01.42.2.98.2.54-.19.83l-.46.34q-.33.25-.23.77.13.67-.57 1.23a.6.6 0 0 0-.2.31l-1.28 4.88a.99.94 86.3 0 0 1.27 1.18q.77-.34 1.21.72.2.48.69.32.89-.27 1.01-.2a.86.76-66.8 0 1 .31.94l-.7 2.36q-.14.48.11.93 1.19 2.09 2.9 3.24a.4.4 0 0 0 .61-.24q.16-.69-.86-2.14a.8.8 0 0 1-.02-.9q.71-1.13.58-1.37-1.08-1.99.9-.74c1.62 1.02 2.35 1.81 3.91 1.45q.57-.14.19-.59-1.31-1.54.17-2.91a.79.76 30 0 0-.38-1.31l-1.07-.27q-.33-.08-.18-.36.07-.13.19-.22.06-.04.14-.04 1 .09 1.25-.18.24-.27.22-.94-.03-1.35-.72-2.52-.26-.43.34-.3l.55.11q.1.02.12.1 1.07 2.85.75 5.73a.75.75 0 0 0 .86.82q1.46-.23 2.4.7.34.34.46-.12.48-1.8 1.58-2.22.96-.36.63.61-1.06 3.07-3.35 4.89-.29.22-.57-.17l-.17-.23q-.3-.41-.46-.01-.67 1.69-2.68 3.42a1.61 1.61 0 0 0-.38 1.98q.53 1 .59 2.1.02.5-.25.93-.8 1.26-.64 2.73.08.75.62.23.93-.9 1.73-1.75.03-.03.05 0l.15.24q.16.23-.06.4-1.13.89-.41 2.8.17.46.66.47l2.95.11q.12 0 .12.12l.01.27q.01.21-.14.25-2.93.71-2.89 3.66 0 .52-.49.36-.06-.01-.27-.12-.2-.09-.16-.31.49-2.75-1.01-4.03-.48-.41-.64.2-.35 1.37-.42 1.4-.65.23-.9.16-.63-.19-.85-.52-.3-.43.01-1.04.15-.31.27-.46.35-.42.1-.91-.42-.85-.53-2.48-.03-.48-.5-.57l-.4-.08a.76.71 18 0 0-.81.38c-.53 1.08-.77 1.96-1.57 2.28a.43.41-13.4 0 1-.59-.34l-.11-1.53q-.05-.86-.67-.32-.96.83-2.94.63a.3.17-82.7 0 0-.2.27l-.05.3q0 .03.1.06.98.27 2.29.19.35-.03.39.33.03.18-.01.29-.06.16-.22.2-.4.1-1.73.19-1.86.12-2.26-1.08-.22-.68-.68-.13-1.12 1.33-1.89 1.16a.57.57 0 0 0-.5.13q-.95.85.14 2.38.01.02.03.36 0 .22-.12.39a.34.33-54.6 0 0 .08.46q1.76 1.27 1.01 3.59-.72 2.26 0 3.76.54 1.12-.58.6-1.45-.66-2.5-.34-.58.18-.41.76.36 1.27.18 3.46-.04.51-.36.67l-.36.18q-.17.08-.13.28l.59 3.02a.34.34 0 0 0 .64.08l.43-1.01q.24-.54.72-.54 2.31-.02 2.11-2.65a.4.4 0 0 1 .42-.43l.27.02q.08.01.11.19l.49 2.95q.08.46-.16.87l-.79 1.34a.98.89-41.9 0 0-.09.81q.72 1.9.66 4.93-.02.86.73.44 1.12-.62 2.53-.65.74-.01.75-.63l.1-2.88q0-.19.14-.22l.26-.05q.37-.06.36.22-.06 4.42 4.27 3.78.54-.08.74.43.15.39.02.93a.4.4 0 0 1-.72.12q-.92-1.44-2.63-.57-.4.21-.41.65-.03 1.33-1.43 1.95l-13.94-3.44q.4-1.08-.03-1.71a.91.91 0 0 0-.83-.4q-.86.08-1.5-.39-.45-.33-.2-.83 1.22-2.39-.16-4.08-.38-.46-.38-.88l.01-.89q.01-.48-.28-.87-1.39-1.9-1.65-3.59a.74.74 0 0 0-.7-.63q-.73-.04-1.05.42-.1.15-.11.53-.01.52-.31.67a.26.26 0 0 1-.37-.27q.18-1.01.01-1.47a.7.7 0 0 0-.89-.42q-2.19.78-2.19 4.99a1.24.8-81.6 0 1-1.16 1.32q-.04-.02-.52-.04-.55-.03-.33.47l.48 1.12q.17.41-.26.59l-.3.14a.41.4-28.2 0 1-.5-.15q-.48-.72-1.14-1.94-.23-.44-.53-.6a.36.36 0 0 0-.54.32q.03 2-3.02 4.02l-4.97.01q.59-2.63.24-5.14-.08-.57.35-.71l.41-.14q.59-.18.17-.63-.78-.83-1.3-.6-1.36.59-.82-.82c.38-.99.61-1.66-.06-2.66q-1.11-1.64-1.47-3.45a.41.41 0 0 0-.64-.25q-2.42 1.72-1.22 3.53a1.15.69-54.5 0 1-.08 1q-.12.24-.78.64-.42.26-.89.12-1.43-.41-2.8.18-.5.21-1 .01l-.67-.26q-.53-.21-.97.13-1.54 1.22-2.09 3.37-.12.46.25.77 2.5 2.11 2.65 4.93l-8.1-.67q.44-1.03.37-1.92-.04-.54-.51-.77l-3.17-1.57a.39.38-47 0 1-.02-.68l2.21-1.32a1.1 1.02 51.2 0 0 .13-1.68q-1.57-1.52-.39-2.78.38-.4.22-.95l-.59-2.06q-.15-.53-.09-.99l.29-2.42q.08-.68-.56-.8-1.16-.21-2.66.56-.52.26-.57-.31-.3-2.95-.33-3.15-.64-3.67-2.18-.47-.03.05-.8 1.21a1.1 1.1 0 0 0-.14.91q.72 2.55-.2 4.12-1.4 2.4-3.06 1.49-1.9-1.05-1.22 1.19.04.12.33.59.31.5-.25.68-1.86.61-2.41-1.12-.16-.51-.64-.72l-1.45-.63q-.7-.3-.29.36.56.91.5 1.32-.08.51-.54.72c-1.33.6-2.41 1.62-2.45 3.24q-.02 1.14-.66 2.21-.31.52.29.56 2.75.17 3.59 2.81l-16.29-5.62 2.93-3.34a.99.96 29 0 0-.47-1.56l-.65-.2q-.54-.17-.63-.68-.22-1.24-1.43-1.28a.44.44 0 0 0-.26.07q-.66.46.06.99.41.3.14.72-.44.72-.93.99-.63.36-.66-.37-.02-.87-.56-1.55-.37-.48.13-.83 2.03-1.4 1.26-5.35-.08-.45-.53-.36-2.68.54-3.73.26-.61-.16-.61.43l-.06 4.5q0 .25-.25.37-.17.08-.34.02-.27-.09-.32-.36-.15-.91-.36-1.05-.38-.27-.81.07-.2.17-.45.21-.57.11-.44-.69.05-.35.4-.92.26-.43.21-.91l-.73-6.7a.66.66 0 0 0-.7-.58q-.65.04-1.52.59-.49.31-.55-.3l-.16-1.7q-.08-.87-.62-.22-1.72 2.08-.66 4.28.22.46-.08.97l-1.38 2.34a.69.46-46 0 0-.09.49l.28.88q.18.6-.45.7l-1.09.18q-.59.09-.33.67.64 1.42.49 3.75a.28.26 7.4 0 0 .23.27l.27.06q.27.05.3-.2.12-.93.47-1.41a.86.86 0 0 1 .78-.34q.97.1 1.08 1.57.04.59.5.23.81-.63.89-.62.75.1.05.74l-1.18 1.06q-.39.35 0 .76.68.7.67 1.56c-4.14-.29-9.79-2.41-9.3-7.3q.78-7.95 5.5-14.68 4.92-7 8.17-11.28c1.37-1.79 2.97-2.65 5.31-3.12q18.6-3.73 38.6-10.73 9.78-3.41 14.94-11.61c1.85-2.94 2.37-5.9 2.9-9.52q.31-2.1 2.23-2.93 1.21-.54 3.2.04 4.63 1.32 9.09 3.2M254 74.73l1.46 1.14q-.42.21-.79.25-.45.05-.69-.29-.31-.46.02-1.1M256.2 76.45l5.77 4.81a2.25 2.25 0 0 0 1.79.49q1.21-.19 5.97-.78 3.11-.39 6.03.18c4 .79 8.68 1.43 11.11 3.53q.8.68 1.11 2.56.63 3.84-.61 7.98a.55.54 12.6 0 0 .44.68l.96.15q.63.09.74.71.64 3.7 2.25 5.86 1.2 1.62 1.2 3.64 0 .93 1.01 8.18.56 4.03.07 8.15-.67 5.62-2.58 10.94-.75-.24-1.05-.73-.26-.42-.03-1.15.9-2.72.05-5.95a1.14 1.14 0 0 0-.5-.68q-.78-.49-1-1.46-.07-.33-.41-.35-.17-.01-.33.13-.13.1-.13.26l-.03 1.88q-.01.45-.46.52-1.42.2-2.05-.12a1.16 1.15-83.3 0 1-.6-.75q-.13-.55-.35-.77-.38-.4-.88-.17-.76.34-1.11.86-.36.54.13 1.01l.99.95q.36.34.08.72-.89 1.16-1.86 1.51-.51.18-.23.65.58.95.25 2.41-.13.6-.67.3-1.32-.76-2.64.05-.22.14-.36-.09l-.16-.28q-.06-.1.04-.16 2.57-1.43 1.43-3.67-.58-1.14-1.82-1.51-1.58-.48-.24-1.45.83-.6 1.17-1.48 1.7-4.35 2-6.61.09-.64-.08-1.13-.19-.52-.73-.54-.68-.02-.28-.57.58-.82.19-1.74-.22-.51-.77-.41-.83.14-1.05 1.12-.11.51-.6.49l-1.72-.08q-.61-.03-.7-.65l-.16-1.18q-.11-.73-.83-.65l-1.17.13q-.9.11-.57.86l.69 1.57a1.93 1.55 65.3 0 1-.59 2.35q-1.22.6-1.42 2.67-.02.28-.31.23l-.22-.04q-.25-.04-.26-.23-.11-2.19-.72-3.3-1.66-3.02-3.71-1.78-.91.55-.29-.32.52-.74 1.89-1.74 1.15-.84 1.53-1.78 1.05-2.59.9-3.94-.06-.54.42-.8 1.11-.61.54-1.73-.23-.46 0-.93.07-.13.38-.38.4-.32.27-.75l-.6-2.03q-.18-.59-.02-1.07.41-1.22.28-2.53a.37.37 0 0 0-.59-.26q-.64.49-1.68.14-.54-.18-.62.4l-.16 1.04q-.21 1.46-1.2.44l-.94-.98q-.43-.45-.97-.34-.91.19-.9 1.45a.31.31 0 0 1-.35.31q-.14-.02-.28-.09-.05-.02-.1-.23-.35-1.46.37-2.58a.65.43-53.1 0 0 .03-.68l-.47-.5q-.72-.75-.92.11l-.23.97q-.06.24-.28.14-2.05-.94-2.99-.82-.63.08-.3.62.51.86.17 1.5-.43.81.15.74.24-.03.49.1.45.24.62.72.43 1.16 1.83 1.32a.38.38 0 0 1 .27.6q-1.46 2.1-3.32.78-.65-.45-.57.33.17 1.73-.48 2.46-.45.5.06.94 1.19 1.03 1.32 2.05.08.67-.61.4l-1.27-.51q-.69-.27-.78.37l-.28 1.96q-.05.4-.46.43-.17.01-.3-.1-.11-.09-.15-.28-.31-1.45.23-2.88.78-2.09.73-2.7-.2-2.28-2.55-3.01-.5-.15-.58-.67l-.08-.47a.51.31 76.2 0 0-.47-.48q-.04.02-.18.2-.06.08-.11.26-.85 2.95-2.98 2.36-2.07-.57.01-1.03.44-.1.94-1.25.46-1.07 1.2-2.27.26-.43.72-.63 1.03-.47 1.45-.9.36-.37.11-.81-1.51-2.69-1.57-4.41a.53.53 0 0 1 .67-.53q.24.06.53.27a.68.68 0 0 0 .86-.07q.91-.86.9-2.81 0-.61-.57-.39-.4.15-.73.52-.19.2-.27-.07l-.08-.29q-.02-.07.03-.1l2.05-1.48a1.17.99 81.1 0 0 .42-.68q.39-2.01-1.05-2.31-.56-.12-.22-.59l1.76-2.37q.3-.41.12-.88-.49-1.24-.18-2.55M177.24 77.42a.28.28 0 0 1 .31-.24q.31.04.33.28a.29.29 0 0 1-.16.3q-.54.24-.48-.34M181.17 81.45q.04-.49.48-.33a.39.39 0 0 1 .26.42q-.04.34-.48.26a.32.32 0 0 1-.26-.35"/><path fill="#420b33" d="M179.16 95.6q-.13-.53-.06-1.19.04-.43.47-.4.31.02.4.24.38.97-.32 1.52a.31.31 0 0 1-.49-.17M249.26 96.31q.17-.21.36-.02.1.1.07.27-.03.22-.25.21-.52-.03-.18-.46M172.31 97.27q.13-.08.3-.07.26.02.29.28.09.81.08.84-.39 1.39-.83.03-.06-.19-.01-.67.02-.32.17-.41"/><circle cx="265.42" cy="98.36" r=".51" fill="#420b33"/><circle cx="216.54" cy="103.45" r=".35" fill="#420b33"/><path fill="#420b33" d="M250.21 103.13a.36.36 0 0 1 .65.05q.21.57.03 1.36a.39.39 0 0 1-.64.2q-.62-.54-.04-1.61"/><ellipse fill="#420b33" rx=".76" ry=".42" transform="rotate(92 42.309 156.81)"/><circle cx="271.55" cy="121.45" r=".27" fill="#420b33"/><path d="m95.97 145.01-11.89-1.79q.01-.86-.67-1.56-.39-.41 0-.76l1.18-1.06q.7-.64-.05-.74-.08-.01-.89.62-.46.36-.5-.23-.11-1.47-1.08-1.57a.86.86 0 0 0-.78.34q-.35.48-.47 1.41-.03.25-.3.2l-.27-.06a.28.26 7.4 0 1-.23-.27q.15-2.33-.49-3.75-.26-.58.33-.67l1.09-.18q.63-.1.45-.7l-.28-.88a.69.46-46 0 1 .09-.49l1.38-2.34q.3-.51.08-.97-1.06-2.2.66-4.28.54-.65.62.22l.16 1.7q.06.61.55.3.87-.55 1.52-.59a.66.66 0 0 1 .7.58l.73 6.7q.05.48-.21.91-.35.57-.4.92-.13.8.44.69.25-.04.45-.21.43-.34.81-.07.21.14.36 1.05.05.27.32.36.17.06.34-.02.25-.12.25-.37l.06-4.5q0-.59.61-.43 1.05.28 3.73-.26.45-.09.53.36.77 3.95-1.26 5.35-.5.35-.13.83.54.68.56 1.55.03.73.66.37.49-.27.93-.99.27-.42-.14-.72-.72-.53-.06-.99a.44.44 0 0 1 .26-.07q1.21.04 1.43 1.28.09.51.63.68l.65.2a.99.96 29 0 1 .47 1.56z"/><path fill="#420b33" d="M276.86 128.5q-.08.36-.44.25-.38-.12-.09-.46.15-.19.38-.1.2.08.15.31"/><path d="M129.51 153q-7.68.07-14.92-1.8-.4-1.6-.89-2.56-.67-1.33-.58.15.04.76-.69 1.74-.09.05-.17.1-.84-2.64-3.59-2.81-.6-.04-.29-.56.64-1.07.66-2.21c.04-1.62 1.12-2.64 2.45-3.24q.46-.21.54-.72.06-.41-.5-1.32-.41-.66.29-.36l1.45.63q.48.21.64.72.55 1.73 2.41 1.12.56-.18.25-.68-.29-.47-.33-.59-.68-2.24 1.22-1.19 1.66.91 3.06-1.49.92-1.57.2-4.12a1.1 1.1 0 0 1 .14-.91q.77-1.16.8-1.21 1.54-3.2 2.18.47.03.2.33 3.15.05.57.57.31 1.5-.77 2.66-.56.64.12.56.8l-.29 2.42q-.06.46.09.99l.59 2.06q.16.55-.22.95-1.18 1.26.39 2.78a1.1 1.02 51.2 0 1-.13 1.68l-2.21 1.32a.39.38-47 0 0 .02.68l3.17 1.57q.47.23.51.77.07.89-.37 1.92M148.33 153.65l-10.72.02q-.15-2.82-2.65-4.93-.37-.31-.25-.77.55-2.15 2.09-3.37.44-.34.97-.13l.67.26q.5.2 1-.01 1.37-.59 2.8-.18.47.14.89-.12.66-.4.78-.64a1.15.69-54.5 0 0 .08-1q-1.2-1.81 1.22-3.53a.41.41 0 0 1 .64.25q.36 1.81 1.47 3.45c.67 1 .44 1.67.06 2.66q-.54 1.41.82.82.52-.23 1.3.6.42.45-.17.63l-.41.14q-.43.14-.35.71.35 2.51-.24 5.14M171.75 158.21q-2.72-.93-5.4-2.04-2.95-1.21-5.51-1.59-3.5-.52-7.54-.94 3.05-2.02 3.02-4.02a.36.36 0 0 1 .54-.32q.3.16.53.6.66 1.22 1.14 1.94a.41.4-28.2 0 0 .5.15l.3-.14q.43-.18.26-.59l-.48-1.12q-.22-.5.33-.47.48.02.52.04a1.24.8-81.6 0 0 1.16-1.32q0-4.21 2.19-4.99a.7.7 0 0 1 .89.42q.17.46-.01 1.47a.26.26 0 0 0 .37.27q.3-.15.31-.67.01-.38.11-.53.32-.46 1.05-.42a.74.74 0 0 1 .7.63q.26 1.69 1.65 3.59.29.39.28.87l-.01.89q0 .42.38.88 1.38 1.69.16 4.08-.25.5.2.83.64.47 1.5.39a.91.91 0 0 1 .83.4q.43.63.03 1.71"/><path fill="#420b33" d="m114.59 151.2-2.16-.67q.73-.98.69-1.74-.09-1.48.58-.15.49.96.89 2.56M189.28 155.47a.24.24 0 0 1 .26-.26q.15.02.24.1.24.22-.02.41-.43.32-.48-.25M182.19 156.39q.3-.31.54-.27a.28.28 0 0 1 .18.46q-.26.31-.57.27a.27.27 0 0 1-.15-.46"/></svg>