<svg xmlns="http://www.w3.org/2000/svg" viewBox="0 0 382 382"><g fill="none" stroke="#38101e" stroke-width="2"><path d="M219.05 67.65q.49 2.64 2.41 3.65.44.23.23.68-.95 2.09-2.84 3.13a2.61 2.57-24.6 0 0-1.2 3.16q.15.41.49 2.19.12.61.64.28.62-.37.88-1.04.14-.33-.08-.62-.18-.25-.29-.56a.24.24 0 0 1 .37-.27q.88.62 1.33 1.83.74 1.95 2.23 1.34.51-.21.76.28.93 1.82.5 3.81-.11.5-.47.87-1.45 1.49-.38 3.02.31.43.1.98l-.72 1.88q-.3.81.5.44l1.33-.61q.61-.27.83.3l.49 1.23q.11.29.37.1l.25-.19q.24-.18.15-.35-.7-1.46-.38-2.24.22-.53-.07-1.01-.47-.76-.35-1.24a.67.67 0 0 1 .67-.51q1.95.07 2.28-1.42.12-.57.67-.37 3.34 1.19 4.66 4.45a.24.22-52.6 0 0 .44-.07l.54-3.18a1.27.66 45.6 0 0-.25-.81c-1.64-2.47-1.8-4.9 1.5-6.16a.17.16 47.5 0 0 0-.29l-2.08-1.12a.67.63-64 0 1-.26-.84l.25-.56q.24-.54-.3-.57-2.22-.13-2.81-2.57-.2-.82.44-.31l.38.3q.58.47.61-.28l.13-2.97M240.97 71.42l.17 1.81q.05.52.54.7.27.1.57.02.48-.13.26-.58-.35-.68-.35-.72-.12-.69.41-.66 1.14.06 1.51-.68a.41.41 0 0 1 .68-.09q.22.26.22.5-.01.68.66.57l4.44-.7M257.76 77.67l-.94 1.65q-.3.52-.68.25l-.31-.21a.81.67-89 0 0-.93 1.09l1.72 4.09a.47.39-3.5 0 1-.55.51q-1.05-.17-1.71.22a.7.7 0 0 0-.27.92l1.49 2.97q.26.5-.27.66-.54.16-1.41.82t-.83 1.55q.02.55.57.68.9.21 1.23.77.25.43.04.96l-1.53 3.73q-1.06 2.6 1.3 1.32.78-.43 2.39-.5.56-.02.69.54l.38 1.68q.17.72.58.1 1.28-1.93 1.7-3.63.14-.56-.19-1.01l-.74-.99a.58.54-36.5 0 1 .14-.78l3.78-2.78a.41.36 74.1 0 1 .57.37q0 .9.1 3.48.01.23.08.34.1.15.27.2.51.16.56-.37.05-.69.13-.82.38-.6.68.22l.21.59q.18.5.71.65.8.23 1.64-.01.52-.15.56-.67l.1-1.45q.06-.9.84-.52.23.11.41.33.7.86.67 1.44-.13 2.13 1.28 3.8.34.4.23.92-.46 2.22-.86 3.18-.9 2.13-1.4 3.38-.63 1.59-.51 2.97.06.75-.63 3.11-.66 2.23 1.27 1.03.22-.14 1.1-1.03.2-.2.46-.09.36.14.21.49-.44 1.07-.07 1.68a.36.36 0 0 0 .65-.07q.89-2.48.83-3.71-.02-.3.19-.41l1.92-1.02a.16.16 0 0 1 .24.13l.08 1.92q.03.62.58.36l3.49-1.65q1.6-.76 1.67 1 .24 6.16-.37 10.99-.06.47-.85 2.35-.17.41.24.25.19-.07.3-.27a1.74 1.1 40.9 0 1 2.28.35l1 1.02a.24.24 0 0 0 .39-.27q-.43-.99.09-1.6a.82.6-37.9 0 0 .19-.68l-.4-1.35a1.47 1.32-5.2 0 1 1.56-1.68q1.41.09 2.23.43a.92.92 0 0 0 1.18-1.24q-.54-1.17.59-2.01a.5.5 0 0 1 .79.28q.27 1.09 1.07 1.4a.7.7 0 0 1 .46.68q-.07 1.85 1.38 3.4M160.46 153.97q-.83-.87.03-3.15.18-.49-.3-.69-1.22-.53-1.9-1.72a.91.87-43.2 0 1 .06-.95l2.07-3.03q.36-.52.93-.23l.72.36q.32.16.64-.28l1.87-2.56q.33-.45.13-1.02l-.3-.87q-.16-.45-.06-.88l.82-3.48a.53.49 33.7 0 1 .91-.15q.99 1.24 1 2.93 0 .18.07.35.08.16.19.21.19.09.3-.11l1.18-2.26a.51.48-36.8 0 1 .94.1l.37 2.51q.08.5.55.39l.38-.09q.56-.14.65.45.23 1.64 1.6 2.55.34.21.46.64l.59 2.01a1.01.97 64.3 0 0 1.52.57q.49-.36 1.17-.46.59-.09.69.5l.66 3.81q.07.39-.16.79-.35.63-.26 1.28.09.63.64.3 2.77-1.65 1.89-4.03-.21-.58-.11-1.06l.83-3.9a.92.9-8.8 0 1 .46-.61c.49-.27 3.11-1.52 3.13-1.57q.04-.11-.01-.27a.42.42 0 0 0-.39-.27q-3.53.01-3.56-3.31-.02-1.41-.96-.36-.74.82-.89 1.51-.42 1.95-1.04.11l-.37-1.08a1.82 1.46 48.6 0 1-.05-.99q.38-1.38-.42-2.69a.68.68 0 0 1 .55-1.03q1.46-.07 1.94-.41.41-.28.29-.76l-1.67-6.59a1.08 1.05 54 0 1 .12-.81q.57-.96.64-1.2.36-1.26.86-1.67 2.89-2.4 5.61-1.25.6.25.58-.37l-.04-1.94q-.04-1.74 1.07-.56.28.29.9.36a.79.79 0 0 0 .79-.44l.88-1.77q.27-.54-.33-.72-2.85-.9-2.37-4.16a.75.69 55.7 0 0 .01-.11q0-.41-.23-.56-.36-.25-.51.21l-.29.87q-.21.66-.79.28l-.32-.22q-.59-.39-.78.32-.13.49.64 1.48.26.34-.04.64-.23.23-.3.22a2.39 2.07-8 0 1-1.79-1.16q-.98-1.93-1.98-2.54a3.96 3.87 27.9 0 1-1.57-4.92q.99-2.22.96-5.81-.01-.81-.72-.42l-1.75.97q-.47.26-.1.68l.19.23q.41.48-.18.58-1.6.27-2.58.84-.43.25-.64-.19l-1.3-2.71q-.6-1.25-.75.13-.18 1.71-2.17 4.06a1.96 1.34-54.3 0 0-.07 2.64q.57.28 1 1.31.28.68-.43 1.05l-1.54.8q-.56.28-.73-.33l-.37-1.41q-.13-.49-.54-.69-3.09-1.46-1.76-4.48.23-.53.14-.88-.13-.48-.64-.83-.42-.29-.33-.79.19-1.04-1.27-2.69-.16-.18-.39-.12l-.27.07q-.29.06-.45-.18l-1.34-2.05a.7.69 67.3 0 1 .43-1.06q1.18-.25 1.62-1.18.21-.44.7-.43 3.05.12 3.97-2.81.15-.48-.23-.81-.77-.7-1.79-1.08-.46-.17-.59-.65-.72-2.57 1.15-3.39.45-.2.19-.63-.49-.8-.26-1.45.51-1.46 1.91-3.93M174.59 71.72q1.91-.69 3.06-.6.78.06.21.55l-.52.44q-.43.37.01.77l.99.92q.53.48.56-.24l.03-.87q.03-.58.56-.73.45-.13.98 0 .46.11.5.63l.08.9q.07.77.68.26l.84-.7q.39-.32.02-.81-1.63-2.2.49-4.22M164.48 75.28q.71 2.01 1.75.92M154.08 153.66q-2.04-4.36-1.57-10.01.04-.52-.29-.91-1.01-1.2-.42-2.71a.66.66 0 0 0-.77-.88l-1.05.25q-.56.14-.74-.34l-1.52-3.98a.31.3-53.7 0 0-.6.1q-.14 1.91-2.1 2.22a.31.31 0 0 0-.17.53q.49.48 1 1.85a.88.88 0 0 1-.77 1.19q-3.26.19-2.69 2.26.17.63-.28.2l-.89-.85a.73.72-39.7 0 0-.91-.08l-2.89 1.91q-.4.27-.39.75l.03 1.82q.01.68.68.83l1.31.3a.52.51 16.3 0 1 .37.68l-.94 2.6q-.19.54.41.69l.34.08q.57.14.25.64-.14.21-.49.25-.99.09-1.92-.38-.47-.24-.93.03l-1.17.68M132.25 153.12q.57-1.65.5-3.82a1.04 1.04 0 0 0-1.71-.75q-.04.04-.53.08-.66.05-.43-.57.36-.96 1.27-2.01a1.67 1.67 0 0 0 .01-2.2q-1.52-1.74.18-4.08.19-.25-.1-.38-1.94-.83-1.82-1.89.24-2.03.33-3.55.04-.61-.45-.58l-2.77.22q-.57.05-.63-.59-.18-2.07-1.3-4.63a.23.23 0 0 0-.4-.03l-2 3.04q-.27.4-.09.88c.53 1.48 1.18 2.64.08 3.91q-.51.6-1.98.86-2.4.42-2.46 3.04-.04 1.51-1.04.37-.64-.74-.96-1.51-.31-.77-.8-.9-.52-.15-1.2-.09-.54.05-.5.58.13 2.02-.74 2.75-2.27 1.92-2.18 4.53a2.72 1.86-79.9 0 0 .89 1.96q.1.07.28.02.15-.05.18-.21l.18-1.06a.4.39 24.4 0 1 .64-.24q.64.51 1.83.87a.81.81 0 0 1 .34 1.35q-.91.92-1.19 2.52M102.56 147.1q.42-1.29-2.32-.84M99.77 146.14q.15 0 .24-.15.14-.25-.08-.43-.5-.43-.78-.94t.04-1.02l1.16-1.83q.23-.35.01-.7l-1.72-2.68q-.3-.46-.82-.32-.63.17-1.1.58a.44.44 0 0 1-.69-.16q-.18-.45-.01-1.01.68-2.24.85-2.84a1.54 1.54 0 0 0-.02-.95q-.43-1.23-.08-1.99.25-.55-.33-.73-.86-.27-2.11 1.22-.72.85-1.62.21-.32-.22-.86-.3-.92-.13-.42.65 1.07 1.65.66 1.91a1.97 1.92 63 0 1-2.85-.96q-1-2.54-1.32-5.62-.06-.51-.18-.62-.31-.3-.85-.06a.56.56 0 0 1-.7-.23q-.8-1.29-.99-1.86-.91-2.63-1.16 0-.03.37-.63 2.01-.17.48-.1.99.26 1.85-.69 3.65-.25.46-.19.99l.06.35q.13.58-.44.68l-1.47.26q-.63.11-.48.69.86 3.19 1.92 4.7.22.32.51.06.87-.77 1.7-.73.61.02.37.58l-1.48 3.59" vector-effect="non-scaling-stroke"/><path d="M177.16 97.63a.29.29 0 0 0 .15.32q.28.15.63-.17.2-.17.09-.41-.17-.36-.56-.22-.21.08-.31.48M173.51 145.14a.32.32 0 0 0-.19.49q.14.2.39.05.17-.11.2-.27.09-.38-.4-.27M232.24 78.32a.34.34 0 0 0 .08.29q.43.49.6-.16a.33.33 0 0 0-.17-.37q-.42-.23-.51.24M100.3 139.29q-.31.2-.28.55a.28.28 0 0 0 .46.18q.39-.35.27-.61-.16-.32-.45-.12M82.15 138.65q.08.26.24.22.71-.2.18-.63-.22-.17-.42.14-.05.08 0 .27" vector-effect="non-scaling-stroke"/></g><path d="M219.05 67.65q.49 2.64 2.41 3.65.44.23.23.68-.95 2.09-2.84 3.13a2.61 2.57-24.6 0 0-1.2 3.16q.15.41.49 2.19.12.61.64.28.62-.37.88-1.04.14-.33-.08-.62-.18-.25-.29-.56a.24.24 0 0 1 .37-.27q.88.62 1.33 1.83.74 1.95 2.23 1.34.51-.21.76.28.93 1.82.5 3.81-.11.5-.47.87-1.45 1.49-.38 3.02.31.43.1.98l-.72 1.88q-.3.81.5.44l1.33-.61q.61-.27.83.3l.49 1.23q.11.29.37.1l.25-.19q.24-.18.15-.35-.7-1.46-.38-2.24.22-.53-.07-1.01-.47-.76-.35-1.24a.67.67 0 0 1 .67-.51q1.95.07 2.28-1.42.12-.57.67-.37 3.34 1.19 4.66 4.45a.24.22-52.6 0 0 .44-.07l.54-3.18a1.27.66 45.6 0 0-.25-.81c-1.64-2.47-1.8-4.9 1.5-6.16a.17.16 47.5 0 0 0-.29l-2.08-1.12a.67.63-64 0 1-.26-.84l.25-.56q.24-.54-.3-.57-2.22-.13-2.81-2.57-.2-.82.44-.31l.38.3q.58.47.61-.28l.13-2.97q4.43-1.7 7.97.01l.17 1.81q.05.52.54.7.27.1.57.02.48-.13.26-.58-.35-.68-.35-.72-.12-.69.41-.66 1.14.06 1.51-.68a.41.41 0 0 1 .68-.09q.22.26.22.5-.01.68.66.57l4.44-.7 7.68 6.08-.94 1.65q-.3.52-.68.25l-.31-.21a.81.67-89 0 0-.93 1.09l1.72 4.09a.47.39-3.5 0 1-.55.51q-1.05-.17-1.71.22a.7.7 0 0 0-.27.92l1.49 2.97q.26.5-.27.66-.54.16-1.41.82t-.83 1.55q.02.55.57.68.9.21 1.23.77.25.43.04.96l-1.53 3.73q-1.06 2.6 1.3 1.32.78-.43 2.39-.5.56-.02.69.54l.38 1.68q.17.72.58.1 1.28-1.93 1.7-3.63.14-.56-.19-1.01l-.74-.99a.58.54-36.5 0 1 .14-.78l3.78-2.78a.41.36 74.1 0 1 .57.37q0 .9.1 3.48.01.23.08.34.1.15.27.2.51.16.56-.37.05-.69.13-.82.38-.6.68.22l.21.59q.18.5.71.65.8.23 1.64-.01.52-.15.56-.67l.1-1.45q.06-.9.84-.52.23.11.41.33.7.86.67 1.44-.13 2.13 1.28 3.8.34.4.23.92-.46 2.22-.86 3.18-.9 2.13-1.4 3.38-.63 1.59-.51 2.97.06.75-.63 3.11-.66 2.23 1.27 1.03.22-.14 1.1-1.03.2-.2.46-.09.36.14.21.49-.44 1.07-.07 1.68a.36.36 0 0 0 .65-.07q.89-2.48.83-3.71-.02-.3.19-.41l1.92-1.02a.16.16 0 0 1 .24.13l.08 1.92q.03.62.58.36l3.49-1.65q1.6-.76 1.67 1 .24 6.16-.37 10.99-.06.47-.85 2.35-.17.41.24.25.19-.07.3-.27a1.74 1.1 40.9 0 1 2.28.35l1 1.02a.24.24 0 0 0 .39-.27q-.43-.99.09-1.6a.82.6-37.9 0 0 .19-.68l-.4-1.35a1.47 1.32-5.2 0 1 1.56-1.68q1.41.09 2.23.43a.92.92 0 0 0 1.18-1.24q-.54-1.17.59-2.01a.5.5 0 0 1 .79.28q.27 1.09 1.07 1.4a.7.7 0 0 1 .46.68q-.07 1.85 1.38 3.4-1.01 6.83-2.64 10.53-4.96 11.28-6.93 23.04-.48 2.92-1.39 4.06c-2.3 2.92-7.53 2.69-10.47 1.4q-3.91-1.72-4.89-2.09c-2.42-.93-4.53.18-7.07 1.67q-6.43 3.78-11.11 3.37-8.33-.73-19.46-5.32-1.5-.62-6.99-1.25-3.48-.4-7.08.19-3.72.6-14.68 2.18-2.51.36-5.27.37c-2.32.02-4.75.09-7.07-.23q-14.57-1.96-28.29-8.05-.83-.87.03-3.15.18-.49-.3-.69-1.22-.53-1.9-1.72a.91.87-43.2 0 1 .06-.95l2.07-3.03q.36-.52.93-.23l.72.36q.32.16.64-.28l1.87-2.56q.33-.45.13-1.02l-.3-.87q-.16-.45-.06-.88l.82-3.48a.53.49 33.7 0 1 .91-.15q.99 1.24 1 2.93 0 .18.07.35.08.16.19.21.19.09.3-.11l1.18-2.26a.51.48-36.8 0 1 .94.1l.37 2.51q.08.5.55.39l.38-.09q.56-.14.65.45.23 1.64 1.6 2.55.34.21.46.64l.59 2.01a1.01.97 64.3 0 0 1.52.57q.49-.36 1.17-.46.59-.09.69.5l.66 3.81q.07.39-.16.79-.35.63-.26 1.28.09.63.64.3 2.77-1.65 1.89-4.03-.21-.58-.11-1.06l.83-3.9a.92.9-8.8 0 1 .46-.61c.49-.27 3.11-1.52 3.13-1.57q.04-.11-.01-.27a.42.42 0 0 0-.39-.27q-3.53.01-3.56-3.31-.02-1.41-.96-.36-.74.82-.89 1.51-.42 1.95-1.04.11l-.37-1.08a1.82 1.46 48.6 0 1-.05-.99q.38-1.38-.42-2.69a.68.68 0 0 1 .55-1.03q1.46-.07 1.94-.41.41-.28.29-.76l-1.67-6.59a1.08 1.05 54 0 1 .12-.81q.57-.96.64-1.2.36-1.26.86-1.67 2.89-2.4 5.61-1.25.6.25.58-.37l-.04-1.94q-.04-1.74 1.07-.56.28.29.9.36a.79.79 0 0 0 .79-.44l.88-1.77q.27-.54-.33-.72-2.85-.9-2.37-4.16a.75.69 55.7 0 0 .01-.11q0-.41-.23-.56-.36-.25-.51.21l-.29.87q-.21.66-.79.28l-.32-.22q-.59-.39-.78.32-.13.49.64 1.48.26.34-.04.64-.23.23-.3.22a2.39 2.07-8 0 1-1.79-1.16q-.98-1.93-1.98-2.54a3.96 3.87 27.9 0 1-1.57-4.92q.99-2.22.96-5.81-.01-.81-.72-.42l-1.75.97q-.47.26-.1.68l.19.23q.41.48-.18.58-1.6.27-2.58.84-.43.25-.64-.19l-1.3-2.71q-.6-1.25-.75.13-.18 1.71-2.17 4.06a1.96 1.34-54.3 0 0-.07 2.64q.57.28 1 1.31.28.68-.43 1.05l-1.54.8q-.56.28-.73-.33l-.37-1.41q-.13-.49-.54-.69-3.09-1.46-1.76-4.48.23-.53.14-.88-.13-.48-.64-.83-.42-.29-.33-.79.19-1.04-1.27-2.69-.16-.18-.39-.12l-.27.07q-.29.06-.45-.18l-1.34-2.05a.7.69 67.3 0 1 .43-1.06q1.18-.25 1.62-1.18.21-.44.7-.43 3.05.12 3.97-2.81.15-.48-.23-.81-.77-.7-1.79-1.08-.46-.17-.59-.65-.72-2.57 1.15-3.39.45-.2.19-.63-.49-.8-.26-1.45.51-1.46 1.91-3.93 1.59.16 3.02-.26.48-.15.75-.57l2.75-4.27q1.91-.69 3.06-.6.78.06.21.55l-.52.44q-.43.37.01.77l.99.92q.53.48.56-.24l.03-.87q.03-.58.56-.73.45-.13.98 0 .46.11.5.63l.08.9q.07.77.68.26l.84-.7q.39-.32.02-.81-1.63-2.2.49-4.22 1.73.73 3.5 1.93 1.12.76 2.15.38 3.18-1.16 4.65-1.93c4.57-2.4 8.4-2.59 13.89-1.73q2.59.4 5.65-.34 1.73-.42 3.15 0 1.53.45 2.98 1.32m-41.89 29.98a.29.29 0 0 0 .15.32q.28.15.63-.17.2-.17.09-.41-.17-.36-.56-.22-.21.08-.31.48m-3.65 47.51a.32.32 0 0 0-.19.49q.14.2.39.05.17-.11.2-.27.09-.38-.4-.27"/><path fill="#701f3b" d="M183.08 68.02q-2.12 2.02-.49 4.22.37.49-.02.81l-.84.7q-.61.51-.68-.26l-.08-.9q-.04-.52-.5-.63-.53-.13-.98 0-.53.15-.56.73l-.03.87q-.03.72-.56.24l-.99-.92q-.44-.4-.01-.77l.52-.44q.57-.49-.21-.55-1.15-.09-3.06.6 2.24-5.72 8.49-3.7M233 71.41l-.13 2.97q-.03.75-.61.28l-.38-.3q-.64-.51-.44.31.59 2.44 2.81 2.57.54.03.3.57l-.25.56a.67.63-64 0 0 .26.84l2.08 1.12a.17.16 47.5 0 1 0 .29c-3.3 1.26-3.14 3.69-1.5 6.16a1.27.66 45.6 0 1 .25.81l-.54 3.18a.24.22-52.6 0 1-.44.07q-1.32-3.26-4.66-4.45-.55-.2-.67.37-.33 1.49-2.28 1.42a.67.67 0 0 0-.67.51q-.12.48.35 1.24.29.48.07 1.01-.32.78.38 2.24.09.17-.15.35l-.25.19q-.26.19-.37-.1l-.49-1.23q-.22-.57-.83-.3l-1.33.61q-.8.37-.5-.44l.72-1.88q.21-.55-.1-.98-1.07-1.53.38-3.02.36-.37.47-.87.43-1.99-.5-3.81-.25-.49-.76-.28-1.49.61-2.23-1.34-.45-1.21-1.33-1.83a.24.24 0 0 0-.37.27q.11.31.29.56.22.29.08.62-.26.67-.88 1.04-.52.33-.64-.28-.34-1.78-.49-2.19a2.61 2.57-24.6 0 1 1.2-3.16q1.89-1.04 2.84-3.13.21-.45-.23-.68-1.92-1.01-2.41-3.65 3.54.64 7.16 1.15 1.87.26 6.79 2.61m-.76 6.91a.34.34 0 0 0 .08.29q.43.49.6-.16a.33.33 0 0 0-.17-.37q-.42-.23-.51.24M250.08 71.59l-4.44.7q-.67.11-.66-.57 0-.24-.22-.5a.41.41 0 0 0-.68.09q-.37.74-1.51.68-.53-.03-.41.66 0 .04.35.72.22.45-.26.58-.3.08-.57-.02-.49-.18-.54-.7l-.17-1.81q6.2-3.27 9.11.17M164.48 75.28q.71 2.01 1.75.92l1.84.62q-1.4 2.47-1.91 3.93-.23.65.26 1.45.26.43-.19.63-1.87.82-1.15 3.39.13.48.59.65 1.02.38 1.79 1.08.38.33.23.81-.92 2.93-3.97 2.81-.49-.01-.7.43-.44.93-1.62 1.18a.7.69 67.3 0 0-.43 1.06l1.34 2.05q.16.24.45.18l.27-.07q.23-.06.39.12 1.46 1.65 1.27 2.69-.09.5.33.79.51.35.64.83.09.35-.14.88-1.33 3.02 1.76 4.48.41.2.54.69l.37 1.41q.17.61.73.33l1.54-.8q.71-.37.43-1.05-.43-1.03-1-1.31a1.96 1.34-54.3 0 1 .07-2.64q1.99-2.35 2.17-4.06.15-1.38.75-.13l1.3 2.71q.21.44.64.19.98-.57 2.58-.84.59-.1.18-.58l-.19-.23q-.37-.42.1-.68l1.75-.97q.71-.39.72.42.03 3.59-.96 5.81a3.96 3.87 27.9 0 0 1.57 4.92q1 .61 1.98 2.54a2.39 2.07-8 0 0 1.79 1.16q.07.01.3-.22.3-.3.04-.64-.77-.99-.64-1.48.19-.71.78-.32l.32.22q.58.38.79-.28l.29-.87q.15-.46.51-.21.23.15.23.56a.75.69 55.7 0 1-.01.11q-.48 3.26 2.37 4.16.6.18.33.72l-.88 1.77a.79.79 0 0 1-.79.44q-.62-.07-.9-.36-1.11-1.18-1.07.56l.04 1.94q.02.62-.58.37-2.72-1.15-5.61 1.25-.5.41-.86 1.67-.07.24-.64 1.2a1.08 1.05 54 0 0-.12.81l1.67 6.59q.12.48-.29.76-.48.34-1.94.41a.68.68 0 0 0-.55 1.03q.8 1.31.42 2.69a1.82 1.46 48.6 0 0 .05.99l.37 1.08q.62 1.84 1.04-.11.15-.69.89-1.51.94-1.05.96.36.03 3.32 3.56 3.31a.42.42 0 0 1 .39.27q.05.16.01.27c-.02.05-2.64 1.3-3.13 1.57a.92.9-8.8 0 0-.46.61l-.83 3.9q-.1.48.11 1.06.88 2.38-1.89 4.03-.55.33-.64-.3-.09-.65.26-1.28.23-.4.16-.79l-.66-3.81q-.1-.59-.69-.5-.68.1-1.17.46a1.01.97 64.3 0 1-1.52-.57l-.59-2.01q-.12-.43-.46-.64-1.37-.91-1.6-2.55-.09-.59-.65-.45l-.38.09q-.47.11-.55-.39l-.37-2.51a.51.48-36.8 0 0-.94-.1l-1.18 2.26q-.11.2-.3.11-.11-.05-.19-.21-.07-.17-.07-.35-.01-1.69-1-2.93a.53.49 33.7 0 0-.91.15l-.82 3.48q-.1.43.06.88l.3.87q.2.57-.13 1.02l-1.87 2.56q-.32.44-.64.28l-.72-.36q-.57-.29-.93.23l-2.07 3.03a.91.87-43.2 0 0-.06.95q.68 1.19 1.9 1.72.48.2.3.69-.86 2.28-.03 3.15-2.75.67-6.38-.31-2.04-4.36-1.57-10.01.04-.52-.29-.91-1.01-1.2-.42-2.71a.66.66 0 0 0-.77-.88l-1.05.25q-.56.14-.74-.34l-1.52-3.98a.31.3-53.7 0 0-.6.1q-.14 1.91-2.1 2.22a.31.31 0 0 0-.17.53q.49.48 1 1.85a.88.88 0 0 1-.77 1.19q-3.26.19-2.69 2.26.17.63-.28.2l-.89-.85a.73.72-39.7 0 0-.91-.08l-2.89 1.91q-.4.27-.39.75l.03 1.82q.01.68.68.83l1.31.3a.52.51 16.3 0 1 .37.68l-.94 2.6q-.19.54.41.69l.34.08q.57.14.25.64-.14.21-.49.25-.99.09-1.92-.38-.47-.24-.93.03l-1.17.68-2.72-.26q.57-1.65.5-3.82a1.04 1.04 0 0 0-1.71-.75q-.04.04-.53.08-.66.05-.43-.57.36-.96 1.27-2.01a1.67 1.67 0 0 0 .01-2.2q-1.52-1.74.18-4.08.19-.25-.1-.38-1.94-.83-1.82-1.89.24-2.03.33-3.55.04-.61-.45-.58l-2.77.22q-.57.05-.63-.59-.18-2.07-1.3-4.63a.23.23 0 0 0-.4-.03l-2 3.04q-.27.4-.09.88c.53 1.48 1.18 2.64.08 3.91q-.51.6-1.98.86-2.4.42-2.46 3.04-.04 1.51-1.04.37-.64-.74-.96-1.51-.31-.77-.8-.9-.52-.15-1.2-.09-.54.05-.5.58.13 2.02-.74 2.75-2.27 1.92-2.18 4.53a2.72 1.86-79.9 0 0 .89 1.96q.1.07.28.02.15-.05.18-.21l.18-1.06a.4.39 24.4 0 1 .64-.24q.64.51 1.83.87a.81.81 0 0 1 .34 1.35q-.91.92-1.19 2.52l-11.12-3.91q.42-1.29-2.32-.84l-.47-.12q.15 0 .24-.15.14-.25-.08-.43-.5-.43-.78-.94t.04-1.02l1.16-1.83q.23-.35.01-.7l-1.72-2.68q-.3-.46-.82-.32-.63.17-1.1.58a.44.44 0 0 1-.69-.16q-.18-.45-.01-1.01.68-2.24.85-2.84a1.54 1.54 0 0 0-.02-.95q-.43-1.23-.08-1.99.25-.55-.33-.73-.86-.27-2.11 1.22-.72.85-1.62.21-.32-.22-.86-.3-.92-.13-.42.65 1.07 1.65.66 1.91a1.97 1.92 63 0 1-2.85-.96q-1-2.54-1.32-5.62-.06-.51-.18-.62-.31-.3-.85-.06a.56.56 0 0 1-.7-.23q-.8-1.29-.99-1.86-.91-2.63-1.16 0-.03.37-.63 2.01-.17.48-.1.99.26 1.85-.69 3.65-.25.46-.19.99l.06.35q.13.58-.44.68l-1.47.26q-.63.11-.48.69.86 3.19 1.92 4.7.22.32.51.06.87-.77 1.7-.73.61.02.37.58l-1.48 3.59q-4.56-.56-7.1-3.15c-3.7-3.79 1.48-14.63 3.95-18.26q5.54-8.12 9.31-12.68c1-1.2 2.69-1.82 4.34-2.16q14.09-2.9 28.62-7.39c8.6-2.66 15.45-4.52 21.27-10.23q5.75-5.64 6.4-12.78.26-2.89 2.05-4.19 1.26-.92 4.05-.11 4.35 1.25 8.47 3.1m-64.18 64.01q-.31.2-.28.55a.28.28 0 0 0 .46.18q.39-.35.27-.61-.16-.32-.45-.12"/><path d="M166.23 76.2q-1.04 1.09-1.75-.92 1.03.15 1.75.92"/><path fill="#701f3b" d="m257.76 77.67 4.13 3.52a2.43 2.43 0 0 0 1.94.55q1.95-.3 5.91-.79 3.04-.37 5.99.19 4.93.93 8.57 2.08c2.07.66 3.3 1.71 3.68 3.98q.63 3.77-.6 8.01a.55.55 0 0 0 .45.7l.96.14q.61.09.71.71.53 3.37 2.2 5.75.98 1.39 1.26 3.76.35 2.96 1.21 10.37c.3 2.64.02 4.91-.37 7.46q-1.45-1.55-1.38-3.4a.7.7 0 0 0-.46-.68q-.8-.31-1.07-1.4a.5.5 0 0 0-.79-.28q-1.13.84-.59 2.01a.92.92 0 0 1-1.18 1.24q-.82-.34-2.23-.43a1.47 1.32-5.2 0 0-1.56 1.68l.4 1.35a.82.6-37.9 0 1-.19.68q-.52.61-.09 1.6a.24.24 0 0 1-.39.27l-1-1.02a1.74 1.1 40.9 0 0-2.28-.35q-.11.2-.3.27-.41.16-.24-.25.79-1.88.85-2.35.61-4.83.37-10.99-.07-1.76-1.67-1l-3.49 1.65q-.55.26-.58-.36l-.08-1.92a.16.16 0 0 0-.24-.13l-1.92 1.02q-.21.11-.19.41.06 1.23-.83 3.71a.36.36 0 0 1-.65.07q-.37-.61.07-1.68.15-.35-.21-.49-.26-.11-.46.09-.88.89-1.1 1.03-1.93 1.2-1.27-1.03.69-2.36.63-3.11-.12-1.38.51-2.97.5-1.25 1.4-3.38.4-.96.86-3.18.11-.52-.23-.92-1.41-1.67-1.28-3.8.03-.58-.67-1.44-.18-.22-.41-.33-.78-.38-.84.52l-.1 1.45q-.04.52-.56.67-.84.24-1.64.01-.53-.15-.71-.65l-.21-.59q-.3-.82-.68-.22-.08.13-.13.82-.05.53-.56.37-.17-.05-.27-.2-.07-.11-.08-.34-.1-2.58-.1-3.48a.41.36 74.1 0 0-.57-.37l-3.78 2.78a.58.54-36.5 0 0-.14.78l.74.99q.33.45.19 1.01-.42 1.7-1.7 3.63-.41.62-.58-.1l-.38-1.68q-.13-.56-.69-.54-1.61.07-2.39.5-2.36 1.28-1.3-1.32l1.53-3.73q.21-.53-.04-.96-.33-.56-1.23-.77-.55-.13-.57-.68-.04-.89.83-1.55t1.41-.82q.53-.16.27-.66l-1.49-2.97a.7.7 0 0 1 .27-.92q.66-.39 1.71-.22a.47.39-3.5 0 0 .55-.51l-1.72-4.09a.81.67-89 0 1 .93-1.09l.31.21q.38.27.68-.25z"/><path d="M232.24 78.32q.09-.47.51-.24a.33.33 0 0 1 .17.37q-.17.65-.6.16a.34.34 0 0 1-.08-.29"/><path fill="#701f3b" d="M177.16 97.63q.1-.4.31-.48.39-.14.56.22.11.24-.09.41-.35.32-.63.17a.29.29 0 0 1-.15-.32"/><path d="M99.77 146.14q-8.08-2.27-16.65-3.01l1.48-3.59q.24-.56-.37-.58-.83-.04-1.7.73-.29.26-.51-.06-1.06-1.51-1.92-4.7-.15-.58.48-.69l1.47-.26q.57-.1.44-.68l-.06-.35q-.06-.53.19-.99.95-1.8.69-3.65-.07-.51.1-.99.6-1.64.63-2.01.25-2.63 1.16 0 .19.57.99 1.86a.56.56 0 0 0 .7.23q.54-.24.85.06.12.11.18.62.32 3.08 1.32 5.62a1.97 1.92 63 0 0 2.85.96q.41-.26-.66-1.91-.5-.78.42-.65.54.08.86.3.9.64 1.62-.21 1.25-1.49 2.11-1.22.58.18.33.73-.35.76.08 1.99a1.54 1.54 0 0 1 .02.95q-.17.6-.85 2.84-.17.56.01 1.01a.44.44 0 0 0 .69.16q.47-.41 1.1-.58.52-.14.82.32l1.72 2.68q.22.35-.01.7l-1.16 1.83q-.32.51-.04 1.02t.78.94q.22.18.08.43-.09.15-.24.15m-17.62-7.49q.08.26.24.22.71-.2.18-.63-.22-.17-.42.14-.05.08 0 .27M132.25 153.12q-9.46.17-18.57-2.11.28-1.6 1.19-2.52a.81.81 0 0 0-.34-1.35q-1.19-.36-1.83-.87a.4.39 24.4 0 0-.64.24l-.18 1.06q-.03.16-.18.21-.18.05-.28-.02a2.72 1.86-79.9 0 1-.89-1.96q-.09-2.61 2.18-4.53.87-.73.74-2.75-.04-.53.5-.58.68-.06 1.2.09.49.13.8.9.32.77.96 1.51 1 1.14 1.04-.37.06-2.62 2.46-3.04 1.47-.26 1.98-.86c1.1-1.27.45-2.43-.08-3.91q-.18-.48.09-.88l2-3.04a.23.23 0 0 1 .4.03q1.12 2.56 1.3 4.63.06.64.63.59l2.77-.22q.49-.03.45.58-.09 1.52-.33 3.55-.12 1.06 1.82 1.89.29.13.1.38-1.7 2.34-.18 4.08a1.67 1.67 0 0 1-.01 2.2q-.91 1.05-1.27 2.01-.23.62.43.57.49-.04.53-.08a1.04 1.04 0 0 1 1.71.75q.07 2.17-.5 3.82M154.08 153.66l-19.11-.28 1.17-.68q.46-.27.93-.03.93.47 1.92.38.35-.04.49-.25.32-.5-.25-.64l-.34-.08q-.6-.15-.41-.69l.94-2.6a.52.51 16.3 0 0-.37-.68l-1.31-.3q-.67-.15-.68-.83l-.03-1.82q-.01-.48.39-.75l2.89-1.91a.73.72-39.7 0 1 .91.08l.89.85q.45.43.28-.2-.57-2.07 2.69-2.26a.88.88 0 0 0 .77-1.19q-.51-1.37-1-1.85a.31.31 0 0 1 .17-.53q1.96-.31 2.1-2.22a.31.3-53.7 0 1 .6-.1l1.52 3.98q.18.48.74.34l1.05-.25a.66.66 0 0 1 .77.88q-.59 1.51.42 2.71.33.39.29.91-.47 5.65 1.57 10.01"/><path fill="#701f3b" d="M82.15 138.38q.2-.31.42-.14.53.43-.18.63-.16.04-.24-.22-.05-.19 0-.27"/><path d="M100.3 139.29q.29-.2.45.12.12.26-.27.61a.28.28 0 0 1-.46-.18q-.03-.35.28-.55"/><path fill="#701f3b" d="M173.51 145.14q.49-.11.4.27-.03.16-.2.27-.25.15-.39-.05a.32.32 0 0 1 .19-.49"/><path d="m102.56 147.1-2.32-.84q2.74-.45 2.32.84"/></svg>