<svg xmlns="http://www.w3.org/2000/svg" viewBox="0 0 382 382"><g fill="none" stroke="#37506f" stroke-width="2"><path d="M220.09 67.97q.21 3.71-2.63 5.5-.46.28-.05.56l2.25 1.51a1.13 1.02-83.6 0 1 .43.6q.24.82 1.14.98.64.1.32.67-.44.8.21 1.69a.89.85-50.5 0 1 .07.91l-1.45 2.86a.74.59-58.5 0 0 .11.84l.59.48q.52.42.75-.17l.28-.75q.22-.58.69-.21 1.15.9 2.45-.04.61-.44.67.32.15 1.84.99 3.49.68 1.35.98-.13.35-1.7 1.25-3.46.27-.52.86-.57l1.32-.12q.21-.02.18-.21l-.83-5.25q-.04-.26-.29-.21-.24.05-.59.33-.53.42-.66-.25-.41-2.19.63-3.56 1.2-1.59 1.63-2.99M238.21 70.45q.34 2 .98 2.97.56.85.71-.16.13-.81.89-1.9M242.51 70.74l.52 1.55a.45.41 67.5 0 0 .58.28l.42-.22a.72.68 43.8 0 1 .64 0q.88.45 2.84-.54a.51.51 0 0 0 .23-.69q-.4-.77-1.22-1.23M254.26 74.95q.51 1.32 1.56 2.5.35.4.14.89-.34.77-1.14 1.34a.78.78 0 0 0-.3.83q.23.91.37 2.48.18 2.1-1.35 2.32a.21.21 0 0 0-.16.3q.91 1.65.4 2.73-.22.46-.7.62-.52.18-.69.35-.14.15.22.82.12.23 1 2.19.21.46-.18.79-.93.76-1.37 1.62a.88.88 0 0 0 .71 1.28l1.6.13q.89.07.27.71l-.3.31a.48.46 33 0 0 .18.75q.39.17.72.02.52-.25 2.25-1.89a.7.7 0 0 0 .11-.89q-1.12-1.72.44-2.66.5-.3.96.06.82.65 2.59-.15a.21.21 0 0 1 .3.19l.05 2.65q.01.68.62.4.76-.35 2.03.14.55.22 1-.02l2.67-1.45q.47-.26.61.41 1.34 6.44.26 9.45-.53 1.47-1.69 5.43-.17.57.4.56h.41q.81-.02.5.62-.04.1-.46.38-.34.23-.11.56.15.2.32.2 1.4-.01 2.02-1.06.22-.38.01-.78-.06-.13-.14-.33-.2-.48.31-.58 1.83-.33 2.31 1.1.2.59.73.27.52-.32 1.44-.01.48.16.9-.11.63-.4 1.26-.37.57.03.67.59.79 4.78-.48 9.85-.13.5.37.64.24.07.41.04a.44.39-78.3 0 1 .38.64q-.11.2-.46.45-.33.24-.01.48l.21.17q.12.09.23-.02 1.34-1.34 1.4-3.1a.8.8 0 0 1 1.22-.65q1.52.96 3.08.84.52-.04.33-.58l-.28-.78q-.19-.51.3-.63l.28-.07a.42.34-23.1 0 1 .4.12q2.06 2.7 1.98 6.35-.01.47.28.83.76.97 1.75 1.56.51.31.57-.29.08-.93-.72-1.82a1.09 1.08-37.7 0 1 .22-1.62l1.83-1.23q.38-.25.59-.7.59-1.25 2.45-1.45M109.19 149.53q.72-.78.29-1.83-.2-.52.34-.65.62-.15.93-.48.36-.39.04-.82-.86-1.17-.22-2.23.36-.58-.32-.54-.86.06-1.24.52-.89 1.07-.91-.26l-.07-4.5q-.01-.8.65-.32l.47.33q.41.29.69-.22.97-1.73 1.45-4.14.12-.62.71-.4 1.73.65 1.93 1.93.32 2.01 1.13.13l1.14-2.65q.19-.43.71-.39.58.04 1.23.07 1.4.07 1.71-.44.64-1.04-.51-2.93-.61-1 .27-1.77.89-.77 1.7-2.54.24-.5.77-.37 1.45.35 1.83 1.77a.91.91 0 0 1-.15.79l-.42.56q-.39.51.24.78l2.78 1.19q.5.22.58.77.2 1.36-.44 2.28-.36.52.24.7 2.06.64.67 3.35a.7.7 0 0 0 .24.91q1.62 1.06.81 3.16-.21.54.24.9 1.06.86.72 1.95-.22.69.39 1.08 1.67 1.05 2.4 2.28.22.36.42-.01 2.1-3.71.44-6.96-.03-.05 0-.91a.36.36 0 0 1 .61-.25q.19.18.63.31a.48.42 12 0 0 .61-.34l.19-1.7a.66.65-87 0 1 .64-.59q1.03 0 1.31 1.28.14.62.66.27.78-.53 2.64-.67.52-.04.55-.56.13-2.74 1.18-4.86.29-.56.72-.1 4.45 4.8 4.82 11.7.11 2.25 1.65 3.16.71.42.76.97.02.19.22.49.26.41.46-.05l.99-2.28q.19-.44 0-.86-.64-1.41-.58-2.57a.83.83 0 0 1 .54-.74q1.45-.53 1.49-1.29.03-.68.68-.48 1.28.39 2.59-1.54.48-.69.99-2.75.14-.55.71-.92a.51.47 64.4 0 1 .72.29l.31.86a.52.39-18.7 0 0 .61.2q.08-.02.25-.15.49-.35.73.21.38.92 1.2 1.41.42.25.62.7 1.24 2.7 1.11 3.52-.09.56.46.7.7.18.88 1.31.09.61.64.33.69-.34 1.7.02.5.18.57-.29l.41-2.55q.08-.51-.4-.77-.69-.38-.72-1.21c-.04-1.11-.21-2.1 0-3.19a.73.69 1.4 0 1 .62-.56l1.37-.17q.49-.06.32-.54-.35-1 .16-1.94a1.54 1.27-38.6 0 0 .18-.84l-.47-4.1q-.05-.48.47-.53 2.27-.2 6.79.9.8.19 1.17-.54.51-.98 1.62-1.53.49-.24.23-.65l-.98-1.54q-.32-.49-.88-.53-.6-.04-.98-.19a1.26 1.26 0 0 1-.81-1.27q.32-3.78-1.42-5.7-.41-.46-.08-1l2.92-4.79a1.16 1.07-38.4 0 0 .14-.87q-.31-1.16-.7-1.63-.92-1.12-.92.49 0 .23-.27.51a.33.33 0 0 1-.57-.22q-.02-.91-.95-1.34-1.28-.61-1.4-.71-1.44-1.31.16-2.98a.78.78 0 0 0-.07-1.15q-1.38-1.1-2.17 1.37-.27.82-1 .3l-.74-.53q-.36-.26-.69.13-2.03 2.46-.55 5.15.57 1.03-.41 1.69-.4.27-.43.28-1.7.1-2.54-1.32-1.24-2.1-3.42-2.83a.91.82 22.2 0 1-.57-1.18l1.37-2.75a.99.98-42.6 0 0 .04-.79q-.92-2.38-.87-5.06.01-.75-.67-.33l-.42.26q-.64.39-.7-.34-.13-1.54-.72-2.56-.32-.56.32-.64.88-.11 1.36-1.26.2-.48.71-.73l2.97-1.42q.4-.19.24-.6-.8-2.18-1.63-4.16-.33-.8-.3-1.13.07-.68 1.11-.78.49-.04.63-.51.79-2.56.63-3.72-.07-.5.25-.9.45-.53.28-1.2a.45.45 0 0 0-.72-.24q-.96.79-1.7-.41-.21-.34-.55-.55-1.35-.84-.15-2.21M174.73 71.49q.07.71.35 1.08.37.47.76.06l.39-.42a.43.4 63.6 0 1 .7.26q.19 1.33.48 1.36.44.06.49-.46.15-1.79.15-1.81.14-.76.62-.27.23.23.52.43.59.4.39-.29l-1.04-3.64M104.15 147.67q-.49-1.38-3.69-1.84-.51-.08-.41-.58.16-.87.76-1.8.22-.34.01-.77l-1.03-2.11q-.27-.57-.72-.16l-.37.32q-.18.16-.45.02-.11-.06-.19-.2-.12-.21-.01-.44 1.07-2.15.95-4.21-.03-.49-.45-.74-1.6-.96-3.26-.4a.28.27-9.3 0 1-.36-.26l.02-5.83q.01-.57-.52-.36l-.51.21a1.08 1.02 47.7 0 1-.92-.07q-1.96-1.11-2.83 1.21-.2.53-.25 1.25-.13 1.98-1.29.37-1.01-1.39-1.15-5.03a.17.17 0 0 0-.16-.16q-.47-.03-.92-.44a.4.38 39.7 0 1-.06-.52l.2-.28q.34-.47-.23-.66-1.9-.63-2.44-2.73a.35.35 0 0 0-.68-.01q-.87 3-.8 3.68.17 1.75-.57 3.17-.51.99-1.1 3.33a.65.59-81.7 0 1-.6.49l-.4-.01a.32.28 79.3 0 0-.26.43q.69 1.88.52 3.23-.23 1.73 1.14.58.37-.31 1.11-.28.51.02.6.52.56 3.14-1.08 6.2" vector-effect="non-scaling-stroke"/><path d="M178.03 68.03q-.06.65-.57.87-.37.16-.78-.21M287.87 126.39q.02-.15-.23-.21a.33.33 0 0 0-.37.17q-.14.26.03.38.48.35.57-.34M117.18 134.74a.26.26 0 0 0 .36.12q.25-.13.23-.39-.02-.35-.37-.29-.44.06-.22.56" vector-effect="non-scaling-stroke"/></g><path d="M220.09 67.97q.21 3.71-2.63 5.5-.46.28-.05.56l2.25 1.51a1.13 1.02-83.6 0 1 .43.6q.24.82 1.14.98.64.1.32.67-.44.8.21 1.69a.89.85-50.5 0 1 .07.91l-1.45 2.86a.74.59-58.5 0 0 .11.84l.59.48q.52.42.75-.17l.28-.75q.22-.58.69-.21 1.15.9 2.45-.04.61-.44.67.32.15 1.84.99 3.49.68 1.35.98-.13.35-1.7 1.25-3.46.27-.52.86-.57l1.32-.12q.21-.02.18-.21l-.83-5.25q-.04-.26-.29-.21-.24.05-.59.33-.53.42-.66-.25-.41-2.19.63-3.56 1.2-1.59 1.63-2.99 2.96.58 6.82-.34.34 2 .98 2.97.56.85.71-.16.13-.81.89-1.9.67-.61 1.72-.62l.52 1.55a.45.41 67.5 0 0 .58.28l.42-.22a.72.68 43.8 0 1 .64 0q.88.45 2.84-.54a.51.51 0 0 0 .23-.69q-.4-.77-1.22-1.23.64-.31.98-.11 3.44 2.01 6.76 5.17.51 1.32 1.56 2.5.35.4.14.89-.34.77-1.14 1.34a.78.78 0 0 0-.3.83q.23.91.37 2.48.18 2.1-1.35 2.32a.21.21 0 0 0-.16.3q.91 1.65.4 2.73-.22.46-.7.62-.52.18-.69.35-.14.15.22.82.12.23 1 2.19.21.46-.18.79-.93.76-1.37 1.62a.88.88 0 0 0 .71 1.28l1.6.13q.89.07.27.71l-.3.31a.48.46 33 0 0 .18.75q.39.17.72.02.52-.25 2.25-1.89a.7.7 0 0 0 .11-.89q-1.12-1.72.44-2.66.5-.3.96.06.82.65 2.59-.15a.21.21 0 0 1 .3.19l.05 2.65q.01.68.62.4.76-.35 2.03.14.55.22 1-.02l2.67-1.45q.47-.26.61.41 1.34 6.44.26 9.45-.53 1.47-1.69 5.43-.17.57.4.56h.41q.81-.02.5.62-.04.1-.46.38-.34.23-.11.56.15.2.32.2 1.4-.01 2.02-1.06.22-.38.01-.78-.06-.13-.14-.33-.2-.48.31-.58 1.83-.33 2.31 1.1.2.59.73.27.52-.32 1.44-.01.48.16.9-.11.63-.4 1.26-.37.57.03.67.59.79 4.78-.48 9.85-.13.5.37.64.24.07.41.04a.44.39-78.3 0 1 .38.64q-.11.2-.46.45-.33.24-.01.48l.21.17q.12.09.23-.02 1.34-1.34 1.4-3.1a.8.8 0 0 1 1.22-.65q1.52.96 3.08.84.52-.04.33-.58l-.28-.78q-.19-.51.3-.63l.28-.07a.42.34-23.1 0 1 .4.12q2.06 2.7 1.98 6.35-.01.47.28.83.76.97 1.75 1.56.51.31.57-.29.08-.93-.72-1.82a1.09 1.08-37.7 0 1 .22-1.62l1.83-1.23q.38-.25.59-.7.59-1.25 2.45-1.45-.53 7.09-2.84 13.6-2.61 7.4-4.68 12.85-.9 2.39-2.48 11.38-.48 2.78-1.44 4.12c-2.19 3.08-7.82 2.8-10.68 1.47q-3.85-1.8-5.11-2.14c-2.55-.68-4.14.28-6.58 1.72q-6.1 3.6-10.77 3.44-2.24-.08-8.51-1.44-3.33-.72-8.19-2.69-4.45-1.81-8.95-2.4-4.29-.56-9.13.23-1.01.17-10.99 1.68-6.32.95-11.06.8c-8.81-.29-18.58-2.56-26.68-6.2q-3.17-1.42-6-1.63c-2.37-.19-5.36-.72-8.34-.66q-17.33.34-32.18-1.5-4.57-.57-10.54-2.77.72-.78.29-1.83-.2-.52.34-.65.62-.15.93-.48.36-.39.04-.82-.86-1.17-.22-2.23.36-.58-.32-.54-.86.06-1.24.52-.89 1.07-.91-.26l-.07-4.5q-.01-.8.65-.32l.47.33q.41.29.69-.22.97-1.73 1.45-4.14.12-.62.71-.4 1.73.65 1.93 1.93.32 2.01 1.13.13l1.14-2.65q.19-.43.71-.39.58.04 1.23.07 1.4.07 1.71-.44.64-1.04-.51-2.93-.61-1 .27-1.77.89-.77 1.7-2.54.24-.5.77-.37 1.45.35 1.83 1.77a.91.91 0 0 1-.15.79l-.42.56q-.39.51.24.78l2.78 1.19q.5.22.58.77.2 1.36-.44 2.28-.36.52.24.7 2.06.64.67 3.35a.7.7 0 0 0 .24.91q1.62 1.06.81 3.16-.21.54.24.9 1.06.86.72 1.95-.22.69.39 1.08 1.67 1.05 2.4 2.28.22.36.42-.01 2.1-3.71.44-6.96-.03-.05 0-.91a.36.36 0 0 1 .61-.25q.19.18.63.31a.48.42 12 0 0 .61-.34l.19-1.7a.66.65-87 0 1 .64-.59q1.03 0 1.31 1.28.14.62.66.27.78-.53 2.64-.67.52-.04.55-.56.13-2.74 1.18-4.86.29-.56.72-.1 4.45 4.8 4.82 11.7.11 2.25 1.65 3.16.71.42.76.97.02.19.22.49.26.41.46-.05l.99-2.28q.19-.44 0-.86-.64-1.41-.58-2.57a.83.83 0 0 1 .54-.74q1.45-.53 1.49-1.29.03-.68.68-.48 1.28.39 2.59-1.54.48-.69.99-2.75.14-.55.71-.92a.51.47 64.4 0 1 .72.29l.31.86a.52.39-18.7 0 0 .61.2q.08-.02.25-.15.49-.35.73.21.38.92 1.2 1.41.42.25.62.7 1.24 2.7 1.11 3.52-.09.56.46.7.7.18.88 1.31.09.61.64.33.69-.34 1.7.02.5.18.57-.29l.41-2.55q.08-.51-.4-.77-.69-.38-.72-1.21c-.04-1.11-.21-2.1 0-3.19a.73.69 1.4 0 1 .62-.56l1.37-.17q.49-.06.32-.54-.35-1 .16-1.94a1.54 1.27-38.6 0 0 .18-.84l-.47-4.1q-.05-.48.47-.53 2.27-.2 6.79.9.8.19 1.17-.54.51-.98 1.62-1.53.49-.24.23-.65l-.98-1.54q-.32-.49-.88-.53-.6-.04-.98-.19a1.26 1.26 0 0 1-.81-1.27q.32-3.78-1.42-5.7-.41-.46-.08-1l2.92-4.79a1.16 1.07-38.4 0 0 .14-.87q-.31-1.16-.7-1.63-.92-1.12-.92.49 0 .23-.27.51a.33.33 0 0 1-.57-.22q-.02-.91-.95-1.34-1.28-.61-1.4-.71-1.44-1.31.16-2.98a.78.78 0 0 0-.07-1.15q-1.38-1.1-2.17 1.37-.27.82-1 .3l-.74-.53q-.36-.26-.69.13-2.03 2.46-.55 5.15.57 1.03-.41 1.69-.4.27-.43.28-1.7.1-2.54-1.32-1.24-2.1-3.42-2.83a.91.82 22.2 0 1-.57-1.18l1.37-2.75a.99.98-42.6 0 0 .04-.79q-.92-2.38-.87-5.06.01-.75-.67-.33l-.42.26q-.64.39-.7-.34-.13-1.54-.72-2.56-.32-.56.32-.64.88-.11 1.36-1.26.2-.48.71-.73l2.97-1.42q.4-.19.24-.6-.8-2.18-1.63-4.16-.33-.8-.3-1.13.07-.68 1.11-.78.49-.04.63-.51.79-2.56.63-3.72-.07-.5.25-.9.45-.53.28-1.2a.45.45 0 0 0-.72-.24q-.96.79-1.7-.41-.21-.34-.55-.55-1.35-.84-.15-2.21 2.77.78 5.37 2.33 1.25.75 3.94.02.47-.13.73-.55l2.86-4.56q.07.71.35 1.08.37.47.76.06l.39-.42a.43.4 63.6 0 1 .7.26q.19 1.33.48 1.36.44.06.49-.46.15-1.79.15-1.81.14-.76.62-.27.23.23.52.43.59.4.39-.29l-1.04-3.64q1.89-.83 3.94-.01 2.59 1.05 4.67 2.42a1.82 1.82 0 0 0 1.73.15c5.03-2.18 9.32-4.81 14.9-4.07 3.62.47 6.19.78 9.3.08q2.32-.51 3.13-.1 2 1.01 3.88 1.71m67.78 58.42q.02-.15-.23-.21a.33.33 0 0 0-.37.17q-.14.26.03.38.48.35.57-.34m-170.69 8.35a.26.26 0 0 0 .36.12q.25-.13.23-.39-.02-.35-.37-.29-.44.06-.22.56"/><path d="M178.03 68.03q-.06.65-.57.87-.37.16-.78-.21.56-.61 1.35-.66"/><path fill="#6e9fdd" d="m178.54 67.79 1.04 3.64q.2.69-.39.29-.29-.2-.52-.43-.48-.49-.62.27 0 .02-.15 1.81-.05.52-.49.46-.29-.03-.48-1.36a.43.4 63.6 0 0-.7-.26l-.39.42q-.39.41-.76-.06-.28-.37-.35-1.08.56-1.85 1.95-2.8.41.37.78.21.51-.22.57-.87.25-.12.51-.24M220.09 67.97q6.21.27 11.3 2.82-.43 1.4-1.63 2.99-1.04 1.37-.63 3.56.13.67.66.25.35-.28.59-.33.25-.05.29.21l.83 5.25q.03.19-.18.21l-1.32.12q-.59.05-.86.57-.9 1.76-1.25 3.46-.3 1.48-.98.13-.84-1.65-.99-3.49-.06-.76-.67-.32-1.3.94-2.45.04-.47-.37-.69.21l-.28.75q-.23.59-.75.17l-.59-.48a.74.59-58.5 0 1-.11-.84l1.45-2.86a.89.85-50.5 0 0-.07-.91q-.65-.89-.21-1.69.32-.57-.32-.67-.9-.16-1.14-.98a1.13 1.02-83.6 0 0-.43-.6l-2.25-1.51q-.41-.28.05-.56 2.84-1.79 2.63-5.5M246.52 69.89q.82.46 1.22 1.23a.51.51 0 0 1-.23.69q-1.96.99-2.84.54a.72.68 43.8 0 0-.64 0l-.42.22a.45.41 67.5 0 1-.58-.28l-.52-1.55zM240.79 71.36q-.76 1.09-.89 1.9-.15 1.01-.71.16-.64-.97-.98-2.97zM161.83 74.25q-1.2 1.37.15 2.21.34.21.55.55.74 1.2 1.7.41a.45.45 0 0 1 .72.24q.17.67-.28 1.2-.32.4-.25.9.16 1.16-.63 3.72-.14.47-.63.51-1.04.1-1.11.78-.03.33.3 1.13.83 1.98 1.63 4.16.16.41-.24.6l-2.97 1.42q-.51.25-.71.73-.48 1.15-1.36 1.26-.64.08-.32.64.59 1.02.72 2.56.06.73.7.34l.42-.26q.68-.42.67.33-.05 2.68.87 5.06a.99.98-42.6 0 1-.04.79l-1.37 2.75a.91.82 22.2 0 0 .57 1.18q2.18.73 3.42 2.83.84 1.42 2.54 1.32.03-.01.43-.28.98-.66.41-1.69-1.48-2.69.55-5.15.33-.39.69-.13l.74.53q.73.52 1-.3.79-2.47 2.17-1.37a.78.78 0 0 1 .07 1.15q-1.6 1.67-.16 2.98.12.1 1.4.71.93.43.95 1.34a.33.33 0 0 0 .57.22q.27-.28.27-.51 0-1.61.92-.49.39.47.7 1.63a1.16 1.07-38.4 0 1-.14.87l-2.92 4.79q-.33.54.08 1 1.74 1.92 1.42 5.7a1.26 1.26 0 0 0 .81 1.27q.38.15.98.19.56.04.88.53l.98 1.54q.26.41-.23.65-1.11.55-1.62 1.53-.37.73-1.17.54-4.52-1.1-6.79-.9-.52.05-.47.53l.47 4.1a1.54 1.27-38.6 0 1-.18.84q-.51.94-.16 1.94.17.48-.32.54l-1.37.17a.73.69 1.4 0 0-.62.56c-.21 1.09-.04 2.08 0 3.19q.03.83.72 1.21.48.26.4.77l-.41 2.55q-.07.47-.57.29-1.01-.36-1.7-.02-.55.28-.64-.33-.18-1.13-.88-1.31-.55-.14-.46-.7.13-.82-1.11-3.52-.2-.45-.62-.7-.82-.49-1.2-1.41-.24-.56-.73-.21-.17.13-.25.15a.52.39-18.7 0 1-.61-.2l-.31-.86a.51.47 64.4 0 0-.72-.29q-.57.37-.71.92-.51 2.06-.99 2.75-1.31 1.93-2.59 1.54-.65-.2-.68.48-.04.76-1.49 1.29a.83.83 0 0 0-.54.74q-.06 1.16.58 2.57.19.42 0 .86l-.99 2.28q-.2.46-.46.05-.2-.3-.22-.49-.05-.55-.76-.97-1.54-.91-1.65-3.16-.37-6.9-4.82-11.7-.43-.46-.72.1-1.05 2.12-1.18 4.86-.03.52-.55.56-1.86.14-2.64.67-.52.35-.66-.27-.28-1.28-1.31-1.28a.66.65-87 0 0-.64.59l-.19 1.7a.48.42 12 0 1-.61.34q-.44-.13-.63-.31a.36.36 0 0 0-.61.25q-.03.86 0 .91 1.66 3.25-.44 6.96-.2.37-.42.01-.73-1.23-2.4-2.28-.61-.39-.39-1.08.34-1.09-.72-1.95-.45-.36-.24-.9.81-2.1-.81-3.16a.7.7 0 0 1-.24-.91q1.39-2.71-.67-3.35-.6-.18-.24-.7.64-.92.44-2.28-.08-.55-.58-.77l-2.78-1.19q-.63-.27-.24-.78l.42-.56a.91.91 0 0 0 .15-.79q-.38-1.42-1.83-1.77-.53-.13-.77.37-.81 1.77-1.7 2.54-.88.77-.27 1.77 1.15 1.89.51 2.93-.31.51-1.71.44-.65-.03-1.23-.07-.52-.04-.71.39l-1.14 2.65q-.81 1.88-1.13-.13-.2-1.28-1.93-1.93-.59-.22-.71.4-.48 2.41-1.45 4.14-.28.51-.69.22l-.47-.33q-.66-.48-.65.32l.07 4.5q.02 1.33.91.26.38-.46 1.24-.52.68-.04.32.54-.64 1.06.22 2.23.32.43-.04.82-.31.33-.93.48-.54.13-.34.65.43 1.05-.29 1.83l-5.04-1.86q-.49-1.38-3.69-1.84-.51-.08-.41-.58.16-.87.76-1.8.22-.34.01-.77l-1.03-2.11q-.27-.57-.72-.16l-.37.32q-.18.16-.45.02-.11-.06-.19-.2-.12-.21-.01-.44 1.07-2.15.95-4.21-.03-.49-.45-.74-1.6-.96-3.26-.4a.28.27-9.3 0 1-.36-.26l.02-5.83q.01-.57-.52-.36l-.51.21a1.08 1.02 47.7 0 1-.92-.07q-1.96-1.11-2.83 1.21-.2.53-.25 1.25-.13 1.98-1.29.37-1.01-1.39-1.15-5.03a.17.17 0 0 0-.16-.16q-.47-.03-.92-.44a.4.38 39.7 0 1-.06-.52l.2-.28q.34-.47-.23-.66-1.9-.63-2.44-2.73a.35.35 0 0 0-.68-.01q-.87 3-.8 3.68.17 1.75-.57 3.17-.51.99-1.1 3.33a.65.59-81.7 0 1-.6.49l-.4-.01a.32.28 79.3 0 0-.26.43q.69 1.88.52 3.23-.23 1.73 1.14.58.37-.31 1.11-.28.51.02.6.52.56 3.14-1.08 6.2-3.42-.43-5.72-2.84c-3.69-3.86 1.48-14.65 3.94-18.24q5.32-7.75 8.97-12.28c1.24-1.54 2.75-2.15 4.84-2.58q13.16-2.69 28.48-7.36c11.54-3.52 21.06-6.53 26.19-17.2q1-2.1 1.77-7.31.3-2.11 2.2-2.92 1.21-.52 3.21 0 3.15.83 6.2 2.19M294.34 119.67q-1.86.2-2.45 1.45-.21.45-.59.7l-1.83 1.23a1.09 1.08-37.7 0 0-.22 1.62q.8.89.72 1.82-.06.6-.57.29-.99-.59-1.75-1.56-.29-.36-.28-.83.08-3.65-1.98-6.35a.42.34-23.1 0 0-.4-.12l-.28.07q-.49.12-.3.63l.28.78q.19.54-.33.58-1.56.12-3.08-.84a.8.8 0 0 0-1.22.65q-.06 1.76-1.4 3.1-.11.11-.23.02l-.21-.17q-.32-.24.01-.48.35-.25.46-.45a.44.39-78.3 0 0-.38-.64q-.17.03-.41-.04-.5-.14-.37-.64 1.27-5.07.48-9.85-.1-.56-.67-.59-.63-.03-1.26.37-.42.27-.9.11-.92-.31-1.44.01-.53.32-.73-.27-.48-1.43-2.31-1.1-.51.1-.31.58.08.2.14.33.21.4-.01.78-.62 1.05-2.02 1.06-.17 0-.32-.2-.23-.33.11-.56.42-.28.46-.38.31-.64-.5-.62h-.41q-.57.01-.4-.56 1.16-3.96 1.69-5.43 1.08-3.01-.26-9.45-.14-.67-.61-.41l-2.67 1.45q-.45.24-1 .02-1.27-.49-2.03-.14-.61.28-.62-.4l-.05-2.65a.21.21 0 0 0-.3-.19q-1.77.8-2.59.15-.46-.36-.96-.06-1.56.94-.44 2.66a.7.7 0 0 1-.11.89q-1.73 1.64-2.25 1.89-.33.15-.72-.02a.48.46 33 0 1-.18-.75l.3-.31q.62-.64-.27-.71l-1.6-.13a.88.88 0 0 1-.71-1.28q.44-.86 1.37-1.62.39-.33.18-.79-.88-1.96-1-2.19-.36-.67-.22-.82.17-.17.69-.35.48-.16.7-.62.51-1.08-.4-2.73a.21.21 0 0 1 .16-.3q1.53-.22 1.35-2.32-.14-1.57-.37-2.48a.78.78 0 0 1 .3-.83q.8-.57 1.14-1.34.21-.49-.14-.89-1.05-1.18-1.56-2.5l7.7 6.3a2.3 2.3 0 0 0 1.8.49q2.19-.33 5.97-.78 3.2-.38 6.03.19 5.54 1.12 7.96 1.87c2.28.71 3.82 1.54 4.26 4.23q.62 3.77-.58 7.84-.19.62.47.78l1.02.24a.83.78 3.4 0 1 .62.66q.44 3.06 1.98 5.39 1.07 1.64 1.42 4 .99 6.76 1.43 13.51"/><path d="M104.15 147.67q-7.97-2.95-13.42-3.62-6.83-.83-8.98-1.26 1.64-3.06 1.08-6.2-.09-.5-.6-.52-.74-.03-1.11.28-1.37 1.15-1.14-.58.17-1.35-.52-3.23a.32.28 79.3 0 1 .26-.43l.4.01a.65.59-81.7 0 0 .6-.49q.59-2.34 1.1-3.33.74-1.42.57-3.17-.07-.68.8-3.68a.35.35 0 0 1 .68.01q.54 2.1 2.44 2.73.57.19.23.66l-.2.28a.4.38 39.7 0 0 .06.52q.45.41.92.44a.17.17 0 0 1 .16.16q.14 3.64 1.15 5.03 1.16 1.61 1.29-.37.05-.72.25-1.25.87-2.32 2.83-1.21a1.08 1.02 47.7 0 0 .92.07l.51-.21q.53-.21.52.36l-.02 5.83a.28.27-9.3 0 0 .36.26q1.66-.56 3.26.4.42.25.45.74.12 2.06-.95 4.21-.11.23.01.44.08.14.19.2.27.14.45-.02l.37-.32q.45-.41.72.16l1.03 2.11q.21.43-.01.77-.6.93-.76 1.8-.1.5.41.58 3.2.46 3.69 1.84"/><path fill="#6e9fdd" d="M287.87 126.39q-.09.69-.57.34-.17-.12-.03-.38a.33.33 0 0 1 .37-.17q.25.06.23.21M117.18 134.74q-.22-.5.22-.56.35-.06.37.29.02.26-.23.39a.26.26 0 0 1-.36-.12"/></svg>