<svg xmlns="http://www.w3.org/2000/svg" viewBox="0 0 382 382"><g fill="none" stroke-width="2"><path stroke="#7b7658" d="M216.26 66.44q-.72 1.7.11 2.38a1.08 1.08 0 0 0 1.71-.47q.23-.64-.07-1.1" vector-effect="non-scaling-stroke"/><path stroke="#7d775a" d="M219.17 67.77q-.68 2.49 2.29 3.42.5.16.26.62-2.01 3.79-5.07 5.78-.43.27-.02.58 2.07 1.55.82 3.22a.22.22 0 0 0 .25.33q.73-.25 1.32-2.12.18-.56.74-.4.54.15 1.77 2.79a1.03.84 61 0 0 1.35.54q.15-.11.57-.18.54-.08.57.47.12 3.14-1.18 5.95-.22.46-.13.96.33 1.86-.05 3.53" vector-effect="non-scaling-stroke"/><path stroke="#03795e" d="M222.66 93.26q-1.04.85-1.72.69-1.59-.37-.53.87 1.62 1.88 2.83.36" vector-effect="non-scaling-stroke"/><path stroke="#7d775a" d="m223.24 95.18 2.36-.24q1.61-.17 1.12-1.71-1.1-3.41.51-3.81.38-.09.55-.05.44.09.37.79-.01.11.06.34a.33.32-41.8 0 0 .6.03l1.32-3.02q.22-.5.68-.17 2.21 1.58 2.59 3.97.09.61.5.14.27-.31.39-.33a.9.88 63.4 0 1 .83.28q1.11 1.25 1.99 1.4a.23.23 0 0 0 .21-.38q-1.88-2.08-.83-3.65.32-.49-.25-.57l-1.3-.2a.95.95 0 0 1-.65-1.48q1-1.45.07-2.84-.32-.5.16-.84 1.2-.86 2.85-1.01.2-.02.29-.2.13-.24-.37-.67a3.42 3.41-12.3 0 0-.74-.47q-1.73-.82-1.81-2.79a.71.7 5.6 0 0-.54-.66q-1.15-.28-1.27 1.63a.36.28 14.3 0 1-.47.2l-.24-.08q-.46-.18-.4-.57.32-1.8 1.33-5.86.12-.51.66-.5.8.02 1.31.69.38.49.7-.04.41-.7.54-1.84M240.78 71.43q-.38 1.52 1.45 3.99.33.44.79.13.2-.14.37-.53.16-.39-.08-1.03-.63-1.67.79-2.83a.51.51 0 0 1 .69.05l1.04 1.12a.45.43 48.5 0 1-.02.64q-.37.31-.38.4-.17 1.07.72.39 1.48-1.11 2.92-.27.45.26.9-.01.59-.35 1.03-1.08M254.05 74.78q.08 1.13 1.17.91" vector-effect="non-scaling-stroke"/><path stroke="#7b7658" d="m257.72 77.68-2.32 3.72q-.36.59.35.6h.49q.72 0 .37.6-.6 1 .21 2.07.32.42.07.88-.27.5-.81.47-.87-.05-.97-.13-1.68-1.38-.86.52.43.98 1.47 3.06.23.45-.22.7l-2.3 1.28q-1.68.93-.06 1.35.94.24 1.47 2.86.1.48-.19.89l-2.17 3.12q-.34.49.14.9.96.81 2.55-.16a.91.91 0 0 1 .93-.01q.67.39 1.25.09.55-.28.72.31l.4 1.42" vector-effect="non-scaling-stroke"/><path stroke="#03795e" d="m258.24 102.22 1.07 2.18q.24.48.5.02 1.77-3.12-.63-2.41" vector-effect="non-scaling-stroke"/><path stroke="#7b7658" d="M259.18 102.01q.37-1.42 1.28-2.8.72-1.1.34-2.47-.18-.66-.65-.16-.21.22-.48.29-.6.16-.4-.61.01-.07.64-1.21.44-.79.97-.9 1.35-.3 2.47-.75.6-.25.6.4 0 2.76.2 3.58.17.7.63.37.23-.17.38-1.23a.62.62 0 0 1 .71-.52q1.11.16 1.82 1.21.97 1.42 1.27-.27.12-.68.05-.98-.19-.8.39-.59 1.02.36 2.14 0 .59-.18.52.43-.17 1.44-.83 2.81-.23.49.06.96.82 1.34.14 2.43-.3.49-.02 1.04l.35.71q.26.54-.21.9-.31.24-.72.32-.61.12-.46.73.06.26.33.66a.93.92 19.3 0 1 .12.24q.37 1.16-1.02 1.56-.59.17-.29.7 1.25 2.25-1.32 4.78a.64.62 23.7 0 0 .43 1.07l2.58.14q.48.03.65.59.44 1.42.36 3-.01.06.04.1l.24.22q.18.17.21-.08l.42-3.22q.09-.72.73-.64l.31.04q.68.09.38-.53l-1.25-2.51a.64.64 0 0 1 .67-.92q1.68.27 3.89 2.06a1 1 0 0 0 .92.18q1.39-.42 2.45-1.89a.48.31 40.6 0 1 .6.08l.24.22q.12.12-.03.41l-1.02 1.93a.61.58 20.9 0 0 .4.84l.86.23q.59.15.33.7-1.08 2.3-1.09 4.85 0 .41-.04.5-.09.18-.29.24-.56.19-.43.77.4 1.64-.28 3.39" vector-effect="non-scaling-stroke"/><path stroke="#03795e" d="M280.47 125.41q-.48.25-.81.64-.33.38-.09.83.47.86.66 1.85.01.07.08.1.15.08.25.06.25-.03.25-.27l.03-1.86" vector-effect="non-scaling-stroke"/><path stroke="#7b7658" d="M280.84 126.76q3.43.29 3.54 3.79.02.75.43.11.45-.72-.16-1.83-.93-1.71.68-2.63a.64.64 0 0 0 .04-1.08q-.67-.47-1.06-1.08-.34-.53.22-.79l1.9-.88a.46.43-9.8 0 1 .65.44l-.04.35q-.08.6.58.55.26-.02.52-.41.33-.51.75-.53l.56-.01q.47-.01.52-.53.15-1.55.19-1.64.3-.75.64.08.44 1.04 1.58 1.58.46.21.64.68.28.7.81 1.15M160.01 154.42q1.2-1.1-.23-2-.27-.17-.55-.05-.24.1-.29.17a.49.49 0 0 1-.89-.19q-.52-3.03 1.23-3.42.55-.12.66-.68l.23-1.22q.43-2.2 1.58-.36.14.23.6 1.02.1.18.24.23.25.09.4.08.74-.04.4-.7-.67-1.32 1.22-1.45a.95.74-75.4 0 0 .68-.52l1.25-2.53q.29-.59-.39-.66l-.34-.04a.53.51 11.7 0 1-.45-.67l.91-2.9a.45.44-54.8 0 1 .78-.14q.65.88 1 1.99a.61.61 0 0 0 1.08.17q.72-1.07 1.14-1.28.55-.29.62.34l.28 2.65q.07.63.7.32l.28-.14q.65-.32.63.34-.07 1.96 1.84 2.65.56.21.54.79l-.1 3.04q-.01.52.51.33 1.11-.4 1.66-.15.56.26.59-.36.02-.49.29-.76.53-.53.7.2l.94 4" vector-effect="non-scaling-stroke"/><path stroke="#03795e" d="M179.75 152.52q.13 2.06-.12 3.73-.1.62-.33 1.03-.34.6-.48.97a.57.57 0 0 0 .36.76q1.03.31 1.29.2.62-.28.26-.8l-.42-.58q-.31-.44.21-.67l1.63-.75q.47-.22.9.11.82.64 1.94.37.51-.12.24-.58-1.36-2.31-3.54-4.15" vector-effect="non-scaling-stroke"/><path stroke="#7b7658" d="m181.69 152.16 1.43-3.31q.19-.45.21-.94.05-1.12.95-1.97" vector-effect="non-scaling-stroke"/><path stroke="#03795e" d="M184.28 145.94q2.51.65 2.81-1.24.08-.46.5-.6l.98-.32q.41-.13.49-.63.05-.27-.3-.72a.6.59-11.9 0 0-.34-.23q-1.33-.3-1.75-1.98-.07-.26-.31-.13l-.3.17q-.06.04-.05.11.42 1.76-.73 2.77" vector-effect="non-scaling-stroke"/><path stroke="#7b7658" d="m185.28 143.14-1.28-1.17" vector-effect="non-scaling-stroke"/><path stroke="#03795e" d="M184 141.97q.12-1.81-.35-3.34-.18-.58-.55-.1-.37.5-.3 1.51" vector-effect="non-scaling-stroke"/><path stroke="#7b7658" d="m182.8 140.04-.73-.08" vector-effect="non-scaling-stroke"/><path stroke="#03795e" d="m182.07 139.96.03-.48a.48.37-42.6 0 0-.85.08l-.64 2.08" vector-effect="non-scaling-stroke"/><path stroke="#7b7658" d="M180.61 141.64q-1.78-2.03-.91-4.25.19-.49 0-.95l-.58-1.41q-.31-.74.47-.84l1.93-.25q.71-.1.48-.71l-1.01-2.56q-.18-.49.09-1.01l.8-1.48a.49.46-83.2 0 0-.52-.7l-.6.18q-.62.19-.67-.45-.09-1.18-.81-2.81a.4.4 0 0 1 .46-.55q.7.15 1.42.77a.42.42 0 0 0 .37.09q.25-.06.3-.22.09-.24.02-.48-.18-.65-.39-1.05-.31-.59.19-.9l4.36-2.66a.86.81-15.2 0 1 1.3.69l-.08 1.44q-.01.25.28.11l.42-.2a.61.56-10.7 0 0 .34-.45q.27-2.28.95-4.49.1-.34.29-.38.22-.05.55.1" vector-effect="non-scaling-stroke"/><path stroke="#03795e" d="m190.06 116.22 3.46 2.49q.57.4.45-.28-.22-1.19-.91-2.34-.28-.47-.06-1.03l.55-1.42q.28-.71-.27-.19-1.15 1.12-2.08 1.46" vector-effect="non-scaling-stroke"/><path stroke="#7b7658" d="m191.2 114.91-1.53-3.87" vector-effect="non-scaling-stroke"/><path stroke="#03795e" d="M189.67 111.04q-.06-.56-.35-1.18-.22-.47.13-.84.51-.55 0-1.14a.69.69 0 0 1-.04-.86q.25-.35.31-.6.2-.89-.55-.12-1.17 1.18-1.25 3.1-.03.49-.49.65-.66.22-.7.24-.72.25-.63.69.08.42.67 1.02" vector-effect="non-scaling-stroke"/><path stroke="#7b7658" d="M186.77 112q-.22 2.04-3.39-.44-.45-.36-.22-.84l.48-1.03a.67.66 36.6 0 0-.11-.73q-.99-1.09-2.64-1.01-.69.03-.66-.64l.34-6.28q.01-.24.24-.27.25-.04.42-.26a.35.35 0 0 0 .06-.32q-.38-1.2-.29-2.35" vector-effect="non-scaling-stroke"/><path stroke="#03795e" d="M181 97.83q.71-.91.78-1.23.17-.79-.44-.23-1.3 1.21-2.49.12-.73-.68-.77.32-.02.71.46 1.77" vector-effect="non-scaling-stroke"/><path stroke="#7b7658" d="M178.54 98.58q.72.98-2.34 2.88-1.18.73-1.53-.61-.2-.77-.85-2.13-.36-.77-.9-.91-.57-.16-.66.43-.09.68.39 2.13a.7.7 0 0 1-.28.81l-1.47.95q-.34.22-.25.68.5 2.89 1.03 4.28.21.55-.28.78l-2.39 1.1q-.79.37-.7-.43.01-.05.34-.59.27-.42-.14-.7-1.97-1.33-3.05-.58-.68.46-.58-.35.15-1.16.88-2.91.18-.44.12-.92-.57-4.28-3.53-6.64a.9.9 0 0 1-.26-.34q-.46-1.03.79-1.45a1.33 1.33 0 0 0 .72-.57q1.61-2.63 4.91-3.82a.4.4 0 0 0 .15-.65q-.63-.62-1.77-1.05-.5-.19-.68-.72l-.87-2.51q-.19-.56.34-.74l1.46-.49q.46-.16.45-.68l-.17-6.07" vector-effect="non-scaling-stroke"/><path stroke="#7d775a" d="M174.79 71.44q.01.72.2 1.06a.47.47 0 0 0 .7.15q1.24-.92 1.83-.55.49.3.51.87l.04 1.79q.01.27.31.12l.31-.15a.12.02-70.1 0 0 .04-.08l.52-1.34a.63.63 0 0 1 .84-.35q1.84.79 2.24 2.49.16.69.41.03l.61-1.65q.14-.39-.33-.67-1.41-.85-.99-2.57.12-.48.61-.57 1.22-.23 1.59-1.36" vector-effect="non-scaling-stroke"/><path stroke="#7ff0b8" d="M223.24 95.18q-.62-.78-.58-1.92" vector-effect="non-scaling-stroke"/><path stroke="#7d775a" d="M180.05 67.52q.41.2.91.06M175.06 71.04q.79-.32.58-1.32" vector-effect="non-scaling-stroke"/><path stroke="#7eeeb6" d="M280.84 126.76q.03-.85-.37-1.35M259.18 102.01q-.37 0-.94.21" vector-effect="non-scaling-stroke"/><path stroke="#7b7658" d="M163.76 75.01q.52.84 1.27 1.45.35.28.64.23.36-.06.62-.46" vector-effect="non-scaling-stroke"/><path stroke="#7eeeb6" d="M178.54 98.58q.87-.95 2.46-.75M186.77 112q1.03-2.74 2.9-.96M191.2 114.91q-.46 1.04-1.14 1.31M180.61 141.64q1.56 1.06 1.46-1.68M182.8 140.04q.26 2.21 1.2 1.93M185.28 143.14l-1 2.8M181.69 152.16q-.88.59-1.94.36" vector-effect="non-scaling-stroke"/><path stroke="#7b7658" d="M153 153.63q-.93-.24-1.41-.66-.5-.44.13-.66.84-.31 1.17-1.09a1.25 1.25 0 0 0-.01-.97q-.87-2.06-.43-3.5.16-.49-.2-.87-1.62-1.71-.45-3.66.26-.43.01-.86-.15-.27-.4-.32-.33-.08-.79.16-.83.44-1.01.51a.42.41-9.4 0 1-.57-.4q.06-2.07-.48-3.25-.88-1.87-1.54-.04-.23.64-1.62 1.33-.47.23-.42.75.05.56 1.18 1.15.98.52.03 1.08-.95.57-2.42.73-.52.05-.73.52-.58 1.26-1.13 1.88-.53.61-.66-.17l-.22-1.4q-.09-.51-.53-.75-.57-.32-1.04.02-.38.28-.44.78l-.16 1.4q-.09.78-.73.34l-.38-.26q-.67-.46-.69.37l-.06 2.41q-.02.7.65.46l.61-.21q.51-.18.83.22.61.77.76 1.24.19.57-.4.74l-.82.23q-.56.16-.27.67.64 1.12.45 2.3M133.05 153.18c.23-2.47-1.89-3.19-3.7-4.32a.3.3 0 0 1 .06-.55q1.31-.43 2.09-1.21a1.52 1.52 0 0 0-.17-2.29q-1.33-1.01-1.24-2.01c.04-.41.71-1.21.9-1.76q.2-.58-.38-.77l-1.15-.38q-.55-.18-.54-.73.01-1.5.93-2.86a.75.74-61.4 0 0-.32-1.11l-1.9-.8a.4.39-78.6 0 0-.53.37q-.02.91-.51 1.07-.65.2-.6-.47.23-3.38-1.17-5.94-.1-.19-.17-.22-.27-.14-.42.1-.23.35-.18.77.22 1.85-1.48 2.18a.65.63-18.5 0 0-.47.91l.63 1.27q.22.42.07.84-.5 1.39-.24 1.96.24.53-.35.59-1.33.14-2.5.8a.68.57-38.4 0 1-.71-.01l-.3-.25q-.57-.47-.64.32l-.21 2.84a.67.66-58.8 0 1-1.23.31q-1.31-2.13-2.84-2.49-.78-.18-.39.52l.22.39a.74.71 59.1 0 1-.22.97q-2.23 1.43-2.92 4.87-.15.74.13 1.35.47 1.01.68 1.27.19.24.36.26.3.04.34-.25l.15-1.05q.1-.68.73-.25l1.04.72q.21.14.3-.11.08-.24.08-.28.07-.99 1.02.04l.39.44q.1.1-.24.54l-1.79 2.28M98.25 145.66q1.67-2.02 2.37-4.92.23-.96-.5-.28-.89.83-1.4-.24-.35-.71-.95-.95-.61-.25-.74.42l-.29 1.62q-.18.94-.58.14c-.48-.93-.91-1.82-.44-2.82q.2-.4-.02-.84-.27-.54.16-.95 1.72-1.65.01-4.26-.32-.5-.77-.11-.94.82-2.04.06a1.11 1.1 53.2 0 0-.97-.14q-.5.17-.7.62-.21.47.03.94.57 1.11.46 2.37a.5.46 26.3 0 1-.83.25l-2.16-2.13a1.08 1.06-65 0 1-.31-.87q.14-1.41-1.04-3.38-.43-.7-.04-1.45.26-.49-.29-.62-1.8-.43-2.36-2.6-.04-.15-.15-.25-.15-.11-.24-.13a.28.26-78.3 0 0-.3.22l-.67 2.84q-.1.43.16.94.29.6.27 1.08-.02.44-.35.76l-1.18 1.12q-.35.33-.1.73.5.82.64 1.62.1.55-.51.54l-1.9-.01a.32.31-13.8 0 0-.3.46q1.05 1.88.77 3.36-.34 1.85 1.12.67.9-.73 2.31-.58.53.05.25.51-1.04 1.66-.1 3.9" vector-effect="non-scaling-stroke"/><path stroke="#03795e" d="M226.12 95.89q-.28.27-.07.61.16.27.37.32a.34.34 0 0 0 .42-.27q.07-.43-.16-.66a.4.4 0 0 0-.56 0M253.19 102.6q.06.22.37.26a.25.25 0 0 0 .26-.35q-.16-.31-.32-.35-.47-.13-.31.44" vector-effect="non-scaling-stroke"/><path stroke="#7d775a" d="M89.21 136.26q-.21.47.17.65a.27.27 0 0 0 .35-.11q.19-.35-.05-.62a.28.28 0 0 0-.47.08M112.24 143.13q-.23.35-.11.53.22.32.47.02.35-.42.05-.62-.24-.17-.41.07" vector-effect="non-scaling-stroke"/></g><path d="M216.26 66.44q-.72 1.7.11 2.38a1.08 1.08 0 0 0 1.71-.47q.23-.64-.07-1.1.83.07 1.16.52-.68 2.49 2.29 3.42.5.16.26.62-2.01 3.79-5.07 5.78-.43.27-.02.58 2.07 1.55.82 3.22a.22.22 0 0 0 .25.33q.73-.25 1.32-2.12.18-.56.74-.4.54.15 1.77 2.79a1.03.84 61 0 0 1.35.54q.15-.11.57-.18.54-.08.57.47.12 3.14-1.18 5.95-.22.46-.13.96.33 1.86-.05 3.53-1.04.85-1.72.69-1.59-.37-.53.87 1.62 1.88 2.83.36l2.36-.24q1.61-.17 1.12-1.71-1.1-3.41.51-3.81.38-.09.55-.05.44.09.37.79-.01.11.06.34a.33.32-41.8 0 0 .6.03l1.32-3.02q.22-.5.68-.17 2.21 1.58 2.59 3.97.09.61.5.14.27-.31.39-.33a.9.88 63.4 0 1 .83.28q1.11 1.25 1.99 1.4a.23.23 0 0 0 .21-.38q-1.88-2.08-.83-3.65.32-.49-.25-.57l-1.3-.2a.95.95 0 0 1-.65-1.48q1-1.45.07-2.84-.32-.5.16-.84 1.2-.86 2.85-1.01.2-.02.29-.2.13-.24-.37-.67a3.42 3.41-12.3 0 0-.74-.47q-1.73-.82-1.81-2.79a.71.7 5.6 0 0-.54-.66q-1.15-.28-1.27 1.63a.36.28 14.3 0 1-.47.2l-.24-.08q-.46-.18-.4-.57.32-1.8 1.33-5.86.12-.51.66-.5.8.02 1.31.69.38.49.7-.04.41-.7.54-1.84 2.09-.44 4.42.76-.38 1.52 1.45 3.99.33.44.79.13.2-.14.37-.53.16-.39-.08-1.03-.63-1.67.79-2.83a.51.51 0 0 1 .69.05l1.04 1.12a.45.43 48.5 0 1-.02.64q-.37.31-.38.4-.17 1.07.72.39 1.48-1.11 2.92-.27.45.26.9-.01.59-.35 1.03-1.08 1.66.89 3.05 2.38.08 1.13 1.17.91l2.5 1.99-2.32 3.72q-.36.59.35.6h.49q.72 0 .37.6-.6 1 .21 2.07.32.42.07.88-.27.5-.81.47-.87-.05-.97-.13-1.68-1.38-.86.52.43.98 1.47 3.06.23.45-.22.7l-2.3 1.28q-1.68.93-.06 1.35.94.24 1.47 2.86.1.48-.19.89l-2.17 3.12q-.34.49.14.9.96.81 2.55-.16a.91.91 0 0 1 .93-.01q.67.39 1.25.09.55-.28.72.31l.4 1.42 1.07 2.18q.24.48.5.02 1.77-3.12-.63-2.41.37-1.42 1.28-2.8.72-1.1.34-2.47-.18-.66-.65-.16-.21.22-.48.29-.6.16-.4-.61.01-.07.64-1.21.44-.79.97-.9 1.35-.3 2.47-.75.6-.25.6.4 0 2.76.2 3.58.17.7.63.37.23-.17.38-1.23a.62.62 0 0 1 .71-.52q1.11.16 1.82 1.21.97 1.42 1.27-.27.12-.68.05-.98-.19-.8.39-.59 1.02.36 2.14 0 .59-.18.52.43-.17 1.44-.83 2.81-.23.49.06.96.82 1.34.14 2.43-.3.49-.02 1.04l.35.71q.26.54-.21.9-.31.24-.72.32-.61.12-.46.73.06.26.33.66a.93.92 19.3 0 1 .12.24q.37 1.16-1.02 1.56-.59.17-.29.7 1.25 2.25-1.32 4.78a.64.62 23.7 0 0 .43 1.07l2.58.14q.48.03.65.59.44 1.42.36 3-.01.06.04.1l.24.22q.18.17.21-.08l.42-3.22q.09-.72.73-.64l.31.04q.68.09.38-.53l-1.25-2.51a.64.64 0 0 1 .67-.92q1.68.27 3.89 2.06a1 1 0 0 0 .92.18q1.39-.42 2.45-1.89a.48.31 40.6 0 1 .6.08l.24.22q.12.12-.03.41l-1.02 1.93a.61.58 20.9 0 0 .4.84l.86.23q.59.15.33.7-1.08 2.3-1.09 4.85 0 .41-.04.5-.09.18-.29.24-.56.19-.43.77.4 1.64-.28 3.39-.48.25-.81.64-.33.38-.09.83.47.86.66 1.85.01.07.08.1.15.08.25.06.25-.03.25-.27l.03-1.86q3.43.29 3.54 3.79.02.75.43.11.45-.72-.16-1.83-.93-1.71.68-2.63a.64.64 0 0 0 .04-1.08q-.67-.47-1.06-1.08-.34-.53.22-.79l1.9-.88a.46.43-9.8 0 1 .65.44l-.04.35q-.08.6.58.55.26-.02.52-.41.33-.51.75-.53l.56-.01q.47-.01.52-.53.15-1.55.19-1.64.3-.75.64.08.44 1.04 1.58 1.58.46.21.64.68.28.7.81 1.15-.62 4.66-2.27 9.22-2.28 6.32-4.7 12.62-.82 2.14-2.52 11.56-.51 2.85-1.44 4.15c-2.18 3.07-7.84 2.78-10.68 1.46-4.98-2.32-6.96-3.47-11.68-.43q-2.84 1.82-6.63 2.91-3.47.99-8.3.01-6.52-1.31-8.16-1.95-7.05-2.74-9.97-3.45-6.06-1.47-13.03-.31-4.41.73-10.75 1.65-6.88 1-10.87.79-14.34-.74-27.51-6.63c-1.81-.81-3.44-.97-5.31-1.26q1.2-1.1-.23-2-.27-.17-.55-.05-.24.1-.29.17a.49.49 0 0 1-.89-.19q-.52-3.03 1.23-3.42.55-.12.66-.68l.23-1.22q.43-2.2 1.58-.36.14.23.6 1.02.1.18.24.23.25.09.4.08.74-.04.4-.7-.67-1.32 1.22-1.45a.95.74-75.4 0 0 .68-.52l1.25-2.53q.29-.59-.39-.66l-.34-.04a.53.51 11.7 0 1-.45-.67l.91-2.9a.45.44-54.8 0 1 .78-.14q.65.88 1 1.99a.61.61 0 0 0 1.08.17q.72-1.07 1.14-1.28.55-.29.62.34l.28 2.65q.07.63.7.32l.28-.14q.65-.32.63.34-.07 1.96 1.84 2.65.56.21.54.79l-.1 3.04q-.01.52.51.33 1.11-.4 1.66-.15.56.26.59-.36.02-.49.29-.76.53-.53.7.2l.94 4q.13 2.06-.12 3.73-.1.62-.33 1.03-.34.6-.48.97a.57.57 0 0 0 .36.76q1.03.31 1.29.2.62-.28.26-.8l-.42-.58q-.31-.44.21-.67l1.63-.75q.47-.22.9.11.82.64 1.94.37.51-.12.24-.58-1.36-2.31-3.54-4.15l1.43-3.31q.19-.45.21-.94.05-1.12.95-1.97 2.51.65 2.81-1.24.08-.46.5-.6l.98-.32q.41-.13.49-.63.05-.27-.3-.72a.6.59-11.9 0 0-.34-.23q-1.33-.3-1.75-1.98-.07-.26-.31-.13l-.3.17q-.06.04-.05.11.42 1.76-.73 2.77l-1.28-1.17q.12-1.81-.35-3.34-.18-.58-.55-.1-.37.5-.3 1.51l-.73-.08.03-.48a.48.37-42.6 0 0-.85.08l-.64 2.08q-1.78-2.03-.91-4.25.19-.49 0-.95l-.58-1.41q-.31-.74.47-.84l1.93-.25q.71-.1.48-.71l-1.01-2.56q-.18-.49.09-1.01l.8-1.48a.49.46-83.2 0 0-.52-.7l-.6.18q-.62.19-.67-.45-.09-1.18-.81-2.81a.4.4 0 0 1 .46-.55q.7.15 1.42.77a.42.42 0 0 0 .37.09q.25-.06.3-.22.09-.24.02-.48-.18-.65-.39-1.05-.31-.59.19-.9l4.36-2.66a.86.81-15.2 0 1 1.3.69l-.08 1.44q-.01.25.28.11l.42-.2a.61.56-10.7 0 0 .34-.45q.27-2.28.95-4.49.1-.34.29-.38.22-.05.55.1l3.46 2.49q.57.4.45-.28-.22-1.19-.91-2.34-.28-.47-.06-1.03l.55-1.42q.28-.71-.27-.19-1.15 1.12-2.08 1.46l-1.53-3.87q-.06-.56-.35-1.18-.22-.47.13-.84.51-.55 0-1.14a.69.69 0 0 1-.04-.86q.25-.35.31-.6.2-.89-.55-.12-1.17 1.18-1.25 3.1-.03.49-.49.65-.66.22-.7.24-.72.25-.63.69.08.42.67 1.02-.22 2.04-3.39-.44-.45-.36-.22-.84l.48-1.03a.67.66 36.6 0 0-.11-.73q-.99-1.09-2.64-1.01-.69.03-.66-.64l.34-6.28q.01-.24.24-.27.25-.04.42-.26a.35.35 0 0 0 .06-.32q-.38-1.2-.29-2.35.71-.91.78-1.23.17-.79-.44-.23-1.3 1.21-2.49.12-.73-.68-.77.32-.02.71.46 1.77.72.98-2.34 2.88-1.18.73-1.53-.61-.2-.77-.85-2.13-.36-.77-.9-.91-.57-.16-.66.43-.09.68.39 2.13a.7.7 0 0 1-.28.81l-1.47.95q-.34.22-.25.68.5 2.89 1.03 4.28.21.55-.28.78l-2.39 1.1q-.79.37-.7-.43.01-.05.34-.59.27-.42-.14-.7-1.97-1.33-3.05-.58-.68.46-.58-.35.15-1.16.88-2.91.18-.44.12-.92-.57-4.28-3.53-6.64a.9.9 0 0 1-.26-.34q-.46-1.03.79-1.45a1.33 1.33 0 0 0 .72-.57q1.61-2.63 4.91-3.82a.4.4 0 0 0 .15-.65q-.63-.62-1.77-1.05-.5-.19-.68-.72l-.87-2.51q-.19-.56.34-.74l1.46-.49q.46-.16.45-.68l-.17-6.07 3.27-.04a1.5 1.49-74.3 0 0 1.25-.7l2.85-4.58q.01.72.2 1.06a.47.47 0 0 0 .7.15q1.24-.92 1.83-.55.49.3.51.87l.04 1.79q.01.27.31.12l.31-.15a.12.02-70.1 0 0 .04-.08l.52-1.34a.63.63 0 0 1 .84-.35q1.84.79 2.24 2.49.16.69.41.03l.61-1.65q.14-.39-.33-.67-1.41-.85-.99-2.57.12-.48.61-.57 1.22-.23 1.59-1.36l3.06 1.61a1.88 1.87 47.4 0 0 1.59.07q2.6-1.09 6.76-2.96 4.56-2.04 11.76-.72 2.8.52 7.1-.6.59-.15 1.76.38m9.86 29.45q-.28.27-.07.61.16.27.37.32a.34.34 0 0 0 .42-.27q.07-.43-.16-.66a.4.4 0 0 0-.56 0m27.07 6.71q.06.22.37.26a.25.25 0 0 0 .26-.35q-.16-.31-.32-.35-.47-.13-.31.44"/><path fill="#f6ebb0" d="M216.26 66.44q.95.16 1.75.81.3.46.07 1.1a1.08 1.08 0 0 1-1.71.47q-.83-.68-.11-2.38"/><path fill="#f9eeb3" d="M180.05 67.52q.41.2.91.06 1.82.02 3.27 1.08-.37 1.13-1.59 1.36-.49.09-.61.57-.42 1.72.99 2.57.47.28.33.67l-.61 1.65q-.25.66-.41-.03-.4-1.7-2.24-2.49a.63.63 0 0 0-.84.35l-.52 1.34a.12.02-70.1 0 1-.04.08l-.31.15q-.3.15-.31-.12l-.04-1.79q-.02-.57-.51-.87-.59-.37-1.83.55a.47.47 0 0 1-.7-.15q-.19-.34-.2-1.06.14-.07.27-.4.79-.32.58-1.32 1.55-2.14 4.41-2.2"/><path d="M180.96 67.58q-.5.14-.91-.06z"/><path fill="#f9eeb3" d="M219.17 67.77q6.63.57 12.78 2.97 1.14.44 2.18.32 1.12-.13 2.23-.39-.13 1.14-.54 1.84-.32.53-.7.04-.51-.67-1.31-.69-.54-.01-.66.5-1.01 4.06-1.33 5.86-.06.39.4.57l.24.08a.36.28 14.3 0 0 .47-.2q.12-1.91 1.27-1.63a.71.7 5.6 0 1 .54.66q.08 1.97 1.81 2.79a3.42 3.41-12.3 0 1 .74.47q.5.43.37.67-.09.18-.29.2-1.65.15-2.85 1.01-.48.34-.16.84.93 1.39-.07 2.84a.95.95 0 0 0 .65 1.48l1.3.2q.57.08.25.57-1.05 1.57.83 3.65a.23.23 0 0 1-.21.38q-.88-.15-1.99-1.4a.9.88 63.4 0 0-.83-.28q-.12.02-.39.33-.41.47-.5-.14-.38-2.39-2.59-3.97-.46-.33-.68.17l-1.32 3.02a.33.32-41.8 0 1-.6-.03q-.07-.23-.06-.34.07-.7-.37-.79-.17-.04-.55.05-1.61.4-.51 3.81.49 1.54-1.12 1.71l-2.36.24q-.62-.78-.58-1.92.38-1.67.05-3.53-.09-.5.13-.96 1.3-2.81 1.18-5.95-.03-.55-.57-.47-.42.07-.57.18a1.03.84 61 0 1-1.35-.54q-1.23-2.64-1.77-2.79-.56-.16-.74.4-.59 1.87-1.32 2.12a.22.22 0 0 1-.25-.33q1.25-1.67-.82-3.22-.41-.31.02-.58 3.06-1.99 5.07-5.78.24-.46-.26-.62-2.97-.93-2.29-3.42"/><path d="M175.64 69.72q.21 1-.58 1.32.03-.68.58-1.32"/><path fill="#f9eeb3" d="M251 72.4q-.44.73-1.03 1.08-.45.27-.9.01-1.44-.84-2.92.27-.89.68-.72-.39.01-.09.38-.4a.45.43 48.5 0 0 .02-.64l-1.04-1.12a.51.51 0 0 0-.69-.05q-1.42 1.16-.79 2.83.24.64.08 1.03-.17.39-.37.53-.46.31-.79-.13-1.83-2.47-1.45-3.99 3.34-1.55 6.55-1.61.51-.01.91.32z"/><path fill="#f6ebb0" d="M163.76 75.01q.52.84 1.27 1.45.35.28.64.23.36-.06.62-.46.79.19 1.13.53l.17 6.07q.01.52-.45.68l-1.46.49q-.53.18-.34.74l.87 2.51q.18.53.68.72 1.14.43 1.77 1.05a.4.4 0 0 1-.15.65q-3.3 1.19-4.91 3.82a1.33 1.33 0 0 1-.72.57q-1.25.42-.79 1.45a.9.9 0 0 0 .26.34q2.96 2.36 3.53 6.64.06.48-.12.92-.73 1.75-.88 2.91-.1.81.58.35 1.08-.75 3.05.58.41.28.14.7-.33.54-.34.59-.09.8.7.43l2.39-1.1q.49-.23.28-.78-.53-1.39-1.03-4.28-.09-.46.25-.68l1.47-.95a.7.7 0 0 0 .28-.81q-.48-1.45-.39-2.13.09-.59.66-.43.54.14.9.91.65 1.36.85 2.13.35 1.34 1.53.61 3.06-1.9 2.34-2.88.87-.95 2.46-.75-.09 1.15.29 2.35a.35.35 0 0 1-.06.32q-.17.22-.42.26-.23.03-.24.27l-.34 6.28q-.03.67.66.64 1.65-.08 2.64 1.01a.67.66 36.6 0 1 .11.73l-.48 1.03q-.23.48.22.84 3.17 2.48 3.39.44 1.03-2.74 2.9-.96l1.53 3.87q-.46 1.04-1.14 1.31-.33-.15-.55-.1-.19.04-.29.38-.68 2.21-.95 4.49a.61.56-10.7 0 1-.34.45l-.42.2q-.29.14-.28-.11l.08-1.44a.86.81-15.2 0 0-1.3-.69l-4.36 2.66q-.5.31-.19.9.21.4.39 1.05.07.24-.02.48-.05.16-.3.22a.42.42 0 0 1-.37-.09q-.72-.62-1.42-.77a.4.4 0 0 0-.46.55q.72 1.63.81 2.81.05.64.67.45l.6-.18a.49.46-83.2 0 1 .52.7l-.8 1.48q-.27.52-.09 1.01l1.01 2.56q.23.61-.48.71l-1.93.25q-.78.1-.47.84l.58 1.41q.19.46 0 .95-.87 2.22.91 4.25 1.56 1.06 1.46-1.68l.73.08q.26 2.21 1.2 1.93l1.28 1.17-1 2.8q-.9.85-.95 1.97-.02.49-.21.94l-1.43 3.31q-.88.59-1.94.36l-.94-4q-.17-.73-.7-.2-.27.27-.29.76-.03.62-.59.36-.55-.25-1.66.15-.52.19-.51-.33l.1-3.04q.02-.58-.54-.79-1.91-.69-1.84-2.65.02-.66-.63-.34l-.28.14q-.63.31-.7-.32l-.28-2.65q-.07-.63-.62-.34-.42.21-1.14 1.28a.61.61 0 0 1-1.08-.17q-.35-1.11-1-1.99a.45.44-54.8 0 0-.78.14l-.91 2.9a.53.51 11.7 0 0 .45.67l.34.04q.68.07.39.66l-1.25 2.53a.95.74-75.4 0 1-.68.52q-1.89.13-1.22 1.45.34.66-.4.7-.15.01-.4-.08-.14-.05-.24-.23-.46-.79-.6-1.02-1.15-1.84-1.58.36l-.23 1.22q-.11.56-.66.68-1.75.39-1.23 3.42a.49.49 0 0 0 .89.19q.05-.07.29-.17.28-.12.55.05 1.43.9.23 2l-7.01-.79q-.93-.24-1.41-.66-.5-.44.13-.66.84-.31 1.17-1.09a1.25 1.25 0 0 0-.01-.97q-.87-2.06-.43-3.5.16-.49-.2-.87-1.62-1.71-.45-3.66.26-.43.01-.86-.15-.27-.4-.32-.33-.08-.79.16-.83.44-1.01.51a.42.41-9.4 0 1-.57-.4q.06-2.07-.48-3.25-.88-1.87-1.54-.04-.23.64-1.62 1.33-.47.23-.42.75.05.56 1.18 1.15.98.52.03 1.08-.95.57-2.42.73-.52.05-.73.52-.58 1.26-1.13 1.88-.53.61-.66-.17l-.22-1.4q-.09-.51-.53-.75-.57-.32-1.04.02-.38.28-.44.78l-.16 1.4q-.09.78-.73.34l-.38-.26q-.67-.46-.69.37l-.06 2.41q-.02.7.65.46l.61-.21q.51-.18.83.22.61.77.76 1.24.19.57-.4.74l-.82.23q-.56.16-.27.67.64 1.12.45 2.3l-5.76-.67c.23-2.47-1.89-3.19-3.7-4.32a.3.3 0 0 1 .06-.55q1.31-.43 2.09-1.21a1.52 1.52 0 0 0-.17-2.29q-1.33-1.01-1.24-2.01c.04-.41.71-1.21.9-1.76q.2-.58-.38-.77l-1.15-.38q-.55-.18-.54-.73.01-1.5.93-2.86a.75.74-61.4 0 0-.32-1.11l-1.9-.8a.4.39-78.6 0 0-.53.37q-.02.91-.51 1.07-.65.2-.6-.47.23-3.38-1.17-5.94-.1-.19-.17-.22-.27-.14-.42.1-.23.35-.18.77.22 1.85-1.48 2.18a.65.63-18.5 0 0-.47.91l.63 1.27q.22.42.07.84-.5 1.39-.24 1.96.24.53-.35.59-1.33.14-2.5.8a.68.57-38.4 0 1-.71-.01l-.3-.25q-.57-.47-.64.32l-.21 2.84a.67.66-58.8 0 1-1.23.31q-1.31-2.13-2.84-2.49-.78-.18-.39.52l.22.39a.74.71 59.1 0 1-.22.97q-2.23 1.43-2.92 4.87-.15.74.13 1.35.47 1.01.68 1.27.19.24.36.26.3.04.34-.25l.15-1.05q.1-.68.73-.25l1.04.72q.21.14.3-.11.08-.24.08-.28.07-.99 1.02.04l.39.44q.1.1-.24.54l-1.79 2.28-15.41-5.39q1.67-2.02 2.37-4.92.23-.96-.5-.28-.89.83-1.4-.24-.35-.71-.95-.95-.61-.25-.74.42l-.29 1.62q-.18.94-.58.14c-.48-.93-.91-1.82-.44-2.82q.2-.4-.02-.84-.27-.54.16-.95 1.72-1.65.01-4.26-.32-.5-.77-.11-.94.82-2.04.06a1.11 1.1 53.2 0 0-.97-.14q-.5.17-.7.62-.21.47.03.94.57 1.11.46 2.37a.5.46 26.3 0 1-.83.25l-2.16-2.13a1.08 1.06-65 0 1-.31-.87q.14-1.41-1.04-3.38-.43-.7-.04-1.45.26-.49-.29-.62-1.8-.43-2.36-2.6-.04-.15-.15-.25-.15-.11-.24-.13a.28.26-78.3 0 0-.3.22l-.67 2.84q-.1.43.16.94.29.6.27 1.08-.02.44-.35.76l-1.18 1.12q-.35.33-.1.73.5.82.64 1.62.1.55-.51.54l-1.9-.01a.32.31-13.8 0 0-.3.46q1.05 1.88.77 3.36-.34 1.85 1.12.67.9-.73 2.31-.58.53.05.25.51-1.04 1.66-.1 3.9-5.44-.33-8.43-3.18c-3.92-3.73 1.41-14.92 3.82-18.41q3.9-5.66 8.39-11.6c1.47-1.94 2.87-2.74 5.47-3.27q16.86-3.44 35.81-9.73 6.36-2.12 10.33-4.85 9.16-6.3 10.29-17.39.21-2.05 2.26-2.83 1.23-.47 3.07.02 4.21 1.13 8.18 2.95"/><path fill="#f9eeb3" d="M255.22 75.69q-1.09.22-1.17-.91.72.32 1.17.91"/><path d="M166.29 76.23q-.26.4-.62.46-.29.05-.64-.23-.75-.61-1.27-1.45 1.49.27 2.53 1.22"/><path fill="#f6ebb0" d="m257.72 77.68 4.2 3.54a2.26 2.25 61.4 0 0 1.74.52q5.27-.68 5.53-.72 3.1-.41 5.61-.02 6.09.95 10.54 2.64c3.97 1.51 3.01 8.46 2.02 11.49q-.18.56.44.71l1.07.28q.57.14.64.65.5 3.31 2.11 5.62 1.02 1.45 1.32 3.79 1.11 8.65 1.33 11.56.22 2.8-.44 6.34-.53-.45-.81-1.15-.18-.47-.64-.68-1.14-.54-1.58-1.58-.34-.83-.64-.08-.04.09-.19 1.64-.05.52-.52.53l-.56.01q-.42.02-.75.53-.26.39-.52.41-.66.05-.58-.55l.04-.35a.46.43-9.8 0 0-.65-.44l-1.9.88q-.56.26-.22.79.39.61 1.06 1.08a.64.64 0 0 1-.04 1.08q-1.61.92-.68 2.63.61 1.11.16 1.83-.41.64-.43-.11-.11-3.5-3.54-3.79.03-.85-.37-1.35.68-1.75.28-3.39-.13-.58.43-.77.2-.06.29-.24.04-.09.04-.5.01-2.55 1.09-4.85.26-.55-.33-.7l-.86-.23a.61.58 20.9 0 1-.4-.84l1.02-1.93q.15-.29.03-.41l-.24-.22a.48.31 40.6 0 0-.6-.08q-1.06 1.47-2.45 1.89a1 1 0 0 1-.92-.18q-2.21-1.79-3.89-2.06a.64.64 0 0 0-.67.92l1.25 2.51q.3.62-.38.53l-.31-.04q-.64-.08-.73.64l-.42 3.22q-.03.25-.21.08l-.24-.22q-.05-.04-.04-.1.08-1.58-.36-3-.17-.56-.65-.59l-2.58-.14a.64.62 23.7 0 1-.43-1.07q2.57-2.53 1.32-4.78-.3-.53.29-.7 1.39-.4 1.02-1.56a.93.92 19.3 0 0-.12-.24q-.27-.4-.33-.66-.15-.61.46-.73.41-.08.72-.32.47-.36.21-.9l-.35-.71q-.28-.55.02-1.04.68-1.09-.14-2.43-.29-.47-.06-.96.66-1.37.83-2.81.07-.61-.52-.43-1.12.36-2.14 0-.58-.21-.39.59.07.3-.05.98-.3 1.69-1.27.27-.71-1.05-1.82-1.21a.62.62 0 0 0-.71.52q-.15 1.06-.38 1.23-.46.33-.63-.37-.2-.82-.2-3.58 0-.65-.6-.4-1.12.45-2.47.75-.53.11-.97.9-.63 1.14-.64 1.21-.2.77.4.61.27-.07.48-.29.47-.5.65.16.38 1.37-.34 2.47-.91 1.38-1.28 2.8-.37 0-.94.21l-.4-1.42q-.17-.59-.72-.31-.58.3-1.25-.09a.91.91 0 0 0-.93.01q-1.59.97-2.55.16-.48-.41-.14-.9l2.17-3.12q.29-.41.19-.89-.53-2.62-1.47-2.86-1.62-.42.06-1.35l2.3-1.28q.45-.25.22-.7-1.04-2.08-1.47-3.06-.82-1.9.86-.52.1.08.97.13.54.03.81-.47.25-.46-.07-.88-.81-1.07-.21-2.07.35-.6-.37-.6h-.49q-.71-.01-.35-.6z"/><path fill="#05f1bc" d="M222.66 93.26q-.04 1.14.58 1.92-1.21 1.52-2.83-.36-1.06-1.24.53-.87.68.16 1.72-.69M226.12 95.89a.4.4 0 0 1 .56 0q.23.23.16.66a.34.34 0 0 1-.42.27q-.21-.05-.37-.32-.21-.34.07-.61M181 97.83q-1.59-.2-2.46.75-.48-1.06-.46-1.77.04-1 .77-.32 1.19 1.09 2.49-.12.61-.56.44.23-.07.32-.78 1.23M253.5 102.16q.16.04.32.35a.25.25 0 0 1-.26.35q-.31-.04-.37-.26-.16-.57.31-.44M259.18 102.01q2.4-.71.63 2.41-.26.46-.5-.02l-1.07-2.18q.57-.21.94-.21M189.67 111.04q-1.87-1.78-2.9.96-.59-.6-.67-1.02-.09-.44.63-.69.04-.02.7-.24.46-.16.49-.65.08-1.92 1.25-3.1.75-.77.55.12-.06.25-.31.6a.69.69 0 0 0 .04.86q.51.59 0 1.14-.35.37-.13.84.29.62.35 1.18M190.06 116.22q.68-.27 1.14-1.31.93-.34 2.08-1.46.55-.52.27.19l-.55 1.42q-.22.56.06 1.03.69 1.15.91 2.34.12.68-.45.28z"/><path d="m98.25 145.66-13.68-2.36q-.94-2.24.1-3.9.28-.46-.25-.51-1.41-.15-2.31.58-1.46 1.18-1.12-.67.28-1.48-.77-3.36a.32.31-13.8 0 1 .3-.46l1.9.01q.61.01.51-.54-.14-.8-.64-1.62-.25-.4.1-.73l1.18-1.12q.33-.32.35-.76.02-.48-.27-1.08-.26-.51-.16-.94l.67-2.84a.28.26-78.3 0 1 .3-.22q.09.02.24.13.11.1.15.25.56 2.17 2.36 2.6.55.13.29.62-.39.75.04 1.45 1.18 1.97 1.04 3.38a1.08 1.06-65 0 0 .31.87l2.16 2.13a.5.46 26.3 0 0 .83-.25q.11-1.26-.46-2.37-.24-.47-.03-.94.2-.45.7-.62a1.11 1.1 53.2 0 1 .97.14q1.1.76 2.04-.06.45-.39.77.11 1.71 2.61-.01 4.26-.43.41-.16.95.22.44.02.84c-.47 1-.04 1.89.44 2.82q.4.8.58-.14l.29-1.62q.13-.67.74-.42.6.24.95.95.51 1.07 1.4.24.73-.68.5.28-.7 2.9-2.37 4.92m-9.04-9.4q-.21.47.17.65a.27.27 0 0 0 .35-.11q.19-.35-.05-.62a.28.28 0 0 0-.47.08"/><path fill="#05f1bc" d="M280.47 125.41q.4.5.37 1.35l-.03 1.86q0 .24-.25.27-.1.02-.25-.06-.07-.03-.08-.1-.19-.99-.66-1.85-.24-.45.09-.83.33-.39.81-.64"/><path d="M133.05 153.18q-9.88.12-19.39-2.13l1.79-2.28q.34-.44.24-.54l-.39-.44q-.95-1.03-1.02-.04 0 .04-.08.28-.09.25-.3.11l-1.04-.72q-.63-.43-.73.25l-.15 1.05q-.04.29-.34.25-.17-.02-.36-.26-.21-.26-.68-1.27-.28-.61-.13-1.35.69-3.44 2.92-4.87a.74.71 59.1 0 0 .22-.97l-.22-.39q-.39-.7.39-.52 1.53.36 2.84 2.49a.67.66-58.8 0 0 1.23-.31l.21-2.84q.07-.79.64-.32l.3.25a.68.57-38.4 0 0 .71.01q1.17-.66 2.5-.8.59-.06.35-.59-.26-.57.24-1.96.15-.42-.07-.84l-.63-1.27a.65.63-18.5 0 1 .47-.91q1.7-.33 1.48-2.18-.05-.42.18-.77.15-.24.42-.1.07.03.17.22 1.4 2.56 1.17 5.94-.05.67.6.47.49-.16.51-1.07a.4.39-78.6 0 1 .53-.37l1.9.8a.75.74-61.4 0 1 .32 1.11q-.92 1.36-.93 2.86-.01.55.54.73l1.15.38q.58.19.38.77c-.19.55-.86 1.35-.9 1.76q-.09 1 1.24 2.01a1.52 1.52 0 0 1 .17 2.29q-.78.78-2.09 1.21a.3.3 0 0 0-.06.55c1.81 1.13 3.93 1.85 3.7 4.32m-20.81-10.05q-.23.35-.11.53.22.32.47.02.35-.42.05-.62-.24-.17-.41.07"/><path fill="#f9eeb3" d="M89.21 136.26a.28.28 0 0 1 .47-.08q.24.27.05.62a.27.27 0 0 1-.35.11q-.38-.18-.17-.65"/><path d="m153 153.63-14.19.22q.19-1.18-.45-2.3-.29-.51.27-.67l.82-.23q.59-.17.4-.74-.15-.47-.76-1.24-.32-.4-.83-.22l-.61.21q-.67.24-.65-.46l.06-2.41q.02-.83.69-.37l.38.26q.64.44.73-.34l.16-1.4q.06-.5.44-.78.47-.34 1.04-.02.44.24.53.75l.22 1.4q.13.78.66.17.55-.62 1.13-1.88.21-.47.73-.52 1.47-.16 2.42-.73.95-.56-.03-1.08-1.13-.59-1.18-1.15-.05-.52.42-.75 1.39-.69 1.62-1.33.66-1.83 1.54.04.54 1.18.48 3.25a.42.41-9.4 0 0 .57.4q.18-.07 1.01-.51.46-.24.79-.16.25.05.4.32.25.43-.01.86-1.17 1.95.45 3.66.36.38.2.87-.44 1.44.43 3.5a1.25 1.25 0 0 1 .01.97q-.33.78-1.17 1.09-.63.22-.13.66.48.42 1.41.66"/><path fill="#05f1bc" d="M184 141.97q-.94.28-1.2-1.93-.07-1.01.3-1.51.37-.48.55.1.47 1.53.35 3.34M182.07 139.96q.1 2.74-1.46 1.68l.64-2.08a.48.37-42.6 0 1 .85-.08zM184.28 145.94l1-2.8q1.15-1.01.73-2.77-.01-.07.05-.11l.3-.17q.24-.13.31.13.42 1.68 1.75 1.98a.6.59-11.9 0 1 .34.23q.35.45.3.72-.08.5-.49.63l-.98.32q-.42.14-.5.6-.3 1.89-2.81 1.24"/><path fill="#f9eeb3" d="M112.24 143.13q.17-.24.41-.07.3.2-.05.62-.25.3-.47-.02-.12-.18.11-.53"/><path fill="#05f1bc" d="M181.69 152.16q2.18 1.84 3.54 4.15.27.46-.24.58-1.12.27-1.94-.37-.43-.33-.9-.11l-1.63.75q-.52.23-.21.67l.42.58q.36.52-.26.8-.26.11-1.29-.2a.57.57 0 0 1-.36-.76q.14-.37.48-.97.23-.41.33-1.03.25-1.67.12-3.73 1.06.23 1.94-.36"/></svg>