<svg xmlns="http://www.w3.org/2000/svg" viewBox="0 0 382 382"><g fill="none" stroke="#4b3066" stroke-width="2"><path d="M216.51 66.46q1.04 1.03-.2 1.92a.18.18 0 0 0-.02.27q.13.14.27.14.15 0 .31-.24.54-.85 1.39-1.22M218.84 67.54q.65 2.6 2.68 3.75.43.24.19.68-1.02 1.82-1.58 2.19-2.26 1.51-3.03 3.67a1.22 1.01 41.6 0 0 .15.98l.28.42a.66.55-44.5 0 1-.08.7q-.55.72-.47 1.39.07.61.62.36l1.79-.81q.56-.25.21-.71l-.23-.3q-.39-.52.2-.79.31-.15.85.07.46.19.59.68.59 2.28 2.12 1.61.58-.25.73.38l.63 2.56q.12.46-.19.78l-.4.4q-.3.3-.38.9-.35 2.69-.01 3.72.17.53-.24.91-1.38 1.3-1.18 3.42.03.25.27.25l.29.01q.27.01.28-.29l.03-.68q.02-.62.59-.43 2.22.74 2.96 2.44a.01.01 0 0 0 .02.01l.3-.15a.29.29 0 0 0 .12-.39q-1.02-1.93-.5-3.41.18-.52-.06-1.01-.29-.64-.24-1.21.04-.5.55-.55l2.58-.27q.96-.1.23-.64-.28-.21-.34-.46a.35.35 0 0 1 .51-.39l4.32 2.58a1.31 1.27 24.2 0 0 1.91-.69q.38-1.21.85-1.77a.34.34 0 0 0-.26-.56q-.52 0-1.72.73-.54.33-.67-.29-.83-4.19 2.66-6.66a.2.2 0 0 0-.14-.37q-.33.03-.53.19-.84.66-.9.03l-.28-2.99a.48.45 18.8 0 0-.17-.31q-1.31-1.1-1.96 1.39-.12.45-.54.24-.23-.13-.58-.57-.38-.5-.14-1.09.22-.51-.08-1.26-.2-.48.27-.69 1.96-.9 1.15-3.97M233.91 71.23l1.39 1.54q.13.14.26.01l.24-.25q.03-.03 0-.06-.63-.65-.61-1.46M241.01 71.43q-.36 2.13 1.01 3.18 1.02.78.9-.5-.12-1.39 1.1-2.87.52-.64.78.17l.33 1.07a.71.7-11.3 0 0 .74.49q.6-.06 1.27-.6.4-.31.75.05.85.86 1.85.38.67-.32.42-1.19M257.74 77.65l-1.15 1.93a.81.57-81.5 0 1-.24.26l-1.01.61q-.5.3-.23.83l1.58 3.11q.24.47-.29.54l-1.74.2a.71.71 0 0 0-.55 1.02l1.51 3.06q.21.43-.29.64-2.02.88-3.13 2.65-.31.5.25.31.3-.11.54-.31.51-.44.87.14 1.08 1.76 1.12 3.28.01.56-.51.75-1.41.52-2.13 2.72-.18.55.4.61.83.09 1.59.62.43.31.37-.22-.02-.27-.29-.46-.38-.27-.14-.66t.97-.17q2.43.76 3.6 3.23.04.08.3.32.09.08.28.18.5.25.57-.31.09-.85-.64-1.95-.32-.46.17-.72l2.06-1.11q.34-.19.14-.63-.76-1.68-2.18-2.39-.69-.35-.47-1.11.15-.52.69-.5 2.3.1 3.59-.65.58-.35.6.3l.05 1.36q.02.65.61.43l.55-.2a.82.77 55.4 0 1 .81.17l2.44 2.23q.41.38.47-.21l.18-1.83q.06-.56.61-.66.82-.15 1.59-.03a.81.81 0 0 1 .62 1.13l-.72 1.64a.94.87 37.5 0 0 .16.95l1.27 1.48a.55.5 52.2 0 1-.06.77q-1.56 1.07-.89 2.52.14.31.02.85-.13.56-.8.77a.6.53 77.4 0 0-.36.64q.02.13.17.35a1.2 1.2 0 0 1 .18.63q.01.99-.9 1.37-.54.23-.32.77.98 2.39-1.34 4.41a.38.36-62.8 0 0 .19.66l2.84.18q.53.03.56.55l.09 1.75q0 .08.08.16.13.12.28.14.26.05.34-.19l1.18-3.29q.17-.49-.06-.9l-.47-.81a.39.34-14.8 0 1 .35-.52q2.08-.12 2.36 1.1.16.71.78.32.77-.48 1.74.34.09.07.52.14.29.04.52-.06.49-.21.49-.74.01-.53.18-.8.34-.54.56.06 1.53 4.2.66 9.15-.07.37-.37.47l-.36.13q-.41.14-.21.56.87 1.82-.86 3.05a.9.9 0 0 0-.04 1.44q1.03.82 1.59.19a1.91 1.21 46.5 0 1 2.3.59l.71.79q.5.56.32-.35-.21-1.11.23-1.77a1.06.93 51.5 0 0 .04-.97l-.67-1.46a.79.78 77.3 0 1 .7-1.13q1.09 0 2.19.42.51.2 1-.02l1.31-.6q.48-.21.21-.67-.65-1.1.6-1.92a.51.51 0 0 1 .77.33q.29 1.48 1.6 1.55a.41.37-66.8 0 1 .23.66q-.06.07-.27.22-.54.39.01.76.56.37 1.4.37M293.78 123.94q-.57.24-.05.9M159.46 154.42q.74-.85 1.22-1.79.37-.73.15-1.22-.3-.66-.87-1.12-.49-.4-.8.15-.1.19-.32 1.12a.29.27 67.5 0 1-.03.07q-.25.49-.63.08-.48-.51.12-2.93.03-.16 1.87-3.35.37-.64.96.07l.65.77q1.21 1.44 1.09-.57-.01-.06.3-.89.18-.46.64-.65 1.39-.56 2.03-1.56.28-.44.03-.9-1.02-1.87-.84-3.76.05-.52.28-.73.32-.28.96-.13a.85.85 0 0 1 .64.67q.27 1.54 1.39 1.31.35-.07.62-.32l.27-.24q.69-.62.74.29l.07 1.44q.04.62.65.4 1.21-.45 1.22-.45.48-.31.86.1.34.38.1.84-.77 1.43-.77 2.21 0 .57.6.64l1.74.19a.63.57 17.7 0 1 .51.88q-.96 1.59-.97 3.02-.01 1.39.92.35.13-.15.37-.9.16-.51.7-.53.99-.03 1.89.42.6.3.78 1.48.52 3.43-.1 5.39-.24.76.29 1.18l.42.33q.42.33.55-.1.42-1.42 1.3-2.3.4-.4.81-.06l.41.35a.42.4-48.9 0 0 .57-.04q.14-.16.1-.37-.09-.48-.15-.56-1.23-1.54-1.59-2.2a1.75.98-68 0 1-.13-.99q.08-.59 1.02-3.65.34-1.11 1.66-1.84 1.82-1 2.62-.43a.44.43-72.5 0 0 .69-.36v-1.39q0-.6-.55-.73-1.39-.32-2.63.35-.89.48-1.36-.42-1.38-2.68-1.89-2.88-.65-.24-.64.35l.05 1.98q.01.24-.27.32l-.24.07a.36.32-14.7 0 1-.43-.23q-.58-2.45-.45-6.03.02-.62.31-.97l1.27-1.52a1.16.88 64.1 0 0 .18-.89q-.78-3.83-1.31-6.1-.45-1.94 1.98-3.62.47-.33.99-.08.69.32.92-.73a.52.52 0 0 1 .67-.37q.31.1.43.22a.6.5 37.8 0 0 .87-.03q.19-.33.15-.82-.03-.26.19-.4.13-.1.34-.08.32.02.36.34l.13.97q.02.16.15.12l.27-.08q.27-.08.28-.27l.21-2.52a.84.83 19.5 0 1 1.3-.62q1.11.75 1.89.28a1.42.95 60.7 0 1 1.55.79q.25.44.63.51a1.14.24 52.2 0 0-.61-1.25q-1.21-1.42-.48-2.37 1.07-1.39-.67-1-.21.04-.91.51-.57.38-.63-.31-.11-1.4-.9-3-.28-.55.05-1.09l.47-.77q.48-.8-.42-.54-1.19.34-2.99 1.38-.59.34-.16 1.03l.64 1.04a.46.38-22.4 0 1-.31.59q-.66.19-1.5-.47-.59-.45-.74-1.18-.5-2.63-3.18-3.3a1.46 1.46 0 0 1-.99-2.01q.51-1.16.4-2.1a1.26.95 64.2 0 1 .15-.76l1.1-1.73q.3-.47.04-.91-.37-.62-.34-1.12.01-.29.55-.81.44-.42.55-.85.11-.44-.07-.66l-.47-.55a.61.49 35.6 0 0-.98.05l-.22.88q-.12.49-.62.18l-.41-.25q-.71-.44-.74.3l-.1 2.64q-.03.6-.62.28l-.49-.27q-.64-.35-.76.27l-.16.91q-.04.23-.27.3-.22.06-.3.03c-.66-.3-1.6-2.4-2.6-4.31q-.62-1.2-.75.14-.09.93-.11 3.61-.01.61-.59.33l-.54-.27q-.57-.28-.67.33-.27 1.55.07 2.6c.24.79 1.05 1.39 1.51 2.03q.41.59-.25.95l-2.42 1.29q-.66.35-.9-.36-.53-1.6-2.54-2.46a.85.85 0 0 1-.51-.76q-.02-1.14.79-2.59a1.66 1.66 0 0 0-.65-2.26q-1.35-.75-1.23-3.13.02-.49-.44-.66-.41-.15-.64.14-.4.5-.71-.12l-.81-1.64q-.32-.65.39-.69l1.3-.06q.7-.03.54-.74l-.1-.42q-.13-.6.43-.78 2.55-.82 3.28-2.32.36-.73.76-.16.18.27.55.32.6.1.29-.44l-.95-1.69q-.23-.4-.75-.66-1.16-.58-1.69-2.34-.17-.56.35-.69l.73-.17q.52-.13.47-.69-.3-3.33.9-6.36M174.65 71.49q.06.62.3 1.01.31.51.75.17l.55-.41q.41-.32.96-.11l4.84 1.76q1.06.39.54-.61-2.31-4.46 1.7-4.74M163.97 75.08q1.38 2.37 2.27 1.15M154.1 153.72l-1.8-2.12a.81.81 0 0 1-.08-.92q.93-1.6.03-3.26-.28-.5.03-.99 1.1-1.7-.16-2.94-.42-.42-.91-.09-.28.18-.63.29-.77.24-.16-.52.14-.17 1.25-1.48.6-.7.19-1.27-.33-.47-.9-.26l-1.46.53q-.55.2-.5-.38.14-1.63-.37-3.1-.28-.8-.8-.94-.6-.18-.73.44-.26 1.21-1.31 1.39-.62.12-.33.68.93 1.77.48 2.71-.16.35-1.95.65-1.71.29-2.08 2.3-.05.29-.35.33l-.3.03q-.15.02-.16-.13l-.09-1.85q-.03-.53-.53-.68-.52-.16-.83 0-.37.18-.62.87-.33.9-1.34 1.15-.52.13-.58.66-.18 1.65.2 2.75.22.64.49.04l.12-.29q.11-.23.37-.22.22.01.32.18.12.19 0 .44-.1.18-.27.29-.38.24-.13.62 1.27 1.87.31 3.85a.6.6 0 0 0 .21.76l.76.5M132 153.15l.8-1.68q.23-.47-.02-.93-.71-1.34-2.25-1.72a.71.71 0 0 1-.45-1.02q.63-1.18 1.21-1.63.4-.32.28-.81-.45-1.91-1.95-2.56-1.06-.45-.12-.61l.71-.11a.82.82 0 0 0 .65-.57q.24-.76.04-1.81-.1-.52-.61-.62-.83-.18-1.15-.49a.67.66-51 0 1-.09-.85q1.03-1.52.89-3.04-.05-.6-.64-.64-1.36-.11-2.67.67-.44.26-.56-.29c-.17-.75.39-3.87-1.16-5.15a.46.46 0 0 0-.73.22q-.57 1.9-2.87 3.56-.62.44.14.76l.85.36q.52.22.66.69.38 1.22-.58 2.39a1.01.65-60.7 0 1-.75.39l-3.24-.38q-.35-.04-.34.44.04 2.87 0 3.65-.01.2-.1.3-.12.14-.22.18-.42.18-.53-.27-.56-2.41-3.63-3.28-.55-.15-.56.37l-.08 3.38q-.01.5-.48.71l-.67.29q-.43.19-.53.66-.42 1.81-.21 3.72.08.75.65.28l.33-.27q.45-.37.95.05.61.51 1.28-.17a.44.44 0 0 1 .7.08q.14.25.13.48-.01.27-.33.7-.79 1.02-1.05 2.44M101 146.53q.05-.62-.14-.97a.46.46 0 0 0-.77-.08q-.18.24-.13.76M98.9 145.88l2.12-4.74a.77.77 0 0 0-.84-1.07q-2.08.39-2.42-1.63-.1-.54-.48-.15-.19.21-.27.9a.81.81 0 0 1-.56.7q-.38.12-.91.09a.37.37 0 0 1-.25-.63q.71-.74.15-1.57a.65.65 0 0 1 .13-.86q.87-.71 1.23-1.53a2.31 2.27-69.3 0 0-1.38-3.15l-2.84-.88q-.47-.14-.75.14l-.4.39q-.43.42-.11.85.84 1.1.65 2.45-.08.52-.57.72-.55.21-1.65.12-.56-.05-.49-.61.01-.08.39-.65.32-.48-.25-.63l-.87-.22q-.63-.17-.19-.63.67-.7-.07-1.58-.28-.33.04-.71l.34-.41q.27-.32-.1-.46l-.98-.35q-.53-.2-.2-.61.77-.97.62-1.41-.24-.7-.83-.33l-.36.22q-.67.42-.72-.36l-.06-.79q-.21-2.86-2-.65-.23.28-.76 1.97a1.05 1.05 0 0 0 .15.94q1.34 1.81-.63 3.04-.53.33-.33.97l.14.46q.13.42-.29.59-1.11.43-1.74 1.08a.82.82 0 0 0-.16.89q.53 1.26.62 2.45.05.67.62.32.99-.59 2.7.54.31.2.14.53-.78 1.5.46 3.71M177.52 74.08q-.29.02-.36.29-.08.37.23.48.43.15.89.07 1.05-.18.17-.83-.05-.04-.93-.01" vector-effect="non-scaling-stroke"/></g><path d="M216.51 66.46q1.04 1.03-.2 1.92a.18.18 0 0 0-.02.27q.13.14.27.14.15 0 .31-.24.54-.85 1.39-1.22l.58.21q.65 2.6 2.68 3.75.43.24.19.68-1.02 1.82-1.58 2.19-2.26 1.51-3.03 3.67a1.22 1.01 41.6 0 0 .15.98l.28.42a.66.55-44.5 0 1-.08.7q-.55.72-.47 1.39.07.61.62.36l1.79-.81q.56-.25.21-.71l-.23-.3q-.39-.52.2-.79.31-.15.85.07.46.19.59.68.59 2.28 2.12 1.61.58-.25.73.38l.63 2.56q.12.46-.19.78l-.4.4q-.3.3-.38.9-.35 2.69-.01 3.72.17.53-.24.91-1.38 1.3-1.18 3.42.03.25.27.25l.29.01q.27.01.28-.29l.03-.68q.02-.62.59-.43 2.22.74 2.96 2.44a.01.01 0 0 0 .02.01l.3-.15a.29.29 0 0 0 .12-.39q-1.02-1.93-.5-3.41.18-.52-.06-1.01-.29-.64-.24-1.21.04-.5.55-.55l2.58-.27q.96-.1.23-.64-.28-.21-.34-.46a.35.35 0 0 1 .51-.39l4.32 2.58a1.31 1.27 24.2 0 0 1.91-.69q.38-1.21.85-1.77a.34.34 0 0 0-.26-.56q-.52 0-1.72.73-.54.33-.67-.29-.83-4.19 2.66-6.66a.2.2 0 0 0-.14-.37q-.33.03-.53.19-.84.66-.9.03l-.28-2.99a.48.45 18.8 0 0-.17-.31q-1.31-1.1-1.96 1.39-.12.45-.54.24-.23-.13-.58-.57-.38-.5-.14-1.09.22-.51-.08-1.26-.2-.48.27-.69 1.96-.9 1.15-3.97l1.04-.04 1.39 1.54q.13.14.26.01l.24-.25q.03-.03 0-.06-.63-.65-.61-1.46 2.81-.99 5.82.42-.36 2.13 1.01 3.18 1.02.78.9-.5-.12-1.39 1.1-2.87.52-.64.78.17l.33 1.07a.71.7-11.3 0 0 .74.49q.6-.06 1.27-.6.4-.31.75.05.85.86 1.85.38.67-.32.42-1.19l7.58 6.04-1.15 1.93a.81.57-81.5 0 1-.24.26l-1.01.61q-.5.3-.23.83l1.58 3.11q.24.47-.29.54l-1.74.2a.71.71 0 0 0-.55 1.02l1.51 3.06q.21.43-.29.64-2.02.88-3.13 2.65-.31.5.25.31.3-.11.54-.31.51-.44.87.14 1.08 1.76 1.12 3.28.01.56-.51.75-1.41.52-2.13 2.72-.18.55.4.61.83.09 1.59.62.43.31.37-.22-.02-.27-.29-.46-.38-.27-.14-.66t.97-.17q2.43.76 3.6 3.23.04.08.3.32.09.08.28.18.5.25.57-.31.09-.85-.64-1.95-.32-.46.17-.72l2.06-1.11q.34-.19.14-.63-.76-1.68-2.18-2.39-.69-.35-.47-1.11.15-.52.69-.5 2.3.1 3.59-.65.58-.35.6.3l.05 1.36q.02.65.61.43l.55-.2a.82.77 55.4 0 1 .81.17l2.44 2.23q.41.38.47-.21l.18-1.83q.06-.56.61-.66.82-.15 1.59-.03a.81.81 0 0 1 .62 1.13l-.72 1.64a.94.87 37.5 0 0 .16.95l1.27 1.48a.55.5 52.2 0 1-.06.77q-1.56 1.07-.89 2.52.14.31.02.85-.13.56-.8.77a.6.53 77.4 0 0-.36.64q.02.13.17.35a1.2 1.2 0 0 1 .18.63q.01.99-.9 1.37-.54.23-.32.77.98 2.39-1.34 4.41a.38.36-62.8 0 0 .19.66l2.84.18q.53.03.56.55l.09 1.75q0 .08.08.16.13.12.28.14.26.05.34-.19l1.18-3.29q.17-.49-.06-.9l-.47-.81a.39.34-14.8 0 1 .35-.52q2.08-.12 2.36 1.1.16.71.78.32.77-.48 1.74.34.09.07.52.14.29.04.52-.06.49-.21.49-.74.01-.53.18-.8.34-.54.56.06 1.53 4.2.66 9.15-.07.37-.37.47l-.36.13q-.41.14-.21.56.87 1.82-.86 3.05a.9.9 0 0 0-.04 1.44q1.03.82 1.59.19a1.91 1.21 46.5 0 1 2.3.59l.71.79q.5.56.32-.35-.21-1.11.23-1.77a1.06.93 51.5 0 0 .04-.97l-.67-1.46a.79.78 77.3 0 1 .7-1.13q1.09 0 2.19.42.51.2 1-.02l1.31-.6q.48-.21.21-.67-.65-1.1.6-1.92a.51.51 0 0 1 .77.33q.29 1.48 1.6 1.55a.41.37-66.8 0 1 .23.66q-.06.07-.27.22-.54.39.01.76.56.37 1.4.37 0 .49-.13.75-.57.24-.05.9c-1.17 7.19-4.27 14.23-6.86 21.08q-.89 2.35-2.53 11.58-.49 2.77-1.44 4.12c-2.17 3.08-7.83 2.79-10.68 1.47-4.78-2.23-6.98-3.51-11.49-.55q-2.89 1.91-6.89 3.04-3.38.96-8.17.02-6.29-1.24-8.03-1.91-7.02-2.71-10-3.47-5.88-1.5-12.86-.39-11.76 1.87-16.27 2.31-5.06.5-11.32-.29-11.05-1.4-22.17-6.27c-1.84-.8-3.61-.88-5.56-1.16q.74-.85 1.22-1.79.37-.73.15-1.22-.3-.66-.87-1.12-.49-.4-.8.15-.1.19-.32 1.12a.29.27 67.5 0 1-.03.07q-.25.49-.63.08-.48-.51.12-2.93.03-.16 1.87-3.35.37-.64.96.07l.65.77q1.21 1.44 1.09-.57-.01-.06.3-.89.18-.46.64-.65 1.39-.56 2.03-1.56.28-.44.03-.9-1.02-1.87-.84-3.76.05-.52.28-.73.32-.28.96-.13a.85.85 0 0 1 .64.67q.27 1.54 1.39 1.31.35-.07.62-.32l.27-.24q.69-.62.74.29l.07 1.44q.04.62.65.4 1.21-.45 1.22-.45.48-.31.86.1.34.38.1.84-.77 1.43-.77 2.21 0 .57.6.64l1.74.19a.63.57 17.7 0 1 .51.88q-.96 1.59-.97 3.02-.01 1.39.92.35.13-.15.37-.9.16-.51.7-.53.99-.03 1.89.42.6.3.78 1.48.52 3.43-.1 5.39-.24.76.29 1.18l.42.33q.42.33.55-.1.42-1.42 1.3-2.3.4-.4.81-.06l.41.35a.42.4-48.9 0 0 .57-.04q.14-.16.1-.37-.09-.48-.15-.56-1.23-1.54-1.59-2.2a1.75.98-68 0 1-.13-.99q.08-.59 1.02-3.65.34-1.11 1.66-1.84 1.82-1 2.62-.43a.44.43-72.5 0 0 .69-.36v-1.39q0-.6-.55-.73-1.39-.32-2.63.35-.89.48-1.36-.42-1.38-2.68-1.89-2.88-.65-.24-.64.35l.05 1.98q.01.24-.27.32l-.24.07a.36.32-14.7 0 1-.43-.23q-.58-2.45-.45-6.03.02-.62.31-.97l1.27-1.52a1.16.88 64.1 0 0 .18-.89q-.78-3.83-1.31-6.1-.45-1.94 1.98-3.62.47-.33.99-.08.69.32.92-.73a.52.52 0 0 1 .67-.37q.31.1.43.22a.6.5 37.8 0 0 .87-.03q.19-.33.15-.82-.03-.26.19-.4.13-.1.34-.08.32.02.36.34l.13.97q.02.16.15.12l.27-.08q.27-.08.28-.27l.21-2.52a.84.83 19.5 0 1 1.3-.62q1.11.75 1.89.28a1.42.95 60.7 0 1 1.55.79q.25.44.63.51a1.14.24 52.2 0 0-.61-1.25q-1.21-1.42-.48-2.37 1.07-1.39-.67-1-.21.04-.91.51-.57.38-.63-.31-.11-1.4-.9-3-.28-.55.05-1.09l.47-.77q.48-.8-.42-.54-1.19.34-2.99 1.38-.59.34-.16 1.03l.64 1.04a.46.38-22.4 0 1-.31.59q-.66.19-1.5-.47-.59-.45-.74-1.18-.5-2.63-3.18-3.3a1.46 1.46 0 0 1-.99-2.01q.51-1.16.4-2.1a1.26.95 64.2 0 1 .15-.76l1.1-1.73q.3-.47.04-.91-.37-.62-.34-1.12.01-.29.55-.81.44-.42.55-.85.11-.44-.07-.66l-.47-.55a.61.49 35.6 0 0-.98.05l-.22.88q-.12.49-.62.18l-.41-.25q-.71-.44-.74.3l-.1 2.64q-.03.6-.62.28l-.49-.27q-.64-.35-.76.27l-.16.91q-.04.23-.27.3-.22.06-.3.03c-.66-.3-1.6-2.4-2.6-4.31q-.62-1.2-.75.14-.09.93-.11 3.61-.01.61-.59.33l-.54-.27q-.57-.28-.67.33-.27 1.55.07 2.6c.24.79 1.05 1.39 1.51 2.03q.41.59-.25.95l-2.42 1.29q-.66.35-.9-.36-.53-1.6-2.54-2.46a.85.85 0 0 1-.51-.76q-.02-1.14.79-2.59a1.66 1.66 0 0 0-.65-2.26q-1.35-.75-1.23-3.13.02-.49-.44-.66-.41-.15-.64.14-.4.5-.71-.12l-.81-1.64q-.32-.65.39-.69l1.3-.06q.7-.03.54-.74l-.1-.42q-.13-.6.43-.78 2.55-.82 3.28-2.32.36-.73.76-.16.18.27.55.32.6.1.29-.44l-.95-1.69q-.23-.4-.75-.66-1.16-.58-1.69-2.34-.17-.56.35-.69l.73-.17q.52-.13.47-.69-.3-3.33.9-6.36 1.71.19 3.27-.27.49-.14.75-.57l2.79-4.48q.06.62.3 1.01.31.51.75.17l.55-.41q.41-.32.96-.11l4.84 1.76q1.06.39.54-.61-2.31-4.46 1.7-4.74 1.78 1.27 3.72 1.84.48.15.94-.06 5.6-2.51 6.67-2.94 4.25-1.69 8.15-1.17 6.11.83 7.71.51 3.54-.71 5.03-.28m-38.99 7.62q-.29.02-.36.29-.08.37.23.48.43.15.89.07 1.05-.18.17-.83-.05-.04-.93-.01"/><path fill="#955fcc" d="M218.26 67.33q-.85.37-1.39 1.22-.16.24-.31.24-.14 0-.27-.14a.18.18 0 0 1 .02-.27q1.24-.89.2-1.92zM184.29 68.56q-4.01.28-1.7 4.74.52 1-.54.61l-4.84-1.76q-.55-.21-.96.11l-.55.41q-.44.34-.75-.17-.24-.39-.3-1.01 2.71-6.09 9.64-2.93M232.87 71.27q.81 3.07-1.15 3.97-.47.21-.27.69.3.75.08 1.26-.24.59.14 1.09.35.44.58.57.42.21.54-.24.65-2.49 1.96-1.39a.48.45 18.8 0 1 .17.31l.28 2.99q.06.63.9-.03.2-.16.53-.19a.2.2 0 0 1 .14.37q-3.49 2.47-2.66 6.66.13.62.67.29 1.2-.73 1.72-.73a.34.34 0 0 1 .26.56q-.47.56-.85 1.77a1.31 1.27 24.2 0 1-1.91.69l-4.32-2.58a.35.35 0 0 0-.51.39q.06.25.34.46.73.54-.23.64l-2.58.27q-.51.05-.55.55-.05.57.24 1.21.24.49.06 1.01-.52 1.48.5 3.41a.29.29 0 0 1-.12.39l-.3.15a.01.01 0 0 1-.02-.01q-.74-1.7-2.96-2.44-.57-.19-.59.43l-.03.68q-.01.3-.28.29l-.29-.01q-.24 0-.27-.25-.2-2.12 1.18-3.42.41-.38.24-.91-.34-1.03.01-3.72.08-.6.38-.9l.4-.4q.31-.32.19-.78l-.63-2.56q-.15-.63-.73-.38-1.53.67-2.12-1.61-.13-.49-.59-.68-.54-.22-.85-.07-.59.27-.2.79l.23.3q.35.46-.21.71l-1.79.81q-.55.25-.62-.36-.08-.67.47-1.39a.66.55-44.5 0 0 .08-.7l-.28-.42a1.22 1.01 41.6 0 1-.15-.98q.77-2.16 3.03-3.67.56-.37 1.58-2.19.24-.44-.19-.68-2.03-1.15-2.68-3.75 3.46.77 7.15 1.21 1.63.19 6.88 2.52M250.16 71.61q.25.87-.42 1.19-1 .48-1.85-.38-.35-.36-.75-.05-.67.54-1.27.6a.71.7-11.3 0 1-.74-.49l-.33-1.07q-.26-.81-.78-.17-1.22 1.48-1.1 2.87.12 1.28-.9.5-1.37-1.05-1.01-3.18 6.16-3.28 9.15.18M235.19 71.01q-.02.81.61 1.46.03.03 0 .06l-.24.25q-.13.13-.26-.01l-1.39-1.54q.66-.53 1.28-.22M163.97 75.08q1.38 2.37 2.27 1.15l1.6.58q-1.2 3.03-.9 6.36.05.56-.47.69l-.73.17q-.52.13-.35.69.53 1.76 1.69 2.34.52.26.75.66l.95 1.69q.31.54-.29.44-.37-.05-.55-.32-.4-.57-.76.16-.73 1.5-3.28 2.32-.56.18-.43.78l.1.42q.16.71-.54.74l-1.3.06q-.71.04-.39.69l.81 1.64q.31.62.71.12.23-.29.64-.14.46.17.44.66-.12 2.38 1.23 3.13a1.66 1.66 0 0 1 .65 2.26q-.81 1.45-.79 2.59a.85.85 0 0 0 .51.76q2.01.86 2.54 2.46.24.71.9.36l2.42-1.29q.66-.36.25-.95c-.46-.64-1.27-1.24-1.51-2.03q-.34-1.05-.07-2.6.1-.61.67-.33l.54.27q.58.28.59-.33.02-2.68.11-3.61.13-1.34.75-.14c1 1.91 1.94 4.01 2.6 4.31q.08.03.3-.03.23-.07.27-.3l.16-.91q.12-.62.76-.27l.49.27q.59.32.62-.28l.1-2.64q.03-.74.74-.3l.41.25q.5.31.62-.18l.22-.88a.61.49 35.6 0 1 .98-.05l.47.55q.18.22.07.66-.11.43-.55.85-.54.52-.55.81-.03.5.34 1.12.26.44-.04.91l-1.1 1.73a1.26.95 64.2 0 0-.15.76q.11.94-.4 2.1a1.46 1.46 0 0 0 .99 2.01q2.68.67 3.18 3.3.15.73.74 1.18.84.66 1.5.47a.46.38-22.4 0 0 .31-.59l-.64-1.04q-.43-.69.16-1.03 1.8-1.04 2.99-1.38.9-.26.42.54l-.47.77q-.33.54-.05 1.09.79 1.6.9 3 .06.69.63.31.7-.47.91-.51 1.74-.39.67 1-.73.95.48 2.37a1.14.24 52.2 0 1 .61 1.25q-.38-.07-.63-.51a1.42.95 60.7 0 0-1.55-.79q-.78.47-1.89-.28a.84.83 19.5 0 0-1.3.62l-.21 2.52q-.01.19-.28.27l-.27.08q-.13.04-.15-.12l-.13-.97q-.04-.32-.36-.34-.21-.02-.34.08-.22.14-.19.4.04.49-.15.82a.6.5 37.8 0 1-.87.03q-.12-.12-.43-.22a.52.52 0 0 0-.67.37q-.23 1.05-.92.73-.52-.25-.99.08-2.43 1.68-1.98 3.62.53 2.27 1.31 6.1a1.16.88 64.1 0 1-.18.89l-1.27 1.52q-.29.35-.31.97-.13 3.58.45 6.03a.36.32-14.7 0 0 .43.23l.24-.07q.28-.08.27-.32l-.05-1.98q-.01-.59.64-.35.51.2 1.89 2.88.47.9 1.36.42 1.24-.67 2.63-.35.55.13.55.73v1.39a.44.43-72.5 0 1-.69.36q-.8-.57-2.62.43-1.32.73-1.66 1.84-.94 3.06-1.02 3.65a1.75.98-68 0 0 .13.99q.36.66 1.59 2.2.06.08.15.56.04.21-.1.37a.42.4-48.9 0 1-.57.04l-.41-.35q-.41-.34-.81.06-.88.88-1.3 2.3-.13.43-.55.1l-.42-.33q-.53-.42-.29-1.18.62-1.96.1-5.39-.18-1.18-.78-1.48-.9-.45-1.89-.42-.54.02-.7.53-.24.75-.37.9-.93 1.04-.92-.35.01-1.43.97-3.02a.63.57 17.7 0 0-.51-.88l-1.74-.19q-.6-.07-.6-.64 0-.78.77-2.21.24-.46-.1-.84-.38-.41-.86-.1-.01 0-1.22.45-.61.22-.65-.4l-.07-1.44q-.05-.91-.74-.29l-.27.24q-.27.25-.62.32-1.12.23-1.39-1.31a.85.85 0 0 0-.64-.67q-.64-.15-.96.13-.23.21-.28.73-.18 1.89.84 3.76.25.46-.03.9-.64 1-2.03 1.56-.46.19-.64.65-.31.83-.3.89.12 2.01-1.09.57l-.65-.77q-.59-.71-.96-.07-1.84 3.19-1.87 3.35-.6 2.42-.12 2.93.38.41.63-.08a.29.27 67.5 0 0 .03-.07q.22-.93.32-1.12.31-.55.8-.15.57.46.87 1.12.22.49-.15 1.22-.48.94-1.22 1.79l-5.36-.7-1.8-2.12a.81.81 0 0 1-.08-.92q.93-1.6.03-3.26-.28-.5.03-.99 1.1-1.7-.16-2.94-.42-.42-.91-.09-.28.18-.63.29-.77.24-.16-.52.14-.17 1.25-1.48.6-.7.19-1.27-.33-.47-.9-.26l-1.46.53q-.55.2-.5-.38.14-1.63-.37-3.1-.28-.8-.8-.94-.6-.18-.73.44-.26 1.21-1.31 1.39-.62.12-.33.68.93 1.77.48 2.71-.16.35-1.95.65-1.71.29-2.08 2.3-.05.29-.35.33l-.3.03q-.15.02-.16-.13l-.09-1.85q-.03-.53-.53-.68-.52-.16-.83 0-.37.18-.62.87-.33.9-1.34 1.15-.52.13-.58.66-.18 1.65.2 2.75.22.64.49.04l.12-.29q.11-.23.37-.22.22.01.32.18.12.19 0 .44-.1.18-.27.29-.38.24-.13.62 1.27 1.87.31 3.85a.6.6 0 0 0 .21.76l.76.5-7.49-.59.8-1.68q.23-.47-.02-.93-.71-1.34-2.25-1.72a.71.71 0 0 1-.45-1.02q.63-1.18 1.21-1.63.4-.32.28-.81-.45-1.91-1.95-2.56-1.06-.45-.12-.61l.71-.11a.82.82 0 0 0 .65-.57q.24-.76.04-1.81-.1-.52-.61-.62-.83-.18-1.15-.49a.67.66-51 0 1-.09-.85q1.03-1.52.89-3.04-.05-.6-.64-.64-1.36-.11-2.67.67-.44.26-.56-.29c-.17-.75.39-3.87-1.16-5.15a.46.46 0 0 0-.73.22q-.57 1.9-2.87 3.56-.62.44.14.76l.85.36q.52.22.66.69.38 1.22-.58 2.39a1.01.65-60.7 0 1-.75.39l-3.24-.38q-.35-.04-.34.44.04 2.87 0 3.65-.01.2-.1.3-.12.14-.22.18-.42.18-.53-.27-.56-2.41-3.63-3.28-.55-.15-.56.37l-.08 3.38q-.01.5-.48.71l-.67.29q-.43.19-.53.66-.42 1.81-.21 3.72.08.75.65.28l.33-.27q.45-.37.95.05.61.51 1.28-.17a.44.44 0 0 1 .7.08q.14.25.13.48-.01.27-.33.7-.79 1.02-1.05 2.44l-12.7-4.49q.05-.62-.14-.97a.46.46 0 0 0-.77-.08q-.18.24-.13.76l-1.06-.36 2.12-4.74a.77.77 0 0 0-.84-1.07q-2.08.39-2.42-1.63-.1-.54-.48-.15-.19.21-.27.9a.81.81 0 0 1-.56.7q-.38.12-.91.09a.37.37 0 0 1-.25-.63q.71-.74.15-1.57a.65.65 0 0 1 .13-.86q.87-.71 1.23-1.53a2.31 2.27-69.3 0 0-1.38-3.15l-2.84-.88q-.47-.14-.75.14l-.4.39q-.43.42-.11.85.84 1.1.65 2.45-.08.52-.57.72-.55.21-1.65.12-.56-.05-.49-.61.01-.08.39-.65.32-.48-.25-.63l-.87-.22q-.63-.17-.19-.63.67-.7-.07-1.58-.28-.33.04-.71l.34-.41q.27-.32-.1-.46l-.98-.35q-.53-.2-.2-.61.77-.97.62-1.41-.24-.7-.83-.33l-.36.22q-.67.42-.72-.36l-.06-.79q-.21-2.86-2-.65-.23.28-.76 1.97a1.05 1.05 0 0 0 .15.94q1.34 1.81-.63 3.04-.53.33-.33.97l.14.46q.13.42-.29.59-1.11.43-1.74 1.08a.82.82 0 0 0-.16.89q.53 1.26.62 2.45.05.67.62.32.99-.59 2.7.54.31.2.14.53-.78 1.5.46 3.71-5.62-.32-8.68-3.1c-4.38-3.98 1.74-15.92 4.49-19.74q5.92-8.24 7.95-10.8c1.29-1.62 2.72-2.37 4.93-2.82q13.68-2.83 27.66-7.1c9.39-2.88 16.35-4.72 22.48-10.76q5.64-5.56 6.39-13.82.2-2.22 2.22-3.11 1.27-.56 3.3 0 4.26 1.17 8.29 2.99M177.52 74.08q.88-.03.93.01.88.65-.17.83-.46.08-.89-.07-.31-.11-.23-.48.07-.27.36-.29"/><path d="M166.24 76.23q-.89 1.22-2.27-1.15 1.39.21 2.27 1.15"/><path fill="#955fcc" d="M257.74 77.65q2.07 1.51 3.83 3.25c.83.82 1.58.97 2.68.8q2.47-.4 5.84-.79 2.78-.32 5.8.26 5.75 1.12 9.01 2.29 2.42.87 2.94 3.12.91 3.94-.46 8.57-.17.61.46.73l.95.19q.61.12.7.72.43 2.89 2.23 5.74 1.02 1.62 1.29 3.95.6 5.21 1.35 12.01.12 1.08-.45 4.7-.84 0-1.4-.37-.55-.37-.01-.76.21-.15.27-.22a.41.37-66.8 0 0-.23-.66q-1.31-.07-1.6-1.55a.51.51 0 0 0-.77-.33q-1.25.82-.6 1.92.27.46-.21.67l-1.31.6q-.49.22-1 .02-1.1-.42-2.19-.42a.79.78 77.3 0 0-.7 1.13l.67 1.46a1.06.93 51.5 0 1-.04.97q-.44.66-.23 1.77.18.91-.32.35l-.71-.79a1.91 1.21 46.5 0 0-2.3-.59q-.56.63-1.59-.19a.9.9 0 0 1 .04-1.44q1.73-1.23.86-3.05-.2-.42.21-.56l.36-.13q.3-.1.37-.47.87-4.95-.66-9.15-.22-.6-.56-.06-.17.27-.18.8 0 .53-.49.74-.23.1-.52.06-.43-.07-.52-.14-.97-.82-1.74-.34-.62.39-.78-.32-.28-1.22-2.36-1.1a.39.34-14.8 0 0-.35.52l.47.81q.23.41.06.9l-1.18 3.29q-.08.24-.34.19-.15-.02-.28-.14-.08-.08-.08-.16l-.09-1.75q-.03-.52-.56-.55l-2.84-.18a.38.36-62.8 0 1-.19-.66q2.32-2.02 1.34-4.41-.22-.54.32-.77.91-.38.9-1.37a1.2 1.2 0 0 0-.18-.63q-.15-.22-.17-.35a.6.53 77.4 0 1 .36-.64q.67-.21.8-.77.12-.54-.02-.85-.67-1.45.89-2.52a.55.5 52.2 0 0 .06-.77l-1.27-1.48a.94.87 37.5 0 1-.16-.95l.72-1.64a.81.81 0 0 0-.62-1.13q-.77-.12-1.59.03-.55.1-.61.66l-.18 1.83q-.06.59-.47.21l-2.44-2.23a.82.77 55.4 0 0-.81-.17l-.55.2q-.59.22-.61-.43l-.05-1.36q-.02-.65-.6-.3-1.29.75-3.59.65-.54-.02-.69.5-.22.76.47 1.11 1.42.71 2.18 2.39.2.44-.14.63l-2.06 1.11q-.49.26-.17.72.73 1.1.64 1.95-.07.56-.57.31-.19-.1-.28-.18-.26-.24-.3-.32-1.17-2.47-3.6-3.23-.73-.22-.97.17t.14.66q.27.19.29.46.06.53-.37.22-.76-.53-1.59-.62-.58-.06-.4-.61.72-2.2 2.13-2.72.52-.19.51-.75-.04-1.52-1.12-3.28-.36-.58-.87-.14-.24.2-.54.31-.56.19-.25-.31 1.11-1.77 3.13-2.65.5-.21.29-.64l-1.51-3.06a.71.71 0 0 1 .55-1.02l1.74-.2q.53-.07.29-.54l-1.58-3.11q-.27-.53.23-.83l1.01-.61a.81.57-81.5 0 0 .24-.26zM293.78 123.94q-.12.47-.05.9-.52-.66.05-.9"/><path d="m98.9 145.88-13.96-2.54q-1.24-2.21-.46-3.71.17-.33-.14-.53-1.71-1.13-2.7-.54-.57.35-.62-.32-.09-1.19-.62-2.45a.82.82 0 0 1 .16-.89q.63-.65 1.74-1.08.42-.17.29-.59l-.14-.46q-.2-.64.33-.97 1.97-1.23.63-3.04a1.05 1.05 0 0 1-.15-.94q.53-1.69.76-1.97 1.79-2.21 2 .65l.06.79q.05.78.72.36l.36-.22q.59-.37.83.33.15.44-.62 1.41-.33.41.2.61l.98.35q.37.14.1.46l-.34.41q-.32.38-.04.71.74.88.07 1.58-.44.46.19.63l.87.22q.57.15.25.63-.38.57-.39.65-.07.56.49.61 1.1.09 1.65-.12.49-.2.57-.72.19-1.35-.65-2.45-.32-.43.11-.85l.4-.39q.28-.28.75-.14l2.84.88a2.31 2.27-69.3 0 1 1.38 3.15q-.36.82-1.23 1.53a.65.65 0 0 0-.13.86q.56.83-.15 1.57a.37.37 0 0 0 .25.63q.53.03.91-.09a.81.81 0 0 0 .56-.7q.08-.69.27-.9.38-.39.48.15.34 2.02 2.42 1.63a.77.77 0 0 1 .84 1.07zM132 153.15q-9.35.09-18.3-2.13.26-1.42 1.05-2.44.32-.43.33-.7.01-.23-.13-.48a.44.44 0 0 0-.7-.08q-.67.68-1.28.17-.5-.42-.95-.05l-.33.27q-.57.47-.65-.28-.21-1.91.21-3.72.1-.47.53-.66l.67-.29q.47-.21.48-.71l.08-3.38q.01-.52.56-.37 3.07.87 3.63 3.28.11.45.53.27.1-.04.22-.18.09-.1.1-.3.04-.78 0-3.65-.01-.48.34-.44l3.24.38a1.01.65-60.7 0 0 .75-.39q.96-1.17.58-2.39-.14-.47-.66-.69l-.85-.36q-.76-.32-.14-.76 2.3-1.66 2.87-3.56a.46.46 0 0 1 .73-.22c1.55 1.28.99 4.4 1.16 5.15q.12.55.56.29 1.31-.78 2.67-.67.59.04.64.64.14 1.52-.89 3.04a.67.66-51 0 0 .09.85q.32.31 1.15.49.51.1.61.62.2 1.05-.04 1.81a.82.82 0 0 1-.65.57l-.71.11q-.94.16.12.61 1.5.65 1.95 2.56.12.49-.28.81-.58.45-1.21 1.63a.71.71 0 0 0 .45 1.02q1.54.38 2.25 1.72.25.46.02.93zM154.1 153.72l-14.61.02-.76-.5a.6.6 0 0 1-.21-.76q.96-1.98-.31-3.85-.25-.38.13-.62.17-.11.27-.29.12-.25 0-.44-.1-.17-.32-.18-.26-.01-.37.22l-.12.29q-.27.6-.49-.04-.38-1.1-.2-2.75.06-.53.58-.66 1.01-.25 1.34-1.15.25-.69.62-.87.31-.16.83 0 .5.15.53.68l.09 1.85q.01.15.16.13l.3-.03q.3-.04.35-.33.37-2.01 2.08-2.3 1.79-.3 1.95-.65.45-.94-.48-2.71-.29-.56.33-.68 1.05-.18 1.31-1.39.13-.62.73-.44.52.14.8.94.51 1.47.37 3.1-.05.58.5.38l1.46-.53q.57-.21.9.26.41.57-.19 1.27-1.11 1.31-1.25 1.48-.61.76.16.52.35-.11.63-.29.49-.33.91.09 1.26 1.24.16 2.94-.31.49-.03.99.9 1.66-.03 3.26a.81.81 0 0 0 .08.92zM101 146.53l-1.04-.29q-.05-.52.13-.76a.46.46 0 0 1 .77.08q.19.35.14.97"/></svg>