<svg xmlns="http://www.w3.org/2000/svg" viewBox="0 0 382 382"><g fill="none" stroke="#304e18" stroke-width="2"><path d="m215.33 66.05-.99 1.15q-.42.48.18.67 1.87.6 2.83-1.04M218.04 67.26q-.41 2.35.53 3.09 2.02 1.58-.09 3.39-2.33 1.99-4.33 4.63-.41.53.23.71.28.08.86-.17 1-.44 1.86-1.45.36-.43.83-.12 1.19.8.53 1.75-.36.51.1.94.77.72 1.74.28.61-.28.65.39c.15 2.5.17 3.26-1.36 5.34q-1.89 2.55-1.81 5.29a.58.55-1.8 0 1-.56.57l-1.65.06q-.71.02-.34.59.76 1.21 2.19 2.3a.36.36 0 0 0 .58-.24q.35-2.88 2.27-1.97.63.3.74-.39.24-1.44-.66-2.45-.21-.24-.09-.45a.36.35 44.9 0 1 .61 0q.45.73 1.12.11.51-.45 1.08.12l1.14 1.15q.27.27.65-.19.06-.08.13-.44.33-1.79 1.37-.3 1.57 2.25 1.63 5.53 0 .11.27.51.18.27.2.29a.61.54-52.3 0 1 .05.69q-.38.64-.42 1.12-.15 1.59 1.06.45l.99-.94a.63.59-46.5 0 1 .81-.05q1.22 1.03.97 3.02-.03.25.19.32l.4.13q.33.11.37-.25l.1-.83q.09-.85.82-.37l.51.33q.47.31.65-.16.08-.21-.06-.86-.11-.54-.64-.69-.5-.14-1.73.13a.37.36 14.7 0 1-.36-.61l.42-.45a.7.64-39 0 0 .12-.78l-.23-.42q-.21-.37-.07-.93.23-.88-.51-1.63-.42-.44-.74.07-.21.32-.54.39-.69.14-.27-.42 1.32-1.81 1.81-4.62.35-2.02 2.09-1.16l2.31 1.14q.91.45.21-.29-1.36-1.44.1-3.23a.7.7 0 0 0-.02-.91q-.6-.67-1.89.22-.47.32-.82-.14-1.72-2.29.51-3.36.66-.31.02-.66-1.66-.91-1.86-2.01a.44.44 0 0 0-.76-.22q-.94 1-1.2 2.48a.42.35 23.1 0 1-.61.19l-.4-.26q-.6-.38-.42-1.23.53-2.52 2.02-4.44a.83.66-42.7 0 0 .13-.82l-.2-.37q-.27-.51.3-.77.33-.15.7.04.25.13.39.49.03.07.36.95.18.48.69.56.29.05.58-.04.57-.19.23-.62l-.31-.39q-.42-.55.2-1 1.32-.96 1.16-1.86M239.18 71.21q-.55 3.22 2.16 5.51.53.45.58-.24.08-1.26.31-1.95.31-.97.92-1.18a.55.55 0 0 1 .73.47l.16 1.68q.03.28.3.34.11.03.3.02.23-.01.24-.24.07-.9.22-1.16.2-.34.56-.14l.57.32q.29.16.5-.01.52-.43 1.19-.06 1.12.6 1.4.5.94-.35.12-1.07-1.85-1.62-.86-3.91M253.36 74.15l-.88.87q-.39.38-.07.82.95 1.28 1.4.77.63-.74.95-.03.61 1.38 1.9 2.64.67.65-.27 1.07l-1.96.89a.83.78 63.7 0 0-.34 1.12l1.68 3.17q.21.4-.23.47-1.5.24-2.11.87-.35.37-.13.83.52 1.12.64 1.85.12.72-.09 1.11-.18.36-.49.1-.26-.22-.33-.26-1.37-.65-.77.68.91 2.01.65 3.98-.06.51-.53.71-1.26.55-1.56 1.53-.14.46-.61.23l-.49-.24q-.56-.27-.8.27-.06.13-.06.33 0 .26.18.44 1.43 1.43 3.26 1.04.5-.11.84.26 2.34 2.53.33 5.46-.35.5.23.72 1.11.42 1.47 1.6a.89.88-17.1 0 0 1.11.59l.27-.09q.78-.24.35-.94-1.55-2.51.28-5.49.3-.49.74-.11.71.62 1.37.56.58-.05.3-.56-.81-1.48-.02-2.5a.7.67-49 0 0-.05-.91l-.99-.98a.91.86-40.5 0 1 .14-1.34q1.43-1.04 3.69-.49.51.12.55.64l.19 2.71q.01.14.15.18l.26.09a.27.27 0 0 0 .35-.24q.07-.93.15-1.06.45-.69 1.09.06 1.34 1.58 2.31 1.33a.42.42 0 0 0 .25-.62l-.3-.52q-.41-.68.33-.76.87-.1 1.77.15.56.16.46.74-.1.5-.54 1.15-.55.82-.41 1.14.24.52 1.2.83a.95.9 18.5 0 1 .62 1.17l-3.18 9.17q-.16.47-.65.69-.99.45-.94 1.33.03.62.6.39.19-.08.29-.2.55-.66.92-.25l.7.79q.31.34-.06.76-.87.97-.43 2.48.16.53.62.67.41.12.9-.09.47-.2.52-.71.04-.5.21-.77.23-.37.57-.08l.42.34q.51.42.64-.24.48-2.36-.6-3.81-.19-.25.13-.2 1.42.22 1.93-.02.39-.2.48.23.22 1.1 2.37 1.93.5.19.63-.32.21-.77.53-1.09a.84.83 59.6 0 1 1.39.37l1.19 4.25q.15.51-.09 1.06l-2.34 5.38a1.14 1.01-49.8 0 0 .03.95q1.35 2.45.91 4.07-.18.64.46.8.93.24 1.43-1.89a.3.29 39 0 1 .55-.05l.3.61q.11.22.33.1.2-.1.2-.33 0-.24-.17-.42-.9-.99-1.23-2.43-.13-.55.32-.89 2.42-1.79 4.47.93a.59.59 0 0 0 .81.12q.92-.64.41-2.38-.17-.59.51-.48l.36.06a.95.72-1.2 0 1 .71.51q1.34 3.85.56 7.87-.1.52.19.96.22.35.24.76.02.38-.66 1.11-.66.7-.97 1.06-.45.51.22.59l2.94.32M174.96 159.2q-.3-2.24 1.59-4.4.45-.51.36-2.09-.03-.64-.64-.43-.34.13-.34 1.1 0 .49-.47.34-.63-.19-1.07-1.08-.21-.41.18-.67.3-.2.19-.48-.2-.54-.56-.08-.72.91-1.63 1.29-.65.27-.63-.44.18-5 3.55-8.48a.76.76 0 0 0 .17-.78q-.21-.62.25-.75.59-.16.82-.69l.83-1.84q.18-.41-.13-.75-1.46-1.58-2.36-3.86a.8.8 0 0 1 .84-1.09q.77.09 1.17 1.11.59 1.48.91-.02.1-.52.46-1.1.38-.62.83-.71a.54.54 0 0 1 .64.46q.13.95.38 1.02.58.16.73-.48l.15-.66q.13-.56.48-.22.48.48.33 1.72-.04.3.22.44.17.09.35.07.33-.06.34-.42l.03-.6q.04-.93 1-.09l1.27 1.1q.12.11.54-.09.81-.4 1.46-.43a.59.59 0 0 1 .62.55q.24 3.9 2.38 6.08.57.57.48-.13-.04-.34-.45-1.06-.24-.42-.17-.91l1.1-8.15q.1-.73.91-.37l1.51.67a.27.24-72.9 0 0 .34-.21q.31-1.48.7-1.6.33-.11.33-.45-.01-1.75 1.28-3.97.43-.74.78-.13.16.28.49.33.62.1.2-.37-1.26-1.43-1.95-3.2-.04-.09-.12-.13-.17-.1-.29-.03a.66.48-21.7 0 0-.32.51q.13 2.19-1.5 2.82-.59.23-.58.85l.02 1.54q0 .11-.09.12l-.34.02q-.3.01-.33-.22-.18-1.49-1.4-1.82a.94.88 89.9 0 1-.64-.67l-.4-1.64a.81.79 56.3 0 0-1.42-.31q-1.73 2.43-.74 4.13.38.66-.38.63l-.41-.01a.87.87 0 0 1-.64-.32q-2.67-3.27-1.33-6.67.19-.49-.2-.84-1.51-1.38-1.8-2.61-.17-.75-.76-.26l-.56.45q-.08.07-.17.04-.14-.05-.23-.19-.25-.4.01-.78.75-1.09.16-1.96a1.07 1.07 0 0 1-.11-.97q.9-2.39 1.28-2.68 2.2-1.7 3.4-3.44.29-.41.76-.62l1.03-.47a.41.4 56.6 0 0 .13-.64q-.97-1.07-2.02-.42-.64.4-.69-.35-.03-.5-.44-1.09-.29-.42-.11-.89.97-2.48-.85-4.95-.53-.71-.61.23l-.14 1.92a.58.53-83.8 0 0 .45.6q.42.07.42.4a.4.38 89.3 0 1-.37.4l-1.6.03q-.5.01-.58.53l-.45 2.75a.99.92-82.1 0 1-1.01.84q-1.99-.22-4.28-1.94-.46-.35-.21-.78l.53-.92q.24-.42-.04-.84l-2.22-3.31a.74.56 73.5 0 0-.4-.3l-.27-.06q-.77-.16-.56.53l1.26 4.02q.15.47-.21.8l-1.26 1.19q-.38.35-.86.1-1.13-.6-2.89-.61-.33 0-.29.33l.04.28q.03.24.28.34l1.33.51q.61.24.24.8l-.83 1.26q-.28.43-.06.85l1.84 3.52a.69.65-26.6 0 1-.33.9l-2.55 1.23a.63.59-13.5 0 1-.89-.51q.02-3.6-3.38-3.58-.89 0-.36-.71.44-.6-.11-1.32a.65.65 0 0 1 .13-.91q1.24-.92 1.64-2.07a.61.52 11.7 0 0-.55-.7q-.12-.01-.86.62a.37.35-22 0 1-.6-.24l-.15-3.48a.9.9 0 0 0-.44-.74q-1.7-1.02-2.33-2.98-.56-1.75.91-.65.26.2.42.22.43.07.49-.33l.29-2.22q.09-.64.77-.27l1.43.77q.46.25.92.03l2.19-1.06q.54-.26.07-.67-.85-.73-1.91-2.64a1.16 1.07 82.8 0 0-.62-.52l-.36-.12q-.54-.17-.29-.59l.15-.26a.79.7 41.8 0 0-.1-.85q-.46-.56-.51-1.19-.04-.63.56-.82l.94-.3q.55-.18.51-.76-.05-.73-.76-1.36a.36.35-28.8 0 1 .19-.62l.98-.16q.32-.05.31-.39 0-.19-.22-.32a.6.59-68.4 0 1-.28-.64q.09-.41.41-.7a.52.52 0 0 0-.05-.81q-.81-.56.06-1.17.43-.29.2-.53l-.95-1q-.77-.8-.84.18l-.15 2.21q-.01.2-.14.23-.07.01-.26.02-.09.01-.15-.11l-.92-2.03q-.17-.36.13-.88.52-.9.42-1.94M173.82 73.03q.01.9.33 1.47.27.47.7.13l.45-.36q.7-.57.7.28l-.01 1.25q-.02 1.93 1.3.44.62-.69.96-.93.84-.58.78.45-.13 2.29.93 2.33 1.29.04.46-.95-.71-.87-.16-1.88.3-.58 1.36-1.05 1.03-.47 1.76-.99 1.26-.91-.27-1.2-.8-.15-1.97-1.3a.45.45 0 0 1 .1-.73q.92-.48.7-1.42-.07-.31-.32-.35-.44-.09-.46.36-.05 1.43-1.4 2.21-.45.26-.6-.24-.41-1.39-1.5-2.54M167.7 156.7l-1.25-2.54a.25.25 0 0 0-.47.07q-.06.29-.34.34-.52.1-.23-.26l1.11-1.39a.7.65-52.6 0 0-.09-.97q-1.36-.99-.78-2.29.23-.51.03-1.03-.31-.81-1.11-1.71a.81.8 38.1 0 1-.11-.91l.19-.36q.3-.58-.52-.6-.41-.01-1.27.53-.47.29-.7-.18l-1.64-3.36a.16.16 0 0 0-.3.04l-.72 3.32q-.09.42.17.88.2.38.24 1.05.03.57-.53.61-1.87.14-3.11.93-.5.31-.94-.08l-.39-.34q-.62-.55-.74.13-.19 1.09-1.43 1.56-.48.18-.66.66-.69 1.88 1.69 2.88M147.99 153.68l-1.34-1.56q-.86-.99.45-.95.64.02.35-.78-.73-1.96-1.08-3a.37.37 0 0 1 .4-.49q.4.04.68-.15a.46.46 0 0 0-.05-.78q-1.74-.94-.6-2.61a.82.81-69.5 0 0-.57-1.27l-1.64-.19q-.55-.07-.57-.6l-.1-2.6a.45.39-17.9 0 0-.65-.28q-3.11 1.8-1.67 3.84.28.38-.13.57l-3.79 1.79q-.48.23-.61-.3-.32-1.34-1.32-1.37a.68.65-86.5 0 0-.67.62l-.16 1.78a.49.43 16.5 0 1-.69.31l-.58-.27q-.55-.26-.59.33-.1 1.46.19 1.78 1.46 1.64 2.29 3.77.18.46-.27.66-1 .45-1.59 1.3M127.06 152.91l-.5-.8q-.54-.86.43-1.16 1.55-.47 1.69-.91.09-.29-.36-1.43-.7-1.73-2.01-1.85a.34.27-64.7 0 1-.12-.52q.16-.2 1.07-.3.51-.06.63-.55.24-.99-1.35-2.3-.64-.52-.03-1.1l1-.95a.64.62-40.4 0 0 .07-.84q-1.72-2.28-.59-4.99a.87.87 0 0 0-1.18-1.11l-1.67.78a.76.75-13.8 0 1-1.08-.64q-.08-2.38-.27-3.34-.65-3.26-2.12-.45-.18.33-1.47 2.13-.32.44-.01.89 1.98 2.88-1.24 5.07-.43.3-.76.12l-.98-.53a.86.85-77.3 0 0-1.26.8q.07 1.36.78 2.63.25.43-.26.45l-.35.01q-.6.03-.83-.44l-1.59-3.22a.84.81-17.4 0 0-.88-.44q-.51.08-1.16.92a1.14 1.14 0 0 0-.24.86q.35 2.55-1.77 3.53-.48.22-.49.74l-.14 5.12M98.93 145.9q.13-.91-.07-1.38-.23-.52-.59-.08-.79.95-1.97.66M95.81 144.93q.47-1.75 1.97-3.59.32-.4.28-.9-.11-1.51-1.44-2.22-.45-.24-.93-.04-1.49.6-3.32-.34-.64-.33-.01-.69.25-.15.57-.22.57-.11.76-.61l1.19-3.17q.2-.54-.12-.92l-.64-.75a.69.65 48.4 0 0-.96-.09q-1.16 1.07-2.28.04a.64.63 42.9 0 0-.89.03l-.5.53q-.37.39-.1.84.79 1.31-1.11 2.18-.66.3-1.04-.42l-.73-1.42q-.2-.37-.1-.92.42-2.45-.44-4.6a.6.53 62.5 0 0-.83-.31l-.39.27a.46.41 74.1 0 1-.66-.41q-.02-2.15-1.37-3.06-.43-.29-.48.23-.04.34.21.62.46.5-.1 1.1l-.88.95q-.27.29.03.82 1.35 2.4-.82 5.86-.25.4-.72.37l-1.24-.08q-.59-.03-.35.52l1.19 2.76q.17.41-.18.8-.1.11-.17.32-.26.77.41.31 1.3-.87 2.87-1.28.4-.11.18.24-.11.18-.31.29-.55.32.04.89l1.36 1.32q.22.22-.08.57l-1.81 2.12" vector-effect="non-scaling-stroke"/><path d="M112.72 150.65q1.49-.9 1.23-2.08-.16-.66-.65-.19-.71.68-1.47.64-.55-.02-.71-.55-.28-.96-.23-1.57.1-1.3-.92-.48-1.16.94-1 2.99M180.22 79.17a.4.4 0 0 0 0 .58q.38.37.64-.02a.33.33 0 0 0-.02-.39q-.34-.44-.62-.17M217.39 87.52q.04.12.12.12.15.02.12-.14-.01-.08-.08-.12-.29-.2-.16.14M217.453 97.848a.88.48 93.7 0 0 .536-.847.88.48 93.7 0 0-.422-.91.88.48 93.7 0 0-.536.848.88.48 93.7 0 0 .422.91M175.19 99.66q.19.34.5.15a.22.22 0 0 0 .05-.35q-.4-.38-.56-.13-.09.15.01.33M269.23 120.27a.32.32 0 0 0-.02.47q.22.22.62-.1a.31.31 0 0 0-.09-.54q-.22-.07-.51.17M195.55 130.02a.23.23 0 0 0-.42.05q-.2.62-.14 1.39.01.26.27.31.2.04.25.03.44-.05.41-.55-.05-.68-.37-1.23M279.503 132.88a.91.49 89.8 0 0 .487-.912.91.49 89.8 0 0-.493-.908.91.49 89.8 0 0-.487.912.91.49 89.8 0 0 .493.908M175.02 145.44a.27.27 0 0 0 .28.4q.31-.06.38-.4a.23.23 0 0 0-.27-.28q-.26.06-.39.28M89.95 136.46a.42.42 0 0 0-.42-.42.42.42 0 0 0-.42.42.42.42 0 0 0 .42.42.42.42 0 0 0 .42-.42M156.24 150.23a.31.31 0 0 0 .05.55q.32.12.49-.04.21-.21.04-.46-.2-.28-.58-.05" vector-effect="non-scaling-stroke"/></g><path d="m215.33 66.05-.99 1.15q-.42.48.18.67 1.87.6 2.83-1.04l.69.43q-.41 2.35.53 3.09 2.02 1.58-.09 3.39-2.33 1.99-4.33 4.63-.41.53.23.71.28.08.86-.17 1-.44 1.86-1.45.36-.43.83-.12 1.19.8.53 1.75-.36.51.1.94.77.72 1.74.28.61-.28.65.39c.15 2.5.17 3.26-1.36 5.34q-1.89 2.55-1.81 5.29a.58.55-1.8 0 1-.56.57l-1.65.06q-.71.02-.34.59.76 1.21 2.19 2.3a.36.36 0 0 0 .58-.24q.35-2.88 2.27-1.97.63.3.74-.39.24-1.44-.66-2.45-.21-.24-.09-.45a.36.35 44.9 0 1 .61 0q.45.73 1.12.11.51-.45 1.08.12l1.14 1.15q.27.27.65-.19.06-.08.13-.44.33-1.79 1.37-.3 1.57 2.25 1.63 5.53 0 .11.27.51.18.27.2.29a.61.54-52.3 0 1 .05.69q-.38.64-.42 1.12-.15 1.59 1.06.45l.99-.94a.63.59-46.5 0 1 .81-.05q1.22 1.03.97 3.02-.03.25.19.32l.4.13q.33.11.37-.25l.1-.83q.09-.85.82-.37l.51.33q.47.31.65-.16.08-.21-.06-.86-.11-.54-.64-.69-.5-.14-1.73.13a.37.36 14.7 0 1-.36-.61l.42-.45a.7.64-39 0 0 .12-.78l-.23-.42q-.21-.37-.07-.93.23-.88-.51-1.63-.42-.44-.74.07-.21.32-.54.39-.69.14-.27-.42 1.32-1.81 1.81-4.62.35-2.02 2.09-1.16l2.31 1.14q.91.45.21-.29-1.36-1.44.1-3.23a.7.7 0 0 0-.02-.91q-.6-.67-1.89.22-.47.32-.82-.14-1.72-2.29.51-3.36.66-.31.02-.66-1.66-.91-1.86-2.01a.44.44 0 0 0-.76-.22q-.94 1-1.2 2.48a.42.35 23.1 0 1-.61.19l-.4-.26q-.6-.38-.42-1.23.53-2.52 2.02-4.44a.83.66-42.7 0 0 .13-.82l-.2-.37q-.27-.51.3-.77.33-.15.7.04.25.13.39.49.03.07.36.95.18.48.69.56.29.05.58-.04.57-.19.23-.62l-.31-.39q-.42-.55.2-1 1.32-.96 1.16-1.86 1.98-1.44 3.51.15-.55 3.22 2.16 5.51.53.45.58-.24.08-1.26.31-1.95.31-.97.92-1.18a.55.55 0 0 1 .73.47l.16 1.68q.03.28.3.34.11.03.3.02.23-.01.24-.24.07-.9.22-1.16.2-.34.56-.14l.57.32q.29.16.5-.01.52-.43 1.19-.06 1.12.6 1.4.5.94-.35.12-1.07-1.85-1.62-.86-3.91l4.78 4.06-.88.87q-.39.38-.07.82.95 1.28 1.4.77.63-.74.95-.03.61 1.38 1.9 2.64.67.65-.27 1.07l-1.96.89a.83.78 63.7 0 0-.34 1.12l1.68 3.17q.21.4-.23.47-1.5.24-2.11.87-.35.37-.13.83.52 1.12.64 1.85.12.72-.09 1.11-.18.36-.49.1-.26-.22-.33-.26-1.37-.65-.77.68.91 2.01.65 3.98-.06.51-.53.71-1.26.55-1.56 1.53-.14.46-.61.23l-.49-.24q-.56-.27-.8.27-.06.13-.06.33 0 .26.18.44 1.43 1.43 3.26 1.04.5-.11.84.26 2.34 2.53.33 5.46-.35.5.23.72 1.11.42 1.47 1.6a.89.88-17.1 0 0 1.11.59l.27-.09q.78-.24.35-.94-1.55-2.51.28-5.49.3-.49.74-.11.71.62 1.37.56.58-.05.3-.56-.81-1.48-.02-2.5a.7.67-49 0 0-.05-.91l-.99-.98a.91.86-40.5 0 1 .14-1.34q1.43-1.04 3.69-.49.51.12.55.64l.19 2.71q.01.14.15.18l.26.09a.27.27 0 0 0 .35-.24q.07-.93.15-1.06.45-.69 1.09.06 1.34 1.58 2.31 1.33a.42.42 0 0 0 .25-.62l-.3-.52q-.41-.68.33-.76.87-.1 1.77.15.56.16.46.74-.1.5-.54 1.15-.55.82-.41 1.14.24.52 1.2.83a.95.9 18.5 0 1 .62 1.17l-3.18 9.17q-.16.47-.65.69-.99.45-.94 1.33.03.62.6.39.19-.08.29-.2.55-.66.92-.25l.7.79q.31.34-.06.76-.87.97-.43 2.48.16.53.62.67.41.12.9-.09.47-.2.52-.71.04-.5.21-.77.23-.37.57-.08l.42.34q.51.42.64-.24.48-2.36-.6-3.81-.19-.25.13-.2 1.42.22 1.93-.02.39-.2.48.23.22 1.1 2.37 1.93.5.19.63-.32.21-.77.53-1.09a.84.83 59.6 0 1 1.39.37l1.19 4.25q.15.51-.09 1.06l-2.34 5.38a1.14 1.01-49.8 0 0 .03.95q1.35 2.45.91 4.07-.18.64.46.8.93.24 1.43-1.89a.3.29 39 0 1 .55-.05l.3.61q.11.22.33.1.2-.1.2-.33 0-.24-.17-.42-.9-.99-1.23-2.43-.13-.55.32-.89 2.42-1.79 4.47.93a.59.59 0 0 0 .81.12q.92-.64.41-2.38-.17-.59.51-.48l.36.06a.95.72-1.2 0 1 .71.51q1.34 3.85.56 7.87-.1.52.19.96.22.35.24.76.02.38-.66 1.11-.66.7-.97 1.06-.45.51.22.59l2.94.32q-1.64 4.65-3.41 9.15-.97 2.44-2.71 12.15-.51 2.85-1.44 4.13c-2.21 3.06-7.51 2.79-10.51 1.52q-.93-.4-4.91-2.1c-2.35-1-4.55.22-7.04 1.68q-5.9 3.45-10.68 3.38-2.76-.04-8.55-1.42-3.4-.81-8.17-2.7-4.69-1.85-8.92-2.41-4.21-.56-9.14.24-1.01.17-10.99 1.68-6.21.94-11.09.78-9.13-.28-17.94-3.07-.3-2.24 1.59-4.4.45-.51.36-2.09-.03-.64-.64-.43-.34.13-.34 1.1 0 .49-.47.34-.63-.19-1.07-1.08-.21-.41.18-.67.3-.2.19-.48-.2-.54-.56-.08-.72.91-1.63 1.29-.65.27-.63-.44.18-5 3.55-8.48a.76.76 0 0 0 .17-.78q-.21-.62.25-.75.59-.16.82-.69l.83-1.84q.18-.41-.13-.75-1.46-1.58-2.36-3.86a.8.8 0 0 1 .84-1.09q.77.09 1.17 1.11.59 1.48.91-.02.1-.52.46-1.1.38-.62.83-.71a.54.54 0 0 1 .64.46q.13.95.38 1.02.58.16.73-.48l.15-.66q.13-.56.48-.22.48.48.33 1.72-.04.3.22.44.17.09.35.07.33-.06.34-.42l.03-.6q.04-.93 1-.09l1.27 1.1q.12.11.54-.09.81-.4 1.46-.43a.59.59 0 0 1 .62.55q.24 3.9 2.38 6.08.57.57.48-.13-.04-.34-.45-1.06-.24-.42-.17-.91l1.1-8.15q.1-.73.91-.37l1.51.67a.27.24-72.9 0 0 .34-.21q.31-1.48.7-1.6.33-.11.33-.45-.01-1.75 1.28-3.97.43-.74.78-.13.16.28.49.33.62.1.2-.37-1.26-1.43-1.95-3.2-.04-.09-.12-.13-.17-.1-.29-.03a.66.48-21.7 0 0-.32.51q.13 2.19-1.5 2.82-.59.23-.58.85l.02 1.54q0 .11-.09.12l-.34.02q-.3.01-.33-.22-.18-1.49-1.4-1.82a.94.88 89.9 0 1-.64-.67l-.4-1.64a.81.79 56.3 0 0-1.42-.31q-1.73 2.43-.74 4.13.38.66-.38.63l-.41-.01a.87.87 0 0 1-.64-.32q-2.67-3.27-1.33-6.67.19-.49-.2-.84-1.51-1.38-1.8-2.61-.17-.75-.76-.26l-.56.45q-.08.07-.17.04-.14-.05-.23-.19-.25-.4.01-.78.75-1.09.16-1.96a1.07 1.07 0 0 1-.11-.97q.9-2.39 1.28-2.68 2.2-1.7 3.4-3.44.29-.41.76-.62l1.03-.47a.41.4 56.6 0 0 .13-.64q-.97-1.07-2.02-.42-.64.4-.69-.35-.03-.5-.44-1.09-.29-.42-.11-.89.97-2.48-.85-4.95-.53-.71-.61.23l-.14 1.92a.58.53-83.8 0 0 .45.6q.42.07.42.4a.4.38 89.3 0 1-.37.4l-1.6.03q-.5.01-.58.53l-.45 2.75a.99.92-82.1 0 1-1.01.84q-1.99-.22-4.28-1.94-.46-.35-.21-.78l.53-.92q.24-.42-.04-.84l-2.22-3.31a.74.56 73.5 0 0-.4-.3l-.27-.06q-.77-.16-.56.53l1.26 4.02q.15.47-.21.8l-1.26 1.19q-.38.35-.86.1-1.13-.6-2.89-.61-.33 0-.29.33l.04.28q.03.24.28.34l1.33.51q.61.24.24.8l-.83 1.26q-.28.43-.06.85l1.84 3.52a.69.65-26.6 0 1-.33.9l-2.55 1.23a.63.59-13.5 0 1-.89-.51q.02-3.6-3.38-3.58-.89 0-.36-.71.44-.6-.11-1.32a.65.65 0 0 1 .13-.91q1.24-.92 1.64-2.07a.61.52 11.7 0 0-.55-.7q-.12-.01-.86.62a.37.35-22 0 1-.6-.24l-.15-3.48a.9.9 0 0 0-.44-.74q-1.7-1.02-2.33-2.98-.56-1.75.91-.65.26.2.42.22.43.07.49-.33l.29-2.22q.09-.64.77-.27l1.43.77q.46.25.92.03l2.19-1.06q.54-.26.07-.67-.85-.73-1.91-2.64a1.16 1.07 82.8 0 0-.62-.52l-.36-.12q-.54-.17-.29-.59l.15-.26a.79.7 41.8 0 0-.1-.85q-.46-.56-.51-1.19-.04-.63.56-.82l.94-.3q.55-.18.51-.76-.05-.73-.76-1.36a.36.35-28.8 0 1 .19-.62l.98-.16q.32-.05.31-.39 0-.19-.22-.32a.6.59-68.4 0 1-.28-.64q.09-.41.41-.7a.52.52 0 0 0-.05-.81q-.81-.56.06-1.17.43-.29.2-.53l-.95-1q-.77-.8-.84.18l-.15 2.21q-.01.2-.14.23-.07.01-.26.02-.09.01-.15-.11l-.92-2.03q-.17-.36.13-.88.52-.9.42-1.94c2.57.82 3.81 2.44 7.13 1.55q.46-.12.73-.53l1.98-3.05q.01.9.33 1.47.27.47.7.13l.45-.36q.7-.57.7.28l-.01 1.25q-.02 1.93 1.3.44.62-.69.96-.93.84-.58.78.45-.13 2.29.93 2.33 1.29.04.46-.95-.71-.87-.16-1.88.3-.58 1.36-1.05 1.03-.47 1.76-.99 1.26-.91-.27-1.2-.8-.15-1.97-1.3a.45.45 0 0 1 .1-.73q.92-.48.7-1.42-.07-.31-.32-.35-.44-.09-.46.36-.05 1.43-1.4 2.21-.45.26-.6-.24-.41-1.39-1.5-2.54c3.92-1.44 6.49.44 9.62 2.24a1.78 1.78 0 0 0 1.55.11q3.39-1.37 6.77-3.04 4.41-2.18 11.26-.63 2.43.55 8.47-.64m-35.11 13.12a.4.4 0 0 0 0 .58q.38.37.64-.02a.33.33 0 0 0-.02-.39q-.34-.44-.62-.17m37.17 8.35q.04.12.12.12.15.02.12-.14-.01-.08-.08-.12-.29-.2-.16.14m.063 10.328a.88.48 93.7 0 0 .536-.847.88.48 93.7 0 0-.422-.91.88.48 93.7 0 0-.536.848.88.48 93.7 0 0 .422.91M175.19 99.66q.19.34.5.15a.22.22 0 0 0 .05-.35q-.4-.38-.56-.13-.09.15.01.33m94.04 20.61a.32.32 0 0 0-.02.47q.22.22.62-.1a.31.31 0 0 0-.09-.54q-.22-.07-.51.17m-73.68 9.75a.23.23 0 0 0-.42.05q-.2.62-.14 1.39.01.26.27.31.2.04.25.03.44-.05.41-.55-.05-.68-.37-1.23m83.953 2.86a.91.49 89.8 0 0 .487-.912.91.49 89.8 0 0-.493-.908.91.49 89.8 0 0-.487.912.91.49 89.8 0 0 .493.908M175.02 145.44a.27.27 0 0 0 .28.4q.31-.06.38-.4a.23.23 0 0 0-.27-.28q-.26.06-.39.28"/><path fill="#5f9c30" d="m215.33 66.05 2.02.78q-.96 1.64-2.83 1.04-.6-.19-.18-.67zM235.67 71.06q.16.9-1.16 1.86-.62.45-.2 1l.31.39q.34.43-.23.62-.29.09-.58.04-.51-.08-.69-.56-.33-.88-.36-.95-.14-.36-.39-.49-.37-.19-.7-.04-.57.26-.3.77l.2.37a.83.66-42.7 0 1-.13.82q-1.49 1.92-2.02 4.44-.18.85.42 1.23l.4.26a.42.35 23.1 0 0 .61-.19q.26-1.48 1.2-2.48a.44.44 0 0 1 .76.22q.2 1.1 1.86 2.01.64.35-.02.66-2.23 1.07-.51 3.36.35.46.82.14 1.29-.89 1.89-.22a.7.7 0 0 1 .02.91q-1.46 1.79-.1 3.23.7.74-.21.29l-2.31-1.14q-1.74-.86-2.09 1.16-.49 2.81-1.81 4.62-.42.56.27.42.33-.07.54-.39.32-.51.74-.07.74.75.51 1.63-.14.56.07.93l.23.42a.7.64-39 0 1-.12.78l-.42.45a.37.36 14.7 0 0 .36.61q1.23-.27 1.73-.13.53.15.64.69.14.65.06.86-.18.47-.65.16l-.51-.33q-.73-.48-.82.37l-.1.83q-.04.36-.37.25l-.4-.13q-.22-.07-.19-.32.25-1.99-.97-3.02a.63.59-46.5 0 0-.81.05l-.99.94q-1.21 1.14-1.06-.45.04-.48.42-1.12a.61.54-52.3 0 0-.05-.69q-.02-.02-.2-.29-.27-.4-.27-.51-.06-3.28-1.63-5.53-1.04-1.49-1.37.3-.07.36-.13.44-.38.46-.65.19l-1.14-1.15q-.57-.57-1.08-.12-.67.62-1.12-.11a.36.35 44.9 0 0-.61 0q-.12.21.09.45.9 1.01.66 2.45-.11.69-.74.39-1.92-.91-2.27 1.97a.36.36 0 0 1-.58.24q-1.43-1.09-2.19-2.3-.37-.57.34-.59l1.65-.06a.58.55-1.8 0 0 .56-.57q-.08-2.74 1.81-5.29c1.53-2.08 1.51-2.84 1.36-5.34q-.04-.67-.65-.39-.97.44-1.74-.28-.46-.43-.1-.94.66-.95-.53-1.75-.47-.31-.83.12-.86 1.01-1.86 1.45-.58.25-.86.17-.64-.18-.23-.71 2-2.64 4.33-4.63 2.11-1.81.09-3.39-.94-.74-.53-3.09 2.52.74 5.13 1.11 2.47.35 5.04 1.29 3.86 1.42 7.46 1.4M177.66 68.01q1.09 1.15 1.5 2.54.15.5.6.24 1.35-.78 1.4-2.21.02-.45.46-.36.25.04.32.35.22.94-.7 1.42a.45.45 0 0 0-.1.73q1.17 1.15 1.97 1.3 1.53.29.27 1.2-.73.52-1.76.99-1.06.47-1.36 1.05-.55 1.01.16 1.88.83.99-.46.95-1.06-.04-.93-2.33.06-1.03-.78-.45-.34.24-.96.93-1.32 1.49-1.3-.44l.01-1.25q0-.85-.7-.28l-.45.36q-.43.34-.7-.13-.32-.57-.33-1.47 1.36-3.6 3.84-5.02M248.58 70.09q-.99 2.29.86 3.91.82.72-.12 1.07-.28.1-1.4-.5-.67-.37-1.19.06-.21.17-.5.01l-.57-.32q-.36-.2-.56.14-.15.26-.22 1.16-.01.23-.24.24-.19.01-.3-.02-.27-.06-.3-.34l-.16-1.68a.55.55 0 0 0-.73-.47q-.61.21-.92 1.18-.23.69-.31 1.95-.05.69-.58.24-2.71-2.29-2.16-5.51 5.41-1.35 9.4-1.12M163.98 75.06q.1 1.04-.42 1.94-.3.52-.13.88l.92 2.03q.06.12.15.11.19-.01.26-.02.13-.03.14-.23l.15-2.21q.07-.98.84-.18l.95 1q.23.24-.2.53-.87.61-.06 1.17a.52.52 0 0 1 .05.81q-.32.29-.41.7a.6.59-68.4 0 0 .28.64q.22.13.22.32.01.34-.31.39l-.98.16a.36.35-28.8 0 0-.19.62q.71.63.76 1.36.04.58-.51.76l-.94.3q-.6.19-.56.82.05.63.51 1.19a.79.7 41.8 0 1 .1.85l-.15.26q-.25.42.29.59l.36.12a1.16 1.07 82.8 0 1 .62.52q1.06 1.91 1.91 2.64.47.41-.07.67l-2.19 1.06q-.46.22-.92-.03l-1.43-.77q-.68-.37-.77.27l-.29 2.22q-.06.4-.49.33-.16-.02-.42-.22-1.47-1.1-.91.65.63 1.96 2.33 2.98a.9.9 0 0 1 .44.74l.15 3.48a.37.35-22 0 0 .6.24q.74-.63.86-.62a.61.52 11.7 0 1 .55.7q-.4 1.15-1.64 2.07a.65.65 0 0 0-.13.91q.55.72.11 1.32-.53.71.36.71 3.4-.02 3.38 3.58a.63.59-13.5 0 0 .89.51l2.55-1.23a.69.65-26.6 0 0 .33-.9l-1.84-3.52q-.22-.42.06-.85l.83-1.26q.37-.56-.24-.8l-1.33-.51q-.25-.1-.28-.34l-.04-.28q-.04-.33.29-.33 1.76.01 2.89.61.48.25.86-.1l1.26-1.19q.36-.33.21-.8l-1.26-4.02q-.21-.69.56-.53l.27.06a.74.56 73.5 0 1 .4.3l2.22 3.31q.28.42.04.84l-.53.92q-.25.43.21.78 2.29 1.72 4.28 1.94a.99.92-82.1 0 0 1.01-.84l.45-2.75q.08-.52.58-.53l1.6-.03a.4.38 89.3 0 0 .37-.4q0-.33-.42-.4a.58.53-83.8 0 1-.45-.6l.14-1.92q.08-.94.61-.23 1.82 2.47.85 4.95-.18.47.11.89.41.59.44 1.09.05.75.69.35 1.05-.65 2.02.42a.41.4 56.6 0 1-.13.64l-1.03.47q-.47.21-.76.62-1.2 1.74-3.4 3.44-.38.29-1.28 2.68a1.07 1.07 0 0 0 .11.97q.59.87-.16 1.96-.26.38-.01.78.09.14.23.19.09.03.17-.04l.56-.45q.59-.49.76.26.29 1.23 1.8 2.61.39.35.2.84-1.34 3.4 1.33 6.67a.87.87 0 0 0 .64.32l.41.01q.76.03.38-.63-.99-1.7.74-4.13a.81.79 56.3 0 1 1.42.31l.4 1.64a.94.88 89.9 0 0 .64.67q1.22.33 1.4 1.82.03.23.33.22l.34-.02q.09-.01.09-.12l-.02-1.54q-.01-.62.58-.85 1.63-.63 1.5-2.82a.66.48-21.7 0 1 .32-.51q.12-.07.29.03.08.04.12.13.69 1.77 1.95 3.2.42.47-.2.37-.33-.05-.49-.33-.35-.61-.78.13-1.29 2.22-1.28 3.97 0 .34-.33.45-.39.12-.7 1.6a.27.24-72.9 0 1-.34.21l-1.51-.67q-.81-.36-.91.37l-1.1 8.15q-.07.49.17.91.41.72.45 1.06.09.7-.48.13-2.14-2.18-2.38-6.08a.59.59 0 0 0-.62-.55q-.65.03-1.46.43-.42.2-.54.09l-1.27-1.1q-.96-.84-1 .09l-.03.6q-.01.36-.34.42-.18.02-.35-.07-.26-.14-.22-.44.15-1.24-.33-1.72-.35-.34-.48.22l-.15.66q-.15.64-.73.48-.25-.07-.38-1.02a.54.54 0 0 0-.64-.46q-.45.09-.83.71-.36.58-.46 1.1-.32 1.5-.91.02-.4-1.02-1.17-1.11a.8.8 0 0 0-.84 1.09q.9 2.28 2.36 3.86.31.34.13.75l-.83 1.84q-.23.53-.82.69-.46.13-.25.75a.76.76 0 0 1-.17.78q-3.37 3.48-3.55 8.48-.02.71.63.44.91-.38 1.63-1.29.36-.46.56.08.11.28-.19.48-.39.26-.18.67.44.89 1.07 1.08.47.15.47-.34 0-.97.34-1.1.61-.21.64.43.09 1.58-.36 2.09-1.89 2.16-1.59 4.4l-7.26-2.5-1.25-2.54a.25.25 0 0 0-.47.07q-.06.29-.34.34-.52.1-.23-.26l1.11-1.39a.7.65-52.6 0 0-.09-.97q-1.36-.99-.78-2.29.23-.51.03-1.03-.31-.81-1.11-1.71a.81.8 38.1 0 1-.11-.91l.19-.36q.3-.58-.52-.6-.41-.01-1.27.53-.47.29-.7-.18l-1.64-3.36a.16.16 0 0 0-.3.04l-.72 3.32q-.09.42.17.88.2.38.24 1.05.03.57-.53.61-1.87.14-3.11.93-.5.31-.94-.08l-.39-.34q-.62-.55-.74.13-.19 1.09-1.43 1.56-.48.18-.66.66-.69 1.88 1.69 2.88h-5.81l-1.34-1.56q-.86-.99.45-.95.64.02.35-.78-.73-1.96-1.08-3a.37.37 0 0 1 .4-.49q.4.04.68-.15a.46.46 0 0 0-.05-.78q-1.74-.94-.6-2.61a.82.81-69.5 0 0-.57-1.27l-1.64-.19q-.55-.07-.57-.6l-.1-2.6a.45.39-17.9 0 0-.65-.28q-3.11 1.8-1.67 3.84.28.38-.13.57l-3.79 1.79q-.48.23-.61-.3-.32-1.34-1.32-1.37a.68.65-86.5 0 0-.67.62l-.16 1.78a.49.43 16.5 0 1-.69.31l-.58-.27q-.55-.26-.59.33-.1 1.46.19 1.78 1.46 1.64 2.29 3.77.18.46-.27.66-1 .45-1.59 1.3l-6.62-.32-.5-.8q-.54-.86.43-1.16 1.55-.47 1.69-.91.09-.29-.36-1.43-.7-1.73-2.01-1.85a.34.27-64.7 0 1-.12-.52q.16-.2 1.07-.3.51-.06.63-.55.24-.99-1.35-2.3-.64-.52-.03-1.1l1-.95a.64.62-40.4 0 0 .07-.84q-1.72-2.28-.59-4.99a.87.87 0 0 0-1.18-1.11l-1.67.78a.76.75-13.8 0 1-1.08-.64q-.08-2.38-.27-3.34-.65-3.26-2.12-.45-.18.33-1.47 2.13-.32.44-.01.89 1.98 2.88-1.24 5.07-.43.3-.76.12l-.98-.53a.86.85-77.3 0 0-1.26.8q.07 1.36.78 2.63.25.43-.26.45l-.35.01q-.6.03-.83-.44l-1.59-3.22a.84.81-17.4 0 0-.88-.44q-.51.08-1.16.92a1.14 1.14 0 0 0-.24.86q.35 2.55-1.77 3.53-.48.22-.49.74l-.14 5.12-9.09-3.19q.13-.91-.07-1.38-.23-.52-.59-.08-.79.95-1.97.66-.24-.09-.49-.17.47-1.75 1.97-3.59.32-.4.28-.9-.11-1.51-1.44-2.22-.45-.24-.93-.04-1.49.6-3.32-.34-.64-.33-.01-.69.25-.15.57-.22.57-.11.76-.61l1.19-3.17q.2-.54-.12-.92l-.64-.75a.69.65 48.4 0 0-.96-.09q-1.16 1.07-2.28.04a.64.63 42.9 0 0-.89.03l-.5.53q-.37.39-.1.84.79 1.31-1.11 2.18-.66.3-1.04-.42l-.73-1.42q-.2-.37-.1-.92.42-2.45-.44-4.6a.6.53 62.5 0 0-.83-.31l-.39.27a.46.41 74.1 0 1-.66-.41q-.02-2.15-1.37-3.06-.43-.29-.48.23-.04.34.21.62.46.5-.1 1.1l-.88.95q-.27.29.03.82 1.35 2.4-.82 5.86-.25.4-.72.37l-1.24-.08q-.59-.03-.35.52l1.19 2.76q.17.41-.18.8-.1.11-.17.32-.26.77.41.31 1.3-.87 2.87-1.28.4-.11.18.24-.11.18-.31.29-.55.32.04.89l1.36 1.32q.22.22-.08.57l-1.81 2.12q-3.23-.54-5.46-2.55c-4.34-3.91 1.03-14.94 3.66-18.77q4.79-6.97 8.98-12.26 1.34-1.7 3.39-2.12 20.33-4.24 38.85-10.66 5.29-1.84 9.09-4.55 8.82-6.32 9.85-17.05.19-2.04 2.28-2.86 1.24-.49 3.07.02 4.3 1.18 8.4 2.99M253.36 74.15l8.62 7.11a2.23 2.23 0 0 0 1.76.48q2.54-.39 5.99-.78 3.23-.36 6.02.19 6.55 1.29 9.12 2.28c1.71.66 2.72 1.63 3.07 3.6q.69 3.96-.54 8.1-.18.6.46.74l1.02.24q.49.11.59.58.79 3.95 2.22 5.86 1.29 1.73 1.27 3.66-.01.36.89 7.7.56 4.56.27 7.7-.71 7.55-3.66 14.58l-2.94-.32q-.67-.08-.22-.59.31-.36.97-1.06.68-.73.66-1.11-.02-.41-.24-.76-.29-.44-.19-.96.78-4.02-.56-7.87a.95.72-1.2 0 0-.71-.51l-.36-.06q-.68-.11-.51.48.51 1.74-.41 2.38a.59.59 0 0 1-.81-.12q-2.05-2.72-4.47-.93-.45.34-.32.89.33 1.44 1.23 2.43.17.18.17.42 0 .23-.2.33-.22.12-.33-.1l-.3-.61a.3.29 39 0 0-.55.05q-.5 2.13-1.43 1.89-.64-.16-.46-.8.44-1.62-.91-4.07a1.14 1.01-49.8 0 1-.03-.95l2.34-5.38q.24-.55.09-1.06l-1.19-4.25a.84.83 59.6 0 0-1.39-.37q-.32.32-.53 1.09-.13.51-.63.32-2.15-.83-2.37-1.93-.09-.43-.48-.23-.51.24-1.93.02-.32-.05-.13.2 1.08 1.45.6 3.81-.13.66-.64.24l-.42-.34q-.34-.29-.57.08-.17.27-.21.77-.05.51-.52.71-.49.21-.9.09-.46-.14-.62-.67-.44-1.51.43-2.48.37-.42.06-.76l-.7-.79q-.37-.41-.92.25-.1.12-.29.2-.57.23-.6-.39-.05-.88.94-1.33.49-.22.65-.69l3.18-9.17a.95.9 18.5 0 0-.62-1.17q-.96-.31-1.2-.83-.14-.32.41-1.14.44-.65.54-1.15.1-.58-.46-.74-.9-.25-1.77-.15-.74.08-.33.76l.3.52a.42.42 0 0 1-.25.62q-.97.25-2.31-1.33-.64-.75-1.09-.06-.08.13-.15 1.06a.27.27 0 0 1-.35.24l-.26-.09q-.14-.04-.15-.18l-.19-2.71q-.04-.52-.55-.64-2.26-.55-3.69.49a.91.86-40.5 0 0-.14 1.34l.99.98a.7.67-49 0 1 .05.91q-.79 1.02.02 2.5.28.51-.3.56-.66.06-1.37-.56-.44-.38-.74.11-1.83 2.98-.28 5.49.43.7-.35.94l-.27.09a.89.88-17.1 0 1-1.11-.59q-.36-1.18-1.47-1.6-.58-.22-.23-.72 2.01-2.93-.33-5.46-.34-.37-.84-.26-1.83.39-3.26-1.04-.18-.18-.18-.44 0-.2.06-.33.24-.54.8-.27l.49.24q.47.23.61-.23.3-.98 1.56-1.53.47-.2.53-.71.26-1.97-.65-3.98-.6-1.33.77-.68.07.04.33.26.31.26.49-.1.21-.39.09-1.11-.12-.73-.64-1.85-.22-.46.13-.83.61-.63 2.11-.87.44-.07.23-.47l-1.68-3.17a.83.78 63.7 0 1 .34-1.12l1.96-.89q.94-.42.27-1.07-1.29-1.26-1.9-2.64-.32-.71-.95.03-.45.51-1.4-.77-.32-.44.07-.82zM180.22 79.17q.28-.27.62.17a.33.33 0 0 1 .02.39q-.26.39-.64.02a.4.4 0 0 1 0-.58"/><path fill="#5f9c30" d="M217.39 87.52q-.13-.34.16-.14.07.04.08.12.03.16-.12.14-.08 0-.12-.12"/><ellipse fill="#5f9c30" rx=".88" ry=".48" transform="rotate(93.7 63.304 150.434)"/><path fill="#5f9c30" d="M175.18 99.33q.16-.25.56.13a.22.22 0 0 1-.05.35q-.31.19-.5-.15-.1-.18-.01-.33M269.23 120.27q.29-.24.51-.17a.31.31 0 0 1 .09.54q-.4.32-.62.1a.32.32 0 0 1 .02-.47"/><path d="m95.81 144.93-13.94-2.06 1.81-2.12q.3-.35.08-.57l-1.36-1.32q-.59-.57-.04-.89.2-.11.31-.29.22-.35-.18-.24-1.57.41-2.87 1.28-.67.46-.41-.31.07-.21.17-.32.35-.39.18-.8l-1.19-2.76q-.24-.55.35-.52l1.24.08q.47.03.72-.37 2.17-3.46.82-5.86-.3-.53-.03-.82l.88-.95q.56-.6.1-1.1-.25-.28-.21-.62.05-.52.48-.23 1.35.91 1.37 3.06a.46.41 74.1 0 0 .66.41l.39-.27a.6.53 62.5 0 1 .83.31q.86 2.15.44 4.6-.1.55.1.92l.73 1.42q.38.72 1.04.42 1.9-.87 1.11-2.18-.27-.45.1-.84l.5-.53a.64.63 42.9 0 1 .89-.03q1.12 1.03 2.28-.04a.69.65 48.4 0 1 .96.09l.64.75q.32.38.12.92l-1.19 3.17q-.19.5-.76.61-.32.07-.57.22-.63.36.01.69 1.83.94 3.32.34.48-.2.93.04 1.33.71 1.44 2.22.04.5-.28.9-1.5 1.84-1.97 3.59m-5.86-8.47a.42.42 0 0 0-.42-.42.42.42 0 0 0-.42.42.42.42 0 0 0 .42.42.42.42 0 0 0 .42-.42M127.06 152.91q-7.32-.08-14.34-2.26 1.49-.9 1.23-2.08-.16-.66-.65-.19-.71.68-1.47.64-.55-.02-.71-.55-.28-.96-.23-1.57.1-1.3-.92-.48-1.16.94-1 2.99l-.95-.32.14-5.12q.01-.52.49-.74 2.12-.98 1.77-3.53a1.14 1.14 0 0 1 .24-.86q.65-.84 1.16-.92a.84.81-17.4 0 1 .88.44l1.59 3.22q.23.47.83.44l.35-.01q.51-.02.26-.45-.71-1.27-.78-2.63a.86.85-77.3 0 1 1.26-.8l.98.53q.33.18.76-.12 3.22-2.19 1.24-5.07-.31-.45.01-.89 1.29-1.8 1.47-2.13 1.47-2.81 2.12.45.19.96.27 3.34a.76.75-13.8 0 0 1.08.64l1.67-.78a.87.87 0 0 1 1.18 1.11q-1.13 2.71.59 4.99a.64.62-40.4 0 1-.07.84l-1 .95q-.61.58.03 1.1 1.59 1.31 1.35 2.3-.12.49-.63.55-.91.1-1.07.3a.34.27-64.7 0 0 .12.52q1.31.12 2.01 1.85.45 1.14.36 1.43-.14.44-1.69.91-.97.3-.43 1.16z"/><path fill="#5f9c30" d="M195.55 130.02q.32.55.37 1.23.03.5-.41.55-.05.01-.25-.03-.26-.05-.27-.31-.06-.77.14-1.39a.23.23 0 0 1 .42-.05"/><ellipse fill="#5f9c30" rx=".91" ry=".49" transform="rotate(89.8 73.534 206.224)"/><circle cx="89.53" cy="136.46" r=".42" fill="#5f9c30"/><path d="M147.99 153.68q-7.14.62-14.31-.45.59-.85 1.59-1.3.45-.2.27-.66-.83-2.13-2.29-3.77-.29-.32-.19-1.78.04-.59.59-.33l.58.27a.49.43 16.5 0 0 .69-.31l.16-1.78a.68.65-86.5 0 1 .67-.62q1 .03 1.32 1.37.13.53.61.3l3.79-1.79q.41-.19.13-.57-1.44-2.04 1.67-3.84a.45.39-17.9 0 1 .65.28l.1 2.6q.02.53.57.6l1.64.19a.82.81-69.5 0 1 .57 1.27q-1.14 1.67.6 2.61a.46.46 0 0 1 .05.78q-.28.19-.68.15a.37.37 0 0 0-.4.49q.35 1.04 1.08 3 .29.8-.35.78-1.31-.04-.45.95zM167.7 156.7q-3.29-1.52-4.81-1.83-2.02-.41-9.09-1.19-2.38-1-1.69-2.88.18-.48.66-.66 1.24-.47 1.43-1.56.12-.68.74-.13l.39.34q.44.39.94.08 1.24-.79 3.11-.93.56-.04.53-.61-.04-.67-.24-1.05-.26-.46-.17-.88l.72-3.32a.16.16 0 0 1 .3-.04l1.64 3.36q.23.47.7.18.86-.54 1.27-.53.82.02.52.6l-.19.36a.81.8 38.1 0 0 .11.91q.8.9 1.11 1.71.2.52-.03 1.03-.58 1.3.78 2.29a.7.65-52.6 0 1 .09.97l-1.11 1.39q-.29.36.23.26.28-.05.34-.34a.25.25 0 0 1 .47-.07zm-11.46-6.47a.31.31 0 0 0 .05.55q.32.12.49-.04.21-.21.04-.46-.2-.28-.58-.05M98.93 145.9l-2.63-.8q1.18.29 1.97-.66.36-.44.59.08.2.47.07 1.38"/><path fill="#5f9c30" d="M175.02 145.44q.13-.22.39-.28a.23.23 0 0 1 .27.28q-.07.34-.38.4a.27.27 0 0 1-.28-.4M112.72 150.65l-3.75-1.24q-.16-2.05 1-2.99 1.02-.82.92.48-.05.61.23 1.57.16.53.71.55.76.04 1.47-.64.49-.47.65.19.26 1.18-1.23 2.08M156.24 150.23q.38-.23.58.05.17.25-.04.46-.17.16-.49.04a.31.31 0 0 1-.05-.55"/></svg>