<svg xmlns="http://www.w3.org/2000/svg" viewBox="0 0 382 382"><g fill="none" stroke="#150271" stroke-width="2"><path d="m214.4 66.25.81 1.25q.37.57.72 0 .2-.32.24-.95M217.99 67.28q-1.88 1.47 1.4 2.97.41.19.17.57-1.93 3.05-3.93 4.05a.59.59 0 0 0-.22.85q.34.51.79.84.18.13.41.12.15-.01.28-.08.54-.29.86.13l1.72 2.25a3.3 3.17 49.2 0 1-.23 4.29q-2.1 2.05-3.23 4.7a.7.68 22.3 0 0 .4.9l1.84.72q.58.23.65-.38l.15-1.39q.06-.56.58-.76.48-.18.96.17.26.19.38.56.15.4.19.59.15.57.73.56.48-.01 1.2-.51.45-.31.9-.01 1 .67.99 1.88-.03 3.05.7 4.16.17.26 0 .52l-.15.22q-.29.44.09.8 1.83 1.79.88 3.03-.43.57.08 1.06.6.58.94.69.49.16.47-.35-.09-3.02.41-4.67.18-.58-.19-1.01l-.53-.61a.8.65-63 0 1-.14-.65q.44-2 1.67-2.73.46-.27.67-.77.4-.93 1.19-1.58.51-.43 1.05.15l.83.91a.77.52-28.9 0 0 .76.07l1.9-.79q.57-.24.09-.58l-2.11-1.47q-.44-.31-.48-.82-.24-2.59.2-4.08.13-.44-.26-.66-.79-.44-1.28-1.66-.24-.6-.89-.54-.56.05-.99 1.33-.46 1.34-.75-.05-.66-3.2 1.21-5.32.32-.36.23-.81l-.11-.52q-.17-.86.58-.66c1.09.3 1.44.96 2.17 1.66a.2.2 0 0 0 .32-.22q-.6-1.6.48-2.09 1.48-.68 1.66-1.18M237.96 70.92q.88 1.06.52 2.13-.16.48.02.95.57 1.5 1.32 2.23 1.51 1.48.93-.61-.04-.14-.32-.91-.17-.46.31-.58.64-.16 1.2-.52.39-.24.84-.1l4.11 1.28q.45.14.86-.12.91-.59 1.2-1.42a.91.91 0 0 0-.17-.91q-.72-.81-.8-2.61M253.15 73.96l-1.03 1.68a.81.81 0 0 0 .55 1.23q.85.15 1.2-.21 1.13-1.18 1.1.47-.02 1.31.89 2.47a.8.62-50.5 0 1-.03.83q-.26.41-1.22.8a.81.81 0 0 0-.41 1.12q1.58 2.99-.41 3.87a.46.46 0 0 0-.15.73q.47.5-.29 1.38-.34.39 0 .78.63.74.57 1.16a.4.4 0 0 1-.55.31q-.86-.37-1.62-.4-.69-.04-.17.46.22.22.39.78.16.49.03 1.23-.17.98.49 1.57.44.4-.12.59-1.01.35-1.76 1.28-1.01 1.25-.28 1.56a.35.25 33 0 0 .31-.01l.3-.24q.56-.42.92.26 1.61 2.98 1.14 6.69-.03.27.22.37l.28.11a.28.25-76.8 0 0 .34-.24l.2-1.75q.08-.7.69-.73.88-.04 1.53-.61.59-.54.74.23l.14.76q.06.31.4.34l.71.06q.63.05.35-.43-1.05-1.8-.06-3.65.21-.39-.05-.74-.57-.79-1.36-1.01-1.94-.56-.11-1.01 1.13-.27 1.11-1.42a.37.37 0 0 1 .15-.3q.13-.1.26-.1.36-.03.39.29l.08.77q.07.64.71.3.81-.43.89-.54 1.31-1.88 1.37.46l.08 2.76q.02.77.6.33.07-.06.17-.42.4-1.52 1.43-.33.89 1.01 1.87 1.05.7.03.46-.63l-.21-.58q-.2-.54.45-.64 1.88-.26 2.72.96.32.47-.02.94-.75 1.02.23 2.58a.93.93 0 0 1 .01.99q-1.09 1.73-.28 2.59.29.31-.16.49l-.36.15q-.66.27-.82.75l-1.53 4.71q-.18.53.28 1.11l.38.48q.3.37.17.85l-.99 3.61q-.17.65.39.18 1.58-1.31 2.42-1.45.62-.1 1.34.99.11.18.42.3a.94.16 54.1 0 0-.52-1.04q-.65-.82.36-1.62.39-.3.13-.8l-.58-1.12q-.18-.34.3-.56l1.62-.76q.62-.29.62.36l.04 2.7q0 .39.4.37.27-.01.38-.1.13-.11.19-.54.08-.52.37-.69.62-.36.66.38l.03.64q.04.67.67.14.22-.18.32-.94.07-.52.57-.66.53-.14.94.07.47.23.48.76.05 1.63.35 2.04.34.48.11.92-.54.99-1.75 6.57-.1.47.03.93.59 2.08-.39 3.05-.39.39-.25.93.17.7 1.19.64 1.17-.08.23-.77-.07-.06-.44-.74-.4-.73.41-.44l1.69.61q.79.28.79-.61-.01-1.34-.51-2.19-.3-.53.28-.69 1.28-.36 1.6-.74a.39.39 0 0 1 .61.03q.79 1.12 2.16 1.48.72.19.41-.54l-.28-.66q-.21-.5.34-.68.52-.18.7-.03a4.29 3.01-78.2 0 1 1.2 2.79l.59 10.74a.54.53-26.4 0 0 .95.3q1.65-1.87 2.58-4.09.2-.47-.31-.63l-.56-.18q-.53-.16-.42-.69.06-.25.27-.39 1.08-.71 3.16-1.31M169.96 157.52q1.07-.78 1.45-1.77.19-.49-.3-.71-2.13-.94-1.77-2.39.21-.85-.57-.45l-1.06.54q-.53.27-.64-.32c-.27-1.54 1.16-3.96 2.26-5.83q.19-.32.55-.24l.29.07a.46.32-70.7 0 0 .57-.41q.18-1.39 1.82-3.32.33-.39.16-.87-.43-1.27-.6-2.23-.12-.73.14-1.2.18-.36 1.25-.47.43-.05.64-.43.49-.89 1.18-1.17.65-.26.69.43l.11 1.63q.01.18.02.2.14.2.33.14.38-.14.41-.54l.03-.41a.48.48 0 0 1 .9-.2q.14.26.21.72.08.57.64.71 1.02.23 1.41 1.21a.91.91 0 0 0 .71.56q1.2.19 2.93 1.14.47.26.92-.02.47-.27.53-1.15a.6.6 0 0 1 .15-.36q.82-.89 2.46.95.66.74 1.14-.13.49-.92 2.36-.26a.43.06-17.7 0 0 .35-.06q.1-.03.19-.18a.29.29 0 0 0-.2-.43q-2.08-.38-1.78-2.53.02-.17-.03-.2l-.25-.1q-.43-.18-.45.14-.06.73-.18.97-.27.58-.59-.18-1.43-3.49-1.43-6.6 0-.71-.62-.37-.95.5-1.52.01-.58-.51-.74.25-.14.67.02 2.52.05.58-.53.62-.32.02-.6-.26-.72-.71-.77-1.32-.25-2.7-.91-3.98-.25-.48.16-.85.28-.26.99-.48.46-.14.24-.56-.37-.76-1.5-2.47-3.85-5.86 2.06-9.07a3.32 3.31-12 0 0 1.72-2.65q.23-2.85 1.71-6.49.36-.86-.37-.28c-1.18.93-2.02 2.32-3.6 1.04a.38.38 0 0 0-.62.23q-.29 1.49.74 2.75.42.52-.26.53h-2.77q-.68 0-.45-.7l.21-.63q.1-.31-.13-.45-.12-.08-.27-.1-.32-.03-.6.15-.84.56-1.35.76-.6.25-.68-.4-.41-3.37.05-6.69.07-.51-.38-.75-1.04-.54-1.26-1.39-.36-1.42-.85.01l-.5 1.48q-.18.52.03.86l.37.63q.28.46-.16.83-2.28 1.94-3.95-.08-.43-.52-.74.08-.29.58.62 1.7.31.39-.07.71-.99.8-1.98 1.12-.58.19-.21.67.63.83.63 2.55 0 .64.66.31l.58-.29a.46.45-13.9 0 1 .66.39q.01 1.96-1.16 3.73-.42.63-.65-.1l-.19-.62q-.23-.74-.82-.25l-1.26 1.03q-.45.37-.57-.26-.5-2.56-3.35-3.91-.54-.25-.38-.82 1.02-3.79.19-9.77-.08-.61-.62-.36l-1.13.52q-.76.35-.62-.43.02-.12.26-.58.25-.48.21-.52l-1.26-1.23q-.99-.97-.1-1.03.93-.06 1.72.6a.43.43 0 0 0 .7-.23q.08-.34.09-.86c.03-2.03 1.46-3.07 3.52-2.57q.54.13.82.61.12.22.24.26.14.05-.06-.75-.12-.49.37-2.59a.26.25 11.8 0 0-.2-.3l-2.03-.38q-.48-.09-.6-.59-.68-2.74 1.11-3.44.58-.22.65-.81l.67-6.57q.07-.59-.52-.48-.87.17-1.38.72a.29.28-34.5 0 1-.48-.08l-.63-1.75q-.17-.44.05-.94.46-1.03.46-2.26M172.49 74.98l1.93-.67q.63-.22.61.38l-.06 1.55q-.02.72.58.37 1.44-.84 2.79.99.16.22.25-.04.07-.19-.16-.43-.42-.41-.1-.91 1.37-2.07 4.24-.54a.21.17-3.1 0 0 .28-.25l-2.51-2.53q-.38-.39-.05-.7l.21-.19q.35-.32.03-.74-.6-.82-.64-1.91 0-.13-.08-.16l-.26-.08a.33.3 12.4 0 0-.42.25l-.19 1.8q-.18 1.61-.9.18-.82-1.61-.74-3.04M215.29 66.33l.67.09M162.79 154.83q.53-7.76-4.96-12.54a.48.48 0 0 0-.73.12q-1.06 1.73-.2 3.55a.61.61 0 0 1-.42.86l-2.03.44q-.43.09-.57.53l-.15.51q-.32 1.07-.64.01-.08-.25-.11-.53-.07-.51-.55-.68-.14-.04-.31-.06-.49-.04-.74.34l-2.16 3.27a.86.79 27.4 0 0 .44 1.2q1.5.62 1.36 1.84M144.07 153.87q-.3-1.72 1.37-2.15.6-.15.22-.54l-1.07-1.11q-.63-.65.2-.96l.53-.19a.51.47-31 0 0 .22-.79q-1.04-1.09-1.2-1.5-.21-.54.37-.57.99-.04.91-.76a.47.46 15 0 0-.19-.33q-1.49-1.07-.71-2.25a1.04 1.04 0 0 0 .1-.95q-.43-1.11-1.22-1.66a.37.36 30 0 0-.53.15q-.13.26-.25.35-.74.51-.21-.38 1.06-1.76-.88-3.03-.49-.32-.68.26l-1.32 3.93q-.14.43-.63.49-1.51.19-3.16 1.02a.54.48 67.8 0 1-.7-.34l-.38-1.11a.34.33 45 0 0-.64-.01c-.59 1.93-2.67 2.97-3.12 4.58q-.18.69.14 1.39.36.81.59-.07l.22-.9q.06-.24.27-.2l.35.06q.2.03.2.23.06 2.38.8 4.17.66 1.58-.81.7-.66-.4-1.24-.27-.52.12-.69.62l-.43 1.31M129.02 152.99q.26-1.23-.07-2.24-.19-.57-.65-.28l-.34.22q-.43.28-.89-.13-.49-.43-.85-1.1a.95.95 0 0 1 .03-.93q.88-1.49.05-2.88-.3-.49-.08-1.01.7-1.66-.94-2.92a.85.85 0 0 1 .2-1.46q1.07-.43 1.41-.84.35-.43-.01-.87l-.96-1.18a.5.5 0 0 0-.77-.01q-.46.54-.79.42-.46-.15-.08-.44 2.07-1.56 1.69-3.67-.14-.78-.69-.2-.54.56-1.26.06a.91.87-40.1 0 0-.89-.06l-.47.23q-.58.28-.61-.37-.11-2.35-.3-3.45-.53-3.15-2.16-.41-.54.91-1.22 1.77-.37.47-.14 1.05l.79 1.97a1.22 1.22 0 0 1-.97 1.66q-1.3.19-3.49 1.18-.44.2-.49.61l-.15 1.44q-.08.75-.82.82l-.41.03q-.57.05-.62-.53l-.12-1.6a1.01 1 72.7 0 0-1.51-.8q-1.19.7-.95 1.86.12.55-.03.91l-.67 1.61a.4.4 0 0 1-.61.16l-.31-.23a.35.32 28.3 0 0-.52.14l-1.28 3.76a2.94 1.89 29.8 0 0 1.4 2.68q.12.09.27-.22.14-.28-.05-.52-.76-.95.34-1.81.47-.37.86.07 1.32 1.49 1.12 3.21-.1.95.85.89 1.12-.06 1.08.88M98.97 145.93q.22-1.36-.9-2.29-.5-.42-1-.18l-.41.2q-.5.23-.66-.39l.02-.82q.02-.46.22-.81 1.76-3.12-1.38-5.25-.52-.35-.77.24l-.4.9q-.35.8-.56-.04c-.37-1.5.56-2.32.72-3.44q.22-1.57.1-4.3-.03-.53-.52-.72-.44-.17-.96.05-.58.25-.12.67.18.17.28.46.2.58-.4.7-1.41.29-2.41-.45-.59-.44-1.02.17l-.37.53q-.41.59.13 1.09l1.31 1.19a.18.16-34.7 0 1-.07.28l-.27.12h-.02q-1.54-1.47-2.75-.33-.39.38-.43-.13 0-.02.39-.48.36-.45-.09-.81-.55-.44-.14-.94a.76.7-39.3 0 0 .11-.78l-1.52-3.13a.89.84-41.5 0 1 .07-.86l.55-.79a.37.34 16.8 0 0-.32-.53q-.22-.01-.64.04-.53.06-1.02.55-.48.47-.62-.21l-.16-.77q-.14-.67-.71-.33-.51.31-.99.96-.33.44-.05.92.96 1.64.78 2.8-.09.56-.55.81l-.84.45q-.59.32-.44.95.26 1.06-.53 1.75-.42.36-.45.94l-.18 4.05q-.03.59.48.87.5.28.98.02.46-.24.56-.75.07-.38.26-.65.45-.62.6.13.6 3.02-.67 5.08" vector-effect="non-scaling-stroke"/><path d="M243.1 75.2a.26.26 0 0 0-.03.35q.35.47.62.26.32-.26.02-.54-.33-.32-.61-.07M185.16 114.46q.08.25.34.2.29-.05.11-.29-.06-.09-.17-.1-.35-.03-.28.19M288.45 138q.19-.22.13-.48-.12-.54-.52-.16-1.03.95-1.05 1.93-.01.64.65.47.25-.07.53-1.27.07-.28.26-.49M174.05 138.4q.02.3.43.4a.31.31 0 0 0 .38-.36q-.07-.41-.46-.42-.38 0-.35.38M183.2 143.42q-.26.38.27.44a.35.35 0 0 0 .34-.52q-.26-.46-.61.08" vector-effect="non-scaling-stroke"/></g><path d="m214.4 66.25.81 1.25q.37.57.72 0 .2-.32.24-.95 1.13.02 1.82.73-1.88 1.47 1.4 2.97.41.19.17.57-1.93 3.05-3.93 4.05a.59.59 0 0 0-.22.85q.34.51.79.84.18.13.41.12.15-.01.28-.08.54-.29.86.13l1.72 2.25a3.3 3.17 49.2 0 1-.23 4.29q-2.1 2.05-3.23 4.7a.7.68 22.3 0 0 .4.9l1.84.72q.58.23.65-.38l.15-1.39q.06-.56.58-.76.48-.18.96.17.26.19.38.56.15.4.19.59.15.57.73.56.48-.01 1.2-.51.45-.31.9-.01 1 .67.99 1.88-.03 3.05.7 4.16.17.26 0 .52l-.15.22q-.29.44.09.8 1.83 1.79.88 3.03-.43.57.08 1.06.6.58.94.69.49.16.47-.35-.09-3.02.41-4.67.18-.58-.19-1.01l-.53-.61a.8.65-63 0 1-.14-.65q.44-2 1.67-2.73.46-.27.67-.77.4-.93 1.19-1.58.51-.43 1.05.15l.83.91a.77.52-28.9 0 0 .76.07l1.9-.79q.57-.24.09-.58l-2.11-1.47q-.44-.31-.48-.82-.24-2.59.2-4.08.13-.44-.26-.66-.79-.44-1.28-1.66-.24-.6-.89-.54-.56.05-.99 1.33-.46 1.34-.75-.05-.66-3.2 1.21-5.32.32-.36.23-.81l-.11-.52q-.17-.86.58-.66c1.09.3 1.44.96 2.17 1.66a.2.2 0 0 0 .32-.22q-.6-1.6.48-2.09 1.48-.68 1.66-1.18 1.52-1.06 2.28-.16.88 1.06.52 2.13-.16.48.02.95.57 1.5 1.32 2.23 1.51 1.48.93-.61-.04-.14-.32-.91-.17-.46.31-.58.64-.16 1.2-.52.39-.24.84-.1l4.11 1.28q.45.14.86-.12.91-.59 1.2-1.42a.91.91 0 0 0-.17-.91q-.72-.81-.8-2.61l5.17 4.23-1.03 1.68a.81.81 0 0 0 .55 1.23q.85.15 1.2-.21 1.13-1.18 1.1.47-.02 1.31.89 2.47a.8.62-50.5 0 1-.03.83q-.26.41-1.22.8a.81.81 0 0 0-.41 1.12q1.58 2.99-.41 3.87a.46.46 0 0 0-.15.73q.47.5-.29 1.38-.34.39 0 .78.63.74.57 1.16a.4.4 0 0 1-.55.31q-.86-.37-1.62-.4-.69-.04-.17.46.22.22.39.78.16.49.03 1.23-.17.98.49 1.57.44.4-.12.59-1.01.35-1.76 1.28-1.01 1.25-.28 1.56a.35.25 33 0 0 .31-.01l.3-.24q.56-.42.92.26 1.61 2.98 1.14 6.69-.03.27.22.37l.28.11a.28.25-76.8 0 0 .34-.24l.2-1.75q.08-.7.69-.73.88-.04 1.53-.61.59-.54.74.23l.14.76q.06.31.4.34l.71.06q.63.05.35-.43-1.05-1.8-.06-3.65.21-.39-.05-.74-.57-.79-1.36-1.01-1.94-.56-.11-1.01 1.13-.27 1.11-1.42a.37.37 0 0 1 .15-.3q.13-.1.26-.1.36-.03.39.29l.08.77q.07.64.71.3.81-.43.89-.54 1.31-1.88 1.37.46l.08 2.76q.02.77.6.33.07-.06.17-.42.4-1.52 1.43-.33.89 1.01 1.87 1.05.7.03.46-.63l-.21-.58q-.2-.54.45-.64 1.88-.26 2.72.96.32.47-.02.94-.75 1.02.23 2.58a.93.93 0 0 1 .01.99q-1.09 1.73-.28 2.59.29.31-.16.49l-.36.15q-.66.27-.82.75l-1.53 4.71q-.18.53.28 1.11l.38.48q.3.37.17.85l-.99 3.61q-.17.65.39.18 1.58-1.31 2.42-1.45.62-.1 1.34.99.11.18.42.3a.94.16 54.1 0 0-.52-1.04q-.65-.82.36-1.62.39-.3.13-.8l-.58-1.12q-.18-.34.3-.56l1.62-.76q.62-.29.62.36l.04 2.7q0 .39.4.37.27-.01.38-.1.13-.11.19-.54.08-.52.37-.69.62-.36.66.38l.03.64q.04.67.67.14.22-.18.32-.94.07-.52.57-.66.53-.14.94.07.47.23.48.76.05 1.63.35 2.04.34.48.11.92-.54.99-1.75 6.57-.1.47.03.93.59 2.08-.39 3.05-.39.39-.25.93.17.7 1.19.64 1.17-.08.23-.77-.07-.06-.44-.74-.4-.73.41-.44l1.69.61q.79.28.79-.61-.01-1.34-.51-2.19-.3-.53.28-.69 1.28-.36 1.6-.74a.39.39 0 0 1 .61.03q.79 1.12 2.16 1.48.72.19.41-.54l-.28-.66q-.21-.5.34-.68.52-.18.7-.03a4.29 3.01-78.2 0 1 1.2 2.79l.59 10.74a.54.53-26.4 0 0 .95.3q1.65-1.87 2.58-4.09.2-.47-.31-.63l-.56-.18q-.53-.16-.42-.69.06-.25.27-.39 1.08-.71 3.16-1.31-2.18 6.67-4.67 13.21c-1.94 5.1-2.95 9.87-3.76 14.74q-.5 2.98-1.41 4.16c-2.36 3.07-7.71 2.81-10.67 1.45-5.01-2.29-6.77-3.4-11.49-.55q-6.21 3.76-11.21 3.53-5.86-.27-14.12-3.26-7.47-2.7-10.39-3.12-5.15-.73-11.04.26-4.19.7-10.81 1.66-5.86.86-10.9.64-11.41-.49-22.32-4.72 1.07-.78 1.45-1.77.19-.49-.3-.71-2.13-.94-1.77-2.39.21-.85-.57-.45l-1.06.54q-.53.27-.64-.32c-.27-1.54 1.16-3.96 2.26-5.83q.19-.32.55-.24l.29.07a.46.32-70.7 0 0 .57-.41q.18-1.39 1.82-3.32.33-.39.16-.87-.43-1.27-.6-2.23-.12-.73.14-1.2.18-.36 1.25-.47.43-.05.64-.43.49-.89 1.18-1.17.65-.26.69.43l.11 1.63q.01.18.02.2.14.2.33.14.38-.14.41-.54l.03-.41a.48.48 0 0 1 .9-.2q.14.26.21.72.08.57.64.71 1.02.23 1.41 1.21a.91.91 0 0 0 .71.56q1.2.19 2.93 1.14.47.26.92-.02.47-.27.53-1.15a.6.6 0 0 1 .15-.36q.82-.89 2.46.95.66.74 1.14-.13.49-.92 2.36-.26a.43.06-17.7 0 0 .35-.06q.1-.03.19-.18a.29.29 0 0 0-.2-.43q-2.08-.38-1.78-2.53.02-.17-.03-.2l-.25-.1q-.43-.18-.45.14-.06.73-.18.97-.27.58-.59-.18-1.43-3.49-1.43-6.6 0-.71-.62-.37-.95.5-1.52.01-.58-.51-.74.25-.14.67.02 2.52.05.58-.53.62-.32.02-.6-.26-.72-.71-.77-1.32-.25-2.7-.91-3.98-.25-.48.16-.85.28-.26.99-.48.46-.14.24-.56-.37-.76-1.5-2.47-3.85-5.86 2.06-9.07a3.32 3.31-12 0 0 1.72-2.65q.23-2.85 1.71-6.49.36-.86-.37-.28c-1.18.93-2.02 2.32-3.6 1.04a.38.38 0 0 0-.62.23q-.29 1.49.74 2.75.42.52-.26.53h-2.77q-.68 0-.45-.7l.21-.63q.1-.31-.13-.45-.12-.08-.27-.1-.32-.03-.6.15-.84.56-1.35.76-.6.25-.68-.4-.41-3.37.05-6.69.07-.51-.38-.75-1.04-.54-1.26-1.39-.36-1.42-.85.01l-.5 1.48q-.18.52.03.86l.37.63q.28.46-.16.83-2.28 1.94-3.95-.08-.43-.52-.74.08-.29.58.62 1.7.31.39-.07.71-.99.8-1.98 1.12-.58.19-.21.67.63.83.63 2.55 0 .64.66.31l.58-.29a.46.45-13.9 0 1 .66.39q.01 1.96-1.16 3.73-.42.63-.65-.1l-.19-.62q-.23-.74-.82-.25l-1.26 1.03q-.45.37-.57-.26-.5-2.56-3.35-3.91-.54-.25-.38-.82 1.02-3.79.19-9.77-.08-.61-.62-.36l-1.13.52q-.76.35-.62-.43.02-.12.26-.58.25-.48.21-.52l-1.26-1.23q-.99-.97-.1-1.03.93-.06 1.72.6a.43.43 0 0 0 .7-.23q.08-.34.09-.86c.03-2.03 1.46-3.07 3.52-2.57q.54.13.82.61.12.22.24.26.14.05-.06-.75-.12-.49.37-2.59a.26.25 11.8 0 0-.2-.3l-2.03-.38q-.48-.09-.6-.59-.68-2.74 1.11-3.44.58-.22.65-.81l.67-6.57q.07-.59-.52-.48-.87.17-1.38.72a.29.28-34.5 0 1-.48-.08l-.63-1.75q-.17-.44.05-.94.46-1.03.46-2.26c1.9.52 3.53 1.84 5.3 2.07q1.54.21 2.7-.07.95-.22 1.47-1.72l1.93-.67q.63-.22.61.38l-.06 1.55q-.02.72.58.37 1.44-.84 2.79.99.16.22.25-.04.07-.19-.16-.43-.42-.41-.1-.91 1.37-2.07 4.24-.54a.21.17-3.1 0 0 .28-.25l-2.51-2.53q-.38-.39-.05-.7l.21-.19q.35-.32.03-.74-.6-.82-.64-1.91 0-.13-.08-.16l-.26-.08a.33.3 12.4 0 0-.42.25l-.19 1.8q-.18 1.61-.9.18-.82-1.61-.74-3.04c3.92-2.11 7.25.36 10.31 2.08a1.15 1.15 0 0 0 .95.08q1.24-.45 6.9-3.04 3.47-1.59 8.02-.97 5.56.75 10.92-.21m28.7 8.95a.26.26 0 0 0-.03.35q.35.47.62.26.32-.26.02-.54-.33-.32-.61-.07m-57.94 39.26q.08.25.34.2.29-.05.11-.29-.06-.09-.17-.1-.35-.03-.28.19M288.45 138q.19-.22.13-.48-.12-.54-.52-.16-1.03.95-1.05 1.93-.01.64.65.47.25-.07.53-1.27.07-.28.26-.49m-114.4.4q.02.3.43.4a.31.31 0 0 0 .38-.36q-.07-.41-.46-.42-.38 0-.35.38m9.15 5.02q-.26.38.27.44a.35.35 0 0 0 .34-.52q-.26-.46-.61.08"/><path fill="#2904e1" d="m215.29 66.33.67.09q.11.06.21.13-.04.63-.24.95-.35.57-.72 0l-.81-1.25q.42.16.89.08"/><path d="m215.96 66.42-.67-.09z"/><path fill="#2904e1" d="M217.99 67.28q2.6.71 5.31 1.1 2.4.35 5.19 1.37 3.69 1.37 7.19 1.33-.18.5-1.66 1.18-1.08.49-.48 2.09a.2.2 0 0 1-.32.22c-.73-.7-1.08-1.36-2.17-1.66q-.75-.2-.58.66l.11.52q.09.45-.23.81-1.87 2.12-1.21 5.32.29 1.39.75.05.43-1.28.99-1.33.65-.06.89.54.49 1.22 1.28 1.66.39.22.26.66-.44 1.49-.2 4.08.04.51.48.82l2.11 1.47q.48.34-.09.58l-1.9.79a.77.52-28.9 0 1-.76-.07l-.83-.91q-.54-.58-1.05-.15-.79.65-1.19 1.58-.21.5-.67.77-1.23.73-1.67 2.73a.8.65-63 0 0 .14.65l.53.61q.37.43.19 1.01-.5 1.65-.41 4.67.02.51-.47.35-.34-.11-.94-.69-.51-.49-.08-1.06.95-1.24-.88-3.03-.38-.36-.09-.8l.15-.22q.17-.26 0-.52-.73-1.11-.7-4.16.01-1.21-.99-1.88-.45-.3-.9.01-.72.5-1.2.51-.58.01-.73-.56-.04-.19-.19-.59-.12-.37-.38-.56-.48-.35-.96-.17-.52.2-.58.76l-.15 1.39q-.07.61-.65.38l-1.84-.72a.7.68 22.3 0 1-.4-.9q1.13-2.65 3.23-4.7a3.3 3.17 49.2 0 0 .23-4.29l-1.72-2.25q-.32-.42-.86-.13-.13.07-.28.08-.23.01-.41-.12-.45-.33-.79-.84a.59.59 0 0 1 .22-.85q2-1 3.93-4.05.24-.38-.17-.57-3.28-1.5-1.4-2.97M177.3 68.31q-.08 1.43.74 3.04.72 1.43.9-.18l.19-1.8a.33.3 12.4 0 1 .42-.25l.26.08q.08.03.08.16.04 1.09.64 1.91.32.42-.03.74l-.21.19q-.33.31.05.7l2.51 2.53a.21.17-3.1 0 1-.28.25q-2.87-1.53-4.24.54-.32.5.1.91.23.24.16.43-.09.26-.25.04-1.35-1.83-2.79-.99-.6.35-.58-.37l.06-1.55q.02-.6-.61-.38l-1.93.67q1.58-2.52 3.02-4.99.73-1.27 1.79-1.68M247.98 69.73q.08 1.8.8 2.61a.91.91 0 0 1 .17.91q-.29.83-1.2 1.42-.41.26-.86.12l-4.11-1.28q-.45-.14-.84.1-.56.36-1.2.52-.48.12-.31.58.28.77.32.91.58 2.09-.93.61-.75-.73-1.32-2.23-.18-.47-.02-.95.36-1.07-.52-2.13zM163.02 74.7q0 1.23-.46 2.26-.22.5-.05.94l.63 1.75a.29.28-34.5 0 0 .48.08q.51-.55 1.38-.72.59-.11.52.48l-.67 6.57q-.07.59-.65.81-1.79.7-1.11 3.44.12.5.6.59l2.03.38a.26.25 11.8 0 1 .2.3q-.49 2.1-.37 2.59.2.8.06.75-.12-.04-.24-.26-.28-.48-.82-.61c-2.06-.5-3.49.54-3.52 2.57q-.01.52-.09.86a.43.43 0 0 1-.7.23q-.79-.66-1.72-.6-.89.06.1 1.03l1.26 1.23q.04.04-.21.52-.24.46-.26.58-.14.78.62.43l1.13-.52q.54-.25.62.36.83 5.98-.19 9.77-.16.57.38.82 2.85 1.35 3.35 3.91.12.63.57.26l1.26-1.03q.59-.49.82.25l.19.62q.23.73.65.1 1.17-1.77 1.16-3.73a.46.45-13.9 0 0-.66-.39l-.58.29q-.66.33-.66-.31 0-1.72-.63-2.55-.37-.48.21-.67.99-.32 1.98-1.12.38-.32.07-.71-.91-1.12-.62-1.7.31-.6.74-.08 1.67 2.02 3.95.08.44-.37.16-.83l-.37-.63q-.21-.34-.03-.86l.5-1.48q.49-1.43.85-.01.22.85 1.26 1.39.45.24.38.75-.46 3.32-.05 6.69.08.65.68.4.51-.2 1.35-.76.28-.18.6-.15.15.02.27.1.23.14.13.45l-.21.63q-.23.7.45.7h2.77q.68-.01.26-.53-1.03-1.26-.74-2.75a.38.38 0 0 1 .62-.23c1.58 1.28 2.42-.11 3.6-1.04q.73-.58.37.28-1.48 3.64-1.71 6.49a3.32 3.31-12 0 1-1.72 2.65q-5.91 3.21-2.06 9.07 1.13 1.71 1.5 2.47.22.42-.24.56-.71.22-.99.48-.41.37-.16.85.66 1.28.91 3.98.05.61.77 1.32.28.28.6.26.58-.04.53-.62-.16-1.85-.02-2.52.16-.76.74-.25.57.49 1.52-.01.62-.34.62.37 0 3.11 1.43 6.6.32.76.59.18.12-.24.18-.97.02-.32.45-.14l.25.1q.05.03.03.2-.3 2.15 1.78 2.53a.29.29 0 0 1 .2.43q-.09.15-.19.18a.43.06-17.7 0 1-.35.06q-1.87-.66-2.36.26-.48.87-1.14.13-1.64-1.84-2.46-.95a.6.6 0 0 0-.15.36q-.06.88-.53 1.15-.45.28-.92.02-1.73-.95-2.93-1.14a.91.91 0 0 1-.71-.56q-.39-.98-1.41-1.21-.56-.14-.64-.71-.07-.46-.21-.72a.48.48 0 0 0-.9.2l-.03.41q-.03.4-.41.54-.19.06-.33-.14-.01-.02-.02-.2l-.11-1.63q-.04-.69-.69-.43-.69.28-1.18 1.17-.21.38-.64.43-1.07.11-1.25.47-.26.47-.14 1.2.17.96.6 2.23.17.48-.16.87-1.64 1.93-1.82 3.32a.46.32-70.7 0 1-.57.41l-.29-.07q-.36-.08-.55.24c-1.1 1.87-2.53 4.29-2.26 5.83q.11.59.64.32l1.06-.54q.78-.4.57.45-.36 1.45 1.77 2.39.49.22.3.71-.38.99-1.45 1.77l-7.17-2.69q.53-7.76-4.96-12.54a.48.48 0 0 0-.73.12q-1.06 1.73-.2 3.55a.61.61 0 0 1-.42.86l-2.03.44q-.43.09-.57.53l-.15.51q-.32 1.07-.64.01-.08-.25-.11-.53-.07-.51-.55-.68-.14-.04-.31-.06-.49-.04-.74.34l-2.16 3.27a.86.79 27.4 0 0 .44 1.2q1.5.62 1.36 1.84l-6.95.18q-.3-1.72 1.37-2.15.6-.15.22-.54l-1.07-1.11q-.63-.65.2-.96l.53-.19a.51.47-31 0 0 .22-.79q-1.04-1.09-1.2-1.5-.21-.54.37-.57.99-.04.91-.76a.47.46 15 0 0-.19-.33q-1.49-1.07-.71-2.25a1.04 1.04 0 0 0 .1-.95q-.43-1.11-1.22-1.66a.37.36 30 0 0-.53.15q-.13.26-.25.35-.74.51-.21-.38 1.06-1.76-.88-3.03-.49-.32-.68.26l-1.32 3.93q-.14.43-.63.49-1.51.19-3.16 1.02a.54.48 67.8 0 1-.7-.34l-.38-1.11a.34.33 45 0 0-.64-.01c-.59 1.93-2.67 2.97-3.12 4.58q-.18.69.14 1.39.36.81.59-.07l.22-.9q.06-.24.27-.2l.35.06q.2.03.2.23.06 2.38.8 4.17.66 1.58-.81.7-.66-.4-1.24-.27-.52.12-.69.62l-.43 1.31q-.74-.16-1.48-.07.26-1.23-.07-2.24-.19-.57-.65-.28l-.34.22q-.43.28-.89-.13-.49-.43-.85-1.1a.95.95 0 0 1 .03-.93q.88-1.49.05-2.88-.3-.49-.08-1.01.7-1.66-.94-2.92a.85.85 0 0 1 .2-1.46q1.07-.43 1.41-.84.35-.43-.01-.87l-.96-1.18a.5.5 0 0 0-.77-.01q-.46.54-.79.42-.46-.15-.08-.44 2.07-1.56 1.69-3.67-.14-.78-.69-.2-.54.56-1.26.06a.91.87-40.1 0 0-.89-.06l-.47.23q-.58.28-.61-.37-.11-2.35-.3-3.45-.53-3.15-2.16-.41-.54.91-1.22 1.77-.37.47-.14 1.05l.79 1.97a1.22 1.22 0 0 1-.97 1.66q-1.3.19-3.49 1.18-.44.2-.49.61l-.15 1.44q-.08.75-.82.82l-.41.03q-.57.05-.62-.53l-.12-1.6a1.01 1 72.7 0 0-1.51-.8q-1.19.7-.95 1.86.12.55-.03.91l-.67 1.61a.4.4 0 0 1-.61.16l-.31-.23a.35.32 28.3 0 0-.52.14l-1.28 3.76a2.94 1.89 29.8 0 0 1.4 2.68q.12.09.27-.22.14-.28-.05-.52-.76-.95.34-1.81.47-.37.86.07 1.32 1.49 1.12 3.21-.1.95.85.89 1.12-.06 1.08.88l-12.97-4.53q.22-1.36-.9-2.29-.5-.42-1-.18l-.41.2q-.5.23-.66-.39l.02-.82q.02-.46.22-.81 1.76-3.12-1.38-5.25-.52-.35-.77.24l-.4.9q-.35.8-.56-.04c-.37-1.5.56-2.32.72-3.44q.22-1.57.1-4.3-.03-.53-.52-.72-.44-.17-.96.05-.58.25-.12.67.18.17.28.46.2.58-.4.7-1.41.29-2.41-.45-.59-.44-1.02.17l-.37.53q-.41.59.13 1.09l1.31 1.19a.18.16-34.7 0 1-.07.28l-.27.12h-.02q-1.54-1.47-2.75-.33-.39.38-.43-.13 0-.02.39-.48.36-.45-.09-.81-.55-.44-.14-.94a.76.7-39.3 0 0 .11-.78l-1.52-3.13a.89.84-41.5 0 1 .07-.86l.55-.79a.37.34 16.8 0 0-.32-.53q-.22-.01-.64.04-.53.06-1.02.55-.48.47-.62-.21l-.16-.77q-.14-.67-.71-.33-.51.31-.99.96-.33.44-.05.92.96 1.64.78 2.8-.09.56-.55.81l-.84.45q-.59.32-.44.95.26 1.06-.53 1.75-.42.36-.45.94l-.18 4.05q-.03.59.48.87.5.28.98.02.46-.24.56-.75.07-.38.26-.65.45-.62.6.13.6 3.02-.67 5.08-7.98-1.8-6.07-9.57c1.05-4.31 2.47-7.89 5-11.6q5.2-7.64 9.28-12.59 1.04-1.27 3.06-1.71 23.32-5.09 39.91-11.09 8.62-3.11 13.6-9.63 3.55-4.64 4.23-11.43.22-2.14 2.23-3 1.22-.51 3.2.02 3.8 1.03 7.39 2.63M292.75 129.52q-2.08.6-3.16 1.31-.21.14-.27.39-.11.53.42.69l.56.18q.51.16.31.63-.93 2.22-2.58 4.09a.54.53-26.4 0 1-.95-.3l-.59-10.74a4.29 3.01-78.2 0 0-1.2-2.79q-.18-.15-.7.03-.55.18-.34.68l.28.66q.31.73-.41.54-1.37-.36-2.16-1.48a.39.39 0 0 0-.61-.03q-.32.38-1.6.74-.58.16-.28.69.5.85.51 2.19 0 .89-.79.61l-1.69-.61q-.81-.29-.41.44.37.68.44.74.94.69-.23.77-1.02.06-1.19-.64-.14-.54.25-.93.98-.97.39-3.05-.13-.46-.03-.93 1.21-5.58 1.75-6.57.23-.44-.11-.92-.3-.41-.35-2.04-.01-.53-.48-.76-.41-.21-.94-.07-.5.14-.57.66-.1.76-.32.94-.63.53-.67-.14l-.03-.64q-.04-.74-.66-.38-.29.17-.37.69-.06.43-.19.54-.11.09-.38.1-.4.02-.4-.37l-.04-2.7q0-.65-.62-.36l-1.62.76q-.48.22-.3.56l.58 1.12q.26.5-.13.8-1.01.8-.36 1.62a.94.16 54.1 0 1 .52 1.04q-.31-.12-.42-.3-.72-1.09-1.34-.99-.84.14-2.42 1.45-.56.47-.39-.18l.99-3.61q.13-.48-.17-.85l-.38-.48q-.46-.58-.28-1.11l1.53-4.71q.16-.48.82-.75l.36-.15q.45-.18.16-.49-.81-.86.28-2.59a.93.93 0 0 0-.01-.99q-.98-1.56-.23-2.58.34-.47.02-.94-.84-1.22-2.72-.96-.65.1-.45.64l.21.58q.24.66-.46.63-.98-.04-1.87-1.05-1.03-1.19-1.43.33-.1.36-.17.42-.58.44-.6-.33l-.08-2.76q-.06-2.34-1.37-.46-.08.11-.89.54-.64.34-.71-.3l-.08-.77q-.03-.32-.39-.29-.13 0-.26.1a.37.37 0 0 0-.15.3q.02 1.15-1.11 1.42-1.83.45.11 1.01.79.22 1.36 1.01.26.35.05.74-.99 1.85.06 3.65.28.48-.35.43l-.71-.06q-.34-.03-.4-.34l-.14-.76q-.15-.77-.74-.23-.65.57-1.53.61-.61.03-.69.73l-.2 1.75a.28.25-76.8 0 1-.34.24l-.28-.11q-.25-.1-.22-.37.47-3.71-1.14-6.69-.36-.68-.92-.26l-.3.24a.35.25 33 0 1-.31.01q-.73-.31.28-1.56.75-.93 1.76-1.28.56-.19.12-.59-.66-.59-.49-1.57.13-.74-.03-1.23-.17-.56-.39-.78-.52-.5.17-.46.76.03 1.62.4a.4.4 0 0 0 .55-.31q.06-.42-.57-1.16-.34-.39 0-.78.76-.88.29-1.38a.46.46 0 0 1 .15-.73q1.99-.88.41-3.87a.81.81 0 0 1 .41-1.12q.96-.39 1.22-.8a.8.62-50.5 0 0 .03-.83q-.91-1.16-.89-2.47.03-1.65-1.1-.47-.35.36-1.2.21a.81.81 0 0 1-.55-1.23l1.03-1.68 8.8 7.27a2.42 2.42 0 0 0 1.93.52q2.12-.34 6.06-.82 2.87-.35 6.09.27c4 .77 8.92 1.54 11.05 3.69q.59.6.85 2.06.72 4-.54 8.18-.19.62.46.75l.94.19q.61.13.7.73.46 3.03 2.27 5.81 1.02 1.55 1.24 3.77.42 4.02 1.34 11.59.44 3.58-1.59 11.55"/><path fill="#2904e1" d="M243.1 75.2q.28-.25.61.07.3.28-.02.54-.27.21-.62-.26a.26.26 0 0 1 .03-.35M185.16 114.46q-.07-.22.28-.19.11.01.17.1.18.24-.11.29-.26.05-.34-.2"/><path d="M98.97 145.93q-5.1-1.51-8.72-1.92-6.14-.7-9.06-1.34 1.27-2.06.67-5.08-.15-.75-.6-.13-.19.27-.26.65-.1.51-.56.75-.48.26-.98-.02-.51-.28-.48-.87l.18-4.05q.03-.58.45-.94.79-.69.53-1.75-.15-.63.44-.95l.84-.45q.46-.25.55-.81.18-1.16-.78-2.8-.28-.48.05-.92.48-.65.99-.96.57-.34.71.33l.16.77q.14.68.62.21.49-.49 1.02-.55.42-.05.64-.04a.37.34 16.8 0 1 .32.53l-.55.79a.89.84-41.5 0 0-.07.86l1.52 3.13a.76.7-39.3 0 1-.11.78q-.41.5.14.94.45.36.09.81-.39.46-.39.48.04.51.43.13 1.21-1.14 2.75.33h.02l.27-.12a.18.16-34.7 0 0 .07-.28l-1.31-1.19q-.54-.5-.13-1.09l.37-.53q.43-.61 1.02-.17 1 .74 2.41.45.6-.12.4-.7-.1-.29-.28-.46-.46-.42.12-.67.52-.22.96-.05.49.19.52.72.12 2.73-.1 4.3c-.16 1.12-1.09 1.94-.72 3.44q.21.84.56.04l.4-.9q.25-.59.77-.24 3.14 2.13 1.38 5.25-.2.35-.22.81l-.02.82q.16.62.66.39l.41-.2q.5-.24 1 .18 1.12.93.9 2.29M129.02 152.99q-8.68.02-17.08-2.53.04-.94-1.08-.88-.95.06-.85-.89.2-1.72-1.12-3.21-.39-.44-.86-.07-1.1.86-.34 1.81.19.24.05.52-.15.31-.27.22a2.94 1.89 29.8 0 1-1.4-2.68l1.28-3.76a.35.32 28.3 0 1 .52-.14l.31.23a.4.4 0 0 0 .61-.16l.67-1.61q.15-.36.03-.91-.24-1.16.95-1.86a1.01 1 72.7 0 1 1.51.8l.12 1.6q.05.58.62.53l.41-.03q.74-.07.82-.82l.15-1.44q.05-.41.49-.61 2.19-.99 3.49-1.18a1.22 1.22 0 0 0 .97-1.66l-.79-1.97q-.23-.58.14-1.05.68-.86 1.22-1.77 1.63-2.74 2.16.41.19 1.1.3 3.45.03.65.61.37l.47-.23a.91.87-40.1 0 1 .89.06q.72.5 1.26-.06.55-.58.69.2.38 2.11-1.69 3.67-.38.29.08.44.33.12.79-.42a.5.5 0 0 1 .77.01l.96 1.18q.36.44.01.87-.34.41-1.41.84a.85.85 0 0 0-.2 1.46q1.64 1.26.94 2.92-.22.52.08 1.01.83 1.39-.05 2.88a.95.95 0 0 0-.03.93q.36.67.85 1.1.46.41.89.13l.34-.22q.46-.29.65.28.33 1.01.07 2.24M144.07 153.87l-13.57-.81.43-1.31q.17-.5.69-.62.58-.13 1.24.27 1.47.88.81-.7-.74-1.79-.8-4.17 0-.2-.2-.23l-.35-.06q-.21-.04-.27.2l-.22.9q-.23.88-.59.07-.32-.7-.14-1.39c.45-1.61 2.53-2.65 3.12-4.58a.34.33 45 0 1 .64.01l.38 1.11a.54.48 67.8 0 0 .7.34q1.65-.83 3.16-1.02.49-.06.63-.49l1.32-3.93q.19-.58.68-.26 1.94 1.27.88 3.03-.53.89.21.38.12-.09.25-.35a.37.36 30 0 1 .53-.15q.79.55 1.22 1.66a1.04 1.04 0 0 1-.1.95q-.78 1.18.71 2.25a.47.46 15 0 1 .19.33q.08.72-.91.76-.58.03-.37.57.16.41 1.2 1.5a.51.47-31 0 1-.22.79l-.53.19q-.83.31-.2.96l1.07 1.11q.38.39-.22.54-1.67.43-1.37 2.15"/><path fill="#2904e1" d="M288.19 138.49q-.28 1.2-.53 1.27-.66.17-.65-.47.02-.98 1.05-1.93.4-.38.52.16.06.26-.13.48-.19.21-.26.49M174.4 138.02q.39.01.46.42a.31.31 0 0 1-.38.36q-.41-.1-.43-.4-.03-.38.35-.38"/><path d="m162.79 154.83-11.77-1.14q.14-1.22-1.36-1.84a.86.79 27.4 0 1-.44-1.2l2.16-3.27q.25-.38.74-.34.17.02.31.06.48.17.55.68.03.28.11.53.32 1.06.64-.01l.15-.51q.14-.44.57-.53l2.03-.44a.61.61 0 0 0 .42-.86q-.86-1.82.2-3.55a.48.48 0 0 1 .73-.12q5.49 4.78 4.96 12.54"/><path fill="#2904e1" d="M183.2 143.42q.35-.54.61-.08a.35.35 0 0 1-.34.52q-.53-.06-.27-.44"/></svg>