<svg xmlns="http://www.w3.org/2000/svg" viewBox="0 0 382 382"><defs><clipPath id="a"><path d="M206.44 314.67h-12.95c-1.21-2.51-3.68-5.19-3.38-7.49.75-5.57 2.98-10.93 4.26-16.45 1.32-5.69 2.27-11.47 3.26-17.23.45-2.59 0-5.5 1.03-7.79 1.44-3.23 4.06-5.91 5.79-9.04.92-1.65 1.56-3.78 1.43-5.63-.52-7.52-1.58-15.01-2.06-22.53-.5-7.85-4.73-14.92-12.25-16.61-7.27-1.63-14.94-2.3-22.38-1.99-5.67.24-10.44-.05-14.85-3.97-4.27-3.81-9.03-7.07-13.42-10.76-10.97-9.21-23.3-14.58-37.79-15.62-13.59-.97-23.89-11.32-22.18-27.83.35-3.39-1.96-7.06-3.05-10.6v-8.98c2.87-4.82 6.05-9.49 8.52-14.51 2.88-5.83 7.45-8.74 13.57-10.16 9.19-2.13 18.35-4.43 27.43-6.98 11.92-3.35 20.95-9.71 22.65-23.23.12-.97 1.37-2.05 2.36-2.6 5.11-2.85 9.16.46 13.25 2.7 3.34 1.83 5.3 1.31 7.01-2.2 2.7-5.54 6.16-6.44 11.54-4.15 1.78.76 4.49 1 6.09.17 5.44-2.82 11-2.87 16.83-2.25 1.35.14 2.85-1.04 4.28-1.61h2.99c.54.52.99 1.31 1.63 1.51 5.05 1.63 10.13 3.21 15.24 4.64.82.23 1.86-.51 2.81-.58 3.67-.27 7.73-1.53 10.93-.39 3.66 1.3 6.42 4.96 9.83 7.21 2.03 1.34 4.48 2.32 6.87 2.81 5.88 1.22 11.85 2.03 17.76 3.08 3.22.57 4.62 2.39 4.46 5.87-.12 2.71.25 5.59 1.09 8.16 2.07 6.3 8.55 6.38 13.31 8.91 1.21.64 3.07 1.46 3.22 2.42.65 4.02 1.13 8.15.98 12.21-.15 4.04-1.57 8.05-1.56 12.07 0 1.96 2.01 3.91 3.1 5.87v22.94c-.77 4.18-1.59 8.36-2.3 12.55-1.89 11.1-3.76 22.2-5.6 33.31-1.17 7.08-2.2 14.17-3.41 21.24-.71 4.18-1.82 8.29-2.44 12.48-.7 4.73-1.27 9.5-1.46 14.27-.12 2.91.57 5.85.94 8.77.33 2.58-.56 4.1-3.01 5.47-6.85 3.82-13.69 7.76-20.12 12.23-17.42 12.11-35.35 23.07-56.19 28.34-1.42.36-2.71 1.27-4.06 1.93z"/></clipPath></defs><g clip-path="url(#a)"><svg xmlns="http://www.w3.org/2000/svg" width="382" height="382" style="shape-rendering:geometricPrecision"><path fill="#f0bcd5" stroke="#f0bcd5" d="m382 109.486-13.357.89-27.93-54.542 11.842-12.006L382 33.834zM0 134.72l8.096.725 28.199 25.869 6.137 37.053-14.962 17.778L0 228.2zM116.011 224.506l-47.309 40.135-3.717-1.48-37.515-47.016 14.962-17.778 74.656 14.54zM237.943 210.248l-22.008 15.095-18.843-4.744-20.643-21.487 12.491-21.57 24.542-21.86 12.495-.051z"/><path fill="#a1ef1b" stroke="#a1ef1b" d="m169.489 270.59 10.958 26.424-30.232 20.31-11.979-10.406-5.006-36.387 2.463-7.382zM127.263 382l7.416-9.576 20.94-19.813 40.4-5.46 30.373 21.927L229.657 382z"/><path fill="#f0bcd5" stroke="#f0bcd5" d="m246.785 210.094 40.53-39.247 20.277 8.24-5.74 48.739-20.098 16.234z"/><path fill="#a1ef1b" stroke="#a1ef1b" d="M94.964 314.19 79.08 351.8l-40.42-21.095 8.856-26.211 22.923-23.778 22.187 20.563zM0 0h59.859l7.448 43.083-26.71 34.632L0 63.212z"/><path fill="#a1ef1b" stroke="#a1ef1b" d="m133.23 270.531 5.006 36.387-18.545 8.822-24.727-1.55-2.337-12.91z"/><path fill="#f0bcd5" stroke="#f0bcd5" d="m254.034 0-.586 61.86-47.71 1.555-7.35-3.228-7.525-10.775L160.15 0z"/><path fill="#a1ef1b" stroke="#a1ef1b" d="m0 261.11 12.118 9.558 3.94 63.8L0 343.374zM258.65 142.268l8.315-58.902 83.455 37.664-22.405 50.228-20.423 7.83-20.277-8.241zM152.831 122.36l1.09 25.645-21.907 25.301-10.416-56.456 18.848-4.829z"/><path fill="#f0bcd5" stroke="#f0bcd5" d="m213.482 155.682-20.25-31.984 12.506-60.283 47.71-1.555 7.288 4.785 6.23 16.721-8.317 58.902-32.672 13.363zM382 0v33.834l-29.445 9.994L340.289 0zM81.676 146.012l40.182 60.198-4.77 6.698-74.656-14.541-6.137-37.053z"/><path fill="#a1ef1b" stroke="#a1ef1b" d="m70.44 280.716-22.923 23.778-29.285-32.63 46.753-8.704 3.717 1.481z"/><path fill="#f0bcd5" stroke="#f0bcd5" d="m119.547 61.898-23.056 9.16-29.184-27.975L59.859 0h85.128l-23.49 58.38z"/><path fill="#a1ef1b" stroke="#a1ef1b" d="m309.902 382-16.193-64.425 3.139-9.545L382 287.378V382z"/><path fill="#f0bcd5" stroke="#f0bcd5" d="m218.127 272.988-.9 23.012-19.387 11.443-17.393-10.43-10.958-26.423 11.441-8.834z"/><path fill="#a1ef1b" stroke="#a1ef1b" d="m150.215 317.324 5.404 35.287-20.94 19.813-14.988-56.684 18.545-8.822zM93.467 114.05 40.49 103.138l.108-25.422 26.709-34.632L96.49 71.06l1.496 39.755zM175.428 126.843l-22.597-4.482-12.385-10.34 16.204-28.32 41.738-23.514 7.35 3.228-12.505 60.283zM160.151 0l30.712 49.412-69.365 8.968L144.988 0zM237.943 210.248l-11.966-54.617 32.672-13.363 28.666 28.579-40.53 39.247z"/><path fill="#f0bcd5" stroke="#f0bcd5" d="M0 382v-38.627l16.058-8.904 22.602-3.764L79.081 351.8 93.735 382z"/><path fill="#a1ef1b" stroke="#a1ef1b" d="m382 208.779-53.985-37.52 22.405-50.23 18.223-10.654 13.357-.89zM119.69 315.74l14.989 56.684-7.416 9.576H93.735L79.08 351.8l15.883-37.61zM0 63.212l40.598 14.503-.108 25.422-32.394 32.308L0 134.72z"/><path fill="#f0bcd5" stroke="#f0bcd5" d="m126.115 203.611-4.257 2.6-40.182-60.2 11.79-31.96 4.52-3.237 23.612 6.036 10.416 56.456z"/><path fill="#a1ef1b" stroke="#a1ef1b" d="m176.449 199.112-50.334 4.5 5.899-30.306 21.907-25.3 15.102 3.646 19.917 25.89zM12.118 270.668l6.114 1.196 29.285 32.63-8.857 26.21-22.602 3.765z"/><path fill="#f0bcd5" stroke="#f0bcd5" d="m0 228.2 27.47-12.055 37.515 47.015-46.753 8.704-6.114-1.196L0 261.11z"/><path fill="#a1ef1b" stroke="#a1ef1b" d="m350.42 121.03-83.455-37.664-6.229-16.721 42.173-20.154 37.805 9.343 27.93 54.541z"/><path fill="#f0bcd5" stroke="#f0bcd5" d="m242.986 345.178 50.723-27.603L309.902 382h-80.245l-3.265-12.922z"/><path fill="#a1ef1b" stroke="#a1ef1b" d="m230.929 301.594 12.057 43.584-16.594 23.9-30.374-21.927 1.822-39.708L217.228 296z"/><path fill="#f0bcd5" stroke="#f0bcd5" d="M198.388 60.187 156.65 83.701l-37.103-21.803 1.95-3.518 69.366-8.968z"/><path fill="#a1ef1b" stroke="#a1ef1b" d="m215.935 225.343 14.932 29.481-12.74 18.164-37.197-11.232 16.162-41.157z"/><path fill="#f0bcd5" stroke="#f0bcd5" d="m213.482 155.682-24.542 21.86-19.917-25.89 6.405-24.81 17.805-3.144zM281.754 244.06l20.099-16.234L382 272.293v15.085l-85.152 20.652-17.335-20.873-6.145-24.266z"/><path fill="#a1ef1b" stroke="#a1ef1b" d="m169.023 151.652-15.102-3.647-1.09-25.644 22.597 4.482z"/><path fill="#f0bcd5" stroke="#f0bcd5" d="m230.867 254.824 42.5 8.067 6.146 24.266-48.584 14.437L217.228 296l.9-23.012z"/><path fill="#a1ef1b" stroke="#a1ef1b" d="m81.676 146.012-45.381 15.302-28.199-25.87 32.394-32.307 52.977 10.914zM197.84 307.443l-1.822 39.708-40.399 5.46-5.404-35.287 30.232-20.31z"/><path fill="#f0bcd5" stroke="#f0bcd5" d="m340.714 55.834-37.805-9.343L323.44 0h16.85l12.266 43.828z"/><path fill="#a1ef1b" stroke="#a1ef1b" d="m382 272.293-80.147-44.467 5.739-48.739 20.423-7.829L382 208.778zM133.23 270.531l-40.603 30.748-22.187-20.563-1.738-16.075 47.31-40.135 19.68 38.643z"/><path fill="#f0bcd5" stroke="#f0bcd5" d="m197.092 220.599-16.162 41.157-11.441 8.834-33.796-7.44-19.682-38.644 1.077-11.598 4.77-6.698 4.257-2.599 50.334-4.499zM121.598 116.85l-23.611-6.036L96.49 71.06l23.056-9.161L156.65 83.7l-16.204 28.32z"/><path fill="#a1ef1b" stroke="#a1ef1b" d="m230.929 301.594 48.584-14.437 17.335 20.873-3.139 9.545-50.723 27.603z"/><path fill="#f0bcd5" stroke="#f0bcd5" d="M323.438 0 302.91 46.491l-42.173 20.154-7.288-4.785.586-61.86z"/><path fill="#a1ef1b" stroke="#a1ef1b" d="m237.943 210.248 8.842-.154 34.969 33.966-8.386 18.83-42.501-8.066-14.932-29.481z"/></svg></g></svg>