<svg xmlns="http://www.w3.org/2000/svg" viewBox="0 0 382 382"><defs><clipPath id="a"><path d="M206.44 314.67h-12.95c-1.21-2.51-3.68-5.19-3.38-7.49.75-5.57 2.98-10.93 4.26-16.45 1.32-5.69 2.27-11.47 3.26-17.23.45-2.59 0-5.5 1.03-7.79 1.44-3.23 4.06-5.91 5.79-9.04.92-1.65 1.56-3.78 1.43-5.63-.52-7.52-1.58-15.01-2.06-22.53-.5-7.85-4.73-14.92-12.25-16.61-7.27-1.63-14.94-2.3-22.38-1.99-5.67.24-10.44-.05-14.85-3.97-4.27-3.81-9.03-7.07-13.42-10.76-10.97-9.21-23.3-14.58-37.79-15.62-13.59-.97-23.89-11.32-22.18-27.83.35-3.39-1.96-7.06-3.05-10.6v-8.98c2.87-4.82 6.05-9.49 8.52-14.51 2.88-5.83 7.45-8.74 13.57-10.16 9.19-2.13 18.35-4.43 27.43-6.98 11.92-3.35 20.95-9.71 22.65-23.23.12-.97 1.37-2.05 2.36-2.6 5.11-2.85 9.16.46 13.25 2.7 3.34 1.83 5.3 1.31 7.01-2.2 2.7-5.54 6.16-6.44 11.54-4.15 1.78.76 4.49 1 6.09.17 5.44-2.82 11-2.87 16.83-2.25 1.35.14 2.85-1.04 4.28-1.61h2.99c.54.52.99 1.31 1.63 1.51 5.05 1.63 10.13 3.21 15.24 4.64.82.23 1.86-.51 2.81-.58 3.67-.27 7.73-1.53 10.93-.39 3.66 1.3 6.42 4.96 9.83 7.21 2.03 1.34 4.48 2.32 6.87 2.81 5.88 1.22 11.85 2.03 17.76 3.08 3.22.57 4.62 2.39 4.46 5.87-.12 2.71.25 5.59 1.09 8.16 2.07 6.3 8.55 6.38 13.31 8.91 1.21.64 3.07 1.46 3.22 2.42.65 4.02 1.13 8.15.98 12.21-.15 4.04-1.57 8.05-1.56 12.07 0 1.96 2.01 3.91 3.1 5.87v22.94c-.77 4.18-1.59 8.36-2.3 12.55-1.89 11.1-3.76 22.2-5.6 33.31-1.17 7.08-2.2 14.17-3.41 21.24-.71 4.18-1.82 8.29-2.44 12.48-.7 4.73-1.27 9.5-1.46 14.27-.12 2.91.57 5.85.94 8.77.33 2.58-.56 4.1-3.01 5.47-6.85 3.82-13.69 7.76-20.12 12.23-17.42 12.11-35.35 23.07-56.19 28.34-1.42.36-2.71 1.27-4.06 1.93z"/></clipPath></defs><g clip-path="url(#a)"><svg xmlns="http://www.w3.org/2000/svg" width="382" height="382" style="shape-rendering:geometricPrecision"><path fill="#34738c" stroke="#34738c" d="M123.908 382h-29.07l-68.28-22.828 5.552-21.688 80.35 28.247z"/><path fill="#3ca5f1" stroke="#3ca5f1" d="m84.485 312.263 27.974 53.468-80.349-28.247-1.777-18.293z"/><path fill="#34738c" stroke="#34738c" d="m1.603 382 24.956-22.828L94.838 382zM306.384 275.35l7.446-23.137 26.029 3.908-16.52 25zM88.936 279.207l-.767 1.504L0 282.04v-25.695l52.821-34.101 29.266 22.526z"/><path fill="#3ca5f1" stroke="#3ca5f1" d="m175.545 174.456-55.734 1.58.002-8.213 3.313-39.224 31.44-13.11 27.928 55.456z"/><path fill="#34738c" stroke="#34738c" d="m283.285 382-4.063-23.919 51.72-19.541L347.925 382z"/><path fill="#3ca5f1" stroke="#3ca5f1" d="m230.815 238.323-26.777-65.407 37.742-44.765 36.262 48.847-18.865 50.07z"/><path fill="#34738c" stroke="#34738c" d="M382 123.067v19.765l-11.543-6.676-29.42-40.591 17.89-6.687zM85.414 95.394l-30.56 2.302 3.269-48.85 3.774-1.717 40.61 18.75z"/><path fill="#3ca5f1" stroke="#3ca5f1" d="m382 312.915-21.587-7.465 1.73-60.675L373.5 226.35l8.499-2.657z"/><path fill="#34738c" stroke="#34738c" d="M382 142.832v23.81l-57.278-9.35-1.368-14.497 47.103-6.639zM123.126 128.599l-27.004-16.342-10.708-16.863 17.093-29.515 8.281-7.35 48.714-5.526 18.425 19.328-23.362 43.158z"/><path fill="#3ca5f1" stroke="#3ca5f1" d="m152.413 237.152-27.688-15.115-6.32-44.463 1.406-1.538 55.734-1.58zM182.494 170.945l-27.929-55.456 23.362-43.158 42.003 7.146 6.211 3.792 6.802 9.675 11.561 21.855-2.724 13.352-37.742 44.765zM0 382v-90.444l30.333 27.635 1.777 18.293-5.551 21.688L1.603 382z"/><path fill="#34738c" stroke="#34738c" d="m195.404 382 26.836-42.462 36.738-12.748 20.244 31.291L283.285 382zM323.64 82.615 282.953 70.01l22.331-22.164 12.91 6.887z"/><path fill="#3ca5f1" stroke="#3ca5f1" d="m118.405 177.574-64.302 3.741-2.06-2.99 30.865-39.935 36.905 29.433-.002 8.213z"/><path fill="#34738c" stroke="#34738c" d="m297.821 277.23-1.1-3.032 1.134-42.66 15.975 20.675-7.446 23.137z"/><path fill="#3ca5f1" stroke="#3ca5f1" d="m232.943 92.944-6.802-9.675 56.45-54.974 22.693 19.551-22.331 22.164zM0 112.73V43.011l58.123 5.833-3.27 48.851z"/><path fill="#34738c" stroke="#34738c" d="m313.463 112.564 14.121-16.07 13.452-.93 29.421 40.592-47.103 6.639zM282.59 28.295 281.595 0h64.561l-.067 13.11-10.54 24.88-17.354 16.743-12.911-6.887zM161.733 250.366l27.223 12.33-.957 8.028-36.22 48.703-2.384 2.44-28.026-43.418zM297.821 277.23l8.563-1.88 16.954 5.772 14.91 31.618-6.58 7.152-62.692-12.347-.035-.506zM119.813 167.823 82.908 138.39l13.214-26.133 27.004 16.342z"/><path fill="#34738c" stroke="#34738c" d="m188.956 262.696 40.953-22.625 39.032 66.968.035.506-9.998 19.245-36.738 12.748-9.721-15.083-24.52-53.73zM161.169 0l-1.667 53.003-48.714 5.525L80.425 0z"/><path fill="#3ca5f1" stroke="#3ca5f1" d="M96.122 112.257 82.908 138.39l-30.864 39.934L0 136.716v-23.987l54.854-15.033 30.56-2.302z"/><path fill="#34738c" stroke="#34738c" d="M382 382h-34.075l-16.983-43.46.727-18.648 6.58-7.152 22.164-7.29L382 312.915zM382 123.067l-23.072-34.189L382 74.315zM0 282.041l88.17-1.33-3.685 31.552-54.152 6.928L0 291.556z"/><path fill="#3ca5f1" stroke="#3ca5f1" d="m80.425 0 30.363 58.528-8.28 7.35-40.611-18.75L70.437 0z"/><path fill="#34738c" stroke="#34738c" d="m244.504 114.8-11.561-21.856 50.01-22.934 40.687 12.605 3.944 13.878-14.12 16.071z"/><path fill="#3ca5f1" stroke="#3ca5f1" d="m259.177 227.068 18.865-50.07 38.76-2.611 13.5 33.483-33.482 21.604-36.937-2.263z"/><path fill="#34738c" stroke="#34738c" d="m151.778 319.427 60.74 5.028 9.722 15.083L195.404 382h-68.301l22.292-60.133zM268.976 307.545l62.693 12.347-.727 18.648-51.72 19.541-20.244-31.29zM259.883 227.21l36.937 2.264 1.035 2.064-1.134 42.66z"/><path fill="#34738c" stroke="#34738c" d="m151.778 319.427 36.22-48.703 24.52 53.731z"/><path fill="#3ca5f1" stroke="#3ca5f1" d="m316.803 174.387 7.92-17.096L382 166.642v57.052l-8.499 2.657-43.198-18.48zM0 136.716l52.044 41.608 2.059 2.991-1.282 40.93L0 256.346zM70.438 0l-8.541 47.129-3.774 1.716L0 43.012V0zM159.502 53.003 161.169 0h68.989L219.93 79.477l-42.003-7.146zM121.369 278.449l28.026 43.418L127.103 382h-3.195l-11.449-16.269-27.974-53.468 3.684-31.552.767-1.504z"/><path fill="#34738c" stroke="#34738c" d="M382 46.934 346.09 13.11 346.155 0H382z"/><path fill="#3ca5f1" stroke="#3ca5f1" d="M219.93 79.477 230.158 0h51.437l.995 28.295-56.449 54.974z"/><path fill="#34738c" stroke="#34738c" d="m152.413 237.152 23.132-62.696 6.949-3.51 21.544 1.97 26.777 65.407-.906 1.748-40.953 22.625-27.223-12.33z"/><path fill="#3ca5f1" stroke="#3ca5f1" d="m124.725 222.037-42.638 22.734-29.266-22.526 1.282-40.93 64.302-3.74z"/><path fill="#34738c" stroke="#34738c" d="m230.815 238.323 28.362-11.255.706.143 36.838 46.987 1.1 3.033-28.88 29.808-39.032-66.968z"/><path fill="#3ca5f1" stroke="#3ca5f1" d="m241.78 128.15 2.724-13.35 68.96-2.236 9.89 30.23 1.368 14.497-7.92 17.096-38.76 2.61zM152.413 237.152l9.32 13.214-40.364 28.083-32.433.758-6.849-34.436 42.638-22.734zM382 69.758 335.549 37.99l10.54-24.88L382 46.934z"/><path fill="#34738c" stroke="#34738c" d="m323.338 281.122 16.52-25.001 22.285-11.346-1.73 60.675-22.164 7.29zM323.64 82.615l-5.445-27.882 17.354-16.743L382 69.758v4.557l-23.072 14.563-17.892 6.687-13.452.928z"/><path fill="#3ca5f1" stroke="#3ca5f1" d="m296.82 229.474 33.483-21.604 43.198 18.48-11.358 18.425-22.284 11.346-26.029-3.908-15.975-20.675z"/></svg></g></svg>