<svg xmlns="http://www.w3.org/2000/svg" viewBox="0 0 382 382"><g fill="none" stroke="#71236d" stroke-width="2"><path d="M219.61 69.83q-.76 2.4-2.83 3.36-.45.21-.66.67-.3.65-.17 1.44.13.83.79.31 1.12-.89 1.79.37 1.02 1.96 1.98 4.12a1.13 1.09 43.9 0 1 .03.8q-.64 1.73-1.91 3a.79.78-34.8 0 0-.16.86q.56 1.26.56 2.64 0 .24.23.31.13.04.26.03.47-.04.45-.52-.03-.9.2-1.71a.78.78 0 0 1 1.21-.41l3.06 2.21q.44.32.47.86.1 2.23 1.4 4.51a.82.82 0 0 0 1.45-.06q.41-.87-.25-1.66-.4-.49.07-.9 1.39-1.22 1.45-3.25a.86.86 0 0 1 1.38-.65q1.38 1.05 3.09.84.71-.09.22-.62-1.51-1.6-2.41-3.66-.23-.53.21-.9l1.07-.91q.58-.5-.13-.78l-1.71-.68q-.54-.22-1.06.06-.57.31-1.05-.13a1.08 1.08 0 0 1-.18-1.37q.68-1.07.01-2.08-.41-.61.28-.85 1.65-.56 1.34-2.02M239.05 72.13q-.08 1.01-.02 1.82.04.59.34.85.35.31.89.26a.51.51 0 0 0 .29-.88q-.2-.18-.32-.4-.38-.73.43-.85 1.05-.15 1.33-.85M243.47 72.15q-.74 1.17-.45 2.23.19.66.7.2.65-.58 1.4-.13.48.29.93-.04l1.28-.91M255.45 79.99q-.72.56-1.06 1.31-.19.43-.09.89l.5 2.3q.14.63-.25 1.14-.22.29-.54.4a.62.62 0 0 0-.36.84q.37.81-.31 1.42-.49.43.04.81.4.28.2.78-.08.18-.27.21l-.27.04q-.6.1-.42.68.82 2.54-1.07 4.43-.39.4 0 .79.85.84 1.98 1.23a.71.71 0 0 1 .33 1.1q-1.31 1.72-.66 4.23.04.15.17.22.18.1.36.01.27-.13.29-.43l.13-1.63q.05-.72.78-.77 1.3-.08 2.31.5.78.45.24-.28-.91-1.23.15-2.44a1.2 1.18-32.5 0 0 .25-1.08q-.2-.77-1.13-.73-.3.01-.48-.21t0-.43a.75.73 13.7 0 1 .44-.26q1.15-.23 1.37-1.36.15-.75.73-.26 1.22 1.04 2.44.01.66-.56.7.3l.11 2.55q.03.82.65.28.21-.19.49-.25a.97.96 62.4 0 1 .96.31q.69.79 1.62 1.29.98.52.8-.58-.05-.35-.23-.65-.33-.55.3-.64 1.88-.29 3 .89a.69.68-44.7 0 1-.01.94l-1.09 1.14q-.44.46-.01.93l.75.81q.41.43.21 1l-1.92 5.63q-.18.5.05.99.32.65.09 1.33-.14.41-.56.51l-.43.1q-.72.17-.19.68l.98.94q.48.46.03.94-.47.5-.53 1.21-.07.68.61.52 2.45-.6 2.46-2.7 0-.59.52-.84l1.67-.79a.45.44 73.7 0 1 .63.35q.21 1.66 1.73 2.26.57.23 1.04-.17.75-.63 1.73-.7.57-.03.62.53c.13 1.38.56 2.6.13 3.98q-1.38 4.36-1.06 8.89a.32.32 0 0 0 .46.26q2.42-1.13 1.88-3.07-.21-.73.54-.56l2.94.68q.53.12.97-.19.75-.51 1.29-1.26a.44.44 0 0 1 .71-.01q.14.19.14.42 0 .36-.36.35-.18-.01-.31.13-.43.47.21.47 1.31-.01 1.34 1.39c.06 2.69-1.22 6.21 1.74 7.96a.82.82 0 0 0 1.24-.7q0-1.03-.33-1.98-.55-1.56 1.03-2.06 2.66-.85 1.79-2.77a.44.43 74.2 0 1 .34-.62c2.64-.3 3.71 2.61 4.56 4.54q.23.53.63.1.2-.21.1-.5a.62.44 46.9 0 1-.03-.23q.06-.61.46-.55.58.09.55.67-.02.34.1.64a.34.34 0 0 0 .64-.02q1-2.8-1.18-3.81-.4-.19-.43-.63-.09-1.36.53-2.63.33-.66-.09-1.27-.3-.45-.44-.99-.18-.71.47-1.05l3.81-2M290.19 246.17q-2.06.71-.34 1.83" vector-effect="non-scaling-stroke"/><path d="m289.29 253.25-.33-3.68a2.35 2.33 4.4 0 0-1.78-2.06q-1.02-.25-1.85-.79-.54-.36-.26-.94l1.73-3.47q.56-1.14-.67-.82-1.5.39-2.56-1.41-.28-.48-.06-1l1.01-2.26q.22-.5-.28-.73l-2.41-1.09a1.49 1.48-63.8 0 1-.7-2.06q.84-1.55.86-3.25.01-.21-.13-.35-.22-.24-.57.17a.93.92-18.1 0 0-.16.31q-.07.3-.28.53a.61.6-58.7 0 1-.67.17q-.94-.36-1.81.33a.8.8 0 0 1-1.29-.61q-.03-1.25-.15-2.43-.04-.38-.3-.64-.35-.34-.82-.19-.44.14-.58.58l-1.53 4.79a1.2 1.15 84.8 0 1-.51.64l-.37.22a.6.6 0 0 0-.26.71q.56 1.55.45 3.21a.77.76-89.6 0 0 .79.81q.78-.02 1.44-.57.46-.38.76.14.88 1.54.35 3.26c-.89 2.89-3.49 3.08-3.43 6.74a.32.32 0 0 1-.49.28q-1.89-1.15-2.59-3.27-.06-.17-.18-.29-.17-.17-.32-.04-.27.26-.27.63.02 1.22-.49 2.22-.17.34-.52.49-1.28.54-2.76.48a1.38 1.37 74 0 0-1.19 2.15q1.89 2.77-.29 3.97-.39.21-.61.6l-1.18 2.01a.48.48 0 0 1-.89-.19c-.22-2-1.06-5.19-3.41-5.64a.81.81 0 0 1-.49-1.29q1.41-1.82-.44-3.32-.56-.45-.28-1.11.46-1.13-.03-2.31a2.25 2.23 44.7 0 1-.02-1.68q.68-1.73-.71-3.11a1 1 0 0 1-.17-1.19q.22-.4.24-.86.03-.56-.49-.77-2.73-1.11-2.3-4.56.05-.42-.37-.43h-.39q-.17-.01-.19.16l-.28 2.84q-.07.65-.61 1.01-1.49 1.01-1.11 2.85.14.64.77.77.62.14 1.03.61a.71.7 46.6 0 1-.02.95l-2.62 2.83a.74.72-26.7 0 0-.2.59q.03.34-.16.62-.6.88-.86-.16-.26-1.06-.94-1.92-.49-.62-.83.1l-.38.83q-.26.54-.86.57l-2.09.11q-.74.04-.42.71.78 1.6-.74 3.87a.52.52 0 0 1-.87-.02l-2.65-4.33-.02-.06q-.25-.85.15-1.31.54-.62-.28-.72-1.01-.12-.67-1.08.17-.49.04-1-.8-3.05-.18-6.4.13-.7-.58-.62-.51.06-1-.12-.56-.21-.59-.8l-.1-2.4q-.05-1.12-.72-.22-1.08 1.47-1.96 3.02-1.13 2.03.99 2.64a.81.81 0 0 1 .44 1.23l-2.23 3.22a.69.68-57.8 0 1-.91.21q-.58-.33-.66-1.08-.15-1.34-.77-.14-.7 1.33-2.37 2-.72.29-.45 1.02.42 1.12-.41 2.46-.97 1.58-1.02-.28l-.02-1.04q-.03-.86-.75-.4l-.71.44a.82.81 62.6 0 1-1.19-.38q-.33-.79.32-1.55a.47.47 0 0 0-.41-.77q-.45.05-.77-.24a.46.46 0 0 1 .08-.74q.27-.15.23-.42-.09-.57-.65-.69-.71-.14-.87-.82-.13-.51.15-.95.19-.3.26-.64.13-.76-.63-.66-.19.02-.34-.09-.52-.38-.1-.87.52-.6.27-1.29a.86.85 78.2 0 0-.86-.57q-1.95.11-1.99-1.83-.05-2.09-1.14-.3-.79 1.31-.17 2.35.23.38-.18.56-.14.06-.3.06-.61 0-.58.61.11 2.12 1.82 2.61.59.17.17.61l-.22.23q-.35.36-.03.75.79.98-.3 1.73-1.01.69-.37 1.69a.38.38 0 0 1-.22.57q-2.45.71-3.22 2.93-.16.48.08.93.83 1.58.73 3.27-.03.51-.5.73-4.65 2.24-7.3-2.06M78.8 144.36q2.81-.64 3.17-6.04a1.17 1.17 0 0 0-.92-1.21l-1.1-.24a1.09 1.09 0 0 1-.86-1.04q-.03-1.29-.93-2.05-.41-.35-.06-.75.39-.44.85-.68.43-.23.84.02l.51.32q.62.38.62-.35 0-.68-.36-1.29-.3-.49.08-.92 2.04-2.33.53-3.44M82.95 123.75c1.63 1.02 3.68 1.71 3.6 4.06-.06 1.51.41 3.2 1.1 4.53a.66.65 38.7 0 0 1.22-.13q.19-.77.35-1.63a1.78 1.64-68.1 0 1 2.6-1.24q.81.57 1.54-.1a.39.39 0 0 1 .65.3l-.14 4.67q-.01.52-.36.92-.55.62-.47 1.46.02.27.29.25l.35-.04q.29-.03.3-.32.01-.61.29-1.13a.63.63 0 0 1 .82-.28l2.45 1.12a.79.79 0 0 1 .37 1.09L95.95 141a.43.43 0 0 0 .55.59q1.8-.74 3.02 1.49.2.37.02.75l-1.11 2.35q-.21.44.22.65l2.66 1.31a1.43 1.43 0 0 1 .63 1.95q-.87 1.64-.94 3.29-.02.36.34.3l.29-.05q.28-.04.26-.32-.02-.55.18-.8.28-.36.66-.13.76.46 1.7 0 1.93-.94 1.5 1.07-.1.48-.01.85.89 3.82 2.17.02.74-2.21 1.39-4.12.05-.16.18-.27l.32-.26q.19-.15.17-.4l-.23-3.59q-.04-.72-.77-.63-.71.09-1.35.52-.57.37-.87-.24c-.84-1.66-.22-4.16 1.21-5.39q1.89-1.64 1.83-4.33a.48.48 0 0 1 .77-.39q1.77 1.38 2.5 3.4.04.12.15.19t.24.05q.35-.04.34-.39-.03-1.24.4-2.42a1.14 1.12-1.5 0 1 .63-.65q1.25-.52 2.8-.39a1.18 1.18 0 0 0 1.21-1.58q-.46-1.26-.98-2.51c-.32-.76.03-1.68.9-1.84q.54-.1.77-.59.44-.92 1.04-1.78 1.13-1.6 1.29.36l.08.95q.05.68.47 1.22.85 1.1-.13 1.89-.42.33.06.58.19.1.25-.04.34-.75 1.01-.28.81.57 1.75.83a.73.73 0 0 1 .36 1.18q-1.58 1.81.27 3.25.83.65.23 1.47a1.29 1.28 50.3 0 0-.12 1.34q.77 1.58.01 3.21-.29.64.16 1.18l.99 1.2a.83.83 0 0 1 .06.97q-.32.47-.36 1.02-.05.56.48.75 1.21.45 1.91 1.35.32.41.37.92l.23 2.38q.02.15.13.25.18.17.33.11.49-.2.45-.73c-.11-1.38.05-3.28 1.45-3.93a.33.33 0 0 1 .46.22q.05.22.31.26.56.09.27-.4-.57-.94-.57-2.07 0-.52-.46-.76l-.91-.48a1.02 1.01 37.8 0 1-.21-1.66q1.87-1.68 2.72-3.58.54-1.19.88.07.28 1 .95 1.81.49.58.79-.12l.33-.76q.24-.56.85-.58l2.16-.07q.69-.02.41-.66-.77-1.69.64-3.88a.64.64 0 0 1 1.09.01l2.56 4.24q.29.47.1.98-.06.15-.16.28a.54.54 0 0 0 .2.83l.43.19q.55.25.28.79-.06.13-.1.27-.09.38 0 .74.79 3.16.2 6.58-.09.53.45.54 2.31.04 1.75 2.8-.09.45.17.81.42.58.74-.05.73-1.43 1.65-2.72 1.48-2.07-.8-2.89a.84.83-63.4 0 1-.41-1.24l2.22-3.38a.65.63-65.3 0 1 .7-.27l.5.13q.53.14.38.67-.13.43.11.75.43.58.68-.1l.13-.33q.2-.54.69-.84l1.54-.94q.54-.33.42-.96-.3-1.43.45-2.77.62-1.13.9.13.15.73.08 1.45-.06.65.54.41l1.39-.54a.77.76-19.8 0 1 1.01.47q.26.79-.34 1.36-.48.45.02.88.35.29.79.31a.39.39 0 0 1 .25.67q-.99.92.29 1.35 1.56.52.53 1.77-.26.32-.21.75.08.63.69.45.24-.07.45.05.54.33.12.8-.5.55-.4 1.25.1.76.87.78 2.21.03 2.05 2.1-.11 1.34.72.28 1.03-1.32.63-2.57-.11-.37.19-.62.16-.13.37-.12.72.03.52-.66-.55-1.92-1.83-2.65-.37-.22-.13-.57.39-.57.03-1.15-.51-.84.33-1.36 1.11-.68.56-1.78-.27-.52.29-.69 4.17-1.29 2.19-5.94a1.63 1.63 0 0 1 1.37-2.26q.77-.07 1.49-.43a1.17 1.15-48.4 0 1 .9-.06q2.53.92 3.62 2.77.15.25.42.14 1.3-.52 1.38.94a.48.47 64.1 0 0 .83.29q.72-.8 1.11-2 .26-.8.86-.21l1.04 1.04a.79.78 52.7 0 0 .93.13q.38-.21.65-.61.3-.44-.18-.67-1.42-.68-1.99-2.64-.11-.4.15-.72.41-.51.41-1.16.01-.66-.66-.68l-1.73-.07a.34.34 0 0 0-.25.58q.31.32.46.75.2.6-.41.42-.46-.13-.69-.54-.96-1.74-1.41-3.9a1.66 1.62-38.3 0 1 .14-1.08q.76-1.51.56-3.23-.07-.61-.64-.84-1.05-.41-1.89-1.13-.52-.44.02-.86.14-.11.31-.12.81-.03 1.14-.78.8-1.86 2.12-3.3c1.6-1.74 2.1-3.81 2.94-5.96q.46-1.16-.66-.59-1.16.6-2.51.68-.89.06-.36.77l.18.23q.5.67-.31.85-1.86.42-2.44-1.2-.17-.46-.64-.61-1.44-.47-2.06-1.8-.26-.53.09-1.01 1.68-2.28-.45-4.06a.43.43 0 0 0-.7.27l-.25 1.96q-.06.53-.6.52l-1.46-.05q-.52-.01-.58-.53-.06-.49-.32-.93-.53-.88-.78.12-.25.95-.2 2.07.02.58-.29 1.06-1.14 1.72.11 3.61a1.01 1 40.3 0 1 .08.94l-.82 1.96q-.24.57-.79.28-1.08-.56-2.32-.66a.82.81-87.1 0 1-.75-.84q.02-.57.36-1.05.34-.49-.18-.78l-2.56-1.43a1.65 1.65 0 0 1-.47-2.49l1.58-1.92a.8.79-71.3 0 0-.64-1.3q-.54.03-.87-.37-.26-.31-.28-.7-.1-1.54-.13-3.07-.01-.87-.79-.5l-.28.14q-.76.36-.81-.48-.07-1.25-.69-2.32-.41-.71.4-.8 1.09-.13 1.32-1.16.09-.41.5-.37 2.48.27 4.03-1.74.63-.81.39-1.89-.16-.69-.83-.45l-.44.15q-.76.28-.71-.53.13-1.78-.68-3.37-.3-.59.36-.59l1.53-.01q.76 0 .32-.62-.76-1.04-.18-2.25.84-1.78.6-3.81-.27-2.24-2.09-.78-.71.57-.88-.33-.26-1.4.43-2.82M174.23 72.48q.7.61.83 1.61.1.77.8.42.13-.06.26-.14.91-.49.87.54-.03.87.27 1.63.29.74.52-.03.57-1.96 2.27-2.5.62-.21.38-.82-.6-1.57-.59-3.61M292.4 106q.48 1.42 1.99 4.85.33.74.92.89.52.14.49-.4-.13-2.83 3.05-2.58M300.35 109.53q-2.1 2.68-.19 4.76.36.39.87.23l.91-.3M220.58 309.81q.67-.94.01-1.73-.35-.42-.11-.91.6-1.21.58-2.54-.01-.66-.59-.34l-1.22.68a.79.79 0 0 1-1.17-.59q-.33-2.73.66-5.12.25-.6-.08-1.15l-.18-.31a.49.49 0 0 1 .45-.75q.79.05 1.52-.15.43-.12.2-.51-.93-1.6-.78-3.56a.46.46 0 0 0-.64-.46l-.4.18q-1.04.45-.91-.68.36-3.27 4.37-3.51.49-.03.76-.45.46-.7 1.27-1.02.69-.28.24-.87-.74-.96-.69-2.19a.49.48 74.5 0 0-.75-.43l-.27.19q-.69.46-.75-.36l-.24-3.29q-.04-.55-.55-.76l-.93-.39a.7.7 0 0 1-.29-1.06l1.82-2.44a1.38 1.38 0 0 0-.49-2.06l-2.76-1.4q-.54-.27-.14-.74.54-.62.43-1.44-.06-.53-.6-.55-1.37-.04-2.63-.68-.53-.28-.75.28l-.7 1.79q-.18.46-.02.93l.76 2.27a.91.88-39.3 0 1-.09.77q-1.05 1.7-.99 3.91 0 .22-.16.36-.11.11-.32.03-.26-.1-.32-.38-.41-1.78-2.41-1.35-.51.11-.58.64l-.22 1.82a.4.4 0 0 1-.59.3c-2.03-1.11-1.22-2.91-.51-4.52q.24-.56-.12-1.05-.75-1-2.03-1.31a.74.72 89.9 0 1-.55-.56q-.38-1.68-2.22-1.31-.78.16-.4.86l.17.31q.35.66-.39.7-1.54.09-2.76.8a.38.37 84.2 0 1-.54-.45c.74-2.23 1.36-4.5 2.98-6.29q1.26-1.39 2.11-3.03.34-.65 1-.96l.47-.22q.71-.33.1-.82-.89-.71-1.96-.99-.5-.13-.62-.64-.32-1.31.01-2.82M204.07 257.49q.58-.63.71-1.72M217.24 310.84q-.12-.37-.5-.3-.53.1-.43.5M212.79 312.19q.49-.8.2-1.46-.24-.56-.79-.28-1.49.75-3.48-.64-.61-.43-.9-1.05-.28-.59-.84-.27-.8.45-.87-.47-.06-.81-.35-1.53-.3-.76-.49.03-.45 1.82-2.14 2.48-.6.23-.48.87l.41 2.17q.12.62.74.75 1.96.38 3.25 1.72" vector-effect="non-scaling-stroke"/><path d="M167.57 107.33q-.42-.04-.24.34.16.35.4.05.27-.34-.16-.39M279.28 125.36q-.04.06-.02.12.11.29.29.03.05-.07 0-.14-.14-.18-.27-.01M169.15 142.12a.23.23 0 0 0-.15.34q.09.14.25.22a.26.26 0 0 0 .32-.38q-.15-.22-.42-.18M213.5 240.85q.39-.03.32-.4a.17.17 0 0 0-.25-.11q-.15.09-.24.24a.19.18-77.8 0 0 .17.27M260.41 251.17q-.45.11-.43.53a.31.3 64.3 0 0 .53.19q.23-.26.15-.57-.06-.2-.25-.15M215.28 275.25q-.15.28.16.37.12.04.18-.08.07-.16-.03-.31a.18.18 0 0 0-.31.02M210.26 309.43q-.24.15-.11.41a.25.25 0 0 0 .45 0q.07-.14.02-.29-.12-.27-.36-.12" vector-effect="non-scaling-stroke"/></g><path d="M219.61 69.83q-.76 2.4-2.83 3.36-.45.21-.66.67-.3.65-.17 1.44.13.83.79.31 1.12-.89 1.79.37 1.02 1.96 1.98 4.12a1.13 1.09 43.9 0 1 .03.8q-.64 1.73-1.91 3a.79.78-34.8 0 0-.16.86q.56 1.26.56 2.64 0 .24.23.31.13.04.26.03.47-.04.45-.52-.03-.9.2-1.71a.78.78 0 0 1 1.21-.41l3.06 2.21q.44.32.47.86.1 2.23 1.4 4.51a.82.82 0 0 0 1.45-.06q.41-.87-.25-1.66-.4-.49.07-.9 1.39-1.22 1.45-3.25a.86.86 0 0 1 1.38-.65q1.38 1.05 3.09.84.71-.09.22-.62-1.51-1.6-2.41-3.66-.23-.53.21-.9l1.07-.91q.58-.5-.13-.78l-1.71-.68q-.54-.22-1.06.06-.57.31-1.05-.13a1.08 1.08 0 0 1-.18-1.37q.68-1.07.01-2.08-.41-.61.28-.85 1.65-.56 1.34-2.02l8.96-.93q-.08 1.01-.02 1.82.04.59.34.85.35.31.89.26a.51.51 0 0 0 .29-.88q-.2-.18-.32-.4-.38-.73.43-.85 1.05-.15 1.33-.85.69-.1 1.48.07-.74 1.17-.45 2.23.19.66.7.2.65-.58 1.4-.13.48.29.93-.04l1.28-.91 8.12 6.49q-.72.56-1.06 1.31-.19.43-.09.89l.5 2.3q.14.63-.25 1.14-.22.29-.54.4a.62.62 0 0 0-.36.84q.37.81-.31 1.42-.49.43.04.81.4.28.2.78-.08.18-.27.21l-.27.04q-.6.1-.42.68.82 2.54-1.07 4.43-.39.4 0 .79.85.84 1.98 1.23a.71.71 0 0 1 .33 1.1q-1.31 1.72-.66 4.23.04.15.17.22.18.1.36.01.27-.13.29-.43l.13-1.63q.05-.72.78-.77 1.3-.08 2.31.5.78.45.24-.28-.91-1.23.15-2.44a1.2 1.18-32.5 0 0 .25-1.08q-.2-.77-1.13-.73-.3.01-.48-.21t0-.43a.75.73 13.7 0 1 .44-.26q1.15-.23 1.37-1.36.15-.75.73-.26 1.22 1.04 2.44.01.66-.56.7.3l.11 2.55q.03.82.65.28.21-.19.49-.25a.97.96 62.4 0 1 .96.31q.69.79 1.62 1.29.98.52.8-.58-.05-.35-.23-.65-.33-.55.3-.64 1.88-.29 3 .89a.69.68-44.7 0 1-.01.94l-1.09 1.14q-.44.46-.01.93l.75.81q.41.43.21 1l-1.92 5.63q-.18.5.05.99.32.65.09 1.33-.14.41-.56.51l-.43.1q-.72.17-.19.68l.98.94q.48.46.03.94-.47.5-.53 1.21-.07.68.61.52 2.45-.6 2.46-2.7 0-.59.52-.84l1.67-.79a.45.44 73.7 0 1 .63.35q.21 1.66 1.73 2.26.57.23 1.04-.17.75-.63 1.73-.7.57-.03.62.53c.13 1.38.56 2.6.13 3.98q-1.38 4.36-1.06 8.89a.32.32 0 0 0 .46.26q2.42-1.13 1.88-3.07-.21-.73.54-.56l2.94.68q.53.12.97-.19.75-.51 1.29-1.26a.44.44 0 0 1 .71-.01q.14.19.14.42 0 .36-.36.35-.18-.01-.31.13-.43.47.21.47 1.31-.01 1.34 1.39c.06 2.69-1.22 6.21 1.74 7.96a.82.82 0 0 0 1.24-.7q0-1.03-.33-1.98-.55-1.56 1.03-2.06 2.66-.85 1.79-2.77a.44.43 74.2 0 1 .34-.62c2.64-.3 3.71 2.61 4.56 4.54q.23.53.63.1.2-.21.1-.5a.62.44 46.9 0 1-.03-.23q.06-.61.46-.55.58.09.55.67-.02.34.1.64a.34.34 0 0 0 .64-.02q1-2.8-1.18-3.81-.4-.19-.43-.63-.09-1.36.53-2.63.33-.66-.09-1.27-.3-.45-.44-.99-.18-.71.47-1.05l3.81-2c.73 7.11-.53 12.52-1.38 19.04q-.07.55.22 1.03l2.61 4.41q.27.46.28.99.14 8.57.03 18.72-.05 5.34-1.23 11.21-1.34 6.71-2.59 14.34-3.67 22.51-6.97 42.25-.7 4.17-1.65 9.02-.9 4.6-1.53 9.02-2.06.71-.34 1.83l-.56 5.25-.33-3.68a2.35 2.33 4.4 0 0-1.78-2.06q-1.02-.25-1.85-.79-.54-.36-.26-.94l1.73-3.47q.56-1.14-.67-.82-1.5.39-2.56-1.41-.28-.48-.06-1l1.01-2.26q.22-.5-.28-.73l-2.41-1.09a1.49 1.48-63.8 0 1-.7-2.06q.84-1.55.86-3.25.01-.21-.13-.35-.22-.24-.57.17a.93.92-18.1 0 0-.16.31q-.07.3-.28.53a.61.6-58.7 0 1-.67.17q-.94-.36-1.81.33a.8.8 0 0 1-1.29-.61q-.03-1.25-.15-2.43-.04-.38-.3-.64-.35-.34-.82-.19-.44.14-.58.58l-1.53 4.79a1.2 1.15 84.8 0 1-.51.64l-.37.22a.6.6 0 0 0-.26.71q.56 1.55.45 3.21a.77.76-89.6 0 0 .79.81q.78-.02 1.44-.57.46-.38.76.14.88 1.54.35 3.26c-.89 2.89-3.49 3.08-3.43 6.74a.32.32 0 0 1-.49.28q-1.89-1.15-2.59-3.27-.06-.17-.18-.29-.17-.17-.32-.04-.27.26-.27.63.02 1.22-.49 2.22-.17.34-.52.49-1.28.54-2.76.48a1.38 1.37 74 0 0-1.19 2.15q1.89 2.77-.29 3.97-.39.21-.61.6l-1.18 2.01a.48.48 0 0 1-.89-.19c-.22-2-1.06-5.19-3.41-5.64a.81.81 0 0 1-.49-1.29q1.41-1.82-.44-3.32-.56-.45-.28-1.11.46-1.13-.03-2.31a2.25 2.23 44.7 0 1-.02-1.68q.68-1.73-.71-3.11a1 1 0 0 1-.17-1.19q.22-.4.24-.86.03-.56-.49-.77-2.73-1.11-2.3-4.56.05-.42-.37-.43h-.39q-.17-.01-.19.16l-.28 2.84q-.07.65-.61 1.01-1.49 1.01-1.11 2.85.14.64.77.77.62.14 1.03.61a.71.7 46.6 0 1-.02.95l-2.62 2.83a.74.72-26.7 0 0-.2.59q.03.34-.16.62-.6.88-.86-.16-.26-1.06-.94-1.92-.49-.62-.83.1l-.38.83q-.26.54-.86.57l-2.09.11q-.74.04-.42.71.78 1.6-.74 3.87a.52.52 0 0 1-.87-.02l-2.65-4.33-.02-.06q-.25-.85.15-1.31.54-.62-.28-.72-1.01-.12-.67-1.08.17-.49.04-1-.8-3.05-.18-6.4.13-.7-.58-.62-.51.06-1-.12-.56-.21-.59-.8l-.1-2.4q-.05-1.12-.72-.22-1.08 1.47-1.96 3.02-1.13 2.03.99 2.64a.81.81 0 0 1 .44 1.23l-2.23 3.22a.69.68-57.8 0 1-.91.21q-.58-.33-.66-1.08-.15-1.34-.77-.14-.7 1.33-2.37 2-.72.29-.45 1.02.42 1.12-.41 2.46-.97 1.58-1.02-.28l-.02-1.04q-.03-.86-.75-.4l-.71.44a.82.81 62.6 0 1-1.19-.38q-.33-.79.32-1.55a.47.47 0 0 0-.41-.77q-.45.05-.77-.24a.46.46 0 0 1 .08-.74q.27-.15.23-.42-.09-.57-.65-.69-.71-.14-.87-.82-.13-.51.15-.95.19-.3.26-.64.13-.76-.63-.66-.19.02-.34-.09-.52-.38-.1-.87.52-.6.27-1.29a.86.85 78.2 0 0-.86-.57q-1.95.11-1.99-1.83-.05-2.09-1.14-.3-.79 1.31-.17 2.35.23.38-.18.56-.14.06-.3.06-.61 0-.58.61.11 2.12 1.82 2.61.59.17.17.61l-.22.23q-.35.36-.03.75.79.98-.3 1.73-1.01.69-.37 1.69a.38.38 0 0 1-.22.57q-2.45.71-3.22 2.93-.16.48.08.93.83 1.58.73 3.27-.03.51-.5.73-4.65 2.24-7.3-2.06-1.11-17.27-2.13-21.86-1.48-6.68-6.58-10.41-2.97-2.18-9.74-3.17-7.2-1.05-11.16-1.11-6.84-.11-12.5-.14c-2.75-.02-6.29-1.69-8.52-3.54q-12.67-10.53-19.22-15.12-14.07-9.87-29.75-11.22-4.49-.39-7.6-1.24c-13.27-3.62-18.53-14.74-17.13-27.86q.2-1.87-2.11-6.57 2.81-.64 3.17-6.04a1.17 1.17 0 0 0-.92-1.21l-1.1-.24a1.09 1.09 0 0 1-.86-1.04q-.03-1.29-.93-2.05-.41-.35-.06-.75.39-.44.85-.68.43-.23.84.02l.51.32q.62.38.62-.35 0-.68-.36-1.29-.3-.49.08-.92 2.04-2.33.53-3.44.51-1.46 1.78-2.94c1.63 1.02 3.68 1.71 3.6 4.06-.06 1.51.41 3.2 1.1 4.53a.66.65 38.7 0 0 1.22-.13q.19-.77.35-1.63a1.78 1.64-68.1 0 1 2.6-1.24q.81.57 1.54-.1a.39.39 0 0 1 .65.3l-.14 4.67q-.01.52-.36.92-.55.62-.47 1.46.02.27.29.25l.35-.04q.29-.03.3-.32.01-.61.29-1.13a.63.63 0 0 1 .82-.28l2.45 1.12a.79.79 0 0 1 .37 1.09L95.95 141a.43.43 0 0 0 .55.59q1.8-.74 3.02 1.49.2.37.02.75l-1.11 2.35q-.21.44.22.65l2.66 1.31a1.43 1.43 0 0 1 .63 1.95q-.87 1.64-.94 3.29-.02.36.34.3l.29-.05q.28-.04.26-.32-.02-.55.18-.8.28-.36.66-.13.76.46 1.7 0 1.93-.94 1.5 1.07-.1.48-.01.85.89 3.82 2.17.02.74-2.21 1.39-4.12.05-.16.18-.27l.32-.26q.19-.15.17-.4l-.23-3.59q-.04-.72-.77-.63-.71.09-1.35.52-.57.37-.87-.24c-.84-1.66-.22-4.16 1.21-5.39q1.89-1.64 1.83-4.33a.48.48 0 0 1 .77-.39q1.77 1.38 2.5 3.4.04.12.15.19t.24.05q.35-.04.34-.39-.03-1.24.4-2.42a1.14 1.12-1.5 0 1 .63-.65q1.25-.52 2.8-.39a1.18 1.18 0 0 0 1.21-1.58q-.46-1.26-.98-2.51c-.32-.76.03-1.68.9-1.84q.54-.1.77-.59.44-.92 1.04-1.78 1.13-1.6 1.29.36l.08.95q.05.68.47 1.22.85 1.1-.13 1.89-.42.33.06.58.19.1.25-.04.34-.75 1.01-.28.81.57 1.75.83a.73.73 0 0 1 .36 1.18q-1.58 1.81.27 3.25.83.65.23 1.47a1.29 1.28 50.3 0 0-.12 1.34q.77 1.58.01 3.21-.29.64.16 1.18l.99 1.2a.83.83 0 0 1 .06.97q-.32.47-.36 1.02-.05.56.48.75 1.21.45 1.91 1.35.32.41.37.92l.23 2.38q.02.15.13.25.18.17.33.11.49-.2.45-.73c-.11-1.38.05-3.28 1.45-3.93a.33.33 0 0 1 .46.22q.05.22.31.26.56.09.27-.4-.57-.94-.57-2.07 0-.52-.46-.76l-.91-.48a1.02 1.01 37.8 0 1-.21-1.66q1.87-1.68 2.72-3.58.54-1.19.88.07.28 1 .95 1.81.49.58.79-.12l.33-.76q.24-.56.85-.58l2.16-.07q.69-.02.41-.66-.77-1.69.64-3.88a.64.64 0 0 1 1.09.01l2.56 4.24q.29.47.1.98-.06.15-.16.28a.54.54 0 0 0 .2.83l.43.19q.55.25.28.79-.06.13-.1.27-.09.38 0 .74.79 3.16.2 6.58-.09.53.45.54 2.31.04 1.75 2.8-.09.45.17.81.42.58.74-.05.73-1.43 1.65-2.72 1.48-2.07-.8-2.89a.84.83-63.4 0 1-.41-1.24l2.22-3.38a.65.63-65.3 0 1 .7-.27l.5.13q.53.14.38.67-.13.43.11.75.43.58.68-.1l.13-.33q.2-.54.69-.84l1.54-.94q.54-.33.42-.96-.3-1.43.45-2.77.62-1.13.9.13.15.73.08 1.45-.06.65.54.41l1.39-.54a.77.76-19.8 0 1 1.01.47q.26.79-.34 1.36-.48.45.02.88.35.29.79.31a.39.39 0 0 1 .25.67q-.99.92.29 1.35 1.56.52.53 1.77-.26.32-.21.75.08.63.69.45.24-.07.45.05.54.33.12.8-.5.55-.4 1.25.1.76.87.78 2.21.03 2.05 2.1-.11 1.34.72.28 1.03-1.32.63-2.57-.11-.37.19-.62.16-.13.37-.12.72.03.52-.66-.55-1.92-1.83-2.65-.37-.22-.13-.57.39-.57.03-1.15-.51-.84.33-1.36 1.11-.68.56-1.78-.27-.52.29-.69 4.17-1.29 2.19-5.94a1.63 1.63 0 0 1 1.37-2.26q.77-.07 1.49-.43a1.17 1.15-48.4 0 1 .9-.06q2.53.92 3.62 2.77.15.25.42.14 1.3-.52 1.38.94a.48.47 64.1 0 0 .83.29q.72-.8 1.11-2 .26-.8.86-.21l1.04 1.04a.79.78 52.7 0 0 .93.13q.38-.21.65-.61.3-.44-.18-.67-1.42-.68-1.99-2.64-.11-.4.15-.72.41-.51.41-1.16.01-.66-.66-.68l-1.73-.07a.34.34 0 0 0-.25.58q.31.32.46.75.2.6-.41.42-.46-.13-.69-.54-.96-1.74-1.41-3.9a1.66 1.62-38.3 0 1 .14-1.08q.76-1.51.56-3.23-.07-.61-.64-.84-1.05-.41-1.89-1.13-.52-.44.02-.86.14-.11.31-.12.81-.03 1.14-.78.8-1.86 2.12-3.3c1.6-1.74 2.1-3.81 2.94-5.96q.46-1.16-.66-.59-1.16.6-2.51.68-.89.06-.36.77l.18.23q.5.67-.31.85-1.86.42-2.44-1.2-.17-.46-.64-.61-1.44-.47-2.06-1.8-.26-.53.09-1.01 1.68-2.28-.45-4.06a.43.43 0 0 0-.7.27l-.25 1.96q-.06.53-.6.52l-1.46-.05q-.52-.01-.58-.53-.06-.49-.32-.93-.53-.88-.78.12-.25.95-.2 2.07.02.58-.29 1.06-1.14 1.72.11 3.61a1.01 1 40.3 0 1 .08.94l-.82 1.96q-.24.57-.79.28-1.08-.56-2.32-.66a.82.81-87.1 0 1-.75-.84q.02-.57.36-1.05.34-.49-.18-.78l-2.56-1.43a1.65 1.65 0 0 1-.47-2.49l1.58-1.92a.8.79-71.3 0 0-.64-1.3q-.54.03-.87-.37-.26-.31-.28-.7-.1-1.54-.13-3.07-.01-.87-.79-.5l-.28.14q-.76.36-.81-.48-.07-1.25-.69-2.32-.41-.71.4-.8 1.09-.13 1.32-1.16.09-.41.5-.37 2.48.27 4.03-1.74.63-.81.39-1.89-.16-.69-.83-.45l-.44.15q-.76.28-.71-.53.13-1.78-.68-3.37-.3-.59.36-.59l1.53-.01q.76 0 .32-.62-.76-1.04-.18-2.25.84-1.78.6-3.81-.27-2.24-2.09-.78-.71.57-.88-.33-.26-1.4.43-2.82c2.57 1.44 7.16 4.8 9.39.94q1.7-2.93 2.4-3.88.7.61.83 1.61.1.77.8.42.13-.06.26-.14.91-.49.87.54-.03.87.27 1.63.29.74.52-.03.57-1.96 2.27-2.5.62-.21.38-.82-.6-1.57-.59-3.61 4.01 1.64 7.78 1.66 2.4.02 5-1.13c4.05-1.78 8.91-1.73 13.39-1.49 2.94.15 6.31-2.61 8.81-1.02 1.94 1.25 2.9 1.67 4.79 2.23m-52.04 37.5q-.42-.04-.24.34.16.35.4.05.27-.34-.16-.39m111.71 18.03q-.04.06-.02.12.11.29.29.03.05-.07 0-.14-.14-.18-.27-.01m-110.13 16.76a.23.23 0 0 0-.15.34q.09.14.25.22a.26.26 0 0 0 .32-.38q-.15-.22-.42-.18m44.35 98.73q.39-.03.32-.4a.17.17 0 0 0-.25-.11q-.15.09-.24.24a.19.18-77.8 0 0 .17.27m46.91 10.32q-.45.11-.43.53a.31.3 64.3 0 0 .53.19q.23-.26.15-.57-.06-.2-.25-.15"/><path fill="#e246d9" d="M179.84 69.58q-.01 2.04.59 3.61.24.61-.38.82-1.7.54-2.27 2.5-.23.77-.52.03-.3-.76-.27-1.63.04-1.03-.87-.54-.13.08-.26.14-.7.35-.8-.42-.13-1-.83-1.61 1.63-2.47 5.61-2.9M219.61 69.83l10.48 3.23q.31 1.46-1.34 2.02-.69.24-.28.85.67 1.01-.01 2.08a1.08 1.08 0 0 0 .18 1.37q.48.44 1.05.13.52-.28 1.06-.06l1.71.68q.71.28.13.78l-1.07.91q-.44.37-.21.9.9 2.06 2.41 3.66.49.53-.22.62-1.71.21-3.09-.84a.86.86 0 0 0-1.38.65q-.06 2.03-1.45 3.25-.47.41-.07.9.66.79.25 1.66a.82.82 0 0 1-1.45.06q-1.3-2.28-1.4-4.51-.03-.54-.47-.86l-3.06-2.21a.78.78 0 0 0-1.21.41q-.23.81-.2 1.71.02.48-.45.52-.13.01-.26-.03-.23-.07-.23-.31 0-1.38-.56-2.64a.79.78-34.8 0 1 .16-.86q1.27-1.27 1.91-3a1.13 1.09 43.9 0 0-.03-.8q-.96-2.16-1.98-4.12-.67-1.26-1.79-.37-.66.52-.79-.31-.13-.79.17-1.44.21-.46.66-.67 2.07-.96 2.83-3.36M241.99 72.08q-.28.7-1.33.85-.81.12-.43.85.12.22.32.4a.51.51 0 0 1-.29.88q-.54.05-.89-.26-.3-.26-.34-.85-.06-.81.02-1.82zM243.47 72.15q1.96.25 3.86 1.35l-1.28.91q-.45.33-.93.04-.75-.45-1.4.13-.51.46-.7-.2-.29-1.06.45-2.23M162.44 75.42q-.69 1.42-.43 2.82.17.9.88.33 1.82-1.46 2.09.78.24 2.03-.6 3.81-.58 1.21.18 2.25.44.62-.32.62l-1.53.01q-.66 0-.36.59.81 1.59.68 3.37-.05.81.71.53l.44-.15q.67-.24.83.45.24 1.08-.39 1.89-1.55 2.01-4.03 1.74-.41-.04-.5.37-.23 1.03-1.32 1.16-.81.09-.4.8.62 1.07.69 2.32.05.84.81.48l.28-.14q.78-.37.79.5.03 1.53.13 3.07.02.39.28.7.33.4.87.37a.8.79-71.3 0 1 .64 1.3l-1.58 1.92a1.65 1.65 0 0 0 .47 2.49l2.56 1.43q.52.29.18.78-.34.48-.36 1.05a.82.81-87.1 0 0 .75.84q1.24.1 2.32.66.55.29.79-.28l.82-1.96a1.01 1 40.3 0 0-.08-.94q-1.25-1.89-.11-3.61.31-.48.29-1.06-.05-1.12.2-2.07.25-1 .78-.12.26.44.32.93.06.52.58.53l1.46.05q.54.01.6-.52l.25-1.96a.43.43 0 0 1 .7-.27q2.13 1.78.45 4.06-.35.48-.09 1.01.62 1.33 2.06 1.8.47.15.64.61.58 1.62 2.44 1.2.81-.18.31-.85l-.18-.23q-.53-.71.36-.77 1.35-.08 2.51-.68 1.12-.57.66.59c-.84 2.15-1.34 4.22-2.94 5.96q-1.32 1.44-2.12 3.3-.33.75-1.14.78-.17.01-.31.12-.54.42-.02.86.84.72 1.89 1.13.57.23.64.84.2 1.72-.56 3.23a1.66 1.62-38.3 0 0-.14 1.08q.45 2.16 1.41 3.9.23.41.69.54.61.18.41-.42-.15-.43-.46-.75a.34.34 0 0 1 .25-.58l1.73.07q.67.02.66.68 0 .65-.41 1.16-.26.32-.15.72.57 1.96 1.99 2.64.48.23.18.67-.27.4-.65.61a.79.78 52.7 0 1-.93-.13l-1.04-1.04q-.6-.59-.86.21-.39 1.2-1.11 2a.48.47 64.1 0 1-.83-.29q-.08-1.46-1.38-.94-.27.11-.42-.14-1.09-1.85-3.62-2.77a1.17 1.15-48.4 0 0-.9.06q-.72.36-1.49.43a1.63 1.63 0 0 0-1.37 2.26q1.98 4.65-2.19 5.94-.56.17-.29.69.55 1.1-.56 1.78-.84.52-.33 1.36.36.58-.03 1.15-.24.35.13.57 1.28.73 1.83 2.65.2.69-.52.66-.21-.01-.37.12-.3.25-.19.62.4 1.25-.63 2.57-.83 1.06-.72-.28.16-2.07-2.05-2.1-.77-.02-.87-.78-.1-.7.4-1.25.42-.47-.12-.8-.21-.12-.45-.05-.61.18-.69-.45-.05-.43.21-.75 1.03-1.25-.53-1.77-1.28-.43-.29-1.35a.39.39 0 0 0-.25-.67q-.44-.02-.79-.31-.5-.43-.02-.88.6-.57.34-1.36a.77.76-19.8 0 0-1.01-.47l-1.39.54q-.6.24-.54-.41.07-.72-.08-1.45-.28-1.26-.9-.13-.75 1.34-.45 2.77.12.63-.42.96l-1.54.94q-.49.3-.69.84l-.13.33q-.25.68-.68.1-.24-.32-.11-.75.15-.53-.38-.67l-.5-.13a.65.63-65.3 0 0-.7.27l-2.22 3.38a.84.83-63.4 0 0 .41 1.24q2.28.82.8 2.89-.92 1.29-1.65 2.72-.32.63-.74.05-.26-.36-.17-.81.56-2.76-1.75-2.8-.54-.01-.45-.54.59-3.42-.2-6.58-.09-.36 0-.74.04-.14.1-.27.27-.54-.28-.79l-.43-.19a.54.54 0 0 1-.2-.83q.1-.13.16-.28.19-.51-.1-.98l-2.56-4.24a.64.64 0 0 0-1.09-.01q-1.41 2.19-.64 3.88.28.64-.41.66l-2.16.07q-.61.02-.85.58l-.33.76q-.3.7-.79.12-.67-.81-.95-1.81-.34-1.26-.88-.07-.85 1.9-2.72 3.58a1.02 1.01 37.8 0 0 .21 1.66l.91.48q.46.24.46.76 0 1.13.57 2.07.29.49-.27.4-.26-.04-.31-.26a.33.33 0 0 0-.46-.22c-1.4.65-1.56 2.55-1.45 3.93q.04.53-.45.73-.15.06-.33-.11-.11-.1-.13-.25l-.23-2.38q-.05-.51-.37-.92-.7-.9-1.91-1.35-.53-.19-.48-.75.04-.55.36-1.02a.83.83 0 0 0-.06-.97l-.99-1.2q-.45-.54-.16-1.18.76-1.63-.01-3.21a1.29 1.28 50.3 0 1 .12-1.34q.6-.82-.23-1.47-1.85-1.44-.27-3.25a.73.73 0 0 0-.36-1.18q-.94-.26-1.75-.83-.67-.47-1.01.28-.06.14-.25.04-.48-.25-.06-.58.98-.79.13-1.89-.42-.54-.47-1.22l-.08-.95q-.16-1.96-1.29-.36-.6.86-1.04 1.78-.23.49-.77.59c-.87.16-1.22 1.08-.9 1.84q.52 1.25.98 2.51a1.18 1.18 0 0 1-1.21 1.58q-1.55-.13-2.8.39a1.14 1.12-1.5 0 0-.63.65q-.43 1.18-.4 2.42.01.35-.34.39-.13.02-.24-.05t-.15-.19q-.73-2.02-2.5-3.4a.48.48 0 0 0-.77.39q.06 2.69-1.83 4.33c-1.43 1.23-2.05 3.73-1.21 5.39q.3.61.87.24.64-.43 1.35-.52.73-.09.77.63l.23 3.59q.02.25-.17.4l-.32.26q-.13.11-.18.27-.65 1.91-1.39 4.12-1.28 3.8-2.17-.02-.09-.37.01-.85.43-2.01-1.5-1.07-.94.46-1.7 0-.38-.23-.66.13-.2.25-.18.8.02.28-.26.32l-.29.05q-.36.06-.34-.3.07-1.65.94-3.29a1.43 1.43 0 0 0-.63-1.95l-2.66-1.31q-.43-.21-.22-.65l1.11-2.35q.18-.38-.02-.75-1.22-2.23-3.02-1.49a.43.43 0 0 1-.55-.59l1.96-3.72a.79.79 0 0 0-.37-1.09l-2.45-1.12a.63.63 0 0 0-.82.28q-.28.52-.29 1.13-.01.29-.3.32l-.35.04q-.27.02-.29-.25-.08-.84.47-1.46.35-.4.36-.92l.14-4.67a.39.39 0 0 0-.65-.3q-.73.67-1.54.1a1.78 1.64-68.1 0 0-2.6 1.24q-.16.86-.35 1.63a.66.65 38.7 0 1-1.22.13c-.69-1.33-1.16-3.02-1.1-4.53.08-2.35-1.97-3.04-3.6-4.06q2.07-3.89 4.23-7.82c2.56-4.67 7.77-7.51 13.4-8.8q12.71-2.91 25.41-6.4c12.72-3.5 22.15-9.62 24-23.8q.06-.52.45-.87 5.38-4.92 12-.64M255.45 79.99q3.57 1.83 7.49 2.56 8.19 1.53 16.8 2.97c2.55.43 4.38 2.23 4.28 4.92q-.21 5.01 1.08 9 1.56 4.82 7.3 6.56.48 1.42 1.99 4.85.33.74.92.89.52.14.49-.4-.13-2.83 3.05-2.58.65.14 1.5.77-2.1 2.68-.19 4.76.36.39.87.23l.91-.3.46 1.92-3.81 2q-.65.34-.47 1.05.14.54.44.99.42.61.09 1.27-.62 1.27-.53 2.63.03.44.43.63 2.18 1.01 1.18 3.81a.34.34 0 0 1-.64.02q-.12-.3-.1-.64.03-.58-.55-.67-.4-.06-.46.55a.62.44 46.9 0 0 .03.23q.1.29-.1.5-.4.43-.63-.1c-.85-1.93-1.92-4.84-4.56-4.54a.44.43 74.2 0 0-.34.62q.87 1.92-1.79 2.77-1.58.5-1.03 2.06.33.95.33 1.98a.82.82 0 0 1-1.24.7c-2.96-1.75-1.68-5.27-1.74-7.96q-.03-1.4-1.34-1.39-.64 0-.21-.47.13-.14.31-.13.36.01.36-.35 0-.23-.14-.42a.44.44 0 0 0-.71.01q-.54.75-1.29 1.26-.44.31-.97.19l-2.94-.68q-.75-.17-.54.56.54 1.94-1.88 3.07a.32.32 0 0 1-.46-.26q-.32-4.53 1.06-8.89c.43-1.38 0-2.6-.13-3.98q-.05-.56-.62-.53-.98.07-1.73.7-.47.4-1.04.17-1.52-.6-1.73-2.26a.45.44 73.7 0 0-.63-.35l-1.67.79q-.52.25-.52.84-.01 2.1-2.46 2.7-.68.16-.61-.52.06-.71.53-1.21.45-.48-.03-.94l-.98-.94q-.53-.51.19-.68l.43-.1q.42-.1.56-.51.23-.68-.09-1.33-.23-.49-.05-.99l1.92-5.63q.2-.57-.21-1l-.75-.81q-.43-.47.01-.93l1.09-1.14a.69.68-44.7 0 0 .01-.94q-1.12-1.18-3-.89-.63.09-.3.64.18.3.23.65.18 1.1-.8.58-.93-.5-1.62-1.29a.97.96 62.4 0 0-.96-.31q-.28.06-.49.25-.62.54-.65-.28l-.11-2.55q-.04-.86-.7-.3-1.22 1.03-2.44-.01-.58-.49-.73.26-.22 1.13-1.37 1.36a.75.73 13.7 0 0-.44.26q-.18.21 0 .43t.48.21q.93-.04 1.13.73a1.2 1.18-32.5 0 1-.25 1.08q-1.06 1.21-.15 2.44.54.73-.24.28-1.01-.58-2.31-.5-.73.05-.78.77l-.13 1.63q-.02.3-.29.43-.18.09-.36-.01-.13-.07-.17-.22-.65-2.51.66-4.23a.71.71 0 0 0-.33-1.1q-1.13-.39-1.98-1.23-.39-.39 0-.79 1.89-1.89 1.07-4.43-.18-.58.42-.68l.27-.04q.19-.03.27-.21.2-.5-.2-.78-.53-.38-.04-.81.68-.61.31-1.42a.62.62 0 0 1 .36-.84q.32-.11.54-.4.39-.51.25-1.14l-.5-2.3q-.1-.46.09-.89.34-.75 1.06-1.31"/><path d="M298.85 108.76q-3.18-.25-3.05 2.58.03.54-.49.4-.59-.15-.92-.89-1.51-3.43-1.99-4.85z"/><path fill="#e246d9" d="M167.57 107.33q.43.05.16.39-.24.3-.4-.05-.18-.38.24-.34"/><path d="m301.94 114.22-.91.3q-.51.16-.87-.23-1.91-2.08.19-4.76 1.94 1.22 1.59 4.69"/><path fill="#e246d9" d="M279.28 125.36q.13-.17.27.01.05.07 0 .14-.18.26-.29-.03-.02-.06.02-.12M78.8 144.36q-1.98-6.92-.82-12.12.46-2.06 3.19-5.55 1.51 1.11-.53 3.44-.38.43-.08.92.36.61.36 1.29 0 .73-.62.35l-.51-.32q-.41-.25-.84-.02-.46.24-.85.68-.35.4.06.75.9.76.93 2.05a1.09 1.09 0 0 0 .86 1.04l1.1.24a1.17 1.17 0 0 1 .92 1.21q-.36 5.4-3.17 6.04M169.15 142.12q.27-.04.42.18a.26.26 0 0 1-.32.38q-.16-.08-.25-.22a.23.23 0 0 1 .15-.34M289.29 253.25q-.57 5.77-.23 7.92c.7 4.4 2.59 8.41-2.23 11.17-5.9 3.38-11.65 6.58-17.33 10.41q-7.85 5.3-15.47 10.27-15.8 10.31-33.45 16.79.67-.94.01-1.73-.35-.42-.11-.91.6-1.21.58-2.54-.01-.66-.59-.34l-1.22.68a.79.79 0 0 1-1.17-.59q-.33-2.73.66-5.12.25-.6-.08-1.15l-.18-.31a.49.49 0 0 1 .45-.75q.79.05 1.52-.15.43-.12.2-.51-.93-1.6-.78-3.56a.46.46 0 0 0-.64-.46l-.4.18q-1.04.45-.91-.68.36-3.27 4.37-3.51.49-.03.76-.45.46-.7 1.27-1.02.69-.28.24-.87-.74-.96-.69-2.19a.49.48 74.5 0 0-.75-.43l-.27.19q-.69.46-.75-.36l-.24-3.29q-.04-.55-.55-.76l-.93-.39a.7.7 0 0 1-.29-1.06l1.82-2.44a1.38 1.38 0 0 0-.49-2.06l-2.76-1.4q-.54-.27-.14-.74.54-.62.43-1.44-.06-.53-.6-.55-1.37-.04-2.63-.68-.53-.28-.75.28l-.7 1.79q-.18.46-.02.93l.76 2.27a.91.88-39.3 0 1-.09.77q-1.05 1.7-.99 3.91 0 .22-.16.36-.11.11-.32.03-.26-.1-.32-.38-.41-1.78-2.41-1.35-.51.11-.58.64l-.22 1.82a.4.4 0 0 1-.59.3c-2.03-1.11-1.22-2.91-.51-4.52q.24-.56-.12-1.05-.75-1-2.03-1.31a.74.72 89.9 0 1-.55-.56q-.38-1.68-2.22-1.31-.78.16-.4.86l.17.31q.35.66-.39.7-1.54.09-2.76.8a.38.37 84.2 0 1-.54-.45c.74-2.23 1.36-4.5 2.98-6.29q1.26-1.39 2.11-3.03.34-.65 1-.96l.47-.22q.71-.33.1-.82-.89-.71-1.96-.99-.5-.13-.62-.64-.32-1.31.01-2.82.58-.63.71-1.72 1.48-4.3.46-9.17 2.65 4.3 7.3 2.06.47-.22.5-.73.1-1.69-.73-3.27-.24-.45-.08-.93.77-2.22 3.22-2.93a.38.38 0 0 0 .22-.57q-.64-1 .37-1.69 1.09-.75.3-1.73-.32-.39.03-.75l.22-.23q.42-.44-.17-.61-1.71-.49-1.82-2.61-.03-.61.58-.61.16 0 .3-.06.41-.18.18-.56-.62-1.04.17-2.35 1.09-1.79 1.14.3.04 1.94 1.99 1.83a.86.85 78.2 0 1 .86.57q.25.69-.27 1.29-.42.49.1.87.15.11.34.09.76-.1.63.66-.07.34-.26.64-.28.44-.15.95.16.68.87.82.56.12.65.69.04.27-.23.42a.46.46 0 0 0-.08.74q.32.29.77.24a.47.47 0 0 1 .41.77q-.65.76-.32 1.55a.82.81 62.6 0 0 1.19.38l.71-.44q.72-.46.75.4l.02 1.04q.05 1.86 1.02.28.83-1.34.41-2.46-.27-.73.45-1.02 1.67-.67 2.37-2 .62-1.2.77.14.08.75.66 1.08a.69.68-57.8 0 0 .91-.21l2.23-3.22a.81.81 0 0 0-.44-1.23q-2.12-.61-.99-2.64.88-1.55 1.96-3.02.67-.9.72.22l.1 2.4q.03.59.59.8.49.18 1 .12.71-.08.58.62-.62 3.35.18 6.4.13.51-.04 1-.34.96.67 1.08.82.1.28.72-.4.46-.15 1.31l.02.06 2.65 4.33a.52.52 0 0 0 .87.02q1.52-2.27.74-3.87-.32-.67.42-.71l2.09-.11q.6-.03.86-.57l.38-.83q.34-.72.83-.1.68.86.94 1.92.26 1.04.86.16.19-.28.16-.62a.74.72-26.7 0 1 .2-.59l2.62-2.83a.71.7 46.6 0 0 .02-.95q-.41-.47-1.03-.61-.63-.13-.77-.77-.38-1.84 1.11-2.85.54-.36.61-1.01l.28-2.84q.02-.17.19-.16h.39q.42.01.37.43-.43 3.45 2.3 4.56.52.21.49.77-.02.46-.24.86a1 1 0 0 0 .17 1.19q1.39 1.38.71 3.11a2.25 2.23 44.7 0 0 .02 1.68q.49 1.18.03 2.31-.28.66.28 1.11 1.85 1.5.44 3.32a.81.81 0 0 0 .49 1.29c2.35.45 3.19 3.64 3.41 5.64a.48.48 0 0 0 .89.19l1.18-2.01q.22-.39.61-.6 2.18-1.2.29-3.97a1.38 1.37 74 0 1 1.19-2.15q1.48.06 2.76-.48.35-.15.52-.49.51-1 .49-2.22 0-.37.27-.63.15-.13.32.04.12.12.18.29.7 2.12 2.59 3.27a.32.32 0 0 0 .49-.28c-.06-3.66 2.54-3.85 3.43-6.74q.53-1.72-.35-3.26-.3-.52-.76-.14-.66.55-1.44.57a.77.76-89.6 0 1-.79-.81q.11-1.66-.45-3.21a.6.6 0 0 1 .26-.71l.37-.22a1.2 1.15 84.8 0 0 .51-.64l1.53-4.79q.14-.44.58-.58.47-.15.82.19.26.26.3.64.12 1.18.15 2.43a.8.8 0 0 0 1.29.61q.87-.69 1.81-.33a.61.6-58.7 0 0 .67-.17q.21-.23.28-.53a.93.92-18.1 0 1 .16-.31q.35-.41.57-.17.14.14.13.35-.02 1.7-.86 3.25a1.49 1.48-63.8 0 0 .7 2.06l2.41 1.09q.5.23.28.73l-1.01 2.26q-.22.52.06 1 1.06 1.8 2.56 1.41 1.23-.32.67.82l-1.73 3.47q-.28.58.26.94.83.54 1.85.79a2.35 2.33 4.4 0 1 1.78 2.06z"/><path fill="#e246d9" d="M213.5 240.85a.19.18-77.8 0 1-.17-.27q.09-.15.24-.24a.17.17 0 0 1 .25.11q.07.37-.32.4M290.19 246.17l-.34 1.83q-1.72-1.12.34-1.83M260.41 251.17q.19-.05.25.15.08.31-.15.57a.31.3 64.3 0 1-.53-.19q-.02-.42.43-.53"/><path d="M204.78 255.77q-.13 1.09-.71 1.72-.07-.9.71-1.72M204.07 257.49q-.33 1.51-.01 2.82.12.51.62.64 1.07.28 1.96.99.61.49-.1.82l-.47.22q-.66.31-1 .96-.85 1.64-2.11 3.03c-1.62 1.79-2.24 4.06-2.98 6.29a.38.37 84.2 0 0 .54.45q1.22-.71 2.76-.8.74-.04.39-.7l-.17-.31q-.38-.7.4-.86 1.84-.37 2.22 1.31a.74.72 89.9 0 0 .55.56q1.28.31 2.03 1.31.36.49.12 1.05c-.71 1.61-1.52 3.41.51 4.52a.4.4 0 0 0 .59-.3l.22-1.82q.07-.53.58-.64 2-.43 2.41 1.35.06.28.32.38.21.08.32-.03.16-.14.16-.36-.06-2.21.99-3.91a.91.88-39.3 0 0 .09-.77l-.76-2.27q-.16-.47.02-.93l.7-1.79q.22-.56.75-.28 1.26.64 2.63.68.54.02.6.55.11.82-.43 1.44-.4.47.14.74l2.76 1.4a1.38 1.38 0 0 1 .49 2.06l-1.82 2.44a.7.7 0 0 0 .29 1.06l.93.39q.51.21.55.76l.24 3.29q.06.82.75.36l.27-.19a.49.48 74.5 0 1 .75.43q-.05 1.23.69 2.19.45.59-.24.87-.81.32-1.27 1.02-.27.42-.76.45-4.01.24-4.37 3.51-.13 1.13.91.68l.4-.18a.46.46 0 0 1 .64.46q-.15 1.96.78 3.56.23.39-.2.51-.73.2-1.52.15a.49.49 0 0 0-.45.75l.18.31q.33.55.08 1.15-.99 2.39-.66 5.12a.79.79 0 0 0 1.17.59l1.22-.68q.58-.32.59.34.02 1.33-.58 2.54-.24.49.11.91.66.79-.01 1.73l-3.34 1.03q-.12-.37-.5-.3-.53.1-.43.5-1.59.86-3.52 1.15.49-.8.2-1.46-.24-.56-.79-.28-1.49.75-3.48-.64-.61-.43-.9-1.05-.28-.59-.84-.27-.8.45-.87-.47-.06-.81-.35-1.53-.3-.76-.49.03-.45 1.82-2.14 2.48-.6.23-.48.87l.41 2.17q.12.62.74.75 1.96.38 3.25 1.72l-13.04.36q-.47.01-.73-.37-1.7-2.46-2.8-4.92-1.03-2.32-.08-5.39 5.59-18.01 7.48-34.96c.52-4.64 3.15-8.36 6.19-11.74m11.21 17.76q-.15.28.16.37.12.04.18-.08.07-.16-.03-.31a.18.18 0 0 0-.31.02m-5.02 34.18q-.24.15-.11.41a.25.25 0 0 0 .45 0q.07-.14.02-.29-.12-.27-.36-.12"/><path fill="#e246d9" d="M215.28 275.25a.18.18 0 0 1 .31-.02q.1.15.03.31-.06.12-.18.08-.31-.09-.16-.37M212.79 312.19l-5.74 2.32q-1.29-1.34-3.25-1.72-.62-.13-.74-.75l-.41-2.17q-.12-.64.48-.87 1.69-.66 2.14-2.48.19-.79.49-.03.29.72.35 1.53.07.92.87.47.56-.32.84.27.29.62.9 1.05 1.99 1.39 3.48.64.55-.28.79.28.29.66-.2 1.46"/><path fill="#e246d9" d="M210.62 309.55q.05.15-.02.29a.25.25 0 0 1-.45 0q-.13-.26.11-.41t.36.12M217.24 310.84q-.41.19-.93.2-.1-.4.43-.5.38-.07.5.3"/></svg>