<svg xmlns="http://www.w3.org/2000/svg" viewBox="0 0 382 382"><g fill="none" stroke="#4d1b51" stroke-width="2"><path d="M221.86 70.52q-3.54 3.03-3.79 7.73-.05.94.73.42.56-.38.95-.95.88-1.29 1.28.22.25.95 1.02 1.59.56.46.97-.13.11-.15.31-.11.7.12.19.62-.57.56-.07 1.07.37.38.27.9l-.93 4.99a1.07 1.06-67.4 0 0 .43 1.06q.66.47.69 1.24.01.36.32.54.14.08.32-.06.18-.13.2-.36.12-1.34.49-2.68.46-1.66 1.93-1.19a.48.48 0 0 0 .6-.29l.15-.39a.63.63 0 0 1 1.02-.24l3.32 3.14q.67.64.62-.28-.04-.8-.43-1.52-.25-.45-.2-.97l.26-2.47q.06-.5.45-.82.55-.44 1.25-.68.67-.24.19-.76l-.71-.78q-.31-.33-.4-.79-.07-.32.13-.57.34-.44.07-.93-.3-.53-.82-.72-.71-.24-.62.5.06.44-.24.78-.51.59-.66-.19-.41-2.18.22-4.12M240.03 72.03q.48 1.07 1.2 1.47.5.28.65-.28l.31-1.18M255.46 80.05q1.26 2.85-.39 5.29-.29.43-.21.94.36 2.39-.81 4.19-.31.47-.1.98 1.03 2.57-.42 4.68a.54.54 0 0 0 .4.85l2.48.18a.71.71 0 0 1 .66.73l-.07 2.59q-.01.22.21.21l.34-.02q.43-.02.38-.44-.19-1.87 1.44-2.34a.9.89 81 0 0 .65-.9q-.07-1.31-.75-2.44-.25-.41-.13-.88.14-.61.6-1.06.49-.47 1.13-.24.62.21 1.24 0 .49-.17.68.31.87 2.2 4.04 3.2a.82.82 0 0 0 1.06-.65q.07-.45.34-.82.28-.39.76-.46.78-.11 1.53.07.64.15.54.8l-.42 2.71a1.14 1.04 42.5 0 0 .04.46l.67 1.99q.17.52.02 1.03l-1.78 6.04q-.14.5.02.99.34 1.04-.04 2.01a1.07 1.07 0 0 0 .16 1.05q.8.98 1.33 2.18.31.7.77.09 1.43-1.93.52-3.71-.34-.66.4-.63l2.4.08a.87.87 0 0 1 .83.72q.09.55.51.92.41.36.87.05 1.21-.79 2.63-.89.64-.05.7.59.51 5.03-.21 9.75-.08.49.14.95.26.55-.13 1.03-.41.5.21.66 1.09.28 1.39 1.38.29 1.07.76.07l.83-1.8q.33-.7-.06-1.37-.36-.62-.48-1.28-.19-.99.61-.39 1.23.91 2.36-.07a.66.65 43.4 0 1 .82-.02q.31.25.64.09a.57.57 0 0 0 .32-.56q-.01-.2.12-.35.45-.5 1.02-.13.45.3.98.41.71.15.63.87-.19 1.72.85 3.31.33.52.04 1.04-.28.5.19.82 1.83 1.25 3.56 1.11.56-.05.34-.56l-1.4-3.2q-.26-.59.17-1.06l1.72-1.95q.59-.65.18-1.43-.52-.98.15-1.78.33-.39.8-.19l4.09 1.68a.59.59 0 0 0 .78-.33q.18-.47.24-1.22M289.48 252.45q-.89-.28-1.74.2-.44.25-.83-.07-1.22-1-.63-2.71.82-2.34.55-4.37-.02-.15-.16-.16l-.35-.03q-.39-.03-.31.35.14.62-.26 1.03a.34.34 0 0 1-.58-.2q-.21-1.81-2.11-1.46a.88.88 0 0 1-.9-1.34q.88-1.39.88-3.01-.01-.44.34-.7.2-.15.31-.38.05-.1 0-.21-.09-.17-.36-.11-.2.04-.31.22l-.18.31a.2.2 0 0 1-.27.07l-1.96-1.06q-.62-.33-.63-1.03-.03-1.81.81-3.7 1.08-2.44-1.35-1.39c-2.47 1.06-4.22-1.14-2.97-3.49q.45-.84.46-1.71.01-.58-.58-.55l-.27.01q-.71.04-.84.74-.73 3.81-4.64 2.81-.58-.15-.57.44l.01 2.44a.59.59 0 0 0 .37.55q.31.13.29.42-.03.5-.52.57-.8.13-1.15.83a.62.61 24.2 0 0 .32.84q.92.36 1.66 1a.6.58 24.7 0 1 .2.52q-.05.42.27.53.69.26.49-.45-.16-.61.35-.88.88-.47.75.52l-.61 4.45q-.08.58-.63.79-1.91.74-1.95 2.92a.94.93 81.5 0 1-.63.86q-.77.27-1.38-.36-.84-.86-1.07-2.05-.05-.23-.27-.28-.18-.05-.35.25-.14.24-.13.52.01 1.38-.82 2.33-.98 1.11-1.23-.35-.02-.14-.08-.27-.25-.59-.61-.06l-2.04 2.95a.84.84 0 0 0-.07.84l.48 1.02q.27.57-.07 1.11l-2.76 4.36a.29.29 0 0 1-.49-.02q-1.29-2.31-1.61-5-.08-.7-.69-.34-.17.09-.35.13-.57.1-.88-.38-.42-.67-1.08-1.12-.51-.35-.23-.91.25-.49.27-1.03a1.75 1.74 23.7 0 0-.51-1.3q-1.37-1.35-.74-3.02a2.07 2.04 47.3 0 0 .04-1.28q-.57-1.87-.25-3.78.1-.63-.34-1.07-.64-.63-1.45-1a.79.78 30.7 0 1-.31-1.19q.98-1.31.74-2.91-.09-.6-.61-.29-1.71 1.01-3.74 1.18-.62.04-.67.66-.08 1.04-.49 1.97a.9.89-57.8 0 0 .23 1.04q.71.6 1.13 1.42a.93.92-34.8 0 1-.2 1.08q-1.63 1.51-1.77 3.64a.66.66 0 0 1-.61.61q-1.18.08-1.31-1.15-.1-.95-.78-.27-1.4 1.42-3.44 1.63-.78.09-.65.86.09.54.46.96a.7.7 0 0 1-.07.99q-1.04.9-1.55 2.27-.58 1.57-.81-.09-.16-1.14-.18-2.26-.01-.48-.44-.67-.73-.32-1.57-.38a.91.91 0 0 1-.81-.68q-.6-2.34-.88-4.96-.36-3.31-2.41-8.42-.25-.62-.85-.32-1.58.79-3.13.18-.71-.28-.14.22.25.22.23.64-.04.61-.35 1.14-1.07 1.83.69 3.1a1.64 1.63 44 0 1 .05 2.62q-1.91 1.46-4.23 2.63a2.85 2.83-23.4 0 0-1.4 3.51q.38 1.03-.39 1.8-.46.47-1.08.28-.98-.29-1.91.2a.71.71 0 0 1-1-.38l-.45-1.22q-.19-.51-.73-.55-.15-.01-.29-.06-.15-.05-.25-.18l-4.3-5.48a.6.54-73.3 0 1-.11-.23q-.36-1.46-1.37-2.48-.46-.45-.5.19-.02.36.2.62.33.39-.01.77-1.52 1.68-2.32 3.85a1.18 1.16-58.9 0 0 .31 1.28q.61.54.27 1.28-.39.85.52.63.42-.09.66-.46.34-.52.68-.01.83 1.23.72 2.56-.27 3.15-1.82 6.17c-.65 1.26-.29 2.42.23 3.61a2.33 2.32 61.8 0 1-.87 2.9q-1.38.87-2.96.91-.65.01-.91.61-.34.79-1.03.32-.59-.41-.81.28-.45 1.44-1.7 1.31" vector-effect="non-scaling-stroke"/><path d="M205.12 242.67q.82-.07.39-1.15-.1-.25-.48.02M80.55 148.25l.5-3q.08-.49.49-.79 3.02-2.2 2.2-6-.15-.71-.83-1.02-1.1-.52-1 .69.04.52-.45.71a.4.39 82.1 0 1-.53-.41q.17-1.92-.51-3.87-.2-.56.32-.87l1.51-.9q.53-.31.15-.78-.28-.35-.31-.83a1.3 1.3 0 0 1 .29-.87l1.34-1.67q.34-.41.17-.92-.21-.66-.65-1.22-.38-.49-.12-1.05.35-.75.57-1.53.55-1.93 1.27-.06.6 1.56 2.19 2.23a1.61 1.59-4.2 0 1 .75.64q1.07 1.73 1.13 3.77c.04 1.21.86 2.37 2.08 2.6a.5.5 0 0 0 .52-.75q-.68-1.13.38-1.86a.8.8 0 0 1 .95.02q1.05.81 2.08-.06.5-.43 1.02-.02 1.36 1.04.7 2.71-.8 2-.75 4.11.01.33.29.5.15.08.32.04.39-.1.36-.51-.03-.24.07-.45.52-1.14.82.08.33 1.37 1.85 1.15 1.87-.26 1.07 1.45-.81 1.71-1.36 3.71-.19.7.46.37 1.12-.57 2.73.71.47.38.42.99-.17 1.95-.91 3.95-.75 2.04 1.21 1.13c1.69-.78 3.78.14 3.58 2.12q-.13 1.18-.86 2.59-.29.57.31.78l.4.14a.77.77 0 0 0 1-.55l.36-1.53a1.29 1.28 78.9 0 1 .5-.75q1.9-1.39 3.7-.65.53.22.62-.35.29-1.98-.51-3.46-.37-.69.41-.76.66-.06 1.04-.59a.7.69-64.2 0 0-.37-1.08q-1.42-.42-1.88-1.8-.07-.23-.31-.25-.05-.01-.09.02-.23.13-.18.38.11.71-.39 1.1-.45.35-.59-.21-.39-1.62.31-3.19.33-.75.13-1.49a.56.56 0 0 1 .32-.66q2.2-.98 2.31-3.52a.71.71 0 0 1 .89-.65q1.7.46 2.12 2.58.03.11.14.14l.35.06q.36.07.32-.29-.15-1.51.75-2.82.26-.39.68-.48.58-.13.63.47l.05.57q.11 1.39.68.12.63-1.41 1.77-2.35a1.11 1.11 0 0 0 .38-1.04q-.12-.68-.52-1.27a1.1 1.09 44.2 0 1-.02-1.21l2.58-4.09a.5.49 47.5 0 1 .86.04q1.19 2.29 1.33 4.6.03.55.56.43 1.4-.33 2.56 1.45.37.57.18 1.21-.44 1.48.79 2.63a1.49 1.48 29.8 0 1 .42 1.51q-.59 2 .18 4.11a1.67 1.64 47.8 0 1-.05 1.25q-.57 1.28.51 2.17a1.03.97 66.3 0 0 .54.23q.44.05.75.33.56.5.15 1.13-.83 1.29-.74 2.71.05.84.78.41 1.8-1.05 3.75-1.25.46-.05.49-.52.05-.99.46-2.01.25-.63-.25-1.08-1.94-1.75.04-3.51a1.85 1.83 75 0 0 .58-1.02l.32-1.54q.1-.53.64-.58 1.14-.1 1.27 1.1.1.94.75.24 1.33-1.44 3.37-1.57a.75.74 87.6 0 0 .7-.77q-.02-.63-.4-1.15t.09-.96q1.17-1.09 1.58-2.7.02-.08.08-.12.17-.12.4-.09a.34.34 0 0 1 .31.33l.04 2.52q0 .52.47.77.74.39 1.6.42.46.01.64.43 1.24 2.91 1.04 5.65-.04.63.31 1.15.54.81.45 1.74-.05.47.12.91l1.61 4.16q.18.47.65.29 1.54-.6 3.1-.09.47.16.32-.32-.39-1.24.41-2.36.44-.62-.02-1.23l-1.16-1.51a1.62 1.62 0 0 1 .18-2.16q1.79-1.68 3.99-2.67a3.08 3.02 71.1 0 0 1.69-3.54q-.2-.81.14-1.62.35-.82 1.2-.55 1.02.31 1.99-.22.52-.29.9.16.42.48.45 1.16.02.5.3.87.14.19.33.07.63-.39 1.03.24 1.17 1.88 2.49 3.78.36.51.97.6.25.04.41.25a1.55 1.54 25.7 0 1 .3.85q.04 1.48 1.26 2.53.41.36.4-.19 0-.26-.13-.48-.32-.57.18-.98 1.14-.92 1.53-2.31.17-.64.79-.41l.34.12q.99.37.57-.61-.48-1.12-1.4-1.95-.63-.55.01-1.09.15-.13.11-.36-.12-.58-.65-.33l-1.17.56a.54.54 0 0 1-.72-.26q-.57-1.18-.4-2.35.41-2.92 1.79-5.76c.75-1.56.39-2.76-.15-4.28q-.58-1.65.83-2.5c.92-.57 2.08-1.42 3.16-1.01q.68.25.71-.47.01-.31.22-.54.62-.69.89.2l.12.4q.3 1 .68.03.22-.56.19-1.16-.05-1.1.86-.5.56.37 1.2.44.96.11.43-.7-1.3-2-.99-3.8a.41.41 0 0 0-.42-.48q-1.36.06-2.56.66a.75.74-33.5 0 1-.91-.18q-1-1.17-.16-2.48a.76.76 0 0 0-.08-.92q-.7-.76-1.71-1.1-.43-.15-.54-.6-.75-3.06 1.07-5.22a.95.95 0 0 0 .19-.86q-.2-.71.04-1.4a1.1 1.08-55.5 0 0-.18-1.03l-.22-.27q-.52-.63-.85.11l-.17.38q-.24.52-.78.7l-2.69.89q-.73.24-.65-.51.1-1.12-.01-2.24-.09-.94-1.03-.92-.5.01-.68.47-.34.84-.29 1.79.04.79-.69.5-.19-.07-.33-.22a.55.55 0 0 0-.94.35q-.15 1.97.73 3.52.33.58-.26.9l-2.66 1.44q-.71.38-.67-.42.15-2.8-2.71-3.48-.69-.16-.38-.8l1.51-3.1q.27-.54-.3-.76l-.56-.23q-.5-.19-.55-.72l-.25-2.41q-.08-.8-.76-.39l-.45.26q-.51.29-.56-.29-.14-1.43-.81-2.69-.27-.52.31-.57 1.06-.09 1.38-1.06a1.16 1.16 0 0 1 .89-.79q2.25-.45 3.74-2.31.37-.46-.05-.88-.84-.81-1.85-1.07-.78-.2-.28-.82.9-1.11.09-2.22-.47-.65.31-.85l.46-.11q.66-.16.65-.84l-.02-4.78M176.23 70.58l.91.84q.52.48.89-.12.13-.21.35-.23.43-.03.71.29l1.16 1.33q.31.35.44-.09.11-.36-.25-.42a.44.44 0 0 1-.37-.37q-.12-.77 1.37-1.92M299.41 109.05l.86 4.13q.1.49.55.72.52.27 1.08.34M219.72 310.07q.28-1.59-.88-3.46-.21-.32-.59-.28-.16.02-.26.15-.46.58-.97.05-.17-.17-.28-.38-.22-.4-.15-.86.35-2.31.67-4.52.09-.61.66-.89.09-.04.19-.05.86-.11.36-.82-.76-1.08.11-2.14.55-.66-.3-.8-1.1-.18-1.85-1.06-.4-.46-.03-.94 1.46-1.89 3.64-2.2.53-.07.82-.53.59-.94 1.59-1.49a.5.5 0 0 0 .15-.76q-.82-1.01-.78-2.31a.45.45 0 0 0-.71-.38l-.23.15q-.78.56-.82-.41-.05-1.12-.2-2.18-.07-.5-.44-.86-.15-.14-.35-.17-.78-.13-.47-.86l1.28-3.06a.6.6 0 0 0-.38-.8q-2.83-.87-2.63-3.61.06-.76-.59-.37l-2.65 1.58q-.51.3-.24.83.77 1.55.69 3.56a.49.49 0 0 1-.73.41l-.47-.25q-.81-.45-.74.47.06.81-.23 1.56-.31.78-1.14.64a.86.86 0 0 1-.73-.83l-.08-2.5a.46.45-15.1 0 0-.67-.38q-1.17.65-2.45.82-.62.08-.87.66l-.24.57q-.27.64-.82.23-.17-.13-.29-.3-.43-.58-.14-1.25.27-.6.07-1.25-.16-.5.18-.9 1.68-1.96 1.18-4.99-.08-.49-.52-.74l-1.63-.93a.82.82 0 0 1-.31-1.13q.88-1.49-.4-2.6-.48-.42-1-.06-.83.57-1.84.58-.71.01-.68-.7.08-1.32-.61-2.29M209.18 313.26q.02-.76-.23-1.41-.21-.58-.76-.3-1.17.59-2.32-.03a.85.84-41.7 0 0-.72-.04q-1.47.57-2.28-.99-.29-.56-.56.01-.11.24.05.35.46.32.28.85l-1.06 3.07M222.52 88.61q.19-.14.11-.33-.09-.2-.21-.02-.09.13-.05.29a.1.09 66.2 0 0 .15.06M292.13 126.37q-.25.52-.07 1.05a.51.51 0 0 0 .94.05q.28-.58-.12-1.16-.42-.61-.75.06M212.52 240.55a.24.24 0 0 0-.24-.24.24.24 0 0 0-.24.24.24.24 0 0 0 .24.24.24.24 0 0 0 .24-.24" vector-effect="non-scaling-stroke"/></g><path d="M221.86 70.52q-3.54 3.03-3.79 7.73-.05.94.73.42.56-.38.95-.95.88-1.29 1.28.22.25.95 1.02 1.59.56.46.97-.13.11-.15.31-.11.7.12.19.62-.57.56-.07 1.07.37.38.27.9l-.93 4.99a1.07 1.06-67.4 0 0 .43 1.06q.66.47.69 1.24.01.36.32.54.14.08.32-.06.18-.13.2-.36.12-1.34.49-2.68.46-1.66 1.93-1.19a.48.48 0 0 0 .6-.29l.15-.39a.63.63 0 0 1 1.02-.24l3.32 3.14q.67.64.62-.28-.04-.8-.43-1.52-.25-.45-.2-.97l.26-2.47q.06-.5.45-.82.55-.44 1.25-.68.67-.24.19-.76l-.71-.78q-.31-.33-.4-.79-.07-.32.13-.57.34-.44.07-.93-.3-.53-.82-.72-.71-.24-.62.5.06.44-.24.78-.51.59-.66-.19-.41-2.18.22-4.12l8.66-1.29q.48 1.07 1.2 1.47.5.28.65-.28l.31-1.18q2.86-.2 5.09 1.43 2.64 1.93 8.18 6.58 1.26 2.85-.39 5.29-.29.43-.21.94.36 2.39-.81 4.19-.31.47-.1.98 1.03 2.57-.42 4.68a.54.54 0 0 0 .4.85l2.48.18a.71.71 0 0 1 .66.73l-.07 2.59q-.01.22.21.21l.34-.02q.43-.02.38-.44-.19-1.87 1.44-2.34a.9.89 81 0 0 .65-.9q-.07-1.31-.75-2.44-.25-.41-.13-.88.14-.61.6-1.06.49-.47 1.13-.24.62.21 1.24 0 .49-.17.68.31.87 2.2 4.04 3.2a.82.82 0 0 0 1.06-.65q.07-.45.34-.82.28-.39.76-.46.78-.11 1.53.07.64.15.54.8l-.42 2.71a1.14 1.04 42.5 0 0 .04.46l.67 1.99q.17.52.02 1.03l-1.78 6.04q-.14.5.02.99.34 1.04-.04 2.01a1.07 1.07 0 0 0 .16 1.05q.8.98 1.33 2.18.31.7.77.09 1.43-1.93.52-3.71-.34-.66.4-.63l2.4.08a.87.87 0 0 1 .83.72q.09.55.51.92.41.36.87.05 1.21-.79 2.63-.89.64-.05.7.59.51 5.03-.21 9.75-.08.49.14.95.26.55-.13 1.03-.41.5.21.66 1.09.28 1.39 1.38.29 1.07.76.07l.83-1.8q.33-.7-.06-1.37-.36-.62-.48-1.28-.19-.99.61-.39 1.23.91 2.36-.07a.66.65 43.4 0 1 .82-.02q.31.25.64.09a.57.57 0 0 0 .32-.56q-.01-.2.12-.35.45-.5 1.02-.13.45.3.98.41.71.15.63.87-.19 1.72.85 3.31.33.52.04 1.04-.28.5.19.82 1.83 1.25 3.56 1.11.56-.05.34-.56l-1.4-3.2q-.26-.59.17-1.06l1.72-1.95q.59-.65.18-1.43-.52-.98.15-1.78.33-.39.8-.19l4.09 1.68a.59.59 0 0 0 .78-.33q.18-.47.24-1.22c1.22 6.76-.69 14.09-1.35 19.44a1.04 1.03-57.5 0 0 .14.65l2.74 4.58q.31.52.31 1.12-.09 8.33.03 16.74.07 5.12-.99 11.25-4.93 28.28-9.64 56.56-.93 5.59-2.32 13.02-1.21 6.52-1.79 13.11-.89-.28-1.74.2-.44.25-.83-.07-1.22-1-.63-2.71.82-2.34.55-4.37-.02-.15-.16-.16l-.35-.03q-.39-.03-.31.35.14.62-.26 1.03a.34.34 0 0 1-.58-.2q-.21-1.81-2.11-1.46a.88.88 0 0 1-.9-1.34q.88-1.39.88-3.01-.01-.44.34-.7.2-.15.31-.38.05-.1 0-.21-.09-.17-.36-.11-.2.04-.31.22l-.18.31a.2.2 0 0 1-.27.07l-1.96-1.06q-.62-.33-.63-1.03-.03-1.81.81-3.7 1.08-2.44-1.35-1.39c-2.47 1.06-4.22-1.14-2.97-3.49q.45-.84.46-1.71.01-.58-.58-.55l-.27.01q-.71.04-.84.74-.73 3.81-4.64 2.81-.58-.15-.57.44l.01 2.44a.59.59 0 0 0 .37.55q.31.13.29.42-.03.5-.52.57-.8.13-1.15.83a.62.61 24.2 0 0 .32.84q.92.36 1.66 1a.6.58 24.7 0 1 .2.52q-.05.42.27.53.69.26.49-.45-.16-.61.35-.88.88-.47.75.52l-.61 4.45q-.08.58-.63.79-1.91.74-1.95 2.92a.94.93 81.5 0 1-.63.86q-.77.27-1.38-.36-.84-.86-1.07-2.05-.05-.23-.27-.28-.18-.05-.35.25-.14.24-.13.52.01 1.38-.82 2.33-.98 1.11-1.23-.35-.02-.14-.08-.27-.25-.59-.61-.06l-2.04 2.95a.84.84 0 0 0-.07.84l.48 1.02q.27.57-.07 1.11l-2.76 4.36a.29.29 0 0 1-.49-.02q-1.29-2.31-1.61-5-.08-.7-.69-.34-.17.09-.35.13-.57.1-.88-.38-.42-.67-1.08-1.12-.51-.35-.23-.91.25-.49.27-1.03a1.75 1.74 23.7 0 0-.51-1.3q-1.37-1.35-.74-3.02a2.07 2.04 47.3 0 0 .04-1.28q-.57-1.87-.25-3.78.1-.63-.34-1.07-.64-.63-1.45-1a.79.78 30.7 0 1-.31-1.19q.98-1.31.74-2.91-.09-.6-.61-.29-1.71 1.01-3.74 1.18-.62.04-.67.66-.08 1.04-.49 1.97a.9.89-57.8 0 0 .23 1.04q.71.6 1.13 1.42a.93.92-34.8 0 1-.2 1.08q-1.63 1.51-1.77 3.64a.66.66 0 0 1-.61.61q-1.18.08-1.31-1.15-.1-.95-.78-.27-1.4 1.42-3.44 1.63-.78.09-.65.86.09.54.46.96a.7.7 0 0 1-.07.99q-1.04.9-1.55 2.27-.58 1.57-.81-.09-.16-1.14-.18-2.26-.01-.48-.44-.67-.73-.32-1.57-.38a.91.91 0 0 1-.81-.68q-.6-2.34-.88-4.96-.36-3.31-2.41-8.42-.25-.62-.85-.32-1.58.79-3.13.18-.71-.28-.14.22.25.22.23.64-.04.61-.35 1.14-1.07 1.83.69 3.1a1.64 1.63 44 0 1 .05 2.62q-1.91 1.46-4.23 2.63a2.85 2.83-23.4 0 0-1.4 3.51q.38 1.03-.39 1.8-.46.47-1.08.28-.98-.29-1.91.2a.71.71 0 0 1-1-.38l-.45-1.22q-.19-.51-.73-.55-.15-.01-.29-.06-.15-.05-.25-.18l-4.3-5.48a.6.54-73.3 0 1-.11-.23q-.36-1.46-1.37-2.48-.46-.45-.5.19-.02.36.2.62.33.39-.01.77-1.52 1.68-2.32 3.85a1.18 1.16-58.9 0 0 .31 1.28q.61.54.27 1.28-.39.85.52.63.42-.09.66-.46.34-.52.68-.01.83 1.23.72 2.56-.27 3.15-1.82 6.17c-.65 1.26-.29 2.42.23 3.61a2.33 2.32 61.8 0 1-.87 2.9q-1.38.87-2.96.91-.65.01-.91.61-.34.79-1.03.32-.59-.41-.81.28-.45 1.44-1.7 1.31c2.53-4.3 6.58-7.82 6.14-13.68q-.29-3.88-.47-7.68.82-.07.39-1.15-.1-.25-.48.02c-1.56-9.25.17-21.08-8.54-27.23q-3-2.12-9.3-3.11-6.38-1-10.58-1.09-6.78-.15-13.92-.25c-2.53-.04-5.79-1.68-7.92-3.42q-10.8-8.82-18.89-14.8-14.06-10.38-31.55-11.74c-10.95-.84-19.73-6.32-22.83-17.4q-1.11-3.94-.95-14.25l.5-3q.08-.49.49-.79 3.02-2.2 2.2-6-.15-.71-.83-1.02-1.1-.52-1 .69.04.52-.45.71a.4.39 82.1 0 1-.53-.41q.17-1.92-.51-3.87-.2-.56.32-.87l1.51-.9q.53-.31.15-.78-.28-.35-.31-.83a1.3 1.3 0 0 1 .29-.87l1.34-1.67q.34-.41.17-.92-.21-.66-.65-1.22-.38-.49-.12-1.05.35-.75.57-1.53.55-1.93 1.27-.06.6 1.56 2.19 2.23a1.61 1.59-4.2 0 1 .75.64q1.07 1.73 1.13 3.77c.04 1.21.86 2.37 2.08 2.6a.5.5 0 0 0 .52-.75q-.68-1.13.38-1.86a.8.8 0 0 1 .95.02q1.05.81 2.08-.06.5-.43 1.02-.02 1.36 1.04.7 2.71-.8 2-.75 4.11.01.33.29.5.15.08.32.04.39-.1.36-.51-.03-.24.07-.45.52-1.14.82.08.33 1.37 1.85 1.15 1.87-.26 1.07 1.45-.81 1.71-1.36 3.71-.19.7.46.37 1.12-.57 2.73.71.47.38.42.99-.17 1.95-.91 3.95-.75 2.04 1.21 1.13c1.69-.78 3.78.14 3.58 2.12q-.13 1.18-.86 2.59-.29.57.31.78l.4.14a.77.77 0 0 0 1-.55l.36-1.53a1.29 1.28 78.9 0 1 .5-.75q1.9-1.39 3.7-.65.53.22.62-.35.29-1.98-.51-3.46-.37-.69.41-.76.66-.06 1.04-.59a.7.69-64.2 0 0-.37-1.08q-1.42-.42-1.88-1.8-.07-.23-.31-.25-.05-.01-.09.02-.23.13-.18.38.11.71-.39 1.1-.45.35-.59-.21-.39-1.62.31-3.19.33-.75.13-1.49a.56.56 0 0 1 .32-.66q2.2-.98 2.31-3.52a.71.71 0 0 1 .89-.65q1.7.46 2.12 2.58.03.11.14.14l.35.06q.36.07.32-.29-.15-1.51.75-2.82.26-.39.68-.48.58-.13.63.47l.05.57q.11 1.39.68.12.63-1.41 1.77-2.35a1.11 1.11 0 0 0 .38-1.04q-.12-.68-.52-1.27a1.1 1.09 44.2 0 1-.02-1.21l2.58-4.09a.5.49 47.5 0 1 .86.04q1.19 2.29 1.33 4.6.03.55.56.43 1.4-.33 2.56 1.45.37.57.18 1.21-.44 1.48.79 2.63a1.49 1.48 29.8 0 1 .42 1.51q-.59 2 .18 4.11a1.67 1.64 47.8 0 1-.05 1.25q-.57 1.28.51 2.17a1.03.97 66.3 0 0 .54.23q.44.05.75.33.56.5.15 1.13-.83 1.29-.74 2.71.05.84.78.41 1.8-1.05 3.75-1.25.46-.05.49-.52.05-.99.46-2.01.25-.63-.25-1.08-1.94-1.75.04-3.51a1.85 1.83 75 0 0 .58-1.02l.32-1.54q.1-.53.64-.58 1.14-.1 1.27 1.1.1.94.75.24 1.33-1.44 3.37-1.57a.75.74 87.6 0 0 .7-.77q-.02-.63-.4-1.15t.09-.96q1.17-1.09 1.58-2.7.02-.08.08-.12.17-.12.4-.09a.34.34 0 0 1 .31.33l.04 2.52q0 .52.47.77.74.39 1.6.42.46.01.64.43 1.24 2.91 1.04 5.65-.04.63.31 1.15.54.81.45 1.74-.05.47.12.91l1.61 4.16q.18.47.65.29 1.54-.6 3.1-.09.47.16.32-.32-.39-1.24.41-2.36.44-.62-.02-1.23l-1.16-1.51a1.62 1.62 0 0 1 .18-2.16q1.79-1.68 3.99-2.67a3.08 3.02 71.1 0 0 1.69-3.54q-.2-.81.14-1.62.35-.82 1.2-.55 1.02.31 1.99-.22.52-.29.9.16.42.48.45 1.16.02.5.3.87.14.19.33.07.63-.39 1.03.24 1.17 1.88 2.49 3.78.36.51.97.6.25.04.41.25a1.55 1.54 25.7 0 1 .3.85q.04 1.48 1.26 2.53.41.36.4-.19 0-.26-.13-.48-.32-.57.18-.98 1.14-.92 1.53-2.31.17-.64.79-.41l.34.12q.99.37.57-.61-.48-1.12-1.4-1.95-.63-.55.01-1.09.15-.13.11-.36-.12-.58-.65-.33l-1.17.56a.54.54 0 0 1-.72-.26q-.57-1.18-.4-2.35.41-2.92 1.79-5.76c.75-1.56.39-2.76-.15-4.28q-.58-1.65.83-2.5c.92-.57 2.08-1.42 3.16-1.01q.68.25.71-.47.01-.31.22-.54.62-.69.89.2l.12.4q.3 1 .68.03.22-.56.19-1.16-.05-1.1.86-.5.56.37 1.2.44.96.11.43-.7-1.3-2-.99-3.8a.41.41 0 0 0-.42-.48q-1.36.06-2.56.66a.75.74-33.5 0 1-.91-.18q-1-1.17-.16-2.48a.76.76 0 0 0-.08-.92q-.7-.76-1.71-1.1-.43-.15-.54-.6-.75-3.06 1.07-5.22a.95.95 0 0 0 .19-.86q-.2-.71.04-1.4a1.1 1.08-55.5 0 0-.18-1.03l-.22-.27q-.52-.63-.85.11l-.17.38q-.24.52-.78.7l-2.69.89q-.73.24-.65-.51.1-1.12-.01-2.24-.09-.94-1.03-.92-.5.01-.68.47-.34.84-.29 1.79.04.79-.69.5-.19-.07-.33-.22a.55.55 0 0 0-.94.35q-.15 1.97.73 3.52.33.58-.26.9l-2.66 1.44q-.71.38-.67-.42.15-2.8-2.71-3.48-.69-.16-.38-.8l1.51-3.1q.27-.54-.3-.76l-.56-.23q-.5-.19-.55-.72l-.25-2.41q-.08-.8-.76-.39l-.45.26q-.51.29-.56-.29-.14-1.43-.81-2.69-.27-.52.31-.57 1.06-.09 1.38-1.06a1.16 1.16 0 0 1 .89-.79q2.25-.45 3.74-2.31.37-.46-.05-.88-.84-.81-1.85-1.07-.78-.2-.28-.82.9-1.11.09-2.22-.47-.65.31-.85l.46-.11q.66-.16.65-.84l-.02-4.78c4.29 2.46 5.86-.66 7.51-3.9q.77-1.49 2.8-2.87l.91.84q.52.48.89-.12.13-.21.35-.23.43-.03.71.29l1.16 1.33q.31.35.44-.09.11-.36-.25-.42a.44.44 0 0 1-.37-.37q-.12-.77 1.37-1.92 2.84 1.35 5.74 1.44 2.3.07 4.48-.89 6.12-2.68 13.85-1.75 2.53.3 4.97-1.03 2.93-1.61 5.17.62.38.38.89.54zm.66 18.09q.19-.14.11-.33-.09-.2-.21-.02-.09.13-.05.29a.1.09 66.2 0 0 .15.06m69.61 37.76q-.25.52-.07 1.05a.51.51 0 0 0 .94.05q.28-.58-.12-1.16-.42-.61-.75.06m-79.61 114.18a.24.24 0 0 0-.24-.24.24.24 0 0 0-.24.24.24.24 0 0 0 .24.24.24.24 0 0 0 .24-.24"/><path fill="#9a36a1" d="M181.44 69.89q-1.49 1.15-1.37 1.92a.44.44 0 0 0 .37.37q.36.06.25.42-.13.44-.44.09l-1.16-1.33q-.28-.32-.71-.29-.22.02-.35.23-.37.6-.89.12l-.91-.84q1.86-1.02 5.21-.69M231.37 73.32q-.63 1.94-.22 4.12.15.78.66.19.3-.34.24-.78-.09-.74.62-.5.52.19.82.72.27.49-.07.93-.2.25-.13.57.09.46.4.79l.71.78q.48.52-.19.76-.7.24-1.25.68-.39.32-.45.82l-.26 2.47q-.05.52.2.97.39.72.43 1.52.05.92-.62.28l-3.32-3.14a.63.63 0 0 0-1.02.24l-.15.39a.48.48 0 0 1-.6.29q-1.47-.47-1.93 1.19-.37 1.34-.49 2.68-.02.23-.2.36-.18.14-.32.06-.31-.18-.32-.54-.03-.77-.69-1.24a1.07 1.06-67.4 0 1-.43-1.06l.93-4.99q.1-.52-.27-.9-.5-.51.07-1.07.51-.5-.19-.62-.2-.04-.31.11-.41.59-.97.13-.77-.64-1.02-1.59-.4-1.51-1.28-.22-.39.57-.95.95-.78.52-.73-.42.25-4.7 3.79-7.73zM242.19 72.04l-.31 1.18q-.15.56-.65.28-.72-.4-1.2-1.47zM165.92 77.35l.02 4.78q.01.68-.65.84l-.46.11q-.78.2-.31.85.81 1.11-.09 2.22-.5.62.28.82 1.01.26 1.85 1.07.42.42.05.88-1.49 1.86-3.74 2.31a1.16 1.16 0 0 0-.89.79q-.32.97-1.38 1.06-.58.05-.31.57.67 1.26.81 2.69.05.58.56.29l.45-.26q.68-.41.76.39l.25 2.41q.05.53.55.72l.56.23q.57.22.3.76l-1.51 3.1q-.31.64.38.8 2.86.68 2.71 3.48-.04.8.67.42l2.66-1.44q.59-.32.26-.9-.88-1.55-.73-3.52a.55.55 0 0 1 .94-.35q.14.15.33.22.73.29.69-.5-.05-.95.29-1.79.18-.46.68-.47.94-.02 1.03.92.11 1.12.01 2.24-.08.75.65.51l2.69-.89q.54-.18.78-.7l.17-.38q.33-.74.85-.11l.22.27a1.1 1.08-55.5 0 1 .18 1.03q-.24.69-.04 1.4a.95.95 0 0 1-.19.86q-1.82 2.16-1.07 5.22.11.45.54.6 1.01.34 1.71 1.1a.76.76 0 0 1 .08.92q-.84 1.31.16 2.48a.75.74-33.5 0 0 .91.18q1.2-.6 2.56-.66a.41.41 0 0 1 .42.48q-.31 1.8.99 3.8.53.81-.43.7-.64-.07-1.2-.44-.91-.6-.86.5.03.6-.19 1.16-.38.97-.68-.03l-.12-.4q-.27-.89-.89-.2-.21.23-.22.54-.03.72-.71.47c-1.08-.41-2.24.44-3.16 1.01q-1.41.85-.83 2.5c.54 1.52.9 2.72.15 4.28q-1.38 2.84-1.79 5.76-.17 1.17.4 2.35a.54.54 0 0 0 .72.26l1.17-.56q.53-.25.65.33.04.23-.11.36-.64.54-.01 1.09.92.83 1.4 1.95.42.98-.57.61l-.34-.12q-.62-.23-.79.41-.39 1.39-1.53 2.31-.5.41-.18.98.13.22.13.48.01.55-.4.19-1.22-1.05-1.26-2.53a1.55 1.54 25.7 0 0-.3-.85q-.16-.21-.41-.25-.61-.09-.97-.6-1.32-1.9-2.49-3.78-.4-.63-1.03-.24-.19.12-.33-.07-.28-.37-.3-.87-.03-.68-.45-1.16-.38-.45-.9-.16-.97.53-1.99.22-.85-.27-1.2.55-.34.81-.14 1.62a3.08 3.02 71.1 0 1-1.69 3.54q-2.2.99-3.99 2.67a1.62 1.62 0 0 0-.18 2.16l1.16 1.51q.46.61.02 1.23-.8 1.12-.41 2.36.15.48-.32.32-1.56-.51-3.1.09-.47.18-.65-.29l-1.61-4.16q-.17-.44-.12-.91.09-.93-.45-1.74-.35-.52-.31-1.15.2-2.74-1.04-5.65-.18-.42-.64-.43-.86-.03-1.6-.42-.47-.25-.47-.77l-.04-2.52a.34.34 0 0 0-.31-.33q-.23-.03-.4.09-.06.04-.08.12-.41 1.61-1.58 2.7-.47.44-.09.96t.4 1.15a.75.74 87.6 0 1-.7.77q-2.04.13-3.37 1.57-.65.7-.75-.24-.13-1.2-1.27-1.1-.54.05-.64.58l-.32 1.54a1.85 1.83 75 0 1-.58 1.02q-1.98 1.76-.04 3.51.5.45.25 1.08-.41 1.02-.46 2.01-.03.47-.49.52-1.95.2-3.75 1.25-.73.43-.78-.41-.09-1.42.74-2.71.41-.63-.15-1.13-.31-.28-.75-.33a1.03.97 66.3 0 1-.54-.23q-1.08-.89-.51-2.17a1.67 1.64 47.8 0 0 .05-1.25q-.77-2.11-.18-4.11a1.49 1.48 29.8 0 0-.42-1.51q-1.23-1.15-.79-2.63.19-.64-.18-1.21-1.16-1.78-2.56-1.45-.53.12-.56-.43-.14-2.31-1.33-4.6a.5.49 47.5 0 0-.86-.04l-2.58 4.09a1.1 1.09 44.2 0 0 .02 1.21q.4.59.52 1.27a1.11 1.11 0 0 1-.38 1.04q-1.14.94-1.77 2.35-.57 1.27-.68-.12l-.05-.57q-.05-.6-.63-.47-.42.09-.68.48-.9 1.31-.75 2.82.04.36-.32.29l-.35-.06q-.11-.03-.14-.14-.42-2.12-2.12-2.58a.71.71 0 0 0-.89.65q-.11 2.54-2.31 3.52a.56.56 0 0 0-.32.66q.2.74-.13 1.49-.7 1.57-.31 3.19.14.56.59.21.5-.39.39-1.1-.05-.25.18-.38.04-.03.09-.02.24.02.31.25.46 1.38 1.88 1.8a.7.69-64.2 0 1 .37 1.08q-.38.53-1.04.59-.78.07-.41.76.8 1.48.51 3.46-.09.57-.62.35-1.8-.74-3.7.65a1.29 1.28 78.9 0 0-.5.75l-.36 1.53a.77.77 0 0 1-1 .55l-.4-.14q-.6-.21-.31-.78.73-1.41.86-2.59c.2-1.98-1.89-2.9-3.58-2.12q-1.96.91-1.21-1.13.74-2 .91-3.95.05-.61-.42-.99-1.61-1.28-2.73-.71-.65.33-.46-.37.55-2 1.36-3.71.8-1.71-1.07-1.45-1.52.22-1.85-1.15-.3-1.22-.82-.08-.1.21-.07.45.03.41-.36.51-.17.04-.32-.04-.28-.17-.29-.5-.05-2.11.75-4.11.66-1.67-.7-2.71-.52-.41-1.02.02-1.03.87-2.08.06a.8.8 0 0 0-.95-.02q-1.06.73-.38 1.86a.5.5 0 0 1-.52.75c-1.22-.23-2.04-1.39-2.08-2.6q-.06-2.04-1.13-3.77a1.61 1.59-4.2 0 0-.75-.64q-1.59-.67-2.19-2.23-.72-1.87-1.27.06-.22.78-.57 1.53-.26.56.12 1.05.44.56.65 1.22.17.51-.17.92l-1.34 1.67a1.3 1.3 0 0 0-.29.87q.03.48.31.83.38.47-.15.78l-1.51.9q-.52.31-.32.87.68 1.95.51 3.87a.4.39 82.1 0 0 .53.41q.49-.19.45-.71-.1-1.21 1-.69.68.31.83 1.02.82 3.8-2.2 6-.41.3-.49.79l-.5 3q-1.01-2.25-1.85-4.47c-1.36-3.64-.92-7.71-.84-11.46q.02-.6.35-1.1 4.21-6.33 7.63-12.9c3.06-5.87 7.08-9.32 13.37-10.81q12.08-2.86 26.07-6.59c12.96-3.45 22.74-9.43 24.68-23.87q.07-.5.43-.85c5.2-5.23 10.49-1.94 15.53 1.15M299.41 109.05l.86 4.13q.1.49.55.72.52.27 1.08.34l.45 1.74q-.06.75-.24 1.22a.59.59 0 0 1-.78.33l-4.09-1.68q-.47-.2-.8.19-.67.8-.15 1.78.41.78-.18 1.43l-1.72 1.95q-.43.47-.17 1.06l1.4 3.2q.22.51-.34.56-1.73.14-3.56-1.11-.47-.32-.19-.82.29-.52-.04-1.04-1.04-1.59-.85-3.31.08-.72-.63-.87-.53-.11-.98-.41-.57-.37-1.02.13-.13.15-.12.35a.57.57 0 0 1-.32.56q-.33.16-.64-.09a.66.65 43.4 0 0-.82.02q-1.13.98-2.36.07-.8-.6-.61.39.12.66.48 1.28.39.67.06 1.37l-.83 1.8q-.47 1-.76-.07-.3-1.1-1.39-1.38-.62-.16-.21-.66.39-.48.13-1.03-.22-.46-.14-.95.72-4.72.21-9.75-.06-.64-.7-.59-1.42.1-2.63.89-.46.31-.87-.05-.42-.37-.51-.92a.87.87 0 0 0-.83-.72l-2.4-.08q-.74-.03-.4.63.91 1.78-.52 3.71-.46.61-.77-.09-.53-1.2-1.33-2.18a1.07 1.07 0 0 1-.16-1.05q.38-.97.04-2.01-.16-.49-.02-.99l1.78-6.04q.15-.51-.02-1.03l-.67-1.99a1.14 1.04 42.5 0 1-.04-.46l.42-2.71q.1-.65-.54-.8-.75-.18-1.53-.07-.48.07-.76.46-.27.37-.34.82a.82.82 0 0 1-1.06.65q-3.17-1-4.04-3.2-.19-.48-.68-.31-.62.21-1.24 0-.64-.23-1.13.24-.46.45-.6 1.06-.12.47.13.88.68 1.13.75 2.44a.9.89 81 0 1-.65.9q-1.63.47-1.44 2.34.05.42-.38.44l-.34.02q-.22.01-.21-.21l.07-2.59a.71.71 0 0 0-.66-.73l-2.48-.18a.54.54 0 0 1-.4-.85q1.45-2.11.42-4.68-.21-.51.1-.98 1.17-1.8.81-4.19-.08-.51.21-.94 1.65-2.44.39-5.29 3.41 1.68 10.49 3.04 6.73 1.29 13.61 2.37c2.45.39 4.61 2.17 4.45 4.83q-.28 4.49 1.2 9.24 1.25 4.05 5.72 5.7 4.84 1.78 8.48 3.82M222.52 88.61a.1.09 66.2 0 1-.15-.06q-.04-.16.05-.29.12-.18.21.02.08.19-.11.33"/><path d="M301.9 114.24q-.56-.07-1.08-.34-.45-.23-.55-.72l-.86-4.13q3.2 1 2.49 5.19"/><path fill="#9a36a1" d="M292.13 126.37q.33-.67.75-.06.4.58.12 1.16a.51.51 0 0 1-.94-.05q-.18-.53.07-1.05M289.48 252.45q-1.13 6.62.36 13.18 1.02 4.46-3.01 6.7-13.31 7.38-26.79 16.71-8.91 6.16-20.08 12.16-9.85 5.3-20.24 8.87.28-1.59-.88-3.46-.21-.32-.59-.28-.16.02-.26.15-.46.58-.97.05-.17-.17-.28-.38-.22-.4-.15-.86.35-2.31.67-4.52.09-.61.66-.89.09-.04.19-.05.86-.11.36-.82-.76-1.08.11-2.14.55-.66-.3-.8-1.1-.18-1.85-1.06-.4-.46-.03-.94 1.46-1.89 3.64-2.2.53-.07.82-.53.59-.94 1.59-1.49a.5.5 0 0 0 .15-.76q-.82-1.01-.78-2.31a.45.45 0 0 0-.71-.38l-.23.15q-.78.56-.82-.41-.05-1.12-.2-2.18-.07-.5-.44-.86-.15-.14-.35-.17-.78-.13-.47-.86l1.28-3.06a.6.6 0 0 0-.38-.8q-2.83-.87-2.63-3.61.06-.76-.59-.37l-2.65 1.58q-.51.3-.24.83.77 1.55.69 3.56a.49.49 0 0 1-.73.41l-.47-.25q-.81-.45-.74.47.06.81-.23 1.56-.31.78-1.14.64a.86.86 0 0 1-.73-.83l-.08-2.5a.46.45-15.1 0 0-.67-.38q-1.17.65-2.45.82-.62.08-.87.66l-.24.57q-.27.64-.82.23-.17-.13-.29-.3-.43-.58-.14-1.25.27-.6.07-1.25-.16-.5.18-.9 1.68-1.96 1.18-4.99-.08-.49-.52-.74l-1.63-.93a.82.82 0 0 1-.31-1.13q.88-1.49-.4-2.6-.48-.42-1-.06-.83.57-1.84.58-.71.01-.68-.7.08-1.32-.61-2.29l.53-1.01q1.25.13 1.7-1.31.22-.69.81-.28.69.47 1.03-.32.26-.6.91-.61 1.58-.04 2.96-.91a2.33 2.32 61.8 0 0 .87-2.9c-.52-1.19-.88-2.35-.23-3.61q1.55-3.02 1.82-6.17.11-1.33-.72-2.56-.34-.51-.68.01-.24.37-.66.46-.91.22-.52-.63.34-.74-.27-1.28a1.18 1.16-58.9 0 1-.31-1.28q.8-2.17 2.32-3.85.34-.38.01-.77-.22-.26-.2-.62.04-.64.5-.19 1.01 1.02 1.37 2.48a.6.54-73.3 0 0 .11.23l4.3 5.48q.1.13.25.18.14.05.29.06.54.04.73.55l.45 1.22a.71.71 0 0 0 1 .38q.93-.49 1.91-.2.62.19 1.08-.28.77-.77.39-1.8a2.85 2.83-23.4 0 1 1.4-3.51q2.32-1.17 4.23-2.63a1.64 1.63 44 0 0-.05-2.62q-1.76-1.27-.69-3.1.31-.53.35-1.14.02-.42-.23-.64-.57-.5.14-.22 1.55.61 3.13-.18.6-.3.85.32 2.05 5.11 2.41 8.42.28 2.62.88 4.96a.91.91 0 0 0 .81.68q.84.06 1.57.38.43.19.44.67.02 1.12.18 2.26.23 1.66.81.09.51-1.37 1.55-2.27a.7.7 0 0 0 .07-.99q-.37-.42-.46-.96-.13-.77.65-.86 2.04-.21 3.44-1.63.68-.68.78.27.13 1.23 1.31 1.15a.66.66 0 0 0 .61-.61q.14-2.13 1.77-3.64a.93.92-34.8 0 0 .2-1.08q-.42-.82-1.13-1.42a.9.89-57.8 0 1-.23-1.04q.41-.93.49-1.97.05-.62.67-.66 2.03-.17 3.74-1.18.52-.31.61.29.24 1.6-.74 2.91a.79.78 30.7 0 0 .31 1.19q.81.37 1.45 1 .44.44.34 1.07-.32 1.91.25 3.78a2.07 2.04 47.3 0 1-.04 1.28q-.63 1.67.74 3.02a1.75 1.74 23.7 0 1 .51 1.3q-.02.54-.27 1.03-.28.56.23.91.66.45 1.08 1.12.31.48.88.38.18-.04.35-.13.61-.36.69.34.32 2.69 1.61 5a.29.29 0 0 0 .49.02l2.76-4.36q.34-.54.07-1.11l-.48-1.02a.84.84 0 0 1 .07-.84l2.04-2.95q.36-.53.61.06.06.13.08.27.25 1.46 1.23.35.83-.95.82-2.33-.01-.28.13-.52.17-.3.35-.25.22.05.27.28.23 1.19 1.07 2.05.61.63 1.38.36a.94.93 81.5 0 0 .63-.86q.04-2.18 1.95-2.92.55-.21.63-.79l.61-4.45q.13-.99-.75-.52-.51.27-.35.88.2.71-.49.45-.32-.11-.27-.53a.6.58 24.7 0 0-.2-.52q-.74-.64-1.66-1a.62.61 24.2 0 1-.32-.84q.35-.7 1.15-.83.49-.07.52-.57.02-.29-.29-.42a.59.59 0 0 1-.37-.55l-.01-2.44q-.01-.59.57-.44 3.91 1 4.64-2.81.13-.7.84-.74l.27-.01q.59-.03.58.55-.01.87-.46 1.71c-1.25 2.35.5 4.55 2.97 3.49q2.43-1.05 1.35 1.39-.84 1.89-.81 3.7.01.7.63 1.03l1.96 1.06a.2.2 0 0 0 .27-.07l.18-.31q.11-.18.31-.22.27-.06.36.11.05.11 0 .21-.11.23-.31.38-.35.26-.34.7 0 1.62-.88 3.01a.88.88 0 0 0 .9 1.34q1.9-.35 2.11 1.46a.34.34 0 0 0 .58.2q.4-.41.26-1.03-.08-.38.31-.35l.35.03q.14.01.16.16.27 2.03-.55 4.37-.59 1.71.63 2.71.39.32.83.07.85-.48 1.74-.2"/><circle cx="212.28" cy="240.55" r=".24" fill="#9a36a1"/><path fill="#9a36a1" d="m205.12 242.67-.09-1.13q.38-.27.48-.02.43 1.08-.39 1.15"/><path d="M198.92 265.04q.69.97.61 2.29-.03.71.68.7 1.01-.01 1.84-.58.52-.36 1 .06 1.28 1.11.4 2.6a.82.82 0 0 0 .31 1.13l1.63.93q.44.25.52.74.5 3.03-1.18 4.99-.34.4-.18.9.2.65-.07 1.25-.29.67.14 1.25.12.17.29.3.55.41.82-.23l.24-.57q.25-.58.87-.66 1.28-.17 2.45-.82a.46.45-15.1 0 1 .67.38l.08 2.5a.86.86 0 0 0 .73.83q.83.14 1.14-.64.29-.75.23-1.56-.07-.92.74-.47l.47.25a.49.49 0 0 0 .73-.41q.08-2.01-.69-3.56-.27-.53.24-.83l2.65-1.58q.65-.39.59.37-.2 2.74 2.63 3.61a.6.6 0 0 1 .38.8l-1.28 3.06q-.31.73.47.86.2.03.35.17.37.36.44.86.15 1.06.2 2.18.04.97.82.41l.23-.15a.45.45 0 0 1 .71.38q-.04 1.3.78 2.31a.5.5 0 0 1-.15.76q-1 .55-1.59 1.49-.29.46-.82.53-2.18.31-3.64 2.2-.37.48.03.94.75.88 1.85 1.06.85.14.3.8-.87 1.06-.11 2.14.5.71-.36.82-.1.01-.19.05-.57.28-.66.89-.32 2.21-.67 4.52-.07.46.15.86.11.21.28.38.51.53.97-.05.1-.13.26-.15.38-.04.59.28 1.16 1.87.88 3.46l-10.54 3.19q.02-.76-.23-1.41-.21-.58-.76-.3-1.17.59-2.32-.03a.85.84-41.7 0 0-.72-.04q-1.47.57-2.28-.99-.29-.56-.56.01-.11.24.05.35.46.32.28.85l-1.06 3.07-7.5.13q-.63.01-.94-.54-1-1.75-2.16-3.65c-1.3-2.13-1.13-4.92-.44-7.11q5.71-18.03 7.65-36.84c.06-.59.48-1.18.73-1.72"/><path fill="#9a36a1" d="M209.18 313.26q-3.05 2.3-7.6 1.51l1.06-3.07q.18-.53-.28-.85-.16-.11-.05-.35.27-.57.56-.01.81 1.56 2.28.99a.85.84-41.7 0 1 .72.04q1.15.62 2.32.03.55-.28.76.3.25.65.23 1.41"/></svg>