<svg xmlns="http://www.w3.org/2000/svg" viewBox="0 0 382 382"><defs><clipPath id="a"><path d="M206.44 314.67h-12.95c-1.21-2.51-3.68-5.19-3.38-7.49.75-5.57 2.98-10.93 4.26-16.45 1.32-5.69 2.27-11.47 3.26-17.23.45-2.59 0-5.5 1.03-7.79 1.44-3.23 4.06-5.91 5.79-9.04.92-1.65 1.56-3.78 1.43-5.63-.52-7.52-1.58-15.01-2.06-22.53-.5-7.85-4.73-14.92-12.25-16.61-7.27-1.63-14.94-2.3-22.38-1.99-5.67.24-10.44-.05-14.85-3.97-4.27-3.81-9.03-7.07-13.42-10.76-10.97-9.21-23.3-14.58-37.79-15.62-13.59-.97-23.89-11.32-22.18-27.83.35-3.39-1.96-7.06-3.05-10.6v-8.98c2.87-4.82 6.05-9.49 8.52-14.51 2.88-5.83 7.45-8.74 13.57-10.16 9.19-2.13 18.35-4.43 27.43-6.98 11.92-3.35 20.95-9.71 22.65-23.23.12-.97 1.37-2.05 2.36-2.6 5.11-2.85 9.16.46 13.25 2.7 3.34 1.83 5.3 1.31 7.01-2.2 2.7-5.54 6.16-6.44 11.54-4.15 1.78.76 4.49 1 6.09.17 5.44-2.82 11-2.87 16.83-2.25 1.35.14 2.85-1.04 4.28-1.61h2.99c.54.52.99 1.31 1.63 1.51 5.05 1.63 10.13 3.21 15.24 4.64.82.23 1.86-.51 2.81-.58 3.67-.27 7.73-1.53 10.93-.39 3.66 1.3 6.42 4.96 9.83 7.21 2.03 1.34 4.48 2.32 6.87 2.81 5.88 1.22 11.85 2.03 17.76 3.08 3.22.57 4.62 2.39 4.46 5.87-.12 2.71.25 5.59 1.09 8.16 2.07 6.3 8.55 6.38 13.31 8.91 1.21.64 3.07 1.46 3.22 2.42.65 4.02 1.13 8.15.98 12.21-.15 4.04-1.57 8.05-1.56 12.07 0 1.96 2.01 3.91 3.1 5.87v22.94c-.77 4.18-1.59 8.36-2.3 12.55-1.89 11.1-3.76 22.2-5.6 33.31-1.17 7.08-2.2 14.17-3.41 21.24-.71 4.18-1.82 8.29-2.44 12.48-.7 4.73-1.27 9.5-1.46 14.27-.12 2.91.57 5.85.94 8.77.33 2.58-.56 4.1-3.01 5.47-6.85 3.82-13.69 7.76-20.12 12.23-17.42 12.11-35.35 23.07-56.19 28.34-1.42.36-2.71 1.27-4.06 1.93z"/></clipPath></defs><g clip-path="url(#a)"><svg xmlns="http://www.w3.org/2000/svg" width="382" height="382" style="shape-rendering:geometricPrecision"><path fill="#55e2e3" stroke="#55e2e3" d="m180.304 289.905-32.4 37.699-10.544 5.92-4.746-59.102 2.802-21.766 13.71-2.479 33.08 5.168zM289.944 382l23.47-44.19 10.469 3.52L369.461 382zM272.37 147.251l-10.706-19.339 8.306-25.345 30.599 10.563 1.425.665-9.949 31.67z"/><path fill="#156c37" stroke="#156c37" d="m236.582 284.375 32.049 16.513-13.703 20.331-42.326-2.514-8.149-23.304zM382 290.053l-60.24-21.63 1.498-6.97 37.266-38.474L382 214.77z"/><path fill="#55e2e3" stroke="#55e2e3" d="m251.615 224.995 1.454.629 9.713 29.79 12.216 43.002-6.367 2.472-32.05-16.513-25.599-47.085zM256.846 207.826l1.348-36.75 20.684 9.87zM253.187 166.744l-23.636-3.024 1.434-19.37 30.68-16.438 10.706 19.339z"/><path fill="#156c37" stroke="#156c37" d="m183.442 187.57-23.278-.287-17.515-23.954-2.646-11.372 11.179-24.727 30.512 6.994 8.137 45.723zM355.69 0l-22.725 83.958-40.178-20.996-11.617-8.825L339.486 0z"/><path fill="#156c37" stroke="#156c37" d="m251.501 223.57.114 1.425-40.633 12.295-8.69-2.305-18.85-47.415 6.389-7.623 37.044-13.91z"/><path fill="#55e2e3" stroke="#55e2e3" d="m226.875 166.038-37.044 13.91-8.137-45.724 6.03-9.645 33.423-9.488 9.838 29.26-1.434 19.369z"/><path fill="#156c37" stroke="#156c37" d="m181.694 134.224-30.512-6.994-10.327-23.714 5.434-10.494 27.223-3.613 14.212 35.17z"/><path fill="#55e2e3" stroke="#55e2e3" d="M70.042 149.557 0 167.252v-18.861l8.2-13.911 46.777-23.085 17.97 6.25zM262.782 255.415l37.418-20.682 23.058 26.72-1.499 6.97-4.285 6.51-25.748 23.047-16.728.436zM116.944 111.825l-35.431-4.72.88-27.516 35.257-47.16 28.64 60.593-5.435 10.494z"/><path fill="#156c37" stroke="#156c37" d="m204.453 295.401 8.15 23.304-7.553 7.987-36.99 2.859-20.156-1.947 32.4-37.7z"/><path fill="#55e2e3" stroke="#55e2e3" d="m251.501 223.57-24.626-57.532 2.676-2.318 23.636 3.024 5.007 4.332-1.348 36.75zM292.045 145.466l9.949-31.67 34.234-7.833 38.564 27.462-67.872 42.181z"/><path fill="#156c37" stroke="#156c37" d="M382 382h-12.54l-45.577-40.67 35.087-22.725 23.03 3.174zM70.205 269.453l-9.486 27.091L0 249.786v-42.56l46.975 11.847 19.59 15.565z"/><path fill="#55e2e3" stroke="#55e2e3" d="m253.069 225.624 35.341-5.312 11.79 14.421-37.418 20.682zM125.42 0l-.004.025-3.563 6.392-14.785 4.735L0 32.055V0zM205.05 326.692l7.552-7.987 42.326 2.514-15.461 53.225-16.402-17.17z"/><path fill="#156c37" stroke="#156c37" d="m288.41 220.312 12.696-34.9 2.941-2.087 56.477 39.654-37.266 38.474-23.058-26.72z"/><path fill="#55e2e3" stroke="#55e2e3" d="m233.123 81.447-11.976 33.644-33.423 9.488-14.212-35.17 23.896-20.631zM382 0v135.15l-7.208-1.725-38.564-27.462-3.263-22.005L355.69 0zM88.323 219.994l-21.757 14.644-19.591-15.565 31.234-59.868.698.392 8.934 9.334 14.183 29.337zM54.977 111.395 8.2 134.48l14.398-42.762zM210.982 237.29l25.6 47.085-32.129 11.026-24.149-5.496 1.902-34.56 20.086-20.36zM158.87 188.266l-9.743 61.911-13.711 2.48-6.884-5.295-.505-1.38 3.345-44.238z"/><path fill="#156c37" stroke="#156c37" d="m291.726 297.98 25.748-23.048 41.496 43.673-35.087 22.725-10.468-3.52z"/><path fill="#55e2e3" stroke="#55e2e3" d="m137.36 333.524-.238.274L68.74 311.98l-7.633-6.551-.388-8.885 9.486-27.091.166-.045 62.243 5.014z"/><path fill="#156c37" stroke="#156c37" d="m230.985 144.35-9.838-29.259 11.976-33.644 13.187-4.732 23.66 25.852-8.306 25.345zM140.003 151.957l-18.846-9.973-4.213-30.159 23.91-8.309 10.328 23.714z"/><path fill="#55e2e3" stroke="#55e2e3" d="M117.65 32.428 82.393 79.59 40.28 60.229l66.788-49.077 14.785-4.735z"/><path fill="#156c37" stroke="#156c37" d="m0 32.055 107.068-20.903L40.28 60.23 4.344 53.728 0 50.213z"/><path fill="#55e2e3" stroke="#55e2e3" d="m0 249.786 60.719 46.758.388 8.885L0 331.015z"/><path fill="#156c37" stroke="#156c37" d="m205.05 326.692 18.015 30.583-55.004-27.724z"/><path fill="#55e2e3" stroke="#55e2e3" d="m59.823 382 8.917-70.02 68.382 21.818.497 3.86L134.776 382zM183.442 187.57l18.85 47.415-20.086 20.36-33.08-5.168 9.744-61.911 1.294-.983z"/><path fill="#156c37" stroke="#156c37" d="m72.947 117.646-17.97-6.251-32.378-19.677-18.255-37.99L40.28 60.23l42.113 19.359-.88 27.517zM301.994 113.795l-1.425-.665-7.782-50.168 40.178 20.996 3.263 22.005zM274.998 298.416l16.728-.436 21.689 39.83-23.47 44.19h-50.31l-.168-7.556 15.46-53.225 13.704-20.33z"/><path fill="#55e2e3" stroke="#55e2e3" d="m168.06 329.55 55.005 27.725 16.402 17.169.168 7.556h-.765l-101.251-44.342-.497-3.86.238-.274 10.544-5.92z"/><path fill="#156c37" stroke="#156c37" d="m134.776 382 2.843-44.342L238.87 382z"/><path fill="#55e2e3" stroke="#55e2e3" d="m227.75 0-35.89 56.85L125.416.025 125.42 0z"/><path fill="#156c37" stroke="#156c37" d="m197.408 68.778-23.896 20.631-27.223 3.613-28.639-60.594 4.203-26.01 3.563-6.393L191.86 56.85zM278.878 180.946l-20.684-9.87-5.007-4.332 19.184-19.493 19.674-1.785 14.875 30.14-2.873 7.719-2.941 2.087z"/><path fill="#55e2e3" stroke="#55e2e3" d="m269.97 102.567-23.66-25.852 10.018-17.377 24.842-5.2 11.617 8.824 7.782 50.168z"/><path fill="#156c37" stroke="#156c37" d="m158.87 188.266-27.498 13.478-29.348-3.476-14.183-29.337 54.808-5.602 17.515 23.954zM233.123 81.447l-35.715-12.67-5.548-11.927L227.75 0h13.141l15.437 59.338-10.018 17.377zM0 382v-50.985l61.107-25.586 7.633 6.551L59.823 382zM135.416 252.656l-2.802 21.766-62.243-5.014 58.161-22.046z"/><path fill="#55e2e3" stroke="#55e2e3" d="M142.65 163.33 87.84 168.93l-8.934-9.334 42.25-17.613 18.846 9.973zM78.21 159.205l-31.235 59.868L0 207.226v-39.974l70.042-17.695z"/><path fill="#156c37" stroke="#156c37" d="m128.532 247.362-58.16 22.046-.167.045-3.64-34.815 21.758-14.644 39.704 25.987zM339.486 0 281.17 54.137l-24.842 5.201L240.891 0z"/><path fill="#55e2e3" stroke="#55e2e3" d="m116.944 111.825 4.213 30.16-42.25 17.612-.698-.392-8.167-9.648 2.905-31.911 8.566-10.54z"/><path fill="#156c37" stroke="#156c37" d="M321.76 268.424 382 290.053v31.726l-23.03-3.174-41.496-43.673z"/><path fill="#55e2e3" stroke="#55e2e3" d="m0 50.213 4.344 3.515 18.255 37.99L8.2 134.48 0 148.39zM251.501 223.57l5.345-15.744 22.032-26.88 22.228 4.466-12.696 34.9-35.341 5.312-1.454-.63zM131.372 201.744l-3.345 44.237-39.704-25.987 13.7-21.726zM304.047 183.325l2.873-7.719 67.872-42.181 7.208 1.724v79.622l-21.476 8.208z"/></svg></g></svg>