<svg xmlns="http://www.w3.org/2000/svg" viewBox="0 0 382 382"><g fill="none" stroke="#10706a" stroke-width="2"><path d="M221.95 70.51q-1.56 3.36-3.4 6.5-.25.44-.19.76.08.47.54.71.45.24.92.04l1.04-.42a.68.67 69.4 0 1 .9.41l.26.79q.19.57.79.62l1.43.11q.74.05.38.7-.41.74.03 1.56.27.52.16 1.09l-1.32 7.13q-.14.74.56.46l1.25-.51q.41-.17.81.04l.29.16a.42.42 0 0 0 .61-.34q.1-1.28-.6-2.31a.92.92 0 0 1 .45-1.39l4.18-1.5q.8-.29.88.55l.16 1.77q.06.69.62.29 1-.71 1.69-1.71.24-.36.12-.77l-1.05-3.71q-.16-.58.43-.65 1.03-.13 1.71-.92.48-.55-.24-.7-1.1-.23-1.44-1.28-.15-.48-.6-.72-2.22-1.19-.94-3.94M240.98 72.08q.04.8 1.09.76.96-.03.99-.81M255.24 79.91l1.42 3.43q.2.51-.23.84-.78.6-1.72.68-.66.06-.37.66l1.36 2.83q.28.6-.3.92l-1.56.88q-1.66.94.06 1.75.18.09.39.14.51.13.6.65.41 2.66-.59 4.86-.76 1.66.87.83 2.24-1.13 2.9 1.04.23.77.57.04.55-1.2 1.68-1.63.6-.24.22-.75-.45-.6-.01-1.22.34-.49-.22-.71l-.93-.38q-.64-.25-.39-.89.23-.61.69-1.13.55-.61 1.25-.18 1.17.71 2.29-.16.62-.47.6.3-.06 2.94 4.05 3.25 1.15.08.61-.93l-.23-.43q-.3-.58.35-.59l2.64-.01q.7 0 .67.69-.03.84-.53 1.55-.35.5-.1 1.06c.5 1.14.64 2.43.28 3.63q-.25.84.1 1.61.22.49-.01.96-.29.58-.93.64a.47.47 0 0 0-.24.84q.71.54.42 1.4a.92.9 2.2 0 1-.65.59l-.58.15q-.91.23-.21.86l1.11.99a.78.78 0 0 1-.17 1.28q-1.14.6-1.34 1.79-.16.96.67.45.65-.41 1.4-.47.59-.05.72.53.21.95.09 2.02-.02.19.13.32.11.09.3.06.18-.04.26-.2 1.07-2.16.83-4.14-.07-.61.55-.62.55 0 .96-.42.9-.91.87.36-.01.76.68.96.72.21 1.45-.05 1.59-.57 3.05-.83.48-.09.52.4.36 5.02-.15 9.74-.05.47.12.91c.31.76-.68 2.09-.42 3.31q.1.48.52.22 1.32-.83 2.6.07.69.49.72-.36.05-1.81.32-3.77a1.27 1.22-66.4 0 1 2.02-.84q.45.4 1.04.28a.75.74-88.8 0 0 .59-.57q.26-1.16 1.06-2.03.39-.44.73.04 2.11 2.91 3.01 6.19.05.15.05.31-.01.16-.12.26-.54.5.17.72 1.45.45 1.18 2.25-.08.55.46.7.05.01.1-.01.68-.23.53-.94-.35-1.68 1.2-2.06.59-.15.24-.64-2.62-3.69-.05-6.38a1.58 1.58 0 0 0 .45-1.08q.01-.52.2-1.03.21-.55.8-.6l3.19-.28M289.4 252.75q-1.15-1.6-2.82-1.22-.67.16-.64-.53.06-1.77.43-3.52c.26-1.18-.11-1.86-.46-2.92q-.2-.57-.7-.23l-.63.43q-.49.33-1.03.11c-2.76-1.12-.81-3.86-.62-5.73q.14-1.34-.97-.57-.14.1-.31.15-.51.13-.58-.39-.15-1.18-1.3-1.38a.97.96 10 0 1-.78-1.11q.39-2.26 1.8-4.4.35-.53-.28-.51-.77.02-1.42.51-.47.35-.99.09-.71-.37-1.38.09-.66.45-.69-.35-.12-2.6-1.25-5.79-.15-.42-.58-.52-.86-.22-1.11.66-.24.87.49 1.44.61.48-.11.76-.22.09-.45.05a.73.73 0 0 0-.83.61l-.28 1.8q-.11.66-.69.33-.89-.5-1.9-.61-2.01-.21-.96 1.51 1.28 2.09-.24 4.13a.85.84-70.9 0 0 .65 1.35l2.41.07q.63.02.74.64.3 1.76.04 3.34a1.11 1.09 88.5 0 1-.84.9q-1.07.25-1.77 1.08-.87 1.03.21 2 .63.57-.02 1.12l-.47.4q-.54.46-1.07 0c-.78-.68-1.04-2.24-1.61-2.56q-.39-.21-.77 0-.41.22-.5.67c-.38 1.98-2.36 2.53-3.97 3.17a1.89 1.89 0 0 0-.74 2.98q1.11 1.31-.09 2.42-.64.59-1.51.73a1.02 1.01 85.9 0 0-.84.98q0 .37-.2.67-.47.72-.66-.12l-1.38-5.92q-.18-.77-.63-.12-.2.28-.18.64.02.63-.61.6-.18-.01-.28-.14-.53-.73-1 .02-.16.23-.45.3-.71.15-.33-.47.88-1.44 1.31-3.71.1-.53-.42-.68-1.06-.29-1.86-1.18-.5-.57-.14-1.24.42-.8 1.15-1.39 1.11-.9-.28-1.24-.91-.22-1.64-.84a.64.63-48.8 0 1-.06-.93l1.57-1.66a.73.73 0 0 0-.29-1.19q-3.89-1.37-1.99-5.82.15-.35-.19-.51l-.25-.11a.39.39 0 0 0-.52.18q-.85 1.7-2.65 2.54-.34.15-.67.04-.46-.16-.81-.48-.25-.23-.61-.25-.13-.01-.25.02-.78.22-.24.82 1.13 1.26.02 2.43-.34.35-.01.7.84.89 1.97 1.29a1.02 1.02 0 0 1 .21 1.83q-2.01 1.26-2.8 3.41-.28.76-.84.17-.81-.85-.93-2.08-.03-.32-.34-.41-.18-.05-.32.06-.29.24-.35.63-.1.67-.05 1.27.08.76-.64.5-1.61-.58-3.11 1.9a.42.41-75.2 0 0 .36.63l.93-.04q.28-.01.32.27.02.13-.02.26-.06.23-.27.35-1.37.85-1.63 2.52a.5.49-60.2 0 1-.87.24q-1.27-1.52-1.15-3.83.06-1.07-.8-.42-.54.41-1.22.53a.69.69 0 0 1-.79-.55q-.15-.74.41-1.3a.75.75 0 0 0 .05-1.03l-.67-.78q-.34-.4-.33-.92.05-2.02-1.12-3.73-.33-.48.12-.86l.96-.81q.55-.47-.13-.72-3.51-1.27-1.82-5.53.39-.97-.42-.31-.94.77-1.74 1.73-1.03 1.23-2.41.42-.78-.46-1.34.21-.35.41-.16.92.64 1.77.6 3.53-.02 1.19.81.34l.18-.18q.56-.57.76.2.87 3.26-1.99 4.92-.46.27-.87-.07-.6-.5-1.42-.4-.98.11-.2.72l.31.23q.75.57-.16.8-3.11.77-2.22 3.88c.27.95.11 1.8-.28 2.69a.64.64 0 0 1-1.16.04q-.89-1.76-2.41-.7-.27.19-.61.2-.32.01-.55-.2-.38-.35.08-.59.16-.08.29-.21a.47.47 0 0 0-.17-.76q-.44-.18-.86-.05-.24.07-.4.27-.16.19-.28.4-.1.17-.29.15-.16-.01-.27-.1-.57-.42.07-.73.74-.35.59-1.03-.09-.43-.49-.7-1.11-.76-2.11-1.44-.55-.38-.06-.83.5-.45.57-1.12.09-.84-.68-.48l-2.43 1.14q-.59.28-.63-.38-.12-2.04-1.56-2.58M80.47 148.67q1.51-.75 1.01-1.79-.31-.65.25-1.11.62-.52 1.44-.82.69-.25.33-.89l-.26-.44q-.43-.75.21-1.32.35-.32.83-.42.7-.14.23-.68-.84-.96-.13-2.04.46-.69.01-1.38-.15-.23-.37-.37-.59-.36-.85.27l-.33.82q-.28.67-.77.15l-.67-.71q-.42-.46-.41-1.07.04-1.58.18-3.24a.38.38 0 0 1 .55-.31l.35.18q.77.39.83-.47.14-2.1.93-3.98.35-.82-.07-1.61-.8-1.51.66-3.29.4-.48.94-.19.5.27.57.84l.21 1.69q.07.59.53.21l.31-.26q.6-.49.78.27.51 2.12 1.55 4.19a2 1.98 33.5 0 1 .22 1.06q-.09 1.3.66 2.68a.48.47-36.5 0 0 .75.11q1.29-1.24 1.1-3a.35.34 3.1 0 1 .42-.37q1.89.42 3.9-.17.52-.15.58.39.23 1.96-.31 3.92c-.3 1.12.04 1.93.38 2.99a.42.41 59.9 0 0 .67.18c.75-.67 1.82-.88 2.59-.09 1.73 1.77-.38 3.72-.28 5.69q.04.77.69.36l.35-.22q.63-.39.8.33l.09.4a1 1 0 0 0 .86.77c1.04.12 1.38 1.14 1.13 2.04q-.52 1.88-1.53 3.35-.49.72.37.59l3.63-.57q.5-.08.53.43.17 2.93 1.46 5.75.27.59.97.53.66-.06.62-.72-.07-.9-.67-1.58a.37.37 0 0 1 .25-.61q2.02-.16 1.44-2.46a.41.41 0 0 1 .65-.41q1.11.9 2.62.7a.8.8 0 0 0 .59-1.22q-1.52-2.48.06-4.64a.64.64 0 0 0-.5-1.02l-2.65-.07a.76.76 0 0 1-.74-.78l.09-3.32q.01-.45.4-.67l1.98-1.13q.54-.3.49-.93-.05-.77-.58-1.36-.55-.62.13-1.08l.43-.29q.82-.56 1.36.27.36.53.56 1.11.94 2.65 2.15.11c.8-1.65 2.5-2.31 4.1-2.96a1.58 1.58 0 0 0 .58-2.52q-.98-1.09-.4-2.18c.7-1.31 2.33-.89 2.76-2.5q.39-1.45.83-.02.88 2.9 1.27 5.94.04.28.31.19l.32-.1q.27-.09.21-.36-.18-.87.6-1.19.22-.09.32.13.12.26.5.2.4-.06.68-.36.11-.11.27-.13.65-.1.37.5-.83 1.82-1.36 3.84-.13.51.39.59 1.63.27 2.2 1.78a.94.94 0 0 1-.23 1.01l-1.41 1.32a.45.45 0 0 0 .21.76q1.22.28 2.06 1.1.42.41.01.84l-1.47 1.55a.79.79 0 0 0 .3 1.28q4.04 1.53 1.9 5.88-.2.41.26.45l.46.04a.44.43-74.8 0 0 .42-.25q.8-1.71 2.81-2.39.49-.16.85.19.55.53 1.3.37.56-.13.19-.57-1.01-1.17-.14-2.46a.86.85 43.1 0 0-.04-1q-.64-.83-1.68-1.01a.98.98 0 0 1-.44-1.74q1.94-1.55 2.89-3.62.26-.57.73-.16.97.84 1.11 2.26.02.24.26.24l.29.01q.26 0 .28-.26l.14-1.93q.06-.72.66-.32l.29.19a.8.8 0 0 0 1-.1l1.74-1.7q.23-.23.1-.53-.23-.56-.79-.33-.38.16-.64-.15-.39-.46.12-.77 1.3-.78 1.53-2.37.09-.64.69-.38c1.37.6 1.35 2.74 1.33 3.99q-.01.79.68.41.45-.25.95-.44.41-.15.81-.02.57.19.29 1.23a1.1 1.1 0 0 1-.2.4q-.77.92.31 1.63.55.35.52 1-.08 1.87 1.13 3.76.31.5-.1.91l-1.04 1.05q-.51.52.2.7 3.49.88 1.89 5.34-.5 1.38.52.32l2-2.09q.4-.43.98-.34.57.09 1.06.44a.76.76 0 0 0 .97-.06l.21-.19q.33-.31.24-.76l-.78-3.99q-.12-.6-.6-.21l-.28.22q-.65.53-.78-.31-.43-3.03 1.92-4.76.36-.27.78-.1c.46.19.76.54 1.28.6q.24.03.43-.09.57-.33.09-.79-.19-.18-.25-.43-.11-.44.34-.51c1.68-.24 2.85-1.94 2.09-3.56q-.73-1.57.49-3.19.31-.4.66-.03l.84.88a1.18 1.17 50.9 0 0 1.51.16q.65-.45 1.38-.27.6.16.16.6l-.36.37q-.49.49.15.74.94.36 1.52-.58a.4.4 0 0 1 .73.12q.08.33-.23.53a1.22 1.18 35.5 0 0 .4 2.17q2.57.66 1.18 2.81-.75 1.15.55.7 1.37-.48 2.58-1.34.74-.53.67.38c-.1 1.34.76 3.54 2.44 3.37q.48-.05.28-.5-.98-2.14-.54-4.81.09-.53.6-.71 1.07-.36 1.88-1.07.63-.55-.16-.8-.98-.31-1.83-.89-1.03-.7-.08-1.51.13-.12.16-.28.03-.2-.12-.3a.27.26 32.2 0 0-.37.08q-.55.9-1.32 1.5-.55.43-.78-.22l-.63-1.83q-.14-.41.08-.79.51-.88.09-1.85-.21-.5.1-.95 2.7-3.84-.42-8.38-.44-.64.34-.64.83-.01 1.17-.74.5-1.08 1.93-1.7.86-.38 1.53-.01.61.33.7-.36l.09-.7q.03-.23.23-.35.18-.12.39-.03.27.12.3.42l.08.97q.02.21.23.19l.36-.03q.15-.01.16-.16l.26-3.07q.04-.42.47-.45l1.93-.12q.6-.03.2-.48-.32-.37-.84-.44-.72-.09-.85-.8-.11-.61-.5-1.12-.42-.57.01-1.12.58-.73.39-1.66a.3.29 67.1 0 0-.45-.19q-1.87 1.29-2.6 3.49a.37.37 0 0 1-.66.09q-1.03-1.52-.63-3.12.13-.54-.31-.88-1.14-.9-2.52-.82-1.05.06-.28-.67.53-.5.12-1.11a1.03 1.03 0 0 1-.09-1.01q.99-2.19.95-4.41-.01-.54.23-1.02.26-.53.25-1.1-.01-.65-.55-.29-1.15.77-1.47 2.06a.81.81 0 0 1-.65.6q-1.25.21-2.45.02-.62-.1-.74-.72-.17-.79-.83-1.25-.4-.29-.82-.03l-.26.16a.23.23 0 0 0-.06.33l.43.6q.34.47-.11.84-2.3 1.9-.72 4.49.35.57-.25.89l-2.7 1.4q-.58.31-.7-.34-.31-1.7-2.05-2.28a1.64 1.64 0 0 1-.8-2.52q.86-1.16 1.71-2.29.14-.17.11-.4-.01-.19-.14-.35-.34-.45-.76-.09l-.35.3q-.69.59-.72-.31l-.06-1.89a1.69 1.66 16.4 0 0-.73-1.32q-1.58-1.08-2.19-2.99-.23-.73.48-1l.9-.35q.44-.17.53-.64.09-.48.43-.77c.71-.62 1.91-.38 2.8-.48q.58-.07.72-.64.66-2.8-1.38-3.51-.56-.19-.54-.78l.05-2.32a.47.47 0 0 1 .61-.43q.32.1.51.4.29.47.62.03.33-.42.05-.81-1.48-2.06.26-3.89M176.14 70.72q1.11.15 1.89.68.4.27.83.06.94-.45 1.73.39a.67.66 49.3 0 0 .9.07l.24-.19q.44-.34 0-.67-.58-.45-.98-1.03M301.29 110.37q-.22 1.17.63 2.11M219.57 310.18q-.3-1.07-.8-1.65-.27-.33-.69-.39l-1.52-.23a.64.63 2.2 0 1-.55-.59q-.13-2.26.75-4.07.2-.42.01-.84-.28-.64-.65-1.26-.07-.13-.09-.27-.03-.25.18-.45.41-.37.72.08.13.19.34.23.51.09.63-.41.71-2.87-1.3-3.52-.58-.18-.58-.78l.01-2.23a.72.71 88.7 0 1 .67-.71l2.08-.15a1.29 1.28 8.9 0 0 1.09-.79q.45-1.1 1.62-1.3a.68.68 0 0 0 .5-.98c-.53-1.07-1.06-2.18-2.09-2.88q-1.31-.89-.99-2.95.22-1.41-.93-.58l-.29.21q-.49.35-.71-.21-.19-.49.17-.9.93-1.03 1.68-2.13a1.63 1.63 0 0 0-.85-2.47q-1.78-.57-2.09-2.34-.1-.61-.64-.31l-2.64 1.44q-.61.34-.26.94 1.48 2.47-.81 4.28-.34.27-.26.7.04.26.23.44.59.56-.18.83-.33.12-.64-.05-.4-.2-.58-.62-.84-1.91-3.4-1.17-.5.15-.63.66-.21.82-.79 1.42-1.31 1.35-1-.51l1.32-8.02q.12-.7-.59-.66-1.19.08-2.26-.67-.54-.37-.35-1 .43-1.44-.75-2.9-.42-.53-.59.12-.51 1.92-2.34 3.07-.59.37-.69-.31-.11-.71.4-1.28.39-.43.05-.89-.53-.72-.59-1.33M198.1 268.46q1.08-1.48.83-3.39M199.29 264.27q.48 1.09.95 1.39.54.34.68-.28l.14-.59q.09-.41.51-.34 2.31.41 3.61-1.73a.03.02-31.7 0 1 .01-.02q.44-.65 1.03-.79.74-.17.31-.8-1.86-2.75-1.52-5.73M205.36 254.27q.81-.69 1.22-1.58.22-.49-.18-.84-.87-.77-.12-1.62a1.06 1.06 0 0 0 .19-1.12l-1.11-2.62M208.09 313.78q.1-.98-.18-1.95-.17-.62-.7-.26-1.03.69-2.01.04-.49-.32-1.02-.1-.81.35-1.5-.17-.33-.26-.76-.36-1.03-.23-.47.65.99 1.57.25 3.14" vector-effect="non-scaling-stroke"/></g><path d="M221.95 70.51q-1.56 3.36-3.4 6.5-.25.44-.19.76.08.47.54.71.45.24.92.04l1.04-.42a.68.67 69.4 0 1 .9.41l.26.79q.19.57.79.62l1.43.11q.74.05.38.7-.41.74.03 1.56.27.52.16 1.09l-1.32 7.13q-.14.74.56.46l1.25-.51q.41-.17.81.04l.29.16a.42.42 0 0 0 .61-.34q.1-1.28-.6-2.31a.92.92 0 0 1 .45-1.39l4.18-1.5q.8-.29.88.55l.16 1.77q.06.69.62.29 1-.71 1.69-1.71.24-.36.12-.77l-1.05-3.71q-.16-.58.43-.65 1.03-.13 1.71-.92.48-.55-.24-.7-1.1-.23-1.44-1.28-.15-.48-.6-.72-2.22-1.19-.94-3.94 4.22-1.33 8.6-1.25.04.8 1.09.76.96-.03.99-.81 2.32.03 4.22 1.44 3.3 2.44 7.96 6.44l1.42 3.43q.2.51-.23.84-.78.6-1.72.68-.66.06-.37.66l1.36 2.83q.28.6-.3.92l-1.56.88q-1.66.94.06 1.75.18.09.39.14.51.13.6.65.41 2.66-.59 4.86-.76 1.66.87.83 2.24-1.13 2.9 1.04.23.77.57.04.55-1.2 1.68-1.63.6-.24.22-.75-.45-.6-.01-1.22.34-.49-.22-.71l-.93-.38q-.64-.25-.39-.89.23-.61.69-1.13.55-.61 1.25-.18 1.17.71 2.29-.16.62-.47.6.3-.06 2.94 4.05 3.25 1.15.08.61-.93l-.23-.43q-.3-.58.35-.59l2.64-.01q.7 0 .67.69-.03.84-.53 1.55-.35.5-.1 1.06c.5 1.14.64 2.43.28 3.63q-.25.84.1 1.61.22.49-.01.96-.29.58-.93.64a.47.47 0 0 0-.24.84q.71.54.42 1.4a.92.9 2.2 0 1-.65.59l-.58.15q-.91.23-.21.86l1.11.99a.78.78 0 0 1-.17 1.28q-1.14.6-1.34 1.79-.16.96.67.45.65-.41 1.4-.47.59-.05.72.53.21.95.09 2.02-.02.19.13.32.11.09.3.06.18-.04.26-.2 1.07-2.16.83-4.14-.07-.61.55-.62.55 0 .96-.42.9-.91.87.36-.01.76.68.96.72.21 1.45-.05 1.59-.57 3.05-.83.48-.09.52.4.36 5.02-.15 9.74-.05.47.12.91c.31.76-.68 2.09-.42 3.31q.1.48.52.22 1.32-.83 2.6.07.69.49.72-.36.05-1.81.32-3.77a1.27 1.22-66.4 0 1 2.02-.84q.45.4 1.04.28a.75.74-88.8 0 0 .59-.57q.26-1.16 1.06-2.03.39-.44.73.04 2.11 2.91 3.01 6.19.05.15.05.31-.01.16-.12.26-.54.5.17.72 1.45.45 1.18 2.25-.08.55.46.7.05.01.1-.01.68-.23.53-.94-.35-1.68 1.2-2.06.59-.15.24-.64-2.62-3.69-.05-6.38a1.58 1.58 0 0 0 .45-1.08q.01-.52.2-1.03.21-.55.8-.6l3.19-.28c1.54 7.18-.18 13.51-1.08 20.39q-.07.54.21 1.02l2.64 4.4q.29.48.29 1.04.06 12.14-.05 22.19c-.03 2.52-.79 4.92-1.22 7.38q-4.66 27.13-9.01 53.85c-1 6.2-3.5 18.32-4.48 27.66q-1.15-1.6-2.82-1.22-.67.16-.64-.53.06-1.77.43-3.52c.26-1.18-.11-1.86-.46-2.92q-.2-.57-.7-.23l-.63.43q-.49.33-1.03.11c-2.76-1.12-.81-3.86-.62-5.73q.14-1.34-.97-.57-.14.1-.31.15-.51.13-.58-.39-.15-1.18-1.3-1.38a.97.96 10 0 1-.78-1.11q.39-2.26 1.8-4.4.35-.53-.28-.51-.77.02-1.42.51-.47.35-.99.09-.71-.37-1.38.09-.66.45-.69-.35-.12-2.6-1.25-5.79-.15-.42-.58-.52-.86-.22-1.11.66-.24.87.49 1.44.61.48-.11.76-.22.09-.45.05a.73.73 0 0 0-.83.61l-.28 1.8q-.11.66-.69.33-.89-.5-1.9-.61-2.01-.21-.96 1.51 1.28 2.09-.24 4.13a.85.84-70.9 0 0 .65 1.35l2.41.07q.63.02.74.64.3 1.76.04 3.34a1.11 1.09 88.5 0 1-.84.9q-1.07.25-1.77 1.08-.87 1.03.21 2 .63.57-.02 1.12l-.47.4q-.54.46-1.07 0c-.78-.68-1.04-2.24-1.61-2.56q-.39-.21-.77 0-.41.22-.5.67c-.38 1.98-2.36 2.53-3.97 3.17a1.89 1.89 0 0 0-.74 2.98q1.11 1.31-.09 2.42-.64.59-1.51.73a1.02 1.01 85.9 0 0-.84.98q0 .37-.2.67-.47.72-.66-.12l-1.38-5.92q-.18-.77-.63-.12-.2.28-.18.64.02.63-.61.6-.18-.01-.28-.14-.53-.73-1 .02-.16.23-.45.3-.71.15-.33-.47.88-1.44 1.31-3.71.1-.53-.42-.68-1.06-.29-1.86-1.18-.5-.57-.14-1.24.42-.8 1.15-1.39 1.11-.9-.28-1.24-.91-.22-1.64-.84a.64.63-48.8 0 1-.06-.93l1.57-1.66a.73.73 0 0 0-.29-1.19q-3.89-1.37-1.99-5.82.15-.35-.19-.51l-.25-.11a.39.39 0 0 0-.52.18q-.85 1.7-2.65 2.54-.34.15-.67.04-.46-.16-.81-.48-.25-.23-.61-.25-.13-.01-.25.02-.78.22-.24.82 1.13 1.26.02 2.43-.34.35-.01.7.84.89 1.97 1.29a1.02 1.02 0 0 1 .21 1.83q-2.01 1.26-2.8 3.41-.28.76-.84.17-.81-.85-.93-2.08-.03-.32-.34-.41-.18-.05-.32.06-.29.24-.35.63-.1.67-.05 1.27.08.76-.64.5-1.61-.58-3.11 1.9a.42.41-75.2 0 0 .36.63l.93-.04q.28-.01.32.27.02.13-.02.26-.06.23-.27.35-1.37.85-1.63 2.52a.5.49-60.2 0 1-.87.24q-1.27-1.52-1.15-3.83.06-1.07-.8-.42-.54.41-1.22.53a.69.69 0 0 1-.79-.55q-.15-.74.41-1.3a.75.75 0 0 0 .05-1.03l-.67-.78q-.34-.4-.33-.92.05-2.02-1.12-3.73-.33-.48.12-.86l.96-.81q.55-.47-.13-.72-3.51-1.27-1.82-5.53.39-.97-.42-.31-.94.77-1.74 1.73-1.03 1.23-2.41.42-.78-.46-1.34.21-.35.41-.16.92.64 1.77.6 3.53-.02 1.19.81.34l.18-.18q.56-.57.76.2.87 3.26-1.99 4.92-.46.27-.87-.07-.6-.5-1.42-.4-.98.11-.2.72l.31.23q.75.57-.16.8-3.11.77-2.22 3.88c.27.95.11 1.8-.28 2.69a.64.64 0 0 1-1.16.04q-.89-1.76-2.41-.7-.27.19-.61.2-.32.01-.55-.2-.38-.35.08-.59.16-.08.29-.21a.47.47 0 0 0-.17-.76q-.44-.18-.86-.05-.24.07-.4.27-.16.19-.28.4-.1.17-.29.15-.16-.01-.27-.1-.57-.42.07-.73.74-.35.59-1.03-.09-.43-.49-.7-1.11-.76-2.11-1.44-.55-.38-.06-.83.5-.45.57-1.12.09-.84-.68-.48l-2.43 1.14q-.59.28-.63-.38-.12-2.04-1.56-2.58-.85-10.75-1.55-13.93-1.55-7.06-6.9-10.58-3.16-2.08-9.32-3.02c-7.94-1.21-15.17-1.29-23.05-1.17-3.08.04-6.49-1.46-9.01-3.52q-13.5-11.03-19.12-15.02-14.2-10.11-30.9-11.48c-5.75-.48-11.5-1.93-15.82-5.71q-8.21-7.17-8.25-17.5-.03-5.68-.25-8.07 1.51-.75 1.01-1.79-.31-.65.25-1.11.62-.52 1.44-.82.69-.25.33-.89l-.26-.44q-.43-.75.21-1.32.35-.32.83-.42.7-.14.23-.68-.84-.96-.13-2.04.46-.69.01-1.38-.15-.23-.37-.37-.59-.36-.85.27l-.33.82q-.28.67-.77.15l-.67-.71q-.42-.46-.41-1.07.04-1.58.18-3.24a.38.38 0 0 1 .55-.31l.35.18q.77.39.83-.47.14-2.1.93-3.98.35-.82-.07-1.61-.8-1.51.66-3.29.4-.48.94-.19.5.27.57.84l.21 1.69q.07.59.53.21l.31-.26q.6-.49.78.27.51 2.12 1.55 4.19a2 1.98 33.5 0 1 .22 1.06q-.09 1.3.66 2.68a.48.47-36.5 0 0 .75.11q1.29-1.24 1.1-3a.35.34 3.1 0 1 .42-.37q1.89.42 3.9-.17.52-.15.58.39.23 1.96-.31 3.92c-.3 1.12.04 1.93.38 2.99a.42.41 59.9 0 0 .67.18c.75-.67 1.82-.88 2.59-.09 1.73 1.77-.38 3.72-.28 5.69q.04.77.69.36l.35-.22q.63-.39.8.33l.09.4a1 1 0 0 0 .86.77c1.04.12 1.38 1.14 1.13 2.04q-.52 1.88-1.53 3.35-.49.72.37.59l3.63-.57q.5-.08.53.43.17 2.93 1.46 5.75.27.59.97.53.66-.06.62-.72-.07-.9-.67-1.58a.37.37 0 0 1 .25-.61q2.02-.16 1.44-2.46a.41.41 0 0 1 .65-.41q1.11.9 2.62.7a.8.8 0 0 0 .59-1.22q-1.52-2.48.06-4.64a.64.64 0 0 0-.5-1.02l-2.65-.07a.76.76 0 0 1-.74-.78l.09-3.32q.01-.45.4-.67l1.98-1.13q.54-.3.49-.93-.05-.77-.58-1.36-.55-.62.13-1.08l.43-.29q.82-.56 1.36.27.36.53.56 1.11.94 2.65 2.15.11c.8-1.65 2.5-2.31 4.1-2.96a1.58 1.58 0 0 0 .58-2.52q-.98-1.09-.4-2.18c.7-1.31 2.33-.89 2.76-2.5q.39-1.45.83-.02.88 2.9 1.27 5.94.04.28.31.19l.32-.1q.27-.09.21-.36-.18-.87.6-1.19.22-.09.32.13.12.26.5.2.4-.06.68-.36.11-.11.27-.13.65-.1.37.5-.83 1.82-1.36 3.84-.13.51.39.59 1.63.27 2.2 1.78a.94.94 0 0 1-.23 1.01l-1.41 1.32a.45.45 0 0 0 .21.76q1.22.28 2.06 1.1.42.41.01.84l-1.47 1.55a.79.79 0 0 0 .3 1.28q4.04 1.53 1.9 5.88-.2.41.26.45l.46.04a.44.43-74.8 0 0 .42-.25q.8-1.71 2.81-2.39.49-.16.85.19.55.53 1.3.37.56-.13.19-.57-1.01-1.17-.14-2.46a.86.85 43.1 0 0-.04-1q-.64-.83-1.68-1.01a.98.98 0 0 1-.44-1.74q1.94-1.55 2.89-3.62.26-.57.73-.16.97.84 1.11 2.26.02.24.26.24l.29.01q.26 0 .28-.26l.14-1.93q.06-.72.66-.32l.29.19a.8.8 0 0 0 1-.1l1.74-1.7q.23-.23.1-.53-.23-.56-.79-.33-.38.16-.64-.15-.39-.46.12-.77 1.3-.78 1.53-2.37.09-.64.69-.38c1.37.6 1.35 2.74 1.33 3.99q-.01.79.68.41.45-.25.95-.44.41-.15.81-.02.57.19.29 1.23a1.1 1.1 0 0 1-.2.4q-.77.92.31 1.63.55.35.52 1-.08 1.87 1.13 3.76.31.5-.1.91l-1.04 1.05q-.51.52.2.7 3.49.88 1.89 5.34-.5 1.38.52.32l2-2.09q.4-.43.98-.34.57.09 1.06.44a.76.76 0 0 0 .97-.06l.21-.19q.33-.31.24-.76l-.78-3.99q-.12-.6-.6-.21l-.28.22q-.65.53-.78-.31-.43-3.03 1.92-4.76.36-.27.78-.1c.46.19.76.54 1.28.6q.24.03.43-.09.57-.33.09-.79-.19-.18-.25-.43-.11-.44.34-.51c1.68-.24 2.85-1.94 2.09-3.56q-.73-1.57.49-3.19.31-.4.66-.03l.84.88a1.18 1.17 50.9 0 0 1.51.16q.65-.45 1.38-.27.6.16.16.6l-.36.37q-.49.49.15.74.94.36 1.52-.58a.4.4 0 0 1 .73.12q.08.33-.23.53a1.22 1.18 35.5 0 0 .4 2.17q2.57.66 1.18 2.81-.75 1.15.55.7 1.37-.48 2.58-1.34.74-.53.67.38c-.1 1.34.76 3.54 2.44 3.37q.48-.05.28-.5-.98-2.14-.54-4.81.09-.53.6-.71 1.07-.36 1.88-1.07.63-.55-.16-.8-.98-.31-1.83-.89-1.03-.7-.08-1.51.13-.12.16-.28.03-.2-.12-.3a.27.26 32.2 0 0-.37.08q-.55.9-1.32 1.5-.55.43-.78-.22l-.63-1.83q-.14-.41.08-.79.51-.88.09-1.85-.21-.5.1-.95 2.7-3.84-.42-8.38-.44-.64.34-.64.83-.01 1.17-.74.5-1.08 1.93-1.7.86-.38 1.53-.01.61.33.7-.36l.09-.7q.03-.23.23-.35.18-.12.39-.03.27.12.3.42l.08.97q.02.21.23.19l.36-.03q.15-.01.16-.16l.26-3.07q.04-.42.47-.45l1.93-.12q.6-.03.2-.48-.32-.37-.84-.44-.72-.09-.85-.8-.11-.61-.5-1.12-.42-.57.01-1.12.58-.73.39-1.66a.3.29 67.1 0 0-.45-.19q-1.87 1.29-2.6 3.49a.37.37 0 0 1-.66.09q-1.03-1.52-.63-3.12.13-.54-.31-.88-1.14-.9-2.52-.82-1.05.06-.28-.67.53-.5.12-1.11a1.03 1.03 0 0 1-.09-1.01q.99-2.19.95-4.41-.01-.54.23-1.02.26-.53.25-1.1-.01-.65-.55-.29-1.15.77-1.47 2.06a.81.81 0 0 1-.65.6q-1.25.21-2.45.02-.62-.1-.74-.72-.17-.79-.83-1.25-.4-.29-.82-.03l-.26.16a.23.23 0 0 0-.06.33l.43.6q.34.47-.11.84-2.3 1.9-.72 4.49.35.57-.25.89l-2.7 1.4q-.58.31-.7-.34-.31-1.7-2.05-2.28a1.64 1.64 0 0 1-.8-2.52q.86-1.16 1.71-2.29.14-.17.11-.4-.01-.19-.14-.35-.34-.45-.76-.09l-.35.3q-.69.59-.72-.31l-.06-1.89a1.69 1.66 16.4 0 0-.73-1.32q-1.58-1.08-2.19-2.99-.23-.73.48-1l.9-.35q.44-.17.53-.64.09-.48.43-.77c.71-.62 1.91-.38 2.8-.48q.58-.07.72-.64.66-2.8-1.38-3.51-.56-.19-.54-.78l.05-2.32a.47.47 0 0 1 .61-.43q.32.1.51.4.29.47.62.03.33-.42.05-.81-1.48-2.06.26-3.89 1.44.32 2.95-.03.49-.11.81-.5c1.7-2.03 2.72-5.23 5.28-6.74q1.11.15 1.89.68.4.27.83.06.94-.45 1.73.39a.67.66 49.3 0 0 .9.07l.24-.19q.44-.34 0-.67-.58-.45-.98-1.03c2.22.17 4.7 1.59 7.26 1.38q1.68-.13 3.23-.82 6.34-2.8 14.23-1.91c1.74.19 3.39-.2 4.91-1.02 1.55-.85 3.86-1 5.13.5q.46.54 1.13.75z"/><path fill="#20e0d4" d="M180.75 70.03q.4.58.98 1.03.44.33 0 .67l-.24.19a.67.66 49.3 0 1-.9-.07q-.79-.84-1.73-.39-.43.21-.83-.06-.78-.53-1.89-.68 2.01-1.36 4.61-.69M221.95 70.51l10.43 2.82q-1.28 2.75.94 3.94.45.24.6.72.34 1.05 1.44 1.28.72.15.24.7-.68.79-1.71.92-.59.07-.43.65l1.05 3.71q.12.41-.12.77-.69 1-1.69 1.71-.56.4-.62-.29l-.16-1.77q-.08-.84-.88-.55l-4.18 1.5a.92.92 0 0 0-.45 1.39q.7 1.03.6 2.31a.42.42 0 0 1-.61.34l-.29-.16q-.4-.21-.81-.04l-1.25.51q-.7.28-.56-.46l1.32-7.13q.11-.57-.16-1.09-.44-.82-.03-1.56.36-.65-.38-.7l-1.43-.11q-.6-.05-.79-.62l-.26-.79a.68.67 69.4 0 0-.9-.41l-1.04.42q-.47.2-.92-.04-.46-.24-.54-.71-.06-.32.19-.76 1.84-3.14 3.4-6.5M243.06 72.03q-.03.78-.99.81-1.05.04-1.09-.76zM167.1 77.99q-1.74 1.83-.26 3.89.28.39-.05.81-.33.44-.62-.03-.19-.3-.51-.4a.47.47 0 0 0-.61.43l-.05 2.32q-.02.59.54.78 2.04.71 1.38 3.51-.14.57-.72.64c-.89.1-2.09-.14-2.8.48q-.34.29-.43.77-.09.47-.53.64l-.9.35q-.71.27-.48 1 .61 1.91 2.19 2.99a1.69 1.66 16.4 0 1 .73 1.32l.06 1.89q.03.9.72.31l.35-.3q.42-.36.76.09.13.16.14.35.03.23-.11.4-.85 1.13-1.71 2.29a1.64 1.64 0 0 0 .8 2.52q1.74.58 2.05 2.28.12.65.7.34l2.7-1.4q.6-.32.25-.89-1.58-2.59.72-4.49.45-.37.11-.84l-.43-.6a.23.23 0 0 1 .06-.33l.26-.16q.42-.26.82.03.66.46.83 1.25.12.62.74.72 1.2.19 2.45-.02a.81.81 0 0 0 .65-.6q.32-1.29 1.47-2.06.54-.36.55.29.01.57-.25 1.1-.24.48-.23 1.02.04 2.22-.95 4.41a1.03 1.03 0 0 0 .09 1.01q.41.61-.12 1.11-.77.73.28.67 1.38-.08 2.52.82.44.34.31.88-.4 1.6.63 3.12a.37.37 0 0 0 .66-.09q.73-2.2 2.6-3.49a.3.29 67.1 0 1 .45.19q.19.93-.39 1.66-.43.55-.01 1.12.39.51.5 1.12.13.71.85.8.52.07.84.44.4.45-.2.48l-1.93.12q-.43.03-.47.45l-.26 3.07q-.01.15-.16.16l-.36.03q-.21.02-.23-.19l-.08-.97q-.03-.3-.3-.42-.21-.09-.39.03-.2.12-.23.35l-.09.7q-.09.69-.7.36-.67-.37-1.53.01-1.43.62-1.93 1.7-.34.73-1.17.74-.78 0-.34.64 3.12 4.54.42 8.38-.31.45-.1.95.42.97-.09 1.85-.22.38-.08.79l.63 1.83q.23.65.78.22.77-.6 1.32-1.5a.27.26 32.2 0 1 .37-.08q.15.1.12.3-.03.16-.16.28-.95.81.08 1.51.85.58 1.83.89.79.25.16.8-.81.71-1.88 1.07-.51.18-.6.71-.44 2.67.54 4.81.2.45-.28.5c-1.68.17-2.54-2.03-2.44-3.37q.07-.91-.67-.38-1.21.86-2.58 1.34-1.3.45-.55-.7 1.39-2.15-1.18-2.81a1.22 1.18 35.5 0 1-.4-2.17q.31-.2.23-.53a.4.4 0 0 0-.73-.12q-.58.94-1.52.58-.64-.25-.15-.74l.36-.37q.44-.44-.16-.6-.73-.18-1.38.27a1.18 1.17 50.9 0 1-1.51-.16l-.84-.88q-.35-.37-.66.03-1.22 1.62-.49 3.19c.76 1.62-.41 3.32-2.09 3.56q-.45.07-.34.51.06.25.25.43.48.46-.09.79-.19.12-.43.09c-.52-.06-.82-.41-1.28-.6q-.42-.17-.78.1-2.35 1.73-1.92 4.76.13.84.78.31l.28-.22q.48-.39.6.21l.78 3.99q.09.45-.24.76l-.21.19a.76.76 0 0 1-.97.06q-.49-.35-1.06-.44-.58-.09-.98.34l-2 2.09q-1.02 1.06-.52-.32 1.6-4.46-1.89-5.34-.71-.18-.2-.7l1.04-1.05q.41-.41.1-.91-1.21-1.89-1.13-3.76.03-.65-.52-1-1.08-.71-.31-1.63a1.1 1.1 0 0 0 .2-.4q.28-1.04-.29-1.23-.4-.13-.81.02-.5.19-.95.44-.69.38-.68-.41c.02-1.25.04-3.39-1.33-3.99q-.6-.26-.69.38-.23 1.59-1.53 2.37-.51.31-.12.77.26.31.64.15.56-.23.79.33.13.3-.1.53l-1.74 1.7a.8.8 0 0 1-1 .1l-.29-.19q-.6-.4-.66.32l-.14 1.93q-.02.26-.28.26l-.29-.01q-.24 0-.26-.24-.14-1.42-1.11-2.26-.47-.41-.73.16-.95 2.07-2.89 3.62a.98.98 0 0 0 .44 1.74q1.04.18 1.68 1.01a.86.85 43.1 0 1 .04 1q-.87 1.29.14 2.46.37.44-.19.57-.75.16-1.3-.37-.36-.35-.85-.19-2.01.68-2.81 2.39a.44.43-74.8 0 1-.42.25l-.46-.04q-.46-.04-.26-.45 2.14-4.35-1.9-5.88a.79.79 0 0 1-.3-1.28l1.47-1.55q.41-.43-.01-.84-.84-.82-2.06-1.1a.45.45 0 0 1-.21-.76l1.41-1.32a.94.94 0 0 0 .23-1.01q-.57-1.51-2.2-1.78-.52-.08-.39-.59.53-2.02 1.36-3.84.28-.6-.37-.5-.16.02-.27.13-.28.3-.68.36-.38.06-.5-.2-.1-.22-.32-.13-.78.32-.6 1.19.06.27-.21.36l-.32.1q-.27.09-.31-.19-.39-3.04-1.27-5.94-.44-1.43-.83.02c-.43 1.61-2.06 1.19-2.76 2.5q-.58 1.09.4 2.18a1.58 1.58 0 0 1-.58 2.52c-1.6.65-3.3 1.31-4.1 2.96q-1.21 2.54-2.15-.11-.2-.58-.56-1.11-.54-.83-1.36-.27l-.43.29q-.68.46-.13 1.08.53.59.58 1.36.05.63-.49.93l-1.98 1.13q-.39.22-.4.67l-.09 3.32a.76.76 0 0 0 .74.78l2.65.07a.64.64 0 0 1 .5 1.02q-1.58 2.16-.06 4.64a.8.8 0 0 1-.59 1.22q-1.51.2-2.62-.7a.41.41 0 0 0-.65.41q.58 2.3-1.44 2.46a.37.37 0 0 0-.25.61q.6.68.67 1.58.04.66-.62.72-.7.06-.97-.53-1.29-2.82-1.46-5.75-.03-.51-.53-.43l-3.63.57q-.86.13-.37-.59 1.01-1.47 1.53-3.35c.25-.9-.09-1.92-1.13-2.04a1 1 0 0 1-.86-.77l-.09-.4q-.17-.72-.8-.33l-.35.22q-.65.41-.69-.36c-.1-1.97 2.01-3.92.28-5.69-.77-.79-1.84-.58-2.59.09a.42.41 59.9 0 1-.67-.18c-.34-1.06-.68-1.87-.38-2.99q.54-1.96.31-3.92-.06-.54-.58-.39-2.01.59-3.9.17a.35.34 3.1 0 0-.42.37q.19 1.76-1.1 3a.48.47-36.5 0 1-.75-.11q-.75-1.38-.66-2.68a2 1.98 33.5 0 0-.22-1.06q-1.04-2.07-1.55-4.19-.18-.76-.78-.27l-.31.26q-.46.38-.53-.21l-.21-1.69q-.07-.57-.57-.84-.54-.29-.94.19-1.46 1.78-.66 3.29.42.79.07 1.61-.79 1.88-.93 3.98-.06.86-.83.47l-.35-.18a.38.38 0 0 0-.55.31q-.14 1.66-.18 3.24-.01.61.41 1.07l.67.71q.49.52.77-.15l.33-.82q.26-.63.85-.27.22.14.37.37.45.69-.01 1.38-.71 1.08.13 2.04.47.54-.23.68-.48.1-.83.42-.64.57-.21 1.32l.26.44q.36.64-.33.89-.82.3-1.44.82-.56.46-.25 1.11.5 1.04-1.01 1.79c-1.05-3.18-2.69-6.47-2.67-9.71.02-2.85-.56-6.29 1.03-8.73q4.22-6.44 7.49-12.79c2.57-5 6.94-8.44 12.25-9.74q13.68-3.34 27.07-6.86c13.52-3.55 21.99-9.69 24.44-23.99q.1-.57.53-.96c5.5-5.02 10.93-1.21 16.49 2.1M301.29 110.37q-.22 1.17.63 2.11l.18 2.34-3.19.28q-.59.05-.8.6-.19.51-.2 1.03a1.58 1.58 0 0 1-.45 1.08q-2.57 2.69.05 6.38.35.49-.24.64-1.55.38-1.2 2.06.15.71-.53.94-.05.02-.1.01-.54-.15-.46-.7.27-1.8-1.18-2.25-.71-.22-.17-.72.11-.1.12-.26 0-.16-.05-.31-.9-3.28-3.01-6.19-.34-.48-.73-.04-.8.87-1.06 2.03a.75.74-88.8 0 1-.59.57q-.59.12-1.04-.28a1.27 1.22-66.4 0 0-2.02.84q-.27 1.96-.32 3.77-.03.85-.72.36-1.28-.9-2.6-.07-.42.26-.52-.22c-.26-1.22.73-2.55.42-3.31q-.17-.44-.12-.91.51-4.72.15-9.74-.04-.49-.52-.4-1.46.26-3.05.83-.73.26-1.45.05-.69-.2-.68-.96.03-1.27-.87-.36-.41.42-.96.42-.62.01-.55.62.24 1.98-.83 4.14-.08.16-.26.2-.19.03-.3-.06-.15-.13-.13-.32.12-1.07-.09-2.02-.13-.58-.72-.53-.75.06-1.4.47-.83.51-.67-.45.2-1.19 1.34-1.79a.78.78 0 0 0 .17-1.28l-1.11-.99q-.7-.63.21-.86l.58-.15a.92.9 2.2 0 0 .65-.59q.29-.86-.42-1.4a.47.47 0 0 1 .24-.84q.64-.06.93-.64.23-.47.01-.96-.35-.77-.1-1.61c.36-1.2.22-2.49-.28-3.63q-.25-.56.1-1.06.5-.71.53-1.55.03-.69-.67-.69l-2.64.01q-.65.01-.35.59l.23.43q.54 1.01-.61.93-4.11-.31-4.05-3.25.02-.77-.6-.3-1.12.87-2.29.16-.7-.43-1.25.18-.46.52-.69 1.13-.25.64.39.89l.93.38q.56.22.22.71-.44.62.01 1.22.38.51-.22.75-1.13.43-1.68 1.63-.34.73-.57-.04-.66-2.17-2.9-1.04-1.63.83-.87-.83 1-2.2.59-4.86-.09-.52-.6-.65-.21-.05-.39-.14-1.72-.81-.06-1.75l1.56-.88q.58-.32.3-.92l-1.36-2.83q-.29-.6.37-.66.94-.08 1.72-.68.43-.33.23-.84l-1.42-3.43q3.98 2.1 8.27 2.84 8.22 1.42 16.44 2.78c2.24.37 4.18 2.32 4.05 4.74-.28 5.28.61 12.35 6.21 14.72q3.53 1.5 7.45 3.09 2.15.88 3.63 2.29"/><path d="M301.92 112.48q-.85-.94-.63-2.11.75.98.63 2.11"/><path fill="#20e0d4" d="M289.4 252.75q-.95 6.44.48 12.97.59 2.69-.72 4.6-.74 1.07-3.43 2.61c-6.54 3.75-12.63 7.24-19.12 11.72q-8.62 5.96-17.38 11.34-14.06 8.63-29.66 14.19-.3-1.07-.8-1.65-.27-.33-.69-.39l-1.52-.23a.64.63 2.2 0 1-.55-.59q-.13-2.26.75-4.07.2-.42.01-.84-.28-.64-.65-1.26-.07-.13-.09-.27-.03-.25.18-.45.41-.37.72.08.13.19.34.23.51.09.63-.41.71-2.87-1.3-3.52-.58-.18-.58-.78l.01-2.23a.72.71 88.7 0 1 .67-.71l2.08-.15a1.29 1.28 8.9 0 0 1.09-.79q.45-1.1 1.62-1.3a.68.68 0 0 0 .5-.98c-.53-1.07-1.06-2.18-2.09-2.88q-1.31-.89-.99-2.95.22-1.41-.93-.58l-.29.21q-.49.35-.71-.21-.19-.49.17-.9.93-1.03 1.68-2.13a1.63 1.63 0 0 0-.85-2.47q-1.78-.57-2.09-2.34-.1-.61-.64-.31l-2.64 1.44q-.61.34-.26.94 1.48 2.47-.81 4.28-.34.27-.26.7.04.26.23.44.59.56-.18.83-.33.12-.64-.05-.4-.2-.58-.62-.84-1.91-3.4-1.17-.5.15-.63.66-.21.82-.79 1.42-1.31 1.35-1-.51l1.32-8.02q.12-.7-.59-.66-1.19.08-2.26-.67-.54-.37-.35-1 .43-1.44-.75-2.9-.42-.53-.59.12-.51 1.92-2.34 3.07-.59.37-.69-.31-.11-.71.4-1.28.39-.43.05-.89-.53-.72-.59-1.33l.2-1.34q1.08-1.48.83-3.39.35-.33.36-.8.48 1.09.95 1.39.54.34.68-.28l.14-.59q.09-.41.51-.34 2.31.41 3.61-1.73a.03.02-31.7 0 1 .01-.02q.44-.65 1.03-.79.74-.17.31-.8-1.86-2.75-1.52-5.73.09-.6.35-1.11.81-.69 1.22-1.58.22-.49-.18-.84-.87-.77-.12-1.62a1.06 1.06 0 0 0 .19-1.12l-1.11-2.62-.72-7.82q1.44.54 1.56 2.58.04.66.63.38l2.43-1.14q.77-.36.68.48-.07.67-.57 1.12-.49.45.06.83 1 .68 2.11 1.44.4.27.49.7.15.68-.59 1.03-.64.31-.07.73.11.09.27.1.19.02.29-.15.12-.21.28-.4.16-.2.4-.27.42-.13.86.05a.47.47 0 0 1 .17.76q-.13.13-.29.21-.46.24-.08.59.23.21.55.2.34-.01.61-.2 1.52-1.06 2.41.7a.64.64 0 0 0 1.16-.04c.39-.89.55-1.74.28-2.69q-.89-3.11 2.22-3.88.91-.23.16-.8l-.31-.23q-.78-.61.2-.72.82-.1 1.42.4.41.34.87.07 2.86-1.66 1.99-4.92-.2-.77-.76-.2l-.18.18q-.83.85-.81-.34.04-1.76-.6-3.53-.19-.51.16-.92.56-.67 1.34-.21 1.38.81 2.41-.42.8-.96 1.74-1.73.81-.66.42.31-1.69 4.26 1.82 5.53.68.25.13.72l-.96.81q-.45.38-.12.86 1.17 1.71 1.12 3.73-.01.52.33.92l.67.78a.75.75 0 0 1-.05 1.03q-.56.56-.41 1.3a.69.69 0 0 0 .79.55q.68-.12 1.22-.53.86-.65.8.42-.12 2.31 1.15 3.83a.5.49-60.2 0 0 .87-.24q.26-1.67 1.63-2.52.21-.12.27-.35.04-.13.02-.26-.04-.28-.32-.27l-.93.04a.42.41-75.2 0 1-.36-.63q1.5-2.48 3.11-1.9.72.26.64-.5-.05-.6.05-1.27.06-.39.35-.63.14-.11.32-.06.31.09.34.41.12 1.23.93 2.08.56.59.84-.17.79-2.15 2.8-3.41a1.02 1.02 0 0 0-.21-1.83q-1.13-.4-1.97-1.29-.33-.35.01-.7 1.11-1.17-.02-2.43-.54-.6.24-.82.12-.03.25-.02.36.02.61.25.35.32.81.48.33.11.67-.04 1.8-.84 2.65-2.54a.39.39 0 0 1 .52-.18l.25.11q.34.16.19.51-1.9 4.45 1.99 5.82a.73.73 0 0 1 .29 1.19l-1.57 1.66a.64.63-48.8 0 0 .06.93q.73.62 1.64.84 1.39.34.28 1.24-.73.59-1.15 1.39-.36.67.14 1.24.8.89 1.86 1.18.52.15.42.68-.43 2.27-1.31 3.71-.38.62.33.47.29-.07.45-.3.47-.75 1-.02.1.13.28.14.63.03.61-.6-.02-.36.18-.64.45-.65.63.12l1.38 5.92q.19.84.66.12.2-.3.2-.67a1.02 1.01 85.9 0 1 .84-.98q.87-.14 1.51-.73 1.2-1.11.09-2.42a1.89 1.89 0 0 1 .74-2.98c1.61-.64 3.59-1.19 3.97-3.17q.09-.45.5-.67.38-.21.77 0c.57.32.83 1.88 1.61 2.56q.53.46 1.07 0l.47-.4q.65-.55.02-1.12-1.08-.97-.21-2 .7-.83 1.77-1.08a1.11 1.09 88.5 0 0 .84-.9q.26-1.58-.04-3.34-.11-.62-.74-.64l-2.41-.07a.85.84-70.9 0 1-.65-1.35q1.52-2.04.24-4.13-1.05-1.72.96-1.51 1.01.11 1.9.61.58.33.69-.33l.28-1.8a.73.73 0 0 1 .83-.61q.23.04.45-.05.72-.28.11-.76-.73-.57-.49-1.44.25-.88 1.11-.66.43.1.58.52 1.13 3.19 1.25 5.79.03.8.69.35.67-.46 1.38-.09.52.26.99-.09.65-.49 1.42-.51.63-.02.28.51-1.41 2.14-1.8 4.4a.97.96 10 0 0 .78 1.11q1.15.2 1.3 1.38.07.52.58.39.17-.05.31-.15 1.11-.77.97.57c-.19 1.87-2.14 4.61.62 5.73q.54.22 1.03-.11l.63-.43q.5-.34.7.23c.35 1.06.72 1.74.46 2.92q-.37 1.75-.43 3.52-.03.69.64.53 1.67-.38 2.82 1.22"/><path d="m205.36 246.49 1.11 2.62a1.06 1.06 0 0 1-.19 1.12q-.75.85.12 1.62.4.35.18.84-.41.89-1.22 1.58zM205.01 255.38q-.34 2.98 1.52 5.73.43.63-.31.8-.59.14-1.03.79a.03.02-31.7 0 0-.01.02q-1.3 2.14-3.61 1.73-.42-.07-.51.34l-.14.59q-.14.62-.68.28-.47-.3-.95-1.39zM198.93 265.07q.25 1.91-.83 3.39-.28-1.86.83-3.39M197.9 269.8q.06.61.59 1.33.34.46-.05.89-.51.57-.4 1.28.1.68.69.31 1.83-1.15 2.34-3.07.17-.65.59-.12 1.18 1.46.75 2.9-.19.63.35 1 1.07.75 2.26.67.71-.04.59.66l-1.32 8.02q-.31 1.86 1 .51.58-.6.79-1.42.13-.51.63-.66 2.56-.74 3.4 1.17.18.42.58.62.31.17.64.05.77-.27.18-.83-.19-.18-.23-.44-.08-.43.26-.7 2.29-1.81.81-4.28-.35-.6.26-.94l2.64-1.44q.54-.3.64.31.31 1.77 2.09 2.34a1.63 1.63 0 0 1 .85 2.47q-.75 1.1-1.68 2.13-.36.41-.17.9.22.56.71.21l.29-.21q1.15-.83.93.58-.32 2.06.99 2.95c1.03.7 1.56 1.81 2.09 2.88a.68.68 0 0 1-.5.98q-1.17.2-1.62 1.3a1.29 1.28 8.9 0 1-1.09.79l-2.08.15a.72.71 88.7 0 0-.67.71l-.01 2.23q0 .6.58.78 2.01.65 1.3 3.52-.12.5-.63.41-.21-.04-.34-.23-.31-.45-.72-.08-.21.2-.18.45.02.14.09.27.37.62.65 1.26.19.42-.01.84-.88 1.81-.75 4.07a.64.63 2.2 0 0 .55.59l1.52.23q.42.06.69.39.5.58.8 1.65l-11.48 3.6q.1-.98-.18-1.95-.17-.62-.7-.26-1.03.69-2.01.04-.49-.32-1.02-.1-.81.35-1.5-.17-.33-.26-.76-.36-1.03-.23-.47.65.99 1.57.25 3.14l-7.7.08q-.5.01-.78-.42c-2.45-3.73-3.82-5.69-2.9-9.62q1.1-4.74 2.64-9.34 2.7-8.08 4.94-25.67"/><path fill="#20e0d4" d="M208.09 313.78q-2.33 1.63-6.39.99.74-1.57-.25-3.14-.56-.88.47-.65.43.1.76.36.69.52 1.5.17.53-.22 1.02.1.98.65 2.01-.04.53-.36.7.26.28.97.18 1.95"/></svg>