<svg xmlns="http://www.w3.org/2000/svg" viewBox="0 0 382 382"><defs><clipPath id="a"><path d="M206.44 314.67h-12.95c-1.21-2.51-3.68-5.19-3.38-7.49.75-5.57 2.98-10.93 4.26-16.45 1.32-5.69 2.27-11.47 3.26-17.23.45-2.59 0-5.5 1.03-7.79 1.44-3.23 4.06-5.91 5.79-9.04.92-1.65 1.56-3.78 1.43-5.63-.52-7.52-1.58-15.01-2.06-22.53-.5-7.85-4.73-14.92-12.25-16.61-7.27-1.63-14.94-2.3-22.38-1.99-5.67.24-10.44-.05-14.85-3.97-4.27-3.81-9.03-7.07-13.42-10.76-10.97-9.21-23.3-14.58-37.79-15.62-13.59-.97-23.89-11.32-22.18-27.83.35-3.39-1.96-7.06-3.05-10.6v-8.98c2.87-4.82 6.05-9.49 8.52-14.51 2.88-5.83 7.45-8.74 13.57-10.16 9.19-2.13 18.35-4.43 27.43-6.98 11.92-3.35 20.95-9.71 22.65-23.23.12-.97 1.37-2.05 2.36-2.6 5.11-2.85 9.16.46 13.25 2.7 3.34 1.83 5.3 1.31 7.01-2.2 2.7-5.54 6.16-6.44 11.54-4.15 1.78.76 4.49 1 6.09.17 5.44-2.82 11-2.87 16.83-2.25 1.35.14 2.85-1.04 4.28-1.61h2.99c.54.52.99 1.31 1.63 1.51 5.05 1.63 10.13 3.21 15.24 4.64.82.23 1.86-.51 2.81-.58 3.67-.27 7.73-1.53 10.93-.39 3.66 1.3 6.42 4.96 9.83 7.21 2.03 1.34 4.48 2.32 6.87 2.81 5.88 1.22 11.85 2.03 17.76 3.08 3.22.57 4.62 2.39 4.46 5.87-.12 2.71.25 5.59 1.09 8.16 2.07 6.3 8.55 6.38 13.31 8.91 1.21.64 3.07 1.46 3.22 2.42.65 4.02 1.13 8.15.98 12.21-.15 4.04-1.57 8.05-1.56 12.07 0 1.96 2.01 3.91 3.1 5.87v22.94c-.77 4.18-1.59 8.36-2.3 12.55-1.89 11.1-3.76 22.2-5.6 33.31-1.17 7.08-2.2 14.17-3.41 21.24-.71 4.18-1.82 8.29-2.44 12.48-.7 4.73-1.27 9.5-1.46 14.27-.12 2.91.57 5.85.94 8.77.33 2.58-.56 4.1-3.01 5.47-6.85 3.82-13.69 7.76-20.12 12.23-17.42 12.11-35.35 23.07-56.19 28.34-1.42.36-2.71 1.27-4.06 1.93z"/></clipPath></defs><g clip-path="url(#a)"><svg xmlns="http://www.w3.org/2000/svg" width="382" height="382" style="shape-rendering:geometricPrecision"><path fill="#50a9f2" stroke="#50a9f2" d="m190.24 173.555-64.331-37.318-2.49-17.813 25.224-20.122 24.025 3.678 43.811 22.787z"/><path fill="#50a9f2" stroke="#50a9f2" d="m123.42 118.424-5.914-3.333L66.85 58.952 128.56 0h41.512l-21.43 98.302zM172.668 101.98l-24.025-3.678L170.072 0h53.677l7.378 51.192v.012z"/><path fill="#e09d63" stroke="#e09d63" d="M382 0v33.856l-53.435 34.9-10.02.481L295.99 0zM78.481 179.328l-42.6 38.755L0 199.943v-54.877l9.606-4.141 15.631 3.355zM104.907 185.53 66.36 251.463l-8.994-3.057-21.484-30.322 42.6-38.755 25.195 2.21zM268.863 182.675l.28-40.563 48.567-11.689 23.172 53.966z"/><path fill="#50a9f2" stroke="#50a9f2" d="m117.506 115.091-92.269 29.19-15.631-3.356 43.567-82.606 13.677.633zM0 382v-28.609l9.597-7.195 50.537-12.631 14.266 1.891 43.15 31.005L121.497 382zM73.96 259.666l-26.679 38.471-.271-.065-31.164-21.998-.598-1.737 42.117-25.932 8.994 3.057z"/><path fill="#50a9f2" stroke="#50a9f2" d="m15.846 276.074 31.164 21.998-29.388 10.937zM205.32 232.691l18.967 61.432-3.022 25.132-13.494 19.156-23.626-25.71 15.062-77.045zM300.427 382l-44.03-64.514-1.32-7.565 12.142-40.072L382 317.12V382zM216.48 124.767l-43.812-22.787 58.459-50.776 10.11 63.36zM315.783 74.97l2.761-5.733 10.021-.482L382 90.81v30.93l-56.032-3.239zM269.143 142.112l-17.765-22.409L298.85 80.95l16.932-5.98 10.185 43.53-8.258 11.923z"/><path fill="#e09d63" stroke="#e09d63" d="m207.771 338.411 6.44 43.589h-92.714l-3.947-15.54 15.96-38.456 50.635-15.303z"/><path fill="#50a9f2" stroke="#50a9f2" d="m125.909 136.237-22.233 45.3-25.195-2.209-53.244-35.048 92.269-29.189 5.913 3.333z"/><path fill="#e09d63" stroke="#e09d63" d="m214.211 382-6.44-43.589 13.494-19.156 35.132-1.77L300.427 382z"/><path fill="#50a9f2" stroke="#50a9f2" d="m190.24 173.555 26.24-48.788 24.758-10.203 10.14 5.14 17.765 22.408-.28 40.563-19.122 30.965-20.52 14.705-21.428 2.22zM224.287 294.123l30.79 15.798 1.32 7.565-35.132 1.77zM0 13.448l53.173 44.87-43.567 82.607L0 145.066zM0 269.61l15.248 4.727.598 1.737 1.776 32.935-8.025 37.187L0 353.391z"/><path fill="#e09d63" stroke="#e09d63" d="m382 251.26-132.259-37.62 19.122-30.965 72.019 1.714L382 210.245zM382 90.809l-53.435-22.054L382 33.856z"/><path fill="#50a9f2" stroke="#50a9f2" d="M249.741 213.64 382 251.26v65.86l-114.781-47.27-37.998-41.505zM0 0h128.56L66.85 58.952l-13.677-.633L0 13.448zM190.24 173.555l17.553 57.01-2.473 2.126-6.113 2.965-41.418 5.427-52.882-55.552-1.231-3.994 22.233-45.3z"/><path fill="#e09d63" stroke="#e09d63" d="m207.793 230.564 21.428-2.219 37.998 41.504-12.142 40.072-30.79-15.798-18.967-61.432z"/><path fill="#50a9f2" stroke="#50a9f2" d="m382 210.245-41.118-25.856-23.172-53.966 8.258-11.923L382 121.74zM84.685 266.04 74.4 335.456l-14.266-1.891-12.853-35.428 26.679-38.471zM298.85 80.95l-67.723-29.758L223.75 0h72.242l22.553 69.237-2.76 5.732zM157.79 241.083l41.417-5.427-15.062 77.045-50.635 15.303-5.55-59.568z"/><path fill="#e09d63" stroke="#e09d63" d="m57.365 248.405-42.117 25.932L0 269.61v-69.667l35.88 18.14zM104.907 185.53l52.882 55.553-29.83 27.353-43.274-2.396-10.725-6.374-7.601-8.204z"/><path fill="#50a9f2" stroke="#50a9f2" d="m241.238 114.564-10.111-63.36v-.012l67.724 29.758-47.473 38.753z"/><path fill="#e09d63" stroke="#e09d63" d="m47.281 298.137 12.853 35.428-50.537 12.631 8.025-37.187 29.388-10.937z"/><path fill="#50a9f2" stroke="#50a9f2" d="m127.96 268.436 5.55 59.568-15.96 38.457-43.15-31.005 10.285-69.416z"/></svg></g></svg>