<svg xmlns="http://www.w3.org/2000/svg" viewBox="0 0 382 382"><g fill="none" stroke="#766b23" stroke-width="2"><path d="M221.66 70.4q-3.71 2.75-5.26 7.01-.27.75.5.53.82-.23 1.55-.74a.96.96 0 0 1 1.51.86q-.12 1.79 1.43 2.17.39.1.18.44-.59.98.25 1.8a.71.71 0 0 1 .01 1q-1.43 1.47-2.29 3.57-.2.47-.02.95.68 1.77-.16 3.65a.21.21 0 0 0 .13.29l.3.1q.53.16.82-.3 1.22-1.96 1.51-4.13a.67.67 0 0 1 .96-.51l1.63.82q.56.28.93-.23.33-.48.46-1.07.16-.76.6-.12 2.29 3.35 2.4 6.82.02.71.64.36l1.83-1.04q.74-.42.22-1.1l-1.14-1.51q-.37-.49-.11-1.06l1.56-3.29q.26-.53.84-.6.56-.07 1.1-.26 2.13-.72.1-1.69l-.55-.27q-.65-.31-.63-1.02.04-1.16.59-2.12.26-.46-.22-.69l-1.45-.67q-.88-.4-.8.56.04.37-.19.65-.59.72-.77-.19-.72-3.58 1.51-6.06M239.26 72.18q.93 1.54.86 3.17a.49.49 0 0 0 .81.4q.33-.28.49-.68.2-.49.03-.99-.34-1.01.37-1.96M244.45 72.13q-.62.61-.39 1.33.18.56.66.23.2-.14.34-.36a.42.42 0 0 1 .61-.1q.81.64 1.68.3M255.37 79.98q-.59.45-.87 1-.24.46-.01.93l1.18 2.44q.24.5-.2.83-.81.61-1.87.84-.67.14-.33.75l1.43 2.5q.44.78-.45.77l-1.63-.02a.64.64 0 0 0-.59.92l1.62 3.42a.49.48-10.9 0 1-.47.69q-.9-.05-1.12.84-.13.53.29.88.88.72.06 1.55-.61.6.24.71.57.07 1.01-.31 1.52-1.29 1.29.69c-.17 1.45.02 3.49 1.36 4.38q.44.28.54-.23.15-.7-.27-1.28-.4-.56-.08-1.17.46-.87.92-1.8.3-.6.54.02.06.13.16.23.52.47.72-.19.23-.74.65-1.32a.84.84 0 0 0-.17-1.17q-1.53-1.16-.34-3.16.27-.44.76-.28l2.57.83q.5.16.58.68l.18 1.13q.12.77.83.45l.24-.11a.89.89 0 0 1 1.07.27q.74.98 1.88 1.23.78.17.47-.57l-.22-.55q-.24-.58.36-.76.73-.23 1.42-.02.62.18.73.81l.76 4.01q.09.5-.07.99l-1.44 4.23a.76.75 24.2 0 0 .35.91q.5.28.1.79a.67.62-71.2 0 1-.45.24q-.91.08-1.07.93-.11.64.45.98.22.14.34.38a.49.48 78.2 0 1-.45.69q-1.17-.03-1.29 1.07a.64.64 0 0 0 .47.7q1.67.44 1.45 2.25-.12 1.03.81.57l1.65-.8q.73-.36.66-1.17-.08-1.01-.74-1.83-.44-.55.25-.67 1.78-.29 2.35 1.18a.48.48 0 0 0 .52.3q1.26-.17 2.51-.3 2.93-.31 2.62 2.62c-.43 3.95-1.61 7.19-.52 11.39q.17.64.75.33l1.66-.89a.74.74 0 0 0 .3-.99l-.69-1.34a.97.97 0 0 1 1.14-1.37l3.68 1.11a.52.52 0 0 0 .63-.68q-.48-1.25.41-2.14a.57.56 52.5 0 1 .89.12q.83 1.48 1.02 3.12.34 3.07.86 6.52.06.46-.13.9-.04.07-.09.14-.51.68.34.73 1.51.09 2.69 1.06a.59.58 32.9 0 1 .16.72q-.2.41-.54.72-.07.07 0 .14l.18.21q.11.12.26.04.56-.29.77-.86.15-.38-.03-.76-.63-1.37.43-2.58a.81.81 0 0 0-.46-1.33q-.69-.13-1.14-.66a.7.67 39.4 0 1-.09-.76l1.2-2.25q.17-.32.51-.21.17.06.31.16.49.33.8-.18.79-1.3.5-2.65a1.09 1.08-36.1 0 1 .13-.81q.54-.87 1.47-.76.62.08 1.41.98 1.87 2.14 4 2.6M289.22 253.83l-1.66-2.89a.99.97-47.9 0 1-.04-.93l1.19-2.5a1.43 1.43 0 0 0-1.44-2.04q-.79.08-1.58-.1c-1.96-.44-2.21-2.26-1.03-3.57q.42-.47.84-.93.67-.74-.3-.94c-2.24-.46-4.89-2.08-2.09-4.59q1.56-1.39-.51-1.29-1.52.08-1.8-1.7-.09-.62-.69-.48-.16.04-.33.03-.79-.05-.41-.74 1.25-2.28.34-4.94-.09-.27-.37-.24l-.42.04q-.66.06-.43.68.62 1.63-.96 1.99a.57.57 0 0 1-.55-.16q-.16-.16-.39-.17-.56-.02-.5.54.04.37-.14.68a.64.64 0 0 1-1.12-.03l-2.07-3.95q-.5-.96-1.06-.03l-.28.47a1.96 1.95 54.6 0 0-.24 1.44l.89 4.14a1.22 1.21 78.1 0 1-.93 1.44q-.6.12-1.03.56a.61.61 0 0 0-.04.81q.35.43.89.54.46.09.74.46.41.52.58 1.19a.55.55 0 0 0 .77.36l.8-.38q1.66-.79 1.13.97-1.01 3.36-3.51 6.56a.73.73 0 0 0 .03.95q.62.7.36 1.5-.18.57-.55.09-.31-.4-.44-.89-.14-.5-.64-.67-1.16-.41-1.49-1.79-.15-.64-.78-.43l-.31.1q-.66.22-.59.92.07.77.58 1.34.43.48-.05.91-.74.67-1.63.31-.47-.2-.95-.01-1.83.7-2.9 1.96a.98.96 17.6 0 0 .84 1.59q.29-.02.55.12.64.37-.01.74-.24.14-.36.39a.51.51 0 0 0 .21.65q.32.18.45.51.18.46-.29.33-.38-.11-.62-.43a.62.6 53.4 0 0-.83-.13c-1.03.72-.85 1.92-1.09 2.95q-.34 1.47-.98.1-1.14-2.48-1.01-5.64.01-.26-.25-.28l-.26-.01q-.33-.02-.41.3l-.14.57q-.16.63-.74.36l-1.7-.76a.84.83-59.8 0 1-.33-1.26q.81-1.06 1.75-2.06.13-.14.17-.32.05-.19-.01-.39-.16-.58-.72-.38l-.52.18a1.01.99 53.7 0 1-.98-.16q-.7-.56-.85-1.34-.12-.64.49-.87l1.13-.42a.75.75 0 0 0 .3-1.21l-1.39-1.53q-.39-.42-.07-.91 1.09-1.69-.76-2.85a.76.75-62.5 0 1-.29-.94q.51-1.15 1.11-2.29.46-.86-.24-1.5a.82.82 0 0 0-.98-.08q-.76.49-1.68.39-.58-.07-.88-.57l-1.37-2.24q-.11-.18-.31-.13l-.62.13a.27.26-24.5 0 0-.16.41q.57.74.63 1.59.05.51-.34.86-.87.79-1.36 1.82-.19.41.06.79l.61.91q.33.49-.23.66-.29.09-.36.37-.13.53.41.58 1.46.15 1.37 1.62c-.07 1.24-1.61 2.47-2.52 3.17a.88.87 68 0 1-1.4-.6l-.05-.42q-.08-.62-.65-.37l-3.8 1.65q-.52.23-.54.79-.02.62.38 1.16.37.49.02 1-.51.74-1.36.91a.85.84 81.3 0 1-1-.74l-.27-2.68q-.1-.99-.74-.22-.63.76-1.59.73a.37.36-69.7 0 1-.27-.59q1.4-1.81-.49-3.17a.88.88 0 0 1-.29-1.07q.54-1.23-.07-2.47-.25-.5.17-.88l1.03-.93q.62-.55-.2-.69-1.39-.23-1.4-1.47c-.02-1.09.68-1.95.99-2.95q.21-.68-.47-.47l-2.26.7a.89.89 0 0 1-1.15-.77q-.13-1.62-1.1-2.82a.53.52-56 0 0-.91.18q-.18.57.15 1.05.36.53.13 1.13l-.73 1.93q-.24.64.01 1.27l1.37 3.32a1.16 1.16 0 0 1-.57 1.49l-3.97 1.9q-.42.21-.89.2-.55-.02-1.05.18a.86.86 0 0 0-.55.79l-.08 4.23q-.02 1.46-1.28.73-.79-.46-.76-1.67.06-2.07-1.2-.43-.23.29-.44.6-.95 1.39-1.09-.29-.25-3.15-2.31-5.88-.32-.43-.29-.96l.02-.36q.03-.55-.36-.95-1.75-1.83-.78-3.95a1.25 1.25 0 0 0-.06-1.17l-.23-.39a.46.46 0 0 0-.83.09q-.61 1.71-2.7 2.16-.48.1-.76-.3-1.07-1.46-3.19-1.37-.69.03-.24.55 1.61 1.88 1.59 4.54c-.02 1.52.79 2.68 2.23 3.12q.66.2.71.88.12 1.66-.49 3.13-.28.68.18 1.26.32.41-.44.66a.37.18 19.3 0 1-.09.01h-1.34q-.79 0-.35.66l.43.64a.95.93 49.1 0 1-.07 1.13l-1.61 1.87a.83.82 31.8 0 0 .31 1.3l1.05.44q.51.21.46.76-.05.54-.45.91a.8.79 56.9 0 0-.19.93l.27.58q.28.61-.38.67-.72.07-1.26-.56a.57.57 0 0 0-1 .34q-.04.84-.71 1.72M79.58 145.77q2.7-1.37 3.76-5.44c.3-1.18-.17-2.31-.77-3.27a.58.57-37.7 0 0-.88-.11q-.69.64-.79 1.65-.03.32-.34.28l-.35-.05a.33.33 0 0 1-.29-.37q.24-2.07-.46-3.72-.23-.53.2-.92.66-.59 1.53-.86.42-.14.36-.58-.22-1.66.86-3.3.32-.49.09-1.01l-.94-2.12M83.77 122.38l.31 3.91a.47.46-23.9 0 0 .78.3q.68-.63 1.49-.61.68.02.31.6l-.21.32q-.3.48-.04.98 1.01 1.94 1.27 4.09.18 1.45 1.24 2.52 1.12 1.14.99-.46-.15-1.89.73-3.4a.82.81 33.8 0 1 1.2-.23q1.14.89 2.38.03.61-.43.85.28c.34 1.05.84 1.98.12 3.05q-.73 1.07-1.01 2.33a1.19 1.19 0 0 0 1.44 1.42q1.49-.37 3.14.89.37.28.34.75-.12 1.68-1.47 2.74-.75.6.12 1.01l2.71 1.27a.98.98 0 0 1 .56.9q-.03 1.69-1.24 2.8-1.39 1.28.49 1.04 1.73-.23 1.9 1.51.05.5.52.7.21.08.42.07.8-.07.44.65-1.19 2.35-.11 4.98.25.6.81.28l.23-.14q.28-.15.13-.43-.64-1.26.4-2.01a.73.71 39.6 0 1 .75-.06q.35.17.7.17a.41.4-4.2 0 0 .41-.46q-.12-.91.8-.93.46-.01.66.4l1.87 3.82q.44.91.97.04l.47-.77q.53-.88.15-1.84-.74-1.83-.77-3.98-.01-.62.57-.87.53-.22 1.07-.48.41-.21.38-.67a.83.82-86.8 0 0-.66-.75q-1.25-.26-1.48-1.48a.87.87 0 0 0-1.54-.38q-.39.5-.98.48-.72-.02-.53-.72 1.06-3.93 3.59-7.09.4-.5.08-1.05-.39-.67-.48-1.48-.01-.16.13-.23l.24-.1a.3.29-17.1 0 1 .42.22q.2 1.13 1.15 1.62.52.27.81.77l.52.9q.29.48.85.47.38-.01.56-.33.22-.39.11-.83-.14-.58-.44-1.1a.83.82-35.5 0 1 .18-1.04q.7-.61 1.57-.22.5.22.98-.04 1.25-.66 2.36-1.47.59-.44.53-1.1-.05-.63-.66-.79l-.6-.16q-.83-.21-.32-.91.41-.56.03-1.13-.52-.78.41-.64.05.01.07.06a.72.71 51 0 0 1.32.14q.6-1.16.78-2.43.26-1.93 1.07-.16 1.13 2.46.85 5.5-.03.36.32.38l.28.01a.3.3 0 0 0 .32-.26q.07-.53.3-.97.25-.48.7-.17.71.48 1.52.7a.92.91 29.9 0 1 .41 1.51q-.95.99-1.8 2.02-.28.33-.09.77.23.52.74.26l.63-.32q.49-.25.87.14.6.6.79 1.43.16.68-.5.91l-1 .35q-.64.22-.45.86.32 1.13 1.39 1.8a.69.69 0 0 1 .22.96q-1.19 1.83.78 3.04a.63.62 28.9 0 1 .24.8l-.97 2.03q-1.24 2.59 1.59 1.66 2.29-.75 3.2 2.49a.39.39 0 0 0 .42.28l.47-.06q.49-.06.26-.5-.98-1.83.56-3.24.75-.69.51-1.67-.21-.91-.1-1.8.07-.52-.41-.75-1.66-.78-.87-2.53.69-1.51 2.34-2.37a.8.78 49.7 0 1 .86.08q.41.33.42.87a.48.48 0 0 0 .67.44l3.79-1.67q.52-.23.51-.8-.01-.74-.28-1.18a1.2 1.2 0 0 1 .99-1.83q1.96-.04 1.33 2.75a.71.7 75.8 0 0 1.15.69q.55-.49 1.22-.5.79-.01.32.62-1.36 1.81.66 3.12a.82.82 0 0 1 .22 1.15q-.77 1.11.02 2.2.4.55-.08 1.01l-1.14 1.1a.27.27 0 0 0 .15.46q2.53.39.8 3.91-.85 1.74.83.83.95-.51 2-.32.91.17.91 1.1.01 1.36 1.01 2.25.69.6.8-.31.09-.64-.25-1.13-.33-.5-.01-1 .63-.98.9-2.13.12-.5-.07-.97l-1.38-3.48a1.14 1.12-21.2 0 1 .66-1.47l5.88-2.2q.52-.2.49-.75-.08-1.99-.04-3.93.01-.87.93-1.03.87-.16.99.72l.21 1.55a.52.51 60.8 0 0 .91.26l.84-1.03q.86-1.04.96.31.25 3.44 2.63 6.37a.65.63-58.9 0 1 .13.55l-.07.39a.98.95-62.3 0 0 .26.87q1.77 1.8.74 3.97a1.18 1.18 0 0 0 .15 1.25l.23.29q.54.66.9-.12.74-1.62 2.58-2.05.44-.11.73.23 1.27 1.51 3.27 1.34.77-.07.22-.61-1.81-1.81-1.61-4.51a2.7 2.7 0 0 0-1.43-2.57q-2.47-1.29-1.04-4.19.28-.57-.03-1.13-.06-.12-.09-.24-.11-.57.47-.63l1.6-.14q.68-.07.21-.55-.51-.54-.61-1.19-.09-.56.27-.98l1.46-1.69q.88-1.02-.43-1.36-.74-.18-1.11-.72-.33-.46-.02-.93.62-.94.2-1.93-.31-.73.47-.58.6.12 1.12.49.99.71 1.01-.5.01-.37.27-.57.52-.39.64.25l.15.8q.07.39.43.23l.44-.19q.18-.07.14-.26-.24-.98-.12-1.7.05-.28.33-.26l.28.02a.4.4 0 0 1 .37.41q-.02.54.16.86.33.57.77.08.17-.19.4-.28.66-.24.66.46l-.01 1.44q0 .26.23.37l.32.13q.28.12.33-.18.25-1.35 1.3-2.35a.54.53-26.4 0 1 .9.3q.11.69.09 1.41-.02.41.26.7.24.24.58.29.61.09.78-.51.2-.7-.18-1.35-.35-.59.02-1.17.27-.41.31-.89.04-.59-.32-1.06-.31-.39-.12-.83.31-.7 1.04-.9 1.95-.53 1.49-2.62-.05-.21-.22-.35t-.32-.06q-.36.18-.38.58-.04.44-.33.75-.41.42-.74-.07-.68-1.01-1.78-1.44-.62-.24-.88.37l-.47 1.12q-.3.73-.8.13c-1.98-2.37-1.35-4.54-2.24-7.15q-.15-.43-.62-.47l-1.61-.12a.8.8 0 0 1-.58-1.29q2.9-3.75 3.61-7.43a.32.31-79.6 0 1 .36-.25q.16.03.31-.03.64-.27.15-.75-1.48-1.44-1.54-3.46-.04-.96-.6-.18-.87 1.19-1.27 2.67a.98.97-4.5 0 1-.56.65q-.69.29-1.29-.23a.87.86 55.1 0 0-.87-.16q-1.82.67-2.12-1.33-.27-1.87-.24-3.84 0-.19-.19-.18-.45.03-1.27.83-.29.29-.13.66l.24.55q.25.55-.14 1.02-.9 1.08-2.29.89" vector-effect="non-scaling-stroke"/><path d="M170.15 104.06q-.05-.48-.27-.75a.34.34 0 0 0-.58.1q-.06.18.14.4.27.29.71.25" vector-effect="non-scaling-stroke"/><path d="M170.15 104.06q-1.83 1.96-.92 4.36.19.48.55.85l.91.94q.69.71-.3.77-1.64.09-3.13.87a.73.73 0 0 1-1.03-.41q-.67-1.91-2.58-2.61-.53-.19-.59-.74-.23-1.81.61-3.56.27-.57 0-1.14-.33-.72-1.04-1.13a.8.8 0 0 1-.39-.81q.06-.36.31-.62a1.25 1.24-22 0 0 .32-.75q.07-1.08-.82-1.65-.42-.26-.88-.06l-.4.18q-.73.33-.74-.48 0-1.06-.57-1.93-.33-.52.15-.9 3.46-2.68 6.62-3.48.57-.15.35-.69-.29-.72-.01-1.47.39-1.01-.6-.58-.67.28-1.3.71-.53.36-.67-.27c-.21-1 .06-2.09.08-3.11q.03-1.25 1.16-1.52.76-.18.19-.71-.17-.16-.24-.39-.14-.48.05-.94 1.1-2.67.49-5.58M174.18 72.5q1.12.26 2.34 2.1a.26.25 45.7 0 0 .42.01q.59-.86 1.48-.5.53.2.6.76.05.34.27.61.53.66.61-.19l.23-2.36a1.01 1.01 0 0 1 .6-.84l.61-.27q.69-.31.24-.91l-.67-.87M289.88 265.52l-.03.79M220.47 309.87q-.5-.55-.35-2.45a1.41 1.41 0 0 0-1.64-1.51q-1.29.22-1.38-1.02-.15-2.23.62-4.65.18-.55-.08-1.06l-.18-.35q-.16-.32.14-.51.18-.12.39-.06.69.19.76-.53l.37-3.97a.5.5 0 0 0-.77-.46q-.64.42-1.33.61-1.03.28-.57-.68.36-.74 0-1.43-.31-.61.36-.72 3.07-.54 6.63-3.37.45-.36.12-.84-.59-.87-.61-1.97 0-.84-.75-.46l-.29.15q-.58.3-1.08-.13-1.34-1.14-.26-2.59.49-.66-.25-1.02-.63-.31-.97-.91a1.53 1.53 0 0 1-.04-1.38q.77-1.65.63-3.45a1.2 1.19 9 0 0-.75-1.03q-1.77-.72-2.44-2.49-.29-.78-1.02-.37-1.39.77-3.01.76a.5.5 0 0 0-.31.89q2.66 2.12 1 5.26a.89.88 44.7 0 0 .01.84q.11.21.21.42.06.13-.03.25-.09.13-.28.13-.09 0-.15-.07-.92-1.25-2.24-.22a1.3 1.29-26.1 0 0-.46 1.33q.34 1.31-.8 1.97a.38.37-16.4 0 1-.56-.3l-.23-4.01a1.21 1.2.8 0 0-1.1-1.13q-.57-.05-1.03.2-.43.24-.83-.04-.45-.31-1-.35a.88.88 0 0 0-.9.56q-.65 1.61-1.38 3.08-.03.06-.1.1-.14.07-.3.04-.26-.05-.23-.31.22-2.41-1.52-3.65-.34-.25.02-.46 1.33-.78 1.45-2.69a2.76 2.74-27.3 0 1 .43-1.33l2.61-4.19a.78.78 0 0 0-.63-1.2l-1.55-.06a.63.62 83.2 0 1-.59-.47l-.72-2.67q-.13-.5.06-.98.38-1.01-.35-1.57M162.32 75.38q.84 1.95 2.71 1.57M294.58 106.92q.43 1.7 1.46 2.66.41.39.78-.03.42-.48.58-1.5M300.59 109.76q.43.82 1.15 1.47M301.78 111.78c-.76 2.19-1.82 8.88.69 10.02M216.2 311.15q-.23-.77-.82-1.07a.89.89 0 0 0-1.22.48q-.22.57.06 1.26M212.45 312.21q-.15-.46-.41-.71-.4-.38-.86-.05-.72.53-.98 1.52M208.82 313.49q.75-2.97-1.37-3.93-.42-.19-.53-.64-.04-.2-.18-.36-.46-.51-.89.03-.41.52-1 .28-.51-.2-.65-.72-.12-.42-.43-.7-.59-.54-.69.26-.15 1.28-.29 2.53-.05.48-.43.8-.13.11-.29.11-.97.03-.5.86.33.58.59 1.2.21.52.76.66l3.37.82M185.12 120.29a.38.38 0 0 0 .04.51q.27.27.56-.06a.39.39 0 0 0-.1-.6q-.28-.15-.5.15M135.26 143.19q-.24.22-.12.52a.29.29 0 0 0 .52.05q.2-.35-.12-.59a.22.21 40.6 0 0-.28.02M97.86 144.51a.39.39 0 0 0-.39-.39.39.39 0 0 0-.39.39.39.39 0 0 0 .39.39.39.39 0 0 0 .39-.39M157.01 146.5q.01.43.42.29.23-.07.2-.32-.02-.22-.23-.28-.39-.1-.39.31M99.55 150.13a.45.44-38.9 0 0-.09.76q.58.44 1.15.02a.47.47 0 0 0-.13-.82q-.48-.17-.93.04M103.27 158.26a.37.37 0 0 0 .19.63q.29.05.41-.25.08-.2-.03-.36-.24-.34-.57-.02M279.36 224.979a.44.34 103.1 0 0 .431-.352.44.34 103.1 0 0-.231-.506.44.34 103.1 0 0-.431.352.44.34 103.1 0 0 .231.505M282.21 232.59q.35.58 1.26.45a.35.34-.2 0 0 .29-.28q.18-.95-1.06-1a.55.55 0 0 0-.49.83M225.8 236.529a.33.28-.2 0 0-.331-.279.33.28-.2 0 0-.329.281.33.28-.2 0 0 .331.279.33.28-.2 0 0 .329-.281M285.88 238.53a.43.43 0 0 0-.43-.43.43.43 0 0 0-.43.43.43.43 0 0 0 .43.43.43.43 0 0 0 .43-.43M247.74 239.7q.28-.32-.13-.41-.42-.1-.29.32t.42.09M164.51 78.07q-.49.04-.13.52.29.37.47-.03a.35.34-80.2 0 0-.34-.49" vector-effect="non-scaling-stroke"/><path d="M218.98 304.84q.06-.42-.33-.57-.16-.05-.25.08-.36.47.2.7.33.13.38-.21" vector-effect="non-scaling-stroke"/></g><path d="M221.66 70.4q-3.71 2.75-5.26 7.01-.27.75.5.53.82-.23 1.55-.74a.96.96 0 0 1 1.51.86q-.12 1.79 1.43 2.17.39.1.18.44-.59.98.25 1.8a.71.71 0 0 1 .01 1q-1.43 1.47-2.29 3.57-.2.47-.02.95.68 1.77-.16 3.65a.21.21 0 0 0 .13.29l.3.1q.53.16.82-.3 1.22-1.96 1.51-4.13a.67.67 0 0 1 .96-.51l1.63.82q.56.28.93-.23.33-.48.46-1.07.16-.76.6-.12 2.29 3.35 2.4 6.82.02.71.64.36l1.83-1.04q.74-.42.22-1.1l-1.14-1.51q-.37-.49-.11-1.06l1.56-3.29q.26-.53.84-.6.56-.07 1.1-.26 2.13-.72.1-1.69l-.55-.27q-.65-.31-.63-1.02.04-1.16.59-2.12.26-.46-.22-.69l-1.45-.67q-.88-.4-.8.56.04.37-.19.65-.59.72-.77-.19-.72-3.58 1.51-6.06l7.63-1.13q.93 1.54.86 3.17a.49.49 0 0 0 .81.4q.33-.28.49-.68.2-.49.03-.99-.34-1.01.37-1.96l2.63.01q-.62.61-.39 1.33.18.56.66.23.2-.14.34-.36a.42.42 0 0 1 .61-.1q.81.64 1.68.3l8.02 6.45q-.59.45-.87 1-.24.46-.01.93l1.18 2.44q.24.5-.2.83-.81.61-1.87.84-.67.14-.33.75l1.43 2.5q.44.78-.45.77l-1.63-.02a.64.64 0 0 0-.59.92l1.62 3.42a.49.48-10.9 0 1-.47.69q-.9-.05-1.12.84-.13.53.29.88.88.72.06 1.55-.61.6.24.71.57.07 1.01-.31 1.52-1.29 1.29.69c-.17 1.45.02 3.49 1.36 4.38q.44.28.54-.23.15-.7-.27-1.28-.4-.56-.08-1.17.46-.87.92-1.8.3-.6.54.02.06.13.16.23.52.47.72-.19.23-.74.65-1.32a.84.84 0 0 0-.17-1.17q-1.53-1.16-.34-3.16.27-.44.76-.28l2.57.83q.5.16.58.68l.18 1.13q.12.77.83.45l.24-.11a.89.89 0 0 1 1.07.27q.74.98 1.88 1.23.78.17.47-.57l-.22-.55q-.24-.58.36-.76.73-.23 1.42-.02.62.18.73.81l.76 4.01q.09.5-.07.99l-1.44 4.23a.76.75 24.2 0 0 .35.91q.5.28.1.79a.67.62-71.2 0 1-.45.24q-.91.08-1.07.93-.11.64.45.98.22.14.34.38a.49.48 78.2 0 1-.45.69q-1.17-.03-1.29 1.07a.64.64 0 0 0 .47.7q1.67.44 1.45 2.25-.12 1.03.81.57l1.65-.8q.73-.36.66-1.17-.08-1.01-.74-1.83-.44-.55.25-.67 1.78-.29 2.35 1.18a.48.48 0 0 0 .52.3q1.26-.17 2.51-.3 2.93-.31 2.62 2.62c-.43 3.95-1.61 7.19-.52 11.39q.17.64.75.33l1.66-.89a.74.74 0 0 0 .3-.99l-.69-1.34a.97.97 0 0 1 1.14-1.37l3.68 1.11a.52.52 0 0 0 .63-.68q-.48-1.25.41-2.14a.57.56 52.5 0 1 .89.12q.83 1.48 1.02 3.12.34 3.07.86 6.52.06.46-.13.9-.04.07-.09.14-.51.68.34.73 1.51.09 2.69 1.06a.59.58 32.9 0 1 .16.72q-.2.41-.54.72-.07.07 0 .14l.18.21q.11.12.26.04.56-.29.77-.86.15-.38-.03-.76-.63-1.37.43-2.58a.81.81 0 0 0-.46-1.33q-.69-.13-1.14-.66a.7.67 39.4 0 1-.09-.76l1.2-2.25q.17-.32.51-.21.17.06.31.16.49.33.8-.18.79-1.3.5-2.65a1.09 1.08-36.1 0 1 .13-.81q.54-.87 1.47-.76.62.08 1.41.98 1.87 2.14 4 2.6-.36 4.56-1.17 8.34c-.69 3.17.97 5.1 2.54 7.46q.4.6.39 1.31-.11 8.86.02 17.16.08 4.97-1.29 12.64-4.19 23.52-8.05 47.17-1.36 8.31-3 17.5-1.56 8.74-2.66 17.58l-1.66-2.89a.99.97-47.9 0 1-.04-.93l1.19-2.5a1.43 1.43 0 0 0-1.44-2.04q-.79.08-1.58-.1c-1.96-.44-2.21-2.26-1.03-3.57q.42-.47.84-.93.67-.74-.3-.94c-2.24-.46-4.89-2.08-2.09-4.59q1.56-1.39-.51-1.29-1.52.08-1.8-1.7-.09-.62-.69-.48-.16.04-.33.03-.79-.05-.41-.74 1.25-2.28.34-4.94-.09-.27-.37-.24l-.42.04q-.66.06-.43.68.62 1.63-.96 1.99a.57.57 0 0 1-.55-.16q-.16-.16-.39-.17-.56-.02-.5.54.04.37-.14.68a.64.64 0 0 1-1.12-.03l-2.07-3.95q-.5-.96-1.06-.03l-.28.47a1.96 1.95 54.6 0 0-.24 1.44l.89 4.14a1.22 1.21 78.1 0 1-.93 1.44q-.6.12-1.03.56a.61.61 0 0 0-.04.81q.35.43.89.54.46.09.74.46.41.52.58 1.19a.55.55 0 0 0 .77.36l.8-.38q1.66-.79 1.13.97-1.01 3.36-3.51 6.56a.73.73 0 0 0 .03.95q.62.7.36 1.5-.18.57-.55.09-.31-.4-.44-.89-.14-.5-.64-.67-1.16-.41-1.49-1.79-.15-.64-.78-.43l-.31.1q-.66.22-.59.92.07.77.58 1.34.43.48-.05.91-.74.67-1.63.31-.47-.2-.95-.01-1.83.7-2.9 1.96a.98.96 17.6 0 0 .84 1.59q.29-.02.55.12.64.37-.01.74-.24.14-.36.39a.51.51 0 0 0 .21.65q.32.18.45.51.18.46-.29.33-.38-.11-.62-.43a.62.6 53.4 0 0-.83-.13c-1.03.72-.85 1.92-1.09 2.95q-.34 1.47-.98.1-1.14-2.48-1.01-5.64.01-.26-.25-.28l-.26-.01q-.33-.02-.41.3l-.14.57q-.16.63-.74.36l-1.7-.76a.84.83-59.8 0 1-.33-1.26q.81-1.06 1.75-2.06.13-.14.17-.32.05-.19-.01-.39-.16-.58-.72-.38l-.52.18a1.01.99 53.7 0 1-.98-.16q-.7-.56-.85-1.34-.12-.64.49-.87l1.13-.42a.75.75 0 0 0 .3-1.21l-1.39-1.53q-.39-.42-.07-.91 1.09-1.69-.76-2.85a.76.75-62.5 0 1-.29-.94q.51-1.15 1.11-2.29.46-.86-.24-1.5a.82.82 0 0 0-.98-.08q-.76.49-1.68.39-.58-.07-.88-.57l-1.37-2.24q-.11-.18-.31-.13l-.62.13a.27.26-24.5 0 0-.16.41q.57.74.63 1.59.05.51-.34.86-.87.79-1.36 1.82-.19.41.06.79l.61.91q.33.49-.23.66-.29.09-.36.37-.13.53.41.58 1.46.15 1.37 1.62c-.07 1.24-1.61 2.47-2.52 3.17a.88.87 68 0 1-1.4-.6l-.05-.42q-.08-.62-.65-.37l-3.8 1.65q-.52.23-.54.79-.02.62.38 1.16.37.49.02 1-.51.74-1.36.91a.85.84 81.3 0 1-1-.74l-.27-2.68q-.1-.99-.74-.22-.63.76-1.59.73a.37.36-69.7 0 1-.27-.59q1.4-1.81-.49-3.17a.88.88 0 0 1-.29-1.07q.54-1.23-.07-2.47-.25-.5.17-.88l1.03-.93q.62-.55-.2-.69-1.39-.23-1.4-1.47c-.02-1.09.68-1.95.99-2.95q.21-.68-.47-.47l-2.26.7a.89.89 0 0 1-1.15-.77q-.13-1.62-1.1-2.82a.53.52-56 0 0-.91.18q-.18.57.15 1.05.36.53.13 1.13l-.73 1.93q-.24.64.01 1.27l1.37 3.32a1.16 1.16 0 0 1-.57 1.49l-3.97 1.9q-.42.21-.89.2-.55-.02-1.05.18a.86.86 0 0 0-.55.79l-.08 4.23q-.02 1.46-1.28.73-.79-.46-.76-1.67.06-2.07-1.2-.43-.23.29-.44.6-.95 1.39-1.09-.29-.25-3.15-2.31-5.88-.32-.43-.29-.96l.02-.36q.03-.55-.36-.95-1.75-1.83-.78-3.95a1.25 1.25 0 0 0-.06-1.17l-.23-.39a.46.46 0 0 0-.83.09q-.61 1.71-2.7 2.16-.48.1-.76-.3-1.07-1.46-3.19-1.37-.69.03-.24.55 1.61 1.88 1.59 4.54c-.02 1.52.79 2.68 2.23 3.12q.66.2.71.88.12 1.66-.49 3.13-.28.68.18 1.26.32.41-.44.66a.37.18 19.3 0 1-.09.01h-1.34q-.79 0-.35.66l.43.64a.95.93 49.1 0 1-.07 1.13l-1.61 1.87a.83.82 31.8 0 0 .31 1.3l1.05.44q.51.21.46.76-.05.54-.45.91a.8.79 56.9 0 0-.19.93l.27.58q.28.61-.38.67-.72.07-1.26-.56a.57.57 0 0 0-1 .34q-.04.84-.71 1.72.5-2.21.34-4.25-.54-7.13-1.24-13.66c-.87-8.24-.44-17.39-8.17-22.49q-2.92-1.93-8.82-2.88c-8.14-1.3-15.59-1.38-23.68-1.28-3.02.04-6.38-1.45-8.82-3.43q-13.82-11.27-18.51-14.66-14.19-10.26-30.71-11.81-4.3-.41-7.51-1.23c-12.31-3.13-18.44-13.8-17.35-26.11.22-2.48-.45-4.63-1.23-6.94q2.7-1.37 3.76-5.44c.3-1.18-.17-2.31-.77-3.27a.58.57-37.7 0 0-.88-.11q-.69.64-.79 1.65-.03.32-.34.28l-.35-.05a.33.33 0 0 1-.29-.37q.24-2.07-.46-3.72-.23-.53.2-.92.66-.59 1.53-.86.42-.14.36-.58-.22-1.66.86-3.3.32-.49.09-1.01l-.94-2.12 2.21-3.57.31 3.91a.47.46-23.9 0 0 .78.3q.68-.63 1.49-.61.68.02.31.6l-.21.32q-.3.48-.04.98 1.01 1.94 1.27 4.09.18 1.45 1.24 2.52 1.12 1.14.99-.46-.15-1.89.73-3.4a.82.81 33.8 0 1 1.2-.23q1.14.89 2.38.03.61-.43.85.28c.34 1.05.84 1.98.12 3.05q-.73 1.07-1.01 2.33a1.19 1.19 0 0 0 1.44 1.42q1.49-.37 3.14.89.37.28.34.75-.12 1.68-1.47 2.74-.75.6.12 1.01l2.71 1.27a.98.98 0 0 1 .56.9q-.03 1.69-1.24 2.8-1.39 1.28.49 1.04 1.73-.23 1.9 1.51.05.5.52.7.21.08.42.07.8-.07.44.65-1.19 2.35-.11 4.98.25.6.81.28l.23-.14q.28-.15.13-.43-.64-1.26.4-2.01a.73.71 39.6 0 1 .75-.06q.35.17.7.17a.41.4-4.2 0 0 .41-.46q-.12-.91.8-.93.46-.01.66.4l1.87 3.82q.44.91.97.04l.47-.77q.53-.88.15-1.84-.74-1.83-.77-3.98-.01-.62.57-.87.53-.22 1.07-.48.41-.21.38-.67a.83.82-86.8 0 0-.66-.75q-1.25-.26-1.48-1.48a.87.87 0 0 0-1.54-.38q-.39.5-.98.48-.72-.02-.53-.72 1.06-3.93 3.59-7.09.4-.5.08-1.05-.39-.67-.48-1.48-.01-.16.13-.23l.24-.1a.3.29-17.1 0 1 .42.22q.2 1.13 1.15 1.62.52.27.81.77l.52.9q.29.48.85.47.38-.01.56-.33.22-.39.11-.83-.14-.58-.44-1.1a.83.82-35.5 0 1 .18-1.04q.7-.61 1.57-.22.5.22.98-.04 1.25-.66 2.36-1.47.59-.44.53-1.1-.05-.63-.66-.79l-.6-.16q-.83-.21-.32-.91.41-.56.03-1.13-.52-.78.41-.64.05.01.07.06a.72.71 51 0 0 1.32.14q.6-1.16.78-2.43.26-1.93 1.07-.16 1.13 2.46.85 5.5-.03.36.32.38l.28.01a.3.3 0 0 0 .32-.26q.07-.53.3-.97.25-.48.7-.17.71.48 1.52.7a.92.91 29.9 0 1 .41 1.51q-.95.99-1.8 2.02-.28.33-.09.77.23.52.74.26l.63-.32q.49-.25.87.14.6.6.79 1.43.16.68-.5.91l-1 .35q-.64.22-.45.86.32 1.13 1.39 1.8a.69.69 0 0 1 .22.96q-1.19 1.83.78 3.04a.63.62 28.9 0 1 .24.8l-.97 2.03q-1.24 2.59 1.59 1.66 2.29-.75 3.2 2.49a.39.39 0 0 0 .42.28l.47-.06q.49-.06.26-.5-.98-1.83.56-3.24.75-.69.51-1.67-.21-.91-.1-1.8.07-.52-.41-.75-1.66-.78-.87-2.53.69-1.51 2.34-2.37a.8.78 49.7 0 1 .86.08q.41.33.42.87a.48.48 0 0 0 .67.44l3.79-1.67q.52-.23.51-.8-.01-.74-.28-1.18a1.2 1.2 0 0 1 .99-1.83q1.96-.04 1.33 2.75a.71.7 75.8 0 0 1.15.69q.55-.49 1.22-.5.79-.01.32.62-1.36 1.81.66 3.12a.82.82 0 0 1 .22 1.15q-.77 1.11.02 2.2.4.55-.08 1.01l-1.14 1.1a.27.27 0 0 0 .15.46q2.53.39.8 3.91-.85 1.74.83.83.95-.51 2-.32.91.17.91 1.1.01 1.36 1.01 2.25.69.6.8-.31.09-.64-.25-1.13-.33-.5-.01-1 .63-.98.9-2.13.12-.5-.07-.97l-1.38-3.48a1.14 1.12-21.2 0 1 .66-1.47l5.88-2.2q.52-.2.49-.75-.08-1.99-.04-3.93.01-.87.93-1.03.87-.16.99.72l.21 1.55a.52.51 60.8 0 0 .91.26l.84-1.03q.86-1.04.96.31.25 3.44 2.63 6.37a.65.63-58.9 0 1 .13.55l-.07.39a.98.95-62.3 0 0 .26.87q1.77 1.8.74 3.97a1.18 1.18 0 0 0 .15 1.25l.23.29q.54.66.9-.12.74-1.62 2.58-2.05.44-.11.73.23 1.27 1.51 3.27 1.34.77-.07.22-.61-1.81-1.81-1.61-4.51a2.7 2.7 0 0 0-1.43-2.57q-2.47-1.29-1.04-4.19.28-.57-.03-1.13-.06-.12-.09-.24-.11-.57.47-.63l1.6-.14q.68-.07.21-.55-.51-.54-.61-1.19-.09-.56.27-.98l1.46-1.69q.88-1.02-.43-1.36-.74-.18-1.11-.72-.33-.46-.02-.93.62-.94.2-1.93-.31-.73.47-.58.6.12 1.12.49.99.71 1.01-.5.01-.37.27-.57.52-.39.64.25l.15.8q.07.39.43.23l.44-.19q.18-.07.14-.26-.24-.98-.12-1.7.05-.28.33-.26l.28.02a.4.4 0 0 1 .37.41q-.02.54.16.86.33.57.77.08.17-.19.4-.28.66-.24.66.46l-.01 1.44q0 .26.23.37l.32.13q.28.12.33-.18.25-1.35 1.3-2.35a.54.53-26.4 0 1 .9.3q.11.69.09 1.41-.02.41.26.7.24.24.58.29.61.09.78-.51.2-.7-.18-1.35-.35-.59.02-1.17.27-.41.31-.89.04-.59-.32-1.06-.31-.39-.12-.83.31-.7 1.04-.9 1.95-.53 1.49-2.62-.05-.21-.22-.35t-.32-.06q-.36.18-.38.58-.04.44-.33.75-.41.42-.74-.07-.68-1.01-1.78-1.44-.62-.24-.88.37l-.47 1.12q-.3.73-.8.13c-1.98-2.37-1.35-4.54-2.24-7.15q-.15-.43-.62-.47l-1.61-.12a.8.8 0 0 1-.58-1.29q2.9-3.75 3.61-7.43a.32.31-79.6 0 1 .36-.25q.16.03.31-.03.64-.27.15-.75-1.48-1.44-1.54-3.46-.04-.96-.6-.18-.87 1.19-1.27 2.67a.98.97-4.5 0 1-.56.65q-.69.29-1.29-.23a.87.86 55.1 0 0-.87-.16q-1.82.67-2.12-1.33-.27-1.87-.24-3.84 0-.19-.19-.18-.45.03-1.27.83-.29.29-.13.66l.24.55q.25.55-.14 1.02-.9 1.08-2.29.89-.05-.48-.27-.75a.34.34 0 0 0-.58.1q-.06.18.14.4.27.29.71.25-1.83 1.96-.92 4.36.19.48.55.85l.91.94q.69.71-.3.77-1.64.09-3.13.87a.73.73 0 0 1-1.03-.41q-.67-1.91-2.58-2.61-.53-.19-.59-.74-.23-1.81.61-3.56.27-.57 0-1.14-.33-.72-1.04-1.13a.8.8 0 0 1-.39-.81q.06-.36.31-.62a1.25 1.24-22 0 0 .32-.75q.07-1.08-.82-1.65-.42-.26-.88-.06l-.4.18q-.73.33-.74-.48 0-1.06-.57-1.93-.33-.52.15-.9 3.46-2.68 6.62-3.48.57-.15.35-.69-.29-.72-.01-1.47.39-1.01-.6-.58-.67.28-1.3.71-.53.36-.67-.27c-.21-1 .06-2.09.08-3.11q.03-1.25 1.16-1.52.76-.18.19-.71-.17-.16-.24-.39-.14-.48.05-.94 1.1-2.67.49-5.58c5.19 3.11 6.31-1.71 8.45-4.71q1.12.26 2.34 2.1a.26.25 45.7 0 0 .42.01q.59-.86 1.48-.5.53.2.6.76.05.34.27.61.53.66.61-.19l.23-2.36a1.01 1.01 0 0 1 .6-.84l.61-.27q.69-.31.24-.91l-.67-.87c1.84.03 3.48.98 4.81 1.24 3.7.74 6.23-1.29 9.08-1.94q5.52-1.25 12.32-.67c1.48.13 3.81-1.7 5.99-1.59q.79.05 1.64.57 3.2 1.97 6.91 2.75m-36.54 49.89a.38.38 0 0 0 .04.51q.27.27.56-.06a.39.39 0 0 0-.1-.6q-.28-.15-.5.15m-49.86 22.9q-.24.22-.12.52a.29.29 0 0 0 .52.05q.2-.35-.12-.59a.22.21 40.6 0 0-.28.02m-37.4 1.32a.39.39 0 0 0-.39-.39.39.39 0 0 0-.39.39.39.39 0 0 0 .39.39.39.39 0 0 0 .39-.39m59.15 1.99q.01.43.42.29.23-.07.2-.32-.02-.22-.23-.28-.39-.1-.39.31m-57.46 3.63a.45.44-38.9 0 0-.09.76q.58.44 1.15.02a.47.47 0 0 0-.13-.82q-.48-.17-.93.04m3.72 8.13a.37.37 0 0 0 .19.63q.29.05.41-.25.08-.2-.03-.36-.24-.34-.57-.02m176.09 66.719a.44.34 103.1 0 0 .431-.352.44.34 103.1 0 0-.231-.506.44.34 103.1 0 0-.431.352.44.34 103.1 0 0 .231.505m2.85 7.611q.35.58 1.26.45a.35.34-.2 0 0 .29-.28q.18-.95-1.06-1a.55.55 0 0 0-.49.83m-56.41 3.939a.33.28-.2 0 0-.331-.279.33.28-.2 0 0-.329.281.33.28-.2 0 0 .331.279.33.28-.2 0 0 .329-.281m60.08 2.001a.43.43 0 0 0-.43-.43.43.43 0 0 0-.43.43.43.43 0 0 0 .43.43.43.43 0 0 0 .43-.43m-38.14 1.17q.28-.32-.13-.41-.42-.1-.29.32t.42.09"/><path fill="#ecd546" d="m180.91 70.04.67.87q.45.6-.24.91l-.61.27a1.01 1.01 0 0 0-.6.84l-.23 2.36q-.08.85-.61.19-.22-.27-.27-.61-.07-.56-.6-.76-.89-.36-1.48.5a.26.25 45.7 0 1-.42-.01q-1.22-1.84-2.34-2.1 2.6-3.45 6.73-2.46M221.66 70.4l9.97 2.91q-2.23 2.48-1.51 6.06.18.91.77.19.23-.28.19-.65-.08-.96.8-.56l1.45.67q.48.23.22.69-.55.96-.59 2.12-.02.71.63 1.02l.55.27q2.03.97-.1 1.69-.54.19-1.1.26-.58.07-.84.6l-1.56 3.29q-.26.57.11 1.06l1.14 1.51q.52.68-.22 1.1l-1.83 1.04q-.62.35-.64-.36-.11-3.47-2.4-6.82-.44-.64-.6.12-.13.59-.46 1.07-.37.51-.93.23l-1.63-.82a.67.67 0 0 0-.96.51q-.29 2.17-1.51 4.13-.29.46-.82.3l-.3-.1a.21.21 0 0 1-.13-.29q.84-1.88.16-3.65-.18-.48.02-.95.86-2.1 2.29-3.57a.71.71 0 0 0-.01-1q-.84-.82-.25-1.8.21-.34-.18-.44-1.55-.38-1.43-2.17a.96.96 0 0 0-1.51-.86q-.73.51-1.55.74-.77.22-.5-.53 1.55-4.26 5.26-7.01M241.82 72.12q-.71.95-.37 1.96.17.5-.03.99-.16.4-.49.68a.49.49 0 0 1-.81-.4q.07-1.63-.86-3.17 1.23-.26 2.56-.06M244.45 72.13l2.9 1.4q-.87.34-1.68-.3a.42.42 0 0 0-.61.1q-.14.22-.34.36-.48.33-.66-.23-.23-.72.39-1.33M162.32 75.38q.84 1.95 2.71 1.57l.7.26q.61 2.91-.49 5.58-.19.46-.05.94.07.23.24.39.57.53-.19.71-1.13.27-1.16 1.52c-.02 1.02-.29 2.11-.08 3.11q.14.63.67.27.63-.43 1.3-.71.99-.43.6.58-.28.75.01 1.47.22.54-.35.69-3.16.8-6.62 3.48-.48.38-.15.9.57.87.57 1.93.01.81.74.48l.4-.18q.46-.2.88.06.89.57.82 1.65a1.25 1.24-22 0 1-.32.75q-.25.26-.31.62a.8.8 0 0 0 .39.81q.71.41 1.04 1.13.27.57 0 1.14-.84 1.75-.61 3.56.06.55.59.74 1.91.7 2.58 2.61a.73.73 0 0 0 1.03.41q1.49-.78 3.13-.87.99-.06.3-.77l-.91-.94q-.36-.37-.55-.85-.91-2.4.92-4.36 1.39.19 2.29-.89.39-.47.14-1.02l-.24-.55q-.16-.37.13-.66.82-.8 1.27-.83.19-.01.19.18-.03 1.97.24 3.84.3 2 2.12 1.33a.87.86 55.1 0 1 .87.16q.6.52 1.29.23a.98.97-4.5 0 0 .56-.65q.4-1.48 1.27-2.67.56-.78.6.18.06 2.02 1.54 3.46.49.48-.15.75-.15.06-.31.03a.32.31-79.6 0 0-.36.25q-.71 3.68-3.61 7.43a.8.8 0 0 0 .58 1.29l1.61.12q.47.04.62.47c.89 2.61.26 4.78 2.24 7.15q.5.6.8-.13l.47-1.12q.26-.61.88-.37 1.1.43 1.78 1.44.33.49.74.07.29-.31.33-.75.02-.4.38-.58.15-.08.32.06t.22.35q.46 2.09-1.49 2.62-.73.2-1.04.9-.19.44.12.83.36.47.32 1.06-.04.48-.31.89-.37.58-.02 1.17.38.65.18 1.35-.17.6-.78.51-.34-.05-.58-.29-.28-.29-.26-.7.02-.72-.09-1.41a.54.53-26.4 0 0-.9-.3q-1.05 1-1.3 2.35-.05.3-.33.18l-.32-.13q-.23-.11-.23-.37l.01-1.44q0-.7-.66-.46-.23.09-.4.28-.44.49-.77-.08-.18-.32-.16-.86a.4.4 0 0 0-.37-.41l-.28-.02q-.28-.02-.33.26-.12.72.12 1.7.04.19-.14.26l-.44.19q-.36.16-.43-.23l-.15-.8q-.12-.64-.64-.25-.26.2-.27.57-.02 1.21-1.01.5-.52-.37-1.12-.49-.78-.15-.47.58.42.99-.2 1.93-.31.47.02.93.37.54 1.11.72 1.31.34.43 1.36l-1.46 1.69q-.36.42-.27.98.1.65.61 1.19.47.48-.21.55l-1.6.14q-.58.06-.47.63.03.12.09.24.31.56.03 1.13-1.43 2.9 1.04 4.19a2.7 2.7 0 0 1 1.43 2.57q-.2 2.7 1.61 4.51.55.54-.22.61-2 .17-3.27-1.34-.29-.34-.73-.23-1.84.43-2.58 2.05-.36.78-.9.12l-.23-.29a1.18 1.18 0 0 1-.15-1.25q1.03-2.17-.74-3.97a.98.95-62.3 0 1-.26-.87l.07-.39a.65.63-58.9 0 0-.13-.55q-2.38-2.93-2.63-6.37-.1-1.35-.96-.31l-.84 1.03a.52.51 60.8 0 1-.91-.26l-.21-1.55q-.12-.88-.99-.72-.92.16-.93 1.03-.04 1.94.04 3.93.03.55-.49.75l-5.88 2.2a1.14 1.12-21.2 0 0-.66 1.47l1.38 3.48q.19.47.07.97-.27 1.15-.9 2.13-.32.5.01 1 .34.49.25 1.13-.11.91-.8.31-1-.89-1.01-2.25 0-.93-.91-1.1-1.05-.19-2 .32-1.68.91-.83-.83 1.73-3.52-.8-3.91a.27.27 0 0 1-.15-.46l1.14-1.1q.48-.46.08-1.01-.79-1.09-.02-2.2a.82.82 0 0 0-.22-1.15q-2.02-1.31-.66-3.12.47-.63-.32-.62-.67.01-1.22.5a.71.7 75.8 0 1-1.15-.69q.63-2.79-1.33-2.75a1.2 1.2 0 0 0-.99 1.83q.27.44.28 1.18.01.57-.51.8l-3.79 1.67a.48.48 0 0 1-.67-.44q-.01-.54-.42-.87a.8.78 49.7 0 0-.86-.08q-1.65.86-2.34 2.37-.79 1.75.87 2.53.48.23.41.75-.11.89.1 1.8.24.98-.51 1.67-1.54 1.41-.56 3.24.23.44-.26.5l-.47.06a.39.39 0 0 1-.42-.28q-.91-3.24-3.2-2.49-2.83.93-1.59-1.66l.97-2.03a.63.62 28.9 0 0-.24-.8q-1.97-1.21-.78-3.04a.69.69 0 0 0-.22-.96q-1.07-.67-1.39-1.8-.19-.64.45-.86l1-.35q.66-.23.5-.91-.19-.83-.79-1.43-.38-.39-.87-.14l-.63.32q-.51.26-.74-.26-.19-.44.09-.77.85-1.03 1.8-2.02a.92.91 29.9 0 0-.41-1.51q-.81-.22-1.52-.7-.45-.31-.7.17-.23.44-.3.97a.3.3 0 0 1-.32.26l-.28-.01q-.35-.02-.32-.38.28-3.04-.85-5.5-.81-1.77-1.07.16-.18 1.27-.78 2.43a.72.71 51 0 1-1.32-.14q-.02-.05-.07-.06-.93-.14-.41.64.38.57-.03 1.13-.51.7.32.91l.6.16q.61.16.66.79.06.66-.53 1.1-1.11.81-2.36 1.47-.48.26-.98.04-.87-.39-1.57.22a.83.82-35.5 0 0-.18 1.04q.3.52.44 1.1.11.44-.11.83-.18.32-.56.33-.56.01-.85-.47l-.52-.9q-.29-.5-.81-.77-.95-.49-1.15-1.62a.3.29-17.1 0 0-.42-.22l-.24.1q-.14.07-.13.23.09.81.48 1.48.32.55-.08 1.05-2.53 3.16-3.59 7.09-.19.7.53.72.59.02.98-.48a.87.87 0 0 1 1.54.38q.23 1.22 1.48 1.48a.83.82-86.8 0 1 .66.75q.03.46-.38.67-.54.26-1.07.48-.58.25-.57.87.03 2.15.77 3.98.38.96-.15 1.84l-.47.77q-.53.87-.97-.04l-1.87-3.82q-.2-.41-.66-.4-.92.02-.8.93a.41.4-4.2 0 1-.41.46q-.35 0-.7-.17a.73.71 39.6 0 0-.75.06q-1.04.75-.4 2.01.15.28-.13.43l-.23.14q-.56.32-.81-.28-1.08-2.63.11-4.98.36-.72-.44-.65-.21.01-.42-.07-.47-.2-.52-.7-.17-1.74-1.9-1.51-1.88.24-.49-1.04 1.21-1.11 1.24-2.8a.98.98 0 0 0-.56-.9l-2.71-1.27q-.87-.41-.12-1.01 1.35-1.06 1.47-2.74.03-.47-.34-.75-1.65-1.26-3.14-.89a1.19 1.19 0 0 1-1.44-1.42q.28-1.26 1.01-2.33c.72-1.07.22-2-.12-3.05q-.24-.71-.85-.28-1.24.86-2.38-.03a.82.81 33.8 0 0-1.2.23q-.88 1.51-.73 3.4.13 1.6-.99.46-1.06-1.07-1.24-2.52-.26-2.15-1.27-4.09-.26-.5.04-.98l.21-.32q.37-.58-.31-.6-.81-.02-1.49.61a.47.46-23.9 0 1-.78-.3l-.31-3.91c4.04-8.37 7.33-13.03 16.14-15.06q13.55-3.14 27.33-6.96c12.8-3.56 20.58-10.02 22.79-23.42a1.84 1.77-16.8 0 1 .61-1.09q5.29-4.58 11.68-.47m2.19 2.69q-.49.04-.13.52.29.37.47-.03a.35.34-80.2 0 0-.34-.49"/><path d="M165.03 76.95q-1.87.38-2.71-1.57zM164.51 78.07a.35.34-80.2 0 1 .34.49q-.18.4-.47.03-.36-.48.13-.52"/><path fill="#ecd546" d="M294.58 106.92q.43 1.7 1.46 2.66.41.39.78-.03.42-.48.58-1.5l3.19 1.71q.43.82 1.15 1.47l.04.55c-.76 2.19-1.82 8.88.69 10.02l-.03 2.87q-2.13-.46-4-2.6-.79-.9-1.41-.98-.93-.11-1.47.76a1.09 1.08-36.1 0 0-.13.81q.29 1.35-.5 2.65-.31.51-.8.18-.14-.1-.31-.16-.34-.11-.51.21l-1.2 2.25a.7.67 39.4 0 0 .09.76q.45.53 1.14.66a.81.81 0 0 1 .46 1.33q-1.06 1.21-.43 2.58.18.38.03.76-.21.57-.77.86-.15.08-.26-.04l-.18-.21q-.07-.07 0-.14.34-.31.54-.72a.59.58 32.9 0 0-.16-.72q-1.18-.97-2.69-1.06-.85-.05-.34-.73.05-.07.09-.14.19-.44.13-.9-.52-3.45-.86-6.52-.19-1.64-1.02-3.12a.57.56 52.5 0 0-.89-.12q-.89.89-.41 2.14a.52.52 0 0 1-.63.68l-3.68-1.11a.97.97 0 0 0-1.14 1.37l.69 1.34a.74.74 0 0 1-.3.99l-1.66.89q-.58.31-.75-.33c-1.09-4.2.09-7.44.52-11.39q.31-2.93-2.62-2.62-1.25.13-2.51.3a.48.48 0 0 1-.52-.3q-.57-1.47-2.35-1.18-.69.12-.25.67.66.82.74 1.83.07.81-.66 1.17l-1.65.8q-.93.46-.81-.57.22-1.81-1.45-2.25a.64.64 0 0 1-.47-.7q.12-1.1 1.29-1.07a.49.48 78.2 0 0 .45-.69q-.12-.24-.34-.38-.56-.34-.45-.98.16-.85 1.07-.93a.67.62-71.2 0 0 .45-.24q.4-.51-.1-.79a.76.75 24.2 0 1-.35-.91l1.44-4.23q.16-.49.07-.99l-.76-4.01q-.11-.63-.73-.81-.69-.21-1.42.02-.6.18-.36.76l.22.55q.31.74-.47.57-1.14-.25-1.88-1.23a.89.89 0 0 0-1.07-.27l-.24.11q-.71.32-.83-.45l-.18-1.13q-.08-.52-.58-.68l-2.57-.83q-.49-.16-.76.28-1.19 2 .34 3.16a.84.84 0 0 1 .17 1.17q-.42.58-.65 1.32-.2.66-.72.19-.1-.1-.16-.23-.24-.62-.54-.02-.46.93-.92 1.8-.32.61.08 1.17.42.58.27 1.28-.1.51-.54.23c-1.34-.89-1.53-2.93-1.36-4.38q.23-1.98-1.29-.69-.44.38-1.01.31-.85-.11-.24-.71.82-.83-.06-1.55-.42-.35-.29-.88.22-.89 1.12-.84a.49.48-10.9 0 0 .47-.69l-1.62-3.42a.64.64 0 0 1 .59-.92l1.63.02q.89.01.45-.77l-1.43-2.5q-.34-.61.33-.75 1.06-.23 1.87-.84.44-.33.2-.83l-1.18-2.44q-.23-.47.01-.93.28-.55.87-1 3.75 1.96 7.94 2.71 8.31 1.48 16.64 2.84c2.23.36 4.17 2.32 4.05 4.72q-.25 4.62 1.14 9.14c1.39 4.55 5.01 5.77 9.44 7.53M170.15 104.06q-.44.04-.71-.25-.2-.22-.14-.4a.34.34 0 0 1 .58-.1q.22.27.27.75"/><path d="M297.4 108.05q-.16 1.02-.58 1.5-.37.42-.78.03-1.03-.96-1.46-2.66 1.54.26 2.82 1.13M301.74 111.23q-.72-.65-1.15-1.47.89.38 1.15 1.47M302.47 121.8c-2.51-1.14-1.45-7.83-.69-10.02z"/><path fill="#ecd546" d="M185.12 120.29q.22-.3.5-.15a.39.39 0 0 1 .1.6q-.29.33-.56.06a.38.38 0 0 1-.04-.51M79.58 145.77c-1.86-4.12-1.85-6.05-1.78-10.89q.03-2.61 1.15-4.69 1.18-2.18 2.61-4.24l.94 2.12q.23.52-.09 1.01-1.08 1.64-.86 3.3.06.44-.36.58-.87.27-1.53.86-.43.39-.2.92.7 1.65.46 3.72a.33.33 0 0 0 .29.37l.35.05q.31.04.34-.28.1-1.01.79-1.65a.58.57-37.7 0 1 .88.11c.6.96 1.07 2.09.77 3.27q-1.06 4.07-3.76 5.44M135.26 143.19a.22.21 40.6 0 1 .28-.02q.32.24.12.59a.29.29 0 0 1-.52-.05q-.12-.3.12-.52"/><circle cx="97.47" cy="144.51" r=".39" fill="#ecd546"/><path fill="#ecd546" d="M157.01 146.5q0-.41.39-.31.21.06.23.28.03.25-.2.32-.41.14-.42-.29M99.55 150.13q.45-.21.93-.04a.47.47 0 0 1 .13.82q-.57.42-1.15-.02a.45.44-38.9 0 1 .09-.76M103.27 158.26q.33-.32.57.02.11.16.03.36-.12.3-.41.25a.37.37 0 0 1-.19-.63"/><ellipse fill="#ecd546" rx=".44" ry=".34" transform="rotate(103.1 50.582 223.222)"/><path fill="#ecd546" d="M289.22 253.83q-.7 5.89.66 11.69l-.03.79q.73 3.83-2.56 5.74-12.36 7.18-15.94 9.59-9.05 6.09-18.23 11.98-15.45 9.93-32.65 16.25-.5-.55-.35-2.45a1.41 1.41 0 0 0-1.64-1.51q-1.29.22-1.38-1.02-.15-2.23.62-4.65.18-.55-.08-1.06l-.18-.35q-.16-.32.14-.51.18-.12.39-.06.69.19.76-.53l.37-3.97a.5.5 0 0 0-.77-.46q-.64.42-1.33.61-1.03.28-.57-.68.36-.74 0-1.43-.31-.61.36-.72 3.07-.54 6.63-3.37.45-.36.12-.84-.59-.87-.61-1.97 0-.84-.75-.46l-.29.15q-.58.3-1.08-.13-1.34-1.14-.26-2.59.49-.66-.25-1.02-.63-.31-.97-.91a1.53 1.53 0 0 1-.04-1.38q.77-1.65.63-3.45a1.2 1.19 9 0 0-.75-1.03q-1.77-.72-2.44-2.49-.29-.78-1.02-.37-1.39.77-3.01.76a.5.5 0 0 0-.31.89q2.66 2.12 1 5.26a.89.88 44.7 0 0 .01.84q.11.21.21.42.06.13-.03.25-.09.13-.28.13-.09 0-.15-.07-.92-1.25-2.24-.22a1.3 1.29-26.1 0 0-.46 1.33q.34 1.31-.8 1.97a.38.37-16.4 0 1-.56-.3l-.23-4.01a1.21 1.2.8 0 0-1.1-1.13q-.57-.05-1.03.2-.43.24-.83-.04-.45-.31-1-.35a.88.88 0 0 0-.9.56q-.65 1.61-1.38 3.08-.03.06-.1.1-.14.07-.3.04-.26-.05-.23-.31.22-2.41-1.52-3.65-.34-.25.02-.46 1.33-.78 1.45-2.69a2.76 2.74-27.3 0 1 .43-1.33l2.61-4.19a.78.78 0 0 0-.63-1.2l-1.55-.06a.63.62 83.2 0 1-.59-.47l-.72-2.67q-.13-.5.06-.98.38-1.01-.35-1.57l4.06-6.84q.67-.88.71-1.72a.57.57 0 0 1 1-.34q.54.63 1.26.56.66-.06.38-.67l-.27-.58a.8.79 56.9 0 1 .19-.93q.4-.37.45-.91.05-.55-.46-.76l-1.05-.44a.83.82 31.8 0 1-.31-1.3l1.61-1.87a.95.93 49.1 0 0 .07-1.13l-.43-.64q-.44-.66.35-.66h1.34a.37.18 19.3 0 0 .09-.01q.76-.25.44-.66-.46-.58-.18-1.26.61-1.47.49-3.13-.05-.68-.71-.88c-1.44-.44-2.25-1.6-2.23-3.12q.02-2.66-1.59-4.54-.45-.52.24-.55 2.12-.09 3.19 1.37.28.4.76.3 2.09-.45 2.7-2.16a.46.46 0 0 1 .83-.09l.23.39a1.25 1.25 0 0 1 .06 1.17q-.97 2.12.78 3.95.39.4.36.95l-.02.36q-.03.53.29.96 2.06 2.73 2.31 5.88.14 1.68 1.09.29.21-.31.44-.6 1.26-1.64 1.2.43-.03 1.21.76 1.67 1.26.73 1.28-.73l.08-4.23a.86.86 0 0 1 .55-.79q.5-.2 1.05-.18.47.01.89-.2l3.97-1.9a1.16 1.16 0 0 0 .57-1.49l-1.37-3.32q-.25-.63-.01-1.27l.73-1.93q.23-.6-.13-1.13-.33-.48-.15-1.05a.53.52-56 0 1 .91-.18q.97 1.2 1.1 2.82a.89.89 0 0 0 1.15.77l2.26-.7q.68-.21.47.47c-.31 1-1.01 1.86-.99 2.95q.01 1.24 1.4 1.47.82.14.2.69l-1.03.93q-.42.38-.17.88.61 1.24.07 2.47a.88.88 0 0 0 .29 1.07q1.89 1.36.49 3.17a.37.36-69.7 0 0 .27.59q.96.03 1.59-.73.64-.77.74.22l.27 2.68a.85.84 81.3 0 0 1 .74q.85-.17 1.36-.91.35-.51-.02-1-.4-.54-.38-1.16.02-.56.54-.79l3.8-1.65q.57-.25.65.37l.05.42a.88.87 68 0 0 1.4.6c.91-.7 2.45-1.93 2.52-3.17q.09-1.47-1.37-1.62-.54-.05-.41-.58.07-.28.36-.37.56-.17.23-.66l-.61-.91q-.25-.38-.06-.79.49-1.03 1.36-1.82.39-.35.34-.86-.06-.85-.63-1.59a.27.26-24.5 0 1 .16-.41l.62-.13q.2-.05.31.13l1.37 2.24q.3.5.88.57.92.1 1.68-.39a.82.82 0 0 1 .98.08q.7.64.24 1.5-.6 1.14-1.11 2.29a.76.75-62.5 0 0 .29.94q1.85 1.16.76 2.85-.32.49.07.91l1.39 1.53a.75.75 0 0 1-.3 1.21l-1.13.42q-.61.23-.49.87.15.78.85 1.34a1.01.99 53.7 0 0 .98.16l.52-.18q.56-.2.72.38.06.2.01.39-.04.18-.17.32-.94 1-1.75 2.06a.84.83-59.8 0 0 .33 1.26l1.7.76q.58.27.74-.36l.14-.57q.08-.32.41-.3l.26.01q.26.02.25.28-.13 3.16 1.01 5.64.64 1.37.98-.1c.24-1.03.06-2.23 1.09-2.95a.62.6 53.4 0 1 .83.13q.24.32.62.43.47.13.29-.33-.13-.33-.45-.51a.51.51 0 0 1-.21-.65q.12-.25.36-.39.65-.37.01-.74-.26-.14-.55-.12a.98.96 17.6 0 1-.84-1.59q1.07-1.26 2.9-1.96.48-.19.95.01.89.36 1.63-.31.48-.43.05-.91-.51-.57-.58-1.34-.07-.7.59-.92l.31-.1q.63-.21.78.43.33 1.38 1.49 1.79.5.17.64.67.13.49.44.89.37.48.55-.09.26-.8-.36-1.5a.73.73 0 0 1-.03-.95q2.5-3.2 3.51-6.56.53-1.76-1.13-.97l-.8.38a.55.55 0 0 1-.77-.36q-.17-.67-.58-1.19-.28-.37-.74-.46-.54-.11-.89-.54a.61.61 0 0 1 .04-.81q.43-.44 1.03-.56a1.22 1.21 78.1 0 0 .93-1.44l-.89-4.14a1.96 1.95 54.6 0 1 .24-1.44l.28-.47q.56-.93 1.06.03l2.07 3.95a.64.64 0 0 0 1.12.03q.18-.31.14-.68-.06-.56.5-.54.23.01.39.17a.57.57 0 0 0 .55.16q1.58-.36.96-1.99-.23-.62.43-.68l.42-.04q.28-.03.37.24.91 2.66-.34 4.94-.38.69.41.74.17.01.33-.03.6-.14.69.48.28 1.78 1.8 1.7 2.07-.1.51 1.29c-2.8 2.51-.15 4.13 2.09 4.59q.97.2.3.94-.42.46-.84.93c-1.18 1.31-.93 3.13 1.03 3.57q.79.18 1.58.1a1.43 1.43 0 0 1 1.44 2.04l-1.19 2.5a.99.97-47.9 0 0 .04.93zm-70.24 51.01q.06-.42-.33-.57-.16-.05-.25.08-.36.47.2.7.33.13.38-.21"/><path fill="#ecd546" d="M282.21 232.59a.55.55 0 0 1 .49-.83q1.24.05 1.06 1a.35.34-.2 0 1-.29.28q-.91.13-1.26-.45"/><ellipse fill="#ecd546" rx=".33" ry=".28" transform="rotate(-.2 67873.52 -64474.066)"/><circle cx="285.45" cy="238.53" r=".43" fill="#ecd546"/><path fill="#ecd546" d="M247.74 239.7q-.29.33-.42-.09t.29-.32q.41.09.13.41"/><path d="M201.22 261.35q.73.56.35 1.57-.19.48-.06.98l.72 2.67a.63.62 83.2 0 0 .59.47l1.55.06a.78.78 0 0 1 .63 1.2l-2.61 4.19a2.76 2.74-27.3 0 0-.43 1.33q-.12 1.91-1.45 2.69-.36.21-.02.46 1.74 1.24 1.52 3.65-.03.26.23.31.16.03.3-.04.07-.04.1-.1.73-1.47 1.38-3.08a.88.88 0 0 1 .9-.56q.55.04 1 .35.4.28.83.04.46-.25 1.03-.2a1.21 1.2.8 0 1 1.1 1.13l.23 4.01a.38.37-16.4 0 0 .56.3q1.14-.66.8-1.97a1.3 1.29-26.1 0 1 .46-1.33q1.32-1.03 2.24.22.06.07.15.07.19 0 .28-.13.09-.12.03-.25-.1-.21-.21-.42a.89.88 44.7 0 1-.01-.84q1.66-3.14-1-5.26a.5.5 0 0 1 .31-.89q1.62.01 3.01-.76.73-.41 1.02.37.67 1.77 2.44 2.49a1.2 1.19 9 0 1 .75 1.03q.14 1.8-.63 3.45a1.53 1.53 0 0 0 .04 1.38q.34.6.97.91.74.36.25 1.02-1.08 1.45.26 2.59.5.43 1.08.13l.29-.15q.75-.38.75.46.02 1.1.61 1.97.33.48-.12.84-3.56 2.83-6.63 3.37-.67.11-.36.72.36.69 0 1.43-.46.96.57.68.69-.19 1.33-.61a.5.5 0 0 1 .77.46l-.37 3.97q-.07.72-.76.53-.21-.06-.39.06-.3.19-.14.51l.18.35q.26.51.08 1.06-.77 2.42-.62 4.65.09 1.24 1.38 1.02a1.41 1.41 0 0 1 1.64 1.51q-.15 1.9.35 2.45l-4.27 1.28q-.23-.77-.82-1.07a.89.89 0 0 0-1.22.48q-.22.57.06 1.26l-1.77.39q-.15-.46-.41-.71-.4-.38-.86-.05-.72.53-.98 1.52-.5.36-1.38.52.75-2.97-1.37-3.93-.42-.19-.53-.64-.04-.2-.18-.36-.46-.51-.89.03-.41.52-1 .28-.51-.2-.65-.72-.12-.42-.43-.7-.59-.54-.69.26-.15 1.28-.29 2.53-.05.48-.43.8-.13.11-.29.11-.97.03-.5.86.33.58.59 1.2.21.52.76.66l3.37.82-12.28.12q-.54.01-.84-.44c-1.53-2.33-3.75-5.49-3.08-8.34q1.29-5.47 2.82-10.81 3.65-12.77 5.29-28.49.23-2.23 3.02-5.38M289.85 266.31l.03-.79z"/><path d="M218.6 305.05q-.56-.23-.2-.7.09-.13.25-.08.39.15.33.57-.05.34-.38.21"/><path fill="#ecd546" d="m208.82 313.49-2.53 1.2-3.37-.82q-.55-.14-.76-.66-.26-.62-.59-1.2-.47-.83.5-.86.16 0 .29-.11.38-.32.43-.8.14-1.25.29-2.53.1-.8.69-.26.31.28.43.7.14.52.65.72.59.24 1-.28.43-.54.89-.03.14.16.18.36.11.45.53.64 2.12.96 1.37 3.93M216.2 311.15l-1.98.67q-.28-.69-.06-1.26a.89.89 0 0 1 1.22-.48q.59.3.82 1.07M212.45 312.21l-2.25.76q.26-.99.98-1.52.46-.33.86.05.26.25.41.71"/></svg>