<svg xmlns="http://www.w3.org/2000/svg" viewBox="0 0 382 382"><g fill="none" stroke="#b09086" stroke-width="2"><path d="M244.545 91.296a.77.51 84.4 0 0 .433-.816.77.51 84.4 0 0-.583-.716.77.51 84.4 0 0-.433.816.77.51 84.4 0 0 .583.716M254.74 122.81c-3.41-1.34-4.24-4.95-5.59-8.01-2.11-4.8-6.92-3.04-7.36 1.54-.44 4.54-4.13 6.85-7.54 9.2q-.54.37-.2.93c1.63 2.71 1.43 5.77-.07 8.52-3.02 5.53-2.65 10.77-2.97 16.74-.18 3.27-2.75 4.82-4.54 7.23-1.63 2.18-1.17 5.11.46 7.14 1.85 2.3 3.74 4.1 5.04 6.89q1.36 2.91 2.92 5.68a.9.89-35 0 1-.2 1.12q-3.49 2.98-1.21 8.08c1.28 2.87 3.25 3.12 5.87 2.61q2.82-.54 5.55 1.22a.06.06 0 0 1-.02.11q-.37.12-.35.77a.82.81-58.8 0 0 .06.25q1.31 3.14 2.07 6.15.37 1.48 1.58.55l5.88-4.53q2.64-2.03 4.98.33l5.33 5.38q.15.14.18.13.17-.05.21-.19.03-.13 0-.26-.04-.19-.22-.27a.31.29 15.2 0 1-.18-.3q.9-7.27 1.89-9.34c1.14-2.39 3.76-7.14 6.77-7.27q1.91-.08 4.46.63.53.15.69-.38c.79-2.71-.49-4.49-2.62-6.12q-1.22-.94-1.41-2.43c-.33-2.59 1.37-4.9 1.66-7.45.38-3.47-1.77-6.39-2.49-9.61q-.89-3.95 1.15-9.67.18-.49-.28-.72-4.18-2.16-6.86-5.14c-1.82-2.01-.8-6.65-.53-9.06a.52.51 86.8 0 0-.62-.56c-5.93 1.35-11.65-.14-9.26-7.78q.16-.52-.27-.86-.79-.61-1.48-1.37-.08-.09-.16 0-.04.03-.07.07-.11.11-.25.05M275.811 115.352a1.07.52-40.7 0 0-1.15.304 1.07.52-40.7 0 0-.472 1.092 1.07.52-40.7 0 0 1.15-.304 1.07.52-40.7 0 0 .472-1.092M204.11 206.57q-.06-.49-.4-.73-.54-.37-.55.28-.01 1.15.98 1.65 1.06.54.56-.54-.09-.18-.29-.26a.49.49 0 0 1-.3-.4" vector-effect="non-scaling-stroke"/></g><path fill="#a98980" d="M169.29 78.14q1.54-.15 2.31-1.5c3-5.27 5.52-8.8 12.34-5.92 2.39 1.02 5.04.91 7.4-.14q6.64-2.97 14.82-1.83c2.94.41 6.77-3.63 9.24-.65a2.39 2.33-10.5 0 0 1.14.76l13.86 4.23a4.28 4.25 46.1 0 0 2.31.05q3.69-.95 8.41-1.18 4.54-.22 7.8 2.69 3.24 2.9 6.09 4.9c4.02 2.81 9.09 3.18 13.99 4.1q5.19.97 10.56 1.79c2.44.38 4.61 2.22 4.45 4.88q-.27 4.54 1.13 8.97c2.43 7.69 10.99 6.35 16.09 10.94q.38.35.47.85 1.02 5.67 1.04 10.58c.01 4.16-1.22 9.09-1.73 13.56q-.07.54.22 1.01l2.63 4.37q.33.55.33 1.2-.06 8.86.01 17.56.04 4.84-1.2 11.74-4.36 24.3-7.05 41.47-2.65 16.92-5.21 29.93-.63 3.2-.89 6.23c-.33 4-1.26 8.21-.71 12.25q.36 2.64.78 5.02.74 4.16-2.97 6.26c-6.83 3.87-13.58 7.69-19.91 12.09-18.45 12.82-37.33 23.7-57.16 28.73q-1.27.33-2.97 1.49-.43.3-.96.3l-11.95.01a.99.98-14.4 0 1-.86-.5c-1.2-2.16-3.13-4.44-3.11-7q.02-2.27.75-4.59 5.53-17.75 7.27-35.04c.33-3.28 3.35-6.88 5.25-9.53 1.86-2.6 2.63-5.39 2.31-8.59q-1.02-10.13-1.71-19.01c-.67-8.64-3.52-16.22-12.23-18.44-5.39-1.38-12.16-2.19-17.59-2.17-6.82.04-13.54 1.1-19.3-3.58q-13.1-10.66-17.96-14.24-14.46-10.66-31.21-12.13-5.84-.52-8.61-1.48-15.45-5.35-16.36-22.29c-.15-2.68.63-5.01-.18-7.72-.89-2.95-2.62-5.78-2.64-8.83q-.04-3.77.04-7.29a2.43 2.41 62.3 0 1 .4-1.3q4.26-6.44 7.96-13.52c2.7-5.17 6.9-8.61 12.47-9.96q12.89-3.14 25.95-6.54c13.73-3.57 23.06-9.44 25.37-24.16q.08-.51.45-.87c5.23-5.21 10.49-1.69 16.15 1.55.8.46 1.78.58 2.68.49m75.255 13.156a.77.51 84.4 0 0 .433-.816.77.51 84.4 0 0-.583-.716.77.51 84.4 0 0-.433.816.77.51 84.4 0 0 .583.716m10.195 31.514c-3.41-1.34-4.24-4.95-5.59-8.01-2.11-4.8-6.92-3.04-7.36 1.54-.44 4.54-4.13 6.85-7.54 9.2q-.54.37-.2.93c1.63 2.71 1.43 5.77-.07 8.52-3.02 5.53-2.65 10.77-2.97 16.74-.18 3.27-2.75 4.82-4.54 7.23-1.63 2.18-1.17 5.11.46 7.14 1.85 2.3 3.74 4.1 5.04 6.89q1.36 2.91 2.92 5.68a.9.89-35 0 1-.2 1.12q-3.49 2.98-1.21 8.08c1.28 2.87 3.25 3.12 5.87 2.61q2.82-.54 5.55 1.22a.06.06 0 0 1-.02.11q-.37.12-.35.77a.82.81-58.8 0 0 .06.25q1.31 3.14 2.07 6.15.37 1.48 1.58.55l5.88-4.53q2.64-2.03 4.98.33l5.33 5.38q.15.14.18.13.17-.05.21-.19.03-.13 0-.26-.04-.19-.22-.27a.31.29 15.2 0 1-.18-.3q.9-7.27 1.89-9.34c1.14-2.39 3.76-7.14 6.77-7.27q1.91-.08 4.46.63.53.15.69-.38c.79-2.71-.49-4.49-2.62-6.12q-1.22-.94-1.41-2.43c-.33-2.59 1.37-4.9 1.66-7.45.38-3.47-1.77-6.39-2.49-9.61q-.89-3.95 1.15-9.67.18-.49-.28-.72-4.18-2.16-6.86-5.14c-1.82-2.01-.8-6.65-.53-9.06a.52.51 86.8 0 0-.62-.56c-5.93 1.35-11.65-.14-9.26-7.78q.16-.52-.27-.86-.79-.61-1.48-1.37-.08-.09-.16 0-.04.03-.07.07-.11.11-.25.05m21.071-7.458a1.07.52-40.7 0 0-1.15.304 1.07.52-40.7 0 0-.472 1.092 1.07.52-40.7 0 0 1.15-.304 1.07.52-40.7 0 0 .472-1.092M204.11 206.57q-.06-.49-.4-.73-.54-.37-.55.28-.01 1.15.98 1.65 1.06.54.56-.54-.09-.18-.29-.26a.49.49 0 0 1-.3-.4"/><ellipse fill="#b6968c" rx=".77" ry=".51" transform="rotate(84.4 72.315 180.071)"/><path fill="#b6968c" d="M254.99 122.76q.03-.04.07-.07.08-.09.16 0 .69.76 1.48 1.37.43.34.27.86c-2.39 7.64 3.33 9.13 9.26 7.78a.52.51 86.8 0 1 .62.56c-.27 2.41-1.29 7.05.53 9.06q2.68 2.98 6.86 5.14.46.23.28.72-2.04 5.72-1.15 9.67c.72 3.22 2.87 6.14 2.49 9.61-.29 2.55-1.99 4.86-1.66 7.45q.19 1.49 1.41 2.43c2.13 1.63 3.41 3.41 2.62 6.12q-.16.53-.69.38-2.55-.71-4.46-.63c-3.01.13-5.63 4.88-6.77 7.27q-.99 2.07-1.89 9.34a.31.29 15.2 0 0 .18.3q.18.08.22.27.03.13 0 .26-.04.14-.21.19-.03.01-.18-.13l-5.33-5.38q-2.34-2.36-4.98-.33l-5.88 4.53q-1.21.93-1.58-.55-.76-3.01-2.07-6.15a.82.81-58.8 0 1-.06-.25q-.02-.65.35-.77a.06.06 0 0 0 .02-.11q-2.73-1.76-5.55-1.22c-2.62.51-4.59.26-5.87-2.61q-2.28-5.1 1.21-8.08a.9.89-35 0 0 .2-1.12q-1.56-2.77-2.92-5.68c-1.3-2.79-3.19-4.59-5.04-6.89-1.63-2.03-2.09-4.96-.46-7.14 1.79-2.41 4.36-3.96 4.54-7.23.32-5.97-.05-11.21 2.97-16.74 1.5-2.75 1.7-5.81.07-8.52q-.34-.56.2-.93c3.41-2.35 7.1-4.66 7.54-9.2.44-4.58 5.25-6.34 7.36-1.54 1.35 3.06 2.18 6.67 5.59 8.01q.14.06.25-.05"/><ellipse fill="#b6968c" rx="1.07" ry=".52" transform="rotate(-40.7 293.942 -312.691)"/><path fill="#b6968c" d="M204.41 206.97q.2.08.29.26.5 1.08-.56.54-.99-.5-.98-1.65.01-.65.55-.28.34.24.4.73a.49.49 0 0 0 .3.4"/></svg>