<svg xmlns="http://www.w3.org/2000/svg" viewBox="0 0 382 382"><g fill="none" stroke="#5f116f" stroke-width="2"><path d="M220.72 70.13c-1.31.28-1.4 1.7-1.84 2.71q-.2.47-.6.8l-2.68 2.19q-.99.81-.33 1.9.51.85 1.4.99a.43.43 0 0 0 .45-.61q-.15-.29.04-.55.53-.73.71.16.38 1.76 2.17 2.25.52.14.57.67.35 3.39-2.35 5.45-.39.3-.41.8-.07 1.71-.8 3.55-.77 1.96 1.12 1.03l2.26-1.12q.63-.32.31-.95l-.34-.65q-.36-.7.43-.68 1.06.02 1.25 1.14.13.74.79.37.61-.34.94-.94.42-.75 1.09-.23.55.43 1.22.49.61.05.56.66-.24 3.42.34 6.5.1.55-.28.95l-.38.4q-.04.03-.02.08.07.24.45.17a.39.39 0 0 0 .3-.29q.11-.41.51-.46.46-.05.79.26 1.28 1.24 2.99 2.04.12.05.2-.06l.21-.3q.2-.3-.08-.53-2.17-1.68-1.27-3.57.26-.56-.35-.63-.83-.1-.96-.88-.08-.53.27-.93 1.63-1.83 1.99-4.2a1.01 1.01 0 0 1 1.72-.56q.58.6 1.33.35a.86.84-4.3 0 0 .57-.65q.36-1.9-1.38-2.41a.81.79 8 0 1-.58-.75q-.05-1.42.71-2.69a.85.85 0 0 0-.35-1.2l-1.61-.79q-.62-.3-.75.38l-.1.47q-.13.71-.8.42-.43-.19-.65-.62-.26-.52-.03-1.04.24-.52-.07-1.01c-.9-1.39.69-2.72 1.52-3.71q.22-.27.15-.61-.06-.3-.29-.59M233.05 72.99q-.16.99.08 1.44.35.66.68-.05.24-.51-.03-1.43M239.06 72.27q-.34 2.92 2.13 4.34 1.14.66.4-.43-.67-.97-.59-2.78.03-.52.55-.52l1.69-.01a.67.66-1.8 0 1 .67.62q.07.99.06 1.91 0 .18.14.3.2.18.53-.02a.46.45 83.1 0 0 .2-.26q.11-.38.07-.75-.06-.73.58-.37 1.98 1.09 2.79-.19M256.25 80.49q-1.71.61-3 1.83-.19.17.01.32l.21.16q.06.04.09-.01.27-.5.76-.67.73-.26.64.51-.17 1.43.63 2.59.4.59-.3.69l-1.57.24a.8.8 0 0 0-.55 1.23q1.09 1.67.4 3.35c-.6 1.47-.61 2.93-.68 4.47q-.03.55-.53.79-1.1.52-2.16 1.01-2.19 1.01.21.79.3-.03.52-.26.49-.5 1.05-.09 2.79 1.99 1.74 5.04c-.4 1.16.11 1.9.45 2.96q.28.87.75.08.95-1.61.48-2.85-.14-.36.23-.46 2.28-.61 2.97-3.51.1-.44-.33-.56-1.83-.49-1.21-2.5.17-.56.76-.54 1.77.04 3.43-.63.45-.18.85.1.95.66.31 1.58-.43.62.32.64 1.98.05 3.43 1.84a.46.45-52.9 0 0 .77-.11q.35-.8.05-1.8a.4.4 0 0 1 .55-.48l2.11.99a.69.68 24.9 0 1 .34.91l-.42.9q-.21.45-.02.91l1.05 2.46q.17.4-.22.58-.16.08-.34.07-1.02-.03-.49.69l.28.38q.35.48.06 1.01l-2.02 3.67a.64.59-39.6 0 0-.06.45q.38 1.49-1.15 1.94a.83.83 0 0 0-.42 1.31l1.4 1.79q.3.37.3.85 0 .47-.38.76-.47.36-.17.86.33.54.85.9.59.4.68-.31.05-.36.26-.7.26-.44.73-.62.5-.19.88-.59.33-.35.3-.83-.08-1.09-.74-1.93-.52-.67.33-.65 1.43.03 2.62-.73.44-.28.58.22.52 1.85 2.38 3.12.53.36.58-.28.06-.98.99-1.32.43-.16.81.05.58.31.47 1c-.08.5-.29.74-.6 1.11q-.63.75.35.69.14 0 .27.01.7.07.42.71l-1.81 4.12q-.22.51-.18 1.07l.45 6.36q.05.82.79.45l1.83-.91a.81.8 73.6 0 0 .44-.82q-.16-1.17-.71-2.24-.28-.53.32-.6 2.13-.25 4.02.7 1.24.62.78-.68-.34-.95.62-1.72.53-.42.86.16c1.27 2.21.92 4.75 1.52 7.11q.07.29-.22.32-.15.02-.3.05-.69.14-.37.77.77 1.55-.37 3.2-.35.51.24.7.16.05.28-.08a1.03 1.01 54.6 0 1 1.7.31q.67 1.59.57 3.36a.45.44 85.1 0 0 .54.46q.51-.13.85-.56.36-.47.14-1.03-.39-.98.5-1.69.54-.42.33-1.08l-.99-2.98q-.16-.5.03-.99l.72-1.84q.17-.43.57-.19.36.21.77.28a1.09 1.09 0 0 0 1.21-.77q.48-1.63.38-3.22-.06-.94.69-.38.31.24.34.63.05.93.82.41.45-.29.98-.24t.8.5l3.06 4.96M299.22 192.95q-1.8 1.16-2.28.61-.55-.63-.78.17-.22.78-.68 1.5-.45.7.38.79 1.55.17 2.83-.7M289.98 246.7q-.95-1.17-.16-1.94.51-.5-.19-.65l-.47-.1a.89.89 0 0 0-1 .52l-.24.58q-.23.56-.81.37l-1.55-.51q-.55-.18-.58-.76c-.15-2.53 1.8-2.69 1.98-4.33q.08-.7-.57-.44-1.58.63-2.84-1.37-.3-.49-.06-1.01l1.46-3.11a.42.42 0 0 0-.54-.57l-.46.19q-.52.21-.98-.11-1.24-.85-1.77-2.09-.25-.57.12-1.08 1.33-1.89.95-3.99-.11-.58.18-1.1.38-.69.53-1.49.04-.2-.07-.36-.08-.11-.28-.08-.32.06-.41.37-.3 1.06-1.29 1.44-.6.23-.76.86l-.31 1.2q-.16.61-.75.39-.88-.32-1.6.3a.92.91 59.7 0 1-1.47-.39l-1.15-3.3a2.44 2.43 4.7 0 0-1.14-1.34q-.83-.45-1.66-.79-.84-.35-.6.53l.75 2.77q.13.5.6.71l.6.27a.69.68 23.1 0 1 .36.89q-.63 1.49-1.02 3.13-.51 2.16-2.36.97a.18.18 0 0 0-.23.27l2.76 3.11q.48.54-.09.97-.91.68-.76 1.78.08.64.65.33.33-.18.14-.62a.84.83-31.9 0 1 .23-.96q.85-.72 1.66-1.13.93-.46 1.11.56.25 1.51-.64 3.04a1 .99-48.2 0 0 .06 1.08l.22.3q.55.74-.36.89l-1.28.2q-.46.08-.57.54-.04.2.09.3.8.62-.15.97-.28.1-.57.15-.67.1-.27.65.45.6.48 1.29.06 1.41-.95.41-1.6-1.6-3.12-3.04-.15-.14-.32-.14-.17.01-.29.09-.42.28-.16.71 1.08 1.76-.24 3.49-.56.72-.77-.17-.15-.67.11-1.36a.45.45 0 0 0-.25-.58l-.24-.1q-.48-.2-.55.32l-.19 1.46a1.18 1.16-4.3 0 1-.85.97q-.94.26-1.55.97-.82.96.44.89.3-.02.5.16.37.33.11.75l-2.54 4.22q-1.02 1.69-1.69-.16-.77-2.13.18-4.16.22-.47-.09-.9-.33-.45-.82-.57-.62-.15-.6.5.01.41-.2.75-.33.53-.75.08-1.71-1.84-.48-3.98a.3.3 0 0 0-.17-.44q-1.2-.35-1.99-1.28-.36-.42.02-.81l.84-.87a1.03 1.03 0 0 0-.24-1.63q-.83-.45-.64-1.28c.19-.88 1.41-1.27 1.57-2.41q.09-.66-.58-.75-.85-.1-1.26-.75-.37-.57.1-1.07l1.48-1.61q.42-.44.2-1.01-.32-.81-1.1-1.41a.49.49 0 0 0-.78.43q.02.25-.06.5-.26.82-.88.22-.59-.57-1.41-.56-.62.01-.29-.51 1.46-2.27-1.45-3.45a.37.36-87.8 0 0-.48.45q1.29 4.16-2.91 4.91-.98.17-.04.5 1.29.44 1.67 1.64.17.54.74.56.56.02.86.49.29.45.1.97-.74 2.04-2.34 2.83-.55.27-.6.89-.02.23-.19.38-.55.48-.73-.23-.3-1.18-1.41-1.9-.3-.2-.25.16.05.3.36.35a.45.45 0 0 1 .28.71q-.43.57-1.02.89-.63.33-1.16-.14-.51-.44-1.15-.36-.61.08-.59.69.06 2.09-.82 3.58-.61 1.02-1.69.65-.6-.2-.57-.83.08-1.63-1.29-2.39-.48-.27-.57-.82l-1.09-6.75a1.03 1 53.6 0 1 .08-.59q.32-.67.88-.69.88-.04.34-.73l-1.1-1.42q-.39-.51-.13-1.1.36-.81 1.02-1.43 1.12-1.03-.4-1.11l-2.16-.13a.41.41 0 0 1-.39-.4q-.04-2.91-1.58-5.35a.26.25 37.4 0 0-.46.06q-.46 1.53.31 2.73.19.31.09.66-.53 1.91-1.98 2.76a.24.24 0 0 0-.08.34q.88 1.31-.01 2.5-.45.6.3.64.25.01.48.12.48.22.63.72.54 1.87-1.2 2.38-.5.15-.6.66-.06.33-.25.6-.29.42-.65.07-.21-.21-.17-.47.15-.77-.6-.55-2.26.69-3.84 2.45a.83.82-35.5 0 0-.15.84q.74 1.91-.57 3.8-.71 1.02-.85-.22l-.15-1.45q-.05-.48-.52-.59l-1.46-.35a.92.9 87.4 0 1-.64-.6l-1.91-5.87a1.61 1.58 46.2 0 1 .01-.97l.48-1.43q.2-.61-.44-.7-.74-.11-1.16-.7a.94.93 46.2 0 1 .02-1.1q.98-1.26.7-2.91-.07-.43-.46-.23-1.66.86-3.67.58-.61-.09-.66-.7l-.24-2.98a1.24 1.21 20.1 0 0-.37-.77q-1.46-1.36-3.1-2.22-1.99-1.04-.71.81 2.25 3.24 2.33 7.57.04 1.65-1.62 1.36-1.88-.32-.76 1.2.52.69-.31 1.04-.2.09-.18.3.02.23.2.24.33.02.53-.24.92-1.21 2.27.11a.18.18 0 0 1-.02.27q-.19.15-.11.26.71.98.82-.23.06-.53.51-.69.84-.31.7.57-.5 3.28-1.59 6.61-.17.53-.68.73c-4.86 1.92-1.67 5.89-1.83 9.17a.48.48 0 0 1-.79.34l-1.57-1.35a.37.36 24.8 0 0-.6.22l-.43 2.97M79.48 145.84l2.66-3.18q.35-.42.11-.91-.27-.56-.11-1.16.19-.7.92-.68.18 0 .32-.14.54-.53-.17-.79l-3.73-1.32q-.44-.15-.49-.61l-.14-1.32a.69.69 0 0 0-.34-.54q-.31-.18-.38-.51-.12-.53.43-.56l.34-.02q.56-.03.8-.53l2.15-4.3a1 1 0 0 0 .02-.83q-.27-.64-1.12-1.16M83.19 123.33q.83 1.18.93 2.79.03.56.59.55.21-.01.39-.13.85-.59.77.44-.04.51-.35.97-.34.51.06.97 1.55 1.8 1.68 4.55a1.22 1.21 67.3 0 0 2.04.84q1.19-1.09.13-2.53-.67-.92.46-.78 1.9.24 3.45-.66.73-.43.81.42.06.64.32 1.23.2.44 0 .89l-1.34 2.97q-.27.6.19 1.08.71.73-.03 1.45-.36.36.13.52l.28.08a.88.87-59.6 0 0 .91-.24q.38-.4.45-1.01.06-.66.66-.36l1.4.7a1.68 1.68 0 0 1 .53 2.59q-.72.85-1.36 1.77-1.05 1.53.75 1.05 1.32-.35 2.45 1.51a1 1 0 0 1 .04.94L98.07 149q-.37.79.49.63.23-.05.41-.19.55-.41 1.05.07l1.74 1.71q.45.44.18 1.02l-1.44 3.04a.72.71-50.1 0 0 .06.72q.44.62.32 1.32-.07.46-.38.81-.59.65-.41 1.47.13.56.56.19.34-.29.38-.75.07-.63.67-.86 1.56-.59 1.37-2.31-.06-.53.48-.54.2-.01.39.08.54.25 1.05-.07.55-.34 1.19-.32.56.01.76.54l1.48 3.97q.04.11.14.17 1.44.94 3.18 1.53.07.02.06-.05-.42-3.06-2.36-4.59-.46-.36-.23-.9.73-1.72 1.17-3.46.21-.82 1.03-1.04.41-.1.58.28.12.26.43.26.64.01.21-.46l-2.7-2.96a.88.88 0 0 1 .5-1.46q.89-.14.5-1.04-.59-1.34-.89.09-.3 1.49-1.38 1.95a1.29 1.29 0 0 1-1.55-1.95q1.24-1.71.35-3.18a.4.39-18.2 0 1 .31-.6l1.51-.1q.77-.05.37-.71l-.18-.3a.66.65 65.2 0 1 .35-.96l.41-.14q.68-.22.23-.78-.42-.51-.43-1.18-.02-1.48 1.02-.43l3.3 3.33q.3.3.52-.06l.18-.29a.69.67-49.6 0 0-.05-.77q-1.2-1.48.47-3.49a.36.36 0 0 1 .63.25l-.11 2.05q0 .13.12.17l.36.1q.35.1.4-.25l.25-1.81q.07-.54.6-.71 1.03-.31 1.89-1.15.48-.47-.17-.64l-1.08-.3a.28.28 0 0 1-.17-.41l3.11-5.24q.19-.33.52-.13c1.59.95 1.36 3.67.62 5.04q-.22.39.02.77.31.47.82.69.62.27.62-.41-.01-.54.33-.91.37-.4.73 0 1.65 1.79.57 3.85-.36.7.42.83 1.49.25 1.68 1.44.09.58-.48.95-.37.24-.6.58-.38.56.09 1.05l.81.86q.43.45.06.94l-1.42 1.87a.79.78-71.3 0 0 .62 1.26q.75.01 1.19.56.38.47-.02.93l-1.64 1.86a.99.99 0 0 0-.16 1.06q.32.74 1.06 1.22.66.43.82-.34l.11-.48q.19-.9.86-.28.53.49 1.23.52 1.23.06.36.93-1.02 1.02-.01 2.18.59.68 1.28.93 1.23.44.73-.76-.87-2.07.93-4a.89.88 22.9 0 1 .69-.28q.64.02 1.25-.16.81-.23.06-.61l-.42-.22q-.69-.35-1.04-1.03-.46-.89-1.46-1.25-.62-.22-.43-.85.44-1.51 1.47-2.68.28-.33.7-.46.66-.19.78-.83.05-.23.15-.43.15-.3.38-.29.38.02.45.39.26 1.23 1.18 2.06.07.07.16.08.16.03.26-.11t-.01-.27q-.88-1.08.31-1.98.42-.32.81.03.59.52 1.33.59.76.06.81-.7c.11-1.57.04-3.99 2.08-4.31q.62-.1.84.5.27.73.27 1.51a.93.93 0 0 0 .57.86l.66.29q.48.21.56.74l1.06 6.8q.08.53-.22.97-.34.49-.94.59-.75.13-.24.68l1.09 1.19a1.39 1.39 0 0 1-.21 2.07q-.64.46-1.05 1.1-.4.62.34.66l2.68.16q.63.04.57.67-.23 2.51 1.5 4.89.37.5.54-.1c.37-1.29-.49-2.33-.29-3.58q.24-1.52 1.42-2.27.37-.23.2-.63-.49-1.14.17-2.14.43-.65-.31-.88l-.37-.12q-.51-.16-.66-.67-.58-1.96 1.17-2.55.52-.18.59-.72.04-.33.26-.54.6-.58.75.24l.09.52q.1.53.62.36 2.25-.72 3.67-2.38.35-.41.18-.92-.66-1.86.68-3.98.4-.62.67.07.33.85.2 1.74a.63.62-81.4 0 0 .51.7l1.47.25q.58.1.76.66l1.9 5.92q.18.56-.04 1.11l-.57 1.38a.58.57 10.4 0 0 .55.79q.86-.02 1.28.68a.61.6 47.1 0 1-.02.68q-.95 1.3-.92 2.95.01.67.61.37 1.62-.79 3.7-.59a.68.68 0 0 1 .62.64l.17 3.22q.02.52.47.81 1.65 1.04 3.33 2.28.28.21.6.08.51-.21.17-.65-2.9-3.8-2.55-8.69.04-.58.62-.64l1.74-.18a.39.38 66.4 0 0 .25-.64q-.82-.91.12-1.77.79-.72-.13-.18-2.5 1.48-3.12-.94a.21.21 0 0 0-.41.02l-.19 1.26q-.02.14-.17.14l-.43-.03q-.36-.02-.33-.37.29-3.42 1.33-6.67.16-.51.68-.65 1.15-.32 1.75-1.41.18-.34-.13-.55-.19-.12-.33-.3-.22-.29.07-.51.15-.11.36-.12.3 0 .27.3 0 .05.01.1.23.65.56.05c.89-1.59-.42-4.68-.58-6.48q-.17-1.8 1.13-.54l.98.95q.75.72.92-.31.12-.74-.04-1.52-.07-.32.2-.49.05-.03.11-.03.48.04.6.5.08.3.18.59.25.77.78.14.1-.12.27-.14.69-.1.78.59l.05.4q.11.85.83.38l.48-.31q.7-.47.74.37l.1 1.84q.01.19.2.2l.29.01q.26.01.29-.26.17-1.67 1.58-2.31.66-.31.58.42-.28 2.52 1.19 4.99.3.51.59-.01.86-1.57.47-2.99-.13-.48.06-.94.64-1.52.75-3.11.04-.49.52-.5.97-.02 1.68.68a.95.95 0 0 0 1.6-.56l.2-1.47q.09-.69.78-.77 1-.12 1.06-1.05.06-.95-.72-.4-.68.47-1.32-.02-.85-.64-.96.42l-.02.29q-.06.95-.82.38c-2.43-1.77-2.14-3.19-2.19-5.95q-.01-.39-.4-.36-.31.03-.4.34-.23.78-.3 1.54-.08.85-.78.36l-.24-.17q-.69-.49-.75.36l-.1 1.16q-.12 1.55-1.22.45-2.13-2.15-.36-5.17a1.21 1.2 47.4 0 0 .04-1.13l-1.79-3.69q-.39-.82-.67.05-.23.7-.84.21a.52.51 41.5 0 1-.05-.77q1.01-.99.22-2.05-.37-.5-.12-1.07l.88-1.97a.55.55 0 0 1 .69-.29q1.79.66 2.11-1.44.23-1.52 1.3-2.09.45-.24.27-.71l-.82-2.26q-.16-.46.04-.91.44-.94.45-1.99.06-3.56-1.42-.32-.7 1.53-2.16.68-.34-.2-.43.19-.3 1.48.54 2.51.41.5-.18.76l-1.78.77q-.69.3-.73-.45-.03-.47-.35-.83a.85.85 0 0 0-1.1-.14l-.63.4q-.66.43-.74-.35-.15-1.4-.83-2.74-.28-.54.01-1.07l.55-.99q.29-.53-.07-1.03-.52-.73-1.79-.47-1.19.25-.32 1.11.45.44.36 1.05-.08.46-.5.66l-2.74 1.29q-.49.23-.67.73-.48 1.3-1.58 2.11-.46.34-.19.86l.76 1.48q.32.61.9.26l.24-.14q.64-.38.75.35.28 1.91-1.08 2.82-.35.23-.73.06-1.03-.47-1.71.45-1.31 1.75-1.43-.43-.11-2.12-3.11-3.13-1.02-.34-.54-1.3c.82-1.63 2.85-4.09.35-5.35a.35.34 17 0 1-.19-.35q.01-.15.11-.27.34-.44.01-.89-.76-1.05-.8-2.38-.02-.57-.57-.44-1.56.37-1.95-1.81-.11-.6.37-.99 1.92-1.56 4.47-2.76 1.99-.93 1.83-2.97a.6.59 78.6 0 0-.78-.52l-.46.15q-.86.28-.81-.63l.15-3.15q.04-.73.75-.91.81-.21.45-.9-.38-.74 0-1.48 1.18-2.3.35-4.25-.51-1.22-1.77-.78-.44.16-.88 0-.35-.13-.53-.45-.27-.45-.05-.94l.63-1.35M173.48 73.51q2.01.26 2.78 1.72.39.75.9.16.11-.12.29-.13.63-.03.56.6-.15 1.24.59 2.15.15.18.38.14l.29-.05a.44.43 74.9 0 0 .33-.58q-.52-1.4.6-3.08.3-.45.71-.11.76.65 1.49-.11.53-.56-.15-.93-1.61-.85-1.47-3.3M180.78 69.99l-.41-.02q-.5-.03-.92.25-1.18.83-2.37-.04M289.91 247.33q-2.18 2.78-.55 5.64M219 310.4q.14-2.28 1.41-4.14.34-.51.33-.84-.01-.58-.57-.87-.37-.19-.78-.09-.29.07-.57.17a.91.9 60.8 0 1-1.03-.3c-1.93-2.54.49-4.09-.16-6.46q-.17-.58.43-.72.23-.05.37-.24.32-.41.35-.93.11-1.5.16-2.94.05-1.39-1.03-.51-.23.19-.51.15-.47-.07-.47-.54-.01-2.22 2.08-3.2 2.47-1.15 4.54-2.8.54-.44.07-.94-.55-.6-.76-1.4-.23-.82-.89-.3-.1.08-.21.14-.62.27-.66-.39-.1-1.4-.86-2.65-.2-.33.07-.62.08-.09.13-.21.23-.52-.32-.65-1.48-.38-1-1.93.53-1.72 1.35-3.18.66-1.15-.6-1.57-3.24-1.08-3-3.82.01-.14-.04-.28-.12-.28-.65-.13a.51.5 2.5 0 0-.31.28q-.76 1.68-2.23.86-.45-.26-.79.13-.92 1.03-.92 2.5.01.8.78.57 1.29-.37 1.82 1.42.16.55-.17 1.02l-1.29 1.83q-.52.75.23 1.26.12.09.2.22.34.59-.21.19-.15-.12-.24-.3-.28-.55-.83-.27l-2.72 1.36q-.7.35-.42 1.09.13.37.38.67.8.94-.42 1.1-1.17.16-1.8-.62a.75.74 45.4 0 1 0-.95q.49-.59.64-1.3.1-.48-.16-.9-.7-1.15-.84-2.47-.08-.81-.8-.44l-.83.41q-.57.28-.94-.24-.28-.4-.33-.91-.07-.69-.69-.37l-1.55.8q-.58.31-.21.85.71 1.02.53 2.27-.09.62-.63.3-1.47-.85-2.11.79-1.18 3.02-1.36-.22-.07-1.26.52-2.31a.73.72 44.6 0 0-.01-.72c-1.04-1.77.38-4.16.95-5.89a1.17 1.15-86.7 0 1 .85-.77q.47-.1.97-.03.43.06.69-.27 1.41-1.78.49-3.3-.27-.45.08-.84.52-.6.44-1.34-.09-.83-.75-.33l-.33.25q-.54.41-.76-.23l-.44-1.23M293.7 106.55l2.12 4.92q.34.8.99.22l.73-.65q.57-.51-.03-.97-.66-.51.57-1.74M302.27 116.01l-.63 2.03q-.15.5.01.99.48 1.52-.03 2.98-.17.48.07.92.61 1.15.68 2.26M215.9 311.19q.13-.9.08-1.09-.47-2.02-.97-.01-.21.86.62 1.19M211.97 312.37q.22-1.09-2.2-1.57-.87-.17-.21-.77.12-.11.11-.27-.04-.6-.64-.61-1.73-.02-2.28-1.51-.18-.48-.64-.25l-.3.16q-.78.4-.72-.48.13-1.66-.88-2.11-.6-.26-.93.3-.28.48.21.68a.54.54 0 0 1 .17.87q-.65.67-.83 1.58-.11.59-.63.28-1-.6-1.78.41-.39.52.24.63.44.08.78.35.39.3.45.78l.21 1.51q.1.73.84.67.73-.06 1.27-.57.56-.52.73.23.21.97-.48 2.22M179.78 79.54q.08-.38-.29-.43-.34-.05-.42.28-.07.27.26.4.38.14.45-.25" vector-effect="non-scaling-stroke"/><path d="M224.28 89.26a.27.27 0 0 0 .41.3q.21-.14.09-.36-.07-.13-.21-.14-.22-.03-.29.2M252.7 90.46q-.01-.06-.05-.1-.06-.07-.14-.02-.11.07-.06.18.05.12.18.1.08-.01.12-.08.02-.04.05-.09.02-.05-.03-.08-.06-.03-.06.04v.04q0 .03-.01.01M220.22 91.5q.19.27.34-.02a.07.07 0 0 0-.07-.1q-.33.04-.27.12M161.16 96.52q.09.51.41.11.23-.27-.09-.38a.24.24 0 0 0-.32.27M173.82 99.69q.23-.48-.29-.4-.49.07-.17.46.27.32.46-.06M258.12 101.46q-.21.5-.12.99a.39.39 0 0 0 .7.17q.43-.57.08-1.19a.37.37 0 0 0-.66.03M169.8 104.55a.31.31 0 0 0-.31-.31.31.31 0 0 0-.31.31.31.31 0 0 0 .31.31.31.31 0 0 0 .31-.31M82.76 137.56a.3.3 0 0 0-.3-.3.3.3 0 0 0-.3.3.3.3 0 0 0 .3.3.3.3 0 0 0 .3-.3M173.42 145.13q-.31-.06-.38.25-.06.29.23.33.13.02.25-.04a.29.29 0 0 0-.1-.54M108.89 146.683a.39.32 18.4 0 0-.269-.427.39.32 18.4 0 0-.471.18.39.32 18.4 0 0 .269.428.39.32 18.4 0 0 .471-.18M132.37 157.8a.31.3 21.6 0 0 .45-.19q.09-.38-.32-.51-.38-.13-.38.27-.01.28.25.43M250.59 225.87q.52-.37.04-.58-.33-.14-.34.22 0 .16.08.31a.15.15 0 0 0 .22.05M274.11 236.28q-.06.41.29.44.22.02.33-.18.15-.28-.24-.46-.32-.15-.38.2M209.79 237.57q-.12-.47-.5-.15a.24.24 0 0 0 .11.41q.48.09.39-.26M209.83 240.5a.36.36 0 0 0-.36-.36.36.36 0 0 0-.36.36.36.36 0 0 0 .36.36.36.36 0 0 0 .36-.36M209.1 283.39q.03.42.48.42a.29.29 0 0 0 .28-.4q-.11-.26-.41-.32a.29.29 0 0 0-.35.3M203.25 303.69a.27.26 71.1 0 0 .3.15q.34-.08.26-.36a.35.34 71.1 0 0-.45-.23q-.27.1-.11.44" vector-effect="non-scaling-stroke"/></g><path d="M220.72 70.13c-1.31.28-1.4 1.7-1.84 2.71q-.2.47-.6.8l-2.68 2.19q-.99.81-.33 1.9.51.85 1.4.99a.43.43 0 0 0 .45-.61q-.15-.29.04-.55.53-.73.71.16.38 1.76 2.17 2.25.52.14.57.67.35 3.39-2.35 5.45-.39.3-.41.8-.07 1.71-.8 3.55-.77 1.96 1.12 1.03l2.26-1.12q.63-.32.31-.95l-.34-.65q-.36-.7.43-.68 1.06.02 1.25 1.14.13.74.79.37.61-.34.94-.94.42-.75 1.09-.23.55.43 1.22.49.61.05.56.66-.24 3.42.34 6.5.1.55-.28.95l-.38.4q-.04.03-.02.08.07.24.45.17a.39.39 0 0 0 .3-.29q.11-.41.51-.46.46-.05.79.26 1.28 1.24 2.99 2.04.12.05.2-.06l.21-.3q.2-.3-.08-.53-2.17-1.68-1.27-3.57.26-.56-.35-.63-.83-.1-.96-.88-.08-.53.27-.93 1.63-1.83 1.99-4.2a1.01 1.01 0 0 1 1.72-.56q.58.6 1.33.35a.86.84-4.3 0 0 .57-.65q.36-1.9-1.38-2.41a.81.79 8 0 1-.58-.75q-.05-1.42.71-2.69a.85.85 0 0 0-.35-1.2l-1.61-.79q-.62-.3-.75.38l-.1.47q-.13.71-.8.42-.43-.19-.65-.62-.26-.52-.03-1.04.24-.52-.07-1.01c-.9-1.39.69-2.72 1.52-3.71q.22-.27.15-.61-.06-.3-.29-.59 1.12-.26 2.27-.11-.16.99.08 1.44.35.66.68-.05.24-.51-.03-1.43l5.28-.68q-.34 2.92 2.13 4.34 1.14.66.4-.43-.67-.97-.59-2.78.03-.52.55-.52l1.69-.01a.67.66-1.8 0 1 .67.62q.07.99.06 1.91 0 .18.14.3.2.18.53-.02a.46.45 83.1 0 0 .2-.26q.11-.38.07-.75-.06-.73.58-.37 1.98 1.09 2.79-.19l7.97 6.38q-1.71.61-3 1.83-.19.17.01.32l.21.16q.06.04.09-.01.27-.5.76-.67.73-.26.64.51-.17 1.43.63 2.59.4.59-.3.69l-1.57.24a.8.8 0 0 0-.55 1.23q1.09 1.67.4 3.35c-.6 1.47-.61 2.93-.68 4.47q-.03.55-.53.79-1.1.52-2.16 1.01-2.19 1.01.21.79.3-.03.52-.26.49-.5 1.05-.09 2.79 1.99 1.74 5.04c-.4 1.16.11 1.9.45 2.96q.28.87.75.08.95-1.61.48-2.85-.14-.36.23-.46 2.28-.61 2.97-3.51.1-.44-.33-.56-1.83-.49-1.21-2.5.17-.56.76-.54 1.77.04 3.43-.63.45-.18.85.1.95.66.31 1.58-.43.62.32.64 1.98.05 3.43 1.84a.46.45-52.9 0 0 .77-.11q.35-.8.05-1.8a.4.4 0 0 1 .55-.48l2.11.99a.69.68 24.9 0 1 .34.91l-.42.9q-.21.45-.02.91l1.05 2.46q.17.4-.22.58-.16.08-.34.07-1.02-.03-.49.69l.28.38q.35.48.06 1.01l-2.02 3.67a.64.59-39.6 0 0-.06.45q.38 1.49-1.15 1.94a.83.83 0 0 0-.42 1.31l1.4 1.79q.3.37.3.85 0 .47-.38.76-.47.36-.17.86.33.54.85.9.59.4.68-.31.05-.36.26-.7.26-.44.73-.62.5-.19.88-.59.33-.35.3-.83-.08-1.09-.74-1.93-.52-.67.33-.65 1.43.03 2.62-.73.44-.28.58.22.52 1.85 2.38 3.12.53.36.58-.28.06-.98.99-1.32.43-.16.81.05.58.31.47 1c-.08.5-.29.74-.6 1.11q-.63.75.35.69.14 0 .27.01.7.07.42.71l-1.81 4.12q-.22.51-.18 1.07l.45 6.36q.05.82.79.45l1.83-.91a.81.8 73.6 0 0 .44-.82q-.16-1.17-.71-2.24-.28-.53.32-.6 2.13-.25 4.02.7 1.24.62.78-.68-.34-.95.62-1.72.53-.42.86.16c1.27 2.21.92 4.75 1.52 7.11q.07.29-.22.32-.15.02-.3.05-.69.14-.37.77.77 1.55-.37 3.2-.35.51.24.7.16.05.28-.08a1.03 1.01 54.6 0 1 1.7.31q.67 1.59.57 3.36a.45.44 85.1 0 0 .54.46q.51-.13.85-.56.36-.47.14-1.03-.39-.98.5-1.69.54-.42.33-1.08l-.99-2.98q-.16-.5.03-.99l.72-1.84q.17-.43.57-.19.36.21.77.28a1.09 1.09 0 0 0 1.21-.77q.48-1.63.38-3.22-.06-.94.69-.38.31.24.34.63.05.93.82.41.45-.29.98-.24t.8.5l3.06 4.96c-.14 2.23-.95 4.37-.01 6.45q.76 1.7 1.98 3.35.46.63.46 1.41-.03 8.35.04 17.32.04 4.84-1.24 11.96-1.97 11.03-3.75 21.94-1.8 1.16-2.28.61-.55-.63-.78.17-.22.78-.68 1.5-.45.7.38.79 1.55.17 2.83-.7l-8.71 51.38q-.95-1.17-.16-1.94.51-.5-.19-.65l-.47-.1a.89.89 0 0 0-1 .52l-.24.58q-.23.56-.81.37l-1.55-.51q-.55-.18-.58-.76c-.15-2.53 1.8-2.69 1.98-4.33q.08-.7-.57-.44-1.58.63-2.84-1.37-.3-.49-.06-1.01l1.46-3.11a.42.42 0 0 0-.54-.57l-.46.19q-.52.21-.98-.11-1.24-.85-1.77-2.09-.25-.57.12-1.08 1.33-1.89.95-3.99-.11-.58.18-1.1.38-.69.53-1.49.04-.2-.07-.36-.08-.11-.28-.08-.32.06-.41.37-.3 1.06-1.29 1.44-.6.23-.76.86l-.31 1.2q-.16.61-.75.39-.88-.32-1.6.3a.92.91 59.7 0 1-1.47-.39l-1.15-3.3a2.44 2.43 4.7 0 0-1.14-1.34q-.83-.45-1.66-.79-.84-.35-.6.53l.75 2.77q.13.5.6.71l.6.27a.69.68 23.1 0 1 .36.89q-.63 1.49-1.02 3.13-.51 2.16-2.36.97a.18.18 0 0 0-.23.27l2.76 3.11q.48.54-.09.97-.91.68-.76 1.78.08.64.65.33.33-.18.14-.62a.84.83-31.9 0 1 .23-.96q.85-.72 1.66-1.13.93-.46 1.11.56.25 1.51-.64 3.04a1 .99-48.2 0 0 .06 1.08l.22.3q.55.74-.36.89l-1.28.2q-.46.08-.57.54-.04.2.09.3.8.62-.15.97-.28.1-.57.15-.67.1-.27.65.45.6.48 1.29.06 1.41-.95.41-1.6-1.6-3.12-3.04-.15-.14-.32-.14-.17.01-.29.09-.42.28-.16.71 1.08 1.76-.24 3.49-.56.72-.77-.17-.15-.67.11-1.36a.45.45 0 0 0-.25-.58l-.24-.1q-.48-.2-.55.32l-.19 1.46a1.18 1.16-4.3 0 1-.85.97q-.94.26-1.55.97-.82.96.44.89.3-.02.5.16.37.33.11.75l-2.54 4.22q-1.02 1.69-1.69-.16-.77-2.13.18-4.16.22-.47-.09-.9-.33-.45-.82-.57-.62-.15-.6.5.01.41-.2.75-.33.53-.75.08-1.71-1.84-.48-3.98a.3.3 0 0 0-.17-.44q-1.2-.35-1.99-1.28-.36-.42.02-.81l.84-.87a1.03 1.03 0 0 0-.24-1.63q-.83-.45-.64-1.28c.19-.88 1.41-1.27 1.57-2.41q.09-.66-.58-.75-.85-.1-1.26-.75-.37-.57.1-1.07l1.48-1.61q.42-.44.2-1.01-.32-.81-1.1-1.41a.49.49 0 0 0-.78.43q.02.25-.06.5-.26.82-.88.22-.59-.57-1.41-.56-.62.01-.29-.51 1.46-2.27-1.45-3.45a.37.36-87.8 0 0-.48.45q1.29 4.16-2.91 4.91-.98.17-.04.5 1.29.44 1.67 1.64.17.54.74.56.56.02.86.49.29.45.1.97-.74 2.04-2.34 2.83-.55.27-.6.89-.02.23-.19.38-.55.48-.73-.23-.3-1.18-1.41-1.9-.3-.2-.25.16.05.3.36.35a.45.45 0 0 1 .28.71q-.43.57-1.02.89-.63.33-1.16-.14-.51-.44-1.15-.36-.61.08-.59.69.06 2.09-.82 3.58-.61 1.02-1.69.65-.6-.2-.57-.83.08-1.63-1.29-2.39-.48-.27-.57-.82l-1.09-6.75a1.03 1 53.6 0 1 .08-.59q.32-.67.88-.69.88-.04.34-.73l-1.1-1.42q-.39-.51-.13-1.1.36-.81 1.02-1.43 1.12-1.03-.4-1.11l-2.16-.13a.41.41 0 0 1-.39-.4q-.04-2.91-1.58-5.35a.26.25 37.4 0 0-.46.06q-.46 1.53.31 2.73.19.31.09.66-.53 1.91-1.98 2.76a.24.24 0 0 0-.08.34q.88 1.31-.01 2.5-.45.6.3.64.25.01.48.12.48.22.63.72.54 1.87-1.2 2.38-.5.15-.6.66-.06.33-.25.6-.29.42-.65.07-.21-.21-.17-.47.15-.77-.6-.55-2.26.69-3.84 2.45a.83.82-35.5 0 0-.15.84q.74 1.91-.57 3.8-.71 1.02-.85-.22l-.15-1.45q-.05-.48-.52-.59l-1.46-.35a.92.9 87.4 0 1-.64-.6l-1.91-5.87a1.61 1.58 46.2 0 1 .01-.97l.48-1.43q.2-.61-.44-.7-.74-.11-1.16-.7a.94.93 46.2 0 1 .02-1.1q.98-1.26.7-2.91-.07-.43-.46-.23-1.66.86-3.67.58-.61-.09-.66-.7l-.24-2.98a1.24 1.21 20.1 0 0-.37-.77q-1.46-1.36-3.1-2.22-1.99-1.04-.71.81 2.25 3.24 2.33 7.57.04 1.65-1.62 1.36-1.88-.32-.76 1.2.52.69-.31 1.04-.2.09-.18.3.02.23.2.24.33.02.53-.24.92-1.21 2.27.11a.18.18 0 0 1-.02.27q-.19.15-.11.26.71.98.82-.23.06-.53.51-.69.84-.31.7.57-.5 3.28-1.59 6.61-.17.53-.68.73c-4.86 1.92-1.67 5.89-1.83 9.17a.48.48 0 0 1-.79.34l-1.57-1.35a.37.36 24.8 0 0-.6.22l-.43 2.97q-.91-10.18-1.89-20.31-.31-3.17-1-5.62c-3.03-10.77-10.86-11.96-20.38-13.09q-5.47-.66-10.16-.54c-6.11.15-12.3.72-17.34-3.48q-11.61-9.65-19.36-15.2-13.66-9.77-29.81-11.28-4.64-.44-7.88-1.33c-12.9-3.55-18.32-14.68-16.88-27.59q.15-1.39-1.43-5.28l2.66-3.18q.35-.42.11-.91-.27-.56-.11-1.16.19-.7.92-.68.18 0 .32-.14.54-.53-.17-.79l-3.73-1.32q-.44-.15-.49-.61l-.14-1.32a.69.69 0 0 0-.34-.54q-.31-.18-.38-.51-.12-.53.43-.56l.34-.02q.56-.03.8-.53l2.15-4.3a1 1 0 0 0 .02-.83q-.27-.64-1.12-1.16l2.44-3.95q.83 1.18.93 2.79.03.56.59.55.21-.01.39-.13.85-.59.77.44-.04.51-.35.97-.34.51.06.97 1.55 1.8 1.68 4.55a1.22 1.21 67.3 0 0 2.04.84q1.19-1.09.13-2.53-.67-.92.46-.78 1.9.24 3.45-.66.73-.43.81.42.06.64.32 1.23.2.44 0 .89l-1.34 2.97q-.27.6.19 1.08.71.73-.03 1.45-.36.36.13.52l.28.08a.88.87-59.6 0 0 .91-.24q.38-.4.45-1.01.06-.66.66-.36l1.4.7a1.68 1.68 0 0 1 .53 2.59q-.72.85-1.36 1.77-1.05 1.53.75 1.05 1.32-.35 2.45 1.51a1 1 0 0 1 .04.94L98.07 149q-.37.79.49.63.23-.05.41-.19.55-.41 1.05.07l1.74 1.71q.45.44.18 1.02l-1.44 3.04a.72.71-50.1 0 0 .06.72q.44.62.32 1.32-.07.46-.38.81-.59.65-.41 1.47.13.56.56.19.34-.29.38-.75.07-.63.67-.86 1.56-.59 1.37-2.31-.06-.53.48-.54.2-.01.39.08.54.25 1.05-.07.55-.34 1.19-.32.56.01.76.54l1.48 3.97q.04.11.14.17 1.44.94 3.18 1.53.07.02.06-.05-.42-3.06-2.36-4.59-.46-.36-.23-.9.73-1.72 1.17-3.46.21-.82 1.03-1.04.41-.1.58.28.12.26.43.26.64.01.21-.46l-2.7-2.96a.88.88 0 0 1 .5-1.46q.89-.14.5-1.04-.59-1.34-.89.09-.3 1.49-1.38 1.95a1.29 1.29 0 0 1-1.55-1.95q1.24-1.71.35-3.18a.4.39-18.2 0 1 .31-.6l1.51-.1q.77-.05.37-.71l-.18-.3a.66.65 65.2 0 1 .35-.96l.41-.14q.68-.22.23-.78-.42-.51-.43-1.18-.02-1.48 1.02-.43l3.3 3.33q.3.3.52-.06l.18-.29a.69.67-49.6 0 0-.05-.77q-1.2-1.48.47-3.49a.36.36 0 0 1 .63.25l-.11 2.05q0 .13.12.17l.36.1q.35.1.4-.25l.25-1.81q.07-.54.6-.71 1.03-.31 1.89-1.15.48-.47-.17-.64l-1.08-.3a.28.28 0 0 1-.17-.41l3.11-5.24q.19-.33.52-.13c1.59.95 1.36 3.67.62 5.04q-.22.39.02.77.31.47.82.69.62.27.62-.41-.01-.54.33-.91.37-.4.73 0 1.65 1.79.57 3.85-.36.7.42.83 1.49.25 1.68 1.44.09.58-.48.95-.37.24-.6.58-.38.56.09 1.05l.81.86q.43.45.06.94l-1.42 1.87a.79.78-71.3 0 0 .62 1.26q.75.01 1.19.56.38.47-.02.93l-1.64 1.86a.99.99 0 0 0-.16 1.06q.32.74 1.06 1.22.66.43.82-.34l.11-.48q.19-.9.86-.28.53.49 1.23.52 1.23.06.36.93-1.02 1.02-.01 2.18.59.68 1.28.93 1.23.44.73-.76-.87-2.07.93-4a.89.88 22.9 0 1 .69-.28q.64.02 1.25-.16.81-.23.06-.61l-.42-.22q-.69-.35-1.04-1.03-.46-.89-1.46-1.25-.62-.22-.43-.85.44-1.51 1.47-2.68.28-.33.7-.46.66-.19.78-.83.05-.23.15-.43.15-.3.38-.29.38.02.45.39.26 1.23 1.18 2.06.07.07.16.08.16.03.26-.11t-.01-.27q-.88-1.08.31-1.98.42-.32.81.03.59.52 1.33.59.76.06.81-.7c.11-1.57.04-3.99 2.08-4.31q.62-.1.84.5.27.73.27 1.51a.93.93 0 0 0 .57.86l.66.29q.48.21.56.74l1.06 6.8q.08.53-.22.97-.34.49-.94.59-.75.13-.24.68l1.09 1.19a1.39 1.39 0 0 1-.21 2.07q-.64.46-1.05 1.1-.4.62.34.66l2.68.16q.63.04.57.67-.23 2.51 1.5 4.89.37.5.54-.1c.37-1.29-.49-2.33-.29-3.58q.24-1.52 1.42-2.27.37-.23.2-.63-.49-1.14.17-2.14.43-.65-.31-.88l-.37-.12q-.51-.16-.66-.67-.58-1.96 1.17-2.55.52-.18.59-.72.04-.33.26-.54.6-.58.75.24l.09.52q.1.53.62.36 2.25-.72 3.67-2.38.35-.41.18-.92-.66-1.86.68-3.98.4-.62.67.07.33.85.2 1.74a.63.62-81.4 0 0 .51.7l1.47.25q.58.1.76.66l1.9 5.92q.18.56-.04 1.11l-.57 1.38a.58.57 10.4 0 0 .55.79q.86-.02 1.28.68a.61.6 47.1 0 1-.02.68q-.95 1.3-.92 2.95.01.67.61.37 1.62-.79 3.7-.59a.68.68 0 0 1 .62.64l.17 3.22q.02.52.47.81 1.65 1.04 3.33 2.28.28.21.6.08.51-.21.17-.65-2.9-3.8-2.55-8.69.04-.58.62-.64l1.74-.18a.39.38 66.4 0 0 .25-.64q-.82-.91.12-1.77.79-.72-.13-.18-2.5 1.48-3.12-.94a.21.21 0 0 0-.41.02l-.19 1.26q-.02.14-.17.14l-.43-.03q-.36-.02-.33-.37.29-3.42 1.33-6.67.16-.51.68-.65 1.15-.32 1.75-1.41.18-.34-.13-.55-.19-.12-.33-.3-.22-.29.07-.51.15-.11.36-.12.3 0 .27.3 0 .05.01.1.23.65.56.05c.89-1.59-.42-4.68-.58-6.48q-.17-1.8 1.13-.54l.98.95q.75.72.92-.31.12-.74-.04-1.52-.07-.32.2-.49.05-.03.11-.03.48.04.6.5.08.3.18.59.25.77.78.14.1-.12.27-.14.69-.1.78.59l.05.4q.11.85.83.38l.48-.31q.7-.47.74.37l.1 1.84q.01.19.2.2l.29.01q.26.01.29-.26.17-1.67 1.58-2.31.66-.31.58.42-.28 2.52 1.19 4.99.3.51.59-.01.86-1.57.47-2.99-.13-.48.06-.94.64-1.52.75-3.11.04-.49.52-.5.97-.02 1.68.68a.95.95 0 0 0 1.6-.56l.2-1.47q.09-.69.78-.77 1-.12 1.06-1.05.06-.95-.72-.4-.68.47-1.32-.02-.85-.64-.96.42l-.02.29q-.06.95-.82.38c-2.43-1.77-2.14-3.19-2.19-5.95q-.01-.39-.4-.36-.31.03-.4.34-.23.78-.3 1.54-.08.85-.78.36l-.24-.17q-.69-.49-.75.36l-.1 1.16q-.12 1.55-1.22.45-2.13-2.15-.36-5.17a1.21 1.2 47.4 0 0 .04-1.13l-1.79-3.69q-.39-.82-.67.05-.23.7-.84.21a.52.51 41.5 0 1-.05-.77q1.01-.99.22-2.05-.37-.5-.12-1.07l.88-1.97a.55.55 0 0 1 .69-.29q1.79.66 2.11-1.44.23-1.52 1.3-2.09.45-.24.27-.71l-.82-2.26q-.16-.46.04-.91.44-.94.45-1.99.06-3.56-1.42-.32-.7 1.53-2.16.68-.34-.2-.43.19-.3 1.48.54 2.51.41.5-.18.76l-1.78.77q-.69.3-.73-.45-.03-.47-.35-.83a.85.85 0 0 0-1.1-.14l-.63.4q-.66.43-.74-.35-.15-1.4-.83-2.74-.28-.54.01-1.07l.55-.99q.29-.53-.07-1.03-.52-.73-1.79-.47-1.19.25-.32 1.11.45.44.36 1.05-.08.46-.5.66l-2.74 1.29q-.49.23-.67.73-.48 1.3-1.58 2.11-.46.34-.19.86l.76 1.48q.32.61.9.26l.24-.14q.64-.38.75.35.28 1.91-1.08 2.82-.35.23-.73.06-1.03-.47-1.71.45-1.31 1.75-1.43-.43-.11-2.12-3.11-3.13-1.02-.34-.54-1.3c.82-1.63 2.85-4.09.35-5.35a.35.34 17 0 1-.19-.35q.01-.15.11-.27.34-.44.01-.89-.76-1.05-.8-2.38-.02-.57-.57-.44-1.56.37-1.95-1.81-.11-.6.37-.99 1.92-1.56 4.47-2.76 1.99-.93 1.83-2.97a.6.59 78.6 0 0-.78-.52l-.46.15q-.86.28-.81-.63l.15-3.15q.04-.73.75-.91.81-.21.45-.9-.38-.74 0-1.48 1.18-2.3.35-4.25-.51-1.22-1.77-.78-.44.16-.88 0-.35-.13-.53-.45-.27-.45-.05-.94l.63-1.35q1.8 1.08 3.71 1.95c3.98 1.81 5.16-1.67 6.71-4.19q2.01.26 2.78 1.72.39.75.9.16.11-.12.29-.13.63-.03.56.6-.15 1.24.59 2.15.15.18.38.14l.29-.05a.44.43 74.9 0 0 .33-.58q-.52-1.4.6-3.08.3-.45.71-.11.76.65 1.49-.11.53-.56-.15-.93-1.61-.85-1.47-3.3c1.71.04 3.33.82 5.01 1.23 3.62.88 5.91-1.17 9.01-1.88q5.5-1.26 12.25-.67c2.4.21 4.81-2.92 8-.85q2.56 1.66 5.67 2.31m-40.94 9.41q.08-.38-.29-.43-.34-.05-.42.28-.07.27.26.4.38.14.45-.25m44.5 9.72a.27.27 0 0 0 .41.3q.21-.14.09-.36-.07-.13-.21-.14-.22-.03-.29.2m28.42 1.2q-.01-.06-.05-.1-.06-.07-.14-.02-.11.07-.06.18.05.12.18.1.08-.01.12-.08.02-.04.05-.09.02-.05-.03-.08-.06-.03-.06.04v.04q0 .03-.01.01m-32.48 1.04q.19.27.34-.02a.07.07 0 0 0-.07-.1q-.33.04-.27.12m-59.06 5.02q.09.51.41.11.23-.27-.09-.38a.24.24 0 0 0-.32.27m12.66 3.17q.23-.48-.29-.4-.49.07-.17.46.27.32.46-.06m84.3 1.77q-.21.5-.12.99a.39.39 0 0 0 .7.17q.43-.57.08-1.19a.37.37 0 0 0-.66.03m-88.32 3.09a.31.31 0 0 0-.31-.31.31.31 0 0 0-.31.31.31.31 0 0 0 .31.31.31.31 0 0 0 .31-.31m-87.04 33.01a.3.3 0 0 0-.3-.3.3.3 0 0 0-.3.3.3.3 0 0 0 .3.3.3.3 0 0 0 .3-.3m90.66 7.57q-.31-.06-.38.25-.06.29.23.33.13.02.25-.04a.29.29 0 0 0-.1-.54m-64.53 1.553a.39.32 18.4 0 0-.269-.427.39.32 18.4 0 0-.471.18.39.32 18.4 0 0 .269.428.39.32 18.4 0 0 .471-.18m23.48 11.117a.31.3 21.6 0 0 .45-.19q.09-.38-.32-.51-.38-.13-.38.27-.01.28.25.43m118.22 68.07q.52-.37.04-.58-.33-.14-.34.22 0 .16.08.31a.15.15 0 0 0 .22.05m23.52 10.41q-.06.41.29.44.22.02.33-.18.15-.28-.24-.46-.32-.15-.38.2m-64.32 1.29q-.12-.47-.5-.15a.24.24 0 0 0 .11.41q.48.09.39-.26"/><path d="m180.78 69.99-.41-.02q-.5-.03-.92.25-1.18.83-2.37-.04 1.75-.57 3.7-.19"/><path fill="#bd21de" d="M180.78 69.99q-.14 2.45 1.47 3.3.68.37.15.93-.73.76-1.49.11-.41-.34-.71.11-1.12 1.68-.6 3.08a.44.43 74.9 0 1-.33.58l-.29.05q-.23.04-.38-.14-.74-.91-.59-2.15.07-.63-.56-.6-.18.01-.29.13-.51.59-.9-.16-.77-1.46-2.78-1.72 1.3-2.27 3.6-3.33 1.19.87 2.37.04.42-.28.92-.25zM220.72 70.13l10.06 2.97q.23.29.29.59.07.34-.15.61c-.83.99-2.42 2.32-1.52 3.71q.31.49.07 1.01-.23.52.03 1.04.22.43.65.62.67.29.8-.42l.1-.47q.13-.68.75-.38l1.61.79a.85.85 0 0 1 .35 1.2q-.76 1.27-.71 2.69a.81.79 8 0 0 .58.75q1.74.51 1.38 2.41a.86.84-4.3 0 1-.57.65q-.75.25-1.33-.35a1.01 1.01 0 0 0-1.72.56q-.36 2.37-1.99 4.2-.35.4-.27.93.13.78.96.88.61.07.35.63-.9 1.89 1.27 3.57.28.23.08.53l-.21.3q-.08.11-.2.06-1.71-.8-2.99-2.04-.33-.31-.79-.26-.4.05-.51.46a.39.39 0 0 1-.3.29q-.38.07-.45-.17-.02-.05.02-.08l.38-.4q.38-.4.28-.95-.58-3.08-.34-6.5.05-.61-.56-.66-.67-.06-1.22-.49-.67-.52-1.09.23-.33.6-.94.94-.66.37-.79-.37-.19-1.12-1.25-1.14-.79-.02-.43.68l.34.65q.32.63-.31.95l-2.26 1.12q-1.89.93-1.12-1.03.73-1.84.8-3.55.02-.5.41-.8 2.7-2.06 2.35-5.45-.05-.53-.57-.67-1.79-.49-2.17-2.25-.18-.89-.71-.16-.19.26-.04.55a.43.43 0 0 1-.45.61q-.89-.14-1.4-.99-.66-1.09.33-1.9l2.68-2.19q.4-.33.6-.8c.44-1.01.53-2.43 1.84-2.71M248.28 74.11q-.81 1.28-2.79.19-.64-.36-.58.37.04.37-.07.75a.46.45 83.1 0 1-.2.26q-.33.2-.53.02-.14-.12-.14-.3.01-.92-.06-1.91a.67.66-1.8 0 0-.67-.62l-1.69.01q-.52 0-.55.52-.08 1.81.59 2.78.74 1.09-.4.43-2.47-1.42-2.13-4.34 5.21-1.08 9.22 1.84M233.78 72.95q.27.92.03 1.43-.33.71-.68.05-.24-.45-.08-1.44zM163.06 75.75l-.63 1.35q-.22.49.05.94.18.32.53.45.44.16.88 0 1.26-.44 1.77.78.83 1.95-.35 4.25-.38.74 0 1.48.36.69-.45.9-.71.18-.75.91l-.15 3.15q-.05.91.81.63l.46-.15a.6.59 78.6 0 1 .78.52q.16 2.04-1.83 2.97-2.55 1.2-4.47 2.76-.48.39-.37.99.39 2.18 1.95 1.81.55-.13.57.44.04 1.33.8 2.38.33.45-.01.89-.1.12-.11.27a.35.34 17 0 0 .19.35c2.5 1.26.47 3.72-.35 5.35q-.48.96.54 1.3 3 1.01 3.11 3.13.12 2.18 1.43.43.68-.92 1.71-.45.38.17.73-.06 1.36-.91 1.08-2.82-.11-.73-.75-.35l-.24.14q-.58.35-.9-.26l-.76-1.48q-.27-.52.19-.86 1.1-.81 1.58-2.11.18-.5.67-.73l2.74-1.29q.42-.2.5-.66.09-.61-.36-1.05-.87-.86.32-1.11 1.27-.26 1.79.47.36.5.07 1.03l-.55.99q-.29.53-.01 1.07.68 1.34.83 2.74.08.78.74.35l.63-.4a.85.85 0 0 1 1.1.14q.32.36.35.83.04.75.73.45l1.78-.77q.59-.26.18-.76-.84-1.03-.54-2.51.09-.39.43-.19 1.46.85 2.16-.68 1.48-3.24 1.42.32-.01 1.05-.45 1.99-.2.45-.04.91l.82 2.26q.18.47-.27.71-1.07.57-1.3 2.09-.32 2.1-2.11 1.44a.55.55 0 0 0-.69.29l-.88 1.97q-.25.57.12 1.07.79 1.06-.22 2.05a.52.51 41.5 0 0 .05.77q.61.49.84-.21.28-.87.67-.05l1.79 3.69a1.21 1.2 47.4 0 1-.04 1.13q-1.77 3.02.36 5.17 1.1 1.1 1.22-.45l.1-1.16q.06-.85.75-.36l.24.17q.7.49.78-.36.07-.76.3-1.54.09-.31.4-.34.39-.03.4.36c.05 2.76-.24 4.18 2.19 5.95q.76.57.82-.38l.02-.29q.11-1.06.96-.42.64.49 1.32.02.78-.55.72.4-.06.93-1.06 1.05-.69.08-.78.77l-.2 1.47a.95.95 0 0 1-1.6.56q-.71-.7-1.68-.68-.48.01-.52.5-.11 1.59-.75 3.11-.19.46-.06.94.39 1.42-.47 2.99-.29.52-.59.01-1.47-2.47-1.19-4.99.08-.73-.58-.42-1.41.64-1.58 2.31-.03.27-.29.26l-.29-.01q-.19-.01-.2-.2l-.1-1.84q-.04-.84-.74-.37l-.48.31q-.72.47-.83-.38l-.05-.4q-.09-.69-.78-.59-.17.02-.27.14-.53.63-.78-.14-.1-.29-.18-.59-.12-.46-.6-.5-.06 0-.11.03-.27.17-.2.49.16.78.04 1.52-.17 1.03-.92.31l-.98-.95q-1.3-1.26-1.13.54c.16 1.8 1.47 4.89.58 6.48q-.33.6-.56-.05-.01-.05-.01-.1.03-.3-.27-.3-.21.01-.36.12-.29.22-.07.51.14.18.33.3.31.21.13.55-.6 1.09-1.75 1.41-.52.14-.68.65-1.04 3.25-1.33 6.67-.03.35.33.37l.43.03q.15 0 .17-.14l.19-1.26a.21.21 0 0 1 .41-.02q.62 2.42 3.12.94.92-.54.13.18-.94.86-.12 1.77a.39.38 66.4 0 1-.25.64l-1.74.18q-.58.06-.62.64-.35 4.89 2.55 8.69.34.44-.17.65-.32.13-.6-.08-1.68-1.24-3.33-2.28-.45-.29-.47-.81l-.17-3.22a.68.68 0 0 0-.62-.64q-2.08-.2-3.7.59-.6.3-.61-.37-.03-1.65.92-2.95a.61.6 47.1 0 0 .02-.68q-.42-.7-1.28-.68a.58.57 10.4 0 1-.55-.79l.57-1.38q.22-.55.04-1.11l-1.9-5.92q-.18-.56-.76-.66l-1.47-.25a.63.62-81.4 0 1-.51-.7q.13-.89-.2-1.74-.27-.69-.67-.07-1.34 2.12-.68 3.98.17.51-.18.92-1.42 1.66-3.67 2.38-.52.17-.62-.36l-.09-.52q-.15-.82-.75-.24-.22.21-.26.54-.07.54-.59.72-1.75.59-1.17 2.55.15.51.66.67l.37.12q.74.23.31.88-.66 1-.17 2.14.17.4-.2.63-1.18.75-1.42 2.27c-.2 1.25.66 2.29.29 3.58q-.17.6-.54.1-1.73-2.38-1.5-4.89.06-.63-.57-.67l-2.68-.16q-.74-.04-.34-.66.41-.64 1.05-1.1a1.39 1.39 0 0 0 .21-2.07l-1.09-1.19q-.51-.55.24-.68.6-.1.94-.59.3-.44.22-.97l-1.06-6.8q-.08-.53-.56-.74l-.66-.29a.93.93 0 0 1-.57-.86q0-.78-.27-1.51-.22-.6-.84-.5c-2.04.32-1.97 2.74-2.08 4.31q-.05.76-.81.7-.74-.07-1.33-.59-.39-.35-.81-.03-1.19.9-.31 1.98.11.13.01.27t-.26.11q-.09-.01-.16-.08-.92-.83-1.18-2.06-.07-.37-.45-.39-.23-.01-.38.29-.1.2-.15.43-.12.64-.78.83-.42.13-.7.46-1.03 1.17-1.47 2.68-.19.63.43.85 1 .36 1.46 1.25.35.68 1.04 1.03l.42.22q.75.38-.06.61-.61.18-1.25.16a.89.88 22.9 0 0-.69.28q-1.8 1.93-.93 4 .5 1.2-.73.76-.69-.25-1.28-.93-1.01-1.16.01-2.18.87-.87-.36-.93-.7-.03-1.23-.52-.67-.62-.86.28l-.11.48q-.16.77-.82.34-.74-.48-1.06-1.22a.99.99 0 0 1 .16-1.06l1.64-1.86q.4-.46.02-.93-.44-.55-1.19-.56a.79.78-71.3 0 1-.62-1.26l1.42-1.87q.37-.49-.06-.94l-.81-.86q-.47-.49-.09-1.05.23-.34.6-.58.57-.37.48-.95-.19-1.19-1.68-1.44-.78-.13-.42-.83 1.08-2.06-.57-3.85-.36-.4-.73 0-.34.37-.33.91 0 .68-.62.41-.51-.22-.82-.69-.24-.38-.02-.77c.74-1.37.97-4.09-.62-5.04q-.33-.2-.52.13l-3.11 5.24a.28.28 0 0 0 .17.41l1.08.3q.65.17.17.64-.86.84-1.89 1.15-.53.17-.6.71l-.25 1.81q-.05.35-.4.25l-.36-.1q-.12-.04-.12-.17l.11-2.05a.36.36 0 0 0-.63-.25q-1.67 2.01-.47 3.49a.69.67-49.6 0 1 .05.77l-.18.29q-.22.36-.52.06l-3.3-3.33q-1.04-1.05-1.02.43.01.67.43 1.18.45.56-.23.78l-.41.14a.66.65 65.2 0 0-.35.96l.18.3q.4.66-.37.71l-1.51.1a.4.39-18.2 0 0-.31.6q.89 1.47-.35 3.18a1.29 1.29 0 0 0 1.55 1.95q1.08-.46 1.38-1.95.3-1.43.89-.09.39.9-.5 1.04a.88.88 0 0 0-.5 1.46l2.7 2.96q.43.47-.21.46-.31 0-.43-.26-.17-.38-.58-.28-.82.22-1.03 1.04-.44 1.74-1.17 3.46-.23.54.23.9 1.94 1.53 2.36 4.59.01.07-.06.05-1.74-.59-3.18-1.53-.1-.06-.14-.17l-1.48-3.97q-.2-.53-.76-.54-.64-.02-1.19.32-.51.32-1.05.07-.19-.09-.39-.08-.54.01-.48.54.19 1.72-1.37 2.31-.6.23-.67.86-.04.46-.38.75-.43.37-.56-.19-.18-.82.41-1.47.31-.35.38-.81.12-.7-.32-1.32a.72.71-50.1 0 1-.06-.72l1.44-3.04q.27-.58-.18-1.02l-1.74-1.71q-.5-.48-1.05-.07-.18.14-.41.19-.86.16-.49-.63l1.46-3.07a1 1 0 0 0-.04-.94q-1.13-1.86-2.45-1.51-1.8.48-.75-1.05.64-.92 1.36-1.77a1.68 1.68 0 0 0-.53-2.59l-1.4-.7q-.6-.3-.66.36-.07.61-.45 1.01a.88.87-59.6 0 1-.91.24l-.28-.08q-.49-.16-.13-.52.74-.72.03-1.45-.46-.48-.19-1.08l1.34-2.97q.2-.45 0-.89-.26-.59-.32-1.23-.08-.85-.81-.42-1.55.9-3.45.66-1.13-.14-.46.78 1.06 1.44-.13 2.53a1.22 1.21 67.3 0 1-2.04-.84q-.13-2.75-1.68-4.55-.4-.46-.06-.97.31-.46.35-.97.08-1.03-.77-.44-.18.12-.39.13-.56.01-.59-.55-.1-1.61-.93-2.79c2.73-5.16 4.7-10.16 10.15-13.46q2.76-1.68 7.45-2.76 12.6-2.91 25.6-6.49c12.46-3.44 21.77-9.7 23.58-23.61a1.39 1.36 71.7 0 1 .39-.8c3.88-3.94 8.36-3.27 12.7-.46M179.78 79.54q-.07.39-.45.25-.33-.13-.26-.4.08-.33.42-.28.37.05.29.43M256.25 80.49q3.66 1.56 6.68 2.11 8.24 1.48 16.81 2.9c2.46.41 4.39 2.26 4.26 4.82q-.23 4.3 1.06 8.77c1.29 4.51 4.67 5.91 8.64 7.46l2.12 4.92q.34.8.99.22l.73-.65q.57-.51-.03-.97-.66-.51.57-1.74 1.57.5 2.66 1.52c1.58 1.47 1.32 4.1 1.53 6.16l-.63 2.03q-.15.5.01.99.48 1.52-.03 2.98-.17.48.07.92.61 1.15.68 2.26l-.63 5.33-3.06-4.96q-.27-.45-.8-.5t-.98.24q-.77.52-.82-.41-.03-.39-.34-.63-.75-.56-.69.38.1 1.59-.38 3.22a1.09 1.09 0 0 1-1.21.77q-.41-.07-.77-.28-.4-.24-.57.19l-.72 1.84q-.19.49-.03.99l.99 2.98q.21.66-.33 1.08-.89.71-.5 1.69.22.56-.14 1.03-.34.43-.85.56a.45.44 85.1 0 1-.54-.46q.1-1.77-.57-3.36a1.03 1.01 54.6 0 0-1.7-.31q-.12.13-.28.08-.59-.19-.24-.7 1.14-1.65.37-3.2-.32-.63.37-.77.15-.03.3-.05.29-.03.22-.32c-.6-2.36-.25-4.9-1.52-7.11q-.33-.58-.86-.16-.96.77-.62 1.72.46 1.3-.78.68-1.89-.95-4.02-.7-.6.07-.32.6.55 1.07.71 2.24a.81.8 73.6 0 1-.44.82l-1.83.91q-.74.37-.79-.45l-.45-6.36q-.04-.56.18-1.07l1.81-4.12q.28-.64-.42-.71-.13-.01-.27-.01-.98.06-.35-.69c.31-.37.52-.61.6-1.11q.11-.69-.47-1-.38-.21-.81-.05-.93.34-.99 1.32-.05.64-.58.28-1.86-1.27-2.38-3.12-.14-.5-.58-.22-1.19.76-2.62.73-.85-.02-.33.65.66.84.74 1.93.03.48-.3.83-.38.4-.88.59-.47.18-.73.62-.21.34-.26.7-.09.71-.68.31-.52-.36-.85-.9-.3-.5.17-.86.38-.29.38-.76 0-.48-.3-.85l-1.4-1.79a.83.83 0 0 1 .42-1.31q1.53-.45 1.15-1.94a.64.59-39.6 0 1 .06-.45l2.02-3.67q.29-.53-.06-1.01l-.28-.38q-.53-.72.49-.69.18.01.34-.07.39-.18.22-.58l-1.05-2.46q-.19-.46.02-.91l.42-.9a.69.68 24.9 0 0-.34-.91l-2.11-.99a.4.4 0 0 0-.55.48q.3 1-.05 1.8a.46.45-52.9 0 1-.77.11q-1.45-1.79-3.43-1.84-.75-.02-.32-.64.64-.92-.31-1.58-.4-.28-.85-.1-1.66.67-3.43.63-.59-.02-.76.54-.62 2.01 1.21 2.5.43.12.33.56-.69 2.9-2.97 3.51-.37.1-.23.46.47 1.24-.48 2.85-.47.79-.75-.08c-.34-1.06-.85-1.8-.45-2.96q1.05-3.05-1.74-5.04-.56-.41-1.05.09-.22.23-.52.26-2.4.22-.21-.79 1.06-.49 2.16-1.01.5-.24.53-.79c.07-1.54.08-3 .68-4.47q.69-1.68-.4-3.35a.8.8 0 0 1 .55-1.23l1.57-.24q.7-.1.3-.69-.8-1.16-.63-2.59.09-.77-.64-.51-.49.17-.76.67-.03.05-.09.01l-.21-.16q-.2-.15-.01-.32 1.29-1.22 3-1.83"/><path fill="#bd21de" d="M224.28 89.26q.07-.23.29-.2.14.01.21.14.12.22-.09.36a.27.27 0 0 1-.41-.3M252.71 90.45v-.04q0-.07.06-.04.05.03.03.08-.03.05-.05.09-.04.07-.12.08-.13.02-.18-.1-.05-.11.06-.18.08-.05.14.02.04.04.05.1.01.02.01-.01M220.22 91.5q-.06-.08.27-.12a.07.07 0 0 1 .07.1q-.15.29-.34.02M161.16 96.52a.24.24 0 0 1 .32-.27q.32.11.09.38-.32.4-.41-.11M173.82 99.69q-.19.38-.46.06-.32-.39.17-.46.52-.08.29.4M258.12 101.46a.37.37 0 0 1 .66-.03q.35.62-.08 1.19a.39.39 0 0 1-.7-.17q-.09-.49.12-.99"/><circle cx="169.49" cy="104.55" r=".31" fill="#bd21de"/><path d="M298.08 108.33q-1.23 1.23-.57 1.74.6.46.03.97l-.73.65q-.65.58-.99-.22l-2.12-4.92zM302.27 116.01q.82 4.57.1 9.18-.07-1.11-.68-2.26-.24-.44-.07-.92.51-1.46.03-2.98-.16-.49-.01-.99z"/><path fill="#bd21de" d="M79.48 145.84c-1.94-4.7-1.86-7.73-1.6-13.42q.06-1.33 2.87-5.14.85.52 1.12 1.16a1 1 0 0 1-.02.83l-2.15 4.3q-.24.5-.8.53l-.34.02q-.55.03-.43.56.07.33.38.51a.69.69 0 0 1 .34.54l.14 1.32q.05.46.49.61l3.73 1.32q.71.26.17.79-.14.14-.32.14-.73-.02-.92.68-.16.6.11 1.16.24.49-.11.91z"/><circle cx="82.46" cy="137.56" r=".3" fill="#bd21de"/><path fill="#bd21de" d="M173.42 145.13a.29.29 0 0 1 .1.54q-.12.06-.25.04-.29-.04-.23-.33.07-.31.38-.25"/><ellipse fill="#bd21de" rx=".39" ry=".32" transform="rotate(18.4 -398.184 408.291)"/><path fill="#bd21de" d="M132.37 157.8q-.26-.15-.25-.43 0-.4.38-.27.41.13.32.51a.31.3 21.6 0 1-.45.19M299.22 192.95l-.53 2.37q-1.28.87-2.83.7-.83-.09-.38-.79.46-.72.68-1.5.23-.8.78-.17.48.55 2.28-.61M289.98 246.7q-.15.16-.07.63-2.18 2.78-.55 5.64-.81 6.23.61 13.27.44 2.18-.73 3.96-.73 1.13-2.99 2.39-11.1 6.22-31.61 20.04Q238.97 303.2 219 310.4q.14-2.28 1.41-4.14.34-.51.33-.84-.01-.58-.57-.87-.37-.19-.78-.09-.29.07-.57.17a.91.9 60.8 0 1-1.03-.3c-1.93-2.54.49-4.09-.16-6.46q-.17-.58.43-.72.23-.05.37-.24.32-.41.35-.93.11-1.5.16-2.94.05-1.39-1.03-.51-.23.19-.51.15-.47-.07-.47-.54-.01-2.22 2.08-3.2 2.47-1.15 4.54-2.8.54-.44.07-.94-.55-.6-.76-1.4-.23-.82-.89-.3-.1.08-.21.14-.62.27-.66-.39-.1-1.4-.86-2.65-.2-.33.07-.62.08-.09.13-.21.23-.52-.32-.65-1.48-.38-1-1.93.53-1.72 1.35-3.18.66-1.15-.6-1.57-3.24-1.08-3-3.82.01-.14-.04-.28-.12-.28-.65-.13a.51.5 2.5 0 0-.31.28q-.76 1.68-2.23.86-.45-.26-.79.13-.92 1.03-.92 2.5.01.8.78.57 1.29-.37 1.82 1.42.16.55-.17 1.02l-1.29 1.83q-.52.75.23 1.26.12.09.2.22.34.59-.21.19-.15-.12-.24-.3-.28-.55-.83-.27l-2.72 1.36q-.7.35-.42 1.09.13.37.38.67.8.94-.42 1.1-1.17.16-1.8-.62a.75.74 45.4 0 1 0-.95q.49-.59.64-1.3.1-.48-.16-.9-.7-1.15-.84-2.47-.08-.81-.8-.44l-.83.41q-.57.28-.94-.24-.28-.4-.33-.91-.07-.69-.69-.37l-1.55.8q-.58.31-.21.85.71 1.02.53 2.27-.09.62-.63.3-1.47-.85-2.11.79-1.18 3.02-1.36-.22-.07-1.26.52-2.31a.73.72 44.6 0 0-.01-.72c-1.04-1.77.38-4.16.95-5.89a1.17 1.15-86.7 0 1 .85-.77q.47-.1.97-.03.43.06.69-.27 1.41-1.78.49-3.3-.27-.45.08-.84.52-.6.44-1.34-.09-.83-.75-.33l-.33.25q-.54.41-.76-.23l-.44-1.23c2.95-4.18 5.61-7.61 4.95-12.57l.43-2.97a.37.36 24.8 0 1 .6-.22l1.57 1.35a.48.48 0 0 0 .79-.34c.16-3.28-3.03-7.25 1.83-9.17q.51-.2.68-.73 1.09-3.33 1.59-6.61.14-.88-.7-.57-.45.16-.51.69-.11 1.21-.82.23-.08-.11.11-.26a.18.18 0 0 0 .02-.27q-1.35-1.32-2.27-.11-.2.26-.53.24-.18-.01-.2-.24-.02-.21.18-.3.83-.35.31-1.04-1.12-1.52.76-1.2 1.66.29 1.62-1.36-.08-4.33-2.33-7.57-1.28-1.85.71-.81 1.64.86 3.1 2.22a1.24 1.21 20.1 0 1 .37.77l.24 2.98q.05.61.66.7 2.01.28 3.67-.58.39-.2.46.23.28 1.65-.7 2.91a.94.93 46.2 0 0-.02 1.1q.42.59 1.16.7.64.09.44.7l-.48 1.43a1.61 1.58 46.2 0 0-.01.97l1.91 5.87a.92.9 87.4 0 0 .64.6l1.46.35q.47.11.52.59l.15 1.45q.14 1.24.85.22 1.31-1.89.57-3.8a.83.82-35.5 0 1 .15-.84q1.58-1.76 3.84-2.45.75-.22.6.55-.04.26.17.47.36.35.65-.07.19-.27.25-.6.1-.51.6-.66 1.74-.51 1.2-2.38-.15-.5-.63-.72-.23-.11-.48-.12-.75-.04-.3-.64.89-1.19.01-2.5a.24.24 0 0 1 .08-.34q1.45-.85 1.98-2.76.1-.35-.09-.66-.77-1.2-.31-2.73a.26.25 37.4 0 1 .46-.06q1.54 2.44 1.58 5.35a.41.41 0 0 0 .39.4l2.16.13q1.52.08.4 1.11-.66.62-1.02 1.43-.26.59.13 1.1l1.1 1.42q.54.69-.34.73-.56.02-.88.69a1.03 1 53.6 0 0-.08.59l1.09 6.75q.09.55.57.82 1.37.76 1.29 2.39-.03.63.57.83 1.08.37 1.69-.65.88-1.49.82-3.58-.02-.61.59-.69.64-.08 1.15.36.53.47 1.16.14.59-.32 1.02-.89a.45.45 0 0 0-.28-.71q-.31-.05-.36-.35-.05-.36.25-.16 1.11.72 1.41 1.9.18.71.73.23.17-.15.19-.38.05-.62.6-.89 1.6-.79 2.34-2.83.19-.52-.1-.97-.3-.47-.86-.49-.57-.02-.74-.56-.38-1.2-1.67-1.64-.94-.33.04-.5 4.2-.75 2.91-4.91a.37.36-87.8 0 1 .48-.45q2.91 1.18 1.45 3.45-.33.52.29.51.82-.01 1.41.56.62.6.88-.22.08-.25.06-.5a.49.49 0 0 1 .78-.43q.78.6 1.1 1.41.22.57-.2 1.01l-1.48 1.61q-.47.5-.1 1.07.41.65 1.26.75.67.09.58.75c-.16 1.14-1.38 1.53-1.57 2.41q-.19.83.64 1.28a1.03 1.03 0 0 1 .24 1.63l-.84.87q-.38.39-.02.81.79.93 1.99 1.28a.3.3 0 0 1 .17.44q-1.23 2.14.48 3.98.42.45.75-.08.21-.34.2-.75-.02-.65.6-.5.49.12.82.57.31.43.09.9-.95 2.03-.18 4.16.67 1.85 1.69.16l2.54-4.22q.26-.42-.11-.75-.2-.18-.5-.16-1.26.07-.44-.89.61-.71 1.55-.97a1.18 1.16-4.3 0 0 .85-.97l.19-1.46q.07-.52.55-.32l.24.1a.45.45 0 0 1 .25.58q-.26.69-.11 1.36.21.89.77.17 1.32-1.73.24-3.49-.26-.43.16-.71.12-.08.29-.09.17 0 .32.14 1.52 1.44 3.12 3.04 1.01 1 .95-.41-.03-.69-.48-1.29-.4-.55.27-.65.29-.05.57-.15.95-.35.15-.97-.13-.1-.09-.3.11-.46.57-.54l1.28-.2q.91-.15.36-.89l-.22-.3a1 .99-48.2 0 1-.06-1.08q.89-1.53.64-3.04-.18-1.02-1.11-.56-.81.41-1.66 1.13a.84.83-31.9 0 0-.23.96q.19.44-.14.62-.57.31-.65-.33-.15-1.1.76-1.78.57-.43.09-.97l-2.76-3.11a.18.18 0 0 1 .23-.27q1.85 1.19 2.36-.97.39-1.64 1.02-3.13a.69.68 23.1 0 0-.36-.89l-.6-.27q-.47-.21-.6-.71l-.75-2.77q-.24-.88.6-.53.83.34 1.66.79a2.44 2.43 4.7 0 1 1.14 1.34l1.15 3.3a.92.91 59.7 0 0 1.47.39q.72-.62 1.6-.3.59.22.75-.39l.31-1.2q.16-.63.76-.86.99-.38 1.29-1.44.09-.31.41-.37.2-.03.28.08.11.16.07.36-.15.8-.53 1.49-.29.52-.18 1.1.38 2.1-.95 3.99-.37.51-.12 1.08.53 1.24 1.77 2.09.46.32.98.11l.46-.19a.42.42 0 0 1 .54.57l-1.46 3.11q-.24.52.06 1.01 1.26 2 2.84 1.37.65-.26.57.44c-.18 1.64-2.13 1.8-1.98 4.33q.03.58.58.76l1.55.51q.58.19.81-.37l.24-.58a.89.89 0 0 1 1-.52l.47.1q.7.15.19.65-.79.77.16 1.94m-80.15-6.2a.36.36 0 0 0-.36-.36.36.36 0 0 0-.36.36.36.36 0 0 0 .36.36.36.36 0 0 0 .36-.36"/><path fill="#bd21de" d="M250.59 225.87a.15.15 0 0 1-.22-.05q-.08-.15-.08-.31.01-.36.34-.22.48.21-.04.58M274.11 236.28q.06-.35.38-.2.39.18.24.46-.11.2-.33.18-.35-.03-.29-.44M209.79 237.57q.09.35-.39.26a.24.24 0 0 1-.11-.41q.38-.32.5.15"/><circle cx="209.47" cy="240.5" r=".36"/><path d="m289.91 247.33-.55 5.64q-1.63-2.86.55-5.64M200.66 262.13l.44 1.23q.22.64.76.23l.33-.25q.66-.5.75.33.08.74-.44 1.34-.35.39-.08.84.92 1.52-.49 3.3-.26.33-.69.27-.5-.07-.97.03a1.17 1.15-86.7 0 0-.85.77c-.57 1.73-1.99 4.12-.95 5.89a.73.72 44.6 0 1 .01.72q-.59 1.05-.52 2.31.18 3.24 1.36.22.64-1.64 2.11-.79.54.32.63-.3.18-1.25-.53-2.27-.37-.54.21-.85l1.55-.8q.62-.32.69.37.05.51.33.91.37.52.94.24l.83-.41q.72-.37.8.44.14 1.32.84 2.47.26.42.16.9-.15.71-.64 1.3a.75.74 45.4 0 0 0 .95q.63.78 1.8.62 1.22-.16.42-1.1-.25-.3-.38-.67-.28-.74.42-1.09l2.72-1.36q.55-.28.83.27.09.18.24.3.55.4.21-.19-.08-.13-.2-.22-.75-.51-.23-1.26l1.29-1.83q.33-.47.17-1.02-.53-1.79-1.82-1.42-.77.23-.78-.57 0-1.47.92-2.5.34-.39.79-.13 1.47.82 2.23-.86a.51.5 2.5 0 1 .31-.28q.53-.15.65.13.05.14.04.28-.24 2.74 3 3.82 1.26.42.6 1.57-.82 1.46-1.35 3.18-.48 1.55 1 1.93.55.13.32.65-.05.12-.13.21-.27.29-.07.62.76 1.25.86 2.65.04.66.66.39.11-.06.21-.14.66-.52.89.3.21.8.76 1.4.47.5-.07.94-2.07 1.65-4.54 2.8-2.09.98-2.08 3.2 0 .47.47.54.28.04.51-.15 1.08-.88 1.03.51-.05 1.44-.16 2.94-.03.52-.35.93-.14.19-.37.24-.6.14-.43.72c.65 2.37-1.77 3.92.16 6.46a.91.9 60.8 0 0 1.03.3q.28-.1.57-.17.41-.1.78.09.56.29.57.87.01.33-.33.84-1.27 1.86-1.41 4.14l-3.1.79q.13-.9.08-1.09-.47-2.02-.97-.01-.21.86.62 1.19-1.81 1.02-3.66 1.09.22-1.09-2.2-1.57-.87-.17-.21-.77.12-.11.11-.27-.04-.6-.64-.61-1.73-.02-2.28-1.51-.18-.48-.64-.25l-.3.16q-.78.4-.72-.48.13-1.66-.88-2.11-.6-.26-.93.3-.28.48.21.68a.54.54 0 0 1 .17.87q-.65.67-.83 1.58-.11.59-.63.28-1-.6-1.78.41-.39.52.24.63.44.08.78.35.39.3.45.78l.21 1.51q.1.73.84.67.73-.06 1.27-.57.56-.52.73.23.21.97-.48 2.22l-10.49-.08q-.49 0-.76-.41-1.49-2.2-2.6-4.51-1.2-2.52-.05-6.26 5.61-18.14 7.61-36.46.26-2.42 2.49-5.05m8.44 21.26q.03.42.48.42a.29.29 0 0 0 .28-.4q-.11-.26-.41-.32a.29.29 0 0 0-.35.3m-5.85 20.3a.27.26 71.1 0 0 .3.15q.34-.08.26-.36a.35.34 71.1 0 0-.45-.23q-.27.1-.11.44"/><path fill="#bd21de" d="M209.1 283.39a.29.29 0 0 1 .35-.3q.3.06.41.32a.29.29 0 0 1-.28.4q-.45 0-.48-.42M203.25 303.69q-.16-.34.11-.44a.35.34 71.1 0 1 .45.23q.08.28-.26.36a.27.26 71.1 0 1-.3-.15M211.97 312.37l-7.51 2.53q.69-1.25.48-2.22-.17-.75-.73-.23-.54.51-1.27.57-.74.06-.84-.67l-.21-1.51q-.06-.48-.45-.78-.34-.27-.78-.35-.63-.11-.24-.63.78-1.01 1.78-.41.52.31.63-.28.18-.91.83-1.58a.54.54 0 0 0-.17-.87q-.49-.2-.21-.68.33-.56.93-.3 1.01.45.88 2.11-.06.88.72.48l.3-.16q.46-.23.64.25.55 1.49 2.28 1.51.6.01.64.61.01.16-.11.27-.66.6.21.77 2.42.48 2.2 1.57M215.9 311.19q-.13.04-.27.09-.83-.33-.62-1.19.5-2.01.97.01.05.19-.08 1.09"/></svg>