<svg xmlns="http://www.w3.org/2000/svg" viewBox="0 0 382 382"><g fill="none" stroke-width="2"><path stroke="#6b9b7e" d="M301.79 177.48q-2.7-2.46-5.12-5.29c-.72-.84-1.68-1.4-2.7-1.81a1.89 1.77-33.6 0 0-.78-.13q-5.37.35-5.22-5.17.02-.5.31-.91l3.49-4.82a1.14 1.12 10.6 0 1 .64-.43l.35-.09q.92-.23.08-.68l-1.84-.99a.67.67 0 0 1 .02-1.19q1.26-.63 2.28-1.46 1.65-1.33-.42-.84-.23.05-.27.29-.19.98-.95.33-2.71-2.33-2.87-4.9-.03-.5-.54-.5c-1.22-.01-2.17.65-3.44.57-4.7-.28-7.15-7.9-6.82-11.63q.34-3.84-1.28-7.36a.33.33 0 0 0-.55-.08l-3.39 3.88q-.46.53-.88-.03c-.76-1.01-1.04-2.31-1.64-3.43-1.1-2.05-2.48-4.04-2.53-6.46q-.05-2.48-.39-5.01-.05-.42-.47-.47-.34-.04-.6.16-.17.12-.27.31-.08.14-.11.3-.17 1-.42.02-.1-.38-.13-.77-.05-.87-.37-.05-.59 1.55-.48 2.67a1.55 1.54-83 0 1-2.05 1.61c-2.64-.95-2.17-4.98-4.88-5.28q-5.93-.64-11.24-2.93c-3.1-1.33-6.84-1.7-9.43.85q-3.96 3.9-7.66 7.68-.54.55-.23 1.26l.77 1.76a.86.86 0 0 1-.27 1.03q-3.32 2.52-6.75.76-3.41-1.76-7.18-2.6-.57-.13-.83.38l-5.07 9.84a2.42 2.42 0 0 0 .67 3.02c2.59 2.02 3.39 5.06 5.67 7.39q2.39 2.43 4.73 5.11.45.51-.16.81c-4.01 2.02-9.05 5.16-5.68 9.83 2.79 3.87-1.23 8.41-4.15 10.7q-.46.36-.61.93c-.41 1.54-.96 3.18-2.07 4.34q-3.53 3.68-3.36 10.37c.04 1.63.44 3.11 1.95 3.99q3.6 2.08 5.75 5.76.35.6.77.05 2.96-3.9 8.38-6.05.51-.2.71.31.93 2.36 2.04 4.52c1.73 3.35 6.52 2.46 6.75 7.17.18 3.74-.15 7.49 3.57 9.72q.19.12.18.35 0 .15.04.29a.2.2 0 0 0 .29.11c1.9-1.09 4.03-2.96 6.29-3.01 4.18-.08 6.45 3 8.25 6.33 1.11 2.05 3.15 1.06 4.18-.55q.09-.14-.06-.18-.17-.05-.19-.18-.12-.95.28-.08.32.71.85 1.2a.65.65 0 0 0 1.03-.2q1.84-3.93 4.96-6.32.42-.32.93-.22c2.56.53 5.4.56 7.33 2.59 1.45 1.52 2.86 4.01 5.19 4.08a.22.22 0 0 0 .22-.27q-.03-.15.07-.25.27-.27.65-.33c3.75-.59 3.43-3.26 3.36-6.55q-.14-7.63-5.45-13.59a.59.58-31.7 0 1 .22-.93q1.68-.69 2.08 1.1a.59.59 0 0 0 .6.46q3.16-.12 6.59 1.36a.98.98 0 0 0 1.36-.81c.42-4.29 1.78-7.73 6.16-9.41q.47-.18.63.28.18.51.73.71 3.82 1.36 7.82 2.62" vector-effect="non-scaling-stroke"/><path stroke="#7faf92" d="M173.14 93.26a.59.58-61.8 0 0 .27.91q.64.22.98-.53a.51.5 28.9 0 0-.19-.64q-.59-.36-1.06.26M262.46 97.19q-.53.24-.11.68.49.5.83-.11.28-.5-.2-.62-.27-.07-.52.05M270.767 99.755a.83.37 123.1 0 0 .763-.493.83.37 123.1 0 0 .143-.897.83.37 123.1 0 0-.763.493.83.37 123.1 0 0-.143.897M280.06 116.52q-.28.49-.13 1.04a.42.41 47.7 0 0 .79.04q.24-.64-.22-1.13a.28.27 37.9 0 0-.44.05M116.13 141.39q-.13.55-.03 1.05a.34.34 0 0 0 .56.18q.65-.59.17-1.4-.25-.42-.58-.06a.52.51-17.9 0 0-.12.23M127.356 144.902a1.66.42 32.1 0 0-1.183-1.238 1.66.42 32.1 0 0-1.63-.526 1.66.42 32.1 0 0 1.184 1.238 1.66.42 32.1 0 0 1.63.526M157.7 162.429a.77.5-1.6 0 0-.784-.479.77.5-1.6 0 0-.756.522.77.5-1.6 0 0 .784.478.77.5-1.6 0 0 .756-.521M169.24 167.462a.9.57 55.5 0 0-.04-1.065.9.57 55.5 0 0-.98-.419.9.57 55.5 0 0 .04 1.065.9.57 55.5 0 0 .98.419M115.717 173.765a1 .6 126.4 0 0 1.076-.449 1 .6 126.4 0 0 .11-1.16 1 .6 126.4 0 0-1.076.448 1 .6 126.4 0 0-.11 1.16M159.05 172.37a.49.49 0 0 0-.49-.49.49.49 0 0 0-.49.49.49.49 0 0 0 .49.49.49.49 0 0 0 .49-.49M136.038 173.731a1.18.54 38.9 0 0-.579-1.161 1.18.54 38.9 0 0-1.257-.321 1.18.54 38.9 0 0 .579 1.161 1.18.54 38.9 0 0 1.257.321M162.76 174.045a.74.53 75.1 0 0 .322-.851.74.53 75.1 0 0-.702-.58.74.53 75.1 0 0-.322.852.74.53 75.1 0 0 .702.58M220.432 210.64a.89.63 90.5 0 0 .638-.884.89.63 90.5 0 0-.622-.896.89.63 90.5 0 0-.638.884.89.63 90.5 0 0 .622.896M224.108 211.278a.69.52 121.6 0 0 .805-.315.69.52 121.6 0 0-.081-.86.69.52 121.6 0 0-.805.314.69.52 121.6 0 0 .081.86M225.44 220.12a.43.43 0 0 0 .03.74q.95.54 1.38-.01a.43.43 0 0 0-.12-.64q-.74-.44-1.29-.09M257.08 238.65q-.08-.3-.33-.41-1.86-.88-.52.68.66.78 1.72 1.05 1.59.41.41-.73-.26-.26-.7-.21a.54.53 77.9 0 1-.58-.38M266.37 240.34q-.57.59-.34 1.3a.48.48 0 0 0 .9.03q.24-.63.05-1.2a.37.36-32.3 0 0-.61-.13M210 281.99q-.43 0-.53.41-.07.34.22.16.29-.17.31-.57M210 281.99q.83-.38.62-1.12-.13-.45-.27 0l-.35 1.12M216.31 283.49q.28.38.31-.09.03-.45-.26-.76a.17.16 25.4 0 0-.29.1q-.02.42.24.75M209.94 289.45a.61.61 0 0 0-.61-.61.61.61 0 0 0-.61.61.61.61 0 0 0 .61.61.61.61 0 0 0 .61-.61" vector-effect="non-scaling-stroke"/><path stroke="#83b396" d="M247.05 126.37a.63.63 0 0 0-.63-.63.63.63 0 0 0-.63.63.63.63 0 0 0 .63.63.63.63 0 0 0 .63-.63" vector-effect="non-scaling-stroke"/><path stroke="#76a688" d="M248.38 133.23q-.53-.19-1.1-.08c-1.59.28-3.64-1.18-4.77-2.24-1.49-1.4-3.26-.15-3.77 1.51-1.25 4.01-2.16 8.95-4.91 12.2q-.5.6-1.27.74-1.53.27-3.14-.05a2.29 2.28 13.1 0 0-2.66 1.65q-.31 1.19-.12 2.47.08.55-.38.86-2.11 1.44-.29 3.39.09.1.2.01l.2-.17q.34-.28.11-.65-.42-.65-.26-1.33.13-.59.58-.19l1.35 1.2q.44.39.18.92l-.57 1.16q-.36.72.33 1.14l1.83 1.14q.62.39.7-.34.1-.94.56-1.75a1.06 1.05 42.9 0 1 1.79-.06c2.63 3.91-1.69 7.15-4.32 9.51q-.41.36-.08.8 1.58 2.15 3.53 3.9c2.84 2.55 4.14 7.17 4.65 10.66q.08.55-.24 1-1.03 1.44-.64 3.43.09.47.49.73 4.69 3.08 8.73 2.16 5.84-1.34 9.53-5.68.33-.4.84-.27l5.25 1.37q.89.23 1.02-.67c.74-5.06 3.11-7.13 6.01-10.91q.31-.41.28-.93-.26-5.29.09-10.35c.24-3.37-2.21-6.45-2.72-9.77q-.47-3.12-1.68-5.97c-.8-1.87.07-4.03.85-5.73q1.17-2.52-1.4-1.46-4.9 2.02-7.26-2.44c-.82-1.55-.84-3.54-1.01-5.31a.3.3 0 0 0-.5-.2l-5.1 4.43q-.41.35-.91.17" vector-effect="non-scaling-stroke"/><path stroke="#83b396" d="M281.39 176.08a.5.5 0 0 0 .06.88q.58.27 1.01-.01 1.24-.82-.24-1.04-.45-.06-.83.17M262.744 206.113a1.14.63 73.5 0 0 .28-1.272 1.14.63 73.5 0 0-.928-.914 1.14.63 73.5 0 0-.28 1.272 1.14.63 73.5 0 0 .928.914M266.286 210.78a.88.49 120.3 0 0 .867-.513.88.49 120.3 0 0 .021-1.007.88.49 120.3 0 0-.867.513.88.49 120.3 0 0-.021 1.007" vector-effect="non-scaling-stroke"/><path stroke="#89b99c" d="M238.6 135.14a.42.42 0 0 0 .08.76q.56.2.77.12 1.37-.51-.02-.98-.43-.14-.83.1M236.9 149.26q.02-1.56-1.37-2-.73-.23-.32.42l1.1 1.75q.58.91.59-.17M232.79 165.7l.13-.21q.08-.14-.03-.25l-1.47-1.45q-.22-.22-.46-.01l-.21.19q-.28.25.01.5l1.53 1.31a.34.33-53.5 0 0 .5-.08" vector-effect="non-scaling-stroke"/></g><path fill="#67977a" d="M301.79 177.48q-2.7-2.46-5.12-5.29c-.72-.84-1.68-1.4-2.7-1.81a1.89 1.77-33.6 0 0-.78-.13q-5.37.35-5.22-5.17.02-.5.31-.91l3.49-4.82a1.14 1.12 10.6 0 1 .64-.43l.35-.09q.92-.23.08-.68l-1.84-.99a.67.67 0 0 1 .02-1.19q1.26-.63 2.28-1.46 1.65-1.33-.42-.84-.23.05-.27.29-.19.98-.95.33-2.71-2.33-2.87-4.9-.03-.5-.54-.5c-1.22-.01-2.17.65-3.44.57-4.7-.28-7.15-7.9-6.82-11.63q.34-3.84-1.28-7.36a.33.33 0 0 0-.55-.08l-3.39 3.88q-.46.53-.88-.03c-.76-1.01-1.04-2.31-1.64-3.43-1.1-2.05-2.48-4.04-2.53-6.46q-.05-2.48-.39-5.01-.05-.42-.47-.47-.34-.04-.6.16-.17.12-.27.31-.08.14-.11.3-.17 1-.42.02-.1-.38-.13-.77-.05-.87-.37-.05-.59 1.55-.48 2.67a1.55 1.54-83 0 1-2.05 1.61c-2.64-.95-2.17-4.98-4.88-5.28q-5.93-.64-11.24-2.93c-3.1-1.33-6.84-1.7-9.43.85q-3.96 3.9-7.66 7.68-.54.55-.23 1.26l.77 1.76a.86.86 0 0 1-.27 1.03q-3.32 2.52-6.75.76-3.41-1.76-7.18-2.6-.57-.13-.83.38l-5.07 9.84a2.42 2.42 0 0 0 .67 3.02c2.59 2.02 3.39 5.06 5.67 7.39q2.39 2.43 4.73 5.11.45.51-.16.81c-4.01 2.02-9.05 5.16-5.68 9.83 2.79 3.87-1.23 8.41-4.15 10.7q-.46.36-.61.93c-.41 1.54-.96 3.18-2.07 4.34q-3.53 3.68-3.36 10.37c.04 1.63.44 3.11 1.95 3.99q3.6 2.08 5.75 5.76.35.6.77.05 2.96-3.9 8.38-6.05.51-.2.71.31.93 2.36 2.04 4.52c1.73 3.35 6.52 2.46 6.75 7.17.18 3.74-.15 7.49 3.57 9.72q.19.12.18.35 0 .15.04.29a.2.2 0 0 0 .29.11c1.9-1.09 4.03-2.96 6.29-3.01 4.18-.08 6.45 3 8.25 6.33 1.11 2.05 3.15 1.06 4.18-.55q.09-.14-.06-.18-.17-.05-.19-.18-.12-.95.28-.08.32.71.85 1.2a.65.65 0 0 0 1.03-.2q1.84-3.93 4.96-6.32.42-.32.93-.22c2.56.53 5.4.56 7.33 2.59 1.45 1.52 2.86 4.01 5.19 4.08a.22.22 0 0 0 .22-.27q-.03-.15.07-.25.27-.27.65-.33c3.75-.59 3.43-3.26 3.36-6.55q-.14-7.63-5.45-13.59a.59.58-31.7 0 1 .22-.93q1.68-.69 2.08 1.1a.59.59 0 0 0 .6.46q3.16-.12 6.59 1.36a.98.98 0 0 0 1.36-.81c.42-4.29 1.78-7.73 6.16-9.41q.47-.18.63.28.18.51.73.71 3.82 1.36 7.82 2.62-4 25.95-8.72 51.7-.52 2.84-.76 5.74c-.3 3.59-1.14 7.39-.61 10.96.56 3.76 2.39 8.77-1.78 11.15-7.73 4.41-15.17 8.76-22.48 13.82-17.04 11.79-34.44 21.71-54.62 27.17q-1.35.36-3.38 1.63-.43.27-.93.27h-11.92q-.5.01-.78-.42-1.62-2.44-2.63-4.61-1.2-2.62-.13-6 5.56-17.46 7.59-35.97.27-2.38 1.5-4.2c2.94-4.34 6.61-8.17 6.04-13.9q-.9-9.02-1.63-18.48-.35-4.53-1.3-7.84c-3.02-10.55-10.78-11.74-20.05-12.89-6.75-.83-13.15-.47-19.55-.67-3.02-.09-6.07-1.65-8.46-3.6q-12.7-10.35-17.79-14.11-14.43-10.62-31.83-12.22-5.28-.48-8.57-1.64-14.89-5.24-15.8-22.3c-.14-2.65.65-4.77-.17-7.48-.88-2.92-2.61-5.77-2.63-8.79q-.03-3.79.03-7.37.02-.68.4-1.25 4.13-6.15 7.62-12.89c3-5.78 7.22-9.34 13.37-10.77q13.19-3.05 27.71-7.01c12.59-3.44 21.11-10.06 23.08-23.58q.07-.51.45-.86c5.16-4.79 10.25-1.95 15.11 1.12 1.85 1.17 4.59 1.71 5.96-.47 2.05-3.25 3.35-6.94 7.95-6.86q2.46.05 4.59.95c2.32.98 4.91.83 7.2-.19q6.71-2.97 14.93-1.83c2.81.39 6.79-3.61 9.16-.68a2.3 2.3 0 0 0 1.12.77q7.09 2.23 13.73 4.16 1.46.42 3.02.02 4.65-1.18 9.63-1 2.9.1 5.29 2.08c4.79 3.94 8.18 7.27 14.64 8.46q8.13 1.5 16.65 2.87c2.41.39 4.72 2.13 4.54 4.78q-.28 4.28 1.06 8.8c2.4 8.12 11.02 6.46 16.18 11.24q.37.34.45.83 1 5.71 1.05 10.3c.05 4.29-1.17 9.2-1.73 13.85q-.06.55.22 1.02l2.64 4.35q.31.51.3 1.11-.02 9.26.01 19.01c.02 5.52-1.38 11.18-2.39 16.76M173.14 93.26a.59.58-61.8 0 0 .27.91q.64.22.98-.53a.51.5 28.9 0 0-.19-.64q-.59-.36-1.06.26m89.32 3.93q-.53.24-.11.68.49.5.83-.11.28-.5-.2-.62-.27-.07-.52.05m8.307 2.565a.83.37 123.1 0 0 .763-.493.83.37 123.1 0 0 .143-.897.83.37 123.1 0 0-.763.493.83.37 123.1 0 0-.143.897m9.293 16.765q-.28.49-.13 1.04a.42.41 47.7 0 0 .79.04q.24-.64-.22-1.13a.28.27 37.9 0 0-.44.05m-163.93 24.87q-.13.55-.03 1.05a.34.34 0 0 0 .56.18q.65-.59.17-1.4-.25-.42-.58-.06a.52.51-17.9 0 0-.12.23m11.226 3.512a1.66.42 32.1 0 0-1.183-1.238 1.66.42 32.1 0 0-1.63-.526 1.66.42 32.1 0 0 1.184 1.238 1.66.42 32.1 0 0 1.63.526M157.7 162.43a.77.5-1.6 0 0-.784-.479.77.5-1.6 0 0-.756.522.77.5-1.6 0 0 .784.478.77.5-1.6 0 0 .756-.521m11.54 5.033a.9.57 55.5 0 0-.04-1.065.9.57 55.5 0 0-.98-.419.9.57 55.5 0 0 .04 1.065.9.57 55.5 0 0 .98.419m-53.523 6.303a1 .6 126.4 0 0 1.076-.449 1 .6 126.4 0 0 .11-1.16 1 .6 126.4 0 0-1.076.448 1 .6 126.4 0 0-.11 1.16m43.333-1.395a.49.49 0 0 0-.49-.49.49.49 0 0 0-.49.49.49.49 0 0 0 .49.49.49.49 0 0 0 .49-.49m-23.012 1.361a1.18.54 38.9 0 0-.579-1.161 1.18.54 38.9 0 0-1.257-.321 1.18.54 38.9 0 0 .579 1.161 1.18.54 38.9 0 0 1.257.321m26.722.314a.74.53 75.1 0 0 .322-.851.74.53 75.1 0 0-.702-.58.74.53 75.1 0 0-.322.852.74.53 75.1 0 0 .702.58m57.672 36.595a.89.63 90.5 0 0 .638-.884.89.63 90.5 0 0-.622-.896.89.63 90.5 0 0-.638.884.89.63 90.5 0 0 .622.896m3.676.638a.69.52 121.6 0 0 .805-.315.69.52 121.6 0 0-.081-.86.69.52 121.6 0 0-.805.314.69.52 121.6 0 0 .081.86m1.332 8.842a.43.43 0 0 0 .03.74q.95.54 1.38-.01a.43.43 0 0 0-.12-.64q-.74-.44-1.29-.09m31.64 18.53q-.08-.3-.33-.41-1.86-.88-.52.68.66.78 1.72 1.05 1.59.41.41-.73-.26-.26-.7-.21a.54.53 77.9 0 1-.58-.38m9.29 1.69q-.57.59-.34 1.3a.48.48 0 0 0 .9.03q.24-.63.05-1.2a.37.36-32.3 0 0-.61-.13M210 281.99q-.43 0-.53.41-.07.34.22.16.29-.17.31-.57.83-.38.62-1.12-.13-.45-.27 0zm6.31 1.5q.28.38.31-.09.03-.45-.26-.76a.17.16 25.4 0 0-.29.1q-.02.42.24.75m-6.37 5.96a.61.61 0 0 0-.61-.61.61.61 0 0 0-.61.61.61.61 0 0 0 .61.61.61.61 0 0 0 .61-.61"/><path fill="#96c6a9" d="M173.14 93.26q.47-.62 1.06-.26a.51.5 28.9 0 1 .19.64q-.34.75-.98.53a.59.58-61.8 0 1-.27-.91M262.46 97.19q.25-.12.52-.05.48.12.2.62-.34.61-.83.11-.42-.44.11-.68"/><ellipse fill="#96c6a9" rx=".83" ry=".37" transform="rotate(123.1 108.773 123.007)"/><path fill="#6f9f82" d="m301.79 177.48-2.58 14.96q-4-1.26-7.82-2.62-.55-.2-.73-.71-.16-.46-.63-.28c-4.38 1.68-5.74 5.12-6.16 9.41a.98.98 0 0 1-1.36.81q-3.43-1.48-6.59-1.36a.59.59 0 0 1-.6-.46q-.4-1.79-2.08-1.1a.59.58-31.7 0 0-.22.93q5.31 5.96 5.45 13.59c.07 3.29.39 5.96-3.36 6.55q-.38.06-.65.33-.1.1-.07.25a.22.22 0 0 1-.22.27c-2.33-.07-3.74-2.56-5.19-4.08-1.93-2.03-4.77-2.06-7.33-2.59q-.51-.1-.93.22-3.12 2.39-4.96 6.32a.65.65 0 0 1-1.03.2q-.53-.49-.85-1.2-.4-.87-.28.08.02.13.19.18.15.04.06.18c-1.03 1.61-3.07 2.6-4.18.55-1.8-3.33-4.07-6.41-8.25-6.33-2.26.05-4.39 1.92-6.29 3.01a.2.2 0 0 1-.29-.11q-.04-.14-.04-.29.01-.23-.18-.35c-3.72-2.23-3.39-5.98-3.57-9.72-.23-4.71-5.02-3.82-6.75-7.17q-1.11-2.16-2.04-4.52-.2-.51-.71-.31-5.42 2.15-8.38 6.05-.42.55-.77-.05-2.15-3.68-5.75-5.76c-1.51-.88-1.91-2.36-1.95-3.99q-.17-6.69 3.36-10.37c1.11-1.16 1.66-2.8 2.07-4.34q.15-.57.61-.93c2.92-2.29 6.94-6.83 4.15-10.7-3.37-4.67 1.67-7.81 5.68-9.83q.61-.3.16-.81-2.34-2.68-4.73-5.11c-2.28-2.33-3.08-5.37-5.67-7.39a2.42 2.42 0 0 1-.67-3.02l5.07-9.84q.26-.51.83-.38 3.77.84 7.18 2.6 3.43 1.76 6.75-.76a.86.86 0 0 0 .27-1.03l-.77-1.76q-.31-.71.23-1.26 3.7-3.78 7.66-7.68c2.59-2.55 6.33-2.18 9.43-.85q5.31 2.29 11.24 2.93c2.71.3 2.24 4.33 4.88 5.28a1.55 1.54-83 0 0 2.05-1.61q-.11-1.12.48-2.67.32-.82.37.05.03.39.13.77.25.98.42-.02.03-.16.11-.3.1-.19.27-.31.26-.2.6-.16.42.05.47.47.34 2.53.39 5.01c.05 2.42 1.43 4.41 2.53 6.46.6 1.12.88 2.42 1.64 3.43q.42.56.88.03l3.39-3.88a.33.33 0 0 1 .55.08q1.62 3.52 1.28 7.36c-.33 3.73 2.12 11.35 6.82 11.63 1.27.08 2.22-.58 3.44-.57q.51 0 .54.5.16 2.57 2.87 4.9.76.65.95-.33.04-.24.27-.29 2.07-.49.42.84-1.02.83-2.28 1.46a.67.67 0 0 0-.02 1.19l1.84.99q.84.45-.08.68l-.35.09a1.14 1.12 10.6 0 0-.64.43l-3.49 4.82q-.29.41-.31.91-.15 5.52 5.22 5.17a1.89 1.77-33.6 0 1 .78.13c1.02.41 1.98.97 2.7 1.81q2.42 2.83 5.12 5.29m-54.74-51.11a.63.63 0 0 0-.63-.63.63.63 0 0 0-.63.63.63.63 0 0 0 .63.63.63.63 0 0 0 .63-.63m1.33 6.86q-.53-.19-1.1-.08c-1.59.28-3.64-1.18-4.77-2.24-1.49-1.4-3.26-.15-3.77 1.51-1.25 4.01-2.16 8.95-4.91 12.2q-.5.6-1.27.74-1.53.27-3.14-.05a2.29 2.28 13.1 0 0-2.66 1.65q-.31 1.19-.12 2.47.08.55-.38.86-2.11 1.44-.29 3.39.09.1.2.01l.2-.17q.34-.28.11-.65-.42-.65-.26-1.33.13-.59.58-.19l1.35 1.2q.44.39.18.92l-.57 1.16q-.36.72.33 1.14l1.83 1.14q.62.39.7-.34.1-.94.56-1.75a1.06 1.05 42.9 0 1 1.79-.06c2.63 3.91-1.69 7.15-4.32 9.51q-.41.36-.08.8 1.58 2.15 3.53 3.9c2.84 2.55 4.14 7.17 4.65 10.66q.08.55-.24 1-1.03 1.44-.64 3.43.09.47.49.73 4.69 3.08 8.73 2.16 5.84-1.34 9.53-5.68.33-.4.84-.27l5.25 1.37q.89.23 1.02-.67c.74-5.06 3.11-7.13 6.01-10.91q.31-.41.28-.93-.26-5.29.09-10.35c.24-3.37-2.21-6.45-2.72-9.77q-.47-3.12-1.68-5.97c-.8-1.87.07-4.03.85-5.73q1.17-2.52-1.4-1.46-4.9 2.02-7.26-2.44c-.82-1.55-.84-3.54-1.01-5.31a.3.3 0 0 0-.5-.2l-5.1 4.43q-.41.35-.91.17m33.01 42.85a.5.5 0 0 0 .06.88q.58.27 1.01-.01 1.24-.82-.24-1.04-.45-.06-.83.17m-18.646 30.033a1.14.63 73.5 0 0 .28-1.272 1.14.63 73.5 0 0-.928-.914 1.14.63 73.5 0 0-.28 1.272 1.14.63 73.5 0 0 .928.914m3.542 4.667a.88.49 120.3 0 0 .867-.513.88.49 120.3 0 0 .021-1.007.88.49 120.3 0 0-.867.513.88.49 120.3 0 0-.021 1.007"/><path fill="#96c6a9" d="M280.06 116.52a.28.27 37.9 0 1 .44-.05q.46.49.22 1.13a.42.41 47.7 0 1-.79-.04q-.15-.55.13-1.04"/><circle cx="246.42" cy="126.37" r=".63" fill="#96c6a9"/><path fill="#7cac8e" d="m249.29 133.06 5.1-4.43a.3.3 0 0 1 .5.2c.17 1.77.19 3.76 1.01 5.31q2.36 4.46 7.26 2.44 2.57-1.06 1.4 1.46c-.78 1.7-1.65 3.86-.85 5.73q1.21 2.85 1.68 5.97c.51 3.32 2.96 6.4 2.72 9.77q-.35 5.06-.09 10.35.03.52-.28.93c-2.9 3.78-5.27 5.85-6.01 10.91q-.13.9-1.02.67l-5.25-1.37q-.51-.13-.84.27-3.69 4.34-9.53 5.68-4.04.92-8.73-2.16-.4-.26-.49-.73-.39-1.99.64-3.43.32-.45.24-1c-.51-3.49-1.81-8.11-4.65-10.66q-1.95-1.75-3.53-3.9-.33-.44.08-.8c2.63-2.36 6.95-5.6 4.32-9.51a1.06 1.05 42.9 0 0-1.79.06q-.46.81-.56 1.75-.08.73-.7.34l-1.83-1.14q-.69-.42-.33-1.14l.57-1.16q.26-.53-.18-.92l-1.35-1.2q-.45-.4-.58.19-.16.68.26 1.33.23.37-.11.65l-.2.17q-.11.09-.2-.01-1.82-1.95.29-3.39.46-.31.38-.86-.19-1.28.12-2.47a2.29 2.28 13.1 0 1 2.66-1.65q1.61.32 3.14.05.77-.14 1.27-.74c2.75-3.25 3.66-8.19 4.91-12.2.51-1.66 2.28-2.91 3.77-1.51 1.13 1.06 3.18 2.52 4.77 2.24q.57-.11 1.1.08.5.18.91-.17m-10.69 2.08a.42.42 0 0 0 .08.76q.56.2.77.12 1.37-.51-.02-.98-.43-.14-.83.1m-1.7 14.12q.02-1.56-1.37-2-.73-.23-.32.42l1.1 1.75q.58.91.59-.17m-4.11 16.44.13-.21q.08-.14-.03-.25l-1.47-1.45q-.22-.22-.46-.01l-.21.19q-.28.25.01.5l1.53 1.31a.34.33-53.5 0 0 .5-.08"/><path fill="#96c6a9" d="M238.6 135.14q.4-.24.83-.1 1.39.47.02.98-.21.08-.77-.12a.42.42 0 0 1-.08-.76M116.13 141.39a.52.51-17.9 0 1 .12-.23q.33-.36.58.06.48.81-.17 1.4a.34.34 0 0 1-.56-.18q-.1-.5.03-1.05"/><ellipse fill="#96c6a9" rx="1.66" ry=".42" transform="rotate(32.1 -187.33 290.909)"/><path fill="#96c6a9" d="M236.9 149.26q-.01 1.08-.59.17l-1.1-1.75q-.41-.65.32-.42 1.39.44 1.37 2"/><ellipse fill="#96c6a9" rx=".77" ry=".5" transform="rotate(-1.6 5895.4 -5538.051)"/><path fill="#96c6a9" d="m232.29 165.78-1.53-1.31q-.29-.25-.01-.5l.21-.19q.24-.21.46.01l1.47 1.45q.11.11.03.25l-.13.21a.34.33-53.5 0 1-.5.08"/><ellipse fill="#96c6a9" rx=".9" ry=".57" transform="rotate(55.5 -74.076 243.711)"/><ellipse fill="#96c6a9" rx="1" ry=".6" transform="rotate(126.4 14.47 115.856)"/><circle cx="158.56" cy="172.37" r=".49" fill="#96c6a9"/><ellipse fill="#96c6a9" rx="1.18" ry=".54" transform="rotate(38.9 -177.373 277.809)"/><ellipse fill="#96c6a9" rx=".74" ry=".53" transform="rotate(75.1 -31.455 192.406)"/><path fill="#96c6a9" d="M281.39 176.08q.38-.23.83-.17 1.48.22.24 1.04-.43.28-1.01.01a.5.5 0 0 1-.06-.88"/><ellipse fill="#96c6a9" rx="1.14" ry=".63" transform="rotate(73.5 -6.068 278.221)"/><ellipse fill="#96c6a9" rx=".89" ry=".63" transform="rotate(90.5 6.256 214.137)"/><ellipse fill="#96c6a9" rx=".88" ry=".49" transform="rotate(120.3 73.103 181.543)"/><ellipse fill="#96c6a9" rx=".69" ry=".52" transform="rotate(121.6 53.36 168.071)"/><path fill="#96c6a9" d="M225.44 220.12q.55-.35 1.29.09a.43.43 0 0 1 .12.64q-.43.55-1.38.01a.43.43 0 0 1-.03-.74M257.66 239.03q.44-.05.7.21 1.18 1.14-.41.73-1.06-.27-1.72-1.05-1.34-1.56.52-.68.25.11.33.41a.54.53 77.9 0 0 .58.38M266.37 240.34a.37.36-32.3 0 1 .61.13q.19.57-.05 1.2a.48.48 0 0 1-.9-.03q-.23-.71.34-1.3M210 281.99l.35-1.12q.14-.45.27 0 .21.74-.62 1.12M210 281.99q-.02.4-.31.57-.29.18-.22-.16.1-.41.53-.41M216.31 283.49q-.26-.33-.24-.75a.17.16 25.4 0 1 .29-.1q.29.31.26.76-.03.47-.31.09"/><circle cx="209.33" cy="289.45" r=".61" fill="#96c6a9"/></svg>