<svg xmlns="http://www.w3.org/2000/svg" viewBox="0 0 382 382"><path fill="none" stroke="#61123c" stroke-width="2" d="M256.12 126.47q-.13-.16-.15-.37-.06-.62-.67-.77l-4.32-1.07q-.51-.12-1 .04c-3.07 1.02-5.88.68-8.98.22-3.08-.46-6.23.9-9.33 1.35q-.17.02-.31-.07-.23-.15-.07-.39a.52.51 44.5 0 0-.01-.6c-2.31-3.19-7.87-7.81-10.59-1.97q-1.63 3.51-1.22 6.64c.47 3.64 6.56 7.02 3.86 10.55-3.85 5.02-3.25 11.38-3.45 17.32q-.06 1.82-.81 3.38a.96.96 0 0 1-1.5.3l-2.8-2.52a2.3 2.3 0 0 0-3.2.12c-4.08 4.26-8.61 9.36-5.85 15.75q1.87 4.31 3.09 8.87.44 1.64 1.77 2.53a1.63 1.62-59.3 0 0 2.34-.6q2.88-5.44 6.04-9.43a1.02 1.02 0 0 1 1.65.07q.66 1.01.66 2.25c.01 3.91 1.27 12.32 6.72 12.03 3.43-.18 5.32-.17 6.94 3.44q1.52 3.39 3.15 6.99c1.34 2.96 4.76 5.22 7.27 2.32q1.96-2.26 4.45-2.57c5.54-.68 3.35 8.33 8.6 8.11 2.45-.1 3.88-3.4 4.99-5.27 4.31-7.27 14.07 1.65 16.06-7.5 1.09-5.01-4.04-7.88-2.27-12.5 1.24-3.25 2.57-7.9 5.99-9.39 4.23-1.82 10.5-7.59 4.89-12.1q-1.72-1.38-3.51-2.65c-2.81-1.99-3-5.17-4.54-7.98-1.9-3.47-7.24-3.91-7.6-8.4q-.2-2.41-.18-4.93c.01-3.29-2.09-3.4-4.54-4.03-3.89-1-4.51-5.03-3.8-8.38q.22-1.03-.6-1.76l-3.55-3.16a.53.53 0 0 0-.88.41q.02 3.02-2.11 5.71-.31.38-.63.01" vector-effect="non-scaling-stroke"/><path fill="#5c0d37" d="M216.68 68.88q6.62 2.08 13.08 4.01 1.77.53 3.59.09c4.5-1.08 10.93-2.13 14.74 1.05 4.55 3.8 8.03 7.21 14.14 8.39q8.83 1.71 17.32 3.01c2.45.38 4.63 2.25 4.47 4.9q-.28 4.51 1.12 8.96c2.38 7.6 11.16 6.52 16.23 11.06q.35.31.41.79c.55 4.75 1.52 9.39.72 14.21q-.71 4.28-1.34 8.34c-.41 2.65 1.15 4.6 2.6 6.58a2.08 2.06-63.6 0 1 .41 1.24q-.05 8.78.05 17.38.07 5.2-1.4 13.35-4.41 24.59-8.43 49.93-1.49 9.36-3.61 20.2c-.87 4.43-1.09 8.79-1.67 13.22-.47 3.63.25 6.97.82 10.53q.65 4.02-2.63 5.9c-7.55 4.33-14.92 8.56-22.02 13.51-17.14 11.96-34.98 22.04-55.16 27.5q-1.47.4-3.06 1.47a2.29 2.26 27.8 0 1-1.26.38l-11.8.01q-.55 0-.82-.47c-1.25-2.11-3.23-4.63-3.18-7.22q.05-2.11.64-3.96 5.49-17.23 7.35-35.09c.58-5.5 5.85-8.85 7.3-14.06q.51-1.82.24-4.72-.93-10.12-1.83-20.6c-.66-7.72-4.26-14.6-11.81-16.55-6.07-1.57-13.5-2.32-19.69-2.22-6.21.1-12.05.8-17.31-3.49q-7.7-6.27-15.45-12.47-14.93-11.95-33.71-14c-6.47-.7-11.7-1.59-16.72-5.75-6.55-5.44-8.99-13.25-8.19-22 .25-2.76-.95-5.84-2.07-8.31-1.44-3.17-.93-7.12-.95-10.53q-.01-1.65 1.05-3.27 3.88-5.86 7.04-11.98c2.69-5.19 6.71-9.01 12.24-10.38q13.73-3.38 27.53-6.97c12.74-3.32 22.47-9.7 24.33-23.92q.06-.47.4-.8c5.28-5.12 10.63-1.83 15.66 1.26 1.85 1.13 4.4 1.21 5.64-.88 1.97-3.29 3.36-6.83 7.9-6.69q2.38.07 4.61.98c2.39.98 4.88.75 7.2-.26q6.65-2.9 14.46-1.81 2.19.31 4.24-.96c1.25-.77 2.52-.76 3.92-.66q.51.04.82.46.73.96 1.84 1.31m39.44 57.59q-.13-.16-.15-.37-.06-.62-.67-.77l-4.32-1.07q-.51-.12-1 .04c-3.07 1.02-5.88.68-8.98.22-3.08-.46-6.23.9-9.33 1.35q-.17.02-.31-.07-.23-.15-.07-.39a.52.51 44.5 0 0-.01-.6c-2.31-3.19-7.87-7.81-10.59-1.97q-1.63 3.51-1.22 6.64c.47 3.64 6.56 7.02 3.86 10.55-3.85 5.02-3.25 11.38-3.45 17.32q-.06 1.82-.81 3.38a.96.96 0 0 1-1.5.3l-2.8-2.52a2.3 2.3 0 0 0-3.2.12c-4.08 4.26-8.61 9.36-5.85 15.75q1.87 4.31 3.09 8.87.44 1.64 1.77 2.53a1.63 1.62-59.3 0 0 2.34-.6q2.88-5.44 6.04-9.43a1.02 1.02 0 0 1 1.65.07q.66 1.01.66 2.25c.01 3.91 1.27 12.32 6.72 12.03 3.43-.18 5.32-.17 6.94 3.44q1.52 3.39 3.15 6.99c1.34 2.96 4.76 5.22 7.27 2.32q1.96-2.26 4.45-2.57c5.54-.68 3.35 8.33 8.6 8.11 2.45-.1 3.88-3.4 4.99-5.27 4.31-7.27 14.07 1.65 16.06-7.5 1.09-5.01-4.04-7.88-2.27-12.5 1.24-3.25 2.57-7.9 5.99-9.39 4.23-1.82 10.5-7.59 4.89-12.1q-1.72-1.38-3.51-2.65c-2.81-1.99-3-5.17-4.54-7.98-1.9-3.47-7.24-3.91-7.6-8.4q-.2-2.41-.18-4.93c.01-3.29-2.09-3.4-4.54-4.03-3.89-1-4.51-5.03-3.8-8.38q.22-1.03-.6-1.76l-3.55-3.16a.53.53 0 0 0-.88.41q.02 3.02-2.11 5.71-.31.38-.63.01"/><path fill="#661741" d="M256.75 126.46q2.13-2.69 2.11-5.71a.53.53 0 0 1 .88-.41l3.55 3.16q.82.73.6 1.76c-.71 3.35-.09 7.38 3.8 8.38 2.45.63 4.55.74 4.54 4.03q-.02 2.52.18 4.93c.36 4.49 5.7 4.93 7.6 8.4 1.54 2.81 1.73 5.99 4.54 7.98q1.79 1.27 3.51 2.65c5.61 4.51-.66 10.28-4.89 12.1-3.42 1.49-4.75 6.14-5.99 9.39-1.77 4.62 3.36 7.49 2.27 12.5-1.99 9.15-11.75.23-16.06 7.5-1.11 1.87-2.54 5.17-4.99 5.27-5.25.22-3.06-8.79-8.6-8.11q-2.49.31-4.45 2.57c-2.51 2.9-5.93.64-7.27-2.32q-1.63-3.6-3.15-6.99c-1.62-3.61-3.51-3.62-6.94-3.44-5.45.29-6.71-8.12-6.72-12.03q0-1.24-.66-2.25a1.02 1.02 0 0 0-1.65-.07q-3.16 3.99-6.04 9.43a1.63 1.62-59.3 0 1-2.34.6q-1.33-.89-1.77-2.53-1.22-4.56-3.09-8.87c-2.76-6.39 1.77-11.49 5.85-15.75a2.3 2.3 0 0 1 3.2-.12l2.8 2.52a.96.96 0 0 0 1.5-.3q.75-1.56.81-3.38c.2-5.94-.4-12.3 3.45-17.32 2.7-3.53-3.39-6.91-3.86-10.55q-.41-3.13 1.22-6.64c2.72-5.84 8.28-1.22 10.59 1.97a.52.51 44.5 0 1 .01.6q-.16.24.07.39.14.09.31.07c3.1-.45 6.25-1.81 9.33-1.35 3.1.46 5.91.8 8.98-.22q.49-.16 1-.04l4.32 1.07q.61.15.67.77.02.21.15.37.32.37.63-.01"/></svg>