<svg xmlns="http://www.w3.org/2000/svg" viewBox="0 0 382 382"><g fill="none" stroke="#225c32" stroke-width="2"><path d="M220.74 70.13q-1.26.66-1.82 1.93-.22.51-.72.74-1.13.54-1.93 1.41-.46.51-.33 1.16.15.74.73.25.27-.23.62-.33a.8.8 0 0 1 .89.34l1.1 1.7q.26.39.66.64 2.04 1.26.66 3.49-1.74 2.8-2.19 5.88-.11.76.5.3.69-.51 1.44-.76 1.04-.34.08-.87-.14-.07-.14-.25-.01-.55.49-.31l2.47 1.22q.85.42.69-.51-.07-.43.19-.78.29-.41.58 0 1.72 2.4.86 4.84-.2.56.21 1 .95 1.03 1.38 2.27.29.82.68.04.71-1.45.5-3.01-.4-2.81 1.59-5.07.52-.59.99.03.6.77 1.41 1.26.8.48.53-.42c-.6-1.98-1.35-3.59-.28-5.65q.2-.38-.23-.45-1.31-.24-1.61-1.75-.14-.72-.63-.17-.25.29-.1 1.03.07.31-.24.41l-.29.09a.24.24 0 0 1-.31-.17q-1.06-3.91 1.69-6.44M238.27 72.17q.54.97.84 1.94.14.41.45.67.35.28.77.2.82-.16.27-.8l-.35-.41q-.53-.6.24-.84 1.05-.32 1.74-.84M243.25 72.07q-.34 1.1-.27 2.11.03.48.5.37l3.96-.98M255.36 79.94q-.43.91-1.69 1.28-1.09.32-.01.66l.75.24a.87.87 0 0 1 .6.9l-.23 2.67a.54.53-79.3 0 1-.68.47q-.28-.08-.51.06-.37.23-.15.6 1.4 2.35-.81 3.45-.35.17-.16.51.89 1.58.38 3.68-.09.38-.48.48-.96.24-1.47 1.17-.05.08.02.15l.21.19q.41.4.78-.03.31-.34.73-.23.55.15.76.68.79 1.99.6 4.62-.03.28.25.34l.32.06q.3.05.32-.26.12-1.62 1.6-1.72a.33.33 0 0 1 .35.36q-.04.38.32.53a.35.35 0 0 0 .49-.33q-.02-.34-.33-.48-.39-.17-.11-.48 1.5-1.72.12-3.84a1.25 1.24 33.3 0 1-.19-.89q.15-.94 1.05-1.45.54-.31.66.3l.15.72a.56.56 0 0 0 .96.26l.93-1.02q1.16-1.27 1.12.45l-.08 3.49a.25.25 0 0 0 .26.26l.37-.02q.45-.03.37-.47-.11-.65.39-.98.45-.29.73.16.8 1.27 2.07 1.47.76.13.53-.61-.11-.33-.32-.6a.49.49 0 0 1 .35-.8q1.64-.09 2.81.85a.67.66-57.9 0 1 .18.81l-.38.81a1.11 1.11 0 0 0 0 .96q.78 1.63-.02 3.18-.21.4-.18.85.03.3.23.45.43.34.1.77-.22.29-.55.29-.46 0-.57.44-.1.42.2.72.54.53-.1.92-.27.17-.59.17a.5.5 0 0 0-.34.87q.59.53.45 1.25-.15.76-.93.81-.2.01-.38.09-.86.41-.07.93 2.22 1.48.8 3.3a.21.21 0 0 0 .26.32q1.27-.61 2.46-1.4.94-.62.34-1.6-.34-.55.3-.68 1.99-.4 2.36 1.39a.38.38 0 0 0 .62.21q.56-.47 1.21-.15.74.36 1.37-.17.31-.26.71-.33.78-.14.97.63 1 3.98-.68 7.57-.24.51.2.86.29.24.26.6-.04.66-.68.49-.31-.08-.54.13-.49.44.05.83.76.54 1.24 1.26.3.46-.19.72-.2.11-.25.37-.11.66.42.25.69-.54 1.58-.77a.88.87-14.2 0 0 .63-1.05q-.16-.67-.64-1.17-.4-.42.16-.55.97-.24 1.86-.88.38-.27.44.2l.07.61a.97.97 0 0 0 .48.72q.85.49 2.02.11.43-.14.27-.57-.09-.24-.27-.41a.56.55 39.5 0 1-.07-.69q.24-.38.59-.38.39.01.64.31c1.94 2.29 1.73 6.39 1.01 9.08q-.13.48.35.63 1.07.34 1.17 1.54a.47.47 0 0 0 .81.28q1.74-1.8.58-3.95-.27-.5.19-.84c1.89-1.38 3.22-1.27 3.41-4.1a.97.97 0 0 1 1.67-.61c1.3 1.36 3.45 4.01 5.45 3.85q.5-.04.4-.53-.58-2.77-1.95-4.59-.3-.4-.13-.87.55-1.49.62-2.99.03-.53.46-.83l2.66-1.85M289.27 253.36q-1-2.8-.42-6.69.01-.05-.01-.1-.09-.21-.38-.22a.26.24-76.4 0 0-.24.16l-.3.76q-.24.58-.76.24-.69-.45-1.49-.61-.89-.17-.72-1.06c.31-1.56 1.47-3.02.72-4.6q-.53-1.11-1.92-1.38a.9.9 0 0 1-.49-1.49q.42-.46.61-1.04.19-.56-.19-1l-2.38-2.81q-.44-.51-.05-1.06 1.08-1.51.08-2.89a.41.41 0 0 1 .12-.59q.17-.1.2-.3.15-1.16-.58-.25-1.31 1.65-3.36 2.15a1.17 1.16 77.1 0 1-1.42-.89l-.45-2.08a.84.83-16.7 0 0-1.13-.6l-.33.13a.57.56-24.2 0 0-.3.77q1.72 3.52-1.69 5.49-.58.33-.25.91.79 1.41 1.04 3.06a.77.77 0 0 0 1.16.54l.85-.52q.68-.41.75.38.17 1.99-.6 3.65-.16.36.14.61.17.14.17.37 0 .46-.46.54c-2.53.42-2.05 2.57-2.2 4.39q-.09 1.04-.84.31l-3.38-3.35q-.7-.69-.71.3-.01.79.48 1.44a.95.94 53.5 0 1-.19 1.33q-.68.5-1.4.08-.53-.31-.96.12-.95.94-2.08 1.46-2.24 1.03.07 1.9.68.26 1.03.93a1.48 1.48 0 0 1-1.26 2.16l-1.05.04a.66.65 85.6 0 0-.63.74q.09.74-.11 1.45-.35 1.32-.94.08-1.29-2.74-1.18-5.95.01-.15-.14-.15l-.3-.01q-.26 0-.31.25l-.19.98q-.16.86-.79.25-1.69-1.64-.56-3.94.2-.42-.09-.78-.69-.84-1.86-1.03-1-.17-.24-.84l1.13-1a.69.68 48.2 0 0 .05-.98l-1.18-1.27a.54.54 0 0 1 .02-.76l.78-.73q.9-.84-.02-1.66-1.84-1.61-.22-3.64a.47.47 0 0 0-.53-.73q-.38.14-.69.42a.9.9 0 0 1-1.51-.54l-.37-2.88q-.06-.46-.52-.42l-.78.08q-.49.05-.26.48l.33.63q.3.55-.17.99-.71.65-1.54.93-.57.19-.39.77l1.26 4.09q.17.55-.24.94-1.19 1.16-1.75 2.83a.68.68 0 0 1-.76.46q-1.02-.17-.99-1.35a.48.47-12.8 0 0-.69-.43l-3.9 1.99q-.51.26-.36.81.14.47.47.85a.73.72 46.9 0 1-.02.98l-1.82 1.87a.4.4 0 0 1-.68-.27l-.03-2.54q0-.63-.56-.92-.74-.38-1.57-.21-.51.1-.57-.42-.02-.19.13-.33.37-.35.17-.82-.82-1.82-.19-3.66.14-.44-.29-.59l-.29-.1q-.7-.25-.29-.87l.2-.32q.3-.46.21-1l-.67-3.96a2.11 2.1 70.4 0 0-3.12-1.48l-1.39.8q-.52.29-.16.76.53.68-.14 1.32-.78.73.29.78.74.04 1.11.62.39.62-.2 1.07-1.48 1.12-1.78 2.84-.12.75-.65.19l-1.26-1.34a.71.71 0 0 0-1.04 0l-1.4 1.51q-.43.47-.41 1.11c.04 1.14-.2 3.15-1.27 3.72q-.74.39-.85-.44l-.23-1.71a.18.17 77.5 0 0-.22-.15l-.55.14q-.67.17-.94-.47-.49-1.19-1.46-2.08a.89.88-55.2 0 1-.19-1.07q.1-.17.12-.37.05-.39-.32-.53-.18-.07-.38-.07-.59 0-.49-.59.05-.29.34-.44a.6.6 0 0 0 .26-.79q-.85-1.74-.57-3.62.12-.9-.7-1.21-.42-.16-.72.18-.38.43-.93.42-.59-.02-.73-.6-.21-.87-.5-1.72-.15-.45-.58-.65t-.8.1q-.38.3-.32.81.07.67.4 1.23.27.46-.05.88-1.64 2.18-.24 4.56.3.52.71.08.1-.12.24-.19.69-.38.78.4.33 2.56-1.19 4.62-.34.46-.92.54l-1.17.15q-.47.06-.35.53.05.17.15.29.53.57-.09 1.04-.8.61-1.12 1.52-.17.46.04.89.91 1.86.75 3.84-.05.72-.72.43l-.31-.14q-.43-.19-.85.03-1.78.96-4.61-.51M79.27 145.02q1.31-.78 1.86-2.32a1.38 1.35 84.2 0 1 .56-.7q.16-.11.34-.12a.44.43-11.2 0 0 .39-.57q-.59-1.75-.54-3.62.01-.83-.58-.25-.26.26-.3.62-.17 1.63-.97.2-.96-1.72-1.2-3.66-.06-.46-.47-.66-.27-.13-.52.02M77.74 132.99l1.18.09q.53.04.82-.4 2.24-3.35 1.66-6.05M83.72 122.49l.37 2.67q.06.49.56.42.14-.02.22-.12.5-.66.93.01.86 1.34.73 2.73-.07.73.17 1.48.69 2.15 1.47 4 .21.51.63.14.7-.63 1.15-1.46a.76.75 41.2 0 0-.06-.81l-.59-.8q-.35-.48.11-.84l.82-.65a.39.38-40.4 0 1 .52.04q1.23 1.37 2.44.01a.42.42 0 0 1 .72.15c.33 1.05.83 1.75.45 2.91q-.67 2.06-.24 4.26.04.22.26.18l.29-.06q.28-.05.23-.34-.07-.42.13-.78.24-.43.68-.22l1.64.77a1.17 1.17 0 0 1 .63 1.37c-.33 1.23-1.3 2.69-.76 3.93q.6 1.4 2.11 1.72a.73.72 19.8 0 1 .5 1.05l-.68 1.28q-.31.58.12 1.08l2.35 2.74a1.07 1.06 43.1 0 1 .05 1.33q-.97 1.29-.13 2.52.38.56-.14.99-.15.11-.1.33.13.54.51.13 1.5-1.63 3.69-2.31.49-.16.78.26.71 1.04.78 2.37.03.65.62.91.33.15.69.08.82-.18.45-.93-1.63-3.38 1.77-5.44.39-.23.24-.66l-1.14-3.27a.79.79 0 0 0-1.35-.26q-.4.48-.96.35-.62-.13-.52-.75l.74-4.33q.07-.42.47-.59 2.27-.92 1.94-3.76-.24-2.14 1.25-.59l2.74 2.81q1.09 1.12.94-.44-.07-.7-.48-1.2-.34-.42-.07-.88.35-.6 1.06-.64a.68.67-32.9 0 1 .34.07q.13.07.23.16.44.43.86-.01 1.06-1.1 2.33-1.74 1.87-.92-.06-1.73-1.54-.65-1.19-2.33.13-.64.78-.7l1.51-.14a.76.75-1.8 0 0 .68-.71l.06-.97q.12-2.37 1.15-.23 1.09 2.26.94 5.47-.01.22.21.23l.4.03q.33.02.28-.31-.12-.76.4-1.2a.43.43 0 0 1 .61.05q1.58 1.86.37 3.95-.19.34.05.65.78.95 2.04 1.16a.47.46 29.2 0 1 .23.81l-1.23 1.07a.68.68 0 0 0-.16.8q.34.67 1.09 1.08a.72.71 36.7 0 1 .17 1.14l-1.01.99q-.49.48-.02.98l.76.78q1.15 1.21.12 2.52-.21.27-.27.62-.22 1.39.88.51.41-.32.92-.36.81-.07.89.75l.26 2.54a.7.69 89.5 0 0 .63.62l.51.04q.63.06.39-.52-.81-1.94 1.49-2.48a.52.51 76 0 0 .38-.64l-1.08-3.89q-.19-.7.21-1.3l1.92-2.9a.63.62-46.2 0 1 1.02-.03q.36.49.36 1.12a.37.37 0 0 0 .52.33l4.18-1.92q.44-.2.37-.68-.07-.53-.41-.95-.5-.62.05-1.21l1.5-1.59q.73-.78.79.29l.14 2.52q.04.55.54.77.69.3 1.45.16a.55.54-13.7 0 1 .62.37q.08.23-.1.4-.44.41-.17.95.94 1.87.07 3.67-.22.46.27.58.17.05.35.06.79.06.35.72c-.55.82-.43 1.84-.11 2.7q.36.97.33 1.9a2.32 2.32 0 0 0 3.46 2.1l1.22-.68q.46-.26.14-.69-.48-.64.07-1.28.31-.36-.02-.71-.23-.23-.55-.23a.9.9 0 0 1-.64-1.52q1.2-1.25 1.89-2.87.26-.63.7-.11l.93 1.1a.76.76 0 0 0 1.08.08q.79-.7 1.43-1.53c.94-1.23.52-2.87 1.32-4.28q.65-1.14 1.17.07.3.7.24 1.44-.05.55.45.32l.44-.21q.58-.27.83.31.6 1.42 1.74 2.45a.56.55 33.5 0 1 .13.63l-.2.42q-.25.55.33.72l.42.12q.55.17.26.67l-.18.32a1.39 1.38 46.2 0 0-.02 1.34q.75 1.38.18 2.72-.22.54.16.98l.37.44q.47.56 1.02.07.49-.45 1.15-.49.58-.03.67.55l.25 1.7a.83.82-6.6 0 0 .89.7l.32-.03q.46-.04.51-.49.1-.79-.26-1.51-.26-.52.03-1.01 1.3-2.22.27-4.58-.29-.67-.73-.08-.15.2-.37.32-.71.4-.73-.42-.05-2.56 1.18-4.8.27-.5.83-.52l1.23-.07q.97-.05.19-.78-.13-.12-.16-.29-.07-.55.35-.89.71-.56 1.13-1.31.26-.48.01-.96-.99-1.84-.79-4.09a.36.36 0 0 1 .52-.29l.36.18q.42.22.87.03c2.18-.9 5.3.96 7.3 1.92q.52.25 1-.09 1.48-1.04 3.26-1.41a.85.85 0 0 0 .53-1.33l-2.84-3.98q-.66-.94-.88.2l-.1.54q-.14.78-.82.37-1.29-.79-1.09-2.32.47-3.55-.44-7.12-.15-.6-.73-.37-.15.07-.3.01-.61-.23-.26-.78 1.53-2.44 3.26-4.55 1.64-2.02 1.3-4.81-.07-.62-.7-.63l-1.53-.03q-.91-.01-.36.72l.26.34q.49.66-.31.85-1.81.41-2.42-1.19-.17-.47-.63-.66c-4.68-1.89.3-4.89-2.23-6.78q-.92-.69-.86.45.1 1.97-2.04 2.71-1.48.5-1.04-.99.1-.35-.7-.24a.7.68-8 0 0-.59.77q.34 2.81-.72 2.91" vector-effect="non-scaling-stroke"/><path d="M168.05 107.97q-.05-.73-.49-.78a.24.24 0 0 0-.26.31q.15.46.75.47" vector-effect="non-scaling-stroke"/><path d="M168.05 107.97q-.15 1.67.44 3.16.18.45-.02.88l-.57 1.26q-.26.56-.81.28-.58-.28-1.18-.02-.56.25-1.09-.06-.4-.23-.53-.65-.19-.58.24-1.02.42-.43.39-1-.03-1-.81-.37l-.23.18q-.7.57-.81-.33-.14-1.15-1.26-1.27-.6-.06-.41-.62l1.48-4.49a.62.62 0 0 0-.6-.81q-.33 0-.64-.14-.65-.3-.13-.79.62-.59.01-1.26a2.3 2.19 15.7 0 1-.47-.79q-.3-.85-1.13-1.15-.54-.2-.8-.71l-.81-1.6q-.37-.74.46-.68l1.19.07q.55.04.76-.47c.92-2.27 3.27-3.01 4.89-4.72q.69-.72-.31-.78l-.82-.05a1.82 1.81 14 0 1-1.55-2.57q2.5-5.46 1.95-9.85-.01-.15-.1-.28-.11-.14-.34-.09a.29.29 0 0 0-.2.16l-.34.89q-.25.66-.83.25-3.04-2.17-.89-3.21M174.28 72.39q.77 1.01.8 2.6.02.89.85.57.52-.2 1.05-.03a1.38 1.37 30.5 0 0 1.41-.36q.74-.8 1.73-1.11.58-.18.42-.78l-.95-3.45M221.09 309.6q.14-.82-.63-2.26a.08.07 68.3 0 1 .04-.11l.7-.2q.91-.25.26-.95l-1.48-1.59q-.76-.82-.94.28l-.12.79q-.03.15-.14.23-.2.14-.37.07-.38-.16-.39-.58-.09-4.8 2-10.01a1.66 1.65-76 0 0-1.35-2.26l-1.16-.13a.42.42 0 0 1-.24-.72c1.36-1.24 4.33-2.79 4.89-4.46a.9.9 0 0 1 .81-.62l1.31-.07q.85-.05.43-.79-.86-1.52-2.21-2.74-1.31-1.2-1.14-2.76.08-.7-.61-.78-.26-.04-.38-.25-.36-.62-.06-1.35.71-1.8 1.2-3.68.16-.61-.46-.68-1.16-.12-1.27-1.26-.07-.73-.7-.35l-.33.19q-.66.4-.67-.38-.01-.59.43-1.03.39-.39.17-.89-.22-.48-.67-.83-.51-.38-1.02.02-.53.42-1.07.04-.84-.58-.97.43-.08.55-.38 1-.38.58-.04 1.19 1 1.8-.09 3.21-.32.4-.33.91-.04.83-.18 1.77-.26 1.64-.98.15-.07-.15-.03-.31.14-.65-.5-.51-2.76.6-2.54 2.98.08.82-.62.38-.54-.34-.9-.92-.33-.54-.1-1.13l.56-1.38a2.32 2.31-68.6 0 0-1.31-3.01q-1.16-.45-1.71-1.53-.24-.48-.75-.64-.57-.18-1.19-.06-.77.15-.45.86l.15.34q.31.68-.43.77-.88.1-1.67-.17-.54-.19-.55-.77c-.07-4.35 3.01-5.79 4.71-9.25q.3-.61-.38-.7l-.46-.07q-.59-.08-.64-.67l-.41-4.56M292.77 106.12q.09 1.67.75 3.07.17.36.07.74-.05.23-.28.38-.51.34.05.56l1.84.74q.72.29.72-.49.03-2.37 1.75-3M297.98 108.34q.19.41.74.36M299.78 109.24q-1.07 1.04-.38 2.62.98 2.28 2.49 2.37M212.97 312.02q.07-.71-.93-.23-.58.28-.45.71M211.07 312.69q-.8-.71-1.22-1.7-.25-.57-.78-.89-1.17-.7-1.2-2.19-.01-.87-.79-.47-.55.28-1.13.04-.63-.26-1.18.17l-1.9 1.47q-.42.33-.28.83l.69 2.62a1.23 1.22 5 0 0 .66.78l2.9 1.32M148.37 154.18a.41.41 0 0 0 .16.71q.43.12.85-.01a.48.48 0 0 0-.06-.94q-.56-.1-.95.24M234.83 228.538a.8.66-1.6 0 0-.818-.638.8.66-1.6 0 0-.782.682.8.66-1.6 0 0 .818.638.8.66-1.6 0 0 .782-.682" vector-effect="non-scaling-stroke"/><path d="M215.38 275.68a.21.2 10.8 0 0 .28-.19q0-.27-.28-.33-.26-.07-.23.19.03.24.23.33" vector-effect="non-scaling-stroke"/></g><path d="M220.74 70.13q-1.26.66-1.82 1.93-.22.51-.72.74-1.13.54-1.93 1.41-.46.51-.33 1.16.15.74.73.25.27-.23.62-.33a.8.8 0 0 1 .89.34l1.1 1.7q.26.39.66.64 2.04 1.26.66 3.49-1.74 2.8-2.19 5.88-.11.76.5.3.69-.51 1.44-.76 1.04-.34.08-.87-.14-.07-.14-.25-.01-.55.49-.31l2.47 1.22q.85.42.69-.51-.07-.43.19-.78.29-.41.58 0 1.72 2.4.86 4.84-.2.56.21 1 .95 1.03 1.38 2.27.29.82.68.04.71-1.45.5-3.01-.4-2.81 1.59-5.07.52-.59.99.03.6.77 1.41 1.26.8.48.53-.42c-.6-1.98-1.35-3.59-.28-5.65q.2-.38-.23-.45-1.31-.24-1.61-1.75-.14-.72-.63-.17-.25.29-.1 1.03.07.31-.24.41l-.29.09a.24.24 0 0 1-.31-.17q-1.06-3.91 1.69-6.44l7.41-1.05q.54.97.84 1.94.14.41.45.67.35.28.77.2.82-.16.27-.8l-.35-.41q-.53-.6.24-.84 1.05-.32 1.74-.84l1.02-.02q-.34 1.1-.27 2.11.03.48.5.37l3.96-.98 7.92 6.37q-.43.91-1.69 1.28-1.09.32-.01.66l.75.24a.87.87 0 0 1 .6.9l-.23 2.67a.54.53-79.3 0 1-.68.47q-.28-.08-.51.06-.37.23-.15.6 1.4 2.35-.81 3.45-.35.17-.16.51.89 1.58.38 3.68-.09.38-.48.48-.96.24-1.47 1.17-.05.08.02.15l.21.19q.41.4.78-.03.31-.34.73-.23.55.15.76.68.79 1.99.6 4.62-.03.28.25.34l.32.06q.3.05.32-.26.12-1.62 1.6-1.72a.33.33 0 0 1 .35.36q-.04.38.32.53a.35.35 0 0 0 .49-.33q-.02-.34-.33-.48-.39-.17-.11-.48 1.5-1.72.12-3.84a1.25 1.24 33.3 0 1-.19-.89q.15-.94 1.05-1.45.54-.31.66.3l.15.72a.56.56 0 0 0 .96.26l.93-1.02q1.16-1.27 1.12.45l-.08 3.49a.25.25 0 0 0 .26.26l.37-.02q.45-.03.37-.47-.11-.65.39-.98.45-.29.73.16.8 1.27 2.07 1.47.76.13.53-.61-.11-.33-.32-.6a.49.49 0 0 1 .35-.8q1.64-.09 2.81.85a.67.66-57.9 0 1 .18.81l-.38.81a1.11 1.11 0 0 0 0 .96q.78 1.63-.02 3.18-.21.4-.18.85.03.3.23.45.43.34.1.77-.22.29-.55.29-.46 0-.57.44-.1.42.2.72.54.53-.1.92-.27.17-.59.17a.5.5 0 0 0-.34.87q.59.53.45 1.25-.15.76-.93.81-.2.01-.38.09-.86.41-.07.93 2.22 1.48.8 3.3a.21.21 0 0 0 .26.32q1.27-.61 2.46-1.4.94-.62.34-1.6-.34-.55.3-.68 1.99-.4 2.36 1.39a.38.38 0 0 0 .62.21q.56-.47 1.21-.15.74.36 1.37-.17.31-.26.71-.33.78-.14.97.63 1 3.98-.68 7.57-.24.51.2.86.29.24.26.6-.04.66-.68.49-.31-.08-.54.13-.49.44.05.83.76.54 1.24 1.26.3.46-.19.72-.2.11-.25.37-.11.66.42.25.69-.54 1.58-.77a.88.87-14.2 0 0 .63-1.05q-.16-.67-.64-1.17-.4-.42.16-.55.97-.24 1.86-.88.38-.27.44.2l.07.61a.97.97 0 0 0 .48.72q.85.49 2.02.11.43-.14.27-.57-.09-.24-.27-.41a.56.55 39.5 0 1-.07-.69q.24-.38.59-.38.39.01.64.31c1.94 2.29 1.73 6.39 1.01 9.08q-.13.48.35.63 1.07.34 1.17 1.54a.47.47 0 0 0 .81.28q1.74-1.8.58-3.95-.27-.5.19-.84c1.89-1.38 3.22-1.27 3.41-4.1a.97.97 0 0 1 1.67-.61c1.3 1.36 3.45 4.01 5.45 3.85q.5-.04.4-.53-.58-2.77-1.95-4.59-.3-.4-.13-.87.55-1.49.62-2.99.03-.53.46-.83l2.66-1.85c1.38 6.87-.36 13.16-1.23 20a1.02.97 34.3 0 0 .14.66l2.74 4.58q.31.51.3 1.11-.07 7.59.05 16.49.07 5.35-1.06 11.84-5.01 28.81-9.52 55.95-1.08 6.45-2.38 13.63-1.22 6.71-2 13.69-1-2.8-.42-6.69.01-.05-.01-.1-.09-.21-.38-.22a.26.24-76.4 0 0-.24.16l-.3.76q-.24.58-.76.24-.69-.45-1.49-.61-.89-.17-.72-1.06c.31-1.56 1.47-3.02.72-4.6q-.53-1.11-1.92-1.38a.9.9 0 0 1-.49-1.49q.42-.46.61-1.04.19-.56-.19-1l-2.38-2.81q-.44-.51-.05-1.06 1.08-1.51.08-2.89a.41.41 0 0 1 .12-.59q.17-.1.2-.3.15-1.16-.58-.25-1.31 1.65-3.36 2.15a1.17 1.16 77.1 0 1-1.42-.89l-.45-2.08a.84.83-16.7 0 0-1.13-.6l-.33.13a.57.56-24.2 0 0-.3.77q1.72 3.52-1.69 5.49-.58.33-.25.91.79 1.41 1.04 3.06a.77.77 0 0 0 1.16.54l.85-.52q.68-.41.75.38.17 1.99-.6 3.65-.16.36.14.61.17.14.17.37 0 .46-.46.54c-2.53.42-2.05 2.57-2.2 4.39q-.09 1.04-.84.31l-3.38-3.35q-.7-.69-.71.3-.01.79.48 1.44a.95.94 53.5 0 1-.19 1.33q-.68.5-1.4.08-.53-.31-.96.12-.95.94-2.08 1.46-2.24 1.03.07 1.9.68.26 1.03.93a1.48 1.48 0 0 1-1.26 2.16l-1.05.04a.66.65 85.6 0 0-.63.74q.09.74-.11 1.45-.35 1.32-.94.08-1.29-2.74-1.18-5.95.01-.15-.14-.15l-.3-.01q-.26 0-.31.25l-.19.98q-.16.86-.79.25-1.69-1.64-.56-3.94.2-.42-.09-.78-.69-.84-1.86-1.03-1-.17-.24-.84l1.13-1a.69.68 48.2 0 0 .05-.98l-1.18-1.27a.54.54 0 0 1 .02-.76l.78-.73q.9-.84-.02-1.66-1.84-1.61-.22-3.64a.47.47 0 0 0-.53-.73q-.38.14-.69.42a.9.9 0 0 1-1.51-.54l-.37-2.88q-.06-.46-.52-.42l-.78.08q-.49.05-.26.48l.33.63q.3.55-.17.99-.71.65-1.54.93-.57.19-.39.77l1.26 4.09q.17.55-.24.94-1.19 1.16-1.75 2.83a.68.68 0 0 1-.76.46q-1.02-.17-.99-1.35a.48.47-12.8 0 0-.69-.43l-3.9 1.99q-.51.26-.36.81.14.47.47.85a.73.72 46.9 0 1-.02.98l-1.82 1.87a.4.4 0 0 1-.68-.27l-.03-2.54q0-.63-.56-.92-.74-.38-1.57-.21-.51.1-.57-.42-.02-.19.13-.33.37-.35.17-.82-.82-1.82-.19-3.66.14-.44-.29-.59l-.29-.1q-.7-.25-.29-.87l.2-.32q.3-.46.21-1l-.67-3.96a2.11 2.1 70.4 0 0-3.12-1.48l-1.39.8q-.52.29-.16.76.53.68-.14 1.32-.78.73.29.78.74.04 1.11.62.39.62-.2 1.07-1.48 1.12-1.78 2.84-.12.75-.65.19l-1.26-1.34a.71.71 0 0 0-1.04 0l-1.4 1.51q-.43.47-.41 1.11c.04 1.14-.2 3.15-1.27 3.72q-.74.39-.85-.44l-.23-1.71a.18.17 77.5 0 0-.22-.15l-.55.14q-.67.17-.94-.47-.49-1.19-1.46-2.08a.89.88-55.2 0 1-.19-1.07q.1-.17.12-.37.05-.39-.32-.53-.18-.07-.38-.07-.59 0-.49-.59.05-.29.34-.44a.6.6 0 0 0 .26-.79q-.85-1.74-.57-3.62.12-.9-.7-1.21-.42-.16-.72.18-.38.43-.93.42-.59-.02-.73-.6-.21-.87-.5-1.72-.15-.45-.58-.65t-.8.1q-.38.3-.32.81.07.67.4 1.23.27.46-.05.88-1.64 2.18-.24 4.56.3.52.71.08.1-.12.24-.19.69-.38.78.4.33 2.56-1.19 4.62-.34.46-.92.54l-1.17.15q-.47.06-.35.53.05.17.15.29.53.57-.09 1.04-.8.61-1.12 1.52-.17.46.04.89.91 1.86.75 3.84-.05.72-.72.43l-.31-.14q-.43-.19-.85.03-1.78.96-4.61-.51-.88-9.73-1.78-20.05c-.66-7.63-4.05-14.61-11.54-16.67q-4.21-1.16-10-1.81-5.3-.59-9.87-.52c-6.3.09-12.17.82-17.44-3.48q-13.79-11.24-18.52-14.66-14.11-10.2-30.94-11.87c-5.1-.51-9.73-1.19-14.09-4-7.84-5.06-11.59-13.74-10.55-23.43.28-2.68-.69-5.05-1.53-7.54q1.31-.78 1.86-2.32a1.38 1.35 84.2 0 1 .56-.7q.16-.11.34-.12a.44.43-11.2 0 0 .39-.57q-.59-1.75-.54-3.62.01-.83-.58-.25-.26.26-.3.62-.17 1.63-.97.2-.96-1.72-1.2-3.66-.06-.46-.47-.66-.27-.13-.52.02.09-.56-.1-.97l1.18.09q.53.04.82-.4 2.24-3.35 1.66-6.05.47-1.76 2.32-4.14l.37 2.67q.06.49.56.42.14-.02.22-.12.5-.66.93.01.86 1.34.73 2.73-.07.73.17 1.48.69 2.15 1.47 4 .21.51.63.14.7-.63 1.15-1.46a.76.75 41.2 0 0-.06-.81l-.59-.8q-.35-.48.11-.84l.82-.65a.39.38-40.4 0 1 .52.04q1.23 1.37 2.44.01a.42.42 0 0 1 .72.15c.33 1.05.83 1.75.45 2.91q-.67 2.06-.24 4.26.04.22.26.18l.29-.06q.28-.05.23-.34-.07-.42.13-.78.24-.43.68-.22l1.64.77a1.17 1.17 0 0 1 .63 1.37c-.33 1.23-1.3 2.69-.76 3.93q.6 1.4 2.11 1.72a.73.72 19.8 0 1 .5 1.05l-.68 1.28q-.31.58.12 1.08l2.35 2.74a1.07 1.06 43.1 0 1 .05 1.33q-.97 1.29-.13 2.52.38.56-.14.99-.15.11-.1.33.13.54.51.13 1.5-1.63 3.69-2.31.49-.16.78.26.71 1.04.78 2.37.03.65.62.91.33.15.69.08.82-.18.45-.93-1.63-3.38 1.77-5.44.39-.23.24-.66l-1.14-3.27a.79.79 0 0 0-1.35-.26q-.4.48-.96.35-.62-.13-.52-.75l.74-4.33q.07-.42.47-.59 2.27-.92 1.94-3.76-.24-2.14 1.25-.59l2.74 2.81q1.09 1.12.94-.44-.07-.7-.48-1.2-.34-.42-.07-.88.35-.6 1.06-.64a.68.67-32.9 0 1 .34.07q.13.07.23.16.44.43.86-.01 1.06-1.1 2.33-1.74 1.87-.92-.06-1.73-1.54-.65-1.19-2.33.13-.64.78-.7l1.51-.14a.76.75-1.8 0 0 .68-.71l.06-.97q.12-2.37 1.15-.23 1.09 2.26.94 5.47-.01.22.21.23l.4.03q.33.02.28-.31-.12-.76.4-1.2a.43.43 0 0 1 .61.05q1.58 1.86.37 3.95-.19.34.05.65.78.95 2.04 1.16a.47.46 29.2 0 1 .23.81l-1.23 1.07a.68.68 0 0 0-.16.8q.34.67 1.09 1.08a.72.71 36.7 0 1 .17 1.14l-1.01.99q-.49.48-.02.98l.76.78q1.15 1.21.12 2.52-.21.27-.27.62-.22 1.39.88.51.41-.32.92-.36.81-.07.89.75l.26 2.54a.7.69 89.5 0 0 .63.62l.51.04q.63.06.39-.52-.81-1.94 1.49-2.48a.52.51 76 0 0 .38-.64l-1.08-3.89q-.19-.7.21-1.3l1.92-2.9a.63.62-46.2 0 1 1.02-.03q.36.49.36 1.12a.37.37 0 0 0 .52.33l4.18-1.92q.44-.2.37-.68-.07-.53-.41-.95-.5-.62.05-1.21l1.5-1.59q.73-.78.79.29l.14 2.52q.04.55.54.77.69.3 1.45.16a.55.54-13.7 0 1 .62.37q.08.23-.1.4-.44.41-.17.95.94 1.87.07 3.67-.22.46.27.58.17.05.35.06.79.06.35.72c-.55.82-.43 1.84-.11 2.7q.36.97.33 1.9a2.32 2.32 0 0 0 3.46 2.1l1.22-.68q.46-.26.14-.69-.48-.64.07-1.28.31-.36-.02-.71-.23-.23-.55-.23a.9.9 0 0 1-.64-1.52q1.2-1.25 1.89-2.87.26-.63.7-.11l.93 1.1a.76.76 0 0 0 1.08.08q.79-.7 1.43-1.53c.94-1.23.52-2.87 1.32-4.28q.65-1.14 1.17.07.3.7.24 1.44-.05.55.45.32l.44-.21q.58-.27.83.31.6 1.42 1.74 2.45a.56.55 33.5 0 1 .13.63l-.2.42q-.25.55.33.72l.42.12q.55.17.26.67l-.18.32a1.39 1.38 46.2 0 0-.02 1.34q.75 1.38.18 2.72-.22.54.16.98l.37.44q.47.56 1.02.07.49-.45 1.15-.49.58-.03.67.55l.25 1.7a.83.82-6.6 0 0 .89.7l.32-.03q.46-.04.51-.49.1-.79-.26-1.51-.26-.52.03-1.01 1.3-2.22.27-4.58-.29-.67-.73-.08-.15.2-.37.32-.71.4-.73-.42-.05-2.56 1.18-4.8.27-.5.83-.52l1.23-.07q.97-.05.19-.78-.13-.12-.16-.29-.07-.55.35-.89.71-.56 1.13-1.31.26-.48.01-.96-.99-1.84-.79-4.09a.36.36 0 0 1 .52-.29l.36.18q.42.22.87.03c2.18-.9 5.3.96 7.3 1.92q.52.25 1-.09 1.48-1.04 3.26-1.41a.85.85 0 0 0 .53-1.33l-2.84-3.98q-.66-.94-.88.2l-.1.54q-.14.78-.82.37-1.29-.79-1.09-2.32.47-3.55-.44-7.12-.15-.6-.73-.37-.15.07-.3.01-.61-.23-.26-.78 1.53-2.44 3.26-4.55 1.64-2.02 1.3-4.81-.07-.62-.7-.63l-1.53-.03q-.91-.01-.36.72l.26.34q.49.66-.31.85-1.81.41-2.42-1.19-.17-.47-.63-.66c-4.68-1.89.3-4.89-2.23-6.78q-.92-.69-.86.45.1 1.97-2.04 2.71-1.48.5-1.04-.99.1-.35-.7-.24a.7.68-8 0 0-.59.77q.34 2.81-.72 2.91-.05-.73-.49-.78a.24.24 0 0 0-.26.31q.15.46.75.47-.15 1.67.44 3.16.18.45-.02.88l-.57 1.26q-.26.56-.81.28-.58-.28-1.18-.02-.56.25-1.09-.06-.4-.23-.53-.65-.19-.58.24-1.02.42-.43.39-1-.03-1-.81-.37l-.23.18q-.7.57-.81-.33-.14-1.15-1.26-1.27-.6-.06-.41-.62l1.48-4.49a.62.62 0 0 0-.6-.81q-.33 0-.64-.14-.65-.3-.13-.79.62-.59.01-1.26a2.3 2.19 15.7 0 1-.47-.79q-.3-.85-1.13-1.15-.54-.2-.8-.71l-.81-1.6q-.37-.74.46-.68l1.19.07q.55.04.76-.47c.92-2.27 3.27-3.01 4.89-4.72q.69-.72-.31-.78l-.82-.05a1.82 1.81 14 0 1-1.55-2.57q2.5-5.46 1.95-9.85-.01-.15-.1-.28-.11-.14-.34-.09a.29.29 0 0 0-.2.16l-.34.89q-.25.66-.83.25-3.04-2.17-.89-3.21c2.51 1.25 7.63 5 9.56 1.19q1.08-2.13 2.54-4.12.77 1.01.8 2.6.02.89.85.57.52-.2 1.05-.03a1.38 1.37 30.5 0 0 1.41-.36q.74-.8 1.73-1.11.58-.18.42-.78l-.95-3.45q1.92.01 4.92 1.15c2.26.86 5.09.46 7.33-.6 4.51-2.13 10.17-2.1 15.17-1.74q1.42.1 3.62-1.09c.9-.49 1.96-.49 2.97-.44q.5.03.9.33 2.66 1.99 6.24 2.69m-72.37 84.05a.41.41 0 0 0 .16.71q.43.12.85-.01a.48.48 0 0 0-.06-.94q-.56-.1-.95.24m86.46 74.358a.8.66-1.6 0 0-.818-.638.8.66-1.6 0 0-.782.682.8.66-1.6 0 0 .818.638.8.66-1.6 0 0 .782-.682"/><path fill="#44b763" d="m179.59 69.83.95 3.45q.16.6-.42.78-.99.31-1.73 1.11a1.38 1.37 30.5 0 1-1.41.36q-.53-.17-1.05.03-.83.32-.85-.57-.03-1.59-.8-2.6 1.91-2.67 5.31-2.56M220.74 70.13l10.12 3.09q-2.75 2.53-1.69 6.44a.24.24 0 0 0 .31.17l.29-.09q.31-.1.24-.41-.15-.74.1-1.03.49-.55.63.17.3 1.51 1.61 1.75.43.07.23.45c-1.07 2.06-.32 3.67.28 5.65q.27.9-.53.42-.81-.49-1.41-1.26-.47-.62-.99-.03-1.99 2.26-1.59 5.07.21 1.56-.5 3.01-.39.78-.68-.04-.43-1.24-1.38-2.27-.41-.44-.21-1 .86-2.44-.86-4.84-.29-.41-.58 0-.26.35-.19.78.16.93-.69.51l-2.47-1.22q-.5-.24-.49.31 0 .18.14.25.96.53-.08.87-.75.25-1.44.76-.61.46-.5-.3.45-3.08 2.19-5.88 1.38-2.23-.66-3.49-.4-.25-.66-.64l-1.1-1.7a.8.8 0 0 0-.89-.34q-.35.1-.62.33-.58.49-.73-.25-.13-.65.33-1.16.8-.87 1.93-1.41.5-.23.72-.74.56-1.27 1.82-1.93M242.23 72.09q-.69.52-1.74.84-.77.24-.24.84l.35.41q.55.64-.27.8-.42.08-.77-.2-.31-.26-.45-.67-.3-.97-.84-1.94zM247.44 73.57l-3.96.98q-.47.11-.5-.37-.07-1.01.27-2.11 1.97.13 4.19 1.5M162.18 75.32q-2.15 1.04.89 3.21.58.41.83-.25l.34-.89a.29.29 0 0 1 .2-.16q.23-.05.34.09.09.13.1.28.55 4.39-1.95 9.85a1.82 1.81 14 0 0 1.55 2.57l.82.05q1 .06.31.78c-1.62 1.71-3.97 2.45-4.89 4.72q-.21.51-.76.47l-1.19-.07q-.83-.06-.46.68l.81 1.6q.26.51.8.71.83.3 1.13 1.15a2.3 2.19 15.7 0 0 .47.79q.61.67-.01 1.26-.52.49.13.79.31.14.64.14a.62.62 0 0 1 .6.81l-1.48 4.49q-.19.56.41.62 1.12.12 1.26 1.27.11.9.81.33l.23-.18q.78-.63.81.37.03.57-.39 1-.43.44-.24 1.02.13.42.53.65.53.31 1.09.06.6-.26 1.18.02.55.28.81-.28l.57-1.26q.2-.43.02-.88-.59-1.49-.44-3.16 1.06-.1.72-2.91a.7.68-8 0 1 .59-.77q.8-.11.7.24-.44 1.49 1.04.99 2.14-.74 2.04-2.71-.06-1.14.86-.45c2.53 1.89-2.45 4.89 2.23 6.78q.46.19.63.66.61 1.6 2.42 1.19.8-.19.31-.85l-.26-.34q-.55-.73.36-.72l1.53.03q.63.01.7.63.34 2.79-1.3 4.81-1.73 2.11-3.26 4.55-.35.55.26.78.15.06.3-.01.58-.23.73.37.91 3.57.44 7.12-.2 1.53 1.09 2.32.68.41.82-.37l.1-.54q.22-1.14.88-.2l2.84 3.98a.85.85 0 0 1-.53 1.33q-1.78.37-3.26 1.41-.48.34-1 .09c-2-.96-5.12-2.82-7.3-1.92q-.45.19-.87-.03l-.36-.18a.36.36 0 0 0-.52.29q-.2 2.25.79 4.09.25.48-.01.96-.42.75-1.13 1.31-.42.34-.35.89.03.17.16.29.78.73-.19.78l-1.23.07q-.56.02-.83.52-1.23 2.24-1.18 4.8.02.82.73.42.22-.12.37-.32.44-.59.73.08 1.03 2.36-.27 4.58-.29.49-.03 1.01.36.72.26 1.51-.05.45-.51.49l-.32.03a.83.82-6.6 0 1-.89-.7l-.25-1.7q-.09-.58-.67-.55-.66.04-1.15.49-.55.49-1.02-.07l-.37-.44q-.38-.44-.16-.98.57-1.34-.18-2.72a1.39 1.38 46.2 0 1 .02-1.34l.18-.32q.29-.5-.26-.67l-.42-.12q-.58-.17-.33-.72l.2-.42a.56.55 33.5 0 0-.13-.63q-1.14-1.03-1.74-2.45-.25-.58-.83-.31l-.44.21q-.5.23-.45-.32.06-.74-.24-1.44-.52-1.21-1.17-.07c-.8 1.41-.38 3.05-1.32 4.28q-.64.83-1.43 1.53a.76.76 0 0 1-1.08-.08l-.93-1.1q-.44-.52-.7.11-.69 1.62-1.89 2.87a.9.9 0 0 0 .64 1.52q.32 0 .55.23.33.35.02.71-.55.64-.07 1.28.32.43-.14.69l-1.22.68a2.32 2.32 0 0 1-3.46-2.1q.03-.93-.33-1.9c-.32-.86-.44-1.88.11-2.7q.44-.66-.35-.72-.18-.01-.35-.06-.49-.12-.27-.58.87-1.8-.07-3.67-.27-.54.17-.95.18-.17.1-.4a.55.54-13.7 0 0-.62-.37q-.76.14-1.45-.16-.5-.22-.54-.77l-.14-2.52q-.06-1.07-.79-.29l-1.5 1.59q-.55.59-.05 1.21.34.42.41.95.07.48-.37.68l-4.18 1.92a.37.37 0 0 1-.52-.33q0-.63-.36-1.12a.63.62-46.2 0 0-1.02.03l-1.92 2.9q-.4.6-.21 1.3l1.08 3.89a.52.51 76 0 1-.38.64q-2.3.54-1.49 2.48.24.58-.39.52l-.51-.04a.7.69 89.5 0 1-.63-.62l-.26-2.54q-.08-.82-.89-.75-.51.04-.92.36-1.1.88-.88-.51.06-.35.27-.62 1.03-1.31-.12-2.52l-.76-.78q-.47-.5.02-.98l1.01-.99a.72.71 36.7 0 0-.17-1.14q-.75-.41-1.09-1.08a.68.68 0 0 1 .16-.8l1.23-1.07a.47.46 29.2 0 0-.23-.81q-1.26-.21-2.04-1.16-.24-.31-.05-.65 1.21-2.09-.37-3.95a.43.43 0 0 0-.61-.05q-.52.44-.4 1.2.05.33-.28.31l-.4-.03q-.22-.01-.21-.23.15-3.21-.94-5.47-1.03-2.14-1.15.23l-.06.97a.76.75-1.8 0 1-.68.71l-1.51.14q-.65.06-.78.7-.35 1.68 1.19 2.33 1.93.81.06 1.73-1.27.64-2.33 1.74-.42.44-.86.01-.1-.09-.23-.16a.68.67-32.9 0 0-.34-.07q-.71.04-1.06.64-.27.46.07.88.41.5.48 1.2.15 1.56-.94.44l-2.74-2.81q-1.49-1.55-1.25.59.33 2.84-1.94 3.76-.4.17-.47.59l-.74 4.33q-.1.62.52.75.56.13.96-.35a.79.79 0 0 1 1.35.26l1.14 3.27q.15.43-.24.66-3.4 2.06-1.77 5.44.37.75-.45.93-.36.07-.69-.08-.59-.26-.62-.91-.07-1.33-.78-2.37-.29-.42-.78-.26-2.19.68-3.69 2.31-.38.41-.51-.13-.05-.22.1-.33.52-.43.14-.99-.84-1.23.13-2.52a1.07 1.06 43.1 0 0-.05-1.33l-2.35-2.74q-.43-.5-.12-1.08l.68-1.28a.73.72 19.8 0 0-.5-1.05q-1.51-.32-2.11-1.72c-.54-1.24.43-2.7.76-3.93a1.17 1.17 0 0 0-.63-1.37l-1.64-.77q-.44-.21-.68.22-.2.36-.13.78.05.29-.23.34l-.29.06q-.22.04-.26-.18-.43-2.2.24-4.26c.38-1.16-.12-1.86-.45-2.91a.42.42 0 0 0-.72-.15q-1.21 1.36-2.44-.01a.39.38-40.4 0 0-.52-.04l-.82.65q-.46.36-.11.84l.59.8a.76.75 41.2 0 1 .06.81q-.45.83-1.15 1.46-.42.37-.63-.14-.78-1.85-1.47-4-.24-.75-.17-1.48.13-1.39-.73-2.73-.43-.67-.93-.01-.08.1-.22.12-.5.07-.56-.42l-.37-2.67c3.69-7.85 7.11-12.94 15.25-14.91q12.86-3.11 25.94-6.53c13.58-3.56 22.86-9.5 25.13-24.13q.1-.63.58-1.05 5.28-4.61 11.56-.55M292.77 106.12q.09 1.67.75 3.07.17.36.07.74-.05.23-.28.38-.51.34.05.56l1.84.74q.72.29.72-.49.03-2.37 1.75-3 .15.11.31.22.19.41.74.36l1.06.54q-1.07 1.04-.38 2.62.98 2.28 2.49 2.37l.34 1.18-2.66 1.85q-.43.3-.46.83-.07 1.5-.62 2.99-.17.47.13.87 1.37 1.82 1.95 4.59.1.49-.4.53c-2 .16-4.15-2.49-5.45-3.85a.97.97 0 0 0-1.67.61c-.19 2.83-1.52 2.72-3.41 4.1q-.46.34-.19.84 1.16 2.15-.58 3.95a.47.47 0 0 1-.81-.28q-.1-1.2-1.17-1.54-.48-.15-.35-.63c.72-2.69.93-6.79-1.01-9.08q-.25-.3-.64-.31-.35 0-.59.38a.56.55 39.5 0 0 .07.69q.18.17.27.41.16.43-.27.57-1.17.38-2.02-.11a.97.97 0 0 1-.48-.72l-.07-.61q-.06-.47-.44-.2-.89.64-1.86.88-.56.13-.16.55.48.5.64 1.17a.88.87-14.2 0 1-.63 1.05q-.89.23-1.58.77-.53.41-.42-.25.05-.26.25-.37.49-.26.19-.72-.48-.72-1.24-1.26-.54-.39-.05-.83.23-.21.54-.13.64.17.68-.49.03-.36-.26-.6-.44-.35-.2-.86 1.68-3.59.68-7.57-.19-.77-.97-.63-.4.07-.71.33-.63.53-1.37.17-.65-.32-1.21.15a.38.38 0 0 1-.62-.21q-.37-1.79-2.36-1.39-.64.13-.3.68.6.98-.34 1.6-1.19.79-2.46 1.4a.21.21 0 0 1-.26-.32q1.42-1.82-.8-3.3-.79-.52.07-.93.18-.08.38-.09.78-.05.93-.81.14-.72-.45-1.25a.5.5 0 0 1 .34-.87q.32 0 .59-.17.64-.39.1-.92-.3-.3-.2-.72.11-.44.57-.44.33 0 .55-.29.33-.43-.1-.77-.2-.15-.23-.45-.03-.45.18-.85.8-1.55.02-3.18a1.11 1.11 0 0 1 0-.96l.38-.81a.67.66-57.9 0 0-.18-.81q-1.17-.94-2.81-.85a.49.49 0 0 0-.35.8q.21.27.32.6.23.74-.53.61-1.27-.2-2.07-1.47-.28-.45-.73-.16-.5.33-.39.98.08.44-.37.47l-.37.02a.25.25 0 0 1-.26-.26l.08-3.49q.04-1.72-1.12-.45l-.93 1.02a.56.56 0 0 1-.96-.26l-.15-.72q-.12-.61-.66-.3-.9.51-1.05 1.45a1.25 1.24 33.3 0 0 .19.89q1.38 2.12-.12 3.84-.28.31.11.48.31.14.33.48a.35.35 0 0 1-.49.33q-.36-.15-.32-.53a.33.33 0 0 0-.35-.36q-1.48.1-1.6 1.72-.02.31-.32.26l-.32-.06q-.28-.06-.25-.34.19-2.63-.6-4.62-.21-.53-.76-.68-.42-.11-.73.23-.37.43-.78.03l-.21-.19q-.07-.07-.02-.15.51-.93 1.47-1.17.39-.1.48-.48.51-2.1-.38-3.68-.19-.34.16-.51 2.21-1.1.81-3.45-.22-.37.15-.6.23-.14.51-.06a.54.53-79.3 0 0 .68-.47l.23-2.67a.87.87 0 0 0-.6-.9l-.75-.24q-1.08-.34.01-.66 1.26-.37 1.69-1.28 3.67 1.98 7.76 2.7 8.3 1.48 16.83 2.88c2.4.4 4.17 2.43 4.08 4.97-.26 6.96 1.14 13.54 8.74 15.63"/><path d="M297.67 108.12q-1.72.63-1.75 3 0 .78-.72.49l-1.84-.74q-.56-.22-.05-.56.23-.15.28-.38.1-.38-.07-.74-.66-1.4-.75-3.07z"/><path fill="#44b763" d="M168.05 107.97q-.6-.01-.75-.47a.24.24 0 0 1 .26-.31q.44.05.49.78"/><path d="M298.72 108.7q-.55.05-.74-.36.5-.06.74.36M301.89 114.23q-1.51-.09-2.49-2.37-.69-1.58.38-2.62 2.75 1.05 2.11 4.99"/><path fill="#44b763" d="M77.74 132.99q.91-3.2 3.66-6.36.58 2.7-1.66 6.05-.29.44-.82.4zM79.27 145.02c-1.87-3.53-1.5-6.46-1.43-11.06q.25-.15.52-.02.41.2.47.66.24 1.94 1.2 3.66.8 1.43.97-.2.04-.36.3-.62.59-.58.58.25-.05 1.87.54 3.62a.44.43-11.2 0 1-.39.57q-.18.01-.34.12a1.38 1.35 84.2 0 0-.56.7q-.55 1.54-1.86 2.32M148.37 154.18q.39-.34.95-.24a.48.48 0 0 1 .06.94q-.42.13-.85.01a.41.41 0 0 1-.16-.71M289.27 253.36q-.69 5.82.71 12.89.45 2.3-.74 4.03-.7 1.02-3 2.35c-6.48 3.74-12.64 7.29-19.18 11.73-14.62 9.94-29.35 19.16-45.97 25.24q.14-.82-.63-2.26a.08.07 68.3 0 1 .04-.11l.7-.2q.91-.25.26-.95l-1.48-1.59q-.76-.82-.94.28l-.12.79q-.03.15-.14.23-.2.14-.37.07-.38-.16-.39-.58-.09-4.8 2-10.01a1.66 1.65-76 0 0-1.35-2.26l-1.16-.13a.42.42 0 0 1-.24-.72c1.36-1.24 4.33-2.79 4.89-4.46a.9.9 0 0 1 .81-.62l1.31-.07q.85-.05.43-.79-.86-1.52-2.21-2.74-1.31-1.2-1.14-2.76.08-.7-.61-.78-.26-.04-.38-.25-.36-.62-.06-1.35.71-1.8 1.2-3.68.16-.61-.46-.68-1.16-.12-1.27-1.26-.07-.73-.7-.35l-.33.19q-.66.4-.67-.38-.01-.59.43-1.03.39-.39.17-.89-.22-.48-.67-.83-.51-.38-1.02.02-.53.42-1.07.04-.84-.58-.97.43-.08.55-.38 1-.38.58-.04 1.19 1 1.8-.09 3.21-.32.4-.33.91-.04.83-.18 1.77-.26 1.64-.98.15-.07-.15-.03-.31.14-.65-.5-.51-2.76.6-2.54 2.98.08.82-.62.38-.54-.34-.9-.92-.33-.54-.1-1.13l.56-1.38a2.32 2.31-68.6 0 0-1.31-3.01q-1.16-.45-1.71-1.53-.24-.48-.75-.64-.57-.18-1.19-.06-.77.15-.45.86l.15.34q.31.68-.43.77-.88.1-1.67-.17-.54-.19-.55-.77c-.07-4.35 3.01-5.79 4.71-9.25q.3-.61-.38-.7l-.46-.07q-.59-.08-.64-.67l-.41-4.56q2.48-4.12 1.8-8.75 2.83 1.47 4.61.51.42-.22.85-.03l.31.14q.67.29.72-.43.16-1.98-.75-3.84-.21-.43-.04-.89.32-.91 1.12-1.52.62-.47.09-1.04-.1-.12-.15-.29-.12-.47.35-.53l1.17-.15q.58-.08.92-.54 1.52-2.06 1.19-4.62-.09-.78-.78-.4-.14.07-.24.19-.41.44-.71-.08-1.4-2.38.24-4.56.32-.42.05-.88-.33-.56-.4-1.23-.06-.51.32-.81.37-.3.8-.1t.58.65q.29.85.5 1.72.14.58.73.6.55.01.93-.42.3-.34.72-.18.82.31.7 1.21-.28 1.88.57 3.62a.6.6 0 0 1-.26.79q-.29.15-.34.44-.1.59.49.59.2 0 .38.07.37.14.32.53-.02.2-.12.37a.89.88-55.2 0 0 .19 1.07q.97.89 1.46 2.08.27.64.94.47l.55-.14a.18.17 77.5 0 1 .22.15l.23 1.71q.11.83.85.44c1.07-.57 1.31-2.58 1.27-3.72q-.02-.64.41-1.11l1.4-1.51a.71.71 0 0 1 1.04 0l1.26 1.34q.53.56.65-.19.3-1.72 1.78-2.84.59-.45.2-1.07-.37-.58-1.11-.62-1.07-.05-.29-.78.67-.64.14-1.32-.36-.47.16-.76l1.39-.8a2.11 2.1 70.4 0 1 3.12 1.48l.67 3.96q.09.54-.21 1l-.2.32q-.41.62.29.87l.29.1q.43.15.29.59-.63 1.84.19 3.66.2.47-.17.82-.15.14-.13.33.06.52.57.42.83-.17 1.57.21.56.29.56.92l.03 2.54a.4.4 0 0 0 .68.27l1.82-1.87a.73.72 46.9 0 0 .02-.98q-.33-.38-.47-.85-.15-.55.36-.81l3.9-1.99a.48.47-12.8 0 1 .69.43q-.03 1.18.99 1.35a.68.68 0 0 0 .76-.46q.56-1.67 1.75-2.83.41-.39.24-.94l-1.26-4.09q-.18-.58.39-.77.83-.28 1.54-.93.47-.44.17-.99l-.33-.63q-.23-.43.26-.48l.78-.08q.46-.04.52.42l.37 2.88a.9.9 0 0 0 1.51.54q.31-.28.69-.42a.47.47 0 0 1 .53.73q-1.62 2.03.22 3.64.92.82.02 1.66l-.78.73a.54.54 0 0 0-.02.76l1.18 1.27a.69.68 48.2 0 1-.05.98l-1.13 1q-.76.67.24.84 1.17.19 1.86 1.03.29.36.09.78-1.13 2.3.56 3.94.63.61.79-.25l.19-.98q.05-.25.31-.25l.3.01q.15 0 .14.15-.11 3.21 1.18 5.95.59 1.24.94-.08.2-.71.11-1.45a.66.65 85.6 0 1 .63-.74l1.05-.04a1.48 1.48 0 0 0 1.26-2.16q-.35-.67-1.03-.93-2.31-.87-.07-1.9 1.13-.52 2.08-1.46.43-.43.96-.12.72.42 1.4-.08a.95.94 53.5 0 0 .19-1.33q-.49-.65-.48-1.44.01-.99.71-.3l3.38 3.35q.75.73.84-.31c.15-1.82-.33-3.97 2.2-4.39q.46-.08.46-.54 0-.23-.17-.37-.3-.25-.14-.61.77-1.66.6-3.65-.07-.79-.75-.38l-.85.52a.77.77 0 0 1-1.16-.54q-.25-1.65-1.04-3.06-.33-.58.25-.91 3.41-1.97 1.69-5.49a.57.56-24.2 0 1 .3-.77l.33-.13a.84.83-16.7 0 1 1.13.6l.45 2.08a1.17 1.16 77.1 0 0 1.42.89q2.05-.5 3.36-2.15.73-.91.58.25-.03.2-.2.3a.41.41 0 0 0-.12.59q1 1.38-.08 2.89-.39.55.05 1.06l2.38 2.81q.38.44.19 1-.19.58-.61 1.04a.9.9 0 0 0 .49 1.49q1.39.27 1.92 1.38c.75 1.58-.41 3.04-.72 4.6q-.17.89.72 1.06.8.16 1.49.61.52.34.76-.24l.3-.76a.26.24-76.4 0 1 .24-.16q.29.01.38.22.02.05.01.1-.58 3.89.42 6.69"/><ellipse fill="#44b763" rx=".8" ry=".66" transform="rotate(-1.6 8301.185 -8265.757)"/><path d="m203.73 257.8.41 4.56q.05.59.64.67l.46.07q.68.09.38.7c-1.7 3.46-4.78 4.9-4.71 9.25q.01.58.55.77.79.27 1.67.17.74-.09.43-.77l-.15-.34q-.32-.71.45-.86.62-.12 1.19.06.51.16.75.64.55 1.08 1.71 1.53a2.32 2.31-68.6 0 1 1.31 3.01l-.56 1.38q-.23.59.1 1.13.36.58.9.92.7.44.62-.38-.22-2.38 2.54-2.98.64-.14.5.51-.04.16.03.31.72 1.49.98-.15.14-.94.18-1.77.01-.51.33-.91 1.09-1.41.09-3.21-.34-.61.04-1.19.3-.45.38-1 .13-1.01.97-.43.54.38 1.07-.04.51-.4 1.02-.02.45.35.67.83.22.5-.17.89-.44.44-.43 1.03.01.78.67.38l.33-.19q.63-.38.7.35.11 1.14 1.27 1.26.62.07.46.68-.49 1.88-1.2 3.68-.3.73.06 1.35.12.21.38.25.69.08.61.78-.17 1.56 1.14 2.76 1.35 1.22 2.21 2.74.42.74-.43.79l-1.31.07a.9.9 0 0 0-.81.62c-.56 1.67-3.53 3.22-4.89 4.46a.42.42 0 0 0 .24.72l1.16.13a1.66 1.65-76 0 1 1.35 2.26q-2.09 5.21-2 10.01.01.42.39.58.17.07.37-.07.11-.08.14-.23l.12-.79q.18-1.1.94-.28l1.48 1.59q.65.7-.26.95l-.7.2a.08.07 68.3 0 0-.04.11q.77 1.44.63 2.26l-8.12 2.42q.07-.71-.93-.23-.58.28-.45.71l-.52.19q-.8-.71-1.22-1.7-.25-.57-.78-.89-1.17-.7-1.2-2.19-.01-.87-.79-.47-.55.28-1.13.04-.63-.26-1.18.17l-1.9 1.47q-.42.33-.28.83l.69 2.62a1.23 1.22 5 0 0 .66.78l2.9 1.32-12.84.2q-.52.01-.8-.43c-1.96-3.09-3.97-5.69-2.89-9.64q1.55-5.69 3.1-11.25 2.68-9.58 4.4-24.04.39-3.25 1.8-5.75 1.77-3.16 4.12-5.96m11.65 17.88a.21.2 10.8 0 0 .28-.19q0-.27-.28-.33-.26-.07-.23.19.03.24.23.33"/><path fill="#44b763" d="M215.38 275.68q-.2-.09-.23-.33-.03-.26.23-.19.28.06.28.33a.21.2 10.8 0 1-.28.19M211.07 312.69l-4.23 1.98-2.9-1.32a1.23 1.22 5 0 1-.66-.78l-.69-2.62q-.14-.5.28-.83l1.9-1.47q.55-.43 1.18-.17.58.24 1.13-.04.78-.4.79.47.03 1.49 1.2 2.19.53.32.78.89.42.99 1.22 1.7M212.97 312.02q-.74.41-1.38.48-.13-.43.45-.71 1-.48.93.23"/></svg>