<svg xmlns="http://www.w3.org/2000/svg" viewBox="0 0 382 382"><defs><clipPath id="a"><path d="M206.44 314.67h-12.95c-1.21-2.51-3.68-5.19-3.38-7.49.75-5.57 2.98-10.93 4.26-16.45 1.32-5.69 2.27-11.47 3.26-17.23.45-2.59 0-5.5 1.03-7.79 1.44-3.23 4.06-5.91 5.79-9.04.92-1.65 1.56-3.78 1.43-5.63-.52-7.52-1.58-15.01-2.06-22.53-.5-7.85-4.73-14.92-12.25-16.61-7.27-1.63-14.94-2.3-22.38-1.99-5.67.24-10.44-.05-14.85-3.97-4.27-3.81-9.03-7.07-13.42-10.76-10.97-9.21-23.3-14.58-37.79-15.62-13.59-.97-23.89-11.32-22.18-27.83.35-3.39-1.96-7.06-3.05-10.6v-8.98c2.87-4.82 6.05-9.49 8.52-14.51 2.88-5.83 7.45-8.74 13.57-10.16 9.19-2.13 18.35-4.43 27.43-6.98 11.92-3.35 20.95-9.71 22.65-23.23.12-.97 1.37-2.05 2.36-2.6 5.11-2.85 9.16.46 13.25 2.7 3.34 1.83 5.3 1.31 7.01-2.2 2.7-5.54 6.16-6.44 11.54-4.15 1.78.76 4.49 1 6.09.17 5.44-2.82 11-2.87 16.83-2.25 1.35.14 2.85-1.04 4.28-1.61h2.99c.54.52.99 1.31 1.63 1.51 5.05 1.63 10.13 3.21 15.24 4.64.82.23 1.86-.51 2.81-.58 3.67-.27 7.73-1.53 10.93-.39 3.66 1.3 6.42 4.96 9.83 7.21 2.03 1.34 4.48 2.32 6.87 2.81 5.88 1.22 11.85 2.03 17.76 3.08 3.22.57 4.62 2.39 4.46 5.87-.12 2.71.25 5.59 1.09 8.16 2.07 6.3 8.55 6.38 13.31 8.91 1.21.64 3.07 1.46 3.22 2.42.65 4.02 1.13 8.15.98 12.21-.15 4.04-1.57 8.05-1.56 12.07 0 1.96 2.01 3.91 3.1 5.87v22.94c-.77 4.18-1.59 8.36-2.3 12.55-1.89 11.1-3.76 22.2-5.6 33.31-1.17 7.08-2.2 14.17-3.41 21.24-.71 4.18-1.82 8.29-2.44 12.48-.7 4.73-1.27 9.5-1.46 14.27-.12 2.91.57 5.85.94 8.77.33 2.58-.56 4.1-3.01 5.47-6.85 3.82-13.69 7.76-20.12 12.23-17.42 12.11-35.35 23.07-56.19 28.34-1.42.36-2.71 1.27-4.06 1.93z"/></clipPath></defs><g clip-path="url(#a)"><svg xmlns="http://www.w3.org/2000/svg" width="382" height="382" style="shape-rendering:geometricPrecision"><path fill="#e516c6" stroke="#e516c6" d="m265.212 220.26-6.302-13.778 58.161-24.766 3.954 1.11 20.542 18.506-14.23 43.665-26.18-6.293z"/><path fill="#e516c6" stroke="#e516c6" d="m235.878 127.23 7.869-7.062 10.816-3.721 58.262 51.647 4.246 13.622-58.16 24.766-10.214-3.153-16.547-71.984zM144.892 143.385l-54.26 39.126-20.979-11.061-6.543-12.623 15.977-39.353 34.054-13.111zM382 198.088l-12.848.67 3.44-71.328L382 114.817zM382 382H268.798l18.701-41.127 20.726-9.982L382 337.255zM166.486 75.813l-29.184 14.522-14.612 1.28-19.582-75.085 38.287 22.584z"/><path fill="#444916" stroke="#444916" d="m186.275 326.347 29.064-15.867 7.8 34.76-36.995 22.63z"/><path fill="#e516c6" stroke="#e516c6" d="m235.878 127.23-43.352-65.476 13.099-18.94 9.13-1.699 5.716 3.663 23.276 75.39zM169.8 170.01l-48.435 49.252-30.734-36.75 54.261-39.127 9.544 1.757 15.398 9.35z"/><path fill="#444916" stroke="#444916" d="m103.108 16.53-8.63-12.708L94.018 0h75.161l31.9 39.675-59.684-.561zM312.825 168.094 317.6 91.92l15.565-7.158L382 77.169v37.648l-9.407 12.613-51.568 55.395-3.954-1.109zM154.436 145.142l-9.544-1.757-31.751-37.022 9.549-14.747 14.612-1.281 21.975 22.204zM265.212 220.26l35.946 18.444-.17 30.169-11.882 4.567-15.184-3.338zM176.754 382l9.39-14.13 36.995-22.63L262.122 382z"/><path fill="#444916" stroke="#444916" d="m113.14 106.363-34.053 13.11-25.422-43.812 40.813-71.84 8.63 12.71 19.582 75.085z"/><path fill="#e516c6" stroke="#e516c6" d="m382 272.644-34.002-70.061 21.154-3.824 12.848-.671z"/><path fill="#444916" stroke="#444916" d="m307.36 304.9 29.896-35.108L382 290.448v46.807l-73.775-6.364z"/><path fill="#e516c6" stroke="#e516c6" d="M0 382v-16.538l67.283-38.078 35.516 42.668 3.33 7.296.644 4.652zM312.825 168.094l-58.262-51.647 32.272-24.671 30.766.144z"/><path fill="#444916" stroke="#444916" d="m106.773 382-.645-4.652 57.317-52.366 22.83 1.365-.13 41.523-9.391 14.13z"/><path fill="#e516c6" stroke="#e516c6" d="m217.347 0-1.767 38.855-.826 2.26-9.13 1.699-4.546-3.139L169.18 0zM300.987 268.873l.17-30.169 26.18 6.293 2.25 17.367z"/><path fill="#444916" stroke="#444916" d="M49.35 0 0 60.417V0z"/><path fill="#e516c6" stroke="#e516c6" d="M53.665 75.661 0 79.713V60.417L49.35 0h44.667l.461 3.822z"/><path fill="#444916" stroke="#444916" d="m0 298.857 62.954 18.922 4.329 9.605L0 365.462z"/><path fill="#e516c6" stroke="#e516c6" d="m327.337 244.997 14.23-43.665 6.431 1.25L382 272.645v17.804l-44.744-20.656-7.668-7.428zM273.922 270.102l15.184 3.338 18.254 31.46.865 25.99-20.726 9.983-37.036-44.733z"/><path fill="#444916" stroke="#444916" d="m111.498 250.981 25.923 28.6-34.622 90.471-35.516-42.668-4.33-9.605 16.215-49.35z"/><path fill="#e516c6" stroke="#e516c6" d="m248.697 203.329 10.213 3.153 6.302 13.778 8.71 49.842-23.459 26.038-22.43.584 16.26-91.304zM158.142 284.225l5.303 40.757-57.317 52.366-3.329-7.296 34.622-90.47z"/><path fill="#444916" stroke="#444916" d="m169.8 170.01.034-15.518 30.953-18.808 17.585-4.763 13.778.424 16.547 71.984-4.404 2.091-32.87 9.13z"/><path fill="#e516c6" stroke="#e516c6" d="m200.787 135.684-28.528-29.548 3.98-29.738 3.151-1.146 38.982 55.669z"/><path fill="#444916" stroke="#444916" d="m176.238 76.398-9.752-.585-25.091-36.7 59.683.562 4.547 3.139-13.099 18.94-13.136 13.498z"/><path fill="#e516c6" stroke="#e516c6" d="M218.372 130.92 179.39 75.253l13.136-13.498 43.352 65.477-3.728 4.114zM79.168 268.429l-16.214 49.35L0 298.857v-59.613l29.89-6.621zM382 0v77.169l-48.834 7.593-26.459-43.06L304.627 0zM283.833 0h20.794l2.08 41.703-39.711 4.933zM169.8 170.01l41.623 44.54-18.63 19.737-71.341-14.67-.087-.355z"/><path fill="#444916" stroke="#444916" d="m121.452 219.616-9.954 31.365-32.33 17.448-49.279-35.806 39.764-61.173 20.978 11.061 30.734 36.75z"/><path fill="#e516c6" stroke="#e516c6" d="m169.834 154.492-15.398-9.35 4.84-32.603 12.983-6.403 28.528 29.548z"/><path fill="#444916" stroke="#444916" d="m121.452 219.616 71.34 14.671-1.181 38.11-33.47 11.828-20.72-4.643-25.923-28.6zM228.033 296.724l22.43-.584 37.036 44.733L268.798 382h-6.676l-38.983-36.76-7.8-34.76 4.32-11.563z"/><path fill="#e516c6" stroke="#e516c6" d="M69.653 171.45 29.89 232.623 0 239.244v-94.47l63.11 14.053zM300.987 268.873l28.6-6.509 7.67 7.428L307.36 304.9l-18.254-31.46z"/><path fill="#e516c6" stroke="#e516c6" d="m0 79.713 53.665-4.052 25.422 43.813-15.977 39.353L0 144.774zM243.747 120.168l-23.276-75.39 45.127 3.96 21.237 43.038-32.272 24.67z"/><path fill="#444916" stroke="#444916" d="m211.423 214.55 32.87-9.13-16.26 91.304-8.373 2.193-28.05-26.52 1.183-38.11z"/><path fill="#e516c6" stroke="#e516c6" d="m321.025 182.825 51.568-55.395-3.44 71.329-21.155 3.824-6.431-1.251zM159.277 112.539l-21.975-22.204 29.184-14.522 9.752.585-3.98 29.738zM191.61 272.396l28.05 26.52-4.32 11.564-29.065 15.867-22.83-1.365-5.303-40.757zM258.862 0 215.58 38.855 217.347 0z"/><path fill="#444916" stroke="#444916" d="m286.835 91.776-21.237-43.037 1.398-2.103 39.711-4.933 26.46 43.059L317.6 91.92z"/><path fill="#e516c6" stroke="#e516c6" d="m265.598 48.739-45.127-3.961-5.717-3.663.826-2.26L258.862 0h24.971l-16.837 46.636z"/></svg></g></svg>