<svg xmlns="http://www.w3.org/2000/svg" viewBox="0 0 382 382"><defs><clipPath id="a"><path d="M206.44 314.67h-12.95c-1.21-2.51-3.68-5.19-3.38-7.49.75-5.57 2.98-10.93 4.26-16.45 1.32-5.69 2.27-11.47 3.26-17.23.45-2.59 0-5.5 1.03-7.79 1.44-3.23 4.06-5.91 5.79-9.04.92-1.65 1.56-3.78 1.43-5.63-.52-7.52-1.58-15.01-2.06-22.53-.5-7.85-4.73-14.92-12.25-16.61-7.27-1.63-14.94-2.3-22.38-1.99-5.67.24-10.44-.05-14.85-3.97-4.27-3.81-9.03-7.07-13.42-10.76-10.97-9.21-23.3-14.58-37.79-15.62-13.59-.97-23.89-11.32-22.18-27.83.35-3.39-1.96-7.06-3.05-10.6v-8.98c2.87-4.82 6.05-9.49 8.52-14.51 2.88-5.83 7.45-8.74 13.57-10.16 9.19-2.13 18.35-4.43 27.43-6.98 11.92-3.35 20.95-9.71 22.65-23.23.12-.97 1.37-2.05 2.36-2.6 5.11-2.85 9.16.46 13.25 2.7 3.34 1.83 5.3 1.31 7.01-2.2 2.7-5.54 6.16-6.44 11.54-4.15 1.78.76 4.49 1 6.09.17 5.44-2.82 11-2.87 16.83-2.25 1.35.14 2.85-1.04 4.28-1.61h2.99c.54.52.99 1.31 1.63 1.51 5.05 1.63 10.13 3.21 15.24 4.64.82.23 1.86-.51 2.81-.58 3.67-.27 7.73-1.53 10.93-.39 3.66 1.3 6.42 4.96 9.83 7.21 2.03 1.34 4.48 2.32 6.87 2.81 5.88 1.22 11.85 2.03 17.76 3.08 3.22.57 4.62 2.39 4.46 5.87-.12 2.71.25 5.59 1.09 8.16 2.07 6.3 8.55 6.38 13.31 8.91 1.21.64 3.07 1.46 3.22 2.42.65 4.02 1.13 8.15.98 12.21-.15 4.04-1.57 8.05-1.56 12.07 0 1.96 2.01 3.91 3.1 5.87v22.94c-.77 4.18-1.59 8.36-2.3 12.55-1.89 11.1-3.76 22.2-5.6 33.31-1.17 7.08-2.2 14.17-3.41 21.24-.71 4.18-1.82 8.29-2.44 12.48-.7 4.73-1.27 9.5-1.46 14.27-.12 2.91.57 5.85.94 8.77.33 2.58-.56 4.1-3.01 5.47-6.85 3.82-13.69 7.76-20.12 12.23-17.42 12.11-35.35 23.07-56.19 28.34-1.42.36-2.71 1.27-4.06 1.93z"/></clipPath></defs><g clip-path="url(#a)"><svg xmlns="http://www.w3.org/2000/svg" width="382" height="382" style="shape-rendering:geometricPrecision"><path fill="#8b38e1" stroke="#8b38e1" d="M42.81 66.463 8.2 38.808 55.574 0h8.622l-.735 65.374z"/><path fill="#ee3c56" stroke="#ee3c56" d="m349.981 270.059-5.162-46.328 22.834-10.947-13.7 59.861zM66.807 272.058l-36.78 36.653L0 300.513v-18.015l32.407-24.122 19.371-4.68z"/><path fill="#ee3c56" stroke="#ee3c56" d="m296.435 228.565 9.565-6.816 38.819 1.982 5.162 46.328-39.286-10.585-13.593-24.063z"/><path fill="#8b38e1" stroke="#8b38e1" d="m166.875 333.878 25.547-14.212 20.46 12.814-.561 5.466-38.606 14.495z"/><path fill="#ee3c56" stroke="#ee3c56" d="m42.81 66.463-36.848 74.54L0 140.376V39.04l8.2-.232z"/><path fill="#8b38e1" stroke="#8b38e1" d="m353.954 272.645 13.7-59.861 8.828-6.323 5.518.763v69.134l-21.024 2.628zM238.07 309.31l28.641-16.981 15.148 1.97 25.703 31.267-10.024 18.716-26.503-6.826L238.02 309.5z"/><path fill="#ee3c56" stroke="#ee3c56" d="m217.606 129.256 11.838-46.145 9.074.966 22.857 24.731-8.617 29.696-34.478-4.615z"/><path fill="#ee3c56" stroke="#ee3c56" d="m252.758 138.504 8.617-29.696 58.957-29.816 1.78 3.619-44.314 44.303-19.999 16.36zM148.823 198.07l25.981-32.743 9.453 1.563 38.448 47.051-7.309 18.77-59.527 16.686-18.787-16.833z"/><path fill="#8b38e1" stroke="#8b38e1" d="m212.882 332.48 25.137-22.98 33.016 27.956-23.54 27.29-26.202 11.933-8.972-38.733z"/><path fill="#ee3c56" stroke="#ee3c56" d="m320.332 78.992-58.957 29.816-22.857-24.73 10.644-5.73 69.04-11.625zM312.512 130.98l-34.714-4.066 44.315-44.303 13.848 22.28zM0 300.513l30.026 8.198 8.006 17.162L0 366.774zM85.764 0l26.156 40.631L73.992 71.37l-10.531-5.995L64.196 0z"/><path fill="#8b38e1" stroke="#8b38e1" d="m148.823 198.07-11.74 34.494-11.245.708-65.266-48.479-1.102-15.713 4.873-1.032zM122.28 329.768l44.595 4.11 6.84 18.563-3.827 3.532-39.616 9.314z"/><path fill="#ee3c56" stroke="#ee3c56" d="m173.715 352.44 38.606-14.494 8.972 38.733-.859 5.321h-32.466l-18.08-26.027z"/><path fill="#8b38e1" stroke="#8b38e1" d="m320.43 317.911-12.868 7.655L281.86 294.3l26.375-27.568z"/><path fill="#ee3c56" stroke="#ee3c56" d="m137.082 232.564 18.787 16.833-.374 26.945-39.05 41.555-16.97-6.523-17.341-30.877 43.704-47.225zM224.447 77.78l.1-9.882 40.495-60.913-15.88 71.363-10.644 5.73-9.074-.967z"/><path fill="#8b38e1" stroke="#8b38e1" d="m312.512 130.98 23.449-26.09 21.064 14.139-11.548 55.114-7.972 3.353-43.635-24.525z"/><path fill="#8b38e1" stroke="#8b38e1" d="m345.477 174.143 11.548-55.114 24.975.457v87.738l-5.518-.763zM117.87 319.947l69.907-5.756 4.645 5.475-25.547 14.212-44.595-4.11zM318.456 194.346 284.36 158.44l9.51-5.47 43.635 24.526zM82.253 93.334 50.738 159.27 5.962 141.003l36.849-74.54 20.65-1.089 10.531 5.995z"/><path fill="#ee3c56" stroke="#ee3c56" d="m382 119.486-24.975-.457-21.064-14.139-13.848-22.28-1.781-3.618-2.13-12.27.661-12.376L382 35.204z"/><path fill="#8b38e1" stroke="#8b38e1" d="m266.711 292.329.411-27.49 29.98-29.428 13.593 24.063-2.461 7.258-26.375 27.568z"/><path fill="#8b38e1" stroke="#8b38e1" d="m220.415 250.724 46.707 14.115-.41 27.49-28.642 16.98-18.435-42.118zM220.434 382l.86-5.32 26.202-11.933 56.678 10.046 3.01 7.207zM82.134 280.497l17.34 30.877-.184.147-35.992 21.819-25.266-7.467-8.006-17.162 36.78-36.653zM217.606 129.256 177.924 88.11l10.38-6.64 36.143-3.689 4.997 5.33z"/><path fill="#ee3c56" stroke="#ee3c56" d="m148.823 198.07-84.48-30.022 81.544-31.075 28.917 28.354z"/><path fill="#8b38e1" stroke="#8b38e1" d="m117.87 319.947-1.425-2.05 39.05-41.555 24.54 14.548 7.742 23.301zM0 382v-15.226l38.032-40.9 25.266 7.466L53.66 370l-7.754 12zM247.496 364.747l23.54-27.291 26.502 6.826 6.636 30.511zM123.973 96.34l-41.72-3.006-8.26-21.965L111.92 40.63l15.56 4.673z"/><path fill="#ee3c56" stroke="#ee3c56" d="m249.162 78.348 15.88-71.363L268.734 0h20.905l29.224 54.346-.66 12.377z"/><path fill="#8b38e1" stroke="#8b38e1" d="m188.305 81.47 5.59-52.333 30.651 38.76-.1 9.883zM257.8 143.275l19.998-16.36 34.714 4.066-18.642 21.99-9.51 5.47-13.886 2.804zM155.869 249.397l59.527-16.686 5.019 18.013-.78 16.467-39.6 23.7-24.54-14.549zM320.43 317.911l-12.196-51.18 2.461-7.257 39.286 10.585 3.973 2.586 7.022 6.34-18.012 35.478zM184.257 166.89l-9.453-1.563-28.917-28.354-.358-19.83 27.56-28.307 4.835-.727 39.682 41.147.674 4.633z"/><path fill="#ee3c56" stroke="#ee3c56" d="M111.92 40.631 85.764 0h95.27L148.79 38.3l-21.31 7.004z"/><path fill="#8b38e1" stroke="#8b38e1" d="m180.036 290.89 39.6-23.7 18.434 42.12-.05.19-25.138 22.98-20.46-12.814-4.645-5.475z"/><path fill="#ee3c56" stroke="#ee3c56" d="m318.456 194.346 19.049-16.85 7.972-3.353 31.005 32.318-8.829 6.323-22.834 10.947L306 221.75zM145.887 136.973l-81.544 31.075-4.873 1.032-8.732-9.81 31.515-65.936 41.72 3.005 21.556 20.805zM45.906 382l7.754-12 27.79-6.498L112.047 382z"/><path fill="#8b38e1" stroke="#8b38e1" d="m99.29 311.52-17.84 51.982L53.66 370l9.638-36.661z"/><path fill="#ee3c56" stroke="#ee3c56" d="m382 364.913-39.036-50.45 18.012-35.477L382 276.358zM184.257 166.89l34.023-33.001 34.478 4.615 5.041 4.77 12.675 17.971-14.614 43.275-33.155 9.421z"/><path fill="#8b38e1" stroke="#8b38e1" d="M193.895 29.137 184.607 0h84.127l-3.692 6.985-40.496 60.913z"/><path fill="#ee3c56" stroke="#ee3c56" d="m222.705 213.941 33.155-9.421 40.575 24.045.667 6.846-29.98 29.428-46.707-14.115-5.019-18.013z"/><path fill="#ee3c56" stroke="#ee3c56" d="M296.435 228.565 255.86 204.52l14.614-43.275 13.886-2.805 34.096 35.906L306 221.75zM382 382h-74.816l-3.01-7.207-6.636-30.511 10.024-18.716 12.867-7.655 22.535-3.448L382 364.913zM55.574 0 8.2 38.808 0 39.04V0z"/><path fill="#8b38e1" stroke="#8b38e1" d="m0 140.376 5.962.627 44.776 18.267 8.732 9.81 1.102 15.713-5.916 16.325L0 223.8z"/><path fill="#ee3c56" stroke="#ee3c56" d="m54.656 201.118 5.916-16.325 65.266 48.479-43.704 47.225-15.327-8.439-15.029-18.363z"/><path fill="#8b38e1" stroke="#8b38e1" d="M169.888 355.973 187.968 382H128.06l2.212-16.713z"/><path fill="#ee3c56" stroke="#ee3c56" d="M173.09 88.836 148.79 38.3 181.034 0h3.573l9.288 29.137-5.59 52.332-10.381 6.64zM117.87 319.947l4.41 9.821 7.992 35.519L128.06 382h-16.013L81.45 363.502l17.84-51.981.184-.147 16.971 6.523zM382 0v35.204l-63.137 19.142L289.64 0z"/><path fill="#8b38e1" stroke="#8b38e1" d="m0 238.03 32.407 20.346L0 282.498zM0 223.8l54.656-22.682-2.878 52.577-19.371 4.68L0 238.03z"/><path fill="#ee3c56" stroke="#ee3c56" d="m145.53 117.144-21.557-20.805 3.508-51.035 21.31-7.004 24.299 50.536z"/></svg></g></svg>