<svg xmlns="http://www.w3.org/2000/svg" viewBox="0 0 382 382"><defs><clipPath id="a"><path d="M206.44 314.67h-12.95c-1.21-2.51-3.68-5.19-3.38-7.49.75-5.57 2.98-10.93 4.26-16.45 1.32-5.69 2.27-11.47 3.26-17.23.45-2.59 0-5.5 1.03-7.79 1.44-3.23 4.06-5.91 5.79-9.04.92-1.65 1.56-3.78 1.43-5.63-.52-7.52-1.58-15.01-2.06-22.53-.5-7.85-4.73-14.92-12.25-16.61-7.27-1.63-14.94-2.3-22.38-1.99-5.67.24-10.44-.05-14.85-3.97-4.27-3.81-9.03-7.07-13.42-10.76-10.97-9.21-23.3-14.58-37.79-15.62-13.59-.97-23.89-11.32-22.18-27.83.35-3.39-1.96-7.06-3.05-10.6v-8.98c2.87-4.82 6.05-9.49 8.52-14.51 2.88-5.83 7.45-8.74 13.57-10.16 9.19-2.13 18.35-4.43 27.43-6.98 11.92-3.35 20.95-9.71 22.65-23.23.12-.97 1.37-2.05 2.36-2.6 5.11-2.85 9.16.46 13.25 2.7 3.34 1.83 5.3 1.31 7.01-2.2 2.7-5.54 6.16-6.44 11.54-4.15 1.78.76 4.49 1 6.09.17 5.44-2.82 11-2.87 16.83-2.25 1.35.14 2.85-1.04 4.28-1.61h2.99c.54.52.99 1.31 1.63 1.51 5.05 1.63 10.13 3.21 15.24 4.64.82.23 1.86-.51 2.81-.58 3.67-.27 7.73-1.53 10.93-.39 3.66 1.3 6.42 4.96 9.83 7.21 2.03 1.34 4.48 2.32 6.87 2.81 5.88 1.22 11.85 2.03 17.76 3.08 3.22.57 4.62 2.39 4.46 5.87-.12 2.71.25 5.59 1.09 8.16 2.07 6.3 8.55 6.38 13.31 8.91 1.21.64 3.07 1.46 3.22 2.42.65 4.02 1.13 8.15.98 12.21-.15 4.04-1.57 8.05-1.56 12.07 0 1.96 2.01 3.91 3.1 5.87v22.94c-.77 4.18-1.59 8.36-2.3 12.55-1.89 11.1-3.76 22.2-5.6 33.31-1.17 7.08-2.2 14.17-3.41 21.24-.71 4.18-1.82 8.29-2.44 12.48-.7 4.73-1.27 9.5-1.46 14.27-.12 2.91.57 5.85.94 8.77.33 2.58-.56 4.1-3.01 5.47-6.85 3.82-13.69 7.76-20.12 12.23-17.42 12.11-35.35 23.07-56.19 28.34-1.42.36-2.71 1.27-4.06 1.93z"/></clipPath></defs><g clip-path="url(#a)"><svg xmlns="http://www.w3.org/2000/svg" width="382" height="382" style="shape-rendering:geometricPrecision"><path fill="#5feaef" stroke="#5feaef" d="m260.849 269.38 30.448 15.14-49.82 23.28z"/><path fill="#bbf89c" stroke="#bbf89c" d="m151.538 277.033 51.082 20.478 1.75 3.73-42.028 22.787-45.183-6.916 1.368-5.126 27.522-32.53zM234.149 183.099l25.153-5.205 1.538 1.065 16.352 49.642-16.22 17.472-49.156-15.503-.61-1.12z"/><path fill="#5feaef" stroke="#5feaef" d="m185.986 382 4.27-28.898 9.337 9.95 3.09 18.948zM0 0h57.406l26.967 73.39-6.234 8.285L0 6.507z"/><path fill="#bbf89c" stroke="#bbf89c" d="m277.192 228.601 88.598 33.475-51.818 29.954-22.675-7.51-30.448-15.14-1.297-2.261 1.42-21.046z"/><path fill="#5feaef" stroke="#5feaef" d="m260.84 178.96 49.971 1.305L382 255.237v3.26l-16.21 3.579-88.598-33.475z"/><path fill="#bbf89c" stroke="#bbf89c" d="m77.329 210.663 68.72 68.792-27.522 32.531-59.477-72.058 7.516-19.135z"/><path fill="#5feaef" stroke="#5feaef" d="m259.302 177.894 8.933-50.364 62.864 12.557-20.288 40.178-49.971-1.306zM215.023 268.753l44.53-1.634 1.296 2.261-19.372 38.42-8.872 12.44-20.04-6.245-8.196-12.754-1.75-3.73zM102.744 382l84.01-32.286 1.368-.248 2.134 3.636-4.27 28.898z"/><path fill="#bbf89c" stroke="#bbf89c" d="M372.515 0 262.123 101.994l-43.02-9.952-4.336-2L237.207 0zM0 6.507l78.139 75.168-13.424 30.934L0 113.66z"/><path fill="#bbf89c" stroke="#bbf89c" d="M190.01 92.58 140.02 39.1 151.14 0h86.068l-22.441 90.041z"/><path fill="#5feaef" stroke="#5feaef" d="m151.14 0-11.12 39.1-55.647 34.29L57.406 0zM221.006 174.753l-1.903-82.711 43.02 9.952 6.112 25.536-8.933 50.364-25.153 5.205z"/><path fill="#bbf89c" stroke="#bbf89c" d="m241.477 307.8 49.82-23.28 22.675 7.51-10.967 17.796-68.86 11.79-1.54-1.376zM182.25 162.21l38.756 12.543 13.143 8.346-22.942 46.351-43.337-1.665-13.467-18.866z"/><path fill="#5feaef" stroke="#5feaef" d="m182.25 162.21-27.847 46.71-68.252-13.618-2.8-54.697 84.233-6.563z"/><path fill="#bbf89c" stroke="#bbf89c" d="m318.914 382-16.55-66.968.64-5.206 10.968-17.796 51.818-29.954 16.21-3.58V382zM382 255.237l-71.189-74.972 20.288-40.178L382 106.747zM190.01 92.58l-22.426 41.462-84.233 6.563-18.636-27.996L78.14 81.675l6.234-8.284L140.02 39.1zM162.342 324.028l24.412 25.686L102.744 382H86.795l30.364-64.888zM77.329 210.663l8.822-15.361 68.252 13.617 13.467 18.866-16.332 49.248-5.489 2.422z"/><path fill="#bbf89c" stroke="#bbf89c" d="M382 0v106.747l-50.9 33.34-62.865-12.557-6.112-25.536L372.515 0zM162.342 324.028l42.027-22.787 8.196 12.754-24.443 35.471-1.368.248z"/><path fill="#5feaef" stroke="#5feaef" d="M0 382v-79.607l59.05-62.465 59.477 72.058-1.368 5.126L86.795 382zM0 196.648l66.566 24.145-7.516 19.135L0 302.393z"/><path fill="#bbf89c" stroke="#bbf89c" d="m182.25 162.21-14.666-28.168 22.427-41.462 24.756-2.539 4.336 2.001 1.903 82.711zM77.329 210.663l-10.763 10.13L0 196.648V113.66l64.715-1.05 18.636 27.995 2.8 54.697zM234.145 321.617l21.598 46.227 1.267 9.28-57.417-14.072-9.337-9.95-2.134-3.636 24.443-35.471 20.04 6.245z"/><path fill="#5feaef" stroke="#5feaef" d="m211.816 230.57 49.155 15.503-1.419 21.046-44.53 1.634z"/><path fill="#bbf89c" stroke="#bbf89c" d="m211.207 229.45.61 1.12 3.206 38.183-12.403 28.758-51.082-20.478 16.332-49.248zM255.743 367.844l46.621-52.812L318.914 382h-60.062l-1.842-4.876z"/><path fill="#bbf89c" stroke="#bbf89c" d="m234.145 321.617 68.86-11.791-.64 5.206-46.622 52.812zM202.683 382l-3.09-18.948 57.417 14.072 1.842 4.876z"/></svg></g></svg>