<svg xmlns="http://www.w3.org/2000/svg" viewBox="0 0 382 382"><g fill="none" stroke="#763061" stroke-width="2"><path d="m221.45 70.38-3.13 3.2q-.35.35-.34.84l.04 1.83q.02.77.65.33.28-.19.62-.25.57-.11.91.37l1.32 1.92a.94.89 82.6 0 0 .38.31q1.59.72 1.06 2.56-.78 2.7-1.57 5.05-.08.22.14.32l2 .9q.3.13.34-.19l.22-1.78q.09-.74.75-.39 1.07.57 1.77-.55.96-1.54 1.51.19.49 1.53 1.48 3.03.39.58 1.04.59a.92.92 0 0 0 .85-1.28q-.82-1.91.09-3.46.3-.52-.12-.94-.14-.14-.14-.37.01-.64.53-.26.69.5 1.25-.09.32-.33.26-.79-.25-2.04-1.06-3.64-.31-.62-.99-.5-.29.05-.5.26-.54.54-.7-.21-.53-2.52.61-4.19M240.01 72.02q.46 1.19 1.27 1.57.54.25.66-.33l.27-1.23M254.7 79.53q-.24 1.93 1.02 4.32.32.6-.25.96-.14.09-.31.1-.83.06-.56.85.77 2.21-.74 4.13a1.16 1.15 58.1 0 0-.22.97q.58 2.68-.39 5.15-.37.96.52.45l.32-.18q.51-.3.89.16.98 1.21 1.11 2.95a.37.37 0 0 0 .55.29q3.26-1.95 1.75-4.97-.6-1.2.3-2.14.53-.56 1.19-.14 1.15.72 2.32 0 .68-.42.72.38.05 1.19.11 2.36.04.77.69.36.21-.13.48-.15.39-.04.76.13l2.09.98q.55.26.87-.26.91-1.5 2.64-2a.4.4 0 0 1 .48.54l-.7 1.73a1.28 1.26 44.7 0 0 .01.98q.88 2.02-.09 4.28-.24.55.07 1.05l.15.24q.43.71-.37.89-.88.2-.52 1.03.31.72.07 1.47l-1.44 4.55q-.21.67.45.89 1.13.38 1.56 1.47.26.66.62.05.76-1.3.57-2.58-.06-.41.16-.77.85-1.35 2.51-1.01.63.12.84.74.48 1.45 1.83 2.17.52.28.82-.22l.93-1.6q.14-.23.42-.21l.54.04a.35.35 0 0 1 .29.5l-.61 1.33q-.33.71.41.99.2.07.4.07.86 0 .59.82c-.5 1.5-1.29 4.87-.81 6.5q.19.63-.25 1.06-.3.31.06.54 1.41.91 2.67 1.22.68.17.42-.49l-.57-1.45q-.29-.76.51-.86.64-.09 1.22.24.44.26.93.16 1.96-.41 2.46-2.09a.54.53-54.3 0 1 .95-.16q2 2.83 1.86 6.16c-.04.74.26 1.36.73 1.91q.49.55-.24.69-.17.03-.15.22.05.71.57.23 1.13-1.06 2.2.04.14.15.34.13.05 0 .09-.03.36-.28-.03-.53-.77-.5-.1-1.13.51-.49-.1-.85-.15-.09-.32-.1-.92-.05-.51-.88.78-1.62 2.14-2.93 1.18-1.15.82-2.68a.68.68 0 0 1 .93-.78l3.88 1.66q.45.19.68-.25l.72-1.43q.31-.6-.36-.68l-1.55-.17a.8.79-66.4 0 1-.51-1.31q1.29-1.5.1-3.06a.85.85 0 0 1-.08-.87l1.04-2.19M289.28 254.28q-1.03-.02-1.71-.4-.45-.26-.47-.78l-.22-6.35q-.02-.63-.61-.39-1.28.53-2.95-.82a.95.94-62.6 0 1-.31-.99l1.01-3.41q.3-.99-.7-.76-.17.04-.32.14-.6.44-.95-.22-.78-1.45-.95-3.03-.05-.52.21-.97.69-1.24.64-2.73-.01-.25-.26-.25l-.34.02q-.29.01-.28.3.01.4-.17.77-.24.53-.76.25l-1.57-.87a.92.91-76.5 0 1-.46-.76l-.15-4.19q-.02-.51-.48-.72-.45-.21-.92-.06-.57.17-.18.62l.21.24q.39.45-.09.8-.23.17-.52.19-.59.04-.78.61l-.35 1.01a.87.86-60.5 0 1-1.38.39q-1.18-1-1.68-2.27-.3-.77-.89-.19l-.4.4a.77.76-41.8 0 0-.06 1.03l.99 1.21q.39.48.01.97-.39.51.09.95.53.49-.1.84-.18.1-.37.11-.76.04-.61.78.53 2.61 2.93 2.43.76-.06.57.68-.75 2.83-2.36 5.16c-.73 1.05-.7 2.27-.65 3.5a.35.35 0 0 1-.59.27q-1.1-1.05-2.24-2.13-1.94-1.85-1.58.8.1.81-.5 1.74-.89 1.37-1.02-.26-.01-.16-.1-.31-.46-.72-.75.09-.43 1.23-1.64 1.57a.71.71 0 0 0-.36 1.14q.91 1.1.8 2.5a1 1 0 0 1-.47.75l-1.89 1.14q-.5.31-.25.84l.15.32q.63 1.36-.8.91-1.66-.51-1.21-2.02.11-.37-.03-.73-.41-1.06-.43-2.22-.01-.54-.55-.53-1.54.04-2.98.23-.88.11-.45-.66l.67-1.23q.26-.47.01-.95-2.33-4.66-1.05-9.73.13-.49-.3-.76l-1.75-1.09q-.57-.36-.23-.95.73-1.23.56-2.65-.07-.64-.61-.29-.78.49-1.3 1.19a.78.77-43 0 1-1.27-.04q-.45-.68-1.11-1.05-.52-.29-.22.23.15.26.33.49.16.19 0 .37l-1.12 1.29q-.34.39-.15.87l1.6 4a.7.7 0 0 1-.89.92l-.48-.17q-.6-.22-.69.41l-.21 1.5q-.08.55-.61.73-.25.08-.49-.05-.69-.35-.74-1.12-.01-.17-.08-.32-.27-.54-.71-.14-1.45 1.32-3.5 2.27a.73.73 0 0 0-.34 1.01l.58 1.1a.66.66 0 0 1-.29.9l-1.92.95q-.62.3-.65-.38l-.11-2.43a.51.51 0 0 0-.73-.44l-1.04.49a.79.79 0 0 1-1.01-1.11q.77-1.3-.22-2.29a.82.79-73.2 0 1-.24-.47l-.67-4.33a.72.67 55 0 1 .06-.43q.36-.77-.35-1.18a.96.95 10.8 0 1-.47-.68l-.45-2.75q-.07-.45-.51-.36-.48.1-.86.44a.81.81 0 0 1-1.34-.56q-.03-.48-.37-.81a.3.3 0 0 0-.5.13l-1.35 4.53a.54.54 0 0 0 .79.62l.57-.33q.73-.43.68.42l-.07 1.12a1.57 1.55 70.6 0 1-.49 1.04q-1.13 1.06-1.61 2.49-.21.62-.76.27-.75-.48-1.21-1.26-.04-.06-.11-.1-.21-.11-.37.02-.27.23-.01.48.17.16.39.25.4.17.11.48-.43.48-1.1.65-1.73.46-1.12 1.94c.44 1.05-.29 2.45-.75 3.4q-.29.61-.83.2-.42-.33-.68-.78-.31-.54-.94-.59-.29-.03-.55.09-.68.31-.81-.42l-.24-1.33q-.09-.48-.57-.52-.29-.02-.41.26a.38.38 0 0 1-.71-.05q-.16-.6.25-1.03.39-.4.07-.86-.19-.26-.52-.35a.77.76 79.2 0 1-.42-.29q-1.91-2.58-2.77-5.13-.2-.61-.7-.19l-3.32 2.8q-.47.39-.14.92.5.78.62 1.72a1.17 1.15 14 0 0 .48.78q2.76 1.9 1.17 5.41-.21.45-.66.68-1.61.8-1.2 2.87.41 2.11.96 4.01a.93.92 72.3 0 1-.57 1.12q-.8.29-1.22.94-.31.48-.88.58l-4.48.71M80.33 148.24l.94-3.47q.14-.51.61-.76.49-.26.48-.83c-.03-1.38.81-3.31 1.18-4.66a.91.91 0 0 0-1.25-1.08q-1.83.82-2.12-1.07-.25-1.58-.07-3.52.12-1.26.99-.35.19.2.45.1.34-.14.4-.49.37-2.11 1.42-3.91a1.15 1.15 0 0 0 .12-.87l-.85-3.08M83.73 122.36q1.23.86 1.46 2.65.06.46.52.39 1.15-.17 1.51.91 1.13 3.39 2.2 6.46.25.72.96 1.01.49.19.52-.33l.12-2.2q.04-.84.84-1.11l3.16-1.05q.93-.31.93.67l.02 6.47q0 .66.62.46 1.49-.49 3.11.56a.77.76 22.2 0 1 .33.77c-.25 1.29-1.11 2.92-1.01 4.15q.06.8.75.41l.4-.23q.6-.33.82.32l.94 2.81q.17.51-.09.98-.76 1.39-.7 3.04.01.26.27.22l.25-.03a.26.26 0 0 0 .22-.29q-.05-.47.16-.9a.54.54 0 0 1 .82-.19q.74.58 1.63.89.57.19.56.79l-.06 3.97a.99.97 29.5 0 0 .15.52q.53.85 1.1.62.58-.23.34-.8l-.24-.54a.3.3 0 0 1 .17-.39q1.32-.53 1.65-1.86a.77.76 16.4 0 1 .99-.54q1.65.55 1.87 2.38a.42.41-5.8 0 0 .45.36q.62-.05.96-.62a.79.78 44.7 0 0-.01-.84q-1.05-1.65-1-3.74 0-.37.35-.49l.38-.13q.45-.16.37-.63-.47-2.69-2.92-2.28a.45.45 0 0 1-.52-.53q.57-2.99 2.25-5.28c.77-1.05.68-2.13.67-3.37q0-1.3.93-.39 1.09 1.06 2.1 2.13.49.52 1.2.54.56.02.42-.52-.41-1.54.61-3.13.25-.4.57-.05.32.34.13.82-.12.29.08.52.1.1.31.01.27-.12.34-.41.27-1.09 1.39-1.42 1.49-.43.55-1.66-.79-1.05-.6-2.21.16-.93 1.23-1.18 1.67-.4 1.16-1.88-.46-1.36.91-.92 1.74.55 1.26 1.81-.17.42-.06.85l.55 2.38q.11.46.59.47 1.61.04 2.89-.25.67-.15.47.51-.25.85-.74 1.51-.32.43-.06.9 2.44 4.39 1.04 9.68-.11.44.26.7l1.93 1.32a.51.51 0 0 1 .15.68q-.67 1.13-.59 2.6.03.65.64.41.7-.28 1.09-.96a.88.88 0 0 1 1.55.04q.28.55.78.88.65.45.37-.29-.41-1.05.53-1.64 1.03-.64.41-1.7-1.21-2.07-1.34-4.03-.06-.89.76-.54l.43.18q.71.3.71-.48-.01-.59.07-1.17.07-.53.53-.78.33-.18.68-.09.65.15.79.81l.11.53a.35.35 0 0 0 .54.22l3.63-2.39q.5-.32.26-.86l-.47-1.07a.79.78-25.4 0 1 .37-1.02l1.93-.98q.58-.29.59.36l.06 2.8q.02.59.52.29.59-.35 1.26-.67.5-.24.9.11.56.48.2 1.18-.18.36-.39.69-.45.7.25 1.17 1.07.71.71 1.85-.16.52.03 1.03.62 1.7.13 3.17-.08.26.14.41 1.46.96 1.17 3.11a.68.68 0 0 0 .93.72l.81-.34q.57-.23.97.24.31.38.32.9.01.22.2.34.13.07.3-.02.06-.04.12-.2l1.4-3.96q.54-1.54-1-1-.23.08-.45.2-.63.35-.57-.37c.16-2.27 1.33-2.8 2.13-4.72q.18-.46.64-.27.86.36 1.38 1.25.33.57.48-.06.1-.38-.26-.47a.33.33 0 0 1-.09-.59q.51-.34 1.15-.44a1.29 1.28 77.6 0 0 1.03-1.62q-.5-1.73.41-3.5.7-1.36 1.49-.05.71 1.16 1.82.69a.55.54 74.6 0 1 .74.43l.16 1.28q.06.46.52.53.36.05.57-.26a.31.31 0 0 1 .5-.03q.46.55-.02 1.08-.52.57.05 1.08 2.57 2.33 3.48 5.65.19.7.74.23l3.37-2.88q.38-.33.15-.78-.43-.83-.56-1.76-.08-.55-.56-.84-2.97-1.77-.97-5.55.23-.44.63-.65.33-.17.62-.41.4-.34.4-.86-.01-2.55-.84-4.99-.41-1.22.76-1.76.86-.39 1.2-1.23.15-.35.52-.38.19-.01.36.07.48.24.97.01 1.58-.75 3.13-.01a.55.55 0 0 0 .77-.38q.27-1.25 1.35-.57.64.4.67-.36.1-2.05.98-4.05.63-1.41-.75-.72l-.29.15q-.83.41-.85-.51-.01-.36-.29-.59-.58-.46-.63.28l-.11 1.76q-.01.15-.12.24-.11.08-.25.08-.33 0-.43-.31-1.08-3.03-2.34-5.97-.18-.41-.55-.62-.12-.07-.25-.06-.81.05-.53-.71.59-1.57.7-3.13a1.67 1.67 0 0 1 .37-.96c1.17-1.49 2.33-3 .39-4.65q-.83-.71-.91.39l-.09 1.51q-.05.76-.7.36-.88-.54-2.07-.67a1.39 1.39 0 0 1-1.21-1.68q.64-2.92-.94-3.44a.49.49 0 0 0-.58.24q-.26.51.19.82a.44.43 40 0 1 .06.67q-.74.73-.79 1.76a.43.43 0 0 1-.62.37q-.15-.07-.25-.18-.51-.54-.86.11l-1.13 2.11a.7.69 30.5 0 0 .24.92q.5.33 1.08.48.38.1.61.41.28.38.08.82-.23.53-.82.54l-1.98.02q-.63 0-.97-.53-1.25-1.95-3.73-2.51-.52-.12-.27-.6l1.56-2.9a.9.9 0 0 0-.15-1.05q-1.86-1.93-1.81-4.56a.48.48 0 0 0-.54-.48q-.4.05-.68.33a.37.37 0 0 1-.63-.22q-.18-1.43.07-2.73.07-.4.41-.63l5.26-3.61q.61-.42.08-.94-.34-.35-.82-.48-.85-.24-1-1.11-.56-3.24 1.31-4.24.53-.29.04-.65-.36-.25-.3-.73c.23-1.68 1.2-2.22.76-4.09M175.99 70.9l.14 2.42q.04.58.55.3 2.56-1.42 3.77-3.61M162.73 75.65q.36 1.48 1.96 1.03M219.42 310.23l.56-3.13q.28-1.55-.92-.53-.78.68-1.65.25-.52-.25-.43-.82l.74-4.57q.02-.16-.02-.31l-.07-.24q-.14-.48.31-.68.85-.38.91-1.38.07-1.31.15-2.63.05-.92-.87-1.19-2.42-.73-.26-1.97 2.3-1.33 4.55-2.99.43-.31.45-.84l.07-2.47q.03-.81-.66-.38l-.49.3q-.83.51-.74-.46.24-2.66-1.59-4.32-.38-.34-.28-.84.36-1.65 1.49-3.16.41-.55-.25-.72c-1.3-.35-2.49-1.02-3.3-2.12q-1.2-1.61-3.73-.81-.56.18-.44.75.22 1.07 1.37 1.2a.78.77-73.2 0 1 .6 1.12l-1.07 2.14a.38.38 0 0 1-.53.16l-.42-.24q-.4-.23-.64.17-1.01 1.65-.7 3.02.15.66-.52.54l-.3-.05a.86.86 0 0 1-.72-.85l-.01-3.25q-.01-.71-.71-.77-1.31-.12-2.53-.81-.65-.38-.7.38l-.11 1.73a.43.42-71.8 0 1-.65.33c-3.31-2.08.59-4.39.63-6.83q.03-1.23.66-2.25.39-.61-.34-.58-.36.01-.66-.21-.4-.3-.58-.76l-2.05-5.24q-.58-1.48-1.01.05-.17.61-.08 1.29.09.78-.51.28-.39-.33-.43-.88a.6.6 0 0 0-.7-.55q-.58.09-1.65.82" vector-effect="non-scaling-stroke"/><path d="M294.73 107.08q.42.94 1.95.65M209.45 313.17q-.54-.87-1.76-1.25-.53-.17-.6-.72l-.17-1.51q-.08-.71-.68-.31-1.96 1.31-3.19 2.66-1.38 1.51.06 2.73M161.22 93.41q-.05.42.26.29a.29.29 0 0 0 .01-.52q-.23-.11-.27.23M221.71 289.39q-.05.01-.1-.01-.12-.06-.16.06-.01.05-.03.1-.07.27.16.1.37-.27.13-.25" vector-effect="non-scaling-stroke"/></g><path d="m221.45 70.38-3.13 3.2q-.35.35-.34.84l.04 1.83q.02.77.65.33.28-.19.62-.25.57-.11.91.37l1.32 1.92a.94.89 82.6 0 0 .38.31q1.59.72 1.06 2.56-.78 2.7-1.57 5.05-.08.22.14.32l2 .9q.3.13.34-.19l.22-1.78q.09-.74.75-.39 1.07.57 1.77-.55.96-1.54 1.51.19.49 1.53 1.48 3.03.39.58 1.04.59a.92.92 0 0 0 .85-1.28q-.82-1.91.09-3.46.3-.52-.12-.94-.14-.14-.14-.37.01-.64.53-.26.69.5 1.25-.09.32-.33.26-.79-.25-2.04-1.06-3.64-.31-.62-.99-.5-.29.05-.5.26-.54.54-.7-.21-.53-2.52.61-4.19l9.29-1.17q.46 1.19 1.27 1.57.54.25.66-.33l.27-1.23q3.14-.08 5.78 1.98 3.72 2.9 6.71 5.52-.24 1.93 1.02 4.32.32.6-.25.96-.14.09-.31.1-.83.06-.56.85.77 2.21-.74 4.13a1.16 1.15 58.1 0 0-.22.97q.58 2.68-.39 5.15-.37.96.52.45l.32-.18q.51-.3.89.16.98 1.21 1.11 2.95a.37.37 0 0 0 .55.29q3.26-1.95 1.75-4.97-.6-1.2.3-2.14.53-.56 1.19-.14 1.15.72 2.32 0 .68-.42.72.38.05 1.19.11 2.36.04.77.69.36.21-.13.48-.15.39-.04.76.13l2.09.98q.55.26.87-.26.91-1.5 2.64-2a.4.4 0 0 1 .48.54l-.7 1.73a1.28 1.26 44.7 0 0 .01.98q.88 2.02-.09 4.28-.24.55.07 1.05l.15.24q.43.71-.37.89-.88.2-.52 1.03.31.72.07 1.47l-1.44 4.55q-.21.67.45.89 1.13.38 1.56 1.47.26.66.62.05.76-1.3.57-2.58-.06-.41.16-.77.85-1.35 2.51-1.01.63.12.84.74.48 1.45 1.83 2.17.52.28.82-.22l.93-1.6q.14-.23.42-.21l.54.04a.35.35 0 0 1 .29.5l-.61 1.33q-.33.71.41.99.2.07.4.07.86 0 .59.82c-.5 1.5-1.29 4.87-.81 6.5q.19.63-.25 1.06-.3.31.06.54 1.41.91 2.67 1.22.68.17.42-.49l-.57-1.45q-.29-.76.51-.86.64-.09 1.22.24.44.26.93.16 1.96-.41 2.46-2.09a.54.53-54.3 0 1 .95-.16q2 2.83 1.86 6.16c-.04.74.26 1.36.73 1.91q.49.55-.24.69-.17.03-.15.22.05.71.57.23 1.13-1.06 2.2.04.14.15.34.13.05 0 .09-.03.36-.28-.03-.53-.77-.5-.1-1.13.51-.49-.1-.85-.15-.09-.32-.1-.92-.05-.51-.88.78-1.62 2.14-2.93 1.18-1.15.82-2.68a.68.68 0 0 1 .93-.78l3.88 1.66q.45.19.68-.25l.72-1.43q.31-.6-.36-.68l-1.55-.17a.8.79-66.4 0 1-.51-1.31q1.29-1.5.1-3.06a.85.85 0 0 1-.08-.87l1.04-2.19c.85.42 1.57 1.2 1.6 2.2.11 3.12.94 6 .84 9.11q-.19 5.94-1.58 12.79c-.52 2.54 1.23 4.73 2.59 6.69q.45.65.44 1.44-.06 8.15.04 17.14.05 5.15-1.37 13.16-4.37 24.43-8.07 47.7-.16 1-3.07 17.21-1.55 8.63-2.43 17.33-1.03-.02-1.71-.4-.45-.26-.47-.78l-.22-6.35q-.02-.63-.61-.39-1.28.53-2.95-.82a.95.94-62.6 0 1-.31-.99l1.01-3.41q.3-.99-.7-.76-.17.04-.32.14-.6.44-.95-.22-.78-1.45-.95-3.03-.05-.52.21-.97.69-1.24.64-2.73-.01-.25-.26-.25l-.34.02q-.29.01-.28.3.01.4-.17.77-.24.53-.76.25l-1.57-.87a.92.91-76.5 0 1-.46-.76l-.15-4.19q-.02-.51-.48-.72-.45-.21-.92-.06-.57.17-.18.62l.21.24q.39.45-.09.8-.23.17-.52.19-.59.04-.78.61l-.35 1.01a.87.86-60.5 0 1-1.38.39q-1.18-1-1.68-2.27-.3-.77-.89-.19l-.4.4a.77.76-41.8 0 0-.06 1.03l.99 1.21q.39.48.01.97-.39.51.09.95.53.49-.1.84-.18.1-.37.11-.76.04-.61.78.53 2.61 2.93 2.43.76-.06.57.68-.75 2.83-2.36 5.16c-.73 1.05-.7 2.27-.65 3.5a.35.35 0 0 1-.59.27q-1.1-1.05-2.24-2.13-1.94-1.85-1.58.8.1.81-.5 1.74-.89 1.37-1.02-.26-.01-.16-.1-.31-.46-.72-.75.09-.43 1.23-1.64 1.57a.71.71 0 0 0-.36 1.14q.91 1.1.8 2.5a1 1 0 0 1-.47.75l-1.89 1.14q-.5.31-.25.84l.15.32q.63 1.36-.8.91-1.66-.51-1.21-2.02.11-.37-.03-.73-.41-1.06-.43-2.22-.01-.54-.55-.53-1.54.04-2.98.23-.88.11-.45-.66l.67-1.23q.26-.47.01-.95-2.33-4.66-1.05-9.73.13-.49-.3-.76l-1.75-1.09q-.57-.36-.23-.95.73-1.23.56-2.65-.07-.64-.61-.29-.78.49-1.3 1.19a.78.77-43 0 1-1.27-.04q-.45-.68-1.11-1.05-.52-.29-.22.23.15.26.33.49.16.19 0 .37l-1.12 1.29q-.34.39-.15.87l1.6 4a.7.7 0 0 1-.89.92l-.48-.17q-.6-.22-.69.41l-.21 1.5q-.08.55-.61.73-.25.08-.49-.05-.69-.35-.74-1.12-.01-.17-.08-.32-.27-.54-.71-.14-1.45 1.32-3.5 2.27a.73.73 0 0 0-.34 1.01l.58 1.1a.66.66 0 0 1-.29.9l-1.92.95q-.62.3-.65-.38l-.11-2.43a.51.51 0 0 0-.73-.44l-1.04.49a.79.79 0 0 1-1.01-1.11q.77-1.3-.22-2.29a.82.79-73.2 0 1-.24-.47l-.67-4.33a.72.67 55 0 1 .06-.43q.36-.77-.35-1.18a.96.95 10.8 0 1-.47-.68l-.45-2.75q-.07-.45-.51-.36-.48.1-.86.44a.81.81 0 0 1-1.34-.56q-.03-.48-.37-.81a.3.3 0 0 0-.5.13l-1.35 4.53a.54.54 0 0 0 .79.62l.57-.33q.73-.43.68.42l-.07 1.12a1.57 1.55 70.6 0 1-.49 1.04q-1.13 1.06-1.61 2.49-.21.62-.76.27-.75-.48-1.21-1.26-.04-.06-.11-.1-.21-.11-.37.02-.27.23-.01.48.17.16.39.25.4.17.11.48-.43.48-1.1.65-1.73.46-1.12 1.94c.44 1.05-.29 2.45-.75 3.4q-.29.61-.83.2-.42-.33-.68-.78-.31-.54-.94-.59-.29-.03-.55.09-.68.31-.81-.42l-.24-1.33q-.09-.48-.57-.52-.29-.02-.41.26a.38.38 0 0 1-.71-.05q-.16-.6.25-1.03.39-.4.07-.86-.19-.26-.52-.35a.77.76 79.2 0 1-.42-.29q-1.91-2.58-2.77-5.13-.2-.61-.7-.19l-3.32 2.8q-.47.39-.14.92.5.78.62 1.72a1.17 1.15 14 0 0 .48.78q2.76 1.9 1.17 5.41-.21.45-.66.68-1.61.8-1.2 2.87.41 2.11.96 4.01a.93.92 72.3 0 1-.57 1.12q-.8.29-1.22.94-.31.48-.88.58l-4.48.71q3.24-4.33 2.77-10.06-.54-6.56-1.23-12.9c-.9-8.28-.44-16.72-8.14-22.01q-2.78-1.9-8.9-2.85c-8.28-1.28-16-1.47-23.7-1.27-2.77.07-6.33-1.51-8.72-3.46q-13.77-11.23-18.5-14.65-14.12-10.21-30.89-11.87c-5.1-.5-9.95-1.2-14.24-4.08q-10.61-7.12-10.58-20.17.02-5.44-.34-7.5l.94-3.47q.14-.51.61-.76.49-.26.48-.83c-.03-1.38.81-3.31 1.18-4.66a.91.91 0 0 0-1.25-1.08q-1.83.82-2.12-1.07-.25-1.58-.07-3.52.12-1.26.99-.35.19.2.45.1.34-.14.4-.49.37-2.11 1.42-3.91a1.15 1.15 0 0 0 .12-.87l-.85-3.08 1.1-1.89q1.23.86 1.46 2.65.06.46.52.39 1.15-.17 1.51.91 1.13 3.39 2.2 6.46.25.72.96 1.01.49.19.52-.33l.12-2.2q.04-.84.84-1.11l3.16-1.05q.93-.31.93.67l.02 6.47q0 .66.62.46 1.49-.49 3.11.56a.77.76 22.2 0 1 .33.77c-.25 1.29-1.11 2.92-1.01 4.15q.06.8.75.41l.4-.23q.6-.33.82.32l.94 2.81q.17.51-.09.98-.76 1.39-.7 3.04.01.26.27.22l.25-.03a.26.26 0 0 0 .22-.29q-.05-.47.16-.9a.54.54 0 0 1 .82-.19q.74.58 1.63.89.57.19.56.79l-.06 3.97a.99.97 29.5 0 0 .15.52q.53.85 1.1.62.58-.23.34-.8l-.24-.54a.3.3 0 0 1 .17-.39q1.32-.53 1.65-1.86a.77.76 16.4 0 1 .99-.54q1.65.55 1.87 2.38a.42.41-5.8 0 0 .45.36q.62-.05.96-.62a.79.78 44.7 0 0-.01-.84q-1.05-1.65-1-3.74 0-.37.35-.49l.38-.13q.45-.16.37-.63-.47-2.69-2.92-2.28a.45.45 0 0 1-.52-.53q.57-2.99 2.25-5.28c.77-1.05.68-2.13.67-3.37q0-1.3.93-.39 1.09 1.06 2.1 2.13.49.52 1.2.54.56.02.42-.52-.41-1.54.61-3.13.25-.4.57-.05.32.34.13.82-.12.29.08.52.1.1.31.01.27-.12.34-.41.27-1.09 1.39-1.42 1.49-.43.55-1.66-.79-1.05-.6-2.21.16-.93 1.23-1.18 1.67-.4 1.16-1.88-.46-1.36.91-.92 1.74.55 1.26 1.81-.17.42-.06.85l.55 2.38q.11.46.59.47 1.61.04 2.89-.25.67-.15.47.51-.25.85-.74 1.51-.32.43-.06.9 2.44 4.39 1.04 9.68-.11.44.26.7l1.93 1.32a.51.51 0 0 1 .15.68q-.67 1.13-.59 2.6.03.65.64.41.7-.28 1.09-.96a.88.88 0 0 1 1.55.04q.28.55.78.88.65.45.37-.29-.41-1.05.53-1.64 1.03-.64.41-1.7-1.21-2.07-1.34-4.03-.06-.89.76-.54l.43.18q.71.3.71-.48-.01-.59.07-1.17.07-.53.53-.78.33-.18.68-.09.65.15.79.81l.11.53a.35.35 0 0 0 .54.22l3.63-2.39q.5-.32.26-.86l-.47-1.07a.79.78-25.4 0 1 .37-1.02l1.93-.98q.58-.29.59.36l.06 2.8q.02.59.52.29.59-.35 1.26-.67.5-.24.9.11.56.48.2 1.18-.18.36-.39.69-.45.7.25 1.17 1.07.71.71 1.85-.16.52.03 1.03.62 1.7.13 3.17-.08.26.14.41 1.46.96 1.17 3.11a.68.68 0 0 0 .93.72l.81-.34q.57-.23.97.24.31.38.32.9.01.22.2.34.13.07.3-.02.06-.04.12-.2l1.4-3.96q.54-1.54-1-1-.23.08-.45.2-.63.35-.57-.37c.16-2.27 1.33-2.8 2.13-4.72q.18-.46.64-.27.86.36 1.38 1.25.33.57.48-.06.1-.38-.26-.47a.33.33 0 0 1-.09-.59q.51-.34 1.15-.44a1.29 1.28 77.6 0 0 1.03-1.62q-.5-1.73.41-3.5.7-1.36 1.49-.05.71 1.16 1.82.69a.55.54 74.6 0 1 .74.43l.16 1.28q.06.46.52.53.36.05.57-.26a.31.31 0 0 1 .5-.03q.46.55-.02 1.08-.52.57.05 1.08 2.57 2.33 3.48 5.65.19.7.74.23l3.37-2.88q.38-.33.15-.78-.43-.83-.56-1.76-.08-.55-.56-.84-2.97-1.77-.97-5.55.23-.44.63-.65.33-.17.62-.41.4-.34.4-.86-.01-2.55-.84-4.99-.41-1.22.76-1.76.86-.39 1.2-1.23.15-.35.52-.38.19-.01.36.07.48.24.97.01 1.58-.75 3.13-.01a.55.55 0 0 0 .77-.38q.27-1.25 1.35-.57.64.4.67-.36.1-2.05.98-4.05.63-1.41-.75-.72l-.29.15q-.83.41-.85-.51-.01-.36-.29-.59-.58-.46-.63.28l-.11 1.76q-.01.15-.12.24-.11.08-.25.08-.33 0-.43-.31-1.08-3.03-2.34-5.97-.18-.41-.55-.62-.12-.07-.25-.06-.81.05-.53-.71.59-1.57.7-3.13a1.67 1.67 0 0 1 .37-.96c1.17-1.49 2.33-3 .39-4.65q-.83-.71-.91.39l-.09 1.51q-.05.76-.7.36-.88-.54-2.07-.67a1.39 1.39 0 0 1-1.21-1.68q.64-2.92-.94-3.44a.49.49 0 0 0-.58.24q-.26.51.19.82a.44.43 40 0 1 .06.67q-.74.73-.79 1.76a.43.43 0 0 1-.62.37q-.15-.07-.25-.18-.51-.54-.86.11l-1.13 2.11a.7.69 30.5 0 0 .24.92q.5.33 1.08.48.38.1.61.41.28.38.08.82-.23.53-.82.54l-1.98.02q-.63 0-.97-.53-1.25-1.95-3.73-2.51-.52-.12-.27-.6l1.56-2.9a.9.9 0 0 0-.15-1.05q-1.86-1.93-1.81-4.56a.48.48 0 0 0-.54-.48q-.4.05-.68.33a.37.37 0 0 1-.63-.22q-.18-1.43.07-2.73.07-.4.41-.63l5.26-3.61q.61-.42.08-.94-.34-.35-.82-.48-.85-.24-1-1.11-.56-3.24 1.31-4.24.53-.29.04-.65-.36-.25-.3-.73c.23-1.68 1.2-2.22.76-4.09q1.43.95 3.05.92c3.56-.08 4.01-5.62 7.11-7.25l.14 2.42q.04.58.55.3 2.56-1.42 3.77-3.61 1.25-.11 4.06.99c2.21.86 5.07.41 7.29-.61 4.26-1.97 9.28-2 14.05-1.79 2.91.13 4.79-1.49 7.55-1.48q.55 0 1.02.3 3.25 2.11 7.03 2.96m-60.23 23.03q-.05.42.26.29a.29.29 0 0 0 .01-.52q-.23-.11-.27.23"/><path fill="#ec5fc1" d="M180.45 70.01q-1.21 2.19-3.77 3.61-.51.28-.55-.3l-.14-2.42q1.66-1.47 4.46-.89M221.45 70.38l9.27 2.81q-1.14 1.67-.61 4.19.16.75.7.21.21-.21.5-.26.68-.12.99.5.81 1.6 1.06 3.64.06.46-.26.79-.56.59-1.25.09-.52-.38-.53.26 0 .23.14.37.42.42.12.94-.91 1.55-.09 3.46a.92.92 0 0 1-.85 1.28q-.65-.01-1.04-.59-.99-1.5-1.48-3.03-.55-1.73-1.51-.19-.7 1.12-1.77.55-.66-.35-.75.39l-.22 1.78q-.04.32-.34.19l-2-.9q-.22-.1-.14-.32.79-2.35 1.57-5.05.53-1.84-1.06-2.56a.94.89 82.6 0 1-.38-.31l-1.32-1.92q-.34-.48-.91-.37-.34.06-.62.25-.63.44-.65-.33l-.04-1.83q-.01-.49.34-.84zM242.21 72.03l-.27 1.23q-.12.58-.66.33-.81-.38-1.27-1.57zM162.73 75.65q.36 1.48 1.96 1.03l1.14.55c.44 1.87-.53 2.41-.76 4.09q-.06.48.3.73.49.36-.04.65-1.87 1-1.31 4.24.15.87 1 1.11.48.13.82.48.53.52-.08.94l-5.26 3.61q-.34.23-.41.63-.25 1.3-.07 2.73a.37.37 0 0 0 .63.22q.28-.28.68-.33a.48.48 0 0 1 .54.48q-.05 2.63 1.81 4.56a.9.9 0 0 1 .15 1.05l-1.56 2.9q-.25.48.27.6 2.48.56 3.73 2.51.34.53.97.53l1.98-.02q.59-.01.82-.54.2-.44-.08-.82-.23-.31-.61-.41-.58-.15-1.08-.48a.7.69 30.5 0 1-.24-.92l1.13-2.11q.35-.65.86-.11.1.11.25.18a.43.43 0 0 0 .62-.37q.05-1.03.79-1.76a.44.43 40 0 0-.06-.67q-.45-.31-.19-.82a.49.49 0 0 1 .58-.24q1.58.52.94 3.44a1.39 1.39 0 0 0 1.21 1.68q1.19.13 2.07.67.65.4.7-.36l.09-1.51q.08-1.1.91-.39c1.94 1.65.78 3.16-.39 4.65a1.67 1.67 0 0 0-.37.96q-.11 1.56-.7 3.13-.28.76.53.71.13-.01.25.06.37.21.55.62 1.26 2.94 2.34 5.97.1.31.43.31.14 0 .25-.08.11-.09.12-.24l.11-1.76q.05-.74.63-.28.28.23.29.59.02.92.85.51l.29-.15q1.38-.69.75.72-.88 2-.98 4.05-.03.76-.67.36-1.08-.68-1.35.57a.55.55 0 0 1-.77.38q-1.55-.74-3.13.01-.49.23-.97-.01-.17-.08-.36-.07-.37.03-.52.38-.34.84-1.2 1.23-1.17.54-.76 1.76.83 2.44.84 4.99 0 .52-.4.86-.29.24-.62.41-.4.21-.63.65-2 3.78.97 5.55.48.29.56.84.13.93.56 1.76.23.45-.15.78l-3.37 2.88q-.55.47-.74-.23-.91-3.32-3.48-5.65-.57-.51-.05-1.08.48-.53.02-1.08a.31.31 0 0 0-.5.03q-.21.31-.57.26-.46-.07-.52-.53l-.16-1.28a.55.54 74.6 0 0-.74-.43q-1.11.47-1.82-.69-.79-1.31-1.49.05-.91 1.77-.41 3.5a1.29 1.28 77.6 0 1-1.03 1.62q-.64.1-1.15.44a.33.33 0 0 0 .09.59q.36.09.26.47-.15.63-.48.06-.52-.89-1.38-1.25-.46-.19-.64.27c-.8 1.92-1.97 2.45-2.13 4.72q-.06.72.57.37.22-.12.45-.2 1.54-.54 1 1l-1.4 3.96q-.06.16-.12.2-.17.09-.3.02-.19-.12-.2-.34-.01-.52-.32-.9-.4-.47-.97-.24l-.81.34a.68.68 0 0 1-.93-.72q.29-2.15-1.17-3.11-.22-.15-.14-.41.49-1.47-.13-3.17-.19-.51-.03-1.03.36-1.14-.71-1.85-.7-.47-.25-1.17.21-.33.39-.69.36-.7-.2-1.18-.4-.35-.9-.11-.67.32-1.26.67-.5.3-.52-.29l-.06-2.8q-.01-.65-.59-.36l-1.93.98a.79.78-25.4 0 0-.37 1.02l.47 1.07q.24.54-.26.86l-3.63 2.39a.35.35 0 0 1-.54-.22l-.11-.53q-.14-.66-.79-.81-.35-.09-.68.09-.46.25-.53.78-.08.58-.07 1.17 0 .78-.71.48l-.43-.18q-.82-.35-.76.54.13 1.96 1.34 4.03.62 1.06-.41 1.7-.94.59-.53 1.64.28.74-.37.29-.5-.33-.78-.88a.88.88 0 0 0-1.55-.04q-.39.68-1.09.96-.61.24-.64-.41-.08-1.47.59-2.6a.51.51 0 0 0-.15-.68l-1.93-1.32q-.37-.26-.26-.7 1.4-5.29-1.04-9.68-.26-.47.06-.9.49-.66.74-1.51.2-.66-.47-.51-1.28.29-2.89.25-.48-.01-.59-.47l-.55-2.38q-.11-.43.06-.85.48-1.26-1.26-1.81-1.37-.44-.91.92.51 1.48-1.16 1.88-1.07.25-1.23 1.18-.19 1.16.6 2.21.94 1.23-.55 1.66-1.12.33-1.39 1.42-.07.29-.34.41-.21.09-.31-.01-.2-.23-.08-.52.19-.48-.13-.82-.32-.35-.57.05-1.02 1.59-.61 3.13.14.54-.42.52-.71-.02-1.2-.54-1.01-1.07-2.1-2.13-.93-.91-.93.39c.01 1.24.1 2.32-.67 3.37q-1.68 2.29-2.25 5.28a.45.45 0 0 0 .52.53q2.45-.41 2.92 2.28.08.47-.37.63l-.38.13q-.35.12-.35.49-.05 2.09 1 3.74a.79.78 44.7 0 1 .01.84q-.34.57-.96.62a.42.41-5.8 0 1-.45-.36q-.22-1.83-1.87-2.38a.77.76 16.4 0 0-.99.54q-.33 1.33-1.65 1.86a.3.3 0 0 0-.17.39l.24.54q.24.57-.34.8-.57.23-1.1-.62a.99.97 29.5 0 1-.15-.52l.06-3.97q.01-.6-.56-.79-.89-.31-1.63-.89a.54.54 0 0 0-.82.19q-.21.43-.16.9a.26.26 0 0 1-.22.29l-.25.03q-.26.04-.27-.22-.06-1.65.7-3.04.26-.47.09-.98l-.94-2.81q-.22-.65-.82-.32l-.4.23q-.69.39-.75-.41c-.1-1.23.76-2.86 1.01-4.15a.77.76 22.2 0 0-.33-.77q-1.62-1.05-3.11-.56-.62.2-.62-.46l-.02-6.47q0-.98-.93-.67l-3.16 1.05q-.8.27-.84 1.11l-.12 2.2q-.03.52-.52.33-.71-.29-.96-1.01-1.07-3.07-2.2-6.46-.36-1.08-1.51-.91-.46.07-.52-.39-.23-1.79-1.46-2.65 1.62-3.08 3.49-6.19 4.13-6.85 11.97-8.68 14.14-3.3 27.75-7.02c9.63-2.63 18.66-7.84 21.77-17.77q.4-1.3 1.44-6.03.11-.5.5-.83 5.52-4.74 12.08-.19"/><path d="M164.69 76.68q-1.6.45-1.96-1.03 1.01.31 1.96 1.03"/><path fill="#ec5fc1" d="M254.7 79.53q4.19 2.4 8.22 3.11 8.23 1.45 16.82 2.85c2.27.37 4.38 2.19 4.24 4.64q-.23 4.27 1.05 8.91c1.43 5.21 5.5 5.97 9.7 8.04q.42.94 1.95.65l3.61 1.78-1.04 2.19a.85.85 0 0 0 .08.87q1.19 1.56-.1 3.06a.8.79-66.4 0 0 .51 1.31l1.55.17q.67.08.36.68l-.72 1.43q-.23.44-.68.25l-3.88-1.66a.68.68 0 0 0-.93.78q.36 1.53-.82 2.68-1.36 1.31-2.14 2.93-.41.83.51.88.17.01.32.1.61.36.1.85-.67.63.1 1.13.39.25.03.53-.04.03-.09.03-.2.02-.34-.13-1.07-1.1-2.2-.04-.52.48-.57-.23-.02-.19.15-.22.73-.14.24-.69c-.47-.55-.77-1.17-.73-1.91q.14-3.33-1.86-6.16a.54.53-54.3 0 0-.95.16q-.5 1.68-2.46 2.09-.49.1-.93-.16-.58-.33-1.22-.24-.8.1-.51.86l.57 1.45q.26.66-.42.49-1.26-.31-2.67-1.22-.36-.23-.06-.54.44-.43.25-1.06c-.48-1.63.31-5 .81-6.5q.27-.82-.59-.82-.2 0-.4-.07-.74-.28-.41-.99l.61-1.33a.35.35 0 0 0-.29-.5l-.54-.04q-.28-.02-.42.21l-.93 1.6q-.3.5-.82.22-1.35-.72-1.83-2.17-.21-.62-.84-.74-1.66-.34-2.51 1.01-.22.36-.16.77.19 1.28-.57 2.58-.36.61-.62-.05-.43-1.09-1.56-1.47-.66-.22-.45-.89l1.44-4.55q.24-.75-.07-1.47-.36-.83.52-1.03.8-.18.37-.89l-.15-.24q-.31-.5-.07-1.05.97-2.26.09-4.28a1.28 1.26 44.7 0 1-.01-.98l.7-1.73a.4.4 0 0 0-.48-.54q-1.73.5-2.64 2-.32.52-.87.26l-2.09-.98q-.37-.17-.76-.13-.27.02-.48.15-.65.41-.69-.36-.06-1.17-.11-2.36-.04-.8-.72-.38-1.17.72-2.32 0-.66-.42-1.19.14-.9.94-.3 2.14 1.51 3.02-1.75 4.97a.37.37 0 0 1-.55-.29q-.13-1.74-1.11-2.95-.38-.46-.89-.16l-.32.18q-.89.51-.52-.45.97-2.47.39-5.15a1.16 1.15 58.1 0 1 .22-.97q1.51-1.92.74-4.13-.27-.79.56-.85.17-.01.31-.1.57-.36.25-.96-1.26-2.39-1.02-4.32M161.22 93.41q.04-.34.27-.23a.29.29 0 0 1-.01.52q-.31.13-.26-.29"/><path d="M296.68 107.73q-1.53.29-1.95-.65 1.15-.14 1.95.65"/><path fill="#ec5fc1" d="m82.63 124.25.85 3.08a1.15 1.15 0 0 1-.12.87q-1.05 1.8-1.42 3.91-.06.35-.4.49-.26.1-.45-.1-.87-.91-.99.35-.18 1.94.07 3.52.29 1.89 2.12 1.07a.91.91 0 0 1 1.25 1.08c-.37 1.35-1.21 3.28-1.18 4.66q.01.57-.48.83-.47.25-.61.76l-.94 3.47c-1.12-3.06-2.59-6.27-2.52-9.45q.04-2.06-.05-4.29-.08-1.93.97-3.92 1.73-3.28 3.9-6.33M289.28 254.28q-.76 5.79.52 10.97c1 4.07-.69 5.8-4.17 7.77-6.54 3.71-12.34 7.13-18.97 11.59q-5.07 3.42-12.82 8.45-16.64 10.79-34.42 17.17l.56-3.13q.28-1.55-.92-.53-.78.68-1.65.25-.52-.25-.43-.82l.74-4.57q.02-.16-.02-.31l-.07-.24q-.14-.48.31-.68.85-.38.91-1.38.07-1.31.15-2.63.05-.92-.87-1.19-2.42-.73-.26-1.97 2.3-1.33 4.55-2.99.43-.31.45-.84l.07-2.47q.03-.81-.66-.38l-.49.3q-.83.51-.74-.46.24-2.66-1.59-4.32-.38-.34-.28-.84.36-1.65 1.49-3.16.41-.55-.25-.72c-1.3-.35-2.49-1.02-3.3-2.12q-1.2-1.61-3.73-.81-.56.18-.44.75.22 1.07 1.37 1.2a.78.77-73.2 0 1 .6 1.12l-1.07 2.14a.38.38 0 0 1-.53.16l-.42-.24q-.4-.23-.64.17-1.01 1.65-.7 3.02.15.66-.52.54l-.3-.05a.86.86 0 0 1-.72-.85l-.01-3.25q-.01-.71-.71-.77-1.31-.12-2.53-.81-.65-.38-.7.38l-.11 1.73a.43.42-71.8 0 1-.65.33c-3.31-2.08.59-4.39.63-6.83q.03-1.23.66-2.25.39-.61-.34-.58-.36.01-.66-.21-.4-.3-.58-.76l-2.05-5.24q-.58-1.48-1.01.05-.17.61-.08 1.29.09.78-.51.28-.39-.33-.43-.88a.6.6 0 0 0-.7-.55q-.58.09-1.65.82l4.21-5.87 4.48-.71q.57-.1.88-.58.42-.65 1.22-.94a.93.92 72.3 0 0 .57-1.12q-.55-1.9-.96-4.01-.41-2.07 1.2-2.87.45-.23.66-.68 1.59-3.51-1.17-5.41a1.17 1.15 14 0 1-.48-.78q-.12-.94-.62-1.72-.33-.53.14-.92l3.32-2.8q.5-.42.7.19.86 2.55 2.77 5.13a.77.76 79.2 0 0 .42.29q.33.09.52.35.32.46-.07.86-.41.43-.25 1.03a.38.38 0 0 0 .71.05q.12-.28.41-.26.48.04.57.52l.24 1.33q.13.73.81.42.26-.12.55-.09.63.05.94.59.26.45.68.78.54.41.83-.2c.46-.95 1.19-2.35.75-3.4q-.61-1.48 1.12-1.94.67-.17 1.1-.65.29-.31-.11-.48-.22-.09-.39-.25-.26-.25.01-.48.16-.13.37-.02.07.04.11.1.46.78 1.21 1.26.55.35.76-.27.48-1.43 1.61-2.49a1.57 1.55 70.6 0 0 .49-1.04l.07-1.12q.05-.85-.68-.42l-.57.33a.54.54 0 0 1-.79-.62l1.35-4.53a.3.3 0 0 1 .5-.13q.34.33.37.81a.81.81 0 0 0 1.34.56q.38-.34.86-.44.44-.09.51.36l.45 2.75a.96.95 10.8 0 0 .47.68q.71.41.35 1.18a.72.67 55 0 0-.06.43l.67 4.33a.82.79-73.2 0 0 .24.47q.99.99.22 2.29a.79.79 0 0 0 1.01 1.11l1.04-.49a.51.51 0 0 1 .73.44l.11 2.43q.03.68.65.38l1.92-.95a.66.66 0 0 0 .29-.9l-.58-1.1a.73.73 0 0 1 .34-1.01q2.05-.95 3.5-2.27.44-.4.71.14.07.15.08.32.05.77.74 1.12.24.13.49.05.53-.18.61-.73l.21-1.5q.09-.63.69-.41l.48.17a.7.7 0 0 0 .89-.92l-1.6-4q-.19-.48.15-.87l1.12-1.29q.16-.18 0-.37-.18-.23-.33-.49-.3-.52.22-.23.66.37 1.11 1.05a.78.77-43 0 0 1.27.04q.52-.7 1.3-1.19.54-.35.61.29.17 1.42-.56 2.65-.34.59.23.95l1.75 1.09q.43.27.3.76-1.28 5.07 1.05 9.73.25.48-.01.95l-.67 1.23q-.43.77.45.66 1.44-.19 2.98-.23.54-.01.55.53.02 1.16.43 2.22.14.36.03.73-.45 1.51 1.21 2.02 1.43.45.8-.91l-.15-.32q-.25-.53.25-.84l1.89-1.14a1 1 0 0 0 .47-.75q.11-1.4-.8-2.5a.71.71 0 0 1 .36-1.14q1.21-.34 1.64-1.57.29-.81.75-.09.09.15.1.31.13 1.63 1.02.26.6-.93.5-1.74-.36-2.65 1.58-.8 1.14 1.08 2.24 2.13a.35.35 0 0 0 .59-.27c-.05-1.23-.08-2.45.65-3.5q1.61-2.33 2.36-5.16.19-.74-.57-.68-2.4.18-2.93-2.43-.15-.74.61-.78.19-.01.37-.11.63-.35.1-.84-.48-.44-.09-.95.38-.49-.01-.97l-.99-1.21a.77.76-41.8 0 1 .06-1.03l.4-.4q.59-.58.89.19.5 1.27 1.68 2.27a.87.86-60.5 0 0 1.38-.39l.35-1.01q.19-.57.78-.61.29-.02.52-.19.48-.35.09-.8l-.21-.24q-.39-.45.18-.62.47-.15.92.06.46.21.48.72l.15 4.19a.92.91-76.5 0 0 .46.76l1.57.87q.52.28.76-.25.18-.37.17-.77-.01-.29.28-.3l.34-.02q.25 0 .26.25.05 1.49-.64 2.73-.26.45-.21.97.17 1.58.95 3.03.35.66.95.22.15-.1.32-.14 1-.23.7.76l-1.01 3.41a.95.94-62.6 0 0 .31.99q1.67 1.35 2.95.82.59-.24.61.39l.22 6.35q.02.52.47.78.68.38 1.71.4"/><path d="m219.42 310.23-9.97 2.94q-.54-.87-1.76-1.25-.53-.17-.6-.72l-.17-1.51q-.08-.71-.68-.31-1.96 1.31-3.19 2.66-1.38 1.51.06 2.73l-9.11.07q-.52.01-.8-.43-1.67-2.55-2.75-4.85-.87-1.85.03-5.33 1.48-5.78 3.11-11.16 2.69-8.93 5-28.14 1.07-.73 1.65-.82a.6.6 0 0 1 .7.55q.04.55.43.88.6.5.51-.28-.09-.68.08-1.29.43-1.53 1.01-.05l2.05 5.24q.18.46.58.76.3.22.66.21.73-.03.34.58-.63 1.02-.66 2.25c-.04 2.44-3.94 4.75-.63 6.83a.43.42-71.8 0 0 .65-.33l.11-1.73q.05-.76.7-.38 1.22.69 2.53.81.7.06.71.77l.01 3.25a.86.86 0 0 0 .72.85l.3.05q.67.12.52-.54-.31-1.37.7-3.02.24-.4.64-.17l.42.24a.38.38 0 0 0 .53-.16l1.07-2.14a.78.77-73.2 0 0-.6-1.12q-1.15-.13-1.37-1.2-.12-.57.44-.75 2.53-.8 3.73.81c.81 1.1 2 1.77 3.3 2.12q.66.17.25.72-1.13 1.51-1.49 3.16-.1.5.28.84 1.83 1.66 1.59 4.32-.09.97.74.46l.49-.3q.69-.43.66.38l-.07 2.47q-.02.53-.45.84-2.25 1.66-4.55 2.99-2.16 1.24.26 1.97.92.27.87 1.19-.08 1.32-.15 2.63-.06 1-.91 1.38-.45.2-.31.68l.07.24q.04.15.02.31l-.74 4.57q-.09.57.43.82.87.43 1.65-.25 1.2-1.02.92.53zm2.29-20.84q-.05.01-.1-.01-.12-.06-.16.06-.01.05-.03.1-.07.27.16.1.37-.27.13-.25"/><path fill="#ec5fc1" d="M221.71 289.39q.24-.02-.13.25-.23.17-.16-.1.02-.05.03-.1.04-.12.16-.06.05.02.1.01M209.45 313.17q-3.05 2.19-6.34 1.6-1.44-1.22-.06-2.73 1.23-1.35 3.19-2.66.6-.4.68.31l.17 1.51q.07.55.6.72 1.22.38 1.76 1.25"/></svg>