<svg xmlns="http://www.w3.org/2000/svg" viewBox="0 0 382 382"><g fill="none" stroke="#451571" stroke-width="2"><path d="M220.62 70.11q-.69 3.07-3.1 4.82-.4.29-.62-.15l-.13-.27q-.13-.27-.4-.12-.14.07-.12.22.02.11.1.18 1.27 1.12-.01 2.48-.19.21 0 .42l.17.19q.04.05.09 0 .74-.78 1.5-1.5a.61.6-50.7 0 1 .73-.08q1.27.77.53 1.88-.22.34.03.67.42.56 1.02.78.56.21.89-.29.22-.33.66 0a.5.49-64.3 0 1 .18.53q-.77 2.89-2.41 5.8-.24.43-.17.93l.56 3.61q.2 1.35.85.15.93-1.76 1.11-3.63a.8.79 21.8 0 1 1.29-.55q1.51 1.19 2.87.27.45-.3.67.2c1.3 2.95.95 4.77 4.45 6.06q.58.21.3-.34l-1.21-2.49q-.31-.62-.12-1.28l.84-2.91q.17-.58.77-.61 1.51-.09 2.59-1.08.55-.51-.17-.73-.48-.15-.84-.5-.45-.44-.44-1.05.02-1.71-.89-3.02-.83-1.21-1.08.24-.06.38-.28.68-.61.84-.74-.19c-.2-1.57-.08-3.07.51-4.6q.3-.8.26-1.58M239.07 72.14q-.06 1.9 1.18 2.41.49.2.9-.14 1-.84.75-2.33M244.27 72.23q-.15.69-.09 1.06.1.53.53.19.68-.55 2.16-.21M255.27 79.95q-1.49 1.4.2 4.42.32.58-.24.93l-1.49.94q-.4.24-.18.66 1.29 2.54-1.16 3.47a.66.65 60.1 0 0-.27 1.03l1.85 2.3a.66.66 0 0 1-.34 1.05q-1.81.46-2.22 2.77-.11.61.49.47.66-.15 1.21-.55a.87.86 59.8 0 1 1.28.34q.77 1.65.64 3.66-.05.78.52.25.34-.32.46-.79.17-.65.83-.76l1.25-.21q.7-.12.87-.81.59-2.54-1.15-3.21-1.35-.51.04-.91.97-.28 1.12-1.25.06-.42.48-.36 2.16.36 3.34 1.51c1.06 1.04 2.23 1.67 3.35 2.62q.56.48.8-.21.52-1.46 2.52-2.15a.52.52 0 0 1 .67.64l-.96 3.14q-.16.54.22.94l.81.84q.41.43.24.99l-2.91 9.55q-.17.56.26.96 1.25 1.18 1.28 3 .01.32.27.5.15.1.32.05.28-.08.33-.35.22-1.08 1.05-1.82a1.55 1.53 66.6 0 0 .51-1.31q-.02-.28-.15-.53-.28-.59.36-.69 1.78-.29 2.26 1.06.14.39.56.36l3.66-.27q.52-.04.77.42 1.8 3.25-.07 6.66-.34.63-.36 1.35-.05 1.48-1.1 2.6-.39.42.17.55 1.34.31 1.4 1.75.09 2.36 1.22.29.77-1.39.97-3.03.06-.51.57-.64 1.78-.46 3.48.42.5.26.64-.29.31-1.26 1.32-2.03.57-.43.75.26c.26 1.05.62 1.73.66 2.85q.13 3.2.87 6.15.12.49-.19.88-.35.45-.28 1.03.05.44.43.22 1.42-.85 2.26.73.21.39.66.43a.24.24 0 0 0 .23-.36q-.53-.87.01-1.77a1.7 1.7 0 0 0 .18-1.36c-1.03-3.47 1.85-4.61 2.29-7.74a.8.8 0 0 1 1.37-.44c1.2 1.25 4.56 4.84 5.95 1.62M289.2 253.8q-2.01-2.65-.76-5.88.67-1.71-.84-2.5-.37-.19-.27.21.07.3.32.43.59.31.09.76-.4.36-.84.18-.3-.12-.49-.38-.34-.43-.58-.93a1.31 1.27-3.5 0 0-.78-.67q-1.25-.41-1.1-1.74c.11-.99.91-1.74 1.57-2.45q1.55-1.65-.67-1.35-1.19.16-2.4-.75a1.39 1.39 0 0 1-.4-1.73q.82-1.6 1.04-3.31a.31.3 81.7 0 0-.42-.32q-1.84.81-3.03-1.36-.23-.43-.07-.89.45-1.33.48-2.78.09-4.34-1.95-.51-.8 1.5-2.59 1.88-.57.12-.84-.4l-.97-1.89q-.24-.48-.78-.4l-.38.05q-.6.09-.49.69.16.88.63 1.58.27.4.12.86l-1.06 3.08q-.19.55-.72.77l-.4.17q-.62.26-.21.79 1.63 2.08 3.83 2.1a.87.87 0 0 1 .6 1.49q-1.29 1.27-.3 2.63.29.4-.2.49-.69.13-1.04.75-.97 1.69-1.37 3.38-.42 1.7-1.41.26-1.11-1.62-2.59-2.12-.76-.25-.53.51.44 1.47-.57 3.02-.56.86-.75-.15l-.13-.67q-.18-.99-.68-.11l-.48.86q-.26.46-.77.58-.6.14-.87.67-.22.43.07.81.84 1.09.73 2.53-.05.57-.59.75-1.94.65-2.54 2.69-.19.63-.73.26c-1.34-.9-1.12-3.43-1.15-4.84q-.02-.96-.82-.43-.63.42-1.25.02-.68-.44-1.1.25-.03.04-.09.04-1.01.03-.25-.65.34-.31.56-.66a1.28 1.26 53.2 0 0 .14-1.03q-.87-2.97-.9-5.75-.01-.59-.33-1.09-.8-1.23-.44-2.67.18-.73-.36-1.24-2-1.9.26-3.63a.74.74 0 0 0 .22-.9q-.16-.35-.6-.63-.37-.24-.75-.03-2.26 1.27-3.22-1.44-.65-1.82-1.03.07-.16.81-.14 1.68.02.96-.9 1.3-.53.19-.31.71.46 1.12.44 2.32-.02.9.75.45l.38-.22q.54-.32.81.24.07.14.05.29-.05.56-.48.91-1.9 1.52-2.85 3.76a.43.43 0 0 1-.71.13q-.85-.91-1.07-2.03-.18-.91-.82-.23-.12.13-.1.29.1.82-.7.68-1.71-.31-2.83 1.67-.26.46.03.9.28.44.4.94.15.6-.42.86l-1.99.92a.26.26 0 0 1-.37-.2c-.13-.86-.16-1.49-.8-2.15q-2.49-2.55-2.15-6.47.04-.46-.29-.79-.57-.57-.1-1.25.36-.54.19-1.16l-.72-2.71q-.14-.51.17-.93.4-.56.47-1.25.08-.71-.56-.38l-.88.46q-.63.32-1.21-.1-1.19-.88-1.56-2.41-.04-.17-.21-.13l-.26.06a.33.32 79.1 0 0-.24.36q.45 2.74-1.37 3.65-.51.25-.14.68.54.63.6 1.41.07.78.69.29l.49-.4a.46.44 44.9 0 1 .57.01q.22.18.21.48-.01.51-.38.86-1.73 1.61-1.76 3.72-.01.72-.62.34-.75-.48-1.29-1.27a.44.44 0 0 0-.79.13q-.33 1.29-1.74 1.71-1.24.37-.93 1.62.43 1.77-.56 3.66-.23.44-.64.18-2.9-1.79-4.39-4.43c-.63-1.11-.3-2.09-1.2-3.11q-.39-.43-.26-.98l.19-.81q.17-.72-.45-1.13-1.81-1.19-.77-3.34.31-.64-.11-1.22l-.2-.27q-.43-.6-.78.05-.81 1.54-2.73 2.21-.46.16-.73-.24-.81-1.17-2.1-1.43-.9-.18-.48.63.43.82 1.11 1.45a.62.62 0 0 1 .01.89q-.6.57-.02 1.09.47.41.05.88l-.95 1.06q-.34.38.05.73 1.49 1.31 2.93.59.77-.38.55.45l-.8 3.14a1.13 1.12-54.9 0 0 .15.89q.34.5.44 1.09.11.67-.55.86-2.22.63-2.89 3.53-.27 1.16.23 2.47.5 1.32 1.07 2.52.31.66-.42.71-.71.04-1.2-.41-.51-.46-.89.11-.84 1.23-1.62 1.63M79.35 145.32q.61-1.3 1.86-.86.61.22.75-.42.44-2.11 1.44-4.37a1.27 1.26 44.7 0 0-.01-1.02q-1.64-3.58-2.51-.02a.32.31 2.6 0 1-.26.23l-.34.03q-.37.04-.32-.32.28-2.17-.56-3.93-.25-.53.25-.85l1.61-1.02q.6-.38.16-.93-.6-.74.05-1.34.4-.37.86-.69 1.98-1.41-.89-3.71M83.53 122.73l.6 2.52q.14.61.68.29.99-.58 1.71.49.29.43.09.9-.37.88.6 1.11.76.19.26.79-.37.44-.09.94.24.44.16.94-.29 1.75 1.72 3 .75.46.75-.42l.03-2.52q0-.66.66-.73 1.27-.15 2.31.39a1.16 1.15 45.3 0 0 1.06.01l.41-.21a.34.34 0 0 1 .49.27q.25 2.83-.64 5.28-.17.48.03.95.28.68.95 1.01.55.27.39-.32-.07-.28-.26-.51-.43-.52.17-.84.22-.11.49.04.66.36.93 1.06.24.65.96.82a1.68 1.57-58.7 0 1 .58 2.8q-1.11 1.03-1.55 2.41-.25.78.51.48 1.61-.64 3.17.72.42.36.3.9c-.27 1.16-1.18 2.88-.99 4.03q.1.59.63.33l.48-.24q.56-.28.99.16l1.35 1.38q.33.33.15.75-.88 2.12-.54 4.84a.36.36 0 0 0 .58.23q1.03-.84 1.59-2.11a1.99 1.99 0 0 1 3.71.18l.17.52q.22.67.93.6l.3-.04q.76-.08.48-.8-1.47-3.63 1.54-6.52.36-.35.05-.75-1.44-1.87-3.6-1.93a.84.83-69.4 0 1-.62-1.37q1.06-1.28.4-2.69-.15-.33.15-.54 2.03-1.4 2.27-4.3.14-1.69 1.24-.4.98 1.16 2.13 2.15.5.43 1.1.23.48-.16.26-.6-.56-1.14.23-2.56.95-1.72 1.1.24.01.18.09.34.32.64.53-.05.33-1.12 1.43-1.39 1.28-.32.61-1.45-.71-1.21-.72-2.54a.86.85-8.2 0 1 .62-.82q2.01-.56 2.41-2.61a.5.49 18.1 0 1 .7-.35c1.39.65 1.32 3.59 1.26 4.85q-.03.92.76.46.85-.49 1.56.11.45.37.72-.14.17-.32.57-.18.39.13.11.44-.22.23-.51.35a.65.65 0 0 0-.39.68c.22 1.9 1.45 4.65.9 6.41q-.2.64.22 1.15 1.14 1.38.52 2.92-.19.47.2.81.83.71 1.24 1.73.16.42-.08.79-.49.78-1.26 1.3a.7.69 58 0 0-.21.92q.3.51.82.79.3.17.59-.02 1.99-1.32 3.07 1.09 1.19 2.64 1.12-.26-.05-1.9 1.13-2.62.45-.27.26-.76-.41-1.04-.4-2.21.01-.51-.5-.51-.4.01-.68.29a.39.38-39.5 0 1-.6-.05q-.45-.67.13-1.22 1.73-1.67 2.89-3.75.33-.6.83-.14.85.79 1.05 1.93.13.7.6.17.29-.31.28-.76 0-.58.55-.37 1.71.65 2.9-1.44.27-.48.01-.96-.35-.65-.28-1.37.03-.34.35-.48l1.9-.83q.59-.26.53.38-.16 1.8 1.25 2.37a.73.7 85.3 0 1 .33.29q1.94 3.38 1.11 6-.2.66.46.7.17.01.33.1.38.23.13.59-.99 1.45-.04 3.27c.89 1.69-.47 2.08-.38 3.52q.02.47.39.17 2.24-1.88 3.66 1.51.52 1.24.8-.07.2-.97.12-2.08a1.05 1.05 0 0 1 .75-1.09l.42-.13q.47-.14.27-.6l-.83-1.82q-.16-.36-.48-.12l-.39.28q-.7.51-.77-.35-.07-.8.61-1.34 1.67-1.34 1.42-3.42a.3.3 0 0 1 .45-.29q.81.48 1.4 1.33.35.5.75.06.19-.21.29-.46.21-.53.68-.85l1.59-1.06a.86.85-27.5 0 0 .32-1.01q-.66-1.79.58-3.71.29-.45.74-.15 2.46 1.62 4 3.94c.88 1.32.4 2.49 1.39 3.63q.41.47.2 1.05l-.37 1a.59.59 0 0 0 .42.78q.51.11.94.41.41.27.47.76.16 1.25-.53 2.31a.6.59-50.6 0 0 .07.74l.64.7q.44.46.65-.14.59-1.65 2.71-2.21.47-.12.75.28.75 1.07 1.98 1.33.72.15.4-.51-.32-.67-.84-1.21-.44-.45-.22-1.04.27-.69-.05-1.38a.84.82-35.9 0 1 .16-.94l.98-1.03a.35.35 0 0 0-.05-.53q-1.64-1.14-3.08-.76-.52.14-.5-.39.04-1.32.79-2.46a1.07 1.06-42 0 0 .06-1.07l-.69-1.36q-.3-.61.28-.95.9-.52 1.64.29.14.15.34.1.4-.12.12-.43l-.2-.23q-.17-.2-.07-.43l1.38-2.99q.23-.49.07-1.01l-1.33-4.16q-.17-.56.41-.54.74.04 1.33.56.33.29.57-.08.1-.15.07-.32-.09-.59.5-.57l4.04.1q.54.01.77.5.33.7 1 .19a1.24 1.22-21.5 0 1 1.98.84q.02.29.28.45.55.33.58-.31l.23-4.53q.02-.6.62-.66l1.46-.14q.62-.06.31-.6-.46-.8-.03-1.63.43-.82-.49-.72-.85.1-1.39.82a.31.3-24.8 0 1-.55-.2q.04-.62-.02-1.23-.23-2.07-1.12-.18l-1.08 2.27q-.3.63-.79.13c-2.75-2.78-.75-6.4-3.19-8.83a.9.89-63.2 0 1-.25-.77q.09-.6-.22-1.14-.68-1.16.33-2.04c1.27-1.08 3.07-3.34 2.61-5.17q-.27-1.08-.28-2.25-.03-2.52-1.09-.23-.49 1.06-1.07 2.2-.37.73-1.15.46l-2.82-.97a1.3 1.28-80.4 0 1-.87-1.24c.01-1.36.14-3.56-1.32-4.25q-.72-.34-.29.33 1.4 2.12-1.94 4.05a.51.5 86.8 0 1-.71-.64q.16-.35-.05-.61-.48-.59-.6.16-.25 1.6-.95 3.09-1 2.12 1.34 2.46a.55.55 0 0 1 .47.54q.01 1.62-1.99 2.31a1.52 1.52 0 0 1-2.01-1.28q-.35-3.17-3.24-2.84-.61.07-.41-.52l1.4-4.05q.15-.44-.07-.86-.26-.49-.83-.6-.38-.07-.29-.44.32-1.45-1.12-3.09a.24.23 44.3 0 0-.35 0q-.13.15-.32.19-.59.11-.67-.48-.18-1.39-.89-2.54-.27-.45.24-.57.55-.12 1.11-.06a1.4 1.35 27.6 0 0 1.05-.31q1.88-1.58 3.74-3.53.5-.53.61-1.21a.48.48 0 0 0-.65-.53l-.79.31q-.56.21-.51-.38.16-2.03-.64-3.7-.25-.52.33-.56l1.51-.09q.53-.03.31-.5c-1.12-2.43 1.96-4.21-.43-6.76q-.38-.41-.93-.28l-.4.1q-.49.12-.92-.17-1.07-.71-.64-1.98M175.18 71.42q.56.61.8 1.37.17.54.63.87l2.54 1.78q.43.31.38-.22-.25-2.49 1.78-3.47.48-.23.3-.72l-.4-1.14M220.3 309.88q-.55-.5-.8-1.03-.24-.51.15-.92l.83-.87a.85.84-35.7 0 0 .16-.94q-.19-.43-.62-.68a.86.86 0 0 0-.99.1q-.13.12-.29.17-.51.17-.85-.23c-2.28-2.59.72-4.47-.39-6.64q-.33-.63.38-.72l1.38-.16q.66-.08.33-.66-.83-1.47-.72-3.34.05-.93-.77-.51-.16.08-.26.23a.4.39-58.8 0 1-.5.13q-.3-.15-.33-.41-.05-.44.21-.79 1.73-2.32 4.21-4.27.33-.27.76-.32.58-.07 1.17-.1.63-.04.3-.58-.71-1.17-.79-2.69-.04-.7-.61-.29l-.37.28q-.37.27-.64-.11-1.12-1.61-.81-2.89.12-.5-.39-.57-.54-.08-.81-.59-.15-.28-.05-.57l1.41-4.27q.19-.59-.43-.56-2.96.13-3.26-3.03a1.24 1.24 0 0 0-1.44-1.11q-1.97.33-2.47 1.95-.15.47.29.7l.94.51a1.57 1.57 0 0 1 .69 2.05q-.73 1.58-1.12 3.26-.02.09-.08.17-.12.18-.37.15a.28.27-1.2 0 1-.25-.23l-.13-.81q-.17-1.02-.88-.27l-1.89 1.99q-.49.51-.09 1.09l.57.84q.5.73-.31.37c-1.78-.8-1.41-3.19-1.32-4.76a.82.81 4.5 0 0-.73-.85q-1.63-.18-3.08-.93-.67-.34-.99.34l-1.25 2.67q-.73 1.57-.94-.15l-.44-3.51q-.06-.49.14-.95.99-2.14 2.75-3.71a1.11 1.11 0 0 0 .12-1.55q-.58-.69-.21-1.52.17-.38-.21-.55l-.28-.12q-.54-.23-.7-.8l-.66-2.42q-.16-.59.09-1.14.62-1.34-.64-2.48M294.73 107.01q.22 1.6 1.53 2.67a.25.25 0 0 0 .35-.03l.17-.2q.25-.31-.1-.5-.24-.13-.38-.35a.74.71 40.7 0 1-.06-.66q.15-.37.45-.24M301.86 113.59l-1.27.62q-.48.22-.5.75-.04 1.12.33 2.25.18.52-.11.99-.22.35-.21.75.02.5.46.75 1.3.74 1.99 2.66M212.2 312.3q-.34-1.32-1.84-.44-.44.26-.85-.05t-.49-.8q-.09-.48-.55-.65-.24-.08-.45.09a.39.39 0 0 1-.49-.01l-3.69-3.05q-.52-.43-.42.23.29 1.87-1.46 3.52-.36.33-.23.8l.78 2.89" vector-effect="non-scaling-stroke"/><path d="M206.23 314.65q-1.88-.55-2.51.08M271.3 114.63q.54.2.36-.34-.1-.31-.39-.15a.27.27 0 0 0 .03.49M281.32 125.43q.04.09.14.11.13.02.11-.1-.02-.11-.11-.15-.23-.09-.14.14M209.49 243.38q-.25.15-.06.37.23.27.4-.04a.25.25 0 0 0-.34-.33M161.38 93.59a.07.07 0 0 0 .02.1q.14.11.23.04.14-.12.01-.24t-.26.1M221.63 289.34a.27.27 0 0 0-.27-.27.27.27 0 0 0-.27.27.27.27 0 0 0 .27.27.27.27 0 0 0 .27-.27" vector-effect="non-scaling-stroke"/></g><path d="M220.62 70.11q-.69 3.07-3.1 4.82-.4.29-.62-.15l-.13-.27q-.13-.27-.4-.12-.14.07-.12.22.02.11.1.18 1.27 1.12-.01 2.48-.19.21 0 .42l.17.19q.04.05.09 0 .74-.78 1.5-1.5a.61.6-50.7 0 1 .73-.08q1.27.77.53 1.88-.22.34.03.67.42.56 1.02.78.56.21.89-.29.22-.33.66 0a.5.49-64.3 0 1 .18.53q-.77 2.89-2.41 5.8-.24.43-.17.93l.56 3.61q.2 1.35.85.15.93-1.76 1.11-3.63a.8.79 21.8 0 1 1.29-.55q1.51 1.19 2.87.27.45-.3.67.2c1.3 2.95.95 4.77 4.45 6.06q.58.21.3-.34l-1.21-2.49q-.31-.62-.12-1.28l.84-2.91q.17-.58.77-.61 1.51-.09 2.59-1.08.55-.51-.17-.73-.48-.15-.84-.5-.45-.44-.44-1.05.02-1.71-.89-3.02-.83-1.21-1.08.24-.06.38-.28.68-.61.84-.74-.19c-.2-1.57-.08-3.07.51-4.6q.3-.8.26-1.58l8.21-1.11q-.06 1.9 1.18 2.41.49.2.9-.14 1-.84.75-2.33 1.23-.16 2.37.15-.15.69-.09 1.06.1.53.53.19.68-.55 2.16-.21l8.4 6.68q-1.49 1.4.2 4.42.32.58-.24.93l-1.49.94q-.4.24-.18.66 1.29 2.54-1.16 3.47a.66.65 60.1 0 0-.27 1.03l1.85 2.3a.66.66 0 0 1-.34 1.05q-1.81.46-2.22 2.77-.11.61.49.47.66-.15 1.21-.55a.87.86 59.8 0 1 1.28.34q.77 1.65.64 3.66-.05.78.52.25.34-.32.46-.79.17-.65.83-.76l1.25-.21q.7-.12.87-.81.59-2.54-1.15-3.21-1.35-.51.04-.91.97-.28 1.12-1.25.06-.42.48-.36 2.16.36 3.34 1.51c1.06 1.04 2.23 1.67 3.35 2.62q.56.48.8-.21.52-1.46 2.52-2.15a.52.52 0 0 1 .67.64l-.96 3.14q-.16.54.22.94l.81.84q.41.43.24.99l-2.91 9.55q-.17.56.26.96 1.25 1.18 1.28 3 .01.32.27.5.15.1.32.05.28-.08.33-.35.22-1.08 1.05-1.82a1.55 1.53 66.6 0 0 .51-1.31q-.02-.28-.15-.53-.28-.59.36-.69 1.78-.29 2.26 1.06.14.39.56.36l3.66-.27q.52-.04.77.42 1.8 3.25-.07 6.66-.34.63-.36 1.35-.05 1.48-1.1 2.6-.39.42.17.55 1.34.31 1.4 1.75.09 2.36 1.22.29.77-1.39.97-3.03.06-.51.57-.64 1.78-.46 3.48.42.5.26.64-.29.31-1.26 1.32-2.03.57-.43.75.26c.26 1.05.62 1.73.66 2.85q.13 3.2.87 6.15.12.49-.19.88-.35.45-.28 1.03.05.44.43.22 1.42-.85 2.26.73.21.39.66.43a.24.24 0 0 0 .23-.36q-.53-.87.01-1.77a1.7 1.7 0 0 0 .18-1.36c-1.03-3.47 1.85-4.61 2.29-7.74a.8.8 0 0 1 1.37-.44c1.2 1.25 4.56 4.84 5.95 1.62q.27 1.1.09 2.24-.67 4.21-1.28 8.22c-.49 3.23.99 4.93 2.56 7.26q.3.44.31.98.16 10.68-.06 21.32c-.1 4.67-1.33 9.26-2.17 14.19-3.18 18.75-6.52 39.39-10.05 59.42q-1.53 8.63-2.65 17.4-2.01-2.65-.76-5.88.67-1.71-.84-2.5-.37-.19-.27.21.07.3.32.43.59.31.09.76-.4.36-.84.18-.3-.12-.49-.38-.34-.43-.58-.93a1.31 1.27-3.5 0 0-.78-.67q-1.25-.41-1.1-1.74c.11-.99.91-1.74 1.57-2.45q1.55-1.65-.67-1.35-1.19.16-2.4-.75a1.39 1.39 0 0 1-.4-1.73q.82-1.6 1.04-3.31a.31.3 81.7 0 0-.42-.32q-1.84.81-3.03-1.36-.23-.43-.07-.89.45-1.33.48-2.78.09-4.34-1.95-.51-.8 1.5-2.59 1.88-.57.12-.84-.4l-.97-1.89q-.24-.48-.78-.4l-.38.05q-.6.09-.49.69.16.88.63 1.58.27.4.12.86l-1.06 3.08q-.19.55-.72.77l-.4.17q-.62.26-.21.79 1.63 2.08 3.83 2.1a.87.87 0 0 1 .6 1.49q-1.29 1.27-.3 2.63.29.4-.2.49-.69.13-1.04.75-.97 1.69-1.37 3.38-.42 1.7-1.41.26-1.11-1.62-2.59-2.12-.76-.25-.53.51.44 1.47-.57 3.02-.56.86-.75-.15l-.13-.67q-.18-.99-.68-.11l-.48.86q-.26.46-.77.58-.6.14-.87.67-.22.43.07.81.84 1.09.73 2.53-.05.57-.59.75-1.94.65-2.54 2.69-.19.63-.73.26c-1.34-.9-1.12-3.43-1.15-4.84q-.02-.96-.82-.43-.63.42-1.25.02-.68-.44-1.1.25-.03.04-.09.04-1.01.03-.25-.65.34-.31.56-.66a1.28 1.26 53.2 0 0 .14-1.03q-.87-2.97-.9-5.75-.01-.59-.33-1.09-.8-1.23-.44-2.67.18-.73-.36-1.24-2-1.9.26-3.63a.74.74 0 0 0 .22-.9q-.16-.35-.6-.63-.37-.24-.75-.03-2.26 1.27-3.22-1.44-.65-1.82-1.03.07-.16.81-.14 1.68.02.96-.9 1.3-.53.19-.31.71.46 1.12.44 2.32-.02.9.75.45l.38-.22q.54-.32.81.24.07.14.05.29-.05.56-.48.91-1.9 1.52-2.85 3.76a.43.43 0 0 1-.71.13q-.85-.91-1.07-2.03-.18-.91-.82-.23-.12.13-.1.29.1.82-.7.68-1.71-.31-2.83 1.67-.26.46.03.9.28.44.4.94.15.6-.42.86l-1.99.92a.26.26 0 0 1-.37-.2c-.13-.86-.16-1.49-.8-2.15q-2.49-2.55-2.15-6.47.04-.46-.29-.79-.57-.57-.1-1.25.36-.54.19-1.16l-.72-2.71q-.14-.51.17-.93.4-.56.47-1.25.08-.71-.56-.38l-.88.46q-.63.32-1.21-.1-1.19-.88-1.56-2.41-.04-.17-.21-.13l-.26.06a.33.32 79.1 0 0-.24.36q.45 2.74-1.37 3.65-.51.25-.14.68.54.63.6 1.41.07.78.69.29l.49-.4a.46.44 44.9 0 1 .57.01q.22.18.21.48-.01.51-.38.86-1.73 1.61-1.76 3.72-.01.72-.62.34-.75-.48-1.29-1.27a.44.44 0 0 0-.79.13q-.33 1.29-1.74 1.71-1.24.37-.93 1.62.43 1.77-.56 3.66-.23.44-.64.18-2.9-1.79-4.39-4.43c-.63-1.11-.3-2.09-1.2-3.11q-.39-.43-.26-.98l.19-.81q.17-.72-.45-1.13-1.81-1.19-.77-3.34.31-.64-.11-1.22l-.2-.27q-.43-.6-.78.05-.81 1.54-2.73 2.21-.46.16-.73-.24-.81-1.17-2.1-1.43-.9-.18-.48.63.43.82 1.11 1.45a.62.62 0 0 1 .01.89q-.6.57-.02 1.09.47.41.05.88l-.95 1.06q-.34.38.05.73 1.49 1.31 2.93.59.77-.38.55.45l-.8 3.14a1.13 1.12-54.9 0 0 .15.89q.34.5.44 1.09.11.67-.55.86-2.22.63-2.89 3.53-.27 1.16.23 2.47.5 1.32 1.07 2.52.31.66-.42.71-.71.04-1.2-.41-.51-.46-.89.11-.84 1.23-1.62 1.63-.44-18.22-2.48-29.59-1.12-6.21-6.52-10.36-2.85-2.19-9.82-3.24-6.71-1.01-10.99-1.07-6.95-.11-12.8-.19c-2.69-.04-5.88-1.57-8.08-3.36q-11.53-9.42-18.71-14.69-14.06-10.33-30.52-11.75-5.65-.49-9.55-1.87c-11.73-4.14-16.55-14.84-15.24-26.71q.22-1.95-1.52-6.18.61-1.3 1.86-.86.61.22.75-.42.44-2.11 1.44-4.37a1.27 1.26 44.7 0 0-.01-1.02q-1.64-3.58-2.51-.02a.32.31 2.6 0 1-.26.23l-.34.03q-.37.04-.32-.32.28-2.17-.56-3.93-.25-.53.25-.85l1.61-1.02q.6-.38.16-.93-.6-.74.05-1.34.4-.37.86-.69 1.98-1.41-.89-3.71l2.09-3.37.6 2.52q.14.61.68.29.99-.58 1.71.49.29.43.09.9-.37.88.6 1.11.76.19.26.79-.37.44-.09.94.24.44.16.94-.29 1.75 1.72 3 .75.46.75-.42l.03-2.52q0-.66.66-.73 1.27-.15 2.31.39a1.16 1.15 45.3 0 0 1.06.01l.41-.21a.34.34 0 0 1 .49.27q.25 2.83-.64 5.28-.17.48.03.95.28.68.95 1.01.55.27.39-.32-.07-.28-.26-.51-.43-.52.17-.84.22-.11.49.04.66.36.93 1.06.24.65.96.82a1.68 1.57-58.7 0 1 .58 2.8q-1.11 1.03-1.55 2.41-.25.78.51.48 1.61-.64 3.17.72.42.36.3.9c-.27 1.16-1.18 2.88-.99 4.03q.1.59.63.33l.48-.24q.56-.28.99.16l1.35 1.38q.33.33.15.75-.88 2.12-.54 4.84a.36.36 0 0 0 .58.23q1.03-.84 1.59-2.11a1.99 1.99 0 0 1 3.71.18l.17.52q.22.67.93.6l.3-.04q.76-.08.48-.8-1.47-3.63 1.54-6.52.36-.35.05-.75-1.44-1.87-3.6-1.93a.84.83-69.4 0 1-.62-1.37q1.06-1.28.4-2.69-.15-.33.15-.54 2.03-1.4 2.27-4.3.14-1.69 1.24-.4.98 1.16 2.13 2.15.5.43 1.1.23.48-.16.26-.6-.56-1.14.23-2.56.95-1.72 1.1.24.01.18.09.34.32.64.53-.05.33-1.12 1.43-1.39 1.28-.32.61-1.45-.71-1.21-.72-2.54a.86.85-8.2 0 1 .62-.82q2.01-.56 2.41-2.61a.5.49 18.1 0 1 .7-.35c1.39.65 1.32 3.59 1.26 4.85q-.03.92.76.46.85-.49 1.56.11.45.37.72-.14.17-.32.57-.18.39.13.11.44-.22.23-.51.35a.65.65 0 0 0-.39.68c.22 1.9 1.45 4.65.9 6.41q-.2.64.22 1.15 1.14 1.38.52 2.92-.19.47.2.81.83.71 1.24 1.73.16.42-.08.79-.49.78-1.26 1.3a.7.69 58 0 0-.21.92q.3.51.82.79.3.17.59-.02 1.99-1.32 3.07 1.09 1.19 2.64 1.12-.26-.05-1.9 1.13-2.62.45-.27.26-.76-.41-1.04-.4-2.21.01-.51-.5-.51-.4.01-.68.29a.39.38-39.5 0 1-.6-.05q-.45-.67.13-1.22 1.73-1.67 2.89-3.75.33-.6.83-.14.85.79 1.05 1.93.13.7.6.17.29-.31.28-.76 0-.58.55-.37 1.71.65 2.9-1.44.27-.48.01-.96-.35-.65-.28-1.37.03-.34.35-.48l1.9-.83q.59-.26.53.38-.16 1.8 1.25 2.37a.73.7 85.3 0 1 .33.29q1.94 3.38 1.11 6-.2.66.46.7.17.01.33.1.38.23.13.59-.99 1.45-.04 3.27c.89 1.69-.47 2.08-.38 3.52q.02.47.39.17 2.24-1.88 3.66 1.51.52 1.24.8-.07.2-.97.12-2.08a1.05 1.05 0 0 1 .75-1.09l.42-.13q.47-.14.27-.6l-.83-1.82q-.16-.36-.48-.12l-.39.28q-.7.51-.77-.35-.07-.8.61-1.34 1.67-1.34 1.42-3.42a.3.3 0 0 1 .45-.29q.81.48 1.4 1.33.35.5.75.06.19-.21.29-.46.21-.53.68-.85l1.59-1.06a.86.85-27.5 0 0 .32-1.01q-.66-1.79.58-3.71.29-.45.74-.15 2.46 1.62 4 3.94c.88 1.32.4 2.49 1.39 3.63q.41.47.2 1.05l-.37 1a.59.59 0 0 0 .42.78q.51.11.94.41.41.27.47.76.16 1.25-.53 2.31a.6.59-50.6 0 0 .07.74l.64.7q.44.46.65-.14.59-1.65 2.71-2.21.47-.12.75.28.75 1.07 1.98 1.33.72.15.4-.51-.32-.67-.84-1.21-.44-.45-.22-1.04.27-.69-.05-1.38a.84.82-35.9 0 1 .16-.94l.98-1.03a.35.35 0 0 0-.05-.53q-1.64-1.14-3.08-.76-.52.14-.5-.39.04-1.32.79-2.46a1.07 1.06-42 0 0 .06-1.07l-.69-1.36q-.3-.61.28-.95.9-.52 1.64.29.14.15.34.1.4-.12.12-.43l-.2-.23q-.17-.2-.07-.43l1.38-2.99q.23-.49.07-1.01l-1.33-4.16q-.17-.56.41-.54.74.04 1.33.56.33.29.57-.08.1-.15.07-.32-.09-.59.5-.57l4.04.1q.54.01.77.5.33.7 1 .19a1.24 1.22-21.5 0 1 1.98.84q.02.29.28.45.55.33.58-.31l.23-4.53q.02-.6.62-.66l1.46-.14q.62-.06.31-.6-.46-.8-.03-1.63.43-.82-.49-.72-.85.1-1.39.82a.31.3-24.8 0 1-.55-.2q.04-.62-.02-1.23-.23-2.07-1.12-.18l-1.08 2.27q-.3.63-.79.13c-2.75-2.78-.75-6.4-3.19-8.83a.9.89-63.2 0 1-.25-.77q.09-.6-.22-1.14-.68-1.16.33-2.04c1.27-1.08 3.07-3.34 2.61-5.17q-.27-1.08-.28-2.25-.03-2.52-1.09-.23-.49 1.06-1.07 2.2-.37.73-1.15.46l-2.82-.97a1.3 1.28-80.4 0 1-.87-1.24c.01-1.36.14-3.56-1.32-4.25q-.72-.34-.29.33 1.4 2.12-1.94 4.05a.51.5 86.8 0 1-.71-.64q.16-.35-.05-.61-.48-.59-.6.16-.25 1.6-.95 3.09-1 2.12 1.34 2.46a.55.55 0 0 1 .47.54q.01 1.62-1.99 2.31a1.52 1.52 0 0 1-2.01-1.28q-.35-3.17-3.24-2.84-.61.07-.41-.52l1.4-4.05q.15-.44-.07-.86-.26-.49-.83-.6-.38-.07-.29-.44.32-1.45-1.12-3.09a.24.23 44.3 0 0-.35 0q-.13.15-.32.19-.59.11-.67-.48-.18-1.39-.89-2.54-.27-.45.24-.57.55-.12 1.11-.06a1.4 1.35 27.6 0 0 1.05-.31q1.88-1.58 3.74-3.53.5-.53.61-1.21a.48.48 0 0 0-.65-.53l-.79.31q-.56.21-.51-.38.16-2.03-.64-3.7-.25-.52.33-.56l1.51-.09q.53-.03.31-.5c-1.12-2.43 1.96-4.21-.43-6.76q-.38-.41-.93-.28l-.4.1q-.49.12-.92-.17-1.07-.71-.64-1.98 2.23 1.1 4.44 2.26c2.9 1.52 4.33.17 5.79-2.43q1.15-2.03 2.74-3.74.56.61.8 1.37.17.54.63.87l2.54 1.78q.43.31.38-.22-.25-2.49 1.78-3.47.48-.23.3-.72l-.4-1.14q3.25 1.41 6.27 1.44 2.35.02 5.02-1.2c3.78-1.73 9.04-1.82 13.38-1.49 3.18.23 6.21-2.74 9.05-.91q2.63 1.7 5.69 2.38m50.68 44.52q.54.2.36-.34-.1-.31-.39-.15a.27.27 0 0 0 .03.49m10.02 10.8q.04.09.14.11.13.02.11-.1-.02-.11-.11-.15-.23-.09-.14.14m-71.83 117.95q-.25.15-.06.37.23.27.4-.04a.25.25 0 0 0-.34-.33"/><path fill="#8a2ae2" d="m181.21 69.89.4 1.14q.18.49-.3.72-2.03.98-1.78 3.47.05.53-.38.22l-2.54-1.78q-.46-.33-.63-.87-.24-.76-.8-1.37 2.14-2.05 6.03-1.53M220.62 70.11l10.24 3.14q.04.78-.26 1.58c-.59 1.53-.71 3.03-.51 4.6q.13 1.03.74.19.22-.3.28-.68.25-1.45 1.08-.24.91 1.31.89 3.02-.01.61.44 1.05.36.35.84.5.72.22.17.73-1.08.99-2.59 1.08-.6.03-.77.61l-.84 2.91q-.19.66.12 1.28l1.21 2.49q.28.55-.3.34c-3.5-1.29-3.15-3.11-4.45-6.06q-.22-.5-.67-.2-1.36.92-2.87-.27a.8.79 21.8 0 0-1.29.55q-.18 1.87-1.11 3.63-.65 1.2-.85-.15l-.56-3.61q-.07-.5.17-.93 1.64-2.91 2.41-5.8a.5.49-64.3 0 0-.18-.53q-.44-.33-.66 0-.33.5-.89.29-.6-.22-1.02-.78-.25-.33-.03-.67.74-1.11-.53-1.88a.61.6-50.7 0 0-.73.08q-.76.72-1.5 1.5-.05.05-.09 0l-.17-.19q-.19-.21 0-.42 1.28-1.36.01-2.48-.08-.07-.1-.18-.02-.15.12-.22.27-.15.4.12l.13.27q.22.44.62.15 2.41-1.75 3.1-4.82M241.9 72.08q.25 1.49-.75 2.33-.41.34-.9.14-1.24-.51-1.18-2.41zM246.87 73.27q-1.48-.34-2.16.21-.43.34-.53-.19-.06-.37.09-1.06zM162.21 75.33q-.43 1.27.64 1.98.43.29.92.17l.4-.1q.55-.13.93.28c2.39 2.55-.69 4.33.43 6.76q.22.47-.31.5l-1.51.09q-.58.04-.33.56.8 1.67.64 3.7-.05.59.51.38l.79-.31a.48.48 0 0 1 .65.53q-.11.68-.61 1.21-1.86 1.95-3.74 3.53a1.4 1.35 27.6 0 1-1.05.31q-.56-.06-1.11.06-.51.12-.24.57.71 1.15.89 2.54.08.59.67.48.19-.04.32-.19a.24.23 44.3 0 1 .35 0q1.44 1.64 1.12 3.09-.09.37.29.44.57.11.83.6.22.42.07.86l-1.4 4.05q-.2.59.41.52 2.89-.33 3.24 2.84a1.52 1.52 0 0 0 2.01 1.28q2-.69 1.99-2.31a.55.55 0 0 0-.47-.54q-2.34-.34-1.34-2.46.7-1.49.95-3.09.12-.75.6-.16.21.26.05.61a.51.5 86.8 0 0 .71.64q3.34-1.93 1.94-4.05-.43-.67.29-.33c1.46.69 1.33 2.89 1.32 4.25a1.3 1.28-80.4 0 0 .87 1.24l2.82.97q.78.27 1.15-.46.58-1.14 1.07-2.2 1.06-2.29 1.09.23.01 1.17.28 2.25c.46 1.83-1.34 4.09-2.61 5.17q-1.01.88-.33 2.04.31.54.22 1.14a.9.89-63.2 0 0 .25.77c2.44 2.43.44 6.05 3.19 8.83q.49.5.79-.13l1.08-2.27q.89-1.89 1.12.18.06.61.02 1.23a.31.3-24.8 0 0 .55.2q.54-.72 1.39-.82.92-.1.49.72-.43.83.03 1.63.31.54-.31.6l-1.46.14q-.6.06-.62.66l-.23 4.53q-.03.64-.58.31-.26-.16-.28-.45a1.24 1.22-21.5 0 0-1.98-.84q-.67.51-1-.19-.23-.49-.77-.5l-4.04-.1q-.59-.02-.5.57.03.17-.07.32-.24.37-.57.08-.59-.52-1.33-.56-.58-.02-.41.54l1.33 4.16q.16.52-.07 1.01l-1.38 2.99q-.1.23.07.43l.2.23q.28.31-.12.43-.2.05-.34-.1-.74-.81-1.64-.29-.58.34-.28.95l.69 1.36a1.07 1.06-42 0 1-.06 1.07q-.75 1.14-.79 2.46-.02.53.5.39 1.44-.38 3.08.76a.35.35 0 0 1 .05.53l-.98 1.03a.84.82-35.9 0 0-.16.94q.32.69.05 1.38-.22.59.22 1.04.52.54.84 1.21.32.66-.4.51-1.23-.26-1.98-1.33-.28-.4-.75-.28-2.12.56-2.71 2.21-.21.6-.65.14l-.64-.7a.6.59-50.6 0 1-.07-.74q.69-1.06.53-2.31-.06-.49-.47-.76-.43-.3-.94-.41a.59.59 0 0 1-.42-.78l.37-1q.21-.58-.2-1.05c-.99-1.14-.51-2.31-1.39-3.63q-1.54-2.32-4-3.94-.45-.3-.74.15-1.24 1.92-.58 3.71a.86.85-27.5 0 1-.32 1.01l-1.59 1.06q-.47.32-.68.85-.1.25-.29.46-.4.44-.75-.06-.59-.85-1.4-1.33a.3.3 0 0 0-.45.29q.25 2.08-1.42 3.42-.68.54-.61 1.34.07.86.77.35l.39-.28q.32-.24.48.12l.83 1.82q.2.46-.27.6l-.42.13a1.05 1.05 0 0 0-.75 1.09q.08 1.11-.12 2.08-.28 1.31-.8.07-1.42-3.39-3.66-1.51-.37.3-.39-.17c-.09-1.44 1.27-1.83.38-3.52q-.95-1.82.04-3.27.25-.36-.13-.59-.16-.09-.33-.1-.66-.04-.46-.7.83-2.62-1.11-6a.73.7 85.3 0 0-.33-.29q-1.41-.57-1.25-2.37.06-.64-.53-.38l-1.9.83q-.32.14-.35.48-.07.72.28 1.37.26.48-.01.96-1.19 2.09-2.9 1.44-.55-.21-.55.37.01.45-.28.76-.47.53-.6-.17-.2-1.14-1.05-1.93-.5-.46-.83.14-1.16 2.08-2.89 3.75-.58.55-.13 1.22a.39.38-39.5 0 0 .6.05q.28-.28.68-.29.51 0 .5.51-.01 1.17.4 2.21.19.49-.26.76-1.18.72-1.13 2.62.07 2.9-1.12.26-1.08-2.41-3.07-1.09-.29.19-.59.02-.52-.28-.82-.79a.7.69 58 0 1 .21-.92q.77-.52 1.26-1.3.24-.37.08-.79-.41-1.02-1.24-1.73-.39-.34-.2-.81.62-1.54-.52-2.92-.42-.51-.22-1.15c.55-1.76-.68-4.51-.9-6.41a.65.65 0 0 1 .39-.68q.29-.12.51-.35.28-.31-.11-.44-.4-.14-.57.18-.27.51-.72.14-.71-.6-1.56-.11-.79.46-.76-.46c.06-1.26.13-4.2-1.26-4.85a.5.49 18.1 0 0-.7.35q-.4 2.05-2.41 2.61a.86.85-8.2 0 0-.62.82q.01 1.33.72 2.54.67 1.13-.61 1.45-1.1.27-1.43 1.39-.21.69-.53.05-.08-.16-.09-.34-.15-1.96-1.1-.24-.79 1.42-.23 2.56.22.44-.26.6-.6.2-1.1-.23-1.15-.99-2.13-2.15-1.1-1.29-1.24.4-.24 2.9-2.27 4.3-.3.21-.15.54.66 1.41-.4 2.69a.84.83-69.4 0 0 .62 1.37q2.16.06 3.6 1.93.31.4-.05.75-3.01 2.89-1.54 6.52.28.72-.48.8l-.3.04q-.71.07-.93-.6l-.17-.52a1.99 1.99 0 0 0-3.71-.18q-.56 1.27-1.59 2.11a.36.36 0 0 1-.58-.23q-.34-2.72.54-4.84.18-.42-.15-.75l-1.35-1.38q-.43-.44-.99-.16l-.48.24q-.53.26-.63-.33c-.19-1.15.72-2.87.99-4.03q.12-.54-.3-.9-1.56-1.36-3.17-.72-.76.3-.51-.48.44-1.38 1.55-2.41a1.68 1.57-58.7 0 0-.58-2.8q-.72-.17-.96-.82-.27-.7-.93-1.06-.27-.15-.49-.04-.6.32-.17.84.19.23.26.51.16.59-.39.32-.67-.33-.95-1.01-.2-.47-.03-.95.89-2.45.64-5.28a.34.34 0 0 0-.49-.27l-.41.21a1.16 1.15 45.3 0 1-1.06-.01q-1.04-.54-2.31-.39-.66.07-.66.73l-.03 2.52q0 .88-.75.42-2.01-1.25-1.72-3 .08-.5-.16-.94-.28-.5.09-.94.5-.6-.26-.79-.97-.23-.6-1.11.2-.47-.09-.9-.72-1.07-1.71-.49-.54.32-.68-.29l-.6-2.52c3.02-5.82 4.86-10.01 9.96-12.98q2.73-1.6 6.75-2.53 13.21-3.05 26.14-6.6c13.22-3.62 21.35-9.82 23.66-23.7q.1-.63.59-1.05 5.3-4.61 11.58-.54m-.83 18.26a.07.07 0 0 0 .02.1q.14.11.23.04.14-.12.01-.24t-.26.1M294.73 107.01q.22 1.6 1.53 2.67a.25.25 0 0 0 .35-.03l.17-.2q.25-.31-.1-.5-.24-.13-.38-.35a.74.71 40.7 0 1-.06-.66q.15-.37.45-.24c2.97 1.04 5.82 2.3 5.17 5.89l-1.27.62q-.48.22-.5.75-.04 1.12.33 2.25.18.52-.11.99-.22.35-.21.75.02.5.46.75 1.3.74 1.99 2.66l-.1.41c-1.39 3.22-4.75-.37-5.95-1.62a.8.8 0 0 0-1.37.44c-.44 3.13-3.32 4.27-2.29 7.74a1.7 1.7 0 0 1-.18 1.36q-.54.9-.01 1.77a.24.24 0 0 1-.23.36q-.45-.04-.66-.43-.84-1.58-2.26-.73-.38.22-.43-.22-.07-.58.28-1.03.31-.39.19-.88-.74-2.95-.87-6.15c-.04-1.12-.4-1.8-.66-2.85q-.18-.69-.75-.26-1.01.77-1.32 2.03-.14.55-.64.29-1.7-.88-3.48-.42-.51.13-.57.64-.2 1.64-.97 3.03-1.13 2.07-1.22-.29-.06-1.44-1.4-1.75-.56-.13-.17-.55 1.05-1.12 1.1-2.6.02-.72.36-1.35 1.87-3.41.07-6.66-.25-.46-.77-.42l-3.66.27q-.42.03-.56-.36-.48-1.35-2.26-1.06-.64.1-.36.69.13.25.15.53a1.55 1.53 66.6 0 1-.51 1.31q-.83.74-1.05 1.82-.05.27-.33.35-.17.05-.32-.05-.26-.18-.27-.5-.03-1.82-1.28-3-.43-.4-.26-.96l2.91-9.55q.17-.56-.24-.99l-.81-.84q-.38-.4-.22-.94l.96-3.14a.52.52 0 0 0-.67-.64q-2 .69-2.52 2.15-.24.69-.8.21c-1.12-.95-2.29-1.58-3.35-2.62q-1.18-1.15-3.34-1.51-.42-.06-.48.36-.15.97-1.12 1.25-1.39.4-.04.91 1.74.67 1.15 3.21-.17.69-.87.81l-1.25.21q-.66.11-.83.76-.12.47-.46.79-.57.53-.52-.25.13-2.01-.64-3.66a.87.86 59.8 0 0-1.28-.34q-.55.4-1.21.55-.6.14-.49-.47.41-2.31 2.22-2.77a.66.66 0 0 0 .34-1.05l-1.85-2.3a.66.65 60.1 0 1 .27-1.03q2.45-.93 1.16-3.47-.22-.42.18-.66l1.49-.94q.56-.35.24-.93-1.69-3.02-.2-4.42 3.87 1.92 7.86 2.65 8.31 1.53 16.61 2.91c2.33.38 4.41 2.19 4.26 4.69q-.27 4.46 1.11 9c1.46 4.79 4.99 5.89 9.62 7.81"/><path d="M161.38 93.59q.13-.22.26-.1t-.01.24q-.09.07-.23-.04a.07.07 0 0 1-.02-.1M296.69 107.7q-.3-.13-.45.24a.74.71 40.7 0 0 .06.66q.14.22.38.35.35.19.1.5l-.17.2a.25.25 0 0 1-.35.03q-1.31-1.07-1.53-2.67 1.11.08 1.96.69M301.86 113.59q1.11 4.21.69 8.77-.69-1.92-1.99-2.66-.44-.25-.46-.75-.01-.4.21-.75.29-.47.11-.99-.37-1.13-.33-2.25.02-.53.5-.75z"/><path fill="#8a2ae2" d="M271.3 114.63a.27.27 0 0 1-.03-.49q.29-.16.39.15.18.54-.36.34M281.46 125.29q.09.04.11.15.02.12-.11.1-.1-.02-.14-.11-.09-.23.14-.14M79.35 145.32c-1.71-3.89-1.63-6.13-1.54-10.73q.05-2.49 1.13-4.47 1.11-2.01 2.5-4.02 2.87 2.3.89 3.71-.46.32-.86.69-.65.6-.05 1.34.44.55-.16.93l-1.61 1.02q-.5.32-.25.85.84 1.76.56 3.93-.05.36.32.32l.34-.03a.32.31 2.6 0 0 .26-.23q.87-3.56 2.51.02a1.27 1.26 44.7 0 1 .01 1.02q-1 2.26-1.44 4.37-.14.64-.75.42-1.25-.44-1.86.86M289.2 253.8q-.49 5.49.8 12.69c.56 3.08-1.35 4.87-4.06 6.37q-11.43 6.33-18.3 11.02c-16.24 11.08-30.06 19.85-47.34 26q-.55-.5-.8-1.03-.24-.51.15-.92l.83-.87a.85.84-35.7 0 0 .16-.94q-.19-.43-.62-.68a.86.86 0 0 0-.99.1q-.13.12-.29.17-.51.17-.85-.23c-2.28-2.59.72-4.47-.39-6.64q-.33-.63.38-.72l1.38-.16q.66-.08.33-.66-.83-1.47-.72-3.34.05-.93-.77-.51-.16.08-.26.23a.4.39-58.8 0 1-.5.13q-.3-.15-.33-.41-.05-.44.21-.79 1.73-2.32 4.21-4.27.33-.27.76-.32.58-.07 1.17-.1.63-.04.3-.58-.71-1.17-.79-2.69-.04-.7-.61-.29l-.37.28q-.37.27-.64-.11-1.12-1.61-.81-2.89.12-.5-.39-.57-.54-.08-.81-.59-.15-.28-.05-.57l1.41-4.27q.19-.59-.43-.56-2.96.13-3.26-3.03a1.24 1.24 0 0 0-1.44-1.11q-1.97.33-2.47 1.95-.15.47.29.7l.94.51a1.57 1.57 0 0 1 .69 2.05q-.73 1.58-1.12 3.26-.02.09-.08.17-.12.18-.37.15a.28.27-1.2 0 1-.25-.23l-.13-.81q-.17-1.02-.88-.27l-1.89 1.99q-.49.51-.09 1.09l.57.84q.5.73-.31.37c-1.78-.8-1.41-3.19-1.32-4.76a.82.81 4.5 0 0-.73-.85q-1.63-.18-3.08-.93-.67-.34-.99.34l-1.25 2.67q-.73 1.57-.94-.15l-.44-3.51q-.06-.49.14-.95.99-2.14 2.75-3.71a1.11 1.11 0 0 0 .12-1.55q-.58-.69-.21-1.52.17-.38-.21-.55l-.28-.12q-.54-.23-.7-.8l-.66-2.42q-.16-.59.09-1.14.62-1.34-.64-2.48l3.56-5.95q.78-.4 1.62-1.63.38-.57.89-.11.49.45 1.2.41.73-.05.42-.71-.57-1.2-1.07-2.52-.5-1.31-.23-2.47.67-2.9 2.89-3.53.66-.19.55-.86-.1-.59-.44-1.09a1.13 1.12-54.9 0 1-.15-.89l.8-3.14q.22-.83-.55-.45-1.44.72-2.93-.59-.39-.35-.05-.73l.95-1.06q.42-.47-.05-.88-.58-.52.02-1.09a.62.62 0 0 0-.01-.89q-.68-.63-1.11-1.45-.42-.81.48-.63 1.29.26 2.1 1.43.27.4.73.24 1.92-.67 2.73-2.21.35-.65.78-.05l.2.27q.42.58.11 1.22-1.04 2.15.77 3.34.62.41.45 1.13l-.19.81q-.13.55.26.98c.9 1.02.57 2 1.2 3.11q1.49 2.64 4.39 4.43.41.26.64-.18.99-1.89.56-3.66-.31-1.25.93-1.62 1.41-.42 1.74-1.71a.44.44 0 0 1 .79-.13q.54.79 1.29 1.27.61.38.62-.34.03-2.11 1.76-3.72.37-.35.38-.86.01-.3-.21-.48a.46.44 44.9 0 0-.57-.01l-.49.4q-.62.49-.69-.29-.06-.78-.6-1.41-.37-.43.14-.68 1.82-.91 1.37-3.65a.33.32 79.1 0 1 .24-.36l.26-.06q.17-.04.21.13.37 1.53 1.56 2.41.58.42 1.21.1l.88-.46q.64-.33.56.38-.07.69-.47 1.25-.31.42-.17.93l.72 2.71q.17.62-.19 1.16-.47.68.1 1.25.33.33.29.79-.34 3.92 2.15 6.47c.64.66.67 1.29.8 2.15a.26.26 0 0 0 .37.2l1.99-.92q.57-.26.42-.86-.12-.5-.4-.94-.29-.44-.03-.9 1.12-1.98 2.83-1.67.8.14.7-.68-.02-.16.1-.29.64-.68.82.23.22 1.12 1.07 2.03a.43.43 0 0 0 .71-.13q.95-2.24 2.85-3.76.43-.35.48-.91.02-.15-.05-.29-.27-.56-.81-.24l-.38.22q-.77.45-.75-.45.02-1.2-.44-2.32-.22-.52.31-.71.92-.34.9-1.3-.02-.87.14-1.68.38-1.89 1.03-.07.96 2.71 3.22 1.44.38-.21.75.03.44.28.6.63a.74.74 0 0 1-.22.9q-2.26 1.73-.26 3.63.54.51.36 1.24-.36 1.44.44 2.67.32.5.33 1.09.03 2.78.9 5.75a1.28 1.26 53.2 0 1-.14 1.03q-.22.35-.56.66-.76.68.25.65.06 0 .09-.04.42-.69 1.1-.25.62.4 1.25-.02.8-.53.82.43c.03 1.41-.19 3.94 1.15 4.84q.54.37.73-.26.6-2.04 2.54-2.69.54-.18.59-.75.11-1.44-.73-2.53-.29-.38-.07-.81.27-.53.87-.67.51-.12.77-.58l.48-.86q.5-.88.68.11l.13.67q.19 1.01.75.15 1.01-1.55.57-3.02-.23-.76.53-.51 1.48.5 2.59 2.12.99 1.44 1.41-.26.4-1.69 1.37-3.38.35-.62 1.04-.75.49-.09.2-.49-.99-1.36.3-2.63a.87.87 0 0 0-.6-1.49q-2.2-.02-3.83-2.1-.41-.53.21-.79l.4-.17q.53-.22.72-.77l1.06-3.08q.15-.46-.12-.86-.47-.7-.63-1.58-.11-.6.49-.69l.38-.05q.54-.08.78.4l.97 1.89q.27.52.84.4 1.79-.38 2.59-1.88 2.04-3.83 1.95.51-.03 1.45-.48 2.78-.16.46.07.89 1.19 2.17 3.03 1.36a.31.3 81.7 0 1 .42.32q-.22 1.71-1.04 3.31a1.39 1.39 0 0 0 .4 1.73q1.21.91 2.4.75 2.22-.3.67 1.35c-.66.71-1.46 1.46-1.57 2.45q-.15 1.33 1.1 1.74a1.31 1.27-3.5 0 1 .78.67q.24.5.58.93.19.26.49.38.44.18.84-.18.5-.45-.09-.76-.25-.13-.32-.43-.1-.4.27-.21 1.51.79.84 2.5-1.25 3.23.76 5.88m-67.57 35.54a.27.27 0 0 0-.27-.27.27.27 0 0 0-.27.27.27.27 0 0 0 .27.27.27.27 0 0 0 .27-.27"/><path fill="#8a2ae2" d="M209.49 243.38a.25.25 0 0 1 .34.33q-.17.31-.4.04-.19-.22.06-.37"/><path d="M202.02 260.28q1.26 1.14.64 2.48-.25.55-.09 1.14l.66 2.42q.16.57.7.8l.28.12q.38.17.21.55-.37.83.21 1.52a1.11 1.11 0 0 1-.12 1.55q-1.76 1.57-2.75 3.71-.2.46-.14.95l.44 3.51q.21 1.72.94.15l1.25-2.67q.32-.68.99-.34 1.45.75 3.08.93a.82.81 4.5 0 1 .73.85c-.09 1.57-.46 3.96 1.32 4.76q.81.36.31-.37l-.57-.84q-.4-.58.09-1.09l1.89-1.99q.71-.75.88.27l.13.81a.28.27-1.2 0 0 .25.23q.25.03.37-.15.06-.08.08-.17.39-1.68 1.12-3.26a1.57 1.57 0 0 0-.69-2.05l-.94-.51q-.44-.23-.29-.7.5-1.62 2.47-1.95a1.24 1.24 0 0 1 1.44 1.11q.3 3.16 3.26 3.03.62-.03.43.56l-1.41 4.27q-.1.29.05.57.27.51.81.59.51.07.39.57-.31 1.28.81 2.89.27.38.64.11l.37-.28q.57-.41.61.29.08 1.52.79 2.69.33.54-.3.58-.59.03-1.17.1-.43.05-.76.32-2.48 1.95-4.21 4.27-.26.35-.21.79.03.26.33.41a.4.39-58.8 0 0 .5-.13q.1-.15.26-.23.82-.42.77.51-.11 1.87.72 3.34.33.58-.33.66l-1.38.16q-.71.09-.38.72c1.11 2.17-1.89 4.05.39 6.64q.34.4.85.23.16-.05.29-.17a.86.86 0 0 1 .99-.1q.43.25.62.68a.85.84-35.7 0 1-.16.94l-.83.87q-.39.41-.15.92.25.53.8 1.03l-8.1 2.42q-.34-1.32-1.84-.44-.44.26-.85-.05t-.49-.8q-.09-.48-.55-.65-.24-.08-.45.09a.39.39 0 0 1-.49-.01l-3.69-3.05q-.52-.43-.42.23.29 1.87-1.46 3.52-.36.33-.23.8l.78 2.89h-8.52q-.5 0-.78-.43c-2.38-3.59-3.97-6.01-2.88-9.75q1.79-6.16 3.22-11.66 3.13-12.01 4.65-26.26.28-2.56 3.82-6.45"/><circle cx="221.36" cy="289.34" r=".27"/><path fill="#8a2ae2" d="m212.2 312.3-5.97 2.35q-1.88-.55-2.51.08l-1.21.1-.78-2.89q-.13-.47.23-.8 1.75-1.65 1.46-3.52-.1-.66.42-.23l3.69 3.05a.39.39 0 0 0 .49.01q.21-.17.45-.09.46.17.55.65.08.49.49.8t.85.05q1.5-.88 1.84.44"/><path d="M206.23 314.65q-1.46.31-2.51.08.63-.63 2.51-.08"/></svg>