<svg xmlns="http://www.w3.org/2000/svg" viewBox="0 0 382 382"><g fill="none" stroke="#320639" stroke-width="2"><path d="M220.85 70.23q-1.4 1.91-3.1 3.53-.77.73-.77 2.47 0 .77.69.43l.41-.21q.56-.28.82.29.06.15.05.32a.57.56 11.8 0 0 .4.6q2.27.69 1.51 2.95-1.21 3.55-1.45 6.77-.05.7.46.22.84-.79 1.21-1.95.18-.58.8-.57 1.07.02 1.83.96 1.03 1.29 1.27-.35.04-.22.21-.36.65-.54.69.31.17 3.64 1.99 6.87a.55.55 0 0 0 .99-.07l.68-1.75q.2-.53-.34-.68l-.85-.24a.29.29 0 0 1-.08-.53q1.91-1.22 1.84-3.53a.68.67 5.7 0 1 .83-.67q.6.14 1.1.47.57.37 1.06-.1l.52-.5q.4-.38-.1-.61l-.98-.46q-.42-.19-.46-.65-.12-1.3.57-2.37.32-.48.18-1.05-.3-1.25-1.54-1.59-.54-.15-1.03.12l-.51.27q-.68.36-.77-.4-.37-2.99 1.83-4.91M239.3 72q-.21 2.04 1.06 2.5.52.2.55-.36.06-1.1-.43-2.03M254.4 79.31q.64 3.74.12 6.3-.12.58-.47.17-.12-.13-.32-.16-.57-.06-.33.47 1.11 2.48-.36 4.43-.39.51-.08 1.08 1.01 1.85-.23 3.18-.35.37-.29.88.29 2.34 1.91 2.69.63.14.19.62-.6.65-.35 1.33.26.7.72.11 1.05-1.34 2.32-.92.36.12.59-.18 1.63-2.03-.39-3.45a1 1 0 0 1-.25-1.36q.51-.77 1.33-.17 1.15.84 1.88-.18 1.54-2.13 1.58.47.01.7.04 1.45.01.6.61.5 1.43-.25 2.54 1.06.39.45.97.29 1.07-.3.94-1.61-.17-1.59 1.23-.88.32.17.58-.09.65-.65.71.27.17 3.14.16 6.15-.01 1.77-1.03 4.27-1.63 4-.61 8.37a.38.37 71 0 0 .53.26l1.87-.87q.54-.26.31-.81l-.4-.99q-.22-.54.14-1 .95-1.24 2.51-.92.64.14.86.75.44 1.24 1.48 1.99a.97.97 0 0 0 1.54-.79q0-.34.22-.6.57-.7.79.17c.51 1.97 1.25 3.66.69 5.78q-.58 2.17-1 4.28c-.23 1.21.27 2.37.47 3.55q.15.9.71.18.21-.27.19-.58-.02-.52.5-.52.44 0 .84.21.6.32.5-.35-.1-.65-.49-1.25-.46-.71-.15-1.39.3-.66.93-.28 1.99 1.2 4.08.35a1.71 1.71 0 0 1 2.35 1.59l.01 6.1q0 .51.43.78.74.45 1.03 1.33.28.87.95.25 1.31-1.2.8-2.93-.52-1.77.7-3.23.12-.13.3-.11l.28.03q.45.06.68-.33l1.43-2.47a1.14 1.13 43.4 0 1 1.93-.05l1.27 1.95q.3.46.85.54 1.61.23 2.57-.36.27-.18.24-.5l-.19-1.63a.37.37 0 0 0-.57-.27l-.31.19q-.76.47-.77-.42l-.01-5.69q0-.72.53-1.21 1.02-.92 2.2-1.29M289.17 254.76q-1.72-2.96-1.07-4.8.51-1.44.53-3.02 0-.5-.43-.24-.26.16-.32.44-.26 1.2-.61.02-.42-1.42-2.01-1.17a1.02.94-37.9 0 1-.48-.04q-.94-.33-.87-.87.08-.61.56-1.02.85-.72 1.44-1.57a.88.87 29.9 0 0-.35-1.29l-3.06-1.41a.76.76 0 0 1-.38-.99l1.42-3.29q.14-.33-.16-.14l-.28.19q-.45.28-.92.05l-1.6-.76q-.51-.25-.55-.83-.16-2.18.96-4.38a1.12 1.11-81.3 0 0-1.18-1.61q-1 .18-.86 1.5.15 1.38-1.17.97-.47-.15-.95-.04-.52.12-.77-.35-.92-1.69-2.43-2.93-.43-.35-.52.2c-.25 1.34.43 2.32.23 3.63q-.32 2.04-1.5 3.4-.4.45.05.86 1.02.94.57 2.11-.19.51.35.53 1.38.05 2.47.85.44.32.32.85-.69 3.28-2.82 5.32-.38.36-.29.89l.07.42q.12.66-.55.69l-.94.04a.92.92 0 0 1-.88-.57q-.38-.94-1.04-1.78-.79-1-.91.27-.25 2.88-3.36 3.26a1.9 1.84-21.3 0 0-1.35 2.94q.29.4.3.89.01.58-.41.98-.64.61-.98 1.37-1.34 2.99-2.21-.17-.32-1.13-.33-2.28a.38.38 0 0 0-.43-.38q-1.62.24-3.08-.8a.79.78 34.8 0 1-.2-1.09q.38-.55.54-1.14.13-.5-.15-.93c-.68-1.05-1.23-1.85-1.28-3.18q-.08-2.37-.13-4.74-.02-.55-.28-1.03-.93-1.69-.19-3.48a.64.63-61.4 0 0-.22-.76q-.71-.5-1.46.05-.79.56-.88-.4l-.22-2.36a.62.61 16.6 0 0-.25-.45q-.44-.33-.86-.23-.54.14-.32.65l.18.41q.2.48-.16.84-.55.55-.67 1.31-.16 1-.93.33-.13-.11-.3-.1-.87.05-.49.84l1.09 2.27q.24.48.76.55.67.1.89.73a.99.98-30.9 0 1-.27 1.05q-1.75 1.58-2.76 3.55-.32.62-.66.02l-1.11-1.95a.41.41 0 0 0-.74.06q-.56 1.44-2.25 1.61-1.84.17-1.64 1.85a1.85 1.82-28.6 0 1-.43 1.42l-1.05 1.22q-.83.96-.94-.31l-.22-2.71a.54.53-80.1 0 0-.3-.43q-.36-.18-.56.1-.47.68-.72-.11-.3-.96.02-1.94.27-.84-.49-1.28-.48-.28-.24-.76.5-1.02-.41-1.7-1.21-.93-.11-1.94a1.29 1.29 0 0 0 .14-1.75q-.82-1.02-.38-2.21.39-1.06-.68-1.43l-1.11-.38q-.59-.2-.75-.81l-.37-1.49a.35.35 0 0 0-.69.07c-.14 2.54-1.66 4.53-.48 6.95q.25.53.04 1.07-.7 1.79-2.67 1.92-1.92.13-3.29 1.4-.34.32-.25.77.41 1.92-.48 3.84-.26.56-.77.21-.87-.59-1.39-1.51a1.28 1.26-.5 0 0-.55-.53q-1.72-.87-2.62-2.99-.2-.46-.26-.93-.07-.57-.55-.89a.63.63 0 0 1-.24-.76q.16-.37.18-.77.04-.62-.49-.95-2.01-1.23-.45-3.26.16-.21.04-.44-.08-.15-.22-.23-.37-.24-.67.08l-1 1.1a.58.56-49.6 0 1-.77.07q-.84-.66-1.28-1.77-.66-1.64-.85.12l-.52 4.61q-.08.64.5.94l1.23.62q.64.33.56 1.03-.26 2.25-1.4 4.19-.17.29-.49.43-.26.1-.52.21-.43.19-.61.61-1.52 3.6-.2 6.86.76 1.87-.96.81-.44-.27-.94-.2-.52.07-.65.58-.23.88-1.09.6c-.75-.25-1.54-.15-2.24.2M79.16 144.71q2.08-.45 2.45-1.8.12-.46.48-.79 1.32-1.2.75-3.31-.47-1.73-2.03-1.25-.4.13-.65-.21-1.47-2.06-1.2-4.44.06-.59.62-.78l.6-.21q.44-.15.63-.57l1.67-3.6q.18-.39-.05-.74-.32-.48-1.18-.55M83.67 122.5l.44 2.52q.13.69.75.38.38-.19.82.13a1.08 1-87.6 0 1 .22.26q1.1 2.04 1.27 4.13.06.77.6 1.41.46.55 1.13.61.8.07.65-.72l-.09-.45q-.12-.62.51-.62 2.16.01 3.96-1.16a.51.51 0 0 1 .79.38q.33 3.43-.71 6.83-.06.2.06.36.18.25.48.15.47-.16.38-.65-.06-.37.2-.6.53-.45.59.24.12 1.45 1.57 1.37 2.98-.18 1.03 2.05-.54.61-1.06 1.23a.97.97 0 0 0 .33 1.51l2.99 1.39a.63.63 0 0 1 .32.82l-1.27 3.08q-.18.44.27.3 1.22-.37 2.77 1.01a.99.98-68.7 0 1 .34.79q-.1 1.97-.93 4.23-.45 1.25.76 1.56a.92.92 0 0 0 1.14-.83l.11-1.44q.05-.69.66-.35t1.25.05q.72-.33.99.41.49 1.34 1.54 2.18 2.15 1.75 1.35-.91-.95-3.17 1.36-5.58.41-.43-.08-.78-1.18-.85-.67-2.12.19-.5-.34-.52-1.34-.06-2.35-.83-.39-.3-.32-.78.44-3.31 2.67-5.39.44-.41.38-1-.02-.16-.09-.3-.37-.71.41-.86.92-.18 1.65.18.42.2.51.66.27 1.26 1.3 1.88.59.35.57-.34-.08-3.15 3.34-3.6a1.88 1.79-20.7 0 0 1.36-2.83q-.34-.49-.34-1.08a1.36 1.33 67.9 0 1 .39-.95q1.04-1.02 1.53-2.42.21-.6.74-.25.7.47.88 1.33.25 1.16.23 2.31 0 .61.61.56 1.52-.13 2.87.88.58.43.28 1.08-.88 1.89.5 3.46.37.41.39.97l.14 5.81q.01.5.31.9 1.13 1.49.05 3.3-.3.5.18.84.89.64 1.78-.21a.44.44 0 0 1 .74.29l.16 2.49q.05.7.75.71l.48.01q.52.01.34-.48-.51-1.39.99-3.07a.26.26 0 0 1 .37-.02q.15.15.35.22.73.25.6-.51-.39-2.22-2.34-3.37a1.03 1.03 0 0 1-.21-1.6l2.49-2.57q.33-.35.21-.81-.07-.29.14-.42.64-.41.79.33.21 1.01.89 1.72.5.52.8-.14l.21-.47q.25-.57.87-.65 1.11-.13 2.13-.64.59-.3.58-.96-.04-2.22 1.79-3.25a.56.55-15.6 0 1 .83.46l.08 2.44q.01.59.56.37.18-.08.35-.15a.6.6 0 0 1 .81.67q-.39 1.96.59 3.25.33.44.02.89-.18.26-.11.57.12.47.54.73.37.23.47.64.13.56-.21 1.02-1.1 1.52.2 2.87a.78.78 0 0 1 .1.96q-.33.52-.39 1.13a.64.64 0 0 0 .46.69l1.67.51q.56.17.66.74l.23 1.28q.01.09.07.16.12.15.27.14.45-.01.46-.46.05-2.11.87-3.89.22-.48.09-1l-.4-1.58a2.65 2.64 84.2 0 1 2.69-3.3q1.53.07 3.09-1.24.41-.35.26-.86-.55-1.86.65-3.85.3-.52.77-.14.74.58 1 1.49a.74.65-75.1 0 0 .14.28q.43.51.84.31.67-.33.96.36.53 1.27 1.48 2.26.43.45.17 1.01-.09.2-.08.42.04.55.59.56.42 0 .56.38.13.4-.14.71-.42.47-.35 1.05a.79.79 0 0 0 .41.62l1.04.58q.63.35.27.98-.36.61-.56 1.27-.52 1.76.94.65.44-.34.81-.75.45-.5.95-.05.58.53.87 1.27.92 2.36 1.13-.23l.3-3.93q.04-.52-.31-.9-.46-.51-1.12-.77-1.07-.42-.73-1.53l1.12-3.54q.15-.47.61-.65l.72-.27q.33-.13.47-.47 1.79-4.24.09-7.71-.16-.34.17-.52.36-.19.67.07.46.38 1.03.42.74.06.76-.69 0-.2.1-.37.25-.42.7-.22l4.79 2.15q.27.12.56.05.14-.04.27-.11.79-.41.84.51.01.2.14.36.47.56.73-.12.95-2.53 2.89-3.73a.65.65 0 0 0 .25-.79q-.27-.67-1-.79-.79-.13-.93-.91l-.27-1.49q-.14-.75-.67-.2-.89.93-1.33 2.13-.22.61-.75.23-.69-.49-.67-1.26c.04-2.38.43-6.33-1.9-7.75q-.44-.27-.32-.77.98-4.08 3.93-7.15.32-.34.24-.79l-.39-2.16q-.13-.78-.92-.79h-.39q-.46-.01-.51.44l-.21 1.76q-.1.86-.76.3l-3.67-3.12q-.41-.35-.45-.89l-.15-1.8q-.07-.89-.75-.3-1.06.92-2.13 1.88-.97.87-1.08-.42-.01-.19-.15-.35-.36-.38-.52.12l-1.18 3.76a.9.89-47.2 0 0 .02.61l.67 1.73q.24.6-.11 1.15-.82 1.3-2.6 1.17-.61-.05-.78-.64c-.64-2.15-1.77-2.94-2.7-4.78q-.43-.84-.39-1.79.12-2.69-.42-5.89-.31-1.9-2.05-1.55-.67.13-.71-.55-.05-.95-.54-1.76-.42-.71.29-1.12l5.86-3.43a.93.92 77.8 0 0 .46-.73q.12-1.49-1.36-1.94-.5-.15-.63-.65-.53-1.94.77-3.35.29-.32.31-.75.1-2.2 1.22-4.05.33-.54.01-1.08l-.75-1.27q-.48-.83-.61.12-.02.17-.07.33-.25.81-.75.13-1.06-1.47-1.29-3.16M174.29 72.57q.62 3.37 6 .42.43-.24.2-.67-.62-1.19-.69-2.47M220.42 309.84q.78-3.13-.61-5.32-.14-.22-.39-.21a.35.34 86.3 0 0-.34.39q.05.33-.08.64-.3.77-.69.04c-.46-.86-.92-1.69-.49-2.68.77-1.73.91-3.49 1.74-5.19q1.22-2.51-.92-3.89a1.36 1.36 0 0 1 .04-2.31l5.78-3.47q.47-.28.18-.73-.62-.97-.75-2.19-.06-.64-.68-.46-.16.04-.28.15-.44.41-.88-.01c-1.6-1.53-1.25-6.64-1.41-8.66q-.04-.49-.36-.86-1.72-1.99-2.29-3.88-.5-1.65-2.15-1.17l-.39.12q-1.94.56-1.08 2.39 1.19 2.51-.84 5.64-.45.69-.39-.13.02-.36-.24-.55-.35-.27-.69.02l-2.39 2.03q-.67.57-.73-.31l-.15-2.01a1.09 1.08 13.3 0 0-.54-.86q-2.05-1.17-3.58-3.1a.44.44 0 0 0-.79.25l-.11 1.88q-.03.41-.43.5l-.47.1a.75.74-10.3 0 1-.91-.62l-.33-2.38q-.06-.43.22-.75 2.62-2.98 3.75-7.09.13-.47-.27-.76-2.36-1.67-1.81-4.19.45-2.07.37-2.92" vector-effect="non-scaling-stroke"/><path d="M293.23 106.27q.32.7 1.02 3.43.24.95 1.05.96.52 0 .59-.51.17-1.36.82-2.46M298.84 108.83q.42 2.57 1.78 4.05.59.63 1.26-.12M211.04 312.64q-1.25-2.16-3.26-3.93-.37-.33-.86-.23-2.18.45-4.17 1.66-.49.3-.22.81.52.99.58 2.03.04.63.64.83 1.02.32 1.31 1.08M204.73 307.51a.29.29 0 0 0-.29-.29.29.29 0 0 0-.29.29.29.29 0 0 0 .29.29.29.29 0 0 0 .29-.29" vector-effect="non-scaling-stroke"/></g><path d="M220.85 70.23q-1.4 1.91-3.1 3.53-.77.73-.77 2.47 0 .77.69.43l.41-.21q.56-.28.82.29.06.15.05.32a.57.56 11.8 0 0 .4.6q2.27.69 1.51 2.95-1.21 3.55-1.45 6.77-.05.7.46.22.84-.79 1.21-1.95.18-.58.8-.57 1.07.02 1.83.96 1.03 1.29 1.27-.35.04-.22.21-.36.65-.54.69.31.17 3.64 1.99 6.87a.55.55 0 0 0 .99-.07l.68-1.75q.2-.53-.34-.68l-.85-.24a.29.29 0 0 1-.08-.53q1.91-1.22 1.84-3.53a.68.67 5.7 0 1 .83-.67q.6.14 1.1.47.57.37 1.06-.1l.52-.5q.4-.38-.1-.61l-.98-.46q-.42-.19-.46-.65-.12-1.3.57-2.37.32-.48.18-1.05-.3-1.25-1.54-1.59-.54-.15-1.03.12l-.51.27q-.68.36-.77-.4-.37-2.99 1.83-4.91L239.3 72q-.21 2.04 1.06 2.5.52.2.55-.36.06-1.1-.43-2.03 4.1-.67 7.36 1.81 3.75 2.86 6.56 5.39.64 3.74.12 6.3-.12.58-.47.17-.12-.13-.32-.16-.57-.06-.33.47 1.11 2.48-.36 4.43-.39.51-.08 1.08 1.01 1.85-.23 3.18-.35.37-.29.88.29 2.34 1.91 2.69.63.14.19.62-.6.65-.35 1.33.26.7.72.11 1.05-1.34 2.32-.92.36.12.59-.18 1.63-2.03-.39-3.45a1 1 0 0 1-.25-1.36q.51-.77 1.33-.17 1.15.84 1.88-.18 1.54-2.13 1.58.47.01.7.04 1.45.01.6.61.5 1.43-.25 2.54 1.06.39.45.97.29 1.07-.3.94-1.61-.17-1.59 1.23-.88.32.17.58-.09.65-.65.71.27.17 3.14.16 6.15-.01 1.77-1.03 4.27-1.63 4-.61 8.37a.38.37 71 0 0 .53.26l1.87-.87q.54-.26.31-.81l-.4-.99q-.22-.54.14-1 .95-1.24 2.51-.92.64.14.86.75.44 1.24 1.48 1.99a.97.97 0 0 0 1.54-.79q0-.34.22-.6.57-.7.79.17c.51 1.97 1.25 3.66.69 5.78q-.58 2.17-1 4.28c-.23 1.21.27 2.37.47 3.55q.15.9.71.18.21-.27.19-.58-.02-.52.5-.52.44 0 .84.21.6.32.5-.35-.1-.65-.49-1.25-.46-.71-.15-1.39.3-.66.93-.28 1.99 1.2 4.08.35a1.71 1.71 0 0 1 2.35 1.59l.01 6.1q0 .51.43.78.74.45 1.03 1.33.28.87.95.25 1.31-1.2.8-2.93-.52-1.77.7-3.23.12-.13.3-.11l.28.03q.45.06.68-.33l1.43-2.47a1.14 1.13 43.4 0 1 1.93-.05l1.27 1.95q.3.46.85.54 1.61.23 2.57-.36.27-.18.24-.5l-.19-1.63a.37.37 0 0 0-.57-.27l-.31.19q-.76.47-.77-.42l-.01-5.69q0-.72.53-1.21 1.02-.92 2.2-1.29c1.72 7.58.28 13.49-.85 20.47-.32 2.01 1.65 4.5 2.75 6.13q.36.52.35 1.16-.08 8.41.05 16.82.08 5.22-1.04 11.58-4.23 24.12-8.66 50.74-1.28 7.69-2.91 16.91-1.51 8.49-2.45 17.11-1.72-2.96-1.07-4.8.51-1.44.53-3.02 0-.5-.43-.24-.26.16-.32.44-.26 1.2-.61.02-.42-1.42-2.01-1.17a1.02.94-37.9 0 1-.48-.04q-.94-.33-.87-.87.08-.61.56-1.02.85-.72 1.44-1.57a.88.87 29.9 0 0-.35-1.29l-3.06-1.41a.76.76 0 0 1-.38-.99l1.42-3.29q.14-.33-.16-.14l-.28.19q-.45.28-.92.05l-1.6-.76q-.51-.25-.55-.83-.16-2.18.96-4.38a1.12 1.11-81.3 0 0-1.18-1.61q-1 .18-.86 1.5.15 1.38-1.17.97-.47-.15-.95-.04-.52.12-.77-.35-.92-1.69-2.43-2.93-.43-.35-.52.2c-.25 1.34.43 2.32.23 3.63q-.32 2.04-1.5 3.4-.4.45.05.86 1.02.94.57 2.11-.19.51.35.53 1.38.05 2.47.85.44.32.32.85-.69 3.28-2.82 5.32-.38.36-.29.89l.07.42q.12.66-.55.69l-.94.04a.92.92 0 0 1-.88-.57q-.38-.94-1.04-1.78-.79-1-.91.27-.25 2.88-3.36 3.26a1.9 1.84-21.3 0 0-1.35 2.94q.29.4.3.89.01.58-.41.98-.64.61-.98 1.37-1.34 2.99-2.21-.17-.32-1.13-.33-2.28a.38.38 0 0 0-.43-.38q-1.62.24-3.08-.8a.79.78 34.8 0 1-.2-1.09q.38-.55.54-1.14.13-.5-.15-.93c-.68-1.05-1.23-1.85-1.28-3.18q-.08-2.37-.13-4.74-.02-.55-.28-1.03-.93-1.69-.19-3.48a.64.63-61.4 0 0-.22-.76q-.71-.5-1.46.05-.79.56-.88-.4l-.22-2.36a.62.61 16.6 0 0-.25-.45q-.44-.33-.86-.23-.54.14-.32.65l.18.41q.2.48-.16.84-.55.55-.67 1.31-.16 1-.93.33-.13-.11-.3-.1-.87.05-.49.84l1.09 2.27q.24.48.76.55.67.1.89.73a.99.98-30.9 0 1-.27 1.05q-1.75 1.58-2.76 3.55-.32.62-.66.02l-1.11-1.95a.41.41 0 0 0-.74.06q-.56 1.44-2.25 1.61-1.84.17-1.64 1.85a1.85 1.82-28.6 0 1-.43 1.42l-1.05 1.22q-.83.96-.94-.31l-.22-2.71a.54.53-80.1 0 0-.3-.43q-.36-.18-.56.1-.47.68-.72-.11-.3-.96.02-1.94.27-.84-.49-1.28-.48-.28-.24-.76.5-1.02-.41-1.7-1.21-.93-.11-1.94a1.29 1.29 0 0 0 .14-1.75q-.82-1.02-.38-2.21.39-1.06-.68-1.43l-1.11-.38q-.59-.2-.75-.81l-.37-1.49a.35.35 0 0 0-.69.07c-.14 2.54-1.66 4.53-.48 6.95q.25.53.04 1.07-.7 1.79-2.67 1.92-1.92.13-3.29 1.4-.34.32-.25.77.41 1.92-.48 3.84-.26.56-.77.21-.87-.59-1.39-1.51a1.28 1.26-.5 0 0-.55-.53q-1.72-.87-2.62-2.99-.2-.46-.26-.93-.07-.57-.55-.89a.63.63 0 0 1-.24-.76q.16-.37.18-.77.04-.62-.49-.95-2.01-1.23-.45-3.26.16-.21.04-.44-.08-.15-.22-.23-.37-.24-.67.08l-1 1.1a.58.56-49.6 0 1-.77.07q-.84-.66-1.28-1.77-.66-1.64-.85.12l-.52 4.61q-.08.64.5.94l1.23.62q.64.33.56 1.03-.26 2.25-1.4 4.19-.17.29-.49.43-.26.1-.52.21-.43.19-.61.61-1.52 3.6-.2 6.86.76 1.87-.96.81-.44-.27-.94-.2-.52.07-.65.58-.23.88-1.09.6c-.75-.25-1.54-.15-2.24.2q-.74-10.14-1.78-20.27-.67-6.42-1.45-9.13-1.73-5.95-6.29-8.99-2.97-1.98-9.22-2.96c-7.99-1.26-15.49-1.35-23.21-1.2-3.02.05-6.81-1.58-9.26-3.62q-12.15-10.17-19.84-15.55-13.33-9.32-29.19-10.79-5.11-.48-7.64-1.22-13.4-3.93-16.55-17.07-1.07-4.48-.57-8.86c.33-2.93-.67-5.44-1.63-8.16q2.08-.45 2.45-1.8.12-.46.48-.79 1.32-1.2.75-3.31-.47-1.73-2.03-1.25-.4.13-.65-.21-1.47-2.06-1.2-4.44.06-.59.62-.78l.6-.21q.44-.15.63-.57l1.67-3.6q.18-.39-.05-.74-.32-.48-1.18-.55l2.42-3.96.44 2.52q.13.69.75.38.38-.19.82.13a1.08 1-87.6 0 1 .22.26q1.1 2.04 1.27 4.13.06.77.6 1.41.46.55 1.13.61.8.07.65-.72l-.09-.45q-.12-.62.51-.62 2.16.01 3.96-1.16a.51.51 0 0 1 .79.38q.33 3.43-.71 6.83-.06.2.06.36.18.25.48.15.47-.16.38-.65-.06-.37.2-.6.53-.45.59.24.12 1.45 1.57 1.37 2.98-.18 1.03 2.05-.54.61-1.06 1.23a.97.97 0 0 0 .33 1.51l2.99 1.39a.63.63 0 0 1 .32.82l-1.27 3.08q-.18.44.27.3 1.22-.37 2.77 1.01a.99.98-68.7 0 1 .34.79q-.1 1.97-.93 4.23-.45 1.25.76 1.56a.92.92 0 0 0 1.14-.83l.11-1.44q.05-.69.66-.35t1.25.05q.72-.33.99.41.49 1.34 1.54 2.18 2.15 1.75 1.35-.91-.95-3.17 1.36-5.58.41-.43-.08-.78-1.18-.85-.67-2.12.19-.5-.34-.52-1.34-.06-2.35-.83-.39-.3-.32-.78.44-3.31 2.67-5.39.44-.41.38-1-.02-.16-.09-.3-.37-.71.41-.86.92-.18 1.65.18.42.2.51.66.27 1.26 1.3 1.88.59.35.57-.34-.08-3.15 3.34-3.6a1.88 1.79-20.7 0 0 1.36-2.83q-.34-.49-.34-1.08a1.36 1.33 67.9 0 1 .39-.95q1.04-1.02 1.53-2.42.21-.6.74-.25.7.47.88 1.33.25 1.16.23 2.31 0 .61.61.56 1.52-.13 2.87.88.58.43.28 1.08-.88 1.89.5 3.46.37.41.39.97l.14 5.81q.01.5.31.9 1.13 1.49.05 3.3-.3.5.18.84.89.64 1.78-.21a.44.44 0 0 1 .74.29l.16 2.49q.05.7.75.71l.48.01q.52.01.34-.48-.51-1.39.99-3.07a.26.26 0 0 1 .37-.02q.15.15.35.22.73.25.6-.51-.39-2.22-2.34-3.37a1.03 1.03 0 0 1-.21-1.6l2.49-2.57q.33-.35.21-.81-.07-.29.14-.42.64-.41.79.33.21 1.01.89 1.72.5.52.8-.14l.21-.47q.25-.57.87-.65 1.11-.13 2.13-.64.59-.3.58-.96-.04-2.22 1.79-3.25a.56.55-15.6 0 1 .83.46l.08 2.44q.01.59.56.37.18-.08.35-.15a.6.6 0 0 1 .81.67q-.39 1.96.59 3.25.33.44.02.89-.18.26-.11.57.12.47.54.73.37.23.47.64.13.56-.21 1.02-1.1 1.52.2 2.87a.78.78 0 0 1 .1.96q-.33.52-.39 1.13a.64.64 0 0 0 .46.69l1.67.51q.56.17.66.74l.23 1.28q.01.09.07.16.12.15.27.14.45-.01.46-.46.05-2.11.87-3.89.22-.48.09-1l-.4-1.58a2.65 2.64 84.2 0 1 2.69-3.3q1.53.07 3.09-1.24.41-.35.26-.86-.55-1.86.65-3.85.3-.52.77-.14.74.58 1 1.49a.74.65-75.1 0 0 .14.28q.43.51.84.31.67-.33.96.36.53 1.27 1.48 2.26.43.45.17 1.01-.09.2-.08.42.04.55.59.56.42 0 .56.38.13.4-.14.71-.42.47-.35 1.05a.79.79 0 0 0 .41.62l1.04.58q.63.35.27.98-.36.61-.56 1.27-.52 1.76.94.65.44-.34.81-.75.45-.5.95-.05.58.53.87 1.27.92 2.36 1.13-.23l.3-3.93q.04-.52-.31-.9-.46-.51-1.12-.77-1.07-.42-.73-1.53l1.12-3.54q.15-.47.61-.65l.72-.27q.33-.13.47-.47 1.79-4.24.09-7.71-.16-.34.17-.52.36-.19.67.07.46.38 1.03.42.74.06.76-.69 0-.2.1-.37.25-.42.7-.22l4.79 2.15q.27.12.56.05.14-.04.27-.11.79-.41.84.51.01.2.14.36.47.56.73-.12.95-2.53 2.89-3.73a.65.65 0 0 0 .25-.79q-.27-.67-1-.79-.79-.13-.93-.91l-.27-1.49q-.14-.75-.67-.2-.89.93-1.33 2.13-.22.61-.75.23-.69-.49-.67-1.26c.04-2.38.43-6.33-1.9-7.75q-.44-.27-.32-.77.98-4.08 3.93-7.15.32-.34.24-.79l-.39-2.16q-.13-.78-.92-.79h-.39q-.46-.01-.51.44l-.21 1.76q-.1.86-.76.3l-3.67-3.12q-.41-.35-.45-.89l-.15-1.8q-.07-.89-.75-.3-1.06.92-2.13 1.88-.97.87-1.08-.42-.01-.19-.15-.35-.36-.38-.52.12l-1.18 3.76a.9.89-47.2 0 0 .02.61l.67 1.73q.24.6-.11 1.15-.82 1.3-2.6 1.17-.61-.05-.78-.64c-.64-2.15-1.77-2.94-2.7-4.78q-.43-.84-.39-1.79.12-2.69-.42-5.89-.31-1.9-2.05-1.55-.67.13-.71-.55-.05-.95-.54-1.76-.42-.71.29-1.12l5.86-3.43a.93.92 77.8 0 0 .46-.73q.12-1.49-1.36-1.94-.5-.15-.63-.65-.53-1.94.77-3.35.29-.32.31-.75.1-2.2 1.22-4.05.33-.54.01-1.08l-.75-1.27q-.48-.83-.61.12-.02.17-.07.33-.25.81-.75.13-1.06-1.47-1.29-3.16c2.74 1.38 7.62 5.23 9.91 1.19q1.63-2.88 2.45-3.79.62 3.37 6 .42.43-.24.2-.67-.62-1.19-.69-2.47 1.88.01 4.51 1.06c2.04.82 4.83.64 6.88-.28q6.68-3.01 14.9-1.86c3.27.46 6.48-3.75 9.42-.59q.31.33.74.47z"/><path fill="#630c72" d="M179.8 69.85q.07 1.28.69 2.47.23.43-.2.67-5.38 2.95-6-.42 1.66-2.95 5.51-2.72M220.85 70.23l9.96 3.03q-2.2 1.92-1.83 4.91.09.76.77.4l.51-.27q.49-.27 1.03-.12 1.24.34 1.54 1.59.14.57-.18 1.05-.69 1.07-.57 2.37.04.46.46.65l.98.46q.5.23.1.61l-.52.5q-.49.47-1.06.1-.5-.33-1.1-.47a.68.67 5.7 0 0-.83.67q.07 2.31-1.84 3.53a.29.29 0 0 0 .08.53l.85.24q.54.15.34.68l-.68 1.75a.55.55 0 0 1-.99.07q-1.82-3.23-1.99-6.87-.04-.85-.69-.31-.17.14-.21.36-.24 1.64-1.27.35-.76-.94-1.83-.96-.62-.01-.8.57-.37 1.16-1.21 1.95-.51.48-.46-.22.24-3.22 1.45-6.77.76-2.26-1.51-2.95a.57.56 11.8 0 1-.4-.6q.01-.17-.05-.32-.26-.57-.82-.29l-.41.21q-.69.34-.69-.43 0-1.74.77-2.47 1.7-1.62 3.1-3.53M240.48 72.11q.49.93.43 2.03-.03.56-.55.36-1.27-.46-1.06-2.5zM161.93 75.17q.23 1.69 1.29 3.16.5.68.75-.13.05-.16.07-.33.13-.95.61-.12l.75 1.27q.32.54-.01 1.08-1.12 1.85-1.22 4.05-.02.43-.31.75-1.3 1.41-.77 3.35.13.5.63.65 1.48.45 1.36 1.94a.93.92 77.8 0 1-.46.73L158.76 95q-.71.41-.29 1.12.49.81.54 1.76.04.68.71.55 1.74-.35 2.05 1.55.54 3.2.42 5.89-.04.95.39 1.79c.93 1.84 2.06 2.63 2.7 4.78q.17.59.78.64 1.78.13 2.6-1.17.35-.55.11-1.15l-.67-1.73a.9.89-47.2 0 1-.02-.61l1.18-3.76q.16-.5.52-.12.14.16.15.35.11 1.29 1.08.42 1.07-.96 2.13-1.88.68-.59.75.3l.15 1.8q.04.54.45.89l3.67 3.12q.66.56.76-.3l.21-1.76q.05-.45.51-.44h.39q.79.01.92.79l.39 2.16q.08.45-.24.79-2.95 3.07-3.93 7.15-.12.5.32.77c2.33 1.42 1.94 5.37 1.9 7.75q-.02.77.67 1.26.53.38.75-.23.44-1.2 1.33-2.13.53-.55.67.2l.27 1.49q.14.78.93.91.73.12 1 .79a.65.65 0 0 1-.25.79q-1.94 1.2-2.89 3.73-.26.68-.73.12-.13-.16-.14-.36-.05-.92-.84-.51-.13.07-.27.11-.29.07-.56-.05l-4.79-2.15q-.45-.2-.7.22-.1.17-.1.37-.02.75-.76.69-.57-.04-1.03-.42-.31-.26-.67-.07-.33.18-.17.52 1.7 3.47-.09 7.71-.14.34-.47.47l-.72.27q-.46.18-.61.65l-1.12 3.54q-.34 1.11.73 1.53.66.26 1.12.77.35.38.31.9l-.3 3.93q-.21 2.59-1.13.23-.29-.74-.87-1.27-.5-.45-.95.05-.37.41-.81.75-1.46 1.11-.94-.65.2-.66.56-1.27.36-.63-.27-.98l-1.04-.58a.79.79 0 0 1-.41-.62q-.07-.58.35-1.05.27-.31.14-.71-.14-.38-.56-.38-.55-.01-.59-.56-.01-.22.08-.42.26-.56-.17-1.01-.95-.99-1.48-2.26-.29-.69-.96-.36-.41.2-.84-.31a.74.65-75.1 0 1-.14-.28q-.26-.91-1-1.49-.47-.38-.77.14-1.2 1.99-.65 3.85.15.51-.26.86-1.56 1.31-3.09 1.24a2.65 2.64 84.2 0 0-2.69 3.3l.4 1.58q.13.52-.09 1-.82 1.78-.87 3.89-.01.45-.46.46-.15.01-.27-.14-.06-.07-.07-.16l-.23-1.28q-.1-.57-.66-.74l-1.67-.51a.64.64 0 0 1-.46-.69q.06-.61.39-1.13a.78.78 0 0 0-.1-.96q-1.3-1.35-.2-2.87.34-.46.21-1.02-.1-.41-.47-.64-.42-.26-.54-.73-.07-.31.11-.57.31-.45-.02-.89-.98-1.29-.59-3.25a.6.6 0 0 0-.81-.67q-.17.07-.35.15-.55.22-.56-.37l-.08-2.44a.56.55-15.6 0 0-.83-.46q-1.83 1.03-1.79 3.25.01.66-.58.96-1.02.51-2.13.64-.62.08-.87.65l-.21.47q-.3.66-.8.14-.68-.71-.89-1.72-.15-.74-.79-.33-.21.13-.14.42.12.46-.21.81l-2.49 2.57a1.03 1.03 0 0 0 .21 1.6q1.95 1.15 2.34 3.37.13.76-.6.51-.2-.07-.35-.22a.26.26 0 0 0-.37.02q-1.5 1.68-.99 3.07.18.49-.34.48l-.48-.01q-.7-.01-.75-.71l-.16-2.49a.44.44 0 0 0-.74-.29q-.89.85-1.78.21-.48-.34-.18-.84 1.08-1.81-.05-3.3-.3-.4-.31-.9l-.14-5.81q-.02-.56-.39-.97-1.38-1.57-.5-3.46.3-.65-.28-1.08-1.35-1.01-2.87-.88-.61.05-.61-.56.02-1.15-.23-2.31-.18-.86-.88-1.33-.53-.35-.74.25-.49 1.4-1.53 2.42a1.36 1.33 67.9 0 0-.39.95q0 .59.34 1.08a1.88 1.79-20.7 0 1-1.36 2.83q-3.42.45-3.34 3.6.02.69-.57.34-1.03-.62-1.3-1.88-.09-.46-.51-.66-.73-.36-1.65-.18-.78.15-.41.86.07.14.09.3.06.59-.38 1-2.23 2.08-2.67 5.39-.07.48.32.78 1.01.77 2.35.83.53.02.34.52-.51 1.27.67 2.12.49.35.08.78-2.31 2.41-1.36 5.58.8 2.66-1.35.91-1.05-.84-1.54-2.18-.27-.74-.99-.41-.64.29-1.25-.05t-.66.35l-.11 1.44a.92.92 0 0 1-1.14.83q-1.21-.31-.76-1.56.83-2.26.93-4.23a.99.98-68.7 0 0-.34-.79q-1.55-1.38-2.77-1.01-.45.14-.27-.3l1.27-3.08a.63.63 0 0 0-.32-.82l-2.99-1.39a.97.97 0 0 1-.33-1.51q.52-.62 1.06-1.23 1.95-2.23-1.03-2.05-1.45.08-1.57-1.37-.06-.69-.59-.24-.26.23-.2.6.09.49-.38.65-.3.1-.48-.15-.12-.16-.06-.36 1.04-3.4.71-6.83a.51.51 0 0 0-.79-.38q-1.8 1.17-3.96 1.16-.63 0-.51.62l.09.45q.15.79-.65.72-.67-.06-1.13-.61-.54-.64-.6-1.41-.17-2.09-1.27-4.13a1.08 1-87.6 0 0-.22-.26q-.44-.32-.82-.13-.62.31-.75-.38l-.44-2.52c3.84-7.88 7.15-13 15.32-14.93q13.67-3.23 27.64-7.03c10.16-2.77 19.13-7.88 22.22-18.48q.74-2.52 1.22-5.16.11-.62.58-1.03 5.14-4.54 11.28-.7M254.4 79.31q4.09 2.47 8.73 3.31 8.4 1.52 16.82 2.9 2.02.33 3.19 1.91.8 1.09.79 3.33c-.06 7.11 1.47 13.54 9.3 15.51q.32.7 1.02 3.43.24.95 1.05.96.52 0 .59-.51.17-1.36.82-2.46 1.55.49 2.13 1.14.42 2.57 1.78 4.05.59.63 1.26-.12l.05 1.08q-1.18.37-2.2 1.29-.53.49-.53 1.21l.01 5.69q.01.89.77.42l.31-.19a.37.37 0 0 1 .57.27l.19 1.63q.03.32-.24.5-.96.59-2.57.36-.55-.08-.85-.54l-1.27-1.95a1.14 1.13 43.4 0 0-1.93.05l-1.43 2.47q-.23.39-.68.33l-.28-.03q-.18-.02-.3.11-1.22 1.46-.7 3.23.51 1.73-.8 2.93-.67.62-.95-.25-.29-.88-1.03-1.33-.43-.27-.43-.78l-.01-6.1a1.71 1.71 0 0 0-2.35-1.59q-2.09.85-4.08-.35-.63-.38-.93.28-.31.68.15 1.39.39.6.49 1.25.1.67-.5.35-.4-.21-.84-.21-.52 0-.5.52.02.31-.19.58-.56.72-.71-.18c-.2-1.18-.7-2.34-.47-3.55q.42-2.11 1-4.28c.56-2.12-.18-3.81-.69-5.78q-.22-.87-.79-.17-.22.26-.22.6a.97.97 0 0 1-1.54.79q-1.04-.75-1.48-1.99-.22-.61-.86-.75-1.56-.32-2.51.92-.36.46-.14 1l.4.99q.23.55-.31.81l-1.87.87a.38.37 71 0 1-.53-.26q-1.02-4.37.61-8.37 1.02-2.5 1.03-4.27.01-3.01-.16-6.15-.06-.92-.71-.27-.26.26-.58.09-1.4-.71-1.23.88.13 1.31-.94 1.61-.58.16-.97-.29-1.11-1.31-2.54-1.06-.6.1-.61-.5-.03-.75-.04-1.45-.04-2.6-1.58-.47-.73 1.02-1.88.18-.82-.6-1.33.17a1 1 0 0 0 .25 1.36q2.02 1.42.39 3.45-.23.3-.59.18-1.27-.42-2.32.92-.46.59-.72-.11-.25-.68.35-1.33.44-.48-.19-.62-1.62-.35-1.91-2.69-.06-.51.29-.88 1.24-1.33.23-3.18-.31-.57.08-1.08 1.47-1.95.36-4.43-.24-.53.33-.47.2.03.32.16.35.41.47-.17.52-2.56-.12-6.3"/><path d="M296.71 107.69q-.65 1.1-.82 2.46-.07.51-.59.51-.81-.01-1.05-.96-.7-2.73-1.02-3.43zM301.88 112.76q-.67.75-1.26.12-1.36-1.48-1.78-4.05 3.46.95 3.04 3.93"/><path fill="#630c72" d="M81.25 126.46q.86.07 1.18.55.23.35.05.74l-1.67 3.6q-.19.42-.63.57l-.6.21q-.56.19-.62.78-.27 2.38 1.2 4.44.25.34.65.21 1.56-.48 2.03 1.25.57 2.11-.75 3.31-.36.33-.48.79-.37 1.35-2.45 1.8c-1.87-3.36-1.36-7.11-1.33-10.69q.02-2.06 1.07-3.79 1.15-1.92 2.35-3.77M289.17 254.76c-.06 2.9-.16 5.75.36 8.63.52 2.89 1.26 6.55-1.88 8.38-7.16 4.18-14.08 8.18-21.27 13.07-14.56 9.89-29.29 19.02-45.96 25q.78-3.13-.61-5.32-.14-.22-.39-.21a.35.34 86.3 0 0-.34.39q.05.33-.08.64-.3.77-.69.04c-.46-.86-.92-1.69-.49-2.68.77-1.73.91-3.49 1.74-5.19q1.22-2.51-.92-3.89a1.36 1.36 0 0 1 .04-2.31l5.78-3.47q.47-.28.18-.73-.62-.97-.75-2.19-.06-.64-.68-.46-.16.04-.28.15-.44.41-.88-.01c-1.6-1.53-1.25-6.64-1.41-8.66q-.04-.49-.36-.86-1.72-1.99-2.29-3.88-.5-1.65-2.15-1.17l-.39.12q-1.94.56-1.08 2.39 1.19 2.51-.84 5.64-.45.69-.39-.13.02-.36-.24-.55-.35-.27-.69.02l-2.39 2.03q-.67.57-.73-.31l-.15-2.01a1.09 1.08 13.3 0 0-.54-.86q-2.05-1.17-3.58-3.1a.44.44 0 0 0-.79.25l-.11 1.88q-.03.41-.43.5l-.47.1a.75.74-10.3 0 1-.91-.62l-.33-2.38q-.06-.43.22-.75 2.62-2.98 3.75-7.09.13-.47-.27-.76-2.36-1.67-1.81-4.19.45-2.07.37-2.92l1.75-4.76c.7-.35 1.49-.45 2.24-.2q.86.28 1.09-.6.13-.51.65-.58.5-.07.94.2 1.72 1.06.96-.81-1.32-3.26.2-6.86.18-.42.61-.61.26-.11.52-.21.32-.14.49-.43 1.14-1.94 1.4-4.19.08-.7-.56-1.03l-1.23-.62q-.58-.3-.5-.94l.52-4.61q.19-1.76.85-.12.44 1.11 1.28 1.77a.58.56-49.6 0 0 .77-.07l1-1.1q.3-.32.67-.08.14.08.22.23.12.23-.04.44-1.56 2.03.45 3.26.53.33.49.95-.02.4-.18.77a.63.63 0 0 0 .24.76q.48.32.55.89.06.47.26.93.9 2.12 2.62 2.99a1.28 1.26-.5 0 1 .55.53q.52.92 1.39 1.51.51.35.77-.21.89-1.92.48-3.84-.09-.45.25-.77 1.37-1.27 3.29-1.4 1.97-.13 2.67-1.92.21-.54-.04-1.07c-1.18-2.42.34-4.41.48-6.95a.35.35 0 0 1 .69-.07l.37 1.49q.16.61.75.81l1.11.38q1.07.37.68 1.43-.44 1.19.38 2.21a1.29 1.29 0 0 1-.14 1.75q-1.1 1.01.11 1.94.91.68.41 1.7-.24.48.24.76.76.44.49 1.28-.32.98-.02 1.94.25.79.72.11.2-.28.56-.1a.54.53-80.1 0 1 .3.43l.22 2.71q.11 1.27.94.31l1.05-1.22a1.85 1.82-28.6 0 0 .43-1.42q-.2-1.68 1.64-1.85 1.69-.17 2.25-1.61a.41.41 0 0 1 .74-.06l1.11 1.95q.34.6.66-.02 1.01-1.97 2.76-3.55a.99.98-30.9 0 0 .27-1.05q-.22-.63-.89-.73-.52-.07-.76-.55l-1.09-2.27q-.38-.79.49-.84.17-.01.3.1.77.67.93-.33.12-.76.67-1.31.36-.36.16-.84l-.18-.41q-.22-.51.32-.65.42-.1.86.23a.62.61 16.6 0 1 .25.45l.22 2.36q.09.96.88.4.75-.55 1.46-.05a.64.63-61.4 0 1 .22.76q-.74 1.79.19 3.48.26.48.28 1.03.05 2.37.13 4.74c.05 1.33.6 2.13 1.28 3.18q.28.43.15.93-.16.59-.54 1.14a.79.78 34.8 0 0 .2 1.09q1.46 1.04 3.08.8a.38.38 0 0 1 .43.38q.01 1.15.33 2.28.87 3.16 2.21.17.34-.76.98-1.37.42-.4.41-.98-.01-.49-.3-.89a1.9 1.84-21.3 0 1 1.35-2.94q3.11-.38 3.36-3.26.12-1.27.91-.27.66.84 1.04 1.78a.92.92 0 0 0 .88.57l.94-.04q.67-.03.55-.69l-.07-.42q-.09-.53.29-.89 2.13-2.04 2.82-5.32.12-.53-.32-.85-1.09-.8-2.47-.85-.54-.02-.35-.53.45-1.17-.57-2.11-.45-.41-.05-.86 1.18-1.36 1.5-3.4c.2-1.31-.48-2.29-.23-3.63q.09-.55.52-.2 1.51 1.24 2.43 2.93.25.47.77.35.48-.11.95.04 1.32.41 1.17-.97-.14-1.32.86-1.5a1.12 1.11-81.3 0 1 1.18 1.61q-1.12 2.2-.96 4.38.04.58.55.83l1.6.76q.47.23.92-.05l.28-.19q.3-.19.16.14l-1.42 3.29a.76.76 0 0 0 .38.99l3.06 1.41a.88.87 29.9 0 1 .35 1.29q-.59.85-1.44 1.57-.48.41-.56 1.02-.07.54.87.87a1.02.94-37.9 0 0 .48.04q1.59-.25 2.01 1.17.35 1.18.61-.02.06-.28.32-.44.43-.26.43.24-.02 1.58-.53 3.02-.65 1.84 1.07 4.8"/><path d="M204.04 257.29q.08.85-.37 2.92-.55 2.52 1.81 4.19.4.29.27.76-1.13 4.11-3.75 7.09-.28.32-.22.75l.33 2.38a.75.74-10.3 0 0 .91.62l.47-.1q.4-.09.43-.5l.11-1.88a.44.44 0 0 1 .79-.25q1.53 1.93 3.58 3.1a1.09 1.08 13.3 0 1 .54.86l.15 2.01q.06.88.73.31l2.39-2.03q.34-.29.69-.02.26.19.24.55-.06.82.39.13 2.03-3.13.84-5.64-.86-1.83 1.08-2.39l.39-.12q1.65-.48 2.15 1.17.57 1.89 2.29 3.88.32.37.36.86c.16 2.02-.19 7.13 1.41 8.66q.44.42.88.01.12-.11.28-.15.62-.18.68.46.13 1.22.75 2.19.29.45-.18.73l-5.78 3.47a1.36 1.36 0 0 0-.04 2.31q2.14 1.38.92 3.89c-.83 1.7-.97 3.46-1.74 5.19-.43.99.03 1.82.49 2.68q.39.73.69-.04.13-.31.08-.64a.35.34 86.3 0 1 .34-.39q.25-.01.39.21 1.39 2.19.61 5.32l-9.38 2.8q-1.25-2.16-3.26-3.93-.37-.33-.86-.23-2.18.45-4.17 1.66-.49.3-.22.81.52.99.58 2.03.04.63.64.83 1.02.32 1.31 1.08l-11.09-.05q-.57-.01-.85-.51c-1.19-2.13-3.12-4.43-3.1-6.94q.02-2.3.74-4.57 5.28-16.63 7.18-34.12c.46-4.25 3.48-8.16 6.1-11.41m.69 50.22a.29.29 0 0 0-.29-.29.29.29 0 0 0-.29.29.29.29 0 0 0 .29.29.29.29 0 0 0 .29-.29"/><circle cx="204.44" cy="307.51" r=".29" fill="#630c72"/><path fill="#630c72" d="m211.04 312.64-5.98 2.25q-.29-.76-1.31-1.08-.6-.2-.64-.83-.06-1.04-.58-2.03-.27-.51.22-.81 1.99-1.21 4.17-1.66.49-.1.86.23 2.01 1.77 3.26 3.93"/></svg>