<svg xmlns="http://www.w3.org/2000/svg" viewBox="0 0 382 382"><g fill="none" stroke="#0f454c" stroke-width="2"><path d="M222.41 70.68q-3.03 3.99-3.53 7.7-.03.17.07.31.09.15.3.15.43-.01.57-.4l.28-.79q.28-.78.82-.15 1.27 1.5 3.04 1.45.76-.02.69.73l-.5 6.1a1.66 1.61 32.5 0 0 .24 1.01q.44.74.12 1.52-.29.7.47.78.55.05.98.43.78.7.55-.32-.27-1.26-.08-2.81.06-.5.49-.76l1.83-1.1a.6.6 0 0 0 .28-.64q-.08-.38.19-.55.63-.39.99.26.94 1.73 2.09 3.18 1.98 2.52 1.7-.67c-.23-2.56-2.52-5.3 1.53-6.42q.38-.11.04-.31-.4-.24-.87-.35-.48-.11-.56-.61l-.27-1.67q-.09-.58-.64-.78-.79-.29-1.12.42a.94.49-27.5 0 1-.07.1q-.34.47-.63.36-.53-.21-.13-.62l.34-.35q.31-.32.02-.65-.82-.94-.38-1.89M240.96 72.02q1.08 1.44 2.16.02M255.26 79.92l1.36 3.4q.2.49-.22.82-.76.59-1.64.79-.61.14-.35.71l1.23 2.67q.24.52-.2.87-.74.58-1.66.89-.55.18-.32.71l.69 1.6q.26.6.91.58.2-.01.36.11.34.23.16.61l-1.53 3.3q-.49 1.05.54.51c1.6-.83 3.28-.19 3.43 1.71q.02.2.2.3.77.48.67-.42-.21-1.85 1.42-2.18.73-.15.24-.71l-1.14-1.31a1.32 1.27-69.3 0 1-.31-.73q-.1-1.11.84-1.59.42-.22.87-.06l1.21.43q.65.23.81-.45l.24-1.04q.07-.3.39-.33.14-.01.25.08.21.17.24.44.12 1.15-.03 2.25a.61.6 29.2 0 0 .14.48q.37.46.72.19.6-.46.91.23.57 1.29 2.06 1.27 1.52-.03.56-1.21-.13-.16-.12-.36.03-.48.5-.42 1.41.2 2.5-.76.55-.49.65.24.02.21-.14.33-.43.33-.21.82.56 1.22-.72 2.11-.84.58.05 1.08l1.45.81a.83.82 35.8 0 1 .21 1.27l-.87.96a.93.93 0 0 0-.15 1q.74 1.66-.78 2.32-.5.22-.18.67 1.07 1.48-.63 2.18a.52.52 0 0 0-.28.67q.72 1.75-.08 3.49-.33.72.46.71 1.6-.03 2.13 1.34.23.6.63.11 1.35-1.64.48-3.07-.43-.71.31-1.07l1.69-.83q.66-.33.68.4l.05 1.39q.03.71.66.39.77-.4 1.57-.08.76.3.73-.51-.01-.42.32-.68.42-.32.79.06c2.4 2.44 1.65 6.71 1.16 9.89-.11.69.07 1.24.39 1.82q.34.63-.15 1.15-.33.35-.4.84-.09.64.54.46.77-.22 1.55.07a.64.63 16.4 0 0 .85-.46q.12-.57.43-1.06.38-.61 0-1.22-.27-.45-.34-.95-.1-.76.67-.81l3.17-.17q.59-.04.95-.51.18-.23.18-.51.01-.7.69-.58 1.94.33 1.93 1.86-.01.43.21.8 1.79 3.01 2.26 6.39.13.94.61.13l1.66-2.74q.35-.58-.17-1.02-.7-.6-1.05-1.45-.24-.57.18-1.02 1.32-1.44 2.15-3.31a1.13 1.11-51.2 0 0-.11-1.09q-.44-.62-.31-1.32.14-.72.86-.55l4.2 1.01M289.46 252.43q-1.18-.76-2.6.12-.72.45-.93-.37c-.22-.83-.6-1.1-.42-2.02q.46-2.43.98-4.67.23-1.02-.67-.49l-.94.57q-.43.26-.85-.02-3.1-2.04-1.18-5.72.8-1.54-.92-1.33-1.26.14-2.56-.82-.51-.38-.4-1.02.31-1.75 1.42-3.44.31-.46.19-1.01-.12-.59-.67-.8t-.75.35l-.2.54q-.22.61-.83.37c-2.69-1.11-3.06-3.48-3.23-6.07a.69.69 0 0 0-.8-.63l-.32.05q-.67.11-.71.79-.03.77.5 1.3.55.54-.2.69-1.56.31-1.39 2.18.11 1.3-.94.53c-.86-.62-1.25-1.62-2.49-1.56q-.59.03-.46.61.47 2.03 1.56 3.73a.59.58 53.1 0 1-.1.76l-1.06.94q-.52.46.06.85 1.47.97 2.75.58.51-.15.59.37.28 1.73.01 3.14-.1.55-.6.8-1.85.95-1.82 2.79.07 3.81-2.46.96l-1.03-1.16q-.43-.49-.72.1l-1.36 2.74q-.2.43-.67.34-1.76-.31-2.99 1.94-.3.57.02 1.12.67 1.13.68 2.36a.8.79-14.6 0 1-.43.72q-1.63.85-2.35 2.81-.11.29-.38.41-.18.08-.37.04-.62-.11-.24-.61l.29-.37q.34-.43-.11-.74-.31-.21-.65-.29a.96.96 0 0 1-.43-1.63q.83-.79.66-1.85a.55.54 81.9 0 0-.61-.46q-.74.09-1.35.55-.43.33-.9.05-2.31-1.36-1.35-3.05.3-.53-.05-1.02l-1.35-1.88a1.11 1.1-52.2 0 1-.13-1.08q.31-.76.99-1.25 1.19-.86-.21-1.29-1.75-.53-1.95-2.14a.69.69 0 0 1 .66-.77q.85-.04 1.27-.72a.57.56-63 0 0-.26-.83q-3.87-1.61-2.17-5.97.15-.4-.23-.6l-.25-.13q-.17-.09-.28.08-.72 1.15-1.51 2.2-1.28 1.72-2.64.29-.12-.13-.25-.01-.04.03-.06.09-.07.23.14.36 1.01.6.33 1.64-.41.61-.66 1.23-.37.91.58 1.16 2.05.55.78 2.13-.8 1.01-1.92 1.78-.44.3-.22.78l.45.97q.07.14-.06.23l-.21.17q-.13.09-.23-.02l-2.46-2.65q-.44-.47-.51.18-.04.42.28.61a.59.59 0 0 1 .05.97q-1.36 1.05-3.05 1.14a.64.64 0 0 0-.54.93l.79 1.52q.3.58-.2 1.01-.35.31-.82.4a.89.86-82.8 0 0-.65.52l-.4.95q-.26.63-.78.17-1.52-1.37-.55-2.87.45-.7-.38-.62-.38.03-.75-.04-.62-.13-.88-.7l-1.68-3.66q-.2-.44-.12-.91.29-1.61-.82-2.77a.99.98-64.1 0 1-.27-.79l.12-1.19q.03-.28-.2-.45-1.94-1.5-1.44-4.93a.42.42 0 0 0-.64-.42q-.23.14-.31.4-.74 2.42-2.95 2.29a.11.11 0 0 1-.1-.15q.06-.19-.12-.28-.93-.51-.3.35.77 1.04-.06 2.24-.38.56.14 1 2.02 1.69.82 3.78-1.13 1.95-2.94 1.5-.42-.11-.43.33-.03 1.67-1.51 2.52-.61.35-.48 1.04.48 2.48-.3 5.2-.15.54-.61.22-.93-.66-1.32-1.82-.15-.43-.58-.3-2.34.68-3.86-1.44-1.66-2.32-3.61-4.67-.22-.26-.54-.34-.31-.07-.42.12-.43.77-.71-.07-.22-.69-.4-1.3-.41-1.4-1.86-.64M80.44 148.24l.61-.3q.52-.26.36-.82-.06-.24-.04-.48.02-.26.13-.5 1.07-2.3 2.71-3.93.44-.44.22-1.03-.46-1.19.05-2.34.23-.52-.1-.99-.19-.27-.47-.43-.6-.32-.82.32l-.23.69q-.26.74-.8.18l-.33-.32q-.42-.44-.32-1.03.19-1.19-.26-2.37a1.4 1.39-29.1 0 1 .47-1.63q3.54-2.63 1.57-6.08a.87.86 52.4 0 1 .13-1.02l1.85-1.92q.64-.66.74.26l.16 1.61q.05.49.54.43.18-.02.35-.11.53-.28.83.24 1.7 3.02 1.71 5.86 0 .82.73 1.21l.46.24a.79.79 0 0 0 1.16-.6l.2-1.64q.08-.62.71-.62 1.81.03 3.53-.77.52-.25.69.31c.27.93.7 1.37.46 2.42q-.49 2.16-1 4.29-.19.82.62.6.53-.15.97-.49.4-.32.83-.05 3.23 1.99 1.36 5.35-1.08 1.96 1.15 1.8.92-.06 1.85.4a1.53 1.53 0 0 1 .72 1.99l-1.44 3.26q-.22.49.05.95.15.28.42.41.6.29.87-.31l.23-.51q.28-.64.9-.3c.88.48 1.67.61 2.16 1.61q.89 1.81.96 3.81.02.43.29.76.32.39.83.34.69-.08.73-.77.04-.88-.58-1.47a.27.26-27.1 0 1 .15-.45q1.75-.23 1.54-2.4-.12-1.24.83-.42.74.64 1.5 1.23.61.48 1.29.1.55-.31.28-.88l-1.6-3.32a.63.61 57 0 1 .14-.72l1.23-1.11q.44-.39-.09-.65-1.69-.84-3.13-.45-.59.16-.55-.44l.18-3.4q.02-.49.48-.68 1.53-.65 1.91-2.54.07-.36-.07-.7-.38-.9.46-1.54.53-.4 1 .07l2.06 2.06q.55.55.9-.14l1.45-2.84q.11-.2.34-.19.16.01.28.1.49.39.97-.02l1.5-1.29a1.41 1.41 0 0 0 .24-1.86q-.74-1.07-.6-2.19.06-.55.56-.8 1.38-.69 1.91-2.25.21-.6.84-.85.51-.2.41.34-.05.3-.22.55-.53.75.38.85.77.09.96.78a1.19 1.17 60.5 0 1-.31 1.15q-.68.68-.55 1.59.06.45.52.5.87.09 1.51-.49.47-.43.92.02l1.43 1.45a.82.8 37.1 0 1 .14.95l-.34.61q-.29.52.07 1l1.44 1.96q.33.45.12.96-.32.82-1.06 1.33-1.33.92.23 1.34t1.96 1.88q.19.68-.48.9l-.94.3q-.48.16-.57.66-.03.19.06.37.21.37.62.54 3.59 1.52 1.78 5.76-.1.24.13.35l.29.14q.48.22.74-.25c.69-1.24 1.43-3.19 3.25-2.67a.2.19-75.6 0 1 .13.23q-.05.24.19.27.62.09.25-.42-.86-1.16.28-2.28a.95.95 0 0 0 .28-.8q-.1-.81-.72-.95-2.22-.5-.65-2.15.91-.95 1.83-1.96.42-.46.02-.93-.21-.25-.2-.61.04-.64.5-.2 1.22 1.17 2.32 2.38.18.2.42.07.24-.12.09-.35-.91-1.29.59-1.95 1.03-.45 2.13-.52.77-.05.62-.81-.17-.82-.72-1.51a.82.81-39.9 0 1 .11-1.13q.39-.32.88-.49.58-.19.74-.78l.15-.56q.23-.79.87-.27 1.02.83.93 2-.03.43-.36.72-.17.14-.19.35-.05.62.56.5.88-.16 1.6.32a.88.87-76.3 0 1 .36.6q.21 1.8 1.37 3.09a.9.9 0 0 1 .17.9q-.63 1.75.9 3.1a.9.9 0 0 1 .16 1.16q-.92 1.4.71 2.03.52.2.61.75.28 1.64.26 3.54 0 .11.05.2.1.17.38.17a.35.33 5.5 0 0 .32-.25q.47-1.68 2.03-2.45a.71.7 57.1 0 1 .87.19q.17.2.41.29.91.37.29-.39-.78-.95-.03-1.95a.9.9 0 0 0-.01-1.09q-2.68-3.43.72-5.58.16-.11.35-.16.34-.1.54.06.72.59.83-.34.19-1.71 1.73-2.37a.87.87 0 0 0 .48-1.08q-.8-2.31.21-5.05.22-.61.71-.19.81.69 1.16 1.76.12.39.5.27 2.53-.78 4.05 1.52c1.15 1.74 2.48 3.34 3.78 4.87a.27.26 40.7 0 0 .43-.03q.09-.16.24-.25.81-.5.75.45-.03.49.07.94.22.99 1.27 1.08.53.04.35-.45-1.1-3.02 2.09-4.95.59-.36.27-.97-1.37-2.63-3.29-2.13-.51.14-.5-.39.06-2.08-.92-3.86-.31-.58.26-.92l.92-.55q.52-.3.58-.9.33-3.53-1.69-6.31-.43-.58.3-.6l1.46-.02q1.19-.02.43-.93-.46-.56-.4-1.26.06-.78.66-.28.59.51 1.21.03a1 1 0 0 1 .74-.19q.25.03.46.17.62.42.84-.29l.19-.59a.47.47 0 0 1 .66-.28l.39.2a.62.61 16.2 0 0 .9-.49l.11-1.26q.06-.67.67-.39.15.07.26.19.54.56.77-.18.2-.63-.27-1.25-.55-.72-1.26-1.14-.47-.27-.08-.67.71-.72.63-1.63-.06-.7-.64-.32-1.13.74-1.34 2.09a.58.57-83.5 0 1-.61.49q-.79-.06-1.59-.57a.8.8 0 0 1-.35-.88q.15-.57.51-1.13a.8.8 0 0 0-.59-1.23l-1.59-.16q-.64-.07-.68-.71-.16-2.59.64-4.89c.49-1.38.44-2.97-.71-4.04a.56.56 0 0 0-.94.37l-.1 1.57a.43.43 0 0 1-.69.32q-.74-.54-1.5 0a.49.49 0 0 1-.77-.35q-.14-1.2-1.06-1.87-.93-.69-.91.47.03 1.99-1.53 3.17-.59.44-.26 1.1.68 1.34.86 3.01a.52.52 0 0 1-.67.55q-1.79-.57-2.62-2.05-.27-.49-.83-.58l-1.42-.23a.65.65 0 0 1-.55-.59q-.14-2 .75-3.88a.91.89-47.1 0 0-.02-.82q-.29-.51-.91-.58-.42-.05-.46-.48-.01-.16.12-.26.49-.39.22-.95-1.02-2.18-2.52-3.72a.85.84 59.9 0 1 .37-1.4c1.38-.39 1.78-2.03 2.98-2.84q1.09-.75 2.15-1.56.54-.42.31-1.11-.21-.64-.79-.28l-.46.29q-.8.5-.77-.44l.09-2.9q.01-.46.25-.86.29-.52.65-.53.88-.01.45-.85-.77-1.49.64-3.12M177.42 70.05q-.56 1.1-.3 2.26.14.68.67.22l1.43-1.28q.28-.25.6-.05.15.1.25.24.44.62.77-.07.23-.48.1-1.34M219.24 310.31l-.36-2.54q-.05-.37-.41-.47-.26-.07-.41.2a.49.49 0 0 1-.53.23q-1.05-.24-.98-1.07.18-2.21.08-4.48-.02-.53.33-.92 1.48-1.67.88-4.51-.12-.57-.67-.37l-.49.17q-.56.2-.7-.38-.12-.51.32-.84 2.86-2.05 5.44-4.93.54-.6-.05-1.15-2.12-1.96-2.33-4.65-.03-.41-.39-.61-.33-.18-.56-.48-.32-.43-.1-.91.86-1.83.61-3.87-.07-.6-.66-.68l-1.16-.15q-.54-.07-.83-.53-.93-1.45-2.59-2.07a.62.62 0 0 0-.81.78l1 3.03q.18.55-.23.96l-.9.89a2.2 2.14 73.9 0 0-.61 1.14l-.21 1.15q-.15.81-.82.33-1-.73-1.22-1.88-.13-.75-.74-.3-.65.48-1.3.05-.83-.55-.76.44.04.58-.07 1.16-.28 1.44-1.25.34-1.01-1.15-.66-2.63.63-2.73.89-5.38a1.3 1.29 8.1 0 0-1.05-1.39l-1.63-.3a.46.46 0 0 1-.34-.65l.58-1.21q.36-.77-.37-1.2l-.8-.47q-.91-.54-1.16.49-.34 1.38-1.48 2.01a.49.48 73 0 1-.72-.39q-.05-.74.44-1.34.34-.41.05-.85-.58-.9-1.59-1.36M198.21 267.43q.64.56 1.2.36t.49-.78q-.21-1.96 1.75-1.64.25.05.25-.21-.01-.23.13-.38.27-.3.66-.31l2.8-.1q.72-.03.28-.59-.5-.65-.39-1.29.1-.52.62-.45.68.09 1.28-.04.7-.13.31-.73-2.06-3.17-1.45-6.52.11-.61.7-.8l.48-.15q.66-.2.44-.85l-2.16-6.47" vector-effect="non-scaling-stroke"/><path d="M205.14 244q1.4-2.51-.12-3.32M301.05 110q-.46 1.92.83 3.05M207.87 313.9q-2.2-1.21-2.1-3.62a.21.21 0 0 0-.38-.12q-1.32 1.96-2.61 1.37-.46-.21-.59.27-.42 1.55.33 3.02M169.36 101.5q-.08.42.32.27a.24.24 0 0 0-.04-.45q-.24-.06-.28.18M83.47 144.53q.2-.06.09-.2-.15-.18-.21.08-.04.16.12.12M213.13 281.36q.01.31.3.3.16 0 .21-.15.08-.22-.11-.36a.26.25 16.8 0 0-.4.21" vector-effect="non-scaling-stroke"/></g><path d="M222.41 70.68q-3.03 3.99-3.53 7.7-.03.17.07.31.09.15.3.15.43-.01.57-.4l.28-.79q.28-.78.82-.15 1.27 1.5 3.04 1.45.76-.02.69.73l-.5 6.1a1.66 1.61 32.5 0 0 .24 1.01q.44.74.12 1.52-.29.7.47.78.55.05.98.43.78.7.55-.32-.27-1.26-.08-2.81.06-.5.49-.76l1.83-1.1a.6.6 0 0 0 .28-.64q-.08-.38.19-.55.63-.39.99.26.94 1.73 2.09 3.18 1.98 2.52 1.7-.67c-.23-2.56-2.52-5.3 1.53-6.42q.38-.11.04-.31-.4-.24-.87-.35-.48-.11-.56-.61l-.27-1.67q-.09-.58-.64-.78-.79-.29-1.12.42a.94.49-27.5 0 1-.07.1q-.34.47-.63.36-.53-.21-.13-.62l.34-.35q.31-.32.02-.65-.82-.94-.38-1.89l9.7-1.32q1.08 1.44 2.16.02 2.28.03 4.32 1.53 2.41 1.77 7.82 6.35l1.36 3.4q.2.49-.22.82-.76.59-1.64.79-.61.14-.35.71l1.23 2.67q.24.52-.2.87-.74.58-1.66.89-.55.18-.32.71l.69 1.6q.26.6.91.58.2-.01.36.11.34.23.16.61l-1.53 3.3q-.49 1.05.54.51c1.6-.83 3.28-.19 3.43 1.71q.02.2.2.3.77.48.67-.42-.21-1.85 1.42-2.18.73-.15.24-.71l-1.14-1.31a1.32 1.27-69.3 0 1-.31-.73q-.1-1.11.84-1.59.42-.22.87-.06l1.21.43q.65.23.81-.45l.24-1.04q.07-.3.39-.33.14-.01.25.08.21.17.24.44.12 1.15-.03 2.25a.61.6 29.2 0 0 .14.48q.37.46.72.19.6-.46.91.23.57 1.29 2.06 1.27 1.52-.03.56-1.21-.13-.16-.12-.36.03-.48.5-.42 1.41.2 2.5-.76.55-.49.65.24.02.21-.14.33-.43.33-.21.82.56 1.22-.72 2.11-.84.58.05 1.08l1.45.81a.83.82 35.8 0 1 .21 1.27l-.87.96a.93.93 0 0 0-.15 1q.74 1.66-.78 2.32-.5.22-.18.67 1.07 1.48-.63 2.18a.52.52 0 0 0-.28.67q.72 1.75-.08 3.49-.33.72.46.71 1.6-.03 2.13 1.34.23.6.63.11 1.35-1.64.48-3.07-.43-.71.31-1.07l1.69-.83q.66-.33.68.4l.05 1.39q.03.71.66.39.77-.4 1.57-.08.76.3.73-.51-.01-.42.32-.68.42-.32.79.06c2.4 2.44 1.65 6.71 1.16 9.89-.11.69.07 1.24.39 1.82q.34.63-.15 1.15-.33.35-.4.84-.09.64.54.46.77-.22 1.55.07a.64.63 16.4 0 0 .85-.46q.12-.57.43-1.06.38-.61 0-1.22-.27-.45-.34-.95-.1-.76.67-.81l3.17-.17q.59-.04.95-.51.18-.23.18-.51.01-.7.69-.58 1.94.33 1.93 1.86-.01.43.21.8 1.79 3.01 2.26 6.39.13.94.61.13l1.66-2.74q.35-.58-.17-1.02-.7-.6-1.05-1.45-.24-.57.18-1.02 1.32-1.44 2.15-3.31a1.13 1.11-51.2 0 0-.11-1.09q-.44-.62-.31-1.32.14-.72.86-.55l4.2 1.01q1.25 5.16.53 9.4-.96 5.57-1.65 10.92a1.07 1.07 0 0 0 .14.69l2.72 4.54q.33.56.33 1.2-.08 8.55.03 16.97.07 5.04-1.32 12.94-4.53 25.83-9.16 53.77-.98 5.95-2.38 13.44-1.26 6.73-1.9 13.5-1.18-.76-2.6.12-.72.45-.93-.37c-.22-.83-.6-1.1-.42-2.02q.46-2.43.98-4.67.23-1.02-.67-.49l-.94.57q-.43.26-.85-.02-3.1-2.04-1.18-5.72.8-1.54-.92-1.33-1.26.14-2.56-.82-.51-.38-.4-1.02.31-1.75 1.42-3.44.31-.46.19-1.01-.12-.59-.67-.8t-.75.35l-.2.54q-.22.61-.83.37c-2.69-1.11-3.06-3.48-3.23-6.07a.69.69 0 0 0-.8-.63l-.32.05q-.67.11-.71.79-.03.77.5 1.3.55.54-.2.69-1.56.31-1.39 2.18.11 1.3-.94.53c-.86-.62-1.25-1.62-2.49-1.56q-.59.03-.46.61.47 2.03 1.56 3.73a.59.58 53.1 0 1-.1.76l-1.06.94q-.52.46.06.85 1.47.97 2.75.58.51-.15.59.37.28 1.73.01 3.14-.1.55-.6.8-1.85.95-1.82 2.79.07 3.81-2.46.96l-1.03-1.16q-.43-.49-.72.1l-1.36 2.74q-.2.43-.67.34-1.76-.31-2.99 1.94-.3.57.02 1.12.67 1.13.68 2.36a.8.79-14.6 0 1-.43.72q-1.63.85-2.35 2.81-.11.29-.38.41-.18.08-.37.04-.62-.11-.24-.61l.29-.37q.34-.43-.11-.74-.31-.21-.65-.29a.96.96 0 0 1-.43-1.63q.83-.79.66-1.85a.55.54 81.9 0 0-.61-.46q-.74.09-1.35.55-.43.33-.9.05-2.31-1.36-1.35-3.05.3-.53-.05-1.02l-1.35-1.88a1.11 1.1-52.2 0 1-.13-1.08q.31-.76.99-1.25 1.19-.86-.21-1.29-1.75-.53-1.95-2.14a.69.69 0 0 1 .66-.77q.85-.04 1.27-.72a.57.56-63 0 0-.26-.83q-3.87-1.61-2.17-5.97.15-.4-.23-.6l-.25-.13q-.17-.09-.28.08-.72 1.15-1.51 2.2-1.28 1.72-2.64.29-.12-.13-.25-.01-.04.03-.06.09-.07.23.14.36 1.01.6.33 1.64-.41.61-.66 1.23-.37.91.58 1.16 2.05.55.78 2.13-.8 1.01-1.92 1.78-.44.3-.22.78l.45.97q.07.14-.06.23l-.21.17q-.13.09-.23-.02l-2.46-2.65q-.44-.47-.51.18-.04.42.28.61a.59.59 0 0 1 .05.97q-1.36 1.05-3.05 1.14a.64.64 0 0 0-.54.93l.79 1.52q.3.58-.2 1.01-.35.31-.82.4a.89.86-82.8 0 0-.65.52l-.4.95q-.26.63-.78.17-1.52-1.37-.55-2.87.45-.7-.38-.62-.38.03-.75-.04-.62-.13-.88-.7l-1.68-3.66q-.2-.44-.12-.91.29-1.61-.82-2.77a.99.98-64.1 0 1-.27-.79l.12-1.19q.03-.28-.2-.45-1.94-1.5-1.44-4.93a.42.42 0 0 0-.64-.42q-.23.14-.31.4-.74 2.42-2.95 2.29a.11.11 0 0 1-.1-.15q.06-.19-.12-.28-.93-.51-.3.35.77 1.04-.06 2.24-.38.56.14 1 2.02 1.69.82 3.78-1.13 1.95-2.94 1.5-.42-.11-.43.33-.03 1.67-1.51 2.52-.61.35-.48 1.04.48 2.48-.3 5.2-.15.54-.61.22-.93-.66-1.32-1.82-.15-.43-.58-.3-2.34.68-3.86-1.44-1.66-2.32-3.61-4.67-.22-.26-.54-.34-.31-.07-.42.12-.43.77-.71-.07-.22-.69-.4-1.3-.41-1.4-1.86-.64c-1.8-9.03.22-20.68-9.01-26.35q-3.01-1.85-9.12-2.79c-7.86-1.21-15.44-1.32-22.95-1.17-3.04.06-6.64-1.49-9.1-3.52q-12.98-10.67-19.28-15.16-13.65-9.71-29.96-11.27-4.13-.4-7.21-1.16-11.51-2.85-15.93-13.75-1.2-2.95-1.53-8.28-.27-4.3-.41-8.59l.61-.3q.52-.26.36-.82-.06-.24-.04-.48.02-.26.13-.5 1.07-2.3 2.71-3.93.44-.44.22-1.03-.46-1.19.05-2.34.23-.52-.1-.99-.19-.27-.47-.43-.6-.32-.82.32l-.23.69q-.26.74-.8.18l-.33-.32q-.42-.44-.32-1.03.19-1.19-.26-2.37a1.4 1.39-29.1 0 1 .47-1.63q3.54-2.63 1.57-6.08a.87.86 52.4 0 1 .13-1.02l1.85-1.92q.64-.66.74.26l.16 1.61q.05.49.54.43.18-.02.35-.11.53-.28.83.24 1.7 3.02 1.71 5.86 0 .82.73 1.21l.46.24a.79.79 0 0 0 1.16-.6l.2-1.64q.08-.62.71-.62 1.81.03 3.53-.77.52-.25.69.31c.27.93.7 1.37.46 2.42q-.49 2.16-1 4.29-.19.82.62.6.53-.15.97-.49.4-.32.83-.05 3.23 1.99 1.36 5.35-1.08 1.96 1.15 1.8.92-.06 1.85.4a1.53 1.53 0 0 1 .72 1.99l-1.44 3.26q-.22.49.05.95.15.28.42.41.6.29.87-.31l.23-.51q.28-.64.9-.3c.88.48 1.67.61 2.16 1.61q.89 1.81.96 3.81.02.43.29.76.32.39.83.34.69-.08.73-.77.04-.88-.58-1.47a.27.26-27.1 0 1 .15-.45q1.75-.23 1.54-2.4-.12-1.24.83-.42.74.64 1.5 1.23.61.48 1.29.1.55-.31.28-.88l-1.6-3.32a.63.61 57 0 1 .14-.72l1.23-1.11q.44-.39-.09-.65-1.69-.84-3.13-.45-.59.16-.55-.44l.18-3.4q.02-.49.48-.68 1.53-.65 1.91-2.54.07-.36-.07-.7-.38-.9.46-1.54.53-.4 1 .07l2.06 2.06q.55.55.9-.14l1.45-2.84q.11-.2.34-.19.16.01.28.1.49.39.97-.02l1.5-1.29a1.41 1.41 0 0 0 .24-1.86q-.74-1.07-.6-2.19.06-.55.56-.8 1.38-.69 1.91-2.25.21-.6.84-.85.51-.2.41.34-.05.3-.22.55-.53.75.38.85.77.09.96.78a1.19 1.17 60.5 0 1-.31 1.15q-.68.68-.55 1.59.06.45.52.5.87.09 1.51-.49.47-.43.92.02l1.43 1.45a.82.8 37.1 0 1 .14.95l-.34.61q-.29.52.07 1l1.44 1.96q.33.45.12.96-.32.82-1.06 1.33-1.33.92.23 1.34t1.96 1.88q.19.68-.48.9l-.94.3q-.48.16-.57.66-.03.19.06.37.21.37.62.54 3.59 1.52 1.78 5.76-.1.24.13.35l.29.14q.48.22.74-.25c.69-1.24 1.43-3.19 3.25-2.67a.2.19-75.6 0 1 .13.23q-.05.24.19.27.62.09.25-.42-.86-1.16.28-2.28a.95.95 0 0 0 .28-.8q-.1-.81-.72-.95-2.22-.5-.65-2.15.91-.95 1.83-1.96.42-.46.02-.93-.21-.25-.2-.61.04-.64.5-.2 1.22 1.17 2.32 2.38.18.2.42.07.24-.12.09-.35-.91-1.29.59-1.95 1.03-.45 2.13-.52.77-.05.62-.81-.17-.82-.72-1.51a.82.81-39.9 0 1 .11-1.13q.39-.32.88-.49.58-.19.74-.78l.15-.56q.23-.79.87-.27 1.02.83.93 2-.03.43-.36.72-.17.14-.19.35-.05.62.56.5.88-.16 1.6.32a.88.87-76.3 0 1 .36.6q.21 1.8 1.37 3.09a.9.9 0 0 1 .17.9q-.63 1.75.9 3.1a.9.9 0 0 1 .16 1.16q-.92 1.4.71 2.03.52.2.61.75.28 1.64.26 3.54 0 .11.05.2.1.17.38.17a.35.33 5.5 0 0 .32-.25q.47-1.68 2.03-2.45a.71.7 57.1 0 1 .87.19q.17.2.41.29.91.37.29-.39-.78-.95-.03-1.95a.9.9 0 0 0-.01-1.09q-2.68-3.43.72-5.58.16-.11.35-.16.34-.1.54.06.72.59.83-.34.19-1.71 1.73-2.37a.87.87 0 0 0 .48-1.08q-.8-2.31.21-5.05.22-.61.71-.19.81.69 1.16 1.76.12.39.5.27 2.53-.78 4.05 1.52c1.15 1.74 2.48 3.34 3.78 4.87a.27.26 40.7 0 0 .43-.03q.09-.16.24-.25.81-.5.75.45-.03.49.07.94.22.99 1.27 1.08.53.04.35-.45-1.1-3.02 2.09-4.95.59-.36.27-.97-1.37-2.63-3.29-2.13-.51.14-.5-.39.06-2.08-.92-3.86-.31-.58.26-.92l.92-.55q.52-.3.58-.9.33-3.53-1.69-6.31-.43-.58.3-.6l1.46-.02q1.19-.02.43-.93-.46-.56-.4-1.26.06-.78.66-.28.59.51 1.21.03a1 1 0 0 1 .74-.19q.25.03.46.17.62.42.84-.29l.19-.59a.47.47 0 0 1 .66-.28l.39.2a.62.61 16.2 0 0 .9-.49l.11-1.26q.06-.67.67-.39.15.07.26.19.54.56.77-.18.2-.63-.27-1.25-.55-.72-1.26-1.14-.47-.27-.08-.67.71-.72.63-1.63-.06-.7-.64-.32-1.13.74-1.34 2.09a.58.57-83.5 0 1-.61.49q-.79-.06-1.59-.57a.8.8 0 0 1-.35-.88q.15-.57.51-1.13a.8.8 0 0 0-.59-1.23l-1.59-.16q-.64-.07-.68-.71-.16-2.59.64-4.89c.49-1.38.44-2.97-.71-4.04a.56.56 0 0 0-.94.37l-.1 1.57a.43.43 0 0 1-.69.32q-.74-.54-1.5 0a.49.49 0 0 1-.77-.35q-.14-1.2-1.06-1.87-.93-.69-.91.47.03 1.99-1.53 3.17-.59.44-.26 1.1.68 1.34.86 3.01a.52.52 0 0 1-.67.55q-1.79-.57-2.62-2.05-.27-.49-.83-.58l-1.42-.23a.65.65 0 0 1-.55-.59q-.14-2 .75-3.88a.91.89-47.1 0 0-.02-.82q-.29-.51-.91-.58-.42-.05-.46-.48-.01-.16.12-.26.49-.39.22-.95-1.02-2.18-2.52-3.72a.85.84 59.9 0 1 .37-1.4c1.38-.39 1.78-2.03 2.98-2.84q1.09-.75 2.15-1.56.54-.42.31-1.11-.21-.64-.79-.28l-.46.29q-.8.5-.77-.44l.09-2.9q.01-.46.25-.86.29-.52.65-.53.88-.01.45-.85-.77-1.49.64-3.12c4.18 1.04 4.97-1.95 6.72-4.95q1.23-2.11 3.68-2.97-.56 1.1-.3 2.26.14.68.67.22l1.43-1.28q.28-.25.6-.05.15.1.25.24.44.62.77-.07.23-.48.1-1.34c2.28-.02 4.28 1.59 6.98 1.4q1.76-.13 3.25-.8 6.69-3.01 14.99-1.85c3.4.48 6.4-3.94 9.57-.45a1.86 1.83-11.9 0 0 .8.51zm-53.05 30.82q-.08.42.32.27a.24.24 0 0 0-.04-.45q-.24-.06-.28.18m-85.89 43.03q.2-.06.09-.2-.15-.18-.21.08-.04.16.12.12"/><path fill="#1e8997" d="M180.94 70.03q.13.86-.1 1.34-.33.69-.77.07-.1-.14-.25-.24-.32-.2-.6.05l-1.43 1.28q-.53.46-.67-.22-.26-1.16.3-2.26 2.01-.44 3.52-.02M222.41 70.68l8.85 2.66q-.44.95.38 1.89.29.33-.02.65l-.34.35q-.4.41.13.62.29.11.63-.36a.94.49-27.5 0 0 .07-.1q.33-.71 1.12-.42.55.2.64.78l.27 1.67q.08.5.56.61.47.11.87.35.34.2-.04.31c-4.05 1.12-1.76 3.86-1.53 6.42q.28 3.19-1.7.67-1.15-1.45-2.09-3.18-.36-.65-.99-.26-.27.17-.19.55a.6.6 0 0 1-.28.64l-1.83 1.1q-.43.26-.49.76-.19 1.55.08 2.81.23 1.02-.55.32-.43-.38-.98-.43-.76-.08-.47-.78.32-.78-.12-1.52a1.66 1.61 32.5 0 1-.24-1.01l.5-6.1q.07-.75-.69-.73-1.77.05-3.04-1.45-.54-.63-.82.15l-.28.79q-.14.39-.57.4-.21 0-.3-.15-.1-.14-.07-.31.5-3.71 3.53-7.7M243.12 72.04q-1.08 1.42-2.16-.02zM167.02 77.97q-1.41 1.63-.64 3.12.43.84-.45.85-.36.01-.65.53-.24.4-.25.86l-.09 2.9q-.03.94.77.44l.46-.29q.58-.36.79.28.23.69-.31 1.11-1.06.81-2.15 1.56c-1.2.81-1.6 2.45-2.98 2.84a.85.84 59.9 0 0-.37 1.4q1.5 1.54 2.52 3.72.27.56-.22.95-.13.1-.12.26.04.43.46.48.62.07.91.58a.91.89-47.1 0 1 .02.82q-.89 1.88-.75 3.88a.65.65 0 0 0 .55.59l1.42.23q.56.09.83.58.83 1.48 2.62 2.05a.52.52 0 0 0 .67-.55q-.18-1.67-.86-3.01-.33-.66.26-1.1 1.56-1.18 1.53-3.17-.02-1.16.91-.47.92.67 1.06 1.87a.49.49 0 0 0 .77.35q.76-.54 1.5 0a.43.43 0 0 0 .69-.32l.1-1.57a.56.56 0 0 1 .94-.37c1.15 1.07 1.2 2.66.71 4.04q-.8 2.3-.64 4.89.04.64.68.71l1.59.16a.8.8 0 0 1 .59 1.23q-.36.56-.51 1.13a.8.8 0 0 0 .35.88q.8.51 1.59.57a.58.57-83.5 0 0 .61-.49q.21-1.35 1.34-2.09.58-.38.64.32.08.91-.63 1.63-.39.4.08.67.71.42 1.26 1.14.47.62.27 1.25-.23.74-.77.18-.11-.12-.26-.19-.61-.28-.67.39l-.11 1.26a.62.61 16.2 0 1-.9.49l-.39-.2a.47.47 0 0 0-.66.28l-.19.59q-.22.71-.84.29-.21-.14-.46-.17a1 1 0 0 0-.74.19q-.62.48-1.21-.03-.6-.5-.66.28-.06.7.4 1.26.76.91-.43.93l-1.46.02q-.73.02-.3.6 2.02 2.78 1.69 6.31-.06.6-.58.9l-.92.55q-.57.34-.26.92.98 1.78.92 3.86-.01.53.5.39 1.92-.5 3.29 2.13.32.61-.27.97-3.19 1.93-2.09 4.95.18.49-.35.45-1.05-.09-1.27-1.08-.1-.45-.07-.94.06-.95-.75-.45-.15.09-.24.25a.27.26 40.7 0 1-.43.03c-1.3-1.53-2.63-3.13-3.78-4.87q-1.52-2.3-4.05-1.52-.38.12-.5-.27-.35-1.07-1.16-1.76-.49-.42-.71.19-1.01 2.74-.21 5.05a.87.87 0 0 1-.48 1.08q-1.54.66-1.73 2.37-.11.93-.83.34-.2-.16-.54-.06-.19.05-.35.16-3.4 2.15-.72 5.58a.9.9 0 0 1 .01 1.09q-.75 1 .03 1.95.62.76-.29.39-.24-.09-.41-.29a.71.7 57.1 0 0-.87-.19q-1.56.77-2.03 2.45a.35.33 5.5 0 1-.32.25q-.28 0-.38-.17-.05-.09-.05-.2.02-1.9-.26-3.54-.09-.55-.61-.75-1.63-.63-.71-2.03a.9.9 0 0 0-.16-1.16q-1.53-1.35-.9-3.1a.9.9 0 0 0-.17-.9q-1.16-1.29-1.37-3.09a.88.87-76.3 0 0-.36-.6q-.72-.48-1.6-.32-.61.12-.56-.5.02-.21.19-.35.33-.29.36-.72.09-1.17-.93-2-.64-.52-.87.27l-.15.56q-.16.59-.74.78-.49.17-.88.49a.82.81-39.9 0 0-.11 1.13q.55.69.72 1.51.15.76-.62.81-1.1.07-2.13.52-1.5.66-.59 1.95.15.23-.09.35-.24.13-.42-.07-1.1-1.21-2.32-2.38-.46-.44-.5.2-.01.36.2.61.4.47-.02.93-.92 1.01-1.83 1.96-1.57 1.65.65 2.15.62.14.72.95a.95.95 0 0 1-.28.8q-1.14 1.12-.28 2.28.37.51-.25.42-.24-.03-.19-.27a.2.19-75.6 0 0-.13-.23c-1.82-.52-2.56 1.43-3.25 2.67q-.26.47-.74.25l-.29-.14q-.23-.11-.13-.35 1.81-4.24-1.78-5.76-.41-.17-.62-.54-.09-.18-.06-.37.09-.5.57-.66l.94-.3q.67-.22.48-.9-.4-1.46-1.96-1.88t-.23-1.34q.74-.51 1.06-1.33.21-.51-.12-.96l-1.44-1.96q-.36-.48-.07-1l.34-.61a.82.8 37.1 0 0-.14-.95l-1.43-1.45q-.45-.45-.92-.02-.64.58-1.51.49-.46-.05-.52-.5-.13-.91.55-1.59a1.19 1.17 60.5 0 0 .31-1.15q-.19-.69-.96-.78-.91-.1-.38-.85.17-.25.22-.55.1-.54-.41-.34-.63.25-.84.85-.53 1.56-1.91 2.25-.5.25-.56.8-.14 1.12.6 2.19a1.41 1.41 0 0 1-.24 1.86l-1.5 1.29q-.48.41-.97.02-.12-.09-.28-.1-.23-.01-.34.19l-1.45 2.84q-.35.69-.9.14l-2.06-2.06q-.47-.47-1-.07-.84.64-.46 1.54.14.34.07.7-.38 1.89-1.91 2.54-.46.19-.48.68l-.18 3.4q-.04.6.55.44 1.44-.39 3.13.45.53.26.09.65l-1.23 1.11a.63.61 57 0 0-.14.72l1.6 3.32q.27.57-.28.88-.68.38-1.29-.1-.76-.59-1.5-1.23-.95-.82-.83.42.21 2.17-1.54 2.4a.27.26-27.1 0 0-.15.45q.62.59.58 1.47-.04.69-.73.77-.51.05-.83-.34-.27-.33-.29-.76-.07-2-.96-3.81c-.49-1-1.28-1.13-2.16-1.61q-.62-.34-.9.3l-.23.51q-.27.6-.87.31-.27-.13-.42-.41-.27-.46-.05-.95l1.44-3.26a1.53 1.53 0 0 0-.72-1.99q-.93-.46-1.85-.4-2.23.16-1.15-1.8 1.87-3.36-1.36-5.35-.43-.27-.83.05-.44.34-.97.49-.81.22-.62-.6.51-2.13 1-4.29c.24-1.05-.19-1.49-.46-2.42q-.17-.56-.69-.31-1.72.8-3.53.77-.63 0-.71.62l-.2 1.64a.79.79 0 0 1-1.16.6l-.46-.24q-.73-.39-.73-1.21-.01-2.84-1.71-5.86-.3-.52-.83-.24-.17.09-.35.11-.49.06-.54-.43l-.16-1.61q-.1-.92-.74-.26l-1.85 1.92a.87.86 52.4 0 0-.13 1.02q1.97 3.45-1.57 6.08a1.4 1.39-29.1 0 0-.47 1.63q.45 1.18.26 2.37-.1.59.32 1.03l.33.32q.54.56.8-.18l.23-.69q.22-.64.82-.32.28.16.47.43.33.47.1.99-.51 1.15-.05 2.34.22.59-.22 1.03-1.64 1.63-2.71 3.93-.11.24-.13.5-.02.24.04.48.16.56-.36.82l-.61.3q-.86-2.19-1.67-4.33c-1.34-3.56-.95-6.85-.97-10.43q-.01-1.73 1.01-3.24 3.72-5.53 6.47-10.92c3.19-6.26 7.06-10.2 13.74-11.76q14.75-3.46 29.29-7.52c11.68-3.27 20.05-10.42 21.66-23.01a1.45 1.4 71.4 0 1 .39-.82c5.28-5.48 11.12-1.65 16.66 1.76M301.05 110q-.46 1.92.83 3.05l.24 2.01-4.2-1.01q-.72-.17-.86.55-.13.7.31 1.32a1.13 1.11-51.2 0 1 .11 1.09q-.83 1.87-2.15 3.31-.42.45-.18 1.02.35.85 1.05 1.45.52.44.17 1.02l-1.66 2.74q-.48.81-.61-.13-.47-3.38-2.26-6.39-.22-.37-.21-.8.01-1.53-1.93-1.86-.68-.12-.69.58 0 .28-.18.51-.36.47-.95.51l-3.17.17q-.77.05-.67.81.07.5.34.95.38.61 0 1.22-.31.49-.43 1.06a.64.63 16.4 0 1-.85.46q-.78-.29-1.55-.07-.63.18-.54-.46.07-.49.4-.84.49-.52.15-1.15c-.32-.58-.5-1.13-.39-1.82.49-3.18 1.24-7.45-1.16-9.89q-.37-.38-.79-.06-.33.26-.32.68.03.81-.73.51-.8-.32-1.57.08-.63.32-.66-.39l-.05-1.39q-.02-.73-.68-.4l-1.69.83q-.74.36-.31 1.07.87 1.43-.48 3.07-.4.49-.63-.11-.53-1.37-2.13-1.34-.79.01-.46-.71.8-1.74.08-3.49a.52.52 0 0 1 .28-.67q1.7-.7.63-2.18-.32-.45.18-.67 1.52-.66.78-2.32a.93.93 0 0 1 .15-1l.87-.96a.83.82 35.8 0 0-.21-1.27l-1.45-.81q-.89-.5-.05-1.08 1.28-.89.72-2.11-.22-.49.21-.82.16-.12.14-.33-.1-.73-.65-.24-1.09.96-2.5.76-.47-.06-.5.42-.01.2.12.36.96 1.18-.56 1.21-1.49.02-2.06-1.27-.31-.69-.91-.23-.35.27-.72-.19a.61.6 29.2 0 1-.14-.48q.15-1.1.03-2.25-.03-.27-.24-.44-.11-.09-.25-.08-.32.03-.39.33l-.24 1.04q-.16.68-.81.45l-1.21-.43q-.45-.16-.87.06-.94.48-.84 1.59a1.32 1.27-69.3 0 0 .31.73l1.14 1.31q.49.56-.24.71-1.63.33-1.42 2.18.1.9-.67.42-.18-.1-.2-.3c-.15-1.9-1.83-2.54-3.43-1.71q-1.03.54-.54-.51l1.53-3.3q.18-.38-.16-.61-.16-.12-.36-.11-.65.02-.91-.58l-.69-1.6q-.23-.53.32-.71.92-.31 1.66-.89.44-.35.2-.87l-1.23-2.67q-.26-.57.35-.71.88-.2 1.64-.79.42-.33.22-.82l-1.36-3.4q3.67 1.89 10.24 3.11 7.23 1.33 14.45 2.49c2.2.35 4.2 2.37 4.06 4.73q-.28 4.55 1.08 8.89c1.73 5.55 6.46 6.54 11.21 8.3q2.24.83 4.75 2.56"/><path fill="#1e8997" d="M169.36 101.5q.04-.24.28-.18a.24.24 0 0 1 .04.45q-.4.15-.32-.27"/><path d="M301.88 113.05q-1.29-1.13-.83-3.05 1.11 1.17.83 3.05"/><path fill="#1e8997" d="M83.47 144.53q-.16.04-.12-.12.06-.26.21-.08.11.14-.09.2M289.46 252.43q-1 6.61-.41 8.76.91 3.25.93 6.82c0 1.54-1.11 3.07-2.36 3.8-6.41 3.77-12.71 7.26-19.04 11.56-15.77 10.72-31.24 20.49-49.34 26.94l-.36-2.54q-.05-.37-.41-.47-.26-.07-.41.2a.49.49 0 0 1-.53.23q-1.05-.24-.98-1.07.18-2.21.08-4.48-.02-.53.33-.92 1.48-1.67.88-4.51-.12-.57-.67-.37l-.49.17q-.56.2-.7-.38-.12-.51.32-.84 2.86-2.05 5.44-4.93.54-.6-.05-1.15-2.12-1.96-2.33-4.65-.03-.41-.39-.61-.33-.18-.56-.48-.32-.43-.1-.91.86-1.83.61-3.87-.07-.6-.66-.68l-1.16-.15q-.54-.07-.83-.53-.93-1.45-2.59-2.07a.62.62 0 0 0-.81.78l1 3.03q.18.55-.23.96l-.9.89a2.2 2.14 73.9 0 0-.61 1.14l-.21 1.15q-.15.81-.82.33-1-.73-1.22-1.88-.13-.75-.74-.3-.65.48-1.3.05-.83-.55-.76.44.04.58-.07 1.16-.28 1.44-1.25.34-1.01-1.15-.66-2.63.63-2.73.89-5.38a1.3 1.29 8.1 0 0-1.05-1.39l-1.63-.3a.46.46 0 0 1-.34-.65l.58-1.21q.36-.77-.37-1.2l-.8-.47q-.91-.54-1.16.49-.34 1.38-1.48 2.01a.49.48 73 0 1-.72-.39q-.05-.74.44-1.34.34-.41.05-.85-.58-.9-1.59-1.36l.29-1.29q.64.56 1.2.36t.49-.78q-.21-1.96 1.75-1.64.25.05.25-.21-.01-.23.13-.38.27-.3.66-.31l2.8-.1q.72-.03.28-.59-.5-.65-.39-1.29.1-.52.62-.45.68.09 1.28-.04.7-.13.31-.73-2.06-3.17-1.45-6.52.11-.61.7-.8l.48-.15q.66-.2.44-.85l-2.16-6.47-.46-2.48q1.4-2.51-.12-3.32.07-.09-.08-.4 1.45-.76 1.86.64.18.61.4 1.3.28.84.71.07.11-.19.42-.12.32.08.54.34 1.95 2.35 3.61 4.67 1.52 2.12 3.86 1.44.43-.13.58.3.39 1.16 1.32 1.82.46.32.61-.22.78-2.72.3-5.2-.13-.69.48-1.04 1.48-.85 1.51-2.52.01-.44.43-.33 1.81.45 2.94-1.5 1.2-2.09-.82-3.78-.52-.44-.14-1 .83-1.2.06-2.24-.63-.86.3-.35.18.09.12.28a.11.11 0 0 0 .1.15q2.21.13 2.95-2.29.08-.26.31-.4a.42.42 0 0 1 .64.42q-.5 3.43 1.44 4.93.23.17.2.45l-.12 1.19a.99.98-64.1 0 0 .27.79q1.11 1.16.82 2.77-.08.47.12.91l1.68 3.66q.26.57.88.7.37.07.75.04.83-.08.38.62-.97 1.5.55 2.87.52.46.78-.17l.4-.95a.89.86-82.8 0 1 .65-.52q.47-.09.82-.4.5-.43.2-1.01l-.79-1.52a.64.64 0 0 1 .54-.93q1.69-.09 3.05-1.14a.59.59 0 0 0-.05-.97q-.32-.19-.28-.61.07-.65.51-.18l2.46 2.65q.1.11.23.02l.21-.17q.13-.09.06-.23l-.45-.97q-.22-.48.22-.78 1.12-.77 1.92-1.78 1.27-1.58-.78-2.13-.95-.25-.58-1.16.25-.62.66-1.23.68-1.04-.33-1.64-.21-.13-.14-.36.02-.06.06-.09.13-.12.25.01 1.36 1.43 2.64-.29.79-1.05 1.51-2.2.11-.17.28-.08l.25.13q.38.2.23.6-1.7 4.36 2.17 5.97a.57.56-63 0 1 .26.83q-.42.68-1.27.72a.69.69 0 0 0-.66.77q.2 1.61 1.95 2.14 1.4.43.21 1.29-.68.49-.99 1.25a1.11 1.1-52.2 0 0 .13 1.08l1.35 1.88q.35.49.05 1.02-.96 1.69 1.35 3.05.47.28.9-.05.61-.46 1.35-.55a.55.54 81.9 0 1 .61.46q.17 1.06-.66 1.85a.96.96 0 0 0 .43 1.63q.34.08.65.29.45.31.11.74l-.29.37q-.38.5.24.61.19.04.37-.04.27-.12.38-.41.72-1.96 2.35-2.81a.8.79-14.6 0 0 .43-.72q-.01-1.23-.68-2.36-.32-.55-.02-1.12 1.23-2.25 2.99-1.94.47.09.67-.34l1.36-2.74q.29-.59.72-.1l1.03 1.16q2.53 2.85 2.46-.96-.03-1.84 1.82-2.79.5-.25.6-.8.27-1.41-.01-3.14-.08-.52-.59-.37-1.28.39-2.75-.58-.58-.39-.06-.85l1.06-.94a.59.58 53.1 0 0 .1-.76q-1.09-1.7-1.56-3.73-.13-.58.46-.61c1.24-.06 1.63.94 2.49 1.56q1.05.77.94-.53-.17-1.87 1.39-2.18.75-.15.2-.69-.53-.53-.5-1.3.04-.68.71-.79l.32-.05a.69.69 0 0 1 .8.63c.17 2.59.54 4.96 3.23 6.07q.61.24.83-.37l.2-.54q.2-.56.75-.35t.67.8q.12.55-.19 1.01-1.11 1.69-1.42 3.44-.11.64.4 1.02 1.3.96 2.56.82 1.72-.21.92 1.33-1.92 3.68 1.18 5.72.42.28.85.02l.94-.57q.9-.53.67.49-.52 2.24-.98 4.67c-.18.92.2 1.19.42 2.02q.21.82.93.37 1.42-.88 2.6-.12"/><path d="m205.14 244-.12-3.32q1.52.81.12 3.32M198.21 267.43q.36-2.13.93-3.01 2.43-3.77 5.05-7.69c2.1-3.15 1.19-6.77 1.41-10.25l2.16 6.47q.22.65-.44.85l-.48.15q-.59.19-.7.8-.61 3.35 1.45 6.52.39.6-.31.73-.6.13-1.28.04-.52-.07-.62.45-.11.64.39 1.29.44.56-.28.59l-2.8.1q-.39.01-.66.31-.14.15-.13.38 0 .26-.25.21-1.96-.32-1.75 1.64.07.58-.49.78t-1.2-.36M197.92 268.72q1.01.46 1.59 1.36.29.44-.05.85-.49.6-.44 1.34a.49.48 73 0 0 .72.39q1.14-.63 1.48-2.01.25-1.03 1.16-.49l.8.47q.73.43.37 1.2l-.58 1.21a.46.46 0 0 0 .34.65l1.63.3a1.3 1.29 8.1 0 1 1.05 1.39q-.26 2.65-.89 5.38-.35 1.48.66 2.63.97 1.1 1.25-.34.11-.58.07-1.16-.07-.99.76-.44.65.43 1.3-.05.61-.45.74.3.22 1.15 1.22 1.88.67.48.82-.33l.21-1.15a2.2 2.14 73.9 0 1 .61-1.14l.9-.89q.41-.41.23-.96l-1-3.03a.62.62 0 0 1 .81-.78q1.66.62 2.59 2.07.29.46.83.53l1.16.15q.59.08.66.68.25 2.04-.61 3.87-.22.48.1.91.23.3.56.48.36.2.39.61.21 2.69 2.33 4.65.59.55.05 1.15-2.58 2.88-5.44 4.93-.44.33-.32.84.14.58.7.38l.49-.17q.55-.2.67.37.6 2.84-.88 4.51-.35.39-.33.92.1 2.27-.08 4.48-.07.83.98 1.07a.49.49 0 0 0 .53-.23q.15-.27.41-.2.36.1.41.47l.36 2.54-11.37 3.59q-2.2-1.21-2.1-3.62a.21.21 0 0 0-.38-.12q-1.32 1.96-2.61 1.37-.46-.21-.59.27-.42 1.55.33 3.02l-8.54.04a.88.88 0 0 1-.74-.4q-1.52-2.27-2.67-4.66-1.04-2.16-.23-5.4 1.19-4.71 2.4-9 3.69-13.1 5.18-26.68m15.21 12.64q.01.31.3.3.16 0 .21-.15.08-.22-.11-.36a.26.25 16.8 0 0-.4.21"/><path fill="#1e8997" d="M213.13 281.36a.26.25 16.8 0 1 .4-.21q.19.14.11.36-.05.15-.21.15-.29.01-.3-.3M207.87 313.9q-1.91 1.45-5.35.92-.75-1.47-.33-3.02.13-.48.59-.27 1.29.59 2.61-1.37a.21.21 0 0 1 .38.12q-.1 2.41 2.1 3.62"/></svg>