<svg xmlns="http://www.w3.org/2000/svg" viewBox="0 0 382 382"><g fill="none" stroke="#0d265c" stroke-width="2"><path d="m221.7 70.44-.68 2.26q-.14.49-.54.8l-2.84 2.21a1.58 1.58 0 0 0-.27 2.23q.93 1.18 0 2.37-.15.19.05.34l.21.16q.1.07.16-.03l1.24-2q.35-.56.87-.16l3.44 2.7q.29.23.33.6.29 2.77-.92 5.05-.26.5-.09 1.04.54 1.79-1.09 3.17-.68.57.16.27l.36-.12a.74.72-32 0 1 .72.16q1.17 1.04 2.34 2.16.18.18.36 0 .01 0 .01-.01.28-.3-.14-.57a.81.8-62.9 0 1-.32-1l1.37-3.31a.29.28 11.1 0 1 .28-.18q1.8.11 2.27-1.78a.68.68 0 0 1 1.15-.31q2.05 2.08 3.08 5.01a.66.65 83.2 0 0 .53.42l.52.05q.67.08.38-.54-.57-1.2-.3-2.54.08-.39-.15-.71-.09-.12-.25-.14-.29-.04-.33-.33-.49-3.65 2.05-6.07a.91.91 0 0 0-.36-1.53c-1.74-.52-.97-2.22-2.65-2.79q-.46-.15-.71.26-.14.24-.41.18-.64-.13-.18-.6l.28-.28q.44-.44-.06-.81-.23-.17-.23-.44 0-.58.58-.58.33 0 .53-.23.38-.44-.01-.86l-.54-.61M241.35 72.03l-.84.99q-.4.46.01.9l.43.46q.45.48.98.09.33-.23.54-.57.31-.48-.05-.93l-.69-.86M255.13 79.85q.22 2.19 1.23 4.22.27.54-.25.84l-1.39.8q-.56.32-.31.93l1.01 2.42q.49 1.16-.75.93-.93-.16-1.43.47-.31.38-.09.81l1.71 3.38q.31.6-.15 1.1l-1.82 1.94q-.62.67-.29 1.51l.42 1.06q.38.96.73-.01.65-1.76 2.64-1.14.46.14.53.6l.24 1.49q.08.5.53.71.62.29 1.19-.68a1.2 1.14-30.6 0 0 .15-.53q.01-1.38 1.14-1.84.55-.22.31-.76l-1.28-2.84a1.32 1.32 0 0 1 1.77-1.73q.93.44 1.99.46.77.01.89.77l.18 1.14q.05.35.4.42l3.36.66a.7.7 0 0 0 .83-.59q.04-.32-.15-.61-.45-.64.33-.76 1.28-.21 2.19.45 1.62 1.17-.19 2.32-1.01.64.12 1 1.47.47.9 1.96-.65 1.71-.56 3.36.03.46-.35.72-.47.33-.58.89-.51 2.74-.51 5.78 0 .61-.6.71l-.44.08q-.8.13-.05.43 1.66.7 2.33 2.46.37.96 1.07.22l1.21-1.26q.46-.48.17-1.07-.54-1.13-.45-2.39.03-.58.61-.67.85-.15 1.62.17.35.14.51.47.68 1.34 2.36 1.95.59.22.66-.41.01-.15.07-.3.2-.5.68-.77.46-.25.92-.04.61.28.55.99-.06.62-.46 1.07a.41.41 0 0 0 .15.65l.45.19q.41.17.43.61.12 2.93-.8 5.55a2.63 2.57-45.3 0 0-.01 1.73q.68 1.94-1.14 2.4-.52.13-.25.59.58.96 1.57.6.46-.16.87.1 1.46.94 2.56-.46a.78.77-39.2 0 0 .09-.83q-.63-1.24.04-2.32.27-.43.78-.42l3.25.05q.57.01.48-.55-.12-.77.04-1.48.19-.84.63-.1c.76 1.31 2 1.73 2.65 3.11q1 2.14.31 4.6-.12.4.22.64 1.27.9 1.11 2.47-.02.19.09.34.09.14.22.15.63.06.94-.48 1.16-1.95 2.94-.68a.54.53 45.5 0 0 .6.01q.16-.11.2-.3.07-.3-.08-.56-.53-.88-1.24-1.62a1.19 1.18-61.4 0 1-.31-1.07q.2-.93-.72-1.25a.86.86 0 0 1-.35-1.41q1.41-1.51 2.13-3.48.23-.66-.15-1.25-.41-.64-.18-1.31.2-.56.78-.41l3.73.92M289.55 251.46q-4.13.7-2.58-3.3c.61-1.58.6-2.81.28-4.35q-.08-.38-.45-.47-.65-.17-.72.5-.04.33-.22.57-.46.59-1 .09-3.05-2.85-.8-5.19 1.62-1.69-.72-1.79-1.29-.05-2.53-.44-.47-.14-.44-.64.13-2.6 1.11-4.69a.94.93-79.1 0 0-.9-1.34l-3.02.17q-.53.03-.54-.5l-.03-6.03q0-.57-.51-.83l-1.81-.91q-.24-.12-.34.13-.08.2.04.26.86.39.32 1.18-.54.78.02 1.54a.95.95 0 0 1-.44 1.45q-.83.3-1.15 1.1-.68 1.74-2.07.49l-2.47-2.22q-.56-.5-.62.25-.2 2.43.96 3.77a1.22 1.14 25.2 0 1 .3.75l.15 3.8a.49.41 39.7 0 0 .03.16q1.08 3.05 2.66 1.56a.52.51-41.1 0 1 .76.05q.35.45-.04.91-1.18 1.4-.23 2.69.34.46-.21.62-2.74.82-2.44 4.05.15 1.55-1.01.51-1.06-.94-2.05-2.05-.48-.53-1.15-.36-.44.11-.29.54.47 1.41-.62 3.07-.44.65-.72-.08-.11-.3-.07-.62.11-.85-.62-.41-.31.18-.31.58a.62.62 0 0 1-.3.53l-2.17 1.28q-.61.36-.12.89.28.3.72.34 1.02.09.33.86-.4.46-.19.96.27.65-.32 1.03l-1 .64q-.69.45-.48 1.24.31 1.17-.72 1.93-.46.34-.68-.18-.75-1.72-.33-3.36a.95.94 37.2 0 0-.1-.72l-.87-1.53q-.3-.53-.9-.43-.45.07-.86-.1-.51-.22-.69-.74-.52-1.5-.04-2.9.17-.48-.31-.66-1.42-.54-1.8-1.95a.94.94 0 0 1 .11-.75q1.1-1.77-.53-3.16a.96.95-51.8 0 1-.15-1.28l1.05-1.45q.43-.61-.2-1.01l-.66-.42q-.48-.31-.58-.87-.46-2.47.28-4.8.18-.58-.41-.43-2.31.6-3.35 2.29-.53.86-1.07.01l-.89-1.39q-.57-.88-.7.16l-.58 4.61q-.04.37.21.63.63.65 1.52.89a1 1 0 0 1 .35 1.75q-1.86 1.43-2.88 3.51-.24.49-.68.16-1.01-.77-1.27-2.04-.06-.24-.31-.22l-.26.02q-.35.04-.28.39.19.98.02 1.84-.04.18-.23.17l-.41-.02a.31.31 0 0 1-.29-.36q.28-1.97-1.15-.82a2.17 2.16 70.9 0 0-.82 1.7q-.01 3.04-2.2 4.39-.67.42-.75-.36l-.28-2.48q-.06-.58-.63-.7l-1.23-.25q-.89-.18-.28-.86.09-.09.13-.21.19-.52-.1-.98-2.05-3.37-1.22-7.61.12-.58-.23-1.07-1.77-2.5-.87-5.19.22-.67-.12-1.3-.09-.17-.23-.28-.67-.52-.92.3c-.9 2.96-2.57 2.65-4.34.85q-.37-.37-.83-.12-.62.33-.51 1.13.24 1.68 1.16 2.78.27.32-.04.6-.26.23-.63.18-.64-.1-.73.54-.13 1.03 1.06 2.06.21.19.47.07a.18.18 0 0 0 .03-.31q-.39-.31-.62-.71-.11-.19-.03-.4.07-.18.26-.23a.48.46 60 0 1 .44.13q2.26 2.31.04 4.61-1.35 1.38-2.91.76-.47-.19-.71.26-1.97 3.66-2.87 7.18-.16.64-.83.7-.59.05-.64-.55-.06-.75-.03-1.49 0-.08-.03-.14-.09-.19-.32-.24a.31.3 14.3 0 0-.36.21l-.25.88q-.24.85-1.03.46-1.02-.51-1.18-1.76-.05-.4-.38-.61-.08-.05-.17-.03-.68.11-.9-.55-.29-.84-.78-1.55-.27-.37-.65-.63-1.23-.86-.25-2.13.64-.84-.41-.95l-2.57-.28q-.49-.05-.51-.54l-.14-4.89q-.02-.66-.65-.49-1.32.35-2.34-.47M80.96 150.15q1.16-.62.22-4.09-.13-.5.32-.74c2.07-1.08 3.52-4.97 1.49-6.93a.64.64 0 0 0-1.07.58q.09.44-.26.67-.61.39-.63-.33-.08-2.36-.96-4.43-.29-.7.46-.77l1.63-.17q.56-.06.32-.56l-.39-.85q-.26-.55.12-1.02l1.43-1.73a1.22 1.21-32.2 0 0 .24-1.03q-.17-.7-.6-1.29a1.02 1.01 40.2 0 1-.09-1.03l.95-2.03q.38-.81.63.05.56 2 2.52 2.68.56.19.35.74-.38.96.64 1.19a.53.52 20.4 0 1 .35.76q-.36.69-.02 1.43.3.68.1 1.38-.41 1.37.39 2.88.35.66.86.11l1.46-1.61q.42-.47.17-1.05-.41-.93.36-1.48.52-.37 1.04.01 1.14.82 2.2-.03.55-.44.79.22l.47 1.31q.17.5-.05.98-1.05 2.18-.95 4.63.01.4.27.7.25.27.58.38.55.17.68-.39l.1-.44q.16-.69.78-.34c2.38 1.34 2.9 3.6.75 5.44a.83.82 61.3 0 0-.25.87q.22.76 1.01.68 1.4-.15 2.82.42.48.19.48.71-.02 2.44-1.13 4.46a1.02 1.01-77.4 0 0 .95 1.5l2.84-.17q.59-.03.6.56l.17 6.36q.01.33.31.47l2.11 1.04a.12.12 0 0 0 .17-.12l-.41-3.57q-.09-.75.59-1.07.89-.42 1.18-1.35a1.02 1.02 0 0 1 1.66-.44l2.58 2.39a.42.42 0 0 0 .7-.23q.47-2.4-1.15-3.7-.36-.3-.28-.76.51-2.84-.64-5.53-.24-.55-.84-.5-.73.05-1.29.58-.38.35-.66-.09-.32-.51.09-.96 1.17-1.27.31-2.69a.42.42 0 0 1 .22-.61q2.64-.97 2.32-4.03-.18-1.66 1.04-.52 1.02.96 2.02 1.91.58.55 1.37.36.42-.1.23-.48-.63-1.3.35-2.73.84-1.21.82.27 0 .29.17.5.34.43.56-.07l.26-.62q.18-.43.62-.58 1.04-.35 1.91-1.08.53-.45.03-.94-.2-.2-.48-.22-.73-.06-.46-.75.29-.72-.02-1.47-.23-.56.36-.71.94-.24 1.55-1.08.28-.38.09-.83-.43-1.02.52-1.82.42-.35.74.1 1.14 1.66.41 3.13-.24.49.03.97l.99 1.72q.3.52.85.3.79-.31 1.28.36 1.17 1.61.27 3.47-.23.48.29.6 1.09.23 1.71 1.15a1.25 1.25 0 0 1 .2.88q-.13.83-.55 1.55-.27.48-.02.98.42.82 1.16 1.38a.8.79-45.6 0 1 .01 1.26q-.82.64-1.24 1.55a.67.67 0 0 0 .26.85l.91.56q.44.26.51.77.34 2.39-.27 4.61-.18.67.48.45 1.5-.49 2.8-1.43a.62.6-23.1 0 0 .24-.57q-.06-.39.26-.59a.6.59 50.1 0 1 .7.07q.88.78.95 1.97.01.32.34.33h.25q.21.01.23-.2l.56-5.02q.06-.53-.34-.87-.7-.6-1.56-.98a.81.81 0 0 1-.22-1.34q1.81-1.64 2.98-3.71.29-.51.75-.15.97.75 1.17 1.99a.26.26 0 0 0 .33.21l.31-.09a.25.24 76.9 0 0 .17-.28q-.16-.82.12-1.6.28-.8.76-.1.15.21.17.48.05 1.02.89.44c.61-.42 1.04-1.19 1.04-1.92q.02-2.3 1.67-3.8 1.52-1.38 1.32.66-.26 2.7 2.08 2.76.71.01.41.66-.66 1.39.52 2.55a1.59 1.58-75 0 1 .41.71q.75 2.99.06 5.63-.16.61.23 1.1 1.94 2.4.93 5.49-.19.58.22 1.03l.27.28q.47.5.66-.16.46-1.61 1.8-2.31.56-.29 1.07.09l1.46 1.12q.45.34.94.08.39-.21.55-.6.21-.51-.06-1.05-.58-1.21-1.06-2.26-.27-.59.38-.64.59-.04.96-.48.31-.38.08-.82-.5-.92-1.33-1.27-.44-.18-.3.27.14.44.55.6.39.15.1.45l-.21.22q-.06.06-.13.02-2.11-1.34-1.18-3.4 1.37-3.05 3.93-1.99.6.26.65-.4.13-1.7 1.41-3.11a2.14 2.09-20.3 0 0 .54-1.14q.19-1.35.56-2.72.22-.82 1.01-.89.56-.05.59.51l.09 1.52q.06.86.65.24.3-.32.38-.78a.8.77 75.7 0 1 .26-.46q.49-.41.93-.16.46.26.58.76.16.66.2 1.39a.33.33 0 0 0 .45.29l.41-.14q.75-.28.81.52.14 1.77 1.74 2.48.67.3.32.93l-.74 1.41q-.36.66.39.66l2.86.02q.53 0 .54.53l.17 5.31q.02.49.48.33 1-.35 2.05 0 .4.14.39-.29-.05-1.38-.63-2.78-.23-.53 0-1.06.34-.82.98-1.48.42-.43.18-.98l-.17-.39a.44.44 0 0 1 .43-.61q1.3.1 2.34-.58.39-.26.82-.06.15.07.3.16.94.52.35-.38-.7-1.08-.79-2.41-.02-.2-.14-.36-.1-.14-.25-.16-.62-.1-.53.52l.07.5q.05.34-.25.51-.24.14-.37-.12-1.08-2.12-1.04-2.17.64-.67.73-1.63.05-.61-.55-.49-1.82.37-2.42 1.67-.87 1.88-1.21-.16-.5-2.94.66-6.13.43-1.18.74-2.42.31-1.29.62-2.59.12-.48-.05-.95-.41-1.14-1.28-2.02a.61.6 48.5 0 1 .05-.91q1.08-.82 1.54-2.17.17-.46.65-.37.19.04.3.2a.49.49 0 0 0 .82-.01q.19-.31.23-.73.02-.19.15-.34.24-.27.52-.05.33.24.24.64-.06.24.09.43.38.52.58-.09l.2-.6a1.01 1-86.8 0 1 .74-.67q1.18-.26 1.88-1.14a1.64 1.61 11.3 0 1 .81-.53q1.25-.35 2.52-.9.65-.29.84-.93.07-.25-.19-.28-.14-.01-.25.06-.53.37-.87-.19-1.54-2.5-.7-4.94.17-.51-.05-1.01-.16-.37-.43-.65-1.11-1.19-1.2.43l-.07 1.37a.44.44 0 0 1-.82.19q-.14-.24-.41-.24-.53 0-.6.52l-.19 1.26q-.09.59-.67.49-.55-.09-.75-.68c-.57-1.71-.96-4.5-3.6-3.96q-.84.18-.53-.62.61-1.6.95-3.37c.29-1.52 1.47-2.99 1.06-4.57q-.17-.64.14-1.22.36-.65.47-1.42.08-.56-.47-.46-2.45.44-2.56 2.73-.03.64-.64.82-1.06.32-2.39.13-.8-.11-.81-.92-.01-.98-.65-1.72-.85-.98-1.26.25-.41 1.25-.36 2.57.02.48-.46.46-.17-.01-.3-.1-.52-.38-.74.22-.85 2.35.18 4.48.23.48-.25.69l-1.22.56a.75.73 59 0 1-.89-.23q-1.18-1.57-3.19-2.25-.4-.14-.45-.56-.23-1.84.46-3.36.17-.36-.06-.7-1.15-1.72-.99-4.44.03-.6-.57-.52-1.51.22-1.93-1.7-.12-.56.43-.67 1.53-.32 1.15-1.95a.83.83 0 0 1 1.24-.9q1.86 1.12 3.18-1.15.29-.5.11-1.04-.57-1.7-1.97-1.51-.47.07-.56-.41-.29-1.74.26-3.1.52-1.29.84-2.64.4-1.66 1.16-3.31M174.71 71.86q.27.77.68.86t.62-.27q.12-.21.35-.28.76-.24.6.54-.11.6.3.91.36.27.68-.05l1.29-1.3q.72-.73.76.3.01.24.03.5a.95.94-83.9 0 0 .65.81q.34.11.7.05.64-.11.2-.59-.62-.67-.11-1.42.29-.43.05-.89l-.52-.98M218.77 310.48v-3.58q0-.81-.67-.34-.4.3-.87.42a.97.96 85.5 0 1-1.21-1.04q.35-3.34 1.56-6.69.6-1.65.29-3.39-.19-1.09-.94-.27-.35.38-1.18-1.13-.19-.34-.23-.73-.13-1.28 1.33-2.12.42-.25.89-.1l1.29.41q.64.21.8-.44l.42-1.74q.11-.45.51-.71.17-.1.35-.15.93-.2.29-.91-.44-.49-.59-1.14-.15-.63-.74-.34l-.38.19q-.63.32-.66-.39l-.11-3.36q-.02-.5-.38-.84-.37-.35-.9-.39a.24.24 0 0 1-.14-.42q1.35-1.25 1.08-3.69-.05-.54-.58-.68-2.32-.62-3.35-2.36-.2-.33-.5-.1-.7.53-1.56.62-.45.04-.26.46.96 2.11.55 4.64-.1.58-.66.38l-.4-.15a.57.57 0 0 0-.76.6q.14 1.25-.16 2.39-.19.68-.92.61-.69-.07-.82-.75l-.31-1.58q-.14-.72-.88-.7l-1.98.04a.91.91 0 0 0-.89.92q.04 2.18-2.37 2.64-.76.15-.59-.6l2.26-10.22q.14-.64-.43-.67c-3.88-.19-2.24-3.95-4.25-4.73q-.73-.28-.77.49-.09 1.89-1.15 1.89M200.77 262.03q1.01-.1 1.49-1.2.13-.3.45-.22.13.03.26.04.52.02.87-.38 2.72-3.13.87-4.21M205.67 250.03q1.51-5.4-.55-8.39M204.34 235.52q.94-1.52-.23-2.82M207.89 313.96l-.01-3.02q0-.73-.71-.53-.85.24-1.26-.46-.45-.77-1.1-.16l-.92.85q-.8.76-.81-.34-.01-1.09-.97-1.29-1.18-.25-.6.8.43.77-.14 1.47a.49.48-47.5 0 0 .02.63l.2.21q.5.54-.21.76-1.41.42-1.16 1.87" vector-effect="non-scaling-stroke"/><path d="M234.26 77.42q-.26.12-.13.36.08.14.23.07.19-.09.14-.31-.04-.21-.24-.12M166.28 83.54q.16.11.17-.08a.11.1-.3 0 0-.12-.11q-.06.01-.08.07-.04.07.03.12M263.46 92.38q-.15-.16-.24.04-.08.18.12.2.4.05.12-.24" vector-effect="non-scaling-stroke"/></g><path d="m221.7 70.44-.68 2.26q-.14.49-.54.8l-2.84 2.21a1.58 1.58 0 0 0-.27 2.23q.93 1.18 0 2.37-.15.19.05.34l.21.16q.1.07.16-.03l1.24-2q.35-.56.87-.16l3.44 2.7q.29.23.33.6.29 2.77-.92 5.05-.26.5-.09 1.04.54 1.79-1.09 3.17-.68.57.16.27l.36-.12a.74.72-32 0 1 .72.16q1.17 1.04 2.34 2.16.18.18.36 0 .01 0 .01-.01.28-.3-.14-.57a.81.8-62.9 0 1-.32-1l1.37-3.31a.29.28 11.1 0 1 .28-.18q1.8.11 2.27-1.78a.68.68 0 0 1 1.15-.31q2.05 2.08 3.08 5.01a.66.65 83.2 0 0 .53.42l.52.05q.67.08.38-.54-.57-1.2-.3-2.54.08-.39-.15-.71-.09-.12-.25-.14-.29-.04-.33-.33-.49-3.65 2.05-6.07a.91.91 0 0 0-.36-1.53c-1.74-.52-.97-2.22-2.65-2.79q-.46-.15-.71.26-.14.24-.41.18-.64-.13-.18-.6l.28-.28q.44-.44-.06-.81-.23-.17-.23-.44 0-.58.58-.58.33 0 .53-.23.38-.44-.01-.86l-.54-.61 9.45-1.32-.84.99q-.4.46.01.9l.43.46q.45.48.98.09.33-.23.54-.57.31-.48-.05-.93l-.69-.86q2.95-.45 5.24 1.17 3.56 2.51 8.16 6.57.22 2.19 1.23 4.22.27.54-.25.84l-1.39.8q-.56.32-.31.93l1.01 2.42q.49 1.16-.75.93-.93-.16-1.43.47-.31.38-.09.81l1.71 3.38q.31.6-.15 1.1l-1.82 1.94q-.62.67-.29 1.51l.42 1.06q.38.96.73-.01.65-1.76 2.64-1.14.46.14.53.6l.24 1.49q.08.5.53.71.62.29 1.19-.68a1.2 1.14-30.6 0 0 .15-.53q.01-1.38 1.14-1.84.55-.22.31-.76l-1.28-2.84a1.32 1.32 0 0 1 1.77-1.73q.93.44 1.99.46.77.01.89.77l.18 1.14q.05.35.4.42l3.36.66a.7.7 0 0 0 .83-.59q.04-.32-.15-.61-.45-.64.33-.76 1.28-.21 2.19.45 1.62 1.17-.19 2.32-1.01.64.12 1 1.47.47.9 1.96-.65 1.71-.56 3.36.03.46-.35.72-.47.33-.58.89-.51 2.74-.51 5.78 0 .61-.6.71l-.44.08q-.8.13-.05.43 1.66.7 2.33 2.46.37.96 1.07.22l1.21-1.26q.46-.48.17-1.07-.54-1.13-.45-2.39.03-.58.61-.67.85-.15 1.62.17.35.14.51.47.68 1.34 2.36 1.95.59.22.66-.41.01-.15.07-.3.2-.5.68-.77.46-.25.92-.04.61.28.55.99-.06.62-.46 1.07a.41.41 0 0 0 .15.65l.45.19q.41.17.43.61.12 2.93-.8 5.55a2.63 2.57-45.3 0 0-.01 1.73q.68 1.94-1.14 2.4-.52.13-.25.59.58.96 1.57.6.46-.16.87.1 1.46.94 2.56-.46a.78.77-39.2 0 0 .09-.83q-.63-1.24.04-2.32.27-.43.78-.42l3.25.05q.57.01.48-.55-.12-.77.04-1.48.19-.84.63-.1c.76 1.31 2 1.73 2.65 3.11q1 2.14.31 4.6-.12.4.22.64 1.27.9 1.11 2.47-.02.19.09.34.09.14.22.15.63.06.94-.48 1.16-1.95 2.94-.68a.54.53 45.5 0 0 .6.01q.16-.11.2-.3.07-.3-.08-.56-.53-.88-1.24-1.62a1.19 1.18-61.4 0 1-.31-1.07q.2-.93-.72-1.25a.86.86 0 0 1-.35-1.41q1.41-1.51 2.13-3.48.23-.66-.15-1.25-.41-.64-.18-1.31.2-.56.78-.41l3.73.92q.47 3.7.06 6.36-.77 4.91-1.53 10.09c-.33 2.19 1.59 4.44 2.69 6.19q.35.55.34 1.21-.05 8.53.05 16.96.06 5.16-1.48 13.94-4.65 26.55-9.04 53.19-.89 5.38-2.28 12.79-1.21 6.4-1.87 12.86-4.13.7-2.58-3.3c.61-1.58.6-2.81.28-4.35q-.08-.38-.45-.47-.65-.17-.72.5-.04.33-.22.57-.46.59-1 .09-3.05-2.85-.8-5.19 1.62-1.69-.72-1.79-1.29-.05-2.53-.44-.47-.14-.44-.64.13-2.6 1.11-4.69a.94.93-79.1 0 0-.9-1.34l-3.02.17q-.53.03-.54-.5l-.03-6.03q0-.57-.51-.83l-1.81-.91q-.24-.12-.34.13-.08.2.04.26.86.39.32 1.18-.54.78.02 1.54a.95.95 0 0 1-.44 1.45q-.83.3-1.15 1.1-.68 1.74-2.07.49l-2.47-2.22q-.56-.5-.62.25-.2 2.43.96 3.77a1.22 1.14 25.2 0 1 .3.75l.15 3.8a.49.41 39.7 0 0 .03.16q1.08 3.05 2.66 1.56a.52.51-41.1 0 1 .76.05q.35.45-.04.91-1.18 1.4-.23 2.69.34.46-.21.62-2.74.82-2.44 4.05.15 1.55-1.01.51-1.06-.94-2.05-2.05-.48-.53-1.15-.36-.44.11-.29.54.47 1.41-.62 3.07-.44.65-.72-.08-.11-.3-.07-.62.11-.85-.62-.41-.31.18-.31.58a.62.62 0 0 1-.3.53l-2.17 1.28q-.61.36-.12.89.28.3.72.34 1.02.09.33.86-.4.46-.19.96.27.65-.32 1.03l-1 .64q-.69.45-.48 1.24.31 1.17-.72 1.93-.46.34-.68-.18-.75-1.72-.33-3.36a.95.94 37.2 0 0-.1-.72l-.87-1.53q-.3-.53-.9-.43-.45.07-.86-.1-.51-.22-.69-.74-.52-1.5-.04-2.9.17-.48-.31-.66-1.42-.54-1.8-1.95a.94.94 0 0 1 .11-.75q1.1-1.77-.53-3.16a.96.95-51.8 0 1-.15-1.28l1.05-1.45q.43-.61-.2-1.01l-.66-.42q-.48-.31-.58-.87-.46-2.47.28-4.8.18-.58-.41-.43-2.31.6-3.35 2.29-.53.86-1.07.01l-.89-1.39q-.57-.88-.7.16l-.58 4.61q-.04.37.21.63.63.65 1.52.89a1 1 0 0 1 .35 1.75q-1.86 1.43-2.88 3.51-.24.49-.68.16-1.01-.77-1.27-2.04-.06-.24-.31-.22l-.26.02q-.35.04-.28.39.19.98.02 1.84-.04.18-.23.17l-.41-.02a.31.31 0 0 1-.29-.36q.28-1.97-1.15-.82a2.17 2.16 70.9 0 0-.82 1.7q-.01 3.04-2.2 4.39-.67.42-.75-.36l-.28-2.48q-.06-.58-.63-.7l-1.23-.25q-.89-.18-.28-.86.09-.09.13-.21.19-.52-.1-.98-2.05-3.37-1.22-7.61.12-.58-.23-1.07-1.77-2.5-.87-5.19.22-.67-.12-1.3-.09-.17-.23-.28-.67-.52-.92.3c-.9 2.96-2.57 2.65-4.34.85q-.37-.37-.83-.12-.62.33-.51 1.13.24 1.68 1.16 2.78.27.32-.04.6-.26.23-.63.18-.64-.1-.73.54-.13 1.03 1.06 2.06.21.19.47.07a.18.18 0 0 0 .03-.31q-.39-.31-.62-.71-.11-.19-.03-.4.07-.18.26-.23a.48.46 60 0 1 .44.13q2.26 2.31.04 4.61-1.35 1.38-2.91.76-.47-.19-.71.26-1.97 3.66-2.87 7.18-.16.64-.83.7-.59.05-.64-.55-.06-.75-.03-1.49 0-.08-.03-.14-.09-.19-.32-.24a.31.3 14.3 0 0-.36.21l-.25.88q-.24.85-1.03.46-1.02-.51-1.18-1.76-.05-.4-.38-.61-.08-.05-.17-.03-.68.11-.9-.55-.29-.84-.78-1.55-.27-.37-.65-.63-1.23-.86-.25-2.13.64-.84-.41-.95l-2.57-.28q-.49-.05-.51-.54l-.14-4.89q-.02-.66-.65-.49-1.32.35-2.34-.47-.88-5.27-1.26-6.7-1.52-5.68-6.35-9.1-2.87-2.03-9.33-3-6.59-.99-10.76-1.11-7.14-.2-12.94-.15c-2.75.02-6.23-1.59-8.56-3.5q-12.99-10.64-19.33-15.18-13.55-9.7-29.79-11.21-6.02-.55-9.04-1.63-15.07-5.38-15.94-21.93-.14-2.67.3-6.34 1.16-.62.22-4.09-.13-.5.32-.74c2.07-1.08 3.52-4.97 1.49-6.93a.64.64 0 0 0-1.07.58q.09.44-.26.67-.61.39-.63-.33-.08-2.36-.96-4.43-.29-.7.46-.77l1.63-.17q.56-.06.32-.56l-.39-.85q-.26-.55.12-1.02l1.43-1.73a1.22 1.21-32.2 0 0 .24-1.03q-.17-.7-.6-1.29a1.02 1.01 40.2 0 1-.09-1.03l.95-2.03q.38-.81.63.05.56 2 2.52 2.68.56.19.35.74-.38.96.64 1.19a.53.52 20.4 0 1 .35.76q-.36.69-.02 1.43.3.68.1 1.38-.41 1.37.39 2.88.35.66.86.11l1.46-1.61q.42-.47.17-1.05-.41-.93.36-1.48.52-.37 1.04.01 1.14.82 2.2-.03.55-.44.79.22l.47 1.31q.17.5-.05.98-1.05 2.18-.95 4.63.01.4.27.7.25.27.58.38.55.17.68-.39l.1-.44q.16-.69.78-.34c2.38 1.34 2.9 3.6.75 5.44a.83.82 61.3 0 0-.25.87q.22.76 1.01.68 1.4-.15 2.82.42.48.19.48.71-.02 2.44-1.13 4.46a1.02 1.01-77.4 0 0 .95 1.5l2.84-.17q.59-.03.6.56l.17 6.36q.01.33.31.47l2.11 1.04a.12.12 0 0 0 .17-.12l-.41-3.57q-.09-.75.59-1.07.89-.42 1.18-1.35a1.02 1.02 0 0 1 1.66-.44l2.58 2.39a.42.42 0 0 0 .7-.23q.47-2.4-1.15-3.7-.36-.3-.28-.76.51-2.84-.64-5.53-.24-.55-.84-.5-.73.05-1.29.58-.38.35-.66-.09-.32-.51.09-.96 1.17-1.27.31-2.69a.42.42 0 0 1 .22-.61q2.64-.97 2.32-4.03-.18-1.66 1.04-.52 1.02.96 2.02 1.91.58.55 1.37.36.42-.1.23-.48-.63-1.3.35-2.73.84-1.21.82.27 0 .29.17.5.34.43.56-.07l.26-.62q.18-.43.62-.58 1.04-.35 1.91-1.08.53-.45.03-.94-.2-.2-.48-.22-.73-.06-.46-.75.29-.72-.02-1.47-.23-.56.36-.71.94-.24 1.55-1.08.28-.38.09-.83-.43-1.02.52-1.82.42-.35.74.1 1.14 1.66.41 3.13-.24.49.03.97l.99 1.72q.3.52.85.3.79-.31 1.28.36 1.17 1.61.27 3.47-.23.48.29.6 1.09.23 1.71 1.15a1.25 1.25 0 0 1 .2.88q-.13.83-.55 1.55-.27.48-.02.98.42.82 1.16 1.38a.8.79-45.6 0 1 .01 1.26q-.82.64-1.24 1.55a.67.67 0 0 0 .26.85l.91.56q.44.26.51.77.34 2.39-.27 4.61-.18.67.48.45 1.5-.49 2.8-1.43a.62.6-23.1 0 0 .24-.57q-.06-.39.26-.59a.6.59 50.1 0 1 .7.07q.88.78.95 1.97.01.32.34.33h.25q.21.01.23-.2l.56-5.02q.06-.53-.34-.87-.7-.6-1.56-.98a.81.81 0 0 1-.22-1.34q1.81-1.64 2.98-3.71.29-.51.75-.15.97.75 1.17 1.99a.26.26 0 0 0 .33.21l.31-.09a.25.24 76.9 0 0 .17-.28q-.16-.82.12-1.6.28-.8.76-.1.15.21.17.48.05 1.02.89.44c.61-.42 1.04-1.19 1.04-1.92q.02-2.3 1.67-3.8 1.52-1.38 1.32.66-.26 2.7 2.08 2.76.71.01.41.66-.66 1.39.52 2.55a1.59 1.58-75 0 1 .41.71q.75 2.99.06 5.63-.16.61.23 1.1 1.94 2.4.93 5.49-.19.58.22 1.03l.27.28q.47.5.66-.16.46-1.61 1.8-2.31.56-.29 1.07.09l1.46 1.12q.45.34.94.08.39-.21.55-.6.21-.51-.06-1.05-.58-1.21-1.06-2.26-.27-.59.38-.64.59-.04.96-.48.31-.38.08-.82-.5-.92-1.33-1.27-.44-.18-.3.27.14.44.55.6.39.15.1.45l-.21.22q-.06.06-.13.02-2.11-1.34-1.18-3.4 1.37-3.05 3.93-1.99.6.26.65-.4.13-1.7 1.41-3.11a2.14 2.09-20.3 0 0 .54-1.14q.19-1.35.56-2.72.22-.82 1.01-.89.56-.05.59.51l.09 1.52q.06.86.65.24.3-.32.38-.78a.8.77 75.7 0 1 .26-.46q.49-.41.93-.16.46.26.58.76.16.66.2 1.39a.33.33 0 0 0 .45.29l.41-.14q.75-.28.81.52.14 1.77 1.74 2.48.67.3.32.93l-.74 1.41q-.36.66.39.66l2.86.02q.53 0 .54.53l.17 5.31q.02.49.48.33 1-.35 2.05 0 .4.14.39-.29-.05-1.38-.63-2.78-.23-.53 0-1.06.34-.82.98-1.48.42-.43.18-.98l-.17-.39a.44.44 0 0 1 .43-.61q1.3.1 2.34-.58.39-.26.82-.06.15.07.3.16.94.52.35-.38-.7-1.08-.79-2.41-.02-.2-.14-.36-.1-.14-.25-.16-.62-.1-.53.52l.07.5q.05.34-.25.51-.24.14-.37-.12-1.08-2.12-1.04-2.17.64-.67.73-1.63.05-.61-.55-.49-1.82.37-2.42 1.67-.87 1.88-1.21-.16-.5-2.94.66-6.13.43-1.18.74-2.42.31-1.29.62-2.59.12-.48-.05-.95-.41-1.14-1.28-2.02a.61.6 48.5 0 1 .05-.91q1.08-.82 1.54-2.17.17-.46.65-.37.19.04.3.2a.49.49 0 0 0 .82-.01q.19-.31.23-.73.02-.19.15-.34.24-.27.52-.05.33.24.24.64-.06.24.09.43.38.52.58-.09l.2-.6a1.01 1-86.8 0 1 .74-.67q1.18-.26 1.88-1.14a1.64 1.61 11.3 0 1 .81-.53q1.25-.35 2.52-.9.65-.29.84-.93.07-.25-.19-.28-.14-.01-.25.06-.53.37-.87-.19-1.54-2.5-.7-4.94.17-.51-.05-1.01-.16-.37-.43-.65-1.11-1.19-1.2.43l-.07 1.37a.44.44 0 0 1-.82.19q-.14-.24-.41-.24-.53 0-.6.52l-.19 1.26q-.09.59-.67.49-.55-.09-.75-.68c-.57-1.71-.96-4.5-3.6-3.96q-.84.18-.53-.62.61-1.6.95-3.37c.29-1.52 1.47-2.99 1.06-4.57q-.17-.64.14-1.22.36-.65.47-1.42.08-.56-.47-.46-2.45.44-2.56 2.73-.03.64-.64.82-1.06.32-2.39.13-.8-.11-.81-.92-.01-.98-.65-1.72-.85-.98-1.26.25-.41 1.25-.36 2.57.02.48-.46.46-.17-.01-.3-.1-.52-.38-.74.22-.85 2.35.18 4.48.23.48-.25.69l-1.22.56a.75.73 59 0 1-.89-.23q-1.18-1.57-3.19-2.25-.4-.14-.45-.56-.23-1.84.46-3.36.17-.36-.06-.7-1.15-1.72-.99-4.44.03-.6-.57-.52-1.51.22-1.93-1.7-.12-.56.43-.67 1.53-.32 1.15-1.95a.83.83 0 0 1 1.24-.9q1.86 1.12 3.18-1.15.29-.5.11-1.04-.57-1.7-1.97-1.51-.47.07-.56-.41-.29-1.74.26-3.1.52-1.29.84-2.64.4-1.66 1.16-3.31 3.22.71 4.6-1.89 1.22-2.3 2.85-4.29.27.77.68.86t.62-.27q.12-.21.35-.28.76-.24.6.54-.11.6.3.91.36.27.68-.05l1.29-1.3q.72-.73.76.3.01.24.03.5a.95.94-83.9 0 0 .65.81q.34.11.7.05.64-.11.2-.59-.62-.67-.11-1.42.29-.43.05-.89l-.52-.98q1.26-.04 3.13.81c2.23 1.02 5.34.59 7.62-.44 3.56-1.59 8.73-2.42 12.95-1.83q3.17.45 6-1 2.48-1.27 4.34.2c1.77 1.4 4.53 2.04 6.67 2.65m12.56 6.98q-.26.12-.13.36.08.14.23.07.19-.09.14-.31-.04-.21-.24-.12m-67.98 6.12q.16.11.17-.08a.11.1-.3 0 0-.12-.11q-.06.01-.08.07-.04.07.03.12"/><path fill="#1a4bb8" d="m180.99 70.05.52.98q.24.46-.05.89-.51.75.11 1.42.44.48-.2.59-.36.06-.7-.05a.95.94-83.9 0 1-.65-.81q-.02-.26-.03-.5-.04-1.03-.76-.3l-1.29 1.3q-.32.32-.68.05-.41-.31-.3-.91.16-.78-.6-.54-.23.07-.35.28-.21.36-.62.27t-.68-.86q2.51-2.74 6.28-1.81M221.7 70.44l10.2 2.91.54.61q.39.42.01.86-.2.23-.53.23-.58 0-.58.58 0 .27.23.44.5.37.06.81l-.28.28q-.46.47.18.6.27.06.41-.18.25-.41.71-.26c1.68.57.91 2.27 2.65 2.79a.91.91 0 0 1 .36 1.53q-2.54 2.42-2.05 6.07.04.29.33.33.16.02.25.14.23.32.15.71-.27 1.34.3 2.54.29.62-.38.54l-.52-.05a.66.65 83.2 0 1-.53-.42q-1.03-2.93-3.08-5.01a.68.68 0 0 0-1.15.31q-.47 1.89-2.27 1.78a.29.28 11.1 0 0-.28.18l-1.37 3.31a.81.8-62.9 0 0 .32 1q.42.27.14.57 0 .01-.01.01-.18.18-.36 0-1.17-1.12-2.34-2.16a.74.72-32 0 0-.72-.16l-.36.12q-.84.3-.16-.27 1.63-1.38 1.09-3.17-.17-.54.09-1.04 1.21-2.28.92-5.05-.04-.37-.33-.6l-3.44-2.7q-.52-.4-.87.16l-1.24 2q-.06.1-.16.03l-.21-.16q-.2-.15-.05-.34.93-1.19 0-2.37a1.58 1.58 0 0 1 .27-2.23l2.84-2.21q.4-.31.54-.8zM241.73 72.11l.69.86q.36.45.05.93-.21.34-.54.57-.53.39-.98-.09l-.43-.46q-.41-.44-.01-.9l.84-.99q-.23.15.38.08M167.26 78.04q-.76 1.65-1.16 3.31-.32 1.35-.84 2.64-.55 1.36-.26 3.1.09.48.56.41 1.4-.19 1.97 1.51.18.54-.11 1.04-1.32 2.27-3.18 1.15a.83.83 0 0 0-1.24.9q.38 1.63-1.15 1.95-.55.11-.43.67.42 1.92 1.93 1.7.6-.08.57.52-.16 2.72.99 4.44.23.34.06.7-.69 1.52-.46 3.36.05.42.45.56 2.01.68 3.19 2.25a.75.73 59 0 0 .89.23l1.22-.56q.48-.21.25-.69-1.03-2.13-.18-4.48.22-.6.74-.22.13.09.3.1.48.02.46-.46-.05-1.32.36-2.57.41-1.23 1.26-.25.64.74.65 1.72.01.81.81.92 1.33.19 2.39-.13.61-.18.64-.82.11-2.29 2.56-2.73.55-.1.47.46-.11.77-.47 1.42-.31.58-.14 1.22c.41 1.58-.77 3.05-1.06 4.57q-.34 1.77-.95 3.37-.31.8.53.62c2.64-.54 3.03 2.25 3.6 3.96q.2.59.75.68.58.1.67-.49l.19-1.26q.07-.52.6-.52.27 0 .41.24a.44.44 0 0 0 .82-.19l.07-1.37q.09-1.62 1.2-.43.27.28.43.65.22.5.05 1.01-.84 2.44.7 4.94.34.56.87.19.11-.07.25-.06.26.03.19.28-.19.64-.84.93-1.27.55-2.52.9a1.64 1.61 11.3 0 0-.81.53q-.7.88-1.88 1.14a1.01 1-86.8 0 0-.74.67l-.2.6q-.2.61-.58.09-.15-.19-.09-.43.09-.4-.24-.64-.28-.22-.52.05-.13.15-.15.34-.04.42-.23.73a.49.49 0 0 1-.82.01q-.11-.16-.3-.2-.48-.09-.65.37-.46 1.35-1.54 2.17a.61.6 48.5 0 0-.05.91q.87.88 1.28 2.02.17.47.05.95-.31 1.3-.62 2.59-.31 1.24-.74 2.42-1.16 3.19-.66 6.13.34 2.04 1.21.16.6-1.3 2.42-1.67.6-.12.55.49-.09.96-.73 1.63-.04.05 1.04 2.17.13.26.37.12.3-.17.25-.51l-.07-.5q-.09-.62.53-.52.15.02.25.16.12.16.14.36.09 1.33.79 2.41.59.9-.35.38-.15-.09-.3-.16-.43-.2-.82.06-1.04.68-2.34.58a.44.44 0 0 0-.43.61l.17.39q.24.55-.18.98-.64.66-.98 1.48-.23.53 0 1.06.58 1.4.63 2.78.01.43-.39.29-1.05-.35-2.05 0-.46.16-.48-.33l-.17-5.31q-.01-.53-.54-.53l-2.86-.02q-.75 0-.39-.66l.74-1.41q.35-.63-.32-.93-1.6-.71-1.74-2.48-.06-.8-.81-.52l-.41.14a.33.33 0 0 1-.45-.29q-.04-.73-.2-1.39-.12-.5-.58-.76-.44-.25-.93.16a.8.77 75.7 0 0-.26.46q-.08.46-.38.78-.59.62-.65-.24l-.09-1.52q-.03-.56-.59-.51-.79.07-1.01.89-.37 1.37-.56 2.72a2.14 2.09-20.3 0 1-.54 1.14q-1.28 1.41-1.41 3.11-.05.66-.65.4-2.56-1.06-3.93 1.99-.93 2.06 1.18 3.4.07.04.13-.02l.21-.22q.29-.3-.1-.45-.41-.16-.55-.6-.14-.45.3-.27.83.35 1.33 1.27.23.44-.08.82-.37.44-.96.48-.65.05-.38.64.48 1.05 1.06 2.26.27.54.06 1.05-.16.39-.55.6-.49.26-.94-.08l-1.46-1.12q-.51-.38-1.07-.09-1.34.7-1.8 2.31-.19.66-.66.16l-.27-.28q-.41-.45-.22-1.03 1.01-3.09-.93-5.49-.39-.49-.23-1.1.69-2.64-.06-5.63a1.59 1.58-75 0 0-.41-.71q-1.18-1.16-.52-2.55.3-.65-.41-.66-2.34-.06-2.08-2.76.2-2.04-1.32-.66-1.65 1.5-1.67 3.8c0 .73-.43 1.5-1.04 1.92q-.84.58-.89-.44-.02-.27-.17-.48-.48-.7-.76.1-.28.78-.12 1.6a.25.24 76.9 0 1-.17.28l-.31.09a.26.26 0 0 1-.33-.21q-.2-1.24-1.17-1.99-.46-.36-.75.15-1.17 2.07-2.98 3.71a.81.81 0 0 0 .22 1.34q.86.38 1.56.98.4.34.34.87l-.56 5.02q-.02.21-.23.2h-.25q-.33-.01-.34-.33-.07-1.19-.95-1.97a.6.59 50.1 0 0-.7-.07q-.32.2-.26.59a.62.6-23.1 0 1-.24.57q-1.3.94-2.8 1.43-.66.22-.48-.45.61-2.22.27-4.61-.07-.51-.51-.77l-.91-.56a.67.67 0 0 1-.26-.85q.42-.91 1.24-1.55a.8.79-45.6 0 0-.01-1.26q-.74-.56-1.16-1.38-.25-.5.02-.98.42-.72.55-1.55a1.25 1.25 0 0 0-.2-.88q-.62-.92-1.71-1.15-.52-.12-.29-.6.9-1.86-.27-3.47-.49-.67-1.28-.36-.55.22-.85-.3l-.99-1.72q-.27-.48-.03-.97.73-1.47-.41-3.13-.32-.45-.74-.1-.95.8-.52 1.82.19.45-.09.83-.61.84-1.55 1.08-.59.15-.36.71.31.75.02 1.47-.27.69.46.75.28.02.48.22.5.49-.03.94-.87.73-1.91 1.08-.44.15-.62.58l-.26.62q-.22.5-.56.07-.17-.21-.17-.5.02-1.48-.82-.27-.98 1.43-.35 2.73.19.38-.23.48-.79.19-1.37-.36-1-.95-2.02-1.91-1.22-1.14-1.04.52.32 3.06-2.32 4.03a.42.42 0 0 0-.22.61q.86 1.42-.31 2.69-.41.45-.09.96.28.44.66.09.56-.53 1.29-.58.6-.05.84.5 1.15 2.69.64 5.53-.08.46.28.76 1.62 1.3 1.15 3.7a.42.42 0 0 1-.7.23l-2.58-2.39a1.02 1.02 0 0 0-1.66.44q-.29.93-1.18 1.35-.68.32-.59 1.07l.41 3.57a.12.12 0 0 1-.17.12l-2.11-1.04q-.3-.14-.31-.47l-.17-6.36q-.01-.59-.6-.56l-2.84.17a1.02 1.01-77.4 0 1-.95-1.5q1.11-2.02 1.13-4.46 0-.52-.48-.71-1.42-.57-2.82-.42-.79.08-1.01-.68a.83.82 61.3 0 1 .25-.87c2.15-1.84 1.63-4.1-.75-5.44q-.62-.35-.78.34l-.1.44q-.13.56-.68.39-.33-.11-.58-.38-.26-.3-.27-.7-.1-2.45.95-4.63.22-.48.05-.98l-.47-1.31q-.24-.66-.79-.22-1.06.85-2.2.03-.52-.38-1.04-.01-.77.55-.36 1.48.25.58-.17 1.05l-1.46 1.61q-.51.55-.86-.11-.8-1.51-.39-2.88.2-.7-.1-1.38-.34-.74.02-1.43a.53.52 20.4 0 0-.35-.76q-1.02-.23-.64-1.19.21-.55-.35-.74-1.96-.68-2.52-2.68-.25-.86-.63-.05l-.95 2.03a1.02 1.01 40.2 0 0 .09 1.03q.43.59.6 1.29a1.22 1.21-32.2 0 1-.24 1.03l-1.43 1.73q-.38.47-.12 1.02l.39.85q.24.5-.32.56l-1.63.17q-.75.07-.46.77.88 2.07.96 4.43.02.72.63.33.35-.23.26-.67a.64.64 0 0 1 1.07-.58c2.03 1.96.58 5.85-1.49 6.93q-.45.24-.32.74.94 3.47-.22 4.09c-1.2-3.67-3.21-7.68-3.16-11.28.04-2.56-.54-6.12.86-8.34q4.86-7.65 8.37-14.25c2.79-5.24 8.02-7.89 13.93-9.25q13.16-3.01 25.21-6.35c12.85-3.56 21.76-9.63 23.82-23.62q.08-.56.48-.96c5.47-5.44 11.04-1.35 16.79 1.94"/><path fill="#1a4bb8" d="M234.26 77.42q.2-.09.24.12.05.22-.14.31-.15.07-.23-.07-.13-.24.13-.36M255.13 79.85q3.91 1.96 5.34 2.23 9.52 1.86 19.09 3.4c2.48.4 4.62 2.14 4.45 4.83-.32 5.12.78 12.56 6.19 14.75 3.54 1.43 8.27 2.72 11.15 5.29q.37.33.43.82l.83 6.7-3.73-.92q-.58-.15-.78.41-.23.67.18 1.31.38.59.15 1.25-.72 1.97-2.13 3.48a.86.86 0 0 0 .35 1.41q.92.32.72 1.25a1.19 1.18-61.4 0 0 .31 1.07q.71.74 1.24 1.62.15.26.08.56-.04.19-.2.3a.54.53 45.5 0 1-.6-.01q-1.78-1.27-2.94.68-.31.54-.94.48-.13-.01-.22-.15-.11-.15-.09-.34.16-1.57-1.11-2.47-.34-.24-.22-.64.69-2.46-.31-4.6c-.65-1.38-1.89-1.8-2.65-3.11q-.44-.74-.63.1-.16.71-.04 1.48.09.56-.48.55l-3.25-.05q-.51-.01-.78.42-.67 1.08-.04 2.32a.78.77-39.2 0 1-.09.83q-1.1 1.4-2.56.46-.41-.26-.87-.1-.99.36-1.57-.6-.27-.46.25-.59 1.82-.46 1.14-2.4a2.63 2.57-45.3 0 1 .01-1.73q.92-2.62.8-5.55-.02-.44-.43-.61l-.45-.19a.41.41 0 0 1-.15-.65q.4-.45.46-1.07.06-.71-.55-.99-.46-.21-.92.04-.48.27-.68.77-.06.15-.07.3-.07.63-.66.41-1.68-.61-2.36-1.95-.16-.33-.51-.47-.77-.32-1.62-.17-.58.09-.61.67-.09 1.26.45 2.39.29.59-.17 1.07l-1.21 1.26q-.7.74-1.07-.22-.67-1.76-2.33-2.46-.75-.3.05-.43l.44-.08q.6-.1.6-.71 0-3.04.51-5.78.11-.56.58-.89.38-.26.35-.72-.09-1.65.56-3.36.57-1.49-.9-1.96-1.13-.36-.12-1 1.81-1.15.19-2.32-.91-.66-2.19-.45-.78.12-.33.76.19.29.15.61a.7.7 0 0 1-.83.59l-3.36-.66q-.35-.07-.4-.42l-.18-1.14q-.12-.76-.89-.77-1.06-.02-1.99-.46a1.32 1.32 0 0 0-1.77 1.73l1.28 2.84q.24.54-.31.76-1.13.46-1.14 1.84a1.2 1.14-30.6 0 1-.15.53q-.57.97-1.19.68-.45-.21-.53-.71l-.24-1.49q-.07-.46-.53-.6-1.99-.62-2.64 1.14-.35.97-.73.01l-.42-1.06q-.33-.84.29-1.51l1.82-1.94q.46-.5.15-1.1l-1.71-3.38q-.22-.43.09-.81.5-.63 1.43-.47 1.24.23.75-.93l-1.01-2.42q-.25-.61.31-.93l1.39-.8q.52-.3.25-.84-1.01-2.03-1.23-4.22m8.33 12.53q-.15-.16-.24.04-.08.18.12.2.4.05.12-.24M166.25 83.42q.02-.06.08-.07a.11.1-.3 0 1 .12.11q-.01.19-.17.08-.07-.05-.03-.12"/><path d="M263.46 92.38q.28.29-.12.24-.2-.02-.12-.2.09-.2.24-.04"/><path fill="#1a4bb8" d="M289.55 251.46c-.52 3.79-.94 7.82-.1 11.57.73 3.26 1.38 7.01-2.17 9.02-7.44 4.21-14.8 8.52-22.07 13.52-14.71 10.13-29.4 18.87-46.44 24.91v-3.58q0-.81-.67-.34-.4.3-.87.42a.97.96 85.5 0 1-1.21-1.04q.35-3.34 1.56-6.69.6-1.65.29-3.39-.19-1.09-.94-.27-.35.38-1.18-1.13-.19-.34-.23-.73-.13-1.28 1.33-2.12.42-.25.89-.1l1.29.41q.64.21.8-.44l.42-1.74q.11-.45.51-.71.17-.1.35-.15.93-.2.29-.91-.44-.49-.59-1.14-.15-.63-.74-.34l-.38.19q-.63.32-.66-.39l-.11-3.36q-.02-.5-.38-.84-.37-.35-.9-.39a.24.24 0 0 1-.14-.42q1.35-1.25 1.08-3.69-.05-.54-.58-.68-2.32-.62-3.35-2.36-.2-.33-.5-.1-.7.53-1.56.62-.45.04-.26.46.96 2.11.55 4.64-.1.58-.66.38l-.4-.15a.57.57 0 0 0-.76.6q.14 1.25-.16 2.39-.19.68-.92.61-.69-.07-.82-.75l-.31-1.58q-.14-.72-.88-.7l-1.98.04a.91.91 0 0 0-.89.92q.04 2.18-2.37 2.64-.76.15-.59-.6l2.26-10.22q.14-.64-.43-.67c-3.88-.19-2.24-3.95-4.25-4.73q-.73-.28-.77.49-.09 1.89-1.15 1.89-.07-5.07 2.97-8.7 1.01-.1 1.49-1.2.13-.3.45-.22.13.03.26.04.52.02.87-.38 2.72-3.13.87-4.21 1.2-3.2.96-6.03 1.51-5.4-.55-8.39l-.78-6.12q.94-1.52-.23-2.82l-.15-2.7q1.02.82 2.34.47.63-.17.65.49l.14 4.89q.02.49.51.54l2.57.28q1.05.11.41.95-.98 1.27.25 2.13.38.26.65.63.49.71.78 1.55.22.66.9.55.09-.02.17.03.33.21.38.61.16 1.25 1.18 1.76.79.39 1.03-.46l.25-.88a.31.3 14.3 0 1 .36-.21q.23.05.32.24.03.06.03.14-.03.74.03 1.49.05.6.64.55.67-.06.83-.7.9-3.52 2.87-7.18.24-.45.71-.26 1.56.62 2.91-.76 2.22-2.3-.04-4.61a.48.46 60 0 0-.44-.13q-.19.05-.26.23-.08.21.03.4.23.4.62.71a.18.18 0 0 1-.03.31q-.26.12-.47-.07-1.19-1.03-1.06-2.06.09-.64.73-.54.37.05.63-.18.31-.28.04-.6-.92-1.1-1.16-2.78-.11-.8.51-1.13.46-.25.83.12c1.77 1.8 3.44 2.11 4.34-.85q.25-.82.92-.3.14.11.23.28.34.63.12 1.3-.9 2.69.87 5.19.35.49.23 1.07-.83 4.24 1.22 7.61.29.46.1.98-.04.12-.13.21-.61.68.28.86l1.23.25q.57.12.63.7l.28 2.48q.08.78.75.36 2.19-1.35 2.2-4.39a2.17 2.16 70.9 0 1 .82-1.7q1.43-1.15 1.15.82a.31.31 0 0 0 .29.36l.41.02q.19.01.23-.17.17-.86-.02-1.84-.07-.35.28-.39l.26-.02q.25-.02.31.22.26 1.27 1.27 2.04.44.33.68-.16 1.02-2.08 2.88-3.51a1 1 0 0 0-.35-1.75q-.89-.24-1.52-.89-.25-.26-.21-.63l.58-4.61q.13-1.04.7-.16l.89 1.39q.54.85 1.07-.01 1.04-1.69 3.35-2.29.59-.15.41.43-.74 2.33-.28 4.8.1.56.58.87l.66.42q.63.4.2 1.01l-1.05 1.45a.96.95-51.8 0 0 .15 1.28q1.63 1.39.53 3.16a.94.94 0 0 0-.11.75q.38 1.41 1.8 1.95.48.18.31.66-.48 1.4.04 2.9.18.52.69.74.41.17.86.1.6-.1.9.43l.87 1.53a.95.94 37.2 0 1 .1.72q-.42 1.64.33 3.36.22.52.68.18 1.03-.76.72-1.93-.21-.79.48-1.24l1-.64q.59-.38.32-1.03-.21-.5.19-.96.69-.77-.33-.86-.44-.04-.72-.34-.49-.53.12-.89l2.17-1.28a.62.62 0 0 0 .3-.53q0-.4.31-.58.73-.44.62.41-.04.32.07.62.28.73.72.08 1.09-1.66.62-3.07-.15-.43.29-.54.67-.17 1.15.36.99 1.11 2.05 2.05 1.16 1.04 1.01-.51-.3-3.23 2.44-4.05.55-.16.21-.62-.95-1.29.23-2.69.39-.46.04-.91a.52.51-41.1 0 0-.76-.05q-1.58 1.49-2.66-1.56a.49.41 39.7 0 1-.03-.16l-.15-3.8a1.22 1.14 25.2 0 0-.3-.75q-1.16-1.34-.96-3.77.06-.75.62-.25l2.47 2.22q1.39 1.25 2.07-.49.32-.8 1.15-1.1a.95.95 0 0 0 .44-1.45q-.56-.76-.02-1.54.54-.79-.32-1.18-.12-.06-.04-.26.1-.25.34-.13l1.81.91q.51.26.51.83l.03 6.03q.01.53.54.5l3.02-.17a.94.93-79.1 0 1 .9 1.34q-.98 2.09-1.11 4.69-.03.5.44.64 1.24.39 2.53.44 2.34.1.72 1.79-2.25 2.34.8 5.19.54.5 1-.09.18-.24.22-.57.07-.67.72-.5.37.09.45.47c.32 1.54.33 2.77-.28 4.35q-1.55 4 2.58 3.3"/><path d="M204.34 235.52q-.34-1.38-.23-2.82 1.17 1.3.23 2.82M205.67 250.03l-.55-8.39q2.06 2.99.55 8.39M204.71 256.06q1.85 1.08-.87 4.21-.35.4-.87.38-.13-.01-.26-.04-.32-.08-.45.22-.48 1.1-1.49 1.2zM218.77 310.48l-10.88 3.48-.01-3.02q0-.73-.71-.53-.85.24-1.26-.46-.45-.77-1.1-.16l-.92.85q-.8.76-.81-.34-.01-1.09-.97-1.29-1.18-.25-.6.8.43.77-.14 1.47a.49.48-47.5 0 0 .02.63l.2.21q.5.54-.21.76-1.41.42-1.16 1.87l-6.22.08q-.56.01-.85-.47-1.13-1.87-2.3-3.89c-1.21-2.07-.93-4.74-.28-6.87q5.1-16.75 7.23-32.87 1.06 0 1.15-1.89.04-.77.77-.49c2.01.78.37 4.54 4.25 4.73q.57.03.43.67l-2.26 10.22q-.17.75.59.6 2.41-.46 2.37-2.64a.91.91 0 0 1 .89-.92l1.98-.04q.74-.02.88.7l.31 1.58q.13.68.82.75.73.07.92-.61.3-1.14.16-2.39a.57.57 0 0 1 .76-.6l.4.15q.56.2.66-.38.41-2.53-.55-4.64-.19-.42.26-.46.86-.09 1.56-.62.3-.23.5.1 1.03 1.74 3.35 2.36.53.14.58.68.27 2.44-1.08 3.69a.24.24 0 0 0 .14.42q.53.04.9.39.36.34.38.84l.11 3.36q.03.71.66.39l.38-.19q.59-.29.74.34.15.65.59 1.14.64.71-.29.91-.18.05-.35.15-.4.26-.51.71l-.42 1.74q-.16.65-.8.44l-1.29-.41q-.47-.15-.89.1-1.46.84-1.33 2.12.04.39.23.73.83 1.51 1.18 1.13.75-.82.94.27.31 1.74-.29 3.39-1.21 3.35-1.56 6.69a.97.96 85.5 0 0 1.21 1.04q.47-.12.87-.42.67-.47.67.34z"/><path fill="#1a4bb8" d="M207.89 313.96q-3.23 1.46-7.67.79-.25-1.45 1.16-1.87.71-.22.21-.76l-.2-.21a.49.48-47.5 0 1-.02-.63q.57-.7.14-1.47-.58-1.05.6-.8.96.2.97 1.29.01 1.1.81.34l.92-.85q.65-.61 1.1.16.41.7 1.26.46.71-.2.71.53z"/></svg>