<svg xmlns="http://www.w3.org/2000/svg" viewBox="0 0 382 382"><defs><clipPath id="a"><path d="M206.44 314.67h-12.95c-1.21-2.51-3.68-5.19-3.38-7.49.75-5.57 2.98-10.93 4.26-16.45 1.32-5.69 2.27-11.47 3.26-17.23.45-2.59 0-5.5 1.03-7.79 1.44-3.23 4.06-5.91 5.79-9.04.92-1.65 1.56-3.78 1.43-5.63-.52-7.52-1.58-15.01-2.06-22.53-.5-7.85-4.73-14.92-12.25-16.61-7.27-1.63-14.94-2.3-22.38-1.99-5.67.24-10.44-.05-14.85-3.97-4.27-3.81-9.03-7.07-13.42-10.76-10.97-9.21-23.3-14.58-37.79-15.62-13.59-.97-23.89-11.32-22.18-27.83.35-3.39-1.96-7.06-3.05-10.6v-8.98c2.87-4.82 6.05-9.49 8.52-14.51 2.88-5.83 7.45-8.74 13.57-10.16 9.19-2.13 18.35-4.43 27.43-6.98 11.92-3.35 20.95-9.71 22.65-23.23.12-.97 1.37-2.05 2.36-2.6 5.11-2.85 9.16.46 13.25 2.7 3.34 1.83 5.3 1.31 7.01-2.2 2.7-5.54 6.16-6.44 11.54-4.15 1.78.76 4.49 1 6.09.17 5.44-2.82 11-2.87 16.83-2.25 1.35.14 2.85-1.04 4.28-1.61h2.99c.54.52.99 1.31 1.63 1.51 5.05 1.63 10.13 3.21 15.24 4.64.82.23 1.86-.51 2.81-.58 3.67-.27 7.73-1.53 10.93-.39 3.66 1.3 6.42 4.96 9.83 7.21 2.03 1.34 4.48 2.32 6.87 2.81 5.88 1.22 11.85 2.03 17.76 3.08 3.22.57 4.62 2.39 4.46 5.87-.12 2.71.25 5.59 1.09 8.16 2.07 6.3 8.55 6.38 13.31 8.91 1.21.64 3.07 1.46 3.22 2.42.65 4.02 1.13 8.15.98 12.21-.15 4.04-1.57 8.05-1.56 12.07 0 1.96 2.01 3.91 3.1 5.87v22.94c-.77 4.18-1.59 8.36-2.3 12.55-1.89 11.1-3.76 22.2-5.6 33.31-1.17 7.08-2.2 14.17-3.41 21.24-.71 4.18-1.82 8.29-2.44 12.48-.7 4.73-1.27 9.5-1.46 14.27-.12 2.91.57 5.85.94 8.77.33 2.58-.56 4.1-3.01 5.47-6.85 3.82-13.69 7.76-20.12 12.23-17.42 12.11-35.35 23.07-56.19 28.34-1.42.36-2.71 1.27-4.06 1.93z"/></clipPath></defs><g clip-path="url(#a)"><svg xmlns="http://www.w3.org/2000/svg" width="382" height="382" style="shape-rendering:geometricPrecision"><path fill="#1a0145" stroke="#1a0145" d="M68.12 246.537 52.666 258.47l-41.682-39.691L0 199.644v-27.615l23.492 8.787 42.41 47.851z"/><path fill="#bacb75" stroke="#bacb75" d="m236.72 204.334 29.627-39.438 36.835 20.024-7.573 33.557-54.865-7.464zM301.8 284.407l16.098 2.166 3.635 41.788-3.871 9.52-8.94 6.938-19.877-20.157z"/><path fill="#bacb75" stroke="#bacb75" d="m295.834 229.2-.225-10.723 7.573-33.557 25.39-3.82 11.117 20.806-2.76 37.99z"/><path fill="#1a0145" stroke="#1a0145" d="m236.217 69-16.647-7.348 3.436-32.969 63.454-12.132-24.679 47.912zM197.94 145.496l-20.499-39.361 11.671-17.697 3.471 3.885 21.177 51.709-3.49 1.444zM0 127.32V29.967l34.612-12.712.799 1.94 5.664 87.364z"/><path fill="#bacb75" stroke="#bacb75" d="m10.985 218.779 41.682 39.69-.87 3.148-20.405 3.93-18.71-7.28zM126.617 315.99l46.352 22.352L161.904 382H99.87l-1.377-35.643.144-.858 21.656-25.065zM210.975 176.225l18.25 28.441-24.422 9.885-41.002-6.841.577-28.405zM341.554 251.565l40.446-.352v25.492l-12.524 2.355-31.015-1.288zM382 215.85l-1.64-1.234-17.547-61.199L382 145.635z"/><path fill="#1a0145" stroke="#1a0145" d="m204.803 214.551 6.32 57.404-3.338-.071-57.927-49.726 13.943-14.448zM112 142.166l-18.202 45.416-70.306-6.766L0 172.03v-44.71l41.075-20.76 13.247-1.937 34.427 16.069z"/><path fill="#bacb75" stroke="#bacb75" d="M382 382h-36.998l2.214-6.636 15.823-23.334L382 344.927z"/><path fill="#1a0145" stroke="#1a0145" d="M301.102 0 286.46 16.551l-63.454 12.132L215.364 0zM382 224.865l-40.538 23.098-4.532-8.066 2.76-37.99 40.67 12.71 1.64 1.233zM142.01 21.303l-33.602 48.153-26.286-3.066 2.752-15.861L117.484 0h22.513l.694 2.067zM149.858 222.158l57.927 49.726-76.105 24.975-4.89-44.944 7.415-19.838z"/><path fill="#1a0145" stroke="#1a0145" d="m117.484 0-32.61 50.529-49.463-31.333-.799-1.94L40.426 0z"/><path fill="#bacb75" stroke="#bacb75" d="m351.882 343.028 11.157 9.002-15.823 23.334-16.67-30.486z"/><path fill="#1a0145" stroke="#1a0145" d="m356.488 314.058 23.175 9.858 2.337 1.699v19.312l-18.96 7.103-11.158-9.002-5.491-15.444z"/><path fill="#bacb75" stroke="#bacb75" d="M131.917 80.295 88.749 120.69l-34.427-16.069 27.8-38.232 26.286 3.066z"/><path fill="#1a0145" stroke="#1a0145" d="m131.917 80.295-23.509-10.84 33.602-48.152 6.959 40.943-14.877 17.695zM197.94 145.496l-35.142 23.045-7.1-7.105 12.557-44.678 6.84-9.5 2.346-1.123zM168.255 116.758l-12.557 44.678-40.598-19.29 6.243-6.868 12.317-10.079zM214.202 63.361 140.691 2.067 139.997 0h75.367l7.642 28.683-3.436 32.969zM260.87 144.726l17.254-16.301 63.093 16.995 8.163 10.55-20.808 25.13-25.39 3.82-36.835-20.024zM382 0v39.257l-19.776 36.884-42.523-9.352L332.125 0z"/><path fill="#bacb75" stroke="#bacb75" d="M278.124 128.425 298.8 93.039l10.149-2.755 15.502 10.19 16.766 44.946z"/><path fill="#1a0145" stroke="#1a0145" d="m0 337.234 20.535 18.023-.742 4.475L0 376.333z"/><path fill="#bacb75" stroke="#bacb75" d="m54.322 104.622-13.247 1.938-5.664-87.364L84.874 50.53 82.122 66.39z"/><path fill="#1a0145" stroke="#1a0145" d="m210.975 176.225-46.597 3.08-1.58-10.764 35.142-23.045 12.33-.02zM210.975 176.225l-.704-30.749 3.489-1.444 28.113-7.816 3.507-.091 15.49 8.601 5.477 20.17-29.628 39.438-7.493.332z"/><path fill="#bacb75" stroke="#bacb75" d="m263.064 339.5 34.073 20.485-35.108 14.03-16.055-27.988z"/><path fill="#1a0145" stroke="#1a0145" d="m0 276.008 12.681-17.741 18.71 7.28L0 294.48z"/><path fill="#bacb75" stroke="#bacb75" d="m321.533 328.36 24.858-.776 5.49 15.444-21.336 1.85-12.883-6.996z"/><path fill="#1a0145" stroke="#1a0145" d="M245.38 136.125 236.217 69l25.564-4.538L298.8 93.039l-20.676 35.386-17.254 16.301z"/><path fill="#bacb75" stroke="#bacb75" d="m298.8 93.039-37.019-28.576 24.68-47.912L301.101 0h31.023l-12.424 66.789-10.752 23.495zM211.122 271.955l13.908 7.901-.188 22.272-10.577 38.03-7.674 5.572-33.622-7.388-46.352-22.352 5.063-19.131 76.105-24.975zM44.96 285.824l60.874 23.845 14.46 10.765L98.638 345.5 42.67 323.446l-11.336-11.908z"/><path fill="#bacb75" stroke="#bacb75" d="m98.638 345.499-.144.858-60.904 23.11-17.797-9.735.742-4.475 22.135-31.811z"/><path fill="#1a0145" stroke="#1a0145" d="m131.68 296.859-5.063 19.131-6.323 4.444-14.46-10.765-53.791-46.415-.246-1.637.87-3.147 15.452-11.933 58.67 5.378zM161.904 382l11.065-43.658 33.622 7.388 2.42 36.27zM133.66 125.2l-12.317 10.078 15.664-48.43 11.594 14.912z"/><path fill="#bacb75" stroke="#bacb75" d="m0 199.644 10.985 19.135 1.696 39.488L0 276.008zM35.237 382l2.353-12.533 60.904-23.11L99.87 382zM382 325.615l-2.337-1.699-10.187-44.856L382 276.705z"/><path fill="#1a0145" stroke="#1a0145" d="m175.095 107.258-26.494-5.498-11.594-14.912-2.915-6.907 14.877-17.695 41.11 21.332-.967 4.86-11.671 17.697z"/><path fill="#bacb75" stroke="#bacb75" d="m164.378 179.305-.577 28.405-13.943 14.448-15.653 9.92-36.412-36.522-3.995-7.974L112 142.166l3.1-.02 40.598 19.29 7.1 7.105zM263.064 339.5l6.74-10.274 19.04-4.564 19.879 20.157-7.138 15.945-4.448-.779z"/><path fill="#1a0145" stroke="#1a0145" d="m97.793 195.556 36.412 36.521-7.415 19.838-58.67-5.378-2.217-17.87z"/><path fill="#bacb75" stroke="#bacb75" d="m338.46 277.772 31.016 1.288 10.187 44.856-23.175-9.858-18.798-35.464zM52.043 263.254l-7.082 22.57-13.627 25.714L0 304.494V294.48l31.392-28.933 20.405-3.93z"/><path fill="#1a0145" stroke="#1a0145" d="m245.974 346.027 16.055 27.988-.347 7.985h-52.671l-2.42-36.27 7.674-5.573zM317.662 337.882l12.883 6.996 16.67 30.486-2.213 6.636h-35.12l-8.297-21.236 7.138-15.945z"/><path fill="#bacb75" stroke="#bacb75" d="m261.682 382 .347-7.985 35.108-14.03 4.448.78L309.881 382zM0 382v-5.667l19.793-16.601 17.797 9.735L35.237 382z"/><path fill="#1a0145" stroke="#1a0145" d="m52.043 263.254 53.791 46.415-60.873-23.845z"/><path fill="#bacb75" stroke="#bacb75" d="m97.793 195.556-31.89 33.111-42.411-47.85 70.306 6.765z"/><path fill="#1a0145" stroke="#1a0145" d="m317.898 286.573 19.792-7.979 18.798 35.464-10.097 13.526-24.858.777z"/><path fill="#bacb75" stroke="#bacb75" d="m382 113.51-21.46-19.18 1.684-18.189L382 39.257z"/><path fill="#1a0145" stroke="#1a0145" d="M341.462 247.963 382 224.865v26.348l-40.446.352zM349.38 155.97l13.433-2.553 17.547 61.2-40.67-12.71-11.118-20.806z"/><path fill="#bacb75" stroke="#bacb75" d="m273.055 261.817 16.841 16.9-22.663 32.552-42.391-9.141.188-22.272 34.6-20.166zM289.896 278.718l11.903 5.69-12.954 40.254-19.04 4.564-2.572-17.957z"/><path fill="#1a0145" stroke="#1a0145" d="m308.949 90.284 10.752-23.495 42.523 9.352-1.684 18.19-36.089 6.144z"/><path fill="#bacb75" stroke="#bacb75" d="m241.873 136.216-49.29-43.893-3.47-3.885.966-4.86 24.123-20.217 5.368-1.71 16.647 7.35 9.163 67.124z"/><path fill="#1a0145" stroke="#1a0145" d="m341.217 145.42-16.766-44.945 36.089-6.144L382 113.51v32.125l-19.187 7.782-13.433 2.552z"/><path fill="#bacb75" stroke="#bacb75" d="m115.1 142.146-3.1.02-23.251-21.475 43.168-40.396 2.175-.354 2.915 6.907-15.664 48.43z"/><path fill="#1a0145" stroke="#1a0145" d="m204.803 214.551 24.423-9.885 7.493-.332 4.025 6.68 18.887 48.676-34.6 20.166-13.909-7.9z"/><path fill="#bacb75" stroke="#bacb75" d="m0 304.494 31.334 7.044 11.336 11.908-22.135 31.811L0 337.234z"/><path fill="#1a0145" stroke="#1a0145" d="m40.426 0-5.814 17.256L0 29.968V0zM213.76 144.032l-21.177-51.709 49.29 43.893zM224.842 302.128l42.39 9.14 2.573 17.958-6.741 10.275-17.09 6.526-31.71-5.87z"/><path fill="#bacb75" stroke="#bacb75" d="m295.834 229.2 41.096 10.697 4.532 8.066.092 3.602-3.093 26.207-.77.822-19.793 7.979-16.099-2.166-11.903-5.69-16.841-16.9z"/><path fill="#bacb75" stroke="#bacb75" d="m240.744 211.013 54.865 7.464.225 10.724-22.78 32.616-13.423-2.127z"/><path fill="#1a0145" stroke="#1a0145" d="M168.255 116.758 133.66 125.2l14.94-23.44 26.495 5.5z"/><path fill="#bacb75" stroke="#bacb75" d="m190.079 83.578-41.11-21.332-6.959-40.943-1.32-19.236 73.512 61.294z"/></svg></g></svg>