<svg xmlns="http://www.w3.org/2000/svg" viewBox="0 0 382 382"><g fill="none" stroke-width="2"><path stroke="#17a555" d="M302.03 175.8q-1.31.45-1.44.94-.18.63-.8.41-.43-.15-.85-.06a.5.49 88.8 0 1-.59-.57q.85-5.02-3.31-8.7" vector-effect="non-scaling-stroke"/><path stroke="#2dbb6c" d="M295.04 167.82q-.25-1.16-1.62-.6" vector-effect="non-scaling-stroke"/><path stroke="#17a555" d="M293.42 167.22q-3.12-.66-4.65-3.7-.27-.54.19-.91.77-.62 1.16-1.52.07-.16.24-.16.15 0 .27.08.32.25.69.08.57-.27.72-.85.12-.46-.06-.95-.55-1.45-.99-3.1-.09-.33.11-.6.12-.17.29-.3.12-.08.2.04.04.06.04.13 0 .52.23.05c1.53-3.07-1.26-6.7-3.65-8.28q-.42-.28-.92-.25c-4.69.25-8.15-5.37-8.67-9.25" vector-effect="non-scaling-stroke"/><path stroke="#2dbb6c" d="M278.62 137.73q.73-.88-.17-1.65" vector-effect="non-scaling-stroke"/><path stroke="#17a555" d="M278.45 136.08q-.67-.28-1.03.01-.08.06-.06.16.01.04.01.08.02.11-.02.01-.02-.05-.06-.08-.07-.07-.03-.16.66-1.4 1.58-2.79.21-.31.15-.67-.05-.31-.3-.51a.65.65 0 0 0-.85.03q-.43.41-.96.64-.24.1-.45-.05-.11-.08-.17-.21-.2-.4.16-.66l1.24-.9a.35.34-39.7 0 0 .05-.51l-.22-.24a.5.49-32.2 0 0-.55-.12q-2.73 1.17-5.33.55-.54-.13-.79-.63c-.98-2.02-2.12-3.93-2.34-6.21q-.23-2.47-.53-4.99-.04-.31-.23-.07-.11.12-.32.08-.3-.07-.33-.37l-.04-.44q-.04-.44-.48-.36l-6.56 1.28a.52.52 0 0 1-.62-.49l-.13-3.34q-.02-.65-.67-.63l-1.74.05" vector-effect="non-scaling-stroke"/><path stroke="#2dbb6c" d="M256.83 114.54q-.17-.54-1.06-.05" vector-effect="non-scaling-stroke"/><path stroke="#17a555" d="M255.77 114.49q-3.05-.51-5.85.95c-6.88 3.58-7.08-5.35-9.18-8.97a.42.42 0 0 0-.66-.08q-2 2.13-4.6 3.57-.46.25-.5.78c-.22 2.96.15 5.2-1.4 7.75q-1.27 2.09-4.02 3.56-2.86 1.51-5.15 3.67c-1.17 1.11-3.03 1.73-4.6 1.17q-4.51-1.64-9.07-2.78a1.32 1.32 0 0 0-1.63 1.2q-.29 4.74-1.92 9.74-.61 1.89.33 3.52c1.51 2.6 2.61 5.88 4.51 8.13 1.99 2.36 5.47 4.58 2.78 8.14-2.65 3.53-5.46 6.6-4.2 11.43.89 3.42 3.51 10.57-2.12 11.21q-.45.05-.49.5-.29 3.54-2.32 5.9c-2.67 3.11-3.42 7.98-2.59 11.83q.08.36.3.67.88 1.19.42 2.86a.85.84-69.9 0 0 .45.98l.23.12q.39.18.56-.21 1.3-2.99 4.83-2.55c5.45.68 9.69.12 13.37-4.42a.89.89 0 0 1 1.13-.2l.34.19a.9.86-78.5 0 1 .42.66l.9 8.7a.81.79-88.1 0 0 .64.7l6.04 1.18a.89.89 0 0 1 .59 1.34q-1.99 3.26-1.68 7.29a1.21 1.21 0 0 0 .81 1.05q1.51.5 2.71 1.55.54.47 1-.07c3.28-3.89 6.14-3.29 10.3-1.59 2.84 1.16 4.21 5.11 5.31 7.77q.24.58.81.31.21-.11.42 0c.63.33 1.38.2 1.91-.24q.37-.32-.03-.6-.47-.33-.14-.81 2.5-3.55 5.11-5.14 1.96-1.19 4.32-.79.5.08.84-.29 2.54-2.77 6.3-1.77.55.14.23.61-.09.14-.26.13-.86-.07-.41.67.78 1.28 1.47 2.55.23.43.12.9-.03.1-.08.18-.4.64.37.61 2.84-.1 5.65-.22 2.23-.09 3.96 1.24a.72.71 27.1 0 1 .25.77q-1.03 3.5.67 6.75c.82 1.55 1.2 3.16 1.6 4.85.62 2.63 2.72 4.19 2.74 7.09a1.2 1.19 20.4 0 0 .42.91q1.02.88 3.22.77" vector-effect="non-scaling-stroke"/><path stroke="#32c071" d="M255.77 114.49q-.26.28-.34.5-.15.42.29.41.74-.01 1.11-.86M278.45 136.08q-1.02.6.17 1.65M293.42 167.22q.26 1.38 1.62.6" vector-effect="non-scaling-stroke"/><path stroke="#2e7b6b" d="M244.05 80.05a.53.52-51.7 0 0 .11.95q.68.22.96-.4a.52.52 0 0 0-.54-.73q-.29.03-.53.18" vector-effect="non-scaling-stroke"/><path stroke="#2dbb6c" d="M202.31 80.84q-.67.88-.22 1.71.33.62.75.05.57-.77.23-1.65a.44.44 0 0 0-.76-.11M236.47 82.33q-.04.9 1.13.83a.73.72-86.9 0 0 .66-.6q.14-.79-1.14-.83a.63.63 0 0 0-.65.6M252.48 95.1a.24.24 0 0 0-.38.22q.08.88 1.06 1.3.66.27.34-.37-.34-.68-1.02-1.15M270.77 99.56a.74.38-1.6 0 0-.75-.36.74.38-1.6 0 0-.73.4.74.38-1.6 0 0 .75.36.74.38-1.6 0 0 .73-.4M264.354 103.207a.53.36 107.1 0 0 .5-.401.53.36 107.1 0 0-.188-.613.53.36 107.1 0 0-.5.401.53.36 107.1 0 0 .188.613M255.07 106.06q.21.02.36-.12.44-.39.02-.81-.3-.3-.69-.39-.53-.13-.82.34-.85 1.37-.79 3.03.02.44.45.39l.28-.03q.06 0 .06-.07-.13-1.17.37-1.97.26-.42.76-.37" vector-effect="non-scaling-stroke"/><path stroke="#2e7b6b" d="M268.28 105.64a.79.79 0 0 0-.79-.79.79.79 0 0 0-.79.79.79.79 0 0 0 .79.79.79.79 0 0 0 .79-.79" vector-effect="non-scaling-stroke"/><path stroke="#2dbb6c" d="M248.85 107.45q1.98.89 2.66-.99.23-.63-.43-.5-1.26.27-2.28 1.01-.38.28.05.48M260.87 109.134a1.01.5 30.6 0 0-.615-.944 1.01.5 30.6 0 0-1.124-.084 1.01.5 30.6 0 0 .615.944 1.01.5 30.6 0 0 1.123.084" vector-effect="non-scaling-stroke"/><path stroke="#20ae5e" d="M262.22 109.51q.04.21.26.24a.24.24 0 0 0 .27-.27q-.03-.21-.23-.25a.25.24-87.7 0 0-.3.28" vector-effect="non-scaling-stroke"/><path stroke="#2dbb6c" d="M250.774 110.754a.99.65 24.1 0 0-.639-.997.99.65 24.1 0 0-1.169.189.99.65 24.1 0 0 .639.997.99.65 24.1 0 0 1.169-.189M252.3 110.34a.54.54 0 0 0 .09.89q.72.39 1.54-.39a.5.5 0 0 0-.08-.79q-.7-.41-1.55.29" vector-effect="non-scaling-stroke"/><path stroke="#20ae5e" d="M188.89 112.16q.1.6.67.83.6.23.58-.41-.03-.72-.76-.89a.41.4-88.6 0 0-.49.47M274.23 114.66q-.34.38-.07.8.47.75.64-.12.07-.4-.22-.69a.24.24 0 0 0-.35.01" vector-effect="non-scaling-stroke"/><path stroke="#2dbb6c" d="M272.43 119.83q-.4.54-.35 1.12.08.75.6.21.56-.57.34-1.24a.34.33-36.1 0 0-.59-.09M278.64 124.89q-.43.34-.46.84-.03.56.44.24.83-.57 1.12-1.51.23-.76-.46-.38-.49.28-.64.81M275.564 126.441a.81.68 77.6 0 0 .49-.937.81.68 77.6 0 0-.838-.645.81.68 77.6 0 0-.49.937.81.68 77.6 0 0 .838.645" vector-effect="non-scaling-stroke"/><path stroke="#17a555" d="M86.517 133.104a1.88.34 68.9 0 0-.36-1.876 1.88.34 68.9 0 0-.994-1.632 1.88.34 68.9 0 0 .36 1.876 1.88.34 68.9 0 0 .994 1.632" vector-effect="non-scaling-stroke"/><path stroke="#20ae5e" d="M291.94 130.49a.5.5 0 0 0-.5-.5.5.5 0 0 0-.5.5.5.5 0 0 0 .5.5.5.5 0 0 0 .5-.5M185.36 139.18q-.11-1.24-.6-2.35-.02-.04-.06-.03-.16.05-.32.09-.39.11-.29.5l.92 3.34a.51.5-84.6 0 0 .25.31q.44.22.76-.07a.38.38 0 0 0 .05-.52l-.44-.58q-.24-.31-.27-.69M188.7 139.19l1.36 5.35a.15.15 0 0 0 .19.11l.05-.02a2.73 1.28 75.7 0 0 .56-2.96l-.09-.35a2.73 1.28 75.7 0 0-1.91-2.33l-.05.02a.15.15 0 0 0-.11.18" vector-effect="non-scaling-stroke"/><path stroke="#2dbb6c" d="M144.71 144.57q-.24-.43-.36.05-.37 1.43.98 2.1.8.39.36-.39l-.98-1.76" vector-effect="non-scaling-stroke"/><path stroke="#20ae5e" d="M109.17 147.38q.06-.59-.35-1.06a.38.38 0 0 0-.66.24q-.02.75.62 1.04.35.16.39-.22" vector-effect="non-scaling-stroke"/><path stroke="#2dbb6c" d="M110.43 149.76q.57 1.24 1.79 1.01.79-.15.07-.5l-1.57-.79a.21.21 0 0 0-.29.28" vector-effect="non-scaling-stroke"/><path stroke="#2e7b6b" d="M143.909 153.114a.71.58 56.8 0 0 .096-.912.71.58 56.8 0 0-.874-.276.71.58 56.8 0 0-.096.912.71.58 56.8 0 0 .874.276M183.11 153.234a.63.52-29.1 0 0-.803-.148.63.52-29.1 0 0-.297.76.63.52-29.1 0 0 .803.148.63.52-29.1 0 0 .298-.76" vector-effect="non-scaling-stroke"/><path stroke="#20ae5e" d="M121.74 156.1q.09.15.25.21.29.12.43-.16l.64-1.34q.39-.79-.42-.44-.69.31-1.27.86-.29.27-.05.58.1.13.25.17.11.03.17.12M162.599 156.933a.2.11 104.9 0 0 .157-.165.2.11 104.9 0 0-.055-.221.2.11 104.9 0 0-.157.165.2.11 104.9 0 0 .055.221" vector-effect="non-scaling-stroke"/><path stroke="#2dbb6c" d="M122.578 159.85a1.37.46 83.4 0 0 .299-1.413 1.37.46 83.4 0 0-.614-1.308 1.37.46 83.4 0 0-.3 1.414 1.37.46 83.4 0 0 .615 1.308M138.955 161.82a1.1.35 43 0 0-.566-1.006 1.1.35 43 0 0-1.044-.494 1.1.35 43 0 0 .566 1.006 1.1.35 43 0 0 1.043.494M143.474 163.332a.95.55 54.3 0 0-.107-1.093.95.55 54.3 0 0-1.001-.45.95.55 54.3 0 0 .107 1.092.95.55 54.3 0 0 1.001.45M104.908 165.975a.58.45 56.7 0 0 .058-.732.58.45 56.7 0 0-.694-.238.58.45 56.7 0 0-.058.732.58.45 56.7 0 0 .694.238" vector-effect="non-scaling-stroke"/><path stroke="#2e7b6b" d="M92.12 167.17a.47.47 0 0 0 .03.76q.56.38 1-.08a.48.47 36.2 0 0-.12-.74q-.5-.27-.91.06" vector-effect="non-scaling-stroke"/><path stroke="#2dbb6c" d="M147.41 167.18q-.78.44-1.08 1.19-.26.64.36.33.75-.39 1.14-1.12a.3.3 0 0 0-.42-.4M155.492 171.083a.64.47 98.8 0 0 .563-.561.64.47 98.8 0 0-.367-.704.64.47 98.8 0 0-.562.56.64.47 98.8 0 0 .366.705" vector-effect="non-scaling-stroke"/><path stroke="#2e7b6b" d="M238.9 230.52q.17.64.83.6a.44.44 0 0 0 .41-.38q.1-.75-.65-.88a.53.52 87.3 0 0-.59.66" vector-effect="non-scaling-stroke"/><path stroke="#20ae5e" d="M270.79 232.59q.29.74 1.16.71a.45.44-22.7 0 0 .31-.75q-.43-.45-1.01-.53-.72-.11-.46.57M240.43 234.76a.98.5 27.3 0 0-.64-.894.98.5 27.3 0 0-1.1-.006.98.5 27.3 0 0 .64.894.98.5 27.3 0 0 1.1.006" vector-effect="non-scaling-stroke"/><path stroke="#2dbb6c" d="m237.02 236.53 1.06 1.85q.59 1.03.72-.15.16-1.56-1.35-2.19a.34.34 0 0 0-.43.49M200.95 284.67c.15-.36.4-.66.58-1q.4-.77-.42-.48-.62.21-1.12.61-.65.52-.05 1.11.21.21.47.18.39-.05.54-.42M208.81 294.47a.32.32 0 0 0-.32-.32.32.32 0 0 0-.32.32.32.32 0 0 0 .32.32.32.32 0 0 0 .32-.32" vector-effect="non-scaling-stroke"/><path stroke="#32c071" d="M240.51 110.43a.84.84 0 0 0-.84-.84.84.84 0 0 0-.84.84.84.84 0 0 0 .84.84.84.84 0 0 0 .84-.84" vector-effect="non-scaling-stroke"/><path stroke="#25b363" d="M254.01 118.69q-.03-.24-.13-.45a.21.2 56.4 0 0-.32-.07q-.13.11-.2.24-.22.37.08.69.7.71 1.43 1.29 1.64 1.29.44-.42-.3-.42-.81-.63a.79.77-82.7 0 1-.49-.65" vector-effect="non-scaling-stroke"/><path stroke="#32c071" d="m238.39 131.65.89 1.17q.44.58.52-.15.04-.37-.13-.68-.33-.65-1.04-.74-.61-.09-.24.4M235.1 133.42q-.04.4.29.62a.57.57 0 0 0 .89-.58q-.11-.55-.44-1.09a.41.41 0 0 0-.72.04q-.15.32-.06.66.05.17.04.35" vector-effect="non-scaling-stroke"/><path stroke="#338070" d="M244.94 133.3q-.29.59.31.81.31.11.58 0a.57.57 0 0 0 .28-.84q-.13-.22-.36-.3a.66.65-66.9 0 0-.81.33" vector-effect="non-scaling-stroke"/><path stroke="#32c071" d="M269.52 135.06q-.73.82-1.85 1.28-.31.12-.17.44l.11.25a.31.3 67 0 0 .38.16q1.41-.53 1.87-1.93a.2.2 0 0 0-.34-.2M235.66 180.86q.34 1.21.72 1.6.35.35.6-.02.19-.27.04-.86" vector-effect="non-scaling-stroke"/><path stroke="#25b363" d="M237.02 181.58q4.59-.14 7.51 2.74a2.97 2.95 22.2 0 1 .88 2.08c.02 2.14-.21 3.92 2.14 4.94q.45.2.73-.2.35-.51.71-1.02.26-.36.67-.55c6.74-3.1 8.98-7.92 13.22-13.16 3.08-3.79 3.86-9.16 4.43-13.63q.3-2.27-.81-4.55-2.4-4.94-5.22-9.7-5.15-8.69-13.76-4.54" vector-effect="non-scaling-stroke"/><path stroke="#32c071" d="M247.52 143.99q-1.12-2.34-2.67-2.25" vector-effect="non-scaling-stroke"/><path stroke="#25b363" d="M244.85 141.74q-1.22.91-2.82.83a.23.23 0 0 1-.13-.41q.14-.11.32-.17.93-.32-.02-.61-1.36-.41-2.32-1.51a.5.5 0 0 0-.87.26q-.45 3.65.44 6.99c.67 2.53-1.87 5.53-3.24 7.44-1.01 1.42-2.56 1.99-4.04 2.79q-.47.26-.48.8-.1 3.28.88 4.9 2.15 3.57 2.57 6.99.09.72-.45 5.36-.4 3.46.97 5.46" vector-effect="non-scaling-stroke"/><path stroke="#3bc97a" d="M244.85 141.74q1.05 2.62 3.91 3.2.13.03.2-.09l.18-.29q.18-.31-.17-.31-.82-.02-1.45-.26M237.02 181.58q-.98-1.18-.96-2.57 0-.57-.41-.71-.56-.19-.52.4.08 1.09.53 2.16" vector-effect="non-scaling-stroke"/><path stroke="#32c071" d="M233 143q.39-.61-.23-.98-.53-.3-.93.13a.69.68 56.4 0 0-.14.71q.41 1.06.16 2.05-.06.27.21.31l.26.03q.38.06.53-.29.29-.64.06-1.3a.76.76 0 0 1 .08-.66M285.25 147.23q-.53.64-.27 1.45.17.56.55.11.55-.67.25-1.47a.31.31 0 0 0-.53-.09M265.499 149.13a.8.51 90.8 0 0 .521-.793.8.51 90.8 0 0-.499-.807.8.51 90.8 0 0-.521.793.8.51 90.8 0 0 .499.807" vector-effect="non-scaling-stroke"/><path stroke="#338070" d="M285.78 152.1a.52.52 0 0 0 .28-.84q-.51-.6-1.02-.14a.52.52 0 0 0 .02.79q.35.27.72.19" vector-effect="non-scaling-stroke"/><path stroke="#32c071" d="m226.23 193.06-.24 1.41q-.1.57.48.67.31.05.62-.05.87-.27.37-1.03l-.73-1.11q-.38-.58-.5.11M279.38 197.246a.7.51 112.7 0 0 .74-.45.7.51 112.7 0 0-.2-.842.7.51 112.7 0 0-.74.45.7.51 112.7 0 0 .2.842M265.77 204.737a.98.53 125.6 0 0 1-.488.98.53 125.6 0 0 .14-1.106.98.53 125.6 0 0-1 .488.98.53 125.6 0 0-.14 1.106" vector-effect="non-scaling-stroke"/><path stroke="#338070" d="M290.05 215.19a.37.37 0 0 0-.02.59q.5.44.97.02a.4.4 0 0 0-.05-.63q-.47-.3-.9.02" vector-effect="non-scaling-stroke"/><path stroke="#32c071" d="M288.225 220.782a.66.49 31.2 0 0-.311-.761.66.49 31.2 0 0-.818.077.66.49 31.2 0 0 .31.761.66.49 31.2 0 0 .818-.077" vector-effect="non-scaling-stroke"/><path stroke="#3bc97a" d="M233.46 158.11q.25-.25.4-.58.27-.61-.33-.33-.81.37-1.4.98-.27.29-.18.68.03.17.15.3.46.53.78-.09l.28-.54q.12-.24.3-.42" vector-effect="non-scaling-stroke"/><path stroke="#3c8979" d="M254.1 162.21q-.33.34-.05.67a.55.55 0 0 0 .92-.11q.17-.36-.08-.59a.56.56 0 0 0-.79.03" vector-effect="non-scaling-stroke"/></g><path fill="#12a050" d="M302.03 175.8q-1.31.45-1.44.94-.18.63-.8.41-.43-.15-.85-.06a.5.49 88.8 0 1-.59-.57q.85-5.02-3.31-8.7-.25-1.16-1.62-.6-3.12-.66-4.65-3.7-.27-.54.19-.91.77-.62 1.16-1.52.07-.16.24-.16.15 0 .27.08.32.25.69.08.57-.27.72-.85.12-.46-.06-.95-.55-1.45-.99-3.1-.09-.33.11-.6.12-.17.29-.3.12-.08.2.04.04.06.04.13 0 .52.23.05c1.53-3.07-1.26-6.7-3.65-8.28q-.42-.28-.92-.25c-4.69.25-8.15-5.37-8.67-9.25q.73-.88-.17-1.65-.67-.28-1.03.01-.08.06-.06.16.01.04.01.08.02.11-.02.01-.02-.05-.06-.08-.07-.07-.03-.16.66-1.4 1.58-2.79.21-.31.15-.67-.05-.31-.3-.51a.65.65 0 0 0-.85.03q-.43.41-.96.64-.24.1-.45-.05-.11-.08-.17-.21-.2-.4.16-.66l1.24-.9a.35.34-39.7 0 0 .05-.51l-.22-.24a.5.49-32.2 0 0-.55-.12q-2.73 1.17-5.33.55-.54-.13-.79-.63c-.98-2.02-2.12-3.93-2.34-6.21q-.23-2.47-.53-4.99-.04-.31-.23-.07-.11.12-.32.08-.3-.07-.33-.37l-.04-.44q-.04-.44-.48-.36l-6.56 1.28a.52.52 0 0 1-.62-.49l-.13-3.34q-.02-.65-.67-.63l-1.74.05q-.17-.54-1.06-.05-3.05-.51-5.85.95c-6.88 3.58-7.08-5.35-9.18-8.97a.42.42 0 0 0-.66-.08q-2 2.13-4.6 3.57-.46.25-.5.78c-.22 2.96.15 5.2-1.4 7.75q-1.27 2.09-4.02 3.56-2.86 1.51-5.15 3.67c-1.17 1.11-3.03 1.73-4.6 1.17q-4.51-1.64-9.07-2.78a1.32 1.32 0 0 0-1.63 1.2q-.29 4.74-1.92 9.74-.61 1.89.33 3.52c1.51 2.6 2.61 5.88 4.51 8.13 1.99 2.36 5.47 4.58 2.78 8.14-2.65 3.53-5.46 6.6-4.2 11.43.89 3.42 3.51 10.57-2.12 11.21q-.45.05-.49.5-.29 3.54-2.32 5.9c-2.67 3.11-3.42 7.98-2.59 11.83q.08.36.3.67.88 1.19.42 2.86a.85.84-69.9 0 0 .45.98l.23.12q.39.18.56-.21 1.3-2.99 4.83-2.55c5.45.68 9.69.12 13.37-4.42a.89.89 0 0 1 1.13-.2l.34.19a.9.86-78.5 0 1 .42.66l.9 8.7a.81.79-88.1 0 0 .64.7l6.04 1.18a.89.89 0 0 1 .59 1.34q-1.99 3.26-1.68 7.29a1.21 1.21 0 0 0 .81 1.05q1.51.5 2.71 1.55.54.47 1-.07c3.28-3.89 6.14-3.29 10.3-1.59 2.84 1.16 4.21 5.11 5.31 7.77q.24.58.81.31.21-.11.42 0c.63.33 1.38.2 1.91-.24q.37-.32-.03-.6-.47-.33-.14-.81 2.5-3.55 5.11-5.14 1.96-1.19 4.32-.79.5.08.84-.29 2.54-2.77 6.3-1.77.55.14.23.61-.09.14-.26.13-.86-.07-.41.67.78 1.28 1.47 2.55.23.43.12.9-.03.1-.08.18-.4.64.37.61 2.84-.1 5.65-.22 2.23-.09 3.96 1.24a.72.71 27.1 0 1 .25.77q-1.03 3.5.67 6.75c.82 1.55 1.2 3.16 1.6 4.85.62 2.63 2.72 4.19 2.74 7.09a1.2 1.19 20.4 0 0 .42.91q1.02.88 3.22.77-1.53 7.53-2.17 15.16c-.2 2.39-.23 4.87.29 7.23.82 3.69 1.6 7.39-2.37 9.59q-12.79 7.11-27.3 17.08c-15.04 10.33-31.59 18.95-49.47 23.69q-1.17.31-3.36 1.65-.45.28-.97.28l-11.9-.01a.98.97-15 0 1-.84-.48c-1.21-2.13-3.11-4.43-3.14-6.96q-.04-2.1.46-3.65 5.59-17.53 7.47-35.34c.76-7.17 8.39-10.46 7.67-18.29q-.95-10.42-1.85-20.69c-.7-7.99-3.9-15.29-12.07-17.28q-4.05-.99-8.84-1.58c-6.82-.83-13.14-.6-19.62-.69-3-.05-6.11-1.58-8.51-3.53q-13.14-10.69-17.91-14.2-14.31-10.53-31.03-12.14-6.21-.59-9.5-1.77-14.65-5.27-15.66-21.9c-.15-2.42.61-4.75-.01-7.12q-.74-2.78-1.79-5.1c-1.51-3.36-1.01-7.1-1.04-10.68q-.01-1.73 1.03-3.27 3.84-5.73 6.9-11.69c2.96-5.77 6.96-9.42 13.23-10.93q13.17-3.18 26.27-6.63c13.27-3.49 22.63-9.53 24.8-24.02a1.6 1.57 72.6 0 1 .46-.9c5.16-4.88 10.41-1.87 15.29 1.21 4.38 2.75 5.88-.6 7.68-3.7q3.1-5.32 9.27-3.17c2.81.99 5.61 1.6 8.43.29q6.39-2.99 14.58-1.96 2.29.29 4.51-.95 3.18-1.79 5.46.57.37.38.87.53l13.63 4.17a4.69 4.64 47.1 0 0 2.4.1q4.08-.91 8.55-1.17 4.18-.24 7.07 2.18c4.43 3.72 8.12 7.22 14.08 8.33q8.39 1.55 17.17 2.95c2.54.41 4.7 2.18 4.53 4.95q-.26 4.47 1.15 8.94c2.36 7.55 10.97 6.44 16.1 10.93q.38.34.46.85 1.44 9.74 1.11 11.91-.86 5.62-1.82 12-.13.86 1.08 2.68c1.02 1.54 2.09 2.96 2.09 4.88q0 9.5-.01 18.68c0 4.82-1.11 9.75-2.13 14.56m-57.98-95.75a.53.52-51.7 0 0 .11.95q.68.22.96-.4a.52.52 0 0 0-.54-.73q-.29.03-.53.18m-41.74.79q-.67.88-.22 1.71.33.62.75.05.57-.77.23-1.65a.44.44 0 0 0-.76-.11m34.16 1.49q-.04.9 1.13.83a.73.72-86.9 0 0 .66-.6q.14-.79-1.14-.83a.63.63 0 0 0-.65.6m16.01 12.77a.24.24 0 0 0-.38.22q.08.88 1.06 1.3.66.27.34-.37-.34-.68-1.02-1.15m18.29 4.46a.74.38-1.6 0 0-.75-.36.74.38-1.6 0 0-.73.4.74.38-1.6 0 0 .75.36.74.38-1.6 0 0 .73-.4m-6.416 3.647a.53.36 107.1 0 0 .5-.401.53.36 107.1 0 0-.188-.613.53.36 107.1 0 0-.5.401.53.36 107.1 0 0 .188.613m-9.284 2.853q.21.02.36-.12.44-.39.02-.81-.3-.3-.69-.39-.53-.13-.82.34-.85 1.37-.79 3.03.02.44.45.39l.28-.03q.06 0 .06-.07-.13-1.17.37-1.97.26-.42.76-.37m13.21-.42a.79.79 0 0 0-.79-.79.79.79 0 0 0-.79.79.79.79 0 0 0 .79.79.79.79 0 0 0 .79-.79m-19.43 1.81q1.98.89 2.66-.99.23-.63-.43-.5-1.26.27-2.28 1.01-.38.28.05.48m12.02 1.684a1.01.5 30.6 0 0-.615-.944 1.01.5 30.6 0 0-1.124-.084 1.01.5 30.6 0 0 .615.944 1.01.5 30.6 0 0 1.123.084m1.35.376q.04.21.26.24a.24.24 0 0 0 .27-.27q-.03-.21-.23-.25a.25.24-87.7 0 0-.3.28m-11.446 1.244a.99.65 24.1 0 0-.639-.997.99.65 24.1 0 0-1.169.189.99.65 24.1 0 0 .639.997.99.65 24.1 0 0 1.169-.189m1.526-.414a.54.54 0 0 0 .09.89q.72.39 1.54-.39a.5.5 0 0 0-.08-.79q-.7-.41-1.55.29m-63.41 1.82q.1.6.67.83.6.23.58-.41-.03-.72-.76-.89a.41.4-88.6 0 0-.49.47m85.34 2.5q-.34.38-.07.8.47.75.64-.12.07-.4-.22-.69a.24.24 0 0 0-.35.01m-1.8 5.17q-.4.54-.35 1.12.08.75.6.21.56-.57.34-1.24a.34.33-36.1 0 0-.59-.09m6.21 5.06q-.43.34-.46.84-.03.56.44.24.83-.57 1.12-1.51.23-.76-.46-.38-.49.28-.64.81m-3.076 1.551a.81.68 77.6 0 0 .49-.937.81.68 77.6 0 0-.838-.645.81.68 77.6 0 0-.49.937.81.68 77.6 0 0 .838.645m-189.047 6.663a1.88.34 68.9 0 0-.36-1.876 1.88.34 68.9 0 0-.994-1.632 1.88.34 68.9 0 0 .36 1.876 1.88.34 68.9 0 0 .994 1.632m205.423-2.614a.5.5 0 0 0-.5-.5.5.5 0 0 0-.5.5.5.5 0 0 0 .5.5.5.5 0 0 0 .5-.5m-106.58 8.69q-.11-1.24-.6-2.35-.02-.04-.06-.03-.16.05-.32.09-.39.11-.29.5l.92 3.34a.51.5-84.6 0 0 .25.31q.44.22.76-.07a.38.38 0 0 0 .05-.52l-.44-.58q-.24-.31-.27-.69m3.34.01 1.36 5.35a.15.15 0 0 0 .19.11l.05-.02a2.73 1.28 75.7 0 0 .56-2.96l-.09-.35a2.73 1.28 75.7 0 0-1.91-2.33l-.05.02a.15.15 0 0 0-.11.18m-43.99 5.38q-.24-.43-.36.05-.37 1.43.98 2.1.8.39.36-.39zm-35.54 2.81q.06-.59-.35-1.06a.38.38 0 0 0-.66.24q-.02.75.62 1.04.35.16.39-.22m1.26 2.38q.57 1.24 1.79 1.01.79-.15.07-.5l-1.57-.79a.21.21 0 0 0-.29.28m33.479 3.354a.71.58 56.8 0 0 .096-.912.71.58 56.8 0 0-.874-.276.71.58 56.8 0 0-.096.912.71.58 56.8 0 0 .874.276m39.202.12a.63.52-29.1 0 0-.804-.148.63.52-29.1 0 0-.297.76.63.52-29.1 0 0 .803.148.63.52-29.1 0 0 .298-.76M121.74 156.1q.09.15.25.21.29.12.43-.16l.64-1.34q.39-.79-.42-.44-.69.31-1.27.86-.29.27-.05.58.1.13.25.17.11.03.17.12m40.859.833a.2.11 104.9 0 0 .157-.165.2.11 104.9 0 0-.055-.221.2.11 104.9 0 0-.157.165.2.11 104.9 0 0 .055.221m-40.021 2.918a1.37.46 83.4 0 0 .299-1.414 1.37.46 83.4 0 0-.614-1.308 1.37.46 83.4 0 0-.3 1.414 1.37.46 83.4 0 0 .615 1.308m16.376 1.97a1.1.35 43 0 0-.565-1.007 1.1.35 43 0 0-1.044-.494 1.1.35 43 0 0 .566 1.006 1.1.35 43 0 0 1.043.494m4.52 1.51a.95.55 54.3 0 0-.107-1.092.95.55 54.3 0 0-1.001-.45.95.55 54.3 0 0 .107 1.092.95.55 54.3 0 0 1.001.45m-38.566 2.644a.58.45 56.7 0 0 .058-.732.58.45 56.7 0 0-.694-.238.58.45 56.7 0 0-.058.732.58.45 56.7 0 0 .694.238M92.12 167.17a.47.47 0 0 0 .03.76q.56.38 1-.08a.48.47 36.2 0 0-.12-.74q-.5-.27-.91.06m55.29.01q-.78.44-1.08 1.19-.26.64.36.33.75-.39 1.14-1.12a.3.3 0 0 0-.42-.4m8.082 3.903a.64.47 98.8 0 0 .563-.561.64.47 98.8 0 0-.367-.704.64.47 98.8 0 0-.562.56.64.47 98.8 0 0 .366.705M238.9 230.52q.17.64.83.6a.44.44 0 0 0 .41-.38q.1-.75-.65-.88a.53.52 87.3 0 0-.59.66m31.89 2.07q.29.74 1.16.71a.45.44-22.7 0 0 .31-.75q-.43-.45-1.01-.53-.72-.11-.46.57m-30.36 2.17a.98.5 27.3 0 0-.64-.894.98.5 27.3 0 0-1.1-.006.98.5 27.3 0 0 .64.894.98.5 27.3 0 0 1.1.006m-3.41 1.77 1.06 1.85q.59 1.03.72-.15.16-1.56-1.35-2.19a.34.34 0 0 0-.43.49m-36.07 48.14c.15-.36.4-.66.58-1q.4-.77-.42-.48-.62.21-1.12.61-.65.52-.05 1.11.21.21.47.18.39-.05.54-.42m7.86 9.8a.32.32 0 0 0-.32-.32.32.32 0 0 0-.32.32.32.32 0 0 0 .32.32.32.32 0 0 0 .32-.32"/><path fill="#4a5685" d="M244.05 80.05q.24-.15.53-.18a.52.52 0 0 1 .54.73q-.28.62-.96.4a.53.52-51.7 0 1-.11-.95"/><path fill="#48d587" d="M202.31 80.84a.44.44 0 0 1 .76.11q.34.88-.23 1.65-.42.57-.75-.05-.45-.83.22-1.71M236.47 82.33a.63.63 0 0 1 .65-.6q1.28.04 1.14.83a.73.72-86.9 0 1-.66.6q-1.17.07-1.13-.83M252.48 95.1q.68.47 1.02 1.15.32.64-.34.37-.98-.42-1.06-1.3a.24.24 0 0 1 .38-.22"/><ellipse fill="#48d587" rx=".74" ry=".38" transform="rotate(-1.6 3700.73 -9619.319)"/><ellipse fill="#48d587" rx=".53" ry=".36" transform="rotate(107.1 94.327 149.035)"/><path fill="#48d587" d="M254.31 106.43q-.5.8-.37 1.97 0 .07-.06.07l-.28.03q-.43.05-.45-.39-.06-1.66.79-3.03.29-.47.82-.34.39.09.69.39.42.42-.02.81-.15.14-.36.12-.5-.05-.76.37"/><circle cx="267.49" cy="105.64" r=".79" fill="#4a5685"/><path fill="#48d587" d="M248.85 107.45q-.43-.2-.05-.48 1.02-.74 2.28-1.01.66-.13.43.5-.68 1.88-2.66.99"/><path fill="#1caa5a" d="M255.77 114.49q-.26.28-.34.5-.15.42.29.41.74-.01 1.11-.86l1.74-.05q.65-.02.67.63l.13 3.34a.52.52 0 0 0 .62.49l6.56-1.28q.44-.08.48.36l.04.44q.03.3.33.37.21.04.32-.08.19-.24.23.07.3 2.52.53 4.99c.22 2.28 1.36 4.19 2.34 6.21q.25.5.79.63 2.6.62 5.33-.55a.5.49-32.2 0 1 .55.12l.22.24a.35.34-39.7 0 1-.05.51l-1.24.9q-.36.26-.16.66.06.13.17.21.21.15.45.05.53-.23.96-.64a.65.65 0 0 1 .85-.03q.25.2.3.51.06.36-.15.67-.92 1.39-1.58 2.79-.04.09.03.16.04.03.06.08.04.1.02-.01 0-.04-.01-.08-.02-.1.06-.16.36-.29 1.03-.01-1.02.6.17 1.65c.52 3.88 3.98 9.5 8.67 9.25q.5-.03.92.25c2.39 1.58 5.18 5.21 3.65 8.28q-.23.47-.23-.05 0-.07-.04-.13-.08-.12-.2-.04-.17.13-.29.3-.2.27-.11.6.44 1.65.99 3.1.18.49.06.95-.15.58-.72.85-.37.17-.69-.08-.12-.08-.27-.08-.17 0-.24.16-.39.9-1.16 1.52-.46.37-.19.91 1.53 3.04 4.65 3.7.26 1.38 1.62.6 4.16 3.68 3.31 8.7a.5.49 88.8 0 0 .59.57q.42-.09.85.06.62.22.8-.41.13-.49 1.44-.94l-10.78 64.41q-2.2.11-3.22-.77a1.2 1.19 20.4 0 1-.42-.91c-.02-2.9-2.12-4.46-2.74-7.09-.4-1.69-.78-3.3-1.6-4.85q-1.7-3.25-.67-6.75a.72.71 27.1 0 0-.25-.77q-1.73-1.33-3.96-1.24-2.81.12-5.65.22-.77.03-.37-.61.05-.08.08-.18.11-.47-.12-.9-.69-1.27-1.47-2.55-.45-.74.41-.67.17.01.26-.13.32-.47-.23-.61-3.76-1-6.3 1.77-.34.37-.84.29-2.36-.4-4.32.79-2.61 1.59-5.11 5.14-.33.48.14.81.4.28.03.6c-.53.44-1.28.57-1.91.24q-.21-.11-.42 0-.57.27-.81-.31c-1.1-2.66-2.47-6.61-5.31-7.77-4.16-1.7-7.02-2.3-10.3 1.59q-.46.54-1 .07-1.2-1.05-2.71-1.55a1.21 1.21 0 0 1-.81-1.05q-.31-4.03 1.68-7.29a.89.89 0 0 0-.59-1.34l-6.04-1.18a.81.79-88.1 0 1-.64-.7l-.9-8.7a.9.86-78.5 0 0-.42-.66l-.34-.19a.89.89 0 0 0-1.13.2c-3.68 4.54-7.92 5.1-13.37 4.42q-3.53-.44-4.83 2.55-.17.39-.56.21l-.23-.12a.85.84-69.9 0 1-.45-.98q.46-1.67-.42-2.86-.22-.31-.3-.67c-.83-3.85-.08-8.72 2.59-11.83q2.03-2.36 2.32-5.9.04-.45.49-.5c5.63-.64 3.01-7.79 2.12-11.21-1.26-4.83 1.55-7.9 4.2-11.43 2.69-3.56-.79-5.78-2.78-8.14-1.9-2.25-3-5.53-4.51-8.13q-.94-1.63-.33-3.52 1.63-5 1.92-9.74a1.32 1.32 0 0 1 1.63-1.2q4.56 1.14 9.07 2.78c1.57.56 3.43-.06 4.6-1.17q2.29-2.16 5.15-3.67 2.75-1.47 4.02-3.56c1.55-2.55 1.18-4.79 1.4-7.75q.04-.53.5-.78 2.6-1.44 4.6-3.57a.42.42 0 0 1 .66.08c2.1 3.62 2.3 12.55 9.18 8.97q2.8-1.46 5.85-.95m-15.26-4.06a.84.84 0 0 0-.84-.84.84.84 0 0 0-.84.84.84.84 0 0 0 .84.84.84.84 0 0 0 .84-.84m13.5 8.26q-.03-.24-.13-.45a.21.2 56.4 0 0-.32-.07q-.13.11-.2.24-.22.37.08.69.7.71 1.43 1.29 1.64 1.29.44-.42-.3-.42-.81-.63a.79.77-82.7 0 1-.49-.65m-15.62 12.96.89 1.17q.44.58.52-.15.04-.37-.13-.68-.33-.65-1.04-.74-.61-.09-.24.4m-3.29 1.77q-.04.4.29.62a.57.57 0 0 0 .89-.58q-.11-.55-.44-1.09a.41.41 0 0 0-.72.04q-.15.32-.06.66.05.17.04.35m9.84-.12q-.29.59.31.81.31.11.58 0a.57.57 0 0 0 .28-.84q-.13-.22-.36-.3a.66.65-66.9 0 0-.81.33m24.58 1.76q-.73.82-1.85 1.28-.31.12-.17.44l.11.25a.31.3 67 0 0 .38.16q1.41-.53 1.87-1.93a.2.2 0 0 0-.34-.2m-33.86 45.8q.34 1.21.72 1.6.35.35.6-.02.19-.27.04-.86 4.59-.14 7.51 2.74a2.97 2.95 22.2 0 1 .88 2.08c.02 2.14-.21 3.92 2.14 4.94q.45.2.73-.2.35-.51.71-1.02.26-.36.67-.55c6.74-3.1 8.98-7.92 13.22-13.16 3.08-3.79 3.86-9.16 4.43-13.63q.3-2.27-.81-4.55-2.4-4.94-5.22-9.7-5.15-8.69-13.76-4.54-1.12-2.34-2.67-2.25-1.22.91-2.82.83a.23.23 0 0 1-.13-.41q.14-.11.32-.17.93-.32-.02-.61-1.36-.41-2.32-1.51a.5.5 0 0 0-.87.26q-.45 3.65.44 6.99c.67 2.53-1.87 5.53-3.24 7.44-1.01 1.42-2.56 1.99-4.04 2.79q-.47.26-.48.8-.1 3.28.88 4.9 2.15 3.57 2.57 6.99.09.72-.45 5.36-.4 3.46.97 5.46M233 143q.39-.61-.23-.98-.53-.3-.93.13a.69.68 56.4 0 0-.14.71q.41 1.06.16 2.05-.06.27.21.31l.26.03q.38.06.53-.29.29-.64.06-1.3a.76.76 0 0 1 .08-.66m52.25 4.23q-.53.64-.27 1.45.17.56.55.11.55-.67.25-1.47a.31.31 0 0 0-.53-.09m-19.751 1.9a.8.51 90.8 0 0 .521-.793.8.51 90.8 0 0-.499-.807.8.51 90.8 0 0-.521.793.8.51 90.8 0 0 .499.807m20.281 2.97a.52.52 0 0 0 .28-.84q-.51-.6-1.02-.14a.52.52 0 0 0 .02.79q.35.27.72.19m-59.55 40.96-.24 1.41q-.1.57.48.67.31.05.62-.05.87-.27.37-1.03l-.73-1.11q-.38-.58-.5.11m53.15 4.186a.7.51 112.7 0 0 .74-.45.7.51 112.7 0 0-.2-.842.7.51 112.7 0 0-.74.45.7.51 112.7 0 0 .2.842m-13.61 7.49a.98.53 125.6 0 0 1-.487.98.53 125.6 0 0 .14-1.106.98.53 125.6 0 0-1 .488.98.53 125.6 0 0-.14 1.106m24.28 10.454a.37.37 0 0 0-.02.59q.5.44.97.02a.4.4 0 0 0-.05-.63q-.47-.3-.9.02m-1.826 5.592a.66.49 31.2 0 0-.31-.761.66.49 31.2 0 0-.818.077.66.49 31.2 0 0 .31.761.66.49 31.2 0 0 .818-.077"/><ellipse fill="#48d587" rx="1.01" ry=".5" transform="rotate(30.6 -68.524 529.51)"/><path fill="#2ebc6c" d="M262.22 109.51a.25.24-87.7 0 1 .3-.28q.2.04.23.25a.24.24 0 0 1-.27.27q-.22-.03-.26-.24"/><circle cx="239.67" cy="110.43" r=".84" fill="#48d587"/><ellipse fill="#48d587" rx=".99" ry=".65" transform="rotate(24.1 -133.534 640.436)"/><path fill="#48d587" d="M252.3 110.34q.85-.7 1.55-.29a.5.5 0 0 1 .08.79q-.82.78-1.54.39a.54.54 0 0 1-.09-.89"/><path fill="#2ebc6c" d="M188.89 112.16a.41.4-88.6 0 1 .49-.47q.73.17.76.89.02.64-.58.41-.57-.23-.67-.83"/><path fill="#48d587" d="M256.83 114.54q-.37.85-1.11.86-.44.01-.29-.41.08-.22.34-.5.89-.49 1.06.05"/><path fill="#2ebc6c" d="M274.23 114.66a.24.24 0 0 1 .35-.01q.29.29.22.69-.17.87-.64.12-.27-.42.07-.8M254.5 119.34q.51.21.81.63 1.2 1.71-.44.42-.73-.58-1.43-1.29-.3-.32-.08-.69.07-.13.2-.24a.21.2 56.4 0 1 .32.07q.1.21.13.45a.79.77-82.7 0 0 .49.65"/><path fill="#48d587" d="M272.43 119.83a.34.33-36.1 0 1 .59.09q.22.67-.34 1.24-.52.54-.6-.21-.05-.58.35-1.12M278.64 124.89q.15-.53.64-.81.69-.38.46.38-.29.94-1.12 1.51-.47.32-.44-.24.03-.5.46-.84"/><ellipse fill="#48d587" rx=".81" ry=".68" transform="rotate(77.6 59.556 234.083)"/><ellipse fill="#1caa5a" rx="1.88" ry=".34" transform="rotate(68.9 -52.817 128.24)"/><circle cx="291.44" cy="130.49" r=".5" fill="#2ebc6c"/><path fill="#48d587" d="M238.39 131.65q-.37-.49.24-.4.71.09 1.04.74.17.31.13.68-.08.73-.52.15zM235.06 133.07q-.09-.34.06-.66a.41.41 0 0 1 .72-.04q.33.54.44 1.09a.57.57 0 0 1-.89.58q-.33-.22-.29-.62.01-.18-.04-.35"/><path fill="#4a5685" d="M244.94 133.3a.66.65-66.9 0 1 .81-.33q.23.08.36.3a.57.57 0 0 1-.28.84q-.27.11-.58 0-.6-.22-.31-.81"/><path fill="#48d587" d="M269.52 135.06a.2.2 0 0 1 .34.2q-.46 1.4-1.87 1.93a.31.3 67 0 1-.38-.16l-.11-.25q-.14-.32.17-.44 1.12-.46 1.85-1.28M278.45 136.08q.9.77.17 1.65-1.19-1.05-.17-1.65"/><path fill="#2ebc6c" d="m185.63 139.87.44.58a.38.38 0 0 1-.05.52q-.32.29-.76.07a.51.5-84.6 0 1-.25-.31l-.92-3.34q-.1-.39.29-.5.16-.04.32-.09.04-.01.06.03.49 1.11.6 2.35.03.38.27.69M188.7 139.19a.15.15 0 0 1 .11-.18l.05-.02a2.73 1.28 75.7 0 1 1.91 2.33l.09.35a2.73 1.28 75.7 0 1-.56 2.96l-.05.02a.15.15 0 0 1-.19-.11zM244.85 141.74q1.05 2.62 3.91 3.2.13.03.2-.09l.18-.29q.18-.31-.17-.31-.82-.02-1.45-.26 8.61-4.15 13.76 4.54 2.82 4.76 5.22 9.7 1.11 2.28.81 4.55c-.57 4.47-1.35 9.84-4.43 13.63-4.24 5.24-6.48 10.06-13.22 13.16q-.41.19-.67.55-.36.51-.71 1.02-.28.4-.73.2c-2.35-1.02-2.12-2.8-2.14-4.94a2.97 2.95 22.2 0 0-.88-2.08q-2.92-2.88-7.51-2.74-.98-1.18-.96-2.57 0-.57-.41-.71-.56-.19-.52.4.08 1.09.53 2.16-1.37-2-.97-5.46.54-4.64.45-5.36-.42-3.42-2.57-6.99-.98-1.62-.88-4.9.01-.54.48-.8c1.48-.8 3.03-1.37 4.04-2.79 1.37-1.91 3.91-4.91 3.24-7.44q-.89-3.34-.44-6.99a.5.5 0 0 1 .87-.26q.96 1.1 2.32 1.51.95.29.02.61-.18.06-.32.17a.23.23 0 0 0 .13.41q1.6.08 2.82-.83m-11.39 16.37q.25-.25.4-.58.27-.61-.33-.33-.81.37-1.4.98-.27.29-.18.68.03.17.15.3.46.53.78-.09l.28-.54q.12-.24.3-.42m20.64 4.1q-.33.34-.05.67a.55.55 0 0 0 .92-.11q.17-.36-.08-.59a.56.56 0 0 0-.79.03"/><path fill="#48d587" d="M247.52 143.99q.63.24 1.45.26.35 0 .17.31l-.18.29q-.07.12-.2.09-2.86-.58-3.91-3.2 1.55-.09 2.67 2.25M232.92 143.66q.23.66-.06 1.3-.15.35-.53.29l-.26-.03q-.27-.04-.21-.31.25-.99-.16-2.05a.69.68 56.4 0 1 .14-.71q.4-.43.93-.13.62.37.23.98a.76.76 0 0 0-.08.66M144.71 144.57l.98 1.76q.44.78-.36.39-1.35-.67-.98-2.1.12-.48.36-.05"/><path fill="#2ebc6c" d="M109.17 147.38q-.04.38-.39.22-.64-.29-.62-1.04a.38.38 0 0 1 .66-.24q.41.47.35 1.06"/><path fill="#48d587" d="M285.25 147.23a.31.31 0 0 1 .53.09q.3.8-.25 1.47-.38.45-.55-.11-.26-.81.27-1.45"/><ellipse fill="#48d587" rx=".8" ry=".51" transform="rotate(90.8 59.618 205.08)"/><path fill="#48d587" d="M110.43 149.76a.21.21 0 0 1 .29-.28l1.57.79q.72.35-.07.5-1.22.23-1.79-1.01"/><path fill="#4a5685" d="M285.78 152.1q-.37.08-.72-.19a.52.52 0 0 1-.02-.79q.51-.46 1.02.14a.52.52 0 0 1-.28.84"/><ellipse fill="#4a5685" rx=".71" ry=".58" transform="rotate(56.8 -69.28 208.977)"/><ellipse fill="#4a5685" rx=".63" ry=".52" transform="rotate(-29.1 387.062 -274.917)"/><path fill="#2ebc6c" d="M121.57 155.98q-.15-.04-.25-.17-.24-.31.05-.58.58-.55 1.27-.86.81-.35.42.44l-.64 1.34q-.14.28-.43.16-.16-.06-.25-.21-.06-.09-.17-.12"/><ellipse fill="#2ebc6c" rx=".2" ry=".11" transform="rotate(104.9 21.08 140.886)"/><ellipse fill="#48d587" rx="1.37" ry=".46" transform="rotate(83.4 -27.733 147.946)"/><path fill="#48d587" d="m233.16 158.53-.28.54q-.32.62-.78.09-.12-.13-.15-.3-.09-.39.18-.68.59-.61 1.4-.98.6-.28.33.33-.15.33-.4.58-.18.18-.3.42"/><ellipse fill="#48d587" rx="1.1" ry=".35" transform="rotate(43 -135.375 255.892)"/><ellipse fill="#48d587" rx=".95" ry=".55" transform="rotate(54.3 -87.034 220.625)"/><path fill="#4a5685" d="M254.1 162.21a.56.56 0 0 1 .79-.03q.25.23.08.59a.55.55 0 0 1-.92.11q-.28-.33.05-.67"/><ellipse fill="#48d587" rx=".58" ry=".45" transform="rotate(56.7 -101.058 179.665)"/><path fill="#4a5685" d="M92.12 167.17q.41-.33.91-.06a.48.47 36.2 0 1 .12.74q-.44.46-1 .08a.47.47 0 0 1-.03-.76"/><path fill="#48d587" d="M147.41 167.18a.3.3 0 0 1 .42.4q-.39.73-1.14 1.12-.62.31-.36-.33.3-.75 1.08-1.19M295.04 167.82q-1.36.78-1.62-.6 1.37-.56 1.62.6"/><ellipse fill="#48d587" rx=".64" ry=".47" transform="rotate(98.8 4.748 151.903)"/><path fill="#48d587" d="M237.02 181.58q.15.59-.04.86-.25.37-.6.02-.38-.39-.72-1.6-.45-1.07-.53-2.16-.04-.59.52-.4.41.14.41.71-.02 1.39.96 2.57M225.99 194.47l.24-1.41q.12-.69.5-.11l.73 1.11q.5.76-.37 1.03-.31.1-.62.05-.58-.1-.48-.67"/><ellipse fill="#48d587" rx=".7" ry=".51" transform="rotate(112.7 74.39 191.375)"/><ellipse fill="#48d587" rx=".98" ry=".53" transform="rotate(125.6 80.765 170.41)"/><path fill="#4a5685" d="M290.05 215.19q.43-.32.9-.02a.4.4 0 0 1 .05.63q-.47.42-.97-.02a.37.37 0 0 1 .02-.59"/><ellipse fill="#48d587" rx=".66" ry=".49" transform="rotate(31.2 -250.934 625.361)"/><path fill="#4a5685" d="M238.9 230.52a.53.52 87.3 0 1 .59-.66q.75.13.65.88a.44.44 0 0 1-.41.38q-.66.04-.83-.6"/><path fill="#2ebc6c" d="M271.25 232.02q.58.08 1.01.53a.45.44-22.7 0 1-.31.75q-.87.03-1.16-.71-.26-.68.46-.57"/><ellipse fill="#2ebc6c" rx=".98" ry=".5" transform="rotate(27.3 -362.638 610.382)"/><path fill="#48d587" d="M237.02 236.53a.34.34 0 0 1 .43-.49q1.51.63 1.35 2.19-.13 1.18-.72.15zM200.95 284.67q-.15.37-.54.42-.26.03-.47-.18-.6-.59.05-1.11.5-.4 1.12-.61.82-.29.42.48c-.18.34-.43.64-.58 1"/><circle cx="208.49" cy="294.47" r=".32" fill="#48d587"/></svg>