<svg xmlns="http://www.w3.org/2000/svg" viewBox="0 0 382 382"><g fill="none" stroke="#2c0648" stroke-width="2"><path d="M220.74 70.13q-1.47.68-1.24 1.98.11.57-.43.78-2.57.99-2 4.52a.37.36-21.9 0 0 .57.24q.59-.4 1.25-.53 1.13-.22.59.8l-.13.23a.78.78 0 0 0 .3 1.04l2.06 1.23a.67.67 0 0 1 .26.88q-2.56 5.2-3 9.84-.13 1.3.74.32l3.25-3.68q.35-.39.87-.39 1.05 0 2.08-.37.76-.28 1.03.49l1.56 4.56q.2.58-.05 1.13l-.35.77q-.48 1.05.58.58 1.13-.51 2.42-.57.94-.04.41-.83-2.17-3.24.01-6.27.24-.33.05-.69-.08-.15-.16-.31-.52-1 .45-.44l.22.13a.65.65 0 0 0 .72-.04q.48-.35 1.02-.13 1.68.67.86-.95-.83-1.65-1.42-3.3-.17-.5.04-.98l.21-.5q.29-.67-.44-.69-.77-.02-1.43.24-2.99 1.15-1.96-1.89l1.37-4.02M239.59 72.01q.26 2.42 1.7 3.64.23.2.52.06.06-.03.08-.09.15-.41-.03-.81-.26-.59-.58-1.07-.43-.65.29-.91.84-.3 1.06-.79M255.36 79.95l-.71.98q-.3.4-.11.86l1 2.48q.23.59-.24 1.01-.69.62-1.53.89-.47.16-.28.61l1.06 2.44q.4.91-.59.79-.96-.11-1.65.39-.66.49-.09 1.12.84.93 1.51 1.93a1.35 1.35 0 0 1-.47 1.94l-1.89 1.04a.7.69-15.9 0 0-.36.64l.02.31q.02.34.34.23 1.6-.56 3.14.7.47.39.48 1.01.02 1.42.05 2.8.01.41.32.66.37.31.88.22.68-.12.36-.73-.5-.95.32-1.69.53-.47 1.15-.12l.29.16q.61.33.6-.36l-.03-3.42q-.01-.66-.63-.42-.39.15-.72.41-.09.07-.19.02-.13-.05-.21-.15-.04-.04-.01-.1 1.85-3.29 5.12-2.45.55.15.64.71l.2 1.3a.47.47 0 0 0 .6.37q1.3-.43 2.13.8.39.56.78.01 1-1.43 2.89-2.19.61-.24.55.41l-.39 4.09q-.04.4.22.71l.42.52q.34.41.18.91l-3 9.45q-.18.57.23.99.92.93 1.39 2.14.23.6.78.27l1.04-.65" vector-effect="non-scaling-stroke"/><path d="M270.95 113.99q.13.44.41.67a.31.31 0 0 0 .5-.19q.03-.18-.26-.36-.24-.15-.65-.12" vector-effect="non-scaling-stroke"/><path d="M270.95 113.99q.82-1.08.51-2.3-.16-.63.49-.7 1.63-.16 2.19 1.3.22.57.68.18.42-.35.93-.16l.44.17q.51.19.97-.1.62-.4 1.29-.23.5.14.67.63 1.41 4.13-.15 6.75-1.03 1.73-1.49 3.9-.1.49.27.82 1.12 1 1.3 2.59.21 1.86.98.15.31-.71.99-1.07a.76.75-25.1 0 0 .35-.95q-.51-1.23-.13-2.4.22-.7.87-.37 1.37.69 2.88.77.66.04.88-.59c.18-.54.36-1.15.96-1.36q.44-.15.81.13.3.23.21.6-.05.17-.18.26-.74.49.12.74.15.04.31.09a.67.66 5.6 0 1 .46.55q.54 4.18.4 8.28-.01.19-.14.32-.15.15-.29.3-.39.41.16.28.34-.08.6-.32a.89.89 0 0 1 1.48.42q.33 1.24 1.49 2.03.85.57.63-.43l-.27-1.23a1.73 1.72-35.1 0 1 .23-1.29l.58-.91q.28-.46-.09-.86-1.36-1.44-.01-3.48.2-.3.48-.09.2.14.45.17a.52.52 0 0 0 .6-.48l.17-3.21q.03-.54.57-.56 2.22-.06 4.13 1.06.43.26.68.69l1.7 2.92M289.33 253.57c-1.66-.63-1.53-4.15-.89-5.43q.83-1.61.51-3.43-.11-.65-.68-.33-.91.51-1.25 1.57-.54 1.71-1.04-.01-.16-.54-.68-.74-2.46-.91-.41-2.59 1.34-1.1 1.14-2.85-.07-.58-.63-.42-1.38.39-2.75-.37-.36-.2-.23-.6l1.45-4.47q.14-.41-.28-.53-.22-.06-.41.06-.55.34-1.14.08l-1.43-.62q-.51-.23-.56-.79-.23-2.41.36-4.44.12-.4-.05-.79-.13-.32-.4-.52-.44-.33-.67.16l-.29.62q-.25.55-.84.68l-2.36.55q-.44.11-.68-.28-.8-1.31-2.64-1.66-.77-.14-.41.55l.67 1.31q.26.49.07 1.01-.38 1.07-.25 2.2.07.62-.47.94l-.93.54q-1.9 1.1.01 2.17.72.41.94 1.22.2.76.97.58.67-.17 1.24-.56.77-.54.75.4l-.12 4.28q-.02.66-.64.45l-.39-.12q-.47-.15-.72.27-1.35 2.22-1.32 4.7a.43.43 0 0 1-.7.33q-1.77-1.46-2.71-3.62a.31.3-18 0 0-.34-.17l-.58.13a.36.35-26 0 0-.2.57q1.25 1.52.01 2.64-.19.17-.45.23-.4.09-.78-.02a1.26 1.26 0 0 0-1.04.18l-2.7 1.86q-.39.27.09.3.21.01.42.06a1.52 1.51 22.2 0 1 .96 2.27l-2.82 4.59a.51.5 48.8 0 1-.89-.06q-1.29-2.91-1.52-6.03-.01-.2-.21-.22-.57-.07-.4.48.12.42-.15.67-.44.41-.67-.15l-.94-2.4q-.21-.53.1-1.01.18-.27.01-.55-.21-.35-.59-.54-.61-.31-1.11-.79-.42-.41-.08-.89l.88-1.26q.3-.43.22-.95-.15-1-.85-1.81-.4-.46-.24-1.05.18-.65.63-1.21.29-.36-.09-.64c-2.04-1.47-.16-3.68-.21-5.65q0-.32-.32-.28l-.28.04q-.18.02-.19.2-.03.44-.23.83a.48.47-52.9 0 1-.77.11q-.56-.6-1.24-.08-.89.68-.78-.43.13-1.42-.78-2.15-.45-.37 0-.74.19-.15.27-.38.23-.66-.4-.36-.57.26-.81.85-.12.32.14.51.29.21.18.54-.67 2.09-2.1 3.12a.25.25 0 0 0-.07.32q.65 1.18.53 2.42-.04.45.39.59.23.08.42-.07 1.06-.86.81.48-.46 2.45-2.44 3.24a.5.5 0 0 0-.3.58q.07.31-.16.49-.69.55-.73-.34-.04-.91-.88-1.07-.68-.13-.95.5l-.27.63a.49.49 0 0 1-.54.29q-1.38-.22-2.81.66-.31.19-.15.52.83 1.73-.61 3.86-.39.57-.83.04-4.6-5.46-3.76-12.72.11-.93-.51-1.75-.34-.47-.12-1 .29-.69.28-1.48-.01-.58-.59-.62l-1.52-.09q-.77-.05-.73-.83.08-1.3-.27-2.5a.69.69 0 0 0-.71-.5q-.81.07-1 .65-.17.51.15.95l.4.53q.35.48-.11.86-.83.68-1.88 1a1 1 0 0 0-.49 1.56q.87 1.13 2.14 1.55.42.14.57.55.28.75.07 1.48a1.01 1-88.9 0 1-.72.7q-1.46.35-1.34 1.92.11 1.64-1.1.53c-.7-.64-.59-1.62-.98-2.04q-.11-.12-.28-.13-.33-.01-.37.32l-.19 1.47q-.07.61-.65.83-.72.27-1.28.76-.37.32-.45.82l-.64 4.33q-.06.4-.42.21l-.3-.17q-.18-.1-.17-.31.16-1.9-1.27-1.98-.67-.03-1.09-.55l-2.06-2.48q-.09-.11-.08-.25.02-.14.02-.27a1.48 1.46-63 0 0-.27-.85q-1.08-1.52-.99-3.27a1.72 1.71 29.3 0 0-.3-1.06q-1.52-2.23-.28-4.68a.71.7-68.4 0 0-.42-.99l-.32-.1a.49.47 18.2 0 0-.6.29q-.65 1.74-2.54 2.31-.56.17-.81-.37l-1.21-2.63q-.45-.96-.8.04-.94 2.59.43 5.64.21.48-.13.89l-.68.81q-.39.47.07.88 1.23 1.1 2.59.57.56-.21.58.39.09 2.83-1.3 5.68-.21.43-.65.59-.35.12-.71.11-.63-.01-.59.61.1 1.73-.41 3.37-.17.56.04 1.1.66 1.68.73 3.53.02.59-.54.79-.2.07-.4.07-.54 0-.89.41l-1.53 1.86M79.33 145.01q3.1-.34 4.13-5.36a.48.48 0 0 0-.38-.57l-.63-.11a.44.44 0 0 1-.31-.65l.35-.6q.19-.32-.1-.56-.11-.08-.25-.11-.45-.07-.71.3-.35.48-.46 1.06-.05.28-.32.38-.13.06-.27.02-.36-.11-.34-.48.07-1.86-.54-3.5-.17-.45.13-.84 1.74-2.26 2.73-5.21.15-.46-.03-.91l-.74-1.89M82.97 123.67q.88.32 1.07 2.39.07.88.82.41.59-.37 1.28-.39.76-.03.44.65-.35.76.1 1.52 1.52 2.61.79 5.22-.1.38.28.47.77.17 1.35.65a.6.6 0 0 0 .99-.47q-.02-1.34-.67-2.4-.4-.66.37-.64 2.15.06 3.94-.94 1-.56 1.21.57c.51 2.62-.81 4.93-.97 7.55a.5.5 0 0 0 .8.43q.95-.72 1.31-1.78.47-1.39.85.03.19.68.83.92 2.36.86.39 2.46-1.4 1.15-1.18 2.98.06.51.54.34 1.4-.5 2.8.49.34.25.21.66l-1.44 4.44q-.19.58.4.4 1.59-.49 3.12.74.4.32.43.84.11 2.07-.44 3.96-.1.34.01.69.11.37.39.65.47.44.76-.13l.31-.62q.26-.51.84-.58 1.17-.13 2.3-.73.45-.25.64.24.57 1.46 2.61 1.95.64.16.41-.46-.77-2.13-.49-4.48c.11-.9.72-1.34 1.49-1.67q2.46-1.04.04-2.18-.84-.39-1.16-1.27-.23-.62-.87-.45-.59.16-1.13.56a.49.49 0 0 1-.78-.41l.16-4.35a.54.53-27.7 0 1 .1-.31q.31-.46.59-.14a.5.5 0 0 0 .79-.03q1.73-2.35 1.49-4.99a.31.31 0 0 1 .47-.3q2.01 1.21 2.79 3.48a.5.49-11.1 0 0 .51.34l.59-.05q.53-.04.23-.47-1.07-1.49.1-2.79.36-.41.91-.32.15.03.28.12.6.41 1.1-.13 1-1.08 2.3-1.6.55-.22.01-.44-2.24-.92-.83-3.17 1.29-2.04 2.46-3.79a.5.5 0 0 1 .86.05q1.41 2.75 1.34 6.08 0 .14.14.15l.35.04a.27.26 81.1 0 0 .27-.38q-.17-.37-.05-.71.25-.73.71-.11 1.32 1.8.99 3.8-.08.42.32.62.94.45 1.54 1.24.38.49-.09.89-.87.75-1.19 1.82-.24.81.44 1.32 1.84 1.39.06 2.82-.46.36.04.66c2.15 1.27.39 3.75.38 5.93q0 .19.19.18l.38-.01q.23 0 .21-.23-.06-.51.19-.96.33-.58.8-.12.57.55 1.22.11.85-.59.75.44-.11 1.23.71 2.13.34.38.05.79l-.29.41q-.5.7.27.31.99-.5.71-1.46a1.18 1.16-42.6 0 1 .04-.81q.63-1.57 1.67-2.51.31-.28.23-.7l-.48-2.43q-.12-.61-.69-.35-.18.08-.31.25-.2.25-.48.09-.13-.07-.19-.2-.13-.25-.01-.5.53-1.12 1.03-2.27a1.3 1.28-82.8 0 1 .95-.75q1.02-.18.95-1.21-.01-.3.24-.46.3-.21.62.14a.48.46-64.7 0 1 .11.33q-.04.9.74 1.1.57.14.87-.35.19-.3.21-.64a.54.54 0 0 1 .74-.46q1.13.46 2.43-.51.41-.31.34-.81-.27-1.95.91-3.77a.51.51 0 0 1 .88.03c1.16 2.12 2.88 4.01 3.32 6.43q.59 3.24.21 6.74-.05.47.24.84l.43.56q.28.37.13.8l-.8 2.37q-.17.53.3.24.96-.59 2.38-.13.55.18.59.77l.12 2.28a.74.74 0 0 0 .73.7h.46q.84.01.72-.82-.1-.73-.54-1.33-.47-.65.24-1.03l1.81-.97a1.04 1.04 0 0 0 .21-1.69q-.95-.86-2.06-1.33-.46-.19-.59-.67-.49-1.92 1.37-2.26a.65.65 0 0 0 .53-.59l.12-1.49q.06-.82.78-.42 1.12.61 1.15 1.99 0 .08.04.15.14.2.39.21a.37.37 0 0 0 .36-.3l.26-1.33q.11-.58.64-.83.77-.37 1.37-.96.36-.36.44-.86l.61-3.64q.25-1.53.9-.12.28.62.29 1.31.02.6.56.36.42-.18.83-.02c.93.39 1.48 2.2 2.57 2.96q.27.19.3.53l.03.49q.04.54.4.96 1.05 1.22.69 2.82a1.4 1.4 0 0 0 .3 1.21q1.82 2.13.17 4.58a.69.69 0 0 0 .31 1.02l.27.11q.81.33 1.13-.48.56-1.47 2.45-2.21.43-.16.62.26l1.31 3.05q.38.87.66-.04l.38-1.26q.24-.78.05-1.57l-.77-3.15q-.11-.47.19-.86l.79-1.02q.22-.28-.08-.48-1.48-1.02-2.91-.68-.63.16-.57-.49.26-2.67 1.22-5.27a1.2 1.19-86.7 0 1 .84-.75l.81-.2q.58-.14.48-.73-.22-1.29.36-2.6.25-.56.14-1.16l-.8-4.34q-.13-.66.54-.76.2-.04.38.09a.41.41 0 0 0 .62-.14q.77-1.48 2.81-1.13 2.99.52 4.05 2.12.3.46.42-.08.25-1.12 1.44-1.02.63.05.69.68l.13 1.53q.06.66.61.29l.39-.27a.76.76 0 0 0 .33-.73q-.31-2.15.31-4.49.13-.48.58-.7 1.65-.85 2.27-2.78.26-.82-.36-.23l-1.32 1.25q-.41.38-.64-.12l-1.45-3.03q-.45-.92-.68.08-.24.99-.71 1.84-1.66 2.95-2.31-.37l-1.22-6.14q-.09-.46-.52-.65-.81-.35-1.7-.34-.88.01-.3-.65l.68-.76a1.39 1.36 66.3 0 0 .35-.92c.02-2.19 1.37-3.58 2.44-5.35 1.03-1.7.2-3.73.11-5.56q-.02-.56-.53-.33l-2.11.96q-.35.16-.3.55.1.77.68 1.4.1.11.07.26-.04.16-.16.26-.36.3-.76.05-1.67-1.07-3.21-.26-.65.35-.56-.38.29-2.52-.73-4.95a.22.22 0 0 1 .15-.3q.15-.03.19-.18.28-1.12-.58-.35-.64.57-1.44.64a.37.36 68.3 0 0-.25.59q1.11 1.42-.06 2.59c-.62.62-1.77.71-2.6.86q-.54.1-.63.64-.46 2.87.81 5.23a.66.66 0 0 1-.57.97q-1.34.03-2.64.69a.41.41 0 0 1-.6-.36q0-2.33-2.26-3.37-.64-.3-.72-1-.2-1.76.5-3.35.27-.62-.11-1.17-1.35-1.97-1.75-4.21-.08-.45-.54-.52-1.6-.24-1.88-2.14-.08-.55.38-.86l6.17-4.3a.5.5 0 0 0-.13-.88c-2.84-.92-1.91-3.66-.63-5.35a1.37 1.35-34.8 0 0 .22-1.18c-.38-1.39.72-3.02.61-4.64q-.04-.67-.71-.76-3.01-.38-3.12-3.24M174.24 72.41l3.23 1.88q.43.25.56.72.31 1.11 1.29 1.74.6.38.64-.33l.11-2.56a.94.9-24.3 0 1 .21-.52q.27-.31.6-.36.84-.13.46-.88-.49-.98-.4-2.07M294.98 107.05q-.2 1.3.22 2.35.19.48.71.47 1.49-.02 1.62-1.76M301.87 113.94c-1.25.47-1.89 1.41-1.61 2.81q.63 3.05 2.29 4.99M302.64 124.05l-.04.66M219.29 310.24l1.27-3.42q.21-.56-.24-.97l-1.67-1.48q-.35-.31-.37.16-.01.44.42.5a.34.34 0 0 1 .18.58q-.16.16-.34.02-1.78-1.33-1.46-2.64.5-2.02.62-4.25a2 1.94-27.9 0 1 .3-.93q1.18-1.86.92-4.04a.87.87 0 0 0-.73-.75q-.76-.11-1.11-.73-.25-.44.17-.74l6.13-4.29a.81.81 0 0 0 .25-1.03l-.76-1.51a.65.65 0 0 0-.97-.23q-.12.09-.25.14-.62.2-.58-.45.16-2.56-1.43-4.21-.42-.44-.24-1.03.61-1.9.47-3.85-.05-.65-.64-.94-2.34-1.14-2.35-3.48a.4.4 0 0 0-.6-.35q-1.27.72-2.61.75a.63.63 0 0 0-.54.93q1.26 2.41.76 5.4-.08.44-.52.54c-.78.17-1.5 0-2.2.51q-1.52 1.11-.65 2.9.24.48-.29.55-.74.09-1.31.61-.33.31-.39-.14l-.76-5.69a.38.38 0 0 0-.58-.27q-1.21.77-2.69-.05-1.49-.82-.85.75l.3.73a.75.75 0 0 1-.38.96l-2.05.92q-.55.25-.52-.36.06-1.83-.46-3.44-.16-.48.06-.94c.91-1.85 3.15-4.49 2.84-6.54a.72.71 65 0 1 .22-.62l.7-.66q.88-.83-.31-.99l-1.2-.16q-.55-.08-.71-.61-.68-2.23-.38-4.79M211.85 312.34q-2.43-.09-2.93-1.45-.23-.63-.86-.85-2.83-1-4.12-3.67-.13-.27-.42-.3-.15-.02-.29.1-.2.18-.18.44.2 2.34-1.12 3.66-.27.27-.2.64l.41 2.24q.11.61.71.7.65.09 1.17-.31.44-.35.87.02.51.47.73 1.28" vector-effect="non-scaling-stroke"/><path d="M211.1 311.54q.02.47.36.14.41-.42.31-1.03-.08-.5-.38-.09-.31.42-.29.98" vector-effect="non-scaling-stroke"/></g><path d="M220.74 70.13q-1.47.68-1.24 1.98.11.57-.43.78-2.57.99-2 4.52a.37.36-21.9 0 0 .57.24q.59-.4 1.25-.53 1.13-.22.59.8l-.13.23a.78.78 0 0 0 .3 1.04l2.06 1.23a.67.67 0 0 1 .26.88q-2.56 5.2-3 9.84-.13 1.3.74.32l3.25-3.68q.35-.39.87-.39 1.05 0 2.08-.37.76-.28 1.03.49l1.56 4.56q.2.58-.05 1.13l-.35.77q-.48 1.05.58.58 1.13-.51 2.42-.57.94-.04.41-.83-2.17-3.24.01-6.27.24-.33.05-.69-.08-.15-.16-.31-.52-1 .45-.44l.22.13a.65.65 0 0 0 .72-.04q.48-.35 1.02-.13 1.68.67.86-.95-.83-1.65-1.42-3.3-.17-.5.04-.98l.21-.5q.29-.67-.44-.69-.77-.02-1.43.24-2.99 1.15-1.96-1.89l1.37-4.02 8.54-1.3q.26 2.42 1.7 3.64.23.2.52.06.06-.03.08-.09.15-.41-.03-.81-.26-.59-.58-1.07-.43-.65.29-.91.84-.3 1.06-.79 2.49-.14 4.65 1.43 2.02 1.47 8.08 6.48l-.71.98q-.3.4-.11.86l1 2.48q.23.59-.24 1.01-.69.62-1.53.89-.47.16-.28.61l1.06 2.44q.4.91-.59.79-.96-.11-1.65.39-.66.49-.09 1.12.84.93 1.51 1.93a1.35 1.35 0 0 1-.47 1.94l-1.89 1.04a.7.69-15.9 0 0-.36.64l.02.31q.02.34.34.23 1.6-.56 3.14.7.47.39.48 1.01.02 1.42.05 2.8.01.41.32.66.37.31.88.22.68-.12.36-.73-.5-.95.32-1.69.53-.47 1.15-.12l.29.16q.61.33.6-.36l-.03-3.42q-.01-.66-.63-.42-.39.15-.72.41-.09.07-.19.02-.13-.05-.21-.15-.04-.04-.01-.1 1.85-3.29 5.12-2.45.55.15.64.71l.2 1.3a.47.47 0 0 0 .6.37q1.3-.43 2.13.8.39.56.78.01 1-1.43 2.89-2.19.61-.24.55.41l-.39 4.09q-.04.4.22.71l.42.52q.34.41.18.91l-3 9.45q-.18.57.23.99.92.93 1.39 2.14.23.6.78.27l1.04-.65q.13.44.41.67a.31.31 0 0 0 .5-.19q.03-.18-.26-.36-.24-.15-.65-.12.82-1.08.51-2.3-.16-.63.49-.7 1.63-.16 2.19 1.3.22.57.68.18.42-.35.93-.16l.44.17q.51.19.97-.1.62-.4 1.29-.23.5.14.67.63 1.41 4.13-.15 6.75-1.03 1.73-1.49 3.9-.1.49.27.82 1.12 1 1.3 2.59.21 1.86.98.15.31-.71.99-1.07a.76.75-25.1 0 0 .35-.95q-.51-1.23-.13-2.4.22-.7.87-.37 1.37.69 2.88.77.66.04.88-.59c.18-.54.36-1.15.96-1.36q.44-.15.81.13.3.23.21.6-.05.17-.18.26-.74.49.12.74.15.04.31.09a.67.66 5.6 0 1 .46.55q.54 4.18.4 8.28-.01.19-.14.32-.15.15-.29.3-.39.41.16.28.34-.08.6-.32a.89.89 0 0 1 1.48.42q.33 1.24 1.49 2.03.85.57.63-.43l-.27-1.23a1.73 1.72-35.1 0 1 .23-1.29l.58-.91q.28-.46-.09-.86-1.36-1.44-.01-3.48.2-.3.48-.09.2.14.45.17a.52.52 0 0 0 .6-.48l.17-3.21q.03-.54.57-.56 2.22-.06 4.13 1.06.43.26.68.69l1.7 2.92-1.11 8.09q-.07.55.21 1.02l2.68 4.61q.3.5.29 1.08-.05 8.9.02 17.46.04 4.4-.67 8.72c-.62 3.82-1.5 7.86-2.07 11.36q-5.48 33.63-10.98 66.47-.65 3.83-1.15 7.76c-1.66-.63-1.53-4.15-.89-5.43q.83-1.61.51-3.43-.11-.65-.68-.33-.91.51-1.25 1.57-.54 1.71-1.04-.01-.16-.54-.68-.74-2.46-.91-.41-2.59 1.34-1.1 1.14-2.85-.07-.58-.63-.42-1.38.39-2.75-.37-.36-.2-.23-.6l1.45-4.47q.14-.41-.28-.53-.22-.06-.41.06-.55.34-1.14.08l-1.43-.62q-.51-.23-.56-.79-.23-2.41.36-4.44.12-.4-.05-.79-.13-.32-.4-.52-.44-.33-.67.16l-.29.62q-.25.55-.84.68l-2.36.55q-.44.11-.68-.28-.8-1.31-2.64-1.66-.77-.14-.41.55l.67 1.31q.26.49.07 1.01-.38 1.07-.25 2.2.07.62-.47.94l-.93.54q-1.9 1.1.01 2.17.72.41.94 1.22.2.76.97.58.67-.17 1.24-.56.77-.54.75.4l-.12 4.28q-.02.66-.64.45l-.39-.12q-.47-.15-.72.27-1.35 2.22-1.32 4.7a.43.43 0 0 1-.7.33q-1.77-1.46-2.71-3.62a.31.3-18 0 0-.34-.17l-.58.13a.36.35-26 0 0-.2.57q1.25 1.52.01 2.64-.19.17-.45.23-.4.09-.78-.02a1.26 1.26 0 0 0-1.04.18l-2.7 1.86q-.39.27.09.3.21.01.42.06a1.52 1.51 22.2 0 1 .96 2.27l-2.82 4.59a.51.5 48.8 0 1-.89-.06q-1.29-2.91-1.52-6.03-.01-.2-.21-.22-.57-.07-.4.48.12.42-.15.67-.44.41-.67-.15l-.94-2.4q-.21-.53.1-1.01.18-.27.01-.55-.21-.35-.59-.54-.61-.31-1.11-.79-.42-.41-.08-.89l.88-1.26q.3-.43.22-.95-.15-1-.85-1.81-.4-.46-.24-1.05.18-.65.63-1.21.29-.36-.09-.64c-2.04-1.47-.16-3.68-.21-5.65q0-.32-.32-.28l-.28.04q-.18.02-.19.2-.03.44-.23.83a.48.47-52.9 0 1-.77.11q-.56-.6-1.24-.08-.89.68-.78-.43.13-1.42-.78-2.15-.45-.37 0-.74.19-.15.27-.38.23-.66-.4-.36-.57.26-.81.85-.12.32.14.51.29.21.18.54-.67 2.09-2.1 3.12a.25.25 0 0 0-.07.32q.65 1.18.53 2.42-.04.45.39.59.23.08.42-.07 1.06-.86.81.48-.46 2.45-2.44 3.24a.5.5 0 0 0-.3.58q.07.31-.16.49-.69.55-.73-.34-.04-.91-.88-1.07-.68-.13-.95.5l-.27.63a.49.49 0 0 1-.54.29q-1.38-.22-2.81.66-.31.19-.15.52.83 1.73-.61 3.86-.39.57-.83.04-4.6-5.46-3.76-12.72.11-.93-.51-1.75-.34-.47-.12-1 .29-.69.28-1.48-.01-.58-.59-.62l-1.52-.09q-.77-.05-.73-.83.08-1.3-.27-2.5a.69.69 0 0 0-.71-.5q-.81.07-1 .65-.17.51.15.95l.4.53q.35.48-.11.86-.83.68-1.88 1a1 1 0 0 0-.49 1.56q.87 1.13 2.14 1.55.42.14.57.55.28.75.07 1.48a1.01 1-88.9 0 1-.72.7q-1.46.35-1.34 1.92.11 1.64-1.1.53c-.7-.64-.59-1.62-.98-2.04q-.11-.12-.28-.13-.33-.01-.37.32l-.19 1.47q-.07.61-.65.83-.72.27-1.28.76-.37.32-.45.82l-.64 4.33q-.06.4-.42.21l-.3-.17q-.18-.1-.17-.31.16-1.9-1.27-1.98-.67-.03-1.09-.55l-2.06-2.48q-.09-.11-.08-.25.02-.14.02-.27a1.48 1.46-63 0 0-.27-.85q-1.08-1.52-.99-3.27a1.72 1.71 29.3 0 0-.3-1.06q-1.52-2.23-.28-4.68a.71.7-68.4 0 0-.42-.99l-.32-.1a.49.47 18.2 0 0-.6.29q-.65 1.74-2.54 2.31-.56.17-.81-.37l-1.21-2.63q-.45-.96-.8.04-.94 2.59.43 5.64.21.48-.13.89l-.68.81q-.39.47.07.88 1.23 1.1 2.59.57.56-.21.58.39.09 2.83-1.3 5.68-.21.43-.65.59-.35.12-.71.11-.63-.01-.59.61.1 1.73-.41 3.37-.17.56.04 1.1.66 1.68.73 3.53.02.59-.54.79-.2.07-.4.07-.54 0-.89.41l-1.53 1.86q-.54-12.43-1.96-25.15c-.65-5.83-2.42-11.22-7.4-14.59q-2.96-2.01-9.4-3.02c-7.79-1.21-15.17-1.31-22.8-1.17-3.21.05-6.83-1.44-9.41-3.57q-12.69-10.48-19.13-15.08-13.81-9.85-29.91-11.28-4.36-.39-7.48-1.23c-12.12-3.26-18.56-13.55-17.36-26.06.27-2.76-.62-5.12-1.47-7.75q3.1-.34 4.13-5.36a.48.48 0 0 0-.38-.57l-.63-.11a.44.44 0 0 1-.31-.65l.35-.6q.19-.32-.1-.56-.11-.08-.25-.11-.45-.07-.71.3-.35.48-.46 1.06-.05.28-.32.38-.13.06-.27.02-.36-.11-.34-.48.07-1.86-.54-3.5-.17-.45.13-.84 1.74-2.26 2.73-5.21.15-.46-.03-.91l-.74-1.89 1.38-2.31q.88.32 1.07 2.39.07.88.82.41.59-.37 1.28-.39.76-.03.44.65-.35.76.1 1.52 1.52 2.61.79 5.22-.1.38.28.47.77.17 1.35.65a.6.6 0 0 0 .99-.47q-.02-1.34-.67-2.4-.4-.66.37-.64 2.15.06 3.94-.94 1-.56 1.21.57c.51 2.62-.81 4.93-.97 7.55a.5.5 0 0 0 .8.43q.95-.72 1.31-1.78.47-1.39.85.03.19.68.83.92 2.36.86.39 2.46-1.4 1.15-1.18 2.98.06.51.54.34 1.4-.5 2.8.49.34.25.21.66l-1.44 4.44q-.19.58.4.4 1.59-.49 3.12.74.4.32.43.84.11 2.07-.44 3.96-.1.34.01.69.11.37.39.65.47.44.76-.13l.31-.62q.26-.51.84-.58 1.17-.13 2.3-.73.45-.25.64.24.57 1.46 2.61 1.95.64.16.41-.46-.77-2.13-.49-4.48c.11-.9.72-1.34 1.49-1.67q2.46-1.04.04-2.18-.84-.39-1.16-1.27-.23-.62-.87-.45-.59.16-1.13.56a.49.49 0 0 1-.78-.41l.16-4.35a.54.53-27.7 0 1 .1-.31q.31-.46.59-.14a.5.5 0 0 0 .79-.03q1.73-2.35 1.49-4.99a.31.31 0 0 1 .47-.3q2.01 1.21 2.79 3.48a.5.49-11.1 0 0 .51.34l.59-.05q.53-.04.23-.47-1.07-1.49.1-2.79.36-.41.91-.32.15.03.28.12.6.41 1.1-.13 1-1.08 2.3-1.6.55-.22.01-.44-2.24-.92-.83-3.17 1.29-2.04 2.46-3.79a.5.5 0 0 1 .86.05q1.41 2.75 1.34 6.08 0 .14.14.15l.35.04a.27.26 81.1 0 0 .27-.38q-.17-.37-.05-.71.25-.73.71-.11 1.32 1.8.99 3.8-.08.42.32.62.94.45 1.54 1.24.38.49-.09.89-.87.75-1.19 1.82-.24.81.44 1.32 1.84 1.39.06 2.82-.46.36.04.66c2.15 1.27.39 3.75.38 5.93q0 .19.19.18l.38-.01q.23 0 .21-.23-.06-.51.19-.96.33-.58.8-.12.57.55 1.22.11.85-.59.75.44-.11 1.23.71 2.13.34.38.05.79l-.29.41q-.5.7.27.31.99-.5.71-1.46a1.18 1.16-42.6 0 1 .04-.81q.63-1.57 1.67-2.51.31-.28.23-.7l-.48-2.43q-.12-.61-.69-.35-.18.08-.31.25-.2.25-.48.09-.13-.07-.19-.2-.13-.25-.01-.5.53-1.12 1.03-2.27a1.3 1.28-82.8 0 1 .95-.75q1.02-.18.95-1.21-.01-.3.24-.46.3-.21.62.14a.48.46-64.7 0 1 .11.33q-.04.9.74 1.1.57.14.87-.35.19-.3.21-.64a.54.54 0 0 1 .74-.46q1.13.46 2.43-.51.41-.31.34-.81-.27-1.95.91-3.77a.51.51 0 0 1 .88.03c1.16 2.12 2.88 4.01 3.32 6.43q.59 3.24.21 6.74-.05.47.24.84l.43.56q.28.37.13.8l-.8 2.37q-.17.53.3.24.96-.59 2.38-.13.55.18.59.77l.12 2.28a.74.74 0 0 0 .73.7h.46q.84.01.72-.82-.1-.73-.54-1.33-.47-.65.24-1.03l1.81-.97a1.04 1.04 0 0 0 .21-1.69q-.95-.86-2.06-1.33-.46-.19-.59-.67-.49-1.92 1.37-2.26a.65.65 0 0 0 .53-.59l.12-1.49q.06-.82.78-.42 1.12.61 1.15 1.99 0 .08.04.15.14.2.39.21a.37.37 0 0 0 .36-.3l.26-1.33q.11-.58.64-.83.77-.37 1.37-.96.36-.36.44-.86l.61-3.64q.25-1.53.9-.12.28.62.29 1.31.02.6.56.36.42-.18.83-.02c.93.39 1.48 2.2 2.57 2.96q.27.19.3.53l.03.49q.04.54.4.96 1.05 1.22.69 2.82a1.4 1.4 0 0 0 .3 1.21q1.82 2.13.17 4.58a.69.69 0 0 0 .31 1.02l.27.11q.81.33 1.13-.48.56-1.47 2.45-2.21.43-.16.62.26l1.31 3.05q.38.87.66-.04l.38-1.26q.24-.78.05-1.57l-.77-3.15q-.11-.47.19-.86l.79-1.02q.22-.28-.08-.48-1.48-1.02-2.91-.68-.63.16-.57-.49.26-2.67 1.22-5.27a1.2 1.19-86.7 0 1 .84-.75l.81-.2q.58-.14.48-.73-.22-1.29.36-2.6.25-.56.14-1.16l-.8-4.34q-.13-.66.54-.76.2-.04.38.09a.41.41 0 0 0 .62-.14q.77-1.48 2.81-1.13 2.99.52 4.05 2.12.3.46.42-.08.25-1.12 1.44-1.02.63.05.69.68l.13 1.53q.06.66.61.29l.39-.27a.76.76 0 0 0 .33-.73q-.31-2.15.31-4.49.13-.48.58-.7 1.65-.85 2.27-2.78.26-.82-.36-.23l-1.32 1.25q-.41.38-.64-.12l-1.45-3.03q-.45-.92-.68.08-.24.99-.71 1.84-1.66 2.95-2.31-.37l-1.22-6.14q-.09-.46-.52-.65-.81-.35-1.7-.34-.88.01-.3-.65l.68-.76a1.39 1.36 66.3 0 0 .35-.92c.02-2.19 1.37-3.58 2.44-5.35 1.03-1.7.2-3.73.11-5.56q-.02-.56-.53-.33l-2.11.96q-.35.16-.3.55.1.77.68 1.4.1.11.07.26-.04.16-.16.26-.36.3-.76.05-1.67-1.07-3.21-.26-.65.35-.56-.38.29-2.52-.73-4.95a.22.22 0 0 1 .15-.3q.15-.03.19-.18.28-1.12-.58-.35-.64.57-1.44.64a.37.36 68.3 0 0-.25.59q1.11 1.42-.06 2.59c-.62.62-1.77.71-2.6.86q-.54.1-.63.64-.46 2.87.81 5.23a.66.66 0 0 1-.57.97q-1.34.03-2.64.69a.41.41 0 0 1-.6-.36q0-2.33-2.26-3.37-.64-.3-.72-1-.2-1.76.5-3.35.27-.62-.11-1.17-1.35-1.97-1.75-4.21-.08-.45-.54-.52-1.6-.24-1.88-2.14-.08-.55.38-.86l6.17-4.3a.5.5 0 0 0-.13-.88c-2.84-.92-1.91-3.66-.63-5.35a1.37 1.35-34.8 0 0 .22-1.18c-.38-1.39.72-3.02.61-4.64q-.04-.67-.71-.76-3.01-.38-3.12-3.24c2.43 1.23 7.64 4.94 9.52 1.37q1.15-2.2 2.59-4.25l3.23 1.88q.43.25.56.72.31 1.11 1.29 1.74.6.38.64-.33l.11-2.56a.94.9-24.3 0 1 .21-.52q.27-.31.6-.36.84-.13.46-.88-.49-.98-.4-2.07c2.31-.03 4.31 1.62 7.07 1.38q1.8-.16 3.53-.92 6.09-2.67 13.54-1.84a9.92 9.92 0 0 0 5.95-1.23 3.39 3.38 49.3 0 1 3.79.29q2.1 1.66 5.92 2.42"/><path fill="#570b90" d="M180.94 70.03q-.09 1.09.4 2.07.38.75-.46.88-.33.05-.6.36a.94.9-24.3 0 0-.21.52l-.11 2.56q-.04.71-.64.33-.98-.63-1.29-1.74-.13-.47-.56-.72l-3.23-1.88q2.52-3.34 6.7-2.38M220.74 70.13l10.31 3.18-1.37 4.02q-1.03 3.04 1.96 1.89.66-.26 1.43-.24.73.02.44.69l-.21.5q-.21.48-.04.98.59 1.65 1.42 3.3.82 1.62-.86.95-.54-.22-1.02.13a.65.65 0 0 1-.72.04l-.22-.13q-.97-.56-.45.44.08.16.16.31.19.36-.05.69-2.18 3.03-.01 6.27.53.79-.41.83-1.29.06-2.42.57-1.06.47-.58-.58l.35-.77q.25-.55.05-1.13l-1.56-4.56q-.27-.77-1.03-.49-1.03.37-2.08.37-.52 0-.87.39l-3.25 3.68q-.87.98-.74-.32.44-4.64 3-9.84a.67.67 0 0 0-.26-.88l-2.06-1.23a.78.78 0 0 1-.3-1.04l.13-.23q.54-1.02-.59-.8-.66.13-1.25.53a.37.36-21.9 0 1-.57-.24q-.57-3.53 2-4.52.54-.21.43-.78-.23-1.3 1.24-1.98M242.63 72.04q-.22.49-1.06.79-.72.26-.29.91.32.48.58 1.07.18.4.03.81-.02.06-.08.09-.29.14-.52-.06-1.44-1.22-1.7-3.64zM162.13 75.29q.11 2.86 3.12 3.24.67.09.71.76c.11 1.62-.99 3.25-.61 4.64a1.37 1.35-34.8 0 1-.22 1.18c-1.28 1.69-2.21 4.43.63 5.35a.5.5 0 0 1 .13.88l-6.17 4.3q-.46.31-.38.86.28 1.9 1.88 2.14.46.07.54.52.4 2.24 1.75 4.21.38.55.11 1.17-.7 1.59-.5 3.35.08.7.72 1 2.26 1.04 2.26 3.37a.41.41 0 0 0 .6.36q1.3-.66 2.64-.69a.66.66 0 0 0 .57-.97q-1.27-2.36-.81-5.23.09-.54.63-.64c.83-.15 1.98-.24 2.6-.86q1.17-1.17.06-2.59a.37.36 68.3 0 1 .25-.59q.8-.07 1.44-.64.86-.77.58.35-.04.15-.19.18a.22.22 0 0 0-.15.3q1.02 2.43.73 4.95-.09.73.56.38 1.54-.81 3.21.26.4.25.76-.05.12-.1.16-.26.03-.15-.07-.26-.58-.63-.68-1.4-.05-.39.3-.55l2.11-.96q.51-.23.53.33c.09 1.83.92 3.86-.11 5.56-1.07 1.77-2.42 3.16-2.44 5.35a1.39 1.36 66.3 0 1-.35.92l-.68.76q-.58.66.3.65.89-.01 1.7.34.43.19.52.65l1.22 6.14q.65 3.32 2.31.37.47-.85.71-1.84.23-1 .68-.08l1.45 3.03q.23.5.64.12l1.32-1.25q.62-.59.36.23-.62 1.93-2.27 2.78-.45.22-.58.7-.62 2.34-.31 4.49a.76.76 0 0 1-.33.73l-.39.27q-.55.37-.61-.29l-.13-1.53q-.06-.63-.69-.68-1.19-.1-1.44 1.02-.12.54-.42.08-1.06-1.6-4.05-2.12-2.04-.35-2.81 1.13a.41.41 0 0 1-.62.14q-.18-.13-.38-.09-.67.1-.54.76l.8 4.34q.11.6-.14 1.16-.58 1.31-.36 2.6.1.59-.48.73l-.81.2a1.2 1.19-86.7 0 0-.84.75q-.96 2.6-1.22 5.27-.06.65.57.49 1.43-.34 2.91.68.3.2.08.48l-.79 1.02q-.3.39-.19.86l.77 3.15q.19.79-.05 1.57l-.38 1.26q-.28.91-.66.04l-1.31-3.05q-.19-.42-.62-.26-1.89.74-2.45 2.21-.32.81-1.13.48l-.27-.11a.69.69 0 0 1-.31-1.02q1.65-2.45-.17-4.58a1.4 1.4 0 0 1-.3-1.21q.36-1.6-.69-2.82-.36-.42-.4-.96l-.03-.49q-.03-.34-.3-.53c-1.09-.76-1.64-2.57-2.57-2.96q-.41-.16-.83.02-.54.24-.56-.36-.01-.69-.29-1.31-.65-1.41-.9.12l-.61 3.64q-.08.5-.44.86-.6.59-1.37.96-.53.25-.64.83l-.26 1.33a.37.37 0 0 1-.36.3q-.25-.01-.39-.21-.04-.07-.04-.15-.03-1.38-1.15-1.99-.72-.4-.78.42l-.12 1.49a.65.65 0 0 1-.53.59q-1.86.34-1.37 2.26.13.48.59.67 1.11.47 2.06 1.33a1.04 1.04 0 0 1-.21 1.69l-1.81.97q-.71.38-.24 1.03.44.6.54 1.33.12.83-.72.82h-.46a.74.74 0 0 1-.73-.7l-.12-2.28q-.04-.59-.59-.77-1.42-.46-2.38.13-.47.29-.3-.24l.8-2.37q.15-.43-.13-.8l-.43-.56q-.29-.37-.24-.84.38-3.5-.21-6.74c-.44-2.42-2.16-4.31-3.32-6.43a.51.51 0 0 0-.88-.03q-1.18 1.82-.91 3.77.07.5-.34.81-1.3.97-2.43.51a.54.54 0 0 0-.74.46q-.02.34-.21.64-.3.49-.87.35-.78-.2-.74-1.1a.48.46-64.7 0 0-.11-.33q-.32-.35-.62-.14-.25.16-.24.46.07 1.03-.95 1.21a1.3 1.28-82.8 0 0-.95.75q-.5 1.15-1.03 2.27-.12.25.01.5.06.13.19.2.28.16.48-.09.13-.17.31-.25.57-.26.69.35l.48 2.43q.08.42-.23.7-1.04.94-1.67 2.51a1.18 1.16-42.6 0 0-.04.81q.28.96-.71 1.46-.77.39-.27-.31l.29-.41q.29-.41-.05-.79-.82-.9-.71-2.13.1-1.03-.75-.44-.65.44-1.22-.11-.47-.46-.8.12-.25.45-.19.96.02.23-.21.23l-.38.01q-.19.01-.19-.18c.01-2.18 1.77-4.66-.38-5.93q-.5-.3-.04-.66 1.78-1.43-.06-2.82-.68-.51-.44-1.32.32-1.07 1.19-1.82.47-.4.09-.89-.6-.79-1.54-1.24-.4-.2-.32-.62.33-2-.99-3.8-.46-.62-.71.11-.12.34.05.71a.27.26 81.1 0 1-.27.38l-.35-.04q-.14-.01-.14-.15.07-3.33-1.34-6.08a.5.5 0 0 0-.86-.05q-1.17 1.75-2.46 3.79-1.41 2.25.83 3.17.54.22-.01.44-1.3.52-2.3 1.6-.5.54-1.1.13-.13-.09-.28-.12-.55-.09-.91.32-1.17 1.3-.1 2.79.3.43-.23.47l-.59.05a.5.49-11.1 0 1-.51-.34q-.78-2.27-2.79-3.48a.31.31 0 0 0-.47.3q.24 2.64-1.49 4.99a.5.5 0 0 1-.79.03q-.28-.32-.59.14a.54.53-27.7 0 0-.1.31l-.16 4.35a.49.49 0 0 0 .78.41q.54-.4 1.13-.56.64-.17.87.45.32.88 1.16 1.27 2.42 1.14-.04 2.18c-.77.33-1.38.77-1.49 1.67q-.28 2.35.49 4.48.23.62-.41.46-2.04-.49-2.61-1.95-.19-.49-.64-.24-1.13.6-2.3.73-.58.07-.84.58l-.31.62q-.29.57-.76.13-.28-.28-.39-.65-.11-.35-.01-.69.55-1.89.44-3.96-.03-.52-.43-.84-1.53-1.23-3.12-.74-.59.18-.4-.4l1.44-4.44q.13-.41-.21-.66-1.4-.99-2.8-.49-.48.17-.54-.34-.22-1.83 1.18-2.98 1.97-1.6-.39-2.46-.64-.24-.83-.92-.38-1.42-.85-.03-.36 1.06-1.31 1.78a.5.5 0 0 1-.8-.43c.16-2.62 1.48-4.93.97-7.55q-.21-1.13-1.21-.57-1.79 1-3.94.94-.77-.02-.37.64.65 1.06.67 2.4a.6.6 0 0 1-.99.47q-.58-.48-1.35-.65-.38-.09-.28-.47.73-2.61-.79-5.22-.45-.76-.1-1.52.32-.68-.44-.65-.69.02-1.28.39-.75.47-.82-.41-.19-2.07-1.07-2.39c2.86-5.26 4.8-10.39 10.42-13.86q2.6-1.6 7.02-2.63 13.79-3.22 25.34-6.38c11.27-3.09 20.73-8.27 23.54-20.35q.44-1.91.85-3.75a1.54 1.47 76.9 0 1 .48-.81q5.31-4.64 11.51-.6M294.98 107.05q-.2 1.3.22 2.35.19.48.71.47 1.49-.02 1.62-1.76c3.05.95 4.89 2.29 4.34 5.83-1.25.47-1.89 1.41-1.61 2.81q.63 3.05 2.29 4.99.28.77.09 2.31l-.04.66-.49 2.29-1.7-2.92q-.25-.43-.68-.69-1.91-1.12-4.13-1.06-.54.02-.57.56l-.17 3.21a.52.52 0 0 1-.6.48q-.25-.03-.45-.17-.28-.21-.48.09-1.35 2.04.01 3.48.37.4.09.86l-.58.91a1.73 1.72-35.1 0 0-.23 1.29l.27 1.23q.22 1-.63.43-1.16-.79-1.49-2.03a.89.89 0 0 0-1.48-.42q-.26.24-.6.32-.55.13-.16-.28.14-.15.29-.3.13-.13.14-.32.14-4.1-.4-8.28a.67.66 5.6 0 0-.46-.55q-.16-.05-.31-.09-.86-.25-.12-.74.13-.09.18-.26.09-.37-.21-.6-.37-.28-.81-.13c-.6.21-.78.82-.96 1.36q-.22.63-.88.59-1.51-.08-2.88-.77-.65-.33-.87.37-.38 1.17.13 2.4a.76.75-25.1 0 1-.35.95q-.68.36-.99 1.07-.77 1.71-.98-.15-.18-1.59-1.3-2.59-.37-.33-.27-.82.46-2.17 1.49-3.9 1.56-2.62.15-6.75-.17-.49-.67-.63-.67-.17-1.29.23-.46.29-.97.1l-.44-.17q-.51-.19-.93.16-.46.39-.68-.18-.56-1.46-2.19-1.3-.65.07-.49.7.31 1.22-.51 2.3l-1.04.65q-.55.33-.78-.27-.47-1.21-1.39-2.14-.41-.42-.23-.99l3-9.45q.16-.5-.18-.91l-.42-.52q-.26-.31-.22-.71l.39-4.09q.06-.65-.55-.41-1.89.76-2.89 2.19-.39.55-.78-.01-.83-1.23-2.13-.8a.47.47 0 0 1-.6-.37l-.2-1.3q-.09-.56-.64-.71-3.27-.84-5.12 2.45-.03.06.01.1.08.1.21.15.1.05.19-.02.33-.26.72-.41.62-.24.63.42l.03 3.42q.01.69-.6.36l-.29-.16q-.62-.35-1.15.12-.82.74-.32 1.69.32.61-.36.73-.51.09-.88-.22-.31-.25-.32-.66-.03-1.38-.05-2.8-.01-.62-.48-1.01-1.54-1.26-3.14-.7-.32.11-.34-.23l-.02-.31a.7.69-15.9 0 1 .36-.64l1.89-1.04a1.35 1.35 0 0 0 .47-1.94q-.67-1-1.51-1.93-.57-.63.09-1.12.69-.5 1.65-.39.99.12.59-.79l-1.06-2.44q-.19-.45.28-.61.84-.27 1.53-.89.47-.42.24-1.01l-1-2.48q-.19-.46.11-.86l.71-.98q3.57 1.91 7.57 2.64 8.23 1.49 16.81 2.94c2.43.41 4.39 2.17 4.27 4.73q-.21 4.36 1.01 8.71c1.47 5.24 5.56 6.23 9.96 8.08"/><path d="M297.53 108.11q-.13 1.74-1.62 1.76-.52.01-.71-.47-.42-1.05-.22-2.35 1.36.26 2.55 1.06"/><path fill="#570b90" d="M270.95 113.99q.41-.03.65.12.29.18.26.36a.31.31 0 0 1-.5.19q-.28-.23-.41-.67"/><path d="M301.87 113.94q1.23 3.77.68 7.8-1.66-1.94-2.29-4.99c-.28-1.4.36-2.34 1.61-2.81M302.64 124.05l-.04.66z"/><path fill="#570b90" d="M79.33 145.01q-1.55-2.61-1.53-4.76.03-3 .03-6.01 0-2.18 1.04-3.96 1.28-2.2 2.72-4.3l.74 1.89q.18.45.03.91-.99 2.95-2.73 5.21-.3.39-.13.84.61 1.64.54 3.5-.02.37.34.48.14.04.27-.02.27-.1.32-.38.11-.58.46-1.06.26-.37.71-.3.14.03.25.11.29.24.1.56l-.35.6a.44.44 0 0 0 .31.65l.63.11a.48.48 0 0 1 .38.57q-1.03 5.02-4.13 5.36M289.33 253.57q-.65 5.91.59 12.45.83 4.31-3.18 6.43-9.86 5.19-19.14 11.57c-15.7 10.8-30.78 20.13-48.31 26.22l1.27-3.42q.21-.56-.24-.97l-1.67-1.48q-.35-.31-.37.16-.01.44.42.5a.34.34 0 0 1 .18.58q-.16.16-.34.02-1.78-1.33-1.46-2.64.5-2.02.62-4.25a2 1.94-27.9 0 1 .3-.93q1.18-1.86.92-4.04a.87.87 0 0 0-.73-.75q-.76-.11-1.11-.73-.25-.44.17-.74l6.13-4.29a.81.81 0 0 0 .25-1.03l-.76-1.51a.65.65 0 0 0-.97-.23q-.12.09-.25.14-.62.2-.58-.45.16-2.56-1.43-4.21-.42-.44-.24-1.03.61-1.9.47-3.85-.05-.65-.64-.94-2.34-1.14-2.35-3.48a.4.4 0 0 0-.6-.35q-1.27.72-2.61.75a.63.63 0 0 0-.54.93q1.26 2.41.76 5.4-.08.44-.52.54c-.78.17-1.5 0-2.2.51q-1.52 1.11-.65 2.9.24.48-.29.55-.74.09-1.31.61-.33.31-.39-.14l-.76-5.69a.38.38 0 0 0-.58-.27q-1.21.77-2.69-.05-1.49-.82-.85.75l.3.73a.75.75 0 0 1-.38.96l-2.05.92q-.55.25-.52-.36.06-1.83-.46-3.44-.16-.48.06-.94c.91-1.85 3.15-4.49 2.84-6.54a.72.71 65 0 1 .22-.62l.7-.66q.88-.83-.31-.99l-1.2-.16q-.55-.08-.71-.61-.68-2.23-.38-4.79l3.89-6.7 1.53-1.86q.35-.41.89-.41.2 0 .4-.07.56-.2.54-.79-.07-1.85-.73-3.53-.21-.54-.04-1.1.51-1.64.41-3.37-.04-.62.59-.61.36.01.71-.11.44-.16.65-.59 1.39-2.85 1.3-5.68-.02-.6-.58-.39-1.36.53-2.59-.57-.46-.41-.07-.88l.68-.81q.34-.41.13-.89-1.37-3.05-.43-5.64.35-1 .8-.04l1.21 2.63q.25.54.81.37 1.89-.57 2.54-2.31a.49.47 18.2 0 1 .6-.29l.32.1a.71.7-68.4 0 1 .42.99q-1.24 2.45.28 4.68a1.72 1.71 29.3 0 1 .3 1.06q-.09 1.75.99 3.27a1.48 1.46-63 0 1 .27.85q0 .13-.02.27-.01.14.08.25l2.06 2.48q.42.52 1.09.55 1.43.08 1.27 1.98-.01.21.17.31l.3.17q.36.19.42-.21l.64-4.33q.08-.5.45-.82.56-.49 1.28-.76.58-.22.65-.83l.19-1.47q.04-.33.37-.32.17.01.28.13c.39.42.28 1.4.98 2.04q1.21 1.11 1.1-.53-.12-1.57 1.34-1.92a1.01 1-88.9 0 0 .72-.7q.21-.73-.07-1.48-.15-.41-.57-.55-1.27-.42-2.14-1.55a1 1 0 0 1 .49-1.56q1.05-.32 1.88-1 .46-.38.11-.86l-.4-.53q-.32-.44-.15-.95.19-.58 1-.65a.69.69 0 0 1 .71.5q.35 1.2.27 2.5-.04.78.73.83l1.52.09q.58.04.59.62.01.79-.28 1.48-.22.53.12 1 .62.82.51 1.75-.84 7.26 3.76 12.72.44.53.83-.04 1.44-2.13.61-3.86-.16-.33.15-.52 1.43-.88 2.81-.66a.49.49 0 0 0 .54-.29l.27-.63q.27-.63.95-.5.84.16.88 1.07.04.89.73.34.23-.18.16-.49a.5.5 0 0 1 .3-.58q1.98-.79 2.44-3.24.25-1.34-.81-.48-.19.15-.42.07-.43-.14-.39-.59.12-1.24-.53-2.42a.25.25 0 0 1 .07-.32q1.43-1.03 2.1-3.12.11-.33-.18-.54-.26-.19-.14-.51.24-.59.81-.85.63-.3.4.36-.08.23-.27.38-.45.37 0 .74.91.73.78 2.15-.11 1.11.78.43.68-.52 1.24.08a.48.47-52.9 0 0 .77-.11q.2-.39.23-.83.01-.18.19-.2l.28-.04q.32-.04.32.28c.05 1.97-1.83 4.18.21 5.65q.38.28.09.64-.45.56-.63 1.21-.16.59.24 1.05.7.81.85 1.81.08.52-.22.95l-.88 1.26q-.34.48.08.89.5.48 1.11.79.38.19.59.54.17.28-.01.55-.31.48-.1 1.01l.94 2.4q.23.56.67.15.27-.25.15-.67-.17-.55.4-.48.2.02.21.22.23 3.12 1.52 6.03a.51.5 48.8 0 0 .89.06l2.82-4.59a1.52 1.51 22.2 0 0-.96-2.27q-.21-.05-.42-.06-.48-.03-.09-.3l2.7-1.86a1.26 1.26 0 0 1 1.04-.18q.38.11.78.02.26-.06.45-.23 1.24-1.12-.01-2.64a.36.35-26 0 1 .2-.57l.58-.13a.31.3-18 0 1 .34.17q.94 2.16 2.71 3.62a.43.43 0 0 0 .7-.33q-.03-2.48 1.32-4.7.25-.42.72-.27l.39.12q.62.21.64-.45l.12-4.28q.02-.94-.75-.4-.57.39-1.24.56-.77.18-.97-.58-.22-.81-.94-1.22-1.91-1.07-.01-2.17l.93-.54q.54-.32.47-.94-.13-1.13.25-2.2.19-.52-.07-1.01l-.67-1.31q-.36-.69.41-.55 1.84.35 2.64 1.66.24.39.68.28l2.36-.55q.59-.13.84-.68l.29-.62q.23-.49.67-.16.27.2.4.52.17.39.05.79-.59 2.03-.36 4.44.05.56.56.79l1.43.62q.59.26 1.14-.08.19-.12.41-.06.42.12.28.53l-1.45 4.47q-.13.4.23.6 1.37.76 2.75.37.56-.16.63.42.2 1.75-1.14 2.85-2.05 1.68.41 2.59.52.2.68.74.5 1.72 1.04.01.34-1.06 1.25-1.57.57-.32.68.33.32 1.82-.51 3.43c-.64 1.28-.77 4.8.89 5.43"/><path d="M201.76 260.61q-.3 2.56.38 4.79.16.53.71.61l1.2.16q1.19.16.31.99l-.7.66a.72.71 65 0 0-.22.62c.31 2.05-1.93 4.69-2.84 6.54q-.22.46-.06.94.52 1.61.46 3.44-.03.61.52.36l2.05-.92a.75.75 0 0 0 .38-.96l-.3-.73q-.64-1.57.85-.75 1.48.82 2.69.05a.38.38 0 0 1 .58.27l.76 5.69q.06.45.39.14.57-.52 1.31-.61.53-.07.29-.55-.87-1.79.65-2.9c.7-.51 1.42-.34 2.2-.51q.44-.1.52-.54.5-2.99-.76-5.4a.63.63 0 0 1 .54-.93q1.34-.03 2.61-.75a.4.4 0 0 1 .6.35q.01 2.34 2.35 3.48.59.29.64.94.14 1.95-.47 3.85-.18.59.24 1.03 1.59 1.65 1.43 4.21-.04.65.58.45.13-.05.25-.14a.65.65 0 0 1 .97.23l.76 1.51a.81.81 0 0 1-.25 1.03l-6.13 4.29q-.42.3-.17.74.35.62 1.11.73a.87.87 0 0 1 .73.75q.26 2.18-.92 4.04a2 1.94-27.9 0 0-.3.93q-.12 2.23-.62 4.25-.32 1.31 1.46 2.64.18.14.34-.02a.34.34 0 0 0-.18-.58q-.43-.06-.42-.5.02-.47.37-.16l1.67 1.48q.45.41.24.97l-1.27 3.42-7.44 2.1q-2.43-.09-2.93-1.45-.23-.63-.86-.85-2.83-1-4.12-3.67-.13-.27-.42-.3-.15-.02-.29.1-.2.18-.18.44.2 2.34-1.12 3.66-.27.27-.2.64l.41 2.24q.11.61.71.7.65.09 1.17-.31.44-.35.87.02.51.47.73 1.28h-11.64q-.49 0-.77-.42-1.58-2.39-2.64-4.61-1.16-2.41 0-6.15 5.78-18.72 7.68-37.36.17-1.73 3.51-5.69m9.34 50.93q.02.47.36.14.41-.42.31-1.03-.08-.5-.38-.09-.31.42-.29.98"/><path fill="#570b90" d="m211.85 312.34-6.23 2.5q-.22-.81-.73-1.28-.43-.37-.87-.02-.52.4-1.17.31-.6-.09-.71-.7l-.41-2.24q-.07-.37.2-.64 1.32-1.32 1.12-3.66-.02-.26.18-.44.14-.12.29-.1.29.03.42.3 1.29 2.67 4.12 3.67.63.22.86.85.5 1.36 2.93 1.45"/><path fill="#570b90" d="M211.1 311.54q-.02-.56.29-.98.3-.41.38.09.1.61-.31 1.03-.34.33-.36-.14"/></svg>