<svg xmlns="http://www.w3.org/2000/svg" viewBox="0 0 382 382"><g fill="none" stroke="#790d12" stroke-width="2"><path d="M221.72 70.42q-1.34.56-1.94 1.97-.21.5-.61.87-1.97 1.82-2.94 4.22-.18.46.31.55l.48.08a.73.72-77.1 0 0 .82-.52l.15-.54q.47-1.66 1.4-.2.62.97.67 2.17.03.72.72.51.13-.04.25-.12a.64.64 0 0 1 1.02.53q-.05 3.49-1.33 6.65-.16.39-.57.5l-.46.14q-1.19.35.12.68 1.19.29 1.4 1.46a.71.7-8.1 0 0 .78.58q.53-.06.85-.46.45-.56-.04-1.09-.38-.4-.52-.89-.22-.79.53-.47l1.97.84q.53.22.77-.31l.47-1.05q.34-.77.93-.18c1 .99 2.06 1.9 2.15 3.43q.11 1.68 2.14 2.81.52.28.65-.29.47-2.01-1.15-2.39a.55.55 0 0 1-.15-1.01q2.02-1.17.89-3.03a.79.78 43.7 0 1-.02-.79q.4-.72 1.15-.97.38-.13.76.07.32.17.64.33 1.58.78.92-.85-.35-.87-1.24-1.51-.78-.55-.53-1.41.18-.63.59-1.21.73-1.02-.52-.98l-2.76.07q-.46.01-.48-.45-.08-2.45 1.07-4.85M240.28 72.02q-.49 1.68.13 2.69a.73.73 0 0 0 1.33-.19q.39-1.41 1.44-2.45M244.24 72.15q-.23.6-.17 1.06.07.51.54.29 1.05-.49 2.75.1M255.44 80.01q-.63.49-.94 1.13-.28.56.32.73l.44.12a.58.58 0 0 1 .41.7c-.24 1-.08 1.64-.58 2.61-1.13 2.2-2.53 5.98-1.32 8.47q.26.53-.2.91-.22.18-.51.26-.68.18-.9.85-.23.71-.07 1.41.2.85.77.19.2-.23.48-.18.34.06.49.37 1.13 2.4 1.36 4.83a.76.76 0 0 0 .55.66q.31.08.63-.03.37-.13.25-.5-.82-2.44 2.54-2.67.59-.04.41-.61-.62-1.96-1.35-3.86-.18-.5-.01-.99.24-.67.81-1.05.5-.33.83.16.2.3.21.66.03.75.69.41l.83-.44a.83.82-18.9 0 1 1.19.58l.23 1.29q.1.57.67.41 1.26-.38 2.12.77a2.05 1.5-8.1 0 0 1.27.68q.19.03.35-.06a.44.44 0 0 0 .11-.65q-.17-.22-.25-.47-.2-.63.45-.62l1.44.01q.51.01.71.48 1.52 3.62.36 6.53-.12.3.04.57l.2.33a.54.54 0 0 1-.32.8q-.26.07-.44.27a2.02 1.98-23.1 0 0-.52 1.26q-.13 2.89-1.66 4.96-.27.38.01.74.77 1.01 1.93 1.09a.35.34 23.8 0 1 .23.58q-.5.55-.7 1.26a.55.55 0 0 0 .82.62q2.64-1.66 1.61-3.81-.25-.51.13-.93.27-.3.62-.43.47-.16.91.09 1.85 1.06 3.49 2.29.45.35.93.06.99-.58 1.81-1.79.07-.1.17-.04l.23.14q.31.2.09.5-.9 1.2-.24 2.52.23.48.14 1.01-.43 2.3-.21 4.39.02.18-.05.35-.08.2-.27.28a.54.54 0 0 0-.3.7q.44 1.15-.24 2.16-.48.71.38.82.19.02.34.14a1.45 1.36-71.8 0 1 .53 1.14q-.03 1.33.3 2.45.06.22.27.28a.37.37 0 0 0 .48-.36q-.04-1.52.71-2.98.29-.57.1-1.17-.05-.17-.18-.3-.74-.72.27-.94.65-.15 1.16-.61a.76.74-49.6 0 1 .91-.08q1.74 1.09 3.01-1.05a.57.57 0 0 1 1.02.08c.75 1.88 1.54 2.9 1.54 5.13q.01 2.26.73 4.54.16.49.62.73 1.47.79 2.56 2.03.04.05.09.01l.19-.18q.19-.18.02-.38-1.1-1.3-.07-2.9.29-.46.08-.95-.23-.53-.85-.52-.8.01-.33-.65.73-1.03.68-2.38-.01-.4.33-.62.23-.15.37.02.46.56.8-.07l2.07-3.79a.74.74 0 0 1 1.17-.17l3.32 3.33a.44.44 0 0 0 .74-.22l.48-2.18M289.25 253.85c-1.15-1.34-1.98-3.09-1.44-4.87q.39-1.31.63-2.58a.82.82 0 0 0-.89-.97q-1.52.16-2.95-.49-.41-.19-.51-.62-.47-1.87 1.21-3.17a.94.94 0 0 0 .09-1.4q-.68-.68-1.5-.21-.43.24-.73-.16-2-2.73-.33-5.06.87-1.21-.57-.85-1.16.29-2.82-.67-.43-.25-.42-.74 0-1.92.72-3.85.2-.52-.1-.99l-.63-.96q-.51-.78-.76.11-.36 1.21-1.41 1.72-.53.25-.8.78l-.35.72a.81.8 45.2 0 1-1.44-.01l-1.5-3.05q-.1-.2-.31-.12l-2.12.85a.22.22 0 0 0-.06.37q2.38 1.95 1.63 4.56-.16.56-.71.74-.58.2-1.02.63a.69.69 0 0 0-.05.93l1.53 1.87q.35.43-.08.76-.12.1-.2.25-.08.13-.01.26t.29.1q.3-.05.45-.31.31-.55.78-.86a1.3 1.3 0 0 1 1.98 1.36q-.77 3.55-3.33 6.1-.3.3-.12.68l.19.39q.66 1.38-.78.86-1.31-.47-1.89-2.01-.75-1.99-1.8-.13-.28.5-.25 1.1.03.55-.46.81-1.26.67-2.63 1.35-1.59.8-1.09 3.86a1.02.95-39.3 0 1-.07.53l-1.31 3.07q-1.27 2.96-2-.18-.52-2.17-.35-4.84a.25.25 0 0 0-.25-.27l-.43.01q-.27.01-.25.28.04.43-.14.82-.27.6-.8.21-.64-.48-1.4-.67-.78-.19-.57-.96.18-.68.66-1.23.45-.52.04-1.08l-1.22-1.69q-.31-.43-.29-.96.04-1.02.48-1.96" vector-effect="non-scaling-stroke"/><path d="M254.79 242.01q.87-.11.86-.65-.55-.23-.86.65M254.79 242.01q-1.02-.12-.51-1.78.47-1.56-.91-4.96-.2-.49.02-.96.59-1.25.48-2.71-.02-.21-.23-.22l-.26-.02q-.12 0-.24.23-.1.21-.08.44.06.88-.77.58-2.37-.84-2.43-3.12a.32.32 0 0 0-.45-.28q-1.46.67-.84 1.95.14.27-.01.53-.85 1.56-1.39 3.28-.49 1.6.9 2.09a1.49 1.49 0 0 1 .3 2.67l-2.75 1.73a.36.33-55.8 0 1-.21.05q-.64-.06-.59-.48.14-1.05-.68-.38-1.54 1.28-3.58 1.53a.74.74 0 0 0-.47 1.21q.61.71.86 1.6a.52.52 0 0 1-.35.63q-1.51.48-1.87 2.2-.02.08-.1.08-.14-.01-.28 0-.28.01-.28-.27l-.07-4.14a.36.35 75.3 0 0-.52-.31l-1.29.7a.74.73 73.6 0 1-1.08-.6q-.07-.89.56-1.55a.9.89-55 0 0-.25-1.42l-.51-.26q-.6-.3-.55-.96.17-2.32-.12-4.64-.08-.66-.41-1.2-.35-.58-.13-1.19c.4-1.07.3-2.51.2-3.59a.39.39 0 0 0-.67-.24l-1.26 1.25q-1.05 1.05-.88-.43.1-.87-.36-1.68a.8.79 60 0 0-1.1-.3q-.85.51-.65 1.64.38 2.15-1.31 2.69-.86.28.02.5 2.08.51 2.23 2.45c.13 1.68-1.4 2.33-1.91 3.79q-.19.55-.73.35-2.15-.76-4.69 1.36-.54.45-.14 1.02.99 1.41-.21 2.41-1.32 1.09-1.44-.67a.3.3 0 0 0-.53-.18q-.73.81-1.61.33-.59-.32-.94-1.01-.96-1.92-1.81-4.13-.39-1.05-.34-2.07.07-1.1-.86-1.8a1.39 1.36 17.8 0 1-.56-1.06l-.12-4.1q0-.19-.13-.32-.12-.12-.29-.11-.33.03-.39.36l-.29 1.48q-.09.48-.48.77-2.62 2-4.46-.07a.84.84 0 0 0-1.18-.08l-.27.24q-.43.38-.04.8 1.59 1.75 1.51 4.29-.02.75.45 1.25.77.82 1.8.19.61-.38.69.33.14 1.12-.09 2.34-.33 1.79-.39 3.25-.02.5-.51.62l-.98.23q-.66.16-.33.75l.13.22q.29.51.06 1.05l-1.26 3q-.23.56.34.76 1.31.48 1.11 1.86a1.23 1.23 0 0 1-.63.92q-2.11 1.14-2.94 2.35M79.53 145.74l.14-.89q.1-.56.67-.55.31 0 .6.11a.62.62 0 0 0 .79-.36l1.62-4.19q.19-.49.02-.99l-.45-1.35q-.04-.12-.15-.19-.2-.13-.34-.03-.41.28-.39.77.04.8-1.01.51a1.02 1.01 5.1 0 1-.73-.87q-.16-1.49-.84-2.96-.23-.51.21-.85l1.45-1.09q.28-.21.26-.56l-.03-.33a1 .99-25.2 0 1 .28-.76q2.19-2.27-.12-5.06M83.53 122.76q.61 2.39 2.82 3.54.44.23.65.67c1.06 2.21-.01 4.28 1.04 6.24q1.15 2.15 1.76-.21.29-1.14.74-2.04.59-1.17 1.67-.4.54.39 1.19.21.47-.13.87-.42a.52.51-25.9 0 1 .8.27c.28.92.68 1.62.36 2.61q-.54 1.67-1.02 3.19a.93.92-88.1 0 0 1.1 1.18q1.57-.37 3.18.6.41.25.4.73-.04 1.95-1.55 3.01-.51.35-.17.86.33.5.8.87.35.27.66-.03l.28-.25q.39-.36.69.08 1.86 2.78.36 5.27-.66 1.1.59.8 1.36-.32 2.84.67a1 1 0 0 1 .44.81c.03 1.99-1.54 4.1.03 5.69q.54.54.71-.2.26-1.14 1.34-1.55.76-.28.92-1.07.15-.73.84-.89.6-.14.87.42l1.42 2.89q.29.57.83.23.65-.4 1.41-.56.97-.2.19-.82-1.86-1.48-1.55-4.19a1.09 1.09 0 0 1 .59-.86l.99-.51a.7.69 61.7 0 0 .29-.97q-.56-.98-1.44-1.68-.58-.47 0-.93.21-.18.2-.49-.04-.67-.5-.18l-1.06 1.11a.92.91-56.4 0 1-1.02.21q-.41-.18-.69-.57-.36-.5-.23-1.1.8-3.6 3.13-5.75.59-.54.17-1.22-.18-.27-.21-.58a.55.55 0 0 1 .75-.56q1.66.68 2.12 2.36.14.5.58.77.33.2.69-.05.34-.25.42-.65l.3-1.44a.98.97 85.5 0 1 .59-.7c2.03-.8 4.46-1.99 3.55-4.71a1.03 1 48.1 0 1 .03-.74l1.81-4.34q.28-.68.85-.21c1.45 1.21 1.02 4.43 1.08 6.17q.02.92.71.3.32-.28.23-.71a.52.52 0 0 1 .75-.57l1.77.9a.75.74-64.5 0 1 .34.97l-.6 1.36q-.25.58.13 1.08l1.26 1.62q.37.48.15 1.05l-.26.65q-.18.45 0 .9.6 1.51.16 3.11-.14.5.03 1l.92 2.66q.21.61-.08 1.19-.64 1.28-.36 2.71.02.13.15.13h.3q.25.01.27-.24l.06-.73q.07-1.02.83-.33.66.59 1.52.75.71.14.65.86-.06.76.29 1.41.34.64.83.11.69-.72.34-1.6-.15-.38.06-.73.92-1.59 1.44-3.46c.24-.85-.17-1.65-1.08-1.8q-.63-.1-.72-.74l-.12-.96q-.1-.77.62-1.05 1.46-.58 2.55-1.67.68-.68.88.26.03.15.05.3.11.92.77.26 1.43-1.42 3.53-1.49a.73.73 0 0 0 .58-1.13l-.88-1.32q-.28-.42-.02-.85.3-.5.92-.48.64.02.81-.6l.23-.83q.05-.21.18-.38.22-.27.43-.15.26.15.27.45l.1 3.73a.48.48 0 0 0 .83.33q.65-.67 1.43-.53a.9.9 0 0 1 .49 1.51q-.55.57-.66 1.27-.1.6.45.86l.65.31q.48.23.47.76l-.03 4.69q-.01.56.35.99l.34.43q.31.38.11.84-.68 1.6-.34 3.41.23 1.2 1.05.29l.94-1.03q.73-.81.84.28l.16 1.54q.07.67.74.75.65.07.88-.55.43-1.19.33-2.54-.04-.56.44-.85.41-.24.9-.22.1 0 .18-.06.11-.11.09-.24-.07-.28-.34-.36-2.21-.68-2.24-2.93 0-.62.43-1.07 1.08-1.13 1.61-2.47.27-.66.83-.23l.43.32q.46.35.95.08l3.06-1.61q.66-.36.24-.98-1.11-1.62.43-2.97a.56.55 55.4 0 1 .86.16q.14.27.17.57.11 1 .89.36.35-.28.77-.35.58-.1.9.4l1.69 2.65q.32.5.23 1.09-.14.93.68 1.59.49.39.36 1.01-.09.44-.33.84a.75.74 30.3 0 0 .28 1.04l.65.35q.58.31.62.97l.29 4.61q.01.13.07.13h.27q.4 0 .4-.41-.05-2.59 2.99-3.18.54-.1.98.23l1.44 1.11a.67.66 40.3 0 0 .89-.07l.22-.23q.55-.59-.02-1.16-1.63-1.62-1.4-4.35.04-.49.44-.77.27-.19.43-.46.05-.09-.02-.17-.11-.12-.27-.18-.12-.04-.2.06l-.3.42q-.31.43-.72.09-.76-.62-1.62-.03-.56.38-.63-.29-.27-2.44.48-4.48.17-.45-.08-.86-.08-.15-.11-.31-.06-.48.41-.56l1.34-.22a.44.44 0 0 0 .32-.64l-.23-.46a1.07 1.06-47.7 0 1-.04-.88l1.32-3.27q.15-.37-.22-.5-1.57-.55-1.17-2.29.09-.37.4-.58l2.71-1.84a1.68 1.68 0 0 1 1.08-.28l5.23.39q.58.05 1.04.41l.67.52q.72.56.75-.35c.07-1.91-.4-4.8 1.39-6.12q.39-.29.54-.75.17-.53-.03-1.01-.09-.21-.31-.14l-.27.1q-.3.1-.22.4.18.64-.15 1.15-.39.6-.75-.01l-1.42-2.33q-.27-.44-.65-.1-.87.76-1.17 1.9-.33 1.29-.92.09-.64-1.3-.88-2.71c-.35-2.04.11-4.1-2.47-4.71q-.44-.1-.26-.52.66-1.56.79-3.23a1.86 1.84 67.4 0 1 .41-1.01q1.22-1.51 1.57-3.41.1-.56.63-.74l.47-.17q.95-.34-.02-.61-1.34-.37-1.25-1.93.11-1.86-1.23-.57-.9.86-.83 2.25a.94.93-80 0 1-1.3.92q-.78-.33-1.63-.24a1.76 1.76 0 0 1-1.94-1.83q.07-1.62-.68-2.98-.27-.5-.84-.5-.94 0-.49.84l.57 1.03q.3.55-.15.99-1.19 1.15-2.51.34-.55-.33-.82.25-1.48 3.21.8 5.84a.77.77 0 0 1-.56 1.27q-1.39.04-2.62.76-.6.35-.63-.35-.12-3.44-3.58-3.35-.66.02-.31-.55.93-1.52 1.12-3.71a1.31 1.29 30.9 0 0-.23-.88q-.45-.68-.47-1.46c-.04-1.76-1.34-3.6-2.55-4.75a.77.77 0 0 1-.19-.83q.25-.62.95-.74a1.09 1.07-78.8 0 0 .75-.51l.61-1.02q.38-.64 1-1.04l2.48-1.6q.69-.45.24-1.14-.36-.57-1.04-.7a.99.99 0 0 1-.74-.61q-.89-2.27.92-3.59.43-.32.2-.8-.11-.24-.13-.51-.05-.5.15-.96 1.07-2.5.3-5.34M174.7 71.84l1.51 2.45q.3.49.81.21.84-.46 1.87-.54.87-.07 1.11-.91.23-.84 1.09-1.11a.71.71 0 0 0 .47-.89l-.37-1.17M220.34 309.9q-.58-.44-.85-.93-.24-.47 0-.94.46-.89.55-1.88.14-1.51-1.05-.58l-.51.4q-.51.4-.9-.12-.69-.92-.53-2.08.35-2.37.79-4.92.07-.44.35-.78 1.1-1.33.79-3.22-.08-.49-.55-.68l-.89-.37a.99.99 0 0 1-.11-1.79q2.51-1.4 3.9-3.4.34-.49.9-.71.46-.18.7-.61a.79.78-54.2 0 0-.15-.97q-1.5-1.35-2.25-3.26-.19-.49-.08-1.01.21-1.02-.52-1.76a1.13 1.13 0 0 1-.31-.93q.26-2.19 1.04-3.75.27-.54-.34-.53-3.37.05-3.4-3.29-.01-.87-.73-.38-1.09.72-2.4.64a.78.77 72.9 0 0-.66 1.25q2 2.58.81 6.04a.49.49 0 0 1-.75.25q-1.59-1.11-2.76.32a.81.8-46.5 0 0 .02 1.05q.6.66.55 1.54-.04.72-.61.28-1.61-1.23-1.38-3.23a1.96 1.87 87.3 0 0-2.27-2.16q-.71.16-1.39-.15-1.33-.59-1.33.86 0 1.46-.92 2.35-1.08 1.03-.98-.46.11-1.59-1.28-2.12-1.05-.41.02-.74.16-.05.31-.1.35-.1.44-.45.53-2 1.75-3.7.32-.43.43-.96l.7-3.22q.09-.43-.33-.56c-1.46-.43-1.98-1.39-2.06-2.98q-.11-2.03-.69-3.88M294.59 106.91q.39 1.82 1.49 2.6.44.31.8-.09.44-.49.72-1.32M301.78 111.99l-1.16 1.97q-.25.43-.11.91c.56 2.01-.01 5.04 2.17 5.97M162.96 75.71q-.09.85.15 1.5.2.49.72.37.65-.16 1.33-.63M215.91 311.19q.21-.28.13-.4a.63.63 0 0 0-.82-.17q-.65.38-.37.87M212.02 312.19q-.01-.51-.43-.65a.47.45 30.3 0 0-.49.12l-1.17 1.22q-.54.56-.8-.17-.84-2.4-1.9-3.46a2.55 2.55 0 0 0-4.19.89q-.15.4-1.01.96-.43.27-.35.78.38 2.43 2.61 3.05M229.09 92.48q-.11.54.17 1.06a.38.38 0 0 0 .68-.01q.28-.56-.07-1.18a.42.42 0 0 0-.78.13" vector-effect="non-scaling-stroke"/><path d="M127.38 141.44q.14.52.42.06.09-.14.02-.29-.05-.1-.16-.11-.39-.04-.28.34M154.07 149.27q-.19.34.02.62.26.34.61-.01a.45.45 0 0 0 .13-.29q.03-.53-.46-.51a.37.36-76.4 0 0-.3.19M104.16 158.38q-.05.24.12.38a.36.36 0 0 0 .53-.08q.15-.2.03-.4a.37.37 0 0 0-.68.1M278.91 224.55a.35.35 0 0 0-.35-.35.35.35 0 0 0-.35.35.35.35 0 0 0 .35.35.35.35 0 0 0 .35-.35M228.98 233.677a.43.32 17.2 0 0-.315-.433.43.32 17.2 0 0-.506.179.43.32 17.2 0 0 .316.433.43.32 17.2 0 0 .506-.179M207.74 237.43q-.17-.08-.22.11-.03.11.09.12.14 0 .18-.14.02-.06-.05-.09" vector-effect="non-scaling-stroke"/></g><path d="M221.72 70.42q-1.34.56-1.94 1.97-.21.5-.61.87-1.97 1.82-2.94 4.22-.18.46.31.55l.48.08a.73.72-77.1 0 0 .82-.52l.15-.54q.47-1.66 1.4-.2.62.97.67 2.17.03.72.72.51.13-.04.25-.12a.64.64 0 0 1 1.02.53q-.05 3.49-1.33 6.65-.16.39-.57.5l-.46.14q-1.19.35.12.68 1.19.29 1.4 1.46a.71.7-8.1 0 0 .78.58q.53-.06.85-.46.45-.56-.04-1.09-.38-.4-.52-.89-.22-.79.53-.47l1.97.84q.53.22.77-.31l.47-1.05q.34-.77.93-.18c1 .99 2.06 1.9 2.15 3.43q.11 1.68 2.14 2.81.52.28.65-.29.47-2.01-1.15-2.39a.55.55 0 0 1-.15-1.01q2.02-1.17.89-3.03a.79.78 43.7 0 1-.02-.79q.4-.72 1.15-.97.38-.13.76.07.32.17.64.33 1.58.78.92-.85-.35-.87-1.24-1.51-.78-.55-.53-1.41.18-.63.59-1.21.73-1.02-.52-.98l-2.76.07q-.46.01-.48-.45-.08-2.45 1.07-4.85l9.22-1.29q-.49 1.68.13 2.69a.73.73 0 0 0 1.33-.19q.39-1.41 1.44-2.45l1.06.08q-.23.6-.17 1.06.07.51.54.29 1.05-.49 2.75.1l8.08 6.41q-.63.49-.94 1.13-.28.56.32.73l.44.12a.58.58 0 0 1 .41.7c-.24 1-.08 1.64-.58 2.61-1.13 2.2-2.53 5.98-1.32 8.47q.26.53-.2.91-.22.18-.51.26-.68.18-.9.85-.23.71-.07 1.41.2.85.77.19.2-.23.48-.18.34.06.49.37 1.13 2.4 1.36 4.83a.76.76 0 0 0 .55.66q.31.08.63-.03.37-.13.25-.5-.82-2.44 2.54-2.67.59-.04.41-.61-.62-1.96-1.35-3.86-.18-.5-.01-.99.24-.67.81-1.05.5-.33.83.16.2.3.21.66.03.75.69.41l.83-.44a.83.82-18.9 0 1 1.19.58l.23 1.29q.1.57.67.41 1.26-.38 2.12.77a2.05 1.5-8.1 0 0 1.27.68q.19.03.35-.06a.44.44 0 0 0 .11-.65q-.17-.22-.25-.47-.2-.63.45-.62l1.44.01q.51.01.71.48 1.52 3.62.36 6.53-.12.3.04.57l.2.33a.54.54 0 0 1-.32.8q-.26.07-.44.27a2.02 1.98-23.1 0 0-.52 1.26q-.13 2.89-1.66 4.96-.27.38.01.74.77 1.01 1.93 1.09a.35.34 23.8 0 1 .23.58q-.5.55-.7 1.26a.55.55 0 0 0 .82.62q2.64-1.66 1.61-3.81-.25-.51.13-.93.27-.3.62-.43.47-.16.91.09 1.85 1.06 3.49 2.29.45.35.93.06.99-.58 1.81-1.79.07-.1.17-.04l.23.14q.31.2.09.5-.9 1.2-.24 2.52.23.48.14 1.01-.43 2.3-.21 4.39.02.18-.05.35-.08.2-.27.28a.54.54 0 0 0-.3.7q.44 1.15-.24 2.16-.48.71.38.82.19.02.34.14a1.45 1.36-71.8 0 1 .53 1.14q-.03 1.33.3 2.45.06.22.27.28a.37.37 0 0 0 .48-.36q-.04-1.52.71-2.98.29-.57.1-1.17-.05-.17-.18-.3-.74-.72.27-.94.65-.15 1.16-.61a.76.74-49.6 0 1 .91-.08q1.74 1.09 3.01-1.05a.57.57 0 0 1 1.02.08c.75 1.88 1.54 2.9 1.54 5.13q.01 2.26.73 4.54.16.49.62.73 1.47.79 2.56 2.03.04.05.09.01l.19-.18q.19-.18.02-.38-1.1-1.3-.07-2.9.29-.46.08-.95-.23-.53-.85-.52-.8.01-.33-.65.73-1.03.68-2.38-.01-.4.33-.62.23-.15.37.02.46.56.8-.07l2.07-3.79a.74.74 0 0 1 1.17-.17l3.32 3.33a.44.44 0 0 0 .74-.22l.48-2.18q.36 1.36.15 2.86-.71 5.05-1.55 10.18c-.32 1.99 1.69 4.57 2.78 6.2q.34.51.33 1.13-.12 7.99.04 16.62.09 5.14-1 11.42-4.48 25.74-8.69 51.03-1.23 7.37-2.86 16.52-1.47 8.24-2.43 16.62c-1.15-1.34-1.98-3.09-1.44-4.87q.39-1.31.63-2.58a.82.82 0 0 0-.89-.97q-1.52.16-2.95-.49-.41-.19-.51-.62-.47-1.87 1.21-3.17a.94.94 0 0 0 .09-1.4q-.68-.68-1.5-.21-.43.24-.73-.16-2-2.73-.33-5.06.87-1.21-.57-.85-1.16.29-2.82-.67-.43-.25-.42-.74 0-1.92.72-3.85.2-.52-.1-.99l-.63-.96q-.51-.78-.76.11-.36 1.21-1.41 1.72-.53.25-.8.78l-.35.72a.81.8 45.2 0 1-1.44-.01l-1.5-3.05q-.1-.2-.31-.12l-2.12.85a.22.22 0 0 0-.06.37q2.38 1.95 1.63 4.56-.16.56-.71.74-.58.2-1.02.63a.69.69 0 0 0-.05.93l1.53 1.87q.35.43-.08.76-.12.1-.2.25-.08.13-.01.26t.29.1q.3-.05.45-.31.31-.55.78-.86a1.3 1.3 0 0 1 1.98 1.36q-.77 3.55-3.33 6.1-.3.3-.12.68l.19.39q.66 1.38-.78.86-1.31-.47-1.89-2.01-.75-1.99-1.8-.13-.28.5-.25 1.1.03.55-.46.81-1.26.67-2.63 1.35-1.59.8-1.09 3.86a1.02.95-39.3 0 1-.07.53l-1.31 3.07q-1.27 2.96-2-.18-.52-2.17-.35-4.84a.25.25 0 0 0-.25-.27l-.43.01q-.27.01-.25.28.04.43-.14.82-.27.6-.8.21-.64-.48-1.4-.67-.78-.19-.57-.96.18-.68.66-1.23.45-.52.04-1.08l-1.22-1.69q-.31-.43-.29-.96.04-1.02.48-1.96.87-.11.86-.65-.55-.23-.86.65-1.02-.12-.51-1.78.47-1.56-.91-4.96-.2-.49.02-.96.59-1.25.48-2.71-.02-.21-.23-.22l-.26-.02q-.12 0-.24.23-.1.21-.08.44.06.88-.77.58-2.37-.84-2.43-3.12a.32.32 0 0 0-.45-.28q-1.46.67-.84 1.95.14.27-.01.53-.85 1.56-1.39 3.28-.49 1.6.9 2.09a1.49 1.49 0 0 1 .3 2.67l-2.75 1.73a.36.33-55.8 0 1-.21.05q-.64-.06-.59-.48.14-1.05-.68-.38-1.54 1.28-3.58 1.53a.74.74 0 0 0-.47 1.21q.61.71.86 1.6a.52.52 0 0 1-.35.63q-1.51.48-1.87 2.2-.02.08-.1.08-.14-.01-.28 0-.28.01-.28-.27l-.07-4.14a.36.35 75.3 0 0-.52-.31l-1.29.7a.74.73 73.6 0 1-1.08-.6q-.07-.89.56-1.55a.9.89-55 0 0-.25-1.42l-.51-.26q-.6-.3-.55-.96.17-2.32-.12-4.64-.08-.66-.41-1.2-.35-.58-.13-1.19c.4-1.07.3-2.51.2-3.59a.39.39 0 0 0-.67-.24l-1.26 1.25q-1.05 1.05-.88-.43.1-.87-.36-1.68a.8.79 60 0 0-1.1-.3q-.85.51-.65 1.64.38 2.15-1.31 2.69-.86.28.02.5 2.08.51 2.23 2.45c.13 1.68-1.4 2.33-1.91 3.79q-.19.55-.73.35-2.15-.76-4.69 1.36-.54.45-.14 1.02.99 1.41-.21 2.41-1.32 1.09-1.44-.67a.3.3 0 0 0-.53-.18q-.73.81-1.61.33-.59-.32-.94-1.01-.96-1.92-1.81-4.13-.39-1.05-.34-2.07.07-1.1-.86-1.8a1.39 1.36 17.8 0 1-.56-1.06l-.12-4.1q0-.19-.13-.32-.12-.12-.29-.11-.33.03-.39.36l-.29 1.48q-.09.48-.48.77-2.62 2-4.46-.07a.84.84 0 0 0-1.18-.08l-.27.24q-.43.38-.04.8 1.59 1.75 1.51 4.29-.02.75.45 1.25.77.82 1.8.19.61-.38.69.33.14 1.12-.09 2.34-.33 1.79-.39 3.25-.02.5-.51.62l-.98.23q-.66.16-.33.75l.13.22q.29.51.06 1.05l-1.26 3q-.23.56.34.76 1.31.48 1.11 1.86a1.23 1.23 0 0 1-.63.92q-2.11 1.14-2.94 2.35-.11-12.87-1.76-26.3c-.73-5.94-2.45-11.4-7.63-14.75q-2.93-1.9-9.19-2.86c-7.56-1.16-14.75-1.39-22.42-1.15-3.28.1-6.86-1.29-9.56-3.49q-13.81-11.26-18.52-14.66-14.46-10.46-30.74-11.8-4.55-.37-7.98-1.36-13.27-3.85-16.36-17.28-.99-4.29-.44-10.17.13-1.4-1.33-5.51l.14-.89q.1-.56.67-.55.31 0 .6.11a.62.62 0 0 0 .79-.36l1.62-4.19q.19-.49.02-.99l-.45-1.35q-.04-.12-.15-.19-.2-.13-.34-.03-.41.28-.39.77.04.8-1.01.51a1.02 1.01 5.1 0 1-.73-.87q-.16-1.49-.84-2.96-.23-.51.21-.85l1.45-1.09q.28-.21.26-.56l-.03-.33a1 .99-25.2 0 1 .28-.76q2.19-2.27-.12-5.06l2.02-3.34q.61 2.39 2.82 3.54.44.23.65.67c1.06 2.21-.01 4.28 1.04 6.24q1.15 2.15 1.76-.21.29-1.14.74-2.04.59-1.17 1.67-.4.54.39 1.19.21.47-.13.87-.42a.52.51-25.9 0 1 .8.27c.28.92.68 1.62.36 2.61q-.54 1.67-1.02 3.19a.93.92-88.1 0 0 1.1 1.18q1.57-.37 3.18.6.41.25.4.73-.04 1.95-1.55 3.01-.51.35-.17.86.33.5.8.87.35.27.66-.03l.28-.25q.39-.36.69.08 1.86 2.78.36 5.27-.66 1.1.59.8 1.36-.32 2.84.67a1 1 0 0 1 .44.81c.03 1.99-1.54 4.1.03 5.69q.54.54.71-.2.26-1.14 1.34-1.55.76-.28.92-1.07.15-.73.84-.89.6-.14.87.42l1.42 2.89q.29.57.83.23.65-.4 1.41-.56.97-.2.19-.82-1.86-1.48-1.55-4.19a1.09 1.09 0 0 1 .59-.86l.99-.51a.7.69 61.7 0 0 .29-.97q-.56-.98-1.44-1.68-.58-.47 0-.93.21-.18.2-.49-.04-.67-.5-.18l-1.06 1.11a.92.91-56.4 0 1-1.02.21q-.41-.18-.69-.57-.36-.5-.23-1.1.8-3.6 3.13-5.75.59-.54.17-1.22-.18-.27-.21-.58a.55.55 0 0 1 .75-.56q1.66.68 2.12 2.36.14.5.58.77.33.2.69-.05.34-.25.42-.65l.3-1.44a.98.97 85.5 0 1 .59-.7c2.03-.8 4.46-1.99 3.55-4.71a1.03 1 48.1 0 1 .03-.74l1.81-4.34q.28-.68.85-.21c1.45 1.21 1.02 4.43 1.08 6.17q.02.92.71.3.32-.28.23-.71a.52.52 0 0 1 .75-.57l1.77.9a.75.74-64.5 0 1 .34.97l-.6 1.36q-.25.58.13 1.08l1.26 1.62q.37.48.15 1.05l-.26.65q-.18.45 0 .9.6 1.51.16 3.11-.14.5.03 1l.92 2.66q.21.61-.08 1.19-.64 1.28-.36 2.71.02.13.15.13h.3q.25.01.27-.24l.06-.73q.07-1.02.83-.33.66.59 1.52.75.71.14.65.86-.06.76.29 1.41.34.64.83.11.69-.72.34-1.6-.15-.38.06-.73.92-1.59 1.44-3.46c.24-.85-.17-1.65-1.08-1.8q-.63-.1-.72-.74l-.12-.96q-.1-.77.62-1.05 1.46-.58 2.55-1.67.68-.68.88.26.03.15.05.3.11.92.77.26 1.43-1.42 3.53-1.49a.73.73 0 0 0 .58-1.13l-.88-1.32q-.28-.42-.02-.85.3-.5.92-.48.64.02.81-.6l.23-.83q.05-.21.18-.38.22-.27.43-.15.26.15.27.45l.1 3.73a.48.48 0 0 0 .83.33q.65-.67 1.43-.53a.9.9 0 0 1 .49 1.51q-.55.57-.66 1.27-.1.6.45.86l.65.31q.48.23.47.76l-.03 4.69q-.01.56.35.99l.34.43q.31.38.11.84-.68 1.6-.34 3.41.23 1.2 1.05.29l.94-1.03q.73-.81.84.28l.16 1.54q.07.67.74.75.65.07.88-.55.43-1.19.33-2.54-.04-.56.44-.85.41-.24.9-.22.1 0 .18-.06.11-.11.09-.24-.07-.28-.34-.36-2.21-.68-2.24-2.93 0-.62.43-1.07 1.08-1.13 1.61-2.47.27-.66.83-.23l.43.32q.46.35.95.08l3.06-1.61q.66-.36.24-.98-1.11-1.62.43-2.97a.56.55 55.4 0 1 .86.16q.14.27.17.57.11 1 .89.36.35-.28.77-.35.58-.1.9.4l1.69 2.65q.32.5.23 1.09-.14.93.68 1.59.49.39.36 1.01-.09.44-.33.84a.75.74 30.3 0 0 .28 1.04l.65.35q.58.31.62.97l.29 4.61q.01.13.07.13h.27q.4 0 .4-.41-.05-2.59 2.99-3.18.54-.1.98.23l1.44 1.11a.67.66 40.3 0 0 .89-.07l.22-.23q.55-.59-.02-1.16-1.63-1.62-1.4-4.35.04-.49.44-.77.27-.19.43-.46.05-.09-.02-.17-.11-.12-.27-.18-.12-.04-.2.06l-.3.42q-.31.43-.72.09-.76-.62-1.62-.03-.56.38-.63-.29-.27-2.44.48-4.48.17-.45-.08-.86-.08-.15-.11-.31-.06-.48.41-.56l1.34-.22a.44.44 0 0 0 .32-.64l-.23-.46a1.07 1.06-47.7 0 1-.04-.88l1.32-3.27q.15-.37-.22-.5-1.57-.55-1.17-2.29.09-.37.4-.58l2.71-1.84a1.68 1.68 0 0 1 1.08-.28l5.23.39q.58.05 1.04.41l.67.52q.72.56.75-.35c.07-1.91-.4-4.8 1.39-6.12q.39-.29.54-.75.17-.53-.03-1.01-.09-.21-.31-.14l-.27.1q-.3.1-.22.4.18.64-.15 1.15-.39.6-.75-.01l-1.42-2.33q-.27-.44-.65-.1-.87.76-1.17 1.9-.33 1.29-.92.09-.64-1.3-.88-2.71c-.35-2.04.11-4.1-2.47-4.71q-.44-.1-.26-.52.66-1.56.79-3.23a1.86 1.84 67.4 0 1 .41-1.01q1.22-1.51 1.57-3.41.1-.56.63-.74l.47-.17q.95-.34-.02-.61-1.34-.37-1.25-1.93.11-1.86-1.23-.57-.9.86-.83 2.25a.94.93-80 0 1-1.3.92q-.78-.33-1.63-.24a1.76 1.76 0 0 1-1.94-1.83q.07-1.62-.68-2.98-.27-.5-.84-.5-.94 0-.49.84l.57 1.03q.3.55-.15.99-1.19 1.15-2.51.34-.55-.33-.82.25-1.48 3.21.8 5.84a.77.77 0 0 1-.56 1.27q-1.39.04-2.62.76-.6.35-.63-.35-.12-3.44-3.58-3.35-.66.02-.31-.55.93-1.52 1.12-3.71a1.31 1.29 30.9 0 0-.23-.88q-.45-.68-.47-1.46c-.04-1.76-1.34-3.6-2.55-4.75a.77.77 0 0 1-.19-.83q.25-.62.95-.74a1.09 1.07-78.8 0 0 .75-.51l.61-1.02q.38-.64 1-1.04l2.48-1.6q.69-.45.24-1.14-.36-.57-1.04-.7a.99.99 0 0 1-.74-.61q-.89-2.27.92-3.59.43-.32.2-.8-.11-.24-.13-.51-.05-.5.15-.96 1.07-2.5.3-5.34 4.28 2.4 6.21-.87 1.99-3.38 2.87-4.5l1.51 2.45q.3.49.81.21.84-.46 1.87-.54.87-.07 1.11-.91.23-.84 1.09-1.11a.71.71 0 0 0 .47-.89l-.37-1.17q3.08 1.34 5.92 1.44 2.39.08 4.38-.8 6.2-2.76 14.18-1.83c2.96.35 4.96-1.89 7.51-1.64q.82.09 1.63.61 3.08 2 6.91 2.76m7.37 22.06q-.11.54.17 1.06a.38.38 0 0 0 .68-.01q.28-.56-.07-1.18a.42.42 0 0 0-.78.13m-101.71 48.96q.14.52.42.06.09-.14.02-.29-.05-.1-.16-.11-.39-.04-.28.34m26.69 7.83q-.19.34.02.62.26.34.61-.01a.45.45 0 0 0 .13-.29q.03-.53-.46-.51a.37.36-76.4 0 0-.3.19m-49.91 9.11q-.05.24.12.38a.36.36 0 0 0 .53-.08q.15-.2.03-.4a.37.37 0 0 0-.68.1m174.75 66.17a.35.35 0 0 0-.35-.35.35.35 0 0 0-.35.35.35.35 0 0 0 .35.35.35.35 0 0 0 .35-.35m-49.93 9.127a.43.32 17.2 0 0-.315-.433.43.32 17.2 0 0-.506.179.43.32 17.2 0 0 .316.433.43.32 17.2 0 0 .506-.179m-21.24 3.753q-.17-.08-.22.11-.03.11.09.12.14 0 .18-.14.02-.06-.05-.09"/><path fill="#f11a24" d="m181.19 69.88.37 1.17a.71.71 0 0 1-.47.89q-.86.27-1.09 1.11-.24.84-1.11.91-1.03.08-1.87.54-.51.28-.81-.21l-1.51-2.45q2.32-2.55 6.49-1.96M221.72 70.42l9.34 2.89q-1.15 2.4-1.07 4.85.02.46.48.45l2.76-.07q1.25-.04.52.98-.41.58-.59 1.21-.25.86.53 1.41.89.64 1.24 1.51.66 1.63-.92.85-.32-.16-.64-.33-.38-.2-.76-.07-.75.25-1.15.97a.79.78 43.7 0 0 .02.79q1.13 1.86-.89 3.03a.55.55 0 0 0 .15 1.01q1.62.38 1.15 2.39-.13.57-.65.29-2.03-1.13-2.14-2.81c-.09-1.53-1.15-2.44-2.15-3.43q-.59-.59-.93.18l-.47 1.05q-.24.53-.77.31l-1.97-.84q-.75-.32-.53.47.14.49.52.89.49.53.04 1.09-.32.4-.85.46a.71.7-8.1 0 1-.78-.58q-.21-1.17-1.4-1.46-1.31-.33-.12-.68l.46-.14q.41-.11.57-.5 1.28-3.16 1.33-6.65a.64.64 0 0 0-1.02-.53q-.12.08-.25.12-.69.21-.72-.51-.05-1.2-.67-2.17-.93-1.46-1.4.2l-.15.54a.73.72-77.1 0 1-.82.52l-.48-.08q-.49-.09-.31-.55.97-2.4 2.94-4.22.4-.37.61-.87.6-1.41 1.94-1.97M243.18 72.07q-1.05 1.04-1.44 2.45a.73.73 0 0 1-1.33.19q-.62-1.01-.13-2.69zM244.24 72.15l3.12 1.45q-1.7-.59-2.75-.1-.47.22-.54-.29-.06-.46.17-1.06M162.96 75.71q-.09.85.15 1.5.2.49.72.37.65-.16 1.33-.63.38.31.46.26.77 2.84-.3 5.34-.2.46-.15.96.02.27.13.51.23.48-.2.8-1.81 1.32-.92 3.59a.99.99 0 0 0 .74.61q.68.13 1.04.7.45.69-.24 1.14l-2.48 1.6q-.62.4-1 1.04l-.61 1.02a1.09 1.07-78.8 0 1-.75.51q-.7.12-.95.74a.77.77 0 0 0 .19.83c1.21 1.15 2.51 2.99 2.55 4.75q.02.78.47 1.46a1.31 1.29 30.9 0 1 .23.88q-.19 2.19-1.12 3.71-.35.57.31.55 3.46-.09 3.58 3.35.03.7.63.35 1.23-.72 2.62-.76a.77.77 0 0 0 .56-1.27q-2.28-2.63-.8-5.84.27-.58.82-.25 1.32.81 2.51-.34.45-.44.15-.99l-.57-1.03q-.45-.84.49-.84.57 0 .84.5.75 1.36.68 2.98a1.76 1.76 0 0 0 1.94 1.83q.85-.09 1.63.24a.94.93-80 0 0 1.3-.92q-.07-1.39.83-2.25 1.34-1.29 1.23.57-.09 1.56 1.25 1.93.97.27.02.61l-.47.17q-.53.18-.63.74-.35 1.9-1.57 3.41a1.86 1.84 67.4 0 0-.41 1.01q-.13 1.67-.79 3.23-.18.42.26.52c2.58.61 2.12 2.67 2.47 4.71q.24 1.41.88 2.71.59 1.2.92-.09.3-1.14 1.17-1.9.38-.34.65.1l1.42 2.33q.36.61.75.01.33-.51.15-1.15-.08-.3.22-.4l.27-.1q.22-.07.31.14.2.48.03 1.01-.15.46-.54.75c-1.79 1.32-1.32 4.21-1.39 6.12q-.03.91-.75.35l-.67-.52q-.46-.36-1.04-.41l-5.23-.39a1.68 1.68 0 0 0-1.08.28l-2.71 1.84q-.31.21-.4.58-.4 1.74 1.17 2.29.37.13.22.5l-1.32 3.27a1.07 1.06-47.7 0 0 .04.88l.23.46a.44.44 0 0 1-.32.64l-1.34.22q-.47.08-.41.56.03.16.11.31.25.41.08.86-.75 2.04-.48 4.48.07.67.63.29.86-.59 1.62.03.41.34.72-.09l.3-.42q.08-.1.2-.06.16.06.27.18.07.08.02.17-.16.27-.43.46-.4.28-.44.77-.23 2.73 1.4 4.35.57.57.02 1.16l-.22.23a.67.66 40.3 0 1-.89.07l-1.44-1.11q-.44-.33-.98-.23-3.04.59-2.99 3.18 0 .41-.4.41h-.27q-.06 0-.07-.13l-.29-4.61q-.04-.66-.62-.97l-.65-.35a.75.74 30.3 0 1-.28-1.04q.24-.4.33-.84.13-.62-.36-1.01-.82-.66-.68-1.59.09-.59-.23-1.09l-1.69-2.65q-.32-.5-.9-.4-.42.07-.77.35-.78.64-.89-.36-.03-.3-.17-.57a.56.55 55.4 0 0-.86-.16q-1.54 1.35-.43 2.97.42.62-.24.98l-3.06 1.61q-.49.27-.95-.08l-.43-.32q-.56-.43-.83.23-.53 1.34-1.61 2.47-.43.45-.43 1.07.03 2.25 2.24 2.93.27.08.34.36.02.13-.09.24-.08.06-.18.06-.49-.02-.9.22-.48.29-.44.85.1 1.35-.33 2.54-.23.62-.88.55-.67-.08-.74-.75l-.16-1.54q-.11-1.09-.84-.28l-.94 1.03q-.82.91-1.05-.29-.34-1.81.34-3.41.2-.46-.11-.84l-.34-.43q-.36-.43-.35-.99l.03-4.69q.01-.53-.47-.76l-.65-.31q-.55-.26-.45-.86.11-.7.66-1.27a.9.9 0 0 0-.49-1.51q-.78-.14-1.43.53a.48.48 0 0 1-.83-.33l-.1-3.73q-.01-.3-.27-.45-.21-.12-.43.15-.13.17-.18.38l-.23.83q-.17.62-.81.6-.62-.02-.92.48-.26.43.02.85l.88 1.32a.73.73 0 0 1-.58 1.13q-2.1.07-3.53 1.49-.66.66-.77-.26-.02-.15-.05-.3-.2-.94-.88-.26-1.09 1.09-2.55 1.67-.72.28-.62 1.05l.12.96q.09.64.72.74c.91.15 1.32.95 1.08 1.8q-.52 1.87-1.44 3.46-.21.35-.06.73.35.88-.34 1.6-.49.53-.83-.11-.35-.65-.29-1.41.06-.72-.65-.86-.86-.16-1.52-.75-.76-.69-.83.33l-.06.73q-.02.25-.27.24h-.3q-.13 0-.15-.13-.28-1.43.36-2.71.29-.58.08-1.19l-.92-2.66q-.17-.5-.03-1 .44-1.6-.16-3.11-.18-.45 0-.9l.26-.65q.22-.57-.15-1.05l-1.26-1.62q-.38-.5-.13-1.08l.6-1.36a.75.74-64.5 0 0-.34-.97l-1.77-.9a.52.52 0 0 0-.75.57q.09.43-.23.71-.69.62-.71-.3c-.06-1.74.37-4.96-1.08-6.17q-.57-.47-.85.21l-1.81 4.34a1.03 1 48.1 0 0-.03.74c.91 2.72-1.52 3.91-3.55 4.71a.98.97 85.5 0 0-.59.7l-.3 1.44q-.08.4-.42.65-.36.25-.69.05-.44-.27-.58-.77-.46-1.68-2.12-2.36a.55.55 0 0 0-.75.56q.03.31.21.58.42.68-.17 1.22-2.33 2.15-3.13 5.75-.13.6.23 1.1.28.39.69.57a.92.91-56.4 0 0 1.02-.21l1.06-1.11q.46-.49.5.18.01.31-.2.49-.58.46 0 .93.88.7 1.44 1.68a.7.69 61.7 0 1-.29.97l-.99.51a1.09 1.09 0 0 0-.59.86q-.31 2.71 1.55 4.19.78.62-.19.82-.76.16-1.41.56-.54.34-.83-.23l-1.42-2.89q-.27-.56-.87-.42-.69.16-.84.89-.16.79-.92 1.07-1.08.41-1.34 1.55-.17.74-.71.2c-1.57-1.59 0-3.7-.03-5.69a1 1 0 0 0-.44-.81q-1.48-.99-2.84-.67-1.25.3-.59-.8 1.5-2.49-.36-5.27-.3-.44-.69-.08l-.28.25q-.31.3-.66.03-.47-.37-.8-.87-.34-.51.17-.86 1.51-1.06 1.55-3.01.01-.48-.4-.73-1.61-.97-3.18-.6a.93.92-88.1 0 1-1.1-1.18q.48-1.52 1.02-3.19c.32-.99-.08-1.69-.36-2.61a.52.51-25.9 0 0-.8-.27q-.4.29-.87.42-.65.18-1.19-.21-1.08-.77-1.67.4-.45.9-.74 2.04-.61 2.36-1.76.21c-1.05-1.96.02-4.03-1.04-6.24q-.21-.44-.65-.67-2.21-1.15-2.82-3.54c3.88-7.55 6.55-12.99 15.5-15.16q11.17-2.7 25.94-6.58c13.04-3.42 23.07-9.43 24.99-23.95q.07-.5.42-.86c3.79-3.92 8.42-3.28 12.58-.5"/><path d="M165.16 76.95q-.68.47-1.33.63-.52.12-.72-.37-.24-.65-.15-1.5z"/><path fill="#f11a24" d="M255.44 80.01q3.56 1.85 7.49 2.57 8.61 1.58 16.81 2.91c2.44.4 4.4 2.3 4.27 4.84q-.25 4.39 1.05 8.74c1.47 4.91 4.98 6 9.53 7.84q.39 1.82 1.49 2.6.44.31.8-.09.44-.49.72-1.32c1.73.75 4.31 1.67 4.18 3.89l-1.16 1.97q-.25.43-.11.91c.56 2.01-.01 5.04 2.17 5.97q-.24-.27-.2.43l-.48 2.18a.44.44 0 0 1-.74.22l-3.32-3.33a.74.74 0 0 0-1.17.17l-2.07 3.79q-.34.63-.8.07-.14-.17-.37-.02-.34.22-.33.62.05 1.35-.68 2.38-.47.66.33.65.62-.01.85.52.21.49-.08.95-1.03 1.6.07 2.9.17.2-.02.38l-.19.18q-.05.04-.09-.01-1.09-1.24-2.56-2.03-.46-.24-.62-.73-.72-2.28-.73-4.54c0-2.23-.79-3.25-1.54-5.13a.57.57 0 0 0-1.02-.08q-1.27 2.14-3.01 1.05a.76.74-49.6 0 0-.91.08q-.51.46-1.16.61-1.01.22-.27.94.13.13.18.3.19.6-.1 1.17-.75 1.46-.71 2.98a.37.37 0 0 1-.48.36q-.21-.06-.27-.28-.33-1.12-.3-2.45a1.45 1.36-71.8 0 0-.53-1.14q-.15-.12-.34-.14-.86-.11-.38-.82.68-1.01.24-2.16a.54.54 0 0 1 .3-.7q.19-.08.27-.28.07-.17.05-.35-.22-2.09.21-4.39.09-.53-.14-1.01-.66-1.32.24-2.52.22-.3-.09-.5l-.23-.14q-.1-.06-.17.04-.82 1.21-1.81 1.79-.48.29-.93-.06-1.64-1.23-3.49-2.29-.44-.25-.91-.09-.35.13-.62.43-.38.42-.13.93 1.03 2.15-1.61 3.81a.55.55 0 0 1-.82-.62q.2-.71.7-1.26a.35.34 23.8 0 0-.23-.58q-1.16-.08-1.93-1.09-.28-.36-.01-.74 1.53-2.07 1.66-4.96a2.02 1.98-23.1 0 1 .52-1.26q.18-.2.44-.27a.54.54 0 0 0 .32-.8l-.2-.33q-.16-.27-.04-.57 1.16-2.91-.36-6.53-.2-.47-.71-.48l-1.44-.01q-.65-.01-.45.62.08.25.25.47a.44.44 0 0 1-.11.65q-.16.09-.35.06a2.05 1.5-8.1 0 1-1.27-.68q-.86-1.15-2.12-.77-.57.16-.67-.41l-.23-1.29a.83.82-18.9 0 0-1.19-.58l-.83.44q-.66.34-.69-.41-.01-.36-.21-.66-.33-.49-.83-.16-.57.38-.81 1.05-.17.49.01.99.73 1.9 1.35 3.86.18.57-.41.61-3.36.23-2.54 2.67.12.37-.25.5-.32.11-.63.03a.76.76 0 0 1-.55-.66q-.23-2.43-1.36-4.83-.15-.31-.49-.37-.28-.05-.48.18-.57.66-.77-.19-.16-.7.07-1.41.22-.67.9-.85.29-.08.51-.26.46-.38.2-.91c-1.21-2.49.19-6.27 1.32-8.47.5-.97.34-1.61.58-2.61a.58.58 0 0 0-.41-.7l-.44-.12q-.6-.17-.32-.73.31-.64.94-1.13M229.09 92.48a.42.42 0 0 1 .78-.13q.35.62.07 1.18a.38.38 0 0 1-.68.01q-.28-.52-.17-1.06"/><path d="M297.6 108.1q-.28.83-.72 1.32-.36.4-.8.09-1.1-.78-1.49-2.6 1.67.37 3.01 1.19M302.68 120.84c-2.18-.93-1.61-3.96-2.17-5.97q-.14-.48.11-.91l1.16-1.97z"/><path fill="#f11a24" d="M79.53 145.74q-1.44-2.99-1.54-4.25-.6-7.06-.05-9.25.52-2.09 3.57-6.14 2.31 2.79.12 5.06a1 .99-25.2 0 0-.28.76l.03.33q.02.35-.26.56l-1.45 1.09q-.44.34-.21.85.68 1.47.84 2.96a1.02 1.01 5.1 0 0 .73.87q1.05.29 1.01-.51-.02-.49.39-.77.14-.1.34.03.11.07.15.19l.45 1.35q.17.5-.02.99l-1.62 4.19a.62.62 0 0 1-.79.36q-.29-.11-.6-.11-.57-.01-.67.55zM127.38 141.44q-.11-.38.28-.34.11.01.16.11.07.15-.02.29-.28.46-.42-.06M154.07 149.27a.37.36-76.4 0 1 .3-.19q.49-.02.46.51a.45.45 0 0 1-.13.29q-.35.35-.61.01-.21-.28-.02-.62M104.16 158.38a.37.37 0 0 1 .68-.1q.12.2-.03.4a.36.36 0 0 1-.53.08q-.17-.14-.12-.38"/><circle cx="278.56" cy="224.55" r=".35" fill="#f11a24"/><path fill="#f11a24" d="M289.25 253.85q-.62 5.95.62 11.96.87 4.22-2.68 6.28c-5.99 3.47-12.03 6.84-17.84 10.76q-7.62 5.15-15.32 10.17-15.94 10.39-33.69 16.88-.58-.44-.85-.93-.24-.47 0-.94.46-.89.55-1.88.14-1.51-1.05-.58l-.51.4q-.51.4-.9-.12-.69-.92-.53-2.08.35-2.37.79-4.92.07-.44.35-.78 1.1-1.33.79-3.22-.08-.49-.55-.68l-.89-.37a.99.99 0 0 1-.11-1.79q2.51-1.4 3.9-3.4.34-.49.9-.71.46-.18.7-.61a.79.78-54.2 0 0-.15-.97q-1.5-1.35-2.25-3.26-.19-.49-.08-1.01.21-1.02-.52-1.76a1.13 1.13 0 0 1-.31-.93q.26-2.19 1.04-3.75.27-.54-.34-.53-3.37.05-3.4-3.29-.01-.87-.73-.38-1.09.72-2.4.64a.78.77 72.9 0 0-.66 1.25q2 2.58.81 6.04a.49.49 0 0 1-.75.25q-1.59-1.11-2.76.32a.81.8-46.5 0 0 .02 1.05q.6.66.55 1.54-.04.72-.61.28-1.61-1.23-1.38-3.23a1.96 1.87 87.3 0 0-2.27-2.16q-.71.16-1.39-.15-1.33-.59-1.33.86 0 1.46-.92 2.35-1.08 1.03-.98-.46.11-1.59-1.28-2.12-1.05-.41.02-.74.16-.05.31-.1.35-.1.44-.45.53-2 1.75-3.7.32-.43.43-.96l.7-3.22q.09-.43-.33-.56c-1.46-.43-1.98-1.39-2.06-2.98q-.11-2.03-.69-3.88l4.05-6.21q.83-1.21 2.94-2.35a1.23 1.23 0 0 0 .63-.92q.2-1.38-1.11-1.86-.57-.2-.34-.76l1.26-3q.23-.54-.06-1.05l-.13-.22q-.33-.59.33-.75l.98-.23q.49-.12.51-.62.06-1.46.39-3.25.23-1.22.09-2.34-.08-.71-.69-.33-1.03.63-1.8-.19-.47-.5-.45-1.25.08-2.54-1.51-4.29-.39-.42.04-.8l.27-.24a.84.84 0 0 1 1.18.08q1.84 2.07 4.46.07.39-.29.48-.77l.29-1.48q.06-.33.39-.36.17-.01.29.11.13.13.13.32l.12 4.1a1.39 1.36 17.8 0 0 .56 1.06q.93.7.86 1.8-.05 1.02.34 2.07.85 2.21 1.81 4.13.35.69.94 1.01.88.48 1.61-.33a.3.3 0 0 1 .53.18q.12 1.76 1.44.67 1.2-1 .21-2.41-.4-.57.14-1.02 2.54-2.12 4.69-1.36.54.2.73-.35c.51-1.46 2.04-2.11 1.91-3.79q-.15-1.94-2.23-2.45-.88-.22-.02-.5 1.69-.54 1.31-2.69-.2-1.13.65-1.64a.8.79 60 0 1 1.1.3q.46.81.36 1.68-.17 1.48.88.43l1.26-1.25a.39.39 0 0 1 .67.24c.1 1.08.2 2.52-.2 3.59q-.22.61.13 1.19.33.54.41 1.2.29 2.32.12 4.64-.05.66.55.96l.51.26a.9.89-55 0 1 .25 1.42q-.63.66-.56 1.55a.74.73 73.6 0 0 1.08.6l1.29-.7a.36.35 75.3 0 1 .52.31l.07 4.14q0 .28.28.27.14-.01.28 0 .08 0 .1-.08.36-1.72 1.87-2.2a.52.52 0 0 0 .35-.63q-.25-.89-.86-1.6a.74.74 0 0 1 .47-1.21q2.04-.25 3.58-1.53.82-.67.68.38-.05.42.59.48a.36.33-55.8 0 0 .21-.05l2.75-1.73a1.49 1.49 0 0 0-.3-2.67q-1.39-.49-.9-2.09.54-1.72 1.39-3.28.15-.26.01-.53-.62-1.28.84-1.95a.32.32 0 0 1 .45.28q.06 2.28 2.43 3.12.83.3.77-.58-.02-.23.08-.44.12-.23.24-.23l.26.02q.21.01.23.22.11 1.46-.48 2.71-.22.47-.02.96 1.38 3.4.91 4.96-.51 1.66.51 1.78-.44.94-.48 1.96-.02.53.29.96l1.22 1.69q.41.56-.04 1.08-.48.55-.66 1.23-.21.77.57.96.76.19 1.4.67.53.39.8-.21.18-.39.14-.82-.02-.27.25-.28l.43-.01a.25.25 0 0 1 .25.27q-.17 2.67.35 4.84.73 3.14 2 .18l1.31-3.07a1.02.95-39.3 0 0 .07-.53q-.5-3.06 1.09-3.86 1.37-.68 2.63-1.35.49-.26.46-.81-.03-.6.25-1.1 1.05-1.86 1.8.13.58 1.54 1.89 2.01 1.44.52.78-.86l-.19-.39q-.18-.38.12-.68 2.56-2.55 3.33-6.1a1.3 1.3 0 0 0-1.98-1.36q-.47.31-.78.86-.15.26-.45.31-.22.03-.29-.1t.01-.26q.08-.15.2-.25.43-.33.08-.76l-1.53-1.87a.69.69 0 0 1 .05-.93q.44-.43 1.02-.63.55-.18.71-.74.75-2.61-1.63-4.56a.22.22 0 0 1 .06-.37l2.12-.85q.21-.08.31.12l1.5 3.05a.81.8 45.2 0 0 1.44.01l.35-.72q.27-.53.8-.78 1.05-.51 1.41-1.72.25-.89.76-.11l.63.96q.3.47.1.99-.72 1.93-.72 3.85-.01.49.42.74 1.66.96 2.82.67 1.44-.36.57.85-1.67 2.33.33 5.06.3.4.73.16.82-.47 1.5.21a.94.94 0 0 1-.09 1.4q-1.68 1.3-1.21 3.17.1.43.51.62 1.43.65 2.95.49a.82.82 0 0 1 .89.97q-.24 1.27-.63 2.58c-.54 1.78.29 3.53 1.44 4.87"/><ellipse fill="#f11a24" rx=".43" ry=".32" transform="rotate(17.2 -657.854 872.45)"/><path fill="#f11a24" d="M207.79 237.52q-.04.14-.18.14-.12-.01-.09-.12.05-.19.22-.11.07.03.05.09M254.79 242.01q.31-.88.86-.65.01.54-.86.65"/><path d="M201.41 261.28q.58 1.85.69 3.88c.08 1.59.6 2.55 2.06 2.98q.42.13.33.56l-.7 3.22q-.11.53-.43.96-1.22 1.7-1.75 3.7-.09.35-.44.45-.15.05-.31.1-1.07.33-.02.74 1.39.53 1.28 2.12-.1 1.49.98.46.92-.89.92-2.35 0-1.45 1.33-.86.68.31 1.39.15a1.96 1.87 87.3 0 1 2.27 2.16q-.23 2 1.38 3.23.57.44.61-.28.05-.88-.55-1.54a.81.8-46.5 0 1-.02-1.05q1.17-1.43 2.76-.32a.49.49 0 0 0 .75-.25q1.19-3.46-.81-6.04a.78.77 72.9 0 1 .66-1.25q1.31.08 2.4-.64.72-.49.73.38.03 3.34 3.4 3.29.61-.01.34.53-.78 1.56-1.04 3.75a1.13 1.13 0 0 0 .31.93q.73.74.52 1.76-.11.52.08 1.01.75 1.91 2.25 3.26a.79.78-54.2 0 1 .15.97q-.24.43-.7.61-.56.22-.9.71-1.39 2-3.9 3.4a.99.99 0 0 0 .11 1.79l.89.37q.47.19.55.68.31 1.89-.79 3.22-.28.34-.35.78-.44 2.55-.79 4.92-.16 1.16.53 2.08.39.52.9.12l.51-.4q1.19-.93 1.05.58-.09.99-.55 1.88-.24.47 0 .94.27.49.85.93l-4.43 1.29q.21-.28.13-.4a.63.63 0 0 0-.82-.17q-.65.38-.37.87-1.31.82-2.83.7-.01-.51-.43-.65a.47.45 30.3 0 0-.49.12l-1.17 1.22q-.54.56-.8-.17-.84-2.4-1.9-3.46a2.55 2.55 0 0 0-4.19.89q-.15.4-1.01.96-.43.27-.35.78.38 2.43 2.61 3.05l-10.32-.08q-.54-.01-.82-.48-1.13-1.91-2.32-3.94c-1.16-1.99-.92-4.81-.29-6.83q5.74-18.15 7.68-37.09.21-2.06 3.19-5.23"/><path fill="#f11a24" d="M212.02 312.19q-3.86 2.1-7.73 2.74-2.23-.62-2.61-3.05-.08-.51.35-.78.86-.56 1.01-.96a2.55 2.55 0 0 1 4.19-.89q1.06 1.06 1.9 3.46.26.73.8.17l1.17-1.22a.47.45 30.3 0 1 .49-.12q.42.14.43.65M215.91 311.19q-.51.37-1.06.3-.28-.49.37-.87a.63.63 0 0 1 .82.17q.08.12-.13.4"/></svg>