<svg xmlns="http://www.w3.org/2000/svg" viewBox="0 0 382 382"><defs><clipPath id="a"><path d="M206.44 314.67h-12.95c-1.21-2.51-3.68-5.19-3.38-7.49.75-5.57 2.98-10.93 4.26-16.45 1.32-5.69 2.27-11.47 3.26-17.23.45-2.59 0-5.5 1.03-7.79 1.44-3.23 4.06-5.91 5.79-9.04.92-1.65 1.56-3.78 1.43-5.63-.52-7.52-1.58-15.01-2.06-22.53-.5-7.85-4.73-14.92-12.25-16.61-7.27-1.63-14.94-2.3-22.38-1.99-5.67.24-10.44-.05-14.85-3.97-4.27-3.81-9.03-7.07-13.42-10.76-10.97-9.21-23.3-14.58-37.79-15.62-13.59-.97-23.89-11.32-22.18-27.83.35-3.39-1.96-7.06-3.05-10.6v-8.98c2.87-4.82 6.05-9.49 8.52-14.51 2.88-5.83 7.45-8.74 13.57-10.16 9.19-2.13 18.35-4.43 27.43-6.98 11.92-3.35 20.95-9.71 22.65-23.23.12-.97 1.37-2.05 2.36-2.6 5.11-2.85 9.16.46 13.25 2.7 3.34 1.83 5.3 1.31 7.01-2.2 2.7-5.54 6.16-6.44 11.54-4.15 1.78.76 4.49 1 6.09.17 5.44-2.82 11-2.87 16.83-2.25 1.35.14 2.85-1.04 4.28-1.61h2.99c.54.52.99 1.31 1.63 1.51 5.05 1.63 10.13 3.21 15.24 4.64.82.23 1.86-.51 2.81-.58 3.67-.27 7.73-1.53 10.93-.39 3.66 1.3 6.42 4.96 9.83 7.21 2.03 1.34 4.48 2.32 6.87 2.81 5.88 1.22 11.85 2.03 17.76 3.08 3.22.57 4.62 2.39 4.46 5.87-.12 2.71.25 5.59 1.09 8.16 2.07 6.3 8.55 6.38 13.31 8.91 1.21.64 3.07 1.46 3.22 2.42.65 4.02 1.13 8.15.98 12.21-.15 4.04-1.57 8.05-1.56 12.07 0 1.96 2.01 3.91 3.1 5.87v22.94c-.77 4.18-1.59 8.36-2.3 12.55-1.89 11.1-3.76 22.2-5.6 33.31-1.17 7.08-2.2 14.17-3.41 21.24-.71 4.18-1.82 8.29-2.44 12.48-.7 4.73-1.27 9.5-1.46 14.27-.12 2.91.57 5.85.94 8.77.33 2.58-.56 4.1-3.01 5.47-6.85 3.82-13.69 7.76-20.12 12.23-17.42 12.11-35.35 23.07-56.19 28.34-1.42.36-2.71 1.27-4.06 1.93z"/></clipPath></defs><g clip-path="url(#a)"><svg xmlns="http://www.w3.org/2000/svg" width="382" height="382" style="shape-rendering:geometricPrecision"><path fill="#53b3c6" stroke="#53b3c6" d="m235.12 334.833 57.787 3.13 16.59 11.694L301.103 382h-53.217l-16.484-44.547zM382 0v57.841l-8.602 5.846-8.01.285L237.775 39.09l-4.033-12.492L236.538 0z"/><path fill="#4dfc54" stroke="#4dfc54" d="m240.45 88.513-2.674-49.423 127.611 24.882zM151.873 251.788l20.108 12.07-18.46 51.395-25.536.282-4.396-4.822 3.44-53.408zM382 354.042l-53.012-19.617 5.102-28.31L382 286.66z"/><path fill="#53b3c6" stroke="#53b3c6" d="m141.065 162.037 29.657 40.625-61.526 16.594z"/><path fill="#4dfc54" stroke="#4dfc54" d="m241.037 132.475-2.226-39.003 1.64-4.959 124.936-24.541 8.01-.285-71.91 100.475-1.595 1.305-49.41-1.649zM299.892 165.467l1.595-1.305L382 172.144v61.227l-47.547-6.848zM141.065 162.037l-4.268-23.757 106.509 32.974-18.127 33.589-38.288 2.892-16.169-5.073z"/><path fill="#4dfc54" stroke="#4dfc54" d="m382 172.144-80.513-7.982 71.91-100.475L382 57.84zM153.521 315.253l18.46-51.395 43.505-1.121-27.858 58.953zM334.453 226.523 382 233.37v53.29l-47.91 19.454-22.803-40.414z"/><path fill="#53b3c6" stroke="#53b3c6" d="m261.892 272.07 49.395-6.369 22.803 40.414-5.102 28.31-19.49 15.232-16.59-11.695-31.031-58.11z"/><path fill="#4dfc54" stroke="#4dfc54" d="m103.115 223.119 23.914 34.186-3.44 53.408-51.143-6.527-12.138-10.855-1.761-46.7 39.629-24.885zM0 0h121.125l-.103 10.046-94.499 78.599L0 87.83z"/><path fill="#4dfc54" stroke="#4dfc54" d="m0 150.31 90.922 54.673 7.254 16.763-39.63 24.886-41.854-17.194L0 218.176z"/><path fill="#53b3c6" stroke="#53b3c6" d="m153.521 315.253 34.107 6.437 7.463 9.543L185.284 382h-69.066l11.767-66.465zM106.132 115.03l-15.21 89.953L0 150.311V87.83l26.523.814z"/><path fill="#4dfc54" stroke="#4dfc54" d="m187.628 321.69 27.858-58.953 15.81-15.34 30.596 24.672-.015 7.782-26.756 54.982-3.72 2.62-36.31-6.22zM45.137 382l27.309-77.814 51.143 6.527 4.396 4.822L116.218 382z"/><path fill="#53b3c6" stroke="#53b3c6" d="m238.811 93.472-77.374-14.3 10.93-28.486 61.376-24.088 4.033 12.492 2.675 49.423zM185.9 0l-27.321 30.735-33.307-15.637-4.25-5.052L121.125 0zM16.692 229.438l41.855 17.194 1.761 46.699-42.02 9.956zM106.132 115.03 26.523 88.646l94.499-78.6 4.25 5.053 10.981 83.01-3.576 5.049-13.783 11.507z"/><path fill="#53b3c6" stroke="#53b3c6" d="m136.253 98.108-10.981-83.01 33.307 15.637 13.788 19.95-10.93 28.488z"/><path fill="#4dfc54" stroke="#4dfc54" d="m141.065 162.037-31.869 57.22-6.08 3.862-4.94-1.373-7.254-16.763 15.21-89.952 12.762-.367 17.903 23.616z"/><path fill="#53b3c6" stroke="#53b3c6" d="M0 382v-68.66l18.288-10.053 42.02-9.956 12.138 10.855L45.136 382zM109.196 219.256l61.526-16.594 16.169 5.073-35.018 44.053-24.844 5.517-23.914-34.186z"/><path fill="#4dfc54" stroke="#4dfc54" d="m235.12 334.833 26.757-54.982 31.03 58.111zM243.306 171.254l7.175-7.436 49.41 1.649 34.562 61.056-23.166 39.178-49.395 6.368-30.596-24.673-6.117-42.553zM185.284 382l9.807-50.767 36.31 6.22L247.885 382zM172.367 50.686 158.58 30.735 185.899 0h50.639l-2.795 26.598zM151.873 251.788l35.018-44.053 38.288-2.892 6.117 42.553-15.81 15.34-43.505 1.122zM241.037 132.475l-108.36-29.318 3.576-5.049 25.184-18.935 77.374 14.299zM0 218.176l16.692 11.262 1.596 73.85L0 313.338zM136.797 138.28l-17.903-23.616 13.783-11.507 108.36 29.318 9.444 31.343-7.175 7.436z"/><path fill="#53b3c6" stroke="#53b3c6" d="M382 382h-80.898l8.396-32.343 19.49-15.232L382 354.042z"/></svg></g></svg>