<svg xmlns="http://www.w3.org/2000/svg" viewBox="0 0 382 382"><g fill="none" stroke="#200d14" stroke-width="2"><path d="M220.52 70.12q-2.01 2-3.2 5.41a.38.38 0 0 0 .42.51q.85-.13 1.51-.58.54-.38.7.27.03.15.09.3.19.47.63.7 2.16 1.12 1.19 3.89-.88 2.51-.93 4.89a.43.43 0 0 0 .73.31q1.6-1.61 3.65-2.51.45-.2.8.15.89.9.9 2.19.01.85.6 1.45l.5.51q.75.76.81-.31.17-3.36 3.27-4.95a.79.78 68.8 0 0 .4-.92q-.46-1.53-1.07-3.12-.54-1.41-1.85-.79-.59.28-.64-.37-.03-.54.3-.97.32-.4.14-.89-.65-1.78.92-2.02M254.56 79.39q.58 3.25.27 4.17-1.13 3.34-1.63 7-.07.51.07 1.01l.47 1.63q.23.79-.58.87-1.03.1-1.09 1.1-.05.72.61.42l.53-.24q.58-.27.9.28.73 1.27.98 2.74.08.48.52.28l2.11-.96q.32-.14.31-.5-.01-1.56-.85-2.96a.77.76-13.5 0 1 .71-1.15q1.68.1 3.29-.6a.54.53-13.3 0 1 .75.46l.12 1.73q.03.62.63.74l2.81.59a1.14 1.14 0 0 0 1.2-.52q.78-1.28 2.74-1.26.62 0 .57.62c-.26 3.45.19 7.37-1.15 10.59q-1.17 2.81.32 7.15.22.62.69.16 1.2-1.19 1.21-2.66 0-.55.49-.8l1.65-.85q.48-.25.67.26.56 1.51 1.84 2.17a.86.86 0 0 0 .97-.13l1.56-1.44q.69-.63.79.3.07.74-.34 1.41-.3.47-.1.99.59 1.46.38 3.12-.32 2.53-.53 5.11-.05.54.22 1.01.32.57.44 1.23.13.74.7.25.5-.42.76-1.02.2-.48-.17-.83-.44-.41-.38-1.01.05-.44.45-.65 1.66-.84 3.21-.43.59.16 1.1-.17 1.25-.83 2.38-.09.37.24.41.68l.44 4.98q.04.44.32.77.69.82-.12 1.52-.12.11-.05.25.03.04.07.07.21.17.42-.01.73-.65 1.64-.78a.71.7-6.6 0 0 .6-.75q-.06-.72-.38-1.32-.26-.5.14-.89 1.61-1.57 2.5-3.42.28-.59.93-.56 1.8.08 3.17 1.5.41.43.78-.03l.39-.5q.36-.44.02-.89l-.83-1.14q-.32-.44-.08-.93.52-1.03.06-2.05-.25-.54.13-1 1.05-1.25 2.08-2.55.35-.43-.05-.81-.26-.24-.58-.09-.27.14-.59.03a.52.51 2.3 0 1-.34-.36l-.48-2.03M289.07 255.6q-2.87-1.34-1.17-6.11.27-.75-.4-1.86-.31-.5-.47.06-.05.2-.05.39.01 1.17-.66.21-.91-1.3-2.48-1.93a.72.71-68.6 0 1-.4-.93l1.25-3.25q.23-.6-.42-.57-1.51.05-2.74-1.01-.45-.39-.22-.93.97-2.26-1.2-3.72a1.79 1.78-82.1 0 1-.72-.96q-.53-1.7-.45-3.41a.4.4 0 0 0-.67-.32l-2.36 2.17a.78.78 0 0 1-1.18-.15q-.6-.95-1.28-1.92-.13-.17-.32-.25-.16-.06-.32-.02-.33.09-.22.41.68 1.95 0 3.98-.15.46-.6.67-.56.26-.31.82c.45 1.01.56 1.81 1.4 2.63a.62.61 41.9 0 0 .9-.04q.21-.25.51-.15.51.18.28.67-.51 1.12-.84 2.24-.14.46-.94 1.99-.58 1.1-.74 2.32a1.34 1.34 0 0 1-2 .99q-2.12-1.22-3.35 1.31-.23.47-.75.45-1.53-.04-2.73.99-.37.32-.24.79.42 1.53.12 3.16-.07.4-.42.6-1.18.68-1.76 1.81-1.1 2.15-1.77-.17-.53-1.79-.63-3.64-.04-.67-.63-.35-1.07.56-2.24.3-.82-.19-.53-.98.69-1.87-.44-3.61-.38-.58-.42-1.28-.21-4.48-1.8-9.01a1.76 1.75 87.7 0 0-1.19-1.1q-1.08-.29-1.54-1.3-.49-1.09-.79.06l-.99 3.79a1.64 1.61-52.6 0 0 .15 1.21q1.49 2.62-.85 3.68-.43.19-.53.66-.08.42-.48.62a.51.51 0 0 1-.7-.2l-1.05-1.9q-.1-.17-.18-.19-.17-.04-.24.08-.17.29-.14.62.05.58-.12 1.12-.15.48-.63.33-1.58-.49-2.07 1.12-.57 1.87-1.36 3.79-.21.51-.69.25-.85-.45-.85-1.41a1.11 1.09-71.1 0 0-.4-.83q-2.32-1.9-2.66-5.24-.4-3.84-1.55-7.37a2.07 2.07 0 0 0-3.44-.82l-.77.78q-.69.7.03 1.37 1.2 1.14 1.28 2.67.02.52-.38.84-1.35 1.07-2.78 1.97-2.45 1.52-3.18 4.3a.88.88 0 0 1-1.34.51q-1.24-.82-2.39-1.68c-2.06-1.52-3.04-4.36-4.59-6.36a1.82 1.82 0 0 0-3.2.67l-.58 2.28q-.15.59.45.68l1.03.16q.92.14.85 1.07-.17 2.14-1.7 3.83-.32.37-.43.85-.66 3.07-.08 6.31.11.63-.53.67l-7.54.43M78.7 144.04q4.73-1.35 4.07-5.95-.1-.69-.76-.48-.97.3-1.53-.55c-.97-1.48-.02-3.06-1.21-4.33q-.56-.6.26-.63l1.26-.05q.63-.02.46-.62-.59-2.08 1.17-3.79a.74.72 52.5 0 0 .11-.9q-.26-.42-1-.68M84.23 121.48q.67.84.81 2.03.05.36.25.67.2.29.4.2.65-.28.94.37 1.51 3.41 1.91 6.81.08.63.66.36 1.32-.62 1.21-2.12a1.3 1.3 0 0 1 .43-1.05q.63-.57 1.43-.08.5.31 1.05.09l1.43-.56q.84-.33.77.57-.07.76.11 1.56c.34 1.55-.64 3.03-.5 4.75q.01.18.12.32.38.48.55-.1l.17-.58q.24-.8.77-.16.2.23.24.53a.95.95 0 0 0 .63.77q.94.32 1.59 1 .38.4.19.91l-1.11 3.02q-.24.66.46.61 1.44-.11 2.73 1.04.39.35.18.83-1.1 2.58 1.51 3.98.53.28.6.88l.36 3.35a.37.37 0 0 0 .61.24l2.39-2.1q.46-.41.97-.05.95.68 1.27 2.11a.27.26-11.5 0 0 .32.21l.4-.09q.33-.07.23-.39-.76-2.58.6-4.69.24-.39.17-.85-.42-2.61-2.16-2.67-.62-.03-.41-.62l2.47-6.69a1.07 1.06 26.1 0 1 1.57-.53q2.06 1.29 3.3-.84a1.59 1.58-81.8 0 1 1-.75q1.29-.32 2.44-1.04.47-.3.34-.84c-.67-2.68 1.13-4.28 2.55-6.21a.7.7 0 0 1 1.2.15q.79 1.88.84 3.75.02.73.74.62 1.13-.19 2.17.07.6.15.49.76c-.42 2.44.95 4.28 1.07 6.74q.18 4 1.47 7.28.43 1.08 1.65 1.3.55.1.9.53l.48.57q.51.61.7-.16l.93-3.59q.13-.52-.07-1.02-.47-1.17-.57-2.47a1.12 1.12 0 0 1 .66-1.11q.88-.4 1.31-1.27a.61.6-61.7 0 1 .85-.26q.61.35.9 1.01.54 1.21.7-.1.18-1.34 1.46-.99a1.12 1.12 0 0 0 1.33-.66l1.69-4.22a.55.54 38.9 0 1 .96-.1c1.56 2.27 3.22 4.45 3.6 7.28q.41 3 1.04 6.08.46 2.23 2.44 2.93.61.21 1.05-.27l1.35-1.51a.62.62 0 0 0-.06-.88q-1.41-1.21-1.26-2.92.05-.61.57-.95 4.18-2.71 6.08-6.49.29-.59.9-.32c3.27 1.45 5.06 5.01 6.73 8.08a1.22 1.21 78.2 0 0 .95.63q.95.09 1.86-.23.57-.19.65-.79l.29-2.25a.62.61 8.3 0 0-.51-.68c-2.04-.37-1.62-2.51-.8-3.73q2.57-3.86 1.61-8.77-.1-.51.41-.6 3.04-.54 6.48-.39c1.87.08 2.81-1.22 3.07-2.99q.05-.35-.26-.52-1.12-.59-2.24-.85a1.79 1.78 89.1 0 1-1.29-1.26l-1.5-5.4a3.21 3.2 56.7 0 1 .58-2.84q1.79-2.24 1.71-6.1-.01-.56-.41-.17-1.84 1.76-4.39-.5-.5-.45-.25-1.07l.1-.25a.61.61 0 0 0-.54-.85q-1.21-.04-2.21.57a.54.53-11.4 0 1-.81-.53q.05-.3-.17-.53-.42-.46-.59.14l-.98 3.35q-.16.52.26.88.32.28.74.38a.56.56 0 0 1 .14 1.03q-1.56.87-3.67 1.25-.5.09-.6-.4-.38-1.9-1.57-3.54a.48.47-21.8 0 0-.47-.2q-.19.03-.37.14-.61.35-.71-.35c-.2-1.32.9-2.56 1.68-3.52a.79.79 0 0 0-.12-1.12l-.92-.73q-.48-.38-.49-.99-.02-2.01-1.58-3.08-.48-.33-.57-.9c-.62-3.73 3.26-4.18 5.62-5.76a1.06 1.06 0 0 0 .04-1.74q-.42-.31-.93-.46-.59-.17-.64-.78-.1-1.21-.71-2.33-.32-.59.35-.66l1.65-.15q.72-.07.21-.59-.86-.88-.33-1.81 1.89-3.27-.86-5.41M174.7 71.88q.52.59.43 1.42-.02.21.08.39.07.12.23.12.46 0 .38-.45-.16-.87.46-1.37.6-.48.68.28.02.15.09.28.25.47.68.14 1.48-1.18 2.04-2.82" vector-effect="non-scaling-stroke"/><path d="M292.75 106.09q.19 1.83 1.45 2.31.48.18.82-.2.54-.62 1.16-.83M221.79 309.32q-.99-2.26-3.04-3.45-.56-.33-.63-.99-.21-1.92.62-3.79a.98.97-46.1 0 0-.01-.83q-.12-.24-.13-.5a.69.68 83 0 1 .54-.7l.79-.17q.46-.11.43-.58-.13-2.61-1.74-3.52a1.23 1.23 0 0 1 .07-2.17l4.3-2.13q.61-.3.82-.93.78-2.37-.94-3.66a1.95 1.9-75.6 0 1-.76-1.32q-.25-2.04-1.68-3.27-.54-.46-.01-.94 1.58-1.45 1.44-3.39-.04-.5-.54-.48-.16.01-.32.05-.54.14-.76-.37l-1.52-3.47q-.17-.39-.58-.29-1.67.39-3.1 1.07-1.68.81.05 1.51.39.16.59.47.25.41.08.85l-1.03 2.69q-.29.75-.76.1-.53-.73-1.39-.31-2.55 1.25-2-1.48.01-.05-.03-.08c-1.29-1.16-3.24-2.67-4.73-.8q-.41.52-.4-.14.01-3.47 1.98-6.47a3.19 3.18-37.3 0 0 .37-2.69q-.76-2.4-1.34-5.07-.34-1.54-1.79-1.65-.48-.04-.8-.39-.63-.67-1.31-.61M209.56 313.05q-1.84-1.28-1.67-3.62.01-.15-.14-.16l-.34-.04q-.24-.02-.3.21l-.17.64q-.14.52-.66.37-1.47-.41-2.76 1.46a.92.92 0 0 0 .2 1.25q.63.49.91 1.7" vector-effect="non-scaling-stroke"/></g><path d="M220.52 70.12q-2.01 2-3.2 5.41a.38.38 0 0 0 .42.51q.85-.13 1.51-.58.54-.38.7.27.03.15.09.3.19.47.63.7 2.16 1.12 1.19 3.89-.88 2.51-.93 4.89a.43.43 0 0 0 .73.31q1.6-1.61 3.65-2.51.45-.2.8.15.89.9.9 2.19.01.85.6 1.45l.5.51q.75.76.81-.31.17-3.36 3.27-4.95a.79.78 68.8 0 0 .4-.92q-.46-1.53-1.07-3.12-.54-1.41-1.85-.79-.59.28-.64-.37-.03-.54.3-.97.32-.4.14-.89-.65-1.78.92-2.02 7.75-1.43 13.12-1.25 1.98.06 4.34 1.9 3.6 2.82 6.71 5.47.58 3.25.27 4.17-1.13 3.34-1.63 7-.07.51.07 1.01l.47 1.63q.23.79-.58.87-1.03.1-1.09 1.1-.05.72.61.42l.53-.24q.58-.27.9.28.73 1.27.98 2.74.08.48.52.28l2.11-.96q.32-.14.31-.5-.01-1.56-.85-2.96a.77.76-13.5 0 1 .71-1.15q1.68.1 3.29-.6a.54.53-13.3 0 1 .75.46l.12 1.73q.03.62.63.74l2.81.59a1.14 1.14 0 0 0 1.2-.52q.78-1.28 2.74-1.26.62 0 .57.62c-.26 3.45.19 7.37-1.15 10.59q-1.17 2.81.32 7.15.22.62.69.16 1.2-1.19 1.21-2.66 0-.55.49-.8l1.65-.85q.48-.25.67.26.56 1.51 1.84 2.17a.86.86 0 0 0 .97-.13l1.56-1.44q.69-.63.79.3.07.74-.34 1.41-.3.47-.1.99.59 1.46.38 3.12-.32 2.53-.53 5.11-.05.54.22 1.01.32.57.44 1.23.13.74.7.25.5-.42.76-1.02.2-.48-.17-.83-.44-.41-.38-1.01.05-.44.45-.65 1.66-.84 3.21-.43.59.16 1.1-.17 1.25-.83 2.38-.09.37.24.41.68l.44 4.98q.04.44.32.77.69.82-.12 1.52-.12.11-.05.25.03.04.07.07.21.17.42-.01.73-.65 1.64-.78a.71.7-6.6 0 0 .6-.75q-.06-.72-.38-1.32-.26-.5.14-.89 1.61-1.57 2.5-3.42.28-.59.93-.56 1.8.08 3.17 1.5.41.43.78-.03l.39-.5q.36-.44.02-.89l-.83-1.14q-.32-.44-.08-.93.52-1.03.06-2.05-.25-.54.13-1 1.05-1.25 2.08-2.55.35-.43-.05-.81-.26-.24-.58-.09-.27.14-.59.03a.52.51 2.3 0 1-.34-.36l-.48-2.03q2.05.68 3.52 2.07.36.34.43.82 1.44 8.75.91 13.18t-1.46 9.29c-.77 3.97 3.06 5.36 3.04 8.58q-.08 8.66.01 16.98.05 5.2-1.56 14.18-4.59 25.49-8.27 48.63-1.61 10.13-3.56 20.2c-.85 4.36-1.12 8.93-1.75 13.47q-2.87-1.34-1.17-6.11.27-.75-.4-1.86-.31-.5-.47.06-.05.2-.05.39.01 1.17-.66.21-.91-1.3-2.48-1.93a.72.71-68.6 0 1-.4-.93l1.25-3.25q.23-.6-.42-.57-1.51.05-2.74-1.01-.45-.39-.22-.93.97-2.26-1.2-3.72a1.79 1.78-82.1 0 1-.72-.96q-.53-1.7-.45-3.41a.4.4 0 0 0-.67-.32l-2.36 2.17a.78.78 0 0 1-1.18-.15q-.6-.95-1.28-1.92-.13-.17-.32-.25-.16-.06-.32-.02-.33.09-.22.41.68 1.95 0 3.98-.15.46-.6.67-.56.26-.31.82c.45 1.01.56 1.81 1.4 2.63a.62.61 41.9 0 0 .9-.04q.21-.25.51-.15.51.18.28.67-.51 1.12-.84 2.24-.14.46-.94 1.99-.58 1.1-.74 2.32a1.34 1.34 0 0 1-2 .99q-2.12-1.22-3.35 1.31-.23.47-.75.45-1.53-.04-2.73.99-.37.32-.24.79.42 1.53.12 3.16-.07.4-.42.6-1.18.68-1.76 1.81-1.1 2.15-1.77-.17-.53-1.79-.63-3.64-.04-.67-.63-.35-1.07.56-2.24.3-.82-.19-.53-.98.69-1.87-.44-3.61-.38-.58-.42-1.28-.21-4.48-1.8-9.01a1.76 1.75 87.7 0 0-1.19-1.1q-1.08-.29-1.54-1.3-.49-1.09-.79.06l-.99 3.79a1.64 1.61-52.6 0 0 .15 1.21q1.49 2.62-.85 3.68-.43.19-.53.66-.08.42-.48.62a.51.51 0 0 1-.7-.2l-1.05-1.9q-.1-.17-.18-.19-.17-.04-.24.08-.17.29-.14.62.05.58-.12 1.12-.15.48-.63.33-1.58-.49-2.07 1.12-.57 1.87-1.36 3.79-.21.51-.69.25-.85-.45-.85-1.41a1.11 1.09-71.1 0 0-.4-.83q-2.32-1.9-2.66-5.24-.4-3.84-1.55-7.37a2.07 2.07 0 0 0-3.44-.82l-.77.78q-.69.7.03 1.37 1.2 1.14 1.28 2.67.02.52-.38.84-1.35 1.07-2.78 1.97-2.45 1.52-3.18 4.3a.88.88 0 0 1-1.34.51q-1.24-.82-2.39-1.68c-2.06-1.52-3.04-4.36-4.59-6.36a1.82 1.82 0 0 0-3.2.67l-.58 2.28q-.15.59.45.68l1.03.16q.92.14.85 1.07-.17 2.14-1.7 3.83-.32.37-.43.85-.66 3.07-.08 6.31.11.63-.53.67l-7.54.43q1.25-2.99 1.21-4.32-.09-3.54-1.21-13.88c-.93-8.49-.16-18.28-8.02-23.81q-3.05-2.14-9.25-3.07-8.19-1.22-11.01-1.21-7.01.03-14.03-.18c-2.11-.06-5.38-1.75-7.32-3.33q-13.9-11.34-18.64-14.75-14.22-10.23-30.65-11.72-5.43-.5-7.91-1.29-16.25-5.2-17.06-22.71c-.08-1.72.5-4.37-.06-6.85q-.57-2.54-1.86-5.15 4.73-1.35 4.07-5.95-.1-.69-.76-.48-.97.3-1.53-.55c-.97-1.48-.02-3.06-1.21-4.33q-.56-.6.26-.63l1.26-.05q.63-.02.46-.62-.59-2.08 1.17-3.79a.74.72 52.5 0 0 .11-.9q-.26-.42-1-.68l2.7-4.58q.67.84.81 2.03.05.36.25.67.2.29.4.2.65-.28.94.37 1.51 3.41 1.91 6.81.08.63.66.36 1.32-.62 1.21-2.12a1.3 1.3 0 0 1 .43-1.05q.63-.57 1.43-.08.5.31 1.05.09l1.43-.56q.84-.33.77.57-.07.76.11 1.56c.34 1.55-.64 3.03-.5 4.75q.01.18.12.32.38.48.55-.1l.17-.58q.24-.8.77-.16.2.23.24.53a.95.95 0 0 0 .63.77q.94.32 1.59 1 .38.4.19.91l-1.11 3.02q-.24.66.46.61 1.44-.11 2.73 1.04.39.35.18.83-1.1 2.58 1.51 3.98.53.28.6.88l.36 3.35a.37.37 0 0 0 .61.24l2.39-2.1q.46-.41.97-.05.95.68 1.27 2.11a.27.26-11.5 0 0 .32.21l.4-.09q.33-.07.23-.39-.76-2.58.6-4.69.24-.39.17-.85-.42-2.61-2.16-2.67-.62-.03-.41-.62l2.47-6.69a1.07 1.06 26.1 0 1 1.57-.53q2.06 1.29 3.3-.84a1.59 1.58-81.8 0 1 1-.75q1.29-.32 2.44-1.04.47-.3.34-.84c-.67-2.68 1.13-4.28 2.55-6.21a.7.7 0 0 1 1.2.15q.79 1.88.84 3.75.02.73.74.62 1.13-.19 2.17.07.6.15.49.76c-.42 2.44.95 4.28 1.07 6.74q.18 4 1.47 7.28.43 1.08 1.65 1.3.55.1.9.53l.48.57q.51.61.7-.16l.93-3.59q.13-.52-.07-1.02-.47-1.17-.57-2.47a1.12 1.12 0 0 1 .66-1.11q.88-.4 1.31-1.27a.61.6-61.7 0 1 .85-.26q.61.35.9 1.01.54 1.21.7-.1.18-1.34 1.46-.99a1.12 1.12 0 0 0 1.33-.66l1.69-4.22a.55.54 38.9 0 1 .96-.1c1.56 2.27 3.22 4.45 3.6 7.28q.41 3 1.04 6.08.46 2.23 2.44 2.93.61.21 1.05-.27l1.35-1.51a.62.62 0 0 0-.06-.88q-1.41-1.21-1.26-2.92.05-.61.57-.95 4.18-2.71 6.08-6.49.29-.59.9-.32c3.27 1.45 5.06 5.01 6.73 8.08a1.22 1.21 78.2 0 0 .95.63q.95.09 1.86-.23.57-.19.65-.79l.29-2.25a.62.61 8.3 0 0-.51-.68c-2.04-.37-1.62-2.51-.8-3.73q2.57-3.86 1.61-8.77-.1-.51.41-.6 3.04-.54 6.48-.39c1.87.08 2.81-1.22 3.07-2.99q.05-.35-.26-.52-1.12-.59-2.24-.85a1.79 1.78 89.1 0 1-1.29-1.26l-1.5-5.4a3.21 3.2 56.7 0 1 .58-2.84q1.79-2.24 1.71-6.1-.01-.56-.41-.17-1.84 1.76-4.39-.5-.5-.45-.25-1.07l.1-.25a.61.61 0 0 0-.54-.85q-1.21-.04-2.21.57a.54.53-11.4 0 1-.81-.53q.05-.3-.17-.53-.42-.46-.59.14l-.98 3.35q-.16.52.26.88.32.28.74.38a.56.56 0 0 1 .14 1.03q-1.56.87-3.67 1.25-.5.09-.6-.4-.38-1.9-1.57-3.54a.48.47-21.8 0 0-.47-.2q-.19.03-.37.14-.61.35-.71-.35c-.2-1.32.9-2.56 1.68-3.52a.79.79 0 0 0-.12-1.12l-.92-.73q-.48-.38-.49-.99-.02-2.01-1.58-3.08-.48-.33-.57-.9c-.62-3.73 3.26-4.18 5.62-5.76a1.06 1.06 0 0 0 .04-1.74q-.42-.31-.93-.46-.59-.17-.64-.78-.1-1.21-.71-2.33-.32-.59.35-.66l1.65-.15q.72-.07.21-.59-.86-.88-.33-1.81 1.89-3.27-.86-5.41c2.66 1.04 6.3 4 8.46.28q2.04-3.52 2.85-4.49.52.59.43 1.42-.02.21.08.39.07.12.23.12.46 0 .38-.45-.16-.87.46-1.37.6-.48.68.28.02.15.09.28.25.47.68.14 1.48-1.18 2.04-2.82 1.8-.02 4.74 1.12c2.11.81 4.74.47 6.85-.44q6.72-2.9 14.52-1.81c3.01.42 4.48-1.82 7.45-1.71q1.27.05 2.05 1.05a2.25 2.24 79.7 0 0 1.06.74z"/><path fill="#3f1927" d="M179.77 69.87q-.56 1.64-2.04 2.82-.43.33-.68-.14-.07-.13-.09-.28-.08-.76-.68-.28-.62.5-.46 1.37.08.45-.38.45-.16 0-.23-.12-.1-.18-.08-.39.09-.83-.43-1.42 1.96-2.29 5.07-2.01M220.52 70.12l9.87 3.15q-1.57.24-.92 2.02.18.49-.14.89-.33.43-.3.97.05.65.64.37 1.31-.62 1.85.79.61 1.59 1.07 3.12a.79.78 68.8 0 1-.4.92q-3.1 1.59-3.27 4.95-.06 1.07-.81.31l-.5-.51q-.59-.6-.6-1.45-.01-1.29-.9-2.19-.35-.35-.8-.15-2.05.9-3.65 2.51a.43.43 0 0 1-.73-.31q.05-2.38.93-4.89.97-2.77-1.19-3.89-.44-.23-.63-.7-.06-.15-.09-.3-.16-.65-.7-.27-.66.45-1.51.58a.38.38 0 0 1-.42-.51q1.19-3.41 3.2-5.41M163.39 76.09q2.75 2.14.86 5.41-.53.93.33 1.81.51.52-.21.59l-1.65.15q-.67.07-.35.66.61 1.12.71 2.33.05.61.64.78.51.15.93.46a1.06 1.06 0 0 1-.04 1.74c-2.36 1.58-6.24 2.03-5.62 5.76q.09.57.57.9 1.56 1.07 1.58 3.08.01.61.49.99l.92.73a.79.79 0 0 1 .12 1.12c-.78.96-1.88 2.2-1.68 3.52q.1.7.71.35.18-.11.37-.14a.48.47-21.8 0 1 .47.2q1.19 1.64 1.57 3.54.1.49.6.4 2.11-.38 3.67-1.25a.56.56 0 0 0-.14-1.03q-.42-.1-.74-.38-.42-.36-.26-.88l.98-3.35q.17-.6.59-.14.22.23.17.53a.54.53-11.4 0 0 .81.53q1-.61 2.21-.57a.61.61 0 0 1 .54.85l-.1.25q-.25.62.25 1.07 2.55 2.26 4.39.5.4-.39.41.17.08 3.86-1.71 6.1a3.21 3.2 56.7 0 0-.58 2.84l1.5 5.4a1.79 1.78 89.1 0 0 1.29 1.26q1.12.26 2.24.85.31.17.26.52c-.26 1.77-1.2 3.07-3.07 2.99q-3.44-.15-6.48.39-.51.09-.41.6.96 4.91-1.61 8.77c-.82 1.22-1.24 3.36.8 3.73a.62.61 8.3 0 1 .51.68l-.29 2.25q-.08.6-.65.79-.91.32-1.86.23a1.22 1.21 78.2 0 1-.95-.63c-1.67-3.07-3.46-6.63-6.73-8.08q-.61-.27-.9.32-1.9 3.78-6.08 6.49-.52.34-.57.95-.15 1.71 1.26 2.92a.62.62 0 0 1 .06.88l-1.35 1.51q-.44.48-1.05.27-1.98-.7-2.44-2.93-.63-3.08-1.04-6.08c-.38-2.83-2.04-5.01-3.6-7.28a.55.54 38.9 0 0-.96.1l-1.69 4.22a1.12 1.12 0 0 1-1.33.66q-1.28-.35-1.46.99-.16 1.31-.7.1-.29-.66-.9-1.01a.61.6-61.7 0 0-.85.26q-.43.87-1.31 1.27a1.12 1.12 0 0 0-.66 1.11q.1 1.3.57 2.47.2.5.07 1.02l-.93 3.59q-.19.77-.7.16l-.48-.57q-.35-.43-.9-.53-1.22-.22-1.65-1.3-1.29-3.28-1.47-7.28c-.12-2.46-1.49-4.3-1.07-6.74q.11-.61-.49-.76-1.04-.26-2.17-.07-.72.11-.74-.62-.05-1.87-.84-3.75a.7.7 0 0 0-1.2-.15c-1.42 1.93-3.22 3.53-2.55 6.21q.13.54-.34.84-1.15.72-2.44 1.04a1.59 1.58-81.8 0 0-1 .75q-1.24 2.13-3.3.84a1.07 1.06 26.1 0 0-1.57.53l-2.47 6.69q-.21.59.41.62 1.74.06 2.16 2.67.07.46-.17.85-1.36 2.11-.6 4.69.1.32-.23.39l-.4.09a.27.26-11.5 0 1-.32-.21q-.32-1.43-1.27-2.11-.51-.36-.97.05l-2.39 2.1a.37.37 0 0 1-.61-.24l-.36-3.35q-.07-.6-.6-.88-2.61-1.4-1.51-3.98.21-.48-.18-.83-1.29-1.15-2.73-1.04-.7.05-.46-.61l1.11-3.02q.19-.51-.19-.91-.65-.68-1.59-1a.95.95 0 0 1-.63-.77q-.04-.3-.24-.53-.53-.64-.77.16l-.17.58q-.17.58-.55.1-.11-.14-.12-.32c-.14-1.72.84-3.2.5-4.75q-.18-.8-.11-1.56.07-.9-.77-.57l-1.43.56q-.55.22-1.05-.09-.8-.49-1.43.08a1.3 1.3 0 0 0-.43 1.05q.11 1.5-1.21 2.12-.58.27-.66-.36-.4-3.4-1.91-6.81-.29-.65-.94-.37-.2.09-.4-.2-.2-.31-.25-.67-.14-1.19-.81-2.03c2.62-5.17 4.5-8.93 9.16-11.65q2.83-1.65 7.66-2.79c10.33-2.42 20.76-4.88 30.57-8.1q3.94-1.29 8.05-4.15c6.49-4.52 9.07-10.46 10.42-17.96q.1-.56.53-.93c4.08-3.56 8.77-3.02 12.77.19M254.56 79.39q3.74 2.27 5.91 2.69 9.52 1.86 19.09 3.41c2.65.42 4.61 2.19 4.48 5.05q-.24 5 1.06 8.9 1.68 5.03 7.65 6.65.19 1.83 1.45 2.31.48.18.82-.2.54-.62 1.16-.83l1.58.83.48 2.03a.52.51 2.3 0 0 .34.36q.32.11.59-.03.32-.15.58.09.4.38.05.81-1.03 1.3-2.08 2.55-.38.46-.13 1 .46 1.02-.06 2.05-.24.49.08.93l.83 1.14q.34.45-.02.89l-.39.5q-.37.46-.78.03-1.37-1.42-3.17-1.5-.65-.03-.93.56-.89 1.85-2.5 3.42-.4.39-.14.89.32.6.38 1.32a.71.7-6.6 0 1-.6.75q-.91.13-1.64.78-.21.18-.42.01-.04-.03-.07-.07-.07-.14.05-.25.81-.7.12-1.52-.28-.33-.32-.77l-.44-4.98q-.04-.44-.41-.68-1.13-.74-2.38.09-.51.33-1.1.17-1.55-.41-3.21.43-.4.21-.45.65-.06.6.38 1.01.37.35.17.83-.26.6-.76 1.02-.57.49-.7-.25-.12-.66-.44-1.23-.27-.47-.22-1.01.21-2.58.53-5.11.21-1.66-.38-3.12-.2-.52.1-.99.41-.67.34-1.41-.1-.93-.79-.3l-1.56 1.44a.86.86 0 0 1-.97.13q-1.28-.66-1.84-2.17-.19-.51-.67-.26l-1.65.85q-.49.25-.49.8-.01 1.47-1.21 2.66-.47.46-.69-.16-1.49-4.34-.32-7.15c1.34-3.22.89-7.14 1.15-10.59q.05-.62-.57-.62-1.96-.02-2.74 1.26a1.14 1.14 0 0 1-1.2.52l-2.81-.59q-.6-.12-.63-.74l-.12-1.73a.54.53-13.3 0 0-.75-.46q-1.61.7-3.29.6a.77.76-13.5 0 0-.71 1.15q.84 1.4.85 2.96.01.36-.31.5l-2.11.96q-.44.2-.52-.28-.25-1.47-.98-2.74-.32-.55-.9-.28l-.53.24q-.66.3-.61-.42.06-1 1.09-1.1.81-.08.58-.87l-.47-1.63q-.14-.5-.07-1.01.5-3.66 1.63-7 .31-.92-.27-4.17"/><path d="M296.18 107.37q-.62.21-1.16.83-.34.38-.82.2-1.26-.48-1.45-2.31z"/><path fill="#3f1927" d="M78.7 144.04q-1.16-4.44-1-9.55.07-2.33 1.3-4.43 1.21-2.07 2.53-4 .74.26 1 .68a.74.72 52.5 0 1-.11.9q-1.76 1.71-1.17 3.79.17.6-.46.62l-1.26.05q-.82.03-.26.63c1.19 1.27.24 2.85 1.21 4.33q.56.85 1.53.55.66-.21.76.48.66 4.6-4.07 5.95M289.07 255.6q-.37 5.04.66 9.17 1.3 5.21-2.85 7.53-13.8 7.7-27.62 17.25c-11.27 7.78-24.16 15.06-37.47 19.77q-.99-2.26-3.04-3.45-.56-.33-.63-.99-.21-1.92.62-3.79a.98.97-46.1 0 0-.01-.83q-.12-.24-.13-.5a.69.68 83 0 1 .54-.7l.79-.17q.46-.11.43-.58-.13-2.61-1.74-3.52a1.23 1.23 0 0 1 .07-2.17l4.3-2.13q.61-.3.82-.93.78-2.37-.94-3.66a1.95 1.9-75.6 0 1-.76-1.32q-.25-2.04-1.68-3.27-.54-.46-.01-.94 1.58-1.45 1.44-3.39-.04-.5-.54-.48-.16.01-.32.05-.54.14-.76-.37l-1.52-3.47q-.17-.39-.58-.29-1.67.39-3.1 1.07-1.68.81.05 1.51.39.16.59.47.25.41.08.85l-1.03 2.69q-.29.75-.76.1-.53-.73-1.39-.31-2.55 1.25-2-1.48.01-.05-.03-.08c-1.29-1.16-3.24-2.67-4.73-.8q-.41.52-.4-.14.01-3.47 1.98-6.47a3.19 3.18-37.3 0 0 .37-2.69q-.76-2.4-1.34-5.07-.34-1.54-1.79-1.65-.48-.04-.8-.39-.63-.67-1.31-.61l1.98-3.11 7.54-.43q.64-.04.53-.67-.58-3.24.08-6.31.11-.48.43-.85 1.53-1.69 1.7-3.83.07-.93-.85-1.07l-1.03-.16q-.6-.09-.45-.68l.58-2.28a1.82 1.82 0 0 1 3.2-.67c1.55 2 2.53 4.84 4.59 6.36q1.15.86 2.39 1.68a.88.88 0 0 0 1.34-.51q.73-2.78 3.18-4.3 1.43-.9 2.78-1.97.4-.32.38-.84-.08-1.53-1.28-2.67-.72-.67-.03-1.37l.77-.78a2.07 2.07 0 0 1 3.44.82q1.15 3.53 1.55 7.37.34 3.34 2.66 5.24a1.11 1.09-71.1 0 1 .4.83q0 .96.85 1.41.48.26.69-.25.79-1.92 1.36-3.79.49-1.61 2.07-1.12.48.15.63-.33.17-.54.12-1.12-.03-.33.14-.62.07-.12.24-.08.08.02.18.19l1.05 1.9a.51.51 0 0 0 .7.2q.4-.2.48-.62.1-.47.53-.66 2.34-1.06.85-3.68a1.64 1.61-52.6 0 1-.15-1.21l.99-3.79q.3-1.15.79-.06.46 1.01 1.54 1.3a1.76 1.75 87.7 0 1 1.19 1.1q1.59 4.53 1.8 9.01.04.7.42 1.28 1.13 1.74.44 3.61-.29.79.53.98 1.17.26 2.24-.3.59-.32.63.35.1 1.85.63 3.64.67 2.32 1.77.17.58-1.13 1.76-1.81.35-.2.42-.6.3-1.63-.12-3.16-.13-.47.24-.79 1.2-1.03 2.73-.99.52.02.75-.45 1.23-2.53 3.35-1.31a1.34 1.34 0 0 0 2-.99q.16-1.22.74-2.32.8-1.53.94-1.99.33-1.12.84-2.24.23-.49-.28-.67-.3-.1-.51.15a.62.61 41.9 0 1-.9.04c-.84-.82-.95-1.62-1.4-2.63q-.25-.56.31-.82.45-.21.6-.67.68-2.03 0-3.98-.11-.32.22-.41.16-.04.32.02.19.08.32.25.68.97 1.28 1.92a.78.78 0 0 0 1.18.15l2.36-2.17a.4.4 0 0 1 .67.32q-.08 1.71.45 3.41a1.79 1.78-82.1 0 0 .72.96q2.17 1.46 1.2 3.72-.23.54.22.93 1.23 1.06 2.74 1.01.65-.03.42.57l-1.25 3.25a.72.71-68.6 0 0 .4.93q1.57.63 2.48 1.93.67.96.66-.21 0-.19.05-.39.16-.56.47-.06.67 1.11.4 1.86-1.7 4.77 1.17 6.11"/><path d="M202.53 259.42q.68-.06 1.31.61.32.35.8.39 1.45.11 1.79 1.65.58 2.67 1.34 5.07a3.19 3.18-37.3 0 1-.37 2.69q-1.97 3-1.98 6.47-.01.66.4.14c1.49-1.87 3.44-.36 4.73.8q.04.03.03.08-.55 2.73 2 1.48.86-.42 1.39.31.47.65.76-.1l1.03-2.69q.17-.44-.08-.85-.2-.31-.59-.47-1.73-.7-.05-1.51 1.43-.68 3.1-1.07.41-.1.58.29l1.52 3.47q.22.51.76.37.16-.04.32-.05.5-.02.54.48.14 1.94-1.44 3.39-.53.48.01.94 1.43 1.23 1.68 3.27a1.95 1.9-75.6 0 0 .76 1.32q1.72 1.29.94 3.66-.21.63-.82.93l-4.3 2.13a1.23 1.23 0 0 0-.07 2.17q1.61.91 1.74 3.52.03.47-.43.58l-.79.17a.69.68 83 0 0-.54.7q.01.26.13.5a.98.97-46.1 0 1 .01.83q-.83 1.87-.62 3.79.07.66.63.99 2.05 1.19 3.04 3.45l-12.23 3.73q-1.84-1.28-1.67-3.62.01-.15-.14-.16l-.34-.04q-.24-.02-.3.21l-.17.64q-.14.52-.66.37-1.47-.41-2.76 1.46a.92.92 0 0 0 .2 1.25q.63.49.91 1.7l-10.56.03q-.63 0-.94-.55-1-1.74-2.16-3.64c-1.34-2.21-1.09-5.03-.35-7.34q5.3-16.57 7.35-34.88.28-2.47 1.52-4.61 1.34-2.32 3.04-4.45"/><path fill="#3f1927" d="M209.56 313.05q-2.58 2.01-4.93 1.81-.28-1.21-.91-1.7a.92.92 0 0 1-.2-1.25q1.29-1.87 2.76-1.46.52.15.66-.37l.17-.64q.06-.23.3-.21l.34.04q.15.01.14.16-.17 2.34 1.67 3.62"/></svg>