<svg xmlns="http://www.w3.org/2000/svg" viewBox="0 0 382 382"><defs><clipPath id="a"><path d="M206.44 314.67h-12.95c-1.21-2.51-3.68-5.19-3.38-7.49.75-5.57 2.98-10.93 4.26-16.45 1.32-5.69 2.27-11.47 3.26-17.23.45-2.59 0-5.5 1.03-7.79 1.44-3.23 4.06-5.91 5.79-9.04.92-1.65 1.56-3.78 1.43-5.63-.52-7.52-1.58-15.01-2.06-22.53-.5-7.85-4.73-14.92-12.25-16.61-7.27-1.63-14.94-2.3-22.38-1.99-5.67.24-10.44-.05-14.85-3.97-4.27-3.81-9.03-7.07-13.42-10.76-10.97-9.21-23.3-14.58-37.79-15.62-13.59-.97-23.89-11.32-22.18-27.83.35-3.39-1.96-7.06-3.05-10.6v-8.98c2.87-4.82 6.05-9.49 8.52-14.51 2.88-5.83 7.45-8.74 13.57-10.16 9.19-2.13 18.35-4.43 27.43-6.98 11.92-3.35 20.95-9.71 22.65-23.23.12-.97 1.37-2.05 2.36-2.6 5.11-2.85 9.16.46 13.25 2.7 3.34 1.83 5.3 1.31 7.01-2.2 2.7-5.54 6.16-6.44 11.54-4.15 1.78.76 4.49 1 6.09.17 5.44-2.82 11-2.87 16.83-2.25 1.35.14 2.85-1.04 4.28-1.61h2.99c.54.52.99 1.31 1.63 1.51 5.05 1.63 10.13 3.21 15.24 4.64.82.23 1.86-.51 2.81-.58 3.67-.27 7.73-1.53 10.93-.39 3.66 1.3 6.42 4.96 9.83 7.21 2.03 1.34 4.48 2.32 6.87 2.81 5.88 1.22 11.85 2.03 17.76 3.08 3.22.57 4.62 2.39 4.46 5.87-.12 2.71.25 5.59 1.09 8.16 2.07 6.3 8.55 6.38 13.31 8.91 1.21.64 3.07 1.46 3.22 2.42.65 4.02 1.13 8.15.98 12.21-.15 4.04-1.57 8.05-1.56 12.07 0 1.96 2.01 3.91 3.1 5.87v22.94c-.77 4.18-1.59 8.36-2.3 12.55-1.89 11.1-3.76 22.2-5.6 33.31-1.17 7.08-2.2 14.17-3.41 21.24-.71 4.18-1.82 8.29-2.44 12.48-.7 4.73-1.27 9.5-1.46 14.27-.12 2.91.57 5.85.94 8.77.33 2.58-.56 4.1-3.01 5.47-6.85 3.82-13.69 7.76-20.12 12.23-17.42 12.11-35.35 23.07-56.19 28.34-1.42.36-2.71 1.27-4.06 1.93z"/></clipPath></defs><g clip-path="url(#a)"><svg xmlns="http://www.w3.org/2000/svg" width="382" height="382" style="shape-rendering:geometricPrecision"><path fill="#a543b7" stroke="#a543b7" d="m235.864 102.559-12.13-16.202 36.862-30.693 14.094 11.103-29.005 29.798z"/><path fill="#223dc1" stroke="#223dc1" d="m0 315.304 56.723 13.54-.74 12.894L0 356.787zM48.768 59.317 0 42.267V24.022l46.817 3.767 12.136 8.797.102.314zM230.097 264.547l14.628 28.549-28.04 44.603-63.422-2.483-7.719-12.712 65.446-58.225z"/><path fill="#a543b7" stroke="#a543b7" d="M382 0v70.362l-53.233-4.587-1.389-14.725L339.678 0zM138.663 266.515l1.99 53.404-8.942-.371-45.78-13.702-.902-22.627 23.54-36.174zM216.676 80.568l-15.408-41.617 24.39-36.246 34.938 52.96-36.862 30.692z"/><path fill="#223dc1" stroke="#223dc1" d="m103.158 208 5.412 39.045-23.54 36.174-10.759-12.446-27.1-37.623 48.698-33.934zM305.236 168.782l34.776-.271.701 37.91-21.956 12.412-15.234-.17-34.189-23.078.457-17.414z"/><path fill="#a543b7" stroke="#a543b7" d="m83.644 382 48.067-62.452 8.941.37 4.892 2.586 7.72 12.712 1.83 46.784z"/><path fill="#223dc1" stroke="#223dc1" d="m155.095 382-1.832-46.784 63.423 2.483 10.757 30.122-.494 14.179z"/><path fill="#a543b7" stroke="#a543b7" d="m189.152 100.167-15.147-.325 4.687-31.702 14.35-26.452 8.226-2.737 15.408 41.617z"/><path fill="#223dc1" stroke="#223dc1" d="m47.171 233.15 27.1 37.623-41.514 5.369-4.492-4.119-5.001-35.764zM77.222 43.331 59.055 36.9l-.102-.314L81.246 0h42.356l5.965 36.718z"/><path fill="#a543b7" stroke="#a543b7" d="M81.246 0 58.953 36.586l-12.136-8.797L42.053 0zM201.272 122.497l-12.12-22.33 27.524-19.599 7.058 5.79 12.13 16.2 2.067 36.254z"/><path fill="#223dc1" stroke="#223dc1" d="m319.483 268.618 36.597 16.798-19.374 43.426-28.649-6.352-30.265-16.405 37.667-37.995zM0 382v-25.213l55.984-15.049L60.114 382z"/><path fill="#223dc1" stroke="#223dc1" d="m277.792 306.085 30.265 16.405-21.169 51.72-17.828-29.737 1.038-38.064zM382 382h-23.289l-22.005-53.158 19.374-43.426 25.92-12.7z"/><path fill="#a543b7" stroke="#a543b7" d="m169.807 127.504-24.013 31.924-32.173-.55-5.957-26.081 4.671-32.798 11.403-9.928 2.099.423 39.603 14.15zM112.335 99.999l-17.906-8.23L77.222 43.33l52.345-6.613 1.606 2.372-7.435 50.981zM239.227 248.832l70.652 11.163 5.58 8.095-37.667 37.995-7.694.324-25.373-13.313-14.628-28.55z"/><path fill="#223dc1" stroke="#223dc1" d="m0 225.667 23.264 10.592 5 35.764L0 311.7zM358.656 157.57l11.345-4.52L382 154.848v72.779l-41.287-21.207-.701-37.91z"/><path fill="#a543b7" stroke="#a543b7" d="M53.51 168.665 0 177.194v-48.566L32.224 110.5l15.49 15.06zM94.43 91.768l-46.112-5.102-1.926-12.882 2.376-14.467L59.055 36.9l18.167 6.431z"/><path fill="#223dc1" stroke="#223dc1" d="m303.523 218.662 15.234.17 16.983 17.862-16.257 31.924-4.024-.528-5.58-8.095zM0 67.714l21.453 26.393L0 86.46z"/><path fill="#a543b7" stroke="#a543b7" d="m197.069 155.874-19.485-26.131 23.688-7.246 36.66 16.315 4.498 10.772-25.438 9.51z"/><path fill="#223dc1" stroke="#223dc1" d="m245.685 96.565 29.005-29.798 48.316 6.96-.112.715-10.444 16.726-9.87 9.283zM289.14 382l-2.252-7.79 21.17-51.72 28.648 6.352L358.71 382z"/><path fill="#a543b7" stroke="#a543b7" d="m193.041 41.688-61.868-2.598-1.606-2.372L123.602 0h102.746l-.69 2.705-24.39 36.246zM107.664 132.797l5.957 26.08-17.702 28.657-42.409-18.87-5.795-43.104z"/><path fill="#223dc1" stroke="#223dc1" d="m42.053 0 4.764 27.789L0 24.022V0z"/><path fill="#a543b7" stroke="#a543b7" d="m0 86.459 21.453 7.648 12.026 12.856-1.255 3.537L0 128.628z"/><path fill="#223dc1" stroke="#223dc1" d="m226.95 382 .493-14.179 41.617-23.348 17.828 29.737 2.252 7.79zM107.664 132.797l-59.95-7.237-15.49-15.06 1.255-3.537 14.839-20.297 46.111 5.102 17.906 8.23zM312.45 91.168l10.444-16.726 47.107 78.608-11.345 4.52-39.51-27.081zM237.931 138.812l-2.067-36.253 9.821-5.994 56.895 3.886-44.728 58.32-15.422-9.187z"/><path fill="#a543b7" stroke="#a543b7" d="M46.392 73.784 0 60.225V42.267l48.768 17.05zM318.757 218.833l21.956-12.413L382 227.627v13.918l-46.26-4.851z"/><path fill="#223dc1" stroke="#223dc1" d="M260.596 55.664 225.66 2.705l.69-2.705h14.85l86.18 51.05 1.388 14.725-5.76 7.952-48.317-6.96z"/><path fill="#a543b7" stroke="#a543b7" d="m48.318 86.666-14.84 20.297-12.025-12.856L0 67.714v-7.489l46.392 13.56zM95.869 199.216 47.17 233.15l-23.907 3.109L0 225.667v-48.473l53.51-8.53 42.409 18.87z"/><path fill="#223dc1" stroke="#223dc1" d="m335.74 236.694 46.26 4.851v31.171l-25.92 12.7-36.597-16.798z"/><path fill="#a543b7" stroke="#a543b7" d="m103.158 208 62.778 17.917 4.484 10.515-31.757 30.083-30.093-19.47z"/><path fill="#223dc1" stroke="#223dc1" d="m197.069 155.874 19.923 3.22-24.881 36.053-15.662 5.159-19.328-34.129z"/><path fill="#a543b7" stroke="#a543b7" d="m339.678 0-12.3 51.05L241.198 0zM177.584 129.743l-7.777-2.239-4.367-22.86 8.565-4.802 15.147.325 12.12 22.33zM193.041 41.688 178.692 68.14l-52.855 22.354-2.1-.423 7.436-50.98z"/><path fill="#223dc1" stroke="#223dc1" d="m165.44 104.644-39.603-14.15 52.855-22.354-4.687 31.702zM305.236 168.782l-35.445 9.39-11.939-19.401 44.728-58.32 9.87-9.283 6.696 39.32zM216.686 337.7l28.04-44.604 25.372 13.313-1.038 38.064-41.617 23.348z"/><path fill="#a543b7" stroke="#a543b7" d="m157.121 166.177 19.328 34.129-10.513 25.611L103.158 208l-7.29-8.783.05-11.682 17.703-28.656 32.173.55z"/><path fill="#223dc1" stroke="#223dc1" d="m170.42 236.432 40.57 27.847-65.446 58.225-4.892-2.585-1.989-53.404zM305.236 168.782l13.91-38.293 39.51 27.082-18.644 10.94zM323.006 73.727l5.761-7.952L382 70.362v84.486l-12-1.798-47.106-78.608zM192.11 195.147l53.691 34.313-6.574 19.372-9.13 15.715-19.107-.268-40.57-27.847-4.484-10.515 10.513-25.611z"/><path fill="#a543b7" stroke="#a543b7" d="m85.93 305.846 45.78 13.702L83.645 382h-23.53l-4.13-40.262.739-12.893 11.495-13.554zM85.03 283.22l.9 22.626-17.712 9.445-35.461-39.15 41.514-5.368z"/><path fill="#223dc1" stroke="#223dc1" d="m216.992 159.093 25.438-9.51 15.422 9.188 11.939 19.4-.457 17.414-23.533 33.875-53.69-34.313z"/><path fill="#a543b7" stroke="#a543b7" d="m197.069 155.874-39.948 10.303-11.327-6.749 24.013-31.924 7.777 2.239z"/><path fill="#223dc1" stroke="#223dc1" d="m245.801 229.46 23.533-33.875 34.189 23.077 6.356 41.333-70.652-11.163z"/><path fill="#a543b7" stroke="#a543b7" d="m0 311.699 28.265-39.676 4.492 4.119 35.46 39.149-11.494 13.554L0 315.305z"/></svg></g></svg>