<svg xmlns="http://www.w3.org/2000/svg" viewBox="0 0 382 382"><g fill="none" stroke="#126c67" stroke-width="2"><path d="M219.07 69.63q-.1 1.1 1.42 1.56a.91.91 0 0 1 .64.87c.02 2.33-2.65 3.27-4.41 4.02q-.55.23-.26.75.53.97.59 2.1.04.67.63.98.34.17.72.03.44-.17.52-.64l.14-.76a.49.49 0 0 1 .84-.25q.76.8 1.19 1.84a1.44 1.43 1.8 0 0 .72.76q1.42.67 1.57 2.21.29 2.88-1.85 4.34-.41.28-.01.59.6.47.52 1.2a.84.82-.5 0 1-.73.73q-1.22.15-1.3 1.27-.05.81.67.42l.42-.23a.9.88-38.8 0 1 1 .1q.88.74.99 2.05a.21.2 64.6 0 0 .35.13q2.07-2.17 1.04-3.75-.8-1.24.65-.89 2.54.62 3.13-1.53.17-.61.83-.57a.88.88 0 0 1 .79.67q.68 2.8 3.26 4.13.37.19.75.01.4-.19.58-.61a1.32 1.3-50.1 0 0-.1-1.2q-1.23-1.94-.53-3.68.19-.46-.13-.84-.33-.41-.44-.94-.09-.45.27-.73 1.34-1.03 3.38-.83a.09.09 0 0 0 .08-.15q-3.67-4.64-3.7-4.69-.28-.34-.64-.12-.33.2-.64.48-1.15 1.07-1.06-.49.13-2.17.92-4.58M240.22 72.14q.87 1.48.93 3.39.02.39.37.23.71-.31 1.21-1.03.36-.51.14-1.1-.25-.68-1.14-1.54M245.34 72.51q-.36.63-.03 1.1a.3.3 0 0 0 .48.01l.59-.73M255.17 79.88q0 2.21 1.37 4.27.31.47-.06.9-.69.83-1.82.97-.81.1-.3.74.8 1.01.69 2.34-.05.55-.56.75l-1.31.53q-1.83.75-.09 1.68c1.05.57 1.88 2.14 1.28 3.38q-.72 1.49-1.81 2.55-.34.33-.21.78.09.3.33.52a1.13 1.13 0 0 0 .94.25q1.49-.26 3.01.75.43.28.42.8l-.01 2.2q-.01.65.6.41.58-.23.93-.75.29-.43-.01-.85-1.01-1.42.39-2.6a.79.78-57.7 0 1 .7-.16q.38.1.67.38.37.36.58-.12.17-.38-.02-.76-.81-1.64-1.53-3.17-.32-.67.33-1.03 1.51-.84 3.31-.65.7.08.9.76.22.74.11 1.49-.08.48.39.36 1.67-.45 3.72.97.9.63.48-.39-.13-.32-.37-.58a.95.94-29.5 0 1 .43-1.53q.86-.27 1.7 0 .63.2.66.85.08 1.51-.85 2.7a.82.82 0 0 0 .63 1.33q1.46.03.97 1.41-.82 2.33-1.67 4.54-.26.69.38 1.08.17.1.23.28.25.73-.51.71l-1.47-.03q-.97-.03-.47.81.49.82 1.45 1.35a.46.45-37.2 0 1-.12.84q-.38.09-.78.02-.72-.13-.73.59l-.05 1.94q-.02.7.52.24.35-.31.8-.4.61-.12.95.4.83 1.23.76 2.78-.03.66.48.23.79-.68.5-1.81-.16-.63.49-.65.4-.01.59.37.11.22.34.17.06-.02.1-.06.21-.24.08-.53-.66-1.44-1.5-2.64a.36.35-20.1 0 1 .26-.55c1.46-.13 3.15-.05 4.23.99q.59.56 1.27.94.46.25.81-.13l1.19-1.27q.92-.98 1.01.36.06.76-.48 1.3-.51.5.11.85.54.31.89.8.3.42.06.88-.86 1.66-.85 3.47c.02 1.6-.5 2.53-.82 3.97q-.1.46-.48.74-.24.18-.53.25-.83.18-.32.85.73.96 1.72.37.5-.31.89.14.67.78.95 1.78.18.63.62.15 2.01-2.18.44-4.21a.74.74 0 0 1 .58-1.2l4.62-.02a.41.4-14.3 0 0 .36-.6q-.67-1.21.4-2.17a.6.6 0 0 1 .96.26l1.62 4.89q.13.39-.11.72l-.29.41a.42.42 0 0 0 .5.63q.24-.1.46-.02.71.23.21.77-.24.26-.29.61-.05.33.08.65 1.03 2.46.83 5.29 0 .11.03.21.09.22.31.21a.5.5 0 0 0 .49-.48q.06-1.61 1.02-2.95.5-.71 1.04-.03.64.8 1.49 1.31.82.48.52-.42l-1.22-3.62q-.19-.57-.76-.74-.38-.11-.7-.33-.41-.27-.21-.72.92-1.99 2.15-3.54c.77-.97.81-1.99 1.11-3.14a1.19 1.19 0 0 1 1.67-.77l2.89 1.39M298.34 198.24q-1.27-.02-1.74.76-.27.46.02.91.42.64 1.22.85M289.38 252.69q-.42-.73-1.57-.81-.41-.02-.56-.41-.1-.27.22-.37.56-.18.32-.72-.19-.44-.61-.43-1.69.04-.43-1.08 1.83-1.64.94-4.51a.57.57 0 0 0-.9-.29q-1.52 1.16-3.4-.38a1.27 1.26-62.2 0 1-.41-1.34q.58-1.95 1.64-3.64.12-.19.05-.41-.12-.4-.39-.08l-.31.35q-.48.55-.77-.12-.72-1.66-1.92-2.96-.38-.42-.09-.9.78-1.26.84-2.84.02-.58-.52-.38-1.49.56-3.04-.58-.38-.28-.42-.76-.4-4.01.75-7.04.4-1.05-.59-.51-.71.37-1.35 0-.63-.36-.68.36l-.14 1.81q-.05.58-.52.92l-2.61 1.89q-.48.35-1 .06l-1.95-1.05q-1.38-.74-.94.76c.64 2.21 2 4.86-.35 6.64q-1.4 1.06.36 1.08 1.16.02 2.16.6a.74.73 35.3 0 0 .91-.15q.71-.79 1.22 1.21.27 1.04 0 2.07-.64 2.56-2.76 4.2-.51.41-.17.96l.26.41a.53.52-19.9 0 1-.38.8q-.75.1-1.44-.1a1.07 1.07 0 0 1-.66-.55l-1.4-2.86q-.64-1.31-.71.15l-.13 2.39a1.58 1.57-15.5 0 1-.7 1.23q-1 .66-2.27.74a1.9 1.9 0 0 0-1.54 2.8q.48.88.56 1.88.05.59-.42.96-.24.2-.56.21-.67.01-.78.67-.12.78-.28 1.6-.28 1.43-.93.13-1.12-2.23-1.05-4.59.02-.57-.52-.39-1.42.49-2.97-.53-.76-.5-.24-1.26.81-1.18.72-2.65-.03-.49-.48-.65l-.79-.29q-.6-.22-.58-.86.01-.45.28-.82.32-.45.12-.95l-1.03-2.76q-.18-.47.2-.8.72-.62 1.13-1.48.32-.68-.4-.91l-.5-.17q-.72-.24-.76-.99-.11-1.95.16-3.85.24-1.63-.55-3.2-.13-.27-.37-.08-.22.19-.21.48.15 2.5-2.58 3.17-.44.11-.58-.32-.24-.69-.57-1.37-.25-.52-.76-.66-.58-.16-1.07.28-.45.4-.2.95.54 1.22.63 2.68a.68.68 0 0 1-.99.64q-.34-.17-.63.01-.48.31-.09.73l2.01 2.1a2.44 2.43 46.7 0 1-.1 3.47q-.99.92-1.4 2.22-.23.72-.78.2-.9-.87-1.13-2.08-.11-.55-.58-.24-.37.25-.25.71a.45.44.5 0 1-.56.54q-1.7-.47-3.31.86-.42.35-.15.83l.82 1.49q.43.78-.45.94-1.45.25-1.54 1.84a.35.34 4 0 1-.38.32l-.32-.03q-.16-.02-.16-.18l-.05-3.92q-.02-.93-.78-.39-.71.49-1.53.59a.6.6 0 0 1-.67-.62q.03-.93.7-1.59.35-.35.24-.82-.18-.76-1-.83a.96.95-70.2 0 1-.7-1.5q1.04-1.48-.65-2.46a.64.63 35.1 0 1-.17-.95l1.43-1.7a.71.7 26.8 0 0-.38-1.14q-2.2-.52-1.04-3.02.95-2.05-.75-3.08-.59-.36-.47.32.07.38.37.63.68.57-.19.74-1.36.28-2.67.05-.55-.1-.67-.65-.23-1.16-1.22-1.82-.89-.61-.68.45.16.8.57 1.54.26.48.02.98c-.72 1.47-2.71 4.06-.48 5.34q.42.25.4-.24-.02-.53-.45-.76-.33-.18-.08-.45l.2-.23q.09-.09.19-.02c2.81 1.92 1.09 4.47-1.18 5.79a.71.7-35.7 0 1-.88-.14q-.48-.56-.58-1.35a.34.33 88.8 0 0-.29-.28l-.26-.02q-.23-.02-.24.21l-.16 2.62q-.04.59-.56.86l-1.67.85q-.57.29-.35.89.67 1.86.61 3.91-.02.56-.57.63-.4.05-.74-.13a1.65 1.65 0 0 1-.81-.95q-.23-.7-.89-.45-.57.22-.97-.24l-2.46-2.78q-.35-.4-.51-.91l-.36-1.17a.89.88-6.7 0 0-.79-.62q-.66-.05-.77-.63-.1-.54.24-.96.53-.65.58-1.47a.61.61 0 0 0-.57-.64l-2.71-.18a.83.83 0 0 1-.74-1.06l.74-2.51a2.17 2.17 0 0 0-.81-2.38q-.89-.64-1-1.57-.02-.19-.18-.27-.15-.08-.33-.09-.25-.01-.25.24l-.06 2.71q-.01.57.43.94.22.18.21.45-.01.57-.56.46-.29-.06-.54.19-.29.28-.38.67l-.84 3.59M80.8 149.38q.86-.91.49-3.63-.13-.92.56-.29.12.11.29.19.68.3.76-.44.17-1.51.86-2.82a1.13 1.12-51.5 0 0-.14-1.26l-.3-.36q-.73-.86.39-.69.5.07.9-.18.61-.4-.05-.7l-1.79-.81q-.66-.29-.8.42l-.14.65q-.13.63-.69.3-.42-.25-.71-.65-.4-.56.02-1.11.74-.98.03-2-.35-.51.08-.95 1.12-1.14 1.5-2.79c.25-1.08 1.11-1.94 1.81-2.77a.78.77-47.3 0 0-.04-1.04q-1.73-1.77.32-3.17a.51.5 71.2 0 1 .79.39l.09 1.42q.05.87.81.45l.92-.5q.91-.51.86.54-.25 4.65 2.37 7.97.85 1.08.92-.29l.12-2.46q.03-.54.56-.6 1.58-.19 2.93-.96.36-.21.79-.27.42-.05.55.33a.51.51 0 0 1-.22.61q-.3.17-.36.48-.14.67.54.58.55-.08.85.34.27.37-.1.64-2.08 1.52-1.54 4.5.09.48.57.51.6.04 1.04-.3a1.19 1.18 31.3 0 1 .92-.22q1.19.21 2.11.85a.84.83 22.8 0 1 .35.84q-.43 2.38-1.69 4.36-.29.45.2.24.34-.14.36-.51a.27.27 0 0 1 .41-.21q.5.29.52.88a1.1 1.06 24 0 0 .26.64l1.66 1.9q.39.44.09.96-.73 1.28-.91 2.91-.07.68.55.39 1.48-.71 3.01.6.41.34.45.87.39 4.08-.76 6.9-.39.96.54.5.78-.38 1.53.05.53.3.59-.31l.19-2.22a.9.87 75.9 0 1 .37-.64l2.61-1.84a.88.87-51.3 0 1 .85-.1l2.18.93q1.58.67.92-.91c-1-2.39-1.76-4.99.78-6.83q.53-.39-.1-.56-1.69-.47-3.6-.54a1.67 1.66-84.9 0 1-1.59-1.91q.53-3.51 2.85-5.54.55-.48.24-1.13l-.16-.36q-.28-.61.38-.69.76-.09 1.51.09.49.12.67.6.58 1.56 1.37 3.1.05.11.15.17.23.15.51-.28a.5.48-34.8 0 0 .07-.34q-.71-4.11 2.97-4.46c1.9-.18 2.49-1.97 1.24-3.46a1.46 1.46 0 0 1 .72-2.34q1.59-.46 1.03-2.33a.43.42-8.5 0 1 .41-.55q.18 0 .28.15 1.57 2.4 1.24 4.92-.12.87.68.53 1.41-.61 3.08.55a.7.7 0 0 1 .18.97q-.91 1.34-.82 2.96.04.67.7.78.61.1.99.55.36.42.02.87-.25.32-.3.72-.08.56.19 1.13.47 1.01.88 1.95.19.42-.1.79l-1.41 1.75a.53.53 0 0 0 .21.82l1.07.44q.54.22.58.81.13 2.18-.2 4.12-.28 1.61.63 2.84.09.12.24.09.37-.07.31-.44-.37-2.3 2.56-3.1.38-.1.47.28.21.98.94 1.79.28.3.69.23.72-.14 1.09-.79a.66.65-46.2 0 0-.01-.65q-.6-1.02-.61-2.33a.92.91 2.3 0 1 1-.92q.21.01.41-.03.71-.16.23-.71l-2.17-2.46a1.85 1.85 0 0 1-.15-2.25l1.97-2.97q.3-.45.73-.11.85.68.95 1.84.02.24.21.38.21.15.5-.06a.43.42 75.6 0 0 .17-.3l.06-.58q.07-.61.65-.39 1.49.56 3.27-.64.44-.3.18-.77l-.81-1.47a.89.89 0 0 1 .55-1.29q1.34-.36 1.25-1.82-.04-.52.43-.3l.36.16q.1.05.1.15l.16 3.88q.03.83.75.41.57-.34 1.24-.5.64-.17.86.46.16.45-.09.85l-.8 1.27q-.34.54.15.94.41.34.94.39.56.05.76.57.33.86-.49 1.52-.5.41 0 .82l1.31 1.07q.5.4.03.84l-1.28 1.16a1.11 1.1 31.4 0 0 .46 1.88q1.07.3 1.05 1.44-.01.96-.47 1.75-.87 1.49.82 2.67.43.3.46-.22.03-.47-.37-.66a.4.4 0 0 1 .08-.75q1.33-.29 2.67-.06.57.1.74.65.4 1.23 1.53 2 .58.39.51-.3-.08-.92-.61-1.71-.31-.46-.09-.97.69-1.59 1.51-3.2.29-.56.12-1.16-.26-.91-1.13-1.1-1.07-.24-.31.55.25.25.41.53.42.7-.32.37-1.51-.68-1.42-2.15.12-2.04 2.59-3.49a.83.83 0 0 1 1.25.66q.03.52.32.94a.34.33 30.1 0 0 .61-.16l.18-2.44q.03-.47.44-.71l1.94-1.16q.58-.34.27-.94-.88-1.72-.52-3.73.08-.42.48-.55.69-.24 1.14.37.17.23.24.51.08.34.27.64.21.32.54.13l.25-.15q.45-.27.84.09 2.55 2.38 3.46 4.87.19.53.71.71.28.09.51.25a.76.76 0 0 1 .24 1.01l-.68 1.22a.9.9 0 0 0 .77 1.34l2.37.05q.6.01.69.6.21 1.35-.53 2.42-.35.51.12.91.7.61.04 1.23-.55.51.18.68.85.2 1.12 1.04.74 2.3 1.04-.1.21-1.65-.44-3.08-.25-.56.35-.65 1.37-.22 1.05-1.66a1.16 1.15-6.8 0 1 1.11-1.4l4.48-.09q.86-.01.27-.64l-1.81-1.95q-.34-.37-.82-.47-.94-.19-1.74-.78a.54.53 37.8 0 1-.1-.75q.92-1.2.68-2.84-.11-.74-.69-.26-.71.61-1.56.83-.76.19-.29.82l.42.56q.24.32-.14.48-.19.08-.36-.04c-3.33-2.32 1.06-4.61-.91-7.25q-.49-.65.32-.62l1.52.05q1.1.04.34-.75c-.61-.63-.64-1.35-.24-2.1q.89-1.67.44-3.67-.14-.65-.64-.22l-.29.25q-.58.5-.77-.24-.74-2.86 1.32-3.61.6-.22.68-.86.1-.89.84-.39.18.12.4.08 2.25-.36 4.35-1.37a.3.3 0 0 1 .41.36q-.11.4.06.75.38.77.65-.04.42-1.25 1.36-1.91.56-.39.92.19.51.83 1.34 1.17.72.31.57-.47-.6-3.04-1.75-5.82-.18-.44.01-.87l1.34-3.13q.16-.36-.22-.45l-.34-.08a.55.54 13.6 0 0-.65.39q-.49 1.96-2.41 1.73-.72-.09-.92.6-.25.83-.01 1.73.05.21-.14.31l-.36.2q-.38.21-.44-.22-.09-.6-.36-1.11-.29-.54-.9-.6-.77-.09-.85-.81-.07-.63.4-1.06.49-.45.57-1.08.08-.73-.65-.84-1.34-.21-1.52-1.52-.07-.52-.52-.81-.38-.25-.62-.66-.17-.29-.09-.62l1.93-7.92q.14-.58-.44-.72-1.34-.31-2.19-1.52-.11-.16-.28-.23-.15-.06-.29.07a.39.39 0 0 0 0 .58q.2.18.29.43.13.4-.14.73-.86 1.06.11 2.08.16.16.18.39.02.18-.14.31-.51.43-1.03.02-1.07-.84-2.06.04a.91.9 70 0 1-1.5-.7q.02-1.44-.84-2.47-1-1.19-1.16.35l-.2 2.02q-.06.55-.56.78-1.29.59-1.8 2.3-.15.52.09 1.01l1.02 2.14a.55.55 0 0 1-.25.73q-1.33.67-2.6.92-.96.18-.35-.58.16-.2.28-.41.22-.4-.19-.6l-2.95-1.45q-.17-.08-.24-.26-.09-.24.05-.34.54-.37.23-.96-.37-.71-.05-1.4.24-.5.13-1.04l-.82-4.16a.77.77 0 0 0-.66-.61l-1.6-.19q-.59-.08-.59-.68l.03-1.94a1.14 1.13-15.3 0 1 .57-.98q.91-.53 1.5-1.43 1.19-1.83 3.53-2.65a.28.28 0 0 1 .37.2q.06.28.36.29.71.03.29-.54-.53-.72-.78-1.53a.47.47 0 0 0-.5-.33q-.27.03-.42.26a.51.51 0 0 1-.83.03q-.28-.37-.1-.85a.94.89 52.3 0 0 .05-.48q-.48-2.74 1.34-3.51.55-.23.08-.6-.78-.61-.32-1.44 1.26-2.27.38-3.99M175.13 71.38q2.42.59 1.96 2.48-.38 1.55.91.61.52-.37.91-.89.83-1.13 1.06.25.11.64.6 1.03.32.26.72.17.61-.16.3-.7-1.77-3.02 1.15-4M163.8 76.23q.02.63.22 1.02.22.44.72.45l1.77.01M301.26 110.21q-.24 1.25.59 2.29M219.24 310.27q-.44-1.52.2-2.05a.58.57 60.1 0 0 .17-.65l-.77-2.06q-.28-.76-.82-.16l-1.21 1.31q-.71.77-.59-.27.01-.08.08-.13.57-.37.26-.96-.98-1.88.2-3.92.3-.52-.02-1.02l-.26-.41q-.44-.71.38-.87l.37-.07q.61-.12.63-.74l.14-3.48q.04-1.12-.85-.43l-.29.23q-.7.54-.78-.34-.08-.87-.71-1.46-.51-.48.17-.6.22-.04.3.14.19.49.69.34 2.61-.78 3.67-2.83.22-.42.63-.65 1.87-1.01 1.07-3.53-.16-.52-.7-.54l-1.15-.05q-.68-.03-.87-.69-1.09-3.77-.69-7.61.05-.52-.42-.74l-2.56-1.25q-.48-.24-.13-.65l.23-.28a.56.55 35.7 0 0-.14-.84q-.28-.16-.57.03-1.02.65-2.24.97-.55.14-.3.66l1.13 2.24q.21.41.09.85-.48 1.76-1.94 2.55-.5.27-.56.84l-.21 2.22q-.07.65-.65.36-.5-.24-.74-.76-.48-1.03-.54-2.24a.76.75-7.6 0 0-.91-.69q-.6.13-1.11.49-.44.32-.9.02-.54-.35-1.16-.55-.9-.27-.57.61.09.25.28.44.37.4.38.94 0 .6-.43 1.02a.76.75 49.1 0 0-.06.99q.16.21.18.47.05.72-.46.21-1.18-1.19-2.48-1.78-.38-.17-.23-.55c.92-2.45.73-4.96 1.87-7.31q.21-.46-.01-.91-1.22-2.41-2.96-3.64-.4-.28-.25-.75.21-.67.69-1.28a.86.86 0 0 0-.63-1.39q-.93-.05-1.8-1.5M202.45 259.51q1.15-.51 1.63-1.66.2-.48.67-.69l.61-.27q.53-.24.5-.81l-.13-3.3M205.65 248.95q.9-2.03.57-4.32-.08-.5.12-.96 1.42-3.43-1.65-5.38M204.7 238.03q.05-.45-.11-.82" vector-effect="non-scaling-stroke"/><path d="M204.85 240.45q.04.44.42.51.34.06.45-.17.15-.29-.08-.52-.31-.31-.78-.19M215.17 311.46q-.01-.8-.28-1.04a.46.46 0 0 0-.77.35q0 .37.23.91M211.19 312.67q.02-.76-.31-1.21-.26-.37-.58-.05-.33.35-.2 1.57M208.66 313.6q-.65-2.02-2.17-3.04-.42-.29-.51-.79l-.23-1.27q-.14-.82-.65-.16l-1.08 1.41a.49.49 0 0 1-.69.09q-.39-.31-.35-.81.05-.73-.61-1.04-.37-.18-.77-.05-.65.22-.23.76.68.87.73 1.96.02.63-.48 1.01-.27.21-.59.36-2.28 1.15.13 1.95.33.11 1.4.74M233.29 93.34q0 .34.34.34.15-.01.21-.14.11-.24-.1-.41a.28.28 0 0 0-.45.21M185.23 113.25q-.21.64.32.62a.3.3 0 0 0 .29-.28q.02-.22-.09-.39a.29.29 0 0 0-.52.05M297.25 123.54q.05.08.14.07.19-.04.07-.19-.03-.05-.09-.06a.12.12 0 0 0-.12.18M111.21 142.64q.21.38.44-.01.21-.38-.22-.39-.45-.01-.22.4M182.34 145.35q-.26 0-.34.28-.07.28.22.27.21-.02.32-.18a.24.23 17.2 0 0-.2-.37M271.4 240.1q-.3.26-.12.62a.28.28 0 0 0 .48.04q.33-.46-.17-.69-.11-.05-.19.03M179.21 110.16q-.19.18-.14.43a.38.38 0 0 0 .41.31q.35-.04.55-.33a.39.38-71.8 0 0-.3-.6q-.3-.01-.52.19M203.38 272.17q-.38.23-.22.62a.27.27 0 0 0 .47.05q.18-.23.12-.51a.25.25 0 0 0-.37-.16" vector-effect="non-scaling-stroke"/></g><path d="M219.07 69.63q-.1 1.1 1.42 1.56a.91.91 0 0 1 .64.87c.02 2.33-2.65 3.27-4.41 4.02q-.55.23-.26.75.53.97.59 2.1.04.67.63.98.34.17.72.03.44-.17.52-.64l.14-.76a.49.49 0 0 1 .84-.25q.76.8 1.19 1.84a1.44 1.43 1.8 0 0 .72.76q1.42.67 1.57 2.21.29 2.88-1.85 4.34-.41.28-.01.59.6.47.52 1.2a.84.82-.5 0 1-.73.73q-1.22.15-1.3 1.27-.05.81.67.42l.42-.23a.9.88-38.8 0 1 1 .1q.88.74.99 2.05a.21.2 64.6 0 0 .35.13q2.07-2.17 1.04-3.75-.8-1.24.65-.89 2.54.62 3.13-1.53.17-.61.83-.57a.88.88 0 0 1 .79.67q.68 2.8 3.26 4.13.37.19.75.01.4-.19.58-.61a1.32 1.3-50.1 0 0-.1-1.2q-1.23-1.94-.53-3.68.19-.46-.13-.84-.33-.41-.44-.94-.09-.45.27-.73 1.34-1.03 3.38-.83a.09.09 0 0 0 .08-.15q-3.67-4.64-3.7-4.69-.28-.34-.64-.12-.33.2-.64.48-1.15 1.07-1.06-.49.13-2.17.92-4.58l8.34-1.25q.87 1.48.93 3.39.02.39.37.23.71-.31 1.21-1.03.36-.51.14-1.1-.25-.68-1.14-1.54 2.02-.25 3.61.42-.36.63-.03 1.1a.3.3 0 0 0 .48.01l.59-.73 8.79 6.99q0 2.21 1.37 4.27.31.47-.06.9-.69.83-1.82.97-.81.1-.3.74.8 1.01.69 2.34-.05.55-.56.75l-1.31.53q-1.83.75-.09 1.68c1.05.57 1.88 2.14 1.28 3.38q-.72 1.49-1.81 2.55-.34.33-.21.78.09.3.33.52a1.13 1.13 0 0 0 .94.25q1.49-.26 3.01.75.43.28.42.8l-.01 2.2q-.01.65.6.41.58-.23.93-.75.29-.43-.01-.85-1.01-1.42.39-2.6a.79.78-57.7 0 1 .7-.16q.38.1.67.38.37.36.58-.12.17-.38-.02-.76-.81-1.64-1.53-3.17-.32-.67.33-1.03 1.51-.84 3.31-.65.7.08.9.76.22.74.11 1.49-.08.48.39.36 1.67-.45 3.72.97.9.63.48-.39-.13-.32-.37-.58a.95.94-29.5 0 1 .43-1.53q.86-.27 1.7 0 .63.2.66.85.08 1.51-.85 2.7a.82.82 0 0 0 .63 1.33q1.46.03.97 1.41-.82 2.33-1.67 4.54-.26.69.38 1.08.17.1.23.28.25.73-.51.71l-1.47-.03q-.97-.03-.47.81.49.82 1.45 1.35a.46.45-37.2 0 1-.12.84q-.38.09-.78.02-.72-.13-.73.59l-.05 1.94q-.02.7.52.24.35-.31.8-.4.61-.12.95.4.83 1.23.76 2.78-.03.66.48.23.79-.68.5-1.81-.16-.63.49-.65.4-.01.59.37.11.22.34.17.06-.02.1-.06.21-.24.08-.53-.66-1.44-1.5-2.64a.36.35-20.1 0 1 .26-.55c1.46-.13 3.15-.05 4.23.99q.59.56 1.27.94.46.25.81-.13l1.19-1.27q.92-.98 1.01.36.06.76-.48 1.3-.51.5.11.85.54.31.89.8.3.42.06.88-.86 1.66-.85 3.47c.02 1.6-.5 2.53-.82 3.97q-.1.46-.48.74-.24.18-.53.25-.83.18-.32.85.73.96 1.72.37.5-.31.89.14.67.78.95 1.78.18.63.62.15 2.01-2.18.44-4.21a.74.74 0 0 1 .58-1.2l4.62-.02a.41.4-14.3 0 0 .36-.6q-.67-1.21.4-2.17a.6.6 0 0 1 .96.26l1.62 4.89q.13.39-.11.72l-.29.41a.42.42 0 0 0 .5.63q.24-.1.46-.02.71.23.21.77-.24.26-.29.61-.05.33.08.65 1.03 2.46.83 5.29 0 .11.03.21.09.22.31.21a.5.5 0 0 0 .49-.48q.06-1.61 1.02-2.95.5-.71 1.04-.03.64.8 1.49 1.31.82.48.52-.42l-1.22-3.62q-.19-.57-.76-.74-.38-.11-.7-.33-.41-.27-.21-.72.92-1.99 2.15-3.54c.77-.97.81-1.99 1.11-3.14a1.19 1.19 0 0 1 1.67-.77l2.89 1.39q-.38 7.25-1.8 14.63c-.32 1.7 1.86 4.63 2.77 5.98q.34.5.34 1.11-.01 8.87.03 17.95.03 4.85-1.28 11.95-2.46 13.39-4.58 26.75-1.27-.02-1.74.76-.27.46.02.91.42.64 1.22.85l-8.46 51.93q-.42-.73-1.57-.81-.41-.02-.56-.41-.1-.27.22-.37.56-.18.32-.72-.19-.44-.61-.43-1.69.04-.43-1.08 1.83-1.64.94-4.51a.57.57 0 0 0-.9-.29q-1.52 1.16-3.4-.38a1.27 1.26-62.2 0 1-.41-1.34q.58-1.95 1.64-3.64.12-.19.05-.41-.12-.4-.39-.08l-.31.35q-.48.55-.77-.12-.72-1.66-1.92-2.96-.38-.42-.09-.9.78-1.26.84-2.84.02-.58-.52-.38-1.49.56-3.04-.58-.38-.28-.42-.76-.4-4.01.75-7.04.4-1.05-.59-.51-.71.37-1.35 0-.63-.36-.68.36l-.14 1.81q-.05.58-.52.92l-2.61 1.89q-.48.35-1 .06l-1.95-1.05q-1.38-.74-.94.76c.64 2.21 2 4.86-.35 6.64q-1.4 1.06.36 1.08 1.16.02 2.16.6a.74.73 35.3 0 0 .91-.15q.71-.79 1.22 1.21.27 1.04 0 2.07-.64 2.56-2.76 4.2-.51.41-.17.96l.26.41a.53.52-19.9 0 1-.38.8q-.75.1-1.44-.1a1.07 1.07 0 0 1-.66-.55l-1.4-2.86q-.64-1.31-.71.15l-.13 2.39a1.58 1.57-15.5 0 1-.7 1.23q-1 .66-2.27.74a1.9 1.9 0 0 0-1.54 2.8q.48.88.56 1.88.05.59-.42.96-.24.2-.56.21-.67.01-.78.67-.12.78-.28 1.6-.28 1.43-.93.13-1.12-2.23-1.05-4.59.02-.57-.52-.39-1.42.49-2.97-.53-.76-.5-.24-1.26.81-1.18.72-2.65-.03-.49-.48-.65l-.79-.29q-.6-.22-.58-.86.01-.45.28-.82.32-.45.12-.95l-1.03-2.76q-.18-.47.2-.8.72-.62 1.13-1.48.32-.68-.4-.91l-.5-.17q-.72-.24-.76-.99-.11-1.95.16-3.85.24-1.63-.55-3.2-.13-.27-.37-.08-.22.19-.21.48.15 2.5-2.58 3.17-.44.11-.58-.32-.24-.69-.57-1.37-.25-.52-.76-.66-.58-.16-1.07.28-.45.4-.2.95.54 1.22.63 2.68a.68.68 0 0 1-.99.64q-.34-.17-.63.01-.48.31-.09.73l2.01 2.1a2.44 2.43 46.7 0 1-.1 3.47q-.99.92-1.4 2.22-.23.72-.78.2-.9-.87-1.13-2.08-.11-.55-.58-.24-.37.25-.25.71a.45.44.5 0 1-.56.54q-1.7-.47-3.31.86-.42.35-.15.83l.82 1.49q.43.78-.45.94-1.45.25-1.54 1.84a.35.34 4 0 1-.38.32l-.32-.03q-.16-.02-.16-.18l-.05-3.92q-.02-.93-.78-.39-.71.49-1.53.59a.6.6 0 0 1-.67-.62q.03-.93.7-1.59.35-.35.24-.82-.18-.76-1-.83a.96.95-70.2 0 1-.7-1.5q1.04-1.48-.65-2.46a.64.63 35.1 0 1-.17-.95l1.43-1.7a.71.7 26.8 0 0-.38-1.14q-2.2-.52-1.04-3.02.95-2.05-.75-3.08-.59-.36-.47.32.07.38.37.63.68.57-.19.74-1.36.28-2.67.05-.55-.1-.67-.65-.23-1.16-1.22-1.82-.89-.61-.68.45.16.8.57 1.54.26.48.02.98c-.72 1.47-2.71 4.06-.48 5.34q.42.25.4-.24-.02-.53-.45-.76-.33-.18-.08-.45l.2-.23q.09-.09.19-.02c2.81 1.92 1.09 4.47-1.18 5.79a.71.7-35.7 0 1-.88-.14q-.48-.56-.58-1.35a.34.33 88.8 0 0-.29-.28l-.26-.02q-.23-.02-.24.21l-.16 2.62q-.04.59-.56.86l-1.67.85q-.57.29-.35.89.67 1.86.61 3.91-.02.56-.57.63-.4.05-.74-.13a1.65 1.65 0 0 1-.81-.95q-.23-.7-.89-.45-.57.22-.97-.24l-2.46-2.78q-.35-.4-.51-.91l-.36-1.17a.89.88-6.7 0 0-.79-.62q-.66-.05-.77-.63-.1-.54.24-.96.53-.65.58-1.47a.61.61 0 0 0-.57-.64l-2.71-.18a.83.83 0 0 1-.74-1.06l.74-2.51a2.17 2.17 0 0 0-.81-2.38q-.89-.64-1-1.57-.02-.19-.18-.27-.15-.08-.33-.09-.25-.01-.25.24l-.06 2.71q-.01.57.43.94.22.18.21.45-.01.57-.56.46-.29-.06-.54.19-.29.28-.38.67l-.84 3.59c-.57-8.32-1.13-16.67-8.5-21.42q-2.79-1.8-9.13-2.75-6.03-.91-10.4-1.05-6.51-.21-13.04-.16c-2.72.02-6.11-1.56-8.37-3.41q-10.7-8.73-18.73-14.7-13.83-10.28-31.38-11.86-6.39-.57-10.28-2.35-12.96-5.91-13.79-20.62-.16-2.78.08-7.61.86-.91.49-3.63-.13-.92.56-.29.12.11.29.19.68.3.76-.44.17-1.51.86-2.82a1.13 1.12-51.5 0 0-.14-1.26l-.3-.36q-.73-.86.39-.69.5.07.9-.18.61-.4-.05-.7l-1.79-.81q-.66-.29-.8.42l-.14.65q-.13.63-.69.3-.42-.25-.71-.65-.4-.56.02-1.11.74-.98.03-2-.35-.51.08-.95 1.12-1.14 1.5-2.79c.25-1.08 1.11-1.94 1.81-2.77a.78.77-47.3 0 0-.04-1.04q-1.73-1.77.32-3.17a.51.5 71.2 0 1 .79.39l.09 1.42q.05.87.81.45l.92-.5q.91-.51.86.54-.25 4.65 2.37 7.97.85 1.08.92-.29l.12-2.46q.03-.54.56-.6 1.58-.19 2.93-.96.36-.21.79-.27.42-.05.55.33a.51.51 0 0 1-.22.61q-.3.17-.36.48-.14.67.54.58.55-.08.85.34.27.37-.1.64-2.08 1.52-1.54 4.5.09.48.57.51.6.04 1.04-.3a1.19 1.18 31.3 0 1 .92-.22q1.19.21 2.11.85a.84.83 22.8 0 1 .35.84q-.43 2.38-1.69 4.36-.29.45.2.24.34-.14.36-.51a.27.27 0 0 1 .41-.21q.5.29.52.88a1.1 1.06 24 0 0 .26.64l1.66 1.9q.39.44.09.96-.73 1.28-.91 2.91-.07.68.55.39 1.48-.71 3.01.6.41.34.45.87.39 4.08-.76 6.9-.39.96.54.5.78-.38 1.53.05.53.3.59-.31l.19-2.22a.9.87 75.9 0 1 .37-.64l2.61-1.84a.88.87-51.3 0 1 .85-.1l2.18.93q1.58.67.92-.91c-1-2.39-1.76-4.99.78-6.83q.53-.39-.1-.56-1.69-.47-3.6-.54a1.67 1.66-84.9 0 1-1.59-1.91q.53-3.51 2.85-5.54.55-.48.24-1.13l-.16-.36q-.28-.61.38-.69.76-.09 1.51.09.49.12.67.6.58 1.56 1.37 3.1.05.11.15.17.23.15.51-.28a.5.48-34.8 0 0 .07-.34q-.71-4.11 2.97-4.46c1.9-.18 2.49-1.97 1.24-3.46a1.46 1.46 0 0 1 .72-2.34q1.59-.46 1.03-2.33a.43.42-8.5 0 1 .41-.55q.18 0 .28.15 1.57 2.4 1.24 4.92-.12.87.68.53 1.41-.61 3.08.55a.7.7 0 0 1 .18.97q-.91 1.34-.82 2.96.04.67.7.78.61.1.99.55.36.42.02.87-.25.32-.3.72-.08.56.19 1.13.47 1.01.88 1.95.19.42-.1.79l-1.41 1.75a.53.53 0 0 0 .21.82l1.07.44q.54.22.58.81.13 2.18-.2 4.12-.28 1.61.63 2.84.09.12.24.09.37-.07.31-.44-.37-2.3 2.56-3.1.38-.1.47.28.21.98.94 1.79.28.3.69.23.72-.14 1.09-.79a.66.65-46.2 0 0-.01-.65q-.6-1.02-.61-2.33a.92.91 2.3 0 1 1-.92q.21.01.41-.03.71-.16.23-.71l-2.17-2.46a1.85 1.85 0 0 1-.15-2.25l1.97-2.97q.3-.45.73-.11.85.68.95 1.84.02.24.21.38.21.15.5-.06a.43.42 75.6 0 0 .17-.3l.06-.58q.07-.61.65-.39 1.49.56 3.27-.64.44-.3.18-.77l-.81-1.47a.89.89 0 0 1 .55-1.29q1.34-.36 1.25-1.82-.04-.52.43-.3l.36.16q.1.05.1.15l.16 3.88q.03.83.75.41.57-.34 1.24-.5.64-.17.86.46.16.45-.09.85l-.8 1.27q-.34.54.15.94.41.34.94.39.56.05.76.57.33.86-.49 1.52-.5.41 0 .82l1.31 1.07q.5.4.03.84l-1.28 1.16a1.11 1.1 31.4 0 0 .46 1.88q1.07.3 1.05 1.44-.01.96-.47 1.75-.87 1.49.82 2.67.43.3.46-.22.03-.47-.37-.66a.4.4 0 0 1 .08-.75q1.33-.29 2.67-.06.57.1.74.65.4 1.23 1.53 2 .58.39.51-.3-.08-.92-.61-1.71-.31-.46-.09-.97.69-1.59 1.51-3.2.29-.56.12-1.16-.26-.91-1.13-1.1-1.07-.24-.31.55.25.25.41.53.42.7-.32.37-1.51-.68-1.42-2.15.12-2.04 2.59-3.49a.83.83 0 0 1 1.25.66q.03.52.32.94a.34.33 30.1 0 0 .61-.16l.18-2.44q.03-.47.44-.71l1.94-1.16q.58-.34.27-.94-.88-1.72-.52-3.73.08-.42.48-.55.69-.24 1.14.37.17.23.24.51.08.34.27.64.21.32.54.13l.25-.15q.45-.27.84.09 2.55 2.38 3.46 4.87.19.53.71.71.28.09.51.25a.76.76 0 0 1 .24 1.01l-.68 1.22a.9.9 0 0 0 .77 1.34l2.37.05q.6.01.69.6.21 1.35-.53 2.42-.35.51.12.91.7.61.04 1.23-.55.51.18.68.85.2 1.12 1.04.74 2.3 1.04-.1.21-1.65-.44-3.08-.25-.56.35-.65 1.37-.22 1.05-1.66a1.16 1.15-6.8 0 1 1.11-1.4l4.48-.09q.86-.01.27-.64l-1.81-1.95q-.34-.37-.82-.47-.94-.19-1.74-.78a.54.53 37.8 0 1-.1-.75q.92-1.2.68-2.84-.11-.74-.69-.26-.71.61-1.56.83-.76.19-.29.82l.42.56q.24.32-.14.48-.19.08-.36-.04c-3.33-2.32 1.06-4.61-.91-7.25q-.49-.65.32-.62l1.52.05q1.1.04.34-.75c-.61-.63-.64-1.35-.24-2.1q.89-1.67.44-3.67-.14-.65-.64-.22l-.29.25q-.58.5-.77-.24-.74-2.86 1.32-3.61.6-.22.68-.86.1-.89.84-.39.18.12.4.08 2.25-.36 4.35-1.37a.3.3 0 0 1 .41.36q-.11.4.06.75.38.77.65-.04.42-1.25 1.36-1.91.56-.39.92.19.51.83 1.34 1.17.72.31.57-.47-.6-3.04-1.75-5.82-.18-.44.01-.87l1.34-3.13q.16-.36-.22-.45l-.34-.08a.55.54 13.6 0 0-.65.39q-.49 1.96-2.41 1.73-.72-.09-.92.6-.25.83-.01 1.73.05.21-.14.31l-.36.2q-.38.21-.44-.22-.09-.6-.36-1.11-.29-.54-.9-.6-.77-.09-.85-.81-.07-.63.4-1.06.49-.45.57-1.08.08-.73-.65-.84-1.34-.21-1.52-1.52-.07-.52-.52-.81-.38-.25-.62-.66-.17-.29-.09-.62l1.93-7.92q.14-.58-.44-.72-1.34-.31-2.19-1.52-.11-.16-.28-.23-.15-.06-.29.07a.39.39 0 0 0 0 .58q.2.18.29.43.13.4-.14.73-.86 1.06.11 2.08.16.16.18.39.02.18-.14.31-.51.43-1.03.02-1.07-.84-2.06.04a.91.9 70 0 1-1.5-.7q.02-1.44-.84-2.47-1-1.19-1.16.35l-.2 2.02q-.06.55-.56.78-1.29.59-1.8 2.3-.15.52.09 1.01l1.02 2.14a.55.55 0 0 1-.25.73q-1.33.67-2.6.92-.96.18-.35-.58.16-.2.28-.41.22-.4-.19-.6l-2.95-1.45q-.17-.08-.24-.26-.09-.24.05-.34.54-.37.23-.96-.37-.71-.05-1.4.24-.5.13-1.04l-.82-4.16a.77.77 0 0 0-.66-.61l-1.6-.19q-.59-.08-.59-.68l.03-1.94a1.14 1.13-15.3 0 1 .57-.98q.91-.53 1.5-1.43 1.19-1.83 3.53-2.65a.28.28 0 0 1 .37.2q.06.28.36.29.71.03.29-.54-.53-.72-.78-1.53a.47.47 0 0 0-.5-.33q-.27.03-.42.26a.51.51 0 0 1-.83.03q-.28-.37-.1-.85a.94.89 52.3 0 0 .05-.48q-.48-2.74 1.34-3.51.55-.23.08-.6-.78-.61-.32-1.44 1.26-2.27.38-3.99 3.69 1.49 5.32-1.37 1.97-3.46 3.3-4.96 2.42.59 1.96 2.48-.38 1.55.91.61.52-.37.91-.89.83-1.13 1.06.25.11.64.6 1.03.32.26.72.17.61-.16.3-.7-1.77-3.02 1.15-4c3.13 1.42 6.12 1.45 9.28-.02 4.21-1.95 9.44-1.94 14.13-1.68 3 .17 6.13-2.78 8.78-.89q1.85 1.33 4.14 1.89m14.22 23.71q0 .34.34.34.15-.01.21-.14.11-.24-.1-.41a.28.28 0 0 0-.45.21m-48.06 19.91q-.21.64.32.62a.3.3 0 0 0 .29-.28q.02-.22-.09-.39a.29.29 0 0 0-.52.05m112.02 10.29q.05.08.14.07.19-.04.07-.19-.03-.05-.09-.06a.12.12 0 0 0-.12.18m-186.04 19.1q.21.38.44-.01.21-.38-.22-.39-.45-.01-.22.4m71.13 2.71q-.26 0-.34.28-.07.28.22.27.21-.02.32-.18a.24.23 17.2 0 0-.2-.37m89.06 94.75q-.3.26-.12.62a.28.28 0 0 0 .48.04q.33-.46-.17-.69-.11-.05-.19.03"/><path fill="#24d8ce" d="M182.74 70.33q-2.92.98-1.15 4 .31.54-.3.7-.4.09-.72-.17-.49-.39-.6-1.03-.23-1.38-1.06-.25-.39.52-.91.89-1.29.94-.91-.61.46-1.89-1.96-2.48 3.08-2.52 7.61-1.05M231.88 73.39q-.79 2.41-.92 4.58-.09 1.56 1.06.49.31-.28.64-.48.36-.22.64.12.03.05 3.7 4.69a.09.09 0 0 1-.08.15q-2.04-.2-3.38.83-.36.28-.27.73.11.53.44.94.32.38.13.84-.7 1.74.53 3.68a1.32 1.3-50.1 0 1 .1 1.2q-.18.42-.58.61-.38.18-.75-.01-2.58-1.33-3.26-4.13a.88.88 0 0 0-.79-.67q-.66-.04-.83.57-.59 2.15-3.13 1.53-1.45-.35-.65.89 1.03 1.58-1.04 3.75a.21.2 64.6 0 1-.35-.13q-.11-1.31-.99-2.05a.9.88-38.8 0 0-1-.1l-.42.23q-.72.39-.67-.42.08-1.12 1.3-1.27a.84.82-.5 0 0 .73-.73q.08-.73-.52-1.2-.4-.31.01-.59 2.14-1.46 1.85-4.34-.15-1.54-1.57-2.21a1.44 1.43 1.8 0 1-.72-.76q-.43-1.04-1.19-1.84a.49.49 0 0 0-.84.25l-.14.76q-.08.47-.52.64-.38.14-.72-.03-.59-.31-.63-.98-.06-1.13-.59-2.1-.29-.52.26-.75c1.76-.75 4.43-1.69 4.41-4.02a.91.91 0 0 0-.64-.87q-1.52-.46-1.42-1.56zM241.73 72.09q.89.86 1.14 1.54.22.59-.14 1.1-.5.72-1.21 1.03-.35.16-.37-.23-.06-1.91-.93-3.39.78-.17 1.51-.05M246.38 72.89l-.59.73a.3.3 0 0 1-.48-.01q-.33-.47.03-1.1.83.61 1.04.38M163.8 76.23q.02.63.22 1.02.22.44.72.45l1.77.01q.88 1.72-.38 3.99-.46.83.32 1.44.47.37-.08.6-1.82.77-1.34 3.51a.94.89 52.3 0 1-.05.48q-.18.48.1.85a.51.51 0 0 0 .83-.03q.15-.23.42-.26a.47.47 0 0 1 .5.33q.25.81.78 1.53.42.57-.29.54-.3-.01-.36-.29a.28.28 0 0 0-.37-.2q-2.34.82-3.53 2.65-.59.9-1.5 1.43a1.14 1.13-15.3 0 0-.57.98l-.03 1.94q0 .6.59.68l1.6.19a.77.77 0 0 1 .66.61l.82 4.16q.11.54-.13 1.04-.32.69.05 1.4.31.59-.23.96-.14.1-.05.34.07.18.24.26l2.95 1.45q.41.2.19.6-.12.21-.28.41-.61.76.35.58 1.27-.25 2.6-.92a.55.55 0 0 0 .25-.73l-1.02-2.14q-.24-.49-.09-1.01.51-1.71 1.8-2.3.5-.23.56-.78l.2-2.02q.16-1.54 1.16-.35.86 1.03.84 2.47a.91.9 70 0 0 1.5.7q.99-.88 2.06-.04.52.41 1.03-.02.16-.13.14-.31-.02-.23-.18-.39-.97-1.02-.11-2.08.27-.33.14-.73-.09-.25-.29-.43a.39.39 0 0 1 0-.58q.14-.13.29-.07.17.07.28.23.85 1.21 2.19 1.52.58.14.44.72l-1.93 7.92q-.08.33.09.62.24.41.62.66.45.29.52.81.18 1.31 1.52 1.52.73.11.65.84-.08.63-.57 1.08-.47.43-.4 1.06.08.72.85.81.61.06.9.6.27.51.36 1.11.06.43.44.22l.36-.2q.19-.1.14-.31-.24-.9.01-1.73.2-.69.92-.6 1.92.23 2.41-1.73a.55.54 13.6 0 1 .65-.39l.34.08q.38.09.22.45l-1.34 3.13q-.19.43-.01.87 1.15 2.78 1.75 5.82.15.78-.57.47-.83-.34-1.34-1.17-.36-.58-.92-.19-.94.66-1.36 1.91-.27.81-.65.04-.17-.35-.06-.75a.3.3 0 0 0-.41-.36q-2.1 1.01-4.35 1.37-.22.04-.4-.08-.74-.5-.84.39-.08.64-.68.86-2.06.75-1.32 3.61.19.74.77.24l.29-.25q.5-.43.64.22.45 2-.44 3.67c-.4.75-.37 1.47.24 2.1q.76.79-.34.75l-1.52-.05q-.81-.03-.32.62c1.97 2.64-2.42 4.93.91 7.25q.17.12.36.04.38-.16.14-.48l-.42-.56q-.47-.63.29-.82.85-.22 1.56-.83.58-.48.69.26.24 1.64-.68 2.84a.54.53 37.8 0 0 .1.75q.8.59 1.74.78.48.1.82.47l1.81 1.95q.59.63-.27.64l-4.48.09a1.16 1.15-6.8 0 0-1.11 1.4q.32 1.44-1.05 1.66-.6.09-.35.65.65 1.43.44 3.08-.3 2.4-1.04.1-.27-.84-1.12-1.04-.73-.17-.18-.68.66-.62-.04-1.23-.47-.4-.12-.91.74-1.07.53-2.42-.09-.59-.69-.6l-2.37-.05a.9.9 0 0 1-.77-1.34l.68-1.22a.76.76 0 0 0-.24-1.01q-.23-.16-.51-.25-.52-.18-.71-.71-.91-2.49-3.46-4.87-.39-.36-.84-.09l-.25.15q-.33.19-.54-.13-.19-.3-.27-.64-.07-.28-.24-.51-.45-.61-1.14-.37-.4.13-.48.55-.36 2.01.52 3.73.31.6-.27.94l-1.94 1.16q-.41.24-.44.71l-.18 2.44a.34.33 30.1 0 1-.61.16q-.29-.42-.32-.94a.83.83 0 0 0-1.25-.66q-2.47 1.45-2.59 3.49-.09 1.47 1.42 2.15.74.33.32-.37-.16-.28-.41-.53-.76-.79.31-.55.87.19 1.13 1.1.17.6-.12 1.16-.82 1.61-1.51 3.2-.22.51.09.97.53.79.61 1.71.07.69-.51.3-1.13-.77-1.53-2-.17-.55-.74-.65-1.34-.23-2.67.06a.4.4 0 0 0-.08.75q.4.19.37.66-.03.52-.46.22-1.69-1.18-.82-2.67.46-.79.47-1.75.02-1.14-1.05-1.44a1.11 1.1 31.4 0 1-.46-1.88l1.28-1.16q.47-.44-.03-.84l-1.31-1.07q-.5-.41 0-.82.82-.66.49-1.52-.2-.52-.76-.57-.53-.05-.94-.39-.49-.4-.15-.94l.8-1.27q.25-.4.09-.85-.22-.63-.86-.46-.67.16-1.24.5-.72.42-.75-.41l-.16-3.88q0-.1-.1-.15l-.36-.16q-.47-.22-.43.3.09 1.46-1.25 1.82a.89.89 0 0 0-.55 1.29l.81 1.47q.26.47-.18.77-1.78 1.2-3.27.64-.58-.22-.65.39l-.06.58a.43.42 75.6 0 1-.17.3q-.29.21-.5.06-.19-.14-.21-.38-.1-1.16-.95-1.84-.43-.34-.73.11l-1.97 2.97a1.85 1.85 0 0 0 .15 2.25l2.17 2.46q.48.55-.23.71-.2.04-.41.03a.92.91 2.3 0 0-1 .92q.01 1.31.61 2.33a.66.65-46.2 0 1 .01.65q-.37.65-1.09.79-.41.07-.69-.23-.73-.81-.94-1.79-.09-.38-.47-.28-2.93.8-2.56 3.1.06.37-.31.44-.15.03-.24-.09-.91-1.23-.63-2.84.33-1.94.2-4.12-.04-.59-.58-.81l-1.07-.44a.53.53 0 0 1-.21-.82l1.41-1.75q.29-.37.1-.79-.41-.94-.88-1.95-.27-.57-.19-1.13.05-.4.3-.72.34-.45-.02-.87-.38-.45-.99-.55-.66-.11-.7-.78-.09-1.62.82-2.96a.7.7 0 0 0-.18-.97q-1.67-1.16-3.08-.55-.8.34-.68-.53.33-2.52-1.24-4.92-.1-.15-.28-.15a.43.42-8.5 0 0-.41.55q.56 1.87-1.03 2.33a1.46 1.46 0 0 0-.72 2.34c1.25 1.49.66 3.28-1.24 3.46q-3.68.35-2.97 4.46a.5.48-34.8 0 1-.07.34q-.28.43-.51.28-.1-.06-.15-.17-.79-1.54-1.37-3.1-.18-.48-.67-.6-.75-.18-1.51-.09-.66.08-.38.69l.16.36q.31.65-.24 1.13-2.32 2.03-2.85 5.54a1.67 1.66-84.9 0 0 1.59 1.91q1.91.07 3.6.54.63.17.1.56c-2.54 1.84-1.78 4.44-.78 6.83q.66 1.58-.92.91l-2.18-.93a.88.87-51.3 0 0-.85.1l-2.61 1.84a.9.87 75.9 0 0-.37.64l-.19 2.22q-.06.61-.59.31-.75-.43-1.53-.05-.93.46-.54-.5 1.15-2.82.76-6.9-.04-.53-.45-.87-1.53-1.31-3.01-.6-.62.29-.55-.39.18-1.63.91-2.91.3-.52-.09-.96l-1.66-1.9a1.1 1.06 24 0 1-.26-.64q-.02-.59-.52-.88a.27.27 0 0 0-.41.21q-.02.37-.36.51-.49.21-.2-.24 1.26-1.98 1.69-4.36a.84.83 22.8 0 0-.35-.84q-.92-.64-2.11-.85a1.19 1.18 31.3 0 0-.92.22q-.44.34-1.04.3-.48-.03-.57-.51-.54-2.98 1.54-4.5.37-.27.1-.64-.3-.42-.85-.34-.68.09-.54-.58.06-.31.36-.48a.51.51 0 0 0 .22-.61q-.13-.38-.55-.33-.43.06-.79.27-1.35.77-2.93.96-.53.06-.56.6l-.12 2.46q-.07 1.37-.92.29-2.62-3.32-2.37-7.97.05-1.05-.86-.54l-.92.5q-.76.42-.81-.45l-.09-1.42a.51.5 71.2 0 0-.79-.39q-2.05 1.4-.32 3.17a.78.77-47.3 0 1 .04 1.04c-.7.83-1.56 1.69-1.81 2.77q-.38 1.65-1.5 2.79-.43.44-.08.95.71 1.02-.03 2-.42.55-.02 1.11.29.4.71.65.56.33.69-.3l.14-.65q.14-.71.8-.42l1.79.81q.66.3.05.7-.4.25-.9.18-1.12-.17-.39.69l.3.36a1.13 1.12-51.5 0 1 .14 1.26q-.69 1.31-.86 2.82-.08.74-.76.44-.17-.08-.29-.19-.69-.63-.56.29.37 2.72-.49 3.63c-1.29-3.48-3.06-7.14-3.02-10.69q.04-3.21.06-6.22.01-.68.39-1.25 4-6.03 7.65-13c3.03-5.76 7.06-9.2 13.25-10.68q12.81-3.07 26.28-6.64c12.8-3.39 22.65-9.48 24.56-23.89a1.39 1.36 71.7 0 1 .39-.8c4.13-4.18 9.04-3.14 13.44.02m15.41 33.93q-.19.18-.14.43a.38.38 0 0 0 .41.31q.35-.04.55-.33a.39.38-71.8 0 0-.3-.6q-.3-.01-.52.19"/><path d="m166.51 77.71-1.77-.01q-.5-.01-.72-.45-.2-.39-.22-1.02z"/><path fill="#24d8ce" d="M255.17 79.88q4.01 2.1 8.14 2.82 7.69 1.35 16.43 2.82c2.39.41 4.4 2.17 4.26 4.73-.28 4.95.6 12.14 5.71 14.5 3.71 1.71 8.25 2.9 11.55 5.46q-.24 1.25.59 2.29l1.01 7.37-2.89-1.39a1.19 1.19 0 0 0-1.67.77c-.3 1.15-.34 2.17-1.11 3.14q-1.23 1.55-2.15 3.54-.2.45.21.72.32.22.7.33.57.17.76.74l1.22 3.62q.3.9-.52.42-.85-.51-1.49-1.31-.54-.68-1.04.03-.96 1.34-1.02 2.95a.5.5 0 0 1-.49.48q-.22.01-.31-.21-.03-.1-.03-.21.2-2.83-.83-5.29-.13-.32-.08-.65.05-.35.29-.61.5-.54-.21-.77-.22-.08-.46.02a.42.42 0 0 1-.5-.63l.29-.41q.24-.33.11-.72l-1.62-4.89a.6.6 0 0 0-.96-.26q-1.07.96-.4 2.17a.41.4-14.3 0 1-.36.6l-4.62.02a.74.74 0 0 0-.58 1.2q1.57 2.03-.44 4.21-.44.48-.62-.15-.28-1-.95-1.78-.39-.45-.89-.14-.99.59-1.72-.37-.51-.67.32-.85.29-.07.53-.25.38-.28.48-.74c.32-1.44.84-2.37.82-3.97q-.01-1.81.85-3.47.24-.46-.06-.88-.35-.49-.89-.8-.62-.35-.11-.85.54-.54.48-1.3-.09-1.34-1.01-.36l-1.19 1.27q-.35.38-.81.13-.68-.38-1.27-.94c-1.08-1.04-2.77-1.12-4.23-.99a.36.35-20.1 0 0-.26.55q.84 1.2 1.5 2.64.13.29-.08.53-.04.04-.1.06-.23.05-.34-.17-.19-.38-.59-.37-.65.02-.49.65.29 1.13-.5 1.81-.51.43-.48-.23.07-1.55-.76-2.78-.34-.52-.95-.4-.45.09-.8.4-.54.46-.52-.24l.05-1.94q.01-.72.73-.59.4.07.78-.02a.46.45-37.2 0 0 .12-.84q-.96-.53-1.45-1.35-.5-.84.47-.81l1.47.03q.76.02.51-.71-.06-.18-.23-.28-.64-.39-.38-1.08.85-2.21 1.67-4.54.49-1.38-.97-1.41a.82.82 0 0 1-.63-1.33q.93-1.19.85-2.7-.03-.65-.66-.85-.84-.27-1.7 0a.95.94-29.5 0 0-.43 1.53q.24.26.37.58.42 1.02-.48.39-2.05-1.42-3.72-.97-.47.12-.39-.36.11-.75-.11-1.49-.2-.68-.9-.76-1.8-.19-3.31.65-.65.36-.33 1.03.72 1.53 1.53 3.17.19.38.02.76-.21.48-.58.12-.29-.28-.67-.38a.79.78-57.7 0 0-.7.16q-1.4 1.18-.39 2.6.3.42.01.85-.35.52-.93.75-.61.24-.6-.41l.01-2.2q.01-.52-.42-.8-1.52-1.01-3.01-.75a1.13 1.13 0 0 1-.94-.25q-.24-.22-.33-.52-.13-.45.21-.78 1.09-1.06 1.81-2.55c.6-1.24-.23-2.81-1.28-3.38q-1.74-.93.09-1.68l1.31-.53q.51-.2.56-.75.11-1.33-.69-2.34-.51-.64.3-.74 1.13-.14 1.82-.97.37-.43.06-.9-1.37-2.06-1.37-4.27M233.29 93.34a.28.28 0 0 1 .45-.21q.21.17.1.41-.06.13-.21.14-.34 0-.34-.34"/><path d="M179.21 110.16q.22-.2.52-.19a.39.38-71.8 0 1 .3.6q-.2.29-.55.33a.38.38 0 0 1-.41-.31q-.05-.25.14-.43M301.85 112.5q-.83-1.04-.59-2.29.87 1.1.59 2.29"/><path fill="#24d8ce" d="M185.23 113.25a.29.29 0 0 1 .52-.05q.11.17.09.39a.3.3 0 0 1-.29.28q-.53.02-.32-.62M297.25 123.54a.12.12 0 0 1 .12-.18q.06.01.09.06.12.15-.07.19-.09.01-.14-.07M111.21 142.64q-.23-.41.22-.4.43.01.22.39-.23.39-.44.01M182.34 145.35a.24.23 17.2 0 1 .2.37q-.11.16-.32.18-.29.01-.22-.27.08-.28.34-.28M298.34 198.24q-.43 1.01-.5 2.52-.8-.21-1.22-.85-.29-.45-.02-.91.47-.78 1.74-.76M289.38 252.69q-.93 6.55.48 13.03.95 4.33-2.86 6.47c-7.26 4.1-14.31 8.25-21.28 13.05-14.69 10.12-29.59 19.12-46.48 25.03q-.44-1.52.2-2.05a.58.57 60.1 0 0 .17-.65l-.77-2.06q-.28-.76-.82-.16l-1.21 1.31q-.71.77-.59-.27.01-.08.08-.13.57-.37.26-.96-.98-1.88.2-3.92.3-.52-.02-1.02l-.26-.41q-.44-.71.38-.87l.37-.07q.61-.12.63-.74l.14-3.48q.04-1.12-.85-.43l-.29.23q-.7.54-.78-.34-.08-.87-.71-1.46-.51-.48.17-.6.22-.04.3.14.19.49.69.34 2.61-.78 3.67-2.83.22-.42.63-.65 1.87-1.01 1.07-3.53-.16-.52-.7-.54l-1.15-.05q-.68-.03-.87-.69-1.09-3.77-.69-7.61.05-.52-.42-.74l-2.56-1.25q-.48-.24-.13-.65l.23-.28a.56.55 35.7 0 0-.14-.84q-.28-.16-.57.03-1.02.65-2.24.97-.55.14-.3.66l1.13 2.24q.21.41.09.85-.48 1.76-1.94 2.55-.5.27-.56.84l-.21 2.22q-.07.65-.65.36-.5-.24-.74-.76-.48-1.03-.54-2.24a.76.75-7.6 0 0-.91-.69q-.6.13-1.11.49-.44.32-.9.02-.54-.35-1.16-.55-.9-.27-.57.61.09.25.28.44.37.4.38.94 0 .6-.43 1.02a.76.75 49.1 0 0-.06.99q.16.21.18.47.05.72-.46.21-1.18-1.19-2.48-1.78-.38-.17-.23-.55c.92-2.45.73-4.96 1.87-7.31q.21-.46-.01-.91-1.22-2.41-2.96-3.64-.4-.28-.25-.75.21-.67.69-1.28a.86.86 0 0 0-.63-1.39q-.93-.05-1.8-1.5l4.07-6.06q1.15-.51 1.63-1.66.2-.48.67-.69l.61-.27q.53-.24.5-.81l-.13-3.3-.08-3.83q.9-2.03.57-4.32-.08-.5.12-.96 1.42-3.43-1.65-5.38.01-.13.01-.26.05-.45-.11-.82l-.25-1.9.84-3.59q.09-.39.38-.67.25-.25.54-.19.55.11.56-.46.01-.27-.21-.45-.44-.37-.43-.94l.06-2.71q0-.25.25-.24.18.01.33.09.16.08.18.27.11.93 1 1.57a2.17 2.17 0 0 1 .81 2.38l-.74 2.51a.83.83 0 0 0 .74 1.06l2.71.18a.61.61 0 0 1 .57.64q-.05.82-.58 1.47-.34.42-.24.96.11.58.77.63a.89.88-6.7 0 1 .79.62l.36 1.17q.16.51.51.91l2.46 2.78q.4.46.97.24.66-.25.89.45a1.65 1.65 0 0 0 .81.95q.34.18.74.13.55-.07.57-.63.06-2.05-.61-3.91-.22-.6.35-.89l1.67-.85q.52-.27.56-.86l.16-2.62q.01-.23.24-.21l.26.02a.34.33 88.8 0 1 .29.28q.1.79.58 1.35a.71.7-35.7 0 0 .88.14c2.27-1.32 3.99-3.87 1.18-5.79q-.1-.07-.19.02l-.2.23q-.25.27.08.45.43.23.45.76.02.49-.4.24c-2.23-1.28-.24-3.87.48-5.34q.24-.5-.02-.98-.41-.74-.57-1.54-.21-1.06.68-.45.99.66 1.22 1.82.12.55.67.65 1.31.23 2.67-.05.87-.17.19-.74-.3-.25-.37-.63-.12-.68.47-.32 1.7 1.03.75 3.08-1.16 2.5 1.04 3.02a.71.7 26.8 0 1 .38 1.14l-1.43 1.7a.64.63 35.1 0 0 .17.95q1.69.98.65 2.46a.96.95-70.2 0 0 .7 1.5q.82.07 1 .83.11.47-.24.82-.67.66-.7 1.59a.6.6 0 0 0 .67.62q.82-.1 1.53-.59.76-.54.78.39l.05 3.92q0 .16.16.18l.32.03a.35.34 4 0 0 .38-.32q.09-1.59 1.54-1.84.88-.16.45-.94l-.82-1.49q-.27-.48.15-.83 1.61-1.33 3.31-.86a.45.44.5 0 0 .56-.54q-.12-.46.25-.71.47-.31.58.24.23 1.21 1.13 2.08.55.52.78-.2.41-1.3 1.4-2.22a2.44 2.43 46.7 0 0 .1-3.47l-2.01-2.1q-.39-.42.09-.73.29-.18.63-.01a.68.68 0 0 0 .99-.64q-.09-1.46-.63-2.68-.25-.55.2-.95.49-.44 1.07-.28.51.14.76.66.33.68.57 1.37.14.43.58.32 2.73-.67 2.58-3.17-.01-.29.21-.48.24-.19.37.08.79 1.57.55 3.2-.27 1.9-.16 3.85.04.75.76.99l.5.17q.72.23.4.91-.41.86-1.13 1.48-.38.33-.2.8l1.03 2.76q.2.5-.12.95-.27.37-.28.82-.02.64.58.86l.79.29q.45.16.48.65.09 1.47-.72 2.65-.52.76.24 1.26 1.55 1.02 2.97.53.54-.18.52.39-.07 2.36 1.05 4.59.65 1.3.93-.13.16-.82.28-1.6.11-.66.78-.67.32-.01.56-.21.47-.37.42-.96-.08-1-.56-1.88a1.9 1.9 0 0 1 1.54-2.8q1.27-.08 2.27-.74a1.58 1.57-15.5 0 0 .7-1.23l.13-2.39q.07-1.46.71-.15l1.4 2.86a1.07 1.07 0 0 0 .66.55q.69.2 1.44.1a.53.52-19.9 0 0 .38-.8l-.26-.41q-.34-.55.17-.96 2.12-1.64 2.76-4.2.27-1.03 0-2.07-.51-2-1.22-1.21a.74.73 35.3 0 1-.91.15q-1-.58-2.16-.6-1.76-.02-.36-1.08c2.35-1.78.99-4.43.35-6.64q-.44-1.5.94-.76l1.95 1.05q.52.29 1-.06l2.61-1.89q.47-.34.52-.92l.14-1.81q.05-.72.68-.36.64.37 1.35 0 .99-.54.59.51-1.15 3.03-.75 7.04.04.48.42.76 1.55 1.14 3.04.58.54-.2.52.38-.06 1.58-.84 2.84-.29.48.09.9 1.2 1.3 1.92 2.96.29.67.77.12l.31-.35q.27-.32.39.08.07.22-.05.41-1.06 1.69-1.64 3.64a1.27 1.26-62.2 0 0 .41 1.34q1.88 1.54 3.4.38a.57.57 0 0 1 .9.29q.89 2.87-.94 4.51-1.26 1.12.43 1.08.42-.01.61.43.24.54-.32.72-.32.1-.22.37.15.39.56.41 1.15.08 1.57.81m-86 19.48q-.38.23-.22.62a.27.27 0 0 0 .47.05q.18-.23.12-.51a.25.25 0 0 0-.37-.16"/><path d="M204.7 238.03q-.17-.34-.11-.82.16.37.11.82M205.65 248.95l-.8-8.5q.04.44.42.51.34.06.45-.17.15-.29-.08-.52-.31-.31-.78-.19-.28-.93-.17-1.79 3.07 1.95 1.65 5.38-.2.46-.12.96.33 2.29-.57 4.32"/><path fill="#24d8ce" d="m204.85 240.45.01-.37q.47-.12.78.19.23.23.08.52-.11.23-.45.17-.38-.07-.42-.51M271.4 240.1q.08-.08.19-.03.5.23.17.69a.28.28 0 0 1-.48-.04q-.18-.36.12-.62"/><path d="m205.73 252.78.13 3.3q.03.57-.5.81l-.61.27q-.47.21-.67.69-.48 1.15-1.63 1.66zM198.38 265.57q.87 1.45 1.8 1.5a.86.86 0 0 1 .63 1.39q-.48.61-.69 1.28-.15.47.25.75 1.74 1.23 2.96 3.64.22.45.01.91c-1.14 2.35-.95 4.86-1.87 7.31q-.15.38.23.55 1.3.59 2.48 1.78.51.51.46-.21-.02-.26-.18-.47a.76.75 49.1 0 1 .06-.99q.43-.42.43-1.02-.01-.54-.38-.94-.19-.19-.28-.44-.33-.88.57-.61.62.2 1.16.55.46.3.9-.02.51-.36 1.11-.49a.76.75-7.6 0 1 .91.69q.06 1.21.54 2.24.24.52.74.76.58.29.65-.36l.21-2.22q.06-.57.56-.84 1.46-.79 1.94-2.55.12-.44-.09-.85l-1.13-2.24q-.25-.52.3-.66 1.22-.32 2.24-.97.29-.19.57-.03a.56.55 35.7 0 1 .14.84l-.23.28q-.35.41.13.65l2.56 1.25q.47.22.42.74-.4 3.84.69 7.61.19.66.87.69l1.15.05q.54.02.7.54.8 2.52-1.07 3.53-.41.23-.63.65-1.06 2.05-3.67 2.83-.5.15-.69-.34-.08-.18-.3-.14-.68.12-.17.6.63.59.71 1.46.08.88.78.34l.29-.23q.89-.69.85.43l-.14 3.48q-.02.62-.63.74l-.37.07q-.82.16-.38.87l.26.41q.32.5.02 1.02-1.18 2.04-.2 3.92.31.59-.26.96-.07.05-.08.13-.12 1.04.59.27l1.21-1.31q.54-.6.82.16l.77 2.06a.58.57 60.1 0 1-.17.65q-.64.53-.2 2.05l-4.07 1.19q-.01-.8-.28-1.04a.46.46 0 0 0-.77.35q0 .37.23.91-1.42.77-3.16.99.02-.76-.31-1.21-.26-.37-.58-.05-.33.35-.2 1.57l-1.44.62q-.65-2.02-2.17-3.04-.42-.29-.51-.79l-.23-1.27q-.14-.82-.65-.16l-1.08 1.41a.49.49 0 0 1-.69.09q-.39-.31-.35-.81.05-.73-.61-1.04-.37-.18-.77-.05-.65.22-.23.76.68.87.73 1.96.02.63-.48 1.01-.27.21-.59.36-2.28 1.15.13 1.95.33.11 1.4.74l-8.46.04q-.53.01-.85-.42-2.45-3.22-3.09-5.79-.39-1.57.6-4.88 5.64-18.76 7.62-38.1"/><path d="M203.38 272.17a.25.25 0 0 1 .37.16q.06.28-.12.51a.27.27 0 0 1-.47-.05q-.16-.39.22-.62"/><path fill="#24d8ce" d="M208.66 313.6q-2.56 1.47-6.1 1.12-1.07-.63-1.4-.74-2.41-.8-.13-1.95.32-.15.59-.36.5-.38.48-1.01-.05-1.09-.73-1.96-.42-.54.23-.76.4-.13.77.05.66.31.61 1.04-.04.5.35.81a.49.49 0 0 0 .69-.09l1.08-1.41q.51-.66.65.16l.23 1.27q.09.5.51.79 1.52 1.02 2.17 3.04M215.17 311.46l-.82.22q-.23-.54-.23-.91a.46.46 0 0 1 .77-.35q.27.24.28 1.04M211.19 312.67l-1.09.31q-.13-1.22.2-1.57.32-.32.58.05.33.45.31 1.21"/></svg>