<svg xmlns="http://www.w3.org/2000/svg" viewBox="0 0 382 382"><defs><clipPath id="a"><path d="M206.44 314.67h-12.95c-1.21-2.51-3.68-5.19-3.38-7.49.75-5.57 2.98-10.93 4.26-16.45 1.32-5.69 2.27-11.47 3.26-17.23.45-2.59 0-5.5 1.03-7.79 1.44-3.23 4.06-5.91 5.79-9.04.92-1.65 1.56-3.78 1.43-5.63-.52-7.52-1.58-15.01-2.06-22.53-.5-7.85-4.73-14.92-12.25-16.61-7.27-1.63-14.94-2.3-22.38-1.99-5.67.24-10.44-.05-14.85-3.97-4.27-3.81-9.03-7.07-13.42-10.76-10.97-9.21-23.3-14.58-37.79-15.62-13.59-.97-23.89-11.32-22.18-27.83.35-3.39-1.96-7.06-3.05-10.6v-8.98c2.87-4.82 6.05-9.49 8.52-14.51 2.88-5.83 7.45-8.74 13.57-10.16 9.19-2.13 18.35-4.43 27.43-6.98 11.92-3.35 20.95-9.71 22.65-23.23.12-.97 1.37-2.05 2.36-2.6 5.11-2.85 9.16.46 13.25 2.7 3.34 1.83 5.3 1.31 7.01-2.2 2.7-5.54 6.16-6.44 11.54-4.15 1.78.76 4.49 1 6.09.17 5.44-2.82 11-2.87 16.83-2.25 1.35.14 2.85-1.04 4.28-1.61h2.99c.54.52.99 1.31 1.63 1.51 5.05 1.63 10.13 3.21 15.24 4.64.82.23 1.86-.51 2.81-.58 3.67-.27 7.73-1.53 10.93-.39 3.66 1.3 6.42 4.96 9.83 7.21 2.03 1.34 4.48 2.32 6.87 2.81 5.88 1.22 11.85 2.03 17.76 3.08 3.22.57 4.62 2.39 4.46 5.87-.12 2.71.25 5.59 1.09 8.16 2.07 6.3 8.55 6.38 13.31 8.91 1.21.64 3.07 1.46 3.22 2.42.65 4.02 1.13 8.15.98 12.21-.15 4.04-1.57 8.05-1.56 12.07 0 1.96 2.01 3.91 3.1 5.87v22.94c-.77 4.18-1.59 8.36-2.3 12.55-1.89 11.1-3.76 22.2-5.6 33.31-1.17 7.08-2.2 14.17-3.41 21.24-.71 4.18-1.82 8.29-2.44 12.48-.7 4.73-1.27 9.5-1.46 14.27-.12 2.91.57 5.85.94 8.77.33 2.58-.56 4.1-3.01 5.47-6.85 3.82-13.69 7.76-20.12 12.23-17.42 12.11-35.35 23.07-56.19 28.34-1.42.36-2.71 1.27-4.06 1.93z"/></clipPath></defs><g clip-path="url(#a)"><svg xmlns="http://www.w3.org/2000/svg" width="382" height="382" style="shape-rendering:geometricPrecision"><path fill="#03bbdc" stroke="#03bbdc" d="m382 203.814-31.35-11.595-12.064-36.424L382 133.929zM289.752 382l6.888-62.132 4.756-1.763 33.375 24.704L332.99 382z"/><path fill="#c46eed" stroke="#c46eed" d="m205.615 258.307 5.861-.11 33.004 48.074-24.525 24.346-66.667 3.146 13.066-51.959zM90.557 90.096l-65.162 67.817 3.622-81.984 67.966-21.976zM267.783 181.717l59.397-31.212 11.406 5.29 12.064 36.424-25.907 25.862-26.533 3.441-45.63-26.442zM0 382v-8.387l54.927-28.703 14.174-.238L106.546 382zM303.093 0 236.57 63.626l-29.262 3.083L210.378 0z"/><path fill="#c46eed" stroke="#c46eed" d="m134.158 277.418 32.196 4.386-13.066 51.96-9.49 13.01-41.824-32.512 8.987-31.394zM316.316 116.363l18.056-22.65L382 106.956v26.973l-43.414 21.866-11.406-5.29zM211.476 258.198l36.449-62.682 4.655-.436 45.63 26.442 10.78 86.657-7.594 9.926-4.756 1.763-39.06-7.964-13.1-5.633z"/><path fill="#03bbdc" stroke="#03bbdc" d="m150.609 214.702 55.006 43.605-39.261 23.497-32.196-4.386-9.326-70.972z"/><path fill="#c46eed" stroke="#c46eed" d="m298.21 221.522 26.533-3.441 43.229 55.398-58.982 34.7z"/><path fill="#03bbdc" stroke="#03bbdc" d="m150.609 214.702 52.968-62.124 34.903 30.59 9.445 12.348-36.449 62.682-5.86.11zM82.393 254.071l-21.172 40.63-8.825 4.368L0 273.901v-88.189l12.482-2.97 47.36 15.098z"/><path fill="#c46eed" stroke="#c46eed" d="m238.48 183.168 29.155-89.184 17.726 12.8-17.578 74.933-15.203 13.363-4.655.436zM244.48 306.27l13.1 5.634L239.55 382h-44.51l24.916-51.383zM153.288 333.763l66.667-3.146L195.039 382h-50.644l-.597-35.226z"/><path fill="#03bbdc" stroke="#03bbdc" d="m239.549 382 18.031-70.096 39.06 7.964L289.752 382z"/><path fill="#c46eed" stroke="#c46eed" d="m382 271.405-14.028 2.074-43.229-55.398 25.907-25.862L382 203.814z"/><path fill="#03bbdc" stroke="#03bbdc" d="M382 382h-49.011l1.782-39.191L382 365.864z"/><path fill="#c46eed" stroke="#c46eed" d="m287.919 107.399 27.472-38.517 16.45-10.776 2.531 35.607-18.056 22.65z"/><path fill="#03bbdc" stroke="#03bbdc" d="m184.105 124.223 13.593-53.103 9.61-4.411 29.262-3.083 30.317 29.342.748 1.016-29.155 89.184-34.903-30.59zM0 273.9l52.396 25.17 2.53 45.84L0 373.613z"/><path fill="#c46eed" stroke="#c46eed" d="m267.635 93.984-.748-1.016 48.504-24.086-27.472 38.517-2.558-.615z"/><path fill="#03bbdc" stroke="#03bbdc" d="m82.393 254.071 28.568 28.797-8.987 31.394-.985.421-39.768-19.981zM0 0h22.93l3.47 71.126L0 69.21z"/><path fill="#c46eed" stroke="#c46eed" d="m267.783 181.717 17.578-74.933 2.558.615 28.397 8.964 10.864 34.142z"/><path fill="#03bbdc" stroke="#03bbdc" d="m101.974 314.262 41.824 32.512.597 35.226h-37.849l-37.445-37.328 31.888-29.989z"/><path fill="#03bbdc" stroke="#03bbdc" d="m61.22 294.702 39.769 19.981-31.888 29.99-14.174.237-2.531-45.84zM315.39 68.882l-48.503 24.086-30.317-29.342L303.093 0h38.132l-9.384 58.106zM104.388 0l7.644 18.856-15.05 35.097-67.965 21.976-2.616-4.803L22.929 0z"/><path fill="#03bbdc" stroke="#03bbdc" d="m150.535 136.813-52.074-39.82-7.904-6.897 6.426-36.143 15.049-35.097 85.666 52.264-13.593 53.103z"/><path fill="#c46eed" stroke="#c46eed" d="m382 365.864-47.229-23.055-33.375-24.704 7.594-9.926 58.982-34.7L382 271.405z"/><path fill="#03bbdc" stroke="#03bbdc" d="m0 69.209 26.4 1.917 2.617 4.803-3.622 81.984-12.913 24.83L0 185.712zM150.535 136.813l-40.097 43.05-11.977-82.87zM210.378 0l-3.07 66.709-9.61 4.41-85.666-52.263L104.388 0zM150.609 214.702l-25.777-8.256-24.448-14.9 10.054-11.683 40.097-43.05 33.57-12.59 19.472 28.355z"/><path fill="#c46eed" stroke="#c46eed" d="M382 0v106.956l-47.628-13.243-2.531-35.607L341.225 0zM124.832 206.446l9.326 70.972-23.197 5.45-28.568-28.797-22.552-56.23 40.543-6.296z"/><path fill="#03bbdc" stroke="#03bbdc" d="m100.384 191.545-40.543 6.295-47.36-15.097 12.914-24.83 65.162-67.817 7.904 6.896 11.977 82.871z"/></svg></g></svg>