<svg xmlns="http://www.w3.org/2000/svg" viewBox="0 0 382 382"><defs><clipPath id="a"><path d="M206.44 314.67h-12.95c-1.21-2.51-3.68-5.19-3.38-7.49.75-5.57 2.98-10.93 4.26-16.45 1.32-5.69 2.27-11.47 3.26-17.23.45-2.59 0-5.5 1.03-7.79 1.44-3.23 4.06-5.91 5.79-9.04.92-1.65 1.56-3.78 1.43-5.63-.52-7.52-1.58-15.01-2.06-22.53-.5-7.85-4.73-14.92-12.25-16.61-7.27-1.63-14.94-2.3-22.38-1.99-5.67.24-10.44-.05-14.85-3.97-4.27-3.81-9.03-7.07-13.42-10.76-10.97-9.21-23.3-14.58-37.79-15.62-13.59-.97-23.89-11.32-22.18-27.83.35-3.39-1.96-7.06-3.05-10.6v-8.98c2.87-4.82 6.05-9.49 8.52-14.51 2.88-5.83 7.45-8.74 13.57-10.16 9.19-2.13 18.35-4.43 27.43-6.98 11.92-3.35 20.95-9.71 22.65-23.23.12-.97 1.37-2.05 2.36-2.6 5.11-2.85 9.16.46 13.25 2.7 3.34 1.83 5.3 1.31 7.01-2.2 2.7-5.54 6.16-6.44 11.54-4.15 1.78.76 4.49 1 6.09.17 5.44-2.82 11-2.87 16.83-2.25 1.35.14 2.85-1.04 4.28-1.61h2.99c.54.52.99 1.31 1.63 1.51 5.05 1.63 10.13 3.21 15.24 4.64.82.23 1.86-.51 2.81-.58 3.67-.27 7.73-1.53 10.93-.39 3.66 1.3 6.42 4.96 9.83 7.21 2.03 1.34 4.48 2.32 6.87 2.81 5.88 1.22 11.85 2.03 17.76 3.08 3.22.57 4.62 2.39 4.46 5.87-.12 2.71.25 5.59 1.09 8.16 2.07 6.3 8.55 6.38 13.31 8.91 1.21.64 3.07 1.46 3.22 2.42.65 4.02 1.13 8.15.98 12.21-.15 4.04-1.57 8.05-1.56 12.07 0 1.96 2.01 3.91 3.1 5.87v22.94c-.77 4.18-1.59 8.36-2.3 12.55-1.89 11.1-3.76 22.2-5.6 33.31-1.17 7.08-2.2 14.17-3.41 21.24-.71 4.18-1.82 8.29-2.44 12.48-.7 4.73-1.27 9.5-1.46 14.27-.12 2.91.57 5.85.94 8.77.33 2.58-.56 4.1-3.01 5.47-6.85 3.82-13.69 7.76-20.12 12.23-17.42 12.11-35.35 23.07-56.19 28.34-1.42.36-2.71 1.27-4.06 1.93z"/></clipPath></defs><g clip-path="url(#a)"><svg xmlns="http://www.w3.org/2000/svg" width="382" height="382" style="shape-rendering:geometricPrecision"><path fill="#f81e91" stroke="#f81e91" d="m156.507 382 49.236-80.661 36.358 11.55L243.996 382z"/><path fill="#d99721" stroke="#d99721" d="m246.75 309.29-3.057-46.1 38.364-55.377 6.252 34.92-5.451 57.728zM210.025 182.282l-43.596-45.641-5.024-16.965 30.022-50.362 10.33-1.968 58.47 18.372 9.536 27.19-16.171 67.92-31.857 5.085z"/><path fill="#f81e91" stroke="#f81e91" d="m253.592 180.827 16.17-67.92 65.865.327 15.429 22.4-55.26 71.778-13.733.342zM138.885 259.246l-31.506 62.458-10.587-7.254-17.574-84.307 41.58-17.512 4.3 2.485 8.244 22.476z"/><path fill="#f81e91" stroke="#f81e91" d="m202.55 231.019-1.685 5.73-56.365 23.208-5.615-.71-5.543-21.655z"/><path fill="#d99721" stroke="#d99721" d="m308.976 0-48.748 85.718-58.47-18.372L212.839 0zM282.858 300.461l5.451-57.729 65.329 63.764 1.976 7.438-34.895 15.427zM0 281.349l96.792 33.101 10.587 7.254.685 1.616.301 1.33-31.594 21.887L0 374.15z"/><path fill="#f81e91" stroke="#f81e91" d="m200.865 236.748 2.389 34.643-5.54 13.348-53.214-24.782zM202.55 231.019l-69.208 6.573-8.245-22.476 84.928-32.834 11.71 3.631zM66.027 137.8 0 145.725v-22.78l49.27-76.08 48.526-.109-14.779 74.356z"/><path fill="#d99721" stroke="#d99721" d="m202.55 231.019 19.185-45.106 31.857-5.086 28.471 26.927-.006.059-38.364 55.376-40.44 8.202-2.388-34.643z"/><path fill="#d99721" stroke="#d99721" d="m282.057 207.813.006-.059 13.733-.342 56.835 9.648 1.007 89.436-65.329-63.764z"/><path fill="#f81e91" stroke="#f81e91" d="M382 0v56.311l-46.373 56.923-65.864-.326-9.535-27.19L308.976 0z"/><path fill="#d99721" stroke="#d99721" d="m123.31 0-.333 22.831-10.334 12.306-14.847 11.62-48.525.108L15.67 0z"/><path fill="#f81e91" stroke="#f81e91" d="M0 382v-7.85l76.771-27.613L61.617 382z"/><path fill="#d99721" stroke="#d99721" d="M382 382h-85.876l24.595-52.639 34.895-15.427L382 321.257z"/><path fill="#f81e91" stroke="#f81e91" d="m166.429 136.64-56.618 41.865L66.027 137.8l16.99-16.688 56.733-6.76 21.655 5.324zM144.5 259.957l53.213 24.782.334 2.405-89.983 36.176-.685-1.616 31.506-62.458zM210.025 182.282l-84.928 32.834-4.3-2.485-10.986-34.126 56.618-41.864z"/><path fill="#d99721" stroke="#d99721" d="m139.75 114.353-56.733 6.759 14.78-74.356 14.846-11.62z"/><path fill="#f81e91" stroke="#f81e91" d="m198.047 287.144 7.696 14.195L156.507 382h-8.28l-39.862-57.35-.3-1.33zM120.797 212.631l-41.58 17.512L0 222.803v-77.078l66.027-7.925 43.784 40.705z"/><path fill="#f81e91" stroke="#f81e91" d="m0 222.802 79.218 7.34 17.574 84.308L0 281.35zM203.254 271.39l40.44-8.2 3.055 46.1-4.648 3.6-36.358-11.551-7.696-14.195-.334-2.405z"/><path fill="#d99721" stroke="#d99721" d="m295.796 207.412 55.26-71.778L382 153.433v53.788l-29.369 9.839z"/><path fill="#f81e91" stroke="#f81e91" d="M0 0h15.67l33.6 46.865L0 122.945z"/><path fill="#d99721" stroke="#d99721" d="m382 153.433-30.944-17.799-15.429-22.4L382 56.311z"/><path fill="#f81e91" stroke="#f81e91" d="m191.427 69.314-30.022 50.362-21.655-5.323-27.107-79.216 10.334-12.306zM61.617 382l15.154-35.463 31.594-21.887L148.226 382zM246.75 309.29l36.108-8.829 37.861 28.9L296.124 382h-52.128l-1.895-69.11z"/><path fill="#d99721" stroke="#d99721" d="m212.84 0-11.082 67.346-10.331 1.968-68.45-46.483L123.31 0zM382 321.257l-26.386-7.323-1.976-7.438-1.007-89.436L382 207.22z"/></svg></g></svg>