<svg xmlns="http://www.w3.org/2000/svg" viewBox="0 0 382 382"><defs><clipPath id="a"><path d="M206.44 314.67h-12.95c-1.21-2.51-3.68-5.19-3.38-7.49.75-5.57 2.98-10.93 4.26-16.45 1.32-5.69 2.27-11.47 3.26-17.23.45-2.59 0-5.5 1.03-7.79 1.44-3.23 4.06-5.91 5.79-9.04.92-1.65 1.56-3.78 1.43-5.63-.52-7.52-1.58-15.01-2.06-22.53-.5-7.85-4.73-14.92-12.25-16.61-7.27-1.63-14.94-2.3-22.38-1.99-5.67.24-10.44-.05-14.85-3.97-4.27-3.81-9.03-7.07-13.42-10.76-10.97-9.21-23.3-14.58-37.79-15.62-13.59-.97-23.89-11.32-22.18-27.83.35-3.39-1.96-7.06-3.05-10.6v-8.98c2.87-4.82 6.05-9.49 8.52-14.51 2.88-5.83 7.45-8.74 13.57-10.16 9.19-2.13 18.35-4.43 27.43-6.98 11.92-3.35 20.95-9.71 22.65-23.23.12-.97 1.37-2.05 2.36-2.6 5.11-2.85 9.16.46 13.25 2.7 3.34 1.83 5.3 1.31 7.01-2.2 2.7-5.54 6.16-6.44 11.54-4.15 1.78.76 4.49 1 6.09.17 5.44-2.82 11-2.87 16.83-2.25 1.35.14 2.85-1.04 4.28-1.61h2.99c.54.52.99 1.31 1.63 1.51 5.05 1.63 10.13 3.21 15.24 4.64.82.23 1.86-.51 2.81-.58 3.67-.27 7.73-1.53 10.93-.39 3.66 1.3 6.42 4.96 9.83 7.21 2.03 1.34 4.48 2.32 6.87 2.81 5.88 1.22 11.85 2.03 17.76 3.08 3.22.57 4.62 2.39 4.46 5.87-.12 2.71.25 5.59 1.09 8.16 2.07 6.3 8.55 6.38 13.31 8.91 1.21.64 3.07 1.46 3.22 2.42.65 4.02 1.13 8.15.98 12.21-.15 4.04-1.57 8.05-1.56 12.07 0 1.96 2.01 3.91 3.1 5.87v22.94c-.77 4.18-1.59 8.36-2.3 12.55-1.89 11.1-3.76 22.2-5.6 33.31-1.17 7.08-2.2 14.17-3.41 21.24-.71 4.18-1.82 8.29-2.44 12.48-.7 4.73-1.27 9.5-1.46 14.27-.12 2.91.57 5.85.94 8.77.33 2.58-.56 4.1-3.01 5.47-6.85 3.82-13.69 7.76-20.12 12.23-17.42 12.11-35.35 23.07-56.19 28.34-1.42.36-2.71 1.27-4.06 1.93z"/></clipPath></defs><g clip-path="url(#a)"><svg xmlns="http://www.w3.org/2000/svg" width="382" height="382" style="shape-rendering:geometricPrecision"><path fill="#882d3d" stroke="#882d3d" d="m326.908 184.186 55.092 5.03v63.651l-2.772.315-.442-.078-28.614-15.807-23.32-48.984z"/><path fill="#6acd09" stroke="#6acd09" d="m78.73 109.01 3.48 3.424-24.985 53.268-20.209 7.056L0 157.273V98.67l47.978-10.478zM382 382H262.968l-.49-4.896 26.876-37.245 45.134-6.994 17.289 11.34L382 377.652z"/><path fill="#882d3d" stroke="#882d3d" d="m120.17 382 16.772-12.615 36.962 3.88 4.474 8.735zM221.423 329.332l6.167 14.277-26.43 34.104-17.678-35.87z"/><path fill="#6acd09" stroke="#6acd09" d="m111.803 292.633 16.194 41.748-19.468 25.299-20.135-18.208-1.313-2.57 17.725-44.873zM0 284.129l25.47-13.172 46.593 22.88-37.045 38.976L0 340.371z"/><path fill="#882d3d" stroke="#882d3d" d="m268.273 133.68 25.072-32.36 19.415 1.889 7.457 11.189 2.99 12.174-.95 47.732-12.924-1.645-30.425-14.593z"/><path fill="#6acd09" stroke="#6acd09" d="m323.206 126.572 35.135.247 4.425 2.44 1.336 2.39-5.246 21.767-36.073 21.38-.526-.492zM106.148 55.182l13.887 15.854L78.73 109.01 47.978 88.193l10.81-22.863z"/><path fill="#882d3d" stroke="#882d3d" d="m283.562 79.057-38.286-20.352 8.794-7.734 25.221-4.466 7.774 14.042zM199.726 382l1.433-4.287 26.43-34.104 34.89 33.495.489 4.896z"/><path fill="#6acd09" stroke="#6acd09" d="m283.562 79.057 3.503-18.51 23.665-1.549 10.775 3.759 1.96 21.82-10.705 18.632-19.415-1.89-6.566-6.419zM134.54 295.667l26.698 40.019-4.199 2.74-29.042-4.045-16.194-41.748 5.91-2.917zM350.172 237.297l28.614 15.807-55.239 43.67-13.62-13.079 6.276-27.784zM309.333 172.66l12.924 1.644.526.493 4.125 9.389-.057 4.127-37.587 44.643-58.766 10.211-5.747-9.72z"/><path fill="#882d3d" stroke="#882d3d" d="m382 73.667-4.28-1.558-19.114-25.557 9.676-19.201 13.718.045zM219.672 105.16l.768-15.787 66.34 5.527 6.565 6.42-25.072 32.36-37.294-9.93zM136.43 238.199l-18.717 51.517-5.91 2.917-6.997 1.396-10.044-5.044-26.484-46.928 69.407-12.502z"/><path fill="#6acd09" stroke="#6acd09" d="m230.979 123.75 37.294 9.93 10.635 24.386-58.896 32.955zM288.296 29.315 271.496 0h47.31l4.672 23.694-28.604 6.214z"/><path fill="#882d3d" stroke="#882d3d" d="m94.113 185.725-31.256 25.536-25.84-38.503 20.208-7.056zM279.291 46.505l9.005-17.19 6.578.593 15.856 29.09-23.665 1.55z"/><path fill="#6acd09" stroke="#6acd09" d="m219.672 105.16 11.307 18.59-10.967 67.27-12.446 20.107-49.299-15.296-19.66-28.57-1.032-8.015zM94.762 288.985l10.044 5.044-17.725 44.873-52.063-6.089 37.045-38.976z"/><path fill="#882d3d" stroke="#882d3d" d="m278.908 158.066 30.425 14.593-84.582 60.788-.9-.99-16.285-21.33 12.446-20.106z"/><path fill="#6acd09" stroke="#6acd09" d="M120.17 382h-.733l-10.908-22.32 19.468-25.299 29.042 4.045-20.097 30.959z"/><path fill="#882d3d" stroke="#882d3d" d="m58.78 236.583-33.31 34.374L0 284.13v-44.734l32.741-21.098 24.176 9.072z"/><path fill="#6acd09" stroke="#6acd09" d="m207.566 211.127 16.284 21.33-60.647 40.013L136.43 238.2l1.255-8.644 20.582-33.724z"/><path fill="#882d3d" stroke="#882d3d" d="m137.112 67.616-17.077 3.42-13.887-15.854 10.181-7.776z"/><path fill="#6acd09" stroke="#6acd09" d="m224.751 233.447 5.747 9.72 3.887 33.847-2.699 3.833-50.6 14.187-17.535-5.671-.348-16.893 60.647-40.012zM289.264 232.956l26.939 22.955-6.276 27.784-56.067 2.363-19.475-9.044-3.887-33.847z"/><path fill="#882d3d" stroke="#882d3d" d="M382 0v27.396l-13.718-.045-5.479-26.288.313-1.063z"/><path fill="#6acd09" stroke="#6acd09" d="m163.203 272.47.348 16.893-29.01 6.304-16.828-5.951 18.717-51.517zM137.575 159.246l1.032 8.015-44.494 18.464-36.888-20.023 24.985-53.268 46.538 30.294z"/><path fill="#882d3d" stroke="#882d3d" d="m245.276 58.705-26.177 12.744L219.547 0h35.095l-.572 50.97z"/><path fill="#6acd09" stroke="#6acd09" d="m0 191.957 32.741 26.34L0 239.395zM183.482 341.844l17.677 35.869-1.433 4.287h-21.348l-4.474-8.735 1.76-30.926z"/><path fill="#882d3d" stroke="#882d3d" d="m359.022 80.072 18.698-7.963 4.28 1.558v27.849l-8.16 5.18-18.26 3.212-5.11-1.762z"/><path fill="#6acd09" stroke="#6acd09" d="m219.672 105.16-82.097 54.086-8.827-16.518 29.797-70.538 10.12-8.648 47.538 12.294 4.237 13.537zM106.148 55.182 58.788 65.33 70.838 0h58.095L116.33 47.406z"/><path fill="#882d3d" stroke="#882d3d" d="M321.505 62.757 334.8 42.09l23.806 4.462 19.114 25.557-18.698 7.963-35.557 4.505z"/><path fill="#6acd09" stroke="#6acd09" d="m309.927 283.695 13.62 13.078 10.941 36.092-45.134 6.994-35.494-53.8z"/><path fill="#882d3d" stroke="#882d3d" d="M30.243 0 0 37.775V0z"/><path fill="#6acd09" stroke="#6acd09" d="m355.58 109.908 18.26-3.212-11.074 22.564-4.425-2.441zM68.278 242.057l26.484 46.928-22.699 4.852-46.593-22.88 33.31-34.374zM158.545 72.19l-29.797 70.538-46.538-30.294-3.48-3.425 41.305-37.973 17.077-3.42zM216.203 75.836l-47.539-12.294L152.208 0h67.34l-.449 71.449zM289.264 232.956l37.587-44.643 23.321 48.984-33.97 18.614zM358.606 46.552 334.8 42.09l-7.598-15.645 35.601-25.382 5.48 26.288zM163.535 335.716l12.129 6.623-1.76 30.926-36.962-3.88 20.097-30.96 4.199-2.74z"/><path fill="#882d3d" stroke="#882d3d" d="m220.44 89.373-4.237-13.537 2.896-4.387 26.177-12.744 38.286 20.352 3.217 15.843zM382 377.652l-30.223-33.447 27.451-91.023 2.772-.315z"/><path fill="#6acd09" stroke="#6acd09" d="m312.76 103.209 10.705-18.632 35.557-4.505-8.552 28.074-30.253 6.252z"/><path fill="#6acd09" stroke="#6acd09" d="m320.217 114.398 30.253-6.252 5.11 1.762 2.761 16.91-35.135-.246zM0 157.273l37.016 15.485 25.84 38.503-5.939 16.108-24.176-9.072L0 191.957zM323.547 296.773l55.239-43.67.442.08-27.451 91.022-17.289-11.34z"/><path fill="#882d3d" stroke="#882d3d" d="m234.385 277.014 19.475 9.044 35.494 53.8-26.875 37.246-34.89-33.495-6.166-14.277 10.263-48.485z"/><path fill="#6acd09" stroke="#6acd09" d="m321.505 62.757-10.775-3.759-15.856-29.09 28.604-6.214 3.724 2.751L334.8 42.09zM364.102 131.648l17.898-.653v23.354l-23.144-.933z"/><path fill="#882d3d" stroke="#882d3d" d="m363.116 0-.313 1.063-35.601 25.382-3.724-2.75L318.807 0z"/><path fill="#6acd09" stroke="#6acd09" d="m382 130.995-17.898.653-1.336-2.388 11.074-22.564 8.16-5.18zM158.267 195.83l-20.582 33.725-69.407 12.502-9.499-5.474-1.862-9.214 5.94-16.108 31.256-25.536 44.494-18.464z"/><path fill="#882d3d" stroke="#882d3d" d="m358.856 153.416 23.144.933v34.867l-55.092-5.03-4.125-9.39z"/><path fill="#6acd09" stroke="#6acd09" d="m163.55 289.363 17.537 5.67-17.552 40.683-2.297-.03-26.697-40.019zM62.343 382l26.051-40.528 20.135 18.208L119.437 382z"/><path fill="#882d3d" stroke="#882d3d" d="m181.087 295.034 50.6-14.187-10.264 48.485-37.941 12.512-7.818.495-12.129-6.623z"/><path fill="#6acd09" stroke="#6acd09" d="M279.291 46.505 254.07 50.97 254.642 0h16.854l16.8 29.315zM0 382v-41.63l35.018-7.557 52.063 6.089 1.313 2.57L62.344 382zM158.545 72.19l-21.433-4.574-20.783-20.21L128.933 0h23.275l16.456 63.542z"/><path fill="#882d3d" stroke="#882d3d" d="M0 37.775 30.243 0h40.595l-12.05 65.33-10.81 22.863L0 98.67z"/></svg></g></svg>