<svg xmlns="http://www.w3.org/2000/svg" viewBox="0 0 382 382"><defs><clipPath id="a"><path d="M206.44 314.67h-12.95c-1.21-2.51-3.68-5.19-3.38-7.49.75-5.57 2.98-10.93 4.26-16.45 1.32-5.69 2.27-11.47 3.26-17.23.45-2.59 0-5.5 1.03-7.79 1.44-3.23 4.06-5.91 5.79-9.04.92-1.65 1.56-3.78 1.43-5.63-.52-7.52-1.58-15.01-2.06-22.53-.5-7.85-4.73-14.92-12.25-16.61-7.27-1.63-14.94-2.3-22.38-1.99-5.67.24-10.44-.05-14.85-3.97-4.27-3.81-9.03-7.07-13.42-10.76-10.97-9.21-23.3-14.58-37.79-15.62-13.59-.97-23.89-11.32-22.18-27.83.35-3.39-1.96-7.06-3.05-10.6v-8.98c2.87-4.82 6.05-9.49 8.52-14.51 2.88-5.83 7.45-8.74 13.57-10.16 9.19-2.13 18.35-4.43 27.43-6.98 11.92-3.35 20.95-9.71 22.65-23.23.12-.97 1.37-2.05 2.36-2.6 5.11-2.85 9.16.46 13.25 2.7 3.34 1.83 5.3 1.31 7.01-2.2 2.7-5.54 6.16-6.44 11.54-4.15 1.78.76 4.49 1 6.09.17 5.44-2.82 11-2.87 16.83-2.25 1.35.14 2.85-1.04 4.28-1.61h2.99c.54.52.99 1.31 1.63 1.51 5.05 1.63 10.13 3.21 15.24 4.64.82.23 1.86-.51 2.81-.58 3.67-.27 7.73-1.53 10.93-.39 3.66 1.3 6.42 4.96 9.83 7.21 2.03 1.34 4.48 2.32 6.87 2.81 5.88 1.22 11.85 2.03 17.76 3.08 3.22.57 4.62 2.39 4.46 5.87-.12 2.71.25 5.59 1.09 8.16 2.07 6.3 8.55 6.38 13.31 8.91 1.21.64 3.07 1.46 3.22 2.42.65 4.02 1.13 8.15.98 12.21-.15 4.04-1.57 8.05-1.56 12.07 0 1.96 2.01 3.91 3.1 5.87v22.94c-.77 4.18-1.59 8.36-2.3 12.55-1.89 11.1-3.76 22.2-5.6 33.31-1.17 7.08-2.2 14.17-3.41 21.24-.71 4.18-1.82 8.29-2.44 12.48-.7 4.73-1.27 9.5-1.46 14.27-.12 2.91.57 5.85.94 8.77.33 2.58-.56 4.1-3.01 5.47-6.85 3.82-13.69 7.76-20.12 12.23-17.42 12.11-35.35 23.07-56.19 28.34-1.42.36-2.71 1.27-4.06 1.93z"/></clipPath></defs><g clip-path="url(#a)"><svg xmlns="http://www.w3.org/2000/svg" width="382" height="382" style="shape-rendering:geometricPrecision"><path fill="#7f9913" stroke="#7f9913" d="m313.162 124.196-7.295-18.954 35.737 6.514 6.282 6.382-5.552 5.948-18.128 8.407z"/><path fill="#70e664" stroke="#70e664" d="m295.297 275.965 3.386-21.263 30.042-23.736 16.048 30.457 10.46 49.235z"/><path fill="#7f9913" stroke="#7f9913" d="m158.256 246.134 46.537-8.09 6.656 6.096-1.127 5.663-18.494 32.702-38.308-9.832 1.608-22.177z"/><path fill="#70e664" stroke="#70e664" d="m120.566 142.546-2.595 29.424-52.381-18.848 23.861-25.214 25.646-11.66zM329.483 220.047l52.517-7.13v37.812l-37.227 10.694-16.048-30.457z"/><path fill="#7f9913" stroke="#7f9913" d="m0 205.842 17.318-.71 10.501 6.466 5.466 76.568L0 302.091z"/><path fill="#70e664" stroke="#70e664" d="m219.736 171.71-27.581-33.386 27.143-6.923 23.773 3.816 1.5.759 4.927 8.568-3.225 20.04-16.9 10.963z"/><path fill="#7f9913" stroke="#7f9913" d="m382 171.104-34.675-1.722 29.225-51.338 5.45-1.72z"/><path fill="#70e664" stroke="#70e664" d="m163.8 171.249-40.01 18.08-5.82-17.36 2.596-29.423 47.61 16.646zM105.748 224.742l-12.64 24.484-22.58-7.186-8.347-30.916 12.104-9.63 33.647 1.702zM238.019 233.754l14.54 5.616 8.386 12.51-5.831 44.978-44.792-47.055 1.127-5.663z"/><path fill="#7f9913" stroke="#7f9913" d="m208.743 0-51.15 34.5-3.99 1.822L149.05 0z"/><path fill="#70e664" stroke="#70e664" d="m382 43.347-48.419-23.534L327.093 0H382z"/><path fill="#7f9913" stroke="#7f9913" d="M382 382H215.926l19.374-54.299 22.846-11.74 2.949.33 118.244 56.141 2.661 2.86z"/><path fill="#70e664" stroke="#70e664" d="m177.375 139.499-31.63-26.98 28.61-19.783 21.071 11.407-10.047 32.456z"/><path fill="#7f9913" stroke="#7f9913" d="m210.322 249.803 44.792 47.055 3.032 19.104-22.846 11.74-35.035-23.583-8.437-21.614zM0 382v-31.11l81.65-5.044L68.993 382z"/><path fill="#70e664" stroke="#70e664" d="m219.298 131.4-8.032-38.471 6.331-7.933 25.474 50.221zM115.097 116.247 89.45 127.908l-30.118-23.637 23.174-22.762 36.971 26.986z"/><path fill="#7f9913" stroke="#7f9913" d="m59.333 104.27-51.317 6.383L0 105.388V62.722L63 37.74l19.507 43.768zM238.364 216.72l26.565-20.453 1.05 2.599 3.281 26.023-16.7 14.48-14.541-5.615z"/><path fill="#70e664" stroke="#70e664" d="m298.34 138.158 14.822-13.962 11.044 8.297-3.553 9.816-7.711 3.705zM119.478 108.495 82.507 81.51 63 37.74l14.406-17.026 61.495 27.324.518 3.713-16.005 54.5z"/><path fill="#7f9913" stroke="#7f9913" d="m149.05 0 4.553 36.322-8.58 5.626L135.73 0z"/><path fill="#70e664" stroke="#70e664" d="m68.994 382 12.655-36.154 7.18-8.491 31.015 3.67 16.565 3.829L153.557 382z"/><path fill="#7f9913" stroke="#7f9913" d="m191.828 282.505 8.437 21.614-61.983 37.113 3.223-60.794 12.015-7.765zM324.093 200.147l19.265-29.085 3.967-1.68L382 171.104v41.812l-52.517 7.131-2.23-3.783zM246.273 164.584l3.225-20.04 33.255-8.23 1.901 1.417 14.888 42.95-31.692.151zM202.235 175.414l-20.906 20.235-17.528-24.4 4.375-12.057 2.718-3.893z"/><path fill="#70e664" stroke="#70e664" d="m229.373 175.547 16.9-10.963 21.577 16.248-2.921 15.435-26.565 20.452-11.641-29.39z"/><path fill="#7f9913" stroke="#7f9913" d="m0 105.388 8.016 5.265 29.642 35.857-20.34 58.622-17.318.71zM331.327 76.286l-21.607 5.63.109-32.122 22.258-20.544 6.282 34.997zM168.176 159.192l-47.61-16.646-5.47-26.299 4.382-7.752 3.936-2.243 22.33 6.267 31.631 26.98-6.481 15.8z"/><path fill="#70e664" stroke="#70e664" d="m332.087 29.25 1.494-9.437L382 43.347v27.328l-43.63-6.428zM163.8 171.249l17.529 24.4 3.08 11.983-22.774 10.199-33.827-14.73-6.531-6.717 2.513-7.056zM340.166 163.067l-19.513-20.758 3.553-9.816 18.128-8.407zM341.604 111.756l-8.202-32.091L382 99.88v16.444l-5.45 1.72-28.664.094z"/><path fill="#70e664" stroke="#70e664" d="m161.635 217.83-3.379 28.304-3.128 4.362-20.513-13.641-6.807-33.753z"/><path fill="#7f9913" stroke="#7f9913" d="m78.091 0-.685 20.715L63 37.741 0 62.721V0zM382 375.291l-2.661-2.859-24.106-61.774-10.46-49.235L382 250.73zM223.262 70.668l.2-4.468 19.01-33.658 26.925 24.9 15.773 24.236-15.676 19.979-13.552 5.422zM174.918 74.458l-35.499-22.706-.518-3.713 6.121-6.091 8.58-5.626 3.991-1.822 43.44 32.73z"/><path fill="#70e664" stroke="#70e664" d="m303.366 182.336 9.576-36.322 7.711-3.705 19.513 20.758 3.192 7.995-19.265 29.085zM105.748 224.742l16.046 20.512-8.59 25.623-7.367.543-12.729-22.194z"/><path fill="#7f9913" stroke="#7f9913" d="M138.9 48.04 77.407 20.714 78.091 0h57.64l9.291 41.948zM295.297 275.965l59.936 34.693 24.106 61.774-118.244-56.14zM282.753 136.313l1.627-7.225 20.66-24.537.827.691 7.295 18.954-14.823 13.962-13.685-.427z"/><path fill="#70e664" stroke="#70e664" d="m74.285 201.495-12.104 9.629-34.362.474-10.5-6.466 20.339-58.622 27.796 6.682z"/><path fill="#7f9913" stroke="#7f9913" d="m66.239 299.54 22.59 37.815-7.18 8.491L0 350.89V302.09l33.285-13.925 4.654.05z"/><path fill="#70e664" stroke="#70e664" d="m269.26 224.889 26.747-6.261 31.246-2.364 2.23 3.783-.758 10.919-30.042 23.736-37.738-2.821-8.386-12.511z"/><path fill="#7f9913" stroke="#7f9913" d="m267.85 180.832 31.692-.152 3.824 1.656 20.727 17.811 3.16 16.117-31.246 2.364-30.028-19.762-1.05-2.599zM141.505 280.438l-3.223 60.794-1.873 3.622-16.565-3.83-15.242-68.397 1.235-1.207 7.367-.543z"/><path fill="#70e664" stroke="#70e664" d="m340.166 163.067 2.168-38.98 5.552-5.95 28.664-.093-29.225 51.338-3.967 1.68z"/><path fill="#7f9913" stroke="#7f9913" d="m65.59 153.122-.136.07-27.796-6.682-29.642-35.857 51.317-6.382 30.118 23.637zM305.04 104.55l-4.944-17.116 9.624-5.519 21.607-5.629 2.075 3.379 8.202 32.091-35.737-6.514z"/><path fill="#70e664" stroke="#70e664" d="m269.26 224.889-3.281-26.023 30.028 19.762zM127.808 203.102l6.807 33.753-12.821 8.399-16.046-20.512 2.184-21.546 13.345-6.812z"/><path fill="#7f9913" stroke="#7f9913" d="m269.494 101.657 15.676-19.98 14.926 5.757 4.944 17.117-20.66 24.537zM195.426 104.143l-21.072-11.407.564-18.278 26.115-7.228 22.428-1.03-.199 4.468-5.665 14.328-6.331 7.933z"/><path fill="#70e664" stroke="#70e664" d="m190.524 211.258 14.27 26.785-46.538 8.09 3.379-28.302 22.774-10.199z"/><path fill="#7f9913" stroke="#7f9913" d="m121.277 196.384-13.345 6.812-33.647-1.701-8.831-48.303.136-.07 52.38 18.848 5.82 17.358z"/><path fill="#70e664" stroke="#70e664" d="m219.298 131.4-27.143 6.924-6.776-1.725 10.047-32.456 15.84-11.214zM331.327 76.286l7.042-12.04L382 70.677V99.88l-48.598-20.215zM201.033 67.23l-43.44-32.73L208.743 0h31.953l1.776 32.542-19.01 33.658zM285.17 81.678l-15.773-24.236 40.432-7.648-.109 32.121-9.624 5.52zM104.602 272.627l15.242 68.398-31.014-3.67-22.591-37.814z"/><path fill="#7f9913" stroke="#7f9913" d="m243.071 135.217-25.474-50.22 5.665-14.33 32.68 36.412-11.371 28.897zM260.945 251.88l37.738 2.822-3.386 21.263-34.202 40.326-2.949-.33-3.032-19.103zM202.235 175.414l-31.341-20.115 6.481-15.8 8.004-2.9 6.776 1.725 27.581 33.385zM145.744 112.52l-22.33-6.268 16.005-54.5 35.499 22.706-.564 18.278z"/><path fill="#70e664" stroke="#70e664" d="m155.128 250.496-1.608 22.177-12.015 7.765-28.301-9.561 8.59-25.623 12.82-8.4z"/><path fill="#7f9913" stroke="#7f9913" d="m244.57 135.976 11.372-28.897 13.552-5.422 14.886 27.431-1.627 7.225-33.255 8.23z"/><path fill="#70e664" stroke="#70e664" d="m299.542 180.68-14.888-42.949 13.685.427 14.603 7.856-9.576 36.322z"/><path fill="#7f9913" stroke="#7f9913" d="m138.282 341.232 61.983-37.113 35.035 23.582L215.926 382h-62.369l-17.148-37.146zM242.472 32.542 240.696 0h86.397l6.488 19.813-1.494 9.437-22.258 20.544-40.432 7.648z"/><path fill="#70e664" stroke="#70e664" d="m70.528 242.04 22.58 7.186 12.729 22.194-1.235 1.207-38.363 26.914-28.3-11.326zM202.235 175.414l17.501-3.705 9.637 3.838-2.65 11.781-36.2 23.93-6.114-3.626-3.08-11.983zM190.524 211.258l36.199-23.93 11.641 29.391-.345 17.035-26.57 10.386-6.656-6.097z"/><path fill="#70e664" stroke="#70e664" d="M70.528 242.04 37.94 288.215l-4.654-.049-5.466-76.568 34.362-.474z"/></svg></g></svg>