<svg xmlns="http://www.w3.org/2000/svg" viewBox="0 0 382 382"><g fill="none" stroke="#203e28" stroke-width="2"><path d="M221.69 70.47q-2.6 3.57-3.66 5.56-.34.63-.05 1.45.19.57.64.18.58-.48 1.28-.55.46-.04.84.23l2.76 1.96q.45.32.53.86.34 2.27-1.35 3.7-.44.38-.19.9.35.71 0 1.37-.27.52.25.79l1.41.72q.72.38.82-.43l.17-1.46q.1-.87.83-.19.11.1.26.12.41.07.72-.21l1.16-1.05q.62-.56 1.04.16.82 1.43 1.78 2.97.21.34.61.3a.55.55 0 0 0 .49-.62q-.54-4.11 1.49-6.49.4-.46.23-1.05-.57-1.89-2.06-3.02-.39-.3-.52-.78-.35-1.32.09-2.55M240.38 72.01q.46 1.07 1.4.07M255.28 79.9q1.75 3.21-.37 5.3-.37.36-.2.84.7 2.06-.92 3.77-.3.32-.23.76.22 1.31.83 2.47a1.03 1.01-49.2 0 1 .05.81l-1.25 3.33q-.1.27.13.44.14.09.29.07.24-.03.27-.27l.1-.89q.09-.76.68-.26.72.6 1.61.85.49.13.6.62.18.77.23 1.61.01.17.12.29.1.13.28.13.35 0 .4-.34.12-.92.14-1.8 0-.15.08-.27.11-.17.3-.26.39-.17.55.23l.12.32q.08.19.28.13.14-.04.22-.16a.32.31-57.8 0 0-.1-.47q-.7-.39-.04-.86a.66.66 0 0 0 .05-1.04q-.22-.19-.53-.2a.65.64-81 0 1-.6-.83q.23-.74.94-.91 1.41-.34 2.85-.88.71-.26.74.49l.05.97q.03.65.65.86l3.3 1.13a.76.76 0 0 0 .99-.58q.28-1.53 1.74-1.48a1.6 1.6 0 0 1 1.26 2.49q-1.09 1.64.54 2.61a.6.6 0 0 1 .23.79q-.26.51-.75.79a.96.95 65.6 0 0-.42 1.12l.17.53q.19.61-.01 1.21l-1.33 4.1q-.18.55.06 1.07.4.88.16 1.79-.1.4.28.57 1.01.44 1.35 1.56.19.63.73.24 1.55-1.14.51-2.74a.59.58-27.4 0 1 .28-.86l1.57-.64q.57-.23.64.38l.13 1.2q.09.77.81.49.65-.25 1.27.07.84.42.86-.52 0-.33.16-.62.32-.58.79-.12c2.86 2.77 1.32 6.86.97 10.32-.15 1.45.78 3.75 2.65 3.29a.55.55 0 0 0 .41-.62q-.12-.81-.52-1.5-.37-.65.37-.7 1.29-.11 1.12-1.41-.03-.25.19-.38.12-.07.26-.1.42-.11.45.33.05.75.55 1.26a.89.89 0 0 0 1.5-.4q.26-1.04.98-1.97.51-.66.95.05 1.88 3.07 2.39 6.51.26 1.79 1.96 2.03a.64.64 0 0 0 .73-.59c.13-2-.21-4.22 1.06-5.93q.97-1.3 1.73-2.82a.81.81 0 0 1 1.29-.22l1.11 1.08q.43.41.85-.02l1.46-1.49q.56-.58-.2-.87l-.35-.13q-.54-.2-.67-.77l-.65-2.68q-.11-.46.09-.89.3-.64.38-1.45M289.39 253.21q-.02-.39-.21-.63-.28-.37-.73-.19a.49.47-12.8 0 0-.31.47q.01.35-.13.64-.36.73-.79.04-.83-1.31-.73-2.35.29-3.04.45-5.62.01-.16-.16-.17l-.29-.03a.38.38 0 0 0-.42.38q0 .49-.26.86-.44.63-.79-.05-.89-1.67-2.32-.87-.52.29-.55-.3-.02-.17.13-.21.84-.22.3-.89-.17-.2-.25-.45-.17-.57.29-.94 1.51-1.25 1.41-3.21-.02-.52-.51-.36-1.48.47-3.16-.58-.38-.23-.37-.68.03-1.45.79-2.86 1.17-2.2-1.28-1.76-.78.14-1.68.18-1.12.06-.9-1.04.57-2.9-.71-5.19a.52.52 0 0 0-.96.14q-.47 2.16-1.52 4.14-.46.86-1.2.22l-1.97-1.7q-.13-.12-.3-.05-.16.06-.19.21-.1.45.14.85 1.63 2.86-.73 4.88-.49.42.13.62 1.28.4 1.65 1.77.04.15.17.24.11.08.26.09.33.02.32-.32l-.04-1.05a.29.29 0 0 1 .25-.31l.27-.04q.4-.06.4.34l.07 4.54q.01.54-.49.74-2.48 1.02-1.95 3.84.09.5-.26.86-.23.23-.54.32-.49.14-.83-.25-.39-.47-.61-1-1.27-3.1-2.53.04-.6 1.47-2 .92-.44-.17-.83.09-3.05 1.99-1.2 5.03a1.12 1.12 0 0 1-.15 1.36l-2.53 2.61q-1.15 1.18-1.03-.46.14-1.88-.24-3.75a1.2 1.2 0 0 0-1.9-.72q-.49.37-1.09.38-.75.02-.76-.73-.01-1.57.82-2.93a.66.66 0 0 0-.34-.97q-1.82-.68-1.29-2.74.14-.51.01-1.03l-2.5-10q-.22-.88-.65-.08-.2.37-.27.78-.14.86-.97.57-1.04-.36-1.78-1.27-.9-1.11-1.04.32-.34 3.39.94 6.66a.88.88 0 0 1-.15.89q-.4.49-1.06.59-.6.09-.66.69l-.18 1.73a.41.41 0 0 1-.65.28q-1.14-.82-1.46-2.21-.2-.89-.47-.02-.53 1.68-2.52 1.58a1.34 1.34 0 0 0-1.33 1.77q.63 1.79-.73 3.77-.33.48-.69.03-1.04-1.3-1.22-2.96-.07-.57-.62-.76-.69-.24-1.43-.22-.7.03-.3-.55.76-1.11-.15-2.24-.45-.55-.61-1.23-.7-2.89-.37-5.18.09-.63-.55-.58-.7.06-1.34-.21-.68-.28-.36-.94l.82-1.71q.05-.11.06-.23.01-.27-.15-.39-.32-.27-.64.01-.44.38-.99.41a1.42 1.41 60.1 0 1-.88-.24q-.72-.48-1.52-.67-.91-.2-.48.63l.56 1.07q.35.65-.23 1.11-.37.29-.84.36-.73.13-.31.74.68 1 1.84 1.39.42.13.18.5-1.39 2.07-1.62 4.58-.1 1.08-.82.26l-.93-1.05q-.81-.92-1.15.26-.32 1.12-1.06 2-.34.4-.29.92.19 1.83-.68 3.6-.2.42-.64.27l-2.67-.92q-.78-.27-.81-1.1-.03-.96-.91-.94-.5.01-.71-.45-.56-1.3-1.67-2.33-.27-.24-.26-.6l.01-.44a.69.68-82.6 0 0-.52-.68q-.65-.16-1.17-.55-.41-.3-.52-.8-.34-1.5-1.29-2.64-.1-.12-.26-.12-.14-.01-.21.21-.05.15.02.3 1.2 2.18-1 3.25c-.59.29-1.26.23-1.85.49q-.72.31-.29.97l1.33 1.99q.21.31.14.67-.02.15-.07.28-.32.94.64.7.49-.12.95-.38.56-.31.62.32.2 2.18-.11 4.32-.05.37-.29.65-.16.19-.4.29-.56.24-.36.82.43 1.26-.35 2.44a1.15 1.14 46.2 0 0-.02 1.24q.64 1.03.72 2.25.04.68-.61.9-1.09.37-1.54 1.44-.29.68-1.02.72l-2.66.13q-.86.04-1.21.82-.38.82-1.25 1.09-.55.17-.67.73-.48 2.22.86 3.89.15.19.39.21.18.01.32-.1.33-.28.29-.71-.08-.67.67-.64a.81.8-10.5 0 1 .73.5l1.92 4.64q.14.33.45.5l.36.2q.55.31.25.87-.27.49.09.97.35.47-.04.91-1.85 2.13-1.29 5.23.08.46.46.74.41.31.9.15.63-.2.27-.75l-.36-.54q-.19-.3.03-.57.1-.12.24-.16.47-.1.85.19.82.63 1.76.33.63-.2.65.46.06 1.69 1.3 2.61.72.53.35-.28-.36-.81.1-1.47.22-.32.6-.45.52-.17.79.09.57.56.91-.18.35-.77.65-1.47.28-.65-.29-1.07-.78-.56-1.12-1.42-.26-.64.14-1.19.84-1.16 2.16-1.3a1.39 1.39 0 0 1 1.4.79q.81 1.76 2.64 2.63.68.32.54 1.06l-.62 3.36q-.1.52.08 1.01 1.14 3.26 3.37 5.89a.73.73 0 0 1-.3 1.16q-1.17.45-1.73 1.59-.33.66-.95 1.06l-2.46 1.56a1.03 1.02 39.8 0 0 .17 1.81l.84.34q.45.19.52.67.21 1.52-.33 2.79a1.17 1.14-1.8 0 1-.57.59q-.69.33-.39 1.04.21.49.04.99-.69 1.98-.64 4.06.01.62.58.36 1.48-.7 2.13.87.19.47.05.95l-.54 1.81M209.19 313.25q-.25-.53-.29-1.21-.03-.55-.58-.54-2.56.03-4.53-1.23-.54-.35-.66.28l-.79 4.23M80.51 148.01q.46-.98.46-2.23 0-.54.18-1.02.22-.58.85-.71.62-.13.8-.74c.43-1.54 2.22-4.93.02-5.92q-.97-.44-.82.62.08.52-.35.78a.52.52 0 0 1-.78-.54q.48-2.7-.4-4.53-.37-.77.48-.64.21.03.42-.12.37-.28.46-.73.47-2.17 1.6-4.16.27-.48.08-.99-.63-1.72.43-3.74a.55.55 0 0 1 .96-.02q.89 1.48 2.44 1.81.51.1.64.61.22.82-.47 1.37-.48.38.05.69.15.09.34.09.67.03.58.69-.3 2.21 1.77 4.2a.41.41 0 0 0 .69-.32q-.13-1.95 1.07-3.12.41-.4.81 0l1.38 1.34q.82.8.72-.34-.05-.56.22-1.01.31-.52.63 0 .79 1.33.7 2.67-.16 2.46-.51 5.39-.04.34.3.37l.31.03q.29.02.35-.26l.19-.83q.2-.85.82-.24l1.04 1.01q.55.54 1.05-.04.14-.16.39-.15.62.04.22.52-.54.64-.1 1.29.37.55-.12.98-1.5 1.3-1.51 3.24 0 .53.5.38 1.61-.5 3.39.66a.74.73-65.1 0 1 .3.83l-1.1 3.42a.74.74 0 0 0 .76.97l2.75-.22q.59-.05.52.54-.38 2.84.37 4.8.98 2.59 1.65-.1.39-1.59 1.13-3.09.48-.97 1.31-.31.77.59 1.51 1.28 1.19 1.1.82-.47c-.45-1.93-1.7-3.35.54-4.94q1.05-.76-.21-1.03-1.31-.29-1.4-1.64a.32.32 0 0 0-.64.02l-.02 1.09q0 .23-.2.35-.15.09-.33.06-.53-.09-.53-.63l.06-3.93q.01-.64.54-1 2.02-1.36 1.87-3.85-.03-.47.26-.87.32-.48.91-.41a.71.69 77.4 0 1 .52.34l.85 1.39q1.37 2.25 2.12-.27.48-1.62 1.9-1.1.49.18.91-.12 3.41-2.37 1.16-5.05-.46-.54.04-1.05l3.07-3.1q.65-.65.69.26l.16 3.93a1.27 1.27 0 0 0 1.99.99q.56-.39 1.22-.35.7.05.7.77 0 1.5-.77 2.75-.44.72.33 1.07 1.97.91 1.11 3.04-.33.82.22 1.51.94 1.17.74 2.68a2.57 2.54-52.8 0 0 .17 1.31q1.07 2.56 1.36 5.26.03.31.32.4.51.15.51-.37.02-.74.44-1.26.35-.44.81-.11l1.98 1.43a.37.37 0 0 0 .58-.24q.64-3.63-.68-6.94a.88.87-36.8 0 1 .13-.87q.35-.44.91-.56a1.1 1.1 0 0 0 .88-1.17q-.05-.52.11-1.02.24-.76.84-.23.94.83 1.13 2.01.02.07.07.12.11.09.26.1.34.01.34-.33-.02-.57.28-1.02.26-.4.73-.36 1.47.11 2.54-.79a.75.74 59.8 0 0 .22-.84q-.7-1.9.61-3.99a.67.66-39 0 1 1.19.12l1.03 2.85q.2.57.81.63l.92.1q.82.08.38.78-.83 1.32.4 2.54.48.48.53 1.15.13 1.52.46 3.05c.1.46-.05 1.03-.28 1.43q-.56.97.56.85 1.16-.13 1.69.68a.8.78 53.2 0 1-.14 1.04q-.76.66-.69 1.61.06.65.62.33l.79-.46q.63-.37 1.16.14.72.69 1.68.66.67-.02.32-.59-.38-.61-.53-1.31-.1-.5.29-.84.36-.3.83-.34a.51.51 0 0 0 .35-.83c-.44-.55-1.05-1-1.78-1.1q-.82-.12-.35-.8 1.5-2.19 1.79-4.85a.24.24 0 0 1 .4-.14l1.4 1.35q.54.53.85-.16.59-1.31 1.5-2.26.39-.41.19-.93-.65-1.7.63-3.49.24-.33.61-.2l2.44.85a1.14 1.13 6.9 0 1 .76.96q.08.78.83.91.49.08.78.49l2.69 3.89q.29.42.74.66l.25.14q.47.25.56.78.25 1.67 1.61 2.83.05.04.09-.01l.16-.19q.21-.25-.05-.46-1.29-1.07-.21-2.27.93-1.04 2.45-1 .8.02 1.12-.71.13-.29-.02-.57-.5-.99-1.41-1.65-.73-.53-.22-1.26.59-.84-.42-.67-.61.1-1.13.44-.7.46-.69-.38l.05-4.42a.93.92-7.7 0 1 .67-.87l.41-.12q.62-.18.21-.68-.72-.85-.01-1.93.46-.7.25-1.51l-.59-2.24q-.18-.72.46-1.1.98-.58 1.55-1.55.36-.61 1.06-.67l3.19-.27q.64-.05.73-.68l.05-.3q.13-.88.82-.32.55.44 1.24.43.57 0 .41-.55-.56-1.96-.94-3.85-.16-.77-.79-1.25-.49-.39-.64.22l-.19.74q-.14.54-.67.37-.7-.22-.91-.97-.7-2.42-1.89-4.42a.84.8-4.1 0 0-.39-.32q-.12-.06-.26-.06a.49.49 0 0 1-.42-.75q.38-.62.08-1.31-.25-.56.18-.99 1.95-1.96.96-5.48-.16-.55-.73-.49-.25.02-.44.18-.53.43-.04.89.24.23.29.54.09.69-.6.54-.73-.17-1.29-.58-.46-.34-.95-.04l-.24.14q-.7.41-.72-.4-.03-1.73-1.18-2.87-.08-.08-.18-.1-.14-.04-.26.05-.33.22-.08.53.75.96-.19 1.73-.34.27-.76.14-.17-.06-.31-.17-.55-.45-.89.18l-.72 1.34q-.36.66.21 1.15c1.36 1.17 2.01 2.52 0 3.6q-1.86 1-2.73-.93-.65-1.44-2.26-1.97-.59-.19-.64-.8-.15-1.75.61-3.5.21-.49.05-.99-1.2-3.53-3.55-5.95a.86.86 0 0 1 .48-1.45q1.15-.19 1.45-1.33.15-.56.6-.93 1.11-.9 2.38-1.59 2.15-1.16-.02-2.22-1.67-.82-.96-3.28.13-.44.48-.66.37-.23.8-.26.69-.06.23-.58-.92-1.03-.15-2.16c.56-.82.65-1.81.57-2.77M175.61 71.19l3.77 1.52q.42.17.49-.28.2-1.31-.03-2.57" vector-effect="non-scaling-stroke"/><path d="M85.55 125.47a.14.14 0 0 0-.14-.14.14.14 0 0 0-.14.14.14.14 0 0 0 .14.14.14.14 0 0 0 .14-.14" vector-effect="non-scaling-stroke"/></g><path d="M221.69 70.47q-2.6 3.57-3.66 5.56-.34.63-.05 1.45.19.57.64.18.58-.48 1.28-.55.46-.04.84.23l2.76 1.96q.45.32.53.86.34 2.27-1.35 3.7-.44.38-.19.9.35.71 0 1.37-.27.52.25.79l1.41.72q.72.38.82-.43l.17-1.46q.1-.87.83-.19.11.1.26.12.41.07.72-.21l1.16-1.05q.62-.56 1.04.16.82 1.43 1.78 2.97.21.34.61.3a.55.55 0 0 0 .49-.62q-.54-4.11 1.49-6.49.4-.46.23-1.05-.57-1.89-2.06-3.02-.39-.3-.52-.78-.35-1.32.09-2.55l9.12-1.33q.46 1.07 1.4.07 3.12-.42 5.91 1.75 3.89 3.04 7.59 6.07 1.75 3.21-.37 5.3-.37.36-.2.84.7 2.06-.92 3.77-.3.32-.23.76.22 1.31.83 2.47a1.03 1.01-49.2 0 1 .05.81l-1.25 3.33q-.1.27.13.44.14.09.29.07.24-.03.27-.27l.1-.89q.09-.76.68-.26.72.6 1.61.85.49.13.6.62.18.77.23 1.61.01.17.12.29.1.13.28.13.35 0 .4-.34.12-.92.14-1.8 0-.15.08-.27.11-.17.3-.26.39-.17.55.23l.12.32q.08.19.28.13.14-.04.22-.16a.32.31-57.8 0 0-.1-.47q-.7-.39-.04-.86a.66.66 0 0 0 .05-1.04q-.22-.19-.53-.2a.65.64-81 0 1-.6-.83q.23-.74.94-.91 1.41-.34 2.85-.88.71-.26.74.49l.05.97q.03.65.65.86l3.3 1.13a.76.76 0 0 0 .99-.58q.28-1.53 1.74-1.48a1.6 1.6 0 0 1 1.26 2.49q-1.09 1.64.54 2.61a.6.6 0 0 1 .23.79q-.26.51-.75.79a.96.95 65.6 0 0-.42 1.12l.17.53q.19.61-.01 1.21l-1.33 4.1q-.18.55.06 1.07.4.88.16 1.79-.1.4.28.57 1.01.44 1.35 1.56.19.63.73.24 1.55-1.14.51-2.74a.59.58-27.4 0 1 .28-.86l1.57-.64q.57-.23.64.38l.13 1.2q.09.77.81.49.65-.25 1.27.07.84.42.86-.52 0-.33.16-.62.32-.58.79-.12c2.86 2.77 1.32 6.86.97 10.32-.15 1.45.78 3.75 2.65 3.29a.55.55 0 0 0 .41-.62q-.12-.81-.52-1.5-.37-.65.37-.7 1.29-.11 1.12-1.41-.03-.25.19-.38.12-.07.26-.1.42-.11.45.33.05.75.55 1.26a.89.89 0 0 0 1.5-.4q.26-1.04.98-1.97.51-.66.95.05 1.88 3.07 2.39 6.51.26 1.79 1.96 2.03a.64.64 0 0 0 .73-.59c.13-2-.21-4.22 1.06-5.93q.97-1.3 1.73-2.82a.81.81 0 0 1 1.29-.22l1.11 1.08q.43.41.85-.02l1.46-1.49q.56-.58-.2-.87l-.35-.13q-.54-.2-.67-.77l-.65-2.68q-.11-.46.09-.89.3-.64.38-1.45.67.34 1.17.85.4.39.5.94 1.51 8.08.98 12.97-.51 4.7-1.48 9.57c-.52 2.61 1.3 4.82 2.66 6.84q.37.55.37 1.21-.04 8.65.02 18.1.03 4.62-1.26 11.81-4.42 24.53-8.57 50.58-1.66 10.43-3.71 20.79c-.67 3.36-.85 6.84-1.27 10.29q-.02-.39-.21-.63-.28-.37-.73-.19a.49.47-12.8 0 0-.31.47q.01.35-.13.64-.36.73-.79.04-.83-1.31-.73-2.35.29-3.04.45-5.62.01-.16-.16-.17l-.29-.03a.38.38 0 0 0-.42.38q0 .49-.26.86-.44.63-.79-.05-.89-1.67-2.32-.87-.52.29-.55-.3-.02-.17.13-.21.84-.22.3-.89-.17-.2-.25-.45-.17-.57.29-.94 1.51-1.25 1.41-3.21-.02-.52-.51-.36-1.48.47-3.16-.58-.38-.23-.37-.68.03-1.45.79-2.86 1.17-2.2-1.28-1.76-.78.14-1.68.18-1.12.06-.9-1.04.57-2.9-.71-5.19a.52.52 0 0 0-.96.14q-.47 2.16-1.52 4.14-.46.86-1.2.22l-1.97-1.7q-.13-.12-.3-.05-.16.06-.19.21-.1.45.14.85 1.63 2.86-.73 4.88-.49.42.13.62 1.28.4 1.65 1.77.04.15.17.24.11.08.26.09.33.02.32-.32l-.04-1.05a.29.29 0 0 1 .25-.31l.27-.04q.4-.06.4.34l.07 4.54q.01.54-.49.74-2.48 1.02-1.95 3.84.09.5-.26.86-.23.23-.54.32-.49.14-.83-.25-.39-.47-.61-1-1.27-3.1-2.53.04-.6 1.47-2 .92-.44-.17-.83.09-3.05 1.99-1.2 5.03a1.12 1.12 0 0 1-.15 1.36l-2.53 2.61q-1.15 1.18-1.03-.46.14-1.88-.24-3.75a1.2 1.2 0 0 0-1.9-.72q-.49.37-1.09.38-.75.02-.76-.73-.01-1.57.82-2.93a.66.66 0 0 0-.34-.97q-1.82-.68-1.29-2.74.14-.51.01-1.03l-2.5-10q-.22-.88-.65-.08-.2.37-.27.78-.14.86-.97.57-1.04-.36-1.78-1.27-.9-1.11-1.04.32-.34 3.39.94 6.66a.88.88 0 0 1-.15.89q-.4.49-1.06.59-.6.09-.66.69l-.18 1.73a.41.41 0 0 1-.65.28q-1.14-.82-1.46-2.21-.2-.89-.47-.02-.53 1.68-2.52 1.58a1.34 1.34 0 0 0-1.33 1.77q.63 1.79-.73 3.77-.33.48-.69.03-1.04-1.3-1.22-2.96-.07-.57-.62-.76-.69-.24-1.43-.22-.7.03-.3-.55.76-1.11-.15-2.24-.45-.55-.61-1.23-.7-2.89-.37-5.18.09-.63-.55-.58-.7.06-1.34-.21-.68-.28-.36-.94l.82-1.71q.05-.11.06-.23.01-.27-.15-.39-.32-.27-.64.01-.44.38-.99.41a1.42 1.41 60.1 0 1-.88-.24q-.72-.48-1.52-.67-.91-.2-.48.63l.56 1.07q.35.65-.23 1.11-.37.29-.84.36-.73.13-.31.74.68 1 1.84 1.39.42.13.18.5-1.39 2.07-1.62 4.58-.1 1.08-.82.26l-.93-1.05q-.81-.92-1.15.26-.32 1.12-1.06 2-.34.4-.29.92.19 1.83-.68 3.6-.2.42-.64.27l-2.67-.92q-.78-.27-.81-1.1-.03-.96-.91-.94-.5.01-.71-.45-.56-1.3-1.67-2.33-.27-.24-.26-.6l.01-.44a.69.68-82.6 0 0-.52-.68q-.65-.16-1.17-.55-.41-.3-.52-.8-.34-1.5-1.29-2.64-.1-.12-.26-.12-.14-.01-.21.21-.05.15.02.3 1.2 2.18-1 3.25c-.59.29-1.26.23-1.85.49q-.72.31-.29.97l1.33 1.99q.21.31.14.67-.02.15-.07.28-.32.94.64.7.49-.12.95-.38.56-.31.62.32.2 2.18-.11 4.32-.05.37-.29.65-.16.19-.4.29-.56.24-.36.82.43 1.26-.35 2.44a1.15 1.14 46.2 0 0-.02 1.24q.64 1.03.72 2.25.04.68-.61.9-1.09.37-1.54 1.44-.29.68-1.02.72l-2.66.13q-.86.04-1.21.82-.38.82-1.25 1.09-.55.17-.67.73-.48 2.22.86 3.89.15.19.39.21.18.01.32-.1.33-.28.29-.71-.08-.67.67-.64a.81.8-10.5 0 1 .73.5l1.92 4.64q.14.33.45.5l.36.2q.55.31.25.87-.27.49.09.97.35.47-.04.91-1.85 2.13-1.29 5.23.08.46.46.74.41.31.9.15.63-.2.27-.75l-.36-.54q-.19-.3.03-.57.1-.12.24-.16.47-.1.85.19.82.63 1.76.33.63-.2.65.46.06 1.69 1.3 2.61.72.53.35-.28-.36-.81.1-1.47.22-.32.6-.45.52-.17.79.09.57.56.91-.18.35-.77.65-1.47.28-.65-.29-1.07-.78-.56-1.12-1.42-.26-.64.14-1.19.84-1.16 2.16-1.3a1.39 1.39 0 0 1 1.4.79q.81 1.76 2.64 2.63.68.32.54 1.06l-.62 3.36q-.1.52.08 1.01 1.14 3.26 3.37 5.89a.73.73 0 0 1-.3 1.16q-1.17.45-1.73 1.59-.33.66-.95 1.06l-2.46 1.56a1.03 1.02 39.8 0 0 .17 1.81l.84.34q.45.19.52.67.21 1.52-.33 2.79a1.17 1.14-1.8 0 1-.57.59q-.69.33-.39 1.04.21.49.04.99-.69 1.98-.64 4.06.01.62.58.36 1.48-.7 2.13.87.19.47.05.95l-.54 1.81-10.09 2.99q-.25-.53-.29-1.21-.03-.55-.58-.54-2.56.03-4.53-1.23-.54-.35-.66.28l-.79 4.23-8.37.07a.91.91 0 0 1-.8-.45q-1.14-1.93-2.33-3.95c-1.26-2.14-.88-5.05-.16-7.31q5.25-16.6 7.27-34.4c.84-7.37 8.44-10.85 7.69-18.56q-.86-8.76-1.52-17.15c-.61-7.6-1.54-14.34-7.47-18.63q-3.03-2.19-9.21-3.16-6.57-1.03-11.32-1.16-6.27-.17-12.28-.14c-3.12.02-6.56-1.4-9.03-3.44q-13.3-10.98-19.47-15.31-13.94-9.77-29.91-11.15-5.73-.5-9.66-1.94-9.91-3.62-13.58-13.49-1.09-2.95-1.36-8.28-.21-4.18-.32-8.32.46-.98.46-2.23 0-.54.18-1.02.22-.58.85-.71.62-.13.8-.74c.43-1.54 2.22-4.93.02-5.92q-.97-.44-.82.62.08.52-.35.78a.52.52 0 0 1-.78-.54q.48-2.7-.4-4.53-.37-.77.48-.64.21.03.42-.12.37-.28.46-.73.47-2.17 1.6-4.16.27-.48.08-.99-.63-1.72.43-3.74a.55.55 0 0 1 .96-.02q.89 1.48 2.44 1.81.51.1.64.61.22.82-.47 1.37-.48.38.05.69.15.09.34.09.67.03.58.69-.3 2.21 1.77 4.2a.41.41 0 0 0 .69-.32q-.13-1.95 1.07-3.12.41-.4.81 0l1.38 1.34q.82.8.72-.34-.05-.56.22-1.01.31-.52.63 0 .79 1.33.7 2.67-.16 2.46-.51 5.39-.04.34.3.37l.31.03q.29.02.35-.26l.19-.83q.2-.85.82-.24l1.04 1.01q.55.54 1.05-.04.14-.16.39-.15.62.04.22.52-.54.64-.1 1.29.37.55-.12.98-1.5 1.3-1.51 3.24 0 .53.5.38 1.61-.5 3.39.66a.74.73-65.1 0 1 .3.83l-1.1 3.42a.74.74 0 0 0 .76.97l2.75-.22q.59-.05.52.54-.38 2.84.37 4.8.98 2.59 1.65-.1.39-1.59 1.13-3.09.48-.97 1.31-.31.77.59 1.51 1.28 1.19 1.1.82-.47c-.45-1.93-1.7-3.35.54-4.94q1.05-.76-.21-1.03-1.31-.29-1.4-1.64a.32.32 0 0 0-.64.02l-.02 1.09q0 .23-.2.35-.15.09-.33.06-.53-.09-.53-.63l.06-3.93q.01-.64.54-1 2.02-1.36 1.87-3.85-.03-.47.26-.87.32-.48.91-.41a.71.69 77.4 0 1 .52.34l.85 1.39q1.37 2.25 2.12-.27.48-1.62 1.9-1.1.49.18.91-.12 3.41-2.37 1.16-5.05-.46-.54.04-1.05l3.07-3.1q.65-.65.69.26l.16 3.93a1.27 1.27 0 0 0 1.99.99q.56-.39 1.22-.35.7.05.7.77 0 1.5-.77 2.75-.44.72.33 1.07 1.97.91 1.11 3.04-.33.82.22 1.51.94 1.17.74 2.68a2.57 2.54-52.8 0 0 .17 1.31q1.07 2.56 1.36 5.26.03.31.32.4.51.15.51-.37.02-.74.44-1.26.35-.44.81-.11l1.98 1.43a.37.37 0 0 0 .58-.24q.64-3.63-.68-6.94a.88.87-36.8 0 1 .13-.87q.35-.44.91-.56a1.1 1.1 0 0 0 .88-1.17q-.05-.52.11-1.02.24-.76.84-.23.94.83 1.13 2.01.02.07.07.12.11.09.26.1.34.01.34-.33-.02-.57.28-1.02.26-.4.73-.36 1.47.11 2.54-.79a.75.74 59.8 0 0 .22-.84q-.7-1.9.61-3.99a.67.66-39 0 1 1.19.12l1.03 2.85q.2.57.81.63l.92.1q.82.08.38.78-.83 1.32.4 2.54.48.48.53 1.15.13 1.52.46 3.05c.1.46-.05 1.03-.28 1.43q-.56.97.56.85 1.16-.13 1.69.68a.8.78 53.2 0 1-.14 1.04q-.76.66-.69 1.61.06.65.62.33l.79-.46q.63-.37 1.16.14.72.69 1.68.66.67-.02.32-.59-.38-.61-.53-1.31-.1-.5.29-.84.36-.3.83-.34a.51.51 0 0 0 .35-.83c-.44-.55-1.05-1-1.78-1.1q-.82-.12-.35-.8 1.5-2.19 1.79-4.85a.24.24 0 0 1 .4-.14l1.4 1.35q.54.53.85-.16.59-1.31 1.5-2.26.39-.41.19-.93-.65-1.7.63-3.49.24-.33.61-.2l2.44.85a1.14 1.13 6.9 0 1 .76.96q.08.78.83.91.49.08.78.49l2.69 3.89q.29.42.74.66l.25.14q.47.25.56.78.25 1.67 1.61 2.83.05.04.09-.01l.16-.19q.21-.25-.05-.46-1.29-1.07-.21-2.27.93-1.04 2.45-1 .8.02 1.12-.71.13-.29-.02-.57-.5-.99-1.41-1.65-.73-.53-.22-1.26.59-.84-.42-.67-.61.1-1.13.44-.7.46-.69-.38l.05-4.42a.93.92-7.7 0 1 .67-.87l.41-.12q.62-.18.21-.68-.72-.85-.01-1.93.46-.7.25-1.51l-.59-2.24q-.18-.72.46-1.1.98-.58 1.55-1.55.36-.61 1.06-.67l3.19-.27q.64-.05.73-.68l.05-.3q.13-.88.82-.32.55.44 1.24.43.57 0 .41-.55-.56-1.96-.94-3.85-.16-.77-.79-1.25-.49-.39-.64.22l-.19.74q-.14.54-.67.37-.7-.22-.91-.97-.7-2.42-1.89-4.42a.84.8-4.1 0 0-.39-.32q-.12-.06-.26-.06a.49.49 0 0 1-.42-.75q.38-.62.08-1.31-.25-.56.18-.99 1.95-1.96.96-5.48-.16-.55-.73-.49-.25.02-.44.18-.53.43-.04.89.24.23.29.54.09.69-.6.54-.73-.17-1.29-.58-.46-.34-.95-.04l-.24.14q-.7.41-.72-.4-.03-1.73-1.18-2.87-.08-.08-.18-.1-.14-.04-.26.05-.33.22-.08.53.75.96-.19 1.73-.34.27-.76.14-.17-.06-.31-.17-.55-.45-.89.18l-.72 1.34q-.36.66.21 1.15c1.36 1.17 2.01 2.52 0 3.6q-1.86 1-2.73-.93-.65-1.44-2.26-1.97-.59-.19-.64-.8-.15-1.75.61-3.5.21-.49.05-.99-1.2-3.53-3.55-5.95a.86.86 0 0 1 .48-1.45q1.15-.19 1.45-1.33.15-.56.6-.93 1.11-.9 2.38-1.59 2.15-1.16-.02-2.22-1.67-.82-.96-3.28.13-.44.48-.66.37-.23.8-.26.69-.06.23-.58-.92-1.03-.15-2.16c.56-.82.65-1.81.57-2.77 4.33 2.55 5.87-.94 7.56-4.07q.84-1.57 2.07-2.11l3.77 1.52q.42.17.49-.28.2-1.31-.03-2.57 1.79.01 4.67 1.12c2.11.81 4.75.5 6.82-.43q6.38-2.85 14.73-1.81 1.99.24 3.6-.75c1.53-.95 4.37-1.64 5.71.08q.44.55 1.11.77zm-136.14 55a.14.14 0 0 0-.14-.14.14.14 0 0 0-.14.14.14.14 0 0 0 .14.14.14.14 0 0 0 .14-.14"/><path fill="#3f7b50" d="M179.84 69.86q.23 1.26.03 2.57-.07.45-.49.28l-3.77-1.52q1.68-1.63 4.23-1.33M221.69 70.47l9.57 2.87q-.44 1.23-.09 2.55.13.48.52.78 1.49 1.13 2.06 3.02.17.59-.23 1.05-2.03 2.38-1.49 6.49a.55.55 0 0 1-.49.62q-.4.04-.61-.3-.96-1.54-1.78-2.97-.42-.72-1.04-.16l-1.16 1.05q-.31.28-.72.21-.15-.02-.26-.12-.73-.68-.83.19l-.17 1.46q-.1.81-.82.43l-1.41-.72q-.52-.27-.25-.79.35-.66 0-1.37-.25-.52.19-.9 1.69-1.43 1.35-3.7-.08-.54-.53-.86l-2.76-1.96q-.38-.27-.84-.23-.7.07-1.28.55-.45.39-.64-.18-.29-.82.05-1.45 1.06-1.99 3.66-5.56M241.78 72.08q-.94 1-1.4-.07zM165.98 77.37c.08.96-.01 1.95-.57 2.77q-.77 1.13.15 2.16.46.52-.23.58-.43.03-.8.26-.35.22-.48.66-.71 2.46.96 3.28 2.17 1.06.02 2.22-1.27.69-2.38 1.59-.45.37-.6.93-.3 1.14-1.45 1.33a.86.86 0 0 0-.48 1.45q2.35 2.42 3.55 5.95.16.5-.05.99-.76 1.75-.61 3.5.05.61.64.8 1.61.53 2.26 1.97.87 1.93 2.73.93c2.01-1.08 1.36-2.43 0-3.6q-.57-.49-.21-1.15l.72-1.34q.34-.63.89-.18.14.11.31.17.42.13.76-.14.94-.77.19-1.73-.25-.31.08-.53.12-.09.26-.05.1.02.18.1 1.15 1.14 1.18 2.87.02.81.72.4l.24-.14q.49-.3.95.04.56.41 1.29.58.69.15.6-.54-.05-.31-.29-.54-.49-.46.04-.89.19-.16.44-.18.57-.06.73.49.99 3.52-.96 5.48-.43.43-.18.99.3.69-.08 1.31a.49.49 0 0 0 .42.75q.14 0 .26.06a.84.8-4.1 0 1 .39.32q1.19 2 1.89 4.42.21.75.91.97.53.17.67-.37l.19-.74q.15-.61.64-.22.63.48.79 1.25.38 1.89.94 3.85.16.55-.41.55-.69.01-1.24-.43-.69-.56-.82.32l-.05.3q-.09.63-.73.68l-3.19.27q-.7.06-1.06.67-.57.97-1.55 1.55-.64.38-.46 1.1l.59 2.24q.21.81-.25 1.51-.71 1.08.01 1.93.41.5-.21.68l-.41.12a.93.92-7.7 0 0-.67.87l-.05 4.42q-.01.84.69.38.52-.34 1.13-.44 1.01-.17.42.67-.51.73.22 1.26.91.66 1.41 1.65.15.28.02.57-.32.73-1.12.71-1.52-.04-2.45 1-1.08 1.2.21 2.27.26.21.05.46l-.16.19q-.04.05-.09.01-1.36-1.16-1.61-2.83-.09-.53-.56-.78l-.25-.14q-.45-.24-.74-.66l-2.69-3.89q-.29-.41-.78-.49-.75-.13-.83-.91a1.14 1.13 6.9 0 0-.76-.96l-2.44-.85q-.37-.13-.61.2-1.28 1.79-.63 3.49.2.52-.19.93-.91.95-1.5 2.26-.31.69-.85.16l-1.4-1.35a.24.24 0 0 0-.4.14q-.29 2.66-1.79 4.85-.47.68.35.8c.73.1 1.34.55 1.78 1.1a.51.51 0 0 1-.35.83q-.47.04-.83.34-.39.34-.29.84.15.7.53 1.31.35.57-.32.59-.96.03-1.68-.66-.53-.51-1.16-.14l-.79.46q-.56.32-.62-.33-.07-.95.69-1.61a.8.78 53.2 0 0 .14-1.04q-.53-.81-1.69-.68-1.12.12-.56-.85c.23-.4.38-.97.28-1.43q-.33-1.53-.46-3.05-.05-.67-.53-1.15-1.23-1.22-.4-2.54.44-.7-.38-.78l-.92-.1q-.61-.06-.81-.63l-1.03-2.85a.67.66-39 0 0-1.19-.12q-1.31 2.09-.61 3.99a.75.74 59.8 0 1-.22.84q-1.07.9-2.54.79-.47-.04-.73.36-.3.45-.28 1.02 0 .34-.34.33-.15-.01-.26-.1-.05-.05-.07-.12-.19-1.18-1.13-2.01-.6-.53-.84.23-.16.5-.11 1.02a1.1 1.1 0 0 1-.88 1.17q-.56.12-.91.56a.88.87-36.8 0 0-.13.87q1.32 3.31.68 6.94a.37.37 0 0 1-.58.24l-1.98-1.43q-.46-.33-.81.11-.42.52-.44 1.26 0 .52-.51.37-.29-.09-.32-.4-.29-2.7-1.36-5.26a2.57 2.54-52.8 0 1-.17-1.31q.2-1.51-.74-2.68-.55-.69-.22-1.51.86-2.13-1.11-3.04-.77-.35-.33-1.07.77-1.25.77-2.75 0-.72-.7-.77-.66-.04-1.22.35a1.27 1.27 0 0 1-1.99-.99l-.16-3.93q-.04-.91-.69-.26l-3.07 3.1q-.5.51-.04 1.05 2.25 2.68-1.16 5.05-.42.3-.91.12-1.42-.52-1.9 1.1-.75 2.52-2.12.27l-.85-1.39a.71.69 77.4 0 0-.52-.34q-.59-.07-.91.41-.29.4-.26.87.15 2.49-1.87 3.85-.53.36-.54 1l-.06 3.93q0 .54.53.63.18.03.33-.06.2-.12.2-.35l.02-1.09a.32.32 0 0 1 .64-.02q.09 1.35 1.4 1.64 1.26.27.21 1.03c-2.24 1.59-.99 3.01-.54 4.94q.37 1.57-.82.47-.74-.69-1.51-1.28-.83-.66-1.31.31-.74 1.5-1.13 3.09-.67 2.69-1.65.1-.75-1.96-.37-4.8.07-.59-.52-.54l-2.75.22a.74.74 0 0 1-.76-.97l1.1-3.42a.74.73-65.1 0 0-.3-.83q-1.78-1.16-3.39-.66-.5.15-.5-.38.01-1.94 1.51-3.24.49-.43.12-.98-.44-.65.1-1.29.4-.48-.22-.52-.25-.01-.39.15-.5.58-1.05.04l-1.04-1.01q-.62-.61-.82.24l-.19.83q-.06.28-.35.26l-.31-.03q-.34-.03-.3-.37.35-2.93.51-5.39.09-1.34-.7-2.67-.32-.52-.63 0-.27.45-.22 1.01.1 1.14-.72.34l-1.38-1.34q-.4-.4-.81 0-1.2 1.17-1.07 3.12a.41.41 0 0 1-.69.32q-2.07-1.99-1.77-4.2.09-.66-.58-.69-.19 0-.34-.09-.53-.31-.05-.69.69-.55.47-1.37-.13-.51-.64-.61-1.55-.33-2.44-1.81a.55.55 0 0 0-.96.02q-1.06 2.02-.43 3.74.19.51-.08.99-1.13 1.99-1.6 4.16-.09.45-.46.73-.21.15-.42.12-.85-.13-.48.64.88 1.83.4 4.53a.52.52 0 0 0 .78.54q.43-.26.35-.78-.15-1.06.82-.62c2.2.99.41 4.38-.02 5.92q-.18.61-.8.74-.63.13-.85.71-.18.48-.18 1.02 0 1.25-.46 2.23-.93-2.04-1.73-4c-1.41-3.46-.95-6.86-.98-10.48q-.02-1.74.9-3.12 3.88-5.74 7.1-12.05c2.98-5.83 7.2-9.42 13.62-10.91q13.21-3.07 27.76-7.07c12.73-3.51 20.63-10 22.83-23.37q.09-.52.46-.9c4.99-5.08 10.36-1.9 15.51 1.26M299.98 109.26q-.08.81-.38 1.45-.2.43-.09.89l.65 2.68q.13.57.67.77l.35.13q.76.29.2.87l-1.46 1.49q-.42.43-.85.02l-1.11-1.08a.81.81 0 0 0-1.29.22q-.76 1.52-1.73 2.82c-1.27 1.71-.93 3.93-1.06 5.93a.64.64 0 0 1-.73.59q-1.7-.24-1.96-2.03-.51-3.44-2.39-6.51-.44-.71-.95-.05-.72.93-.98 1.97a.89.89 0 0 1-1.5.4q-.5-.51-.55-1.26-.03-.44-.45-.33-.14.03-.26.1-.22.13-.19.38.17 1.3-1.12 1.41-.74.05-.37.7.4.69.52 1.5a.55.55 0 0 1-.41.62c-1.87.46-2.8-1.84-2.65-3.29.35-3.46 1.89-7.55-.97-10.32q-.47-.46-.79.12-.16.29-.16.62-.02.94-.86.52-.62-.32-1.27-.07-.72.28-.81-.49l-.13-1.2q-.07-.61-.64-.38l-1.57.64a.59.58-27.4 0 0-.28.86q1.04 1.6-.51 2.74-.54.39-.73-.24-.34-1.12-1.35-1.56-.38-.17-.28-.57.24-.91-.16-1.79-.24-.52-.06-1.07l1.33-4.1q.2-.6.01-1.21l-.17-.53a.96.95 65.6 0 1 .42-1.12q.49-.28.75-.79a.6.6 0 0 0-.23-.79q-1.63-.97-.54-2.61a1.6 1.6 0 0 0-1.26-2.49q-1.46-.05-1.74 1.48a.76.76 0 0 1-.99.58l-3.3-1.13q-.62-.21-.65-.86l-.05-.97q-.03-.75-.74-.49-1.44.54-2.85.88-.71.17-.94.91a.65.64-81 0 0 .6.83q.31.01.53.2a.66.66 0 0 1-.05 1.04q-.66.47.04.86a.32.31-57.8 0 1 .1.47q-.08.12-.22.16-.2.06-.28-.13l-.12-.32q-.16-.4-.55-.23-.19.09-.3.26-.08.12-.08.27-.02.88-.14 1.8-.05.34-.4.34-.18 0-.28-.13-.11-.12-.12-.29-.05-.84-.23-1.61-.11-.49-.6-.62-.89-.25-1.61-.85-.59-.5-.68.26l-.1.89q-.03.24-.27.27-.15.02-.29-.07-.23-.17-.13-.44l1.25-3.33a1.03 1.01-49.2 0 0-.05-.81q-.61-1.16-.83-2.47-.07-.44.23-.76 1.62-1.71.92-3.77-.17-.48.2-.84 2.12-2.09.37-5.3 3.77 2.02 7.84 2.74 8.31 1.47 16.83 2.88c2.3.38 4.2 2.4 4.07 4.86q-.25 4.42 1.09 8.86 1.35 4.5 6.14 6.18 4.57 1.61 8.73 3.84"/><circle cx="85.41" cy="125.47" r=".14" fill="#3f7b50"/><path fill="#3f7b50" d="M289.39 253.21q-.9 5.86-.32 7.98.88 3.23.91 6.83c.01 1.6-1.22 3.16-2.53 3.91-7.46 4.28-14.66 8.44-21.87 13.42-14.58 10.06-29.49 18.98-46.3 24.91l.54-1.81q.14-.48-.05-.95-.65-1.57-2.13-.87-.57.26-.58-.36-.05-2.08.64-4.06.17-.5-.04-.99-.3-.71.39-1.04a1.17 1.14-1.8 0 0 .57-.59q.54-1.27.33-2.79-.07-.48-.52-.67l-.84-.34a1.03 1.02 39.8 0 1-.17-1.81l2.46-1.56q.62-.4.95-1.06.56-1.14 1.73-1.59a.73.73 0 0 0 .3-1.16q-2.23-2.63-3.37-5.89-.18-.49-.08-1.01l.62-3.36q.14-.74-.54-1.06-1.83-.87-2.64-2.63a1.39 1.39 0 0 0-1.4-.79q-1.32.14-2.16 1.3-.4.55-.14 1.19.34.86 1.12 1.42.57.42.29 1.07-.3.7-.65 1.47-.34.74-.91.18-.27-.26-.79-.09-.38.13-.6.45-.46.66-.1 1.47.37.81-.35.28-1.24-.92-1.3-2.61-.02-.66-.65-.46-.94.3-1.76-.33-.38-.29-.85-.19-.14.04-.24.16-.22.27-.03.57l.36.54q.36.55-.27.75-.49.16-.9-.15-.38-.28-.46-.74-.56-3.1 1.29-5.23.39-.44.04-.91-.36-.48-.09-.97.3-.56-.25-.87l-.36-.2q-.31-.17-.45-.5l-1.92-4.64a.81.8-10.5 0 0-.73-.5q-.75-.03-.67.64.04.43-.29.71-.14.11-.32.1-.24-.02-.39-.21-1.34-1.67-.86-3.89.12-.56.67-.73.87-.27 1.25-1.09.35-.78 1.21-.82l2.66-.13q.73-.04 1.02-.72.45-1.07 1.54-1.44.65-.22.61-.9-.08-1.22-.72-2.25a1.15 1.14 46.2 0 1 .02-1.24q.78-1.18.35-2.44-.2-.58.36-.82.24-.1.4-.29.24-.28.29-.65.31-2.14.11-4.32-.06-.63-.62-.32-.46.26-.95.38-.96.24-.64-.7.05-.13.07-.28.07-.36-.14-.67l-1.33-1.99q-.43-.66.29-.97c.59-.26 1.26-.2 1.85-.49q2.2-1.07 1-3.25-.07-.15-.02-.3.07-.22.21-.21.16 0 .26.12.95 1.14 1.29 2.64.11.5.52.8.52.39 1.17.55a.69.68-82.6 0 1 .52.68l-.01.44q-.01.36.26.6 1.11 1.03 1.67 2.33.21.46.71.45.88-.02.91.94.03.83.81 1.1l2.67.92q.44.15.64-.27.87-1.77.68-3.6-.05-.52.29-.92.74-.88 1.06-2 .34-1.18 1.15-.26l.93 1.05q.72.82.82-.26.23-2.51 1.62-4.58.24-.37-.18-.5-1.16-.39-1.84-1.39-.42-.61.31-.74.47-.07.84-.36.58-.46.23-1.11l-.56-1.07q-.43-.83.48-.63.8.19 1.52.67a1.42 1.41 60.1 0 0 .88.24q.55-.03.99-.41.32-.28.64-.01.16.12.15.39-.01.12-.06.23l-.82 1.71q-.32.66.36.94.64.27 1.34.21.64-.05.55.58-.33 2.29.37 5.18.16.68.61 1.23.91 1.13.15 2.24-.4.58.3.55.74-.02 1.43.22.55.19.62.76.18 1.66 1.22 2.96.36.45.69-.03 1.36-1.98.73-3.77a1.34 1.34 0 0 1 1.33-1.77q1.99.1 2.52-1.58.27-.87.47.02.32 1.39 1.46 2.21a.41.41 0 0 0 .65-.28l.18-1.73q.06-.6.66-.69.66-.1 1.06-.59a.88.88 0 0 0 .15-.89q-1.28-3.27-.94-6.66.14-1.43 1.04-.32.74.91 1.78 1.27.83.29.97-.57.07-.41.27-.78.43-.8.65.08l2.5 10q.13.52-.01 1.03-.53 2.06 1.29 2.74a.66.66 0 0 1 .34.97q-.83 1.36-.82 2.93.01.75.76.73.6-.01 1.09-.38a1.2 1.2 0 0 1 1.9.72q.38 1.87.24 3.75-.12 1.64 1.03.46l2.53-2.61a1.12 1.12 0 0 0 .15-1.36q-1.85-3.04 1.2-5.03.39-.26.83-.09 1.4.55 2-.92 1.26-3.14 2.53-.04.22.53.61 1 .34.39.83.25.31-.09.54-.32.35-.36.26-.86-.53-2.82 1.95-3.84.5-.2.49-.74l-.07-4.54q0-.4-.4-.34l-.27.04a.29.29 0 0 0-.25.31l.04 1.05q.01.34-.32.32-.15-.01-.26-.09-.13-.09-.17-.24-.37-1.37-1.65-1.77-.62-.2-.13-.62 2.36-2.02.73-4.88-.24-.4-.14-.85.03-.15.19-.21.17-.07.3.05l1.97 1.7q.74.64 1.2-.22 1.05-1.98 1.52-4.14a.52.52 0 0 1 .96-.14q1.28 2.29.71 5.19-.22 1.1.9 1.04.9-.04 1.68-.18 2.45-.44 1.28 1.76-.76 1.41-.79 2.86-.01.45.37.68 1.68 1.05 3.16.58.49-.16.51.36.1 1.96-1.41 3.21-.46.37-.29.94.08.25.25.45.54.67-.3.89-.15.04-.13.21.03.59.55.3 1.43-.8 2.32.87.35.68.79.05.26-.37.26-.86a.38.38 0 0 1 .42-.38l.29.03q.17.01.16.17-.16 2.58-.45 5.62-.1 1.04.73 2.35.43.69.79-.04.14-.29.13-.64a.49.47-12.8 0 1 .31-.47q.45-.18.73.19.19.24.21.63M209.19 313.25q-2.71 2.21-6.85 1.53l.79-4.23q.12-.63.66-.28 1.97 1.26 4.53 1.23.55-.01.58.54.04.68.29 1.21"/></svg>