<svg xmlns="http://www.w3.org/2000/svg" viewBox="0 0 382 382"><defs><clipPath id="a"><path d="M206.44 314.67h-12.95c-1.21-2.51-3.68-5.19-3.38-7.49.75-5.57 2.98-10.93 4.26-16.45 1.32-5.69 2.27-11.47 3.26-17.23.45-2.59 0-5.5 1.03-7.79 1.44-3.23 4.06-5.91 5.79-9.04.92-1.65 1.56-3.78 1.43-5.63-.52-7.52-1.58-15.01-2.06-22.53-.5-7.85-4.73-14.92-12.25-16.61-7.27-1.63-14.94-2.3-22.38-1.99-5.67.24-10.44-.05-14.85-3.97-4.27-3.81-9.03-7.07-13.42-10.76-10.97-9.21-23.3-14.58-37.79-15.62-13.59-.97-23.89-11.32-22.18-27.83.35-3.39-1.96-7.06-3.05-10.6v-8.98c2.87-4.82 6.05-9.49 8.52-14.51 2.88-5.83 7.45-8.74 13.57-10.16 9.19-2.13 18.35-4.43 27.43-6.98 11.92-3.35 20.95-9.71 22.65-23.23.12-.97 1.37-2.05 2.36-2.6 5.11-2.85 9.16.46 13.25 2.7 3.34 1.83 5.3 1.31 7.01-2.2 2.7-5.54 6.16-6.44 11.54-4.15 1.78.76 4.49 1 6.09.17 5.44-2.82 11-2.87 16.83-2.25 1.35.14 2.85-1.04 4.28-1.61h2.99c.54.52.99 1.31 1.63 1.51 5.05 1.63 10.13 3.21 15.24 4.64.82.23 1.86-.51 2.81-.58 3.67-.27 7.73-1.53 10.93-.39 3.66 1.3 6.42 4.96 9.83 7.21 2.03 1.34 4.48 2.32 6.87 2.81 5.88 1.22 11.85 2.03 17.76 3.08 3.22.57 4.62 2.39 4.46 5.87-.12 2.71.25 5.59 1.09 8.16 2.07 6.3 8.55 6.38 13.31 8.91 1.21.64 3.07 1.46 3.22 2.42.65 4.02 1.13 8.15.98 12.21-.15 4.04-1.57 8.05-1.56 12.07 0 1.96 2.01 3.91 3.1 5.87v22.94c-.77 4.18-1.59 8.36-2.3 12.55-1.89 11.1-3.76 22.2-5.6 33.31-1.17 7.08-2.2 14.17-3.41 21.24-.71 4.18-1.82 8.29-2.44 12.48-.7 4.73-1.27 9.5-1.46 14.27-.12 2.91.57 5.85.94 8.77.33 2.58-.56 4.1-3.01 5.47-6.85 3.82-13.69 7.76-20.12 12.23-17.42 12.11-35.35 23.07-56.19 28.34-1.42.36-2.71 1.27-4.06 1.93z"/></clipPath></defs><g clip-path="url(#a)"><svg xmlns="http://www.w3.org/2000/svg" width="382" height="382" style="shape-rendering:geometricPrecision"><path fill="#fb0394" stroke="#fb0394" d="m199.422 382 16.16-43.806 19.743-.182L257.562 382zM259.882 79.816 219.617 53.95l41.976-31.492L308.3 35.866l1.365 9.813-10.52 16.25-38.275 17.666z"/><path fill="#939c3a" stroke="#939c3a" d="m135.26 185.616-6.513-41.427 59.715-14.107 43.475 44.552.79 7.92-5.445 11.65-24.601-.473zM190.127 108.074l-52.416-22.977 45.52-71.89 35.102 40.349z"/><path fill="#fb0394" stroke="#fb0394" d="m55.057 209.155-22.292 35.66-12.33 2.35-1.503-23.308L46.63 196.67zM36.218 40.76 3.82 41.803 14.944 0h15.604l13.174 35.797z"/><path fill="#939c3a" stroke="#939c3a" d="m128.747 144.189-11.583-10.431 13.227-44.149 7.32-4.512 52.416 22.977-1.665 22.008z"/><path fill="#fb0394" stroke="#fb0394" d="M70.008 278.483 53.214 305.54 0 300.438v-33.633l20.434-19.64 12.331-2.35 24.454 6.628z"/><path fill="#939c3a" stroke="#939c3a" d="m62.863 111.18-30.173 2.467-1.83-19.661 5.358-53.226 7.504-4.963 3.327.086 28.59 42.772z"/><path fill="#fb0394" stroke="#fb0394" d="M130.391 89.61 101.479 64.73l5.315-57.53L112.452 0h65.613l5.165 13.208-45.519 71.89z"/><path fill="#939c3a" stroke="#939c3a" d="m109.692 233.658 33.363 45.367-8.53 18.172-35.514-16.105zM309.951 0 308.3 35.866l-46.706-13.408L275.003 0zM153.161 227.547l49.52-33.816 24.601.474.209 7.581-59.028 49.007z"/><path fill="#fb0394" stroke="#fb0394" d="m299.565 333.71 10.705-37.629 3.67-3.822 26.567 41.69-27.626 7.279-3.6.25-6.745-1.178z"/><path fill="#939c3a" stroke="#939c3a" d="M36.218 40.76 30.86 93.986 0 59.597V42.273l3.821-.47zM306.973 135.458l16.573-9.632 7.421-1.484.066.086-3.642 46.118-2.655-.509-20.826-17.121z"/><path fill="#fb0394" stroke="#fb0394" d="m302.536 340.3 6.745 1.177L305.596 382h-40.195l20.78-32.253z"/><path fill="#939c3a" stroke="#939c3a" d="m308.101 172.626 16.635-2.589 2.655.509 22.51 29.841-40.571 4.917-21.623-14.117z"/><path fill="#fb0394" stroke="#fb0394" d="m299.144 61.929 10.52-16.25 30.077 2.45 16.91 44.292-19.271 12.33zM227.282 194.205l5.445-11.65 31.03 1.629 23.95 7.003 21.623 14.117-18.234 52.695-5.631.325-41.402-15.927-16.572-40.61zM71.72 328l61.236-1.248-4.194 13.75L91.792 382h-15.17l-10.876-33.223z"/><path fill="#939c3a" stroke="#939c3a" d="m71.962 171.314-28.98 10.35-10.746-6.865-7.691-55.702 8.145-5.45 30.173-2.467 33.427 21.87zM271.57 307.737l12.37 4.954 15.625 21.02 2.971 6.59-16.354 9.446-34.444-32.688z"/><path fill="#fb0394" stroke="#fb0394" d="M314.188 267.294 382 249.733v84.265l-36.002 1.036-5.491-1.084-26.567-41.691zM176.551 382l-31.857-51.45 47.44-6.005L184.376 382zM164.023 266.683l34.472 16.098.106 24.296-4.488 16.876-1.98.592-47.44 6.005-11.123-4.228.955-29.125 8.53-18.172z"/><path fill="#939c3a" stroke="#939c3a" d="M382 32.324h-8.45L334.67 0H382z"/><path fill="#fb0394" stroke="#fb0394" d="M14.944 0 3.82 41.803 0 42.273V0z"/><path fill="#939c3a" stroke="#939c3a" d="m109.382 214.642-4.016 6.14-25.487 1.787-24.822-13.414-8.427-12.485-3.647-15.006 28.98-10.35z"/><path fill="#fb0394" stroke="#fb0394" d="M308.3 35.866 309.95 0h24.72l38.88 32.323-33.81 15.805-30.077-2.45z"/><path fill="#939c3a" stroke="#939c3a" d="m323.546 125.826-62.677-46.231 38.275-17.666 38.236 42.822-6.413 19.59z"/><path fill="#fb0394" stroke="#fb0394" d="m135.26 185.616-9.783 17.38-16.095 11.646-37.42-43.328L96.29 133.05l20.874.708 11.583 10.43z"/><path fill="#939c3a" stroke="#939c3a" d="m0 300.438 53.214 5.102L71.721 328l-5.975 20.777L0 374.92zM309.33 205.304l40.572-4.917L382 209.98v39.753l-67.812 17.56L291.096 258zM382 89.076l-25.348 3.345-16.91-44.293 33.809-15.805 8.449.001zM324.995 382l21.003-46.966L382 333.998V382z"/><path fill="#fb0394" stroke="#fb0394" d="m133.57 326.322 11.124 4.228L176.55 382h-45.038l-2.75-41.498 4.193-13.75zM198.6 307.077l44.123-3.979 8.251 14.03-15.65 20.884-19.742.182-21.47-14.24z"/><path fill="#939c3a" stroke="#939c3a" d="m0 117.564 24.545 1.533 7.691 55.702L0 188.912zM251.738 317.06l34.444 32.687L265.4 382h-7.84l-22.236-43.988 15.65-20.884zM305.596 382l3.685-40.523 3.6-.249L321.288 382z"/><path fill="#fb0394" stroke="#fb0394" d="m263.756 184.184 38.82-29.158 5.525 17.6-20.394 18.561zM194.113 323.953l21.47 14.241L199.422 382h-15.047l7.758-57.455zM79.88 222.57l-22.66 28.873-24.455-6.629 22.292-35.66z"/><path fill="#939c3a" stroke="#939c3a" d="m244.063 242.397 41.402 15.927-13.894 49.413-19.833 9.322-.764.07-8.251-14.031-10.158-38.876z"/><path fill="#fb0394" stroke="#fb0394" d="m299.565 333.71-15.626-21.02 26.331-16.609z"/><path fill="#939c3a" stroke="#939c3a" d="m70.008 278.483 5.996-2.022 23.007 4.631 35.514 16.105-.955 29.125-.614.43L71.72 328l-18.507-22.46z"/><path fill="#fb0394" stroke="#fb0394" d="m168.463 250.793 59.028-49.007 16.572 40.611-11.498 21.825-34.07 18.559-34.472-16.098z"/><path fill="#939c3a" stroke="#939c3a" d="m198.495 282.78 34.07-18.558 10.158 38.876-44.122 3.979zM112.452 0l-5.658 7.2L47.05 35.883l-3.327-.086L30.548 0zM183.23 13.208 178.065 0h96.939l-13.41 22.458-41.977 31.492-1.284-.394zM271.57 307.737l13.895-49.413 5.631-.325 23.092 9.295-.248 24.965-3.67 3.822-26.33 16.61zM231.937 174.634l25.349-43.156 49.687 3.98-3.063 17.458-1.333 2.11-38.82 29.158-31.03-1.63z"/><path fill="#939c3a" stroke="#939c3a" d="m257.286 131.478 2.596-51.662.987-.221 62.677 46.231-16.573 9.632z"/><path fill="#fb0394" stroke="#fb0394" d="m153.161 227.547 15.302 23.246-4.44 15.89-20.968 12.342-33.363-45.367-3.103-5.428-1.223-7.449 4.016-6.139 16.095-11.646zM0 382v-7.081l65.746-26.142L76.622 382z"/><path fill="#939c3a" stroke="#939c3a" d="m340.507 333.95 5.491 1.084L324.995 382h-3.707l-8.407-40.772z"/><path fill="#fb0394" stroke="#fb0394" d="m135.26 185.616 67.42 8.115-49.519 33.816-27.684-24.551z"/><path fill="#939c3a" stroke="#939c3a" d="m190.127 108.074 28.206-54.518 1.284.394 40.265 25.866-2.596 51.662-25.349 43.156-43.475-44.552z"/><path fill="#fb0394" stroke="#fb0394" d="m382 158.547-50.967-34.119-.066-.086 6.413-19.59 19.272-12.33L382 89.075zM0 199.063l18.932 24.794 1.502 23.307L0 266.805zM106.589 228.23l-30.585 48.23-5.996 2.023-12.789-27.04 22.66-28.874 25.487-1.788z"/><path fill="#939c3a" stroke="#939c3a" d="m308.101 172.626-5.524-17.6 1.333-2.11 20.826 17.121zM96.29 133.05l-33.427-21.87L75.64 78.655l25.84-13.924L130.39 89.61l-13.227 44.149zM91.792 382l36.97-41.498 2.75 41.498zM109.692 233.658 99.01 281.092l-23.007-4.631 30.585-48.231zM75.639 78.655l-28.59-42.772L106.794 7.2l-5.315 57.531zM46.63 196.67l-27.698 27.187L0 199.063v-10.15l32.236-14.114 10.747 6.865z"/><path fill="#fb0394" stroke="#fb0394" d="M24.545 119.097 0 117.564V59.597l30.86 34.389 1.83 19.66zM327.391 170.546l3.642-46.118L382 158.548v51.432l-32.098-9.593z"/></svg></g></svg>