<svg xmlns="http://www.w3.org/2000/svg" viewBox="0 0 382 382"><defs><clipPath id="a"><path d="M206.44 314.67h-12.95c-1.21-2.51-3.68-5.19-3.38-7.49.75-5.57 2.98-10.93 4.26-16.45 1.32-5.69 2.27-11.47 3.26-17.23.45-2.59 0-5.5 1.03-7.79 1.44-3.23 4.06-5.91 5.79-9.04.92-1.65 1.56-3.78 1.43-5.63-.52-7.52-1.58-15.01-2.06-22.53-.5-7.85-4.73-14.92-12.25-16.61-7.27-1.63-14.94-2.3-22.38-1.99-5.67.24-10.44-.05-14.85-3.97-4.27-3.81-9.03-7.07-13.42-10.76-10.97-9.21-23.3-14.58-37.79-15.62-13.59-.97-23.89-11.32-22.18-27.83.35-3.39-1.96-7.06-3.05-10.6v-8.98c2.87-4.82 6.05-9.49 8.52-14.51 2.88-5.83 7.45-8.74 13.57-10.16 9.19-2.13 18.35-4.43 27.43-6.98 11.92-3.35 20.95-9.71 22.65-23.23.12-.97 1.37-2.05 2.36-2.6 5.11-2.85 9.16.46 13.25 2.7 3.34 1.83 5.3 1.31 7.01-2.2 2.7-5.54 6.16-6.44 11.54-4.15 1.78.76 4.49 1 6.09.17 5.44-2.82 11-2.87 16.83-2.25 1.35.14 2.85-1.04 4.28-1.61h2.99c.54.52.99 1.31 1.63 1.51 5.05 1.63 10.13 3.21 15.24 4.64.82.23 1.86-.51 2.81-.58 3.67-.27 7.73-1.53 10.93-.39 3.66 1.3 6.42 4.96 9.83 7.21 2.03 1.34 4.48 2.32 6.87 2.81 5.88 1.22 11.85 2.03 17.76 3.08 3.22.57 4.62 2.39 4.46 5.87-.12 2.71.25 5.59 1.09 8.16 2.07 6.3 8.55 6.38 13.31 8.91 1.21.64 3.07 1.46 3.22 2.42.65 4.02 1.13 8.15.98 12.21-.15 4.04-1.57 8.05-1.56 12.07 0 1.96 2.01 3.91 3.1 5.87v22.94c-.77 4.18-1.59 8.36-2.3 12.55-1.89 11.1-3.76 22.2-5.6 33.31-1.17 7.08-2.2 14.17-3.41 21.24-.71 4.18-1.82 8.29-2.44 12.48-.7 4.73-1.27 9.5-1.46 14.27-.12 2.91.57 5.85.94 8.77.33 2.58-.56 4.1-3.01 5.47-6.85 3.82-13.69 7.76-20.12 12.23-17.42 12.11-35.35 23.07-56.19 28.34-1.42.36-2.71 1.27-4.06 1.93z"/></clipPath></defs><g clip-path="url(#a)"><svg xmlns="http://www.w3.org/2000/svg" width="382" height="382" style="shape-rendering:geometricPrecision"><path fill="#67b326" stroke="#67b326" d="m94.334 85.791-5.36 3.449L77.38 28.09l24.767 2.627 13.38 26.002zM124.504 253.96l-6.968 50.23-4.175 3.104-2.863.744-36.355-11.95-4.303-27.304 50.27-21.737 2.391 1.185z"/><path fill="#bed1e5" stroke="#bed1e5" d="m63.79 184.99-45.611 19.26L0 202.052v-43.377l29.555-6.613 42.672 19.611-1.845 8.164zM168.129 75.263l-22.475-25.634L185.514 0h50.199l.201.603 1.821 11.041-39.098 53.98-28.381 10.543zM259.803 208.204l-17.499-19.762 9.147-35.412 9.31 1.315 22.874 35.767-1.515 12.5zM81.263 0 66.818 22.769l-29.981 7.816L7.28 0zM0 265.163l29.67-3.198 13.42 41.05-6.71 2.871-9.659 1.234L0 284.538zM189.162 382l-.708-30.098 1.369-2.88 28.466-10.304L254.659 382z"/><path fill="#67b326" stroke="#67b326" d="m248.392 124.317-35.034-5.393-9.12-14.843 45.997-14.612-.04 29.242z"/><path fill="#bed1e5" stroke="#bed1e5" d="M0 0h7.28l29.557 30.585 8.057 45.582L0 71.262z"/><path fill="#67b326" stroke="#67b326" d="m74.143 296.088 36.355 11.95-15.831 31.268-31.594-26.292.779-8.131z"/><path fill="#bed1e5" stroke="#bed1e5" d="m0 71.262 44.894 4.905 7.022 11.631-7.423 6.888L0 113.336zM101.766 382l1.12-2.309 31.546-23.065 54.022-4.724.708 30.098zM237.735 11.644l-1.82-11.04 111.81 29.724-25.405 55.854-58.877-25.606zM300.9 293.98l81.1 3.51v32.778l-85.541-20.06z"/><path fill="#67b326" stroke="#67b326" d="m63.073 313.014-2.37 12.22L40.236 336.8l-3.855-30.913 6.71-2.87 20.761 1.867z"/><path fill="#bed1e5" stroke="#bed1e5" d="m177.35 282.366-6.467 29.298-53.347-7.474 6.968-50.23z"/><path fill="#67b326" stroke="#67b326" d="m141.687 50.76-11.622 1.293L123.74 0h61.774l-39.86 49.629zM283.635 190.112l19.334-26.548 21.968.546 4.449 62.975-47.266-24.473z"/><path fill="#bed1e5" stroke="#bed1e5" d="m171.304 123.852-18.575-9.738-10.375-16.004 2.494-4.07 23.28-18.777 2.128.904 7.772 38.456zM113.98 208.377 102.987 222.5l-5.14-2.59-14.107-17.341-13.358-22.73 1.845-8.165 17.966-18.818 21.994 22.729 3.802 28.955-1.643 3.28z"/><path fill="#67b326" stroke="#67b326" d="m63.073 313.014 31.594 26.292-.014.036-26.194-.682-7.756-13.426zM77.379 28.09l-10.561-5.321L81.263 0h27.848l-6.965 30.717z"/><path fill="#bed1e5" stroke="#bed1e5" d="m165.848 211.963-51.868-3.586.366-.557 52.428-4.868z"/><path fill="#67b326" stroke="#67b326" d="m120.11 247.047-50.27 21.737-18.739-16.537.296-1.919 46.45-30.419 5.14 2.59zM382 144.445l-31.758-10.925-22.665-39.137L382 75.598z"/><path fill="#bed1e5" stroke="#bed1e5" d="m246.187 338.382 22.506 7.26L275.548 382h-20.89l-36.369-43.282.283-.205z"/><path fill="#67b326" stroke="#67b326" d="m0 284.538 26.721 22.582L0 369.26zM51.101 252.247l-21.432 9.718L0 265.163v-63.11l18.179 2.196L49.36 241.47l.286.767 1.75 8.091zM83.74 202.569l-34.093 39.668-.286-.767 14.428-56.48 6.593-5.152zM329.386 227.085l-4.45-62.975 25.306-30.59L382 144.445v108.68l-46.701-16.782z"/><path fill="#bed1e5" stroke="#bed1e5" d="m217.37 217.303-30.283 11.623-15.431-3.75-6.25-6.669.442-6.544.926-9.011 2.1-13.75 8.199-13.37 38.09 18.215zM247.042 147.37l1.35-23.053 1.804-5.606 43.23 5.415-10.79 26.186-21.875 4.033-9.31-1.315z"/><path fill="#67b326" stroke="#67b326" d="m382 297.49-81.1-3.51-6.966-34.432 41.365-23.205L382 253.125z"/><path fill="#bed1e5" stroke="#bed1e5" d="m243.532 263.193 1.178 1.245-26.138 74.075-.283.205-28.466 10.303-18.94-37.357 6.467-29.298 5.133-5.626 53.768-13.59zM165.406 218.507l6.25 6.668 10.827 51.565-5.133 5.626-52.846-28.407-2.003-5.727zM168.129 75.263l-23.281 18.778-3.16-43.28 3.966-1.132z"/><path fill="#67b326" stroke="#67b326" d="m166.774 202.952-52.428 4.868 1.643-3.28 23.888-16.088 28.997.75zM142.354 98.11 94.334 85.79l21.192-29.072 14.539-4.666 11.622-1.293 3.16 43.28zM378.511 0l-30.785 30.328L235.914.603 235.713 0zM168.874 189.201l-28.997-.749-27.69-12.867-21.994-22.729 4.328-10.205 80.254 18.063 2.081 3.315.217 11.802zM0 380.164 40.236 336.8l20.467-11.565 7.756 13.426L55.125 382H0z"/><path fill="#bed1e5" stroke="#bed1e5" d="m90.193 152.856-17.966 18.818-42.672-19.611 14.938-57.377 7.423-6.888 29.013 8.094 13.405 43.643.187 3.116z"/><path fill="#67b326" stroke="#67b326" d="m97.848 219.91-46.45 30.418-1.751-8.091 34.093-39.668z"/><path fill="#bed1e5" stroke="#bed1e5" d="m152.729 114.114-58.395 25.421-13.405-43.643 8.045-6.652 5.36-3.449 48.02 12.319zM139.877 188.452l-23.888 16.088-3.802-28.955z"/><path fill="#67b326" stroke="#67b326" d="m210.864 149.138-34.008 14.89-2.08-3.314-3.472-36.862 6.724-9.23 24.13-11.076 2.08.535 9.12 14.843zM275.548 382l-6.855-36.358 17.442-11.153L365.777 382z"/><path fill="#67b326" stroke="#67b326" d="m365.777 382-79.642-47.511 1.403-19.01 8.92-5.27L382 330.268V382z"/><path fill="#bed1e5" stroke="#bed1e5" d="m293.426 124.126-43.23-5.415.039-29.242 13.208-28.893 58.877 25.606 4.356 7.466z"/><path fill="#67b326" stroke="#67b326" d="m243.467 258.002 16.336-49.798 22.317-5.592 47.266 24.473 5.913 9.258-41.365 23.205-46.172 5.79-3.052-.9-1.178-1.245zM170.883 311.664l18.94 37.357-1.37 2.88-54.021 4.725-21.071-49.332 4.175-3.104zM247.042 147.37l-36.178 1.768 2.494-30.214 35.034 5.393z"/><path fill="#bed1e5" stroke="#bed1e5" d="m246.187 338.382 24.762-34.37 16.589 11.467-1.403 19.01-17.442 11.153zM250.235 89.469l-45.997 14.612-2.08-.535-3.521-37.923 39.098-53.979 25.708 48.932z"/><path fill="#67b326" stroke="#67b326" d="m283.635 190.112-22.874-35.767 21.875-4.033 20.333 13.252zM215.163 194.047l-38.09-18.216-.217-11.802 34.008-14.891 36.178-1.767 4.41 5.659-9.148 35.412zM36.38 305.886l3.856 30.913L0 380.164V369.26l26.721-62.14zM217.37 217.303l26.097 40.699.065 5.191-7.28-.043-49.165-34.224z"/><path fill="#bed1e5" stroke="#bed1e5" d="M63.79 184.99 49.36 241.47 18.18 204.25z"/><path fill="#67b326" stroke="#67b326" d="m123.74 0 6.325 52.053-14.54 4.666-13.379-26.002L109.111 0z"/><path fill="#bed1e5" stroke="#bed1e5" d="m80.929 95.892-29.013-8.094-7.022-11.63-8.057-45.583 29.98-7.816 10.562 5.32 11.595 61.15z"/><path fill="#67b326" stroke="#67b326" d="m217.37 217.303-2.207-23.256 27.141-5.605 17.499 19.762-16.336 49.798zM247.762 265.337l46.172-5.789 6.966 34.433-4.441 16.228-8.921 5.27-16.59-11.466z"/><path fill="#bed1e5" stroke="#bed1e5" d="m165.406 218.507-42.905 29.725-2.392-1.185-17.122-24.547 10.993-14.123 51.868 3.586zM382 0v75.598l-54.423 18.785-.901-.735-4.356-7.466 25.406-55.854L378.51 0z"/><path fill="#67b326" stroke="#67b326" d="m102.885 379.691-1.12 2.309h-46.64l13.334-43.34 26.194.682z"/><path fill="#bed1e5" stroke="#bed1e5" d="m74.143 296.088-10.291 8.795-20.761-1.868-13.422-41.05 21.432-9.718 18.74 16.537zM29.555 152.063 0 158.676v-45.34l44.493-18.65zM202.158 103.546l-24.13 11.077-7.772-38.456 28.38-10.544z"/><path fill="#67b326" stroke="#67b326" d="m171.304 123.852 3.471 36.862-80.254-18.063-.187-3.116 58.395-25.421z"/><path fill="#bed1e5" stroke="#bed1e5" d="m187.087 228.926 49.164 34.224-53.768 13.59-10.827-51.565zM113.36 307.294l21.072 49.332-31.547 23.065-8.232-40.35.014-.035 15.831-31.268z"/><path fill="#67b326" stroke="#67b326" d="m282.636 150.312 10.79-26.186 33.25-30.478.901.735 22.665 39.137-25.305 30.59-21.968-.546z"/><path fill="#bed1e5" stroke="#bed1e5" d="m246.187 338.382-27.615.131 26.138-74.075 3.052.9 23.187 38.675z"/></svg></g></svg>