<svg xmlns="http://www.w3.org/2000/svg" viewBox="0 0 382 382"><defs><clipPath id="a"><path d="M206.44 314.67h-12.95c-1.21-2.51-3.68-5.19-3.38-7.49.75-5.57 2.98-10.93 4.26-16.45 1.32-5.69 2.27-11.47 3.26-17.23.45-2.59 0-5.5 1.03-7.79 1.44-3.23 4.06-5.91 5.79-9.04.92-1.65 1.56-3.78 1.43-5.63-.52-7.52-1.58-15.01-2.06-22.53-.5-7.85-4.73-14.92-12.25-16.61-7.27-1.63-14.94-2.3-22.38-1.99-5.67.24-10.44-.05-14.85-3.97-4.27-3.81-9.03-7.07-13.42-10.76-10.97-9.21-23.3-14.58-37.79-15.62-13.59-.97-23.89-11.32-22.18-27.83.35-3.39-1.96-7.06-3.05-10.6v-8.98c2.87-4.82 6.05-9.49 8.52-14.51 2.88-5.83 7.45-8.74 13.57-10.16 9.19-2.13 18.35-4.43 27.43-6.98 11.92-3.35 20.95-9.71 22.65-23.23.12-.97 1.37-2.05 2.36-2.6 5.11-2.85 9.16.46 13.25 2.7 3.34 1.83 5.3 1.31 7.01-2.2 2.7-5.54 6.16-6.44 11.54-4.15 1.78.76 4.49 1 6.09.17 5.44-2.82 11-2.87 16.83-2.25 1.35.14 2.85-1.04 4.28-1.61h2.99c.54.52.99 1.31 1.63 1.51 5.05 1.63 10.13 3.21 15.24 4.64.82.23 1.86-.51 2.81-.58 3.67-.27 7.73-1.53 10.93-.39 3.66 1.3 6.42 4.96 9.83 7.21 2.03 1.34 4.48 2.32 6.87 2.81 5.88 1.22 11.85 2.03 17.76 3.08 3.22.57 4.62 2.39 4.46 5.87-.12 2.71.25 5.59 1.09 8.16 2.07 6.3 8.55 6.38 13.31 8.91 1.21.64 3.07 1.46 3.22 2.42.65 4.02 1.13 8.15.98 12.21-.15 4.04-1.57 8.05-1.56 12.07 0 1.96 2.01 3.91 3.1 5.87v22.94c-.77 4.18-1.59 8.36-2.3 12.55-1.89 11.1-3.76 22.2-5.6 33.31-1.17 7.08-2.2 14.17-3.41 21.24-.71 4.18-1.82 8.29-2.44 12.48-.7 4.73-1.27 9.5-1.46 14.27-.12 2.91.57 5.85.94 8.77.33 2.58-.56 4.1-3.01 5.47-6.85 3.82-13.69 7.76-20.12 12.23-17.42 12.11-35.35 23.07-56.19 28.34-1.42.36-2.71 1.27-4.06 1.93z"/></clipPath></defs><g clip-path="url(#a)"><svg xmlns="http://www.w3.org/2000/svg" width="382" height="382" style="shape-rendering:geometricPrecision"><path fill="#2f8015" stroke="#2f8015" d="m205.084 145.956-32.052-41.345-1.818-7.64 11.843 1.427 36.49 5.41-5.17 36.753zM382 382h-38.439l-6.746-22.51L382 327.31z"/><path fill="#2be97c" stroke="#2be97c" d="m246.716 382 54-45.612 6.594-1.522 7.699 2.026 21.806 22.597L343.561 382z"/><path fill="#2f8015" stroke="#2f8015" d="m243.697 0-22.242 44.31-74.393-2.493L113.679 0z"/><path fill="#2be97c" stroke="#2be97c" d="M60.468 163.028 0 180.376v-64.228l24.714-22.913 38.21-5.103 16.712 35.565.117 12.356zM240.161 382l-13.313-51.082 37.76-33.746 36.109 39.216-54 45.612z"/><path fill="#2f8015" stroke="#2f8015" d="m141.818 304.563 37.18 18.63L146.152 382H118.29l.633-27.975 13.32-40.832zM229.287 270.548l39.115-1.935-3.794 28.559-37.76 33.746-10.92-10.74zM123.254 139.8l-2.7-1.79 23.05-71.11 4.117-6.018 12.297 22.249-17.533 54.183zM102.477 195.555l-18.042 54.817-41.995 3.316L0 223.112v-42.736l60.468-17.348z"/><path fill="#2be97c" stroke="#2be97c" d="m131.46 256.257 15.707-17.7 47.226 3.182.402 1.384L173 285.14l-25.295 3.547z"/><path fill="#2f8015" stroke="#2f8015" d="m137.059 208.488 37.423-33.682 5.047-1.912 7.747 1.064 24.169 34.541-17.052 33.24-47.226-3.182z"/><path fill="#2be97c" stroke="#2be97c" d="m291.965 277.05 53.074-12.527 5.534 6.535-42.007 30.353zM174.482 174.806l-44.536-10.725-6.692-24.282 19.231-2.485 18.169 6.503 18.875 29.077z"/><path fill="#2f8015" stroke="#2f8015" d="m0 290.64 22.914 26.316-7.649 15.785L0 340.375zM373.478 286.458l8.522 1.651v39.202l-45.185 32.178-21.806-22.597zM238.784 66.267l-.121-2.401 23.43-5.079 54.202 6.07 10.7 28.764-52.035 28.01-35.03-38.019z"/><path fill="#2be97c" stroke="#2be97c" d="M221.455 44.31 243.697 0h46.446l-28.05 58.787-23.43 5.079z"/><path fill="#2f8015" stroke="#2f8015" d="m268.402 268.613 1.415-1.446 22.148 9.883 16.601 24.361-1.256 33.455-6.593 1.522-36.11-39.216zM0 53.07l9.188-1.352 11.211 4.727 4.315 36.79L0 116.148z"/><path fill="#2be97c" stroke="#2be97c" d="m173 285.14 21.795-42.017 8.166 9.36-2.984 62.067-5.477-.33zM46.513 292.966l-23.599 23.99L0 290.64v-67.53l42.44 30.577z"/><path fill="#2f8015" stroke="#2f8015" d="M262.093 58.787 290.143 0h4.653l25.865 39.971-4.366 24.885zM0 382v-41.625l15.265-7.634 50.394 22.232L84.123 382z"/><path fill="#2be97c" stroke="#2be97c" d="M13.982 0 9.188 51.718 0 53.07V0zM382 0v11.874l-61.339 28.097L294.796 0z"/><path fill="#2f8015" stroke="#2f8015" d="m263.271 147.555-48.893-6.994 5.169-36.753 20.384-20.196 35.029 38.018-2.515 8.372zM194.393 241.739l17.052-33.24 61.016-5.343 8.372 5.896-11.016 58.115-1.415 1.446-39.115 1.935-26.326-18.064-8.166-9.361zM332.637 198.237l24.824-14.324L382 186.119v101.99l-8.522-1.651-22.905-15.4-5.534-6.535-22.24-58.186zM105.161 0 87.918 22.863 20.4 56.445 9.188 51.718 13.982 0z"/><path fill="#2be97c" stroke="#2be97c" d="m160.654 143.817 12.378-39.206 32.052 41.345-17.808 28.002-7.747-1.064z"/><path fill="#2f8015" stroke="#2f8015" d="m309.576 150.632 27.385-51.51 2.944 1.261 17.556 83.53-24.824 14.324z"/><path fill="#2be97c" stroke="#2be97c" d="m137.059 208.488-28.474-13.225 21.361-31.182 44.536 10.725z"/><path fill="#2f8015" stroke="#2f8015" d="m137.059 208.488 10.108 30.07-15.708 17.699-30.853 3.871-16.171-9.756 18.042-54.817 6.108-.292z"/><path fill="#2be97c" stroke="#2be97c" d="m219.547 103.808-36.49-5.41 55.727-32.131 1.147 17.345z"/><path fill="#2f8015" stroke="#2f8015" d="m263.271 147.555 9.174-17.553 37.13 20.63 23.062 47.605-9.838 8.1-41.966 2.715-8.372-5.896zM173 285.14l21.5 29.08-15.503 8.973-37.179-18.63 5.887-15.876z"/><path fill="#2be97c" stroke="#2be97c" d="m309.576 150.632-37.131-20.63 2.515-8.372 52.034-28.01 9.967 5.501z"/><path fill="#2f8015" stroke="#2f8015" d="m131.46 256.257 16.245 32.43-5.887 15.876-9.575 8.63-31.27-26.548-.367-26.517zM199.977 314.55l2.984-62.066 26.326 18.064-13.359 49.63zM108.585 195.263l-6.108.292-42.01-32.527 19.286-26.975 40.8 1.957 2.701 1.79 6.692 24.281zM46.513 292.966l16.235 14.974 2.911 47.033-50.394-22.232 7.65-15.785z"/><path fill="#2be97c" stroke="#2be97c" d="m280.833 209.052 41.966-2.715 22.24 58.186-53.074 12.527-22.148-9.883z"/><path fill="#2f8015" stroke="#2f8015" d="m143.604 66.9-63.968 56.797-16.712-35.565 24.994-65.269L105.161 0h8.518l33.383 41.817.659 19.065zM382 186.119l-24.539-2.206-17.556-83.53L382 89.463z"/><path fill="#2be97c" stroke="#2be97c" d="m199.977 314.55 15.951 5.627 10.92 10.741L240.161 382h-94.008l32.844-58.807 15.503-8.972z"/><path fill="#2f8015" stroke="#2f8015" d="m308.566 301.411 42.007-30.353 22.905 15.4-58.47 50.434-7.698-2.026zM187.276 173.958l17.808-28.002 9.294-5.395 48.893 6.994 9.19 55.6-61.016 5.344zM62.924 88.132l-38.21 5.103-4.315-36.79 67.52-33.582z"/><path fill="#2be97c" stroke="#2be97c" d="m143.604 66.9-23.05 71.11-40.801-1.957-.117-12.356z"/><path fill="#2f8015" stroke="#2f8015" d="m382 89.462-42.095 10.921-2.944-1.262-9.967-5.5-10.699-28.765 4.366-24.885L382 11.874z"/><path fill="#2be97c" stroke="#2be97c" d="m160.654 143.817-18.169-6.503 17.533-54.183 11.196 13.84 1.818 7.64zM100.972 286.645l31.271 26.548-13.319 40.832-31.442-48.931z"/><path fill="#2f8015" stroke="#2f8015" d="m100.606 260.128.366 26.517-13.49 18.449-24.734 2.846-16.235-14.974-4.073-39.278 41.995-3.316zM87.482 305.094l31.442 48.93-.633 27.976H84.123L65.66 354.973l-2.911-47.033z"/><path fill="#2be97c" stroke="#2be97c" d="M160.018 83.13 147.72 60.883l-.66-19.065 74.394 2.492 17.208 19.557.121 2.4-55.727 32.132-11.843-1.426z"/></svg></g></svg>