<svg xmlns="http://www.w3.org/2000/svg" viewBox="0 0 382 382"><g fill="none" stroke="#356a22" stroke-width="2"><path d="M220.69 70.13q-1.66.85-2.15 2.89-.13.5.16.94l1.56 2.38q.29.45.77.69 1.41.71.95 2.38-.45 1.63-.98 3.31-.41 1.33.83.71.21-.1.44-.11.55-.02.97.33.78.63 1.57-.01a.5.49 59.2 0 0 .14-.57q-.13-.31.1-.56.49-.49.7.17l1.45 4.54q.23.7.49.01l1.36-3.59q.2-.52.75-.57l1.44-.11q.61-.05.3-.59c-1.12-1.96.34-3.03-.16-4.48q-.13-.39-.52-.52-.55-.18-.94.25-.11.12-.25.16-.61.19-.64-.45l-.18-4.6M238.81 71.99q.11.92.37 1.41.29.55.71.09l1.32-1.45M242.97 72.1q-.09.42.53.44.48.02.51-.37M254.57 79.46q.9 4.18-.79 5.37a.91.9 58.2 0 0-.27 1.16q1.04 1.99-.61 3.16-.3.22-.22.58.53 2.44-.13 4.8-.16.56.32.87l1.73 1.12a.84.84 0 0 1 0 1.41q-.58.38-.25.75 0 .01.01.01l.18.18q.03.02.06-.01.58-.69 1.13-1.34.48-.55 1.11-.19l.38.21q.72.41.77-.42c.06-1.23-1.01-2.5-.89-3.3q.12-.77.82-1.28.49-.34.97 0 1.19.82 2.36-.1.67-.53.69.32l.03 2.43a.48.47 79.4 0 0 .63.44l.43-.16q.46-.17.91.05 2.07 1.02 3.81-.38a.68.68 0 0 1 1.06.31c.73 2.14 1.11 4.15.61 6.39q-.89 3.95-1.98 7.53-.17.55.39.67.85.19 1.26 1.07.63 1.35 1.22-.02.3-.72.1-1.5a.95.95 0 0 1 1.57-.94q1.22 1.13 2.94 1.81.45.18.91 0l1.09-.44q.57-.22.89.29c1.91 2.96.53 6.72-.4 9.82q-.16.53.34.77l1.44.68q.75.36.69-.47-.07-.92.29-1.75.29-.66.92-.31l1.44.82a.91.9 18 0 0 1.34-.68q.14-1.12 1.46-1.3a1.22 1.22 0 0 1 1.39 1.1l.47 5.44a1.66 1.66 0 0 0 1.99 1.47q1.37-.29.4-1.37-.85-.93.15-1.7.67-.52 1.56-.8a.88.85-6.9 0 0 .6-.74l.14-1.64a.87.86-66 0 1 1.45-.56l2.59 2.41q.43.4.96.14.72-.37.46-1.15-1.46-4.44.87-7.55.31-.42.06-.88-1.09-2.01-1.23-4.03M289.02 255.59l-1.77-3.17a.89.86-45.3 0 1 .01-.85q.7-1.23.74-2.76.02-.58-.54-.42-1.59.48-3.12-.78-.35-.29-.39-.74-.17-2.13 1.01-4.03a.41.41 0 0 0-.29-.63q-.44-.06-.73.3-.48.62-.81-.1l-.95-2.07q-.28-.62.15-1.14.51-.63.72-1.31a.4.4 0 0 0-.5-.5q-1.47.44-3.17-.66-.59-.37-.39-1.04l.71-2.32q.61-1.98-1.25-1.07l-2.9 1.41q-.28.13-.5-.07-.17-.15-.05-.45a.6.59 37 0 0-.09-.61q-.49-.63-1.19-.56-1.02.09-.31.82.67.68-.02 1.28-.82.72.21 1.11.16.07.14.29-.06.55-.62.55-.77.01-1.03.69-.19.51.21.88.91.83.04 1.73-.5.52.22.6.9.09 1.54-.62a.46.46 0 0 1 .8.24c.2 1.36.15 2.9-.87 3.97q-2.2 2.31-2.07 5.53.06 1.53-1 .42l-1.97-2.08q-.57-.6-.81.19-.31 1.03-1.07 1.79a.64.63 30 0 1-.62.16q-1.68-.48-3.21.76-.44.35-.34.92.21 1.24.82 2.26.44.75-.18 1.35-1.15 1.13-1.76 2.55a1.14 1.14 0 0 1-2.12-.04l-1.19-3.12q-.23-.59-.79-.87l-1.15-.57q-.47-.23-.56-.74-.21-1.19.52-2.2.31-.42-.18-.59-1.91-.66-1.01-2.96a1.56 1.56 0 0 0-.14-1.41l-.61-.93q-.28-.43-.1-.9.33-.86-.39-1.45-1.65-1.35-.28-3.05a.89.88 22.1 0 0-.61-1.43q-1.24-.12-2.35-.76-.48-.27-.64.26-.29 1.03-1.31 1.36-.72.24-.4.93l1.52 3.28a1.11 1.11 0 0 1-.52 1.46l-.97.49q-.57.28-.6.91-.03.77-.71 1-.54.19-.89-.26-.41-.53-.42-1.19-.01-.64-.59-.35l-2.41 1.22q-.54.27-.71.85l-1.25 4.13q-.27.88-.91.22-1.29-1.32-1.22-3.17.03-.76-.56-.27l-.35.29q-.65.53-.84-.29l-2.3-10.25a1.66 1.66 0 0 0-.74-1.05q-.82-.5-1.11-1.45-.26-.84-.72-.09c-.82 1.39-1.59 3.02-.72 4.61.9 1.63-.31 2.35-1.42 3.35q-.6.55-1.31.02-.35-.27-.48.15l-.11.32q-.16.52-.63.8l-1.95 1.14q-.53.32-.26.87.42.84-.02 1.67-.28.53-.89.45a.57.56 1.3 0 1-.49-.51l-.05-.43q-.03-.28-.28-.42-.35-.19-.52-.04-.58.51-.92-.19-.45-.95-1.4-1.39-.45-.21-.4-.71.07-.65-.46-1.11-.52-.45-.68-1.13-.31-1.33-1.21-2.24-1.07-1.08-2.49-.54-.15.06-.25.21-1.27 1.81-.14 3.3 1.23 1.64.31 3.43-.27.51.04.99.14.22.1.47-.03.32-.35.35l-.31.03q-.38.04-.54.39l-.99 2.12q-.21.45-.08.92l.68 2.4a1.3 1.3 0 0 1-1.42 1.63l-7.21-.95M79.36 145.52l.69-1.58q.22-.48.67-.75c2.26-1.32 2.37-4.2 2.22-6.61q-.03-.43-.43-.58-.57-.22-1.03.21-1.82 1.7-1.55-.78.15-1.37-.45-2.54-.21-.42.07-.79 1.67-2.22 2.92-5.32.18-.47.05-.73-.19-.36-.78-.37M83.73 122.36l2.75 1.91q.42.3.47.81c.16 1.66.7 5.31 2 6.51q.96.88.92-.42-.05-1.89 1.44-2.99a1.01 1 47.5 0 1 1.26.06q.7.63 1.55.18.6-.32.87.3l.82 1.92q.21.48-.07.93-.75 1.23-.8 2.64-.02.6.55.41 1.67-.56 3.13.76.4.35.4.89.01 2.08-.92 3.8-.08.15-.06.32.03.15.15.25.25.18.5 0l.4-.3q.44-.32.68.17l1.07 2.17q.26.53-.13.99-.61.72-.69 1.65-.04.48.4.31 1.86-.69 3.31.96.37.42.27.96-.16.8-.52 1.53-1.55 3.04 1.49 1.48l2.52-1.29a.4.39-9.1 0 1 .58.41q-.16.96.83 1.18 1.28.28.55-.81-.49-.72.14-1.15.62-.44-.02-.88-.14-.1-.16-.32-.04-.55.49-.68.38-.09.7-.32.43-.3.26-.81-.19-.54-.57-1.02a.7.7 0 0 1 .04-.89q.21-.23.3-.54.19-.65-.47-.5-.81.19-1.45.75-.53.46-.65-.23c-.65-3.85 3.05-5.19 2.91-8.91q-.1-2.65 1.53-.56.82 1.05 1.83 1.74.53.36.62-.28.15-1.01.8-1.76.33-.4.83-.26 1.51.4 3.1-.76.47-.35.38-.93-.18-1.28-.92-2.3-.39-.54.08-1.02 1.26-1.28 1.99-2.94.27-.61.92-.48c2.64.52.85 4.1 4.09 5.11q.49.15.65.64.44 1.35-.43 2.47-.28.37.15.53 2.15.85.94 3.11a1 .97-44.3 0 0-.02.88q.34.69.93 1.2a.77.76 32.4 0 1 .2.88l-.18.42q-.25.58.24.97 1.91 1.51.41 3.4a.72.71-63.4 0 0 .37 1.14l2.65.73q.58.16.81-.39.4-.91 1.46-1.12.62-.11.29-.65-1.06-1.74-1.68-3.74-.12-.38.01-.74.21-.6.84-.75.57-.13.84-.63l.66-1.21q.26-.48.75-.25.78.36.89 1.31.08.7.7.37l2.21-1.16q.55-.29.75-.88l1.45-4.22a.47.46-57.2 0 1 .78-.17q1.09 1.15 1.2 3.01a.42.42 0 0 0 .73.26q.12-.13.29-.19.69-.25.84.47l2.19 10.12q.14.63.67.99.9.61 1.33 1.64.32.79.66.01l1.09-2.55a1.46 1.44-48.4 0 0-.07-1.28q-1.44-2.58 1.61-4.42a.31.31 0 0 1 .35.02l.29.23q.4.31.59-.16l.19-.42q.14-.34.46-.53l2.19-1.36q.44-.28.17-.72l-.31-.53q-.25-.43.03-.84.27-.4.72-.65.68-.38.86.38l.14.6a.4.4 0 0 0 .63.23l.28-.2q.6-.45.76.28.28 1.3 1.52 1.62a.41.4 23.5 0 1 .24.61q-.48.77.37 1.14a1.64 1.63 6.2 0 1 .94 1.16q.21 1.04.9 1.84 1.85 2.18 3.43.09a1.88 1.86-46.3 0 0-.04-2.31q-.78-.94-1.02-2.06-.13-.65.18-1.23.45-.81.12-1.67-.17-.44.25-.66 1.46-.75 1.89-2.58c.28-1.17-.46-2.2-.56-3.4q-.04-.52.35-.86 1.44-1.22 2.96-.7.38.14.77 0 .88-.32 1.49.47a.93.92-31.2 0 0 1.13.27q.68-.32 1.3.1.54.37.91-.16 1.78-2.51-.44-4.92-.58-.63-.38.2.17.69-.27 1.08a.42.42 0 0 1-.7-.29q-.08-1.39-.64-2.6-.18-.39.02-.78.55-1.05.44-2.2-.05-.63-.68-.65-.61-.03-.97-.46-.24-.29-.15-.66.87-3.8 3.11-6.02.45-.45.22-1.04-.26-.64.1-1.23.36-.61-.31-.82-.26-.09-.53-.02a.68.67-6.5 0 0-.5.62q-.06 1.15-1.17 1.63a.58.57 51.1 0 1-.57-.07l-.24-.19a.37.37 0 0 1 .04-.62q.3-.17.49-.45.42-.61-.31-.72c-2.53-.37-2.56-2.67-2.56-4.74q0-.18-.17-.24-.16-.07-.29.01-.22.11-.29.34-.34 1.08-.94 2.04-.16.27-.47.36-.19.06-.37-.02-.59-.26-.42-.88.07-.26-.02-.51-.21-.67-.62-.1-1.73 2.39-.93 4.51.22.58.01 1.16l-.49 1.33q-.22.58-.76.3l-1.59-.82a.95.95 0 0 1-.51-.92q.04-.68-.24-1.3-.2-.43-.63-.61l-2.68-1.14q-.46-.19-.21-.63 1.93-3.37.4-7.49-.17-.46-.61-.69l-.41-.21q-.49-.26-.57-.81-.16-1.19-.79-2.22-.23-.38.11-.67.12-.1.28-.11.52-.06.81-.49 1.23-1.84 3.51-2.5a1.4 1.36-83.6 0 0 .86-.71q.48-.97-.09-2.03a.63.62-20 0 0-.67-.31q-.34.07-.62-.1-.54-.32-.12-.79 1.01-1.13.02-2.26-.39-.45.12-.75.2-.12.43-.1.62.06.82-.53.82-2.42.82-4.46 0-2.32-1.94-2.41-.49-.03-.87-.35-.96-.83-1.51-1.95M174.69 71.93q.24.58.53.77a.56.55-57.7 0 0 .77-.18q.11-.18.29-.3.57-.38.67.29l.13.91a.41.16 48.3 0 0 .04.11q.21.4.52.31.27-.09.28-.37l.07-1.84q.02-.6.6-.47.42.09.52.5a.24.24 0 0 0 .36.15l.33-.2q.09-.05.02-.13l-1.28-1.62M221.29 309.53q-.04-.89.36-1.68.22-.41-.07-.79-.48-.63-1.24-.78a.42.41 12.9 0 0-.48.29q-.07.25-.28.23-.52-.06-.64-.56-.86-3.63.49-7.06.1-.27.38-.29l.26-.01q.93-.06.32-.77-.89-1.05.13-2.18.63-.69-.29-.86-1.58-.31-1.3-2.09.1-.68.75-.88 2.43-.78 3.8-2.74.23-.33.63-.37.2-.02.37-.12.51-.31.15-.79-.63-.86-.73-1.92-.06-.56-.54-.86l-.54-.33q-.44-.28-.61-.77-1.31-3.77.21-6.98.55-1.17-.7-1.44-2.73-.58-2.84-2.86a.57.56-72.2 0 0-.21-.42l-.83-.65a1.52 1.51 8.3 0 0-2.35 1.75q1.02 2.53-.72 4.8-.59.78-.65-.19l-.03-.45q-.07-.9-.84-.42-.77.47-1.11 1.52-.67 2.04-1-.08c-.28-1.85-.28-3.43-2.56-3.86a.46.46 0 0 1-.35-.6q.08-.25.28-.43.47-.43-.03-.82-.26-.2-.6-.15-.67.11-.86.76l-.22.73q-.19.62-.84.7-.25.03-.5-.06a.42.41 30.1 0 1-.18-.67q.6-.68.24-1.46-.22-.47.14-.84 2.32-2.37 3.17-6.18.13-.56-.42-.76-2.05-.74-1.05-2.88.34-.73-.05-1.43-.55-1.01-.43-2.25a.39.39 0 0 0-.16-.35q-.24-.17-.43-.09-.26.11-.29.41-.03.43.01.83.02.18-.12.3-.15.14-.35.03-.18-.1-.29-.28l-1.23-2.14" vector-effect="non-scaling-stroke"/><path d="M292.78 106.13q.01 1.36.48 2.47.24.59.86.42.65-.18.97-.79.24-.45.75-.48l.91-.05M210.01 312.97q-.25-.78-1.23-1.02-.53-.12-.72-.63l-.29-.81q-.2-.55-.67-.19l-.34.26a.49.49 0 0 1-.79-.39v-.66q0-.26-.25-.29l-.37-.04q-.23-.03-.25.2l-.14 1.58q-.04.46-.38.78-.98.92-.36 2.19.21.44.68.3 1.09-.33 1.67.53M108.99 138.55a.38.38 0 0 0-.38-.38.38.38 0 0 0-.38.38.38.38 0 0 0 .38.38.38.38 0 0 0 .38-.38M274.28 244.35q-.03.16.1.23a.15.14 15.7 0 0 .22-.12q0-.19-.19-.21-.11-.01-.13.1M203.66 311.46q-.05-.19-.25-.14-.15.05-.11.21.09.26.36.34a.25.25 0 0 0 .3-.17q.1-.35-.22-.2a.06.06 0 0 1-.08-.04" vector-effect="non-scaling-stroke"/></g><path d="M220.69 70.13q-1.66.85-2.15 2.89-.13.5.16.94l1.56 2.38q.29.45.77.69 1.41.71.95 2.38-.45 1.63-.98 3.31-.41 1.33.83.71.21-.1.44-.11.55-.02.97.33.78.63 1.57-.01a.5.49 59.2 0 0 .14-.57q-.13-.31.1-.56.49-.49.7.17l1.45 4.54q.23.7.49.01l1.36-3.59q.2-.52.75-.57l1.44-.11q.61-.05.3-.59c-1.12-1.96.34-3.03-.16-4.48q-.13-.39-.52-.52-.55-.18-.94.25-.11.12-.25.16-.61.19-.64-.45l-.18-4.6q4.44.77 9.96-.74.11.92.37 1.41.29.55.71.09l1.32-1.45 1.76.06q-.09.42.53.44.48.02.51-.37 2.16.42 3.98 1.84 3.81 2.97 6.58 5.45.9 4.18-.79 5.37a.91.9 58.2 0 0-.27 1.16q1.04 1.99-.61 3.16-.3.22-.22.58.53 2.44-.13 4.8-.16.56.32.87l1.73 1.12a.84.84 0 0 1 0 1.41q-.58.38-.25.75 0 .01.01.01l.18.18q.03.02.06-.01.58-.69 1.13-1.34.48-.55 1.11-.19l.38.21q.72.41.77-.42c.06-1.23-1.01-2.5-.89-3.3q.12-.77.82-1.28.49-.34.97 0 1.19.82 2.36-.1.67-.53.69.32l.03 2.43a.48.47 79.4 0 0 .63.44l.43-.16q.46-.17.91.05 2.07 1.02 3.81-.38a.68.68 0 0 1 1.06.31c.73 2.14 1.11 4.15.61 6.39q-.89 3.95-1.98 7.53-.17.55.39.67.85.19 1.26 1.07.63 1.35 1.22-.02.3-.72.1-1.5a.95.95 0 0 1 1.57-.94q1.22 1.13 2.94 1.81.45.18.91 0l1.09-.44q.57-.22.89.29c1.91 2.96.53 6.72-.4 9.82q-.16.53.34.77l1.44.68q.75.36.69-.47-.07-.92.29-1.75.29-.66.92-.31l1.44.82a.91.9 18 0 0 1.34-.68q.14-1.12 1.46-1.3a1.22 1.22 0 0 1 1.39 1.1l.47 5.44a1.66 1.66 0 0 0 1.99 1.47q1.37-.29.4-1.37-.85-.93.15-1.7.67-.52 1.56-.8a.88.85-6.9 0 0 .6-.74l.14-1.64a.87.86-66 0 1 1.45-.56l2.59 2.41q.43.4.96.14.72-.37.46-1.15-1.46-4.44.87-7.55.31-.42.06-.88-1.09-2.01-1.23-4.03 2.45.67 4.06 2.22.3.29.38.7 1.64 8.51.93 13.83-.68 5.2-1.63 10.38a1.1 1.09 34.7 0 0 .14.75l2.81 4.76q.31.52.31 1.13-.08 9.29.01 18.74c.05 5.47-1.31 10.67-2.17 15.82q-5.59 33.51-11.53 68.13c-.63 3.62-.88 7.38-1.48 11.1l-1.77-3.17a.89.86-45.3 0 1 .01-.85q.7-1.23.74-2.76.02-.58-.54-.42-1.59.48-3.12-.78-.35-.29-.39-.74-.17-2.13 1.01-4.03a.41.41 0 0 0-.29-.63q-.44-.06-.73.3-.48.62-.81-.1l-.95-2.07q-.28-.62.15-1.14.51-.63.72-1.31a.4.4 0 0 0-.5-.5q-1.47.44-3.17-.66-.59-.37-.39-1.04l.71-2.32q.61-1.98-1.25-1.07l-2.9 1.41q-.28.13-.5-.07-.17-.15-.05-.45a.6.59 37 0 0-.09-.61q-.49-.63-1.19-.56-1.02.09-.31.82.67.68-.02 1.28-.82.72.21 1.11.16.07.14.29-.06.55-.62.55-.77.01-1.03.69-.19.51.21.88.91.83.04 1.73-.5.52.22.6.9.09 1.54-.62a.46.46 0 0 1 .8.24c.2 1.36.15 2.9-.87 3.97q-2.2 2.31-2.07 5.53.06 1.53-1 .42l-1.97-2.08q-.57-.6-.81.19-.31 1.03-1.07 1.79a.64.63 30 0 1-.62.16q-1.68-.48-3.21.76-.44.35-.34.92.21 1.24.82 2.26.44.75-.18 1.35-1.15 1.13-1.76 2.55a1.14 1.14 0 0 1-2.12-.04l-1.19-3.12q-.23-.59-.79-.87l-1.15-.57q-.47-.23-.56-.74-.21-1.19.52-2.2.31-.42-.18-.59-1.91-.66-1.01-2.96a1.56 1.56 0 0 0-.14-1.41l-.61-.93q-.28-.43-.1-.9.33-.86-.39-1.45-1.65-1.35-.28-3.05a.89.88 22.1 0 0-.61-1.43q-1.24-.12-2.35-.76-.48-.27-.64.26-.29 1.03-1.31 1.36-.72.24-.4.93l1.52 3.28a1.11 1.11 0 0 1-.52 1.46l-.97.49q-.57.28-.6.91-.03.77-.71 1-.54.19-.89-.26-.41-.53-.42-1.19-.01-.64-.59-.35l-2.41 1.22q-.54.27-.71.85l-1.25 4.13q-.27.88-.91.22-1.29-1.32-1.22-3.17.03-.76-.56-.27l-.35.29q-.65.53-.84-.29l-2.3-10.25a1.66 1.66 0 0 0-.74-1.05q-.82-.5-1.11-1.45-.26-.84-.72-.09c-.82 1.39-1.59 3.02-.72 4.61.9 1.63-.31 2.35-1.42 3.35q-.6.55-1.31.02-.35-.27-.48.15l-.11.32q-.16.52-.63.8l-1.95 1.14q-.53.32-.26.87.42.84-.02 1.67-.28.53-.89.45a.57.56 1.3 0 1-.49-.51l-.05-.43q-.03-.28-.28-.42-.35-.19-.52-.04-.58.51-.92-.19-.45-.95-1.4-1.39-.45-.21-.4-.71.07-.65-.46-1.11-.52-.45-.68-1.13-.31-1.33-1.21-2.24-1.07-1.08-2.49-.54-.15.06-.25.21-1.27 1.81-.14 3.3 1.23 1.64.31 3.43-.27.51.04.99.14.22.1.47-.03.32-.35.35l-.31.03q-.38.04-.54.39l-.99 2.12q-.21.45-.08.92l.68 2.4a1.3 1.3 0 0 1-1.42 1.63l-7.21-.95q.02-.63.17-1.46.14-.76.08-1.58-1.23-18.41-2.57-26.47-1.07-6.41-6.43-10.46-2.96-2.25-9.67-3.26-6.34-.95-10.98-1.08-6.12-.18-12.2-.11c-3.04.03-6.41-1.43-8.88-3.45q-10.92-8.92-18.66-14.65-14.02-10.39-31.13-11.85-5.27-.45-8.82-1.74-13.69-4.98-15.44-19.53l.03-6.01q.02-3.78-1.5-7.21l.69-1.58q.22-.48.67-.75c2.26-1.32 2.37-4.2 2.22-6.61q-.03-.43-.43-.58-.57-.22-1.03.21-1.82 1.7-1.55-.78.15-1.37-.45-2.54-.21-.42.07-.79 1.67-2.22 2.92-5.32.18-.47.05-.73-.19-.36-.78-.37l1.99-3.32 2.75 1.91q.42.3.47.81c.16 1.66.7 5.31 2 6.51q.96.88.92-.42-.05-1.89 1.44-2.99a1.01 1 47.5 0 1 1.26.06q.7.63 1.55.18.6-.32.87.3l.82 1.92q.21.48-.07.93-.75 1.23-.8 2.64-.02.6.55.41 1.67-.56 3.13.76.4.35.4.89.01 2.08-.92 3.8-.08.15-.06.32.03.15.15.25.25.18.5 0l.4-.3q.44-.32.68.17l1.07 2.17q.26.53-.13.99-.61.72-.69 1.65-.04.48.4.31 1.86-.69 3.31.96.37.42.27.96-.16.8-.52 1.53-1.55 3.04 1.49 1.48l2.52-1.29a.4.39-9.1 0 1 .58.41q-.16.96.83 1.18 1.28.28.55-.81-.49-.72.14-1.15.62-.44-.02-.88-.14-.1-.16-.32-.04-.55.49-.68.38-.09.7-.32.43-.3.26-.81-.19-.54-.57-1.02a.7.7 0 0 1 .04-.89q.21-.23.3-.54.19-.65-.47-.5-.81.19-1.45.75-.53.46-.65-.23c-.65-3.85 3.05-5.19 2.91-8.91q-.1-2.65 1.53-.56.82 1.05 1.83 1.74.53.36.62-.28.15-1.01.8-1.76.33-.4.83-.26 1.51.4 3.1-.76.47-.35.38-.93-.18-1.28-.92-2.3-.39-.54.08-1.02 1.26-1.28 1.99-2.94.27-.61.92-.48c2.64.52.85 4.1 4.09 5.11q.49.15.65.64.44 1.35-.43 2.47-.28.37.15.53 2.15.85.94 3.11a1 .97-44.3 0 0-.02.88q.34.69.93 1.2a.77.76 32.4 0 1 .2.88l-.18.42q-.25.58.24.97 1.91 1.51.41 3.4a.72.71-63.4 0 0 .37 1.14l2.65.73q.58.16.81-.39.4-.91 1.46-1.12.62-.11.29-.65-1.06-1.74-1.68-3.74-.12-.38.01-.74.21-.6.84-.75.57-.13.84-.63l.66-1.21q.26-.48.75-.25.78.36.89 1.31.08.7.7.37l2.21-1.16q.55-.29.75-.88l1.45-4.22a.47.46-57.2 0 1 .78-.17q1.09 1.15 1.2 3.01a.42.42 0 0 0 .73.26q.12-.13.29-.19.69-.25.84.47l2.19 10.12q.14.63.67.99.9.61 1.33 1.64.32.79.66.01l1.09-2.55a1.46 1.44-48.4 0 0-.07-1.28q-1.44-2.58 1.61-4.42a.31.31 0 0 1 .35.02l.29.23q.4.31.59-.16l.19-.42q.14-.34.46-.53l2.19-1.36q.44-.28.17-.72l-.31-.53q-.25-.43.03-.84.27-.4.72-.65.68-.38.86.38l.14.6a.4.4 0 0 0 .63.23l.28-.2q.6-.45.76.28.28 1.3 1.52 1.62a.41.4 23.5 0 1 .24.61q-.48.77.37 1.14a1.64 1.63 6.2 0 1 .94 1.16q.21 1.04.9 1.84 1.85 2.18 3.43.09a1.88 1.86-46.3 0 0-.04-2.31q-.78-.94-1.02-2.06-.13-.65.18-1.23.45-.81.12-1.67-.17-.44.25-.66 1.46-.75 1.89-2.58c.28-1.17-.46-2.2-.56-3.4q-.04-.52.35-.86 1.44-1.22 2.96-.7.38.14.77 0 .88-.32 1.49.47a.93.92-31.2 0 0 1.13.27q.68-.32 1.3.1.54.37.91-.16 1.78-2.51-.44-4.92-.58-.63-.38.2.17.69-.27 1.08a.42.42 0 0 1-.7-.29q-.08-1.39-.64-2.6-.18-.39.02-.78.55-1.05.44-2.2-.05-.63-.68-.65-.61-.03-.97-.46-.24-.29-.15-.66.87-3.8 3.11-6.02.45-.45.22-1.04-.26-.64.1-1.23.36-.61-.31-.82-.26-.09-.53-.02a.68.67-6.5 0 0-.5.62q-.06 1.15-1.17 1.63a.58.57 51.1 0 1-.57-.07l-.24-.19a.37.37 0 0 1 .04-.62q.3-.17.49-.45.42-.61-.31-.72c-2.53-.37-2.56-2.67-2.56-4.74q0-.18-.17-.24-.16-.07-.29.01-.22.11-.29.34-.34 1.08-.94 2.04-.16.27-.47.36-.19.06-.37-.02-.59-.26-.42-.88.07-.26-.02-.51-.21-.67-.62-.1-1.73 2.39-.93 4.51.22.58.01 1.16l-.49 1.33q-.22.58-.76.3l-1.59-.82a.95.95 0 0 1-.51-.92q.04-.68-.24-1.3-.2-.43-.63-.61l-2.68-1.14q-.46-.19-.21-.63 1.93-3.37.4-7.49-.17-.46-.61-.69l-.41-.21q-.49-.26-.57-.81-.16-1.19-.79-2.22-.23-.38.11-.67.12-.1.28-.11.52-.06.81-.49 1.23-1.84 3.51-2.5a1.4 1.36-83.6 0 0 .86-.71q.48-.97-.09-2.03a.63.62-20 0 0-.67-.31q-.34.07-.62-.1-.54-.32-.12-.79 1.01-1.13.02-2.26-.39-.45.12-.75.2-.12.43-.1.62.06.82-.53.82-2.42.82-4.46 0-2.32-1.94-2.41-.49-.03-.87-.35-.96-.83-1.51-1.95 3.24 1.53 6.42 3.18 3.51 1.82 5.25-1.26 1.85-3.26 2.75-4.29.24.58.53.77a.56.55-57.7 0 0 .77-.18q.11-.18.29-.3.57-.38.67.29l.13.91a.41.16 48.3 0 0 .04.11q.21.4.52.31.27-.09.28-.37l.07-1.84q.02-.6.6-.47.42.09.52.5a.24.24 0 0 0 .36.15l.33-.2q.09-.05.02-.13l-1.28-1.62c4.63-.39 7.79 3.03 12.87.68 4.3-1.99 9.55-2.38 14.37-1.88 1.96.2 3.94-.61 5.69-1.39a3.24 3.22 51.9 0 1 3.32.41q2.16 1.7 5.9 2.45"/><path fill="#6ad444" d="m178.54 69.86 1.28 1.62q.07.08-.02.13l-.33.2a.24.24 0 0 1-.36-.15q-.1-.41-.52-.5-.58-.13-.6.47l-.07 1.84q-.01.28-.28.37-.31.09-.52-.31a.41.16 48.3 0 1-.04-.11l-.13-.91q-.1-.67-.67-.29-.18.12-.29.3a.56.55-57.7 0 1-.77.18q-.29-.19-.53-.77 1.51-1.83 3.85-2.07M220.69 70.13l8.16 2.6.18 4.6q.03.64.64.45.14-.04.25-.16.39-.43.94-.25.39.13.52.52c.5 1.45-.96 2.52.16 4.48q.31.54-.3.59l-1.44.11q-.55.05-.75.57l-1.36 3.59q-.26.69-.49-.01l-1.45-4.54q-.21-.66-.7-.17-.23.25-.1.56a.5.49 59.2 0 1-.14.57q-.79.64-1.57.01-.42-.35-.97-.33-.23.01-.44.11-1.24.62-.83-.71.53-1.68.98-3.31.46-1.67-.95-2.38-.48-.24-.77-.69l-1.56-2.38q-.29-.44-.16-.94.49-2.04 2.15-2.89M241.21 72.04l-1.32 1.45q-.42.46-.71-.09-.26-.49-.37-1.41zM244.01 72.17q-.03.39-.51.37-.62-.02-.53-.44.53-.14 1.04.07M160.27 74.3q.55 1.12 1.51 1.95.38.32.87.35 1.94.09 1.94 2.41 0 2.04-.82 4.46-.2.59-.82.53-.23-.02-.43.1-.51.3-.12.75.99 1.13-.02 2.26-.42.47.12.79.28.17.62.1a.63.62-20 0 1 .67.31q.57 1.06.09 2.03a1.4 1.36-83.6 0 1-.86.71q-2.28.66-3.51 2.5-.29.43-.81.49-.16.01-.28.11-.34.29-.11.67.63 1.03.79 2.22.08.55.57.81l.41.21q.44.23.61.69 1.53 4.12-.4 7.49-.25.44.21.63l2.68 1.14q.43.18.63.61.28.62.24 1.3a.95.95 0 0 0 .51.92l1.59.82q.54.28.76-.3l.49-1.33q.21-.58-.01-1.16-.8-2.12.93-4.51.41-.57.62.1.09.25.02.51-.17.62.42.88.18.08.37.02.31-.09.47-.36.6-.96.94-2.04.07-.23.29-.34.13-.08.29-.01.17.06.17.24c0 2.07.03 4.37 2.56 4.74q.73.11.31.72-.19.28-.49.45a.37.37 0 0 0-.04.62l.24.19a.58.57 51.1 0 0 .57.07q1.11-.48 1.17-1.63a.68.67-6.5 0 1 .5-.62q.27-.07.53.02.67.21.31.82-.36.59-.1 1.23.23.59-.22 1.04-2.24 2.22-3.11 6.02-.09.37.15.66.36.43.97.46.63.02.68.65.11 1.15-.44 2.2-.2.39-.02.78.56 1.21.64 2.6a.42.42 0 0 0 .7.29q.44-.39.27-1.08-.2-.83.38-.2 2.22 2.41.44 4.92-.37.53-.91.16-.62-.42-1.3-.1a.93.92-31.2 0 1-1.13-.27q-.61-.79-1.49-.47-.39.14-.77 0-1.52-.52-2.96.7-.39.34-.35.86c.1 1.2.84 2.23.56 3.4q-.43 1.83-1.89 2.58-.42.22-.25.66.33.86-.12 1.67-.31.58-.18 1.23.24 1.12 1.02 2.06a1.88 1.86-46.3 0 1 .04 2.31q-1.58 2.09-3.43-.09-.69-.8-.9-1.84a1.64 1.63 6.2 0 0-.94-1.16q-.85-.37-.37-1.14a.41.4 23.5 0 0-.24-.61q-1.24-.32-1.52-1.62-.16-.73-.76-.28l-.28.2a.4.4 0 0 1-.63-.23l-.14-.6q-.18-.76-.86-.38-.45.25-.72.65-.28.41-.03.84l.31.53q.27.44-.17.72l-2.19 1.36q-.32.19-.46.53l-.19.42q-.19.47-.59.16l-.29-.23a.31.31 0 0 0-.35-.02q-3.05 1.84-1.61 4.42a1.46 1.44-48.4 0 1 .07 1.28l-1.09 2.55q-.34.78-.66-.01-.43-1.03-1.33-1.64-.53-.36-.67-.99l-2.19-10.12q-.15-.72-.84-.47-.17.06-.29.19a.42.42 0 0 1-.73-.26q-.11-1.86-1.2-3.01a.47.46-57.2 0 0-.78.17l-1.45 4.22q-.2.59-.75.88l-2.21 1.16q-.62.33-.7-.37-.11-.95-.89-1.31-.49-.23-.75.25l-.66 1.21q-.27.5-.84.63-.63.15-.84.75-.13.36-.01.74.62 2 1.68 3.74.33.54-.29.65-1.06.21-1.46 1.12-.23.55-.81.39l-2.65-.73a.72.71-63.4 0 1-.37-1.14q1.5-1.89-.41-3.4-.49-.39-.24-.97l.18-.42a.77.76 32.4 0 0-.2-.88q-.59-.51-.93-1.2a1 .97-44.3 0 1 .02-.88q1.21-2.26-.94-3.11-.43-.16-.15-.53.87-1.12.43-2.47-.16-.49-.65-.64c-3.24-1.01-1.45-4.59-4.09-5.11q-.65-.13-.92.48-.73 1.66-1.99 2.94-.47.48-.08 1.02.74 1.02.92 2.3.09.58-.38.93-1.59 1.16-3.1.76-.5-.14-.83.26-.65.75-.8 1.76-.09.64-.62.28-1.01-.69-1.83-1.74-1.63-2.09-1.53.56c.14 3.72-3.56 5.06-2.91 8.91q.12.69.65.23.64-.56 1.45-.75.66-.15.47.5-.09.31-.3.54a.7.7 0 0 0-.04.89q.38.48.57 1.02.17.51-.26.81-.32.23-.7.32-.53.13-.49.68.02.22.16.32.64.44.02.88-.63.43-.14 1.15.73 1.09-.55.81-.99-.22-.83-1.18a.4.39-9.1 0 0-.58-.41l-2.52 1.29q-3.04 1.56-1.49-1.48.36-.73.52-1.53.1-.54-.27-.96-1.45-1.65-3.31-.96-.44.17-.4-.31.08-.93.69-1.65.39-.46.13-.99l-1.07-2.17q-.24-.49-.68-.17l-.4.3q-.25.18-.5 0-.12-.1-.15-.25-.02-.17.06-.32.93-1.72.92-3.8 0-.54-.4-.89-1.46-1.32-3.13-.76-.57.19-.55-.41.05-1.41.8-2.64.28-.45.07-.93l-.82-1.92q-.27-.62-.87-.3-.85.45-1.55-.18a1.01 1 47.5 0 0-1.26-.06q-1.49 1.1-1.44 2.99.04 1.3-.92.42c-1.3-1.2-1.84-4.85-2-6.51q-.05-.51-.47-.81l-2.75-1.91q3.03-5.89 4.02-7.38 3.8-5.75 12.74-7.81 16.11-3.71 28.95-7.52 18.13-5.39 20.61-22.66a1.51 1.5-19 0 1 .41-.83q4.11-4.28 9.81-1.86m-51.28 64.25a.38.38 0 0 0-.38-.38.38.38 0 0 0-.38.38.38.38 0 0 0 .38.38.38.38 0 0 0 .38-.38M254.57 79.46q4.15 2.37 8.55 3.17 8.25 1.49 16.83 2.89c2.44.4 4.18 2.47 4.08 5.03-.27 6.95 1.16 13.48 8.75 15.58q.01 1.36.48 2.47.24.59.86.42.65-.18.97-.79.24-.45.75-.48l.91-.05.44.33q.14 2.02 1.23 4.03.25.46-.06.88-2.33 3.11-.87 7.55.26.78-.46 1.15-.53.26-.96-.14l-2.59-2.41a.87.86-66 0 0-1.45.56l-.14 1.64a.88.85-6.9 0 1-.6.74q-.89.28-1.56.8-1 .77-.15 1.7.97 1.08-.4 1.37a1.66 1.66 0 0 1-1.99-1.47l-.47-5.44a1.22 1.22 0 0 0-1.39-1.1q-1.32.18-1.46 1.3a.91.9 18 0 1-1.34.68l-1.44-.82q-.63-.35-.92.31-.36.83-.29 1.75.06.83-.69.47l-1.44-.68q-.5-.24-.34-.77c.93-3.1 2.31-6.86.4-9.82q-.32-.51-.89-.29l-1.09.44q-.46.18-.91 0-1.72-.68-2.94-1.81a.95.95 0 0 0-1.57.94q.2.78-.1 1.5-.59 1.37-1.22.02-.41-.88-1.26-1.07-.56-.12-.39-.67 1.09-3.58 1.98-7.53c.5-2.24.12-4.25-.61-6.39a.68.68 0 0 0-1.06-.31q-1.74 1.4-3.81.38-.45-.22-.91-.05l-.43.16a.48.47 79.4 0 1-.63-.44l-.03-2.43q-.02-.85-.69-.32-1.17.92-2.36.1-.48-.34-.97 0-.7.51-.82 1.28c-.12.8.95 2.07.89 3.3q-.05.83-.77.42l-.38-.21q-.63-.36-1.11.19-.55.65-1.13 1.34-.03.03-.06.01l-.18-.18q-.01 0-.01-.01-.33-.37.25-.75a.84.84 0 0 0 0-1.41l-1.73-1.12q-.48-.31-.32-.87.66-2.36.13-4.8-.08-.36.22-.58 1.65-1.17.61-3.16a.91.9 58.2 0 1 .27-1.16q1.69-1.19.79-5.37"/><path d="m296.75 107.7-.91.05q-.51.03-.75.48-.32.61-.97.79-.62.17-.86-.42-.47-1.11-.48-2.47z"/><path fill="#6ad444" d="M81.74 125.68q.59.01.78.37.13.26-.05.73-1.25 3.1-2.92 5.32-.28.37-.07.79.6 1.17.45 2.54-.27 2.48 1.55.78.46-.43 1.03-.21.4.15.43.58c.15 2.41.04 5.29-2.22 6.61q-.45.27-.67.75l-.69 1.58c-1.74-4.05-1.65-6.55-1.54-11.32q.06-2.24 1.17-4.12 1.32-2.24 2.75-4.4"/><circle cx="108.61" cy="138.55" r=".38"/><path fill="#6ad444" d="M289.02 255.59q.03 1.72.04 3.56c.01 2.93.82 5.68.93 8.61.06 1.88-1.39 3.63-2.91 4.46q-10.4 5.63-18.63 11.25c-15.67 10.7-30.1 19.83-47.16 26.06q-.04-.89.36-1.68.22-.41-.07-.79-.48-.63-1.24-.78a.42.41 12.9 0 0-.48.29q-.07.25-.28.23-.52-.06-.64-.56-.86-3.63.49-7.06.1-.27.38-.29l.26-.01q.93-.06.32-.77-.89-1.05.13-2.18.63-.69-.29-.86-1.58-.31-1.3-2.09.1-.68.75-.88 2.43-.78 3.8-2.74.23-.33.63-.37.2-.02.37-.12.51-.31.15-.79-.63-.86-.73-1.92-.06-.56-.54-.86l-.54-.33q-.44-.28-.61-.77-1.31-3.77.21-6.98.55-1.17-.7-1.44-2.73-.58-2.84-2.86a.57.56-72.2 0 0-.21-.42l-.83-.65a1.52 1.51 8.3 0 0-2.35 1.75q1.02 2.53-.72 4.8-.59.78-.65-.19l-.03-.45q-.07-.9-.84-.42-.77.47-1.11 1.52-.67 2.04-1-.08c-.28-1.85-.28-3.43-2.56-3.86a.46.46 0 0 1-.35-.6q.08-.25.28-.43.47-.43-.03-.82-.26-.2-.6-.15-.67.11-.86.76l-.22.73q-.19.62-.84.7-.25.03-.5-.06a.42.41 30.1 0 1-.18-.67q.6-.68.24-1.46-.22-.47.14-.84 2.32-2.37 3.17-6.18.13-.56-.42-.76-2.05-.74-1.05-2.88.34-.73-.05-1.43-.55-1.01-.43-2.25a.39.39 0 0 0-.16-.35q-.24-.17-.43-.09-.26.11-.29.41-.03.43.01.83.02.18-.12.3-.15.14-.35.03-.18-.1-.29-.28l-1.23-2.14 1.34-2.91 7.21.95a1.3 1.3 0 0 0 1.42-1.63l-.68-2.4q-.13-.47.08-.92l.99-2.12q.16-.35.54-.39l.31-.03q.32-.03.35-.35.04-.25-.1-.47-.31-.48-.04-.99.92-1.79-.31-3.43-1.13-1.49.14-3.3.1-.15.25-.21 1.42-.54 2.49.54.9.91 1.21 2.24.16.68.68 1.13.53.46.46 1.11-.05.5.4.71.95.44 1.4 1.39.34.7.92.19.17-.15.52.04.25.14.28.42l.05.43a.57.56 1.3 0 0 .49.51q.61.08.89-.45.44-.83.02-1.67-.27-.55.26-.87l1.95-1.14q.47-.28.63-.8l.11-.32q.13-.42.48-.15.71.53 1.31-.02c1.11-1 2.32-1.72 1.42-3.35-.87-1.59-.1-3.22.72-4.61q.46-.75.72.09.29.95 1.11 1.45a1.66 1.66 0 0 1 .74 1.05l2.3 10.25q.19.82.84.29l.35-.29q.59-.49.56.27-.07 1.85 1.22 3.17.64.66.91-.22l1.25-4.13q.17-.58.71-.85l2.41-1.22q.58-.29.59.35.01.66.42 1.19.35.45.89.26.68-.23.71-1 .03-.63.6-.91l.97-.49a1.11 1.11 0 0 0 .52-1.46l-1.52-3.28q-.32-.69.4-.93 1.02-.33 1.31-1.36.16-.53.64-.26 1.11.64 2.35.76a.89.88 22.1 0 1 .61 1.43q-1.37 1.7.28 3.05.72.59.39 1.45-.18.47.1.9l.61.93a1.56 1.56 0 0 1 .14 1.41q-.9 2.3 1.01 2.96.49.17.18.59-.73 1.01-.52 2.2.09.51.56.74l1.15.57q.56.28.79.87l1.19 3.12a1.14 1.14 0 0 0 2.12.04q.61-1.42 1.76-2.55.62-.6.18-1.35-.61-1.02-.82-2.26-.1-.57.34-.92 1.53-1.24 3.21-.76a.64.63 30 0 0 .62-.16q.76-.76 1.07-1.79.24-.79.81-.19l1.97 2.08q1.06 1.11 1-.42-.13-3.22 2.07-5.53c1.02-1.07 1.07-2.61.87-3.97a.46.46 0 0 0-.8-.24q-.64.71-1.54.62-.72-.08-.22-.6.87-.9-.04-1.73-.4-.37-.21-.88.26-.68 1.03-.69.56 0 .62-.55.02-.22-.14-.29-1.03-.39-.21-1.11.69-.6.02-1.28-.71-.73.31-.82.7-.07 1.19.56a.6.59 37 0 1 .09.61q-.12.3.05.45.22.2.5.07l2.9-1.41q1.86-.91 1.25 1.07l-.71 2.32q-.2.67.39 1.04 1.7 1.1 3.17.66a.4.4 0 0 1 .5.5q-.21.68-.72 1.31-.43.52-.15 1.14l.95 2.07q.33.72.81.1.29-.36.73-.3a.41.41 0 0 1 .29.63q-1.18 1.9-1.01 4.03.04.45.39.74 1.53 1.26 3.12.78.56-.16.54.42-.04 1.53-.74 2.76a.89.86-45.3 0 0-.01.85zm-14.74-11.24q-.03.16.1.23a.15.14 15.7 0 0 .22-.12q0-.19-.19-.21-.11-.01-.13.1"/><path d="M274.41 244.25q.19.02.19.21a.15.14 15.7 0 1-.22.12q-.13-.07-.1-.23.02-.11.13-.1M204.02 257.29l1.23 2.14q.11.18.29.28.2.11.35-.03.14-.12.12-.3-.04-.4-.01-.83.03-.3.29-.41.19-.08.43.09a.39.39 0 0 1 .16.35q-.12 1.24.43 2.25.39.7.05 1.43-1 2.14 1.05 2.88.55.2.42.76-.85 3.81-3.17 6.18-.36.37-.14.84.36.78-.24 1.46a.42.41 30.1 0 0 .18.67q.25.09.5.06.65-.08.84-.7l.22-.73q.19-.65.86-.76.34-.05.6.15.5.39.03.82-.2.18-.28.43a.46.46 0 0 0 .35.6c2.28.43 2.28 2.01 2.56 3.86q.33 2.12 1 .08.34-1.05 1.11-1.52.77-.48.84.42l.03.45q.06.97.65.19 1.74-2.27.72-4.8a1.52 1.51 8.3 0 1 2.35-1.75l.83.65a.57.56-72.2 0 1 .21.42q.11 2.28 2.84 2.86 1.25.27.7 1.44-1.52 3.21-.21 6.98.17.49.61.77l.54.33q.48.3.54.86.1 1.06.73 1.92.36.48-.15.79-.17.1-.37.12-.4.04-.63.37-1.37 1.96-3.8 2.74-.65.2-.75.88-.28 1.78 1.3 2.09.92.17.29.86-1.02 1.13-.13 2.18.61.71-.32.77l-.26.01q-.28.02-.38.29-1.35 3.43-.49 7.06.12.5.64.56.21.02.28-.23a.42.41 12.9 0 1 .48-.29q.76.15 1.24.78.29.38.07.79-.4.79-.36 1.68l-11.28 3.44q-.25-.78-1.23-1.02-.53-.12-.72-.63l-.29-.81q-.2-.55-.67-.19l-.34.26a.49.49 0 0 1-.79-.39v-.66q0-.26-.25-.29l-.37-.04q-.23-.03-.25.2l-.14 1.58q-.04.46-.38.78-.98.92-.36 2.19.21.44.68.3 1.09-.33 1.67.53l-12.58.06q-.51 0-.79-.42c-2.07-3.12-4.07-6.11-2.87-9.96q5.7-18.25 7.55-35.44.3-2.7 1.68-5.18 1.93-3.44 4.46-6.55m-.36 54.17q-.05-.19-.25-.14-.15.05-.11.21.09.26.36.34a.25.25 0 0 0 .3-.17q.1-.35-.22-.2a.06.06 0 0 1-.08-.04"/><path fill="#6ad444" d="m210.01 312.97-3.44 1.81q-.58-.86-1.67-.53-.47.14-.68-.3-.62-1.27.36-2.19.34-.32.38-.78l.14-1.58q.02-.23.25-.2l.37.04q.25.03.25.29v.66a.49.49 0 0 0 .79.39l.34-.26q.47-.36.67.19l.29.81q.19.51.72.63.98.24 1.23 1.02M203.74 311.5q.32-.15.22.2a.25.25 0 0 1-.3.17q-.27-.08-.36-.34-.04-.16.11-.21.2-.05.25.14a.06.06 0 0 0 .08.04"/></svg>