<svg xmlns="http://www.w3.org/2000/svg" viewBox="0 0 382 382"><defs><clipPath id="a"><path d="M206.44 314.67h-12.95c-1.21-2.51-3.68-5.19-3.38-7.49.75-5.57 2.98-10.93 4.26-16.45 1.32-5.69 2.27-11.47 3.26-17.23.45-2.59 0-5.5 1.03-7.79 1.44-3.23 4.06-5.91 5.79-9.04.92-1.65 1.56-3.78 1.43-5.63-.52-7.52-1.58-15.01-2.06-22.53-.5-7.85-4.73-14.92-12.25-16.61-7.27-1.63-14.94-2.3-22.38-1.99-5.67.24-10.44-.05-14.85-3.97-4.27-3.81-9.03-7.07-13.42-10.76-10.97-9.21-23.3-14.58-37.79-15.62-13.59-.97-23.89-11.32-22.18-27.83.35-3.39-1.96-7.06-3.05-10.6v-8.98c2.87-4.82 6.05-9.49 8.52-14.51 2.88-5.83 7.45-8.74 13.57-10.16 9.19-2.13 18.35-4.43 27.43-6.98 11.92-3.35 20.95-9.71 22.65-23.23.12-.97 1.37-2.05 2.36-2.6 5.11-2.85 9.16.46 13.25 2.7 3.34 1.83 5.3 1.31 7.01-2.2 2.7-5.54 6.16-6.44 11.54-4.15 1.78.76 4.49 1 6.09.17 5.44-2.82 11-2.87 16.83-2.25 1.35.14 2.85-1.04 4.28-1.61h2.99c.54.52.99 1.31 1.63 1.51 5.05 1.63 10.13 3.21 15.24 4.64.82.23 1.86-.51 2.81-.58 3.67-.27 7.73-1.53 10.93-.39 3.66 1.3 6.42 4.96 9.83 7.21 2.03 1.34 4.48 2.32 6.87 2.81 5.88 1.22 11.85 2.03 17.76 3.08 3.22.57 4.62 2.39 4.46 5.87-.12 2.71.25 5.59 1.09 8.16 2.07 6.3 8.55 6.38 13.31 8.91 1.21.64 3.07 1.46 3.22 2.42.65 4.02 1.13 8.15.98 12.21-.15 4.04-1.57 8.05-1.56 12.07 0 1.96 2.01 3.91 3.1 5.87v22.94c-.77 4.18-1.59 8.36-2.3 12.55-1.89 11.1-3.76 22.2-5.6 33.31-1.17 7.08-2.2 14.17-3.41 21.24-.71 4.18-1.82 8.29-2.44 12.48-.7 4.73-1.27 9.5-1.46 14.27-.12 2.91.57 5.85.94 8.77.33 2.58-.56 4.1-3.01 5.47-6.85 3.82-13.69 7.76-20.12 12.23-17.42 12.11-35.35 23.07-56.19 28.34-1.42.36-2.71 1.27-4.06 1.93z"/></clipPath></defs><g clip-path="url(#a)"><svg xmlns="http://www.w3.org/2000/svg" width="382" height="382" style="shape-rendering:geometricPrecision"><path fill="#1888dd" stroke="#1888dd" d="m70.071 185.4-37.783-4.552 1.203-2.785 63.603-73.681 3.02 41.175zM208.172 382l6.504-108.592 16.276-5.917 74.718 20.929L382 352.514V382z"/><path fill="#90ddb0" stroke="#90ddb0" d="m126.725 89.68-19.016 1.395-3.574-45.3 10.97-19.912L123.9 24.1l4.115 6.916z"/><path fill="#1888dd" stroke="#1888dd" d="M108.684 227.352 92.71 259.938l-44.276 20.677L0 281.078v-91.594l32.288-8.636 37.783 4.552 39.116 28.3z"/><path fill="#90ddb0" stroke="#90ddb0" d="m175.411 50.984-29.554 42.77-19.132-4.074 1.289-58.663zM109.052 278.362l54.34-2.443-26.774 56.566-17.725-13.37z"/><path fill="#1888dd" stroke="#1888dd" d="m97.094 104.382-63.603 73.681L63.91 83.784l33.97 10.618zM193.842 263.698l-15.96-56.286 40.765-45.58 27.372 60.73-15.067 44.929-16.276 5.917z"/><path fill="#90ddb0" stroke="#90ddb0" d="M204.184 136.197 217.706 18.52l12.55-16.964 1.536 1.76 62.302 92.246-12.555 36.336-59.818 18.524z"/><path fill="#1888dd" stroke="#1888dd" d="m108.684 227.352 58.288 44.864-3.58 3.703-54.34 2.443-16.342-18.424zM281.54 131.898l12.554-36.336 14.146-5.727L382 102.337v58.367l-37.935 13.015-40.306-13.817zM0 382V281.078l48.434-.463 37.857 37.203-14.505 31.234L35.993 382zM352.192 0l-7.803 29.497-112.597-26.18-1.536-1.761L230.111 0zM167.829 124.087l-21.972-30.333 29.554-42.77 42.295-32.464-13.522 117.677zM294.18 220.408l56.47 1.438L382 291.77v60.744l-76.33-64.094z"/><path fill="#90ddb0" stroke="#90ddb0" d="m35.993 382 35.793-32.948 69.333-4.162L163.01 382z"/><path fill="#1888dd" stroke="#1888dd" d="m382 291.77-31.35-69.924-6.585-48.127L382 160.704z"/><path fill="#90ddb0" stroke="#90ddb0" d="M97.88 94.402 63.91 83.784l-16.6-14.297 10.35-37.43 46.475 13.718 3.574 45.3z"/><path fill="#1888dd" stroke="#1888dd" d="m136.64 0-12.741 24.1-8.794 1.763L60.36 7.707 58.41 0z"/><path fill="#90ddb0" stroke="#90ddb0" d="M0 0h58.408l1.951 7.707-2.698 24.35-10.352 37.43L0 77.71z"/><path fill="#1888dd" stroke="#1888dd" d="m290.538 213.292 13.22-53.39 40.307 13.817 6.584 48.127-56.468-1.438z"/><path fill="#90ddb0" stroke="#90ddb0" d="m145.385 202.505 19.87-75.672 2.574-2.746 36.355 12.11 17.537 14.225-3.074 11.41-40.765 45.58z"/><path fill="#1888dd" stroke="#1888dd" d="m246.02 222.561 44.518-9.27 3.643 7.117 11.489 68.012-74.718-20.93z"/><path fill="#90ddb0" stroke="#90ddb0" d="m382 102.337-73.76-12.502L344.76 36.27 382 53.278zM145.385 202.505l32.497 4.907 15.96 56.286-26.87 8.518-58.288-44.864.503-13.651 20.098-10.107z"/><path fill="#1888dd" stroke="#1888dd" d="m145.385 202.505-16.1 1.089 2.352-51.638 33.619-25.123zM129.285 203.594 109.187 213.7 70.07 185.4l30.043-39.844 31.523 6.4zM193.842 263.698l20.834 9.71L208.172 382H163.01l-21.89-37.11-4.501-12.405 26.774-56.566 3.58-3.703zM175.411 50.984l-47.397-19.967-4.115-6.916L136.639 0h93.472l.145 1.556-12.55 16.964z"/><path fill="#90ddb0" stroke="#90ddb0" d="m246.02 222.561-27.373-60.729 3.074-11.41 59.818-18.524 22.22 28.004-13.221 53.39z"/><path fill="#1888dd" stroke="#1888dd" d="m165.256 126.833-33.62 25.123-31.522-6.399-3.02-41.175.787-9.98 9.828-3.327 19.016-1.395 19.132 4.074 21.972 30.333z"/><path fill="#90ddb0" stroke="#90ddb0" d="M382 0v53.278l-37.241-17.01-.37-6.771L352.192 0z"/><path fill="#1888dd" stroke="#1888dd" d="m109.052 278.362 9.841 40.753-32.602-1.297-37.857-37.203 44.276-20.677z"/><path fill="#90ddb0" stroke="#90ddb0" d="m115.105 25.863-10.97 19.912L57.66 32.057l2.698-24.35z"/><path fill="#1888dd" stroke="#1888dd" d="M294.094 95.562 231.792 3.317l112.597 26.18.37 6.772-36.519 53.566zM136.618 332.485l4.501 12.405-69.333 4.162 14.505-31.234 32.602 1.297zM32.288 180.848 0 189.484V77.709l47.31-8.222 16.6 14.297-30.42 94.28z"/></svg></g></svg>