<svg xmlns="http://www.w3.org/2000/svg" viewBox="0 0 382 382"><defs><clipPath id="a"><path d="M206.44 314.67h-12.95c-1.21-2.51-3.68-5.19-3.38-7.49.75-5.57 2.98-10.93 4.26-16.45 1.32-5.69 2.27-11.47 3.26-17.23.45-2.59 0-5.5 1.03-7.79 1.44-3.23 4.06-5.91 5.79-9.04.92-1.65 1.56-3.78 1.43-5.63-.52-7.52-1.58-15.01-2.06-22.53-.5-7.85-4.73-14.92-12.25-16.61-7.27-1.63-14.94-2.3-22.38-1.99-5.67.24-10.44-.05-14.85-3.97-4.27-3.81-9.03-7.07-13.42-10.76-10.97-9.21-23.3-14.58-37.79-15.62-13.59-.97-23.89-11.32-22.18-27.83.35-3.39-1.96-7.06-3.05-10.6v-8.98c2.87-4.82 6.05-9.49 8.52-14.51 2.88-5.83 7.45-8.74 13.57-10.16 9.19-2.13 18.35-4.43 27.43-6.98 11.92-3.35 20.95-9.71 22.65-23.23.12-.97 1.37-2.05 2.36-2.6 5.11-2.85 9.16.46 13.25 2.7 3.34 1.83 5.3 1.31 7.01-2.2 2.7-5.54 6.16-6.44 11.54-4.15 1.78.76 4.49 1 6.09.17 5.44-2.82 11-2.87 16.83-2.25 1.35.14 2.85-1.04 4.28-1.61h2.99c.54.52.99 1.31 1.63 1.51 5.05 1.63 10.13 3.21 15.24 4.64.82.23 1.86-.51 2.81-.58 3.67-.27 7.73-1.53 10.93-.39 3.66 1.3 6.42 4.96 9.83 7.21 2.03 1.34 4.48 2.32 6.87 2.81 5.88 1.22 11.85 2.03 17.76 3.08 3.22.57 4.62 2.39 4.46 5.87-.12 2.71.25 5.59 1.09 8.16 2.07 6.3 8.55 6.38 13.31 8.91 1.21.64 3.07 1.46 3.22 2.42.65 4.02 1.13 8.15.98 12.21-.15 4.04-1.57 8.05-1.56 12.07 0 1.96 2.01 3.91 3.1 5.87v22.94c-.77 4.18-1.59 8.36-2.3 12.55-1.89 11.1-3.76 22.2-5.6 33.31-1.17 7.08-2.2 14.17-3.41 21.24-.71 4.18-1.82 8.29-2.44 12.48-.7 4.73-1.27 9.5-1.46 14.27-.12 2.91.57 5.85.94 8.77.33 2.58-.56 4.1-3.01 5.47-6.85 3.82-13.69 7.76-20.12 12.23-17.42 12.11-35.35 23.07-56.19 28.34-1.42.36-2.71 1.27-4.06 1.93z"/></clipPath></defs><g clip-path="url(#a)"><svg xmlns="http://www.w3.org/2000/svg" width="382" height="382" style="shape-rendering:geometricPrecision"><path fill="#e1da83" stroke="#e1da83" d="m295.591 170.008 19.555-13.444 28.23-2.112 11.741 19.446-26.613 33.75-28.698 8.22-9.76-4.827z"/><path fill="#e1da83" stroke="#e1da83" d="m299.806 215.868 28.698-8.22L382 240.858v75.124l-73.904-69.361zM227.715 168.318l12.7 45.61-18.917 21.697-87.915-27.57-2.579-1.544-1.653-2.15 33.26-49.983 7.475-9.708z"/><path fill="#fea297" stroke="#fea297" d="m221.748 382-45.162-35.445 45.763 1.4L237.394 382z"/><path fill="#e1da83" stroke="#e1da83" d="m193.633 277.06 22.633-7.652-11.75 48.366-43.069 22.81-34.52 3.877 2.129-22.121 57.532-42.157zM261.5 125.247l-4.836-49.508L290.636 0h21.73l-2.738 33.914-38.039 90.938z"/><path fill="#fea297" stroke="#fea297" d="m250.296 128.632-32.342-30.917 38.71-21.976 4.836 49.508z"/><path fill="#e1da83" stroke="#e1da83" d="M295.92 308.928 382 330.471v32.864l-115.392-7.1 3.477-47.765z"/><path fill="#fea297" stroke="#fea297" d="m221.498 235.625-1.03 29.566-4.202 4.217-22.633 7.653-44.88-24.42-15.17-44.586z"/><path fill="#e1da83" stroke="#e1da83" d="m243.62 382 22.988-25.764L382 363.335V382z"/><path fill="#fea297" stroke="#fea297" d="m382 173.402-26.883.496-11.741-19.446-.48-30.693 18.735-9.134L382 113.481z"/><path fill="#e1da83" stroke="#e1da83" d="m109.419 83.632-28.073 43.719-4.291 3.05-16.896-45.795 22.13-19.328z"/><path fill="#fea297" stroke="#fea297" d="m315.146 156.564-5.98-33.508 16.005-7.416 17.726 8.119.479 30.693zM121.233 0l8.238 73.233-20.052 10.4-27.13-18.355L68.674 0z"/><path fill="#e1da83" stroke="#e1da83" d="m104.142 382 22.785-37.54 34.52-3.876 15.139 5.971L221.748 382z"/><path fill="#fea297" stroke="#fea297" d="m0 39.277 60.16 45.33 16.895 45.795-21.806 38.095L0 163.523z"/><path fill="#e1da83" stroke="#e1da83" d="m221.516 342.092.833 5.863-45.763-1.4-15.139-5.97 43.069-22.811z"/><path fill="#fea297" stroke="#fea297" d="m271.59 124.852 38.038-90.938 15.543 81.726-16.004 7.416-33.626 3.797z"/><path fill="#e1da83" stroke="#e1da83" d="M382 0v113.481l-20.37 1.144L320.74 0zM283.34 0l-79.822 89.713-18.166-.447L185.686 0z"/><path fill="#fea297" stroke="#fea297" d="m221.516 342.092 39.547-42.162 9.022 8.54-3.477 47.766L243.621 382h-6.227l-15.045-34.045z"/><path fill="#e1da83" stroke="#e1da83" d="m382 240.858-53.496-33.21 26.613-33.75 26.883-.496z"/><path fill="#fea297" stroke="#fea297" d="m148.753 252.64 44.88 24.42-7.045 3.123-35.917-14.534z"/><path fill="#e1da83" stroke="#e1da83" d="m227.715 168.318 22.581-39.686 11.204-3.385 10.09-.395 3.95 2.001 20.051 43.155-5.544 41.033-49.632 2.886z"/><path fill="#fea297" stroke="#fea297" d="m76.67 196.365 11.938 81.945-41.345 3.515-4.894-11.417zM162.61 154.378l-33.259 49.983-51.275-13.054-22.827-22.81 21.806-38.095 4.29-3.051 9.447-.363z"/><path fill="#fea297" stroke="#fea297" d="m167.257 118.352-76.465 8.636-9.446.363 28.073-43.719 20.052-10.399 42.222 25.455zM129.056 322.34l-2.13 22.12L104.143 382h-75.97l19.09-100.175 41.346-3.515 22.407 8.59 16.446 30.29z"/><path fill="#e1da83" stroke="#e1da83" d="m0 254.511 42.37 15.897 4.893 11.417L28.172 382H0zM150.67 265.65l35.918 14.533-57.532 42.157-1.595-5.15zM290.047 211.041l9.759 4.827 8.29 30.753-1.33 2.067-47.27 48.682-39.028-32.18 1.03-29.565 18.917-21.698z"/><path fill="#fea297" stroke="#fea297" d="m76.67 196.365-34.3 74.043L0 254.511v-90.988l55.249 4.974 22.827 22.81z"/><path fill="#e1da83" stroke="#e1da83" d="m185.686 0-.334 89.266-13.66 9.422-42.221-25.455L121.233 0z"/><path fill="#fea297" stroke="#fea297" d="M0 0h68.674L82.29 65.278l-22.13 19.328L0 39.277zM295.591 170.008l-20.05-43.155 33.626-3.797 5.979 33.508zM167.257 118.352l2.829 26.318-7.476 9.708-71.818-27.39zM308.096 246.62 382 315.983v14.489l-86.08-21.543 10.846-60.24z"/><path fill="#fea297" stroke="#fea297" d="m227.715 168.318-57.63-23.648-2.828-26.318 4.436-19.664 13.659-9.422 18.166.447 14.436 8.002 32.342 30.917zM325.171 115.64l-15.543-81.726L312.366 0h8.375l40.89 114.625-18.734 9.134zM220.468 265.19l39.028 32.18 1.567 2.56-39.547 42.162-17-24.318 11.75-48.366zM133.583 208.055l15.17 44.585 1.918 13.01-23.21 51.54-16.446-30.29 19.989-80.39zM131.004 206.51l-19.989 80.39-22.407-8.59-11.939-81.945 1.407-5.058 51.275 13.054z"/><path fill="#e1da83" stroke="#e1da83" d="m217.954 97.715-14.436-8.002L283.34 0h7.295l-33.972 75.739z"/><path fill="#fea297" stroke="#fea297" d="m259.496 297.37 47.27-48.682-10.846 60.24-25.835-.458-9.022-8.54z"/></svg></g></svg>