<svg xmlns="http://www.w3.org/2000/svg" viewBox="0 0 382 382"><defs><clipPath id="a"><path d="M206.44 314.67h-12.95c-1.21-2.51-3.68-5.19-3.38-7.49.75-5.57 2.98-10.93 4.26-16.45 1.32-5.69 2.27-11.47 3.26-17.23.45-2.59 0-5.5 1.03-7.79 1.44-3.23 4.06-5.91 5.79-9.04.92-1.65 1.56-3.78 1.43-5.63-.52-7.52-1.58-15.01-2.06-22.53-.5-7.85-4.73-14.92-12.25-16.61-7.27-1.63-14.94-2.3-22.38-1.99-5.67.24-10.44-.05-14.85-3.97-4.27-3.81-9.03-7.07-13.42-10.76-10.97-9.21-23.3-14.58-37.79-15.62-13.59-.97-23.89-11.32-22.18-27.83.35-3.39-1.96-7.06-3.05-10.6v-8.98c2.87-4.82 6.05-9.49 8.52-14.51 2.88-5.83 7.45-8.74 13.57-10.16 9.19-2.13 18.35-4.43 27.43-6.98 11.92-3.35 20.95-9.71 22.65-23.23.12-.97 1.37-2.05 2.36-2.6 5.11-2.85 9.16.46 13.25 2.7 3.34 1.83 5.3 1.31 7.01-2.2 2.7-5.54 6.16-6.44 11.54-4.15 1.78.76 4.49 1 6.09.17 5.44-2.82 11-2.87 16.83-2.25 1.35.14 2.85-1.04 4.28-1.61h2.99c.54.52.99 1.31 1.63 1.51 5.05 1.63 10.13 3.21 15.24 4.64.82.23 1.86-.51 2.81-.58 3.67-.27 7.73-1.53 10.93-.39 3.66 1.3 6.42 4.96 9.83 7.21 2.03 1.34 4.48 2.32 6.87 2.81 5.88 1.22 11.85 2.03 17.76 3.08 3.22.57 4.62 2.39 4.46 5.87-.12 2.71.25 5.59 1.09 8.16 2.07 6.3 8.55 6.38 13.31 8.91 1.21.64 3.07 1.46 3.22 2.42.65 4.02 1.13 8.15.98 12.21-.15 4.04-1.57 8.05-1.56 12.07 0 1.96 2.01 3.91 3.1 5.87v22.94c-.77 4.18-1.59 8.36-2.3 12.55-1.89 11.1-3.76 22.2-5.6 33.31-1.17 7.08-2.2 14.17-3.41 21.24-.71 4.18-1.82 8.29-2.44 12.48-.7 4.73-1.27 9.5-1.46 14.27-.12 2.91.57 5.85.94 8.77.33 2.58-.56 4.1-3.01 5.47-6.85 3.82-13.69 7.76-20.12 12.23-17.42 12.11-35.35 23.07-56.19 28.34-1.42.36-2.71 1.27-4.06 1.93z"/></clipPath></defs><g clip-path="url(#a)"><svg xmlns="http://www.w3.org/2000/svg" width="382" height="382" style="shape-rendering:geometricPrecision"><path fill="#be0b70" stroke="#be0b70" d="m283.417 148.116 3.184-2.445 1.176 43.921-11.7 9.054-15.268-16.96zM0 382v-33.067l66.047-2.95L81.32 382zM202.393 0l21.348 70.165-66.959-.391-4.026-4.019L181.885 0z"/><path fill="#0c0e75" stroke="#0c0e75" d="M207.299 201.498 162.5 145.5l3.617-7.749 48.622-8.791 14.457 26.325-6.384 43.535z"/><path fill="#be0b70" stroke="#be0b70" d="m324.625 192.141-5.063-23.514L382 151.54v86.762l-18.583-1.055-28.192-19.899z"/><path fill="#0c0e75" stroke="#0c0e75" d="m227.966 71.827 8-71.827h50.53l3.325 47.947-17.67 36.077-20.713 1.073z"/><path fill="#be0b70" stroke="#be0b70" d="m293.49 138.268 1.142-17.09 61.79 1.064L382 147.002v4.538l-62.438 17.087z"/><path fill="#0c0e75" stroke="#0c0e75" d="M124.3 208.325 61.257 275.61l-14.03-8.408-4.259-102.875 34.426-11.293 40.71 19.203zM0 8.278l108.183 67.018-12.609 28.209-13.558 21.66L0 28.448z"/><path fill="#be0b70" stroke="#be0b70" d="m382 96.06-18.488-.29-5.194-16.53 4.066-26.724L382 38.791z"/><path fill="#0c0e75" stroke="#0c0e75" d="m222.812 198.82 6.384-43.534 54.221-7.17-22.608 33.57-36.599 17.604zM181.885 0l-29.13 65.755-8.859-1.567L108.526 0z"/><path fill="#be0b70" stroke="#be0b70" d="m0 267.539 47.227-.337 14.03 8.408 6.687 11.003-1.897 59.37L0 348.932zM207.299 201.498l15.513-2.677 1.398.47 37.608 41.981-2.928 46.037-41.903 29.655-2.494-1.163-1.35-1.363-20.1-95.74zM283.417 148.116l-54.221 7.17-14.457-26.325 36.7-43.864 20.712-1.073 16.93 24.555 5.55 12.6-1.14 17.09-6.89 7.402zM382 147.002l-25.578-24.76 7.09-26.473 18.488.29z"/><path fill="#0c0e75" stroke="#0c0e75" d="m285.103 223.56 50.122-6.212 28.192 19.9-66.375 54.073-38.152-4.012 2.928-46.037 20.186-16.849zM0 28.447l82.016 96.719-4.622 27.868-34.426 11.293L0 149.46z"/><path fill="#be0b70" stroke="#be0b70" d="m0 149.46 42.968 14.867 4.26 102.875L0 267.539zM382 359.665l-26.135-12.85-36.47-26.894-22.353-28.6 66.375-54.074L382 238.302z"/><path fill="#0c0e75" stroke="#0c0e75" d="m207.299 201.498-14.256 17.2-43.755 6.354-24.988-16.727-6.196-36.088L162.5 145.5zM285.103 223.56l7.374-30.278 32.148-1.14 10.6 25.206zM285.103 223.56l-3.1.863-5.926-25.777 11.7-9.054 4.7 3.69z"/><path fill="#be0b70" stroke="#be0b70" d="M382 382H248.141l29.767-17.118 77.957-18.066L382 359.665zM223.74 70.165 202.394 0h33.573l-8 71.827z"/><path fill="#0c0e75" stroke="#0c0e75" d="m286.601 145.67 6.89-7.402 26.07 30.359 5.064 23.514-32.148 1.14-4.7-3.689z"/><path fill="#be0b70" stroke="#be0b70" d="M382 0v38.791l-19.616 13.725-72.563-4.569L286.495 0z"/><path fill="#0c0e75" stroke="#0c0e75" d="m162.5 145.501-44.396 26.736-40.71-19.203 4.622-27.868 13.558-21.661 69.58 30.015.963 4.232zM356.422 122.242l-61.79-1.064-5.552-12.599 69.238-29.34 5.194 16.53zM122.067 289.782l15.405 63.164L105.113 382H81.32l-15.273-36.018 1.897-59.37zM277.908 364.882l41.487-44.96 36.47 26.894z"/><path fill="#be0b70" stroke="#be0b70" d="m214.74 128.96-48.623 8.792-.963-4.232-8.372-63.746 66.959.391 4.225 1.662 23.472 13.27zM165.154 133.52l-69.58-30.015 12.61-28.209 35.712-11.108 8.86 1.567 4.026 4.019zM213.144 314.438l1.349 1.363-77.021 37.145-15.405-63.164 30.6-5.18z"/><path fill="#0c0e75" stroke="#0c0e75" d="m193.043 218.698 20.1 95.74-60.476-29.836-3.379-59.55z"/><path fill="#0c0e75" stroke="#0c0e75" d="m149.288 225.052 3.38 59.55-30.601 5.18-54.123-3.17-6.687-11.002 63.043-67.285zM272.151 84.024l17.67-36.077 72.563 4.57-4.066 26.723-69.238 29.339z"/><path fill="#be0b70" stroke="#be0b70" d="m224.21 199.29 36.6-17.603 15.267 16.959 5.927 25.777-20.186 16.85z"/><path fill="#0c0e75" stroke="#0c0e75" d="m108.527 0 35.37 64.188-35.714 11.108L0 8.278V0z"/><path fill="#be0b70" stroke="#be0b70" d="m258.89 287.31 38.152 4.011 22.353 28.6-41.487 44.96L248.14 382h-14.46l-16.694-65.036z"/><path fill="#be0b70" stroke="#be0b70" d="m105.113 382 32.359-29.054 77.02-37.145 2.495 1.163L233.68 382z"/></svg></g></svg>