<svg xmlns="http://www.w3.org/2000/svg" viewBox="0 0 382 382"><g fill="none" stroke="#6e715e" stroke-width="2"><path d="M222.7 70.83c-1.46 2.63-4.36 4.44-3.72 7.73q.05.24.29.26.58.06.64-.52.05-.52.38-.86.39-.39.76.01l1.71 1.85a1.03 1.03 0 0 0 .81.32q.44-.03.82-.29a.39.38 71.1 0 1 .6.3q.15 2.89-.44 5.79-.12.6.2 1.11.69 1.08-.41 1.62-.12.06-.14.18-.03.18.05.33.2.39.5.08.11-.12.15-.27.17-.7.69-.2.35.32.78.38.48.07.53-.42l.22-2.64a.36.35 10.5 0 1 .46-.31q.22.06.37.21.6.62.86-.19.45-1.41 1.93-1.37a1.18 1.17 75.4 0 1 .97.57l.62 1.04a.83.77 1.2 0 0 .31.3q.76.43 1.04.02.23-.35.14-.79-.2-.88-.52-1.64-.22-.5.05-.98.53-.93.08-1.83-.2-.41.16-.68.14-.1.29-.08.89.12.58-.71-.4-1.03-.44-2.14-.02-.79-.8-.93l-1.42-.26q-.58-.11-.69-.68-.25-1.37-.69-1.92M241.73 71.94q.23.91 1.02.64.25-.08.48-.58M255.23 79.89l1.44 3.34q.28.66-.44.73-1.06.11-1.75.82-.36.38-.13.85l1.31 2.72q.25.53-.22.87-.87.64-1.88 1.06-.36.15-.54.49-.11.21-.06.45.12.59.69.36l.54-.22q.54-.22.77.32l.79 1.84q.21.5-.01.99l-1.34 2.86q-.36.77.47.55.99-.26 1.89-.8a.8.8 0 0 1 1.19.86q-.07.3.11.54.53.7.7-.16.22-1.12 1.25-1.39 1.4-.36.25-1.23-1.95-1.45-.53-3.08.44-.51 1.04-.22 1.19.55 2.06-.64 1.28-1.78 1.21.45l-.06 2.06q-.04 1.15.79.36l.2-.2q.72-.69.88.29.17 1.01 1.06 1.29.62.2.79-.42c.21-.75.47-1.57 1.36-1.74q.75-.15 1.35.17a1.01 1-73.7 0 1 .53.98q-.26 2.66 1.56 4.03.62.48-.04.9-.19.12-.42.07-.86-.19-.62.65.07.27.23.49.4.53.23 1.18l-1.04 4q-.14.57-.67.33-.15-.07-.27-.19-.36-.37-.75-.02-.21.19-.14.44.31 1.19 1.35 1.93a.95.94 49.4 0 1-.12 1.62q-.53.26-.86.74-.53.78.31.36l.53-.27q.55-.28.9.22.59.83.83 1.89a.43.43 0 0 0 .78.14q.76-1.12 1.08-2.41.17-.67-.28-1.18-.13-.15-.18-.34-.17-.65.5-.59c2.62.24 3.22 1.58 5.99.16a.87.87 0 0 1 1.2.45q1.57 3.96.51 8.37a1.82 1.82 0 0 0 .09 1.13q.68 1.7-.22 3.1-.43.66.28.31 1.18-.58 2.47-.69a.86.86 0 0 0 .66-1.33l-.44-.66q-.37-.56.26-.82 1.63-.68 2.94-.42.64.12.89-.48l.73-1.71q.25-.6.62-.06.27.4.21.94-.09.85.6.33l.31-.23q.6-.46.93.21.61 1.23.6 2.5 0 2.51 2.15 3.23.76.26.02.56l-.36.14q-.12.05-.16.18-.05.15 0 .27.23.59.68.15l1.53-1.53a.83.83 0 0 0-.01-1.19q-.71-.68-1.13-1.51-.31-.59.15-1.07 1.77-1.89 1.86-4.71a1.56 1.56 0 0 1 2.29-1.33q.98.51 2.45.69M289.41 253.22q-.4-1.55-1.69-.97-.52.24-1.05.44-.51.2-.69-.32c-.27-.8-.65-1.47-.43-2.35q.68-2.66.34-5.59-.07-.66-.54-.19-.46.45-.48 1.12-.02.77-.66.32-.68-.49-1.19-1.26a.59.58 49.2 0 0-.93-.07q-.13.15-.31.26-.89.53-.45-.41.75-1.6 1.33-3.48.55-1.78-1.28-2.14c-3.65-.72-2.34-3.4-1.47-5.6q.44-1.11-.6-.51-1.33.76-2.53-.07a.71.71 0 0 0-.77-.02l-.4.25q-.72.45-.69-.4l.09-2.35q.04-1.09-.58-1.98l-.28-.4q-.57-.82-.88.12l-1.31 4.01a.7.69-62.9 0 1-1.07.35q-.69-.49-1.47-.71-2.06-.58-1.07 1.32 1.06 2.05 0 3.67-.36.54.29.59 1.23.09 1.37 1.39.11.96.9.4l.26-.18q.62-.44.73.32.16 1.15-.44 2.31-.28.54.12.98.21.24.06.52-.17.31-.51.38-2.6.55-2.15 3.86.24 1.74-1.09.59-1.39-1.2-2.11-2.94a.52.52 0 0 0-.83-.18q-.98.9-.33 1.9.22.34.05.71-.35.76-1.24.76a.5.5 0 0 1-.37-.16q-.17-.19-.41-.19-.52 0-.6.51-.17 1.17-1.4 1.32a.74.74 0 0 0-.51 1.16c1.5 2.12 1.02 3.86-1.4 4.82q-.5.2-.68.7l-.14.38q-.43 1.16-.96.04-1.03-2.19-1.05-4.48-.01-1-.83-.44l-.33.23q-.54.36-.93-.17-.52-.71-1.24-1.22a.76.76 0 0 1-.21-1.04l.4-.6a.99.99 0 0 0-.06-1.16l-1.34-1.65q-.53-.65-.04-1.33 1.16-1.67-.39-2.99a1.57 1.56 24.7 0 1-.52-1.4q.23-1.55-.5-3.3-.26-.62-.83-.8-.1-.04-.22-.04-1.03.01-.38-.79.91-1.12.34-2.27-.8-1.62-1.67-.04-.41.74-.86 1.67-.21.42-.65.37-.45-.04-.48-.49-.03-.62-.43-1.01-.48-.49-.59.19l-.65 4.12a.55.53 25.1 0 0 .19.5q1.32 1.08 1.33 2.86 0 .59-.55.82l-1.15.48a.66.66 0 0 0-.4.71q.05.31-.12.56-.47.71-.95 0l-.7-1.04q-.54-.8-.96.07-.09.18-.06.4.08.72-.63.83l-1.76.28q-.64.11-.66.76-.07 2.45-1.22 4.42-.93 1.58-1.58-.13-.48-1.23-.35-2.43.09-.88-.65-.4-.45.29-.92.54-.7.35-1.2-.2-.3-.33-.1-.73l.83-1.62a.78.76-52.2 0 0-.1-.86q-.29-.32-.76-.35a.99.99 0 0 1-.8-1.46l.44-.81a.73.73 0 0 0-.26-.96q-2-1.21-.85-3.08.35-.56-.18-.96-.87-.64-1.93-1-.45-.15-.45-.63-.02-.65.47-1.16.28-.29.24-.7-.06-.68-.73-.95-.5-.2-.77.28l-.99 1.75q-.38.67-1.05.3l-.42-.24q-.57-.32-.72.32-.62 2.64 1.28 3.43.47.19.59.67c.92 3.57-2.28 4.82-4.79 6.07a2.89 2.89 0 0 0-1.44 3.55q.51 1.43.19 2.75-.32 1.29-1.35.46-.5-.4-.69-.98-.43-1.31-1.03-.06-.29.6-.79.98-.61.47-.86-.26-.33-.96-1.2-1.45-.64-.36-.81-1.07-.32-1.39-1.47-2.18a1.56 1.53 12.3 0 1-.64-.97l-.23-1.19q-.15-.73-.67-.2l-.67.69a.34.34 0 0 1-.52-.03q-1.72-2.28-2.89-1.96M80.01 146.92q.74.73 1.32.75.59.01.58-.58-.09-3.05 2.42-4.98.52-.39.22-.98-.57-1.08-.08-2.2.32-.75-.22-1.36l-.25-.28q-.57-.65-.83.17l-.31.98q-.25.79-.87.24-.36-.32-.53-.77a1.02.99 44.2 0 1-.02-.7q.36-1.13-.32-2.31a1.16 1.15-28.4 0 1 .48-1.6c1.96-1 3.21-4.49 1.81-6.42q-.33-.46.07-.87l1.75-1.81a.39.39 0 0 1 .67.28q-.02 2.05 2.13 1.48.71-.19.68.55-.01.22-.23.33a.49.49 0 0 0-.22.7q1.34 2.27 1.88 4.82a1.17 1.16-73.1 0 0 .27.51q.54.55 1.02.13a.65.53-12.8 0 0 .14-.18l1.15-2.29a.65.65 0 0 1 .99-.2q1.28 1.06 2.58.05.45-.35.67.17c1 2.28-.24 5.36.08 7.94q.08.64.57.22.23-.2.3-.52.33-1.66 1.45-.4.37.42.71.81.52.59.9-.09.11-.21.36-.24.49-.06.32.4l-1.55 4.24q-.25.68.42.96l2.78 1.19q.58.25.67.88.26 1.85-.73 3.6-.91 1.61.78.86c1.41-.63 2.03.53 3.41-.02a.49.49 0 0 1 .66.56q-.56 2.44.48 4.2.97 1.67 1.36-.22.41-1.98 1.28-3.55.43-.8 1.15-.24.9.69 1.94.85.84.13.57-.67-.44-1.25-.78-2.48-.15-.57-.04-1.16.06-.29.28-.49.91-.83-.3-1.09-1.1-.24-1.24-1.45-.1-.85-.75-.3-.13.11-.27.19-.92.51-.74-.52l.6-3.41q.08-.45.51-.62 2.21-.84 1.9-3.58-.25-2.16 1.32-.66 1.22 1.17 1.82 2.77.21.54.69.22 1.01-.68.61-1.85-.12-.36-.05-.73.12-.57.65-.77.33-.12.64.05l.35.2q.6.34.79-.32.35-1.22 1.56-1.59.65-.2.41-.83l-.81-2.07q-.2-.52.03-1.04.62-1.33 2.07-1.84a1.36 1.34 88.4 0 0 .86-.92l.13-.44q.25-.93.72-.08 1.3 2.38 1.24 4.63-.03.87.75.48l.27-.14q.63-.31 1.11.19l1.3 1.37q.38.4.07.85c-1.64 2.38 2.24 2.69.92 5.07q-.76 1.36.38 2.42 1.46 1.38.61 2.6-.01 2.4 1.88 3.34.55.28.14.73-.97 1.05-.29 2.28.87 1.54 1.68-.02.43-.82.83-1.66.12-.25.37-.39.21-.12.44.02.42.26.3.74-.08.3.18.52.54.46.69-.24l.78-3.69q.08-.39-.17-.7-.63-.75-1.06-1.72-.73-1.66.9-2.21.53-.18.71-.71l.22-.67a.56.55 33.7 0 1 .94-.18l1.07 1.22q.55.63.69-.2.3-1.76 2.07-1.39a.88.88 0 0 0 1.06-.85q.05-2.53 1.28-4.72a1.16 1.14 9.6 0 1 .83-.58q.32-.05.54.2.31.36.34.88.06 1.05.14 2.18.07 1.04.9.41 1.1-.85 1.91-.2.36.28.13.68l-1 1.7a.82.82 0 0 0 .69 1.23q1.06.03 1.24.96a.8.78 63.1 0 1-.23.74q-.44.42-.34 1 .07.37.37.58 1.7 1.18.71 2.84a.78.76-51.1 0 0 .09.92q.88.94 2.09 1.27a.6.59-68.2 0 1 .36.85l-.56 1.07a.74.73-52.6 0 0 .11.84l.59.64a.4.39 33 0 0 .67-.14q.35-1.11 1.05-2.05.42-.54.97-.15l.41.29q.63.45.76-.31.21-1.31-.09-2.53-.11-.43-.51-.61-1.77-.8-1.3-2.88c.51-2.31 2.78-3.38 4.8-4.21a2.68 2.67-21.8 0 0 1.48-3.45q-.57-1.46-.17-2.89.37-1.3 1.37-.38.49.46.68 1.07.2.68.76.24.54-.44.86-1.08.36-.72.91-.14.2.22.18.55a.72.71-76.5 0 0 .41.68q1.49.69 1.8 2.29.13.7.78.98 1.39.62 1.08 2.14a.5.49-6.3 0 0 .69.55l1.17-.52a.73.72 73.3 0 1 1.01.55q.08.5.34.92.28.47.85.51a.44.43 88.9 0 0 .47-.49q-.22-1.87.78-4.11.22-.51.77-.65.36-.1.64-.31a.67.66-44.7 0 0 .01-1.06q-1.56-1.19-3.12-1.03-.36.04-.57-.26-1.02-1.44-.3-2.81a1.15 1.14-46.7 0 0-.03-1.12l-.36-.58q-.43-.71.4-.73.59-.02.99-.43a.77.76 47.1 0 0 .03-1.02q-.81-.97-.07-2.04.28-.41.27-.92-.03-1.61-1.46-2.53-.43-.28-.15-.7.19-.28.54-.32.47-.06.73-.45 1.49-2.31 4.47-2.62.5-.05.72-.51.3-.65.38-1.41.06-.51.43-.86.16-.15.37-.15.83-.04.5-.8-.69-1.62-.59-3.56a.46.46 0 0 0-.62-.45q-.47.18-.71.66-.44.83-.64 1.7a.55.55 0 0 1-1.02.13l-2.32-4.35q-.24-.47-.54-.03l-.22.34q-.13.2-.38.16-.22-.03-.28-.22-.12-.35.19-.51.14-.07.3-.08.39-.04.27-.41-.06-.2-.2-.36-.39-.43-.2-.97.77-2.18.96-4.96.19-2.65-1.35-.48-.85 1.21-2.33 1.82-.57.24-.8-.33l-.57-1.35q-.65-1.56-1.42-.06l-.37.71a.76.72 9.7 0 1-.6.4q-.3.02-.52.21a.54.54 0 0 0-.02.81q.54.49.07 1.05-.39.46-.08.98.57.98.49 2.09-.07.94-.81.36-.71-.55-1.41.02-.58.48-.67-.26l-.19-1.69q-.07-.61-.69-.61l-2.42.02q-.58 0-.4-.56l1.21-3.74q.22-.69-.39-1.08-1.94-1.25-.6-2.89a.34.34 0 0 0-.18-.54q-2.71-.69-2.47-3.46.07-.72.68-.35l.31.18q.6.36.88-.27 1.18-2.55 3.65-3.56.4-.16.11-.47-1.68-1.8-2.33-4.74-.13-.56.45-.55l1.5.02q.71.02.33-.58-1.08-1.69.51-3.4M176.82 70.23q.18.77.19.79.48 2.08 1.13.05.37-1.15 2.89-.77M289.57 263.79l.11 1.42M289.84 265.55l.04 1.26M220.56 309.82q-1.34-.89-1.67-2.12a.52.49-81.5 0 0-.19-.27q-.4-.28-.61.07a.5.48-74.8 0 1-.4.24q-.81.01-1.11-.59-.21-.42-.05-.88.28-.78-.06-1.49-.26-.53.1-.99.23-.28.3-.63a1.19 1.16-57.7 0 0-.2-.94q-.21-.27-.3-.61-.16-.55.41-.55l1.43.01q.53 0 .44-.52-.51-3.01-2.23-4.69-.44-.43.12-.67 2.64-1.12 3.67-3.47.27-.61.81-.23l.32.23q.67.47.73-.35.2-2.8-2.54-3.55-.59-.17-.2-.64 1.3-1.56-.47-2.77a1.03 1.03 0 0 1-.4-1.16l1.1-3.59q.22-.69-.51-.68l-2.22.03a.73.72-10.9 0 1-.69-.46q-.28-.76-.19-1.57.1-.9-.73-.55-.74.31-1.51.01-.81-.31-.69.55l.62 4.09q.09.58-.45.83-1.02.46-1.54 1.55-.31.63-.78.11-.73-.82-1-1.97-.1-.43-.52-.3-1.39.43-2.17 1.54-2.01 2.86-1.67-.62.23-2.38.9-4.47.16-.48-.09-.92-.32-.55.21-1.01.97-.85-.27-.52-.11.03-.14.14-.37 1.14-.86.05-.93-2.05-2.1-4.08a.52.52 0 0 0-.94.07q-.41 1.07-1.06 2.05-.31.46-.79.22a.65.63-73.4 0 1-.35-.66q.22-1.72-.52-3.12-.23-.44.21-.69 1.36-.77 1.39-2.44a.81.81 0 0 1 .72-.79q3.05-.35 4.59-2.57.29-.42.8-.51.34-.06.52-.35.23-.35-.12-.59-2.46-1.63-1.02-4.28.3-.57-.15-1.03-.58-.6-.12-1.41a.65.64-73.1 0 1 .59-.32q.25.02.46-.09.62-.33.19-.88-.73-.93-.17-2 .25-.49-.02-.98l-1.85-3.39M205.16 244.95q.98-1.71-.07-2.24M265.56 83.08q.4.12.89.09M266.97 83.34q.35.1.74.06M271.04 84.11l.91.06M284.56 97.04l.12.66M299.81 109.14q.14 1.91 1.97 2.34M208.19 313.7q.04-.75-.28-1.2-.38-.52-.87-.1-.21.18-.47.25-.62.18-.61-.47.01-.32-.18-.58-.43-.61-.8.05-.84 1.53-2.15.85-.48-.25-.7.25-.58 1.33.54 2.12M205.28 314.86h-.99" vector-effect="non-scaling-stroke"/></g><path d="M222.7 70.83c-1.46 2.63-4.36 4.44-3.72 7.73q.05.24.29.26.58.06.64-.52.05-.52.38-.86.39-.39.76.01l1.71 1.85a1.03 1.03 0 0 0 .81.32q.44-.03.82-.29a.39.38 71.1 0 1 .6.3q.15 2.89-.44 5.79-.12.6.2 1.11.69 1.08-.41 1.62-.12.06-.14.18-.03.18.05.33.2.39.5.08.11-.12.15-.27.17-.7.69-.2.35.32.78.38.48.07.53-.42l.22-2.64a.36.35 10.5 0 1 .46-.31q.22.06.37.21.6.62.86-.19.45-1.41 1.93-1.37a1.18 1.17 75.4 0 1 .97.57l.62 1.04a.83.77 1.2 0 0 .31.3q.76.43 1.04.02.23-.35.14-.79-.2-.88-.52-1.64-.22-.5.05-.98.53-.93.08-1.83-.2-.41.16-.68.14-.1.29-.08.89.12.58-.71-.4-1.03-.44-2.14-.02-.79-.8-.93l-1.42-.26q-.58-.11-.69-.68-.25-1.37-.69-1.92l11.31-1.28q.23.91 1.02.64.25-.08.48-.58 2.45.2 4.51 1.77 2.4 1.82 7.49 6.12l1.44 3.34q.28.66-.44.73-1.06.11-1.75.82-.36.38-.13.85l1.31 2.72q.25.53-.22.87-.87.64-1.88 1.06-.36.15-.54.49-.11.21-.06.45.12.59.69.36l.54-.22q.54-.22.77.32l.79 1.84q.21.5-.01.99l-1.34 2.86q-.36.77.47.55.99-.26 1.89-.8a.8.8 0 0 1 1.19.86q-.07.3.11.54.53.7.7-.16.22-1.12 1.25-1.39 1.4-.36.25-1.23-1.95-1.45-.53-3.08.44-.51 1.04-.22 1.19.55 2.06-.64 1.28-1.78 1.21.45l-.06 2.06q-.04 1.15.79.36l.2-.2q.72-.69.88.29.17 1.01 1.06 1.29.62.2.79-.42c.21-.75.47-1.57 1.36-1.74q.75-.15 1.35.17a1.01 1-73.7 0 1 .53.98q-.26 2.66 1.56 4.03.62.48-.04.9-.19.12-.42.07-.86-.19-.62.65.07.27.23.49.4.53.23 1.18l-1.04 4q-.14.57-.67.33-.15-.07-.27-.19-.36-.37-.75-.02-.21.19-.14.44.31 1.19 1.35 1.93a.95.94 49.4 0 1-.12 1.62q-.53.26-.86.74-.53.78.31.36l.53-.27q.55-.28.9.22.59.83.83 1.89a.43.43 0 0 0 .78.14q.76-1.12 1.08-2.41.17-.67-.28-1.18-.13-.15-.18-.34-.17-.65.5-.59c2.62.24 3.22 1.58 5.99.16a.87.87 0 0 1 1.2.45q1.57 3.96.51 8.37a1.82 1.82 0 0 0 .09 1.13q.68 1.7-.22 3.1-.43.66.28.31 1.18-.58 2.47-.69a.86.86 0 0 0 .66-1.33l-.44-.66q-.37-.56.26-.82 1.63-.68 2.94-.42.64.12.89-.48l.73-1.71q.25-.6.62-.06.27.4.21.94-.09.85.6.33l.31-.23q.6-.46.93.21.61 1.23.6 2.5 0 2.51 2.15 3.23.76.26.02.56l-.36.14q-.12.05-.16.18-.05.15 0 .27.23.59.68.15l1.53-1.53a.83.83 0 0 0-.01-1.19q-.71-.68-1.13-1.51-.31-.59.15-1.07 1.77-1.89 1.86-4.71a1.56 1.56 0 0 1 2.29-1.33q.98.51 2.45.69c1.86 7.67-.01 13.98-.93 21.2q-.07.55.22 1.02l2.75 4.6a1.26 1.26 0 0 1 .18.65q.06 11.34-.07 22.16c-.04 3.02-.98 6.25-1.51 9.34q-4.6 26.81-8.82 52.86 0 .02-2.45 13.23-1.3 7.02-1.91 14.15-.4-1.55-1.69-.97-.52.24-1.05.44-.51.2-.69-.32c-.27-.8-.65-1.47-.43-2.35q.68-2.66.34-5.59-.07-.66-.54-.19-.46.45-.48 1.12-.02.77-.66.32-.68-.49-1.19-1.26a.59.58 49.2 0 0-.93-.07q-.13.15-.31.26-.89.53-.45-.41.75-1.6 1.33-3.48.55-1.78-1.28-2.14c-3.65-.72-2.34-3.4-1.47-5.6q.44-1.11-.6-.51-1.33.76-2.53-.07a.71.71 0 0 0-.77-.02l-.4.25q-.72.45-.69-.4l.09-2.35q.04-1.09-.58-1.98l-.28-.4q-.57-.82-.88.12l-1.31 4.01a.7.69-62.9 0 1-1.07.35q-.69-.49-1.47-.71-2.06-.58-1.07 1.32 1.06 2.05 0 3.67-.36.54.29.59 1.23.09 1.37 1.39.11.96.9.4l.26-.18q.62-.44.73.32.16 1.15-.44 2.31-.28.54.12.98.21.24.06.52-.17.31-.51.38-2.6.55-2.15 3.86.24 1.74-1.09.59-1.39-1.2-2.11-2.94a.52.52 0 0 0-.83-.18q-.98.9-.33 1.9.22.34.05.71-.35.76-1.24.76a.5.5 0 0 1-.37-.16q-.17-.19-.41-.19-.52 0-.6.51-.17 1.17-1.4 1.32a.74.74 0 0 0-.51 1.16c1.5 2.12 1.02 3.86-1.4 4.82q-.5.2-.68.7l-.14.38q-.43 1.16-.96.04-1.03-2.19-1.05-4.48-.01-1-.83-.44l-.33.23q-.54.36-.93-.17-.52-.71-1.24-1.22a.76.76 0 0 1-.21-1.04l.4-.6a.99.99 0 0 0-.06-1.16l-1.34-1.65q-.53-.65-.04-1.33 1.16-1.67-.39-2.99a1.57 1.56 24.7 0 1-.52-1.4q.23-1.55-.5-3.3-.26-.62-.83-.8-.1-.04-.22-.04-1.03.01-.38-.79.91-1.12.34-2.27-.8-1.62-1.67-.04-.41.74-.86 1.67-.21.42-.65.37-.45-.04-.48-.49-.03-.62-.43-1.01-.48-.49-.59.19l-.65 4.12a.55.53 25.1 0 0 .19.5q1.32 1.08 1.33 2.86 0 .59-.55.82l-1.15.48a.66.66 0 0 0-.4.71q.05.31-.12.56-.47.71-.95 0l-.7-1.04q-.54-.8-.96.07-.09.18-.06.4.08.72-.63.83l-1.76.28q-.64.11-.66.76-.07 2.45-1.22 4.42-.93 1.58-1.58-.13-.48-1.23-.35-2.43.09-.88-.65-.4-.45.29-.92.54-.7.35-1.2-.2-.3-.33-.1-.73l.83-1.62a.78.76-52.2 0 0-.1-.86q-.29-.32-.76-.35a.99.99 0 0 1-.8-1.46l.44-.81a.73.73 0 0 0-.26-.96q-2-1.21-.85-3.08.35-.56-.18-.96-.87-.64-1.93-1-.45-.15-.45-.63-.02-.65.47-1.16.28-.29.24-.7-.06-.68-.73-.95-.5-.2-.77.28l-.99 1.75q-.38.67-1.05.3l-.42-.24q-.57-.32-.72.32-.62 2.64 1.28 3.43.47.19.59.67c.92 3.57-2.28 4.82-4.79 6.07a2.89 2.89 0 0 0-1.44 3.55q.51 1.43.19 2.75-.32 1.29-1.35.46-.5-.4-.69-.98-.43-1.31-1.03-.06-.29.6-.79.98-.61.47-.86-.26-.33-.96-1.2-1.45-.64-.36-.81-1.07-.32-1.39-1.47-2.18a1.56 1.53 12.3 0 1-.64-.97l-.23-1.19q-.15-.73-.67-.2l-.67.69a.34.34 0 0 1-.52-.03q-1.72-2.28-2.89-1.96-.45-3.51-.66-7.04-.32-5.32-1.42-10.43-1.44-6.65-6.4-10.22-2.94-2.13-9.6-3.17-6.32-.99-11.26-1.11-6.43-.15-12.07-.12c-2.98.02-6.3-1.44-8.73-3.42q-13.81-11.26-18.52-14.66-14.33-10.36-30.72-11.81-4.34-.38-7.48-1.22c-12.67-3.4-18.3-13.72-17.42-26.44.13-1.99-.36-3.57-.75-5.47q.74.73 1.32.75.59.01.58-.58-.09-3.05 2.42-4.98.52-.39.22-.98-.57-1.08-.08-2.2.32-.75-.22-1.36l-.25-.28q-.57-.65-.83.17l-.31.98q-.25.79-.87.24-.36-.32-.53-.77a1.02.99 44.2 0 1-.02-.7q.36-1.13-.32-2.31a1.16 1.15-28.4 0 1 .48-1.6c1.96-1 3.21-4.49 1.81-6.42q-.33-.46.07-.87l1.75-1.81a.39.39 0 0 1 .67.28q-.02 2.05 2.13 1.48.71-.19.68.55-.01.22-.23.33a.49.49 0 0 0-.22.7q1.34 2.27 1.88 4.82a1.17 1.16-73.1 0 0 .27.51q.54.55 1.02.13a.65.53-12.8 0 0 .14-.18l1.15-2.29a.65.65 0 0 1 .99-.2q1.28 1.06 2.58.05.45-.35.67.17c1 2.28-.24 5.36.08 7.94q.08.64.57.22.23-.2.3-.52.33-1.66 1.45-.4.37.42.71.81.52.59.9-.09.11-.21.36-.24.49-.06.32.4l-1.55 4.24q-.25.68.42.96l2.78 1.19q.58.25.67.88.26 1.85-.73 3.6-.91 1.61.78.86c1.41-.63 2.03.53 3.41-.02a.49.49 0 0 1 .66.56q-.56 2.44.48 4.2.97 1.67 1.36-.22.41-1.98 1.28-3.55.43-.8 1.15-.24.9.69 1.94.85.84.13.57-.67-.44-1.25-.78-2.48-.15-.57-.04-1.16.06-.29.28-.49.91-.83-.3-1.09-1.1-.24-1.24-1.45-.1-.85-.75-.3-.13.11-.27.19-.92.51-.74-.52l.6-3.41q.08-.45.51-.62 2.21-.84 1.9-3.58-.25-2.16 1.32-.66 1.22 1.17 1.82 2.77.21.54.69.22 1.01-.68.61-1.85-.12-.36-.05-.73.12-.57.65-.77.33-.12.64.05l.35.2q.6.34.79-.32.35-1.22 1.56-1.59.65-.2.41-.83l-.81-2.07q-.2-.52.03-1.04.62-1.33 2.07-1.84a1.36 1.34 88.4 0 0 .86-.92l.13-.44q.25-.93.72-.08 1.3 2.38 1.24 4.63-.03.87.75.48l.27-.14q.63-.31 1.11.19l1.3 1.37q.38.4.07.85c-1.64 2.38 2.24 2.69.92 5.07q-.76 1.36.38 2.42 1.46 1.38.61 2.6-.01 2.4 1.88 3.34.55.28.14.73-.97 1.05-.29 2.28.87 1.54 1.68-.02.43-.82.83-1.66.12-.25.37-.39.21-.12.44.02.42.26.3.74-.08.3.18.52.54.46.69-.24l.78-3.69q.08-.39-.17-.7-.63-.75-1.06-1.72-.73-1.66.9-2.21.53-.18.71-.71l.22-.67a.56.55 33.7 0 1 .94-.18l1.07 1.22q.55.63.69-.2.3-1.76 2.07-1.39a.88.88 0 0 0 1.06-.85q.05-2.53 1.28-4.72a1.16 1.14 9.6 0 1 .83-.58q.32-.05.54.2.31.36.34.88.06 1.05.14 2.18.07 1.04.9.41 1.1-.85 1.91-.2.36.28.13.68l-1 1.7a.82.82 0 0 0 .69 1.23q1.06.03 1.24.96a.8.78 63.1 0 1-.23.74q-.44.42-.34 1 .07.37.37.58 1.7 1.18.71 2.84a.78.76-51.1 0 0 .09.92q.88.94 2.09 1.27a.6.59-68.2 0 1 .36.85l-.56 1.07a.74.73-52.6 0 0 .11.84l.59.64a.4.39 33 0 0 .67-.14q.35-1.11 1.05-2.05.42-.54.97-.15l.41.29q.63.45.76-.31.21-1.31-.09-2.53-.11-.43-.51-.61-1.77-.8-1.3-2.88c.51-2.31 2.78-3.38 4.8-4.21a2.68 2.67-21.8 0 0 1.48-3.45q-.57-1.46-.17-2.89.37-1.3 1.37-.38.49.46.68 1.07.2.68.76.24.54-.44.86-1.08.36-.72.91-.14.2.22.18.55a.72.71-76.5 0 0 .41.68q1.49.69 1.8 2.29.13.7.78.98 1.39.62 1.08 2.14a.5.49-6.3 0 0 .69.55l1.17-.52a.73.72 73.3 0 1 1.01.55q.08.5.34.92.28.47.85.51a.44.43 88.9 0 0 .47-.49q-.22-1.87.78-4.11.22-.51.77-.65.36-.1.64-.31a.67.66-44.7 0 0 .01-1.06q-1.56-1.19-3.12-1.03-.36.04-.57-.26-1.02-1.44-.3-2.81a1.15 1.14-46.7 0 0-.03-1.12l-.36-.58q-.43-.71.4-.73.59-.02.99-.43a.77.76 47.1 0 0 .03-1.02q-.81-.97-.07-2.04.28-.41.27-.92-.03-1.61-1.46-2.53-.43-.28-.15-.7.19-.28.54-.32.47-.06.73-.45 1.49-2.31 4.47-2.62.5-.05.72-.51.3-.65.38-1.41.06-.51.43-.86.16-.15.37-.15.83-.04.5-.8-.69-1.62-.59-3.56a.46.46 0 0 0-.62-.45q-.47.18-.71.66-.44.83-.64 1.7a.55.55 0 0 1-1.02.13l-2.32-4.35q-.24-.47-.54-.03l-.22.34q-.13.2-.38.16-.22-.03-.28-.22-.12-.35.19-.51.14-.07.3-.08.39-.04.27-.41-.06-.2-.2-.36-.39-.43-.2-.97.77-2.18.96-4.96.19-2.65-1.35-.48-.85 1.21-2.33 1.82-.57.24-.8-.33l-.57-1.35q-.65-1.56-1.42-.06l-.37.71a.76.72 9.7 0 1-.6.4q-.3.02-.52.21a.54.54 0 0 0-.02.81q.54.49.07 1.05-.39.46-.08.98.57.98.49 2.09-.07.94-.81.36-.71-.55-1.41.02-.58.48-.67-.26l-.19-1.69q-.07-.61-.69-.61l-2.42.02q-.58 0-.4-.56l1.21-3.74q.22-.69-.39-1.08-1.94-1.25-.6-2.89a.34.34 0 0 0-.18-.54q-2.71-.69-2.47-3.46.07-.72.68-.35l.31.18q.6.36.88-.27 1.18-2.55 3.65-3.56.4-.16.11-.47-1.68-1.8-2.33-4.74-.13-.56.45-.55l1.5.02q.71.02.33-.58-1.08-1.69.51-3.4 3.52.89 4.85-1.81 2.05-4.18 4.9-5.95.18.77.19.79.48 2.08 1.13.05.37-1.15 2.89-.77 1.03-.38 3.28.63c1.83.83 4.86.58 6.82-.29q6.6-2.9 14.12-1.94 2.66.34 5.11-1.02 1.74-.96 3.85-.49a1.09 1.02 73.4 0 1 .55.32c1.62 1.8 5.67 2.5 7.94 3.32"/><path fill="#dce2bc" d="M181.03 70.3q-2.52-.38-2.89.77-.65 2.03-1.13-.05-.01-.02-.19-.79 2.87-.9 4.21.07M222.7 70.83l7.72 2.39q.44.55.69 1.92.11.57.69.68l1.42.26q.78.14.8.93.04 1.11.44 2.14.31.83-.58.71-.15-.02-.29.08-.36.27-.16.68.45.9-.08 1.83-.27.48-.05.98.32.76.52 1.64.09.44-.14.79-.28.41-1.04-.02a.83.77 1.2 0 1-.31-.3l-.62-1.04a1.18 1.17 75.4 0 0-.97-.57q-1.48-.04-1.93 1.37-.26.81-.86.19-.15-.15-.37-.21a.36.35 10.5 0 0-.46.31l-.22 2.64q-.05.49-.53.42-.43-.06-.78-.38-.52-.5-.69.2-.04.15-.15.27-.3.31-.5-.08-.08-.15-.05-.33.02-.12.14-.18 1.1-.54.41-1.62-.32-.51-.2-1.11.59-2.9.44-5.79a.39.38 71.1 0 0-.6-.3q-.38.26-.82.29a1.03 1.03 0 0 1-.81-.32l-1.71-1.85q-.37-.4-.76-.01-.33.34-.38.86-.06.58-.64.52-.24-.02-.29-.26c-.64-3.29 2.26-5.1 3.72-7.73M243.23 72q-.23.5-.48.58-.79.27-1.02-.64.69.21 1.5.06M167.07 77.99q-1.59 1.71-.51 3.4.38.6-.33.58l-1.5-.02q-.58-.01-.45.55.65 2.94 2.33 4.74.29.31-.11.47-2.47 1.01-3.65 3.56-.28.63-.88.27l-.31-.18q-.61-.37-.68.35-.24 2.77 2.47 3.46a.34.34 0 0 1 .18.54q-1.34 1.64.6 2.89.61.39.39 1.08l-1.21 3.74q-.18.56.4.56l2.42-.02q.62 0 .69.61l.19 1.69q.09.74.67.26.7-.57 1.41-.02.74.58.81-.36.08-1.11-.49-2.09-.31-.52.08-.98.47-.56-.07-1.05a.54.54 0 0 1 .02-.81q.22-.19.52-.21a.76.72 9.7 0 0 .6-.4l.37-.71q.77-1.5 1.42.06l.57 1.35q.23.57.8.33 1.48-.61 2.33-1.82 1.54-2.17 1.35.48-.19 2.78-.96 4.96-.19.54.2.97.14.16.2.36.12.37-.27.41-.16.01-.3.08-.31.16-.19.51.06.19.28.22.25.04.38-.16l.22-.34q.3-.44.54.03l2.32 4.35a.55.55 0 0 0 1.02-.13q.2-.87.64-1.7.24-.48.71-.66a.46.46 0 0 1 .62.45q-.1 1.94.59 3.56.33.76-.5.8-.21 0-.37.15-.37.35-.43.86-.08.76-.38 1.41-.22.46-.72.51-2.98.31-4.47 2.62-.26.39-.73.45-.35.04-.54.32-.28.42.15.7 1.43.92 1.46 2.53.01.51-.27.92-.74 1.07.07 2.04a.77.76 47.1 0 1-.03 1.02q-.4.41-.99.43-.83.02-.4.73l.36.58a1.15 1.14-46.7 0 1 .03 1.12q-.72 1.37.3 2.81.21.3.57.26 1.56-.16 3.12 1.03a.67.66-44.7 0 1-.01 1.06q-.28.21-.64.31-.55.14-.77.65-1 2.24-.78 4.11a.44.43 88.9 0 1-.47.49q-.57-.04-.85-.51-.26-.42-.34-.92a.73.72 73.3 0 0-1.01-.55l-1.17.52a.5.49-6.3 0 1-.69-.55q.31-1.52-1.08-2.14-.65-.28-.78-.98-.31-1.6-1.8-2.29a.72.71-76.5 0 1-.41-.68q.02-.33-.18-.55-.55-.58-.91.14-.32.64-.86 1.08-.56.44-.76-.24-.19-.61-.68-1.07-1-.92-1.37.38-.4 1.43.17 2.89a2.68 2.67-21.8 0 1-1.48 3.45c-2.02.83-4.29 1.9-4.8 4.21q-.47 2.08 1.3 2.88.4.18.51.61.3 1.22.09 2.53-.13.76-.76.31l-.41-.29q-.55-.39-.97.15-.7.94-1.05 2.05a.4.39 33 0 1-.67.14l-.59-.64a.74.73-52.6 0 1-.11-.84l.56-1.07a.6.59-68.2 0 0-.36-.85q-1.21-.33-2.09-1.27a.78.76-51.1 0 1-.09-.92q.99-1.66-.71-2.84-.3-.21-.37-.58-.1-.58.34-1a.8.78 63.1 0 0 .23-.74q-.18-.93-1.24-.96a.82.82 0 0 1-.69-1.23l1-1.7q.23-.4-.13-.68-.81-.65-1.91.2-.83.63-.9-.41-.08-1.13-.14-2.18-.03-.52-.34-.88-.22-.25-.54-.2a1.16 1.14 9.6 0 0-.83.58q-1.23 2.19-1.28 4.72a.88.88 0 0 1-1.06.85q-1.77-.37-2.07 1.39-.14.83-.69.2l-1.07-1.22a.56.55 33.7 0 0-.94.18l-.22.67q-.18.53-.71.71-1.63.55-.9 2.21.43.97 1.06 1.72.25.31.17.7l-.78 3.69q-.15.7-.69.24-.26-.22-.18-.52.12-.48-.3-.74-.23-.14-.44-.02-.25.14-.37.39-.4.84-.83 1.66-.81 1.56-1.68.02-.68-1.23.29-2.28.41-.45-.14-.73-1.89-.94-1.88-3.34.85-1.22-.61-2.6-1.14-1.06-.38-2.42c1.32-2.38-2.56-2.69-.92-5.07q.31-.45-.07-.85l-1.3-1.37q-.48-.5-1.11-.19l-.27.14q-.78.39-.75-.48.06-2.25-1.24-4.63-.47-.85-.72.08l-.13.44a1.36 1.34 88.4 0 1-.86.92q-1.45.51-2.07 1.84-.23.52-.03 1.04l.81 2.07q.24.63-.41.83-1.21.37-1.56 1.59-.19.66-.79.32l-.35-.2q-.31-.17-.64-.05-.53.2-.65.77-.07.37.05.73.4 1.17-.61 1.85-.48.32-.69-.22-.6-1.6-1.82-2.77-1.57-1.5-1.32.66.31 2.74-1.9 3.58-.43.17-.51.62l-.6 3.41q-.18 1.03.74.52.14-.08.27-.19.65-.55.75.3.14 1.21 1.24 1.45 1.21.26.3 1.09-.22.2-.28.49-.11.59.04 1.16.34 1.23.78 2.48.27.8-.57.67-1.04-.16-1.94-.85-.72-.56-1.15.24-.87 1.57-1.28 3.55-.39 1.89-1.36.22-1.04-1.76-.48-4.2a.49.49 0 0 0-.66-.56c-1.38.55-2-.61-3.41.02q-1.69.75-.78-.86.99-1.75.73-3.6-.09-.63-.67-.88l-2.78-1.19q-.67-.28-.42-.96l1.55-4.24q.17-.46-.32-.4-.25.03-.36.24-.38.68-.9.09-.34-.39-.71-.81-1.12-1.26-1.45.4-.07.32-.3.52-.49.42-.57-.22c-.32-2.58.92-5.66-.08-7.94q-.22-.52-.67-.17-1.3 1.01-2.58-.05a.65.65 0 0 0-.99.2l-1.15 2.29a.65.53-12.8 0 1-.14.18q-.48.42-1.02-.13a1.17 1.16-73.1 0 1-.27-.51q-.54-2.55-1.88-4.82a.49.49 0 0 1 .22-.7q.22-.11.23-.33.03-.74-.68-.55-2.15.57-2.13-1.48a.39.39 0 0 0-.67-.28l-1.75 1.81q-.4.41-.07.87c1.4 1.93.15 5.42-1.81 6.42a1.16 1.15-28.4 0 0-.48 1.6q.68 1.18.32 2.31a1.02.99 44.2 0 0 .02.7q.17.45.53.77.62.55.87-.24l.31-.98q.26-.82.83-.17l.25.28q.54.61.22 1.36-.49 1.12.08 2.2.3.59-.22.98-2.51 1.93-2.42 4.98.01.59-.58.58-.58-.02-1.32-.75c-.89-2.21-2.08-4.58-2.15-6.91-.08-2.73-.69-7.34.99-9.8q3.78-5.58 6.81-11.59c2.93-5.78 6.95-9.45 13.24-10.99q13.75-3.38 26.15-6.62c13.36-3.48 22.87-9.58 24.97-24.02a1.63 1.63 0 0 1 .49-.95c5.47-5.23 11.04-1.35 16.56 1.95M265.56 83.08q.4.12.89.09l.52.17q.35.1.74.06l3.33.71.91.06q3.88.76 7.79 1.4c3.01.49 4.18 2.12 4.17 5.25q-.01 3.19.65 6.22l.12.66q.92 5.7 5.47 7.39 5.01 1.86 9.66 4.05.14 1.91 1.97 2.34l.17 2.53q-1.47-.18-2.45-.69a1.56 1.56 0 0 0-2.29 1.33q-.09 2.82-1.86 4.71-.46.48-.15 1.07.42.83 1.13 1.51a.83.83 0 0 1 .01 1.19l-1.53 1.53q-.45.44-.68-.15-.05-.12 0-.27.04-.13.16-.18l.36-.14q.74-.3-.02-.56-2.15-.72-2.15-3.23.01-1.27-.6-2.5-.33-.67-.93-.21l-.31.23q-.69.52-.6-.33.06-.54-.21-.94-.37-.54-.62.06l-.73 1.71q-.25.6-.89.48-1.31-.26-2.94.42-.63.26-.26.82l.44.66a.86.86 0 0 1-.66 1.33q-1.29.11-2.47.69-.71.35-.28-.31.9-1.4.22-3.1a1.82 1.82 0 0 1-.09-1.13q1.06-4.41-.51-8.37a.87.87 0 0 0-1.2-.45c-2.77 1.42-3.37.08-5.99-.16q-.67-.06-.5.59.05.19.18.34.45.51.28 1.18-.32 1.29-1.08 2.41a.43.43 0 0 1-.78-.14q-.24-1.06-.83-1.89-.35-.5-.9-.22l-.53.27q-.84.42-.31-.36.33-.48.86-.74a.95.94 49.4 0 0 .12-1.62q-1.04-.74-1.35-1.93-.07-.25.14-.44.39-.35.75.02.12.12.27.19.53.24.67-.33l1.04-4q.17-.65-.23-1.18-.16-.22-.23-.49-.24-.84.62-.65.23.05.42-.07.66-.42.04-.9-1.82-1.37-1.56-4.03a1.01 1-73.7 0 0-.53-.98q-.6-.32-1.35-.17c-.89.17-1.15.99-1.36 1.74q-.17.62-.79.42-.89-.28-1.06-1.29-.16-.98-.88-.29l-.2.2q-.83.79-.79-.36l.06-2.06q.07-2.23-1.21-.45-.87 1.19-2.06.64-.6-.29-1.04.22-1.42 1.63.53 3.08 1.15.87-.25 1.23-1.03.27-1.25 1.39-.17.86-.7.16-.18-.24-.11-.54a.8.8 0 0 0-1.19-.86q-.9.54-1.89.8-.83.22-.47-.55l1.34-2.86q.22-.49.01-.99l-.79-1.84q-.23-.54-.77-.32l-.54.22q-.57.23-.69-.36-.05-.24.06-.45.18-.34.54-.49 1.01-.42 1.88-1.06.47-.34.22-.87l-1.31-2.72q-.23-.47.13-.85.69-.71 1.75-.82.72-.07.44-.73l-1.44-3.34q4.85 2.54 10.33 3.19"/><path d="M266.45 83.17q-.49.03-.89-.09zM267.71 83.4q-.39.04-.74-.06.39-.04.74.06M271.95 84.17l-.91-.06zM284.68 97.7l-.12-.66q.16.24.12.66M301.78 111.48q-1.83-.43-1.97-2.34 1.72.76 1.97 2.34"/><path fill="#dce2bc" d="M289.41 253.22q-1 5.38.16 10.57l.11 1.42.16.34.04 1.26q.51 3.48-2.29 5.05c-13.95 7.85-21.25 13.11-33.76 21.19q-16.37 10.57-33.27 16.77-1.34-.89-1.67-2.12a.52.49-81.5 0 0-.19-.27q-.4-.28-.61.07a.5.48-74.8 0 1-.4.24q-.81.01-1.11-.59-.21-.42-.05-.88.28-.78-.06-1.49-.26-.53.1-.99.23-.28.3-.63a1.19 1.16-57.7 0 0-.2-.94q-.21-.27-.3-.61-.16-.55.41-.55l1.43.01q.53 0 .44-.52-.51-3.01-2.23-4.69-.44-.43.12-.67 2.64-1.12 3.67-3.47.27-.61.81-.23l.32.23q.67.47.73-.35.2-2.8-2.54-3.55-.59-.17-.2-.64 1.3-1.56-.47-2.77a1.03 1.03 0 0 1-.4-1.16l1.1-3.59q.22-.69-.51-.68l-2.22.03a.73.72-10.9 0 1-.69-.46q-.28-.76-.19-1.57.1-.9-.73-.55-.74.31-1.51.01-.81-.31-.69.55l.62 4.09q.09.58-.45.83-1.02.46-1.54 1.55-.31.63-.78.11-.73-.82-1-1.97-.1-.43-.52-.3-1.39.43-2.17 1.54-2.01 2.86-1.67-.62.23-2.38.9-4.47.16-.48-.09-.92-.32-.55.21-1.01.97-.85-.27-.52-.11.03-.14.14-.37 1.14-.86.05-.93-2.05-2.1-4.08a.52.52 0 0 0-.94.07q-.41 1.07-1.06 2.05-.31.46-.79.22a.65.63-73.4 0 1-.35-.66q.22-1.72-.52-3.12-.23-.44.21-.69 1.36-.77 1.39-2.44a.81.81 0 0 1 .72-.79q3.05-.35 4.59-2.57.29-.42.8-.51.34-.06.52-.35.23-.35-.12-.59-2.46-1.63-1.02-4.28.3-.57-.15-1.03-.58-.6-.12-1.41a.65.64-73.1 0 1 .59-.32q.25.02.46-.09.62-.33.19-.88-.73-.93-.17-2 .25-.49-.02-.98l-1.85-3.39-.36-2.7q.98-1.71-.07-2.24l-.05-.68q1.17-.32 2.89 1.96a.34.34 0 0 0 .52.03l.67-.69q.52-.53.67.2l.23 1.19a1.56 1.53 12.3 0 0 .64.97q1.15.79 1.47 2.18.17.71.81 1.07.87.49 1.2 1.45.25.73.86.26.5-.38.79-.98.6-1.25 1.03.06.19.58.69.98 1.03.83 1.35-.46.32-1.32-.19-2.75a2.89 2.89 0 0 1 1.44-3.55c2.51-1.25 5.71-2.5 4.79-6.07q-.12-.48-.59-.67-1.9-.79-1.28-3.43.15-.64.72-.32l.42.24q.67.37 1.05-.3l.99-1.75q.27-.48.77-.28.67.27.73.95.04.41-.24.7-.49.51-.47 1.16 0 .48.45.63 1.06.36 1.93 1 .53.4.18.96-1.15 1.87.85 3.08a.73.73 0 0 1 .26.96l-.44.81a.99.99 0 0 0 .8 1.46q.47.03.76.35a.78.76-52.2 0 1 .1.86l-.83 1.62q-.2.4.1.73.5.55 1.2.2.47-.25.92-.54.74-.48.65.4-.13 1.2.35 2.43.65 1.71 1.58.13 1.15-1.97 1.22-4.42.02-.65.66-.76l1.76-.28q.71-.11.63-.83-.03-.22.06-.4.42-.87.96-.07l.7 1.04q.48.71.95 0 .17-.25.12-.56a.66.66 0 0 1 .4-.71l1.15-.48q.55-.23.55-.82-.01-1.78-1.33-2.86a.55.53 25.1 0 1-.19-.5l.65-4.12q.11-.68.59-.19.4.39.43 1.01.03.45.48.49.44.05.65-.37.45-.93.86-1.67.87-1.58 1.67.04.57 1.15-.34 2.27-.65.8.38.79.12 0 .22.04.57.18.83.8.73 1.75.5 3.3a1.57 1.56 24.7 0 0 .52 1.4q1.55 1.32.39 2.99-.49.68.04 1.33l1.34 1.65a.99.99 0 0 1 .06 1.16l-.4.6a.76.76 0 0 0 .21 1.04q.72.51 1.24 1.22.39.53.93.17l.33-.23q.82-.56.83.44.02 2.29 1.05 4.48.53 1.12.96-.04l.14-.38q.18-.5.68-.7c2.42-.96 2.9-2.7 1.4-4.82a.74.74 0 0 1 .51-1.16q1.23-.15 1.4-1.32.08-.51.6-.51.24 0 .41.19a.5.5 0 0 0 .37.16q.89 0 1.24-.76.17-.37-.05-.71-.65-1 .33-1.9a.52.52 0 0 1 .83.18q.72 1.74 2.11 2.94 1.33 1.15 1.09-.59-.45-3.31 2.15-3.86.34-.07.51-.38.15-.28-.06-.52-.4-.44-.12-.98.6-1.16.44-2.31-.11-.76-.73-.32l-.26.18q-.79.56-.9-.4-.14-1.3-1.37-1.39-.65-.05-.29-.59 1.06-1.62 0-3.67-.99-1.9 1.07-1.32.78.22 1.47.71a.7.69-62.9 0 0 1.07-.35l1.31-4.01q.31-.94.88-.12l.28.4q.62.89.58 1.98l-.09 2.35q-.03.85.69.4l.4-.25a.71.71 0 0 1 .77.02q1.2.83 2.53.07 1.04-.6.6.51c-.87 2.2-2.18 4.88 1.47 5.6q1.83.36 1.28 2.14-.58 1.88-1.33 3.48-.44.94.45.41.18-.11.31-.26a.59.58 49.2 0 1 .93.07q.51.77 1.19 1.26.64.45.66-.32.02-.67.48-1.12.47-.47.54.19.34 2.93-.34 5.59c-.22.88.16 1.55.43 2.35q.18.52.69.32.53-.2 1.05-.44 1.29-.58 1.69.97"/><path d="m205.16 244.95-.07-2.24q1.05.53.07 2.24M220.56 309.82l-12.37 3.88q.04-.75-.28-1.2-.38-.52-.87-.1-.21.18-.47.25-.62.18-.61-.47.01-.32-.18-.58-.43-.61-.8.05-.84 1.53-2.15.85-.48-.25-.7.25-.58 1.33.54 2.12l-8.69-.01q-.5 0-.76-.43c-1.27-2.03-3.18-4.58-3.21-6.99q-.03-2.08.47-3.65 5.52-17.33 7.52-35.4c.54-4.89 4.64-8.67 6.79-12.84 1.25-2.44.79-5.19.73-7.9l1.85 3.39q.27.49.02.98-.56 1.07.17 2 .43.55-.19.88-.21.11-.46.09a.65.64-73.1 0 0-.59.32q-.46.81.12 1.41.45.46.15 1.03-1.44 2.65 1.02 4.28.35.24.12.59-.18.29-.52.35-.51.09-.8.51-1.54 2.22-4.59 2.57a.81.81 0 0 0-.72.79q-.03 1.67-1.39 2.44-.44.25-.21.69.74 1.4.52 3.12a.65.63-73.4 0 0 .35.66q.48.24.79-.22.65-.98 1.06-2.05a.52.52 0 0 1 .94-.07q1.17 2.03 2.1 4.08.49 1.09.86-.05.03-.11.14-.14 1.24-.33.27.52-.53.46-.21 1.01.25.44.09.92-.67 2.09-.9 4.47-.34 3.48 1.67.62.78-1.11 2.17-1.54.42-.13.52.3.27 1.15 1 1.97.47.52.78-.11.52-1.09 1.54-1.55.54-.25.45-.83l-.62-4.09q-.12-.86.69-.55.77.3 1.51-.01.83-.35.73.55-.09.81.19 1.57a.73.72-10.9 0 0 .69.46l2.22-.03q.73-.01.51.68l-1.1 3.59a1.03 1.03 0 0 0 .4 1.16q1.77 1.21.47 2.77-.39.47.2.64 2.74.75 2.54 3.55-.06.82-.73.35l-.32-.23q-.54-.38-.81.23-1.03 2.35-3.67 3.47-.56.24-.12.67 1.72 1.68 2.23 4.69.09.52-.44.52l-1.43-.01q-.57 0-.41.55.09.34.3.61a1.19 1.16-57.7 0 1 .2.94q-.07.35-.3.63-.36.46-.1.99.34.71.06 1.49-.16.46.05.88.3.6 1.11.59a.5.48-74.8 0 0 .4-.24q.21-.35.61-.07a.52.49-81.5 0 1 .19.27q.33 1.23 1.67 2.12M289.68 265.21l-.11-1.42q.2.68.11 1.42M289.88 266.81l-.04-1.26z"/><path fill="#dce2bc" d="M208.19 313.7q-1.28 1.1-2.91 1.16h-.99l-1.62.01q-1.12-.79-.54-2.12.22-.5.7-.25 1.31.68 2.15-.85.37-.66.8-.05.19.26.18.58-.01.65.61.47.26-.07.47-.25.49-.42.87.1.32.45.28 1.2"/><path d="M205.28 314.86h-.99z"/></svg>