<svg xmlns="http://www.w3.org/2000/svg" viewBox="0 0 382 382"><g fill="none" stroke="#0c4303" stroke-width="2"><path d="M219.55 69.77q-.17.66 1.21 1.04a.28.27-68.8 0 1 .17.39l-2.22 4.45q-.22.44-.71.37-.73-.1-1.3-.64-.54-.52-.65.22-.23 1.46.48 2.62.26.43-.06.81-.43.53-.42 1.2.02 1.01.82.4 1.01-.77 1.17-2.03.09-.67.68-.35c1.63.85 1.2 2.99 3.59 3.92q.64.25.17.76-.49.53-.06 1.11.35.48-.03.95-.66.81-.75 1.85c-.16 1.76-1.35 3.46-2.49 4.76a.77.76-64.1 0 0 .43 1.26l1.82.32q.48.09.56.57.32 2.02-.53 3.75-.23.49.31.46.7-.02 1.28-.5.77-.64.31-1.5-.26-.46-.12-.98c.65-2.35.79-4.78 3.84-5.09q.52-.05.79-.5.23-.37.3-.82a.44.44 0 0 1 .77-.23l1.48 1.69q.23.26.12.58-.58 1.85 1.53 2.36 1.16.28.62 1.35-.69 1.38.66 3.28.54.76.57-.17l.16-3.94q.02-.43.45-.46l1.98-.13a.37.36-24 0 0 .24-.62l-1.71-1.73q-.45-.46-.99-.1l-.29.19q-.64.43-.72-.34-.14-1.55.74-2.83.35-.52.01-1.04l-.33-.49q-.38-.58.25-.86l2.79-1.21q.95-.42-.05-.69-.14-.03-.29-.05-.56-.07-.82-.58l-1.3-2.58q-.24-.49.15-.87l.19-.2q.7-.69-.2-.29l-2.67 1.18a.45.44 80.3 0 1-.62-.44q.18-3.11 1.55-5.96M240.44 72.09q.76 1.07.05 2.06-.29.4-.01.8.76 1.09 1.92.95a.75.75 0 0 0 .44-1.27q-1.23-1.26-.3-2.54M245.28 72.49l-.16 2.09q-.02.16.15.16h.29q.19.01.23-.18l.32-1.81M254.93 79.76q2.1 5.07-.15 6.66-.45.31-.17.79.58 1 .3 2.25a.67.64-3.6 0 1-.43.47q-.74.23-1.52.11a.88.87-70.9 0 0-.91.45q-.27.51.11.96.44.52 1.13.69.42.1.35.53-.03.17-.11.33-.26.47-.01.93.57 1.1.45 2.39a.78.77 1.7 0 1-.75.7l-2.47.04q-.98.02-.36.78.55.69 1.22 1.26.45.38.38.97-.1.73-.63 1.26-.16.15-.1.37.02.05.06.08.17.15.35.02 1.19-.83 1.26-2.09.02-.48.49-.37 4.58 1.02 3.6 5.84-.06.29.13.53.09.12.27.1.32-.03.43-.33.67-1.79.88-3.55.19-1.54 1.46-2.09.45-.19.21-.61-.37-.68.04-1.33.46-.74-.4-.8-1-.07-1.02-1.15-.02-.69.57-1.06l2.35-1.49a1.21 1.21 0 0 1 1.85.91l.3 3.06q.03.3.32.38.18.05.34-.17a.67.66 32.6 0 1 .88-.19q1.19.71 2.55.57.7-.07.41-.7l-.19-.42q-.36-.78.49-.89.88-.13 1.66.19.52.22.5.78-.04 1.25-.5 2.34-.18.43.1.8l1.07 1.4q.2.27.16.6-.09.67-.74.93a.73.73 0 0 0-.44.79l.08.44a2.34 2.32-37.6 0 1-.18 1.33q-1.21 2.66-1.95 5.78-.11.48-.55.71-.75.37-1.13 1.14-.06.11.04.19l.27.22q.28.21.5-.06.25-.3.62-.41a.45.45 0 0 1 .57.39q.13 1.79 1.66 2.4a1.04 1.03-55.9 0 0 1.12-.22q.76-.77 1.54-.01.38.36.63-.09.21-.37.03-.74-.51-1.03-1.49-1.81a.66.65 40.9 0 1-.07-.95l.57-.63q.46-.5.93-.03 1.62 1.61 4.06 2.54.58.22.77-.36l.34-.99q.13-.4.5-.6.44-.24.88-.03.37.17.36.58 0 4.98-1.15 8.78-.2.64.07 1.26.9 2.04-1.07 2.65-.46.14-.58.61-.03.13-.03.26 0 .76.67.39 1.42-.8 1.93.78.45 1.41.43 3.19-.01.53.48.33l.3-.12a1.1 1.09 72.6 0 0 .65-1.25q-.31-1.44.86-2.38a.74.74 0 0 0 0-1.14q-.58-.48-.97-1.12a.82.8-37.5 0 1 .14-1q1.52-1.45 3.72-.11 1.04.63 1.61-.45l1-1.87a.52.52 0 0 1 .9-.04q2.45 3.78 1.8 8.17-.08.5.29.86.64.6.96 1.38.19.49-.13.89l-.89 1.09q-.33.4-.21.91l.59 2.65q.26 1.17.71.06l.74-1.84a.5.49-62.9 0 0-.19-.61q-.25-.16-.25-.42 0-.4.4-.45 2.99-.39 4.61 1.48.55.64.67-.2.11-.73-.09-1.45-.13-.48-.58-.69-1.97-.91-.92-2.94c.35-.67.24-1.4-.37-1.87a.59.58-49.5 0 0-.79.07q-.19.22-.5.28-.85.18-.58-.64.39-1.15 1.18-2.37.16-.25.44-.37.27-.11.4.05.47.55.75-.11.99-2.32.23-4.07-.27-.64.42-.75l4.43-.68M298.27 198.4q-1.79-1.42-3.3-1.4-1.14.02-.35.85l1.71 1.79a1.06 1.04 29.9 0 1 .27.95q-.39 1.84-.93 3.36-.23.64.36.3.52-.3 1.27-.28M289.38 253.02q-2.92-3.26-1.37-7.15c.54-1.36.38-2.29-.39-3.4q-.45-.64-.5.14l-.11 1.79q-.08 1.12-.69.19-.24-.37-.39-.78-.2-.57-.77-.75-1.08-.34-1.85-1.11a.65.64-44.7 0 1 .01-.92l2.15-2.07q.45-.43.1-.95-.66-.96-1.67-.48-.53.25-.77-.28-.58-1.25-1.59-2.2-.54-.5-.03-1.03l1.83-1.91q.42-.44.2-1.01-.26-.71.01-1.5.38-1.1-.37-.19l-.84 1.02q-.46.56-1.06.16l-2.83-1.91a.84.83-59 0 1-.27-1.09q.91-1.68.96-3.71a1.36 1.35 71.8 0 1 .51-1.02q.56-.45.91-1.09.34-.62-.29-.3-.94.47-1.56-.39-.82-1.14-2.1-1.07-.61.04-.28.56.28.42.3.83.04.58-.21 1.09-.53 1.06-.11 1.34.75.49 0 .99-1.04.68-2.02 1.42-.48.35-1.05.21-2.72-.65-3.42-2.72-.46-1.36-.69.05l-.33 1.95q-.1.56-.65.43-.27-.07-.52.07-.74.41.08.6 1.7.39 2.15 2.29.78 3.31-1.27 4.14-.81.33-.11.86 2.25 1.69 4.84 2.02.69.09.27.65-.9 1.22 0 2.41.27.37-.16.54l-.45.16q-.48.18-.75.61-1.53 2.4-1.19 5.15.02.08-.06.13-.11.08-.25.11a.43.43 0 0 1-.51-.31q-.33-1.25-1.53-1.83-.44-.22-.67-.67l-1.33-2.61q-.37-.73-.54.07-.27 1.3.3 2.4.23.44.05.91l-.68 1.8q-.05.13-.18.19-.13.07-.29.04-.39-.08-.35-.47l.08-.86q.02-.31-.26-.43-.21-.09-.37.01-.18.12-.23.34c-.52 2.15-2.81 1.34-3.18 3.8q-.03.21.13.34.36.29.62-.11.2-.32.56-.41.81-.19.37.52l-2.24 3.6q-.27.43-.34.94-.1.73-.33 1.42-.25.74-.64.07-2.11-3.69-.71-6.99.3-.71-.46-.58-.31.05-.57.27-.32.27-.32.7 0 .23-.14.41-.42.58-.94.07-1.89-1.89-.17-4.61a.41.39 41.7 0 0-.04-.47q-.28-.32-.45-.12-.39.46-.97.32-.65-.15-1.01-.74-.35-.6.23-.98 1.16-.77 1.32-2.08.06-.48-.42-.56-2.03-.35-1.5-2.62.13-.56.7-.67.45-.09.85-.32.42-.25.39-.74-.02-.2-.12-.38-.28-.48-.73-.14l-.31.23a.39.39 0 0 1-.56-.09q-2.4-3.53 1.06-5.78.87-.57-.16-.69-.68-.08-1.14-.64-.59-.74-.85.17-.42 1.47-2.45 2.04-.43.13-.62-.29-.78-1.8-2.38-3.13-.48-.4-.54.22-.08.85.42 1.57.43.62.14 1.31l-1.06 2.57q-.21.51-.09 1.06.36 1.67 1.7 2.27a1.41 1.4 43.3 0 1 .08 2.53q-1.35.7-2.44 1.77-.78.78-.97-.3-.22-1.2-1.21-1.9-.7-.49-.33.28.17.34.27.7.15.58-.28.99-1.39 1.31-2.67.04-.62-.61-.6.26.1 3.05-2.17 5.08a.57.57 0 0 1-.95-.38l-.32-3.74q-.07-.74-.47-.11-.2.32-.21.67-.01 1.18-.95.46-1.04-.79-.38-1.77a.92.91 52.7 0 0 .1-.77c-.41-1.27-.78-2.73-.46-4.06q.25-1-.56-1.74-1.24-1.13.42-1.4.41-.06.62-.42.37-.62-.27-.95-2.05-1.02-1.34-3.73.14-.52.64-.7l.43-.16q.32-.11.2-.43-.64-1.63-.67-3.35a.19.19 0 0 0-.32-.13l-2.54 2.61a1.04 1.04 0 0 1-1.72-.38l-1.35-3.83q-.36-1-.61.03-.34 1.35-1.53 1.76-.53.18-.17.6 2.18 2.55 1.04 5.73-.19.53.25.89.71.57 1.56.84a.83.83 0 0 1 .31 1.39q-1.61 1.52-1.79 3.57-.03.45-.4.71-.48.34-1.04.08-.39-.19-.39-.64.01-1.18-1.13-1.41-.69-.14-.68.57 0 .42.37.68.59.4-.1.6-1.61.48-3.04 2.27-.18.23-.16.51.02.48.51.48 1.1-.02.53.92-.62 1.02-.47 2.26a.73.72 67.8 0 1-.27.66q-.51.41-.98.14-.55-.31-.63-.93l-.18-1.28q-.15-1.1-.9-.28l-.99 1.1q-.85.93-.94-.33l-.16-2.4q-.04-.58-.58-.81l-.66-.3q-.56-.24-.59-.85-.03-.45.22-.8.9-1.28-.66-1.06-.87.12-1.4-.43a.69.68 38.2 0 1-.1-.81c.71-1.28 1.22-2.78-.54-3.55a.47.47 0 0 0-.6.22q-.21.39-.71.14a.58.58 0 0 1-.31-.6l.63-4.74q.05-.37.42-.4.16-.01.32-.08.73-.35-.04-.59-2.01-.64-2.4-3.26-.17-1.13-1.32-1.09a.32.31 76.1 0 0-.27.46q.84 1.66.75 3.54-.02.53.3.96l.24.32q.51.67-.33.64-2.72-.11-2.3 2.75.14.98-.91 1.8M80.56 148.97q.38.02.69-.11.58-.24.18-.72-.33-.39-1.12-.29" vector-effect="non-scaling-stroke"/><path d="M80.07 147.03q.23.2.38-.05 1.59-2.76 2.83-5.84.19-.46.08-.95l-.55-2.47q-.35-1.56-.66.01-.17.85-.01 1.69a.38.38 0 0 1-.48.44q-1.66-.5-1.19-1.98a.99.97-55.6 0 0-.16-.89l-.89-1.13a.72.71 59 0 1 .27-1.1q4.16-1.83 2.71-5.98c-.42-1.22.24-2.48.79-3.53a.87.87 0 0 1 1.6.15q.26.83.35 1.72.11 1.09.8.24.12-.14.37-.09.47.09.5.57.09 1.2.63 2.29a1.52 1.46 34.7 0 1 .15.73q-.17 2.73 1.95 4.25.49.36.45.97-.02.3.22.54.46.43.59-.19.4-1.91-.37-3.56a1.06 1.02 44 0 1-.03-.84q.25-.64.91-.71.39-.04.7.2 1.23.92 2.2-.27a.38.37-36.8 0 1 .64.09q1.46 3.61-.24 6.73a1.01 1.01 0 0 0 0 .96q.41.75.52 1.57a.25.25 0 0 0 .32.21l.27-.09q.24-.07.19-.31-.21-.95.14-1.84.38-.95.69.03.47 1.47 2.11 1.77a1.06 1.06 0 0 1 .55 1.8l-1.83 1.79q-.42.41-.16.93.26.51.79.73.31.13.59-.04.11-.07.21-.14.61-.42.87.27.42 1.13 1.22 1.83 1.43 1.27-.23 2.2-2.08 1.16-1.24 2.79a.38.36 68.5 0 1-.22.53q-.34.09-.22.46.23.68.69.13l1.02-1.19a.73.72-46.5 0 1 1.07-.03q1.14 1.19 2.61 1.85.68.3.34.97-.94 1.81-1.21 4a1.73 1.7 68.1 0 1-.35.84l-.87 1.12q-.66.86.27.31l.3-.18q.47-.25.84.13.71.74 1.65 1.35.38.25.83.15a.4.4 0 0 0 .22-.65q-.16-.19-.23-.43a.98.96-37.4 0 1 .11-.76q.72-1.17.01-2.33-.28-.44.21-.63 1.21-.46 2.04-1.5.34-.42.86-.28 2.89.8 3.68 3.07.27.78.59.01.2-.48.08-1a1.18 1.17-17.8 0 1 .72-1.38q.36-.14.73-.32.86-.42-.08-.61l-.71-.14q-.64-.12-.93-.7-1.02-2.11-.56-4.62.09-.51.58-.68l.74-.26a.48.48 0 0 0 .13-.84q-2.44-1.84-5.04-2.04a.36.36 0 0 1-.23-.61q1.18-1.22.07-2.45a.37.37 0 0 1 .17-.6l.43-.12a1.47 1.42 6.7 0 0 .79-.6q1.51-2.31 1.28-5.2-.02-.19.17-.19l.4-.02q.29-.01.3.28.05 1.27 1.19 1.7.52.19.77.69l1.43 2.8q.37.74.59-.06.38-1.41-.48-2.62-.28-.4.02-.78.54-.7.71-1.64.13-.69.62-.19.38.39.24 1.06-.19.98.66.44.25-.15.19-.45-.12-.72.52-1.05.78-.4 1.56-.84.88-.5.86-1.45-.03-1.18-.76-.25-.15.2-.42.18-.69-.06-.32-.64l2.39-3.68a1.56 1.52-29.7 0 0 .25-.87q-.01-.76.27-1.43.28-.69.63-.04 2.12 3.93.49 7.2-.27.56.35.53.49-.02.88-.22.52-.28.46-.87-.05-.37.23-.59.42-.35.77.08 1.78 2.23.06 4.63-.13.19-.05.4.05.13.15.23.29.32.62.05.94-.77 1.78.33.39.51-.06.96l-1.2 1.2a1 .99-58.8 0 0 .4 1.65q1.69.55 1.23 2.41-.14.57-.72.69-.87.19-1.17 1-.12.31.08.59.14.21.38.15a1.12 1.04-70.3 0 0 .5-.26q.11-.11.25-.18.52-.3.63.28.18.9.71 1.64a1.27 1.23 34 0 1 .21 1q-.56 2.66-2.17 3.11-1.09.31 0 .6.85.24 1.51.79.51.41.7-.21.44-1.46 2.51-2.12.38-.12.52.26.68 1.94 2.42 3.2.76.56.57-.37-.21-1.02-.59-2.02-.24-.62.14-1.16 1.65-2.35.28-4.83-.2-.36-.6-.47-1.44-.37-1.13-1.99.13-.64.75-.87 1.49-.55 2.55-1.73a.4.4 0 0 1 .69.22q.16 1.35 1.33 2.17.43.29.37-.22-.03-.33-.26-.57a.7.69 42.2 0 1-.05-.89q1.34-1.74 3-.25a.39.39 0 0 0 .65-.34q-.46-3.37 2.31-5.24a.41.41 0 0 1 .64.33l.19 4q.01.18.18.19l.4.04q.25.02.28-.24l.11-.97q.08-.71.66-.28 1.2.91.49 2.12-.22.38-.05.78.9 2.09.32 4.27-.15.53.18.98.27.37.69.55a.54.53-34 0 1-.2 1.02q-.87.04-1.09.81-.16.51.33.75l.92.46q.51.25.51.82v2.37q0 .6-.58.77l-.48.14a.48.48 0 0 0-.3.66q.64 1.41.7 3.02a.2.2 0 0 0 .34.14l2.94-2.74a.75.74-27.8 0 1 1.24.38q.41 1.93 1.38 3.73.72 1.37.83-.17.08-1.14 1.19-1.25.92-.09.27-.74-2.03-2.07-.94-5.27a.99.97-51.5 0 0-.09-.85q-.56-.89-1.61-1.12a.93.93 0 0 1-.39-1.64q1.64-1.31 1.68-3.32.02-.51.38-.83.3-.26.7-.18.55.11.71.64.13.42.3.83.2.52.77.61.35.06.64-.14.45-.31.07-.71l-.25-.27q-.49-.53.2-.74 1.83-.58 2.99-2.51.31-.52-.29-.62l-.5-.09q-.74-.12-.34-.75.7-1.11.65-2.45a.74.71 69.8 0 1 .27-.61q.52-.42.97-.16.45.25.59.76.21.76.23 1.58.02.8.68.35.67-.47 1.14-1.22.25-.41.69-.19.38.19.32.64-.37 2.68 1.52 3.49.54.23.44.8-.09.51-.38.93-.41.59.29.73l1.42.29a.86.86 0 0 1 .51 1.37q-1.24 1.61.2 3.02.56.55 1.01-.09.12-.17.33-.19.65-.04.66.62.01 1.96-.66 3.52a.62.62 0 0 0 .2.73q.42.33.24.8-.16.41-.59.27-.19-.07-.4.01-.78.33.02.6 2.13.71 2.36 3.52a.73.72 2.5 0 0 .61.66l.43.07q.44.08.37-.36l-.73-4.22q-.06-.3-.32-.46-.22-.13-.22-.4a.54.53 5.2 0 1 .64-.53q.76.16 1.5-.13.45-.18.48-.67l.17-2.62a.73.72-75.3 0 1 1.04-.61l3.36 1.66a.73.72 21.7 0 0 1.01-.43l1.38-4.3q.25-.8-.51-.44-2.22 1.05-3.89-1.63-.23-.37-.02-.76.63-1.16.57-2.55-.02-.44-.45-.33-2.31.61-2.78 2.4-.06.23-.27.25-.22.02-.44-.21-.17-.18-.16-.43l.28-6.75q.02-.51.53-.54l1.52-.11q.64-.04.25-.55l-.16-.22q-.33-.44-.24-.98l.87-5.14q.21-1.24-.84-.56l-.36.24q-.59.38-.69-.32-.19-1.36 0-2.72.12-.83.75-.28c.35.31.68.58 1.14.71q.31.08.58-.11.46-.32.1-.76l-.25-.31q-.41-.51.22-.69 1.56-.45 2.53-1.89a.41.41 0 0 1 .71.04q.23.46.17 1.04-.03.3.27.36l.45.09q.37.07.36-.31l-.03-.93q0-.26.22-.38.19-.1.36 0 .26.14.32.43.19.87.13 1.79-.01.1.04.17.09.13.22.17.3.08.43-.2l1.49-3.22a.79.79 0 0 1 1.47.1q.38 1.29 1.25 2.18.3.31.62.03 1.24-1.06 3.07.09a.18.18 0 0 0 .2-.29q-1.51-1.13-2.18-2.97-.19-.51-.57-.13l-.3.31q-.34.34-.7.02-.33-.3-.07-.7 1.12-1.7-.39-2.81-.35-.26-.25-.68.67-2.85 2.38-5.22a.81.81 0 0 0-.58-1.28q-.66-.06-1.16-.48-.91-.76-.98.42-.17 3.17-2.4 2.59-.6-.16-.6.46l-.03 2.29q-.01.72-.66.39-1.51-.77-1.99-2.2-.58-1.73-1.39-3.58-.28-.64-.94-.85-.59-.19-1.2-.08a.43.43 0 0 1-.43-.18q-.24-.34-.03-.58.39-.44.1-.95l-.3-.54q-.28-.51-.01-1.03l1.99-3.86q.26-.5.05-1.02l-.12-.31q-.22-.54.14-1 .81-1.02 1.53-2.09.23-.34.15-.75-.11-.59-.58-.22-.7.56-1.57.56-.75 0-.79-.74-.04-.94-.86-1.37a.53.53 0 0 0-.66.14q-.37.45-.04.91.45.62-.05 1.19-.73.85-.08 1.69 1.11 1.45-.67 1.01-.46-.11-.86-.34-.48-.28-.87.12l-.99 1.02q-.5.51-.71-.17l-1.53-4.96q-.2-.64-.66-.15-1.39 1.47-.47 2.98.28.47-.14.82-1.08.89-2.5.89a.53.51 15 0 0-.45.25q-.29.5.15.78a.74.73-78.4 0 1 .34.52q.11.87-.41 1.48a.78.77-41.5 0 0-.06.92q.38.59 1.06.74a.47.46 19.1 0 0 .51-.24q.11-.22.33-.25.7-.08.54.61-.69 2.85-3.24 3.96-.55.24-.6-.36l-.21-2.55q-.03-.4-.43-.34-1.41.19-2.88-.78-.4-.26-.15-.68.32-.52.03-1.05-.27-.51.06-.98l1.25-1.77q.47-.66-.32-.86-.37-.09-.57.15-.51.62-.75-.15-.22-.73.34-1.33a.82.82 0 0 0-.25-1.3q-2.22-1.02-3.2-3.61a.78.77 73.4 0 1 .56-1.04c1.25-.28 1.44-1.6 2.57-2.26q1.27-.75 2.4-.31a.34.33 7.4 0 0 .46-.35q-.23-2.01.54-3.66.19-.41-.25-.48-.99-.16-1.53.72-.07.12-.21.1t-.25-.12q-.37-.31.04-.57.99-.63.01-1.35-.65-.48-.3-1.2.33-.67 1.15-.77.77-.09.28-.69-.73-.89-.12-1.9c.84-1.37.77-3.17.17-4.62M174.89 71.63q-.07.77-.41 1.32-.23.39 0 .78.15.25.47.2.82-.12 1.4-.67.64-.6.68.27l.1 2q.01.21.21.23l.33.05q.1.01.12-.09l.21-1.14a.88.87-85.8 0 1 .82-.71q.36-.02.71.14a.85.85 0 0 1 .5.76l.03 1.48q.02.9.72.33.85-.68 1.54.24.26.34.47-.02l.15-.24q.01-.01-.01-.03l-1.42-1.32q-.46-.44-.17-1l1.96-3.7M163.98 76.31q-.06.58.1.96.2.46.7.4l1.44-.18M219.47 310.18q-1.66-1.34-.67-2.86.47-.73.13-1.89a.43.43 0 0 0-.74-.15q-.57.7-1.43.71a.67.66-2.2 0 1-.69-.63q-.12-2.76.6-5.19.14-.48-.01-.96l-.14-.46q-.2-.63.45-.76.61-.12.85-.67a.95.94-59.3 0 0-.28-1.13q-1.03-.81.1-1.44.24-.13.13-.38-.06-.13-.17-.2-.4-.24-.61.17-.4.76-1.23.61-.46-.08-.26-.5.8-1.62.52-3.61a.42.42 0 0 1 .6-.44q1.19.58 2.2-.36 1.41-1.31 2.91-2.44.46-.35.21-.86-.53-1.12-1.23-2.12c-.45-.65-1.51-.93-2.15-1.48q-.51-.43-.15-.99.3-.46.52-.96.2-.46-.13-.83-.23-.26-.54-.08l-.41.24q-.49.29-.75-.22-.16-.31.03-.63.46-.82 1.16-1.43.61-.54.22-1.25-.28-.5.08-.93.46-.56-.16-.92-1.47-.87-2.76-.62-.64.13-.66-.52l-.06-2.47q-.02-.55-.54-.36-2.57.95-3.33 3.64-.43 1.5.94.74.75-.41 1.37.26.46.5.08 1.05-.83 1.22.09 2.4.46.59-.28.68l-1.8.23a1.27 1.27 0 0 0-.94 1.88q.83 1.46-.58 2.64-.56.46-.76-.23l-1.41-4.72q-.24-.8-.83-.21l-.98.98q-.48.47-.99.04-.48-.39-1.08-.45-.86-.09-.46.68l.48.91q.34.65-.22 1.12-.74.62-.25 1.37.46.71-.36.9-.34.08-.64-.08-.53-.29-.51-.9.01-.5-.29-.88-.38-.48-.9-.13-.48.33-1.07.45-1.38.27-.55-.85l1.55-2.09q.31-.41.13-.91l-.2-.56q-.14-.42.06-.8l2.1-3.92q.33-.61-.1-1.15-.55-.7-.07-1.41.46-.69-.36-.78l-1.42-.15q-.54-.06-.71-.57l-1.67-4.96M205.4 247.75q1.72-8.08-1.08-13.74M215 311.52v-.34a1.03.97 46.9 0 0-2-.13l-.02 1.13M210.89 312.61q.15-.59-.03-.93-.29-.53-.7-.1l-1.51 1.55q-.6.62-.69-.23-.18-1.68.53-3.12.5-1.01-.57-.65l-1.28.42q-.57.2-.65-.4l-.19-1.64a.32.31-41.9 0 0-.62-.03l-.19.78q-.16.64-.8.75-.48.08-.83-.24-.37-.33-.41-.86-.04-.63-.06-1.21-.02-.7-.62-.34-.78.46-1.66.04-.84-.4-.3.35.42.58 1.02 1.03.41.31.24.79-.72 2.02-1.81 3.28-.39.46.03.88l2.15 2.16M236.86 81.51a.44.44 0 0 0-.44-.44.44.44 0 0 0-.44.44.44.44 0 0 0 .44.44.44.44 0 0 0 .44-.44M217.2 92.56q.11.52.56.1.25-.23-.05-.39-.24-.12-.41.01-.14.11-.1.28" vector-effect="non-scaling-stroke"/><path d="M180.13 96.46q-.12.43.31.5a.33.31-71.3 0 0 .34-.18q.27-.57-.33-.57a.34.33-81.9 0 0-.32.25M184.41 113.68q.09-.04.1-.14.04-.2-.12-.08-.2.14-.17.07.03-.08.04.01 0 .05.02.09.03.11.13.05M267.83 115.52a.36.36 0 0 0-.36-.36.36.36 0 0 0-.36.36.36.36 0 0 0 .36.36.36.36 0 0 0 .36-.36M271.4 117.2q-.6.39-.97 1.03-.43.76.34.34.7-.39.97-1.09.24-.64-.34-.28M191.33 128.75q.29.13.47-.08a.28.28 0 0 0-.21-.45q-.21 0-.35.18-.17.23.09.35M88.579 136.84a.87.47 88.1 0 0 .44-.886.87.47 88.1 0 0-.498-.853.87.47 88.1 0 0-.44.885.87.47 88.1 0 0 .498.853M82.36 145.69q.25.07.3-.19.04-.19-.12-.3-.43-.31-.4.21.01.22.22.28M184.24 155.61q.52.45 1.22.25.77-.22.15-.73-.58-.47-1.29-.12-.49.24-.08.6M130.87 157.48a.37.37 0 0 0-.37-.37.37.37 0 0 0-.37.37.37.37 0 0 0 .37.37.37.37 0 0 0 .37-.37M136.67 158.31q-.42-.21-.49.22-.01.06.01.12.18.34.52.07.3-.24-.04-.41M102.32 159.72q.15.23.39.11.25-.13.1-.37-.11-.16-.29-.15a.27.27 0 0 0-.2.41M296.24 195.48a.28.28 0 0 0 .3.3q.21-.02.27-.24a.28.28 0 0 0-.32-.34q-.23.04-.25.28M280.31 223.19q-.39.16-.08.44a.27.26-73.5 0 0 .44-.24q-.06-.32-.36-.2M246.61 224.69q.07-.26-.19-.27-.17 0-.14.17.04.18.22.18.09.01.11-.08M252.77 225.53q-.49-.54-.47-.01.01.51.44.23.15-.09.03-.22M151.14 158.41q-.06.38.2.59a.37.37 0 0 0 .5-.02q.3-.31.01-.63-.13-.15-.35-.19a.31.3 10.1 0 0-.36.25M231.07 224.42q-.01.27.22.39.21.11.42 0a.42.42 0 0 0-.02-.76q-.59-.28-.62.37M202.822 286.293a.4.32-36.4 0 0-.512-.02.4.32-36.4 0 0-.132.494.4.32-36.4 0 0 .512.02.4.32-36.4 0 0 .132-.494" vector-effect="non-scaling-stroke"/></g><path d="M219.55 69.77q-.17.66 1.21 1.04a.28.27-68.8 0 1 .17.39l-2.22 4.45q-.22.44-.71.37-.73-.1-1.3-.64-.54-.52-.65.22-.23 1.46.48 2.62.26.43-.06.81-.43.53-.42 1.2.02 1.01.82.4 1.01-.77 1.17-2.03.09-.67.68-.35c1.63.85 1.2 2.99 3.59 3.92q.64.25.17.76-.49.53-.06 1.11.35.48-.03.95-.66.81-.75 1.85c-.16 1.76-1.35 3.46-2.49 4.76a.77.76-64.1 0 0 .43 1.26l1.82.32q.48.09.56.57.32 2.02-.53 3.75-.23.49.31.46.7-.02 1.28-.5.77-.64.31-1.5-.26-.46-.12-.98c.65-2.35.79-4.78 3.84-5.09q.52-.05.79-.5.23-.37.3-.82a.44.44 0 0 1 .77-.23l1.48 1.69q.23.26.12.58-.58 1.85 1.53 2.36 1.16.28.62 1.35-.69 1.38.66 3.28.54.76.57-.17l.16-3.94q.02-.43.45-.46l1.98-.13a.37.36-24 0 0 .24-.62l-1.71-1.73q-.45-.46-.99-.1l-.29.19q-.64.43-.72-.34-.14-1.55.74-2.83.35-.52.01-1.04l-.33-.49q-.38-.58.25-.86l2.79-1.21q.95-.42-.05-.69-.14-.03-.29-.05-.56-.07-.82-.58l-1.3-2.58q-.24-.49.15-.87l.19-.2q.7-.69-.2-.29l-2.67 1.18a.45.44 80.3 0 1-.62-.44q.18-3.11 1.55-5.96 3.95-1.43 8.03-1.3.76 1.07.05 2.06-.29.4-.01.8.76 1.09 1.92.95a.75.75 0 0 0 .44-1.27q-1.23-1.26-.3-2.54 1.63-.25 2.74.4l-.16 2.09q-.02.16.15.16h.29q.19.01.23-.18l.32-1.81 8.82 7.01q2.1 5.07-.15 6.66-.45.31-.17.79.58 1 .3 2.25a.67.64-3.6 0 1-.43.47q-.74.23-1.52.11a.88.87-70.9 0 0-.91.45q-.27.51.11.96.44.52 1.13.69.42.1.35.53-.03.17-.11.33-.26.47-.01.93.57 1.1.45 2.39a.78.77 1.7 0 1-.75.7l-2.47.04q-.98.02-.36.78.55.69 1.22 1.26.45.38.38.97-.1.73-.63 1.26-.16.15-.1.37.02.05.06.08.17.15.35.02 1.19-.83 1.26-2.09.02-.48.49-.37 4.58 1.02 3.6 5.84-.06.29.13.53.09.12.27.1.32-.03.43-.33.67-1.79.88-3.55.19-1.54 1.46-2.09.45-.19.21-.61-.37-.68.04-1.33.46-.74-.4-.8-1-.07-1.02-1.15-.02-.69.57-1.06l2.35-1.49a1.21 1.21 0 0 1 1.85.91l.3 3.06q.03.3.32.38.18.05.34-.17a.67.66 32.6 0 1 .88-.19q1.19.71 2.55.57.7-.07.41-.7l-.19-.42q-.36-.78.49-.89.88-.13 1.66.19.52.22.5.78-.04 1.25-.5 2.34-.18.43.1.8l1.07 1.4q.2.27.16.6-.09.67-.74.93a.73.73 0 0 0-.44.79l.08.44a2.34 2.32-37.6 0 1-.18 1.33q-1.21 2.66-1.95 5.78-.11.48-.55.71-.75.37-1.13 1.14-.06.11.04.19l.27.22q.28.21.5-.06.25-.3.62-.41a.45.45 0 0 1 .57.39q.13 1.79 1.66 2.4a1.04 1.03-55.9 0 0 1.12-.22q.76-.77 1.54-.01.38.36.63-.09.21-.37.03-.74-.51-1.03-1.49-1.81a.66.65 40.9 0 1-.07-.95l.57-.63q.46-.5.93-.03 1.62 1.61 4.06 2.54.58.22.77-.36l.34-.99q.13-.4.5-.6.44-.24.88-.03.37.17.36.58 0 4.98-1.15 8.78-.2.64.07 1.26.9 2.04-1.07 2.65-.46.14-.58.61-.03.13-.03.26 0 .76.67.39 1.42-.8 1.93.78.45 1.41.43 3.19-.01.53.48.33l.3-.12a1.1 1.09 72.6 0 0 .65-1.25q-.31-1.44.86-2.38a.74.74 0 0 0 0-1.14q-.58-.48-.97-1.12a.82.8-37.5 0 1 .14-1q1.52-1.45 3.72-.11 1.04.63 1.61-.45l1-1.87a.52.52 0 0 1 .9-.04q2.45 3.78 1.8 8.17-.08.5.29.86.64.6.96 1.38.19.49-.13.89l-.89 1.09q-.33.4-.21.91l.59 2.65q.26 1.17.71.06l.74-1.84a.5.49-62.9 0 0-.19-.61q-.25-.16-.25-.42 0-.4.4-.45 2.99-.39 4.61 1.48.55.64.67-.2.11-.73-.09-1.45-.13-.48-.58-.69-1.97-.91-.92-2.94c.35-.67.24-1.4-.37-1.87a.59.58-49.5 0 0-.79.07q-.19.22-.5.28-.85.18-.58-.64.39-1.15 1.18-2.37.16-.25.44-.37.27-.11.4.05.47.55.75-.11.99-2.32.23-4.07-.27-.64.42-.75l4.43-.68q-.38 7.43-1.81 14.75c-.33 1.7 1.82 4.58 2.74 5.92q.38.56.37 1.24-.06 8.92.04 17.4.06 4.73-1.32 12.41-2.4 13.37-4.63 26.91-1.79-1.42-3.3-1.4-1.14.02-.35.85l1.71 1.79a1.06 1.04 29.9 0 1 .27.95q-.39 1.84-.93 3.36-.23.64.36.3.52-.3 1.27-.28l-7.92 49.05q-2.92-3.26-1.37-7.15c.54-1.36.38-2.29-.39-3.4q-.45-.64-.5.14l-.11 1.79q-.08 1.12-.69.19-.24-.37-.39-.78-.2-.57-.77-.75-1.08-.34-1.85-1.11a.65.64-44.7 0 1 .01-.92l2.15-2.07q.45-.43.1-.95-.66-.96-1.67-.48-.53.25-.77-.28-.58-1.25-1.59-2.2-.54-.5-.03-1.03l1.83-1.91q.42-.44.2-1.01-.26-.71.01-1.5.38-1.1-.37-.19l-.84 1.02q-.46.56-1.06.16l-2.83-1.91a.84.83-59 0 1-.27-1.09q.91-1.68.96-3.71a1.36 1.35 71.8 0 1 .51-1.02q.56-.45.91-1.09.34-.62-.29-.3-.94.47-1.56-.39-.82-1.14-2.1-1.07-.61.04-.28.56.28.42.3.83.04.58-.21 1.09-.53 1.06-.11 1.34.75.49 0 .99-1.04.68-2.02 1.42-.48.35-1.05.21-2.72-.65-3.42-2.72-.46-1.36-.69.05l-.33 1.95q-.1.56-.65.43-.27-.07-.52.07-.74.41.08.6 1.7.39 2.15 2.29.78 3.31-1.27 4.14-.81.33-.11.86 2.25 1.69 4.84 2.02.69.09.27.65-.9 1.22 0 2.41.27.37-.16.54l-.45.16q-.48.18-.75.61-1.53 2.4-1.19 5.15.02.08-.06.13-.11.08-.25.11a.43.43 0 0 1-.51-.31q-.33-1.25-1.53-1.83-.44-.22-.67-.67l-1.33-2.61q-.37-.73-.54.07-.27 1.3.3 2.4.23.44.05.91l-.68 1.8q-.05.13-.18.19-.13.07-.29.04-.39-.08-.35-.47l.08-.86q.02-.31-.26-.43-.21-.09-.37.01-.18.12-.23.34c-.52 2.15-2.81 1.34-3.18 3.8q-.03.21.13.34.36.29.62-.11.2-.32.56-.41.81-.19.37.52l-2.24 3.6q-.27.43-.34.94-.1.73-.33 1.42-.25.74-.64.07-2.11-3.69-.71-6.99.3-.71-.46-.58-.31.05-.57.27-.32.27-.32.7 0 .23-.14.41-.42.58-.94.07-1.89-1.89-.17-4.61a.41.39 41.7 0 0-.04-.47q-.28-.32-.45-.12-.39.46-.97.32-.65-.15-1.01-.74-.35-.6.23-.98 1.16-.77 1.32-2.08.06-.48-.42-.56-2.03-.35-1.5-2.62.13-.56.7-.67.45-.09.85-.32.42-.25.39-.74-.02-.2-.12-.38-.28-.48-.73-.14l-.31.23a.39.39 0 0 1-.56-.09q-2.4-3.53 1.06-5.78.87-.57-.16-.69-.68-.08-1.14-.64-.59-.74-.85.17-.42 1.47-2.45 2.04-.43.13-.62-.29-.78-1.8-2.38-3.13-.48-.4-.54.22-.08.85.42 1.57.43.62.14 1.31l-1.06 2.57q-.21.51-.09 1.06.36 1.67 1.7 2.27a1.41 1.4 43.3 0 1 .08 2.53q-1.35.7-2.44 1.77-.78.78-.97-.3-.22-1.2-1.21-1.9-.7-.49-.33.28.17.34.27.7.15.58-.28.99-1.39 1.31-2.67.04-.62-.61-.6.26.1 3.05-2.17 5.08a.57.57 0 0 1-.95-.38l-.32-3.74q-.07-.74-.47-.11-.2.32-.21.67-.01 1.18-.95.46-1.04-.79-.38-1.77a.92.91 52.7 0 0 .1-.77c-.41-1.27-.78-2.73-.46-4.06q.25-1-.56-1.74-1.24-1.13.42-1.4.41-.06.62-.42.37-.62-.27-.95-2.05-1.02-1.34-3.73.14-.52.64-.7l.43-.16q.32-.11.2-.43-.64-1.63-.67-3.35a.19.19 0 0 0-.32-.13l-2.54 2.61a1.04 1.04 0 0 1-1.72-.38l-1.35-3.83q-.36-1-.61.03-.34 1.35-1.53 1.76-.53.18-.17.6 2.18 2.55 1.04 5.73-.19.53.25.89.71.57 1.56.84a.83.83 0 0 1 .31 1.39q-1.61 1.52-1.79 3.57-.03.45-.4.71-.48.34-1.04.08-.39-.19-.39-.64.01-1.18-1.13-1.41-.69-.14-.68.57 0 .42.37.68.59.4-.1.6-1.61.48-3.04 2.27-.18.23-.16.51.02.48.51.48 1.1-.02.53.92-.62 1.02-.47 2.26a.73.72 67.8 0 1-.27.66q-.51.41-.98.14-.55-.31-.63-.93l-.18-1.28q-.15-1.1-.9-.28l-.99 1.1q-.85.93-.94-.33l-.16-2.4q-.04-.58-.58-.81l-.66-.3q-.56-.24-.59-.85-.03-.45.22-.8.9-1.28-.66-1.06-.87.12-1.4-.43a.69.68 38.2 0 1-.1-.81c.71-1.28 1.22-2.78-.54-3.55a.47.47 0 0 0-.6.22q-.21.39-.71.14a.58.58 0 0 1-.31-.6l.63-4.74q.05-.37.42-.4.16-.01.32-.08.73-.35-.04-.59-2.01-.64-2.4-3.26-.17-1.13-1.32-1.09a.32.31 76.1 0 0-.27.46q.84 1.66.75 3.54-.02.53.3.96l.24.32q.51.67-.33.64-2.72-.11-2.3 2.75.14.98-.91 1.8-.9-5.37-1.32-7.06-2.03-8.15-10.32-10.9-3.47-1.15-10.11-1.86-5.77-.61-10.19-.56c-6.25.08-11.97.82-17.22-3.45q-13.45-10.94-18.91-14.9-13.83-10.04-30.31-11.56-5.69-.53-9.23-1.76-12.76-4.41-15.29-17.82-.69-3.67-.19-9.47.04-.46-.37-2.05.38.02.69-.11.58-.24.18-.72-.33-.39-1.12-.29-.22-.38-.24-.82.23.2.38-.05 1.59-2.76 2.83-5.84.19-.46.08-.95l-.55-2.47q-.35-1.56-.66.01-.17.85-.01 1.69a.38.38 0 0 1-.48.44q-1.66-.5-1.19-1.98a.99.97-55.6 0 0-.16-.89l-.89-1.13a.72.71 59 0 1 .27-1.1q4.16-1.83 2.71-5.98c-.42-1.22.24-2.48.79-3.53a.87.87 0 0 1 1.6.15q.26.83.35 1.72.11 1.09.8.24.12-.14.37-.09.47.09.5.57.09 1.2.63 2.29a1.52 1.46 34.7 0 1 .15.73q-.17 2.73 1.95 4.25.49.36.45.97-.02.3.22.54.46.43.59-.19.4-1.91-.37-3.56a1.06 1.02 44 0 1-.03-.84q.25-.64.91-.71.39-.04.7.2 1.23.92 2.2-.27a.38.37-36.8 0 1 .64.09q1.46 3.61-.24 6.73a1.01 1.01 0 0 0 0 .96q.41.75.52 1.57a.25.25 0 0 0 .32.21l.27-.09q.24-.07.19-.31-.21-.95.14-1.84.38-.95.69.03.47 1.47 2.11 1.77a1.06 1.06 0 0 1 .55 1.8l-1.83 1.79q-.42.41-.16.93.26.51.79.73.31.13.59-.04.11-.07.21-.14.61-.42.87.27.42 1.13 1.22 1.83 1.43 1.27-.23 2.2-2.08 1.16-1.24 2.79a.38.36 68.5 0 1-.22.53q-.34.09-.22.46.23.68.69.13l1.02-1.19a.73.72-46.5 0 1 1.07-.03q1.14 1.19 2.61 1.85.68.3.34.97-.94 1.81-1.21 4a1.73 1.7 68.1 0 1-.35.84l-.87 1.12q-.66.86.27.31l.3-.18q.47-.25.84.13.71.74 1.65 1.35.38.25.83.15a.4.4 0 0 0 .22-.65q-.16-.19-.23-.43a.98.96-37.4 0 1 .11-.76q.72-1.17.01-2.33-.28-.44.21-.63 1.21-.46 2.04-1.5.34-.42.86-.28 2.89.8 3.68 3.07.27.78.59.01.2-.48.08-1a1.18 1.17-17.8 0 1 .72-1.38q.36-.14.73-.32.86-.42-.08-.61l-.71-.14q-.64-.12-.93-.7-1.02-2.11-.56-4.62.09-.51.58-.68l.74-.26a.48.48 0 0 0 .13-.84q-2.44-1.84-5.04-2.04a.36.36 0 0 1-.23-.61q1.18-1.22.07-2.45a.37.37 0 0 1 .17-.6l.43-.12a1.47 1.42 6.7 0 0 .79-.6q1.51-2.31 1.28-5.2-.02-.19.17-.19l.4-.02q.29-.01.3.28.05 1.27 1.19 1.7.52.19.77.69l1.43 2.8q.37.74.59-.06.38-1.41-.48-2.62-.28-.4.02-.78.54-.7.71-1.64.13-.69.62-.19.38.39.24 1.06-.19.98.66.44.25-.15.19-.45-.12-.72.52-1.05.78-.4 1.56-.84.88-.5.86-1.45-.03-1.18-.76-.25-.15.2-.42.18-.69-.06-.32-.64l2.39-3.68a1.56 1.52-29.7 0 0 .25-.87q-.01-.76.27-1.43.28-.69.63-.04 2.12 3.93.49 7.2-.27.56.35.53.49-.02.88-.22.52-.28.46-.87-.05-.37.23-.59.42-.35.77.08 1.78 2.23.06 4.63-.13.19-.05.4.05.13.15.23.29.32.62.05.94-.77 1.78.33.39.51-.06.96l-1.2 1.2a1 .99-58.8 0 0 .4 1.65q1.69.55 1.23 2.41-.14.57-.72.69-.87.19-1.17 1-.12.31.08.59.14.21.38.15a1.12 1.04-70.3 0 0 .5-.26q.11-.11.25-.18.52-.3.63.28.18.9.71 1.64a1.27 1.23 34 0 1 .21 1q-.56 2.66-2.17 3.11-1.09.31 0 .6.85.24 1.51.79.51.41.7-.21.44-1.46 2.51-2.12.38-.12.52.26.68 1.94 2.42 3.2.76.56.57-.37-.21-1.02-.59-2.02-.24-.62.14-1.16 1.65-2.35.28-4.83-.2-.36-.6-.47-1.44-.37-1.13-1.99.13-.64.75-.87 1.49-.55 2.55-1.73a.4.4 0 0 1 .69.22q.16 1.35 1.33 2.17.43.29.37-.22-.03-.33-.26-.57a.7.69 42.2 0 1-.05-.89q1.34-1.74 3-.25a.39.39 0 0 0 .65-.34q-.46-3.37 2.31-5.24a.41.41 0 0 1 .64.33l.19 4q.01.18.18.19l.4.04q.25.02.28-.24l.11-.97q.08-.71.66-.28 1.2.91.49 2.12-.22.38-.05.78.9 2.09.32 4.27-.15.53.18.98.27.37.69.55a.54.53-34 0 1-.2 1.02q-.87.04-1.09.81-.16.51.33.75l.92.46q.51.25.51.82v2.37q0 .6-.58.77l-.48.14a.48.48 0 0 0-.3.66q.64 1.41.7 3.02a.2.2 0 0 0 .34.14l2.94-2.74a.75.74-27.8 0 1 1.24.38q.41 1.93 1.38 3.73.72 1.37.83-.17.08-1.14 1.19-1.25.92-.09.27-.74-2.03-2.07-.94-5.27a.99.97-51.5 0 0-.09-.85q-.56-.89-1.61-1.12a.93.93 0 0 1-.39-1.64q1.64-1.31 1.68-3.32.02-.51.38-.83.3-.26.7-.18.55.11.71.64.13.42.3.83.2.52.77.61.35.06.64-.14.45-.31.07-.71l-.25-.27q-.49-.53.2-.74 1.83-.58 2.99-2.51.31-.52-.29-.62l-.5-.09q-.74-.12-.34-.75.7-1.11.65-2.45a.74.71 69.8 0 1 .27-.61q.52-.42.97-.16.45.25.59.76.21.76.23 1.58.02.8.68.35.67-.47 1.14-1.22.25-.41.69-.19.38.19.32.64-.37 2.68 1.52 3.49.54.23.44.8-.09.51-.38.93-.41.59.29.73l1.42.29a.86.86 0 0 1 .51 1.37q-1.24 1.61.2 3.02.56.55 1.01-.09.12-.17.33-.19.65-.04.66.62.01 1.96-.66 3.52a.62.62 0 0 0 .2.73q.42.33.24.8-.16.41-.59.27-.19-.07-.4.01-.78.33.02.6 2.13.71 2.36 3.52a.73.72 2.5 0 0 .61.66l.43.07q.44.08.37-.36l-.73-4.22q-.06-.3-.32-.46-.22-.13-.22-.4a.54.53 5.2 0 1 .64-.53q.76.16 1.5-.13.45-.18.48-.67l.17-2.62a.73.72-75.3 0 1 1.04-.61l3.36 1.66a.73.72 21.7 0 0 1.01-.43l1.38-4.3q.25-.8-.51-.44-2.22 1.05-3.89-1.63-.23-.37-.02-.76.63-1.16.57-2.55-.02-.44-.45-.33-2.31.61-2.78 2.4-.06.23-.27.25-.22.02-.44-.21-.17-.18-.16-.43l.28-6.75q.02-.51.53-.54l1.52-.11q.64-.04.25-.55l-.16-.22q-.33-.44-.24-.98l.87-5.14q.21-1.24-.84-.56l-.36.24q-.59.38-.69-.32-.19-1.36 0-2.72.12-.83.75-.28c.35.31.68.58 1.14.71q.31.08.58-.11.46-.32.1-.76l-.25-.31q-.41-.51.22-.69 1.56-.45 2.53-1.89a.41.41 0 0 1 .71.04q.23.46.17 1.04-.03.3.27.36l.45.09q.37.07.36-.31l-.03-.93q0-.26.22-.38.19-.1.36 0 .26.14.32.43.19.87.13 1.79-.01.1.04.17.09.13.22.17.3.08.43-.2l1.49-3.22a.79.79 0 0 1 1.47.1q.38 1.29 1.25 2.18.3.31.62.03 1.24-1.06 3.07.09a.18.18 0 0 0 .2-.29q-1.51-1.13-2.18-2.97-.19-.51-.57-.13l-.3.31q-.34.34-.7.02-.33-.3-.07-.7 1.12-1.7-.39-2.81-.35-.26-.25-.68.67-2.85 2.38-5.22a.81.81 0 0 0-.58-1.28q-.66-.06-1.16-.48-.91-.76-.98.42-.17 3.17-2.4 2.59-.6-.16-.6.46l-.03 2.29q-.01.72-.66.39-1.51-.77-1.99-2.2-.58-1.73-1.39-3.58-.28-.64-.94-.85-.59-.19-1.2-.08a.43.43 0 0 1-.43-.18q-.24-.34-.03-.58.39-.44.1-.95l-.3-.54q-.28-.51-.01-1.03l1.99-3.86q.26-.5.05-1.02l-.12-.31q-.22-.54.14-1 .81-1.02 1.53-2.09.23-.34.15-.75-.11-.59-.58-.22-.7.56-1.57.56-.75 0-.79-.74-.04-.94-.86-1.37a.53.53 0 0 0-.66.14q-.37.45-.04.91.45.62-.05 1.19-.73.85-.08 1.69 1.11 1.45-.67 1.01-.46-.11-.86-.34-.48-.28-.87.12l-.99 1.02q-.5.51-.71-.17l-1.53-4.96q-.2-.64-.66-.15-1.39 1.47-.47 2.98.28.47-.14.82-1.08.89-2.5.89a.53.51 15 0 0-.45.25q-.29.5.15.78a.74.73-78.4 0 1 .34.52q.11.87-.41 1.48a.78.77-41.5 0 0-.06.92q.38.59 1.06.74a.47.46 19.1 0 0 .51-.24q.11-.22.33-.25.7-.08.54.61-.69 2.85-3.24 3.96-.55.24-.6-.36l-.21-2.55q-.03-.4-.43-.34-1.41.19-2.88-.78-.4-.26-.15-.68.32-.52.03-1.05-.27-.51.06-.98l1.25-1.77q.47-.66-.32-.86-.37-.09-.57.15-.51.62-.75-.15-.22-.73.34-1.33a.82.82 0 0 0-.25-1.3q-2.22-1.02-3.2-3.61a.78.77 73.4 0 1 .56-1.04c1.25-.28 1.44-1.6 2.57-2.26q1.27-.75 2.4-.31a.34.33 7.4 0 0 .46-.35q-.23-2.01.54-3.66.19-.41-.25-.48-.99-.16-1.53.72-.07.12-.21.1t-.25-.12q-.37-.31.04-.57.99-.63.01-1.35-.65-.48-.3-1.2.33-.67 1.15-.77.77-.09.28-.69-.73-.89-.12-1.9c.84-1.37.77-3.17.17-4.62q3.67 1.52 5.31-1.35 1.84-3.22 3.06-4.71-.07.77-.41 1.32-.23.39 0 .78.15.25.47.2.82-.12 1.4-.67.64-.6.68.27l.1 2q.01.21.21.23l.33.05q.1.01.12-.09l.21-1.14a.88.87-85.8 0 1 .82-.71q.36-.02.71.14a.85.85 0 0 1 .5.76l.03 1.48q.02.9.72.33.85-.68 1.54.24.26.34.47-.02l.15-.24q.01-.01-.01-.03l-1.42-1.32q-.46-.44-.17-1l1.96-3.7q3.86 1.71 6.79.58 5.24-2.02 9.2-2.63.66-.1 5.7.2 3.38.2 6.28-1.31a3.23 3.23 0 0 1 3.48.34q1.72 1.37 4.8 2.08m17.31 11.74a.44.44 0 0 0-.44-.44.44.44 0 0 0-.44.44.44.44 0 0 0 .44.44.44.44 0 0 0 .44-.44M217.2 92.56q.11.52.56.1.25-.23-.05-.39-.24-.12-.41.01-.14.11-.1.28m-37.07 3.9q-.12.43.31.5a.33.31-71.3 0 0 .34-.18q.27-.57-.33-.57a.34.33-81.9 0 0-.32.25m4.28 17.22q.09-.04.1-.14.04-.2-.12-.08-.2.14-.17.07.03-.08.04.01 0 .05.02.09.03.11.13.05m83.42 1.84a.36.36 0 0 0-.36-.36.36.36 0 0 0-.36.36.36.36 0 0 0 .36.36.36.36 0 0 0 .36-.36m3.57 1.68q-.6.39-.97 1.03-.43.76.34.34.7-.39.97-1.09.24-.64-.34-.28m-80.07 11.55q.29.13.47-.08a.28.28 0 0 0-.21-.45q-.21 0-.35.18-.17.23.09.35m-102.751 8.09a.87.47 88.1 0 0 .44-.886.87.47 88.1 0 0-.498-.853.87.47 88.1 0 0-.44.885.87.47 88.1 0 0 .498.853m-6.219 8.85q.25.07.3-.19.04-.19-.12-.3-.43-.31-.4.21.01.22.22.28m101.88 9.92q.52.45 1.22.25.77-.22.15-.73-.58-.47-1.29-.12-.49.24-.08.6m-53.37 1.87a.37.37 0 0 0-.37-.37.37.37 0 0 0-.37.37.37.37 0 0 0 .37.37.37.37 0 0 0 .37-.37m5.8.83q-.42-.21-.49.22-.01.06.01.12.18.34.52.07.3-.24-.04-.41m-34.35 1.41q.15.23.39.11.25-.13.1-.37-.11-.16-.29-.15a.27.27 0 0 0-.2.41m193.92 35.76a.28.28 0 0 0 .3.3q.21-.02.27-.24a.28.28 0 0 0-.32-.34q-.23.04-.25.28m-15.93 27.71q-.39.16-.08.44a.27.26-73.5 0 0 .44-.24q-.06-.32-.36-.2m-33.7 1.5q.07-.26-.19-.27-.17 0-.14.17.04.18.22.18.09.01.11-.08m6.16.84q-.49-.54-.47-.01.01.51.44.23.15-.09.03-.22"/><path fill="#188605" d="m183.3 70.51-1.96 3.7q-.29.56.17 1l1.42 1.32q.02.02.01.03l-.15.24q-.21.36-.47.02-.69-.92-1.54-.24-.7.57-.72-.33l-.03-1.48a.85.85 0 0 0-.5-.76q-.35-.16-.71-.14a.88.87-85.8 0 0-.82.71l-.21 1.14q-.02.1-.12.09l-.33-.05q-.2-.02-.21-.23l-.1-2q-.04-.87-.68-.27-.58.55-1.4.67-.32.05-.47-.2-.23-.39 0-.78.34-.55.41-1.32 3.17-3.01 8.41-1.12M232.41 73.39q-1.37 2.85-1.55 5.96a.45.44 80.3 0 0 .62.44l2.67-1.18q.9-.4.2.29l-.19.2q-.39.38-.15.87l1.3 2.58q.26.51.82.58.15.02.29.05 1 .27.05.69l-2.79 1.21q-.63.28-.25.86l.33.49q.34.52-.01 1.04-.88 1.28-.74 2.83.08.77.72.34l.29-.19q.54-.36.99.1l1.71 1.73a.37.36-24 0 1-.24.62l-1.98.13q-.43.03-.45.46l-.16 3.94q-.03.93-.57.17-1.35-1.9-.66-3.28.54-1.07-.62-1.35-2.11-.51-1.53-2.36.11-.32-.12-.58l-1.48-1.69a.44.44 0 0 0-.77.23q-.07.45-.3.82-.27.45-.79.5c-3.05.31-3.19 2.74-3.84 5.09q-.14.52.12.98.46.86-.31 1.5-.58.48-1.28.5-.54.03-.31-.46.85-1.73.53-3.75-.08-.48-.56-.57l-1.82-.32a.77.76-64.1 0 1-.43-1.26c1.14-1.3 2.33-3 2.49-4.76q.09-1.04.75-1.85.38-.47.03-.95-.43-.58.06-1.11.47-.51-.17-.76c-2.39-.93-1.96-3.07-3.59-3.92q-.59-.32-.68.35-.16 1.26-1.17 2.03-.8.61-.82-.4-.01-.67.42-1.2.32-.38.06-.81-.71-1.16-.48-2.62.11-.74.65-.22.57.54 1.3.64.49.07.71-.37l2.22-4.45a.28.27-68.8 0 0-.17-.39q-1.38-.38-1.21-1.04zM242.54 72.09q-.93 1.28.3 2.54a.75.75 0 0 1-.44 1.27q-1.16.14-1.92-.95-.28-.4.01-.8.71-.99-.05-2.06zM245.28 72.49q.56.33.83.26l-.32 1.81q-.04.19-.23.18h-.29q-.17 0-.15-.16zM163.98 76.31q-.06.58.1.96.2.46.7.4l1.44-.18.3.2c.6 1.45.67 3.25-.17 4.62q-.61 1.01.12 1.9.49.6-.28.69-.82.1-1.15.77-.35.72.3 1.2.98.72-.01 1.35-.41.26-.04.57.11.1.25.12t.21-.1q.54-.88 1.53-.72.44.07.25.48-.77 1.65-.54 3.66a.34.33 7.4 0 1-.46.35q-1.13-.44-2.4.31c-1.13.66-1.32 1.98-2.57 2.26a.78.77 73.4 0 0-.56 1.04q.98 2.59 3.2 3.61a.82.82 0 0 1 .25 1.3q-.56.6-.34 1.33.24.77.75.15.2-.24.57-.15.79.2.32.86l-1.25 1.77q-.33.47-.06.98.29.53-.03 1.05-.25.42.15.68 1.47.97 2.88.78.4-.06.43.34l.21 2.55q.05.6.6.36 2.55-1.11 3.24-3.96.16-.69-.54-.61-.22.03-.33.25a.47.46 19.1 0 1-.51.24q-.68-.15-1.06-.74a.78.77-41.5 0 1 .06-.92q.52-.61.41-1.48a.74.73-78.4 0 0-.34-.52q-.44-.28-.15-.78a.53.51 15 0 1 .45-.25q1.42 0 2.5-.89.42-.35.14-.82-.92-1.51.47-2.98.46-.49.66.15l1.53 4.96q.21.68.71.17l.99-1.02q.39-.4.87-.12.4.23.86.34 1.78.44.67-1.01-.65-.84.08-1.69.5-.57.05-1.19-.33-.46.04-.91a.53.53 0 0 1 .66-.14q.82.43.86 1.37.04.74.79.74.87 0 1.57-.56.47-.37.58.22.08.41-.15.75-.72 1.07-1.53 2.09-.36.46-.14 1l.12.31q.21.52-.05 1.02l-1.99 3.86q-.27.52.01 1.03l.3.54q.29.51-.1.95-.21.24.03.58a.43.43 0 0 0 .43.18q.61-.11 1.2.08.66.21.94.85.81 1.85 1.39 3.58.48 1.43 1.99 2.2.65.33.66-.39l.03-2.29q0-.62.6-.46 2.23.58 2.4-2.59.07-1.18.98-.42.5.42 1.16.48a.81.81 0 0 1 .58 1.28q-1.71 2.37-2.38 5.22-.1.42.25.68 1.51 1.11.39 2.81-.26.4.07.7.36.32.7-.02l.3-.31q.38-.38.57.13.67 1.84 2.18 2.97a.18.18 0 0 1-.2.29q-1.83-1.15-3.07-.09-.32.28-.62-.03-.87-.89-1.25-2.18a.79.79 0 0 0-1.47-.1l-1.49 3.22q-.13.28-.43.2-.13-.04-.22-.17-.05-.07-.04-.17.06-.92-.13-1.79-.06-.29-.32-.43-.17-.1-.36 0-.22.12-.22.38l.03.93q.01.38-.36.31l-.45-.09q-.3-.06-.27-.36.06-.58-.17-1.04a.41.41 0 0 0-.71-.04q-.97 1.44-2.53 1.89-.63.18-.22.69l.25.31q.36.44-.1.76-.27.19-.58.11c-.46-.13-.79-.4-1.14-.71q-.63-.55-.75.28-.19 1.36 0 2.72.1.7.69.32l.36-.24q1.05-.68.84.56l-.87 5.14q-.09.54.24.98l.16.22q.39.51-.25.55l-1.52.11q-.51.03-.53.54l-.28 6.75q-.01.25.16.43.22.23.44.21.21-.02.27-.25.47-1.79 2.78-2.4.43-.11.45.33.06 1.39-.57 2.55-.21.39.02.76 1.67 2.68 3.89 1.63.76-.36.51.44l-1.38 4.3a.73.72 21.7 0 1-1.01.43l-3.36-1.66a.73.72-75.3 0 0-1.04.61l-.17 2.62q-.03.49-.48.67-.74.29-1.5.13a.54.53 5.2 0 0-.64.53q0 .27.22.4.26.16.32.46l.73 4.22q.07.44-.37.36l-.43-.07a.73.72 2.5 0 1-.61-.66q-.23-2.81-2.36-3.52-.8-.27-.02-.6.21-.08.4-.01.43.14.59-.27.18-.47-.24-.8a.62.62 0 0 1-.2-.73q.67-1.56.66-3.52-.01-.66-.66-.62-.21.02-.33.19-.45.64-1.01.09-1.44-1.41-.2-3.02a.86.86 0 0 0-.51-1.37l-1.42-.29q-.7-.14-.29-.73.29-.42.38-.93.1-.57-.44-.8-1.89-.81-1.52-3.49.06-.45-.32-.64-.44-.22-.69.19-.47.75-1.14 1.22-.66.45-.68-.35-.02-.82-.23-1.58-.14-.51-.59-.76-.45-.26-.97.16a.74.71 69.8 0 0-.27.61q.05 1.34-.65 2.45-.4.63.34.75l.5.09q.6.1.29.62-1.16 1.93-2.99 2.51-.69.21-.2.74l.25.27q.38.4-.07.71-.29.2-.64.14-.57-.09-.77-.61-.17-.41-.3-.83-.16-.53-.71-.64-.4-.08-.7.18-.36.32-.38.83-.04 2.01-1.68 3.32a.93.93 0 0 0 .39 1.64q1.05.23 1.61 1.12a.99.97-51.5 0 1 .09.85q-1.09 3.2.94 5.27.65.65-.27.74-1.11.11-1.19 1.25-.11 1.54-.83.17-.97-1.8-1.38-3.73a.75.74-27.8 0 0-1.24-.38l-2.94 2.74a.2.2 0 0 1-.34-.14q-.06-1.61-.7-3.02a.48.48 0 0 1 .3-.66l.48-.14q.58-.17.58-.77v-2.37q0-.57-.51-.82l-.92-.46q-.49-.24-.33-.75.22-.77 1.09-.81a.54.53-34 0 0 .2-1.02q-.42-.18-.69-.55-.33-.45-.18-.98.58-2.18-.32-4.27-.17-.4.05-.78.71-1.21-.49-2.12-.58-.43-.66.28l-.11.97q-.03.26-.28.24l-.4-.04q-.17-.01-.18-.19l-.19-4a.41.41 0 0 0-.64-.33q-2.77 1.87-2.31 5.24a.39.39 0 0 1-.65.34q-1.66-1.49-3 .25a.7.69 42.2 0 0 .05.89q.23.24.26.57.06.51-.37.22-1.17-.82-1.33-2.17a.4.4 0 0 0-.69-.22q-1.06 1.18-2.55 1.73-.62.23-.75.87-.31 1.62 1.13 1.99.4.11.6.47 1.37 2.48-.28 4.83-.38.54-.14 1.16.38 1 .59 2.02.19.93-.57.37-1.74-1.26-2.42-3.2-.14-.38-.52-.26-2.07.66-2.51 2.12-.19.62-.7.21-.66-.55-1.51-.79-1.09-.29 0-.6 1.61-.45 2.17-3.11a1.27 1.23 34 0 0-.21-1q-.53-.74-.71-1.64-.11-.58-.63-.28-.14.07-.25.18a1.12 1.04-70.3 0 1-.5.26q-.24.06-.38-.15-.2-.28-.08-.59.3-.81 1.17-1 .58-.12.72-.69.46-1.86-1.23-2.41a1 .99-58.8 0 1-.4-1.65l1.2-1.2q.45-.45.06-.96-.84-1.1-1.78-.33-.33.27-.62-.05-.1-.1-.15-.23-.08-.21.05-.4 1.72-2.4-.06-4.63-.35-.43-.77-.08-.28.22-.23.59.06.59-.46.87-.39.2-.88.22-.62.03-.35-.53 1.63-3.27-.49-7.2-.35-.65-.63.04-.28.67-.27 1.43a1.56 1.52-29.7 0 1-.25.87l-2.39 3.68q-.37.58.32.64.27.02.42-.18.73-.93.76.25.02.95-.86 1.45-.78.44-1.56.84-.64.33-.52 1.05.06.3-.19.45-.85.54-.66-.44.14-.67-.24-1.06-.49-.5-.62.19-.17.94-.71 1.64-.3.38-.02.78.86 1.21.48 2.62-.22.8-.59.06l-1.43-2.8q-.25-.5-.77-.69-1.14-.43-1.19-1.7-.01-.29-.3-.28l-.4.02q-.19 0-.17.19.23 2.89-1.28 5.2a1.47 1.42 6.7 0 1-.79.6l-.43.12a.37.37 0 0 0-.17.6q1.11 1.23-.07 2.45a.36.36 0 0 0 .23.61q2.6.2 5.04 2.04a.48.48 0 0 1-.13.84l-.74.26q-.49.17-.58.68-.46 2.51.56 4.62.29.58.93.7l.71.14q.94.19.08.61-.37.18-.73.32a1.18 1.17-17.8 0 0-.72 1.38q.12.52-.08 1-.32.77-.59-.01-.79-2.27-3.68-3.07-.52-.14-.86.28-.83 1.04-2.04 1.5-.49.19-.21.63.71 1.16-.01 2.33a.98.96-37.4 0 0-.11.76q.07.24.23.43a.4.4 0 0 1-.22.65q-.45.1-.83-.15-.94-.61-1.65-1.35-.37-.38-.84-.13l-.3.18q-.93.55-.27-.31l.87-1.12a1.73 1.7 68.1 0 0 .35-.84q.27-2.19 1.21-4 .34-.67-.34-.97-1.47-.66-2.61-1.85a.73.72-46.5 0 0-1.07.03l-1.02 1.19q-.46.55-.69-.13-.12-.37.22-.46a.38.36 68.5 0 0 .22-.53q-.84-1.63 1.24-2.79 1.66-.93.23-2.2-.8-.7-1.22-1.83-.26-.69-.87-.27-.1.07-.21.14-.28.17-.59.04-.53-.22-.79-.73-.26-.52.16-.93l1.83-1.79a1.06 1.06 0 0 0-.55-1.8q-1.64-.3-2.11-1.77-.31-.98-.69-.03-.35.89-.14 1.84.05.24-.19.31l-.27.09a.25.25 0 0 1-.32-.21q-.11-.82-.52-1.57a1.01 1.01 0 0 1 0-.96q1.7-3.12.24-6.73a.38.37-36.8 0 0-.64-.09q-.97 1.19-2.2.27-.31-.24-.7-.2-.66.07-.91.71a1.06 1.02 44 0 0 .03.84q.77 1.65.37 3.56-.13.62-.59.19-.24-.24-.22-.54.04-.61-.45-.97-2.12-1.52-1.95-4.25a1.52 1.46 34.7 0 0-.15-.73q-.54-1.09-.63-2.29-.03-.48-.5-.57-.25-.05-.37.09-.69.85-.8-.24-.09-.89-.35-1.72a.87.87 0 0 0-1.6-.15c-.55 1.05-1.21 2.31-.79 3.53q1.45 4.15-2.71 5.98a.72.71 59 0 0-.27 1.1l.89 1.13a.99.97-55.6 0 1 .16.89q-.47 1.48 1.19 1.98a.38.38 0 0 0 .48-.44q-.16-.84.01-1.69.31-1.57.66-.01l.55 2.47q.11.49-.08.95-1.24 3.08-2.83 5.84-.15.25-.38.05c-.94-2.13-2.13-4.43-2.2-6.73-.08-2.77-.7-7.63.95-10.09q3.98-5.92 7.01-11.9c2.92-5.74 7.13-9.32 13.47-10.82q13.61-3.22 27.29-6.93c12.39-3.36 21.57-9.83 23.37-23.51q.06-.5.42-.85c4.27-4.24 9.11-3.07 13.6.11m-12.84 82.1q-.06.38.2.59a.37.37 0 0 0 .5-.02q.3-.31.01-.63-.13-.15-.35-.19a.31.3 10.1 0 0-.36.25"/><path d="m166.22 77.49-1.44.18q-.5.06-.7-.4-.16-.38-.1-.96z"/><path fill="#188605" d="m302.88 119.77-4.43.68q-.69.11-.42.75.76 1.75-.23 4.07-.28.66-.75.11-.13-.16-.4-.05-.28.12-.44.37-.79 1.22-1.18 2.37-.27.82.58.64.31-.06.5-.28a.59.58-49.5 0 1 .79-.07c.61.47.72 1.2.37 1.87q-1.05 2.03.92 2.94.45.21.58.69.2.72.09 1.45-.12.84-.67.2-1.62-1.87-4.61-1.48-.4.05-.4.45 0 .26.25.42a.5.49-62.9 0 1 .19.61l-.74 1.84q-.45 1.11-.71-.06l-.59-2.65q-.12-.51.21-.91l.89-1.09q.32-.4.13-.89-.32-.78-.96-1.38-.37-.36-.29-.86.65-4.39-1.8-8.17a.52.52 0 0 0-.9.04l-1 1.87q-.57 1.08-1.61.45-2.2-1.34-3.72.11a.82.8-37.5 0 0-.14 1q.39.64.97 1.12a.74.74 0 0 1 0 1.14q-1.17.94-.86 2.38a1.1 1.09 72.6 0 1-.65 1.25l-.3.12q-.49.2-.48-.33.02-1.78-.43-3.19-.51-1.58-1.93-.78-.67.37-.67-.39 0-.13.03-.26.12-.47.58-.61 1.97-.61 1.07-2.65-.27-.62-.07-1.26 1.15-3.8 1.15-8.78.01-.41-.36-.58-.44-.21-.88.03-.37.2-.5.6l-.34.99q-.19.58-.77.36-2.44-.93-4.06-2.54-.47-.47-.93.03l-.57.63a.66.65 40.9 0 0 .07.95q.98.78 1.49 1.81.18.37-.03.74-.25.45-.63.09-.78-.76-1.54.01a1.04 1.03-55.9 0 1-1.12.22q-1.53-.61-1.66-2.4a.45.45 0 0 0-.57-.39q-.37.11-.62.41-.22.27-.5.06l-.27-.22q-.1-.08-.04-.19.38-.77 1.13-1.14.44-.23.55-.71.74-3.12 1.95-5.78a2.34 2.32-37.6 0 0 .18-1.33l-.08-.44a.73.73 0 0 1 .44-.79q.65-.26.74-.93.04-.33-.16-.6l-1.07-1.4q-.28-.37-.1-.8.46-1.09.5-2.34.02-.56-.5-.78-.78-.32-1.66-.19-.85.11-.49.89l.19.42q.29.63-.41.7-1.36.14-2.55-.57a.67.66 32.6 0 0-.88.19q-.16.22-.34.17-.29-.08-.32-.38l-.3-3.06a1.21 1.21 0 0 0-1.85-.91l-2.35 1.49q-.59.37-.57 1.06.02 1.08 1.02 1.15.86.06.4.8-.41.65-.04 1.33.24.42-.21.61-1.27.55-1.46 2.09-.21 1.76-.88 3.55-.11.3-.43.33-.18.02-.27-.1-.19-.24-.13-.53.98-4.82-3.6-5.84-.47-.11-.49.37-.07 1.26-1.26 2.09-.18.13-.35-.02-.04-.03-.06-.08-.06-.22.1-.37.53-.53.63-1.26.07-.59-.38-.97-.67-.57-1.22-1.26-.62-.76.36-.78l2.47-.04a.78.77 1.7 0 0 .75-.7q.12-1.29-.45-2.39-.25-.46.01-.93.08-.16.11-.33.07-.43-.35-.53-.69-.17-1.13-.69-.38-.45-.11-.96a.88.87-70.9 0 1 .91-.45q.78.12 1.52-.11a.67.64-3.6 0 0 .43-.47q.28-1.25-.3-2.25-.28-.48.17-.79 2.25-1.59.15-6.66 4.2 2.07 5.54 2.33 9.52 1.85 19.09 3.39c2.47.4 4.6 2.13 4.44 4.81q-.25 4.31 1.08 8.86c1.13 3.9 3.78 5.48 7.45 6.87q3.84 1.45 7.62 3.25a2.89 2.89 0 0 1 1.62 2.24z"/><circle cx="236.42" cy="81.51" r=".44" fill="#188605"/><path fill="#188605" d="M217.3 92.28q.17-.13.41-.01.3.16.05.39-.45.42-.56-.1-.04-.17.1-.28M180.13 96.46a.34.33-81.9 0 1 .32-.25q.6 0 .33.57a.33.31-71.3 0 1-.34.18q-.43-.07-.31-.5M184.28 113.63q-.02-.04-.02-.09-.01-.09-.04-.01-.03.07.17-.07.16-.12.12.08-.01.1-.1.14-.1.06-.13-.05"/><circle cx="267.47" cy="115.52" r=".36" fill="#188605"/><path fill="#188605" d="M271.4 117.2q.58-.36.34.28-.27.7-.97 1.09-.77.42-.34-.34.37-.64.97-1.03M191.24 128.4q.14-.18.35-.18a.28.28 0 0 1 .21.45q-.18.21-.47.08-.26-.12-.09-.35"/><ellipse fill="#188605" rx=".87" ry=".47" transform="rotate(88.1 -26.003 113.753)"/><path fill="#188605" d="M82.36 145.69q-.21-.06-.22-.28-.03-.52.4-.21.16.11.12.3-.05.26-.3.19M80.56 148.97q-.34-.57-.25-1.12.79-.1 1.12.29.4.48-.18.72-.31.13-.69.11M184.24 155.61q-.41-.36.08-.6.71-.35 1.29.12.62.51-.15.73-.7.2-1.22-.25"/><circle cx="130.5" cy="157.48" r=".37" fill="#188605"/><path d="M151.14 158.41a.31.3 10.1 0 1 .36-.25q.22.04.35.19.29.32-.01.63a.37.37 0 0 1-.5.02q-.26-.21-.2-.59"/><path fill="#188605" d="M136.67 158.31q.34.17.04.41-.34.27-.52-.07-.02-.06-.01-.12.07-.43.49-.22M102.32 159.72a.27.27 0 0 1 .2-.41q.18-.01.29.15.15.24-.1.37-.24.12-.39-.11M296.24 195.48q.02-.24.25-.28a.28.28 0 0 1 .32.34q-.06.22-.27.24a.28.28 0 0 1-.3-.3M298.27 198.4l-.97 5.57q-.75-.02-1.27.28-.59.34-.36-.3.54-1.52.93-3.36a1.06 1.04 29.9 0 0-.27-.95l-1.71-1.79q-.79-.83.35-.85 1.51-.02 3.3 1.4M289.38 253.02q-.87 5.95.6 13.23.46 2.25-.83 4.09-.72 1.03-3.09 2.39c-6.38 3.68-12.48 7.14-18.74 11.44q-6.72 4.62-14.05 9.35-16.07 10.36-33.8 16.66-1.66-1.34-.67-2.86.47-.73.13-1.89a.43.43 0 0 0-.74-.15q-.57.7-1.43.71a.67.66-2.2 0 1-.69-.63q-.12-2.76.6-5.19.14-.48-.01-.96l-.14-.46q-.2-.63.45-.76.61-.12.85-.67a.95.94-59.3 0 0-.28-1.13q-1.03-.81.1-1.44.24-.13.13-.38-.06-.13-.17-.2-.4-.24-.61.17-.4.76-1.23.61-.46-.08-.26-.5.8-1.62.52-3.61a.42.42 0 0 1 .6-.44q1.19.58 2.2-.36 1.41-1.31 2.91-2.44.46-.35.21-.86-.53-1.12-1.23-2.12c-.45-.65-1.51-.93-2.15-1.48q-.51-.43-.15-.99.3-.46.52-.96.2-.46-.13-.83-.23-.26-.54-.08l-.41.24q-.49.29-.75-.22-.16-.31.03-.63.46-.82 1.16-1.43.61-.54.22-1.25-.28-.5.08-.93.46-.56-.16-.92-1.47-.87-2.76-.62-.64.13-.66-.52l-.06-2.47q-.02-.55-.54-.36-2.57.95-3.33 3.64-.43 1.5.94.74.75-.41 1.37.26.46.5.08 1.05-.83 1.22.09 2.4.46.59-.28.68l-1.8.23a1.27 1.27 0 0 0-.94 1.88q.83 1.46-.58 2.64-.56.46-.76-.23l-1.41-4.72q-.24-.8-.83-.21l-.98.98q-.48.47-.99.04-.48-.39-1.08-.45-.86-.09-.46.68l.48.91q.34.65-.22 1.12-.74.62-.25 1.37.46.71-.36.9-.34.08-.64-.08-.53-.29-.51-.9.01-.5-.29-.88-.38-.48-.9-.13-.48.33-1.07.45-1.38.27-.55-.85l1.55-2.09q.31-.41.13-.91l-.2-.56q-.14-.42.06-.8l2.1-3.92q.33-.61-.1-1.15-.55-.7-.07-1.41.46-.69-.36-.78l-1.42-.15q-.54-.06-.71-.57l-1.67-4.96q4.78-6.97 5.93-9.01 2.07-3.68 1.02-8.63 1.72-8.08-1.08-13.74l-.3-3.65q1.05-.82.91-1.8-.42-2.86 2.3-2.75.84.03.33-.64l-.24-.32q-.32-.43-.3-.96.09-1.88-.75-3.54a.32.31 76.1 0 1 .27-.46q1.15-.04 1.32 1.09.39 2.62 2.4 3.26.77.24.04.59-.16.07-.32.08-.37.03-.42.4l-.63 4.74a.58.58 0 0 0 .31.6q.5.25.71-.14a.47.47 0 0 1 .6-.22c1.76.77 1.25 2.27.54 3.55a.69.68 38.2 0 0 .1.81q.53.55 1.4.43 1.56-.22.66 1.06-.25.35-.22.8.03.61.59.85l.66.3q.54.23.58.81l.16 2.4q.09 1.26.94.33l.99-1.1q.75-.82.9.28l.18 1.28q.08.62.63.93.47.27.98-.14a.73.72 67.8 0 0 .27-.66q-.15-1.24.47-2.26.57-.94-.53-.92-.49 0-.51-.48-.02-.28.16-.51 1.43-1.79 3.04-2.27.69-.2.1-.6-.37-.26-.37-.68-.01-.71.68-.57 1.14.23 1.13 1.41 0 .45.39.64.56.26 1.04-.08.37-.26.4-.71.18-2.05 1.79-3.57a.83.83 0 0 0-.31-1.39q-.85-.27-1.56-.84-.44-.36-.25-.89 1.14-3.18-1.04-5.73-.36-.42.17-.6 1.19-.41 1.53-1.76.25-1.03.61-.03l1.35 3.83a1.04 1.04 0 0 0 1.72.38l2.54-2.61a.19.19 0 0 1 .32.13q.03 1.72.67 3.35.12.32-.2.43l-.43.16q-.5.18-.64.7-.71 2.71 1.34 3.73.64.33.27.95-.21.36-.62.42-1.66.27-.42 1.4.81.74.56 1.74c-.32 1.33.05 2.79.46 4.06a.92.91 52.7 0 1-.1.77q-.66.98.38 1.77.94.72.95-.46.01-.35.21-.67.4-.63.47.11l.32 3.74a.57.57 0 0 0 .95.38q2.27-2.03 2.17-5.08-.02-.87.6-.26 1.28 1.27 2.67-.04.43-.41.28-.99-.1-.36-.27-.7-.37-.77.33-.28.99.7 1.21 1.9.19 1.08.97.3 1.09-1.07 2.44-1.77a1.41 1.4 43.3 0 0-.08-2.53q-1.34-.6-1.7-2.27-.12-.55.09-1.06l1.06-2.57q.29-.69-.14-1.31-.5-.72-.42-1.57.06-.62.54-.22 1.6 1.33 2.38 3.13.19.42.62.29 2.03-.57 2.45-2.04.26-.91.85-.17.46.56 1.14.64 1.03.12.16.69-3.46 2.25-1.06 5.78a.39.39 0 0 0 .56.09l.31-.23q.45-.34.73.14.1.18.12.38.03.49-.39.74-.4.23-.85.32-.57.11-.7.67-.53 2.27 1.5 2.62.48.08.42.56-.16 1.31-1.32 2.08-.58.38-.23.98.36.59 1.01.74.58.14.97-.32.17-.2.45.12a.41.39 41.7 0 1 .04.47q-1.72 2.72.17 4.61.52.51.94-.07.14-.18.14-.41 0-.43.32-.7.26-.22.57-.27.76-.13.46.58-1.4 3.3.71 6.99.39.67.64-.07.23-.69.33-1.42.07-.51.34-.94l2.24-3.6q.44-.71-.37-.52-.36.09-.56.41-.26.4-.62.11-.16-.13-.13-.34c.37-2.46 2.66-1.65 3.18-3.8q.05-.22.23-.34.16-.1.37-.01.28.12.26.43l-.08.86q-.04.39.35.47.16.03.29-.04.13-.06.18-.19l.68-1.8q.18-.47-.05-.91-.57-1.1-.3-2.4.17-.8.54-.07l1.33 2.61q.23.45.67.67 1.2.58 1.53 1.83a.43.43 0 0 0 .51.31q.14-.03.25-.11.08-.05.06-.13-.34-2.75 1.19-5.15.27-.43.75-.61l.45-.16q.43-.17.16-.54-.9-1.19 0-2.41.42-.56-.27-.65-2.59-.33-4.84-2.02-.7-.53.11-.86 2.05-.83 1.27-4.14-.45-1.9-2.15-2.29-.82-.19-.08-.6.25-.14.52-.07.55.13.65-.43l.33-1.95q.23-1.41.69-.05.7 2.07 3.42 2.72.57.14 1.05-.21.98-.74 2.02-1.42.75-.5 0-.99-.42-.28.11-1.34.25-.51.21-1.09-.02-.41-.3-.83-.33-.52.28-.56 1.28-.07 2.1 1.07.62.86 1.56.39.63-.32.29.3-.35.64-.91 1.09a1.36 1.35 71.8 0 0-.51 1.02q-.05 2.03-.96 3.71a.84.83-59 0 0 .27 1.09l2.83 1.91q.6.4 1.06-.16l.84-1.02q.75-.91.37.19-.27.79-.01 1.5.22.57-.2 1.01l-1.83 1.91q-.51.53.03 1.03 1.01.95 1.59 2.2.24.53.77.28 1.01-.48 1.67.48.35.52-.1.95l-2.15 2.07a.65.64-44.7 0 0-.01.92q.77.77 1.85 1.11.57.18.77.75.15.41.39.78.61.93.69-.19l.11-1.79q.05-.78.5-.14c.77 1.11.93 2.04.39 3.4q-1.55 3.89 1.37 7.15m-58.31-28.6q-.01.27.22.39.21.11.42 0a.42.42 0 0 0-.02-.76q-.59-.28-.62.37"/><path fill="#188605" d="M280.31 223.19q.3-.12.36.2a.27.26-73.5 0 1-.44.24q-.31-.28.08-.44"/><path d="M231.07 224.42q.03-.65.62-.37a.42.42 0 0 1 .02.76q-.21.11-.42 0-.23-.12-.22-.39"/><path fill="#188605" d="M246.5 224.77q-.18 0-.22-.18-.03-.17.14-.17.26.01.19.27-.02.09-.11.08M252.77 225.53q.12.13-.03.22-.43.28-.44-.23-.02-.53.47.01"/><path d="m205.4 247.75-1.08-13.74q2.8 5.66 1.08 13.74M198.45 265.39l1.67 4.96q.17.51.71.57l1.42.15q.82.09.36.78-.48.71.07 1.41.43.54.1 1.15l-2.1 3.92q-.2.38-.06.8l.2.56q.18.5-.13.91l-1.55 2.09q-.83 1.12.55.85.59-.12 1.07-.45.52-.35.9.13.3.38.29.88-.02.61.51.9.3.16.64.08.82-.19.36-.9-.49-.75.25-1.37.56-.47.22-1.12l-.48-.91q-.4-.77.46-.68.6.06 1.08.45.51.43.99-.04l.98-.98q.59-.59.83.21l1.41 4.72q.2.69.76.23 1.41-1.18.58-2.64a1.27 1.27 0 0 1 .94-1.88l1.8-.23q.74-.09.28-.68-.92-1.18-.09-2.4.38-.55-.08-1.05-.62-.67-1.37-.26-1.37.76-.94-.74.76-2.69 3.33-3.64.52-.19.54.36l.06 2.47q.02.65.66.52 1.29-.25 2.76.62.62.36.16.92-.36.43-.08.93.39.71-.22 1.25-.7.61-1.16 1.43-.19.32-.03.63.26.51.75.22l.41-.24q.31-.18.54.08.33.37.13.83-.22.5-.52.96-.36.56.15.99c.64.55 1.7.83 2.15 1.48q.7 1 1.23 2.12.25.51-.21.86-1.5 1.13-2.91 2.44-1.01.94-2.2.36a.42.42 0 0 0-.6.44q.28 1.99-.52 3.61-.2.42.26.5.83.15 1.23-.61.21-.41.61-.17.11.07.17.2.11.25-.13.38-1.13.63-.1 1.44a.95.94-59.3 0 1 .28 1.13q-.24.55-.85.67-.65.13-.45.76l.14.46q.15.48.01.96-.72 2.43-.6 5.19a.67.66-2.2 0 0 .69.63q.86-.01 1.43-.71a.43.43 0 0 1 .74.15q.34 1.16-.13 1.89-.99 1.52.67 2.86l-4.47 1.34v-.34a1.03.97 46.9 0 0-2-.13l-.02 1.13q-1.06.59-2.09.43.15-.59-.03-.93-.29-.53-.7-.1l-1.51 1.55q-.6.62-.69-.23-.18-1.68.53-3.12.5-1.01-.57-.65l-1.28.42q-.57.2-.65-.4l-.19-1.64a.32.31-41.9 0 0-.62-.03l-.19.78q-.16.64-.8.75-.48.08-.83-.24-.37-.33-.41-.86-.04-.63-.06-1.21-.02-.7-.62-.34-.78.46-1.66.04-.84-.4-.3.35.42.58 1.02 1.03.41.31.24.79-.72 2.02-1.81 3.28-.39.46.03.88l2.15 2.16-7.96-.06q-.5-.01-.77-.43c-1.34-2.07-3.25-4.69-3.2-7.18q.04-2.06.53-3.62 5.82-18.56 7.91-38.21m4.372 20.903a.4.32-36.4 0 0-.512-.02.4.32-36.4 0 0-.132.494.4.32-36.4 0 0 .512.02.4.32-36.4 0 0 .132-.494"/><ellipse fill="#188605" rx=".4" ry=".32" transform="rotate(-36.4 536.993 -164.689)"/><path fill="#188605" d="M210.89 312.61q-4.2 2.62-8.95 2.28l-2.15-2.16q-.42-.42-.03-.88 1.09-1.26 1.81-3.28.17-.48-.24-.79-.6-.45-1.02-1.03-.54-.75.3-.35.88.42 1.66-.04.6-.36.62.34.02.58.06 1.21.04.53.41.86.35.32.83.24.64-.11.8-.75l.19-.78a.32.31-41.9 0 1 .62.03l.19 1.64q.08.6.65.4l1.28-.42q1.07-.36.57.65-.71 1.44-.53 3.12.09.85.69.23l1.51-1.55q.41-.43.7.1.18.34.03.93M215 311.52l-2.02.66.02-1.13a1.03.97 46.9 0 1 2 .13z"/></svg>