<svg xmlns="http://www.w3.org/2000/svg" viewBox="0 0 382 382"><g fill="none" stroke-width="2"><path stroke="#760078" d="M221.16 70.23q-1.39 3.43-3.6 5.89-.41.45-.03.91.56.69-.15 1.3-.53.47.16.62 1.41.29 1.48-1.25a.49.49 0 0 1 .71-.41q1.4.71.69 1.91-.36.59.34.67l1.28.14a1.28 1.28 0 0 1 1.1 1.59l-1.44 5.72q-.15.59-.73.82-.69.27-.9.94-.31 1.02.62.5l.47-.25q.54-.3.9.2.47.63 1.13 1.04.72.44.76-.4.03-.68.19-1.35.44-1.77 2.08-1.41.53.12.64-.42.05-.23.17-.43a.58.57-60.5 0 1 .75-.21l1.29.64q.48.24.66.75l1.38 3.75q.39 1.08 1.02.12l.49-.73a2.07 2.03-38.2 0 0 .23-1.8l-.59-1.76q-.23-.69.15-1.31.74-1.21-.06-2.39a.41.41 0 0 1 .34-.64l2.79-.01q.64-.01.23-.5-.18-.23-.46-.28-.52-.11-.85-.53-1.16-1.48-.97-3.1.05-.48-.23-.9-.15-.23-.4-.33-.52-.22-.69.32l-.25.77q-.16.51-.67.34-.43-.15-.68-.51-.29-.42-.12-.9.65-1.74.99-2.22.77-1.11.31-1.87M240.05 72.07q-.22 1.85 1.24 2.58.49.25.64-.27.29-1 .01-2.34M254.7 79.63q-.81 1.52 1.79 4.67.45.54-.25.6l-1.54.14q-.51.04-.26.49.13.26.23.53.57 1.61-.02 3.5-.19.61-.8.78-.77.21-1.27.84-.58.74.24.29.22-.11.34-.32a.42.42 0 0 1 .77.16q.6 3.93-1.39 5.88-.36.35-.07.75.64.94 1.69.5.49-.2.91.12 1.71 1.29 2.31 2.97.2.56.46.03.26-.52.19-1.12a1.25 1.25 0 0 1 .4-1.04q.4-.37.91-.58.52-.22.65-.77.43-1.81-1.39-2.21-.55-.12-.38-.66.31-.98 1.54-1.03 1.35-.06 2.57-.72.41-.23.53.23.26.94 1.05 1.67.3.28.69.15 1.67-.56 2.32 1.3.8 2.31 1.14-.11.14-1-.04-2.11-.11-.7.51-.37l2.13 1.14a.78.78 0 0 1 .17 1.26q-.49.46-.71 1.09-.18.55.19 1.01l1.45 1.8a.78.78 0 0 1 .04.91q-.36.54-1.02.7a.47.47 0 0 0-.2.8q.21.18.22.46.04.59-.22 1.19-1.6 3.7-2.35 7.77-.12.66.54.68 1.59.05 3.04.85a.73.73 0 0 0 1.03-.92l-.49-1.19q-.26-.63.42-.73.79-.13 1.43-.58.62-.45.72.31l.06.41q.06.46.48.65l2.52 1.14a.53.52 9.7 0 0 .74-.52q-.03-.32-.22-.58-.43-.59.29-.76.8-.18 1.07.6 1.09 3.18.56 7.89-.05.46-.5.56-.42.09-.28.72a1.19.83 39.3 0 0 .05.14q.6 1.35-.44 2.64-.58.71.25 1.11l1.76.83q.49.23.86-.17 1.08-1.16.36-2.43-.5-.89.53-.9.6-.01 1-.43.57-.61 1.17-.04.24.23.55.31a.79.78 19.3 0 0 .93-.44l.32-.71a1.26 1.26 0 0 1 2.08-.34q1.78 1.93 1.5 4.06-.03.17.06.32.1.17.37.1a.44.43 89.2 0 1 .52.51q-.23 1.26.33 2.67.48 1.18-.33 2.12-.42.49.19.27 1.75-.65 3.56-.51a.75.75 0 0 0 .65-1.21l-1.24-1.59a1.95 1.95 0 0 1-.18-2.12l3.29-6.23q.41-.77 1.18-.35l3.78 2.11M289.34 253.46l-1.59-.46q-.56-.16-.63-.73-.31-2.85.19-5.23a.7.7 0 0 1 .25-.41q.28-.22.36-.55.18-.78-.56-.48-1.55.62-3.37-.51c-1.86-1.16-.93-4.04.37-5.22q.38-.35-.07-.6l-2.52-1.4a1.57 1.57 0 0 1-.6-2.14q.82-1.43.82-3.02 0-.5-.46-.31-1.35.55-2.96-.5-.33-.22-.41-.61-.55-2.9.35-5.67.21-.62-.44-.69-.65-.06-1.23-.46-.82-.56-.79.44.02.41.28.73 1.02 1.24-.46 1.85-1.37.57-2.03 1.77-.53.98-1.09.02l-1.73-2.91a.51.51 0 0 0-.94.19q-.12.83-.6 1.49-.42.59.27.78 1.05.29 1.21 1.47.46 3.33-1.47 4.88-.39.31.01.61 2.17 1.68 4.09.42a.34.34 0 0 1 .52.32q-.58 4.8-3.54 7.39a.85.85 0 0 0-.28.8q.03.2.13.37.54.94-.31.27-.56-.45-1.28-.55-.69-.1-.88-.78-.31-1.12-1.24-1.7-.64-.4-.61.35.03.85.64 1.51.51.57-.16.93l-3.94 2.11q-.4.21-.54.65-.4 1.23.39 2.24.34.44-.02.87c-1.46 1.69-2.81 2.23-2.35 4.86" vector-effect="non-scaling-stroke"/><path stroke="#793279" d="m260.12 255.85-.46.19" vector-effect="non-scaling-stroke"/><path stroke="#760078" d="M259.66 256.04q-2.1-2.75-1.68-6.43a.26.26 0 0 0-.25-.29l-.31-.01q-.31 0-.36.3l-.11.63q-.16.95-.78.21-.55-.66-1.39-.69-.86-.04-.62-.86.16-.57.51-1.05a1.09 1.08 51.9 0 0 .12-1.03q-.39-.93-1.11-1.61-.39-.38-.43-.92-.05-.71.27-1.33.24-.47.17-1-.14-1.11-1.03-1.84a.96.96 0 0 1 .06-1.53q.78-.54 1.13-1.38a.7.7 0 0 0-.39-.92q-1.18-.48-1.99-1.35a.65.65 0 0 1-.05-.82q1.59-2.19.6-4.32-.78-1.69-.98.16l-.14 1.33q-.06.54-.59.68-2 .52-2.42-1.27-.14-.58-.72-.67l-.38-.06q-.99-.15-.42.67.76 1.07.63 2.3-.04.48-.41.78-.35.3-.8.4-.73.14-.3.75.48.65.64 1.42.2.95.86.25.14-.15.34-.21.82-.26.61.57-.64 2.52-2.79 4.43a1.13 1.13 0 0 1-1.82-.45q-.04-.12-.12-.22-.55-.71-.97.09-.71 1.35-2.42 1.36a.79.78-8 0 0-.75.99q.13.48.46.87.53.63-.26.83-1.44.37-1.42 2.11.02 1.48-1.07.49-1.33-1.21-.29-2.6.37-.5-.25-.59l-1.15-.16a.97.96 88.2 0 1-.8-.76q-.43-2.02-1.78-3.5-.37-.41-.03-.83l.74-.9a.93.92-48.8 0 0-.08-1.26q-.91-.87-.5-2 .21-.55-.01-1.1-.5-1.26-1.34-2.25-.38-.45-.11-.97.44-.83 1.16-1.42a.73.72 62.6 0 0 .24-.76q-.19-.64-.74-.95-.6-.34-.7.34c-.11.8-.58 1.41-1.45 1.43q-1.53.04-1.81-1.54a.67.66-11 0 0-.79-.53l-.39.08q-.8.17-.58.95.2.77.66 1.42.33.46.07.96-.47.91-1.26 1.54-.45.35-.18.85.35.64.99.92.4.17.64-.2.08-.14.22-.23.66-.43.69.36l.09 2.25q.04.91-.82.62l-.38-.13a.64.64 0 0 0-.84.53l-.15 1.14q-.07.51-.58.49-.18-.01-.3-.12-.35-.3-.72-.04l-2.8 1.96a.78.77-34.6 0 0-.2 1.07q1.35 1.97-.85 4.3a.72.72 0 0 1-1.24-.41l-.23-1.8q-.12-.97-.79-.26l-1.02 1.08q-1.03 1.08-1.04-.41-.01-1.55-1.32-2.22-.53-.27-.56-.86-.02-.46.29-.81a.5.5 0 0 0-.15-.78l-.52-.27q-.52-.26-.63-.84-.46-2.55-2.55-3.54-.37-.17-.47-.55-.42-1.48.52-2.57a.33.33 0 0 0-.25-.54h-1.84q-.71.01-.33.6l.61.98a.85.85 0 0 1-.31 1.19q-.35.2-.75.28-.67.14-.88.8-.01.04-.01.09.01.92-.86.56-.9-.36-1.86-.04M79.76 146.29q1.21-.24 1.33-1.56a.54.54 0 0 1 .65-.48q.29.06.51.3.22.23.51.1.12-.06.16-.19.07-.21 0-.42-.16-.51-.45-.94-.54-.78.37-1.01.14-.04.28-.06.86-.18.35-.88-.47-.65.03-1.29a.71.71 0 0 0 .08-.77q-.22-.43-.65-.63-.39-.19-.73.07-.95.7-2-.5l-.36-4.33q-.05-.56.5-.7l.72-.18q.57-.14.82-.68 1.71-3.67.82-7.95M82.7 124.19q.98-.88 1.85-.25.39.28.44.75l.14 1.52q.09 1.06.84.31l.27-.27q.59-.6.84.2 1.19 3.88 2.27 7.21.23.72 1 1.09.56.28.6-.34l.17-2.37q.09-1.27 1.05-.43.28.24.65.32.64.14.87-.47l.32-.87q.18-.5.68-.69.55-.21.98.24.3.32.34.81.24 3.35-.89 6.21-.31.77.44.42 2.04-.96 4.04.85.34.31.4.76.35 2.54-1.56 3.92a.39.39 0 0 0 .06.67l2.77 1.35a1.45 1.45 0 0 1 .63 2.01q-.78 1.4-1.03 3.1a.42.42 0 0 0 .59.44q1.42-.64 3.15.53.39.27.44.74.29 2.95-.59 5.45-.18.49.34.58.61.1 1.16.44 1.4.84.87-.71-.14-.41-.38-.8-.47-.75.29-1.19l1.61-.94q.49-.29.61-.84.04-.21.17-.37a.76.75-35.4 0 1 1.31.22q.58 1.66 1.66 2.89a.49.49 0 0 0 .86-.26q.1-.79.52-1.45.38-.6-.28-.84l-.44-.17q-.51-.19-.64-.72-.81-3.35 1.33-5.36.41-.39-.09-.65l-2.07-1.06a.91.91 0 0 0-1.03.13q-.29.27-.67.41-.7.27-.62-.48.55-4.68 3.61-7.23.6-.5-.02-.96-.24-.18-.29-.47-.14-.8.42-.21.67.7 1.59.78.7.06.75.76.07.89.75 1.4 1.82 1.34.94-.74-.22-.52-.32-1.03-.12-.53.36-.79l3.72-2.03q.5-.27.56-.84.12-1.13-.5-2.01-.38-.53.13-.94 2.3-1.87 2.34-4.44" vector-effect="non-scaling-stroke"/><path stroke="#793279" d="M123.01 127.48q.06-.6.48-.73" vector-effect="non-scaling-stroke"/><path stroke="#760078" d="M123.49 126.75q1.93 3.02 1.58 6.69-.01.06.04.09l.29.14q.37.18.42-.23l.11-.89q.1-.8.71-.27.85.75 1.92 1.11.64.22.32.82l-.75 1.38q-.3.55.1 1.02l1.13 1.32a1.52 1.51 24.8 0 1 .35.94q.01.84-.43 1.64-.29.53-.01 1.07.39.73 1.07 1.25a.85.85 0 0 1 0 1.36q-.94.72-1.29 1.74-.21.61.4.83 1.14.39 2.04 1.2.36.32.16.75l-1.22 2.69a.54.54 0 0 0 .05.55q.48.69.6 1.51.03.17.17.27.12.1.23.1.44-.01.48-.45l.15-1.61q.05-.56.59-.71 2.13-.55 2.5 1.3.11.53.62.7.16.04.31.01.8-.19.41-.91-1.38-2.49.79-3.41.51-.22.16-.65-.47-.58-.62-1.32-.19-.9-.88-.29-.12.12-.28.17-.89.3-.62-.59.86-2.87 2.91-4.73a.67.66-42.8 0 1 .92.03l1.1 1.14q.36.38.71-.01.2-.22.14-.55a.56.55-12.1 0 1 .41-.62l2.16-.56q.71-.18.53-.88-.17-.63-.59-1.16a.38.38 0 0 1 .25-.61q1.65-.19 1.44-1.9-.2-1.62 1.07-.59.94.76.75 2.04-.04.28-.3.39-.17.07-.24.23-.25.54.34.59l1.49.12q.65.05.68.71.09 1.94 1.53 3.2a.8.79-49.4 0 1 .08 1.11l-.91 1.08q-.54.63.16 1.09 1.41.93.51 2.34a.89.89 0 0 0 .05 1.04l1.53 1.91a.95.94 42.6 0 1 .05 1.11q-.53.78-1.31 1.32-.48.33-.2.84.31.56.87.9.61.36.76-.33l.12-.57q.11-.52.62-.68 1.87-.58 2.35 1.06.13.45.45.74.53.5 1.16-.15a.85.85 0 0 0 .09-1.08q-.46-.67-.68-1.42a1.1 1.08-33.4 0 1 .21-.98l1.17-1.44a.71.7-47.6 0 0-.04-.94q-.84-.89-1.75-.24-.69.48-.68-.36l.03-2.53q.01-.74.66-.38l.6.33a.54.53-74.9 0 0 .79-.46l.05-1.53q.02-.7.64-.38.84.44 1.38 1.36.04.07.12.09.17.02.28-.06.25-.18.04-.4-.8-.87.17-1.56.87-.63 1.8-1.06.64-.3.33-.93l-.58-1.15q-.26-.54-.03-1.09l.87-2.02a.93.93 0 0 1 1.74.11q.25.82.15 1.7-.07.68.55.38.86-.41 1.42-1.29.15-.23.43-.26.22-.02.36.37.17.43.14.9-.1 1.45 1.32 1.92.51.18.61.71.09.54-.33.92a.45.45 0 0 0 .16.76c1.88.67.79 3.8 3.74 4.6a.79.79 0 0 1 .59.74q.06 1.21-.67 2.15-.58.77.38.82l1.36.07q.89.04.5-.75l-.43-.86q-.28-.58.12-1.08.27-.34.7-.38.66-.07.97-.66.15-.29.13-.6-.03-.73.63-.42l2.48 1.17q.59.28.31-.3l-2.08-4.42q-.2-.43.09-.8.42-.53.45-1.15.04-.79-.64-.4-.82.48-1.6.01-.49-.3-.87.13-.27.31-.76.06a.41.4-68.5 0 1-.21-.49l.97-3.17q.13-.43-.13-.79l-.19-.28q-.48-.7.37-.77l1.08-.1q.74-.06.45-.75-.6-1.44.34-2.86a1.39 1.38 50.1 0 0 .11-1.33l-1.7-3.88a.84.84 0 0 1 .58-1.16q1.41-.33 2.26-1.56a.52.52 0 0 1 .94.25l.06.72q.02.24.26.28.18.03.33-.07.36-.25.26-.67-.07-.33.19-.55.38-.32.73.03.69.68 1.34-.08.47-.55.97-.01.3.32.08.71-.12.22 0 .44.09.16.23.12.35-.09.43-.43.26-1.09 1.18-1.78.46-.35.9.02.48.4 1.11.53.8.16.54-.62l-1.46-4.41q-.17-.49.19-.87l1.36-1.44q.44-.46-.18-.28-.42.13-.77.39-.53.4-1.1.08l-.94-.53a.5.49 13.5 0 0-.74.45l.05 1.24q.04 1.07-.87.52-2.74-1.65-1.7-3.71.32-.65-.4-.7-.16-.01-.31-.07-.53-.21-.67-.77-.28-1.11-1.35-1.44-.45-.14-.23-.57.31-.61.14-1.29-.12-.47.03-.94l1.9-6.2q.29-.95-.58-1.43l-.65-.37a.81.81 0 0 0-1.19.56l-.26 1.44q-.16.82-.87.37-.99-.63-1.97.04t-1-.52q-.02-1.12-.64-2.07-.93-1.45-1.41.2-.59 2.02-2.39 1.41-.65-.23-.52.45.12.62.44 1.2.42.74-.23 1.31-.15.13-.2.31-.27.95.7 1.12.93.15 1.24.91.22.54-.22.93-1.33 1.21-3.14 1.99-.59.25-.59-.39l-.01-1.94q-.01-.76-.65-1.17l-1.84-1.18a.31.3-61.6 0 0-.44.14q-.12.28-.4.42-.89.46-.25-.31 1.36-1.61 1.43-3.74c.03-.8-.41-1.45-1.18-1.69q-.64-.21-.06-.54.29-.17.24-.49-.02-.2-.11-.38-.84-1.66-2.09-2.68c-.7-.58-.77-1.3-1.38-1.93q-.76-.77.32-.79 1.38-.02 1.43-1.36.03-.59.59-.41.17.06.32.17.55.42 1.06-.04 1.51-1.35 2.85-2.93.31-.37.21-.83-.2-.85-.88-.3-.63.52-1.34.13-.68-.36-.48-1.11l2.56-9.4M174.17 72.55q1.91-1.36 5.39 1.22a.88.88 0 0 0 1.4-.78q-.14-1.67 1.08-2.88" vector-effect="non-scaling-stroke"/><path stroke="#ee32f1" d="M123.49 126.75q-.1-.7-.78-.74-.67-.05-.73.43-.07.48 1.03 1.04" vector-effect="non-scaling-stroke"/><path stroke="#ed74f0" d="M259.21 81.73c.08 5.58 3.94 9.35 9.29 10.14q1.03.15.16-.42-1.58-1.04-3.36-1.76c-3.01-1.21-4.69-4.63-5.47-7.62" vector-effect="non-scaling-stroke"/><path stroke="#eb80ef" d="M262.8 82.6q1.39 3.71 3.32 5.02 3.07 2.1 5.8 4.59 1.75 1.6 3.12 2.59c3.09 2.22 5.81 4.67 9.9 4.01M287.38 103.2q-.02.48-.3.53-.13.01-.18.03-3.49 1.32-5.9.06-3.78-1.97-6.91-7.24-.24-.4-.63-.61-.77-.41-.32.34c1.47 2.47 2.26 4.71 4.28 7.43 3 4.02 7.43 4.4 10.92.31" vector-effect="non-scaling-stroke"/><path stroke="#760078" d="M294.8 107.03q.57.81 1.88.7M301.26 110.01q-.5 2.09.18 4.01a1.19 1.18-41.9 0 1-.05.9q-.82 1.72 1.01 2.99" vector-effect="non-scaling-stroke"/><path stroke="#ee66f0" d="M80.2 138.03q-.41-.08-.71-.03-.55.1-.65.65-.14.79.07 1.36.83 2.25 1.15-.14.06-.45.14-1.84M77.91 136.2q2-.78 1.31-3.14-.2-.69.49-.89.24-.08.5-.04.62.1.64-.53.02-.37-.3-.5-.97-.38-.02-.82l.76-.36q.66-.3.21-.87l-.98-1.25" vector-effect="non-scaling-stroke"/><path stroke="#eb80ef" d="m289.26 253.91-1.43.55q-.55.21-.77-.33-.43-1.02-1.27-1.82-.07-.06-.15-.05-.93.14-.12.62.34.2.37.58.06.72-.5.27c-5.17-4.15-11.37-7.49-17.02-1.62-2.32 2.41-6.3 5.74-9.63 6.06-2.74.26-6.38-1.78-8.99-2.94-6.98-3.1-14.07-.43-17.9 6.06q-3.13 5.28-4.69 11.87-1.58 6.7-2.4 14.35-.08.79-.95 1.28-.5.28-.25.8.74 1.57.21 3.35-1.33 4.43-2.01 9.26-.05.36-.4.44-.25.05-.41-.14-.69-.86-.79.23-.2 2.34.05 4.32" vector-effect="non-scaling-stroke"/><path stroke="#b904ba" d="m220.21 307.05-.68-.08" vector-effect="non-scaling-stroke"/><path stroke="#760078" d="M219.53 306.97q-.51-.55-1.05-.63-.42-.05-.62.32-.12.21-.34.15-.4-.12-.52-.51-.68-2.28-.31-4.17.59-3.11 1.95-6.41.17-.42-.1-.79-.79-1.05-1.79-.26-.29.23-.57-.02-.16-.14-.19-.35-.04-.32.13-.56 1.19-1.63 2.87-3.13.49-.44 1.09-.16.76.36.87-.47.11-.84.95-.99.14-.02.28-.01.76.08.49-.63-.62-1.6-1.72-2.35-.42-.29-.68-.72l-1.06-1.81a.42.41 52.4 0 1 .06-.49l.22-.22q.39-.39-.15-.51-1.89-.41-1.08-2.48.44-1.12.57-2.24.05-.39.41-.54.17-.08.35-.15.21-.09.21-.31 0-.15-.21-.25-.25-.12-.43.09-.11.12-.17.27-.17.46-.59.21l-1.72-1q-.61-.36-.65-1.07l-.1-2.06q-.04-.65-.62-.36l-2.7 1.36a1.23 1.23 0 0 0 .11 2.25l.75.3q.56.21.46.79-.09.5-.39.94-.34.48-.03.98.32.5.39 1.1.11 1-.71.41-.27-.19-.6-.23-.62-.08-.89.48l-.83 1.7q-.31.64-.84.17-1.12-1.01-1.03-2.58.07-1.34-.99-.52-1.1.86-2.25-.05-.54-.43-.65.26l-.24 1.6a.8.8 0 0 1-.93.67q-.92-.15-1.48-1.04-.28-.44.05-.84.78-.92.27-1.96-.2-.41.11-.74 1.8-1.97 1.55-6.01a.21.2 6.3 0 0-.15-.18l-.55-.16a.95.93 4.3 0 1-.68-.78q-.19-1.35-1.46-1.6-.45-.08-.14-.42c.72-.76.46-1.53-.2-2.32q-.89-1.05-1.61-2.19M203.1 258.69q2.35-.38 4.51-1.92a.86.85 58.6 0 0 .26-1.09l-1.75-3.36a1.45 1.44 41.4 0 1-.08-1.17l.87-2.36a.72.71 30.7 0 0-.2-.77q-.3-.26-.19-.62.12-.42.56-.37.68.07 1.29-.19t.16-.74q-.21-.22-.33-.52-.22-.56.05-1.1.59-1.18.76-2.49.08-.64-.57-.64-1.85.02-3.42.58M204.89 240.7l.49-.58q.35-.41.14-.9l-.95-2.22" vector-effect="non-scaling-stroke"/><path stroke="#ee32f1" d="M259.66 256.04q-.09.93.8 1.11a.47.47 0 0 0 .52-.67q-.25-.53-.86-.63" vector-effect="non-scaling-stroke"/><path stroke="#b904ba" d="M163.31 75.98q-.05.25-.5.1" vector-effect="non-scaling-stroke"/><path stroke="#b883b9" d="M162.08 75.26q-.01.53.73.82" vector-effect="non-scaling-stroke"/><path stroke="#eb80ef" d="M162.81 76.08q.44 2.16-.04 4.35-.2.92-.66.1-.1-.18-.26-.25-.6-.28-.67.37-.5 4.44-2.05 9.67-.51 1.72.48 3 .36.46-.11.81l-.86.66q-.46.35-.53.93c-.19 1.63-.05 3.12-.45 4.77q-.53 2.13-.8 4.29-.76 5.96-4.03 13.74c-3.39 8.05-11.15 13.09-19.76 9.17-3.12-1.42-7.52-4.01-10.98-2.31q-4.53 2.23-7.78 5.8c-4.98 5.48-12.06 2.06-16.51-1.86q-.31-.28-.73-.25-.28.03-.33.31-.19 1.03-.56.05-.12-.31-.19-.64-.08-.37-.37-.6-.45-.36-.61.2-.24.79-1.08.66-.74-.11-.52-.83.07-.21.23-.38.6-.62-.26-.71-2.44-.23-4.72-1.95-.25-.19-.5-.01-.14.1-.13.27.01.27.21.47 1.45 1.5 3.36 2.35.86.38-.05.61-.9.22-1.66-.51-1.14-1.09-2.3-2.22-.36-.35-.48-.83-.71-2.79-3.84-2.09" vector-effect="non-scaling-stroke"/><path stroke="#758077" d="m289.59 263.78.07.92M289.85 265.55l.05 1.74" vector-effect="non-scaling-stroke"/><path stroke="#b883b9" d="m219.82 310.06-.02-1.98" vector-effect="non-scaling-stroke"/><path stroke="#758077" d="M219.8 308.08q.06.35.21-.33" vector-effect="non-scaling-stroke"/><path stroke="#b883b9" d="M220.01 307.75q.39.17.58-.24.14-.3-.38-.46" vector-effect="non-scaling-stroke"/><path stroke="#430442" d="m219.53 306.97.48.78M219.8 308.08q-.82-.02-.41 2.17" vector-effect="non-scaling-stroke"/><path stroke="#760078" d="M208.77 313.52q.47-1.43.16-2.74-.15-.62-.72-.35l-.54.25q-.56.26-1.13 0l-3.45-1.6a.6.59-69.1 0 0-.82.37l-1.07 3.53a1.09 1.09 0 0 0 1.23 1.39q1.25-.21 2.52.35" vector-effect="non-scaling-stroke"/><path stroke="#430442" d="M176.41 73.45q.05.32.33.15.21-.14-.01-.25-.37-.18-.32.1M270.39 114.46q.01.08.08.12.09.05.16-.01.22-.19-.06-.26-.19-.05-.18.15M177.11 126.39q.04.27.3.32.19.04.26-.13.12-.29-.16-.45a.27.26-77.9 0 0-.4.26M223.77 237.5a.29.29 0 0 0-.29-.29.29.29 0 0 0-.29.29.29.29 0 0 0 .29.29.29.29 0 0 0 .29-.29" vector-effect="non-scaling-stroke"/><path stroke="#ee66f0" d="M162.456 87.04a2.04.54 90.4 0 0 .554-2.036 2.04.54 90.4 0 0-.526-2.044 2.04.54 90.4 0 0-.554 2.036 2.04.54 90.4 0 0 .526 2.044" vector-effect="non-scaling-stroke"/><path stroke="#ee66f0" d="M161.36 88.12q-.3.3-.3.72a.21.2-13.7 0 0 .31.18q.54-.3.35-.82a.22.22 0 0 0-.36-.08M160.65 89.89q-.48.16-.54.73-.05.41.33.23.48-.23.48-.76a.21.2-8.1 0 0-.27-.2" vector-effect="non-scaling-stroke"/><path stroke="#eb80ef" d="M159.52 103.96q1.3 5.4-.88 12.52c-2.69 8.82-10.42 14.04-19.37 15.37q-6.66.98-11.04-3.17-1.39-1.32-2.78-2.62-.08-.08-.17 0l-.18.17q-.18.16-.02.34c2.89 3.08 5.22 6.14 9.88 6.5q9.3.73 16.49-3.78 8.11-5.09 9.35-14.07.45-3.18.29-7.35c-.11-3.02-1.27-5.35-1.19-8.42q.01-.19-.17-.24l-.29-.09q-.19-.05-.22.14-.34 2.05.3 4.7" vector-effect="non-scaling-stroke"/><path stroke="#ed74f0" d="M115.08 132.57q-4.32 2.09-8.7 4.27a1.63 1.59 40 0 1-1.21.09l-4.06-1.33q-.56-.18-.76-.73-.57-1.53-1.83-2.88-.05-.05-.11-.01l-.22.13q-.1.06-.05.16c1.68 3.43 3.72 6.86 8.24 5.4 1.37-.44 2.79-.81 3.98-1.62q2.21-1.52 4.74-2.6c2.48-1.05 4.06-3.11 5.81-5.02q.01-.02 0-.04l-.12-.29q-.11-.26-.32-.06c-1.68 1.66-3.16 3.45-5.39 4.53" vector-effect="non-scaling-stroke"/><path stroke="#ee66f0" d="M272.84 94.67q-.86-1.57-2.35-2.45-.81-.47-.28.31.92 1.35 2.39 2.36a.17.17 0 0 0 .24-.22" vector-effect="non-scaling-stroke"/><path stroke="#ed74f0" d="M282.82 248.56q.39 1.41 1.66 2.36.65.49.33-.27-1.02-2.44-3-4.48-1.42-1.45-3.4-1.22-3.41.41-5.93 2.07-1.8 1.19-3.85 2.06-3.19 1.34-5.72 4.6-1.48 1.89.37.35c1.46-1.21 2.5-2.54 4.22-3.36q3.79-1.83 7.72-3.85c2.29-1.18 5.01-.24 6.97.92q.48.28.63.82" vector-effect="non-scaling-stroke"/><path stroke="#eb80ef" d="M249.72 251.46q4.1 1.13 7.43 5.31.21.27.44.01l.21-.24q.07-.07 0-.15c-2.58-2.92-5.16-5.99-9.39-6.43-11.93-1.24-24.55 5.28-26.2 17.85-.44 3.31-.53 7.9.37 11.3q.55 2.07.48 4.34-.01.24.23.26l.28.03q.14.02.17-.12.44-2.23-.16-4.04c-1.7-5.15.14-12.96 2.45-17.11q3.52-6.33 11.02-9.46 7.25-3.03 12.67-1.55" vector-effect="non-scaling-stroke"/><path stroke="#ee66f0" d="M222.52 292.13q-.49.26-.45.6a.33.32 71 0 0 .49.24q.46-.27.28-.72a.22.22 0 0 0-.32-.12M220.89 295.76q-1.38 1.51-.72 3.55.42 1.27.63-.05.27-1.74.3-3.45.01-.57.49-.88.25-.16.28-.46.11-.96-.47-.19-.28.38-.27.85.01.36-.24.63" vector-effect="non-scaling-stroke"/><path stroke="#430442" d="M206.17 309.57a.25.25 0 0 0 .29.34q.2-.05.22-.27.01-.3-.29-.25-.16.03-.22.18" vector-effect="non-scaling-stroke"/></g><path d="M221.16 70.23q-1.39 3.43-3.6 5.89-.41.45-.03.91.56.69-.15 1.3-.53.47.16.62 1.41.29 1.48-1.25a.49.49 0 0 1 .71-.41q1.4.71.69 1.91-.36.59.34.67l1.28.14a1.28 1.28 0 0 1 1.1 1.59l-1.44 5.72q-.15.59-.73.82-.69.27-.9.94-.31 1.02.62.5l.47-.25q.54-.3.9.2.47.63 1.13 1.04.72.44.76-.4.03-.68.19-1.35.44-1.77 2.08-1.41.53.12.64-.42.05-.23.17-.43a.58.57-60.5 0 1 .75-.21l1.29.64q.48.24.66.75l1.38 3.75q.39 1.08 1.02.12l.49-.73a2.07 2.03-38.2 0 0 .23-1.8l-.59-1.76q-.23-.69.15-1.31.74-1.21-.06-2.39a.41.41 0 0 1 .34-.64l2.79-.01q.64-.01.23-.5-.18-.23-.46-.28-.52-.11-.85-.53-1.16-1.48-.97-3.1.05-.48-.23-.9-.15-.23-.4-.33-.52-.22-.69.32l-.25.77q-.16.51-.67.34-.43-.15-.68-.51-.29-.42-.12-.9.65-1.74.99-2.22.77-1.11.31-1.87l8.36-1.19q-.22 1.85 1.24 2.58.49.25.64-.27.29-1 .01-2.34 3.25-.21 5.93 1.84 3.84 2.94 6.83 5.75-.81 1.52 1.79 4.67.45.54-.25.6l-1.54.14q-.51.04-.26.49.13.26.23.53.57 1.61-.02 3.5-.19.61-.8.78-.77.21-1.27.84-.58.74.24.29.22-.11.34-.32a.42.42 0 0 1 .77.16q.6 3.93-1.39 5.88-.36.35-.07.75.64.94 1.69.5.49-.2.91.12 1.71 1.29 2.31 2.97.2.56.46.03.26-.52.19-1.12a1.25 1.25 0 0 1 .4-1.04q.4-.37.91-.58.52-.22.65-.77.43-1.81-1.39-2.21-.55-.12-.38-.66.31-.98 1.54-1.03 1.35-.06 2.57-.72.41-.23.53.23.26.94 1.05 1.67.3.28.69.15 1.67-.56 2.32 1.3.8 2.31 1.14-.11.14-1-.04-2.11-.11-.7.51-.37l2.13 1.14a.78.78 0 0 1 .17 1.26q-.49.46-.71 1.09-.18.55.19 1.01l1.45 1.8a.78.78 0 0 1 .04.91q-.36.54-1.02.7a.47.47 0 0 0-.2.8q.21.18.22.46.04.59-.22 1.19-1.6 3.7-2.35 7.77-.12.66.54.68 1.59.05 3.04.85a.73.73 0 0 0 1.03-.92l-.49-1.19q-.26-.63.42-.73.79-.13 1.43-.58.62-.45.72.31l.06.41q.06.46.48.65l2.52 1.14a.53.52 9.7 0 0 .74-.52q-.03-.32-.22-.58-.43-.59.29-.76.8-.18 1.07.6 1.09 3.18.56 7.89-.05.46-.5.56-.42.09-.28.72a1.19.83 39.3 0 0 .05.14q.6 1.35-.44 2.64-.58.71.25 1.11l1.76.83q.49.23.86-.17 1.08-1.16.36-2.43-.5-.89.53-.9.6-.01 1-.43.57-.61 1.17-.04.24.23.55.31a.79.78 19.3 0 0 .93-.44l.32-.71a1.26 1.26 0 0 1 2.08-.34q1.78 1.93 1.5 4.06-.03.17.06.32.1.17.37.1a.44.43 89.2 0 1 .52.51q-.23 1.26.33 2.67.48 1.18-.33 2.12-.42.49.19.27 1.75-.65 3.56-.51a.75.75 0 0 0 .65-1.21l-1.24-1.59a1.95 1.95 0 0 1-.18-2.12l3.29-6.23q.41-.77 1.18-.35l3.78 2.11q-.28 6.81-1.72 13.73c-.37 1.74 1.84 4.71 2.83 6.26q.31.49.31 1.06.03 9.53.02 18.46-.01 4.43-1.25 11.46-4.24 24.05-8.13 47.63-1.29 7.77-2.97 17.1-1.54 8.56-2.49 17.19l-1.59-.46q-.56-.16-.63-.73-.31-2.85.19-5.23a.7.7 0 0 1 .25-.41q.28-.22.36-.55.18-.78-.56-.48-1.55.62-3.37-.51c-1.86-1.16-.93-4.04.37-5.22q.38-.35-.07-.6l-2.52-1.4a1.57 1.57 0 0 1-.6-2.14q.82-1.43.82-3.02 0-.5-.46-.31-1.35.55-2.96-.5-.33-.22-.41-.61-.55-2.9.35-5.67.21-.62-.44-.69-.65-.06-1.23-.46-.82-.56-.79.44.02.41.28.73 1.02 1.24-.46 1.85-1.37.57-2.03 1.77-.53.98-1.09.02l-1.73-2.91a.51.51 0 0 0-.94.19q-.12.83-.6 1.49-.42.59.27.78 1.05.29 1.21 1.47.46 3.33-1.47 4.88-.39.31.01.61 2.17 1.68 4.09.42a.34.34 0 0 1 .52.32q-.58 4.8-3.54 7.39a.85.85 0 0 0-.28.8q.03.2.13.37.54.94-.31.27-.56-.45-1.28-.55-.69-.1-.88-.78-.31-1.12-1.24-1.7-.64-.4-.61.35.03.85.64 1.51.51.57-.16.93l-3.94 2.11q-.4.21-.54.65-.4 1.23.39 2.24.34.44-.02.87c-1.46 1.69-2.81 2.23-2.35 4.86l-.46.19q-2.1-2.75-1.68-6.43a.26.26 0 0 0-.25-.29l-.31-.01q-.31 0-.36.3l-.11.63q-.16.95-.78.21-.55-.66-1.39-.69-.86-.04-.62-.86.16-.57.51-1.05a1.09 1.08 51.9 0 0 .12-1.03q-.39-.93-1.11-1.61-.39-.38-.43-.92-.05-.71.27-1.33.24-.47.17-1-.14-1.11-1.03-1.84a.96.96 0 0 1 .06-1.53q.78-.54 1.13-1.38a.7.7 0 0 0-.39-.92q-1.18-.48-1.99-1.35a.65.65 0 0 1-.05-.82q1.59-2.19.6-4.32-.78-1.69-.98.16l-.14 1.33q-.06.54-.59.68-2 .52-2.42-1.27-.14-.58-.72-.67l-.38-.06q-.99-.15-.42.67.76 1.07.63 2.3-.04.48-.41.78-.35.3-.8.4-.73.14-.3.75.48.65.64 1.42.2.95.86.25.14-.15.34-.21.82-.26.61.57-.64 2.52-2.79 4.43a1.13 1.13 0 0 1-1.82-.45q-.04-.12-.12-.22-.55-.71-.97.09-.71 1.35-2.42 1.36a.79.78-8 0 0-.75.99q.13.48.46.87.53.63-.26.83-1.44.37-1.42 2.11.02 1.48-1.07.49-1.33-1.21-.29-2.6.37-.5-.25-.59l-1.15-.16a.97.96 88.2 0 1-.8-.76q-.43-2.02-1.78-3.5-.37-.41-.03-.83l.74-.9a.93.92-48.8 0 0-.08-1.26q-.91-.87-.5-2 .21-.55-.01-1.1-.5-1.26-1.34-2.25-.38-.45-.11-.97.44-.83 1.16-1.42a.73.72 62.6 0 0 .24-.76q-.19-.64-.74-.95-.6-.34-.7.34c-.11.8-.58 1.41-1.45 1.43q-1.53.04-1.81-1.54a.67.66-11 0 0-.79-.53l-.39.08q-.8.17-.58.95.2.77.66 1.42.33.46.07.96-.47.91-1.26 1.54-.45.35-.18.85.35.64.99.92.4.17.64-.2.08-.14.22-.23.66-.43.69.36l.09 2.25q.04.91-.82.62l-.38-.13a.64.64 0 0 0-.84.53l-.15 1.14q-.07.51-.58.49-.18-.01-.3-.12-.35-.3-.72-.04l-2.8 1.96a.78.77-34.6 0 0-.2 1.07q1.35 1.97-.85 4.3a.72.72 0 0 1-1.24-.41l-.23-1.8q-.12-.97-.79-.26l-1.02 1.08q-1.03 1.08-1.04-.41-.01-1.55-1.32-2.22-.53-.27-.56-.86-.02-.46.29-.81a.5.5 0 0 0-.15-.78l-.52-.27q-.52-.26-.63-.84-.46-2.55-2.55-3.54-.37-.17-.47-.55-.42-1.48.52-2.57a.33.33 0 0 0-.25-.54h-1.84q-.71.01-.33.6l.61.98a.85.85 0 0 1-.31 1.19q-.35.2-.75.28-.67.14-.88.8-.01.04-.01.09.01.92-.86.56-.9-.36-1.86-.04c-.18-7.64-1-16.28-7.63-21.08q-3.1-2.25-9.9-3.26-6.81-1.03-11.87-1.09c-6.86-.1-14.04 1.29-19.91-3.5q-13.93-11.37-18.66-14.76-14.29-10.28-30.61-11.7-5.88-.51-9.06-1.66-13.39-4.82-15.57-18.51-.08-.55-.2-6.81-.06-3.49-1.04-6.79 1.21-.24 1.33-1.56a.54.54 0 0 1 .65-.48q.29.06.51.3.22.23.51.1.12-.06.16-.19.07-.21 0-.42-.16-.51-.45-.94-.54-.78.37-1.01.14-.04.28-.06.86-.18.35-.88-.47-.65.03-1.29a.71.71 0 0 0 .08-.77q-.22-.43-.65-.63-.39-.19-.73.07-.95.7-2-.5l-.36-4.33q-.05-.56.5-.7l.72-.18q.57-.14.82-.68 1.71-3.67.82-7.95.98-.88 1.85-.25.39.28.44.75l.14 1.52q.09 1.06.84.31l.27-.27q.59-.6.84.2 1.19 3.88 2.27 7.21.23.72 1 1.09.56.28.6-.34l.17-2.37q.09-1.27 1.05-.43.28.24.65.32.64.14.87-.47l.32-.87q.18-.5.68-.69.55-.21.98.24.3.32.34.81.24 3.35-.89 6.21-.31.77.44.42 2.04-.96 4.04.85.34.31.4.76.35 2.54-1.56 3.92a.39.39 0 0 0 .06.67l2.77 1.35a1.45 1.45 0 0 1 .63 2.01q-.78 1.4-1.03 3.1a.42.42 0 0 0 .59.44q1.42-.64 3.15.53.39.27.44.74.29 2.95-.59 5.45-.18.49.34.58.61.1 1.16.44 1.4.84.87-.71-.14-.41-.38-.8-.47-.75.29-1.19l1.61-.94q.49-.29.61-.84.04-.21.17-.37a.76.75-35.4 0 1 1.31.22q.58 1.66 1.66 2.89a.49.49 0 0 0 .86-.26q.1-.79.52-1.45.38-.6-.28-.84l-.44-.17q-.51-.19-.64-.72-.81-3.35 1.33-5.36.41-.39-.09-.65l-2.07-1.06a.91.91 0 0 0-1.03.13q-.29.27-.67.41-.7.27-.62-.48.55-4.68 3.61-7.23.6-.5-.02-.96-.24-.18-.29-.47-.14-.8.42-.21.67.7 1.59.78.7.06.75.76.07.89.75 1.4 1.82 1.34.94-.74-.22-.52-.32-1.03-.12-.53.36-.79l3.72-2.03q.5-.27.56-.84.12-1.13-.5-2.01-.38-.53.13-.94 2.3-1.87 2.34-4.44.06-.6.48-.73 1.93 3.02 1.58 6.69-.01.06.04.09l.29.14q.37.18.42-.23l.11-.89q.1-.8.71-.27.85.75 1.92 1.11.64.22.32.82l-.75 1.38q-.3.55.1 1.02l1.13 1.32a1.52 1.51 24.8 0 1 .35.94q.01.84-.43 1.64-.29.53-.01 1.07.39.73 1.07 1.25a.85.85 0 0 1 0 1.36q-.94.72-1.29 1.74-.21.61.4.83 1.14.39 2.04 1.2.36.32.16.75l-1.22 2.69a.54.54 0 0 0 .05.55q.48.69.6 1.51.03.17.17.27.12.1.23.1.44-.01.48-.45l.15-1.61q.05-.56.59-.71 2.13-.55 2.5 1.3.11.53.62.7.16.04.31.01.8-.19.41-.91-1.38-2.49.79-3.41.51-.22.16-.65-.47-.58-.62-1.32-.19-.9-.88-.29-.12.12-.28.17-.89.3-.62-.59.86-2.87 2.91-4.73a.67.66-42.8 0 1 .92.03l1.1 1.14q.36.38.71-.01.2-.22.14-.55a.56.55-12.1 0 1 .41-.62l2.16-.56q.71-.18.53-.88-.17-.63-.59-1.16a.38.38 0 0 1 .25-.61q1.65-.19 1.44-1.9-.2-1.62 1.07-.59.94.76.75 2.04-.04.28-.3.39-.17.07-.24.23-.25.54.34.59l1.49.12q.65.05.68.71.09 1.94 1.53 3.2a.8.79-49.4 0 1 .08 1.11l-.91 1.08q-.54.63.16 1.09 1.41.93.51 2.34a.89.89 0 0 0 .05 1.04l1.53 1.91a.95.94 42.6 0 1 .05 1.11q-.53.78-1.31 1.32-.48.33-.2.84.31.56.87.9.61.36.76-.33l.12-.57q.11-.52.62-.68 1.87-.58 2.35 1.06.13.45.45.74.53.5 1.16-.15a.85.85 0 0 0 .09-1.08q-.46-.67-.68-1.42a1.1 1.08-33.4 0 1 .21-.98l1.17-1.44a.71.7-47.6 0 0-.04-.94q-.84-.89-1.75-.24-.69.48-.68-.36l.03-2.53q.01-.74.66-.38l.6.33a.54.53-74.9 0 0 .79-.46l.05-1.53q.02-.7.64-.38.84.44 1.38 1.36.04.07.12.09.17.02.28-.06.25-.18.04-.4-.8-.87.17-1.56.87-.63 1.8-1.06.64-.3.33-.93l-.58-1.15q-.26-.54-.03-1.09l.87-2.02a.93.93 0 0 1 1.74.11q.25.82.15 1.7-.07.68.55.38.86-.41 1.42-1.29.15-.23.43-.26.22-.02.36.37.17.43.14.9-.1 1.45 1.32 1.92.51.18.61.71.09.54-.33.92a.45.45 0 0 0 .16.76c1.88.67.79 3.8 3.74 4.6a.79.79 0 0 1 .59.74q.06 1.21-.67 2.15-.58.77.38.82l1.36.07q.89.04.5-.75l-.43-.86q-.28-.58.12-1.08.27-.34.7-.38.66-.07.97-.66.15-.29.13-.6-.03-.73.63-.42l2.48 1.17q.59.28.31-.3l-2.08-4.42q-.2-.43.09-.8.42-.53.45-1.15.04-.79-.64-.4-.82.48-1.6.01-.49-.3-.87.13-.27.31-.76.06a.41.4-68.5 0 1-.21-.49l.97-3.17q.13-.43-.13-.79l-.19-.28q-.48-.7.37-.77l1.08-.1q.74-.06.45-.75-.6-1.44.34-2.86a1.39 1.38 50.1 0 0 .11-1.33l-1.7-3.88a.84.84 0 0 1 .58-1.16q1.41-.33 2.26-1.56a.52.52 0 0 1 .94.25l.06.72q.02.24.26.28.18.03.33-.07.36-.25.26-.67-.07-.33.19-.55.38-.32.73.03.69.68 1.34-.08.47-.55.97-.01.3.32.08.71-.12.22 0 .44.09.16.23.12.35-.09.43-.43.26-1.09 1.18-1.78.46-.35.9.02.48.4 1.11.53.8.16.54-.62l-1.46-4.41q-.17-.49.19-.87l1.36-1.44q.44-.46-.18-.28-.42.13-.77.39-.53.4-1.1.08l-.94-.53a.5.49 13.5 0 0-.74.45l.05 1.24q.04 1.07-.87.52-2.74-1.65-1.7-3.71.32-.65-.4-.7-.16-.01-.31-.07-.53-.21-.67-.77-.28-1.11-1.35-1.44-.45-.14-.23-.57.31-.61.14-1.29-.12-.47.03-.94l1.9-6.2q.29-.95-.58-1.43l-.65-.37a.81.81 0 0 0-1.19.56l-.26 1.44q-.16.82-.87.37-.99-.63-1.97.04t-1-.52q-.02-1.12-.64-2.07-.93-1.45-1.41.2-.59 2.02-2.39 1.41-.65-.23-.52.45.12.62.44 1.2.42.74-.23 1.31-.15.13-.2.31-.27.95.7 1.12.93.15 1.24.91.22.54-.22.93-1.33 1.21-3.14 1.99-.59.25-.59-.39l-.01-1.94q-.01-.76-.65-1.17l-1.84-1.18a.31.3-61.6 0 0-.44.14q-.12.28-.4.42-.89.46-.25-.31 1.36-1.61 1.43-3.74c.03-.8-.41-1.45-1.18-1.69q-.64-.21-.06-.54.29-.17.24-.49-.02-.2-.11-.38-.84-1.66-2.09-2.68c-.7-.58-.77-1.3-1.38-1.93q-.76-.77.32-.79 1.38-.02 1.43-1.36.03-.59.59-.41.17.06.32.17.55.42 1.06-.04 1.51-1.35 2.85-2.93.31-.37.21-.83-.2-.85-.88-.3-.63.52-1.34.13-.68-.36-.48-1.11l2.56-9.4c4.6 1.12 5.23-2.56 7.22-5.4q1.91-1.36 5.39 1.22a.88.88 0 0 0 1.4-.78q-.14-1.67 1.08-2.88 4.89 2.24 8.43.88 5.26-2.03 7.53-2.27 3.83-.39 7.67-.08 1.65.14 3.14-.36c1.41-.47 2.78-1.3 4.28-1.22q.84.05 1.63.55 3.16 2.02 6.44 2.62m-44.75 3.22q.05.32.33.15.21-.14-.01-.25-.37-.18-.32.1m93.98 41.01q.01.08.08.12.09.05.16-.01.22-.19-.06-.26-.19-.05-.18.15m-93.28 11.93q.04.27.3.32.19.04.26-.13.12-.29-.16-.45a.27.26-77.9 0 0-.4.26m46.66 111.11a.29.29 0 0 0-.29-.29.29.29 0 0 0-.29.29.29.29 0 0 0 .29.29.29.29 0 0 0 .29-.29"/><path fill="#eb00ef" d="M182.04 70.11q-1.22 1.21-1.08 2.88a.88.88 0 0 1-1.4.78q-3.48-2.58-5.39-1.22 2.55-3.64 7.87-2.44M221.16 70.23l10.53 3.03q.46.76-.31 1.87-.34.48-.99 2.22-.17.48.12.9.25.36.68.51.51.17.67-.34l.25-.77q.17-.54.69-.32.25.1.4.33.28.42.23.9-.19 1.62.97 3.1.33.42.85.53.28.05.46.28.41.49-.23.5l-2.79.01a.41.41 0 0 0-.34.64q.8 1.18.06 2.39-.38.62-.15 1.31l.59 1.76a2.07 2.03-38.2 0 1-.23 1.8l-.49.73q-.63.96-1.02-.12l-1.38-3.75q-.18-.51-.66-.75l-1.29-.64a.58.57-60.5 0 0-.75.21q-.12.2-.17.43-.11.54-.64.42-1.64-.36-2.08 1.41-.16.67-.19 1.35-.04.84-.76.4-.66-.41-1.13-1.04-.36-.5-.9-.2l-.47.25q-.93.52-.62-.5.21-.67.9-.94.58-.23.73-.82l1.44-5.72a1.28 1.28 0 0 0-1.1-1.59l-1.28-.14q-.7-.08-.34-.67.71-1.2-.69-1.91a.49.49 0 0 0-.71.41q-.07 1.54-1.48 1.25-.69-.15-.16-.62.71-.61.15-1.3-.38-.46.03-.91 2.21-2.46 3.6-5.89M241.94 72.04q.28 1.34-.01 2.34-.15.52-.64.27-1.46-.73-1.24-2.58z"/><path fill="#860784" d="M176.41 73.45q-.05-.28.32-.1.22.11.01.25-.28.17-.33-.15"/><path fill="#eaffee" d="M162.08 75.26q-.01.53.73.82.44 2.16-.04 4.35-.2.92-.66.1-.1-.18-.26-.25-.6-.28-.67.37-.5 4.44-2.05 9.67-.51 1.72.48 3 .36.46-.11.81l-.86.66q-.46.35-.53.93c-.19 1.63-.05 3.12-.45 4.77q-.53 2.13-.8 4.29-.76 5.96-4.03 13.74c-3.39 8.05-11.15 13.09-19.76 9.17-3.12-1.42-7.52-4.01-10.98-2.31q-4.53 2.23-7.78 5.8c-4.98 5.48-12.06 2.06-16.51-1.86q-.31-.28-.73-.25-.28.03-.33.31-.19 1.03-.56.05-.12-.31-.19-.64-.08-.37-.37-.6-.45-.36-.61.2-.24.79-1.08.66-.74-.11-.52-.83.07-.21.23-.38.6-.62-.26-.71-2.44-.23-4.72-1.95-.25-.19-.5-.01-.14.1-.13.27.01.27.21.47 1.45 1.5 3.36 2.35.86.38-.05.61-.9.22-1.66-.51-1.14-1.09-2.3-2.22-.36-.35-.48-.83-.71-2.79-3.84-2.09c4.23-8.39 6.96-13.53 16.27-15.76q12.91-3.09 27.2-6.93 7.62-2.04 13.56-6.22c5.91-4.15 8.56-10.37 9.82-17.5q.1-.55.51-.91 5.16-4.59 11.45-.64"/><path fill="#860784" d="M163.31 75.98q-.05.25-.5.1-.74-.29-.73-.82.69.04 1.23.72"/><path fill="#eb00ef" d="m163.31 75.98 3.64 1.97-2.56 9.4q-.2.75.48 1.11.71.39 1.34-.13.68-.55.88.3.1.46-.21.83-1.34 1.58-2.85 2.93-.51.46-1.06.04-.15-.11-.32-.17-.56-.18-.59.41-.05 1.34-1.43 1.36-1.08.02-.32.79c.61.63.68 1.35 1.38 1.93q1.25 1.02 2.09 2.68.09.18.11.38.05.32-.24.49-.58.33.06.54c.77.24 1.21.89 1.18 1.69q-.07 2.13-1.43 3.74-.64.77.25.31.28-.14.4-.42a.31.3-61.6 0 1 .44-.14l1.84 1.18q.64.41.65 1.17l.01 1.94q0 .64.59.39 1.81-.78 3.14-1.99.44-.39.22-.93-.31-.76-1.24-.91-.97-.17-.7-1.12.05-.18.2-.31.65-.57.23-1.31-.32-.58-.44-1.2-.13-.68.52-.45 1.8.61 2.39-1.41.48-1.65 1.41-.2.62.95.64 2.07.02 1.19 1 .52t1.97-.04q.71.45.87-.37l.26-1.44a.81.81 0 0 1 1.19-.56l.65.37q.87.48.58 1.43l-1.9 6.2q-.15.47-.03.94.17.68-.14 1.29-.22.43.23.57 1.07.33 1.35 1.44.14.56.67.77.15.06.31.07.72.05.4.7-1.04 2.06 1.7 3.71.91.55.87-.52l-.05-1.24a.5.49 13.5 0 1 .74-.45l.94.53q.57.32 1.1-.08.35-.26.77-.39.62-.18.18.28l-1.36 1.44q-.36.38-.19.87l1.46 4.41q.26.78-.54.62-.63-.13-1.11-.53-.44-.37-.9-.02-.92.69-1.18 1.78-.08.34-.43.43-.14.04-.23-.12-.12-.22 0-.44.22-.39-.08-.71-.5-.54-.97.01-.65.76-1.34.08-.35-.35-.73-.03-.26.22-.19.55.1.42-.26.67-.15.1-.33.07-.24-.04-.26-.28l-.06-.72a.52.52 0 0 0-.94-.25q-.85 1.23-2.26 1.56a.84.84 0 0 0-.58 1.16l1.7 3.88a1.39 1.38 50.1 0 1-.11 1.33q-.94 1.42-.34 2.86.29.69-.45.75l-1.08.1q-.85.07-.37.77l.19.28q.26.36.13.79l-.97 3.17a.41.4-68.5 0 0 .21.49q.49.25.76-.06.38-.43.87-.13.78.47 1.6-.01.68-.39.64.4-.03.62-.45 1.15-.29.37-.09.8l2.08 4.42q.28.58-.31.3l-2.48-1.17q-.66-.31-.63.42.02.31-.13.6-.31.59-.97.66-.43.04-.7.38-.4.5-.12 1.08l.43.86q.39.79-.5.75l-1.36-.07q-.96-.05-.38-.82.73-.94.67-2.15a.79.79 0 0 0-.59-.74c-2.95-.8-1.86-3.93-3.74-4.6a.45.45 0 0 1-.16-.76q.42-.38.33-.92-.1-.53-.61-.71-1.42-.47-1.32-1.92.03-.47-.14-.9-.14-.39-.36-.37-.28.03-.43.26-.56.88-1.42 1.29-.62.3-.55-.38.1-.88-.15-1.7a.93.93 0 0 0-1.74-.11l-.87 2.02q-.23.55.03 1.09l.58 1.15q.31.63-.33.93-.93.43-1.8 1.06-.97.69-.17 1.56.21.22-.04.4-.11.08-.28.06-.08-.02-.12-.09-.54-.92-1.38-1.36-.62-.32-.64.38l-.05 1.53a.54.53-74.9 0 1-.79.46l-.6-.33q-.65-.36-.66.38l-.03 2.53q-.01.84.68.36.91-.65 1.75.24a.71.7-47.6 0 1 .04.94l-1.17 1.44a1.1 1.08-33.4 0 0-.21.98q.22.75.68 1.42a.85.85 0 0 1-.09 1.08q-.63.65-1.16.15-.32-.29-.45-.74-.48-1.64-2.35-1.06-.51.16-.62.68l-.12.57q-.15.69-.76.33-.56-.34-.87-.9-.28-.51.2-.84.78-.54 1.31-1.32a.95.94 42.6 0 0-.05-1.11l-1.53-1.91a.89.89 0 0 1-.05-1.04q.9-1.41-.51-2.34-.7-.46-.16-1.09l.91-1.08a.8.79-49.4 0 0-.08-1.11q-1.44-1.26-1.53-3.2-.03-.66-.68-.71l-1.49-.12q-.59-.05-.34-.59.07-.16.24-.23.26-.11.3-.39.19-1.28-.75-2.04-1.27-1.03-1.07.59.21 1.71-1.44 1.9a.38.38 0 0 0-.25.61q.42.53.59 1.16.18.7-.53.88l-2.16.56a.56.55-12.1 0 0-.41.62q.06.33-.14.55-.35.39-.71.01l-1.1-1.14a.67.66-42.8 0 0-.92-.03q-2.05 1.86-2.91 4.73-.27.89.62.59.16-.05.28-.17.69-.61.88.29.15.74.62 1.32.35.43-.16.65-2.17.92-.79 3.41.39.72-.41.91-.15.03-.31-.01-.51-.17-.62-.7-.37-1.85-2.5-1.3-.54.15-.59.71l-.15 1.61q-.04.44-.48.45-.11 0-.23-.1-.14-.1-.17-.27-.12-.82-.6-1.51a.54.54 0 0 1-.05-.55l1.22-2.69q.2-.43-.16-.75-.9-.81-2.04-1.2-.61-.22-.4-.83.35-1.02 1.29-1.74a.85.85 0 0 0 0-1.36q-.68-.52-1.07-1.25-.28-.54.01-1.07.44-.8.43-1.64a1.52 1.51 24.8 0 0-.35-.94l-1.13-1.32q-.4-.47-.1-1.02l.75-1.38q.32-.6-.32-.82-1.07-.36-1.92-1.11-.61-.53-.71.27l-.11.89q-.05.41-.42.23l-.29-.14q-.05-.03-.04-.09.35-3.67-1.58-6.69-.1-.7-.78-.74-.67-.05-.73.43-.07.48 1.03 1.04-.04 2.57-2.34 4.44-.51.41-.13.94.62.88.5 2.01-.06.57-.56.84l-3.72 2.03q-.48.26-.36.79.1.51.32 1.03.88 2.08-.94.74-.68-.51-.75-1.4-.05-.7-.75-.76-.92-.08-1.59-.78-.56-.59-.42.21.05.29.29.47.62.46.02.96-3.06 2.55-3.61 7.23-.08.75.62.48.38-.14.67-.41a.91.91 0 0 1 1.03-.13l2.07 1.06q.5.26.09.65-2.14 2.01-1.33 5.36.13.53.64.72l.44.17q.66.24.28.84-.42.66-.52 1.45a.49.49 0 0 1-.86.26q-1.08-1.23-1.66-2.89a.76.75-35.4 0 0-1.31-.22q-.13.16-.17.37-.12.55-.61.84l-1.61.94q-.76.44-.29 1.19.24.39.38.8.53 1.55-.87.71-.55-.34-1.16-.44-.52-.09-.34-.58.88-2.5.59-5.45-.05-.47-.44-.74-1.73-1.17-3.15-.53a.42.42 0 0 1-.59-.44q.25-1.7 1.03-3.1a1.45 1.45 0 0 0-.63-2.01l-2.77-1.35a.39.39 0 0 1-.06-.67q1.91-1.38 1.56-3.92-.06-.45-.4-.76-2-1.81-4.04-.85-.75.35-.44-.42 1.13-2.86.89-6.21-.04-.49-.34-.81-.43-.45-.98-.24-.5.19-.68.69l-.32.87q-.23.61-.87.47-.37-.08-.65-.32-.96-.84-1.05.43l-.17 2.37q-.04.62-.6.34-.77-.37-1-1.09-1.08-3.33-2.27-7.21-.25-.8-.84-.2l-.27.27q-.75.75-.84-.31l-.14-1.52q-.05-.47-.44-.75-.87-.63-1.85.25l.57-.97q3.13-.7 3.84 2.09.12.48.48.83 1.16 1.13 2.3 2.22.76.73 1.66.51.91-.23.05-.61-1.91-.85-3.36-2.35-.2-.2-.21-.47-.01-.17.13-.27.25-.18.5.01 2.28 1.72 4.72 1.95.86.09.26.71-.16.17-.23.38-.22.72.52.83.84.13 1.08-.66.16-.56.61-.2.29.23.37.6.07.33.19.64.37.98.56-.05.05-.28.33-.31.42-.03.73.25c4.45 3.92 11.53 7.34 16.51 1.86q3.25-3.57 7.78-5.8c3.46-1.7 7.86.89 10.98 2.31 8.61 3.92 16.37-1.12 19.76-9.17q3.27-7.78 4.03-13.74.27-2.16.8-4.29c.4-1.65.26-3.14.45-4.77q.07-.58.53-.93l.86-.66q.47-.35.11-.81-.99-1.28-.48-3 1.55-5.23 2.05-9.67.07-.65.67-.37.16.07.26.25.46.82.66-.1.48-2.19.04-4.35.45.15.5-.1m-.854 11.06a2.04.54 90.4 0 0 .554-2.036 2.04.54 90.4 0 0-.526-2.044 2.04.54 90.4 0 0-.554 2.036 2.04.54 90.4 0 0 .526 2.044m-1.096 1.08q-.3.3-.3.72a.21.2-13.7 0 0 .31.18q.54-.3.35-.82a.22.22 0 0 0-.36-.08m-.71 1.77q-.48.16-.54.73-.05.41.33.23.48-.23.48-.76a.21.2-8.1 0 0-.27-.2m-1.13 14.07q1.3 5.4-.88 12.52c-2.69 8.82-10.42 14.04-19.37 15.37q-6.66.98-11.04-3.17-1.39-1.32-2.78-2.62-.08-.08-.17 0l-.18.17q-.18.16-.02.34c2.89 3.08 5.22 6.14 9.88 6.5q9.3.73 16.49-3.78 8.11-5.09 9.35-14.07.45-3.18.29-7.35c-.11-3.02-1.27-5.35-1.19-8.42q.01-.19-.17-.24l-.29-.09q-.19-.05-.22.14-.34 2.05.3 4.7m-44.44 28.61q-4.32 2.09-8.7 4.27a1.63 1.59 40 0 1-1.21.09l-4.06-1.33q-.56-.18-.76-.73-.57-1.53-1.83-2.88-.05-.05-.11-.01l-.22.13q-.1.06-.05.16c1.68 3.43 3.72 6.86 8.24 5.4 1.37-.44 2.79-.81 3.98-1.62q2.21-1.52 4.74-2.6c2.48-1.05 4.06-3.11 5.81-5.02q.01-.02 0-.04l-.12-.29q-.11-.26-.32-.06c-1.68 1.66-3.16 3.45-5.39 4.53M254.7 79.63l4.51 2.1c.08 5.58 3.94 9.35 9.29 10.14q1.03.15.16-.42-1.58-1.04-3.36-1.76c-3.01-1.21-4.69-4.63-5.47-7.62l2.97.53q1.39 3.71 3.32 5.02 3.07 2.1 5.8 4.59 1.75 1.6 3.12 2.59c3.09 2.22 5.81 4.67 9.9 4.01q.72 2.44 2.44 4.39-.02.48-.3.53-.13.01-.18.03-3.49 1.32-5.9.06-3.78-1.97-6.91-7.24-.24-.4-.63-.61-.77-.41-.32.34c1.47 2.47 2.26 4.71 4.28 7.43 3 4.02 7.43 4.4 10.92.31l6.46 2.98q.57.81 1.88.7l4.58 2.28q-.5 2.09.18 4.01a1.19 1.18-41.9 0 1-.05.9q-.82 1.72 1.01 2.99l.34 2.66-3.78-2.11q-.77-.42-1.18.35l-3.29 6.23a1.95 1.95 0 0 0 .18 2.12l1.24 1.59a.75.75 0 0 1-.65 1.21q-1.81-.14-3.56.51-.61.22-.19-.27.81-.94.33-2.12-.56-1.41-.33-2.67a.44.43 89.2 0 0-.52-.51q-.27.07-.37-.1-.09-.15-.06-.32.28-2.13-1.5-4.06a1.26 1.26 0 0 0-2.08.34l-.32.71a.79.78 19.3 0 1-.93.44q-.31-.08-.55-.31-.6-.57-1.17.04-.4.42-1 .43-1.03.01-.53.9.72 1.27-.36 2.43-.37.4-.86.17l-1.76-.83q-.83-.4-.25-1.11 1.04-1.29.44-2.64a1.19.83 39.3 0 1-.05-.14q-.14-.63.28-.72.45-.1.5-.56.53-4.71-.56-7.89-.27-.78-1.07-.6-.72.17-.29.76.19.26.22.58a.53.52 9.7 0 1-.74.52l-2.52-1.14q-.42-.19-.48-.65l-.06-.41q-.1-.76-.72-.31-.64.45-1.43.58-.68.1-.42.73l.49 1.19a.73.73 0 0 1-1.03.92q-1.45-.8-3.04-.85-.66-.02-.54-.68.75-4.07 2.35-7.77.26-.6.22-1.19-.01-.28-.22-.46a.47.47 0 0 1 .2-.8q.66-.16 1.02-.7a.78.78 0 0 0-.04-.91l-1.45-1.8q-.37-.46-.19-1.01.22-.63.71-1.09a.78.78 0 0 0-.17-1.26l-2.13-1.14q-.62-.33-.51.37.18 1.11.04 2.11-.34 2.42-1.14.11-.65-1.86-2.32-1.3-.39.13-.69-.15-.79-.73-1.05-1.67-.12-.46-.53-.23-1.22.66-2.57.72-1.23.05-1.54 1.03-.17.54.38.66 1.82.4 1.39 2.21-.13.55-.65.77-.51.21-.91.58a1.25 1.25 0 0 0-.4 1.04q.07.6-.19 1.12-.26.53-.46-.03-.6-1.68-2.31-2.97-.42-.32-.91-.12-1.05.44-1.69-.5-.29-.4.07-.75 1.99-1.95 1.39-5.88a.42.42 0 0 0-.77-.16q-.12.21-.34.32-.82.45-.24-.29.5-.63 1.27-.84.61-.17.8-.78.59-1.89.02-3.5-.1-.27-.23-.53-.25-.45.26-.49l1.54-.14q.7-.06.25-.6-2.6-3.15-1.79-4.67m18.14 15.04q-.86-1.57-2.35-2.45-.81-.47-.28.31.92 1.35 2.39 2.36a.17.17 0 0 0 .24-.22"/><path fill="#efe8f0" d="M259.83 82.07c.78 2.99 2.46 6.41 5.47 7.62q1.78.72 3.36 1.76.87.57-.16.42c-5.35-.79-9.21-4.56-9.29-10.14q.66.2.62.34"/><path fill="#eaffee" d="M284.94 98.81c-4.09.66-6.81-1.79-9.9-4.01q-1.37-.99-3.12-2.59-2.73-2.49-5.8-4.59-1.93-1.31-3.32-5.02 8.55 1.5 17.15 2.94 1.95.33 3.12 1.82.81 1.04.83 3.23.05 4.15 1.04 8.22"/><ellipse fill="#f1cdf1" fill-opacity=".996" rx="2.04" ry=".54" transform="rotate(90.4 39.03 123.17)"/><path fill="#f1cdf1" fill-opacity=".996" d="M161.36 88.12a.22.22 0 0 1 .36.08q.19.52-.35.82a.21.2-13.7 0 1-.31-.18q0-.42.3-.72M160.65 89.89a.21.2-8.1 0 1 .27.2q0 .53-.48.76-.38.18-.33-.23.06-.57.54-.73M272.84 94.67a.17.17 0 0 1-.24.22q-1.47-1.01-2.39-2.36-.53-.78.28-.31 1.49.88 2.35 2.45"/><path fill="#eaffee" d="m287.38 103.2.96.85c-3.49 4.09-7.92 3.71-10.92-.31-2.02-2.72-2.81-4.96-4.28-7.43q-.45-.75.32-.34.39.21.63.61 3.13 5.27 6.91 7.24 2.41 1.26 5.9-.06.05-.02.18-.03.28-.05.3-.53M159.52 103.96q-.64-2.65-.3-4.7.03-.19.22-.14l.29.09q.18.05.17.24c-.08 3.07 1.08 5.4 1.19 8.42q.16 4.17-.29 7.35-1.24 8.98-9.35 14.07-7.19 4.51-16.49 3.78c-4.66-.36-6.99-3.42-9.88-6.5q-.16-.18.02-.34l.18-.17q.09-.08.17 0 1.39 1.3 2.78 2.62 4.38 4.15 11.04 3.17c8.95-1.33 16.68-6.55 19.37-15.37q2.18-7.12.88-12.52"/><path d="M296.68 107.73q-1.31.11-1.88-.7 1.05-.01 1.88.7M302.4 117.91q-1.83-1.27-1.01-2.99a1.19 1.18-41.9 0 0 .05-.9q-.68-1.92-.18-4.01z"/><path fill="#860784" d="M270.39 114.46q-.01-.2.18-.15.28.07.06.26-.07.06-.16.01-.07-.04-.08-.12"/><path fill="#eb00ef" d="M82.7 124.19q.89 4.28-.82 7.95-.25.54-.82.68l-.72.18q-.55.14-.5.7l.36 4.33q-.41-.08-.71-.03-.55.1-.65.65-.14.79.07 1.36.83 2.25 1.15-.14.06-.45.14-1.84 1.05 1.2 2 .5.34-.26.73-.07.43.2.65.63a.71.71 0 0 1-.08.77q-.5.64-.03 1.29.51.7-.35.88-.14.02-.28.06-.91.23-.37 1.01.29.43.45.94.07.21 0 .42-.04.13-.16.19-.29.13-.51-.1-.22-.24-.51-.3a.54.54 0 0 0-.65.48q-.12 1.32-1.33 1.56-2.45-4.73-1.85-10.09 2-.78 1.31-3.14-.2-.69.49-.89.24-.08.5-.04.62.1.64-.53.02-.37-.3-.5-.97-.38-.02-.82l.76-.36q.66-.3.21-.87l-.98-1.25z"/><path fill="#f164f2" d="M123.49 126.75q-.42.13-.48.73-1.1-.56-1.03-1.04.06-.48.73-.43.68.04.78.74"/><path fill="#860784" d="M177.11 126.39a.27.26-77.9 0 1 .4-.26q.28.16.16.45-.07.17-.26.13-.26-.05-.3-.32"/><path fill="#f1cdf1" fill-opacity=".996" d="m80.52 127.8.98 1.25q.45.57-.21.87l-.76.36q-.95.44.02.82.32.13.3.5-.02.63-.64.53-.26-.04-.5.04-.69.2-.49.89.69 2.36-1.31 3.14-.77-4.65 2.61-8.4"/><path fill="#efe8f0" d="M115.08 132.57c2.23-1.08 3.71-2.87 5.39-4.53q.21-.2.32.06l.12.29q.01.02 0 .04c-1.75 1.91-3.33 3.97-5.81 5.02q-2.53 1.08-4.74 2.6c-1.19.81-2.61 1.18-3.98 1.62-4.52 1.46-6.56-1.97-8.24-5.4q-.05-.1.05-.16l.22-.13q.06-.04.11.01 1.26 1.35 1.83 2.88.2.55.76.73l4.06 1.33a1.63 1.59 40 0 0 1.21-.09q4.38-2.18 8.7-4.27"/><path fill="#f1cdf1" fill-opacity=".996" d="M80.2 138.03q-.08 1.39-.14 1.84-.32 2.39-1.15.14-.21-.57-.07-1.36.1-.55.65-.65.3-.05.71.03"/><path fill="#eb00ef" d="M289.34 253.46q-.18.17-.08.45l-1.43.55q-.55.21-.77-.33-.43-1.02-1.27-1.82-.07-.06-.15-.05-.93.14-.12.62.34.2.37.58.06.72-.5.27c-5.17-4.15-11.37-7.49-17.02-1.62-2.32 2.41-6.3 5.74-9.63 6.06-2.74.26-6.38-1.78-8.99-2.94-6.98-3.1-14.07-.43-17.9 6.06q-3.13 5.28-4.69 11.87-1.58 6.7-2.4 14.35-.08.79-.95 1.28-.5.28-.25.8.74 1.57.21 3.35-1.33 4.43-2.01 9.26-.05.36-.4.44-.25.05-.41-.14-.69-.86-.79.23-.2 2.34.05 4.32l-.68-.08q-.51-.55-1.05-.63-.42-.05-.62.32-.12.21-.34.15-.4-.12-.52-.51-.68-2.28-.31-4.17.59-3.11 1.95-6.41.17-.42-.1-.79-.79-1.05-1.79-.26-.29.23-.57-.02-.16-.14-.19-.35-.04-.32.13-.56 1.19-1.63 2.87-3.13.49-.44 1.09-.16.76.36.87-.47.11-.84.95-.99.14-.02.28-.01.76.08.49-.63-.62-1.6-1.72-2.35-.42-.29-.68-.72l-1.06-1.81a.42.41 52.4 0 1 .06-.49l.22-.22q.39-.39-.15-.51-1.89-.41-1.08-2.48.44-1.12.57-2.24.05-.39.41-.54.17-.08.35-.15.21-.09.21-.31 0-.15-.21-.25-.25-.12-.43.09-.11.12-.17.27-.17.46-.59.21l-1.72-1q-.61-.36-.65-1.07l-.1-2.06q-.04-.65-.62-.36l-2.7 1.36a1.23 1.23 0 0 0 .11 2.25l.75.3q.56.21.46.79-.09.5-.39.94-.34.48-.03.98.32.5.39 1.1.11 1-.71.41-.27-.19-.6-.23-.62-.08-.89.48l-.83 1.7q-.31.64-.84.17-1.12-1.01-1.03-2.58.07-1.34-.99-.52-1.1.86-2.25-.05-.54-.43-.65.26l-.24 1.6a.8.8 0 0 1-.93.67q-.92-.15-1.48-1.04-.28-.44.05-.84.78-.92.27-1.96-.2-.41.11-.74 1.8-1.97 1.55-6.01a.21.2 6.3 0 0-.15-.18l-.55-.16a.95.93 4.3 0 1-.68-.78q-.19-1.35-1.46-1.6-.45-.08-.14-.42c.72-.76.46-1.53-.2-2.32q-.89-1.05-1.61-2.19l3.45-5.06q2.35-.38 4.51-1.92a.86.85 58.6 0 0 .26-1.09l-1.75-3.36a1.45 1.44 41.4 0 1-.08-1.17l.87-2.36a.72.71 30.7 0 0-.2-.77q-.3-.26-.19-.62.12-.42.56-.37.68.07 1.29-.19t.16-.74q-.21-.22-.33-.52-.22-.56.05-1.1.59-1.18.76-2.49.08-.64-.57-.64-1.85.02-3.42.58l-.13-1.23.49-.58q.35-.41.14-.9l-.95-2.22-.36-1.55q.96-.32 1.86.04.87.36.86-.56 0-.05.01-.09.21-.66.88-.8.4-.08.75-.28a.85.85 0 0 0 .31-1.19l-.61-.98q-.38-.59.33-.6h1.84a.33.33 0 0 1 .25.54q-.94 1.09-.52 2.57.1.38.47.55 2.09.99 2.55 3.54.11.58.63.84l.52.27a.5.5 0 0 1 .15.78q-.31.35-.29.81.03.59.56.86 1.31.67 1.32 2.22.01 1.49 1.04.41l1.02-1.08q.67-.71.79.26l.23 1.8a.72.72 0 0 0 1.24.41q2.2-2.33.85-4.3a.78.77-34.6 0 1 .2-1.07l2.8-1.96q.37-.26.72.04.12.11.3.12.51.02.58-.49l.15-1.14a.64.64 0 0 1 .84-.53l.38.13q.86.29.82-.62l-.09-2.25q-.03-.79-.69-.36-.14.09-.22.23-.24.37-.64.2-.64-.28-.99-.92-.27-.5.18-.85.79-.63 1.26-1.54.26-.5-.07-.96-.46-.65-.66-1.42-.22-.78.58-.95l.39-.08a.67.66-11 0 1 .79.53q.28 1.58 1.81 1.54c.87-.02 1.34-.63 1.45-1.43q.1-.68.7-.34.55.31.74.95a.73.72 62.6 0 1-.24.76q-.72.59-1.16 1.42-.27.52.11.97.84.99 1.34 2.25.22.55.01 1.1-.41 1.13.5 2a.93.92-48.8 0 1 .08 1.26l-.74.9q-.34.42.03.83 1.35 1.48 1.78 3.5a.97.96 88.2 0 0 .8.76l1.15.16q.62.09.25.59-1.04 1.39.29 2.6 1.09.99 1.07-.49-.02-1.74 1.42-2.11.79-.2.26-.83-.33-.39-.46-.87a.79.78-8 0 1 .75-.99q1.71-.01 2.42-1.36.42-.8.97-.09.08.1.12.22a1.13 1.13 0 0 0 1.82.45q2.15-1.91 2.79-4.43.21-.83-.61-.57-.2.06-.34.21-.66.7-.86-.25-.16-.77-.64-1.42-.43-.61.3-.75.45-.1.8-.4.37-.3.41-.78.13-1.23-.63-2.3-.57-.82.42-.67l.38.06q.58.09.72.67.42 1.79 2.42 1.27.53-.14.59-.68l.14-1.33q.2-1.85.98-.16.99 2.13-.6 4.32a.65.65 0 0 0 .05.82q.81.87 1.99 1.35a.7.7 0 0 1 .39.92q-.35.84-1.13 1.38a.96.96 0 0 0-.06 1.53q.89.73 1.03 1.84.07.53-.17 1-.32.62-.27 1.33.04.54.43.92.72.68 1.11 1.61a1.09 1.08 51.9 0 1-.12 1.03q-.35.48-.51 1.05-.24.82.62.86.84.03 1.39.69.62.74.78-.21l.11-.63q.05-.3.36-.3l.31.01a.26.26 0 0 1 .25.29q-.42 3.68 1.68 6.43-.09.93.8 1.11a.47.47 0 0 0 .52-.67q-.25-.53-.86-.63c-.46-2.63.89-3.17 2.35-4.86q.36-.43.02-.87-.79-1.01-.39-2.24.14-.44.54-.65l3.94-2.11q.67-.36.16-.93-.61-.66-.64-1.51-.03-.75.61-.35.93.58 1.24 1.7.19.68.88.78.72.1 1.28.55.85.67.31-.27-.1-.17-.13-.37a.85.85 0 0 1 .28-.8q2.96-2.59 3.54-7.39a.34.34 0 0 0-.52-.32q-1.92 1.26-4.09-.42-.4-.3-.01-.61 1.93-1.55 1.47-4.88-.16-1.18-1.21-1.47-.69-.19-.27-.78.48-.66.6-1.49a.51.51 0 0 1 .94-.19l1.73 2.91q.56.96 1.09-.02.66-1.2 2.03-1.77 1.48-.61.46-1.85-.26-.32-.28-.73-.03-1 .79-.44.58.4 1.23.46.65.07.44.69-.9 2.77-.35 5.67.08.39.41.61 1.61 1.05 2.96.5.46-.19.46.31 0 1.59-.82 3.02a1.57 1.57 0 0 0 .6 2.14l2.52 1.4q.45.25.07.6c-1.3 1.18-2.23 4.06-.37 5.22q1.82 1.13 3.37.51.74-.3.56.48-.08.33-.36.55a.7.7 0 0 0-.25.41q-.5 2.38-.19 5.23.07.57.63.73zm-6.52-4.9q.39 1.41 1.66 2.36.65.49.33-.27-1.02-2.44-3-4.48-1.42-1.45-3.4-1.22-3.41.41-5.93 2.07-1.8 1.19-3.85 2.06-3.19 1.34-5.72 4.6-1.48 1.89.37.35c1.46-1.21 2.5-2.54 4.22-3.36q3.79-1.83 7.72-3.85c2.29-1.18 5.01-.24 6.97.92q.48.28.63.82m-33.1 2.9q4.1 1.13 7.43 5.31.21.27.44.01l.21-.24q.07-.07 0-.15c-2.58-2.92-5.16-5.99-9.39-6.43-11.93-1.24-24.55 5.28-26.2 17.85-.44 3.31-.53 7.9.37 11.3q.55 2.07.48 4.34-.01.24.23.26l.28.03q.14.02.17-.12.44-2.23-.16-4.04c-1.7-5.15.14-12.96 2.45-17.11q3.52-6.33 11.02-9.46 7.25-3.03 12.67-1.55m-27.2 40.67q-.49.26-.45.6a.33.32 71 0 0 .49.24q.46-.27.28-.72a.22.22 0 0 0-.32-.12m-1.63 3.63q-1.38 1.51-.72 3.55.42 1.27.63-.05.27-1.74.3-3.45.01-.57.49-.88.25-.16.28-.46.11-.96-.47-.19-.28.38-.27.85.01.36-.24.63"/><path d="M204.89 240.7q-.49-1.77-.32-3.7l.95 2.22q.21.49-.14.9z"/><circle cx="223.48" cy="237.5" r=".29" fill="#860784"/><path d="M203.1 258.69q2.83-4.42 2.59-7.19-.41-4.73-.67-9.57 1.57-.56 3.42-.58.65 0 .57.64-.17 1.31-.76 2.49-.27.54-.05 1.1.12.3.33.52.45.48-.16.74t-1.29.19q-.44-.05-.56.37-.11.36.19.62a.72.71 30.7 0 1 .2.77l-.87 2.36a1.45 1.44 41.4 0 0 .08 1.17l1.75 3.36a.86.85 58.6 0 1-.26 1.09q-2.16 1.54-4.51 1.92"/><path fill="#efe8f0" d="M282.19 247.74c-1.96-1.16-4.68-2.1-6.97-.92q-3.93 2.02-7.72 3.85c-1.72.82-2.76 2.15-4.22 3.36q-1.85 1.54-.37-.35 2.53-3.26 5.72-4.6 2.05-.87 3.85-2.06 2.52-1.66 5.93-2.07 1.98-.23 3.4 1.22 1.98 2.04 3 4.48.32.76-.33.27-1.27-.95-1.66-2.36-.15-.54-.63-.82"/><path fill="#eaffee" d="M289.26 253.91q-.74 5.13.33 9.87l.07.92.19.85.05 1.74q.28 3.07-2.16 4.47c-7.41 4.25-14.27 8.22-21.75 13.35-14.58 9.98-29.43 19.03-46.17 24.95l-.02-1.98q.06.35.21-.33.39.17.58-.24.14-.3-.38-.46-.25-1.98-.05-4.32.1-1.09.79-.23.16.19.41.14.35-.08.4-.44.68-4.83 2.01-9.26.53-1.78-.21-3.35-.25-.52.25-.8.87-.49.95-1.28.82-7.65 2.4-14.35 1.56-6.59 4.69-11.87c3.83-6.49 10.92-9.16 17.9-6.06 2.61 1.16 6.25 3.2 8.99 2.94 3.33-.32 7.31-3.65 9.63-6.06 5.65-5.87 11.85-2.53 17.02 1.62q.56.45.5-.27-.03-.38-.37-.58-.81-.48.12-.62.08-.01.15.05.84.8 1.27 1.82.22.54.77.33z"/><path fill="#eaffee" d="M249.72 251.46q-5.42-1.48-12.67 1.55-7.5 3.13-11.02 9.46c-2.31 4.15-4.15 11.96-2.45 17.11q.6 1.81.16 4.04-.03.14-.17.12l-.28-.03q-.24-.02-.23-.26.07-2.27-.48-4.34c-.9-3.4-.81-7.99-.37-11.3 1.65-12.57 14.27-19.09 26.2-17.85 4.23.44 6.81 3.51 9.39 6.43q.07.08 0 .15l-.21.24q-.23.26-.44-.01-3.33-4.18-7.43-5.31"/><path fill="#f164f2" d="m259.66 256.04.46-.19q.61.1.86.63a.47.47 0 0 1-.52.67q-.89-.18-.8-1.11"/><path d="M199.65 263.75q.72 1.14 1.61 2.19c.66.79.92 1.56.2 2.32q-.31.34.14.42 1.27.25 1.46 1.6a.95.93 4.3 0 0 .68.78l.55.16a.21.2 6.3 0 1 .15.18q.25 4.04-1.55 6.01-.31.33-.11.74.51 1.04-.27 1.96-.33.4-.05.84.56.89 1.48 1.04a.8.8 0 0 0 .93-.67l.24-1.6q.11-.69.65-.26 1.15.91 2.25.05 1.06-.82.99.52-.09 1.57 1.03 2.58.53.47.84-.17l.83-1.7q.27-.56.89-.48.33.04.6.23.82.59.71-.41-.07-.6-.39-1.1-.31-.5.03-.98.3-.44.39-.94.1-.58-.46-.79l-.75-.3a1.23 1.23 0 0 1-.11-2.25l2.7-1.36q.58-.29.62.36l.1 2.06q.04.71.65 1.07l1.72 1q.42.25.59-.21.06-.15.17-.27.18-.21.43-.09.21.1.21.25 0 .22-.21.31-.18.07-.35.15-.36.15-.41.54-.13 1.12-.57 2.24-.81 2.07 1.08 2.48.54.12.15.51l-.22.22a.42.41 52.4 0 0-.06.49l1.06 1.81q.26.43.68.72 1.1.75 1.72 2.35.27.71-.49.63-.14-.01-.28.01-.84.15-.95.99-.11.83-.87.47-.6-.28-1.09.16-1.68 1.5-2.87 3.13-.17.24-.13.56.03.21.19.35.28.25.57.02 1-.79 1.79.26.27.37.1.79-1.36 3.3-1.95 6.41-.37 1.89.31 4.17.12.39.52.51.22.06.34-.15.2-.37.62-.32.54.08 1.05.63l.48.78q-.15.68-.21.33-.82-.02-.41 2.17l-10.62 3.27q.47-1.43.16-2.74-.15-.62-.72-.35l-.54.25q-.56.26-1.13 0l-3.45-1.6a.6.59-69.1 0 0-.82.37l-1.07 3.53a1.09 1.09 0 0 0 1.23 1.39q1.25-.21 2.52.35l-10.95.09q-.49 0-.77-.4-1.81-2.55-2.84-5.12-.9-2.24.1-5.44 5.84-18.63 7.79-37.78.08-.79 1.37-2.32m6.52 45.82a.25.25 0 0 0 .29.34q.2-.05.22-.27.01-.3-.29-.25-.16.03-.22.18M289.66 264.7l-.07-.92q.12.44.07.92M289.9 267.29l-.05-1.74z"/><path fill="#f1cdf1" fill-opacity=".996" d="M222.52 292.13a.22.22 0 0 1 .32.12q.18.45-.28.72a.33.32 71 0 1-.49-.24q-.04-.34.45-.6M221.13 295.13q-.01-.47.27-.85.58-.77.47.19-.03.3-.28.46-.48.31-.49.88-.03 1.71-.3 3.45-.21 1.32-.63.05-.66-2.04.72-3.55.25-.27.24-.63"/><path fill="#860784" d="M220.21 307.05q.52.16.38.46-.19.41-.58.24l-.48-.78zM219.8 308.08l.02 1.98q.02-.21-.43.19-.41-2.19.41-2.17"/><path fill="#eb00ef" d="M208.77 313.52q-1.58 1.01-3.82 1.2-1.27-.56-2.52-.35a1.09 1.09 0 0 1-1.23-1.39l1.07-3.53a.6.59-69.1 0 1 .82-.37l3.45 1.6q.57.26 1.13 0l.54-.25q.57-.27.72.35.31 1.31-.16 2.74"/><path fill="#860784" d="M206.17 309.57q.06-.15.22-.18.3-.05.29.25-.02.22-.22.27a.25.25 0 0 1-.29-.34"/></svg>