<svg xmlns="http://www.w3.org/2000/svg" viewBox="0 0 382 382"><g fill="none" stroke-width="2"><path stroke="#7c6d7f" d="M249.75 76.27q.16.34-.18.88" vector-effect="non-scaling-stroke"/><path stroke="#8c7d83" d="M240.09 73.93q-.57-1.33.37-2.12.71-.6-.21-.78l-.68-.13q-.53-.1-.81.37-.8 1.35-1.12 2.96" vector-effect="non-scaling-stroke"/><path stroke="#6758e2" d="M213.01 70.14q.52-.28.26-.83" vector-effect="non-scaling-stroke"/><path stroke="#7366a1" d="M213.27 69.31q.99-.26 1.46-1.22" vector-effect="non-scaling-stroke"/><path stroke="#6758e2" d="M214.73 68.09q.09.19.21.31.18.19.41.06l.27-.16" vector-effect="non-scaling-stroke"/><path stroke="#776ba5" d="M214.09 61.11q-.3.88-.13 1.41.21.68.77.25.16-.12.27-.27.53-.73 1.01.03.16.28.61.21.39-.05.41-.45.01-.24.25-.29.6-.13.6.49v1.05q0 .66.65.62.56-.03.99-.39.51-.44.04-.93l-1.53-1.61M214.73 68.09q-1.38-.28-2.07.82-.25.4.22.44.19.02.39-.04" vector-effect="non-scaling-stroke"/><path stroke="#807283" d="M207.81 71.08q.81-1.22 1.05-2.46.03-.14-.03-.26-.05-.14-.18-.2-.34-.16-.44.19-.08.29-.35.34-.62.13-.77-.49-.19-.78-.75-1.36-.37-.38.15-.51.57-.15 1.03.23.1.09.2 0 .1-.1.15-.23.13-.39-.14-.7-.75-.88-.17-1.87a.45.45 0 0 0-.24-.66q-.3-.1-.49-.33a.65.64 53 0 1 .13-.95q.37-.25.6-.57" vector-effect="non-scaling-stroke"/><path stroke="#8e805c" d="M250.4 76.31q.71.66 1.28-.13.31-.45.02-.93" vector-effect="non-scaling-stroke"/><path stroke="#a59724" d="M200.62 70.81q-2.42.33 1.06-1.31.42-.2.58-.64l.94-2.62q.21-.57-.31-.89l-.62-.39q-.56-.35-.14-.86.27-.33.21-.69-.1-.5-.6-.52-.75-.04-.53-.59" vector-effect="non-scaling-stroke"/><path stroke="#7c6d7f" d="m303.22 88.56-.68 2.67q-.11.43.23.72l.21.19" vector-effect="non-scaling-stroke"/><path stroke="#6758e2" d="m302.98 92.14.29.86" vector-effect="non-scaling-stroke"/><path stroke="#8c7d83" d="M303.27 93q-.47.59-.02.97" vector-effect="non-scaling-stroke"/><path stroke="#7c6d7f" d="M303.25 93.97q-.15.54-.04 1.21" vector-effect="non-scaling-stroke"/><path stroke="#8c7d83" d="M303.21 95.18q-.61.62-1.48 1.05-.49.23-.52.5-.04.41.74.67" vector-effect="non-scaling-stroke"/><path stroke="#6758e2" d="M301.95 97.4q-1.79 2.89-3.87 1.98-1.43-.63-.68.75.27.49.8.42.63-.07.6.56l-.07 1.11" vector-effect="non-scaling-stroke"/><path stroke="#7366a1" d="M306.74 112.11q-.28.49.19.82.36.26.57-.14.06-.12.07-.31" vector-effect="non-scaling-stroke"/><path stroke="#8c7d83" d="M309.28 113.33q-.16.77-.58 1.21-.18.19-.45.14-.19-.04-.21-.27a.39.37 11.7 0 0-.23-.33q-.44-.19-.7.07-.4.39-.05.82.52.66.05 1.29a.3.29-73.3 0 0 .25.47q.46-.01.73-.34.24-.29.51-.53.94-.81 1.77-1.9" vector-effect="non-scaling-stroke"/><path stroke="#7366a1" d="M316.72 118.65q-1.14.91-.74 1.95.2.52.76.52l.73-.01q.68 0 .48.64-.4 1.29-1.74 2.38-.18.15-.06.35l.17.32q.13.23.32.05l3.39-3.07" vector-effect="non-scaling-stroke"/><path stroke="#6758e2" d="M320.76 122.6q-.79 0-1.45.26-.42.17-.44.44-.02.31.37.68" vector-effect="non-scaling-stroke"/><path stroke="#7c6d7f" d="M319.24 123.98q-.59.28-.8.78-.23.54.06 1.07.6 1.15.65 2.36.02.56.56.73 1.52.48 3.55-.1" vector-effect="non-scaling-stroke"/><path stroke="#6758e2" d="M323.26 128.82q-.06 1.76 1.56-1.25" vector-effect="non-scaling-stroke"/><path stroke="#7c6d7f" d="M317.24 130.97q-.09-.46-.37-.86-.29-.42 0-.84.59-.84-.32-1.44-1.76-1.16-2.4.84l-.48 1.52q-.18.55-.61.16-.55-.51-1.38-.09" vector-effect="non-scaling-stroke"/><path stroke="#7366a1" d="M311.68 130.26q-1.43.56-1.5 1.74" vector-effect="non-scaling-stroke"/><path stroke="#6758e2" d="M303.94 144.94q.01 1.2-.93 2.04a.65.65 0 0 0 .28 1.11q1.37.33 2.27-.88.3-.41.79-.26.9.25.81 1.14a.69.68-75.2 0 0 .41.71l.57.23q.54.23.74-.31l.18-.47q.14-.36-.24-.39-.94-.07-.75-1.46M312.04 148.63l-.93.82" vector-effect="non-scaling-stroke"/><path stroke="#a19396" d="M311.11 149.45q.28-.64-.51-.75a.6.57-62.5 0 0-.52.18q-.46.47-.35 1.21" vector-effect="non-scaling-stroke"/><path stroke="#6758e2" d="M309.73 150.09q-1.43.35-2.89-.05-.58-.16-.75.41-.18.62-.7.83-2.35.96-.63-.92.22-.24 1.11-.87a.53.52-28.6 0 0 .19-.61l-.17-.48q-.19-.52-.56-.11-.64.71-1.55 1.02-.5.17-.67.67-.24.66-.86 1.05" vector-effect="non-scaling-stroke"/><path stroke="#7c6d7f" d="m251.02 79.34 2.12-1.39q.4-.26.42-.75.05-1.62-.48-2.88" vector-effect="non-scaling-stroke"/><path stroke="#9e8f60" d="M193.3 72.83q.93-1.86 1.99-2.58 1.38-.94-.22-1.32-.26-.07-.48-.15-.48-.18-.56-.69-.23-1.56-1.75-1.63" vector-effect="non-scaling-stroke"/><path stroke="#a69799" d="M309.73 150.09q.91.33 1.38-.64" vector-effect="non-scaling-stroke"/><path stroke="#807283" d="M316.04 151.56q.23 1.01-.43 1.8-.64.77-.47-.22.22-1.35-1.68-1.09a1.62 1.6-.3 0 0-1.38 1.38q-.45 3.27 1.7 5.79.51.59.14 1.28-1.1 2.02-3.1 2.96-.5.23-.75-.25-.2-.38.35-.78" vector-effect="non-scaling-stroke"/><path stroke="#908187" d="M310.42 162.43q1.21-2.46-.61-4.82-.34-.44-.79-.12-.31.22-.25.63.06.53.46.82.55.4.11.92-.54.62-.52 1.27" vector-effect="non-scaling-stroke"/><path stroke="#807283" d="M308.82 161.13q-.34.33-.41.64" vector-effect="non-scaling-stroke"/><path stroke="#908187" d="M308.41 161.77q-.14-.08-.26-.07-.15.01-.2.15-.16.54-.06 1.12" vector-effect="non-scaling-stroke"/><path stroke="#807283" d="M307.89 162.97q.95 1.36 1.19 2.49" vector-effect="non-scaling-stroke"/><path stroke="#a69799" d="M309.08 165.46q-.8.52-.74 1.28.05.61.65.76" vector-effect="non-scaling-stroke"/><path stroke="#807283" d="M308.99 167.5q-.02.06-.03.12" vector-effect="non-scaling-stroke"/><path stroke="#6758e2" d="M302.52 167.68q.45-1.99-1.15-2.67" vector-effect="non-scaling-stroke"/><path stroke="#908187" d="M301.82 161.27q.87-.24 1.31-1.55.17-.48.65-.62 1.02-.32 1.2-.56 1.82-2.41-.91-1.01-.56.28-1.95.72" vector-effect="non-scaling-stroke"/><path stroke="#807283" d="M323.26 128.82q-2.2-1.99-2.87-4.45-.13-.5-.65-.5-.26 0-.5.11" vector-effect="non-scaling-stroke"/><path stroke="#776ba5" d="M313.82 99.85q.17-.26.08-.59-.15-.55-.68-.35-.72.25-1.26.97" vector-effect="non-scaling-stroke"/><path stroke="#908187" d="M301.95 97.4q.19.03.51-.16" vector-effect="non-scaling-stroke"/><path stroke="#807283" d="M302.46 97.24q.5 1.39-.26 1.98-.11.09-.12.23-.01.18.12.27.17.13.38.06 2.18-.67 3.72-2.19.55-.54-.09-.97-1.44-.96-1.06-2.52a.87.86-63.7 0 0-.29-.86q-.28-.23-.7.01" vector-effect="non-scaling-stroke"/><path stroke="#908187" d="M304.16 93.25q-.09-.55-.89-.25" vector-effect="non-scaling-stroke"/><path stroke="#807283" d="m303.98 88.98.08 2.42q.02.5-.44.7-.28.12-.64.04" vector-effect="non-scaling-stroke"/><path stroke="#a59724" d="M302.46 97.24q.58-.85 1.37-.55 2.13.79.91-1.12-.19-.3-1.53-.39" vector-effect="non-scaling-stroke"/><path stroke="#8c8042" d="M312.78 131.68q-1.06-.77-1.1-1.42" vector-effect="non-scaling-stroke"/><path stroke="#a59724" d="M304.16 93.25q-.25.64-.91.72" vector-effect="non-scaling-stroke"/><path stroke="#7c6d7f" d="m308.12 177.23-.3 2.12q-.06.42.32.62c.43.22.65.52.8.97q.47 1.32 1.23 2.39a.61.61 0 0 0 1.08-.16q.16-.51.15-1.18" vector-effect="non-scaling-stroke"/><path stroke="#7366a1" d="M297.76 201.51q-.38.33 0 .73.25.27.54-.08" vector-effect="non-scaling-stroke"/><path stroke="#6d5ecf" d="M301.71 206.69q-.76.28-.53 1.39.14.73-.6.65-.29-.03-.57.07a1.4 1.39-84.5 0 0-.75.62q-.67 1.18-2.02.54-.15-.07-.17-.24-.02-.15.02-.29a.28.27 1.3 0 1 .23-.21l.67-.11q.35-.06.56-.35 1.31-1.87-.48-3.49a.69.68 50.4 0 0-.79-.08q-.84.49-.6 1.54.15.66-.52.57l-.75-.1" vector-effect="non-scaling-stroke"/><path stroke="#7366a1" d="m298.06 192.98 1.53-1.78q.33-.39.28-.89-.08-.76.45-1.29.28-.27.21-.65-.07-.31-.39-.34a.54.53-2.7 0 1-.49-.44q-.18-.91.33-1.71a1.06 1.04 54.9 0 0 .14-.85l-.21-.78a.4.39-9.8 0 1 .35-.49q.4-.03.45.26a.39.39 0 0 0 .58.27q.15-.09.25-.21.21-.25.12-.57-.61-2.2-2.39-1.48" vector-effect="non-scaling-stroke"/><path stroke="#807283" d="M318.71 154.09q-.56.7-1.16.81-.54.09-.65-.44-.06-.3-.36-.37-.38-.09-.47.3-.34 1.51-1.51 2.5-.53.45-.14 1.02l.54.78q.48.7.06 1.44-.92 1.58-.45 3.17a.62.61-9.9 0 1-.56.79q-.72.03-1.03-.64a.49.49 0 0 0-.93.1q-.33 1.51.79 2.67a.54.54 0 0 1-.44.91q-.42-.04-.43-.51 0-.84-.82-.63-.22.05-.39.19-.37.31-.25.77l.2.83" vector-effect="non-scaling-stroke"/><path stroke="#bbad37" d="M308.99 167.5q1-.22 1.13-1.22a.8.79 17.9 0 0-.41-.8q-.31-.17-.63-.02" vector-effect="non-scaling-stroke"/><path stroke="#a59724" d="M307.89 162.97q.31.05.53 0 .62-.12.36-.7-.12-.27-.37-.5M308.82 161.13l1.6 1.3" vector-effect="non-scaling-stroke"/><path stroke="#978874" d="M304 212.95q-1.14.54-1.52 1.78-.33 1.09.31 1.79.71.79 2.1.51" vector-effect="non-scaling-stroke"/><path stroke="#7263d3" d="M295.58 240.32q-.3.44-.85.32-.46-.09-.71-.5t-.74-.48q-.53-.08-.84-.52-.43-.6-.45-1.38a.66.65-88.8 0 1 .69-.67q.22.01.44-.05.88-.26.1-.76l-2.9-1.83" vector-effect="non-scaling-stroke"/><path stroke="#776ba5" d="M319.29 154.74q-.25.87-.1 1.62.11.6.65.32.33-.17.61-.66" vector-effect="non-scaling-stroke"/><path stroke="#807283" d="M322.19 158.46q1.1 2.28-.67 3.74-.55.45-.36 1.2.2.82.75.18.6-.69 1.47-.67.86.02.29.67l-1.62 1.86q-.39.44-.97.5-.88.09-.99 1.04-.05.48.41.35 1.1-.31 1.79-1.05.27-.29.5.03l.16.24q.12.18-.03.33l-1.4 1.33" vector-effect="non-scaling-stroke"/><path stroke="#776ba5" d="m321.52 168.21-.85.37q-.57.25-.9-.28-1.59-2.54.08-4.51.44-.52-.24-.44-.82.1-1.59-.11a.3.3 0 0 0-.34.45q.39.62.19 1.29-.19.64-.63.14-.44-.51-.35-1.33" vector-effect="non-scaling-stroke"/><path stroke="#908187" d="M316.89 163.79q.14-.69.78-1.19.21-.17-.04-.26-.12-.05-.25.03-2.97 1.88-1.65 3.11" vector-effect="non-scaling-stroke"/><path stroke="#776ba5" d="m315.73 165.48.09 2.85" vector-effect="non-scaling-stroke"/><path stroke="#807283" d="M324.77 171.03q.45-.87.09-1.38-.95-1.36-.9-2.41" vector-effect="non-scaling-stroke"/><path stroke="#8e805c" d="M323.96 167.24q.97-.15 1.22-1.66.16-.97-.69-.47-1.11.64-.53 2.13" vector-effect="non-scaling-stroke"/><path stroke="#807283" d="m323.96 167.24-.67.25q-.45.16-.4.64.11 1.14-.37 2.15" vector-effect="non-scaling-stroke"/><path stroke="#8c8042" d="M321.64 169.97q.33-1.46-.12-1.76" vector-effect="non-scaling-stroke"/><path stroke="#9c9046" d="M316.89 163.79q-.46.05-.68.25-.38.33 0 .66l2.1 1.83q.43.38.01.77l-.26.24q-.26.25-.5-.02l-1.83-2.04" vector-effect="non-scaling-stroke"/><path stroke="#807283" d="M209.76 64.58q.39 1.27.98.08.25-.52.39-1.1a.58.57-87.1 0 0-.63-.7l-.96.1a.48.48 0 0 0-.27.83q.35.33.49.79" vector-effect="non-scaling-stroke"/><path stroke="#a69799" d="M216.313 64.256a.9.53-16.4 0 0-1.013-.254.9.53-16.4 0 0-.713.762.9.53-16.4 0 0 1.013.254.9.53-16.4 0 0 .713-.762" vector-effect="non-scaling-stroke"/><path stroke="#807283" d="M210.37 65.49a.19.19 0 0 0-.35 0q-.63 1.52.1 3.04.26.55.77.23.37-.23.59-.59.44-.72-.17-1.29-.62-.59-.94-1.39" vector-effect="non-scaling-stroke"/><path stroke="#a19396" d="M256.311 80.226a1.1.87 132.9 0 0 1.386-.214 1.1.87 132.9 0 0 .112-1.398 1.1.87 132.9 0 0-1.386.214 1.1.87 132.9 0 0-.112 1.398M255.253 81.23a1.5.64 54.4 0 0-.353-1.593 1.5.64 54.4 0 0-1.393-.847 1.5.64 54.4 0 0 .353 1.593 1.5.64 54.4 0 0 1.393.847M311.266 117.978a1.01.63 129.6 0 0 1.13-.376 1.01.63 129.6 0 0 .158-1.18 1.01.63 129.6 0 0-1.13.376 1.01.63 129.6 0 0-.158 1.18M302.06 126.88q1.18 1.69 2.16 1.01" vector-effect="non-scaling-stroke"/><path stroke="#7c6d7f" d="m304.22 127.89 1.8.33q.52.1.12.45-.62.54-1.85.6" vector-effect="non-scaling-stroke"/><path stroke="#8c7d83" d="M304.29 129.27q-.2-.51-1.13-.25a.37.36-15.7 0 0-.26.45q1.1 3.86 2.52 1.62" vector-effect="non-scaling-stroke"/><path stroke="#7c6d7f" d="M305.42 131.09q1.53.65 1.65-1.78a.73.72 66.5 0 1 .17-.44q.41-.48.79-.14.44.38.68-.15.26-.56.08-1.12a.95.94-6.1 0 0-.81-.65q-.23-.02-.43-.14a1.35 1.34-73.3 0 1-.64-1.2c.05-1.46.05-3.36-1.26-4.3q-.43-.32-.63.18-.38.91.32 1.47.61.5-.09.86-2.24 1.16-3.19 3.2" vector-effect="non-scaling-stroke"/><path stroke="#a59724" d="M305.42 131.09q.4-.3.4-.58 0-.36-.36-.37-.42-.02-.69.28-.61.66-.54-.24.04-.47.06-.91" vector-effect="non-scaling-stroke"/><path stroke="#bbad37" d="M304.22 127.89q-1.91-2.5-2.16-1.01" vector-effect="non-scaling-stroke"/><path stroke="#7366a1" d="M310.528 125.897a1.44.66 86.5 0 0 .57-1.477 1.44.66 86.5 0 0-.746-1.397 1.44.66 86.5 0 0-.57 1.477 1.44.66 86.5 0 0 .746 1.397" vector-effect="non-scaling-stroke"/><path stroke="#807283" d="M311.162 96.057a.73.49-34.5 0 0-.88.01.73.49-34.5 0 0-.324.817.73.49-34.5 0 0 .88-.01.73.49-34.5 0 0 .324-.817" vector-effect="non-scaling-stroke"/><path stroke="#a59724" d="M305 125.89q.31-.08.53-.29a.31.31 0 0 0-.27-.53l-.74.17a.32.32 0 0 0-.07.6q.26.13.55.05M307.13 127.55a.49.49 0 0 0-.49-.49.49.49 0 0 0-.49.49.49.49 0 0 0 .49.49.49.49 0 0 0 .49-.49" vector-effect="non-scaling-stroke"/><path stroke="#776ba5" d="M308.69 153.39q.07.12.12.25.04.09.12.15.3.19.57-.01a.39.38 60.1 0 0 .12-.46l-.82-1.87q-.37-.83-.73 0-.25.57-.4 1.28-.13.55.42.4.13-.04.27 0 .22.06.33.26" vector-effect="non-scaling-stroke"/><path stroke="#908187" d="M305.97 153.23a1.32.65 88.3 0 0 .54.59 1.32.64 87.8 0 0 .55-.61" vector-effect="non-scaling-stroke"/><path stroke="#776ba5" d="M307.06 153.21a1.32.65 87.4 0 0-.57-2.03 1.32.65 87.6 0 0-.52 2.05" vector-effect="non-scaling-stroke"/><path stroke="#9c9046" d="M307.06 153.21q-.1-.4-.56-.38-.43.02-.53.4" vector-effect="non-scaling-stroke"/><path stroke="#8e805c" d="m313.76 156.04 1.18-1.83q.04-.07-.02-.12l-.24-.21q-.23-.18-.39.05l-1.16 1.67q-.17.24.08.39l.21.13q.21.13.34-.08" vector-effect="non-scaling-stroke"/><path stroke="#807283" d="M318.08 158.58q.11-.1.19-.22.41-.56-.26-.41-1.49.34-1.06 1.71.34 1.05.79 2.24.21.54.68.21.7-.5 1.19-1.25.73-1.1-.58-.95-.95.12-1.1-.87-.04-.27.15-.46" vector-effect="non-scaling-stroke"/><path stroke="#796abf" d="M319.5 158.22q.24.24-.01.49-.54.53.22.48.58-.04 1.04-.43.68-.56-.14-.89-.41-.17-.89-.17-.73 0-.22.52" vector-effect="non-scaling-stroke"/><path stroke="#7566bb" d="M307.15 178.39a.53.53 0 0 0-.53-.53.53.53 0 0 0-.53.53.53.53 0 0 0 .53.53.53.53 0 0 0 .53-.53" vector-effect="non-scaling-stroke"/><path stroke="#ac9e87" d="M299.19 211.26a.33.33 0 0 0 .37.48q.25-.06.32-.3a.29.28 21.9 0 0-.15-.34q-.36-.17-.54.16" vector-effect="non-scaling-stroke"/><path stroke="#877870" d="M300.26 212.91q-.31.21-.31.58.01.67.58.33 1.32-.79 1.56-2.09.05-.27-.15-.47-.11-.11-.26-.13-.5-.1-.64.4l-.13.48q-.15.58-.65.9" vector-effect="non-scaling-stroke"/><path stroke="#978874" d="M296 217.28q1.12 2.65 1.76 1.09" vector-effect="non-scaling-stroke"/><path stroke="#8071ac" d="M297.76 218.37q.69-1.33.02-2.56-.26-.48-.59-.05l-1.19 1.52" vector-effect="non-scaling-stroke"/><path stroke="#9e8f60" d="M297.76 218.37q-1.04-1.86-1.76-1.09" vector-effect="non-scaling-stroke"/><path stroke="#ac9e87" d="M298.99 218.26q-.01.49.44.66a.39.39 0 0 0 .52-.4q-.03-.41-.4-.6a.38.38 0 0 0-.56.34" vector-effect="non-scaling-stroke"/></g><path fill="#6253de" d="M249.75 76.27q.16.34-.18.88c-2.92-1.46-6.13-3.84-9.48-3.22q-.57-1.33.37-2.12.71-.6-.21-.78l-.68-.13q-.53-.1-.81.37-.8 1.35-1.12 2.96-3.18.93-6.6.72-1.83-.11-3.28-1.1c-2.21-1.5-4.51-3.02-7.31-3-2.65.02-5.06.4-7.44-.71q.52-.28.26-.83.99-.26 1.46-1.22.09.19.21.31.18.19.41.06l.27-.16q2.16.78 4.4.74.56-.01.96-.41 7.36-7.4 18.58-8.42c7.37-.67 15.18-.56 21.77 2.31q4.2 1.83-.32 2.58-8.06 1.34-15.99 6.93-.72.51.01 1.01z"/><path fill="#6b5ce5" d="M214.09 61.11q-.3.88-.13 1.41.21.68.77.25.16-.12.27-.27.53-.73 1.01.03.16.28.61.21.39-.05.41-.45.01-.24.25-.29.6-.13.6.49v1.05q0 .66.65.62.56-.03.99-.39.51-.44.04-.93l-1.53-1.61 7.5.56a.4.4 0 0 1 .33.56q-.17.37-.71.56-5.07 1.81-9.53 5.39l-.27.16q-.23.13-.41-.06-.12-.12-.21-.31-1.38-.28-2.07.82-.25.4.22.44.19.02.39-.04.26.55-.26.83l-5.2.94q.81-1.22 1.05-2.46.03-.14-.03-.26-.05-.14-.18-.2-.34-.16-.44.19-.08.29-.35.34-.62.13-.77-.49-.19-.78-.75-1.36-.37-.38.15-.51.57-.15 1.03.23.1.09.2 0 .1-.1.15-.23.13-.39-.14-.7-.75-.88-.17-1.87a.45.45 0 0 0-.24-.66q-.3-.1-.49-.33a.65.64 53 0 1 .13-.95q.37-.25.6-.57zm-4.33 3.47q.39 1.27.98.08.25-.52.39-1.1a.58.57-87.1 0 0-.63-.7l-.96.1a.48.48 0 0 0-.27.83q.35.33.49.79m6.553-.324a.9.53-16.4 0 0-1.013-.254.9.53-16.4 0 0-.713.762.9.53-16.4 0 0 1.013.254.9.53-16.4 0 0 .713-.762m-5.943 1.234a.19.19 0 0 0-.35 0q-.63 1.52.1 3.04.26.55.77.23.37-.23.59-.59.44-.72-.17-1.29-.62-.59-.94-1.39"/><path fill="#837964" d="m218.03 61.23 1.53 1.61q.47.49-.04.93-.43.36-.99.39-.65.04-.65-.62v-1.05q0-.62-.6-.49-.24.05-.25.29-.02.4-.41.45-.45.07-.61-.21-.48-.76-1.01-.03-.11.15-.27.27-.56.43-.77-.25-.17-.53.13-1.41z"/><path fill="#958720" d="M207.56 61.25q-.23.32-.6.57a.65.64 53 0 0-.13.95q.19.23.49.33a.45.45 0 0 1 .24.66q-.58.99.17 1.87.27.31.14.7-.05.13-.15.23-.1.09-.2 0-.46-.38-1.03-.23-.52.13-.15.51.56.58.75 1.36.15.62.77.49.27-.05.35-.34.1-.35.44-.19.13.06.18.2.06.12.03.26-.24 1.24-1.05 2.46l-7.19-.27q-2.42.33 1.06-1.31.42-.2.58-.64l.94-2.62q.21-.57-.31-.89l-.62-.39q-.56-.35-.14-.86.27-.33.21-.69-.1-.5-.6-.52-.75-.04-.53-.59z"/><path fill="#b5a628" d="M201.21 62.3q-.22.55.53.59.5.02.6.52.06.36-.21.69-.42.51.14.86l.62.39q.52.32.31.89l-.94 2.62q-.16.44-.58.64-3.48 1.64-1.06 1.31-3.57.24-7.32 2.02.93-1.86 1.99-2.58 1.38-.94-.22-1.32-.26-.07-.48-.15-.48-.18-.56-.69-.23-1.56-1.75-1.63 3.84-3.19 8.93-4.16"/><path fill="#958720" d="M209.76 64.58q-.14-.46-.49-.79a.48.48 0 0 1 .27-.83l.96-.1a.58.57-87.1 0 1 .63.7q-.14.58-.39 1.1-.59 1.19-.98-.08"/><ellipse fill="#e0d24d" rx=".9" ry=".53" transform="rotate(-16.4 331.56 -715.305)"/><path fill="#958720" d="M210.37 65.49q.32.8.94 1.39.61.57.17 1.29-.22.36-.59.59-.51.32-.77-.23-.73-1.52-.1-3.04a.19.19 0 0 1 .35 0"/><path fill="#877898" d="M192.28 66.46q1.52.07 1.75 1.63.08.51.56.69.22.08.48.15 1.6.38.22 1.32-1.06.72-1.99 2.58l-6.62 1.86a.88.87 72.7 0 1-1.06-.56q-.19-.57.32-1.18 2.9-3.52 6.34-6.49"/><path fill="#6253de" d="m303.22 88.56-.68 2.67q-.11.43.23.72l.21.19.29.86q-.47.59-.02.97-.15.54-.04 1.21-.61.62-1.48 1.05-.49.23-.52.5-.04.41.74.67-1.79 2.89-3.87 1.98-1.43-.63-.68.75.27.49.8.42.63-.07.6.56l-.07 1.11-7.52 4.03q-.48.26-.1.65.8.82 1.84.94 7.6.88 13.79 4.27-.28.49.19.82.36.26.57-.14.06-.12.07-.31l1.71.85q-.16.77-.58 1.21-.18.19-.45.14-.19-.04-.21-.27a.39.37 11.7 0 0-.23-.33q-.44-.19-.7.07-.4.39-.05.82.52.66.05 1.29a.3.29-73.3 0 0 .25.47q.46-.01.73-.34.24-.29.51-.53.94-.81 1.77-1.9l6.35 4.69q-1.14.91-.74 1.95.2.52.76.52l.73-.01q.68 0 .48.64-.4 1.29-1.74 2.38-.18.15-.06.35l.17.32q.13.23.32.05l3.39-3.07.73.82q-.79 0-1.45.26-.42.17-.44.44-.02.31.37.68-.59.28-.8.78-.23.54.06 1.07.6 1.15.65 2.36.02.56.56.73 1.52.48 3.55-.1-.06 1.76 1.56-1.25l1.96 3.43q.74 1.29-.65.76-3.92-1.49-8.89-.79-.09-.46-.37-.86-.29-.42 0-.84.59-.84-.32-1.44-1.76-1.16-2.4.84l-.48 1.52q-.18.55-.61.16-.55-.51-1.38-.09-1.43.56-1.5 1.74l-8.27 3.06q-1.64.61-.86 2.18c1.37 2.76 2.97 3.94 2.89 7.7q.01 1.2-.93 2.04a.65.65 0 0 0 .28 1.11q1.37.33 2.27-.88.3-.41.79-.26.9.25.81 1.14a.69.68-75.2 0 0 .41.71l.57.23q.54.23.74-.31l.18-.47q.14-.36-.24-.39-.94-.07-.75-1.46l3.97 2.23-.93.82q.28-.64-.51-.75a.6.57-62.5 0 0-.52.18q-.46.47-.35 1.21-1.43.35-2.89-.05-.58-.16-.75.41-.18.62-.7.83-2.35.96-.63-.92.22-.24 1.11-.87a.53.52-28.6 0 0 .19-.61l-.17-.48q-.19-.52-.56-.11-.64.71-1.55 1.02-.5.17-.67.67-.24.66-.86 1.05-.16-3.1.23-6.1.31-2.41-.25-3.76-.78-1.87-2.49-3.1a1.31 1.31 0 0 1-.54-1.25q.45-3.3 1.27-6.83c1.27-5.41.87-11.52.64-17.08q-.08-2.07-2.07-2.64-2.06-.6-4.05-1.03c-3.33-.72-6.12-1.99-8.66-4.05q-1.75-1.42-2.21-4.27a1.32 1.32 0 0 0-.56-.88l-2.23-1.55q-.49-.34-.13-.82 3.26-4.29.63-9.03a2.23 2.21 85.1 0 0-1.15-.98q-4.29-1.55-8.2-2.41c-4.73-1.04-10.21.05-15.19-.35q-.48-.04-.83-.37l-5.44-5.19 2.12-1.39q.4-.26.42-.75.05-1.62-.48-2.88 10.59-6.12 21.31-6.62 8.61-.4 16.36 2.08 3.4 1.09-.03 2.07-10.18 2.91-19.43 11.29a.29.29 0 0 0 .11.49q3.22.96 6.38 2.16 1.75.67 4.1.44 11.05-1.06 21.34 2.33m-46.909-8.334a1.1.87 132.9 0 0 1.386-.214 1.1.87 132.9 0 0 .112-1.398 1.1.87 132.9 0 0-1.386.214 1.1.87 132.9 0 0-.112 1.398m-1.058 1.004a1.5.64 54.4 0 0-.353-1.593 1.5.64 54.4 0 0-1.393-.847 1.5.64 54.4 0 0 .353 1.593 1.5.64 54.4 0 0 1.393.847m56.013 36.748a1.01.63 129.6 0 0 1.13-.376 1.01.63 129.6 0 0 .158-1.18 1.01.63 129.6 0 0-1.13.376 1.01.63 129.6 0 0-.158 1.18m-9.206 8.902q1.18 1.69 2.16 1.01l1.8.33q.52.1.12.45-.62.54-1.85.6-.2-.51-1.13-.25a.37.36-15.7 0 0-.26.45q1.1 3.86 2.52 1.62 1.53.65 1.65-1.78a.73.72 66.5 0 1 .17-.44q.41-.48.79-.14.44.38.68-.15.26-.56.08-1.12a.95.94-6.1 0 0-.81-.65q-.23-.02-.43-.14a1.35 1.34-73.3 0 1-.64-1.2c.05-1.46.05-3.36-1.26-4.3q-.43-.32-.63.18-.38.91.32 1.47.61.5-.09.86-2.24 1.16-3.19 3.2m8.468-.983a1.44.66 86.5 0 0 .57-1.477 1.44.66 86.5 0 0-.746-1.397 1.44.66 86.5 0 0-.57 1.477 1.44.66 86.5 0 0 .746 1.397"/><path fill="#837964" d="M214.73 68.09q-.47.96-1.46 1.22-.2.06-.39.04-.47-.04-.22-.44.69-1.1 2.07-.82"/><path fill="#b5a628" d="m240.09 73.93-2.45.3q.32-1.61 1.12-2.96.28-.47.81-.37l.68.13q.92.18.21.78-.94.79-.37 2.12"/><path fill="#958720" d="M253.08 74.32q.53 1.26.48 2.88-.02.49-.42.75l-2.12 1.39-1.45-2.19q.34-.54.18-.88.33-.09.65.04.71.66 1.28-.13.31-.45.02-.93.35-.43 1.38-.93"/><path fill="#877898" d="M251.7 75.25q.29.48-.02.93-.57.79-1.28.13.57-.72 1.3-1.06"/><ellipse fill="#e0d24d" rx="1.1" ry=".87" transform="rotate(132.9 111.222 95.73)"/><ellipse fill="#e0d24d" rx="1.5" ry=".64" transform="rotate(54.4 49.349 287.49)"/><path fill="#958720" d="m303.98 88.98.08 2.42q.02.5-.44.7-.28.12-.64.04l-.21-.19q-.34-.29-.23-.72l.68-2.67q.13.29.76.42"/><path fill="#6b5ce5" d="M313.82 99.85q.17-.26.08-.59-.15-.55-.68-.35-.72.25-1.26.97-6.75-.06-13.23 2.34l.07-1.11q.03-.63-.6-.56-.53.07-.8-.42-.75-1.38.68-.75 2.08.91 3.87-1.98.19.03.51-.16.5 1.39-.26 1.98-.11.09-.12.23-.01.18.12.27.17.13.38.06 2.18-.67 3.72-2.19.55-.54-.09-.97-1.44-.96-1.06-2.52a.87.86-63.7 0 0-.29-.86q-.28-.23-.7.01-.09-.55-.89-.25l-.29-.86q.36.08.64-.04.46-.2.44-.7l-.08-2.42c5.21 1.87 11.5 6.1 14.22 11.01q.6 1.07-.59.78zm-2.658-3.793a.73.49-34.5 0 0-.88.01.73.49-34.5 0 0-.324.817.73.49-34.5 0 0 .88-.01.73.49-34.5 0 0 .324-.817"/><path fill="#b5a628" d="M304.16 93.25q-.25.64-.91.72-.45-.38.02-.97.8-.3.89.25"/><path fill="#958720" d="M302.46 97.24q.58-.85 1.37-.55 2.13.79.91-1.12-.19-.3-1.53-.39-.11-.67.04-1.21.66-.08.91-.72.42-.24.7-.01a.87.86-63.7 0 1 .29.86q-.38 1.56 1.06 2.52.64.43.09.97-1.54 1.52-3.72 2.19-.21.07-.38-.06-.13-.09-.12-.27.01-.14.12-.23.76-.59.26-1.98"/><path fill="#b5a628" d="M303.21 95.18q1.34.09 1.53.39 1.22 1.91-.91 1.12-.79-.3-1.37.55-.32.19-.51.16-.78-.26-.74-.67.03-.27.52-.5.87-.43 1.48-1.05"/><ellipse fill="#958720" rx=".73" ry=".49" transform="rotate(-34.5 310.622 -451.848)"/><path fill="#837964" d="M313.82 99.85q-.94.2-1.86.03.54-.72 1.26-.97.53-.2.68.35.09.33-.08.59M307.57 112.48q-.01.19-.07.31-.21.4-.57.14-.47-.33-.19-.82.36-.07.83.37"/><path fill="#b5a628" d="M310.37 113.96q-.83 1.09-1.77 1.9-.27.24-.51.53-.27.33-.73.34a.3.29-73.3 0 1-.25-.47q.47-.63-.05-1.29-.35-.43.05-.82.26-.26.7-.07a.39.37 11.7 0 1 .23.33q.02.23.21.27.27.05.45-.14.42-.44.58-1.21z"/><ellipse fill="#e0d24d" rx="1.01" ry=".63" transform="rotate(129.6 128.38 131.987)"/><path fill="#837964" d="m316.72 118.65 3.31 3.13-3.39 3.07q-.19.18-.32-.05l-.17-.32q-.12-.2.06-.35 1.34-1.09 1.74-2.38.2-.64-.48-.64l-.73.01q-.56 0-.76-.52-.4-1.04.74-1.95"/><path fill="#958720" d="M305.42 131.09q.4-.3.4-.58 0-.36-.36-.37-.42-.02-.69.28-.61.66-.54-.24.04-.47.06-.91 1.23-.06 1.85-.6.4-.35-.12-.45l-1.8-.33q-1.91-2.5-2.16-1.01.95-2.04 3.19-3.2.7-.36.09-.86-.7-.56-.32-1.47.2-.5.63-.18c1.31.94 1.31 2.84 1.26 4.3a1.35 1.34-73.3 0 0 .64 1.2q.2.12.43.14a.95.94-6.1 0 1 .81.65q.18.56-.08 1.12-.24.53-.68.15-.38-.34-.79.14a.73.72 66.5 0 0-.17.44q-.12 2.43-1.65 1.78m-.42-5.2q.31-.08.53-.29a.31.31 0 0 0-.27-.53l-.74.17a.32.32 0 0 0-.07.6q.26.13.55.05m2.13 1.66a.49.49 0 0 0-.49-.49.49.49 0 0 0-.49.49.49.49 0 0 0 .49.49.49.49 0 0 0 .49-.49"/><path fill="#6b5ce5" d="m320.76 122.6 4.06 4.97q-1.62 3.01-1.56 1.25-2.2-1.99-2.87-4.45-.13-.5-.65-.5-.26 0-.5.11-.39-.37-.37-.68.02-.27.44-.44.66-.26 1.45-.26"/><ellipse fill="#837964" rx="1.44" ry=".66" transform="rotate(86.5 89.068 227.234)"/><path fill="#958720" d="M323.26 128.82q-2.03.58-3.55.1-.54-.17-.56-.73-.05-1.21-.65-2.36-.29-.53-.06-1.07.21-.5.8-.78.24-.11.5-.11.52 0 .65.5.67 2.46 2.87 4.45"/><path fill="#b5a628" d="M305 125.89q-.29.08-.55-.05a.32.32 0 0 1 .07-.6l.74-.17a.31.31 0 0 1 .27.53q-.22.21-.53.29"/><path fill="#e0d24d" d="M304.22 127.89q-.98.68-2.16-1.01.25-1.49 2.16 1.01"/><circle cx="306.64" cy="127.55" r=".49" fill="#b5a628"/><path fill="#958720" d="m317.24 130.97-4.46.71q-1.06-.77-1.1-1.42.83-.42 1.38.09.43.39.61-.16l.48-1.52q.64-2 2.4-.84.91.6.32 1.44-.29.42 0 .84.28.4.37.86"/><path fill="#b5a628" d="M304.29 129.27q-.02.44-.06.91-.07.9.54.24.27-.3.69-.28.36.01.36.37 0 .28-.4.58-1.42 2.24-2.52-1.62a.37.36-15.7 0 1 .26-.45q.93-.26 1.13.25"/><path fill="#837964" d="M311.68 130.26q.04.65 1.1 1.42l-2.6.32q.07-1.18 1.5-1.74"/><path fill="#6b5ce5" d="M308.07 146.4q-.19 1.39.75 1.46.38.03.24.39l-.18.47q-.2.54-.74.31l-.57-.23a.69.68-75.2 0 1-.41-.71q.09-.89-.81-1.14-.49-.15-.79.26-.9 1.21-2.27.88a.65.65 0 0 1-.28-1.11q.94-.84.93-2.04 2.05.24 4.13 1.46"/><path fill="#6b5ce5" d="M309.73 150.09q.91.33 1.38-.64l.93-.82 4 2.93q.23 1.01-.43 1.8-.64.77-.47-.22.22-1.35-1.68-1.09a1.62 1.6-.3 0 0-1.38 1.38q-.45 3.27 1.7 5.79.51.59.14 1.28-1.1 2.02-3.1 2.96-.5.23-.75-.25-.2-.38.35-.78 1.21-2.46-.61-4.82-.34-.44-.79-.12-.31.22-.25.63.06.53.46.82.55.4.11.92-.54.62-.52 1.27-.34.33-.41.64-.14-.08-.26-.07-.15.01-.2.15-.16.54-.06 1.12.95 1.36 1.19 2.49-.8.52-.74 1.28.05.61.65.76-.02.06-.03.12l-6.44.06q.45-1.99-1.15-2.67l.45-3.74q.87-.24 1.31-1.55.17-.48.65-.62 1.02-.32 1.2-.56 1.82-2.41-.91-1.01-.56.28-1.95.72l.13-7.22q.62-.39.86-1.05.17-.5.67-.67.91-.31 1.55-1.02.37-.41.56.11l.17.48a.53.52-28.6 0 1-.19.61q-.89.63-1.11.87-1.72 1.88.63.92.52-.21.7-.83.17-.57.75-.41 1.46.4 2.89.05m-1.04 3.3q.07.12.12.25.04.09.12.15.3.19.57-.01a.39.38 60.1 0 0 .12-.46l-.82-1.87q-.37-.83-.73 0-.25.57-.4 1.28-.13.55.42.4.13-.04.27 0 .22.06.33.26m-2.72-.16a1.32.65 88.3 0 0 .54.59 1.32.64 87.8 0 0 .55-.61 1.32.65 87.4 0 0-.57-2.03 1.32.65 87.6 0 0-.52 2.05"/><path fill="#e0d24d" d="M311.11 149.45q-.47.97-1.38.64-.11-.74.35-1.21a.6.57-62.5 0 1 .52-.18q.79.11.51.75"/><path fill="#837964" d="M308.36 153.13q-.14-.04-.27 0-.55.15-.42-.4.15-.71.4-1.28.36-.83.73 0l.82 1.87a.39.38 60.1 0 1-.12.46q-.27.2-.57.01-.08-.06-.12-.15-.05-.13-.12-.25-.11-.2-.33-.26"/><path fill="#837964" d="M307.06 153.21q-.1-.4-.56-.38-.43.02-.53.4a1.32.65 87.6 0 1 .52-2.05 1.32.65 87.4 0 1 .57 2.03"/><path fill="#958720" d="M318.71 154.09q-.56.7-1.16.81-.54.09-.65-.44-.06-.3-.36-.37-.38-.09-.47.3-.34 1.51-1.51 2.5-.53.45-.14 1.02l.54.78q.48.7.06 1.44-.92 1.58-.45 3.17a.62.61-9.9 0 1-.56.79q-.72.03-1.03-.64a.49.49 0 0 0-.93.1q-.33 1.51.79 2.67a.54.54 0 0 1-.44.91q-.42-.04-.43-.51 0-.84-.82-.63-.22.05-.39.19-.37.31-.25.77l.2.83-1.75-.16q.01-.06.03-.12 1-.22 1.13-1.22a.8.79 17.9 0 0-.41-.8q-.31-.17-.63-.02-.24-1.13-1.19-2.49.31.05.53 0 .62-.12.36-.7-.12-.27-.37-.5.07-.31.41-.64l1.6 1.3q-.55.4-.35.78.25.48.75.25 2-.94 3.1-2.96.37-.69-.14-1.28-2.15-2.52-1.7-5.79a1.62 1.6-.3 0 1 1.38-1.38q1.9-.26 1.68 1.09-.17.99.47.22.66-.79.43-1.8zm-4.95 1.95 1.18-1.83q.04-.07-.02-.12l-.24-.21q-.23-.18-.39.05l-1.16 1.67q-.17.24.08.39l.21.13q.21.13.34-.08"/><path fill="#b5a628" d="M307.06 153.21a1.32.64 87.8 0 1-.55.61 1.32.65 88.3 0 1-.54-.59q.1-.38.53-.4.46-.02.56.38"/><path fill="#877898" d="M313.76 156.04q-.13.21-.34.08l-.21-.13q-.25-.15-.08-.39l1.16-1.67q.16-.23.39-.05l.24.21q.06.05.02.12z"/><path fill="#6b5ce5" d="m318.71 154.09.58.65q-.25.87-.1 1.62.11.6.65.32.33-.17.61-.66 1.26 1.21 1.74 2.44 1.1 2.28-.67 3.74-.55.45-.36 1.2.2.82.75.18.6-.69 1.47-.67.86.02.29.67l-1.62 1.86q-.39.44-.97.5-.88.09-.99 1.04-.05.48.41.35 1.1-.31 1.79-1.05.27-.29.5.03l.16.24q.12.18-.03.33l-1.4 1.33-.85.37q-.57.25-.9-.28-1.59-2.54.08-4.51.44-.52-.24-.44-.82.1-1.59-.11a.3.3 0 0 0-.34.45q.39.62.19 1.29-.19.64-.63.14-.44-.51-.35-1.33.14-.69.78-1.19.21-.17-.04-.26-.12-.05-.25.03-2.97 1.88-1.65 3.11l.09 2.85-5.11-.55-.2-.83q-.12-.46.25-.77.17-.14.39-.19.82-.21.82.63.01.47.43.51a.54.54 0 0 0 .44-.91q-1.12-1.16-.79-2.67a.49.49 0 0 1 .93-.1q.31.67 1.03.64a.62.61-9.9 0 0 .56-.79q-.47-1.59.45-3.17.42-.74-.06-1.44l-.54-.78q-.39-.57.14-1.02 1.17-.99 1.51-2.5.09-.39.47-.3.3.07.36.37.11.53.65.44.6-.11 1.16-.81m-.63 4.49q.11-.1.19-.22.41-.56-.26-.41-1.49.34-1.06 1.71.34 1.05.79 2.24.21.54.68.21.7-.5 1.19-1.25.73-1.1-.58-.95-.95.12-1.1-.87-.04-.27.15-.46m1.42-.36q.24.24-.01.49-.54.53.22.48.58-.04 1.04-.43.68-.56-.14-.89-.41-.17-.89-.17-.73 0-.22.52"/><path fill="#837964" d="M320.45 156.02q-.28.49-.61.66-.54.28-.65-.32-.15-.75.1-1.62.71.54 1.16 1.28"/><path fill="#b5a628" d="m301.82 161.27.3-3.02q1.39-.44 1.95-.72 2.73-1.4.91 1.01-.18.24-1.2.56-.48.14-.65.62-.44 1.31-1.31 1.55M310.42 162.43l-1.6-1.3q-.02-.65.52-1.27.44-.52-.11-.92-.4-.29-.46-.82-.06-.41.25-.63.45-.32.79.12 1.82 2.36.61 4.82"/><path fill="#958720" d="M317.93 159.04q.15.99 1.1.87 1.31-.15.58.95-.49.75-1.19 1.25-.47.33-.68-.21-.45-1.19-.79-2.24-.43-1.37 1.06-1.71.67-.15.26.41-.08.12-.19.22-.19.19-.15.46"/><path fill="#877898" d="M319.5 158.22q-.51-.52.22-.52.48 0 .89.17.82.33.14.89-.46.39-1.04.43-.76.05-.22-.48.25-.25.01-.49"/><path fill="#958720" d="M324.77 171.03q.45-.87.09-1.38-.95-1.36-.9-2.41.97-.15 1.22-1.66.16-.97-.69-.47-1.11.64-.53 2.13l-.67.25q-.45.16-.4.64.11 1.14-.37 2.15l-.88-.31q.33-1.46-.12-1.76l1.4-1.33q.15-.15.03-.33l-.16-.24q-.23-.32-.5-.03-.69.74-1.79 1.05-.46.13-.41-.35.11-.95.99-1.04.58-.06.97-.5l1.62-1.86q.57-.65-.29-.67-.87-.02-1.47.67-.55.64-.75-.18-.19-.75.36-1.2 1.77-1.46.67-3.74 4.84 5.62 4.68 12.65-.01.54-.55.62-.73.1-1.55-.7"/><path fill="#b5a628" d="M308.41 161.77q.25.23.37.5.26.58-.36.7-.22.05-.53 0-.1-.58.06-1.12.05-.14.2-.15.12-.01.26.07M316.89 163.79q-.46.05-.68.25-.38.33 0 .66l2.1 1.83q.43.38.01.77l-.26.24q-.26.25-.5-.02l-1.83-2.04q-1.32-1.23 1.65-3.11.13-.08.25-.03.25.09.04.26-.64.5-.78 1.19"/><path fill="#837964" d="M321.52 168.21q.45.3.12 1.76l-5.82-1.64-.09-2.85 1.83 2.04q.24.27.5.02l.26-.24q.42-.39-.01-.77l-2.1-1.83q-.38-.33 0-.66.22-.2.68-.25-.09.82.35 1.33.44.5.63-.14.2-.67-.19-1.29a.3.3 0 0 1 .34-.45q.77.21 1.59.11.68-.08.24.44-1.67 1.97-.08 4.51.33.53.9.28z"/><path fill="#877898" d="M323.96 167.24q-.58-1.49.53-2.13.85-.5.69.47-.25 1.51-1.22 1.66"/><path fill="#6253de" d="M302.52 167.68q-1.04 1.71-.79 4.48.05.51.51.72 3.38 1.57 5.88 4.35l-.3 2.12q-.06.42.32.62c.43.22.65.52.8.97q.47 1.32 1.23 2.39a.61.61 0 0 0 1.08-.16q.16-.51.15-1.18 2.72 5.07 3.33 11.02.39 3.81-.86 7.55a.32.32 0 0 1-.47.18q-5.85-3.46-13.42-4.97-.94-.19-1.14.75l-1.08 4.99q-.38.33 0 .73.25.27.54-.08l3.41 4.53q-.76.28-.53 1.39.14.73-.6.65-.29-.03-.57.07a1.4 1.39-84.5 0 0-.75.62q-.67 1.18-2.02.54-.15-.07-.17-.24-.02-.15.02-.29a.28.27 1.3 0 1 .23-.21l.67-.11q.35-.06.56-.35 1.31-1.87-.48-3.49a.69.68 50.4 0 0-.79-.08q-.84.49-.6 1.54.15.66-.52.57l-.75-.1q2.04-6.89 2.65-14.22l1.53-1.78q.33-.39.28-.89-.08-.76.45-1.29.28-.27.21-.65-.07-.31-.39-.34a.54.53-2.7 0 1-.49-.44q-.18-.91.33-1.71a1.06 1.04 54.9 0 0 .14-.85l-.21-.78a.4.39-9.8 0 1 .35-.49q.4-.03.45.26a.39.39 0 0 0 .58.27q.15-.09.25-.21.21-.25.12-.57-.61-2.2-2.39-1.48l2.1-17.02q1.6.68 1.15 2.67m4.63 10.71a.53.53 0 0 0-.53-.53.53.53 0 0 0-.53.53.53.53 0 0 0 .53.53.53.53 0 0 0 .53-.53"/><path fill="#e0d24d" d="M308.99 167.5q-.6-.15-.65-.76-.06-.76.74-1.28.32-.15.63.02a.8.79 17.9 0 1 .41.8q-.13 1-1.13 1.22"/><path fill="#6b5ce5" d="M323.96 167.24q-.05 1.05.9 2.41.36.51-.09 1.38-1.27.01-2.25-.75.48-1.01.37-2.15-.05-.48.4-.64z"/><path fill="#958720" d="M311.4 181.99q.01.67-.15 1.18a.61.61 0 0 1-1.08.16q-.76-1.07-1.23-2.39c-.15-.45-.37-.75-.8-.97q-.38-.2-.32-.62l.3-2.12z"/><circle cx="306.62" cy="178.39" r=".53" fill="#877898"/><path fill="#837964" d="m298.06 192.98 1.21-10.95q1.78-.72 2.39 1.48.09.32-.12.57-.1.12-.25.21a.39.39 0 0 1-.58-.27q-.05-.29-.45-.26a.4.39-9.8 0 0-.35.49l.21.78a1.06 1.04 54.9 0 1-.14.85q-.51.8-.33 1.71a.54.53-2.7 0 0 .49.44q.32.03.39.34.07.38-.21.65-.53.53-.45 1.29.05.5-.28.89zM298.3 202.16q-.29.35-.54.08-.38-.4 0-.73.35.23.54.65"/><path fill="#7869c0" d="M301.71 206.69q1.91 3.03 2.29 6.26-1.14.54-1.52 1.78-.33 1.09.31 1.79.71.79 2.1.51.21 4.75-.06 8.69-.26 3.78-2.36.62-2.63-3.95-8.81-6.65-.82-.35-.9.53l-.59 6.67q-.05.52.2.98 3.16 5.66 3.21 12.45-.3.44-.85.32-.46-.09-.71-.5t-.74-.48q-.53-.08-.84-.52-.43-.6-.45-1.38a.66.65-88.8 0 1 .69-.67q.22.01.44-.05.88-.26.1-.76l-2.9-1.83q.92-4.8 1.09-9.91.12-3.52.99-6.44 1.6-5.41 3.01-10.9l.75.1q.67.09.52-.57-.24-1.05.6-1.54a.69.68 50.4 0 1 .79.08q1.79 1.62.48 3.49-.21.29-.56.35l-.67.11a.28.27 1.3 0 0-.23.21q-.04.14-.02.29.02.17.17.24 1.35.64 2.02-.54a1.4 1.39-84.5 0 1 .75-.62q.28-.1.57-.07.74.08.6-.65-.23-1.11.53-1.39m-2.52 4.57a.33.33 0 0 0 .37.48q.25-.06.32-.3a.29.28 21.9 0 0-.15-.34q-.36-.17-.54.16m1.07 1.65q-.31.21-.31.58.01.67.58.33 1.32-.79 1.56-2.09.05-.27-.15-.47-.11-.11-.26-.13-.5-.1-.64.4l-.13.48q-.15.58-.65.9m-4.26 4.37q1.12 2.65 1.76 1.09.69-1.33.02-2.56-.26-.48-.59-.05zm2.99.98q-.01.49.44.66a.39.39 0 0 0 .52-.4q-.03-.41-.4-.6a.38.38 0 0 0-.56.34"/><path fill="#e0d24d" d="M299.19 211.26q.18-.33.54-.16a.29.28 21.9 0 1 .15.34q-.07.24-.32.3a.33.33 0 0 1-.37-.48"/><path fill="#958720" d="m300.91 212.01.13-.48q.14-.5.64-.4.15.02.26.13.2.2.15.47-.24 1.3-1.56 2.09-.57.34-.58-.33 0-.37.31-.58.5-.32.65-.9"/><path fill="#b5a628" d="M304 212.95q.81 2.03.89 4.08-1.39.28-2.1-.51-.64-.7-.31-1.79.38-1.24 1.52-1.78"/><path fill="#877898" d="M297.76 218.37q-1.04-1.86-1.76-1.09l1.19-1.52q.33-.43.59.05.67 1.23-.02 2.56"/><path fill="#b5a628" d="M297.76 218.37q-.64 1.56-1.76-1.09.72-.77 1.76 1.09"/><path fill="#e0d24d" d="M298.99 218.26a.38.38 0 0 1 .56-.34q.37.19.4.6a.39.39 0 0 1-.52.4q-.45-.17-.44-.66"/><path fill="#6b5ce5" d="m290.32 234.45 2.9 1.83q.78.5-.1.76-.22.06-.44.05a.66.65-88.8 0 0-.69.67q.02.78.45 1.38.31.44.84.52.49.07.74.48t.71.5q.55.12.85-.32.49 3.74-.4 6.52-1.08 3.35-2.32.06-1.02-2.71-2.91-5.02a.47.46-58.9 0 0-.82.21l-.72 3.47q-.16.79.34 1.42 2.68 3.37 2.19 8.08a.63.62-63.3 0 1-1.08.36c-2.21-2.37-4.32-4.22-3.37-7.85q1.7-6.49 3.83-13.12"/></svg>