<svg xmlns="http://www.w3.org/2000/svg" viewBox="0 0 382 382"><g fill="none" stroke="gray" stroke-width="2"><path d="m244.15 60.03 1.94 4.49q.3.7-.34.29-4.15-2.63-9.23-3.23-.19-.02-.27.15l-.16.37a.24.23-76 0 0 .19.33q7.67.74 11.8 6.03.14.18.38.18.4 0 .45-.59a.36.29-60.6 0 0-.03-.18l-3.46-7.81M252.28 60.27q.29.93-.41 1.76-.34.4-.26.92l.25 1.56q.05.26.3.19l.24-.06q.03-.01.02-.05-.81-2.53.94-4.43M255.98 60.87q1.11 2.55 3.13 4.63M251.25 68.01q.63-1.2.28-1.97-.24-.52-.46 0L249.79 69M248.19 75.31q-.94.04-.74.64M241.83 73.39q-3.24-.66-4.97-3.01a.9.9 0 0 0-1.32-.14l-2.72 2.39q-.43.38-.04.8.68.75 1.76 1.14M232.47 74.88q.11-.07.14-.21.01-.04-.02-.07-1.31-1.26-2.16.3M228.39 73.97q-.3-1.69-2.26-1.27M218.83 70.93q.66-.21.27-1.85M220.88 69.11q-.15 0 0 .25a.46.45-6.9 0 0 .26.2l5.42 1.55a.32.32 0 0 0 .38-.42l-1.66-4.33q-.23-.6.2-1.08l.25-.27a.41.41 0 0 1 .71.18q.43 1.88 1.07 3.77.39 1.16.63-.04.2-.94.75-1.64.4-.51-.07-.96l-2.13-2.1M230.36 62.39q5.29.66 4.67-1.32" vector-effect="non-scaling-stroke"/><path d="M239.18 74.11q-.67-1.07-1.44-1.08-.97-.02-.79 1.24M248.38 75.53l.2 1.3M257.44 61.43l2.44 3.76M216.22 61.23l.62 5.89M217 68.7l.31 2.01M250.47 76.29q.45 1.24-.34 1.97M262.74 63.15q-.34.5-.07 1.57M215.12 61.1q.36 1.96.29 3.16-.11 1.83.76 3.01.21.28-.13.35l-.29.05q-.01.01-.01 0-1.56-2.38-2.9-4.85-.23-.42-.63-.18l-.26.16q-.19.11-.08.3l2.48 4.34q.39.69-.39.59l-3.49-.44q-.54-.07-.44-.61l.29-1.61q.1-.54-.23-.11-1.58 2.05-1.71 4.55-.01.22.11.4.11.18.33.19.52.01.64-.51l.21-.92q.1-.45.56-.4l4.84.59q.5.06.78.47.53.74.23 1.3M221.44 61.47q1.71.85 2.12 2M221.19 64.56q-.77-.97.17-1.63.1-.07.01-.16l-.01-.01q-.09-.09-.2-.01-1.24.94-.92 2.36" vector-effect="non-scaling-stroke"/><path d="M212.02 61.11q-3.32 3.11-4.97 7.31a1.97 1.91-37.7 0 0-.12.82l.11 1.28q.05.61-.54.45-2.26-.58-3.15-2.36-.28-.58-.93-.57l-5.02.05q-.69.01-.58.7l.38 2.43M196.22 71.68l-.49-3.12q-.07-.48-.56-.39l-.92.17q-.75.14-.32-.49l2.83-4.09" vector-effect="non-scaling-stroke"/><path d="m198.34 63.33-1.51 3.15q-.29.62.4.61l4.57-.08q.73-.02.31-.62l-2.5-3.55M200.52 62.54q1.48 2.21 2.17 3.13 2.81 3.8 2.77-.93 0-.49-.2-3.06M206.3 61.51l.25 4.63q.04.69.36.08l2.61-4.93M281.3 68.02q.09.58-.04 1.13-.08.32-.3.56-.31.34-.5.16-.62-.57-.57-1.46.02-.37-.54-.37-1.04 0-.41.83l1.27 1.64q.37.48.83.09 1.05-.9.87-2.56M283.04 74.96l-1.26-1.3q-.46-.49-.2.13l.57 1.39M279.31 76.99q.05-.17.05-.28a.15.14-2 0 0-.15-.13q-.23.01-.39.17-.06.05-.05.12.02.18.2.13M276.28 85.34q-.09.27-.01.71M264.58 84.9q.61-1.32-.13-2.46-.29-.43-.35.08l-.3 2.39M261.27 84.91q-.77-.8-1.93-1.17a1.8 1.8 0 0 1-1.21-2.06q.24-1.14.29-2.34 0-.2-.18-.28-.14-.07-.32 0-.14.05-.19.2l-.59 2.21q-.19.7-.8.31-1.44-.92-3.02-1.14a1.12 1.12 0 0 1-.92-.8l-1.15-4.06" vector-effect="non-scaling-stroke"/><path d="M252.58 74.71q.93 2.31 1.33 4.75.04.2.24.16.2-.03.17-.23c-.32-1.84.25-3.34-1-5.11M259.9 70.88q-1.6 3.06-1.44 5.72.04.8.27.03l1.66-5.62M261.67 70.56c1.82 2.81 1.95 7.05 2.26 10.22q.09.88.46.08c1.36-2.89-1.11-7.61-1.72-10.61M267.22 69.07q.81 1.87 2.4 3.13.38.31.49.79.32 1.53 1.44 2.76.61.67.44-.22-.19-1.05-.88-1.82c-1.27-1.43-1.95-3.3-2.87-4.99M195.29 71.85q-1.09-.31-1.24-1.13-.1-.57.4-.87.37-.22.28-.67-.08-.41-.47-.26-.14.04-.23.13-.55.53-.97-.11l-1.28-1.93M277.35 85.46q-.01.93-.79.83M194.49 72.24q-1.03-.81-1.96.04-.47.43-.33.8M190.71 73.5l1.59-2.64q.25-.43.01-.86-.64-1.12-2.06-1.5M287.77 86.08q-.03.79.16 1.25.22.53.39-.02l.36-1.12M295.85 86.87l-4.11 7.17q-.66 1.15-1.06-.12l-1.43-4.61q-.07-.22-.3-.2l-.3.02q-.4.03-.29.43l1.71 5.98q.15.53-.17.97l-4.86 6.63M283.83 99.94q.68-2.16-1.97-2.91M187.97 74.29q-.88-.74-1.02-2.1M297.78 87.18l-.81 4.53q-.21 1.18-.5.02-.43-1.68.44-3.54.04-.09-.04-.13l-.26-.14q-.15-.08-.24.07l-4.57 7.88q-.27.45-.21.97.4 3.4 1.53 7.07.21.68.69.16l1.84-1.97q.5-.54.49-1.28l-.04-4.89q-.01-.2.09-.37.22-.36.52-.25.26.1.27.38l.2 4.09q.03.76.56.21.53-.54 1.28-.84.81-.33.31.38l-2.34 3.3M292.61 105.36q-1.05-1.64-.66-3.68.11-.55-.23-1-.84-1.12-.84-2.47.01-.84-.53-.19l-5.11 6.15M306.68 90.22l-.7 2.78q-.12.48-.54.76-1.49.99-2.23 2.58-.35.76.28.21l1.89-1.64a.39.39 0 0 1 .64.24q.09.66.41 1.22.48.84.43-.13-.14-2.86 2.5-4.66M315.91 96.93l-.35 1.17q-.15.48-.62.64-1.04.34-1.76 1.05M307.05 99.95q.17-.75.03-1.46-.11-.6-.5-.13-.53.61-.5 1.87M298.72 108.82q-.39.38-.35.65.04.24.45.55" vector-effect="non-scaling-stroke"/><path d="M307.49 90.77q-.57.56-.27 1a.69.68 54.7 0 0 .97.17q.2-.15.24-.71M299.19 109.27q-.19.39-.22.7M301.54 110.04l-.62 1.22M302.93 110.57l-1.68 1.49M307.58 112.54l-6.32 6.23M308.05 112.81q0 .72-.45 1.46-.19.32.12.12l1.56-1.04M310.01 113.93l-6.25 4.73a1.17 1.17 0 0 0-.34 1.44l.73 1.48q.39.79.92.09l1.4-1.8a.3.29-58.2 0 1 .37-.09l.25.12q.16.07.07.22l-1.54 2.78q-.3.53.07 1l2.28 2.92q.11.15-.03.27l-.33.31q-.05.04-.09 0-1.65-1.27-2.53-2.87a.48.47 46.1 0 0-.82-.02q-.89 1.49-2.12 3.08-.04.05-.09.02l-.35-.18q-.3-.16-.13-.45l2.19-3.53q.27-.42.02-.85l-1.16-2.01q-.22-.37-.65-.31-.25.04-.44.27" vector-effect="non-scaling-stroke"/><path d="M310.97 114.33q-.89 1.72-2.99 4.16-.21.24-.01.49.35.46.74.03l2.2-2.49a.62.62 0 0 1 1.04.2q.68 1.84 2.27 3.19a.26.24-33 0 0 .23.04l.33-.12q.17-.07.09-.22l-2.16-3.83M317.58 119.62q-.78 1.3-1.81.91-.44-.17-.59.28l-.11.3q-.15.42-.47.72l-4.49 4.07q-1.17 1.07.18.23 2.48-1.54 4.96-3.68a.57.56-39.7 0 1 .8.07q2.62 3.13 5.81 5.33a.29.29 0 0 0 .41-.07l.24-.34q.03-.05-.01-.09-2.97-2.49-5.3-5.1-.38-.42 0-.83.53-.6 1.33-1.01M325.3 128.78l-1.05.14q-.59.07-.23.54.74.97 2.42 1.02M311.93 131.71q-.52-1.4-1.4-1.77-.59-.23-.41.37.22.76.98 1.49M308.81 132.41l-2.8-1.85q-.44-.29-.82.06l-5.56 5M300.23 132.86q2.28-.55 3.89-2.69.3-.41-.17-.6-1.72-.7-2.9-1.74M300.91 136.29l-1.21 1.73M302.76 139.97q-.5.03-.81.33M304.01 145.07q-.1 2.96-1.63 5.73-.14.25-.25-.01-.08-.18.11-.28M306.2 145.6l-1.49 3.57q-.2.48.21.17l3.53-2.69M309.26 147.25l-5.04 4a1.07 1.06 49 0 0-.1 1.57q3.28 3.4 5.3 7.73.08.18.28.22.06.01.11-.01.47-.11.56.39.57 3.3 1.71 6.6" vector-effect="non-scaling-stroke"/><path d="m309.07 167.7.75-5.41q.08-.55-.29-.96-.19-.21-.46-.27-.49-.1-.73-.55-1.82-3.52-4.38-6.35-.39-.43-.39.15l-.02 8.11a1.52 1.51-83.1 0 0 1.16 1.49q2.07.5 3.42 1.84.77.76-.29.52-1.72-.38-2.9-1.78-.37-.44-.95-.36l-.64.09a.78.76-21.7 0 1-.74-.31q-.71-1.01-.32-1.98.16-.4.17-.83l.19-7.32q.01-.2-.15-.33l-.22-.18M304.19 167.55q0-.95-.37-1.53-.34-.53-.61.03-.28.59-.15 1.52M306.49 175.73l-1.03 1.38q-.42.56.25.76.35.11.77.12.79.02.89-.65.06-.43-.1-1.14M313.84 188.31q-.21.41-.36.85-.13.36.03.57.18.22.58.32M314.41 197.27l-6.29.73M305.57 196.94l-.81-1.92q-.17-.42.1-.79l3.44-4.61q.33-.44-.14-.74l-.27-.17q-.09-.05-.15.03l-3.12 4.17q-.45.59-.92.01-1.13-1.38-.59-2.99.19-.58-.39-.39l-.71.24q-.56.18-.64.77-.26 2.11-1.62 3.99-.33.45-.8.15-.5-.31-.79-.91M298.34 190.4q.49-1.23 1.79-2.36.55-.48.74.23.14.5.66.45.8-.08.27-.68c-.7-.78-1.01-1.73-.47-2.7q1.72-3.07 3.77-5.75.16-.21-.04-.39l-.24-.2q-.23-.2-.43.03-3.45 4.11-5.63 8.92M299.13 184.97q.07-.66.48-.88.41-.21.4-.67-.03-1.02-.58-2.14M301.69 163.23l.01-.94M302.1 157.46l.03-1.17M310.56 147.96l-.29 9.4q-.02.58.23.05.69-1.46.79-3.64.19-4.09.05-5.54M313.32 149.67q-.47 1.05-.05 1.64.26.38.51-.01.29-.45.13-1.33M315.02 150.73q-.59 2.49 1.13 3.65a2.27 2.17-88.8 0 1 .69.75q1.68 3.04 2.52 5.9a2.99 2.97 62.3 0 1-.96 3.12l-2.88 2.39q-1.34 1.11-1.5-.61l-.78-7.93q-.01-.19-.21-.19h-.31q-.15 0-.16.15-.32 4.92.97 9.64.07.25-.08.27-.14.02-.41-.03" vector-effect="non-scaling-stroke"/><path d="M304.05 196.59q.34-.48-.3-.81-.61-.31-1.01.51M300.94 195.8q.85-.09 1.45-.54.72-.55.52-1.33-.12-.45-.25-.88-.24-.77-.76-.17-1.1 1.25-.96 2.92M298.84 195.96q-.38-.75-.89-.45M314.19 198.83q-1.09.3-1.18 1.65M312.04 199.74l.18-.56q.16-.47-.31-.62-1.28-.38-2.24.31M317.3 152.79q-.13.51-.07.97.08.53.58.34.19-.08.38-.23M319.05 154.74l-.61.14q-.55.12-.31.63l1.84 3.9q.27.58.57.01l.99-1.9M322.23 158.26q-.61 1.54-1.01 2.35-1.03 2.09.91.81.33-.22 1.66-.7M324.29 161.47q-1.7.66-2.86 1.88-.32.33-.16.77.78 2.25.82 4.42a.34.34 0 0 1-.66.12q-.62-1.78-.89-3.76-.15-1.04-.58-.09-.63 1.39-.68 3.03-.01.32-.34.28l-.55-.08a.35.35 0 0 1-.28-.44l.31-1.15q.56-2.09-.91-.5-1.92 2.06-3.29 1.93M298.47 198.26q-.55.44-1 .19M297.96 201.77q-.52.23-.92.02M302.02 207.21q-.96-.92-1.83-1.09-.62-.12-.19.35l.62.69q.34.37.5.84.36 1.02 1.88 1.24M303 209.95q-.45-.47-.97-.22-3.51 1.68-6.17 4.65-.33.37-.79.21-.49-.17-1.04-.05-.19.05-.05.19l.3.3q.35.35-.05.65-1.1.81-1.41 2.19M294.3 212.32l6.22-2.33a.61.6 56.3 0 0 .2-1.01q-.28-.26-.64-.41-.46-.19-.96-.13l-4.06.54M296.09 205.25q.81.61 1.65.83.58.15.29-.36-.5-.91-1.68-1.46M303 209.95l-6.11 4.77q-.7.55.13.87l3.55 1.38q.49.19.52.72.08 1.41-1.59 1.5a.18.18 0 0 0-.03.36q2.14.5 2.7-1.22.14-.43.6-.45l2.18-.06" vector-effect="non-scaling-stroke"/><path d="m304.94 219.29-4.42 1.58a1.23 1.22-41.3 0 1-.99-.06q-.87-.43-1.58-1.25-.72-.83.38-.71.77.08 1.29-.39.63-.57-.17-.88l-3.27-1.26q-1.01-.38-1.31.65l-.34 1.14q-.17.57.28.96.34.3.78.31.83.01.56.8l-.2.58M292.21 227.48q-.62-.13-.9 0M292.21 219.06q.7-.4.37-.85M294.27 211.33q2.17-.6 4.21-1.49.2-.09.1-.28h-.01q-.09-.19-.28-.09-1.64.92-3.5.49M295.36 239.8q-1.5-3.74-2.48-9.19-.17-.98-1.7-1.22M304.92 219.95q-.92.02-1.57.91-1.19 1.63-2.3 3.5M298.04 221.88q-.27-.66-1.03-.62M295.47 243.3q-3.07-6.39-4.12-9.43-.52-1.5.06-3.69.01-.05-.04-.04l-.25.07M304.96 220.75q-1.99 1.89-3.19 4.56M288.16 245.54q-.45.07-.94-.07M290.17 249.76q-1.18-.15-1.84 1.28-.25.55-.29-.05-.04-.48.3-.79.42-.41.26-.98-.13-.44-.59-.56-.53-.13-.81-.59l-.48-.8M234.24 70.11a.88.88 0 0 0-.11-1.43l-2.5-1.5a.88.88 0 0 0-1.32.57l-.9 4.34a.88.88 0 0 0 1.42.86l3.41-2.84M228.52 70.54q-.36-.35-.36.02 0 .08.06.13.13.14.26.08.19-.08.04-.23M204.27 68.7l.68.43a.48.48 0 0 0 .71-.27q.05-.16.05-.32.01-.48-.47-.45l-.83.05a.3.3 0 0 0-.14.56M279.71 74.55q.08-.84.47-1.63.45-.89-.22-.15-.69.75-.42 1.79a.09.08 40.6 0 0 .17-.01M273.53 79.47q-.02-.06-.09-.06-.21-.02-.1.16.12.18.28.31.2.16.21-.05 0-.1-.06-.19-.04-.04-.09-.05-.05-.02-.09-.04-.04-.03-.06-.08M299.99 98.947a1.29.28 123.4 0 0 .944-.923 1.29.28 123.4 0 0 .476-1.231 1.29.28 123.4 0 0-.944.923 1.29.28 123.4 0 0-.476 1.231M307.92 128.27a.53.53 0 0 0 0 .66q.19.25.49.16.48-.15.48-.67a.41.4-81.3 0 0-.28-.39q-.41-.12-.69.24M310.3 166.57q.23.35.33-.06.14-.5-.17-.95-.25-.38-.33.06-.1.52.17.95M312.94 154.83q-.12.25-.11.53.03.49.36.12.83-.93.24-2.05-.28-.54-.43.05-.07.32.01.65.1.36-.07.7M309.33 183.66q.13 1.93-.99 3.75-.6.98.38.38 1.75-1.07 1.27-2.86-.18-.7.29-1.25.43-.5.59-1.13.2-.8-.35-.19l-1.19 1.3" vector-effect="non-scaling-stroke"/><path d="M309.33 183.66q-.28-2.68-1.44-4.3a1.2 1.2 0 0 0-2.11.3l-2.94 8.32q-.07.2.13.28l.49.17q.19.07.26-.12l2.74-7.47q.61-1.66 1.1.04.33 1.16 1.77 2.78M312.89 187.66q.02-.22-.18-.24-.25-.02-.19.23.03.14.18.15.17.02.19-.14" vector-effect="non-scaling-stroke"/></g><path d="m244.15 60.03 1.94 4.49q.3.7-.34.29-4.15-2.63-9.23-3.23-.19-.02-.27.15l-.16.37a.24.23-76 0 0 .19.33q7.67.74 11.8 6.03.14.18.38.18.4 0 .45-.59a.36.29-60.6 0 0-.03-.18l-3.46-7.81 6.86.21q.29.93-.41 1.76-.34.4-.26.92l.25 1.56q.05.26.3.19l.24-.06q.03-.01.02-.05-.81-2.53.94-4.43l2.62.71q1.11 2.55 3.13 4.63l-7.86 2.51q.63-1.2.28-1.97-.24-.52-.46 0L249.79 69l-4.87 2.84a.59.58 48.3 0 0-.05.97l3.32 2.5q-.94.04-.74.64l-5.62-2.56q-3.24-.66-4.97-3.01a.9.9 0 0 0-1.32-.14l-2.72 2.39q-.43.38-.04.8.68.75 1.76 1.14-1.01.57-2.07.31.11-.07.14-.21.01-.04-.02-.07-1.31-1.26-2.16.3-1.39.39-2.04-.93-.3-1.69-2.26-1.27-3.41-2.3-7.3-1.77.66-.21.27-1.85l1.78.03q-.15 0 0 .25a.46.45-6.9 0 0 .26.2l5.42 1.55a.32.32 0 0 0 .38-.42l-1.66-4.33q-.23-.6.2-1.08l.25-.27a.41.41 0 0 1 .71.18q.43 1.88 1.07 3.77.39 1.16.63-.04.2-.94.75-1.64.4-.51-.07-.96l-2.13-2.1 3.67-1.83q5.29.66 4.67-1.32zm-9.91 10.08a.88.88 0 0 0-.11-1.43l-2.5-1.5a.88.88 0 0 0-1.32.57l-.9 4.34a.88.88 0 0 0 1.42.86zm-5.72.43q-.36-.35-.36.02 0 .08.06.13.13.14.26.08.19-.08.04-.23"/><path fill="#fff" d="m245.42 60.06 3.46 7.81a.36.29-60.6 0 1 .03.18q-.05.59-.45.59-.24 0-.38-.18-4.13-5.29-11.8-6.03a.24.23-76 0 1-.19-.33l.16-.37q.08-.17.27-.15 5.08.6 9.23 3.23.64.41.34-.29l-1.94-4.49zM253.36 60.16q-1.75 1.9-.94 4.43.01.04-.02.05l-.24.06q-.25.07-.3-.19l-.25-1.56q-.08-.52.26-.92.7-.83.41-1.76.49-.17 1.08-.11"/><path d="M212.02 61.11q-3.32 3.11-4.97 7.31a1.97 1.91-37.7 0 0-.12.82l.11 1.28q.05.61-.54.45-2.26-.58-3.15-2.36-.28-.58-.93-.57l-5.02.05q-.69.01-.58.7l.38 2.43q-.33.35-.98.46l-.49-3.12q-.07-.48-.56-.39l-.92.17q-.75.14-.32-.49l2.83-4.09q.63-.67 1.58-.43l-1.51 3.15q-.29.62.4.61l4.57-.08q.73-.02.31-.62l-2.5-3.55q.56-.35.91-.3 1.48 2.21 2.17 3.13 2.81 3.8 2.77-.93 0-.49-.2-3.06.2-.35 1.04-.17l.25 4.63q.04.69.36.08l2.61-4.93q1.04-.35 2.5-.18m-7.75 7.59.68.43a.48.48 0 0 0 .71-.27q.05-.16.05-.32.01-.48-.47-.45l-.83.05a.3.3 0 0 0-.14.56"/><path fill="#fff" d="M215.12 61.1q.36 1.96.29 3.16-.11 1.83.76 3.01.21.28-.13.35l-.29.05q-.01.01-.01 0-1.56-2.38-2.9-4.85-.23-.42-.63-.18l-.26.16q-.19.11-.08.3l2.48 4.34q.39.69-.39.59l-3.49-.44q-.54-.07-.44-.61l.29-1.61q.1-.54-.23-.11-1.58 2.05-1.71 4.55-.01.22.11.4.11.18.33.19.52.01.64-.51l.21-.92q.1-.45.56-.4l4.84.59q.5.06.78.47.53.74.23 1.3l-3.19-.65q-.48-.1-.95.05-4.66 1.46-6.37 1.07-4.22-.96-8.37-.18l-.38-2.43q-.11-.69.58-.7l5.02-.05q.65-.01.93.57.89 1.78 3.15 2.36.59.16.54-.45l-.11-1.28a1.97 1.91-37.7 0 1 .12-.82q1.65-4.2 4.97-7.31z"/><path d="m216.22 61.23.62 5.89q-.37.32-.57.77-.23.51.3.67l.43.14.31 2.01q-.58.3-1.23.22.3-.56-.23-1.3-.28-.41-.78-.47l-4.84-.59q-.46-.05-.56.4l-.21.92q-.12.52-.64.51-.22-.01-.33-.19-.12-.18-.11-.4.13-2.5 1.71-4.55.33-.43.23.11l-.29 1.61q-.1.54.44.61l3.49.44q.78.1.39-.59l-2.48-4.34q-.11-.19.08-.3l.26-.16q.4-.24.63.18 1.34 2.47 2.9 4.85 0 .01.01 0l.29-.05q.34-.07.13-.35-.87-1.18-.76-3.01.07-1.2-.29-3.16.51-.08 1.1.13"/><path fill="#fff" d="M235.03 61.07q.62 1.98-4.67 1.32zM257.44 61.43l2.44 3.76-.77.31q-2.02-2.08-3.13-4.63zM209.52 61.29l-2.61 4.93q-.32.61-.36-.08l-.25-4.63zM216.22 61.23l5.22.24q1.71.85 2.12 2l-2.37 1.09q-.77-.97.17-1.63.1-.07.01-.16l-.01-.01q-.09-.09-.2-.01-1.24.94-.92 2.36l-3.4 2.01z"/><path d="M223.56 63.47q-.41-1.15-2.12-2l3.61.36q1.65.16.2.98-.62.35-1.69.66M262.74 63.15q-.34.5-.07 1.57l-2.79.47-2.44-3.76z"/><path fill="#fff" d="M205.26 61.68q.2 2.57.2 3.06.04 4.73-2.77.93-.69-.92-2.17-3.13z"/><path d="m221.19 64.56-.95.55q-.32-1.42.92-2.36.11-.08.2.01l.01.01q.09.09-.01.16-.94.66-.17 1.63"/><path fill="#fff" d="m199.61 62.84 2.5 3.55q.42.6-.31.62l-4.57.08q-.69.01-.4-.61l1.51-3.15q.68-.46 1.27-.49M262.74 63.15q.77.57-.07 1.57-.27-1.07.07-1.57M196.76 63.76l-2.83 4.09q-.43.63.32.49l.92-.17q.49-.09.56.39l.49 3.12-.93.17q-1.09-.31-1.24-1.13-.1-.57.4-.87.37-.22.28-.67-.08-.41-.47-.26-.14.04-.23.13-.55.53-.97-.11l-1.28-1.93q2.25-2.13 4.98-3.25M226.69 64.22l2.13 2.1q.47.45.07.96-.55.7-.75 1.64-.24 1.2-.63.04-.64-1.89-1.07-3.77a.41.41 0 0 0-.71-.18l-.25.27q-.43.48-.2 1.08l1.66 4.33a.32.32 0 0 1-.38.42l-5.42-1.55a.46.45-6.9 0 1-.26-.2q-.15-.25 0-.25 2.38-3.16 5.81-4.89M251.25 68.01q-.56.91-1.46.99l1.28-2.96q.22-.52.46 0 .35.77-.28 1.97"/><path d="m191.78 67.01 1.28 1.93q.42.64.97.11.09-.09.23-.13.39-.15.47.26.09.45-.28.67-.5.3-.4.87.15.82 1.24 1.13l-.8.39q-1.03-.81-1.96.04-.47.43-.33.8-.62.52-1.49.42l1.59-2.64q.25-.43.01-.86-.64-1.12-2.06-1.5.53-1.02 1.53-1.49"/><path fill="#fff" d="m234.24 70.11-3.41 2.84a.88.88 0 0 1-1.42-.86l.9-4.34a.88.88 0 0 1 1.32-.57l2.5 1.5a.88.88 0 0 1 .11 1.43"/><path d="M281.3 68.02q.09.58-.04 1.13-.08.32-.3.56-.31.34-.5.16-.62-.57-.57-1.46.02-.37-.54-.37-1.04 0-.41.83l1.27 1.64q.37.48.83.09 1.05-.9.87-2.56 5.31.58 9.18 1.95 3.2 1.13-.15 1.69-3.86.64-7.9 3.28l-1.26-1.3q-.46-.49-.2.13l.57 1.39-2.84 1.81q.05-.17.05-.28a.15.14-2 0 0-.15-.13q-.23.01-.39.17-.06.05-.05.12.02.18.2.13l-7.72 6.07q-.5.39.1.6l4.93 1.67q-.09.27-.01.71l-6.99-1.53q-.49-.11-.98.03-1.85.54-3.72.35.61-1.32-.13-2.46-.29-.43-.35.08l-.3 2.39h-2.53q-.77-.8-1.93-1.17a1.8 1.8 0 0 1-1.21-2.06q.24-1.14.29-2.34 0-.2-.18-.28-.14-.07-.32 0-.14.05-.19.2l-.59 2.21q-.19.7-.8.31-1.44-.92-3.02-1.14a1.12 1.12 0 0 1-.92-.8l-1.15-4.06q.43-.62 1.33-1.07.93 2.31 1.33 4.75.04.2.24.16.2-.03.17-.23c-.32-1.84.25-3.34-1-5.11l6.58-3.4q-1.6 3.06-1.44 5.72.04.8.27.03l1.66-5.62 1.28-.45c1.82 2.81 1.95 7.05 2.26 10.22q.09.88.46.08c1.36-2.89-1.11-7.61-1.72-10.61l4.55-1.18q.81 1.87 2.4 3.13.38.31.49.79.32 1.53 1.44 2.76.61.67.44-.22-.19-1.05-.88-1.82c-1.27-1.43-1.95-3.3-2.87-4.99q6.43-1.65 13.06-.7m-1.59 6.53q.08-.84.47-1.63.45-.89-.22-.15-.69.75-.42 1.79a.09.08 40.6 0 0 .17-.01m-6.18 4.92q-.02-.06-.09-.06-.21-.02-.1.16.12.18.28.31.2.16.21-.05 0-.1-.06-.19-.04-.04-.09-.05-.05-.02-.09-.04-.04-.03-.06-.08"/><path fill="#fff" d="M204.27 68.7a.3.3 0 0 1 .14-.56l.83-.05q.48-.03.47.45 0 .16-.05.32a.48.48 0 0 1-.71.27zM281.3 68.02q.37.09.61.02.18 1.66-.87 2.56-.46.39-.83-.09l-1.27-1.64q-.63-.83.41-.83.56 0 .54.37-.05.89.57 1.46.19.18.5-.16.22-.24.3-.56.13-.55.04-1.13M190.71 73.5l-2.74.79q-.88-.74-1.02-2.1l3.3-3.69q1.42.38 2.06 1.5.24.43-.01.86zM219.1 69.08q.39 1.64-.27 1.85l-1.52-.22-.31-2.01q1.14-.02 2.1.38M268.24 68.72c.92 1.69 1.6 3.56 2.87 4.99q.69.77.88 1.82.17.89-.44.22-1.12-1.23-1.44-2.76-.11-.48-.49-.79-1.59-1.26-2.4-3.13.39-.27 1.02-.35M241.83 73.39l-2.65.72q-.67-1.07-1.44-1.08-.97-.02-.79 1.24l-2.41.3q-1.08-.39-1.76-1.14-.39-.42.04-.8l2.72-2.39a.9.9 0 0 1 1.32.14q1.73 2.35 4.97 3.01M228.52 70.54q.15.15-.04.23-.13.06-.26-.08-.06-.05-.06-.13 0-.37.36-.02M262.67 70.25c.61 3 3.08 7.72 1.72 10.61q-.37.8-.46-.08c-.31-3.17-.44-7.41-2.26-10.22q.53-.3 1-.31M260.39 71.01l-1.66 5.62q-.23.77-.27-.03-.16-2.66 1.44-5.72-.34.37.49.13M194.49 72.24l-2.29.84q-.14-.37.33-.8.93-.85 1.96-.04"/><path d="M186.95 72.19q.14 1.36 1.02 2.1-.38.47-1.26.59a.9.9 0 0 1-1.01-1.06q.2-1.1 1.25-1.63"/><path fill="#fff" d="m228.39 73.97-2.26-1.27q1.96-.42 2.26 1.27M279.71 74.55a.09.08 40.6 0 1-.17.01q-.27-1.04.42-1.79.67-.74.22.15-.39.79-.47 1.63"/><path d="m239.18 74.11-2.23.16q-.18-1.26.79-1.24.77.01 1.44 1.08"/><path fill="#fff" d="M283.04 74.96q-.67.25-.89.22l-.57-1.39q-.26-.62.2-.13zM232.47 74.88l-2.04.02q.85-1.56 2.16-.3.03.03.02.07-.03.14-.14.21M253.32 74.28c1.25 1.77.68 3.27 1 5.11q.03.2-.17.23-.2.04-.24-.16-.4-2.44-1.33-4.75.17-.33.74-.43M248.19 75.31l.19.22.2 1.3q-.61-.32-1.13-.88-.2-.6.74-.64"/><path d="M250.47 76.29q.45 1.24-.34 1.97.23-1.37-1.55-1.43l-.2-1.3q1.13.71 2.09.76"/><path fill="#fff" d="m251.25 75.78 1.15 4.06a1.12 1.12 0 0 0 .92.8q1.58.22 3.02 1.14.61.39.8-.31l.59-2.21q.05-.15.19-.2.18-.07.32 0 .18.08.18.28-.05 1.2-.29 2.34a1.8 1.8 0 0 0 1.21 2.06q1.16.37 1.93 1.17l-3.74.01q-.5 0-.87-.35l-6.53-6.31q.79-.73.34-1.97.36-.33.78-.51M279.31 76.99q-.17 0-.34.01-.18.05-.2-.13-.01-.07.05-.12.16-.16.39-.17a.15.14-2 0 1 .15.13q0 .11-.05.28M273.59 79.55q.04.02.09.04.05.01.09.05.06.09.06.19-.01.21-.21.05-.16-.13-.28-.31-.11-.18.1-.16.07 0 .09.06.02.05.06.08M264.58 84.9l-.78.01.3-2.39q.06-.51.35-.08.74 1.14.13 2.46M277.35 85.46q-.01.93-.79.83l-.29-.24q-.08-.44.01-.71.47-.46 1.07.12"/><path d="M287.77 86.08q-.03.79.16 1.25.22.53.39-.02l.36-1.12 7.17.68-4.11 7.17q-.66 1.15-1.06-.12l-1.43-4.61q-.07-.22-.3-.2l-.3.02q-.4.03-.29.43l1.71 5.98q.15.53-.17.97l-4.86 6.63-1.21-3.2q.68-2.16-1.97-2.91.86-1.83 1.2-3.69c.31-1.69-.56-2.4-.89-3.86-.68-3.01-3.84-1.87-5.61-3.19q.78.1.79-.83l1.42.86a1.53 1.48 58.1 0 0 .88.22z"/><path fill="#fff" d="m288.68 86.19-.36 1.12q-.17.55-.39.02-.19-.46-.16-1.25.42.2.91.11M295.85 86.87l1.93.31-.81 4.53q-.21 1.18-.5.02-.43-1.68.44-3.54.04-.09-.04-.13l-.26-.14q-.15-.08-.24.07l-4.57 7.88q-.27.45-.21.97.4 3.4 1.53 7.07.21.68.69.16l1.84-1.97q.5-.54.49-1.28l-.04-4.89q-.01-.2.09-.37.22-.36.52-.25.26.1.27.38l.2 4.09q.03.76.56.21.53-.54 1.28-.84.81-.33.31.38l-2.34 3.3-4.38 2.53q-1.05-1.64-.66-3.68.11-.55-.23-1-.84-1.12-.84-2.47.01-.84-.53-.19l-5.11 6.15-.2-1.03 4.86-6.63q.32-.44.17-.97l-1.71-5.98q-.11-.4.29-.43l.3-.02q.23-.02.3.2l1.43 4.61q.4 1.27 1.06.12z"/><path d="m306.68 90.22-.7 2.78q-.12.48-.54.76-1.49.99-2.23 2.58-.35.76.28.21l1.89-1.64a.39.39 0 0 1 .64.24q.09.66.41 1.22.48.84.43-.13-.14-2.86 2.5-4.66l6.55 5.35-.35 1.17q-.15.48-.62.64-1.04.34-1.76 1.05l-6.13.16q.17-.75.03-1.46-.11-.6-.5-.13-.53.61-.5 1.87l-9.09 2.6 2.34-3.3q.5-.71-.31-.38-.75.3-1.28.84-.53.55-.56-.21l-.2-4.09q-.01-.28-.27-.38-.3-.11-.52.25-.1.17-.09.37l.04 4.89q.01.74-.49 1.28l-1.84 1.97q-.48.52-.69-.16-1.13-3.67-1.53-7.07-.06-.52.21-.97l4.57-7.88q.09-.15.24-.07l.26.14q.08.04.04.13-.87 1.86-.44 3.54.29 1.16.5-.02l.81-4.53zm-6.69 8.727a1.29.28 123.4 0 0 .944-.923 1.29.28 123.4 0 0 .476-1.231 1.29.28 123.4 0 0-.944.923 1.29.28 123.4 0 0-.476 1.231"/><path fill="#fff" d="M307.49 90.77q-.57.56-.27 1a.69.68 54.7 0 0 .97.17q.2-.15.24-.71l.93.35q-2.64 1.8-2.5 4.66.05.97-.43.13-.32-.56-.41-1.22a.39.39 0 0 0-.64-.24l-1.89 1.64q-.63.55-.28-.21.74-1.59 2.23-2.58.42-.28.54-.76l.7-2.78q.57.17.81.55"/><path d="M308.43 91.23q-.04.56-.24.71a.69.68 54.7 0 1-.97-.17q-.3-.44.27-1 .54.09.94.46"/><ellipse fill="#fff" rx="1.29" ry=".28" transform="rotate(123.4 124.001 129.89)"/><path fill="#fff" d="M281.86 97.03q2.65.75 1.97 2.91-3.65-1.76-1.97-2.91M315.91 96.93q2.03 1.26 2.31 3.38.06.5-.43.4l-4.61-.92q.72-.71 1.76-1.05.47-.16.62-.64z"/><path d="M292.61 105.36q-.56.45-1.66.85-.49.17-.11.52c1.71 1.55 5.63 1.8 7.88 2.09q-.39.38-.35.65.04.24.45.55-3.36-.77-6.62-1.45-2.25-.47-6.96-4.4l5.11-6.15q.54-.65.53.19 0 1.35.84 2.47.34.45.23 1-.39 2.04.66 3.68"/><path fill="#fff" d="m307.05 99.95-.97.28q-.03-1.26.5-1.87.39-.47.5.13.14.71-.03 1.46M298.72 108.82q.1.37.47.45-.19.39-.22.7-.08.03-.15.05-.41-.31-.45-.55-.04-.27.35-.65"/><path d="m301.54 110.04-.62 1.22-1.95-1.29q.03-.31.22-.7 1.16.12 2.35.77"/><path fill="#fff" d="m302.93 110.57-1.68 1.49q-.3-.44-.33-.8l.62-1.22q.88.04 1.39.53"/><path d="m307.58 112.54-6.32 6.23-.01-6.71 1.68-1.49z"/><path fill="#fff" d="M307.58 112.54q.23.13.47.27 0 .72-.45 1.46-.19.32.12.12l1.56-1.04q.39.16.73.58l-6.25 4.73a1.17 1.17 0 0 0-.34 1.44l.73 1.48q.39.79.92.09l1.4-1.8a.3.29-58.2 0 1 .37-.09l.25.12q.16.07.07.22l-1.54 2.78q-.3.53.07 1l2.28 2.92q.11.15-.03.27l-.33.31q-.05.04-.09 0-1.65-1.27-2.53-2.87a.48.47 46.1 0 0-.82-.02q-.89 1.49-2.12 3.08-.04.05-.09.02l-.35-.18q-.3-.16-.13-.45l2.19-3.53q.27-.42.02-.85l-1.16-2.01q-.22-.37-.65-.31-.25.04-.44.27-.4-.94-.18-1.78z"/><path d="m309.28 113.35-1.56 1.04q-.31.2-.12-.12.45-.74.45-1.46zM310.01 113.93l.96.4q-.89 1.72-2.99 4.16-.21.24-.01.49.35.46.74.03l2.2-2.49a.62.62 0 0 1 1.04.2q.68 1.84 2.27 3.19a.26.24-33 0 0 .23.04l.33-.12q.17-.07.09-.22l-2.16-3.83 4.87 3.84q-.78 1.3-1.81.91-.44-.17-.59.28l-.11.3q-.15.42-.47.72l-4.49 4.07q-1.17 1.07.18.23 2.48-1.54 4.96-3.68a.57.56-39.7 0 1 .8.07q2.62 3.13 5.81 5.33a.29.29 0 0 0 .41-.07l.24-.34q.03-.05-.01-.09-2.97-2.49-5.3-5.1-.38-.42 0-.83.53-.6 1.33-1.01 3.71 3.43 6.53 7.75.18.28.24.62l-1.05.14q-.59.07-.23.54.74.97 2.42 1.02 1.22 1.89-2.52.65c-3.2-1.05-8.67-.08-11.99.58q-.52-1.4-1.4-1.77-.59-.23-.41.37.22.76.98 1.49-1.27.55-2.29.61l-2.8-1.85q-.44-.29-.82.06l-5.56 5q-.53-2.57.6-2.76 2.28-.55 3.89-2.69.3-.41-.17-.6-1.72-.7-2.9-1.74l.39-7.28q.19-.23.44-.27.43-.06.65.31l1.16 2.01q.25.43-.02.85l-2.19 3.53q-.17.29.13.45l.35.18q.05.03.09-.02 1.23-1.59 2.12-3.08a.48.47 46.1 0 1 .82.02q.88 1.6 2.53 2.87.04.04.09 0l.33-.31q.14-.12.03-.27l-2.28-2.92q-.37-.47-.07-1l1.54-2.78q.09-.15-.07-.22l-.25-.12a.3.29-58.2 0 0-.37.09l-1.4 1.8q-.53.7-.92-.09l-.73-1.48a1.17 1.17 0 0 1 .34-1.44zm-2.09 14.34a.53.53 0 0 0 0 .66q.19.25.49.16.48-.15.48-.67a.41.4-81.3 0 0-.28-.39q-.41-.12-.69.24"/><path fill="#fff" d="m312.71 115.78 2.16 3.83q.08.15-.09.22l-.33.12a.26.24-33 0 1-.23-.04q-1.59-1.35-2.27-3.19a.62.62 0 0 0-1.04-.2l-2.2 2.49q-.39.43-.74-.03-.2-.25.01-.49 2.1-2.44 2.99-4.16.73.08 1.74 1.45M318.53 120.41q-.8.41-1.33 1.01-.38.41 0 .83 2.33 2.61 5.3 5.1.04.04.01.09l-.24.34a.29.29 0 0 1-.41.07q-3.19-2.2-5.81-5.33a.57.56-39.7 0 0-.8-.07q-2.48 2.14-4.96 3.68-1.35.84-.18-.23l4.49-4.07q.32-.3.47-.72l.11-.3q.15-.45.59-.28 1.03.39 1.81-.91zM300.23 132.86l.82-5.03q1.18 1.04 2.9 1.74.47.19.17.6-1.61 2.14-3.89 2.69M307.92 128.27q.28-.36.69-.24a.41.4-81.3 0 1 .28.39q0 .52-.48.67-.3.09-.49-.16a.53.53 0 0 1 0-.66M325.3 128.78q.53.41 1.14 1.7-1.68-.05-2.42-1.02-.36-.47.23-.54zM311.93 131.71q-.21.52-.83.09-.76-.73-.98-1.49-.18-.6.41-.37.88.37 1.4 1.77M308.81 132.41q-2.71.81-6.67 2.49-1.11.47-1.23 1.39l-1.21 1.73q-1.07-1.44-.07-2.4l5.56-5q.38-.35.82-.06z"/><path d="M300.91 136.29c-.07 1.82 1.38 2.31 1.85 3.68q-.5.03-.81.33l-2.25-2.28z"/><path fill="#fff" d="m302.76 139.97 1.25 5.1q-.1 2.96-1.63 5.73-.14.25-.25-.01-.08-.18.11-.28.16-3.42.52-6.89.09-.96-.15-1.71-.27-.84-.66-1.61.31-.3.81-.33"/><path d="m306.2 145.6-1.49 3.57q-.2.48.21.17l3.53-2.69q.46.23.81.6l-5.04 4a1.07 1.06 49 0 0-.1 1.57q3.28 3.4 5.3 7.73.08.18.28.22.06.01.11-.01.47-.11.56.39.57 3.3 1.71 6.6-1.2.29-3.01-.05l.75-5.41q.08-.55-.29-.96-.19-.21-.46-.27-.49-.1-.73-.55-1.82-3.52-4.38-6.35-.39-.43-.39.15l-.02 8.11a1.52 1.51-83.1 0 0 1.16 1.49q2.07.5 3.42 1.84.77.76-.29.52-1.72-.38-2.9-1.78-.37-.44-.95-.36l-.64.09a.78.76-21.7 0 1-.74-.31q-.71-1.01-.32-1.98.16-.4.17-.83l.19-7.32q.01-.2-.15-.33l-.22-.18q-.5-1.35-.04-2.76-.19.1-.11.28.11.26.25.01 1.53-2.77 1.63-5.73 1.01-.15 2.19.53m4.1 20.97q.23.35.33-.06.14-.5-.17-.95-.25-.38-.33.06-.1.52.17.95"/><path fill="#fff" d="m308.45 146.65-3.53 2.69q-.41.31-.21-.17l1.49-3.57zM310.56 147.96l-.29 9.4q-.02.58.23.05.69-1.46.79-3.64.19-4.09.05-5.54l1.98 1.44q-.47 1.05-.05 1.64.26.38.51-.01.29-.45.13-1.33.83.14 1.11.76-.59 2.49 1.13 3.65a2.27 2.17-88.8 0 1 .69.75q1.68 3.04 2.52 5.9a2.99 2.97 62.3 0 1-.96 3.12l-2.88 2.39q-1.34 1.11-1.5-.61l-.78-7.93q-.01-.19-.21-.19h-.31q-.15 0-.16.15-.32 4.92.97 9.64.07.25-.08.27-.14.02-.41-.03l-.96-.09q-1.14-3.3-1.71-6.6-.09-.5-.56-.39-.05.02-.11.01-.2-.04-.28-.22-2.02-4.33-5.3-7.73a1.07 1.06 49 0 1 .1-1.57l5.04-4q.7.08 1.3.71m2.38 6.87q-.12.25-.11.53.03.49.36.12.83-.93.24-2.05-.28-.54-.43.05-.07.32.01.65.1.36-.07.7"/><path d="M311.34 148.23q.14 1.45-.05 5.54-.1 2.18-.79 3.64-.25.53-.23-.05l.29-9.4q.36.03.78.27M313.91 149.97q.16.88-.13 1.33-.25.39-.51.01-.42-.59.05-1.64.48-.18.59.3M317.3 152.79q-.13.51-.07.97.08.53.58.34.19-.08.38-.23.56.26.86.87l-.61.14q-.55.12-.31.63l1.84 3.9q.27.58.57.01l.99-1.9.7.74q-.61 1.54-1.01 2.35-1.03 2.09.91.81.33-.22 1.66-.7l.5.75q-1.7.66-2.86 1.88-.32.33-.16.77.78 2.25.82 4.42a.34.34 0 0 1-.66.12q-.62-1.78-.89-3.76-.15-1.04-.58-.09-.63 1.39-.68 3.03-.01.32-.34.28l-.55-.08a.35.35 0 0 1-.28-.44l.31-1.15q.56-2.09-.91-.5-1.92 2.06-3.29 1.93l-1.18-.04q.27.05.41.03.15-.02.08-.27-1.29-4.72-.97-9.64.01-.15.16-.15h.31q.2 0 .21.19l.78 7.93q.16 1.72 1.5.61l2.88-2.39a2.99 2.97 62.3 0 0 .96-3.12q-.84-2.86-2.52-5.9a2.27 2.17-88.8 0 0-.69-.75q-1.72-1.16-1.13-3.65z"/><path fill="#fff" d="M318.19 153.87q-.19.15-.38.23-.5.19-.58-.34-.06-.46.07-.97.58.5.89 1.08M309.07 167.7q-2.18-.47-4.88-.15 0-.95-.37-1.53-.34-.53-.61.03-.28.59-.15 1.52-.24-.07-.47-.03-.64.11-.64.76.02 1.74-.51 3.29-.25.72.4 1.14l4.65 3-1.03 1.38q-.42.56.25.76.35.11.77.12.79.02.89-.65.06-.43-.1-1.14 4.69 5.32 6.57 12.11-.21.41-.36.85-.13.36.03.57.18.22.58.32 1.08 3.17.32 7.22l-6.29.73q-1.65-.15-2.55-1.06l-.81-1.92q-.17-.42.1-.79l3.44-4.61q.33-.44-.14-.74l-.27-.17q-.09-.05-.15.03l-3.12 4.17q-.45.59-.92.01-1.13-1.38-.59-2.99.19-.58-.39-.39l-.71.24q-.56.18-.64.77-.26 2.11-1.62 3.99-.33.45-.8.15-.5-.31-.79-.91l.18-3.38q.49-1.23 1.79-2.36.55-.48.74.23.14.5.66.45.8-.08.27-.68c-.7-.78-1.01-1.73-.47-2.7q1.72-3.07 3.77-5.75.16-.21-.04-.39l-.24-.2q-.23-.2-.43.03-3.45 4.11-5.63 8.92l.37-2.98q.07-.66.48-.88.41-.21.4-.67-.03-1.02-.58-2.14l2.26-18.05.01-.94.4-4.83.03-1.17.15-3.02.22.18q.16.13.15.33l-.19 7.32q-.01.43-.17.83-.39.97.32 1.98a.78.76-21.7 0 0 .74.31l.64-.09q.58-.08.95.36 1.18 1.4 2.9 1.78 1.06.24.29-.52-1.35-1.34-3.42-1.84a1.52 1.51-83.1 0 1-1.16-1.49l.02-8.11q0-.58.39-.15 2.56 2.83 4.38 6.35.24.45.73.55.27.06.46.27.37.41.29.96zm.26 15.96q.13 1.93-.99 3.75-.6.98.38.38 1.75-1.07 1.27-2.86-.18-.7.29-1.25.43-.5.59-1.13.2-.8-.35-.19zq-.28-2.68-1.44-4.3a1.2 1.2 0 0 0-2.11.3l-2.94 8.32q-.07.2.13.28l.49.17q.19.07.26-.12l2.74-7.47q.61-1.66 1.1.04.33 1.16 1.77 2.78m3.56 4q.02-.22-.18-.24-.25-.02-.19.23.03.14.18.15.17.02.19-.14"/><path d="M313.01 154.13q-.08-.33-.01-.65.15-.59.43-.05.59 1.12-.24 2.05-.33.37-.36-.12-.01-.28.11-.53.17-.34.07-.7"/><path fill="#fff" d="m319.05 154.74 2.48 2.78-.99 1.9q-.3.57-.57-.01l-1.84-3.9q-.24-.51.31-.63z"/><path d="m302.13 156.29-.03 1.17z"/><path fill="#fff" d="m322.23 158.26 1.56 2.46q-1.33.48-1.66.7-1.94 1.28-.91-.81.4-.81 1.01-2.35M324.29 161.47q2.62 4.79 2.58 10.12a.43.43 0 0 1-.63.38q-3.7-1.95-7.79-2.76-2.17-.42-4.23-1.33 1.37.13 3.29-1.93 1.47-1.59.91.5l-.31 1.15a.35.35 0 0 0 .28.44l.55.08q.33.04.34-.28.05-1.64.68-3.03.43-.95.58.09.27 1.98.89 3.76a.34.34 0 0 0 .66-.12q-.04-2.17-.82-4.42-.16-.44.16-.77 1.16-1.22 2.86-1.88"/><path d="m301.7 162.29-.01.94q-.18-.42.01-.94"/><path fill="#fff" d="M310.3 166.57q-.27-.43-.17-.95.08-.44.33-.06.31.45.17.95-.1.41-.33.06"/><path d="M304.19 167.55q-.66.34-1.13.02-.13-.93.15-1.52.27-.56.61-.03.37.58.37 1.53M307.27 176.2q.16.71.1 1.14-.1.67-.89.65-.42-.01-.77-.12-.67-.2-.25-.76l1.03-1.38q.41.01.78.47M309.33 183.66q-1.44-1.62-1.77-2.78-.49-1.7-1.1-.04l-2.74 7.47q-.07.19-.26.12l-.49-.17q-.2-.08-.13-.28l2.94-8.32a1.2 1.2 0 0 1 2.11-.3q1.16 1.62 1.44 4.3M298.34 190.4q-.1-1.23.42-2.45 2.18-4.81 5.63-8.92.2-.23.43-.03l.24.2q.2.18.04.39-2.05 2.68-3.77 5.75c-.54.97-.23 1.92.47 2.7q.53.6-.27.68-.52.05-.66-.45-.19-.71-.74-.23-1.3 1.13-1.79 2.36M299.43 181.28q.55 1.12.58 2.14.01.46-.4.67-.41.22-.48.88-.35-1.99.3-3.69"/><path d="m309.33 183.66 1.19-1.3q.55-.61.35.19-.16.63-.59 1.13-.47.55-.29 1.25.48 1.79-1.27 2.86-.98.6-.38-.38 1.12-1.82.99-3.75M312.7 187.8q-.15-.01-.18-.15-.06-.25.19-.23.2.02.18.24-.02.16-.19.14M314.09 190.05q-.4-.1-.58-.32-.16-.21-.03-.57.15-.44.36-.85zM305.57 196.94q-.93.11-1.52-.35.34-.48-.3-.81-.61-.31-1.01.51l-1.8-.49q.85-.09 1.45-.54.72-.55.52-1.33-.12-.45-.25-.88-.24-.77-.76-.17-1.1 1.25-.96 2.92l-2.1.16q-.38-.75-.89-.45l.21-1.73q.29.6.79.91.47.3.8-.15 1.36-1.88 1.62-3.99.08-.59.64-.77l.71-.24q.58-.19.39.39-.54 1.61.59 2.99.47.58.92-.01l3.12-4.17q.06-.08.15-.03l.27.17q.47.3.14.74l-3.44 4.61q-.27.37-.1.79z"/><path fill="#fff" d="M300.94 195.8q-.14-1.67.96-2.92.52-.6.76.17.13.43.25.88.2.78-.52 1.33-.6.45-1.45.54M298.84 195.96l-.37 2.3q-.55.44-1 .19-.19-1.58.48-2.94.51-.3.89.45M304.05 196.59l-1.31-.3q.4-.82 1.01-.51.64.33.3.81"/><path d="M314.41 197.27q.59.68-.22 1.56-1.09.3-1.18 1.65-.6-.3-.97-.74l.18-.56q.16-.47-.31-.62-1.28-.38-2.24.31-.83-.08-1.55-.87zM298.47 198.26q-.59 1.84-.51 3.51-.52.23-.92.02-.25-1.9.43-3.34.45.25 1-.19"/><path fill="#fff" d="m312.04 199.74-2.37-.87q.96-.69 2.24-.31.47.15.31.62zM314.19 198.83q-.26 2.25-1.18 1.65.09-1.35 1.18-1.65M297.96 201.77q2.59 2.34 4.06 5.44-.96-.92-1.83-1.09-.62-.12-.19.35l.62.69q.34.37.5.84.36 1.02 1.88 1.24v.71q-.45-.47-.97-.22-3.51 1.68-6.17 4.65-.33.37-.79.21-.49-.17-1.04-.05-.19.05-.05.19l.3.3q.35.35-.05.65-1.1.81-1.41 2.19.19-3.04 1.48-5.55l6.22-2.33a.61.6 56.3 0 0 .2-1.01q-.28-.26-.64-.41-.46-.19-.96-.13l-4.06.54 1.03-3.73q.81.61 1.65.83.58.15.29-.36-.5-.91-1.68-1.46.19-1.45.69-2.47.4.21.92-.02"/><path d="M296.09 205.25q.05-.54.26-.99 1.18.55 1.68 1.46.29.51-.29.36-.84-.22-1.65-.83M302.02 207.21q.94.99.98 2.03-1.52-.22-1.88-1.24-.16-.47-.5-.84l-.62-.69q-.43-.47.19-.35.87.17 1.83 1.09M294.3 212.32q-.1-.35-.03-.99 2.17-.6 4.21-1.49.2-.09.1-.28h-.01q-.09-.19-.28-.09-1.64.92-3.5.49.06-.55.27-.98l4.06-.54q.5-.06.96.13.36.15.64.41a.61.6 56.3 0 1-.2 1.01z"/><path fill="#fff" d="M294.27 211.33q.31-.4.52-1.37 1.86.43 3.5-.49.19-.1.28.09h.01q.1.19-.1.28-2.04.89-4.21 1.49"/><path d="m303 209.95-6.11 4.77q-.7.55.13.87l3.55 1.38q.49.19.52.72.08 1.41-1.59 1.5a.18.18 0 0 0-.03.36q2.14.5 2.7-1.22.14-.43.6-.45l2.18-.06-.01 1.47-4.42 1.58a1.23 1.22-41.3 0 1-.99-.06q-.87-.43-1.58-1.25-.72-.83.38-.71.77.08 1.29-.39.63-.57-.17-.88l-3.27-1.26q-1.01-.38-1.31.65l-.34 1.14q-.17.57.28.96.34.3.78.31.83.01.56.8l-.2.58-2.45-1.11a.4.4 0 0 0-.56.32l-.73 7.51q-.62-.13-.9 0-.8-4.83.9-8.42.7-.4.37-.85.09-.56.24-.34.31-1.38 1.41-2.19.4-.3.05-.65l-.3-.3q-.14-.14.05-.19.55-.12 1.04.05.46.16.79-.21 2.66-2.97 6.17-4.65.52-.25.97.22"/><path fill="#fff" d="m304.95 217.82-2.18.06q-.46.02-.6.45-.56 1.72-2.7 1.22a.18.18 0 0 1 .03-.36q1.67-.09 1.59-1.5-.03-.53-.52-.72l-3.55-1.38q-.83-.32-.13-.87l6.11-4.77c1 .93 1.39 4.74 1.95 7.87"/><path fill="#fff" d="m304.94 219.29-.02.66q-.92.02-1.57.91-1.19 1.63-2.3 3.5l-3.01-2.48q-.27-.66-1.03-.62l-1.06-.5.2-.58q.27-.79-.56-.8-.44-.01-.78-.31-.45-.39-.28-.96l.34-1.14q.3-1.03 1.31-.65l3.27 1.26q.8.31.17.88-.52.47-1.29.39-1.1-.12-.38.71.71.82 1.58 1.25a1.23 1.22-41.3 0 0 .99.06zM292.21 219.06l.37-.85q.33.45-.37.85"/><path d="m304.92 219.95.04.8q-1.99 1.89-3.19 4.56-.65-.51-.72-.95 1.11-1.87 2.3-3.5.65-.89 1.57-.91"/><path fill="#fff" d="m304.96 220.75-.26 5.3q-.14 2.83-1.89.59l-1.04-1.33q1.2-2.67 3.19-4.56"/><path d="M298.04 221.88q-.63.06-1.03-.62.76-.04 1.03.62"/><path fill="#fff" d="M292.21 227.48q3.13 5.56 3.15 12.32-1.5-3.74-2.48-9.19-.17-.98-1.7-1.22-.11-1.21.13-1.91.28-.13.9 0"/><path d="M291.18 229.39q1.53.24 1.7 1.22.98 5.45 2.48 9.19 1 1.14.11 3.5-3.07-6.39-4.12-9.43-.52-1.5.06-3.69.01-.05-.04-.04l-.25.07z"/><path fill="#fff" d="M295.47 243.3q.01 2.24-.52 3.82-.85 2.54-1.79.03-1.07-2.85-3.33-5.54a.4.4 0 0 0-.7.15l-.97 3.78q-.45.07-.94-.07.42-2.31 1.96-6.53 1.16-3.18 1.94-8.73l.25-.07q.05-.01.04.04-.58 2.19-.06 3.69 1.05 3.04 4.12 9.43"/><path d="M287.22 245.47q.49.14.94.07-.04.34.03.65.06.26.33.55 1.3 1.41 1.65 3.02-1.18-.15-1.84 1.28-.25.55-.29-.05-.04-.48.3-.79.42-.41.26-.98-.13-.44-.59-.56-.53-.13-.81-.59l-.48-.8q.09-.93.5-1.8"/><path fill="#fff" d="m286.72 247.27.48.8q.28.46.81.59.46.12.59.56.16.57-.26.98-.34.31-.3.79.04.6.29.05.66-1.43 1.84-1.28 1.13 2.85.6 5.55a.42.42 0 0 1-.66.25c-1.63-1.21-5.31-6.18-3.39-8.29"/></svg>