<svg xmlns="http://www.w3.org/2000/svg" viewBox="0 0 382 382"><g fill="none" stroke="gray" stroke-width="2"><path d="M247.54 60.07q1.29 4.76.42 9.92M246.26 74.04l.06.4q.06.45.49.33l.42-.12M264.83 69.66q-.47 6.35-4.24 11.18-1.27 1.62-3.75 3.85M236.06 74.43q-2.18-5.45-.2-11.43.15-.48-.33-1.99M236.63 60.77q.01 1.02.91 1.18a.54.53-66.4 0 1 .33.85q-1.56 2.08-.87 4.63.14.51.61.74.29.15.3.57a.6.59-25.5 0 1-.15.42q-.95 1.11-1.15 2.77-.08.65.33.14 3.26-4.12 2.03-8.96-.14-.53-.54-.91-.75-.72.15-1.83M227.37 73.36l-.67-9.07M248.7 60.1q.99 4.62.39 9.08M226.26 72.84l-.25-8.21" vector-effect="non-scaling-stroke"/><path d="M258.16 84.93q.85-1.12 1.87-2.15 5.43-5.54 5.63-13.35M263.26 84.89l3.43-8.04q.2-.46.54-.84c.48-.54.66-.87.67-1.62q.03-2.87.22-5.68M216.93 61.33l-.17 5.88M217.01 68.83l-.28 1.81M216.25 70.87l-1.18-.08M215.07 70.79q-.49-4.84.49-9.48M272.49 68q-.03 6.22 2.34 11.95M278.72 86.29q-.01.16.07.26t-.05.13l-.45.08" vector-effect="non-scaling-stroke"/><path d="M264.69 84.78c.97-2.49 2.06-4.58 2.64-7.34q.34-1.59 1.04-3.05.66-1.38.74-5.87M201.64 70.67q-2.87-3.51-2.16-7.67M201.88 62.24l2.84 7.86q.09.24.32.16l.26-.08a.25.25 0 0 0 .17-.32l-2.58-7.84M200.95 70.73q-.33-.24-.65.01M199.79 70.81q-.45.05-.69 0-.57-.14-.11-.5l.6-.46q.06-.04.04-.12-.05-.2-.21-.29-.36-.24-.31.19.02.16-.11.27-.3.26-.36-.13-.27-1.59-.66-3.16-.03-.14-.12-.25-.12-.15-.31-.1-.47.12-.45.61l.1 4.36M195.9 71.73l.11-7.76M196.94 63.83q.39.67 1.04 1.23.4.35.46-.18.08-.91-.1-1.58M282.46 68.08q-.05 3.52 1.14 6.44M275.83 79.31q-1.54-1.63-1.73-3.59-.36-3.72-.68-7.88M291.49 86.33l-3.29 6.99a.46.46 0 0 1-.79.07q-.39-.58-1.14-.49-.87.1-.04.38.7.23.98.8.23.48-.07.91l-3.42 4.82M281.13 87.46q-.95-.64-.67-.88M187.19 74.47q.03-1.33-.33-2.31M192.96 66q.39.52.5-.22M283.36 68.26q.07 2.92 1.32 5.73M292.57 86.34l-3.39 7.32q-.34.73.4 1.04l1.5.64a.3.29-76.7 0 1 .18.3l-.02.27q-.03.36-.39.31-1.06-.14-1.86-.81-.47-.39-.84.11l-3.84 5.24M284.9 68.54q-.49 2.18-.12 4.4a.44.43 83.2 0 0 .45.36q.23 0 .29-.3.41-1.91.02-4.38M294.53 86.54l1.2.18M295.73 86.72q.29 1.25 1.82 1.5 1.56.25 1.75-.93M300.16 87.82q-.22.46.56 1.15.47.42.21.99l-3.13 6.86q-.26.56-.86.42l-3.48-.85q-.29-.07-.4.21l-.11.3q-.1.28.17.36l3.23.95q.46.13.21.55l-3.99 6.55M290.59 106.87q-.16.03-.24.18a.41.39 16.5 0 0 .32.57q.63.07.79-.22M310.82 114.19q-1.75.71-2.01 2.03-.11.53-.65.59-2.71.32-4.95 2.5a1.77 1.76 50.8 0 0-.22 2.26q.77 1.11 1.92 1.34c1.65.32 3.11 1.29 4.67 1.87a.93.92 21.9 0 0 1.16-.49l2.72-6.09q.3-.66-.43-.74l-2.58-.3q-.74-.09-.28-.67.27-.33.68-.41.37-.07.64.19.24.23.53.12a.16.15 37.4 0 0-.04-.3q-.57-.05-.65-.58-.12-.79.35-.8M315.22 117.49l-2.78 5.23a.23.23 0 0 0 .33.3l5.04-3.16" vector-effect="non-scaling-stroke"/><path d="m318.48 120.22-5.83 4.15q-.45.32-.7.81-1.29 2.52-2.05 5.65-.06.27-.33.21l-.32-.07q-.21-.04-.16-.25l.95-3.77a.79.78-68.8 0 0-.39-.9c-1.83-.97-3.27-1.6-5.33-2.84q-1.32-.79-3.04-.72M302.57 88.41l-3.78 8.55q-.2.46.28.59 1.19.33 1.97.27 3.02-.26.66 1.63-.59.46-.87 2.08" vector-effect="non-scaling-stroke"/><path d="m299.72 101.74 1.1-2.34q.28-.6-.38-.66l-1.9-.16a.98.97-70.9 0 0-.9.44l-3.54 5.45M325.02 128.01l-3.42 1.17q-.49.17-.69.64l-.39.94M304.54 133.92l-.92-1.12q-.32-.38.05-.72l4.93-4.55q.2-.18.02-.39l-.27-.32q-.05-.05-.1-.01-3.13 2.11-5.41 4.85-.32.39-.81.44-.85.09-1.82-.38M304.81 89.44l-2.57 6.95q-.07.18.09.29l.25.17q.27.19.38-.12l2.58-7M314.55 95.62q-.33.34-.33.65.01.4.41.44.34.03.64-.23M303.54 134.24l-.74-.31q-.51-.21-.86.22-.29.36-.44.84M300.78 136.02q-.6.64-1.62 1.06M300.12 134.26q.47.04.75-.34.34-.46-.05-.89-.31-.35-.8-.03M325.72 129.13l-1.29 1.93M323.54 130.91l-.1-1.3q-.04-.56-.45-.17l-1.32 1.23M303.81 144.32q-.23-.01-.34.06-.12.08-.01.25.16.25.48.25M304.34 144.98q-.52.46-.77.94c-.52.96.22 1.81-1.04 2.65M308.9 146.81l-6.69 4.69M309.96 147.45q.36 1.2.21 2.2-.06.44-.43.7l-2.29 1.59q-.48.34-.05.73l.21.19q.11.1.22.02l2.54-1.73q.3-.21.5.1 1.54 2.38-1.43 3.98-1.06.56.14.55 1.74-.03 3.05-.54.66-.26.54-.95-.35-2.02 1.33-3.84M318.1 153.81q-3.12-.04-4.99 2.38-.52.66.24 1.01.24.11.48.27.12.08.11.23t-.18.26q-.14.1-.31.05c-1.53-.43-2.65-.25-3.94.7q-3.79 2.79-7.98 5.14M301.7 162.65l7.43-5.07q.89-.61-.19-.72-.66-.07-1.24.23c-1.52.78-3.33 2.01-4.59 3.4q-.51.55-1.28.48" vector-effect="non-scaling-stroke"/><path d="M302.09 159.99q1.93-.84 3.31-2.73.45-.63-.31-.48-1.24.25-1.82-.57-.38-.52.26-.52c1.21-.01 2.93.6 4-.07q.86-.55.97-1.77.05-.61-.39-.19-.66.64-1.24-.14-.34-.45-.89-.45l-3.6.01M320.29 155.78q-.03.78-.37.8-.1.01-.15.03-1.69.65-3.4 1.66-.42.24-.26.7.67 2 2.35 3.07.81.51.23-.24-.85-1.1-1.82-2.11-.15-.16-.17-.37-.03-.22.12-.31.45-.27.91-.09 2.78 1.12 5.43.91M326.8 169.88q-1.85.24-1.72 1.4M319.24 169.21l2.82-2.06a.88.88 0 0 1 1.29.28q.51.91 1.33 1.38.8.45.27-.3l-.91-1.29a.66.66 0 0 1 .09-.86q.53-.5 1.32-.69.65-.16.07-.48-.23-.13-.47-.06-1.61.45-3.04 1.74-.05.04-.11.05-1.97.35-2.99 2.14M304.67 167.58q-.72-.66-1.65-.02M301.7 168.36q-.33.68-.56.43M311.23 148.37q.01.53.54.34M301.71 170.03q-.38-.46-.59-.32" vector-effect="non-scaling-stroke"/><path d="M320.98 156.71q-1 .14-1.75.92-.38.38.09.65 1.34.75 2.97.53M310.47 180.69l-5.52 3.11q-.48.27-.85-.14l-.98-1.1q-.43-.46.03-.9.86-.81 1.57-1.61 1.68-1.88-.55-.68-.48.26-.8.72-1.13 1.63-1.37-.33-.04-.36-.33-.5-.37-.19-.76-.05-.78.27-1.18-.25M300.04 178.27q.33-.09.55-.29.45-.4.06-.86-.19-.22-.56-.38M310.94 181.56l-5.6 3.08q-.49.27-.3.79l.12.34a.66.66 0 0 0 .85.4q1.66-.6 3.17-1.88a1.45 1.45 0 0 1 1.02-.35q1.09.04 1.5-.98" vector-effect="non-scaling-stroke"/><path d="M312.04 183.51q-2.06.99-3.6 2.6-.46.48.19.59 2.45.41 4.93 1.33.07.03.12-.03.08-.1.16-.19M313.89 189.05l-6.84-1.67q-.67-.16-.37.46 1.01 2.14-.64 3.6a.74.74 0 0 1-.94.03q-2.07-1.6-3.13-3.79a1.12 1.09 55.8 0 0-1.74-.35q-.41.38-1.45.43M298.8 187.07q1.38-1.16.28-2.15M314.53 192.94q-2.02 1-3.61 2.42-.15.14-.11.33.03.16.15.28.15.16.33.04l3.26-2.1" vector-effect="non-scaling-stroke"/><path d="M312.02 199.65q.21-.69 1.05-.4.93.32.38-.5-.2-.29-.54-.39-1.24-.34-2.2-1.3c-1.24-1.25-2.94-2.23-4.37-3.29q-.88-.65-.4.34l.8 1.69q.09.19-.07.32l-.21.18q-.16.12-.29-.03l-1.33-1.61q-.44-.53-.75.08-.38.73-1.14 1.11-.46.23-.77-.17-.95-1.21-1.38-2.47-.77-2.26.86-.51.3.33.6 1.56.17.72.73.23l.77-.67q.57-.5.19-1.15-1.1-1.87-3.1-3.64-.58-.52-.55.26.03.53.25 1 .36.77-.42.42-.86-.38-1.39-2.04M298.12 199.25q-.11-.8-.77-.45M299.29 203.4q.03 1.22-.35 1.68-.38.48-.55-.11-1-3.41-1.86-1.32M303.6 211.23q-2.44.98-3.29-1.99-.26-.89-.6-1.8-.31-.84-.75-.06-.2.35-.57.53-.5.25-.16.7.84 1.13 1.05 2.61.12.83-.56.34l-3.61-2.59M296 205.85q.81-.3.46-1.87M303.71 211.71q-.68.3-.7.98-.01.48.47.93.47.45.99.86M304.69 216.02l-5.93 6.47M296.97 221.31q.77-2.72 2.43-4.75.46-.56.04-1.16-.4-.55-.29-1.22a1.34 1.33-67.5 0 0-.53-1.29l-3.97-2.89M296.15 220.82q-1.14-2.25-3.23-3.98M293.75 219.44l-1.14-1.69M292.94 229.62l-1.89 2.48M293.85 231.04l-2.49 5.64q-.22.5-.39-.02l-.88-2.6M295.43 242.58l-3.39 2.19M290.14 241.82q1.19-1.55 1.03-3.46-.04-.55-.37-.1-.98 1.33-1.33 3.12M288.28 246.8q-.57.34-.85.77-.28.44.05.85.8.98.61 2.43-.12.97.41.16.73-1.09.74-3.18M295.43 243.66l-3.05 1.87M193.91 67.54q-.07 1.19.24 2.11.25.73.29-.04.06-1.09-.25-2.1-.24-.79-.28.03M284.21 92.25q0 .38.29.59a.26.26 0 0 0 .41-.2q.02-.38-.37-.59-.32-.18-.33.2M312.972 96.524a1.95.5-22.5 0 0-1.993.284 1.95.5-22.5 0 0-1.61 1.208 1.95.5-22.5 0 0 1.992-.284 1.95.5-22.5 0 0 1.61-1.208M308.607 97.785a2.06.51-10.2 0 0-2.117-.137 2.06.51-10.2 0 0-1.937.867 2.06.51-10.2 0 0 2.117.137 2.06.51-10.2 0 0 1.937-.867M313.46 126.55q-.55-.34-1.18-.41-.46-.05-.1.25.48.39 1.14.52 1.06.2.14-.36M319.52 128.456a1.59.28 8.9 0 0-1.527-.523 1.59.28 8.9 0 0-1.614.031 1.59.28 8.9 0 0 1.528.523 1.59.28 8.9 0 0 1.614-.031M305.58 147.96q.35-.22.57-.59.36-.6-.34-.47-1.45.26-1.81 1.59-.2.75.47.36c.42-.24.69-.62 1.11-.89M310 156.72q-.05.02-.06.07-.05.23.18.21.29-.03.32-.34.03-.24-.21-.24-.24-.01-.17.16.04.1-.06.14M311.93 150.71l.3.75q.27.69.59.02.23-.48.28-1.07a.5.49-81.5 0 0-.39-.53q-.14-.03-.28-.01a.61.61 0 0 0-.5.84M314.892 159.447a.42.42 0 0 0-.584-.107l-6.256 4.316a.42.42 0 0 0-.107.584l.023.033a.42.42 0 0 0 .584.107l6.256-4.316a.42.42 0 0 0 .107-.584l-.023-.033M321.942 165.605a1.65.4 49.5 0 0-.768-1.515 1.65.4 49.5 0 0-1.376-.995 1.65.4 49.5 0 0 .768 1.515 1.65.4 49.5 0 0 1.376.995M305.73 165.53q.54.23.92-.4-.58-.09-.92.4M309.11 193.47q-.2-1.36-1.47-2.15a.44.44 0 0 0-.63.19l-.28.6q-.23.48.19.82 1.08.87 2.19 1.75.92.73.5-.37-.05-.13-.16-.23-.29-.24-.34-.61M296.94 206.35q.09.37.31.68a.24.23-56.4 0 0 .42-.09q.11-.53-.37-.85a.24.24 0 0 0-.36.26" vector-effect="non-scaling-stroke"/><path d="M300.14 212.24q.11.5.6.73a.37.36-73.9 0 0 .52-.29q.07-.67-.6-.9a.4.4 0 0 0-.52.46M300.64 215.52l-1.47 4.35q-.44 1.33.46.26l3.25-3.85q.44-.54-.11-.96-.43-.34-1-.27-.58.07-.81-.47-.12-.31-.47-.21-.16.05-.14.22t.14.29q.27.27.15.64" vector-effect="non-scaling-stroke"/></g><path fill="#fff" d="M247.54 60.07q1.29 4.76.42 9.92l-3.24 2.2q-.47.32-.02.66l1.56 1.19.06.4q.06.45.49.33l.42-.12q1.08 1.12 2.39 1.57.48.16.89-.13 6.64-4.66 14.32-6.43-.47 6.35-4.24 11.18-1.27 1.62-3.75 3.85-2.52-2.78-5.6-5.43c-.84-.71-1.16-1.92-2.12-2.43-2.26-1.19-5.86-3.66-8.41-3.09q-2.47.56-4.65.69-2.18-5.45-.2-11.43.15-.48-.33-1.99l1.1-.24q.01 1.02.91 1.18a.54.53-66.4 0 1 .33.85q-1.56 2.08-.87 4.63.14.51.61.74.29.15.3.57a.6.59-25.5 0 1-.15.42q-.95 1.11-1.15 2.77-.08.65.33.14 3.26-4.12 2.03-8.96-.14-.53-.54-.91-.75-.72.15-1.83z"/><path d="M248.7 60.1q.99 4.62.39 9.08-.33.57-1.13.81.87-5.16-.42-9.92z"/><path fill="#fff" d="M249.09 69.18q.6-4.46-.39-9.08 7.54.07 14.12 3.22a.61.61 0 0 1 .07 1.05q-.42.28-1.12.41-6.74 1.2-12.68 4.4"/><path d="M238.58 60.37q-.9 1.11-.15 1.83.4.38.54.91 1.23 4.84-2.03 8.96-.41.51-.33-.14.2-1.66 1.15-2.77a.6.59-25.5 0 0 .15-.42q-.01-.42-.3-.57-.47-.23-.61-.74-.69-2.55.87-4.63a.54.53-66.4 0 0-.33-.85q-.9-.16-.91-1.18.58-.57 1.95-.4"/><path fill="#fff" d="m216.93 61.33-.17 5.88-.86.89q-.42.43.15.61.43.14.96.12l-.28 1.81q-.09.17-.48.23l-1.18-.08q-.49-4.84.49-9.48.66-.43 1.37.02"/><path d="M235.53 61.01q.48 1.51.33 1.99-1.98 5.98.2 11.43-5.55 1.52-8.69-1.07l-.67-9.07zM215.56 61.31q-.98 4.64-.49 9.48-1.73-.94-3.07-.56-5.55 1.6-10.36.44-2.87-3.51-2.16-7.67l2.4-.76 2.84 7.86q.09.24.32.16l.26-.08a.25.25 0 0 0 .17-.32l-2.58-7.84q6.26-1.11 12.67-.71M216.76 67.21l.17-5.88q4.35.07 7.71.5 2.25.29.12 1.07-4.01 1.48-8 4.31"/><path fill="#fff" d="m202.89 62.02 2.58 7.84a.25.25 0 0 1-.17.32l-.26.08q-.23.08-.32-.16l-2.84-7.86q.56-.23 1.01-.22M199.48 63q-.71 4.16 2.16 7.67l-.69.06q-.33-.24-.65.01l-.51.07q-.45.05-.69 0-.57-.14-.11-.5l.6-.46q.06-.04.04-.12-.05-.2-.21-.29-.36-.24-.31.19.02.16-.11.27-.3.26-.36-.13-.27-1.59-.66-3.16-.03-.14-.12-.25-.12-.15-.31-.1-.47.12-.45.61l.1 4.36-1.3.5.11-7.76q.49-.26.93-.14.39.67 1.04 1.23.4.35.46-.18.08-.91-.1-1.58.37-.26 1.14-.3"/><path d="M198.34 63.3q.18.67.1 1.58-.06.53-.46.18-.65-.56-1.04-1.23.62-.47 1.4-.53M196.01 63.97l-.11 7.76-8.71 2.74q.03-1.33-.33-2.31l6.1-6.16q.39.52.5-.22zm-2.1 3.57q-.07 1.19.24 2.11.25.73.29-.04.06-1.09-.25-2.1-.24-.79-.28.03"/><path fill="#fff" d="m226.7 64.29.67 9.07-1.11-.52-.25-8.21z"/><path d="m226.01 64.63.25 8.21q-2.83-1.95-3.8-1.98-2.88-.1-5.73-.22l.28-1.81 3.15.25q.5.04.88-.29z"/><path fill="#fff" d="M193.46 65.78q-.11.74-.5.22.23-.26.5-.22"/><path d="m199.79 70.81-2.59.42-.1-4.36q-.02-.49.45-.61.19-.05.31.1.09.11.12.25.39 1.57.66 3.16.06.39.36.13.13-.11.11-.27-.05-.43.31-.19.16.09.21.29.02.08-.04.12l-.6.46q-.46.36.11.5.24.05.69 0"/><path fill="#fff" d="M194.19 67.51q.31 1.01.25 2.1-.04.77-.29.04-.31-.92-.24-2.11.04-.82.28-.03M282.46 68.08q-.05 3.52 1.14 6.44l-7.77 4.79q-1.54-1.63-1.73-3.59-.36-3.72-.68-7.88z"/><path fill="#fff" d="M272.49 68q-.03 6.22 2.34 11.95L272 82.44q-1.37 1.2.36 1.77l6.36 2.08q-.01.16.07.26t-.05.13l-.45.08q-4.16-1.37-8.54-2.13c-1.68-.3-3.29.08-5.06.15.97-2.49 2.06-4.58 2.64-7.34q.34-1.59 1.04-3.05.66-1.38.74-5.87z"/><path d="M273.42 67.84q.32 4.16.68 7.88.19 1.96 1.73 3.59-.54.56-1 .64-2.37-5.73-2.34-11.95.64.07.93-.16M283.36 68.26q.07 2.92 1.32 5.73l-1.08.53q-1.19-2.92-1.14-6.44z"/><path fill="#fff" d="M284.9 68.54q-.49 2.18-.12 4.4a.44.43 83.2 0 0 .45.36q.23 0 .29-.3.41-1.91.02-4.38 3.25.26 6.38 1.71a.51.5-42.6 0 1-.04.93l-7.2 2.73q-1.25-2.81-1.32-5.73z"/><path d="M269.11 68.52q-.08 4.49-.74 5.87-.7 1.46-1.04 3.05c-.58 2.76-1.67 4.85-2.64 7.34q-.54.26-1.43.11l3.43-8.04q.2-.46.54-.84c.48-.54.66-.87.67-1.62q.03-2.87.22-5.68.17-.36.99-.19M285.54 68.62q.39 2.47-.02 4.38-.06.3-.29.3a.44.43 83.2 0 1-.45-.36q-.37-2.22.12-4.4.42-.13.64.08"/><path fill="#fff" d="M268.12 68.71q-.19 2.81-.22 5.68c-.01.75-.19 1.08-.67 1.62q-.34.38-.54.84l-3.43 8.04-5.1.04q.85-1.12 1.87-2.15 5.43-5.54 5.63-13.35z"/><path d="M265.66 69.43q-.2 7.81-5.63 13.35-1.02 1.03-1.87 2.15-.55.17-1.32-.24 2.48-2.23 3.75-3.85 3.77-4.83 4.24-11.18.37-.21.83-.23M200.95 70.73q-.32.09-.65.01.32-.25.65-.01M216.25 70.87q-.56.09-1.18-.08z"/><path fill="#fff" d="M186.86 72.16q.36.98.33 2.31-.68.4-1.16.07-.46-.31-.33-.85.2-.83 1.16-1.53"/><path d="m247.23 74.65-.42.12q-.43.12-.49-.33l-.06-.4q.57.09.97.61"/><path fill="#fff" d="m291.49 86.33-3.29 6.99a.46.46 0 0 1-.79.07q-.39-.58-1.14-.49-.87.1-.04.38.7.23.98.8.23.48-.07.91l-3.42 4.82q-1.26-.47-2.09-1.4-.33-.38-.07-.81 3.24-5.21-.43-10.14-.95-.64-.67-.88zm-7.28 5.92q0 .38.29.59a.26.26 0 0 0 .41-.2q.02-.38-.37-.59-.32-.18-.33.2"/><path d="M280.46 86.58q-.28.24.67.88-1.58-.08-2.84-.7l.45-.08q.13-.03.05-.13t-.07-.26q.94 0 1.74.29M292.57 86.34l-3.39 7.32q-.34.73.4 1.04l1.5.64a.3.29-76.7 0 1 .18.3l-.02.27q-.03.36-.39.31-1.06-.14-1.86-.81-.47-.39-.84.11l-3.84 5.24q-.42-.43-.59-.95l3.42-4.82q.3-.43.07-.91-.28-.57-.98-.8-.83-.28.04-.38.75-.09 1.14.49a.46.46 0 0 0 .79-.07l3.29-6.99q.46-.16 1.08.01"/><path fill="#fff" d="m294.53 86.54 1.2.18q.29 1.25 1.82 1.5 1.56.25 1.75-.93.6.23.86.53-.22.46.56 1.15.47.42.21.99l-3.13 6.86q-.26.56-.86.42l-3.48-.85q-.29-.07-.4.21l-.11.3q-.1.28.17.36l3.23.95q.46.13.21.55l-3.99 6.55q-1.22.63-1.98 1.56-.16.03-.24.18a.41.39 16.5 0 0 .32.57q.63.07.79-.22 1.48.65 2.99.82 2.54.28 3.04.4 6.99 1.83 13.33 5.57-1.75.71-2.01 2.03-.11.53-.65.59-2.71.32-4.95 2.5a1.77 1.76 50.8 0 0-.22 2.26q.77 1.11 1.92 1.34c1.65.32 3.11 1.29 4.67 1.87a.93.92 21.9 0 0 1.16-.49l2.72-6.09q.3-.66-.43-.74l-2.58-.3q-.74-.09-.28-.67.27-.33.68-.41.37-.07.64.19.24.23.53.12a.16.15 37.4 0 0-.04-.3q-.57-.05-.65-.58-.12-.79.35-.8l3.54 2.78-2.78 5.23a.23.23 0 0 0 .33.3l5.04-3.16q0 .07.67.36l-5.83 4.15q-.45.32-.7.81-1.29 2.52-2.05 5.65-.06.27-.33.21l-.32-.07q-.21-.04-.16-.25l.95-3.77a.79.78-68.8 0 0-.39-.9c-1.83-.97-3.27-1.6-5.33-2.84q-1.32-.79-3.04-.72-.01-4.45.19-8.99.09-1.87-1.54-2.93c-1.34-.87-2.4-.74-3.81-1.11q-6.9-1.8-9.77-4.06-1.51-1.19-2.04-4.64l3.84-5.24q.37-.5.84-.11.8.67 1.86.81.36.05.39-.31l.02-.27a.3.29-76.7 0 0-.18-.3l-1.5-.64q-.74-.31-.4-1.04l3.39-7.32q.99-.17 1.96.2"/><path d="m295.73 86.72-1.2-.18q.71-.11 1.2.18M299.3 87.29q-.19 1.18-1.75.93-1.53-.25-1.82-1.5zM302.57 88.41l-3.78 8.55q-.2.46.28.59 1.19.33 1.97.27 3.02-.26.66 1.63-.59.46-.87 2.08-.13.28-1.11.21l1.1-2.34q.28-.6-.38-.66l-1.9-.16a.98.97-70.9 0 0-.9.44l-3.54 5.45q-.66.58-1.53.84l3.99-6.55q.25-.42-.21-.55l-3.23-.95q-.27-.08-.17-.36l.11-.3q.11-.28.4-.21l3.48.85q.6.14.86-.42l3.13-6.86q.26-.57-.21-.99-.78-.69-.56-1.15 1.66.1 2.41.59"/><path fill="#fff" d="m302.57 88.41 2.24 1.03-2.57 6.95q-.07.18.09.29l.25.17q.27.19.38-.12l2.58-7q4.94 2.2 9.01 5.89-.33.34-.33.65.01.4.41.44.34.03.64-.23 2.07 1.67 3.04 3.87a.27.27 0 0 1-.31.37q-8.67-2.08-17.17.81.28-1.62.87-2.08 2.36-1.89-.66-1.63-.78.06-1.97-.27-.48-.13-.28-.59zm10.402 8.114a1.95.5-22.5 0 0-1.993.284 1.95.5-22.5 0 0-1.61 1.208 1.95.5-22.5 0 0 1.992-.284 1.95.5-22.5 0 0 1.61-1.208m-4.365 1.261a2.06.51-10.2 0 0-2.117-.137 2.06.51-10.2 0 0-1.937.867 2.06.51-10.2 0 0 2.117.137 2.06.51-10.2 0 0 1.937-.867"/><path d="m305.54 89.73-2.58 7q-.11.31-.38.12l-.25-.17q-.16-.11-.09-.29l2.57-6.95q.52-.09.73.29M284.54 92.05q.39.21.37.59a.26.26 0 0 1-.41.2q-.29-.21-.29-.59.01-.38.33-.2M315.27 96.48q-.3.26-.64.23-.4-.04-.41-.44 0-.31.33-.65.48.28.72.86"/><ellipse rx="1.95" ry=".5" transform="rotate(-22.5 400.09 -733.544)"/><ellipse rx="2.06" ry=".51" transform="rotate(-10.2 703.165 -1668.506)"/><path fill="#fff" d="m299.72 101.74-5.62 2.73 3.54-5.45a.98.97-70.9 0 1 .9-.44l1.9.16q.66.06.38.66z"/><path d="M290.59 106.87q.74.23.87.53-.16.29-.79.22a.41.39 16.5 0 1-.32-.57q.08-.15.24-.18M311.68 114.71q-.47.01-.35.8.08.53.65.58a.16.15 37.4 0 1 .04.3q-.29.11-.53-.12-.27-.26-.64-.19-.41.08-.68.41-.46.58.28.67l2.58.3q.73.08.43.74l-2.72 6.09a.93.92 21.9 0 1-1.16.49c-1.56-.58-3.02-1.55-4.67-1.87q-1.15-.23-1.92-1.34a1.77 1.76 50.8 0 1 .22-2.26q2.24-2.18 4.95-2.5.54-.06.65-.59.26-1.32 2.01-2.03.47.04.86.52M315.22 117.49l2.59 2.37-5.04 3.16a.23.23 0 0 1-.33-.3z"/><path d="m325.02 128.01-3.42 1.17q-.49.17-.69.64l-.39.94q-8.35.08-15.98 3.16l-.92-1.12q-.32-.38.05-.72l4.93-4.55q.2-.18.02-.39l-.27-.32q-.05-.05-.1-.01-3.13 2.11-5.41 4.85-.32.39-.81.44-.85.09-1.82-.38l1.07-9.23q1.72-.07 3.04.72c2.06 1.24 3.5 1.87 5.33 2.84a.79.78-68.8 0 1 .39.9l-.95 3.77q-.05.21.16.25l.32.07q.27.06.33-.21.76-3.13 2.05-5.65.25-.49.7-.81l5.83-4.15q1.47 1.77 3.4 3.59.86.81 1.6 2.04.68 1.13 1.54 2.16m-11.56-1.46q-.55-.34-1.18-.41-.46-.05-.1.25.48.39 1.14.52 1.06.2.14-.36m6.06 1.906a1.59.28 8.9 0 0-1.527-.523 1.59.28 8.9 0 0-1.614.031 1.59.28 8.9 0 0 1.528.523 1.59.28 8.9 0 0 1.614-.031"/><path fill="#fff" d="M313.32 126.91q-.66-.13-1.14-.52-.36-.3.1-.25.63.07 1.18.41.92.56-.14.36M304.54 133.92l-1 .32-.74-.31q-.51-.21-.86.22-.29.36-.44.84-.46.44-.72 1.03-.6.64-1.62 1.06-.39-1.55.96-2.82.47.04.75-.34.34-.46-.05-.89-.31-.35-.8-.03l.19-1.28q.97.47 1.82.38.49-.05.81-.44 2.28-2.74 5.41-4.85.05-.04.1.01l.27.32q.18.21-.02.39l-4.93 4.55q-.37.34-.05.72z"/><ellipse fill="#fff" rx="1.59" ry=".28" transform="rotate(8.9 -664.746 2106.863)"/><path fill="#fff" d="M325.02 128.01q.48.56.7 1.12l-1.29 1.93q-.25-.16-.89-.15l-.1-1.3q-.04-.56-.45-.17l-1.32 1.23q-.49.21-1.15.09l.39-.94q.2-.47.69-.64z"/><path d="m323.54 130.91-1.87-.24 1.32-1.23q.41-.39.45.17zM325.72 129.13q.67.99.9 2.09.11.52-.41.45-.92-.11-1.78-.61zM300.02 133q.49-.32.8.03.39.43.05.89-.28.38-.75.34-.61-.52-.1-1.26M303.54 134.24q-.9.62-2.04.75.15-.48.44-.84.35-.43.86-.22zM300.78 136.02c.05.81-.03 1.2.49 1.86q2.26 2.88 2.54 6.44-.23-.01-.34.06-.12.08-.01.25.16.25.48.25l.4.1q-.52.46-.77.94c-.52.96.22 1.81-1.04 2.65q-.67-2.35.22-4.88.16-.48.04-.97-.78-3.3-3.63-5.64 1.02-.42 1.62-1.06"/><path fill="#fff" d="M303.81 144.32q.16.35.13.56-.32 0-.48-.25-.11-.17.01-.25.11-.07.34-.06M308.9 146.81l-6.69 4.69q-.34-1.35.32-2.93c1.26-.84.52-1.69 1.04-2.65q.25-.48.77-.94 2.52.49 4.56 1.83m-3.32 1.15q.35-.22.57-.59.36-.6-.34-.47-1.45.26-1.81 1.59-.2.75.47.36c.42-.24.69-.62 1.11-.89"/><path d="M305.58 147.96c-.42.27-.69.65-1.11.89q-.67.39-.47-.36.36-1.33 1.81-1.59.7-.13.34.47-.22.37-.57.59M308.9 146.81l1.06.64q.36 1.2.21 2.2-.06.44-.43.7l-2.29 1.59q-.48.34-.05.73l.21.19q.11.1.22.02l2.54-1.73q.3-.21.5.1 1.54 2.38-1.43 3.98-1.06.56.14.55 1.74-.03 3.05-.54.66-.26.54-.95-.35-2.02 1.33-3.84 2.06 1.37 3.6 3.36-3.12-.04-4.99 2.38-.52.66.24 1.01.24.11.48.27.12.08.11.23t-.18.26q-.14.1-.31.05c-1.53-.43-2.65-.25-3.94.7q-3.79 2.79-7.98 5.14-.02-.68.17-1.2l7.43-5.07q.89-.61-.19-.72-.66-.07-1.24.23c-1.52.78-3.33 2.01-4.59 3.4q-.51.55-1.28.48-.04-.81.26-.98 1.93-.84 3.31-2.73.45-.63-.31-.48-1.24.25-1.82-.57-.38-.52.26-.52c1.21-.01 2.93.6 4-.07q.86-.55.97-1.77.05-.61-.39-.19-.66.64-1.24-.14-.34-.45-.89-.45l-3.6.01q.11-.82-.17-1.58zm1.1 9.91q-.05.02-.06.07-.05.23.18.21.29-.03.32-.34.03-.24-.21-.24-.24-.01-.17.16.04.1-.06.14"/><path fill="#fff" d="M311.23 148.37q.01.53.54.34l2.73 1.74q-1.68 1.82-1.33 3.84.12.69-.54.95-1.31.51-3.05.54-1.2.01-.14-.55 2.97-1.6 1.43-3.98-.2-.31-.5-.1l-2.54 1.73q-.11.08-.22-.02l-.21-.19q-.43-.39.05-.73l2.29-1.59q.37-.26.43-.7.15-1-.21-2.2.83.3 1.27.92m.7 2.34.3.75q.27.69.59.02.23-.48.28-1.07a.5.49-81.5 0 0-.39-.53q-.14-.03-.28-.01a.61.61 0 0 0-.5.84"/><path d="M311.77 148.71q-.53.19-.54-.34.34-.07.54.34M312.43 149.87q.14-.02.28.01a.5.49-81.5 0 1 .39.53q-.05.59-.28 1.07-.32.67-.59-.02l-.3-.75a.61.61 0 0 1 .5-.84"/><path fill="#fff" d="m302.09 159.99.29-6.91 3.6-.01q.55 0 .89.45.58.78 1.24.14.44-.42.39.19-.11 1.22-.97 1.77c-1.07.67-2.79.06-4 .07q-.64 0-.26.52.58.82 1.82.57.76-.15.31.48-1.38 1.89-3.31 2.73M318.1 153.81l2.19 1.97q-.03.78-.37.8-.1.01-.15.03-1.69.65-3.4 1.66-.42.24-.26.7.67 2 2.35 3.07.81.51.23-.24-.85-1.1-1.82-2.11-.15-.16-.17-.37-.03-.22.12-.31.45-.27.91-.09 2.78 1.12 5.43.91 3.21 4.35 3.64 10.05-1.85.24-1.72 1.4l-5.84-2.07 2.82-2.06a.88.88 0 0 1 1.29.28q.51.91 1.33 1.38.8.45.27-.3l-.91-1.29a.66.66 0 0 1 .09-.86q.53-.5 1.32-.69.65-.16.07-.48-.23-.13-.47-.06-1.61.45-3.04 1.74-.05.04-.11.05-1.97.35-2.99 2.14-6.89-1.44-14.24-1.48-.72-.66-1.65-.02-1.11-.26-1.32.8-.33.68-.56.43-.22-2.72.39-4.94 4.19-2.35 7.98-5.14c1.29-.95 2.41-1.13 3.94-.7q.17.05.31-.05.17-.11.18-.26t-.11-.23q-.24-.16-.48-.27-.76-.35-.24-1.01 1.87-2.42 4.99-2.38m-3.208 5.637a.42.42 0 0 0-.584-.107l-6.256 4.316a.42.42 0 0 0-.107.584l.023.033a.42.42 0 0 0 .584.107l6.256-4.316a.42.42 0 0 0 .107-.584zm7.05 6.158a1.65.4 49.5 0 0-.768-1.515 1.65.4 49.5 0 0-1.376-.995 1.65.4 49.5 0 0 .768 1.515 1.65.4 49.5 0 0 1.376.995m-16.212-.075q.54.23.92-.4-.58-.09-.92.4"/><path d="M320.98 156.71q-1 .14-1.75.92-.38.38.09.65 1.34.75 2.97.53.69.22.87 1.02-2.65.21-5.43-.91-.46-.18-.91.09-.15.09-.12.31.02.21.17.37.97 1.01 1.82 2.11.58.75-.23.24-1.68-1.07-2.35-3.07-.16-.46.26-.7 1.71-1.01 3.4-1.66.05-.02.15-.03.34-.02.37-.8.49.44.69.93"/><path fill="#fff" d="M310.06 156.58q-.07-.17.17-.16.24 0 .21.24-.03.31-.32.34-.23.02-.18-.21.01-.05.06-.07.1-.04.06-.14M320.98 156.71q.9.63 1.31 2.1-1.63.22-2.97-.53-.47-.27-.09-.65.75-.78 1.75-.92"/><path fill="#fff" d="m301.7 162.65.13-1.68q.77.07 1.28-.48c1.26-1.39 3.07-2.62 4.59-3.4q.58-.3 1.24-.23 1.08.11.19.72z"/><rect width="8.44" height=".88" x="-4.22" y="-.44" rx=".42" transform="rotate(-34.6 415.551 -419.013)"/><ellipse rx="1.65" ry=".4" transform="rotate(49.5 -17.816 430.185)"/><path d="M305.73 165.53q.34-.49.92-.4-.38.63-.92.4M319.24 169.21q-.17-.08-.33-.15 1.02-1.79 2.99-2.14.06-.01.11-.05 1.43-1.29 3.04-1.74.24-.07.47.06.58.32-.07.48-.79.19-1.32.69a.66.66 0 0 0-.09.86l.91 1.29q.53.75-.27.3-.82-.47-1.33-1.38a.88.88 0 0 0-1.29-.28zM304.67 167.58q-.85.34-1.65-.02.93-.64 1.65.02M301.7 168.36q.26.82.01 1.67-.38-.46-.59-.32-.27-.4.02-.92.23.25.56-.43"/><path fill="#fff" d="M301.71 170.03q-.37 1.09-.23 2.07.08.5.53.73 2.42 1.25 4.57 2.87 1.15.87 2.1 2.34.88 1.37 1.79 2.65l-5.52 3.11q-.48.27-.85-.14l-.98-1.1q-.43-.46.03-.9.86-.81 1.57-1.61 1.68-1.88-.55-.68-.48.26-.8.72-1.13 1.63-1.37-.33-.04-.36-.33-.5-.37-.19-.76-.05-.78.27-1.18-.25l.31-.69q.33-.09.55-.29.45-.4.06-.86-.19-.22-.56-.38-.17-3.54 1.03-7.03.21-.14.59.32"/><path d="M325.08 171.28q-.13-1.16 1.72-1.4.34.86.1 1.51-.23.6-.8.59-.55-.02-1.02-.7M300.04 178.27q-.13-.77.05-1.53.37.16.56.38.39.46-.06.86-.22.2-.55.29M310.47 180.69q.34.46.47.87l-5.6 3.08q-.49.27-.3.79l.12.34a.66.66 0 0 0 .85.4q1.66-.6 3.17-1.88a1.45 1.45 0 0 1 1.02-.35q1.09.04 1.5-.98l.34.55q-2.06.99-3.6 2.6-.46.48.19.59 2.45.41 4.93 1.33.07.03.12-.03.08-.1.16-.19.18.58.05 1.24l-6.84-1.67q-.67-.16-.37.46 1.01 2.14-.64 3.6a.74.74 0 0 1-.94.03q-2.07-1.6-3.13-3.79a1.12 1.09 55.8 0 0-1.74-.35q-.41.38-1.45.43-.24-.32.02-.69 1.38-1.16.28-2.15l.65-5.96q.4.52 1.18.25.39-.14.76.05.29.14.33.5.24 1.96 1.37.33.32-.46.8-.72 2.23-1.2.55.68-.71.8-1.57 1.61-.46.44-.03.9l.98 1.1q.37.41.85.14z"/><path fill="#fff" d="M310.94 181.56q.57.67.76 1.4-.41 1.02-1.5.98a1.45 1.45 0 0 0-1.02.35q-1.51 1.28-3.17 1.88a.66.66 0 0 1-.85-.4l-.12-.34q-.19-.52.3-.79z"/><path fill="#fff" d="m312.04 183.51 1.8 4.3q-.08.09-.16.19-.05.06-.12.03-2.48-.92-4.93-1.33-.65-.11-.19-.59 1.54-1.61 3.6-2.6M298.8 187.07l.28-2.15q1.1.99-.28 2.15M313.89 189.05l.64 3.89q-2.02 1-3.61 2.42-.15.14-.11.33.03.16.15.28.15.16.33.04l3.26-2.1q.74 3.6-.8 6.26-.26.45-.73.23-.54-.26-1-.75.21-.69 1.05-.4.93.32.38-.5-.2-.29-.54-.39-1.24-.34-2.2-1.3c-1.24-1.25-2.94-2.23-4.37-3.29q-.88-.65-.4.34l.8 1.69q.09.19-.07.32l-.21.18q-.16.12-.29-.03l-1.33-1.61q-.44-.53-.75.08-.38.73-1.14 1.11-.46.23-.77-.17-.95-1.21-1.38-2.47-.77-2.26.86-.51.3.33.6 1.56.17.72.73.23l.77-.67q.57-.5.19-1.15-1.1-1.87-3.1-3.64-.58-.52-.55.26.03.53.25 1 .36.77-.42.42-.86-.38-1.39-2.04.1-.25.04-.91 1.04-.05 1.45-.43a1.12 1.09 55.8 0 1 1.74.35q1.06 2.19 3.13 3.79a.74.74 0 0 0 .94-.03q1.65-1.46.64-3.6-.3-.62.37-.46zm-4.78 4.42q-.2-1.36-1.47-2.15a.44.44 0 0 0-.63.19l-.28.6q-.23.48.19.82 1.08.87 2.19 1.75.92.73.5-.37-.05-.13-.16-.23-.29-.24-.34-.61"/><path d="m312.02 199.65-11.38-3.97a1.58 1.58 0 0 0-2.08 1.2l-.44 2.37q-.11-.8-.77-.45l1.39-10.13q.53 1.66 1.39 2.04.78.35.42-.42-.22-.47-.25-1-.03-.78.55-.26 2 1.77 3.1 3.64.38.65-.19 1.15l-.77.67q-.56.49-.73-.23-.3-1.23-.6-1.56-1.63-1.75-.86.51.43 1.26 1.38 2.47.31.4.77.17.76-.38 1.14-1.11.31-.61.75-.08l1.33 1.61q.13.15.29.03l.21-.18q.16-.13.07-.32l-.8-1.69q-.48-.99.4-.34c1.43 1.06 3.13 2.04 4.37 3.29q.96.96 2.2 1.3.34.1.54.39.55.82-.38.5-.84-.29-1.05.4M309.45 194.08q.11.1.16.23.42 1.1-.5.37-1.11-.88-2.19-1.75-.42-.34-.19-.82l.28-.6a.44.44 0 0 1 .63-.19q1.27.79 1.47 2.15.05.37.34.61M314.53 192.94q.23.11.3.36.12.47-.28.61l-3.26 2.1q-.18.12-.33-.04-.12-.12-.15-.28-.04-.19.11-.33 1.59-1.42 3.61-2.42"/><path fill="#fff" d="M298.12 199.25q-.8 2.21 1.17 4.15.03 1.22-.35 1.68-.38.48-.55-.11-1-3.41-1.86-1.32l.82-4.85q.66-.35.77.45"/><path d="M299.29 203.4q2.97 3.29 4.31 7.83-2.44.98-3.29-1.99-.26-.89-.6-1.8-.31-.84-.75-.06-.2.35-.57.53-.5.25-.16.7.84 1.13 1.05 2.61.12.83-.56.34l-3.61-2.59.89-3.12q.81-.3.46-1.87.03-.16.07-.33.86-2.09 1.86 1.32.17.59.55.11.38-.46.35-1.68m-2.35 2.95q.09.37.31.68a.24.23-56.4 0 0 .42-.09q.11-.53-.37-.85a.24.24 0 0 0-.36.26"/><path fill="#fff" d="M296.46 203.98q.35 1.57-.46 1.87.04-1.1.46-1.87M296.94 206.35a.24.24 0 0 1 .36-.26q.48.32.37.85a.24.23-56.4 0 1-.42.09q-.22-.31-.31-.68M303.6 211.23q.11-.1.11.48-.68.3-.7.98-.01.48.47.93.47.45.99.86.69 1.12.22 1.54l-5.93 6.47-1.79-1.18q.77-2.72 2.43-4.75.46-.56.04-1.16-.4-.55-.29-1.22a1.34 1.33-67.5 0 0-.53-1.29l-3.97-2.89.46-1.03 3.61 2.59q.68.49.56-.34-.21-1.48-1.05-2.61-.34-.45.16-.7.37-.18.57-.53.44-.78.75.06.34.91.6 1.8.85 2.97 3.29 1.99m-3.46 1.01q.11.5.6.73a.37.36-73.9 0 0 .52-.29q.07-.67-.6-.9a.4.4 0 0 0-.52.46m.5 3.28-1.47 4.35q-.44 1.33.46.26l3.25-3.85q.44-.54-.11-.96-.43-.34-1-.27-.58.07-.81-.47-.12-.31-.47-.21-.16.05-.14.22t.14.29q.27.27.15.64"/><path d="M296.97 221.31q-.65-.29-.82-.49-1.14-2.25-3.23-3.98l1.73-6.84 3.97 2.89a1.34 1.33-67.5 0 1 .53 1.29q-.11.67.29 1.22.42.6-.04 1.16-1.66 2.03-2.43 4.75M300.14 212.24a.4.4 0 0 1 .52-.46q.67.23.6.9a.37.36-73.9 0 1-.52.29q-.49-.23-.6-.73M303.71 211.71l.76 2.77q-.52-.41-.99-.86-.48-.45-.47-.93.02-.68.7-.98M300.49 214.88q-.12-.12-.14-.29t.14-.22q.35-.1.47.21.23.54.81.47.57-.07 1 .27.55.42.11.96l-3.25 3.85q-.9 1.07-.46-.26l1.47-4.35q.12-.37-.15-.64M304.69 216.02q.63 6.14-.27 10.84-.43 2.24-1.41.18-1.41-2.95-4.25-4.55z"/><path fill="#fff" d="M292.92 216.84q2.09 1.73 3.23 3.98-1.43-.5-2.4-1.38l-1.14-1.69q.01-.43.31-.91"/><path d="M293.75 219.44q-.19-.11-.36-.12-.47-.05-.6.41-1.45 5.37.15 9.89l-1.89 2.48q.36-5.27.6-10.37.08-1.74.96-3.98z"/><path fill="#fff" d="M292.94 229.62q1.25.23.91 1.42l-2.49 5.64q-.22.5-.39-.02l-.88-2.6.96-1.96z"/><path d="M293.85 231.04q1.89 5.79 1.58 11.54l-3.39 2.19-1.9-2.95q1.19-1.55 1.03-3.46-.04-.55-.37-.1-.98 1.33-1.33 3.12-1.35 2.48-1.19 5.42-.57.34-.85.77-.28.44.05.85.8.98.61 2.43-.12.97.41.16.73-1.09.74-3.18 1.98 3.5 1.7 6.66-.16 1.77-1.32.43c-1-1.16-2.46-2.19-2.87-3.64-.34-1.22-.75-1.99-.36-3.32q1.83-6.23 3.66-12.45.1-.33.04-1.45l.88 2.6q.17.52.39.02z"/><path fill="#fff" d="M290.14 241.82q-.43-.15-.67-.44.35-1.79 1.33-3.12.33-.45.37.1.16 1.91-1.03 3.46M295.43 242.58q.61.74 0 1.08l-3.05 1.87q-.36-.39-.34-.76z"/><path d="M295.43 243.66q.02 2.16-.49 3.57-.73 2.01-1.68.1l-.88-1.8z"/><path fill="#fff" d="M289.24 247.83q-.01 2.09-.74 3.18-.53.81-.41-.16.19-1.45-.61-2.43-.33-.41-.05-.85.28-.43.85-.77.85.37.96 1.03"/></svg>