<svg xmlns="http://www.w3.org/2000/svg" viewBox="0 0 382 382"><g fill="none" stroke-width="2"><path stroke="#752f3c" d="M250 76.34q1.09 1.43.38 1.71M239.22 74.11q-.53-2.05-1.01-3.04-1.1-2.29-1.19.25c-.03.85-.09 1.55-.88 2.07q-2.39 1.58-6.83 1.24M217.04 70.76q-.32-1.05-.01-1.98M314.54 95.54q-.76.98-.47 1.83.16.49.66.6 2.61.62.88 2.18M315.28 99.94l-1.82-2.07q-.31-.36-.44-.82-.69-2.58-3.64-1.96-.16.03-.15.19l.01.36q.01.38.39.32 1.03-.15 1.75.27a.59.58-46.9 0 1 .03 1q-1.65 1.08-1.47 2.7M307.11 100.06q-.88-2.5-2.74-2.37-1.61.11-.19-.66.99-.54 1.71.73.17.31.5.17l.24-.09q.19-.09.1-.28-.48-1.05-.97-2.17-.36-.8-1.15-1.01-.46-.13-.84.19-.98.81-1.27-.44-.17-.76-.83-.99-.75-.27-.68.52.08.88.77 1.6.4.42.34 1-.32 2.77-2.59 4.09-.45.26-.2.73.18.33.71.65M298.93 102.12q-1.88-.39-2.75 1.11M295.53 108.25q-.24.58-.1 1.03M251.98 80.01l-.11-5M252.81 74.47q.86.3.81-.42M215.88 68.82q.26 2.37-.54 2.05M215.01 70.76q.13-1.06.08-1.33-.27-1.72-1.12-.2-.49.87-1.75 1.17M299.58 109.15q-.55.08-.36 1.01M214.76 61.31q1.16.78 3.03.05M219.59 61.35c-1.17 2.44-2.97 2.7-4.37 4.45q-.32.4-.72.72l-5.52 4.39M304.01 110.95q.45 1.52 1.97.77M310.29 113.89c-.31 1.82 1.14 3.4.18 5.16q-.28.5.03.98.17.27.21.57.07.5-.43.45-.79-.07-1.47.29-.5.25-.26-.25l1.37-2.98a.65.6-43 0 0 .03-.42q-.22-.72-.79-1.25-.43-.39-.94-.12l-2.01 1.08q-.7.38-.49 1.15.41 1.47-1.13 1.54-.37.01-.41.37-.01.06.02.11.25.48.81.42.77-.07 1.33.33.54.38.36 1.02-.3 1.11-.16 2.22.08.62-.42.98l-.29.2q-.47.34-.34.92l.68 2.83a.35.35 0 0 0 .46.25l.33-.11q.13-.04.12-.19l-.13-1.91q-.05-.75.61-.4.21.11.41.27 1.04.79.52-.42-.3-.69.37-.95.59-.24.42-.85-.25-.89-.98-1.41-.22-.15-.08-.38l.14-.22q.04-.07.11-.02 2.2 1.49 3.42 3.64.24.43.06.9-.2.53-.62.14l-.68-.64q-.72-.68-.72.31.01 1.55 1.49 1.66.8.06.14.52-.29.19-.65.11-.76-.19-.54.56.22.73 1.43 1.42M303.4 134.49l-2.75-4.78" vector-effect="non-scaling-stroke"/><path stroke="#523545" d="M212.03 61.07q-.81 1.59-2.11 2.64-.39.31-.58.76-1.8 4.19-5.72 6.43" vector-effect="non-scaling-stroke"/><path stroke="#523545" d="m202.02 70.9.44-.89q.98.19 1.77-.53 3.85-3.46 5.26-8.23M301.76 134.9q.41-.72-.02-1.2-.43-.47-.83.02-.26.3-.26.72 0 .32.26.52.26.19.56.16" vector-effect="non-scaling-stroke"/><path stroke="#752f3c" d="M316.48 151.93q-.01 1.46 1.39 2.18a.24.22 29.7 0 1 .1.32l-.16.27q-.21.36-.57.15-2.08-1.22-3.96.47-.55.5.18.64l.8.15q.6.11.8.68.17.46-.02.93-.22.55-.63.12-.24-.26-.55-.43-.64-.33-.84.36l-.19.7q-.13.45-.59.56-.93.22-1.74.8-.41.29-.4.79 0 1.78.88 3.17.1.14.12.31.04.35-.36.57a.52.51 52.3 0 1-.59-.08q-.52-.5-1.13-.14-.27.15-.58.16-.25.01-.42-.12-.78-.66-.52.33.6 2.38 2.96 2.86M304.91 174.55q-1.57 1.72-1.51 4.32.01.39-.14.76-.19.43-.62.63-.22.11.01.2.06.03.11 0 .57-.25.72-.83.31-1.2 1.3-1.68.84-.4.33-1.18-.03-.05-.02-.1.09-.97.77-.26 1.12 1.16 2.61 1.42M309.26 178.73q-1.4.26-2.37.96-.42.31-.41.82.06 2.15-2.24 3.28-.34.17-.32.54.1 1.43-.87 2.71-.34.46-.9.32l-.5-.11q-.46-.11-.82.21-.47.43-1.17.42-.5 0-.15-.36.38-.39.92-.44.73-.05.36-.68-.4-.68-1.79-.57" vector-effect="non-scaling-stroke"/><path stroke="#523545" d="M299.13 185.18q.84-.36.43-1.64" vector-effect="non-scaling-stroke"/><path stroke="#0b3d4d" d="M299.56 183.54q.17-.2.28-.53" vector-effect="non-scaling-stroke"/><path stroke="#752f3c" d="M299.84 183.01q.38.22.63-.04.28-.29.21-.64a.31.31 0 0 0-.48-.19q-.24.17-.46.6" vector-effect="non-scaling-stroke"/><path stroke="#0b3d4d" d="M299.74 182.74q-.31.12-.52.47" vector-effect="non-scaling-stroke"/><path stroke="#752f3c" d="m299.67 179.79 1.79.22q.59.08.41-.48-.43-1.29-1.81-2.18" vector-effect="non-scaling-stroke"/><path stroke="#523545" d="M300.02 132.89q.63.39.73-.18.13-.69-.45-1.44" vector-effect="non-scaling-stroke"/><path stroke="#752f3c" d="M324.92 127.6q-.75.9.22 2.73a1 .97-10.2 0 0 .76.51l.81.1" vector-effect="non-scaling-stroke"/><path stroke="#0b3d4d" d="M202.46 70.01q-.31-.52-.74-.83-.31-.22-.56.05-.09.09-.14.21-.22.58.39.67.48.07 1.05-.1M191.69 73.26c1.29-3.35 4.07-1.46 5.21-3.75q.09-.17.25-.28.3-.19.5.08.28.37-.12.62-.22.15-.25.39-.11.8.53.3.8-.62 1.92-.64 1.01-.01.18-.58c-2.54-1.78-5.18.15-7.72.78q-.69.17-.56.81.11.58-.44.78-1.63.59-2.04 2.14" vector-effect="non-scaling-stroke"/><path stroke="#523545" d="M185.8 74.05q.59.66 1.45.19.63-.34 1.52-1.66.11-.16-.06-.25t-.37-.04l-1.87.47" vector-effect="non-scaling-stroke"/><path stroke="#5d7291" d="M299.56 183.54q-.3.02-.45.41" vector-effect="non-scaling-stroke"/><path stroke="#752f3c" d="M319.31 154.71q.05 1.79-.77 3.01-.55.84-.5-.17.03-.7-.32-1.23-.34-.52-.53.08-.31.97.31 1.74a.93.92-50.9 0 1 .1 1.01l-.68 1.31q-.44.85-.94.03l-.49-.81q-.04-.06-.12-.06-.15 0-.24.09-.24.24-.16.58c.61 2.26-.97 3.16-1.6 5.06q-.17.51.28.81 1.25.85 1.22 1.96" vector-effect="non-scaling-stroke"/><path stroke="#806c88" d="M299.84 183.01q-.05-.14-.1-.27" vector-effect="non-scaling-stroke"/><path stroke="#752f3c" d="M299.27 195.63q-.31-.63-1.33-.69M323.53 160.26q-.56.87-.43 1.76.1.62.6.23.3-.23.57-.74" vector-effect="non-scaling-stroke"/><path stroke="#7a3032" d="M322.91 170.54q.67-.41.87-.84a.48.48 0 0 0-.44-.68q-.77-.01-1.25-.57a.64.64 0 0 0-.79-.16q-.67.34-.83 1.35" vector-effect="non-scaling-stroke"/><path stroke="#752f3c" d="M300.78 205.28q-1.48.4-1.86 1.9a.72.71-84.8 0 1-.63.53q-.89.08-1.08-.97-.35-1.95-.81-2.82M302.43 208.12q-1.4 3.93 1.51 4.38M304.06 212.9l-1.12.5q-.52.22-1.02-.05-.15-.08-.32-.08-.95.02-.41.8.98 1.45.42 3.35-.27.91-.73.07-.15-.28-.49-.2-.78.18-.4.88l.51.93q.25.46-.04.89-.96 1.4-1.04 3.02M298.2 222.09l.44-.98q.21-.47-.05-.92-.45-.79-.38-1.66.04-.6-.32-1.09-1.19-1.63-.39-4.24a.43.41 85 0 1 .19-.24q.18-.11.36-.09.95.1.47-.77-1.37-2.5-3.16-4.67M304.92 223.19q-.35-.04-.46.31-.13.39.02.76.06.13.2.05.06-.03.13-.06M304.82 225.46q0-.15-.06-.28-.08-.2-.23-.05-.73.73-2.39.63" vector-effect="non-scaling-stroke"/><path stroke="#7a3032" d="M295.54 244.04q-.01-3.64-1.26-4.88-1-.98-.61.36.64 2.26.42 5.66-.04.5.33.83.33.29.77.47M294.97 247.17q-1.88-1.2-2.07-.49M291.06 243.23q.99-.24.33-1.53-.21-.43.04-.83.72-1.16.6-2.52-.02-.27-.29-.24l-.28.02a.34.33 88.1 0 0-.3.33q-.03 1.94-1.02 3.46M288.44 245.64q-.28-1.11-1.18-1.38" vector-effect="non-scaling-stroke"/><path stroke="#523545" d="M289.98 234.98q2.89-3.36.92-3.14" vector-effect="non-scaling-stroke"/><path stroke="#7a3032" d="M289.33 247.79q-.19.9.39.98" vector-effect="non-scaling-stroke"/><path stroke="#523545" d="M214.873 64.238a1.23.38-40.7 0 0-1.18.514 1.23.38-40.7 0 0-.686 1.09 1.23.38-40.7 0 0 1.18-.514 1.23.38-40.7 0 0 .685-1.09" vector-effect="non-scaling-stroke"/><path stroke="#0b3d4d" d="M204.006 66.146a1.98.35 114.9 0 0 1.151-1.649 1.98.35 114.9 0 0 .517-1.943 1.98.35 114.9 0 0-1.151 1.649 1.98.35 114.9 0 0-.517 1.943" vector-effect="non-scaling-stroke"/><path stroke="#0b3d4d" d="M201.29 65.82c-1.37.29-2.84.12-4.07-.54q-.71-.37-1.45-.15-2.9.91.09 1.5 2.16.43 4.82.36c1.49-.04 2.45-1.42 2.08-2.83q-.4-1.47-.38.06.02 1.35-1.09 1.6M203.66 67.04a.11.11 0 0 0-.15-.12q-.18.09-.26.26-.09.18.04.33.21.24.37-.47" vector-effect="non-scaling-stroke"/><path stroke="#806c88" d="M255.86 80.5a.36.36 0 0 0-.36-.36.36.36 0 0 0-.36.36.36.36 0 0 0 .36.36.36.36 0 0 0 .36-.36" vector-effect="non-scaling-stroke"/><path stroke="#752f3c" d="M307.068 113.407a.98.52-3.7 0 0-1.012-.456.98.52-3.7 0 0-.944.582.98.52-3.7 0 0 1.012.456.98.52-3.7 0 0 .944-.582" vector-effect="non-scaling-stroke"/><path stroke="#7a3032" d="M311.907 156.243a.69.39-24.6 0 0-.79-.068.69.39-24.6 0 0-.464.642.69.39-24.6 0 0 .79.068.69.39-24.6 0 0 .464-.642" vector-effect="non-scaling-stroke"/><path stroke="#523545" d="M310.94 158.43a.29.29 0 0 0-.29-.29.29.29 0 0 0-.29.29.29.29 0 0 0 .29.29.29.29 0 0 0 .29-.29M307.745 162.75a.86.53 132.9 0 0 .973-.27.86.53 132.9 0 0 .197-.99.86.53 132.9 0 0-.973.27.86.53 132.9 0 0-.197.99" vector-effect="non-scaling-stroke"/><path stroke="#752f3c" d="M312.76 162.776a1.25.57 38.4 0 0-.626-1.223 1.25.57 38.4 0 0-1.334-.33 1.25.57 38.4 0 0 .626 1.224 1.25.57 38.4 0 0 1.334.33M321.46 165.42q-.42-.13-.84-.11-.33.03-.46.33-.1.22 0 .42.19.42.63.53.68.19 1.07.72.74 1.04 1.28-.12 1.02-2.22.02-3.78-.37-.57-1.03-.45l-.56.1a.47.46 57.2 0 0-.18.84q.58.41.6 1.11a.41.41 0 0 1-.53.41" vector-effect="non-scaling-stroke"/><path stroke="#523545" d="M315.245 165.55a1.2.4 97.4 0 0 .552-1.139 1.2.4 97.4 0 0-.242-1.241 1.2.4 97.4 0 0-.552 1.139 1.2.4 97.4 0 0 .242 1.241" vector-effect="non-scaling-stroke"/><path stroke="#752f3c" d="M307.11 180.15q-.21.2-.19.47a.32.32 0 0 0 .54.21q.25-.23.15-.55a.3.3 0 0 0-.5-.13M303.88 187.727a1.56.77 129.9 0 0 1.59-.703 1.56.77 129.9 0 0 .41-1.69 1.56.77 129.9 0 0-1.59.702 1.56.77 129.9 0 0-.41 1.69M292.91 235.8q.07-.98.18-1.82.09-.69-.29-.11-.78 1.16-1.05 2.57-.15.78.54.4.56-.31.62-1.04M304.196 224.137a.63.51-41 0 0-.81.028.63.51-41 0 0-.142.798.63.51-41 0 0 .81-.028.63.51-41 0 0 .142-.798" vector-effect="non-scaling-stroke"/></g><path fill="#e95e77" d="M250 76.34q1.09 1.43.38 1.71-3.37-2.6-6.79-3.9-1.9-.72-4.37-.04-.53-2.05-1.01-3.04-1.1-2.29-1.19.25c-.03.85-.09 1.55-.88 2.07q-2.39 1.58-6.83 1.24-2.39-1.47-5.19-2.85-1.59-.77-3.46-.86l-3.62-.16q-.32-1.05-.01-1.98c1.67.4 3.21.49 4.54-.75q7.94-7.37 19.37-7.93c4.68-.23 10.36-.44 15.05.69q2.78.68 5.15 1.63 4.48 1.81-.27 2.71-9.06 1.71-15.94 7.03-.43.34.02.65z"/><path fill="#a46a89" d="M212.03 61.07q-.81 1.59-2.11 2.64-.39.31-.58.76-1.8 4.19-5.72 6.43h-1.6l.44-.89q.98.19 1.77-.53 3.85-3.46 5.26-8.23z"/><path d="M214.76 61.31q1.16.78 3.03.05.68-.37 1.8-.01c-1.17 2.44-2.97 2.7-4.37 4.45q-.32.4-.72.72l-5.52 4.39q-2.6.62-5.36-.01 3.92-2.24 5.72-6.43.19-.45.58-.76 1.3-1.05 2.11-2.64 1.55-.19 2.73.24m.113 2.928a1.23.38-40.7 0 0-1.18.514 1.23.38-40.7 0 0-.686 1.09 1.23.38-40.7 0 0 1.18-.514 1.23.38-40.7 0 0 .685-1.09"/><path fill="#e95e77" d="M217.79 61.36q-1.87.73-3.03-.05 1.37-.45 3.03.05"/><path d="M209.49 61.25q-1.41 4.77-5.26 8.23-.79.72-1.77.53-.31-.52-.74-.83-.31-.22-.56.05-.09.09-.14.21-.22.58.39.67.48.07 1.05-.1l-.44.89-10.33 2.36c1.29-3.35 4.07-1.46 5.21-3.75q.09-.17.25-.28.3-.19.5.08.28.37-.12.62-.22.15-.25.39-.11.8.53.3.8-.62 1.92-.64 1.01-.01.18-.58c-2.54-1.78-5.18.15-7.72.78q-.69.17-.56.81.11.58-.44.78-1.63.59-2.04 2.14-1.36.75-2.84.74-.28 0-.42-.13-.18-.19-.09-.47.59.66 1.45.19.63-.34 1.52-1.66.11-.16-.06-.25t-.37-.04l-1.87.47q4.34-6.44 10-9.02 4.99-2.29 13.02-2.49m-5.484 4.896a1.98.35 114.9 0 0 1.151-1.649 1.98.35 114.9 0 0 .517-1.943 1.98.35 114.9 0 0-1.151 1.649 1.98.35 114.9 0 0-.517 1.943m-2.716-.326c-1.37.29-2.84.12-4.07-.54q-.71-.37-1.45-.15-2.9.91.09 1.5 2.16.43 4.82.36c1.49-.04 2.45-1.42 2.08-2.83q-.4-1.47-.38.06.02 1.35-1.09 1.6m2.37 1.22a.11.11 0 0 0-.15-.12q-.18.09-.26.26-.09.18.04.33.21.24.37-.47"/><path fill="#e95e77" d="M215.88 68.82q.26 2.37-.54 2.05-.17-.05-.33-.11.13-1.06.08-1.33-.27-1.72-1.12-.2-.49.87-1.75 1.17l-3.24.51 5.52-4.39q.4-.32.72-.72c1.4-1.75 3.2-2.01 4.37-4.45q3.09-.11 5.3.34 2.14.43.11 1.24-4.44 1.77-8.56 4.63-.32.23-.48.58-.17.39-.08.68"/><ellipse fill="#167a99" rx="1.98" ry=".35" transform="rotate(114.9 81.883 97.55)"/><path fill="#167a99" d="M201.29 65.82q1.11-.25 1.09-1.6-.02-1.53.38-.06c.37 1.41-.59 2.79-2.08 2.83q-2.66.07-4.82-.36-2.99-.59-.09-1.5.74-.22 1.45.15c1.23.66 2.7.83 4.07.54"/><ellipse fill="#a46a89" rx="1.23" ry=".38" transform="rotate(-40.7 194.648 -255.884)"/><path fill="#167a99" d="M203.66 67.04q-.16.71-.37.47-.13-.15-.04-.33.08-.17.26-.26a.11.11 0 0 1 .15.12"/><path fill="#e95e77" d="M314.54 95.54q-.76.98-.47 1.83.16.49.66.6 2.61.62.88 2.18-.17-.11-.33-.21l-1.82-2.07q-.31-.36-.44-.82-.69-2.58-3.64-1.96-.16.03-.15.19l.01.36q.01.38.39.32 1.03-.15 1.75.27a.59.58-46.9 0 1 .03 1q-1.65 1.08-1.47 2.7l-2.83.13q-.88-2.5-2.74-2.37-1.61.11-.19-.66.99-.54 1.71.73.17.31.5.17l.24-.09q.19-.09.1-.28-.48-1.05-.97-2.17-.36-.8-1.15-1.01-.46-.13-.84.19-.98.81-1.27-.44-.17-.76-.83-.99-.75-.27-.68.52.08.88.77 1.6.4.42.34 1-.32 2.77-2.59 4.09-.45.26-.2.73.18.33.71.65l-1.09.39q-1.88-.39-2.75 1.11l-5.28 3.2q-.83.5.11.73l4.52 1.09q-.24.58-.1 1.03-5.79-.96-9.43-4.31-1.33-1.22-1.91-4.1-.11-.55-.57-.87l-2.2-1.51a.56.56 0 0 1-.13-.8q3.41-4.58.45-9.3a1.85 1.83-6.6 0 0-.98-.77q-3.65-1.22-7.32-2.2c-4.89-1.3-10.81-.18-16.03-.49q-.44-.03-.76-.34l-4.57-4.58-.11-5 .94-.54q.86.3.81-.42 16.63-9.35 35.07-5.01 1.73.41 3.28 1.29a.66.66 0 0 1-.16 1.21q-11.14 2.99-20.32 11.45-.57.53.17.74 2.97.83 6.07 2.05 1.9.75 3.97.53c11.64-1.28 23.97 1.04 32.84 9.23M255.86 80.5a.36.36 0 0 0-.36-.36.36.36 0 0 0-.36.36.36.36 0 0 0 .36.36.36.36 0 0 0 .36-.36"/><path fill="#167a99" d="m191.69 73.26-2.54.65q.41-1.55 2.04-2.14.55-.2.44-.78-.13-.64.56-.81c2.54-.63 5.18-2.56 7.72-.78q.83.57-.18.58-1.12.02-1.92.64-.64.5-.53-.3.03-.24.25-.39.4-.25.12-.62-.2-.27-.5-.08-.16.11-.25.28c-1.14 2.29-3.92.4-5.21 3.75"/><path d="M215.01 70.76q-1.4-.46-2.79-.36 1.26-.3 1.75-1.17.85-1.52 1.12.2.05.27-.08 1.33M217.03 68.78q-.31.93.01 1.98-.84.21-1.7.11.8.32.54-2.05z"/><path fill="#167a99" d="M202.46 70.01q-.57.17-1.05.1-.61-.09-.39-.67.05-.12.14-.21.25-.27.56-.05.43.31.74.83"/><path d="M239.22 74.11q-.94-.01-3.22.61-2.44.66-6.69-.09 4.44.34 6.83-1.24c.79-.52.85-1.22.88-2.07q.09-2.54 1.19-.25.48.99 1.01 3.04"/><path fill="#a46a89" d="M185.8 74.05q-.14-.89.67-1.29l1.87-.47q.2-.05.37.04t.06.25q-.89 1.32-1.52 1.66-.86.47-1.45-.19"/><path d="M253.62 74.05q.05.72-.81.42.4-.35.81-.42M251.87 75.01l.11 5q-1.44-.67-1.6-1.96.71-.28-.38-1.71z"/><circle cx="255.5" cy="80.5" r=".36" fill="#167a99"/><path d="m307.11 100.06-7.09 1.67q-.53-.32-.71-.65-.25-.47.2-.73 2.27-1.32 2.59-4.09.06-.58-.34-1-.69-.72-.77-1.6-.07-.79.68-.52.66.23.83.99.29 1.25 1.27.44.38-.32.84-.19.79.21 1.15 1.01.49 1.12.97 2.17.09.19-.1.28l-.24.09q-.33.14-.5-.17-.72-1.27-1.71-.73-1.42.77.19.66 1.86-.13 2.74 2.37M315.28 99.94l-5.34-.01q-.18-1.62 1.47-2.7a.59.58-46.9 0 0-.03-1q-.72-.42-1.75-.27-.38.06-.39-.32l-.01-.36q-.01-.16.15-.19 2.95-.62 3.64 1.96.13.46.44.82zM315.61 100.15q1.73-1.56-.88-2.18-.5-.11-.66-.6-.29-.85.47-1.83 2.55 2 3.73 4.74.21.49-.32.52-1.17.08-2.34-.65M298.93 102.12l-2.75 1.11q.87-1.5 2.75-1.11M299.58 109.15q-.55.08-.36 1.01l-3.79-.88q-.14-.45.1-1.03 1.88 0 4.05.9"/><path fill="#e95e77" d="m299.58 109.15 4.43 1.8q.45 1.52 1.97.77l4.31 2.17c-.31 1.82 1.14 3.4.18 5.16q-.28.5.03.98.17.27.21.57.07.5-.43.45-.79-.07-1.47.29-.5.25-.26-.25l1.37-2.98a.65.6-43 0 0 .03-.42q-.22-.72-.79-1.25-.43-.39-.94-.12l-2.01 1.08q-.7.38-.49 1.15.41 1.47-1.13 1.54-.37.01-.41.37-.01.06.02.11.25.48.81.42.77-.07 1.33.33.54.38.36 1.02-.3 1.11-.16 2.22.08.62-.42.98l-.29.2q-.47.34-.34.92l.68 2.83a.35.35 0 0 0 .46.25l.33-.11q.13-.04.12-.19l-.13-1.91q-.05-.75.61-.4.21.11.41.27 1.04.79.52-.42-.3-.69.37-.95.59-.24.42-.85-.25-.89-.98-1.41-.22-.15-.08-.38l.14-.22q.04-.07.11-.02 2.2 1.49 3.42 3.64.24.43.06.9-.2.53-.62.14l-.68-.64q-.72-.68-.72.31.01 1.55 1.49 1.66.8.06.14.52-.29.19-.65.11-.76-.19-.54.56.22.73 1.43 1.42l-8.4 2.72-2.75-4.78q1.22-8.76.31-17.65a1.24 1.21-73.6 0 0-.44-.83l-1.3-1.07q-.19-.93.36-1.01m7.488 4.257a.98.52-3.7 0 0-1.012-.456.98.52-3.7 0 0-.944.582.98.52-3.7 0 0 1.012.456.98.52-3.7 0 0 .944-.582"/><path d="M305.98 111.72q-1.52.75-1.97-.77 1.16.11 1.97.77"/><ellipse rx=".98" ry=".52" transform="rotate(-3.7 1909.557 -4681.527)"/><path d="M324.92 127.6q-.75.9.22 2.73a1 .97-10.2 0 0 .76.51l.81.1q.21.27.19.41a.71.71 0 0 1-1.04.54c-3.73-1.97-10.17-.9-14.06-.12q-1.21-.69-1.43-1.42-.22-.75.54-.56.36.08.65-.11.66-.46-.14-.52-1.48-.11-1.49-1.66 0-.99.72-.31l.68.64q.42.39.62-.14.18-.47-.06-.9-1.22-2.15-3.42-3.64-.07-.05-.11.02l-.14.22q-.14.23.08.38.73.52.98 1.41.17.61-.42.85-.67.26-.37.95.52 1.21-.52.42-.2-.16-.41-.27-.66-.35-.61.4l.13 1.91q.01.15-.12.19l-.33.11a.35.35 0 0 1-.46-.25l-.68-2.83q-.13-.58.34-.92l.29-.2q.5-.36.42-.98-.14-1.11.16-2.22.18-.64-.36-1.02-.56-.4-1.33-.33-.56.06-.81-.42-.03-.05-.02-.11.04-.36.41-.37 1.54-.07 1.13-1.54-.21-.77.49-1.15l2.01-1.08q.51-.27.94.12.57.53.79 1.25a.65.6-43 0 1-.03.42l-1.37 2.98q-.24.5.26.25.68-.36 1.47-.29.5.05.43-.45-.04-.3-.21-.57-.31-.48-.03-.98c.96-1.76-.49-3.34-.18-5.16q8.93 5.56 14.63 13.71"/><path fill="#e95e77" d="m324.92 127.6 1.79 3.34-.81-.1a1 .97-10.2 0 1-.76-.51q-.97-1.83-.22-2.73"/><path d="M303.4 134.49q-.67.57-1.64.41.41-.72-.02-1.2-.43-.47-.83.02-.26.3-.26.72 0 .32.26.52.26.19.56.16c-1.01.68-.57 2.31.11 3.11q2.23 2.64 2.31 5.95.02.54.53.72 6.8 2.3 12.06 7.03-.01 1.46 1.39 2.18a.24.22 29.7 0 1 .1.32l-.16.27q-.21.36-.57.15-2.08-1.22-3.96.47-.55.5.18.64l.8.15q.6.11.8.68.17.46-.02.93-.22.55-.63.12-.24-.26-.55-.43-.64-.33-.84.36l-.19.7q-.13.45-.59.56-.93.22-1.74.8-.41.29-.4.79 0 1.78.88 3.17.1.14.12.31.04.35-.36.57a.52.51 52.3 0 1-.59-.08q-.52-.5-1.13-.14-.27.15-.58.16-.25.01-.42-.12-.78-.66-.52.33.6 2.38 2.96 2.86l-7.8.16q-.63.01-.68.63l-.31 3.58q-.06.67.57.89 1.64.58 2.67 1.61-1.57 1.72-1.51 4.32.01.39-.14.76-.19.43-.62.63-.22.11.01.2.06.03.11 0 .57-.25.72-.83.31-1.2 1.3-1.68.84-.4.33-1.18-.03-.05-.02-.1.09-.97.77-.26 1.12 1.16 2.61 1.42.42.19.79.9-1.4.26-2.37.96-.42.31-.41.82.06 2.15-2.24 3.28-.34.17-.32.54.1 1.43-.87 2.71-.34.46-.9.32l-.5-.11q-.46-.11-.82.21-.47.43-1.17.42-.5 0-.15-.36.38-.39.92-.44.73-.05.36-.68-.4-.68-1.79-.57l.13-.65q.84-.36.43-1.64.17-.2.28-.53.38.22.63-.04.28-.29.21-.64a.31.31 0 0 0-.48-.19q-.24.17-.46.6-.31.12-.52.47l.45-3.42 1.79.22q.59.08.41-.48-.43-1.29-1.81-2.18c-.16-3.46.8-7.05 1.01-9.94.29-3.88.93-7.61 1-11.49q.08-5.15.14-10.43 0-.72.41-1.32.27-.4.19-.86-.61-3.51-3.04-5.21a1.02 1 15.7 0 1-.44-.77q-.17-2.23.69-4.44.63.39.73-.18.13-.69-.45-1.44-.25-1.02.35-1.56zm8.507 21.753a.69.39-24.6 0 0-.79-.068.69.39-24.6 0 0-.464.642.69.39-24.6 0 0 .79.068.69.39-24.6 0 0 .464-.642m-.967 2.187a.29.29 0 0 0-.29-.29.29.29 0 0 0-.29.29.29.29 0 0 0 .29.29.29.29 0 0 0 .29-.29m-3.195 4.32a.86.53 132.9 0 0 .973-.27.86.53 132.9 0 0 .197-.99.86.53 132.9 0 0-.973.27.86.53 132.9 0 0-.197.99"/><path fill="#a46a89" d="M300.02 132.89q-.08-.83.28-1.62.58.75.45 1.44-.1.57-.73.18M301.76 134.9q-.14.11-.29.22-.3.03-.56-.16-.26-.2-.26-.52 0-.42.26-.72.4-.49.83-.02.43.48.02 1.2"/><path fill="#e95e77" d="M319.31 154.71q.05 1.79-.77 3.01-.55.84-.5-.17.03-.7-.32-1.23-.34-.52-.53.08-.31.97.31 1.74a.93.92-50.9 0 1 .1 1.01l-.68 1.31q-.44.85-.94.03l-.49-.81q-.04-.06-.12-.06-.15 0-.24.09-.24.24-.16.58c.61 2.26-.97 3.16-1.6 5.06q-.17.51.28.81 1.25.85 1.22 1.96l-4.41-.44q-2.36-.48-2.96-2.86-.26-.99.52-.33.17.13.42.12.31-.01.58-.16.61-.36 1.13.14a.52.51 52.3 0 0 .59.08q.4-.22.36-.57-.02-.17-.12-.31-.88-1.39-.88-3.17-.01-.5.4-.79.81-.58 1.74-.8.46-.11.59-.56l.19-.7q.2-.69.84-.36.31.17.55.43.41.43.63-.12.19-.47.02-.93-.2-.57-.8-.68l-.8-.15q-.73-.14-.18-.64 1.88-1.69 3.96-.47.36.21.57-.15l.16-.27a.24.22 29.7 0 0-.1-.32q-1.4-.72-1.39-2.18zm-6.55 8.066a1.25.57 38.4 0 0-.626-1.223 1.25.57 38.4 0 0-1.334-.33 1.25.57 38.4 0 0 .626 1.224 1.25.57 38.4 0 0 1.334.33"/><path d="M323.53 160.26q-.56.87-.43 1.76.1.62.6.23.3-.23.57-.74 2.89 4.42 2.61 9.96a.4.4 0 0 1-.54.35l-3.43-1.28q.67-.41.87-.84a.48.48 0 0 0-.44-.68q-.77-.01-1.25-.57a.64.64 0 0 0-.79-.16q-.67.34-.83 1.35l-5.6-1.52q.03-1.11-1.22-1.96-.45-.3-.28-.81c.63-1.9 2.21-2.8 1.6-5.06q-.08-.34.16-.58.09-.09.24-.09.08 0 .12.06l.49.81q.5.82.94-.03l.68-1.31a.93.92-50.9 0 0-.1-1.01q-.62-.77-.31-1.74.19-.6.53-.08.35.53.32 1.23-.05 1.01.5.17.82-1.22.77-3.01zm-2.07 5.16q-.42-.13-.84-.11-.33.03-.46.33-.1.22 0 .42.19.42.63.53.68.19 1.07.72.74 1.04 1.28-.12 1.02-2.22.02-3.78-.37-.57-1.03-.45l-.56.1a.47.46 57.2 0 0-.18.84q.58.41.6 1.11a.41.41 0 0 1-.53.41m-6.215.13a1.2.4 97.4 0 0 .552-1.139 1.2.4 97.4 0 0-.242-1.241 1.2.4 97.4 0 0-.552 1.139 1.2.4 97.4 0 0 .242 1.241"/><ellipse fill="#f45f64" rx=".69" ry=".39" transform="rotate(-24.6 514.596 -635.564)"/><circle cx="310.65" cy="158.43" r=".29" fill="#a46a89"/><path fill="#e95e77" d="M323.53 160.26q.48.5.74 1.25-.27.51-.57.74-.5.39-.6-.23-.13-.89.43-1.76"/><ellipse rx="1.25" ry=".57" transform="rotate(38.4 -76.71 528.655)"/><ellipse fill="#a46a89" rx=".86" ry=".53" transform="rotate(132.9 118.835 148.253)"/><path fill="#e95e77" d="M321.99 165.01q-.02-.7-.6-1.11a.47.46 57.2 0 1 .18-.84l.56-.1q.66-.12 1.03.45 1 1.56-.02 3.78-.54 1.16-1.28.12-.39-.53-1.07-.72-.44-.11-.63-.53-.1-.2 0-.42.13-.3.46-.33.42-.02.84.11a.41.41 0 0 0 .53-.41"/><ellipse fill="#a46a89" rx="1.2" ry=".4" transform="rotate(97.4 85.503 220.723)"/><path fill="#f45f64" d="m322.91 170.54-2.44-.9q.16-1.01.83-1.35a.64.64 0 0 1 .79.16q.48.56 1.25.57a.48.48 0 0 1 .44.68q-.2.43-.87.84"/><path fill="#e95e77" d="M304.91 174.55q2.2 1.25 3.56 3.28-1.49-.26-2.61-1.42-.68-.71-.77.26-.01.05.02.1.51.78-.33 1.18-.99.48-1.3 1.68-.15.58-.72.83-.05.03-.11 0-.23-.09-.01-.2.43-.2.62-.63.15-.37.14-.76-.06-2.6 1.51-4.32M299.67 179.79l.39-2.44q1.38.89 1.81 2.18.18.56-.41.48zM309.26 178.73q3.52 4.56 4.29 8.22c.99 4.66 2.1 8.37.35 13.42q-.17.47-.6.23-6.58-3.62-14.03-4.97-.31-.63-1.33-.69l1.06-9.11q1.39-.11 1.79.57.37.63-.36.68-.54.05-.92.44-.35.36.15.36.7.01 1.17-.42.36-.32.82-.21l.5.11q.56.14.9-.32.97-1.28.87-2.71-.02-.37.32-.54 2.3-1.13 2.24-3.28-.01-.51.41-.82.97-.7 2.37-.96m-2.15 1.42q-.21.2-.19.47a.32.32 0 0 0 .54.21q.25-.23.15-.55a.3.3 0 0 0-.5-.13m-3.23 7.577a1.56.77 129.9 0 0 1.59-.703 1.56.77 129.9 0 0 .41-1.69 1.56.77 129.9 0 0-1.59.702 1.56.77 129.9 0 0-.41 1.69"/><path d="M307.11 180.15a.3.3 0 0 1 .5.13q.1.32-.15.55a.32.32 0 0 1-.54-.21q-.02-.27.19-.47"/><path fill="#e95e77" d="M299.84 183.01q-.05-.14-.1-.27.22-.43.46-.6a.31.31 0 0 1 .48.19q.07.35-.21.64-.25.26-.63.04"/><path fill="#167a99" d="M299.74 182.74q.05.13.1.27-.11.33-.28.53-.3.02-.45.41l.11-.74q.21-.35.52-.47"/><path fill="#a46a89" d="M299.56 183.54q.41 1.28-.43 1.64-.18-.62-.02-1.23.15-.39.45-.41"/><ellipse rx="1.56" ry=".77" transform="rotate(129.9 108.85 164.511)"/><path d="M299.27 195.63q-1.3 2.74-1.26 5.51.01.49.31.88l2.46 3.26q-1.48.4-1.86 1.9a.72.71-84.8 0 1-.63.53q-.89.08-1.08-.97-.35-1.95-.81-2.82l1.54-8.98q1.02.06 1.33.69"/><path fill="#e95e77" d="M300.78 205.28q1.13 1.26 1.65 2.84-1.4 3.93 1.51 4.38-.06.66.12.4l-1.12.5q-.52.22-1.02-.05-.15-.08-.32-.08-.95.02-.41.8.98 1.45.42 3.35-.27.91-.73.07-.15-.28-.49-.2-.78.18-.4.88l.51.93q.25.46-.04.89-.96 1.4-1.04 3.02-.73-.39-1.22-.92l.44-.98q.21-.47-.05-.92-.45-.79-.38-1.66.04-.6-.32-1.09-1.19-1.63-.39-4.24a.43.41 85 0 1 .19-.24q.18-.11.36-.09.95.1.47-.77-1.37-2.5-3.16-4.67l1.04-3.51q.46.87.81 2.82.19 1.05 1.08.97a.72.71-84.8 0 0 .63-.53q.38-1.5 1.86-1.9"/><path d="M295.36 207.43q1.79 2.17 3.16 4.67.48.87-.47.77-.18-.02-.36.09a.43.41 85 0 0-.19.24q-.8 2.61.39 4.24.36.49.32 1.09-.07.87.38 1.66.26.45.05.92l-.44.98-4.49-2.38a.6.6 0 0 0-.88.44q-.38 2.57-.58 5.32-.12 1.66.88 3.82 3.17 6.82 2.41 14.75-.01-3.64-1.26-4.88-1-.98-.61.36.64 2.26.42 5.66-.04.5.33.83.33.29.77.47l-.22.69q-1.88-1.2-2.07-.49l-1.84-3.45q.99-.24.33-1.53-.21-.43.04-.83.72-1.16.6-2.52-.02-.27-.29-.24l-.28.02a.34.33 88.1 0 0-.3.33q-.03 1.94-1.02 3.46-1.27-.66-1.7 3.72-.28-1.11-1.18-1.38l2.72-9.28q2.89-3.36.92-3.14.23-3.39.39-6.74.16-3.46 1.03-6.63 1.55-5.71 3.04-11.04m-2.45 28.37q.07-.98.18-1.82.09-.69-.29-.11-.78 1.16-1.05 2.57-.15.78.54.4.56-.31.62-1.04M302.43 208.12q1.25 2.22 1.51 4.38-2.91-.45-1.51-4.38M304.06 212.9q1.26 5.07.86 10.29-.35-.04-.46.31-.13.39.02.76.06.13.2.05.06-.03.13-.06.16.56.01 1.21 0-.15-.06-.28-.08-.2-.23-.05-.73.73-2.39.63l-2.72-2.75q.08-1.62 1.04-3.02.29-.43.04-.89l-.51-.93q-.38-.7.4-.88.34-.08.49.2.46.84.73-.07.56-1.9-.42-3.35-.54-.78.41-.8.17 0 .32.08.5.27 1.02.05zm.135 11.237a.63.51-41 0 0-.81.028.63.51-41 0 0-.14.798.63.51-41 0 0 .81-.028.63.51-41 0 0 .14-.798"/><path fill="#e95e77" d="M304.92 223.19q.09.54-.11 1.06-.07.03-.13.06-.14.08-.2-.05-.15-.37-.02-.76.11-.35.46-.31"/><ellipse fill="#e95e77" rx=".63" ry=".51" transform="rotate(-41 452.153 -293.893)"/><path fill="#e95e77" d="M304.82 225.46q.02 1.05-.46 1.85-.29.47-.79.25-.78-.34-1.43-1.8 1.66.1 2.39-.63.15-.15.23.05.06.13.06.28"/><path fill="#a46a89" d="m289.98 234.98.92-3.14q1.97-.22-.92 3.14"/><path fill="#e95e77" d="M292.91 235.8q-.06.73-.62 1.04-.69.38-.54-.4.27-1.41 1.05-2.57.38-.58.29.11-.11.84-.18 1.82"/><path fill="#f45f64" d="m291.06 243.23-.92-1.31q.99-1.52 1.02-3.46a.34.33 88.1 0 1 .3-.33l.28-.02q.27-.03.29.24.12 1.36-.6 2.52-.25.4-.04.83.66 1.29-.33 1.53M295.54 244.04q.13 1.2-.35 2.44-.44-.18-.77-.47-.37-.33-.33-.83.22-3.4-.42-5.66-.39-1.34.61-.36 1.25 1.24 1.26 4.88M288.44 245.64q-.4.72.89 2.15-.19.9.39.98 1.82 3.15 1.11 6.53a.51.51 0 0 1-.88.23c-2.24-2.53-4.45-4.14-3.37-7.97q.46-1.63.68-3.3.9.27 1.18 1.38M294.97 247.17q-.05 1.06-1.01 1.17-.85.09-1.06-1.66.19-.71 2.07.49"/><path d="M289.72 248.77q-.58-.08-.39-.98.48.45.39.98"/></svg>