<svg xmlns="http://www.w3.org/2000/svg" viewBox="0 0 382 382"><g fill="none" stroke-width="2"><path stroke="#07452f" d="m244.61 72.44-2.26 1.39M241.01 73.71l-2.23-5.3q-.23-.53-.69-.18-.47.36-.78.85a.69.68-50.9 0 0 .08.83q.85.91.34 1.82-1.26 2.25-5.75 3.28M219.22 70.85q-.68-.45-1.58-.62-.51-.09-.76-.54l-.23-.44q-.36-.66-.62.15-.08.24-.29.36a.45.44 82.5 0 1-.64-.5q.12-.55.64-.78" vector-effect="non-scaling-stroke"/><path stroke="#3b1d10" d="M252.28 80.29q.74-.36.61-.99-.19-.82-.66-.07-.17.26-.45.85" vector-effect="non-scaling-stroke"/><path stroke="#663122" d="m211.58 61.1 2.13 4.32q.34.7-.44.73h-.29a1.08 1.06-12.7 0 1-1.01-.63l-1.04-2.31q-.03-.09-.12-.05l-.25.1q-.15.06-.11.21l.86 3.07a1.64 1.63 57.5 0 0 2.82.63l1.07-1.26" vector-effect="non-scaling-stroke"/><path stroke="#07452f" d="M215.2 65.91q.94.28 1.27 1.62M302.02 88.28l-.07 2.12a.42.42 0 0 0 .79.21l.93-1.75M304.57 89.24l-3.93 6.86q-.25.44-.15.93.2 1.03-.77 1.63-1.82 1.11-3.09-.57a.07.06 21 0 0-.12.05q.69 2.94.26 4.88M290.7 106.58q-.21.09-.27.22a.41.4-71.9 0 0 .27.55q.28.07.48-.13M303.98 110.88l1.74 3.54q.31.62-.38.67-.29.01-.51-.12a.5.5 0 0 0-.68.7q.38.61 1 1.02a.56.56 0 0 0 .87-.43l.04-.49q.05-.63.66-.46.26.08.28.35a.29.28 74.5 0 0 .42.24q1.44-.8 2.04-2.44M309.7 113.6q-.01 1.22 1.05 1.32.42.04.75-.22M312.21 115.23q-.02.12-.06.26-.05.23-.29.25c-2.69.31-5.73 3.79-2.32 6.21q.61.43.4-.29-.12-.37-.36-.67-.44-.53.19-.82.24-.1.47 0 .58.28.63.92l.09 1.16q.06.81.73.34.11-.08.24-.13.76-.32.82.51l.13 1.82q.04.44.27.82.8 1.27.47 2.91-.05.25-.28.13l-.25-.12q-.07-.03-.05-.11.43-1.72-.81-2.58a.6.58 51.9 0 0-.53-.07q-.36.14-.47.45-.19.52.14.98.4.55.55 1.23.09.38-.3.38h-.3a.22.21-85.4 0 1-.21-.25q.17-1.06-.5-1.69-.47-.45.02-.87.83-.73.27-1.58-.27-.39-.74-.43l-1.89-.18" vector-effect="non-scaling-stroke"/><path stroke="#199163" d="M308.27 123.81q-.41-.58-1.03-.85" vector-effect="non-scaling-stroke"/><path stroke="#07452f" d="M307.24 122.96q.02-.94-.46-1.52-.38-.46-.99-.46-1.27 0-2.22-.66-.76-.53-.69.39.02.32-.11.6-.31.7-.59-.01l-.88-2.28M253.64 81.47q1.26-.53 1.91-.51a2.11 2.01 76.4 0 0 1.78-3.08q-.58-1.12-1.96-1.73-.24-.11-.45.05-.34.28-.1.65.17.25.07.53-.25.71-.81.22-.22-.19-.49-.29-.39-.15-.65.19-.14.18-.36.15-.82-.09-.13-.54.57-.39.71-.96.25-1.1-1.06-1.33" vector-effect="non-scaling-stroke"/><path stroke="#663122" d="m212.31 61.12 2.88 4.18" vector-effect="non-scaling-stroke"/><path stroke="#6d7651" d="m215.19 65.3.01.61" vector-effect="non-scaling-stroke"/><path stroke="#124d34" d="M306.19 111.9q-.98 1.8 1.02 2.9.29.15.51.02.4-.24.1-.59-.74-.86-.09-1.63" vector-effect="non-scaling-stroke"/><path stroke="#245445" d="M313.26 115.93q-1.6.36-2.1 1.41-.27.56.35.57.59 0 .81-.6a.47.46-61 0 1 .72-.21l.23.19q.29.22.07.51l-.86 1.12a.72.72 0 0 0 .05.93l.66.69a.42.41-45.5 0 0 .6-.01q.11-.12.27-.17.44-.16.82.12.64.49 1.46.67.54.12.72.65.08.24.03.49-.15.76-.75.27-.7-.57-1.66-.44-.53.06-.53.6l.02.58a.39.39 0 0 0 .56.34l.39-.19q.52-.24.93.16l1.19 1.14q.63.62.71-.26.08-.98.02-2.01c-.07-1.22-.82-1.55-1.07-2.68q-.15-.67-.84-.66-.82 0-1.62-.16-.19-.04-.35-.15-.14-.1-.19-.25-.17-.48.34-.56.63-.1 1.05-.5M319.75 121.59q-.78.5-.67 1.29.09.67.77.94.91.36 2.14.03" vector-effect="non-scaling-stroke"/><path stroke="#403444" d="M323.52 125.72q-.7 1.07.26 1.74.51.35 1.05.09" vector-effect="non-scaling-stroke"/><path stroke="#663122" d="M325.11 131.5q.51-.38.72-.77.28-.52-.25-.77-1.34-.64-1.8-2.05-.17-.53-.6-.18-.16.13-.38.16-.52.06-.8-.38-.16-.24-.5-.19-.6.09-.09.42 1.91 1.27 1.74 3.15" vector-effect="non-scaling-stroke"/><path stroke="#403444" d="M318.55 130.86q-.83-.82-2.15-.83-.28 0-.28-.28v-.26a.47.46 88 0 1 .43-.47q2.61-.19 3.61-2.43.26-.57.89-.61.33-.02.57-.23.65-.56-.16-.85-.95-.33-1.88.01-.55.2-.55.79 0 .79-.15 1.55-.09.49-.53.78-.41.27-.85.09-.73-.29-.18-.85l.34-.35q.64-.64-.25-.79-1.06-.17-1.88-.88-.49-.41-.54.23-.07 1.01.72 1.71.32.28.41.7.14.71-.53 1.01-.51.22-.46.78l.13 1.51" vector-effect="non-scaling-stroke"/><path stroke="#245445" d="M311.94 131.69v-1.24q0-.61-.54-.31-.66.36-.61 1.76M301.51 134.99q.01-2.57 3.28-2.78a.15.14 2.8 0 1 .16.17q-.05.21.23.23.67.05.29-.5-.78-1.15-.8-2.56-.01-.61-.4-.13-.17.21-.14.46.07.52-.27.92-1.4 1.68-3.78 1.99" vector-effect="non-scaling-stroke"/><path stroke="#3b1d10" d="M300.3 130.9q.45.07.53-.39.1-.59-.3-.53" vector-effect="non-scaling-stroke"/><path stroke="#663122" d="M300.75 128.97q1.03-.24 1.19.32.05.2-.04.39t-.29.28q-.78.36-.02.76.34.18.75.22.66.05.6-.61-.16-1.62-2.06-2.33" vector-effect="non-scaling-stroke"/><path stroke="#124d34" d="M307.24 122.96q.06.6-.21.53-.62-.18-.86-.74-.23-.55-.82-.42-.78.18-1.29.84a.41.41 0 0 0 .24.65q2.58.56 3.88 2.95.02.03.05.01l.21-.14q.2-.15.06-.35-.82-1.14-.23-2.48" vector-effect="non-scaling-stroke"/><path stroke="#07452f" d="m306.11 89.88-.84 1.94q-.21.48.11.9 2.28 3.03 3.83 6.49.02.05.07.04l.25-.08a.26.26 0 0 0 .17-.35l-.67-1.74q-.25-.65.39-.96.82-.4 1.56.27.65.59.97-.22.28-.67-.04-1.36a1.46 1.39 88.1 0 0-.7-.69q-2.2-1-2.93-3.09" vector-effect="non-scaling-stroke"/><path stroke="#124d34" d="M301.68 101.21q.69-1.41.16-1.99-.36-.38-.62.07-.44.76.16 1.98" vector-effect="non-scaling-stroke"/><path stroke="#07452f" d="M220.72 61.34q-.76 1.05-1.65 2.06-.34.39-.89.37-.1 0-.14-.08-.35-.64-.85.02-.78 1.04-2 1.59" vector-effect="non-scaling-stroke"/><path stroke="#245445" d="M300.97 135.54q-.79.12-1.24-.76M303.85 144.66q-1.2.75-.79 1.94a.45.44-41.2 0 0 .82.05q.37-.74.29-1.59" vector-effect="non-scaling-stroke"/><path stroke="#663122" d="M306.96 145.94q-.68-.14-1.34-.04-.55.08-.48.63.04.33.4.39a.49.49 0 0 1 .3.81q-.87.97-.71 2.41.09.81.57.16 1.09-1.46 1.21-3.05.03-.5.48-.72l.41-.22M309.09 146.95q1.89 2.82 2.25 1.22M315.86 168.35q3.09-2.01-1.76-.79M312.85 167.87q.35-1.58 2.21-1.87a.9.88-87.5 0 0 .73-.68q.33-1.36-.06-2.63-.16-.54-.71-.56-.61-.02-.79.55-.14.45-.61.42a.76.75 77.2 0 1-.6-.38q-.45-.78-1.22-1.27-.36-.22-.59.13l-.18.28q-.25.37.09.65 1.54 1.27 3.02.64.46-.2.78.19.89 1.09-.36 2.04-1.79 1.37-2.26 2.35" vector-effect="non-scaling-stroke"/><path stroke="#245445" d="M310.51 167.69q-.41-1.53-2.03-1.65-.27-.02-.27.25v.25q.01.43.43.43.95 0 1.43.69" vector-effect="non-scaling-stroke"/><path stroke="#07452f" d="m302.06 173.12-.11 3.75q-.02.55-.39.96l-1.28 1.41q-.38.42-.42.98-.18 2.86 1.6 5.4.14.21.33.05l.35-.26a.42.42 0 0 1 .66.2q.43 1.34-.6 2.47" vector-effect="non-scaling-stroke"/><path stroke="#663122" d="M302.2 188.08q-.69.05-1.29-.5-.36-.33-.86-.3-.58.04-1.05.44a.03.03 0 0 0 .01.05q1.82.26 2.75 1.07" vector-effect="non-scaling-stroke"/><path stroke="#07452f" d="M301.76 188.84q.44.47-.34 1.54-.32.44.15.72 1.33.79 1.36 2.08a1.27 1.27 0 0 1-.63 1.13l-2.28 1.34" vector-effect="non-scaling-stroke"/><path stroke="#124d34" d="M302.29 207.76q-.77.04-1.07.32a.52.52 0 0 0-.05.71l.7.86q.35.43.08.92-.38.73-1.07 1.16-.68.43-.63-.36.03-.6-.29-1.04-.45-.62-.8.06-.16.31-.1.66c.19 1.15 1.29 1.25 1.06 2.9q-.06.49.26.86l.45.5q.11.12.06.28-.05.2-.24.28-.3.15-.44-.16l-.27-.62a.39.38 69.3 0 0-.45-.21q-.17.05-.25.17-.28.41.06.76l1.29 1.34q.45.47-.12.78-.3.17-.28.55.08 1.02.96.5 2.42-1.4 3.74-.95" vector-effect="non-scaling-stroke"/><path stroke="#245445" d="M304.88 218.7q-.92.24-.66 1.54.13.65.72.92" vector-effect="non-scaling-stroke"/><path stroke="#07452f" d="M304.91 221.97q-.56.5-.02.96" vector-effect="non-scaling-stroke"/><path stroke="#124d34" d="M304.59 226.73q-.34-.69-.85-.63-.63.07-.76.87" vector-effect="non-scaling-stroke"/><path stroke="#403444" d="M295.61 242.85q-.45-.72-1.01-.55a.66.66 0 0 0-.39.94q.57 1.04 1.41.56" vector-effect="non-scaling-stroke"/><path stroke="#07452f" d="M295.38 245.96q-.01-.53-.45-.58a.43.42 25.2 0 0-.37.13l-1.56 1.65M290.47 250.34q-1.64-.05-3.97 1.21" vector-effect="non-scaling-stroke"/><path stroke="#663122" d="m288.79 239.78 1.46.7q.49.24.21-.23-.44-.74-1.45-1.32" vector-effect="non-scaling-stroke"/><path stroke="#245445" d="M301.77 161.78q1.99-1.29 3.43-1.14.4.05.7-.22.46-.42 1.15-.5 1.16-.13.13-.69-.66-.36-1.67-.23a.44.43-1.7 0 0-.37.39q-.1 1.21-1.46.93-1.49-.31-.91-1.71l1.93-4.65q.37-.89-.5-.47-1.18.58-2.06 2.93" vector-effect="non-scaling-stroke"/><path stroke="#124d34" d="M303.99 212.83q-.95-.09-1.64.2-.72.3-.1.76l1.88 1.4q.24.17.14.45-.17.51-.74.44a.35.35 0 0 0-.39.31l-.03.31q-.04.43.39.38l1.21-.13" vector-effect="non-scaling-stroke"/><path stroke="#07452f" d="M303.36 173.56q-.43.41-.13 1.04a.46.46 0 0 0 .78.1q.19-.25.04-.7" vector-effect="non-scaling-stroke"/><path stroke="#6d7651" d="M306.25 175.6q-.34.17-.35.36" vector-effect="non-scaling-stroke"/><path stroke="#07452f" d="M305.9 175.96q-.22-.21-.48-.1-.38.19-.32.61.52 3.35 3.27 5.47.31.24.34.63.03.34-.31.47a.62.61-10.2 0 0-.41.58q0 2.58 2.17 1.94" vector-effect="non-scaling-stroke"/><path stroke="#2b9973" d="M310.16 185.56q.9.3 1.68-.22.28-.19.05-.7" vector-effect="non-scaling-stroke"/><path stroke="#07452f" d="M311.89 184.64q.2-.05.92.32" vector-effect="non-scaling-stroke"/><path stroke="#6d7651" d="M301.76 188.84q-.1-.51.44-.76" vector-effect="non-scaling-stroke"/><path stroke="#663122" d="M309.09 178.56q-.78.14-2.12-1.28-.87-.91-1.07-1.32" vector-effect="non-scaling-stroke"/><path stroke="#245445" d="M311.89 184.64q-.93-.47-1.73.92" vector-effect="non-scaling-stroke"/><path stroke="#3b1d10" d="M215.11 63.54q-.05.63.53.27.47-.29-.03-.53-.47-.22-.5.26" vector-effect="non-scaling-stroke"/><path stroke="#245445" d="M305.24 99.28q1.88-.41 1.69-1.66-.16-1.03-.89-.29-.62.63-1.17 1.38-.56.77.37.57M308.93 129.74q.05.51.37.88.5.58.62-.18.22-1.39-1.12-1.89-1.88-.7-3.11-2.33-.1-.14-.25-.03l-.2.15a.29.29 0 0 0-.05.43q.63.68.97 1.5.26.62.93.59.65-.04 1.24.15.55.16.6.73M308.195 131.99a1.04.71 62.2 0 0 .143-1.251 1.04.71 62.2 0 0-1.113-.589 1.04.71 62.2 0 0-.143 1.251 1.04.71 62.2 0 0 1.113.589" vector-effect="non-scaling-stroke"/><path stroke="#124d34" d="M313.19 130.62a.35.35 0 0 0 .65.17q.19-.29-.06-.56a.29.29 0 0 0-.35-.05q-.25.14-.24.44" vector-effect="non-scaling-stroke"/><path stroke="#663122" d="m308 156.15-1.42.1q-.73.05-.07.36l2 .95q.51.24.97-.08.64-.43 1.42-.61 1.77-.42-.01-.78-2.18-.44-1.48-2.15.11-.25.03-.5-.07-.29-.24-.53a.56.56 0 0 1 .08-.74q1.4-1.22 2.38-2.75.03-.05-.02-.09l-.21-.16q-.21-.17-.38.05c-.88 1.22-2.65 2.6-2.94 4.07q-.17.89.41 1.47 1.26 1.27-.52 1.39" vector-effect="non-scaling-stroke"/><path stroke="#3b1d10" d="M310.09 152.49a.22.22 0 0 0 .21.33q.33-.05.16-.33-.18-.31-.37 0M312.76 153.64a.3.3 0 0 0-.24-.47q-.21 0-.33.16-.17.25.1.4.29.16.47-.09" vector-effect="non-scaling-stroke"/><path stroke="#245445" d="M306.17 154.51a.23.23 0 0 0 .35.22q.29-.16.14-.45-.03-.05-.08-.07-.39-.11-.41.3" vector-effect="non-scaling-stroke"/><path stroke="#663122" d="m311.72 159.07 3.27 1.87a.11.04 33.7 0 0 .11.03l.12-.22q.17-.29-.14-.41-1.44-.53-2.3-1.74-.37-.51-.94-.26l-2.17.92q-.96.4.06.63.81.19 1.06-.48.26-.73.93-.34M307.09 161.28l-.65-.26q-.86-.34-.38.45.37.61.97.98.43.26.85-.02.77-.52 1.68-.57.32-.02.27-.34l-.06-.33q-.04-.28-.32-.21l-1.37.36q-.5.13-.99-.06" vector-effect="non-scaling-stroke"/><path stroke="#245445" d="M303.27 164.11q-.26-.12-.5 0-.7.34-.14.88.51.49.52 1.18.01.52.49.33 1.01-.39 1.5-1.31.22-.42.69-.52.51-.11.87-.47.46-.46-.17-.62-.94-.25-1.5-1.06-.25-.36-.69-.44-.23-.04-.41.06-.54.3-.22.82.21.34.22.72.02.75-.66.43M310.67 164.64q.36.47.95.16a.31.31 0 0 0 .03-.53q-.39-.28-.87-.07-.34.14-.11.44" vector-effect="non-scaling-stroke"/><path stroke="#663122" d="M317.53 165.806a.97.5 129.7 0 0 1.005-.427.97.5 129.7 0 0 .235-1.065.97.5 129.7 0 0-1.005.427.97.5 129.7 0 0-.235 1.065M318.8 167.57q-.09-.34-.38-.25a.33.33 0 0 0-.15.53q.37.41.52-.1a.35.33-43.4 0 0 .01-.18" vector-effect="non-scaling-stroke"/><path stroke="#245445" d="M296.61 205.71q-.4-.27-.67.13a.5.5 0 0 0 .22.74q1.67.72 3.02 2.09.51.53.38-.2-.14-.81-.85-1.38-.38-.3-.31-.78.05-.29.3-.47.27-.18.15-.49-.08-.22-.35-.24-.48-.03-.72.38-.12.2-.34.29-.43.2-.83-.07M296.384 211.55a1.09.74 115.9 0 0 1.142-.657 1.09.74 115.9 0 0-.19-1.304 1.09.74 115.9 0 0-1.142.658 1.09.74 115.9 0 0 .19 1.303" vector-effect="non-scaling-stroke"/><path stroke="#3b1d10" d="M298.76 213.766a1.01.33 42 0 0-.53-.921 1.01.33 42 0 0-.97-.43 1.01.33 42 0 0 .53.92 1.01.33 42 0 0 .97.43" vector-effect="non-scaling-stroke"/><path stroke="#245445" d="M297.37 218.1q-.52-.05-.94.24-.04.02-.06.06-.06.13-.03.27.08.4.47.28 1.02-.3 1.83-1.1a.49.49 0 0 0 .07-.59q-1.02-1.7-1.91-3.48-.4-.81-1.27-.6a.35.34 61.2 0 0-.16.57q1.51 1.61 2.39 3.82.24.58-.39.53" vector-effect="non-scaling-stroke"/><path stroke="#124d34" d="M300.08 220.38q.02.52.51.45.31-.04.24-.34t-.38-.39q-.39-.12-.37.28" vector-effect="non-scaling-stroke"/><path stroke="#245445" d="M302.23 220.58q-.31.59-.12 1.19.18.57.58.12.53-.61.16-1.31-.31-.58-.62 0" vector-effect="non-scaling-stroke"/><path stroke="#07452f" d="M301.16 223.26q.65 1.62 2.07 1.61.58-.01.43-.57-.2-.73-1.22-1.26" vector-effect="non-scaling-stroke"/><path stroke="#124d34" d="M302.44 223.04q-1.32-.7-2.19-.56-.7.11-.05.38l.96.4" vector-effect="non-scaling-stroke"/><path stroke="#199163" d="M302.44 223.04q-.91-.42-1.28.22" vector-effect="non-scaling-stroke"/><path stroke="#07452f" d="M288.782 249.789a1.05.5 15.4 0 0-.88-.761 1.05.5 15.4 0 0-1.144.203 1.05.5 15.4 0 0 .88.761 1.05.5 15.4 0 0 1.144-.203" vector-effect="non-scaling-stroke"/></g><path fill="#0d895d" d="m244.61 72.44-2.26 1.39-1.34-.12-2.23-5.3q-.23-.53-.69-.18-.47.36-.78.85a.69.68-50.9 0 0 .08.83q.85.91.34 1.82-1.26 2.25-5.75 3.28-3.85-.44-8.75-3.78-.83-.57-4.01-.38-.68-.45-1.58-.62-.51-.09-.76-.54l-.23-.44q-.36-.66-.62.15-.08.24-.29.36a.45.44 82.5 0 1-.64-.5q.12-.55.64-.78 2.32.76 4.51.37.55-.1.96-.49 8.11-7.76 20.08-8.28 10.15-.44 13.37.37 2.88.73 5.72 1.71 6.06 2.1-.29 2.99-7.55 1.05-15.48 7.29"/><path d="m211.58 61.1 2.13 4.32q.34.7-.44.73h-.29a1.08 1.06-12.7 0 1-1.01-.63l-1.04-2.31q-.03-.09-.12-.05l-.25.1q-.15.06-.11.21l.86 3.07a1.64 1.63 57.5 0 0 2.82.63l1.07-1.26q.94.28 1.27 1.62-.45.4-.73.95-.52.23-.64.78a.45.44 82.5 0 0 .64.5q.21-.12.29-.36.26-.81.62-.15l.23.44q.25.45.76.54.9.17 1.58.62-2.4.16-4.69-.16-2.17-.31-3.89.03-4.07.81-8.17.27c-1.83-.24-3.93-.12-5.68.55q-4.85 1.88-9.24 2.97-3.12.77-1.21-1.81c3.53-4.76 7.58-8.36 13.25-10q5.81-1.68 11.99-1.6"/><path fill="#cc6244" d="m212.31 61.12 2.88 4.18.01.61-1.07 1.26a1.64 1.63 57.5 0 1-2.82-.63l-.86-3.07q-.04-.15.11-.21l.25-.1q.09-.04.12.05l1.04 2.31a1.08 1.06-12.7 0 0 1.01.63h.29q.78-.03.44-.73l-2.13-4.32z"/><path d="M220.72 61.34q-.76 1.05-1.65 2.06-.34.39-.89.37-.1 0-.14-.08-.35-.64-.85.02-.78 1.04-2 1.59l-2.88-4.18zm-5.61 2.2q-.05.63.53.27.47-.29-.03-.53-.47-.22-.5.26"/><path fill="#0d895d" d="M216.47 67.53q-.33-1.34-1.27-1.62l-.01-.61q1.22-.55 2-1.59.5-.66.85-.02.04.08.14.08.55.02.89-.37.89-1.01 1.65-2.06 2.69 0 4.24.38 1.96.49.07 1.21-4.4 1.69-8.56 4.6"/><path fill="#76391f" d="M215.11 63.54q.03-.48.5-.26.5.24.03.53-.58.36-.53-.27"/><path fill="#0d895d" d="m302.02 88.28-.07 2.12a.42.42 0 0 0 .79.21l.93-1.75.9.38-3.93 6.86q-.25.44-.15.93.2 1.03-.77 1.63-1.82 1.11-3.09-.57a.07.06 21 0 0-.12.05q.69 2.94.26 4.88l-6.07 3.56q-.21.09-.27.22a.41.4-71.9 0 0 .27.55q.28.07.48-.13 2.9 1.1 6.13 1.22 1.66.06 6.67 2.44l1.74 3.54q.31.62-.38.67-.29.01-.51-.12a.5.5 0 0 0-.68.7q.38.61 1 1.02a.56.56 0 0 0 .87-.43l.04-.49q.05-.63.66-.46.26.08.28.35a.29.28 74.5 0 0 .42.24q1.44-.8 2.04-2.44l.24.14q-.01 1.22 1.05 1.32.42.04.75-.22.41.21.71.53-.02.12-.06.26-.05.23-.29.25c-2.69.31-5.73 3.79-2.32 6.21q.61.43.4-.29-.12-.37-.36-.67-.44-.53.19-.82.24-.1.47 0 .58.28.63.92l.09 1.16q.06.81.73.34.11-.08.24-.13.76-.32.82.51l.13 1.82q.04.44.27.82.8 1.27.47 2.91-.05.25-.28.13l-.25-.12q-.07-.03-.05-.11.43-1.72-.81-2.58a.6.58 51.9 0 0-.53-.07q-.36.14-.47.45-.19.52.14.98.4.55.55 1.23.09.38-.3.38h-.3a.22.21-85.4 0 1-.21-.25q.17-1.06-.5-1.69-.47-.45.02-.87.83-.73.27-1.58-.27-.39-.74-.43l-1.89-.18q-.41-.58-1.03-.85.02-.94-.46-1.52-.38-.46-.99-.46-1.27 0-2.22-.66-.76-.53-.69.39.02.32-.11.6-.31.7-.59-.01l-.88-2.28-.21-6.12a3.1 3.1 0 0 0-2.71-2.97q-6.5-.84-11.45-4.21-2.26-1.55-2.84-4.84a1.33 1.32-78.1 0 0-.55-.85l-2.1-1.47a.68.67 35.1 0 1-.17-.94q3.37-4.85.26-9.34-.35-.5-.93-.69-9.14-2.97-11.41-2.83-6.37.38-11.83.19-.5-.02-.84-.39l-2.88-3.09q1.26-.53 1.91-.51a2.11 2.01 76.4 0 0 1.78-3.08q-.58-1.12-1.96-1.73-.24-.11-.45.05-.34.28-.1.65.17.25.07.53-.25.71-.81.22-.22-.19-.49-.29-.39-.15-.65.19-.14.18-.36.15-.82-.09-.13-.54.57-.39.71-.96.25-1.1-1.06-1.33c11.73-6.79 25.96-9.41 38.71-5.05q3.28 1.12-.06 2.07-10.2 2.93-19.37 11.22a.34.34 0 0 0 .12.58q2.86.92 6.16 2.12 1.89.69 4.45.47c6.75-.56 13.33-.2 19.91 2.05"/><path d="m241.01 73.71-9.03 1.3q4.49-1.03 5.75-3.28.51-.91-.34-1.82a.69.68-50.9 0 1-.08-.83q.31-.49.78-.85.46-.35.69.18zM244.61 72.44q5.47 5.61 7.49 2.38 1.31.23 1.06 1.33-.14.57-.71.96-.69.45.13.54.22.03.36-.15.26-.34.65-.19.27.1.49.29.56.49.81-.22.1-.28-.07-.53-.24-.37.1-.65.21-.16.45-.05 1.38.61 1.96 1.73a2.11 2.01 76.4 0 1-1.78 3.08q-.65-.02-1.91.51-.76-.43-1.36-1.18.74-.36.61-.99-.19-.82-.66-.07-.17.26-.45.85-3.19-4.51-9.43-6.25z"/><path fill="#76391f" d="M252.28 80.29q-.33-.32-.5-.21.28-.59.45-.85.47-.75.66.07.13.63-.61.99"/><path d="m303.67 88.86-.93 1.75a.42.42 0 0 1-.79-.21l.07-2.12q1.02.14 1.65.58M306.11 89.88l-.84 1.94q-.21.48.11.9 2.28 3.03 3.83 6.49.02.05.07.04l.25-.08a.26.26 0 0 0 .17-.35l-.67-1.74q-.25-.65.39-.96.82-.4 1.56.27.65.59.97-.22.28-.67-.04-1.36a1.46 1.39 88.1 0 0-.7-.69q-2.2-1-2.93-3.09 4.41 2.32 8.32 6.64 1.17 1.3 1.69 2.61.19.48-.31.39-8.16-1.5-16.3.54.69-1.41.16-1.99-.36-.38-.62.07-.44.76.16 1.98l-4.61 1.75q.43-1.94-.26-4.88a.07.06 21 0 1 .12-.05q1.27 1.68 3.09.57.97-.6.77-1.63-.1-.49.15-.93l3.93-6.86zm-.87 9.4q1.88-.41 1.69-1.66-.16-1.03-.89-.29-.62.63-1.17 1.38-.56.77.37.57"/><path fill="#0d895d" d="M308.28 91.03q.73 2.09 2.93 3.09a1.46 1.39 88.1 0 1 .7.69q.32.69.04 1.36-.32.81-.97.22-.74-.67-1.56-.27-.64.31-.39.96l.67 1.74a.26.26 0 0 1-.17.35l-.25.08q-.05.01-.07-.04-1.55-3.46-3.83-6.49-.32-.42-.11-.9l.84-1.94q1.11.34 2.17 1.15"/><path fill="#48a889" d="M305.24 99.28q-.93.2-.37-.57.55-.75 1.17-1.38.73-.74.89.29.19 1.25-1.69 1.66"/><path fill="#249968" d="M301.68 101.21q-.57-.19-.3.06-.6-1.22-.16-1.98.26-.45.62-.07.53.58-.16 1.99"/><path d="m290.7 106.58.48.64q-.2.2-.48.13a.41.4-71.9 0 1-.27-.55q.06-.13.27-.22M306.19 111.9q-.98 1.8 1.02 2.9.29.15.51.02.4-.24.1-.59-.74-.86-.09-1.63.94.25 1.73.86-.6 1.64-2.04 2.44a.29.28 74.5 0 1-.42-.24q-.02-.27-.28-.35-.61-.17-.66.46l-.04.49a.56.56 0 0 1-.87.43q-.62-.41-1-1.02a.5.5 0 0 1 .68-.7q.22.13.51.12.69-.05.38-.67l-1.74-3.54q1.43.25 2.21 1.02"/><path fill="#249968" d="M306.19 111.9q.9.18 1.54.7-.65.77.09 1.63.3.35-.1.59-.22.13-.51-.02-2-1.1-1.02-2.9"/><path d="M311.5 114.7q-.33.26-.75.22-1.06-.1-1.05-1.32 1.04.33 1.8 1.1M313.26 115.93q-1.6.36-2.1 1.41-.27.56.35.57.59 0 .81-.6a.47.46-61 0 1 .72-.21l.23.19q.29.22.07.51l-.86 1.12a.72.72 0 0 0 .05.93l.66.69a.42.41-45.5 0 0 .6-.01q.11-.12.27-.17.44-.16.82.12.64.49 1.46.67.54.12.72.65.08.24.03.49-.15.76-.75.27-.7-.57-1.66-.44-.53.06-.53.6l.02.58a.39.39 0 0 0 .56.34l.39-.19q.52-.24.93.16l1.19 1.14q.63.62.71-.26.08-.98.02-2.01c-.07-1.22-.82-1.55-1.07-2.68q-.15-.67-.84-.66-.82 0-1.62-.16-.19-.04-.35-.15-.14-.1-.19-.25-.17-.48.34-.56.63-.1 1.05-.5l4.46 4.07q-.78.5-.67 1.29.09.67.77.94.91.36 2.14.03l1.53 1.87q-.7 1.07.26 1.74.51.35 1.05.09l2.04 3.61a.49.48-28.1 0 1-.21.67q-.65.32-1.55-.33.51-.38.72-.77.28-.52-.25-.77-1.34-.64-1.8-2.05-.17-.53-.6-.18-.16.13-.38.16-.52.06-.8-.38-.16-.24-.5-.19-.6.09-.09.42 1.91 1.27 1.74 3.15l-4.6-.03q-.83-.82-2.15-.83-.28 0-.28-.28v-.26a.47.46 88 0 1 .43-.47q2.61-.19 3.61-2.43.26-.57.89-.61.33-.02.57-.23.65-.56-.16-.85-.95-.33-1.88.01-.55.2-.55.79 0 .79-.15 1.55-.09.49-.53.78-.41.27-.85.09-.73-.29-.18-.85l.34-.35q.64-.64-.25-.79-1.06-.17-1.88-.88-.49-.41-.54.23-.07 1.01.72 1.71.32.28.41.7.14.71-.53 1.01-.51.22-.46.78l.13 1.51-3.32.5v-1.24q0-.61-.54-.31-.66.36-.61 1.76l-9.28 3.09q.01-2.57 3.28-2.78a.15.14 2.8 0 1 .16.17q-.05.21.23.23.67.05.29-.5-.78-1.15-.8-2.56-.01-.61-.4-.13-.17.21-.14.46.07.52-.27.92-1.4 1.68-3.78 1.99-.04-.99.22-1.89.45.07.53-.39.1-.59-.3-.53.02-.55.22-1.01 1.03-.24 1.19.32.05.2-.04.39t-.29.28q-.78.36-.02.76.34.18.75.22.66.05.6-.61-.16-1.62-2.06-2.33l.42-8.98.88 2.28q.28.71.59.01.13-.28.11-.6-.07-.92.69-.39.95.66 2.22.66.61 0 .99.46.48.58.46 1.52.06.6-.21.53-.62-.18-.86-.74-.23-.55-.82-.42-.78.18-1.29.84a.41.41 0 0 0 .24.65q2.58.56 3.88 2.95.02.03.05.01l.21-.14q.2-.15.06-.35-.82-1.14-.23-2.48l1.89.18q.47.04.74.43.56.85-.27 1.58-.49.42-.02.87.67.63.5 1.69a.22.21-85.4 0 0 .21.25h.3q.39 0 .3-.38-.15-.68-.55-1.23-.33-.46-.14-.98.11-.31.47-.45a.6.58 51.9 0 1 .53.07q1.24.86.81 2.58-.02.08.05.11l.25.12q.23.12.28-.13.33-1.64-.47-2.91-.23-.38-.27-.82l-.13-1.82q-.06-.83-.82-.51-.13.05-.24.13-.67.47-.73-.34l-.09-1.16q-.05-.64-.63-.92-.23-.1-.47 0-.63.29-.19.82.24.3.36.67.21.72-.4.29c-3.41-2.42-.37-5.9 2.32-6.21q.24-.02.29-.25.04-.14.06-.26.64.1 1.05.7m-4.33 13.81q.05.51.37.88.5.58.62-.18.22-1.39-1.12-1.89-1.88-.7-3.11-2.33-.1-.14-.25-.03l-.2.15a.29.29 0 0 0-.05.43q.63.68.97 1.5.26.62.93.59.65-.04 1.24.15.55.16.6.73m-.735 2.25a1.04.71 62.2 0 0 .143-1.251 1.04.71 62.2 0 0-1.113-.589 1.04.71 62.2 0 0-.143 1.251 1.04.71 62.2 0 0 1.113.589m4.995-1.37a.35.35 0 0 0 .65.17q.19-.29-.06-.56a.29.29 0 0 0-.35-.05q-.25.14-.24.44"/><path fill="#48a889" d="m313.26 115.93 2.03 1.59q-.42.4-1.05.5-.51.08-.34.56.05.15.19.25.16.11.35.15.8.16 1.62.16.69-.01.84.66c.25 1.13 1 1.46 1.07 2.68q.06 1.03-.02 2.01-.08.88-.71.26l-1.19-1.14q-.41-.4-.93-.16l-.39.19a.39.39 0 0 1-.56-.34l-.02-.58q0-.54.53-.6.96-.13 1.66.44.6.49.75-.27.05-.25-.03-.49-.18-.53-.72-.65-.82-.18-1.46-.67-.38-.28-.82-.12-.16.05-.27.17a.42.41-45.5 0 1-.6.01l-.66-.69a.72.72 0 0 1-.05-.93l.86-1.12q.22-.29-.07-.51l-.23-.19a.47.46-61 0 0-.72.21q-.22.6-.81.6-.62-.01-.35-.57.5-1.05 2.1-1.41M319.75 121.59l2.24 2.26q-1.23.33-2.14-.03-.68-.27-.77-.94-.11-.79.67-1.29"/><path fill="#249968" d="M307.24 122.96q.62.27 1.03.85-.59 1.34.23 2.48.14.2-.06.35l-.21.14q-.03.02-.05-.01-1.3-2.39-3.88-2.95a.41.41 0 0 1-.24-.65q.51-.66 1.29-.84.59-.13.82.42.24.56.86.74.27.07.21-.53"/><path fill="#7f6887" d="m318.55 130.86-3.29.33-.13-1.51q-.05-.56.46-.78.67-.3.53-1.01-.09-.42-.41-.7-.79-.7-.72-1.71.05-.64.54-.23.82.71 1.88.88.89.15.25.79l-.34.35q-.55.56.18.85.44.18.85-.09.44-.29.53-.78.15-.76.15-1.55 0-.59.55-.79.93-.34 1.88-.01.81.29.16.85-.24.21-.57.23-.63.04-.89.61-1 2.24-3.61 2.43a.47.46 88 0 0-.43.47v.26q0 .28.28.28 1.32.01 2.15.83M323.52 125.72l1.31 1.83q-.54.26-1.05-.09-.96-.67-.26-1.74"/><path fill="#48a889" d="M308.33 129.01q-.59-.19-1.24-.15-.67.03-.93-.59-.34-.82-.97-1.5a.29.29 0 0 1 .05-.43l.2-.15q.15-.11.25.03 1.23 1.63 3.11 2.33 1.34.5 1.12 1.89-.12.76-.62.18-.32-.37-.37-.88-.05-.57-.6-.73"/><path fill="#cc6244" d="m325.11 131.5-1.96-.61q.17-1.88-1.74-3.15-.51-.33.09-.42.34-.05.5.19.28.44.8.38.22-.03.38-.16.43-.35.6.18.46 1.41 1.8 2.05.53.25.25.77-.21.39-.72.77M300.75 128.97l.13-.97q1.9.71 2.06 2.33.06.66-.6.61-.41-.04-.75-.22-.76-.4.02-.76.2-.09.29-.28t.04-.39q-.16-.56-1.19-.32"/><path fill="#48a889" d="m301.51 134.99-.54.55q-.79.12-1.24-.76-.25-1.3.35-1.99 2.38-.31 3.78-1.99.34-.4.27-.92-.03-.25.14-.46.39-.48.4.13.02 1.41.8 2.56.38.55-.29.5-.28-.02-.23-.23a.15.14 2.8 0 0-.16-.17q-3.27.21-3.28 2.78"/><path fill="#76391f" d="M300.3 130.9q-.05-.49.23-.92.4-.06.3.53-.08.46-.53.39"/><ellipse fill="#48a889" rx="1.04" ry=".71" transform="rotate(62.2 45.216 320.583)"/><path fill="#48a889" d="m311.94 131.69-1.15.21q-.05-1.4.61-1.76.54-.3.54.31z"/><path fill="#249968" d="M313.19 130.62q-.01-.3.24-.44a.29.29 0 0 1 .35.05q.25.27.06.56a.35.35 0 0 1-.65-.17"/><path d="M299.73 134.78q.45.88 1.24.76-.35 1.44.18 2.04 2.85 3.27 2.7 7.08-1.2.75-.79 1.94a.45.44-41.2 0 0 .82.05q.37-.74.29-1.59 1.42-.06 2.79.88-.68-.14-1.34-.04-.55.08-.48.63.04.33.4.39a.49.49 0 0 1 .3.81q-.87.97-.71 2.41.09.81.57.16 1.09-1.46 1.21-3.05.03-.5.48-.72l.41-.22q.65.11 1.29.64 1.89 2.82 2.25 1.22 8.88 5.33 13.76 14.73 1.95 3.76 1.81 8.5a.49.48 10 0 1-.64.44l-10.41-3.49q3.09-2.01-1.76-.79.67.63-1.25.31.35-1.58 2.21-1.87a.9.88-87.5 0 0 .73-.68q.33-1.36-.06-2.63-.16-.54-.71-.56-.61-.02-.79.55-.14.45-.61.42a.76.75 77.2 0 1-.6-.38q-.45-.78-1.22-1.27-.36-.22-.59.13l-.18.28q-.25.37.09.65 1.54 1.27 3.02.64.46-.2.78.19.89 1.09-.36 2.04-1.79 1.37-2.26 2.35-.89.21-1.79-.04-.41-1.53-2.03-1.65-.27-.02-.27.25v.25q.01.43.43.43.95 0 1.43.69l-7.25.15q-.51.01-.67.5-.8 2.49-.09 4.81l-.11 3.75q-.02.55-.39.96l-1.28 1.41q-.38.42-.42.98-.18 2.86 1.6 5.4.14.21.33.05l.35-.26a.42.42 0 0 1 .66.2q.43 1.34-.6 2.47-.69.05-1.29-.5-.36-.33-.86-.3-.58.04-1.05.44a.03.03 0 0 0 .01.05q1.82.26 2.75 1.07.44.47-.34 1.54-.32.44.15.72 1.33.79 1.36 2.08a1.27 1.27 0 0 1-.63 1.13l-2.28 1.34q-2.06 1.24-2.11 5.6 0 .5.36.85 2.55 2.52 4.02 5.66-.77.04-1.07.32a.52.52 0 0 0-.05.71l.7.86q.35.43.08.92-.38.73-1.07 1.16-.68.43-.63-.36.03-.6-.29-1.04-.45-.62-.8.06-.16.31-.1.66c.19 1.15 1.29 1.25 1.06 2.9q-.06.49.26.86l.45.5q.11.12.06.28-.05.2-.24.28-.3.15-.44-.16l-.27-.62a.39.38 69.3 0 0-.45-.21q-.17.05-.25.17-.28.41.06.76l1.29 1.34q.45.47-.12.78-.3.17-.28.55.08 1.02.96.5 2.42-1.4 3.74-.95.05.39-.01.67-.92.24-.66 1.54.13.65.72.92.09.43-.03.81-.56.5-.02.96.21 1.98-.3 3.8-.34-.69-.85-.63-.63.07-.76.87-3.59-5.03-9.32-7.24a.61.61 0 0 0-.83.47q-.39 2.52-.58 5.26-.12 1.67.9 3.85 2.92 6.23 2.46 13.54-.45-.72-1.01-.55a.66.66 0 0 0-.39.94q.57 1.04 1.41.56l-.24 2.16q-.01-.53-.45-.58a.43.42 25.2 0 0-.37.13l-1.56 1.65-2.88-5.08a.54.54 0 0 0-1 .15l-.67 3.26q-.21.99.46 1.74.98 1.09 1.56 3.11-1.64-.05-3.97 1.21-.36-5.68 2.29-11.77l1.46.7q.49.24.21-.23-.44-.74-1.45-1.32 2.14-6.72 2.32-13.78.1-3.65.85-6.34 1.61-5.82 3.35-11.99 1.66-5.88 2.28-11.67.94-8.81 2.03-17.43.21-1.72.31-3.5c.13-2.27.86-4.27.92-6.63q.09-3.14.7-5.81 1.99-1.29 3.43-1.14.4.05.7-.22.46-.42 1.15-.5 1.16-.13.13-.69-.66-.36-1.67-.23a.44.43-1.7 0 0-.37.39q-.1 1.21-1.46.93-1.49-.31-.91-1.71l1.93-4.65q.37-.89-.5-.47-1.18.58-2.06 2.93l.06-10.92q.01-.5.24-.94c1.11-2.08-1.13-5.44-2.66-6.43q-.33-.22-.45-.6-.46-1.4.4-2.75m8.27 21.37-1.42.1q-.73.05-.07.36l2 .95q.51.24.97-.08.64-.43 1.42-.61 1.77-.42-.01-.78-2.18-.44-1.48-2.15.11-.25.03-.5-.07-.29-.24-.53a.56.56 0 0 1 .08-.74q1.4-1.22 2.38-2.75.03-.05-.02-.09l-.21-.16q-.21-.17-.38.05c-.88 1.22-2.65 2.6-2.94 4.07q-.17.89.41 1.47 1.26 1.27-.52 1.39m2.09-3.66a.22.22 0 0 0 .21.33q.33-.05.16-.33-.18-.31-.37 0m2.67 1.15a.3.3 0 0 0-.24-.47q-.21 0-.33.16-.17.25.1.4.29.16.47-.09m-6.59.87a.23.23 0 0 0 .35.22q.29-.16.14-.45-.03-.05-.08-.07-.39-.11-.41.3m5.55 4.56 3.27 1.87a.11.04 33.7 0 0 .11.03l.12-.22q.17-.29-.14-.41-1.44-.53-2.3-1.74-.37-.51-.94-.26l-2.17.92q-.96.4.06.63.81.19 1.06-.48.26-.73.93-.34m-4.63 2.21-.65-.26q-.86-.34-.38.45.37.61.97.98.43.26.85-.02.77-.52 1.68-.57.32-.02.27-.34l-.06-.33q-.04-.28-.32-.21l-1.37.36q-.5.13-.99-.06m-3.82 2.83q-.26-.12-.5 0-.7.34-.14.88.51.49.52 1.18.01.52.49.33 1.01-.39 1.5-1.31.22-.42.69-.52.51-.11.87-.47.46-.46-.17-.62-.94-.25-1.5-1.06-.25-.36-.69-.44-.23-.04-.41.06-.54.3-.22.82.21.34.22.72.02.75-.66.43m7.4.53q.36.47.95.16a.31.31 0 0 0 .03-.53q-.39-.28-.87-.07-.34.14-.11.44m6.86 1.166a.97.5 129.7 0 0 1.005-.427.97.5 129.7 0 0 .235-1.065.97.5 129.7 0 0-1.005.427.97.5 129.7 0 0-.235 1.065m1.27 1.764q-.09-.34-.38-.25a.33.33 0 0 0-.15.53q.37.41.52-.1a.35.33-43.4 0 0 .01-.18m-22.19 38.14q-.4-.27-.67.13a.5.5 0 0 0 .22.74q1.67.72 3.02 2.09.51.53.38-.2-.14-.81-.85-1.38-.38-.3-.31-.78.05-.29.3-.47.27-.18.15-.49-.08-.22-.35-.24-.48-.03-.72.38-.12.2-.34.29-.43.2-.83-.07m-.226 5.84a1.09.74 115.9 0 0 1.142-.657 1.09.74 115.9 0 0-.19-1.304 1.09.74 115.9 0 0-1.142.658 1.09.74 115.9 0 0 .19 1.303m2.377 2.216a1.01.33 42 0 0-.53-.921 1.01.33 42 0 0-.972-.43 1.01.33 42 0 0 .53.92 1.01.33 42 0 0 .972.43m-1.391 4.334q-.52-.05-.94.24-.04.02-.06.06-.06.13-.03.27.08.4.47.28 1.02-.3 1.83-1.1a.49.49 0 0 0 .07-.59q-1.02-1.7-1.91-3.48-.4-.81-1.27-.6a.35.34 61.2 0 0-.16.57q1.51 1.61 2.39 3.82.24.58-.39.53m2.71 2.28q.02.52.51.45.31-.04.24-.34t-.38-.39q-.39-.12-.37.28m2.15.2q-.31.59-.12 1.19.18.57.58.12.53-.61.16-1.31-.31-.58-.62 0m-1.07 2.68q.65 1.62 2.07 1.61.58-.01.43-.57-.2-.73-1.22-1.26-1.32-.7-2.19-.56-.7.11-.05.38zm-12.378 26.529a1.05.5 15.4 0 0-.88-.761 1.05.5 15.4 0 0-1.144.203 1.05.5 15.4 0 0 .88.761 1.05.5 15.4 0 0 1.144-.203"/><path fill="#48a889" d="M304.17 145.06q.08.85-.29 1.59a.45.44-41.2 0 1-.82-.05q-.41-1.19.79-1.94z"/><path fill="#cc6244" d="m306.96 145.94.84.37-.41.22q-.45.22-.48.72-.12 1.59-1.21 3.05-.48.65-.57-.16-.16-1.44.71-2.41a.49.49 0 0 0-.3-.81q-.36-.06-.4-.39-.07-.55.48-.63.66-.1 1.34.04M311.34 148.17q-.36 1.6-2.25-1.22z"/><path fill="#cc6244" d="M308 156.15q1.78-.12.52-1.39-.58-.58-.41-1.47c.29-1.47 2.06-2.85 2.94-4.07q.17-.22.38-.05l.21.16q.05.04.02.09-.98 1.53-2.38 2.75a.56.56 0 0 0-.08.74q.17.24.24.53.08.25-.03.5-.7 1.71 1.48 2.15 1.78.36.01.78-.78.18-1.42.61-.46.32-.97.08l-2-.95q-.66-.31.07-.36z"/><path fill="#76391f" d="M310.09 152.49q.19-.31.37 0 .17.28-.16.33a.22.22 0 0 1-.21-.33M312.76 153.64q-.18.25-.47.09-.27-.15-.1-.4.12-.16.33-.16a.3.3 0 0 1 .24.47"/><path fill="#48a889" d="m301.77 161.78.37-5.36q.88-2.35 2.06-2.93.87-.42.5.47l-1.93 4.65q-.58 1.4.91 1.71 1.36.28 1.46-.93a.44.43-1.7 0 1 .37-.39q1.01-.13 1.67.23 1.03.56-.13.69-.69.08-1.15.5-.3.27-.7.22-1.44-.15-3.43 1.14M306.17 154.51q.02-.41.41-.3.05.02.08.07.15.29-.14.45a.23.23 0 0 1-.35-.22"/><path fill="#cc6244" d="M310.79 159.41q-.25.67-1.06.48-1.02-.23-.06-.63l2.17-.92q.57-.25.94.26.86 1.21 2.3 1.74.31.12.14.41l-.12.22a.11.04 33.7 0 1-.11-.03l-3.27-1.87q-.67-.39-.93.34M308.08 161.34l1.37-.36q.28-.07.32.21l.06.33q.05.32-.27.34-.91.05-1.68.57-.42.28-.85.02-.6-.37-.97-.98-.48-.79.38-.45l.65.26q.49.19.99.06M312.85 167.87q-.18.07-.55-.14.47-.98 2.26-2.35 1.25-.95.36-2.04-.32-.39-.78-.19-1.48.63-3.02-.64-.34-.28-.09-.65l.18-.28q.23-.35.59-.13.77.49 1.22 1.27a.76.75 77.2 0 0 .6.38q.47.03.61-.42.18-.57.79-.55.55.02.71.56.39 1.27.06 2.63a.9.88-87.5 0 1-.73.68q-1.86.29-2.21 1.87"/><path fill="#48a889" d="M303.93 163.68q-.01-.38-.22-.72-.32-.52.22-.82.18-.1.41-.06.44.08.69.44.56.81 1.5 1.06.63.16.17.62-.36.36-.87.47-.47.1-.69.52-.49.92-1.5 1.31-.48.19-.49-.33-.01-.69-.52-1.18-.56-.54.14-.88.24-.12.5 0 .68.32.66-.43M310.67 164.64q-.23-.3.11-.44.48-.21.87.07a.31.31 0 0 1-.03.53q-.59.31-.95-.16"/><ellipse fill="#cc6244" rx=".97" ry=".5" transform="rotate(129.7 120.327 157.216)"/><path fill="#48a889" d="m310.51 167.69-.44-.03q-.48-.69-1.43-.69-.42 0-.43-.43v-.25q0-.27.27-.25 1.62.12 2.03 1.65"/><path fill="#cc6244" d="M315.86 168.35q-1.26-.1-1.76-.79 4.85-1.22 1.76.79M318.8 167.57a.35.33-43.4 0 1-.01.18q-.15.51-.52.1a.33.33 0 0 1 .15-.53q.29-.09.38.25"/><path fill="#0d895d" d="M303.36 173.56q-.43.41-.13 1.04a.46.46 0 0 0 .78.1q.19-.25.04-.7 1.4.54 2.2 1.6-.34.17-.35.36-.22-.21-.48-.1-.38.19-.32.61.52 3.35 3.27 5.47.31.24.34.63.03.34-.31.47a.62.61-10.2 0 0-.41.58q0 2.58 2.17 1.94.9.3 1.68-.22.28-.19.05-.7.2-.05.92.32 1.44 3.95 1.91 8.31.39 3.56-.82 7.06-.17.48-.62.24-5.83-3.16-13.26-4.92l2.28-1.34a1.27 1.27 0 0 0 .63-1.13q-.03-1.29-1.36-2.08-.47-.28-.15-.72.78-1.07.34-1.54-.1-.51.44-.76 1.03-1.13.6-2.47a.42.42 0 0 0-.66-.2l-.35.26q-.19.16-.33-.05-1.78-2.54-1.6-5.4.04-.56.42-.98l1.28-1.41q.37-.41.39-.96l.11-3.75q.95-.13 1.3.44"/><path d="M304.05 174q.15.45-.04.7a.46.46 0 0 1-.78-.1q-.3-.63.13-1.04.45.01.69.44"/><path fill="#cc6244" d="M306.25 175.6q1.67 1.11 2.84 2.96-.78.14-2.12-1.28-.87-.91-1.07-1.32.01-.19.35-.36"/><path d="M305.9 175.96q.2.41 1.07 1.32 1.34 1.42 2.12 1.28l3.72 6.4q-.72-.37-.92-.32-.93-.47-1.73.92-2.17.64-2.17-1.94a.62.61-10.2 0 1 .41-.58q.34-.13.31-.47-.03-.39-.34-.63-2.75-2.12-3.27-5.47-.06-.42.32-.61.26-.11.48.1"/><path fill="#48a889" d="M311.89 184.64q.23.51-.05.7-.78.52-1.68.22.8-1.39 1.73-.92"/><path fill="#cc6244" d="M302.2 188.08q-.54.25-.44.76-.93-.81-2.75-1.07a.03.03 0 0 1-.01-.05q.47-.4 1.05-.44.5-.03.86.3.6.55 1.29.5"/><path fill="#48a889" d="M297.44 205.78q.22-.09.34-.29.24-.41.72-.38.27.02.35.24.12.31-.15.49-.25.18-.3.47-.07.48.31.78.71.57.85 1.38.13.73-.38.2-1.35-1.37-3.02-2.09a.5.5 0 0 1-.22-.74q.27-.4.67-.13t.83.07"/><path fill="#249968" d="m302.29 207.76 1.7 5.07q-.95-.09-1.64.2-.72.3-.1.76l1.88 1.4q.24.17.14.45-.17.51-.74.44a.35.35 0 0 0-.39.31l-.03.31q-.04.43.39.38l1.21-.13q.19.55.18 1.08-1.32-.45-3.74.95-.88.52-.96-.5-.02-.38.28-.55.57-.31.12-.78l-1.29-1.34q-.34-.35-.06-.76.08-.12.25-.17a.39.38 69.3 0 1 .45.21l.27.62q.14.31.44.16.19-.08.24-.28.05-.16-.06-.28l-.45-.5q-.32-.37-.26-.86c.23-1.65-.87-1.75-1.06-2.9q-.06-.35.1-.66.35-.68.8-.06.32.44.29 1.04-.05.79.63.36.69-.43 1.07-1.16.27-.49-.08-.92l-.7-.86a.52.52 0 0 1 .05-.71q.3-.28 1.07-.32"/><ellipse fill="#48a889" rx="1.09" ry=".74" transform="rotate(115.9 82.513 198.215)"/><ellipse fill="#76391f" rx="1.01" ry=".33" transform="rotate(42 -128.554 494.716)"/><path d="m303.99 212.83.72 4.12-1.21.13q-.43.05-.39-.38l.03-.31a.35.35 0 0 1 .39-.31q.57.07.74-.44.1-.28-.14-.45l-1.88-1.4q-.62-.46.1-.76.69-.29 1.64-.2"/><path fill="#48a889" d="M297.76 217.57q-.88-2.21-2.39-3.82a.35.34 61.2 0 1 .16-.57q.87-.21 1.27.6.89 1.78 1.91 3.48a.49.49 0 0 1-.07.59q-.81.8-1.83 1.1-.39.12-.47-.28-.03-.14.03-.27.02-.04.06-.06.42-.29.94-.24.63.05.39-.53M304.88 218.7l.06 2.46q-.59-.27-.72-.92-.26-1.3.66-1.54"/><path fill="#249968" d="M300.08 220.38q-.02-.4.37-.28.31.09.38.39t-.24.34q-.49.07-.51-.45"/><path fill="#48a889" d="M302.23 220.58q.31-.58.62 0 .37.7-.16 1.31-.4.45-.58-.12-.19-.6.12-1.19"/><path fill="#0d895d" d="M304.91 221.97q.19.5-.02.96-.54-.46.02-.96"/><path fill="#249968" d="M302.44 223.04q-.91-.42-1.28.22l-.96-.4q-.65-.27.05-.38.87-.14 2.19.56"/><path fill="#0d895d" d="M302.44 223.04q1.02.53 1.22 1.26.15.56-.43.57-1.42.01-2.07-1.61.37-.64 1.28-.22"/><path fill="#249968" d="M304.59 226.73q-.32 1.15-1.15.87-.34-.11-.46-.63.13-.8.76-.87.51-.06.85.63"/><path fill="#cc6244" d="M288.79 239.78q.18-.25.22-.85 1.01.58 1.45 1.32.28.47-.21.23z"/><path fill="#7f6887" d="M295.61 242.85q.13.34.01.95-.84.48-1.41-.56a.66.66 0 0 1 .39-.94q.56-.17 1.01.55"/><path fill="#0d895d" d="M295.38 245.96q-1.09 4.41-2.38 1.2l1.56-1.65a.43.42 25.2 0 1 .37-.13q.44.05.45.58"/><ellipse fill="#0d895d" rx="1.05" ry=".5" transform="rotate(15.4 -778.823 1188.951)"/><path fill="#0d895d" d="M290.47 250.34q.84 2.54.34 4.97a.41.41 0 0 1-.71.2l-3.6-3.96q2.33-1.26 3.97-1.21"/></svg>