<svg xmlns="http://www.w3.org/2000/svg" viewBox="0 0 382 382"><g fill="none" stroke-width="2"><path stroke="#798e81" d="m316.2 100.38-.06-.74a1.17 1.16 71.6 0 0-1.77-.89q-.67.42-.37 1.18" vector-effect="non-scaling-stroke"/><path stroke="#63ce6c" d="M307.91 99.94c.25-2.48-2.36-3.7-4.2-4.78q-.44-.26-.62-.74-.38-1.01-.24-2.11a.31.31 0 0 0-.28-.35l-.32-.04q-.12-.02-.15.11-.37 1.92.02 3.85.1.51-.15.98-1.2 2.19 1.53 3.39.2.09.4-.04l.27-.18q.43-.29.31.21-.05.21-.21.4" vector-effect="non-scaling-stroke"/><path stroke="#798e81" d="M311.03 114.33q0 .34-.11.56-.26.51-.73.18t-1.04-.11a.34.34 0 0 0-.22.36l.03.3q.07.62.68.46.88-.22 1.41.58.35.52.84.14.46-.34.96-1.16" vector-effect="non-scaling-stroke"/><path stroke="#777780" d="M317.57 119.44q-1.09.92-.31 2.09.53.8 1.62-.84M325.54 128.74q-.65 1.07-.67 2.63" vector-effect="non-scaling-stroke"/><path stroke="#798e81" d="M322.95 130.92q.68-2.04-.17-2.59-.49-.32-.75.2-.46.95.02 2.24" vector-effect="non-scaling-stroke"/><path stroke="#58c462" d="M306.38 133.27q-.3-.77-1-.91-.48-.1-.9-.36-.76-.48-1.37-1.18-.34-.39-.86-.46-.59-.08-1.02.32" vector-effect="non-scaling-stroke"/><path stroke="#777780" d="m301.23 130.68-.96.03" vector-effect="non-scaling-stroke"/><path stroke="#5f9168" d="m240.69 73.87-.88-.64a.49.47 54.8 0 0-.41-.08q-.61.17-.46.92" vector-effect="non-scaling-stroke"/><path stroke="#7e6586" d="M201.7 70.85q.37-.96.13-1.97-.12-.49.17-.91.49-.69 1.33-.83.5-.09.78.33 1 1.45 1.79-.1" vector-effect="non-scaling-stroke"/><path stroke="#63ce6c" d="m205.9 67.37.37-1.18" vector-effect="non-scaling-stroke"/><path stroke="#777780" d="M206.27 66.19q2.02-1.09 1.8-2.41" vector-effect="non-scaling-stroke"/><path stroke="#63ce6c" d="m208.07 63.78-.79-2.54" vector-effect="non-scaling-stroke"/><path stroke="#777780" d="M215.97 61.14q-.21 1.23.12 2.6.03.13.17.17.16.04.34.02.36-.05.34-.4l-.09-2.34" vector-effect="non-scaling-stroke"/><path stroke="#5f9168" d="M215.66 68.29q-.58.59-.67.89-.44 1.52.77.49.13-.11.32-1.05" vector-effect="non-scaling-stroke"/><path stroke="#836b8b" d="M304.04 144.96q-.33 1.32.56 2.26.35.38.39.9l.1 1.44q.03.42.45.38l.4-.04q.26-.03.19-.28-.25-.79.08-1.58.2-.48-.03-.96l-.92-1.9" vector-effect="non-scaling-stroke"/><path stroke="#68d372" d="M313.55 149.63q-.72.34-.69 1.31" vector-effect="non-scaling-stroke"/><path stroke="#7e9487" d="M312.86 150.94q-.79-.26-.9.56-.06.4.25.63" vector-effect="non-scaling-stroke"/><path stroke="#68d372" d="M312.21 152.13q-.77.92-.25 1.64" vector-effect="non-scaling-stroke"/><path stroke="#7e9487" d="M311.96 153.77q.23.4.79.6" vector-effect="non-scaling-stroke"/><path stroke="#68d372" d="M312.75 154.37q-.44.27-.67.58-.32.44-.03.91.41.65 1.22 1.16" vector-effect="non-scaling-stroke"/><path stroke="#7c7d85" d="M313.27 157.02q-.38.33.45 1.48" vector-effect="non-scaling-stroke"/><path stroke="#68d372" d="M313.72 158.5q-.71.26-1.41.04" vector-effect="non-scaling-stroke"/><path stroke="#7e9487" d="M312.31 158.54q-.19-.93-.8-.6-.56.31-.76.9" vector-effect="non-scaling-stroke"/><path stroke="#68d372" d="M310.75 158.84q-2.26 1.6-1.37 3.58.25.54.85.55.93.02 1.41.74.27.41.15.89l-.33 1.32" vector-effect="non-scaling-stroke"/><path stroke="#7c7d85" d="M311.46 165.92q-.85.56.58 1.98" vector-effect="non-scaling-stroke"/><path stroke="#58c462" d="M301.72 171.45q-.65.19-1.08.08" vector-effect="non-scaling-stroke"/><path stroke="#7e9487" d="M301.46 162.95q.53.08.9 0 .46-.11.58-.55.05-.2.07-.41.06-.56.47-.94.71-.65.53-1.75a.44.44 0 0 0-.51-.37l-.3.05q-.45.08-.39.53.22 1.82-1 1.68" vector-effect="non-scaling-stroke"/><path stroke="#64976d" d="M302.11 157.25q.38.18.51.08a.89.88 60.7 0 0 .28-1.01q-.23-.61-.79-.34" vector-effect="non-scaling-stroke"/><path stroke="#58c462" d="M302.06 154.93q.83-.7.95-1.41.07-.36-.15-.47-.23-.12-.65.03" vector-effect="non-scaling-stroke"/><path stroke="#64976d" d="M302.21 153.08q-.03-.05-.07-.09" vector-effect="non-scaling-stroke"/><path stroke="#58c462" d="M302.25 150.46q.7-.07.82-.53.08-.31-.21-.79-.27-.42-.55-.84" vector-effect="non-scaling-stroke"/><path stroke="#64976d" d="M302.28 147.11q1.25-1.35.18-2.57" vector-effect="non-scaling-stroke"/><path stroke="#7c7d85" d="M300.01 132.93q.5-.02 1.09-.42.57-.39.93.2.45.72 1.33.32 1.11-.51-.07-.83-.85-.23-2.06-1.52" vector-effect="non-scaling-stroke"/><path stroke="#878790" d="M208.07 63.78q-1.34.57-2 1.8a.39.38-47 0 0 .01.39q.07.13.19.22" vector-effect="non-scaling-stroke"/><path stroke="#8e7596" d="m205.9 67.37-.47-.37q-.45-.35-.34-.91.29-1.45-.75-2.38-.51-.44.06-.8l.46-.29q.19-.11.09-.31-.1-.23-.39-.26a.46.45 20.7 0 0-.4.18l-.31.41a.56.56 0 0 1-.95-.09q-.09-.19-.12-.48M198.31 70.91q-.89-.62-1.11-1.19-.26-.67.46-.63.75.05 1.24-.43a.91.9 58.7 0 0 .22-.92l-.13-.41q-.22-.65-.69-.16l-1 1.02q-.4.41-.95.27-.89-.22.04-1.5a2.45 2.43 24.6 0 1 2.53-.93q2.4.57 4.86.09a.35.35 0 0 0 .14-.62q-.92-.72-.93-1.85 0-.43-.34-.69-.12-.09-.27-.1-.72-.03-.84.69-.08.51-.35.92-.37.58-.91.16l-1.95-1.47" vector-effect="non-scaling-stroke"/><path stroke="#878790" d="M314.97 150.66q-.56 0-.78.27-.36.43.08.78 1.26 1 3.21 1.18" vector-effect="non-scaling-stroke"/><path stroke="#63ce6c" d="M323.33 160.01q-.42.41.07.77.1.08.22.02.05-.04.11-.07M324.78 162.47q-.45.17-.73.47" vector-effect="non-scaling-stroke"/><path stroke="#8e7596" d="M324.05 162.94q-.4.03-.65.15-.59.31-.1.77.49.47 1.41.11" vector-effect="non-scaling-stroke"/><path stroke="#63ce6c" d="m324.71 163.97 1.17.83M322.02 170.07q.3-1.01-.78-1.16-.68-.09-1.42.44" vector-effect="non-scaling-stroke"/><path stroke="#878790" d="m313.48 167.88-2.02-1.96" vector-effect="non-scaling-stroke"/><path stroke="#899e91" d="M310.75 158.84q1.37.52 1.56-.3" vector-effect="non-scaling-stroke"/><path stroke="#878790" d="m313.72 158.5 1.67 2.9q.48.83.57-.12l.03-.34q.05-.46-.31-.74-.95-.73-.52-1.99" vector-effect="non-scaling-stroke"/><path stroke="#899e91" d="M315.16 158.21q2.35-.61-.55-2.2-.49-.27-.68.27-.1.31 0 .72" vector-effect="non-scaling-stroke"/><path stroke="#878790" d="m313.93 157-.66.02" vector-effect="non-scaling-stroke"/><path stroke="#899e91" d="M312.75 154.37q.71-.38.44-.9a.7.7 0 0 0-.93-.3q-.29.14-.3.6M312.21 152.13q.54.04.75-.41.18-.42-.1-.78" vector-effect="non-scaling-stroke"/><path stroke="#5f9168" d="M302.21 153.08q-.15.53-.1 1.13M301.01 205.63q-.76.03-1.08.43a.55.54 36.1 0 0 .13.79q.7.45 1.58-.38" vector-effect="non-scaling-stroke"/><path stroke="#798e81" d="M304.73 216q-1.3.21-2.17-.97-.15-.21-.36-.07l-.24.15q-.21.14-.08.35 1.07 1.77 3 1.58M304.82 219.1q-.75-1.25-1.32-1.2-.6.06-.42.64.33 1.08 1.86 1.4" vector-effect="non-scaling-stroke"/><path stroke="#5f9168" d="M292.6 228.85q-1.96-.06 1.41 2.96" vector-effect="non-scaling-stroke"/><path stroke="#7e6586" d="M294.67 233.02q-2.05.37-3.73-1.33" vector-effect="non-scaling-stroke"/><path stroke="#798e81" d="M294.03 212.67q.56.31 1.4-.5 2.13-2.06-.7-2.19" vector-effect="non-scaling-stroke"/><path stroke="#63ce6c" d="M298.64 188.01q.24 1.3 1.22 1.41" vector-effect="non-scaling-stroke"/><path stroke="#777780" d="M299.86 189.42q-.07.15-.07.31.01.37.36.24 1.61-.61 2.9-2.28" vector-effect="non-scaling-stroke"/><path stroke="#63ce6c" d="M303.05 187.69q.42.77.93.76.62-.01.52-.63-.11-.76-1.26-1.54" vector-effect="non-scaling-stroke"/><path stroke="#777780" d="M303.24 186.28q.05-.58-.14-1.01-.25-.56-.84-.39l-.5.15q-.21.06-.43-.02-.19-.07-.23-.25-.07-.39.25-.61 1.44-1.01.27-2.34-.6-.68-1.45-.91-.52-.13-.54-.68l-.02-.69" vector-effect="non-scaling-stroke"/><path stroke="#798e81" d="m300.11 176.17 2.16 1.86a.53.53 0 0 0 .87-.39l.01-.72a.07.07 0 0 0-.1-.06q-.26.17-.52.03-.31-.15-.54-.48-.75-1.09-1.85-1.55" vector-effect="non-scaling-stroke"/><path stroke="#63ce6c" d="M192.03 66.71q.72.04.59-.43" vector-effect="non-scaling-stroke"/><path stroke="#899e91" d="M194.95 64.58q.1.92-.74 1.31-.4.19-.23.6l.1.25q.11.26.36.12 1.63-.95 1.79-2.83" vector-effect="non-scaling-stroke"/><path stroke="#9d47a5" d="M315.16 158.21q-1.15-.38-1.23-1.21" vector-effect="non-scaling-stroke"/><path stroke="#7e6586" d="M324.71 163.97q.21-.37.04-.71-.22-.44-.7-.32" vector-effect="non-scaling-stroke"/><path stroke="#878790" d="M303.24 186.28q-.88-.52-2-.08-.41.16-.59.57-.07.15-.22.24-.41.25-.45-.23l-.17-2.18a1.03 1.02 69.7 0 1 .42-.92q.45-.32.53-.9.08-.59-.47-.81-.49-.19-1.05.25M303.05 187.69q.14-.23.08-.43a.36.35 60.3 0 0-.57-.16l-2.7 2.32" vector-effect="non-scaling-stroke"/><path stroke="#8e7596" d="M294.9 233.89q-2.82-.23-3.62 1.06a.72.72 0 0 0 .11.91l.75.72a.65.65 0 0 0 .99-.1q.67-.99 1.75-1.52" vector-effect="non-scaling-stroke"/><path stroke="#8e7596" d="M295.15 236.21q-.62-.3-2.02 1.32-.47.55-1.04.1-1-.79-2.28-.72" vector-effect="non-scaling-stroke"/><path stroke="#878790" d="M295.63 240.58q-.8.05-1.4.47-.45.31-.09.71.62.72 1.52 1.25" vector-effect="non-scaling-stroke"/><path stroke="#63ce6c" d="M289.62 241.52q-.65-.56-.21-1.28 1.05-1.67.11-2.74" vector-effect="non-scaling-stroke"/><path stroke="#777780" d="M213.167 67.048a1.38.5 126.6 0 0 1.224-.81 1.38.5 126.6 0 0 .422-1.406 1.38.5 126.6 0 0-1.224.81 1.38.5 126.6 0 0-.422 1.406" vector-effect="non-scaling-stroke"/><path stroke="#777780" d="M212.03 67.36q.12-.76-.48-1.28-.53-.45-.66.23-.35 1.8 1.64 2.68.28.12.48-.13.36-.45-.18-.64l-.36-.13q-.52-.18-.44-.73M209.14 67.188a.73.56-28.8 0 0-.91-.139.73.56-28.8 0 0-.37.843.73.56-28.8 0 0 .91.139.73.56-28.8 0 0 .37-.843" vector-effect="non-scaling-stroke"/><path stroke="#798e81" d="M208.167 68.87a1.25.47-44.8 0 0-1.218.546 1.25.47-44.8 0 0-.556 1.215 1.25.47-44.8 0 0 1.218-.547 1.25.47-44.8 0 0 .556-1.215" vector-effect="non-scaling-stroke"/><path stroke="#777780" d="M204.73 70.724a1.12.51 45.9 0 0-.414-1.159 1.12.51 45.9 0 0-1.145-.45 1.12.51 45.9 0 0 .413 1.16 1.12.51 45.9 0 0 1.145.45M211.149 69.275a.71.6-21.9 0 0-.883-.292.71.6-21.9 0 0-.435.822.71.6-21.9 0 0 .883.292.71.6-21.9 0 0 .435-.822" vector-effect="non-scaling-stroke"/><path stroke="#63ce6c" d="M237.375 71.827a.81.49 94.6 0 0 .553-.768.81.49 94.6 0 0-.423-.846.81.49 94.6 0 0-.553.768.81.49 94.6 0 0 .423.846" vector-effect="non-scaling-stroke"/><path stroke="#777780" d="M252.919 76.501a1.04.48-2.7 0 0-1.062-.43 1.04.48-2.7 0 0-1.016.528 1.04.48-2.7 0 0 1.062.43 1.04.48-2.7 0 0 1.016-.528M256.025 79.86a.6.48 29 0 0-.292-.71.6.48 29 0 0-.758.13.6.48 29 0 0 .292.71.6.48 29 0 0 .758-.13" vector-effect="non-scaling-stroke"/><path stroke="#798e81" d="M256.015 81.89a.67.52 35.5 0 0-.243-.813.67.52 35.5 0 0-.847.034.67.52 35.5 0 0 .243.812.67.52 35.5 0 0 .847-.034M313.08 97.51a.59.59 0 0 0-.59-.59.59.59 0 0 0-.59.59.59.59 0 0 0 .59.59.59.59 0 0 0 .59-.59M314.25 117.46a.71.71 0 0 0-.71-.71.71.71 0 0 0-.71.71.71.71 0 0 0 .71.71.71.71 0 0 0 .71-.71" vector-effect="non-scaling-stroke"/><path stroke="#777780" d="M306.504 119.02a1.07.54 91.4 0 0 .566-1.057 1.07.54 91.4 0 0-.514-1.083 1.07.54 91.4 0 0-.566 1.057 1.07.54 91.4 0 0 .514 1.083" vector-effect="non-scaling-stroke"/><path stroke="#798e81" d="M308.204 119.207a.72.56 117.8 0 0 .831-.376.72.56 117.8 0 0-.16-.898.72.56 117.8 0 0-.83.376.72.56 117.8 0 0 .16.898M314.13 119.45a.55.55 0 0 0-.55-.55.55.55 0 0 0-.55.55.55.55 0 0 0 .55.55.55.55 0 0 0 .55-.55" vector-effect="non-scaling-stroke"/><path stroke="#777780" d="M309.16 120.54a.62.62 0 0 0-.62-.62.62.62 0 0 0-.62.62.62.62 0 0 0 .62.62.62.62 0 0 0 .62-.62" vector-effect="non-scaling-stroke"/><path stroke="#798e81" d="M316.04 121.51a.58.58 0 0 0-.58-.58.58.58 0 0 0-.58.58.58.58 0 0 0 .58.58.58.58 0 0 0 .58-.58" vector-effect="non-scaling-stroke"/><path stroke="#777780" d="M312.59 122.98q.19-.04.34-.17.06-.05.09-.13.06-.15.01-.29-.12-.42-.52-.24l-1.96.86q-.67.29-.39.97l.14.34a.46.45-36.6 0 0 .77.11l.93-1.1q.24-.27.59-.35" vector-effect="non-scaling-stroke"/><path stroke="#798e81" d="M306.05 124.92q-.16.38-.06.75.19.73.66.14.76-.95.76-2.03 0-.76-.75-.9-.25-.05-.48.08a.64.64 0 0 0-.27.8l.14.36q.17.4 0 .8" vector-effect="non-scaling-stroke"/><path stroke="#777780" d="M315.514 124.94a.93.61 91.6 0 0 .636-.913.93.61 91.6 0 0-.584-.947.93.61 91.6 0 0-.636.913.93.61 91.6 0 0 .584.947M318.43 125.19a1.11.64 91.5 0 0 .67-1.093 1.11.64 91.5 0 0-.61-1.127 1.11.64 91.5 0 0-.67 1.093 1.11.64 91.5 0 0 .61 1.127M311.99 125.5l-.55-.56q-.14-.14-.25.03l-.17.25q-.12.19.05.34.81.67.99 1.56.26 1.26.86.13l.88-1.64q.54-1.03-.5-.52-.22.1-.35.3-.41.66-.96.11" vector-effect="non-scaling-stroke"/><path stroke="#a21ea9" d="M200.77 68.02q-.54-.1-.8.3a.37.36-65.7 0 0 .2.55q.6.17.87-.25a.4.4 0 0 0-.27-.6" vector-effect="non-scaling-stroke"/><path stroke="#899e91" d="M196.93 64.64q.27.3.64.27a.3.3 0 0 0 .24-.44q-.27-.53-.78-.29a.3.29-33.4 0 0-.1.46M189.42 71.01q.43-.21.59-.62a.36.36 0 0 0-.51-.45q-.54.28-.5.82.03.44.42.25M190.9 70.46q.01.15.08.27.28.45.76.25.35-.15.26-.53-.12-.43-.56-.5-.59-.08-.54.51M189.125 72.02a.97.67-36 0 0-1.179.028.97.67-36 0 0-.39 1.112.97.67-36 0 0 1.178-.028.97.67-36 0 0 .39-1.112" vector-effect="non-scaling-stroke"/><path stroke="#878790" d="M191.578 72.288a.9.66-19.6 0 0-1.07-.32.9.66-19.6 0 0-.626.924.9.66-19.6 0 0 1.07.32.9.66-19.6 0 0 .626-.924" vector-effect="non-scaling-stroke"/><path stroke="#899e91" d="M304.08 98.53a.58.58 0 0 0-.58-.58.58.58 0 0 0-.58.58.58.58 0 0 0 .58.58.58.58 0 0 0 .58-.58" vector-effect="non-scaling-stroke"/><path stroke="#68d372" d="M304.58 156.21q.05.82.42 1.2.41.41.76-.06.92-1.24.27-2.47" vector-effect="non-scaling-stroke"/><path stroke="#7c7d85" d="M306.03 154.88q.21-1.76-1.89.38-.38.39.02.76.15.15.42.19" vector-effect="non-scaling-stroke"/><path stroke="#878790" d="m306.03 154.88-1.45 1.33M317.032 155.94a1.46.43 41.6 0 0-.806-1.292 1.46.43 41.6 0 0-1.378-.647 1.46.43 41.6 0 0 .806 1.29 1.46.43 41.6 0 0 1.378.648" vector-effect="non-scaling-stroke"/><path stroke="#8e7596" d="M321.13 160.96q1.29-.22.95-1.51a.52.52 0 0 0-.88-.23l-2.22 2.37q-.18.18 0 .37l.25.27q.02.02.12-.07c.52-.54 1-1.07 1.78-1.2" vector-effect="non-scaling-stroke"/><path stroke="#899e91" d="M311.114 161.01a.76.57-44.3 0 0-.942.122.76.57-44.3 0 0-.146.939.76.57-44.3 0 0 .942-.123.76.57-44.3 0 0 .146-.939M319.779 163.968a.7.44 62 0 0 .06-.825.7.44 62 0 0-.718-.411.7.44 62 0 0-.06.825.7.44 62 0 0 .718.411" vector-effect="non-scaling-stroke"/><path stroke="#878790" d="M316.96 164.945a.74.51 47.4 0 0-.125-.89.74.51 47.4 0 0-.876-.2.74.51 47.4 0 0 .126.89.74.51 47.4 0 0 .876.2" vector-effect="non-scaling-stroke"/><path stroke="#899e91" d="M322.02 164.112a.58.41-40.7 0 0-.707.067.58.41-40.7 0 0-.173.69.58.41-40.7 0 0 .707-.068.58.41-40.7 0 0 .173-.69" vector-effect="non-scaling-stroke"/><path stroke="#878790" d="M313.36 164.89q-.45.37-.22.94.21.52.59.11.4-.41.16-.92a.35.34 58 0 0-.53-.13" vector-effect="non-scaling-stroke"/><path stroke="#8e7596" d="M319.983 167.037a1.4.43 45.4 0 0-.677-1.299 1.4.43 45.4 0 0-1.289-.695 1.4.43 45.4 0 0 .677 1.299 1.4.43 45.4 0 0 1.289.695" vector-effect="non-scaling-stroke"/><path stroke="#878790" d="M315.48 167.907a.96.52 94.2 0 0 .589-.919.96.52 94.2 0 0-.449-.995.96.52 94.2 0 0-.589.919.96.52 94.2 0 0 .449.995" vector-effect="non-scaling-stroke"/><path stroke="#899e91" d="M325.194 166.71a.64.52 8.1 0 0-.56-.605.64.52 8.1 0 0-.708.425.64.52 8.1 0 0 .56.605.64.52 8.1 0 0 .708-.425M325.059 168.908a.61.52 38.3 0 0-.157-.786.61.52 38.3 0 0-.8.03.61.52 38.3 0 0 .156.786.61.52 38.3 0 0 .8-.03" vector-effect="non-scaling-stroke"/><path stroke="#777780" d="M304.94 177.88q.58.49 1.07-.06.25-.27.07-.6a.57.56 68.8 0 0-.65-.29q-.35.1-.56.4a.4.4 0 0 0 .07.55M302.912 181.01a1.43.53 45.5 0 0-.624-1.391 1.43.53 45.5 0 0-1.38-.649 1.43.53 45.5 0 0 .624 1.392 1.43.53 45.5 0 0 1.38.648" vector-effect="non-scaling-stroke"/><path stroke="#798e81" d="M306.08 179.52q-.01-.26-.21-.41-.17-.14-.4-.09-.23.04-.41.2a.44.43 44.2 0 0 .01.67l1.2.96q.58.47.66-.28.05-.46-.46-.58a.51.49 6.1 0 1-.39-.47M303.377 183.33a.83.54 105.6 0 0 .743-.655.83.54 105.6 0 0-.297-.944.83.54 105.6 0 0-.743.654.83.54 105.6 0 0 .297.944M299.11 203.52a.56.56 0 0 0-.56-.56.56.56 0 0 0-.56.56.56.56 0 0 0 .56.56.56.56 0 0 0 .56-.56" vector-effect="non-scaling-stroke"/><path stroke="#777780" d="M298.13 206.56a.65.65 0 0 0-.65-.65.65.65 0 0 0-.65.65.65.65 0 0 0 .65.65.65.65 0 0 0 .65-.65M300.088 208.908a.82.45-45.2 0 0-.897.265.82.45-45.2 0 0-.259.899.82.45-45.2 0 0 .897-.265.82.45-45.2 0 0 .259-.899" vector-effect="non-scaling-stroke"/><path stroke="#7e6586" d="M297.491 215.015a1.07.58 95.3 0 0 .677-1.011 1.07.58 95.3 0 0-.48-1.12 1.07.58 95.3 0 0-.675 1.012 1.07.58 95.3 0 0 .478 1.12" vector-effect="non-scaling-stroke"/><path stroke="#777780" d="M296.68 217.97q-.26.05-.38.27-.15.27.09.47.91.73 2.09 1.04.71.19.26-.4-.82-1.06-1.35-2.48-.29-.78-1.04-.88-.82-.11-.34.57l.79 1.09a.21.2 66.6 0 1-.12.32M301.12 218.852a1.55.49 39.8 0 0-.876-1.369 1.55.49 39.8 0 0-1.505-.615 1.55.49 39.8 0 0 .877 1.369 1.55.49 39.8 0 0 1.505.615" vector-effect="non-scaling-stroke"/><path stroke="#5f9168" d="M294.1 218.56a.76.76 0 0 0-.76-.76.76.76 0 0 0-.76.76.76.76 0 0 0 .76.76.76.76 0 0 0 .76-.76" vector-effect="non-scaling-stroke"/><path stroke="#777780" d="M302.61 221.65q-.03.17-.15.31-.48.58.19.91.52.26 1.09.29.74.02.58-.7-.34-1.53-1.54-2.51a.39.38 19.3 0 0-.63.3q.01.51.33.88.2.23.13.52" vector-effect="non-scaling-stroke"/><path stroke="#899e91" d="M291.54 240.6q1.24-.24 2.25-.88.86-.54-.14-.74-1.41-.27-2.34 1.3-.24.41.23.32" vector-effect="non-scaling-stroke"/></g><path fill="#52be5c" d="m316.2 100.38-.06-.74a1.17 1.16 71.6 0 0-1.77-.89q-.67.42-.37 1.18l-6.09.01c.25-2.48-2.36-3.7-4.2-4.78q-.44-.26-.62-.74-.38-1.01-.24-2.11a.31.31 0 0 0-.28-.35l-.32-.04q-.12-.02-.15.11-.37 1.92.02 3.85.1.51-.15.98-1.2 2.19 1.53 3.39.2.09.4-.04l.27-.18q.43-.29.31.21-.05.21-.21.4-7.29 1.57-13.38 5.88a.26.25-48.4 0 0 .02.43c2.64 1.44 5.39 1.11 8.25 2.03q6.26 2 11.87 5.35 0 .34-.11.56-.26.51-.73.18t-1.04-.11a.34.34 0 0 0-.22.36l.03.3q.07.62.68.46.88-.22 1.41.58.35.52.84.14.46-.34.96-1.16l4.72 3.8q-1.09.92-.31 2.09.53.8 1.62-.84 4.14 3.56 6.66 8.05-.65 1.07-.67 2.63l-1.92-.45q.68-2.04-.17-2.59-.49-.32-.75.2-.46.95.02 2.24-8.06.05-15.67 2.5-.3-.77-1-.91-.48-.1-.9-.36-.76-.48-1.37-1.18-.34-.39-.86-.46-.59-.08-1.02.32l-.96.03c.23-1.31.69-2.42.77-3.77q.45-7.16.05-14.14-.11-1.94-1.96-2.51-2.05-.64-4.14-1.04c-3.17-.61-6.05-2.03-8.54-3.94q-1.83-1.4-2.28-4.26a1.55 1.54-77.2 0 0-.66-1.05l-2.11-1.45a.64.63-54.6 0 1-.15-.9q3.36-4.66.33-9.32a1.74 1.71 82.4 0 0-.9-.7q-3.84-1.34-7.73-2.28c-4.88-1.19-10.54-.09-15.84-.47q-.42-.03-.69-.35-2.35-2.79-5.35-5.18-.76-.6-1.09-1.49-.2-.52-.68-.79c-3.1-1.71-5.87-3.52-8.61-3.2l-.88-.64a.49.47 54.8 0 0-.41-.08q-.61.17-.46.92l-8.63.92q-.48.05-.88-.2c-2.6-1.59-5.75-3.99-8.96-3.95q-2.48.03-4.83.03c-1.32.01-2.12-.8-3.38-.47q-5.17 1.35-10.56.45.37-.96.13-1.97-.12-.49.17-.91.49-.69 1.33-.83.5-.09.78.33 1 1.45 1.79-.1l.37-1.18q2.02-1.09 1.8-2.41l-.79-2.54 8.69-.1q-.21 1.23.12 2.6.03.13.17.17.16.04.34.02.36-.05.34-.4l-.09-2.34q4.54-.1 7.74.48 2.73.51.11 1.41-4.64 1.61-9.04 5.21-.58.59-.67.89-.44 1.52.77.49.13-.11.32-1.05l3.88.4q.58.06.99-.35 7.58-7.66 19.34-8.53 7.38-.55 13.43.23 3.74.48 8.89 2.66a.89.88-7.2 0 1 .35.27q.43.54.16 1-.29.48-.84.57-9.93 1.55-17.53 7.44-.31.24 0 .47l4.59 3.33a.8.79 45.3 0 0 .94.01q8.85-6.18 20.82-8.03 9.18-1.41 19.22 1.53 4.13 1.21-.01 2.38-9.77 2.78-18.92 11.1a.32.32 0 0 0 .12.55q3.21 1.02 6.72 2.27 1.69.6 3.61.39c12.75-1.4 26.01 1.63 34.78 11.29q1.07 1.18 1.74 2.67.25.56-.36.6-.88.07-1.8-.49M213.167 67.048a1.38.5 126.6 0 0 1.224-.81 1.38.5 126.6 0 0 .422-1.406 1.38.5 126.6 0 0-1.224.81 1.38.5 126.6 0 0-.422 1.406m-1.137.312q.12-.76-.48-1.28-.53-.45-.66.23-.35 1.8 1.64 2.68.28.12.48-.13.36-.45-.18-.64l-.36-.13q-.52-.18-.44-.73m-2.89-.172a.73.56-28.8 0 0-.91-.139.73.56-28.8 0 0-.37.843.73.56-28.8 0 0 .91.139.73.56-28.8 0 0 .37-.843m-.973 1.681a1.25.47-44.8 0 0-1.218.547 1.25.47-44.8 0 0-.556 1.215 1.25.47-44.8 0 0 1.218-.547 1.25.47-44.8 0 0 .556-1.215m-3.438 1.855a1.12.51 45.9 0 0-.413-1.159 1.12.51 45.9 0 0-1.145-.45 1.12.51 45.9 0 0 .413 1.16 1.12.51 45.9 0 0 1.145.45m6.42-1.449a.71.6-21.9 0 0-.883-.292.71.6-21.9 0 0-.435.822.71.6-21.9 0 0 .883.292.71.6-21.9 0 0 .435-.822m26.226 2.552a.81.49 94.6 0 0 .553-.768.81.49 94.6 0 0-.423-.846.81.49 94.6 0 0-.553.768.81.49 94.6 0 0 .423.846m15.544 4.674a1.04.48-2.7 0 0-1.062-.43 1.04.48-2.7 0 0-1.016.528 1.04.48-2.7 0 0 1.062.43 1.04.48-2.7 0 0 1.016-.528m3.106 3.36a.6.48 29 0 0-.292-.71.6.48 29 0 0-.758.128.6.48 29 0 0 .292.71.6.48 29 0 0 .758-.128m-.01 2.028a.67.52 35.5 0 0-.243-.812.67.52 35.5 0 0-.847.034.67.52 35.5 0 0 .243.812.67.52 35.5 0 0 .847-.034M313.08 97.51a.59.59 0 0 0-.59-.59.59.59 0 0 0-.59.59.59.59 0 0 0 .59.59.59.59 0 0 0 .59-.59m1.17 19.95a.71.71 0 0 0-.71-.71.71.71 0 0 0-.71.71.71.71 0 0 0 .71.71.71.71 0 0 0 .71-.71m-7.746 1.56a1.07.54 91.4 0 0 .566-1.057 1.07.54 91.4 0 0-.514-1.083 1.07.54 91.4 0 0-.566 1.057 1.07.54 91.4 0 0 .514 1.083m1.7.187a.72.56 117.8 0 0 .831-.376.72.56 117.8 0 0-.16-.898.72.56 117.8 0 0-.83.376.72.56 117.8 0 0 .16.898m5.926.243a.55.55 0 0 0-.55-.55.55.55 0 0 0-.55.55.55.55 0 0 0 .55.55.55.55 0 0 0 .55-.55m-4.97 1.09a.62.62 0 0 0-.62-.62.62.62 0 0 0-.62.62.62.62 0 0 0 .62.62.62.62 0 0 0 .62-.62m6.88.97a.58.58 0 0 0-.58-.58.58.58 0 0 0-.58.58.58.58 0 0 0 .58.58.58.58 0 0 0 .58-.58m-3.45 1.47q.19-.04.34-.17.06-.05.09-.13.06-.15.01-.29-.12-.42-.52-.24l-1.96.86q-.67.29-.39.97l.14.34a.46.45-36.6 0 0 .77.11l.93-1.1q.24-.27.59-.35m-6.54 1.94q-.16.38-.06.75.19.73.66.14.76-.95.76-2.03 0-.76-.75-.9-.25-.05-.48.08a.64.64 0 0 0-.27.8l.14.36q.17.4 0 .8m9.464.02a.93.61 91.6 0 0 .636-.913.93.61 91.6 0 0-.584-.947.93.61 91.6 0 0-.636.913.93.61 91.6 0 0 .584.947m2.917.25a1.11.64 91.5 0 0 .669-1.093 1.11.64 91.5 0 0-.61-1.127 1.11.64 91.5 0 0-.67 1.093 1.11.64 91.5 0 0 .61 1.127m-6.441.31-.55-.56q-.14-.14-.25.03l-.17.25q-.12.19.05.34.81.67.99 1.56.26 1.26.86.13l.88-1.64q.54-1.03-.5-.52-.22.1-.35.3-.41.66-.96.11"/><path fill="#9b30a3" d="m216.85 61.19.09 2.34q.02.35-.34.4-.18.02-.34-.02-.14-.04-.17-.17-.33-1.37-.12-2.6.67-.13.88.05"/><path fill="#73dd7c" d="m207.28 61.24.79 2.54q-1.34.57-2 1.8a.39.38-47 0 0 .01.39q.07.13.19.22l-.37 1.18-.47-.37q-.45-.35-.34-.91.29-1.45-.75-2.38-.51-.44.06-.8l.46-.29q.19-.11.09-.31-.1-.23-.39-.26a.46.45 20.7 0 0-.4.18l-.31.41a.56.56 0 0 1-.95-.09q-.09-.19-.12-.48z"/><path fill="#a90caf" d="M202.78 62.07q.03.29.12.48a.56.56 0 0 0 .95.09l.31-.41a.46.45 20.7 0 1 .4-.18q.29.03.39.26.1.2-.09.31l-.46.29q-.57.36-.06.8 1.04.93.75 2.38-.11.56.34.91l.47.37q-.79 1.55-1.79.1-.28-.42-.78-.33-.84.14-1.33.83-.29.42-.17.91.24 1.01-.13 1.97l-3.39.06q-.89-.62-1.11-1.19-.26-.67.46-.63.75.05 1.24-.43a.91.9 58.7 0 0 .22-.92l-.13-.41q-.22-.65-.69-.16l-1 1.02q-.4.41-.95.27-.89-.22.04-1.5a2.45 2.43 24.6 0 1 2.53-.93q2.4.57 4.86.09a.35.35 0 0 0 .14-.62q-.92-.72-.93-1.85 0-.43-.34-.69-.12-.09-.27-.1-.72-.03-.84.69-.08.51-.35.92-.37.58-.91.16l-1.95-1.47q2.17-1 4.45-1.09m-2.01 5.95q-.54-.1-.8.3a.37.36-65.7 0 0 .2.55q.6.17.87-.25a.4.4 0 0 0-.27-.6"/><path fill="#73dd7c" d="m198.31 70.91-11.49 3.77a.95.95 0 0 1-1-.27q-.48-.55-.04-1.11 2.83-3.6 6.25-6.59.72.04.59-.43l2.33-1.7q.1.92-.74 1.31-.4.19-.23.6l.1.25q.11.26.36.12 1.63-.95 1.79-2.83.84-.69 2.1-.87l1.95 1.47q.54.42.91-.16.27-.41.35-.92.12-.72.84-.69.15.01.27.1.34.26.34.69.01 1.13.93 1.85a.35.35 0 0 1-.14.62q-2.46.48-4.86-.09a2.45 2.43 24.6 0 0-2.53.93q-.93 1.28-.04 1.5.55.14.95-.27l1-1.02q.47-.49.69.16l.13.41a.91.9 58.7 0 1-.22.92q-.49.48-1.24.43-.72-.04-.46.63.22.57 1.11 1.19m-1.38-6.27q.27.3.64.27a.3.3 0 0 0 .24-.44q-.27-.53-.78-.29a.3.29-33.4 0 0-.1.46m-7.51 6.37q.43-.21.59-.62a.36.36 0 0 0-.51-.45q-.54.28-.5.82.03.44.42.25m1.48-.55q.01.15.08.27.28.45.76.25.35-.15.26-.53-.12-.43-.56-.5-.59-.08-.54.51m-1.775 1.56a.97.67-36 0 0-1.179.028.97.67-36 0 0-.39 1.112.97.67-36 0 0 1.178-.028.97.67-36 0 0 .39-1.112m2.453.268a.9.66-19.6 0 0-1.07-.32.9.66-19.6 0 0-.626.924.9.66-19.6 0 0 1.07.32.9.66-19.6 0 0 .626-.924"/><path fill="#9b30a3" d="M208.07 63.78q.22 1.32-1.8 2.41-.12-.09-.19-.22a.39.38-47 0 1-.01-.39q.66-1.23 2-1.8"/><path fill="#9f5ea6" d="M196.23 64.03q-.16 1.88-1.79 2.83-.25.14-.36-.12l-.1-.25q-.17-.41.23-.6.84-.39.74-1.31.57-.45 1.28-.55M196.93 64.64a.3.29-33.4 0 1 .1-.46q.51-.24.78.29a.3.3 0 0 1-.24.44q-.37.03-.64-.27"/><ellipse fill="#9b30a3" rx="1.38" ry=".5" transform="rotate(126.6 90.413 86.783)"/><path fill="#9b30a3" d="m212.47 68.09.36.13q.54.19.18.64-.2.25-.48.13-1.99-.88-1.64-2.68.13-.68.66-.23.6.52.48 1.28-.08.55.44.73"/><path fill="#52be5c" d="M192.62 66.28q.13.47-.59.43.23-.41.59-.43"/><ellipse fill="#9b30a3" rx=".73" ry=".56" transform="rotate(-28.8 235.775 -372.257)"/><path fill="#9b30a3" d="M200.77 68.02a.4.4 0 0 1 .27.6q-.27.42-.87.25a.37.36-65.7 0 1-.2-.55q.26-.4.8-.3"/><path fill="#6c6474" fill-opacity=".996" d="M215.66 68.29q.18.31.42.33-.19.94-.32 1.05-1.21 1.03-.77-.49.09-.3.67-.89"/><ellipse fill="#9f5ea6" rx="1.25" ry=".47" transform="rotate(-44.8 188.253 -216.574)"/><ellipse fill="#9b30a3" rx="1.12" ry=".51" transform="rotate(45.9 19.414 275.782)"/><ellipse fill="#9b30a3" rx=".71" ry=".6" transform="rotate(-21.9 284.958 -509.203)"/><path fill="#9f5ea6" d="M189.42 71.01q-.39.19-.42-.25-.04-.54.5-.82a.36.36 0 0 1 .51.45q-.16.41-.59.62M190.9 70.46q-.05-.59.54-.51.44.07.56.5.09.38-.26.53-.48.2-.76-.25-.07-.12-.08-.27"/><ellipse fill="#73dd7c" rx=".81" ry=".49" transform="rotate(94.6 85.952 145.062)"/><ellipse fill="#9f5ea6" rx=".97" ry=".67" transform="rotate(-36 205.875 -253.53)"/><ellipse fill="#9b30a3" rx=".9" ry=".66" transform="rotate(-19.6 305.49 -515.81)"/><path fill="#6c6474" fill-opacity=".996" d="m240.69 73.87-1.75.2q-.15-.75.46-.92a.49.47 54.8 0 1 .41.08z"/><ellipse fill="#9b30a3" rx="1.04" ry=".48" transform="rotate(-2.7 1750.08 -5305.795)"/><ellipse fill="#9b30a3" rx=".6" ry=".48" transform="rotate(29 -26.087 533.758)"/><ellipse fill="#9f5ea6" rx=".67" ry=".52" transform="rotate(35.5 .432 439.794)"/><path fill="#73dd7c" d="m307.91 99.94-3.64.7q.16-.19.21-.4.12-.5-.31-.21l-.27.18q-.2.13-.4.04-2.73-1.2-1.53-3.39.25-.47.15-.98-.39-1.93-.02-3.85.03-.13.15-.11l.32.04a.31.31 0 0 1 .28.35q-.14 1.1.24 2.11.18.48.62.74c1.84 1.08 4.45 2.3 4.2 4.78m-3.83-1.41a.58.58 0 0 0-.58-.58.58.58 0 0 0-.58.58.58.58 0 0 0 .58.58.58.58 0 0 0 .58-.58"/><circle cx="312.49" cy="97.51" r=".59" fill="#9f5ea6"/><circle cx="303.5" cy="98.53" r=".58" fill="#9f5ea6"/><path fill="#9f5ea6" d="m316.2 100.38-2.2-.45q-.3-.76.37-1.18a1.17 1.16 71.6 0 1 1.77.89zM312.85 115.64q-.5.82-.96 1.16-.49.38-.84-.14-.53-.8-1.41-.58-.61.16-.68-.46l-.03-.3a.34.34 0 0 1 .22-.36q.57-.22 1.04.11t.73-.18q.11-.22.11-.56 1.25.61 1.82 1.31"/><circle cx="313.54" cy="117.46" r=".71" fill="#9f5ea6"/><ellipse fill="#9b30a3" rx="1.07" ry=".54" transform="rotate(91.4 95.714 208.54)"/><ellipse fill="#9f5ea6" rx=".72" ry=".56" transform="rotate(117.8 118.507 152.347)"/><circle cx="313.58" cy="119.45" r=".55" fill="#9f5ea6"/><path fill="#9b30a3" d="M318.88 120.69q-1.09 1.64-1.62.84-.78-1.17.31-2.09z"/><circle cx="308.54" cy="120.54" r=".62" fill="#9b30a3"/><circle cx="315.46" cy="121.51" r=".58" fill="#9f5ea6"/><path fill="#9b30a3" d="m312 123.33-.93 1.1a.46.45-36.6 0 1-.77-.11l-.14-.34q-.28-.68.39-.97l1.96-.86q.4-.18.52.24.05.14-.01.29-.03.08-.09.13-.15.13-.34.17-.35.08-.59.35"/><path fill="#9f5ea6" d="m306.05 124.12-.14-.36a.64.64 0 0 1 .27-.8q.23-.13.48-.08.75.14.75.9 0 1.08-.76 2.03-.47.59-.66-.14-.1-.37.06-.75.17-.4 0-.8"/><ellipse fill="#9b30a3" rx=".93" ry=".61" transform="rotate(91.6 97.473 215.43)"/><ellipse fill="#9b30a3" rx="1.11" ry=".64" transform="rotate(91.5 98.793 217.155)"/><path fill="#9b30a3" d="M312.95 125.39q.13-.2.35-.3 1.04-.51.5.52l-.88 1.64q-.6 1.13-.86-.13-.18-.89-.99-1.56-.17-.15-.05-.34l.17-.25q.11-.17.25-.03l.55.56q.55.55.96-.11"/><path fill="#9f5ea6" d="M322.95 130.92q-.54 0-.9-.15-.48-1.29-.02-2.24.26-.52.75-.2.85.55.17 2.59"/><path fill="#9b30a3" d="M324.87 131.37q.02-1.56.67-2.63l1.22 2.49q.26.54-.33.65-.76.14-1.56-.51"/><path fill="#5dc967" d="m306.38 133.27-4.49 1.78a1.67 1.67 0 0 0-.65 2.65q2.63 3.05 2.8 7.26-.33 1.32.56 2.26.35.38.39.9l.1 1.44q.03.42.45.38l.4-.04q.26-.03.19-.28-.25-.79.08-1.58.2-.48-.03-.96l-.92-1.9 8.29 4.45q-.72.34-.69 1.31-.79-.26-.9.56-.06.4.25.63-.77.92-.25 1.64.23.4.79.6-.44.27-.67.58-.32.44-.03.91.41.65 1.22 1.16-.38.33.45 1.48-.71.26-1.41.04-.19-.93-.8-.6-.56.31-.76.9-2.26 1.6-1.37 3.58.25.54.85.55.93.02 1.41.74.27.41.15.89l-.33 1.32q-.85.56.58 1.98l-9.4-.05q-.54 0-.6.54l-.32 3.06q-.65.19-1.08.08l.82-8.58q.53.08.9 0 .46-.11.58-.55.05-.2.07-.41.06-.56.47-.94.71-.65.53-1.75a.44.44 0 0 0-.51-.37l-.3.05q-.45.08-.39.53.22 1.82-1 1.68l.3-3.94q.38.18.51.08a.89.88 60.7 0 0 .28-1.01q-.23-.61-.79-.34l-.05-1.05q.83-.7.95-1.41.07-.36-.15-.47-.23-.12-.65.03-.03-.05-.07-.09l.11-2.53q.7-.07.82-.53.08-.31-.21-.79-.27-.42-.55-.84l-.03-1.19q1.25-1.35.18-2.57c1.04-2.16-1.06-5.21-2.71-6.48q-.4-.3-.44-.81-.16-2.13.7-4.32.5-.02 1.09-.42.57-.39.93.2.45.72 1.33.32 1.11-.51-.07-.83-.85-.23-2.06-1.52.43-.4 1.02-.32.52.07.86.46.61.7 1.37 1.18.42.26.9.36.7.14 1 .91m-1.8 22.94q.05.82.42 1.2.41.41.76-.06.92-1.24.27-2.47.21-1.76-1.89.38-.38.39.02.76.15.15.42.19"/><path fill="#9b30a3" d="M301.23 130.68q1.21 1.29 2.06 1.52 1.18.32.07.83-.88.4-1.33-.32-.36-.59-.93-.2-.59.4-1.09.42l.26-2.22z"/><path fill="#6c6474" fill-opacity=".996" d="M302.46 144.54q1.07 1.22-.18 2.57-.33-1.33.18-2.57"/><path fill="#a90caf" d="m305.26 145.18.92 1.9q.23.48.03.96-.33.79-.08 1.58.07.25-.19.28l-.4.04q-.42.04-.45-.38l-.1-1.44q-.04-.52-.39-.9-.89-.94-.56-2.26z"/><path fill="#52be5c" d="M302.25 150.46q-.14-1.09.06-2.16.28.42.55.84.29.48.21.79-.12.46-.82.53"/><path fill="#73dd7c" d="m313.55 149.63 1.42 1.03q-.56 0-.78.27-.36.43.08.78 1.26 1 3.21 1.18 3.52 3.07 5.85 7.12-.42.41.07.77.1.08.22.02.05-.04.11-.07.71.8 1.05 1.74-.45.17-.73.47-.4.03-.65.15-.59.31-.1.77.49.47 1.41.11l1.17.83q1.25 3.26 1.01 6.5-.05.68-.68.43l-4.19-1.66q.3-1.01-.78-1.16-.68-.09-1.42.44l-6.34-1.47-2.02-1.96.33-1.32q.12-.48-.15-.89-.48-.72-1.41-.74-.6-.01-.85-.55-.89-1.98 1.37-3.58 1.37.52 1.56-.3.7.22 1.41-.04l1.67 2.9q.48.83.57-.12l.03-.34q.05-.46-.31-.74-.95-.73-.52-1.99 2.35-.61-.55-2.2-.49-.27-.68.27-.1.31 0 .72l-.66.02q-.81-.51-1.22-1.16-.29-.47.03-.91.23-.31.67-.58.71-.38.44-.9a.7.7 0 0 0-.93-.3q-.29.14-.3.6-.52-.72.25-1.64.54.04.75-.41.18-.42-.1-.78-.03-.97.69-1.31m3.482 6.31a1.46.43 41.6 0 0-.806-1.292 1.46.43 41.6 0 0-1.378-.647 1.46.43 41.6 0 0 .806 1.29 1.46.43 41.6 0 0 1.378.648m4.098 5.02q1.29-.22.95-1.51a.52.52 0 0 0-.88-.23l-2.22 2.37q-.18.18 0 .37l.25.27q.02.02.12-.07c.52-.54 1-1.07 1.78-1.2m-10.016.05a.76.57-44.3 0 0-.942.122.76.57-44.3 0 0-.146.939.76.57-44.3 0 0 .942-.123.76.57-44.3 0 0 .146-.939m8.665 2.958a.7.44 62 0 0 .06-.825.7.44 62 0 0-.718-.411.7.44 62 0 0-.06.825.7.44 62 0 0 .718.411m-2.818.977a.74.51 47.4 0 0-.126-.89.74.51 47.4 0 0-.876-.2.74.51 47.4 0 0 .126.89.74.51 47.4 0 0 .876.2m5.059-.833a.58.41-40.7 0 0-.707.067.58.41-40.7 0 0-.173.69.58.41-40.7 0 0 .707-.068.58.41-40.7 0 0 .173-.69m-8.66.778q-.45.37-.22.94.21.52.59.11.4-.41.16-.92a.35.34 58 0 0-.53-.13m6.623 2.147a1.4.43 45.4 0 0-.677-1.299 1.4.43 45.4 0 0-1.289-.695 1.4.43 45.4 0 0 .677 1.299 1.4.43 45.4 0 0 1.289.695m-4.503.87a.96.52 94.2 0 0 .589-.919.96.52 94.2 0 0-.449-.995.96.52 94.2 0 0-.589.919.96.52 94.2 0 0 .449.995m9.714-1.197a.64.52 8.1 0 0-.56-.605.64.52 8.1 0 0-.708.425.64.52 8.1 0 0 .56.605.64.52 8.1 0 0 .708-.425m-.135 2.198a.61.52 38.3 0 0-.157-.786.61.52 38.3 0 0-.8.03.61.52 38.3 0 0 .156.786.61.52 38.3 0 0 .8-.03"/><path fill="#9b30a3" d="m314.97 150.66 2.51 2.23q-1.95-.18-3.21-1.18-.44-.35-.08-.78.22-.27.78-.27"/><path fill="#9f5ea6" d="M312.86 150.94q.28.36.1.78-.21.45-.75.41-.31-.23-.25-.63.11-.82.9-.56"/><path fill="#6c6474" fill-opacity=".996" d="M302.21 153.08q-.15.53-.1 1.13l.03-1.22q.04.04.07.09"/><path fill="#52be5c" d="M302.06 154.93q.19-.29.05-.72-.05-.6.1-1.13.42-.15.65-.03.22.11.15.47-.12.71-.95 1.41"/><path fill="#9f5ea6" d="M312.75 154.37q-.56-.2-.79-.6.01-.46.3-.6a.7.7 0 0 1 .93.3q.27.52-.44.9"/><path fill="#9b30a3" d="m306.03 154.88-1.45 1.33q-.27-.04-.42-.19-.4-.37-.02-.76 2.1-2.14 1.89-.38"/><ellipse fill="#9b30a3" rx="1.46" ry=".43" transform="rotate(41.6 -46.01 493.344)"/><path fill="#73dd7c" d="M306.03 154.88q.65 1.23-.27 2.47-.35.47-.76.06-.37-.38-.42-1.2z"/><path fill="#9f5ea6" d="M315.16 158.21q-1.15-.38-1.23-1.21-.1-.41 0-.72.19-.54.68-.27 2.9 1.59.55 2.2"/><path fill="#6c6474" fill-opacity=".996" d="M302.11 157.25q-.15-.62 0-1.27.56-.27.79.34a.89.88 60.7 0 1-.28 1.01q-.13.1-.51-.08"/><path fill="#9b30a3" d="m313.27 157.02.66-.02q.08.83 1.23 1.21-.43 1.26.52 1.99.36.28.31.74l-.03.34q-.09.95-.57.12l-1.67-2.9q-.83-1.15-.45-1.48"/><path fill="#9f5ea6" d="M312.31 158.54q-.19.82-1.56.3.2-.59.76-.9.61-.33.8.6M301.46 162.95l.35-1.76q1.22.14 1-1.68-.06-.45.39-.53l.3-.05a.44.44 0 0 1 .51.37q.18 1.1-.53 1.75-.41.38-.47.94-.02.21-.07.41-.12.44-.58.55-.37.08-.9 0"/><path fill="#a90caf" d="M321.13 160.96c-.78.13-1.26.66-1.78 1.2q-.1.09-.12.07l-.25-.27q-.18-.19 0-.37l2.22-2.37a.52.52 0 0 1 .88.23q.34 1.29-.95 1.51"/><path fill="#52be5c" d="M323.73 160.73q-.06.03-.11.07-.12.06-.22-.02-.49-.36-.07-.77.39.17.4.72"/><ellipse fill="#9f5ea6" rx=".76" ry=".57" transform="rotate(-44.3 353.7 -300.696)"/><path fill="#52be5c" d="M324.78 162.47q.85 1.07 1.1 2.33l-1.17-.83q.21-.37.04-.71-.22-.44-.7-.32.28-.3.73-.47"/><ellipse fill="#9f5ea6" rx=".7" ry=".44" transform="rotate(62 23.795 347.502)"/><path fill="#a90caf" d="M324.05 162.94q.48-.12.7.32.17.34-.04.71-.92.36-1.41-.11-.49-.46.1-.77.25-.12.65-.15"/><ellipse fill="#9b30a3" rx=".74" ry=".51" transform="rotate(47.4 -29.027 442.658)"/><ellipse fill="#9f5ea6" rx=".58" ry=".41" transform="rotate(-40.7 382.532 -351.264)"/><path fill="#9b30a3" d="M313.36 164.89a.35.34 58 0 1 .53.13q.24.51-.16.92-.38.41-.59-.11-.23-.57.22-.94"/><ellipse fill="#a90caf" rx="1.4" ry=".43" transform="rotate(45.4 -38.966 464.317)"/><path fill="#9b30a3" d="m311.46 165.92 2.02 1.96-1.44.02q-1.43-1.42-.58-1.98"/><ellipse fill="#9b30a3" rx=".96" ry=".52" transform="rotate(94.2 80.205 230.089)"/><ellipse fill="#9f5ea6" rx=".64" ry=".52" transform="rotate(8.1 -1014.352 2375.277)"/><ellipse fill="#9f5ea6" rx=".61" ry=".52" transform="rotate(38.3 -80.368 551.611)"/><path fill="#52be5c" d="M322.02 170.07q-1.24-.19-2.2-.72.74-.53 1.42-.44 1.08.15.78 1.16M301.72 171.45q-.24.87.2 1.11 8.79 4.79 11.6 14.54c1.31 4.54 1.86 8.35.45 13.23q-.18.64-.76.3-5.58-3.27-13.04-4.84-1.11-.23-1.37.87l-.9 3.8a1.94 1.93 28.4 0 0 .56 1.86q1.69 1.57 2.55 3.31-.76.03-1.08.43a.55.54 36.1 0 0 .13.79q.7.45 1.58-.38 2.44 4.37 3.09 9.53-1.3.21-2.17-.97-.15-.21-.36-.07l-.24.15q-.21.14-.08.35 1.07 1.77 3 1.58.2 1.01-.06 2.06-.75-1.25-1.32-1.2-.6.06-.42.64.33 1.08 1.86 1.4.2 3.4-.16 6.18-.4 3.09-2.12.49-2.89-4.34-8.93-6.85-.53-.22-.69.32-1.27 4.33-.44 8.77-1.96-.06 1.41 2.96.48.3.66 1.21-2.05.37-3.73-1.33.2-3.5.38-7.13.16-3.25.93-6.03.82-2.95 1.78-5.86.56.31 1.4-.5 2.13-2.06-.7-2.19c.74-3.39 1.9-6.76 2.4-10.06q.88-5.92 1.51-11.91.24 1.3 1.22 1.41-.07.15-.07.31.01.37.36.24 1.61-.61 2.9-2.28.42.77.93.76.62-.01.52-.63-.11-.76-1.26-1.54.05-.58-.14-1.01-.25-.56-.84-.39l-.5.15q-.21.06-.43-.02-.19-.07-.23-.25-.07-.39.25-.61 1.44-1.01.27-2.34-.6-.68-1.45-.91-.52-.13-.54-.68l-.02-.69.5-3.36 2.16 1.86a.53.53 0 0 0 .87-.39l.01-.72a.07.07 0 0 0-.1-.06q-.26.17-.52.03-.31-.15-.54-.48-.75-1.09-1.85-1.55-.17-1.57.5-3.33.43.11 1.08-.08m3.22 6.43q.58.49 1.07-.06.25-.27.07-.6a.57.56 68.8 0 0-.65-.29q-.35.1-.56.4a.4.4 0 0 0 .07.55m-2.028 3.13a1.43.53 45.5 0 0-.624-1.391 1.43.53 45.5 0 0-1.38-.649 1.43.53 45.5 0 0 .624 1.392 1.43.53 45.5 0 0 1.38.648m3.168-1.49q-.01-.26-.21-.41-.17-.14-.4-.09-.23.04-.41.2a.44.43 44.2 0 0 .01.67l1.2.96q.58.47.66-.28.05-.46-.46-.58a.51.49 6.1 0 1-.39-.47m-2.703 3.81a.83.54 105.6 0 0 .743-.655.83.54 105.6 0 0-.297-.944.83.54 105.6 0 0-.743.654.83.54 105.6 0 0 .297.944m-4.267 20.19a.56.56 0 0 0-.56-.56.56.56 0 0 0-.56.56.56.56 0 0 0 .56.56.56.56 0 0 0 .56-.56m-.98 3.04a.65.65 0 0 0-.65-.65.65.65 0 0 0-.65.65.65.65 0 0 0 .65.65.65.65 0 0 0 .65-.65m1.958 2.348a.82.45-45.2 0 0-.897.265.82.45-45.2 0 0-.259.899.82.45-45.2 0 0 .897-.265.82.45-45.2 0 0 .259-.899m-2.597 6.107a1.07.58 95.3 0 0 .677-1.011 1.07.58 95.3 0 0-.48-1.12 1.07.58 95.3 0 0-.675 1.012 1.07.58 95.3 0 0 .478 1.12m-.811 2.955q-.26.05-.38.27-.15.27.09.47.91.73 2.09 1.04.71.19.26-.4-.82-1.06-1.35-2.48-.29-.78-1.04-.88-.82-.11-.34.57l.79 1.09a.21.2 66.6 0 1-.12.32m4.44.882a1.55.49 39.8 0 0-.876-1.369 1.55.49 39.8 0 0-1.505-.615 1.55.49 39.8 0 0 .877 1.369 1.55.49 39.8 0 0 1.505.615m-7.02-.292a.76.76 0 0 0-.76-.76.76.76 0 0 0-.76.76.76.76 0 0 0 .76.76.76.76 0 0 0 .76-.76m8.51 3.09q-.03.17-.15.31-.48.58.19.91.52.26 1.09.29.74.02.58-.7-.34-1.53-1.54-2.51a.39.38 19.3 0 0-.63.3q.01.51.33.88.2.23.13.52"/><path fill="#9f5ea6" d="m300.11 176.17.03-1.31q1.1.46 1.85 1.55.23.33.54.48.26.14.52-.03a.07.07 0 0 1 .1.06l-.01.72a.53.53 0 0 1-.87.39z"/><path fill="#9b30a3" d="M304.94 177.88a.4.4 0 0 1-.07-.55q.21-.3.56-.4a.57.56 68.8 0 1 .65.29q.18.33-.07.6-.49.55-1.07.06"/><ellipse fill="#9b30a3" rx="1.43" ry=".53" transform="rotate(45.5 -63.659 449.982)"/><path fill="#9f5ea6" d="M306.47 179.99q.51.12.46.58-.08.75-.66.28l-1.2-.96a.44.43 44.2 0 1-.01-.67q.18-.16.41-.2.23-.05.4.09.2.15.21.41a.51.49 6.1 0 0 .39.47"/><path fill="#9b30a3" d="M303.24 186.28q-.88-.52-2-.08-.41.16-.59.57-.07.15-.22.24-.41.25-.45-.23l-.17-2.18a1.03 1.02 69.7 0 1 .42-.92q.45-.32.53-.9.08-.59-.47-.81-.49-.19-1.05.25l.37-2.69.02.69q.02.55.54.68.85.23 1.45.91 1.17 1.33-.27 2.34-.32.22-.25.61.04.18.23.25.22.08.43.02l.5-.15q.59-.17.84.39.19.43.14 1.01"/><ellipse fill="#9f5ea6" rx=".83" ry=".54" transform="rotate(105.6 82.526 206.487)"/><path fill="#73dd7c" d="M303.24 186.28q1.15.78 1.26 1.54.1.62-.52.63-.51.01-.93-.76.14-.23.08-.43a.36.35 60.3 0 0-.57-.16l-2.7 2.32q-.98-.11-1.22-1.41l.6-5.79q.56-.44 1.05-.25.55.22.47.81-.08.58-.53.9a1.03 1.02 69.7 0 0-.42.92l.17 2.18q.04.48.45.23.15-.09.22-.24.18-.41.59-.57 1.12-.44 2 .08"/><path fill="#9b30a3" d="M303.05 187.69q-1.29 1.67-2.9 2.28-.35.13-.36-.24 0-.16.07-.31l2.7-2.32a.36.35 60.3 0 1 .57.16q.06.2-.08.43"/><circle cx="298.55" cy="203.52" r=".56" fill="#9f5ea6"/><path fill="#6c6474" fill-opacity=".996" d="M301.01 205.63q.43.28.63.84-.88.83-1.58.38a.55.54 36.1 0 1-.13-.79q.32-.4 1.08-.43"/><circle cx="297.48" cy="206.56" r=".65" fill="#9b30a3"/><ellipse fill="#9b30a3" rx=".82" ry=".45" transform="rotate(-45.2 401.389 -255.018)"/><path fill="#9f5ea6" d="M294.73 209.98q2.83.13.7 2.19-.84.81-1.4.5.02-1.39.7-2.69"/><ellipse fill="#a90caf" rx="1.07" ry=".58" transform="rotate(95.3 51.284 242.606)"/><path fill="#9f5ea6" d="m304.73 216 .15 1.04q-1.93.19-3-1.58-.13-.21.08-.35l.24-.15q.21-.14.36.07.87 1.18 2.17.97"/><path fill="#9b30a3" d="m296.8 217.65-.79-1.09q-.48-.68.34-.57.75.1 1.04.88.53 1.42 1.35 2.48.45.59-.26.4-1.18-.31-2.09-1.04-.24-.2-.09-.47.12-.22.38-.27a.21.2 66.6 0 0 .12-.32"/><ellipse fill="#9b30a3" rx="1.55" ry=".49" transform="rotate(39.8 -150.95 523.204)"/><circle cx="293.34" cy="218.56" r=".76" fill="#6c6474" fill-opacity=".996"/><path fill="#9f5ea6" d="M304.82 219.1q.25.4.12.84-1.53-.32-1.86-1.4-.18-.58.42-.64.57-.05 1.32 1.2"/><path fill="#9b30a3" d="M302.48 221.13q-.32-.37-.33-.88a.39.38 19.3 0 1 .63-.3q1.2.98 1.54 2.51.16.72-.58.7-.57-.03-1.09-.29-.67-.33-.19-.91.12-.14.15-.31.07-.29-.13-.52"/><path fill="#6c6474" fill-opacity=".996" d="M292.6 228.85q1.28 1.1 1.41 2.96-3.37-3.02-1.41-2.96"/><path fill="#a90caf" d="M290.94 231.69q1.68 1.7 3.73 1.33l.23.87q-2.82-.23-3.62 1.06a.72.72 0 0 0 .11.91l.75.72a.65.65 0 0 0 .99-.1q.67-.99 1.75-1.52l.27 1.25q-.62-.3-2.02 1.32-.47.55-1.04.1-1-.79-2.28-.72z"/><path fill="#73dd7c" d="m294.9 233.89-.02 1.07q-1.08.53-1.75 1.52a.65.65 0 0 1-.99.1l-.75-.72a.72.72 0 0 1-.11-.91q.8-1.29 3.62-1.06"/><path fill="#73dd7c" d="m295.15 236.21.48 4.37q-.8.05-1.4.47-.45.31-.09.71.62.72 1.52 1.25.1 2.72-.61 4.26-1.23 2.66-2.05-.15-.73-2.5-3.38-5.6-.65-.56-.21-1.28 1.05-1.67.11-2.74-.02-.29.29-.59 1.28-.07 2.28.72.57.45 1.04-.1 1.4-1.62 2.02-1.32m-3.61 4.39q1.24-.24 2.25-.88.86-.54-.14-.74-1.41-.27-2.34 1.3-.24.41.23.32"/><path fill="#52be5c" d="M289.52 237.5q.94 1.07-.11 2.74-.44.72.21 1.28-1.04 2.05-1.28 4.38-.05.5.27.9 2.99 3.73 2.25 8.43a.56.55 29.7 0 1-.97.26c-1.89-2.25-4.2-3.91-3.5-7.27q1.14-5.44 3.13-10.72"/><path fill="#9f5ea6" d="M291.31 240.28q.93-1.57 2.34-1.3 1 .2.14.74-1.01.64-2.25.88-.47.09-.23-.32"/><path fill="#9b30a3" d="m295.63 240.58.03 2.43q-.9-.53-1.52-1.25-.36-.4.09-.71.6-.42 1.4-.47"/></svg>