<svg xmlns="http://www.w3.org/2000/svg" viewBox="0 0 382 382"><g fill="none" stroke="gray" stroke-width="2"><path d="M258.16 65.66q-.33-1.74.57-3.44.13-.25-.14-.16-.22.07-.16.33-1.04 1.69-1.71 3.53M250.32 68.53q-4.88-5.13-11.13-8.25M238.02 60.28q.1.27.27.54.18.26.46.39 3.41 1.59 6.33 3.91 1.59 1.27-.31.53-5.61-2.18-11.25-2.79-.43-.04-.49.39l-.04.29q-.02.18.16.21 7.13.94 13.73 3.86.99.43 2.32 1.54M252.8 74.53q-1.62 1.41-2.59 3.53M241.08 73.67q-2.38-2.48-5.45-3.97a.46.46 0 0 0-.61.2l-.12.24q-.08.15.06.25l4.93 3.53M234.15 74.66q-2.8-1.52-4.9-.01M220.16 70.81q.9-1.61 2.63-1.98.58-.12.22-.59-.22-.29-.89-.55M225.54 65q.68.97.93 2.21.14.7-.53.45-.8-.29-1.44.16-.75.52.16.67 1.06.18 2.09.13.62-.03.94.49 1.42 2.32 3.7 3.83.11.07.23.02.05-.02.08-.06.1-.16-.01-.31-1.37-1.68-2.65-3.3-.5-.62.29-.51 2.23.31 4.29 1.11.16.06.23-.1l.1-.26a.31.31 0 0 0-.15-.4q-2.34-1.27-5.04-1.42-.59-.03-.88-.54l-1.53-2.68M228.77 63.22q1.46.68 2.68.31.55-.17.25-.66-.33-.52-1.25-.51M267.41 84.74q-.19-.76-.67-1.12-.46-.34-.71.17-.36.71.17 1.06M264.99 84.78l.93-1.52q.28-.46-.08-.87l-1.01-1.16q-.4-.45-.95-.22-2.98 1.24-6.54 1.62-.48.05-.62.52-.2.65.34 1.71M253.87 81.4q2.01-1.48-.44-5.26a.53.53 0 0 0-.9.02l-1.65 2.88M253.7 74.1l2.01 4.91q.27.67.72.09l2.37-3.06a.78.78 0 0 0-.14-1.09L256 72.91M214.99 61.25q-.14 1.3.4 1.94.24.29.61.23l5.01-.68a.49.48 87 0 1 .55.5l-.02.37q0 .01-.19.04l-4.72.69q-.58.08-.59.67-.02 1.33.87 2.12M215.89 67.97l-.87-2.47q-.2-.59-.82-.48l-.58.11a.71.7 75.8 0 0-.54.92l1.09 3.25q.17.51.69.63 1.54.37 2.41-1.13M206.01 71.31q.02-.38-.05-.6-.12-.4-.54-.37-.79.06-.65.88M196.69 71.45q-.48-.98.26-1.77.98-1.04 3.85-2.81.45-.28.26-.77l-1.32-3.41M200.59 62.49l1.83 3.83a1.11 1.09-11 0 0 .95.63l.4.01a.62.61 87.3 0 0 .64-.71l-.67-4.3M204.82 61.73l.8 3.29q.13.53.56.2l5.13-3.96M289.5 69.32q-1.47 1.28-2.2 3.48M272.11 82.24l2.29-4.56a.29.29 0 0 0-.11-.38l-.42-.27q-.23-.14-.36.1l-3.8 7.39M269.04 84.62l-.97-1.71q-.22-.4-.03-.82 1.74-3.85 4.48-5.95.93-.72-.15-1.17-.37-.15-.4-.56-.09-1.25-.85-.25c-.79 1.06-.9 2.33-2.04 3.14q-1.63 1.14-3.47 1.97-.61.28-.72-.38l-.14-.86q-.09-.55-.65-.6-.22-.02-.37.12-.39.35-.77-.01l-1.82-1.69q-.5-.47-.29-1.11.33-1 .93-1.87.41-.59.54.11l.32 1.75q.03.14.11.26.15.21.31.16.23-.08.22-.33-.06-1.85-1.08-3.31a.52.52 0 0 0-.89.05l-1.25 2.33q-.3.55-.79.17l-2.34-1.83M196.69 71.45l-.85-.71q-.39-.33-.73.05-.42.49-.66 1.13M191.65 73.29q-.01-.6.64-1.2.62-.55.03-1.12-.23-.23-.36-.55-.45-1.07-.84.02l-1.19 3.25M188.79 73.89q.32-1.33.87-2.69.28-.68-.12-.81-.36-.11-1.14 0M190.07 68.72q.47-.05.42-.52M223.82 61.74q-1.26.98-.57 1.95M289.98 69.42l-1.17 2.89M273.6 67.79l.58 4.02a.6.59-35.5 0 0 1.12.18l2.15-4.17" vector-effect="non-scaling-stroke"/><path d="M279.71 67.72q-3.51 4.36-4.15 8.77-.1.64-.51.14-1.67-2.04-1.31-3.65.18-.84-.64-.6-.2.05-.36.19-.22.19-.51.13-.16-.03-.24-.18-.12-.25-.06-.51.46-2.01.09-3.89M271.14 83.61q-.42.86-.19 1.3M275.24 85.08q.31.39-.2.53M277.03 85.45q-.27.47-.75.72M287.13 86.07q.64 3.38-2.83 4.02-.31.06-.54-.16-.18-.18-.39.04-.44.46.06.85.51.4.47 1.04-.2 3.15 1.29.37.44-.81 1.06-1.45.59-.6 1.77-.87 3.75-.86 6.88-3.25M307.47 90.61l-.69 3.05q-.15.7.28.14.83-1.07 1.15-2.61M310.44 92.34l-3.64 5.08a.24.24 0 0 0 .38.29L311 92.8M304.87 100.67q-.66-3.27 1.38-5.95.09-.12-.04-.2t-.21.05q-1.93 3.13-3.79 6.32M294.31 108.27q.65.87 1.47.06M318.35 120.22q-1.87 2.88-1.78 5.7a.29.29 0 0 0 .44.24l4.54-2.7M322 124.03l-1.43 1.13q-.39.31.05.53l4.08 2.11M316.99 131.07q.16-1.52-.11-2.55a.38.37-36.4 0 0-.68-.1q-.74 1.17-.53 2.52M314.48 131.22q.23-.63.18-1.1-.08-.65-.55-.19l-1.82 1.77M310.92 131.76l3.69-3.66a2.09 2.09 0 0 0 .31-2.58l-1.28-2.1q-.68-1.11-1.54-.14l-6.39 7.14q-.95 1.07.31 1.74.35.19.88.85M306.24 133.31q-.81-.29-1.66.31-.48.33-.81-.15-.12-.18-.12-.4.03-.87-.6-.28c-1 .95-2.05 2.37-3.54 2.65M299.76 134.23q1.61-.8 2.17-2.01.22-.48-.19-.81-.59-.47-1.36-.65M300.59 129.97q1.21.11 2.15.8a.94.93-63.7 0 0 1.44-.49q1.08-3.52 1.57-8.07c.26-2.44-2.55-2.51-4.35-2.04M282.6 95.77q.73-.86.38-1.67" vector-effect="non-scaling-stroke"/><path d="M322.69 124.75q-.49-.12-.72.11a.67.66 30.8 0 0 .28 1.09q.4.13.91-.29M302.73 140.4q-.45.05-.6.35M288.46 86.12q-.37.14-.36.48.01.45.31.51a.44.44 0 0 0 .51-.3q.13-.43-.21-.67M290.26 86.22q-.16 1.41-1.5 1.86-.24.08-.17.33l.07.27q.03.09.12.06l3.6-1.22q.47-.16.67-.62l.24-.54M303.36 141.47q-.43.46-.95.43M309.54 147.18l-2.98 6.2q-1.71 3.57-2.13-.37-.3-2.86-1-6.34-.06-.27.03-.54l.22-.68q.15-.44-.23-.72-.34-.25-.94-.27M311.11 148.15l-3.83 7.18q-.31.57.24.93 2.8 1.82 5.67 4.31.06.06.01.13l-.28.38q-.16.22-.38.06l-5.27-3.85a.67.66 26 0 0-1.03.35l-2.13 7.36q-.14.46.16.85.93 1.2.68 1.79M302.38 167.74l-.54-1.75q-.14-.48.19-.86 1.34-1.54 1.77-3.19.32-1.25-.58-.32-.57.59-.99 1.24-.38.58-.57-.08-.08-.28.05-.75" vector-effect="non-scaling-stroke"/><path d="M301.74 161.7q1.85-2.23 1.73-5.15-.03-.69.62-.43.26.1.33.47.08.45.32.06.09-.13.02-.33-.05-.13-.17-.21-1.29-.73-2.34-2.21M302.32 153.3l.48.07q.62.09.51-.53l-.76-4.14M302.44 148.46l-.05-.66M315.1 150.93l-.06 7.39q0 .5-.24.94l-4.6 8.34M301.77 168.79q-.49.09-.66.43M318.51 153.88l-7.46 13.82M301.69 171.56q-.99.7-.79 1.31.17.55.87.04M307.28 176.66l-1-.41a1.8 1.8 0 0 0-2.47 1.85q.12 1.13 1.29 1.76a1.05 1.04-44.1 0 0 .97.01q1.41-.72 2.44-2.02M309.21 178.83l-4.72 3.81a1.66 1.66 0 0 0 .23 2.74c1.07.61 2.61 1.6 3.76.57q.51-.46.08-1l-1.66-2.11a.25.25 0 0 1 .01-.33l.23-.26q.19-.21.39 0l1.62 1.67q.38.39.78.02l1.58-1.51M312.05 183.42q-.92.6-1.39 1.45-.28.51.06.97l.87 1.16q.57.76-.33.47-.92-.3-1.5-1.16a.38.37 49.3 0 0-.59-.05l-.38.41q-.15.15.01.3 2.66 2.53 4.54.04M313.68 188q-.3 0-.32.25-.04.59.36.53M314.5 191.44q-.96-.66-1.68.41-.73 1.08-1.51 1.93t-.27-.18q.68-1.37 1.16-2.71.88-2.45-1.12-.8-2.05 1.7-3.87 3.79-.57.65-.1 1.31a1.22 1.19-52.5 0 0 2.1-.31q.06-.18.23-.26.99-.49.21.28-1.32 1.31-1.18 3.37M306.94 197.73l-.12-1.52a.8.79-19.3 0 0-1.24-.59q-.59.39-.64 1.45M298.99 195.86q-.35-.24-.17-.79.1-.29.46-.53 2.47-1.66 4.54-3.92.59-.64.32-1.46l-1.51-4.6q-.21-.63-.55-.06-1.13 1.89-3.37 3.35M299.06 186.18q2.14-1.24.1-2.38M299.29 183.3q.95.51 1.71.54a1.57 1.56-10.6 0 0 1.5-2.18q-.31-.71-.12-1.45.21-.82-.46-.3l-2.56 1.97" vector-effect="non-scaling-stroke"/><path d="M299.55 180.51q5.04-4.42.64-7.06M319.05 154.61q-2.69 3.86-3.61 8.33-.1.48.15.9.47.8.44 1.77-.01.52.22.98l.97 1.9M314.65 194.21l-4.68 4.55" vector-effect="non-scaling-stroke"/><path d="M300.11 177.69q.65-.73.47-1.36-.04-.16-.2-.16-.12 0-.25.09M298.76 196.22q-1.16.49-.11.49M298.11 199.01q.21-2.13-.61-1.29M325.32 163.33q-2.1 2.92-2.73 6.52-.05.3.25.36l.3.05q.29.05.37-.23l1.95-6.1M314.63 195.44l-3.82 3.68M297.67 200.48q-.17.08-.05.81M304.94 216.65q-1.08 1.23-1.35 2.66-.11.56-.43.09-.06-.08-.16-.1-.47-.12-.93.16-1.87 1.13-3.64 2.58M297.5 221.6l3.51-2.76q.4-.31.03-.66c-1.9-1.74-5.06.44-5.62 2.29M293.36 219.58q1.08-1.76-.11-3.96M293.48 214.44q1.34-.18 1.32-1.56-.01-.75-.58-.92M294.11 211.7q2.4-1.53 2.72-3.8.07-.5-.36-.77l-.86-.55M296.04 206.02q.48.11.94.02.58-.11.26-.61-.35-.54-1.12-.81M296.42 204.03q.79.21 1.26-.01.48-.23.17-.66l-.93-1.27M297.13 201.21l.01-1.91M292.27 223.75q-.35-.14-.83-.05M292.18 225.98q-.38.15-.72.05M293.34 229.74q-1.06.86-2.3 1.19M294.75 234.3l.03.74M295.23 245.74q-1.17 1.19-1.69 2.6M293.1 246.85q1.41-2.39 1.86-5.02a.42.42 0 0 0-.56-.46l-3.63 1.34M290.25 242.01l3.62-1.46q.46-.18.51-.67c.19-1.7-.41-2.53-1.94-3.43q-1.29-.75-2.14-1.48M290.32 234.17q1.58.74 2.51 1.22 2.06 1.08.73-.83-.53-.75-.43-2.55.03-.56-.51-.42l-1.77.45M290.7 252.23q-2.19-.49-3.78-5.93M288.24 253.34q-.07-2.59-1.79-4.54M212.12 63.59q.03.45.47.53 2.55.51 1.35-2.27a.75.75 0 0 0-1.29-.16q-.61.79-.53 1.9M210.31 63.43l-3.1 2.29q-.9.67.18.37 1.72-.46 3.27-1.11.64-.27.52-.96l-.05-.27q-.14-.82-.82-.32M206.86 67.11q-.39.04-.18.37.5.77.58 1.71.06.72.52.16l.9-1.1q.43-.52.93-.06 1.15 1.08 2.99.95a.39.39 0 0 0 .34-.52l-.88-2.4a.66.65 66.9 0 0-.91-.37q-2.03 1.02-4.29 1.26M195.75 66.5q.01.96.36 1.86.26.67.76.15.92-.96 2.13-1.52.67-.3.3-.93l-.4-.68q-.47-.79-1.23-.27-.57.39-1.27.56-.65.16-.65.83M194.9 67.79q-.36-.75-.88-.1-.17.22-.44.29-.51.14-.61.65-.19.89.18 1.89.13.35.49.24 2.31-.75 1.26-2.97M271.38 75.42q-.1.34.2.16.06-.04.06-.1 0-.17-.17-.14-.07.02-.09.08M262.87 80.42a.71.71 0 0 0 .34-1.19l-2.58-2.62a.71.71 0 0 0-1.07.06l-3.14 4a.71.71 0 0 0 .72 1.13l5.73-1.38M267.09 81.39q.75-.83 1.28-1.82.49-.92-.41-.4l-1.66.95q-.58.34-.21.9.16.25.4.43a.45.45 0 0 0 .6-.06M310.73 122.02c-1.11-.84-1.77-1.48-3.35-.98q-.5.16-.57.68l-.87 6.17q-.13.91.49.23l4.71-5.24q.51-.57-.16-.74-.14-.03-.25-.12M315.04 123.57q0 .4.32.65.2.15.41.05a.45.45 0 0 0 .15-.69q-.27-.31-.66-.26a.25.25 0 0 0-.22.25M303.71 175.18q-.5-.23-.49.54a.31.31 0 0 0 .55.2q.19-.21.12-.53a.32.31-86.3 0 0-.18-.21M303.37 181.25q.01 1.05.74.2.08-.1.18-.19.47-.39.02-.8l-.28-.26q-.69-.63-.67.3l.01.75M304.91 188.23q-.03.29.14.49.38.46.72-.04l.55-.79q.44-.63-.29-.87l-.99-.34q-.53-.17-.51.38.01.33.23.64a.83.81 29.7 0 1 .15.53M310.22 189.49a.34.34 0 0 0-.12-.57l-2.14-.73a.34.34 0 0 0-.34.07l-1.89 1.75a.34.34 0 0 0-.1.34l.56 2.2a.34.34 0 0 0 .56.16l3.47-3.22M304.3 191.55l-2.93 2.84a.27.27 0 0 0 0 .38l.14.15a2.41 2.18 45.8 0 0 3.24.2l.19-.18a2.41 2.18 45.8 0 0-.12-3.25l-.14-.14a.27.27 0 0 0-.38 0M300.151 206.32a1.63.61-42 0 0-1.62.637 1.63.61-42 0 0-.802 1.544 1.63.61-42 0 0 1.62-.638 1.63.61-42 0 0 .802-1.544M298.76 215.92q.45.26.89-.02l2.76-1.76q.89-.57.44-1.52l-1.88-3.96q-.28-.59-.84-.26-2.44 1.48-3.72 3.58-1.18 1.95.81 3.08l1.54.86M303.52 214.77l-2.7 1.39a.29.29 0 0 0-.13.39l.08.16a1.77 1.63 62.7 0 0 2.26.83l.32-.17a1.77 1.63 62.7 0 0 .64-2.32l-.08-.16a.29.29 0 0 0-.39-.12M294.95 216.14q.25.52.15 1.13-.24 1.5 1.01.63l1.36-.96q.8-.56-.14-.81l-1.95-.52q-.81-.22-.43.53" vector-effect="non-scaling-stroke"/></g><path fill="#fff" d="M258.16 65.66q-.33-1.74.57-3.44.13-.25-.14-.16-.22.07-.16.33-1.04 1.69-1.71 3.53l-6.4 2.61q-4.88-5.13-11.13-8.25 7.29-.59 14.56.2 4.9.53 8.42 2.52 2.33 1.31-.28 1.86zM238.02 60.28q.1.27.27.54.18.26.46.39 3.41 1.59 6.33 3.91 1.59 1.27-.31.53-5.61-2.18-11.25-2.79-.43-.04-.49.39l-.04.29q-.02.18.16.21 7.13.94 13.73 3.86.99.43 2.32 1.54l-4.24 2.77q-.83.55-.03 1.13l4.2 3.07a1.37 1.37 0 0 0 1.82-.2q.79-.88 1.85-1.39-1.62 1.41-2.59 3.53-.4-.94-1.06-1.25c-2.6-1.19-5.04-3.15-8.07-3.14q-2.38-2.48-5.45-3.97a.46.46 0 0 0-.61.2l-.12.24q-.08.15.06.25l4.93 3.53-3.59.76q-.47.1-.94.07l-1.21-.09q-2.8-1.52-4.9-.01c-2.32-1.47-6.28-4.48-9.09-3.84q.9-1.61 2.63-1.98.58-.12.22-.59-.22-.29-.89-.55l3.42-2.69q.68.97.93 2.21.14.7-.53.45-.8-.29-1.44.16-.75.52.16.67 1.06.18 2.09.13.62-.03.94.49 1.42 2.32 3.7 3.83.11.07.23.02.05-.02.08-.06.1-.16-.01-.31-1.37-1.68-2.65-3.3-.5-.62.29-.51 2.23.31 4.29 1.11.16.06.23-.1l.1-.26a.31.31 0 0 0-.15-.4q-2.34-1.27-5.04-1.42-.59-.03-.88-.54l-1.53-2.68 2.42-1.27q1.46.68 2.68.31.55-.17.25-.66-.33-.52-1.25-.51z"/><path d="M239.19 60.28q6.25 3.12 11.13 8.25-.35.51-1.12.62-1.33-1.11-2.32-1.54-6.6-2.92-13.73-3.86-.18-.03-.16-.21l.04-.29q.06-.43.49-.39 5.64.61 11.25 2.79 1.9.74.31-.53-2.92-2.32-6.33-3.91-.28-.13-.46-.39-.17-.27-.27-.54.62-.22 1.17 0M214.99 61.25q-.14 1.3.4 1.94.24.29.61.23l5.01-.68a.49.48 87 0 1 .55.5l-.02.37q0 .01-.19.04l-4.72.69q-.58.08-.59.67-.02 1.33.87 2.12-.53 1.3-1.02.84l-.87-2.47q-.2-.59-.82-.48l-.58.11a.71.7 75.8 0 0-.54.92l1.09 3.25q.17.51.69.63 1.54.37 2.41-1.13 3.11.96 4.85-1.11.67.26.89.55.36.47-.22.59-1.73.37-2.63 1.98-2.87.19-5.83-.18-2.19-.28-4.15.07-2.1.37-4.17.61.02-.38-.05-.6-.12-.4-.54-.37-.79.06-.65.88-4.41-.9-8.08.23-.48-.98.26-1.77.98-1.04 3.85-2.81.45-.28.26-.77l-1.32-3.41q.31-.21.85-.2l1.83 3.83a1.11 1.09-11 0 0 .95.63l.4.01a.62.61 87.3 0 0 .64-.71l-.67-4.3q.48-.35 1.08-.22l.8 3.29q.13.53.56.2l5.13-3.96q2.13-.42 3.68-.01m-2.87 2.34q.03.45.47.53 2.55.51 1.35-2.27a.75.75 0 0 0-1.29-.16q-.61.79-.53 1.9m-1.81-.16-3.1 2.29q-.9.67.18.37 1.72-.46 3.27-1.11.64-.27.52-.96l-.05-.27q-.14-.82-.82-.32m-3.45 3.68q-.39.04-.18.37.5.77.58 1.71.06.72.52.16l.9-1.1q.43-.52.93-.06 1.15 1.08 2.99.95a.39.39 0 0 0 .34-.52l-.88-2.4a.66.65 66.9 0 0-.91-.37q-2.03 1.02-4.29 1.26"/><path fill="#fff" d="m211.31 61.26-5.13 3.96q-.43.33-.56-.2l-.8-3.29zM212.12 63.59q-.08-1.11.53-1.9a.75.75 0 0 1 1.29.16q1.2 2.78-1.35 2.27-.44-.08-.47-.53M223.82 61.74q-1.26.98-.57 1.95-3.36 1.12-6.34 3.44-.89-.79-.87-2.12.01-.59.59-.67l4.72-.69q.19-.03.19-.04l.02-.37a.49.48 87 0 0-.55-.5l-5.01.68q-.37.06-.61-.23-.54-.64-.4-1.94z"/><path d="M223.25 63.69q-.69-.97.57-1.95.98-.49 1.91.19a.5.5 0 0 1-.12.88z"/><path fill="#fff" d="m203.74 61.95.67 4.3a.62.61 87.3 0 1-.64.71l-.4-.01a1.11 1.09-11 0 1-.95-.63l-1.83-3.83z"/><path d="M258.16 65.66q-.63.26-1.44.26.67-1.84 1.71-3.53-.06-.26.16-.33.27-.09.14.16-.9 1.7-.57 3.44M230.45 62.36q.92-.01 1.25.51.3.49-.25.66-1.22.37-2.68-.31z"/><path fill="#fff" d="m199.74 62.69 1.32 3.41q.19.49-.26.77-2.87 1.77-3.85 2.81-.74.79-.26 1.77l-.85-.71q-.39-.33-.73.05-.42.49-.66 1.13-.6 1.13-2.8 1.37-.01-.6.64-1.2.62-.55.03-1.12-.23-.23-.36-.55-.45-1.07-.84.02l-1.19 3.25q-.53.3-1.14.2.32-1.33.87-2.69.28-.68-.12-.81-.36-.11-1.14 0l1.67-1.67q.47-.05.42-.52 3.61-4.04 9.25-5.51m-3.99 3.81q.01.96.36 1.86.26.67.76.15.92-.96 2.13-1.52.67-.3.3-.93l-.4-.68q-.47-.79-1.23-.27-.57.39-1.27.56-.65.16-.65.83m-.85 1.29q-.36-.75-.88-.1-.17.22-.44.29-.51.14-.61.65-.19.89.18 1.89.13.35.49.24 2.31-.75 1.26-2.97M207.21 65.72l3.1-2.29q.68-.5.82.32l.05.27q.12.69-.52.96-1.55.65-3.27 1.11-1.08.3-.18-.37"/><path d="m226.35 64.49 1.53 2.68q.29.51.88.54 2.7.15 5.04 1.42a.31.31 0 0 1 .15.4l-.1.26q-.07.16-.23.1-2.06-.8-4.29-1.11-.79-.11-.29.51 1.28 1.62 2.65 3.3.11.15.01.31-.03.04-.08.06-.12.05-.23-.02-2.28-1.51-3.7-3.83-.32-.52-.94-.49-1.03.05-2.09-.13-.91-.15-.16-.67.64-.45 1.44-.16.67.25.53-.45-.25-1.24-.93-2.21.17-.33.81-.51M196.4 65.67q.7-.17 1.27-.56.76-.52 1.23.27l.4.68q.37.63-.3.93-1.21.56-2.13 1.52-.5.52-.76-.15-.35-.9-.36-1.86 0-.67.65-.83"/><path fill="#fff" d="M215.89 67.97q-.12.14-.14.27-.07.38.31.42l1.21.14q-.87 1.5-2.41 1.13-.52-.12-.69-.63l-1.09-3.25a.71.7 75.8 0 1 .54-.92l.58-.11q.62-.11.82.48zM206.86 67.11q2.26-.24 4.29-1.26a.66.65 66.9 0 1 .91.37l.88 2.4a.39.39 0 0 1-.34.52q-1.84.13-2.99-.95-.5-.46-.93.06l-.9 1.1q-.46.56-.52-.16-.08-.94-.58-1.71-.21-.33.18-.37"/><path d="M194.9 67.79q1.05 2.22-1.26 2.97-.36.11-.49-.24-.37-1-.18-1.89.1-.51.61-.65.27-.07.44-.29.52-.65.88.1M273.6 67.79l.58 4.02a.6.59-35.5 0 0 1.12.18l2.15-4.17 2.26-.1q-3.51 4.36-4.15 8.77-.1.64-.51.14-1.67-2.04-1.31-3.65.18-.84-.64-.6-.2.05-.36.19-.22.19-.51.13-.16-.03-.24-.18-.12-.25-.06-.51.46-2.01.09-3.89.66-.29 1.58-.33"/><path fill="#fff" d="m277.45 67.82-2.15 4.17a.6.59-35.5 0 1-1.12-.18l-.58-4.02z"/><path fill="#fff" d="M289.5 69.32q-1.47 1.28-2.2 3.48-8.39 3.53-15.19 9.44l2.29-4.56a.29.29 0 0 0-.11-.38l-.42-.27q-.23-.14-.36.1l-3.8 7.39q-.32.15-.67.1l-.97-1.71q-.22-.4-.03-.82 1.74-3.85 4.48-5.95.93-.72-.15-1.17-.37-.15-.4-.56-.09-1.25-.85-.25c-.79 1.06-.9 2.33-2.04 3.14q-1.63 1.14-3.47 1.97-.61.28-.72-.38l-.14-.86q-.09-.55-.65-.6-.22-.02-.37.12-.39.35-.77-.01l-1.82-1.69q-.5-.47-.29-1.11.33-1 .93-1.87.41-.59.54.11l.32 1.75q.03.14.11.26.15.21.31.16.23-.08.22-.33-.06-1.85-1.08-3.31a.52.52 0 0 0-.89.05l-1.25 2.33q-.3.55-.79.17l-2.34-1.83q7.18-3.1 15.09-4.11.37 1.88-.09 3.89-.06.26.06.51.08.15.24.18.29.06.51-.13.16-.14.36-.19.82-.24.64.6-.36 1.61 1.31 3.65.41.5.51-.14.64-4.41 4.15-8.77z"/><path d="M190.49 68.2q.05.47-.42.52.08-.21.42-.52M289.98 69.42l-1.17 2.89q-.48.43-1.51.49.73-2.2 2.2-3.48.22-.04.48.1M241.08 73.67q-.71.35-1.19.25l-4.93-3.53q-.14-.1-.06-.25l.12-.24a.46.46 0 0 1 .61-.2q3.07 1.49 5.45 3.97"/><path fill="#fff" d="M289.98 69.42q1.17.44 1.46.59 2.49 1.32-.31 1.57-.62.05-2.32.73z"/><path d="M191.65 73.29q-.67.31-1.72.4l1.19-3.25q.39-1.09.84-.02.13.32.36.55.59.57-.03 1.12-.65.6-.64 1.2M188.4 70.39q.78-.11 1.14 0 .4.13.12.81-.55 1.36-.87 2.69-1.42.95-2.32.9a.91.91 0 0 1-.63-1.51z"/><path fill="#fff" d="M206.01 71.31q-.62-.27-1.24-.09-.14-.82.65-.88.42-.03.54.37.07.22.05.6"/><path d="M196.69 71.45q-.5.58-2.24.47.24-.64.66-1.13.34-.38.73-.05zM269.04 84.62q-.84.29-1.63.12-.19-.76-.67-1.12-.46-.34-.71.17-.36.71.17 1.06-.64.17-1.21-.07l.93-1.52q.28-.46-.08-.87l-1.01-1.16q-.4-.45-.95-.22-2.98 1.24-6.54 1.62-.48.05-.62.52-.2.65.34 1.71-2.4-1.83-3.19-3.46 2.01-1.48-.44-5.26a.53.53 0 0 0-.9.02l-1.65 2.88q-.79-.55-.67-.98.97-2.12 2.59-3.53.25-.48.9-.43l2.01 4.91q.27.67.72.09l2.37-3.06a.78.78 0 0 0-.14-1.09L256 72.91q.39-.6.93-.68l2.34 1.83q.49.38.79-.17l1.25-2.33a.52.52 0 0 1 .89-.05q1.02 1.46 1.08 3.31.01.25-.22.33-.16.05-.31-.16-.08-.12-.11-.26l-.32-1.75q-.13-.7-.54-.11-.6.87-.93 1.87-.21.64.29 1.11l1.82 1.69q.38.36.77.01.15-.14.37-.12.56.05.65.6l.14.86q.11.66.72.38 1.84-.83 3.47-1.97c1.14-.81 1.25-2.08 2.04-3.14q.76-1 .85.25.03.41.4.56 1.08.45.15 1.17-2.74 2.1-4.48 5.95-.19.42.03.82zm2.34-9.2q-.1.34.2.16.06-.04.06-.1 0-.17-.17-.14-.07.02-.09.08m-8.51 5a.71.71 0 0 0 .34-1.19l-2.58-2.62a.71.71 0 0 0-1.07.06l-3.14 4a.71.71 0 0 0 .72 1.13zm4.22.97q.75-.83 1.28-1.82.49-.92-.41-.4l-1.66.95q-.58.34-.21.9.16.25.4.43a.45.45 0 0 0 .6-.06"/><path fill="#fff" d="m256 72.91 2.66 2.04a.78.78 0 0 1 .14 1.09l-2.37 3.06q-.45.58-.72-.09l-2.01-4.91z"/><path d="M234.15 74.66q-2.52.68-4.9-.01 2.1-1.51 4.9.01"/><path fill="#fff" d="M271.38 75.42q.02-.06.09-.08.17-.03.17.14 0 .06-.06.1-.3.18-.2-.16M253.87 81.4l-2.99-2.36 1.65-2.88a.53.53 0 0 1 .9-.02q2.45 3.78.44 5.26M262.87 80.42l-5.73 1.38a.71.71 0 0 1-.72-1.13l3.14-4a.71.71 0 0 1 1.07-.06l2.58 2.62a.71.71 0 0 1-.34 1.19"/><path d="m272.11 82.24-.97 1.37q-.42.86-.19 1.3-.62.04-1.24-.39l3.8-7.39q.13-.24.36-.1l.42.27a.29.29 0 0 1 .11.38z"/><path fill="#fff" d="M267.09 81.39a.45.45 0 0 1-.6.06q-.24-.18-.4-.43-.37-.56.21-.9l1.66-.95q.9-.52.41.4-.53.99-1.28 1.82M264.99 84.78l-7.93.08q-.54-1.06-.34-1.71.14-.47.62-.52 3.56-.38 6.54-1.62.55-.23.95.22l1.01 1.16q.36.41.08.87zM267.41 84.74q-.56.16-1.21.11-.53-.35-.17-1.06.25-.51.71-.17.48.36.67 1.12M271.14 83.61l4.1 1.47q.31.39-.2.53l-4.09-.7q-.23-.44.19-1.3"/><path d="M277.03 85.45q-.27.47-.75.72-.72-.14-1.24-.56.51-.14.2-.53 1.13-.13 1.79.37"/><path fill="#fff" d="M287.13 86.07q.64 3.38-2.83 4.02-.31.06-.54-.16-.18-.18-.39.04-.44.46.06.85.51.4.47 1.04-.2 3.15 1.29.37.44-.81 1.06-1.45.59-.6 1.77-.87 3.75-.86 6.88-3.25 6.77.94 12.57 3.95l-.69 3.05q-.15.7.28.14.83-1.07 1.15-2.61l2.23 1.15-3.64 5.08a.24.24 0 0 0 .38.29L311 92.8q2.04 1.65 4.12 3.34c1.38 1.11 2.13 2.41 2.96 3.87q.53.93-.49.63-6.08-1.82-12.72.03-.66-3.27 1.38-5.95.09-.12-.04-.2t-.21.05q-1.93 3.13-3.79 6.32-6.18 2.03-11.49 5.54-.68.45.1.71l3.49 1.13q.65.87 1.47.06.21-.08.47-.02 12.45 2.93 22.1 11.91-1.87 2.88-1.78 5.7a.29.29 0 0 0 .44.24l4.54-2.7.45.57-1.43 1.13q-.39.31.05.53l4.08 2.11q1.63 1.46 1.79 3.54.04.52-.44.33-4.41-1.71-9.06-.6.16-1.52-.11-2.55a.38.37-36.4 0 0-.68-.1q-.74 1.17-.53 2.52-.34.34-1.19.28.23-.63.18-1.1-.08-.65-.55-.19l-1.82 1.77q-.75.27-1.37.06l3.69-3.66a2.09 2.09 0 0 0 .31-2.58l-1.28-2.1q-.68-1.11-1.54-.14l-6.39 7.14q-.95 1.07.31 1.74.35.19.88.85l-.66.3q-.81-.29-1.66.31-.48.33-.81-.15-.12-.18-.12-.4.03-.87-.6-.28c-1 .95-2.05 2.37-3.54 2.65l.25-1.21q1.61-.8 2.17-2.01.22-.48-.19-.81-.59-.47-1.36-.65-.15-.6.21-.79 1.21.11 2.15.8a.94.93-63.7 0 0 1.44-.49q1.08-3.52 1.57-8.07c.26-2.44-2.55-2.51-4.35-2.04l-.13-7.72q-.01-.52-.31-.96-.93-1.36-2.86-1.65-6.48-.95-11.52-4.48-1.99-1.4-2.38-4.32-.08-.6-.57-.95l-2.01-1.43q-.46-.33-.19-.82l1.17-2.07q.73-.86.38-1.67.39-3.13-1.22-5.37c-1.27-1.76-3.46-1.98-5.48-2.56q.48-.25.75-.72l1.78.91q.46.23.96.2zm23.6 35.95c-1.11-.84-1.77-1.48-3.35-.98q-.5.16-.57.68l-.87 6.17q-.13.91.49.23l4.71-5.24q.51-.57-.16-.74-.14-.03-.25-.12m4.31 1.55q0 .4.32.65.2.15.41.05a.45.45 0 0 0 .15-.69q-.27-.31-.66-.26a.25.25 0 0 0-.22.25"/><path d="M288.46 86.12q-.37.14-.36.48.01.45.31.51a.44.44 0 0 0 .51-.3q.13-.43-.21-.67.85-.14 1.55.08-.16 1.41-1.5 1.86-.24.08-.17.33l.07.27q.03.09.12.06l3.6-1.22q.47-.16.67-.62l.24-.54q.87-.16 1.61.3-3.13 2.39-6.88 3.25-1.18.27-1.77.87-.62.64-1.06 1.45-1.49 2.78-1.29-.37.04-.64-.47-1.04-.5-.39-.06-.85.21-.22.39-.04.23.22.54.16 3.47-.64 2.83-4.02z"/><path fill="#fff" d="m288.46 86.12.25.02q.34.24.21.67a.44.44 0 0 1-.51.3q-.3-.06-.31-.51-.01-.34.36-.48M293.29 86.36l-.24.54q-.2.46-.67.62l-3.6 1.22q-.09.03-.12-.06l-.07-.27q-.07-.25.17-.33 1.34-.45 1.5-1.86z"/><path d="m307.47 90.61.74.58q-.32 1.54-1.15 2.61-.43.56-.28-.14zM311 92.8l-3.82 4.91a.24.24 0 0 1-.38-.29l3.64-5.08q.49.01.56.46M282.98 94.1q.35.81-.38 1.67-.13-.93.38-1.67M304.87 100.67l-2.66.22q1.86-3.19 3.79-6.32.08-.13.21-.05t.04.2q-2.04 2.68-1.38 5.95M295.78 108.33q-.82.81-1.47-.06.78-.22 1.47.06M300.59 129.97q1.1-4.79.81-9.8c1.8-.47 4.61-.4 4.35 2.04q-.49 4.55-1.57 8.07a.94.93-63.7 0 1-1.44.49q-.94-.69-2.15-.8M321.55 123.46l-4.54 2.7a.29.29 0 0 1-.44-.24q-.09-2.82 1.78-5.7zM310.73 122.02q.11.09.25.12.67.17.16.74l-4.71 5.24q-.62.68-.49-.23l.87-6.17q.07-.52.57-.68c1.58-.5 2.24.14 3.35.98M310.92 131.76l-4.02 1.25q-.53-.66-.88-.85-1.26-.67-.31-1.74l6.39-7.14q.86-.97 1.54.14l1.28 2.1a2.09 2.09 0 0 1-.31 2.58zM315.04 123.57a.25.25 0 0 1 .22-.25q.39-.05.66.26a.45.45 0 0 1-.15.69q-.21.1-.41-.05-.32-.25-.32-.65M322.69 124.75q-.49-.12-.72.11a.67.66 30.8 0 0 .28 1.09q.4.13.91-.29l1.54 2.14-4.08-2.11q-.44-.22-.05-.53l1.43-1.13q.43.14.69.72"/><path fill="#fff" d="M322.69 124.75q.38.25.47.91-.51.42-.91.29a.67.66 30.8 0 1-.28-1.09q.23-.23.72-.11"/><path d="m316.99 131.07-1.32-.13q-.21-1.35.53-2.52a.38.37-36.4 0 1 .68.1q.27 1.03.11 2.55M314.48 131.22l-2.19.48 1.82-1.77q.47-.46.55.19.05.47-.18 1.1M299.76 134.23l.62-3.47q.77.18 1.36.65.41.33.19.81-.56 1.21-2.17 2.01M306.24 133.31l-4.8 1.82q-.53.2-.63.77-.32 1.98 1.5 3.25.39.27.48.74.07.34-.06.51-.45.05-.6.35l-1.12-1.76q-.26-.42-.72-.58-1.49-.55-.78-2.97c1.49-.28 2.54-1.7 3.54-2.65q.63-.59.6.28 0 .22.12.4.33.48.81.15.85-.6 1.66-.31"/><path fill="#fff" d="m302.73 140.4.63 1.07q-.43.46-.95.43l-.28-1.15q.15-.3.6-.35"/><path d="m309.54 147.18-2.98 6.2q-1.71 3.57-2.13-.37-.3-2.86-1-6.34-.06-.27.03-.54l.22-.68q.15-.44-.23-.72-.34-.25-.94-.27.7-.6-.1-2.56.52.03.95-.43.51 1.1.54 2.66.01.51.47.72z"/><path fill="#fff" d="M309.54 147.18q.83.27 1.57.97l-3.83 7.18q-.31.57.24.93 2.8 1.82 5.67 4.31.06.06.01.13l-.28.38q-.16.22-.38.06l-5.27-3.85a.67.66 26 0 0-1.03.35l-2.13 7.36q-.14.46.16.85.93 1.2.68 1.79l-2.57.1-.54-1.75q-.14-.48.19-.86 1.34-1.54 1.77-3.19.32-1.25-.58-.32-.57.59-.99 1.24-.38.58-.57-.08-.08-.28.05-.75.02-.16.03-.33 1.85-2.23 1.73-5.15-.03-.69.62-.43.26.1.33.47.08.45.32.06.09-.13.02-.33-.05-.13-.17-.21-1.29-.73-2.34-2.21l.07-.6.48.07q.62.09.51-.53l-.76-4.14q-.06-.12-.11-.24l-.05-.66q-.66-2.2.12-3.34.6.02.94.27.38.28.23.72l-.22.68q-.09.27-.03.54.7 3.48 1 6.34.42 3.94 2.13.37z"/><path d="M302.44 148.46q-.15-.38-.05-.66zM315.1 150.93l-.06 7.39q0 .5-.24.94l-4.6 8.34-5.25.04q.25-.59-.68-1.79-.3-.39-.16-.85l2.13-7.36a.67.66 26 0 1 1.03-.35l5.27 3.85q.22.16.38-.06l.28-.38q.05-.07-.01-.13-2.87-2.49-5.67-4.31-.55-.36-.24-.93l3.83-7.18zM302.32 153.3l.23-4.6.76 4.14q.11.62-.51.53z"/><path fill="#fff" d="m318.51 153.88-7.46 13.82q-.5.03-.85-.1l4.6-8.34q.24-.44.24-.94l.06-7.39z"/><path d="m301.74 161.7.51-7.8q1.05 1.48 2.34 2.21.12.08.17.21.07.2-.02.33-.24.39-.32-.06-.07-.37-.33-.47-.65-.26-.62.43.12 2.92-1.73 5.15M319.05 154.61q-2.69 3.86-3.61 8.33-.1.48.15.9.47.8.44 1.77-.01.52.22.98l.97 1.9-6.17-.79 7.46-13.82q.43.42.54.73"/><path fill="#fff" d="m319.05 154.61 6.27 8.72q-2.1 2.92-2.73 6.52-.05.3.25.36l.3.05q.29.05.37-.23l1.95-6.1 1.41 7.01q.17.85-.66.58l-8.99-3.03-.97-1.9q-.23-.46-.22-.98.03-.97-.44-1.77-.25-.42-.15-.9.92-4.47 3.61-8.33"/><path d="M302.38 167.74q-.48.19-.61 1.05-.49.09-.66.43l.6-7.19q-.13.47-.05.75.19.66.57.08.42-.65.99-1.24.9-.93.58.32-.43 1.65-1.77 3.19-.33.38-.19.86zM325.46 163.93l-1.95 6.1q-.08.28-.37.23l-.3-.05q-.3-.06-.25-.36.63-3.6 2.73-6.52.18.36.14.6"/><path fill="#fff" d="m301.77 168.79-.08 2.77q-.99.7-.79 1.31.17.55.87.04 3.53 1.15 5.51 3.75l-1-.41a1.8 1.8 0 0 0-2.47 1.85q.12 1.13 1.29 1.76a1.05 1.04-44.1 0 0 .97.01q1.41-.72 2.44-2.02.63.39.7.98l-4.72 3.81a1.66 1.66 0 0 0 .23 2.74c1.07.61 2.61 1.6 3.76.57q.51-.46.08-1l-1.66-2.11a.25.25 0 0 1 .01-.33l.23-.26q.19-.21.39 0l1.62 1.67q.38.39.78.02l1.58-1.51q.37.44.54.99-.92.6-1.39 1.45-.28.51.06.97l.87 1.16q.57.76-.33.47-.92-.3-1.5-1.16a.38.37 49.3 0 0-.59-.05l-.38.41q-.15.15.01.3 2.66 2.53 4.54.04.41.38.34.99-.3 0-.32.25-.04.59.36.53l.78 2.66q-.96-.66-1.68.41-.73 1.08-1.51 1.93t-.27-.18q.68-1.37 1.16-2.71.88-2.45-1.12-.8-2.05 1.7-3.87 3.79-.57.65-.1 1.31a1.22 1.19-52.5 0 0 2.1-.31q.06-.18.23-.26.99-.49.21.28-1.32 1.31-1.18 3.37l-1.53-.54-.12-1.52a.8.79-19.3 0 0-1.24-.59q-.59.39-.64 1.45-3.13-1.23-5.95-1.21-.35-.24-.17-.79.1-.29.46-.53 2.47-1.66 4.54-3.92.59-.64.32-1.46l-1.51-4.6q-.21-.63-.55-.06-1.13 1.89-3.37 3.35l.35-1.67q2.14-1.24.1-2.38l.13-.5q.95.51 1.71.54a1.57 1.56-10.6 0 0 1.5-2.18q-.31-.71-.12-1.45.21-.82-.46-.3l-2.56 1.97q-.12-.84.19-1.37 5.04-4.42.64-7.06l.92-4.23q.17-.34.66-.43m1.94 6.39q-.5-.23-.49.54a.31.31 0 0 0 .55.2q.19-.21.12-.53a.32.31-86.3 0 0-.18-.21m-.34 6.07q.01 1.05.74.2.08-.1.18-.19.47-.39.02-.8l-.28-.26q-.69-.63-.67.3zm1.54 6.98q-.03.29.14.49.38.46.72-.04l.55-.79q.44-.63-.29-.87l-.99-.34q-.53-.17-.51.38.01.33.23.64a.83.81 29.7 0 1 .15.53m5.31 1.26a.34.34 0 0 0-.12-.57l-2.14-.73a.34.34 0 0 0-.34.07l-1.89 1.75a.34.34 0 0 0-.1.34l.56 2.2a.34.34 0 0 0 .56.16zm-5.92 2.06-2.93 2.84a.27.27 0 0 0 0 .38l.14.15a2.41 2.18 45.8 0 0 3.24.2l.19-.18a2.41 2.18 45.8 0 0-.12-3.25l-.14-.14a.27.27 0 0 0-.38 0"/><path d="M301.69 171.56q-.42.86.08 1.35-.7.51-.87-.04-.2-.61.79-1.31M300.19 173.45q4.4 2.64-.64 7.06l.56-2.82q.65-.73.47-1.36-.04-.16-.2-.16-.12 0-.25.09z"/><path d="M303.71 175.18a.32.31-86.3 0 1 .18.21q.07.32-.12.53a.31.31 0 0 1-.55-.2q-.01-.77.49-.54M307.28 176.66l1.23 1.19q-1.03 1.3-2.44 2.02a1.05 1.04-44.1 0 1-.97-.01q-1.17-.63-1.29-1.76a1.8 1.8 0 0 1 2.47-1.85z"/><path fill="#fff" d="M300.11 177.69q-.13-.78.02-1.43.13-.09.25-.09.16 0 .2.16.18.63-.47 1.36"/><path d="m309.21 178.83 2.3 3.6-1.58 1.51q-.4.37-.78-.02l-1.62-1.67q-.2-.21-.39 0l-.23.26a.25.25 0 0 0-.01.33l1.66 2.11q.43.54-.08 1c-1.15 1.03-2.69.04-3.76-.57a1.66 1.66 0 0 1-.23-2.74zM299.29 183.3l.07-1.42 2.56-1.97q.67-.52.46.3-.19.74.12 1.45a1.57 1.56-10.6 0 1-1.5 2.18q-.76-.03-1.71-.54M303.37 181.25l-.01-.75q-.02-.93.67-.3l.28.26q.45.41-.02.8-.1.09-.18.19-.73.85-.74-.2M312.05 183.42q.99 1.47 1.29 3.59-1.88 2.49-4.54-.04-.16-.15-.01-.3l.38-.41a.38.37 49.3 0 1 .59.05q.58.86 1.5 1.16.9.29.33-.47l-.87-1.16q-.34-.46-.06-.97.47-.85 1.39-1.45M299.16 183.8q2.04 1.14-.1 2.38zM298.99 195.86q-.07.28-.23.36-1.16.49-.11.49l-.54 2.3q.21-2.13-.61-1.29l1.21-9.87q2.24-1.46 3.37-3.35.34-.57.55.06l1.51 4.6q.27.82-.32 1.46-2.07 2.26-4.54 3.92-.36.24-.46.53-.18.55.17.79M304.76 187.7q-.22-.31-.23-.64-.02-.55.51-.38l.99.34q.73.24.29.87l-.55.79q-.34.5-.72.04-.17-.2-.14-.49a.83.81 29.7 0 0-.15-.53M313.68 188q.21.37.04.78-.4.06-.36-.53.02-.25.32-.25M310.22 189.49l-3.47 3.22a.34.34 0 0 1-.56-.16l-.56-2.2a.34.34 0 0 1 .1-.34l1.89-1.75a.34.34 0 0 1 .34-.07l2.14.73a.34.34 0 0 1 .12.57M314.5 191.44l.15 2.77-4.68 4.55-1.5-.49q-.14-2.06 1.18-3.37.78-.77-.21-.28-.17.08-.23.26a1.22 1.19-52.5 0 1-2.1.31q-.47-.66.1-1.31 1.82-2.09 3.87-3.79 2-1.65 1.12.8-.48 1.34-1.16 2.71-.51 1.03.27.18t1.51-1.93q.72-1.07 1.68-.41M304.3 191.55a.27.27 0 0 1 .38 0l.14.14a2.41 2.18 45.8 0 1 .12 3.25l-.19.18a2.41 2.18 45.8 0 1-3.24-.2l-.14-.15a.27.27 0 0 1 0-.38z"/><path fill="#fff" d="M314.65 194.21q.3.8-.02 1.23l-3.82 3.68q-.58-.12-.84-.36z"/><path d="M306.94 197.73q-1.01-.61-2-.66.05-1.06.64-1.45a.8.79-19.3 0 1 1.24.59zM314.63 195.44l-.71 4.81q-.1.61-.63.3l-2.48-1.43z"/><path fill="#fff" d="M298.76 196.22q.01.27-.11.49-1.05 0 .11-.49M298.11 199.01q-.01.79-.44 1.47-.17.08-.05.81 3.27 3.45 4.02 4.82 2.04 3.77 3.3 10.54-1.08 1.23-1.35 2.66-.11.56-.43.09-.06-.08-.16-.1-.47-.12-.93.16-1.87 1.13-3.64 2.58-.44-.12-.93-.44l3.51-2.76q.4-.31.03-.66c-1.9-1.74-5.06.44-5.62 2.29l-2.06-.89q1.08-1.76-.11-3.96-.1-.62.23-1.18 1.34-.18 1.32-1.56-.01-.75-.58-.92.2-.72-.11-.26 2.4-1.53 2.72-3.8.07-.5-.36-.77l-.86-.55.43-.56q.48.11.94.02.58-.11.26-.61-.35-.54-1.12-.81l.3-.59q.79.21 1.26-.01.48-.23.17-.66l-.93-1.27.21-.88.01-1.91.36-1.58q.82-.84.61 1.29m2.041 7.31a1.63.61-42 0 0-1.62.637 1.63.61-42 0 0-.802 1.544 1.63.61-42 0 0 1.62-.638 1.63.61-42 0 0 .802-1.544m-1.391 9.6q.45.26.89-.02l2.76-1.76q.89-.57.44-1.52l-1.88-3.96q-.28-.59-.84-.26-2.44 1.48-3.72 3.58-1.18 1.95.81 3.08zm4.76-1.15-2.7 1.39a.29.29 0 0 0-.13.39l.08.16a1.77 1.63 62.7 0 0 2.26.83l.32-.17a1.77 1.63 62.7 0 0 .64-2.32l-.08-.16a.29.29 0 0 0-.39-.12m-8.57 1.37q.25.52.15 1.13-.24 1.5 1.01.63l1.36-.96q.8-.56-.14-.81l-1.95-.52q-.81-.22-.43.53"/><path d="m297.14 199.3-.01 1.91zM297.67 200.48q.22.37-.05.81-.12-.73.05-.81M296.92 202.09l.93 1.27q.31.43-.17.66-.47.22-1.26.01zM296.12 204.62q.77.27 1.12.81.32.5-.26.61-.46.09-.94-.02-.2-.97.08-1.4"/><ellipse rx="1.63" ry=".61" transform="rotate(-42 419.63 -285.678)"/><path d="m295.61 206.58.86.55q.43.27.36.77-.32 2.27-2.72 3.8zM298.76 215.92l-1.54-.86q-1.99-1.13-.81-3.08 1.28-2.1 3.72-3.58.56-.33.84.26l1.88 3.96q.45.95-.44 1.52l-2.76 1.76q-.44.28-.89.02M294.22 211.96q.57.17.58.92.02 1.38-1.32 1.56zM303.52 214.77a.29.29 0 0 1 .39.12l.08.16a1.77 1.63 62.7 0 1-.64 2.32l-.32.17a1.77 1.63 62.7 0 1-2.26-.83l-.08-.16a.29.29 0 0 1 .13-.39zM295.38 215.61l1.95.52q.94.25.14.81l-1.36.96q-1.25.87-1.01-.63.1-.61-.15-1.13-.38-.75.43-.53M293.25 215.62q1.19 2.2.11 3.96-1.26 1.58-1.09 4.17-.35-.14-.83-.05zM298.43 222.04q1.77-1.45 3.64-2.58.46-.28.93-.16.1.02.16.1.32.47.43-.09.27-1.43 1.35-2.66.08 4.33-.19 8.53-.08 1.34-.7 2.37a.46.46 0 0 1-.81-.03q-1.69-3.28-4.81-5.48M297.5 221.6l-2.08-1.13c.56-1.85 3.72-4.03 5.62-2.29q.37.35-.03.66z"/><path fill="#fff" d="M292.27 223.75q.17 1.09-.09 2.23-.38.15-.72.05-.28-1.06-.02-2.33.48-.09.83.05"/><path d="M292.18 225.98q-.45 2.19 1.16 3.76-1.06.86-2.3 1.19l.42-4.9q.34.1.72-.05"/><path fill="#fff" d="M293.34 229.74q1.11 1.96 1.41 4.56l.03.74q1.69 5.54.45 10.7-1.17 1.19-1.69 2.6-.57-.43-.44-1.49 1.41-2.39 1.86-5.02a.42.42 0 0 0-.56-.46l-3.63 1.34q-.32-.23-.52-.7l3.62-1.46q.46-.18.51-.67c.19-1.7-.41-2.53-1.94-3.43q-1.29-.75-2.14-1.48-.32-.14.02-.8 1.58.74 2.51 1.22 2.06 1.08.73-.83-.53-.75-.43-2.55.03-.56-.51-.42l-1.77.45.19-1.11q1.24-.33 2.3-1.19"/><path d="m290.32 234.17.53-2.13 1.77-.45q.54-.14.51.42-.1 1.8.43 2.55 1.33 1.91-.73.83-.93-.48-2.51-1.22M294.78 235.04l-.03-.74q.38.44.03.74M290.3 234.97q.85.73 2.14 1.48c1.53.9 2.13 1.73 1.94 3.43q-.05.49-.51.67l-3.62 1.46q-.26-.35-.55-.47-.47-.19-.56.31l-.84 4.22a.95.94 31.2 0 0 .2.79q1.9 2.29 2.2 5.37-2.19-.49-3.78-5.93z"/><path d="m293.1 246.85-2.33-4.14 3.63-1.34a.42.42 0 0 1 .56.46q-.45 2.63-1.86 5.02M295.23 245.74q-.14 2.73-1.69 2.6.52-1.41 1.69-2.6"/><path fill="#fff" d="M290.7 252.23q.56 1.09.04 3.2a.42.42 0 0 1-.73.16l-1.77-2.25q-.07-2.59-1.79-4.54-.17-.6.47-2.5 1.59 5.44 3.78 5.93"/><path d="M288.24 253.34q-1.96-1.75-1.79-4.54 1.72 1.95 1.79 4.54"/></svg>