<svg xmlns="http://www.w3.org/2000/svg" viewBox="0 0 382 382"><g fill="none" stroke-width="2"><path stroke="#7b5e48" d="M248.98 76.03q-.13.42-.08.77M239.22 73.97l-2.12-3.62a1.05 1.04 67 0 0-1.19-.49q-1.1.3-.73 1.02c.29.59.86.89 1.34 1.32a.38.38 0 0 1-.27.66q-1.75-.09-2.9 1.18-.43.46-1.05.3-1.93-.53-3.24.3M219.09 70.91q-.82-.94-1.19-1.87M218.54 61.28q-1.14.7-1.98 1.98-.36.55-.89.15-.49-.38-.8-.97-.31-.56-.52.05c-.13.39 1.09 1.34.47 2.75q-.25.59-.83.3-.36-.19-.65.16-.7.84.36 1.11.99.25 1.9 1.42" vector-effect="non-scaling-stroke"/><path stroke="#46332a" d="M216.07 68.76q-.06.27-.01.48.12.59.64.29.35-.2.58-.68" vector-effect="non-scaling-stroke"/><path stroke="#14745e" d="M189.97 73.83 188.7 72q-.28-.41-.46.05-.37.93.06 2.13" vector-effect="non-scaling-stroke"/><path stroke="#2b5959" d="M185.74 73.78q.64.14.88-.35.26-.52-.08-.8" vector-effect="non-scaling-stroke"/><path stroke="#7b5e48" d="M313.37 94.44q-1.22.58-1.73 2.11-.19.56-.46.04-.18-.34-.19-.73a.98.97 7.7 0 0-.71-.92q-1.37-.39-2.15.71a1.31 1.31 0 0 0-.08 1.41q.8 1.46.97 2.93M306.56 100.2q-1.14-1.02-1.71-2.23-.23-.47-.13-.98.25-1.25-.51-2.23-.94-1.24-1.29.28-.07.31-.29.53-.58.58-.57-.24l.03-2.56a.55.55 0 0 0-.81-.5q-.98.51-1.18 1.46-.11.55.2 1.02l.63.96q.33.5.12 1.05-.69 1.84-2.5 2.41a.84.84 0 0 0-.34 1.39q.77.77.57 1.62M298.09 102.51q-3.29-.92-4.5 2.24M294.05 108.09q.24.04.42.2.3.28.06.65M254.9 83.28q.73-3.13-.4-4.42-.61-.69.2-1 .17-.06.19-.25a.42.42 0 0 0-.74-.31q-.14.17-.31.35-.36.4-.93.38-.57-.01-.8-.44-.23-.41-.05-.85l1-2.43M216.41 67.49q-.41.06-.55.48M301 109.69q-.95.32-.79 1.23" vector-effect="non-scaling-stroke"/><path stroke="#14745e" d="M298.98 109.99q.28-.34.25-.6a.29.29 0 0 0-.52-.14q-.15.2-.15.61" vector-effect="non-scaling-stroke"/><path stroke="#7b5e48" d="M314.41 95.45q-.26 1.18.26 1.27.37.06.58-.43M302.83 110.27q-1.5 1.66-.84 3.83.17.55.7.79.91.41 1.34 1.31.82 1.73.96-.18.06-.75.07-1.49 0-.18.13-.3.14-.12.37-.01.29.13.38.43.31 1.03.98 1.97a.57.57 0 0 0 .79.13q.44-.32.84-.69c.62-.55 1.53-.58 2.08.07a.37.37 0 0 1-.22.61q-1.99.32-3.56 2.12-.49.56-.07 1.17.22.32-.11.57-.33.24-.62-.04-.98-.97-2.41-.41a2.66 1.94-17.9 0 0-1.77 2.44q.07.33-.55.37M301.36 119.71l.03-1.17M301.39 118.28l-.04-1.27" vector-effect="non-scaling-stroke"/><path stroke="#2b5959" d="m323.72 126.18-1.6 3.18a.25.25 0 0 0 .12.34l.24.1q.04.02.06-.02l1.53-3.23" vector-effect="non-scaling-stroke"/><path stroke="#7b5e48" d="M316.99 130.98q-.43-.94-1.08-1.22a.53.52-80.4 0 0-.73.52q.08.9.79.83" vector-effect="non-scaling-stroke"/><path stroke="#2b5959" d="M307.02 132.92q-.18-.8-1.59-1.59" vector-effect="non-scaling-stroke"/><path stroke="#7b5e48" d="m305.43 131.33-.39-1.04" vector-effect="non-scaling-stroke"/><path stroke="#2b5959" d="M305.04 130.29q.43-.41.5-.78.11-.64-.52-.48-.59.14-1.26.04-.66-.1-.48.54.11.39.65.92" vector-effect="non-scaling-stroke"/><path stroke="#7b5e48" d="M303.93 130.53q-1.43.91-2.08.69-2.83-.97-.1-2.18 1.41-.63.7-3.08-.14-.49.1-.95.16-.28.22-.6.1-.57-.41-.75-.41-.14-1.05.41" vector-effect="non-scaling-stroke"/><path stroke="#a6b7a1" d="M303.93 130.53q.08-.68 1.11-.24M305.43 131.33q-.12.07-.22.31" vector-effect="non-scaling-stroke"/><path stroke="#7b5e48" d="M305.21 131.64q-1.32.61-1.45 2.69M300.88 136.33l-1.51 1.33M300.86 127.92q.67.35 1 .08a.68.68 0 0 0-.09-1.1q-.23-.14-.79.08" vector-effect="non-scaling-stroke"/><path stroke="#2b5959" d="M306.49 133.15q-.59-1.58-1.28-1.51" vector-effect="non-scaling-stroke"/><path stroke="#46332a" d="M318.62 153.97q-1.24.8-1.34 1.5-.07.46.34.25.72-.37 1.39-1.29" vector-effect="non-scaling-stroke"/><path stroke="#14745e" d="M312.72 167.9q-5.55-4.26-4.18-12.32.15-.85-.71-.77-.5.05-.95.29-.51.28-.24.79.65 1.24-.28 2.39-.35.42-.24.95.09.49.43.86a1.46 1.39 52 0 1-.21 2.14q-.35.24-.33.67.03.53.47.78.37.2.73.39a1.55 1.55 0 0 1 .67.7q.86 1.8 2.61 2.92" vector-effect="non-scaling-stroke"/><path stroke="#2b5959" d="M308.76 178.1q-.58.51-.65.98a.58.57-84.4 0 0 .53.65q1.18.08 1.46 1.21.09.36.37.62.33.32.75.35" vector-effect="non-scaling-stroke"/><path stroke="#7b5e48" d="m312.07 183.3-1.93.74q-.47.18-.77.58l-1.91 2.52q-.34.46-.19 1.01.14.5.46.92.11.14.11.33 0 .16-.14.28-.28.23-.58.04-1.22-.81-2.41-.02a.69.69 0 0 1-1-.29l-1.28-2.77q-.23-.51.28-.71.4-.16.82.02.18.08.28-.09.09-.14.05-.25-.12-.32-.46-.35-1.55-.12-1.2-1.22" vector-effect="non-scaling-stroke"/><path stroke="#2b5959" d="M302.2 184.04q.59-.09.91-.4.35-.32-.11-.43-.77-.18-1.27.75" vector-effect="non-scaling-stroke"/><path stroke="#7b5e48" d="M301.73 183.96q-.7.2-.79 1.17-.03.37-.18.53-.22.24-.54.24-.53.01-.5-.53.08-1.48-.62-1.17M302.48 196.27q-1.08-1.91-1.39-4.14-.05-.38-.42-.26l-.25.07q-.1.04-.13.15l-.31 1.23q-.18.73-.81.33-.65-.41-.98-1.1M298.36 190.71l.03-.92" vector-effect="non-scaling-stroke"/><path stroke="#a6b7a1" d="M302.2 184.04q-.2 0-.47-.08" vector-effect="non-scaling-stroke"/><path stroke="#7b5e48" d="M300.25 204.44q-2.29 1.4-.63 3.73.29.4 0 .81-.56.78-1.53 1.04-.61.16-.4.75.41 1.16 1.56 1.61.69.27.5-.45-.18-.69-.74-1.22a.37.37 0 0 1 .06-.58l.28-.16q.53-.32.95.13.51.55.81 1.21.26.59.69.1.47-.54.36-1.16-.32-1.7.19-2.53M290.22 242.05q.47-.06.53-.27a.32.31 9.4 0 0-.29-.4q-.23-.01-.38.3M288.19 245.91q-.22-.94-.94-1.44" vector-effect="non-scaling-stroke"/><path stroke="#14745e" d="M292.91 216.97q.46.11.59-.21.24-.6-.44-.77" vector-effect="non-scaling-stroke"/><path stroke="#2b5959" d="M296.44 203.52q.53.4.7.37 1.52-.25.14-.94-.19-.09-.62.02" vector-effect="non-scaling-stroke"/><path stroke="#7b5e48" d="M290.35 249.97q-.66 2.07.51 3.6M210.08 65.62q.17.08.34.03a.14.14 0 0 0-.02-.27q-1.02-.12-1.6-.87-.3-.38-.67-.08l-.22.17q-.05.04-.03.1.26 1.25 1.51.86.35-.11.69.06M211.703 67.192a.51.25-44.6 0 0-.538.18.51.25-44.6 0 0-.188.536.51.25-44.6 0 0 .538-.18.51.25-44.6 0 0 .188-.536M210.645 69a1.31.32 15 0 0-1.182-.65 1.31.32 15 0 0-1.348-.03 1.31.32 15 0 0 1.182.65 1.31.32 15 0 0 1.348.03" vector-effect="non-scaling-stroke"/><path stroke="#46332a" d="M315.51 98.5a.34.34 0 0 0-.34-.34.34.34 0 0 0-.34.34.34.34 0 0 0 .34.34.34.34 0 0 0 .34-.34M303.09 121.51q.14.25.35.08.08-.06.09-.16.03-.2-.16-.26a.24.23-6.1 0 0-.28.34" vector-effect="non-scaling-stroke"/><path stroke="#2b5959" d="M307.68 124.48a.26.26 0 0 0-.26-.26.26.26 0 0 0-.26.26.26.26 0 0 0 .26.26.26.26 0 0 0 .26-.26M304.21 127.73q.22.28.4-.03.09-.17-.03-.31-.1-.12-.24-.07-.37.11-.13.41" vector-effect="non-scaling-stroke"/><path stroke="#14745e" d="m308.18 148.55-.39 4.33a.24.23 10 0 0 .18.25l.29.08q.12.03.17-.09.74-2.11.46-4.4-.03-.26-.29-.29l-.25-.02q-.16-.02-.17.14" vector-effect="non-scaling-stroke"/><path stroke="#291362" d="M311.4 149.55q.09.13.21.02.08-.08.04-.18-.13-.38-.28-.01-.04.1.03.17" vector-effect="non-scaling-stroke"/><path stroke="#14745e" d="M311.05 154.79q-.16.37.17.71.63.68.63-.25l.01-3.76a.33.33 0 0 0-.66-.06q-.24 1.31-.07 2.77.03.31-.08.59" vector-effect="non-scaling-stroke"/><path stroke="#291362" d="M311.53 157.48q.3-.05.16.12-.25.33 0 0 .1-.13-.04-.24-.05-.03-.09-.01t-.07.05q-.12.1.04.08" vector-effect="non-scaling-stroke"/><path stroke="#46332a" d="M316.586 161.433a1.86.35 68.7 0 0-.35-1.86 1.86.35 68.7 0 0-1.002-1.606 1.86.35 68.7 0 0 .35 1.86 1.86.35 68.7 0 0 1.002 1.606" vector-effect="non-scaling-stroke"/><path stroke="#14745e" d="m315.25 164.23-2.68-4.76q-.33-.58-.6.02-.13.29.04.56c1.07 1.76 1.37 3.01 3.14 4.27q.26.19.1-.09" vector-effect="non-scaling-stroke"/><path stroke="#46332a" d="M319.783 162.795a1.54.39 64.9 0 0-.3-1.56 1.54.39 64.9 0 0-1.006-1.23 1.54.39 64.9 0 0 .3 1.56 1.54.39 64.9 0 0 1.006 1.23" vector-effect="non-scaling-stroke"/><path stroke="#2b5959" d="M303.978 180.61a.96.61 43.4 0 0-.279-1.103.96.61 43.4 0 0-1.117-.217.96.61 43.4 0 0 .279 1.103.96.61 43.4 0 0 1.117.217" vector-effect="non-scaling-stroke"/><path stroke="#14745e" d="M306.77 181.018a.84.49 23.7 0 0-.573-.787.84.49 23.7 0 0-.966.111.84.49 23.7 0 0 .572.787.84.49 23.7 0 0 .966-.111M300.35 183.33q-.19.12-.08.27a.16.15 53.2 0 0 .23.04q.16-.13-.02-.3a.1.1 0 0 0-.13-.01" vector-effect="non-scaling-stroke"/><path stroke="#7b5e48" d="M305.524 187.826a.83.45 29.3 0 0-.504-.798.83.45 29.3 0 0-.944-.014.83.45 29.3 0 0 .504.798.83.45 29.3 0 0 .944.014" vector-effect="non-scaling-stroke"/><path stroke="#2b5959" d="M297.61 207.71q.05-.14-.04-.25a.15.15 0 0 0-.27.09q0 .15.12.22.14.08.19-.06M296.64 213.92q-.66.62-1.16 1.31-.48.69.23.24 1.64-1.02 2.23-2.94.15-.48-.28-.21-.42.26-.51.71-.11.53-.51.89" vector-effect="non-scaling-stroke"/><path stroke="#14745e" d="M301.16 219.51q.67.49.42-.31-.93-2.9-4.61-2.06-1.08.25 0 .49 2.3.49 4.19 1.88" vector-effect="non-scaling-stroke"/><path stroke="#291362" d="M300.544 222.346a1.62.23 39.3 0 0-1.108-1.204 1.62.23 39.3 0 0-1.4-.848 1.62.23 39.3 0 0 1.108 1.204 1.62.23 39.3 0 0 1.4.848" vector-effect="non-scaling-stroke"/><path stroke="#2b5959" d="m303.04 224.39-.38-.55q-.47-.7-.65.12-.21 1.03.89 1.54 1.41.66.62-.68-.09-.14-.25-.22-.14-.07-.23-.21" vector-effect="non-scaling-stroke"/><path stroke="#7b5e48" d="M292.62 240.42q.15-.89.24-1.71.03-.28-.18-.5-.35-.34-.8-.16-.98.39-.36 1.24.37.53.55 1.17.35 1.21.55-.04M294.84 240.55a.28.28 0 0 0-.28-.28.28.28 0 0 0-.28.28.28.28 0 0 0 .28.28.28.28 0 0 0 .28-.28" vector-effect="non-scaling-stroke"/></g><path fill="#f6bb90" d="M248.98 76.03q-.13.42-.08.77c-3.67-2-6.03-3.58-9.68-2.83l-2.12-3.62a1.05 1.04 67 0 0-1.19-.49q-1.1.3-.73 1.02c.29.59.86.89 1.34 1.32a.38.38 0 0 1-.27.66q-1.75-.09-2.9 1.18-.43.46-1.05.3-1.93-.53-3.24.3-1.36-.94-4.34-2.62-2.77-1.56-5.63-1.11-.82-.94-1.19-1.87l2.1-.03a1.5 1.5 0 0 0 1.03-.43q7.6-7.64 19.69-8.46 7.53-.52 13.44.35 3.84.56 8.43 2.56a1.08 1.06-86.5 0 1 .59.68q.08.31-.07.6-.28.49-.83.57-9.81 1.47-17.5 7.39-.39.3 0 .6z"/><path d="M218.54 61.28q-1.14.7-1.98 1.98-.36.55-.89.15-.49-.38-.8-.97-.31-.56-.52.05c-.13.39 1.09 1.34.47 2.75q-.25.59-.83.3-.36-.19-.65.16-.7.84.36 1.11.99.25 1.9 1.42l.47.53q-.06.27-.01.48.12.59.64.29.35-.2.58-.68.4.02.62.19.37.93 1.19 1.87-2.4-.06-4.73-.23-2.45-.18-4.58.17c-5.15.87-9.93-.65-15.04 1.37q-3.07 1.22-4.77 1.61L188.7 72q-.28-.41-.46.05-.37.93.06 2.13-1.07.79-2.15.36-.7-.27-.41-.76.64.14.88-.35.26-.52-.08-.8 5.5-8.3 14.24-10.34 8-1.88 17.76-1.01m-8.46 4.34q.17.08.34.03a.14.14 0 0 0-.02-.27q-1.02-.12-1.6-.87-.3-.38-.67-.08l-.22.17q-.05.04-.03.1.26 1.25 1.51.86.35-.11.69.06m1.623 1.572a.51.25-44.6 0 0-.538.18.51.25-44.6 0 0-.188.536.51.25-44.6 0 0 .538-.18.51.25-44.6 0 0 .188-.536m-1.058 1.807a1.31.32 15 0 0-1.182-.648 1.31.32 15 0 0-1.348-.03 1.31.32 15 0 0 1.182.648 1.31.32 15 0 0 1.348.03"/><path fill="#f6bb90" d="M216.41 67.49q-.41.06-.55.48l-.26.26q-.91-1.17-1.9-1.42-1.06-.27-.36-1.11.29-.35.65-.16.58.29.83-.3c.62-1.41-.6-2.36-.47-2.75q.21-.61.52-.05.31.59.8.97.53.4.89-.15.84-1.28 1.98-1.98 3.67-.05 6.24.41 2.3.4.14 1.28-4.39 1.77-8.51 4.52M209.39 65.56q-1.25.39-1.51-.86-.02-.06.03-.1l.22-.17q.37-.3.67.08.58.75 1.6.87a.14.14 0 0 1 .02.27q-.17.05-.34-.03-.34-.17-.69-.06"/><ellipse fill="#f6bb90" rx=".51" ry=".25" transform="rotate(-44.6 188.022 -223.875)"/><path d="M216.41 67.49q-.17.45-.55.48.14-.42.55-.48"/><path fill="#f6bb90" d="M313.37 94.44q-1.22.58-1.73 2.11-.19.56-.46.04-.18-.34-.19-.73a.98.97 7.7 0 0-.71-.92q-1.37-.39-2.15.71a1.31 1.31 0 0 0-.08 1.41q.8 1.46.97 2.93-1.36-.14-2.46.21-1.14-1.02-1.71-2.23-.23-.47-.13-.98.25-1.25-.51-2.23-.94-1.24-1.29.28-.07.31-.29.53-.58.58-.57-.24l.03-2.56a.55.55 0 0 0-.81-.5q-.98.51-1.18 1.46-.11.55.2 1.02l.63.96q.33.5.12 1.05-.69 1.84-2.5 2.41a.84.84 0 0 0-.34 1.39q.77.77.57 1.62l-.69.33q-3.29-.92-4.5 2.24l-2.58 1.7q-.45.29.01.56 1.38.8 3.03 1.08.24.04.42.2.3.28.06.65c-3.02-.26-5.72-1.89-8-3.57q-1.81-1.33-2.41-4.37-.13-.68-.7-1.07l-2.11-1.44q-.47-.33-.12-.78 3.36-4.39.51-9.25a1.83 1.81 84.2 0 0-.97-.8q-4.31-1.51-8.41-2.47-2.13-.5-5.98-.12-7.16.69-11.44-1.79.73-3.13-.4-4.42-.61-.69.2-1 .17-.06.19-.25a.42.42 0 0 0-.74-.31q-.14.17-.31.35-.36.4-.93.38-.57-.01-.8-.44-.23-.41-.05-.85l1-2.43q6.55-3.78 14.1-5.52 11.83-2.71 23.57.98 3.42 1.08-.02 2.08-10.24 2.98-19.43 11.29a.28.27-57.5 0 0 .1.47q3.39 1.06 6.78 2.31 1.65.6 3.56.39c11.04-1.22 22.75.85 31.65 8.13"/><ellipse fill="#f6bb90" rx="1.31" ry=".32" transform="rotate(15 -156.072 829.53)"/><path fill="#8b6653" d="M217.28 68.85q-.23.48-.58.68-.52.3-.64-.29-.05-.21.01-.48.59-.1 1.21.09"/><path d="M239.22 73.97q-5.36 1.51-10.16.67 1.31-.83 3.24-.3.62.16 1.05-.3 1.15-1.27 2.9-1.18a.38.38 0 0 0 .27-.66c-.48-.43-1.05-.73-1.34-1.32q-.37-.72.73-1.02a1.05 1.04 67 0 1 1.19.49z"/><path fill="#27e7bc" d="m189.97 73.83-1.67.35q-.43-1.2-.06-2.13.18-.46.46-.05z"/><path fill="#56b2b2" fill-opacity=".996" d="M186.54 72.63q.34.28.08.8-.24.49-.88.35.2-.97.8-1.15"/><path d="m253.06 74.31-1 2.43q-.18.44.05.85.23.43.8.44.57.02.93-.38.17-.18.31-.35a.42.42 0 0 1 .74.31q-.02.19-.19.25-.81.31-.2 1 1.13 1.29.4 4.42l-6-6.48q-.05-.35.08-.77l.91.12a.96.94-57.8 0 0 .63-.15zM306.56 100.2l-7.78 1.98q.2-.85-.57-1.62a.84.84 0 0 1 .34-1.39q1.81-.57 2.5-2.41.21-.55-.12-1.05l-.63-.96q-.31-.47-.2-1.02.2-.95 1.18-1.46a.55.55 0 0 1 .81.5l-.03 2.56q-.01.82.57.24.22-.22.29-.53.35-1.52 1.29-.28.76.98.51 2.23-.1.51.13.98.57 1.21 1.71 2.23M314.41 95.45q-.26 1.18.26 1.27.37.06.58-.43 2 1.78 3.17 4.15a.24.24 0 0 1-.27.34q-4.6-1.12-9.13-.79-.17-1.47-.97-2.93a1.31 1.31 0 0 1 .08-1.41q.78-1.1 2.15-.71a.98.97 7.7 0 1 .71.92q.01.39.19.73.27.52.46-.04.51-1.53 1.73-2.11zm1.1 3.05a.34.34 0 0 0-.34-.34.34.34 0 0 0-.34.34.34.34 0 0 0 .34.34.34.34 0 0 0 .34-.34"/><path fill="#f6bb90" d="M315.25 96.29q-.21.49-.58.43-.52-.09-.26-1.27z"/><circle cx="315.17" cy="98.5" r=".34" fill="#8b6653"/><path d="m298.09 102.51-4.5 2.24q1.21-3.16 4.5-2.24M301 109.69q-.95.32-.79 1.23-.79-.26-1.23-.93.28-.34.25-.6a.29.29 0 0 0-.52-.14q-.15.2-.15.61-2.13.05-4.03-.92.24-.37-.06-.65-.18-.16-.42-.2 3.53.07 6.95 1.6"/><path fill="#27e7bc" d="m298.98 109.99-.42-.13q0-.41.15-.61a.29.29 0 0 1 .52.14q.03.26-.25.6"/><path fill="#f6bb90" d="m301 109.69 1.83.58q-1.5 1.66-.84 3.83.17.55.7.79.91.41 1.34 1.31.82 1.73.96-.18.06-.75.07-1.49 0-.18.13-.3.14-.12.37-.01.29.13.38.43.31 1.03.98 1.97a.57.57 0 0 0 .79.13q.44-.32.84-.69c.62-.55 1.53-.58 2.08.07a.37.37 0 0 1-.22.61q-1.99.32-3.56 2.12-.49.56-.07 1.17.22.32-.11.57-.33.24-.62-.04-.98-.97-2.41-.41a2.66 1.94-17.9 0 0-1.77 2.44q.07.33-.55.37l.04-3.25.03-1.17v-.26l-.04-1.27q-.19-2.63-.45-5.26-.06-.6-.69-.83-.16-.91.79-1.23"/><path d="m323.72 126.18-1.6 3.18a.25.25 0 0 0 .12.34l.24.1q.04.02.06-.02l1.53-3.23q1.65 2.15 2.43 3.99.83 1.98-1.12 1.08c-2.5-1.17-5.75-.78-8.39-.64q-.43-.94-1.08-1.22a.53.52-80.4 0 0-.73.52q.08.9.79.83l-8.95 1.81q-.18-.8-1.59-1.59l-.39-1.04q.43-.41.5-.78.11-.64-.52-.48-.59.14-1.26.04-.66-.1-.48.54.11.39.65.92-1.43.91-2.08.69-2.83-.97-.1-2.18 1.41-.63.7-3.08-.14-.49.1-.95.16-.28.22-.6.1-.57-.41-.75-.41-.14-1.05.41l.01-1.11q.62-.04.55-.37a2.66 1.94-17.9 0 1 1.77-2.44q1.43-.56 2.41.41.29.28.62.04.33-.25.11-.57-.42-.61.07-1.17 1.57-1.8 3.56-2.12a.37.37 0 0 0 .22-.61c-.55-.65-1.46-.62-2.08-.07q-.4.37-.84.69a.57.57 0 0 1-.79-.13q-.67-.94-.98-1.97-.09-.3-.38-.43-.23-.11-.37.01-.13.12-.13.3-.01.74-.07 1.49-.14 1.91-.96.18-.43-.9-1.34-1.31-.53-.24-.7-.79-.66-2.17.84-3.83 10.86 4.29 19.27 13.62 1.3 1.44 1.62 2.29m-20.63-4.67q.14.25.35.08.08-.06.09-.16.03-.2-.16-.26a.24.23-6.1 0 0-.28.34m4.59 2.97a.26.26 0 0 0-.26-.26.26.26 0 0 0-.26.26.26.26 0 0 0 .26.26.26.26 0 0 0 .26-.26m-3.47 3.25q.22.28.4-.03.09-.17-.03-.31-.1-.12-.24-.07-.37.11-.13.41M301.39 118.28l-.04-1.27zM301.39 118.54l-.03 1.17z"/><path fill="#8b6653" d="M303.09 121.51a.24.23-6.1 0 1 .28-.34q.19.06.16.26-.01.1-.09.16-.21.17-.35-.08"/><path fill="#f6bb90" d="M303.93 130.53q.08-.68 1.11-.24l.39 1.04q-.12.07-.22.31-1.32.61-1.45 2.69-2.73.62-2.88 2l-1.51 1.33 1.49-9.74q.67.35 1 .08a.68.68 0 0 0-.09-1.1q-.23-.14-.79.08l.33-2.91q.64-.55 1.05-.41.51.18.41.75-.06.32-.22.6-.24.46-.1.95.71 2.45-.7 3.08-2.73 1.21.1 2.18.65.22 2.08-.69"/><circle cx="307.42" cy="124.48" r=".26" fill="#56b2b2" fill-opacity=".996"/><path fill="#56b2b2" fill-opacity=".996" d="M323.72 126.18q.25.18.35.37l-1.53 3.23q-.02.04-.06.02l-.24-.1a.25.25 0 0 1-.12-.34z"/><path d="M300.86 127.92q-.1-.55.12-.94.56-.22.79-.08a.68.68 0 0 1 .09 1.1q-.33.27-1-.08"/><path fill="#56b2b2" fill-opacity=".996" d="M304.21 127.73q-.24-.3.13-.41.14-.05.24.07.12.14.03.31-.18.31-.4.03M305.04 130.29q-1.03-.44-1.11.24-.54-.53-.65-.92-.18-.64.48-.54.67.1 1.26-.04.63-.16.52.48-.07.37-.5.78"/><path fill="#f6bb90" d="M316.99 130.98q-.52-.08-1.02.13-.71.07-.79-.83a.53.52-80.4 0 1 .73-.52q.65.28 1.08 1.22"/><path fill="#56b2b2" fill-opacity=".996" d="M305.43 131.33q1.41.79 1.59 1.59-.33.05-.53.23-.59-1.58-1.28-1.51.1-.24.22-.31"/><path d="M305.21 131.64q.69-.07 1.28 1.51-1.16.78-2.73 1.18.13-2.08 1.45-2.69M300.88 136.33q.09 1.15 1.45 2.85 1.49 1.85 1.62 5.08.02.49.49.65 8.11 2.77 14.18 9.06-1.24.8-1.34 1.5-.07.46.34.25.72-.37 1.39-1.29c4.42 4.48 8.1 10.26 7.9 16.86a.6.59-76.4 0 1-.85.52q-6.04-2.86-13.34-3.91-5.55-4.26-4.18-12.32.15-.85-.71-.77-.5.05-.95.29-.51.28-.24.79.65 1.24-.28 2.39-.35.42-.24.95.09.49.43.86a1.46 1.39 52 0 1-.21 2.14q-.35.24-.33.67.03.53.47.78.37.2.73.39a1.55 1.55 0 0 1 .67.7q.86 1.8 2.61 2.92l-7.83.15a.69.68 1.8 0 0-.68.63l-.31 3.55q-.06.68.58.95 4.03 1.68 6.51 5.13-.58.51-.65.98a.58.57-84.4 0 0 .53.65q1.18.08 1.46 1.21.09.36.37.62.33.32.75.35.53.49.85 1.39l-1.93.74q-.47.18-.77.58l-1.91 2.52q-.34.46-.19 1.01.14.5.46.92.11.14.11.33 0 .16-.14.28-.28.23-.58.04-1.22-.81-2.41-.02a.69.69 0 0 1-1-.29l-1.28-2.77q-.23-.51.28-.71.4-.16.82.02.18.08.28-.09.09-.14.05-.25-.12-.32-.46-.35-1.55-.12-1.2-1.22.59-.09.91-.4.35-.32-.11-.43-.77-.18-1.27.75-.7.2-.79 1.17-.03.37-.18.53-.22.24-.54.24-.53.01-.5-.53.08-1.48-.62-1.17c.03-3.04.78-5.98.97-8.95.18-2.89.95-5.51 1.07-8.42.14-3.39.89-6.62.93-10.12q.07-5.48.12-10.89c.01-1.07.74-1.77.57-2.71q-.6-3.32-3.39-5.45zm7.3 12.22-.39 4.33a.24.23 10 0 0 .18.25l.29.08q.12.03.17-.09.74-2.11.46-4.4-.03-.26-.29-.29l-.25-.02q-.16-.02-.17.14m3.22 1q.09.13.21.02.08-.08.04-.18-.13-.38-.28-.01-.04.1.03.17m-.35 5.24q-.16.37.17.71.63.68.63-.25l.01-3.76a.33.33 0 0 0-.66-.06q-.24 1.31-.07 2.77.03.31-.08.59m.48 2.69q.3-.05.16.12-.25.33 0 0 .1-.13-.04-.24-.05-.03-.09-.01t-.07.05q-.12.1.04.08m5.056 3.953a1.86.35 68.7 0 0-.35-1.86 1.86.35 68.7 0 0-1.002-1.606 1.86.35 68.7 0 0 .35 1.86 1.86.35 68.7 0 0 1.002 1.606m-1.336 2.797-2.68-4.76q-.33-.58-.6.02-.13.29.04.56c1.07 1.76 1.37 3.01 3.14 4.27q.26.19.1-.09m4.533-1.435a1.54.39 64.9 0 0-.3-1.56 1.54.39 64.9 0 0-1.006-1.23 1.54.39 64.9 0 0 .3 1.56 1.54.39 64.9 0 0 1.006 1.23m-15.805 17.815a.96.61 43.4 0 0-.279-1.103.96.61 43.4 0 0-1.117-.217.96.61 43.4 0 0 .279 1.103.96.61 43.4 0 0 1.117.217m2.791.408a.84.49 23.7 0 0-.572-.787.84.49 23.7 0 0-.966.111.84.49 23.7 0 0 .572.787.84.49 23.7 0 0 .966-.111m-6.419 2.312q-.19.12-.08.27a.16.15 53.2 0 0 .23.04q.16-.13-.02-.3a.1.1 0 0 0-.13-.01m5.174 4.496a.83.45 29.3 0 0-.504-.798.83.45 29.3 0 0-.944-.014.83.45 29.3 0 0 .504.798.83.45 29.3 0 0 .944.014"/><path fill="#27e7bc" d="M308.18 148.55q.01-.16.17-.14l.25.02q.26.03.29.29.28 2.29-.46 4.4-.05.12-.17.09l-.29-.08a.24.23 10 0 1-.18-.25z"/><path fill="#5226c4" d="M311.4 149.55q-.07-.07-.03-.17.15-.37.28.01.04.1-.04.18-.12.11-.21-.02"/><path fill="#27e7bc" d="M311.13 154.2q-.17-1.46.07-2.77a.33.33 0 0 1 .66.06l-.01 3.76q0 .93-.63.25-.33-.34-.17-.71.11-.28.08-.59"/><path fill="#8b6653" d="m318.62 153.97.39.46q-.67.92-1.39 1.29-.41.21-.34-.25.1-.7 1.34-1.5"/><path fill="#27e7bc" d="m312.72 167.9-2.23-.21q-1.75-1.12-2.61-2.92a1.55 1.55 0 0 0-.67-.7q-.36-.19-.73-.39-.44-.25-.47-.78-.02-.43.33-.67a1.46 1.39 52 0 0 .21-2.14q-.34-.37-.43-.86-.11-.53.24-.95.93-1.15.28-2.39-.27-.51.24-.79.45-.24.95-.29.86-.08.71.77-1.37 8.06 4.18 12.32"/><path fill="#5226c4" d="M311.49 157.4q.03-.03.07-.05t.09.01q.14.11.04.24-.25.33 0 0 .14-.17-.16-.12-.16.02-.04-.08"/><ellipse fill="#8b6653" rx="1.86" ry=".35" transform="rotate(68.7 41.118 310.97)"/><path fill="#27e7bc" d="M315.15 164.32c-1.77-1.26-2.07-2.51-3.14-4.27q-.17-.27-.04-.56.27-.6.6-.02l2.68 4.76q.16.28-.1.09"/><ellipse fill="#8b6653" rx="1.54" ry=".39" transform="rotate(64.9 32.647 331.65)"/><path fill="#56b2b2" fill-opacity=".996" d="m308.76 178.1 2.46 3.81q-.42-.03-.75-.35-.28-.26-.37-.62-.28-1.13-1.46-1.21a.58.57-84.4 0 1-.53-.65q.07-.47.65-.98"/><ellipse fill="#56b2b2" fill-opacity=".996" rx=".96" ry=".61" transform="rotate(43.4 -74.457 471.03)"/><ellipse fill="#27e7bc" rx=".84" ry=".49" transform="rotate(23.7 -277.556 819.53)"/><path fill="#27e7bc" d="M300.35 183.33a.1.1 0 0 1 .13.01q.18.17.02.3a.16.15 53.2 0 1-.23-.04q-.11-.15.08-.27"/><path fill="#56b2b2" fill-opacity=".996" d="M302.2 184.04q-.2 0-.47-.08.5-.93 1.27-.75.46.11.11.43-.32.31-.91.4"/><path fill="#f6bb90" d="M312.07 183.3q2.11 4.52 2.67 9.71.4 3.66-.83 7.3-.15.45-.59.28l-10.84-4.32q-1.08-1.91-1.39-4.14-.05-.38-.42-.26l-.25.07q-.1.04-.13.15l-.31 1.23q-.18.73-.81.33-.65-.41-.98-1.1l.17-1.84.03-.92.71-5.59q.7-.31.62 1.17-.03.54.5.53.32 0 .54-.24.15-.16.18-.53.09-.97.79-1.17.27.08.47.08-.35 1.1 1.2 1.22.34.03.46.35.04.11-.05.25-.1.17-.28.09-.42-.18-.82-.02-.51.2-.28.71l1.28 2.77a.69.69 0 0 0 1 .29q1.19-.79 2.41.02.3.19.58-.04.14-.12.14-.28 0-.19-.11-.33-.32-.42-.46-.92-.15-.55.19-1.01l1.91-2.52q.3-.4.77-.58z"/><ellipse fill="#f6bb90" rx=".83" ry=".45" transform="rotate(29.3 -206.075 676.696)"/><path d="m298.39 189.79-.03.92zM302.48 196.27q-1.52-.55-3.01-.36-.53.07-.65.59l-.96 4.25q-.13.56.23 1.01l2.16 2.68q-2.29 1.4-.63 3.73.29.4 0 .81-.56.78-1.53 1.04-.61.16-.4.75.41 1.16 1.56 1.61.69.27.5-.45-.18-.69-.74-1.22a.37.37 0 0 1 .06-.58l.28-.16q.53-.32.95.13.51.55.81 1.21.26.59.69.1.47-.54.36-1.16-.32-1.7.19-2.53 3.91 9.09 2.34 18.63-.45 2.68-1.92.4-2.8-4.33-9.05-7.02a.64.64 0 0 0-.89.49q-.37 2.54-.59 5.37-.13 1.71.64 3.28 4.06 8.38 2.37 17.28-.89 4.71-2.54.21-.52-1.44-2.49-4.31.47-.06.53-.27a.32.31 9.4 0 0-.29-.4q-.23-.01-.38.3-.83-.2-.92.32-.37 2.24-.97 3.91-.22-.94-.94-1.44c.88-3.31 2.18-6.45 2.86-9.8.4-1.98 1.07-3.93 1.05-5.93-.05-4.29-.01-8.06 1.75-11.77q.46.11.59-.21.24-.6-.44-.77l3.38-12.47q.53.4.7.37 1.52-.25.14-.94-.19-.09-.62.02l1.53-10.42q.33.69.98 1.1.63.4.81-.33l.31-1.23q.03-.11.13-.15l.25-.07q.37-.12.42.26.31 2.23 1.39 4.14m-4.87 11.44q.05-.14-.04-.25a.15.15 0 0 0-.27.09q0 .15.12.22.14.08.19-.06m-.97 6.21q-.66.62-1.16 1.31-.48.69.23.24 1.64-1.02 2.23-2.94.15-.48-.28-.21-.42.26-.51.71-.11.53-.51.89m4.52 5.59q.67.49.42-.31-.93-2.9-4.61-2.06-1.08.25 0 .49 2.3.49 4.19 1.88m-.616 2.836a1.62.23 39.3 0 0-1.108-1.204 1.62.23 39.3 0 0-1.4-.848 1.62.23 39.3 0 0 1.108 1.204 1.62.23 39.3 0 0 1.4.848m2.496 2.044-.38-.55q-.47-.7-.65.12-.21 1.03.89 1.54 1.41.66.62-.68-.09-.14-.25-.22-.14-.07-.23-.21m-10.42 16.03q.15-.89.24-1.71.03-.28-.18-.5-.35-.34-.8-.16-.98.39-.36 1.24.37.53.55 1.17.35 1.21.55-.04m2.22.13a.28.28 0 0 0-.28-.28.28.28 0 0 0-.28.28.28.28 0 0 0 .28.28.28.28 0 0 0 .28-.28"/><path fill="#56b2b2" fill-opacity=".996" d="M296.44 203.52q0-.37.22-.55.43-.11.62-.02 1.38.69-.14.94-.17.03-.7-.37"/><path fill="#f6bb90" d="m300.25 204.44 2.1 3.28q-.51.83-.19 2.53.11.62-.36 1.16-.43.49-.69-.1-.3-.66-.81-1.21-.42-.45-.95-.13l-.28.16a.37.37 0 0 0-.06.58q.56.53.74 1.22.19.72-.5.45-1.15-.45-1.56-1.61-.21-.59.4-.75.97-.26 1.53-1.04.29-.41 0-.81-1.66-2.33.63-3.73"/><path fill="#56b2b2" fill-opacity=".996" d="M297.42 207.77q-.12-.07-.12-.22a.15.15 0 0 1 .27-.09q.09.11.04.25t-.19.06M297.15 213.03q.09-.45.51-.71.43-.27.28.21-.59 1.92-2.23 2.94-.71.45-.23-.24.5-.69 1.16-1.31.4-.36.51-.89"/><path fill="#27e7bc" d="M293.06 215.99q.68.17.44.77-.13.32-.59.21.24-.57.15-.98M301.16 219.51q-1.89-1.39-4.19-1.88-1.08-.24 0-.49 3.68-.84 4.61 2.06.25.8-.42.31"/><ellipse fill="#5226c4" rx="1.62" ry=".23" transform="rotate(39.3 -160.268 529.754)"/><path fill="#56b2b2" fill-opacity=".996" d="M303.27 224.6q.16.08.25.22.79 1.34-.62.68-1.1-.51-.89-1.54.18-.82.65-.12l.38.55q.09.14.23.21"/><path fill="#f6bb90" d="M292.07 240.46q-.18-.64-.55-1.17-.62-.85.36-1.24.45-.18.8.16.21.22.18.5-.09.82-.24 1.71-.2 1.25-.55.04"/><circle cx="294.56" cy="240.55" r=".28" fill="#f6bb90"/><path fill="#f6bb90" d="m290.22 242.05-.14-.37q.15-.31.38-.3a.32.31 9.4 0 1 .29.4q-.06.21-.53.27M288.19 245.91l2.16 4.06q-.66 2.07.51 3.6.16.79.02 1.6a.57.57 0 0 1-.98.28c-1.43-1.6-3.41-3.25-3.56-5.49-.12-1.9.6-3.62.91-5.49q.72.5.94 1.44"/><path d="M290.86 253.57q-1.17-1.53-.51-3.6.88 1.67.51 3.6"/></svg>