<?xml version="1.0" encoding="UTF-8" standalone="no"?>
<!DOCTYPE svg PUBLIC "-//W3C//DTD SVG 1.1//EN" "http://www.w3.org/Graphics/SVG/1.1/DTD/svg11.dtd">
<svg xmlns="http://www.w3.org/2000/svg" version="1.1" viewBox="0.00 0.00 1592.00 1592.00" width="1592.00" height="1592.00">
<g stroke-width="2.00" fill="none" stroke-linecap="butt">
<path stroke="#186d61" vector-effect="non-scaling-stroke" d="
  M 1066.78 275.50
  Q 1062.68 274.55 1058.73 275.16
  Q 1058.25 275.23 1058.24 275.72
  L 1058.21 278.70"
/>
<path stroke="#186d61" vector-effect="non-scaling-stroke" d="
  M 1057.09 279.12
  L 1042.09 279.09
  Q 1041.55 279.09 1041.56 279.63
  L 1041.65 286.34"
/>
<path stroke="#186d61" vector-effect="non-scaling-stroke" d="
  M 1025.01 296.70
  L 1024.97 291.86
  Q 1024.97 291.47 1024.58 291.47
  L 1021.01 291.49
  Q 1020.76 291.50 1020.76 291.74
  L 1020.75 295.25
  Q 1020.75 295.75 1020.24 295.75
  L 1012.99 295.75
  Q 1012.49 295.75 1012.49 296.24
  L 1012.47 299.46
  Q 1012.46 299.95 1012.95 299.96
  L 1016.03 300.03
  Q 1016.54 300.04 1016.54 300.55
  L 1016.55 303.14
  Q 1016.55 304.02 1015.65 304.02
  L 1009.13 304.01
  Q 1008.21 304.01 1008.22 303.13
  L 1008.26 292.01
  Q 1008.27 291.50 1007.76 291.50
  L 1004.54 291.54
  Q 1004.03 291.55 1004.03 291.03
  L 1003.98 283.72
  Q 1003.97 283.21 1003.45 283.23
  L 1000.65 283.32
  Q 1000.07 283.33 1000.06 282.78
  L 1000.00 275.97
  Q 999.99 274.94 998.97 274.97
  L 996.45 275.05
  Q 995.73 275.08 995.74 275.79
  L 995.80 278.43
  Q 995.81 278.93 995.32 278.95
  L 992.23 279.06
  Q 991.85 279.08 991.84 279.49
  L 991.36 295.24
  A 0.62 0.59 -89.5 0 1 990.78 295.83
  L 988.23 295.88
  Q 987.67 295.88 987.64 296.48
  L 987.49 299.28
  A 0.66 0.47 -88.7 0 1 987.03 299.89
  L 983.82 300.01
  Q 983.25 300.03 983.24 299.27
  L 983.22 296.63
  Q 983.21 295.77 982.44 295.77
  L 975.91 295.71
  Q 974.97 295.70 974.97 296.73
  L 975.01 307.75
  Q 975.02 308.27 974.50 308.27
  L 967.08 308.23
  Q 966.61 308.23 966.55 308.71
  Q 966.29 310.77 966.74 312.77"
/>
<path stroke="#186d61" vector-effect="non-scaling-stroke" d="
  M 916.57 295.11
  L 916.55 288.17"
/>
<path stroke="#186d61" vector-effect="non-scaling-stroke" d="
  M 916.48 256.10
  Q 916.67 256.92 916.51 257.74
  Q 916.42 258.22 915.93 258.22
  L 913.00 258.23
  Q 912.47 258.23 912.47 258.74
  L 912.49 262.02
  Q 912.49 262.55 913.01 262.54
  L 916.00 262.51
  Q 916.48 262.50 916.49 263.00
  L 916.52 266.00
  Q 916.52 266.51 916.01 266.51
  L 908.75 266.50
  Q 908.22 266.50 908.23 266.99
  L 908.29 270.25
  A 0.49 0.45 89.6 0 1 907.83 270.75
  L 904.43 270.73
  A 0.49 0.44 90.0 0 0 903.99 271.22
  L 904.01 274.50
  Q 904.01 275.02 903.51 275.01
  L 900.62 274.98
  Q 900.01 274.97 900.01 275.60
  L 899.99 278.42
  A 0.60 0.59 2.0 0 0 900.55 279.01
  L 904.12 279.23"
/>
<path stroke="#186d61" vector-effect="non-scaling-stroke" d="
  M 904.05 286.75
  L 903.97 290.75
  Q 903.96 291.56 904.77 291.54
  L 907.54 291.50
  Q 908.29 291.49 908.28 290.99
  L 908.23 288.56
  Q 908.21 287.91 908.72 287.61
  Q 909.37 287.23 910.48 287.35"
/>
<path stroke="#186d61" vector-effect="non-scaling-stroke" d="
  M 1062.45 305.79
  Q 1062.72 306.91 1062.45 307.71
  A 0.72 0.64 -79.3 0 1 1061.82 308.20
  L 1058.78 308.19
  Q 1058.28 308.19 1058.25 308.74
  L 1058.13 311.64
  Q 1058.09 312.58 1059.13 312.58
  L 1065.61 312.55
  Q 1066.57 312.55 1066.56 311.74
  L 1066.51 308.78
  Q 1066.50 308.29 1067.02 308.27
  L 1070.21 308.21
  Q 1070.75 308.20 1070.75 308.72
  L 1070.76 316.01
  Q 1070.76 316.55 1071.26 316.53
  L 1074.14 316.42
  Q 1075.02 316.38 1075.02 317.38
  L 1075.03 324.13
  Q 1075.03 325.07 1074.21 325.05
  L 1071.25 324.97
  Q 1070.72 324.95 1070.72 325.51
  L 1070.76 328.49
  Q 1070.77 329.03 1070.25 329.02
  L 1067.20 328.97
  Q 1066.46 328.95 1066.47 329.72
  L 1066.48 336.69
  Q 1066.49 337.61 1067.40 337.58
  L 1070.23 337.49
  Q 1070.72 337.47 1070.72 337.99
  L 1070.63 353.52"
/>
<path stroke="#186d61" vector-effect="non-scaling-stroke" d="
  M 1253.99 366.49
  L 1254.04 370.29
  Q 1254.05 370.82 1254.53 370.80
  L 1257.52 370.67
  Q 1258.25 370.64 1258.26 371.49
  L 1258.29 378.12
  Q 1258.29 379.04 1257.42 379.02
  L 1254.51 378.96
  Q 1253.99 378.95 1253.99 379.48
  L 1253.97 382.78
  Q 1253.97 383.27 1253.47 383.26
  L 1250.53 383.21
  Q 1250.00 383.20 1250.00 383.72
  L 1249.99 395.26
  Q 1249.99 395.77 1249.48 395.77
  L 1238.00 395.74
  Q 1237.49 395.73 1237.49 396.25
  L 1237.48 411.96
  Q 1237.48 412.44 1237.96 412.44
  L 1240.99 412.44
  A 0.54 0.52 0.0 0 1 1241.53 412.96
  L 1241.53 416.01
  Q 1241.53 416.56 1240.99 416.55
  L 1238.00 416.53
  Q 1237.54 416.52 1237.53 417.00
  L 1237.48 420.26
  Q 1237.48 420.74 1236.99 420.75
  L 1233.73 420.78
  Q 1233.23 420.78 1233.23 421.27
  L 1233.23 424.48
  Q 1233.23 425.00 1233.74 425.00
  Q 1236.80 424.96 1240.25 424.99
  Q 1242.01 425.00 1241.65 426.69"
/>
<path stroke="#186d61" vector-effect="non-scaling-stroke" d="
  M 1270.80 463.75
  L 1270.78 470.22
  A 0.56 0.53 90.0 0 1 1270.25 470.78
  L 1267.02 470.79
  Q 1266.46 470.80 1266.46 470.26
  L 1266.46 467.02
  Q 1266.46 466.57 1265.98 466.57
  L 1255.07 466.53"
/>
<path stroke="#186d61" vector-effect="non-scaling-stroke" d="
  M 1270.97 372.62
  Q 1270.45 373.68 1270.78 374.44
  Q 1270.99 374.92 1271.50 374.93
  L 1274.54 375.03
  Q 1274.97 375.04 1274.98 375.53
  L 1275.03 378.34
  Q 1275.04 378.92 1275.62 378.94
  L 1278.41 379.04
  Q 1279.02 379.06 1279.02 379.67
  L 1279.01 386.54
  Q 1279.01 387.53 1280.04 387.53
  L 1286.62 387.57
  Q 1287.61 387.58 1287.59 386.68
  L 1287.52 383.96
  Q 1287.50 383.43 1288.10 383.34
  L 1290.58 382.97"
/>
<path stroke="#186d61" vector-effect="non-scaling-stroke" d="
  M 1254.10 422.33
  Q 1254.48 420.11 1250.56 420.76
  Q 1250.03 420.84 1250.05 421.38
  L 1250.12 423.58"
/>
<path stroke="#186d61" vector-effect="non-scaling-stroke" d="
  M 1291.71 749.38
  L 1291.57 757.65
  Q 1291.56 758.19 1292.11 758.19
  L 1297.07 758.16"
/>
<path stroke="#186d61" vector-effect="non-scaling-stroke" d="
  M 1300.30 764.20
  L 1299.92 766.01
  Q 1299.81 766.52 1299.31 766.52
  L 1296.26 766.50
  Q 1295.75 766.50 1295.75 766.97
  L 1295.77 770.27
  Q 1295.77 770.76 1295.25 770.76
  L 1287.98 770.76
  Q 1287.47 770.76 1287.48 771.26
  L 1287.53 774.48
  Q 1287.54 775.00 1287.02 775.00
  L 1283.71 775.00
  Q 1283.22 775.00 1283.23 775.51
  L 1283.26 790.98
  Q 1283.27 791.48 1282.77 791.48
  L 1279.52 791.48
  A 0.49 0.45 -0.8 0 1 1279.03 791.04
  L 1278.93 787.71
  Q 1278.93 787.46 1278.70 787.46
  L 1275.28 787.50
  Q 1275.04 787.50 1275.04 787.76
  L 1274.99 790.95
  A 0.72 0.56 0.3 0 1 1274.28 791.50
  L 1271.65 791.50
  Q 1270.67 791.50 1270.69 790.66
  L 1270.76 787.97
  Q 1270.77 787.47 1270.22 787.47
  L 1267.14 787.47
  Q 1266.54 787.47 1266.54 786.89
  L 1266.53 779.91
  Q 1266.52 779.06 1265.67 779.04
  L 1263.24 778.96
  Q 1262.45 778.94 1262.45 779.72
  L 1262.44 782.77
  Q 1262.44 783.22 1262.01 783.22
  L 1258.74 783.23
  Q 1258.27 783.23 1258.27 782.75
  L 1258.30 775.69
  Q 1258.30 775.12 1257.73 775.11
  L 1254.57 775.01
  Q 1254.10 775.00 1254.07 775.46
  L 1253.91 778.22
  Q 1253.86 779.01 1253.05 779.01
  L 1250.78 778.98
  A 0.74 0.71 -0.7 0 1 1250.05 778.30
  L 1249.96 775.65
  A 0.66 0.64 -1.0 0 0 1249.30 775.03
  L 1245.71 775.04"
/>
<path stroke="#186d61" vector-effect="non-scaling-stroke" d="
  M 1256.38 508.70
  Q 1261.00 505.66 1256.28 503.70"
/>
<path stroke="#186d61" vector-effect="non-scaling-stroke" d="
  M 1253.94 815.95
  L 1253.93 812.98
  Q 1253.93 812.50 1253.49 812.51
  L 1250.88 812.58
  Q 1249.98 812.61 1249.98 811.69
  L 1249.99 809.00
  Q 1250.00 808.15 1250.89 808.17
  L 1253.51 808.23
  Q 1254.00 808.24 1254.00 807.73
  L 1254.00 796.27
  A 0.49 0.47 -89.7 0 0 1253.53 795.78
  L 1250.55 795.75
  Q 1250.09 795.74 1250.08 796.21
  L 1249.99 799.29
  Q 1249.97 800.03 1249.25 800.03
  L 1246.33 800.02
  A 0.64 0.63 89.9 0 1 1245.70 799.39
  L 1245.69 796.50
  Q 1245.69 795.99 1245.16 795.88
  Q 1244.31 795.70 1243.65 795.29"
/>
<path stroke="#186d61" vector-effect="non-scaling-stroke" d="
  M 1245.76 845.68
  L 1241.98 845.82
  Q 1241.49 845.84 1241.49 846.31
  L 1241.53 853.49
  Q 1241.53 854.01 1241.01 854.01
  L 1237.97 854.00
  Q 1237.45 854.00 1237.46 854.50
  L 1237.51 857.60
  Q 1237.52 858.22 1236.91 858.22
  L 1233.77 858.24
  Q 1233.23 858.24 1233.23 858.75
  L 1233.23 862.01
  Q 1233.23 862.54 1233.75 862.54
  L 1237.00 862.53
  Q 1237.56 862.53 1237.54 862.00
  L 1237.45 859.22
  Q 1237.41 858.25 1238.47 858.24
  L 1244.89 858.20
  Q 1245.75 858.20 1245.76 859.12
  L 1245.78 862.28
  Q 1245.78 862.49 1246.00 862.49
  L 1249.72 862.52
  Q 1249.95 862.52 1249.96 862.28
  L 1250.01 858.82
  A 0.63 0.62 -89.2 0 1 1250.63 858.19
  L 1253.39 858.23
  Q 1254.03 858.24 1254.03 858.89
  L 1254.00 861.83
  Q 1254.00 862.39 1254.59 862.47
  Q 1256.15 862.68 1257.61 862.32"
/>
<path stroke="#186d61" vector-effect="non-scaling-stroke" d="
  M 1262.67 873.60
  L 1262.57 882.65
  Q 1262.57 883.19 1263.11 883.19
  L 1265.81 883.16"
/>
<path stroke="#186d61" vector-effect="non-scaling-stroke" d="
  M 1269.73 937.49
  L 1262.93 937.54
  Q 1262.44 937.55 1262.45 938.04
  L 1262.55 940.83
  Q 1262.56 941.39 1262.00 941.41
  L 1259.98 941.52"
/>
<path stroke="#186d61" vector-effect="non-scaling-stroke" d="
  M 1224.99 1034.93
  Q 1225.15 1034.08 1224.91 1033.62
  Q 1224.69 1033.19 1223.91 1033.19
  Q 1223.24 1033.20 1222.52 1033.29"
/>
<path stroke="#186d61" vector-effect="non-scaling-stroke" d="
  M 1209.42 1041.28
  Q 1208.33 1041.34 1208.26 1042.51
  Q 1208.13 1044.43 1208.29 1045.12
  A 0.51 0.48 82.7 0 1 1207.83 1045.74
  L 1204.76 1045.79
  Q 1203.94 1045.80 1203.97 1045.05
  L 1204.06 1042.43
  Q 1204.09 1041.44 1203.00 1041.44
  L 1196.51 1041.49
  A 0.84 0.83 84.5 0 0 1195.70 1042.48
  Q 1196.21 1045.24 1194.79 1046.24"
/>
</g>
<path fill="#2fdac2" d="
  M 1066.78 275.50
  Q 1062.68 274.55 1058.73 275.16
  Q 1058.25 275.23 1058.24 275.72
  L 1058.21 278.70
  L 1057.09 279.12
  L 1042.09 279.09
  Q 1041.55 279.09 1041.56 279.63
  L 1041.65 286.34
  L 1025.01 296.70
  L 1024.97 291.86
  Q 1024.97 291.47 1024.58 291.47
  L 1021.01 291.49
  Q 1020.76 291.50 1020.76 291.74
  L 1020.75 295.25
  Q 1020.75 295.75 1020.24 295.75
  L 1012.99 295.75
  Q 1012.49 295.75 1012.49 296.24
  L 1012.47 299.46
  Q 1012.46 299.95 1012.95 299.96
  L 1016.03 300.03
  Q 1016.54 300.04 1016.54 300.55
  L 1016.55 303.14
  Q 1016.55 304.02 1015.65 304.02
  L 1009.13 304.01
  Q 1008.21 304.01 1008.22 303.13
  L 1008.26 292.01
  Q 1008.27 291.50 1007.76 291.50
  L 1004.54 291.54
  Q 1004.03 291.55 1004.03 291.03
  L 1003.98 283.72
  Q 1003.97 283.21 1003.45 283.23
  L 1000.65 283.32
  Q 1000.07 283.33 1000.06 282.78
  L 1000.00 275.97
  Q 999.99 274.94 998.97 274.97
  L 996.45 275.05
  Q 995.73 275.08 995.74 275.79
  L 995.80 278.43
  Q 995.81 278.93 995.32 278.95
  L 992.23 279.06
  Q 991.85 279.08 991.84 279.49
  L 991.36 295.24
  A 0.62 0.59 -89.5 0 1 990.78 295.83
  L 988.23 295.88
  Q 987.67 295.88 987.64 296.48
  L 987.49 299.28
  A 0.66 0.47 -88.7 0 1 987.03 299.89
  L 983.82 300.01
  Q 983.25 300.03 983.24 299.27
  L 983.22 296.63
  Q 983.21 295.77 982.44 295.77
  L 975.91 295.71
  Q 974.97 295.70 974.97 296.73
  L 975.01 307.75
  Q 975.02 308.27 974.50 308.27
  L 967.08 308.23
  Q 966.61 308.23 966.55 308.71
  Q 966.29 310.77 966.74 312.77
  Q 960.23 312.68 955.99 311.63
  Q 955.16 311.42 954.62 310.28
  Q 954.48 309.99 954.20 309.86
  Q 951.74 308.75 949.45 307.28
  Q 941.48 302.18 934.59 298.40
  Q 932.29 297.15 926.17 295.09
  Q 923.64 294.24 921.47 294.81
  Q 921.00 294.94 920.54 294.76
  Q 917.79 293.65 916.57 295.11
  L 916.55 288.17
  L 918.66 288.42
  A 0.97 0.97 0.0 0 0 919.50 288.11
  C 932.78 273.17 949.99 263.00 969.10 257.12
  Q 990.08 250.65 1012.52 250.06
  Q 1017.33 249.94 1029.83 250.03
  C 1038.43 250.10 1045.74 251.37 1054.54 251.70
  Q 1059.21 251.88 1064.29 253.22
  Q 1079.25 257.15 1095.49 263.41
  Q 1095.98 263.59 1096.16 264.08
  Q 1097.12 266.64 1095.70 268.78
  Q 1095.43 269.19 1094.94 269.23
  Q 1091.67 269.49 1088.68 270.37
  Q 1086.01 271.16 1082.67 271.73
  Q 1074.49 273.11 1066.78 275.50
  Z"
/>
<path fill="#000000" d="
  M 916.48 256.10
  Q 916.67 256.92 916.51 257.74
  Q 916.42 258.22 915.93 258.22
  L 913.00 258.23
  Q 912.47 258.23 912.47 258.74
  L 912.49 262.02
  Q 912.49 262.55 913.01 262.54
  L 916.00 262.51
  Q 916.48 262.50 916.49 263.00
  L 916.52 266.00
  Q 916.52 266.51 916.01 266.51
  L 908.75 266.50
  Q 908.22 266.50 908.23 266.99
  L 908.29 270.25
  A 0.49 0.45 89.6 0 1 907.83 270.75
  L 904.43 270.73
  A 0.49 0.44 90.0 0 0 903.99 271.22
  L 904.01 274.50
  Q 904.01 275.02 903.51 275.01
  L 900.62 274.98
  Q 900.01 274.97 900.01 275.60
  L 899.99 278.42
  A 0.60 0.59 2.0 0 0 900.55 279.01
  L 904.12 279.23
  L 897.46 285.30
  A 0.52 0.52 0.0 0 0 897.76 286.21
  L 904.05 286.75
  L 903.97 290.75
  Q 903.96 291.56 904.77 291.54
  L 907.54 291.50
  Q 908.29 291.49 908.28 290.99
  L 908.23 288.56
  Q 908.21 287.91 908.72 287.61
  Q 909.37 287.23 910.48 287.35
  L 916.55 288.17
  L 916.57 295.11
  Q 911.76 295.54 905.99 293.75
  Q 904.96 293.43 904.50 293.67
  Q 904.10 293.88 903.69 294.33
  Q 903.35 294.70 902.85 294.74
  Q 901.02 294.86 899.84 294.33
  A 0.68 0.68 0.0 0 0 899.00 294.57
  Q 898.48 295.34 897.93 295.50
  Q 897.44 295.64 896.66 295.31
  C 892.39 293.51 889.17 291.70 885.10 292.42
  Q 880.12 293.30 873.15 295.37
  Q 869.78 296.37 858.52 296.71
  Q 854.24 296.84 844.17 295.51
  Q 835.82 294.40 831.77 294.81
  C 822.50 295.74 814.36 299.23 804.86 303.14
  C 798.77 305.65 791.96 306.98 784.94 308.81
  C 782.88 309.35 780.73 310.39 779.00 311.09
  A 1.04 1.04 0.0 0 1 778.12 311.05
  Q 775.99 309.93 773.90 309.75
  Q 773.08 309.68 773.49 309.19
  Q 773.86 308.74 773.43 308.02
  Q 773.14 307.54 773.49 307.10
  Q 785.11 292.41 795.93 281.94
  Q 801.33 276.71 809.44 271.19
  Q 816.25 266.54 824.81 263.72
  Q 838.38 259.25 851.13 257.39
  Q 861.69 255.86 872.28 255.41
  Q 894.39 254.46 916.48 256.10
  Z"
/>
<path fill="#2fdac2" d="
  M 904.12 279.23
  L 900.55 279.01
  A 0.60 0.59 2.0 0 1 899.99 278.42
  L 900.01 275.60
  Q 900.01 274.97 900.62 274.98
  L 903.51 275.01
  Q 904.01 275.02 904.01 274.50
  L 903.99 271.22
  A 0.49 0.44 90.0 0 1 904.43 270.73
  L 907.83 270.75
  A 0.49 0.45 89.6 0 0 908.29 270.25
  L 908.23 266.99
  Q 908.22 266.50 908.75 266.50
  L 916.01 266.51
  Q 916.52 266.51 916.52 266.00
  L 916.49 263.00
  Q 916.48 262.50 916.00 262.51
  L 913.01 262.54
  Q 912.49 262.55 912.49 262.02
  L 912.47 258.74
  Q 912.47 258.23 913.00 258.23
  L 915.93 258.22
  Q 916.42 258.22 916.51 257.74
  Q 916.67 256.92 916.48 256.10
  Q 932.66 256.95 938.50 257.49
  Q 940.26 257.66 941.46 259.29
  Q 941.78 259.71 941.29 259.92
  Q 937.04 261.69 933.65 263.59
  Q 932.53 264.21 927.29 266.13
  Q 924.24 267.25 921.05 269.05
  Q 910.72 274.89 904.12 279.23
  Z"
/>
<path fill="#000000" d="
  M 1025.01 296.70
  L 1018.15 301.70
  Q 1017.61 302.09 1018.08 302.56
  Q 1019.27 303.74 1020.55 304.56
  Q 1024.83 307.31 1029.13 310.13
  C 1029.81 310.57 1030.19 311.27 1030.33 312.04
  Q 1030.43 312.57 1030.89 312.82
  L 1041.63 318.63
  A 0.82 0.81 36.6 0 0 1042.60 318.50
  Q 1047.34 313.76 1054.27 310.08
  Q 1058.36 307.89 1062.45 305.79
  Q 1062.72 306.91 1062.45 307.71
  A 0.72 0.64 -79.3 0 1 1061.82 308.20
  L 1058.78 308.19
  Q 1058.28 308.19 1058.25 308.74
  L 1058.13 311.64
  Q 1058.09 312.58 1059.13 312.58
  L 1065.61 312.55
  Q 1066.57 312.55 1066.56 311.74
  L 1066.51 308.78
  Q 1066.50 308.29 1067.02 308.27
  L 1070.21 308.21
  Q 1070.75 308.20 1070.75 308.72
  L 1070.76 316.01
  Q 1070.76 316.55 1071.26 316.53
  L 1074.14 316.42
  Q 1075.02 316.38 1075.02 317.38
  L 1075.03 324.13
  Q 1075.03 325.07 1074.21 325.05
  L 1071.25 324.97
  Q 1070.72 324.95 1070.72 325.51
  L 1070.76 328.49
  Q 1070.77 329.03 1070.25 329.02
  L 1067.20 328.97
  Q 1066.46 328.95 1066.47 329.72
  L 1066.48 336.69
  Q 1066.49 337.61 1067.40 337.58
  L 1070.23 337.49
  Q 1070.72 337.47 1070.72 337.99
  L 1070.63 353.52
  Q 1067.59 350.93 1065.13 347.79
  Q 1062.54 344.47 1060.85 343.06
  Q 1055.75 338.83 1053.40 336.38
  Q 1052.16 335.09 1048.15 332.06
  Q 1043.28 328.37 1041.13 322.38
  Q 1040.95 321.90 1040.50 321.65
  Q 1031.12 316.44 1023.54 312.56
  Q 1015.69 308.55 1010.82 307.17
  Q 1005.40 305.64 999.97 307.95
  Q 997.45 309.02 995.63 309.04
  Q 994.21 309.05 989.61 308.59
  A 1.38 1.38 0.0 0 0 988.63 308.87
  Q 985.29 311.43 981.34 310.60
  Q 979.37 310.19 977.18 310.56
  Q 971.92 311.46 966.74 312.77
  Q 966.29 310.77 966.55 308.71
  Q 966.61 308.23 967.08 308.23
  L 974.50 308.27
  Q 975.02 308.27 975.01 307.75
  L 974.97 296.73
  Q 974.97 295.70 975.91 295.71
  L 982.44 295.77
  Q 983.21 295.77 983.22 296.63
  L 983.24 299.27
  Q 983.25 300.03 983.82 300.01
  L 987.03 299.89
  A 0.66 0.47 -88.7 0 0 987.49 299.28
  L 987.64 296.48
  Q 987.67 295.88 988.23 295.88
  L 990.78 295.83
  A 0.62 0.59 -89.5 0 0 991.36 295.24
  L 991.84 279.49
  Q 991.85 279.08 992.23 279.06
  L 995.32 278.95
  Q 995.81 278.93 995.80 278.43
  L 995.74 275.79
  Q 995.73 275.08 996.45 275.05
  L 998.97 274.97
  Q 999.99 274.94 1000.00 275.97
  L 1000.06 282.78
  Q 1000.07 283.33 1000.65 283.32
  L 1003.45 283.23
  Q 1003.97 283.21 1003.98 283.72
  L 1004.03 291.03
  Q 1004.03 291.55 1004.54 291.54
  L 1007.76 291.50
  Q 1008.27 291.50 1008.26 292.01
  L 1008.22 303.13
  Q 1008.21 304.01 1009.13 304.01
  L 1015.65 304.02
  Q 1016.55 304.02 1016.55 303.14
  L 1016.54 300.55
  Q 1016.54 300.04 1016.03 300.03
  L 1012.95 299.96
  Q 1012.46 299.95 1012.47 299.46
  L 1012.49 296.24
  Q 1012.49 295.75 1012.99 295.75
  L 1020.24 295.75
  Q 1020.75 295.75 1020.75 295.25
  L 1020.76 291.74
  Q 1020.76 291.50 1021.01 291.49
  L 1024.58 291.47
  Q 1024.97 291.47 1024.97 291.86
  L 1025.01 296.70
  Z"
/>
<path fill="#000000" d="
  M 1066.78 275.50
  L 1058.21 278.70
  L 1058.24 275.72
  Q 1058.25 275.23 1058.73 275.16
  Q 1062.68 274.55 1066.78 275.50
  Z"
/>
<path fill="#000000" d="
  M 1057.09 279.12
  L 1041.65 286.34
  L 1041.56 279.63
  Q 1041.55 279.09 1042.09 279.09
  L 1057.09 279.12
  Z"
/>
<path fill="#2fdac2" d="
  M 1253.99 366.49
  L 1254.04 370.29
  Q 1254.05 370.82 1254.53 370.80
  L 1257.52 370.67
  Q 1258.25 370.64 1258.26 371.49
  L 1258.29 378.12
  Q 1258.29 379.04 1257.42 379.02
  L 1254.51 378.96
  Q 1253.99 378.95 1253.99 379.48
  L 1253.97 382.78
  Q 1253.97 383.27 1253.47 383.26
  L 1250.53 383.21
  Q 1250.00 383.20 1250.00 383.72
  L 1249.99 395.26
  Q 1249.99 395.77 1249.48 395.77
  L 1238.00 395.74
  Q 1237.49 395.73 1237.49 396.25
  L 1237.48 411.96
  Q 1237.48 412.44 1237.96 412.44
  L 1240.99 412.44
  A 0.54 0.52 0.0 0 1 1241.53 412.96
  L 1241.53 416.01
  Q 1241.53 416.56 1240.99 416.55
  L 1238.00 416.53
  Q 1237.54 416.52 1237.53 417.00
  L 1237.48 420.26
  Q 1237.48 420.74 1236.99 420.75
  L 1233.73 420.78
  Q 1233.23 420.78 1233.23 421.27
  L 1233.23 424.48
  Q 1233.23 425.00 1233.74 425.00
  Q 1236.80 424.96 1240.25 424.99
  Q 1242.01 425.00 1241.65 426.69
  Q 1224.99 434.01 1209.99 444.42
  A 0.37 0.37 0.0 0 0 1210.00 445.04
  C 1212.82 446.91 1215.48 448.33 1218.86 449.18
  Q 1224.67 450.64 1232.85 452.25
  Q 1233.37 452.36 1233.69 452.05
  L 1234.20 451.57
  A 0.94 0.91 28.8 0 1 1235.03 451.34
  Q 1239.87 452.37 1241.56 452.92
  Q 1256.43 457.70 1270.80 463.75
  L 1270.78 470.22
  A 0.56 0.53 90.0 0 1 1270.25 470.78
  L 1267.02 470.79
  Q 1266.46 470.80 1266.46 470.26
  L 1266.46 467.02
  Q 1266.46 466.57 1265.98 466.57
  L 1255.07 466.53
  Q 1254.40 463.30 1251.85 461.91
  Q 1251.22 461.56 1251.30 462.28
  Q 1251.33 462.56 1251.46 462.82
  Q 1251.82 463.53 1251.05 463.35
  Q 1248.65 462.80 1248.97 460.23
  Q 1249.03 459.71 1248.54 459.51
  Q 1243.48 457.50 1238.89 456.65
  Q 1228.69 454.76 1222.34 453.23
  Q 1213.38 451.07 1205.25 445.92
  Q 1204.68 445.56 1204.58 445.14
  L 1204.43 444.53
  A 0.58 0.42 6.0 0 0 1204.05 444.19
  Q 1195.01 441.53 1189.58 434.56
  C 1186.93 431.15 1185.83 426.11 1184.66 421.33
  Q 1184.20 419.45 1182.53 417.03
  Q 1181.48 415.52 1178.87 414.28
  Q 1175.70 412.78 1174.01 411.50
  C 1169.80 408.30 1174.16 404.96 1175.59 402.18
  Q 1179.94 393.75 1179.60 384.57
  Q 1179.44 380.19 1176.65 372.69
  Q 1174.15 365.97 1168.54 363.66
  Q 1165.62 362.47 1163.27 363.23
  A 1.27 1.26 49.0 0 1 1162.33 363.16
  C 1154.50 359.36 1146.73 357.35 1136.38 354.47
  Q 1135.89 354.34 1135.45 354.61
  C 1134.91 354.95 1134.54 355.06 1134.12 355.02
  Q 1130.39 354.63 1124.60 352.66
  C 1121.58 351.63 1119.07 351.55 1115.34 352.34
  Q 1111.36 353.19 1106.49 353.47
  Q 1088.67 354.51 1075.00 354.23
  Q 1073.10 354.19 1070.63 353.52
  L 1070.72 337.99
  Q 1070.72 337.47 1070.23 337.49
  L 1067.40 337.58
  Q 1066.49 337.61 1066.48 336.69
  L 1066.47 329.72
  Q 1066.46 328.95 1067.20 328.97
  L 1070.25 329.02
  Q 1070.77 329.03 1070.76 328.49
  L 1070.72 325.51
  Q 1070.72 324.95 1071.25 324.97
  L 1074.21 325.05
  Q 1075.03 325.07 1075.03 324.13
  L 1075.02 317.38
  Q 1075.02 316.38 1074.14 316.42
  L 1071.26 316.53
  Q 1070.76 316.55 1070.76 316.01
  L 1070.75 308.72
  Q 1070.75 308.20 1070.21 308.21
  L 1067.02 308.27
  Q 1066.50 308.29 1066.51 308.78
  L 1066.56 311.74
  Q 1066.57 312.55 1065.61 312.55
  L 1059.13 312.58
  Q 1058.09 312.58 1058.13 311.64
  L 1058.25 308.74
  Q 1058.28 308.19 1058.78 308.19
  L 1061.82 308.20
  A 0.72 0.64 -79.3 0 0 1062.45 307.71
  Q 1062.72 306.91 1062.45 305.79
  Q 1074.57 299.10 1081.50 296.77
  Q 1104.45 289.05 1115.96 286.77
  Q 1131.18 283.75 1140.03 282.53
  Q 1143.85 282.00 1148.29 282.18
  Q 1156.11 282.50 1156.47 282.50
  Q 1169.11 282.41 1171.88 282.87
  C 1189.97 285.88 1201.43 287.25 1215.26 292.24
  Q 1217.78 293.15 1217.79 296.02
  A 1.74 1.74 0.0 0 1 1216.41 297.73
  Q 1201.33 300.92 1186.58 307.84
  Q 1182.39 309.81 1162.64 320.87
  Q 1155.60 324.81 1149.94 329.44
  Q 1140.65 337.03 1128.43 347.16
  Q 1127.92 347.58 1128.54 347.83
  Q 1131.27 348.96 1134.78 349.73
  Q 1135.56 349.90 1136.41 350.81
  Q 1136.75 351.18 1137.22 351.32
  Q 1142.72 352.99 1153.06 355.93
  Q 1157.96 357.32 1165.23 361.03
  A 1.26 1.26 0.0 0 0 1166.79 360.69
  Q 1167.73 359.51 1169.49 360.51
  A 1.44 1.44 0.0 0 0 1170.40 360.68
  Q 1187.70 358.30 1209.01 359.20
  Q 1232.44 360.20 1253.99 366.49
  Z"
/>
<path fill="#2fdac2" d="
  M 910.48 287.35
  Q 909.37 287.23 908.72 287.61
  Q 908.21 287.91 908.23 288.56
  L 908.28 290.99
  Q 908.29 291.49 907.54 291.50
  L 904.77 291.54
  Q 903.96 291.56 903.97 290.75
  L 904.05 286.75
  L 910.48 287.35
  Z"
/>
<path fill="#000000" d="
  M 1270.97 372.62
  Q 1270.45 373.68 1270.78 374.44
  Q 1270.99 374.92 1271.50 374.93
  L 1274.54 375.03
  Q 1274.97 375.04 1274.98 375.53
  L 1275.03 378.34
  Q 1275.04 378.92 1275.62 378.94
  L 1278.41 379.04
  Q 1279.02 379.06 1279.02 379.67
  L 1279.01 386.54
  Q 1279.01 387.53 1280.04 387.53
  L 1286.62 387.57
  Q 1287.61 387.58 1287.59 386.68
  L 1287.52 383.96
  Q 1287.50 383.43 1288.10 383.34
  L 1290.58 382.97
  Q 1294.58 385.47 1296.26 386.74
  Q 1304.13 392.68 1312.41 400.13
  Q 1321.07 407.92 1326.62 418.47
  A 0.89 0.89 0.0 0 1 1326.14 419.72
  Q 1325.56 419.93 1324.94 419.96
  Q 1324.28 419.99 1323.71 419.76
  Q 1318.15 417.54 1315.01 417.13
  Q 1283.93 413.10 1254.10 422.33
  Q 1254.48 420.11 1250.56 420.76
  Q 1250.03 420.84 1250.05 421.38
  L 1250.12 423.58
  L 1241.65 426.69
  Q 1242.01 425.00 1240.25 424.99
  Q 1236.80 424.96 1233.74 425.00
  Q 1233.23 425.00 1233.23 424.48
  L 1233.23 421.27
  Q 1233.23 420.78 1233.73 420.78
  L 1236.99 420.75
  Q 1237.48 420.74 1237.48 420.26
  L 1237.53 417.00
  Q 1237.54 416.52 1238.00 416.53
  L 1240.99 416.55
  Q 1241.53 416.56 1241.53 416.01
  L 1241.53 412.96
  A 0.54 0.52 0.0 0 0 1240.99 412.44
  L 1237.96 412.44
  Q 1237.48 412.44 1237.48 411.96
  L 1237.49 396.25
  Q 1237.49 395.73 1238.00 395.74
  L 1249.48 395.77
  Q 1249.99 395.77 1249.99 395.26
  L 1250.00 383.72
  Q 1250.00 383.20 1250.53 383.21
  L 1253.47 383.26
  Q 1253.97 383.27 1253.97 382.78
  L 1253.99 379.48
  Q 1253.99 378.95 1254.51 378.96
  L 1257.42 379.02
  Q 1258.29 379.04 1258.29 378.12
  L 1258.26 371.49
  Q 1258.25 370.64 1257.52 370.67
  L 1254.53 370.80
  Q 1254.05 370.82 1254.04 370.29
  L 1253.99 366.49
  L 1270.97 372.62
  Z"
/>
<path fill="#2fdac2" d="
  M 1270.97 372.62
  Q 1281.15 376.92 1290.58 382.97
  L 1288.10 383.34
  Q 1287.50 383.43 1287.52 383.96
  L 1287.59 386.68
  Q 1287.61 387.58 1286.62 387.57
  L 1280.04 387.53
  Q 1279.01 387.53 1279.01 386.54
  L 1279.02 379.67
  Q 1279.02 379.06 1278.41 379.04
  L 1275.62 378.94
  Q 1275.04 378.92 1275.03 378.34
  L 1274.98 375.53
  Q 1274.97 375.04 1274.54 375.03
  L 1271.50 374.93
  Q 1270.99 374.92 1270.78 374.44
  Q 1270.45 373.68 1270.97 372.62
  Z"
/>
<path fill="#2fdac2" d="
  M 1254.10 422.33
  L 1250.12 423.58
  L 1250.05 421.38
  Q 1250.03 420.84 1250.56 420.76
  Q 1254.48 420.11 1254.10 422.33
  Z"
/>
<path fill="#000000" d="
  M 1291.71 749.38
  L 1291.57 757.65
  Q 1291.56 758.19 1292.11 758.19
  L 1297.07 758.16
  L 1300.30 764.20
  L 1299.92 766.01
  Q 1299.81 766.52 1299.31 766.52
  L 1296.26 766.50
  Q 1295.75 766.50 1295.75 766.97
  L 1295.77 770.27
  Q 1295.77 770.76 1295.25 770.76
  L 1287.98 770.76
  Q 1287.47 770.76 1287.48 771.26
  L 1287.53 774.48
  Q 1287.54 775.00 1287.02 775.00
  L 1283.71 775.00
  Q 1283.22 775.00 1283.23 775.51
  L 1283.26 790.98
  Q 1283.27 791.48 1282.77 791.48
  L 1279.52 791.48
  A 0.49 0.45 -0.8 0 1 1279.03 791.04
  L 1278.93 787.71
  Q 1278.93 787.46 1278.70 787.46
  L 1275.28 787.50
  Q 1275.04 787.50 1275.04 787.76
  L 1274.99 790.95
  A 0.72 0.56 0.3 0 1 1274.28 791.50
  L 1271.65 791.50
  Q 1270.67 791.50 1270.69 790.66
  L 1270.76 787.97
  Q 1270.77 787.47 1270.22 787.47
  L 1267.14 787.47
  Q 1266.54 787.47 1266.54 786.89
  L 1266.53 779.91
  Q 1266.52 779.06 1265.67 779.04
  L 1263.24 778.96
  Q 1262.45 778.94 1262.45 779.72
  L 1262.44 782.77
  Q 1262.44 783.22 1262.01 783.22
  L 1258.74 783.23
  Q 1258.27 783.23 1258.27 782.75
  L 1258.30 775.69
  Q 1258.30 775.12 1257.73 775.11
  L 1254.57 775.01
  Q 1254.10 775.00 1254.07 775.46
  L 1253.91 778.22
  Q 1253.86 779.01 1253.05 779.01
  L 1250.78 778.98
  A 0.74 0.71 -0.7 0 1 1250.05 778.30
  L 1249.96 775.65
  A 0.66 0.64 -1.0 0 0 1249.30 775.03
  L 1245.71 775.04
  Q 1247.75 751.95 1251.47 729.11
  Q 1251.56 728.59 1251.26 728.20
  L 1250.93 727.76
  Q 1250.63 727.36 1250.75 726.82
  Q 1253.67 713.42 1254.67 698.27
  Q 1254.79 696.45 1255.17 694.28
  Q 1255.84 690.52 1255.87 690.29
  Q 1259.42 660.47 1260.15 623.35
  Q 1260.37 611.95 1260.05 607.37
  Q 1259.90 605.24 1260.59 602.43
  Q 1260.82 601.51 1261.45 600.47
  C 1262.10 599.40 1262.36 599.01 1262.21 597.79
  Q 1261.47 592.06 1258.56 585.60
  Q 1257.50 583.25 1255.78 581.58
  Q 1251.76 577.69 1250.72 572.31
  Q 1250.42 570.73 1250.16 572.31
  Q 1249.79 574.52 1250.37 577.01
  A 0.20 0.20 0.0 0 1 1250.20 577.25
  L 1249.92 577.28
  Q 1249.83 577.29 1249.79 577.20
  L 1247.16 570.40
  Q 1247.00 569.99 1247.10 569.53
  Q 1247.70 566.61 1247.51 565.37
  Q 1247.43 564.86 1247.86 564.57
  Q 1249.21 563.67 1249.15 561.89
  Q 1248.99 557.36 1248.98 555.48
  Q 1248.98 554.61 1249.87 553.83
  Q 1250.25 553.50 1250.29 553.01
  Q 1250.80 547.59 1253.50 536.71
  Q 1254.93 530.94 1255.52 523.46
  Q 1256.12 515.77 1256.38 508.70
  Q 1261.00 505.66 1256.28 503.70
  Q 1256.26 497.19 1256.24 490.18
  Q 1256.23 485.45 1255.65 478.37
  Q 1255.16 472.43 1255.07 466.53
  L 1265.98 466.57
  Q 1266.46 466.57 1266.46 467.02
  L 1266.46 470.26
  Q 1266.46 470.80 1267.02 470.79
  L 1270.25 470.78
  A 0.56 0.53 90.0 0 0 1270.78 470.22
  L 1270.80 463.75
  Q 1282.84 469.21 1294.32 475.73
  Q 1300.08 479.00 1304.27 482.37
  Q 1305.93 483.71 1313.66 489.85
  Q 1327.77 501.09 1343.87 518.73
  C 1345.54 520.56 1346.57 523.05 1347.85 524.68
  Q 1356.68 535.96 1361.11 545.95
  Q 1363.69 551.76 1357.96 548.98
  C 1356.41 548.23 1354.49 547.15 1352.55 546.57
  Q 1340.54 543.00 1327.94 544.67
  Q 1311.97 546.79 1310.01 546.98
  Q 1298.82 548.11 1292.25 549.99
  Q 1280.32 553.40 1271.83 556.80
  Q 1256.27 563.04 1254.21 563.90
  Q 1252.77 564.50 1252.88 566.07
  Q 1253.43 573.82 1258.59 579.62
  Q 1260.91 582.23 1261.76 584.29
  C 1264.56 591.11 1266.35 595.74 1265.19 601.87
  Q 1265.03 602.77 1265.89 603.06
  C 1299.73 614.71 1328.74 636.83 1347.48 667.30
  Q 1352.03 674.70 1353.47 677.28
  C 1359.59 688.25 1361.51 701.13 1361.79 713.77
  A 1.62 1.62 0.0 0 1 1359.68 715.34
  Q 1353.19 713.29 1348.52 711.31
  Q 1340.23 707.79 1337.47 706.84
  Q 1314.24 698.91 1288.81 697.92
  Q 1273.57 697.33 1258.32 698.31
  Q 1257.80 698.34 1257.78 698.87
  Q 1257.46 707.50 1255.69 718.29
  Q 1255.57 719.03 1256.26 719.32
  Q 1278.79 728.74 1291.71 749.38
  Z"
/>
<path fill="#2fdac2" d="
  M 1256.38 508.70
  L 1256.28 503.70
  Q 1261.00 505.66 1256.38 508.70
  Z"
/>
<path fill="#2fdac2" d="
  M 1291.71 749.38
  L 1297.07 758.16
  L 1292.11 758.19
  Q 1291.56 758.19 1291.57 757.65
  L 1291.71 749.38
  Z"
/>
<path fill="#2fdac2" d="
  M 1300.30 764.20
  Q 1305.80 775.88 1307.97 787.52
  Q 1309.83 797.54 1310.26 799.23
  Q 1311.37 803.62 1310.85 814.03
  Q 1310.48 821.47 1309.15 829.74
  Q 1308.52 833.67 1307.29 836.14
  A 0.46 0.46 0.0 0 1 1306.64 836.34
  Q 1291.63 827.49 1274.71 821.59
  Q 1270.67 820.18 1264.37 818.60
  Q 1259.16 817.30 1253.94 815.95
  L 1253.93 812.98
  Q 1253.93 812.50 1253.49 812.51
  L 1250.88 812.58
  Q 1249.98 812.61 1249.98 811.69
  L 1249.99 809.00
  Q 1250.00 808.15 1250.89 808.17
  L 1253.51 808.23
  Q 1254.00 808.24 1254.00 807.73
  L 1254.00 796.27
  A 0.49 0.47 -89.7 0 0 1253.53 795.78
  L 1250.55 795.75
  Q 1250.09 795.74 1250.08 796.21
  L 1249.99 799.29
  Q 1249.97 800.03 1249.25 800.03
  L 1246.33 800.02
  A 0.64 0.63 89.9 0 1 1245.70 799.39
  L 1245.69 796.50
  Q 1245.69 795.99 1245.16 795.88
  Q 1244.31 795.70 1243.65 795.29
  L 1245.71 775.04
  L 1249.30 775.03
  A 0.66 0.64 -1.0 0 1 1249.96 775.65
  L 1250.05 778.30
  A 0.74 0.71 -0.7 0 0 1250.78 778.98
  L 1253.05 779.01
  Q 1253.86 779.01 1253.91 778.22
  L 1254.07 775.46
  Q 1254.10 775.00 1254.57 775.01
  L 1257.73 775.11
  Q 1258.30 775.12 1258.30 775.69
  L 1258.27 782.75
  Q 1258.27 783.23 1258.74 783.23
  L 1262.01 783.22
  Q 1262.44 783.22 1262.44 782.77
  L 1262.45 779.72
  Q 1262.45 778.94 1263.24 778.96
  L 1265.67 779.04
  Q 1266.52 779.06 1266.53 779.91
  L 1266.54 786.89
  Q 1266.54 787.47 1267.14 787.47
  L 1270.22 787.47
  Q 1270.77 787.47 1270.76 787.97
  L 1270.69 790.66
  Q 1270.67 791.50 1271.65 791.50
  L 1274.28 791.50
  A 0.72 0.56 0.3 0 0 1274.99 790.95
  L 1275.04 787.76
  Q 1275.04 787.50 1275.28 787.50
  L 1278.70 787.46
  Q 1278.93 787.46 1278.93 787.71
  L 1279.03 791.04
  A 0.49 0.45 -0.8 0 0 1279.52 791.48
  L 1282.77 791.48
  Q 1283.27 791.48 1283.26 790.98
  L 1283.23 775.51
  Q 1283.22 775.00 1283.71 775.00
  L 1287.02 775.00
  Q 1287.54 775.00 1287.53 774.48
  L 1287.48 771.26
  Q 1287.47 770.76 1287.98 770.76
  L 1295.25 770.76
  Q 1295.77 770.76 1295.77 770.27
  L 1295.75 766.97
  Q 1295.75 766.50 1296.26 766.50
  L 1299.31 766.52
  Q 1299.81 766.52 1299.92 766.01
  L 1300.30 764.20
  Z"
/>
<path fill="#000000" d="
  M 1243.65 795.29
  Q 1244.31 795.70 1245.16 795.88
  Q 1245.69 795.99 1245.69 796.50
  L 1245.70 799.39
  A 0.64 0.63 89.9 0 0 1246.33 800.02
  L 1249.25 800.03
  Q 1249.97 800.03 1249.99 799.29
  L 1250.08 796.21
  Q 1250.09 795.74 1250.55 795.75
  L 1253.53 795.78
  A 0.49 0.47 -89.7 0 1 1254.00 796.27
  L 1254.00 807.73
  Q 1254.00 808.24 1253.51 808.23
  L 1250.89 808.17
  Q 1250.00 808.15 1249.99 809.00
  L 1249.98 811.69
  Q 1249.98 812.61 1250.88 812.58
  L 1253.49 812.51
  Q 1253.93 812.50 1253.93 812.98
  L 1253.94 815.95
  L 1249.43 814.75
  Q 1248.91 814.61 1248.56 815.02
  Q 1248.15 815.49 1247.73 815.60
  A 1.67 0.56 22.9 0 1 1246.79 815.53
  L 1245.36 815.15
  Q 1244.77 815.00 1244.70 815.56
  Q 1243.09 828.01 1240.50 839.89
  A 0.75 0.75 0.0 0 0 1240.70 840.58
  L 1245.76 845.68
  L 1241.98 845.82
  Q 1241.49 845.84 1241.49 846.31
  L 1241.53 853.49
  Q 1241.53 854.01 1241.01 854.01
  L 1237.97 854.00
  Q 1237.45 854.00 1237.46 854.50
  L 1237.51 857.60
  Q 1237.52 858.22 1236.91 858.22
  L 1233.77 858.24
  Q 1233.23 858.24 1233.23 858.75
  L 1233.23 862.01
  Q 1233.23 862.54 1233.75 862.54
  L 1237.00 862.53
  Q 1237.56 862.53 1237.54 862.00
  L 1237.45 859.22
  Q 1237.41 858.25 1238.47 858.24
  L 1244.89 858.20
  Q 1245.75 858.20 1245.76 859.12
  L 1245.78 862.28
  Q 1245.78 862.49 1246.00 862.49
  L 1249.72 862.52
  Q 1249.95 862.52 1249.96 862.28
  L 1250.01 858.82
  A 0.63 0.62 -89.2 0 1 1250.63 858.19
  L 1253.39 858.23
  Q 1254.03 858.24 1254.03 858.89
  L 1254.00 861.83
  Q 1254.00 862.39 1254.59 862.47
  Q 1256.15 862.68 1257.61 862.32
  L 1262.67 873.60
  L 1262.57 882.65
  Q 1262.57 883.19 1263.11 883.19
  L 1265.81 883.16
  Q 1269.83 897.65 1270.12 906.32
  Q 1270.24 909.80 1270.50 913.28
  Q 1270.79 917.15 1270.67 920.24
  Q 1270.33 928.87 1269.73 937.49
  L 1262.93 937.54
  Q 1262.44 937.55 1262.45 938.04
  L 1262.55 940.83
  Q 1262.56 941.39 1262.00 941.41
  L 1259.98 941.52
  Q 1254.23 933.47 1247.05 928.18
  Q 1235.97 920.02 1221.20 913.83
  Q 1220.70 913.62 1220.54 914.14
  Q 1217.89 922.94 1217.94 925.01
  Q 1218.29 938.03 1217.16 949.78
  Q 1217.11 950.30 1217.46 950.68
  Q 1220.90 954.50 1223.59 960.73
  Q 1228.83 972.87 1230.35 988.71
  Q 1231.99 1005.82 1230.71 1022.50
  C 1230.37 1026.96 1229.45 1034.17 1224.99 1034.93
  Q 1225.15 1034.08 1224.91 1033.62
  Q 1224.69 1033.19 1223.91 1033.19
  Q 1223.24 1033.20 1222.52 1033.29
  Q 1220.80 1027.66 1218.01 1022.47
  Q 1213.89 1014.83 1213.62 1014.33
  Q 1210.72 1008.95 1206.05 1005.58
  Q 1205.50 1005.18 1205.30 1005.83
  Q 1203.16 1012.78 1201.37 1021.12
  Q 1200.67 1024.37 1200.75 1026.57
  Q 1200.76 1027.08 1201.12 1027.44
  Q 1206.90 1033.37 1209.42 1041.28
  Q 1208.33 1041.34 1208.26 1042.51
  Q 1208.13 1044.43 1208.29 1045.12
  A 0.51 0.48 82.7 0 1 1207.83 1045.74
  L 1204.76 1045.79
  Q 1203.94 1045.80 1203.97 1045.05
  L 1204.06 1042.43
  Q 1204.09 1041.44 1203.00 1041.44
  L 1196.51 1041.49
  A 0.84 0.83 84.5 0 0 1195.70 1042.48
  Q 1196.21 1045.24 1194.79 1046.24
  Q 1193.29 1041.84 1193.39 1037.30
  Q 1193.46 1034.23 1195.09 1028.58
  Q 1196.22 1024.70 1197.59 1018.33
  Q 1199.32 1010.32 1203.31 999.05
  C 1203.62 998.16 1204.37 997.31 1204.65 996.45
  Q 1206.89 989.55 1208.42 982.49
  Q 1211.19 969.65 1213.15 959.88
  C 1213.82 956.52 1214.36 951.64 1214.27 947.38
  Q 1213.99 933.08 1215.41 920.90
  Q 1215.85 917.13 1217.51 912.51
  Q 1219.33 907.44 1220.44 903.48
  Q 1228.98 873.18 1232.77 857.94
  Q 1233.32 855.74 1234.86 850.98
  Q 1236.09 847.16 1236.69 843.94
  Q 1240.99 820.78 1243.65 795.29
  Z"
/>
<path fill="#2fdac2" d="
  M 1245.76 845.68
  Q 1252.61 853.24 1257.61 862.32
  Q 1256.15 862.68 1254.59 862.47
  Q 1254.00 862.39 1254.00 861.83
  L 1254.03 858.89
  Q 1254.03 858.24 1253.39 858.23
  L 1250.63 858.19
  A 0.63 0.62 -89.2 0 0 1250.01 858.82
  L 1249.96 862.28
  Q 1249.95 862.52 1249.72 862.52
  L 1246.00 862.49
  Q 1245.78 862.49 1245.78 862.28
  L 1245.76 859.12
  Q 1245.75 858.20 1244.89 858.20
  L 1238.47 858.24
  Q 1237.41 858.25 1237.45 859.22
  L 1237.54 862.00
  Q 1237.56 862.53 1237.00 862.53
  L 1233.75 862.54
  Q 1233.23 862.54 1233.23 862.01
  L 1233.23 858.75
  Q 1233.23 858.24 1233.77 858.24
  L 1236.91 858.22
  Q 1237.52 858.22 1237.51 857.60
  L 1237.46 854.50
  Q 1237.45 854.00 1237.97 854.00
  L 1241.01 854.01
  Q 1241.53 854.01 1241.53 853.49
  L 1241.49 846.31
  Q 1241.49 845.84 1241.98 845.82
  L 1245.76 845.68
  Z"
/>
<path fill="#2fdac2" d="
  M 1262.67 873.60
  L 1265.81 883.16
  L 1263.11 883.19
  Q 1262.57 883.19 1262.57 882.65
  L 1262.67 873.60
  Z"
/>
<path fill="#2fdac2" d="
  M 1269.73 937.49
  Q 1269.67 941.72 1268.37 945.76
  Q 1267.75 947.69 1266.72 948.00
  Q 1265.52 948.37 1264.35 947.94
  Q 1263.60 947.66 1262.85 946.38
  Q 1261.43 943.96 1259.98 941.52
  L 1262.00 941.41
  Q 1262.56 941.39 1262.55 940.83
  L 1262.45 938.04
  Q 1262.44 937.55 1262.93 937.54
  L 1269.73 937.49
  Z"
/>
<path fill="#2fdac2" d="
  M 1224.99 1034.93
  Q 1222.92 1035.07 1222.52 1033.29
  Q 1223.24 1033.20 1223.91 1033.19
  Q 1224.69 1033.19 1224.91 1033.62
  Q 1225.15 1034.08 1224.99 1034.93
  Z"
/>
<path fill="#2fdac2" d="
  M 1209.42 1041.28
  Q 1212.36 1049.81 1212.52 1058.72
  Q 1212.59 1062.82 1209.44 1065.27
  Q 1209.02 1065.60 1208.64 1065.23
  Q 1208.01 1064.64 1205.84 1061.42
  Q 1202.10 1055.86 1196.45 1051.38
  Q 1196.05 1051.06 1195.92 1050.57
  L 1194.79 1046.24
  Q 1196.21 1045.24 1195.70 1042.48
  A 0.84 0.83 84.5 0 1 1196.51 1041.49
  L 1203.00 1041.44
  Q 1204.09 1041.44 1204.06 1042.43
  L 1203.97 1045.05
  Q 1203.94 1045.80 1204.76 1045.79
  L 1207.83 1045.74
  A 0.51 0.48 82.7 0 0 1208.29 1045.12
  Q 1208.13 1044.43 1208.26 1042.51
  Q 1208.33 1041.34 1209.42 1041.28
  Z"
/>
</svg>
