<svg xmlns="http://www.w3.org/2000/svg" viewBox="0 0 382 382"><g fill="none" stroke="gray" stroke-width="2"><path d="m248 60.13 6.5 6.62M248.04 69.76q-.28-.46-.52-.58-.79-.4-.37.59.1.25.37.44M245.96 71.26q-2.23-2.49-4.57-4.92-.11-.12-.02-.25.12-.17.28-.06l3.02 2.05q.24.17.52.05.14-.06.2-.23.07-.17-.06-.29-1.53-1.6-2.86-2.09-4.79-1.78-1.35 1.99 1.87 2.04 3.79 4.05.15.16-.06.41M250.4 76.28q-.08.49-.67.75M243.22 73.94q-.05-1.26-.75-1.74-.52-.35-.48.28l.07 1.05M239.55 74.03l-3.73-7.46a1.04 1.03-9.7 0 0-.83-.58q-.97-.11-.8.52 1.04 4.06 2.97 7.7M235.47 74.52l-.41-.58q-.41-.59-.81.01-.22.35-.58.11c-1.03-.68-2.11-2.41-3.23-3.3q-.43-.35-.83.04-.27.26-.4.61-.3.8.35 1.35l2.56 2.17M230 74.89q-.61-1.62-2.14-1.77-.5-.05-.78-.47-1.08-1.65-3.12-2.49-.5-.2-.93.13l-.67.51M220.77 70.65l1.24-.78q.49-.31.12-.75-.25-.32-.78-.57M221.95 68q3.01.73 5.05 2.98a.9.89-54.1 0 0 1.48-.24l.54-1.23q.74-1.67-.94-.94-1.4.61-2.62.17-.47-.17-.68-.62-.52-1.1-1.55-1.41" vector-effect="non-scaling-stroke"/><path d="M224 66.14q1.25.55 1.93 1.18.69.64 1.5.17l.36-.21q.68-.39.27-1.06l-1.17-1.93M227.51 63.84l1.69 2.41q.36.52.97.31l1.85-.61q.56-.19.27-.71l-1.63-2.84M233.86 61.36q2.87 2.03 4.45 5.34.43.89 1.81 1.73.39.23.15-.15l-4.63-7.35M208.6 71.03q-1.09-.52-1.84-1.43-.35-.43-.62.05-.3.54-.3 1.54M249.6 60.22c1.43 2.69 3.78 4.1 5.99 6.02M217.8 61.38q-.52.37-.95.52-1.32.45-.08 1.09l3.66 1.89M219.78 65.3q-2.43-.51-4.06-2.18a.53.52 53.7 0 0-.63-.1l-.33.17q-.45.24-.09.61 1.04 1.07 2.53 1.38.51.11.68.6.1.3.08.68M217.61 66.75q.06-.35-.14-.42-2.48-.97-3.84-1.52-3.5-1.39-.95 1.37.73.79 2.81 2.29" vector-effect="non-scaling-stroke"/><path d="M215.78 68.8q.35.47.33.88a.52.52 0 0 1-.9.33l-4.25-4.53q-.29-.32-.68-.12-3.13 1.62-5.52 3.9-.39.37-.13.84.36.66.2 1.06M203.56 70.89q-.87-1.25-1.85.03M200.92 70.87q-.53-.88-1.04-1-4.98-1.11-3.46-5.92" vector-effect="non-scaling-stroke"/><path d="m197.52 63.29-.63 3.04q-.13.61.42.92l3.44 1.99q1.03.59 1.84-.28.1-.12.17-.25.53-1-.48-1.51-2.31-1.14-4.16-2.92-.09-.09-.1-.21-.01-.06.05-.1.28-.17.57 0l2.98 1.77q.6.36.59-.34-.02-1.5-.92-3.01M201.96 62.3q.29.32.79-.18M280.27 76.28l-5.12-1.13q-.5-.11-.94.17-.45.29-1 .29-.93-.01-.45.79l2.15 3.59M274.2 80.64l-2.63-4.15q-.3-.47-.86-.47l-2.99-.03q-.76-.01-.72-.77l.06-1.26q.05-1.12-.63-.23-.7.93-.39 2.18a.39.39 0 0 1-.47.47q-2.3-.6-4.4-.35-.7.08-.29.66 1.62 2.31 3.05 4.57 1.03 1.63 3.19 1.54.77-.03.41-.72-.41-.79-.42-1.6-.05-2.95.89-.15.33.95.54 1.88a.99.99 0 0 0 .74.74l2.01.46M272.97 84.23l-6.85-.55q-.48-.04-.6.42l-.22.83M265.19 84.71q-3.48-2.9-9.14-.65" vector-effect="non-scaling-stroke"/><path d="M254.97 82.68q1.24-.76 1.19-2.42-.01-.39.34-.53.17-.06.34-.01.28.09.39.36.28.7.53 1.41.21.62.87.66l4.21.22q.67.04.3-.52l-3.76-5.59a.69.68 55.1 0 0-.97-.18q-1.23.88-1.61 2.23-.22.76-.75.18-.76-.81-1.16-1.79a.51.51 0 0 0-.83-.17q-.3.3-.71.28-1.01-.04-.18-.6 1.82-1.22 2.64-3.37M261.24 70.76q2.45 1.73 5.47 1.75.49.01.45-.48l-.27-2.97M193.45 72.78q-.07-.91.36-1.85.22-.49-.24-.21-1.09.7-1.18 2.42M188.72 73.83q-1.29.93-2.4-1.25M190.38 68.18q1.14.47 1.8.33.52-.11.15-.49l-.74-.75M211.72 61.12q-.5-.01-.54.1a.5.49-.9 0 0 .64.62q.58-.22.58-.54" vector-effect="non-scaling-stroke"/><path d="M215.8 61.2q.19.76-.54.73-3.07-.09-4.82 1.69c-1.29 1.32-2.24 1.86-3.66 2.66-.43.24-.79.19-1.24.06q-.64-.17-.52.49.04.18-.07.33-.39.52-.77-.02-.91-1.29-1.04-2.59-.07-.63.35-1.11.8-.9.08-1.57" vector-effect="non-scaling-stroke"/><path d="M205.43 61.5q2.55 3.17 4.83 1.23.45-.39.08-.85l-.47-.6M276.95 85.24q-.12.63.02 1.23M262.33 70.24q1.48 1.1 3.09 1.35.53.08.57-.46l.16-1.83M274.02 67.92l1.34 3.58q.48 1.28.62-.08l.38-3.72M277.17 67.85l-.19 5.44a.95.95 0 0 0 1 .99l3.05-.15a.53.53 0 0 0 .42-.82l-3.53-5.44M279.03 67.81l4.48 6.75" vector-effect="non-scaling-stroke"/><path d="M280.81 75.98q-.14-.95-1.44-1.07-1.9-.18-3.68-.92-.46-.19-.64-.66l-2.08-5.36M258.75 84.91q.26-.45-.5-.39-.4.03-.4.34M207.99 61.33q-.03.35.43.48a.82.81-60.1 0 0 .84-.23q.09-.09-.01-.28M277.73 85.83q-.14.47.05 1.04M284 68.36l1.21 4.45q.07.24.3.19l.39-.06a.28.27-9.1 0 0 .22-.3q-.24-2.23-1.17-4.08M280.69 86.49l5.63 2.63a1.27 1.24-83.3 0 1 .71.92l.55 2.99q.14.76-.62.82l-3.99.37M287.48 86.15l.44 2.07q.1.5.56.74l6.12 3.29a1.25 1.24 48.9 0 0 1.01.07l7.79-2.79q.16-.06.16-.24v-.32M305.24 89.68l-8.69 3.34a.34.34 0 0 0-.05.61q4.08 2.46 7.71 5.67.8.71.57 1.36" vector-effect="non-scaling-stroke"/><path d="m304.2 100.68-9.03-6.76q-.44-.33-.97-.23l-2.12.38q-1 .18-.3-.56.33-.36.77-.57.74-.35.01-.73l-3.7-1.9q-.84-.44-.68.49l.39 2.2q.12.67.8.56.6-.09 1.16.1.95.33.02.7-.51.2-1.04.23-.56.02-.46.57.56 3.14 1.64 6.21.02.06-.04.08l-.25.11a.4.39 64.5 0 1-.5-.18q-1.4-2.76-1.76-5.89-.06-.51-.57-.51l-4.95.07M282.94 86.39q1.5 1.04 3.25 1.45.55.13.64-.43.07-.46-.39-1.16M310.01 92.23l8.02 7.71M292.05 105.79l-1.11-2.12q-.26-.51-.27.07 0 1.2.49 2.41M290.52 106.59q-2.08-1.54-4.43-1.48M282.52 99.27q.43-.3-.03-.88a.44.43 58.6 0 0-.51-.13q-.27.11-.18.52M291.01 107.28q2.28.92 1.08 1.34M319.24 121.26l-4.53-2.45q-.21-.11-.39.03l-.45.33q-.26.18.01.35 3.14 1.96 6.13 3.74 1.55.93 2.53 3.41.85 2.13 1.52 4.18M315.19 131.22q-.91-.94-2.26-.72-.49.08-.06.32l.98.55M307.05 133.06q.02-.77-.22-.92a.66.66 0 0 0-1 .37q-.09.3.28.7" vector-effect="non-scaling-stroke"/><path d="M304.95 133.75q.07-.89-.4-1.15-.32-.19-.44-.54-.41-1.2-.95-2.29-.08-.16.04-.29t.37.04q.23.15.3.43.26 1.03 1.39.96a.29.29 0 0 0 .21-.46l-2.77-3.68q-.48-.64.3-.79c1.96-.39 4.96 1.86 6.86 2.48q.83.27.24-.37-.9-.99-2.19-1.46-.84-.3-.06-.75l.78-.44q.69-.4-.1-.47l-7.23-.71M301.31 113.67q.79.45 1.2.19.48-.31-.01-.58l-1.23-.68M303.5 134.25q-.54-.11-.83-.33-.54-.41-.01-.82.13-.11.23-.23a1.01 1-39.9 0 0 .1-1.03l-1.46-2.95q-.09-.2-.31-.23-.13-.02-.25.03M301.11 127.71l.01-1.74M324.22 127.12q.32 1.99.85 3.74.05.17.01.28-.07.17-.29.17M301.62 134.98q.09-.28.02-.51-.06-.22-.35-.33-.72-.27-1.49-.13M300.18 132.04q.2.34.59-.11a.38.37-34.8 0 0 .07-.38q-.13-.34-.47-.27M301.24 135.18l-1.45-.43M307.21 146.09l.24 8.6q.01.55-.53.62l-4.85.66M308.4 146.7l.23 7.91q.01.49.51.47l10.12-.41M319.83 155.25q-.35.44-.65.44-5.21 0-10.36.53-.27.03-.31.3l-.57 4.46a.25.25 0 0 0 .31.28l8.58-2.23q.27-.07.34.19l.12.39q.06.21-.14.27l-8.85 2.45q-.54.15-.72.68-.28.82-.23 1.72.03.62-.59.68l-5.56.5" vector-effect="non-scaling-stroke"/><path d="m301.54 165.08 3.4.02a1.31 1.31 0 0 0 1.26-.9l.31-.94q.29-.89-.59-.57-2.31.83-4.29.44M301.73 162.4l4.88-.89q.28-.05.32-.34l.57-4.61q.03-.28-.24-.24l-5.19.65M321.52 157.5l-3.15 1.21q-.27.1-.25.4.02.2.17.27.21.1.44.05 1.64-.35 3.29-1.21M326.74 167.4l-8.95-1.88q-.26-.06-.3.21l-.05.34q-.02.17.15.21l7.7 1.49a.79.78-70.5 0 1 .54 1.14l-1.14 2.15M312.87 167.84q.13-.24.1-.42t-.29-.24q-.84-.2-1.39.51M303.32 173.25c-1.43 1.89-1.24 4.02-3.28 5.29M300.91 169.92q.43.14.64-.01t.09-.38q-.12-.25-.57-.04M326.9 170.28q-.43.85-1.19 1.4M303.77 173.72q-.13 1.34-1.14 2.24a1.76 1.75-14.1 0 0-.53.88q-.3 1.16-.93 2.15-2.08 3.22 1.67 2.42 3.41-.73 6.54-2.32M310.01 180.11l-6.42 2.29q-.75.27-.07.69 1.19.74 2.45 1.57c1.87 1.23 4.61.54 6.81.26M312.98 185.97l-3.52.39q-.74.09-.07.42l4.54 2.26M314.05 190.22q-.32.16-.7.06-.58-.15-.97.3l-3.06 3.53q-.51.58.25.7 2.88.45 5.13-.78M314.7 196.04c-2.15.03-2.2 2.42-4.08 3.11M310.09 198.92l1.7-2.16q.58-.74-.35-.63l-2.24.25q-.47.06-.57.51l-.27 1.21M307.99 197.86q-.71-1.1-2.21-.81M301.89 196q1.9-.95 3.67-.92.94.01.67-.89-.93-3.17-2.72-5.96-.54-.85-1.52-.65l-3.3.67M298.86 187.05l2.76-.41q.54-.08.37-.6-.69-2.13-2.79-3.03M298.6 198.25q-.54-.45-1.1-.4-.36.03-.4.58M298.01 199.51q-.41.2-.76-.01M298.82 202.62l.51 4.86q.05.4.42.25l1.02-.41a.47.46 72 0 0 .28-.56q-.12-.41-.05-1M303.56 211.98l-2.03.62a.57.57 0 0 1-.74-.56l.04-2.79q.01-.66-.57-.35l-6.04 3.15M303.96 213.24l-2.73.53q-.57.11-.54.68.13 2.1-.69 4.31-.02.05-.08.04l-.38-.06q-.19-.03-.17-.22l.43-3.83q.07-.68-.6-.61l-1.32.12q-.65.06-.88.68l-1.99 5.3" vector-effect="non-scaling-stroke"/><path d="m294.19 219.77 1.69-4.79q.28-.79-.48-.44-.76.34-1.37-.08-.68-.46.14-.55 2.08-.2 3.02-1.72.33-.55.79-.11.13.12.1.3-.11.64.54.66t1.16-.27q.26-.15.14-2.53-.01-.26-.27-.23-.37.04-.5.39l-.23.66q-.2.55-.78.54-1.79-.02-4.28 1.79M292.47 228.28q-1.55 2.26-.58 4.38.19.42.31-.02l.87-3.14M294.88 233.56l-5.93 5.97M289.9 236.45q1.14.38 1.64-.73.3-.65-.33-.31l-1.23.67M304.9 218.33q-4.3.48-7.09 3.41M294.98 235.46q-1.77.42-2.24 1.28-1.65 2.98-4.52 4.68M304.74 218.62q-3.36 1.42-5.86 4.1M295.43 245.41q-1.91-.36-2.5 1.26M291.06 243.1q.7-1 .45-2.19-.12-.57-.5-.12-.43.5-.72 1.3M288.21 245.78q-.27-.36-.54-.47-.83-.32-.44.51.2.41.99.45M288.43 246.8q-.13 1.24-1.81 1.13M289.28 248q-1.19 1-2.92.91M295.12 246.13q-1.1.84-2.04.75M290.67 251.7l-2.39 1.71M290.88 252.97l-1.89 1.03M236.72 60.95q-.34.22-.12.55l1.47 2.24a.75.74 71.1 0 0 .67.33l.78-.06a.35.34 61.6 0 0 .18-.62q-1.32-1.05-2.18-2.47a.38.38 0 0 0-.54-.13l-.26.16M233.64 64.84q.48-.29-.1-.4-.37-.06-.21.27.11.25.31.13M230.34 67.89q.26-.16.08-.38a.02.02 0 0 0-.04 0l-.14.28q-.1.22.1.1M233.19 67.52a.49.49 0 0 0-.87-.07l-1 1.63a.49.49 0 0 0 .1.63l2.63 2.28a.49.49 0 0 0 .78-.56l-1.64-3.91M204.49 63.87q-.5-.55-.58.19-.1.95.53 1.57.46.45.54-.19.11-.91-.49-1.57M194.17 67.99a.51.51 0 0 0 .33.85q.52.05.82-.35a.49.49 0 0 0-.35-.78q-.49-.05-.8.28M273.1 74.41q.52-.11.04-.31-.87-.36-1.75-.25-.74.1-.05.38.88.35 1.76.18M234.18 74.59q.3.09.48-.15a.18.17-58.7 0 0-.06-.27q-.3-.14-.52.11-.2.23.1.31M305.37 114.64q.53.3.2-.21-.21-.33-.54-.5-.92-.49-.21.27.24.26.55.44M312.503 118.094a2.55.53 24.9 0 0-2.09-1.555 2.55.53 24.9 0 0-2.536-.593 2.55.53 24.9 0 0 2.09 1.555 2.55.53 24.9 0 0 2.536.593M310.34 124.89q-.18-.11-.4-.09-.88.05-.07.38.25.1.47-.04.2-.13 0-.25M320.776 125.841a3.5.53 5.1 0 0-3.439-.839 3.5.53 5.1 0 0-3.533.217 3.5.53 5.1 0 0 3.439.839 3.5.53 5.1 0 0 3.533-.217M312.85 125.33q-.04-.36-.38-.24-.25.09-.2.34.06.37.39.22.21-.1.19-.32M311.14 128.71q.2.2.47.11-.18-.3-.47-.11M302.74 128.92q.28-.15.07-.38-.14-.15-.35-.15-.29.02-.21.3.13.42.49.23M317.45 164.42q2.66-.97 3.84-3.04.51-.89-.36-.34-1.85 1.19-3.73 2.98-.82.79.25.4M308.18 165.34q.79.05 1.42-.38.4-.27-.08-.34-.76-.11-1.44.34-.51.34.1.38M302.18 183.34q-1.04-.69-.36.36l1.28 1.98q.29.46.83.4l1.09-.12q.99-.1.16-.65l-3-1.97M308.22 187.03q-.05-.16-.18-.26-.29-.22-.64-.16-1.37.25-2.72.34-.78.06-.43.75l3.11 6.26q.27.54.67.1l3.7-4.09q.46-.5-.14-.82l-2.92-1.56q-.34-.19-.45-.56" vector-effect="non-scaling-stroke"/></g><path fill="#fff" d="m248 60.13 6.5 6.62-6.46 3.01q-.28-.46-.52-.58-.79-.4-.37.59.1.25.37.44-.61.67-1.56 1.05-2.23-2.49-4.57-4.92-.11-.12-.02-.25.12-.17.28-.06l3.02 2.05q.24.17.52.05.14-.06.2-.23.07-.17-.06-.29-1.53-1.6-2.86-2.09-4.79-1.78-1.35 1.99 1.87 2.04 3.79 4.05.15.16-.06.41-.14.1-.21.21a.39.39 0 0 0 .12.53c1.92 1.22 3.16 3.44 5.64 3.57q-.08.49-.67.75l-6.51-3.09q-.05-1.26-.75-1.74-.52-.35-.48.28l.07 1.05-2.51.5-3.73-7.46a1.04 1.03-9.7 0 0-.83-.58q-.97-.11-.8.52 1.04 4.06 2.97 7.7-.26.81-1.69.31l-.41-.58q-.41-.59-.81.01-.22.35-.58.11c-1.03-.68-2.11-2.41-3.23-3.3q-.43-.35-.83.04-.27.26-.4.61-.3.8.35 1.35l2.56 2.17-2.12-.04q-.61-1.62-2.14-1.77-.5-.05-.78-.47-1.08-1.65-3.12-2.49-.5-.2-.93.13l-.67.51q-.94.26-1.59-.15l1.24-.78q.49-.31.12-.75-.25-.32-.78-.57.3-.37.6-.55 3.01.73 5.05 2.98a.9.89-54.1 0 0 1.48-.24l.54-1.23q.74-1.67-.94-.94-1.4.61-2.62.17-.47-.17-.68-.62-.52-1.1-1.55-1.41.15-.54.77-.57 1.25.55 1.93 1.18.69.64 1.5.17l.36-.21q.68-.39.27-1.06l-1.17-1.93.62-.45 1.69 2.41q.36.52.97.31l1.85-.61q.56-.19.27-.71l-1.63-2.84 3.2-1.04q2.87 2.03 4.45 5.34.43.89 1.81 1.73.39.23.15-.15l-4.63-7.35q6.44-1.38 12.36-.8m-11.28.82q-.34.22-.12.55l1.47 2.24a.75.74 71.1 0 0 .67.33l.78-.06a.35.34 61.6 0 0 .18-.62q-1.32-1.05-2.18-2.47a.38.38 0 0 0-.54-.13zm-3.08 3.89q.48-.29-.1-.4-.37-.06-.21.27.11.25.31.13m-3.3 3.05q.26-.16.08-.38a.02.02 0 0 0-.04 0l-.14.28q-.1.22.1.1m2.85-.37a.49.49 0 0 0-.87-.07l-1 1.63a.49.49 0 0 0 .1.63l2.63 2.28a.49.49 0 0 0 .78-.56z"/><path d="M249.6 60.22c1.43 2.69 3.78 4.1 5.99 6.02q-.52.6-1.09.51l-6.5-6.62q1.03-.23 1.6.09"/><path fill="#fff" d="M249.6 60.22q6.53.19 12.42 2.53.68.27 1.02.69a.74.74 0 0 1-.41 1.19l-7.04 1.61c-2.21-1.92-4.56-3.33-5.99-6.02"/><path d="M237.52 60.92q.86 1.42 2.18 2.47a.35.34 61.6 0 1-.18.62l-.78.06a.75.74 71.1 0 1-.67-.33l-1.47-2.24q-.22-.33.12-.55l.26-.16a.38.38 0 0 1 .54.13M211.72 61.12q-.5-.01-.54.1a.5.49-.9 0 0 .64.62q.58-.22.58-.54l3.4-.1q.19.76-.54.73-3.07-.09-4.82 1.69c-1.29 1.32-2.24 1.86-3.66 2.66-.43.24-.79.19-1.24.06q-.64-.17-.52.49.04.18-.07.33-.39.52-.77-.02-.91-1.29-1.04-2.59-.07-.63.35-1.11.8-.9.08-1.57l1.86-.37q2.55 3.17 4.83 1.23.45-.39.08-.85l-.47-.6q.75-.36 1.85-.16m-7.23 2.75q-.5-.55-.58.19-.1.95.53 1.57.46.45.54-.19.11-.91-.49-1.57M235.64 60.93l4.63 7.35q.24.38-.15.15-1.38-.84-1.81-1.73-1.58-3.31-4.45-5.34z"/><path fill="#fff" d="M207.99 61.33q-.03.35.43.48a.82.81-60.1 0 0 .84-.23q.09-.09-.01-.28l.62-.02.47.6q.37.46-.08.85-2.28 1.94-4.83-1.23 1.23-.5 2.56-.17"/><path d="M209.25 61.3q.1.19.01.28a.82.81-60.1 0 1-.84.23q-.46-.13-.43-.48.65-.35 1.26-.03"/><path fill="#fff" d="M211.72 61.12q.32 0 .68.18 0 .32-.58.54a.5.49-.9 0 1-.64-.62q.04-.11.54-.1"/><path fill="#fff" d="M217.8 61.38q-.52.37-.95.52-1.32.45-.08 1.09l3.66 1.89-.65.42q-2.43-.51-4.06-2.18a.53.52 53.7 0 0-.63-.1l-.33.17q-.45.24-.09.61 1.04 1.07 2.53 1.38.51.11.68.6.1.3.08.68l-.35.29q.06-.35-.14-.42-2.48-.97-3.84-1.52-3.5-1.39-.95 1.37.73.79 2.81 2.29.2.14.29.33.35.47.33.88a.52.52 0 0 1-.9.33l-4.25-4.53q-.29-.32-.68-.12-3.13 1.62-5.52 3.9-.39.37-.13.84.36.66.2 1.06-.74-.02-1.27-.27-.87-1.25-1.85.03l-.79-.05q-.53-.88-1.04-1-4.98-1.11-3.46-5.92.43-.6 1.1-.66l-.63 3.04q-.13.61.42.92l3.44 1.99q1.03.59 1.84-.28.1-.12.17-.25.53-1-.48-1.51-2.31-1.14-4.16-2.92-.09-.09-.1-.21-.01-.06.05-.1.28-.17.57 0l2.98 1.77q.6.36.59-.34-.02-1.5-.92-3.01.3.04.67-.09.29.32.79-.18l.82-.25q.72.67-.08 1.57-.42.48-.35 1.11.13 1.3 1.04 2.59.38.54.77.02.11-.15.07-.33-.12-.66.52-.49c.45.13.81.18 1.24-.06 1.42-.8 2.37-1.34 3.66-2.66q1.75-1.78 4.82-1.69.73.03.54-.73 1.14-.16 2 .18"/><path d="m220.43 64.88-3.66-1.89q-1.24-.64.08-1.09.43-.15.95-.52l7.37.56q.6.05.14.44-2.18 1.84-4.88 2.5M202.75 62.12q-.5.5-.79.18.31-.28.79-.18M201.29 62.39q.9 1.51.92 3.01.01.7-.59.34l-2.98-1.77q-.29-.17-.57 0-.06.04-.05.1.01.12.1.21 1.85 1.78 4.16 2.92 1.01.51.48 1.51-.07.13-.17.25-.81.87-1.84.28l-3.44-1.99q-.55-.31-.42-.92l.63-3.04zM230.66 62.4l1.63 2.84q.29.52-.27.71l-1.85.61q-.61.21-.97-.31l-1.69-2.41zM219.78 65.3l-1.82 1.16q.02-.38-.08-.68-.17-.49-.68-.6-1.49-.31-2.53-1.38-.36-.37.09-.61l.33-.17a.53.52 53.7 0 1 .63.1q1.63 1.67 4.06 2.18"/><path fill="#fff" d="M204.49 63.87q.6.66.49 1.57-.08.64-.54.19-.63-.62-.53-1.57.08-.74.58-.19"/><path d="M196.42 63.95q-1.52 4.81 3.46 5.92.51.12 1.04 1-3.7.07-7.47 1.91-.07-.91.36-1.85.22-.49-.24-.21-1.09.7-1.18 2.42l-3.67.69q-1.29.93-2.4-1.25l4.06-4.4q1.14.47 1.8.33.52-.11.15-.49l-.74-.75q1.89-2.44 4.83-3.32m-2.25 4.04a.51.51 0 0 0 .33.85q.52.05.82-.35a.49.49 0 0 0-.35-.78q-.49-.05-.8.28M226.89 64.29l1.17 1.93q.41.67-.27 1.06l-.36.21q-.81.47-1.5-.17-.68-.63-1.93-1.18 1.31-1.18 2.89-1.85M233.64 64.84q-.2.12-.31-.13-.16-.33.21-.27.58.11.1.4M217.61 66.75q-1.49.6-2.12 1.72-2.08-1.5-2.81-2.29-2.55-2.76.95-1.37 1.36.55 3.84 1.52.2.07.14.42M245.96 71.26q-.46.77-1.11.71.21-.25.06-.41-1.92-2.01-3.79-4.05-3.44-3.77 1.35-1.99 1.33.49 2.86 2.09.13.12.06.29-.06.17-.2.23-.28.12-.52-.05l-3.02-2.05q-.16-.11-.28.06-.09.13.02.25 2.34 2.43 4.57 4.92"/><path d="m215.78 68.8 4.34.32q.51.03.9-.3l.33-.27q.53.25.78.57.37.44-.12.75l-1.24.78c-1.54.73-2.52-.37-4.01.14a1.59 1.58 43.6 0 1-1.01.02q-3.54-1.08-7.15.22-1.09-.52-1.84-1.43-.35-.43-.62.05-.3.54-.3 1.54l-1.01-.03q.16-.4-.2-1.06-.26-.47.13-.84 2.39-2.28 5.52-3.9.39-.2.68.12l4.25 4.53a.52.52 0 0 0 .9-.33q.02-.41-.33-.88M239.55 74.03l-2.39.18q-1.93-3.64-2.97-7.7-.17-.63.8-.52a1.04 1.03-9.7 0 1 .83.58zM223.23 66.71q1.03.31 1.55 1.41.21.45.68.62 1.22.44 2.62-.17 1.68-.73.94.94l-.54 1.23a.9.89-54.1 0 1-1.48.24q-2.04-2.25-5.05-2.98.37-.87 1.28-1.29"/><path fill="#fff" d="m190.38 68.18 1.21-.91.74.75q.37.38-.15.49-.66.14-1.8-.33"/><path d="m230.24 67.79.14-.28a.02.02 0 0 1 .04 0q.18.22-.08.38-.2.12-.1-.1M233.19 67.52l1.64 3.91a.49.49 0 0 1-.78.56l-2.63-2.28a.49.49 0 0 1-.1-.63l1-1.63a.49.49 0 0 1 .87.07"/><path fill="#fff" d="M194.17 67.99q.31-.33.8-.28a.49.49 0 0 1 .35.78q-.3.4-.82.35a.51.51 0 0 1-.33-.85"/><path d="m274.02 67.92 1.34 3.58q.48 1.28.62-.08l.38-3.72.81.15-.19 5.44a.95.95 0 0 0 1 .99l3.05-.15a.53.53 0 0 0 .42-.82l-3.53-5.44 1.11-.06 4.48 6.75q-.9 1-2.7 1.42-.14-.95-1.44-1.07-1.9-.18-3.68-.92-.46-.19-.64-.66l-2.08-5.36q.63-.33 1.05-.05"/><path fill="#fff" d="m276.36 67.7-.38 3.72q-.14 1.36-.62.08l-1.34-3.58zM277.92 67.87l3.53 5.44a.53.53 0 0 1-.42.82l-3.05.15a.95.95 0 0 1-1-.99l.19-5.44q.58-.06.75.02M284 68.36l1.21 4.45q.07.24.3.19l.39-.06a.28.27-9.1 0 0 .22-.3q-.24-2.23-1.17-4.08 3.51.4 6.19 1.5 2.28.94-.12 1.51-3.27.78-7.51 2.99l-4.48-6.75z"/><path fill="#fff" d="m272.97 67.97 2.08 5.36q.18.47.64.66 1.78.74 3.68.92 1.3.12 1.44 1.07l-.54.3-5.12-1.13q-.5-.11-.94.17-.45.29-1 .29-.93-.01-.45.79l2.15 3.59-.71.65-2.63-4.15q-.3-.47-.86-.47l-2.99-.03q-.76-.01-.72-.77l.06-1.26q.05-1.12-.63-.23-.7.93-.39 2.18a.39.39 0 0 1-.47.47q-2.3-.6-4.4-.35-.7.08-.29.66 1.62 2.31 3.05 4.57 1.03 1.63 3.19 1.54.77-.03.41-.72-.41-.79-.42-1.6-.05-2.95.89-.15.33.95.54 1.88a.99.99 0 0 0 .74.74l2.01.46 1.68.82-6.85-.55q-.48-.04-.6.42l-.22.83q-.05-.11-.11-.22-3.48-2.9-9.14-.65-.34-.76-1.08-1.38 1.24-.76 1.19-2.42-.01-.39.34-.53.17-.06.34-.01.28.09.39.36.28.7.53 1.41.21.62.87.66l4.21.22q.67.04.3-.52l-3.76-5.59a.69.68 55.1 0 0-.97-.18q-1.23.88-1.61 2.23-.22.76-.75.18-.76-.81-1.16-1.79a.51.51 0 0 0-.83-.17q-.3.3-.71.28-1.01-.04-.18-.6 1.82-1.22 2.64-3.37 2.16-1.38 5.43-2.08 2.45 1.73 5.47 1.75.49.01.45-.48l-.27-2.97zm.13 6.44q.52-.11.04-.31-.87-.36-1.75-.25-.74.1-.05.38.88.35 1.76.18"/><path d="M284.95 68.56q.93 1.85 1.17 4.08a.28.27-9.1 0 1-.22.3l-.39.06q-.23.05-.3-.19L284 68.36q.43-.28.95.2M248.04 69.76q-.07.42-.52.45-.27-.19-.37-.44-.42-.99.37-.59.24.12.52.58M266.89 69.06l.27 2.97q.04.49-.45.48-3.02-.02-5.47-1.75.47-.82 1.09-.52 1.48 1.1 3.09 1.35.53.08.57-.46l.16-1.83q.42-.27.74-.24"/><path fill="#fff" d="M208.6 71.03q-1.5.35-2.76.16 0-1 .3-1.54.27-.48.62-.05.75.91 1.84 1.43M266.15 69.3l-.16 1.83q-.04.54-.57.46-1.61-.25-3.09-1.35z"/><path d="m230 74.89-7.64-4.09.67-.51q.43-.33.93-.13 2.04.84 3.12 2.49.28.42.78.47 1.53.15 2.14 1.77M203.56 70.89q-.93.17-1.85.03.98-1.28 1.85-.03"/><path fill="#fff" d="m193.45 72.78-1.06.36q.09-1.72 1.18-2.42.46-.28.24.21-.43.94-.36 1.85"/><path d="m235.47 74.52-3.35.41-2.56-2.17q-.65-.55-.35-1.35.13-.35.4-.61.4-.39.83-.04c1.12.89 2.2 2.62 3.23 3.3q.36.24.58-.11.4-.6.81-.01zm-1.29.07q.3.09.48-.15a.18.17-58.7 0 0-.06-.27q-.3-.14-.52.11-.2.23.1.31M243.22 73.94q-.82.02-1.16-.41l-.07-1.05q-.04-.63.48-.28.7.48.75 1.74"/><path fill="#fff" d="M186.32 72.58q1.11 2.18 2.4 1.25-.74 1.05-1.76 1.1-.89.05-1.26-.62-.42-.76.62-1.73"/><path d="M255.81 72.84q-.82 2.15-2.64 3.37-.83.56.18.6.41.02.71-.28a.51.51 0 0 1 .83.17q.4.98 1.16 1.79.53.58.75-.18.38-1.35 1.61-2.23a.69.68 55.1 0 1 .97.18l3.76 5.59q.37.56-.3.52l-4.21-.22q-.66-.04-.87-.66-.25-.71-.53-1.41-.11-.27-.39-.36-.17-.05-.34.01-.35.14-.34.53.05 1.66-1.19 2.42c-1.66-1.54-4.47-3.52-5.24-5.65q.59-.26.67-.75 2.21-2.1 5.41-3.44M274.2 80.64q-2.08 1.07-2.91 2.77l-2.01-.46a.99.99 0 0 1-.74-.74q-.21-.93-.54-1.88-.94-2.8-.89.15.01.81.42 1.6.36.69-.41.72-2.16.09-3.19-1.54-1.43-2.26-3.05-4.57-.41-.58.29-.66 2.1-.25 4.4.35a.39.39 0 0 0 .47-.47q-.31-1.25.39-2.18.68-.89.63.23l-.06 1.26q-.04.76.72.77l2.99.03q.56 0 .86.47zM273.1 74.41q-.88.17-1.76-.18-.69-.28.05-.38.88-.11 1.75.25.48.2-.04.31"/><path fill="#fff" d="M234.08 74.28q.22-.25.52-.11a.18.17-58.7 0 1 .06.27q-.18.24-.48.15-.3-.08-.1-.31"/><path d="m280.27 76.28-5.36 3.71-2.15-3.59q-.48-.8.45-.79.55 0 1-.29.44-.28.94-.17zM265.19 84.71l-6.44.2q.26-.45-.5-.39-.4.03-.4.34-1.31.36-1.8-.8 5.66-2.25 9.14.65M272.97 84.23l3.98 1.01q-.12.63.02 1.23-5.69-2.32-11.67-1.54l.22-.83q.12-.46.6-.42z"/><path fill="#fff" d="M258.75 84.91q-.47.22-.9-.05 0-.31.4-.34.76-.06.5.39M277.73 85.83q-.14.47.05 1.04l-.81-.4q-.14-.6-.02-1.23.7-.17.78.59"/><path d="m280.69 86.49 5.63 2.63a1.27 1.24-83.3 0 1 .71.92l.55 2.99q.14.76-.62.82l-3.99.37q.81-7.25-5.19-7.35-.19-.57-.05-1.04 1.27.65 2.96.66"/><path fill="#fff" d="m287.48 86.15.44 2.07q.1.5.56.74l6.12 3.29a1.25 1.24 48.9 0 0 1.01.07l7.79-2.79q.16-.06.16-.24v-.32q1.16.08 1.68.71l-8.69 3.34a.34.34 0 0 0-.05.61q4.08 2.46 7.71 5.67.8.71.57 1.36-.27.07-.58.02l-9.03-6.76q-.44-.33-.97-.23l-2.12.38q-1 .18-.3-.56.33-.36.77-.57.74-.35.01-.73l-3.7-1.9q-.84-.44-.68.49l.39 2.2q.12.67.8.56.6-.09 1.16.1.95.33.02.7-.51.2-1.04.23-.56.02-.46.57.56 3.14 1.64 6.21.02.06-.04.08l-.25.11a.4.39 64.5 0 1-.5-.18q-1.4-2.76-1.76-5.89-.06-.51-.57-.51l-4.95.07.35-.83 3.99-.37q.76-.06.62-.82l-.55-2.99a1.27 1.24-83.3 0 0-.71-.92l-5.63-2.63q1.15-.38 2.25-.1 1.5 1.04 3.25 1.45.55.13.64-.43.07-.46-.39-1.16.5-.14 1.04-.1"/><path d="M303.56 88.97v.32q0 .18-.16.24l-7.79 2.79a1.25 1.24 48.9 0 1-1.01-.07l-6.12-3.29q-.46-.24-.56-.74l-.44-2.07q8.28-.28 16.08 2.82M286.44 86.25q.46.7.39 1.16-.09.56-.64.43-1.75-.41-3.25-1.45zM305.24 89.68q2.71.91 4.77 2.55l8.02 7.71.29.46a.25.25 0 0 1-.28.37q-6.59-1.89-13.26-.11.23-.65-.57-1.36-3.63-3.21-7.71-5.67a.34.34 0 0 1 .05-.61zM304.2 100.68q-6.58 1.35-12.15 5.11l-1.11-2.12q-.26-.51-.27.07 0 1.2.49 2.41l-.64.44q-2.08-1.54-4.43-1.48-1.33-1.85-2.03-4.68-.19-.73-1.54-1.16.43-.3-.03-.88a.44.43 58.6 0 0-.51-.13q-.27.11-.18.52-.52-.01-.72-.38a.82.81 59.2 0 1 .27-1.08q1.23-.8 1.27-2.27l4.95-.07q.51 0 .57.51.36 3.13 1.76 5.89a.4.39 64.5 0 0 .5.18l.25-.11q.06-.02.04-.08-1.08-3.07-1.64-6.21-.1-.55.46-.57.53-.03 1.04-.23.93-.37-.02-.7-.56-.19-1.16-.1-.68.11-.8-.56l-.39-2.2q-.16-.93.68-.49l3.7 1.9q.73.38-.01.73-.44.21-.77.57-.7.74.3.56l2.12-.38q.53-.1.97.23z"/><path fill="#fff" d="m318.03 99.94-8.02-7.71q5.21 2.65 8.02 7.71M282.52 99.27q-.39-.08-.72-.49-.09-.41.18-.52a.44.43 58.6 0 1 .51.13q.46.58.03.88M292.05 105.79l-.89.36q-.49-1.21-.49-2.41.01-.58.27-.07zM290.52 106.59q.08.32.49.69 2.28.92 1.08 1.34l-6-3.51q2.35-.06 4.43 1.48"/><path d="m319.24 121.26-4.53-2.45q-.21-.11-.39.03l-.45.33q-.26.18.01.35 3.14 1.96 6.13 3.74 1.55.93 2.53 3.41.85 2.13 1.52 4.18l-8.87.37q-.91-.94-2.26-.72-.49.08-.06.32l.98.55-6.8 1.69q.02-.77-.22-.92a.66.66 0 0 0-1 .37q-.09.3.28.7-.45.39-1.16.54.07-.89-.4-1.15-.32-.19-.44-.54-.41-1.2-.95-2.29-.08-.16.04-.29t.37.04q.23.15.3.43.26 1.03 1.39.96a.29.29 0 0 0 .21-.46l-2.77-3.68q-.48-.64.3-.79c1.96-.39 4.96 1.86 6.86 2.48q.83.27.24-.37-.9-.99-2.19-1.46-.84-.3-.06-.75l.78-.44q.69-.4-.1-.47l-7.23-.71.01-10.59q.79.45 1.2.19.48-.31-.01-.58l-1.23-.68q-.34-1.78-2.16-2.45-2.48-.93-7.02-1.53 1.2-.42-1.08-1.34 2.72.71 5.46 1.26 3.5.71 5.42 1.41 10.03 3.68 17.35 11.31m-13.87-6.62q.53.3.2-.21-.21-.33-.54-.5-.92-.49-.21.27.24.26.55.44m7.133 3.454a2.55.53 24.9 0 0-2.09-1.555 2.55.53 24.9 0 0-2.536-.593 2.55.53 24.9 0 0 2.09 1.555 2.55.53 24.9 0 0 2.536.593m-2.163 6.796q-.18-.11-.4-.09-.88.05-.07.38.25.1.47-.04.2-.13 0-.25m10.436.951a3.5.53 5.1 0 0-3.439-.839 3.5.53 5.1 0 0-3.533.217 3.5.53 5.1 0 0 3.439.839 3.5.53 5.1 0 0 3.533-.217m-7.926-.511q-.04-.36-.38-.24-.25.09-.2.34.06.37.39.22.21-.1.19-.32m-1.71 3.38q.2.2.47.11-.18-.3-.47-.11"/><path fill="#fff" d="M301.31 113.67q-.32-.71-.04-1.07l1.23.68q.49.27.01.58-.41.26-1.2-.19M305.37 114.64q-.31-.18-.55-.44-.71-.76.21-.27.33.17.54.5.33.51-.2.21"/><ellipse fill="#fff" rx="2.55" ry=".53" transform="rotate(24.9 -109.92 760.999)"/><path fill="#fff" d="M319.24 121.26q3.64 2.61 4.98 5.86.32 1.99.85 3.74.05.17.01.28-.07.17-.29.17-.72-.16-.73-.46-.67-2.05-1.52-4.18-.98-2.48-2.53-3.41-2.99-1.78-6.13-3.74-.27-.17-.01-.35l.45-.33q.18-.14.39-.03zM304.95 133.75q-.65.4-1.45.5-.54-.11-.83-.33-.54-.41-.01-.82.13-.11.23-.23a1.01 1-39.9 0 0 .1-1.03l-1.46-2.95q-.09-.2-.31-.23-.13-.02-.25.03l.14-.98.01-1.74.18-1.71 7.23.71q.79.07.1.47l-.78.44q-.78.45.06.75 1.29.47 2.19 1.46.59.64-.24.37c-1.9-.62-4.9-2.87-6.86-2.48q-.78.15-.3.79l2.77 3.68a.29.29 0 0 1-.21.46q-1.13.07-1.39-.96-.07-.28-.3-.43-.25-.17-.37-.04t-.04.29q.54 1.09.95 2.29.12.35.44.54.47.26.4 1.15m-2.21-4.83q.28-.15.07-.38-.14-.15-.35-.15-.29.02-.21.3.13.42.49.23M310.34 124.89q.2.12 0 .25-.22.14-.47.04-.81-.33.07-.38.22-.02.4.09"/><ellipse fill="#fff" rx="3.5" ry=".53" transform="rotate(5.1 -1250.686 3624.995)"/><path fill="#fff" d="M312.85 125.33q.02.22-.19.32-.33.15-.39-.22-.05-.25.2-.34.34-.12.38.24"/><path d="m301.11 127.71.01-1.74zM324.79 131.31q.22 0 .29-.17.04-.11-.01-.28-.53-1.75-.85-3.74 1.68 1.9 2.3 4.07.15.53-.4.51-.61-.02-1.33-.39M302.74 128.92q-.36.19-.49-.23-.08-.28.21-.3.21 0 .35.15.21.23-.07.38"/><path fill="#fff" d="M311.14 128.71q.29-.19.47.11-.27.09-.47-.11"/><path d="M300.97 128.69q.12-.05.25-.03.22.03.31.23l1.46 2.95a1.01 1-39.9 0 1-.1 1.03q-.1.12-.23.23-.53.41.01.82.29.22.83.33-.88.59-1.88.73.09-.28.02-.51-.06-.22-.35-.33-.72-.27-1.49-.13-.05-.91.38-1.97.2.34.59-.11a.38.37-34.8 0 0 .07-.38q-.13-.34-.47-.27z"/><path fill="#fff" d="M315.19 131.22q-.6.38-1.34.15l-.98-.55q-.43-.24.06-.32 1.35-.22 2.26.72M300.18 132.04q-.04-.4.19-.76.34-.07.47.27a.38.37-34.8 0 1-.07.38q-.39.45-.59.11M307.05 133.06q-.49.16-.94.15-.37-.4-.28-.7a.66.66 0 0 1 1-.37q.24.15.22.92M301.62 134.98q-.16.17-.38.2l-1.45-.43q-.12-.34.01-.74.77-.14 1.49.13.29.11.35.33.07.23-.02.51"/><path d="M301.24 135.18q-.48.75-.49 1.59a1.24 1.23-63.8 0 0 .27.8q1.51 1.91 2.52 4.41c.33.82.12 1.49.37 2.24q.16.46.6.66l2.7 1.21.24 8.6q.01.55-.53.62l-4.85.66q.42-5.34.16-10.72-.03-.67.39-1.27.28-.39.2-.85-.49-3.12-2.68-4.96c-1.01-.84-1.11-2.37-.35-3.42z"/><path fill="#fff" d="m308.4 146.7.23 7.91q.01.49.51.47l10.12-.41.57.58q-.35.44-.65.44-5.21 0-10.36.53-.27.03-.31.3l-.57 4.46a.25.25 0 0 0 .31.28l8.58-2.23q.27-.07.34.19l.12.39q.06.21-.14.27l-8.85 2.45q-.54.15-.72.68-.28.82-.23 1.72.03.62-.59.68l-5.56.5.34-.83 3.4.02a1.31 1.31 0 0 0 1.26-.9l.31-.94q.29-.89-.59-.57-2.31.83-4.29.44l.1-.73 4.88-.89q.28-.05.32-.34l.57-4.61q.03-.28-.24-.24l-5.19.65v-1l4.85-.66q.54-.07.53-.62l-.24-8.6q.92.1 1.19.61"/><path d="m319.26 154.67-10.12.41q-.5.02-.51-.47l-.23-7.91q6.2 3.02 10.86 7.97M321.52 157.5l-3.15 1.21q-.27.1-.25.4.02.2.17.27.21.1.44.05 1.64-.35 3.29-1.21 3.14 3.89 4.72 9.18l-8.95-1.88q-.26-.06-.3.21l-.05.34q-.02.17.15.21l7.7 1.49a.79.78-70.5 0 1 .54 1.14l-1.14 2.15q-5.54-2.36-11.82-3.22.13-.24.1-.42t-.29-.24q-.84-.2-1.39.51l-8.5-.05q-.77 0-.82.76l-.28 3.83q-.04.62.56.77l1.07.25c-1.43 1.89-1.24 4.02-3.28 5.29l.87-8.62q.43.14.64-.01t.09-.38q-.12-.25-.57-.04l.13-3.58 5.56-.5q.62-.06.59-.68-.05-.9.23-1.72.18-.53.72-.68l8.85-2.45q.2-.06.14-.27l-.12-.39q-.07-.26-.34-.19l-8.58 2.23a.25.25 0 0 1-.31-.28l.57-4.46q.04-.27.31-.3 5.15-.53 10.36-.53.3 0 .65-.44zm-4.07 6.92q2.66-.97 3.84-3.04.51-.89-.36-.34-1.85 1.19-3.73 2.98-.82.79.25.4m-9.27.92q.79.05 1.42-.38.4-.27-.08-.34-.76-.11-1.44.34-.51.34.1.38"/><path d="m301.73 162.4.34-5.43 5.19-.65q.27-.04.24.24l-.57 4.61q-.04.29-.32.34z"/><path fill="#fff" d="M321.52 157.5q.34.13.5.72-1.65.86-3.29 1.21-.23.05-.44-.05-.15-.07-.17-.27-.02-.3.25-.4zM317.2 164.02q1.88-1.79 3.73-2.98.87-.55.36.34-1.18 2.07-3.84 3.04-1.07.39-.25-.4"/><path d="M301.63 163.13q1.98.39 4.29-.44.88-.32.59.57l-.31.94a1.31 1.31 0 0 1-1.26.9l-3.4-.02q-.12-1.45.09-1.95"/><path fill="#fff" d="M308.08 164.96q.68-.45 1.44-.34.48.07.08.34-.63.43-1.42.38-.61-.04-.1-.38M326.74 167.4l.16 2.88q-.43.85-1.19 1.4-.57-.18-1.02-.62l1.14-2.15a.79.78-70.5 0 0-.54-1.14l-7.7-1.49q-.17-.04-.15-.21l.05-.34q.04-.27.3-.21zM312.87 167.84q-1.03.3-1.58-.15.55-.71 1.39-.51.26.06.29.24t-.1.42M300.91 169.92q.12-.09.16-.43.45-.21.57.04.12.23-.09.38t-.64.01"/><path d="M326.9 170.28q.21.7-.04 1.09-.31.49-1.15.31.76-.55 1.19-1.4"/><path fill="#fff" d="M303.77 173.72q-.13 1.34-1.14 2.24a1.76 1.75-14.1 0 0-.53.88q-.3 1.16-.93 2.15-2.08 3.22 1.67 2.42 3.41-.73 6.54-2.32.44.28.63 1.02l-6.42 2.29q-.75.27-.07.69 1.19.74 2.45 1.57c1.87 1.23 4.61.54 6.81.26q.19.47.2 1.05l-3.52.39q-.74.09-.07.42l4.54 2.26.12 1.18q-.32.16-.7.06-.58-.15-.97.3l-3.06 3.53q-.51.58.25.7 2.88.45 5.13-.78.42.99 0 2.01c-2.15.03-2.2 2.42-4.08 3.11q-.26-.12-.53-.23l1.7-2.16q.58-.74-.35-.63l-2.24.25q-.47.06-.57.51l-.27 1.21q-.18-.12-.37-.24-.71-1.1-2.21-.81l-3.89-1.05q1.9-.95 3.67-.92.94.01.67-.89-.93-3.17-2.72-5.96-.54-.85-1.52-.65l-3.3.67.17-1.2 2.76-.41q.54-.08.37-.6-.69-2.13-2.79-3.03-.22-2.41.84-4.47c2.04-1.27 1.85-3.4 3.28-5.29q.19.34.45.47m-1.59 9.62q-1.04-.69-.36.36l1.28 1.98q.29.46.83.4l1.09-.12q.99-.1.16-.65zm6.04 3.69q-.05-.16-.18-.26-.29-.22-.64-.16-1.37.25-2.72.34-.78.06-.43.75l3.11 6.26q.27.54.67.1l3.7-4.09q.46-.5-.14-.82l-2.92-1.56q-.34-.19-.45-.56"/><path d="M309.38 179.09q-3.13 1.59-6.54 2.32-3.75.8-1.67-2.42.63-.99.93-2.15a1.76 1.75-14.1 0 1 .53-.88q1.01-.9 1.14-2.24 3.28 1.76 5.61 5.37M310.01 180.11l2.77 4.81c-2.2.28-4.94.97-6.81-.26q-1.26-.83-2.45-1.57-.68-.42.07-.69zM299.2 183.01q2.1.9 2.79 3.03.17.52-.37.6l-2.76.41zM302.18 183.34l3 1.97q.83.55-.16.65l-1.09.12q-.54.06-.83-.4l-1.28-1.98q-.68-1.05.36-.36M312.98 185.97q1.03 1.28.95 3.07l-4.54-2.26q-.67-.33.07-.42zM308.67 187.59l2.92 1.56q.6.32.14.82l-3.7 4.09q-.4.44-.67-.1l-3.11-6.26q-.35-.69.43-.75 1.35-.09 2.72-.34.35-.06.64.16.13.1.18.26.11.37.45.56M301.89 196l-2.41-.22q-.55-.05-.62.49l-.26 1.98q-.54-.45-1.1-.4-.36.03-.4.58l1.59-10.18 3.3-.67q.98-.2 1.52.65 1.79 2.79 2.72 5.96.27.9-.67.89-1.77-.03-3.67.92M314.05 190.22l.65 3.81q-2.25 1.23-5.13.78-.76-.12-.25-.7l3.06-3.53q.39-.45.97-.3.38.1.7-.06M310.09 198.92l-1.73-.82.27-1.21q.1-.45.57-.51l2.24-.25q.93-.11.35.63zM314.7 196.04l-.6 3.94a.69.68-71.4 0 1-1 .5l-2.48-1.33c1.88-.69 1.93-3.08 4.08-3.11M307.99 197.86q-1.42.21-2.21-.81 1.5-.29 2.21.81"/><path fill="#fff" d="m298.6 198.25-.59 1.26q-.41.2-.76-.01l-.15-1.07q.04-.55.4-.58.56-.05 1.1.4"/><path d="M297.25 199.5q.35.21.76.01-.53 2.1.81 3.11l.51 4.86q.05.4.42.25l1.02-.41a.47.46 72 0 0 .28-.56q-.12-.41-.05-1 2.04 2.59 2.56 6.22l-2.03.62a.57.57 0 0 1-.74-.56l.04-2.79q.01-.66-.57-.35l-6.04 3.15z"/><path fill="#fff" d="M301 205.76q-.07.59.05 1a.47.46 72 0 1-.28.56l-1.02.41q-.37.15-.42-.25l-.51-4.86zM303.56 211.98q.49.45.4 1.26l-2.73.53q-.57.11-.54.68.13 2.1-.69 4.31-.02.05-.08.04l-.38-.06q-.19-.03-.17-.22l.43-3.83q.07-.68-.6-.61l-1.32.12q-.65.06-.88.68l-1.99 5.3-.82-.41 1.69-4.79q.28-.79-.48-.44-.76.34-1.37-.08-.68-.46.14-.55 2.08-.2 3.02-1.72.33-.55.79-.11.13.12.1.3-.11.64.54.66t1.16-.27q.26-.15.14-2.53-.01-.26-.27-.23-.37.04-.5.39l-.23.66q-.2.55-.78.54-1.79-.02-4.28 1.79l.36-1.34 6.04-3.15q.58-.31.57.35l-.04 2.79a.57.57 0 0 0 .74.56z"/><path d="M294.19 219.77q-.61-.49-.76-.44a1.71 1.53 80.8 0 0-1.02 1.6q.07 3.08-.3 6.18-.04.32.08.62.12.29.28.55-1.55 2.26-.58 4.38.19.42.31-.02l.87-3.14 1.81 4.06-5.93 5.97q.18-1.84.95-3.08 1.14.38 1.64-.73.3-.65-.33-.31l-1.23.67q.6-3.27 1.17-6.43c.49-2.71-.17-5.75.58-8.65q.43-1.67 2.13-7.61 2.49-1.81 4.28-1.79.58.01.78-.54l.23-.66q.13-.35.5-.39.26-.03.27.23.12 2.38-.14 2.53-.51.29-1.16.27t-.54-.66q.03-.18-.1-.3-.46-.44-.79.11-.94 1.52-3.02 1.72-.82.09-.14.55.61.42 1.37.08.76-.35.48.44z"/><path d="M303.96 213.24q.97 2.94.94 5.09-4.3.48-7.09 3.41l-2.8-1.56 1.99-5.3q.23-.62.88-.68l1.32-.12q.67-.07.6.61l-.43 3.83q-.02.19.17.22l.38.06q.06.01.08-.04.82-2.21.69-4.31-.03-.57.54-.68z"/><path fill="#fff" d="M304.9 218.33q-.08.15-.16.29-3.36 1.42-5.86 4.1l-1.07-.98q2.79-2.93 7.09-3.41"/><path d="M304.74 218.62q.7 4.58-.48 8.59a.59.59 0 0 1-1.08.12q-1.76-3.14-4.3-4.61 2.5-2.68 5.86-4.1"/><path fill="#fff" d="m292.47 228.28.6 1.22-.87 3.14q-.12.44-.31.02-.97-2.12.58-4.38M294.88 233.56l.1 1.9q-1.77.42-2.24 1.28-1.65 2.98-4.52 4.68.01-1.08.73-1.89zM289.9 236.45q.04-.19.08-.37l1.23-.67q.63-.34.33.31-.5 1.11-1.64.73"/><path d="m294.98 235.46.45 9.95q-1.91-.36-2.5 1.26l-1.87-3.57q.7-1 .45-2.19-.12-.57-.5-.12-.43.5-.72 1.3-.51-.49-.84-.42-.28.05-.37.61-.29 1.8-.87 3.5-.27-.36-.54-.47-.83-.32-.44.51.2.41.99.45l.21.53q-.13 1.24-1.81 1.13l1.6-6.51q2.87-1.7 4.52-4.68.47-.86 2.24-1.28"/><path fill="#fff" d="m291.06 243.1-.77-1.01q.29-.8.72-1.3.38-.45.5.12.25 1.19-.45 2.19M288.21 245.78q.15.16.01.49-.79-.04-.99-.45-.39-.83.44-.51.27.11.54.47M295.43 245.41q-.07.56-.31.72-1.1.84-2.04.75-.08-.1-.15-.21.59-1.62 2.5-1.26"/><path d="M295.12 246.13q.05 1.47-.63 2.01-.45.36-.85-.05-.43-.43-.56-1.21.94.09 2.04-.75"/><path fill="#fff" d="M288.43 246.8q.58.46.85 1.2-1.19 1-2.92.91-.17-.49.26-.98 1.68.11 1.81-1.13"/><path d="m290.67 251.7-2.39 1.71q-1.8-1.56-1.92-4.5 1.73.09 2.92-.91 1.07 1.64 1.39 3.7"/><path fill="#fff" d="M290.67 251.7q.35.61.21 1.27l-1.89 1.03q-.51-.14-.71-.59z"/><path d="M290.88 252.97q.28 1.21-.08 2.12-.21.52-.76.4-.66-.15-1.05-1.49z"/></svg>