<svg xmlns="http://www.w3.org/2000/svg" viewBox="0 0 382 382"><g fill="none" stroke-width="2"><path stroke="#7b5027" d="m252.2 74.93-1.02 3.51a.77.76-70.9 0 0 .44.91l.39.15a.77.77 0 0 0 1.06-.77q-.1-1.14.69-2.03.34-.39.05-.81-.39-.56.27-.81a.86.86 0 0 0 .56-.82q-.01-.33-.2-.68" vector-effect="non-scaling-stroke"/><path stroke="#96461f" d="m317.57 98.78-1.51-.07q-.51-.03-.52.48 0 .49-.25.82" vector-effect="non-scaling-stroke"/><path stroke="#7b5027" d="m313.05 99.86 1.56-1.2q.66-.5-.12-.77-.25-.09-.45-.27a.33.33 0 0 1-.02-.46q.1-.11.25-.18.86-.37.02-.75-1.96-.9-3.41-2.94-.28-.39-.57-.01l-.21.28a.48.46 53.1 0 0-.06.46q.94 2.19 3.07 2.99.29.11.14.37-.1.18-.1.38.02.46-.42.32l-.47-.14q-.25-.08-.13-.31.16-.32-.23-.63a.39.39 0 0 0-.62.21q-.47 1.75-1.28 2.71" vector-effect="non-scaling-stroke"/><path stroke="#96461f" d="M304.35 100.67q-1.16-1.25-1.71-1.51-.66-.31-1.07.1-.39.39-.11.86.27.47.79.88M306.53 111.94q-.33.92.57 1.46 1.47.87 2.24 0" vector-effect="non-scaling-stroke"/><path stroke="#7b5027" d="M314.28 116.73q.31 2-.85 3.65a.94.93-41.9 0 0-.06.99q.8 1.45 1.52 2.95.34.71 0 1.41-.25.52-.76.24-.37-.21-.8-.16-.47.07-.47.54l.01.74a.42.41-9.2 0 0 .55.39c2.24-.75 5.01.53 4.59 3.43" vector-effect="non-scaling-stroke"/><path stroke="#96461f" d="M316.72 130.86q-.26-1.17-.83-1.58-.5-.36-.81.17-.34.59.16 1.83M307.76 132.78l-.87-1.08q-.38-.47-.71.04-.55.86.14 1.47" vector-effect="non-scaling-stroke"/><path stroke="#7b5027" d="M306.75 145.85q-.21.06-.3.22-.16.27.02.52 1.53 2.17-.52 4.08-.46.43-.93 0-.7-.65-1.66-.65-.27 0-.33-.26-.03-.18.01-.35a.47.47 0 0 1 .42-.37q.8-.08 1.62-.17.18-.02.32-.15.08-.08.04-.23-.1-.34-.45-.31-2.14.2-2.78-.82M300.13 132.22q.25-.46.56-.27c.5.31 1.22.46 1.8.8q.51.29 1.04.06 1.23-.54 1.62-1.91.17-.61.79-.7l2.42-.32q.53-.08.52-.62l-.02-.36q-.01-.42-.41-.31-1.68.44-2.66-.44" vector-effect="non-scaling-stroke"/><path stroke="#ac6c3f" d="M305.79 128.15q.12-.55 0-1.11" vector-effect="non-scaling-stroke"/><path stroke="#7b5027" d="M305.79 127.04q.71-.03.97-.31a.37.37 0 0 0-.27-.62l-2.46-.06q-.93-.03-.94.9-.02 1.23-.6 2.26a.93.93 0 0 0 .14 1.1q.25.26.28.61.08 1.03-.74.4-.79-.61-1.84-.01" vector-effect="non-scaling-stroke"/><path stroke="#96461f" d="M239.05 74.06q-1.89-2.12-1.86.28" vector-effect="non-scaling-stroke"/><path stroke="#f04015" d="M212.25 70.35q0-1.06.37-1.86.24-.5-.73-1.13" vector-effect="non-scaling-stroke"/><path stroke="#7b5027" d="m211.89 67.36 3.32-5.07q.26-.4.64-.1 2.77 2.27 2.85-.97" vector-effect="non-scaling-stroke"/><path stroke="#80562c" d="M211.89 67.36q.61 1.56-.04 2.36-.41.51-.84.01-.65-.77-1.51-1.28a.66.65 47.7 0 1 .05-1.15q1.34-.64 2.43-2.01.26-.32-.13-.45l-.4-.12q-.12-.04-.2.06-1.22 1.56-2.57 1.03-.55-.22-.58.37l-.22 4.94M194.25 72.47l-6.2-1.77M190.47 68.11l1.55 1.45a.77.77 0 0 0 1.05 0q.73-.69 1.12.25.27.64.65.06.18-.27.17-.77" vector-effect="non-scaling-stroke"/><path stroke="#3c8256" d="M195.01 69.1q.47.27.8.27.55 0 .4-.52-.12-.44-.53-.63a.57.56 26.6 0 0-.74.24q-.06.13.07.64" vector-effect="non-scaling-stroke"/><path stroke="#80562c" d="m195.01 69.1-3-2.43" vector-effect="non-scaling-stroke"/><path stroke="#3c8256" d="M201.13 62.29q.42 1.45 1.2 1.74.54.2.55-.38l.02-1.58" vector-effect="non-scaling-stroke"/><path stroke="#265c36" d="M205.81 61.41q.49 1.5 1.19 1.55" vector-effect="non-scaling-stroke"/><path stroke="#3c8256" d="M305.79 127.04q-1.15-.19-1.51.06-.31.22-.03.48.51.47 1.54.57" vector-effect="non-scaling-stroke"/><path stroke="#80562c" d="M308.84 146.85q-.2 3.24-2.36 5.35a.53.53 0 0 0 .28.91q.86.15 1.52-.22.55-.3.12-.75-.26-.28-.27-.64a.91.9 73.8 0 1 .43-.79q1.61-.97 3.32-.09.72.37.42-.38-.29-.72.01-1.44M315.05 150.76q-.27.33.22.84.39.41.09.89l-.54.87q-.3.5.23.73 1.27.57 1.92 2.04a.5.5 0 0 1-.67.65q-.81-.37-1.56.08a1.05 1.05 0 0 1-.88.09l-6.23-2.24q-.38-.14-.55.23-.42.88-1.12 1.58a.15.15 0 0 0 .09.25c3.3.34 3.11 3.25 2.8 5.71q-.03.24-.23.29-.25.06-.32-.18l-1.25-4.17q-.07-.22-.27-.32t-.39-.03q-.34.14-.3.51.12 1.09.73 1.96.32.45.2.98-.24 1.11-1.3 1.95-.53.43-.22-.18 1.07-2.07-.65-3.98-.41-.46-.78.02-.77.99-1.1 2.02a.38.38 0 0 0 .59.43l.67-.5q.93-.69.47.37-.99 2.29-3.3 2.71M318.37 120.22l.04 1.94q.01.4.4.48.22.04.42-.07a.55.55 0 0 1 .79.35q.42 1.7-.39 3.14-.29.52-.81.21-.47-.28-1-.13-.82.23-.05.58 1.15.53 1.46 1.69.17.6.63.19.82-.73 1.19-2.12.25-.92.8-.15.19.27.13.55-.1.49-.43.87-1.29 1.48.23 2.94M211.3 61.12q.65.6.6 1.56-.03.66-.65.4-.12-.05-.27-.06-.47-.05-.84.26-.74.63-1.79.97-.51.16-.86-.24-.34-.4-.49-1.05" vector-effect="non-scaling-stroke"/><path stroke="#9b4c24" d="M207 62.96q1.51.36 1.89-.31.28-.49-.15-1.45" vector-effect="non-scaling-stroke"/><path stroke="#80562c" d="M320.53 156q-.44 2.29-2.85 2.49a.72.72 0 0 0-.67.72q.04 2.36-1.23 4.39a1.42 1.41-62.6 0 1-1.74.56q-.82-.33-1.4.3a.24.23-39.2 0 0-.03.28l.17.28q.33.54-.24.8-2.21 1.02-.79 1.99" vector-effect="non-scaling-stroke"/><path stroke="#f04015" d="M301.95 168.45q-.19.1-.24.25-.08.21-.28.12-.18-.08-.33-.28" vector-effect="non-scaling-stroke"/><path stroke="#9b4c24" d="M324.61 127.27q-.96.46-1.26 1.09-.4.83.48.54.57-.19.85.12.36.41-.02.79-.59.59-.7 1.15" vector-effect="non-scaling-stroke"/><path stroke="#96461f" d="M311.26 181.96q-1.19-.2-1.68.23-.47.42.12.63 1.02.38 2.33.31" vector-effect="non-scaling-stroke"/><path stroke="#7b5027" d="m304.77 216.55-4.36-1.19q-.39-.1-.32.3.07.34.92.77" vector-effect="non-scaling-stroke"/><path stroke="#ac6c3f" d="M301.01 216.43q-.16.51-.44.66" vector-effect="non-scaling-stroke"/><path stroke="#7b5027" d="M300.57 217.09q-.89-.16-1.32.24-.34.3.06.53.38.21.86.16.54-.06.61.48.05.35-.29.5-1.98.89-2.01.87-1.09-.85-1.52-.14" vector-effect="non-scaling-stroke"/><path stroke="#f04015" d="M296.96 219.73q-.88.37-1.15-.62" vector-effect="non-scaling-stroke"/><path stroke="#7b5027" d="M295.81 219.11q.13-1.68 1.78-3.13.4-.35.31-.88-.23-1.24.44-2.24c1.73-2.6 3.41-3.3 2.25-6.93a.44.43 63.9 0 0-.66-.23q-.33.22-.63.02-.68-.47-1.05.27-.74 1.52-2.88 1.14" vector-effect="non-scaling-stroke"/><path stroke="#96461f" d="M296.41 203.75q.24.67.5.88a.76.76 0 0 0 1.22-.64q-.05-1.17-1.24-1.9" vector-effect="non-scaling-stroke"/><path stroke="#7b5027" d="M298.2 192.8q.65 0 .77.7.04.23.19.39.1.11.28 0 .45-.29.34-.82-.37-1.83 1.4-2.13a.87.85-73.4 0 0 .49-.27q.4-.46.26-.89a.66.66 0 0 0-1.07-.28q-.53.47-1.17.36-1.26-.24-.21-.97.5-.34.5-.81.01-.6-.5-.27-.51.32-.77.23M299.14 184.94l3.09-2.25q.57-.42.02-.86-.36-.3-.31-.82.05-.54.41-.95.5-.59.58-1.39.02-.24-.19-.35-.15-.08-.29-.02-.32.12-.37.47-.1.81-.75 1.23-.59.39-.38 1.07.24.81.05 1.65a.56.55-72.1 0 1-.75.39q-.53-.22-.68-1.17" vector-effect="non-scaling-stroke"/><path stroke="#96461f" d="M299.57 181.94q.02-.54-.22-1" vector-effect="non-scaling-stroke"/><path stroke="#80562c" d="M325.48 163.64q-3.35 1.38-3.56 4.71" vector-effect="non-scaling-stroke"/><path stroke="#3c8256" d="M321.92 168.35q-.8-.02-1.94-.45" vector-effect="non-scaling-stroke"/><path stroke="#80562c" d="M319.98 167.9q1.01-1.06.5-2-.29-.53.26-.79 1.28-.6 2.63-1.3.12-.07.21-.18.09-.12.08-.27-.02-.25-.27-.27-.6-.05-1.07.25-.78.49-.57-.4.32-1.36 1.27-2.3a.41.4-66.4 0 0-.27-.7q-1.27-.02-2.51.36-.29.09-.37.38-.17.62.45.45.16-.04.31-.02.29.04.15.29-1.39 2.53-4.15 2.72-.15.01-.28.1-.12.08-.13.25-.01.52.5.53 1.16.03 1.34 1.13a.63.63 0 0 1-.24.6l-.31.24q-.48.36-.63-.21-.09-.33-.32-.38-.46-.11-.3.34.34.99.32 1.83" vector-effect="non-scaling-stroke"/><path stroke="#3c8256" d="M314.8 168.09q.32-.21.04-.55a1.21 1.2 60.4 0 0-1.3-.36q-.69.23-.57.7" vector-effect="non-scaling-stroke"/><path stroke="#80562c" d="M296.96 219.73q.47.75.48 1.98M293 219.43q-.24-.13-1.21.14" vector-effect="non-scaling-stroke"/><path stroke="#265c36" d="M299.1 183.19q.41-.51.47-1.25" vector-effect="non-scaling-stroke"/><path stroke="#80562c" d="M304.91 219.81q-1.79.02-2.8 1.62-.08.12-.21.18-.13.05-.27.04-.41-.03-.18-.37l.26-.38a.43.43 0 0 0-.08-.59q-.62-.5-1.33-.13-.39.21-.38.65.02 1.08-1.24 1.59" vector-effect="non-scaling-stroke"/><path stroke="#3c8256" d="M300.57 217.09q1.08.4 2.1 1.28.18.16.37 0l.36-.31q.24-.2-.01-.39-1.14-.88-2.38-1.24" vector-effect="non-scaling-stroke"/><path stroke="#80562c" d="M295.81 219.11q.09.39-.19.54a.5.5 0 0 1-.72-.36q-.2-1.19.62-2.19a1.18 1.17-28.2 0 0 .26-.84q-.08-.88-.87-1.33a.77.77 0 0 1-.29-1.03l1.54-2.92q.28-.53.84-.3.68.28 1.44.23.84-.07.26-.68l-.46-.48q-.69-.73.32-.68.5.03.89-.2.56-.33-.02-.63-.82-.43-1.36.24-.31.39-.72.11-1.09-.72-2.39.42M326.5 167.07q-.94.09-1.71-.74-.43-.46-.81.04-.26.35-.34.84-.05.29.23.17l.39-.19a.46.45-34.3 0 1 .51.09q.17.18.13.39-.03.22-.2.36-1.18 1.05-.71 2.87" vector-effect="non-scaling-stroke"/><path stroke="#b17243" d="M322.69 170.36q.29-1.11-.77-2.01M319.98 167.9q-.53.5-.8 1.15" vector-effect="non-scaling-stroke"/><path stroke="#824f21" d="M295.57 239.82q-1.16-.19-1.62.74-.31.64-1.01.52-.81-.15-1.16.61-.18.39-.34-.01-.08-.2.11-.3.31-.17.34-.52l.17-1.85q.09-.93.57-.14.27.44.69.7 1.06.65.7-.54l-.76-2.53q-.18-.6-.68-.23-.81.59-.72 1.57.02.23-.2.27-.18.04-.35.01a.47.46-86 0 1-.37-.43q-.08-1.09.75-1.56.24-.14.25-.42 0-.16-.04-.31a.46.46 0 0 0-.64-.27q-.67.34-1.07.19" vector-effect="non-scaling-stroke"/><path stroke="#7b5027" d="M326.9 170.29q-2.24-.59-2.75.57" vector-effect="non-scaling-stroke"/><path stroke="#96461f" d="M214.861 68.89a.81.55 69.7 0 0 .235-.95.81.55 69.7 0 0-.797-.57.81.55 69.7 0 0-.235.95.81.55 69.7 0 0 .797.57" vector-effect="non-scaling-stroke"/><path stroke="#7b5027" d="M238.468 71.77a1.29.51 91 0 0 .532-1.281 1.29.51 91 0 0-.488-1.299 1.29.51 91 0 0-.532 1.281 1.29.51 91 0 0 .488 1.299M255.35 80.16l-.92-.36q-.6-.24-.48.4.17.88.98 1.38a.8.79-52.7 0 0 1.01-.14q.51-.55 1.28-.6.65-.05.33-.62l-1.27-2.23a.86.84-20.1 0 0-.91-.41q-.88.17-1.7.7-.31.2-.09.5l.29.4a.47.47 0 0 0 .78-.03l.51-.8q.08-.12.21-.18.15-.08.29 0 .26.15.23.45l-.13 1.28q-.04.4-.41.26" vector-effect="non-scaling-stroke"/><path stroke="#96461f" d="M303.732 93.006a.84.5 79.6 0 0 .34-.916.84.5 79.6 0 0-.644-.736.84.5 79.6 0 0-.34.916.84.5 79.6 0 0 .644.736M305.88 92.87a.6.42 30.1 0 0-.31-.663.6.42 30.1 0 0-.73.062.6.42 30.1 0 0 .31.664.6.42 30.1 0 0 .73-.062" vector-effect="non-scaling-stroke"/><path stroke="#ac6c3f" d="M306.14 97.17q.15-.14.25-.31.24-.43-.04-.84-.48-.69-.45-1.47" vector-effect="non-scaling-stroke"/><path stroke="#7b5027" d="M305.9 94.55q-.29-.64-.89-.66-.52-.02-.87.35-.79.84-1.44 1.77-.36.5.03.97.45.56.47 1.27a.87.87 0 0 0 1.41.66q.84-.65 1.53-1.74" vector-effect="non-scaling-stroke"/><path stroke="#3c8256" d="M305.9 94.55q-.31.45-1.24.48-.48.02-.66.46-.15.35.15.63.36.35.9.41.99.1 1.09.64" vector-effect="non-scaling-stroke"/><path stroke="#96461f" d="M307.55 95.59q.08-.18-.11-.16-.19.01-.18.17 0 .06.05.08.15.09.24-.09M307.21 97.96q-.82.1-1.36.73-.5.58.26.5 1.55-.17 2.73-.76a.59.59 0 0 0 .19-.9q-.24-.31-.61-.31-.19 0-.31.15-.09.13-.2.24-.28.3-.7.35M305.19 113.41q-.14.49.65.04a.2.2 0 0 0-.03-.36q-.48-.17-.62.32M308.4 116.79q.03.19-.11.31a.38.37-47.6 0 0 .02.58q.13.1.28.15.26.09.28-.18l.19-2.2q.03-.36-.33-.35l-.34.01q-.25.01-.28.25c-.08.66.2.91.29 1.43M309.14 119.51q.1.23.36.29.34.07.32-.28-.01-.2-.15-.36a.32.32 0 0 0-.53.35M305.894 124.525a.43.34 10 0 0-.365-.41.43.34 10 0 0-.483.26.43.34 10 0 0 .365.41.43.34 10 0 0 .483-.26" vector-effect="non-scaling-stroke"/><path stroke="#7b5027" d="M310.28 126.41q-.01-.21.07-.4.28-.67-.35-.25l-.48.33q-.61.41-.14.98.49.58 1.07.65.69.07.29-.5l-.34-.47q-.11-.15-.12-.34" vector-effect="non-scaling-stroke"/><path stroke="#96461f" d="M304.13 146.36q0 .26.18.48a.33.32-53.5 0 0 .56-.09q.17-.47-.36-.66-.39-.13-.38.27" vector-effect="non-scaling-stroke"/><path stroke="#3c8256" d="M200.95 66.99q-.65-.52-1.34-.93-1.32-.8-.62.58.91 1.82 2.74 1.35a1.09 1.07 59.7 0 1 1 .27q.33.32.77.34.66.03.22-.46l-1.27-1.39q-.12-.13-.3-.09-.14.04-.21.15a.67.67 0 0 1-.99.18" vector-effect="non-scaling-stroke"/><path stroke="#7b5027" d="M205.055 66.868a.66.33 32.8 0 0-.376-.635.66.33 32.8 0 0-.734-.08.66.33 32.8 0 0 .376.634.66.33 32.8 0 0 .734.08" vector-effect="non-scaling-stroke"/><path stroke="#9b4c24" d="M209.09 69.56q.13.2.26-.01a.16.16 0 0 0-.1-.23q-.37-.08-.16.24M188.33 73.59q.12.01.19-.09.09-.12-.06-.08-.08.03-.15.06-.2.09.02.11" vector-effect="non-scaling-stroke"/><path stroke="#265c36" d="M314.854 121.237a.59.46 65.6 0 0 .175-.727.59.46 65.6 0 0-.663-.347.59.46 65.6 0 0-.175.727.59.46 65.6 0 0 .663.347" vector-effect="non-scaling-stroke"/><path stroke="#3c8256" d="M316.18 122.39q.39.38.41-.16.02-.7-.48-1.2a.24.24 0 0 0-.41.14q-.07.69.48 1.22M311.04 153.45q-.1-.12-.24-.16a.32.32 0 0 0-.41.39q.48 1.72 1.86.81.61-.4.86-1.13.07-.19-.09-.32l-.32-.25q-.28-.22-.38.13-.2.63-.79.73a.51.5-22.2 0 1-.49-.2M304.53 155.279a1.13.51 63.2 0 0-.055-1.239 1.13.51 63.2 0 0-.965-.779 1.13.51 63.2 0 0 .055 1.239 1.13.51 63.2 0 0 .964.779" vector-effect="non-scaling-stroke"/><path stroke="#265c36" d="M313.371 155.744a.3.26 101.3 0 0 .314-.243.3.26 101.3 0 0-.196-.345.3.26 101.3 0 0-.314.243.3.26 101.3 0 0 .196.345" vector-effect="non-scaling-stroke"/><path stroke="#9b4c24" d="M318.46 156.2q-.31.03-.21.33.12.32.44.17a.25.24-33.4 0 0 .08-.38q-.12-.14-.31-.12M310.24 160.3a.28.28 0 0 0 .1.46q.26.1.5-.04.44-.28-.02-.51-.33-.17-.58.09M313.39 161.92l.83.82a.36.36 0 0 0 .59-.14q.18-.54.1-1.08a.59.58 83.4 0 0-.61-.49l-.59.04q-1.11.07-.32.85" vector-effect="non-scaling-stroke"/><path stroke="#96461f" d="M300.68 179.63q-.14-.07-.29-.05-.33.04-.02.18.14.06.3.01a.08.07 50 0 0 .01-.14M298 217.835a.57.36 26.6 0 0-.349-.577.57.36 26.6 0 0-.67.067.57.36 26.6 0 0 .348.577.57.36 26.6 0 0 .67-.067" vector-effect="non-scaling-stroke"/><path stroke="#9b4c24" d="M304.105 223.32a1.01.7-41.6 0 0-1.22.147 1.01.7-41.6 0 0-.29 1.194 1.01.7-41.6 0 0 1.22-.148 1.01.7-41.6 0 0 .29-1.194" vector-effect="non-scaling-stroke"/><path stroke="#9d4519" d="M289.551 240.034a1.11.69 129.7 0 0 1.24-.413 1.11.69 129.7 0 0 .178-1.295 1.11.69 129.7 0 0-1.24.413 1.11.69 129.7 0 0-.178 1.295M294.851 242.61a.88.55 68.6 0 0 .191-1.02.88.55 68.6 0 0-.833-.62.88.55 68.6 0 0-.191 1.02.88.55 68.6 0 0 .833.62M292.75 242.96q.47 1.22 1.57 1.77.82.4.36-.39-.7-1.19-1.93-1.38" vector-effect="non-scaling-stroke"/><path stroke="#f2390a" d="M292.75 242.96v-.09q-.01-.1-.09-.18t-.19-.07q-.14.01-.1.15.02.09.09.15.06.06.19.05.05 0 .1-.01" vector-effect="non-scaling-stroke"/></g><path fill="#eb3a10" d="m252.2 74.93-1.02 3.51a.77.76-70.9 0 0 .44.91l.39.15a.77.77 0 0 0 1.06-.77q-.1-1.14.69-2.03.34-.39.05-.81-.39-.56.27-.81a.86.86 0 0 0 .56-.82q-.01-.33-.2-.68 17.03-9.11 35.56-4.02 1.12.3 1.51.51 1.91.99-.16 1.57-10.66 2.98-19.86 11.32-.59.53.17.76 2.89.84 6.19 2.09 1.82.7 4.03.47 8.15-.82 16.09.8 11.82 2.42 19.6 11.7l-1.51-.07q-.51-.03-.52.48 0 .49-.25.82l-2.24-.15 1.56-1.2q.66-.5-.12-.77-.25-.09-.45-.27a.33.33 0 0 1-.02-.46q.1-.11.25-.18.86-.37.02-.75-1.96-.9-3.41-2.94-.28-.39-.57-.01l-.21.28a.48.46 53.1 0 0-.06.46q.94 2.19 3.07 2.99.29.11.14.37-.1.18-.1.38.02.46-.42.32l-.47-.14q-.25-.08-.13-.31.16-.32-.23-.63a.39.39 0 0 0-.62.21q-.47 1.75-1.28 2.71l-5.65.75q-1.16-1.25-1.71-1.51-.66-.31-1.07.1-.39.39-.11.86.27.47.79.88-6.15 1.96-11.43 5.51a.27.27 0 0 0 .03.47q2.62 1.3 5.64 1.28 2.57-.01 10.04 3.68-.33.92.57 1.46 1.47.87 2.24 0l4.94 3.33q.31 2-.85 3.65a.94.93-41.9 0 0-.06.99q.8 1.45 1.52 2.95.34.71 0 1.41-.25.52-.76.24-.37-.21-.8-.16-.47.07-.47.54l.01.74a.42.41-9.2 0 0 .55.39c2.24-.75 5.01.53 4.59 3.43l-1.29-.05q-.26-1.17-.83-1.58-.5-.36-.81.17-.34.59.16 1.83l-7.48 1.5-.87-1.08q-.38-.47-.71.04-.55.86.14 1.47l-4.48 1.89a1.64 1.64 0 0 0-.63 2.56q2.59 3.12 2.7 6.58.02.53.53.65 1.3.31 2.31.96-.21.06-.3.22-.16.27.02.52 1.53 2.17-.52 4.08-.46.43-.93 0-.7-.65-1.66-.65-.27 0-.33-.26-.03-.18.01-.35a.47.47 0 0 1 .42-.37q.8-.08 1.62-.17.18-.02.32-.15.08-.08.04-.23-.1-.34-.45-.31-2.14.2-2.78-.82-.2-1.89.43-3.44.18-.47.09-.96-.59-3.1-3.11-5.03-.41-.32-.33-.83l.84-4.88q.25-.46.56-.27c.5.31 1.22.46 1.8.8q.51.29 1.04.06 1.23-.54 1.62-1.91.17-.61.79-.7l2.42-.32q.53-.08.52-.62l-.02-.36q-.01-.42-.41-.31-1.68.44-2.66-.44.12-.55 0-1.11.71-.03.97-.31a.37.37 0 0 0-.27-.62l-2.46-.06q-.93-.03-.94.9-.02 1.23-.6 2.26a.93.93 0 0 0 .14 1.1q.25.26.28.61.08 1.03-.74.4-.79-.61-1.84-.01 1.64-9.8.68-18.75a2.96 2.95 89.8 0 0-2.64-2.62q-6.33-.62-11.99-4.58-1.56-1.09-2.28-4.49-.12-.54-.57-.86l-2.23-1.54a.54.54 0 0 1-.12-.77q3.33-4.37.59-9.12-.43-.74-1.24-1.01-3.34-1.09-6.76-2.05c-5.1-1.43-11.01-.29-16.49-.58a1.19 1.15-18 0 1-.82-.4q-2.29-2.69-5.19-5.02c-.65-.52-.9-1.03-1.24-1.76q-.23-.48-.69-.73-3.21-1.74-6.3-3.13-1.09-.49-3.99.16-1.89-2.12-1.86.28-2.47.68-5.4.63-2.45-.04-4.04-1.12-1.55-1.05-3.22-1.96-1.28-.7-2.95-.8-4.68-.26-9.33-.74 0-1.06.37-1.86.24-.5-.73-1.13l3.32-5.07q.26-.4.64-.1 2.77 2.27 2.85-.97 3.4.01 5.94.46 2.52.45.13 1.37-4.58 1.77-8.55 4.74-.95.72.23.88l2.87.42q1.05.15 1.81-.61 7.51-7.52 19.34-8.35 7.93-.55 13.83.34 3.53.53 8.32 2.57.41.18.54.6.15.51-.27.96a.81.77 16 0 1-.48.25q-9.97 1.53-17.46 7.31-.39.3-.05.67 4.6 4.86 7.3 2.1m-37.339-6.04a.81.55 69.7 0 0 .235-.95.81.55 69.7 0 0-.797-.57.81.55 69.7 0 0-.235.95.81.55 69.7 0 0 .797.57m23.607 2.88a1.29.51 91 0 0 .532-1.281 1.29.51 91 0 0-.488-1.299 1.29.51 91 0 0-.532 1.281 1.29.51 91 0 0 .488 1.299m16.882 8.39-.92-.36q-.6-.24-.48.4.17.88.98 1.38a.8.79-52.7 0 0 1.01-.14q.51-.55 1.28-.6.65-.05.33-.62l-1.27-2.23a.86.84-20.1 0 0-.91-.41q-.88.17-1.7.7-.31.2-.09.5l.29.4a.47.47 0 0 0 .78-.03l.51-.8q.08-.12.21-.18.15-.08.29 0 .26.15.23.45l-.13 1.28q-.04.4-.41.26m48.382 12.846a.84.5 79.6 0 0 .34-.916.84.5 79.6 0 0-.644-.736.84.5 79.6 0 0-.34.916.84.5 79.6 0 0 .644.736m2.147-.135a.6.42 30.1 0 0-.308-.664.6.42 30.1 0 0-.73.062.6.42 30.1 0 0 .308.664.6.42 30.1 0 0 .73-.062m.261 4.299q.15-.14.25-.31.24-.43-.04-.84-.48-.69-.45-1.47-.29-.64-.89-.66-.52-.02-.87.35-.79.84-1.44 1.77-.36.5.03.97.45.56.47 1.27a.87.87 0 0 0 1.41.66q.84-.65 1.53-1.74m1.41-1.58q.08-.18-.11-.16-.19.01-.18.17 0 .06.05.08.15.09.24-.09m-.34 2.37q-.82.1-1.36.73-.5.58.26.5 1.55-.17 2.73-.76a.59.59 0 0 0 .19-.9q-.24-.31-.61-.31-.19 0-.31.15-.09.13-.2.24-.28.3-.7.35m-2.02 15.45q-.14.49.65.04a.2.2 0 0 0-.03-.36q-.48-.17-.62.32m3.21 3.38q.03.19-.11.31a.38.37-47.6 0 0 .02.58q.13.1.28.15.26.09.28-.18l.19-2.2q.03-.36-.33-.35l-.34.01q-.25.01-.28.25c-.08.66.2.91.29 1.43m.74 2.72q.1.23.36.29.34.07.32-.28-.01-.2-.15-.36a.32.32 0 0 0-.53.35m-3.246 5.015a.43.34 10 0 0-.365-.41.43.34 10 0 0-.483.26.43.34 10 0 0 .365.41.43.34 10 0 0 .483-.26m4.386 1.885q-.01-.21.07-.4.28-.67-.35-.25l-.48.33q-.61.41-.14.98.49.58 1.07.65.69.07.29-.5l-.34-.47q-.11-.15-.12-.34m-6.15 19.95q0 .26.18.48a.33.32-53.5 0 0 .56-.09q.17-.47-.36-.66-.39-.13-.38.27"/><path fill="#f44619" d="M211.3 61.12q.65.6.6 1.56-.03.66-.65.4-.12-.05-.27-.06-.47-.05-.84.26-.74.63-1.79.97-.51.16-.86-.24-.34-.4-.49-1.05 1.51.36 1.89-.31.28-.49-.15-1.45z"/><path fill="#0b663e" d="M218.7 61.22q-.08 3.24-2.85.97-.38-.3-.64.1l-3.32 5.07q.61 1.56-.04 2.36-.41.51-.84.01-.65-.77-1.51-1.28a.66.65 47.7 0 1 .05-1.15q1.34-.64 2.43-2.01.26-.32-.13-.45l-.4-.12q-.12-.04-.2.06-1.22 1.56-2.57 1.03-.55-.22-.58.37l-.22 4.94q-3.94.05-7.88-.21-2.24-.14-5.75 1.56l-6.2-1.77 2.42-2.59 1.55 1.45a.77.77 0 0 0 1.05 0q.73-.69 1.12.25.27.64.65.06.18-.27.17-.77.47.27.8.27.55 0 .4-.52-.12-.44-.53-.63a.57.56 26.6 0 0-.74.24q-.06.13.07.64l-3-2.43q3.75-3.31 9.12-4.38.42 1.45 1.2 1.74.54.2.55-.38l.02-1.58 2.91-.66q.49 1.5 1.19 1.55.15.65.49 1.05.35.4.86.24 1.05-.34 1.79-.97.37-.31.84-.26.15.01.27.06.62.26.65-.4.05-.96-.6-1.56zm-17.75 5.77q-.65-.52-1.34-.93-1.32-.8-.62.58.91 1.82 2.74 1.35a1.09 1.07 59.7 0 1 1 .27q.33.32.77.34.66.03.22-.46l-1.27-1.39q-.12-.13-.3-.09-.14.04-.21.15a.67.67 0 0 1-.99.18m4.105-.122a.66.33 32.8 0 0-.376-.635.66.33 32.8 0 0-.734-.08.66.33 32.8 0 0 .376.634.66.33 32.8 0 0 .734.08"/><path fill="#41512e" d="M208.74 61.2q.43.96.15 1.45-.38.67-1.89.31-.7-.05-1.19-1.55z"/><path fill="#6d9d6d" d="m202.9 62.07-.02 1.58q-.01.58-.55.38-.78-.29-1.2-1.74.81-.28 1.77-.22"/><path fill="#f44619" d="M211.89 67.36q.97.63.73 1.13-.37.8-.37 1.86l-4.37.77.22-4.94q.03-.59.58-.37 1.35.53 2.57-1.03.08-.1.2-.06l.4.12q.39.13.13.45-1.09 1.37-2.43 2.01a.66.65 47.7 0 0-.05 1.15q.86.51 1.51 1.28.43.5.84-.01.65-.8.04-2.36m-2.8 2.2q.13.2.26-.01a.16.16 0 0 0-.1-.23q-.37-.08-.16.24"/><path fill="#6d9d6d" d="M201.94 66.81q.07-.11.21-.15.18-.04.3.09l1.27 1.39q.44.49-.22.46-.44-.02-.77-.34a1.09 1.07 59.7 0 0-1-.27q-1.83.47-2.74-1.35-.7-1.38.62-.58.69.41 1.34.93a.67.67 0 0 0 .99-.18"/><ellipse fill="#eb3a10" rx=".66" ry=".33" transform="rotate(32.8 -10.74 380.67)"/><path fill="#f44619" d="m192.01 66.67 3 2.43q.01.5-.17.77-.38.58-.65-.06-.39-.94-1.12-.25a.77.77 0 0 1-1.05 0l-1.55-1.45z"/><ellipse fill="#41512e" rx=".81" ry=".55" transform="rotate(69.7 58.368 188.148)"/><path fill="#6d9d6d" d="M195.01 69.1q-.13-.51-.07-.64a.57.56 26.6 0 1 .74-.24q.41.19.53.63.15.52-.4.52-.33 0-.8-.27"/><path fill="#41512e" d="M209.09 69.56q-.21-.32.16-.24a.16.16 0 0 1 .1.23q-.13.21-.26.01"/><ellipse fill="#0b663e" rx="1.29" ry=".51" transform="rotate(91 84.615 152.422)"/><path fill="#f44619" d="M194.25 72.47q-3.8 1.39-6.9 2.05-2.85.61-1.14-1.76.5-.69 1.84-2.06zm-5.92 1.12q.12.01.19-.09.09-.12-.06-.08-.08.03-.15.06-.2.09.02.11"/><path fill="#41512e" d="M188.31 73.48q.07-.03.15-.06.15-.04.06.08-.07.1-.19.09-.22-.02-.02-.11M239.05 74.06l-1.86.28q-.03-2.4 1.86-.28"/><path fill="#0b663e" d="M254.44 73.58q.19.35.2.68a.86.86 0 0 1-.56.82q-.66.25-.27.81.29.42-.05.81-.79.89-.69 2.03a.77.77 0 0 1-1.06.77l-.39-.15a.77.76-70.9 0 1-.44-.91l1.02-3.51zM255.76 79.9l.13-1.28q.03-.3-.23-.45-.14-.08-.29 0-.13.06-.21.18l-.51.8a.47.47 0 0 1-.78.03l-.29-.4q-.22-.3.09-.5.82-.53 1.7-.7a.86.84-20.1 0 1 .91.41l1.27 2.23q.32.57-.33.62-.77.05-1.28.6a.8.79-52.7 0 1-1.01.14q-.81-.5-.98-1.38-.12-.64.48-.4l.92.36q.37.14.41-.26"/><ellipse fill="#41512e" rx=".84" ry=".5" transform="rotate(79.6 96.471 228.274)"/><ellipse fill="#41512e" rx=".6" ry=".42" transform="rotate(30.1 -19.457 614.112)"/><path fill="#0b663e" d="m313.05 99.86-3.05.06q.81-.96 1.28-2.71a.39.39 0 0 1 .62-.21q.39.31.23.63-.12.23.13.31l.47.14q.44.14.42-.32 0-.2.1-.38.15-.26-.14-.37-2.13-.8-3.07-2.99a.48.46 53.1 0 1 .06-.46l.21-.28q.29-.38.57.01 1.45 2.04 3.41 2.94.84.38-.02.75-.15.07-.25.18a.33.33 0 0 0 .02.46q.2.18.45.27.78.27.12.77zM305.9 94.55q-.31.45-1.24.48-.48.02-.66.46-.15.35.15.63.36.35.9.41.99.1 1.09.64-.69 1.09-1.53 1.74a.87.87 0 0 1-1.41-.66q-.02-.71-.47-1.27-.39-.47-.03-.97.65-.93 1.44-1.77.35-.37.87-.35.6.02.89.66"/><path fill="#6d9d6d" d="M306.14 97.17q-.1-.54-1.09-.64-.54-.06-.9-.41-.3-.28-.15-.63.18-.44.66-.46.93-.03 1.24-.48-.03.78.45 1.47.28.41.04.84-.1.17-.25.31"/><path fill="#41512e" d="M307.55 95.59q-.09.18-.24.09-.05-.02-.05-.08-.01-.16.18-.17.19-.02.11.16M307.91 97.61q.11-.11.2-.24.12-.15.31-.15.37 0 .61.31a.59.59 0 0 1-.19.9q-1.18.59-2.73.76-.76.08-.26-.5.54-.63 1.36-.73.42-.05.7-.35M317.57 98.78q.55.86.72 1.57.13.53-.42.49-1.31-.09-2.58-.83.25-.33.25-.82.01-.51.52-.48zM304.35 100.67l-2.1.33q-.52-.41-.79-.88-.28-.47.11-.86.41-.41 1.07-.1.55.26 1.71 1.51M309.34 113.4q-.77.87-2.24 0-.9-.54-.57-1.46zM305.19 113.41q.14-.49.62-.32a.2.2 0 0 1 .03.36q-.79.45-.65-.04M308.4 116.79c-.09-.52-.37-.77-.29-1.43q.03-.24.28-.25l.34-.01q.36-.01.33.35l-.19 2.2q-.02.27-.28.18-.15-.05-.28-.15a.38.37-47.6 0 1-.02-.58q.14-.12.11-.31"/><path fill="#0b663e" d="m318.37 120.22.04 1.94q.01.4.4.48.22.04.42-.07a.55.55 0 0 1 .79.35q.42 1.7-.39 3.14-.29.52-.81.21-.47-.28-1-.13-.82.23-.05.58 1.15.53 1.46 1.69.17.6.63.19.82-.73 1.19-2.12.25-.92.8-.15.19.27.13.55-.1.49-.43.87-1.29 1.48.23 2.94l-3.77.22c.42-2.9-2.35-4.18-4.59-3.43a.42.41-9.2 0 1-.55-.39l-.01-.74q0-.47.47-.54.43-.05.8.16.51.28.76-.24.34-.7 0-1.41-.72-1.5-1.52-2.95a.94.93-41.9 0 1 .06-.99q1.16-1.65.85-3.65zm-3.516 1.017a.59.46 65.6 0 0 .175-.727.59.46 65.6 0 0-.663-.347.59.46 65.6 0 0-.175.727.59.46 65.6 0 0 .663.347m1.326 1.153q.39.38.41-.16.02-.7-.48-1.2a.24.24 0 0 0-.41.14q-.07.69.48 1.22"/><path fill="#41512e" d="M309.14 119.51a.32.32 0 0 1 .53-.35q.14.16.15.36.02.35-.32.28-.26-.06-.36-.29"/><ellipse fill="#41512e" rx=".59" ry=".46" transform="rotate(65.6 63.66 304.44)"/><path fill="#f44619" d="M324.61 127.27q-.96.46-1.26 1.09-.4.83.48.54.57-.19.85.12.36.41-.02.79-.59.59-.7 1.15l-2.18-.27q-1.52-1.46-.23-2.94.33-.38.43-.87.06-.28-.13-.55-.55-.77-.8.15-.37 1.39-1.19 2.12-.46.41-.63-.19-.31-1.16-1.46-1.69-.77-.35.05-.58.53-.15 1 .13.52.31.81-.21.81-1.44.39-3.14a.55.55 0 0 0-.79-.35q-.2.11-.42.07-.39-.08-.4-.48l-.04-1.94z"/><path fill="#6d9d6d" d="M316.18 122.39q-.55-.53-.48-1.22a.24.24 0 0 1 .41-.14q.5.5.48 1.2-.02.54-.41.16"/><ellipse fill="#41512e" rx=".43" ry=".34" transform="rotate(10 -558.5 1807.994)"/><path fill="#0b663e" d="m310.4 126.75.34.47q.4.57-.29.5-.58-.07-1.07-.65-.47-.57.14-.98l.48-.33q.63-.42.35.25-.08.19-.07.4.01.19.12.34M305.79 127.04q-1.15-.19-1.51.06-.31.22-.03.48.51.47 1.54.57.98.88 2.66.44.4-.11.41.31l.02.36q.01.54-.52.62l-2.42.32q-.62.09-.79.7-.39 1.37-1.62 1.91-.53.23-1.04-.06c-.58-.34-1.3-.49-1.8-.8q-.31-.19-.56.27-.08-.54.2-.91 1.05-.6 1.84.01.82.63.74-.4-.03-.35-.28-.61a.93.93 0 0 1-.14-1.1q.58-1.03.6-2.26.01-.93.94-.9l2.46.06a.37.37 0 0 1 .27.62q-.26.28-.97.31"/><path fill="#6d9d6d" d="M305.79 127.04q.12.56 0 1.11-1.03-.1-1.54-.57-.28-.26.03-.48.36-.25 1.51-.06"/><path fill="#41512e" d="M323.96 130.96q.11-.56.7-1.15.38-.38.02-.79-.28-.31-.85-.12-.88.29-.48-.54.3-.63 1.26-1.09 1.42 1.83 2.17 4.03.18.5-.35.54-1.17.09-2.47-.88M316.72 130.86l-1.48.42q-.5-1.24-.16-1.83.31-.53.81-.17.57.41.83 1.58M307.76 132.78q-.62.38-1.44.43-.69-.61-.14-1.47.33-.51.71-.04z"/><path fill="#0b663e" d="M308.84 146.85q-.2 3.24-2.36 5.35a.53.53 0 0 0 .28.91q.86.15 1.52-.22.55-.3.12-.75-.26-.28-.27-.64a.91.9 73.8 0 1 .43-.79q1.61-.97 3.32-.09.72.37.42-.38-.29-.72.01-1.44l2.74 1.96q-.27.33.22.84.39.41.09.89l-.54.87q-.3.5.23.73 1.27.57 1.92 2.04a.5.5 0 0 1-.67.65q-.81-.37-1.56.08a1.05 1.05 0 0 1-.88.09l-6.23-2.24q-.38-.14-.55.23-.42.88-1.12 1.58a.15.15 0 0 0 .09.25c3.3.34 3.11 3.25 2.8 5.71q-.03.24-.23.29-.25.06-.32-.18l-1.25-4.17q-.07-.22-.27-.32t-.39-.03q-.34.14-.3.51.12 1.09.73 1.96.32.45.2.98-.24 1.11-1.3 1.95-.53.43-.22-.18 1.07-2.07-.65-3.98-.41-.46-.78.02-.77.99-1.1 2.02a.38.38 0 0 0 .59.43l.67-.5q.93-.69.47.37-.99 2.29-3.3 2.71l.81-17q.64 1.02 2.78.82.35-.03.45.31.04.15-.04.23-.14.13-.32.15-.82.09-1.62.17a.47.47 0 0 0-.42.37q-.04.17-.01.35.06.26.33.26.96 0 1.66.65.47.43.93 0 2.05-1.91.52-4.08-.18-.25-.02-.52.09-.16.3-.22 1.12.26 2.09 1m2.2 6.6q-.1-.12-.24-.16a.32.32 0 0 0-.41.39q.48 1.72 1.86.81.61-.4.86-1.13.07-.19-.09-.32l-.32-.25q-.28-.22-.38.13-.2.63-.79.73a.51.5-22.2 0 1-.49-.2m-6.51 1.829a1.13.51 63.2 0 0-.055-1.239 1.13.51 63.2 0 0-.965-.779 1.13.51 63.2 0 0 .055 1.239 1.13.51 63.2 0 0 .964.779m8.841.465a.3.26 101.3 0 0 .314-.243.3.26 101.3 0 0-.196-.345.3.26 101.3 0 0-.314.243.3.26 101.3 0 0 .196.345"/><path fill="#41512e" d="M304.13 146.36q-.01-.4.38-.27.53.19.36.66a.33.32-53.5 0 1-.56.09q-.18-.22-.18-.48"/><path fill="#f44619" d="M312.31 148.8q-.3.72-.01 1.44.3.75-.42.38-1.71-.88-3.32.09a.91.9 73.8 0 0-.43.79q.01.36.27.64.43.45-.12.75-.66.37-1.52.22a.53.53 0 0 1-.28-.91q2.16-2.11 2.36-5.35zM320.53 156q-.44 2.29-2.85 2.49a.72.72 0 0 0-.67.72q.04 2.36-1.23 4.39a1.42 1.41-62.6 0 1-1.74.56q-.82-.33-1.4.3a.24.23-39.2 0 0-.03.28l.17.28q.33.54-.24.8-2.21 1.02-.79 1.99l-9.28-.03q-.4 0-.51.38-.03.14-.01.29-.19.1-.24.25-.08.21-.28.12-.18-.08-.33-.28l.3-4.18q2.31-.42 3.3-2.71.46-1.06-.47-.37l-.67.5a.38.38 0 0 1-.59-.43q.33-1.03 1.1-2.02.37-.48.78-.02 1.72 1.91.65 3.98-.31.61.22.18 1.06-.84 1.3-1.95.12-.53-.2-.98-.61-.87-.73-1.96-.04-.37.3-.51.19-.07.39.03t.27.32l1.25 4.17q.07.24.32.18.2-.05.23-.29c.31-2.46.5-5.37-2.8-5.71a.15.15 0 0 1-.09-.25q.7-.7 1.12-1.58.17-.37.55-.23l6.23 2.24a1.05 1.05 0 0 0 .88-.09q.75-.45 1.56-.08a.5.5 0 0 0 .67-.65q-.65-1.47-1.92-2.04-.53-.23-.23-.73l.54-.87q.3-.48-.09-.89-.49-.51-.22-.84zm-2.07.2q-.31.03-.21.33.12.32.44.17a.25.24-33.4 0 0 .08-.38q-.12-.14-.31-.12m-8.22 4.1a.28.28 0 0 0 .1.46q.26.1.5-.04.44-.28-.02-.51-.33-.17-.58.09m3.15 1.62.83.82a.36.36 0 0 0 .59-.14q.18-.54.1-1.08a.59.58 83.4 0 0-.61-.49l-.59.04q-1.11.07-.32.85"/><path fill="#6d9d6d" d="M311.53 153.65q.59-.1.79-.73.1-.35.38-.13l.32.25q.16.13.09.32-.25.73-.86 1.13-1.38.91-1.86-.81a.32.32 0 0 1 .41-.39q.14.04.24.16a.51.5-22.2 0 0 .49.2"/><ellipse fill="#6d9d6d" rx="1.13" ry=".51" transform="rotate(63.2 26.629 324.224)"/><ellipse fill="#41512e" rx=".3" ry=".26" transform="rotate(101.3 92.984 206.223)"/><path fill="#41512e" d="M318.46 156.2q.19-.02.31.12a.25.24-33.4 0 1-.08.38q-.32.15-.44-.17-.1-.3.21-.33"/><path fill="#0b663e" d="M325.48 163.64q-3.35 1.38-3.56 4.71-.8-.02-1.94-.45 1.01-1.06.5-2-.29-.53.26-.79 1.28-.6 2.63-1.3.12-.07.21-.18.09-.12.08-.27-.02-.25-.27-.27-.6-.05-1.07.25-.78.49-.57-.4.32-1.36 1.27-2.3a.41.4-66.4 0 0-.27-.7q-1.27-.02-2.51.36-.29.09-.37.38-.17.62.45.45.16-.04.31-.02.29.04.15.29-1.39 2.53-4.15 2.72-.15.01-.28.1-.12.08-.13.25-.01.52.5.53 1.16.03 1.34 1.13a.63.63 0 0 1-.24.6l-.31.24q-.48.36-.63-.21-.09-.33-.32-.38-.46-.11-.3.34.34.99.32 1.83l-1.78-.46q.32-.21.04-.55a1.21 1.2 60.4 0 0-1.3-.36q-.69.23-.57.7-.72.1-1.22-.07-1.42-.97.79-1.99.57-.26.24-.8l-.17-.28a.24.23-39.2 0 1 .03-.28q.58-.63 1.4-.3a1.42 1.41-62.6 0 0 1.74-.56q1.27-2.03 1.23-4.39a.72.72 0 0 1 .67-.72q2.41-.2 2.85-2.49z"/><path fill="#41512e" d="M310.24 160.3q.25-.26.58-.09.46.23.02.51-.24.14-.5.04a.28.28 0 0 1-.1-.46"/><path fill="#f44619" d="M319.98 167.9q-.53.5-.8 1.15l-2.6-.5q.02-.84-.32-1.83-.16-.45.3-.34.23.05.32.38.15.57.63.21l.31-.24a.63.63 0 0 0 .24-.6q-.18-1.1-1.34-1.13-.51-.01-.5-.53.01-.17.13-.25.13-.09.28-.1 2.76-.19 4.15-2.72.14-.25-.15-.29-.15-.02-.31.02-.62.17-.45-.45.08-.29.37-.38 1.24-.38 2.51-.36a.41.4-66.4 0 1 .27.7q-.95.94-1.27 2.3-.21.89.57.4.47-.3 1.07-.25.25.02.27.27.01.15-.08.27-.09.11-.21.18-1.35.7-2.63 1.3-.55.26-.26.79.51.94-.5 2"/><path fill="#41512e" d="m313.71 161.07.59-.04a.59.58 83.4 0 1 .61.49q.08.54-.1 1.08a.36.36 0 0 1-.59.14l-.83-.82q-.79-.78.32-.85"/><path fill="#f44619" d="m325.48 163.64 1.02 3.43q-.94.09-1.71-.74-.43-.46-.81.04-.26.35-.34.84-.05.29.23.17l.39-.19a.46.45-34.3 0 1 .51.09q.17.18.13.39-.03.22-.2.36-1.18 1.05-.71 2.87-.73-.06-1.3-.54.29-1.11-.77-2.01.21-3.33 3.56-4.71"/><path fill="#0b663e" d="M326.5 167.07q.49 1.51.4 3.22-2.24-.59-2.75.57l-.16.04q-.47-1.82.71-2.87.17-.14.2-.36.04-.21-.13-.39a.46.45-34.3 0 0-.51-.09l-.39.19q-.28.12-.23-.17.08-.49.34-.84.38-.5.81-.04.77.83 1.71.74"/><path fill="#6d9d6d" d="m314.8 168.09-1.83-.21q-.12-.47.57-.7a1.21 1.2 60.4 0 1 1.3.36q.28.34-.04.55M319.98 167.9q1.14.43 1.94.45 1.06.9.77 2.01l-3.51-1.31q.27-.65.8-1.15"/><path fill="#eb3a10" d="m301.95 168.45-.22 3.52q-.04.51.42.74 6.13 3.11 9.11 9.25-1.19-.2-1.68.23-.47.42.12.63 1.02.38 2.33.31 2.12 4.63 2.72 9.89.39 3.45-.8 7.32-.18.59-.73.28-5.94-3.41-13.22-4.86-1-.19-1.22.8l-.96 4.28q-.12.56.27.97 5.87 6.12 6.68 14.74l-4.36-1.19q-.39-.1-.32.3.07.34.92.77-.16.51-.44.66-.89-.16-1.32.24-.34.3.06.53.38.21.86.16.54-.06.61.48.05.35-.29.5-1.98.89-2.01.87-1.09-.85-1.52-.14-.88.37-1.15-.62.13-1.68 1.78-3.13.4-.35.31-.88-.23-1.24.44-2.24c1.73-2.6 3.41-3.3 2.25-6.93a.44.43 63.9 0 0-.66-.23q-.33.22-.63.02-.68-.47-1.05.27-.74 1.52-2.88 1.14l1.04-3.38q.24.67.5.88a.76.76 0 0 0 1.22-.64q-.05-1.17-1.24-1.9l1.31-9.29q.65 0 .77.7.04.23.19.39.1.11.28 0 .45-.29.34-.82-.37-1.83 1.4-2.13a.87.85-73.4 0 0 .49-.27q.4-.46.26-.89a.66.66 0 0 0-1.07-.28q-.53.47-1.17.36-1.26-.24-.21-.97.5-.34.5-.81.01-.6-.5-.27-.51.32-.77.23l.43-3.1 3.09-2.25q.57-.42.02-.86-.36-.3-.31-.82.05-.54.41-.95.5-.59.58-1.39.02-.24-.19-.35-.15-.08-.29-.02-.32.12-.37.47-.1.81-.75 1.23-.59.39-.38 1.07.24.81.05 1.65a.56.55-72.1 0 1-.75.39q-.53-.22-.68-1.17.02-.54-.22-1l1.75-12.4q.15.2.33.28.2.09.28-.12.05-.15.24-.25m-1.27 11.18q-.14-.07-.29-.05-.33.04-.02.18.14.06.3.01a.08.07 50 0 0 .01-.14M298 217.835a.57.36 26.6 0 0-.349-.577.57.36 26.6 0 0-.67.067.57.36 26.6 0 0 .348.577.57.36 26.6 0 0 .67-.067M326.9 170.29q.09.6-.04.99-.18.52-.73.44-.97-.15-1.98-.86.51-1.16 2.75-.57"/><path fill="#0b663e" d="m299.14 184.94-.04-1.75q.41-.51.47-1.25.15.95.68 1.17a.56.55-72.1 0 0 .75-.39q.19-.84-.05-1.65-.21-.68.38-1.07.65-.42.75-1.23.05-.35.37-.47.14-.06.29.02.21.11.19.35-.08.8-.58 1.39-.36.41-.41.95-.05.52.31.82.55.44-.02.86z"/><path fill="#41512e" d="M300.68 179.63a.08.07 50 0 1-.01.14q-.16.05-.3-.01-.31-.14.02-.18.15-.02.29.05M299.57 181.94q-.06.74-.47 1.25l.25-2.25q.24.46.22 1M311.26 181.96q.59.5.77 1.17-1.31.07-2.33-.31-.59-.21-.12-.63.49-.43 1.68-.23"/><path fill="#0b663e" d="m298.2 192.8.51-4.76q.26.09.77-.23.51-.33.5.27 0 .47-.5.81-1.05.73.21.97.64.11 1.17-.36a.66.66 0 0 1 1.07.28q.14.43-.26.89a.87.85-73.4 0 1-.49.27q-1.77.3-1.4 2.13.11.53-.34.82-.18.11-.28 0-.15-.16-.19-.39-.12-.7-.77-.7"/><path fill="#41512e" d="M296.89 202.09q1.19.73 1.24 1.9a.76.76 0 0 1-1.22.64q-.26-.21-.5-.88.07-.85.48-1.66"/><path fill="#0b663e" d="M295.81 219.11q.09.39-.19.54a.5.5 0 0 1-.72-.36q-.2-1.19.62-2.19a1.18 1.17-28.2 0 0 .26-.84q-.08-.88-.87-1.33a.77.77 0 0 1-.29-1.03l1.54-2.92q.28-.53.84-.3.68.28 1.44.23.84-.07.26-.68l-.46-.48q-.69-.73.32-.68.5.03.89-.2.56-.33-.02-.63-.82-.43-1.36.24-.31.39-.72.11-1.09-.72-2.39.42l.41-1.88q2.14.38 2.88-1.14.37-.74 1.05-.27.3.2.63-.02a.44.43 63.9 0 1 .66.23c1.16 3.63-.52 4.33-2.25 6.93q-.67 1-.44 2.24.09.53-.31.88-1.65 1.45-1.78 3.13"/><path fill="#f44619" d="M295.81 219.11q.27.99 1.15.62.47.75.48 1.98l-4.44-2.28q-.24-.13-1.21.14l3.17-10.56q1.3-1.14 2.39-.42.41.28.72-.11.54-.67 1.36-.24.58.3.02.63-.39.23-.89.2-1.01-.05-.32.68l.46.48q.58.61-.26.68-.76.05-1.44-.23-.56-.23-.84.3l-1.54 2.92a.77.77 0 0 0 .29 1.03q.79.45.87 1.33a1.18 1.17-28.2 0 1-.26.84q-.82 1-.62 2.19a.5.5 0 0 0 .72.36q.28-.15.19-.54"/><path fill="#0b663e" d="m304.77 216.55.14 3.26q-1.79.02-2.8 1.62-.08.12-.21.18-.13.05-.27.04-.41-.03-.18-.37l.26-.38a.43.43 0 0 0-.08-.59q-.62-.5-1.33-.13-.39.21-.38.65.02 1.08-1.24 1.59l-1.24-.71q-.01-1.23-.48-1.98.43-.71 1.52.14.03.02 2.01-.87.34-.15.29-.5-.07-.54-.61-.48-.48.05-.86-.16-.4-.23-.06-.53.43-.4 1.32-.24 1.08.4 2.1 1.28.18.16.37 0l.36-.31q.24-.2-.01-.39-1.14-.88-2.38-1.24-.85-.43-.92-.77-.07-.4.32-.3z"/><path fill="#6d9d6d" d="M300.57 217.09q.28-.15.44-.66 1.24.36 2.38 1.24.25.19.01.39l-.36.31q-.19.16-.37 0-1.02-.88-2.1-1.28"/><ellipse fill="#41512e" rx=".57" ry=".36" transform="rotate(26.6 -311.47 738.026)"/><path fill="#0b663e" d="m293 219.43-.78 7.47q-.05.52.2.97 3.07 5.48 3.15 11.95-1.16-.19-1.62.74-.31.64-1.01.52-.81-.15-1.16.61-.18.39-.34-.01-.08-.2.11-.3.31-.17.34-.52l.17-1.85q.09-.93.57-.14.27.44.69.7 1.06.65.7-.54l-.76-2.53q-.18-.6-.68-.23-.81.59-.72 1.57.02.23-.2.27-.18.04-.35.01a.47.46-86 0 1-.37-.43q-.08-1.09.75-1.56.24-.14.25-.42 0-.16-.04-.31a.46.46 0 0 0-.64-.27q-.67.34-1.07.19l1.6-15.75q.97-.27 1.21-.14"/><path fill="#f44619" d="M304.91 219.81q.21 3.33-.11 6.17-.39 3.39-2.12.46-1.07-1.81-4-4.02 1.26-.51 1.24-1.59-.01-.44.38-.65.71-.37 1.33.13a.43.43 0 0 1 .08.59l-.26.38q-.23.34.18.37.14.01.27-.04.13-.06.21-.18 1.01-1.6 2.8-1.62m-.805 3.51a1.01.7-41.6 0 0-1.22.147 1.01.7-41.6 0 0-.29 1.194 1.01.7-41.6 0 0 1.22-.148 1.01.7-41.6 0 0 .29-1.194"/><ellipse fill="#41512e" rx="1.01" ry=".7" transform="rotate(-41.6 446.504 -287.292)"/><path fill="#f93804" d="M295.57 239.82q.49 4-.34 6.86-1.06 3.63-2.42.11-1.06-2.76-2.91-4.96a.45.45 0 0 0-.79.2l-.68 3.51q-.16.84.37 1.51 2.49 3.18 2.17 7.45-.15 2.04-1.5.51c-1.8-2.05-3.45-3.37-3.2-6.49q.24-2.96 3.92-13.2.4.15 1.07-.19a.46.46 0 0 1 .64.27q.04.15.04.31-.01.28-.25.42-.83.47-.75 1.56a.47.46-86 0 0 .37.43q.17.03.35-.01.22-.04.2-.27-.09-.98.72-1.57.5-.37.68.23l.76 2.53q.36 1.19-.7.54-.42-.26-.69-.7-.48-.79-.57.14l-.17 1.85q-.03.35-.34.52-.19.1-.11.3.16.4.34.01.35-.76 1.16-.61.7.12 1.01-.52.46-.93 1.62-.74m-6.019.214a1.11.69 129.7 0 0 1.24-.413 1.11.69 129.7 0 0 .178-1.295 1.11.69 129.7 0 0-1.24.413 1.11.69 129.7 0 0-.178 1.295m5.3 2.575a.88.55 68.6 0 0 .191-1.02.88.55 68.6 0 0-.833-.618.88.55 68.6 0 0-.191 1.02.88.55 68.6 0 0 .833.618m-2.101.351q.47 1.22 1.57 1.77.82.4.36-.39-.7-1.19-1.93-1.38v-.09q-.01-.1-.09-.18t-.19-.07q-.14.01-.1.15.02.09.09.15.06.06.19.05.05 0 .1-.01"/><ellipse fill="#41512e" rx="1.11" ry=".69" transform="rotate(129.7 88.983 187.728)"/><ellipse fill="#41512e" rx=".88" ry=".55" transform="rotate(68.6 -29.96 336.777)"/><path fill="#eb3a10" d="M292.75 242.96q-.05.01-.1.01-.13.01-.19-.05-.07-.06-.09-.15-.04-.14.1-.15.11-.01.19.07t.09.18z"/><path fill="#41512e" d="M292.75 242.96q1.23.19 1.93 1.38.46.79-.36.39-1.1-.55-1.57-1.77"/></svg>