<svg xmlns="http://www.w3.org/2000/svg" viewBox="0 0 382 382"><g fill="none" stroke-width="2"><path stroke="#5c0724" d="M214.16 66.29q1.62 1.11 3.08.59" vector-effect="non-scaling-stroke"/><path stroke="#66037d" d="M218.03 67.23q-.23 1.78.62 3.06a2.34 2.34 0 0 1-1.01 3.45q-1.17.5-1.43 1.7" vector-effect="non-scaling-stroke"/><path stroke="#6a0701" d="m216.21 75.44-.57.66q-.41.47-.05.86l.58.6a.39.39 0 0 0 .59-.04l.2-.27a.45.45 0 0 0-.09-.62q-.95-.74-.12-.83" vector-effect="non-scaling-stroke"/><path stroke="#66037d" d="M216.75 75.8q.37.81 1.43 1.03a.76.76 0 0 1 .58.53q.09.31-.07.63-.23.47-.02.95.43.96 1.63 1.17a.47.47 0 0 1 .3.73q-.37.54.03 1.21a.8.8 0 0 1 .01.81q-.5.85-1.2 1.3" vector-effect="non-scaling-stroke"/><path stroke="#6a0701" d="M219.44 84.16q-2.63.26-2.34 3.1a1.14 1.14 0 0 0 .53.86q.1.06.23.28a.41.34-15.5 0 1-.37.52l-.57.05q-.5.04-.74.54-.23.5-.13 1.06.11.64.57.18.94-.92 2.82-.99a.1.1 0 0 0 .09-.13q-.55-1.59.25-2.19" vector-effect="non-scaling-stroke"/><path stroke="#66037d" d="m219.78 87.44 3.07 1.57q.41.2.73-.13.31-.32.68-.49.47-.21.83.16 1.66 1.75 1.73 4.21" vector-effect="non-scaling-stroke"/><path stroke="#6a0701" d="M226.82 92.76q-.42 1.4-.21 2.7.08.49-.31.78-.93.7-1.02 1.29a.51.51 0 0 0 .65.56q2.87-.81 3.7 1.99.1.33.87.57.55.18.49-.4-.19-1.78-.83-2.84-.26-.43 0-.88l.71-1.2a.82.82 0 0 0-.6-1.23q-1.4-.18-1.63-1.69" vector-effect="non-scaling-stroke"/><path stroke="#66037d" d="m228.64 92.41 2.55-4.98" vector-effect="non-scaling-stroke"/><path stroke="#6a0701" d="M231.19 87.43q1.47.42 2.2 1.23.34.37.84.3.69-.09.74-1 .08-1.64-1.7-2.9" vector-effect="non-scaling-stroke"/><path stroke="#66037d" d="M233.27 85.06q-.6-1.08-.81-2.16" vector-effect="non-scaling-stroke"/><path stroke="#6a0701" d="M232.46 82.9q1.16-.79 1.41-1.86.12-.5-.35-.7l-1.78-.79q-.41-.18-.77.21-.24.27-.42.7" vector-effect="non-scaling-stroke"/><path stroke="#66037d" d="M230.55 80.46q-.75.41-1.2.34-.4-.07-.44-.94-.16-3.4 2.46-6.44.27-.31.68-.37 2.46-.34 4.24-2.29M239.34 71.11q-.53 1.22-.29 2.83.14.94.84 1.58.56.51.82.59a.5.47 5.1 0 0 .66-.51l-.32-2a.62.61 88 0 1 .65-.71l1.51.14q.85.08.85.88 0 .78.18 1.15.36.74.61.05.02-.08.06-.5.07-.77.76-.42.36.19.59 1.15a.56.56 0 0 0 .71.41q1.16-.36 1.74-1.14.3-.39.17-.87l-1.04-4.03M253.37 74.15q-1.15 1.13-.64 1.99.26.45.08.85l-.23.51a.32.3-8.6 0 0 .49.34q.55-.44.91-1.37a.54.54 0 0 1 .13-.19q.29-.27.63-.08a.5.5 0 0 1 .27.44q-.02 1.54.65 2.89.25.49-.16.82l-1.3 1.11q-.16.13.03.25l.28.17q.47.29.44.76-.1 1.52.6 2.56.31.47-.14.81-.24.18-.69.27" vector-effect="non-scaling-stroke"/><path stroke="#5c0724" d="M254.72 86.28q-.82-.28-1.29.11-.52.43.04.82l.4.28" vector-effect="non-scaling-stroke"/><path stroke="#66037d" d="M253.87 87.49q-.49 4.49-1.33 7.8-.19.79-1 1.25" vector-effect="non-scaling-stroke"/><path stroke="#7a0911" d="M251.54 96.54q-.57.22-.96.62-.53.54.23.58l.65.04" vector-effect="non-scaling-stroke"/><path stroke="#66037d" d="M251.46 97.78q2.99 1.24 2.74 3.66" vector-effect="non-scaling-stroke"/><path stroke="#6a0701" d="M254.2 101.44q-1.21.95-1.04 2.84.06.62.66.68l1.57.16a.36.34-14.8 0 0 .34-.55q-1.04-1.34-.74-2.58" vector-effect="non-scaling-stroke"/><path stroke="#66037d" d="M254.99 101.99q2.43-.93 3.3-2.99.2-.45-.16-.79-1.05-1.02-1.14-2.34a.83.83 0 0 1 1.22-.8q1.63.87 3.09-.79a.37.37 0 0 1 .64.23l.09 2.77q.03.77.68.35.78-.5 1.33-.55.56-.06.92.37.8.95 1.49 1.3a.37.36-76.1 0 0 .53-.33l.03-1.74q.02-.69.66-.38l1.88.92a.8.77 17.5 0 1 .44.82q-.07.49-.34.79-.4.44-.19.94l1.12 2.63q.16.39-.3.53l-.52.16q-.73.23-.15.97l.21.26q.24.31.07.74-.3.79-.67 1.03-.44.28-.31.8.08.34-.62 1.71-1.87 3.62-.18 5.77" vector-effect="non-scaling-stroke"/><path stroke="#6a0701" d="M268.11 114.37q-.46 1.42 2.2 2.2.5.14.56-.37.13-1.14-.39-2.28" vector-effect="non-scaling-stroke"/><path stroke="#66037d" d="M270.48 113.92q-.75-1.71.5-2.52a.77.77 0 0 1 .69-.08q1.91.72 2.4 1.72.33.67.83.93l1.37.71q.26.13.49-.34l.21-.47q.26-.61.58-.78.62-.33 1.22.07a.91.7-71.1 0 1 .29.86q-.05.3-.42.85a1.43 1.43 0 0 0-.23.93q.38 3.77-.81 8.26" vector-effect="non-scaling-stroke"/><path stroke="#6a0701" d="M277.6 124.06q-.46.04-.77.24-.46.3-.18.64l1.29 1.56q.34.41-.01.87-1.07 1.42-.76 3.26a.2.2 0 0 0 .27.15l.33-.13q.26-.11.24-.38-.14-2.16 1.26-3.15.61-.43.94.25.12.26.36.36.58.25-.12-.44-.8-.78-.63-2.51" vector-effect="non-scaling-stroke"/><path stroke="#66037d" d="M279.82 124.78q.72-1.91 3.83-.05.79.48 1.12-.38.65-1.67 1.67-1.32.49.17.62.67.17.62.45 1.39.23.66.24 1.35.08 2.97-.06 6.71" vector-effect="non-scaling-stroke"/><path stroke="#6a0701" d="M287.69 133.15q1.69 2.84.86 5.05-.18.48.13.89l.48.63M170.71 157.8q.88-.71 2.02-1.07.8-.26 1.22-1.9.11-.42-.31-.5-.24-.05-.72.27-.4.26-.79-.08l-.61-.52a.63.61 34.2 0 1-.15-.75l.17-.34q.32-.63-.38-.81-.58-.16-1.03.29-.69.68-1.01.57" vector-effect="non-scaling-stroke"/><path stroke="#66037d" d="M169.12 152.96q-.57-2.87 1.03-4.97.31-.41.2-.9l-.1-.44q-.17-.65.5-.64 1.02.01 1.88.4a.5.5 0 0 0 .71-.49q-.15-2.25 1.02-4.58" vector-effect="non-scaling-stroke"/><path stroke="#5c0724" d="M174.36 141.34q.51-1.07.24-1.84-.14-.37-.41-.09-.18.19-.29.64" vector-effect="non-scaling-stroke"/><path stroke="#66037d" d="m173.9 140.05-.29-.19a.34.34 0 0 1-.07-.52q.74-.8.52-2.68-.1-.93.63-.35 1.03.8 2.2-.73a.67.67 0 0 1 .88-.17q.38.23.33.8" vector-effect="non-scaling-stroke"/><path stroke="#5c0724" d="M178.1 136.21q.07.52.5.37.26-.09.13-.36" vector-effect="non-scaling-stroke"/><path stroke="#66037d" d="M178.73 136.22q.33-1.28 1.13-.84.27.15.28.8" vector-effect="non-scaling-stroke"/><path stroke="#6a0701" d="M180.14 136.18q-.26 1.2.22 1.54a.42.42 0 0 0 .62-.17q.18-.4.27-.44.57-.29.7.44l.22 1.27q.32 1.85 1.33.12.24-.42.9-.67.62-.23.57.43-.1 1.39.2 2.65.07.31.39.59.29.25.64.21.59-.05.38-.67l-.19-.56a.99.79 56.7 0 1 .08-.81q1.37-1.95 1-3.27-.34-1.25 1.05-.59l2.88 1.36a.35.34-81.3 0 0 .49-.36q-.28-2.23 1.71-2.44.02 0 .69-.49.3-.22.57-.51.46-.51-.22-.65-2.41-.51-3.98.38-.48.27-.6-.27-.28-1.27-1.46-2.24-.44-.37-.16-.87.58-1.02.55-1.47a.38.38 0 0 0-.58-.29q-1.38.92-2.63.06-.83-.56-.46.1.14.26.36.35a.41.41 0 0 1 .11.68q-.89.77-.28 1.47.37.44-.09.78-.51.37-1.43.2" vector-effect="non-scaling-stroke"/><path stroke="#66037d" d="m183.99 132.04-1.56-4.77q-.14-.43.12-.8l.16-.23" vector-effect="non-scaling-stroke"/><path stroke="#5c0724" d="M182.71 126.24q1.33-.55 1.13-1.5-.1-.49-.87-.43" vector-effect="non-scaling-stroke"/><path stroke="#66037d" d="M182.97 124.31q-1.35-.87-.61-1.6" vector-effect="non-scaling-stroke"/><path stroke="#6a0701" d="M182.36 122.71q.9-1.06-.73-2.38-.44-.35-.65-.12-.2.22-.13.91" vector-effect="non-scaling-stroke"/><path stroke="#66037d" d="M180.85 121.12q-.39-.1-.61-.39-.32-.44-.14-.94.51-1.42.21-2.95-.11-.52.33-.83l1.71-1.18" vector-effect="non-scaling-stroke"/><path stroke="#6a0701" d="M182.35 114.83q1.12-1.48 1.64-3.04a1.24 1.24 0 0 1 2.1-.43q.38.44.66.55a.48.17 49.6 0 0-.26-.66q-2.29-1.71-1.2-4.47 1.01-2.55.76-5.28-.03-.35-.33-.4a.44.44 0 0 0-.51.4q-.13 2.83-2.67 3.67-.48.16-.5.69l-.12 2.57q-.02.46-.46.64-.61.23-1.43-.03" vector-effect="non-scaling-stroke"/><path stroke="#66037d" d="M180.03 109.04q-.19-.21-.26-.17" vector-effect="non-scaling-stroke"/><path stroke="#7a0911" d="M179.77 108.87q.46-1.58-.77-1.7-1.88-.19-1.71.62" vector-effect="non-scaling-stroke"/><path stroke="#66037d" d="M177.29 107.79q-1.17 3-1.74-2.15" vector-effect="non-scaling-stroke"/><path stroke="#6a0701" d="M175.55 105.64q1.21-3.22-.84-5.47-.41-.45-.68.1-.18.35-.45.62-.4.39-.1.86.98 1.59.38 3.16" vector-effect="non-scaling-stroke"/><path stroke="#66037d" d="m173.86 104.91-.77.05" vector-effect="non-scaling-stroke"/><path stroke="#5c0724" d="m173.09 104.96-.18-.41q-.15-.32-.48-.17-.14.07-.22.24-.06.13 0 .25l.31.65" vector-effect="non-scaling-stroke"/><path stroke="#66037d" d="M172.52 105.52q-.83 1.16-2 1.19" vector-effect="non-scaling-stroke"/><path stroke="#6a0701" d="M170.52 106.71q.83-1.2.16-2.43a.54.42-11.9 0 0-.46-.22l-.61.02q-.51.01-.27.39.69 1.08.94 2.32" vector-effect="non-scaling-stroke"/><path stroke="#66037d" d="M170.28 106.79q-.18.66-.59 1.27" vector-effect="non-scaling-stroke"/><path stroke="#6a0701" d="M169.69 108.06q-.64-.02-1.12.19-.57.24-.09.64.86.73.66 2.11-.05.32.16.57.16.2.35.18.45-.06.39-.52l-.32-2.45" vector-effect="non-scaling-stroke"/><path stroke="#66037d" d="M169.72 108.78q.28 1.15 1 1.95.31.36.25.83-.39 2.85-2.7 2.55-.59-.07-1.07.21l-.5.3q-.55.32-.6-.29l-.18-2.13a1.14.95-77.9 0 0-.41-.79q-1.6-1.16-2.84-.69a.5.47-1.5 0 1-.66-.59l1.76-4.85q.18-.49-.25-.74l-.42-.23q-.4-.23-.53-.8l-.83-3.51q-.25-1.05-.64-.32-.12.23-.1.72.01.22-.19.25l-.25.04q-.3.04-.34-.22-.27-1.84-.79-2.65-.38-.58.31-.7.97-.16 1.3-1.26.16-.52.71-.53 3.46-.08 4.64-3.72.18-.56-.41-.47-.62.1-.95.34-1.16.89-1.04-.56.15-1.81-.5-2.95-.25-.46.01-.92.82-1.4 1.88-.8a.23.16 8.9 0 0 .34-.16l-.39-.69q-.26-.46-.16-1.02l.8-4.5a.81.81 0 0 0-1.19-.84l-1.11.63q-.48.27-.65-.2l-.57-1.55q-.17-.47.09-.97.54-1.02.49-2.27M172.88 74.27l.37 1.13q.15.46.33.01.1-.28-.03-.52-.34-.63.49-.71l1.43-.16q.69-.07.4.66l-.27.7q-.13.35.14.52.1.06.25.07.2.01.51-.19.6-.39.82-.49.61-.29.71.39l.23 1.59q.11.8.43.05.59-1.41 2.13-2.89.32-.31.28-.74l-.24-2.95a.88.39-1.5 0 0-.87-.36q-.42.01-1.21.4a.46.45 72.6 0 1-.66-.34q-.15-1.05.17-2.58" vector-effect="non-scaling-stroke"/><path stroke="#d00a7e" d="m169.72 108.78-.03-.72M170.28 106.79l.24-.08" vector-effect="non-scaling-stroke"/><path stroke="#c10aa1" d="M172.52 105.52q.36-.14.57-.56" vector-effect="non-scaling-stroke"/><path stroke="#d00a7e" d="M173.86 104.91q.82-.1 1.69.73" vector-effect="non-scaling-stroke"/><path stroke="#df0b8d" d="M177.29 107.79q1.17-.14 2.48 1.08" vector-effect="non-scaling-stroke"/><path stroke="#d00a7e" d="M180.03 109.04q.92 1.79 2.32 2.27a.98.98 0 0 1 .13 1.8q-.75.38-.13 1.72M180.85 121.12q.47.88 1.51 1.59" vector-effect="non-scaling-stroke"/><path stroke="#c10aa1" d="m182.97 124.31-.26 1.93" vector-effect="non-scaling-stroke"/><path stroke="#d00a7e" d="M183.99 132.04q.34 4.41-3.85 4.14" vector-effect="non-scaling-stroke"/><path stroke="#c10aa1" d="M178.73 136.22q-.32-.06-.63-.01M173.9 140.05l.46 1.29" vector-effect="non-scaling-stroke"/><path stroke="#d00a7e" d="M169.12 152.96q-1.44 2.84-3.64 1.49" vector-effect="non-scaling-stroke"/><path stroke="#66037d" d="m165.48 154.45-.69-.74" vector-effect="non-scaling-stroke"/><path stroke="#d00a7e" d="M164.79 153.71q.24-1.35-.48-2.02" vector-effect="non-scaling-stroke"/><path stroke="#66037d" d="m164.31 151.69-.71-3.19q-.13-.57-.6-.78l-.49-.22q-.53-.23-.31-.74l.73-1.73a.33.32 89.2 0 0-.44-.43l-1.85.87q-.47.22-.53-.3l-.17-1.48q-.08-.75-.75-.46l-1.63.72a.92.85 69.5 0 0-.45 1.09l.35 1.1a1.6 1.56-9.9 0 1-1.46 2.03q-1.13.05-1.34.79" vector-effect="non-scaling-stroke"/><path stroke="#c10aa1" d="M154.66 148.96h-.54" vector-effect="non-scaling-stroke"/><path stroke="#66037d" d="M154.12 148.96q-.04-.33-.2-.49-.36-.4-.76-.03c-1.41 1.29-4.48 2.77-2.73 5.23M146.95 153.77q-.07-1.4-1.06-2.89-.28-.43 0-.86.58-.89-.1-1.92-.29-.45-.04-.93l.76-1.47q.23-.42-.08-.75l-.96-1.04a.6.53-51.8 0 1-.04-.68q.56-.93.51-1.59-.06-.7-.77-.56l-1.55.32q-.61.12-.5-.54.26-1.45-.11-2.91-.2-.76-.61-.06l-.3.52a.93.88-73.9 0 1-.78.46q-1.16-.01-1.3.86-.05.33.28.92.31.55.42.76a1.01 1.01 0 0 1-.92 1.48q-1.9-.05-3.19.68-.53.3-.58-.31-.1-1.21-1.09-1.25-.58-.02-.76.56l-.41 1.3q-.14.43-.57.39l-.59-.05q-.68-.06-.61.56l.52 4.04" vector-effect="non-scaling-stroke"/><path stroke="#d00a7e" d="M132.52 148.81q-.07 1.63-.96 2.93-.29.43-.81.46l-.46.02" vector-effect="non-scaling-stroke"/><path stroke="#66037d" d="M130.29 152.22q-.11-.5-.34-.78-.39-.45-.78-.06l-.32.32a.56.53 49.1 0 1-.83-.08l-.41-.54a.46.44-47.6 0 0-.74.05q-.33.52-.92.51-.65 0-.17-.45l1.74-1.64q.36-.35.42-.81.16-1.35-1.25-2.73-.44-.42-.09-.92l.96-1.37q.29-.41-.06-.77l-.85-.85q-.35-.35-.15-.84.96-2.43-.76-3.28-.6-.29-.36-.91 1.39-3.64-1.7-4.1-.49-.07-.61-.49l-1.22-4.27a.27.25-18.5 0 0-.35-.16q-.13.05-.22.12-.2.16-.23.46-.17 1.47-.97 2.84-.3.5-.79.19l-.56-.35q-.63-.4-.73.36-.23 1.8 1.37 3.46.43.44-.18.53-2.05.29-2.28 1.64-.12.72-.69.26-1.02-.8-1.83.61-.28.48-.01.98.55 1.01-.37 2.25-.26.35-.46-.04-1.06-2.13-2.16-3.5-.43-.54-.93-.71-.69-.23-.55.49.75 3.72-2.1 4.42a.83.83 0 0 0-.63.7q-.28 2.32-.12 4.57.02.26.29.49.22.18.5.17.59-.01.56-.61l-.02-.45q-.04-.93.5-.24 1.16 1.47 1.72 3.36M98.98 145.89q-.48-2.58-2.5-2.84-.51-.07-.26-.52.89-1.66 1.7-3.29.32-.65-.09-.95-.35-.26-.72-.03l-.33.2a.33.32-25 0 1-.47-.17q-.52-1.58-1.76-.98" vector-effect="non-scaling-stroke"/><path stroke="#df0b8d" d="M94.55 137.31q-.58.05-1.4-.16" vector-effect="non-scaling-stroke"/><path stroke="#66037d" d="M93.15 137.15q-.02-2.12 1.41-4.43.28-.44-.11-.79-.17-.15-.43-.24" vector-effect="non-scaling-stroke"/><path stroke="#c10aa1" d="m94.02 131.69-.15-.4" vector-effect="non-scaling-stroke"/><path stroke="#66037d" d="M93.87 131.29q.28-.6.11-.9a.53.53 0 0 0-.82-.15q-.17.15-.2.64" vector-effect="non-scaling-stroke"/><path stroke="#c10aa1" d="M92.96 130.88q-.29.27-.68.41" vector-effect="non-scaling-stroke"/><path stroke="#66037d" d="M92.28 131.29q-1.24-.74-2.33-.45a.71.34-10.1 0 0-.52.37l-.75 4.12q-.09.52-.38.01-1.17-2.06-1.8-3.52-.18-.39-.17-.44.02-.15.12-.29.31-.44.07-.92-.97-1.9-.88-3.3.03-.52-.45-.7-1.9-.74-2.35-2.88-.02-.07-.08-.11-.12-.08-.29-.07-.23.02-.29.24l-.89 3.35q-.13.5.16 1.02.94 1.7-.8 3.16-1.06.9-.06 2.05.09.1-.02.18-.13.11-.24 0-.25-.27-.59-.11-1.97.93-1.07 2.38.27.41.27.98v2.01q.01.63.71.45 1.31-.34 2.43-1.27.52-.43.34.22-.78 2.68.23 5.3M292.76 129.16q-1.95 1.26-3.21 3.04" vector-effect="non-scaling-stroke"/><path stroke="#d00a7e" d="M289.55 132.2q-.29.34-1.86.95M279.82 124.78q-.96.68-2.22-.72M270.48 113.92q-.43 1.22-2.37.45M254.99 101.99q-.24-.33-.79-.55" vector-effect="non-scaling-stroke"/><path stroke="#e00c8e" d="M251.46 97.78q.27-.63.08-1.24" vector-effect="non-scaling-stroke"/><path stroke="#c20aa1" d="M253.87 87.49q.16-.64.85-1.21" vector-effect="non-scaling-stroke"/><path stroke="#d00a7e" d="M230.55 80.46q1.49.61 1.91 2.44M233.27 85.06q.28 1.8-2.08 2.37M228.64 92.41q-1.13.55-1.82.35M219.78 87.44q-1.16-.83-.34-3.28M216.75 75.8q-.22-.29-.54-.36" vector-effect="non-scaling-stroke"/><path stroke="#6a0701" d="M164.31 151.69q-.92.38-1.12 1t.39.95q.49.28 1.21.07M165.48 154.45q-.2.54-.72.9" vector-effect="non-scaling-stroke"/><path stroke="#5c0724" d="M154.12 148.96q0 .27.07.41.24.52.44-.06.05-.14.03-.35" vector-effect="non-scaling-stroke"/><path stroke="#6a0701" d="M130.29 152.22q-.11.37-.5.74" vector-effect="non-scaling-stroke"/><path stroke="#5c0724" d="M92.28 131.29q.8.84 1.74.4" vector-effect="non-scaling-stroke"/><path stroke="#7a0911" d="M93.15 137.15q-.05 1.25.29 1.64a.75.75 0 0 0 1.26-.19q.3-.67-.15-1.29" vector-effect="non-scaling-stroke"/><path stroke="#6a0701" d="M132.46 153.14q.46-.71 3.07-1.83a.54.54 0 0 0-.05-1.02q-1.34-.41-2.13-2.04a.38.38 0 0 0-.69-.02q-.1.2-.14.58" vector-effect="non-scaling-stroke"/><path stroke="#5c0724" d="M93.87 131.29q-.34-.33-.91-.41" vector-effect="non-scaling-stroke"/><path stroke="#6a0701" d="M291.47 133.31q-1.11-.27-1.92-1.11" vector-effect="non-scaling-stroke"/><path stroke="#7a0911" d="M181.47 74.14a.28.28 0 0 0-.09.52q.51.33 1.15.16.56-.14.09-.47-.5-.35-1.15-.21" vector-effect="non-scaling-stroke"/><path stroke="#5c0724" d="M241.29 77.2q-.39.35.01.53a.25.25 0 0 0 .28-.06q.3-.31.11-.47a.3.3 0 0 0-.4 0M253.2 82.34a.2.2 0 0 0 .1.29q.38.14.61-.26a.26.26 0 0 0-.23-.4q-.28 0-.48.37M215.33 92.36a.25.24-75.5 0 0 .24.41q.19-.05.33-.31.14-.25.01-.41a.18.15 48.9 0 0-.24-.03l-.34.34M165.85 94.23q-.09.41.49.56a.41.41 0 0 0 .52-.45q-.03-.21-.35-.4a.45.45 0 0 0-.66.29M174.08 98.87q-.21-.89-.71-.66a.38.38 0 0 0-.17.54q.25.43.71.38a.21.21 0 0 0 .17-.26M264.32 98.52a.15.15 0 0 0 .17.12q.21-.04.26-.18.06-.2-.15-.2-.33.01-.28.26" vector-effect="non-scaling-stroke"/><path stroke="#7a0911" d="M258.671 102.566a1.16.56 58.2 0 0-.135-1.281 1.16.56 58.2 0 0-1.087-.69 1.16.56 58.2 0 0 .135 1.28 1.16.56 58.2 0 0 1.087.69M253.63 106.87l.81.84q.31.33.52-.34.12-.38-.11-.7-.43-.6-1.16-.61-.86-.02-.06.81" vector-effect="non-scaling-stroke"/><path stroke="#5c0724" d="M267.72 108.19q-.35.14-.43.34-.26.62.45.47.32-.07.41-.45a.31.31 0 0 0-.43-.36" vector-effect="non-scaling-stroke"/><path stroke="#6a0701" d="M265.41 111.36q-.26.25.05.4.81.42 1.48-.36.26-.3.15-.78-.16-.76-.71-.23l-.97.97M267.12 117.44q-.01.83.06.97.27.55.72.15.83-.75.83-1.1.01-.35-.8-1.12-.44-.41-.73.14-.07.14-.08.96" vector-effect="non-scaling-stroke"/><path stroke="#5c0724" d="M122.48 133.13q-.26.24-.33.4a.24.24 0 0 0 .32.31q.56-.26.35-.65a.22.22 0 0 0-.34-.06M110.32 146.24q-.29.28.12.49.14.07.29-.02.1-.06.12-.22a.31.31 0 0 0-.53-.25" vector-effect="non-scaling-stroke"/></g><path d="M214.16 66.29q1.62 1.11 3.08.59.43 0 .79.35-.23 1.78.62 3.06a2.34 2.34 0 0 1-1.01 3.45q-1.17.5-1.43 1.7l-.57.66q-.41.47-.05.86l.58.6a.39.39 0 0 0 .59-.04l.2-.27a.45.45 0 0 0-.09-.62q-.95-.74-.12-.83.37.81 1.43 1.03a.76.76 0 0 1 .58.53q.09.31-.07.63-.23.47-.02.95.43.96 1.63 1.17a.47.47 0 0 1 .3.73q-.37.54.03 1.21a.8.8 0 0 1 .01.81q-.5.85-1.2 1.3-2.63.26-2.34 3.1a1.14 1.14 0 0 0 .53.86q.1.06.23.28a.41.34-15.5 0 1-.37.52l-.57.05q-.5.04-.74.54-.23.5-.13 1.06.11.64.57.18.94-.92 2.82-.99a.1.1 0 0 0 .09-.13q-.55-1.59.25-2.19l3.07 1.57q.41.2.73-.13.31-.32.68-.49.47-.21.83.16 1.66 1.75 1.73 4.21-.42 1.4-.21 2.7.08.49-.31.78-.93.7-1.02 1.29a.51.51 0 0 0 .65.56q2.87-.81 3.7 1.99.1.33.87.57.55.18.49-.4-.19-1.78-.83-2.84-.26-.43 0-.88l.71-1.2a.82.82 0 0 0-.6-1.23q-1.4-.18-1.63-1.69l2.55-4.98q1.47.42 2.2 1.23.34.37.84.3.69-.09.74-1 .08-1.64-1.7-2.9-.6-1.08-.81-2.16 1.16-.79 1.41-1.86.12-.5-.35-.7l-1.78-.79q-.41-.18-.77.21-.24.27-.42.7-.75.41-1.2.34-.4-.07-.44-.94-.16-3.4 2.46-6.44.27-.31.68-.37 2.46-.34 4.24-2.29 1.73-.6 3.05.35-.53 1.22-.29 2.83.14.94.84 1.58.56.51.82.59a.5.47 5.1 0 0 .66-.51l-.32-2a.62.61 88 0 1 .65-.71l1.51.14q.85.08.85.88 0 .78.18 1.15.36.74.61.05.02-.08.06-.5.07-.77.76-.42.36.19.59 1.15a.56.56 0 0 0 .71.41q1.16-.36 1.74-1.14.3-.39.17-.87l-1.04-4.03 5.53 4.44q-1.15 1.13-.64 1.99.26.45.08.85l-.23.51a.32.3-8.6 0 0 .49.34q.55-.44.91-1.37a.54.54 0 0 1 .13-.19q.29-.27.63-.08a.5.5 0 0 1 .27.44q-.02 1.54.65 2.89.25.49-.16.82l-1.3 1.11q-.16.13.03.25l.28.17q.47.29.44.76-.1 1.52.6 2.56.31.47-.14.81-.24.18-.69.27-.82-.28-1.29.11-.52.43.04.82l.4.28q-.49 4.49-1.33 7.8-.19.79-1 1.25-.57.22-.96.62-.53.54.23.58l.65.04q2.99 1.24 2.74 3.66-1.21.95-1.04 2.84.06.62.66.68l1.57.16a.36.34-14.8 0 0 .34-.55q-1.04-1.34-.74-2.58 2.43-.93 3.3-2.99.2-.45-.16-.79-1.05-1.02-1.14-2.34a.83.83 0 0 1 1.22-.8q1.63.87 3.09-.79a.37.37 0 0 1 .64.23l.09 2.77q.03.77.68.35.78-.5 1.33-.55.56-.06.92.37.8.95 1.49 1.3a.37.36-76.1 0 0 .53-.33l.03-1.74q.02-.69.66-.38l1.88.92a.8.77 17.5 0 1 .44.82q-.07.49-.34.79-.4.44-.19.94l1.12 2.63q.16.39-.3.53l-.52.16q-.73.23-.15.97l.21.26q.24.31.07.74-.3.79-.67 1.03-.44.28-.31.8.08.34-.62 1.71-1.87 3.62-.18 5.77-.46 1.42 2.2 2.2.5.14.56-.37.13-1.14-.39-2.28-.75-1.71.5-2.52a.77.77 0 0 1 .69-.08q1.91.72 2.4 1.72.33.67.83.93l1.37.71q.26.13.49-.34l.21-.47q.26-.61.58-.78.62-.33 1.22.07a.91.7-71.1 0 1 .29.86q-.05.3-.42.85a1.43 1.43 0 0 0-.23.93q.38 3.77-.81 8.26-.46.04-.77.24-.46.3-.18.64l1.29 1.56q.34.41-.01.87-1.07 1.42-.76 3.26a.2.2 0 0 0 .27.15l.33-.13q.26-.11.24-.38-.14-2.16 1.26-3.15.61-.43.94.25.12.26.36.36.58.25-.12-.44-.8-.78-.63-2.51.72-1.91 3.83-.05.79.48 1.12-.38.65-1.67 1.67-1.32.49.17.62.67.17.62.45 1.39.23.66.24 1.35.08 2.97-.06 6.71 1.69 2.84.86 5.05-.18.48.13.89l.48.63q-3.29 8.21-4.74 16.93-.6 3.64-1.22 4.61c-2.2 3.42-7.81 3.25-10.95 1.82-4.82-2.19-6.99-3.52-11.52-.54q-2.91 1.93-6.9 3.04-3.44.96-8.15.02-6.13-1.21-8.05-1.93-7.46-2.82-10-3.46-5.85-1.48-13.02-.36-10.1 1.57-11.2 1.73-6.12.89-11.32.65-10.92-.49-21.38-4.43.88-.71 2.02-1.07.8-.26 1.22-1.9.11-.42-.31-.5-.24-.05-.72.27-.4.26-.79-.08l-.61-.52a.63.61 34.2 0 1-.15-.75l.17-.34q.32-.63-.38-.81-.58-.16-1.03.29-.69.68-1.01.57-.57-2.87 1.03-4.97.31-.41.2-.9l-.1-.44q-.17-.65.5-.64 1.02.01 1.88.4a.5.5 0 0 0 .71-.49q-.15-2.25 1.02-4.58.51-1.07.24-1.84-.14-.37-.41-.09-.18.19-.29.64l-.29-.19a.34.34 0 0 1-.07-.52q.74-.8.52-2.68-.1-.93.63-.35 1.03.8 2.2-.73a.67.67 0 0 1 .88-.17q.38.23.33.8.07.52.5.37.26-.09.13-.36.33-1.28 1.13-.84.27.15.28.8-.26 1.2.22 1.54a.42.42 0 0 0 .62-.17q.18-.4.27-.44.57-.29.7.44l.22 1.27q.32 1.85 1.33.12.24-.42.9-.67.62-.23.57.43-.1 1.39.2 2.65.07.31.39.59.29.25.64.21.59-.05.38-.67l-.19-.56a.99.79 56.7 0 1 .08-.81q1.37-1.95 1-3.27-.34-1.25 1.05-.59l2.88 1.36a.35.34-81.3 0 0 .49-.36q-.28-2.23 1.71-2.44.02 0 .69-.49.3-.22.57-.51.46-.51-.22-.65-2.41-.51-3.98.38-.48.27-.6-.27-.28-1.27-1.46-2.24-.44-.37-.16-.87.58-1.02.55-1.47a.38.38 0 0 0-.58-.29q-1.38.92-2.63.06-.83-.56-.46.1.14.26.36.35a.41.41 0 0 1 .11.68q-.89.77-.28 1.47.37.44-.09.78-.51.37-1.43.2l-1.56-4.77q-.14-.43.12-.8l.16-.23q1.33-.55 1.13-1.5-.1-.49-.87-.43-1.35-.87-.61-1.6.9-1.06-.73-2.38-.44-.35-.65-.12-.2.22-.13.91-.39-.1-.61-.39-.32-.44-.14-.94.51-1.42.21-2.95-.11-.52.33-.83l1.71-1.18q1.12-1.48 1.64-3.04a1.24 1.24 0 0 1 2.1-.43q.38.44.66.55a.48.17 49.6 0 0-.26-.66q-2.29-1.71-1.2-4.47 1.01-2.55.76-5.28-.03-.35-.33-.4a.44.44 0 0 0-.51.4q-.13 2.83-2.67 3.67-.48.16-.5.69l-.12 2.57q-.02.46-.46.64-.61.23-1.43-.03-.19-.21-.26-.17.46-1.58-.77-1.7-1.88-.19-1.71.62-1.17 3-1.74-2.15 1.21-3.22-.84-5.47-.41-.45-.68.1-.18.35-.45.62-.4.39-.1.86.98 1.59.38 3.16l-.77.05-.18-.41q-.15-.32-.48-.17-.14.07-.22.24-.06.13 0 .25l.31.65q-.83 1.16-2 1.19.83-1.2.16-2.43a.54.42-11.9 0 0-.46-.22l-.61.02q-.51.01-.27.39.69 1.08.94 2.32-.18.66-.59 1.27-.64-.02-1.12.19-.57.24-.09.64.86.73.66 2.11-.05.32.16.57.16.2.35.18.45-.06.39-.52l-.32-2.45q.28 1.15 1 1.95.31.36.25.83-.39 2.85-2.7 2.55-.59-.07-1.07.21l-.5.3q-.55.32-.6-.29l-.18-2.13a1.14.95-77.9 0 0-.41-.79q-1.6-1.16-2.84-.69a.5.47-1.5 0 1-.66-.59l1.76-4.85q.18-.49-.25-.74l-.42-.23q-.4-.23-.53-.8l-.83-3.51q-.25-1.05-.64-.32-.12.23-.1.72.01.22-.19.25l-.25.04q-.3.04-.34-.22-.27-1.84-.79-2.65-.38-.58.31-.7.97-.16 1.3-1.26.16-.52.71-.53 3.46-.08 4.64-3.72.18-.56-.41-.47-.62.1-.95.34-1.16.89-1.04-.56.15-1.81-.5-2.95-.25-.46.01-.92.82-1.4 1.88-.8a.23.16 8.9 0 0 .34-.16l-.39-.69q-.26-.46-.16-1.02l.8-4.5a.81.81 0 0 0-1.19-.84l-1.11.63q-.48.27-.65-.2l-.57-1.55q-.17-.47.09-.97.54-1.02.49-2.27 1.5.52 2.96 1.2 1.94.93 2.96 1.01 3.02.24 3.93-2.62l.37 1.13q.15.46.33.01.1-.28-.03-.52-.34-.63.49-.71l1.43-.16q.69-.07.4.66l-.27.7q-.13.35.14.52.1.06.25.07.2.01.51-.19.6-.39.82-.49.61-.29.71.39l.23 1.59q.11.8.43.05.59-1.41 2.13-2.89.32-.31.28-.74l-.24-2.95a.88.39-1.5 0 0-.87-.36q-.42.01-1.21.4a.46.45 72.6 0 1-.66-.34q-.15-1.05.17-2.58 2.72-1.11 5.12.24 2.25 1.27 4.21 2.3a1.17 1.17 0 0 0 .97.06q1.46-.57 6.87-3.01 3.64-1.64 8.27-1 5.33.74 10.43-.16m-32.69 7.85a.28.28 0 0 0-.09.52q.51.33 1.15.16.56-.14.09-.47-.5-.35-1.15-.21m59.82 3.06q-.39.35.01.53a.25.25 0 0 0 .28-.06q.3-.31.11-.47a.3.3 0 0 0-.4 0m11.91 5.14a.2.2 0 0 0 .1.29q.38.14.61-.26a.26.26 0 0 0-.23-.4q-.28 0-.48.37m-37.87 10.02a.25.24-75.5 0 0 .24.41q.19-.05.33-.31.14-.25.01-.41a.18.15 48.9 0 0-.24-.03zm-49.48 1.87q-.09.41.49.56a.41.41 0 0 0 .52-.45q-.03-.21-.35-.4a.45.45 0 0 0-.66.29m8.23 4.64q-.21-.89-.71-.66a.38.38 0 0 0-.17.54q.25.43.71.38a.21.21 0 0 0 .17-.26m90.24-.35a.15.15 0 0 0 .17.12q.21-.04.26-.18.06-.2-.15-.2-.33.01-.28.26m-5.649 4.046a1.16.56 58.2 0 0-.135-1.281 1.16.56 58.2 0 0-1.087-.69 1.16.56 58.2 0 0 .135 1.28 1.16.56 58.2 0 0 1.087.69m-5.041 4.304.81.84q.31.33.52-.34.12-.38-.11-.7-.43-.6-1.16-.61-.86-.02-.06.81m14.09 1.32q-.35.14-.43.34-.26.62.45.47.32-.07.41-.45a.31.31 0 0 0-.43-.36m-2.31 3.17q-.26.25.05.4.81.42 1.48-.36.26-.3.15-.78-.16-.76-.71-.23zm1.71 6.08q-.01.83.06.97.27.55.72.15.83-.75.83-1.1.01-.35-.8-1.12-.44-.41-.73.14-.07.14-.08.96"/><path fill="#b70e48" d="M217.24 66.88q-1.46.52-3.08-.59 1.84-.24 3.08.59"/><path fill="#cc06fa" d="M236.29 70.76q-1.78 1.95-4.24 2.29-.41.06-.68.37-2.62 3.04-2.46 6.44.04.87.44.94.45.07 1.2-.34 1.49.61 1.91 2.44.21 1.08.81 2.16.28 1.8-2.08 2.37l-2.55 4.98q-1.13.55-1.82.35-.07-2.46-1.73-4.21-.36-.37-.83-.16-.37.17-.68.49-.32.33-.73.13l-3.07-1.57q-1.16-.83-.34-3.28.7-.45 1.2-1.3a.8.8 0 0 0-.01-.81q-.4-.67-.03-1.21a.47.47 0 0 0-.3-.73q-1.2-.21-1.63-1.17-.21-.48.02-.95.16-.32.07-.63a.76.76 0 0 0-.58-.53q-1.06-.22-1.43-1.03-.22-.29-.54-.36.26-1.2 1.43-1.7a2.34 2.34 0 0 0 1.01-3.45q-.85-1.28-.62-3.06 1.48.47 2.98.63 5.92.61 11.3 3.2.46.22.96.15zM178.29 67.86q-.32 1.53-.17 2.58a.46.45 72.6 0 0 .66.34q.79-.39 1.21-.4a.88.39-1.5 0 1 .87.36l.24 2.95q.04.43-.28.74-1.54 1.48-2.13 2.89-.32.75-.43-.05l-.23-1.59q-.1-.68-.71-.39-.22.1-.82.49-.31.2-.51.19-.15-.01-.25-.07-.27-.17-.14-.52l.27-.7q.29-.73-.4-.66l-1.43.16q-.83.08-.49.71.13.24.03.52-.18.45-.33-.01l-.37-1.13q1.42-2.13 2.59-4.31.76-1.43 2.82-2.1M247.84 69.71l1.04 4.03q.13.48-.17.87-.58.78-1.74 1.14a.56.56 0 0 1-.71-.41q-.23-.96-.59-1.15-.69-.35-.76.42-.04.42-.06.5-.25.69-.61-.05-.18-.37-.18-1.15 0-.8-.85-.88l-1.51-.14a.62.61 88 0 0-.65.71l.32 2a.5.47 5.1 0 1-.66.51q-.26-.08-.82-.59-.7-.64-.84-1.58-.24-1.61.29-2.83z"/><path fill="#cb05f9" d="M163.03 74.68q.05 1.25-.49 2.27-.26.5-.09.97l.57 1.55q.17.47.65.2l1.11-.63a.81.81 0 0 1 1.19.84l-.8 4.5q-.1.56.16 1.02l.39.69a.23.16 8.9 0 1-.34.16q-1.06-.6-1.88.8-.26.46-.01.92.65 1.14.5 2.95-.12 1.45 1.04.56.33-.24.95-.34.59-.09.41.47-1.18 3.64-4.64 3.72-.55.01-.71.53-.33 1.1-1.3 1.26-.69.12-.31.7.52.81.79 2.65.04.26.34.22l.25-.04q.2-.03.19-.25-.02-.49.1-.72.39-.73.64.32l.83 3.51q.13.57.53.8l.42.23q.43.25.25.74l-1.76 4.85a.5.47-1.5 0 0 .66.59q1.24-.47 2.84.69a1.14.95-77.9 0 1 .41.79l.18 2.13q.05.61.6.29l.5-.3q.48-.28 1.07-.21 2.31.3 2.7-2.55.06-.47-.25-.83-.72-.8-1-1.95l-.03-.72q.41-.61.59-1.27l.24-.08q1.17-.03 2-1.19.36-.14.57-.56l.77-.05q.82-.1 1.69.73.57 5.15 1.74 2.15 1.17-.14 2.48 1.08.07-.04.26.17.92 1.79 2.32 2.27a.98.98 0 0 1 .13 1.8q-.75.38-.13 1.72l-1.71 1.18q-.44.31-.33.83.3 1.53-.21 2.95-.18.5.14.94.22.29.61.39.47.88 1.51 1.59-.74.73.61 1.6l-.26 1.93-.16.23q-.26.37-.12.8l1.56 4.77q.34 4.41-3.85 4.14-.01-.65-.28-.8-.8-.44-1.13.84-.32-.06-.63-.01.05-.57-.33-.8a.67.67 0 0 0-.88.17q-1.17 1.53-2.2.73-.73-.58-.63.35.22 1.88-.52 2.68a.34.34 0 0 0 .07.52l.29.19.46 1.29q-1.17 2.33-1.02 4.58a.5.5 0 0 1-.71.49q-.86-.39-1.88-.4-.67-.01-.5.64l.1.44q.11.49-.2.9-1.6 2.1-1.03 4.97-1.44 2.84-3.64 1.49l-.69-.74q.24-1.35-.48-2.02l-.71-3.19q-.13-.57-.6-.78l-.49-.22q-.53-.23-.31-.74l.73-1.73a.33.32 89.2 0 0-.44-.43l-1.85.87q-.47.22-.53-.3l-.17-1.48q-.08-.75-.75-.46l-1.63.72a.92.85 69.5 0 0-.45 1.09l.35 1.1a1.6 1.56-9.9 0 1-1.46 2.03q-1.13.05-1.34.79h-.54q-.04-.33-.2-.49-.36-.4-.76-.03c-1.41 1.29-4.48 2.77-2.73 5.23l-3.48.1q-.07-1.4-1.06-2.89-.28-.43 0-.86.58-.89-.1-1.92-.29-.45-.04-.93l.76-1.47q.23-.42-.08-.75l-.96-1.04a.6.53-51.8 0 1-.04-.68q.56-.93.51-1.59-.06-.7-.77-.56l-1.55.32q-.61.12-.5-.54.26-1.45-.11-2.91-.2-.76-.61-.06l-.3.52a.93.88-73.9 0 1-.78.46q-1.16-.01-1.3.86-.05.33.28.92.31.55.42.76a1.01 1.01 0 0 1-.92 1.48q-1.9-.05-3.19.68-.53.3-.58-.31-.1-1.21-1.09-1.25-.58-.02-.76.56l-.41 1.3q-.14.43-.57.39l-.59-.05q-.68-.06-.61.56l.52 4.04q-.07 1.63-.96 2.93-.29.43-.81.46l-.46.02q-.11-.5-.34-.78-.39-.45-.78-.06l-.32.32a.56.53 49.1 0 1-.83-.08l-.41-.54a.46.44-47.6 0 0-.74.05q-.33.52-.92.51-.65 0-.17-.45l1.74-1.64q.36-.35.42-.81.16-1.35-1.25-2.73-.44-.42-.09-.92l.96-1.37q.29-.41-.06-.77l-.85-.85q-.35-.35-.15-.84.96-2.43-.76-3.28-.6-.29-.36-.91 1.39-3.64-1.7-4.1-.49-.07-.61-.49l-1.22-4.27a.27.25-18.5 0 0-.35-.16q-.13.05-.22.12-.2.16-.23.46-.17 1.47-.97 2.84-.3.5-.79.19l-.56-.35q-.63-.4-.73.36-.23 1.8 1.37 3.46.43.44-.18.53-2.05.29-2.28 1.64-.12.72-.69.26-1.02-.8-1.83.61-.28.48-.01.98.55 1.01-.37 2.25-.26.35-.46-.04-1.06-2.13-2.16-3.5-.43-.54-.93-.71-.69-.23-.55.49.75 3.72-2.1 4.42a.83.83 0 0 0-.63.7q-.28 2.32-.12 4.57.02.26.29.49.22.18.5.17.59-.01.56-.61l-.02-.45q-.04-.93.5-.24 1.16 1.47 1.72 3.36l-11.63-4.16q-.48-2.58-2.5-2.84-.51-.07-.26-.52.89-1.66 1.7-3.29.32-.65-.09-.95-.35-.26-.72-.03l-.33.2a.33.32-25 0 1-.47-.17q-.52-1.58-1.76-.98-.58.05-1.4-.16-.02-2.12 1.41-4.43.28-.44-.11-.79-.17-.15-.43-.24l-.15-.4q.28-.6.11-.9a.53.53 0 0 0-.82-.15q-.17.15-.2.64-.29.27-.68.41-1.24-.74-2.33-.45a.71.34-10.1 0 0-.52.37l-.75 4.12q-.09.52-.38.01-1.17-2.06-1.8-3.52-.18-.39-.17-.44.02-.15.12-.29.31-.44.07-.92-.97-1.9-.88-3.3.03-.52-.45-.7-1.9-.74-2.35-2.88-.02-.07-.08-.11-.12-.08-.29-.07-.23.02-.29.24l-.89 3.35q-.13.5.16 1.02.94 1.7-.8 3.16-1.06.9-.06 2.05.09.1-.02.18-.13.11-.24 0-.25-.27-.59-.11-1.97.93-1.07 2.38.27.41.27.98v2.01q.01.63.71.45 1.31-.34 2.43-1.27.52-.43.34.22-.78 2.68.23 5.3-4.21-.63-6.62-3.11c-3.64-3.72 1.35-14.38 3.75-17.94q4.92-7.3 9.16-12.58c1.15-1.44 2.66-2.15 4.59-2.54q18.14-3.67 37.93-10.44 5.08-1.74 9.08-4.64 8.63-6.23 9.72-16.97.21-2.02 2.24-2.81 1.23-.48 3.08.02 3.82 1.03 7.45 2.62"/><path fill="#f31121" d="M181.47 74.14q.65-.14 1.15.21.47.33-.09.47-.64.17-1.15-.16a.28.28 0 0 1 .09-.52"/><path fill="#cc06fa" d="m253.37 74.15 8.48 7.03a2.57 2.57 0 0 0 1.99.56q.42-.05 5.92-.8 2.79-.37 5.95.2 4.63.85 8.5 2.05c2.12.65 3.4 1.71 3.78 4.08q.61 3.8-.61 7.9-.17.56.42.69l.99.21q.59.12.7.71.75 3.87 2.2 5.76 1.28 1.68 1.27 3.68 0 .33 1.35 11.52.49 4.12-1.55 11.42-1.95 1.26-3.21 3.04-.29.34-1.86.95.14-3.74.06-6.71-.01-.69-.24-1.35-.28-.77-.45-1.39-.13-.5-.62-.67-1.02-.35-1.67 1.32-.33.86-1.12.38-3.11-1.86-3.83.05-.96.68-2.22-.72 1.19-4.49.81-8.26a1.43 1.43 0 0 1 .23-.93q.37-.55.42-.85a.91.7-71.1 0 0-.29-.86q-.6-.4-1.22-.07-.32.17-.58.78l-.21.47q-.23.47-.49.34l-1.37-.71q-.5-.26-.83-.93-.49-1-2.4-1.72a.77.77 0 0 0-.69.08q-1.25.81-.5 2.52-.43 1.22-2.37.45-1.69-2.15.18-5.77.7-1.37.62-1.71-.13-.52.31-.8.37-.24.67-1.03.17-.43-.07-.74l-.21-.26q-.58-.74.15-.97l.52-.16q.46-.14.3-.53l-1.12-2.63q-.21-.5.19-.94.27-.3.34-.79a.8.77 17.5 0 0-.44-.82l-1.88-.92q-.64-.31-.66.38l-.03 1.74a.37.36-76.1 0 1-.53.33q-.69-.35-1.49-1.3-.36-.43-.92-.37-.55.05-1.33.55-.65.42-.68-.35l-.09-2.77a.37.37 0 0 0-.64-.23q-1.46 1.66-3.09.79a.83.83 0 0 0-1.22.8q.09 1.32 1.14 2.34.36.34.16.79-.87 2.06-3.3 2.99-.24-.33-.79-.55.25-2.42-2.74-3.66.27-.63.08-1.24.81-.46 1-1.25.84-3.31 1.33-7.8.16-.64.85-1.21.45-.09.69-.27.45-.34.14-.81-.7-1.04-.6-2.56.03-.47-.44-.76l-.28-.17q-.19-.12-.03-.25l1.3-1.11q.41-.33.16-.82-.67-1.35-.65-2.89a.5.5 0 0 0-.27-.44q-.34-.19-.63.08a.54.54 0 0 0-.13.19q-.36.93-.91 1.37a.32.3-8.6 0 1-.49-.34l.23-.51q.18-.4-.08-.85-.51-.86.64-1.99"/><path fill="#d40e02" d="M216.21 75.44q.32.07.54.36-.83.09.12.83a.45.45 0 0 1 .09.62l-.2.27a.39.39 0 0 1-.59.04l-.58-.6q-.36-.39.05-.86z"/><path fill="#b70e48" d="M241.29 77.2a.3.3 0 0 1 .4 0q.19.16-.11.47a.25.25 0 0 1-.28.06q-.4-.18-.01-.53"/><path fill="#d40e02" d="M232.46 82.9q-.42-1.83-1.91-2.44.18-.43.42-.7.36-.39.77-.21l1.78.79q.47.2.35.7-.25 1.07-1.41 1.86"/><path fill="#b70e48" d="M253.2 82.34q.2-.37.48-.37a.26.26 0 0 1 .23.4q-.23.4-.61.26a.2.2 0 0 1-.1-.29"/><path fill="#d40e02" d="M219.44 84.16q-.82 2.45.34 3.28-.8.6-.25 2.19a.1.1 0 0 1-.09.13q-1.88.07-2.82.99-.46.46-.57-.18-.1-.56.13-1.06.24-.5.74-.54l.57-.05a.41.34-15.5 0 0 .37-.52q-.13-.22-.23-.28a1.14 1.14 0 0 1-.53-.86q-.29-2.84 2.34-3.1M231.19 87.43q2.36-.57 2.08-2.37 1.78 1.26 1.7 2.9-.05.91-.74 1-.5.07-.84-.3-.73-.81-2.2-1.23"/><path fill="#b70e48" d="M254.72 86.28q-.69.57-.85 1.21l-.4-.28q-.56-.39-.04-.82.47-.39 1.29-.11M215.33 92.36l.34-.34a.18.15 48.9 0 1 .24.03q.13.16-.01.41-.14.26-.33.31a.25.24-75.5 0 1-.24-.41"/><path fill="#d40e02" d="M228.64 92.41q.23 1.51 1.63 1.69a.82.82 0 0 1 .6 1.23l-.71 1.2q-.26.45 0 .88.64 1.06.83 2.84.06.58-.49.4-.77-.24-.87-.57-.83-2.8-3.7-1.99a.51.51 0 0 1-.65-.56q.09-.59 1.02-1.29.39-.29.31-.78-.21-1.3.21-2.7.69.2 1.82-.35"/><path fill="#b70e48" d="M165.85 94.23a.45.45 0 0 1 .66-.29q.32.19.35.4a.41.41 0 0 1-.52.45q-.58-.15-.49-.56"/><path fill="#f31121" d="M251.54 96.54q.19.61-.08 1.24l-.65-.04q-.76-.04-.23-.58.39-.4.96-.62"/><path fill="#b70e48" d="M174.08 98.87a.21.21 0 0 1-.17.26q-.46.05-.71-.38a.38.38 0 0 1 .17-.54q.5-.23.71.66M264.32 98.52q-.05-.25.28-.26.21 0 .15.2-.05.14-.26.18a.15.15 0 0 1-.17-.12"/><path fill="#d40e02" d="M175.55 105.64q-.87-.83-1.69-.73.6-1.57-.38-3.16-.3-.47.1-.86.27-.27.45-.62.27-.55.68-.1 2.05 2.25.84 5.47"/><ellipse fill="#f31121" rx="1.16" ry=".56" transform="rotate(58.2 37.778 282.611)"/><path fill="#d40e02" d="M182.35 114.83q-.62-1.34.13-1.72a.98.98 0 0 0-.13-1.8q-1.4-.48-2.32-2.27.82.26 1.43.03.44-.18.46-.64l.12-2.57q.02-.53.5-.69 2.54-.84 2.67-3.67a.44.44 0 0 1 .51-.4q.3.05.33.4.25 2.73-.76 5.28-1.09 2.76 1.2 4.47a.48.17 49.6 0 1 .26.66q-.28-.11-.66-.55a1.24 1.24 0 0 0-2.1.43q-.52 1.56-1.64 3.04M254.99 101.99q-.3 1.24.74 2.58a.36.34-14.8 0 1-.34.55l-1.57-.16q-.6-.06-.66-.68-.17-1.89 1.04-2.84.55.22.79.55M170.52 106.71l-.24.08q-.25-1.24-.94-2.32-.24-.38.27-.39l.61-.02a.54.42-11.9 0 1 .46.22q.67 1.23-.16 2.43"/><path fill="#b70e48" d="M173.09 104.96q-.21.42-.57.56l-.31-.65q-.06-.12 0-.25.08-.17.22-.24.33-.15.48.17z"/><path fill="#f31121" d="M253.69 106.06q.73.01 1.16.61.23.32.11.7-.21.67-.52.34l-.81-.84q-.8-.83.06-.81M179.77 108.87q-1.31-1.22-2.48-1.08-.17-.81 1.71-.62 1.23.12.77 1.7"/><path fill="#d40e02" d="m169.69 108.06.03.72.32 2.45q.06.46-.39.52-.19.02-.35-.18-.21-.25-.16-.57.2-1.38-.66-2.11-.48-.4.09-.64.48-.21 1.12-.19"/><path fill="#b70e48" d="M267.72 108.19a.31.31 0 0 1 .43.36q-.09.38-.41.45-.71.15-.45-.47.08-.2.43-.34"/><path fill="#d40e02" d="m265.41 111.36.97-.97q.55-.53.71.23.11.48-.15.78-.67.78-1.48.36-.31-.15-.05-.4M270.48 113.92q.52 1.14.39 2.28-.06.51-.56.37-2.66-.78-2.2-2.2 1.94.77 2.37-.45M268.73 117.46q0 .35-.83 1.1-.45.4-.72-.15-.07-.14-.06-.97.01-.82.08-.96.29-.55.73-.14.81.77.8 1.12M182.36 122.71q-1.04-.71-1.51-1.59-.07-.69.13-.91.21-.23.65.12 1.63 1.32.73 2.38"/><path d="M92.28 131.29q.8.84 1.74.4.26.09.43.24.39.35.11.79-1.43 2.31-1.41 4.43-.05 1.25.29 1.64a.75.75 0 0 0 1.26-.19q.3-.67-.15-1.29 1.24-.6 1.76.98a.33.32-25 0 0 .47.17l.33-.2q.37-.23.72.03.41.3.09.95-.81 1.63-1.7 3.29-.25.45.26.52 2.02.26 2.5 2.84l-16.33-2.82q-1.01-2.62-.23-5.3.18-.65-.34-.22-1.12.93-2.43 1.27-.7.18-.71-.45v-2.01q0-.57-.27-.98-.9-1.45 1.07-2.38.34-.16.59.11.11.11.24 0 .11-.08.02-.18-1-1.15.06-2.05 1.74-1.46.8-3.16-.29-.52-.16-1.02l.89-3.35q.06-.22.29-.24.17-.01.29.07.06.04.08.11.45 2.14 2.35 2.88.48.18.45.7-.09 1.4.88 3.3.24.48-.07.92-.1.14-.12.29-.01.05.17.44.63 1.46 1.8 3.52.29.51.38-.01l.75-4.12a.71.34-10.1 0 1 .52-.37q1.09-.29 2.33.45"/><path fill="#d40e02" d="M277.6 124.06q1.26 1.4 2.22.72-.17 1.73.63 2.51.7.69.12.44-.24-.1-.36-.36-.33-.68-.94-.25-1.4.99-1.26 3.15.02.27-.24.38l-.33.13a.2.2 0 0 1-.27-.15q-.31-1.84.76-3.26.35-.46.01-.87l-1.29-1.56q-.28-.34.18-.64.31-.2.77-.24"/><path fill="#b70e48" d="m182.71 126.24.26-1.93q.77-.06.87.43.2.95-1.13 1.5"/><path d="M130.29 152.22q-.11.37-.5.74-9.82.16-19.18-2.91-.56-1.89-1.72-3.36-.54-.69-.5.24l.02.45q.03.6-.56.61-.28.01-.5-.17-.27-.23-.29-.49-.16-2.25.12-4.57a.83.83 0 0 1 .63-.7q2.85-.7 2.1-4.42-.14-.72.55-.49.5.17.93.71 1.1 1.37 2.16 3.5.2.39.46.04.92-1.24.37-2.25-.27-.5.01-.98.81-1.41 1.83-.61.57.46.69-.26.23-1.35 2.28-1.64.61-.09.18-.53-1.6-1.66-1.37-3.46.1-.76.73-.36l.56.35q.49.31.79-.19.8-1.37.97-2.84.03-.3.23-.46.09-.07.22-.12a.27.25-18.5 0 1 .35.16l1.22 4.27q.12.42.61.49 3.09.46 1.7 4.1-.24.62.36.91 1.72.85.76 3.28-.2.49.15.84l.85.85q.35.36.06.77l-.96 1.37q-.35.5.09.92 1.41 1.38 1.25 2.73-.06.46-.42.81l-1.74 1.64q-.48.45.17.45.59.01.92-.51a.46.44-47.6 0 1 .74-.05l.41.54a.56.53 49.1 0 0 .83.08l.32-.32q.39-.39.78.06.23.28.34.78m-7.81-19.09q-.26.24-.33.4a.24.24 0 0 0 .32.31q.56-.26.35-.65a.22.22 0 0 0-.34-.06m-12.16 13.11q-.29.28.12.49.14.07.29-.02.1-.06.12-.22a.31.31 0 0 0-.53-.25"/><path fill="#d40e02" d="M180.14 136.18q4.19.27 3.85-4.14.92.17 1.43-.2.46-.34.09-.78-.61-.7.28-1.47a.41.41 0 0 0-.11-.68q-.22-.09-.36-.35-.37-.66.46-.1 1.25.86 2.63-.06a.38.38 0 0 1 .58.29q.03.45-.55 1.47-.28.5.16.87 1.18.97 1.46 2.24.12.54.6.27 1.57-.89 3.98-.38.68.14.22.65-.27.29-.57.51-.67.49-.69.49-1.99.21-1.71 2.44a.35.34-81.3 0 1-.49.36l-2.88-1.36q-1.39-.66-1.05.59.37 1.32-1 3.27a.99.79 56.7 0 0-.08.81l.19.56q.21.62-.38.67-.35.04-.64-.21-.32-.28-.39-.59-.3-1.26-.2-2.65.05-.66-.57-.43-.66.25-.9.67-1.01 1.73-1.33-.12l-.22-1.27q-.13-.73-.7-.44-.09.04-.27.44a.42.42 0 0 1-.62.17q-.48-.34-.22-1.54"/><path d="m292.76 129.16-1.29 4.15q-1.11-.27-1.92-1.11 1.26-1.78 3.21-3.04M93.87 131.29q-.34-.33-.91-.41.03-.49.2-.64a.53.53 0 0 1 .82.15q.17.3-.11.9"/><path fill="#b70e48" d="M92.96 130.88q.57.08.91.41l.15.4q-.94.44-1.74-.4.39-.14.68-.41"/><path fill="#d40e02" d="M289.55 132.2q.81.84 1.92 1.11l-2.31 6.41-.48-.63q-.31-.41-.13-.89.83-2.21-.86-5.05 1.57-.61 1.86-.95"/><path fill="#b70e48" d="M122.48 133.13a.22.22 0 0 1 .34.06q.21.39-.35.65a.24.24 0 0 1-.32-.31q.07-.16.33-.4M178.73 136.22q.13.27-.13.36-.43.15-.5-.37.31-.05.63.01"/><path fill="#f31121" d="M94.55 137.31q.45.62.15 1.29a.75.75 0 0 1-1.26.19q-.34-.39-.29-1.64.82.21 1.4.16"/><path d="m146.95 153.77-14.49-.63q.46-.71 3.07-1.83a.54.54 0 0 0-.05-1.02q-1.34-.41-2.13-2.04a.38.38 0 0 0-.69-.02q-.1.2-.14.58l-.52-4.04q-.07-.62.61-.56l.59.05q.43.04.57-.39l.41-1.3q.18-.58.76-.56.99.04 1.09 1.25.05.61.58.31 1.29-.73 3.19-.68a1.01 1.01 0 0 0 .92-1.48q-.11-.21-.42-.76-.33-.59-.28-.92.14-.87 1.3-.86a.93.88-73.9 0 0 .78-.46l.3-.52q.41-.7.61.06.37 1.46.11 2.91-.11.66.5.54l1.55-.32q.71-.14.77.56.05.66-.51 1.59a.6.53-51.8 0 0 .04.68l.96 1.04q.31.33.08.75l-.76 1.47q-.25.48.04.93.68 1.03.1 1.92-.28.43 0 .86.99 1.49 1.06 2.89"/><path fill="#b70e48" d="m174.36 141.34-.46-1.29q.11-.45.29-.64.27-.28.41.09.27.77-.24 1.84"/><path d="M164.31 151.69q-.92.38-1.12 1t.39.95q.49.28 1.21.07l.69.74q-.2.54-.72.9-6.97-1.61-14.33-1.68c-1.75-2.46 1.32-3.94 2.73-5.23q.4-.37.76.03.16.16.2.49 0 .27.07.41.24.52.44-.06.05-.14.03-.35.21-.74 1.34-.79a1.6 1.56-9.9 0 0 1.46-2.03l-.35-1.1a.92.85 69.5 0 1 .45-1.09l1.63-.72q.67-.29.75.46l.17 1.48q.06.52.53.3l1.85-.87a.33.32 89.2 0 1 .44.43l-.73 1.73q-.22.51.31.74l.49.22q.47.21.6.78z"/><path fill="#b70e48" d="M110.32 146.24a.31.31 0 0 1 .53.25q-.02.16-.12.22-.15.09-.29.02-.41-.21-.12-.49"/><path fill="#d40e02" d="M132.46 153.14q-1.41.15-2.67-.18.39-.37.5-.74l.46-.02q.52-.03.81-.46.89-1.3.96-2.93.04-.38.14-.58a.38.38 0 0 1 .69.02q.79 1.63 2.13 2.04a.54.54 0 0 1 .05 1.02q-2.61 1.12-3.07 1.83"/><path fill="#b70e48" d="M154.66 148.96q.02.21-.03.35-.2.58-.44.06-.07-.14-.07-.41z"/><path fill="#d40e02" d="M164.79 153.71q-.72.21-1.21-.07-.59-.33-.39-.95t1.12-1q.72.67.48 2.02M170.71 157.8l-5.95-2.45q.52-.36.72-.9 2.2 1.35 3.64-1.49.32.11 1.01-.57.45-.45 1.03-.29.7.18.38.81l-.17.34a.63.61 34.2 0 0 .15.75l.61.52q.39.34.79.08.48-.32.72-.27.42.08.31.5-.42 1.64-1.22 1.9-1.14.36-2.02 1.07"/></svg>