<svg xmlns="http://www.w3.org/2000/svg" viewBox="0 0 382 382"><g fill="none" stroke-width="2"><path stroke="#181a67" d="m215.82 66.19.26.92q.13.48.64.51l1.66.08a.52.49 23.3 0 1 .38.85q-.46.43-.28 1.19.09.35 1.42 3.15a1.04 1-26.3 0 1-.48 1.34l-3.36 1.72a.66.65-29.2 0 1-.86-.23q-.19-.32-.69-.54-.82-.35-1.35-.07-.6.31.06.57l1.79.73a1.14.63 7.7 0 1 .52.38q1.77 2.83-1.97 4.51-1.28.58.12.63 1.77.07 3.79-1.08a1.05 1.01-9.5 0 0 .5-.68l.12-.55q.17-.79.79-.31.41.32.78.92.22.35.01.63l-.34.47a.41.37 17.9 0 0 .34.6l2.83.12a.38.37-68.5 0 1 .26.62q-.9 1.08-.37 2.3.2.49-.06.91l-1.74 2.77a.94.84 12.7 0 1-.71.4q-.22.01-.46.11a.42.42 0 0 0-.1.71q.32.27.5.54a1.03.93 71 0 1-.68 1.57l-.6.01a.51.46 23.2 0 1-.39-.84q.91-.7-.37-2.39-.56-.74-.59.24l-.11 3.03a.98.92-1.7 0 1-.89.89l-2.85.25a.5.44-9.8 0 0-.46.57l.17.61q.16.54.65.25l.61-.35q.59-.33.68.3l.12.89q.03.23.23.26.25.05.3.05.27 0 .28-.63.01-1.41.92-.57a.3.09 38.8 0 1 .13.19v.54q.01.56.63.33 1.23-.48 3.02.71.43.28.46.8.16 2.42-.77 3.38-.47.49.23.54l1.03.08q.4.03.35.41-.03.27-.31.35-1.98.59-2.56 2.18-.1.27.04.49a.43.4-33.2 0 0 .58.09l.7-.45q.6-.4.55.28-.17 2.43.47 4.19c.67 1.83.52 3.14.47 4.72q-.02.45.3.81l.44.49q.39.44.35-.18-.13-2.05.21-4.63.17-1.23-.29-2.71-.72-2.35-.8-2.68-.15-.61.12-.96.67-.86.91-2.02a.64.64 0 0 1 .66-.51q1.09.08 1.72-.14.53-.18.17-.62-.9-1.09-2.21-1.53a.77.7-60.7 0 1-.27-1.18l1.23-1.56q.28-.36.06-.78-.9-1.75.86-2.89.35-.22 1.54-.33 1.22-.12 1.65-.26.68-.23.11-.66-.21-.16-.3-.33-.49-.91.49-.22 2.98 2.12 3.49 4.79.12.61.66.73l.6.14q.6.13.19.6-.67.8-.81 1.61a.77.77 0 0 1-.56.61q-.88.24-1 .39-.52.64.37.54 2.09-.23 2.36 1.41.09.58.65.77.74.25 1.54-.99.55-.84-.43-.95-.08-.01-.35-.25-.37-.33-.01-.68.54-.51.07-1.12-.29-.38-.12-.8l.7-1.78a.46.45-63.3 0 1 .66-.22l.39.24q.46.29.55-.28.16-1.1 1.53-1.35.54-.1.68-.64.13-.47 0-.63-.44-.55-.97-.18l-.26.18q-.6.42-.71-.33l-.12-.79q-.03-.17-.25-.21-.1-.01-.36.08a.29.29 0 0 0-.19.26q-.08 1.94-1.09.51a.53.51-72.9 0 1-.07-.13q-.05-.17-.14-.35-.27-.55-.79-.22-.35.22-.66.1-.56-.23-.35-.8.96-2.59.59-3.76-.38-1.17.75-1.65 3-1.29 2.06-2.68a.85.85 0 0 0-.58-.36q-2.04-.3-1.88-2.46.04-.54-.48-.7-1.58-.5-2.72.45-.5.41-.45-.23.19-2.36 1.15-4.33.25-.52.1-.98l-.18-.53a.51.46 6.3 0 1 .73-.53l1.04.55q.33.17.6-.29.78-1.32 2.8-2.59M240.26 71.46q-.28.22-.28 1.04.01.54.26.99.91 1.65.87 3.48-.05 1.91.8.21L244 73q.94-1.88 1 .25l.07 2.25q.02.54.62.15.09-.06.3-.89.16-.64.73-.31.72.42 1.91-.19a.7.7 0 0 1 .2-.07q.88-.15 1.06.17.16.29-.13.46-.38.22-.39.24-.98 1.36.42.57 1.06-.6 1.2-1.48.08-.51-.2-.93l-1.73-2.6M254.17 74.8l-1.7 1.44q-.48.39.1.61 1.76.64 2.65-1.15M256.19 76.45q-.16.57.46 1.65 1.2 2.12-.8 3.06-.39.18-.34.35l1.15 4.31q.05.15-.38.15-2.03-.01-2.9 1.2-.46.64.3.8l.76.16a.67.66 6.9 0 1 .53.67l-.05 1.68q-.02.65-.52.28-.78-.58-1.67-.75-.67-.14-.39.49l1.29 2.87q.27.62-.27.81l-.39.14q-.67.25-.01.63.72.43.75.5.16.45-.45.53-.9.11-1.08.53-.17.4.25.51.41.11.37.5a.45.45 0 0 1-.41.4q-1.1.11-1.92 1.08-.36.43-.01.88.45.55.52 1a.89.89 0 0 1-.3.82q-2.21 1.84-1.54 5.28.03.16.18.12l1.17-.3q.3-.08.15-.35-.62-1.12-.52-2.75.06-1.06.95-.13l.24.26q.17.18.36-.22l.85-1.73q.41-.84 1.23-.43l2.8 1.43q.81.41.12.93-1.04.79.3 1.91.45.37-.11.55-.21.06-.9-.18-.29-.11-.51 0a.4.4 0 0 0-.09.65q1.4 1.29 1.79 2.92.01.06.16.16.17.12.28.08.33-.11.31-.42-.14-1.94 1.12-3.08.38-.34.79-.04 1.25.94 2.3.47.97-.43-.09-.57-2.06-.26-3.41-2.2-.28-.4-.11-.78l.86-1.9a.83.8-47.3 0 1 1.47-.08q.29.56.75.49.6-.08.17-.48l-.75-.7a.4.34 54.9 0 1 .05-.64q.36-.12.57-.35.13-.15-.08-.21l-.29-.08q-.05-.02-.11.07l-.22.34q-.38.6-.69.03-.48-.9.35-1.83.29-.31.01-.63-.24-.27-.49-.31-.93-.15-.75-.68.22-.66.68-.83.28-.11 3.43-1.08.55-.17.55.37v1.15q.01.64-.39.98-.74.65-.71.94.19 1.74 1.39.19l.53-.68q.52-.66.83.12.18.44.18.66a.73.71-81.7 0 0 .51.71q.69.2 1.96.05a.72.72 0 0 0 .63-.59q.14-.78.53-1.16a.87.87 0 0 1 1.46.41q.28 1.12.06 1.98-.12.47-.6.47-.94.02-1.22.34a.31.31 0 0 0 .19.51l1.96.23q.68.08.54.71-.87 3.81-2.19 4.59-.5.3-.12.74.68.79.11 1.52-.2.27-.53.35-.17.05-.37.09-.62.11-.28.64.66 1.03.48 2.62-.06.53-.57.71-.79.3-2.32-1.29-.98-1.03-.42.22l.95 2.08q.11.26-.17.71l-2.6 4.19" vector-effect="non-scaling-stroke"/><path stroke="#5d5e32" d="M263.83 118.97q-.44.12-.5.26a.24.23-10.7 0 0 .38.26l.43-.4" vector-effect="non-scaling-stroke"/><path stroke="#181a67" d="m264.14 119.09 4.16-3.77q.4-.36.74.06.97 1.17.99 2.65 0 .53.38.91.77.8-.05 1.31a.27.27 0 0 0 .03.47q.23.11.38-.06 1.18-1.26 2.66.15.19.18.35-.04l.16-.22a.1.1 0 0 0-.02-.13q-1.96-1.39-1.82-3.58a.96.96 0 0 1 .43-.74l1.34-.88" vector-effect="non-scaling-stroke"/><path stroke="#5d5e32" d="M273.87 115.22q1.41-.49 2.54.64.11.11.24.02l.26-.19q.3-.21-.02-.41l-1.79-1.12q-.48-.3-.82.15-.49.65-.96.5" vector-effect="non-scaling-stroke"/><path stroke="#181a67" d="M273.32 114.81q-.66-.42-.87-.88-.22-.47.23-1.04.86-1.08 2.33-.85.61.09.84.67.45 1.15 2.76 1.96.37.12.63-.18l1-1.19a.28.21-16.1 0 1 .47.17l-.76 1.14q-.32.48.27 1.1l1.38 1.42q.31.33-.32.56l-.41.16q-.51.18-.33.68.38 1.07-.07 1.61-.33.39-.04.81.07.1.15.29.14.32-.21.51l-.59.33a.65.62-28.2 0 0-.27.84q.75 1.44-.48 2.6-.33.31-.82.15l-.54-.18q-.46-.15-.61.27-.05.14-.04.31.02.25.4.73.28.34.37.54.2.45-.33.48l-.54.03q-.55.03-.69.54-.36 1.37-1.63 2.66-.62.63.2.3 2.78-1.11 2.95-1.36 3.06-4.61 3.27.9.02.31-.15 2.91-.01.25.18.22l.37-.04q.5-.06.57-.46l.24-1.24a.21.19-65 0 1 .32-.14q1.12 1.05 2.01.77.19-.06.28-.25.07-.16.02-.32-.08-.29-.38-.32-1.58-.15-2.17-1.09-.26-.42.11-.8l2.26-2.32q.41-.43-.03-.76-1.57-1.16-1.63-2.29-.05-.84.65-.37.84.57 1.44.09.57-.45.73.27l.12.56a.79.68-80.8 0 0 .27.43q.77.6 2-.41a1.66 1.65 78.4 0 0 .53-.81q.33-1.13.63-1.29.43-.23.44.25.1 3.11 2.73 3.76.7.17.15.66l-1.22 1.08a.42.23-26.4 0 0-.12.17q-.25.82.52.89a.18.18 0 0 1 .14.28q-1.27 1.96-.33 2.52M196.03 162.38q-2.01-5.25-5.48-4.86-.52.06-.55-.46-.08-1.1-.61-2.05-.32-.57.25-.8l.89-.36q.5-.21.14-.64-1.1-1.33-2.72-2.74-.31-.27-.54-.07a.36.36 0 0 0-.03.5q.61.72.52 1.4a.4.39-77.8 0 1-.5.34l-.73-.23q-.8-.26-.78.43l.05 1.42q.01.23-.1.41-.05.09-.29.12-.35.05-.44-.29-.27-1.11-1.75-2.69a.85.81-56.1 0 1-.15-.89l1.3-3.22q.18-.45-.16-.6l-1.76-.78q-.69-.3-.71.4c-.02.65.13 1.51-.03 1.85q-.08.17-.22.25-.45.26-.55-.29l-.17-1.06q-.05-.28-.31-.26-.15.01-.27.1-.15.12-.26.41-.52 1.39-1.17 1.94-.67.55-.48-.29.2-.84-.12-1.71-.18-.49-.01-.99.96-2.76.86-4.89-.03-.71.58-.34 1.08.65 1.98-.78.32-.49.04-1.01-.98-1.79.47-4.34a1.22 1.22 0 0 0 .11-.95q-.52-1.73-.64-2.22-.01-.02-.3-.08-.16-.03-.28.22-.08.17-.06.36.11.76-.24 1.1a.36.36 0 0 1-.61-.25q-.04-1.16-.71-2.59-.22-.48.06-.93.41-.64.76-.75.6-.2.64.42l.03.6q.04.59.63.48.47-.09.74-.64c.3-.61.07-1.1 0-1.63a.82.78-16.5 0 1 .48-.82l2.67-1.21q.47-.21.53.34l.05.48q.08.71.66.26l1.52-1.17a.57.55 54.2 0 1 .81.15l.18.27a.44.43 49.9 0 1-.04.55l-.81.84q-.4.42.2.57.87.22 1.9 1a.25.25 0 0 0 .38-.31q-.2-.39-.59-.61a.74.71 26.4 0 1-.33-.92l.94-2.15q.22-.52.87-.24 2.46 1.04 2.9 2.78.39 1.55-1 .69l-1.19-.74q-.38-.24-.38.23 0 .53 1.35 1.16.45.22.56.7.28 1.2-.71 2.07-.42.37.1.5l2.15.56a.36.35 82 0 0 .39-.53l-.82-1.47q-.31-.56.07-1l1.61-1.86q.33-.37.83-.18 2.12.8 2.63 1.98.21.5.76.52 1.78.04 2.2 1.54.17.58.62.18l.24-.22q.34-.3.65-.02l3.29 2.91" vector-effect="non-scaling-stroke"/><path stroke="#5d5e32" d="m208.02 135.28 2.48 2.49q.41.42.24-.15-.6-1.96-2.29-2.71" vector-effect="non-scaling-stroke"/><path stroke="#181a67" d="M208.45 134.91q-.8-3.01-3.83-4.12-.49-.18-.6-.69-.13-.61.52-1.02.44-.28.22-.63l-1.03-1.62q-.65-1.03-.62.09l.04 1.51q.02.47-.44.44-.55-.04-1.19-.86-.38-.48-.41-1.18-.22-4.94-.34-6.15-.01-.06-.14-.16-.09-.07-.16-.08a.34.28-83.1 0 0-.33.31l-.33 3.52a1.36 1.19-64 0 1-2.19.92l-.46-.61q-.45-.57-.88-.24l-.39.31q-.72.57-.45-.31.3-1.03.1-2.63-.06-.48-.39-.84-1.14-1.19-.95-2.37.27-1.69 2.05-6.03.2-.5.75-.49.8.02 1.35-.14a.35.3-45.2 0 0 .04-.64l-.86-.13q-.77-.12-.23-.76.16-.19.3-.56.17-.44-.24-1.05-.58-.88-1.68-.69-.6.1-.55.73 0 .02.56.54.43.4-.13.59-.33.1-.56-.43a.88.88 0 0 0-.81-.54q-1.42 0-2.85 1.25-.44.38.06.7.64.4 1.1 1.14 1.63 2.6-1.26 1.71-.25-.07-1.47-1.3-.48-.49-.64.18-.18.78.52 1.37.41.35.07.76-1.39 1.65-.09 3.69.29.46-.24.32-.23-.06-.38-.23-.4-.45-.87-.07-.52.41-.74.34-.52-.19-.16-.52l.31-.28q.35-.32 0-.67l-1.26-1.29q-.71-1.54-.84-3.03-.06-.61-.36-.77l-1.4-.77q-.45-.25-.84.1-.63.57-1.38.37-.65-.17-.1-.71l1.09-1.08q.29-.29.19-.8-.6-3.13-.16-4.04 1.1-2.29 1.65-4.23.32-1.11.84-1.13.42-.02 1.52.69a.1.1 0 0 0 .12-.15c-1.05-1.04-.85-2.41.09-3.57q1.39-1.72 2.36-4.24a.36.36 0 0 0-.48-.46q-1.54.7-1.91 2.29-.11.48-.45.17l-.21-.18q-.3-.27-.54.01l-2.75 3.2q-.27.31-.7-.05-1.71-1.44-.42-3.73.28-.5-.23-.71l-.6-.25a1.05 1.05 0 0 1-.61-.72q-.24-.99-1.2-2.5-.43-.68-.28.11.51 2.7 1.28 5.19.47 1.5-.49 4.38-.16.46.08.88.4.7.4.97 0 .55-.52.36-1.45-.53-2.35.82a.53.53 0 0 1-.94-.11q-.88-2.45-2.37-4.09a.99.97 28.4 0 0-1.7.49l-.55 3.79q-.05.4-.45.55l-.51.2q-.62.23-.19.65 1.16 1.13.17 2.09-.38.37-.15.84.76 1.55 1.29 2.25.61.81.26 2.27a.4.4 0 0 1-.14.22q-.68.55-.8-.64-.1-.9-.62-.54l-.21.15a.89.87-49.5 0 1-.88.08l-3.97-1.88q-.37-.18-.43-.58-.5-3 1.51-3.4a.69.69 0 0 0 .55-.67q0-.21-.05-.35a.49.48-21.9 0 0-.67-.28l-.26.12q-.56.27-.72-.22l-1.4-4.4q-.18-.59-.89-.54-1.07.08-1.57-1.86-.14-.52.4-.55c1.3-.06 1.58-.03 2.59-1.03q.59-.6 2.73-2.51.39-.35.87-.13 1.03.47 1.67-.66a.48.42-69.6 0 0-.27-.69l-.8-.13a.52.46 23.3 0 1-.36-.78q1.02-1.17.47-1.91a.63.63 0 0 0-.54-.26q-1.34.07-1.16 1.55a.32.31 79.8 0 1-.23.35l-.29.07q-.18.04-.22-.13l-.87-3.26a.44.39-3.7 0 1 .48-.48q1.27.11 2.22-.22.76-.26.01-.56-1.26-.51-1.6-2.72a.54.54 0 0 1 .47-.62q.22-.03.43.03.36.11.56.43.16.25.27.28.8.16.08-.45-1.32-1.12-.75-2.35.23-.51-.18-.89-.19-.17-.35-.56a.46.45 56.3 0 0-.74-.15q-.53.52-.65.53-.53.06-.41-.33.1-.32.28-.36.59-.12.27-.59-.28-.42-.99-.49-.6-.06-.57-.66.03-.47.62-1M174.72 71.48l.42 4.08a.19.19 0 0 0 .25.15l.31-.11q.15-.05.14-.21-.01-1.42 1.31-1.29 1.32.12.33.92-.02.02-.19.39-.35.78.29.22l1.29-1.1q.41-.35.91-.17.35.13.98.83a.45.45 0 0 1-.08.66q-.29.22-.46.44-.15.22.31.74 1.19 1.38 3.1.96.56-.12.17-.54l-1.22-1.32q-.37-.4-.09-.93.32-.6.01-1.29a1.34 1.22-14.1 0 1 1.15-1.73l2.84-.28a.41.4-26.3 0 0 .25-.71q-1.77-1.59-4.11-2.34-.99-.32-.56-1.18" vector-effect="non-scaling-stroke"/><path stroke="#181a67" d="M180.02 67.51q-.14 1.13.11 2.1.11.44.51.23.17-.09.23-.36.24-.93.36-1.89" vector-effect="non-scaling-stroke"/><path stroke="#757899" d="m273.32 114.81.55.41M264.14 119.09q-.15-.06-.31-.12" vector-effect="non-scaling-stroke"/><path stroke="#181a67" d="M186.29 116q-.73-.08-.95.3a.24.24 0 0 0 .26.36q.46-.11.69-.66" vector-effect="non-scaling-stroke"/><path stroke="#757899" d="M208.45 134.91q-.1.23-.43.37" vector-effect="non-scaling-stroke"/><path stroke="#181a67" d="M188.07 161.85q2.32-1.43-2.51-2.39a.29.28 54.6 0 0-.08.56q.07.02.15.25a.19.19 0 0 1-.27.22q-1.47-.93-2.19-1.74-.75-.84-1.45.05-.82 1.03-1.01 1.87M175.16 159.17l-2.56-4.32q-.26-.45 0-.9.62-1.09-.5-2.41-.37-.44-.83-.1-1.04.77-2.07-.74-.42-.62.33-.66l.94-.04a.58.56-.1 0 0 .55-.53q.05-.97-1.26-2.18-.41-.38-.66.12-.21.41-.68.45a.2.2 0 0 1-.15-.34q1.31-1.15.54-2.87-.3-.69-.97-.6-.52.07-.68.57-.31.95-.38 1.05-.39.51-.66-.26-.63-1.79-1.5-3.02-.53-.75-.57.17-.06 1.86-.54 2.68-.36.61.61.74.3.03.51.31.27.35-.06.63-1.45 1.26-1.76 2.43-.15.57-.69.32-1.11-.51-1.76.49-.3.46.03.9.72.99.35 1.5a.3.3 0 0 1-.53-.1q-.41-1.51-1.05-1.96-.61-.44-.87.27l-.13.36a1.04 1.04 0 0 1-.64.62q-1.57.55-2.01 2.11M150.5 153.63q.74-1.12-1.35-3.39-.39-.42.06-.79.44-.36 1.19-.59.44-.14.21-.53-1.42-2.42-1.06-3.33 1.19-2.94-1.65-1.46-.59.31-.81.32-1.93.1-.69-1.53 1.25-1.65-.52-3.02a.54.54 0 0 0-.82.18q-.93 1.88-.24 3.43.22.49-.19.89l-1.96 1.92a.42.4-20.6 0 1-.71-.3q.08-.78-.34-1.12-.58-.48-.58.3l.01 1.22q.02 1.71-1.2.47l-2.19-2.21q-.09-.09-.15-.05l-.24.13q-.28.16-.07.41.35.41.39.77a.91.86-21.3 0 1-.38.82q-2.48 1.73-2.09 4.33.04.28.33.29h.29a.12.12 0 0 0 .12-.13q-.14-1.01.2-1.44a.46.43 60.8 0 1 .78.25l.29 1.82q.11.68.69.78.24.04.4.16a.35.35 0 0 1-.05.58l-1.23.66M130.09 152.99q1.68-1.48-2.38-3.29-.53-.24-.15-.66l1.91-2.12q.51-.57-.1-1.08-1.39-1.17-1.38-1.78 0-.54.55-.79l.97-.42q.67-.29.33-.98l-.61-1.24q-.36-.75-1.06-.23l-1.6 1.17q-.25.19-.16-.11.07-.27.25-.36.54-.25.03-.83l-.46-.52q-.35-.41.03-.7l1.33-1.04q.44-.35.38-.89-.12-1.08-1.19-1.76a.58.58 0 0 0-.88.61q.13.65.88 1.29.25.21-.02.4l-.31.21q-.21.14-.35-.1l-1.72-3.11q-.26-.46.18-.75.54-.37.02-.88-.38-.39-.16-.89.5-1.07-.63-2.78-.55-.83-.68.16c-.16 1.32-.11 1.98-.92 2.79q-.94.93-1.71 3-.27.69.39.34.6-.34 1.12-1.19.07-.11.16-.2.12-.12.27-.18.35-.15.25.22-.87 3.23-3.36 4.13a.63.61 70.5 0 0-.36.79q.1.31.65.86.61.62-.24.77-1.16.2-1.99 1.31a1.06.93-49.7 0 1-1.49.22l-2.88-2.9q-.77-.77-.55.15.05.23.52 1.04.28.48-.08.9-.86.98-.96 2.81-.02.52-.49.3-1.48-.7-1.54-.7-.78 0-.61.55l.48 1.5q.12.39-.14.77-.79 1.17-.67 2.66M97.47 145.46l1.6-3.89a1.04 1.04 0 0 0-.64-1.39q-.88-.29-1.51-.79-.76-.59-.97.49-.13.65-1.06 2.5-.53 1.06-.85-.08-.23-.81.41-1.47.4-.41 0-.82-.38-.39.14-1.11.26-.36.01-.8l-.16-.27a.79.71 50 0 1 .02-.84q1.05-1.34.01-1.88-.51-.27-.37-.83.07-.26.51-.38.49-.12.52-.62.02-.32-.06-.63-.17-.62-.72-.3-1.09.65-3.49.71-.46.01-.5.48-.02.16.11.31a1.16 1.06-30.9 0 1-.51 1.72l-2.47 1.04q-.52.22-.15-.21 1.14-1.33.34-2.23-.41-.48-.74 0l-.3.45q-.07.1-.17.01-.13-.11-.15-.26a.3.3 0 0 1 .17-.3q.54-.27 1.02-.89.33-.41.07-.86-.73-1.29-.69-3.32.01-.54-.46-.79-1.06-.56-1.58.37-.05.11-.17.11-.22 0-.27-.01-.5-.04-.11-.31.54-.36.73-.72.24-.46 0-.93-.46-.88-1.16-1.46-.49-.41-.69.19-1 2.93-.83 5.08.05.51-.32.86-1.46 1.44-.57 2.88.33.53-.3.61l-1.54.2a.56.54 78.9 0 0-.45.7l.91 3.52q.31 1.18.86.01.8-1.71 1.91-2.67 1.48-1.28.45.49-.75 1.3-.14 2.45.24.45.96.49.15 0 .44.2a.27.27 0 0 1-.13.49q-.45.03-.81.23-.45.26-.29.75l.51 1.49" vector-effect="non-scaling-stroke"/><path stroke="#181a67" d="M171.57 158.08c.96-1.65.09-4.29-2.14-4.07q-.08.01-.09.06l-.12.35q-.1.31.21.35l1.03.14a.65.6 2.6 0 1 .56.57l.16 2.52M113.68 150.84q1.15-1.02 2.87-.88.18.02.21-.16l.05-.27a.31.31 0 0 0-.28-.36l-3.82-.35q-.63-.06-.78-.59l-.13-.46q-.17-.62-.72-.2-1.05.79-1.4 2.14M214.34 69.21q-.69.7.32.71h.62q.6.01.61-.56l.02-.81q.01-.91-.59-.32l-.98.98" vector-effect="non-scaling-stroke"/><path stroke="#5d5e32" d="M211.24 69.31q-.31.43.19.43.21 0 .27-.2.04-.15-.09-.27-.2-.19-.37.04M188.32 72.53a.14.14 0 0 0 .17.12q.3-.07.3-.21.01-.16-.15-.16-.34 0-.32.25M191.29 73.15a.31.31 0 0 0-.25.38q.08.33.53.3a.31.31 0 0 0 .26-.46q-.16-.27-.54-.22M211.86 74.51a.36.36 0 0 0-.36-.36.36.36 0 0 0-.36.36.36.36 0 0 0 .36.36.36.36 0 0 0 .36-.36" vector-effect="non-scaling-stroke"/><path stroke="#181a67" d="M236.77 77.49a.18.18 0 0 0-.28-.21l-1.31 1.2a.16.15 9.1 0 0 .19.24q.95-.43 1.4-1.23" vector-effect="non-scaling-stroke"/><path stroke="#5d5e32" d="M176.109 79.846a1.2.42 134.5 0 0 1.14-.562 1.2.42 134.5 0 0 .542-1.15 1.2.42 134.5 0 0-1.14.562 1.2.42 134.5 0 0-.542 1.15" vector-effect="non-scaling-stroke"/><path stroke="#181a67" d="M183.29 79.38a.23.22-46.2 0 0 0 .34q.47.4 1.16-.03.57-.36.35-.91-.23-.6-.62-.24l-.89.84M186.25 79.25a.26.26 0 0 0-.04.46q.47.3.67.21 1.22-.52-.01-.86-.12-.03-.62.19M180.11 79.56a.3.3 0 0 0 .43.32q.34-.17.35-.42.02-.28-.26-.32-.43-.06-.52.42" vector-effect="non-scaling-stroke"/><path stroke="#5d5e32" d="M191.03 79.53q-.03.28.26.28.29-.01.45-.22a.27.27 0 0 0-.24-.44q-.44.05-.47.38" vector-effect="non-scaling-stroke"/><path stroke="#181a67" d="M237.417 81.579a.96.49 47.6 0 0-.285-1.04.96.49 47.6 0 0-1.01-.378.96.49 47.6 0 0 .286 1.04.96.49 47.6 0 0 1.01.378" vector-effect="non-scaling-stroke"/><path stroke="#5d5e32" d="M252.98 82.57a.47.47 0 0 0-.47-.47.47.47 0 0 0-.47.47.47.47 0 0 0 .47.47.47.47 0 0 0 .47-.47" vector-effect="non-scaling-stroke"/><path stroke="#181a67" d="M254.08 83.42a.29.28-67 0 0 .08.2q.57.6.79.03a.28.28 0 0 0-.11-.34q-.76-.49-.76.11M195.256 84.719a1.02.23 134.4 0 0 .878-.568 1.02.23 134.4 0 0 .55-.89 1.02.23 134.4 0 0-.878.568 1.02.23 134.4 0 0-.55.89M216.23 83.47q-.04.49.48.3a.3.3 0 0 0 .19-.34q-.06-.28-.36-.26a.33.33 0 0 0-.31.3M175.3 84.43q.1.33.32.14.1-.08.09-.17-.01-.28-.29-.19a.18.18 0 0 0-.12.22M201.14 84.51q-.01.44.38.23.18-.09.22-.22.09-.29-.19-.34a.35.35 0 0 0-.41.33" vector-effect="non-scaling-stroke"/><path stroke="#5d5e32" d="M194.9 86.45a.36.36 0 0 0-.36-.36.36.36 0 0 0-.36.36.36.36 0 0 0 .36.36.36.36 0 0 0 .36-.36M207.29 86.67l.34.3q.25.22.26-.17.01-.28-.04-.39-.1-.23-.29-.22-.23 0-.34.1a.3.21 44.6 0 0 .07.38M208.16 88.41q-.01.19.18.32.29.22.38-.13.05-.17-.03-.27-.5-.66-.53.08M251.29 88.26q-.25.25.07.41.29.14.44-.02.19-.22-.02-.42-.24-.23-.49.03M242.27 91.63q.06.06.16.06.06 0 .13-.05 2.7-2.13 2.28-2.55-.42-.43-2.58 2.25-.05.07-.05.13 0 .1.06.16" vector-effect="non-scaling-stroke"/><path stroke="#181a67" d="M237.17 89.4q-.29.44.27.36.68-.09.09-.55-.15-.12-.36.19" vector-effect="non-scaling-stroke"/><path stroke="#5d5e32" d="M211.76 92.55q.03-.02.05-.04.06-.04.02-.11-1.22-2.44-1.52-2.26t1.28 2.4q.04.07.11.04.03-.01.06-.03" vector-effect="non-scaling-stroke"/><path stroke="#181a67" d="M215.17 91.64a.22.22 0 0 0 .11.29q.41.2.59-.34a.27.27 0 0 0-.23-.35q-.29-.02-.47.4" vector-effect="non-scaling-stroke"/><path stroke="#5d5e32" d="M200.487 93.76a.75.37 92.5 0 0 .403-.734.75.37 92.5 0 0-.337-.765.75.37 92.5 0 0-.403.733.75.37 92.5 0 0 .337.765M173.91 95.25l-.16-.96a.24.23 48.4 0 0-.46-.03q-.37 1.39 1.12 2.56.27.21.36-.12.07-.25-.29-.51a1.46 1.42-77.2 0 1-.57-.94M200.19 95.47a.34.25-2.8 0 0 .45.3q.12-.04.06-.28-.06-.23-.29-.2-.15.02-.22.18M177.19 97.43a.23.23 0 0 0 .26.33q.83-.27 1.12-.97.3-.7-.38-.36-.58.29-1 1" vector-effect="non-scaling-stroke"/><path stroke="#181a67" d="M249.23 97.65q.68.36 1.02.33 1.7-.12.09-.66-.14-.04-.75-.36t-.73-.41q-1.36-1.01-.48.45.17.3.85.65M197.67 102.84q-.43.66-1.01 1.43-.32.45.18.21.9-.42 1.44-1.24.54-.83.57-1.82.02-.56-.26-.08-.48.83-.92 1.5M235.74 109.24q-.13.26.33 2.29.17.71.46.05.33-.73-.28-1.73-.28-.46.03-.9c1.1-1.51.01-3.31-.36-4.95q-.54-2.39-1.06.01-.51 2.38.86 4.31.29.4.02.92M197.06 106.05l-.42.06q-.68.1-.29.66.65.94.87 1.05.58.28.62-.36.08-1.21.69-1.83.55-.55-.25-.47-.08.01-.63.57-.26.27-.59.32" vector-effect="non-scaling-stroke"/><path stroke="#5d5e32" d="M168.95 106.42a.41.41 0 0 0-.41-.41.41.41 0 0 0-.41.41.41.41 0 0 0 .41.41.41.41 0 0 0 .41-.41" vector-effect="non-scaling-stroke"/><path stroke="#181a67" d="M190.31 107.27q-.5.5.23.5.17-.01.16-.35 0-.15-.14-.18-.18-.04-.25.03M248 109.32q-.46 1.3-.45 1.34.15.7.63.26.09-.09.53-1.35t.43-1.39q-.1-.64-.65-.19-.04.02-.49 1.33" vector-effect="non-scaling-stroke"/><path stroke="#5d5e32" d="M247.44 112.21q-.56.42-.06.63.4.17.42-.27.02-.65-.36-.36" vector-effect="non-scaling-stroke"/><path stroke="#181a67" d="M256.15 112.39a.29.29 0 0 0 .3.45q.34-.07.37-.45.02-.31-.28-.28-.2.02-.39.28" vector-effect="non-scaling-stroke"/><path stroke="#5d5e32" d="M235.5 113.24q-.17.24.04.56a.23.23 0 0 0 .38-.01q.12-.18.09-.43a.28.28 0 0 0-.51-.12" vector-effect="non-scaling-stroke"/><path stroke="#181a67" d="M198.17 113.4q-.28.59.43.41a.31.3 63.4 0 0 .16-.49q-.34-.44-.59.08" vector-effect="non-scaling-stroke"/><path stroke="#5d5e32" d="M196.11 114.3q-.02.33.11.52a.3.3 0 0 0 .54-.09q.13-.39-.24-.64a.27.27 0 0 0-.41.21M236.09 115.35l-.04.46q-.05.56.34.15.35-.36.04-.72-.3-.35-.34.11M246.207 116.898a.85.32 108 0 0 .567-.71.85.32 108 0 0-.041-.906.85.32 108 0 0-.567.71.85.32 108 0 0 .041.906M222.96 116.19q-.12.39.16.69a.28.28 0 0 0 .48-.19q.01-.32-.23-.59-.28-.31-.41.09M255.36 116.14q-.17.21-.23.42-.22.79.39.22.27-.24.15-.58a.18.18 0 0 0-.31-.06M235.68 116.86q-.39.53-.38.55.1.97.59.17.21-.32.17-.63-.07-.51-.38-.09M254.91 118.3q-.06-.77-.46-.11-.26.42-.26.92-.01 1.34.7.12.07-.12.02-.93M223.18 118.43q-.16.84.08 1.13.5.62.56-.2.05-.67-.21-1.03a.24.24 0 0 0-.43.1M245.58 119.18q-.8.81-.33 1.42.34.43.58-.05.28-.57.01-1.31-.09-.24-.26-.06M236.48 121.81a.8.45 87.8 0 0 .42-.817.8.45 87.8 0 0-.48-.782.8.45 87.8 0 0-.42.816.8.45 87.8 0 0 .48.782M225.25 126.21a2.33.43 68.6 0 0-.45-2.327 2.33.43 68.6 0 0-1.25-2.012 2.33.43 68.6 0 0 .45 2.326 2.33.43 68.6 0 0 1.25 2.012" vector-effect="non-scaling-stroke"/><path stroke="#181a67" d="M196.84 123.85q.01.24.24.16.89-.31.75-1.12-.23-1.4-.98-.11-.05.09-.01 1.07M269.89 123.46a.36.36 0 0 0-.36-.36.36.36 0 0 0-.36.36.36.36 0 0 0 .36.36.36.36 0 0 0 .36-.36" vector-effect="non-scaling-stroke"/><path stroke="#5d5e32" d="M260.11 124.46q-.08.11-.1.34-.02.51.37.18.28-.23.28-.35.06-.97-.55-.17M236.491 127.16a1.09.42 89.4 0 0 .409-1.094 1.09.42 89.4 0 0-.431-1.086 1.09.42 89.4 0 0-.409 1.094 1.09.42 89.4 0 0 .431 1.086M259.39 126.19q-.2.28-.1.55a.2.2 0 0 0 .34.05q.32-.38.32-.49 0-.84-.56-.11M225.08 127.57q.01 1.38.22 1.91.34.85.63-.19.27-1-.36-1.88-.49-.67-.49.16M264.32 131.21q-.37.35-.07.54.19.11.37 0 .19-.11.17-.36a.28.28 0 0 0-.47-.18M227.43 133.6a.09.09 0 0 0 .13.03q.2-.14-.03-.34a.12.12 0 0 0-.09-.03q-.22.02-.01.34M270.17 135.38a.24.24 0 0 0 .06.34q.3.19.5-.2.14-.27-.14-.39-.18-.08-.42.25" vector-effect="non-scaling-stroke"/><path stroke="#181a67" d="M280.162 137.065a1.07.39 108.4 0 0 .708-.892 1.07.39 108.4 0 0-.032-1.138 1.07.39 108.4 0 0-.708.892 1.07.39 108.4 0 0 .032 1.138" vector-effect="non-scaling-stroke"/><path stroke="#5d5e32" d="M191.22 135.62q.12.27.39-.02.18-.19-.07-.28-.08-.02-.25.08-.13.08-.07.22" vector-effect="non-scaling-stroke"/><path stroke="#181a67" d="M228.15 135.44q-.13.71-.01.87.69.86.71-.25.01-.54-.47-.74a.17.17 0 0 0-.23.12" vector-effect="non-scaling-stroke"/><path stroke="#5d5e32" d="M279.4 138.18q-.21.21-.23.38-.11.76.37.16.28-.36.36-.56.31-.79-.5.02" vector-effect="non-scaling-stroke"/><path stroke="#181a67" d="M229.25 138.27q-.24.37 0 .5.24.14.44-.07.18-.18.08-.39a.3.3 0 0 0-.52-.04" vector-effect="non-scaling-stroke"/><path stroke="#5d5e32" d="M188.13 139.33q-.22.57.35.52a.35.35 0 0 0 .3-.26q.12-.48-.22-.52a.41.41 0 0 0-.43.26M212.827 140.016a.42.42 0 0 0-.594-.007l-.014.014a.42.42 0 0 0-.008.594l10.742 11.007a.42.42 0 0 0 .594.007l.014-.014a.42.42 0 0 0 .008-.594l-10.742-11.007M277.42 140.17q-.32.24-.25.56.06.34.37.18.32-.16.26-.58-.05-.4-.38-.16M275.41 142.15q-.25.24-.31.58-.05.34.28.25.41-.11.47-.61a.26.26 0 0 0-.44-.22M273.52 144.08q-.22.18-.29.32a.26.26 0 0 0 .4.33q.23-.2.29-.36a.26.26 0 0 0-.4-.29" vector-effect="non-scaling-stroke"/><path stroke="#181a67" d="M271.22 145.34q-.03.58.44.16.13-.12-.04-.3-.09-.1-.21-.03-.19.12-.19.17M189.72 147.43q-1.06 1.53-.76 2.77.15.59.72.8l1.55.56a.22.2 74.3 0 0 .19-.37q-1.82-1.74-.87-3.34.3-.51-.13-.92-.22-.2-.47-.26-.24-.05-.17.12.04.09.06.13.11.19-.12.51" vector-effect="non-scaling-stroke"/><path stroke="#5d5e32" d="M282.765 151.11a.45.22-40 0 0-.486.121.45.22-40 0 0-.204.458.45.22-40 0 0 .486-.12.45.22-40 0 0 .204-.458M280.07 152.32a.22.22 0 0 0 .14.39q.27.01.48-.22.43-.46-.23-.4-.13.01-.39.23M277.22 153.26a.27.27 0 0 0 .18.43q.43.05.54-.15.15-.26-.12-.39-.38-.18-.6.11" vector-effect="non-scaling-stroke"/><path stroke="#181a67" d="M193.91 157.42q.17.37.22.38.88.26.41-.63-.51-.95-1.24-.82-.58.11-.07.47l.45.33a.73.65-88 0 1 .23.27M163.05 93.58q-.1.59-.03.73.57 1.23.97-.08.09-.31-.26-.8a.37.37 0 0 0-.68.15M172.24 108.52q.04.46.38.53.38.07.34-.31-.04-.46-.41-.51a.27.27 0 0 0-.31.29M192.88 110.54a.49.49 0 0 0-.49-.49.49.49 0 0 0-.49.49.49.49 0 0 0 .49.49.49.49 0 0 0 .49-.49M95.13 134.32q.06.25.15.39a.24.24 0 0 0 .43-.12q.02-.55-.28-.59a.26.26 0 0 0-.3.32M117.38 139.25q-.73.46-1.09 1.03-.35.55.35.62l.77.08a.58.58 0 0 0 .63-.49q.08-.57-.05-1.02a.41.41 0 0 0-.61-.22M135.31 146.5q-.06.68.44.54.55-.16.17-.59-.56-.64-.61.05M192.95 159.37a.44.44 0 0 0-.44-.44.44.44 0 0 0-.44.44.44.44 0 0 0 .44.44.44.44 0 0 0 .44-.44M291.26 125.34a.36.36 0 0 0-.02.67q.48.2.67-.17a.38.38 0 0 0-.33-.55q-.16-.01-.32.05M90.18 137.47q-.21.58-.15.71.57 1.29.92-.01.07-.25-.08-.7a.36.36 0 0 0-.69 0" vector-effect="non-scaling-stroke"/><path stroke="#5d5e32" d="M119.1 148.35q-.06.37.27.45.29.08.39-.2.13-.38-.17-.51-.42-.19-.49.26" vector-effect="non-scaling-stroke"/><path stroke="#181a67" d="M148.44 147.21q-.57.19-.18.58a.32.32 0 0 0 .38.06q.43-.22.3-.45a.42.42 0 0 0-.5-.19M140.08 148.6a.23.23 0 0 0 .26.24q.3-.05.41-.33a.28.28 0 0 0-.33-.37q-.33.09-.34.46M138.25 150.26q-.36.42-.16.49 1 .41.63-.51-.14-.36-.47.02" vector-effect="non-scaling-stroke"/></g><path d="m215.82 66.19.26.92q.13.48.64.51l1.66.08a.52.49 23.3 0 1 .38.85q-.46.43-.28 1.19.09.35 1.42 3.15a1.04 1-26.3 0 1-.48 1.34l-3.36 1.72a.66.65-29.2 0 1-.86-.23q-.19-.32-.69-.54-.82-.35-1.35-.07-.6.31.06.57l1.79.73a1.14.63 7.7 0 1 .52.38q1.77 2.83-1.97 4.51-1.28.58.12.63 1.77.07 3.79-1.08a1.05 1.01-9.5 0 0 .5-.68l.12-.55q.17-.79.79-.31.41.32.78.92.22.35.01.63l-.34.47a.41.37 17.9 0 0 .34.6l2.83.12a.38.37-68.5 0 1 .26.62q-.9 1.08-.37 2.3.2.49-.06.91l-1.74 2.77a.94.84 12.7 0 1-.71.4q-.22.01-.46.11a.42.42 0 0 0-.1.71q.32.27.5.54a1.03.93 71 0 1-.68 1.57l-.6.01a.51.46 23.2 0 1-.39-.84q.91-.7-.37-2.39-.56-.74-.59.24l-.11 3.03a.98.92-1.7 0 1-.89.89l-2.85.25a.5.44-9.8 0 0-.46.57l.17.61q.16.54.65.25l.61-.35q.59-.33.68.3l.12.89q.03.23.23.26.25.05.3.05.27 0 .28-.63.01-1.41.92-.57a.3.09 38.8 0 1 .13.19v.54q.01.56.63.33 1.23-.48 3.02.71.43.28.46.8.16 2.42-.77 3.38-.47.49.23.54l1.03.08q.4.03.35.41-.03.27-.31.35-1.98.59-2.56 2.18-.1.27.04.49a.43.4-33.2 0 0 .58.09l.7-.45q.6-.4.55.28-.17 2.43.47 4.19c.67 1.83.52 3.14.47 4.72q-.02.45.3.81l.44.49q.39.44.35-.18-.13-2.05.21-4.63.17-1.23-.29-2.71-.72-2.35-.8-2.68-.15-.61.12-.96.67-.86.91-2.02a.64.64 0 0 1 .66-.51q1.09.08 1.72-.14.53-.18.17-.62-.9-1.09-2.21-1.53a.77.7-60.7 0 1-.27-1.18l1.23-1.56q.28-.36.06-.78-.9-1.75.86-2.89.35-.22 1.54-.33 1.22-.12 1.65-.26.68-.23.11-.66-.21-.16-.3-.33-.49-.91.49-.22 2.98 2.12 3.49 4.79.12.61.66.73l.6.14q.6.13.19.6-.67.8-.81 1.61a.77.77 0 0 1-.56.61q-.88.24-1 .39-.52.64.37.54 2.09-.23 2.36 1.41.09.58.65.77.74.25 1.54-.99.55-.84-.43-.95-.08-.01-.35-.25-.37-.33-.01-.68.54-.51.07-1.12-.29-.38-.12-.8l.7-1.78a.46.45-63.3 0 1 .66-.22l.39.24q.46.29.55-.28.16-1.1 1.53-1.35.54-.1.68-.64.13-.47 0-.63-.44-.55-.97-.18l-.26.18q-.6.42-.71-.33l-.12-.79q-.03-.17-.25-.21-.1-.01-.36.08a.29.29 0 0 0-.19.26q-.08 1.94-1.09.51a.53.51-72.9 0 1-.07-.13q-.05-.17-.14-.35-.27-.55-.79-.22-.35.22-.66.1-.56-.23-.35-.8.96-2.59.59-3.76-.38-1.17.75-1.65 3-1.29 2.06-2.68a.85.85 0 0 0-.58-.36q-2.04-.3-1.88-2.46.04-.54-.48-.7-1.58-.5-2.72.45-.5.41-.45-.23.19-2.36 1.15-4.33.25-.52.1-.98l-.18-.53a.51.46 6.3 0 1 .73-.53l1.04.55q.33.17.6-.29.78-1.32 2.8-2.59 1.43-.27 2.72.8-.28.22-.28 1.04.01.54.26.99.91 1.65.87 3.48-.05 1.91.8.21L244 73q.94-1.88 1 .25l.07 2.25q.02.54.62.15.09-.06.3-.89.16-.64.73-.31.72.42 1.91-.19a.7.7 0 0 1 .2-.07q.88-.15 1.06.17.16.29-.13.46-.38.22-.39.24-.98 1.36.42.57 1.06-.6 1.2-1.48.08-.51-.2-.93l-1.73-2.6 5.11 4.18-1.7 1.44q-.48.39.1.61 1.76.64 2.65-1.15.65.26.97.75-.16.57.46 1.65 1.2 2.12-.8 3.06-.39.18-.34.35l1.15 4.31q.05.15-.38.15-2.03-.01-2.9 1.2-.46.64.3.8l.76.16a.67.66 6.9 0 1 .53.67l-.05 1.68q-.02.65-.52.28-.78-.58-1.67-.75-.67-.14-.39.49l1.29 2.87q.27.62-.27.81l-.39.14q-.67.25-.01.63.72.43.75.5.16.45-.45.53-.9.11-1.08.53-.17.4.25.51.41.11.37.5a.45.45 0 0 1-.41.4q-1.1.11-1.92 1.08-.36.43-.01.88.45.55.52 1a.89.89 0 0 1-.3.82q-2.21 1.84-1.54 5.28.03.16.18.12l1.17-.3q.3-.08.15-.35-.62-1.12-.52-2.75.06-1.06.95-.13l.24.26q.17.18.36-.22l.85-1.73q.41-.84 1.23-.43l2.8 1.43q.81.41.12.93-1.04.79.3 1.91.45.37-.11.55-.21.06-.9-.18-.29-.11-.51 0a.4.4 0 0 0-.09.65q1.4 1.29 1.79 2.92.01.06.16.16.17.12.28.08.33-.11.31-.42-.14-1.94 1.12-3.08.38-.34.79-.04 1.25.94 2.3.47.97-.43-.09-.57-2.06-.26-3.41-2.2-.28-.4-.11-.78l.86-1.9a.83.8-47.3 0 1 1.47-.08q.29.56.75.49.6-.08.17-.48l-.75-.7a.4.34 54.9 0 1 .05-.64q.36-.12.57-.35.13-.15-.08-.21l-.29-.08q-.05-.02-.11.07l-.22.34q-.38.6-.69.03-.48-.9.35-1.83.29-.31.01-.63-.24-.27-.49-.31-.93-.15-.75-.68.22-.66.68-.83.28-.11 3.43-1.08.55-.17.55.37v1.15q.01.64-.39.98-.74.65-.71.94.19 1.74 1.39.19l.53-.68q.52-.66.83.12.18.44.18.66a.73.71-81.7 0 0 .51.71q.69.2 1.96.05a.72.72 0 0 0 .63-.59q.14-.78.53-1.16a.87.87 0 0 1 1.46.41q.28 1.12.06 1.98-.12.47-.6.47-.94.02-1.22.34a.31.31 0 0 0 .19.51l1.96.23q.68.08.54.71-.87 3.81-2.19 4.59-.5.3-.12.74.68.79.11 1.52-.2.27-.53.35-.17.05-.37.09-.62.11-.28.64.66 1.03.48 2.62-.06.53-.57.71-.79.3-2.32-1.29-.98-1.03-.42.22l.95 2.08q.11.26-.17.71l-2.6 4.19q-.44.12-.5.26a.24.23-10.7 0 0 .38.26l.43-.4 4.16-3.77q.4-.36.74.06.97 1.17.99 2.65 0 .53.38.91.77.8-.05 1.31a.27.27 0 0 0 .03.47q.23.11.38-.06 1.18-1.26 2.66.15.19.18.35-.04l.16-.22a.1.1 0 0 0-.02-.13q-1.96-1.39-1.82-3.58a.96.96 0 0 1 .43-.74l1.34-.88q1.41-.49 2.54.64.11.11.24.02l.26-.19q.3-.21-.02-.41l-1.79-1.12q-.48-.3-.82.15-.49.65-.96.5-.66-.42-.87-.88-.22-.47.23-1.04.86-1.08 2.33-.85.61.09.84.67.45 1.15 2.76 1.96.37.12.63-.18l1-1.19a.28.21-16.1 0 1 .47.17l-.76 1.14q-.32.48.27 1.1l1.38 1.42q.31.33-.32.56l-.41.16q-.51.18-.33.68.38 1.07-.07 1.61-.33.39-.04.81.07.1.15.29.14.32-.21.51l-.59.33a.65.62-28.2 0 0-.27.84q.75 1.44-.48 2.6-.33.31-.82.15l-.54-.18q-.46-.15-.61.27-.05.14-.04.31.02.25.4.73.28.34.37.54.2.45-.33.48l-.54.03q-.55.03-.69.54-.36 1.37-1.63 2.66-.62.63.2.3 2.78-1.11 2.95-1.36 3.06-4.61 3.27.9.02.31-.15 2.91-.01.25.18.22l.37-.04q.5-.06.57-.46l.24-1.24a.21.19-65 0 1 .32-.14q1.12 1.05 2.01.77.19-.06.28-.25.07-.16.02-.32-.08-.29-.38-.32-1.58-.15-2.17-1.09-.26-.42.11-.8l2.26-2.32q.41-.43-.03-.76-1.57-1.16-1.63-2.29-.05-.84.65-.37.84.57 1.44.09.57-.45.73.27l.12.56a.79.68-80.8 0 0 .27.43q.77.6 2-.41a1.66 1.65 78.4 0 0 .53-.81q.33-1.13.63-1.29.43-.23.44.25.1 3.11 2.73 3.76.7.17.15.66l-1.22 1.08a.42.23-26.4 0 0-.12.17q-.25.82.52.89a.18.18 0 0 1 .14.28q-1.27 1.96-.33 2.52-2.11 6.06-4.53 12.12-1.06 2.67-2.82 12.47-.53 2.96-1.49 4.25c-2.35 3.15-8.04 2.68-11.02 1.25-4.66-2.24-6.51-3.14-11.05-.43q-6.7 4-11.28 3.57-9.66-.92-19.7-5.34-2.06-.91-6.96-1.27-3.36-.24-7.06.31-9.91 1.49-19.76 2.61-2.01-5.25-5.48-4.86-.52.06-.55-.46-.08-1.1-.61-2.05-.32-.57.25-.8l.89-.36q.5-.21.14-.64-1.1-1.33-2.72-2.74-.31-.27-.54-.07a.36.36 0 0 0-.03.5q.61.72.52 1.4a.4.39-77.8 0 1-.5.34l-.73-.23q-.8-.26-.78.43l.05 1.42q.01.23-.1.41-.05.09-.29.12-.35.05-.44-.29-.27-1.11-1.75-2.69a.85.81-56.1 0 1-.15-.89l1.3-3.22q.18-.45-.16-.6l-1.76-.78q-.69-.3-.71.4c-.02.65.13 1.51-.03 1.85q-.08.17-.22.25-.45.26-.55-.29l-.17-1.06q-.05-.28-.31-.26-.15.01-.27.1-.15.12-.26.41-.52 1.39-1.17 1.94-.67.55-.48-.29.2-.84-.12-1.71-.18-.49-.01-.99.96-2.76.86-4.89-.03-.71.58-.34 1.08.65 1.98-.78.32-.49.04-1.01-.98-1.79.47-4.34a1.22 1.22 0 0 0 .11-.95q-.52-1.73-.64-2.22-.01-.02-.3-.08-.16-.03-.28.22-.08.17-.06.36.11.76-.24 1.1a.36.36 0 0 1-.61-.25q-.04-1.16-.71-2.59-.22-.48.06-.93.41-.64.76-.75.6-.2.64.42l.03.6q.04.59.63.48.47-.09.74-.64c.3-.61.07-1.1 0-1.63a.82.78-16.5 0 1 .48-.82l2.67-1.21q.47-.21.53.34l.05.48q.08.71.66.26l1.52-1.17a.57.55 54.2 0 1 .81.15l.18.27a.44.43 49.9 0 1-.04.55l-.81.84q-.4.42.2.57.87.22 1.9 1a.25.25 0 0 0 .38-.31q-.2-.39-.59-.61a.74.71 26.4 0 1-.33-.92l.94-2.15q.22-.52.87-.24 2.46 1.04 2.9 2.78.39 1.55-1 .69l-1.19-.74q-.38-.24-.38.23 0 .53 1.35 1.16.45.22.56.7.28 1.2-.71 2.07-.42.37.1.5l2.15.56a.36.35 82 0 0 .39-.53l-.82-1.47q-.31-.56.07-1l1.61-1.86q.33-.37.83-.18 2.12.8 2.63 1.98.21.5.76.52 1.78.04 2.2 1.54.17.58.62.18l.24-.22q.34-.3.65-.02l3.29 2.91 2.48 2.49q.41.42.24-.15-.6-1.96-2.29-2.71-.8-3.01-3.83-4.12-.49-.18-.6-.69-.13-.61.52-1.02.44-.28.22-.63l-1.03-1.62q-.65-1.03-.62.09l.04 1.51q.02.47-.44.44-.55-.04-1.19-.86-.38-.48-.41-1.18-.22-4.94-.34-6.15-.01-.06-.14-.16-.09-.07-.16-.08a.34.28-83.1 0 0-.33.31l-.33 3.52a1.36 1.19-64 0 1-2.19.92l-.46-.61q-.45-.57-.88-.24l-.39.31q-.72.57-.45-.31.3-1.03.1-2.63-.06-.48-.39-.84-1.14-1.19-.95-2.37.27-1.69 2.05-6.03.2-.5.75-.49.8.02 1.35-.14a.35.3-45.2 0 0 .04-.64l-.86-.13q-.77-.12-.23-.76.16-.19.3-.56.17-.44-.24-1.05-.58-.88-1.68-.69-.6.1-.55.73 0 .02.56.54.43.4-.13.59-.33.1-.56-.43a.88.88 0 0 0-.81-.54q-1.42 0-2.85 1.25-.44.38.06.7.64.4 1.1 1.14 1.63 2.6-1.26 1.71-.25-.07-1.47-1.3-.48-.49-.64.18-.18.78.52 1.37.41.35.07.76-1.39 1.65-.09 3.69.29.46-.24.32-.23-.06-.38-.23-.4-.45-.87-.07-.52.41-.74.34-.52-.19-.16-.52l.31-.28q.35-.32 0-.67l-1.26-1.29q-.71-1.54-.84-3.03-.06-.61-.36-.77l-1.4-.77q-.45-.25-.84.1-.63.57-1.38.37-.65-.17-.1-.71l1.09-1.08q.29-.29.19-.8-.6-3.13-.16-4.04 1.1-2.29 1.65-4.23.32-1.11.84-1.13.42-.02 1.52.69a.1.1 0 0 0 .12-.15c-1.05-1.04-.85-2.41.09-3.57q1.39-1.72 2.36-4.24a.36.36 0 0 0-.48-.46q-1.54.7-1.91 2.29-.11.48-.45.17l-.21-.18q-.3-.27-.54.01l-2.75 3.2q-.27.31-.7-.05-1.71-1.44-.42-3.73.28-.5-.23-.71l-.6-.25a1.05 1.05 0 0 1-.61-.72q-.24-.99-1.2-2.5-.43-.68-.28.11.51 2.7 1.28 5.19.47 1.5-.49 4.38-.16.46.08.88.4.7.4.97 0 .55-.52.36-1.45-.53-2.35.82a.53.53 0 0 1-.94-.11q-.88-2.45-2.37-4.09a.99.97 28.4 0 0-1.7.49l-.55 3.79q-.05.4-.45.55l-.51.2q-.62.23-.19.65 1.16 1.13.17 2.09-.38.37-.15.84.76 1.55 1.29 2.25.61.81.26 2.27a.4.4 0 0 1-.14.22q-.68.55-.8-.64-.1-.9-.62-.54l-.21.15a.89.87-49.5 0 1-.88.08l-3.97-1.88q-.37-.18-.43-.58-.5-3 1.51-3.4a.69.69 0 0 0 .55-.67q0-.21-.05-.35a.49.48-21.9 0 0-.67-.28l-.26.12q-.56.27-.72-.22l-1.4-4.4q-.18-.59-.89-.54-1.07.08-1.57-1.86-.14-.52.4-.55c1.3-.06 1.58-.03 2.59-1.03q.59-.6 2.73-2.51.39-.35.87-.13 1.03.47 1.67-.66a.48.42-69.6 0 0-.27-.69l-.8-.13a.52.46 23.3 0 1-.36-.78q1.02-1.17.47-1.91a.63.63 0 0 0-.54-.26q-1.34.07-1.16 1.55a.32.31 79.8 0 1-.23.35l-.29.07q-.18.04-.22-.13l-.87-3.26a.44.39-3.7 0 1 .48-.48q1.27.11 2.22-.22.76-.26.01-.56-1.26-.51-1.6-2.72a.54.54 0 0 1 .47-.62q.22-.03.43.03.36.11.56.43.16.25.27.28.8.16.08-.45-1.32-1.12-.75-2.35.23-.51-.18-.89-.19-.17-.35-.56a.46.45 56.3 0 0-.74-.15q-.53.52-.65.53-.53.06-.41-.33.1-.32.28-.36.59-.12.27-.59-.28-.42-.99-.49-.6-.06-.57-.66.03-.47.62-1 2.99 2.13 6.27 1.21.47-.14.73-.55l2.88-4.51.42 4.08a.19.19 0 0 0 .25.15l.31-.11q.15-.05.14-.21-.01-1.42 1.31-1.29 1.32.12.33.92-.02.02-.19.39-.35.78.29.22l1.29-1.1q.41-.35.91-.17.35.13.98.83a.45.45 0 0 1-.08.66q-.29.22-.46.44-.15.22.31.74 1.19 1.38 3.1.96.56-.12.17-.54l-1.22-1.32q-.37-.4-.09-.93.32-.6.01-1.29a1.34 1.22-14.1 0 1 1.15-1.73l2.84-.28a.41.4-26.3 0 0 .25-.71q-1.77-1.59-4.11-2.34-.99-.32-.56-1.18l4.83 2.42a2.96 2.96 0 0 0 2.55.05q2.93-1.33 6.18-2.78 3.52-1.56 8.11-.97 6.08.79 12.08-.2m-1.48 3.02q-.69.7.32.71h.62q.6.01.61-.56l.02-.81q.01-.91-.59-.32zm-3.1.1q-.31.43.19.43.21 0 .27-.2.04-.15-.09-.27-.2-.19-.37.04m-22.92 3.22a.14.14 0 0 0 .17.12q.3-.07.3-.21.01-.16-.15-.16-.34 0-.32.25m2.97.62a.31.31 0 0 0-.25.38q.08.33.53.3a.31.31 0 0 0 .26-.46q-.16-.27-.54-.22m20.57 1.36a.36.36 0 0 0-.36-.36.36.36 0 0 0-.36.36.36.36 0 0 0 .36.36.36.36 0 0 0 .36-.36m24.91 2.98a.18.18 0 0 0-.28-.21l-1.31 1.2a.16.15 9.1 0 0 .19.24q.95-.43 1.4-1.23m-60.661 2.356a1.2.42 134.5 0 0 1.14-.562 1.2.42 134.5 0 0 .542-1.15 1.2.42 134.5 0 0-1.14.562 1.2.42 134.5 0 0-.542 1.15m7.181-.466a.23.22-46.2 0 0 0 .34q.47.4 1.16-.03.57-.36.35-.91-.23-.6-.62-.24zm2.96-.13a.26.26 0 0 0-.04.46q.47.3.67.21 1.22-.52-.01-.86-.12-.03-.62.19m-6.14.31a.3.3 0 0 0 .43.32q.34-.17.35-.42.02-.28-.26-.32-.43-.06-.52.42m10.92-.03q-.03.28.26.28.29-.01.45-.22a.27.27 0 0 0-.24-.44q-.44.05-.47.38m46.387 2.049a.96.49 47.6 0 0-.285-1.04.96.49 47.6 0 0-1.01-.378.96.49 47.6 0 0 .286 1.04.96.49 47.6 0 0 1.01.378m15.563.991a.47.47 0 0 0-.47-.47.47.47 0 0 0-.47.47.47.47 0 0 0 .47.47.47.47 0 0 0 .47-.47m1.1.85a.29.28-67 0 0 .08.2q.57.6.79.03a.28.28 0 0 0-.11-.34q-.76-.49-.76.11m-58.824 1.299a1.02.23 134.4 0 0 .878-.568 1.02.23 134.4 0 0 .55-.89 1.02.23 134.4 0 0-.878.568 1.02.23 134.4 0 0-.55.89m20.974-1.249q-.04.49.48.3a.3.3 0 0 0 .19-.34q-.06-.28-.36-.26a.33.33 0 0 0-.31.3m-40.93.96q.1.33.32.14.1-.08.09-.17-.01-.28-.29-.19a.18.18 0 0 0-.12.22m25.84.08q-.01.44.38.23.18-.09.22-.22.09-.29-.19-.34a.35.35 0 0 0-.41.33m-6.24 1.94a.36.36 0 0 0-.36-.36.36.36 0 0 0-.36.36.36.36 0 0 0 .36.36.36.36 0 0 0 .36-.36m12.39.22.34.3q.25.22.26-.17.01-.28-.04-.39-.1-.23-.29-.22-.23 0-.34.1a.3.21 44.6 0 0 .07.38m.87 1.74q-.01.19.18.32.29.22.38-.13.05-.17-.03-.27-.5-.66-.53.08m43.13-.15q-.25.25.07.41.29.14.44-.02.19-.22-.02-.42-.24-.23-.49.03m-9.02 3.37q.06.06.16.06.06 0 .13-.05 2.7-2.13 2.28-2.55-.42-.43-2.58 2.25-.05.07-.05.13 0 .1.06.16m-5.1-2.23q-.29.44.27.36.68-.09.09-.55-.15-.12-.36.19m-25.41 3.15q.03-.02.05-.04.06-.04.02-.11-1.22-2.44-1.52-2.26t1.28 2.4q.04.07.11.04.03-.01.06-.03m3.41-.91a.22.22 0 0 0 .11.29q.41.2.59-.34a.27.27 0 0 0-.23-.35q-.29-.02-.47.4m-14.683 2.12a.75.37 92.5 0 0 .403-.734.75.37 92.5 0 0-.337-.765.75.37 92.5 0 0-.403.733.75.37 92.5 0 0 .337.765m-26.577 1.49-.16-.96a.24.23 48.4 0 0-.46-.03q-.37 1.39 1.12 2.56.27.21.36-.12.07-.25-.29-.51a1.46 1.42-77.2 0 1-.57-.94m26.28.22a.34.25-2.8 0 0 .45.3q.12-.04.06-.28-.06-.23-.29-.2-.15.02-.22.18m-23 1.96a.23.23 0 0 0 .26.33q.83-.27 1.12-.97.3-.7-.38-.36-.58.29-1 1m72.04.22q.68.36 1.02.33 1.7-.12.09-.66-.14-.04-.75-.36t-.73-.41q-1.36-1.01-.48.45.17.3.85.65m-51.56 5.19q-.43.66-1.01 1.43-.32.45.18.21.9-.42 1.44-1.24.54-.83.57-1.82.02-.56-.26-.08-.48.83-.92 1.5m38.07 6.4q-.13.26.33 2.29.17.71.46.05.33-.73-.28-1.73-.28-.46.03-.9c1.1-1.51.01-3.31-.36-4.95q-.54-2.39-1.06.01-.51 2.38.86 4.31.29.4.02.92m-38.68-3.19-.42.06q-.68.1-.29.66.65.94.87 1.05.58.28.62-.36.08-1.21.69-1.83.55-.55-.25-.47-.08.01-.63.57-.26.27-.59.32m-28.11.37a.41.41 0 0 0-.41-.41.41.41 0 0 0-.41.41.41.41 0 0 0 .41.41.41.41 0 0 0 .41-.41m21.36.85q-.5.5.23.5.17-.01.16-.35 0-.15-.14-.18-.18-.04-.25.03m57.69 2.05q-.46 1.3-.45 1.34.15.7.63.26.09-.09.53-1.35t.43-1.39q-.1-.64-.65-.19-.04.02-.49 1.33m-.56 2.89q-.56.42-.06.63.4.17.42-.27.02-.65-.36-.36m8.71.18a.29.29 0 0 0 .3.45q.34-.07.37-.45.02-.31-.28-.28-.2.02-.39.28m-20.65.85q-.17.24.04.56a.23.23 0 0 0 .38-.01q.12-.18.09-.43a.28.28 0 0 0-.51-.12m-37.33.16q-.28.59.43.41a.31.3 63.4 0 0 .16-.49q-.34-.44-.59.08m-2.06.9q-.02.33.11.52a.3.3 0 0 0 .54-.09q.13-.39-.24-.64a.27.27 0 0 0-.41.21m39.98 1.05-.04.46q-.05.56.34.15.35-.36.04-.72-.3-.35-.34.11m10.117 1.548a.85.32 108 0 0 .567-.71.85.32 108 0 0-.041-.906.85.32 108 0 0-.567.71.85.32 108 0 0 .041.906m-23.247-.708q-.12.39.16.69a.28.28 0 0 0 .48-.19q.01-.32-.23-.59-.28-.31-.41.09m32.4-.05q-.17.21-.23.42-.22.79.39.22.27-.24.15-.58a.18.18 0 0 0-.31-.06m-19.68.72q-.39.53-.38.55.1.97.59.17.21-.32.17-.63-.07-.51-.38-.09m19.23 1.44q-.06-.77-.46-.11-.26.42-.26.92-.01 1.34.7.12.07-.12.02-.93m-31.73.13q-.16.84.08 1.13.5.62.56-.2.05-.67-.21-1.03a.24.24 0 0 0-.43.1m22.4.75q-.8.81-.33 1.42.34.43.58-.05.28-.57.01-1.31-.09-.24-.26-.06m-9.1 2.63a.8.45 87.8 0 0 .42-.817.8.45 87.8 0 0-.48-.782.8.45 87.8 0 0-.42.816.8.45 87.8 0 0 .48.782m-11.23 4.4a2.33.43 68.6 0 0-.45-2.327 2.33.43 68.6 0 0-1.25-2.012 2.33.43 68.6 0 0 .45 2.326 2.33.43 68.6 0 0 1.25 2.012m-28.41-2.36q.01.24.24.16.89-.31.75-1.12-.23-1.4-.98-.11-.05.09-.01 1.07m73.05-.39a.36.36 0 0 0-.36-.36.36.36 0 0 0-.36.36.36.36 0 0 0 .36.36.36.36 0 0 0 .36-.36m-9.78 1q-.08.11-.1.34-.02.51.37.18.28-.23.28-.35.06-.97-.55-.17m-23.619 2.7a1.09.42 89.4 0 0 .409-1.094 1.09.42 89.4 0 0-.431-1.086 1.09.42 89.4 0 0-.409 1.094 1.09.42 89.4 0 0 .431 1.086m22.899-.97q-.2.28-.1.55a.2.2 0 0 0 .34.05q.32-.38.32-.49 0-.84-.56-.11m-34.31 1.38q.01 1.38.22 1.91.34.85.63-.19.27-1-.36-1.88-.49-.67-.49.16m39.24 3.64q-.37.35-.07.54.19.11.37 0 .19-.11.17-.36a.28.28 0 0 0-.47-.18m-36.89 2.39a.09.09 0 0 0 .13.03q.2-.14-.03-.34a.12.12 0 0 0-.09-.03q-.22.02-.01.34m42.74 1.78a.24.24 0 0 0 .06.34q.3.19.5-.2.14-.27-.14-.39-.18-.08-.42.25m9.992 1.685a1.07.39 108.4 0 0 .708-.892 1.07.39 108.4 0 0-.032-1.138 1.07.39 108.4 0 0-.708.892 1.07.39 108.4 0 0 .032 1.138m-88.942-1.445q.12.27.39-.02.18-.19-.07-.28-.08-.02-.25.08-.13.08-.07.22m36.93-.18q-.13.71-.01.87.69.86.71-.25.01-.54-.47-.74a.17.17 0 0 0-.23.12m51.25 2.74q-.21.21-.23.38-.11.76.37.16.28-.36.36-.56.31-.79-.5.02m-50.15.09q-.24.37 0 .5.24.14.44-.07.18-.18.08-.39a.3.3 0 0 0-.52-.04m-41.12 1.06q-.22.57.35.52a.35.35 0 0 0 .3-.26q.12-.48-.22-.52a.41.41 0 0 0-.43.26m24.697.686a.42.42 0 0 0-.594-.007l-.014.014a.42.42 0 0 0-.008.594l10.742 11.007a.42.42 0 0 0 .594.007l.014-.014a.42.42 0 0 0 .008-.594zm64.593.154q-.32.24-.25.56.06.34.37.18.32-.16.26-.58-.05-.4-.38-.16m-2.01 1.98q-.25.24-.31.58-.05.34.28.25.41-.11.47-.61a.26.26 0 0 0-.44-.22m-1.89 1.93q-.22.18-.29.32a.26.26 0 0 0 .4.33q.23-.2.29-.36a.26.26 0 0 0-.4-.29m-2.3 1.26q-.03.58.44.16.13-.12-.04-.3-.09-.1-.21-.03-.19.12-.19.17m-81.5 2.09q-1.06 1.53-.76 2.77.15.59.72.8l1.55.56a.22.2 74.3 0 0 .19-.37q-1.82-1.74-.87-3.34.3-.51-.13-.92-.22-.2-.47-.26-.24-.05-.17.12.04.09.06.13.11.19-.12.51m93.045 3.68a.45.22-40 0 0-.486.121.45.22-40 0 0-.204.458.45.22-40 0 0 .486-.12.45.22-40 0 0 .204-.458m-2.695 1.21a.22.22 0 0 0 .14.39q.27.01.48-.22.43-.46-.23-.4-.13.01-.39.23m-2.85.94a.27.27 0 0 0 .18.43q.43.05.54-.15.15-.26-.12-.39-.38-.18-.6.11m-83.31 4.16q.17.37.22.38.88.26.41-.63-.51-.95-1.24-.82-.58.11-.07.47l.45.33a.73.65-88 0 1 .23.27"/><path fill="#3033cd" d="M215.82 66.19q3.85 1.81 7.86 2.32 2.89.36 4.5.94 2.15.77 4.27 1.62.46.18.94.12l4.15-.53q-2.02 1.27-2.8 2.59-.27.46-.6.29l-1.04-.55a.51.46 6.3 0 0-.73.53l.18.53q.15.46-.1.98-.96 1.97-1.15 4.33-.05.64.45.23 1.14-.95 2.72-.45.52.16.48.7-.16 2.16 1.88 2.46a.85.85 0 0 1 .58.36q.94 1.39-2.06 2.68-1.13.48-.75 1.65.37 1.17-.59 3.76-.21.57.35.8.31.12.66-.1.52-.33.79.22.09.18.14.35a.53.51-72.9 0 0 .07.13q1.01 1.43 1.09-.51a.29.29 0 0 1 .19-.26q.26-.09.36-.08.22.04.25.21l.12.79q.11.75.71.33l.26-.18q.53-.37.97.18.13.16 0 .63-.14.54-.68.64-1.37.25-1.53 1.35-.09.57-.55.28l-.39-.24a.46.45-63.3 0 0-.66.22l-.7 1.78q-.17.42.12.8.47.61-.07 1.12-.36.35.01.68.27.24.35.25.98.11.43.95-.8 1.24-1.54.99-.56-.19-.65-.77-.27-1.64-2.36-1.41-.89.1-.37-.54.12-.15 1-.39a.77.77 0 0 0 .56-.61q.14-.81.81-1.61.41-.47-.19-.6l-.6-.14q-.54-.12-.66-.73-.51-2.67-3.49-4.79-.98-.69-.49.22.09.17.3.33.57.43-.11.66-.43.14-1.65.26-1.19.11-1.54.33-1.76 1.14-.86 2.89.22.42-.06.78l-1.23 1.56a.77.7-60.7 0 0 .27 1.18q1.31.44 2.21 1.53.36.44-.17.62-.63.22-1.72.14a.64.64 0 0 0-.66.51q-.24 1.16-.91 2.02-.27.35-.12.96.08.33.8 2.68.46 1.48.29 2.71-.34 2.58-.21 4.63.04.62-.35.18l-.44-.49q-.32-.36-.3-.81c.05-1.58.2-2.89-.47-4.72q-.64-1.76-.47-4.19.05-.68-.55-.28l-.7.45a.43.4-33.2 0 1-.58-.09q-.14-.22-.04-.49.58-1.59 2.56-2.18.28-.08.31-.35.05-.38-.35-.41l-1.03-.08q-.7-.05-.23-.54.93-.96.77-3.38-.03-.52-.46-.8-1.79-1.19-3.02-.71-.62.23-.63-.33v-.54a.3.09 38.8 0 0-.13-.19q-.91-.84-.92.57-.01.63-.28.63-.05 0-.3-.05-.2-.03-.23-.26l-.12-.89q-.09-.63-.68-.3l-.61.35q-.49.29-.65-.25l-.17-.61a.5.44-9.8 0 1 .46-.57l2.85-.25a.98.92-1.7 0 0 .89-.89l.11-3.03q.03-.98.59-.24 1.28 1.69.37 2.39a.51.46 23.2 0 0 .39.84l.6-.01a1.03.93 71 0 0 .68-1.57q-.18-.27-.5-.54a.42.42 0 0 1 .1-.71q.24-.1.46-.11a.94.84 12.7 0 0 .71-.4l1.74-2.77q.26-.42.06-.91-.53-1.22.37-2.3a.38.37-68.5 0 0-.26-.62l-2.83-.12a.41.37 17.9 0 1-.34-.6l.34-.47q.21-.28-.01-.63-.37-.6-.78-.92-.62-.48-.79.31l-.12.55a1.05 1.01-9.5 0 1-.5.68q-2.02 1.15-3.79 1.08-1.4-.05-.12-.63 3.74-1.68 1.97-4.51a1.14.63 7.7 0 0-.52-.38l-1.79-.73q-.66-.26-.06-.57.53-.28 1.35.07.5.22.69.54a.66.65-29.2 0 0 .86.23l3.36-1.72a1.04 1-26.3 0 0 .48-1.34q-1.33-2.8-1.42-3.15-.18-.76.28-1.19a.52.49 23.3 0 0-.38-.85l-1.66-.08q-.51-.03-.64-.51zM180.02 67.51q-.14 1.13.11 2.1.11.44.51.23.17-.09.23-.36.24-.93.36-1.89l.84.08q-.43.86.56 1.18 2.34.75 4.11 2.34a.41.4-26.3 0 1-.25.71l-2.84.28a1.34 1.22-14.1 0 0-1.15 1.73q.31.69-.01 1.29-.28.53.09.93l1.22 1.32q.39.42-.17.54-1.91.42-3.1-.96-.46-.52-.31-.74.17-.22.46-.44a.45.45 0 0 0 .08-.66q-.63-.7-.98-.83-.5-.18-.91.17l-1.29 1.1q-.64.56-.29-.22.17-.37.19-.39.99-.8-.33-.92-1.32-.13-1.31 1.29.01.16-.14.21l-.31.11a.19.19 0 0 1-.25-.15l-.42-4.08q1.26-3.73 5.3-3.97"/><path d="M181.23 67.59q-.12.96-.36 1.89-.06.27-.23.36-.4.21-.51-.23-.25-.97-.11-2.1z"/><path fill="#3033cd" d="m214.34 69.21.98-.98q.6-.59.59.32l-.02.81q-.01.57-.61.56h-.62q-1.01-.01-.32-.71"/><path fill="#babc64" d="M211.24 69.31q.17-.23.37-.04.13.12.09.27-.06.2-.27.2-.5 0-.19-.43"/><path fill="#3033cd" d="m249.06 70.62 1.73 2.6q.28.42.2.93-.14.88-1.2 1.48-1.4.79-.42-.57.01-.02.39-.24.29-.17.13-.46-.18-.32-1.06-.17a.7.7 0 0 0-.2.07q-1.19.61-1.91.19-.57-.33-.73.31-.21.83-.3.89-.6.39-.62-.15l-.07-2.25q-.06-2.13-1-.25l-2.09 4.18q-.85 1.7-.8-.21.04-1.83-.87-3.48-.25-.45-.26-.99 0-.82.28-1.04 5.96-2.54 8.8-.84M164.84 75.33q-.59.53-.62 1-.03.6.57.66.71.07.99.49.32.47-.27.59-.18.04-.28.36-.12.39.41.33.12-.01.65-.53a.46.45 56.3 0 1 .74.15q.16.39.35.56.41.38.18.89-.57 1.23.75 2.35.72.61-.08.45-.11-.03-.27-.28-.2-.32-.56-.43-.21-.06-.43-.03a.54.54 0 0 0-.47.62q.34 2.21 1.6 2.72.75.3-.01.56-.95.33-2.22.22a.44.39-3.7 0 0-.48.48l.87 3.26q.04.17.22.13l.29-.07a.32.31 79.8 0 0 .23-.35q-.18-1.48 1.16-1.55a.63.63 0 0 1 .54.26q.55.74-.47 1.91a.52.46 23.3 0 0 .36.78l.8.13a.48.42-69.6 0 1 .27.69q-.64 1.13-1.67.66-.48-.22-.87.13-2.14 1.91-2.73 2.51c-1.01 1-1.29.97-2.59 1.03q-.54.03-.4.55.5 1.94 1.57 1.86.71-.05.89.54l1.4 4.4q.16.49.72.22l.26-.12a.49.48-21.9 0 1 .67.28q.05.14.05.35a.69.69 0 0 1-.55.67q-2.01.4-1.51 3.4.06.4.43.58l3.97 1.88a.89.87-49.5 0 0 .88-.08l.21-.15q.52-.36.62.54.12 1.19.8.64a.4.4 0 0 0 .14-.22q.35-1.46-.26-2.27-.53-.7-1.29-2.25-.23-.47.15-.84.99-.96-.17-2.09-.43-.42.19-.65l.51-.2q.4-.15.45-.55l.55-3.79a.99.97 28.4 0 1 1.7-.49q1.49 1.64 2.37 4.09a.53.53 0 0 0 .94.11q.9-1.35 2.35-.82.52.19.52-.36 0-.27-.4-.97-.24-.42-.08-.88.96-2.88.49-4.38-.77-2.49-1.28-5.19-.15-.79.28-.11.96 1.51 1.2 2.5a1.05 1.05 0 0 0 .61.72l.6.25q.51.21.23.71-1.29 2.29.42 3.73.43.36.7.05l2.75-3.2q.24-.28.54-.01l.21.18q.34.31.45-.17.37-1.59 1.91-2.29a.36.36 0 0 1 .48.46q-.97 2.52-2.36 4.24c-.94 1.16-1.14 2.53-.09 3.57a.1.1 0 0 1-.12.15q-1.1-.71-1.52-.69-.52.02-.84 1.13-.55 1.94-1.65 4.23-.44.91.16 4.04.1.51-.19.8l-1.09 1.08q-.55.54.1.71.75.2 1.38-.37.39-.35.84-.1l1.4.77q.3.16.36.77.13 1.49.84 3.03-.73-.08-.95.3a.24.24 0 0 0 .26.36q.46-.11.69-.66l1.26 1.29q.35.35 0 .67l-.31.28q-.36.33.16.52.22.07.74-.34.47-.38.87.07.15.17.38.23.53.14.24-.32-1.3-2.04.09-3.69.34-.41-.07-.76-.7-.59-.52-1.37.16-.67.64-.18 1.22 1.23 1.47 1.3 2.89.89 1.26-1.71-.46-.74-1.1-1.14-.5-.32-.06-.7 1.43-1.25 2.85-1.25a.88.88 0 0 1 .81.54q.23.53.56.43.56-.19.13-.59-.56-.52-.56-.54-.05-.63.55-.73 1.1-.19 1.68.69.41.61.24 1.05-.14.37-.3.56-.54.64.23.76l.86.13a.35.3-45.2 0 1-.04.64q-.55.16-1.35.14-.55-.01-.75.49-1.78 4.34-2.05 6.03-.19 1.18.95 2.37.33.36.39.84.2 1.6-.1 2.63-.27.88.45.31l.39-.31q.43-.33.88.24l.46.61a1.36 1.19-64 0 0 2.19-.92l.33-3.52a.34.28-83.1 0 1 .33-.31q.07.01.16.08.13.1.14.16.12 1.21.34 6.15.03.7.41 1.18.64.82 1.19.86.46.03.44-.44l-.04-1.51q-.03-1.12.62-.09l1.03 1.62q.22.35-.22.63-.65.41-.52 1.02.11.51.6.69 3.03 1.11 3.83 4.12-.1.23-.43.37l-3.29-2.91q-.31-.28-.65.02l-.24.22q-.45.4-.62-.18-.42-1.5-2.2-1.54-.55-.02-.76-.52-.51-1.18-2.63-1.98-.5-.19-.83.18l-1.61 1.86q-.38.44-.07 1l.82 1.47a.36.35 82 0 1-.39.53l-2.15-.56q-.52-.13-.1-.5.99-.87.71-2.07-.11-.48-.56-.7-1.35-.63-1.35-1.16 0-.47.38-.23l1.19.74q1.39.86 1-.69-.44-1.74-2.9-2.78-.65-.28-.87.24l-.94 2.15a.74.71 26.4 0 0 .33.92q.39.22.59.61a.25.25 0 0 1-.38.31q-1.03-.78-1.9-1-.6-.15-.2-.57l.81-.84a.44.43 49.9 0 0 .04-.55l-.18-.27a.57.55 54.2 0 0-.81-.15l-1.52 1.17q-.58.45-.66-.26l-.05-.48q-.06-.55-.53-.34l-2.67 1.21a.82.78-16.5 0 0-.48.82c.07.53.3 1.02 0 1.63q-.27.55-.74.64-.59.11-.63-.48l-.03-.6q-.04-.62-.64-.42-.35.11-.76.75-.28.45-.06.93.67 1.43.71 2.59a.36.36 0 0 0 .61.25q.35-.34.24-1.1-.02-.19.06-.36.12-.25.28-.22.29.06.3.08.12.49.64 2.22a1.22 1.22 0 0 1-.11.95q-1.45 2.55-.47 4.34.28.52-.04 1.01-.9 1.43-1.98.78-.61-.37-.58.34.1 2.13-.86 4.89-.17.5.01.99.32.87.12 1.71-.19.84.48.29.65-.55 1.17-1.94.11-.29.26-.41.12-.09.27-.1.26-.02.31.26l.17 1.06q.1.55.55.29.14-.08.22-.25c.16-.34.01-1.2.03-1.85q.02-.7.71-.4l1.76.78q.34.15.16.6l-1.3 3.22a.85.81-56.1 0 0 .15.89q1.48 1.58 1.75 2.69.09.34.44.29.24-.03.29-.12.11-.18.1-.41l-.05-1.42q-.02-.69.78-.43l.73.23a.4.39-77.8 0 0 .5-.34q.09-.68-.52-1.4a.36.36 0 0 1 .03-.5q.23-.2.54.07 1.62 1.41 2.72 2.74.36.43-.14.64l-.89.36q-.57.23-.25.8.53.95.61 2.05.03.52.55.46 3.47-.39 5.48 4.86l-7.96-.53q2.32-1.43-2.51-2.39a.29.28 54.6 0 0-.08.56q.07.02.15.25a.19.19 0 0 1-.27.22q-1.47-.93-2.19-1.74-.75-.84-1.45.05-.82 1.03-1.01 1.87l-5.55-1.5-2.56-4.32q-.26-.45 0-.9.62-1.09-.5-2.41-.37-.44-.83-.1-1.04.77-2.07-.74-.42-.62.33-.66l.94-.04a.58.56-.1 0 0 .55-.53q.05-.97-1.26-2.18-.41-.38-.66.12-.21.41-.68.45a.2.2 0 0 1-.15-.34q1.31-1.15.54-2.87-.3-.69-.97-.6-.52.07-.68.57-.31.95-.38 1.05-.39.51-.66-.26-.63-1.79-1.5-3.02-.53-.75-.57.17-.06 1.86-.54 2.68-.36.61.61.74.3.03.51.31.27.35-.06.63-1.45 1.26-1.76 2.43-.15.57-.69.32-1.11-.51-1.76.49-.3.46.03.9.72.99.35 1.5a.3.3 0 0 1-.53-.1q-.41-1.51-1.05-1.96-.61-.44-.87.27l-.13.36a1.04 1.04 0 0 1-.64.62q-1.57.55-2.01 2.11l-5.01-.23q.74-1.12-1.35-3.39-.39-.42.06-.79.44-.36 1.19-.59.44-.14.21-.53-1.42-2.42-1.06-3.33 1.19-2.94-1.65-1.46-.59.31-.81.32-1.93.1-.69-1.53 1.25-1.65-.52-3.02a.54.54 0 0 0-.82.18q-.93 1.88-.24 3.43.22.49-.19.89l-1.96 1.92a.42.4-20.6 0 1-.71-.3q.08-.78-.34-1.12-.58-.48-.58.3l.01 1.22q.02 1.71-1.2.47l-2.19-2.21q-.09-.09-.15-.05l-.24.13q-.28.16-.07.41.35.41.39.77a.91.86-21.3 0 1-.38.82q-2.48 1.73-2.09 4.33.04.28.33.29h.29a.12.12 0 0 0 .12-.13q-.14-1.01.2-1.44a.46.43 60.8 0 1 .78.25l.29 1.82q.11.68.69.78.24.04.4.16a.35.35 0 0 1-.05.58l-1.23.66-6.85-.48q1.68-1.48-2.38-3.29-.53-.24-.15-.66l1.91-2.12q.51-.57-.1-1.08-1.39-1.17-1.38-1.78 0-.54.55-.79l.97-.42q.67-.29.33-.98l-.61-1.24q-.36-.75-1.06-.23l-1.6 1.17q-.25.19-.16-.11.07-.27.25-.36.54-.25.03-.83l-.46-.52q-.35-.41.03-.7l1.33-1.04q.44-.35.38-.89-.12-1.08-1.19-1.76a.58.58 0 0 0-.88.61q.13.65.88 1.29.25.21-.02.4l-.31.21q-.21.14-.35-.1l-1.72-3.11q-.26-.46.18-.75.54-.37.02-.88-.38-.39-.16-.89.5-1.07-.63-2.78-.55-.83-.68.16c-.16 1.32-.11 1.98-.92 2.79q-.94.93-1.71 3-.27.69.39.34.6-.34 1.12-1.19.07-.11.16-.2.12-.12.27-.18.35-.15.25.22-.87 3.23-3.36 4.13a.63.61 70.5 0 0-.36.79q.1.31.65.86.61.62-.24.77-1.16.2-1.99 1.31a1.06.93-49.7 0 1-1.49.22l-2.88-2.9q-.77-.77-.55.15.05.23.52 1.04.28.48-.08.9-.86.98-.96 2.81-.02.52-.49.3-1.48-.7-1.54-.7-.78 0-.61.55l.48 1.5q.12.39-.14.77-.79 1.17-.67 2.66l-11.49-4 1.6-3.89a1.04 1.04 0 0 0-.64-1.39q-.88-.29-1.51-.79-.76-.59-.97.49-.13.65-1.06 2.5-.53 1.06-.85-.08-.23-.81.41-1.47.4-.41 0-.82-.38-.39.14-1.11.26-.36.01-.8l-.16-.27a.79.71 50 0 1 .02-.84q1.05-1.34.01-1.88-.51-.27-.37-.83.07-.26.51-.38.49-.12.52-.62.02-.32-.06-.63-.17-.62-.72-.3-1.09.65-3.49.71-.46.01-.5.48-.02.16.11.31a1.16 1.06-30.9 0 1-.51 1.72l-2.47 1.04q-.52.22-.15-.21 1.14-1.33.34-2.23-.41-.48-.74 0l-.3.45q-.07.1-.17.01-.13-.11-.15-.26a.3.3 0 0 1 .17-.3q.54-.27 1.02-.89.33-.41.07-.86-.73-1.29-.69-3.32.01-.54-.46-.79-1.06-.56-1.58.37-.05.11-.17.11-.22 0-.27-.01-.5-.04-.11-.31.54-.36.73-.72.24-.46 0-.93-.46-.88-1.16-1.46-.49-.41-.69.19-1 2.93-.83 5.08.05.51-.32.86-1.46 1.44-.57 2.88.33.53-.3.61l-1.54.2a.56.54 78.9 0 0-.45.7l.91 3.52q.31 1.18.86.01.8-1.71 1.91-2.67 1.48-1.28.45.49-.75 1.3-.14 2.45.24.45.96.49.15 0 .44.2a.27.27 0 0 1-.13.49q-.45.03-.81.23-.45.26-.29.75l.51 1.49c-4.18-.4-9.67-2.59-9.08-7.52q1.01-8.28 6.09-15.36 5.73-7.96 7.85-10.65c1.26-1.61 2.74-2.38 4.93-2.82q16.93-3.43 35.82-9.71 6.62-2.21 10.66-5.01 8.99-6.24 10.14-17.3.21-2 2.26-2.8 1.29-.5 3.08.01 4.66 1.34 9.25 3.26m-1.79 18.25q-.1.59-.03.73.57 1.23.97-.08.09-.31-.26-.8a.37.37 0 0 0-.68.15m9.19 14.94q.04.46.38.53.38.07.34-.31-.04-.46-.41-.51a.27.27 0 0 0-.31.29m20.64 2.02a.49.49 0 0 0-.49-.49.49.49 0 0 0-.49.49.49.49 0 0 0 .49.49.49.49 0 0 0 .49-.49m-97.75 23.78q.06.25.15.39a.24.24 0 0 0 .43-.12q.02-.55-.28-.59a.26.26 0 0 0-.3.32m22.25 4.93q-.73.46-1.09 1.03-.35.55.35.62l.77.08a.58.58 0 0 0 .63-.49q.08-.57-.05-1.02a.41.41 0 0 0-.61-.22m17.93 7.25q-.06.68.44.54.55-.16.17-.59-.56-.64-.61.05m57.64 12.87a.44.44 0 0 0-.44-.44.44.44 0 0 0-.44.44.44.44 0 0 0 .44.44.44.44 0 0 0 .44-.44"/><path fill="#babc64" d="M188.32 72.53q-.02-.25.32-.25.16 0 .15.16 0 .14-.3.21a.14.14 0 0 1-.17-.12M191.29 73.15q.38-.05.54.22a.31.31 0 0 1-.26.46q-.45.03-.53-.3a.31.31 0 0 1 .25-.38"/><circle cx="211.5" cy="74.51" r=".36" fill="#babc64"/><path fill="#3033cd" d="M255.22 75.7q-.89 1.79-2.65 1.15-.58-.22-.1-.61l1.7-1.44q.56.32 1.05.9M256.19 76.45l5.78 4.81a2.25 2.24 60.4 0 0 1.79.49q1.98-.31 5.97-.79 3.04-.37 6.01.18 4.91.93 8.55 2.08c2.08.66 3.31 1.71 3.69 3.97q.64 3.87-.6 7.96a.58.57-76.6 0 0 .45.74l.95.16q.57.1.69.69.8 3.9 2.21 5.8 1.31 1.78 1.3 3.81 0 .23.89 7.62.54 4.44.24 7.6-.53 5.72-2.41 11.27-.94-.56.33-2.52a.18.18 0 0 0-.14-.28q-.77-.07-.52-.89a.42.23-26.4 0 1 .12-.17l1.22-1.08q.55-.49-.15-.66-2.63-.65-2.73-3.76-.01-.48-.44-.25-.3.16-.63 1.29a1.66 1.65 78.4 0 1-.53.81q-1.23 1.01-2 .41a.79.68-80.8 0 1-.27-.43l-.12-.56q-.16-.72-.73-.27-.6.48-1.44-.09-.7-.47-.65.37.06 1.13 1.63 2.29.44.33.03.76l-2.26 2.32q-.37.38-.11.8.59.94 2.17 1.09.3.03.38.32.05.16-.02.32-.09.19-.28.25-.89.28-2.01-.77a.21.19-65 0 0-.32.14l-.24 1.24q-.07.4-.57.46l-.37.04q-.19.03-.18-.22.17-2.6.15-2.91-.21-5.51-3.27-.9-.17.25-2.95 1.36-.82.33-.2-.3 1.27-1.29 1.63-2.66.14-.51.69-.54l.54-.03q.53-.03.33-.48-.09-.2-.37-.54-.38-.48-.4-.73-.01-.17.04-.31.15-.42.61-.27l.54.18q.49.16.82-.15 1.23-1.16.48-2.6a.65.62-28.2 0 1 .27-.84l.59-.33q.35-.19.21-.51-.08-.19-.15-.29-.29-.42.04-.81.45-.54.07-1.61-.18-.5.33-.68l.41-.16q.63-.23.32-.56l-1.38-1.42q-.59-.62-.27-1.1l.76-1.14a.28.21-16.1 0 0-.47-.17l-1 1.19q-.26.3-.63.18-2.31-.81-2.76-1.96-.23-.58-.84-.67-1.47-.23-2.33.85-.45.57-.23 1.04.21.46.87.88l.55.41-1.34.88a.96.96 0 0 0-.43.74q-.14 2.19 1.82 3.58a.1.1 0 0 1 .02.13l-.16.22q-.16.22-.35.04-1.48-1.41-2.66-.15-.15.17-.38.06a.27.27 0 0 1-.03-.47q.82-.51.05-1.31-.38-.38-.38-.91-.02-1.48-.99-2.65-.34-.42-.74-.06l-4.16 3.77q-.15-.06-.31-.12l2.6-4.19q.28-.45.17-.71l-.95-2.08q-.56-1.25.42-.22 1.53 1.59 2.32 1.29.51-.18.57-.71.18-1.59-.48-2.62-.34-.53.28-.64.2-.04.37-.09.33-.08.53-.35.57-.73-.11-1.52-.38-.44.12-.74 1.32-.78 2.19-4.59.14-.63-.54-.71l-1.96-.23a.31.31 0 0 1-.19-.51q.28-.32 1.22-.34.48 0 .6-.47.22-.86-.06-1.98a.87.87 0 0 0-1.46-.41q-.39.38-.53 1.16a.72.72 0 0 1-.63.59q-1.27.15-1.96-.05a.73.71-81.7 0 1-.51-.71q0-.22-.18-.66-.31-.78-.83-.12l-.53.68q-1.2 1.55-1.39-.19-.03-.29.71-.94.4-.34.39-.98v-1.15q0-.54-.55-.37-3.15.97-3.43 1.08-.46.17-.68.83-.18.53.75.68.25.04.49.31.28.32-.01.63-.83.93-.35 1.83.31.57.69-.03l.22-.34q.06-.09.11-.07l.29.08q.21.06.08.21-.21.23-.57.35a.4.34 54.9 0 0-.05.64l.75.7q.43.4-.17.48-.46.07-.75-.49a.83.8-47.3 0 0-1.47.08l-.86 1.9q-.17.38.11.78 1.35 1.94 3.41 2.2 1.06.14.09.57-1.05.47-2.3-.47-.41-.3-.79.04-1.26 1.14-1.12 3.08.02.31-.31.42-.11.04-.28-.08-.15-.1-.16-.16-.39-1.63-1.79-2.92a.4.4 0 0 1 .09-.65q.22-.11.51 0 .69.24.9.18.56-.18.11-.55-1.34-1.12-.3-1.91.69-.52-.12-.93l-2.8-1.43q-.82-.41-1.23.43l-.85 1.73q-.19.4-.36.22l-.24-.26q-.89-.93-.95.13-.1 1.63.52 2.75.15.27-.15.35l-1.17.3q-.15.04-.18-.12-.67-3.44 1.54-5.28a.89.89 0 0 0 .3-.82q-.07-.45-.52-1-.35-.45.01-.88.82-.97 1.92-1.08a.45.45 0 0 0 .41-.4q.04-.39-.37-.5-.42-.11-.25-.51.18-.42 1.08-.53.61-.08.45-.53-.03-.07-.75-.5-.66-.38.01-.63l.39-.14q.54-.19.27-.81l-1.29-2.87q-.28-.63.39-.49.89.17 1.67.75.5.37.52-.28l.05-1.68a.67.66 6.9 0 0-.53-.67l-.76-.16q-.76-.16-.3-.8.87-1.21 2.9-1.2.43 0 .38-.15l-1.15-4.31q-.05-.17.34-.35 2-.94.8-3.06-.62-1.08-.46-1.65m35.07 48.89a.36.36 0 0 0-.02.67q.48.2.67-.17a.38.38 0 0 0-.33-.55q-.16-.01-.32.05M236.77 77.49q-.45.8-1.4 1.23a.16.15 9.1 0 1-.19-.24l1.31-1.2a.18.18 0 0 1 .28.21"/><ellipse fill="#babc64" rx="1.2" ry=".42" transform="rotate(134.5 71.913 76.596)"/><path fill="#3033cd" d="m183.29 79.38.89-.84q.39-.36.62.24.22.55-.35.91-.69.43-1.16.03a.23.22-46.2 0 1 0-.34M186.25 79.25q.5-.22.62-.19 1.23.34.01.86-.2.09-.67-.21a.26.26 0 0 1 .04-.46M180.11 79.56q.09-.48.52-.42.28.04.26.32-.01.25-.35.42a.3.3 0 0 1-.43-.32"/><path fill="#babc64" d="M191.03 79.53q.03-.33.47-.38a.27.27 0 0 1 .24.44q-.16.21-.45.22-.29 0-.26-.28"/><ellipse fill="#3033cd" rx=".96" ry=".49" transform="rotate(47.6 26.707 308.85)"/><circle cx="252.51" cy="82.57" r=".47" fill="#babc64"/><path fill="#3033cd" d="M254.08 83.42q0-.6.76-.11a.28.28 0 0 1 .11.34q-.22.57-.79-.03a.29.28-67 0 1-.08-.2"/><ellipse fill="#3033cd" rx="1.02" ry=".23" transform="rotate(134.4 80.332 83.184)"/><path fill="#3033cd" d="M216.23 83.47a.33.33 0 0 1 .31-.3q.3-.02.36.26a.3.3 0 0 1-.19.34q-.52.19-.48-.3M175.3 84.43a.18.18 0 0 1 .12-.22q.28-.09.29.19.01.09-.09.17-.22.19-.32-.14M201.14 84.51a.35.35 0 0 1 .41-.33q.28.05.19.34-.04.13-.22.22-.39.21-.38-.23"/><circle cx="194.54" cy="86.45" r=".36" fill="#babc64"/><path fill="#babc64" d="M207.22 86.29q.11-.1.34-.1.19-.01.29.22.05.11.04.39-.01.39-.26.17l-.34-.3a.3.21 44.6 0 1-.07-.38M208.16 88.41q.03-.74.53-.08.08.1.03.27-.09.35-.38.13-.19-.13-.18-.32M251.29 88.26q.25-.26.49-.03.21.2.02.42-.15.16-.44.02-.32-.16-.07-.41M244.84 89.09q.42.42-2.28 2.55-.07.05-.13.05-.1 0-.16-.06t-.06-.16q0-.06.05-.13 2.16-2.68 2.58-2.25"/><path fill="#3033cd" d="M237.17 89.4q.21-.31.36-.19.59.46-.09.55-.56.08-.27-.36"/><path fill="#babc64" d="M211.76 92.55q-.03.02-.06.03-.07.03-.11-.04-1.58-2.22-1.28-2.4t1.52 2.26q.04.07-.02.11-.02.02-.05.04"/><path fill="#3033cd" d="M215.17 91.64q.18-.42.47-.4a.27.27 0 0 1 .23.35q-.18.54-.59.34a.22.22 0 0 1-.11-.29"/><ellipse fill="#babc64" rx=".75" ry=".37" transform="rotate(92.5 55.741 142.483)"/><path d="M163.05 93.58a.37.37 0 0 1 .68-.15q.35.49.26.8-.4 1.31-.97.08-.07-.14.03-.73"/><path fill="#babc64" d="M174.48 96.19q.36.26.29.51-.09.33-.36.12-1.49-1.17-1.12-2.56a.24.23 48.4 0 1 .46.03l.16.96a1.46 1.42-77.2 0 0 .57.94M200.19 95.47q.07-.16.22-.18.23-.03.29.2.06.24-.06.28a.34.25-2.8 0 1-.45-.3M177.19 97.43q.42-.71 1-1 .68-.34.38.36-.29.7-1.12.97a.23.23 0 0 1-.26-.33"/><path fill="#3033cd" d="M249.59 96.96q.61.32.75.36 1.61.54-.09.66-.34.03-1.02-.33-.68-.35-.85-.65-.88-1.46.48-.45.12.09.73.41M198.28 103.24q-.54.82-1.44 1.24-.5.24-.18-.21.58-.77 1.01-1.43.44-.67.92-1.5.28-.48.26.08-.03.99-.57 1.82M235.72 108.32q-1.37-1.93-.86-4.31.52-2.4 1.06-.01c.37 1.64 1.46 3.44.36 4.95q-.31.44-.03.9.61 1 .28 1.73-.29.66-.46-.05-.46-2.03-.33-2.29.27-.52-.02-.92M197.65 105.73q.55-.56.63-.57.8-.08.25.47-.61.62-.69 1.83-.04.64-.62.36-.22-.11-.87-1.05-.39-.56.29-.66l.42-.06q.33-.05.59-.32"/><circle cx="168.54" cy="106.42" r=".41" fill="#babc64"/><path fill="#3033cd" d="M190.31 107.27q.07-.07.25-.03.14.03.14.18.01.34-.16.35-.73 0-.23-.5M248.71 109.57q-.44 1.26-.53 1.35-.48.44-.63-.26-.01-.04.45-1.34.45-1.31.49-1.33.55-.45.65.19.01.13-.43 1.39"/><path d="M172.24 108.52a.27.27 0 0 1 .31-.29q.37.05.41.51.04.38-.34.31-.34-.07-.38-.53"/><circle cx="192.39" cy="110.54" r=".49"/><path fill="#babc64" d="M247.44 112.21q.38-.29.36.36-.02.44-.42.27-.5-.21.06-.63"/><path fill="#3033cd" d="M256.15 112.39q.19-.26.39-.28.3-.03.28.28-.03.38-.37.45a.29.29 0 0 1-.3-.45"/><path fill="#babc64" d="M235.5 113.24a.28.28 0 0 1 .51.12q.03.25-.09.43a.23.23 0 0 1-.38.01q-.21-.32-.04-.56"/><path fill="#3033cd" d="M198.17 113.4q.25-.52.59-.08a.31.3 63.4 0 1-.16.49q-.71.18-.43-.41"/><path fill="#babc64" d="M196.11 114.3a.27.27 0 0 1 .41-.21q.37.25.24.64a.3.3 0 0 1-.54.09q-.13-.19-.11-.52M273.87 115.22l-.55-.41q.47.15.96-.5.34-.45.82-.15l1.79 1.12q.32.2.02.41l-.26.19q-.13.09-.24-.02-1.13-1.13-2.54-.64M236.09 115.35q.04-.46.34-.11.31.36-.04.72-.39.41-.34-.15z"/><ellipse fill="#babc64" rx=".85" ry=".32" transform="rotate(108 81.063 147.58)"/><path fill="#babc64" d="M223.37 116.1q.24.27.23.59a.28.28 0 0 1-.48.19q-.28-.3-.16-.69.13-.4.41-.09"/><path d="M186.29 116q-.23.55-.69.66a.24.24 0 0 1-.26-.36q.22-.38.95-.3"/><path fill="#babc64" d="M255.36 116.14a.18.18 0 0 1 .31.06q.12.34-.15.58-.61.57-.39-.22.06-.21.23-.42M235.68 116.86q.31-.42.38.09.04.31-.17.63-.49.8-.59-.17-.01-.02.38-.55M254.91 118.3q.05.81-.02.93-.71 1.22-.7-.12 0-.5.26-.92.4-.66.46.11M223.18 118.43a.24.24 0 0 1 .43-.1q.26.36.21 1.03-.06.82-.56.2-.24-.29-.08-1.13M245.58 119.18q.17-.18.26.06.27.74-.01 1.31-.24.48-.58.05-.47-.61.33-1.42M263.83 118.97q.16.06.31.12l-.43.4a.24.23-10.7 0 1-.38-.26q.06-.14.5-.26"/><ellipse fill="#babc64" rx=".8" ry=".45" transform="rotate(87.8 55.351 183.359)"/><ellipse fill="#babc64" rx="2.33" ry=".43" transform="rotate(68.6 21.282 226.499)"/><path fill="#3033cd" d="M196.84 123.85q-.04-.98.01-1.07.75-1.29.98.11.14.81-.75 1.12-.23.08-.24-.16"/><circle cx="269.53" cy="123.46" r=".36" fill="#3033cd"/><path fill="#babc64" d="M260.11 124.46q.61-.8.55.17 0 .12-.28.35-.39.33-.37-.18.02-.23.1-.34"/><path d="m97.47 145.46-13.63-2.23-.51-1.49q-.16-.49.29-.75.36-.2.81-.23a.27.27 0 0 0 .13-.49q-.29-.2-.44-.2-.72-.04-.96-.49-.61-1.15.14-2.45 1.03-1.77-.45-.49-1.11.96-1.91 2.67-.55 1.17-.86-.01l-.91-3.52a.56.54 78.9 0 1 .45-.7l1.54-.2q.63-.08.3-.61-.89-1.44.57-2.88.37-.35.32-.86-.17-2.15.83-5.08.2-.6.69-.19.7.58 1.16 1.46.24.47 0 .93-.19.36-.73.72-.39.27.11.31.05.01.27.01.12 0 .17-.11.52-.93 1.58-.37.47.25.46.79-.04 2.03.69 3.32.26.45-.07.86-.48.62-1.02.89a.3.3 0 0 0-.17.3q.02.15.15.26.1.09.17-.01l.3-.45q.33-.48.74 0 .8.9-.34 2.23-.37.43.15.21l2.47-1.04a1.16 1.06-30.9 0 0 .51-1.72q-.13-.15-.11-.31.04-.47.5-.48 2.4-.06 3.49-.71.55-.32.72.3.08.31.06.63-.03.5-.52.62-.44.12-.51.38-.14.56.37.83 1.04.54-.01 1.88a.79.71 50 0 0-.02.84l.16.27q.25.44-.01.8-.52.72-.14 1.11.4.41 0 .82-.64.66-.41 1.47.32 1.14.85.08.93-1.85 1.06-2.5.21-1.08.97-.49.63.5 1.51.79a1.04 1.04 0 0 1 .64 1.39zm-7.29-7.99q-.21.58-.15.71.57 1.29.92-.01.07-.25-.08-.7a.36.36 0 0 0-.69 0"/><ellipse fill="#babc64" rx="1.09" ry=".42" transform="rotate(89.4 54.541 182.52)"/><path d="M291.26 125.34q.16-.06.32-.05a.38.38 0 0 1 .33.55q-.19.37-.67.17a.36.36 0 0 1 .02-.67"/><path fill="#babc64" d="M259.95 126.3q0 .11-.32.49a.2.2 0 0 1-.34-.05q-.1-.27.1-.55.56-.73.56.11M225.57 127.41q.63.88.36 1.88-.29 1.04-.63.19-.21-.53-.22-1.91 0-.83.49-.16"/><path d="M130.09 152.99q-8.41.1-16.41-2.15 1.15-1.02 2.87-.88.18.02.21-.16l.05-.27a.31.31 0 0 0-.28-.36l-3.82-.35q-.63-.06-.78-.59l-.13-.46q-.17-.62-.72-.2-1.05.79-1.4 2.14-.31-.2-.72-.25-.12-1.49.67-2.66.26-.38.14-.77l-.48-1.5q-.17-.55.61-.55.06 0 1.54.7.47.22.49-.3.1-1.83.96-2.81.36-.42.08-.9-.47-.81-.52-1.04-.22-.92.55-.15l2.88 2.9a1.06.93-49.7 0 0 1.49-.22q.83-1.11 1.99-1.31.85-.15.24-.77-.55-.55-.65-.86a.63.61 70.5 0 1 .36-.79q2.49-.9 3.36-4.13.1-.37-.25-.22-.15.06-.27.18-.09.09-.16.2-.52.85-1.12 1.19-.66.35-.39-.34.77-2.07 1.71-3c.81-.81.76-1.47.92-2.79q.13-.99.68-.16 1.13 1.71.63 2.78-.22.5.16.89.52.51-.02.88-.44.29-.18.75l1.72 3.11q.14.24.35.1l.31-.21q.27-.19.02-.4-.75-.64-.88-1.29a.58.58 0 0 1 .88-.61q1.07.68 1.19 1.76.06.54-.38.89l-1.33 1.04q-.38.29-.03.7l.46.52q.51.58-.03.83-.18.09-.25.36-.09.3.16.11l1.6-1.17q.7-.52 1.06.23l.61 1.24q.34.69-.33.98l-.97.42q-.55.25-.55.79-.01.61 1.38 1.78.61.51.1 1.08l-1.91 2.12q-.38.42.15.66 4.06 1.81 2.38 3.29m-10.99-4.64q-.06.37.27.45.29.08.39-.2.13-.38-.17-.51-.42-.19-.49.26"/><path fill="#babc64" d="M264.32 131.21a.28.28 0 0 1 .47.18q.02.25-.17.36-.18.11-.37 0-.3-.19.07-.54M227.43 133.6q-.21-.32.01-.34a.12.12 0 0 1 .09.03q.23.2.03.34a.09.09 0 0 1-.13-.03"/><path d="M95.13 134.32a.26.26 0 0 1 .3-.32q.3.04.28.59a.24.24 0 0 1-.43.12q-.09-.14-.15-.39"/><path fill="#babc64" d="M208.02 135.28q.33-.14.43-.37 1.69.75 2.29 2.71.17.57-.24.15zM270.17 135.38q.24-.33.42-.25.28.12.14.39-.2.39-.5.2a.24.24 0 0 1-.06-.34"/><ellipse fill="#3033cd" rx="1.07" ry=".39" transform="rotate(108.4 91.189 169.176)"/><path fill="#babc64" d="M191.29 135.4q.17-.1.25-.08.25.09.07.28-.27.29-.39.02-.06-.14.07-.22"/><path fill="#3033cd" d="M228.15 135.44a.17.17 0 0 1 .23-.12q.48.2.47.74-.02 1.11-.71.25-.12-.16.01-.87M90.18 137.47a.36.36 0 0 1 .69 0q.15.45.08.7-.35 1.3-.92.01-.06-.13.15-.71"/><path fill="#babc64" d="M279.9 138.16q-.08.2-.36.56-.48.6-.37-.16.02-.17.23-.38.81-.81.5-.02"/><path fill="#3033cd" d="M229.25 138.27a.3.3 0 0 1 .52.04q.1.21-.08.39-.2.21-.44.07-.24-.13 0-.5"/><path fill="#babc64" d="M188.13 139.33a.41.41 0 0 1 .43-.26q.34.04.22.52a.35.35 0 0 1-.3.26q-.57.05-.35-.52"/><path d="M117.38 139.25a.41.41 0 0 1 .61.22q.13.45.05 1.02a.58.58 0 0 1-.63.49l-.77-.08q-.7-.07-.35-.62.36-.57 1.09-1.03M150.5 153.63l-13.56-.16 1.23-.66a.35.35 0 0 0 .05-.58q-.16-.12-.4-.16-.58-.1-.69-.78l-.29-1.82a.46.43 60.8 0 0-.78-.25q-.34.43-.2 1.44a.12.12 0 0 1-.12.13h-.29q-.29-.01-.33-.29-.39-2.6 2.09-4.33a.91.86-21.3 0 0 .38-.82q-.04-.36-.39-.77-.21-.25.07-.41l.24-.13q.06-.04.15.05l2.19 2.21q1.22 1.24 1.2-.47l-.01-1.22q0-.78.58-.3.42.34.34 1.12a.42.4-20.6 0 0 .71.3l1.96-1.92q.41-.4.19-.89-.69-1.55.24-3.43a.54.54 0 0 1 .82-.18q1.77 1.37.52 3.02-1.24 1.63.69 1.53.22-.01.81-.32 2.84-1.48 1.65 1.46-.36.91 1.06 3.33.23.39-.21.53-.75.23-1.19.59-.45.37-.06.79 2.09 2.27 1.35 3.39m-2.06-6.42q-.57.19-.18.58a.32.32 0 0 0 .38.06q.43-.22.3-.45a.42.42 0 0 0-.5-.19m-8.36 1.39a.23.23 0 0 0 .26.24q.3-.05.41-.33a.28.28 0 0 0-.33-.37q-.33.09-.34.46m-1.83 1.66q-.36.42-.16.49 1 .41.63-.51-.14-.36-.47.02"/><rect width=".86" height="16.22" x="-.43" y="-8.11" fill="#babc64" rx=".42" transform="rotate(-44.3 288.052 -194.719)"/><path fill="#babc64" d="M277.42 140.17q.33-.24.38.16.06.42-.26.58-.31.16-.37-.18-.07-.32.25-.56"/><path d="M175.16 159.17q-2.27-.34-3.59-1.09c.96-1.65.09-4.29-2.14-4.07q-.08.01-.09.06l-.12.35q-.1.31.21.35l1.03.14a.65.6 2.6 0 1 .56.57l.16 2.52q-3.61-1.31-7.21-2.72-2.25-.88-8.46-1.42.44-1.56 2.01-2.11a1.04 1.04 0 0 0 .64-.62l.13-.36q.26-.71.87-.27.64.45 1.05 1.96a.3.3 0 0 0 .53.1q.37-.51-.35-1.5-.33-.44-.03-.9.65-1 1.76-.49.54.25.69-.32.31-1.17 1.76-2.43.33-.28.06-.63-.21-.28-.51-.31-.97-.13-.61-.74.48-.82.54-2.68.04-.92.57-.17.87 1.23 1.5 3.02.27.77.66.26.07-.1.38-1.05.16-.5.68-.57.67-.09.97.6.77 1.72-.54 2.87a.2.2 0 0 0 .15.34q.47-.04.68-.45.25-.5.66-.12 1.31 1.21 1.26 2.18a.58.56-.1 0 1-.55.53l-.94.04q-.75.04-.33.66 1.03 1.51 2.07.74.46-.34.83.1 1.12 1.32.5 2.41-.26.45 0 .9z"/><path fill="#babc64" d="M275.41 142.15a.26.26 0 0 1 .44.22q-.06.5-.47.61-.33.09-.28-.25.06-.34.31-.58M273.52 144.08a.26.26 0 0 1 .4.29q-.06.16-.29.36a.26.26 0 0 1-.4-.33q.07-.14.29-.32"/><path fill="#3033cd" d="M271.22 145.34q0-.05.19-.17.12-.07.21.03.17.18.04.3-.47.42-.44-.16"/><path d="M135.31 146.5q.05-.69.61-.05.38.43-.17.59-.5.14-.44-.54"/><path fill="#3033cd" d="M189.84 146.92q-.02-.04-.06-.13-.07-.17.17-.12.25.06.47.26.43.41.13.92-.95 1.6.87 3.34a.22.2 74.3 0 1-.19.37l-1.55-.56q-.57-.21-.72-.8-.3-1.24.76-2.77.23-.32.12-.51M148.44 147.21a.42.42 0 0 1 .5.19q.13.23-.3.45a.32.32 0 0 1-.38-.06q-.39-.39.18-.58M113.68 150.84l-4-1.13q.35-1.35 1.4-2.14.55-.42.72.2l.13.46q.15.53.78.59l3.82.35a.31.31 0 0 1 .28.36l-.05.27q-.03.18-.21.16-1.72-.14-2.87.88"/><path fill="#babc64" d="M119.1 148.35q.07-.45.49-.26.3.13.17.51-.1.28-.39.2-.33-.08-.27-.45"/><path fill="#3033cd" d="M140.08 148.6q.01-.37.34-.46a.28.28 0 0 1 .33.37q-.11.28-.41.33a.23.23 0 0 1-.26-.24M138.25 150.26q.33-.38.47-.02.37.92-.63.51-.2-.07.16-.49"/><ellipse fill="#babc64" rx=".45" ry=".22" transform="rotate(-40 349.194 -312.271)"/><path fill="#babc64" d="M280.07 152.32q.26-.22.39-.23.66-.06.23.4-.21.23-.48.22a.22.22 0 0 1-.14-.39M277.22 153.26q.22-.29.6-.11.27.13.12.39-.11.2-.54.15a.27.27 0 0 1-.18-.43"/><path fill="#3033cd" d="M171.57 158.08q-.19-.04-.39-.08l-.16-2.52a.65.6 2.6 0 0-.56-.57l-1.03-.14q-.31-.04-.21-.35l.12-.35q.01-.05.09-.06c2.23-.22 3.1 2.42 2.14 4.07M193.68 157.15l-.45-.33q-.51-.36.07-.47.73-.13 1.24.82.47.89-.41.63-.05-.01-.22-.38a.73.65-88 0 0-.23-.27"/><path d="m188.07 161.85-7.36-1.18q.19-.84 1.01-1.87.7-.89 1.45-.05.72.81 2.19 1.74a.19.19 0 0 0 .27-.22q-.08-.23-.15-.25a.29.28 54.6 0 1 .08-.56q4.83.96 2.51 2.39"/><circle cx="192.51" cy="159.37" r=".44"/></svg>