<svg xmlns="http://www.w3.org/2000/svg" viewBox="0 0 382 382"><path fill="#ed0101" d="m289.71 118.96 1.11-3.64q.21-.71.44 0 .74 2.35-1.11 3.93-.71.61-.44-.29M296.76 132.42q1.48-3.12.21-6.05a.67.67 0 0 0-1.22-.03q-1.2 2.5-.1 5.31.29.72 1.11.77a3.38 2.14-89.9 0 1-2.09-1.17 3.36 2.13-89.7 0 1-.05-4.14 3.38 2.14-89.9 0 1 1.87-1.36 3.39 2.14-89.9 0 1 1.66 1.61 3.37 2.13-89.9 0 1-.56 4.47 3.4 2.08-87.2 0 1-.83.59"/><rect width=".92" height="6.56" x="-.46" y="-3.28" fill="#ed0101" rx=".26" transform="rotate(-1 7661.24 -16592.162)"/><path fill="#ed0101" d="M283.89 139.27c1.61.46 1.97 2.75 3.09 3.99q.35.4-.17.5l-.52.11q-.28.05-.42-.19l-2.33-3.96q-.39-.66.35-.45M285.69 139.71q.35-.36.79-.38a.19.19 0 0 1 .16.31q-.32.4-.77.44a.22.22 0 0 1-.18-.37M299.34 142.08l-.22-.32q-.42-.6.3-.45.83.18.89 1.04.15 2.35.08 5.04-.01.16-.17.18l-.41.05a.29.29 0 0 1-.32-.3l.15-4.21q.02-.57-.3-1.03"/><path fill="#ed0101" d="M283.5 144.34q.56 1.34 1.69 2.47.08.08.01.16l-.19.21q-.11.13-.25.04-2.1-1.3-2.82-3.7-.2-.65.48-.71l2.04-.19q1.15-.1.15.47-.32.17-.67.29a.73.72 69.9 0 0-.44.96M281.83 146.18q.09-.02.12.06.22.51-.28.84a.3.3 0 0 1-.46-.31q.09-.49.62-.59M279.65 155.55q.93-2.18.78-4.57-.19-2.97.79-.16.91 2.63-1.45 4.82-.28.25-.12-.09"/><ellipse fill="#ed0101" rx=".83" ry=".54" transform="rotate(34.5 -117.105 529.648)"/><path fill="#ed0101" d="M298.72 167.76a.55.55 0 0 0-.79.27q-1.13 2.89.49 5.41.11.17-.06.28l-.22.14q-.08.05-.14-.02-2.37-2.66-.91-5.8.18-.39.61-.51.76-.22 1.53-.02.95.23-.02.35-.26.03-.49-.1M267.31 202.93a.7.7 0 0 0 .33 1.25q.41.05.34.43 0 .01-.01.02-.07.22-.27.12c-1.82-.91-4.73-2.3-4.96-4.59-.25-2.37 1.51-4.07 3.94-3.67 3.35.55 2.91 4.72.63 6.44m-1.343-.06a3.12 2.14 89.5 0 0 2.113-3.139 3.12 2.14 89.5 0 0-2.167-3.1 3.12 2.14 89.5 0 0-2.113 3.138 3.12 2.14 89.5 0 0 2.167 3.1M295.21 205.93a.11.11 0 0 1-.12.1l-.06-.01a3.15 1.99-83.3 0 1-1.61-3.36l.03-.28a3.15 1.99-83.3 0 1 2.35-2.89l.06.01a.11.11 0 0 1 .09.12zm-.63-1.4a1.71.36 90.7 0 0 .38-1.706 1.71.36 90.7 0 0-.34-1.714 1.71.36 90.7 0 0-.38 1.706 1.71.36 90.7 0 0 .34 1.714M278.73 204.97l-2.61-3.92q-.48-.73.37-.52.18.04.35.12.38.17.55.55.82 1.8 2.1 3.1.3.31-.05.56l-.27.2q-.26.18-.44-.09M278.06 200.89q.51-.39 1.05-.27a.23.23 0 0 1 .13.35q-.41.58-1.11.36-.46-.15-.07-.44"/><ellipse fill="#ed0101" rx=".66" ry=".4" transform="rotate(-43.2 396.159 -246.833)"/><path fill="#ed0101" d="M285.494 213.25a3.39 2.13 89.6 0 1-2.154-3.375 3.39 2.13 89.6 0 1 2.106-3.405 3.39 2.13 89.6 0 1 2.154 3.375 3.39 2.13 89.6 0 1-2.106 3.405m-.056-.21a3.16 1.18 90.4 0 0 1.202-3.152 3.16 1.18 90.4 0 0-1.158-3.168 3.16 1.18 90.4 0 0-1.202 3.152 3.16 1.18 90.4 0 0 1.158 3.168M263.298 217.33a3.41 2.12 89.7 0 1-2.138-3.399 3.41 2.12 89.7 0 1 2.102-3.421 3.41 2.12 89.7 0 1 2.138 3.399 3.41 2.12 89.7 0 1-2.102 3.421m-.05-.26a3.16 1.18 90.4 0 0 1.202-3.152 3.16 1.18 90.4 0 0-1.158-3.168 3.16 1.18 90.4 0 0-1.202 3.152 3.16 1.18 90.4 0 0 1.158 3.168M198.31 211.94a.14.14 0 0 1 .06-.23q.17-.05.36.01a.16.16 0 0 1 .01.3q-.25.1-.43-.08M228.63 220.38a.77.77 0 0 0 .93-.45q1.05-2.62-.35-5.21-.12-.22.11-.33l.3-.15q.05-.02.09.02 1.9 2.53.83 5.28a1.82 1.82 0 0 1-2.1 1.12q-1.38-.31-1.65-1.83c-.22-1.29-.19-3.84 1.32-4.37q.8-.28.24.36c-1.09 1.26-.63 2.78-.6 4.38q.02.93.88 1.18M256.25 217.03q.25.41.09.84-.36 1.02.72 1.01 1.73-.02 2.38 1.15.43.77-.3.28-1.15-.79-2.29-.53-2.32.52-.18 1.62.22.11 1.25-.22 1.64-.53.22.45-.12.08-1.97.18a.96.96 0 0 1-.91-1.38q.94-1.92.18-3.74-.31-.72.45-.91 1.32-.34 2.82-.4.45-.01.35.43l-.35 1.6q-.17.83-.59.09-.23-.4-.1-.85.22-.74-.54-.84-.67-.09-1.13.38-.38.39-.1.84M251.01 222.48a.01.01 0 0 1-.01.01l-.54.02a.39.22-1.9 0 1-.4-.21l-.2-6.11a.39.22-1.9 0 1 .38-.24l.54-.01a.01.01 0 0 1 .01.01zM216.8 217.21q-.93 2.58-.02 4.97.15.4.55.52.77.24-.04.25-.73.01-1.11-.61-1.78-2.95.34-5.7a.29.28 43.3 0 1 .44-.01q.25.3-.01.41a.29.27 88.2 0 0-.15.17"/><path fill="#ed0101" d="M217.85 216.83q-.12-.22.1-.32l.34-.15q.05-.02.09.02 2.5 3.37.14 6.45-.04.05-.09.02l-.25-.12q-.22-.12-.11-.35 1.39-2.75-.22-5.55M238.984 225.58a3.24 2.17 90.1 0 1-2.164-3.244 3.24 2.17 90.1 0 1 2.176-3.236 3.24 2.17 90.1 0 1 2.164 3.244 3.24 2.17 90.1 0 1-2.176 3.236m-.02-.31a3.01 1.2 90.1 0 0 1.206-3.008 3.01 1.2 90.1 0 0-1.195-3.012 3.01 1.2 90.1 0 0-1.205 3.008 3.01 1.2 90.1 0 0 1.195 3.012"/><rect width=".94" height="6.6" x="-.47" y="-3.3" fill="#ed0101" rx=".26" transform="rotate(-1.9 7058.164 -8430.042)"/><rect width=".9" height="6.54" x="-.45" y="-3.27" fill="#ed0101" rx=".26" transform="rotate(-1.4 9581.875 -10706.77)"/><path fill="#ed0101" d="M239.36 233q-.13 1.14.28 2.1.36.85-.55.73-.09-.01-.17 0-.95.07-.6-.79.52-1.26.01-2.67-.21-.59.41-.66l1.78-.22q.8-.1.27.51-.27.31-.7.33-.65.03-.73.67M277.03 239.28a.87.87 0 0 0 1.1-.61q.72-2.77-.32-4.98-.38-.82.32-.25c1.91 1.51 1.88 7.23-1.97 5.87a.55.5-2.3 0 1-.27-.23q-1.76-3.09.42-5.81.05-.06.12-.02l.26.13q.22.1.08.31c-1.04 1.52-.58 2.66-.58 4.38q0 .94.84 1.21M257.95 234.09c-.62 1.29-1.09 4.89.44 5.84q.56.35-.09.22c-2.42-.47-2.07-4.5-1.14-5.87a1.72 1.72 0 0 1 2.99.26q1.33 2.98-.74 5.66-.04.05-.09.02l-.27-.13q-.23-.11-.1-.32 1.53-2.64.18-5.66a.65.65 0 0 0-1.18-.02"/><rect width=".96" height="6.54" x="-.48" y="-3.27" fill="#ed0101" rx=".28" transform="rotate(-1.1 12520.265 -13875.425)"/><path fill="#ed0101" d="M232.88 238.44q.38-.57-.07-1.29a.66.65 54.8 0 0-.96-.17q-.34.27-.53-.07v-.01q-.09-.17.07-.27 1.35-.84 2.28.26a.96.95-59.4 0 1 .2.8q-.26 1.28.19 2.47.4 1.03.03 2.17-.15.47-.71.59a.67.67 0 0 1-.72-.32l-2.24-3.88q-.47-.81.4-.45l1.13.46q.58.23.93-.29m-.46 2.13q.36.51.92.72.45.18.19-.23-.37-.59-.99-.69-.31-.04-.12.2"/><rect width=".98" height="6.42" x="-.49" y="-3.21" fill="#ed0101" rx=".27" transform="rotate(-1.3 10753.588 -9208.756)"/><path fill="#ed0101" d="M250.65 245.97q-1.57-.76-2.18-2.33-.35-.9-1.02-1.56-.43-.43.18-.47.53-.04.96.26.31.21.43.55.95 2.54 3.07 3.87.49.31.8.79l2.22 3.34q.19.28-.11.44l-.4.22q-.12.07-.19-.04-1.27-1.94-2.53-3.98-.43-.7-1.23-1.09M250.38 242.13q-.14.15-.35.15-.61 0-.19-.44.12-.12.28-.16.84-.19.26.45"/><ellipse fill="#ed0101" rx="1.16" ry=".5" transform="rotate(16.7 -710.308 908.437)"/><path fill="#ed0101" d="M247.62 245.15a.25.25 0 0 1 .31.17q.13.45-.32.66-.45.22-.45-.28 0-.43.46-.55"/><ellipse fill="#ed0101" rx=".62" ry=".35" transform="rotate(-42.5 444.605 -203.677)"/><path fill="#ed0101" d="M252.44 249.57q.42-.17.26.25-.28.71-1.09.93-.51.14-.23-.31.38-.61 1.06-.87"/><rect width=".94" height="6.56" x="-.47" y="-3.28" fill="#ed0101" rx=".26" transform="rotate(-1.2 12338.958 -11342.713)"/><path fill="#ed0101" d="M214.65 258.72q.06.31.3.52.85.71 1.61 1.57.38.42.14.94-.88 1.88-.28 4.11a.53.52-7.6 0 1-.51.66q-.15 0-.3-.03-.41-.07-.32-.48.99-4.16-2.12-7.96-.66-.8.31-.44 1.23.47 2.39.09.91-.29.26.41-.42.44-.97.2-.64-.28-.51.41"/><path fill="#ed0101" d="M213.63 260.84a.24.24 0 0 1 .29.25q-.04.43-.43.69a.34.33 82.9 0 1-.5-.39q.16-.44.64-.55M255.1 267.1q1.21-3-.18-5.47-.08-.15.16-.2.27-.06.46.15c1.51 1.71 1.79 6.71-1.83 6.1q-.33-.06-.51-.33-1.89-2.85.22-5.9.06-.1.17-.05l.26.13q.12.05.06.17-1.28 2.83-.05 5.44a.68.68 0 0 0 1.24-.04"/><ellipse fill="#ed0101" rx="2.96" ry=".52" transform="rotate(54.9 -145.326 348.644)"/><ellipse fill="#ed0101" rx=".46" ry=".32" transform="rotate(126.4 45.316 189.32)"/><path fill="#ed0101" d="M271.37 265.37q-1.28 2.38-.41 4.83.86 2.39 1.76.01.91-2.41-.48-4.9-.09-.16.07-.23l.31-.14q.06-.02.09.02 2.07 3.04.73 5.66a1.8 1.79 46.4 0 1-3.23-.08q-1.28-2.81.73-5.52.04-.05.09-.02l.24.1q.2.08.1.27M221.99 269.32q-.24.22-.41-.06t.07-.81a.33.33 0 0 1 .46-.15q.61.34-.12 1.02M234.97 274.25q.14.6-.48.6l-.44-.01q-.27 0-.27-.27l-.04-5.95a.27.27 0 0 1 .27-.27l.38-.01a.3.29 3.4 0 1 .3.33q-.32 2.97.28 5.58M263.51 277.96q-.5 1.99.06 4.34.12.51-.41.49l-.45-.03q-.71-.04-.47-.71c.61-1.73.46-3.84-.63-5.45q-1.67-2.49-.27-5.16a1.7 1.69 42.6 0 1 2.94-.12c1.31 2.08.36 3.8-.03 5.92q-.06.3-.3.49-.1.08-.23.08-.17 0-.21.15m-.955-1.28a2.86.83 89.5 0 0 .805-2.867 2.86.83 89.5 0 0-.855-2.853 2.86.83 89.5 0 0-.805 2.867 2.86.83 89.5 0 0 .855 2.853"/><rect width=".96" height="6.56" x="-.48" y="-3.28" fill="#ed0101" rx=".27" transform="rotate(-1.4 11570.128 -9525.397)"/><rect width=".94" height="6.46" x="-.47" y="-3.23" fill="#ed0101" rx=".26" transform="rotate(-1.4 11647.45 -10426.95)"/><path fill="#ed0101" d="M249 284.62a1.32 1.32 0 0 0 1.37.64q1-.17 1.08-1.09.06-.61-.45-.96l-2.3-1.58a1.49 1.49 0 0 1-.29-2.2q1.04-1.22 2.83-.53.45.18.61.64.08.22-.02.44-.35.8-.64-.02-.25-.69-.92-.9-.73-.23-1.22.38-.27.32-.15.72.16.52.62.81 1.09.68 2.17 1.38.48.32.6.88.34 1.74-1.37 2.21a2.92 2.58-30.1 0 1-2.6-.52q-.33-.29-.19-.74.22-.69.58-.06zM270.97 280.43q.18-.14-.17.09-.07.05-.02-.02.07-.11.19-.07M217.15 285.92q.36 1.27 1.37 2.12.33.28 0 .57l-.3.26q-.23.19-.4-.06l-2.73-4.13q-.52-.78.36-.46.4.15.71.44.45.42.96.07.44-.31.96-.39.49-.09.16.29-.3.34-.72.52a.64.63-19.7 0 0-.37.77M229.16 286.72q-.73 2.89-.11 5.35.31 1.21.78.06.8-1.96.23-4.55-.44-1.98.54-.2 1.45 2.63-.25 5.21a1.56 1.55-42.9 0 1-2.65-.09q-1.3-2.33-.23-5.29a1.37 1.37 0 0 1 .93-.84l.32-.08q.59-.16.44.43M215.39 287.61a.26.25 73.2 0 1 .4.22q-.04.65-.66.84-.44.14-.29-.3.16-.48.55-.76M207.61 303.39q.22-2.53-.37-4.6-.19-.66.49-.56.25.04.44.19.32.26.28.67-.27 2.4.14 4.99.11.66-.54.53-.11-.02-.22-.01-.92.13-.45-.64.07-.11.13-.23.08-.16.1-.34M229.87 305.3q-.11-.33-.38-.57-.48-.42-.43-1.06.16-1.95-.18-3.81-.11-.58-.65-.79a.79.79 0 0 0-1.04.52q-.62 2.12-.2 4.6.09.52.59.67.61.19 1.11-.12a.05.05 0 0 1 .08.03l.06.28q.04.17-.12.21c-3.3.84-3.14-4.01-2.14-5.74a1.62 1.62 0 0 1 2.86.11q1.47 3.04 1.14 6.61-.03.37-.41.39-.22.01-.38-.15-.18-.18-.13-.43.04-.18.15-.34a.47.44 56.5 0 0 .07-.41M197.81 301.7q-.09-.72.29-1.04.28-.23.56-.18.38.07.16.39-.38.53-1.01.83M197.81 301.7q-.07 1.42 1.31 2.56.34.28.02.58-.13.11-.3.12-.59.03-.83-.52-.39-.9-1.22-1.57a.63.63 0 0 1 .36-1.13z"/><rect width=".96" height="6.54" x="-.48" y="-3.27" fill="#ed0101" rx=".27" transform="rotate(-1.5 11902.193 -7683.914)"/></svg>