<svg xmlns="http://www.w3.org/2000/svg" viewBox="0 0 382 382"><ellipse fill="#050003" fill-opacity=".996" rx="2.24" ry=".49" transform="rotate(54.4 40.064 336.094)"/><path fill="#050003" fill-opacity=".996" d="M287.95 108.71a.23.23 0 0 1 .3-.25q.32.12.07.38-.31.31-.37-.13M298.76 110.3l.39 3.93q.12 1.23-.58.21-1.02-1.48-.38-3.95.06-.2.23-.31.12-.08.26-.01.07.04.08.13"/><circle cx="297.42" cy="135.26" r=".39" fill="#050003" fill-opacity=".996"/><path fill="#050003" fill-opacity=".996" d="M297.71 138.41a.27.26-7.6 0 1 .36.27q-.06.55-.59.71-.46.14-.33-.32.12-.47.56-.66M281.84 142.95c.32-.5.28-.85.46-1.36q.22-.67.3.03.08.72.44 1.46a.51.5-22.7 0 1-.29.7q-.26.09-.54.04-.81-.17-.37-.87"/><path fill="red" d="m298.87 142.57.76-.51q.51-.34.84.17c1.11 1.68-.37 3.64-1.41 5.05q-.3.41-.58-.02l-2.32-3.48a1.1 1.09 54.4 0 1 .24-1.47q1.09-.84 1.67.09.31.5.8.17"/><path fill="#050003" fill-opacity=".996" d="M292.72 158.01q.37.18.21.49-.12.23-.37.18-.29-.05-.56.01-.67.15-.52-.52.6-2.67-.06-5.35-.11-.47.36-.59.2-.05.38 0a.5.48 8.3 0 1 .37.48l-.02 4.97a.37.36 12.9 0 0 .21.33"/><rect width=".94" height="6.62" x="-.47" y="-3.31" fill="#050003" fill-opacity=".996" rx=".26" transform="rotate(-1.1 8283.1 -14728.708)"/><path fill="#050003" fill-opacity=".996" d="M296.14 163.83q.21.27.52.43.67.34-.06.55-1 .28-1.48-.64-.87-1.7-2.01-3.08-.7-.85.37-.58.2.05.39.13.37.15.55.51.7 1.42 1.72 2.68M295.13 160.94q.37-.29.88-.34.5-.06.24.38-.34.57-1.04.38-.45-.13-.08-.42M292.93 164.23q.24-.29.57-.39a.34.34 0 0 1 .41.48q-.3.58-.83.42a.32.32 0 0 1-.15-.51M273.88 185.2q.47-.28.5-.79c.07-1.61.44-3.19-.6-4.56q-.17-.21.05-.37l.23-.16q.06-.04.11.02 2.33 2.76.56 5.9-.17.3-.5.39-2.48.65-2.92-1.95-.43-2.63 1.09-4.28.04-.05.1-.02l.25.13q.23.11.1.33-1.18 1.97-.38 4.8.34 1.2 1.41.56"/><rect width=".92" height="5.52" x="-.46" y="-2.76" fill="#050003" fill-opacity=".996" rx=".27" transform="rotate(-33.9 446.926 -368.265)"/><ellipse fill="#050003" fill-opacity=".996" rx=".67" ry=".32" transform="rotate(-40.9 389.187 -286.207)"/><path fill="#050003" fill-opacity=".996" d="M293.29 186.06q-.39-.69-1-1.27-.56-.53.21-.5c.78.03 1.47.42 1.7 1.21q.45 1.55 1.64 2.62.72.65-.25.61-.69-.03-1.07-.62a17 4.76 57.3 0 1-1.23-2.05M295.66 184.65l-.79.64a.26.25 87.4 0 1-.37-.34q.39-.6 1.03-.64a.19.19 0 0 1 .13.34"/><ellipse fill="#050003" fill-opacity=".996" rx=".94" ry=".33" transform="rotate(-37.4 417.982 -319.586)"/><ellipse fill="#050003" fill-opacity=".996" rx=".68" ry=".33" transform="rotate(-42.6 387.595 -281.178)"/><path fill="#050003" fill-opacity=".996" d="M284.705 196.66a3.38 2.14 89.4 0 1-2.175-3.358 3.38 2.14 89.4 0 1 2.105-3.402 3.38 2.14 89.4 0 1 2.175 3.358 3.38 2.14 89.4 0 1-2.105 3.402m-.066-.27a3.12 1.18 90.2 0 0 1.191-3.116 3.12 1.18 90.2 0 0-1.17-3.124 3.12 1.18 90.2 0 0-1.19 3.116 3.12 1.18 90.2 0 0 1.17 3.124"/><path fill="#050003" fill-opacity=".996" d="M291.4 197.55q.04.05.09.09.34.28-.09.36-.41.09-.83.05-.57-.05-.44-.6.68-2.73-.08-5.48-.09-.32.23-.41l.46-.12q.5-.13.49.39-.03 2.38-.05 4.99 0 .39.22.73"/><rect width=".96" height="6.54" x="-.48" y="-3.27" fill="#050003" fill-opacity=".996" rx=".27" transform="rotate(.4 -28065.763 39623.783)"/><path fill="#050003" fill-opacity=".996" d="m278.65 199.94-.17-5.02a.37.36-88 0 1 .4-.38l.29.02a.41.41 0 0 1 .37.47q-.48 3.09.24 5.78.15.58-.42.41-.37-.12-.77-.06-.89.12-.24-.52.12-.12.22-.3.09-.19.08-.4M267.53 203.74q.07.13.17.25.47.55-.25.43-.47-.08-.91.07-.38.13-.27-.26.8-2.94-.03-5.72-.06-.19.12-.28l.67-.36q.38-.2.38.24.01 2.33-.04 4.87-.01.4.16.76"/><rect width=".96" height="6.64" x="-.48" y="-3.32" fill="#050003" fill-opacity=".996" rx=".26" transform="rotate(-.8 14554.367 -20422.405)"/><path fill="#050003" fill-opacity=".996" d="m253.48 204.74 1.33 2.06q.29.45-.24.49-.37.03-.65-.38-.21-.29-.35-.62-.24-.55-.84-.78-.96-.35-.24-1.2a.7.7 0 0 1 .48-.24q.69-.07.5.27-.11.21.01.4M251.31 206.68q.13-.26.4-.4.31-.16.3.19-.01.39-.3.58-.84.54-.4-.37"/><rect width=".94" height="6.6" x="-.47" y="-3.3" fill="#050003" fill-opacity=".996" rx=".26" transform="rotate(-1.5 8156.52 -10951.428)"/><path fill="#050003" fill-opacity=".996" d="M248.93 214.52a.77.77 0 0 0 1.46.04q.91-2.52.03-5.15-.26-.8.38-.26c1.55 1.29 1.13 4.23.15 5.59a1.58 1.58 0 0 1-2.67-.18c-.83-1.55-1.27-5.93 1.43-5.95q.36 0 .03.14l-.48.21a.4.4 0 0 0-.19.19q-1.02 2.55-.14 5.37M195.9 209.73a.38.38 0 0 1 .64-.04q.27.4.11.9-.16.48-.54.15-.5-.45-.21-1.01M292.9 211.65l-.66-.61q-.85-.77.29-.69 1.17.09 1.08 1.17-.14 1.86-1.26 3.19-.17.19-.34.01l-.2-.22q-.14-.14.03-.25.82-.53 1.28-1.5.29-.63-.22-1.1M206.85 216.22q.03-.63.62-.78.78-.2.2.36-1.76 1.69.39 3.25.62.44-.07.78-.54.26-.83-.25-1.09-1.89-2.44-3.7-.58-.79.38-.58.66.14.86.83.09.33.42.43.45.12.47-.34M216.09 223.4l.2 4.75q.02.37-.34.48-.19.05-.38 0-.38-.11-.33-.5.36-2.7-.11-5.36-.08-.48.39-.59l.54-.13a.4.39 82.4 0 0 .31-.41l-.19-4.74a.45.45 0 0 1 .28-.43q.32-.12.58.1.22.18.18.46-.35 2.47.1 5.09.09.51-.34.79-.2.13-.45.09-.46-.07-.44.4M265.43 219.31q-.06-1.44.97-2.73a.26.26 0 0 1 .32-.08l.25.13q.05.03.03.08-1.43 2.91-.03 5.56.39.72-.35.34-.1-.05-.2-.08-.14-.05-.24-.17-.38-.45-.56-1.02-.56-1.77-.51.09.06 2.75-1.92 3.06a1.59 1.58-16.8 0 1-1.69-.9q-.93-2.01-.24-4.23a1.88 1.87-69.4 0 1 2.55-1.16q.89.38 1.32 1.19.33.63.3-.08m-1.27.061a1.01 1.01 0 0 0-1-1.02l-.1-.001a1.01 1.01 0 0 0-1.02.999l-.04 3.7a1.01 1.01 0 0 0 1 1.02l.1.001a1.01 1.01 0 0 0 1.02-.999zM268.06 222.48q1.29-3.11-.12-5.87-.11-.22.14-.23.15 0 .29.04.16.06.27.2 2.02 2.84-.05 6.12-.07.11-.19.06l-.25-.11q-.16-.06-.09-.21M226.99 219.07l-.68.24q-.82.28-.24-.36 1.11-1.21 2.48-.55a1.67 1.66 20.9 0 1 .87 1.94q-.45 1.57-1.7 2.47-.68.48-.13-.15.76-.87 1.03-2.16a1.25 1.24 86.1 0 0-1.63-1.43"/><circle cx="205.66" cy="218.5" r=".26" fill="#050003" fill-opacity=".996"/><path fill="#050003" fill-opacity=".996" d="M226.48 223.85q1.38.44 2.84.07.31-.08.33.24l.02.41q.02.24-.23.25l-3.29.07q-.32.01-.3-.32l.02-.31a.47.46-78.4 0 1 .61-.41M251.835 231.69a3.34 2.15 89.4 0 1-2.185-3.317 3.34 2.15 89.4 0 1 2.115-3.363 3.34 2.15 89.4 0 1 2.185 3.317 3.34 2.15 89.4 0 1-2.115 3.363m-.034-.34a3.04 1.2 89.6 0 0 1.179-3.048 3.04 1.2 89.6 0 0-1.221-3.032 3.04 1.2 89.6 0 0-1.179 3.048 3.04 1.2 89.6 0 0 1.221 3.032"/><rect width=".92" height="5.68" x="-.46" y="-2.84" fill="#050003" fill-opacity=".996" rx=".26" transform="rotate(-34.3 513.786 -335.888)"/><ellipse fill="#050003" fill-opacity=".996" rx=".65" ry=".37" transform="rotate(134.4 91.602 173.439)"/><ellipse fill="#050003" fill-opacity=".996" rx=".63" ry=".35" transform="rotate(122.2 74.25 192.95)"/><rect width=".96" height="6.64" x="-.48" y="-3.32" fill="#050003" fill-opacity=".996" rx=".27" transform="rotate(-2.3 6064.77 -7013.497)"/><path fill="#050003" fill-opacity=".996" d="M230.27 241.27q.08.64-.55.54l-.47-.08q-.39-.06-.28-.44.78-2.85-.07-5.78-.15-.52.37-.39l.57.14a.36.35 8.2 0 1 .27.35q-.19 3.04.16 5.66"/><rect width=".94" height="6.6" x="-.47" y="-3.3" fill="#050003" fill-opacity=".996" rx=".27" transform="rotate(-2 6959.086 -6793.815)"/><path fill="#050003" fill-opacity=".996" d="m224.6 240.73 2.2 3.23q.15.21-.07.35l-.42.26q-.08.05-.13-.02-1.45-1.95-3.09-4.31-.39-.55.28-.51 1.02.05 1.16.85a.47.42 23.3 0 0 .07.15M225.37 239.96q.36-.22.78-.2a.24.24 0 0 1 .2.37q-.31.46-.87.37a.3.29 33.7 0 1-.11-.54"/><rect width=".96" height="6.66" x="-.48" y="-3.33" fill="#050003" fill-opacity=".996" rx=".27" transform="rotate(-1.8 7876.594 -8105.929)"/><path fill="#050003" fill-opacity=".996" d="M266.86 249.06c.77-.61.62-1.52.77-2.36q.46-2.5-1.2-4.03-.05-.04 0-.08l.19-.17q.07-.06.13-.01 3.09 2.58 1.19 6.26a1.53 1.52 37.1 0 1-2.47.34c-1.3-1.38-1.66-4.66.18-6.07q.62-.47.3.24-1.14 2.53-.15 5.56a.67.67 0 0 0 1.06.32"/><ellipse fill="#050003" fill-opacity=".996" rx=".66" ry=".32" transform="rotate(123 45.465 182.567)"/><rect width=".94" height="5.6" x="-.47" y="-2.8" fill="#050003" fill-opacity=".996" rx=".27" transform="rotate(-34 529.714 -293.76)"/><path fill="#050003" fill-opacity=".996" d="M255.62 244.6a.28.28 0 0 1-.33-.27q.01-.61.78-.6a.28.27 15.3 0 1 .24.41q-.22.37-.69.46M210.3 249.77c-.01-1.66-.03-2.81-.33-4.47q-.21-1.08.44-.19 1.66 2.28.4 4.77-.5.99-.51-.11"/><ellipse fill="#050003" fill-opacity=".996" rx=".76" ry=".31" transform="rotate(115.3 48.166 204.13)"/><path fill="#050003" fill-opacity=".996" d="M223.91 250.1a.65.64 39.9 0 0-1.15.1q-1.11 2.81-.07 5.45c.09.21.34.44.56.5q.55.17-.02.23-.47.05-.78-.31-2.14-2.36-.54-5.61a1.59 1.58 37.6 0 1 2.62-.34c1.33 1.53 1.45 4.78-.49 6.08q-.54.36-.22-.2c.82-1.48 1.13-4.25.09-5.9M243.2 250.17q-.09-.09-.19-.18-.65-.58.2-.38.31.07.49.31 1.96 2.5.33 5.54a1.57 1.57 0 0 1-2.71.1q-1.83-2.9.35-5.98.03-.04.08-.02l.22.13q.24.13.12.38-1.28 2.78-.14 5.26.7 1.52 1.35-.03.92-2.2.15-4.68-.07-.25-.25-.45"/><rect width=".94" height="6.44" x="-.47" y="-3.22" fill="#050003" fill-opacity=".996" rx=".27" transform="rotate(-1.7 8662.818 -7732.261)"/><path fill="#050003" fill-opacity=".996" d="M227.88 255.66q.73 2.23 2.16 3.95.31.37-.16.5-1.97.53-3.45.04-.56-.19-.08-.54 1.67-1.2.5-3.03-.32-.5-.2-1.08.19-.94.99-1.5.53-.38.71.24.11.35-.16.54-.49.32-.31.88m-.19 3.63q-.25.28.11.38.46.12.8-.17.29-.25-.07-.39-.5-.2-.84.18"/><ellipse fill="#050003" fill-opacity=".996" rx=".47" ry=".39" transform="rotate(-33.7 537.28 -250.272)"/><rect width=".9" height="5.64" x="-.45" y="-2.82" fill="#050003" fill-opacity=".996" rx=".26" transform="rotate(-34 562.382 -325.977)"/><ellipse fill="#050003" fill-opacity=".996" rx=".62" ry=".35" transform="rotate(136.4 88.329 184.415)"/><ellipse fill="#050003" fill-opacity=".996" rx=".95" ry=".31" transform="rotate(127.2 73.933 198.934)"/><rect width=".98" height="6.54" x="-.49" y="-3.27" fill="#050003" fill-opacity=".996" rx=".27" transform="rotate(-.3 50546.1 -39944.341)"/><rect width=".92" height="6.52" x="-.46" y="-3.26" fill="#050003" fill-opacity=".996" rx=".26" transform="rotate(-1.7 9065.021 -9417.779)"/><path fill="#050003" fill-opacity=".996" d="M257.16 275.37c.7-1.24.77-4.58-.43-5.62q-.43-.38.12-.23c2.39.66 1.89 4.65.87 6.05a1.57 1.56-42.5 0 1-2.6-.11q-1.84-3.01.67-6.13.04-.04.09-.02l.28.15q.22.11.07.31-1.72 2.39-.44 5.51.6 1.46 1.37.09M202.52 273.16q.17.35.06.74a.11.11 0 0 1-.21-.02q-.14-1.34.15-.72"/><rect width=".92" height="5.66" x="-.46" y="-2.83" fill="#050003" fill-opacity=".996" rx=".26" transform="rotate(-33.2 594.36 -300.238)"/><path fill="#050003" fill-opacity=".996" d="M262.61 274.22q.47-.18.32.3-.16.55-.77.62-.52.06-.23-.38.25-.37.68-.54M230.58 276.21l-.01 4.29q0 .68.66.81 1.3.28 2.6-.58.6-.4.33.27-.3.71-1.06.72-1.6.01-3.26 0-.64 0-.47-.62.7-2.59-.04-5.34-.14-.53.41-.51l.97.05q.74.03.22.55-.11.1-.24.17-.11.06-.11.19"/><rect width=".9" height="6.3" x="-.45" y="-3.15" fill="#050003" fill-opacity=".996" rx=".26" transform="rotate(-1.2 13493.494 -9695.663)"/><ellipse fill="#050003" fill-opacity=".996" rx=".77" ry=".32" transform="rotate(-42.7 485.736 -193.433)"/><path fill="#050003" fill-opacity=".996" d="M222.48 288.22c.26-1.48.42-3.67.03-5.11q-.19-.69.52-.69.19-.01.35.09a.43.43 0 0 1 .19.42q-.37 2.6.22 5.31.15.67-.54.57-.05-.01-.1 0-.82.23-.67-.59M263.2 285.95q.12-.08.24-.01.2.1-.02.12-.05 0-.1-.01-.25-.02-.12-.1"/><rect width=".9" height="6.62" x="-.45" y="-3.31" fill="#050003" fill-opacity=".996" rx=".26" transform="rotate(-1.3 12931.965 -9564.43)"/><path fill="#050003" fill-opacity=".996" d="M201.9 294.98a.83.83 0 0 0 1.04-.56q.63-2.14.13-4.51-.09-.44-.41-.74-.16-.15-.33-.29-.58-.45.12-.22c2.3.74 2 4.27 1.1 5.89a1.62 1.61 42.9 0 1-2.75.1c-1.02-1.52-1.3-4.96.8-5.98q.42-.21.18.19-1.44 2.4-.49 5.52.15.46.61.6"/><ellipse fill="#050003" fill-opacity=".996" rx="1.01" ry=".43" transform="rotate(12.6 -1178.967 1317.36)"/><path fill="#050003" fill-opacity=".996" d="M210.83 289.66q.38-.55 1.02-.48.88.09.16.6l-.78.55q-.57.4-.23 1l.9 1.57a.85.85 0 0 0 1.58-.3q.22-1.54-.35-2.91-.28-.68.35-.3 1.11.66.94 2.11-.29 2.54-2.94 2.28-.53-.05-.79-.51l-2.07-3.61q-.36-.63.35-.46.62.16 1.1.56.43.37.76-.1M224.51 293.58c-.29-.77-.49-1.17-1.17-1.67q-.73-.54.18-.53.54.01 1.04.27.52.28.62.85.32 1.7 1.82 2.73.2.14.05.34l-.2.26q-.07.08-.17.04-1.61-.78-2.17-2.29"/><ellipse fill="#050003" fill-opacity=".996" rx=".77" ry=".3" transform="rotate(-33.5 597.842 -229.428)"/><ellipse fill="#050003" fill-opacity=".996" rx=".67" ry=".31" transform="rotate(-29.1 669.133 -255.517)"/><path fill="#050003" fill-opacity=".996" d="M223.58 294.86q.07-.02.12-.08.23-.27.17.08-.08.41.04.82.13.45.56.65.84.38.75 1.4-.22 2.3.15 4.5.12.71-.6.6-.05-.01-.1 0-.78.18-.58-.59 1.01-3.92-.74-6.64-.35-.55.23-.74"/><rect width=".98" height="6.68" x="-.49" y="-3.34" fill="#050003" fill-opacity=".996" rx=".26" transform="rotate(-1.1 15654.886 -12175.32)"/><rect width=".98" height="6.4" x="-.49" y="-3.2" fill="#050003" fill-opacity=".996" rx=".29" transform="rotate(-1.6 11004.358 -7052.58)"/><path fill="#050003" fill-opacity=".996" d="M219.43 304.71q-.68-2.21-1.57-.08-.99 2.4.07 5.12.04.12-.08.13l-.34.04q-.13.02-.2-.1-1.66-2.91-.08-5.5a1.61 1.61 0 0 1 2.83.14q1.73 3.57-1.19 6.54-.82.83-.26-.19 1.73-3.16.82-6.1M208.85 313.93q-.25-.86-.25-1.67-.01-.36.35-.38l.28-.01q.34-.01.39.32.17 1.24-.01 1.76-.41 1.15-.76-.02"/></svg>