<svg xmlns="http://www.w3.org/2000/svg" viewBox="0 0 382 382"><rect width=".92" height="6.54" x="-.46" y="-3.27" fill="#310446" fill-opacity=".996" rx=".26" transform="rotate(-1.2 5123.068 -13493.972)"/><path fill="#310446" fill-opacity=".996" d="M298.55 116.87q-.05-.03-.1-.05-.3-.09-.1-.33 1.4-1.64.18-4.01-.1-.2.07-.37.04-.04.09-.04.18-.01.23.16 1.2 4.03-.03 8.14-.05.18-.22.12l-.3-.1q-.04-.02-.02-.06.62-1.14.57-2.7-.02-.47-.37-.76M286.65 131.88q.11-.39.19.14a.04.04 0 0 1-.05.05q-.18-.04-.14-.19M290.37 138.24a.66.66 0 0 0-1.2.11q-.82 2.36-.27 4.86.11.5.57.7.55.25-.01.45-.15.05-.3.02-.25-.05-.39-.26-2.03-2.86-.17-5.77a1.45 1.45 0 0 1 2.21-.27q1.27 1.19 1.13 2.74-.39 4.28-.22 8.24.01.15-.14.18l-.68.15q-.32.07-.24-.25.62-2.67-.18-5.05-.15-.44.03-.87 1.13-2.7-.14-4.98M296.92 143.27q1.15-2.99-.37-5.42-.4-.64.26-.26c1.89 1.09 1.77 4.09.83 5.68a1.68 1.67 43.9 0 1-2.85.05q-1.78-2.77.59-5.99.03-.05.09-.02l.33.17q.18.09.07.26-1.64 2.63-.37 5.56a.77.77 0 0 0 1.42-.03M287.4 151.17q-1.9 3.02-.14 6.06.12.22-.09.36l-.22.14q-.05.04-.09-.01-2.73-3.43.05-6.81.1-.12.24-.03l.22.14q.09.06.03.15M288.03 151.27q-.11-.2.1-.3l.23-.12q.05-.02.09.02 2.76 3.69-.08 6.88-.04.04-.09.01l-.21-.14q-.14-.09-.06-.23 1.7-3.15.02-6.12"/><path fill="#f00004" fill-opacity=".996" d="M279.93 164.93q.3-.56.91-.77.44-.16.27.28-.22.59-.83.73-.78.19-.34.86l1.48 2.2q.14.21-.06.36l-.28.19q-.21.15-.35-.06l-3.26-4.74q-.57-.82.33-.38.93.45 1.46 1.34.35.59.67-.01M277.07 168.11q.66-.08 1.26-.44.29-.17.43.14l.12.25q.03.08-.05.1l-3.27.59a.34.34 0 0 1-.36-.48q.67-1.36.41-3.03a.33.33 0 0 1 .27-.37l.28-.05q.27-.05.26.22l-.05 2.44a.63.63 0 0 0 .7.63"/><ellipse fill="#f00004" fill-opacity=".996" rx="1.27" ry=".23" transform="rotate(97.6 60.06 206.492)"/><path fill="#310446" fill-opacity=".996" d="M287.3 177.34c-.2-.54-.51-1-.98-1.36q-.7-.54.19-.55 1.35-.02 1.62 1.11c.28 1.23.93 2.01 1.82 2.84q.18.17.01.36l-.33.34q-.04.04-.09.01-1.61-1.09-2.24-2.75"/><path fill="#310446" fill-opacity=".996" d="M289.2 175.45q.47-.1.25.33-.27.52-.89.56-.49.04-.19-.35.33-.43.83-.54M286.8 178.67a.24.24 0 0 1 .3.28q-.13.59-.73.78-.43.14-.31-.3.16-.6.74-.76"/><path fill="#f00004" fill-opacity=".996" d="m278.44 183.57-3.17-4.39a.2.2 0 0 1 .2-.32l1.12.21a.2.2 0 0 1 .14.1l2.42 4.08a.2.2 0 0 1-.13.3l-.37.1a.2.2 0 0 1-.21-.08M278.14 179.29q.09-.28.4-.32a.33.33 0 0 1 .31.51q-.14.2-.4.21a.31.31 0 0 1-.31-.4M296.86 182.3q-.99 2.57.34 5.02.12.22-.09.36l-.21.14q-.05.03-.09-.02-2.25-2.64-.66-5.7.29-.56.88-.7.94-.23.21.42-.11.1-.21.21-.11.12-.17.27"/><ellipse fill="#f00004" fill-opacity=".996" rx=".67" ry=".37" transform="rotate(-47 348.337 -225.525)"/><path fill="#f00004" fill-opacity=".996" d="M272.17 196.19a.22.22 0 0 1-.23-.21v-.09a12.15.48 87.5 0 1-.05-12.16l.28-.01a12.15.48 87.5 0 1 1.01 12.12v.09a.22.22 0 0 1-.21.23zM293.54 197.34q.08.39-.32.41l-.69.03q-.37.01-.31-.35.45-2.89-.04-5.64-.08-.41.34-.41h.48a.32.32 0 0 1 .32.36q-.34 2.83.22 5.6"/><path fill="#310446" fill-opacity=".996" d="M278.16 196.2c-1.53 1.1-3.21 4.91-.74 6.05a.06.05-62.9 0 1 .02.08l-.13.22q-.07.12-.2.06c-3.18-1.41-1.88-5.73.9-6.7q1.07-.38.15.29"/><path fill="#310446" fill-opacity=".996" d="M278.14 201.85c.75-1.09.42-2.65-.69-3.33q-.12-.07-.09-.11l.17-.2q.12-.14.28-.06 2.5 1.25 1.14 3.54-.2.35-.6.46-.51.13-.21-.3M289.55 199.45q1.46 1.85 2.74 3.87.49.77-.41.55-.13-.03-.26.01-.12.04-.19-.06l-2.7-4.21a.11.1 61.1 0 1 .04-.15l.22-.13a.44.44 0 0 1 .56.12M292 199.66q-.11.54-.6.9-.44.33-.37-.22.1-.66.73-.89.31-.12.24.21"/><ellipse fill="#310446" fill-opacity=".996" rx=".77" ry=".37" transform="rotate(-45.2 388.732 -245.841)"/><path fill="#f00004" fill-opacity=".996" d="M234.32 212.49q-.09-.02-.19.01-.64.21-.41-.42.16-.46.27-.95.2-.95.66-.1.21.4.3.85.15.77-.63.61M222.17 220.29a.19.19 0 0 1-.19-.19l-.15-5.99a.38.36 88.6 0 1 .35-.39h.28a.38.36 88.6 0 1 .37.37l.15 5.99a.19.19 0 0 1-.19.19zM269.92 226.68a.19.19 0 0 1-.2-.19l-.14-5.94a.51.27-1.4 0 1 .5-.28.51.27-1.4 0 1 .52.26l.14 5.94a.19.19 0 0 1-.18.19z"/><path fill="#310446" fill-opacity=".996" d="M248.96 227.74q1.44-2.82-.18-5.77-.12-.22.11-.33l.25-.13q.06-.02.1.03 2.46 3.54.34 6.23a1.58 1.57-39.6 0 1-2.63-.24q-1.51-2.91.46-5.92.03-.05.09-.03l.31.12q.23.09.13.32-1.35 2.86-.21 5.67a.68.68 0 0 0 1.23.05"/><path fill="#f00004" fill-opacity=".996" d="M287.85 230.2q.49-.18.87.11a.37.37 0 0 1-.18.67q-.43.05-.77-.2a.33.33 0 0 1 .08-.58M287.13 232.32q.14.03.27-.04a.03.03 0 0 1 .03.05q-1.41 1.4-.46 3.62.16.39-.14.7-.3.3-.76.25-.63-.06-.43-.66.58-1.82-.1-3.41a.64.64 0 0 1 .07-.64q.46-.64.69-1.39a.48.47 16.6 0 1 .58-.31q.13.03.21.15.06.11-.02.19-.42.44-.35 1.03.04.38.41.46"/><rect width=".94" height="6.62" x="-.47" y="-3.31" fill="#310446" fill-opacity=".996" rx=".27" transform="rotate(-2.5 5511.68 -5963.727)"/><path fill="#f00004" fill-opacity=".996" d="M215.95 246.3c1-1.29.28-4.34-.26-5.65q-.08-.17.11-.16l2.5.18q.43.03.65.4 1.8 3.05-.02 5.59-.31.43-.82.52-2.01.37-3.47-.89-.55-.47-.53-1.19.03-2.29-1.25-3.99-2.21-2.97.67-.65 1.37 1.1 2.15 2.88a.81.8-37.7 0 1-.11.82q-.66.87-.34 2 .23.77.72.14m1.5-4.86q1.17 2.53-.09 4.92-.12.23.12.33l.46.2q.17.07.25-.09 1.17-2.43.48-4.95a.84.83 11.8 0 0-.31-.47q-.47-.37-.83-.16-.14.07-.08.22"/><path fill="#f00004" fill-opacity=".996" d="M215.54 240.31q-.6.2-1.17 0-.54-.19-.02-.42.62-.28 1.22.01a.22.22 0 0 1-.03.41M275.654 247.63a3.36 2.14 90.1 0 1-2.134-3.364 3.36 2.14 90.1 0 1 2.146-3.356 3.36 2.14 90.1 0 1 2.134 3.364 3.36 2.14 90.1 0 1-2.146 3.356m-.046-.25a3.12 1.18 90.4 0 0 1.202-3.112 3.12 1.18 90.4 0 0-1.158-3.128 3.12 1.18 90.4 0 0-1.202 3.112 3.12 1.18 90.4 0 0 1.158 3.128"/><path fill="#310446" fill-opacity=".996" d="M260.37 242.57a.01.01 0 0 1 0-.01l.21-.15a.94.69 56.1 0 1 1.1.4l2.08 3.09a.94.69 56.1 0 1-.05 1.16l-.22.15a.01.01 0 0 1-.01-.01z"/><ellipse fill="#310446" fill-opacity=".996" rx=".77" ry=".29" transform="rotate(-39.3 471.69 -247.17)"/><ellipse fill="#f00004" fill-opacity=".996" rx=".64" ry=".34" transform="rotate(119.6 35.243 183.61)"/><path fill="#f00004" fill-opacity=".996" d="M286.32 249.15a.18.18 0 0 1-.25-.06l-1.28-2a2.84.23 57.4 0 1-1.34-2.52l.49-.31a2.84.23 57.4 0 1 1.72 2.27l1.29 2a.18.18 0 0 1-.06.25z"/><ellipse fill="#f00004" fill-opacity=".996" rx=".55" ry=".29" transform="rotate(-32.1 568.789 -374.831)"/><path fill="#310446" fill-opacity=".996" d="M261.25 245.63a.19.19 0 0 1 .21.27q-.31.63-1.05.81-.49.12-.23-.31.37-.59 1.07-.77"/><path fill="#f00004" fill-opacity=".996" d="M211.01 247.94q-.19.15-.43.22-.3.11-.28-.21.01-.15.09-.26.12-.19.33-.22 2.02-.23 2.48 1.81.59 2.66-1.07 4.61-.06.07-.14.02l-.24-.13q-.21-.12-.09-.34 1.26-2.11.45-5.12a.7.7 0 0 0-1.1-.38M283.89 247.84q.54-.15.33.38-.19.45-.75.56-.48.09-.28-.36.2-.44.7-.58M258.872 258.15a3.34 2.13 89.8 0 1-2.142-3.333 3.34 2.13 89.8 0 1 2.118-3.347 3.34 2.13 89.8 0 1 2.142 3.333 3.34 2.13 89.8 0 1-2.118 3.347m-.044-.2a3.13 1.19 90.4 0 0 1.212-3.122 3.13 1.19 90.4 0 0-1.168-3.138 3.13 1.19 90.4 0 0-1.212 3.122 3.13 1.19 90.4 0 0 1.168 3.138"/><path fill="#310446" fill-opacity=".996" d="M249.128 257.643a1.88 1.88 0 0 1-1.928 1.83l-.34-.009a1.88 1.88 0 0 1-1.83-1.928l.062-2.38a1.88 1.88 0 0 1 1.928-1.83l.34.01a1.88 1.88 0 0 1 1.83 1.928zm-2.058 1.617a2.89 1.22 91 0 0 1.27-2.869 2.89 1.22 91 0 0-1.17-2.91 2.89 1.22 91 0 0-1.27 2.868 2.89 1.22 91 0 0 1.17 2.91M210.53 254.4q-.34 1.63.2 3.32.26.8-.57.65-.07-.01-.13.01-.61.22-.55-.41.18-1.99.64-4.01.09-.4.48-.51.17-.05.32.03.4.24.01.51l-.24.17q-.13.09-.16.24"/><ellipse fill="#f00004" fill-opacity=".996" rx="2.93" ry=".53" transform="rotate(54.2 -115.457 396.072)"/><path fill="#f00004" fill-opacity=".996" d="M274.11 256.08q.11-.33.47-.27a.31.31 0 0 1 .24.38q-.07.26-.36.3a.32.32 0 0 1-.35-.41M286.46 258.23l.52 3.8q.13 1-.43.15-1.24-1.89-.46-3.99.27-.74.37.04"/><ellipse fill="#310446" fill-opacity=".996" rx=".47" ry=".28" transform="rotate(132.4 78.597 189.822)"/><path fill="#f00004" fill-opacity=".996" d="M233.91 265.46q-1.21 2.59.35 5.28.13.22-.1.32l-.29.13q-.07.03-.1-.03-2.11-2.93-.7-5.75a1.72 1.72 0 0 1 2.98-.17c.91 1.4 1.15 4.61-.72 5.71q-.66.39-.26-.28 1.38-2.29.35-5.14-.67-1.87-1.51-.07"/><path fill="#310446" fill-opacity=".996" d="M250.5 275.04a.64.64 0 0 0 1-.28c.56-1.48.99-4.53-.42-5.72q-.87-.74.19-.3c2.29.94 2 4.47.84 6.06a1.6 1.59-43.3 0 1-2.64-.08c-1.06-1.69-1.22-4.52.57-5.85q.75-.55.29.26c-.74 1.34-1.14 4.85.17 5.91"/><path fill="#310446" fill-opacity=".996" d="M255.14 269.4q-1.77 3.09.09 6.05.1.15-.05.26l-.2.15q-.05.04-.09-.01-2.91-3.18-.19-6.83.04-.06.11-.02l.23.1q.21.1.1.3M256 269.52q-.13-.12-.26-.22-.5-.33.09-.22c2.35.43 1.89 4.5 1.16 5.93q-.11.2-.31.11l-.26-.1q-.17-.07-.13-.25.71-2.59.04-4.72-.1-.3-.33-.53"/><path fill="#f00004" fill-opacity=".996" d="M212.96 274.29a.19.19 0 0 1-.26-.04l-.06-.09a5.38.44 55 0 1-2.73-4.66l.18-.13a5.38.44 55 0 1 3.45 4.16l.06.09a.19.19 0 0 1-.05.26z"/><path fill="#f00004" fill-opacity=".996" d="M213.04 269.58a.15.14-79.8 0 1 .15.22q-.26.42-.69.76a.28.27 45.8 0 1-.34-.01q-.14-.11-.2-.27-.19-.46.3-.55zM210.26 272.83q.45-.38.4.21t-.53.96q-.4.31-.37-.2.04-.59.5-.97"/><rect width=".9" height="6.4" x="-.45" y="-3.2" fill="#f00004" fill-opacity=".996" rx=".26" transform="rotate(-1.5 10732.462 -7975.806)"/><path fill="#310446" fill-opacity=".996" d="M258.34 282.18a.04.04 0 0 1-.04.04l-.8.03a.22.2 88.2 0 1-.21-.22l-.18-5.93a.22.2 88.2 0 1 .19-.23l.8-.02a.04.04 0 0 1 .04.04zM270.13 278.13q-.29-.07-.39-.35-.11-.31.2-.19 1.68.65 1.69 2.57 0 .21-.2.22l-.26.02q-.26.01-.32-.24l-.35-1.65a.49.48 1 0 0-.37-.38M269.11 278.06q-.76 1.96-.57 4.34.01.13-.11.16l-.29.07q-.29.07-.37-.22-.75-2.76 1.08-4.53.54-.52.26.18"/><path fill="#f00004" fill-opacity=".996" d="M232.07 281.65q-.07-.13.06-.19l.37-.17q.13-.06.2.05 2.11 3.13.26 5.92-.21.32-.6.41-.51.11-.25-.34 1.64-2.83-.04-5.68M231.04 287.1q.09.1.2.19.48.41-.14.32-.83-.11-1.13-.98-1.08-3.12.79-5.27.04-.05.1-.02l.3.14q.22.12.1.33-1.3 2.32-.49 4.8.09.27.27.49"/><path fill="#310446" fill-opacity=".996" d="m254.28 289.59-.18 3.57q-.01.22-.22.31-.14.05-.28-.02-.08-.04-.11-.12-.97-2.86.84-4.66.77-.77.49.28-.05.16-.25.23a.46.46 0 0 0-.29.41M255.86 289.04q-.08-.13-.18-.25-.48-.67.26-.3 1.43.71 1.34 2.59-.01.17-.17.23l-.29.1q-.37.12-.38-.27 0-1.22-.58-2.1"/><rect width=".94" height="6.58" x="-.47" y="-3.29" fill="#f00004" fill-opacity=".996" rx=".26" transform="rotate(-1.4 12177.134 -8455.038)"/><path fill="#310446" fill-opacity=".996" d="M198.35 295.3q.03-.14.1-.27.11-.19.17.02l.4 1.28q.09.27-.15.41-.13.09-.29.1-.82.04-.52-.72c.11-.3.22-.5.29-.82M221.5 297.2a.16.16 0 0 1 .22.04l2.82 4.08a.38.35 55.4 0 1-.07.51l-.23.16a.38.35 55.4 0 1-.51-.11l-2.81-4.08a.16.16 0 0 1 .04-.23zM224.09 297.55q.42.01.21.38-.29.49-.92.46-.53-.03-.2-.44.35-.43.91-.4"/><ellipse fill="#310446" fill-opacity=".996" rx=".74" ry=".36" transform="rotate(-46 465.533 -110.259)"/><path fill="#f00004" fill-opacity=".996" d="M219.96 308.1q.72-1.17 1.57-2.37.57-.8.71.17.05.37-.07.73-.2.58-.8.72-.79.19-1.29.83-.8 1.03-.12-.08"/><path fill="#310446" fill-opacity=".996" d="M210.73 311.81q-.48.97-.42 2.05.02.48-.46.53-.15.02-.28-.09-.11-.09-.14-.23-.36-1.78.94-2.82.57-.45.5-1.18c-.14-1.45-.05-3.16 1.21-4.12q.58-.43.28.23-1.62 3.66.93 5.79a.95.93 28.6 0 1 .3.98q-.16.56-.54.55-.49-.03-.59-.5-.2-.97-.99-1.42-.49-.28-.74.23M215.27 309.57q-.22.76-.38 1.47-.08.32-.4.24l-.26-.07q-.28-.08-.23-.36.52-2.59-.49-4.48-.62-1.16.32-.24.89.87 1.38 2.1.25.64.06 1.34M221.77 308.51q-.05-.41.13-.76.29-.54.36.06l.16 1.41q.08.65-.56.83-1.42.41-2.85 0-.14-.04-.08-.18l.1-.23q.11-.27.39-.16 1.14.46 2.02-.2.39-.29.33-.77"/><circle cx="216.24" cy="308.78" r=".32" fill="#310446" fill-opacity=".996"/><path fill="#310446" fill-opacity=".996" d="M216.04 310.83q.24-.34.37.05.18.52-.03.93-.4.79-.53-.09-.08-.5.19-.89"/></svg>