<svg xmlns="http://www.w3.org/2000/svg" viewBox="0 0 382 382"><path fill="#070105" fill-opacity=".996" d="m292.65 109.91.22.24q.47.49-.2.5l-1.19.02q-.59 0-.26-.49.71-1.06.35-2.39-.05-.2.13-.3l.3-.18q.34-.2.35.19l.06 1.83q.01.34.24.58"/><ellipse fill="#070105" fill-opacity=".996" rx="1.01" ry=".31" transform="rotate(102.3 99.853 174.275)"/><path fill="#070105" fill-opacity=".996" d="M291.24 117.89q-.01-.78-.6-1.33-.31-.29-.06-.64.29-.42 1.13.81a1.24 1.23 31.3 0 1 .21.86q-.08.8-.69 1.04-.58.23-.19-.25c.11-.13.2-.32.2-.49"/><path fill="#070105" fill-opacity=".996" d="M294.99 125.11a.19.19 0 0 1-.27-.05l-.08-.12a5.42.44 54.7 0 1-2.78-4.68l.15-.1a5.42.44 54.7 0 1 3.49 4.17l.09.12a.19.19 0 0 1-.05.26z"/><ellipse fill="#070105" fill-opacity=".996" rx=".79" ry=".36" transform="rotate(136.1 122.922 119.854)"/><ellipse fill="#070105" fill-opacity=".996" rx=".75" ry=".35" transform="rotate(135.2 120.572 122.352)"/><path fill="#070105" fill-opacity=".996" d="M284.81 135.53a.11.11 0 0 1 .11-.11 2.6 1.03-88.7 0 1 .97 2.62v.38a2.6 1.03-88.7 0 1-1.09 2.58.11.11 0 0 1-.11-.11z"/><path fill="#070105" fill-opacity=".996" d="M282.75 140.7c2.44.39 2.53 3.77 1.81 5.74q-.48 1.32-1.88 1.12-1.96-.28-1.4-2.56.04-.17.09-.16l.28.04q.06.01.06.08-.08 1.02.42 1.92a.79.79 0 0 0 1.42-.08q1.49-3.62-.96-5.75-.53-.45.16-.35"/><rect width=".9" height="6.8" x="-.45" y="-3.4" fill="#070105" fill-opacity=".996" rx=".26" transform="rotate(-.9 10113.671 -18794.572)"/><path fill="#070105" fill-opacity=".996" d="M295.08 162.33q-.01-1.14 1.15-1.27a.45.44 8.4 0 1 .46.62q-1.13 2.55.28 5.07a.57.57 0 0 0 1.03-.06q1.53-3.69-.77-6.65a.06.06 0 0 1 .09-.09q3.44 2.42 1.57 6.45a1.64 1.64 0 0 1-2.83.24l-3.36-4.84q-.56-.8.4-.62.66.12.97.78.12.24.29.43.12.14.29.22.44.21.43-.28"/><ellipse fill="#070105" fill-opacity=".996" rx=".72" ry=".32" transform="rotate(-39.8 374.522 -321.925)"/><path fill="#070105" fill-opacity=".996" d="M284.21 181.02q.31 2-.66 3.61a1.57 1.56 46.2 0 1-2.71-.06q-1.26-2.3-.61-3.83 1.68-3.94.84.26-.39 2 .51 3.4.88 1.37 1.39-.18.67-2.04.15-4.37-.13-.56-.66-.81c-3.15-1.46-3.27-6.32.68-6.75 3.29-.36 4.42 3.53 2.44 5.69q-.87.95-1.3 2.19-.14.41-.07.85m-.706-2.352a3.1 2.14 87.9 0 0 2.025-3.176 3.1 2.14 87.9 0 0-2.253-3.02 3.1 2.14 87.9 0 0-2.025 3.176 3.1 2.14 87.9 0 0 2.253 3.02M273.93 179.09q.12-.59.76-.67.53-.06.22.38-.3.42-.75.64-.5.25-.32.77.4 1.23 1.43 2.03.41.32-.05.56-.37.2-.75-.01-.32-.17-.48-.48-.91-1.81-2.23-3.47-.14-.18.04-.33l.24-.2q.25-.2.43.06l.68.99q.57.83.78-.27"/><path fill="#070105" fill-opacity=".996" d="M285.54 180.37h.29q.01 0 .01.01h-.29q-.36 0-.01-.01"/><rect width=".96" height="6.66" x="-.48" y="-3.33" fill="#070105" fill-opacity=".996" rx=".27" transform="rotate(-1.8 6013.24 -9120.532)"/><rect width=".94" height="6.66" x="-.47" y="-3.33" fill="#070105" fill-opacity=".996" rx=".27" transform="rotate(-1.3 8278.484 -12886.01)"/><ellipse fill="#070105" fill-opacity=".996" rx=".89" ry=".32" transform="rotate(-38.7 395.431 -296.31)"/><path fill="#070105" fill-opacity=".996" d="m269.99 186.99.77-2.54q.03-.11.14-.09l.25.06a.16.15-74.3 0 1 .11.21q-1.05 2.99-2.29 5.47-.41.83-1.38 1.17-.2.06-.32-.11l-.16-.23q-.16-.23.06-.39.37-.27.86-.31.53-.04.8-.5.48-.82-.2-1.7a.33.33 0 0 1 .05-.47q.23-.2.5-.12.62.18.81-.45"/><rect width=".88" height="6.56" x="-.44" y="-3.28" fill="#070105" fill-opacity=".996" rx=".26" transform="rotate(.1 -111097.432 169721.192)"/><path fill="#070105" fill-opacity=".996" d="M282.56 199.81a.76.76 0 0 0 1.39.05q1.22-2.59-.26-5.37-.11-.22.11-.33l.31-.14q.06-.02.09.03 2.05 2.95.64 5.67a1.75 1.75 0 0 1-3.1.02q-1.54-2.87.77-5.72.04-.05.09-.02l.22.15q.21.14.08.36-1.46 2.47-.34 5.3"/><ellipse fill="#070105" fill-opacity=".996" rx=".63" ry=".42" transform="rotate(-5.7 2103.617 -2540.369)"/><ellipse fill="#070105" fill-opacity=".996" rx=".73" ry=".37" transform="rotate(2 -5731.096 7333.952)"/><path fill="#070105" fill-opacity=".996" d="M278.14 205.33a.02.02 0 0 1 0-.03h.01a1.24 1.07 55.3 0 1 1.58.41l1.94 2.79a1.24 1.07 55.3 0 1-.17 1.63l-.01.01a.02.02 0 0 1-.03-.01zM280.71 205.72q.22-.35.64-.46.41-.1.23.29-.22.43-.66.49t-.21-.32"/><rect width=".92" height="6.56" x="-.46" y="-3.28" fill="#070105" fill-opacity=".996" rx=".26" transform="rotate(-1.7 7210.45 -8808.543)"/><path fill="#070105" fill-opacity=".996" d="M244.16 211.76q.68-.43.76-1.27.15-1.49.07-2.88-.03-.45.41-.48.14-.01.28.06.12.07.16.21.6 2.53-.69 4.19a1.63 1.62 46.9 0 1-2.64-.09q-.8-1.21-.66-2.82.02-.22.24-.21h.27q.27 0 .31.28l.31 2.46a.78.77-19.9 0 0 1.18.55"/><ellipse fill="#070105" fill-opacity=".996" rx=".74" ry=".34" transform="rotate(131.7 92.437 167.002)"/><path fill="#070105" fill-opacity=".996" d="M203.17 212.36a.26.26 0 0 1-.16-.31l.14-.48q.26-.94.83-.15l.27.38q.44.62-.32.67-.39.03-.76-.11"/><ellipse fill="#070105" fill-opacity=".996" rx=".97" ry=".54" transform="rotate(44.9 -140.725 386.464)"/><ellipse fill="#070105" fill-opacity=".996" rx=".73" ry=".32" transform="rotate(-42.2 389.526 -190.908)"/><rect width=".9" height="6.58" x="-.45" y="-3.29" fill="#070105" fill-opacity=".996" rx=".26" transform="rotate(-1.5 8506.629 -10615.255)"/><path fill="#070105" fill-opacity=".996" d="M288.92 222.92q1.51-3.19-.23-6.26-.05-.09.04-.15l.22-.13q.05-.03.09.02 2.9 3.38.39 6.65-.11.14-.28.18-.41.07-.23-.31"/><path fill="#070105" fill-opacity=".996" d="m288.15 222.93.33.17q.31.17-.03.26-.55.14-.91-.28-2.53-2.98-.05-6.36.06-.09.17-.04l.22.12q.14.07.07.22-1.27 2.61-.31 5.32.14.39.51.59M219.28 218.37a.11.11 0 0 1 .02-.16h.01a1.96 1 55.1 0 1 1.94 1.03l1.11 1.6a1.96 1 55.1 0 1 .31 2.17l-.01.01a.11.11 0 0 1-.16-.03zM222.52 218.76q-.2.14-.45.19-.39.07-.21-.29.15-.32.48-.36.96-.11.18.46M246.884 225.25a3.39 2.14 90.1 0 1-2.134-3.394 3.39 2.14 90.1 0 1 2.146-3.386 3.39 2.14 90.1 0 1 2.134 3.394 3.39 2.14 90.1 0 1-2.146 3.386m-.026-.35a3.06 1.2 90.6 0 0 1.232-3.047 3.06 1.2 90.6 0 0-1.168-3.073 3.06 1.2 90.6 0 0-1.232 3.047 3.06 1.2 90.6 0 0 1.168 3.073M234.25 226.2q1.05-2.77-.26-5.47-.07-.14.06-.21l.24-.13q.1-.06.17.03 2.05 2.68.61 5.64a1.68 1.68 0 0 1-2.94.14q-1.67-2.73.34-5.71.1-.14.25-.06l.24.12q.16.09.08.25-1.28 2.67-.22 5.41a.77.76-45.3 0 0 1.43-.01M219.76 221.49a.23.23 0 0 1 .36.17q.02.67-.65.91a.26.26 0 0 1-.32-.36q.18-.42.61-.72M277.93 224.11q.29-.59.86-.91.57-.31.23.25-.34.55-.85.97-.45.36-.26.91.39 1.09 1.32 1.86.57.46-.14.67-.25.07-.5-.01-.34-.11-.51-.43-1-1.94-2.42-3.67-.21-.26.07-.44l.24-.14q.18-.11.32.05l.83.98q.47.57.81-.09"/><ellipse fill="#070105" fill-opacity=".996" rx=".89" ry=".33" transform="rotate(-39.9 450.994 -266.713)"/><path fill="#070105" fill-opacity=".996" d="M286.278 234.52a3.39 2.14 90.2 0 1-2.128-3.398 3.39 2.14 90.2 0 1 2.152-3.382 3.39 2.14 90.2 0 1 2.128 3.397 3.39 2.14 90.2 0 1-2.152 3.383m-.014-.29a3.11 1.18 90.3 0 0 1.196-3.104 3.11 1.18 90.3 0 0-1.164-3.116 3.11 1.18 90.3 0 0-1.196 3.104 3.11 1.18 90.3 0 0 1.164 3.116M218.11 240.26q.14.08.29.14.36.13-.01.24-.82.24-1.61.04-.38-.09-.3-.48.56-2.74-.01-5.48-.08-.39.3-.51.21-.06.43-.05.53.01.52.54l-.08 4.77q0 .54.47.79"/><path fill="#070105" fill-opacity=".996" d="m221.13 237.82.28.38a1.17 1.14 29.9 0 1 .21.75q-.11 1.6-1.87 1.73-.84.06-.08-.31.57-.28.8-.92a1.22 1.22 0 0 0-1.01-1.62l-.54-.06q-1.04-.12-.05-.45l.71-.24q.6-.2.68-.83.16-1.31-1.1-1.67-.63-.19.02-.29c1.37-.21 2.91 1.06 1.95 2.43q-.39.55 0 1.1"/><rect width=".94" height="5.64" x="-.47" y="-2.82" fill="#070105" fill-opacity=".996" rx=".27" transform="rotate(-33.8 520.488 -310.122)"/><path fill="#070105" fill-opacity=".996" d="M261.61 234.85a.28.28 0 0 1 .36.25q.03.52-.5.6-.39.06-.33-.33.05-.4.47-.52M258.92 238.43q.32-.25.39.15.08.47-.25.79a.29.29 0 0 1-.48-.16q-.07-.45.34-.78M209.79 241.46q.06-.07-.07.09-.06.08-.16.04-.05-.02-.1-.06-.05-.05.02-.06.16-.04.31-.01M237.89 249.83a.63.63 0 0 0 1.15.02q1.49-3.17-.28-5.98-.36-.57.22-.23c2.07 1.22 1.94 4.1.93 6a1.54 1.54 0 0 1-2.62.16q-2.04-2.87.29-5.96.1-.13.23-.05l.23.12q.06.03.03.09-1.45 2.93-.18 5.83M210.39 245.15a.11.11 0 0 1-.02.2q-.14.05-.28.01-.15-.05-.21-.19-.2-.45.51-.02M251.58 257.89q-.59 1.88-2.39 1.65a1.12 1.09-12.8 0 1-.8-.49q-1.82-2.81.11-5.84.05-.07.12-.03l.23.12q.23.12.13.36-1.02 2.6-.08 5.22a.65.64-7.6 0 0 .56.42q.47.03.69-.22.69-.78.44-1.74c-.47-1.73-1.44-5.18.37-6.43a1.74 1.74 0 0 1 2.62.82q1.53 4.13-1.51 5.6-.36.17-.49.56m1.1-6.88-1.67.17a.14.14 0 0 0-.13.15l.01.11a5.63.79 84.4 0 0 1.34 5.52l.38-.03a5.63.79 84.4 0 0 .23-5.68l-.01-.11a.14.14 0 0 0-.15-.13M234.35 259.09q.37-2.29-.15-5.1-.08-.46.35-.63.2-.09.43-.02.49.13.41.63-.42 2.7.21 5.33.16.68-.51.49-.35-.1-.75-.01-.24.05-.26-.2-.02-.18.1-.24.14-.08.17-.25"/><path fill="#070105" fill-opacity=".996" d="M259.99 264.11a.18.18 0 0 1-.25-.04l-1.05-1.48a3.79.44 54.7 0 1-1.83-3.34l.1-.07a3.79.44 54.7 0 1 2.55 2.84l1.04 1.47a.18.18 0 0 1-.04.25z"/><ellipse fill="#070105" fill-opacity=".996" rx=".79" ry=".37" transform="rotate(136.9 78.456 181.242)"/><rect width=".9" height="5.7" x="-.45" y="-2.85" fill="#070105" fill-opacity=".996" rx=".26" transform="rotate(-33.3 557.982 -267.336)"/><ellipse fill="#070105" fill-opacity=".996" rx=".76" ry=".35" transform="rotate(-38.3 495.26 -214.3)"/><ellipse fill="#070105" fill-opacity=".996" rx=".73" ry=".36" transform="rotate(-45.6 441.702 -174.451)"/><ellipse fill="#070105" fill-opacity=".996" rx=".85" ry=".32" transform="rotate(-40.6 475.552 -188.331)"/><path fill="#070105" fill-opacity=".996" d="M278.89 270.37q1.75-3.18.01-6.28-.28-.5.22-.21c2.37 1.38 1.88 5.31.01 6.7a.16.16 0 0 1-.24-.21M278.17 270.12l.22.16q.24.18-.06.24-.11.02-.23.01-.28-.02-.44-.22-2.46-3.01-.09-6.23.11-.14.28-.11.29.05.17.31-1.19 2.81-.14 5.47.09.23.29.37"/><rect width=".94" height="6.68" x="-.47" y="-3.34" fill="#070105" fill-opacity=".996" rx=".27" transform="rotate(-1 15785.82 -14973.622)"/><rect width=".94" height="5.66" x="-.47" y="-2.83" fill="#070105" fill-opacity=".996" rx=".27" transform="rotate(-34.1 578.346 -273.08)"/><ellipse fill="#070105" fill-opacity=".996" rx=".55" ry=".37" transform="rotate(-25.9 725.845 -413.676)"/><ellipse fill="#070105" fill-opacity=".996" rx=".6" ry=".38" transform="rotate(130 60.428 198.03)"/><path fill="#070105" fill-opacity=".996" d="M257.29 285.81q-1.26 2.54-.37 5.22.09.28-.2.3l-.27.02q-.05 0-.07-.04-1.69-3.11.41-5.94.05-.07.12-.03l.27.13q.23.12.11.34M258.6 286.39q-.41-.22-.45-.71-.05-.62.42-.2 1.7 1.51 1.2 3.92a.33.32-87.3 0 1-.27.25l-.43.05q-.31.04-.26-.26.25-1.64-.21-3.05M245.24 287.65a.9.89 88 0 0-.75.81q-.21 2.38.27 4.66.16.79-.59.49-.29-.12-.56.01-.71.34-.47-.4.86-2.7.05-5.48-.21-.72.52-.57 1.53.31 3.02.09.53-.08.87.34.1.12.05.27-.18.46-.57.18-.81-.56-1.84-.4M230.44 289.36q.13.89-.08 1.57-.27.85-.5-.01-.3-1.13-.56-2.51a.51.5 73.1 0 1 .28-.54q.22-.1.46-.08.57.04.47.6l-.05.27q-.06.35-.02.7M200.49 288.45q-.07-.31.31-.19.24.07.11.27a.23.23 0 0 1-.42-.08"/><path fill="#070105" fill-opacity=".996" d="M245.71 290.13q.27-.16.52-.32.87-.58.43.37-.06.14-.07.28-.01.39-.4.4-.24.01-.46-.1-.57-.3-.02-.63M231.77 296.47a.22.22 0 0 1-.3-.06l-1.9-2.9a2.06.43 56.7 0 1-.77-1.95l.35-.23a2.06.43 56.7 0 1 1.49 1.48l1.9 2.89a.22.22 0 0 1-.06.31z"/><ellipse fill="#070105" fill-opacity=".996" rx=".65" ry=".45" transform="rotate(-34.9 580.318 -221.78)"/><path fill="#070105" fill-opacity=".996" d="M229.12 296.03q-.27.39-.34-.08-.1-.74.34-1.29.51-.63.43.18-.06.67-.43 1.19M201.97 303.05l1.57 2.28a.25.25 0 0 1-.13.37l-.47.13q-.18.06-.28-.11l-2.63-4.09q-.41-.64.32-.43.58.16.97.65.37.46.71-.01.32-.44.91-.51.48-.06.23.36-.31.5-.92.64a.47.47 0 0 0-.28.72M235.52 303.51q.1-.3.32-.07.23.26-.12.31-.29.04-.2-.24"/><ellipse fill="#070105" fill-opacity=".996" rx=".81" ry=".33" transform="rotate(128.5 26.571 200.864)"/></svg>