<svg xmlns="http://www.w3.org/2000/svg" viewBox="0 0 382 382"><path fill="#0103fc" fill-opacity=".996" d="M284.41 102.04q.12-.32.27 0l.47 1.03q.35.76-.47.64-.19-.02-.37-.01-.55.05-.36-.47zM287.59 133.19c.54-1.26.14-4.06.03-5.5a.35.35 0 0 1 .35-.38h.33a.32.32 0 0 1 .31.35q-.27 2.94.32 5.61.12.55-.45.56h-.46q-.72.01-.43-.64M298.24 141.04c-.25-.59-.62-.88-1.06-1.31q-.62-.63.26-.63.21 0 .42.1.52.26.58.37l2.14 3.65a.39.39 0 0 1-.62.47q-1.09-1.13-1.72-2.65"/><ellipse fill="#0103fc" fill-opacity=".996" rx=".79" ry=".34" transform="rotate(125.8 112.099 147.631)"/><rect width=".92" height="5.76" x="-.46" y="-2.88" fill="#0103fc" fill-opacity=".996" rx=".26" transform="rotate(-34.4 398.717 -390.837)"/><path fill="#0103fc" fill-opacity=".996" d="M291.07 155.25q.25-.68.85-.55a.25.25 0 0 1 .18.35q-.21.48-.65.61a.32.31-88 0 1-.38-.41M299.26 159.5q-.73-2.48.73-4.4.56-.74.36.17-.54 2.53-.04 4.71.17.74-.57.55-.2-.05-.35-.21-.31-.34-.13-.82M289.44 158.47q-.12.23-.11.51.02.32-.3.35-.14.02-.27-.05-.2-.11-.14-.34.12-.45.45-.75.94-.86.37.28M298.7 163.82q-.03-.75-.75-1.08a.9.89-80 0 1-.52-.75q-.08-1.01-.89-1.67-.74-.6.21-.5l.29.02q.47.05.72.46l2.14 3.56q.12.2-.08.3l-.3.15a.57.57 0 0 1-.82-.49M297.07 163.83q-.17.32-.5.48a.32.31-1.2 0 1-.43-.41q.16-.34.48-.51a.33.33 0 0 1 .45.44M273.59 168.49q.09-.85.63-1.55.34-.44.3.12-.07.92-.64 1.56-.34.36-.29-.13M297.3 173.94q.2.03.37-.1.26-.19.08-.46l-1.92-2.81q-.36-.51.27-.53.64-.02 1 .53.72 1.14 1.43 2.32a1.55 1.5 30.7 0 1 .21.77q-.02 1.83.01 3.64c.02 1.1-.54 2.98-1.88 3.07q-.76.06-.03-.18.47-.15.55-.63.5-2.97-.24-4.6-.54-1.19-.97.05-.69 2.01-.05 4.89.16.73-.39.22c-.93-.87-1.52-2.14-1.14-3.43q.41-1.4-.28-2.46-.31-.48.25-.37 1.1.22 1.84-.54a.32.31 57.7 0 1 .52.12q.04.12.08.25.07.21.29.25M298.87 170.07a.23.23 0 0 1 .27.24q-.03.61-.72.72-.44.08-.28-.34.21-.54.73-.62M293.22 174.61c-.43.9-.32 2.23-.11 3.25a.39.38-6.9 0 1-.37.46l-.38.02q-.45.01-.34-.43.42-1.69-.12-3.33-.13-.38.21-.61.31-.21.71-.14a.55.55 0 0 1 .4.78M275.36 180.94q.35 1.32 1.45 2.1.45.32-.07.49-.92.32-1.36-.51-.95-1.84-2.22-3.4-.58-.71.27-.36 1.29.55 2.65.22 1.26-.3.17.34l-.57.33q-.46.27-.32.79M273.6 182.49q.53-.25.36.31-.16.57-.66.86-.39.23-.33-.22.08-.68.63-.95"/><ellipse fill="#0103fc" fill-opacity=".996" rx="2.39" ry=".47" transform="rotate(99.5 67.179 221.491)"/><path fill="#0103fc" fill-opacity=".996" d="M271.44 196.98q-.56 0-.56.56v4.64q0 .74.74.88 1.27.22 2.21-.56.49-.4.48.23 0 .2-.14.34-.19.18-.45.2-1.68.13-3.64.13-.49 0-.39-.48.57-2.98-.02-5.8-.09-.44.36-.42l3.57.08q.35.01.51.33.08.16-.01.32-.11.2-.32.1-1.1-.55-2.34-.55"/><path fill="#0103fc" fill-opacity=".996" d="m272.11 199.66 1.18-.1q.58-.05.43.51-.04.13-.12.24-.09.13-.24.08l-1.29-.43a.16.15-37.6 0 1 .04-.3M254.95 205.58q.06-1.37.12-2.82.01-.24.24-.19l.27.06q.27.06.25.34-.15 1.57.24 3.27.14.62-.48.49-.15-.04-.3 0-.85.19-.5-.59.06-.14.11-.27.05-.14.05-.29M269.084 213.21a3.36 2.15 89.6 0 1-2.174-3.345 3.36 2.15 89.6 0 1 2.126-3.375 3.36 2.15 89.6 0 1 2.174 3.345 3.36 2.15 89.6 0 1-2.126 3.375m-.013-.38a3.03 1.21 89.6 0 0 1.189-3.038 3.03 1.21 89.6 0 0-1.231-3.022 3.03 1.21 89.6 0 0-1.189 3.038 3.03 1.21 89.6 0 0 1.231 3.022M286.41 207.72l2.79 4.16q.43.64-.33.53-.16-.02-.31-.07-.34-.11-.51-.41-1.11-1.84-2.39-3.65-.18-.24.08-.4l.34-.23q.2-.13.33.07M288.36 207.93a.35.33 22.7 0 1 .32-.12q.69.11.18.84a.34.33 26.4 0 1-.38.12q-.64-.19-.12-.84M194.57 209.37q.36.1.4.45a.26.26 0 0 1-.32.28q-.36-.08-.41-.45-.05-.39.33-.28"/><ellipse fill="#0103fc" fill-opacity=".996" rx=".82" ry=".39" transform="rotate(115.9 32.805 167.044)"/><ellipse fill="#0103fc" fill-opacity=".996" rx=".59" ry=".34" transform="rotate(118.6 80.1 190.808)"/><path fill="#0103fc" fill-opacity=".996" d="M240.898 219.63a3.34 2.15 89.7 0 1-2.168-3.329 3.34 2.15 89.7 0 1 2.133-3.351 3.34 2.15 89.7 0 1 2.167 3.329 3.34 2.15 89.7 0 1-2.132 3.351m-.022-.33a3.07 1.2 89.7 0 0 1.184-3.076 3.07 1.2 89.7 0 0-1.216-3.064 3.07 1.2 89.7 0 0-1.184 3.076 3.07 1.2 89.7 0 0 1.216 3.064M284.25 219.19a.7.7 0 0 0 1.02-.5q.32-1.87.13-4.03-.22-2.44.71-.17.9 2.22-.16 4.18a1.75 1.74 42 0 1-2.98.15c-1-1.48-1.07-4.67.83-5.63q.84-.43.25.31c-1.05 1.32-.9 2.74-.72 4.32q.1.93.92 1.37M228.06 218.65q.12-.01.25-.07.12-.06.18.06.46.99.4 1.97-.08 1.02-.7.21c-.86-1.11-2.03-3.21-3.27-3.82q-.66-.33-.9-1.01-1.09-3.08 1.01-.58 1.29 1.53 2.61 3.06.16.19.42.18M228.88 215.69q-.19 1.18-.25 2.21 0 .07-.07.06l-.26-.06q-.13-.03-.1-.16.32-1.4.06-2.72-.07-.35.29-.41.22-.03.44.05.38.14.14.47-.08.11-.15.23-.08.16-.1.33M223.83 220.79c.33-.78.33-2.25.38-3.07q.01-.14.15-.14h.27a.06.06 0 0 1 .05.08q-.33 1.53-.02 3.35.07.38-.31.35-.16-.01-.31.01-.58.05-.27-.45.03-.06.06-.13M242.96 227.57q-.15-.51.38-.43l.5.09a.32.31-85 0 1 .27.33q-.13 2.71.15 5.65.07.76-.68.58-.07-.02-.13-.01-.58.03-.44-.52.75-2.82-.05-5.69M236.74 235.41q-1.12.38-1.66-.66-1.45-2.79.64-5.76.04-.05.09-.02l.29.13q.23.11.11.32-1.24 2.19-.51 5 .13.5.51.74a.83.82 24.9 0 0 1.22-.44q.85-2.63-.28-5.24-.41-.96.33-.22 2.16 2.18.69 5.49-.41.94-1.43.66M288.58 230.61q-.44 1.85-.16 3.64.07.44.42.73.98.78.89 2.13-.03.59-.41.14-2.62-3.1-1.66-6.33.28-.96 1.09-1.22.73-.24.21.33l-.18.2q-.15.17-.2.38"/><path fill="#0103fc" fill-opacity=".996" d="M289.95 229.56q.28.04.47.22.21.2.24.5.04.51-.31.14l-.55-.58q-.35-.36.15-.28M229.13 244.05q.11.07.23.12.53.2-.02.34-.26.07-.5.01-.19-.05-.33-.2-2.38-2.67-.45-5.77.39-.63 1.16-.79.63-.12.16.31-2.03 1.9-.86 5.2.18.49.61.78M231.82 243.58q.48-.13.88.29.54.56-.23.49l-1.97-.17q-.48-.04-.36-.5.66-2.39.07-5.02-.11-.49.39-.49.73-.01 1.33-.44a.27.27 0 0 1 .43.23l-.01 4.27a.44.43 65.7 0 1-.1.28q-.19.23-.46.15-.29-.08-.43.18-.1.19-.07.4.08.46.53.33m-.34-4.54q-.4-.35-.05.59.13.36.22-.01.08-.34-.17-.58M217.69 241.5q-.93 3 .69 5.14.44.58-.24.32c-2.28-.91-1.76-4.68-.69-6.21q.2-.29.54-.25.14.01.26.11.13.11-.02.2-.4.27-.54.69"/><path fill="#0103fc" fill-opacity=".996" d="M219.28 246.28c.93-1.37.5-4.14-.15-5.43q-.29-.56.32-.38.19.06.31.22c.91 1.19 1.72 4.98-.18 5.93q-.81.41-.3-.34M248.95 252.4a.91.9-85.4 0 0 .99-.85l.2-2.99q.04-.64.39-1.18c.86-1.36-.03-4.37 2.58-4.31a1.94 1.92 82.9 0 1 1.82 1.43c.52 1.93.39 5.67-2.72 4.77q-.24-.07-.15-.29v-.01l.01-.01q.16-.37.52-.18 1.35.67 1.52-.82.22-1.98-.11-3.81-.15-.81-.98-.74-.51.04-.78.5c-.82 1.4.11 3.09-.91 4.74q-.38.62-.34 1.33.15 2.64-2.2 2.71a1.66 1.66 0 0 1-1.64-1.18c-.6-1.98-.51-6 2.67-4.97q.21.07.13.27l-.11.28q-.06.17-.2.06-.77-.57-1.39-.08-.38.3-.4.82-.08 1.88.07 3.52.08.9 1.03.99M230.28 253.52a.01.01 0 0 1-.01.01l-.34.01a.65.22-.6 0 1-.65-.21l-.06-6.16a.65.22-.6 0 1 .65-.23h.34a.01.01 0 0 1 .01 0zM276.27 256.6c.86-1.29.75-4.58-.39-5.76q-.47-.49.15-.23c2.29.97 2.08 4.63.84 6.16a1.65 1.65 0 0 1-2.76-.32q-1.43-2.96.6-5.78.04-.04.09-.02l.29.12q.23.1.1.32-1.32 2.27-.32 5.32.51 1.54 1.4.19M253.42 258.93l.04 6.27a.23.23 0 0 1-.21.23l-.44.04a.23.23 0 0 1-.25-.23l-.01-5.47a.23.23 0 0 0-.33-.2l-1.24.62a.23.23 0 0 1-.33-.2l-.03-6.23a.23.23 0 0 1 .2-.23l.42-.05a.23.23 0 0 1 .25.22l.08 5.53a.23.23 0 0 0 .35.2l1.15-.69a.23.23 0 0 1 .35.19M270.76 261.68q.83-2.87-.09-5.62a.36.35-21.2 0 1 .2-.44l.32-.13q.34-.14.4.23.49 2.95.26 6.13-.02.2-.21.22l-.5.06q-.52.06-.38-.45M263.39 262.18q.03-2.96-.39-5.95-.03-.19.16-.26l.62-.21q.27-.09.28.2l.08 6.3q0 .45-.35.73-.65.5-1.36.37-.42-.07-.15-.4.23-.3.55-.28.55.05.56-.5M234.84 267.105a4.67 2.3 82 0 1-2.928-4.305 4.67 2.3 82 0 1 1.628-4.945 4.67 2.3 82 0 1 2.928 4.305 4.67 2.3 82 0 1-1.628 4.945m-1.22-5.405q-.41 2.16.07 4.41a.79.78 57.4 0 0 1.4.31q.84-1.15.4-2.42-.77-2.23-.69-4.63.01-.38-.2-.68-.3-.42-.82-.43-.48-.02-.7.4-.61 1.18.29 2.17.34.37.25.87"/><rect width=".92" height="6.46" x="-.46" y="-3.23" fill="#0103fc" fill-opacity=".996" rx=".26" transform="rotate(-1.3 11761.509 -10906.645)"/><path fill="#0103fc" fill-opacity=".996" d="M256.53 265.89q0 .57.3 1.08.37.62-.33.47-.21-.04-.42.01-.72.18-.58-.55.52-2.68-.01-5.53-.05-.24.18-.33l.5-.18q.39-.14.38.27zM260.59 262.46a.17.17 0 0 1 .24.04l2.53 3.64a1.11.37 55.2 0 1 .33 1.13l-.26.18a1.11.37 55.2 0 1-.94-.7l-2.53-3.65a.17.17 0 0 1 .04-.23zM234.19 264.04q.08-.17.27-.16.27.02.18.27-.05.16-.21.19-.43.08-.24-.3"/><ellipse fill="#0103fc" fill-opacity=".996" rx=".8" ry=".31" transform="rotate(122.2 56.58 205.273)"/><path fill="#0103fc" fill-opacity=".996" d="M283.88 269.55q-.06-.51.45-.48l.28.02a.27.27 0 0 1 .26.27l.02 2.47q.01.3-.28.35-.14.03-.28 0-.17-.05-.19-.22zM206.27 271.49q.19-.38.68-.25.6.16.09.52l-.65.47q-.48.34-.24.88.48 1.09 1.36 1.95.3.3-.1.45l-.5.18a.24.22 64 0 1-.27-.1l-2.61-3.99q-.45-.69.35-.51.44.1.71.48.66.93 1.18-.08M260.04 277.44q.26-2.79-.3-5.08a.4.4 0 0 1 .32-.49l.3-.06q.49-.08.49.41l.05 5.6a.57.57 0 0 1-.54.58l-.38.02q-.65.04-.19-.42.22-.23.25-.56M204.34 274.48q.25-.23.36.09.22.62-.61 1.07a.25.25 0 0 1-.36-.31q.19-.47.61-.85M255.74 280.67q.65-2.89-.08-5.72-.1-.38.29-.43l.37-.05q.39-.06.4.34l.2 5.96a.29.29 0 0 1-.26.3l-.51.06q-.52.06-.41-.46M266.5 282.78l.31.2q.45.3-.08.36-.2.03-.38-.03-.18-.05-.29-.18-2.11-2.46-.44-5.64a1.54 1.54 0 0 1 2.58-.23q1.94 2.46.02 5.68-.05.08-.13.05l-.26-.1q-.24-.1-.15-.33 1.15-2.94-.07-5.03-.74-1.26-1.31.09-.82 1.95-.17 4.64a.88.85 10.4 0 0 .37.52M210.89 279.66l.05 5.25q.01.46-.45.43l-2.14-.12q-.7-.04-1.09-.62-1.7-2.56-.12-5.32a1.38 1.37 15.2 0 1 1.21-.69l4.74.05q.44 0 .65.39.09.17.02.33-.22.52-.62.12-.77-.75-1.74-.49-.51.14-.51.67m-2.379 5.45a3.17 1.15 89.8 0 0 1.139-3.174 3.17 1.15 89.8 0 0-1.161-3.166 3.17 1.15 89.8 0 0-1.139 3.174 3.17 1.15 89.8 0 0 1.161 3.166M237.83 283.18q.49 1.66 2.09 3.01.64.54-.19.5l-1.34-.07q-.6-.03-.47-.62.04-.2.02-.39-.04-.33-.22-.6-1.66-2.56-3.32-4.4-.38-.43.18-.51.65-.1 1.23.05.61.16.59.79-.04.79.56 1.23.88.65 1.01-.44.16-1.5 1.56-1.48.79.01.12.42-.92.54-1.63 1.48-.35.47-.19 1.03M218.44 287.11q.57-2.7.03-5.39-.1-.44.27-.71.13-.1.31-.13a.5.5 0 0 1 .57.57q-.45 2.91.17 5.48.2.82-.59.52-.19-.07-.38-.01-.49.18-.38-.33"/><path fill="#0103fc" fill-opacity=".996" d="M212.34 281.35q.13-.1.26-.17.29-.18.39.15.1.36.09.72a.39.39 0 0 1-.6.31l-.58-.37a.22.21 28.8 0 1-.08-.26q.07-.15.22-.21.16-.07.3-.17M235.61 285.62q.04 1-.98 1.12-1.41.17-.27-.67.87-.65 1.56-1.63.7-.99.26.14-.06.17-.22.29a.94.93-20.2 0 0-.35.75"/><ellipse fill="#0103fc" fill-opacity=".996" rx=".68" ry=".34" transform="rotate(-38.9 534.874 -193.91)"/><rect width=".94" height="5.48" x="-.47" y="-2.74" fill="#0103fc" fill-opacity=".996" rx=".27" transform="rotate(-33.4 610.8 -251.608)"/><path fill="#0103fc" fill-opacity=".996" d="M216.97 300.16a.04.04 0 0 1-.03.04l-.38.01a.62.22-1.3 0 1-.63-.21l-.14-6.2a.62.22-1.3 0 1 .61-.23l.38-.01a.04.04 0 0 1 .05.04zM237.55 296.77q-.39.15-.25-.24.22-.65.96-.89.58-.18.26.33-.36.57-.97.8M245.04 298.94l-.43-.76q-.42-.76.42-.97.2-.05.39.02.44.15.38.61-.09.63-.39 1.11a.22.22 0 0 1-.37-.01"/></svg>