<svg xmlns="http://www.w3.org/2000/svg" viewBox="0 0 382 382"><g fill="none" stroke-width="2"><path stroke="#eab415" stroke-opacity=".996" d="M279.4 237.72q-.29-.47-.69-.73" vector-effect="non-scaling-stroke"/><path stroke="#e9b466" d="M278.37 237.43q.3.24.43.51" vector-effect="non-scaling-stroke"/></g><path fill="#e7a30b" fill-opacity=".996" d="M282.42 105.68a.02.02 0 0 1-.02.02h-.37a.63.22-.2 0 1-.63-.22l-.02-6.22a.63.22-.2 0 1 .63-.22h.37a.02.02 0 0 1 .02.02z"/><path fill="#eac4c1" d="M297.74 119.63q.18.02.21.14.09.31-.24.24-.46-.11-.83.04-.55.22-.45-.37.53-2.99.06-5.82a.43.42-87.3 0 1 .52-.48l.29.08q.13.03.13.16l.07 5.76q.01.23.24.25M292.19 119.49c-.12-1.4.4-3.22-1.11-3.99q-.64-.34.08-.38c.91-.05 1.66.46 1.68 1.41q.03 1.51.29 2.9.1.53-.4.34l-.45-.16q-.08-.03-.09-.12M290.1 118.6l.14.37q.19.54-.37.66-.2.04-.33-.11-.18-.21-.06-.46l.24-.48q.22-.45.38.02"/><path fill="#e7a30b" fill-opacity=".996" d="M291.85 133.6q.14.13.18.31.02.07-.05.08l-.96.17q-.59.1-.49-.49.48-2.85.03-5.83a.29.28-9.3 0 1 .24-.32l.31-.06q.46-.09.46.39v5.07q0 .4.28.68M285.33 135.09q.1-.45.49-.22.3.17.21.48a.34.34 0 0 1-.58.14q-.16-.18-.12-.4"/><path fill="#ecc41f" fill-opacity=".996" d="M286.13 137.61q-.26 1.89.14 3.63.09.38-.3.39l-.48.02q-.38.01-.33-.36.26-1.83-.14-3.77-.08-.37.3-.39l.37-.01q.52-.03.44.49"/><path fill="#eac4c1" d="m284.08 182.77-.3-.13q-.35-.16.03-.24.41-.09.78.06.33.14.5.45 1.59 2.85-.25 5.64-.06.1-.17.05l-.23-.1q-.16-.07-.1-.23.89-2.53.25-4.9-.11-.43-.51-.6M283.23 182.63q-1.48 2.91-.03 5.77.07.14-.07.23l-.26.15q-.08.04-.13-.02-2.37-3.2-.03-6.42.09-.12.22-.05l.23.11q.15.08.07.23M274.32 183.41a.23.23 0 0 1 .35.21q-.04.45-.49.63a.32.32 0 0 1-.29-.56zM274.54 188.13a.16.16 0 0 1-.22-.05l-2.89-4.31a.25.23-33.9 0 1 .08-.33l.41-.28a.25.23-33.9 0 1 .34.06l2.89 4.3a.16.16 0 0 1-.04.23zM290.96 191.2l-.63-.01a.21.2 1.5 0 1-.2-.2l-.17-6.06q-.01-.4.38-.35l.33.03a.34.34 0 0 1 .3.38q-.32 3.08.2 5.97.04.25-.21.24M272.28 186.65a.2.2 0 0 1 .19.32q-.43.55-1.05.8a.24.23-83.9 0 1-.28-.35q.43-.64 1.14-.77"/><path fill="#efd2ad" fill-opacity=".996" d="M266.86 199.11q.63-2.93-.08-5.74a.41.4 78.2 0 1 .32-.5l.4-.06q.44-.08.44.38l.01 6q0 .12-.12.16l-.54.16q-.55.17-.43-.4"/><path fill="#efd2ad" fill-opacity=".996" d="m269.16 198.92-.23-5.75q-.01-.28.28-.29h.3q.27 0 .28.26l.19 6.1q.01.29-.28.3l-1.08.03q-.94.02.02-.25.17-.05.33-.11.2-.08.19-.29M261.93 201.15q.5-1.39.35-2.89-.06-.5-.54-.65-.63-.18-.08-.54.3-.19.49-.5.41-.7.71.05.88 2.17-.14 4.55-.6 1.39-1.9 1.04t-1.67-2.21a2.7 2.32 47.4 0 1-.03-.92q.06-.36.42-.27.35.09.34.45 0 1.11.62 2.06.88 1.33 1.43-.17"/><path fill="#e7a30b" fill-opacity=".996" d="M293.66 201.61a.24.24 0 0 1 .17.41q-.33.35-.84.37-.41.02-.29-.37.12-.41.96-.41M291.59 204q-.51-1.25-1.26-1.92-.46-.41.16-.46.52-.04.96.18.31.16.45.48.86 1.92 2.26 3.5.2.23-.02.43-.11.1-.24.09-.16-.02-.28-.11-1.59-1.12-2.03-2.19M290.18 205.74q.31-.53.83-.28a.29.28 39.7 0 1 .05.49q-.28.2-.61.22a.29.29 0 0 1-.27-.43"/><rect width=".92" height="6.52" x="-.46" y="-3.26" fill="#eac4c1" rx=".26" transform="rotate(-1 12356.967 -16209.683)"/><path fill="#ecc41f" fill-opacity=".996" d="m256.41 216.63-.91-.02q-.79-.02-.15-.51.19-.14.22-.37.25-2.44-.21-4.98-.13-.66.55-.65.17 0 .3.1.34.29.29.73-.3 2.61.23 5.31.08.4-.32.39"/><path fill="#f5d309" fill-opacity=".996" d="M232.94 211.52q-.11-.39.29-.44l.53-.07q.37-.04.35.34-.17 2.91.12 5.78.07.72-.64.53-.08-.02-.16-.01-.56.09-.43-.46.69-2.94-.06-5.67"/><path fill="#e7a30b" fill-opacity=".996" d="m204.08 211.41 1.7.24q.56.09.03.29-1.04.41-1.86-.23-.51-.39.13-.3"/><path fill="#f5d309" fill-opacity=".996" d="M251.004 220.48a3.38 2.15 89.6 0 1-2.174-3.365 3.38 2.15 89.6 0 1 2.126-3.395 3.38 2.15 89.6 0 1 2.174 3.365 3.38 2.15 89.6 0 1-2.126 3.395m-.03-.31a3.08 1.21 90.1 0 0 1.216-3.078 3.08 1.21 90.1 0 0-1.205-3.082 3.08 1.21 90.1 0 0-1.215 3.078 3.08 1.21 90.1 0 0 1.205 3.082"/><path fill="#eac4c1" d="M221.226 226.37a3.41 2.13 89.9 0 1-2.136-3.406 3.41 2.13 89.9 0 1 2.124-3.414 3.41 2.13 89.9 0 1 2.136 3.406 3.41 2.13 89.9 0 1-2.124 3.414m-.029-.28a3.14 1.18 90.6 0 0 1.213-3.128 3.14 1.18 90.6 0 0-1.147-3.152 3.14 1.18 90.6 0 0-1.213 3.128 3.14 1.18 90.6 0 0 1.147 3.152M270.03 230.01q-.21-.67.49-.61l.41.03q.23.02.23.24l.09 5.69q.01.46-.45.49-.15.01-.3.03-.52.09-.4-.42.69-2.95-.07-5.45"/><path fill="#ecc41f" fill-opacity=".996" d="M245.63 237.3q.12-2.68-.34-4.73-.06-.27.21-.32l.59-.09a.3.29-4.2 0 1 .34.29l-.06 4.83q0 .55.55.65.28.04.55-.02a.53.53 0 0 1 .65.5l.13 5.98q.01.36-.33.23l-.44-.17q-.14-.05-.14-.2l.01-4.73q0-.35-.23-.6-.52-.58-1.43-.3-.72.22-.54-.51.04-.15.18-.25.28-.21.3-.56"/><path fill="#e7a30b" fill-opacity=".996" d="M288.57 238.7q.21-.02.38-.13.27-.16.23.15-.05.54-1.66.02a1.3 1.29-6.2 0 1-.72-.57q-1.36-2.28-.08-4.77a1.72 1.72 0 0 1 3.22.45q.23 1.1-.16 2.37-.33 1.1-.3-.05.02-.91-.17-1.77-.69-3.21-2.19-.31-.27.52.24 3.69.17 1.04 1.21.92"/><path fill="#eac4c1" d="m277.1 234.66-.15.35q-.24.54-.48.01-.25-.52.21-.9a.67.66-51.8 0 1 .71-.09q.3.13-.02.32-.19.11-.27.31"/><path fill="#ecc41f" fill-opacity=".996" d="M279.4 237.72q-.29-.47-.69-.73l-.58-2.71q-.05-.24.18-.31l.42-.11q.11-.03.16.08l1.16 2.83q.23.56.63.11.47-.51 1.12-.6.93-.13.22.49l-.81.72q-.38.33-.11.77l1.31 2.08q.28.46.83.45h.59a.29.29 0 0 1 .29.29l.11 6.1q.01.3-.28.2l-.56-.19a.25.25 0 0 1-.17-.26q.31-2.5.06-4.79-.1-.99-1.11-1.23-.65-.16-.92-.77-.2-.45-.49-.85-.94-1.27-1.02.31-.03.68-.65.97-.68.32-.27-.32 1.36-2.14.58-2.53"/><path fill="#eac4c1" d="M278.37 237.43q.3.24.43.51-1.5 1.01-2.42.14-.45-.42-.14-.96l.53-.91q.3-.51.46.05.15.51-.11 1.02-.3.59.36.69.44.07.89-.54"/><path fill="#e7a30b" fill-opacity=".996" d="M279.4 237.72q-.34.26-.6.22-.13-.27-.43-.51l.34-.44q.4.26.69.73M269.7 246.31a.71.7-42.7 0 0 1.27.05q1.42-2.67-.24-5.59-.13-.22.09-.35l.22-.13q.09-.05.16.03 2.5 3.18.36 6.18a1.62 1.62 0 0 1-2.83-.36q-1.14-2.97.65-5.69.05-.08.13-.04l.23.11q.23.1.12.33-1.31 2.83-.16 5.46"/><path fill="#eac4c1" d="M217 249.7a.01.01 0 0 1-.01.01l-.54.01a.41.23-1.5 0 1-.42-.22l-.16-6.24a.41.23-1.5 0 1 .4-.24l.54-.01a.01.01 0 0 1 .01.01z"/><path fill="#e7a30b" fill-opacity=".996" d="M245.32 251.41a.01.01 0 0 1-.01.01l-.36.01a.63.22-1.2 0 1-.64-.21l-.12-6.18a.63.22-1.2 0 1 .62-.23l.36-.01a.01.01 0 0 1 .01.01zM275.11 245.19a.17.17 0 0 1 .23.05l2.84 4.11a.47.31 55.4 0 1 .01.57l-.24.17a.47.31 55.4 0 1-.52-.21l-2.84-4.12a.17.17 0 0 1 .04-.24zM277.43 246.44a.29.28 86.8 0 1-.38-.35q.13-.46.65-.69a.29.28-2.9 0 1 .39.35q-.17.47-.66.69"/><rect width=".9" height="6.74" x="-.45" y="-3.37" fill="#e7a30b" fill-opacity=".996" rx=".27" transform="rotate(-1.8 8047.645 -7442.958)"/><path fill="#e7a30b" fill-opacity=".996" d="m269.29 250.89-2.82-4.1q-.45-.66.33-.5c1.91.4 1.82 2.75 3.26 3.99q.26.23-.02.44l-.33.24q-.25.19-.42-.07M261.84 248.68q.49 1.24 1.43 2.42.41.51-.24.57-.46.04-.7-.36-1.29-2.11-2.62-3.75a.44.43-55.4 0 1-.07-.4q.09-.23.32-.17a2.85 2.84-3 0 1 1.88 1.69"/><ellipse fill="#e7a30b" fill-opacity=".996" rx=".66" ry=".35" transform="rotate(-43.2 443.988 -207.839)"/><path fill="#e7a30b" fill-opacity=".996" d="M275.67 249.07q-.35.61-1 .74-.47.1-.2-.3.36-.53.87-.79.77-.4.33.35"/><ellipse fill="#e7a30b" fill-opacity=".996" rx=".76" ry=".32" transform="rotate(-36.5 512.758 -279.337)"/><path fill="#e7a30b" fill-opacity=".996" d="M260.3 250.46a.23.23 0 0 1 .33.26q-.15.6-.76.81-.47.15-.27-.3.22-.5.7-.77"/><path fill="#eac4c1" d="M273.03 259.71q.06.32-.26.34l-.75.03q-.33.02-.29-.3.41-2.99-.03-5.86-.07-.43.36-.45l.3-.01q.44-.01.39.42-.27 2.9.28 5.83M240.42 263.16q.49-2.62.04-5.4-.09-.55.45-.61.19-.02.36.06.35.18.29.57-.44 2.8.19 5.37.19.76-.56.52-.13-.04-.26-.01-.63.15-.51-.5"/><path fill="#f5d309" fill-opacity=".996" d="M282.01 268.53q-.83-.53-1.8-.72-.42-.08-.34-.5.59-3.16-.12-5.83a.27.26 88.6 0 1 .31-.33l.57.11q.17.04.18.21l.1 4.9q.01.54.45.85 1.18.8 2.56.19.76-.33.25.32-.18.21-.42.34-.74.37-.58 1.18a.79.79 0 0 0 .54.6l.83.25q.72.22.34.87-.59 1-1.59 1.82-.56.47-.49-.26l.07-.8q.06-.67-.58-.48l-.97.3q-.89.27-.34-.47l1.2-1.62q.41-.56-.17-.93"/><path fill="#efd2ad" fill-opacity=".996" d="M286.21 271.46a.18.18 0 0 1-.19-.17l-.1-5.95a.35.27-1 0 1 .34-.28h.26a.35.27-1 0 1 .36.26l.1 5.95a.18.18 0 0 1-.17.18z"/><path fill="#e7a30b" fill-opacity=".996" d="M274.46 275.07q.48-2.58-.1-5.32-.13-.63.51-.73.14-.02.27.01.46.08.41.55-.35 3.07.19 5.58.07.33-.26.38l-.5.07q-.64.09-.52-.54M265.51 271.12c.52 1.23 1.45 2.51 2.35 3.43q.61.62-.25.55-1.08-.09-1.52-1.06-.85-1.87-2-3.07-.41-.44.19-.47.95-.04 1.23.62M267.07 270.56a.3.3 0 0 1 .32.09q.27.3-.07.53-.36.23-.78.26a.27.27 0 0 1-.19-.48q.3-.28.72-.4"/><rect width=".94" height="6.56" x="-.47" y="-3.28" fill="#f5d309" fill-opacity=".996" rx=".26" transform="rotate(-1 15865.57 -13409.818)"/><ellipse fill="#e7a30b" fill-opacity=".996" rx=".69" ry=".34" transform="rotate(128.1 65.405 201.615)"/><path fill="#eac4c1" d="m270.08 278.17-.04 3.29a.18.17 10.5 0 1-.24.16l-.28-.1q-.1-.03-.11-.12l-.46-3.18a.42.4 85.6 0 1 .39-.47h.32q.42-.01.42.42"/><path fill="#efd2ad" fill-opacity=".996" d="M220.13 285.23q.64-2.98-.14-5.69-.09-.33.25-.33l.7.01a.19.19 0 0 1 .19.19l.11 5.99q.01.34-.33.34l-.36.01q-.54.01-.42-.52M210.27 284.14q.73 1.31 1.64 2.1.2.18.02.37l-.28.3q-.04.04-.09.01-1.75-1.12-2.26-2.87-.12-.42-.46-.69l-.57-.45q-.73-.58.2-.58.6.01 1.1.34a.87.87 0 0 0 .82.08l1.11-.46q.04-.02.05.03l.1.27q.06.17-.11.25l-1.02.5q-.55.27-.25.8"/><path fill="#eac4c1" d="M264.64 284.42q.29-.39.74-.13a.31.31 0 0 1 .01.53q-.3.19-.63.04-.34-.15-.12-.44"/><ellipse fill="#efd2ad" fill-opacity=".996" rx=".69" ry=".35" transform="rotate(-44 458.435 -115.072)"/><path fill="#ecc41f" fill-opacity=".996" d="M249.95 292.3a.19.19 0 0 1-.19-.19l-.11-5.92a.55.5 88.9 0 1 .49-.56.55.5 88.9 0 1 .51.54l.11 5.92a.19.19 0 0 1-.19.19z"/><path fill="#efd2ad" fill-opacity=".996" d="M210.6 297.2q-1.01-1.14-1.66-2.48-.28-.58.34-.43.4.1.62.43 1.17 1.72 2.51 3.56.55.75-.37.59-.74-.14-.97-.85-.15-.46-.47-.82"/><path fill="#eac4c1" d="M211.94 294.34a.19.19 0 0 1 .23.22q-.1.64-.78.88-.5.18-.32-.32.23-.64.87-.78"/><path fill="#e7a30b" fill-opacity=".996" d="M218.82 299.89q-1.36-2.01-2.77-4-.59-.83.39-.59.15.04.29.09.33.11.49.42.92 1.77 2.31 3.45.24.3-.07.51l-.29.19q-.2.14-.35-.07"/><path fill="#ecc41f" fill-opacity=".996" d="M218.38 296.43a.28.27-87.5 0 1-.35-.39q.33-.57 1.01-.67.6-.08.21.38-.37.45-.87.68"/><path fill="#efd2ad" fill-opacity=".996" d="M205.21 297.72q.16-.22.67-.18.56.04.89.49 1.97 2.65.17 5.61-.3.49-.86.6-.81.15-.12-.31.16-.11.29-.25.13-.13.18-.31.79-2.73-.04-4.99-.23-.62-1.18-.66"/><path fill="#eac4c1" d="M209.66 297.6a.19.19 0 0 1 .24.2q-.05.64-.73.91-.46.18-.34-.3.17-.64.83-.81"/><path fill="#efd2ad" fill-opacity=".996" d="M205.21 297.72q-1.56 3.18.08 6.44.03.06-.03.09l-.23.13q-.22.11-.37-.09-2.16-3.03-.4-6.04.35-.59.95-.53"/><path fill="#e7a30b" fill-opacity=".996" d="M216.49 298.63a.18.18 0 0 1 .26.09q.24.72-.55 1-.48.17-.33-.31.15-.51.62-.78"/><path fill="#f5d309" fill-opacity=".996" d="M211.06 309.22q-.01-.69.22-1.38a1.66 1.66 0 0 1 2.84-.54c1.58 1.9 1.23 5.93-1.74 6.43q-.96.17-1.27-.75-.61-1.78-1.82-2.98-.58-.57.23-.48l1.08.12a.41.41 0 0 0 .46-.42m1.23.72q-.92 1.44.03 2.71a.83.82-57.1 0 0 1.47-.32q.58-2.64-.1-4.69a.86.86 0 0 0-1.52-.23q-.63.9.07 1.74a.67.66 41.7 0 1 .05.79"/><path fill="#ecc41f" fill-opacity=".996" d="M209.58 312.9q.45-.15.38.31-.04.32-.29.55a.33.33 0 0 1-.55-.16q-.12-.5.46-.7"/></svg>