<svg xmlns="http://www.w3.org/2000/svg" viewBox="0 0 382 382"><g fill="none" stroke="#7da108" stroke-opacity=".996" stroke-width="2"><path d="M218.35 219.52q-.36-.25-.34-.7M218.09 214.12q-.71-.48-1.34.26M216.32 217.48q-.12 1.27-.51 1.26M217.62 221.91q-.69-.02-1.08.89M287.4 245.24q-.56-.67-1.19-.83" vector-effect="non-scaling-stroke"/></g><path fill="#f6d40b" fill-opacity=".996" d="M291.27 108.78q-.83.16-.91 1.06a.36.36 0 0 1-.45.31l-.26-.06q-.07-.02-.06-.1.39-1.69 2.04-1.46.82.12 1.17.92 1.42 3.21-.93 5.85-.05.06-.11.02l-.26-.13q-.06-.04-.03-.1 1.69-2.81.43-5.96a.57.57 0 0 0-.63-.35"/><path fill="#f6d40b" fill-opacity=".996" d="M296.41 114.08q.53-.48.58-1.36.08-1.74-.08-3.13a.17.17 0 0 1 .17-.19q.14 0 .28.02.21.03.28.23.78 2.14-.08 3.98a1.87 1.87 0 0 1-3.45-.17q-.78-2.19.5-4.83.04-.07.11-.05l.29.09q.16.04.11.2-.57 2.1-.19 4.68a.89.89 0 0 0 1.48.53M287.27 153.36a.04.04 0 0 1 .01-.06l.24-.15a1.01.72 56.1 0 1 1.16.43l2.13 3.18a1.01.72 56.1 0 1-.04 1.24l-.23.15a.04.04 0 0 1-.06-.01zM289.66 153.84q.3-.48.89-.55.45-.06.21.33-.34.55-.95.51a.19.19 0 0 1-.15-.29M288.1 156.57a.23.22-84 0 1 .26.33q-.32.59-.89.84a.25.25 0 0 1-.33-.34q.33-.64.96-.83"/><rect width=".92" height="6.64" x="-.46" y="-3.32" fill="#036e05" fill-opacity=".996" rx=".26" transform="rotate(-1.3 7838.643 -12890.559)"/><path fill="#036e05" fill-opacity=".996" d="M262.57 198.44q.38-1.22.21-2.62a.1.09 81.7 0 1 .06-.09l.29-.13q.51-.22.44.33-.17 1.33.28 2.61.17.5-.36.49l-.5-.02q-.59-.01-.42-.57"/><path fill="#f6d40b" fill-opacity=".996" d="M258.02 204.32a.76.76 0 0 0 1.42-.06q.78-2.4.12-4.92-.19-.72.39-.24c1.78 1.51.79 4.82-.64 5.87a1.02 1.01 43.2 0 1-1.17.03q-2.01-1.34-1.28-3.95.05-.17.22-.17h.27q.23 0 .21.22-.14 1.78.46 3.22"/><path fill="#036e05" fill-opacity=".996" d="M277.748 207.54a3.41 2.13 89.7 0 1-2.148-3.399 3.41 2.13 89.7 0 1 2.112-3.421 3.41 2.13 89.7 0 1 2.148 3.399 3.41 2.13 89.7 0 1-2.112 3.421m-.049-.3a3.14 1.18 90.2 0 0 1.191-3.136 3.14 1.18 90.2 0 0-1.169-3.144 3.14 1.18 90.2 0 0-1.191 3.136 3.14 1.18 90.2 0 0 1.169 3.144M294.41 208.65a.05.05 0 0 1-.05.05l-.28.01a.71.48-.6 0 1-.71-.47l-.06-5.66a.71.48-.6 0 1 .71-.49h.28a.05.05 0 0 1 .05.04zM266.73 212.64q.21-.01.23.11.07.31-.25.26-.43-.08-.8.04-.6.19-.48-.43.57-2.74.03-5.74-.06-.33.26-.42l.28-.08q.43-.12.43.33l.05 5.69q.01.24.25.24"/><rect width="1" height="6.52" x="-.5" y="-3.26" fill="#f6d40b" fill-opacity=".996" rx=".27" transform="rotate(-1.5 8264.79 -9942.254)"/><path fill="#036e05" fill-opacity=".996" d="M293.3 211.28q.02-.19.2-.18.16.01.17.16.01.2-.19.21t-.18-.19M205.45 211.34q.61-.24 1.23-.01.4.15 0 .3-.59.22-1.21.03-.49-.14-.02-.32"/><path fill="#f6d40b" fill-opacity=".996" d="M218.35 219.52q-.36-.25-.34-.7 1.2-2.44.08-4.7-.71-.48-1.34.26-.69 1.32-.43 3.1-.12 1.27-.51 1.26-1.26-2.61.03-4.6a1.86 1.86 0 0 1 3.22.19q1.43 2.91-.71 5.19"/><path fill="#036e05" fill-opacity=".996" d="M218.09 214.12q-.63.58-1.34.26.63-.74 1.34-.26"/><path fill="#036e05" fill-opacity=".996" d="M218.01 218.82q-.02.45.34.7-1.66 1.3-.73 2.39-.69-.02-1.08.89.13-2.38-.73-4.06.39.01.51-1.26l.07.27q.09.37.42.17.26-.15.24-.46-.11-1.24.17-2.31.26-.98.38.03z"/><path fill="#f6d40b" fill-opacity=".996" d="m279.08 219.51-2.64-3.9q-.37-.56.29-.47 1.05.13 1.43 1.08.68 1.71 1.99 3.06a.21.21 0 0 1-.11.35l-.46.09a.49.49 0 0 1-.5-.21"/><path fill="#f6d40b" fill-opacity=".996" d="M279.56 215.82q-.17.14-.39.19-.99.23-.27-.48.18-.18.44-.21.96-.11.22.5M276.96 218.54a.22.22 0 0 1 .28.26q-.15.61-.82.81-.46.14-.28-.31.23-.58.82-.76"/><path fill="#036e05" fill-opacity=".996" d="M253.76 225.75q-1.11-3.37.88-5.05.63-.53 1.6-.44.69.06.04.32-2.95 1.17-1.05 4.98.34.68 1.07.77.91.12.01.31-.26.06-.51-.02-1.05-.34-2.04-.87M258.89 221.35c-.36-.24-.74-.37-1.08-.58q-.35-.23.04-.37.4-.15.84-.12.26.02.39.25.14.25.22.53.2.71-.41.29"/><path fill="#f6d40b" fill-opacity=".996" d="M216.54 222.8q.39-.91 1.08-.89.21 1.3-.08 4.26-.1 1.09.92 1.72.58.35.82-.29 1.1-3.02.06-4.93-1.37-2.5.53-.38 1.97 2.21.05 5.35a1.46 1.46 0 0 1-2.32.22q-1.8-1.98-1.06-5.06"/><path fill="#036e05" fill-opacity=".996" d="M258.07 226.12c.42-.56.53-1.48.08-2.06q-.57-.75.37-.85l.37-.05q.62-.07.57.56l-.19 2.19q-.04.53-.55.68-.17.05-.35.07-.76.07-.3-.54M253.76 225.75q.39 1.2 1.31 2.38.35.44-.21.51-.42.05-.67-.31-1.22-1.76-2.59-3.62-.33-.44.21-.55 1.34-.26 1.95 1.59M251.4 228.15q.17-.52.63-.77a.26.26 0 0 1 .38.29q-.15.6-.7.78-.45.15-.31-.3"/><path fill="#f6d40b" fill-opacity=".996" d="M240.06 234.52q.69-3.15-.09-5.86-.17-.58.43-.53.16.01.29.09.4.22.41.68l.13 5.5q.01.42-.41.42-.37 0-.7-.17a.12.11-70.7 0 1-.06-.13"/><path fill="#036e05" fill-opacity=".996" d="M243.81 229.56q-.16-.66.5-.49l.34.09q.19.04.2.24l.16 6.11q0 .23-.23.25l-.57.06q-.44.04-.35-.4.63-2.98-.05-5.86"/><rect width=".9" height="5.68" x="-.45" y="-2.84" fill="#f6d40b" fill-opacity=".996" rx=".3" transform="rotate(-33.6 521.11 -340.308)"/><path fill="#f6d40b" fill-opacity=".996" d="M276.61 229.3a.27.27 0 0 1 .33.32q-.13.53-.71.67-.51.13-.31-.36t.69-.63M273.41 233.36q.32-.51.88-.79.5-.26.29.26-.27.64-.92.85-.55.18-.25-.32"/><path fill="#036e05" fill-opacity=".996" d="M266.88 234.36q.14-.6.71-.91.28-.15.39.15l.09.24q.06.13-.08.19-.62.29-1 .78-.3.4-.06.84.48.89 1.24 1.56.56.5-.16.69-.24.06-.47-.01-.37-.1-.54-.43-.96-1.93-2.33-3.59-.27-.32.1-.51l.31-.16q.12-.07.2.04l.96 1.26q.47.62.64-.14M265.55 236.53q.27-.11.21.17-.19.87-1.01 1.08-.6.15-.25-.36.44-.63 1.05-.89M221.51 243.06q.12-2.58-.24-4.69a.58.58 0 0 1 .36-.64l.4-.16a.26.25-7.8 0 1 .35.26q-.36 3.16.18 5.94.15.79-.56.43-.15-.07-.28-.01-.86.37-.46-.46.07-.15.15-.29.09-.17.1-.38M215.84 246.02c1.4-1.52.79-4.81-.26-6.15q-.04-.05.01-.09l.21-.16q.09-.07.16.01 2.69 2.66.92 6.02a1.63 1.63 0 0 1-2.83.09q-1.86-3.05.73-6.09.04-.05.09-.02l.22.13q.17.11.07.28-1.62 2.58-.41 5.77a.65.65 0 0 0 1.09.21"/><rect width=".9" height="5.68" x="-.45" y="-2.84" fill="#f6d40b" fill-opacity=".996" rx=".26" transform="rotate(-34.2 527.363 -308.653)"/><path fill="#f6d40b" fill-opacity=".996" d="M265.27 241.11q.32-.52.75-.22.27.19.1.47-.29.51-.72.26-.32-.19-.13-.51M287.4 245.24q-.56-.67-1.19-.83-.65-1.31-.77-1.47-1.85-2.5.65-.66 1.14.85 1.31 2.96"/><ellipse fill="#f6d40b" fill-opacity=".996" rx=".66" ry=".37" transform="rotate(132 89.891 185.092)"/><path fill="#f6d40b" fill-opacity=".996" d="M262.8 245.15q.14-.66.58-1.09.33-.32.28.14-.07.77-.59 1.13-.35.23-.27-.18"/><path fill="#036e05" fill-opacity=".996" d="M285.92 244.64q-.15.9-.85 1.54-.5.45-.36-.21.17-.86.84-1.52a.22.22 0 0 1 .37.19M287.4 245.24l-.78 5.39q-.03.19-.22.17l-.26-.03q-.24-.02-.23-.27l.3-6.09q.63.16 1.19.83M239.856 256.75a3.25 2.17 89.9 0 1-2.176-3.246 3.25 2.17 89.9 0 1 2.164-3.254 3.25 2.17 89.9 0 1 2.176 3.246 3.25 2.17 89.9 0 1-2.164 3.254m-.041-.31a2.95 1.2 90.3 0 0 1.215-2.944 2.95 1.2 90.3 0 0-1.185-2.956 2.95 1.2 90.3 0 0-1.215 2.944 2.95 1.2 90.3 0 0 1.185 2.956"/><path fill="#f6d40b" fill-opacity=".996" d="M272.118 263.51a3.4 2.13 90.2 0 1-2.118-3.407 3.4 2.13 90.2 0 1 2.142-3.393 3.4 2.13 90.2 0 1 2.118 3.407 3.4 2.13 90.2 0 1-2.142 3.393m-.037-.3a3.11 1.2 90.9 0 0 1.249-3.091 3.11 1.2 90.9 0 0-1.151-3.129 3.11 1.2 90.9 0 0-1.249 3.091 3.11 1.2 90.9 0 0 1.151 3.129"/><path fill="#036e05" fill-opacity=".996" d="M213.94 264.04q-1.57-2.1-3.01-4.21a.26.26 0 0 1 .33-.39q.2.09.42.16.42.12.61.5.87 1.77 2.34 3.19.31.3-.04.57l-.3.23q-.2.16-.35-.05"/><ellipse fill="#036e05" fill-opacity=".996" rx=".69" ry=".35" transform="rotate(-26.5 658.989 -323.697)"/><rect width=".92" height="6.66" x="-.46" y="-3.33" fill="#036e05" fill-opacity=".996" rx=".26" transform="rotate(-1.5 10172.395 -9519.986)"/><path fill="#036e05" fill-opacity=".996" d="M211.34 262.82a.37.37 0 0 1 .53.12q.16.28-.39.82a.36.36 0 0 1-.55-.06q-.28-.43.41-.88M280.15 269.62a3.32 2.15 90 0 1-2.15-3.32 3.32 2.15 90 0 1 2.15-3.32 3.32 2.15 90 0 1 2.15 3.32 3.32 2.15 90 0 1-2.15 3.32m-.032-.32a3.03 1.2 90.6 0 0 1.232-3.017 3.03 1.2 90.6 0 0-1.168-3.043 3.03 1.2 90.6 0 0-1.232 3.017 3.03 1.2 90.6 0 0 1.168 3.043M220.15 270.78q-.57 1.82.42 3.33.26.4.15.86-.42 1.72.66 2.96.32.37.4.85.17.92 1.07 1.16.63.17.53.81-.36 2.51.03 5.31.09.63-.54.6-.22-.01-.45-.01a.36.35-79.5 0 1-.32-.47q1.24-3.8-1.1-7.01-.28-.39-.75-.48-1.04-.2-2.12-.02a1.26 1.23 59.5 0 1-.99-.27c-1.64-1.36-1.48-4.93.48-5.97q.81-.43.24.29-1.19 1.52-.78 4.11.2 1.28 1.43 1.55a.51.5 5.5 0 0 .61-.5l-.09-9.84a.32.31-86.8 0 1 .35-.32l.3.03q.3.04.29.33l-.04 1.66q-.01.69.66.58.21-.03.35-.19a.54.54 0 0 1 .52-.14c2.05.59 2.25 3.8.29 4.38q-.67.19-.13-.25c1.36-1.12.72-3-.81-3.65q-.5-.21-.66.31M264.98 277.41a.01.01 0 0 1-.01.01l-.37.01a.58.23-1.2 0 1-.58-.22l-.13-6.2a.58.23-1.2 0 1 .57-.24l.37-.01a.01.01 0 0 1 .01.01zM259.97 274.72q-.12-.04-.25-.06-.12-.01-.13-.13-.11-1.4-1.22-2.29-.54-.44.16-.44h.37q.49.01.75.41l2.3 3.59q.51.8-.38.47-.66-.25-.95-.95-.18-.46-.65-.6M260.76 272.07q.25-.4.78-.26.42.11.11.4-.32.31-.73.24a.25.25 0 0 1-.16-.38"/><path fill="#f6d40b" fill-opacity=".996" d="M202.74 281.26a.71.71 0 0 0 1.28-.03q1.18-2.72-.16-5.44-.12-.22.12-.32l.32-.14q.06-.03.09.03 1.77 2.58.73 5.28c-.42 1.09-1.41 1.39-2.51 1.08a.93.93 0 0 1-.69-.87q-.09-2.36.13-4.7.04-.44.44-.61.62-.29.34.34-1.32 2.94-.09 5.38"/><path fill="#036e05" fill-opacity=".996" d="M258.79 275.34a.2.2 0 0 1 .31.15q.05.67-.64.77a.29.29 0 0 1-.21-.53z"/><ellipse fill="#036e05" fill-opacity=".996" rx=".66" ry=".32" transform="rotate(136 55.222 183.478)"/><path fill="#036e05" fill-opacity=".996" d="m219.1 280.74.68-1.6q.12-.29.44-.3.47-.02.47 1.06a1.21 1.19 64.9 0 1-.27.76q-.71.85-1.26.34a.24.23 32.2 0 1-.06-.26"/><path fill="#f6d40b" fill-opacity=".996" d="M252.61 289.36a.73.73 0 0 0-1.05.4q-.82 2.49-.07 4.94.18.6-.38.32-.26-.13-.39-.41-1.23-2.73.31-5a1.56 1.56 0 0 1 2.55-.05q1.22 1.64.62 3.8-.06.2-.27.18l-.32-.02q-.12-.01-.13-.13-.06-1.37-.11-2.7-.04-.93-.76-1.33M242.47 296.72c.35-1.31.03-3.59-.23-4.84q-.07-.34.28-.41l.45-.08a.32.32 0 0 1 .38.31l.04 5.63q0 .51-.51.46l-.4-.03q-.69-.07-.24-.59.17-.2.23-.45"/><path fill="#036e05" fill-opacity=".996" d="M215.18 299.7q.69-2.92 0-5.67a.42.41-12.3 0 1 .33-.51l.46-.08q.28-.05.29.23l.15 6.18q0 .21-.21.22l-.7.03q-.42.01-.32-.4"/><path fill="#f6d40b" fill-opacity=".996" d="M200.3 303.63a.04.04 0 0 1-.04.04l-.39.01a.61.23-1.1 0 1-.61-.22l-.12-6.18a.61.23-1.1 0 1 .61-.24l.39-.01a.04.04 0 0 1 .04.04zM220.692 305.02a3.36 2.15 90.3 0 1-2.132-3.371 3.36 2.15 90.3 0 1 2.168-3.349 3.36 2.15 90.3 0 1 2.132 3.371 3.36 2.15 90.3 0 1-2.168 3.349m-.03-.28a3.09 1.18 90.7 0 0 1.218-3.076 3.09 1.18 90.7 0 0-1.142-3.104 3.09 1.18 90.7 0 0-1.218 3.076 3.09 1.18 90.7 0 0 1.142 3.104M212.67 304.62q1.65 2.03 3.03 4.2.44.7-.35.47-.15-.04-.3-.03a.44.44 0 0 1-.37-.2l-2.63-3.93q-.14-.21.06-.36l.26-.19q.17-.12.3.04M214.55 304.97q.3-.16.62-.1.43.07.15.4-.3.37-.73.33-.23-.01-.22-.34a.37.35-14.4 0 1 .18-.29M211.95 310.3q.33 1.75-.27 3.61-.06.17-.23.13l-.25-.05q-.19-.04-.19-.24l.09-3.41q.01-.48.34-.83l.99-1.04q.41-.44.33.15-.06.5-.44.76-.48.34-.37.92M209.74 309.02a.76.75-85.2 0 0-.88.75l.01 3.76q0 1.28-.58.14-1.06-2.05.17-4.24.45-.81 1.43-.9.47-.05.8.29.42.44-.18.34z"/></svg>