<svg xmlns="http://www.w3.org/2000/svg" viewBox="0 0 382 382"><g fill="none" stroke="#666961" stroke-opacity=".996" stroke-width="2"><path d="M267.2 234.74q-1.66-.83-.78-.7M198.82 301.22q-.85-.05-1.1-.2" vector-effect="non-scaling-stroke"/></g><path fill="#cac4be" fill-opacity=".996" d="M281.19 106.18q.45-2.25-.56-4.41-.07-.15.08-.22l.24-.1q.05-.03.09.02 1.8 2.48.99 5.06-.06.19-.25.15l-.3-.07q-.36-.08-.29-.43M291.3 110.84q.24.11.22.32-.01.19-.2.16-.48-.07-.73-.48-1.07-1.73-.58-3.86a.26.26 0 0 1 .29-.2l.26.05q.36.05.32.41-.21 1.7.2 3.33a.42.4-85.8 0 0 .22.27M292.86 110.48l.3-2.34q.03-.17.21-.19l.35-.04q.28-.02.3.25.16 2.46-1.5 3.21-.85.39-.25-.33.11-.12.26-.17.29-.09.33-.39M287.52 131.27q.34-2.68.07-5.72-.03-.34.31-.34l.25.01q.27 0 .28.27l.22 6q.01.26-.25.28l-.39.02q-.57.05-.49-.52"/><rect width=".96" height="5.66" x="-.48" y="-2.83" fill="#cac4be" fill-opacity=".996" rx=".27" transform="rotate(-33.9 357.482 -418.816)"/><path fill="#cac4be" fill-opacity=".996" d="M295.14 126.29q.09-.29.42-.3a.33.33 0 0 1 .31.48q-.13.25-.44.24a.32.32 0 0 1-.29-.42M292.91 129.34a.26.25 70.3 0 1 .42.2q-.02.67-.7.91a.23.23 0 0 1-.3-.3q.17-.45.58-.81"/><path fill="#020d04" fill-opacity=".996" d="m298.15 139.12.24.3a.23.23 0 0 1-.19.37l-.97-.05q-.62-.03-.51-.63.44-2.64-.11-5.43-.13-.67.54-.54.13.02.26-.02.7-.21.59.52-.34 2.36-.15 4.73a1.35 1.32 23.8 0 0 .3.75"/><rect width=".88" height="6.62" x="-.44" y="-3.31" fill="#020d04" fill-opacity=".996" rx=".26" transform="rotate(-1.7 4967.005 -9752.29)"/><path fill="#020d04" fill-opacity=".996" d="M273.15 171.46q.17-1.13.53-.04.74 2.23-.66 4.27-.63.92-.47-.19z"/><rect width=".92" height="6.54" x="-.46" y="-3.27" fill="#cac4be" fill-opacity=".996" rx=".26" transform="rotate(-1.5 6977.77 -10846.142)"/><path fill="#cac4be" fill-opacity=".996" d="M281.28 180.77q-.33-.74-1.06-1.22-.57-.37.1-.42 1.38-.12 1.9 1.18.63 1.58 1.77 2.71.19.2 0 .39l-.3.28q-.09.09-.19.01-1.48-1.28-2.22-2.93M283.58 179.55q-.2.26-.53.33a.25.24 8.8 0 1-.27-.36q.17-.3.55-.37a.26.25-77.4 0 1 .25.4M280.73 182.48a.24.24 0 0 1 .4.24q-.13.5-.61.74a.3.3 0 0 1-.34-.48z"/><path fill="#020d04" fill-opacity=".996" d="M267.58 194.33q-.35 1.71.77 3.1.1.13-.03.22l-.23.17q-.13.09-.23-.02-1.76-1.89-1.1-4.38.12-.45-.09-.87l-.31-.58q-.42-.81.45-.54 1.13.36 1.32 1.72.05.35-.18.62l-.18.2q-.15.15-.19.36M268.95 191.83l-.28-.17q-.39-.23.06-.3.85-.11 1.29.57 1.81 2.85-.32 5.77-.04.06-.11.02l-.22-.13q-.22-.13-.11-.36 1.13-2.41.31-4.65-.17-.48-.62-.75"/><path fill="#cac4be" fill-opacity=".996" d="M275.96 200.11q.67-3.09-.04-5.73a.37.37 0 0 1 .29-.46l.5-.1q.37-.08.35.3-.18 2.88.19 5.91.1.84-.7.55-.14-.05-.3-.07-.36-.04-.29-.4"/><path fill="#020d04" fill-opacity=".996" d="M284.91 197.68q-.11-.22.11-.35l.24-.13q.05-.03.09.02 2.27 2.99.13 6.41-.08.14-.23.06l-.24-.12q-.22-.11-.11-.33 1.38-2.82.01-5.56"/><path fill="#020d04" fill-opacity=".996" d="M283.54 202.66q.14.4.52.63.81.49-.12.33-.21-.03-.4-.11t-.31-.24q-1.98-2.68.04-5.88.07-.13.21-.06l.22.12q.22.12.12.35-1.1 2.44-.28 4.86M256.97 201.46q.17.03 0 .05-.16.02-.27-.08-.02-.02.27.03M194.36 209.36q.16-.06.29.04.17.13-.01.24-.15.09-.3.01a.16.16 0 0 1 .02-.29M197.07 209.4q.01.16-.15.19-.13.03-.05-.08.18-.25.2-.11"/><path fill="#cac4be" fill-opacity=".996" d="M238.16 214.68q.73 1.28 1.32-.07 1-2.26.13-4.91-.06-.18.1-.28.12-.09.25-.05.13.03.19.15 1.47 2.46.23 5.03a1.72 1.71-48.8 0 1-2.98.2q-1.25-1.91-.29-4.61a.27.27 0 0 1 .34-.16l.24.09q.29.1.21.4-.71 2.52.26 4.21M257.61 220.19q-.62.21-.81.88-.16.56-.72.59-.74.03-.16-.42 2.22-1.74.16-3.33-.76-.59.21-.6.79-.01 1.14.72.4.84.45-.09.1-1.97-.26-4-.05-.26.21-.31l.41-.09q.49-.11.41.39-.27 1.65.33 3.25.17.45.02.91-.53 1.72.6 3.22.26.34-.15.44l-.56.14q-.18.04-.29-.1-.45-.57-.49-1.27a.38.38 0 0 0-.5-.33"/><path fill="#020d04" fill-opacity=".996" d="M281.17 231.86q.54 1.65 1.76 2.39.33.2.08.49l-.3.35q-.04.04-.09.01-1.58-.91-2.12-2.5-.34-.99-1.32-1.74-.86-.64-1.72-.33-.56.2-.39-.37.81-2.72-.02-5.44-.14-.47.3-.66.24-.1.49-.02.35.11.35.47l-.01 4.92a.83.81-76 0 0 .42.72q1.97 1.12 3.6.38.57-.26.27.29-.27.5-.85.46-.65-.04-.45.58M268.234 231.43a3.42 2.13 90.1 0 1-2.124-3.424 3.42 2.13 90.1 0 1 2.136-3.416 3.42 2.13 90.1 0 1 2.124 3.424 3.42 2.13 90.1 0 1-2.136 3.416m.11-.44a3.06 1.18 88.6 0 0 1.106-3.089 3.06 1.18 88.6 0 0-1.255-3.03 3.06 1.18 88.6 0 0-1.105 3.088 3.06 1.18 88.6 0 0 1.255 3.03"/><path fill="#020d04" fill-opacity=".996" d="M267.2 234.74q-1.66-.83-.78-.7.02-1.33-1.74-3.43-.62-.73.31-.47c1.76.49 1.76 2.5 3.09 3.75q.54.49-.17.67zM221.38 233.12q-.09-.11-.23-.19a.08.07-57.2 0 1-.02-.11q.3-.4.8-.46.69-.08.6.61-.38 2.61.23 5.25.19.79-.55.45-.15-.07-.3-.03-.65.17-.5-.48.46-2.08.24-4.42-.04-.36-.27-.62"/><path fill="#cac4be" fill-opacity=".996" d="M287.89 236.79q-.05.16-.13.31-.17.3-.2-.04-.07-.87.75-1.21.57-.23.37-.82-.38-1.07-1.32-1.87-.54-.45.16-.4 1.61.1 2.21 2.14.33 1.11-.81 1.14-.77.03-1.03.75M289.91 233.23q0-.31.31-.31a.27.26-81.7 0 1 .25.34q-.04.14-.16.21a.27.27 0 0 1-.4-.24"/><path fill="#020d04" fill-opacity=".996" d="M260.014 240.38a3.41 2.14 89.6 0 1-2.164-3.395 3.41 2.14 89.6 0 1 2.116-3.425 3.41 2.14 89.6 0 1 2.164 3.395 3.41 2.14 89.6 0 1-2.116 3.425m-.044-.35a3.11 1.2 90 0 0 1.2-3.11 3.11 1.2 90 0 0-1.2-3.11 3.11 1.2 90 0 0-1.2 3.11 3.11 1.2 90 0 0 1.2 3.11"/><path fill="#cac4be" fill-opacity=".996" d="M251.25 240.46a.01.01 0 0 1-.01.01h-.17a.76.61-1.3 0 1-.78-.59l-.12-5.46a.76.61-1.3 0 1 .74-.63h.17a.01.01 0 0 1 .01.01z"/><path fill="#020d04" fill-opacity=".996" d="M265.42 234q-.27.51-.85.45-.49-.04-.16-.42.43-.49.95-.24.14.07.06.21M279.94 233.77a.19.18-86 0 1 .18.22q-.11.61-.76.78-.45.12-.31-.33.22-.66.89-.67"/><path fill="#cac4be" fill-opacity=".996" d="M267.2 234.74q-.16 2.76.11 5.38.08.77-.57.5-.09-.04-.18-.04-.53.05-.46-.53.34-2.74.32-6.01-.88-.13.78.7M287.08 241.44q-.05-1.31-1.33-2.6-.2-.19-.01-.37.04-.03.09-.05.24-.08.46.09 1.4 1.06 2.15 2.82.27.65-.4.43zM288.47 238.79q.28-.25.39.1.14.49-.37.78-.37.21-.34-.21.03-.41.32-.67M255.51 244.95q-.34-1.56-1.01-2.49-.68-.94-.71.22-.03 1.5 1.72 2.27l.87 1.92a.47.46-28.5 0 1-.18.59l-.75.45q-.25.16-.37-.11l-1.35-3.07q-.19-.43-.3.02-.5 2.13.97 3.21.8.59-.16.34-.83-.21-1.54-.81-.41-.35-.42-.88l-.02-2.97a1.98 1.98 0 0 1 1.64-1.96q1.86-.33 2.53 1.43.61 1.61 1.73 2.97.23.28-.07.49l-.28.2q-.2.15-.33-.07-.79-1.22-1.97-1.75"/><path fill="#cac4be" fill-opacity=".996" d="M287.08 241.44q-.22.79-.64 1.29-.59.71-.65-.04-.03-.49 1.29-1.25M257.06 242.65q.09-.52.64-.46a.26.26 0 0 1 .17.43q-.24.27-.62.25-.22-.01-.19-.22"/><rect width=".94" height="5.64" x="-.47" y="-2.82" fill="#020d04" fill-opacity=".996" rx=".26" transform="rotate(-33.7 538.155 -248.638)"/><path fill="#020d04" fill-opacity=".996" d="M229.69 254.54a.15.14 83.2 0 1 .17.14q.03.43-.37.63-.83.44-.36-.37.18-.32.56-.4M226.94 258.97a.28.28 0 0 1-.48-.24q.15-.6.74-.88a.17.17 0 0 1 .23.2q-.14.5-.49.92M269.39 263.72q.34-2.47-.26-4.93-.19-.8.6-.56.04.02.1.01.59-.06.53.54-.29 2.75.11 5.31.08.52-.44.54l-.51.02q-.77.03-.33-.6.08-.12.16-.23.04-.05.04-.1M252.42 260.37q.83 1.63 1.86 3.07.15.21-.06.35l-.29.2q-.19.14-.32-.06l-2.89-4.22q-.52-.76.37-.5.87.26 1.33 1.16M252.92 259.91q.24-.48.77-.62.47-.13.27.32-.25.52-.77.65-.52.12-.27-.35M250.43 263.34q.35-.53.89-.8a.23.23 0 0 1 .32.3q-.32.73-1 .83-.47.07-.21-.33"/><path fill="#cac4be" fill-opacity=".996" d="M237.93 270.6a.03.03 0 0 1-.03.03l-.2.01a.79.33-1.7 0 1-.8-.31l-.18-6.13a.79.33-1.7 0 1 .78-.36h.2a.03.03 0 0 1 .03.03z"/><path fill="#020d04" fill-opacity=".996" d="M262.97 270.24q.2-1.33-.44-2.16-.3-.4-.01-.8l.52-.75a.34.34 0 0 1 .62.24q-.23 2.1.55 3.96.18.42-.03.83l-.68 1.33q-.31.61-.61 0-.12-.26-.02-.5.24-.55-.26-.86-.62-.39-1.29 0a.69.69 0 0 1-.99-.87q.5-1.21 1.45-2.38.06-.07.12-.01l.17.2q.06.07-.02.12-.85.66-.98 1.61a.64.63-88.1 0 0 .67.72l.54-.04a.75.75 0 0 0 .69-.64"/><path fill="#cac4be" fill-opacity=".996" d="M210.76 274.91a.01.01 0 0 1-.01.01h-.25a.76.22-1.3 0 1-.76-.2l-.14-6.12a.76.22-1.3 0 1 .76-.23l.25-.01a.01.01 0 0 1 .01.01zM227.94 277.46a.19.19 0 0 1-.2-.19l-.18-6a.5.38-1.7 0 1 .49-.4.5.38-1.7 0 1 .51.37l.18 6a.19.19 0 0 1-.18.2zM266.43 281.34q.05.11.14.19.55.56-.23.44-.34-.05-.65.05-.62.21-.49-.43.58-2.75.04-5.7-.07-.36.29-.4l.42-.05q.42-.05.4.37-.1 2.41-.08 4.86 0 .35.16.67"/><path fill="#cac4be" fill-opacity=".996" d="M234.006 283.77a3.23 2.18 89.9 0 1-2.186-3.226 3.23 2.18 89.9 0 1 2.174-3.234 3.23 2.18 89.9 0 1 2.186 3.226 3.23 2.18 89.9 0 1-2.174 3.234m1.097-4.828a1.05 1.05 0 0 0-1.048-1.052h-.12a1.05 1.05 0 0 0-1.052 1.048l-.006 3.24a1.05 1.05 0 0 0 1.048 1.052h.12a1.05 1.05 0 0 0 1.052-1.048z"/><path fill="#020d04" fill-opacity=".996" d="M237.64 289.55q.23-2.54-.23-5.01-.05-.29.23-.37l.58-.16q.37-.1.33.28-.33 3 .15 5.83.12.71-.56.48-.17-.05-.34-.05-.78.01-.31-.61.07-.08.1-.18.04-.1.05-.21"/><path fill="#cac4be" fill-opacity=".996" d="M211.59 289.77q.13.04.21.14a.44.44 0 0 1-.34.73q-.15-.01-.29-.03-.32-.04-.4.28-.51 2.05.68 3.51.09.11-.03.2l-.23.17q-.08.06-.16-.01-1.34-1.31-1.36-3.12 0-.47-.28-.85-1.88-2.62-.43-5.44a1.71 1.71 0 0 1 3.09.08q.48 1.08.63 2.29a2.1 2.06 25.3 0 0 .32.87q1.98 2.93-.17 6.07-.11.17-.28.06l-.24-.14q-.22-.13-.09-.35 1.44-2.47.24-4.92-.22-.43-.69-.31-.25.07-.38.35-.14.32.2.42m-1.07-.98.73-.41a.82.8-14.7 0 0 .41-.68q.03-1.52-.57-2.59a.77.77 0 0 0-1.41.19q-.66 2.47-.15 4.48.03.12.12.19.11.07.22.13.29.14.32-.18l.04-.68q.03-.3.29-.45M258.96 286.03q-.19-.11-.36-.26-.31-.25.08-.15c1.34.32 2.34 1.91 1.71 3.16q-.41.81-.56-.08l-.31-1.84q-.09-.54-.56-.83"/><path fill="#cac4be" fill-opacity=".996" d="M258.07 286.19q-.89 1.88-.5 4.42.07.48-.41.52-.25.03-.33-.21c-.51-1.6-.48-3.92.93-4.99q.69-.53.31.26"/><path fill="#020d04" fill-opacity=".996" d="M233.29 296.43a.01.01 0 0 1-.01.01l-.12.01a.81.62-1.9 0 1-.83-.6l-.18-5.45a.81.62-1.9 0 1 .79-.65h.12a.01.01 0 0 1 .01.01z"/><path fill="#cac4be" fill-opacity=".996" d="M198.82 301.22q-.85-.05-1.1-.2l.49-6.2q.02-.24.25-.26l.3-.02a.24.24 0 0 1 .26.25zM223.41 302.61q.05.12.15.21.37.32-.05.31h-1.01q-.68 0-.29-.56.37-.54.18-1.23-.62-2.3-.44-4.34.15-1.62 1.76-1.52l.94.06q1.99.13 1.66 2.1l-.43 2.64q-.09.5-.52.77l-.8.49q-.33.2-.22-.17.05-.19.21-.26.2-.1.3-.3.2-.38-.11-.66-.3-.28-.07-.62.99-1.48.15-2.85-.26-.43-.74-.53-.38-.07-.66.21a.85.84 61.4 0 0-.22.76q.45 2.42.14 4.82-.04.34.07.67"/><path fill="#020d04" fill-opacity=".996" d="M200.14 299.72q-.13-.26.14-.37l.24-.11q.07-.02.1.03 2.34 3.34-.18 6.45-.05.07-.13.02l-.21-.13q-.19-.12-.08-.32 1.5-2.76.12-5.57M197.72 301.02q.25.15 1.1.2-1.02 2.15.38 4.16.09.13-.07.14l-.48.05q-.12.01-.2-.1-1.46-2.06-.73-4.45"/><ellipse fill="#cac4be" fill-opacity=".996" rx=".99" ry=".23" transform="rotate(-16.9 1158.183 -569.078)"/></svg>