<svg xmlns="http://www.w3.org/2000/svg" viewBox="0 0 382 382"><path fill="#cacbb9" fill-opacity=".996" d="M282.21 98.56q.31-.17.21.17-.1.31-.38.47-.74.43-.25-.26.16-.24.42-.38"/><path fill="#064906" fill-opacity=".996" d="M291.81 108.48q-.65-.21-.44-.8.33-.91.9-.14l1.8 2.43q.42.58-.28.43-.96-.2-1.24-1.16a1.16 1.14 1.1 0 0-.74-.76"/><ellipse fill="#064906" fill-opacity=".996" rx=".6" ry=".32" transform="rotate(-41.7 289.555 -326.65)"/><path fill="#064906" fill-opacity=".996" d="M291.63 117.68q.3-.28.69-.33.97-.11.15.42-.27.18-.6.25a.53.53 0 0 0-.39.72q.51 1.23 1.41 2.26.67.76-.32.57-.2-.03-.38-.12-.4-.19-.52-.62c-.35-1.27-1.71-1.34-1.64-2.89q.03-.65.65-.47.16.05.26.16.32.38.69.05M289.7 120.56q.46-.32.44.25-.02.58-.67.82-.46.17-.33-.31.13-.47.56-.76M294.95 128.13q.41-2.86-.07-5.69-.07-.44.38-.4l.45.04q.26.02.23.28-.32 2.9.22 5.92.06.35-.29.38l-.39.04q-.62.05-.53-.57M284.61 135.87q.05-.51.64-.2a.35.34 29.3 0 1 .14.49q-.26.42-.59.16a.5.5 0 0 1-.19-.45M281.65 145.28q.02-.17.22-.1.1.03.08.15-.03.18-.18.13a.18.17-79.6 0 1-.12-.18M283.9 151.85q.38-.48.98-.59.52-.11.26.35-.27.47-.78.6a.59.58 65.4 0 0-.33.9l1.42 2.08q.12.19-.05.32l-.22.18a.37.37 0 0 1-.55-.09l-2.6-3.97q-.48-.73.36-.48.54.15.84.65t.67.05M282.69 154.83q-.08.43-.41.7-.64.5-.45-.29.1-.42.52-.66.43-.24.34.25M299.9 156.63a.19.19 0 0 1 .3-.09q.39.34-.13.33-.25 0-.17-.24M299.94 160.68a.19.19 0 0 1 .32.15q-.01.16-.17.2-.09.02-.15-.04-.17-.15 0-.31M284.81 170.33a.61.61 0 0 0 1.09.04q1.46-2.64-.1-5.53-.11-.23.1-.36l.21-.14q.05-.04.09.01 2.25 2.82.65 5.77a1.64 1.64 0 0 1-2.82.1q-1.77-2.77.34-5.74.11-.15.26-.06l.24.15q.08.04.04.11-1.45 2.73-.1 5.65"/><rect width=".96" height="5.5" x="-.48" y="-2.75" fill="#064906" fill-opacity=".996" rx=".27" transform="rotate(-36 427.621 -360.185)"/><path fill="#064906" fill-opacity=".996" d="M294.73 180.27a.26.26 0 0 1 .24.44q-.4.42-.9.55-.43.12-.25-.28.26-.59.91-.71M274.02 181.84q.28-.51.85-.7.43-.14.31.3-.14.51-.63.56a.62.61 75.4 0 0-.5.86q.55 1.28 1.45 2.2.44.46-.18.56l-.42.07q-.13.02-.2-.09l-2.73-4.09q-.37-.56.29-.44.72.13 1.16.79a.35.35 0 0 0 .6-.02"/><path fill="#cacbb9" fill-opacity=".996" d="M292.55 185.79c-1.98-.57-1.51-2.66-3.05-3.77q-.55-.39.09-.61.46-.16.89.1.51.31.74.85.65 1.55 1.7 2.88.67.86-.37.55"/><path fill="#064906" fill-opacity=".996" d="M272.27 184.61q.5-.21.37.32-.12.49-.56.73a.26.26 0 0 1-.38-.22q-.04-.59.57-.83"/><path fill="#cacbb9" fill-opacity=".996" d="M290.05 184.74q.55-.09.26.38-.31.5-.89.59-.44.07-.23-.32.3-.56.86-.65"/><path fill="#064906" fill-opacity=".996" d="M276.79 194.4q.73 1.79 1.48.01 1.26-2.94-.5-5.52-.38-.55.2-.22c2.12 1.18 2.07 4.24.99 6.04a1.62 1.62 0 0 1-2.84-.12q-1.48-3.01.17-5.16 1.08-1.41.51.28-.87 2.56-.01 4.69"/><path fill="#cacbb9" fill-opacity=".996" d="M287.77 197.21q2.24-3.25.1-6.3-.42-.59.23-.28c2.32 1.11 2.26 5.8-.17 6.78q-.42.17-.16-.2"/><path fill="#cacbb9" fill-opacity=".996" d="M287.2 190.83q-1.27 2.78-.44 5.08 1.11 3.1-.64.3-1.45-2.3.38-5.14.23-.36.65-.33a.06.06 0 0 1 .05.09M292.88 212.17q-.32-.66-.85-1.12-.49-.42.15-.38.56.04 1.01.26.47.23.38.81-.02.17-.04.32-.14 1.18-.65.11"/><path fill="#064906" fill-opacity=".996" d="M205.07 214.45q.15.57-.44.55l-.43-.02q-.4-.02-.32-.41.33-1.58.14-3.14-.05-.35.3-.33l.28.01a.29.29 0 0 1 .28.33q-.19 1.57.19 3.01"/><path fill="#cacbb9" fill-opacity=".996" d="M292.16 215.39a.22.22 0 0 1-.36-.25l1.24-1.85q.4-.6.17.08-.42 1.2-1.05 2.02"/><path fill="#064906" fill-opacity=".996" d="M257.46 214.11q.73-.54.51.35-.07.28-.35.35-.36.08-.36-.29-.01-.25.2-.41"/><rect width=".92" height="5.7" x="-.46" y="-2.85" fill="#064906" fill-opacity=".996" rx=".26" transform="rotate(-33.5 487.5 -318.151)"/><path fill="#cacbb9" fill-opacity=".996" d="m234.84 219.2.39-.24q.67-.43.28.26c-.6 1.05-2 1.23-2.77.27-1.93-2.44 1.12-5.41 2.96-3.25q.44.51-.23.38-.63-.12-1.14-.53a.63.62 47.6 0 0-.74-.04q-1.38.91-.28 2.79a1.09 1.09 0 0 0 1.53.36"/><path fill="#064906" fill-opacity=".996" d="M255.02 221.55a.18.18 0 0 1-.25-.05l-.1-.14a5.36.45 55.2 0 1-2.69-4.66l.16-.12a5.36.45 55.2 0 1 3.43 4.15l.1.15a.18.18 0 0 1-.04.25z"/><path fill="#064906" fill-opacity=".996" d="m255.38 217.25.05.54q.07.78-.61.4-.43-.23-.66-.79-.22-.57.39-.54l.43.01a.43.41-.7 0 1 .4.38M223.35 221.93l-2.69-4.08q-.19-.28.08-.48l.24-.17q.23-.16.38.08l2.77 4.2q.15.23-.09.38l-.25.16q-.27.17-.44-.09M223.71 217.39a.2.2 0 0 1 .26.25q-.19.62-.8.78a.3.3 0 0 1-.29-.51q.36-.36.83-.52M244.34 221.8q.45 1.37 1.57 2.33.58.49-.17.54-.16.01-.31-.02-.45-.06-.71-.44l-2.4-3.62q-.25-.38.21-.34.7.06 1.28.49.43.31.84-.03.21-.17.45-.28.94-.39.28.38-.28.34-.74.45a.42.41 74.7 0 0-.3.54M252.11 220.4q.37-.34.42.16.05.48-.35.81-.31.26-.37-.13-.07-.51.3-.84M220.37 221.4q.36-.45.9-.76.7-.4.37.33-.34.73-1.08.79-.53.04-.19-.36"/><path fill="#cacbb9" fill-opacity=".996" d="m230.47 220.69 2.95 4.26q.2.28-.11.46l-.32.17q-.17.09-.28-.07l-2.95-4.33q-.14-.19.05-.33l.29-.22q.22-.16.37.06M232.18 221.59q.09-.47.51-.68a.27.27 0 0 1 .39.27q-.04.49-.6.67-.38.13-.3-.26"/><ellipse fill="#064906" fill-opacity=".996" rx=".71" ry=".35" transform="rotate(-44.1 397.988 -187.405)"/><path fill="#cacbb9" fill-opacity=".996" d="M230.13 224.36a.22.22 0 0 1 .35.13q.11.52-.35.8-.69.43-.43-.34.12-.36.43-.59M257.84 232.27q.65-3.06-.06-5.93-.07-.28.21-.36l.4-.11a.36.35 80.5 0 1 .45.33l.15 6.11q.01.28-.28.29l-.58.02q-.36.01-.29-.35M277.07 234.21a3.37 2.15 89.5 0 1-2.18-3.351 3.37 2.15 89.5 0 1 2.12-3.389 3.37 2.15 89.5 0 1 2.18 3.351 3.37 2.15 89.5 0 1-2.12 3.389m1.044-5.164a1.04 1.04 0 0 0-1.044-1.036h-.1a1.04 1.04 0 0 0-1.036 1.044l.012 3.6a1.04 1.04 0 0 0 1.044 1.036h.1a1.04 1.04 0 0 0 1.036-1.044z"/><path fill="#064906" fill-opacity=".996" d="M222.53 235.07q.49-2.77-.12-5.47a.33.33 0 0 1 .25-.39l.57-.13q.41-.08.36.33-.33 2.85.16 5.86.06.37-.31.36l-.46-.01q-.54-.01-.45-.55M253.3 232.2l-1.78-2.58q-.2-.28.13-.36l.36-.1q.18-.04.3.1l1.22 1.54q.26.33.39.73.33 1.01 1.22 1.66.4.29.05.63-.17.17-.41.11-.87-.23-1.16-1.09-.11-.35-.32-.64M254.7 229.34a.23.22 3.4 0 1 .27.29q-.19.54-.79.75-.45.16-.29-.29.2-.61.81-.75M251.39 233.4q.31-.59.98-.8.48-.15.25.3-.31.61-.95.82-.55.18-.28-.32M289.78 234.8q.18.23-.1.33-.19.07-.24-.13-.04-.16.11-.25.14-.08.23.05M268.21 238.44q-.22.82-.16 1.72.03.47.43.72 1.04.64 1.82-.31.03-.04.07-.01l.21.16q.15.12.04.27-.71.97-1.82.95c-2.15-.04-2.25-4.07-.16-4.42q1.37-.22 2.21.76a.14.14 0 0 1-.06.22q-.21.08-.35.26-.53.72-.79-.13-.11-.35-.39-.55a.67.67 0 0 0-1.05.36"/><path fill="#cacbb9" fill-opacity=".996" d="M271.86 244.3q.57-3.1.05-6-.06-.34.29-.4l.26-.03a.36.35-5 0 1 .41.34l.11 6.1q.01.28-.27.29l-.57.02q-.34.01-.28-.32"/><path fill="#064906" fill-opacity=".996" d="M238.91 255.76a.19.19 0 0 1-.2-.19l-.16-5.87a.51.37-1.6 0 1 .5-.39.51.37-1.6 0 1 .52.36l.16 5.87a.19.19 0 0 1-.18.2zM216.08 258.23a3.37 2.13 89.5 0 1-2.16-3.351 3.37 2.13 89.5 0 1 2.1-3.389 3.37 2.13 89.5 0 1 2.16 3.351 3.37 2.13 89.5 0 1-2.1 3.389m-.03-.34a3.06 1.2 89.8 0 0 1.19-3.064 3.06 1.2 89.8 0 0-1.21-3.056 3.06 1.2 89.8 0 0-1.19 3.064 3.06 1.2 89.8 0 0 1.21 3.056"/><rect width=".9" height="6.56" x="-.45" y="-3.28" fill="#cacbb9" fill-opacity=".996" rx=".26" transform="rotate(-1.9 8260.074 -7410.57)"/><path fill="#064906" fill-opacity=".996" d="M285.5 267.35q-.66 1.93-.25 4.16.04.26-.21.34l-.26.07a.3.3 0 0 1-.37-.2q-.93-3.04 1.01-5.03.22-.23.54-.22.13.01.22.12.16.18-.07.23-.47.1-.61.53M287.29 269.15q.02-1.18-.59-2.19-.36-.61.26-.28c.87.47 1.21 1.77.55 2.55a.13.12-24.1 0 1-.22-.08M272.62 268.07q-.92 2.84.39 5.2.37.67-.27.25c-2.03-1.33-1.74-4.97-.09-6.27q.85-.68.38.3-.06.12-.17.2-.17.12-.24.32M273.92 273.24q1.59-2.97-.17-5.93-.1-.18.07-.28l.24-.15q.11-.07.18.03 2.64 3.37.11 6.79-.03.04-.08.02l-.24-.13q-.22-.13-.11-.35M221.29 269.43q.86 1.59 1.91 2.95.32.41-.19.5l-.35.06a.3.3 0 0 1-.31-.13l-2.65-4q-.61-.92.41-.5.73.3 1.18 1.12M222.66 268.34a.24.24 0 0 1 .3.3q-.18.54-.78.79-.43.18-.32-.28.15-.61.8-.81"/><path fill="#cacbb9" fill-opacity=".996" d="M207.63 277.17q.49-2.88-.07-5.65a.34.34 0 0 1 .24-.39l.46-.12q.46-.13.41.34-.28 2.95.24 5.86.08.42-.35.43l-.52.01q-.5.01-.41-.48"/><path fill="#064906" fill-opacity=".996" d="M219.38 272.67a.25.25 0 0 0-.19.37q1.86 3.35-.09 5.74a1.53 1.53 0 0 1-2.46-.12c-1.3-1.94-1.3-6.55 2.12-5.98q.53.08.82-.37.27-.41.69-.6.81-.39.26.33-.44.56-1.15.63m-1.456 6.32a3.1 1.2 90.3 0 0 1.216-3.094 3.1 1.2 90.3 0 0-1.184-3.106 3.1 1.2 90.3 0 0-1.216 3.094 3.1 1.2 90.3 0 0 1.184 3.106M282.52 272.5q.1-.28.32-.06.23.24-.1.32-.34.08-.22-.26"/><rect width=".94" height="6.58" x="-.47" y="-3.29" fill="#064906" fill-opacity=".996" rx=".26" transform="rotate(-1.5 11352.1 -8735.163)"/><path fill="#064906" fill-opacity=".996" d="M226.34 304.26q-1.54-2.12-2.83-4.14-.51-.8.39-.52.09.03.18.04.43.06.64.44.97 1.73 2.26 3.41.26.33-.1.55l-.4.25q-.08.05-.14-.03M226.38 299.58a.19.19 0 0 1 .21.23q-.1.4-.52.59a.21.21 0 0 1-.29-.2q.03-.54.6-.62"/><ellipse fill="#064906" fill-opacity=".996" rx=".55" ry=".35" transform="rotate(-44 487.486 -124.942)"/><path fill="#cacbb9" fill-opacity=".996" d="M234.78 303.36q.45-.09.87.12.51.25.01.53-.58.33-1.04-.12a.31.31 0 0 1 .16-.53"/><path fill="#064906" fill-opacity=".996" d="M215.25 308.87q.48 1.6.04 3.42-.26 1.13-.54 0-.42-1.67-.13-3.38.23-1.36.63-.04M212.21 310.63q-.56 1.17.39 2.25.64.74-.32.9l-3 .52q-.86.15-1.16-.68-.67-1.87-.08-3.83a1.94 1.93-56.3 0 1 3.35-.67q.4.5 1.03.57.75.08.16.55l-.2.16q-.11.1-.17.23m-2.04-.6q.12-.1.27-.12.77-.13.16-.62-.41-.33-.94-.19a.85.83-87.1 0 0-.58.54q-.46 1.34-.3 3.02.09.93.97 1.18a.75.74-73.5 0 0 .93-.51q.48-1.75-.53-2.76-.28-.28.02-.54"/></svg>