<svg xmlns="http://www.w3.org/2000/svg" viewBox="0 0 382 382"><path fill="#f7a706" fill-opacity=".996" d="m282.07 102.22.04 4.33q0 .17-.17.17l-.33.02q-.17.01-.18-.16l-.4-4.22q-.03-.37.34-.36h.47q.23 0 .23.22M298.26 112.6c.17-.59.08-1.27.1-1.87q.03-.87.37-.07.46 1.06.28 2.28a.31.31 0 0 1-.24.24q-.28.04-.53-.02a.19.18-66.9 0 1-.11-.28q.09-.13.13-.28M287.23 136.1q.05-.7-.23-1.33-.28-.6.38-.54.15.02.29.07.56.23.48.83-.45 3.13 1.93 5.54.47.48-.19.57-1.01.13-1.35-.76-.24-.63-.6-.07-.52.81-1.5.79-.68-.02-.17-.47 1.86-1.64.16-3.51-.54-.6.26-.46.2.04.39-.23.14-.2.15-.43"/><path fill="#f7a706" fill-opacity=".996" d="M288.86 136.88q.32-.21.68-.13.48.1.13.44-.4.38-.82.09a.24.24 0 0 1 .01-.4"/><rect width=".92" height="5.58" x="-.46" y="-2.79" fill="#f7a706" fill-opacity=".996" rx=".26" transform="rotate(-33.8 377.771 -420.39)"/><path fill="#f7a706" fill-opacity=".996" d="M296.59 140.71q-.06.31-.29.53-.58.53-.47-.25.05-.31.26-.54.72-.77.5.26M282.8 170.68q.58 1.5 1.55 2.67.16.19-.03.35l-.24.19q-.21.17-.37-.05l-2.9-4.18q-.58-.84.39-.52 1.15.37 1.6 1.54M283.67 169.16a.27.27 0 0 1 .37.27q-.06.55-.62.68-.45.1-.31-.33.14-.44.56-.62M280.55 173.05q.39-.33.85-.42.51-.1.23.33-.37.57-.97.48-.47-.08-.11-.39M278.51 177.58q-.19-1.58-.07-3.09a1.15 1.14-66.2 0 0-.36-.94q-.32-.29-.74-.24-.61.09-.88.65-.97 2.02.98 3.09.65.35-.07.52-.91.22-1.49-.56c-1.52-2.03.25-4.5 2.72-3.92a.78.77 5.3 0 1 .61.73l.18 5.68q.01.39-.36.27l-.59-.2q-.31-.11-.17-.4.34-.72.24-1.59M293.147 184.58a3.33 2.15 90.4 0 1-2.127-3.345 3.33 2.15 90.4 0 1 2.173-3.315 3.33 2.15 90.4 0 1 2.127 3.345 3.33 2.15 90.4 0 1-2.173 3.315m-.02-.22a3.12 1.19 90.8 0 0 1.233-3.103 3.12 1.19 90.8 0 0-1.146-3.137 3.12 1.19 90.8 0 0-1.234 3.103 3.12 1.19 90.8 0 0 1.146 3.137M285.19 181.12q.16-.2.41-.33.43-.23.91-.09.62.18.76.81.15.75-.25 1.36-.96 1.47-1.97 3.09-.3.47-.61.01l-2.27-3.35a1.21 1.21 0 0 1 .39-1.72q.94-.55 1.63.24.51.58 1-.02M275.715 196.76a3.52 2.12 89.1 0 1-2.175-3.487 3.52 2.12 89.1 0 1 2.065-3.553 3.52 2.12 89.1 0 1 2.175 3.487 3.52 2.12 89.1 0 1-2.065 3.553m.205-5.38q-.13 2.14-.05 4.04.05 1.14.49.08.94-2.28.08-4.21-.45-1.01-.52.09m-.93.36q-.15-.64-.39-.03-.59 1.53.01 3.07.27.71.43-.03.32-1.51-.05-3.01M283 201.37q.58-2.82-.08-5.99-.05-.24.19-.27l.67-.09q.23-.03.23.2l.13 6.32q0 .19-.18.17l-.77-.08q-.24-.02-.19-.26M257.67 202.63q-1.57-.05-1.8 1.37-.22 1.42.07 3.55.12.88.87 1.12.62.19.84-.42.92-2.57.02-5.62 1.74 1.4 1.22 4.34-.39 2.15-2.2 2.15a1.07 1.07 0 0 1-.88-.46q-1.74-2.47-.37-5.57.2-.45.65-.64 1.1-.46 1.56-1.75.34-.98.41.06.06.91-.39 1.87M262.39 202.28l2.82 4.03q.48.68-.35.64-.17 0-.32-.07-.32-.13-.47-.44-.98-1.97-2.38-3.59-.21-.25.05-.44l.27-.19q.22-.17.38.06"/><ellipse fill="#f7a706" fill-opacity=".996" rx=".75" ry=".37" transform="rotate(135 90.216 156.272)"/><path fill="#f7a706" fill-opacity=".996" d="M274.83 211.39q.37-3.15-.12-5.99-.07-.41.35-.42h.29q.35 0 .36.34l.24 6.01q.01.27-.26.28l-.62.03q-.27.02-.24-.25M262.39 205.62q.48-.31.33.24-.17.63-.78.85-.69.24-.29-.37.29-.43.74-.72M293.44 213.22a.22.22 0 0 1-.41.14q-1.54-2.96.57-5.22.96-1.03.42.27-.97 2.32-.58 4.81M241.54 216.77a.35.35 0 0 0 .61-.24l-.24-6.25q-.02-.67.45-.2c1.5 1.49 1.24 3.92.61 5.72a1.48 1.47-44.7 0 0-.01.96l.13.42q.23.7-.48.49-.81-.24-1.46-.82-3.52-3.12-.64-7.01.08-.12.21-.05l.23.13q.05.03.02.09-1.92 3.93.57 6.76M209.06 211.41l.83 1.73q.44.9-.38.33-1.11-.78-.77-2.03a.17.17 0 0 1 .32-.03M211.89 211.93q.37-.29.37.18-.01.81-.65 1.32-.66.54-.48-.29.17-.74.76-1.21"/><ellipse fill="#f7a706" fill-opacity=".996" rx=".78" ry=".4" transform="rotate(-1.6 7716.66 -7647.882)"/><path fill="#f7a706" fill-opacity=".996" d="M272.65 224.49q1.71-2.82.17-5.69-.42-.78.34-.33c1.94 1.15 1.36 4.67.28 5.98q-.21.26-.54.37-.56.18-.25-.33M271.68 218.8q-1.22 2.78.06 5.42.12.23-.11.35l-.25.13q-.05.02-.08-.02-2.21-2.91-.11-6.21.04-.06.11-.03l.27.1q.19.08.11.26M239.43 234.21a.81.81 0 0 0 1.52-.01q1.04-2.84-.4-5.45-.31-.56.24-.23c1.85 1.11 1.74 3.99.91 5.64a1.66 1.66 0 0 1-2.78.29c-1.06-1.34-1.46-4.94.62-5.91q.44-.21.2.22-1.45 2.54-.31 5.45M214.21 234.04l-2.64-4.09q-.42-.65.33-.48.13.03.26.05.51.07.72.53.81 1.78 2.12 3.3.28.33-.08.56l-.33.21q-.23.14-.38-.08M214.16 229.59a.28.28 0 0 1 .19-.03q.82.15-.27.74a.32.32 0 0 1-.44-.13q-.13-.25.52-.58M265.29 230.33q-1.42 2.11.29 5.28.12.22-.11.33l-.3.14q-.06.03-.09-.02-1.88-2.46-.99-5.24.41-1.26 1.73-1.34 1.42-.09 1.9 1.31.96 2.79-.88 5.23-.04.05-.09.02l-.28-.13q-.19-.09-.09-.27 1.38-2.58.33-5.17-.58-1.4-1.42-.14M212.08 232.74q.42-.1.26.3-.22.58-.87.73-.46.1-.27-.33.24-.55.88-.7M248.68 236.18q-.19-1.2 1.3-2.26.69-.48.31.27-1.39 2.77-.17 5.64.3.72-.37.33-.64-.37-.69-1-.13-1.49-.38-2.98"/><path fill="#f7a706" fill-opacity=".996" d="M251.65 234.96q-.12-.51-.56-.79-.86-.54.14-.34.39.08.63.4c1.08 1.45 1.67 5.61-.82 6.19q-.89.2-.09-.25.48-.28.63-.83.58-2.22.07-4.38M248.39 241a.09.09 0 0 1-.01.13l-.51.45a1.66.31 48.8 0 1-1.33-1.05l-3.16-3.61a1.66.31 48.8 0 1-.86-1.45l.51-.45a.09.09 0 0 1 .13.01zM256.93 240.13a.17.17 0 0 1-.24-.04l-2.53-3.65a1.09.33 55.3 0 1-.35-1.08l.23-.16a1.09.33 55.3 0 1 .89.71l2.53 3.65a.17.17 0 0 1-.04.23zM256.43 236.51q-.45.25-.38-.26.1-.65.76-.83.49-.12.29.34-.21.5-.67.75M247.14 235.96q-.11-.06-.16-.19-.08-.19.11-.25.28-.09.59-.05.49.06.21.47-.09.13-.17.27-.2.32-.44.03-.1-.11-.14-.28"/><path fill="#f7a706" fill-opacity=".996" d="m247.56 238.68-.05-1.5q-.03-.93.43-.12.5.9-.1 1.71-.26.36-.28-.09M243.39 240.36q-.09-1.1 0-2.17.01-.14.15-.14h.01q.15 0 .16.16.03 1.6.15 3.12.04.44-.4.5l-.33.04q-.9.12-.25-.51l.22-.22a.97.97 0 0 0 .29-.78M253.75 239.3q.21-.52.82-.67.44-.11.28.31-.22.57-.79.71a.26.26 0 0 1-.31-.35M217.94 243.5q-.11-.41.32-.47l.44-.07q.23-.03.26.2.35 3.22-.14 6.24-.04.23-.28.25l-.45.03q-.32.02-.23-.29.89-2.85.08-5.89M221.81 253.25c1.19-1.56.8-3.34.55-5.26q-.07-.56-.6-.74-.82-.27-1.08.55-1.11 3.51.71 5.74.03.03 0 .05l-.2.17q-.11.09-.22-.01-2.83-2.62-.91-6.12a1.54 1.54 0 0 1 2.46-.32c1.43 1.51 1.65 4.95-.46 6.22q-.85.51-.25-.28M222.06 260.16q.43 1.23.82-.01.18-.57-.37-.77-.53-.18-.48-.73.03-.28.35-.43a.45.44 49.5 0 1 .46.04c1.27.98 2.71.03 4.08 1.14q.9.72.33 1.79a1.35 1.34-49.6 0 0 .11 1.46q1.22 1.58-.57 2.32-1.58.65-3.86.43-.5-.05-.34-.52.69-2.01-1.12-3.94-.86-.92-1.59-2.4-.43-.86.44-.46 1.23.58 1.74 2.08m2.23-1.07q-.47-.02-.47.45l-.02 1.41a.99.99 0 0 0 1.33.94q1.66-.6 1.2-1.95-.14-.41-.55-.55-.75-.26-1.49-.3m-.34 3.48a1.07 1.04-32.4 0 0-.2.84q.5 2.84 2.39 1.15 1.03-.91.03-1.86-1.35-1.28-2.22-.13"/><rect width=".9" height="5.78" x="-.45" y="-2.89" fill="#f7a706" fill-opacity=".996" rx=".42" transform="rotate(-34.6 543.403 -257.926)"/><ellipse fill="#f7a706" fill-opacity=".996" rx=".67" ry=".36" transform="rotate(130.4 61.463 186.847)"/><path fill="#f7a706" fill-opacity=".996" d="M220.56 261.36a.16.15-11.4 0 1 .23.15q-.07.76-.83 1.02-.52.17-.25-.31.31-.57.85-.86M240.7 265.01q.13-.66.55-1.15.35-.4.33.13-.02.86-.59 1.22-.38.25-.29-.2M246.41 271.54q.09.22-.13.32l-.33.14q-.38.18-.49-.23-.45-1.7-1.53-3.3-.22-.33.14-.48l.46-.2q.11-.05.17.06.94 1.85 1.71 3.69M248.56 270.45q.93-.56 1.01-1.88.02-.37.35-.53.12-.07.27-.04.14.03.09.16l-1.52 3.73q-.31.76-.7.03-.11-.21-.11-.44 0-.52-.34-.92-.79-.91-.93-2.22-.08-.74.57-.39 1.02.56.71 2.07-.2.92.6.43M287.43 268.67a.05.05 0 0 1 .02-.08q.05-.02.1.01.05.04.07.1.1.31-.19-.03M221.884 276.41a3.41 2.13 90.1 0 1-2.124-3.414 3.41 2.13 90.1 0 1 2.136-3.406 3.41 2.13 90.1 0 1 2.124 3.414 3.41 2.13 90.1 0 1-2.136 3.406m-.01-.24a3.17 1.19 90.1 0 0 1.196-3.168 3.17 1.19 90.1 0 0-1.184-3.172 3.17 1.19 90.1 0 0-1.196 3.168 3.17 1.19 90.1 0 0 1.185 3.172M254.71 273.66q-.77-1.16-1.56-2.28-.36-.51.27-.52.7-.01 1.06.59 1.15 1.91 2.39 3.54.39.51-.25.46-.88-.07-1.28-.8-.18-.31-.63-.99M255.57 271.13q.32-.25.71-.23a.29.29 0 0 1 .15.52q-.37.27-.8.12-.41-.15-.06-.41"/><ellipse fill="#f7a706" fill-opacity=".996" rx="2.95" ry=".51" transform="rotate(55 -156.43 342.288)"/><path fill="#f7a706" fill-opacity=".996" d="M214.74 271.86a.24.24 0 0 1 .37.18q.04.35-.22.63a.37.36 49.5 0 1-.57-.05q-.24-.35.42-.76"/><rect width=".94" height="5.76" x="-.47" y="-2.88" fill="#f7a706" fill-opacity=".996" rx=".27" transform="rotate(-33.5 579.476 -266.771)"/><ellipse fill="#f7a706" fill-opacity=".996" rx=".9" ry=".31" transform="rotate(132.9 62.598 190.16)"/><path fill="#f7a706" fill-opacity=".996" d="M271.75 274.1a.01.01 0 0 1 .01-.01l.26-.01a.67.57-2.5 0 1 .69.54l.2 4.4a.67.57-2.5 0 1-.65.6l-.26.01a.01.01 0 0 1-.01-.01zM253.72 274.25a.17.16-19.8 0 1 .26.12q.05.68-.63 1.07-.45.26-.31-.24.16-.58.68-.95M202.09 275.59a.77.77 0 0 1 .81-.73l.37.03a2.96 2.52-86.7 0 1 2.34 3.1l-.05.93a2.96 2.52-86.7 0 1-2.69 2.81l-.37-.02a.77.77 0 0 1-.72-.81zm1.077 5.49a2.78.9 91.1 0 0 .953-2.763 2.78.9 91.1 0 0-.847-2.796 2.78.9 91.1 0 0-.953 2.762 2.78.9 91.1 0 0 .847 2.796"/><ellipse fill="#f7a706" fill-opacity=".996" rx=".65" ry=".32" transform="rotate(116 19.897 204.22)"/><path fill="#f7a706" fill-opacity=".996" d="M242.35 276.55q.46-.24.3.26-.22.68-.94.89-.58.17-.25-.34.34-.52.89-.81M264.06 281.47c-.35-1.58.76-3.05-.53-4.41q-.52-.53.23-.5.56.03.89.42.3.36.29.83-.06 2.67.01 5.3.01.14-.13.17l-.6.11q-.56.11-.32-.41.34-.71.16-1.51"/><path fill="#f7a706" fill-opacity=".996" d="M262.9 280.51q.13.03.26.05.68.15.07.49c-.67.38-1.6.12-1.92-.61q-1.01-2.35 1.24-3.84.15-.1.25.04v.01q.13.18-.05.3-1.58 1.05-.65 2.97.25.5.8.59M268.31 280.79l-.88-.98q-.59-.66.28-.51 1.33.23 1.73 1.78a.73.72 65 0 1-.28.78l-.6.42q-.59.42-.27-.23l.15-.31q.26-.52-.13-.95"/><ellipse fill="#f7a706" fill-opacity=".996" rx=".79" ry=".3" transform="rotate(-37.8 543.758 -254.631)"/><path fill="#f7a706" fill-opacity=".996" d="m232.32 287.84-2.78-4.16q-.19-.28.15-.34l.33-.05a.53.51-20.8 0 1 .51.22l2.64 4q.22.33-.17.41l-.34.06a.34.33-21.6 0 1-.34-.14"/><ellipse fill="#f7a706" fill-opacity=".996" rx=".71" ry=".35" transform="rotate(-37.6 533.21 -199.39)"/><path fill="#f7a706" fill-opacity=".996" d="M213.86 290.44q.66-2.95-.17-5.76-.15-.5.37-.43l.47.06a.27.26 2.6 0 1 .23.25l.29 6.05a.27.27 0 0 1-.25.28l-.51.04q-.54.03-.43-.49M230.39 286.59q.46-.22.28.26-.25.65-1.01.88-.56.16-.23-.32.36-.53.96-.82M228.06 297.57a3.33 2.15 90 0 1-2.15-3.33 3.33 2.15 90 0 1 2.15-3.33 3.33 2.15 90 0 1 2.15 3.33 3.33 2.15 90 0 1-2.15 3.33m-.037-.33a3.05 1.2 90.7 0 0 1.237-3.035 3.05 1.2 90.7 0 0-1.163-3.065 3.05 1.2 90.7 0 0-1.237 3.035 3.05 1.2 90.7 0 0 1.163 3.065M233.96 299.29q.63-3.1-.05-5.77-.12-.47.35-.59.23-.06.45.02.45.18.41.67-.28 2.96.12 5.57.1.66-.54.45-.18-.06-.36 0-.48.14-.38-.35M232.11 303.94q0-.31.21-.53.15-.17.37-.14.69.11.1.48-.71.45-.72 1.25-.01.53-.47.79-.4.23-.81.46-.89.51-.2-.25.15-.18.23-.4.16-.45-.15-.82l-.93-1.1q-.51-.6.29-.6.63.01.88.63.18.46.63.63a.43.43 0 0 0 .57-.4"/></svg>