<?xml version="1.0" encoding="UTF-8"?>
<svg id="Phil" xmlns="http://www.w3.org/2000/svg" xmlns:xlink="http://www.w3.org/1999/xlink" viewBox="0 0 128 128">
  <defs>
    <style>
      .cls-1 {
        clip-path: url(#clippath);
      }

      .cls-2 {
        fill: none;
      }

      .cls-2, .cls-3 {
        stroke-width: 0px;
      }

      .cls-4 {
        clip-path: url(#clippath-1);
      }

      .cls-3 {
        fill: #5d874a;
      }
    </style>
    <clipPath id="clippath">
      <rect class="cls-2" x="7.64" y="11.25" width="97" height="95"/>
    </clipPath>
    <clipPath id="clippath-1">
      <rect class="cls-2" x="7.64" y="11.25" width="97" height="95"/>
    </clipPath>
  </defs>
  <g id="Phil-2" data-name="Phil">
    <g class="cls-1">
      <g class="cls-4">
        <path class="cls-3" d="M20.04,29.97c.32-.19.76-.38,1.29-.56-.53.18-.97.37-1.29.56-1.23.69-2.13,1.72-2.76,2.9-.07.34-1.19,1.23-.61,1.44h0c-.58-.21.54-1.1.61-1.44.63-1.18,1.53-2.21,2.76-2.9M20.48,31.88s.07-.08.1-.12c-.04.04-.08.08-.1.12-.11.13-.2.27-.28.42-.33.51-.82.88-1.15,1.4-.06.05-.07.13-.03.2,0,0-.01.01-.02.02-.05.06-.05.15.01.2t0,0c-.07-.06-.06-.15-.01-.2,0,0,0-.01.02-.02-.03-.06-.03-.15.03-.2.33-.52.82-.89,1.15-1.4.08-.15.17-.29.27-.42M27.85,30.85h0c-.07-.03-.11-.1-.08-.17.17-.28.07-.55-.14-.78-.04-.04-.08-.09-.13-.12.04.04.08.08.12.12.21.23.31.5.14.78-.03.07.01.15.08.17M28.89,28.06c.87,0,1.74-.04,2.61-.11-.87.06-1.74.1-2.61.11-.1.03-.31.02-.56-.02-.05,0-.11-.02-.16-.03.06.01.11.02.16.03.25.04.46.05.56.02M35.59,28.34c.12-.06.23-.12.35-.18-.12.06-.24.12-.36.18-.47.19-2.61,1.66-2.08,2.11,0,0,0,0,0,0-.53-.45,1.61-1.91,2.08-2.11M46.53,25.64c.97-.24,1.93-.5,2.9-.73-.97.24-1.93.49-2.9.73-1.9.51-3.92.42-5.84.89-.48.1-.97.19-1.45.29.49-.09.97-.19,1.46-.28,1.92-.47,3.94-.38,5.84-.89M54.69,34.91c-.58-.57-1.07-1.21-1.46-1.92-.44-.81-1.01-1.55-1.25-2.43-.07-.12-.03-.27.09-.34.01,0,.02-.01.04-.02-.01,0-.03.01-.04.02-.12.08-.16.23-.09.35.25.88.81,1.62,1.25,2.43.39.71.89,1.35,1.46,1.92M53.36,17.27c.08-.03.16-.07.26-.12-.1.05-.18.09-.26.12-1.46.78-2.79,1.76-3.82,2.99-.06.1-.2.27-.25.41,0,.01,0,.02,0,.03,0-.01,0-.02,0-.03.05-.15.19-.31.25-.41,1.03-1.24,2.36-2.22,3.82-3M53.72,37.37c.05.04.11.08.16.12-.05-.04-.1-.08-.16-.12-.86-.75-1.5-1.74-1.92-2.75-.87-1.47-1.82-2.89-2.56-4.43-.15-.51-.68-.8-.89-1.2.05-.25.19-.32.36-.28-.18-.04-.31.03-.37.28.22.41.74.69.89,1.2.74,1.54,1.69,2.96,2.56,4.43.42,1.02,1.05,1.99,1.92,2.75M58.79,65.23c-.18-.03-.36-.05-.54-.09-2.11-.63-4.09-1.6-6.09-2.47-1.67-.92-3.23-1.99-4.9-2.89,1.66.91,3.22,1.97,4.89,2.89,2.01.87,3.98,1.84,6.09,2.47h0c.18.03.36.06.54.09M59.4,17.91c.11-.05.23-.11.34-.16-.12.05-.23.1-.35.16-.53.26-1.05.53-1.54.84-.48.3-.95.61-1.4.94-.25.18-.49.37-.73.56-.21.17-.43.35-.62.54-.19.2-.37.41-.55.61-.19.2-.39.4-.58.6-.2.2-.39.42-.57.64-.17.21-.32.43-.48.64-.39.49-.86.98-1.35,1.46-.18.17-.37.33-.58.49-.07.05-.15.1-.22.15-.08.04-.18.1-.3.15-.05.02-.1.03-.15.05h0c.05-.01.1-.03.15-.05.12-.05.22-.1.3-.15.08-.05.15-.1.22-.15.21-.16.4-.33.58-.49.48-.48.96-.98,1.35-1.46.16-.21.31-.43.48-.64.18-.22.37-.43.57-.64.19-.2.39-.4.58-.6.19-.2.36-.41.55-.61.19-.19.4-.37.62-.54.24-.19.48-.38.73-.56.45-.33.92-.64,1.4-.94.49-.31,1.01-.58,1.54-.84M62.81,19.29c.25-.08.51-.15.78-.21-.26.06-.52.13-.78.21-1.23.38-2.38,1-3.38,1.74-1.21.81-2.48,1.56-3.46,2.62-.9.79-1.83,1.66-2.43,2.68-.13.21-.48.64-.24.83-.23-.19.13-.62.25-.83.6-1.03,1.53-1.9,2.43-2.69.98-1.06,2.25-1.81,3.46-2.62,1-.74,2.16-1.36,3.38-1.75M63.72,86.73s-.04,0-.06-.01c-.04-.01-.08-.03-.11-.06-.06-.05-.11-.12-.12-.2-.03-.84-.16-1.66-.33-2.48,0,0,0,0,0,0,.17.82.3,1.63.33,2.47,0,.08.05.15.12.2.03.03.07.05.11.06.02,0,.04.01.06.01M64.43,16.64c.08,0,.16,0,.23,0-.08,0-.16,0-.24-.01-.28,0-.56,0-.85.03-.28.03-.56.09-.83.16.27-.07.55-.14.83-.16.28-.03.56-.03.85-.03M66.17,80.74c-.2-.06-.4-.14-.6-.22-.17.02-.34-.08-.36-.25,0-.06,0-.12.04-.18-.04.05-.05.11-.04.18.02.17.19.27.36.25.2.08.4.16.6.22M67.22,62.19c-.55-.27-1.08-.57-1.6-.89-.08-.02-.15-.05-.2-.08.05.04.11.07.19.09.52.33,1.05.63,1.61.89M77.4,26.51s-.04-.03-.06-.04c-.02-.02-.03-.04-.05-.06-1.31-2.06-3.24-3.74-5.39-5.07-.11-.05-.22-.11-.33-.16.11.05.22.1.33.16,2.14,1.33,4.08,3.01,5.39,5.07.01.03.03.05.05.06.02.02.04.03.06.04M80.95,33.12s.08,0,.12,0c-.04,0-.08,0-.13,0-.57.11-1.13.26-1.65.5-3.42,1.46-6.71,3.33-10.39,4.18-.5.09-1.01.17-1.52.23.51-.06,1.02-.14,1.52-.23,3.68-.85,6.97-2.71,10.39-4.18.53-.23,1.08-.39,1.65-.5M83.04,32.81c.06-.23.13-.46.21-.68-.09.22-.15.45-.22.68-.03.34-.51,1.07.01,1.22h0c-.52-.15-.04-.88-.01-1.22M83.34,34.4c.31-.11.62-.22.94-.31-.32.1-.64.2-.95.31-1.53.39-2.52,1.63-4,2.15-3.23.7-5.83,2.78-8.91,3.81-.32.14-.64.31-.97.42-.06,0-.1.02-.13.05,0,0,0,0,0,0,.03-.03.07-.05.13-.05.33-.12.65-.29.97-.42,3.09-1.03,5.68-3.11,8.91-3.81,1.48-.52,2.47-1.76,4-2.15M84.27,30.5c.1-.05.21-.09.31-.12-.11.03-.21.07-.32.12-.19.1-.38.28-.3.47-.07,0-.14.06-.13.15,0,.01,0,.03-.01.05-.02.02-.04.04-.06.06.02-.02.04-.04.06-.06h0s0-.03.01-.05c0-.09.06-.14.13-.14-.08-.19.11-.37.3-.47M88.1,29.33s-.08-.07-.11-.11c-.08-.08-.15-.16-.22-.25-.18-.19-1.2-1.71-.97-2,0,0,0-.01-.02-.02,0,0,0-.01,0-.01-.05-.06-.05-.14-.02-.2,0,0,0,0,0,0-.02.07-.02.14.02.2,0,0,0,0,.01.01,0,0,0,.01.01.02-.23.29.79,1.81.97,2,.07.09.14.17.23.25.03.04.07.08.11.11M88.35,30.16c-.18.03-.36.06-.53.09-.16.02-.32.04-.48.05-.35.03-.71,0-1.07-.01-.23-.01-.47-.03-.7-.03-.03,0-.06,0-.09,0,.62,0,1.26.09,1.87.04.16-.01.32-.03.48-.05.18-.03.36-.05.53-.09M88.63,23.7c0-.14,0-.27-.03-.4-.04-.2-.11-.4-.22-.59-.01-.03-.03-.06-.05-.09.02.03.04.06.05.09.1.19.18.38.22.59.02.13.03.26.03.39-.08.8-.81,1.42-1.21,2.1-.07.1-.25.22-.42.36t0,0c.17-.14.35-.26.42-.36.41-.68,1.13-1.3,1.21-2.1M91.95,64.63s.02-.03.04-.04c-.02.01-.03.03-.04.04-.32.49-.63,1-1.02,1.45-.16.2-.33.39-.5.56.18-.18.35-.37.51-.57.4-.45.71-.96,1.02-1.46M91.98,48.79h0c-.2.35-.33.74-.23.97-.02.1-.05.21-.07.32h0c-.42,1.46-.81,2.95-1.36,4.37-.5,1.53-1.08,3.14-2.35,4.32-.03.02-.06.05-.09.08.03-.03.07-.05.1-.08,1.27-1.18,1.84-2.79,2.35-4.32.55-1.42.93-2.91,1.36-4.36h0c.02-.11.04-.22.07-.33-.1-.23.03-.62.23-.97M92.64,32.29s-.01-.03-.02-.04c-.09-.31-.27-.57-.48-.81t0,0c-.05-.04-.11-.08-.16-.13.05.04.11.09.16.13.21.24.39.5.48.81,0,.02.02.03.02.04M93.09,35.35c.01-.15-.01-.28-.07-.4-.02-.06-.06-.12-.11-.17.04.05.08.11.11.17.05.12.08.26.07.4h0c-.17.66-.75,1.2-1.11,1.81-.66,1.18-.95,2.48-1.24,3.77-.29,1.7.17,3.43.88,5.01.06.14.12.28.19.42.07.14.14.27.23.39-.08-.13-.15-.26-.23-.39-.07-.14-.13-.28-.19-.42-.7-1.58-1.16-3.31-.88-5.01.29-1.29.58-2.59,1.24-3.77.36-.61.95-1.14,1.11-1.8h0ZM94.13,24.16c.14-.09.26-.29.39-.45-.13.16-.25.35-.39.44-.36.47-.88.83-1.45,1.04-.04.02-.09.03-.13.05.05-.01.09-.03.13-.05.58-.2,1.09-.57,1.45-1.04M94.6,65.6s.02-.03.03-.04c-.01,0-.02.02-.03.04-.41.56-.89,1.08-1.41,1.56-.08.07-.13.17-.1.27.02.04.05.08.08.1,0,.01.02.02.03.03,0,0-.02-.02-.03-.03-.03-.03-.05-.06-.07-.1-.02-.1.02-.2.1-.27.52-.47,1-.99,1.41-1.55M95.33,22.34c.04-1.11.41-2.25.13-3.34h0c.28,1.09-.09,2.23-.13,3.34,0,.41-.33.75-.43,1.14h0c.1-.39.42-.74.43-1.14M95.7,84.21c.06-.27.18-.52.33-.76-.15.23-.27.48-.33.76-.02.08-.06.16-.11.23.05-.07.09-.15.11-.23M96.91,25.17s-.03-.05-.05-.07c-.25-.38-.42-.83-.58-1.21-.01-.11-.1-.25-.15-.38h0c.06.13.14.27.15.38.17.38.34.83.59,1.21.01.03.03.05.05.07M97,47.79s-.07.02-.11.04c-.32.45-.46.98-.68,1.48-.08.29-.35.6-.18.89.02.03.04.05.07.07-.02-.02-.04-.04-.06-.07-.17-.29.1-.6.18-.89.22-.49.36-1.03.68-1.47.04-.02.07-.03.1-.04M96.91,46.17s.03,0,.05,0c0,0,0,0-.01,0-.01,0-.02,0-.04,0-.02,0-.04.01-.05.03-.02.01-.03.03-.04.04-.49,1.02-1.29,1.88-2.07,2.73-.61.54-1.14,1.16-1.72,1.74-.05.06-.02.15.04.19,0,0,.01,0,.02.01,0,0-.01,0-.02-.01-.07-.04-.09-.13-.04-.19.58-.57,1.11-1.19,1.72-1.74.78-.85,1.57-1.71,2.07-2.73,0-.02.02-.03.04-.04.02-.01.03-.02.05-.03M97.97,61.32c-.15.03-.27.01-.37-.08-.16-.15-.17-.41,0-.56.37-.3.73-.61,1.08-.94-.35.32-.71.64-1.09.94-.18.15-.16.41,0,.56.1.1.23.11.38.08M98.37,52.91s.04-.06.07-.09c-.03.02-.05.05-.07.09-.35.93-.81,1.76-1.57,2.48-.1.11-.1.28.03.38t0,0c-.12-.1-.13-.27-.02-.38.75-.72,1.22-1.56,1.57-2.48M99.05,70.96s0,0,0,0c-.03.55,0,1.1.06,1.66-.15,2.21-.76,4.39-1.34,6.55-.22.97-.63,1.95-.8,2.95h0s0,0,0,0c.17-.99.58-1.98.8-2.95.58-2.16,1.19-4.33,1.34-6.55-.06-.56-.08-1.11-.06-1.67M100.17,28.43s0,0,0,0h0c-.13-.11-.17-.28-.12-.42-.11-.12-.23-.23-.37-.33.13.1.26.21.37.33-.05.15,0,.31.12.42,0,0,0,0,0,0,0,0,0,0,0,0-.16.58-.55,1.14-.8,1.69-.27.91-.88,1.7-1.21,2.6-.32.94-.3,1.93-.64,2.87-.26.68-.61,1.32-.91,1.99,0,.02-.02.03-.02.05-.43.5-.88,1.71-1.01,1.96-1.04,2.55-1.05,5.46-2.27,7.91t0,0c1.22-2.45,1.24-5.37,2.27-7.91.12-.25.58-1.46,1.01-1.96,0-.02.02-.04.02-.05.3-.67.65-1.31.91-1.99.34-.94.32-1.93.64-2.87.34-.89.95-1.68,1.21-2.6.25-.55.64-1.11.8-1.69M100.65,35.21c.03-.07.11-.12.19-.1-.01,0-.02,0-.03,0-.07,0-.14.05-.16.11-.16.51-.1,1.04-.12,1.56.02.17-.22.52.06.6h0c-.28-.08-.04-.43-.06-.6.01-.52-.05-1.05.12-1.56M101.72,38.64c.05-.06.11-.08.18-.07-.01,0-.03,0-.04,0-.05,0-.1.02-.14.08-.23.38-.54.71-.83,1.05-.09.05-.1.17-.02.23t0,0c-.08-.06-.07-.18.02-.23.29-.34.59-.67.83-1.06M102.47,56.41s0,0,0,.01c-.13,1.25-.27,2.51-.5,3.76-.57,2.26-1.36,4.49-1.96,6.76-.39.91-.67,1.84-.83,2.78,0,0,0,0,0,0,0,0,0,0,0,0-.35.38-.66.77-1,1.13.34-.37.65-.75,1-1.13h0s0,0,0,0c.16-.94.44-1.87.83-2.78.6-2.26,1.39-4.49,1.96-6.76.24-1.25.37-2.51.5-3.77M103.46,46.34c-.04-.87-.43-1.69-.64-2.54,0,0,0,0,0,0,.21.85.59,1.66.64,2.53-.31.2-.76.95-.89,1.08-.35.47-.68.96-1.01,1.45-.05.08-.04.18.05.23,0,0,.02,0,.02.01,0,0-.01,0-.02-.01-.08-.05-.1-.15-.05-.23.32-.49.66-.97,1.01-1.45.13-.13.58-.88.89-1.08M102.37,37.11c.15-2.9,1.33-5.72.98-8.63v-.02s0,0,0,0v.03c.35,2.91-.83,5.73-.98,8.63-.05.82.31,1.56.84,2.21.05.07.08.15.12.23-.41.36-.3,1.14-.45,1.64-.15.65-.22,1.45-.15,2.14-.33.29-.6.64-.86.97-.27.33-.49.69-.7,1.06-.06.11,0,.25.11.3,0,0,.02,0,.03.01,0,0-.02,0-.02-.01-.12-.05-.17-.19-.11-.3.21-.36.43-.73.7-1.06.27-.33.54-.68.86-.97-.07-.69,0-1.49.15-2.14.15-.5.04-1.29.45-1.65-.03-.08-.07-.16-.12-.23-.52-.64-.88-1.39-.84-2.21M103.45,46.92s0,0,0,0c0,2.35-.33,4.68-.7,7,0,.05-.01.1-.02.15-.08.09-.13.21-.16.31-.59,1.29-1.27,2.5-2.23,3.64-.38.45-.78.88-1.21,1.3.43-.41.83-.85,1.21-1.29.96-1.14,1.64-2.35,2.23-3.64.03-.1.08-.22.16-.31t0,0c0-.05.01-.1.02-.15.38-2.32.7-4.66.71-7.01M104.35,42.79c-.12,1.04.33,2.03.29,3.07-.48,5.21-1.3,10.38-2.09,15.56-.57,2.99-1.57,5.86-2.48,8.76-.06,2.07-.22,4.15-.52,6.21-.35,2.37-1.84,4.5-1.64,6.89.2,1.49.45,2.97.62,4.46.08.43.32,1.47-.11,1.58-.05.06-.13.09-.24.06-5.13,2.22-9.97,5.38-14.76,8.2-2.66,1.78-5.47,3.44-8.62,4.37,0,0,0,0,0,0,0,0,0,0,0,0-2.66,1.1-5.28,2.31-8.13,2.94-1.38.41-2.8.81-4.24,1.1-.04-.03-.1-.04-.15-.03-.09.03-.18.05-.27.08-.07-.04-.15-.06-.23-.04-.08.02-.15.03-.23.05-.1.02-.19.04-.29.06-.09.02-.19.04-.28.05-.17.03-.35.05-.52.07,0,0-.02,0-.02,0-.27.02-.53.02-.8.02-.14,0-.29,0-.43,0-.15,0-.29-.01-.44-.03-.13-.02-.27-.04-.4-.06h0s0,0-.01,0c0,0,0,0,0,0-.02,0-.03,0-.05-.01-.07-.02-.14-.05-.21-.07-.25-.1-.49-.19-.74-.28h0s0,0,0,0c-.08-.03-.17-.06-.25-.1-.03-.01-.06-.03-.09-.04h0s-.05-.02-.08-.03c-.03-.01-.05-.02-.08-.03h0s-.03-.05-.05-.07c-.02-.03-.05-.05-.07-.07-.08-.08-.17-.16-.25-.25-.09-.1-.17-.19-.24-.3-.05-.08-.1-.15-.14-.23-.02-.03-.03-.06-.05-.09h0s0,0,0,0h0s0,0,0,0h0s0,0,0,0c0,0,0,0,0,0h0s0,0,0,0c0-.02-.02-.03-.02-.05-.04-.08-.08-.16-.11-.24t0,0s0-.01,0-.02c-.01-.04-.02-.07-.03-.1,0-.1,0-.19,0-.29,0-.24.03-.49.07-.73.04-.22.08-.45.1-.68.03-.24.05-.49.08-.73,0,0,0,0,0-.01h0s0-.02,0-.02h0c.06-.4.16-.79.26-1.19.12-.47.28-.93.44-1.39.06-.15.12-.31.19-.46.07-.16.14-.31.22-.47.18-.37.38-.73.56-1.1.04-.07.04-.15.02-.22.23-.57.42-1.14.55-1.73.45-1.15.67-2.35.73-3.57.08-1.11-.39-2.16-.13-3.24.69-1.36,1.55-2.73,2.66-3.83.11-.09.21-.24.32-.4.11-.1.23-.21.34-.32.01-.01.03-.03.04-.04.01-.01.03-.03.04-.04.07-.08.15-.15.22-.23,0,0,.02-.02.03-.03.06-.06.12-.13.18-.19.06-.06.13-.13.17-.21,0,0,0,0,0,0,.04-.04.06-.07.07-.13h0c.01-.06-.02-.13-.08-.16,0,0-.02,0-.02-.01-.16-1.74-.36-3.42-.59-5.15-.09-1.37-.34-2.72-.52-4.08-.04-.9-.16-1.8-.51-2.64-.26-.7-.61-1.36-1.04-1.99-.04-.04-.06-.09-.06-.14-2.67-2.54-6.88-3.28-10.6-3.11-2.29.12-4.59.67-6.81.03-.07.02-.15.02-.23-.02-.1-.05-.2-.11-.3-.16h0c-.34-.12-.74-.27-.95-.56,0,0,0,0,0-.01-2.11-1.36-3.9-3.13-6.11-4.35-4.03-3.06-8.73-5.58-14.02-6.06-1.99-.2-4.01-.4-5.92-.96-.1-.03-.24-.06-.34-.13-.03,0-.06,0-.08-.02-3.28-1.2-5.55-4.35-6.11-7.49-.22-1.07.24-2.14.27-3.2,0-1.09-.29-2.13-.75-3.12-.03-.06-.07-.11-.11-.16,0,0,0,0,0,0-.03-.02-.06-.05-.08-.08,0,0,0,0,0,0-.04-.04-.08-.09-.12-.13-.01-.06-.01-.12,0-.16-1.01-2.7,1.14-5.35,2.7-7.52.96-1.28,1.66-2.74,2.98-3.76.18-.11.4-.25.63-.27.81-.64,4.74-1.3,5.2-1.36,4.86-.89,9.81-1.99,14.21-4.15.08-.05.16-.01.21.04.34-.13.68-.27.98-.44,1.49-1.18,2.62-2.75,3.24-4.46.51-1.03.22-2.45,1.23-3.21.26-.26,1.12-.56,1.42-.33,1.68-.25,3.24.75,4.7,1.43.4.18.76.3,1.18.37.09.01.16.07.2.14.05-.1.22-.09.33-.11.88-.2,1.1-1.15,1.4-1.81,1.18-2.09,4.16-1.84,5.7-.27.05-.03.09-.05.14-.06,1.36-.46,2.64-1.14,4.07-1.47,1.89-.6,3.88.04,5.81-.03h0c.28-.04.56-.09.83-.18,0-.02,0-.04,0-.05.43-.85,1.4.25,2.06.27.68.15,1.36.02,2.04.05,1.06.15,2.09.57,2.97,1.12.28.25.64.57,1.03.53.28-.18.6,0,.9-.06.35-.06.6-.37.97-.31.25.03.49.1.73.05.16-.05.3-.1.47-.1.37,0,.72.1,1.07,0,.32-.16.66-.29,1.03-.2.24.01.42-.09.63-.15.39-.04.56.34.79.56.86.6,1.8,1.07,2.68,1.64.91.68,1.92,1.4,2.5,2.35.81-.41,1.88-.26,2.76-.29,1.01-.09,2.04-.1,3.01.2.28,0,4.11.9,4.89,1.43.15-.07.37-.04.41.16.2,1.38.17,2.89-.33,4.22.06,0,.11,0,.16.02.02,0,.03-.01.05-.02.12-.04.21,0,.27.05,0,0,.01-.01.02-.01.09-.03.2.01.23.1.16.56.38,1.07.69,1.57.15.34.53.47.78.69,1.49.37,2.9,1.03,4.37,1.46.24.13.71.16.97.32.09-.03.19-.03.28.03.3.21.37.6.47.92.04.17-.06.29-.2.34.62,2.31.16,4.8-.1,7.15-.15.71-.41,1.43-.33,2.16.11.55.39,1.07.69,1.56.33.08.59.35.58.67.02.9-.18,1.85-.25,2.72"/>
      </g>
    </g>
  </g>
</svg>