<?xml version="1.0" encoding="UTF-8"?>
<svg id="Phil" xmlns="http://www.w3.org/2000/svg" viewBox="0 0 128 128">
  <defs>
    <style>
      .cls-1 {
        fill: #231f20;
        stroke-width: 0px;
      }
    </style>
  </defs>
  <g id="Teeth">
    <path class="cls-1" d="M49.06,50.1c.25,1.16.67,2.26,1.25,3.3,0,0,.81-.44.87-.5.91-.99,1.82-1.98,2.73-2.97l-.87.5c.5.9.92,1.85,1.3,2.81.03.07.22.76.31.79.07.03.46-.22.55-.27.27-.14.53-.3.8-.46.62-.37,1.14-.82,1.55-1.41.22-.32.41-.66.6-1.01.17-.31.17-.28-.21-.35s-.74-.13-1.1-.2c-5-.9-10.01-1.97-15.04-2.66-4.75-.65-9.59-.06-14.31-.93-2.29-.42-4.25-1.37-6.3-2.43s-4.09-1.77-6.41-1.82c-1.65-.04-3.52.11-4.98.94-.37.21-.75.38-1,.71-.7.91-.59,2.03-.24,3.07-.02-.07.82-.39.87-.5.39-1,.93-1.92,1.61-2.75l-.87.5c-.19,1.04.19,2.05,1.02,2.69.02.02.85-.44.87-.5.2-.74.43-1.47.81-2.13.16-.29.35-.56.58-.81.2-.22.48-.47.62-.53.4-.16.79-.04,1.2.03.61.1,1.2.25,1.75.53.45.24,1.11.61,1.16,1.17.04.49-.19,1-.32,1.47-.17.59-.18,1.02.04,1.6.27.67.71,1.23,1.26,1.69.02.02.85-.44.87-.5.19-.76.52-1.47,1.01-2.08.26-.32.58-.56.86-.85l.15-.11c-.25.04-.28.12-.08.22-.03.18-.02.38-.02.56.04,1.57.81,3.05,2.05,4.01.02.02.86-.45.87-.5.09-1.48.88-2.8,2.15-3.57l-.85.49c-.36,1.48.28,3.02,1.57,3.83.04.02.85-.44.87-.5.31-1.26,1.1-2.56,2.25-3.22l-.55.31c-.46.64.21,1.6.71,2.05.02.01.85-.44.87-.5.17-.8.57-1.46,1.2-1.97l-.87.5c.25.77.64,1.45,1.16,2.07,0,0,.83-.43.87-.5.14-.3.31-.58.52-.84.1-.12.2-.23.31-.33.07-.06.13-.12.21-.18.1-.07.09-.08-.02,0,.11.22.05.71.09.97.06.35.14.7.25,1.04.42,1.34,1.21,2.53,2.26,3.46.02.01.86-.45.87-.5.1-2.1,1.01-4.05,2.56-5.48l-.87.5c.81,2.69,2.42,5.05,4.62,6.79.02.02.86-.45.87-.5.09-1.06.59-2,1.28-2.8.35-.41.76-.77,1.19-1.1.15-.11.3-.21.45-.32-.31.2-.06.04.13-.05.27-.12.54-.23.83-.32.31-.1.56-.4.87-.5-2.45.79-5.37,2.82-5.6,5.58l.87-.5c-2.2-1.74-3.81-4.1-4.62-6.79.01.04-.79.43-.87.5-1.55,1.42-2.46,3.37-2.56,5.48l.87-.5c-1.45-1.27-2.39-3.06-2.57-4.98-.01-.1-.02-.19-.02-.29.05-.22,0-.26-.17-.12-.08.01-.21.11-.29.15-.26.14-.52.29-.77.44-.68.41-1.19.96-1.53,1.68l.87-.5c-.53-.62-.91-1.3-1.16-2.07,0,.03-.79.44-.87.5-.63.52-1.03,1.17-1.2,1.97l.87-.5c-.5-.44-1.17-1.4-.71-2.05-.09.12-.43.24-.55.31-1.42.82-2.48,1.97-2.88,3.6l.87-.5c-1.29-.8-1.92-2.35-1.57-3.83-.03.13-.72.41-.85.49-1.28.78-2.08,2.1-2.18,3.59l.87-.5c-1.45-1.13-2.21-2.92-2.01-4.75h-.02c-1.74.85-3.2,2.04-3.68,4.01l.87-.5c-.65-.54-1.16-1.24-1.39-2.06-.17-.61.07-1.17.24-1.75s.31-1.1-.17-1.55c-.59-.55-1.34-.86-2.12-1.02-.45-.1-1.01-.27-1.47-.17-.51.1-1,.45-1.44.71-1.43.85-2.06,2.26-2.48,3.81l.87-.5c-.83-.65-1.21-1.66-1.02-2.69-.03.17-.74.35-.87.5-.69.83-1.22,1.74-1.61,2.75l.87-.5c-.26-.78-.43-1.68-.12-2.47.1-.25.27-.45.4-.68.01-.03.13-.12.13-.13.02.04-.82.39-.51.3.09-.03.19-.08.28-.12,1.48-.57,3.19-.69,4.76-.6,2.08.12,3.94.76,5.78,1.71s3.58,1.88,5.59,2.34c4.16.96,8.46.56,12.68.86,2.28.16,4.54.57,6.79.98s4.49.81,6.74,1.22c1.27.23,2.53.46,3.8.69.33.06.65.12.98.18l.37.07.25.04c.15-.01.17.04.05.17-.06.33-.41.74-.59,1.02-.21.33-.46.63-.74.9-.08.07-.16.15-.25.21-.07.05-.2.09-.07.07-.27.05-.07.19-.28-.15-.08-.13-.12-.31-.18-.45-.4-.99-.83-1.98-1.35-2.92,0,0-.81.43-.87.5-.91.99-1.82,1.98-2.73,2.97l.87-.5c-.59-1.04-1-2.13-1.25-3.3.02.09-.89.39-.87.5h0Z"/>
  </g>
</svg>