<?xml version="1.0" encoding="UTF-8"?>
<svg id="Phil" xmlns="http://www.w3.org/2000/svg" viewBox="0 0 128 128">
  <defs>
    <style>
      .cls-1 {
        fill: #231f20;
        stroke-width: 0px;
      }
    </style>
  </defs>
  <g id="NewTop">
    <path class="cls-1" d="M21.43,126.71c-.29.11-.99.38-1.1.69-.09.26.19.59.4.7.33.17.81.13,1.17.15,1.68.11,3.37.15,5.06.17,4.22.04,8.44-.07,12.65-.13,7.92-.1,15.84-.09,23.76-.06,5.62.02,11.23.08,16.86.03,7.97-.07,15.95.05,23.92.12,6.42.05,12.85.14,19.26-.11.63-.02,1.26-.05,1.89-.09.3-.02.57-.49.87-.5-.09,0-.45.07-.5.02-.1-.09.07-.73.09-.92.11-.92.22-1.84.29-2.76.14-1.74.18-3.48,0-5.22-.34-3.41-1.65-6.48-3.74-9.18s-4.6-4.89-7.08-7.12c-2.73-2.45-5.57-4.77-8.33-7.18-1.39-1.22-2.58-2.54-3.65-4.04-.86-1.2-1.82-2.46-3.36-2.74l-.87.5.68.06c.19.02.72-.58.87-.5-.9-.48-1.87-.03-2.72.36-.92.42-1.84.86-2.75,1.31-1.84.92-3.64,1.91-5.43,2.93-3.96,2.25-7.84,4.66-11.87,6.78s-7.84,3.83-12.05,4.97c-1.01.27-2.03.51-3.06.7s-2.08.4-3.12.36c-1.92-.07-3.1-1.47-3.19-3.34-.1-2.01,1.08-3.89,1.79-5.7.79-2.02,1.51-4.17,1.43-6.38,0-.27-.03-.53-.06-.79s.02-.3-.2-.32c-.19-.02-.45.09-.63.14-.6.16-1.19.36-1.77.57-1.57.57-3.1,1.24-4.62,1.92-3.35,1.51-6.66,3.12-9.86,4.91s-6.32,3.74-9.08,6.17c-1.55,1.37-3.01,2.88-4.25,4.54s-2.22,3.65-2.91,5.7-1.25,4.18-2.03,6.22-1.7,4.01-2.76,5.91c-.23.41-.6.85-.75,1.29-.07.22-.02.43.01.66-.01-.11.8-.36.87-.5l1.91-3.98c-.12.24-.75.25-.87.5l-1.91,3.98.87-.5c-.02-.17-.09-.38-.07-.55.02-.19.25-.43.35-.61.15-.26.31-.53.45-.8.5-.9.97-1.82,1.41-2.75.9-1.9,1.66-3.86,2.29-5.87s1.14-3.98,1.99-5.86,2.06-3.54,3.43-5.07c5.37-6.01,12.8-9.65,20.05-12.9,1.47-.66,2.96-1.31,4.48-1.87.56-.21,1.13-.41,1.7-.57.21-.06.42-.11.64-.16.07-.01.22-.07.28-.05.14.06.13.37.15.56.21,2.12-.38,4.22-1.11,6.19-.68,1.84-1.83,3.7-2.05,5.67-.17,1.58.43,3.4,2.06,3.94.89.3,1.87.19,2.78.06,1-.14,2-.33,2.98-.56,3.96-.91,7.75-2.44,11.39-4.24,7.65-3.77,14.64-8.77,22.44-12.24.79-.35,1.68-.7,2.51-.26l.87-.5-.68-.06c-.26-.03-.62.55-.87.5,1.35.24,2.26,1.25,3.04,2.31.94,1.26,1.83,2.49,2.98,3.58,1.27,1.21,2.66,2.3,4,3.44,1.42,1.21,2.84,2.43,4.23,3.67,4.96,4.4,10.56,9.03,11.73,15.94.33,1.94.35,3.91.23,5.87-.06,1-.16,2-.28,2.99-.02.21-.27,1.3-.17,1.39.07.06.43-.02.53-.02l.87-.5c-5.94.31-11.89.26-17.84.22-8.38-.05-16.76-.16-25.14-.15-5.72,0-11.45.14-17.17,0-6.5-.16-13.02,0-19.53,0-4.46,0-8.93.1-13.39.15-3.57.04-7.16.09-10.72-.17-.33-.02-.69,0-.95-.24-.21-.19-.37-.52-.11-.73l-.87.5.12-.04c.31-.11.56-.39.87-.5h0Z"/>
  </g>
</svg>