<?xml version="1.0" encoding="UTF-8"?>
<svg id="Phil" xmlns="http://www.w3.org/2000/svg" viewBox="0 0 128 128">
  <defs>
    <style>
      .cls-1 {
        fill: #231f20;
        stroke-width: 0px;
      }
    </style>
  </defs>
  <path class="cls-1" d="M10.19,43.22l-.21.17.85-.49c-.32.1-.58.05-.87-.12-.07-.04-.84.54-.87.5.09.14.15.29.22.45,0,0,.78-.44.85-.49-.38.24,0,.04.11,0,.15-.06.31-.11.46-.16.28-.08.57-.14.87-.18.66-.09,1.33-.08,1.99,0,1.38.17,2.68.66,3.94,1.21,1.36.59,2.68,1.25,4.09,1.74,1.32.46,2.68.8,4.05,1.06,5.62,1.05,11.37.71,17.03,1.4s11.53,3.11,17.49,2.67c3.05-.22,6.04-1.11,9.11-1.04,2.82.06,5.5,1,8.21,1.68,1.46.36,2.94.66,4.45.68,1.63.03,3.19-.38,4.78-.67,3.4-.6,6.89-.45,10.23.41l.87-.5-.11.04c-.17.07-.72.54-.87.5,2.09.61,4.21,1.06,6.37,1.36l.81-.47c-.22.12-.18.2-.1-.1.08-.28.21-.55.3-.83.18-.56.32-1.13.44-1.7.23-1.16.33-2.34.38-3.52.04-1.11.03-2.23.01-3.34-.02-1.21.09-2.52-.08-3.72-.08-.57-.43-.88-.75-1.33-.29-.41-.45-.88-.51-1.37-.11-.98.14-1.97.36-2.91.26-1.15.44-2.3.39-3.49-.02-.61-.09-1.21-.21-1.81-.07-.35-.47-1.23-.16-1.44h.01c-2.06-1.08-4.55-1.41-6.33-2.98-.77-.68-1.41-1.57-1.56-2.6-.14-.93.38-1.99-.02-2.88-.21-.47-.65-.7-1.09-.89-.63-.27-1.29-.48-1.95-.66-1.22-.32-2.48-.48-3.73-.48-1.19,0-2.44.33-3.61.08-.81-.18-1.51-.65-2.13-1.19-1.41-1.23-2.57-3-4.52-3.38-.19-.04-.71.58-.87.5l.54.3.87-.5c-.99.09-1.98.17-2.97.26s-2.1.31-3.11.22c-.76-.07-1.26-.55-1.9-.9-.79-.44-1.67-.46-2.54-.54-.41-.04-.81-.08-1.21-.2s-.74-.32-1.13-.4c-.83-.17-1.65.31-2.47.41-1.71.21-3.42-.25-5.13-.06-.67.07-1.3.26-1.9.58-.5.26-.97.62-1.5.81-1.57.57-2.5-.71-3.91-1.06-.93-.23-1.95.37-2.65.95-.42.35-.75.79-1.1,1.21-.2.23-.4.46-.62.66-.39.35,0,.03,0,.04,0,.03-.5.13-.54.13-2.34.28-4.41-2.59-6.76-1.45-.89.44-1.67.96-2.1,1.88-.56,1.18-.67,2.52-1.23,3.7-.68,1.42-1.98,2.49-3.28,3.09-1.54.72-3.18,1.26-4.8,1.76-3.64,1.13-7.37,1.88-11.15,2.33-.9.11-1.83.23-2.66.61-.48.22-.95.5-1.39.78-1.56.98-2.63,2.71-3.66,4.18-1.09,1.58-2.49,3.37-2.84,5.3-.38,2.1.75,4.08,1.78,5.82,0,0,.87-.5.87-.5-.89-1.5-1.84-3.14-1.85-4.94s1.07-3.37,2-4.82,1.98-3.03,3.18-4.34c.48-.53.95-.98,1.63-1.2.81-.26,1.66-.34,2.5-.44,3.71-.44,7.38-1.23,10.95-2.35,2.56-.81,5.15-1.72,7.37-3.28,1.18-.83,2.07-1.9,2.52-3.27.4-1.18.54-2.55,1.3-3.57.09-.12.18-.23.28-.33.08-.07.45-.32.04-.09s0,.03.1,0c.14-.04.27-.06.41-.08.6-.06,1.2.11,1.75.32,1.11.43,2.14,1.13,3.33,1.34,1,.18,1.8-.26,2.62-.78.43-.27.77-.63,1.1-1.02.2-.23.39-.47.59-.7.1-.11.2-.22.3-.32.07-.07.14-.13.21-.19.23-.18.14-.13-.28.13.23,0,.46-.15.71-.15.34,0,.66.1.97.23.64.28,1.2.72,1.87.94,1.29.42,2.24-.48,3.32-1.01,1.64-.81,3.59-.38,5.34-.33.92.03,1.76-.07,2.65-.33.5-.14.94-.23,1.44-.08.39.11.74.3,1.14.39.93.22,1.9.12,2.82.38.81.23,1.4.9,2.2,1.13.92.26,2.1-.02,3.04-.1,1.16-.1,2.31-.2,3.47-.3.17-.02.74-.57.87-.5l-.54-.3-.87.5c1.73.34,2.86,1.8,4.06,2.96.61.59,1.28,1.15,2.08,1.45,1.07.41,2.2.15,3.31.09,1.29-.07,2.6.03,3.87.3.6.13,1.19.29,1.76.49.53.18,1.14.36,1.57.73.85.71.38,1.9.36,2.83-.02,1.05.48,2.01,1.19,2.76.89.94,2.04,1.5,3.23,1.96.62.24,1.26.45,1.89.69.35.13.69.27,1.03.42.11.05.32.12.4.19.14.13.2.1.02.22h-.01c.68,2.21.66,4.4.15,6.63-.22.95-.47,1.93-.36,2.91.06.5.22.96.51,1.37s.64.71.73,1.22c.19,1.11.07,2.35.09,3.48s.04,2.23,0,3.35c-.06,2.25-.34,4.49-1.21,6.59.02,0,.04-.02.06-.03l.24-.13c.16-.09.64-.49.81-.47-2.16-.29-4.28-.74-6.37-1.36l-.87.5.11-.04c.17-.07.71-.54.87-.5-3.07-.78-6.27-.98-9.41-.54-1.51.22-3,.66-4.53.77-1.43.11-2.86-.07-4.26-.36-2.77-.58-5.44-1.6-8.26-1.89-3.17-.33-6.26.53-9.38.88-6.2.7-12.05-1.76-18.11-2.54s-11.93-.35-17.79-1.52c-1.59-.32-3.15-.76-4.66-1.36s-3.05-1.43-4.64-1.99c-1.42-.5-2.94-.79-4.44-.56-1.13.17-2.09.7-3.05,1.3l.85-.49c-.07-.15-.13-.3-.22-.45l-.87.5c.65.39,1.47-.07,1.97-.56-.23.23-.64.27-.87.5h0Z"/>
  <path class="cls-1" d="M8.89,42.93c.29,0,.58-.5.87-.5-.29,0-.58.5-.87.5h0Z"/>
  <path class="cls-1" d="M9.87,42.55l-.13-.61s-.15.08-.13.07c-.1.06-.2.12-.31.18s-.2.12-.31.18c-.01,0-.13.07-.13.08l.13.61s.15-.08.13-.07c.1-.06.2-.12.31-.18s.2-.12.31-.18c.01,0,.13-.07.13-.08h0Z"/>
  <path class="cls-1" d="M9.87,43.04v-1.47s-.15.08-.13.07c-.1.06-.2.12-.31.18s-.2.12-.31.18c-.02.01-.13.06-.13.08v1.47s.15-.08.13-.07c.1-.06.2-.12.31-.18s.2-.12.31-.18c.02-.01.13-.06.13-.08h0Z"/>
</svg>