<svg xmlns="http://www.w3.org/2000/svg" viewBox="0 0 382 382"><g fill="none" stroke-width="2"><path stroke="#6d6331" d="M251.4 68.08q-.14-.42-.39-.63-.45-.36-.78.11-.43.6-.62 1.41M245.06 71.83q-1.08-.93-2.6.58-.38.37-.15.86l.23.49M241.35 73.78l-2.5-6.31a.47.47 0 0 0-.76-.16l-.39.4a1.09 1.06-29.6 0 0-.29 1.01q.53 2.16-1.92 2.51a.41.4 50.9 0 0-.08.78q.42.15.3.52-.19.61-.59.11-.39-.49-.79-.93-1.31-1.44-1.19.52.04.72-.47 3.01M221.64 70.5q-1.35-.17-1.28-1.34M221.65 61.35q-2.51.6-4.94 3.61-1.44 1.78 0 2.38M301.25 88.03q-.83.68-1.09 1.48-.15.5.09.97.55 1.05.69 2.19.15 1.27-1.15 1.35a.52.51 69.2 0 0-.37.83q.48.62.51 1.51.02.56-.53.63-.73.09-1.28-.47-.35-.36-.84-.23-.57.15-.91.67-.37.54.08 1.01.71.76.29 1.73-.22.5-.19 1.04.06 1.33-.9 2.84M290.68 106.56q-.16.09-.23.2-.08.11.02.2.1.1.24.07M302 110.01q.24.64.61 1.21.41.62-.24.91-.04.03-.07.07-.6.88.46.78.76-.07 1.45.03.33.05.44.36l1.45 4.33a.2.19 5.1 0 1-.28.23l-4.57-2.55M301.14 114.21l-.01-1.48M256.67 84.51q-.15-.48-.65-.74M256.02 83.77q-.12-1.26-.91-2.29a.69.68-31.7 0 1 .25-1.04q1.59-.76 2.33-2.63.23-.6-.4-.68-1.64-.2-1.25-2.1.11-.51-.29-.83-.09-.08-.26.03-.28.17-.38.48l-.16.51q-.22.66-.84.34-.68-.35-1.25-1.15M313.04 185.9q-1.68-.01-2.46 1.07-.32.43-.12.93l.16.4q.32.81-.55.76-1.77-.12-3.45-1.18-.24-.15-.2-.44.03-.21.2-.36a.5.5 0 0 0 .08-.65q-.33-.48-.85-.49-.56-.02-.51-.58.03-.24.15-.44.33-.53-.22-.82-.66-.34-1.39-.2-.55.1-.62-.45-.02-.18.13-.27.61-.41.22-1.03-.59-.95-1.6-1.25-.87-.26-.56.59 1.25 3.48-2.42 5.03M303.13 88.71q-.03.43.18.65.37.4.83.1.43-.29.65.19c.74 1.64 1.95 4.73 4.29 4.45q1.68-.21.32-1.21-1.02-.76-1.66-2.14" vector-effect="non-scaling-stroke"/><path stroke="#6d6331" d="m301.92 196.09 1.03-5.85q.09-.48-.28-.82l-3.71-3.34M297.79 201.27q-.29-.18-.76-.07M299.24 203.26q.04.42.47.53M300.24 204.48l-1.53 1.22a.47.46 74.1 0 1-.75-.42q.27-2.14-1.25-2.86" vector-effect="non-scaling-stroke"/><path stroke="#6e6325" d="M302.77 208.78q-.74.57-.11 1.49.44.64-.25.84-.06.02-.11.07-.29.35.1.59.07.05.16.05.2-.01.34-.16.3-.3.7-.74M304.69 226.27q-.58-.22-1.11-.11-.43.09-.49.53l-.05.33M290.92 252.52l-1.03-1.94q-.22-.43-.63-.18-1.08.67-1.95 2.11M304.06 227.47q-.42-.58-1.02-.45" vector-effect="non-scaling-stroke"/></g><path fill="#d9c662" d="M251.4 68.08q-.14-.42-.39-.63-.45-.36-.78.11-.43.6-.62 1.41l-4.55 2.86q-1.08-.93-2.6.58-.38.37-.15.86l.23.49-1.19.02-2.5-6.31a.47.47 0 0 0-.76-.16l-.39.4a1.09 1.06-29.6 0 0-.29 1.01q.53 2.16-1.92 2.51a.41.4 50.9 0 0-.08.78q.42.15.3.52-.19.61-.59.11-.39-.49-.79-.93-1.31-1.44-1.19.52.04.72-.47 3.01-5.44-1.15-11.03-4.74-1.35-.17-1.28-1.34 7.94-8.05 18.39-8.91c7.95-.65 15.95-.68 22.66 2.29q4.02 1.78-.31 2.49-4.34.72-9.7 3.05"/><path d="M221.65 61.35q-2.51.6-4.94 3.61-1.44 1.78 0 2.38-.47.32-.69.67-.31.49.27.57l4.07.58q-.07 1.17 1.28 1.34-4.7.91-8.67-.07-.53-.14-1.06.01-3.87 1.07-7.25.7-5.4-.57-6.74-.03-5.44 2.19-10.41 3.41-3.03.75-1.2-1.78c3.18-4.38 7.63-8.53 13.2-10.05 7.27-1.99 14.76-1.84 22.14-1.34"/><path fill="#d9c662" d="M221.65 61.35q2.17.08 3.29.36 1.63.4.15 1.19l-8.38 4.44q-1.44-.6 0-2.38 2.43-3.01 4.94-3.61"/><path d="m241.35 73.78-8.68 1.46q.51-2.29.47-3.01-.12-1.96 1.19-.52.4.44.79.93.4.5.59-.11.12-.37-.3-.52a.41.4 50.9 0 1 .08-.78q2.45-.35 1.92-2.51a1.09 1.06-29.6 0 1 .29-1.01l.39-.4a.47.47 0 0 1 .76.16zM251.4 68.08q-.78.75-1.79.89.19-.81.62-1.41.33-.47.78-.11.25.21.39.63"/><path fill="#d9c662" d="M301.25 88.03q-.83.68-1.09 1.48-.15.5.09.97.55 1.05.69 2.19.15 1.27-1.15 1.35a.52.51 69.2 0 0-.37.83q.48.62.51 1.51.02.56-.53.63-.73.09-1.28-.47-.35-.36-.84-.23-.57.15-.91.67-.37.54.08 1.01.71.76.29 1.73-.22.5-.19 1.04.06 1.33-.9 2.84l-4.97 2.98q-.16.09-.23.2-.08.11.02.2.1.1.24.07l11.29 2.98q.24.64.61 1.21.41.62-.24.91-.04.03-.07.07-.6.88.46.78.76-.07 1.45.03.33.05.44.36l1.45 4.33a.2.19 5.1 0 1-.28.23l-4.57-2.55-.11-1.17-.01-1.48c.03-2.52-4.2-3.18-6.2-3.52-3.07-.52-6.04-2.04-8.49-3.9q-1.78-1.36-2.26-4.18a1.85 1.84-77.5 0 0-.76-1.2l-2.09-1.43q-.46-.32-.13-.77 3.4-4.65.4-9.4a1.57 1.55 83.4 0 0-.8-.64q-3.78-1.35-7.62-2.32c-4.73-1.18-10.48-.21-15.68-.45q-.27-.01-.83-.41-.15-.48-.65-.74-.12-1.26-.91-2.29a.69.68-31.7 0 1 .25-1.04q1.59-.76 2.33-2.63.23-.6-.4-.68-1.64-.2-1.25-2.1.11-.51-.29-.83-.09-.08-.26.03-.28.17-.38.48l-.16.51q-.22.66-.84.34-.68-.35-1.25-1.15c11.76-6.73 25.5-8.72 37.89-4.68q3.43 1.12-.05 2.09-10.02 2.8-19.39 11.37a.26.25-57.3 0 0 .09.43q3.18.98 6.46 2.2 1.82.68 4.14.48c6.54-.58 12.87-.33 19.25 1.73"/><path d="M245.06 71.83q-.06 1.89 4.12 4.04a1.72 1.7 40.9 0 0 1.76-.12l1.92-1.34q.57.8 1.25 1.15.62.32.84-.34l.16-.51q.1-.31.38-.48.17-.11.26-.03.4.32.29.83-.39 1.9 1.25 2.1.63.08.4.68-.74 1.87-2.33 2.63a.69.68-31.7 0 0-.25 1.04q.79 1.03.91 2.29-2.55-2.04-4.7-4.37-2.15-2.34-3.99-3.37-2.32-1.29-4.79-2.27l-.23-.49q-.23-.49.15-.86 1.52-1.51 2.6-.58M256.67 84.51q-.54-.16-.65-.74.5.26.65.74M303.13 88.71q-.03.43.18.65.37.4.83.1.43-.29.65.19c.74 1.64 1.95 4.73 4.29 4.45q1.68-.21.32-1.21-1.02-.76-1.66-2.14 6.86 3.41 10.37 8.95 1.08 1.69-.82 1.04c-6.53-2.23-15.54-.06-21.64 2.84q.96-1.51.9-2.84-.03-.54.19-1.04.42-.97-.29-1.73-.45-.47-.08-1.01.34-.52.91-.67.49-.13.84.23.55.56 1.28.47.55-.07.53-.63-.03-.89-.51-1.51a.52.51 69.2 0 1 .37-.83q1.3-.08 1.15-1.35-.14-1.14-.69-2.19-.24-.47-.09-.97.26-.8 1.09-1.48 1.15.05 1.88.68"/><path fill="#d9c662" d="M307.74 90.75q.64 1.38 1.66 2.14 1.36 1-.32 1.21c-2.34.28-3.55-2.81-4.29-4.45q-.22-.48-.65-.19-.46.3-.83-.1-.21-.22-.18-.65z"/><path d="M290.68 106.56q.11.22.03.47-.14.03-.24-.07-.1-.09-.02-.2.07-.11.23-.2M313.04 185.9q-1.68-.01-2.46 1.07-.32.43-.12.93l.16.4q.32.81-.55.76-1.77-.12-3.45-1.18-.24-.15-.2-.44.03-.21.2-.36a.5.5 0 0 0 .08-.65q-.33-.48-.85-.49-.56-.02-.51-.58.03-.24.15-.44.33-.53-.22-.82-.66-.34-1.39-.2-.55.1-.62-.45-.02-.18.13-.27.61-.41.22-1.03-.59-.95-1.6-1.25-.87-.26-.56.59 1.25 3.48-2.42 5.03-.08-3.34.41-6.31.47-2.83.66-5.48c.18-2.51.91-4.73.99-7.22.12-3.67.95-7.22.99-10.94q.05-5.52.13-11.28.01-.61.38-1.08.32-.42.22-.93c-.33-1.74-1.34-4.21-2.95-5.11q-.79-.44-.66-1.34.47-3.33 1.23-6.64c1.09-4.75.88-9.89.82-14.81l4.57 2.55a.2.19 5.1 0 0 .28-.23l-1.45-4.33q-.11-.31-.44-.36-.69-.1-1.45-.03-1.06.1-.46-.78.03-.04.07-.07.65-.29.24-.91-.37-.57-.61-1.21c9.8 3.55 20.03 11.19 24.68 20.82q.75 1.54-.85.93-3.35-1.29-7.86-.86-8.83.83-16.61 4.46-.6.28-.51.94.19 1.31 1.04 2.38 2.01 2.54 1.98 5.43 0 .54.51.73 13.4 4.82 20.43 17.48 2.28 4.11 2.11 8.94a.67.67 0 0 1-.96.58q-10.48-5.16-23.21-4-.72.07-.78.79l-.26 3.04q-.07.88.71 1.3 7.87 4.12 10.62 12.93M301.14 114.21l-.01-1.48z"/><path fill="#d9c662" d="M313.04 185.9q2.97 7.24.86 14.34-.13.45-.57.28l-11.41-4.43 1.03-5.85q.09-.48-.28-.82l-3.71-3.34q.03.22.07.44 3.67-1.55 2.42-5.03-.31-.85.56-.59 1.01.3 1.6 1.25.39.62-.22 1.03-.15.09-.13.27.07.55.62.45.73-.14 1.39.2.55.29.22.82-.12.2-.15.44-.05.56.51.58.52.01.85.49a.5.5 0 0 1-.08.65q-.17.15-.2.36-.04.29.2.44 1.68 1.06 3.45 1.18.87.05.55-.76l-.16-.4q-.2-.5.12-.93.78-1.08 2.46-1.07"/><path d="m298.96 186.08 3.71 3.34q.37.34.28.82l-1.03 5.85q-1.22-.35-2.42-.18-.51.07-.63.58l-1.08 4.78q-.29-.18-.76-.07z"/><path fill="#d9c662" d="m297.79 201.27 1.45 1.99q.04.42.47.53l.53.69-1.53 1.22a.47.46 74.1 0 1-.75-.42q.27-2.14-1.25-2.86.32-.46.32-1.22.47-.11.76.07"/><path d="M300.24 204.48q1.66 1.92 2.53 4.3-.74.57-.11 1.49.44.64-.25.84-.06.02-.11.07-.29.35.1.59.07.05.16.05.2-.01.34-.16.3-.3.7-.74 2.21 7.34 1.09 15.35-.58-.22-1.11-.11-.43.09-.49.53l-.05.33q-3.45-5.01-9.41-7.23-.68-.25-.79.46-.4 2.41-.6 5.62-.12 1.9.87 3.55c2.39 4 3.43 12.76 2.04 17.34q-1.03 3.43-2.33.09-.99-2.57-2.81-4.95a.5.5 0 0 0-.88.21l-.69 3.45q-.18.93.44 1.64 1.73 1.96 2.04 5.32l-1.03-1.94q-.22-.43-.63-.18-1.08.67-1.95 2.11-1.64-2.41-1.01-4.26c.73-2.14.95-4.38 1.65-6.37 2.22-6.33 3.32-11.06 3.32-17.07q0-2.65.92-5.98 2.28-8.19 4.52-16.41 1.52.72 1.25 2.86a.47.46 74.1 0 0 .75.42zM299.71 203.79q-.43-.11-.47-.53.36.18.47.53"/><path fill="#dbc549" d="m302.77 208.78.83 2.14q-.4.44-.7.74-.14.15-.34.16-.09 0-.16-.05-.39-.24-.1-.59.05-.05.11-.07.69-.2.25-.84-.63-.92.11-1.49M304.69 226.27q.07.78-.63 1.2-.42-.58-1.02-.45l.05-.33q.06-.44.49-.53.53-.11 1.11.11"/><path d="M304.06 227.47q-.18.35-.68.11-.37-.17-.34-.56.6-.13 1.02.45"/><path fill="#dbc549" d="M290.92 252.52q.18 1.52-.11 2.75a.51.51 0 0 1-.88.22l-2.62-2.98q.87-1.44 1.95-2.11.41-.25.63.18z"/></svg>