<svg xmlns="http://www.w3.org/2000/svg" viewBox="0 0 382 382"><g fill="none" stroke-width="2"><path stroke="#c5d1bf" d="M292.54 107.67q-1.23.11-1.02.61" vector-effect="non-scaling-stroke"/><path stroke="#a16ca1" d="M203.57 61.89q.35.62.72.77.44.18.69-.32.17-.32.27-.86" vector-effect="non-scaling-stroke"/><path stroke="#c5d1bf" d="m301.65 172.22-1.2-.18M292.45 222.22q-.5-.04-.96-.44" vector-effect="non-scaling-stroke"/><path stroke="#a16ca1" d="M198.25 67.9q.54.38 1.11.76.79.52.73-.42-.02-.34-.18-.67a.8.79 77.9 0 0-.7-.46l-1.57-.03q-.69-.02-.23.49.34.39.84.33M201.58 69.33q1.23-.62 1.36-1.7.08-.59-.52-.55l-.61.04a.73.73 0 0 0-.69.72l-.03 1.18a.34.34 0 0 0 .49.31" vector-effect="non-scaling-stroke"/><path stroke="#a46fa4" d="M306.526 130.09a.9.52 91.5 0 0 .544-.886.9.52 91.5 0 0-.496-.914.9.52 91.5 0 0-.544.886.9.52 91.5 0 0 .496.914M303.125 132.624a.57.48 7.5 0 0-.502-.55.57.48 7.5 0 0-.628.402.57.48 7.5 0 0 .502.55.57.48 7.5 0 0 .628-.402M309.12 151.61a.52.52 0 0 0-.52-.52.52.52 0 0 0-.52.52.52.52 0 0 0 .52.52.52.52 0 0 0 .52-.52M315.54 160.3q-.47-.02-.24.41.2.37.46.04.34-.43-.22-.45" vector-effect="non-scaling-stroke"/><path stroke="#a16ca1" d="M298.01 211.498a.58.45-3.2 0 0-.605-.417.58.45-3.2 0 0-.554.481.58.45-3.2 0 0 .604.417.58.45-3.2 0 0 .554-.481M297.004 218.58a.44.33 9.2 0 0-.381-.396.44.33 9.2 0 0-.487.256.44.33 9.2 0 0 .381.396.44.33 9.2 0 0 .487-.256" vector-effect="non-scaling-stroke"/></g><path fill="#c1cdbb" d="M292.54 107.67q-1.23.11-1.02.61-2.53-1.16-4.77-2.76c-1.68-1.21-2.25-2.8-2.7-4.68q-.13-.57-.61-.9l-2.13-1.45q-.44-.31-.12-.74 3.45-4.74.39-9.42-.34-.52-.93-.72-3.8-1.3-7.66-2.26c-4.94-1.22-10.5-.07-15.76-.44q-.53-.03-.87-.44-2.34-2.74-5.07-4.89-.89-.7-1.34-1.79-.21-.5-.7-.75c-2.4-1.22-5.43-3.41-8.2-3.19q-2.09.18-4.06.59-2.62.55-5.76.58-1.64.01-3.01-.9c-2.31-1.53-4.86-3.32-7.77-3.29q-2.48.04-4.8.04c-1.26.01-2.22-.82-3.38-.5q-4.54 1.28-9.84.59c-1.77-.23-3.97-.08-5.66.58q-4.81 1.88-9.25 2.97-3.15.77-1.2-1.82c4.4-5.87 9.68-10.02 17.25-10.8q.35.62.72.77.44.18.69-.32.17-.32.27-.86 10.22-.98 20.33.32a.34.33-83.9 0 1 .29.37q-.05.51-.53.68-5 1.8-9.41 5.16a.34.33-60.1 0 0 .16.6l3.45.45q.93.12 1.59-.54 7.52-7.58 19.45-8.4 7.13-.5 13.2.29 3.89.5 8.69 2.56.44.19.66.62.19.4-.04.76-.28.44-.79.52-9.71 1.52-17.26 7.17-.62.47 0 .93l3.89 2.89q.91.68 1.8-.03c5.14-4.09 13.4-6.59 20.25-7.75 6.13-1.04 12.91-.18 18.95 1.35q.82.21 1.55.62 1.86 1.07-.21 1.64-10.71 2.99-19.67 11.2-.7.64.21.9 2.81.78 5.67 1.9 2.05.8 4.2.61c13.13-1.14 25.29 1.37 34.52 10.79q1.43 1.46 2.1 3.29.28.76-.49.52c-8.89-2.73-19.14.32-26.76 5.46q-.45.3 0 .62.58.41 1.49.69m-84.424-39.764a1.28.41 134.3 0 0 1.187-.63 1.28.41 134.3 0 0 .601-1.202 1.28.41 134.3 0 0-1.187.63 1.28.41 134.3 0 0-.601 1.202m-9.866-.006q.54.38 1.11.76.79.52.73-.42-.02-.34-.18-.67a.8.79 77.9 0 0-.7-.46l-1.57-.03q-.69-.02-.23.49.34.39.84.33m3.33 1.43q1.23-.62 1.36-1.7.08-.59-.52-.55l-.61.04a.73.73 0 0 0-.69.72l-.03 1.18a.34.34 0 0 0 .49.31"/><path fill="#800a86" d="M205.25 61.48q-.1.54-.27.86-.25.5-.69.32-.37-.15-.72-.77zM198.25 67.9q-.5.06-.84-.33-.46-.51.23-.49l1.57.03a.8.79 77.9 0 1 .7.46q.16.33.18.67.06.94-.73.42-.57-.38-1.11-.76M201.58 69.33a.34.34 0 0 1-.49-.31l.03-1.18a.73.73 0 0 1 .69-.72l.61-.04q.6-.04.52.55-.13 1.08-1.36 1.7"/><path fill="#c8d4c2" d="M292.54 107.67q17.52 2.54 29.37 15.94 2.8 3.16 4.86 7.48.58 1.2-.67.73c-7.13-2.65-17.73.33-24.36 3.36a1.58 1.58 0 0 0-.55 2.46q2.49 2.93 2.74 6.56.04.49.5.66 13.69 4.98 20.59 17.89c1.36 2.55 2.05 5.63 1.87 8.55a.65.64 14.6 0 1-.93.54q-10.55-5.19-23.35-4-.52.04-.58.57l-.38 3.81-1.2-.18q2.04-13.2 1.76-26.53-.01-.56.27-1.04c1.12-1.95-1.29-5.36-2.67-6.39a1.8 1.79 26.3 0 1-.66-1.93q3.13-11.05 1.83-24.03-.05-.52-.43-.88-1.21-1.12-2.29-1.31-3.44-.59-6.74-1.65-.21-.5 1.02-.61m13.986 22.42a.9.52 91.5 0 0 .544-.886.9.52 91.5 0 0-.496-.914.9.52 91.5 0 0-.544.886.9.52 91.5 0 0 .496.914m-3.4 2.534a.57.48 7.5 0 0-.503-.55.57.48 7.5 0 0-.628.402.57.48 7.5 0 0 .502.55.57.48 7.5 0 0 .628-.402m5.994 18.986a.52.52 0 0 0-.52-.52.52.52 0 0 0-.52.52.52.52 0 0 0 .52.52.52.52 0 0 0 .52-.52m6.42 8.69q-.47-.02-.24.41.2.37.46.04.34-.43-.22-.45"/><ellipse fill="#800a86" rx=".9" ry=".52" transform="rotate(91.5 90.35 213.909)"/><ellipse fill="#800a86" rx=".57" ry=".48" transform="rotate(7.5 -859.881 2374.362)"/><circle cx="308.6" cy="151.61" r=".52" fill="#800a86"/><path fill="#800a86" d="M315.54 160.3q.56.02.22.45-.26.33-.46-.04-.23-.43.24-.41"/><path fill="#c1cdbb" d="M301.65 172.22q.02.38.35.52c7.72 3.47 11.87 12.07 12.72 20.25q.38 3.75-.74 7.34-.19.61-.75.3-6.16-3.5-13.28-4.88a.98.98 0 0 0-1.13.74l-.97 4.21q-.16.71.35 1.24c6.29 6.43 7.34 14.92 6.58 23.83q-.31 3.68-2.33.58-2.55-3.92-8.76-6.63-.56-.24-.71.35l-.53 2.15q-.5-.04-.96-.44.09-.14.05-.36a.52.48-42.6 0 1 .02-.24q1.78-6.52 3.63-13.04 1.69-5.9 2.58-13.07 1.43-11.5 2.68-23.03zm-3.64 39.278a.58.45-3.2 0 0-.605-.417.58.45-3.2 0 0-.554.481.58.45-3.2 0 0 .604.417.58.45-3.2 0 0 .554-.481m-1.006 7.082a.44.33 9.2 0 0-.381-.396.44.33 9.2 0 0-.487.256.44.33 9.2 0 0 .381.396.44.33 9.2 0 0 .487-.256m6.566 3.59a.34.34 0 0 0-.28.55q.3.42.66 0a.3.3 0 0 0-.03-.41q-.16-.14-.35-.14"/><ellipse fill="#800a86" rx=".58" ry=".45" transform="rotate(-3.2 3935.16 -5218.314)"/><ellipse fill="#800a86" rx=".44" ry=".33" transform="rotate(9.2 -1209.627 1952.264)"/><path fill="#c8d4c2" d="m292.45 222.22-.19 4.79a2.46 2.42 31.5 0 0 .33 1.33q3.58 6.08 3.02 16-.1 1.85-.87 3.63a.79.79 0 0 1-1.46-.04q-1.24-3.37-3.26-6.05a.51.5 32.3 0 0-.9.2l-.7 3.46q-.17.82.36 1.47 2.67 3.37 2.12 8.14a.59.59 0 0 1-1.03.31c-1.53-1.79-3.92-3.75-3.56-6.3q.66-4.63 2.68-10.28c.82-2.31 1.26-4.66 1.73-7.02.63-3.23.45-6.68.77-10.08q.46.4.96.44"/></svg>