<svg xmlns="http://www.w3.org/2000/svg" viewBox="0 0 382 382"><g fill="none" stroke="#3d584c" stroke-width="2"><path d="M254.63 66.73q-1.32-1.3-2.94 1.27M250.99 68.22q-.81-.05-1.02.52M249.44 69.03q-.3-.94-.73-1.51-.33-.45-.56.06l-1.44 3.16M244.54 72.34q-.3.21-.81.32-.77.17-.79-.61l-.03-.79q-.06-1.9-1.23-.4-.8 1.03-1.69 3.06M239.16 74.01q-.1-4.02-2.49-7.55-.37-.56-.81-.05-.89 1.03-.89 2.4a1.01 1 70.7 0 1-.37.78q-1.29 1.05-2.77.92-.39-.03-.63.27l-2.75 3.57M220.3 70.8q-.17-1.1.19-1.74M218.52 61.27q-5.67 4.33.19 4.67M308.31 91.02q-.5.79-1.7 1.01-.59.11-.6.71l-.07 2.96a.31.31 0 0 1-.53.22l-2.99-3.03q-.31-.32-.09-.71.08-.14.21-.25.65-.55-.17-.8-1.44-.43-2.3-1.75a.57.57 0 0 0-1.01.11l-.53 1.48q-.16.44-.03.9.85 3-2.01 4.39-.58.28-.46.91.09.44.36.79 1.03 1.33-.41.46-1.13-.68-2.27-.46a.76.76 0 0 0-.62.79q.2 3.64-1.22 7.09M291.47 107.3q.19.5.21 1.05M254.84 82.45l-.45-1.81q-.13-.5.3-.8.86-.61 1.22-1.5.22-.54-.2-.95-1.5-1.48-1.98-3.4M314.67 192.71l-.45.91q-.24.48-.78.46l-.86-.05q-.56-.03-.53-.59.15-2.57-2.35-4.15-.43-.27-.8.09l-.48.49q-.5.5-.01 1.01 1 1.04.53 2.13-1.17 2.71-.89 5.01M286.62 250.97q1.3.14 1.31-1.96 0-1.01-.93-.6-.24.11-.61 1.13M310.78 93.42a.25.25 0 0 0-.25-.25.25.25 0 0 0-.25.25.25.25 0 0 0 .25.25.25.25 0 0 0 .25-.25" vector-effect="non-scaling-stroke"/></g><path fill="#7aaf98" d="M254.63 66.73q-1.32-1.3-2.94 1.27l-.7.22q-.81-.05-1.02.52l-.53.29q-.3-.94-.73-1.51-.33-.45-.56.06l-1.44 3.16-2.17 1.6q-.3.21-.81.32-.77.17-.79-.61l-.03-.79q-.06-1.9-1.23-.4-.8 1.03-1.69 3.06-.49.17-.83.09-.1-4.02-2.49-7.55-.37-.56-.81-.05-.89 1.03-.89 2.4a1.01 1 70.7 0 1-.37.78q-1.29 1.05-2.77.92-.39-.03-.63.27l-2.75 3.57q-2.32-1.75-4.89-2.94-1.52-.71-3.26-.61-.17-1.1.19-1.74 7.85-7.93 19.34-8.79 9.63-.72 15.09.31 3.5.65 6.64 2.04 3.73 1.64-.28 2.4-2.65.49-6.65 1.71"/><path d="M218.52 61.27q-5.67 4.33.19 4.67l-2.55 2.09q-.55.45.15.53l4.18.5q-.36.64-.19 1.74-2.89.33-5.58-.1-2.35-.37-3.98-.01-3.23.7-4.81.53c-3.5-.39-6.83-.68-10.19.66q-4.04 1.62-8.89 2.83a1.1 1.08 59.9 0 1-1.03-.28q-.5-.49-.07-1.03c3.99-5.03 7.82-9.2 14.31-10.8q9.09-2.23 18.46-1.33"/><path fill="#7aaf98" d="M218.71 65.94q-5.86-.34-.19-4.67 3.71-.06 6.46.47 1.8.34.15 1.13z"/><path d="M239.16 74.01q-5.73 1.72-10.71.34l2.75-3.57q.24-.3.63-.27 1.48.13 2.77-.92a1.01 1 70.7 0 0 .37-.78q0-1.37.89-2.4.44-.51.81.05 2.39 3.53 2.49 7.55M254.63 66.73 251.69 68q1.62-2.57 2.94-1.27M249.44 69.03q-1.07 1.03-2.73 1.71l1.44-3.16q.23-.51.56-.06.43.57.73 1.51"/><path fill="#7aaf98" d="M308.31 91.02q-.5.79-1.7 1.01-.59.11-.6.71l-.07 2.96a.31.31 0 0 1-.53.22l-2.99-3.03q-.31-.32-.09-.71.08-.14.21-.25.65-.55-.17-.8-1.44-.43-2.3-1.75a.57.57 0 0 0-1.01.11l-.53 1.48q-.16.44-.03.9.85 3-2.01 4.39-.58.28-.46.91.09.44.36.79 1.03 1.33-.41.46-1.13-.68-2.27-.46a.76.76 0 0 0-.62.79q.2 3.64-1.22 7.09-.53.17-1.01.62-.44.43.1.72.21.1.51.12.19.5.21 1.05c-4.05-2.01-6.72-3.06-7.59-7.48q-.11-.55-.57-.87l-2.19-1.51a.54.53-54.9 0 1-.13-.76q3.4-4.66.42-9.37-.33-.52-.91-.72-3.48-1.19-7.13-2.16c-5.17-1.38-10.85-.22-16.31-.57a1.12 1.11 66.7 0 1-.67-.27q-1.14-.93-1.76-2.19l-.45-1.81q-.13-.5.3-.8.86-.61 1.22-1.5.22-.54-.2-.95-1.5-1.48-1.98-3.4 17.26-9.64 36.28-4.44.78.21 1.49.58 1.88.95-.14 1.53-11.01 3.11-19.99 11.44a.34.34 0 0 0 .13.57q3.27 1 6.56 2.21 1.74.63 3.77.42c8.8-.94 18.58.18 26.48 4.72"/><path d="M250.99 68.22q-.32.57-1.02.52.21-.57 1.02-.52M244.54 72.34l4.55 3.54a1.37 1.37 0 0 0 1.84-.13q1.03-1.08 2.8-1.76.48 1.92 1.98 3.4.42.41.2.95-.36.89-1.22 1.5-.43.3-.3.8l.45 1.81q-2.26-1.47-3.94-3.37-1.88-2.14-3.39-2.99c-2.75-1.56-4.58-2.5-7.52-2.17q.89-2.03 1.69-3.06 1.17-1.5 1.23.4l.03.79q.02.78.79.61.51-.11.81-.32M308.31 91.02q6.43 3.38 9.8 8.69 1.08 1.7-.82 1.03-1.12-.39-2.82-.55-12.17-1.11-22.6 5.65 1.42-3.45 1.22-7.09a.76.76 0 0 1 .62-.79q1.14-.22 2.27.46 1.44.87.41-.46-.27-.35-.36-.79-.12-.63.46-.91 2.86-1.39 2.01-4.39-.13-.46.03-.9l.53-1.48a.57.57 0 0 1 1.01-.11q.86 1.32 2.3 1.75.82.25.17.8-.13.11-.21.25-.22.39.09.71l2.99 3.03a.31.31 0 0 0 .53-.22l.07-2.96q.01-.6.6-.71 1.2-.22 1.7-1.01m2.47 2.4a.25.25 0 0 0-.25-.25.25.25 0 0 0-.25.25.25.25 0 0 0 .25.25.25.25 0 0 0 .25-.25"/><circle cx="310.53" cy="93.42" r=".25" fill="#7aaf98"/><path d="m314.67 192.71-.45.91q-.24.48-.78.46l-.86-.05q-.56-.03-.53-.59.15-2.57-2.35-4.15-.43-.27-.8.09l-.48.49q-.5.5-.01 1.01 1 1.04.53 2.13-1.17 2.71-.89 5.01l-7.65-2.25a1.29 1.29 0 0 0-1.62.94l-.92 3.95q-.16.72.35 1.25c6.27 6.61 7.45 14.97 6.56 23.94q-.35 3.51-2.28.55-2.74-4.2-9.02-6.71a.45.45 0 0 0-.61.35q-.4 2.66-.63 5.65-.12 1.67.63 3.14 3.9 7.68 2.48 16.93-.83 5.38-2.85.33-.78-1.92-2.5-4.26a.46.46 0 0 0-.83.18l-.75 3.65q-.15.71.3 1.28 2.57 3.26 2.28 7.38-.17 2.44-1.66.5c-1.04-1.35-2.36-2.08-2.71-3.85q1.3.14 1.31-1.96 0-1.01-.93-.6-.24.11-.61 1.13-.1-.26-.16-.53-.06-.29.03-.56c.78-2.27 1.05-4.65 1.86-6.96 2.07-5.91 3.23-11 3.16-16.79q-.04-2.76.89-5.96 2.13-7.4 4.24-15.17.58-2.13.75-4.21c.15-1.94.73-3.71.89-5.66q.58-6.94 1.51-13.63.37-2.64.52-5.26c.15-2.48.9-4.68 1-7.17q.11-2.86.55-5.7c.83-5.27.5-11.07.58-16.39q.01-.82.44-1.53.25-.41.15-.88c-.37-1.7-1.4-4.13-2.91-4.97q-.85-.48-.7-1.43.49-3.21 1.24-6.59c1.22-5.43.9-11.54.7-16.9q-.11-2.65-2.69-3.27l-6.76-1.63q-.02-.55-.21-1.05c2.25.89 4.72.83 6.69 1.39q15.04 4.31 24.99 16.51 2.04 2.5 3.37 5.29 1.09 2.28-1.16 1.12-1.29-.68-2.61-.72-11.36-.34-21.29 4.43-.72.34-.59 1.13.18 1.17.92 2.08 2.07 2.54 2.08 5.54 0 .6.56.8 13.36 4.78 20.39 17.48 2.31 4.17 2.09 8.92a.66.66 0 0 1-.95.56q-10.59-5.19-23.34-3.99a.71.7-90 0 0-.64.65l-.31 3.58a.85.84 14.1 0 0 .51.84c7.52 3.17 11.71 12.13 12.49 19.8"/><path fill="#7aaf98" d="M314.67 192.71q.51 3.91-.75 7.56-.17.48-.63.26l-5.24-2.51q-.28-2.3.89-5.01.47-1.09-.53-2.13-.49-.51.01-1.01l.48-.49q.37-.36.8-.09 2.5 1.58 2.35 4.15-.03.56.53.59l.86.05q.54.02.78-.46zM286.62 250.97q-.55-.77-.23-1.43.37-1.02.61-1.13.93-.41.93.6-.01 2.1-1.31 1.96"/></svg>