<svg xmlns="http://www.w3.org/2000/svg" viewBox="0 0 382 382"><g fill="none" stroke="#764c6f" stroke-width="2"><path d="M254.87 66.61q-2.94-.8-5.73.77-1.29.72-1.34 2.69M246.04 71.28q-.58.06-1.14.35-.44.22-.86-.02-.98-.57-2.2-.58-.6-.01-.46.57.06.26.25.47.47.51-.14.84-.24.14-.52.07a.71.7 83.3 0 1-.51-.41l-2.57-6.12a.61.61 0 0 0-1.13.01q-.92 2.36-2.59 3.98a.92.92 0 0 1-1.3-.02q-.43-.43-1.01-.46-.88-.04-.43.71.16.26.22.55.1.5-.27.84-1.21 1.12-1.88 2.86M221.15 70.66l-.41-1.77M252.79 74.56q.91.31 1.17-.5M254.23 73.71q2.98 3.62.46 6.41-.32.36-.18.82l.56 1.8M219.58 61.33q-1.8 1.18-3.24 2.75-.59.64-.35 1.36.16.5.62.24 1.31-.74 2.01.37M300.31 87.68q-1.54 1.97-1.53 4.57 0 .52-.37.89l-.99.97a1.2 1.2 0 0 0-.35.94q.05.63-.13 1.23-.2.66-.88.71l-1.34.1q-.69.05-.65.74.25 3.83-1.4 7.49M299.99 109.29q-.23.8-.7.99M300.82 87.91l.3 1.12q.13.52.63.72c2.32.97 2.61 3.63 4.8 5.11a.31.31 0 0 0 .46-.35l-.56-1.8q-.14-.47.09-.91l.68-1.31M314.28 190.62q-1.48.52-1.39 2.76.03.91-.7.37-.33-.24-.28-.67.05-.53-.42-.77-.29-.15-.43.15-.32.72-.76.06l-2.67-3.99q-.45-.67-.88 0l-.36.56q-.55.86.01 1.71c1.29 1.98-.58 3.92-.39 6.43M290.95 254.05q-.97.07-1.68.41M286.38 250.54q.57-1.41.04-2.38M298.54 94.65q.17-.13.12-.35a.24.24 0 0 0-.38-.13q-.18.15-.1.38.1.3.36.1" vector-effect="non-scaling-stroke"/></g><path fill="#eb97de" d="M254.87 66.61q-2.94-.8-5.73.77-1.29.72-1.34 2.69l-1.76 1.21q-.58.06-1.14.35-.44.22-.86-.02-.98-.57-2.2-.58-.6-.01-.46.57.06.26.25.47.47.51-.14.84-.24.14-.52.07a.71.7 83.3 0 1-.51-.41l-2.57-6.12a.61.61 0 0 0-1.13.01q-.92 2.36-2.59 3.98a.92.92 0 0 1-1.3-.02q-.43-.43-1.01-.46-.88-.04-.43.71.16.26.22.55.1.5-.27.84-1.21 1.12-1.88 2.86-4.11-3.05-8.35-4.26l-.41-1.77q7.8-7.91 19.31-8.73c7.63-.55 15.08-.44 21.52 2.46q3.39 1.52-.22 2.4z"/><path d="M219.58 61.33q-1.8 1.18-3.24 2.75-.59.64-.35 1.36.16.5.62.24 1.31-.74 2.01.37-1.52.86-2.47 2-.34.4.17.53 2.25.6 4.42.31l.41 1.77q-4.23.64-8.16-.25-.49-.11-.97.02-4.41 1.18-9.5.56c-1.9-.24-4.08-.13-5.87.59q-4.43 1.77-9.01 2.91-3.3.81-1.24-1.88c3.81-4.98 8.06-8.69 13.99-10.21q8.42-2.16 19.19-1.07"/><path fill="#eb97de" d="M218.62 66.05q-.7-1.11-2.01-.37-.46.26-.62-.24-.24-.72.35-1.36 1.44-1.57 3.24-2.75 3.1-.06 5.62.43 1.54.3.13.99z"/><path d="m246.04 71.28-.92.84q-.48.44.01.87 2.09 1.85 4.39 3.03.6.31 1.16-.06l2.11-1.4q.91.31 1.17-.5.3-.22.27-.35 2.98 3.62.46 6.41-.32.36-.18.82l.56 1.8q-2.55-1.81-4.49-4.08-1.2-1.4-2.32-2.08c-3.05-1.84-5.36-3.23-9.08-2.47q-4.78.98-9.68.81.67-1.74 1.88-2.86.37-.34.27-.84-.06-.29-.22-.55-.45-.75.43-.71.58.03 1.01.46a.92.92 0 0 0 1.3.02q1.67-1.62 2.59-3.98a.61.61 0 0 1 1.13-.01l2.57 6.12a.71.7 83.3 0 0 .51.41q.28.07.52-.07.61-.33.14-.84-.19-.21-.25-.47-.14-.58.46-.57 1.22.01 2.2.58.42.24.86.02.56-.29 1.14-.35M254.87 66.61l-7.07 3.46q.05-1.97 1.34-2.69 2.79-1.57 5.73-.77"/><path fill="#eb97de" d="M300.31 87.68q-1.54 1.97-1.53 4.57 0 .52-.37.89l-.99.97a1.2 1.2 0 0 0-.35.94q.05.63-.13 1.23-.2.66-.88.71l-1.34.1q-.69.05-.65.74.25 3.83-1.4 7.49l-1.72 1.14q-.45.3.01.57 1.58.96 2.55.99 3.33.11 6.48 1.27-.23.8-.7.99-3.02-.81-6.07-1.61-2.93-.77-5.93-2.67c-2.13-1.34-2.58-3.01-3.29-5.22q-.18-.57-.68-.91l-1.91-1.32a.64.64 0 0 1-.16-.9q3.32-4.63.38-9.28a1.77 1.74-6.4 0 0-.92-.72q-3.65-1.27-7.59-2.27c-4.92-1.26-10.37-.16-15.61-.44a1.56 1.5-23.2 0 1-.85-.32q-1.01-.78-1.59-1.88l-.56-1.8q-.14-.46.18-.82 2.52-2.79-.46-6.41 17.06-9.29 35.78-4.17.76.21 1.47.56 1.92.96-.14 1.55-10.92 3.12-19.88 11.35-.53.48.16.69 2.97.9 6.08 2.07 2.01.76 4.69.51c6.11-.56 11.7-.21 17.92 1.41M253.96 74.06q-.26.81-1.17.5.52-.56 1.17-.5"/><path d="m300.82 87.91.3 1.12q.13.52.63.72c2.32.97 2.61 3.63 4.8 5.11a.31.31 0 0 0 .46-.35l-.56-1.8q-.14-.47.09-.91l.68-1.31q7.17 3.38 10.89 9.22 1.08 1.7-.82 1.03-1.12-.39-2.82-.55-11.68-1.06-21.8 5.13 1.65-3.66 1.4-7.49-.04-.69.65-.74l1.34-.1q.68-.05.88-.71.18-.6.13-1.23a1.2 1.2 0 0 1 .35-.94l.99-.97q.37-.37.37-.89-.01-2.6 1.53-4.57.11.31.51.23m-2.28 6.74q.17-.13.12-.35a.24.24 0 0 0-.38-.13q-.18.15-.1.38.1.3.36.1"/><path fill="#eb97de" d="m307.22 90.49-.68 1.31q-.23.44-.09.91l.56 1.8a.31.31 0 0 1-.46.35c-2.19-1.48-2.48-4.14-4.8-5.11q-.5-.2-.63-.72l-.3-1.12zM298.18 94.55q-.08-.23.1-.38a.24.24 0 0 1 .38.13q.05.22-.12.35-.26.2-.36-.1"/><path d="M314.28 190.62q-1.48.52-1.39 2.76.03.91-.7.37-.33-.24-.28-.67.05-.53-.42-.77-.29-.15-.43.15-.32.72-.76.06l-2.67-3.99q-.45-.67-.88 0l-.36.56q-.55.86.01 1.71c1.29 1.98-.58 3.92-.39 6.43l-5.19-1.43q-1.75-.48-2.14 1.29l-.83 3.76q-.13.57.28.99c6.32 6.56 7.55 15.02 6.64 24q-.35 3.52-2.29.56-2.72-4.19-9.01-6.71a.45.44 14.7 0 0-.6.35q-.41 2.66-.64 5.66-.12 1.66.62 3.12 3.92 7.73 2.48 16.94-.82 5.25-2.86.34-.96-2.3-2.48-4.21a.48.48 0 0 0-.85.2l-.74 3.6q-.12.62.25 1.13 2.72 3.67 2.3 7.23-.97.07-1.68.41-2.24-1.58-2.89-3.92.57-1.41.04-2.38.6-2.81 3.28-11.47 1.54-4.96 1.57-11.5.03-3.71.81-6.36 1.61-5.4 3.33-11.52 1.64-5.81 2.26-11.24 1.92-16.6 3.86-32.8c.7-5.89.61-11.84.69-17.75q.01-.71.37-1.36.24-.43.17-.92c-.27-1.68-1.26-4.12-2.84-5.04q-1.02-.59-.77-1.68 1.05-4.55 1.69-8.87.82-5.56.17-15.58-.03-.46-.39-.74l-1.33-1.05q.47-.19.7-.99c10.39 3.33 21.51 11.07 26.5 21.14q1.22 2.46-1.2 1.16-1.22-.66-2.5-.7-11.34-.36-21.33 4.43-.72.34-.6 1.12.18 1.17.92 2.08 2.09 2.56 2.09 5.61 0 .54.51.72 13.36 4.75 20.46 17.53 2.31 4.18 2.04 8.93a.63.63 0 0 1-.91.53q-10.61-5.22-23.37-3.98-.58.05-.62.63l-.31 3.55q-.05.65.56.9c6.71 2.7 11.13 10.94 12.05 17.68"/><path fill="#eb97de" d="M314.28 190.62q1.25 4.94-.36 9.65-.16.46-.61.26l-7.3-3.3c-.19-2.51 1.68-4.45.39-6.43q-.56-.85-.01-1.71l.36-.56q.43-.67.88 0l2.67 3.99q.44.66.76-.06.14-.3.43-.15.47.24.42.77-.05.43.28.67.73.54.7-.37-.09-2.24 1.39-2.76M286.38 250.54q-.39-1.21.04-2.38.53.97-.04 2.38M290.95 254.05q.12.71-.12 1.15-.3.57-.87.31-.49-.22-.69-1.05.71-.34 1.68-.41"/></svg>