<svg xmlns="http://www.w3.org/2000/svg" viewBox="0 0 382 382"><g fill="none" stroke-width="2"><path stroke="#267580" d="M313.02 99.83q-2.95.3-4.97-.8" vector-effect="non-scaling-stroke"/><path stroke="#17d3af" d="M308.05 99.03q-.48-1.24-2.8-.28a.09.09 0 0 1-.12-.08q-.01-1.45-1.41-1.69-.54-.08-.33-.59t.57-.89q.44-.47-.21-.45-.55.01-.97.42a1.38 1.37 41.8 0 0 .12 2.07q1.98 1.53 2.03 2.92" vector-effect="non-scaling-stroke"/><path stroke="#267580" d="M315.8 131.03q0-.21-.05-.37-.1-.33-.41-.17-.13.06-.17.25-.05.16.06.52" vector-effect="non-scaling-stroke"/><path stroke="#1cd976" d="M306.28 133.26q-.82-.02-1.28-.29-.42-.25-.16-.66.16-.25.13-.54-.07-.73-.67-.31-1.49 1.05-.97 3.03" vector-effect="non-scaling-stroke"/><path stroke="#11cdeb" d="m303.98 144.73-1.78 1.33" vector-effect="non-scaling-stroke"/><path stroke="#267580" d="M204.92 71.14q.2-.37.18-.67" vector-effect="non-scaling-stroke"/><path stroke="#1cd976" d="m205.1 70.47.23-.24q.25-.26.18-.63l-.69-3.76q-.02-.08-.1-.05-.12.06-.24.11" vector-effect="non-scaling-stroke"/><path stroke="#267580" d="M204.48 65.9q-.08-.65-.21-1.12t-.5-.67q-.58-.33-.97.14" vector-effect="non-scaling-stroke"/><path stroke="#1cd976" d="M202.8 64.25q-.57-.25-1.1-1.24-.44-.81-.58.09-.16.95-.97.67-.35-.12-.65.1l-2.96 2.19q-.61.45-.01.9c.36.27.57.7.62 1.14q.02.22-.24.24-.76.06-.07.38.35.16.72.12.35-.03.55.26.11.17.02.33-.17.32-.52.55-.71.47-.38 1.27" vector-effect="non-scaling-stroke"/><path stroke="#35850f" d="M202.8 64.25q.32 2.49 1.68 1.65M205.1 70.47q-.16-.38-.48-.38t-.43.28q-.11.27.03.69" vector-effect="non-scaling-stroke"/><path stroke="#307f48" d="m308.05 99.03-.1.88" vector-effect="non-scaling-stroke"/><path stroke="#11cdeb" d="M314.28 150.16q-.39 1.26.45 1.63.5.21 1.31-.15" vector-effect="non-scaling-stroke"/><path stroke="#1ad7b3" d="M321 156.69q-1.09.59-1.27 1.54-.08.44.3.21.19-.12.31-.29.43-.61.72.08.12.3.39.49.29.2.61.06.22-.1.25-.29" vector-effect="non-scaling-stroke"/><path stroke="#11cdeb" d="M326.41 166.44q-.92-.28-1.16.31-.81 2.02 1.47 2.42" vector-effect="non-scaling-stroke"/><path stroke="#2a7984" d="M321.99 170.04q-.04-.86-.98-.79-.32.02-.57.26" vector-effect="non-scaling-stroke"/><path stroke="#11cdeb" d="M301.94 168.21q-.48-.08-.85.1" vector-effect="non-scaling-stroke"/><path stroke="#267580" d="M297.92 199.99q-.4.09-.8-.03M299.23 183.6q.96-1.8.56-4.37" vector-effect="non-scaling-stroke"/><path stroke="#2a7984" d="M297.68 201.15q.41-.27-.55-.15M298.75 222.38q.61-.21.32-.78a.77.76 72.2 0 0-.79-.41q-.48.07-.57.65" vector-effect="non-scaling-stroke"/><path stroke="#11cdeb" d="M293.07 219.51q1.16-.59-.51-1.79" vector-effect="non-scaling-stroke"/><path stroke="#267580" d="M211 62.37a.55.55 0 0 0-.55-.55.55.55 0 0 0-.55.55.55.55 0 0 0 .55.55.55.55 0 0 0 .55-.55" vector-effect="non-scaling-stroke"/><path stroke="#1cd976" d="M196.192 67.259a1.65.58-8.4 0 0-1.717-.333 1.65.58-8.4 0 0-1.547.815 1.65.58-8.4 0 0 1.717.333 1.65.58-8.4 0 0 1.547-.815" vector-effect="non-scaling-stroke"/><path stroke="#17d3af" d="M207.912 70.393a1.13.56 113.9 0 0 .97-.806 1.13.56 113.9 0 0-.054-1.26 1.13.56 113.9 0 0-.97.806 1.13.56 113.9 0 0 .054 1.26M306.654 94.619a1.1.4 41.5 0 0-.559-1.029 1.1.4 41.5 0 0-1.089-.429 1.1.4 41.5 0 0 .559 1.029 1.1.4 41.5 0 0 1.089.429M313.836 118.455a.92.59-5.3 0 0-.97-.502.92.59-5.3 0 0-.862.672.92.59-5.3 0 0 .97.502.92.59-5.3 0 0 .862-.672" vector-effect="non-scaling-stroke"/><path stroke="#35850f" d="M200.99 67.88q.2-.01.38-.01 1.08-.04.35-.83l-.76-.84q-.44-.48-.72.1l-1.38 2.8a.77.75 41.4 0 0 .06.76q.33.48.66.15.39-.38.37-.92-.01-.37.19-.69.29-.48.85-.52M203.13 69.61a.55.55 0 0 0-.55-.55.55.55 0 0 0-.55.55.55.55 0 0 0 .55.55.55.55 0 0 0 .55-.55" vector-effect="non-scaling-stroke"/><path stroke="#1fdd7a" d="M305.606 151.033a1.47.54 84.3 0 0 .391-1.517 1.47.54 84.3 0 0-.683-1.409 1.47.54 84.3 0 0-.391 1.517 1.47.54 84.3 0 0 .683 1.409" vector-effect="non-scaling-stroke"/><path stroke="#11cdeb" d="M307.38 151.28q-.1.27.16.36.06.02.08-.05.03-.17-.07-.33-.11-.19-.17.02" vector-effect="non-scaling-stroke"/><path stroke="#2a7984" d="M314.26 154.32a.36.36 0 0 0 .37.57q.19-.04.31-.17.3-.32-.08-.52-.37-.2-.6.12" vector-effect="non-scaling-stroke"/><path stroke="#1fdd7a" d="M310.78 157.77q-.95 1.1-2.34 1.48-.38.11-.22.46l.13.31q.05.11.16.08 1.41-.29 2.39-1.38.25-.28.22-.65-.11-1.25 1.16-1.09a.35.35 0 0 0 .38-.47q-.24-.66-.76-1.19-.45-.45-.72.13-.28.59-.13 1.24a1.27 1.25 59.4 0 1-.27 1.08" vector-effect="non-scaling-stroke"/><path stroke="#2a7984" d="M320.276 161.389a.93.65 92.7 0 0 .693-.898.93.65 92.7 0 0-.605-.96.93.65 92.7 0 0-.693.898.93.65 92.7 0 0 .605.96" vector-effect="non-scaling-stroke"/><path stroke="#1fdd7a" d="M311.31 162.11q.13-.13.19-.3.2-.54-.36-.67l-1.01-.24q-2.22-.53-.59 1.06l1.79 1.72q.48.47.3-.17-.1-.36-.33-.62a.58.57 46.2 0 1 .01-.78M315.85 162.522a.88.5.8 0 0-.873-.512.88.5.8 0 0-.887.488.88.5.8 0 0 .873.512.88.5.8 0 0 .887-.488M314.86 165.41q.35-1.2-.63-1.49a.67.67 0 0 0-.8.92l.74 1.6q.29.62.74.1.21-.23.05-.48-.2-.31-.1-.65" vector-effect="non-scaling-stroke"/><path stroke="#11cdeb" d="M320.839 167.659a1.13.37 33.8 0 0-.733-.936 1.13.37 33.8 0 0-1.145-.322 1.13.37 33.8 0 0 .733.936 1.13.37 33.8 0 0 1.145.322" vector-effect="non-scaling-stroke"/><path stroke="#267580" d="M303.736 179.16a.61.45 64.2 0 0 .14-.746.61.45 64.2 0 0-.671-.353.61.45 64.2 0 0-.14.745.61.45 64.2 0 0 .67.353" vector-effect="non-scaling-stroke"/><path stroke="#2a7984" d="M297.7 207.53q.15.62 1.11.76a.84.84 0 0 0 .95-.74q.06-.56-.97-.81" vector-effect="non-scaling-stroke"/><path stroke="#1fdd7a" d="M298.79 206.74q-.13-.69.6-1.09.45-.24.08-.58-.62-.59-1.54-.19-1.62.72-.23 2.65" vector-effect="non-scaling-stroke"/><path stroke="#35850f" d="M298.79 206.74q-.95.09-1.09.79" vector-effect="non-scaling-stroke"/><path stroke="#1ad7b3" d="M299.32 209.49q-.06-.15-.17-.25-.09-.09-.08.04.01.18.16.28.18.13.09-.07M296.154 217.883a1.23.36 134.1 0 0 1.115-.633 1.23.36 134.1 0 0 .597-1.133 1.23.36 134.1 0 0-1.114.633 1.23.36 134.1 0 0-.598 1.133" vector-effect="non-scaling-stroke"/><path stroke="#1fdd7a" d="m300.15 218.11.3-.33q.42-.46-.16-.67-.3-.1-.6-.01-.56.19-.68.77-.17.86.13 1.69.19.54.5.06.23-.35.22-.77a1.09 1.07 66.9 0 1 .29-.74" vector-effect="non-scaling-stroke"/><path stroke="#267580" d="M293.94 238.49a.48.48 0 0 0-.48-.48.48.48 0 0 0-.48.48.48.48 0 0 0 .48.48.48.48 0 0 0 .48-.48" vector-effect="non-scaling-stroke"/></g><path fill="#0dc9e7" d="M313.02 99.83q-2.95.3-4.97-.8-.48-1.24-2.8-.28a.09.09 0 0 1-.12-.08q-.01-1.45-1.41-1.69-.54-.08-.33-.59t.57-.89q.44-.47-.21-.45-.55.01-.97.42a1.38 1.37 41.8 0 0 .12 2.07q1.98 1.53 2.03 2.92-7.78 1.65-14.02 6.02a.26.26 0 0 0 .01.44c2.43 1.48 5.07 1.1 7.72 1.89 11.37 3.38 22.97 11.47 28.28 22.49a.49.49 0 0 1-.6.68c-1.33-.44-2.37-1.05-3.83-1.09q-3.34-.09-6.69.14 0-.21-.05-.37-.1-.33-.41-.17-.13.06-.17.25-.05.16.06.52l-8.95 2q-.82-.02-1.28-.29-.42-.25-.16-.66.16-.25.13-.54-.07-.73-.67-.31-1.49 1.05-.97 3.03l-1.63.71a1.55 1.55 0 0 0-.54 2.45q2.69 3.06 2.82 7.08l-1.78 1.33q1.62-4.98-2.42-7.98a1.42 1.41 22.4 0 1-.56-1.32q.48-3.49 1.23-6.67c1.29-5.48.88-11.64.66-17.16a3.09 3.08 2.5 0 0-2.7-2.94c-4.4-.57-13.06-3.05-13.98-8.07-.34-1.85-1.59-2.45-2.99-3.34q-.61-.39-.18-.97 3.18-4.29.55-9.01a2.05 1.99-3.9 0 0-1.06-.9q-4.33-1.62-8.55-2.5c-4.67-.97-10.03.09-14.96-.3q-.54-.04-.89-.45-2.45-2.83-5.29-5.09-.77-.61-1.15-1.58-.19-.5-.66-.74c-2.41-1.26-5.65-3.55-8.45-3.18-3.67.47-7.06 1.33-10.83 1.06a1.78 1.77-26.8 0 1-.83-.27c-2.71-1.73-5.5-3.82-8.92-3.83q-2.23 0-4.6.05c-1 .03-1.43-.3-2.32-.54q-.51-.14-1.02.01-3.59 1.05-7.36.8.2-.37.18-.67l.23-.24q.25-.26.18-.63l-.69-3.76q-.02-.08-.1-.05-.12.06-.24.11-.08-.65-.21-1.12t-.5-.67q-.58-.33-.97.14-.57-.25-1.1-1.24-.44-.81-.58.09-.16.95-.97.67-.35-.12-.65.1l-2.96 2.19q-.61.45-.01.9c.36.27.57.7.62 1.14q.02.22-.24.24-.76.06-.07.38.35.16.72.12.35-.03.55.26.11.17.02.33-.17.32-.52.55-.71.47-.38 1.27-5.17 2.3-9.85 3.3-2.94.63-1.14-1.78c3.47-4.67 8.05-8.89 14.44-10.37q10.11-2.34 23.9-.71 2.73.32.18 1.35-5.06 2.05-8.77 4.92-.73.56.18.68l3.37.44q.9.12 1.54-.53 7.47-7.6 19.58-8.44c7.07-.49 14.36-.35 20.75 2.44q3.98 1.73-.29 2.52-8.92 1.63-15.95 6.91-.73.54 0 1.08l3.86 2.87q.94.7 1.81-.1.85-.77 1.84-1.34 7.9-4.6 17.46-6.24 9.91-1.69 20.14 1.33 4.16 1.24-.01 2.44-9.87 2.86-18.75 10.92-.58.54.17.77 2.89.88 5.77 1.96 2.19.82 4.52.62c12.73-1.12 24.66 1.39 33.74 10.29q1.83 1.8 2.65 3.92a.34.34 0 0 1-.39.45zM211 62.37a.55.55 0 0 0-.55-.55.55.55 0 0 0-.55.55.55.55 0 0 0 .55.55.55.55 0 0 0 .55-.55m-14.808 4.889a1.65.58-8.4 0 0-1.717-.333 1.65.58-8.4 0 0-1.547.815 1.65.58-8.4 0 0 1.717.333 1.65.58-8.4 0 0 1.547-.815m11.72 3.134a1.13.56 113.9 0 0 .97-.806 1.13.56 113.9 0 0-.054-1.26 1.13.56 113.9 0 0-.97.806 1.13.56 113.9 0 0 .054 1.26m98.742 24.226a1.1.4 41.5 0 0-.559-1.029 1.1.4 41.5 0 0-1.089-.429 1.1.4 41.5 0 0 .559 1.029 1.1.4 41.5 0 0 1.089.429m7.182 23.836a.92.59-5.3 0 0-.97-.502.92.59-5.3 0 0-.862.672.92.59-5.3 0 0 .97.502.92.59-5.3 0 0 .862-.672"/><circle cx="210.45" cy="62.37" r=".55" fill="#3f2119"/><path fill="#2ae905" d="M202.8 64.25q.32 2.49 1.68 1.65.12-.05.24-.11.08-.03.1.05l.69 3.76q.07.37-.18.63l-.23.24q-.16-.38-.48-.38t-.43.28q-.11.27.03.69l-6.99.19q-.33-.8.38-1.27.35-.23.52-.55.09-.16-.02-.33-.2-.29-.55-.26-.37.04-.72-.12-.69-.32.07-.38.26-.02.24-.24c-.05-.44-.26-.87-.62-1.14q-.6-.45.01-.9l2.96-2.19q.3-.22.65-.1.81.28.97-.67.14-.9.58-.09.53.99 1.1 1.24m-1.81 3.63q.2-.01.38-.01 1.08-.04.35-.83l-.76-.84q-.44-.48-.72.1l-1.38 2.8a.77.75 41.4 0 0 .06.76q.33.48.66.15.39-.38.37-.92-.01-.37.19-.69.29-.48.85-.52m2.14 1.73a.55.55 0 0 0-.55-.55.55.55 0 0 0-.55.55.55.55 0 0 0 .55.55.55.55 0 0 0 .55-.55"/><path fill="#3f2119" d="M204.48 65.9q-1.36.84-1.68-1.65.39-.47.97-.14.37.2.5.67t.21 1.12M200.14 68.4q-.2.32-.19.69.02.54-.37.92-.33.33-.66-.15a.77.75 41.4 0 1-.06-.76l1.38-2.8q.28-.58.72-.1l.76.84q.73.79-.35.83-.18 0-.38.01-.56.04-.85.52"/><ellipse fill="#2ae905" rx="1.65" ry=".58" transform="rotate(-8.4 556.868 -1290.952)"/><ellipse fill="#20dc77" rx="1.13" ry=".56" transform="rotate(113.9 81.62 102.468)"/><circle cx="202.58" cy="69.61" r=".55" fill="#3f2119"/><path fill="#3f2119" d="M205.1 70.47q.02.3-.18.67-.39.05-.7-.08-.14-.42-.03-.69.11-.28.43-.28t.48.38"/><ellipse fill="#20dc77" rx="1.1" ry=".4" transform="rotate(41.5 29.006 450.557)"/><path fill="#20dc77" d="m308.05 99.03-.1.88-3.02.55q-.05-1.39-2.03-2.92a1.38 1.37 41.8 0 1-.12-2.07q.42-.41.97-.42.65-.02.21.45-.36.38-.57.89t.33.59q1.4.24 1.41 1.69a.09.09 0 0 0 .12.08q2.32-.96 2.8.28"/><path fill="#3f2119" d="m313.02 99.83-5.07.08.1-.88q2.02 1.1 4.97.8"/><ellipse fill="#20dc77" rx=".92" ry=".59" transform="rotate(-5.3 1437.026 -3321.147)"/><path fill="#3f2119" d="m315.8 131.03-.57.23q-.11-.36-.06-.52.04-.19.17-.25.31-.16.41.17.05.16.05.37"/><path fill="#2ae905" d="m306.28 133.26-2.95 1.23q-.52-1.98.97-3.03.6-.42.67.31.03.29-.13.54-.26.41.16.66.46.27 1.28.29"/><path fill="#14d1ee" d="M303.98 144.73q5.61 1.82 10.3 5.43-.39 1.26.45 1.63.5.21 1.31-.15l4.96 5.05q-1.09.59-1.27 1.54-.08.44.3.21.19-.12.31-.29.43-.61.72.08.12.3.39.49.29.2.61.06.22-.1.25-.29 2.95 3.67 4.1 7.95-.92-.28-1.16.31-.81 2.02 1.47 2.42.47 1.37.07 2.22-.24.51-.76.3l-4.04-1.65q-.04-.86-.98-.79-.32.02-.57.26-8.85-2.61-18.21-1.64-.1.01-.16.1-.08.11-.13.24-.48-.08-.85.1c.09-3.77.82-7.76.93-11.13q.2-5.57.18-11.12zm1.626 6.303a1.47.54 84.3 0 0 .391-1.517 1.47.54 84.3 0 0-.683-1.409 1.47.54 84.3 0 0-.391 1.517 1.47.54 84.3 0 0 .683 1.409m1.774.247q-.1.27.16.36.06.02.08-.05.03-.17-.07-.33-.11-.19-.17.02m6.88 3.04a.36.36 0 0 0 .37.57q.19-.04.31-.17.3-.32-.08-.52-.37-.2-.6.12m-3.48 3.45q-.95 1.1-2.34 1.48-.38.11-.22.46l.13.31q.05.11.16.08 1.41-.29 2.39-1.38.25-.28.22-.65-.11-1.25 1.16-1.09a.35.35 0 0 0 .38-.47q-.24-.66-.76-1.19-.45-.45-.72.13-.28.59-.13 1.24a1.27 1.25 59.4 0 1-.27 1.08m9.496 3.619a.93.65 92.7 0 0 .693-.898.93.65 92.7 0 0-.605-.96.93.65 92.7 0 0-.693.898.93.65 92.7 0 0 .605.96m-8.966.721q.13-.13.19-.3.2-.54-.36-.67l-1.01-.24q-2.22-.53-.59 1.06l1.79 1.72q.48.47.3-.17-.1-.36-.33-.62a.58.57 46.2 0 1 .01-.78m4.54.412a.88.5.8 0 0-.873-.512.88.5.8 0 0-.887.488.88.5.8 0 0 .873.512.88.5.8 0 0 .887-.488m-.99 2.888q.35-1.2-.63-1.49a.67.67 0 0 0-.8.92l.74 1.6q.29.62.74.1.21-.23.05-.48-.2-.31-.1-.65m5.979 2.249a1.13.37 33.8 0 0-.733-.936 1.13.37 33.8 0 0-1.145-.322 1.13.37 33.8 0 0 .733.936 1.13.37 33.8 0 0 1.145.322"/><ellipse fill="#2ae905" rx="1.47" ry=".54" transform="rotate(84.3 70.109 243.518)"/><path fill="#0dc9e7" d="M316.04 151.64q-.81.36-1.31.15-.84-.37-.45-1.63 1.03.61 1.76 1.48M307.55 151.26q.1.16.07.33-.02.07-.08.05-.26-.09-.16-.36.06-.21.17-.02"/><path fill="#3f2119" d="M314.26 154.32q.23-.32.6-.12.38.2.08.52-.12.13-.31.17a.36.36 0 0 1-.37-.57"/><path fill="#2ae905" d="M311.05 156.69q-.15-.65.13-1.24.27-.58.72-.13.52.53.76 1.19a.35.35 0 0 1-.38.47q-1.27-.16-1.16 1.09.03.37-.22.65-.98 1.09-2.39 1.38-.11.03-.16-.08l-.13-.31q-.16-.35.22-.46 1.39-.38 2.34-1.48a1.27 1.25 59.4 0 0 .27-1.08"/><path fill="#20dc77" d="M321 156.69q.87.81 1.31 1.8-.03.19-.25.29-.32.14-.61-.06-.27-.19-.39-.49-.29-.69-.72-.08-.12.17-.31.29-.38.23-.3-.21.18-.95 1.27-1.54"/><ellipse fill="#3f2119" rx=".93" ry=".65" transform="rotate(92.7 83.624 233.015)"/><path fill="#2ae905" d="M311.3 162.89q.23.26.33.62.18.64-.3.17l-1.79-1.72q-1.63-1.59.59-1.06l1.01.24q.56.13.36.67-.06.17-.19.3a.58.57 46.2 0 0-.01.78"/><ellipse fill="#2ae905" rx=".88" ry=".5" transform="rotate(.8 -11481.247 22638.953)"/><path fill="#2ae905" d="M314.96 166.06q.16.25-.05.48-.45.52-.74-.1l-.74-1.6a.67.67 0 0 1 .8-.92q.98.29.63 1.49-.1.34.1.65"/><ellipse fill="#0dc9e7" rx="1.13" ry=".37" transform="rotate(33.8 -114.93 609.972)"/><path fill="#0dc9e7" d="M326.41 166.44q.55 1.49.31 2.73-2.28-.4-1.47-2.42.24-.59 1.16-.31M301.94 168.21l-.26 3.87q-.04.54.45.76c7.46 3.22 11.58 11.84 12.57 19.75q.52 4.12-.83 7.96-.12.37-.46.18-6.42-3.66-13.44-4.95-.89-.17-1.12.71l-.93 3.5q-.4.09-.8-.03l2.11-16.36q.96-1.8.56-4.37l1.3-10.92q.37-.18.85-.1m1.796 10.95a.61.45 64.2 0 0 .14-.746.61.45 64.2 0 0-.671-.353.61.45 64.2 0 0-.14.745.61.45 64.2 0 0 .67.353"/><path fill="#3f2119" d="M321.99 170.04q-.88-.09-1.55-.53.25-.24.57-.26.94-.07.98.79"/><ellipse fill="#3f2119" rx=".61" ry=".45" transform="rotate(64.2 9.37 331.191)"/><path fill="#3f2119" d="M299.79 179.23q.4 2.57-.56 4.37-.28-2.42.56-4.37M297.92 199.99q.18.69-.24 1.16.41-.27-.55-.15-.16-.53-.01-1.04.4.12.8.03"/><path fill="#14d1ee" d="M297.68 201.15q1.1 1.41 2.26 2.86c4.96 6.18 5.57 14.41 4.84 21.87q-.34 3.42-2.17.52-1.11-1.76-3.86-4.02.61-.21.32-.78a.77.76 72.2 0 0-.79-.41q-.48.07-.57.65l-4.64-2.33q1.16-.59-.51-1.79l4.57-16.72q.96-.12.55.15m.02 6.38q.15.62 1.11.76a.84.84 0 0 0 .95-.74q.06-.56-.97-.81-.13-.69.6-1.09.45-.24.08-.58-.62-.59-1.54-.19-1.62.72-.23 2.65m1.62 1.96q-.06-.15-.17-.25-.09-.09-.08.04.01.18.16.28.18.13.09-.07m-3.166 8.393a1.23.36 134.1 0 0 1.115-.633 1.23.36 134.1 0 0 .597-1.133 1.23.36 134.1 0 0-1.114.633 1.23.36 134.1 0 0-.598 1.133m3.996.227.3-.33q.42-.46-.16-.67-.3-.1-.6-.01-.56.19-.68.77-.17.86.13 1.69.19.54.5.06.23-.35.22-.77a1.09 1.07 66.9 0 1 .29-.74"/><path fill="#2ae905" d="M298.79 206.74q-.95.09-1.09.79-1.39-1.93.23-2.65.92-.4 1.54.19.37.34-.08.58-.73.4-.6 1.09"/><path fill="#3f2119" d="M298.79 206.74q1.03.25.97.81a.84.84 0 0 1-.95.74q-.96-.14-1.11-.76.14-.7 1.09-.79"/><path fill="#20dc77" d="M299.32 209.49q.09.2-.09.07-.15-.1-.16-.28-.01-.13.08-.04.11.1.17.25"/><ellipse fill="#20dc77" rx="1.23" ry=".36" transform="rotate(134.1 102.561 171.384)"/><path fill="#2ae905" d="M299.86 218.85q.01.42-.22.77-.31.48-.5-.06-.3-.83-.13-1.69.12-.58.68-.77.3-.09.6.01.58.21.16.67l-.3.33a1.09 1.07 66.9 0 0-.29.74"/><path fill="#0dc9e7" d="M293.07 219.51q-.72 2.9-.78 5.8-.05 2.11.64 3.59 3.86 8.32 2.37 17.16-.82 4.8-2.69.31-1.02-2.43-2.6-4.45a.5.49 31.8 0 0-.88.2l-.71 3.42q-.17.8.34 1.44 2.69 3.41 2.15 8.16a.59.59 0 0 1-1.03.32c-2.17-2.47-4.41-4.23-3.4-7.97q1.48-5.44 3.22-11.12 1.77-5.73 1.62-12.91c-.04-1.89.65-3.92 1.24-5.74q1.67 1.2.51 1.79m.87 18.98a.48.48 0 0 0-.48-.48.48.48 0 0 0-.48.48.48.48 0 0 0 .48.48.48.48 0 0 0 .48-.48"/><path fill="#3f2119" d="M298.75 222.38q-.58-.01-1.04-.54.09-.58.57-.65a.77.76 72.2 0 1 .79.41q.29.57-.32.78"/><circle cx="293.46" cy="238.49" r=".48" fill="#3f2119"/></svg>