<svg xmlns="http://www.w3.org/2000/svg" viewBox="0 0 382 382"><g fill="none" stroke="#417003" stroke-width="2"><path d="M249.58 69.03q-.34-.44-.73-.67-.5-.29-.71.24-.26.65-.18 1.4M244.5 72.63q-2.99-.61-4.8 1.29M239.04 74l-.12-2.93q-.03-.71-.71-.92-1.04-.33-1.28-1.38-.23-1.03-1.04-.35-.78.64-.49 1.54.17.51-.26.83l-2.49 1.85a.33.33 0 0 1-.37.01l-.3-.19q-.58-.37-.82.28-.46 1.24-1.65 2.11M219.2 70.88l-.15-1.84M219.86 61.33q-1.66 1-3.37 1.95-1.01.56-1.26 1.21-.42 1.06.6 1.92.39.32.89.22l1.56-.33M309.73 91.8q-.89 1.07-2.18 1.45-.5.14-.6.65-.35 1.98.8 3.64.33.48-.25.49l-.66.02a.68.68 0 0 1-.56-.27q-1.79-2.32-3.38-5.13-.33-.58-.84-.16-.17.14-.36.26a.4.4 0 0 1-.62-.31l-.12-1.72a.58.57 68.5 0 0-.94-.41q-1.83 1.52-.55 3.7.28.47.03.97l-1.1 2.16a1.47 1.42 89 0 1-.54.58q-1.1.67-.31 1.53.63.68-.3.7l-2.54.06q-.63.01-.64.63l-.07 3.89M293.69 108.11q0 .69-.43.73M254.01 81.71l1.72-2.07a.89.88-35.4 0 0 .15-.86q-.88-2.58-2.89-4.44M310.02 92.07q-.1.67.02 1.14a.45.44 5.5 0 0 .26.31q.84.38.88-.58M297.56 108.57q-1.34.84-.88 1.1M299.92 109.24q-.19.47-1.04.91M314.65 192.51l-2.32-2.83q-.35-.42-.3-.96.27-2.65-2.09-4.45-.67-.51-.8.32-.15.95-.85 1.68-.55.57.23.69l.65.1a1.01 1.01 0 0 1 .83 1.25q-.11.43-.52.78-1.31 1.1-2.32 2.28-.44.52-.05 1.07l.82 1.13a1.18 1.07-61.4 0 1 .19.78q-.04.32-.4.48a.46.46 0 0 1-.54-.13q-.56-.7-1.25-.18-.37.28-.79.07c-1.61-.81-4.46-1.15-4.91 1.14M302.85 208.88q-.49.31-.4.65.1.37.84.39M288.36 246.69q-.6.38-1.69.52M301.27 115.79l1.41-2.13q.31-.48-.22-.66-.6-.21-1.36.26M289.3 247.74l-1.11 2.92q-.27.69.2 1.27.51.62.54 1.47.04.79.78.5.66-.25 1.25-.92M311.62 184.9q.44-.23.18-.55a.39.39 0 0 0-.66.07q-.12.25.14.44a.32.31 51 0 0 .34.04" vector-effect="non-scaling-stroke"/></g><path fill="#82e005" d="M249.58 69.03q-.34-.44-.73-.67-.5-.29-.71.24-.26.65-.18 1.4l-3.46 2.63q-2.99-.61-4.8 1.29l-.66.08-.12-2.93q-.03-.71-.71-.92-1.04-.33-1.28-1.38-.23-1.03-1.04-.35-.78.64-.49 1.54.17.51-.26.83l-2.49 1.85a.33.33 0 0 1-.37.01l-.3-.19q-.58-.37-.82.28-.46 1.24-1.65 2.11c-3.04-1.95-6.46-4.52-10.31-3.97l-.15-1.84.9.02q.56.01.96-.39 7.92-7.98 20.65-8.61 7.01-.35 12.57.4 3.99.54 8.64 2.71.43.2.45.67.02.39-.24.66-.23.23-.56.29-6.77 1.15-12.84 4.24"/><path d="M219.86 61.33q-1.66 1-3.37 1.95-1.01.56-1.26 1.21-.42 1.06.6 1.92.39.32.89.22l1.56-.33q-1.39.73-2.12 1.68-.35.44.2.54l2.69.52.15 1.84q-2.18.11-4.31-.14-2.52-.3-4.4.04-4.07.73-8.76.14c-1.56-.2-3.65.18-5.09.72q-4.31 1.62-9.01 2.86-3.27.86-1.25-1.85c2.73-3.69 6.64-7.59 10.95-9.23 6.83-2.59 15.25-2.8 22.53-2.09"/><path fill="#82e005" d="m218.28 66.3-1.56.33q-.5.1-.89-.22-1.02-.86-.6-1.92.25-.65 1.26-1.21 1.71-.95 3.37-1.95 2.91-.07 5.05.38 1.78.38.15 1.19zM309.73 91.8q-.89 1.07-2.18 1.45-.5.14-.6.65-.35 1.98.8 3.64.33.48-.25.49l-.66.02a.68.68 0 0 1-.56-.27q-1.79-2.32-3.38-5.13-.33-.58-.84-.16-.17.14-.36.26a.4.4 0 0 1-.62-.31l-.12-1.72a.58.57 68.5 0 0-.94-.41q-1.83 1.52-.55 3.7.28.47.03.97l-1.1 2.16a1.47 1.42 89 0 1-.54.58q-1.1.67-.31 1.53.63.68-.3.7l-2.54.06q-.63.01-.64.63l-.07 3.89-2.99 1.93q-.51.33.05.56l2.63 1.09q0 .69-.43.73-3.51-1.12-6.52-3.32c-1.68-1.23-2.27-2.83-2.7-4.73a1.37 1.32-80.1 0 0-.54-.8l-2.15-1.48q-.49-.34-.13-.82 3.3-4.46.48-9.24a1.87 1.86 83.8 0 0-1.04-.84c-4.99-1.65-9.45-3.19-14.94-2.75q-4.21.33-8.48.04a.98.98 0 0 1-.64-.31l-2.59-2.88 1.72-2.07a.89.88-35.4 0 0 .15-.86q-.88-2.58-2.89-4.44c8.32-4.72 18.28-7.42 27.86-6.51q4.76.45 9.25 1.66 1.05.29 1.94.89a.63.62 54.3 0 1-.18 1.12q-11.39 3.17-20.35 11.47-.54.5.17.72 2.89.92 5.91 2.03 2.04.75 4.83.53c9.59-.79 18.94.48 27.31 5.55"/><path d="M249.58 69.03q-.73.65-1.62.97-.08-.75.18-1.4.21-.53.71-.24.39.23.73.67M239.04 74q-4.7 1.28-9.53.85 1.19-.87 1.65-2.11.24-.65.82-.28l.3.19a.33.33 0 0 0 .37-.01l2.49-1.85q.43-.32.26-.83-.29-.9.49-1.54.81-.68 1.04.35.24 1.05 1.28 1.38.68.21.71.92zM244.5 72.63l4.99 3.44a.93.93 0 0 0 1.08-.01l2.42-1.72q2.01 1.86 2.89 4.44a.89.88-35.4 0 1-.15.86l-1.72 2.07q-1.82-1.1-3.17-2.68-1.72-2.01-2.96-2.75c-3.04-1.82-5.12-2.61-8.18-2.36q1.81-1.9 4.8-1.29M309.73 91.8q.15.13.29.27-.1.67.02 1.14a.45.44 5.5 0 0 .26.31q.84.38.88-.58 4.71 2.88 6.99 6.91.85 1.51-.78.93c-7.09-2.52-17.11.23-23.39 3.75l.07-3.89q.01-.62.64-.63l2.54-.06q.93-.02.3-.7-.79-.86.31-1.53a1.47 1.42 89 0 0 .54-.58l1.1-2.16q.25-.5-.03-.97-1.28-2.18.55-3.7a.58.57 68.5 0 1 .94.41l.12 1.72a.4.4 0 0 0 .62.31q.19-.12.36-.26.51-.42.84.16 1.59 2.81 3.38 5.13a.68.68 0 0 0 .56.27l.66-.02q.58-.01.25-.49-1.15-1.66-.8-3.64.1-.51.6-.65 1.29-.38 2.18-1.45"/><path fill="#82e005" d="M311.18 92.94q-.04.96-.88.58a.45.44 5.5 0 1-.26-.31q-.12-.47-.02-1.14.68.18 1.16.87"/><path d="M297.56 108.57q-1.34.84-.88 1.1l-3.42-.83q.43-.04.43-.73 2.1-.12 3.87.46"/><path fill="#82e005" d="M299.92 109.24q-.19.47-1.04.91l-2.2-.48q-.46-.26.88-1.1z"/><path d="m314.65 192.51-2.32-2.83q-.35-.42-.3-.96.27-2.65-2.09-4.45-.67-.51-.8.32-.15.95-.85 1.68-.55.57.23.69l.65.1a1.01 1.01 0 0 1 .83 1.25q-.11.43-.52.78-1.31 1.1-2.32 2.28-.44.52-.05 1.07l.82 1.13a1.18 1.07-61.4 0 1 .19.78q-.04.32-.4.48a.46.46 0 0 1-.54-.13q-.56-.7-1.25-.18-.37.28-.79.07c-1.61-.81-4.46-1.15-4.91 1.14l-.83.17q-.45.09-.56.54l-.94 4.04a1.77 1.76 30 0 0 .44 1.64q2.99 3.14 4.51 6.76-.49.31-.4.65.1.37.84.39 2.72 8.16 1.37 16.45-.44 2.67-1.89.39-2.92-4.55-9.31-7.06a.44.43 14.9 0 0-.59.34q-.41 2.65-.64 5.67-.12 1.65.61 3.09 3.95 7.74 2.47 17.07-.81 5.14-2.77.32-.69-1.67-2.64-4.36a.38.37 32.2 0 0-.67.15l-.87 4.71q-.6.38-1.69.52 1.14-5.45 3.11-10.7 1.29-3.44 1.51-11.48.09-3.53.94-6.49 2.05-7.15 4.16-14.93.59-2.18.78-4.3c.17-1.95.72-3.73.89-5.68q.59-7.07 1.55-13.95.35-2.5.48-4.97c.12-2.31.87-4.37.96-6.67.15-4.06 1.01-7.95 1.04-12.09q.04-5.51.12-10.69.01-.6.37-1.06.32-.41.22-.93c-.32-1.74-1.33-4.21-2.95-5.1q-.78-.43-.65-1.29.47-3.37 1.23-6.7c1.06-4.63.87-9.63.84-14.39l1.41-2.13q.31-.48-.22-.66-.6-.21-1.36.26.48-1.92-2.22-3.11.85-.44 1.04-.91 13.99 4.52 23.26 16.07 2.05 2.56 3.32 5.12 1.2 2.4-1.18 1.17-1.24-.64-2.44-.7-10.86-.48-21.44 4.44-.69.32-.58 1.07.18 1.2.94 2.13 2.06 2.53 2.07 5.59.01.53.51.71 13.41 4.8 20.47 17.57 2.24 4.04 2.06 8.9a.64.64 0 0 1-.92.55q-10.61-5.22-23.38-4.01a.69.69 0 0 0-.63.63l-.31 3.56q-.06.67.56.93c7.41 3.08 11.6 11.95 12.42 19.54m-3.03-7.61q.44-.23.18-.55a.39.39 0 0 0-.66.07q-.12.25.14.44a.32.31 51 0 0 .34.04"/><path fill="#82e005" d="m301.27 115.79-.17-2.53q.76-.47 1.36-.26.53.18.22.66zM314.65 192.51q.53 4.04-.73 7.74-.17.48-.62.25-6.28-3.22-13.07-4.77c.45-2.29 3.3-1.95 4.91-1.14q.42.21.79-.07.69-.52 1.25.18a.46.46 0 0 0 .54.13q.36-.16.4-.48a1.18 1.07-61.4 0 0-.19-.78l-.82-1.13q-.39-.55.05-1.07 1.01-1.18 2.32-2.28.41-.35.52-.78a1.01 1.01 0 0 0-.83-1.25l-.65-.1q-.78-.12-.23-.69.7-.73.85-1.68.13-.83.8-.32 2.36 1.8 2.09 4.45-.05.54.3.96zM311.62 184.9a.32.31 51 0 1-.34-.04q-.26-.19-.14-.44a.39.39 0 0 1 .66-.07q.26.32-.18.55M302.85 208.88q.03.72.44 1.04-.74-.02-.84-.39-.09-.34.4-.65M288.36 246.69q.63.44.94 1.05l-1.11 2.92q-.27.69.2 1.27.51.62.54 1.47.04.79.78.5.66-.25 1.25-.92l-.07 2.15a.54.54 0 0 1-.94.33c-2.08-2.42-4.8-4.37-3.28-8.25q1.09-.14 1.69-.52"/><path d="M290.96 252.98q-.59.67-1.25.92-.74.29-.78-.5-.03-.85-.54-1.47-.47-.58-.2-1.27l1.11-2.92q1.63 2.51 1.66 5.24"/></svg>