<svg xmlns="http://www.w3.org/2000/svg" viewBox="0 0 382 382"><g fill="none" stroke-width="2"><path stroke="#254514" d="M244.64 72.29q-1.06-.67-2.04.72a.65.65 0 0 1-1 .07l-2.27-2.41q-.43-.45-.09-.97.33-.49.49-1.08.22-.85-.5-.33-1.01.72-1.3 1.96-.12.52-.63.67-1.64.48-1.41 2.34.03.25-.21.35-.45.2-.55-.29-.19-1.01-1.06-1.31-.99-.34-.63.64.46 1.3-.52 2.22M220.49 70.68q-.77-.72-1.23-1.62M221.44 61.3q-3.08 3.31-7 5.62-.32.19-.33.44-.03.51.45.31.98-.41 1.9-.09M252.68 74.49l1.62 1.31q.16.13.29-.02l.2-.23q.04-.05 0-.1-.63-.66-.82-1.47M301.24 87.98q.83 2.78.47 4.62-.11.55-.59.84-1.75 1.03-.63 2.63 1.58 2.26-1.1 1.81-.19-.04-.3-.19-.76-1.07-1.78-.54-.23.11-.25.38c-.08.88.42 1.44.75 2.17q.23.49-.08.92-.76 1.1-.47 2.22M290.73 106.56q-.62.52.2.45M304.82 111.2l-.46.68q-.35.52.05.99l.68.81q.61.73.82-.2l.36-1.54" vector-effect="non-scaling-stroke"/><path stroke="#254514" d="m308.06 112.63-.01 2.76q-.01.66.66.68l.55.02q.84.02.69.85-.28 1.47.76 2.47.55.53-.21.55l-1.94.04q-.86.02-.29-.62.15-.18.36-.26a.55.55 0 0 0 .17-.91l-1.17-1.14q-.55-.54-1.13-.02l-.79.71q-.45.41-1 .16l-3.49-1.59M255.99 84.24q-.3-2.15-.39-2.25a1.14 1.04-22.9 0 1 .8-1.74q1.28-.19 1.63-1.1.14-.34-.11-.62L256.56 77q-.31-.34-.12-.76.07-.16.18-.28.52-.55-.35-.85-1.17-.39-2.11-1.44M306.06 89.9l.09 3.52q.01.58.52.86l2.56 1.42q.41.22.65-.17 1.11-1.74.37-3.3" vector-effect="non-scaling-stroke"/><path stroke="#2e5219" d="M300.91 136.68q-.45-.64-1.7-.23" vector-effect="non-scaling-stroke"/><path stroke="#142e08" d="M300.16 131.54q.03.19.16.2.12.01.19-.09.28-.41.45-1.06" vector-effect="non-scaling-stroke"/><path stroke="#2e5219" d="M300.96 130.59q.65.7 1.4 1.07.81.39.54-.47-.29-.93.53-1.33.61-.3.09-.74-.8-.66-.67-1.75.01-.1-.09-.1h-.27q-.25.01-.26.26-.11 1.45-1.36 2.12" vector-effect="non-scaling-stroke"/><path stroke="#142e08" d="M300.87 129.65q-.21-.05-.23.03" vector-effect="non-scaling-stroke"/><path stroke="#2e5219" d="M301.01 137.54q-1.33-.64-1.73.12" vector-effect="non-scaling-stroke"/><path stroke="#427f21" d="m300.96 130.59-.09-.94" vector-effect="non-scaling-stroke"/><path stroke="#254514" d="M301.66 172.54q-.56-.17-1.34.51M304.06 173.89q-.21.89-.7.67-.3-.12-.49-.35-.82-1.01-.84.29l-.09 5.75q-.02 1.11.84.41 1.18-.94 2.6-.68.81.15.25.74-.29.3-.46.68-.22.51.02 1.01l1.86 3.85q.39.8 1.08.23.48-.39.92.08.61.65.76-.23.38-2.22 1.74-4.02M302.15 196.17l-1.65-5.34q-.2-.64.45-.78.49-.11.8-.53.38-.51.05-1.05l-.29-.48q-.33-.53.1-.98.5-.52.31-1.26-.33-1.3-.91-.08-.13.29-.13.61 0 .56-.53.7-.67.17-1.52-.23" vector-effect="non-scaling-stroke"/><path stroke="#39721b" d="m300.22 175.35-.09-1.4" vector-effect="non-scaling-stroke"/><path stroke="#254514" d="M297.94 200.06q-.5-.27-.86.17M298.44 202.41l.21 3.07q.04.54-.5.55-1.08.01-2.06-1.43" vector-effect="non-scaling-stroke"/><path stroke="#142e08" d="M303.19 210.03q-.35-.19-.43-.11a1.01 1.01 0 0 0 .18 1.62q.36.21.8-.05" vector-effect="non-scaling-stroke"/><path stroke="#254514" d="M304.76 225.42q-.95-.98-1.86-2.07-.11-.13-.27-.16-.13-.03-.25.01-.59.21-.31.77.59 1.14 1.12 2.37.16.38.57.44.42.06.86-.35" vector-effect="non-scaling-stroke"/><path stroke="#142e08" d="M293.14 247.65q.68-1.17 1.1-1.62 1.02-1.1-.46-.86-.72.12-.86 1.61M290.8 251.59l-1.9-1.82q-.37-.35-.63.09-.58 1.03-1.5 1.78" vector-effect="non-scaling-stroke"/><path stroke="#254514" d="M240.17 70.32q-.35.26-.11.54.16.18.38.09.31-.14.2-.48-.13-.42-.47-.15M254.97 77.45a.42.42 0 0 0-.42-.42.42.42 0 0 0-.42.42.42.42 0 0 0 .42.42.42.42 0 0 0 .42-.42" vector-effect="non-scaling-stroke"/><path stroke="#142e08" d="M301.35 94.17q-.42.06-.19.41.24.37.45-.02.25-.46-.26-.39" vector-effect="non-scaling-stroke"/><path stroke="#254514" d="M309.93 97.458a.91.49-2 0 0-.927-.458.91.49-2 0 0-.892.522.91.49-2 0 0 .926.458.91.49-2 0 0 .892-.522" vector-effect="non-scaling-stroke"/><path stroke="#2e5219" d="M305.36 131.03q.22-.24.34-.54.21-.54-.26-.2-.94.68-1.38 1.72-.11.25.05.48.08.11.2.16a.4.4 0 0 0 .56-.28l.14-.66a1.52 1.41-20 0 1 .35-.68M296.65 206.95q.21.89.66 1.73.08.16.26.12l.29-.07a.32.31-21.2 0 0 .21-.46l-1.02-1.89q-.24-.45-.5-.01-.16.27.05.49.04.04.05.09" vector-effect="non-scaling-stroke"/><path stroke="#142e08" d="M302.87 212.11a.18.17 75 0 0-.15-.09q-.41-.01-.39.43.02.41.38.21.35-.2.16-.55" vector-effect="non-scaling-stroke"/></g><path fill="#4a8927" d="M244.64 72.29q-1.06-.67-2.04.72a.65.65 0 0 1-1 .07l-2.27-2.41q-.43-.45-.09-.97.33-.49.49-1.08.22-.85-.5-.33-1.01.72-1.3 1.96-.12.52-.63.67-1.64.48-1.41 2.34.03.25-.21.35-.45.2-.55-.29-.19-1.01-1.06-1.31-.99-.34-.63.64.46 1.3-.52 2.22c-1.59.24-2.78.37-4.23-.61q-4.05-2.74-8.2-3.58-.77-.72-1.23-1.62 1.04.14 1.37-.19 8.27-8.06 19.82-8.74 5.41-.32 11.34-.01c3.36.17 6.42 1.34 9.56 2.33q.93.29 1.61.9a.83.82-28 0 1-.44 1.43q-9.5 1.37-17.88 7.51m-4.47-1.97q-.35.26-.11.54.16.18.38.09.31-.14.2-.48-.13-.42-.47-.15"/><path d="M221.44 61.3q-3.08 3.31-7 5.62-.32.19-.33.44-.03.51.45.31.98-.41 1.9-.09-.44.14-.6.42a.42.42 0 0 0 .3.62l3.1.44q.46.9 1.23 1.62-3.94.6-7.3-.28-.65-.17-1.28.04-3.21 1.06-7.35.67-5.37-.5-6.47-.06-5.4 2.17-10.53 3.46-3.13.79-1.21-1.82c3.15-4.27 7.5-8.41 12.87-9.92q4.99-1.41 9.27-1.62 5.79-.28 12.95.15"/><path fill="#4a8927" d="M221.44 61.3q2.59.16 3.55.43 1.9.52.06 1.21-4.47 1.67-8.59 4.64-.92-.32-1.9.09-.48.2-.45-.31.01-.25.33-.44 3.92-2.31 7-5.62M301.24 87.98q.83 2.78.47 4.62-.11.55-.59.84-1.75 1.03-.63 2.63 1.58 2.26-1.1 1.81-.19-.04-.3-.19-.76-1.07-1.78-.54-.23.11-.25.38c-.08.88.42 1.44.75 2.17q.23.49-.08.92-.76 1.1-.47 2.22l-6.53 3.72q-.62.52.2.45 1.68.84 5.8 1.31 2.64.31 8.09 2.88l-.46.68q-.35.52.05.99l.68.81q.61.73.82-.2l.36-1.54q.89.12 1.79.69l-.01 2.76q-.01.66.66.68l.55.02q.84.02.69.85-.28 1.47.76 2.47.55.53-.21.55l-1.94.04q-.86.02-.29-.62.15-.18.36-.26a.55.55 0 0 0 .17-.91l-1.17-1.14q-.55-.54-1.13-.02l-.79.71q-.45.41-1 .16l-3.49-1.59-.11-3.18q-.1-2.81-2.89-3.21-6.38-.92-11.23-4.18-2.23-1.5-2.94-4.94a1.35 1.32-78.9 0 0-.54-.82l-2.08-1.45a.65.65 0 0 1-.17-.89c1.82-2.65 2.34-5.17.93-8.35q-.61-1.39-1.96-1.84-4.05-1.38-7.51-2.19-2.42-.58-6.95-.27-5.44.37-9.78-.77-.3-2.15-.39-2.25a1.14 1.04-22.9 0 1 .8-1.74q1.28-.19 1.63-1.1.14-.34-.11-.62L256.56 77q-.31-.34-.12-.76.07-.16.18-.28.52-.55-.35-.85-1.17-.39-2.11-1.44 10.48-5.55 20.22-5.98 8.57-.38 16.3 2.06 3.5 1.11-.03 2.13-10.11 2.91-19.24 11.15a.4.39-58 0 0 .15.67q2.85.81 5.88 1.98 2.09.81 4.36.61 6.25-.54 11.2-.07 3.55.33 8.24 1.76"/><path d="M244.64 72.29q1.98 2.29 4.91 3.8.45.23.86-.06l2.27-1.54 1.62 1.31q.16.13.29-.02l.2-.23q.04-.05 0-.1-.63-.66-.82-1.47.33-.2.19-.31.94 1.05 2.11 1.44.87.3.35.85-.11.12-.18.28-.19.42.12.76l1.36 1.53q.25.28.11.62-.35.91-1.63 1.1a1.14 1.04-22.9 0 0-.8 1.74q.09.1.39 2.25l-5.56-5.6a1.51 1.46 14.2 0 1-.36-.58q-.09-.27-.22-.52-.14-.24-.39-.38c-2.46-1.3-5.58-3.49-8.46-3.3q-2.11.13-4.06.62-1.86.47-4.02.39.98-.92.52-2.22-.36-.98.63-.64.87.3 1.06 1.31.1.49.55.29.24-.1.21-.35-.23-1.86 1.41-2.34.51-.15.63-.67.29-1.24 1.3-1.96.72-.52.5.33-.16.59-.49 1.08-.34.52.09.97l2.27 2.41a.65.65 0 0 0 1-.07q.98-1.39 2.04-.72m10.33 5.16a.42.42 0 0 0-.42-.42.42.42 0 0 0-.42.42.42.42 0 0 0 .42.42.42.42 0 0 0 .42-.42"/><path d="M240.17 70.32q.34-.27.47.15.11.34-.2.48-.22.09-.38-.09-.24-.28.11-.54"/><path fill="#4a8927" d="M253.97 73.98q.19.81.82 1.47.04.05 0 .1l-.2.23q-.13.15-.29.02l-1.62-1.31q.7-.4 1.29-.51"/><circle cx="254.55" cy="77.45" r=".42" fill="#4a8927"/><path d="m306.06 89.9.09 3.52q.01.58.52.86l2.56 1.42q.41.22.65-.17 1.11-1.74.37-3.3 5.19 3.11 7.98 7.67.77 1.26-.67.91c-1.33-.32-2.36-.78-3.78-.86q-8.52-.46-16.52 2.89-.29-1.12.47-2.22.31-.43.08-.92c-.33-.73-.83-1.29-.75-2.17q.02-.27.25-.38 1.02-.53 1.78.54.11.15.3.19 2.68.45 1.1-1.81-1.12-1.6.63-2.63.48-.29.59-.84.36-1.84-.47-4.62zm-4.71 4.27q-.42.06-.19.41.24.37.45-.02.25-.46-.26-.39m8.58 3.288a.91.49-2 0 0-.927-.458.91.49-2 0 0-.892.522.91.49-2 0 0 .926.458.91.49-2 0 0 .892-.522"/><path fill="#4a8927" d="M310.25 92.23q.74 1.56-.37 3.3-.24.39-.65.17l-2.56-1.42q-.51-.28-.52-.86l-.09-3.52z"/><path fill="#275b0f" d="M301.35 94.17q.51-.07.26.39-.21.39-.45.02-.23-.35.19-.41"/><ellipse fill="#4a8927" rx=".91" ry=".49" transform="rotate(-2 2947.11 -8803.127)"/><path d="m290.73 106.56.2.45q-.82.07-.2-.45M306.27 111.94l-.36 1.54q-.21.93-.82.2l-.68-.81q-.4-.47-.05-.99l.46-.68q.89.13 1.45.74"/><path d="M300.91 136.68q-.45-.64-1.7-.23l.95-4.91q.03.19.16.2.12.01.19-.09.28-.41.45-1.06.65.7 1.4 1.07.81.39.54-.47-.29-.93.53-1.33.61-.3.09-.74-.8-.66-.67-1.75.01-.1-.09-.1h-.27q-.25.01-.26.26-.11 1.45-1.36 2.12-.21-.05-.23.03l.58-13.35 3.49 1.59q.55.25 1-.16l.79-.71q.58-.52 1.13.02l1.17 1.14a.55.55 0 0 1-.17.91q-.21.08-.36.26-.57.64.29.62l1.94-.04q.76-.02.21-.55-1.04-1-.76-2.47.15-.83-.69-.85l-.55-.02q-.67-.02-.66-.68l.01-2.76q8.34 4.58 14.54 11.99 2.58 3.08 4.13 6.28.66 1.38-.79.89-4.01-1.37-8.83-.83-8.25.93-15.71 4.39-.31.14-.43.47-.13.37-.06.86m4.45-5.65q.22-.24.34-.54.21-.54-.26-.2-.94.68-1.38 1.72-.11.25.05.48.08.11.2.16a.4.4 0 0 0 .56-.28l.14-.66a1.52 1.41-20 0 1 .35-.68"/><path fill="#5ca332" d="m300.96 130.59-.09-.94q1.25-.67 1.36-2.12.01-.25.26-.26h.27q.1 0 .09.1-.13 1.09.67 1.75.52.44-.09.74-.82.4-.53 1.33.27.86-.54.47-.75-.37-1.4-1.07"/><path fill="#275b0f" d="m300.87 129.65.09.94q-.17.65-.45 1.06-.07.1-.19.09-.13-.01-.16-.2-.16-1.08.48-1.86.02-.08.23-.03"/><path fill="#5ca332" d="m305.01 131.71-.14.66a.4.4 0 0 1-.56.28q-.12-.05-.2-.16-.16-.23-.05-.48.44-1.04 1.38-1.72.47-.34.26.2-.12.3-.34.54a1.52 1.41-20 0 0-.35.68M300.91 136.68l.1.86q-1.33-.64-1.73.12l-.07-1.21q1.25-.41 1.7.23"/><path d="M301.01 137.54q2.68 2.84 2.96 6.68.04.49.5.66 13.87 5.07 20.68 18.14 1.97 3.76 1.75 8.27a.66.65 14.4 0 1-.94.55q-10.54-5.18-23.31-3.99-.54.05-.59.59l-.4 4.1q-.56-.17-1.34.51 2.11-13.49 1.84-27.09c-.02-.98.78-2.09.66-2.71q-.7-3.61-3.54-5.59.4-.76 1.73-.12"/><path fill="#4a8927" d="m301.66 172.54 2.4 1.35q-.21.89-.7.67-.3-.12-.49-.35-.82-1.01-.84.29l-.09 5.75q-.02 1.11.84.41 1.18-.94 2.6-.68.81.15.25.74-.29.3-.46.68-.22.51.02 1.01l1.86 3.85q.39.8 1.08.23.48-.39.92.08.61.65.76-.23.38-2.22 1.74-4.02 2.58 4.84 3.22 10.69.4 3.68-.85 7.29-.16.45-.6.27l-11.17-4.4-1.65-5.34q-.2-.64.45-.78.49-.11.8-.53.38-.51.05-1.05l-.29-.48q-.33-.53.1-.98.5-.52.31-1.26-.33-1.3-.91-.08-.13.29-.13.61 0 .56-.53.7-.67.17-1.52-.23l1.39-11.4-.09-1.4q.01-.47.19-.9.78-.68 1.34-.51"/><path d="M304.06 173.89q4.76 2.91 7.49 8.43-1.36 1.8-1.74 4.02-.15.88-.76.23-.44-.47-.92-.08-.69.57-1.08-.23l-1.86-3.85q-.24-.5-.02-1.01.17-.38.46-.68.56-.59-.25-.74-1.42-.26-2.6.68-.86.7-.84-.41l.09-5.75q.02-1.3.84-.29.19.23.49.35.49.22.7-.67"/><path fill="#275b0f" d="m300.13 173.95.09 1.4q-.24-.63-.09-1.4"/><path d="M302.15 196.17q-1.45-.44-2.64-.28-.5.07-.63.57l-.94 3.6q-.5-.27-.86.17l1.75-13.48q.85.4 1.52.23.53-.14.53-.7 0-.32.13-.61.58-1.22.91.08.19.74-.31 1.26-.43.45-.1.98l.29.48q.33.54-.05 1.05-.31.42-.8.53-.65.14-.45.78z"/><path fill="#4a8927" d="M297.94 200.06q-.28 1.46.5 2.35l.21 3.07q.04.54-.5.55-1.08.01-2.06-1.43l.99-4.37q.36-.44.86-.17"/><path d="M298.44 202.41q3.63 3.47 4.75 7.62-.35-.19-.43-.11a1.01 1.01 0 0 0 .18 1.62q.36.21.8-.05 1.96 6.59 1.02 13.93-.95-.98-1.86-2.07-.11-.13-.27-.16-.13-.03-.25.01-.59.21-.31.77.59 1.14 1.12 2.37.16.38.57.44.42.06.86-.35-.08.97-.59 1.22-.48.25-.77-.21-3.3-5.2-9.64-7.71-.66-.26-.77.45-.41 2.58-.61 5.41-.13 1.73.63 3.23 3.96 7.88 2.39 17.67-.09.55-.36 1.08-.91 1.75-1.76.08.68-1.17 1.1-1.62 1.02-1.1-.46-.86-.72.12-.86 1.61l-2.81-4.7a.54.54 0 0 0-.99.16l-.67 3.26q-.21 1.01.49 1.76 1.25 1.34 1.86 4.33l-1.9-1.82q-.37-.35-.63.09-.58 1.03-1.5 1.78-.74-1.9-.58-2.65 1.38-6.1 3.52-12.72 1.53-4.74 1.5-11-.02-3 1.02-6.65 1.98-6.92 3.86-14.02.98 1.44 2.06 1.43.54-.01.5-.55zm-1.79 4.54q.21.89.66 1.73.08.16.26.12l.29-.07a.32.31-21.2 0 0 .21-.46l-1.02-1.89q-.24-.45-.5-.01-.16.27.05.49.04.04.05.09m6.22 5.16a.18.17 75 0 0-.15-.09q-.41-.01-.39.43.02.41.38.21.35-.2.16-.55"/><path fill="#5ca332" d="M296.6 206.86q-.21-.22-.05-.49.26-.44.5.01l1.02 1.89a.32.31-21.2 0 1-.21.46l-.29.07q-.18.04-.26-.12-.45-.84-.66-1.73-.01-.05-.05-.09"/><path fill="#275b0f" d="M303.19 210.03q.53.65.55 1.46-.44.26-.8.05a1.01 1.01 0 0 1-.18-1.62q.08-.08.43.11M302.87 212.11q.19.35-.16.55-.36.2-.38-.21-.02-.44.39-.43a.18.17 75 0 1 .15.09"/><path fill="#4a8927" d="M304.76 225.42q.38.32-.14 1.01-.44.41-.86.35-.41-.06-.57-.44-.53-1.23-1.12-2.37-.28-.56.31-.77.12-.04.25-.01.16.03.27.16.91 1.09 1.86 2.07"/><path fill="#275b0f" d="M293.14 247.65q0-.48-.22-.87.14-1.49.86-1.61 1.48-.24.46.86-.42.45-1.1 1.62M290.8 251.59q.33 1.69.04 3.66a.44.44 0 0 1-.77.23l-3.3-3.84q.92-.75 1.5-1.78.26-.44.63-.09z"/></svg>