<svg xmlns="http://www.w3.org/2000/svg" viewBox="0 0 382 382"><g fill="none" stroke-width="2"><path stroke="#4a0e08" d="M254.6 66.72q-.26-.62-.63.2M253.21 67.18q-3.8-.74-3.29 1.63M246.82 70.66q-1.62-.74-3.4.67-.38.3-.04.65.98.98.21 2.16M243.07 73.85l-1.11-1.53q-.29-.4-.36-.89-.35-2.46-1.76-5.1-.3-.55-.76-.14-.9.78-.59 1.86a1.13 1.12 54.7 0 1-.16.96l-1.54 2.2a.74.73 34.9 0 1-1.03.18q-.36-.25-.82-.28-.81-.04-.76.76.09 1.77-2.75 3.24M220.35 70.79q-.51-1.45.04-1.64M221.7 61.46q-1.26.14-1.73 1.64-.15.48-.6.67-3.04 1.34-3.1 3.79M301.6 88.12q.33 2.65-1.93 6.27-.28.45-.8.56l-1.22.26q-.74.15-.67.91l.34 3.31q.05.54-.32.94-1.25 1.35.01 2.6M290.77 106.54q-.33.11-.48.45a.3.3 0 0 0 .3.42q.28-.02.62-.21M305.33 111.36q.54 2.12-4.31.18M256.93 84.83q.38-2.33-.68-4.27a1.05 1.05 0 0 1 .08-1.13l1.27-1.75a1.28 1.28 0 0 0 .14-1.26l-.76-1.71q-.28-.63-.84-.23-1.53 1.08-2.41-.49M312.28 183.81l-3.45 1.83q-.47.25-.64.75-.45 1.31-.18 2.83.04.23-.1.41-.09.12-.22.18-.46.17-.64-.28l-.2-.54q-.34-.87-.62.02-.13.42-.43.61-.62.37-.94-.27-1.86-3.74-5.8-3.4M306.69 90.15l.59 1.96q.17.58.56.12l.83-.97M300.31 195.7l.48-3.9q.07-.53-.45-.39-1.1.3-2.04-.23M298.71 202.58q-.9 2.29-2.38 3.78-.15.16.02.3.18.15.25.02a.8.79-51 0 1 1.29-.15q.62.7 1.5.44.78-.23.22-.82l-.39-.42q-.17-.18-.06-.4.09-.17.28-.24.23-.08.43.06.54.38 1.14.16" vector-effect="non-scaling-stroke"/><path stroke="#250503" d="M304.71 225.77q-.33-.34-.76-.49-.52-.18-.82.28-.26.38-.36 1.02" vector-effect="non-scaling-stroke"/><path stroke="#4a0e08" d="M290.34 250q-2.29-.19-3.87.48" vector-effect="non-scaling-stroke"/><path stroke="#250503" d="M301.81 184.53a.32.32 0 0 0-.32-.32.32.32 0 0 0-.32.32.32.32 0 0 0 .32.32.32.32 0 0 0 .32-.32" vector-effect="non-scaling-stroke"/></g><path fill="#931b10" d="M254.6 66.72q-.26-.62-.63.2l-.76.26q-3.8-.74-3.29 1.63l-3.1 1.85q-1.62-.74-3.4.67-.38.3-.04.65.98.98.21 2.16-.22-.22-.52-.29l-1.11-1.53q-.29-.4-.36-.89-.35-2.46-1.76-5.1-.3-.55-.76-.14-.9.78-.59 1.86a1.13 1.12 54.7 0 1-.16.96l-1.54 2.2a.74.73 34.9 0 1-1.03.18q-.36-.25-.82-.28-.81-.04-.76.76.09 1.77-2.75 3.24-3.57-.96-7.99-3.67c-1.03-.63-1.95-.6-3.09-.65q-.51-1.45.04-1.64c8.88-9.06 19.85-9.87 32.11-8.93 2.98.23 6.33 1.25 9.06 2.42q3.74 1.6-.26 2.37-2.69.51-6.7 1.71"/><path d="M221.7 61.46q-1.26.14-1.73 1.64-.15.48-.6.67-3.04 1.34-3.1 3.79-.38.44-.42.7-.03.26.48.35 1.89.3 4.06.54-.55.19-.04 1.64-3.02.32-5.88-.12-2.33-.35-4.1.11c-4.58 1.21-9.82-.76-13.54.72q-5.18 2.06-9.33 3.01-3.17.73-1.16-1.82c3.83-4.86 7.82-8.66 13.87-10.26q9.14-2.41 21.49-.97"/><path fill="#931b10" d="M221.7 61.46q1.97-.06 3.33.26 1.55.36.15 1.11l-8.91 4.73q.06-2.45 3.1-3.79.45-.19.6-.67.47-1.5 1.73-1.64"/><path d="m243.07 73.85-11.64 1.26q2.84-1.47 2.75-3.24-.05-.8.76-.76.46.03.82.28a.74.73 34.9 0 0 1.03-.18l1.54-2.2a1.13 1.12 54.7 0 0 .16-.96q-.31-1.08.59-1.86.46-.41.76.14 1.41 2.64 1.76 5.1.07.49.36.89zM254.6 66.72q-.26.29-.63.2.37-.82.63-.2M253.21 67.18l-3.29 1.63q-.51-2.37 3.29-1.63"/><path fill="#931b10" d="M301.6 88.12q.33 2.65-1.93 6.27-.28.45-.8.56l-1.22.26q-.74.15-.67.91l.34 3.31q.05.54-.32.94-1.25 1.35.01 2.6l-6.24 3.57q-.33.11-.48.45a.3.3 0 0 0 .3.42q.28-.02.62-.21 1.22.5 5.92 1.18 2.15.31 8.2 2.98.54 2.12-4.31.18-.68-.46-1.53-1.05-.76-.54-1.64-.67-6.59-.97-11.19-4.31-1.93-1.4-2.61-4.7a1.39 1.32 12.5 0 0-.55-.82l-2.06-1.43q-.56-.39-.16-.94c2.27-3.1 2.79-9.06-1.84-10.48q-3.57-1.09-6.45-1.8-2.53-.62-7.95-.39-4.15.18-8.11-.12.38-2.33-.68-4.27a1.05 1.05 0 0 1 .08-1.13l1.27-1.75a1.28 1.28 0 0 0 .14-1.26l-.76-1.71q-.28-.63-.84-.23-1.53 1.08-2.41-.49 17.45-9.74 37.18-4.27a1.7 1.7 0 0 1 .6.3q1.18.88.67 1.27-.2.16-.45.23-11.56 3.33-20.46 11.67a.27.27 0 0 0 .11.45q3.02.87 6.15 2.07 1.96.75 4.34.56c7.01-.54 12.82-.29 19.73 1.85"/><path d="m246.82 70.66-1.88 1.56q-.42.35.02.68l4.35 3.2a1.05 1.05 0 0 0 1.4-.14q1.16-1.27 3.02-1.97.88 1.57 2.41.49.56-.4.84.23l.76 1.71a1.28 1.28 0 0 1-.14 1.26l-1.27 1.75a1.05 1.05 0 0 0-.08 1.13q1.06 1.94.68 4.27-3.43-3.08-6.26-6.16-1.56-1.69-3.28-2.61-1.92-1.03-3.8-1.92.77-1.18-.21-2.16-.34-.35.04-.65 1.78-1.41 3.4-.67M306.69 90.15l.59 1.96q.17.58.56.12l.83-.97q6.3 3.36 9.45 8.48 1.02 1.65-.81 1.01c-6.07-2.12-14.63-.26-20.3 2.22q-1.26-1.25-.01-2.6.37-.4.32-.94l-.34-3.31q-.07-.76.67-.91l1.22-.26q.52-.11.8-.56 2.26-3.62 1.93-6.27z"/><path fill="#931b10" d="m306.69 90.15 1.98 1.11-.83.97q-.39.46-.56-.12z"/><path d="M290.77 106.54q.05.4.44.66-.34.19-.62.21a.3.3 0 0 1-.3-.42q.15-.34.48-.45M312.28 183.81l-3.45 1.83q-.47.25-.64.75-.45 1.31-.18 2.83.04.23-.1.41-.09.12-.22.18-.46.17-.64-.28l-.2-.54q-.34-.87-.62.02-.13.42-.43.61-.62.37-.94-.27-1.86-3.74-5.8-3.4-.14-2.78.33-5.53.51-3 .68-5.44c.2-2.66.92-5.03 1.03-7.7.15-3.61.93-7.06.98-10.69q.07-5.54.12-11.28 0-.62.38-1.11.33-.41.23-.92c-.33-1.74-1.34-4.2-2.93-5.1q-.82-.46-.68-1.39.51-3.57 1.27-6.79c1.34-5.71.88-12.55.55-18.46q4.85 1.94 4.31-.18c8.18 3.64 17.16 10.81 21.2 19.17q1.1 2.27-1.14 1.1-1.32-.7-2.61-.74-11.34-.35-21.32 4.43-.72.34-.6 1.13.19 1.17.92 2.07 2.08 2.55 2.09 5.61.01.54.51.72 13.38 4.76 20.47 17.55 2.33 4.21 2.02 8.91a.63.63 0 0 1-.9.53q-10.49-5.15-23.2-4.02-.73.07-.8.8l-.28 3.19q-.07.76.61 1.1 6.85 3.43 9.98 10.9m-10.47.72a.32.32 0 0 0-.32-.32.32.32 0 0 0-.32.32.32.32 0 0 0 .32.32.32.32 0 0 0 .32-.32"/><path fill="#931b10" d="M312.28 183.81q1.92 4.27 2.47 9.21.4 3.69-.85 7.32-.16.47-.61.23-5.71-3.06-12.98-4.87l.48-3.9q.07-.53-.45-.39-1.1.3-2.04-.23l.76-5.23q3.94-.34 5.8 3.4.32.64.94.27.3-.19.43-.61.28-.89.62-.02l.2.54q.18.45.64.28.13-.06.22-.18.14-.18.1-.41-.27-1.52.18-2.83.17-.5.64-.75z"/><circle cx="301.49" cy="184.53" r=".32" fill="#4a0a06"/><path d="M300.31 195.7q-2.13.53-2.44 5.02-.04.55.21 1 .31.53.63.86-.9 2.29-2.38 3.78-.15.16.02.3.18.15.25.02a.8.79-51 0 1 1.29-.15q.62.7 1.5.44.78-.23.22-.82l-.39-.42q-.17-.18-.06-.4.09-.17.28-.24.23-.08.43.06.54.38 1.14.16 5.3 9 3.7 20.46-.33-.34-.76-.49-.52-.18-.82.28-.26.38-.36 1.02-3.49-4.67-9.14-6.8-.69-.26-.8.47-.33 2.21-.57 4.83-.19 2.04.68 3.9 3.99 8.52 2.32 17.14-.92 4.73-2.64.23-.75-1.94-2.55-4.31a.54.54 0 0 0-.96.22l-.67 3.32a1.8 1.8 0 0 0 .5 1.65q.75.75 1.4 2.77-2.29-.19-3.87.48-.42-.74-.27-1.49 1.05-5.28 3.37-12.2 1.78-5.28 1.67-11.81-.04-3.03.89-6.16 2-6.68 3.97-14.2.8-3.04 1.28-6.42.49-3.49.92-7.02.94.53 2.04.23.52-.14.45.39z"/><path fill="#931b10" d="m298.71 202.58 2.3 2.73q-.6.22-1.14-.16-.2-.14-.43-.06-.19.07-.28.24-.11.22.06.4l.39.42q.56.59-.22.82-.88.26-1.5-.44a.8.79-51 0 0-1.29.15q-.07.13-.25-.02-.17-.14-.02-.3 1.48-1.49 2.38-3.78"/><path fill="#4a0a06" d="M304.71 225.77q.15 1.13-.56 1.74-.42.37-.84 0-.37-.34-.54-.93.1-.64.36-1.02.3-.46.82-.28.43.15.76.49"/><path fill="#931b10" d="M290.34 250q1.11 2.49.44 5.26a.51.51 0 0 1-.89.19c-1.41-1.78-2.87-2.63-3.42-4.97q1.58-.67 3.87-.48"/></svg>