<svg xmlns="http://www.w3.org/2000/svg" viewBox="0 0 382 382"><g fill="none" stroke-width="2"><path stroke="#6a5674" d="m314.23 168-1.09-1.72a1.17 1.17 0 0 0-1.55-.4q-1.58.85-.27 1.87" vector-effect="non-scaling-stroke"/><path stroke="#4b37d2" d="M300.5 204.53q-1.4.68-2.28 1.56-.34.34-.27.82.07.49-.17.76-.35.38-.76.06-.85-.65-1.66-.49M301.3 164.19l1.23 1.82a1.04 1.04 0 0 0 1.64.11q1.57-1.78 2.33-4.02.17-.5-.25-.82-.61-.46-1.4-.54a.99.95 76.6 0 1-.76-.49q-.78-1.37-2.04-2.25" vector-effect="non-scaling-stroke"/><path stroke="#6a5674" d="M203.25 70.97q-.23-2.91-2.65-4.14-.81-.4-1.01-.96-.16-.47.33-.52.73-.07 1.27-.39.94-.57-.11-.88-1.83-.54-2.87 1.3a.3.28 41.2 0 0 .03.33q.12.15.31.24.48.23.46.77l-.11 4.09" vector-effect="non-scaling-stroke"/><path stroke="#614ea4" d="M216.49 63.29q.58-.37.6-1.06 0-.19-.17-.28-.14-.07-.29-.07-.24 0-.35.22l-1.3 2.41q-.34.64.38.52.7-.12.65-.76a1.08 1.07-19.1 0 1 .48-.98" vector-effect="non-scaling-stroke"/><path stroke="#6a5674" d="M213.48 66.01q-.53.25-.77.73a.33.33 0 0 0 .42.46q.98-.41.84-.97a.35.35 0 0 0-.49-.22" vector-effect="non-scaling-stroke"/><path stroke="#614ea4" d="M238.78 70.45q-.12-.34-.43-.17-.38.2-.3.6a.34.33-25.1 0 0 .54.19q.31-.25.19-.62M302.938 91.585a.76.46 66.1 0 0 .113-.881.76.46 66.1 0 0-.729-.509.76.46 66.1 0 0-.113.881.76.46 66.1 0 0 .729.509" vector-effect="non-scaling-stroke"/><path stroke="#6a5674" d="M302.07 94.88q.12-.76.04-1.52-.08-.81-.67-.24-.56.56-.38 1.4.12.51.63.62.33.07.38-.26M304.7 97.45a.92.72-8.1 0 0-1.011-.583.92.72-8.1 0 0-.81.843.92.72-8.1 0 0 1.012.583.92.72-8.1 0 0 .81-.843M302.1 97.969a.88.59-40.5 0 0-1.053.122.88.59-40.5 0 0-.286 1.02.88.59-40.5 0 0 1.052-.122.88.59-40.5 0 0 .286-1.02M307.65 116.95q-.19.63.37.98.3.2.56-.05a.59.58 49 0 0 .05-.77q-.25-.33-.64-.38a.31.3-76.9 0 0-.34.22M307.506 120.15a.72.43 92.7 0 0 .464-.7.72.43 92.7 0 0-.396-.74.72.43 92.7 0 0-.464.7.72.43 92.7 0 0 .396.74M314.43 122.21q-.37.13-.51.51a.58.58 0 0 0 .36.76q.28.09.52-.11.48-.39.21-.93a.47.47 0 0 0-.58-.23M313 123.42a.53.53 0 0 0-.53-.53.53.53 0 0 0-.53.53.53.53 0 0 0 .53.53.53.53 0 0 0 .53-.53M319.084 123.9a.68.47 30.9 0 0-.343-.753.68.47 30.9 0 0-.825.054.68.47 30.9 0 0 .343.752.68.47 30.9 0 0 .825-.054" vector-effect="non-scaling-stroke"/><path stroke="#4b37d2" d="m315.38 126.15-.64-1.57q-.38-.94-.48.07-.2 1.94 1.61 2.85.58.3.34-.3-.18-.44-.56-.71a.93.86 8.9 0 1-.27-.34" vector-effect="non-scaling-stroke"/><path stroke="#6a5674" d="M323.84 128.818a.96.64 21.9 0 0-.651-.952.96.64 21.9 0 0-1.13.236.96.64 21.9 0 0 .652.952.96.64 21.9 0 0 1.13-.236M304.21 132.14a1.15.76 61.4 0 0 .117-1.374 1.15.76 61.4 0 0-1.217-.646 1.15.76 61.4 0 0-.117 1.374 1.15.76 61.4 0 0 1.218.646" vector-effect="non-scaling-stroke"/><path stroke="#614ea4" d="M308.927 149.851a.69.57 55.9 0 0 .085-.89.69.57 55.9 0 0-.859-.252.69.57 55.9 0 0-.085.89.69.57 55.9 0 0 .859.252" vector-effect="non-scaling-stroke"/><path stroke="#6a5674" d="M304.11 149.42a.6.6 0 0 0-.6-.6.6.6 0 0 0-.6.6.6.6 0 0 0 .6.6.6.6 0 0 0 .6-.6M305.72 151.002a1.34.72-17.3 0 0-1.494-.29 1.34.72-17.3 0 0-1.065 1.087 1.34.72-17.3 0 0 1.493.288 1.34.72-17.3 0 0 1.065-1.085M308.226 151.932a.65.47 112.1 0 0 .68-.425.65.47 112.1 0 0-.192-.78.65.47 112.1 0 0-.68.426.65.47 112.1 0 0 .192.78M313.86 153.157a.66.52-44.5 0 0-.834.092.66.52-44.5 0 0-.107.834.66.52-44.5 0 0 .836-.092.66.52-44.5 0 0 .106-.834M313.08 156.071a.73.47 115.1 0 0 .736-.462.73.47 115.1 0 0-.116-.86.73.47 115.1 0 0-.736.462.73.47 115.1 0 0 .116.86" vector-effect="non-scaling-stroke"/><path stroke="#614ea4" d="M312.005 159.111a.74.41 47 0 0-.205-.82.74.41 47 0 0-.805-.262.74.41 47 0 0 .205.82.74.41 47 0 0 .805.262" vector-effect="non-scaling-stroke"/><path stroke="#6a5674" d="M305.84 180.662a1.1.54 41 0 0-.476-1.13 1.1.54 41 0 0-1.184-.314 1.1.54 41 0 0 .476 1.13 1.1.54 41 0 0 1.184.314" vector-effect="non-scaling-stroke"/></g><path fill="#4330cc" d="m314.23 168-1.09-1.72a1.17 1.17 0 0 0-1.55-.4q-1.58.85-.27 1.87l-8.66.04q-.65.01-.7.66l-.27 3.38q-.05.72.59 1.04 7.93 3.95 11.08 13.72c1.49 4.64 2.11 9.23.51 13.97a.33.33 0 0 1-.48.18q-5.8-3.44-13.43-4.99a.99.99 0 0 0-1.16.76l-.97 4.45a.99.96 31 0 0 .22.84l2.45 2.73q-1.4.68-2.28 1.56-.34.34-.27.82.07.49-.17.76-.35.38-.76.06-.85-.65-1.66-.49 1.19-3.92 1.44-5.14 1.14-5.54 2.34-19.55c.2-2.38.98-4.66.95-7.05q-.01-1.41.27-2.87.81-4.15.94-8.44l1.23 1.82a1.04 1.04 0 0 0 1.64.11q1.57-1.78 2.33-4.02.17-.5-.25-.82-.61-.46-1.4-.54a.99.95 76.6 0 1-.76-.49q-.78-1.37-2.04-2.25.08-6.32.39-12.74.03-.64.22-1.23c.61-1.95-1.53-4.98-2.84-5.9a1.54 1.52-68 0 1-.63-1.51q.79-4.63 1.78-9.31.65-3.07.07-15.05-.02-.53-.4-.91-1.35-1.31-3.09-1.56c-4.37-.63-12.19-3.02-13.16-7.93q-.41-2.05-2.48-2.91-1.25-.53-.47-1.63 2.99-4.23.27-8.87a1.62 1.59-4.6 0 0-.84-.7q-4.26-1.59-8.45-2.51c-4.7-1.04-10.13.02-15.17-.33q-.57-.04-.94-.48-2.12-2.57-4.82-4.68c-.72-.55-1.21-1.25-1.59-2.05a1.41 1.36-89 0 0-.56-.6c-2.36-1.28-5.59-3.49-8.41-3.24q-2.03.19-4.05.59-2.79.56-5.63.57-1.66.01-3.06-.92c-2.29-1.53-4.83-3.27-7.72-3.26q-2.49.01-4.83.05c-1.3.03-2.19-.87-3.36-.53q-4.52 1.3-9.03.61-.23-2.91-2.65-4.14-.81-.4-1.01-.96-.16-.47.33-.52.73-.07 1.27-.39.94-.57-.11-.88-1.83-.54-2.87 1.3a.3.28 41.2 0 0 .03.33q.12.15.31.24.48.23.46.77l-.11 4.09-10.97 3.66q-3.88 1.29-1.48-2.01 3.08-4.25 8.54-7.95c2.05-1.39 5.81-2.28 8.38-2.68q10.77-1.66 22.23 0a.31.31 0 0 1 .27.33q-.03.5-.5.67-4.78 1.73-9.24 5.01-.88.65.21.8l3.18.43q.9.12 1.55-.53 7.74-7.67 19.64-8.44c7.04-.46 14-.33 20.44 2.33q4.45 1.83-.28 2.7-9.06 1.67-16.12 7.19-.31.24.01.47l4.61 3.35a.69.68 46.2 0 0 .79.02q9.55-6.44 21.03-8.07 10.3-1.46 19.81 1.79 2.93 1.01-.04 1.88-10.76 3.17-19.57 11.33a.36.35 32.1 0 0 .14.6q3.03.89 6.35 2.13 1.93.72 4 .5c11.26-1.21 22.73.95 31.49 8.12q3.09 2.53 4.76 5.35.98 1.65-.82.95-1.57-.61-3.28-.73-12.48-.87-23.06 6.46a.32.31-48.5 0 0 .03.54c2.45 1.28 5.11 1.04 7.47 1.75 11.4 3.42 22.82 11.22 28.18 21.98q.86 1.74-.94 1.03c-1.23-.48-2.27-.93-3.64-.94q-10.61-.09-20.36 4.35a1.57 1.57 0 0 0-.54 2.45q2.52 2.92 2.78 6.61.04.49.5.65c8.92 3.08 16.61 9.8 20.83 18.39q1.79 3.64 1.65 7.99a.61.61 0 0 1-.79.56zM216.49 63.29q.58-.37.6-1.06 0-.19-.17-.28-.14-.07-.29-.07-.24 0-.35.22l-1.3 2.41q-.34.64.38.52.7-.12.65-.76a1.08 1.07-19.1 0 1 .48-.98m-3.01 2.72q-.53.25-.77.73a.33.33 0 0 0 .42.46q.98-.41.84-.97a.35.35 0 0 0-.49-.22m25.3 4.44q-.12-.34-.43-.17-.38.2-.3.6a.34.33-25.1 0 0 .54.19q.31-.25.19-.62m64.158 21.135a.76.46 66.1 0 0 .113-.881.76.46 66.1 0 0-.729-.509.76.46 66.1 0 0-.113.881.76.46 66.1 0 0 .729.509m-.868 3.295q.12-.76.04-1.52-.08-.81-.67-.24-.56.56-.38 1.4.12.51.63.62.33.07.38-.26m2.63 2.57a.92.72-8.1 0 0-1.011-.583.92.72-8.1 0 0-.81.843.92.72-8.1 0 0 1.012.583.92.72-8.1 0 0 .81-.843m-2.6.519a.88.59-40.5 0 0-1.053.122.88.59-40.5 0 0-.286 1.02.88.59-40.5 0 0 1.052-.122.88.59-40.5 0 0 .286-1.02m5.55 18.981q-.19.63.37.98.3.2.56-.05a.59.58 49 0 0 .05-.77q-.25-.33-.64-.38a.31.3-76.9 0 0-.34.22m-.144 3.2a.72.43 92.7 0 0 .464-.7.72.43 92.7 0 0-.396-.74.72.43 92.7 0 0-.464.7.72.43 92.7 0 0 .396.74m6.924 2.06q-.37.13-.51.51a.58.58 0 0 0 .36.76q.28.09.52-.11.48-.39.21-.93a.47.47 0 0 0-.58-.23m-1.43 1.21a.53.53 0 0 0-.53-.53.53.53 0 0 0-.53.53.53.53 0 0 0 .53.53.53.53 0 0 0 .53-.53m6.084.48a.68.47 30.9 0 0-.343-.753.68.47 30.9 0 0-.825.054.68.47 30.9 0 0 .343.752.68.47 30.9 0 0 .825-.054m-3.704 2.25-.64-1.57q-.38-.94-.48.07-.2 1.94 1.61 2.85.58.3.34-.3-.18-.44-.56-.71a.93.86 8.9 0 1-.27-.34m8.46 2.668a.96.64 21.9 0 0-.651-.952.96.64 21.9 0 0-1.13.236.96.64 21.9 0 0 .652.952.96.64 21.9 0 0 1.13-.236m-19.63 3.322a1.15.76 61.4 0 0 .117-1.374 1.15.76 61.4 0 0-1.217-.646 1.15.76 61.4 0 0-.117 1.374 1.15.76 61.4 0 0 1.218.646m4.717 17.711a.69.57 55.9 0 0 .085-.89.69.57 55.9 0 0-.859-.252.69.57 55.9 0 0-.085.89.69.57 55.9 0 0 .859.252m-4.817-.431a.6.6 0 0 0-.6-.6.6.6 0 0 0-.6.6.6.6 0 0 0 .6.6.6.6 0 0 0 .6-.6m1.61 1.582a1.34.72-17.3 0 0-1.494-.29 1.34.72-17.3 0 0-1.065 1.087 1.34.72-17.3 0 0 1.493.288 1.34.72-17.3 0 0 1.065-1.085m2.505.93a.65.47 112.1 0 0 .68-.425.65.47 112.1 0 0-.19-.78.65.47 112.1 0 0-.68.426.65.47 112.1 0 0 .19.78m5.636 1.225a.66.52-44.5 0 0-.835.092.66.52-44.5 0 0-.107.834.66.52-44.5 0 0 .836-.092.66.52-44.5 0 0 .106-.834m-.78 2.914a.73.47 115.1 0 0 .735-.462.73.47 115.1 0 0-.116-.86.73.47 115.1 0 0-.736.462.73.47 115.1 0 0 .116.86m-1.076 3.04a.74.41 47 0 0-.205-.82.74.41 47 0 0-.805-.262.74.41 47 0 0 .205.82.74.41 47 0 0 .805.262m-6.165 21.55a1.1.54 41 0 0-.476-1.129 1.1.54 41 0 0-1.184-.314 1.1.54 41 0 0 .476 1.13 1.1.54 41 0 0 1.184.314"/><path fill="#7f6c7b" d="M216.01 64.27q.05.64-.65.76-.72.12-.38-.52l1.3-2.41q.11-.22.35-.22.15 0 .29.07.17.09.17.28-.02.69-.6 1.06a1.08 1.07-19.1 0 0-.48.98"/><path fill="#917b1c" d="m203.25 70.97-4.35-.16.11-4.09q.02-.54-.46-.77-.19-.09-.31-.24a.3.28 41.2 0 1-.03-.33q1.04-1.84 2.87-1.3 1.05.31.11.88-.54.32-1.27.39-.49.05-.33.52.2.56 1.01.96 2.42 1.23 2.65 4.14M213.48 66.01a.35.35 0 0 1 .49.22q.14.56-.84.97a.33.33 0 0 1-.42-.46q.24-.48.77-.73"/><path fill="#7f6c7b" d="M238.78 70.45q.12.37-.19.62a.34.33-25.1 0 1-.54-.19q-.08-.4.3-.6.31-.17.43.17"/><ellipse fill="#7f6c7b" rx=".76" ry=".46" transform="rotate(66.1 81.47 278.005)"/><path fill="#917b1c" d="M302.07 94.88q-.05.33-.38.26-.51-.11-.63-.62-.18-.84.38-1.4.59-.57.67.24.08.76-.04 1.52"/><ellipse fill="#917b1c" rx=".92" ry=".72" transform="rotate(-8.1 840.982 -2096.505)"/><ellipse fill="#917b1c" rx=".88" ry=".59" transform="rotate(-40.5 284.267 -359.26)"/><path fill="#917b1c" d="M307.65 116.95a.31.3-76.9 0 1 .34-.22q.39.05.64.38a.59.58 49 0 1-.05.77q-.26.25-.56.05-.56-.35-.37-.98"/><ellipse fill="#917b1c" rx=".72" ry=".43" transform="rotate(92.7 96.805 206.404)"/><path fill="#917b1c" d="M314.43 122.21a.47.47 0 0 1 .58.23q.27.54-.21.93-.24.2-.52.11a.58.58 0 0 1-.36-.76q.14-.38.51-.51"/><circle cx="312.47" cy="123.42" r=".53" fill="#917b1c"/><ellipse fill="#917b1c" rx=".68" ry=".47" transform="rotate(30.9 -64.26 637.964)"/><path fill="#523ed8" d="M315.65 126.49q.38.27.56.71.24.6-.34.3-1.81-.91-1.61-2.85.1-1.01.48-.07l.64 1.57a.93.86 8.9 0 0 .27.34"/><ellipse fill="#917b1c" rx=".96" ry=".64" transform="rotate(21.9 -170.506 898.835)"/><ellipse fill="#917b1c" rx="1.15" ry=".76" transform="rotate(61.4 41.406 321.276)"/><ellipse fill="#7f6c7b" rx=".69" ry=".57" transform="rotate(55.9 13.597 365.391)"/><circle cx="303.51" cy="149.42" r=".6" fill="#917b1c"/><ellipse fill="#917b1c" rx="1.34" ry=".72" transform="rotate(-17.3 649.826 -924.901)"/><ellipse fill="#917b1c" rx=".65" ry=".47" transform="rotate(112.1 103.294 179.502)"/><ellipse fill="#917b1c" rx=".66" ry=".52" transform="rotate(-44.5 344.444 -306.204)"/><ellipse fill="#917b1c" rx=".73" ry=".47" transform="rotate(115.1 107.287 177.339)"/><path fill="#523ed8" d="m301.3 164.19.75-6.19q1.26.88 2.04 2.25a.99.95 76.6 0 0 .76.49q.79.08 1.4.54.42.32.25.82-.76 2.24-2.33 4.02a1.04 1.04 0 0 1-1.64-.11z"/><ellipse fill="#7f6c7b" rx=".74" ry=".41" transform="rotate(47 -26.593 437.485)"/><path fill="#917b1c" d="m314.23 168-2.91-.25q-1.31-1.02.27-1.87a1.17 1.17 0 0 1 1.55.4z"/><ellipse fill="#917b1c" rx="1.1" ry=".54" transform="rotate(41 -88.13 497.863)"/><path fill="#523ed8" d="M295.36 207.24q.81-.16 1.66.49.41.32.76-.06.24-.27.17-.76-.07-.48.27-.82.88-.88 2.28-1.56 6.15 9.87 4.17 21.87-.43 2.64-1.87.39-2.85-4.43-9.16-7.04-.72-.3-.82.47-.34 2.51-.57 5.11-.16 1.84.6 3.41 4.04 8.41 2.42 17.29-.86 4.73-2.67.27-.95-2.31-2.63-4.39-.65-.79-.85.21l-.7 3.41q-.17.83.36 1.5 2.67 3.33 2.12 8.12a.58.58 0 0 1-1.03.31c-1.99-2.41-4.24-3.8-3.4-7.58q1.15-5.23 2.86-10.05c.71-1.97.8-3.9 1.39-5.88.71-2.4.48-5.51.57-8.02q.09-2.47 1.03-5.62 1.61-5.48 3.04-11.07"/></svg>