<svg xmlns="http://www.w3.org/2000/svg" viewBox="0 0 382 382"><g fill="none" stroke="#6f4e12" stroke-width="2"><path d="M255.84 66.25q-2.89-.2-5.33 1.02-1.4.7-2.08 2.43M245.34 71.69q-1.1-.71-2.43-.67-.53.02-.77.49-.44.89.45 2.32M241.3 73.72q-1.33-2.95-2.27-5.95-.25-.77-1.14-.77-.62 0-.74.61l-.27 1.38q-.12.58-.63.86-.97.52-1.5 1.48a.5.49 22.5 0 1-.56.23l-.39-.1q-.52-.14-.84.29l-2.53 3.42M221.43 70.63l-.69-1.73M221.7 61.44q-1.92.35-3.7 1.51-2.2 1.45-1.21 4.35M299.75 87.5l1.08 3.37a.67.64 47.6 0 1-.01.43l-.79 1.95q-.32.79-.98.26-.18-.14-.4-.21-.94-.27-.62.66.31.88.77 1.68.21.38.09.81-.09.35-.44.48-.48.18-.89-.1-.55-.38-1.14-.68-1.65-.82-1.32.99.13.74.65 1.34a.82.81 42.2 0 1 .06 1.01q-.56.79-.3 1.76a.65.64-6.7 0 1-.64.81q-.26-.01-.44.16-.32.32-.13.73l.51 1.11M290.68 106.56q-.16.09-.23.19-.08.12.03.22.09.09.24.05M299.99 109.29l-.45 1.1M256.23 84.37l-.65-3.64q-.09-.49.24-.86 2.67-3.13-2.19-5.81M302.07 88.2q-.03.93.37 1.25.28.23.56-.02.11-.09.25-.13.52-.14.68.37.63 2.01 1.81 3.53.54.69 1.42.73l1.1.06q1.11.05.31-.71-1.28-1.23-1.63-2.98M313.48 186.89q-3.3.8-2.3 4.52.08.29-.21.38l-.37.12a.34.34 0 0 1-.43-.23l-.33-1.11a.79.78-8.7 0 0-.77-.56q-1.46.05-2.58-.85a.69.68 37.4 0 1-.13-.93l.16-.23q.4-.56-.24-.8-1.16-.44-1.44-1.78-.04-.23-.26-.34-.13-.06-.29.01-.23.11-.23.37 0 1.72-.82 3.22-.35.62.19 1.1.16.14.38.15.8.03.57.8-.85 2.84-.07 6.05M299.33 203.26q-.29.62-.18 1.05.14.53.67.39.27-.07.69-.17M290.94 253.25q-.77-.61-1.62-.97-1.03-.43-1.41.81M301.27 115.83q1.34.38 1.69-.27a1.05 1.05 0 0 0-.73-1.52q-.79-.15-1.08.43M302.88 117.48a.41.41 0 0 0-.41-.41.41.41 0 0 0-.41.41.41.41 0 0 0 .41.41.41.41 0 0 0 .41-.41" vector-effect="non-scaling-stroke"/></g><path fill="#dd9c24" d="M255.84 66.25q-2.89-.2-5.33 1.02-1.4.7-2.08 2.43l-3.09 1.99q-1.1-.71-2.43-.67-.53.02-.77.49-.44.89.45 2.32l-1.29-.11q-1.33-2.95-2.27-5.95-.25-.77-1.14-.77-.62 0-.74.61l-.27 1.38q-.12.58-.63.86-.97.52-1.5 1.48a.5.49 22.5 0 1-.56.23l-.39-.1q-.52-.14-.84.29l-2.53 3.42-9-4.54-.69-1.73q7.98-8.09 19.79-8.82c7.39-.46 14.83-.3 21.26 2.63q3.24 1.48-.23 2.26z"/><path d="M221.7 61.44q-1.92.35-3.7 1.51-2.2 1.45-1.21 4.35-3.01 1.88 3.95 1.6l.69 1.73q-3.58.56-6.9.08-2.58-.37-4.27.07c-4.2 1.09-9.73-.67-12.68.51q-4.99 1.99-9.93 3.21-3.35.83-1.25-1.92c3.64-4.74 7.89-8.59 13.81-10.15q9.06-2.4 21.49-.99"/><path fill="#dd9c24" d="M221.7 61.44q2.08-.07 3.3.26 1.55.42.13 1.17l-8.34 4.43q-.99-2.9 1.21-4.35 1.78-1.16 3.7-1.51"/><path d="m255.84 66.25-7.41 3.45q.68-1.73 2.08-2.43 2.44-1.22 5.33-1.02M241.3 73.72l-10.87 1.45 2.53-3.42q.32-.43.84-.29l.39.1a.5.49 22.5 0 0 .56-.23q.53-.96 1.5-1.48.51-.28.63-.86l.27-1.38q.12-.61.74-.61.89 0 1.14.77.94 3 2.27 5.95"/><path fill="#dd9c24" d="m299.75 87.5 1.08 3.37a.67.64 47.6 0 1-.01.43l-.79 1.95q-.32.79-.98.26-.18-.14-.4-.21-.94-.27-.62.66.31.88.77 1.68.21.38.09.81-.09.35-.44.48-.48.18-.89-.1-.55-.38-1.14-.68-1.65-.82-1.32.99.13.74.65 1.34a.82.81 42.2 0 1 .06 1.01q-.56.79-.3 1.76a.65.64-6.7 0 1-.64.81q-.26-.01-.44.16-.32.32-.13.73l.51 1.11-4.13 2.5q-.16.09-.23.19-.08.12.03.22.09.09.24.05l9.27 2.27-.45 1.1q-2.38-.7-4.83-1.25c-3.19-.72-6.11-2.02-8.49-4.03q-1.61-1.36-2.11-4.2a1.4 1.38 12.7 0 0-.57-.89l-2.21-1.52q-.5-.35-.13-.84 3.31-4.28.55-9.14a1.81 1.8 85.5 0 0-.92-.79q-4.22-1.59-8.39-2.49-2.33-.5-6.88-.24-5.13.3-9.33-.63l-.65-3.64q-.09-.49.24-.86 2.67-3.13-2.19-5.81 4.05-2.41 10.55-4.4 13.44-4.13 26.65.16 3.24 1.06-.03 2-10.11 2.91-19.29 11.11-.61.54.17.78 2.89.89 5.97 2.03 1.91.71 4.83.46 8.8-.75 17.27 1.3"/><path d="M245.34 71.69q-.36.19-.51.45-.29.49.16.82l4.29 3.11a1.19 1.18 39 0 0 1.57-.16q1.23-1.34 2.78-1.85 4.86 2.68 2.19 5.81-.33.37-.24.86l.65 3.64q-2.94-2.94-5.23-5.38-1.91-2.03-3.86-3.08-2.23-1.2-4.55-2.08-.89-1.43-.45-2.32.24-.47.77-.49 1.33-.04 2.43.67M302.07 88.2q-.03.93.37 1.25.28.23.56-.02.11-.09.25-.13.52-.14.68.37.63 2.01 1.81 3.53.54.69 1.42.73l1.1.06q1.11.05.31-.71-1.28-1.23-1.63-2.98 7.35 3.51 11.17 9.36 1.14 1.75-.84 1.08c-6.83-2.34-16.31.11-22.46 3.32l-.51-1.11q-.19-.41.13-.73.18-.17.44-.16a.65.64-6.7 0 0 .64-.81q-.26-.97.3-1.76a.82.81 42.2 0 0-.06-1.01q-.52-.6-.65-1.34-.33-1.81 1.32-.99.59.3 1.14.68.41.28.89.1.35-.13.44-.48.12-.43-.09-.81-.46-.8-.77-1.68-.32-.93.62-.66.22.07.4.21.66.53.98-.26l.79-1.95a.67.64 47.6 0 0 .01-.43l-1.08-3.37z"/><path fill="#dd9c24" d="M306.94 90.3q.35 1.75 1.63 2.98.8.76-.31.71l-1.1-.06q-.88-.04-1.42-.73-1.18-1.52-1.81-3.53-.16-.51-.68-.37-.14.04-.25.13-.28.25-.56.02-.4-.32-.37-1.25z"/><path d="M290.68 106.56q.11.23.04.46-.15.04-.24-.05-.11-.1-.03-.22.07-.1.23-.19M313.48 186.89q-3.3.8-2.3 4.52.08.29-.21.38l-.37.12a.34.34 0 0 1-.43-.23l-.33-1.11a.79.78-8.7 0 0-.77-.56q-1.46.05-2.58-.85a.69.68 37.4 0 1-.13-.93l.16-.23q.4-.56-.24-.8-1.16-.44-1.44-1.78-.04-.23-.26-.34-.13-.06-.29.01-.23.11-.23.37 0 1.72-.82 3.22-.35.62.19 1.1.16.14.38.15.8.03.57.8-.85 2.84-.07 6.05l-4.74-.93q-.58-.12-.71.46l-1.02 4.51a1.08 1.07-58.8 0 0 .22.91l1.27 1.53q-.29.62-.18 1.05.14.53.67.39.27-.07.69-.17 6.14 9.84 4.17 21.87-.43 2.61-1.88.39-3-4.59-9.21-7.05-.63-.25-.74.42-.4 2.53-.61 5.49-.14 1.89.82 3.68 2.7 5.02 2.63 12.02c-.01 2.02.1 4.04-.71 5.94q-1.04 2.45-1.97-.05-1.08-2.87-3.1-5.42a.43.42 32.1 0 0-.75.17l-.79 3.81q-.11.57.25 1.01 2.36 2.84 2.32 6.44-.77-.61-1.62-.97-1.03-.43-1.41.81-1.98-1.68-1.71-4.1.32-2.86 3.46-12.42 1.63-4.99 1.61-11.57-.02-3.21.89-6.31 1.7-5.77 3.34-11.67 1.54-5.56 2.24-11.25.91-7.48 1.61-14.9c.15-1.57.75-3.02.7-4.63-.1-2.98.87-5.55 1.01-8.47.19-3.96.98-7.64 1.02-11.69q.06-5.35.13-10.56.01-.81.43-1.5.25-.42.15-.89c-.37-1.72-1.38-4.1-2.91-4.96q-.84-.48-.69-1.47.5-3.2 1.22-6.4c1.06-4.71.89-9.64.86-14.47q1.34.38 1.69-.27a1.05 1.05 0 0 0-.73-1.52q-.79-.15-1.08.43l-.14-2.31q-.03-.49-.39-.81l-1.08-.96.45-1.1q13.97 4.48 23.2 16.02 2.03 2.52 3.33 5.17 1.14 2.31-1.15 1.14-1.28-.65-2.58-.69-11.38-.39-21.33 4.39-.72.35-.59 1.13.18 1.17.92 2.09 2.06 2.53 2.08 5.53 0 .59.55.78 13.39 4.84 20.4 17.49 2.26 4.09 2.1 8.93a.67.67 0 0 1-.96.57q-10.54-5.19-23.37-3.98-.57.06-.61.62l-.32 3.72q-.05.56.48.75c5.56 1.99 9.68 8.49 11.34 13.94m-10.6-69.41a.41.41 0 0 0-.41-.41.41.41 0 0 0-.41.41.41.41 0 0 0 .41.41.41.41 0 0 0 .41-.41"/><path fill="#dd9c24" d="m301.27 115.83-.12-1.36q.29-.58 1.08-.43a1.05 1.05 0 0 1 .73 1.52q-.35.65-1.69.27"/><circle cx="302.47" cy="117.48" r=".41" fill="#dd9c24"/><path fill="#dd9c24" d="M313.48 186.89c1.28 4.86 2 8.75.44 13.42q-.15.46-.59.27l-9.02-3.8q-.78-3.21.07-6.05.23-.77-.57-.8-.22-.01-.38-.15-.54-.48-.19-1.1.82-1.5.82-3.22 0-.26.23-.37.16-.07.29-.01.22.11.26.34.28 1.34 1.44 1.78.64.24.24.8l-.16.23a.69.68 37.4 0 0 .13.93q1.12.9 2.58.85a.79.78-8.7 0 1 .77.56l.33 1.11a.34.34 0 0 0 .43.23l.37-.12q.29-.09.21-.38-1-3.72 2.3-4.52M300.51 204.53q-.42.1-.69.17-.53.14-.67-.39-.11-.43.18-1.05zM290.94 253.25q.26 1.5-.24 2.09-.38.45-.77.01l-2.02-2.26q.38-1.24 1.41-.81.85.36 1.62.97"/></svg>