<svg xmlns="http://www.w3.org/2000/svg" viewBox="0 0 382 382"><g fill="none" stroke="#1e492c" stroke-width="2"><path d="M250.99 68.32q-2.32-.6-3.02 1.68M244.58 72.22q-2.69-.88-2.84 1.4M240.51 73.9q-.84-2.95-2.83-5.43-.39-.49-.64.09-.83 1.97-2.36 3.99-.27.35-.58.04l-.99-.96q-.84-.82-1 .34l-.46 3.35M221.34 70.55q-1.51-.73-1.52-1.1M220.08 61.35q-3.01 2.96-3.88 4.09-.64.84.04 1.48.22.21.52.16.16-.02.3-.05M301.03 87.96q-1.68 1.72-.65 3.89a1.44 1.4-51.2 0 1 .09.94q-.42 1.76-1.74 2.97-.82.75-.07 1.57a.32.32 0 0 1 .02.41q-.14.2-.39.23-.59.06-1.04-.33-.68-.58-1.55-.71-.55-.08-.64.46-.16.91.34 1.74a1.15 1.14 37.4 0 1 .12.89q-.48 1.7-.33 3.89M302.03 110.02q-.33.91-1.14 1.21M255.8 83.55q.25-.96-.29-1.36-.41-.31-1.21-.14M253.82 81.53q-.05-1.21.66-1.39 1.5-.37 2.3-1.39.41-.52.11-1.11l-1.02-2.01q-.26-.51-.82-.63l-2.32-.51" vector-effect="non-scaling-stroke"/><path d="M218.2 66.32q-1.03-.22-1.14.71M313.46 187.09q-1.78 1.24-1.65 2.32.41 3.16-1.28.45c-1.45-2.33-3.61-4.51-3.62-7.51q0-.15-.14-.22-.16-.08-.28-.02-.27.11-.35.38-.57 1.93-2.08 2.55M304.06 185.04q-.28-.91-.79-.78-.17.61.79.78M304.06 185.04q-.41 2.47 1.14 3.29.59.31.1.65-.13.09-.13.29 0 .46.32.79.14.15.19.36.11.55-.46.54-1.09-.03-1.14 1.03c-.07 1.47.93 3.41 1.18 5.05M290.75 251.07q-.67-.11-1.11.04-.48.18-.55.69l-.28 2.17M286.46 250.56l1.14-1.76q.23-.36-.05-.68l-.25-.28q-.3-.32-.04-.68.11-.16.27-.27.49-.36.21-.89-.15-.3-.67-.3M301.34 118.29q-.03 1.29.96 3.08.56 1.02.54-.14-.01-1.34.66-2.31.29-.4.02-.82-.84-1.33-2.24-.89M302.06 88.22l.03 2.09q.01.48.47.32.17-.05.28-.17.46-.44.84.07 2.24 2.99 3.53 5.87.67 1.48.7-.14l.13-5.37M290.9 254.42l-1.55.28" vector-effect="non-scaling-stroke"/></g><path fill="#3c9258" d="M250.99 68.32q-2.32-.6-3.02 1.68l-3.39 2.22q-2.69-.88-2.84 1.4-.6.3-1.23.28-.84-2.95-2.83-5.43-.39-.49-.64.09-.83 1.97-2.36 3.99-.27.35-.58.04l-.99-.96q-.84-.82-1 .34l-.46 3.35-10.31-4.77q-1.51-.73-1.52-1.1 9.07-8.9 20.44-9.35c7.92-.32 14.63-.49 21.25 2.51q3.85 1.75-.33 2.4-4.61.72-10.19 3.31"/><path d="M220.08 61.35q-3.01 2.96-3.88 4.09-.64.84.04 1.48.22.21.52.16.16-.02.3-.05-.61.44-.95.93-.28.41.2.54l3.51.95q.01.37 1.52 1.1-4.5.82-8.36-.14-.48-.12-.96.01-3.13.86-6.02.75c-3.6-.14-6.76-.75-10.3.73q-3.96 1.65-8.1 2.6-3.24.75-1.22-1.89c2.81-3.68 6.61-7.54 10.96-9.19 6.88-2.62 15.44-2.81 22.74-2.07"/><path fill="#3c9258" d="M218.2 66.32q-1.03-.22-1.14.71-.14.03-.3.05-.3.05-.52-.16-.68-.64-.04-1.48.87-1.13 3.88-4.09 2.85-.09 4.85.37 1.73.39.14 1.18z"/><path d="M218.2 66.32q-.46.53-1.14.71.11-.93 1.14-.71"/><path fill="#3c9258" d="M301.03 87.96q-1.68 1.72-.65 3.89a1.44 1.4-51.2 0 1 .09.94q-.42 1.76-1.74 2.97-.82.75-.07 1.57a.32.32 0 0 1 .02.41q-.14.2-.39.23-.59.06-1.04-.33-.68-.58-1.55-.71-.55-.08-.64.46-.16.91.34 1.74a1.15 1.14 37.4 0 1 .12.89q-.48 1.7-.33 3.89l-4.14 2.5q-.46.28-.01.57 1.6 1.02 2.47 1.06 4.39.2 8.52 1.98-.33.91-1.14 1.21-.98-.34-1.75-.95-.43-.34-.98-.41-6.53-.84-11.33-4.24-2.24-1.59-2.68-4.66-.09-.59-.57-.92l-2.04-1.41q-.69-.47-.2-1.15 2.88-3.96.77-8.33-.65-1.33-2.27-1.86-3.08-1-6.53-1.88c-5.11-1.3-10.91-.14-16.22-.54q-.35-.03-.62-.27-.47-.44-.67-1.06.25-.96-.29-1.36-.41-.31-1.21-.14-.39-.22-.48-.52-.05-1.21.66-1.39 1.5-.37 2.3-1.39.41-.52.11-1.11l-1.02-2.01q-.26-.51-.82-.63l-2.32-.51q9-5.17 18.3-6.42 10.27-1.37 19.75 1.73 3.32 1.08-.04 2.05-10.24 2.93-19.38 11.23a.35.35 0 0 0 .14.59q2.95.85 5.95 2.02 2.12.82 4.27.61c6.58-.62 12.8-.35 19.31 1.66"/><path d="m240.51 73.9-8.86 1.42.46-3.35q.16-1.16 1-.34l.99.96q.31.31.58-.04 1.53-2.02 2.36-3.99.25-.58.64-.09 1.99 2.48 2.83 5.43M250.99 68.32 247.97 70q.7-2.28 3.02-1.68M244.58 72.22q2.02 2.3 4.78 3.83a1.28 1.27-54.9 0 0 1.58-.28q.68-.78 1.79-1.28l2.32.51q.56.12.82.63l1.02 2.01q.3.59-.11 1.11-.8 1.02-2.3 1.39-.71.18-.66 1.39-2.64-1.49-3.93-3.88-.24-.45-.71-.66l-7.44-3.37q.15-2.28 2.84-1.4M255.8 83.55q-.94-.54-1.5-1.5.8-.17 1.21.14.54.4.29 1.36M302.06 88.22l.03 2.09q.01.48.47.32.17-.05.28-.17.46-.44.84.07 2.24 2.99 3.53 5.87.67 1.48.7-.14l.13-5.37q6.66 3.41 10.07 8.83 1.06 1.68-.81 1.02-1.12-.39-2.81-.54-10.52-.93-19.3 3.71-.15-2.19.33-3.89a1.15 1.14 37.4 0 0-.12-.89q-.5-.83-.34-1.74.09-.54.64-.46.87.13 1.55.71.45.39 1.04.33.25-.03.39-.23a.32.32 0 0 0-.02-.41q-.75-.82.07-1.57 1.32-1.21 1.74-2.97a1.44 1.4-51.2 0 0-.09-.94q-1.03-2.17.65-3.89z"/><path fill="#3c9258" d="m308.04 90.89-.13 5.37q-.03 1.62-.7.14-1.29-2.88-3.53-5.87-.38-.51-.84-.07-.11.12-.28.17-.46.16-.47-.32l-.03-2.09z"/><path d="M313.46 187.09q-1.78 1.24-1.65 2.32.41 3.16-1.28.45c-1.45-2.33-3.61-4.51-3.62-7.51q0-.15-.14-.22-.16-.08-.28-.02-.27.11-.35.38-.57 1.93-2.08 2.55-.28-.91-.79-.78-.17.61.79.78-.41 2.47 1.14 3.29.59.31.1.65-.13.09-.13.29 0 .46.32.79.14.15.19.36.11.55-.46.54-1.09-.03-1.14 1.03c-.07 1.47.93 3.41 1.18 5.05l-5.66-1.2q-.6-.12-.74.48l-1 4.35q-.16.74.36 1.29c6.24 6.43 7.38 14.83 6.57 23.74q-.35 3.76-2.38.58-2.49-3.88-8.79-6.56-.66-.28-.77.43-.38 2.56-.61 5.34-.14 1.67.55 3.07 3.99 8.15 2.55 17.2-.85 5.38-2.87.32-.69-1.73-2.25-4.04a.62.62 0 0 0-1.12.23l-.63 3.12q-.21 1.06.49 1.88 1.04 1.21 1.79 3.8-.67-.11-1.11.04-.48.18-.55.69l-.28 2.17q-1.9-1.23-2.35-3.41l1.14-1.76q.23-.36-.05-.68l-.25-.28q-.3-.32-.04-.68.11-.16.27-.27.49-.36.21-.89-.15-.3-.67-.3.97-4.66 2.71-9.19 1.29-3.36 1.51-11.54.09-3.6.94-6.49 1.66-5.69 3.12-10.89 1.76-6.26 2.54-12.92.81-6.89 1.37-13.17c.17-1.81.81-3.52.79-5.35-.04-2.96.88-5.59 1.01-8.43.18-3.87.98-7.66 1.02-11.67q.06-5.32.13-10.54.01-.8.43-1.49.26-.41.16-.89c-.4-1.78-1.41-4.12-2.98-5q-.77-.44-.63-1.34.49-3.27 1.25-6.67c.87-3.92.83-7.81.9-11.83q-.03 1.29.96 3.08.56 1.02.54-.14-.01-1.34.66-2.31.29-.4.02-.82-.84-1.33-2.24-.89l-.39-5.98q.81-.3 1.14-1.21c9.79 3.54 20.09 11.24 24.7 20.92q.7 1.46-.8.86-3.47-1.38-8.81-.84-7.61.77-15.69 4.34-.7.31-.58 1.05.21 1.27 1.03 2.31 2.04 2.57 1.99 5.49 0 .5.46.67 13.79 4.99 20.7 17.95 2.11 3.96 1.85 8.53a.65.64 14.6 0 1-.93.54q-10.57-5.21-23.35-3.98-.57.05-.62.63l-.31 3.57q-.06.68.59.92c5.56 2.02 9.73 8.74 11.2 14.11"/><path fill="#3c9258" d="m301.34 118.29-.06-1.08q1.4-.44 2.24.89.27.42-.02.82-.67.97-.66 2.31.02 1.16-.54.14-.99-1.79-.96-3.08M313.46 187.09q2.46 6.78.45 13.16-.15.47-.6.28l-8.05-3.49c-.25-1.64-1.25-3.58-1.18-5.05q.05-1.06 1.14-1.03.57.01.46-.54-.05-.21-.19-.36-.32-.33-.32-.79 0-.2.13-.29.49-.34-.1-.65-1.55-.82-1.14-3.29 1.51-.62 2.08-2.55.08-.27.35-.38.12-.06.28.02.14.07.14.22c.01 3 2.17 5.18 3.62 7.51q1.69 2.71 1.28-.45-.13-1.08 1.65-2.32"/><path fill="#3c9258" d="M304.06 185.04q-.96-.17-.79-.78.51-.13.79.78M286.46 250.56q-.54-2.02.61-4.86.52 0 .67.3.28.53-.21.89-.16.11-.27.27-.26.36.04.68l.25.28q.28.32.05.68zM290.75 251.07l.15 3.35-1.55.28q-.35-.28-.54-.73l.28-2.17q.07-.51.55-.69.44-.15 1.11-.04"/><path d="M290.9 254.42q.08.4-.05.74-.15.35-.49.44-.65.16-1.01-.9z"/></svg>