<svg xmlns="http://www.w3.org/2000/svg" viewBox="0 0 382 382"><g fill="none" stroke="#37712e" stroke-width="2"><path d="m250.02 68.79-1.17-.39q-.46-.15-.84.14-1.13.83-1.36 2.23M244.5 72.63l-1.01 1.48M243 73.89l-.11-2.09q-.04-.69-.67-.41l-1.6.72q-.5.23-.44.77.05.45.58.88M239.15 73.91q-.37-3.37-2.38-6.36-.31-.47-.77-.15-1.21.84-.37 2 .42.57-.21.89l-2.67 1.37q-.62.31-1.04-.23-.38-.49-.98-.53-.66-.03-.48.6.1.37.35.69.4.49-.09.88l-1.75 1.41M220.47 70.79q-.48-1-.08-1.67M218.39 61.27q-2.23 1.6-3.02 4.01-.17.5.35.58l2.59.41M308.09 90.85q-.03 2.17-1.42 3a.86.85-35 0 0-.23 1.27q1.43 1.77-.93 1.82a.93.92-6.7 0 1-.93-.73q-.86-3.99-4.15-6.11-.48-.3-.97-.03-1.05.58-1.41 1.62a1.12 1.12 0 0 0 .18 1.06q.45.56.58 1.23.12.58-.32.98-1.63 1.48-1.59 3.57 0 .48-.48.48l-2.74-.04a.66.66 0 0 0-.58.34q-.42.8.27 1.48.98.96.22 2.1-.42.64-.46.85-.14.75.57.96M291.83 107.52l-.14.84M255.26 83.54l-.83-2.71q-.18-.59.41-.8l.5-.18q.59-.21.62-.84.19-3.7-4.45-3.72M310.14 92.03q-.25 1.28.4 1.53.58.22.65-.63M314.74 193.54l-3.19-3.56q-.37-.42-.46-.97l-.23-1.5a.71.7-14.1 0 0-.93-.55q-1.03.37-1.71 1.34-.32.45.21.61.35.11.72.08a.91.91 0 0 1 .89.51q.34.69-.28 1.2-1.74 1.42-2.26 3.5-.12.49.12.93.72 1.35-.39 2.59M288.47 246.9l-2.26 2.65M297.72 109.76q-.46-.85-1.16-1.02-.44-.11-.53.33-.04.16-.01.36M289.5 247.39q-.41 1.31-1.38 3.23-.27.53-.39 2.36" vector-effect="non-scaling-stroke"/></g><path fill="#6de15c" d="m250.02 68.79-1.17-.39q-.46-.15-.84.14-1.13.83-1.36 2.23l-2.15 1.86-1.01 1.48q.19-.13-.49-.22l-.11-2.09q-.04-.69-.67-.41l-1.6.72q-.5.23-.44.77.05.45.58.88-1.06.39-1.61.15-.37-3.37-2.38-6.36-.31-.47-.77-.15-1.21.84-.37 2 .42.57-.21.89l-2.67 1.37q-.62.31-1.04-.23-.38-.49-.98-.53-.66-.03-.48.6.1.37.35.69.4.49-.09.88l-1.75 1.41q-2.57-1.8-5.19-3.07-1.42-.69-3.1-.62-.48-1-.08-1.67 8.77-8.77 21.61-9.18c7.79-.25 13.7.05 19.44 2.61q4.03 1.81-.33 2.5-5.26.83-11.09 3.74"/><path d="M218.39 61.27q-2.23 1.6-3.02 4.01-.17.5.35.58l2.59.41q-1.41.82-2.18 1.77-.36.44.21.52l4.05.56q-.4.67.08 1.67-2.94.35-5.73-.09-2.5-.39-4.1.02c-5 1.26-9.95-.76-14.33 1q-4.05 1.62-8.71 2.78-3.26.82-1.23-1.87 3.58-4.74 8.6-8.18 1.75-1.21 6.67-2.24 8.16-1.72 16.75-.94"/><path fill="#6de15c" d="m218.31 66.27-2.59-.41q-.52-.08-.35-.58.79-2.41 3.02-4.01 3.32-.02 6.4.4 2.01.28.2 1.2z"/><path d="M239.15 73.91q-5.62 1.79-10.39.57l1.75-1.41q.49-.39.09-.88-.25-.32-.35-.69-.18-.63.48-.6.6.04.98.53.42.54 1.04.23l2.67-1.37q.63-.32.21-.89-.84-1.16.37-2 .46-.32.77.15 2.01 2.99 2.38 6.36"/><path fill="#6de15c" d="M308.09 90.85q-.03 2.17-1.42 3a.86.85-35 0 0-.23 1.27q1.43 1.77-.93 1.82a.93.92-6.7 0 1-.93-.73q-.86-3.99-4.15-6.11-.48-.3-.97-.03-1.05.58-1.41 1.62a1.12 1.12 0 0 0 .18 1.06q.45.56.58 1.23.12.58-.32.98-1.63 1.48-1.59 3.57 0 .48-.48.48l-2.74-.04a.66.66 0 0 0-.58.34q-.42.8.27 1.48.98.96.22 2.1-.42.64-.46.85-.14.75.57.96l-2.8 1.73q-.63.38.04.68l.89.41-.14.84c-4.02-2-6.94-3.27-7.64-7.53a1.27 1.25-77.9 0 0-.53-.83l-2.11-1.44a.65.65 0 0 1-.16-.9q3.32-4.64.38-9.29-.33-.52-.9-.72-4.33-1.52-8.27-2.43-2.2-.5-6.29-.15-6.82.59-10.91-1.53l-.83-2.71q-.18-.59.41-.8l.5-.18q.59-.21.62-.84.19-3.7-4.45-3.72 8.89-5.55 18.95-7.09 10.39-1.6 20.31 1.59 3.33 1.07-.03 2.06-10.26 3.01-19.21 11.1-.6.54.18.78 2.89.87 5.82 1.98 1.99.76 4.25.57c9.14-.77 18.1.15 26.31 4.57"/><path d="m250.02 68.79-3.37 1.98q.23-1.4 1.36-2.23.38-.29.84-.14zM243 73.89l-2.24-.13q-.53-.43-.58-.88-.06-.54.44-.77l1.6-.72q.63-.28.67.41zM244.5 72.63q1.8 1.23 3.53 2.6 2.2 1.74 3.48.06 4.64.02 4.45 3.72-.03.63-.62.84l-.5.18q-.59.21-.41.8l.83 2.71q-2.44-2.61-4.26-4.55-1.69-1.8-3.47-2.83-1.96-1.13-4.04-2.05zM308.09 90.85l2.05 1.18q-.25 1.28.4 1.53.58.22.65-.63 4.7 2.88 6.98 6.92.85 1.52-.78.93-1.21-.44-2.91-.6-11.13-1.01-20.78 4.52-.71-.21-.57-.96.04-.21.46-.85.76-1.14-.22-2.1-.69-.68-.27-1.48a.66.66 0 0 1 .58-.34l2.74.04q.48 0 .48-.48-.04-2.09 1.59-3.57.44-.4.32-.98-.13-.67-.58-1.23a1.12 1.12 0 0 1-.18-1.06q.36-1.04 1.41-1.62.49-.27.97.03 3.29 2.12 4.15 6.11a.93.92-6.7 0 0 .93.73q2.36-.05.93-1.82a.86.85-35 0 1 .23-1.27q1.39-.83 1.42-3"/><path fill="#6de15c" d="M311.19 92.93q-.07.85-.65.63-.65-.25-.4-1.53z"/><path d="m314.74 193.54-3.19-3.56q-.37-.42-.46-.97l-.23-1.5a.71.7-14.1 0 0-.93-.55q-1.03.37-1.71 1.34-.32.45.21.61.35.11.72.08a.91.91 0 0 1 .89.51q.34.69-.28 1.2-1.74 1.42-2.26 3.5-.12.49.12.93.72 1.35-.39 2.59l-7.12-1.97a1.05 1.05 0 0 0-1.31.78l-.95 4.32q-.13.57.28.99c6.31 6.57 7.59 15.09 6.63 24.07q-.37 3.42-2.24.53-2.66-4.12-8.87-6.68-.69-.29-.81.46-.35 2.33-.59 4.93-.19 1.96.58 3.55 3.97 8.28 2.56 16.9-.87 5.32-2.96.35-.62-1.47-2.34-4.07a.48.48 0 0 0-.85.11q-.86 2.45-.77 4.91l-2.26 2.65q.68-3.87 3.49-12.86 1.45-4.63 1.62-11.73.08-3.56.9-6.41 1.61-5.63 3.22-11.32 1.71-6.04 2.28-11.32.83-7.79 1.85-15.95c.34-2.66.49-5.29.94-7.92.59-3.49.64-6.9 1.15-10.41.75-5.16.5-10.75.54-15.95q.01-.9.45-1.69a1.27 1.26-36.3 0 0 .14-.89q-.76-3.38-2.96-4.99a1.74 1.73-65.4 0 1-.67-1.81q1.1-4.59 1.7-8.77.79-5.52.16-15.51a1.08 1.06 16.7 0 0-.44-.8q-1.36-1-2.86-1.46-.46-.85-1.16-1.02-.44-.11-.53.33-.04.16-.01.36l-4.33-1.07.14-.84q18.98 2.64 31.22 17.65 2.33 2.87 3.72 5.87.61 1.3-.73.78-3.75-1.44-8.92-.85-8.05.91-15.36 4.19a1.6 1.59 58 0 0-.57 2.48q2.59 3.08 2.7 6.53.01.5.49.68 13.38 4.77 20.46 17.53 2.31 4.17 2.04 8.93a.63.63 0 0 1-.91.53q-10.6-5.19-23.35-4-.59.06-.64.65l-.31 3.57q-.06.68.57.93c7.67 3.04 11.92 12.7 12.5 20.55"/><path fill="#6de15c" d="M297.72 109.76q-1.02.11-1.7-.33-.03-.2.01-.36.09-.44.53-.33.7.17 1.16 1.02M314.74 193.54q.3 3.48-.82 6.72-.16.48-.62.26l-6.07-2.8q1.11-1.24.39-2.59-.24-.44-.12-.93.52-2.08 2.26-3.5.62-.51.28-1.2a.91.91 0 0 0-.89-.51q-.37.03-.72-.08-.53-.16-.21-.61.68-.97 1.71-1.34a.71.7-14.1 0 1 .93.55l.23 1.5q.09.55.46.97zM289.5 247.39q-.41 1.31-1.38 3.23-.27.53-.39 2.36-1.25-1.3-1.52-3.43l2.26-2.65q1 1.19 1.03.49"/><path d="M287.73 252.98q.12-1.83.39-2.36.97-1.92 1.38-3.23 3.94 12.71-1.77 5.59"/></svg>