<svg xmlns="http://www.w3.org/2000/svg" viewBox="0 0 382 382"><g fill="none" stroke-width="2"><path stroke="#df7475" d="M300.06 101.77q-.02-.47-.56-.31-.42.12-.25.51" vector-effect="non-scaling-stroke"/><path stroke="#b97d61" d="M310.28 113.94q-.13.48.35.66.34.12.59-.17M313.04 149.32q-.12.47 0 .84.14.43.59.46.46.04.87-.33" vector-effect="non-scaling-stroke"/><path stroke="#df7475" d="M317.97 168.75q.98-.81.86-1.23-.12-.44-.46-.14-.86.76-1.83 1.08M294.23 232.07q-1.24-.36-1.81.02-.53.35 0 .71.85.58 2.01-.3" vector-effect="non-scaling-stroke"/><path stroke="#b97d61" d="M289.74 241.58q-.13-.35-.45-.19-.48.23-.22.57M290.18 235.2q.8-.82.14-1.5" vector-effect="non-scaling-stroke"/><path stroke="#df7475" d="M203.18 70.96q.1-1.35 1.46-1.58a.55.5-30.9 0 1 .36.07q.23.14.48.08.6-.16.1-.53-1.04-.79-2.21-.95-.56-.08-.35-.6.41-.99 1.32-1.35.57-.23.9.29.48.74 1.29.48a.45.45 0 0 0 .15-.77q-1.35-1.17-3.09-1.78-.37-.13-.62.16l-.23.27q-.61.69-.66-.23-.06-.93-.59-1.91-.03-.05-.08-.04l-.25.05q-.47.1-.31.56.79 2.23-1.04 3.61-.49.37-.3.95l1.05 3.15M198.02 70.97q.04-.41-.16-.54a.49.49 0 0 0-.75.29q-.06.24.17.54" vector-effect="non-scaling-stroke"/><path stroke="#b97d61" d="M187.56 74.42q.02-.7.73-1.15.43-.27.24-.75-.22-.56-1.06-1.07" vector-effect="non-scaling-stroke"/><path stroke="#c10a76" d="M201.71 70.91q.01-.64-.44-.75-.41-.1-.32.31l.08.37" vector-effect="non-scaling-stroke"/><path stroke="#df7475" d="M206.04 63.58a.48.48 0 0 0-.48-.48.48.48 0 0 0-.48.48.48.48 0 0 0 .48.48.48.48 0 0 0 .48-.48M207.857 64.87a.5.39 44.4 0 0-.084-.629.5.39 44.4 0 0-.63-.07.5.39 44.4 0 0 .084.628.5.39 44.4 0 0 .63.07M215.95 65.48a.45.45 0 0 0-.45-.45.45.45 0 0 0-.45.45.45.45 0 0 0 .45.45.45.45 0 0 0 .45-.45M211.575 68.849a.85.5 87 0 0 .454-.875.85.5 87 0 0-.543-.823.85.5 87 0 0-.455.875.85.5 87 0 0 .543.823M208.31 68.22a.39.38 41.9 0 0 .04.71q.33.12.62-.09a.38.38 0 0 0-.13-.68q-.27-.06-.53.06M192.035 69.204a.75.46-24.1 0 0-.873-.114.75.46-24.1 0 0-.497.726.75.46-24.1 0 0 .873.114.75.46-24.1 0 0 .497-.726M254.89 78.5a.37.37 0 0 0-.37-.37.37.37 0 0 0-.37.37.37.37 0 0 0 .37.37.37.37 0 0 0 .37-.37" vector-effect="non-scaling-stroke"/><path stroke="#b97d61" d="M256.91 80.55a.42.42 0 0 0-.42-.42.42.42 0 0 0-.42.42.42.42 0 0 0 .42.42.42.42 0 0 0 .42-.42M305.87 95.6l.04-1.26q.01-.24-.23-.24l-.3.01a.28.27 0 0 0-.27.26l-.06 1.93q-.02.6.57.66 2.1.22 3.48-1.43.04-.05-.01-.1l-.2-.17a.32.32 0 0 0-.45.03q-.84 1-2.03.91a.58.58 0 0 1-.54-.6" vector-effect="non-scaling-stroke"/><path stroke="#df7475" d="M313.18 97.38q0 .17.11.24.08.06.04-.03-.03-.05-.04-.11-.03-.09-.01 0 .01.05 0 .09 0 .05.04.08.12.09.21-.02.15-.18-.06-.29-.11-.06-.25-.02a.06.05 84.3 0 0-.04.06M307.99 122.5a.46.46 0 0 0-.46-.46.46.46 0 0 0-.46.46.46.46 0 0 0 .46.46.46.46 0 0 0 .46-.46M311.181 124.876a.47.4 134.4 0 0 .615-.056.47.4 134.4 0 0 .043-.616.47.4 134.4 0 0-.615.056.47.4 134.4 0 0-.043.616M315.523 125.13a.95.75-43.2 0 0-1.206.103.95.75-43.2 0 0-.18 1.197.95.75-43.2 0 0 1.206-.103.95.75-43.2 0 0 .18-1.197M307.49 127.99q-.22.21-.26.53-.08.55.39.26.51-.32.93-.82.4-.49-.05-.94l-.76-.78q-.48-.49-.56.19-.04.34.23.53.67.48.08 1.03" vector-effect="non-scaling-stroke"/><path stroke="#b97d61" d="M310.54 127.95q-.23.21-.36.49-.32.71.37.36.52-.26 1.01-.62.52-.39.17-.94-.39-.61-.95-1-.47-.33-.44.24.02.31.23.52.47.5-.03.95M308.88 130.52a.43.43 0 0 0-.43-.43.43.43 0 0 0-.43.43.43.43 0 0 0 .43.43.43.43 0 0 0 .43-.43" vector-effect="non-scaling-stroke"/><path stroke="#df7475" d="M317.18 154.53q.06.22.29.24.33.03.31-.3-.01-.23-.25-.29a.29.29 0 0 0-.35.35M309.029 160.46a.43.35-3.9 0 0-.453-.32.43.35-3.9 0 0-.405.38.43.35-3.9 0 0 .453.32.43.35-3.9 0 0 .405-.38M306.86 163.47q-.51-.54-.77.16-.29.76.41 1.19.47.3.95.05.49-.26.11-.66l-.7-.74M319.6 163.22q-.25-.06-.45.18-.26.29.09.46.41.21.59-.15.19-.39-.23-.49M317.9 164.54a.89.49-.7 0 0-.896-.48.89.49-.7 0 0-.884.5.89.49-.7 0 0 .896.48.89.49-.7 0 0 .884-.5M324.57 166.62q.14.13.24-.03.08-.13-.06-.16-.17-.05-.32.04l.14.15M297.074 208.56a.78.42 7.3 0 0-.72-.517.78.42 7.3 0 0-.828.318.78.42 7.3 0 0 .72.516.78.42 7.3 0 0 .828-.318M299.21 208.43q.02.25.25.19.22-.06.06-.23-.1-.1-.24-.06a.09.09 0 0 0-.07.1" vector-effect="non-scaling-stroke"/><path stroke="#b97d61" d="M300.95 214.306a.44.36-27.6 0 0-.557-.115.44.36-27.6 0 0-.223.523.44.36-27.6 0 0 .557.115.44.36-27.6 0 0 .223-.523" vector-effect="non-scaling-stroke"/><path stroke="#df7475" d="M296.03 215.45a.46.46 0 0 0-.46-.46.46.46 0 0 0-.46.46.46.46 0 0 0 .46.46.46.46 0 0 0 .46-.46M297.95 219.8a.5.42 37 0 0-.147-.635.5.42 37 0 0-.652.034.5.42 37 0 0 .146.636.5.42 37 0 0 .652-.034" vector-effect="non-scaling-stroke"/><path stroke="#b97d61" d="M292.97 236.53a.44.44 0 0 0-.44-.44.44.44 0 0 0-.44.44.44.44 0 0 0 .44.44.44.44 0 0 0 .44-.44" vector-effect="non-scaling-stroke"/></g><path fill="#d7e75f" d="M300.06 101.77q-.02-.47-.56-.31-.42.12-.25.51l-8.44 4.5a.25.25 0 0 0 0 .44c2.53 1.42 5.12 1.14 7.85 1.94q6.14 1.81 11.62 5.09-.13.48.35.66.34.12.59-.17c6.26 4.19 12.26 9.73 15.57 16.66q.63 1.32-.7.72-2.14-.96-4.45-.98-10.39-.06-20.02 4.44a1.46 1.46 0 0 0-.49 2.29q2.54 2.95 2.83 6.71.04.5.51.65 4.68 1.49 8.57 4.4-.12.47 0 .84.14.43.59.46.46.04.87-.33c6.19 4.71 12.79 12.75 12.41 21.07a.52.52 0 0 1-.7.46l-8.24-3.07q.98-.81.86-1.23-.12-.44-.46-.14-.86.76-1.83 1.08-6.88-1.18-13.94-.64a.7.7 0 0 0-.64.64l-.31 3.51q-.05.61.5.87c7.5 3.51 11.44 11.47 12.48 19.43q.58 4.38-.7 8.12-.18.52-.66.25-6.49-3.65-13.6-4.91a.7.69-78.3 0 0-.8.53l-1.04 4.58q-.13.58.28 1c6.4 6.56 7.45 14.91 6.65 24q-.31 3.57-2.25.56-2.57-3.98-8.88-6.69-.54-.23-.68.34-.7 2.94-.72 6.14-.01 1.35.8 2.96.69 1.4 1.2 2.92-1.24-.36-1.81.02-.53.35 0 .71.85.58 2.01-.3 2.18 7.63.89 13.74-.98 4.62-2.55.16-.63-1.81-3.03-4.82-.13-.35-.45-.19-.48.23-.22.57l-.73 3.87q-.09.5.23.9 2.96 3.63 2.3 8.46a.54.54 0 0 1-.94.29c-2.47-2.72-4.37-4.13-3.34-8.25q1.52-6.09 3.59-12.03.8-.82.14-1.5c1.34-5.23.42-10.28 1.94-15.35q1.46-4.9 2.82-9.7 1.78-6.25 2.6-12.46.86-6.6 1.41-12.92c.23-2.71.85-5.27 1.04-7.99q.17-2.42.55-4.97 1.77-11.86 1.52-24.79-.01-.52.26-.97c1.2-1.98-1.3-5.45-2.81-6.64a1.33 1.3-66.1 0 1-.47-1.25q.54-3.16 1.27-6.45c1.24-5.64.97-11.87.64-17.48q-.11-1.83-1.85-2.39-2.19-.7-4.51-1.15c-3.03-.59-5.83-2.03-8.23-3.85q-1.91-1.43-2.36-4.43a1.26 1.25 13.1 0 0-.53-.85l-2.19-1.49q-.47-.33-.17-.81 3.33-5.42.23-9.53-.34-.45-.87-.63-3.59-1.21-7.15-2.15c-5.08-1.34-10.79-.21-16.15-.52q-.55-.03-.91-.45-2.39-2.74-5.26-5.02c-.93-.74-1-2-2.07-2.53-2.56-1.28-5.52-3.48-8.45-3.05-3.55.51-6.86 1.23-10.53 1.07q-.46-.02-.86-.26c-2.46-1.54-5.64-3.9-8.67-3.85q-2.19.03-4.57.01c-1.3-.01-2.58-.8-3.78-.46q-4.44 1.24-9.03.57.1-1.35 1.46-1.58a.55.5-30.9 0 1 .36.07q.23.14.48.08.6-.16.1-.53-1.04-.79-2.21-.95-.56-.08-.35-.6.41-.99 1.32-1.35.57-.23.9.29.48.74 1.29.48a.45.45 0 0 0 .15-.77q-1.35-1.17-3.09-1.78-.37-.13-.62.16l-.23.27q-.61.69-.66-.23-.06-.93-.59-1.91-.03-.05-.08-.04l-.25.05q-.47.1-.31.56.79 2.23-1.04 3.61-.49.37-.3.95l1.05 3.15-2.54.08q.04-.41-.16-.54a.49.49 0 0 0-.75.29q-.06.24.17.54l-9.72 3.16q.02-.7.73-1.15.43-.27.24-.75-.22-.56-1.06-1.07 5.63-7.7 12.74-9.07 12.76-2.46 24.43-.67 2.52.39.15 1.33-4.55 1.79-8.74 4.83-.83.6.18.74l3.48.48q.75.1 1.28-.44c8.65-8.83 21.2-9.69 33.07-8.2q3.54.45 8.41 2.52.44.19.65.61.21.4-.05.8-.27.42-.77.49-9.76 1.47-17.56 7.42-.32.25.01.49l4.63 3.37a.74.74 0 0 0 .86 0q8.56-6.09 20.58-7.99 9.92-1.58 19.95 1.63 3.34 1.07-.03 2.05-10.25 2.98-19.26 11.13-.57.51.16.73 2.97.89 5.98 2.04 1.94.74 4 .56 5.44-.49 10.61-.07c9.82.8 20.57 5.23 25.97 13.61q.87 1.34-.68.94c-1.4-.37-2.62-.79-4.07-.86q-6.85-.3-13.39 1.85m-94.02-38.19a.48.48 0 0 0-.48-.48.48.48 0 0 0-.48.48.48.48 0 0 0 .48.48.48.48 0 0 0 .48-.48m1.817 1.29a.5.39 44.4 0 0-.084-.629.5.39 44.4 0 0-.63-.07.5.39 44.4 0 0 .084.628.5.39 44.4 0 0 .63.07m8.093.61a.45.45 0 0 0-.45-.45.45.45 0 0 0-.45.45.45.45 0 0 0 .45.45.45.45 0 0 0 .45-.45m-4.375 3.369a.85.5 87 0 0 .454-.875.85.5 87 0 0-.543-.823.85.5 87 0 0-.455.875.85.5 87 0 0 .543.823m-3.265-.629a.39.38 41.9 0 0 .04.71q.33.12.62-.09a.38.38 0 0 0-.13-.68q-.27-.06-.53.06m-16.275.984a.75.46-24.1 0 0-.873-.114.75.46-24.1 0 0-.497.726.75.46-24.1 0 0 .873.114.75.46-24.1 0 0 .497-.726M254.89 78.5a.37.37 0 0 0-.37-.37.37.37 0 0 0-.37.37.37.37 0 0 0 .37.37.37.37 0 0 0 .37-.37m2.02 2.05a.42.42 0 0 0-.42-.42.42.42 0 0 0-.42.42.42.42 0 0 0 .42.42.42.42 0 0 0 .42-.42m48.96 15.05.04-1.26q.01-.24-.23-.24l-.3.01a.28.27 0 0 0-.27.26l-.06 1.93q-.02.6.57.66 2.1.22 3.48-1.43.04-.05-.01-.1l-.2-.17a.32.32 0 0 0-.45.03q-.84 1-2.03.91a.58.58 0 0 1-.54-.6m7.31 1.78q0 .17.11.24.08.06.04-.03-.03-.05-.04-.11-.03-.09-.01 0 .01.05 0 .09 0 .05.04.08.12.09.21-.02.15-.18-.06-.29-.11-.06-.25-.02a.06.05 84.3 0 0-.04.06m-5.19 25.12a.46.46 0 0 0-.46-.46.46.46 0 0 0-.46.46.46.46 0 0 0 .46.46.46.46 0 0 0 .46-.46m3.191 2.376a.47.4 134.4 0 0 .615-.056.47.4 134.4 0 0 .043-.616.47.4 134.4 0 0-.615.056.47.4 134.4 0 0-.043.616m4.341.254a.95.75-43.2 0 0-1.205.103.95.75-43.2 0 0-.18 1.197.95.75-43.2 0 0 1.206-.103.95.75-43.2 0 0 .18-1.197m-8.032 2.86q-.22.21-.26.53-.08.55.39.26.51-.32.93-.82.4-.49-.05-.94l-.76-.78q-.48-.49-.56.19-.04.34.23.53.67.48.08 1.03m3.05-.04q-.23.21-.36.49-.32.71.37.36.52-.26 1.01-.62.52-.39.17-.94-.39-.61-.95-1-.47-.33-.44.24.02.31.23.52.47.5-.03.95m-1.66 2.57a.43.43 0 0 0-.43-.43.43.43 0 0 0-.43.43.43.43 0 0 0 .43.43.43.43 0 0 0 .43-.43m8.3 24.01q.06.22.29.24.33.03.31-.3-.01-.23-.25-.29a.29.29 0 0 0-.35.35m-8.151 5.93a.43.35-3.9 0 0-.453-.32.43.35-3.9 0 0-.405.38.43.35-3.9 0 0 .453.32.43.35-3.9 0 0 .405-.38m-2.169 3.01q-.51-.54-.77.16-.29.76.41 1.19.47.3.95.05.49-.26.11-.66zm12.74-.25q-.25-.06-.45.18-.26.29.09.46.41.21.59-.15.19-.39-.23-.49m-1.7 1.32a.89.49-.7 0 0-.896-.48.89.49-.7 0 0-.884.5.89.49-.7 0 0 .896.48.89.49-.7 0 0 .884-.5m6.67 2.08q.14.13.24-.03.08-.13-.06-.16-.17-.05-.32.04zm-27.496 41.94a.78.42 7.3 0 0-.72-.517.78.42 7.3 0 0-.828.318.78.42 7.3 0 0 .72.516.78.42 7.3 0 0 .828-.318m2.136-.13q.02.25.25.19.22-.06.06-.23-.1-.1-.24-.06a.09.09 0 0 0-.07.1m1.74 5.876a.44.36-27.6 0 0-.557-.115.44.36-27.6 0 0-.223.523.44.36-27.6 0 0 .557.115.44.36-27.6 0 0 .223-.523m-4.92 1.144a.46.46 0 0 0-.46-.46.46.46 0 0 0-.46.46.46.46 0 0 0 .46.46.46.46 0 0 0 .46-.46m1.92 4.35a.5.42 37 0 0-.147-.635.5.42 37 0 0-.652.034.5.42 37 0 0 .146.636.5.42 37 0 0 .652-.034m-4.98 16.73a.44.44 0 0 0-.44-.44.44.44 0 0 0-.44.44.44.44 0 0 0 .44.44.44.44 0 0 0 .44-.44"/><path fill="#e7018a" d="m203.18 70.96-1.47-.05q.01-.64-.44-.75-.41-.1-.32.31l.08.37q-.32.09-.47.05l-1.05-3.15q-.19-.58.3-.95 1.83-1.38 1.04-3.61-.16-.46.31-.56l.25-.05q.05-.01.08.04.53.98.59 1.91.05.92.66.23l.23-.27q.25-.29.62-.16 1.74.61 3.09 1.78a.45.45 0 0 1-.15.77q-.81.26-1.29-.48-.33-.52-.9-.29-.91.36-1.32 1.35-.21.52.35.6 1.17.16 2.21.95.5.37-.1.53-.25.06-.48-.08a.55.5-30.9 0 0-.36-.07q-1.36.23-1.46 1.58"/><circle cx="205.56" cy="63.58" r=".48" fill="#e7018a"/><ellipse fill="#e7018a" rx=".5" ry=".39" transform="rotate(44.4 24.7 286.492)"/><circle cx="215.5" cy="65.48" r=".45" fill="#e7018a"/><ellipse fill="#e7018a" rx=".85" ry=".5" transform="rotate(87 69.936 145.453)"/><path fill="#e7018a" d="M208.31 68.22q.26-.12.53-.06a.38.38 0 0 1 .13.68q-.29.21-.62.09a.39.38 41.9 0 1-.04-.71"/><ellipse fill="#e7018a" rx=".75" ry=".46" transform="rotate(-24.1 258.486 -413.437)"/><path fill="#9a1262" d="m201.71 70.91-.68-.07-.08-.37q-.09-.41.32-.31.45.11.44.75"/><path fill="#e7018a" d="M198.02 70.97q-.23.34-.74.29-.23-.3-.17-.54a.49.49 0 0 1 .75-.29q.2.13.16.54"/><path fill="#9a1262" d="M187.47 71.45q.84.51 1.06 1.07.19.48-.24.75-.71.45-.73 1.15-.46.43-1.4.27a.74.73 25 0 1-.44-1.2z"/><circle cx="254.52" cy="78.5" r=".37" fill="#e7018a"/><circle cx="256.49" cy="80.55" r=".42" fill="#9a1262"/><path fill="#9a1262" d="M306.41 96.2q1.19.09 2.03-.91a.32.32 0 0 1 .45-.03l.2.17q.05.05.01.1-1.38 1.65-3.48 1.43-.59-.06-.57-.66l.06-1.93a.28.27 0 0 1 .27-.26l.3-.01q.24 0 .23.24l-.04 1.26a.58.58 0 0 0 .54.6"/><path fill="#e7018a" d="M313.18 97.38a.06.05 84.3 0 1 .04-.06q.14-.04.25.02.21.11.06.29-.09.11-.21.02-.04-.03-.04-.08.01-.04 0-.09-.02-.09.01 0 .01.06.04.11.04.09-.04.03-.11-.07-.11-.24M300.06 101.77l-.81.2q-.17-.39.25-.51.54-.16.56.31"/><path fill="#9a1262" d="M311.22 114.43q-.25.29-.59.17-.48-.18-.35-.66z"/><circle cx="307.53" cy="122.5" r=".46" fill="#e7018a"/><ellipse fill="#e7018a" rx=".47" ry=".4" transform="rotate(134.4 129.58 127.743)"/><ellipse fill="#e7018a" rx=".95" ry=".75" transform="rotate(-43.2 316.257 -334.695)"/><path fill="#e7018a" d="M307.41 126.96q-.27-.19-.23-.53.08-.68.56-.19l.76.78q.45.45.05.94-.42.5-.93.82-.47.29-.39-.26.04-.32.26-.53.59-.55-.08-1.03"/><path fill="#9a1262" d="M310.57 127q-.21-.21-.23-.52-.03-.57.44-.24.56.39.95 1 .35.55-.17.94-.49.36-1.01.62-.69.35-.37-.36.13-.28.36-.49.5-.45.03-.95"/><circle cx="308.45" cy="130.52" r=".43" fill="#9a1262"/><path fill="#9a1262" d="M314.5 150.29q-.41.37-.87.33-.45-.03-.59-.46-.12-.37 0-.84.78.29 1.46.97"/><path fill="#e7018a" d="M317.18 154.53a.29.29 0 0 1 .35-.35q.24.06.25.29.02.33-.31.3-.23-.02-.29-.24"/><ellipse fill="#e7018a" rx=".43" ry=".35" transform="rotate(-3.9 2511.184 -4451.717)"/><path fill="#e7018a" d="m306.86 163.47.7.74q.38.4-.11.66-.48.25-.95-.05-.7-.43-.41-1.19.26-.7.77-.16M319.83 163.71q-.18.36-.59.15-.35-.17-.09-.46.2-.24.45-.18.42.1.23.49"/><ellipse fill="#e7018a" rx=".89" ry=".49" transform="rotate(-.7 13626.938 -25865.024)"/><path fill="#e7018a" d="M324.43 166.47q.15-.09.32-.04.14.03.06.16-.1.16-.24.03zM317.97 168.75q-.74.04-1.43-.29.97-.32 1.83-1.08.34-.3.46.14.12.42-.86 1.23"/><ellipse fill="#e7018a" rx=".78" ry=".42" transform="rotate(7.3 -1485.784 2426.664)"/><path fill="#e7018a" d="M299.21 208.43a.09.09 0 0 1 .07-.1q.14-.04.24.06.16.17-.06.23-.23.06-.25-.19"/><ellipse fill="#9a1262" rx=".44" ry=".36" transform="rotate(-27.6 586.944 -504.576)"/><circle cx="295.57" cy="215.45" r=".46" fill="#e7018a"/><ellipse fill="#e7018a" rx=".5" ry=".42" transform="rotate(37 -179.233 554.392)"/><path fill="#e7018a" d="m294.23 232.07.2.43q-1.16.88-2.01.3-.53-.36 0-.71.57-.38 1.81-.02"/><path fill="#9a1262" d="M290.18 235.2q-.19-.67.14-1.5.66.68-.14 1.5"/><circle cx="292.53" cy="236.53" r=".44" fill="#9a1262"/><path fill="#9a1262" d="m289.74 241.58-.67.38q-.26-.34.22-.57.32-.16.45.19"/></svg>