<svg xmlns="http://www.w3.org/2000/svg" viewBox="0 0 382 382"><g fill="none" stroke="#793671" stroke-width="2"><path d="M254.86 66.64q-2.11-.89-5.08.79-.76.43-.77-.45 0-.19-.07-.36-.33-.78-.75-.05-1.13 1.9-1.23 4.11M245.55 71.5l-2.7-1.03q-.47-.18-.93.04l-1.34.66a.54.54 0 0 0-.21.79l.21.31q.18.28-.14.39-.16.06-.29-.05-1.4-1.27-1.18-3.12.07-.53-.24-.96t-.81-.62a1.29 1.28-89.6 0 1-.74-.76l-.2-.53q-.21-.57-.79-.35-.33.12-.57.4-.36.43-.23.96.5 1.9-1.46 2.96-.49.27-.89-.13l-1.1-1.1a.6.6 0 0 0-.97.16l-2.43 4.98M220.3 70.81q-.28-1.13.19-1.74M218.32 61.26l-1.9 1.74a.72.71 44.2 0 0 .02 1.07q1.29 1.11 3.21 1.34M254.64 73.48l1.17 3.17q.22.59-.17 1.09l-.88 1.11q-.32.4-.22.91l.73 3.79M299.01 87.31l-.77 2.26q-.17.49.07.96.98 1.97-.45 3.9a.59.58 22.4 0 1-.57.23q-.34-.05-.57-.3-.34-.37-.63.05-.22.3-.08.64.27.67.66 1.3.49.77-.43.72l-2.44-.12q-.64-.04-.72.6l-.98 8.13M296.48 108.26q-.22.62-.08 1.29M314.64 192.45q-1.61.4-1.69 1-.43 3.22-2.31.56-.81-1.13-1.51-2.37a1.27 1.26 65.7 0 0-1.5-.57l-.28.09a.58.57 62.9 0 0-.28.87q1.88 2.73-.37 5.43M300.15 87.63q2.17 4.71 5.4 6.92.41.29.37-.21-.25-2.61 1-4.04" vector-effect="non-scaling-stroke"/></g><path fill="#f16ce1" d="M254.86 66.64q-2.11-.89-5.08.79-.76.43-.77-.45 0-.19-.07-.36-.33-.78-.75-.05-1.13 1.9-1.23 4.11-.68.57-1.41.82l-2.7-1.03q-.47-.18-.93.04l-1.34.66a.54.54 0 0 0-.21.79l.21.31q.18.28-.14.39-.16.06-.29-.05-1.4-1.27-1.18-3.12.07-.53-.24-.96t-.81-.62a1.29 1.28-89.6 0 1-.74-.76l-.2-.53q-.21-.57-.79-.35-.33.12-.57.4-.36.43-.23.96.5 1.9-1.46 2.96-.49.27-.89-.13l-1.1-1.1a.6.6 0 0 0-.97.16l-2.43 4.98q-2.46-1.99-4.96-3.12-1.54-.69-3.28-.57-.28-1.13.19-1.74 8.03-8.12 19.78-8.84 8.94-.54 13.88.21 3.98.62 8.51 2.63a.83.83 0 0 1 .49.69q.07.87-.82 1.04-3.89.76-7.47 1.84"/><path d="m218.32 61.26-1.9 1.74a.72.71 44.2 0 0 .02 1.07q1.29 1.11 3.21 1.34l-3.78 2.67a.28.27 30.6 0 0 .13.5l4.49.49q-.47.61-.19 1.74-3.68.4-7.08-.4-.48-.11-.95.01-4.66 1.19-9.75.57c-1.9-.23-4.07-.13-5.86.59q-4.42 1.77-8.97 2.9-3.36.84-1.27-1.92c3.57-4.69 7.76-8.52 13.64-9.97q8.94-2.2 18.26-1.33"/><path fill="#f16ce1" d="M219.65 65.41q-1.92-.23-3.21-1.34a.72.71 44.2 0 1-.02-1.07l1.9-1.74q3.75-.05 6.6.44 1.97.35.16 1.19z"/><path d="m254.86 66.64-7.9 4.04q.1-2.21 1.23-4.11.42-.73.75.05.07.17.07.36.01.88.77.45 2.97-1.68 5.08-.79"/><path d="M245.55 71.5q-.32.26-.52.58-.28.44.09.81 1.88 1.84 4.26 3.08.68.36 1.33-.05l3.93-2.44 1.17 3.17q.22.59-.17 1.09l-.88 1.11q-.32.4-.22.91l.73 3.79q-2.89-3.01-4.85-5.19-1-1.12-2.15-1.82c-2.76-1.68-5.17-3.09-8.56-2.41q-5.82 1.18-11.17.37l2.43-4.98a.6.6 0 0 1 .97-.16l1.1 1.1q.4.4.89.13 1.96-1.06 1.46-2.96-.13-.53.23-.96.24-.28.57-.4.58-.22.79.35l.2.53a1.29 1.28-89.6 0 0 .74.76q.5.19.81.62t.24.96q-.22 1.85 1.18 3.12.13.11.29.05.32-.11.14-.39l-.21-.31a.54.54 0 0 1 .21-.79l1.34-.66q.46-.22.93-.04z"/><path fill="#f16ce1" d="m299.01 87.31-.77 2.26q-.17.49.07.96.98 1.97-.45 3.9a.59.58 22.4 0 1-.57.23q-.34-.05-.57-.3-.34-.37-.63.05-.22.3-.08.64.27.67.66 1.3.49.77-.43.72l-2.44-.12q-.64-.04-.72.6l-.98 8.13q-.78.3-1.22.85-.33.41.16.63 2.55 1.11 5.44 1.1-.22.62-.08 1.29-6.38-1.03-10.28-4.44-1.42-1.25-2.08-4.31a1.33 1.32 11.2 0 0-.55-.82l-2.05-1.4q-.6-.41-.16-.99 3.02-4.04.75-8.57-.59-1.18-1.87-1.59-4.24-1.37-7.59-2.19-2.25-.55-6.3-.18-6.83.61-11-1.51l-.73-3.79q-.1-.51.22-.91l.88-1.11q.39-.5.17-1.09l-1.17-3.17q16.83-8.95 35.19-3.99.8.22 1.54.57 2.09 1.01-.14 1.64-10.58 2.96-19.73 11.25-.6.54.17.77 3.08.94 6.2 2.1 1.64.61 4.42.38 8.43-.7 16.72 1.11"/><path d="M300.15 87.63q2.17 4.71 5.4 6.92.41.29.37-.21-.25-2.61 1-4.04 7.37 3.48 11.19 9.38 1.13 1.74-.83 1.05-1.11-.38-2.81-.55-11.88-1.12-22.37 5.5l.98-8.13q.08-.64.72-.6l2.44.12q.92.05.43-.72-.39-.63-.66-1.3-.14-.34.08-.64.29-.42.63-.05.23.25.57.3a.59.58 22.4 0 0 .57-.23q1.43-1.93.45-3.9-.24-.47-.07-.96l.77-2.26z"/><path fill="#f16ce1" d="m300.15 87.63 6.77 2.67q-1.25 1.43-1 4.04.04.5-.37.21-3.23-2.21-5.4-6.92"/><path d="M314.64 192.45q-1.61.4-1.69 1-.43 3.22-2.31.56-.81-1.13-1.51-2.37a1.27 1.26 65.7 0 0-1.5-.57l-.28.09a.58.57 62.9 0 0-.28.87q1.88 2.73-.37 5.43l-6.15-1.69q-1.49-.41-1.82 1.09l-.88 3.99q-.13.57.28.99c6.3 6.55 7.53 14.94 6.65 23.91q-.36 3.68-2.35.57-2.48-3.9-8.95-6.63a.45.44 15.4 0 0-.61.34q-.41 2.68-.64 5.64-.12 1.68.63 3.17 3.92 7.74 2.47 16.94-.85 5.39-2.82.31-.79-2.02-2.46-4.19a.52.52 0 0 0-.92.21l-.69 3.45q-.18.9.41 1.61 2.41 2.95 2.13 7.21-.16 2.37-1.6.48-.68-.89-1.52-1.67c-1.23-1.13-1.91-3.37-1.51-4.98q1.46-5.92 3.19-11.25 1.68-5.19 1.71-11.92.01-3.25.91-6.33 2.23-7.61 4.3-15.33.52-1.95.7-4c.17-1.97.73-3.75.9-5.74q.55-6.77 1.55-13.95.34-2.51.48-4.92c.13-2.43.89-4.62.99-7.07.14-3.87.98-7.58 1.01-11.52q.04-5.42.12-10.89 0-.62.38-1.1a1.08 1.06 59.6 0 0 .21-.84c-.27-1.63-1.27-4.23-2.82-5.1q-1.1-.62-.83-1.79 1.1-4.6 1.68-8.68.83-5.78.17-15.8a1.03 1.01-74 0 0-.41-.76q-1.86-1.36-4.19-1.67-.14-.67.08-1.29c12.06 3.01 24.61 11.14 30.24 22.61q.73 1.49-.83.9-3.64-1.37-8.89-.79-7.6.85-15.17 4.13a1.66 1.66 0 0 0-.61 2.6q2.6 3.06 2.66 6.41.01.55.54.74 13.36 4.78 20.42 17.52 2.22 4.01 2.09 8.88a.67.67 0 0 1-.97.58q-10.57-5.19-23.33-4-.61.06-.66.66l-.31 3.69q-.04.55.47.75c7.43 2.81 11.71 12.16 12.51 19.51"/><path fill="#f16ce1" d="M314.64 192.45q.59 4.04-.72 7.81-.16.48-.63.27l-6.59-3.07q2.25-2.7.37-5.43a.58.57 62.9 0 1 .28-.87l.28-.09a1.27 1.26 65.7 0 1 1.5.57q.7 1.24 1.51 2.37 1.88 2.66 2.31-.56.08-.6 1.69-1"/></svg>