<svg xmlns="http://www.w3.org/2000/svg" viewBox="0 0 382 382"><g fill="none" stroke="#760e31" stroke-width="2"><path d="m244.5 72.54-2.15 1.14M239.25 74l-.38-2.21q-.09-.56-.64-.69-1.1-.26-1.24-1.39-.08-.7-.74-.46c-.8.3-1.12 1.26-.73 2.01q.28.53-.17.93-1.06.91-2.43 1.36-.42.14-.8-.08-.57-.32-1.24-.43a.72.71-73.8 0 0-.77.43q-.29.67.26 1.59M219 70.85l-1.02-1.91M219.55 61.31l-3.9 2.87q-.38.28-.5.74-.28 1.15-.13 2.6.06.56.61.45.25-.06.59-.27M244.8 73.03q-.23.06-.32.29-.09.26.18.32.31.07.61-.48" vector-effect="non-scaling-stroke"/><path d="M217.53 66.75q-.66-.48-1.08-.31-.3.13-.33.56-.02.34.1.7M312.27 93.67l-.17 1.7a.34.34 0 0 1-.38.3l-.29-.03q-.36-.03-.35-.39l.03-1.57q.03-1.53-1.01-.41l-2.61 2.82q-.51.57.2.85l.6.23q.7.28.18.84l-1.48 1.57q-.43.45-.67-.12-.52-1.24-1.48-2.12a1.36 1.35-60.9 0 1-.39-1.39q.21-.77-.57-.95a1.08 1.07-7.8 0 1-.69-.52q-.13-.24-.14-.46" vector-effect="non-scaling-stroke"/><path d="M303.05 94.02q.61.16.73-.22.12-.37-.25-.48-.18-.06-.36-.03-.16.03-.23.18-.12.26.11.55" vector-effect="non-scaling-stroke"/><path d="M303.05 94.02q-.97-.73-1.07-2.08a1.4 1.07 37.3 0 0-.11-.4q-.36-.8-1.07-.62-.44.12-.61.53l-1.05 2.39q-.36.81.53.78.31-.02.47-.23.43-.57.7.09.33.8-.35 1.38-2.53 2.17-2.53 4.85.01.56-.55.68-1.48.29-2.79-.19a.57.57 0 0 0-.7.81l1.06 1.96M290.59 106.69q-.23.15-.26.36-.04.41.37.48.75.12.76.76M254.01 81.75l1.6-.96a.71.69-22.9 0 0 .32-.76c-.42-1.63-1.13-3.15-2.73-3.93q-.85-.42-1.55-.99M301.03 109.69l-1.5.62M302.06 110q-.31 1-1.26 1.24M305.01 133.83q-.14-.31-.39-.25-.16.05-.22.1-.1.08-.07.29M310.51 180.54l-1.96.72q-.63.24-.47.9.22.9 1.11 1.47a.64.64 0 0 0 .87-.19q.23-.36.66-.29.68.13.13.55l-.37.28q-.54.42-.46 1.1.14 1.19-.85 1.8c-1.28.79-2.13 2.6-1.19 3.98a.52.52 0 0 1-.59.78q-.95-.31-1.41.58a.59.58 28.8 0 1-.82.23q-3.09-1.82-3.4-5.05-.01-.08-.05-.15-.12-.2-.28-.16-.29.08-.35.38-.59 2.67-2.76 3.87" vector-effect="non-scaling-stroke"/><path d="M300.19 131.26q1.43.9 2.54 1.64 1.68 1.13 1.22-.84-.12-.55-.75-1.64-.25-.44-.21-.94.11-1.26.56-1.94 1.26-1.88-.74-.83-.33.18-1.73.53M301.31 118.07q.92-.36 2.44.81a.72.72 0 0 0 1.15-.63q-.17-2.01 1.6-3.35.88-.66-.19-.39-1.46.38-2.64 1.18-.51.35-.83-.17-.23-.37-.58-.63-.42-.31-.51-.82-.18-.94-.68-.64M302.1 196.02l-3.99-2.04M300.82 205.43q.3 3.13-.1 3.56-2.21 2.28.76 1.15.08-.04 2.06.67M288.23 245.84l-1.04-.65M289.49 248.09q-.39.83-.42 1.7-.03.63.31 1.15.38.59.05 1.2-.32.59.28.87.55.26 1.24.25" vector-effect="non-scaling-stroke"/><path d="M303.23 114.45q.17.4.3.2.11-.17-.05-.3-.08-.06-.18-.03a.1.09 74.6 0 0-.07.13" vector-effect="non-scaling-stroke"/></g><path fill="#ec1b62" d="m244.5 72.54-2.15 1.14-3.1.32-.38-2.21q-.09-.56-.64-.69-1.1-.26-1.24-1.39-.08-.7-.74-.46c-.8.3-1.12 1.26-.73 2.01q.28.53-.17.93-1.06.91-2.43 1.36-.42.14-.8-.08-.57-.32-1.24-.43a.72.71-73.8 0 0-.77.43q-.29.67.26 1.59-3.59-1.75-7.14-3.83-1.02-.6-4.23-.38l-1.02-1.91c1.28.24 2.33.31 3.33-.64 8.84-8.5 20.31-9.08 32.04-7.98q3.69.34 9.34 2.76a.85.85 0 0 1 .46.53q.17.6-.28.98-.31.26-.73.32-9.87 1.46-17.64 7.63"/><path d="m219.55 61.31-3.9 2.87q-.38.28-.5.74-.28 1.15-.13 2.6.06.56.61.45.25-.06.59-.27l-.21.3q-.31.46.23.57l1.74.37 1.02 1.91q-3.03.26-5.74-.43a2.26 2.24-45.2 0 0-1.16.01q-4 1.06-7.39.71-5.47-.56-6.79-.03-5.43 2.18-10.3 3.38-3.3.82-1.23-1.88c2.9-3.77 6.62-7.55 10.95-9.19 6.74-2.56 15.08-2.8 22.21-2.11"/><path fill="#ec1b62" d="M217.53 66.75q-.66-.48-1.08-.31-.3.13-.33.56-.02.34.1.7-.34.21-.59.27-.55.11-.61-.45-.15-1.45.13-2.6.12-.46.5-.74l3.9-2.87q3.15-.05 5.33.39 1.81.36.17 1.2z"/><path d="M217.53 66.75q-.6.62-1.31.95-.12-.36-.1-.7.03-.43.33-.56.42-.17 1.08.31"/><path fill="#ec1b62" d="m312.27 93.67-.17 1.7a.34.34 0 0 1-.38.3l-.29-.03q-.36-.03-.35-.39l.03-1.57q.03-1.53-1.01-.41l-2.61 2.82q-.51.57.2.85l.6.23q.7.28.18.84l-1.48 1.57q-.43.45-.67-.12-.52-1.24-1.48-2.12a1.36 1.35-60.9 0 1-.39-1.39q.21-.77-.57-.95a1.08 1.07-7.8 0 1-.69-.52q-.13-.24-.14-.46.61.16.73-.22.12-.37-.25-.48-.18-.06-.36-.03-.16.03-.23.18-.12.26.11.55-.97-.73-1.07-2.08a1.4 1.07 37.3 0 0-.11-.4q-.36-.8-1.07-.62-.44.12-.61.53l-1.05 2.39q-.36.81.53.78.31-.02.47-.23.43-.57.7.09.33.8-.35 1.38-2.53 2.17-2.53 4.85.01.56-.55.68-1.48.29-2.79-.19a.57.57 0 0 0-.7.81l1.06 1.96-4.39 2.72q-.23.15-.26.36-.04.41.37.48.75.12.76.76c-2.76-1.52-6.39-2.86-7.05-6.31q-.4-2.17-2.58-3.1-1.14-.48-.42-1.49 3.08-4.35.22-9.05a1.62 1.57-5.3 0 0-.82-.66q-3.8-1.31-7.64-2.29c-4.92-1.26-10.6-.15-15.88-.47q-.48-.03-.8-.38l-2.48-2.79 1.6-.96a.71.69-22.9 0 0 .32-.76c-.42-1.63-1.13-3.15-2.73-3.93q-.85-.42-1.55-.99 9.23-5.55 18.79-6.95 10.37-1.51 20.33 1.6.67.21 1.2.54a.67.67 0 0 1-.17 1.22q-11.34 3.22-20.3 11.42-.6.56.19.79 3.05.91 6.31 2.14 1.7.64 3.71.43c10.56-1.11 22.02.61 30.56 7.37"/><path d="m239.25 74-8.88 1.06q-.55-.92-.26-1.59a.72.71-73.8 0 1 .77-.43q.67.11 1.24.43.38.22.8.08 1.37-.45 2.43-1.36.45-.4.17-.93c-.39-.75-.07-1.71.73-2.01q.66-.24.74.46.14 1.13 1.24 1.39.55.13.64.69zM244.5 72.54l.3.49q-.23.06-.32.29-.09.26.18.32.31.07.61-.48 1.8 1.38 3.69 2.63 1.46.96 2.69-.68.7.57 1.55.99c1.6.78 2.31 2.3 2.73 3.93a.71.69-22.9 0 1-.32.76l-1.6.96q-2.65-1.64-4.27-4.23a1.68 1.64-2.3 0 0-.68-.61l-6.71-3.23z"/><path fill="#ec1b62" d="M245.27 73.16q-.3.55-.61.48-.27-.06-.18-.32.09-.23.32-.29z"/><path d="M303.05 94.02q.01.22.14.46a1.08 1.07-7.8 0 0 .69.52q.78.18.57.95a1.36 1.35-60.9 0 0 .39 1.39q.96.88 1.48 2.12.24.57.67.12l1.48-1.57q.52-.56-.18-.84l-.6-.23q-.71-.28-.2-.85l2.61-2.82q1.04-1.12 1.01.41l-.03 1.57q-.01.36.35.39l.29.03a.34.34 0 0 0 .38-.3l.17-1.7q3.92 2.67 6.05 6.58.37.67-.4.62c-1.04-.08-1.95-.68-2.96-.77q-10.6-.97-19.98 3.87l-1.06-1.96a.57.57 0 0 1 .7-.81q1.31.48 2.79.19.56-.12.55-.68 0-2.68 2.53-4.85.68-.58.35-1.38-.27-.66-.7-.09-.16.21-.47.23-.89.03-.53-.78l1.05-2.39q.17-.41.61-.53.71-.18 1.07.62a1.4 1.07 37.3 0 1 .11.4q.1 1.35 1.07 2.08"/><path d="M303.05 94.02q-.23-.29-.11-.55.07-.15.23-.18.18-.03.36.03.37.11.25.48-.12.38-.73.22M290.59 106.69q2.35 1.39 5.19 1.61c2.07.16 3.49.69 5.25 1.39l-1.5.62-8.07-2.02q-.01-.64-.76-.76-.41-.07-.37-.48.03-.21.26-.36"/><path fill="#ec1b62" d="M301.03 109.69q.25.29 1.03.31-.31 1-1.26 1.24-1.06-.23-1.27-.93z"/><path d="M305.01 133.83q-.14-.31-.39-.25-.16.05-.22.1-.1.08-.07.29-1.18.83-2.8 1.25-.61.16-.65.78c-.11 1.73 1.43 3.03 2.18 4.53q.87 1.77.79 3.53-.02.56.51.75 13.62 4.99 20.53 17.66 2.16 3.97 2.03 8.79a.67.67 0 0 1-.96.58q-10.58-5.2-23.37-3.98a.7.69-.5 0 0-.62.63l-.28 3.38q-.06.78.64 1.1 5.23 2.39 8.18 7.57l-1.96.72q-.63.24-.47.9.22.9 1.11 1.47a.64.64 0 0 0 .87-.19q.23-.36.66-.29.68.13.13.55l-.37.28q-.54.42-.46 1.1.14 1.19-.85 1.8c-1.28.79-2.13 2.6-1.19 3.98a.52.52 0 0 1-.59.78q-.95-.31-1.41.58a.59.58 28.8 0 1-.82.23q-3.09-1.82-3.4-5.05-.01-.08-.05-.15-.12-.2-.28-.16-.29.08-.35.38-.59 2.67-2.76 3.87.49-6.23 1.25-12.2.95-7.5 1.84-15c.76-6.42.77-12.31.78-18.6q0-.8.43-1.48a1.24 1.23 55.2 0 0 .17-.98c-.48-2.12-1.31-3.68-3-4.94q-.72-.54-.52-1.63.47-2.58.92-5.25 1.43.9 2.54 1.64 1.68 1.13 1.22-.84-.12-.55-.75-1.64-.25-.44-.21-.94.11-1.26.56-1.94 1.26-1.88-.74-.83-.33.18-1.73.53l.23-9.17q.92-.36 2.44.81a.72.72 0 0 0 1.15-.63q-.17-2.01 1.6-3.35.88-.66-.19-.39-1.46.38-2.64 1.18-.51.35-.83-.17-.23-.37-.58-.63-.42-.31-.51-.82-.18-.94-.68-.64.09-1.12-.27-2.19.95-.24 1.26-1.24c9.65 3.54 19.77 11.07 24.49 20.53q1.08 2.17-1.12 1.14c-5.01-2.36-15.44.27-20.42 2.16m-1.78-19.38q.17.4.3.2.11-.17-.05-.3-.08-.06-.18-.03a.1.09 74.6 0 0-.07.13"/><path fill="#ec1b62" d="m301.31 118.07-.24-4.64q.5-.3.68.64.09.51.51.82.35.26.58.63.32.52.83.17 1.18-.8 2.64-1.18 1.07-.27.19.39-1.77 1.34-1.6 3.35a.72.72 0 0 1-1.15.63q-1.52-1.17-2.44-.81"/><path fill="#ec1b62" d="M303.23 114.45a.1.09 74.6 0 1 .07-.13q.1-.03.18.03.16.13.05.3-.13.2-.3-.2M300.19 131.26l.89-4.02q1.4-.35 1.73-.53 2-1.05.74.83-.45.68-.56 1.94-.04.5.21.94.63 1.09.75 1.64.46 1.97-1.22.84-1.11-.74-2.54-1.64"/><path fill="#ec1b62" d="M305.01 133.83q-.3.18-.68.14-.03-.21.07-.29.06-.05.22-.1.25-.06.39.25M310.51 180.54q3.48 5.43 4.2 12.48.4 3.82-.79 7.27-.16.46-.61.27l-11.21-4.54-3.99-2.04q-.1-1.48.21-2.64 2.17-1.2 2.76-3.87.06-.3.35-.38.16-.04.28.16.04.07.05.15.31 3.23 3.4 5.05a.59.58 28.8 0 0 .82-.23q.46-.89 1.41-.58a.52.52 0 0 0 .59-.78c-.94-1.38-.09-3.19 1.19-3.98q.99-.61.85-1.8-.08-.68.46-1.1l.37-.28q.55-.42-.13-.55-.43-.07-.66.29a.64.64 0 0 1-.87.19q-.89-.57-1.11-1.47-.16-.66.47-.9z"/><path d="M302.1 196.02q-1.42-.27-2.63-.11-.53.08-.65.59l-.98 4.32a1.04 1.04 0 0 0 .18.84l2.8 3.77q.3 3.13-.1 3.56-2.21 2.28.76 1.15.08-.04 2.06.67 2.4 7.64 1.13 15.6-.42 2.59-1.81.36-2.58-4.12-9.21-7.07-.69-.3-.8.44-.36 2.4-.61 5.21-.16 1.8.62 3.44 3.95 8.28 2.53 16.87-.91 5.48-2.97.33-.83-2.06-2.25-3.83-.78-.98-1.08.24l-.86 3.44-1.04-.65q1.01-4.57 2.69-9.06 1.18-3.13 1.42-11.1.1-3.52.95-6.5 2.07-7.25 4.04-14.59.52-1.93.91-4.96.31-2.52.91-5z"/><path fill="#ec1b62" d="M300.82 205.43q1.95 2.42 2.72 5.38-1.98-.71-2.06-.67-2.97 1.13-.76-1.15.4-.43.1-3.56M288.23 245.84q.19 1.04 1.26 2.25-.39.83-.42 1.7-.03.63.31 1.15.38.59.05 1.2-.32.59.28.87.55.26 1.24.25l-.07 1.82a.61.61 0 0 1-1.11.32c-1.05-1.57-2.76-2.58-3.22-4.47q-.65-2.69.64-5.74z"/><path d="M289.49 248.09q1.53 2.49 1.46 5.17-.69.01-1.24-.25-.6-.28-.28-.87.33-.61-.05-1.2-.34-.52-.31-1.15.03-.87.42-1.7"/></svg>