<svg xmlns="http://www.w3.org/2000/svg" viewBox="0 0 382 382"><g fill="none" stroke="#19441b" stroke-width="2"><path d="M246.81 74.25q-.48.52-.7 1.04M243.25 73.93q-.18-.62-.75-.67-.48-.04-.8.46M238.34 74.13l-1.45-4.56q-.23-.72-.84-.27-1.24.91-.48 2.09.39.62-.34.57-1.69-.13-2.39 1.05-.31.53-.89.32l-.6-.21q-.51-.18-.98.1-.78.48-.89 1.62M219.55 70.86q-1.12-.58-.93-1.76M219.08 61.29q-1.68 2.14-4.24 3.43-.71.35-.39 1.08l.73 1.69q.2.47.69.32l.35-.1" vector-effect="non-scaling-stroke"/><path d="M217.49 66.8q-.42-.37-.78-.43-.58-.1-.61.49-.02.4.12.85M312.22 93.63q-.33.82-.35 1.78-.01.23-.23.24l-.32.02q-.23.01-.23-.22l.03-2.19q0-.57-.57-.54l-.35.01q-.83.03-1.01.84-.31 1.39-1.86 1.73a.55.54-25.6 0 0-.31.87q1.22 1.5.9 3.9M307.41 100.06q-.95-1.25-1.95-2.03-1.24-.96-.93-2.35.1-.47-.35-.62-.97-.32-.45-1.2a.44.44 0 0 0-.19-.62q-1.47-.69-2.63-1.87-.49-.49-.78.14l-.99 2.14a.94.94 0 0 0 .15 1.02q.81.92.73 2.19-.04.53-.39.92l-2.32 2.58a.35.35 0 0 0-.02.44q.16.21.17.45.03.89-.76.5-.62-.31-1.23-.54-1.99-.74-1.37 1.28.19.6.74 1.53M291.73 107.42l-.06.93M254.91 83.19l.91-3.11q.16-.57-.26-.98-1.07-1.02-1.66-2.39-.2-.47-.7-.37-.31.07-.52.33a.29.29 0 0 1-.5-.07l-.53-1.48M311.2 181.76q-1.46.09-1.86.48-.35.34.04.63 1.14.86 1.6 1.89.26.57-.19 1l-2.37 2.28q-.38.37-.41.91-.02.57.44 1 .55.51.06 1.07l-1.19 1.36a.86.86 0 0 1-1.14.14q-2.42-1.7-3.43-3.95-.28-.62-.74-.13L301 189.5q-.39.41-.89.13-.83-.48-1.52-.44M300.08 132.67l1.27.95q.53.39.62-.26.24-1.79-.92-2.53-.41-.26-.05-.58l.39-.35q.43-.38.04-.8-.23-.24-.62-.17M301.27 118.72q2.72.81 4.43-2.17.27-.47-.27-.52-2.39-.21-4.12 1.97M301.46 117.06q.64-1.21-.2-2.53M303.69 196.68q-.7-1.21-1.18-2.67-.17-.52-.82-.79a.48.48 0 0 0-.66.45q0 .56-.26 1.04-.26.46-.76.3l-.32-.11q-.42-.13-.22-.53 1.05-2.06-1.13-3.61M301.47 206.19q-.57 1.37-1.1 2.15-1.48 2.21.79.83.15-.09 2.04.61M288.22 246.29l-1.27-.09M289.33 247.76q-.38 3.15 1.05 5.73.24.45-.05.86-.32.44-.79.66" vector-effect="non-scaling-stroke"/></g><path fill="#328736" d="M246.81 74.25q-.48.52-.7 1.04l-2.86-1.36q-.18-.62-.75-.67-.48-.04-.8.46l-3.36.41-1.45-4.56q-.23-.72-.84-.27-1.24.91-.48 2.09.39.62-.34.57-1.69-.13-2.39 1.05-.31.53-.89.32l-.6-.21q-.51-.18-.98.1-.78.48-.89 1.62c-2.92-1.87-6.3-4.37-9.93-3.98q-1.12-.58-.93-1.76 1.94-.07 3.68-1.56 2.77-2.37 2.95-2.49c8.44-5.37 17.37-5.47 27.13-4.87 3.09.19 6.05 1.36 9.01 2.28q.88.27 1.52.83a.9.9 0 0 1-.47 1.56q-9.6 1.37-17.5 7.28-.47.34 0 .7z"/><path d="M219.08 61.29q-1.68 2.14-4.24 3.43-.71.35-.39 1.08l.73 1.69q.2.47.69.32l.35-.1-.22.29q-.32.4.18.52l2.44.58q-.19 1.18.93 1.76-2.34.16-4.57-.12-2.66-.34-4.49.01-4.11.79-8.6.18c-1.54-.21-3.47.06-4.92.6q-4.63 1.74-9.4 2.98-3.14.81-1.23-1.81c2.71-3.71 6.75-7.71 11.1-9.32 6.64-2.46 14.6-2.74 21.64-2.09"/><path fill="#328736" d="M217.49 66.8q-.42-.37-.78-.43-.58-.1-.61.49-.02.4.12.85l-.35.1q-.49.15-.69-.32l-.73-1.69q-.32-.73.39-1.08 2.56-1.29 4.24-3.43l6.46.5a.36.36 0 0 1 .14.67z"/><path d="m217.49 66.8-1.27.91q-.14-.45-.12-.85.03-.59.61-.49.36.06.78.43"/><path fill="#328736" d="M312.22 93.63q-.33.82-.35 1.78-.01.23-.23.24l-.32.02q-.23.01-.23-.22l.03-2.19q0-.57-.57-.54l-.35.01q-.83.03-1.01.84-.31 1.39-1.86 1.73a.55.54-25.6 0 0-.31.87q1.22 1.5.9 3.9-.44-.41-.51-.01-.95-1.25-1.95-2.03-1.24-.96-.93-2.35.1-.47-.35-.62-.97-.32-.45-1.2a.44.44 0 0 0-.19-.62q-1.47-.69-2.63-1.87-.49-.49-.78.14l-.99 2.14a.94.94 0 0 0 .15 1.02q.81.92.73 2.19-.04.53-.39.92l-2.32 2.58a.35.35 0 0 0-.02.44q.16.21.17.45.03.89-.76.5-.62-.31-1.23-.54-1.99-.74-1.37 1.28.19.6.74 1.53l-3.76 2.31q-.47.3-.08.7.24.24.73.39l-.06.93c-4.09-2.04-6.72-3.07-7.57-7.5q-.1-.5-.52-.79l-2.16-1.51a.66.66 0 0 1-.16-.94q3-4.06.83-8.5-.64-1.29-2.22-1.8-4.09-1.32-7.43-2.09-2.22-.51-6.15-.13-7.31.72-11.38-1.9l.91-3.11q.16-.57-.26-.98-1.07-1.02-1.66-2.39-.2-.47-.7-.37-.31.07-.52.33a.29.29 0 0 1-.5-.07l-.53-1.48c11.57-7.03 26.29-9.75 39.15-5.35q3.28 1.12-.05 2.07-10.21 2.93-19.34 11.2a.38.38 0 0 0 .15.65q3.05.91 6.23 2.1 1.94.73 4.06.51c10.57-1.09 21.85.65 30.37 7.33"/><path d="M238.34 74.13q-4.29 1.17-8.86.71.11-1.14.89-1.62.47-.28.98-.1l.6.21q.58.21.89-.32.7-1.18 2.39-1.05.73.05.34-.57-.76-1.18.48-2.09.61-.45.84.27zM243.25 73.93l-1.55-.21q.32-.5.8-.46.57.05.75.67M251.65 75.12l.53 1.48a.29.29 0 0 0 .5.07q.21-.26.52-.33.5-.1.7.37.59 1.37 1.66 2.39.42.41.26.98l-.91 3.11-5.14-5.69a2.55 2.46 82.9 0 0-.67-.54l-2.99-1.67q.22-.52.7-1.04c1.44 1.41 3.29 2.83 4.84.87M307.41 100.06q-6.82 1.01-12.57 3.96-.55-.93-.74-1.53-.62-2.02 1.37-1.28.61.23 1.23.54.79.39.76-.5-.01-.24-.17-.45a.35.35 0 0 1 .02-.44l2.32-2.58q.35-.39.39-.92.08-1.27-.73-2.19a.94.94 0 0 1-.15-1.02l.99-2.14q.29-.63.78-.14 1.16 1.18 2.63 1.87a.44.44 0 0 1 .19.62q-.52.88.45 1.2.45.15.35.62-.31 1.39.93 2.35 1 .78 1.95 2.03M312.22 93.63q4.05 2.77 6.06 6.44.58 1.06-.57.71-4.52-1.33-9.79-.71.32-2.4-.9-3.9a.55.54-25.6 0 1 .31-.87q1.55-.34 1.86-1.73.18-.81 1.01-.84l.35-.01q.57-.03.57.54l-.03 2.19q0 .23.23.22l.32-.02q.22-.01.23-.24.02-.96.35-1.78M311.2 181.76q-1.46.09-1.86.48-.35.34.04.63 1.14.86 1.6 1.89.26.57-.19 1l-2.37 2.28q-.38.37-.41.91-.02.57.44 1 .55.51.06 1.07l-1.19 1.36a.86.86 0 0 1-1.14.14q-2.42-1.7-3.43-3.95-.28-.62-.74-.13L301 189.5q-.39.41-.89.13-.83-.48-1.52-.44.29-4.86 1.01-9.7.38-2.55.52-5.01c.12-2.27.87-4.32.94-6.59q.1-2.84.56-5.93c.79-5.2.52-10.81.57-16.11.01-1.02.71-1.78.57-2.64q-.56-3.39-3-5.11-.42-.3-.45-.81-.14-2.28.77-4.62l1.27.95q.53.39.62-.26.24-1.79-.92-2.53-.41-.26-.05-.58l.39-.35q.43-.38.04-.8-.23-.24-.62-.17l.46-10.21q2.72.81 4.43-2.17.27-.47-.27-.52-2.39-.21-4.12 1.97-.04-.7.15-.94.64-1.21-.2-2.53l-.26-2.55q-.05-.49-.44-.79-1.48-1.13-2.3-1.26-3.36-.57-6.59-1.58l.06-.93c2.02.75 4.25.69 6.02 1.17 11.61 3.18 23.78 11.38 29.12 22.6q.39.83-.52.73c-1.32-.15-2.16-.97-3.61-1.03q-10.87-.43-21.29 4.43-.55.25-.55.85 0 1.28.83 2.29 2.14 2.6 2.14 5.67 0 .51.49.69 13.66 5 20.54 17.68 2.17 3.99 2.02 8.77a.65.65 0 0 1-.93.56q-10.56-5.16-23.24-3.99-.71.07-.78.79l-.28 3.24q-.07.79.65 1.12 5.77 2.63 8.86 8.77"/><path fill="#328736" d="M301.46 117.06q-.48-1.31-.2-2.53.84 1.32.2 2.53M301.27 118.72q.09-.38.04-.72 1.73-2.18 4.12-1.97.54.05.27.52-1.71 2.98-4.43 2.17M300.08 132.67q-.08-1.96.73-3.74.39-.07.62.17.39.42-.04.8l-.39.35q-.36.32.05.58 1.16.74.92 2.53-.09.65-.62.26zM303.69 196.68q-.7-1.21-1.18-2.67-.17-.52-.82-.79a.48.48 0 0 0-.66.45q0 .56-.26 1.04-.26.46-.76.3l-.32-.11q-.42-.13-.22-.53 1.05-2.06-1.13-3.61-.11-.9.25-1.57.69-.04 1.52.44.5.28.89-.13l1.01-1.06q.46-.49.74.13 1.01 2.25 3.43 3.95a.86.86 0 0 0 1.14-.14l1.19-1.36q.49-.56-.06-1.07-.46-.43-.44-1 .03-.54.41-.91l2.37-2.28q.45-.43.19-1-.46-1.03-1.6-1.89-.39-.29-.04-.63.4-.39 1.86-.48 2.93 5.04 3.54 11.49.35 3.65-.83 7.08-.16.45-.59.27z"/><path d="M303.69 196.68q-2.24-.98-4.29-.71-.47.07-.58.53l-.96 4.23q-.12.55.22 1.01l3.39 4.45q-.57 1.37-1.1 2.15-1.48 2.21.79.83.15-.09 2.04.61 2.76 7.93 1.53 16.42-.42 2.96-2.04.45-2.84-4.4-9.17-6.93a.49.49 0 0 0-.67.38q-.39 2.6-.62 5.55-.13 1.71.64 3.21 3.89 7.6 2.45 17.07-.77 4.99-2.78.36-.98-2.25-2.48-4.41a.52.51 33.9 0 0-.93.18l-.91 4.23-1.27-.09q1.07-5.12 2.94-10.06 1.2-3.15 1.39-11.12.09-3.55.97-6.56 1.92-6.58 3.72-13.29.91-3.36 1.43-7.11.51-3.67.94-7.3 2.18 1.55 1.13 3.61-.2.4.22.53l.32.11q.5.16.76-.3.26-.48.26-1.04a.48.48 0 0 1 .66-.45q.65.27.82.79.48 1.46 1.18 2.67"/><path fill="#328736" d="m301.47 206.19 1.73 3.59q-1.89-.7-2.04-.61-2.27 1.38-.79-.83.53-.78 1.1-2.15M288.22 246.29l1.11 1.47q-.38 3.15 1.05 5.73.24.45-.05.86-.32.44-.79.66c-.97-1.18-2.3-2.2-2.82-3.53q-.99-2.53.23-5.28z"/><path d="M289.54 255.01q.47-.22.79-.66.29-.41.05-.86-1.43-2.58-1.05-5.73 2.22 3.48 1.45 7.4-.11.55-.66.44-.37-.07-.58-.59"/></svg>