<svg xmlns="http://www.w3.org/2000/svg" viewBox="0 0 382 382"><g fill="none" stroke="#4e5759" stroke-width="2"><path d="M247.04 74.49q-.46.55-1.29.61M243.24 73.91q-.26-.61-.76-.71-.6-.13-1.2.52M239.24 74.02l-.86-1.23q-.4-.57.22-.89.31-.15.15-.52-.26-.57-.57-.03l-.21.35q-.47.81-.74-.08c-.18-.59-.4-1.31-.94-1.65q-.33-.2-.67-.08-.68.24-.26.82.18.24.26.51.16.51-.22.89l-1.54 1.56q-.42.43-1 .29-.6-.15-.98-.56-.59-.66-.84.19l-.45 1.49M219.32 70.87q-.91-.83-1.36-1.93M219 61.32q.31 2.33-3.4 3.02-.6.12-.61.73l-.01 2.88q0 .43.4.59.16.06.38.04M312.25 93.65l-.37 1.6q-.06.26-.28.41-.13.09-.28.02-.3-.15-.3-.48 0-.71.04-1.44.07-1.53-.99-.42l-2.66 2.79q-.46.49.12.82.22.12.48.13.76 0 .67.75-.1.88-1.32 1.23a1.46 1.45-17.8 0 1-1.76-.9l-1.61-4.36q-.2-.53-.75-.44-.17.02-.28.13-.63.59-.87-.24-.31-1.03-1.06-1.83-1-1.06-.77.37.02.15.12.27.3.39.04.81-.72 1.11.05 2.24a.81.79 50.6 0 1-.09 1.01l-2.02 2.02a1.11 1.11 0 0 0-.07 1.49q.82 1 .7 2.45M298.99 102.08q-2.09.24-3.88-1.02-.42-.3-.82.03-.6.49-.1 1.27.52.81.82 1.57M293.45 108.09l-1.19.49M253.79 81.55l1.87-.83q.57-.25.3-.8l-1.07-2.27q-.23-.48-.73-.64-1.58-.51-2.49-1.9" vector-effect="non-scaling-stroke"/><path d="M217.51 66.8q-.39-.33-.79-.44-.57-.14-.62.45-.03.41.14.9M301.07 109.77l-1.57.57M308.76 100.01q.13-.41-.04-.5-.4-.22-.71.11-.06.07.05.34M302.09 110.02q-.22.82-1.19 1.2M304.95 133.85l-1.63-3.45q-.07-.16.03-.29l.26-.37a.54.53 41.7 0 0-.04-.67l-.54-.59q-.41-.45-.9-.09l-1.57 1.16M301.24 124.82q1.04-1.3.09-2.81M301.34 120.76l2.93-2.53q.25-.2.56-.25l.42-.05q.69-.09.74-.79.05-.77.61-1.31.66-.64-.25-.71-1.46-.12-1.43-1.65a.36.35 3.7 0 0-.31-.35l-.31-.04q-.2-.02-.21.18l-.08 2.3q-.03.86-.68.29-.39-.34-.36-.91a.81.81 0 0 0-.48-.8q-.8-.37-1.37.3M303.3 134.56q-1.76-1.88-3.3-1.68M301.36 118.76l-.02-2.72M310.02 179.82q-1.05-.09-1.58.3-.49.37-.04.78l2.23 2.06a1.26 1.26 0 0 1 .04 1.8l-2.9 2.99q-.5.51-.22 1.18l.33.8a.87.87 0 0 1-.42 1.12l-2.12 1.05q-.47.22-.8-.17-2.28-2.66-2.74-5.15-.14-.75-.52-.1l-3.08 5.23M302 196.1q.11-1.1-.35-1.77a.58.57-31.5 0 0-.75-.17l-3.1 1.7M298.08 194.22q1.06-.43.03-2.14M301.02 205.63q-.61.11-1.12-.34-.38-.34-.75.02-.24.24-.09.59.72 1.66 1.03 3.33.11.59.71.7.83.15 1.45.72.21.19.47.06.04-.02.08-.06.35-.41-.15-.61-.12-.05-.22-.12-.2-.16-.2-.42 0-.58.56-.77M288.21 245.85q-.34-.46-1.04-.91M289.56 248.2q-1.06 1.65.07 3.02.31.37-.01.74l-.19.21q-.43.49.15.78.59.3 1.34.06M213.26 66.42q-.07.21.15.21.06 0 .1-.04.13-.09.03-.21a.16.16 0 0 0-.28.04M305.27 119.79q.29.16.53-.08a.32.32 0 0 0-.22-.55q-.33-.01-.43.31-.08.22.12.32" vector-effect="non-scaling-stroke"/><path d="M309.49 183.28q-.47.07-.04.45.34.31.45-.14.11-.5-.27-.36-.07.03-.14.05M299.73 211.19a.22.22 0 0 0-.31-.03q-.22.18-.09.4.13.23.36.09.28-.18.04-.46" vector-effect="non-scaling-stroke"/></g><path fill="#9caeb1" d="M247.04 74.49q-.46.55-1.29.61l-2.51-1.19q-.26-.61-.76-.71-.6-.13-1.2.52l-2.04.3-.86-1.23q-.4-.57.22-.89.31-.15.15-.52-.26-.57-.57-.03l-.21.35q-.47.81-.74-.08c-.18-.59-.4-1.31-.94-1.65q-.33-.2-.67-.08-.68.24-.26.82.18.24.26.51.16.51-.22.89l-1.54 1.56q-.42.43-1 .29-.6-.15-.98-.56-.59-.66-.84.19l-.45 1.49q-2.77-1.07-5.55-2.88-2.59-1.7-5.72-1.33-.91-.83-1.36-1.93l2.01.09q.57.03.97-.38 7.45-7.44 18.69-8.44 8.23-.73 14.69.28 3.68.58 8.19 2.46.59.25.69.89.04.23-.08.44-.27.52-.86.61-9.77 1.43-17.62 7.48a.27.27 0 0 0 .01.44z"/><path d="M219 61.32q.31 2.33-3.4 3.02-.6.12-.61.73l-.01 2.88q0 .43.4.59.16.06.38.04l2.2.36q.45 1.1 1.36 1.93-2.41.14-4.7-.17-2.5-.33-4.2.06c-3.48.81-6.72.12-10.16.2q-2.33.06-5.05 1.13-4.32 1.71-8.49 2.61-.69.15-1.04-.5a.72.72 0 0 1 .06-.8c3.97-5 7.83-9.2 14.32-10.81q9.06-2.25 18.94-1.27m-5.74 5.1q-.07.21.15.21.06 0 .1-.04.13-.09.03-.21a.16.16 0 0 0-.28.04"/><path fill="#9caeb1" d="M217.51 66.8q-.39-.33-.79-.44-.57-.14-.62.45-.03.41.14.9-.26.24-.48.87-.22.02-.38-.04-.4-.16-.4-.59l.01-2.88q.01-.61.61-.73 3.71-.69 3.4-3.02 3.2-.12 5.79.37 2.31.44.11 1.29-3.69 1.44-7.39 3.82M213.26 66.42a.16.16 0 0 1 .28-.04q.1.12-.03.21-.04.04-.1.04-.22 0-.15-.21"/><path d="m217.51 66.8-1.27.91q-.17-.49-.14-.9.05-.59.62-.45.4.11.79.44"/><path fill="#9caeb1" d="m312.25 93.65-.37 1.6q-.06.26-.28.41-.13.09-.28.02-.3-.15-.3-.48 0-.71.04-1.44.07-1.53-.99-.42l-2.66 2.79q-.46.49.12.82.22.12.48.13.76 0 .67.75-.1.88-1.32 1.23a1.46 1.45-17.8 0 1-1.76-.9l-1.61-4.36q-.2-.53-.75-.44-.17.02-.28.13-.63.59-.87-.24-.31-1.03-1.06-1.83-1-1.06-.77.37.02.15.12.27.3.39.04.81-.72 1.11.05 2.24a.81.79 50.6 0 1-.09 1.01l-2.02 2.02a1.11 1.11 0 0 0-.07 1.49q.82 1 .7 2.45-2.09.24-3.88-1.02-.42-.3-.82.03-.6.49-.1 1.27.52.81.82 1.57l-4.23 2.51a.35.35 0 0 0 .05.63l2.62 1.02-1.19.49c-4.47-1.95-7.25-3.29-8.2-7.85q-.09-.44-.46-.69l-2.06-1.39a.82.82 0 0 1-.21-1.15q3.31-4.7.19-9.23-.34-.49-.92-.68-9.16-2.99-11.39-2.85-6.5.39-11.87.2-.51-.01-.84-.39l-2.71-3 1.87-.83q.57-.25.3-.8l-1.07-2.27q-.23-.48-.73-.64-1.58-.51-2.49-1.9c8.47-5.11 18.8-8.17 28.7-7.32q5.31.46 9.83 1.74.59.16 1.12.44 2.17 1.14-.19 1.78-10.48 2.84-19.79 11.39a.31.31 0 0 0 .12.52q3.1.93 6.4 2.16 1.79.67 3.96.45c10.48-1.04 21.95.66 30.43 7.38"/><path d="m239.24 74.02-8.65 1.06.45-1.49q.25-.85.84-.19.38.41.98.56.58.14 1-.29l1.54-1.56q.38-.38.22-.89-.08-.27-.26-.51-.42-.58.26-.82.34-.12.67.08c.54.34.76 1.06.94 1.65q.27.89.74.08l.21-.35q.31-.54.57.03.16.37-.15.52-.62.32-.22.89zM243.24 73.91l-1.96-.19q.6-.65 1.2-.52.5.1.76.71M251.67 75.11q.91 1.39 2.49 1.9.5.16.73.64l1.07 2.27q.27.55-.3.8l-1.87.83q-2.53-1.49-4.01-3.96a1.57 1.54-.5 0 0-.61-.59l-3.42-1.9q.83-.06 1.29-.61 1.1.96 2.34 1.46.72.29 1.25.03.55-.26 1.04-.87M312.25 93.65q4.01 2.77 6.08 6.49.54.98-.53.66-4.19-1.26-9.04-.79.13-.41-.04-.5-.4-.22-.71.11-.06.07.05.34l-9.07 2.12q.12-1.45-.7-2.45a1.11 1.11 0 0 1 .07-1.49l2.02-2.02a.81.79 50.6 0 0 .09-1.01q-.77-1.13-.05-2.24.26-.42-.04-.81-.1-.12-.12-.27-.23-1.43.77-.37.75.8 1.06 1.83.24.83.87.24.11-.11.28-.13.55-.09.75.44l1.61 4.36a1.46 1.45-17.8 0 0 1.76.9q1.22-.35 1.32-1.23.09-.75-.67-.75-.26-.01-.48-.13-.58-.33-.12-.82l2.66-2.79q1.06-1.11.99.42-.04.73-.04 1.44 0 .33.3.48.15.07.28-.02.22-.15.28-.41z"/><path fill="#9caeb1" d="M308.76 100.01q-.29-.08-.7-.05-.11-.27-.05-.34.31-.33.71-.11.17.09.04.5"/><path d="m298.99 102.08-3.98 1.85q-.3-.76-.82-1.57-.5-.78.1-1.27.4-.33.82-.03 1.79 1.26 3.88 1.02M301.07 109.77l-1.57.57-7.24-1.76 1.19-.49q3.97-.12 7.62 1.68"/><path fill="#9caeb1" d="M302.09 110.02q-.22.82-1.19 1.2-1.11-.18-1.4-.88l1.57-.57q.3.18 1.02.25"/><path d="m304.95 133.85-1.63-3.45q-.07-.16.03-.29l.26-.37a.54.53 41.7 0 0-.04-.67l-.54-.59q-.41-.45-.9-.09l-1.57 1.16.68-4.73q1.04-1.3.09-2.81-.17-.61.01-1.25l2.93-2.53q.25-.2.56-.25l.42-.05q.69-.09.74-.79.05-.77.61-1.31.66-.64-.25-.71-1.46-.12-1.43-1.65a.36.35 3.7 0 0-.31-.35l-.31-.04q-.2-.02-.21.18l-.08 2.3q-.03.86-.68.29-.39-.34-.36-.91a.81.81 0 0 0-.48-.8q-.8-.37-1.37.3l-.22-3.22q.97-.38 1.19-1.2c9.98 3.66 20.21 11.44 24.84 21.33a.46.46 0 0 1-.51.64c-1.32-.29-2.26-1.06-3.66-1.11q-9.17-.33-17.81 2.97m.32-14.06q.29.16.53-.08a.32.32 0 0 0-.22-.55q-.33-.01-.43.31-.08.22.12.32"/><path fill="#9caeb1" d="m301.34 120.76.02-2-.02-2.72-.22-1.6q.57-.67 1.37-.3a.81.81 0 0 1 .48.8q-.03.57.36.91.65.57.68-.29l.08-2.3q.01-.2.21-.18l.31.04a.36.35 3.7 0 1 .31.35q-.03 1.53 1.43 1.65.91.07.25.71-.56.54-.61 1.31-.05.7-.74.79l-.42.05q-.31.05-.56.25z"/><path d="m301.36 118.76-.02-2.72z"/><path fill="#9caeb1" d="M305.15 119.47q.1-.32.43-.31a.32.32 0 0 1 .22.55q-.24.24-.53.08-.2-.1-.12-.32M301.24 124.82l.09-2.81q.95 1.51-.09 2.81M304.95 133.85l-1.65.71q-1.76-1.88-3.3-1.68l.56-3.33 1.57-1.16q.49-.36.9.09l.54.59a.54.53 41.7 0 1 .04.67l-.26.37q-.1.13-.03.29z"/><path d="m303.3 134.56-1.83.7q-.74.29-.62 1.07.2 1.28 1.03 2.33 2.03 2.57 1.99 5.47 0 .51.48.69 13.66 4.99 20.57 17.71 2.13 3.93 1.98 8.74a.65.65 0 0 1-.94.57q-10.53-5.19-23.36-3.98-.58.05-.63.63l-.28 3.38q-.06.8.66 1.12 4.83 2.15 7.67 6.83-1.05-.09-1.58.3-.49.37-.04.78l2.23 2.06a1.26 1.26 0 0 1 .04 1.8l-2.9 2.99q-.5.51-.22 1.18l.33.8a.87.87 0 0 1-.42 1.12l-2.12 1.05q-.47.22-.8-.17-2.28-2.66-2.74-5.15-.14-.75-.52-.1l-3.08 5.23c.56-4.24.7-8.62 1.52-12.8.47-2.41.1-4.83.77-7.15.84-2.87.64-6.23 1.09-9.29.79-5.46.56-11.12.61-16.67 0-1 .71-1.72.57-2.58q-.57-3.4-2.99-5.12-.42-.3-.46-.82-.13-2.15.69-4.4 1.54-.2 3.3 1.68m6.19 48.72q-.47.07-.04.45.34.31.45-.14.11-.5-.27-.36-.07.03-.14.05"/><path fill="#9caeb1" d="M310.02 179.82q3.8 5.48 4.63 12.95.45 4.03-.74 7.53-.15.45-.59.28L302 196.1q.11-1.1-.35-1.77a.58.57-31.5 0 0-.75-.17l-3.1 1.7.28-1.64q1.06-.43.03-2.14.05-.19.09-.37l3.08-5.23q.38-.65.52.1.46 2.49 2.74 5.15.33.39.8.17l2.12-1.05a.87.87 0 0 0 .42-1.12l-.33-.8q-.28-.67.22-1.18l2.9-2.99a1.26 1.26 0 0 0-.04-1.8l-2.23-2.06q-.45-.41.04-.78.53-.39 1.58-.3"/><path fill="#9caeb1" d="M309.63 183.23q.38-.14.27.36-.11.45-.45.14-.43-.38.04-.45.07-.02.14-.05"/><path d="M298.11 192.08q1.03 1.71-.03 2.14zM302 196.1q-1.27-.34-2.52-.19-.54.07-.66.61l-.94 4.13q-.16.69.28 1.25l2.86 3.73q-.61.11-1.12-.34-.38-.34-.75.02-.24.24-.09.59.72 1.66 1.03 3.33.11.59.71.7.83.15 1.45.72.21.19.47.06.04-.02.08-.06.35-.41-.15-.61-.12-.05-.22-.12-.2-.16-.2-.42 0-.58.56-.77 3.38 8.66 1.86 17.68-.44 2.6-1.86.38-2.83-4.45-9.17-7.05-.67-.27-.78.44-.42 2.78-.63 5.82-.12 1.72.82 3.26c2.42 3.97 3.55 12.91 2.13 17.5q-1.07 3.46-2.35.08-1.03-2.72-2.9-5.01a.46.45-58.3 0 0-.79.19l-.91 3.83q-.34-.46-1.04-.91 1.75-5.47 3.11-11.1.86-3.53.91-6.27c.04-2.9.04-5.47.86-8.34q1.96-6.92 3.88-13.83.6-2.17 1.01-4.76.42-2.62.86-4.78l3.1-1.7a.58.57-31.5 0 1 .75.17q.46.67.35 1.77m-2.27 15.09a.22.22 0 0 0-.31-.03q-.22.18-.09.4.13.23.36.09.28-.18.04-.46"/><path fill="#9caeb1" d="m301.02 205.63 1.77 3.1q-.56.19-.56.77 0 .26.2.42.1.07.22.12.5.2.15.61-.04.04-.08.06-.26.13-.47-.06-.62-.57-1.45-.72-.6-.11-.71-.7-.31-1.67-1.03-3.33-.15-.35.09-.59.37-.36.75-.02.51.45 1.12.34M299.73 211.19q.24.28-.04.46-.23.14-.36-.09-.13-.22.09-.4a.22.22 0 0 1 .31.03M288.21 245.85q.38 1.13 1.35 2.35-1.06 1.65.07 3.02.31.37-.01.74l-.19.21q-.43.49.15.78.59.3 1.34.06.32 1.64-.29 2.39-.43.53-.84-.02c-1.19-1.63-2.93-2.67-3.29-4.81q-.42-2.55.67-5.63.7.45 1.04.91"/><path d="M290.92 253.01q-.75.24-1.34-.06-.58-.29-.15-.78l.19-.21q.32-.37.01-.74-1.13-1.37-.07-3.02 1.41 2.35 1.36 4.81"/></svg>