<?xml version="1.0" encoding="UTF-8" standalone="no"?>
<!DOCTYPE svg PUBLIC "-//W3C//DTD SVG 1.1//EN" "http://www.w3.org/Graphics/SVG/1.1/DTD/svg11.dtd">
<svg xmlns="http://www.w3.org/2000/svg" version="1.1" viewBox="0.00 0.00 1592.00 1592.00" width="1592.00" height="1592.00">
<g stroke-width="2.00" fill="none" stroke-linecap="butt">
<path stroke="#19430f" vector-effect="non-scaling-stroke" d="
  M 1223.87 449.70
  Q 1222.42 450.08 1221.56 449.94
  A 0.74 0.47 6.5 0 0 1220.71 450.36
  L 1220.72 453.47
  Q 1220.73 453.98 1221.49 453.98
  L 1224.50 453.99
  Q 1225.02 453.99 1225.01 454.50
  L 1224.99 457.75
  Q 1224.99 458.24 1225.49 458.24
  L 1232.77 458.24
  Q 1233.30 458.24 1233.29 457.73
  L 1233.22 454.45
  Q 1233.21 453.91 1232.70 453.92
  L 1229.67 453.98
  Q 1229.17 453.99 1229.08 453.46
  Q 1228.96 452.77 1229.09 451.94"
/>
<path stroke="#19430f" vector-effect="non-scaling-stroke" d="
  M 1241.56 456.90
  L 1241.57 461.84
  Q 1241.57 462.35 1242.07 462.40
  L 1245.86 462.76"
/>
<path stroke="#19430f" vector-effect="non-scaling-stroke" d="
  M 1246.00 463.79
  Q 1244.75 469.10 1246.80 471.13"
/>
<path stroke="#19430f" vector-effect="non-scaling-stroke" d="
  M 1247.28 474.74
  Q 1246.59 474.85 1246.11 475.13
  Q 1245.65 475.41 1245.68 475.87
  L 1245.84 478.42
  A 0.54 0.54 0.0 0 1 1245.30 478.99
  L 1237.99 479.00
  Q 1237.47 479.00 1237.47 479.49
  L 1237.48 482.73
  Q 1237.48 483.23 1237.97 483.23
  L 1241.02 483.24
  Q 1241.52 483.24 1241.52 483.77
  L 1241.69 503.46
  Q 1241.69 504.01 1242.19 504.01
  L 1244.78 503.99
  Q 1245.77 503.98 1245.78 505.03
  L 1245.81 511.49
  Q 1245.82 512.57 1244.78 512.57
  L 1242.11 512.57
  Q 1241.57 512.57 1241.57 513.16
  L 1241.55 515.66
  Q 1241.54 516.57 1240.63 516.57
  L 1238.56 516.57
  Q 1237.52 516.56 1237.46 515.58
  L 1237.34 513.32
  Q 1237.31 512.80 1236.78 512.74
  L 1234.21 512.46
  A 0.89 0.84 2.5 0 1 1233.41 511.64
  L 1233.19 504.60
  Q 1233.17 504.04 1232.62 504.03
  L 1229.63 503.98
  Q 1229.02 503.97 1229.02 503.38
  L 1229.04 500.72
  Q 1229.04 499.98 1228.29 499.98
  L 1221.45 499.98
  Q 1220.75 499.98 1220.75 500.72
  L 1220.74 512.04
  Q 1220.73 512.57 1220.21 512.57
  L 1217.09 512.54
  Q 1216.50 512.54 1216.51 513.13
  L 1216.55 515.83
  Q 1216.56 516.48 1215.89 516.48
  L 1208.73 516.49
  Q 1208.23 516.49 1208.23 517.00
  L 1208.26 528.48
  Q 1208.26 528.95 1208.73 528.95
  L 1212.04 529.01
  Q 1212.56 529.02 1212.56 529.54
  L 1212.54 532.75
  Q 1212.53 533.27 1212.00 533.28
  L 1208.88 533.29
  Q 1208.29 533.30 1208.29 533.88
  L 1208.30 536.89
  Q 1208.31 537.52 1207.64 537.53
  L 1204.67 537.56
  Q 1204.02 537.57 1204.01 536.91
  L 1203.96 533.81
  Q 1203.96 533.37 1203.52 533.34
  L 1195.59 532.93"
/>
<path stroke="#19430f" vector-effect="non-scaling-stroke" d="
  M 1196.07 529.00
  L 1199.21 529.03
  Q 1200.01 529.03 1200.01 528.27
  L 1200.01 525.77
  Q 1200.02 524.98 1199.22 524.97
  L 1196.69 524.95"
/>
<path stroke="#19430f" vector-effect="non-scaling-stroke" d="
  M 1197.68 520.75
  Q 1201.90 521.47 1198.99 515.71"
/>
<path stroke="#19430f" vector-effect="non-scaling-stroke" d="
  M 1196.52 1029.41
  Q 1195.50 1029.40 1195.88 1032.13
  A 0.95 0.93 -4.8 0 1 1194.97 1033.19
  L 1192.30 1033.27
  Q 1191.42 1033.30 1191.45 1032.38
  L 1191.55 1029.52
  A 0.52 0.49 1.1 0 0 1191.03 1029.01
  L 1183.73 1028.98
  Q 1183.23 1028.98 1183.23 1028.48
  L 1183.26 1016.99
  Q 1183.26 1016.45 1183.78 1016.47
  L 1186.66 1016.57
  Q 1187.51 1016.61 1187.52 1015.67
  L 1187.53 1009.15
  Q 1187.53 1008.18 1186.67 1008.20
  L 1183.71 1008.25
  Q 1183.21 1008.26 1183.22 1007.73
  L 1183.28 1004.52
  Q 1183.29 1003.98 1182.77 1003.99
  L 1175.87 1004.07
  Q 1174.96 1004.08 1174.96 1003.16
  L 1174.99 996.62
  Q 1174.99 995.69 1175.84 995.73
  L 1178.47 995.87
  A 0.57 0.51 -88.8 0 0 1179.01 995.29
  L 1178.98 983.74
  Q 1178.98 983.25 1178.49 983.24
  L 1175.54 983.24
  Q 1175.05 983.24 1175.04 983.73
  L 1174.96 987.02
  Q 1174.95 987.48 1174.49 987.48
  L 1171.26 987.47
  Q 1170.79 987.47 1170.79 987.01
  L 1170.78 979.52
  Q 1170.78 979.02 1170.27 979.02
  L 1163.40 979.05
  Q 1162.49 979.05 1162.49 978.20
  L 1162.52 971.57
  Q 1162.52 970.70 1163.33 970.72
  L 1165.97 970.79
  Q 1166.46 970.80 1166.47 970.27
  L 1166.61 958.78
  A 0.57 0.57 0.0 0 0 1166.03 958.20
  L 1163.02 958.19
  Q 1162.39 958.19 1162.40 958.82
  L 1162.47 965.75
  A 0.72 0.70 89.7 0 1 1161.77 966.48
  L 1154.53 966.47
  Q 1154.06 966.47 1154.05 966.97
  L 1153.95 970.02
  A 0.72 0.67 -89.2 0 1 1153.28 970.73
  L 1150.77 970.74
  Q 1150.02 970.74 1150.01 970.03
  L 1149.98 967.07
  Q 1149.97 966.42 1149.33 966.43
  L 1146.25 966.47
  Q 1145.80 966.47 1145.80 966.01
  L 1145.85 959.25
  Q 1145.85 958.14 1144.74 958.13
  L 1138.43 958.13
  Q 1137.23 958.13 1137.33 959.35
  L 1137.54 961.70
  A 0.83 0.82 1.7 0 0 1138.24 962.43
  L 1140.76 962.79
  Q 1141.42 962.89 1141.38 963.53
  L 1141.08 969.36
  A 1.07 0.99 -86.2 0 1 1140.00 970.38
  Q 1139.17 970.31 1138.51 970.93
  Q 1138.02 971.38 1137.88 972.21
  Q 1137.32 975.47 1136.94 977.99
  Q 1136.86 978.50 1136.34 978.64
  L 1134.24 979.20
  Q 1133.60 979.36 1133.58 980.02
  L 1133.41 986.23
  A 1.22 1.22 0.0 0 0 1134.39 987.46
  Q 1135.68 987.72 1135.94 987.80
  C 1137.22 988.16 1137.38 989.39 1137.17 990.47
  A 0.75 0.74 2.4 0 1 1136.52 991.07
  L 1134.64 991.27
  A 1.54 1.52 2.4 0 0 1133.29 992.49
  Q 1133.07 993.64 1133.35 994.92
  Q 1133.57 995.94 1134.62 995.85
  Q 1135.80 995.74 1136.69 996.14
  Q 1137.14 996.33 1137.21 996.86
  L 1137.49 999.24
  Q 1137.55 999.71 1138.02 999.83
  Q 1139.77 1000.30 1141.26 999.83
  Q 1141.77 999.67 1141.79 999.15
  L 1142.14 992.40
  Q 1142.18 991.51 1142.98 991.58
  L 1144.25 991.68
  A 1.18 1.16 0.3 0 1 1145.34 992.76
  L 1145.83 999.54
  A 0.49 0.47 88.1 0 0 1146.29 1000.00
  L 1149.08 1000.02
  A 0.97 0.96 -88.9 0 1 1150.03 1001.02
  L 1149.97 1003.07
  A 0.98 0.97 -88.6 0 1 1148.98 1004.02
  L 1146.27 1003.96
  A 0.50 0.48 -89.1 0 0 1145.78 1004.46
  L 1145.67 1015.81
  Q 1145.67 1016.32 1145.18 1016.33
  L 1138.51 1016.51
  Q 1137.83 1016.52 1137.77 1017.21
  L 1137.17 1024.06
  Q 1137.12 1024.56 1136.60 1024.69
  L 1134.25 1025.26
  Q 1133.78 1025.37 1133.60 1025.78
  Q 1133.08 1026.95 1133.38 1028.24
  Q 1133.51 1028.77 1134.06 1028.84
  L 1136.68 1029.14
  A 0.71 0.71 0.0 0 1 1137.31 1029.80
  Q 1137.41 1031.19 1136.80 1032.42
  A 1.02 1.02 0.0 0 1 1136.08 1032.97
  L 1134.16 1033.35
  A 0.83 0.83 0.0 0 0 1133.53 1033.91
  Q 1132.97 1035.65 1132.94 1035.75
  C 1132.57 1037.09 1131.06 1037.56 1129.92 1036.85
  Q 1129.50 1036.59 1129.35 1036.11
  L 1128.67 1034.01
  A 0.87 0.86 85.9 0 0 1127.99 1033.42
  L 1125.88 1033.05
  Q 1125.36 1032.95 1125.24 1032.39
  L 1124.73 1030.00
  Q 1124.61 1029.47 1124.16 1029.32
  L 1121.97 1028.61
  Q 1121.44 1028.44 1121.35 1027.88
  L 1120.48 1022.28
  Q 1120.20 1020.53 1118.42 1020.71
  Q 1117.02 1020.86 1116.94 1021.77
  Q 1116.45 1027.12 1115.94 1031.21
  A 2.58 2.50 71.3 0 1 1115.25 1032.67
  L 1111.85 1036.17
  A 1.29 1.24 -72.8 0 1 1111.20 1036.53
  Q 1106.14 1037.60 1101.81 1038.05
  C 1099.08 1038.33 1100.39 1041.48 1097.40 1041.55
  A 1.27 1.17 -88.1 0 0 1096.26 1042.71
  L 1095.76 1048.83
  A 1.00 0.96 5.2 0 0 1096.66 1049.86
  L 1099.18 1050.11
  Q 1099.77 1050.17 1099.79 1050.79
  L 1100.02 1061.69
  A 0.73 0.73 0.0 0 1 1099.29 1062.44
  L 1092.18 1062.46
  Q 1091.62 1062.46 1091.58 1063.08
  L 1091.21 1069.26
  Q 1091.09 1071.21 1089.17 1070.65
  Q 1087.33 1070.12 1087.50 1074.00
  A 1.01 0.99 -0.3 0 1 1086.45 1075.04
  L 1084.44 1074.97
  Q 1083.46 1074.94 1083.44 1073.95
  L 1083.18 1062.95
  Q 1083.17 1062.47 1082.77 1062.47
  L 1079.74 1062.50
  Q 1079.03 1062.51 1079.02 1061.77
  L 1078.98 1059.03
  A 0.71 0.71 0.0 0 1 1079.69 1058.31
  L 1082.74 1058.29
  Q 1083.26 1058.29 1083.26 1057.77
  L 1083.28 1050.65
  Q 1083.28 1050.10 1082.72 1050.08
  L 1079.58 1049.99
  Q 1079.10 1049.98 1079.08 1050.45
  L 1078.96 1053.03
  Q 1078.91 1053.97 1077.99 1053.98
  L 1075.79 1054.02
  Q 1075.04 1054.03 1075.02 1053.30
  L 1074.96 1050.62
  Q 1074.95 1050.02 1074.36 1050.02
  L 1067.23 1049.98
  Q 1066.48 1049.97 1066.48 1049.24
  L 1066.52 1042.24
  Q 1066.52 1041.55 1067.25 1041.56
  L 1069.77 1041.57
  Q 1070.87 1041.58 1070.87 1040.49
  L 1070.86 1034.24
  Q 1070.86 1033.10 1069.74 1033.12
  L 1063.22 1033.21
  A 0.66 0.65 -89.6 0 1 1062.56 1032.53
  L 1062.86 1021.55
  Q 1062.87 1020.99 1063.46 1020.92
  L 1065.44 1020.69
  Q 1066.30 1020.59 1066.23 1019.70
  L 1066.06 1017.42
  Q 1066.01 1016.68 1065.37 1016.56
  L 1063.65 1016.25
  Q 1063.15 1016.16 1063.14 1015.65
  L 1062.89 1004.98
  Q 1062.88 1004.45 1063.41 1004.35
  L 1065.77 1003.90
  Q 1066.59 1003.75 1066.59 1002.93
  L 1066.58 1001.15
  Q 1066.57 1000.10 1065.51 1000.07
  L 1059.58 999.88
  A 1.03 1.01 -0.5 0 1 1058.58 998.92
  L 1058.03 987.98
  Q 1058.01 987.44 1057.50 987.43
  L 1054.89 987.41
  Q 1054.34 987.41 1054.28 986.87
  L 1053.93 983.64
  A 0.54 0.53 87.0 0 0 1053.40 983.16
  L 1046.65 983.14
  A 0.73 0.70 -89.9 0 1 1045.95 982.41
  L 1045.94 971.52
  A 0.91 0.89 -89.8 0 0 1045.06 970.61
  L 1042.33 970.59
  Q 1041.55 970.59 1041.48 971.39
  Q 1040.86 978.74 1040.88 985.76
  A 1.54 1.54 0.0 0 1 1039.84 987.22
  L 1039.08 987.48
  Q 1038.56 987.66 1038.50 988.20
  Q 1037.77 994.43 1038.16 999.05
  Q 1038.21 999.54 1038.68 999.75
  L 1039.94 1000.29
  A 1.52 1.49 -82.2 0 1 1040.83 1001.49
  Q 1041.46 1006.66 1041.12 1011.34
  Q 1041.05 1012.36 1039.90 1012.42
  L 1039.00 1012.47
  Q 1038.10 1012.52 1037.95 1011.52
  L 1037.55 1008.81
  Q 1037.45 1008.18 1036.81 1008.17
  L 1034.57 1008.12
  Q 1033.19 1008.09 1033.19 1009.47
  L 1033.21 1020.12
  Q 1033.22 1020.68 1032.64 1020.68
  L 1025.70 1020.71
  Q 1025.07 1020.71 1025.06 1020.10
  L 1024.94 1009.07
  Q 1024.92 1008.15 1024.01 1008.15
  L 1021.78 1008.17
  Q 1020.73 1008.18 1020.72 1009.23
  L 1020.66 1016.00
  Q 1020.65 1016.41 1020.25 1016.41
  L 1009.26 1016.53
  Q 1008.32 1016.54 1008.28 1017.45
  L 1007.54 1032.00
  A 1.34 1.33 85.6 0 1 1006.49 1033.24
  L 1005.21 1033.51
  Q 1004.64 1033.63 1004.57 1034.19
  L 1003.80 1040.08
  Q 1003.65 1041.20 1002.54 1041.45
  Q 999.99 1042.02 999.90 1039.24
  Q 999.85 1037.51 998.34 1037.36
  L 997.34 1037.27
  Q 996.78 1037.21 996.60 1036.57
  L 994.76 1029.91
  A 1.01 0.84 2.9 0 0 994.09 1029.29
  L 992.35 1028.80
  Q 991.77 1028.63 991.68 1028.09
  L 991.35 1025.98
  A 0.87 0.81 -85.3 0 0 990.83 1025.31
  L 989.09 1024.67
  Q 988.58 1024.48 988.39 1023.97
  Q 988.20 1023.44 987.94 1021.81
  Q 987.74 1020.52 986.26 1016.87
  Q 986.10 1016.48 985.64 1016.32
  L 984.81 1016.05
  Q 984.26 1015.86 984.22 1015.41
  L 982.94 1000.55
  Q 982.90 1000.04 982.42 1000.02
  L 979.73 999.93
  Q 979.06 999.90 979.05 999.22
  L 979.01 996.49
  Q 979.00 995.79 979.75 995.80
  L 982.57 995.85
  Q 983.26 995.86 983.26 995.18
  L 983.32 988.24
  Q 983.33 987.33 982.51 987.36
  L 979.94 987.45
  Q 979.01 987.49 979.01 986.47
  L 979.06 980.16
  Q 979.07 979.17 980.00 979.13
  L 982.45 979.01
  Q 983.36 978.97 983.37 978.06
  L 983.39 975.93
  Q 983.40 974.96 982.42 974.96
  L 971.50 974.94
  A 0.67 0.67 0.0 0 1 970.83 974.26
  L 970.92 967.03
  Q 970.93 966.36 970.27 966.37
  L 967.03 966.39
  Q 966.34 966.40 966.35 967.06
  L 966.43 974.37
  A 0.55 0.54 -0.4 0 1 965.88 974.92
  L 958.96 974.95
  Q 958.11 974.95 958.11 975.80
  L 958.11 978.16
  Q 958.11 978.96 958.91 978.99
  L 961.58 979.13
  A 0.81 0.80 89.6 0 1 962.34 979.88
  L 962.76 986.72
  Q 962.80 987.40 963.51 987.46
  L 965.45 987.66
  Q 966.11 987.72 966.13 988.41
  L 966.48 999.07
  A 0.78 0.77 87.6 0 1 965.75 999.88
  L 958.72 1000.24
  Q 958.20 1000.27 958.22 1000.82
  L 958.26 1002.65
  A 1.20 1.16 -3.1 0 1 957.16 1003.84
  L 955.32 1003.99
  A 1.06 1.00 -4.9 0 1 954.18 1003.08
  L 953.97 1000.86
  Q 953.89 999.90 952.87 999.96
  L 951.12 1000.05
  Q 950.05 1000.11 950.03 1001.19
  L 949.94 1007.12
  A 0.90 0.85 88.7 0 1 949.14 1008.01
  L 942.72 1008.43
  A 1.34 1.32 85.9 0 0 941.49 1009.87
  Q 941.70 1012.56 939.35 1012.28
  Q 938.82 1012.22 938.42 1012.57
  Q 937.10 1013.72 937.63 1015.94
  A 0.79 0.78 86.5 0 0 938.30 1016.54
  L 940.26 1016.78
  Q 941.33 1016.90 941.32 1017.58
  L 941.31 1019.71
  A 1.10 0.91 -1.1 0 1 940.25 1020.62
  L 938.00 1020.71
  Q 937.48 1020.73 937.47 1021.28
  L 937.45 1028.20
  A 0.85 0.85 0.0 0 1 936.59 1029.05
  L 934.30 1029.04
  Q 933.29 1029.03 933.29 1028.04
  L 933.34 1021.01
  Q 933.34 1020.70 933.01 1020.69
  L 929.45 1020.63
  Q 929.05 1020.62 929.03 1021.08
  L 928.96 1024.06
  Q 928.93 1025.00 927.98 1025.00
  L 921.77 1025.02
  Q 920.71 1025.02 920.73 1024.04
  L 920.82 1017.18
  Q 920.83 1016.65 921.35 1016.64
  L 924.46 1016.62
  Q 925.05 1016.61 925.05 1016.00
  L 925.03 1013.07
  A 0.63 0.61 -89.6 0 0 924.43 1012.44
  L 917.92 1012.30
  A 0.95 0.88 -4.0 0 1 917.02 1011.58
  L 915.81 1004.91
  Q 915.70 1004.33 915.18 1004.20
  L 913.79 1003.85
  Q 913.19 1003.71 913.17 1003.05
  Q 913.02 999.02 911.38 991.91
  Q 911.26 991.38 910.72 991.37
  Q 910.11 991.36 909.57 991.15
  Q 909.03 990.93 908.99 990.35
  L 908.23 979.96
  A 1.06 1.05 -1.5 0 0 907.20 978.99
  L 904.72 978.94
  Q 904.10 978.93 904.01 979.56
  L 903.68 982.03
  Q 903.55 983.08 902.48 983.05
  L 897.07 982.91
  Q 895.99 982.88 895.94 981.82
  L 895.85 979.70
  A 0.70 0.67 0.0 0 0 895.18 979.05
  L 892.41 978.93
  Q 891.30 978.89 891.31 979.91
  L 891.42 1003.43
  Q 891.42 1003.94 891.93 1003.97
  L 894.91 1004.13
  Q 895.53 1004.16 895.55 1004.78
  L 895.64 1007.77
  Q 895.66 1008.36 896.26 1008.38
  L 898.99 1008.45
  Q 899.99 1008.48 899.94 1009.45
  L 899.85 1011.43
  Q 899.80 1012.45 898.82 1012.46
  L 896.43 1012.47
  Q 895.82 1012.48 895.82 1013.09
  L 895.70 1024.50
  A 0.47 0.47 0.0 0 1 895.23 1024.97
  L 887.84 1025.06
  A 0.36 0.35 -0.1 0 0 887.49 1025.41
  L 887.42 1032.68
  Q 887.42 1033.30 886.84 1033.28
  L 884.13 1033.19
  Q 883.30 1033.17 883.30 1034.06
  L 883.27 1040.78
  Q 883.26 1041.53 884.02 1041.53
  L 886.77 1041.53
  Q 887.27 1041.53 887.27 1042.01
  L 887.47 1053.12
  Q 887.49 1053.98 886.62 1053.98
  L 879.51 1053.98
  Q 879.01 1053.98 879.01 1054.49
  L 878.98 1057.60
  Q 878.98 1058.22 878.35 1058.19
  L 875.81 1058.08"
/>
<path stroke="#19430f" vector-effect="non-scaling-stroke" d="
  M 916.55 1294.99
  L 916.54 1291.99
  Q 916.54 1291.49 917.02 1291.49
  L 920.25 1291.47
  Q 920.70 1291.47 920.72 1291.01
  L 920.79 1288.05
  Q 920.80 1287.55 920.30 1287.54
  L 917.01 1287.54
  Q 916.49 1287.53 916.48 1287.02
  L 916.46 1283.77
  Q 916.45 1283.23 916.99 1283.23
  L 924.48 1283.27
  Q 924.99 1283.27 924.99 1282.77
  L 925.04 1279.51
  A 0.54 0.51 -89.9 0 0 924.52 1278.97
  L 921.26 1279.01
  Q 920.75 1279.01 920.75 1278.50
  L 920.74 1271.37
  Q 920.74 1270.75 920.13 1270.74
  L 917.18 1270.74
  Q 916.52 1270.74 916.52 1271.45
  L 916.55 1274.55
  Q 916.55 1275.01 915.62 1275.01
  L 909.19 1275.01
  Q 908.25 1275.01 908.23 1274.07
  Q 908.02 1265.12 908.85 1259.11
  A 0.81 0.81 0.0 0 1 909.54 1258.42
  Q 910.82 1258.25 911.59 1257.49
  Q 911.97 1257.12 912.01 1256.58
  Q 912.22 1253.76 912.22 1250.78
  Q 912.22 1249.80 909.55 1250.03
  Q 908.20 1250.14 908.18 1248.74
  L 908.15 1247.07
  Q 908.13 1245.88 909.32 1245.83
  L 914.91 1245.56
  A 1.26 1.14 -0.9 0 0 916.11 1244.44
  L 916.53 1225.77
  A 0.68 0.66 1.2 0 0 915.87 1225.10
  L 908.96 1224.96
  Q 908.34 1224.95 908.27 1224.34
  Q 907.79 1220.56 908.72 1217.32
  Q 908.86 1216.82 909.36 1216.63
  Q 910.53 1216.20 910.90 1216.12
  C 911.94 1215.90 912.50 1214.98 912.59 1214.23
  A 1.39 0.99 -89.6 0 1 913.42 1213.08
  L 919.92 1211.67
  Q 920.38 1211.57 920.50 1211.10
  L 920.90 1209.51
  Q 921.03 1208.99 921.50 1208.72
  Q 922.66 1208.05 924.34 1208.25
  Q 924.82 1208.31 924.89 1208.77
  L 925.30 1211.65
  Q 925.38 1212.19 925.87 1212.32
  Q 927.12 1212.65 928.10 1212.25
  Q 928.68 1212.02 928.72 1211.43
  L 929.07 1205.38
  Q 929.16 1203.89 930.78 1203.99
  Q 933.58 1204.15 933.14 1201.86
  Q 932.82 1200.19 934.37 1200.02
  L 936.55 1199.79
  Q 937.25 1199.71 937.26 1198.91
  L 937.29 1197.09
  A 1.22 1.15 2.0 0 0 936.13 1195.92
  L 933.89 1195.79
  Q 933.30 1195.76 933.27 1195.15
  L 932.89 1188.39
  Q 932.86 1187.72 932.13 1187.70
  L 929.84 1187.63
  A 0.62 0.59 -86.5 0 0 929.24 1188.20
  L 929.00 1190.76
  A 0.98 0.94 2.7 0 1 928.03 1191.62
  L 926.29 1191.61
  Q 925.10 1191.60 925.09 1190.40
  L 924.87 1171.62
  A 0.80 0.76 -89.4 0 0 924.13 1170.83
  L 917.33 1170.59
  A 0.72 0.71 -6.4 0 1 916.66 1170.06
  Q 916.29 1168.67 916.99 1167.29
  Q 917.26 1166.77 917.86 1166.63
  L 919.92 1166.17
  Q 920.40 1166.07 920.44 1165.58
  L 921.02 1159.77
  A 1.63 1.53 -86.3 0 1 922.59 1158.29
  L 923.85 1158.32
  A 0.68 0.66 -88.0 0 0 924.52 1157.67
  L 924.97 1147.34
  A 1.41 1.36 -89.8 0 0 923.56 1145.87
  Q 920.06 1146.00 917.32 1145.11
  Q 916.82 1144.95 916.62 1144.47
  Q 915.76 1142.46 914.02 1141.06
  A 1.58 1.58 0.0 0 1 913.49 1140.24
  Q 912.13 1135.17 912.12 1130.56
  Q 912.11 1129.19 910.70 1129.10
  L 910.12 1129.07
  A 1.57 1.56 -83.4 0 0 908.49 1130.37
  L 908.13 1132.46
  Q 908.03 1133.06 907.40 1133.14
  Q 903.95 1133.58 900.91 1132.96
  Q 900.33 1132.85 900.23 1132.26
  L 899.89 1130.11
  Q 899.73 1129.12 898.67 1129.10
  L 897.04 1129.06
  Q 896.07 1129.04 896.04 1129.98
  L 895.82 1137.26
  A 0.76 0.54 -9.9 0 1 895.26 1137.81
  Q 894.89 1137.92 893.63 1138.07
  C 892.29 1138.22 891.52 1139.19 892.17 1140.46
  Q 892.38 1140.87 892.84 1140.91
  L 899.02 1141.48
  Q 899.82 1141.55 899.89 1142.34
  Q 900.36 1147.65 899.90 1153.07
  A 1.13 1.06 1.5 0 1 898.81 1154.05
  L 892.32 1154.21
  A 0.80 0.76 -0.9 0 0 891.54 1154.97
  L 891.56 1157.46
  Q 891.56 1158.18 892.46 1158.04
  Q 893.34 1157.91 895.26 1158.31
  Q 895.83 1158.42 895.87 1159.00
  Q 896.03 1161.20 895.75 1162.00
  A 0.97 0.97 0.0 0 1 895.08 1162.62
  Q 893.87 1162.93 891.88 1162.59
  A 0.64 0.64 0.0 0 1 891.34 1161.97
  L 891.29 1158.95
  Q 891.28 1158.33 890.70 1158.33
  L 879.63 1158.30
  A 0.59 0.59 0.0 0 0 879.05 1158.88
  L 879.00 1165.92
  Q 879.00 1166.58 878.35 1166.57
  L 875.81 1166.57
  Q 875.03 1166.57 875.03 1165.79
  L 875.00 1146.51
  Q 875.00 1145.76 874.26 1145.76
  L 863.03 1145.81
  A 0.54 0.53 -1.1 0 1 862.50 1145.29
  L 862.24 1138.06
  Q 862.22 1137.43 861.57 1137.44
  L 858.93 1137.49
  Q 858.33 1137.50 858.32 1138.12
  L 858.25 1145.52
  Q 858.25 1145.77 857.99 1145.77
  L 850.39 1145.76
  Q 850.01 1145.76 850.01 1145.37
  L 850.00 1133.74
  Q 850.00 1133.22 850.51 1133.23
  L 853.48 1133.27
  Q 853.98 1133.28 853.99 1132.77
  L 854.02 1125.64
  Q 854.03 1125.04 854.60 1125.03
  L 857.48 1124.98
  Q 858.27 1124.96 858.20 1124.16
  Q 857.92 1120.82 858.58 1117.19
  A 0.95 0.95 0.0 0 1 859.64 1116.41
  Q 862.39 1116.77 862.42 1114.49
  Q 862.44 1113.33 862.89 1112.84
  Q 863.20 1112.51 864.82 1112.41
  Q 866.17 1112.32 866.24 1110.93
  L 866.59 1104.56
  A 0.53 0.53 0.0 0 0 866.05 1104.01
  L 858.74 1104.00
  Q 858.23 1104.00 858.23 1103.49
  L 858.27 1092.29
  Q 858.28 1091.81 857.81 1091.66
  Q 857.09 1091.41 856.95 1091.02"
/>
<path stroke="#19430f" vector-effect="non-scaling-stroke" d="
  M 904.06 1299.80
  L 903.97 1295.98
  Q 903.97 1295.75 903.74 1295.75
  L 900.43 1295.74
  Q 900.06 1295.73 900.06 1296.11
  L 900.09 1301.54"
/>
<path stroke="#19430f" vector-effect="non-scaling-stroke" d="
  M 887.52 1306.85
  L 887.57 1300.59
  A 0.56 0.50 -89.6 0 0 887.07 1300.02
  L 883.70 1300.00
  Q 883.17 1300.00 883.19 1300.49
  L 883.32 1303.31
  A 0.90 0.70 -1.0 0 1 882.41 1304.04
  L 875.90 1304.05
  Q 874.94 1304.05 874.95 1303.16
  L 875.01 1296.25
  Q 875.02 1295.75 874.50 1295.75
  L 867.00 1295.77
  Q 866.48 1295.77 866.48 1295.25
  L 866.48 1291.99
  Q 866.48 1291.50 866.00 1291.50
  L 858.73 1291.50
  Q 858.22 1291.50 858.23 1290.98
  L 858.30 1283.76
  Q 858.30 1283.22 857.76 1283.22
  L 854.51 1283.23
  A 0.51 0.50 -0.1 0 0 854.01 1283.74
  L 854.00 1290.99
  Q 854.00 1291.50 853.52 1291.50
  L 850.63 1291.46
  Q 850.02 1291.45 850.01 1292.09
  L 849.99 1295.28
  Q 849.99 1295.81 849.48 1295.79
  L 846.62 1295.68
  Q 845.75 1295.65 845.74 1296.55
  L 845.73 1303.20
  Q 845.72 1304.04 846.58 1304.03
  L 849.51 1303.97
  Q 849.99 1303.96 849.99 1304.47
  L 849.98 1310.98"
/>
<path stroke="#19430f" vector-effect="non-scaling-stroke" d="
  M 858.16 1311.16
  L 858.20 1308.85
  Q 858.21 1308.25 857.70 1308.25
  L 854.64 1308.21
  Q 854.21 1308.20 854.11 1308.70
  Q 853.88 1309.87 854.09 1311.14"
/>
</g>
<path fill="#31861d" d="
  M 1223.87 449.70
  Q 1222.42 450.08 1221.56 449.94
  A 0.74 0.47 6.5 0 0 1220.71 450.36
  L 1220.72 453.47
  Q 1220.73 453.98 1221.49 453.98
  L 1224.50 453.99
  Q 1225.02 453.99 1225.01 454.50
  L 1224.99 457.75
  Q 1224.99 458.24 1225.49 458.24
  L 1232.77 458.24
  Q 1233.30 458.24 1233.29 457.73
  L 1233.22 454.45
  Q 1233.21 453.91 1232.70 453.92
  L 1229.67 453.98
  Q 1229.17 453.99 1229.08 453.46
  Q 1228.96 452.77 1229.09 451.94
  L 1241.56 456.90
  L 1241.57 461.84
  Q 1241.57 462.35 1242.07 462.40
  L 1245.86 462.76
  L 1246.00 463.79
  Q 1244.75 469.10 1246.80 471.13
  L 1247.28 474.74
  Q 1246.59 474.85 1246.11 475.13
  Q 1245.65 475.41 1245.68 475.87
  L 1245.84 478.42
  A 0.54 0.54 0.0 0 1 1245.30 478.99
  L 1237.99 479.00
  Q 1237.47 479.00 1237.47 479.49
  L 1237.48 482.73
  Q 1237.48 483.23 1237.97 483.23
  L 1241.02 483.24
  Q 1241.52 483.24 1241.52 483.77
  L 1241.69 503.46
  Q 1241.69 504.01 1242.19 504.01
  L 1244.78 503.99
  Q 1245.77 503.98 1245.78 505.03
  L 1245.81 511.49
  Q 1245.82 512.57 1244.78 512.57
  L 1242.11 512.57
  Q 1241.57 512.57 1241.57 513.16
  L 1241.55 515.66
  Q 1241.54 516.57 1240.63 516.57
  L 1238.56 516.57
  Q 1237.52 516.56 1237.46 515.58
  L 1237.34 513.32
  Q 1237.31 512.80 1236.78 512.74
  L 1234.21 512.46
  A 0.89 0.84 2.5 0 1 1233.41 511.64
  L 1233.19 504.60
  Q 1233.17 504.04 1232.62 504.03
  L 1229.63 503.98
  Q 1229.02 503.97 1229.02 503.38
  L 1229.04 500.72
  Q 1229.04 499.98 1228.29 499.98
  L 1221.45 499.98
  Q 1220.75 499.98 1220.75 500.72
  L 1220.74 512.04
  Q 1220.73 512.57 1220.21 512.57
  L 1217.09 512.54
  Q 1216.50 512.54 1216.51 513.13
  L 1216.55 515.83
  Q 1216.56 516.48 1215.89 516.48
  L 1208.73 516.49
  Q 1208.23 516.49 1208.23 517.00
  L 1208.26 528.48
  Q 1208.26 528.95 1208.73 528.95
  L 1212.04 529.01
  Q 1212.56 529.02 1212.56 529.54
  L 1212.54 532.75
  Q 1212.53 533.27 1212.00 533.28
  L 1208.88 533.29
  Q 1208.29 533.30 1208.29 533.88
  L 1208.30 536.89
  Q 1208.31 537.52 1207.64 537.53
  L 1204.67 537.56
  Q 1204.02 537.57 1204.01 536.91
  L 1203.96 533.81
  Q 1203.96 533.37 1203.52 533.34
  L 1195.59 532.93
  L 1196.07 529.00
  L 1199.21 529.03
  Q 1200.01 529.03 1200.01 528.27
  L 1200.01 525.77
  Q 1200.02 524.98 1199.22 524.97
  L 1196.69 524.95
  L 1197.68 520.75
  Q 1201.90 521.47 1198.99 515.71
  Q 1203.22 503.59 1208.12 490.93
  Q 1212.32 480.07 1213.37 470.88
  Q 1213.77 467.35 1211.12 463.40
  C 1205.80 455.49 1196.09 453.36 1186.69 450.58
  Q 1184.44 449.91 1182.16 449.56
  C 1178.00 448.92 1171.76 445.12 1169.93 440.89
  Q 1167.77 435.89 1167.66 432.25
  Q 1167.52 427.65 1167.43 426.85
  C 1167.15 424.25 1167.96 422.81 1168.87 419.86
  Q 1170.84 413.52 1175.93 410.18
  Q 1177.06 409.44 1178.88 410.00
  Q 1180.12 410.38 1180.69 411.82
  Q 1180.80 412.09 1181.54 414.72
  Q 1185.18 427.72 1195.98 437.24
  Q 1199.12 440.00 1203.89 442.10
  Q 1210.33 444.94 1212.37 445.63
  Q 1221.41 448.69 1223.87 449.70
  Z"
/>
<path fill="#000000" d="
  M 1229.09 451.94
  Q 1228.96 452.77 1229.08 453.46
  Q 1229.17 453.99 1229.67 453.98
  L 1232.70 453.92
  Q 1233.21 453.91 1233.22 454.45
  L 1233.29 457.73
  Q 1233.30 458.24 1232.77 458.24
  L 1225.49 458.24
  Q 1224.99 458.24 1224.99 457.75
  L 1225.01 454.50
  Q 1225.02 453.99 1224.50 453.99
  L 1221.49 453.98
  Q 1220.73 453.98 1220.72 453.47
  L 1220.71 450.36
  A 0.74 0.47 6.5 0 1 1221.56 449.94
  Q 1222.42 450.08 1223.87 449.70
  L 1229.09 451.94
  Z"
/>
<path fill="#000000" d="
  M 1245.86 462.76
  L 1242.07 462.40
  Q 1241.57 462.35 1241.57 461.84
  L 1241.56 456.90
  Q 1242.92 458.22 1244.57 458.85
  Q 1245.04 459.03 1245.23 459.50
  Q 1245.87 461.01 1245.86 462.76
  Z"
/>
<path fill="#000000" d="
  M 1246.00 463.79
  L 1246.80 471.13
  Q 1244.75 469.10 1246.00 463.79
  Z"
/>
<path fill="#000000" d="
  M 1247.28 474.74
  Q 1248.04 487.36 1247.75 497.75
  Q 1247.56 504.65 1246.50 527.85
  Q 1246.10 536.60 1245.17 541.87
  Q 1244.11 547.90 1242.68 555.73
  Q 1242.30 557.78 1241.65 564.91
  Q 1241.17 570.26 1242.09 574.07
  Q 1243.46 579.76 1246.14 584.75
  Q 1246.58 585.57 1247.03 585.70
  Q 1247.27 585.77 1247.73 586.07
  A 2.05 2.05 0.0 0 1 1248.44 586.83
  Q 1250.52 590.72 1252.87 593.01
  Q 1253.21 593.34 1253.26 593.81
  Q 1254.16 601.68 1253.62 605.84
  Q 1252.58 613.88 1251.67 621.11
  Q 1251.13 625.38 1251.67 632.94
  Q 1252.57 645.64 1252.24 655.77
  Q 1251.57 676.60 1249.36 694.62
  C 1247.40 710.49 1245.24 725.17 1243.87 741.96
  Q 1241.20 774.55 1240.22 784.25
  Q 1238.49 801.32 1235.00 818.77
  Q 1234.70 820.26 1234.98 821.73
  Q 1235.38 823.88 1235.30 824.76
  Q 1233.46 845.22 1228.28 866.06
  C 1224.39 881.70 1218.78 901.36 1214.48 919.86
  Q 1213.14 925.65 1212.88 932.27
  Q 1212.12 951.77 1211.73 956.51
  Q 1210.23 974.74 1205.77 992.22
  Q 1201.01 1010.86 1196.52 1029.41
  Q 1195.50 1029.40 1195.88 1032.13
  A 0.95 0.93 -4.8 0 1 1194.97 1033.19
  L 1192.30 1033.27
  Q 1191.42 1033.30 1191.45 1032.38
  L 1191.55 1029.52
  A 0.52 0.49 1.1 0 0 1191.03 1029.01
  L 1183.73 1028.98
  Q 1183.23 1028.98 1183.23 1028.48
  L 1183.26 1016.99
  Q 1183.26 1016.45 1183.78 1016.47
  L 1186.66 1016.57
  Q 1187.51 1016.61 1187.52 1015.67
  L 1187.53 1009.15
  Q 1187.53 1008.18 1186.67 1008.20
  L 1183.71 1008.25
  Q 1183.21 1008.26 1183.22 1007.73
  L 1183.28 1004.52
  Q 1183.29 1003.98 1182.77 1003.99
  L 1175.87 1004.07
  Q 1174.96 1004.08 1174.96 1003.16
  L 1174.99 996.62
  Q 1174.99 995.69 1175.84 995.73
  L 1178.47 995.87
  A 0.57 0.51 -88.8 0 0 1179.01 995.29
  L 1178.98 983.74
  Q 1178.98 983.25 1178.49 983.24
  L 1175.54 983.24
  Q 1175.05 983.24 1175.04 983.73
  L 1174.96 987.02
  Q 1174.95 987.48 1174.49 987.48
  L 1171.26 987.47
  Q 1170.79 987.47 1170.79 987.01
  L 1170.78 979.52
  Q 1170.78 979.02 1170.27 979.02
  L 1163.40 979.05
  Q 1162.49 979.05 1162.49 978.20
  L 1162.52 971.57
  Q 1162.52 970.70 1163.33 970.72
  L 1165.97 970.79
  Q 1166.46 970.80 1166.47 970.27
  L 1166.61 958.78
  A 0.57 0.57 0.0 0 0 1166.03 958.20
  L 1163.02 958.19
  Q 1162.39 958.19 1162.40 958.82
  L 1162.47 965.75
  A 0.72 0.70 89.7 0 1 1161.77 966.48
  L 1154.53 966.47
  Q 1154.06 966.47 1154.05 966.97
  L 1153.95 970.02
  A 0.72 0.67 -89.2 0 1 1153.28 970.73
  L 1150.77 970.74
  Q 1150.02 970.74 1150.01 970.03
  L 1149.98 967.07
  Q 1149.97 966.42 1149.33 966.43
  L 1146.25 966.47
  Q 1145.80 966.47 1145.80 966.01
  L 1145.85 959.25
  Q 1145.85 958.14 1144.74 958.13
  L 1138.43 958.13
  Q 1137.23 958.13 1137.33 959.35
  L 1137.54 961.70
  A 0.83 0.82 1.7 0 0 1138.24 962.43
  L 1140.76 962.79
  Q 1141.42 962.89 1141.38 963.53
  L 1141.08 969.36
  A 1.07 0.99 -86.2 0 1 1140.00 970.38
  Q 1139.17 970.31 1138.51 970.93
  Q 1138.02 971.38 1137.88 972.21
  Q 1137.32 975.47 1136.94 977.99
  Q 1136.86 978.50 1136.34 978.64
  L 1134.24 979.20
  Q 1133.60 979.36 1133.58 980.02
  L 1133.41 986.23
  A 1.22 1.22 0.0 0 0 1134.39 987.46
  Q 1135.68 987.72 1135.94 987.80
  C 1137.22 988.16 1137.38 989.39 1137.17 990.47
  A 0.75 0.74 2.4 0 1 1136.52 991.07
  L 1134.64 991.27
  A 1.54 1.52 2.4 0 0 1133.29 992.49
  Q 1133.07 993.64 1133.35 994.92
  Q 1133.57 995.94 1134.62 995.85
  Q 1135.80 995.74 1136.69 996.14
  Q 1137.14 996.33 1137.21 996.86
  L 1137.49 999.24
  Q 1137.55 999.71 1138.02 999.83
  Q 1139.77 1000.30 1141.26 999.83
  Q 1141.77 999.67 1141.79 999.15
  L 1142.14 992.40
  Q 1142.18 991.51 1142.98 991.58
  L 1144.25 991.68
  A 1.18 1.16 0.3 0 1 1145.34 992.76
  L 1145.83 999.54
  A 0.49 0.47 88.1 0 0 1146.29 1000.00
  L 1149.08 1000.02
  A 0.97 0.96 -88.9 0 1 1150.03 1001.02
  L 1149.97 1003.07
  A 0.98 0.97 -88.6 0 1 1148.98 1004.02
  L 1146.27 1003.96
  A 0.50 0.48 -89.1 0 0 1145.78 1004.46
  L 1145.67 1015.81
  Q 1145.67 1016.32 1145.18 1016.33
  L 1138.51 1016.51
  Q 1137.83 1016.52 1137.77 1017.21
  L 1137.17 1024.06
  Q 1137.12 1024.56 1136.60 1024.69
  L 1134.25 1025.26
  Q 1133.78 1025.37 1133.60 1025.78
  Q 1133.08 1026.95 1133.38 1028.24
  Q 1133.51 1028.77 1134.06 1028.84
  L 1136.68 1029.14
  A 0.71 0.71 0.0 0 1 1137.31 1029.80
  Q 1137.41 1031.19 1136.80 1032.42
  A 1.02 1.02 0.0 0 1 1136.08 1032.97
  L 1134.16 1033.35
  A 0.83 0.83 0.0 0 0 1133.53 1033.91
  Q 1132.97 1035.65 1132.94 1035.75
  C 1132.57 1037.09 1131.06 1037.56 1129.92 1036.85
  Q 1129.50 1036.59 1129.35 1036.11
  L 1128.67 1034.01
  A 0.87 0.86 85.9 0 0 1127.99 1033.42
  L 1125.88 1033.05
  Q 1125.36 1032.95 1125.24 1032.39
  L 1124.73 1030.00
  Q 1124.61 1029.47 1124.16 1029.32
  L 1121.97 1028.61
  Q 1121.44 1028.44 1121.35 1027.88
  L 1120.48 1022.28
  Q 1120.20 1020.53 1118.42 1020.71
  Q 1117.02 1020.86 1116.94 1021.77
  Q 1116.45 1027.12 1115.94 1031.21
  A 2.58 2.50 71.3 0 1 1115.25 1032.67
  L 1111.85 1036.17
  A 1.29 1.24 -72.8 0 1 1111.20 1036.53
  Q 1106.14 1037.60 1101.81 1038.05
  C 1099.08 1038.33 1100.39 1041.48 1097.40 1041.55
  A 1.27 1.17 -88.1 0 0 1096.26 1042.71
  L 1095.76 1048.83
  A 1.00 0.96 5.2 0 0 1096.66 1049.86
  L 1099.18 1050.11
  Q 1099.77 1050.17 1099.79 1050.79
  L 1100.02 1061.69
  A 0.73 0.73 0.0 0 1 1099.29 1062.44
  L 1092.18 1062.46
  Q 1091.62 1062.46 1091.58 1063.08
  L 1091.21 1069.26
  Q 1091.09 1071.21 1089.17 1070.65
  Q 1087.33 1070.12 1087.50 1074.00
  A 1.01 0.99 -0.3 0 1 1086.45 1075.04
  L 1084.44 1074.97
  Q 1083.46 1074.94 1083.44 1073.95
  L 1083.18 1062.95
  Q 1083.17 1062.47 1082.77 1062.47
  L 1079.74 1062.50
  Q 1079.03 1062.51 1079.02 1061.77
  L 1078.98 1059.03
  A 0.71 0.71 0.0 0 1 1079.69 1058.31
  L 1082.74 1058.29
  Q 1083.26 1058.29 1083.26 1057.77
  L 1083.28 1050.65
  Q 1083.28 1050.10 1082.72 1050.08
  L 1079.58 1049.99
  Q 1079.10 1049.98 1079.08 1050.45
  L 1078.96 1053.03
  Q 1078.91 1053.97 1077.99 1053.98
  L 1075.79 1054.02
  Q 1075.04 1054.03 1075.02 1053.30
  L 1074.96 1050.62
  Q 1074.95 1050.02 1074.36 1050.02
  L 1067.23 1049.98
  Q 1066.48 1049.97 1066.48 1049.24
  L 1066.52 1042.24
  Q 1066.52 1041.55 1067.25 1041.56
  L 1069.77 1041.57
  Q 1070.87 1041.58 1070.87 1040.49
  L 1070.86 1034.24
  Q 1070.86 1033.10 1069.74 1033.12
  L 1063.22 1033.21
  A 0.66 0.65 -89.6 0 1 1062.56 1032.53
  L 1062.86 1021.55
  Q 1062.87 1020.99 1063.46 1020.92
  L 1065.44 1020.69
  Q 1066.30 1020.59 1066.23 1019.70
  L 1066.06 1017.42
  Q 1066.01 1016.68 1065.37 1016.56
  L 1063.65 1016.25
  Q 1063.15 1016.16 1063.14 1015.65
  L 1062.89 1004.98
  Q 1062.88 1004.45 1063.41 1004.35
  L 1065.77 1003.90
  Q 1066.59 1003.75 1066.59 1002.93
  L 1066.58 1001.15
  Q 1066.57 1000.10 1065.51 1000.07
  L 1059.58 999.88
  A 1.03 1.01 -0.5 0 1 1058.58 998.92
  L 1058.03 987.98
  Q 1058.01 987.44 1057.50 987.43
  L 1054.89 987.41
  Q 1054.34 987.41 1054.28 986.87
  L 1053.93 983.64
  A 0.54 0.53 87.0 0 0 1053.40 983.16
  L 1046.65 983.14
  A 0.73 0.70 -89.9 0 1 1045.95 982.41
  L 1045.94 971.52
  A 0.91 0.89 -89.8 0 0 1045.06 970.61
  L 1042.33 970.59
  Q 1041.55 970.59 1041.48 971.39
  Q 1040.86 978.74 1040.88 985.76
  A 1.54 1.54 0.0 0 1 1039.84 987.22
  L 1039.08 987.48
  Q 1038.56 987.66 1038.50 988.20
  Q 1037.77 994.43 1038.16 999.05
  Q 1038.21 999.54 1038.68 999.75
  L 1039.94 1000.29
  A 1.52 1.49 -82.2 0 1 1040.83 1001.49
  Q 1041.46 1006.66 1041.12 1011.34
  Q 1041.05 1012.36 1039.90 1012.42
  L 1039.00 1012.47
  Q 1038.10 1012.52 1037.95 1011.52
  L 1037.55 1008.81
  Q 1037.45 1008.18 1036.81 1008.17
  L 1034.57 1008.12
  Q 1033.19 1008.09 1033.19 1009.47
  L 1033.21 1020.12
  Q 1033.22 1020.68 1032.64 1020.68
  L 1025.70 1020.71
  Q 1025.07 1020.71 1025.06 1020.10
  L 1024.94 1009.07
  Q 1024.92 1008.15 1024.01 1008.15
  L 1021.78 1008.17
  Q 1020.73 1008.18 1020.72 1009.23
  L 1020.66 1016.00
  Q 1020.65 1016.41 1020.25 1016.41
  L 1009.26 1016.53
  Q 1008.32 1016.54 1008.28 1017.45
  L 1007.54 1032.00
  A 1.34 1.33 85.6 0 1 1006.49 1033.24
  L 1005.21 1033.51
  Q 1004.64 1033.63 1004.57 1034.19
  L 1003.80 1040.08
  Q 1003.65 1041.20 1002.54 1041.45
  Q 999.99 1042.02 999.90 1039.24
  Q 999.85 1037.51 998.34 1037.36
  L 997.34 1037.27
  Q 996.78 1037.21 996.60 1036.57
  L 994.76 1029.91
  A 1.01 0.84 2.9 0 0 994.09 1029.29
  L 992.35 1028.80
  Q 991.77 1028.63 991.68 1028.09
  L 991.35 1025.98
  A 0.87 0.81 -85.3 0 0 990.83 1025.31
  L 989.09 1024.67
  Q 988.58 1024.48 988.39 1023.97
  Q 988.20 1023.44 987.94 1021.81
  Q 987.74 1020.52 986.26 1016.87
  Q 986.10 1016.48 985.64 1016.32
  L 984.81 1016.05
  Q 984.26 1015.86 984.22 1015.41
  L 982.94 1000.55
  Q 982.90 1000.04 982.42 1000.02
  L 979.73 999.93
  Q 979.06 999.90 979.05 999.22
  L 979.01 996.49
  Q 979.00 995.79 979.75 995.80
  L 982.57 995.85
  Q 983.26 995.86 983.26 995.18
  L 983.32 988.24
  Q 983.33 987.33 982.51 987.36
  L 979.94 987.45
  Q 979.01 987.49 979.01 986.47
  L 979.06 980.16
  Q 979.07 979.17 980.00 979.13
  L 982.45 979.01
  Q 983.36 978.97 983.37 978.06
  L 983.39 975.93
  Q 983.40 974.96 982.42 974.96
  L 971.50 974.94
  A 0.67 0.67 0.0 0 1 970.83 974.26
  L 970.92 967.03
  Q 970.93 966.36 970.27 966.37
  L 967.03 966.39
  Q 966.34 966.40 966.35 967.06
  L 966.43 974.37
  A 0.55 0.54 -0.4 0 1 965.88 974.92
  L 958.96 974.95
  Q 958.11 974.95 958.11 975.80
  L 958.11 978.16
  Q 958.11 978.96 958.91 978.99
  L 961.58 979.13
  A 0.81 0.80 89.6 0 1 962.34 979.88
  L 962.76 986.72
  Q 962.80 987.40 963.51 987.46
  L 965.45 987.66
  Q 966.11 987.72 966.13 988.41
  L 966.48 999.07
  A 0.78 0.77 87.6 0 1 965.75 999.88
  L 958.72 1000.24
  Q 958.20 1000.27 958.22 1000.82
  L 958.26 1002.65
  A 1.20 1.16 -3.1 0 1 957.16 1003.84
  L 955.32 1003.99
  A 1.06 1.00 -4.9 0 1 954.18 1003.08
  L 953.97 1000.86
  Q 953.89 999.90 952.87 999.96
  L 951.12 1000.05
  Q 950.05 1000.11 950.03 1001.19
  L 949.94 1007.12
  A 0.90 0.85 88.7 0 1 949.14 1008.01
  L 942.72 1008.43
  A 1.34 1.32 85.9 0 0 941.49 1009.87
  Q 941.70 1012.56 939.35 1012.28
  Q 938.82 1012.22 938.42 1012.57
  Q 937.10 1013.72 937.63 1015.94
  A 0.79 0.78 86.5 0 0 938.30 1016.54
  L 940.26 1016.78
  Q 941.33 1016.90 941.32 1017.58
  L 941.31 1019.71
  A 1.10 0.91 -1.1 0 1 940.25 1020.62
  L 938.00 1020.71
  Q 937.48 1020.73 937.47 1021.28
  L 937.45 1028.20
  A 0.85 0.85 0.0 0 1 936.59 1029.05
  L 934.30 1029.04
  Q 933.29 1029.03 933.29 1028.04
  L 933.34 1021.01
  Q 933.34 1020.70 933.01 1020.69
  L 929.45 1020.63
  Q 929.05 1020.62 929.03 1021.08
  L 928.96 1024.06
  Q 928.93 1025.00 927.98 1025.00
  L 921.77 1025.02
  Q 920.71 1025.02 920.73 1024.04
  L 920.82 1017.18
  Q 920.83 1016.65 921.35 1016.64
  L 924.46 1016.62
  Q 925.05 1016.61 925.05 1016.00
  L 925.03 1013.07
  A 0.63 0.61 -89.6 0 0 924.43 1012.44
  L 917.92 1012.30
  A 0.95 0.88 -4.0 0 1 917.02 1011.58
  L 915.81 1004.91
  Q 915.70 1004.33 915.18 1004.20
  L 913.79 1003.85
  Q 913.19 1003.71 913.17 1003.05
  Q 913.02 999.02 911.38 991.91
  Q 911.26 991.38 910.72 991.37
  Q 910.11 991.36 909.57 991.15
  Q 909.03 990.93 908.99 990.35
  L 908.23 979.96
  A 1.06 1.05 -1.5 0 0 907.20 978.99
  L 904.72 978.94
  Q 904.10 978.93 904.01 979.56
  L 903.68 982.03
  Q 903.55 983.08 902.48 983.05
  L 897.07 982.91
  Q 895.99 982.88 895.94 981.82
  L 895.85 979.70
  A 0.70 0.67 0.0 0 0 895.18 979.05
  L 892.41 978.93
  Q 891.30 978.89 891.31 979.91
  L 891.42 1003.43
  Q 891.42 1003.94 891.93 1003.97
  L 894.91 1004.13
  Q 895.53 1004.16 895.55 1004.78
  L 895.64 1007.77
  Q 895.66 1008.36 896.26 1008.38
  L 898.99 1008.45
  Q 899.99 1008.48 899.94 1009.45
  L 899.85 1011.43
  Q 899.80 1012.45 898.82 1012.46
  L 896.43 1012.47
  Q 895.82 1012.48 895.82 1013.09
  L 895.70 1024.50
  A 0.47 0.47 0.0 0 1 895.23 1024.97
  L 887.84 1025.06
  A 0.36 0.35 -0.1 0 0 887.49 1025.41
  L 887.42 1032.68
  Q 887.42 1033.30 886.84 1033.28
  L 884.13 1033.19
  Q 883.30 1033.17 883.30 1034.06
  L 883.27 1040.78
  Q 883.26 1041.53 884.02 1041.53
  L 886.77 1041.53
  Q 887.27 1041.53 887.27 1042.01
  L 887.47 1053.12
  Q 887.49 1053.98 886.62 1053.98
  L 879.51 1053.98
  Q 879.01 1053.98 879.01 1054.49
  L 878.98 1057.60
  Q 878.98 1058.22 878.35 1058.19
  L 875.81 1058.08
  Q 876.50 1056.02 876.97 1053.98
  Q 877.40 1052.06 877.11 1049.79
  Q 875.67 1038.61 874.67 1027.65
  Q 873.97 1019.92 873.01 1012.98
  Q 871.70 1003.48 871.26 998.27
  Q 868.55 966.01 867.68 957.55
  Q 866.52 946.33 865.47 939.76
  Q 864.08 931.06 860.30 922.51
  Q 849.42 897.91 825.69 883.61
  Q 820.98 880.78 815.01 877.56
  Q 813.66 876.83 812.61 876.51
  Q 810.40 875.82 809.46 873.46
  A 1.81 1.81 0.0 0 1 811.38 871.00
  Q 812.45 871.15 814.62 871.93
  Q 817.01 872.79 818.17 872.95
  Q 820.58 873.27 827.60 874.89
  Q 841.06 878.01 854.82 879.92
  Q 861.41 880.83 866.99 880.91
  Q 871.83 880.97 876.99 881.77
  Q 886.12 883.19 890.51 883.22
  Q 910.64 883.36 934.61 882.36
  Q 955.54 881.49 975.78 877.81
  Q 997.13 873.92 1016.44 865.42
  Q 1033.09 858.08 1042.48 853.95
  Q 1047.28 851.84 1054.11 849.99
  Q 1057.47 849.08 1059.80 847.40
  Q 1064.84 843.77 1069.18 839.67
  Q 1082.07 827.47 1092.55 818.55
  C 1096.61 815.09 1100.46 811.16 1103.66 806.41
  Q 1106.99 801.46 1112.74 793.61
  C 1114.33 791.44 1116.09 788.61 1117.29 786.07
  Q 1130.11 758.89 1135.50 726.79
  Q 1136.76 719.27 1136.94 718.29
  C 1137.77 713.64 1138.02 707.38 1139.48 702.28
  Q 1142.29 692.42 1148.78 687.26
  Q 1154.44 682.77 1156.70 676.99
  Q 1162.88 661.25 1165.11 644.09
  Q 1168.24 619.88 1172.63 601.36
  Q 1175.19 590.53 1180.63 577.88
  C 1186.88 563.34 1190.78 554.38 1194.04 542.76
  Q 1195.52 537.45 1195.59 532.93
  L 1203.52 533.34
  Q 1203.96 533.37 1203.96 533.81
  L 1204.01 536.91
  Q 1204.02 537.57 1204.67 537.56
  L 1207.64 537.53
  Q 1208.31 537.52 1208.30 536.89
  L 1208.29 533.88
  Q 1208.29 533.30 1208.88 533.29
  L 1212.00 533.28
  Q 1212.53 533.27 1212.54 532.75
  L 1212.56 529.54
  Q 1212.56 529.02 1212.04 529.01
  L 1208.73 528.95
  Q 1208.26 528.95 1208.26 528.48
  L 1208.23 517.00
  Q 1208.23 516.49 1208.73 516.49
  L 1215.89 516.48
  Q 1216.56 516.48 1216.55 515.83
  L 1216.51 513.13
  Q 1216.50 512.54 1217.09 512.54
  L 1220.21 512.57
  Q 1220.73 512.57 1220.74 512.04
  L 1220.75 500.72
  Q 1220.75 499.98 1221.45 499.98
  L 1228.29 499.98
  Q 1229.04 499.98 1229.04 500.72
  L 1229.02 503.38
  Q 1229.02 503.97 1229.63 503.98
  L 1232.62 504.03
  Q 1233.17 504.04 1233.19 504.60
  L 1233.41 511.64
  A 0.89 0.84 2.5 0 0 1234.21 512.46
  L 1236.78 512.74
  Q 1237.31 512.80 1237.34 513.32
  L 1237.46 515.58
  Q 1237.52 516.56 1238.56 516.57
  L 1240.63 516.57
  Q 1241.54 516.57 1241.55 515.66
  L 1241.57 513.16
  Q 1241.57 512.57 1242.11 512.57
  L 1244.78 512.57
  Q 1245.82 512.57 1245.81 511.49
  L 1245.78 505.03
  Q 1245.77 503.98 1244.78 503.99
  L 1242.19 504.01
  Q 1241.69 504.01 1241.69 503.46
  L 1241.52 483.77
  Q 1241.52 483.24 1241.02 483.24
  L 1237.97 483.23
  Q 1237.48 483.23 1237.48 482.73
  L 1237.47 479.49
  Q 1237.47 479.00 1237.99 479.00
  L 1245.30 478.99
  A 0.54 0.54 0.0 0 0 1245.84 478.42
  L 1245.68 475.87
  Q 1245.65 475.41 1246.11 475.13
  Q 1246.59 474.85 1247.28 474.74
  Z"
/>
<path fill="#000000" d="
  M 1197.68 520.75
  L 1198.99 515.71
  Q 1201.90 521.47 1197.68 520.75
  Z"
/>
<path fill="#000000" d="
  M 1196.69 524.95
  L 1199.22 524.97
  Q 1200.02 524.98 1200.01 525.77
  L 1200.01 528.27
  Q 1200.01 529.03 1199.21 529.03
  L 1196.07 529.00
  L 1196.69 524.95
  Z"
/>
<path fill="#31861d" d="
  M 1196.52 1029.41
  Q 1194.72 1039.02 1193.02 1048.50
  Q 1191.64 1056.22 1193.00 1069.28
  Q 1195.05 1089.01 1196.62 1094.51
  Q 1198.11 1099.67 1199.21 1105.80
  Q 1201.12 1116.34 1198.31 1125.63
  Q 1197.04 1129.81 1192.10 1131.60
  Q 1181.63 1135.40 1168.39 1142.90
  C 1151.30 1152.60 1141.62 1160.40 1119.11 1176.62
  Q 1112.15 1181.64 1103.37 1188.95
  Q 1090.33 1199.81 1075.97 1210.47
  Q 1074.63 1211.46 1067.28 1216.30
  C 1060.12 1221.00 1055.41 1224.73 1046.43 1231.31
  Q 1039.85 1236.13 1033.75 1239.72
  Q 1017.36 1249.38 1007.51 1254.25
  Q 965.73 1274.90 946.21 1284.69
  Q 941.67 1286.98 936.19 1288.61
  Q 926.29 1291.57 916.55 1294.99
  L 916.54 1291.99
  Q 916.54 1291.49 917.02 1291.49
  L 920.25 1291.47
  Q 920.70 1291.47 920.72 1291.01
  L 920.79 1288.05
  Q 920.80 1287.55 920.30 1287.54
  L 917.01 1287.54
  Q 916.49 1287.53 916.48 1287.02
  L 916.46 1283.77
  Q 916.45 1283.23 916.99 1283.23
  L 924.48 1283.27
  Q 924.99 1283.27 924.99 1282.77
  L 925.04 1279.51
  A 0.54 0.51 -89.9 0 0 924.52 1278.97
  L 921.26 1279.01
  Q 920.75 1279.01 920.75 1278.50
  L 920.74 1271.37
  Q 920.74 1270.75 920.13 1270.74
  L 917.18 1270.74
  Q 916.52 1270.74 916.52 1271.45
  L 916.55 1274.55
  Q 916.55 1275.01 915.62 1275.01
  L 909.19 1275.01
  Q 908.25 1275.01 908.23 1274.07
  Q 908.02 1265.12 908.85 1259.11
  A 0.81 0.81 0.0 0 1 909.54 1258.42
  Q 910.82 1258.25 911.59 1257.49
  Q 911.97 1257.12 912.01 1256.58
  Q 912.22 1253.76 912.22 1250.78
  Q 912.22 1249.80 909.55 1250.03
  Q 908.20 1250.14 908.18 1248.74
  L 908.15 1247.07
  Q 908.13 1245.88 909.32 1245.83
  L 914.91 1245.56
  A 1.26 1.14 -0.9 0 0 916.11 1244.44
  L 916.53 1225.77
  A 0.68 0.66 1.2 0 0 915.87 1225.10
  L 908.96 1224.96
  Q 908.34 1224.95 908.27 1224.34
  Q 907.79 1220.56 908.72 1217.32
  Q 908.86 1216.82 909.36 1216.63
  Q 910.53 1216.20 910.90 1216.12
  C 911.94 1215.90 912.50 1214.98 912.59 1214.23
  A 1.39 0.99 -89.6 0 1 913.42 1213.08
  L 919.92 1211.67
  Q 920.38 1211.57 920.50 1211.10
  L 920.90 1209.51
  Q 921.03 1208.99 921.50 1208.72
  Q 922.66 1208.05 924.34 1208.25
  Q 924.82 1208.31 924.89 1208.77
  L 925.30 1211.65
  Q 925.38 1212.19 925.87 1212.32
  Q 927.12 1212.65 928.10 1212.25
  Q 928.68 1212.02 928.72 1211.43
  L 929.07 1205.38
  Q 929.16 1203.89 930.78 1203.99
  Q 933.58 1204.15 933.14 1201.86
  Q 932.82 1200.19 934.37 1200.02
  L 936.55 1199.79
  Q 937.25 1199.71 937.26 1198.91
  L 937.29 1197.09
  A 1.22 1.15 2.0 0 0 936.13 1195.92
  L 933.89 1195.79
  Q 933.30 1195.76 933.27 1195.15
  L 932.89 1188.39
  Q 932.86 1187.72 932.13 1187.70
  L 929.84 1187.63
  A 0.62 0.59 -86.5 0 0 929.24 1188.20
  L 929.00 1190.76
  A 0.98 0.94 2.7 0 1 928.03 1191.62
  L 926.29 1191.61
  Q 925.10 1191.60 925.09 1190.40
  L 924.87 1171.62
  A 0.80 0.76 -89.4 0 0 924.13 1170.83
  L 917.33 1170.59
  A 0.72 0.71 -6.4 0 1 916.66 1170.06
  Q 916.29 1168.67 916.99 1167.29
  Q 917.26 1166.77 917.86 1166.63
  L 919.92 1166.17
  Q 920.40 1166.07 920.44 1165.58
  L 921.02 1159.77
  A 1.63 1.53 -86.3 0 1 922.59 1158.29
  L 923.85 1158.32
  A 0.68 0.66 -88.0 0 0 924.52 1157.67
  L 924.97 1147.34
  A 1.41 1.36 -89.8 0 0 923.56 1145.87
  Q 920.06 1146.00 917.32 1145.11
  Q 916.82 1144.95 916.62 1144.47
  Q 915.76 1142.46 914.02 1141.06
  A 1.58 1.58 0.0 0 1 913.49 1140.24
  Q 912.13 1135.17 912.12 1130.56
  Q 912.11 1129.19 910.70 1129.10
  L 910.12 1129.07
  A 1.57 1.56 -83.4 0 0 908.49 1130.37
  L 908.13 1132.46
  Q 908.03 1133.06 907.40 1133.14
  Q 903.95 1133.58 900.91 1132.96
  Q 900.33 1132.85 900.23 1132.26
  L 899.89 1130.11
  Q 899.73 1129.12 898.67 1129.10
  L 897.04 1129.06
  Q 896.07 1129.04 896.04 1129.98
  L 895.82 1137.26
  A 0.76 0.54 -9.9 0 1 895.26 1137.81
  Q 894.89 1137.92 893.63 1138.07
  C 892.29 1138.22 891.52 1139.19 892.17 1140.46
  Q 892.38 1140.87 892.84 1140.91
  L 899.02 1141.48
  Q 899.82 1141.55 899.89 1142.34
  Q 900.36 1147.65 899.90 1153.07
  A 1.13 1.06 1.5 0 1 898.81 1154.05
  L 892.32 1154.21
  A 0.80 0.76 -0.9 0 0 891.54 1154.97
  L 891.56 1157.46
  Q 891.56 1158.18 892.46 1158.04
  Q 893.34 1157.91 895.26 1158.31
  Q 895.83 1158.42 895.87 1159.00
  Q 896.03 1161.20 895.75 1162.00
  A 0.97 0.97 0.0 0 1 895.08 1162.62
  Q 893.87 1162.93 891.88 1162.59
  A 0.64 0.64 0.0 0 1 891.34 1161.97
  L 891.29 1158.95
  Q 891.28 1158.33 890.70 1158.33
  L 879.63 1158.30
  A 0.59 0.59 0.0 0 0 879.05 1158.88
  L 879.00 1165.92
  Q 879.00 1166.58 878.35 1166.57
  L 875.81 1166.57
  Q 875.03 1166.57 875.03 1165.79
  L 875.00 1146.51
  Q 875.00 1145.76 874.26 1145.76
  L 863.03 1145.81
  A 0.54 0.53 -1.1 0 1 862.50 1145.29
  L 862.24 1138.06
  Q 862.22 1137.43 861.57 1137.44
  L 858.93 1137.49
  Q 858.33 1137.50 858.32 1138.12
  L 858.25 1145.52
  Q 858.25 1145.77 857.99 1145.77
  L 850.39 1145.76
  Q 850.01 1145.76 850.01 1145.37
  L 850.00 1133.74
  Q 850.00 1133.22 850.51 1133.23
  L 853.48 1133.27
  Q 853.98 1133.28 853.99 1132.77
  L 854.02 1125.64
  Q 854.03 1125.04 854.60 1125.03
  L 857.48 1124.98
  Q 858.27 1124.96 858.20 1124.16
  Q 857.92 1120.82 858.58 1117.19
  A 0.95 0.95 0.0 0 1 859.64 1116.41
  Q 862.39 1116.77 862.42 1114.49
  Q 862.44 1113.33 862.89 1112.84
  Q 863.20 1112.51 864.82 1112.41
  Q 866.17 1112.32 866.24 1110.93
  L 866.59 1104.56
  A 0.53 0.53 0.0 0 0 866.05 1104.01
  L 858.74 1104.00
  Q 858.23 1104.00 858.23 1103.49
  L 858.27 1092.29
  Q 858.28 1091.81 857.81 1091.66
  Q 857.09 1091.41 856.95 1091.02
  Q 863.75 1078.96 871.59 1067.42
  Q 873.08 1065.23 873.98 1062.89
  Q 874.92 1060.46 875.81 1058.08
  L 878.35 1058.19
  Q 878.98 1058.22 878.98 1057.60
  L 879.01 1054.49
  Q 879.01 1053.98 879.51 1053.98
  L 886.62 1053.98
  Q 887.49 1053.98 887.47 1053.12
  L 887.27 1042.01
  Q 887.27 1041.53 886.77 1041.53
  L 884.02 1041.53
  Q 883.26 1041.53 883.27 1040.78
  L 883.30 1034.06
  Q 883.30 1033.17 884.13 1033.19
  L 886.84 1033.28
  Q 887.42 1033.30 887.42 1032.68
  L 887.49 1025.41
  A 0.36 0.35 -0.1 0 1 887.84 1025.06
  L 895.23 1024.97
  A 0.47 0.47 0.0 0 0 895.70 1024.50
  L 895.82 1013.09
  Q 895.82 1012.48 896.43 1012.47
  L 898.82 1012.46
  Q 899.80 1012.45 899.85 1011.43
  L 899.94 1009.45
  Q 899.99 1008.48 898.99 1008.45
  L 896.26 1008.38
  Q 895.66 1008.36 895.64 1007.77
  L 895.55 1004.78
  Q 895.53 1004.16 894.91 1004.13
  L 891.93 1003.97
  Q 891.42 1003.94 891.42 1003.43
  L 891.31 979.91
  Q 891.30 978.89 892.41 978.93
  L 895.18 979.05
  A 0.70 0.67 0.0 0 1 895.85 979.70
  L 895.94 981.82
  Q 895.99 982.88 897.07 982.91
  L 902.48 983.05
  Q 903.55 983.08 903.68 982.03
  L 904.01 979.56
  Q 904.10 978.93 904.72 978.94
  L 907.20 978.99
  A 1.06 1.05 -1.5 0 1 908.23 979.96
  L 908.99 990.35
  Q 909.03 990.93 909.57 991.15
  Q 910.11 991.36 910.72 991.37
  Q 911.26 991.38 911.38 991.91
  Q 913.02 999.02 913.17 1003.05
  Q 913.19 1003.71 913.79 1003.85
  L 915.18 1004.20
  Q 915.70 1004.33 915.81 1004.91
  L 917.02 1011.58
  A 0.95 0.88 -4.0 0 0 917.92 1012.30
  L 924.43 1012.44
  A 0.63 0.61 -89.6 0 1 925.03 1013.07
  L 925.05 1016.00
  Q 925.05 1016.61 924.46 1016.62
  L 921.35 1016.64
  Q 920.83 1016.65 920.82 1017.18
  L 920.73 1024.04
  Q 920.71 1025.02 921.77 1025.02
  L 927.98 1025.00
  Q 928.93 1025.00 928.96 1024.06
  L 929.03 1021.08
  Q 929.05 1020.62 929.45 1020.63
  L 933.01 1020.69
  Q 933.34 1020.70 933.34 1021.01
  L 933.29 1028.04
  Q 933.29 1029.03 934.30 1029.04
  L 936.59 1029.05
  A 0.85 0.85 0.0 0 0 937.45 1028.20
  L 937.47 1021.28
  Q 937.48 1020.73 938.00 1020.71
  L 940.25 1020.62
  A 1.10 0.91 -1.1 0 0 941.31 1019.71
  L 941.32 1017.58
  Q 941.33 1016.90 940.26 1016.78
  L 938.30 1016.54
  A 0.79 0.78 86.5 0 1 937.63 1015.94
  Q 937.10 1013.72 938.42 1012.57
  Q 938.82 1012.22 939.35 1012.28
  Q 941.70 1012.56 941.49 1009.87
  A 1.34 1.32 85.9 0 1 942.72 1008.43
  L 949.14 1008.01
  A 0.90 0.85 88.7 0 0 949.94 1007.12
  L 950.03 1001.19
  Q 950.05 1000.11 951.12 1000.05
  L 952.87 999.96
  Q 953.89 999.90 953.97 1000.86
  L 954.18 1003.08
  A 1.06 1.00 -4.9 0 0 955.32 1003.99
  L 957.16 1003.84
  A 1.20 1.16 -3.1 0 0 958.26 1002.65
  L 958.22 1000.82
  Q 958.20 1000.27 958.72 1000.24
  L 965.75 999.88
  A 0.78 0.77 87.6 0 0 966.48 999.07
  L 966.13 988.41
  Q 966.11 987.72 965.45 987.66
  L 963.51 987.46
  Q 962.80 987.40 962.76 986.72
  L 962.34 979.88
  A 0.81 0.80 89.6 0 0 961.58 979.13
  L 958.91 978.99
  Q 958.11 978.96 958.11 978.16
  L 958.11 975.80
  Q 958.11 974.95 958.96 974.95
  L 965.88 974.92
  A 0.55 0.54 -0.4 0 0 966.43 974.37
  L 966.35 967.06
  Q 966.34 966.40 967.03 966.39
  L 970.27 966.37
  Q 970.93 966.36 970.92 967.03
  L 970.83 974.26
  A 0.67 0.67 0.0 0 0 971.50 974.94
  L 982.42 974.96
  Q 983.40 974.96 983.39 975.93
  L 983.37 978.06
  Q 983.36 978.97 982.45 979.01
  L 980.00 979.13
  Q 979.07 979.17 979.06 980.16
  L 979.01 986.47
  Q 979.01 987.49 979.94 987.45
  L 982.51 987.36
  Q 983.33 987.33 983.32 988.24
  L 983.26 995.18
  Q 983.26 995.86 982.57 995.85
  L 979.75 995.80
  Q 979.00 995.79 979.01 996.49
  L 979.05 999.22
  Q 979.06 999.90 979.73 999.93
  L 982.42 1000.02
  Q 982.90 1000.04 982.94 1000.55
  L 984.22 1015.41
  Q 984.26 1015.86 984.81 1016.05
  L 985.64 1016.32
  Q 986.10 1016.48 986.26 1016.87
  Q 987.74 1020.52 987.94 1021.81
  Q 988.20 1023.44 988.39 1023.97
  Q 988.58 1024.48 989.09 1024.67
  L 990.83 1025.31
  A 0.87 0.81 -85.3 0 1 991.35 1025.98
  L 991.68 1028.09
  Q 991.77 1028.63 992.35 1028.80
  L 994.09 1029.29
  A 1.01 0.84 2.9 0 1 994.76 1029.91
  L 996.60 1036.57
  Q 996.78 1037.21 997.34 1037.27
  L 998.34 1037.36
  Q 999.85 1037.51 999.90 1039.24
  Q 999.99 1042.02 1002.54 1041.45
  Q 1003.65 1041.20 1003.80 1040.08
  L 1004.57 1034.19
  Q 1004.64 1033.63 1005.21 1033.51
  L 1006.49 1033.24
  A 1.34 1.33 85.6 0 0 1007.54 1032.00
  L 1008.28 1017.45
  Q 1008.32 1016.54 1009.26 1016.53
  L 1020.25 1016.41
  Q 1020.65 1016.41 1020.66 1016.00
  L 1020.72 1009.23
  Q 1020.73 1008.18 1021.78 1008.17
  L 1024.01 1008.15
  Q 1024.92 1008.15 1024.94 1009.07
  L 1025.06 1020.10
  Q 1025.07 1020.71 1025.70 1020.71
  L 1032.64 1020.68
  Q 1033.22 1020.68 1033.21 1020.12
  L 1033.19 1009.47
  Q 1033.19 1008.09 1034.57 1008.12
  L 1036.81 1008.17
  Q 1037.45 1008.18 1037.55 1008.81
  L 1037.95 1011.52
  Q 1038.10 1012.52 1039.00 1012.47
  L 1039.90 1012.42
  Q 1041.05 1012.36 1041.12 1011.34
  Q 1041.46 1006.66 1040.83 1001.49
  A 1.52 1.49 -82.2 0 0 1039.94 1000.29
  L 1038.68 999.75
  Q 1038.21 999.54 1038.16 999.05
  Q 1037.77 994.43 1038.50 988.20
  Q 1038.56 987.66 1039.08 987.48
  L 1039.84 987.22
  A 1.54 1.54 0.0 0 0 1040.88 985.76
  Q 1040.86 978.74 1041.48 971.39
  Q 1041.55 970.59 1042.33 970.59
  L 1045.06 970.61
  A 0.91 0.89 -89.8 0 1 1045.94 971.52
  L 1045.95 982.41
  A 0.73 0.70 -89.9 0 0 1046.65 983.14
  L 1053.40 983.16
  A 0.54 0.53 87.0 0 1 1053.93 983.64
  L 1054.28 986.87
  Q 1054.34 987.41 1054.89 987.41
  L 1057.50 987.43
  Q 1058.01 987.44 1058.03 987.98
  L 1058.58 998.92
  A 1.03 1.01 -0.5 0 0 1059.58 999.88
  L 1065.51 1000.07
  Q 1066.57 1000.10 1066.58 1001.15
  L 1066.59 1002.93
  Q 1066.59 1003.75 1065.77 1003.90
  L 1063.41 1004.35
  Q 1062.88 1004.45 1062.89 1004.98
  L 1063.14 1015.65
  Q 1063.15 1016.16 1063.65 1016.25
  L 1065.37 1016.56
  Q 1066.01 1016.68 1066.06 1017.42
  L 1066.23 1019.70
  Q 1066.30 1020.59 1065.44 1020.69
  L 1063.46 1020.92
  Q 1062.87 1020.99 1062.86 1021.55
  L 1062.56 1032.53
  A 0.66 0.65 -89.6 0 0 1063.22 1033.21
  L 1069.74 1033.12
  Q 1070.86 1033.10 1070.86 1034.24
  L 1070.87 1040.49
  Q 1070.87 1041.58 1069.77 1041.57
  L 1067.25 1041.56
  Q 1066.52 1041.55 1066.52 1042.24
  L 1066.48 1049.24
  Q 1066.48 1049.97 1067.23 1049.98
  L 1074.36 1050.02
  Q 1074.95 1050.02 1074.96 1050.62
  L 1075.02 1053.30
  Q 1075.04 1054.03 1075.79 1054.02
  L 1077.99 1053.98
  Q 1078.91 1053.97 1078.96 1053.03
  L 1079.08 1050.45
  Q 1079.10 1049.98 1079.58 1049.99
  L 1082.72 1050.08
  Q 1083.28 1050.10 1083.28 1050.65
  L 1083.26 1057.77
  Q 1083.26 1058.29 1082.74 1058.29
  L 1079.69 1058.31
  A 0.71 0.71 0.0 0 0 1078.98 1059.03
  L 1079.02 1061.77
  Q 1079.03 1062.51 1079.74 1062.50
  L 1082.77 1062.47
  Q 1083.17 1062.47 1083.18 1062.95
  L 1083.44 1073.95
  Q 1083.46 1074.94 1084.44 1074.97
  L 1086.45 1075.04
  A 1.01 0.99 -0.3 0 0 1087.50 1074.00
  Q 1087.33 1070.12 1089.17 1070.65
  Q 1091.09 1071.21 1091.21 1069.26
  L 1091.58 1063.08
  Q 1091.62 1062.46 1092.18 1062.46
  L 1099.29 1062.44
  A 0.73 0.73 0.0 0 0 1100.02 1061.69
  L 1099.79 1050.79
  Q 1099.77 1050.17 1099.18 1050.11
  L 1096.66 1049.86
  A 1.00 0.96 5.2 0 1 1095.76 1048.83
  L 1096.26 1042.71
  A 1.27 1.17 -88.1 0 1 1097.40 1041.55
  C 1100.39 1041.48 1099.08 1038.33 1101.81 1038.05
  Q 1106.14 1037.60 1111.20 1036.53
  A 1.29 1.24 -72.8 0 0 1111.85 1036.17
  L 1115.25 1032.67
  A 2.58 2.50 71.3 0 0 1115.94 1031.21
  Q 1116.45 1027.12 1116.94 1021.77
  Q 1117.02 1020.86 1118.42 1020.71
  Q 1120.20 1020.53 1120.48 1022.28
  L 1121.35 1027.88
  Q 1121.44 1028.44 1121.97 1028.61
  L 1124.16 1029.32
  Q 1124.61 1029.47 1124.73 1030.00
  L 1125.24 1032.39
  Q 1125.36 1032.95 1125.88 1033.05
  L 1127.99 1033.42
  A 0.87 0.86 85.9 0 1 1128.67 1034.01
  L 1129.35 1036.11
  Q 1129.50 1036.59 1129.92 1036.85
  C 1131.06 1037.56 1132.57 1037.09 1132.94 1035.75
  Q 1132.97 1035.65 1133.53 1033.91
  A 0.83 0.83 0.0 0 1 1134.16 1033.35
  L 1136.08 1032.97
  A 1.02 1.02 0.0 0 0 1136.80 1032.42
  Q 1137.41 1031.19 1137.31 1029.80
  A 0.71 0.71 0.0 0 0 1136.68 1029.14
  L 1134.06 1028.84
  Q 1133.51 1028.77 1133.38 1028.24
  Q 1133.08 1026.95 1133.60 1025.78
  Q 1133.78 1025.37 1134.25 1025.26
  L 1136.60 1024.69
  Q 1137.12 1024.56 1137.17 1024.06
  L 1137.77 1017.21
  Q 1137.83 1016.52 1138.51 1016.51
  L 1145.18 1016.33
  Q 1145.67 1016.32 1145.67 1015.81
  L 1145.78 1004.46
  A 0.50 0.48 -89.1 0 1 1146.27 1003.96
  L 1148.98 1004.02
  A 0.98 0.97 -88.6 0 0 1149.97 1003.07
  L 1150.03 1001.02
  A 0.97 0.96 -88.9 0 0 1149.08 1000.02
  L 1146.29 1000.00
  A 0.49 0.47 88.1 0 1 1145.83 999.54
  L 1145.34 992.76
  A 1.18 1.16 0.3 0 0 1144.25 991.68
  L 1142.98 991.58
  Q 1142.18 991.51 1142.14 992.40
  L 1141.79 999.15
  Q 1141.77 999.67 1141.26 999.83
  Q 1139.77 1000.30 1138.02 999.83
  Q 1137.55 999.71 1137.49 999.24
  L 1137.21 996.86
  Q 1137.14 996.33 1136.69 996.14
  Q 1135.80 995.74 1134.62 995.85
  Q 1133.57 995.94 1133.35 994.92
  Q 1133.07 993.64 1133.29 992.49
  A 1.54 1.52 2.4 0 1 1134.64 991.27
  L 1136.52 991.07
  A 0.75 0.74 2.4 0 0 1137.17 990.47
  C 1137.38 989.39 1137.22 988.16 1135.94 987.80
  Q 1135.68 987.72 1134.39 987.46
  A 1.22 1.22 0.0 0 1 1133.41 986.23
  L 1133.58 980.02
  Q 1133.60 979.36 1134.24 979.20
  L 1136.34 978.64
  Q 1136.86 978.50 1136.94 977.99
  Q 1137.32 975.47 1137.88 972.21
  Q 1138.02 971.38 1138.51 970.93
  Q 1139.17 970.31 1140.00 970.38
  A 1.07 0.99 -86.2 0 0 1141.08 969.36
  L 1141.38 963.53
  Q 1141.42 962.89 1140.76 962.79
  L 1138.24 962.43
  A 0.83 0.82 1.7 0 1 1137.54 961.70
  L 1137.33 959.35
  Q 1137.23 958.13 1138.43 958.13
  L 1144.74 958.13
  Q 1145.85 958.14 1145.85 959.25
  L 1145.80 966.01
  Q 1145.80 966.47 1146.25 966.47
  L 1149.33 966.43
  Q 1149.97 966.42 1149.98 967.07
  L 1150.01 970.03
  Q 1150.02 970.74 1150.77 970.74
  L 1153.28 970.73
  A 0.72 0.67 -89.2 0 0 1153.95 970.02
  L 1154.05 966.97
  Q 1154.06 966.47 1154.53 966.47
  L 1161.77 966.48
  A 0.72 0.70 89.7 0 0 1162.47 965.75
  L 1162.40 958.82
  Q 1162.39 958.19 1163.02 958.19
  L 1166.03 958.20
  A 0.57 0.57 0.0 0 1 1166.61 958.78
  L 1166.47 970.27
  Q 1166.46 970.80 1165.97 970.79
  L 1163.33 970.72
  Q 1162.52 970.70 1162.52 971.57
  L 1162.49 978.20
  Q 1162.49 979.05 1163.40 979.05
  L 1170.27 979.02
  Q 1170.78 979.02 1170.78 979.52
  L 1170.79 987.01
  Q 1170.79 987.47 1171.26 987.47
  L 1174.49 987.48
  Q 1174.95 987.48 1174.96 987.02
  L 1175.04 983.73
  Q 1175.05 983.24 1175.54 983.24
  L 1178.49 983.24
  Q 1178.98 983.25 1178.98 983.74
  L 1179.01 995.29
  A 0.57 0.51 -88.8 0 1 1178.47 995.87
  L 1175.84 995.73
  Q 1174.99 995.69 1174.99 996.62
  L 1174.96 1003.16
  Q 1174.96 1004.08 1175.87 1004.07
  L 1182.77 1003.99
  Q 1183.29 1003.98 1183.28 1004.52
  L 1183.22 1007.73
  Q 1183.21 1008.26 1183.71 1008.25
  L 1186.67 1008.20
  Q 1187.53 1008.18 1187.53 1009.15
  L 1187.52 1015.67
  Q 1187.51 1016.61 1186.66 1016.57
  L 1183.78 1016.47
  Q 1183.26 1016.45 1183.26 1016.99
  L 1183.23 1028.48
  Q 1183.23 1028.98 1183.73 1028.98
  L 1191.03 1029.01
  A 0.52 0.49 1.1 0 1 1191.55 1029.52
  L 1191.45 1032.38
  Q 1191.42 1033.30 1192.30 1033.27
  L 1194.97 1033.19
  A 0.95 0.93 -4.8 0 0 1195.88 1032.13
  Q 1195.50 1029.40 1196.52 1029.41
  Z"
/>
<path fill="#000000" d="
  M 856.95 1091.02
  Q 857.09 1091.41 857.81 1091.66
  Q 858.28 1091.81 858.27 1092.29
  L 858.23 1103.49
  Q 858.23 1104.00 858.74 1104.00
  L 866.05 1104.01
  A 0.53 0.53 0.0 0 1 866.59 1104.56
  L 866.24 1110.93
  Q 866.17 1112.32 864.82 1112.41
  Q 863.20 1112.51 862.89 1112.84
  Q 862.44 1113.33 862.42 1114.49
  Q 862.39 1116.77 859.64 1116.41
  A 0.95 0.95 0.0 0 0 858.58 1117.19
  Q 857.92 1120.82 858.20 1124.16
  Q 858.27 1124.96 857.48 1124.98
  L 854.60 1125.03
  Q 854.03 1125.04 854.02 1125.64
  L 853.99 1132.77
  Q 853.98 1133.28 853.48 1133.27
  L 850.51 1133.23
  Q 850.00 1133.22 850.00 1133.74
  L 850.01 1145.37
  Q 850.01 1145.76 850.39 1145.76
  L 857.99 1145.77
  Q 858.25 1145.77 858.25 1145.52
  L 858.32 1138.12
  Q 858.33 1137.50 858.93 1137.49
  L 861.57 1137.44
  Q 862.22 1137.43 862.24 1138.06
  L 862.50 1145.29
  A 0.54 0.53 -1.1 0 0 863.03 1145.81
  L 874.26 1145.76
  Q 875.00 1145.76 875.00 1146.51
  L 875.03 1165.79
  Q 875.03 1166.57 875.81 1166.57
  L 878.35 1166.57
  Q 879.00 1166.58 879.00 1165.92
  L 879.05 1158.88
  A 0.59 0.59 0.0 0 1 879.63 1158.30
  L 890.70 1158.33
  Q 891.28 1158.33 891.29 1158.95
  L 891.34 1161.97
  A 0.64 0.64 0.0 0 0 891.88 1162.59
  Q 893.87 1162.93 895.08 1162.62
  A 0.97 0.97 0.0 0 0 895.75 1162.00
  Q 896.03 1161.20 895.87 1159.00
  Q 895.83 1158.42 895.26 1158.31
  Q 893.34 1157.91 892.46 1158.04
  Q 891.56 1158.18 891.56 1157.46
  L 891.54 1154.97
  A 0.80 0.76 -0.9 0 1 892.32 1154.21
  L 898.81 1154.05
  A 1.13 1.06 1.5 0 0 899.90 1153.07
  Q 900.36 1147.65 899.89 1142.34
  Q 899.82 1141.55 899.02 1141.48
  L 892.84 1140.91
  Q 892.38 1140.87 892.17 1140.46
  C 891.52 1139.19 892.29 1138.22 893.63 1138.07
  Q 894.89 1137.92 895.26 1137.81
  A 0.76 0.54 -9.9 0 0 895.82 1137.26
  L 896.04 1129.98
  Q 896.07 1129.04 897.04 1129.06
  L 898.67 1129.10
  Q 899.73 1129.12 899.89 1130.11
  L 900.23 1132.26
  Q 900.33 1132.85 900.91 1132.96
  Q 903.95 1133.58 907.40 1133.14
  Q 908.03 1133.06 908.13 1132.46
  L 908.49 1130.37
  A 1.57 1.56 -83.4 0 1 910.12 1129.07
  L 910.70 1129.10
  Q 912.11 1129.19 912.12 1130.56
  Q 912.13 1135.17 913.49 1140.24
  A 1.58 1.58 0.0 0 0 914.02 1141.06
  Q 915.76 1142.46 916.62 1144.47
  Q 916.82 1144.95 917.32 1145.11
  Q 920.06 1146.00 923.56 1145.87
  A 1.41 1.36 -89.8 0 1 924.97 1147.34
  L 924.52 1157.67
  A 0.68 0.66 -88.0 0 1 923.85 1158.32
  L 922.59 1158.29
  A 1.63 1.53 -86.3 0 0 921.02 1159.77
  L 920.44 1165.58
  Q 920.40 1166.07 919.92 1166.17
  L 917.86 1166.63
  Q 917.26 1166.77 916.99 1167.29
  Q 916.29 1168.67 916.66 1170.06
  A 0.72 0.71 -6.4 0 0 917.33 1170.59
  L 924.13 1170.83
  A 0.80 0.76 -89.4 0 1 924.87 1171.62
  L 925.09 1190.40
  Q 925.10 1191.60 926.29 1191.61
  L 928.03 1191.62
  A 0.98 0.94 2.7 0 0 929.00 1190.76
  L 929.24 1188.20
  A 0.62 0.59 -86.5 0 1 929.84 1187.63
  L 932.13 1187.70
  Q 932.86 1187.72 932.89 1188.39
  L 933.27 1195.15
  Q 933.30 1195.76 933.89 1195.79
  L 936.13 1195.92
  A 1.22 1.15 2.0 0 1 937.29 1197.09
  L 937.26 1198.91
  Q 937.25 1199.71 936.55 1199.79
  L 934.37 1200.02
  Q 932.82 1200.19 933.14 1201.86
  Q 933.58 1204.15 930.78 1203.99
  Q 929.16 1203.89 929.07 1205.38
  L 928.72 1211.43
  Q 928.68 1212.02 928.10 1212.25
  Q 927.12 1212.65 925.87 1212.32
  Q 925.38 1212.19 925.30 1211.65
  L 924.89 1208.77
  Q 924.82 1208.31 924.34 1208.25
  Q 922.66 1208.05 921.50 1208.72
  Q 921.03 1208.99 920.90 1209.51
  L 920.50 1211.10
  Q 920.38 1211.57 919.92 1211.67
  L 913.42 1213.08
  A 1.39 0.99 -89.6 0 0 912.59 1214.23
  C 912.50 1214.98 911.94 1215.90 910.90 1216.12
  Q 910.53 1216.20 909.36 1216.63
  Q 908.86 1216.82 908.72 1217.32
  Q 907.79 1220.56 908.27 1224.34
  Q 908.34 1224.95 908.96 1224.96
  L 915.87 1225.10
  A 0.68 0.66 1.2 0 1 916.53 1225.77
  L 916.11 1244.44
  A 1.26 1.14 -0.9 0 1 914.91 1245.56
  L 909.32 1245.83
  Q 908.13 1245.88 908.15 1247.07
  L 908.18 1248.74
  Q 908.20 1250.14 909.55 1250.03
  Q 912.22 1249.80 912.22 1250.78
  Q 912.22 1253.76 912.01 1256.58
  Q 911.97 1257.12 911.59 1257.49
  Q 910.82 1258.25 909.54 1258.42
  A 0.81 0.81 0.0 0 0 908.85 1259.11
  Q 908.02 1265.12 908.23 1274.07
  Q 908.25 1275.01 909.19 1275.01
  L 915.62 1275.01
  Q 916.55 1275.01 916.55 1274.55
  L 916.52 1271.45
  Q 916.52 1270.74 917.18 1270.74
  L 920.13 1270.74
  Q 920.74 1270.75 920.74 1271.37
  L 920.75 1278.50
  Q 920.75 1279.01 921.26 1279.01
  L 924.52 1278.97
  A 0.54 0.51 -89.9 0 1 925.04 1279.51
  L 924.99 1282.77
  Q 924.99 1283.27 924.48 1283.27
  L 916.99 1283.23
  Q 916.45 1283.23 916.46 1283.77
  L 916.48 1287.02
  Q 916.49 1287.53 917.01 1287.54
  L 920.30 1287.54
  Q 920.80 1287.55 920.79 1288.05
  L 920.72 1291.01
  Q 920.70 1291.47 920.25 1291.47
  L 917.02 1291.49
  Q 916.54 1291.49 916.54 1291.99
  L 916.55 1294.99
  L 904.06 1299.80
  L 903.97 1295.98
  Q 903.97 1295.75 903.74 1295.75
  L 900.43 1295.74
  Q 900.06 1295.73 900.06 1296.11
  L 900.09 1301.54
  Q 892.80 1303.80 890.97 1304.99
  Q 889.28 1306.09 887.52 1306.85
  L 887.57 1300.59
  A 0.56 0.50 -89.6 0 0 887.07 1300.02
  L 883.70 1300.00
  Q 883.17 1300.00 883.19 1300.49
  L 883.32 1303.31
  A 0.90 0.70 -1.0 0 1 882.41 1304.04
  L 875.90 1304.05
  Q 874.94 1304.05 874.95 1303.16
  L 875.01 1296.25
  Q 875.02 1295.75 874.50 1295.75
  L 867.00 1295.77
  Q 866.48 1295.77 866.48 1295.25
  L 866.48 1291.99
  Q 866.48 1291.50 866.00 1291.50
  L 858.73 1291.50
  Q 858.22 1291.50 858.23 1290.98
  L 858.30 1283.76
  Q 858.30 1283.22 857.76 1283.22
  L 854.51 1283.23
  A 0.51 0.50 -0.1 0 0 854.01 1283.74
  L 854.00 1290.99
  Q 854.00 1291.50 853.52 1291.50
  L 850.63 1291.46
  Q 850.02 1291.45 850.01 1292.09
  L 849.99 1295.28
  Q 849.99 1295.81 849.48 1295.79
  L 846.62 1295.68
  Q 845.75 1295.65 845.74 1296.55
  L 845.73 1303.20
  Q 845.72 1304.04 846.58 1304.03
  L 849.51 1303.97
  Q 849.99 1303.96 849.99 1304.47
  L 849.98 1310.98
  Q 834.07 1311.34 822.61 1301.52
  Q 820.07 1299.34 819.04 1296.65
  Q 816.22 1289.20 816.29 1281.50
  Q 816.36 1273.54 817.73 1266.74
  Q 819.71 1256.86 820.85 1250.32
  Q 822.63 1240.03 827.20 1225.43
  Q 833.60 1204.96 836.29 1194.77
  Q 840.87 1177.39 841.23 1162.02
  Q 841.48 1151.19 841.85 1142.99
  Q 842.36 1131.85 844.01 1124.10
  Q 847.69 1106.69 856.95 1091.02
  Z"
/>
<path fill="#31861d" d="
  M 887.52 1306.85
  Q 882.12 1308.90 876.30 1309.78
  Q 867.31 1311.13 858.16 1311.16
  L 858.20 1308.85
  Q 858.21 1308.25 857.70 1308.25
  L 854.64 1308.21
  Q 854.21 1308.20 854.11 1308.70
  Q 853.88 1309.87 854.09 1311.14
  Q 851.82 1311.53 849.98 1310.98
  L 849.99 1304.47
  Q 849.99 1303.96 849.51 1303.97
  L 846.58 1304.03
  Q 845.72 1304.04 845.73 1303.20
  L 845.74 1296.55
  Q 845.75 1295.65 846.62 1295.68
  L 849.48 1295.79
  Q 849.99 1295.81 849.99 1295.28
  L 850.01 1292.09
  Q 850.02 1291.45 850.63 1291.46
  L 853.52 1291.50
  Q 854.00 1291.50 854.00 1290.99
  L 854.01 1283.74
  A 0.51 0.50 -0.1 0 1 854.51 1283.23
  L 857.76 1283.22
  Q 858.30 1283.22 858.30 1283.76
  L 858.23 1290.98
  Q 858.22 1291.50 858.73 1291.50
  L 866.00 1291.50
  Q 866.48 1291.50 866.48 1291.99
  L 866.48 1295.25
  Q 866.48 1295.77 867.00 1295.77
  L 874.50 1295.75
  Q 875.02 1295.75 875.01 1296.25
  L 874.95 1303.16
  Q 874.94 1304.05 875.90 1304.05
  L 882.41 1304.04
  A 0.90 0.70 -1.0 0 0 883.32 1303.31
  L 883.19 1300.49
  Q 883.17 1300.00 883.70 1300.00
  L 887.07 1300.02
  A 0.56 0.50 -89.6 0 1 887.57 1300.59
  L 887.52 1306.85
  Z"
/>
<path fill="#31861d" d="
  M 904.06 1299.80
  L 900.09 1301.54
  L 900.06 1296.11
  Q 900.06 1295.73 900.43 1295.74
  L 903.74 1295.75
  Q 903.97 1295.75 903.97 1295.98
  L 904.06 1299.80
  Z"
/>
<path fill="#000000" d="
  M 858.16 1311.16
  L 854.09 1311.14
  Q 853.88 1309.87 854.11 1308.70
  Q 854.21 1308.20 854.64 1308.21
  L 857.70 1308.25
  Q 858.21 1308.25 858.20 1308.85
  L 858.16 1311.16
  Z"
/>
</svg>
