<?xml version="1.0" encoding="UTF-8" standalone="no"?>
<!DOCTYPE svg PUBLIC "-//W3C//DTD SVG 1.1//EN" "http://www.w3.org/Graphics/SVG/1.1/DTD/svg11.dtd">
<svg xmlns="http://www.w3.org/2000/svg" version="1.1" viewBox="0.00 0.00 1592.00 1592.00" width="1592.00" height="1592.00">
<g stroke-width="2.00" fill="none" stroke-linecap="butt">
<path stroke="#7d5059" vector-effect="non-scaling-stroke" d="
  M 1245.97 463.43
  L 1245.59 466.57"
/>
<path stroke="#7ea3b5" vector-effect="non-scaling-stroke" d="
  M 1245.59 466.57
  L 1242.11 466.56
  Q 1241.56 466.56 1241.57 467.12
  L 1241.65 470.60"
/>
<path stroke="#7d5059" vector-effect="non-scaling-stroke" d="
  M 1241.65 470.60
  L 1241.53 474.50
  Q 1241.52 474.99 1241.98 475.00
  L 1245.27 475.03
  Q 1245.75 475.03 1245.76 475.52
  L 1245.79 478.34
  Q 1245.80 478.98 1245.18 478.99
  L 1241.93 479.02
  Q 1241.46 479.02 1241.47 479.54
  L 1241.61 490.81
  Q 1241.61 491.34 1242.16 491.37
  L 1245.62 491.52"
/>
<path stroke="#7ea3b5" vector-effect="non-scaling-stroke" d="
  M 1245.62 491.52
  Q 1245.95 493.40 1245.62 495.04
  Q 1245.52 495.55 1245.00 495.59
  L 1241.58 495.87"
/>
<path stroke="#7d5059" vector-effect="non-scaling-stroke" d="
  M 1241.58 495.87
  L 1237.94 495.71
  Q 1237.45 495.69 1237.45 495.21
  L 1237.46 491.98
  Q 1237.47 491.51 1236.98 491.51
  L 1225.50 491.50
  Q 1225.00 491.50 1225.00 492.00
  L 1225.00 503.49
  Q 1225.00 503.99 1224.49 503.99
  L 1216.98 504.01
  Q 1216.48 504.01 1216.48 504.51
  L 1216.51 512.02
  Q 1216.51 512.56 1215.99 512.54
  L 1212.97 512.46
  A 0.46 0.41 -89.5 0 0 1212.55 512.92
  L 1212.57 516.54"
/>
<path stroke="#7ea3b5" vector-effect="non-scaling-stroke" d="
  M 1212.57 516.54
  L 1212.50 520.05
  Q 1212.49 520.60 1213.03 520.61
  L 1216.43 520.68"
/>
<path stroke="#7d5059" vector-effect="non-scaling-stroke" d="
  M 1216.43 520.68
  L 1216.45 525.11"
/>
<path stroke="#7ea3b5" vector-effect="non-scaling-stroke" d="
  M 1216.45 525.11
  L 1212.70 525.16"
/>
<path stroke="#7d5059" vector-effect="non-scaling-stroke" d="
  M 1212.70 525.16
  L 1208.68 524.95
  Q 1208.20 524.93 1208.20 524.53
  L 1208.26 521.20
  Q 1208.26 520.75 1207.76 520.76
  L 1204.53 520.78
  Q 1204.07 520.79 1204.05 520.29
  L 1203.62 503.42"
/>
<path stroke="#01545d" vector-effect="non-scaling-stroke" d="
  M 1247.72 487.47
  Q 1246.83 487.18 1246.28 487.55
  Q 1245.86 487.84 1245.81 488.68
  Q 1245.72 490.12 1245.62 491.52"
/>
<path stroke="#01545d" vector-effect="non-scaling-stroke" d="
  M 1241.65 470.60
  L 1245.08 470.68
  Q 1245.62 470.69 1245.69 470.16
  Q 1245.94 468.33 1245.59 466.57"
/>
<path stroke="#01545d" vector-effect="non-scaling-stroke" d="
  M 1247.77 495.82
  Q 1245.16 494.93 1245.83 498.90
  Q 1246.01 499.96 1244.70 499.97
  L 1242.16 499.99
  Q 1241.44 499.99 1241.47 498.96
  L 1241.58 495.87"
/>
<path stroke="#7c4e57" vector-effect="non-scaling-stroke" d="
  M 1196.63 1029.01
  Q 1195.38 1029.21 1195.83 1032.21
  Q 1195.98 1033.20 1194.84 1033.21
  L 1188.23 1033.27
  Q 1187.40 1033.28 1187.43 1032.39
  L 1187.55 1029.53
  Q 1187.57 1029.01 1187.02 1029.01
  L 1179.50 1029.02
  Q 1178.99 1029.02 1178.99 1028.51
  L 1179.01 1016.99
  Q 1179.01 1016.49 1179.53 1016.50
  L 1182.38 1016.53
  Q 1183.27 1016.54 1183.27 1015.65
  L 1183.27 1009.01
  Q 1183.27 1008.21 1182.52 1008.21
  L 1175.50 1008.27
  Q 1174.99 1008.28 1174.99 1007.75
  L 1175.01 1000.49
  Q 1175.01 999.95 1174.50 999.96
  L 1171.25 1000.02
  Q 1170.75 1000.03 1170.75 999.51
  L 1170.76 987.99
  Q 1170.76 987.50 1171.26 987.50
  L 1174.36 987.52
  Q 1175.00 987.53 1175.00 986.90
  L 1175.02 980.02
  Q 1175.02 978.95 1174.06 978.96
  L 1171.24 978.99
  Q 1170.73 978.99 1170.73 979.47
  L 1170.74 982.79
  A 0.49 0.45 -0.0 0 1 1170.25 983.24
  L 1166.99 983.23
  Q 1166.47 983.23 1166.48 982.74
  L 1166.53 979.52
  Q 1166.54 979.01 1166.02 979.01
  L 1158.54 978.99
  A 0.32 0.32 0.0 0 1 1158.21 978.67
  L 1158.25 958.08"
/>
<path stroke="#01545d" vector-effect="non-scaling-stroke" d="
  M 1158.25 958.08
  L 1158.21 954.44
  A 0.43 0.43 0.0 0 0 1157.79 954.01
  L 1154.48 954.00
  Q 1154.06 954.00 1154.06 954.42
  L 1154.11 958.11"
/>
<path stroke="#7c4e57" vector-effect="non-scaling-stroke" d="
  M 1154.11 958.11
  L 1153.95 966.02
  Q 1153.94 966.49 1153.46 966.49
  L 1146.27 966.48
  Q 1145.74 966.48 1145.74 966.98
  L 1145.73 970.51
  A 0.24 0.23 0.1 0 1 1145.49 970.74
  L 1141.99 970.74
  Q 1141.51 970.74 1141.51 970.25
  L 1141.52 967.03
  Q 1141.52 966.55 1141.04 966.53
  L 1137.42 966.39"
/>
<path stroke="#01545d" vector-effect="non-scaling-stroke" d="
  M 1137.42 966.39
  L 1137.59 963.18
  A 0.64 0.62 -87.9 0 0 1136.99 962.50
  L 1134.01 962.45
  Q 1133.21 962.43 1133.22 963.30
  L 1133.27 966.33"
/>
<path stroke="#7c4e57" vector-effect="non-scaling-stroke" d="
  M 1133.27 966.33
  L 1133.23 982.73
  Q 1133.22 983.26 1132.74 983.25
  L 1129.61 983.19
  Q 1129.05 983.18 1129.07 983.81
  L 1129.18 987.66"
/>
<path stroke="#01545d" vector-effect="non-scaling-stroke" d="
  M 1129.18 987.66
  Q 1128.78 989.37 1129.18 990.95
  Q 1129.31 991.47 1129.85 991.44
  L 1133.12 991.29"
/>
<path stroke="#7c4e57" vector-effect="non-scaling-stroke" d="
  M 1133.12 991.29
  L 1133.35 995.84"
/>
<path stroke="#01545d" vector-effect="non-scaling-stroke" d="
  M 1133.35 995.84
  L 1133.36 999.61
  A 0.37 0.35 0.2 0 0 1133.73 999.96
  L 1137.12 999.99
  Q 1137.47 999.99 1137.47 999.64
  L 1137.41 995.95"
/>
<path stroke="#7c4e57" vector-effect="non-scaling-stroke" d="
  M 1137.41 995.95
  L 1137.68 991.89
  Q 1137.70 991.58 1138.02 991.57
  L 1141.09 991.53
  Q 1141.41 991.52 1141.42 991.84
  L 1141.52 1015.98
  Q 1141.52 1016.49 1141.05 1016.49
  L 1133.72 1016.48
  Q 1133.25 1016.48 1133.25 1016.98
  L 1133.25 1020.27
  Q 1133.25 1020.77 1132.74 1020.75
  L 1129.57 1020.67
  A 0.52 0.52 0.0 0 0 1129.04 1021.19
  L 1128.98 1036.85
  Q 1128.98 1037.42 1128.39 1037.43
  L 1125.77 1037.46
  Q 1125.09 1037.47 1125.06 1036.79
  L 1124.93 1033.84
  Q 1124.90 1033.27 1124.34 1033.26
  L 1121.25 1033.22
  Q 1120.79 1033.21 1120.79 1032.75
  L 1120.79 1025.52
  Q 1120.79 1024.97 1120.26 1024.98
  L 1113.04 1025.01
  Q 1112.55 1025.01 1112.53 1025.48
  L 1112.27 1032.73
  Q 1112.25 1033.22 1111.79 1033.22
  L 1108.78 1033.26
  Q 1108.32 1033.27 1108.30 1033.75
  L 1108.20 1036.62
  Q 1108.18 1037.17 1107.64 1037.19
  L 1096.28 1037.62
  Q 1095.70 1037.64 1095.69 1038.19
  L 1095.64 1040.80
  A 0.65 0.61 -88.8 0 1 1095.02 1041.44
  L 1092.70 1041.39
  Q 1091.61 1041.36 1091.58 1042.51
  L 1091.41 1048.86
  Q 1091.38 1050.12 1092.55 1050.08
  L 1095.14 1050.01
  Q 1095.71 1050.00 1095.70 1050.63
  L 1095.69 1062.02
  A 0.47 0.46 -89.8 0 1 1095.23 1062.49
  L 1088.01 1062.46
  Q 1087.47 1062.45 1087.47 1062.97
  L 1087.44 1070.17
  Q 1087.44 1070.77 1086.84 1070.76
  L 1083.79 1070.69
  A 0.53 0.52 0.6 0 0 1083.25 1071.21
  L 1083.26 1074.02
  Q 1083.26 1074.96 1082.27 1074.98
  L 1080.03 1075.02
  A 1.01 1.00 -0.5 0 1 1079.00 1074.02
  L 1079.00 1062.97
  Q 1079.00 1062.43 1078.47 1062.45
  L 1075.52 1062.52
  Q 1075.02 1062.54 1075.02 1062.02
  L 1074.99 1054.50
  Q 1074.99 1054.00 1074.49 1054.00
  L 1071.23 1053.96
  Q 1070.74 1053.95 1070.75 1053.48
  L 1070.81 1050.63
  A 0.65 0.62 0.6 0 0 1070.17 1049.99
  L 1062.99 1050.00
  Q 1062.50 1050.00 1062.50 1049.50
  L 1062.51 1038.01
  Q 1062.51 1037.54 1062.98 1037.54
  L 1065.98 1037.55
  Q 1066.52 1037.55 1066.52 1037.02
  L 1066.52 1033.73
  Q 1066.52 1033.19 1065.98 1033.19
  L 1058.75 1033.24
  Q 1058.27 1033.24 1058.27 1032.76
  L 1058.26 1021.27
  A 0.49 0.46 89.8 0 1 1058.71 1020.78
  L 1062.00 1020.77
  Q 1062.50 1020.76 1062.51 1020.26
  L 1062.53 1016.99
  Q 1062.53 1016.45 1061.99 1016.45
  L 1058.71 1016.46
  Q 1058.20 1016.47 1058.22 1015.96
  L 1058.28 1013.03
  Q 1058.30 1012.52 1057.78 1012.52
  L 1054.88 1012.51
  Q 1053.98 1012.50 1053.99 1011.69
  L 1054.01 1004.82
  Q 1054.01 1003.97 1054.83 1003.98
  L 1057.66 1004.00
  Q 1058.30 1004.00 1058.30 1003.35
  L 1058.31 1000.69
  Q 1058.31 1000.05 1057.70 1000.03
  L 1054.62 999.95
  Q 1054.05 999.94 1054.04 999.37
  L 1053.97 996.20
  Q 1053.96 995.68 1053.46 995.69
  L 1050.73 995.74
  Q 1050.00 995.75 1050.00 995.00
  L 1050.03 984.01
  A 0.82 0.80 0.1 0 0 1049.21 983.20
  L 1037.45 983.18"
/>
<path stroke="#01545d" vector-effect="non-scaling-stroke" d="
  M 1037.45 983.18
  L 1037.48 975.30
  Q 1037.49 975.03 1037.20 975.03
  L 1033.57 975.02
  A 0.32 0.31 90.0 0 0 1033.25 975.34
  L 1033.28 983.11"
/>
<path stroke="#7c4e57" vector-effect="non-scaling-stroke" d="
  M 1033.28 983.11
  L 1033.19 987.01
  Q 1033.17 987.53 1032.72 987.51
  L 1029.85 987.42
  Q 1029.00 987.39 1028.99 988.30
  L 1028.96 994.83
  Q 1028.95 995.78 1030.00 995.78
  L 1036.51 995.77
  Q 1037.51 995.77 1037.51 996.77
  L 1037.51 1003.13
  Q 1037.52 1004.07 1036.70 1004.05
  L 1033.73 1003.98
  Q 1033.22 1003.97 1033.22 1004.52
  L 1033.27 1012.00
  Q 1033.27 1012.53 1032.77 1012.52
  L 1029.52 1012.45
  Q 1029.03 1012.44 1029.02 1012.96
  L 1029.00 1016.05
  A 0.50 0.50 0.0 0 1 1028.48 1016.55
  L 1025.52 1016.44
  A 0.50 0.48 -88.8 0 0 1025.02 1016.93
  L 1024.99 1020.29
  Q 1024.99 1020.78 1024.48 1020.78
  L 1021.24 1020.74
  Q 1020.73 1020.73 1020.74 1020.23
  L 1020.76 1016.99
  Q 1020.76 1016.46 1020.24 1016.47
  L 1017.03 1016.53
  A 0.49 0.49 0.0 0 1 1016.52 1016.04
  L 1016.51 1012.74
  Q 1016.51 1012.46 1016.25 1012.46
  L 1012.74 1012.47
  Q 1012.44 1012.47 1012.45 1012.76
  L 1012.51 1020.25
  Q 1012.51 1020.77 1012.00 1020.76
  L 1000.90 1020.68
  Q 999.98 1020.67 999.98 1021.57
  L 999.97 1028.13
  Q 999.96 1029.10 1000.85 1029.07
  L 1003.20 1028.99
  Q 1004.01 1028.96 1004.01 1029.91
  L 1004.02 1036.76
  A 0.75 0.71 -89.8 0 1 1003.30 1037.51
  L 996.29 1037.46
  Q 995.76 1037.45 995.76 1037.99
  L 995.74 1045.25
  A 0.48 0.48 0.0 0 1 995.26 1045.73
  L 992.04 1045.79
  Q 991.54 1045.80 991.54 1045.29
  L 991.52 1029.52
  Q 991.52 1029.00 991.01 1029.00
  L 979.98 1029.02
  Q 978.97 1029.03 978.98 1028.08
  L 978.99 1021.55
  Q 978.99 1020.71 979.83 1020.72
  L 982.76 1020.78
  Q 983.28 1020.79 983.28 1020.24
  L 983.29 1017.02
  Q 983.29 1016.49 982.76 1016.49
  L 975.63 1016.49
  Q 975.03 1016.49 975.06 1015.86
  L 975.40 1008.17"
/>
<path stroke="#7e515a" vector-effect="non-scaling-stroke" d="
  M 975.40 1008.17
  L 978.21 1008.31
  Q 978.98 1008.35 978.98 1007.58
  L 979.00 1004.81
  Q 979.00 1004.12 978.31 1004.09
  L 975.58 1003.96
  Q 975.01 1003.94 975.01 1003.34
  L 974.99 991.99
  Q 974.99 991.46 974.50 991.47
  L 971.24 991.52
  Q 970.75 991.52 970.74 991.00
  L 970.64 978.97"
/>
<path stroke="#01545d" vector-effect="non-scaling-stroke" d="
  M 970.64 978.97
  Q 970.94 977.22 970.62 975.66
  Q 970.51 975.13 969.98 975.13
  L 966.75 975.08"
/>
<path stroke="#7e515a" vector-effect="non-scaling-stroke" d="
  M 966.75 975.08
  L 962.55 975.15
  Q 962.30 975.15 962.37 975.39
  Q 962.41 975.54 962.38 975.73"
/>
<path stroke="#01545d" vector-effect="non-scaling-stroke" d="
  M 962.38 975.73
  Q 962.38 975.48 962.27 975.29
  Q 962.17 975.12 961.90 975.07
  Q 960.23 974.71 958.48 975.16"
/>
<path stroke="#7e515a" vector-effect="non-scaling-stroke" d="
  M 958.48 975.16
  Q 956.55 974.81 954.59 975.23
  Q 954.03 975.35 954.03 975.90
  L 954.06 987.06
  Q 954.06 987.57 954.56 987.56
  L 957.73 987.49
  Q 958.21 987.48 958.22 987.98
  L 958.33 1003.47"
/>
<path stroke="#7c4e57" vector-effect="non-scaling-stroke" d="
  M 958.33 1003.47
  L 950.63 1004.17
  Q 950.01 1004.23 950.00 1004.81
  L 949.96 1007.54
  A 0.69 0.65 0.1 0 1 949.27 1008.18
  L 941.97 1008.26
  Q 941.45 1008.27 941.45 1008.78
  L 941.50 1011.89
  A 0.60 0.54 -0.6 0 1 940.90 1012.44
  L 933.76 1012.49
  Q 933.24 1012.50 933.24 1012.97
  L 933.24 1016.03
  Q 933.25 1016.51 932.75 1016.50
  L 929.51 1016.45
  Q 929.01 1016.45 929.01 1016.97
  L 929.00 1020.26
  Q 929.00 1020.81 929.52 1020.79
  L 932.40 1020.72
  Q 933.26 1020.69 933.26 1021.64
  L 933.25 1028.16
  Q 933.25 1029.08 932.43 1029.06
  L 929.53 1028.97
  Q 929.01 1028.96 929.01 1029.49
  L 928.99 1037.00
  Q 928.99 1037.49 928.51 1037.49
  L 925.50 1037.48
  Q 925.00 1037.48 925.00 1037.00
  L 925.03 1029.97
  Q 925.04 1028.95 924.08 1028.95
  L 917.29 1028.96
  Q 916.38 1028.96 916.40 1029.84
  L 916.46 1032.75
  Q 916.47 1033.21 915.98 1033.22
  L 913.00 1033.23
  A 0.48 0.48 0.0 0 1 912.53 1032.76
  L 912.51 1025.52
  A 0.52 0.48 -89.9 0 0 912.03 1025.00
  L 908.73 1024.98
  Q 908.26 1024.98 908.26 1024.49
  L 908.29 1013.03
  Q 908.29 1012.54 907.79 1012.53
  L 899.96 1012.39"
/>
<path stroke="#7e515a" vector-effect="non-scaling-stroke" d="
  M 899.96 1012.39
  L 900.10 1008.03"
/>
<path stroke="#01545d" vector-effect="non-scaling-stroke" d="
  M 900.10 1008.03
  L 903.09 1008.30
  Q 903.98 1008.38 903.99 1007.49
  L 904.02 1000.80
  Q 904.03 999.92 903.15 999.96
  L 900.16 1000.08"
/>
<path stroke="#7e515a" vector-effect="non-scaling-stroke" d="
  M 900.16 1000.08
  L 896.34 999.93
  Q 895.83 999.91 895.82 999.40
  L 895.69 995.57"
/>
<path stroke="#01545d" vector-effect="non-scaling-stroke" d="
  M 895.69 995.57
  L 895.66 992.04
  Q 895.65 991.45 895.09 991.46
  L 892.10 991.50
  Q 891.52 991.51 891.54 992.15
  L 891.67 995.68"
/>
<path stroke="#7e515a" vector-effect="non-scaling-stroke" d="
  M 891.67 995.68
  L 887.95 995.79
  Q 887.49 995.81 887.49 996.04
  L 887.53 999.55
  Q 887.53 999.93 886.93 999.94
  L 883.20 999.98"
/>
<path stroke="#01545d" vector-effect="non-scaling-stroke" d="
  M 883.20 999.98
  L 883.21 996.25
  Q 883.21 995.76 882.75 995.76
  L 875.52 995.74
  Q 875.01 995.74 875.01 996.23
  L 874.99 999.62
  Q 874.99 1000.03 875.39 1000.02
  L 878.53 999.99
  Q 879.03 999.98 879.03 1000.51
  L 879.00 1016.02
  Q 879.00 1016.53 879.53 1016.52
  L 882.76 1016.50
  Q 883.28 1016.50 883.29 1015.94
  L 883.31 1012.50"
/>
<path stroke="#7e515a" vector-effect="non-scaling-stroke" d="
  M 883.31 1012.50
  L 886.87 1012.56
  Q 887.39 1012.57 887.40 1013.09
  L 887.51 1036.01"
/>
<path stroke="#7c4e57" vector-effect="non-scaling-stroke" d="
  M 887.51 1036.01
  Q 887.59 1036.54 887.50 1036.96
  Q 887.39 1037.51 886.83 1037.50
  L 879.56 1037.48
  Q 879.09 1037.48 879.07 1037.95
  L 878.82 1045.93"
/>
<path stroke="#01545d" vector-effect="non-scaling-stroke" d="
  M 878.82 1045.93
  Q 877.71 1045.41 876.58 1045.83"
/>
<path stroke="#01545d" vector-effect="non-scaling-stroke" d="
  M 1212.70 525.16
  L 1212.56 528.41
  Q 1212.53 529.03 1213.12 529.03
  L 1215.88 528.99
  A 0.56 0.52 -89.8 0 0 1216.40 528.44
  L 1216.45 525.11"
/>
<path stroke="#01545d" vector-effect="non-scaling-stroke" d="
  M 1216.43 520.68
  L 1216.47 517.09
  Q 1216.48 516.56 1215.94 516.55
  L 1212.57 516.54"
/>
<path stroke="#7fa4b6" vector-effect="non-scaling-stroke" d="
  M 900.16 1000.08
  L 900.10 1008.03"
/>
<path stroke="#7fa4b6" vector-effect="non-scaling-stroke" d="
  M 883.31 1012.50
  L 883.20 999.98"
/>
<path stroke="#7c4e57" vector-effect="non-scaling-stroke" d="
  M 916.41 1295.02
  L 916.50 1287.97
  Q 916.51 1287.45 917.00 1287.46
  L 920.25 1287.51
  Q 920.71 1287.52 920.72 1287.02
  L 920.78 1283.76
  Q 920.79 1283.23 920.26 1283.24
  L 917.01 1283.28
  Q 916.48 1283.29 916.48 1282.76
  L 916.52 1275.75
  Q 916.53 1274.99 915.85 1274.99
  L 913.16 1274.99
  Q 912.43 1274.99 912.46 1275.75
  L 912.57 1278.38
  A 0.67 0.60 -1.2 0 1 911.90 1279.01
  L 908.74 1279.03
  Q 908.19 1279.03 908.19 1278.48
  L 908.27 1250.68
  A 0.63 0.57 88.7 0 1 908.80 1250.05
  L 911.86 1249.88
  A 0.61 0.60 -1.8 0 0 912.44 1249.28
  L 912.42 1246.40
  A 0.69 0.69 0.0 0 1 913.05 1245.71
  L 915.45 1245.52
  Q 915.96 1245.48 916.08 1244.98
  Q 916.42 1243.48 915.72 1242.46
  A 1.42 1.42 0.0 0 0 914.86 1241.88
  L 913.48 1241.57
  Q 912.81 1241.42 912.74 1240.74
  Q 912.16 1235.61 912.42 1229.54
  Q 912.44 1229.05 911.96 1229.05
  L 908.97 1229.02
  A 0.80 0.74 0.4 0 1 908.18 1228.28
  L 908.21 1221.57
  Q 908.21 1220.68 909.09 1220.68
  L 911.76 1220.67
  Q 912.44 1220.67 912.43 1219.98
  L 912.42 1217.15
  Q 912.42 1216.52 913.07 1216.52
  L 924.53 1216.43
  Q 924.97 1216.43 924.98 1215.98
  L 925.03 1208.70
  Q 925.04 1208.19 925.55 1208.21
  L 928.25 1208.28
  Q 928.87 1208.30 928.90 1207.70
  L 929.07 1204.58
  Q 929.10 1204.02 929.67 1204.01
  L 932.52 1203.96
  Q 933.23 1203.94 933.24 1203.25
  L 933.26 1200.68
  A 0.63 0.57 -89.2 0 0 932.70 1200.04
  L 929.61 1199.98
  Q 929.01 1199.97 929.01 1199.36
  L 928.98 1192.00
  Q 928.98 1191.51 928.50 1191.51
  L 921.39 1191.53
  Q 920.75 1191.53 920.75 1190.89
  L 920.73 1175.51
  Q 920.73 1175.01 920.27 1175.02
  L 917.19 1175.04
  A 0.75 0.71 -89.7 0 1 916.48 1174.28
  L 916.60 1167.20
  Q 916.61 1166.35 917.46 1166.38
  L 920.05 1166.48
  Q 920.54 1166.50 920.55 1165.97
  L 920.75 1158.73
  Q 920.77 1158.20 921.28 1158.21
  L 924.44 1158.27
  Q 925.00 1158.28 925.00 1157.65
  L 925.00 1154.78
  A 0.77 0.70 -89.6 0 0 924.31 1154.01
  L 921.30 1153.97
  Q 920.64 1153.95 920.67 1153.29
  L 920.78 1150.75
  Q 920.81 1150.14 920.20 1150.12
  L 913.02 1149.89
  A 0.62 0.60 0.8 0 1 912.42 1149.29
  L 912.40 1146.52
  Q 912.39 1145.92 911.80 1145.89
  L 908.98 1145.76
  A 0.55 0.53 89.6 0 1 908.48 1145.24
  L 908.08 1138.28
  A 0.60 0.60 0.0 0 0 907.54 1137.71
  Q 901.33 1137.14 895.99 1138.79"
/>
<path stroke="#f99eb0" vector-effect="non-scaling-stroke" d="
  M 895.99 1138.79
  Q 887.83 1130.72 883.31 1124.74
  C 875.84 1114.88 874.11 1103.80 876.82 1091.67
  Q 879.48 1079.79 880.64 1074.28
  C 882.09 1067.42 880.92 1060.87 879.00 1053.81"
/>
<path stroke="#7c4e57" vector-effect="non-scaling-stroke" d="
  M 879.00 1053.81
  L 878.99 1049.63"
/>
<path stroke="#7da2b4" vector-effect="non-scaling-stroke" d="
  M 878.99 1049.63
  L 878.82 1045.93"
/>
<path stroke="#fa9fb1" vector-effect="non-scaling-stroke" d="
  M 887.51 1036.01
  Q 893.12 1023.64 899.96 1012.39"
/>
<path stroke="#fa9fb1" vector-effect="non-scaling-stroke" d="
  M 958.33 1003.47
  L 975.40 1008.17"
/>
<path stroke="#7da2b4" vector-effect="non-scaling-stroke" d="
  M 1033.28 983.11
  L 1037.45 983.18"
/>
<path stroke="#7da2b4" vector-effect="non-scaling-stroke" d="
  M 1137.41 995.95
  L 1133.35 995.84"
/>
<path stroke="#7da2b4" vector-effect="non-scaling-stroke" d="
  M 1133.12 991.29
  Q 1133.42 989.62 1133.09 988.06
  Q 1132.98 987.54 1132.44 987.56
  L 1129.18 987.66"
/>
<path stroke="#7da2b4" vector-effect="non-scaling-stroke" d="
  M 1133.27 966.33
  L 1137.42 966.39"
/>
<path stroke="#7da2b4" vector-effect="non-scaling-stroke" d="
  M 1158.25 958.08
  L 1154.11 958.11"
/>
<path stroke="#01545d" vector-effect="non-scaling-stroke" d="
  M 878.99 1049.63
  Q 878.15 1049.97 877.18 1050.00"
/>
<path stroke="#7fa4b6" vector-effect="non-scaling-stroke" d="
  M 895.69 995.57
  L 891.67 995.68"
/>
<path stroke="#7fa4b6" vector-effect="non-scaling-stroke" d="
  M 958.48 975.16
  Q 957.99 976.66 958.34 978.30
  Q 958.44 978.80 958.94 978.92
  Q 960.35 979.24 961.79 978.90
  Q 962.28 978.78 962.38 978.28
  Q 962.62 977.01 962.38 975.73"
/>
<path stroke="#7fa4b6" vector-effect="non-scaling-stroke" d="
  M 966.75 975.08
  Q 966.27 976.76 966.62 978.37
  Q 966.74 978.89 967.27 978.90
  L 970.64 978.97"
/>
<path stroke="#7e5059" vector-effect="non-scaling-stroke" d="
  M 879.00 1053.81
  Q 878.18 1054.06 877.01 1054.01"
/>
<path stroke="#01545d" vector-effect="non-scaling-stroke" d="
  M 858.29 1116.54
  L 858.31 1120.13
  Q 858.31 1120.67 858.85 1120.67
  L 862.23 1120.64"
/>
<path stroke="#01545d" vector-effect="non-scaling-stroke" d="
  M 858.25 1141.52
  L 854.49 1141.56
  Q 854.02 1141.56 854.02 1142.02
  L 854.02 1149.47
  A 0.50 0.49 89.6 0 1 853.54 1149.97
  L 850.75 1150.02
  Q 850.03 1150.03 850.03 1150.74
  L 850.02 1153.19
  Q 850.02 1153.93 850.72 1153.95
  L 853.53 1154.03
  Q 854.03 1154.05 854.02 1154.51
  L 853.97 1157.42
  Q 853.96 1158.26 854.90 1158.26
  L 861.59 1158.26
  Q 862.59 1158.26 862.56 1157.23
  L 862.41 1150.21"
/>
<path stroke="#01545d" vector-effect="non-scaling-stroke" d="
  M 875.15 1158.39
  L 875.12 1165.86
  Q 875.11 1166.42 875.67 1166.41
  L 878.90 1166.40"
/>
<path stroke="#01545d" vector-effect="non-scaling-stroke" d="
  M 891.47 1162.51
  L 891.50 1165.99
  A 0.53 0.50 89.6 0 0 892.00 1166.51
  L 895.29 1166.49
  Q 895.72 1166.49 895.71 1166.09
  L 895.69 1158.29"
/>
<path stroke="#01545d" vector-effect="non-scaling-stroke" d="
  M 895.66 1150.02
  L 895.71 1146.56
  Q 895.72 1146.03 895.21 1145.88
  Q 893.52 1145.38 891.75 1145.53"
/>
<path stroke="#7e515a" vector-effect="non-scaling-stroke" d="
  M 903.29 1300.11
  L 896.36 1300.09
  Q 895.84 1300.09 895.78 1300.60
  Q 895.63 1301.70 895.99 1302.84"
/>
<path stroke="#7e5059" vector-effect="non-scaling-stroke" d="
  M 883.21 1308.28
  L 883.21 1304.51
  Q 883.21 1303.99 882.71 1304.00
  L 875.53 1304.03
  Q 875.03 1304.03 875.02 1303.52
  L 874.98 1296.23
  Q 874.98 1295.73 874.49 1295.73
  L 871.24 1295.71
  Q 870.75 1295.71 870.75 1296.26
  L 870.75 1299.04
  Q 870.75 1300.04 869.74 1300.04
  L 863.25 1300.03
  Q 862.42 1300.03 862.44 1299.26
  L 862.52 1296.24
  Q 862.53 1295.73 861.99 1295.73
  L 854.65 1295.73
  Q 854.06 1295.73 854.05 1295.15
  L 853.94 1291.94
  Q 853.93 1291.45 853.48 1291.45
  L 850.68 1291.45
  Q 850.04 1291.46 850.03 1292.12
  L 850.02 1303.21
  A 0.77 0.74 89.0 0 1 849.31 1303.97
  L 846.30 1304.08
  Q 845.75 1304.10 845.75 1304.65
  L 845.76 1310.87"
/>
<path stroke="#7e5059" vector-effect="non-scaling-stroke" d="
  M 895.99 1138.79
  Q 895.93 1141.76 893.17 1141.95
  Q 892.66 1141.99 892.37 1142.41
  Q 891.61 1143.52 891.75 1145.53"
/>
<path stroke="#7fa4b6" vector-effect="non-scaling-stroke" d="
  M 891.75 1145.53
  Q 891.19 1147.27 891.54 1149.08
  Q 891.64 1149.58 892.12 1149.71
  Q 893.79 1150.15 895.66 1150.02"
/>
<path stroke="#7e5059" vector-effect="non-scaling-stroke" d="
  M 895.66 1150.02
  L 895.69 1158.29"
/>
<path stroke="#7fa4b6" vector-effect="non-scaling-stroke" d="
  M 895.69 1158.29
  L 892.16 1158.35
  Q 891.62 1158.35 891.60 1158.89
  L 891.47 1162.51"
/>
<path stroke="#7e5059" vector-effect="non-scaling-stroke" d="
  M 891.47 1162.51
  L 883.74 1162.56
  Q 883.25 1162.57 883.25 1163.02
  L 883.29 1165.99
  Q 883.30 1166.46 882.79 1166.46
  L 878.90 1166.40"
/>
<path stroke="#7fa4b6" vector-effect="non-scaling-stroke" d="
  M 878.90 1166.40
  L 878.88 1158.98
  Q 878.88 1158.46 878.37 1158.37
  Q 876.88 1158.10 875.15 1158.39"
/>
<path stroke="#7e5059" vector-effect="non-scaling-stroke" d="
  M 875.15 1158.39
  L 874.91 1154.59
  Q 874.87 1154.01 874.31 1154.01
  L 866.97 1154.00
  Q 866.45 1154.00 866.47 1153.48
  L 866.52 1150.74
  Q 866.54 1150.20 866.00 1150.11
  Q 864.14 1149.78 862.41 1150.21"
/>
<path stroke="#7fa4b6" vector-effect="non-scaling-stroke" d="
  M 862.41 1150.21
  L 858.95 1149.87
  A 0.59 0.59 0.0 0 1 858.42 1149.30
  L 858.25 1141.52"
/>
<path stroke="#7e5059" vector-effect="non-scaling-stroke" d="
  M 858.25 1141.52
  L 858.29 1137.97
  Q 858.29 1137.49 858.66 1137.49
  L 862.11 1137.51
  Q 862.45 1137.51 862.46 1137.03
  L 862.50 1125.52
  Q 862.50 1125.02 862.97 1125.02
  L 865.97 1125.01
  Q 866.44 1125.01 866.45 1124.53
  L 866.52 1121.29
  Q 866.53 1120.85 866.09 1120.83
  L 862.23 1120.64"
/>
<path stroke="#7fa4b6" vector-effect="non-scaling-stroke" d="
  M 862.23 1120.64
  Q 862.75 1118.89 862.40 1117.16
  Q 862.30 1116.63 861.76 1116.62
  L 858.29 1116.54"
/>
<path stroke="#7e5059" vector-effect="non-scaling-stroke" d="
  M 858.29 1116.54
  L 858.25 1100.50
  Q 858.25 1099.99 857.74 1100.00
  L 854.67 1100.02
  Q 854.06 1100.02 854.03 1099.42
  L 853.91 1096.74"
/>
<path stroke="#7e5059" vector-effect="non-scaling-stroke" d="
  M 866.72 1074.96
  L 874.52 1074.95
  Q 875.02 1074.95 875.02 1074.48
  L 875.03 1071.35
  Q 875.03 1070.75 875.62 1070.76
  L 878.50 1070.78
  Q 879.01 1070.78 879.01 1070.26
  L 879.01 1058.93
  A 0.65 0.63 0.5 0 0 878.37 1058.31
  L 875.73 1058.26"
/>
<path stroke="#01545d" vector-effect="non-scaling-stroke" d="
  M 870.44 1069.39
  Q 870.40 1071.30 874.37 1070.73
  Q 875.02 1070.64 875.02 1070.01
  L 874.99 1067.03
  A 0.61 0.60 84.0 0 0 874.26 1066.44
  Q 873.51 1066.60 872.54 1066.32"
/>
<path stroke="#01545d" vector-effect="non-scaling-stroke" d="
  M 1208.2690 525.4560
  A 0.42 0.42 0.0 0 0 1207.8542 525.0309
  L 1204.4544 524.9894
  A 0.42 0.42 0.0 0 0 1204.0293 525.4042
  L 1203.9910 528.5440
  A 0.42 0.42 0.0 0 0 1204.4058 528.9691
  L 1207.8056 529.0106
  A 0.42 0.42 0.0 0 0 1208.2307 528.5958
  L 1208.2690 525.4560"
/>
<path stroke="#01545d" vector-effect="non-scaling-stroke" d="
  M 1053.9938 979.9379
  A 0.83 0.83 0.0 0 0 1053.1799 979.0921
  L 1050.9203 979.0487
  A 0.83 0.83 0.0 0 0 1050.0745 979.8626
  L 1050.0262 982.3821
  A 0.83 0.83 0.0 0 0 1050.8401 983.2279
  L 1053.0997 983.2713
  A 0.83 0.83 0.0 0 0 1053.9455 982.4574
  L 1053.9938 979.9379"
/>
<path stroke="#01545d" vector-effect="non-scaling-stroke" d="
  M 883.2382 1171.1553
  A 0.42 0.42 0.0 0 0 882.8152 1170.7383
  L 879.4353 1170.7618
  A 0.42 0.42 0.0 0 0 879.0183 1171.1848
  L 879.0418 1174.5647
  A 0.42 0.42 0.0 0 0 879.4648 1174.9817
  L 882.8447 1174.9582
  A 0.42 0.42 0.0 0 0 883.2617 1174.5352
  L 883.2382 1171.1553"
/>
<path stroke="#01545d" vector-effect="non-scaling-stroke" d="
  M 845.7677 1300.6862
  A 0.67 0.67 0.0 0 0 845.0966 1300.0174
  L 842.1366 1300.0226
  A 0.67 0.67 0.0 0 0 841.4677 1300.6938
  L 841.4723 1303.2938
  A 0.67 0.67 0.0 0 0 842.1434 1303.9626
  L 845.1034 1303.9574
  A 0.67 0.67 0.0 0 0 845.7723 1303.2862
  L 845.7677 1300.6862"
/>
</g>
<path fill="#fa9fb1" d="
  M 1245.97 463.43
  L 1245.59 466.57
  L 1242.11 466.56
  Q 1241.56 466.56 1241.57 467.12
  L 1241.65 470.60
  L 1241.53 474.50
  Q 1241.52 474.99 1241.98 475.00
  L 1245.27 475.03
  Q 1245.75 475.03 1245.76 475.52
  L 1245.79 478.34
  Q 1245.80 478.98 1245.18 478.99
  L 1241.93 479.02
  Q 1241.46 479.02 1241.47 479.54
  L 1241.61 490.81
  Q 1241.61 491.34 1242.16 491.37
  L 1245.62 491.52
  Q 1245.95 493.40 1245.62 495.04
  Q 1245.52 495.55 1245.00 495.59
  L 1241.58 495.87
  L 1237.94 495.71
  Q 1237.45 495.69 1237.45 495.21
  L 1237.46 491.98
  Q 1237.47 491.51 1236.98 491.51
  L 1225.50 491.50
  Q 1225.00 491.50 1225.00 492.00
  L 1225.00 503.49
  Q 1225.00 503.99 1224.49 503.99
  L 1216.98 504.01
  Q 1216.48 504.01 1216.48 504.51
  L 1216.51 512.02
  Q 1216.51 512.56 1215.99 512.54
  L 1212.97 512.46
  A 0.46 0.41 -89.5 0 0 1212.55 512.92
  L 1212.57 516.54
  L 1212.50 520.05
  Q 1212.49 520.60 1213.03 520.61
  L 1216.43 520.68
  L 1216.45 525.11
  L 1212.70 525.16
  L 1208.68 524.95
  Q 1208.20 524.93 1208.20 524.53
  L 1208.26 521.20
  Q 1208.26 520.75 1207.76 520.76
  L 1204.53 520.78
  Q 1204.07 520.79 1204.05 520.29
  L 1203.62 503.42
  Q 1205.45 498.00 1207.85 491.87
  Q 1211.73 481.94 1213.27 471.92
  C 1213.46 470.69 1213.50 468.44 1213.00 467.16
  Q 1210.73 461.33 1205.81 458.00
  C 1200.23 454.23 1194.28 452.86 1187.06 450.68
  Q 1184.61 449.93 1182.06 449.54
  Q 1178.35 448.96 1174.21 445.84
  Q 1171.04 443.45 1169.94 440.89
  Q 1167.78 435.86 1167.67 432.82
  Q 1167.55 429.17 1167.42 427.79
  Q 1167.17 425.08 1167.89 422.82
  Q 1169.17 418.87 1169.84 417.33
  Q 1171.26 414.11 1174.44 411.20
  Q 1176.80 409.03 1179.31 410.10
  Q 1179.84 410.32 1180.22 410.83
  Q 1180.63 411.37 1181.58 414.76
  Q 1185.31 428.04 1196.06 437.28
  Q 1199.46 440.20 1203.53 441.98
  Q 1210.21 444.90 1211.69 445.37
  Q 1222.35 448.72 1231.08 452.82
  Q 1233.75 454.07 1236.81 454.87
  Q 1240.55 455.83 1243.33 458.30
  A 1.26 1.01 68.1 0 0 1243.78 458.56
  L 1244.71 458.82
  Q 1245.20 458.96 1245.29 459.46
  L 1245.97 463.43
  Z"
/>
<path fill="#000000" d="
  M 1245.97 463.43
  Q 1247.80 475.38 1247.72 487.47
  Q 1246.83 487.18 1246.28 487.55
  Q 1245.86 487.84 1245.81 488.68
  Q 1245.72 490.12 1245.62 491.52
  L 1242.16 491.37
  Q 1241.61 491.34 1241.61 490.81
  L 1241.47 479.54
  Q 1241.46 479.02 1241.93 479.02
  L 1245.18 478.99
  Q 1245.80 478.98 1245.79 478.34
  L 1245.76 475.52
  Q 1245.75 475.03 1245.27 475.03
  L 1241.98 475.00
  Q 1241.52 474.99 1241.53 474.50
  L 1241.65 470.60
  L 1245.08 470.68
  Q 1245.62 470.69 1245.69 470.16
  Q 1245.94 468.33 1245.59 466.57
  L 1245.97 463.43
  Z"
/>
<path fill="#02a7b9" d="
  M 1245.59 466.57
  Q 1245.94 468.33 1245.69 470.16
  Q 1245.62 470.69 1245.08 470.68
  L 1241.65 470.60
  L 1241.57 467.12
  Q 1241.56 466.56 1242.11 466.56
  L 1245.59 466.57
  Z"
/>
<path fill="#02a7b9" d="
  M 1247.72 487.47
  L 1247.77 495.82
  Q 1245.16 494.93 1245.83 498.90
  Q 1246.01 499.96 1244.70 499.97
  L 1242.16 499.99
  Q 1241.44 499.99 1241.47 498.96
  L 1241.58 495.87
  L 1245.00 495.59
  Q 1245.52 495.55 1245.62 495.04
  Q 1245.95 493.40 1245.62 491.52
  Q 1245.72 490.12 1245.81 488.68
  Q 1245.86 487.84 1246.28 487.55
  Q 1246.83 487.18 1247.72 487.47
  Z"
/>
<path fill="#000000" d="
  M 1241.58 495.87
  L 1241.47 498.96
  Q 1241.44 499.99 1242.16 499.99
  L 1244.70 499.97
  Q 1246.01 499.96 1245.83 498.90
  Q 1245.16 494.93 1247.77 495.82
  Q 1247.34 512.76 1246.32 529.78
  Q 1246.31 529.91 1246.20 533.71
  Q 1246.14 536.00 1245.76 538.26
  Q 1244.93 543.13 1242.63 556.13
  Q 1242.13 558.92 1241.63 565.03
  Q 1241.21 570.10 1242.07 573.94
  Q 1243.34 579.57 1246.16 584.74
  Q 1246.63 585.60 1247.04 585.68
  Q 1247.11 585.69 1247.72 586.07
  A 2.01 2.01 0.0 0 1 1248.43 586.83
  Q 1250.50 590.70 1252.87 593.01
  Q 1253.21 593.34 1253.26 593.81
  Q 1254.16 601.68 1253.62 605.84
  Q 1252.63 613.47 1251.67 621.12
  Q 1251.13 625.38 1251.67 632.92
  Q 1252.55 645.42 1252.23 655.77
  Q 1251.58 676.55 1249.36 694.62
  C 1247.47 710.00 1245.24 725.17 1243.87 741.96
  Q 1241.20 774.55 1240.22 784.25
  Q 1238.50 801.31 1235.00 818.77
  Q 1234.70 820.27 1234.98 821.73
  Q 1235.38 823.87 1235.30 824.76
  Q 1233.50 845.04 1228.28 866.06
  C 1224.41 881.64 1218.76 901.39 1214.46 919.85
  Q 1213.16 925.39 1212.88 932.28
  Q 1212.04 952.79 1211.75 956.51
  Q 1210.32 974.51 1205.52 992.78
  Q 1203.45 1000.65 1196.63 1029.01
  Q 1195.38 1029.21 1195.83 1032.21
  Q 1195.98 1033.20 1194.84 1033.21
  L 1188.23 1033.27
  Q 1187.40 1033.28 1187.43 1032.39
  L 1187.55 1029.53
  Q 1187.57 1029.01 1187.02 1029.01
  L 1179.50 1029.02
  Q 1178.99 1029.02 1178.99 1028.51
  L 1179.01 1016.99
  Q 1179.01 1016.49 1179.53 1016.50
  L 1182.38 1016.53
  Q 1183.27 1016.54 1183.27 1015.65
  L 1183.27 1009.01
  Q 1183.27 1008.21 1182.52 1008.21
  L 1175.50 1008.27
  Q 1174.99 1008.28 1174.99 1007.75
  L 1175.01 1000.49
  Q 1175.01 999.95 1174.50 999.96
  L 1171.25 1000.02
  Q 1170.75 1000.03 1170.75 999.51
  L 1170.76 987.99
  Q 1170.76 987.50 1171.26 987.50
  L 1174.36 987.52
  Q 1175.00 987.53 1175.00 986.90
  L 1175.02 980.02
  Q 1175.02 978.95 1174.06 978.96
  L 1171.24 978.99
  Q 1170.73 978.99 1170.73 979.47
  L 1170.74 982.79
  A 0.49 0.45 -0.0 0 1 1170.25 983.24
  L 1166.99 983.23
  Q 1166.47 983.23 1166.48 982.74
  L 1166.53 979.52
  Q 1166.54 979.01 1166.02 979.01
  L 1158.54 978.99
  A 0.32 0.32 0.0 0 1 1158.21 978.67
  L 1158.25 958.08
  L 1158.21 954.44
  A 0.43 0.43 0.0 0 0 1157.79 954.01
  L 1154.48 954.00
  Q 1154.06 954.00 1154.06 954.42
  L 1154.11 958.11
  L 1153.95 966.02
  Q 1153.94 966.49 1153.46 966.49
  L 1146.27 966.48
  Q 1145.74 966.48 1145.74 966.98
  L 1145.73 970.51
  A 0.24 0.23 0.1 0 1 1145.49 970.74
  L 1141.99 970.74
  Q 1141.51 970.74 1141.51 970.25
  L 1141.52 967.03
  Q 1141.52 966.55 1141.04 966.53
  L 1137.42 966.39
  L 1137.59 963.18
  A 0.64 0.62 -87.9 0 0 1136.99 962.50
  L 1134.01 962.45
  Q 1133.21 962.43 1133.22 963.30
  L 1133.27 966.33
  L 1133.23 982.73
  Q 1133.22 983.26 1132.74 983.25
  L 1129.61 983.19
  Q 1129.05 983.18 1129.07 983.81
  L 1129.18 987.66
  Q 1128.78 989.37 1129.18 990.95
  Q 1129.31 991.47 1129.85 991.44
  L 1133.12 991.29
  L 1133.35 995.84
  L 1133.36 999.61
  A 0.37 0.35 0.2 0 0 1133.73 999.96
  L 1137.12 999.99
  Q 1137.47 999.99 1137.47 999.64
  L 1137.41 995.95
  L 1137.68 991.89
  Q 1137.70 991.58 1138.02 991.57
  L 1141.09 991.53
  Q 1141.41 991.52 1141.42 991.84
  L 1141.52 1015.98
  Q 1141.52 1016.49 1141.05 1016.49
  L 1133.72 1016.48
  Q 1133.25 1016.48 1133.25 1016.98
  L 1133.25 1020.27
  Q 1133.25 1020.77 1132.74 1020.75
  L 1129.57 1020.67
  A 0.52 0.52 0.0 0 0 1129.04 1021.19
  L 1128.98 1036.85
  Q 1128.98 1037.42 1128.39 1037.43
  L 1125.77 1037.46
  Q 1125.09 1037.47 1125.06 1036.79
  L 1124.93 1033.84
  Q 1124.90 1033.27 1124.34 1033.26
  L 1121.25 1033.22
  Q 1120.79 1033.21 1120.79 1032.75
  L 1120.79 1025.52
  Q 1120.79 1024.97 1120.26 1024.98
  L 1113.04 1025.01
  Q 1112.55 1025.01 1112.53 1025.48
  L 1112.27 1032.73
  Q 1112.25 1033.22 1111.79 1033.22
  L 1108.78 1033.26
  Q 1108.32 1033.27 1108.30 1033.75
  L 1108.20 1036.62
  Q 1108.18 1037.17 1107.64 1037.19
  L 1096.28 1037.62
  Q 1095.70 1037.64 1095.69 1038.19
  L 1095.64 1040.80
  A 0.65 0.61 -88.8 0 1 1095.02 1041.44
  L 1092.70 1041.39
  Q 1091.61 1041.36 1091.58 1042.51
  L 1091.41 1048.86
  Q 1091.38 1050.12 1092.55 1050.08
  L 1095.14 1050.01
  Q 1095.71 1050.00 1095.70 1050.63
  L 1095.69 1062.02
  A 0.47 0.46 -89.8 0 1 1095.23 1062.49
  L 1088.01 1062.46
  Q 1087.47 1062.45 1087.47 1062.97
  L 1087.44 1070.17
  Q 1087.44 1070.77 1086.84 1070.76
  L 1083.79 1070.69
  A 0.53 0.52 0.6 0 0 1083.25 1071.21
  L 1083.26 1074.02
  Q 1083.26 1074.96 1082.27 1074.98
  L 1080.03 1075.02
  A 1.01 1.00 -0.5 0 1 1079.00 1074.02
  L 1079.00 1062.97
  Q 1079.00 1062.43 1078.47 1062.45
  L 1075.52 1062.52
  Q 1075.02 1062.54 1075.02 1062.02
  L 1074.99 1054.50
  Q 1074.99 1054.00 1074.49 1054.00
  L 1071.23 1053.96
  Q 1070.74 1053.95 1070.75 1053.48
  L 1070.81 1050.63
  A 0.65 0.62 0.6 0 0 1070.17 1049.99
  L 1062.99 1050.00
  Q 1062.50 1050.00 1062.50 1049.50
  L 1062.51 1038.01
  Q 1062.51 1037.54 1062.98 1037.54
  L 1065.98 1037.55
  Q 1066.52 1037.55 1066.52 1037.02
  L 1066.52 1033.73
  Q 1066.52 1033.19 1065.98 1033.19
  L 1058.75 1033.24
  Q 1058.27 1033.24 1058.27 1032.76
  L 1058.26 1021.27
  A 0.49 0.46 89.8 0 1 1058.71 1020.78
  L 1062.00 1020.77
  Q 1062.50 1020.76 1062.51 1020.26
  L 1062.53 1016.99
  Q 1062.53 1016.45 1061.99 1016.45
  L 1058.71 1016.46
  Q 1058.20 1016.47 1058.22 1015.96
  L 1058.28 1013.03
  Q 1058.30 1012.52 1057.78 1012.52
  L 1054.88 1012.51
  Q 1053.98 1012.50 1053.99 1011.69
  L 1054.01 1004.82
  Q 1054.01 1003.97 1054.83 1003.98
  L 1057.66 1004.00
  Q 1058.30 1004.00 1058.30 1003.35
  L 1058.31 1000.69
  Q 1058.31 1000.05 1057.70 1000.03
  L 1054.62 999.95
  Q 1054.05 999.94 1054.04 999.37
  L 1053.97 996.20
  Q 1053.96 995.68 1053.46 995.69
  L 1050.73 995.74
  Q 1050.00 995.75 1050.00 995.00
  L 1050.03 984.01
  A 0.82 0.80 0.1 0 0 1049.21 983.20
  L 1037.45 983.18
  L 1037.48 975.30
  Q 1037.49 975.03 1037.20 975.03
  L 1033.57 975.02
  A 0.32 0.31 90.0 0 0 1033.25 975.34
  L 1033.28 983.11
  L 1033.19 987.01
  Q 1033.17 987.53 1032.72 987.51
  L 1029.85 987.42
  Q 1029.00 987.39 1028.99 988.30
  L 1028.96 994.83
  Q 1028.95 995.78 1030.00 995.78
  L 1036.51 995.77
  Q 1037.51 995.77 1037.51 996.77
  L 1037.51 1003.13
  Q 1037.52 1004.07 1036.70 1004.05
  L 1033.73 1003.98
  Q 1033.22 1003.97 1033.22 1004.52
  L 1033.27 1012.00
  Q 1033.27 1012.53 1032.77 1012.52
  L 1029.52 1012.45
  Q 1029.03 1012.44 1029.02 1012.96
  L 1029.00 1016.05
  A 0.50 0.50 0.0 0 1 1028.48 1016.55
  L 1025.52 1016.44
  A 0.50 0.48 -88.8 0 0 1025.02 1016.93
  L 1024.99 1020.29
  Q 1024.99 1020.78 1024.48 1020.78
  L 1021.24 1020.74
  Q 1020.73 1020.73 1020.74 1020.23
  L 1020.76 1016.99
  Q 1020.76 1016.46 1020.24 1016.47
  L 1017.03 1016.53
  A 0.49 0.49 0.0 0 1 1016.52 1016.04
  L 1016.51 1012.74
  Q 1016.51 1012.46 1016.25 1012.46
  L 1012.74 1012.47
  Q 1012.44 1012.47 1012.45 1012.76
  L 1012.51 1020.25
  Q 1012.51 1020.77 1012.00 1020.76
  L 1000.90 1020.68
  Q 999.98 1020.67 999.98 1021.57
  L 999.97 1028.13
  Q 999.96 1029.10 1000.85 1029.07
  L 1003.20 1028.99
  Q 1004.01 1028.96 1004.01 1029.91
  L 1004.02 1036.76
  A 0.75 0.71 -89.8 0 1 1003.30 1037.51
  L 996.29 1037.46
  Q 995.76 1037.45 995.76 1037.99
  L 995.74 1045.25
  A 0.48 0.48 0.0 0 1 995.26 1045.73
  L 992.04 1045.79
  Q 991.54 1045.80 991.54 1045.29
  L 991.52 1029.52
  Q 991.52 1029.00 991.01 1029.00
  L 979.98 1029.02
  Q 978.97 1029.03 978.98 1028.08
  L 978.99 1021.55
  Q 978.99 1020.71 979.83 1020.72
  L 982.76 1020.78
  Q 983.28 1020.79 983.28 1020.24
  L 983.29 1017.02
  Q 983.29 1016.49 982.76 1016.49
  L 975.63 1016.49
  Q 975.03 1016.49 975.06 1015.86
  L 975.40 1008.17
  L 978.21 1008.31
  Q 978.98 1008.35 978.98 1007.58
  L 979.00 1004.81
  Q 979.00 1004.12 978.31 1004.09
  L 975.58 1003.96
  Q 975.01 1003.94 975.01 1003.34
  L 974.99 991.99
  Q 974.99 991.46 974.50 991.47
  L 971.24 991.52
  Q 970.75 991.52 970.74 991.00
  L 970.64 978.97
  Q 970.94 977.22 970.62 975.66
  Q 970.51 975.13 969.98 975.13
  L 966.75 975.08
  L 962.55 975.15
  Q 962.30 975.15 962.37 975.39
  Q 962.41 975.54 962.38 975.73
  Q 962.38 975.48 962.27 975.29
  Q 962.17 975.12 961.90 975.07
  Q 960.23 974.71 958.48 975.16
  Q 956.55 974.81 954.59 975.23
  Q 954.03 975.35 954.03 975.90
  L 954.06 987.06
  Q 954.06 987.57 954.56 987.56
  L 957.73 987.49
  Q 958.21 987.48 958.22 987.98
  L 958.33 1003.47
  L 950.63 1004.17
  Q 950.01 1004.23 950.00 1004.81
  L 949.96 1007.54
  A 0.69 0.65 0.1 0 1 949.27 1008.18
  L 941.97 1008.26
  Q 941.45 1008.27 941.45 1008.78
  L 941.50 1011.89
  A 0.60 0.54 -0.6 0 1 940.90 1012.44
  L 933.76 1012.49
  Q 933.24 1012.50 933.24 1012.97
  L 933.24 1016.03
  Q 933.25 1016.51 932.75 1016.50
  L 929.51 1016.45
  Q 929.01 1016.45 929.01 1016.97
  L 929.00 1020.26
  Q 929.00 1020.81 929.52 1020.79
  L 932.40 1020.72
  Q 933.26 1020.69 933.26 1021.64
  L 933.25 1028.16
  Q 933.25 1029.08 932.43 1029.06
  L 929.53 1028.97
  Q 929.01 1028.96 929.01 1029.49
  L 928.99 1037.00
  Q 928.99 1037.49 928.51 1037.49
  L 925.50 1037.48
  Q 925.00 1037.48 925.00 1037.00
  L 925.03 1029.97
  Q 925.04 1028.95 924.08 1028.95
  L 917.29 1028.96
  Q 916.38 1028.96 916.40 1029.84
  L 916.46 1032.75
  Q 916.47 1033.21 915.98 1033.22
  L 913.00 1033.23
  A 0.48 0.48 0.0 0 1 912.53 1032.76
  L 912.51 1025.52
  A 0.52 0.48 -89.9 0 0 912.03 1025.00
  L 908.73 1024.98
  Q 908.26 1024.98 908.26 1024.49
  L 908.29 1013.03
  Q 908.29 1012.54 907.79 1012.53
  L 899.96 1012.39
  L 900.10 1008.03
  L 903.09 1008.30
  Q 903.98 1008.38 903.99 1007.49
  L 904.02 1000.80
  Q 904.03 999.92 903.15 999.96
  L 900.16 1000.08
  L 896.34 999.93
  Q 895.83 999.91 895.82 999.40
  L 895.69 995.57
  L 895.66 992.04
  Q 895.65 991.45 895.09 991.46
  L 892.10 991.50
  Q 891.52 991.51 891.54 992.15
  L 891.67 995.68
  L 887.95 995.79
  Q 887.49 995.81 887.49 996.04
  L 887.53 999.55
  Q 887.53 999.93 886.93 999.94
  L 883.20 999.98
  L 883.21 996.25
  Q 883.21 995.76 882.75 995.76
  L 875.52 995.74
  Q 875.01 995.74 875.01 996.23
  L 874.99 999.62
  Q 874.99 1000.03 875.39 1000.02
  L 878.53 999.99
  Q 879.03 999.98 879.03 1000.51
  L 879.00 1016.02
  Q 879.00 1016.53 879.53 1016.52
  L 882.76 1016.50
  Q 883.28 1016.50 883.29 1015.94
  L 883.31 1012.50
  L 886.87 1012.56
  Q 887.39 1012.57 887.40 1013.09
  L 887.51 1036.01
  Q 887.59 1036.54 887.50 1036.96
  Q 887.39 1037.51 886.83 1037.50
  L 879.56 1037.48
  Q 879.09 1037.48 879.07 1037.95
  L 878.82 1045.93
  Q 877.71 1045.41 876.58 1045.83
  C 875.30 1034.87 874.45 1023.70 872.99 1012.95
  Q 871.68 1003.32 871.27 998.27
  Q 869.02 970.73 866.96 950.77
  Q 866.22 943.63 865.06 937.54
  Q 863.82 931.04 861.24 924.74
  Q 850.50 898.55 825.69 883.62
  Q 821.03 880.81 815.02 877.55
  Q 813.59 876.78 812.60 876.50
  Q 810.51 875.93 809.47 873.47
  A 1.79 1.79 0.0 0 1 811.34 871.00
  Q 812.40 871.13 814.62 871.93
  Q 817.02 872.79 818.17 872.95
  Q 820.55 873.26 827.61 874.89
  Q 841.20 878.04 854.82 879.91
  Q 861.74 880.87 866.99 880.91
  Q 871.89 880.95 876.99 881.77
  Q 885.47 883.15 890.51 883.20
  Q 909.98 883.39 934.61 882.36
  Q 955.74 881.47 975.77 877.80
  Q 997.14 873.90 1016.44 865.42
  Q 1019.99 863.87 1042.47 853.95
  Q 1047.03 851.94 1054.11 849.99
  Q 1057.48 849.07 1059.80 847.40
  Q 1064.84 843.77 1069.18 839.67
  Q 1082.06 827.48 1092.55 818.55
  C 1096.61 815.09 1100.47 811.16 1103.66 806.41
  Q 1106.99 801.46 1112.74 793.61
  C 1114.32 791.45 1116.09 788.61 1117.29 786.07
  Q 1130.11 758.89 1135.50 726.79
  Q 1136.76 719.27 1136.94 718.29
  C 1137.77 713.64 1138.02 707.38 1139.48 702.28
  Q 1142.29 692.41 1148.78 687.26
  Q 1154.42 682.79 1156.70 676.99
  Q 1162.93 661.14 1165.11 644.09
  Q 1168.02 621.32 1172.61 601.34
  Q 1174.10 594.87 1176.61 588.09
  Q 1178.94 581.79 1188.60 558.90
  Q 1191.24 552.65 1194.03 542.81
  Q 1195.12 539.00 1195.40 535.27
  Q 1195.70 531.27 1195.71 531.22
  Q 1197.45 517.12 1203.62 503.42
  L 1204.05 520.29
  Q 1204.07 520.79 1204.53 520.78
  L 1207.76 520.76
  Q 1208.26 520.75 1208.26 521.20
  L 1208.20 524.53
  Q 1208.20 524.93 1208.68 524.95
  L 1212.70 525.16
  L 1212.56 528.41
  Q 1212.53 529.03 1213.12 529.03
  L 1215.88 528.99
  A 0.56 0.52 -89.8 0 0 1216.40 528.44
  L 1216.45 525.11
  L 1216.43 520.68
  L 1216.47 517.09
  Q 1216.48 516.56 1215.94 516.55
  L 1212.57 516.54
  L 1212.55 512.92
  A 0.46 0.41 -89.5 0 1 1212.97 512.46
  L 1215.99 512.54
  Q 1216.51 512.56 1216.51 512.02
  L 1216.48 504.51
  Q 1216.48 504.01 1216.98 504.01
  L 1224.49 503.99
  Q 1225.00 503.99 1225.00 503.49
  L 1225.00 492.00
  Q 1225.00 491.50 1225.50 491.50
  L 1236.98 491.51
  Q 1237.47 491.51 1237.46 491.98
  L 1237.45 495.21
  Q 1237.45 495.69 1237.94 495.71
  L 1241.58 495.87
  Z
  M 1208.2690 525.4560
  A 0.42 0.42 0.0 0 0 1207.8542 525.0309
  L 1204.4544 524.9894
  A 0.42 0.42 0.0 0 0 1204.0293 525.4042
  L 1203.9910 528.5440
  A 0.42 0.42 0.0 0 0 1204.4058 528.9691
  L 1207.8056 529.0106
  A 0.42 0.42 0.0 0 0 1208.2307 528.5958
  L 1208.2690 525.4560
  Z
  M 1053.9938 979.9379
  A 0.83 0.83 0.0 0 0 1053.1799 979.0921
  L 1050.9203 979.0487
  A 0.83 0.83 0.0 0 0 1050.0745 979.8626
  L 1050.0262 982.3821
  A 0.83 0.83 0.0 0 0 1050.8401 983.2279
  L 1053.0997 983.2713
  A 0.83 0.83 0.0 0 0 1053.9455 982.4574
  L 1053.9938 979.9379
  Z"
/>
<path fill="#02a7b9" d="
  M 1216.43 520.68
  L 1213.03 520.61
  Q 1212.49 520.60 1212.50 520.05
  L 1212.57 516.54
  L 1215.94 516.55
  Q 1216.48 516.56 1216.47 517.09
  L 1216.43 520.68
  Z"
/>
<rect fill="#02a7b9" x="-2.12" y="-1.99" transform="translate(1206.13,527.00) rotate(0.7)" width="4.24" height="3.98" rx="0.42"/>
<path fill="#02a7b9" d="
  M 1216.45 525.11
  L 1216.40 528.44
  A 0.56 0.52 -89.8 0 1 1215.88 528.99
  L 1213.12 529.03
  Q 1212.53 529.03 1212.56 528.41
  L 1212.70 525.16
  L 1216.45 525.11
  Z"
/>
<path fill="#02a7b9" d="
  M 1158.25 958.08
  L 1154.11 958.11
  L 1154.06 954.42
  Q 1154.06 954.00 1154.48 954.00
  L 1157.79 954.01
  A 0.43 0.43 0.0 0 1 1158.21 954.44
  L 1158.25 958.08
  Z"
/>
<path fill="#f79cae" d="
  M 1158.25 958.08
  L 1158.21 978.67
  A 0.32 0.32 0.0 0 0 1158.54 978.99
  L 1166.02 979.01
  Q 1166.54 979.01 1166.53 979.52
  L 1166.48 982.74
  Q 1166.47 983.23 1166.99 983.23
  L 1170.25 983.24
  A 0.49 0.45 -0.0 0 0 1170.74 982.79
  L 1170.73 979.47
  Q 1170.73 978.99 1171.24 978.99
  L 1174.06 978.96
  Q 1175.02 978.95 1175.02 980.02
  L 1175.00 986.90
  Q 1175.00 987.53 1174.36 987.52
  L 1171.26 987.50
  Q 1170.76 987.50 1170.76 987.99
  L 1170.75 999.51
  Q 1170.75 1000.03 1171.25 1000.02
  L 1174.50 999.96
  Q 1175.01 999.95 1175.01 1000.49
  L 1174.99 1007.75
  Q 1174.99 1008.28 1175.50 1008.27
  L 1182.52 1008.21
  Q 1183.27 1008.21 1183.27 1009.01
  L 1183.27 1015.65
  Q 1183.27 1016.54 1182.38 1016.53
  L 1179.53 1016.50
  Q 1179.01 1016.49 1179.01 1016.99
  L 1178.99 1028.51
  Q 1178.99 1029.02 1179.50 1029.02
  L 1187.02 1029.01
  Q 1187.57 1029.01 1187.55 1029.53
  L 1187.43 1032.39
  Q 1187.40 1033.28 1188.23 1033.27
  L 1194.84 1033.21
  Q 1195.98 1033.20 1195.83 1032.21
  Q 1195.38 1029.21 1196.63 1029.01
  Q 1195.37 1035.51 1194.19 1042.00
  Q 1192.64 1050.55 1192.50 1055.09
  Q 1192.23 1063.77 1193.22 1072.51
  Q 1193.85 1078.07 1195.78 1090.13
  C 1196.63 1095.45 1198.80 1102.29 1199.59 1108.19
  Q 1200.83 1117.42 1198.17 1126.07
  C 1197.34 1128.77 1195.10 1130.26 1192.56 1131.29
  Q 1168.73 1140.94 1146.85 1156.60
  Q 1132.98 1166.54 1116.71 1178.42
  C 1107.90 1184.85 1099.11 1192.59 1090.43 1199.44
  Q 1078.69 1208.70 1070.86 1213.91
  Q 1059.25 1221.63 1055.24 1224.83
  Q 1054.89 1225.10 1044.99 1232.38
  Q 1040.08 1235.98 1034.38 1239.36
  Q 1017.84 1249.15 1007.17 1254.42
  Q 974.90 1270.35 946.74 1284.43
  Q 941.89 1286.86 936.33 1288.55
  Q 926.29 1291.61 916.41 1295.02
  L 916.50 1287.97
  Q 916.51 1287.45 917.00 1287.46
  L 920.25 1287.51
  Q 920.71 1287.52 920.72 1287.02
  L 920.78 1283.76
  Q 920.79 1283.23 920.26 1283.24
  L 917.01 1283.28
  Q 916.48 1283.29 916.48 1282.76
  L 916.52 1275.75
  Q 916.53 1274.99 915.85 1274.99
  L 913.16 1274.99
  Q 912.43 1274.99 912.46 1275.75
  L 912.57 1278.38
  A 0.67 0.60 -1.2 0 1 911.90 1279.01
  L 908.74 1279.03
  Q 908.19 1279.03 908.19 1278.48
  L 908.27 1250.68
  A 0.63 0.57 88.7 0 1 908.80 1250.05
  L 911.86 1249.88
  A 0.61 0.60 -1.8 0 0 912.44 1249.28
  L 912.42 1246.40
  A 0.69 0.69 0.0 0 1 913.05 1245.71
  L 915.45 1245.52
  Q 915.96 1245.48 916.08 1244.98
  Q 916.42 1243.48 915.72 1242.46
  A 1.42 1.42 0.0 0 0 914.86 1241.88
  L 913.48 1241.57
  Q 912.81 1241.42 912.74 1240.74
  Q 912.16 1235.61 912.42 1229.54
  Q 912.44 1229.05 911.96 1229.05
  L 908.97 1229.02
  A 0.80 0.74 0.4 0 1 908.18 1228.28
  L 908.21 1221.57
  Q 908.21 1220.68 909.09 1220.68
  L 911.76 1220.67
  Q 912.44 1220.67 912.43 1219.98
  L 912.42 1217.15
  Q 912.42 1216.52 913.07 1216.52
  L 924.53 1216.43
  Q 924.97 1216.43 924.98 1215.98
  L 925.03 1208.70
  Q 925.04 1208.19 925.55 1208.21
  L 928.25 1208.28
  Q 928.87 1208.30 928.90 1207.70
  L 929.07 1204.58
  Q 929.10 1204.02 929.67 1204.01
  L 932.52 1203.96
  Q 933.23 1203.94 933.24 1203.25
  L 933.26 1200.68
  A 0.63 0.57 -89.2 0 0 932.70 1200.04
  L 929.61 1199.98
  Q 929.01 1199.97 929.01 1199.36
  L 928.98 1192.00
  Q 928.98 1191.51 928.50 1191.51
  L 921.39 1191.53
  Q 920.75 1191.53 920.75 1190.89
  L 920.73 1175.51
  Q 920.73 1175.01 920.27 1175.02
  L 917.19 1175.04
  A 0.75 0.71 -89.7 0 1 916.48 1174.28
  L 916.60 1167.20
  Q 916.61 1166.35 917.46 1166.38
  L 920.05 1166.48
  Q 920.54 1166.50 920.55 1165.97
  L 920.75 1158.73
  Q 920.77 1158.20 921.28 1158.21
  L 924.44 1158.27
  Q 925.00 1158.28 925.00 1157.65
  L 925.00 1154.78
  A 0.77 0.70 -89.6 0 0 924.31 1154.01
  L 921.30 1153.97
  Q 920.64 1153.95 920.67 1153.29
  L 920.78 1150.75
  Q 920.81 1150.14 920.20 1150.12
  L 913.02 1149.89
  A 0.62 0.60 0.8 0 1 912.42 1149.29
  L 912.40 1146.52
  Q 912.39 1145.92 911.80 1145.89
  L 908.98 1145.76
  A 0.55 0.53 89.6 0 1 908.48 1145.24
  L 908.08 1138.28
  A 0.60 0.60 0.0 0 0 907.54 1137.71
  Q 901.33 1137.14 895.99 1138.79
  Q 887.83 1130.72 883.31 1124.74
  C 875.84 1114.88 874.11 1103.80 876.82 1091.67
  Q 879.48 1079.79 880.64 1074.28
  C 882.09 1067.42 880.92 1060.87 879.00 1053.81
  L 878.99 1049.63
  L 878.82 1045.93
  L 879.07 1037.95
  Q 879.09 1037.48 879.56 1037.48
  L 886.83 1037.50
  Q 887.39 1037.51 887.50 1036.96
  Q 887.59 1036.54 887.51 1036.01
  Q 893.12 1023.64 899.96 1012.39
  L 907.79 1012.53
  Q 908.29 1012.54 908.29 1013.03
  L 908.26 1024.49
  Q 908.26 1024.98 908.73 1024.98
  L 912.03 1025.00
  A 0.52 0.48 -89.9 0 1 912.51 1025.52
  L 912.53 1032.76
  A 0.48 0.48 0.0 0 0 913.00 1033.23
  L 915.98 1033.22
  Q 916.47 1033.21 916.46 1032.75
  L 916.40 1029.84
  Q 916.38 1028.96 917.29 1028.96
  L 924.08 1028.95
  Q 925.04 1028.95 925.03 1029.97
  L 925.00 1037.00
  Q 925.00 1037.48 925.50 1037.48
  L 928.51 1037.49
  Q 928.99 1037.49 928.99 1037.00
  L 929.01 1029.49
  Q 929.01 1028.96 929.53 1028.97
  L 932.43 1029.06
  Q 933.25 1029.08 933.25 1028.16
  L 933.26 1021.64
  Q 933.26 1020.69 932.40 1020.72
  L 929.52 1020.79
  Q 929.00 1020.81 929.00 1020.26
  L 929.01 1016.97
  Q 929.01 1016.45 929.51 1016.45
  L 932.75 1016.50
  Q 933.25 1016.51 933.24 1016.03
  L 933.24 1012.97
  Q 933.24 1012.50 933.76 1012.49
  L 940.90 1012.44
  A 0.60 0.54 -0.6 0 0 941.50 1011.89
  L 941.45 1008.78
  Q 941.45 1008.27 941.97 1008.26
  L 949.27 1008.18
  A 0.69 0.65 0.1 0 0 949.96 1007.54
  L 950.00 1004.81
  Q 950.01 1004.23 950.63 1004.17
  L 958.33 1003.47
  L 975.40 1008.17
  L 975.06 1015.86
  Q 975.03 1016.49 975.63 1016.49
  L 982.76 1016.49
  Q 983.29 1016.49 983.29 1017.02
  L 983.28 1020.24
  Q 983.28 1020.79 982.76 1020.78
  L 979.83 1020.72
  Q 978.99 1020.71 978.99 1021.55
  L 978.98 1028.08
  Q 978.97 1029.03 979.98 1029.02
  L 991.01 1029.00
  Q 991.52 1029.00 991.52 1029.52
  L 991.54 1045.29
  Q 991.54 1045.80 992.04 1045.79
  L 995.26 1045.73
  A 0.48 0.48 0.0 0 0 995.74 1045.25
  L 995.76 1037.99
  Q 995.76 1037.45 996.29 1037.46
  L 1003.30 1037.51
  A 0.75 0.71 -89.8 0 0 1004.02 1036.76
  L 1004.01 1029.91
  Q 1004.01 1028.96 1003.20 1028.99
  L 1000.85 1029.07
  Q 999.96 1029.10 999.97 1028.13
  L 999.98 1021.57
  Q 999.98 1020.67 1000.90 1020.68
  L 1012.00 1020.76
  Q 1012.51 1020.77 1012.51 1020.25
  L 1012.45 1012.76
  Q 1012.44 1012.47 1012.74 1012.47
  L 1016.25 1012.46
  Q 1016.51 1012.46 1016.51 1012.74
  L 1016.52 1016.04
  A 0.49 0.49 0.0 0 0 1017.03 1016.53
  L 1020.24 1016.47
  Q 1020.76 1016.46 1020.76 1016.99
  L 1020.74 1020.23
  Q 1020.73 1020.73 1021.24 1020.74
  L 1024.48 1020.78
  Q 1024.99 1020.78 1024.99 1020.29
  L 1025.02 1016.93
  A 0.50 0.48 -88.8 0 1 1025.52 1016.44
  L 1028.48 1016.55
  A 0.50 0.50 0.0 0 0 1029.00 1016.05
  L 1029.02 1012.96
  Q 1029.03 1012.44 1029.52 1012.45
  L 1032.77 1012.52
  Q 1033.27 1012.53 1033.27 1012.00
  L 1033.22 1004.52
  Q 1033.22 1003.97 1033.73 1003.98
  L 1036.70 1004.05
  Q 1037.52 1004.07 1037.51 1003.13
  L 1037.51 996.77
  Q 1037.51 995.77 1036.51 995.77
  L 1030.00 995.78
  Q 1028.95 995.78 1028.96 994.83
  L 1028.99 988.30
  Q 1029.00 987.39 1029.85 987.42
  L 1032.72 987.51
  Q 1033.17 987.53 1033.19 987.01
  L 1033.28 983.11
  L 1037.45 983.18
  L 1049.21 983.20
  A 0.82 0.80 0.1 0 1 1050.03 984.01
  L 1050.00 995.00
  Q 1050.00 995.75 1050.73 995.74
  L 1053.46 995.69
  Q 1053.96 995.68 1053.97 996.20
  L 1054.04 999.37
  Q 1054.05 999.94 1054.62 999.95
  L 1057.70 1000.03
  Q 1058.31 1000.05 1058.31 1000.69
  L 1058.30 1003.35
  Q 1058.30 1004.00 1057.66 1004.00
  L 1054.83 1003.98
  Q 1054.01 1003.97 1054.01 1004.82
  L 1053.99 1011.69
  Q 1053.98 1012.50 1054.88 1012.51
  L 1057.78 1012.52
  Q 1058.30 1012.52 1058.28 1013.03
  L 1058.22 1015.96
  Q 1058.20 1016.47 1058.71 1016.46
  L 1061.99 1016.45
  Q 1062.53 1016.45 1062.53 1016.99
  L 1062.51 1020.26
  Q 1062.50 1020.76 1062.00 1020.77
  L 1058.71 1020.78
  A 0.49 0.46 89.8 0 0 1058.26 1021.27
  L 1058.27 1032.76
  Q 1058.27 1033.24 1058.75 1033.24
  L 1065.98 1033.19
  Q 1066.52 1033.19 1066.52 1033.73
  L 1066.52 1037.02
  Q 1066.52 1037.55 1065.98 1037.55
  L 1062.98 1037.54
  Q 1062.51 1037.54 1062.51 1038.01
  L 1062.50 1049.50
  Q 1062.50 1050.00 1062.99 1050.00
  L 1070.17 1049.99
  A 0.65 0.62 0.6 0 1 1070.81 1050.63
  L 1070.75 1053.48
  Q 1070.74 1053.95 1071.23 1053.96
  L 1074.49 1054.00
  Q 1074.99 1054.00 1074.99 1054.50
  L 1075.02 1062.02
  Q 1075.02 1062.54 1075.52 1062.52
  L 1078.47 1062.45
  Q 1079.00 1062.43 1079.00 1062.97
  L 1079.00 1074.02
  A 1.01 1.00 -0.5 0 0 1080.03 1075.02
  L 1082.27 1074.98
  Q 1083.26 1074.96 1083.26 1074.02
  L 1083.25 1071.21
  A 0.53 0.52 0.6 0 1 1083.79 1070.69
  L 1086.84 1070.76
  Q 1087.44 1070.77 1087.44 1070.17
  L 1087.47 1062.97
  Q 1087.47 1062.45 1088.01 1062.46
  L 1095.23 1062.49
  A 0.47 0.46 -89.8 0 0 1095.69 1062.02
  L 1095.70 1050.63
  Q 1095.71 1050.00 1095.14 1050.01
  L 1092.55 1050.08
  Q 1091.38 1050.12 1091.41 1048.86
  L 1091.58 1042.51
  Q 1091.61 1041.36 1092.70 1041.39
  L 1095.02 1041.44
  A 0.65 0.61 -88.8 0 0 1095.64 1040.80
  L 1095.69 1038.19
  Q 1095.70 1037.64 1096.28 1037.62
  L 1107.64 1037.19
  Q 1108.18 1037.17 1108.20 1036.62
  L 1108.30 1033.75
  Q 1108.32 1033.27 1108.78 1033.26
  L 1111.79 1033.22
  Q 1112.25 1033.22 1112.27 1032.73
  L 1112.53 1025.48
  Q 1112.55 1025.01 1113.04 1025.01
  L 1120.26 1024.98
  Q 1120.79 1024.97 1120.79 1025.52
  L 1120.79 1032.75
  Q 1120.79 1033.21 1121.25 1033.22
  L 1124.34 1033.26
  Q 1124.90 1033.27 1124.93 1033.84
  L 1125.06 1036.79
  Q 1125.09 1037.47 1125.77 1037.46
  L 1128.39 1037.43
  Q 1128.98 1037.42 1128.98 1036.85
  L 1129.04 1021.19
  A 0.52 0.52 0.0 0 1 1129.57 1020.67
  L 1132.74 1020.75
  Q 1133.25 1020.77 1133.25 1020.27
  L 1133.25 1016.98
  Q 1133.25 1016.48 1133.72 1016.48
  L 1141.05 1016.49
  Q 1141.52 1016.49 1141.52 1015.98
  L 1141.42 991.84
  Q 1141.41 991.52 1141.09 991.53
  L 1138.02 991.57
  Q 1137.70 991.58 1137.68 991.89
  L 1137.41 995.95
  L 1133.35 995.84
  L 1133.12 991.29
  Q 1133.42 989.62 1133.09 988.06
  Q 1132.98 987.54 1132.44 987.56
  L 1129.18 987.66
  L 1129.07 983.81
  Q 1129.05 983.18 1129.61 983.19
  L 1132.74 983.25
  Q 1133.22 983.26 1133.23 982.73
  L 1133.27 966.33
  L 1137.42 966.39
  L 1141.04 966.53
  Q 1141.52 966.55 1141.52 967.03
  L 1141.51 970.25
  Q 1141.51 970.74 1141.99 970.74
  L 1145.49 970.74
  A 0.24 0.23 0.1 0 0 1145.73 970.51
  L 1145.74 966.98
  Q 1145.74 966.48 1146.27 966.48
  L 1153.46 966.49
  Q 1153.94 966.49 1153.95 966.02
  L 1154.11 958.11
  L 1158.25 958.08
  Z"
/>
<path fill="#02a7b9" d="
  M 1137.42 966.39
  L 1133.27 966.33
  L 1133.22 963.30
  Q 1133.21 962.43 1134.01 962.45
  L 1136.99 962.50
  A 0.64 0.62 -87.9 0 1 1137.59 963.18
  L 1137.42 966.39
  Z"
/>
<path fill="#fca1b3" d="
  M 958.48 975.16
  Q 957.99 976.66 958.34 978.30
  Q 958.44 978.80 958.94 978.92
  Q 960.35 979.24 961.79 978.90
  Q 962.28 978.78 962.38 978.28
  Q 962.62 977.01 962.38 975.73
  Q 962.41 975.54 962.37 975.39
  Q 962.30 975.15 962.55 975.15
  L 966.75 975.08
  Q 966.27 976.76 966.62 978.37
  Q 966.74 978.89 967.27 978.90
  L 970.64 978.97
  L 970.74 991.00
  Q 970.75 991.52 971.24 991.52
  L 974.50 991.47
  Q 974.99 991.46 974.99 991.99
  L 975.01 1003.34
  Q 975.01 1003.94 975.58 1003.96
  L 978.31 1004.09
  Q 979.00 1004.12 979.00 1004.81
  L 978.98 1007.58
  Q 978.98 1008.35 978.21 1008.31
  L 975.40 1008.17
  L 958.33 1003.47
  L 958.22 987.98
  Q 958.21 987.48 957.73 987.49
  L 954.56 987.56
  Q 954.06 987.57 954.06 987.06
  L 954.03 975.90
  Q 954.03 975.35 954.59 975.23
  Q 956.55 974.81 958.48 975.16
  Z"
/>
<path fill="#02a7b9" d="
  M 962.38 975.73
  Q 962.62 977.01 962.38 978.28
  Q 962.28 978.78 961.79 978.90
  Q 960.35 979.24 958.94 978.92
  Q 958.44 978.80 958.34 978.30
  Q 957.99 976.66 958.48 975.16
  Q 960.23 974.71 961.90 975.07
  Q 962.17 975.12 962.27 975.29
  Q 962.38 975.48 962.38 975.73
  Z"
/>
<path fill="#02a7b9" d="
  M 970.64 978.97
  L 967.27 978.90
  Q 966.74 978.89 966.62 978.37
  Q 966.27 976.76 966.75 975.08
  L 969.98 975.13
  Q 970.51 975.13 970.62 975.66
  Q 970.94 977.22 970.64 978.97
  Z"
/>
<path fill="#02a7b9" d="
  M 1037.45 983.18
  L 1033.28 983.11
  L 1033.25 975.34
  A 0.32 0.31 90.0 0 1 1033.57 975.02
  L 1037.20 975.03
  Q 1037.49 975.03 1037.48 975.30
  L 1037.45 983.18
  Z"
/>
<rect fill="#02a7b9" x="-1.96" y="-2.09" transform="translate(1052.01,981.16) rotate(1.1)" width="3.92" height="4.18" rx="0.83"/>
<path fill="#02a7b9" d="
  M 1133.12 991.29
  L 1129.85 991.44
  Q 1129.31 991.47 1129.18 990.95
  Q 1128.78 989.37 1129.18 987.66
  L 1132.44 987.56
  Q 1132.98 987.54 1133.09 988.06
  Q 1133.42 989.62 1133.12 991.29
  Z"
/>
<path fill="#02a7b9" d="
  M 895.69 995.57
  L 891.67 995.68
  L 891.54 992.15
  Q 891.52 991.51 892.10 991.50
  L 895.09 991.46
  Q 895.65 991.45 895.66 992.04
  L 895.69 995.57
  Z"
/>
<path fill="#fca1b3" d="
  M 895.69 995.57
  L 895.82 999.40
  Q 895.83 999.91 896.34 999.93
  L 900.16 1000.08
  L 900.10 1008.03
  L 899.96 1012.39
  Q 893.12 1023.64 887.51 1036.01
  L 887.40 1013.09
  Q 887.39 1012.57 886.87 1012.56
  L 883.31 1012.50
  L 883.20 999.98
  L 886.93 999.94
  Q 887.53 999.93 887.53 999.55
  L 887.49 996.04
  Q 887.49 995.81 887.95 995.79
  L 891.67 995.68
  L 895.69 995.57
  Z"
/>
<path fill="#02a7b9" d="
  M 883.20 999.98
  L 883.31 1012.50
  L 883.29 1015.94
  Q 883.28 1016.50 882.76 1016.50
  L 879.53 1016.52
  Q 879.00 1016.53 879.00 1016.02
  L 879.03 1000.51
  Q 879.03 999.98 878.53 999.99
  L 875.39 1000.02
  Q 874.99 1000.03 874.99 999.62
  L 875.01 996.23
  Q 875.01 995.74 875.52 995.74
  L 882.75 995.76
  Q 883.21 995.76 883.21 996.25
  L 883.20 999.98
  Z"
/>
<path fill="#02a7b9" d="
  M 1137.41 995.95
  L 1137.47 999.64
  Q 1137.47 999.99 1137.12 999.99
  L 1133.73 999.96
  A 0.37 0.35 0.2 0 1 1133.36 999.61
  L 1133.35 995.84
  L 1137.41 995.95
  Z"
/>
<path fill="#02a7b9" d="
  M 900.10 1008.03
  L 900.16 1000.08
  L 903.15 999.96
  Q 904.03 999.92 904.02 1000.80
  L 903.99 1007.49
  Q 903.98 1008.38 903.09 1008.30
  L 900.10 1008.03
  Z"
/>
<path fill="#02a7b9" d="
  M 878.82 1045.93
  L 878.99 1049.63
  Q 878.15 1049.97 877.18 1050.00
  L 876.58 1045.83
  Q 877.71 1045.41 878.82 1045.93
  Z"
/>
<path fill="#000000" d="
  M 878.99 1049.63
  L 879.00 1053.81
  Q 878.18 1054.06 877.01 1054.01
  Q 877.59 1051.92 877.18 1050.00
  Q 878.15 1049.97 878.99 1049.63
  Z"
/>
<path fill="#fba0b2" d="
  M 895.99 1138.79
  Q 895.93 1141.76 893.17 1141.95
  Q 892.66 1141.99 892.37 1142.41
  Q 891.61 1143.52 891.75 1145.53
  Q 891.19 1147.27 891.54 1149.08
  Q 891.64 1149.58 892.12 1149.71
  Q 893.79 1150.15 895.66 1150.02
  L 895.69 1158.29
  L 892.16 1158.35
  Q 891.62 1158.35 891.60 1158.89
  L 891.47 1162.51
  L 883.74 1162.56
  Q 883.25 1162.57 883.25 1163.02
  L 883.29 1165.99
  Q 883.30 1166.46 882.79 1166.46
  L 878.90 1166.40
  L 878.88 1158.98
  Q 878.88 1158.46 878.37 1158.37
  Q 876.88 1158.10 875.15 1158.39
  L 874.91 1154.59
  Q 874.87 1154.01 874.31 1154.01
  L 866.97 1154.00
  Q 866.45 1154.00 866.47 1153.48
  L 866.52 1150.74
  Q 866.54 1150.20 866.00 1150.11
  Q 864.14 1149.78 862.41 1150.21
  L 858.95 1149.87
  A 0.59 0.59 0.0 0 1 858.42 1149.30
  L 858.25 1141.52
  L 858.29 1137.97
  Q 858.29 1137.49 858.66 1137.49
  L 862.11 1137.51
  Q 862.45 1137.51 862.46 1137.03
  L 862.50 1125.52
  Q 862.50 1125.02 862.97 1125.02
  L 865.97 1125.01
  Q 866.44 1125.01 866.45 1124.53
  L 866.52 1121.29
  Q 866.53 1120.85 866.09 1120.83
  L 862.23 1120.64
  Q 862.75 1118.89 862.40 1117.16
  Q 862.30 1116.63 861.76 1116.62
  L 858.29 1116.54
  L 858.25 1100.50
  Q 858.25 1099.99 857.74 1100.00
  L 854.67 1100.02
  Q 854.06 1100.02 854.03 1099.42
  L 853.91 1096.74
  Q 859.57 1085.52 866.72 1074.96
  L 874.52 1074.95
  Q 875.02 1074.95 875.02 1074.48
  L 875.03 1071.35
  Q 875.03 1070.75 875.62 1070.76
  L 878.50 1070.78
  Q 879.01 1070.78 879.01 1070.26
  L 879.01 1058.93
  A 0.65 0.63 0.5 0 0 878.37 1058.31
  L 875.73 1058.26
  L 877.01 1054.01
  Q 878.18 1054.06 879.00 1053.81
  C 880.92 1060.87 882.09 1067.42 880.64 1074.28
  Q 879.48 1079.79 876.82 1091.67
  C 874.11 1103.80 875.84 1114.88 883.31 1124.74
  Q 887.83 1130.72 895.99 1138.79
  Z"
/>
<path fill="#000000" d="
  M 866.72 1074.96
  L 870.44 1069.39
  Q 870.40 1071.30 874.37 1070.73
  Q 875.02 1070.64 875.02 1070.01
  L 874.99 1067.03
  A 0.61 0.60 84.0 0 0 874.26 1066.44
  Q 873.51 1066.60 872.54 1066.32
  L 875.73 1058.26
  L 878.37 1058.31
  A 0.65 0.63 0.5 0 1 879.01 1058.93
  L 879.01 1070.26
  Q 879.01 1070.78 878.50 1070.78
  L 875.62 1070.76
  Q 875.03 1070.75 875.03 1071.35
  L 875.02 1074.48
  Q 875.02 1074.95 874.52 1074.95
  L 866.72 1074.96
  Z"
/>
<path fill="#02a7b9" d="
  M 872.54 1066.32
  Q 873.51 1066.60 874.26 1066.44
  A 0.61 0.60 84.0 0 1 874.99 1067.03
  L 875.02 1070.01
  Q 875.02 1070.64 874.37 1070.73
  Q 870.40 1071.30 870.44 1069.39
  L 872.54 1066.32
  Z"
/>
<path fill="#000000" d="
  M 853.91 1096.74
  L 854.03 1099.42
  Q 854.06 1100.02 854.67 1100.02
  L 857.74 1100.00
  Q 858.25 1099.99 858.25 1100.50
  L 858.29 1116.54
  L 858.31 1120.13
  Q 858.31 1120.67 858.85 1120.67
  L 862.23 1120.64
  L 866.09 1120.83
  Q 866.53 1120.85 866.52 1121.29
  L 866.45 1124.53
  Q 866.44 1125.01 865.97 1125.01
  L 862.97 1125.02
  Q 862.50 1125.02 862.50 1125.52
  L 862.46 1137.03
  Q 862.45 1137.51 862.11 1137.51
  L 858.66 1137.49
  Q 858.29 1137.49 858.29 1137.97
  L 858.25 1141.52
  L 854.49 1141.56
  Q 854.02 1141.56 854.02 1142.02
  L 854.02 1149.47
  A 0.50 0.49 89.6 0 1 853.54 1149.97
  L 850.75 1150.02
  Q 850.03 1150.03 850.03 1150.74
  L 850.02 1153.19
  Q 850.02 1153.93 850.72 1153.95
  L 853.53 1154.03
  Q 854.03 1154.05 854.02 1154.51
  L 853.97 1157.42
  Q 853.96 1158.26 854.90 1158.26
  L 861.59 1158.26
  Q 862.59 1158.26 862.56 1157.23
  L 862.41 1150.21
  Q 864.14 1149.78 866.00 1150.11
  Q 866.54 1150.20 866.52 1150.74
  L 866.47 1153.48
  Q 866.45 1154.00 866.97 1154.00
  L 874.31 1154.01
  Q 874.87 1154.01 874.91 1154.59
  L 875.15 1158.39
  L 875.12 1165.86
  Q 875.11 1166.42 875.67 1166.41
  L 878.90 1166.40
  L 882.79 1166.46
  Q 883.30 1166.46 883.29 1165.99
  L 883.25 1163.02
  Q 883.25 1162.57 883.74 1162.56
  L 891.47 1162.51
  L 891.50 1165.99
  A 0.53 0.50 89.6 0 0 892.00 1166.51
  L 895.29 1166.49
  Q 895.72 1166.49 895.71 1166.09
  L 895.69 1158.29
  L 895.66 1150.02
  L 895.71 1146.56
  Q 895.72 1146.03 895.21 1145.88
  Q 893.52 1145.38 891.75 1145.53
  Q 891.61 1143.52 892.37 1142.41
  Q 892.66 1141.99 893.17 1141.95
  Q 895.93 1141.76 895.99 1138.79
  Q 901.33 1137.14 907.54 1137.71
  A 0.60 0.60 0.0 0 1 908.08 1138.28
  L 908.48 1145.24
  A 0.55 0.53 89.6 0 0 908.98 1145.76
  L 911.80 1145.89
  Q 912.39 1145.92 912.40 1146.52
  L 912.42 1149.29
  A 0.62 0.60 0.8 0 0 913.02 1149.89
  L 920.20 1150.12
  Q 920.81 1150.14 920.78 1150.75
  L 920.67 1153.29
  Q 920.64 1153.95 921.30 1153.97
  L 924.31 1154.01
  A 0.77 0.70 -89.6 0 1 925.00 1154.78
  L 925.00 1157.65
  Q 925.00 1158.28 924.44 1158.27
  L 921.28 1158.21
  Q 920.77 1158.20 920.75 1158.73
  L 920.55 1165.97
  Q 920.54 1166.50 920.05 1166.48
  L 917.46 1166.38
  Q 916.61 1166.35 916.60 1167.20
  L 916.48 1174.28
  A 0.75 0.71 -89.7 0 0 917.19 1175.04
  L 920.27 1175.02
  Q 920.73 1175.01 920.73 1175.51
  L 920.75 1190.89
  Q 920.75 1191.53 921.39 1191.53
  L 928.50 1191.51
  Q 928.98 1191.51 928.98 1192.00
  L 929.01 1199.36
  Q 929.01 1199.97 929.61 1199.98
  L 932.70 1200.04
  A 0.63 0.57 -89.2 0 1 933.26 1200.68
  L 933.24 1203.25
  Q 933.23 1203.94 932.52 1203.96
  L 929.67 1204.01
  Q 929.10 1204.02 929.07 1204.58
  L 928.90 1207.70
  Q 928.87 1208.30 928.25 1208.28
  L 925.55 1208.21
  Q 925.04 1208.19 925.03 1208.70
  L 924.98 1215.98
  Q 924.97 1216.43 924.53 1216.43
  L 913.07 1216.52
  Q 912.42 1216.52 912.42 1217.15
  L 912.43 1219.98
  Q 912.44 1220.67 911.76 1220.67
  L 909.09 1220.68
  Q 908.21 1220.68 908.21 1221.57
  L 908.18 1228.28
  A 0.80 0.74 0.4 0 0 908.97 1229.02
  L 911.96 1229.05
  Q 912.44 1229.05 912.42 1229.54
  Q 912.16 1235.61 912.74 1240.74
  Q 912.81 1241.42 913.48 1241.57
  L 914.86 1241.88
  A 1.42 1.42 0.0 0 1 915.72 1242.46
  Q 916.42 1243.48 916.08 1244.98
  Q 915.96 1245.48 915.45 1245.52
  L 913.05 1245.71
  A 0.69 0.69 0.0 0 0 912.42 1246.40
  L 912.44 1249.28
  A 0.61 0.60 -1.8 0 1 911.86 1249.88
  L 908.80 1250.05
  A 0.63 0.57 88.7 0 0 908.27 1250.68
  L 908.19 1278.48
  Q 908.19 1279.03 908.74 1279.03
  L 911.90 1279.01
  A 0.67 0.60 -1.2 0 0 912.57 1278.38
  L 912.46 1275.75
  Q 912.43 1274.99 913.16 1274.99
  L 915.85 1274.99
  Q 916.53 1274.99 916.52 1275.75
  L 916.48 1282.76
  Q 916.48 1283.29 917.01 1283.28
  L 920.26 1283.24
  Q 920.79 1283.23 920.78 1283.76
  L 920.72 1287.02
  Q 920.71 1287.52 920.25 1287.51
  L 917.00 1287.46
  Q 916.51 1287.45 916.50 1287.97
  L 916.41 1295.02
  L 903.29 1300.11
  L 896.36 1300.09
  Q 895.84 1300.09 895.78 1300.60
  Q 895.63 1301.70 895.99 1302.84
  L 890.08 1305.37
  Q 889.62 1305.57 889.30 1305.95
  Q 889.17 1306.11 889.03 1306.25
  Q 888.89 1306.38 888.71 1306.45
  Q 886.03 1307.45 883.21 1308.28
  L 883.21 1304.51
  Q 883.21 1303.99 882.71 1304.00
  L 875.53 1304.03
  Q 875.03 1304.03 875.02 1303.52
  L 874.98 1296.23
  Q 874.98 1295.73 874.49 1295.73
  L 871.24 1295.71
  Q 870.75 1295.71 870.75 1296.26
  L 870.75 1299.04
  Q 870.75 1300.04 869.74 1300.04
  L 863.25 1300.03
  Q 862.42 1300.03 862.44 1299.26
  L 862.52 1296.24
  Q 862.53 1295.73 861.99 1295.73
  L 854.65 1295.73
  Q 854.06 1295.73 854.05 1295.15
  L 853.94 1291.94
  Q 853.93 1291.45 853.48 1291.45
  L 850.68 1291.45
  Q 850.04 1291.46 850.03 1292.12
  L 850.02 1303.21
  A 0.77 0.74 89.0 0 1 849.31 1303.97
  L 846.30 1304.08
  Q 845.75 1304.10 845.75 1304.65
  L 845.76 1310.87
  Q 832.17 1309.97 822.32 1301.27
  Q 819.91 1299.14 819.02 1296.64
  Q 815.06 1285.53 816.71 1273.73
  Q 818.36 1261.96 822.92 1240.45
  Q 823.83 1236.15 830.55 1214.61
  Q 833.63 1204.75 835.18 1198.81
  Q 838.09 1187.70 839.04 1182.79
  Q 840.96 1172.93 841.22 1161.26
  Q 841.55 1146.22 842.47 1133.75
  Q 843.81 1115.68 853.91 1096.74
  Z
  M 883.2382 1171.1553
  A 0.42 0.42 0.0 0 0 882.8152 1170.7383
  L 879.4353 1170.7618
  A 0.42 0.42 0.0 0 0 879.0183 1171.1848
  L 879.0418 1174.5647
  A 0.42 0.42 0.0 0 0 879.4648 1174.9817
  L 882.8447 1174.9582
  A 0.42 0.42 0.0 0 0 883.2617 1174.5352
  L 883.2382 1171.1553
  Z
  M 845.7677 1300.6862
  A 0.67 0.67 0.0 0 0 845.0966 1300.0174
  L 842.1366 1300.0226
  A 0.67 0.67 0.0 0 0 841.4677 1300.6938
  L 841.4723 1303.2938
  A 0.67 0.67 0.0 0 0 842.1434 1303.9626
  L 845.1034 1303.9574
  A 0.67 0.67 0.0 0 0 845.7723 1303.2862
  L 845.7677 1300.6862
  Z"
/>
<path fill="#02a7b9" d="
  M 862.23 1120.64
  L 858.85 1120.67
  Q 858.31 1120.67 858.31 1120.13
  L 858.29 1116.54
  L 861.76 1116.62
  Q 862.30 1116.63 862.40 1117.16
  Q 862.75 1118.89 862.23 1120.64
  Z"
/>
<path fill="#02a7b9" d="
  M 858.25 1141.52
  L 858.42 1149.30
  A 0.59 0.59 0.0 0 0 858.95 1149.87
  L 862.41 1150.21
  L 862.56 1157.23
  Q 862.59 1158.26 861.59 1158.26
  L 854.90 1158.26
  Q 853.96 1158.26 853.97 1157.42
  L 854.02 1154.51
  Q 854.03 1154.05 853.53 1154.03
  L 850.72 1153.95
  Q 850.02 1153.93 850.02 1153.19
  L 850.03 1150.74
  Q 850.03 1150.03 850.75 1150.02
  L 853.54 1149.97
  A 0.50 0.49 89.6 0 0 854.02 1149.47
  L 854.02 1142.02
  Q 854.02 1141.56 854.49 1141.56
  L 858.25 1141.52
  Z"
/>
<path fill="#02a7b9" d="
  M 895.66 1150.02
  Q 893.79 1150.15 892.12 1149.71
  Q 891.64 1149.58 891.54 1149.08
  Q 891.19 1147.27 891.75 1145.53
  Q 893.52 1145.38 895.21 1145.88
  Q 895.72 1146.03 895.71 1146.56
  L 895.66 1150.02
  Z"
/>
<path fill="#02a7b9" d="
  M 878.90 1166.40
  L 875.67 1166.41
  Q 875.11 1166.42 875.12 1165.86
  L 875.15 1158.39
  Q 876.88 1158.10 878.37 1158.37
  Q 878.88 1158.46 878.88 1158.98
  L 878.90 1166.40
  Z"
/>
<path fill="#02a7b9" d="
  M 895.69 1158.29
  L 895.71 1166.09
  Q 895.72 1166.49 895.29 1166.49
  L 892.00 1166.51
  A 0.53 0.50 89.6 0 1 891.50 1165.99
  L 891.47 1162.51
  L 891.60 1158.89
  Q 891.62 1158.35 892.16 1158.35
  L 895.69 1158.29
  Z"
/>
<rect fill="#02a7b9" x="-2.11" y="-2.11" transform="translate(881.14,1172.86) rotate(-0.4)" width="4.22" height="4.22" rx="0.42"/>
<path fill="#fba0b2" d="
  M 883.21 1308.28
  Q 876.03 1310.25 866.76 1310.81
  Q 854.86 1311.54 845.76 1310.87
  L 845.75 1304.65
  Q 845.75 1304.10 846.30 1304.08
  L 849.31 1303.97
  A 0.77 0.74 89.0 0 0 850.02 1303.21
  L 850.03 1292.12
  Q 850.04 1291.46 850.68 1291.45
  L 853.48 1291.45
  Q 853.93 1291.45 853.94 1291.94
  L 854.05 1295.15
  Q 854.06 1295.73 854.65 1295.73
  L 861.99 1295.73
  Q 862.53 1295.73 862.52 1296.24
  L 862.44 1299.26
  Q 862.42 1300.03 863.25 1300.03
  L 869.74 1300.04
  Q 870.75 1300.04 870.75 1299.04
  L 870.75 1296.26
  Q 870.75 1295.71 871.24 1295.71
  L 874.49 1295.73
  Q 874.98 1295.73 874.98 1296.23
  L 875.02 1303.52
  Q 875.03 1304.03 875.53 1304.03
  L 882.71 1304.00
  Q 883.21 1303.99 883.21 1304.51
  L 883.21 1308.28
  Z"
/>
<rect fill="#02a7b9" x="-2.15" y="-1.97" transform="translate(843.62,1301.99) rotate(-0.1)" width="4.30" height="3.94" rx="0.67"/>
<path fill="#fca1b3" d="
  M 903.29 1300.11
  L 895.99 1302.84
  Q 895.63 1301.70 895.78 1300.60
  Q 895.84 1300.09 896.36 1300.09
  L 903.29 1300.11
  Z"
/>
</svg>
