<?xml version="1.0" encoding="UTF-8" standalone="no"?>
<!DOCTYPE svg PUBLIC "-//W3C//DTD SVG 1.1//EN" "http://www.w3.org/Graphics/SVG/1.1/DTD/svg11.dtd">
<svg xmlns="http://www.w3.org/2000/svg" version="1.1" viewBox="0.00 0.00 382.00 382.00" width="382.00" height="382.00">
<g stroke-width="2.00" fill="none" stroke-linecap="butt">
<path stroke="#6b0904" vector-effect="non-scaling-stroke" d="
  M 299.14 126.54
  Q 296.54 127.41 296.10 130.22
  Q 295.93 131.32 296.73 130.54
  Q 297.47 129.83 298.92 130.06"
/>
<path stroke="#6b0904" vector-effect="non-scaling-stroke" d="
  M 297.87 135.97
  L 295.94 136.53
  Q 295.48 136.66 295.03 136.50
  Q 294.11 136.15 293.49 136.91
  Q 293.12 137.37 293.37 137.84
  L 293.58 138.24
  Q 293.76 138.56 293.56 138.87
  Q 292.85 140.03 293.38 141.15
  Q 293.63 141.69 293.17 141.90
  L 292.68 142.11
  A 0.97 0.92 89.3 0 0 292.17 142.65
  Q 291.65 144.05 290.98 144.56
  Q 289.59 145.62 290.49 144.13
  Q 290.93 143.40 290.91 141.95
  A 1.25 1.25 0.0 0 1 291.24 141.09
  Q 292.23 140.02 291.93 138.82
  Q 291.83 138.39 291.67 138.22
  L 290.58 137.03
  Q 289.97 136.37 290.61 136.21
  Q 292.28 135.78 292.77 134.49
  A 1.04 1.04 0.0 0 0 292.71 133.63
  Q 292.20 132.68 292.32 131.72
  C 292.53 129.87 291.92 127.88 291.46 126.66
  Q 291.29 126.20 291.59 125.81
  Q 291.99 125.27 291.93 124.68
  Q 291.83 123.88 291.16 124.43
  L 290.92 124.64
  Q 290.48 125.00 290.32 124.49
  Q 289.67 122.49 287.81 122.97"
/>
<path stroke="#6b0904" vector-effect="non-scaling-stroke" d="
  M 296.47 197.12
  Q 295.44 196.86 294.35 199.15
  A 0.75 0.67 -56.2 0 0 294.47 199.96
  L 295.70 201.17
  A 0.63 0.61 -44.5 0 1 295.67 202.06
  L 294.67 203.01
  Q 294.25 203.41 294.72 203.94
  L 294.97 204.21
  Q 295.17 204.43 294.81 204.88
  Q 293.45 206.58 294.85 208.15"
/>
<path stroke="#6a0703" vector-effect="non-scaling-stroke" d="
  M 288.34 242.45
  Q 288.29 241.54 287.77 241.29
  Q 287.22 241.03 287.04 241.60
  Q 286.90 242.03 286.97 243.05
  Q 287.09 244.66 285.93 243.47
  L 284.19 241.69
  A 0.86 0.81 -54.3 0 1 284.06 240.73
  L 285.19 238.50
  Q 285.42 238.05 285.92 238.02
  Q 286.61 237.97 286.72 237.86
  Q 287.16 237.43 286.61 237.13
  Q 284.60 236.05 283.61 236.58
  Q 283.02 236.90 282.90 236.23
  Q 282.77 235.49 282.60 235.30
  Q 282.23 234.87 282.02 235.34
  L 281.88 235.67
  Q 281.75 235.97 281.40 235.90
  Q 281.23 235.87 281.14 235.73
  Q 281.03 235.54 281.17 235.32
  Q 281.26 235.20 281.56 235.05
  Q 281.93 234.87 281.92 234.46
  Q 281.78 231.39 284.74 230.67
  Q 284.98 230.61 284.86 230.36
  L 284.71 230.07
  A 0.38 0.38 0.0 0 0 284.33 229.87
  Q 283.61 229.94 283.42 229.84
  Q 282.85 229.54 283.35 229.11
  L 284.90 227.78
  Q 285.02 227.68 284.99 227.52
  L 284.91 227.07
  A 0.24 0.24 0.0 0 0 284.50 226.95
  L 282.57 228.95
  A 2.05 2.03 -28.6 0 1 279.09 227.95
  Q 278.73 226.07 279.66 223.69
  Q 279.78 223.40 279.63 223.12
  L 279.48 222.83
  Q 279.09 222.10 279.85 222.02
  Q 280.29 221.98 281.59 222.77
  A 0.12 0.12 0.0 0 0 281.74 222.57
  Q 280.76 221.63 281.03 220.58
  A 0.50 0.46 -59.0 0 1 281.85 220.34
  L 282.21 220.77
  A 0.56 0.50 -43.2 0 0 282.99 220.75
  L 283.83 219.89
  A 0.46 0.44 -56.2 0 0 283.71 219.16
  L 281.68 218.34
  Q 281.15 218.12 280.77 218.56
  L 279.83 219.66
  A 0.59 0.49 51.9 0 1 278.97 219.48
  L 277.32 216.66
  Q 277.07 216.24 277.50 215.92
  Q 277.82 215.67 277.74 215.36
  Q 277.61 214.85 277.22 215.24
  L 275.49 216.97
  Q 275.08 217.37 275.45 217.83
  L 276.49 219.14
  Q 276.80 219.54 276.50 220.08
  Q 276.09 220.83 276.58 221.17
  A 1.46 1.06 -42.3 0 1 276.16 223.20
  L 274.48 224.40
  A 1.65 1.20 -15.4 0 0 273.92 225.11
  Q 273.73 225.65 273.32 225.89
  A 0.64 0.59 -32.4 0 1 272.50 225.74
  L 269.60 221.54
  Q 269.48 221.38 269.52 221.17
  Q 269.55 221.04 269.61 220.89
  Q 269.83 220.39 269.32 220.14
  L 267.64 219.32
  A 0.50 0.48 86.5 0 0 267.02 220.04
  Q 269.25 223.73 266.47 226.01
  Q 266.05 226.36 266.33 226.84
  Q 267.02 228.01 268.24 228.12
  Q 268.84 228.17 268.95 227.57
  L 269.12 226.50
  Q 269.15 226.31 269.32 226.21
  Q 269.50 226.10 269.68 226.16
  Q 269.99 226.27 269.98 226.61
  Q 269.90 228.85 270.53 230.14
  Q 270.76 230.60 270.43 230.99
  Q 269.00 232.67 267.66 233.14
  Q 266.44 233.58 267.66 234.03
  Q 268.36 234.30 269.03 233.39
  Q 269.37 232.94 269.75 233.30
  L 272.12 235.58
  Q 272.62 236.06 272.84 235.40
  L 273.19 234.32
  A 0.38 0.33 37.0 0 1 273.82 234.27
  L 274.03 234.54
  Q 274.05 234.56 273.98 234.74
  L 272.62 238.41
  Q 272.49 238.75 272.18 238.97
  Q 272.04 239.07 271.83 239.11
  A 0.43 0.43 0.0 0 0 271.51 239.68
  Q 271.76 240.40 271.40 241.15
  C 270.94 242.10 270.90 243.01 271.01 243.83
  Q 271.24 245.48 269.92 244.45
  Q 268.83 243.58 267.62 241.23
  Q 267.38 240.76 266.85 240.86
  Q 266.21 240.97 266.06 241.82
  Q 265.85 243.01 265.96 244.24
  Q 265.99 244.50 265.76 244.63
  Q 265.64 244.69 265.43 244.70
  Q 265.04 244.73 265.03 244.34
  Q 265.02 243.52 264.83 243.35
  Q 264.44 243.00 264.21 243.79
  Q 263.95 244.68 262.66 245.17
  Q 260.33 246.05 261.09 248.55
  Q 261.27 249.13 261.69 248.70
  Q 262.17 248.23 262.67 248.24
  A 0.21 0.21 0.0 0 1 262.79 248.63
  Q 259.83 250.71 259.84 253.62
  A 0.30 0.29 76.2 0 1 259.69 253.88
  Q 259.61 253.91 259.42 253.90
  Q 259.20 253.88 259.13 253.66
  L 258.52 251.82
  A 1.15 0.95 -43.8 0 1 258.62 250.99
  Q 259.61 249.13 258.46 247.78
  Q 258.21 247.47 258.42 247.14
  L 258.67 246.76
  A 0.50 0.50 0.0 0 0 258.34 246.00
  Q 258.04 245.94 257.75 246.02
  A 1.05 0.99 -87.9 0 0 257.02 246.73
  L 256.83 247.40
  Q 256.62 248.11 256.09 247.65
  Q 255.03 246.75 255.00 244.85
  Q 254.99 244.22 255.59 244.14
  L 256.51 244.01
  A 0.48 0.48 0.0 0 0 256.86 243.30
  Q 256.55 242.72 255.82 242.36
  Q 255.34 242.12 254.93 242.48
  Q 254.11 243.19 253.34 241.71
  Q 253.19 241.42 253.41 241.19
  L 254.79 239.76
  Q 255.20 239.33 254.99 238.81
  Q 254.62 237.88 253.65 237.13
  A 0.82 0.68 40.4 0 1 253.46 236.03
  L 255.75 233.66
  Q 256.39 233.00 255.54 232.96
  Q 254.64 232.91 253.78 233.57
  Q 253.35 233.90 253.14 233.46
  L 252.15 231.45
  Q 251.93 231.00 252.21 230.56
  Q 253.52 228.52 255.63 227.67
  Q 256.18 227.45 255.64 227.21
  Q 255.17 227.01 254.81 226.99
  A 0.71 0.71 0.0 0 1 254.13 226.30
  Q 254.11 225.04 253.99 223.33
  Q 253.98 223.27 253.93 223.22
  Q 253.77 223.09 253.68 223.08
  A 0.42 0.41 8.8 0 0 253.24 223.40
  Q 252.94 224.60 252.45 225.09
  Q 251.97 225.56 252.58 226.02
  Q 252.71 226.12 252.80 226.28
  Q 253.11 226.82 252.49 226.85
  Q 251.01 226.93 249.48 227.62
  Q 248.91 227.87 248.62 227.28
  L 247.18 224.39
  Q 246.97 223.98 247.17 223.54
  L 247.60 222.60
  Q 247.84 222.05 247.34 221.90
  Q 246.75 221.71 246.37 222.14
  Q 245.85 222.72 245.88 224.19
  Q 245.90 224.80 245.29 224.87
  Q 243.54 225.08 244.14 227.46
  Q 244.26 227.95 244.73 228.14
  Q 245.04 228.26 245.43 228.13
  A 0.50 0.46 -84.7 0 1 245.96 228.83
  L 245.17 230.51
  Q 244.95 230.97 245.16 231.38
  L 246.23 233.46
  Q 246.46 233.91 246.84 233.62
  L 247.09 233.43
  Q 247.58 233.07 247.85 233.63
  C 248.20 234.37 248.04 235.26 247.29 235.74
  Q 246.52 236.24 246.47 236.28
  Q 246.05 236.60 245.92 237.07
  Q 245.66 237.94 244.88 237.87
  Q 244.09 237.80 243.74 237.43
  Q 243.06 236.73 242.89 235.37
  A 0.35 0.30 -12.4 0 0 242.45 235.14
  L 242.20 235.21
  Q 242.14 235.23 242.12 235.32
  Q 242.01 236.33 242.66 237.08
  Q 243.03 237.49 242.69 237.93
  Q 241.97 238.85 240.94 238.48
  A 1.01 1.01 0.0 0 0 240.04 238.59
  Q 238.05 239.92 238.40 240.84
  Q 238.89 242.14 237.84 242.61
  L 237.40 242.80
  Q 236.26 243.32 236.14 242.19
  L 235.86 239.39
  A 0.22 0.21 75.8 0 0 235.56 239.20
  Q 233.92 239.90 233.31 238.78
  Q 232.91 238.04 233.75 237.98
  L 234.25 237.95
  Q 235.27 237.88 234.76 237.40
  Q 234.51 237.16 232.95 236.50
  A 1.00 0.99 -58.6 0 1 232.59 234.95
  L 233.49 233.85
  Q 233.82 233.46 233.51 233.11
  L 232.49 231.94
  A 0.79 0.77 -48.4 0 1 232.45 230.99
  Q 232.79 230.49 233.29 230.23
  A 0.47 0.47 0.0 0 1 233.96 230.49
  Q 234.09 230.84 234.43 230.88
  Q 234.90 230.92 234.75 230.48
  Q 234.04 228.35 232.51 227.65
  Q 231.95 227.39 232.03 226.77
  Q 232.33 224.74 233.84 222.71
  A 0.83 0.71 67.8 0 0 233.99 222.26
  L 234.09 218.47
  Q 234.11 217.88 233.50 217.96
  L 232.54 218.09
  Q 231.95 218.18 232.57 218.83
  Q 232.91 219.18 232.65 219.69
  Q 232.21 220.55 231.76 221.46
  Q 231.53 221.91 231.03 221.98
  Q 229.21 222.25 227.77 221.33
  Q 227.33 221.05 227.37 220.53
  Q 227.58 217.93 226.35 215.78
  Q 226.10 215.35 226.49 215.03
  Q 226.64 214.91 226.72 214.76
  Q 227.16 213.99 226.26 214.33
  Q 225.87 214.48 225.58 215.05
  Q 225.33 215.54 225.66 215.98
  Q 225.80 216.18 225.88 216.46
  Q 226.03 216.98 225.75 217.44
  Q 225.06 218.60 224.97 219.44
  Q 224.90 220.06 224.31 220.05
  L 222.49 220.01
  Q 222.23 220.00 222.18 220.30
  L 222.13 220.60
  A 0.27 0.27 0.0 0 0 222.35 220.91
  Q 223.17 221.07 224.00 221.10
  C 225.51 221.14 226.19 223.01 225.95 224.17
  Q 225.85 224.66 225.38 224.82
  Q 223.98 225.31 223.30 226.02
  A 0.64 0.64 0.0 0 0 223.34 226.94
  Q 225.42 228.78 226.92 228.46
  Q 229.10 227.99 227.68 229.70
  C 226.34 231.29 225.26 231.79 224.70 233.54
  A 0.48 0.48 0.0 0 1 223.80 233.59
  L 222.75 231.23
  Q 222.71 231.15 222.71 231.15
  Q 222.57 231.07 222.41 231.10
  Q 222.18 231.16 222.16 231.41
  L 221.97 233.96
  Q 221.92 234.61 221.35 234.87
  L 218.42 236.21
  Q 217.86 236.47 218.33 236.90
  L 219.37 237.87
  Q 219.79 238.26 219.54 238.77
  Q 219.10 239.68 218.96 241.18
  Q 218.82 242.72 218.16 241.32
  L 216.78 238.37
  A 0.52 0.46 -42.6 0 0 215.92 238.39
  Q 215.34 239.27 214.82 239.58
  A 0.43 0.43 0.0 0 1 214.17 239.22
  Q 214.14 237.68 212.71 236.14
  A 1.41 1.33 -67.7 0 1 212.35 235.20
  L 212.35 233.92
  A 0.85 0.65 -62.1 0 0 212.31 233.65
  L 210.95 229.86
  Q 210.75 229.32 211.23 229.07
  Q 211.80 228.78 211.83 228.57
  Q 211.95 227.71 211.35 228.27
  Q 211.19 228.42 211.04 228.62
  Q 210.75 229.01 210.37 228.70
  Q 209.34 227.88 207.99 228.01"
/>
<path stroke="#6f0e09" vector-effect="non-scaling-stroke" d="
  M 207.29 224.21
  Q 208.43 223.22 209.06 221.88
  Q 209.28 221.42 209.75 221.26
  Q 211.31 220.73 212.10 219.20
  A 0.56 0.56 0.0 0 0 211.49 218.40
  Q 210.13 218.70 208.62 217.81
  Q 208.21 217.56 208.14 217.09
  Q 207.70 214.17 208.35 211.24"
/>
<path stroke="#6a0703" vector-effect="non-scaling-stroke" d="
  M 218.68 311.36
  Q 217.22 308.91 218.74 306.52
  Q 219.00 306.11 218.85 305.64
  Q 218.60 304.87 217.73 304.19
  A 0.31 0.29 8.4 0 0 217.25 304.52
  L 217.59 305.26
  Q 217.80 305.71 217.32 305.97
  Q 216.65 306.32 215.68 306.00
  A 0.45 0.45 0.0 0 1 215.49 305.28
  Q 216.10 304.58 215.51 304.00
  Q 215.08 303.58 215.49 303.14
  Q 216.07 302.51 215.42 301.77
  A 0.43 0.42 -27.4 0 1 215.65 301.08
  L 216.33 300.91
  Q 216.56 300.86 216.66 300.63
  Q 216.71 300.50 216.69 300.32
  Q 216.65 300.08 216.36 300.02
  L 215.67 299.88
  Q 214.92 299.73 215.44 299.25
  Q 217.09 297.74 216.92 295.14
  Q 216.89 294.63 216.47 294.33
  Q 214.91 293.22 213.92 291.01
  A 0.45 0.45 0.0 0 1 214.42 290.39
  L 215.25 290.56
  A 1.12 1.11 -61.5 0 0 216.26 290.26
  Q 217.33 289.20 218.90 289.88
  A 0.67 0.67 0.0 0 0 219.84 289.31
  Q 219.95 287.44 221.27 286.80
  Q 221.79 286.54 221.59 286.15
  L 220.81 284.59
  Q 220.59 284.15 220.28 284.39
  Q 220.11 284.51 220.01 284.61
  Q 219.60 285.00 219.28 284.53
  Q 218.03 282.71 218.50 281.79
  Q 218.74 281.32 218.35 280.96
  Q 217.73 280.40 217.43 279.69
  Q 217.22 279.20 217.39 278.71
  Q 218.09 276.67 217.95 274.85
  A 0.84 0.84 0.0 0 0 217.52 274.17
  Q 215.81 273.22 214.72 273.43
  Q 214.14 273.53 213.95 273.09
  L 213.82 272.79
  Q 213.49 272.02 212.90 272.64
  Q 212.47 273.08 211.80 272.35
  A 0.45 0.45 0.0 0 0 211.06 272.49
  Q 210.97 272.72 210.98 272.93
  Q 211.02 273.55 211.54 273.74
  L 212.17 273.97
  Q 212.59 274.12 212.54 274.69
  L 212.13 279.39
  Q 212.10 279.81 211.71 280.13
  C 210.63 281.03 211.36 282.57 211.86 283.90
  Q 212.34 285.15 211.02 285.03
  L 210.22 284.96
  Q 208.85 284.84 208.43 283.74
  Q 207.97 282.58 207.48 281.08
  Q 207.25 280.37 206.65 280.25
  Q 206.09 280.14 206.02 280.71
  Q 205.89 281.68 205.48 281.94
  Q 205.02 282.24 204.58 281.91
  Q 203.28 280.94 201.95 282.35
  Q 201.50 282.83 202.16 282.86
  Q 203.34 282.91 203.49 282.98
  Q 204.08 283.24 203.71 283.75
  L 203.34 284.27
  A 1.17 1.10 55.1 0 0 203.19 285.28
  Q 203.67 286.77 202.99 288.32
  Q 202.08 290.38 202.16 288.13
  Q 202.23 286.18 201.04 284.56"
/>
<path stroke="#6f0e09" vector-effect="non-scaling-stroke" d="
  M 206.27 221.30
  Q 206.70 221.13 206.74 220.72
  A 0.64 0.64 0.0 0 0 206.32 220.05
  Q 206.07 219.96 205.80 220.20"
/>
<path stroke="#6a0703" vector-effect="non-scaling-stroke" d="
  M 216.21 312.31
  Q 215.43 310.14 213.78 310.08
  Q 213.28 310.06 213.43 310.54
  Q 214.03 312.51 211.51 314.03"
/>
<path stroke="#6b0904" vector-effect="non-scaling-stroke" d="
  M 211.10 314.25
  L 210.97 310.29
  Q 210.97 310.26 210.94 310.23
  Q 210.84 310.14 210.69 310.09
  Q 210.47 310.03 210.38 310.24
  Q 210.04 311.01 210.03 311.03
  Q 208.73 313.39 207.96 310.86
  Q 207.67 309.91 208.80 308.74
  Q 209.20 308.32 208.66 308.08
  L 208.41 307.97
  Q 207.91 307.75 207.39 308.17
  Q 206.93 308.56 206.90 309.54
  Q 206.90 309.77 206.58 309.84
  L 206.31 309.90
  Q 206.16 309.94 206.15 309.76
  L 205.95 307.76
  A 0.46 0.45 79.4 0 0 205.38 307.36
  Q 204.91 307.49 204.38 308.16
  Q 203.90 308.78 203.65 308.82
  Q 203.06 308.94 203.05 308.33
  Q 203.04 306.97 202.28 305.53
  A 1.13 0.97 45.9 0 1 202.22 304.60
  L 202.65 303.64
  Q 202.88 303.12 202.32 302.94
  Q 201.68 302.73 201.18 303.20
  Q 200.76 303.60 200.81 304.18
  L 200.91 305.42
  Q 200.97 306.11 200.35 305.76
  L 199.83 305.47
  Q 199.41 305.24 199.15 305.63
  Q 199.03 305.81 199.04 306.05
  Q 199.06 306.47 199.34 306.73
  Q 200.41 307.70 200.96 308.86
  A 1.49 1.38 74.0 0 1 199.90 310.97
  L 198.63 311.08
  A 0.43 0.42 68.0 0 0 198.35 311.77
  L 200.09 313.96"
/>
<path stroke="#6f0e09" vector-effect="non-scaling-stroke" d="
  M 206.82 211.25
  L 205.18 213.34
  A 0.99 0.96 -66.5 0 0 205.77 214.91
  L 206.31 214.99
  Q 206.88 215.06 206.60 215.63
  L 205.03 218.78"
/>
<path stroke="#6b0904" vector-effect="non-scaling-stroke" d="
  M 203.53 314.73
  Q 203.33 313.94 202.90 313.60
  Q 202.49 313.28 202.13 313.65
  Q 201.61 314.19 201.07 314.36"
/>
<path stroke="#6f0e09" vector-effect="non-scaling-stroke" d="
  M 298.1329 176.8168
  A 1.93 0.53 28.7 0 0 296.6945 175.4251
  A 1.93 0.53 28.7 0 0 294.7471 174.9632
  A 1.93 0.53 28.7 0 0 296.1855 176.3549
  A 1.93 0.53 28.7 0 0 298.1329 176.8168"
/>
<path stroke="#3a0904" vector-effect="non-scaling-stroke" d="
  M 294.17 193.65
  Q 294.25 194.03 294.68 193.89
  A 0.31 0.31 0.0 0 0 294.74 193.33
  Q 294.44 193.16 294.27 193.28
  Q 294.11 193.39 294.17 193.65"
/>
<path stroke="#6f0e09" vector-effect="non-scaling-stroke" d="
  M 292.66 195.96
  Q 291.78 195.28 290.18 194.89
  Q 289.70 194.77 289.96 195.19
  Q 290.26 195.66 291.40 196.18
  Q 291.91 196.42 292.07 196.96
  Q 292.17 197.33 292.45 197.74
  A 0.59 0.59 0.0 0 0 293.23 197.91
  Q 294.86 196.97 294.95 195.79
  Q 295.03 194.95 294.28 195.44
  L 293.49 195.97
  Q 293.04 196.26 292.66 195.96"
/>
<path stroke="#6f0e09" vector-effect="non-scaling-stroke" d="
  M 276.15 212.56
  A 0.33 0.33 0.0 0 0 276.35 212.80
  Q 276.57 212.90 276.76 212.80
  Q 276.90 212.73 276.96 212.49
  Q 277.12 211.84 276.84 211.36
  A 0.36 0.36 0.0 0 0 276.22 211.39
  Q 276.01 211.80 276.15 212.56"
/>
<path stroke="#3a0904" vector-effect="non-scaling-stroke" d="
  M 234.40 216.19
  Q 233.98 216.60 234.08 216.88
  A 0.29 0.29 0.0 0 0 234.59 216.94
  Q 234.97 216.35 234.73 216.17
  A 0.25 0.25 0.0 0 0 234.40 216.19"
/>
<path stroke="#3a0904" vector-effect="non-scaling-stroke" d="
  M 246.21 220.42
  Q 246.13 221.00 246.53 220.98
  Q 246.80 220.96 246.89 220.71
  Q 246.99 220.43 246.73 220.22
  A 0.32 0.32 0.0 0 0 246.21 220.42"
/>
<path stroke="#3a0904" vector-effect="non-scaling-stroke" d="
  M 211.10 226.46
  A 0.30 0.30 0.0 0 0 211.41 226.94
  Q 211.88 226.84 211.82 226.42
  Q 211.77 226.15 211.50 226.17
  Q 211.31 226.19 211.10 226.46"
/>
<path stroke="#3a0904" vector-effect="non-scaling-stroke" d="
  M 214.13 236.45
  Q 213.95 237.12 214.48 236.92
  Q 214.67 236.85 214.70 236.65
  Q 214.72 236.48 214.64 236.36
  A 0.29 0.29 0.0 0 0 214.13 236.45"
/>
<path stroke="#3a0904" vector-effect="non-scaling-stroke" d="
  M 266.25 239.39
  Q 266.15 239.84 266.40 239.97
  A 0.36 0.36 0.0 0 0 266.90 239.73
  Q 267.00 239.33 266.59 239.20
  Q 266.31 239.10 266.25 239.39"
/>
<path stroke="#6a0703" vector-effect="non-scaling-stroke" d="
  M 245.19 226.70
  Q 245.23 226.80 246.15 227.96
  Q 246.26 228.11 246.42 228.01
  Q 246.50 227.97 246.68 227.85
  A 0.33 0.33 0.0 0 0 246.79 227.39
  Q 246.19 226.46 245.65 226.19
  Q 244.85 225.79 245.19 226.70"
/>
<path stroke="#3a0904" vector-effect="non-scaling-stroke" d="
  M 203.08 290.33
  A 0.35 0.35 0.0 0 0 203.18 290.69
  Q 203.51 290.99 203.83 290.71
  A 0.31 0.31 0.0 0 0 203.75 290.21
  Q 203.20 289.94 203.08 290.33"
/>
</g>
<path fill="#d51107" d="
  M 299.14 126.54
  Q 296.54 127.41 296.10 130.22
  Q 295.93 131.32 296.73 130.54
  Q 297.47 129.83 298.92 130.06
  L 297.87 135.97
  L 295.94 136.53
  Q 295.48 136.66 295.03 136.50
  Q 294.11 136.15 293.49 136.91
  Q 293.12 137.37 293.37 137.84
  L 293.58 138.24
  Q 293.76 138.56 293.56 138.87
  Q 292.85 140.03 293.38 141.15
  Q 293.63 141.69 293.17 141.90
  L 292.68 142.11
  A 0.97 0.92 89.3 0 0 292.17 142.65
  Q 291.65 144.05 290.98 144.56
  Q 289.59 145.62 290.49 144.13
  Q 290.93 143.40 290.91 141.95
  A 1.25 1.25 0.0 0 1 291.24 141.09
  Q 292.23 140.02 291.93 138.82
  Q 291.83 138.39 291.67 138.22
  L 290.58 137.03
  Q 289.97 136.37 290.61 136.21
  Q 292.28 135.78 292.77 134.49
  A 1.04 1.04 0.0 0 0 292.71 133.63
  Q 292.20 132.68 292.32 131.72
  C 292.53 129.87 291.92 127.88 291.46 126.66
  Q 291.29 126.20 291.59 125.81
  Q 291.99 125.27 291.93 124.68
  Q 291.83 123.88 291.16 124.43
  L 290.92 124.64
  Q 290.48 125.00 290.32 124.49
  Q 289.67 122.49 287.81 122.97
  Q 289.45 119.16 290.68 115.38
  Q 292.15 110.86 287.79 109.27
  Q 285.43 108.41 282.55 107.61
  Q 281.20 107.23 280.34 104.86
  Q 279.58 102.77 280.60 100.32
  Q 280.65 100.20 281.48 99.04
  Q 282.93 97.03 283.65 99.40
  C 284.73 102.93 286.98 105.46 290.57 106.66
  Q 292.89 107.44 297.74 109.42
  A 2.29 2.29 0.0 0 1 299.14 111.22
  Q 300.22 118.71 299.14 126.54
  Z"
/>
<path fill="#000000" d="
  M 297.87 135.97
  Q 298.33 139.39 300.57 142.12
  Q 300.89 142.51 300.93 143.02
  C 301.12 145.98 300.37 148.88 300.60 151.43
  Q 301.13 157.40 299.85 167.58
  Q 299.06 173.85 298.79 176.91
  Q 298.49 180.44 297.97 186.25
  Q 297.47 191.83 296.47 197.12
  Q 295.44 196.86 294.35 199.15
  A 0.75 0.67 -56.2 0 0 294.47 199.96
  L 295.70 201.17
  A 0.63 0.61 -44.5 0 1 295.67 202.06
  L 294.67 203.01
  Q 294.25 203.41 294.72 203.94
  L 294.97 204.21
  Q 295.17 204.43 294.81 204.88
  Q 293.45 206.58 294.85 208.15
  Q 291.60 218.75 291.00 226.50
  Q 290.25 236.14 288.34 242.45
  Q 288.29 241.54 287.77 241.29
  Q 287.22 241.03 287.04 241.60
  Q 286.90 242.03 286.97 243.05
  Q 287.09 244.66 285.93 243.47
  L 284.19 241.69
  A 0.86 0.81 -54.3 0 1 284.06 240.73
  L 285.19 238.50
  Q 285.42 238.05 285.92 238.02
  Q 286.61 237.97 286.72 237.86
  Q 287.16 237.43 286.61 237.13
  Q 284.60 236.05 283.61 236.58
  Q 283.02 236.90 282.90 236.23
  Q 282.77 235.49 282.60 235.30
  Q 282.23 234.87 282.02 235.34
  L 281.88 235.67
  Q 281.75 235.97 281.40 235.90
  Q 281.23 235.87 281.14 235.73
  Q 281.03 235.54 281.17 235.32
  Q 281.26 235.20 281.56 235.05
  Q 281.93 234.87 281.92 234.46
  Q 281.78 231.39 284.74 230.67
  Q 284.98 230.61 284.86 230.36
  L 284.71 230.07
  A 0.38 0.38 0.0 0 0 284.33 229.87
  Q 283.61 229.94 283.42 229.84
  Q 282.85 229.54 283.35 229.11
  L 284.90 227.78
  Q 285.02 227.68 284.99 227.52
  L 284.91 227.07
  A 0.24 0.24 0.0 0 0 284.50 226.95
  L 282.57 228.95
  A 2.05 2.03 -28.6 0 1 279.09 227.95
  Q 278.73 226.07 279.66 223.69
  Q 279.78 223.40 279.63 223.12
  L 279.48 222.83
  Q 279.09 222.10 279.85 222.02
  Q 280.29 221.98 281.59 222.77
  A 0.12 0.12 0.0 0 0 281.74 222.57
  Q 280.76 221.63 281.03 220.58
  A 0.50 0.46 -59.0 0 1 281.85 220.34
  L 282.21 220.77
  A 0.56 0.50 -43.2 0 0 282.99 220.75
  L 283.83 219.89
  A 0.46 0.44 -56.2 0 0 283.71 219.16
  L 281.68 218.34
  Q 281.15 218.12 280.77 218.56
  L 279.83 219.66
  A 0.59 0.49 51.9 0 1 278.97 219.48
  L 277.32 216.66
  Q 277.07 216.24 277.50 215.92
  Q 277.82 215.67 277.74 215.36
  Q 277.61 214.85 277.22 215.24
  L 275.49 216.97
  Q 275.08 217.37 275.45 217.83
  L 276.49 219.14
  Q 276.80 219.54 276.50 220.08
  Q 276.09 220.83 276.58 221.17
  A 1.46 1.06 -42.3 0 1 276.16 223.20
  L 274.48 224.40
  A 1.65 1.20 -15.4 0 0 273.92 225.11
  Q 273.73 225.65 273.32 225.89
  A 0.64 0.59 -32.4 0 1 272.50 225.74
  L 269.60 221.54
  Q 269.48 221.38 269.52 221.17
  Q 269.55 221.04 269.61 220.89
  Q 269.83 220.39 269.32 220.14
  L 267.64 219.32
  A 0.50 0.48 86.5 0 0 267.02 220.04
  Q 269.25 223.73 266.47 226.01
  Q 266.05 226.36 266.33 226.84
  Q 267.02 228.01 268.24 228.12
  Q 268.84 228.17 268.95 227.57
  L 269.12 226.50
  Q 269.15 226.31 269.32 226.21
  Q 269.50 226.10 269.68 226.16
  Q 269.99 226.27 269.98 226.61
  Q 269.90 228.85 270.53 230.14
  Q 270.76 230.60 270.43 230.99
  Q 269.00 232.67 267.66 233.14
  Q 266.44 233.58 267.66 234.03
  Q 268.36 234.30 269.03 233.39
  Q 269.37 232.94 269.75 233.30
  L 272.12 235.58
  Q 272.62 236.06 272.84 235.40
  L 273.19 234.32
  A 0.38 0.33 37.0 0 1 273.82 234.27
  L 274.03 234.54
  Q 274.05 234.56 273.98 234.74
  L 272.62 238.41
  Q 272.49 238.75 272.18 238.97
  Q 272.04 239.07 271.83 239.11
  A 0.43 0.43 0.0 0 0 271.51 239.68
  Q 271.76 240.40 271.40 241.15
  C 270.94 242.10 270.90 243.01 271.01 243.83
  Q 271.24 245.48 269.92 244.45
  Q 268.83 243.58 267.62 241.23
  Q 267.38 240.76 266.85 240.86
  Q 266.21 240.97 266.06 241.82
  Q 265.85 243.01 265.96 244.24
  Q 265.99 244.50 265.76 244.63
  Q 265.64 244.69 265.43 244.70
  Q 265.04 244.73 265.03 244.34
  Q 265.02 243.52 264.83 243.35
  Q 264.44 243.00 264.21 243.79
  Q 263.95 244.68 262.66 245.17
  Q 260.33 246.05 261.09 248.55
  Q 261.27 249.13 261.69 248.70
  Q 262.17 248.23 262.67 248.24
  A 0.21 0.21 0.0 0 1 262.79 248.63
  Q 259.83 250.71 259.84 253.62
  A 0.30 0.29 76.2 0 1 259.69 253.88
  Q 259.61 253.91 259.42 253.90
  Q 259.20 253.88 259.13 253.66
  L 258.52 251.82
  A 1.15 0.95 -43.8 0 1 258.62 250.99
  Q 259.61 249.13 258.46 247.78
  Q 258.21 247.47 258.42 247.14
  L 258.67 246.76
  A 0.50 0.50 0.0 0 0 258.34 246.00
  Q 258.04 245.94 257.75 246.02
  A 1.05 0.99 -87.9 0 0 257.02 246.73
  L 256.83 247.40
  Q 256.62 248.11 256.09 247.65
  Q 255.03 246.75 255.00 244.85
  Q 254.99 244.22 255.59 244.14
  L 256.51 244.01
  A 0.48 0.48 0.0 0 0 256.86 243.30
  Q 256.55 242.72 255.82 242.36
  Q 255.34 242.12 254.93 242.48
  Q 254.11 243.19 253.34 241.71
  Q 253.19 241.42 253.41 241.19
  L 254.79 239.76
  Q 255.20 239.33 254.99 238.81
  Q 254.62 237.88 253.65 237.13
  A 0.82 0.68 40.4 0 1 253.46 236.03
  L 255.75 233.66
  Q 256.39 233.00 255.54 232.96
  Q 254.64 232.91 253.78 233.57
  Q 253.35 233.90 253.14 233.46
  L 252.15 231.45
  Q 251.93 231.00 252.21 230.56
  Q 253.52 228.52 255.63 227.67
  Q 256.18 227.45 255.64 227.21
  Q 255.17 227.01 254.81 226.99
  A 0.71 0.71 0.0 0 1 254.13 226.30
  Q 254.11 225.04 253.99 223.33
  Q 253.98 223.27 253.93 223.22
  Q 253.77 223.09 253.68 223.08
  A 0.42 0.41 8.8 0 0 253.24 223.40
  Q 252.94 224.60 252.45 225.09
  Q 251.97 225.56 252.58 226.02
  Q 252.71 226.12 252.80 226.28
  Q 253.11 226.82 252.49 226.85
  Q 251.01 226.93 249.48 227.62
  Q 248.91 227.87 248.62 227.28
  L 247.18 224.39
  Q 246.97 223.98 247.17 223.54
  L 247.60 222.60
  Q 247.84 222.05 247.34 221.90
  Q 246.75 221.71 246.37 222.14
  Q 245.85 222.72 245.88 224.19
  Q 245.90 224.80 245.29 224.87
  Q 243.54 225.08 244.14 227.46
  Q 244.26 227.95 244.73 228.14
  Q 245.04 228.26 245.43 228.13
  A 0.50 0.46 -84.7 0 1 245.96 228.83
  L 245.17 230.51
  Q 244.95 230.97 245.16 231.38
  L 246.23 233.46
  Q 246.46 233.91 246.84 233.62
  L 247.09 233.43
  Q 247.58 233.07 247.85 233.63
  C 248.20 234.37 248.04 235.26 247.29 235.74
  Q 246.52 236.24 246.47 236.28
  Q 246.05 236.60 245.92 237.07
  Q 245.66 237.94 244.88 237.87
  Q 244.09 237.80 243.74 237.43
  Q 243.06 236.73 242.89 235.37
  A 0.35 0.30 -12.4 0 0 242.45 235.14
  L 242.20 235.21
  Q 242.14 235.23 242.12 235.32
  Q 242.01 236.33 242.66 237.08
  Q 243.03 237.49 242.69 237.93
  Q 241.97 238.85 240.94 238.48
  A 1.01 1.01 0.0 0 0 240.04 238.59
  Q 238.05 239.92 238.40 240.84
  Q 238.89 242.14 237.84 242.61
  L 237.40 242.80
  Q 236.26 243.32 236.14 242.19
  L 235.86 239.39
  A 0.22 0.21 75.8 0 0 235.56 239.20
  Q 233.92 239.90 233.31 238.78
  Q 232.91 238.04 233.75 237.98
  L 234.25 237.95
  Q 235.27 237.88 234.76 237.40
  Q 234.51 237.16 232.95 236.50
  A 1.00 0.99 -58.6 0 1 232.59 234.95
  L 233.49 233.85
  Q 233.82 233.46 233.51 233.11
  L 232.49 231.94
  A 0.79 0.77 -48.4 0 1 232.45 230.99
  Q 232.79 230.49 233.29 230.23
  A 0.47 0.47 0.0 0 1 233.96 230.49
  Q 234.09 230.84 234.43 230.88
  Q 234.90 230.92 234.75 230.48
  Q 234.04 228.35 232.51 227.65
  Q 231.95 227.39 232.03 226.77
  Q 232.33 224.74 233.84 222.71
  A 0.83 0.71 67.8 0 0 233.99 222.26
  L 234.09 218.47
  Q 234.11 217.88 233.50 217.96
  L 232.54 218.09
  Q 231.95 218.18 232.57 218.83
  Q 232.91 219.18 232.65 219.69
  Q 232.21 220.55 231.76 221.46
  Q 231.53 221.91 231.03 221.98
  Q 229.21 222.25 227.77 221.33
  Q 227.33 221.05 227.37 220.53
  Q 227.58 217.93 226.35 215.78
  Q 226.10 215.35 226.49 215.03
  Q 226.64 214.91 226.72 214.76
  Q 227.16 213.99 226.26 214.33
  Q 225.87 214.48 225.58 215.05
  Q 225.33 215.54 225.66 215.98
  Q 225.80 216.18 225.88 216.46
  Q 226.03 216.98 225.75 217.44
  Q 225.06 218.60 224.97 219.44
  Q 224.90 220.06 224.31 220.05
  L 222.49 220.01
  Q 222.23 220.00 222.18 220.30
  L 222.13 220.60
  A 0.27 0.27 0.0 0 0 222.35 220.91
  Q 223.17 221.07 224.00 221.10
  C 225.51 221.14 226.19 223.01 225.95 224.17
  Q 225.85 224.66 225.38 224.82
  Q 223.98 225.31 223.30 226.02
  A 0.64 0.64 0.0 0 0 223.34 226.94
  Q 225.42 228.78 226.92 228.46
  Q 229.10 227.99 227.68 229.70
  C 226.34 231.29 225.26 231.79 224.70 233.54
  A 0.48 0.48 0.0 0 1 223.80 233.59
  L 222.75 231.23
  Q 222.71 231.15 222.71 231.15
  Q 222.57 231.07 222.41 231.10
  Q 222.18 231.16 222.16 231.41
  L 221.97 233.96
  Q 221.92 234.61 221.35 234.87
  L 218.42 236.21
  Q 217.86 236.47 218.33 236.90
  L 219.37 237.87
  Q 219.79 238.26 219.54 238.77
  Q 219.10 239.68 218.96 241.18
  Q 218.82 242.72 218.16 241.32
  L 216.78 238.37
  A 0.52 0.46 -42.6 0 0 215.92 238.39
  Q 215.34 239.27 214.82 239.58
  A 0.43 0.43 0.0 0 1 214.17 239.22
  Q 214.14 237.68 212.71 236.14
  A 1.41 1.33 -67.7 0 1 212.35 235.20
  L 212.35 233.92
  A 0.85 0.65 -62.1 0 0 212.31 233.65
  L 210.95 229.86
  Q 210.75 229.32 211.23 229.07
  Q 211.80 228.78 211.83 228.57
  Q 211.95 227.71 211.35 228.27
  Q 211.19 228.42 211.04 228.62
  Q 210.75 229.01 210.37 228.70
  Q 209.34 227.88 207.99 228.01
  L 207.29 224.21
  Q 208.43 223.22 209.06 221.88
  Q 209.28 221.42 209.75 221.26
  Q 211.31 220.73 212.10 219.20
  A 0.56 0.56 0.0 0 0 211.49 218.40
  Q 210.13 218.70 208.62 217.81
  Q 208.21 217.56 208.14 217.09
  Q 207.70 214.17 208.35 211.24
  C 210.62 211.39 212.81 212.01 214.93 211.99
  Q 224.13 211.91 233.25 210.75
  Q 233.60 210.71 238.47 209.50
  Q 241.22 208.82 243.52 207.75
  Q 248.47 205.42 251.27 204.52
  Q 254.12 203.60 256.29 201.65
  Q 262.07 196.46 263.70 194.74
  Q 266.87 191.41 269.04 186.31
  Q 271.95 179.45 273.08 169.77
  C 273.23 168.46 274.10 166.24 275.00 165.51
  Q 277.65 163.35 278.60 159.12
  Q 279.51 155.09 280.12 150.29
  Q 280.42 147.97 281.40 143.94
  Q 281.82 142.16 283.65 137.87
  Q 286.72 130.68 287.81 122.97
  Q 289.67 122.49 290.32 124.49
  Q 290.48 125.00 290.92 124.64
  L 291.16 124.43
  Q 291.83 123.88 291.93 124.68
  Q 291.99 125.27 291.59 125.81
  Q 291.29 126.20 291.46 126.66
  C 291.92 127.88 292.53 129.87 292.32 131.72
  Q 292.20 132.68 292.71 133.63
  A 1.04 1.04 0.0 0 1 292.77 134.49
  Q 292.28 135.78 290.61 136.21
  Q 289.97 136.37 290.58 137.03
  L 291.67 138.22
  Q 291.83 138.39 291.93 138.82
  Q 292.23 140.02 291.24 141.09
  A 1.25 1.25 0.0 0 0 290.91 141.95
  Q 290.93 143.40 290.49 144.13
  Q 289.59 145.62 290.98 144.56
  Q 291.65 144.05 292.17 142.65
  A 0.97 0.92 89.3 0 1 292.68 142.11
  L 293.17 141.90
  Q 293.63 141.69 293.38 141.15
  Q 292.85 140.03 293.56 138.87
  Q 293.76 138.56 293.58 138.24
  L 293.37 137.84
  Q 293.12 137.37 293.49 136.91
  Q 294.11 136.15 295.03 136.50
  Q 295.48 136.66 295.94 136.53
  L 297.87 135.97
  Z
  M 298.1329 176.8168
  A 1.93 0.53 28.7 0 0 296.6945 175.4251
  A 1.93 0.53 28.7 0 0 294.7471 174.9632
  A 1.93 0.53 28.7 0 0 296.1855 176.3549
  A 1.93 0.53 28.7 0 0 298.1329 176.8168
  Z
  M 294.17 193.65
  Q 294.25 194.03 294.68 193.89
  A 0.31 0.31 0.0 0 0 294.74 193.33
  Q 294.44 193.16 294.27 193.28
  Q 294.11 193.39 294.17 193.65
  Z
  M 292.66 195.96
  Q 291.78 195.28 290.18 194.89
  Q 289.70 194.77 289.96 195.19
  Q 290.26 195.66 291.40 196.18
  Q 291.91 196.42 292.07 196.96
  Q 292.17 197.33 292.45 197.74
  A 0.59 0.59 0.0 0 0 293.23 197.91
  Q 294.86 196.97 294.95 195.79
  Q 295.03 194.95 294.28 195.44
  L 293.49 195.97
  Q 293.04 196.26 292.66 195.96
  Z
  M 276.15 212.56
  A 0.33 0.33 0.0 0 0 276.35 212.80
  Q 276.57 212.90 276.76 212.80
  Q 276.90 212.73 276.96 212.49
  Q 277.12 211.84 276.84 211.36
  A 0.36 0.36 0.0 0 0 276.22 211.39
  Q 276.01 211.80 276.15 212.56
  Z
  M 234.40 216.19
  Q 233.98 216.60 234.08 216.88
  A 0.29 0.29 0.0 0 0 234.59 216.94
  Q 234.97 216.35 234.73 216.17
  A 0.25 0.25 0.0 0 0 234.40 216.19
  Z
  M 246.21 220.42
  Q 246.13 221.00 246.53 220.98
  Q 246.80 220.96 246.89 220.71
  Q 246.99 220.43 246.73 220.22
  A 0.32 0.32 0.0 0 0 246.21 220.42
  Z
  M 211.10 226.46
  A 0.30 0.30 0.0 0 0 211.41 226.94
  Q 211.88 226.84 211.82 226.42
  Q 211.77 226.15 211.50 226.17
  Q 211.31 226.19 211.10 226.46
  Z
  M 214.13 236.45
  Q 213.95 237.12 214.48 236.92
  Q 214.67 236.85 214.70 236.65
  Q 214.72 236.48 214.64 236.36
  A 0.29 0.29 0.0 0 0 214.13 236.45
  Z
  M 266.25 239.39
  Q 266.15 239.84 266.40 239.97
  A 0.36 0.36 0.0 0 0 266.90 239.73
  Q 267.00 239.33 266.59 239.20
  Q 266.31 239.10 266.25 239.39
  Z"
/>
<path fill="#000000" d="
  M 299.14 126.54
  L 298.92 130.06
  Q 297.47 129.83 296.73 130.54
  Q 295.93 131.32 296.10 130.22
  Q 296.54 127.41 299.14 126.54
  Z"
/>
<ellipse fill="#dd1b11" cx="0.00" cy="0.00" transform="translate(296.44,175.89) rotate(28.7)" rx="1.93" ry="0.53"/>
<path fill="#731108" d="
  M 294.27 193.28
  Q 294.44 193.16 294.74 193.33
  A 0.31 0.31 0.0 0 1 294.68 193.89
  Q 294.25 194.03 294.17 193.65
  Q 294.11 193.39 294.27 193.28
  Z"
/>
<path fill="#dd1b11" d="
  M 293.49 195.97
  L 294.28 195.44
  Q 295.03 194.95 294.95 195.79
  Q 294.86 196.97 293.23 197.91
  A 0.59 0.59 0.0 0 1 292.45 197.74
  Q 292.17 197.33 292.07 196.96
  Q 291.91 196.42 291.40 196.18
  Q 290.26 195.66 289.96 195.19
  Q 289.70 194.77 290.18 194.89
  Q 291.78 195.28 292.66 195.96
  Q 293.04 196.26 293.49 195.97
  Z"
/>
<path fill="#d51107" d="
  M 296.47 197.12
  L 294.85 208.15
  Q 293.45 206.58 294.81 204.88
  Q 295.17 204.43 294.97 204.21
  L 294.72 203.94
  Q 294.25 203.41 294.67 203.01
  L 295.67 202.06
  A 0.63 0.61 -44.5 0 0 295.70 201.17
  L 294.47 199.96
  A 0.75 0.67 -56.2 0 1 294.35 199.15
  Q 295.44 196.86 296.47 197.12
  Z"
/>
<path fill="#000000" d="
  M 206.82 211.25
  L 205.18 213.34
  A 0.99 0.96 -66.5 0 0 205.77 214.91
  L 206.31 214.99
  Q 206.88 215.06 206.60 215.63
  L 205.03 218.78
  Q 200.98 213.01 194.27 210.14
  A 0.58 0.37 -65.2 0 1 194.17 209.44
  L 194.32 209.12
  Q 194.45 208.85 194.82 208.93
  L 206.82 211.25
  Z"
/>
<path fill="#dd1b11" d="
  M 208.35 211.24
  Q 207.70 214.17 208.14 217.09
  Q 208.21 217.56 208.62 217.81
  Q 210.13 218.70 211.49 218.40
  A 0.56 0.56 0.0 0 1 212.10 219.20
  Q 211.31 220.73 209.75 221.26
  Q 209.28 221.42 209.06 221.88
  Q 208.43 223.22 207.29 224.21
  L 206.27 221.30
  Q 206.70 221.13 206.74 220.72
  A 0.64 0.64 0.0 0 0 206.32 220.05
  Q 206.07 219.96 205.80 220.20
  Q 205.23 219.44 205.03 218.78
  L 206.60 215.63
  Q 206.88 215.06 206.31 214.99
  L 205.77 214.91
  A 0.99 0.96 -66.5 0 1 205.18 213.34
  L 206.82 211.25
  L 208.35 211.24
  Z"
/>
<path fill="#dd1b11" d="
  M 276.15 212.56
  Q 276.01 211.80 276.22 211.39
  A 0.36 0.36 0.0 0 1 276.84 211.36
  Q 277.12 211.84 276.96 212.49
  Q 276.90 212.73 276.76 212.80
  Q 276.57 212.90 276.35 212.80
  A 0.33 0.33 0.0 0 1 276.15 212.56
  Z"
/>
<path fill="#d30e05" d="
  M 288.34 242.45
  Q 286.43 250.23 286.28 253.75
  Q 286.24 254.61 286.86 259.99
  Q 287.00 261.26 287.68 264.15
  Q 288.24 266.60 287.87 269.62
  A 2.47 2.47 0.0 0 1 286.33 271.61
  Q 281.68 273.44 277.18 276.44
  Q 270.59 280.80 263.24 286.76
  C 258.97 290.22 255.48 292.50 250.86 295.84
  Q 248.40 297.63 245.64 299.10
  Q 239.02 302.63 228.27 307.86
  Q 226.13 308.90 223.54 309.76
  Q 221.15 310.55 218.68 311.36
  Q 217.22 308.91 218.74 306.52
  Q 219.00 306.11 218.85 305.64
  Q 218.60 304.87 217.73 304.19
  A 0.31 0.29 8.4 0 0 217.25 304.52
  L 217.59 305.26
  Q 217.80 305.71 217.32 305.97
  Q 216.65 306.32 215.68 306.00
  A 0.45 0.45 0.0 0 1 215.49 305.28
  Q 216.10 304.58 215.51 304.00
  Q 215.08 303.58 215.49 303.14
  Q 216.07 302.51 215.42 301.77
  A 0.43 0.42 -27.4 0 1 215.65 301.08
  L 216.33 300.91
  Q 216.56 300.86 216.66 300.63
  Q 216.71 300.50 216.69 300.32
  Q 216.65 300.08 216.36 300.02
  L 215.67 299.88
  Q 214.92 299.73 215.44 299.25
  Q 217.09 297.74 216.92 295.14
  Q 216.89 294.63 216.47 294.33
  Q 214.91 293.22 213.92 291.01
  A 0.45 0.45 0.0 0 1 214.42 290.39
  L 215.25 290.56
  A 1.12 1.11 -61.5 0 0 216.26 290.26
  Q 217.33 289.20 218.90 289.88
  A 0.67 0.67 0.0 0 0 219.84 289.31
  Q 219.95 287.44 221.27 286.80
  Q 221.79 286.54 221.59 286.15
  L 220.81 284.59
  Q 220.59 284.15 220.28 284.39
  Q 220.11 284.51 220.01 284.61
  Q 219.60 285.00 219.28 284.53
  Q 218.03 282.71 218.50 281.79
  Q 218.74 281.32 218.35 280.96
  Q 217.73 280.40 217.43 279.69
  Q 217.22 279.20 217.39 278.71
  Q 218.09 276.67 217.95 274.85
  A 0.84 0.84 0.0 0 0 217.52 274.17
  Q 215.81 273.22 214.72 273.43
  Q 214.14 273.53 213.95 273.09
  L 213.82 272.79
  Q 213.49 272.02 212.90 272.64
  Q 212.47 273.08 211.80 272.35
  A 0.45 0.45 0.0 0 0 211.06 272.49
  Q 210.97 272.72 210.98 272.93
  Q 211.02 273.55 211.54 273.74
  L 212.17 273.97
  Q 212.59 274.12 212.54 274.69
  L 212.13 279.39
  Q 212.10 279.81 211.71 280.13
  C 210.63 281.03 211.36 282.57 211.86 283.90
  Q 212.34 285.15 211.02 285.03
  L 210.22 284.96
  Q 208.85 284.84 208.43 283.74
  Q 207.97 282.58 207.48 281.08
  Q 207.25 280.37 206.65 280.25
  Q 206.09 280.14 206.02 280.71
  Q 205.89 281.68 205.48 281.94
  Q 205.02 282.24 204.58 281.91
  Q 203.28 280.94 201.95 282.35
  Q 201.50 282.83 202.16 282.86
  Q 203.34 282.91 203.49 282.98
  Q 204.08 283.24 203.71 283.75
  L 203.34 284.27
  A 1.17 1.10 55.1 0 0 203.19 285.28
  Q 203.67 286.77 202.99 288.32
  Q 202.08 290.38 202.16 288.13
  Q 202.23 286.18 201.04 284.56
  Q 201.80 279.27 202.06 273.68
  Q 202.24 270.00 202.90 267.92
  C 204.16 263.95 206.37 259.99 208.55 256.96
  Q 210.15 254.74 210.21 252.75
  Q 210.29 250.11 210.00 248.00
  Q 208.85 239.47 207.99 228.01
  Q 209.34 227.88 210.37 228.70
  Q 210.75 229.01 211.04 228.62
  Q 211.19 228.42 211.35 228.27
  Q 211.95 227.71 211.83 228.57
  Q 211.80 228.78 211.23 229.07
  Q 210.75 229.32 210.95 229.86
  L 212.31 233.65
  A 0.85 0.65 -62.1 0 1 212.35 233.92
  L 212.35 235.20
  A 1.41 1.33 -67.7 0 0 212.71 236.14
  Q 214.14 237.68 214.17 239.22
  A 0.43 0.43 0.0 0 0 214.82 239.58
  Q 215.34 239.27 215.92 238.39
  A 0.52 0.46 -42.6 0 1 216.78 238.37
  L 218.16 241.32
  Q 218.82 242.72 218.96 241.18
  Q 219.10 239.68 219.54 238.77
  Q 219.79 238.26 219.37 237.87
  L 218.33 236.90
  Q 217.86 236.47 218.42 236.21
  L 221.35 234.87
  Q 221.92 234.61 221.97 233.96
  L 222.16 231.41
  Q 222.18 231.16 222.41 231.10
  Q 222.57 231.07 222.71 231.15
  Q 222.71 231.15 222.75 231.23
  L 223.80 233.59
  A 0.48 0.48 0.0 0 0 224.70 233.54
  C 225.26 231.79 226.34 231.29 227.68 229.70
  Q 229.10 227.99 226.92 228.46
  Q 225.42 228.78 223.34 226.94
  A 0.64 0.64 0.0 0 1 223.30 226.02
  Q 223.98 225.31 225.38 224.82
  Q 225.85 224.66 225.95 224.17
  C 226.19 223.01 225.51 221.14 224.00 221.10
  Q 223.17 221.07 222.35 220.91
  A 0.27 0.27 0.0 0 1 222.13 220.60
  L 222.18 220.30
  Q 222.23 220.00 222.49 220.01
  L 224.31 220.05
  Q 224.90 220.06 224.97 219.44
  Q 225.06 218.60 225.75 217.44
  Q 226.03 216.98 225.88 216.46
  Q 225.80 216.18 225.66 215.98
  Q 225.33 215.54 225.58 215.05
  Q 225.87 214.48 226.26 214.33
  Q 227.16 213.99 226.72 214.76
  Q 226.64 214.91 226.49 215.03
  Q 226.10 215.35 226.35 215.78
  Q 227.58 217.93 227.37 220.53
  Q 227.33 221.05 227.77 221.33
  Q 229.21 222.25 231.03 221.98
  Q 231.53 221.91 231.76 221.46
  Q 232.21 220.55 232.65 219.69
  Q 232.91 219.18 232.57 218.83
  Q 231.95 218.18 232.54 218.09
  L 233.50 217.96
  Q 234.11 217.88 234.09 218.47
  L 233.99 222.26
  A 0.83 0.71 67.8 0 1 233.84 222.71
  Q 232.33 224.74 232.03 226.77
  Q 231.95 227.39 232.51 227.65
  Q 234.04 228.35 234.75 230.48
  Q 234.90 230.92 234.43 230.88
  Q 234.09 230.84 233.96 230.49
  A 0.47 0.47 0.0 0 0 233.29 230.23
  Q 232.79 230.49 232.45 230.99
  A 0.79 0.77 -48.4 0 0 232.49 231.94
  L 233.51 233.11
  Q 233.82 233.46 233.49 233.85
  L 232.59 234.95
  A 1.00 0.99 -58.6 0 0 232.95 236.50
  Q 234.51 237.16 234.76 237.40
  Q 235.27 237.88 234.25 237.95
  L 233.75 237.98
  Q 232.91 238.04 233.31 238.78
  Q 233.92 239.90 235.56 239.20
  A 0.22 0.21 75.8 0 1 235.86 239.39
  L 236.14 242.19
  Q 236.26 243.32 237.40 242.80
  L 237.84 242.61
  Q 238.89 242.14 238.40 240.84
  Q 238.05 239.92 240.04 238.59
  A 1.01 1.01 0.0 0 1 240.94 238.48
  Q 241.97 238.85 242.69 237.93
  Q 243.03 237.49 242.66 237.08
  Q 242.01 236.33 242.12 235.32
  Q 242.14 235.23 242.20 235.21
  L 242.45 235.14
  A 0.35 0.30 -12.4 0 1 242.89 235.37
  Q 243.06 236.73 243.74 237.43
  Q 244.09 237.80 244.88 237.87
  Q 245.66 237.94 245.92 237.07
  Q 246.05 236.60 246.47 236.28
  Q 246.52 236.24 247.29 235.74
  C 248.04 235.26 248.20 234.37 247.85 233.63
  Q 247.58 233.07 247.09 233.43
  L 246.84 233.62
  Q 246.46 233.91 246.23 233.46
  L 245.16 231.38
  Q 244.95 230.97 245.17 230.51
  L 245.96 228.83
  A 0.50 0.46 -84.7 0 0 245.43 228.13
  Q 245.04 228.26 244.73 228.14
  Q 244.26 227.95 244.14 227.46
  Q 243.54 225.08 245.29 224.87
  Q 245.90 224.80 245.88 224.19
  Q 245.85 222.72 246.37 222.14
  Q 246.75 221.71 247.34 221.90
  Q 247.84 222.05 247.60 222.60
  L 247.17 223.54
  Q 246.97 223.98 247.18 224.39
  L 248.62 227.28
  Q 248.91 227.87 249.48 227.62
  Q 251.01 226.93 252.49 226.85
  Q 253.11 226.82 252.80 226.28
  Q 252.71 226.12 252.58 226.02
  Q 251.97 225.56 252.45 225.09
  Q 252.94 224.60 253.24 223.40
  A 0.42 0.41 8.8 0 1 253.68 223.08
  Q 253.77 223.09 253.93 223.22
  Q 253.98 223.27 253.99 223.33
  Q 254.11 225.04 254.13 226.30
  A 0.71 0.71 0.0 0 0 254.81 226.99
  Q 255.17 227.01 255.64 227.21
  Q 256.18 227.45 255.63 227.67
  Q 253.52 228.52 252.21 230.56
  Q 251.93 231.00 252.15 231.45
  L 253.14 233.46
  Q 253.35 233.90 253.78 233.57
  Q 254.64 232.91 255.54 232.96
  Q 256.39 233.00 255.75 233.66
  L 253.46 236.03
  A 0.82 0.68 40.4 0 0 253.65 237.13
  Q 254.62 237.88 254.99 238.81
  Q 255.20 239.33 254.79 239.76
  L 253.41 241.19
  Q 253.19 241.42 253.34 241.71
  Q 254.11 243.19 254.93 242.48
  Q 255.34 242.12 255.82 242.36
  Q 256.55 242.72 256.86 243.30
  A 0.48 0.48 0.0 0 1 256.51 244.01
  L 255.59 244.14
  Q 254.99 244.22 255.00 244.85
  Q 255.03 246.75 256.09 247.65
  Q 256.62 248.11 256.83 247.40
  L 257.02 246.73
  A 1.05 0.99 -87.9 0 1 257.75 246.02
  Q 258.04 245.94 258.34 246.00
  A 0.50 0.50 0.0 0 1 258.67 246.76
  L 258.42 247.14
  Q 258.21 247.47 258.46 247.78
  Q 259.61 249.13 258.62 250.99
  A 1.15 0.95 -43.8 0 0 258.52 251.82
  L 259.13 253.66
  Q 259.20 253.88 259.42 253.90
  Q 259.61 253.91 259.69 253.88
  A 0.30 0.29 76.2 0 0 259.84 253.62
  Q 259.83 250.71 262.79 248.63
  A 0.21 0.21 0.0 0 0 262.67 248.24
  Q 262.17 248.23 261.69 248.70
  Q 261.27 249.13 261.09 248.55
  Q 260.33 246.05 262.66 245.17
  Q 263.95 244.68 264.21 243.79
  Q 264.44 243.00 264.83 243.35
  Q 265.02 243.52 265.03 244.34
  Q 265.04 244.73 265.43 244.70
  Q 265.64 244.69 265.76 244.63
  Q 265.99 244.50 265.96 244.24
  Q 265.85 243.01 266.06 241.82
  Q 266.21 240.97 266.85 240.86
  Q 267.38 240.76 267.62 241.23
  Q 268.83 243.58 269.92 244.45
  Q 271.24 245.48 271.01 243.83
  C 270.90 243.01 270.94 242.10 271.40 241.15
  Q 271.76 240.40 271.51 239.68
  A 0.43 0.43 0.0 0 1 271.83 239.11
  Q 272.04 239.07 272.18 238.97
  Q 272.49 238.75 272.62 238.41
  L 273.98 234.74
  Q 274.05 234.56 274.03 234.54
  L 273.82 234.27
  A 0.38 0.33 37.0 0 0 273.19 234.32
  L 272.84 235.40
  Q 272.62 236.06 272.12 235.58
  L 269.75 233.30
  Q 269.37 232.94 269.03 233.39
  Q 268.36 234.30 267.66 234.03
  Q 266.44 233.58 267.66 233.14
  Q 269.00 232.67 270.43 230.99
  Q 270.76 230.60 270.53 230.14
  Q 269.90 228.85 269.98 226.61
  Q 269.99 226.27 269.68 226.16
  Q 269.50 226.10 269.32 226.21
  Q 269.15 226.31 269.12 226.50
  L 268.95 227.57
  Q 268.84 228.17 268.24 228.12
  Q 267.02 228.01 266.33 226.84
  Q 266.05 226.36 266.47 226.01
  Q 269.25 223.73 267.02 220.04
  A 0.50 0.48 86.5 0 1 267.64 219.32
  L 269.32 220.14
  Q 269.83 220.39 269.61 220.89
  Q 269.55 221.04 269.52 221.17
  Q 269.48 221.38 269.60 221.54
  L 272.50 225.74
  A 0.64 0.59 -32.4 0 0 273.32 225.89
  Q 273.73 225.65 273.92 225.11
  A 1.65 1.20 -15.4 0 1 274.48 224.40
  L 276.16 223.20
  A 1.46 1.06 -42.3 0 0 276.58 221.17
  Q 276.09 220.83 276.50 220.08
  Q 276.80 219.54 276.49 219.14
  L 275.45 217.83
  Q 275.08 217.37 275.49 216.97
  L 277.22 215.24
  Q 277.61 214.85 277.74 215.36
  Q 277.82 215.67 277.50 215.92
  Q 277.07 216.24 277.32 216.66
  L 278.97 219.48
  A 0.59 0.49 51.9 0 0 279.83 219.66
  L 280.77 218.56
  Q 281.15 218.12 281.68 218.34
  L 283.71 219.16
  A 0.46 0.44 -56.2 0 1 283.83 219.89
  L 282.99 220.75
  A 0.56 0.50 -43.2 0 1 282.21 220.77
  L 281.85 220.34
  A 0.50 0.46 -59.0 0 0 281.03 220.58
  Q 280.76 221.63 281.74 222.57
  A 0.12 0.12 0.0 0 1 281.59 222.77
  Q 280.29 221.98 279.85 222.02
  Q 279.09 222.10 279.48 222.83
  L 279.63 223.12
  Q 279.78 223.40 279.66 223.69
  Q 278.73 226.07 279.09 227.95
  A 2.05 2.03 -28.6 0 0 282.57 228.95
  L 284.50 226.95
  A 0.24 0.24 0.0 0 1 284.91 227.07
  L 284.99 227.52
  Q 285.02 227.68 284.90 227.78
  L 283.35 229.11
  Q 282.85 229.54 283.42 229.84
  Q 283.61 229.94 284.33 229.87
  A 0.38 0.38 0.0 0 1 284.71 230.07
  L 284.86 230.36
  Q 284.98 230.61 284.74 230.67
  Q 281.78 231.39 281.92 234.46
  Q 281.93 234.87 281.56 235.05
  Q 281.26 235.20 281.17 235.32
  Q 281.03 235.54 281.14 235.73
  Q 281.23 235.87 281.40 235.90
  Q 281.75 235.97 281.88 235.67
  L 282.02 235.34
  Q 282.23 234.87 282.60 235.30
  Q 282.77 235.49 282.90 236.23
  Q 283.02 236.90 283.61 236.58
  Q 284.60 236.05 286.61 237.13
  Q 287.16 237.43 286.72 237.86
  Q 286.61 237.97 285.92 238.02
  Q 285.42 238.05 285.19 238.50
  L 284.06 240.73
  A 0.86 0.81 -54.3 0 0 284.19 241.69
  L 285.93 243.47
  Q 287.09 244.66 286.97 243.05
  Q 286.90 242.03 287.04 241.60
  Q 287.22 241.03 287.77 241.29
  Q 288.29 241.54 288.34 242.45
  Z
  M 245.19 226.70
  Q 245.23 226.80 246.15 227.96
  Q 246.26 228.11 246.42 228.01
  Q 246.50 227.97 246.68 227.85
  A 0.33 0.33 0.0 0 0 246.79 227.39
  Q 246.19 226.46 245.65 226.19
  Q 244.85 225.79 245.19 226.70
  Z"
/>
<path fill="#731108" d="
  M 234.40 216.19
  A 0.25 0.25 0.0 0 1 234.73 216.17
  Q 234.97 216.35 234.59 216.94
  A 0.29 0.29 0.0 0 1 234.08 216.88
  Q 233.98 216.60 234.40 216.19
  Z"
/>
<path fill="#000000" d="
  M 206.27 221.30
  L 205.80 220.20
  Q 206.07 219.96 206.32 220.05
  A 0.64 0.64 0.0 0 1 206.74 220.72
  Q 206.70 221.13 206.27 221.30
  Z"
/>
<path fill="#731108" d="
  M 246.21 220.42
  A 0.32 0.32 0.0 0 1 246.73 220.22
  Q 246.99 220.43 246.89 220.71
  Q 246.80 220.96 246.53 220.98
  Q 246.13 221.00 246.21 220.42
  Z"
/>
<path fill="#000000" d="
  M 245.19 226.70
  Q 244.85 225.79 245.65 226.19
  Q 246.19 226.46 246.79 227.39
  A 0.33 0.33 0.0 0 1 246.68 227.85
  Q 246.50 227.97 246.42 228.01
  Q 246.26 228.11 246.15 227.96
  Q 245.23 226.80 245.19 226.70
  Z"
/>
<path fill="#731108" d="
  M 211.10 226.46
  Q 211.31 226.19 211.50 226.17
  Q 211.77 226.15 211.82 226.42
  Q 211.88 226.84 211.41 226.94
  A 0.30 0.30 0.0 0 1 211.10 226.46
  Z"
/>
<path fill="#731108" d="
  M 214.13 236.45
  A 0.29 0.29 0.0 0 1 214.64 236.36
  Q 214.72 236.48 214.70 236.65
  Q 214.67 236.85 214.48 236.92
  Q 213.95 237.12 214.13 236.45
  Z"
/>
<path fill="#731108" d="
  M 266.25 239.39
  Q 266.31 239.10 266.59 239.20
  Q 267.00 239.33 266.90 239.73
  A 0.36 0.36 0.0 0 1 266.40 239.97
  Q 266.15 239.84 266.25 239.39
  Z"
/>
<path fill="#000000" d="
  M 218.68 311.36
  L 216.21 312.31
  Q 215.43 310.14 213.78 310.08
  Q 213.28 310.06 213.43 310.54
  Q 214.03 312.51 211.51 314.03
  L 211.10 314.25
  L 210.97 310.29
  Q 210.97 310.26 210.94 310.23
  Q 210.84 310.14 210.69 310.09
  Q 210.47 310.03 210.38 310.24
  Q 210.04 311.01 210.03 311.03
  Q 208.73 313.39 207.96 310.86
  Q 207.67 309.91 208.80 308.74
  Q 209.20 308.32 208.66 308.08
  L 208.41 307.97
  Q 207.91 307.75 207.39 308.17
  Q 206.93 308.56 206.90 309.54
  Q 206.90 309.77 206.58 309.84
  L 206.31 309.90
  Q 206.16 309.94 206.15 309.76
  L 205.95 307.76
  A 0.46 0.45 79.4 0 0 205.38 307.36
  Q 204.91 307.49 204.38 308.16
  Q 203.90 308.78 203.65 308.82
  Q 203.06 308.94 203.05 308.33
  Q 203.04 306.97 202.28 305.53
  A 1.13 0.97 45.9 0 1 202.22 304.60
  L 202.65 303.64
  Q 202.88 303.12 202.32 302.94
  Q 201.68 302.73 201.18 303.20
  Q 200.76 303.60 200.81 304.18
  L 200.91 305.42
  Q 200.97 306.11 200.35 305.76
  L 199.83 305.47
  Q 199.41 305.24 199.15 305.63
  Q 199.03 305.81 199.04 306.05
  Q 199.06 306.47 199.34 306.73
  Q 200.41 307.70 200.96 308.86
  A 1.49 1.38 74.0 0 1 199.90 310.97
  L 198.63 311.08
  A 0.43 0.42 68.0 0 0 198.35 311.77
  L 200.09 313.96
  C 195.69 312.96 195.64 308.74 196.11 304.75
  Q 196.39 302.36 196.90 299.98
  Q 197.46 297.31 198.07 295.30
  Q 199.64 290.09 201.04 284.56
  Q 202.23 286.18 202.16 288.13
  Q 202.08 290.38 202.99 288.32
  Q 203.67 286.77 203.19 285.28
  A 1.17 1.10 55.1 0 1 203.34 284.27
  L 203.71 283.75
  Q 204.08 283.24 203.49 282.98
  Q 203.34 282.91 202.16 282.86
  Q 201.50 282.83 201.95 282.35
  Q 203.28 280.94 204.58 281.91
  Q 205.02 282.24 205.48 281.94
  Q 205.89 281.68 206.02 280.71
  Q 206.09 280.14 206.65 280.25
  Q 207.25 280.37 207.48 281.08
  Q 207.97 282.58 208.43 283.74
  Q 208.85 284.84 210.22 284.96
  L 211.02 285.03
  Q 212.34 285.15 211.86 283.90
  C 211.36 282.57 210.63 281.03 211.71 280.13
  Q 212.10 279.81 212.13 279.39
  L 212.54 274.69
  Q 212.59 274.12 212.17 273.97
  L 211.54 273.74
  Q 211.02 273.55 210.98 272.93
  Q 210.97 272.72 211.06 272.49
  A 0.45 0.45 0.0 0 1 211.80 272.35
  Q 212.47 273.08 212.90 272.64
  Q 213.49 272.02 213.82 272.79
  L 213.95 273.09
  Q 214.14 273.53 214.72 273.43
  Q 215.81 273.22 217.52 274.17
  A 0.84 0.84 0.0 0 1 217.95 274.85
  Q 218.09 276.67 217.39 278.71
  Q 217.22 279.20 217.43 279.69
  Q 217.73 280.40 218.35 280.96
  Q 218.74 281.32 218.50 281.79
  Q 218.03 282.71 219.28 284.53
  Q 219.60 285.00 220.01 284.61
  Q 220.11 284.51 220.28 284.39
  Q 220.59 284.15 220.81 284.59
  L 221.59 286.15
  Q 221.79 286.54 221.27 286.80
  Q 219.95 287.44 219.84 289.31
  A 0.67 0.67 0.0 0 1 218.90 289.88
  Q 217.33 289.20 216.26 290.26
  A 1.12 1.11 -61.5 0 1 215.25 290.56
  L 214.42 290.39
  A 0.45 0.45 0.0 0 0 213.92 291.01
  Q 214.91 293.22 216.47 294.33
  Q 216.89 294.63 216.92 295.14
  Q 217.09 297.74 215.44 299.25
  Q 214.92 299.73 215.67 299.88
  L 216.36 300.02
  Q 216.65 300.08 216.69 300.32
  Q 216.71 300.50 216.66 300.63
  Q 216.56 300.86 216.33 300.91
  L 215.65 301.08
  A 0.43 0.42 -27.4 0 0 215.42 301.77
  Q 216.07 302.51 215.49 303.14
  Q 215.08 303.58 215.51 304.00
  Q 216.10 304.58 215.49 305.28
  A 0.45 0.45 0.0 0 0 215.68 306.00
  Q 216.65 306.32 217.32 305.97
  Q 217.80 305.71 217.59 305.26
  L 217.25 304.52
  A 0.31 0.29 8.4 0 1 217.73 304.19
  Q 218.60 304.87 218.85 305.64
  Q 219.00 306.11 218.74 306.52
  Q 217.22 308.91 218.68 311.36
  Z
  M 203.08 290.33
  A 0.35 0.35 0.0 0 0 203.18 290.69
  Q 203.51 290.99 203.83 290.71
  A 0.31 0.31 0.0 0 0 203.75 290.21
  Q 203.20 289.94 203.08 290.33
  Z"
/>
<path fill="#731108" d="
  M 203.08 290.33
  Q 203.20 289.94 203.75 290.21
  A 0.31 0.31 0.0 0 1 203.83 290.71
  Q 203.51 290.99 203.18 290.69
  A 0.35 0.35 0.0 0 1 203.08 290.33
  Z"
/>
<path fill="#d51107" d="
  M 211.10 314.25
  Q 207.59 315.21 203.53 314.73
  Q 203.33 313.94 202.90 313.60
  Q 202.49 313.28 202.13 313.65
  Q 201.61 314.19 201.07 314.36
  L 200.09 313.96
  L 198.35 311.77
  A 0.43 0.42 68.0 0 1 198.63 311.08
  L 199.90 310.97
  A 1.49 1.38 74.0 0 0 200.96 308.86
  Q 200.41 307.70 199.34 306.73
  Q 199.06 306.47 199.04 306.05
  Q 199.03 305.81 199.15 305.63
  Q 199.41 305.24 199.83 305.47
  L 200.35 305.76
  Q 200.97 306.11 200.91 305.42
  L 200.81 304.18
  Q 200.76 303.60 201.18 303.20
  Q 201.68 302.73 202.32 302.94
  Q 202.88 303.12 202.65 303.64
  L 202.22 304.60
  A 1.13 0.97 45.9 0 0 202.28 305.53
  Q 203.04 306.97 203.05 308.33
  Q 203.06 308.94 203.65 308.82
  Q 203.90 308.78 204.38 308.16
  Q 204.91 307.49 205.38 307.36
  A 0.46 0.45 79.4 0 1 205.95 307.76
  L 206.15 309.76
  Q 206.16 309.94 206.31 309.90
  L 206.58 309.84
  Q 206.90 309.77 206.90 309.54
  Q 206.93 308.56 207.39 308.17
  Q 207.91 307.75 208.41 307.97
  L 208.66 308.08
  Q 209.20 308.32 208.80 308.74
  Q 207.67 309.91 207.96 310.86
  Q 208.73 313.39 210.03 311.03
  Q 210.04 311.01 210.38 310.24
  Q 210.47 310.03 210.69 310.09
  Q 210.84 310.14 210.94 310.23
  Q 210.97 310.26 210.97 310.29
  L 211.10 314.25
  Z"
/>
<path fill="#d30e05" d="
  M 216.21 312.31
  L 211.51 314.03
  Q 214.03 312.51 213.43 310.54
  Q 213.28 310.06 213.78 310.08
  Q 215.43 310.14 216.21 312.31
  Z"
/>
<path fill="#000000" d="
  M 203.53 314.73
  Q 202.27 314.91 201.07 314.36
  Q 201.61 314.19 202.13 313.65
  Q 202.49 313.28 202.90 313.60
  Q 203.33 313.94 203.53 314.73
  Z"
/>
</svg>
