<?xml version="1.0" encoding="UTF-8" standalone="no"?>
<!DOCTYPE svg PUBLIC "-//W3C//DTD SVG 1.1//EN" "http://www.w3.org/Graphics/SVG/1.1/DTD/svg11.dtd">
<svg xmlns="http://www.w3.org/2000/svg" version="1.1" viewBox="0.00 0.00 1592.00 1592.00" width="1592.00" height="1592.00">
<g stroke-width="2.00" fill="none" stroke-linecap="butt">
<path stroke="#5b3e67" vector-effect="non-scaling-stroke" d="
  M 1247.64 495.40
  Q 1243.15 497.72 1247.60 500.44"
/>
<path stroke="#5b3e67" vector-effect="non-scaling-stroke" d="
  M 1246.42 525.22
  Q 1245.32 521.30 1245.62 517.07
  Q 1245.66 516.45 1245.10 516.46
  L 1241.99 516.54
  Q 1241.52 516.55 1241.52 517.00
  L 1241.54 520.14
  Q 1241.54 520.74 1240.90 520.75
  L 1238.01 520.81
  Q 1237.45 520.83 1237.45 520.27
  L 1237.49 513.30
  A 0.72 0.67 -89.8 0 0 1236.82 512.58
  L 1233.98 512.58
  Q 1233.17 512.58 1233.17 511.74
  L 1233.25 500.52
  Q 1233.25 500.02 1232.77 500.02
  L 1229.74 500.01
  Q 1229.01 500.01 1229.00 499.25
  L 1228.98 491.97
  Q 1228.98 491.47 1228.46 491.47
  L 1225.53 491.49
  Q 1225.07 491.49 1225.06 491.96
  L 1224.96 495.27
  Q 1224.94 495.73 1224.48 495.73
  L 1221.26 495.76
  Q 1220.74 495.76 1220.74 495.25
  L 1220.73 487.99
  Q 1220.73 487.51 1220.24 487.50
  L 1217.00 487.47
  Q 1216.48 487.47 1216.49 487.99
  L 1216.52 499.48
  Q 1216.52 499.97 1216.02 499.97
  L 1208.75 500.02
  Q 1208.28 500.02 1208.29 500.51
  L 1208.30 503.29
  Q 1208.30 503.80 1207.79 503.91
  Q 1205.03 504.55 1203.55 503.15"
/>
<path stroke="#5b3e67" vector-effect="non-scaling-stroke" d="
  M 1241.88 766.62
  L 1238.35 766.40
  Q 1237.48 766.35 1237.48 767.20
  L 1237.49 774.25
  Q 1237.49 775.03 1238.31 775.03
  L 1241.08 775.04"
/>
<path stroke="#5b3e67" vector-effect="non-scaling-stroke" d="
  M 1239.36 791.46
  Q 1238.64 791.37 1238.04 791.55
  Q 1237.54 791.70 1237.53 792.22
  Q 1237.49 793.62 1237.48 795.00
  Q 1237.47 796.05 1238.77 795.97"
/>
<path stroke="#5b3e67" vector-effect="non-scaling-stroke" d="
  M 1193.41 1045.77
  L 1187.99 1045.74
  Q 1187.48 1045.74 1187.48 1045.23
  L 1187.53 1041.96
  Q 1187.54 1041.47 1188.04 1041.48
  L 1190.99 1041.53
  Q 1191.53 1041.54 1191.53 1041.00
  L 1191.54 1038.01
  Q 1191.54 1037.48 1191.01 1037.48
  L 1188.00 1037.47
  Q 1187.53 1037.46 1187.52 1037.00
  L 1187.48 1033.78
  Q 1187.47 1033.29 1187.96 1033.29
  L 1191.25 1033.26
  Q 1191.51 1033.26 1191.51 1033.00
  L 1191.54 1029.41
  Q 1191.54 1029.02 1191.15 1029.01
  L 1187.97 1028.97
  Q 1187.48 1028.96 1187.48 1028.50
  L 1187.47 1025.50
  Q 1187.47 1025.03 1187.97 1025.02
  L 1191.02 1024.99
  Q 1191.51 1024.99 1191.51 1024.49
  L 1191.51 1008.74
  Q 1191.51 1008.22 1190.99 1008.22
  L 1183.76 1008.22
  Q 1183.21 1008.22 1183.21 1008.75
  L 1183.22 1012.00
  Q 1183.22 1012.54 1183.74 1012.54
  L 1186.88 1012.52
  Q 1187.48 1012.52 1187.48 1013.15
  L 1187.50 1015.66
  Q 1187.50 1016.52 1186.63 1016.52
  L 1179.76 1016.51
  Q 1178.97 1016.51 1178.98 1015.76
  L 1179.01 1008.73
  Q 1179.01 1008.21 1178.50 1008.21
  L 1171.24 1008.26
  Q 1170.76 1008.26 1170.76 1007.76
  L 1170.75 996.24
  Q 1170.75 995.73 1171.25 995.73
  L 1174.47 995.76
  Q 1174.97 995.77 1174.97 995.27
  L 1175.04 987.98
  Q 1175.04 987.48 1175.54 987.49
  L 1178.14 987.57
  Q 1179.02 987.59 1179.02 986.67
  L 1179.00 984.12
  Q 1178.99 983.17 1178.13 983.19
  L 1175.70 983.25
  Q 1175.10 983.27 1175.09 982.67
  L 1175.02 980.17
  Q 1174.99 979.12 1173.88 979.06
  L 1171.73 978.96
  Q 1170.70 978.90 1170.67 979.94
  L 1170.56 982.70
  Q 1170.54 983.17 1170.05 983.18
  L 1167.21 983.23
  Q 1166.58 983.24 1166.57 982.66
  L 1166.51 979.49
  A 0.61 0.47 -0.0 0 0 1165.90 979.03
  L 1159.16 978.96
  Q 1158.34 978.95 1158.33 978.11
  L 1158.31 976.06
  Q 1158.30 975.25 1159.12 975.17
  L 1161.87 974.89
  A 0.67 0.67 0.0 0 0 1162.47 974.22
  L 1162.44 967.01
  Q 1162.44 966.39 1161.86 966.35
  L 1159.39 966.15
  Q 1158.48 966.08 1158.45 965.14
  L 1158.42 963.97
  A 1.23 1.18 86.8 0 1 1159.49 962.72
  L 1161.99 962.51
  Q 1162.44 962.47 1162.49 961.97
  L 1162.67 959.82
  A 1.33 1.28 -4.4 0 1 1163.70 958.67
  L 1165.37 958.28
  Q 1165.90 958.16 1165.99 957.66
  Q 1167.02 951.74 1166.07 946.54
  A 1.10 1.10 0.0 0 0 1165.02 945.64
  Q 1163.93 945.61 1163.20 945.18
  A 0.97 0.96 12.1 0 1 1162.74 944.47
  L 1162.48 942.36
  Q 1162.38 941.54 1161.63 941.52
  L 1159.22 941.48
  Q 1158.29 941.47 1158.28 942.30
  L 1158.17 952.87
  Q 1158.16 953.89 1157.13 953.97
  L 1155.26 954.13
  A 1.04 0.95 -4.8 0 1 1154.14 953.27
  L 1153.93 950.76
  Q 1153.86 949.98 1153.17 949.98
  L 1146.33 950.07
  A 0.61 0.60 0.4 0 0 1145.73 950.66
  L 1145.67 952.90
  Q 1145.64 953.96 1144.55 953.97
  L 1142.57 953.98
  Q 1141.63 953.99 1141.61 953.09
  L 1141.56 950.88
  Q 1141.55 950.15 1140.83 950.06
  L 1138.46 949.76
  Q 1137.69 949.67 1137.73 948.90
  L 1137.85 946.66
  A 0.78 0.78 0.0 0 1 1138.55 945.92
  L 1140.80 945.70
  A 0.70 0.68 85.0 0 0 1141.41 944.96
  L 1141.22 942.53
  Q 1141.16 941.75 1140.38 941.65
  L 1138.44 941.40
  Q 1137.88 941.33 1137.86 940.77
  Q 1137.41 930.71 1137.54 925.57
  Q 1137.55 924.94 1136.96 924.94
  L 1134.36 924.95
  Q 1133.36 924.95 1133.37 923.86
  L 1133.47 913.42
  A 1.19 1.18 -89.8 0 0 1132.29 912.22
  L 1129.70 912.23
  Q 1128.89 912.23 1128.89 913.05
  L 1128.99 924.04
  A 0.85 0.83 89.5 0 1 1128.17 924.90
  L 1121.24 924.95
  Q 1120.68 924.95 1120.66 925.55
  L 1120.57 928.21
  A 0.74 0.71 -87.7 0 0 1121.25 928.97
  L 1124.12 929.11
  A 0.87 0.84 1.0 0 1 1124.95 929.93
  L 1124.99 932.69
  Q 1125.00 933.35 1125.68 933.33
  L 1128.09 933.26
  Q 1128.94 933.23 1128.94 934.10
  L 1128.96 940.62
  Q 1128.97 941.54 1128.04 941.53
  L 1125.89 941.51
  Q 1125.26 941.51 1125.19 942.11
  L 1124.87 945.08
  Q 1124.81 945.64 1124.25 945.66
  L 1121.90 945.76
  Q 1120.81 945.80 1120.72 946.88
  L 1120.57 948.71
  Q 1120.48 949.82 1121.56 949.90
  L 1124.21 950.09
  Q 1125.07 950.15 1125.06 951.00
  L 1125.04 952.97
  A 1.04 1.02 -89.4 0 1 1124.01 954.00
  L 1117.18 953.94
  A 0.64 0.63 0.4 0 1 1116.55 953.31
  L 1116.56 950.92
  Q 1116.56 949.99 1115.61 950.00
  L 1109.31 950.03
  Q 1108.33 950.03 1108.29 951.00
  L 1108.20 953.32
  Q 1108.19 953.82 1107.69 953.86
  L 1104.93 954.04
  A 1.01 1.01 0.0 0 0 1103.99 955.04
  L 1103.96 957.51
  Q 1103.95 958.31 1104.73 958.31
  L 1107.77 958.29
  Q 1108.23 958.29 1108.22 958.77
  L 1108.20 962.00
  Q 1108.19 962.55 1108.74 962.55
  L 1112.01 962.53
  Q 1112.49 962.53 1112.49 963.01
  L 1112.44 970.24
  Q 1112.44 970.82 1113.01 970.81
  L 1115.78 970.79
  A 0.74 0.71 89.6 0 1 1116.50 971.52
  L 1116.51 974.25
  A 0.76 0.67 -89.2 0 1 1115.82 975.02
  L 1113.32 974.93
  Q 1112.45 974.90 1112.45 975.86
  L 1112.43 982.50
  Q 1112.43 983.30 1113.24 983.30
  L 1128.00 983.31
  Q 1128.97 983.31 1128.97 984.23
  L 1128.99 986.77
  Q 1128.99 987.54 1128.25 987.51
  L 1125.90 987.42
  Q 1125.02 987.38 1125.01 988.28
  L 1124.96 994.83
  A 0.97 0.96 -1.0 0 0 1125.96 995.80
  L 1128.11 995.71
  Q 1128.97 995.67 1128.99 996.59
  L 1129.06 999.00
  Q 1129.09 999.91 1128.24 999.93
  L 1121.53 1000.13
  Q 1120.68 1000.15 1120.67 1000.96
  L 1120.64 1003.25
  Q 1120.64 1003.86 1120.03 1003.88
  L 1117.18 1004.01
  Q 1116.65 1004.03 1116.64 1004.56
  L 1116.40 1019.65
  A 0.90 0.82 -0.8 0 1 1115.54 1020.47
  L 1113.81 1020.54
  Q 1112.71 1020.58 1112.62 1019.50
  L 1112.40 1017.04
  Q 1112.35 1016.45 1111.77 1016.44
  L 1109.04 1016.42
  Q 1108.37 1016.42 1108.34 1015.80
  L 1108.18 1013.06
  A 0.63 0.63 0.0 0 0 1107.54 1012.46
  L 1104.71 1012.50
  Q 1104.14 1012.51 1104.12 1011.92
  L 1103.94 1004.68
  A 0.70 0.65 89.4 0 0 1103.29 1004.00
  L 1096.49 1003.97
  A 0.80 0.78 0.1 0 0 1095.69 1004.76
  L 1095.69 1012.00
  A 0.56 0.56 0.0 0 0 1096.25 1012.55
  L 1099.52 1012.57
  Q 1099.98 1012.58 1099.98 1013.02
  L 1099.99 1015.75
  A 0.74 0.72 -89.8 0 1 1099.26 1016.49
  L 1096.25 1016.46
  Q 1095.75 1016.46 1095.75 1016.99
  L 1095.73 1024.52
  Q 1095.73 1025.01 1095.23 1025.01
  L 1091.98 1024.99
  Q 1091.50 1024.98 1091.50 1024.49
  L 1091.57 1017.01
  Q 1091.58 1016.45 1091.01 1016.45
  L 1087.99 1016.43
  Q 1087.42 1016.42 1087.43 1017.00
  L 1087.48 1024.52
  Q 1087.48 1025.01 1086.98 1025.01
  L 1079.51 1025.00
  Q 1079.02 1025.00 1079.02 1025.49
  L 1078.99 1032.73
  Q 1078.99 1033.21 1078.52 1033.21
  L 1075.63 1033.20
  Q 1075.00 1033.20 1075.00 1033.84
  L 1075.00 1037.00
  Q 1075.00 1037.55 1075.52 1037.54
  L 1082.53 1037.49
  Q 1083.28 1037.49 1083.27 1038.27
  L 1083.23 1044.92
  Q 1083.23 1045.83 1082.39 1045.79
  L 1079.70 1045.67
  Q 1079.08 1045.64 1079.06 1046.29
  L 1078.96 1049.53
  Q 1078.95 1050.01 1078.47 1050.01
  L 1071.25 1050.01
  Q 1070.74 1050.01 1070.73 1050.49
  L 1070.67 1053.42
  A 0.54 0.53 -88.8 0 0 1071.19 1053.97
  L 1074.29 1054.04
  Q 1075.00 1054.06 1075.00 1054.71
  L 1074.98 1057.64
  A 0.73 0.60 0.5 0 1 1074.24 1058.24
  L 1071.35 1058.22
  Q 1070.87 1058.21 1070.83 1058.63
  L 1070.53 1061.69
  Q 1070.47 1062.37 1069.76 1062.36
  L 1067.29 1062.35
  Q 1066.70 1062.34 1066.68 1061.77
  L 1066.46 1054.52
  Q 1066.44 1054.07 1066.08 1054.05
  L 1063.09 1053.94
  Q 1062.58 1053.93 1062.58 1053.37
  L 1062.49 1033.98
  Q 1062.49 1033.21 1061.71 1033.22
  L 1059.03 1033.26
  Q 1058.27 1033.27 1058.26 1034.00
  L 1058.22 1036.80
  Q 1058.21 1037.30 1057.70 1037.31
  L 1046.24 1037.45
  Q 1045.76 1037.46 1045.76 1036.99
  L 1045.82 1025.74
  Q 1045.83 1025.14 1046.16 1025.12
  L 1049.10 1024.99
  Q 1050.00 1024.95 1050.00 1023.97
  L 1049.98 1017.33
  Q 1049.98 1016.35 1049.08 1016.36
  L 1046.51 1016.40
  Q 1045.83 1016.41 1045.84 1015.77
  L 1045.84 1014.16
  A 1.44 1.35 3.7 0 0 1044.57 1012.81
  L 1038.62 1012.11
  Q 1038.06 1012.04 1037.85 1011.52
  Q 1037.39 1010.41 1037.76 1009.20
  Q 1037.91 1008.71 1038.40 1008.58
  L 1040.72 1007.95
  Q 1041.39 1007.76 1041.42 1007.16
  L 1041.52 1005.41
  A 1.46 1.32 -3.3 0 1 1042.75 1004.16
  L 1045.12 1003.80
  Q 1045.71 1003.71 1045.72 1003.13
  L 1045.78 1000.91
  Q 1045.79 1000.35 1046.37 1000.29
  L 1049.20 999.98
  Q 1050.01 999.90 1050.00 999.05
  L 1050.00 996.42
  Q 1050.00 995.73 1049.24 995.71
  L 1042.33 995.50
  Q 1041.82 995.48 1041.78 994.98
  Q 1041.49 991.65 1041.52 990.75
  Q 1041.60 987.75 1039.31 987.41
  A 1.65 1.51 -88.0 0 1 1038.02 985.89
  L 1037.66 979.99
  A 0.70 0.68 83.4 0 1 1038.23 979.26
  L 1040.95 978.79
  A 0.76 0.74 85.1 0 0 1041.57 978.04
  L 1041.56 976.03
  Q 1041.56 975.37 1042.22 975.28
  L 1045.16 974.86
  Q 1045.77 974.77 1045.76 974.19
  L 1045.75 971.51
  Q 1045.74 970.90 1045.23 970.86
  L 1038.24 970.34
  Q 1037.70 970.30 1037.67 969.81
  L 1037.52 967.25
  Q 1037.49 966.71 1036.97 966.68
  L 1029.45 966.38
  A 0.44 0.44 0.0 0 1 1029.02 965.94
  L 1029.00 950.78
  Q 1029.00 950.05 1029.73 950.04
  L 1032.55 949.99
  Q 1033.33 949.97 1033.32 949.22
  L 1033.30 946.41
  Q 1033.30 945.72 1032.67 945.72
  L 1029.50 945.70
  A 0.47 0.47 0.0 0 1 1029.03 945.23
  L 1028.93 933.83
  Q 1028.93 933.24 1028.34 933.24
  L 1025.52 933.23
  Q 1025.03 933.23 1025.02 933.73
  L 1024.97 941.01
  Q 1024.97 941.48 1024.47 941.48
  L 1021.13 941.47
  Q 1020.76 941.47 1020.75 941.85
  L 1020.72 945.24
  Q 1020.72 945.78 1021.25 945.78
  L 1024.22 945.75
  Q 1024.95 945.74 1024.96 946.48
  L 1025.02 949.21
  Q 1025.03 949.99 1024.28 949.99
  L 1016.99 950.01
  Q 1016.51 950.01 1016.51 950.51
  L 1016.49 957.39
  Q 1016.48 958.26 1015.63 958.26
  L 1009.18 958.25
  Q 1008.32 958.25 1008.32 957.39
  L 1008.31 954.78
  Q 1008.31 953.98 1007.54 953.98
  L 1001.26 953.97
  Q 999.99 953.97 999.98 955.29
  L 999.97 957.67
  Q 999.97 958.32 1000.66 958.32
  L 1003.24 958.31
  Q 1003.94 958.31 1003.94 959.00
  L 1003.96 962.00
  Q 1003.96 962.53 1004.51 962.53
  L 1007.78 962.55
  Q 1008.26 962.55 1008.26 963.03
  L 1008.22 973.93
  Q 1008.22 974.59 1007.54 974.70
  L 1004.79 975.12
  Q 1004.26 975.21 1004.15 975.71
  Q 1003.81 977.20 1003.91 978.03
  A 1.11 1.09 -3.3 0 0 1005.00 978.99
  L 1015.36 979.06
  A 1.00 0.99 -3.3 0 1 1016.34 979.93
  Q 1016.69 982.80 1016.00 986.03
  A 1.88 1.88 0.0 0 1 1014.63 987.45
  Q 1013.66 987.70 1013.00 988.31
  Q 1012.60 988.67 1012.52 989.21
  Q 1012.17 991.64 1009.43 991.53
  A 0.92 0.92 0.0 0 0 1008.56 992.05
  Q 1008.18 992.82 1008.21 994.38
  A 1.21 1.16 89.7 0 1 1007.04 995.61
  L 1004.73 995.60
  Q 1004.10 995.59 1004.09 996.18
  L 1003.97 1002.55
  Q 1003.94 1004.00 1002.50 1004.10
  L 1001.56 1004.16
  Q 1000.22 1004.26 1000.09 1002.99
  L 999.87 1000.69
  Q 999.81 1000.10 999.18 1000.03
  L 996.42 999.72
  Q 995.87 999.66 995.85 999.13
  L 995.75 996.79
  Q 995.70 995.64 994.57 995.68
  L 992.65 995.75
  Q 991.50 995.79 991.49 996.91
  L 991.39 1003.08
  A 0.91 0.89 -1.2 0 1 990.54 1003.96
  L 988.52 1004.07
  Q 987.57 1004.12 987.58 1003.24
  L 987.62 1001.05
  A 1.15 1.04 89.4 0 0 986.54 999.88
  L 984.23 999.98
  Q 983.18 1000.02 983.18 1001.16
  L 983.19 1003.36
  Q 983.20 1003.91 982.63 1003.93
  L 979.71 1004.03
  Q 979.20 1004.05 979.15 1004.55
  L 978.84 1007.72
  Q 978.79 1008.24 978.27 1008.23
  L 975.96 1008.18
  Q 975.05 1008.16 975.04 1009.07
  L 974.97 1015.70
  Q 974.96 1016.69 975.87 1016.67
  L 978.08 1016.62
  Q 978.92 1016.60 978.95 1017.55
  L 979.00 1019.76
  Q 979.03 1020.76 977.99 1020.72
  L 975.72 1020.63
  Q 975.16 1020.61 975.14 1021.21
  L 975.04 1023.63
  Q 974.99 1024.96 973.66 1024.95
  L 968.02 1024.91
  Q 966.72 1024.90 966.69 1023.64
  L 966.38 1013.38
  Q 966.35 1012.43 965.36 1012.49
  L 963.56 1012.61
  A 1.07 1.00 -87.1 0 0 962.63 1013.51
  L 962.32 1015.50
  Q 962.23 1016.13 961.63 1016.15
  L 954.81 1016.41
  Q 954.21 1016.43 954.16 1015.84
  L 953.90 1013.00
  Q 953.84 1012.38 953.24 1012.40
  L 950.89 1012.48
  Q 950.08 1012.50 950.07 1011.67
  L 950.05 1009.17
  Q 950.04 1008.38 950.79 1008.38
  L 952.84 1008.38
  Q 953.98 1008.39 953.98 1007.16
  L 954.00 1001.01
  Q 954.00 1000.00 953.02 999.98
  L 950.65 999.93
  Q 950.12 999.92 950.10 999.39
  L 949.94 996.36
  Q 949.90 995.72 949.32 995.70
  L 946.59 995.61
  Q 945.76 995.59 945.77 994.69
  L 945.84 988.46
  Q 945.86 987.55 946.74 987.56
  L 949.05 987.58
  Q 949.95 987.60 949.95 986.68
  L 949.98 983.76
  Q 949.98 983.26 949.50 983.25
  L 946.20 983.17
  Q 945.74 983.16 945.75 982.71
  L 945.80 979.71
  Q 945.82 979.06 945.23 979.04
  L 942.42 978.95
  Q 941.56 978.92 941.55 977.99
  L 941.53 971.57
  Q 941.53 970.73 942.34 970.74
  L 945.28 970.76
  Q 945.81 970.76 945.80 970.22
  L 945.74 967.15
  Q 945.73 966.61 946.27 966.61
  L 949.32 966.59
  Q 949.97 966.58 949.97 965.92
  L 950.01 954.98
  Q 950.01 954.12 949.09 954.09
  L 946.34 954.01
  A 0.64 0.60 -88.9 0 0 945.72 954.64
  L 945.65 961.87
  A 0.64 0.63 -89.4 0 1 945.02 962.50
  L 942.26 962.47
  Q 941.55 962.46 941.54 961.77
  L 941.50 958.72
  Q 941.50 958.23 940.99 958.23
  L 933.74 958.26
  Q 933.24 958.26 933.24 957.75
  L 933.27 942.01
  Q 933.27 941.54 933.74 941.54
  L 936.86 941.56
  Q 937.55 941.56 937.55 940.89
  L 937.54 937.98
  Q 937.53 937.42 936.99 937.43
  L 933.72 937.46
  Q 933.24 937.47 933.24 936.98
  L 933.33 921.01
  A 0.33 0.31 0.5 0 0 933.01 920.70
  L 929.26 920.65
  A 0.32 0.27 -89.6 0 0 928.99 920.97
  L 928.97 928.51
  Q 928.97 928.99 928.49 928.99
  L 921.13 928.96
  Q 920.72 928.95 920.72 929.36
  L 920.72 932.76
  Q 920.72 933.31 921.26 933.30
  L 924.25 933.24
  Q 924.99 933.22 924.99 934.00
  L 925.01 940.89
  Q 925.01 941.57 924.38 941.54
  L 921.50 941.43
  Q 920.75 941.40 920.74 942.22
  L 920.73 953.51
  Q 920.73 954.00 920.24 954.00
  L 916.99 953.99
  Q 916.49 953.98 916.50 953.49
  L 916.53 950.52
  Q 916.54 950.00 916.02 950.00
  L 900.90 950.02
  Q 899.96 950.02 899.97 951.03
  L 900.01 952.98
  Q 900.02 953.94 900.98 953.97
  L 903.27 954.05
  Q 903.97 954.07 903.97 954.77
  L 903.98 961.90
  A 0.66 0.65 0.0 0 0 904.64 962.55
  L 911.82 962.56
  A 0.74 0.74 0.0 0 1 912.56 963.32
  L 912.40 969.70
  Q 912.37 970.54 911.59 970.58
  L 909.15 970.71
  A 0.97 0.90 -89.7 0 0 908.29 971.63
  L 908.16 974.06
  Q 908.11 974.99 909.09 974.99
  L 915.62 974.97
  A 0.92 0.88 -87.7 0 0 916.50 974.12
  L 916.71 971.49
  Q 916.76 970.85 917.34 970.83
  L 919.73 970.77
  Q 920.36 970.75 920.42 971.37
  Q 921.18 979.26 920.13 986.54
  Q 920.06 987.02 919.63 987.23
  L 917.69 988.14
  Q 917.16 988.39 916.94 988.92
  Q 916.05 991.14 913.76 991.66
  Q 913.23 991.78 912.93 992.25
  Q 912.29 993.27 912.47 994.76
  Q 912.57 995.62 913.43 995.70
  L 915.50 995.89
  A 0.83 0.83 0.0 0 1 916.23 996.52
  Q 916.57 997.94 916.24 999.12
  Q 916.10 999.61 915.60 999.73
  Q 912.67 1000.44 909.24 999.65
  Q 908.65 999.51 908.56 998.96
  L 908.21 996.77
  Q 908.12 996.23 907.55 996.11
  Q 904.50 995.43 900.86 995.85
  Q 900.33 995.92 900.18 996.43
  Q 899.80 997.78 900.02 999.31
  Q 900.10 999.87 900.75 999.92
  L 903.16 1000.10
  Q 904.05 1000.16 904.05 1001.07
  L 904.05 1002.72
  Q 904.05 1003.75 903.08 1003.85
  L 900.77 1004.10
  Q 900.23 1004.15 900.16 1004.69
  L 899.80 1007.59
  Q 899.72 1008.17 899.15 1008.19
  L 896.60 1008.23
  Q 895.99 1008.25 895.90 1008.84
  L 895.47 1011.78
  Q 895.39 1012.35 894.82 1012.38
  L 892.42 1012.50
  Q 891.68 1012.54 891.67 1013.31
  L 891.53 1019.68
  Q 891.51 1020.63 892.46 1020.69
  L 895.00 1020.87
  A 0.65 0.65 0.0 0 1 895.60 1021.52
  L 895.63 1032.56
  A 0.67 0.67 0.0 0 1 894.95 1033.24
  L 892.04 1033.21
  Q 891.51 1033.21 891.50 1033.72
  L 891.39 1036.75
  Q 891.37 1037.41 890.71 1037.42
  L 888.25 1037.45
  Q 887.53 1037.46 887.53 1036.75
  L 887.53 1033.73
  Q 887.52 1033.20 887.00 1033.21
  L 883.74 1033.24
  Q 883.23 1033.25 883.24 1032.75
  L 883.30 1029.53
  Q 883.30 1029.01 882.79 1029.01
  L 879.51 1028.98
  Q 879.00 1028.97 879.00 1029.48
  L 878.99 1036.98
  Q 878.99 1037.43 878.52 1037.44
  L 875.69 1037.53"
/>
<path stroke="#5b3e67" vector-effect="non-scaling-stroke" d="
  M 1196.05 528.95
  L 1199.52 528.94
  Q 1200.00 528.94 1200.00 528.52
  L 1200.01 521.36
  Q 1200.01 520.80 1199.39 520.79
  L 1197.69 520.75"
/>
<path stroke="#5b3e67" vector-effect="non-scaling-stroke" d="
  M 1198.82 516.80
  Q 1200.50 516.00 1199.61 513.89"
/>
<path stroke="#5b3e67" vector-effect="non-scaling-stroke" d="
  M 908.26 1298.09
  L 908.16 1296.22
  Q 908.13 1295.76 907.72 1295.76
  L 904.47 1295.78
  A 0.51 0.47 -90.0 0 1 904.00 1295.27
  L 904.02 1291.97
  Q 904.02 1291.48 904.53 1291.48
  L 907.75 1291.50
  Q 908.25 1291.50 908.25 1291.02
  L 908.25 1284.26
  Q 908.25 1283.22 907.30 1283.22
  L 900.97 1283.26
  Q 899.99 1283.27 899.99 1284.21
  L 900.00 1287.03
  Q 900.00 1287.54 899.47 1287.54
  L 896.24 1287.52
  Q 895.70 1287.52 895.70 1286.99
  L 895.75 1271.77
  Q 895.75 1270.77 894.79 1270.80
  L 892.14 1270.86
  Q 891.43 1270.88 891.42 1270.14
  L 891.39 1266.98
  A 0.60 0.59 0.1 0 1 892.00 1266.39
  L 899.52 1266.47
  A 0.49 0.49 0.0 0 0 900.02 1265.97
  L 899.98 1258.90
  Q 899.97 1258.31 899.38 1258.31
  L 891.99 1258.32
  Q 891.40 1258.32 891.40 1257.75
  L 891.43 1254.63
  A 0.67 0.64 0.1 0 1 892.10 1254.00
  L 899.23 1253.96
  A 0.73 0.70 0.8 0 0 899.96 1253.29
  L 900.05 1250.77
  Q 900.07 1250.10 900.73 1250.07
  L 903.11 1249.97
  A 1.02 0.97 88.2 0 0 904.04 1248.93
  L 903.99 1246.75
  A 1.04 0.95 88.6 0 0 903.01 1245.73
  L 900.88 1245.79
  Q 900.03 1245.81 900.00 1244.90
  L 899.89 1242.45
  Q 899.86 1241.53 900.71 1241.51
  L 903.37 1241.45
  Q 903.98 1241.43 903.97 1240.81
  L 903.91 1238.17
  A 0.63 0.63 0.0 0 0 903.29 1237.55
  L 900.74 1237.53
  Q 900.25 1237.53 900.20 1238.01
  L 899.86 1240.91
  Q 899.78 1241.60 899.11 1241.59
  L 896.50 1241.56
  Q 895.68 1241.55 895.68 1240.74
  L 895.74 1225.50
  Q 895.74 1224.98 896.25 1224.98
  L 903.50 1224.99
  Q 903.97 1224.99 903.98 1224.51
  L 904.02 1221.22
  Q 904.03 1220.73 904.53 1220.73
  L 911.85 1220.77
  Q 912.48 1220.77 912.48 1220.16
  L 912.50 1217.14
  A 0.63 0.57 89.9 0 0 911.92 1216.51
  L 908.75 1216.55
  Q 908.19 1216.56 908.20 1216.00
  L 908.22 1212.99
  Q 908.22 1212.44 908.77 1212.44
  L 920.13 1212.50
  Q 920.75 1212.50 920.76 1211.88
  L 920.79 1208.75
  A 0.54 0.53 89.6 0 0 920.24 1208.20
  L 917.02 1208.29
  Q 916.48 1208.30 916.49 1207.76
  L 916.51 1200.51
  Q 916.51 1200.02 916.01 1200.02
  L 908.72 1200.01
  A 0.54 0.54 0.0 0 1 908.18 1199.47
  L 908.24 1188.01
  Q 908.24 1187.52 907.76 1187.52
  L 900.50 1187.55
  A 0.55 0.55 0.0 0 1 899.95 1186.99
  L 900.04 1175.77
  Q 900.05 1175.06 900.76 1175.04
  L 903.36 1174.97
  Q 903.94 1174.96 903.95 1174.39
  L 903.97 1163.25
  Q 903.97 1162.51 903.24 1162.52
  L 892.26 1162.59
  Q 891.43 1162.59 891.43 1161.77
  L 891.44 1154.75
  Q 891.44 1154.06 890.74 1154.05
  L 880.12 1153.97
  Q 878.97 1153.96 878.97 1155.07
  L 878.99 1161.38
  Q 878.99 1162.47 880.12 1162.46
  L 882.73 1162.44
  A 0.53 0.52 -89.8 0 1 883.25 1162.98
  L 883.05 1178.34
  Q 883.04 1178.97 882.39 1178.99
  L 879.80 1179.10
  Q 879.28 1179.12 879.27 1179.66
  L 878.89 1190.68
  Q 878.86 1191.49 878.06 1191.50
  L 875.77 1191.55
  Q 875.04 1191.57 875.03 1190.79
  L 874.93 1183.82
  Q 874.92 1183.21 874.32 1183.22
  L 871.27 1183.28
  A 0.53 0.51 -0.7 0 1 870.73 1182.77
  L 870.72 1179.94
  Q 870.71 1178.98 869.73 1179.00
  L 867.60 1179.05
  Q 866.52 1179.07 866.50 1180.14
  L 866.45 1182.61
  Q 866.44 1183.18 865.87 1183.23
  L 863.17 1183.49
  Q 862.68 1183.53 862.64 1184.04
  L 862.45 1186.94
  Q 862.42 1187.38 861.93 1187.48
  Q 860.35 1187.80 859.23 1187.55
  Q 858.34 1187.34 858.33 1188.23
  L 858.27 1194.71
  Q 858.26 1195.68 859.22 1195.68
  L 861.83 1195.68
  Q 862.48 1195.68 862.50 1196.33
  L 862.59 1199.26
  Q 862.61 1200.00 861.89 1200.01
  L 850.99 1200.05
  Q 849.95 1200.05 849.96 1198.97
  L 850.00 1196.58
  A 0.90 0.87 -89.6 0 1 850.87 1195.69
  L 853.30 1195.69
  A 0.71 0.70 -0.3 0 0 854.00 1194.99
  L 853.98 1192.22
  A 0.73 0.71 -0.2 0 0 853.25 1191.52
  L 846.24 1191.51
  Q 845.71 1191.50 845.72 1190.98
  L 845.76 1187.99
  Q 845.76 1187.49 846.26 1187.48
  L 849.37 1187.45
  A 0.58 0.58 0.0 0 0 849.94 1186.88
  L 850.05 1176.02
  Q 850.06 1175.06 850.97 1175.03
  L 853.18 1174.96
  Q 854.01 1174.93 854.00 1174.06
  L 853.97 1171.59
  Q 853.96 1170.71 853.12 1170.74
  L 850.69 1170.84
  Q 850.01 1170.87 850.01 1170.18
  L 850.03 1163.19
  Q 850.03 1162.64 849.44 1162.64
  L 841.22 1162.66"
/>
<path stroke="#5b3e67" vector-effect="non-scaling-stroke" d="
  M 891.85 1304.41
  Q 887.77 1303.64 883.71 1304.17
  Q 883.22 1304.23 883.23 1304.73
  L 883.27 1308.22"
/>
<path stroke="#5b3e67" vector-effect="non-scaling-stroke" d="
  M 874.96 1309.98
  L 874.96 1300.43
  Q 874.96 1299.97 874.48 1299.98
  L 871.22 1300.02
  Q 870.75 1300.03 870.75 1300.52
  L 870.74 1307.77
  Q 870.74 1308.27 870.24 1308.27
  L 867.18 1308.23
  Q 866.60 1308.23 866.57 1308.84
  L 866.49 1310.78"
/>
<path stroke="#5b3e67" vector-effect="non-scaling-stroke" d="
  M 862.56 1310.94
  L 862.53 1296.21
  Q 862.53 1295.72 862.06 1295.72
  L 858.69 1295.71
  Q 858.33 1295.71 858.32 1296.09
  L 858.24 1299.05
  Q 858.21 1300.00 857.24 1300.01
  L 851.00 1300.05
  Q 849.99 1300.06 849.99 1299.03
  L 849.99 1291.97
  Q 849.99 1291.45 849.47 1291.46
  L 846.25 1291.48
  Q 845.76 1291.48 845.76 1291.99
  L 845.74 1299.52
  A 0.52 0.49 -89.7 0 1 845.25 1300.03
  L 842.09 1300.00
  Q 841.44 1300.00 841.46 1300.62
  L 841.55 1303.49
  A 0.53 0.52 -0.9 0 1 841.02 1304.02
  L 838.00 1304.02
  A 0.53 0.51 0.2 0 1 837.48 1303.51
  L 837.53 1296.25
  Q 837.53 1295.76 837.01 1295.75
  L 829.97 1295.70
  Q 828.98 1295.70 828.98 1296.66
  L 828.99 1303.06
  Q 828.99 1304.09 829.97 1304.06
  L 832.76 1303.98
  Q 833.22 1303.97 833.22 1304.50
  L 833.17 1308.08"
/>
</g>
<path fill="#b67ccd" d="
  M 1247.64 495.40
  Q 1243.15 497.72 1247.60 500.44
  L 1246.42 525.22
  Q 1245.32 521.30 1245.62 517.07
  Q 1245.66 516.45 1245.10 516.46
  L 1241.99 516.54
  Q 1241.52 516.55 1241.52 517.00
  L 1241.54 520.14
  Q 1241.54 520.74 1240.90 520.75
  L 1238.01 520.81
  Q 1237.45 520.83 1237.45 520.27
  L 1237.49 513.30
  A 0.72 0.67 -89.8 0 0 1236.82 512.58
  L 1233.98 512.58
  Q 1233.17 512.58 1233.17 511.74
  L 1233.25 500.52
  Q 1233.25 500.02 1232.77 500.02
  L 1229.74 500.01
  Q 1229.01 500.01 1229.00 499.25
  L 1228.98 491.97
  Q 1228.98 491.47 1228.46 491.47
  L 1225.53 491.49
  Q 1225.07 491.49 1225.06 491.96
  L 1224.96 495.27
  Q 1224.94 495.73 1224.48 495.73
  L 1221.26 495.76
  Q 1220.74 495.76 1220.74 495.25
  L 1220.73 487.99
  Q 1220.73 487.51 1220.24 487.50
  L 1217.00 487.47
  Q 1216.48 487.47 1216.49 487.99
  L 1216.52 499.48
  Q 1216.52 499.97 1216.02 499.97
  L 1208.75 500.02
  Q 1208.28 500.02 1208.29 500.51
  L 1208.30 503.29
  Q 1208.30 503.80 1207.79 503.91
  Q 1205.03 504.55 1203.55 503.15
  C 1207.76 492.60 1212.31 481.38 1213.38 470.50
  C 1213.84 465.85 1209.47 460.41 1205.65 457.88
  Q 1201.41 455.07 1195.91 453.36
  Q 1195.37 453.19 1186.75 450.59
  Q 1185.14 450.10 1181.99 449.50
  Q 1177.71 448.69 1173.78 445.49
  Q 1170.82 443.07 1169.96 440.99
  Q 1167.55 435.16 1167.55 431.50
  Q 1167.55 429.18 1167.41 427.17
  Q 1167.24 424.85 1167.85 422.96
  C 1169.62 417.55 1170.71 414.55 1174.44 411.19
  Q 1176.82 409.03 1179.32 410.10
  Q 1179.84 410.32 1180.22 410.83
  Q 1180.63 411.38 1181.59 414.76
  Q 1185.89 430.03 1199.38 439.88
  Q 1200.11 440.41 1207.78 443.82
  Q 1210.01 444.81 1216.42 446.95
  Q 1224.91 449.79 1230.95 452.79
  C 1235.00 454.80 1239.61 454.98 1243.23 458.20
  Q 1243.61 458.53 1244.09 458.63
  Q 1245.39 458.90 1245.64 460.67
  Q 1248.28 479.60 1247.64 495.40
  Z"
/>
<path fill="#000000" d="
  M 1246.42 525.22
  Q 1246.47 532.91 1246.18 534.88
  Q 1244.80 544.44 1242.67 555.72
  Q 1242.31 557.67 1241.65 564.90
  Q 1241.17 570.21 1242.09 574.07
  Q 1243.49 579.93 1246.14 584.71
  C 1246.67 585.68 1247.02 585.66 1247.82 586.16
  A 1.66 1.65 -88.0 0 1 1248.41 586.79
  Q 1250.60 590.93 1252.79 592.88
  Q 1253.20 593.25 1253.26 593.79
  Q 1254.16 601.64 1253.64 605.65
  Q 1252.81 612.17 1251.67 621.13
  Q 1251.13 625.35 1251.67 632.94
  Q 1252.50 644.37 1252.22 655.76
  C 1251.84 671.84 1250.30 687.67 1248.04 704.72
  Q 1243.96 735.56 1241.88 766.62
  L 1238.35 766.40
  Q 1237.48 766.35 1237.48 767.20
  L 1237.49 774.25
  Q 1237.49 775.03 1238.31 775.03
  L 1241.08 775.04
  L 1239.36 791.46
  Q 1238.64 791.37 1238.04 791.55
  Q 1237.54 791.70 1237.53 792.22
  Q 1237.49 793.62 1237.48 795.00
  Q 1237.47 796.05 1238.77 795.97
  Q 1237.37 807.41 1234.97 818.66
  Q 1234.57 820.54 1234.85 821.35
  C 1235.18 822.31 1235.41 824.19 1235.34 824.96
  Q 1233.07 848.57 1226.45 873.47
  C 1220.19 897.06 1216.93 909.22 1214.25 920.93
  Q 1213.12 925.87 1212.94 931.17
  Q 1212.56 942.75 1211.69 956.51
  Q 1210.60 973.73 1205.00 994.79
  Q 1198.26 1020.10 1193.41 1045.77
  L 1187.99 1045.74
  Q 1187.48 1045.74 1187.48 1045.23
  L 1187.53 1041.96
  Q 1187.54 1041.47 1188.04 1041.48
  L 1190.99 1041.53
  Q 1191.53 1041.54 1191.53 1041.00
  L 1191.54 1038.01
  Q 1191.54 1037.48 1191.01 1037.48
  L 1188.00 1037.47
  Q 1187.53 1037.46 1187.52 1037.00
  L 1187.48 1033.78
  Q 1187.47 1033.29 1187.96 1033.29
  L 1191.25 1033.26
  Q 1191.51 1033.26 1191.51 1033.00
  L 1191.54 1029.41
  Q 1191.54 1029.02 1191.15 1029.01
  L 1187.97 1028.97
  Q 1187.48 1028.96 1187.48 1028.50
  L 1187.47 1025.50
  Q 1187.47 1025.03 1187.97 1025.02
  L 1191.02 1024.99
  Q 1191.51 1024.99 1191.51 1024.49
  L 1191.51 1008.74
  Q 1191.51 1008.22 1190.99 1008.22
  L 1183.76 1008.22
  Q 1183.21 1008.22 1183.21 1008.75
  L 1183.22 1012.00
  Q 1183.22 1012.54 1183.74 1012.54
  L 1186.88 1012.52
  Q 1187.48 1012.52 1187.48 1013.15
  L 1187.50 1015.66
  Q 1187.50 1016.52 1186.63 1016.52
  L 1179.76 1016.51
  Q 1178.97 1016.51 1178.98 1015.76
  L 1179.01 1008.73
  Q 1179.01 1008.21 1178.50 1008.21
  L 1171.24 1008.26
  Q 1170.76 1008.26 1170.76 1007.76
  L 1170.75 996.24
  Q 1170.75 995.73 1171.25 995.73
  L 1174.47 995.76
  Q 1174.97 995.77 1174.97 995.27
  L 1175.04 987.98
  Q 1175.04 987.48 1175.54 987.49
  L 1178.14 987.57
  Q 1179.02 987.59 1179.02 986.67
  L 1179.00 984.12
  Q 1178.99 983.17 1178.13 983.19
  L 1175.70 983.25
  Q 1175.10 983.27 1175.09 982.67
  L 1175.02 980.17
  Q 1174.99 979.12 1173.88 979.06
  L 1171.73 978.96
  Q 1170.70 978.90 1170.67 979.94
  L 1170.56 982.70
  Q 1170.54 983.17 1170.05 983.18
  L 1167.21 983.23
  Q 1166.58 983.24 1166.57 982.66
  L 1166.51 979.49
  A 0.61 0.47 -0.0 0 0 1165.90 979.03
  L 1159.16 978.96
  Q 1158.34 978.95 1158.33 978.11
  L 1158.31 976.06
  Q 1158.30 975.25 1159.12 975.17
  L 1161.87 974.89
  A 0.67 0.67 0.0 0 0 1162.47 974.22
  L 1162.44 967.01
  Q 1162.44 966.39 1161.86 966.35
  L 1159.39 966.15
  Q 1158.48 966.08 1158.45 965.14
  L 1158.42 963.97
  A 1.23 1.18 86.8 0 1 1159.49 962.72
  L 1161.99 962.51
  Q 1162.44 962.47 1162.49 961.97
  L 1162.67 959.82
  A 1.33 1.28 -4.4 0 1 1163.70 958.67
  L 1165.37 958.28
  Q 1165.90 958.16 1165.99 957.66
  Q 1167.02 951.74 1166.07 946.54
  A 1.10 1.10 0.0 0 0 1165.02 945.64
  Q 1163.93 945.61 1163.20 945.18
  A 0.97 0.96 12.1 0 1 1162.74 944.47
  L 1162.48 942.36
  Q 1162.38 941.54 1161.63 941.52
  L 1159.22 941.48
  Q 1158.29 941.47 1158.28 942.30
  L 1158.17 952.87
  Q 1158.16 953.89 1157.13 953.97
  L 1155.26 954.13
  A 1.04 0.95 -4.8 0 1 1154.14 953.27
  L 1153.93 950.76
  Q 1153.86 949.98 1153.17 949.98
  L 1146.33 950.07
  A 0.61 0.60 0.4 0 0 1145.73 950.66
  L 1145.67 952.90
  Q 1145.64 953.96 1144.55 953.97
  L 1142.57 953.98
  Q 1141.63 953.99 1141.61 953.09
  L 1141.56 950.88
  Q 1141.55 950.15 1140.83 950.06
  L 1138.46 949.76
  Q 1137.69 949.67 1137.73 948.90
  L 1137.85 946.66
  A 0.78 0.78 0.0 0 1 1138.55 945.92
  L 1140.80 945.70
  A 0.70 0.68 85.0 0 0 1141.41 944.96
  L 1141.22 942.53
  Q 1141.16 941.75 1140.38 941.65
  L 1138.44 941.40
  Q 1137.88 941.33 1137.86 940.77
  Q 1137.41 930.71 1137.54 925.57
  Q 1137.55 924.94 1136.96 924.94
  L 1134.36 924.95
  Q 1133.36 924.95 1133.37 923.86
  L 1133.47 913.42
  A 1.19 1.18 -89.8 0 0 1132.29 912.22
  L 1129.70 912.23
  Q 1128.89 912.23 1128.89 913.05
  L 1128.99 924.04
  A 0.85 0.83 89.5 0 1 1128.17 924.90
  L 1121.24 924.95
  Q 1120.68 924.95 1120.66 925.55
  L 1120.57 928.21
  A 0.74 0.71 -87.7 0 0 1121.25 928.97
  L 1124.12 929.11
  A 0.87 0.84 1.0 0 1 1124.95 929.93
  L 1124.99 932.69
  Q 1125.00 933.35 1125.68 933.33
  L 1128.09 933.26
  Q 1128.94 933.23 1128.94 934.10
  L 1128.96 940.62
  Q 1128.97 941.54 1128.04 941.53
  L 1125.89 941.51
  Q 1125.26 941.51 1125.19 942.11
  L 1124.87 945.08
  Q 1124.81 945.64 1124.25 945.66
  L 1121.90 945.76
  Q 1120.81 945.80 1120.72 946.88
  L 1120.57 948.71
  Q 1120.48 949.82 1121.56 949.90
  L 1124.21 950.09
  Q 1125.07 950.15 1125.06 951.00
  L 1125.04 952.97
  A 1.04 1.02 -89.4 0 1 1124.01 954.00
  L 1117.18 953.94
  A 0.64 0.63 0.4 0 1 1116.55 953.31
  L 1116.56 950.92
  Q 1116.56 949.99 1115.61 950.00
  L 1109.31 950.03
  Q 1108.33 950.03 1108.29 951.00
  L 1108.20 953.32
  Q 1108.19 953.82 1107.69 953.86
  L 1104.93 954.04
  A 1.01 1.01 0.0 0 0 1103.99 955.04
  L 1103.96 957.51
  Q 1103.95 958.31 1104.73 958.31
  L 1107.77 958.29
  Q 1108.23 958.29 1108.22 958.77
  L 1108.20 962.00
  Q 1108.19 962.55 1108.74 962.55
  L 1112.01 962.53
  Q 1112.49 962.53 1112.49 963.01
  L 1112.44 970.24
  Q 1112.44 970.82 1113.01 970.81
  L 1115.78 970.79
  A 0.74 0.71 89.6 0 1 1116.50 971.52
  L 1116.51 974.25
  A 0.76 0.67 -89.2 0 1 1115.82 975.02
  L 1113.32 974.93
  Q 1112.45 974.90 1112.45 975.86
  L 1112.43 982.50
  Q 1112.43 983.30 1113.24 983.30
  L 1128.00 983.31
  Q 1128.97 983.31 1128.97 984.23
  L 1128.99 986.77
  Q 1128.99 987.54 1128.25 987.51
  L 1125.90 987.42
  Q 1125.02 987.38 1125.01 988.28
  L 1124.96 994.83
  A 0.97 0.96 -1.0 0 0 1125.96 995.80
  L 1128.11 995.71
  Q 1128.97 995.67 1128.99 996.59
  L 1129.06 999.00
  Q 1129.09 999.91 1128.24 999.93
  L 1121.53 1000.13
  Q 1120.68 1000.15 1120.67 1000.96
  L 1120.64 1003.25
  Q 1120.64 1003.86 1120.03 1003.88
  L 1117.18 1004.01
  Q 1116.65 1004.03 1116.64 1004.56
  L 1116.40 1019.65
  A 0.90 0.82 -0.8 0 1 1115.54 1020.47
  L 1113.81 1020.54
  Q 1112.71 1020.58 1112.62 1019.50
  L 1112.40 1017.04
  Q 1112.35 1016.45 1111.77 1016.44
  L 1109.04 1016.42
  Q 1108.37 1016.42 1108.34 1015.80
  L 1108.18 1013.06
  A 0.63 0.63 0.0 0 0 1107.54 1012.46
  L 1104.71 1012.50
  Q 1104.14 1012.51 1104.12 1011.92
  L 1103.94 1004.68
  A 0.70 0.65 89.4 0 0 1103.29 1004.00
  L 1096.49 1003.97
  A 0.80 0.78 0.1 0 0 1095.69 1004.76
  L 1095.69 1012.00
  A 0.56 0.56 0.0 0 0 1096.25 1012.55
  L 1099.52 1012.57
  Q 1099.98 1012.58 1099.98 1013.02
  L 1099.99 1015.75
  A 0.74 0.72 -89.8 0 1 1099.26 1016.49
  L 1096.25 1016.46
  Q 1095.75 1016.46 1095.75 1016.99
  L 1095.73 1024.52
  Q 1095.73 1025.01 1095.23 1025.01
  L 1091.98 1024.99
  Q 1091.50 1024.98 1091.50 1024.49
  L 1091.57 1017.01
  Q 1091.58 1016.45 1091.01 1016.45
  L 1087.99 1016.43
  Q 1087.42 1016.42 1087.43 1017.00
  L 1087.48 1024.52
  Q 1087.48 1025.01 1086.98 1025.01
  L 1079.51 1025.00
  Q 1079.02 1025.00 1079.02 1025.49
  L 1078.99 1032.73
  Q 1078.99 1033.21 1078.52 1033.21
  L 1075.63 1033.20
  Q 1075.00 1033.20 1075.00 1033.84
  L 1075.00 1037.00
  Q 1075.00 1037.55 1075.52 1037.54
  L 1082.53 1037.49
  Q 1083.28 1037.49 1083.27 1038.27
  L 1083.23 1044.92
  Q 1083.23 1045.83 1082.39 1045.79
  L 1079.70 1045.67
  Q 1079.08 1045.64 1079.06 1046.29
  L 1078.96 1049.53
  Q 1078.95 1050.01 1078.47 1050.01
  L 1071.25 1050.01
  Q 1070.74 1050.01 1070.73 1050.49
  L 1070.67 1053.42
  A 0.54 0.53 -88.8 0 0 1071.19 1053.97
  L 1074.29 1054.04
  Q 1075.00 1054.06 1075.00 1054.71
  L 1074.98 1057.64
  A 0.73 0.60 0.5 0 1 1074.24 1058.24
  L 1071.35 1058.22
  Q 1070.87 1058.21 1070.83 1058.63
  L 1070.53 1061.69
  Q 1070.47 1062.37 1069.76 1062.36
  L 1067.29 1062.35
  Q 1066.70 1062.34 1066.68 1061.77
  L 1066.46 1054.52
  Q 1066.44 1054.07 1066.08 1054.05
  L 1063.09 1053.94
  Q 1062.58 1053.93 1062.58 1053.37
  L 1062.49 1033.98
  Q 1062.49 1033.21 1061.71 1033.22
  L 1059.03 1033.26
  Q 1058.27 1033.27 1058.26 1034.00
  L 1058.22 1036.80
  Q 1058.21 1037.30 1057.70 1037.31
  L 1046.24 1037.45
  Q 1045.76 1037.46 1045.76 1036.99
  L 1045.82 1025.74
  Q 1045.83 1025.14 1046.16 1025.12
  L 1049.10 1024.99
  Q 1050.00 1024.95 1050.00 1023.97
  L 1049.98 1017.33
  Q 1049.98 1016.35 1049.08 1016.36
  L 1046.51 1016.40
  Q 1045.83 1016.41 1045.84 1015.77
  L 1045.84 1014.16
  A 1.44 1.35 3.7 0 0 1044.57 1012.81
  L 1038.62 1012.11
  Q 1038.06 1012.04 1037.85 1011.52
  Q 1037.39 1010.41 1037.76 1009.20
  Q 1037.91 1008.71 1038.40 1008.58
  L 1040.72 1007.95
  Q 1041.39 1007.76 1041.42 1007.16
  L 1041.52 1005.41
  A 1.46 1.32 -3.3 0 1 1042.75 1004.16
  L 1045.12 1003.80
  Q 1045.71 1003.71 1045.72 1003.13
  L 1045.78 1000.91
  Q 1045.79 1000.35 1046.37 1000.29
  L 1049.20 999.98
  Q 1050.01 999.90 1050.00 999.05
  L 1050.00 996.42
  Q 1050.00 995.73 1049.24 995.71
  L 1042.33 995.50
  Q 1041.82 995.48 1041.78 994.98
  Q 1041.49 991.65 1041.52 990.75
  Q 1041.60 987.75 1039.31 987.41
  A 1.65 1.51 -88.0 0 1 1038.02 985.89
  L 1037.66 979.99
  A 0.70 0.68 83.4 0 1 1038.23 979.26
  L 1040.95 978.79
  A 0.76 0.74 85.1 0 0 1041.57 978.04
  L 1041.56 976.03
  Q 1041.56 975.37 1042.22 975.28
  L 1045.16 974.86
  Q 1045.77 974.77 1045.76 974.19
  L 1045.75 971.51
  Q 1045.74 970.90 1045.23 970.86
  L 1038.24 970.34
  Q 1037.70 970.30 1037.67 969.81
  L 1037.52 967.25
  Q 1037.49 966.71 1036.97 966.68
  L 1029.45 966.38
  A 0.44 0.44 0.0 0 1 1029.02 965.94
  L 1029.00 950.78
  Q 1029.00 950.05 1029.73 950.04
  L 1032.55 949.99
  Q 1033.33 949.97 1033.32 949.22
  L 1033.30 946.41
  Q 1033.30 945.72 1032.67 945.72
  L 1029.50 945.70
  A 0.47 0.47 0.0 0 1 1029.03 945.23
  L 1028.93 933.83
  Q 1028.93 933.24 1028.34 933.24
  L 1025.52 933.23
  Q 1025.03 933.23 1025.02 933.73
  L 1024.97 941.01
  Q 1024.97 941.48 1024.47 941.48
  L 1021.13 941.47
  Q 1020.76 941.47 1020.75 941.85
  L 1020.72 945.24
  Q 1020.72 945.78 1021.25 945.78
  L 1024.22 945.75
  Q 1024.95 945.74 1024.96 946.48
  L 1025.02 949.21
  Q 1025.03 949.99 1024.28 949.99
  L 1016.99 950.01
  Q 1016.51 950.01 1016.51 950.51
  L 1016.49 957.39
  Q 1016.48 958.26 1015.63 958.26
  L 1009.18 958.25
  Q 1008.32 958.25 1008.32 957.39
  L 1008.31 954.78
  Q 1008.31 953.98 1007.54 953.98
  L 1001.26 953.97
  Q 999.99 953.97 999.98 955.29
  L 999.97 957.67
  Q 999.97 958.32 1000.66 958.32
  L 1003.24 958.31
  Q 1003.94 958.31 1003.94 959.00
  L 1003.96 962.00
  Q 1003.96 962.53 1004.51 962.53
  L 1007.78 962.55
  Q 1008.26 962.55 1008.26 963.03
  L 1008.22 973.93
  Q 1008.22 974.59 1007.54 974.70
  L 1004.79 975.12
  Q 1004.26 975.21 1004.15 975.71
  Q 1003.81 977.20 1003.91 978.03
  A 1.11 1.09 -3.3 0 0 1005.00 978.99
  L 1015.36 979.06
  A 1.00 0.99 -3.3 0 1 1016.34 979.93
  Q 1016.69 982.80 1016.00 986.03
  A 1.88 1.88 0.0 0 1 1014.63 987.45
  Q 1013.66 987.70 1013.00 988.31
  Q 1012.60 988.67 1012.52 989.21
  Q 1012.17 991.64 1009.43 991.53
  A 0.92 0.92 0.0 0 0 1008.56 992.05
  Q 1008.18 992.82 1008.21 994.38
  A 1.21 1.16 89.7 0 1 1007.04 995.61
  L 1004.73 995.60
  Q 1004.10 995.59 1004.09 996.18
  L 1003.97 1002.55
  Q 1003.94 1004.00 1002.50 1004.10
  L 1001.56 1004.16
  Q 1000.22 1004.26 1000.09 1002.99
  L 999.87 1000.69
  Q 999.81 1000.10 999.18 1000.03
  L 996.42 999.72
  Q 995.87 999.66 995.85 999.13
  L 995.75 996.79
  Q 995.70 995.64 994.57 995.68
  L 992.65 995.75
  Q 991.50 995.79 991.49 996.91
  L 991.39 1003.08
  A 0.91 0.89 -1.2 0 1 990.54 1003.96
  L 988.52 1004.07
  Q 987.57 1004.12 987.58 1003.24
  L 987.62 1001.05
  A 1.15 1.04 89.4 0 0 986.54 999.88
  L 984.23 999.98
  Q 983.18 1000.02 983.18 1001.16
  L 983.19 1003.36
  Q 983.20 1003.91 982.63 1003.93
  L 979.71 1004.03
  Q 979.20 1004.05 979.15 1004.55
  L 978.84 1007.72
  Q 978.79 1008.24 978.27 1008.23
  L 975.96 1008.18
  Q 975.05 1008.16 975.04 1009.07
  L 974.97 1015.70
  Q 974.96 1016.69 975.87 1016.67
  L 978.08 1016.62
  Q 978.92 1016.60 978.95 1017.55
  L 979.00 1019.76
  Q 979.03 1020.76 977.99 1020.72
  L 975.72 1020.63
  Q 975.16 1020.61 975.14 1021.21
  L 975.04 1023.63
  Q 974.99 1024.96 973.66 1024.95
  L 968.02 1024.91
  Q 966.72 1024.90 966.69 1023.64
  L 966.38 1013.38
  Q 966.35 1012.43 965.36 1012.49
  L 963.56 1012.61
  A 1.07 1.00 -87.1 0 0 962.63 1013.51
  L 962.32 1015.50
  Q 962.23 1016.13 961.63 1016.15
  L 954.81 1016.41
  Q 954.21 1016.43 954.16 1015.84
  L 953.90 1013.00
  Q 953.84 1012.38 953.24 1012.40
  L 950.89 1012.48
  Q 950.08 1012.50 950.07 1011.67
  L 950.05 1009.17
  Q 950.04 1008.38 950.79 1008.38
  L 952.84 1008.38
  Q 953.98 1008.39 953.98 1007.16
  L 954.00 1001.01
  Q 954.00 1000.00 953.02 999.98
  L 950.65 999.93
  Q 950.12 999.92 950.10 999.39
  L 949.94 996.36
  Q 949.90 995.72 949.32 995.70
  L 946.59 995.61
  Q 945.76 995.59 945.77 994.69
  L 945.84 988.46
  Q 945.86 987.55 946.74 987.56
  L 949.05 987.58
  Q 949.95 987.60 949.95 986.68
  L 949.98 983.76
  Q 949.98 983.26 949.50 983.25
  L 946.20 983.17
  Q 945.74 983.16 945.75 982.71
  L 945.80 979.71
  Q 945.82 979.06 945.23 979.04
  L 942.42 978.95
  Q 941.56 978.92 941.55 977.99
  L 941.53 971.57
  Q 941.53 970.73 942.34 970.74
  L 945.28 970.76
  Q 945.81 970.76 945.80 970.22
  L 945.74 967.15
  Q 945.73 966.61 946.27 966.61
  L 949.32 966.59
  Q 949.97 966.58 949.97 965.92
  L 950.01 954.98
  Q 950.01 954.12 949.09 954.09
  L 946.34 954.01
  A 0.64 0.60 -88.9 0 0 945.72 954.64
  L 945.65 961.87
  A 0.64 0.63 -89.4 0 1 945.02 962.50
  L 942.26 962.47
  Q 941.55 962.46 941.54 961.77
  L 941.50 958.72
  Q 941.50 958.23 940.99 958.23
  L 933.74 958.26
  Q 933.24 958.26 933.24 957.75
  L 933.27 942.01
  Q 933.27 941.54 933.74 941.54
  L 936.86 941.56
  Q 937.55 941.56 937.55 940.89
  L 937.54 937.98
  Q 937.53 937.42 936.99 937.43
  L 933.72 937.46
  Q 933.24 937.47 933.24 936.98
  L 933.33 921.01
  A 0.33 0.31 0.5 0 0 933.01 920.70
  L 929.26 920.65
  A 0.32 0.27 -89.6 0 0 928.99 920.97
  L 928.97 928.51
  Q 928.97 928.99 928.49 928.99
  L 921.13 928.96
  Q 920.72 928.95 920.72 929.36
  L 920.72 932.76
  Q 920.72 933.31 921.26 933.30
  L 924.25 933.24
  Q 924.99 933.22 924.99 934.00
  L 925.01 940.89
  Q 925.01 941.57 924.38 941.54
  L 921.50 941.43
  Q 920.75 941.40 920.74 942.22
  L 920.73 953.51
  Q 920.73 954.00 920.24 954.00
  L 916.99 953.99
  Q 916.49 953.98 916.50 953.49
  L 916.53 950.52
  Q 916.54 950.00 916.02 950.00
  L 900.90 950.02
  Q 899.96 950.02 899.97 951.03
  L 900.01 952.98
  Q 900.02 953.94 900.98 953.97
  L 903.27 954.05
  Q 903.97 954.07 903.97 954.77
  L 903.98 961.90
  A 0.66 0.65 0.0 0 0 904.64 962.55
  L 911.82 962.56
  A 0.74 0.74 0.0 0 1 912.56 963.32
  L 912.40 969.70
  Q 912.37 970.54 911.59 970.58
  L 909.15 970.71
  A 0.97 0.90 -89.7 0 0 908.29 971.63
  L 908.16 974.06
  Q 908.11 974.99 909.09 974.99
  L 915.62 974.97
  A 0.92 0.88 -87.7 0 0 916.50 974.12
  L 916.71 971.49
  Q 916.76 970.85 917.34 970.83
  L 919.73 970.77
  Q 920.36 970.75 920.42 971.37
  Q 921.18 979.26 920.13 986.54
  Q 920.06 987.02 919.63 987.23
  L 917.69 988.14
  Q 917.16 988.39 916.94 988.92
  Q 916.05 991.14 913.76 991.66
  Q 913.23 991.78 912.93 992.25
  Q 912.29 993.27 912.47 994.76
  Q 912.57 995.62 913.43 995.70
  L 915.50 995.89
  A 0.83 0.83 0.0 0 1 916.23 996.52
  Q 916.57 997.94 916.24 999.12
  Q 916.10 999.61 915.60 999.73
  Q 912.67 1000.44 909.24 999.65
  Q 908.65 999.51 908.56 998.96
  L 908.21 996.77
  Q 908.12 996.23 907.55 996.11
  Q 904.50 995.43 900.86 995.85
  Q 900.33 995.92 900.18 996.43
  Q 899.80 997.78 900.02 999.31
  Q 900.10 999.87 900.75 999.92
  L 903.16 1000.10
  Q 904.05 1000.16 904.05 1001.07
  L 904.05 1002.72
  Q 904.05 1003.75 903.08 1003.85
  L 900.77 1004.10
  Q 900.23 1004.15 900.16 1004.69
  L 899.80 1007.59
  Q 899.72 1008.17 899.15 1008.19
  L 896.60 1008.23
  Q 895.99 1008.25 895.90 1008.84
  L 895.47 1011.78
  Q 895.39 1012.35 894.82 1012.38
  L 892.42 1012.50
  Q 891.68 1012.54 891.67 1013.31
  L 891.53 1019.68
  Q 891.51 1020.63 892.46 1020.69
  L 895.00 1020.87
  A 0.65 0.65 0.0 0 1 895.60 1021.52
  L 895.63 1032.56
  A 0.67 0.67 0.0 0 1 894.95 1033.24
  L 892.04 1033.21
  Q 891.51 1033.21 891.50 1033.72
  L 891.39 1036.75
  Q 891.37 1037.41 890.71 1037.42
  L 888.25 1037.45
  Q 887.53 1037.46 887.53 1036.75
  L 887.53 1033.73
  Q 887.52 1033.20 887.00 1033.21
  L 883.74 1033.24
  Q 883.23 1033.25 883.24 1032.75
  L 883.30 1029.53
  Q 883.30 1029.01 882.79 1029.01
  L 879.51 1028.98
  Q 879.00 1028.97 879.00 1029.48
  L 878.99 1036.98
  Q 878.99 1037.43 878.52 1037.44
  L 875.69 1037.53
  Q 875.11 1032.63 874.68 1027.68
  Q 874.15 1021.69 873.64 1017.89
  Q 871.42 1001.38 870.57 990.52
  Q 868.81 968.09 866.93 950.57
  Q 866.13 943.15 865.07 937.50
  Q 863.88 931.20 861.27 924.81
  Q 850.54 898.57 825.70 883.62
  Q 821.08 880.85 815.05 877.56
  Q 813.66 876.81 812.59 876.50
  Q 810.48 875.89 809.46 873.44
  A 1.77 1.77 0.0 0 1 811.25 871.00
  Q 812.39 871.10 814.09 871.77
  Q 814.95 872.10 817.08 872.60
  Q 840.17 877.90 854.60 879.90
  Q 860.90 880.77 866.88 880.90
  Q 872.31 881.01 877.08 881.79
  Q 885.36 883.16 890.28 883.19
  Q 917.32 883.39 941.52 881.96
  C 967.46 880.42 992.80 875.81 1016.45 865.42
  Q 1023.58 862.29 1042.46 853.95
  Q 1046.88 851.99 1054.06 850.01
  Q 1057.51 849.06 1059.84 847.37
  Q 1064.89 843.73 1069.18 839.67
  Q 1082.04 827.50 1092.55 818.55
  C 1096.64 815.06 1100.42 811.19 1103.66 806.40
  Q 1106.99 801.46 1113.82 792.07
  Q 1116.69 788.12 1121.16 777.41
  Q 1128.28 760.36 1132.76 740.87
  C 1134.51 733.23 1135.14 726.80 1136.78 719.19
  Q 1137.43 716.16 1137.66 713.47
  Q 1137.82 711.66 1138.33 707.63
  Q 1140.09 693.70 1151.00 685.28
  C 1155.03 682.17 1157.19 676.15 1159.23 669.97
  Q 1162.41 660.35 1163.89 651.69
  C 1165.57 641.93 1167.18 627.19 1169.71 615.11
  C 1172.42 602.18 1173.81 595.08 1177.42 585.90
  Q 1180.21 578.83 1188.74 558.51
  Q 1192.29 550.05 1194.87 539.13
  C 1195.61 535.99 1195.51 532.37 1196.05 528.95
  L 1199.52 528.94
  Q 1200.00 528.94 1200.00 528.52
  L 1200.01 521.36
  Q 1200.01 520.80 1199.39 520.79
  L 1197.69 520.75
  L 1198.82 516.80
  Q 1200.50 516.00 1199.61 513.89
  L 1203.55 503.15
  Q 1205.03 504.55 1207.79 503.91
  Q 1208.30 503.80 1208.30 503.29
  L 1208.29 500.51
  Q 1208.28 500.02 1208.75 500.02
  L 1216.02 499.97
  Q 1216.52 499.97 1216.52 499.48
  L 1216.49 487.99
  Q 1216.48 487.47 1217.00 487.47
  L 1220.24 487.50
  Q 1220.73 487.51 1220.73 487.99
  L 1220.74 495.25
  Q 1220.74 495.76 1221.26 495.76
  L 1224.48 495.73
  Q 1224.94 495.73 1224.96 495.27
  L 1225.06 491.96
  Q 1225.07 491.49 1225.53 491.49
  L 1228.46 491.47
  Q 1228.98 491.47 1228.98 491.97
  L 1229.00 499.25
  Q 1229.01 500.01 1229.74 500.01
  L 1232.77 500.02
  Q 1233.25 500.02 1233.25 500.52
  L 1233.17 511.74
  Q 1233.17 512.58 1233.98 512.58
  L 1236.82 512.58
  A 0.72 0.67 -89.8 0 1 1237.49 513.30
  L 1237.45 520.27
  Q 1237.45 520.83 1238.01 520.81
  L 1240.90 520.75
  Q 1241.54 520.74 1241.54 520.14
  L 1241.52 517.00
  Q 1241.52 516.55 1241.99 516.54
  L 1245.10 516.46
  Q 1245.66 516.45 1245.62 517.07
  Q 1245.32 521.30 1246.42 525.22
  Z"
/>
<path fill="#000000" d="
  M 1247.64 495.40
  L 1247.60 500.44
  Q 1243.15 497.72 1247.64 495.40
  Z"
/>
<path fill="#b67ccd" d="
  M 1198.82 516.80
  L 1199.61 513.89
  Q 1200.50 516.00 1198.82 516.80
  Z"
/>
<path fill="#b67ccd" d="
  M 1197.69 520.75
  L 1199.39 520.79
  Q 1200.01 520.80 1200.01 521.36
  L 1200.00 528.52
  Q 1200.00 528.94 1199.52 528.94
  L 1196.05 528.95
  L 1197.69 520.75
  Z"
/>
<path fill="#b67ccd" d="
  M 1241.88 766.62
  L 1241.08 775.04
  L 1238.31 775.03
  Q 1237.49 775.03 1237.49 774.25
  L 1237.48 767.20
  Q 1237.48 766.35 1238.35 766.40
  L 1241.88 766.62
  Z"
/>
<path fill="#b67ccd" d="
  M 1239.36 791.46
  L 1238.77 795.97
  Q 1237.47 796.05 1237.48 795.00
  Q 1237.49 793.62 1237.53 792.22
  Q 1237.54 791.70 1238.04 791.55
  Q 1238.64 791.37 1239.36 791.46
  Z"
/>
<path fill="#b67ccd" d="
  M 1193.41 1045.77
  Q 1191.77 1057.45 1193.07 1070.75
  Q 1194.61 1086.50 1198.73 1103.52
  Q 1201.43 1114.69 1198.34 1125.62
  C 1197.15 1129.84 1193.01 1131.23 1189.30 1132.75
  Q 1183.48 1135.14 1183.16 1135.29
  Q 1164.93 1143.77 1146.72 1156.72
  Q 1133.95 1165.81 1119.56 1176.32
  Q 1110.89 1182.66 1103.76 1188.58
  Q 1091.31 1198.93 1084.11 1204.36
  Q 1074.95 1211.28 1070.21 1214.36
  C 1058.82 1221.78 1052.01 1227.33 1039.22 1236.47
  Q 1036.26 1238.58 1016.65 1249.39
  Q 1008.15 1254.07 998.90 1258.58
  Q 971.35 1272.02 946.00 1284.83
  Q 941.78 1286.96 936.04 1288.66
  Q 922.00 1292.82 908.26 1298.09
  L 908.16 1296.22
  Q 908.13 1295.76 907.72 1295.76
  L 904.47 1295.78
  A 0.51 0.47 -90.0 0 1 904.00 1295.27
  L 904.02 1291.97
  Q 904.02 1291.48 904.53 1291.48
  L 907.75 1291.50
  Q 908.25 1291.50 908.25 1291.02
  L 908.25 1284.26
  Q 908.25 1283.22 907.30 1283.22
  L 900.97 1283.26
  Q 899.99 1283.27 899.99 1284.21
  L 900.00 1287.03
  Q 900.00 1287.54 899.47 1287.54
  L 896.24 1287.52
  Q 895.70 1287.52 895.70 1286.99
  L 895.75 1271.77
  Q 895.75 1270.77 894.79 1270.80
  L 892.14 1270.86
  Q 891.43 1270.88 891.42 1270.14
  L 891.39 1266.98
  A 0.60 0.59 0.1 0 1 892.00 1266.39
  L 899.52 1266.47
  A 0.49 0.49 0.0 0 0 900.02 1265.97
  L 899.98 1258.90
  Q 899.97 1258.31 899.38 1258.31
  L 891.99 1258.32
  Q 891.40 1258.32 891.40 1257.75
  L 891.43 1254.63
  A 0.67 0.64 0.1 0 1 892.10 1254.00
  L 899.23 1253.96
  A 0.73 0.70 0.8 0 0 899.96 1253.29
  L 900.05 1250.77
  Q 900.07 1250.10 900.73 1250.07
  L 903.11 1249.97
  A 1.02 0.97 88.2 0 0 904.04 1248.93
  L 903.99 1246.75
  A 1.04 0.95 88.6 0 0 903.01 1245.73
  L 900.88 1245.79
  Q 900.03 1245.81 900.00 1244.90
  L 899.89 1242.45
  Q 899.86 1241.53 900.71 1241.51
  L 903.37 1241.45
  Q 903.98 1241.43 903.97 1240.81
  L 903.91 1238.17
  A 0.63 0.63 0.0 0 0 903.29 1237.55
  L 900.74 1237.53
  Q 900.25 1237.53 900.20 1238.01
  L 899.86 1240.91
  Q 899.78 1241.60 899.11 1241.59
  L 896.50 1241.56
  Q 895.68 1241.55 895.68 1240.74
  L 895.74 1225.50
  Q 895.74 1224.98 896.25 1224.98
  L 903.50 1224.99
  Q 903.97 1224.99 903.98 1224.51
  L 904.02 1221.22
  Q 904.03 1220.73 904.53 1220.73
  L 911.85 1220.77
  Q 912.48 1220.77 912.48 1220.16
  L 912.50 1217.14
  A 0.63 0.57 89.9 0 0 911.92 1216.51
  L 908.75 1216.55
  Q 908.19 1216.56 908.20 1216.00
  L 908.22 1212.99
  Q 908.22 1212.44 908.77 1212.44
  L 920.13 1212.50
  Q 920.75 1212.50 920.76 1211.88
  L 920.79 1208.75
  A 0.54 0.53 89.6 0 0 920.24 1208.20
  L 917.02 1208.29
  Q 916.48 1208.30 916.49 1207.76
  L 916.51 1200.51
  Q 916.51 1200.02 916.01 1200.02
  L 908.72 1200.01
  A 0.54 0.54 0.0 0 1 908.18 1199.47
  L 908.24 1188.01
  Q 908.24 1187.52 907.76 1187.52
  L 900.50 1187.55
  A 0.55 0.55 0.0 0 1 899.95 1186.99
  L 900.04 1175.77
  Q 900.05 1175.06 900.76 1175.04
  L 903.36 1174.97
  Q 903.94 1174.96 903.95 1174.39
  L 903.97 1163.25
  Q 903.97 1162.51 903.24 1162.52
  L 892.26 1162.59
  Q 891.43 1162.59 891.43 1161.77
  L 891.44 1154.75
  Q 891.44 1154.06 890.74 1154.05
  L 880.12 1153.97
  Q 878.97 1153.96 878.97 1155.07
  L 878.99 1161.38
  Q 878.99 1162.47 880.12 1162.46
  L 882.73 1162.44
  A 0.53 0.52 -89.8 0 1 883.25 1162.98
  L 883.05 1178.34
  Q 883.04 1178.97 882.39 1178.99
  L 879.80 1179.10
  Q 879.28 1179.12 879.27 1179.66
  L 878.89 1190.68
  Q 878.86 1191.49 878.06 1191.50
  L 875.77 1191.55
  Q 875.04 1191.57 875.03 1190.79
  L 874.93 1183.82
  Q 874.92 1183.21 874.32 1183.22
  L 871.27 1183.28
  A 0.53 0.51 -0.7 0 1 870.73 1182.77
  L 870.72 1179.94
  Q 870.71 1178.98 869.73 1179.00
  L 867.60 1179.05
  Q 866.52 1179.07 866.50 1180.14
  L 866.45 1182.61
  Q 866.44 1183.18 865.87 1183.23
  L 863.17 1183.49
  Q 862.68 1183.53 862.64 1184.04
  L 862.45 1186.94
  Q 862.42 1187.38 861.93 1187.48
  Q 860.35 1187.80 859.23 1187.55
  Q 858.34 1187.34 858.33 1188.23
  L 858.27 1194.71
  Q 858.26 1195.68 859.22 1195.68
  L 861.83 1195.68
  Q 862.48 1195.68 862.50 1196.33
  L 862.59 1199.26
  Q 862.61 1200.00 861.89 1200.01
  L 850.99 1200.05
  Q 849.95 1200.05 849.96 1198.97
  L 850.00 1196.58
  A 0.90 0.87 -89.6 0 1 850.87 1195.69
  L 853.30 1195.69
  A 0.71 0.70 -0.3 0 0 854.00 1194.99
  L 853.98 1192.22
  A 0.73 0.71 -0.2 0 0 853.25 1191.52
  L 846.24 1191.51
  Q 845.71 1191.50 845.72 1190.98
  L 845.76 1187.99
  Q 845.76 1187.49 846.26 1187.48
  L 849.37 1187.45
  A 0.58 0.58 0.0 0 0 849.94 1186.88
  L 850.05 1176.02
  Q 850.06 1175.06 850.97 1175.03
  L 853.18 1174.96
  Q 854.01 1174.93 854.00 1174.06
  L 853.97 1171.59
  Q 853.96 1170.71 853.12 1170.74
  L 850.69 1170.84
  Q 850.01 1170.87 850.01 1170.18
  L 850.03 1163.19
  Q 850.03 1162.64 849.44 1162.64
  L 841.22 1162.66
  Q 841.32 1156.25 842.01 1141.00
  Q 842.68 1126.16 846.17 1115.42
  Q 850.84 1101.05 858.56 1088.05
  Q 864.95 1077.29 870.66 1068.88
  Q 873.77 1064.31 874.94 1060.66
  Q 876.54 1055.66 876.92 1054.17
  Q 877.51 1051.88 877.05 1049.03
  Q 876.13 1043.30 875.69 1037.53
  L 878.52 1037.44
  Q 878.99 1037.43 878.99 1036.98
  L 879.00 1029.48
  Q 879.00 1028.97 879.51 1028.98
  L 882.79 1029.01
  Q 883.30 1029.01 883.30 1029.53
  L 883.24 1032.75
  Q 883.23 1033.25 883.74 1033.24
  L 887.00 1033.21
  Q 887.52 1033.20 887.53 1033.73
  L 887.53 1036.75
  Q 887.53 1037.46 888.25 1037.45
  L 890.71 1037.42
  Q 891.37 1037.41 891.39 1036.75
  L 891.50 1033.72
  Q 891.51 1033.21 892.04 1033.21
  L 894.95 1033.24
  A 0.67 0.67 0.0 0 0 895.63 1032.56
  L 895.60 1021.52
  A 0.65 0.65 0.0 0 0 895.00 1020.87
  L 892.46 1020.69
  Q 891.51 1020.63 891.53 1019.68
  L 891.67 1013.31
  Q 891.68 1012.54 892.42 1012.50
  L 894.82 1012.38
  Q 895.39 1012.35 895.47 1011.78
  L 895.90 1008.84
  Q 895.99 1008.25 896.60 1008.23
  L 899.15 1008.19
  Q 899.72 1008.17 899.80 1007.59
  L 900.16 1004.69
  Q 900.23 1004.15 900.77 1004.10
  L 903.08 1003.85
  Q 904.05 1003.75 904.05 1002.72
  L 904.05 1001.07
  Q 904.05 1000.16 903.16 1000.10
  L 900.75 999.92
  Q 900.10 999.87 900.02 999.31
  Q 899.80 997.78 900.18 996.43
  Q 900.33 995.92 900.86 995.85
  Q 904.50 995.43 907.55 996.11
  Q 908.12 996.23 908.21 996.77
  L 908.56 998.96
  Q 908.65 999.51 909.24 999.65
  Q 912.67 1000.44 915.60 999.73
  Q 916.10 999.61 916.24 999.12
  Q 916.57 997.94 916.23 996.52
  A 0.83 0.83 0.0 0 0 915.50 995.89
  L 913.43 995.70
  Q 912.57 995.62 912.47 994.76
  Q 912.29 993.27 912.93 992.25
  Q 913.23 991.78 913.76 991.66
  Q 916.05 991.14 916.94 988.92
  Q 917.16 988.39 917.69 988.14
  L 919.63 987.23
  Q 920.06 987.02 920.13 986.54
  Q 921.18 979.26 920.42 971.37
  Q 920.36 970.75 919.73 970.77
  L 917.34 970.83
  Q 916.76 970.85 916.71 971.49
  L 916.50 974.12
  A 0.92 0.88 -87.7 0 1 915.62 974.97
  L 909.09 974.99
  Q 908.11 974.99 908.16 974.06
  L 908.29 971.63
  A 0.97 0.90 -89.7 0 1 909.15 970.71
  L 911.59 970.58
  Q 912.37 970.54 912.40 969.70
  L 912.56 963.32
  A 0.74 0.74 0.0 0 0 911.82 962.56
  L 904.64 962.55
  A 0.66 0.65 0.0 0 1 903.98 961.90
  L 903.97 954.77
  Q 903.97 954.07 903.27 954.05
  L 900.98 953.97
  Q 900.02 953.94 900.01 952.98
  L 899.97 951.03
  Q 899.96 950.02 900.90 950.02
  L 916.02 950.00
  Q 916.54 950.00 916.53 950.52
  L 916.50 953.49
  Q 916.49 953.98 916.99 953.99
  L 920.24 954.00
  Q 920.73 954.00 920.73 953.51
  L 920.74 942.22
  Q 920.75 941.40 921.50 941.43
  L 924.38 941.54
  Q 925.01 941.57 925.01 940.89
  L 924.99 934.00
  Q 924.99 933.22 924.25 933.24
  L 921.26 933.30
  Q 920.72 933.31 920.72 932.76
  L 920.72 929.36
  Q 920.72 928.95 921.13 928.96
  L 928.49 928.99
  Q 928.97 928.99 928.97 928.51
  L 928.99 920.97
  A 0.32 0.27 -89.6 0 1 929.26 920.65
  L 933.01 920.70
  A 0.33 0.31 0.5 0 1 933.33 921.01
  L 933.24 936.98
  Q 933.24 937.47 933.72 937.46
  L 936.99 937.43
  Q 937.53 937.42 937.54 937.98
  L 937.55 940.89
  Q 937.55 941.56 936.86 941.56
  L 933.74 941.54
  Q 933.27 941.54 933.27 942.01
  L 933.24 957.75
  Q 933.24 958.26 933.74 958.26
  L 940.99 958.23
  Q 941.50 958.23 941.50 958.72
  L 941.54 961.77
  Q 941.55 962.46 942.26 962.47
  L 945.02 962.50
  A 0.64 0.63 -89.4 0 0 945.65 961.87
  L 945.72 954.64
  A 0.64 0.60 -88.9 0 1 946.34 954.01
  L 949.09 954.09
  Q 950.01 954.12 950.01 954.98
  L 949.97 965.92
  Q 949.97 966.58 949.32 966.59
  L 946.27 966.61
  Q 945.73 966.61 945.74 967.15
  L 945.80 970.22
  Q 945.81 970.76 945.28 970.76
  L 942.34 970.74
  Q 941.53 970.73 941.53 971.57
  L 941.55 977.99
  Q 941.56 978.92 942.42 978.95
  L 945.23 979.04
  Q 945.82 979.06 945.80 979.71
  L 945.75 982.71
  Q 945.74 983.16 946.20 983.17
  L 949.50 983.25
  Q 949.98 983.26 949.98 983.76
  L 949.95 986.68
  Q 949.95 987.60 949.05 987.58
  L 946.74 987.56
  Q 945.86 987.55 945.84 988.46
  L 945.77 994.69
  Q 945.76 995.59 946.59 995.61
  L 949.32 995.70
  Q 949.90 995.72 949.94 996.36
  L 950.10 999.39
  Q 950.12 999.92 950.65 999.93
  L 953.02 999.98
  Q 954.00 1000.00 954.00 1001.01
  L 953.98 1007.16
  Q 953.98 1008.39 952.84 1008.38
  L 950.79 1008.38
  Q 950.04 1008.38 950.05 1009.17
  L 950.07 1011.67
  Q 950.08 1012.50 950.89 1012.48
  L 953.24 1012.40
  Q 953.84 1012.38 953.90 1013.00
  L 954.16 1015.84
  Q 954.21 1016.43 954.81 1016.41
  L 961.63 1016.15
  Q 962.23 1016.13 962.32 1015.50
  L 962.63 1013.51
  A 1.07 1.00 -87.1 0 1 963.56 1012.61
  L 965.36 1012.49
  Q 966.35 1012.43 966.38 1013.38
  L 966.69 1023.64
  Q 966.72 1024.90 968.02 1024.91
  L 973.66 1024.95
  Q 974.99 1024.96 975.04 1023.63
  L 975.14 1021.21
  Q 975.16 1020.61 975.72 1020.63
  L 977.99 1020.72
  Q 979.03 1020.76 979.00 1019.76
  L 978.95 1017.55
  Q 978.92 1016.60 978.08 1016.62
  L 975.87 1016.67
  Q 974.96 1016.69 974.97 1015.70
  L 975.04 1009.07
  Q 975.05 1008.16 975.96 1008.18
  L 978.27 1008.23
  Q 978.79 1008.24 978.84 1007.72
  L 979.15 1004.55
  Q 979.20 1004.05 979.71 1004.03
  L 982.63 1003.93
  Q 983.20 1003.91 983.19 1003.36
  L 983.18 1001.16
  Q 983.18 1000.02 984.23 999.98
  L 986.54 999.88
  A 1.15 1.04 89.4 0 1 987.62 1001.05
  L 987.58 1003.24
  Q 987.57 1004.12 988.52 1004.07
  L 990.54 1003.96
  A 0.91 0.89 -1.2 0 0 991.39 1003.08
  L 991.49 996.91
  Q 991.50 995.79 992.65 995.75
  L 994.57 995.68
  Q 995.70 995.64 995.75 996.79
  L 995.85 999.13
  Q 995.87 999.66 996.42 999.72
  L 999.18 1000.03
  Q 999.81 1000.10 999.87 1000.69
  L 1000.09 1002.99
  Q 1000.22 1004.26 1001.56 1004.16
  L 1002.50 1004.10
  Q 1003.94 1004.00 1003.97 1002.55
  L 1004.09 996.18
  Q 1004.10 995.59 1004.73 995.60
  L 1007.04 995.61
  A 1.21 1.16 89.7 0 0 1008.21 994.38
  Q 1008.18 992.82 1008.56 992.05
  A 0.92 0.92 0.0 0 1 1009.43 991.53
  Q 1012.17 991.64 1012.52 989.21
  Q 1012.60 988.67 1013.00 988.31
  Q 1013.66 987.70 1014.63 987.45
  A 1.88 1.88 0.0 0 0 1016.00 986.03
  Q 1016.69 982.80 1016.34 979.93
  A 1.00 0.99 -3.3 0 0 1015.36 979.06
  L 1005.00 978.99
  A 1.11 1.09 -3.3 0 1 1003.91 978.03
  Q 1003.81 977.20 1004.15 975.71
  Q 1004.26 975.21 1004.79 975.12
  L 1007.54 974.70
  Q 1008.22 974.59 1008.22 973.93
  L 1008.26 963.03
  Q 1008.26 962.55 1007.78 962.55
  L 1004.51 962.53
  Q 1003.96 962.53 1003.96 962.00
  L 1003.94 959.00
  Q 1003.94 958.31 1003.24 958.31
  L 1000.66 958.32
  Q 999.97 958.32 999.97 957.67
  L 999.98 955.29
  Q 999.99 953.97 1001.26 953.97
  L 1007.54 953.98
  Q 1008.31 953.98 1008.31 954.78
  L 1008.32 957.39
  Q 1008.32 958.25 1009.18 958.25
  L 1015.63 958.26
  Q 1016.48 958.26 1016.49 957.39
  L 1016.51 950.51
  Q 1016.51 950.01 1016.99 950.01
  L 1024.28 949.99
  Q 1025.03 949.99 1025.02 949.21
  L 1024.96 946.48
  Q 1024.95 945.74 1024.22 945.75
  L 1021.25 945.78
  Q 1020.72 945.78 1020.72 945.24
  L 1020.75 941.85
  Q 1020.76 941.47 1021.13 941.47
  L 1024.47 941.48
  Q 1024.97 941.48 1024.97 941.01
  L 1025.02 933.73
  Q 1025.03 933.23 1025.52 933.23
  L 1028.34 933.24
  Q 1028.93 933.24 1028.93 933.83
  L 1029.03 945.23
  A 0.47 0.47 0.0 0 0 1029.50 945.70
  L 1032.67 945.72
  Q 1033.30 945.72 1033.30 946.41
  L 1033.32 949.22
  Q 1033.33 949.97 1032.55 949.99
  L 1029.73 950.04
  Q 1029.00 950.05 1029.00 950.78
  L 1029.02 965.94
  A 0.44 0.44 0.0 0 0 1029.45 966.38
  L 1036.97 966.68
  Q 1037.49 966.71 1037.52 967.25
  L 1037.67 969.81
  Q 1037.70 970.30 1038.24 970.34
  L 1045.23 970.86
  Q 1045.74 970.90 1045.75 971.51
  L 1045.76 974.19
  Q 1045.77 974.77 1045.16 974.86
  L 1042.22 975.28
  Q 1041.56 975.37 1041.56 976.03
  L 1041.57 978.04
  A 0.76 0.74 85.1 0 1 1040.95 978.79
  L 1038.23 979.26
  A 0.70 0.68 83.4 0 0 1037.66 979.99
  L 1038.02 985.89
  A 1.65 1.51 -88.0 0 0 1039.31 987.41
  Q 1041.60 987.75 1041.52 990.75
  Q 1041.49 991.65 1041.78 994.98
  Q 1041.82 995.48 1042.33 995.50
  L 1049.24 995.71
  Q 1050.00 995.73 1050.00 996.42
  L 1050.00 999.05
  Q 1050.01 999.90 1049.20 999.98
  L 1046.37 1000.29
  Q 1045.79 1000.35 1045.78 1000.91
  L 1045.72 1003.13
  Q 1045.71 1003.71 1045.12 1003.80
  L 1042.75 1004.16
  A 1.46 1.32 -3.3 0 0 1041.52 1005.41
  L 1041.42 1007.16
  Q 1041.39 1007.76 1040.72 1007.95
  L 1038.40 1008.58
  Q 1037.91 1008.71 1037.76 1009.20
  Q 1037.39 1010.41 1037.85 1011.52
  Q 1038.06 1012.04 1038.62 1012.11
  L 1044.57 1012.81
  A 1.44 1.35 3.7 0 1 1045.84 1014.16
  L 1045.84 1015.77
  Q 1045.83 1016.41 1046.51 1016.40
  L 1049.08 1016.36
  Q 1049.98 1016.35 1049.98 1017.33
  L 1050.00 1023.97
  Q 1050.00 1024.95 1049.10 1024.99
  L 1046.16 1025.12
  Q 1045.83 1025.14 1045.82 1025.74
  L 1045.76 1036.99
  Q 1045.76 1037.46 1046.24 1037.45
  L 1057.70 1037.31
  Q 1058.21 1037.30 1058.22 1036.80
  L 1058.26 1034.00
  Q 1058.27 1033.27 1059.03 1033.26
  L 1061.71 1033.22
  Q 1062.49 1033.21 1062.49 1033.98
  L 1062.58 1053.37
  Q 1062.58 1053.93 1063.09 1053.94
  L 1066.08 1054.05
  Q 1066.44 1054.07 1066.46 1054.52
  L 1066.68 1061.77
  Q 1066.70 1062.34 1067.29 1062.35
  L 1069.76 1062.36
  Q 1070.47 1062.37 1070.53 1061.69
  L 1070.83 1058.63
  Q 1070.87 1058.21 1071.35 1058.22
  L 1074.24 1058.24
  A 0.73 0.60 0.5 0 0 1074.98 1057.64
  L 1075.00 1054.71
  Q 1075.00 1054.06 1074.29 1054.04
  L 1071.19 1053.97
  A 0.54 0.53 -88.8 0 1 1070.67 1053.42
  L 1070.73 1050.49
  Q 1070.74 1050.01 1071.25 1050.01
  L 1078.47 1050.01
  Q 1078.95 1050.01 1078.96 1049.53
  L 1079.06 1046.29
  Q 1079.08 1045.64 1079.70 1045.67
  L 1082.39 1045.79
  Q 1083.23 1045.83 1083.23 1044.92
  L 1083.27 1038.27
  Q 1083.28 1037.49 1082.53 1037.49
  L 1075.52 1037.54
  Q 1075.00 1037.55 1075.00 1037.00
  L 1075.00 1033.84
  Q 1075.00 1033.20 1075.63 1033.20
  L 1078.52 1033.21
  Q 1078.99 1033.21 1078.99 1032.73
  L 1079.02 1025.49
  Q 1079.02 1025.00 1079.51 1025.00
  L 1086.98 1025.01
  Q 1087.48 1025.01 1087.48 1024.52
  L 1087.43 1017.00
  Q 1087.42 1016.42 1087.99 1016.43
  L 1091.01 1016.45
  Q 1091.58 1016.45 1091.57 1017.01
  L 1091.50 1024.49
  Q 1091.50 1024.98 1091.98 1024.99
  L 1095.23 1025.01
  Q 1095.73 1025.01 1095.73 1024.52
  L 1095.75 1016.99
  Q 1095.75 1016.46 1096.25 1016.46
  L 1099.26 1016.49
  A 0.74 0.72 -89.8 0 0 1099.99 1015.75
  L 1099.98 1013.02
  Q 1099.98 1012.58 1099.52 1012.57
  L 1096.25 1012.55
  A 0.56 0.56 0.0 0 1 1095.69 1012.00
  L 1095.69 1004.76
  A 0.80 0.78 0.1 0 1 1096.49 1003.97
  L 1103.29 1004.00
  A 0.70 0.65 89.4 0 1 1103.94 1004.68
  L 1104.12 1011.92
  Q 1104.14 1012.51 1104.71 1012.50
  L 1107.54 1012.46
  A 0.63 0.63 0.0 0 1 1108.18 1013.06
  L 1108.34 1015.80
  Q 1108.37 1016.42 1109.04 1016.42
  L 1111.77 1016.44
  Q 1112.35 1016.45 1112.40 1017.04
  L 1112.62 1019.50
  Q 1112.71 1020.58 1113.81 1020.54
  L 1115.54 1020.47
  A 0.90 0.82 -0.8 0 0 1116.40 1019.65
  L 1116.64 1004.56
  Q 1116.65 1004.03 1117.18 1004.01
  L 1120.03 1003.88
  Q 1120.64 1003.86 1120.64 1003.25
  L 1120.67 1000.96
  Q 1120.68 1000.15 1121.53 1000.13
  L 1128.24 999.93
  Q 1129.09 999.91 1129.06 999.00
  L 1128.99 996.59
  Q 1128.97 995.67 1128.11 995.71
  L 1125.96 995.80
  A 0.97 0.96 -1.0 0 1 1124.96 994.83
  L 1125.01 988.28
  Q 1125.02 987.38 1125.90 987.42
  L 1128.25 987.51
  Q 1128.99 987.54 1128.99 986.77
  L 1128.97 984.23
  Q 1128.97 983.31 1128.00 983.31
  L 1113.24 983.30
  Q 1112.43 983.30 1112.43 982.50
  L 1112.45 975.86
  Q 1112.45 974.90 1113.32 974.93
  L 1115.82 975.02
  A 0.76 0.67 -89.2 0 0 1116.51 974.25
  L 1116.50 971.52
  A 0.74 0.71 89.6 0 0 1115.78 970.79
  L 1113.01 970.81
  Q 1112.44 970.82 1112.44 970.24
  L 1112.49 963.01
  Q 1112.49 962.53 1112.01 962.53
  L 1108.74 962.55
  Q 1108.19 962.55 1108.20 962.00
  L 1108.22 958.77
  Q 1108.23 958.29 1107.77 958.29
  L 1104.73 958.31
  Q 1103.95 958.31 1103.96 957.51
  L 1103.99 955.04
  A 1.01 1.01 0.0 0 1 1104.93 954.04
  L 1107.69 953.86
  Q 1108.19 953.82 1108.20 953.32
  L 1108.29 951.00
  Q 1108.33 950.03 1109.31 950.03
  L 1115.61 950.00
  Q 1116.56 949.99 1116.56 950.92
  L 1116.55 953.31
  A 0.64 0.63 0.4 0 0 1117.18 953.94
  L 1124.01 954.00
  A 1.04 1.02 -89.4 0 0 1125.04 952.97
  L 1125.06 951.00
  Q 1125.07 950.15 1124.21 950.09
  L 1121.56 949.90
  Q 1120.48 949.82 1120.57 948.71
  L 1120.72 946.88
  Q 1120.81 945.80 1121.90 945.76
  L 1124.25 945.66
  Q 1124.81 945.64 1124.87 945.08
  L 1125.19 942.11
  Q 1125.26 941.51 1125.89 941.51
  L 1128.04 941.53
  Q 1128.97 941.54 1128.96 940.62
  L 1128.94 934.10
  Q 1128.94 933.23 1128.09 933.26
  L 1125.68 933.33
  Q 1125.00 933.35 1124.99 932.69
  L 1124.95 929.93
  A 0.87 0.84 1.0 0 0 1124.12 929.11
  L 1121.25 928.97
  A 0.74 0.71 -87.7 0 1 1120.57 928.21
  L 1120.66 925.55
  Q 1120.68 924.95 1121.24 924.95
  L 1128.17 924.90
  A 0.85 0.83 89.5 0 0 1128.99 924.04
  L 1128.89 913.05
  Q 1128.89 912.23 1129.70 912.23
  L 1132.29 912.22
  A 1.19 1.18 -89.8 0 1 1133.47 913.42
  L 1133.37 923.86
  Q 1133.36 924.95 1134.36 924.95
  L 1136.96 924.94
  Q 1137.55 924.94 1137.54 925.57
  Q 1137.41 930.71 1137.86 940.77
  Q 1137.88 941.33 1138.44 941.40
  L 1140.38 941.65
  Q 1141.16 941.75 1141.22 942.53
  L 1141.41 944.96
  A 0.70 0.68 85.0 0 1 1140.80 945.70
  L 1138.55 945.92
  A 0.78 0.78 0.0 0 0 1137.85 946.66
  L 1137.73 948.90
  Q 1137.69 949.67 1138.46 949.76
  L 1140.83 950.06
  Q 1141.55 950.15 1141.56 950.88
  L 1141.61 953.09
  Q 1141.63 953.99 1142.57 953.98
  L 1144.55 953.97
  Q 1145.64 953.96 1145.67 952.90
  L 1145.73 950.66
  A 0.61 0.60 0.4 0 1 1146.33 950.07
  L 1153.17 949.98
  Q 1153.86 949.98 1153.93 950.76
  L 1154.14 953.27
  A 1.04 0.95 -4.8 0 0 1155.26 954.13
  L 1157.13 953.97
  Q 1158.16 953.89 1158.17 952.87
  L 1158.28 942.30
  Q 1158.29 941.47 1159.22 941.48
  L 1161.63 941.52
  Q 1162.38 941.54 1162.48 942.36
  L 1162.74 944.47
  A 0.97 0.96 12.1 0 0 1163.20 945.18
  Q 1163.93 945.61 1165.02 945.64
  A 1.10 1.10 0.0 0 1 1166.07 946.54
  Q 1167.02 951.74 1165.99 957.66
  Q 1165.90 958.16 1165.37 958.28
  L 1163.70 958.67
  A 1.33 1.28 -4.4 0 0 1162.67 959.82
  L 1162.49 961.97
  Q 1162.44 962.47 1161.99 962.51
  L 1159.49 962.72
  A 1.23 1.18 86.8 0 0 1158.42 963.97
  L 1158.45 965.14
  Q 1158.48 966.08 1159.39 966.15
  L 1161.86 966.35
  Q 1162.44 966.39 1162.44 967.01
  L 1162.47 974.22
  A 0.67 0.67 0.0 0 1 1161.87 974.89
  L 1159.12 975.17
  Q 1158.30 975.25 1158.31 976.06
  L 1158.33 978.11
  Q 1158.34 978.95 1159.16 978.96
  L 1165.90 979.03
  A 0.61 0.47 -0.0 0 1 1166.51 979.49
  L 1166.57 982.66
  Q 1166.58 983.24 1167.21 983.23
  L 1170.05 983.18
  Q 1170.54 983.17 1170.56 982.70
  L 1170.67 979.94
  Q 1170.70 978.90 1171.73 978.96
  L 1173.88 979.06
  Q 1174.99 979.12 1175.02 980.17
  L 1175.09 982.67
  Q 1175.10 983.27 1175.70 983.25
  L 1178.13 983.19
  Q 1178.99 983.17 1179.00 984.12
  L 1179.02 986.67
  Q 1179.02 987.59 1178.14 987.57
  L 1175.54 987.49
  Q 1175.04 987.48 1175.04 987.98
  L 1174.97 995.27
  Q 1174.97 995.77 1174.47 995.76
  L 1171.25 995.73
  Q 1170.75 995.73 1170.75 996.24
  L 1170.76 1007.76
  Q 1170.76 1008.26 1171.24 1008.26
  L 1178.50 1008.21
  Q 1179.01 1008.21 1179.01 1008.73
  L 1178.98 1015.76
  Q 1178.97 1016.51 1179.76 1016.51
  L 1186.63 1016.52
  Q 1187.50 1016.52 1187.50 1015.66
  L 1187.48 1013.15
  Q 1187.48 1012.52 1186.88 1012.52
  L 1183.74 1012.54
  Q 1183.22 1012.54 1183.22 1012.00
  L 1183.21 1008.75
  Q 1183.21 1008.22 1183.76 1008.22
  L 1190.99 1008.22
  Q 1191.51 1008.22 1191.51 1008.74
  L 1191.51 1024.49
  Q 1191.51 1024.99 1191.02 1024.99
  L 1187.97 1025.02
  Q 1187.47 1025.03 1187.47 1025.50
  L 1187.48 1028.50
  Q 1187.48 1028.96 1187.97 1028.97
  L 1191.15 1029.01
  Q 1191.54 1029.02 1191.54 1029.41
  L 1191.51 1033.00
  Q 1191.51 1033.26 1191.25 1033.26
  L 1187.96 1033.29
  Q 1187.47 1033.29 1187.48 1033.78
  L 1187.52 1037.00
  Q 1187.53 1037.46 1188.00 1037.47
  L 1191.01 1037.48
  Q 1191.54 1037.48 1191.54 1038.01
  L 1191.53 1041.00
  Q 1191.53 1041.54 1190.99 1041.53
  L 1188.04 1041.48
  Q 1187.54 1041.47 1187.53 1041.96
  L 1187.48 1045.23
  Q 1187.48 1045.74 1187.99 1045.74
  L 1193.41 1045.77
  Z"
/>
<path fill="#000000" d="
  M 908.26 1298.09
  L 891.85 1304.41
  Q 887.77 1303.64 883.71 1304.17
  Q 883.22 1304.23 883.23 1304.73
  L 883.27 1308.22
  L 874.96 1309.98
  L 874.96 1300.43
  Q 874.96 1299.97 874.48 1299.98
  L 871.22 1300.02
  Q 870.75 1300.03 870.75 1300.52
  L 870.74 1307.77
  Q 870.74 1308.27 870.24 1308.27
  L 867.18 1308.23
  Q 866.60 1308.23 866.57 1308.84
  L 866.49 1310.78
  L 862.56 1310.94
  L 862.53 1296.21
  Q 862.53 1295.72 862.06 1295.72
  L 858.69 1295.71
  Q 858.33 1295.71 858.32 1296.09
  L 858.24 1299.05
  Q 858.21 1300.00 857.24 1300.01
  L 851.00 1300.05
  Q 849.99 1300.06 849.99 1299.03
  L 849.99 1291.97
  Q 849.99 1291.45 849.47 1291.46
  L 846.25 1291.48
  Q 845.76 1291.48 845.76 1291.99
  L 845.74 1299.52
  A 0.52 0.49 -89.7 0 1 845.25 1300.03
  L 842.09 1300.00
  Q 841.44 1300.00 841.46 1300.62
  L 841.55 1303.49
  A 0.53 0.52 -0.9 0 1 841.02 1304.02
  L 838.00 1304.02
  A 0.53 0.51 0.2 0 1 837.48 1303.51
  L 837.53 1296.25
  Q 837.53 1295.76 837.01 1295.75
  L 829.97 1295.70
  Q 828.98 1295.70 828.98 1296.66
  L 828.99 1303.06
  Q 828.99 1304.09 829.97 1304.06
  L 832.76 1303.98
  Q 833.22 1303.97 833.22 1304.50
  L 833.17 1308.08
  Q 827.16 1305.63 822.40 1301.28
  Q 819.79 1298.89 818.75 1295.93
  Q 816.26 1288.88 816.28 1281.51
  Q 816.30 1274.07 817.74 1266.74
  Q 819.58 1257.41 820.85 1250.32
  Q 822.78 1239.45 827.43 1224.65
  Q 833.23 1206.20 836.34 1194.77
  Q 840.63 1179.03 841.22 1162.66
  L 849.44 1162.64
  Q 850.03 1162.64 850.03 1163.19
  L 850.01 1170.18
  Q 850.01 1170.87 850.69 1170.84
  L 853.12 1170.74
  Q 853.96 1170.71 853.97 1171.59
  L 854.00 1174.06
  Q 854.01 1174.93 853.18 1174.96
  L 850.97 1175.03
  Q 850.06 1175.06 850.05 1176.02
  L 849.94 1186.88
  A 0.58 0.58 0.0 0 1 849.37 1187.45
  L 846.26 1187.48
  Q 845.76 1187.49 845.76 1187.99
  L 845.72 1190.98
  Q 845.71 1191.50 846.24 1191.51
  L 853.25 1191.52
  A 0.73 0.71 -0.2 0 1 853.98 1192.22
  L 854.00 1194.99
  A 0.71 0.70 -0.3 0 1 853.30 1195.69
  L 850.87 1195.69
  A 0.90 0.87 -89.6 0 0 850.00 1196.58
  L 849.96 1198.97
  Q 849.95 1200.05 850.99 1200.05
  L 861.89 1200.01
  Q 862.61 1200.00 862.59 1199.26
  L 862.50 1196.33
  Q 862.48 1195.68 861.83 1195.68
  L 859.22 1195.68
  Q 858.26 1195.68 858.27 1194.71
  L 858.33 1188.23
  Q 858.34 1187.34 859.23 1187.55
  Q 860.35 1187.80 861.93 1187.48
  Q 862.42 1187.38 862.45 1186.94
  L 862.64 1184.04
  Q 862.68 1183.53 863.17 1183.49
  L 865.87 1183.23
  Q 866.44 1183.18 866.45 1182.61
  L 866.50 1180.14
  Q 866.52 1179.07 867.60 1179.05
  L 869.73 1179.00
  Q 870.71 1178.98 870.72 1179.94
  L 870.73 1182.77
  A 0.53 0.51 -0.7 0 0 871.27 1183.28
  L 874.32 1183.22
  Q 874.92 1183.21 874.93 1183.82
  L 875.03 1190.79
  Q 875.04 1191.57 875.77 1191.55
  L 878.06 1191.50
  Q 878.86 1191.49 878.89 1190.68
  L 879.27 1179.66
  Q 879.28 1179.12 879.80 1179.10
  L 882.39 1178.99
  Q 883.04 1178.97 883.05 1178.34
  L 883.25 1162.98
  A 0.53 0.52 -89.8 0 0 882.73 1162.44
  L 880.12 1162.46
  Q 878.99 1162.47 878.99 1161.38
  L 878.97 1155.07
  Q 878.97 1153.96 880.12 1153.97
  L 890.74 1154.05
  Q 891.44 1154.06 891.44 1154.75
  L 891.43 1161.77
  Q 891.43 1162.59 892.26 1162.59
  L 903.24 1162.52
  Q 903.97 1162.51 903.97 1163.25
  L 903.95 1174.39
  Q 903.94 1174.96 903.36 1174.97
  L 900.76 1175.04
  Q 900.05 1175.06 900.04 1175.77
  L 899.95 1186.99
  A 0.55 0.55 0.0 0 0 900.50 1187.55
  L 907.76 1187.52
  Q 908.24 1187.52 908.24 1188.01
  L 908.18 1199.47
  A 0.54 0.54 0.0 0 0 908.72 1200.01
  L 916.01 1200.02
  Q 916.51 1200.02 916.51 1200.51
  L 916.49 1207.76
  Q 916.48 1208.30 917.02 1208.29
  L 920.24 1208.20
  A 0.54 0.53 89.6 0 1 920.79 1208.75
  L 920.76 1211.88
  Q 920.75 1212.50 920.13 1212.50
  L 908.77 1212.44
  Q 908.22 1212.44 908.22 1212.99
  L 908.20 1216.00
  Q 908.19 1216.56 908.75 1216.55
  L 911.92 1216.51
  A 0.63 0.57 89.9 0 1 912.50 1217.14
  L 912.48 1220.16
  Q 912.48 1220.77 911.85 1220.77
  L 904.53 1220.73
  Q 904.03 1220.73 904.02 1221.22
  L 903.98 1224.51
  Q 903.97 1224.99 903.50 1224.99
  L 896.25 1224.98
  Q 895.74 1224.98 895.74 1225.50
  L 895.68 1240.74
  Q 895.68 1241.55 896.50 1241.56
  L 899.11 1241.59
  Q 899.78 1241.60 899.86 1240.91
  L 900.20 1238.01
  Q 900.25 1237.53 900.74 1237.53
  L 903.29 1237.55
  A 0.63 0.63 0.0 0 1 903.91 1238.17
  L 903.97 1240.81
  Q 903.98 1241.43 903.37 1241.45
  L 900.71 1241.51
  Q 899.86 1241.53 899.89 1242.45
  L 900.00 1244.90
  Q 900.03 1245.81 900.88 1245.79
  L 903.01 1245.73
  A 1.04 0.95 88.6 0 1 903.99 1246.75
  L 904.04 1248.93
  A 1.02 0.97 88.2 0 1 903.11 1249.97
  L 900.73 1250.07
  Q 900.07 1250.10 900.05 1250.77
  L 899.96 1253.29
  A 0.73 0.70 0.8 0 1 899.23 1253.96
  L 892.10 1254.00
  A 0.67 0.64 0.1 0 0 891.43 1254.63
  L 891.40 1257.75
  Q 891.40 1258.32 891.99 1258.32
  L 899.38 1258.31
  Q 899.97 1258.31 899.98 1258.90
  L 900.02 1265.97
  A 0.49 0.49 0.0 0 1 899.52 1266.47
  L 892.00 1266.39
  A 0.60 0.59 0.1 0 0 891.39 1266.98
  L 891.42 1270.14
  Q 891.43 1270.88 892.14 1270.86
  L 894.79 1270.80
  Q 895.75 1270.77 895.75 1271.77
  L 895.70 1286.99
  Q 895.70 1287.52 896.24 1287.52
  L 899.47 1287.54
  Q 900.00 1287.54 900.00 1287.03
  L 899.99 1284.21
  Q 899.99 1283.27 900.97 1283.26
  L 907.30 1283.22
  Q 908.25 1283.22 908.25 1284.26
  L 908.25 1291.02
  Q 908.25 1291.50 907.75 1291.50
  L 904.53 1291.48
  Q 904.02 1291.48 904.02 1291.97
  L 904.00 1295.27
  A 0.51 0.47 -90.0 0 0 904.47 1295.78
  L 907.72 1295.76
  Q 908.13 1295.76 908.16 1296.22
  L 908.26 1298.09
  Z"
/>
<path fill="#b67ccd" d="
  M 862.56 1310.94
  Q 851.65 1311.91 841.24 1310.29
  Q 837.55 1309.72 833.17 1308.08
  L 833.22 1304.50
  Q 833.22 1303.97 832.76 1303.98
  L 829.97 1304.06
  Q 828.99 1304.09 828.99 1303.06
  L 828.98 1296.66
  Q 828.98 1295.70 829.97 1295.70
  L 837.01 1295.75
  Q 837.53 1295.76 837.53 1296.25
  L 837.48 1303.51
  A 0.53 0.51 0.2 0 0 838.00 1304.02
  L 841.02 1304.02
  A 0.53 0.52 -0.9 0 0 841.55 1303.49
  L 841.46 1300.62
  Q 841.44 1300.00 842.09 1300.00
  L 845.25 1300.03
  A 0.52 0.49 -89.7 0 0 845.74 1299.52
  L 845.76 1291.99
  Q 845.76 1291.48 846.25 1291.48
  L 849.47 1291.46
  Q 849.99 1291.45 849.99 1291.97
  L 849.99 1299.03
  Q 849.99 1300.06 851.00 1300.05
  L 857.24 1300.01
  Q 858.21 1300.00 858.24 1299.05
  L 858.32 1296.09
  Q 858.33 1295.71 858.69 1295.71
  L 862.06 1295.72
  Q 862.53 1295.72 862.53 1296.21
  L 862.56 1310.94
  Z"
/>
<path fill="#b67ccd" d="
  M 874.96 1309.98
  L 866.49 1310.78
  L 866.57 1308.84
  Q 866.60 1308.23 867.18 1308.23
  L 870.24 1308.27
  Q 870.74 1308.27 870.74 1307.77
  L 870.75 1300.52
  Q 870.75 1300.03 871.22 1300.02
  L 874.48 1299.98
  Q 874.96 1299.97 874.96 1300.43
  L 874.96 1309.98
  Z"
/>
<path fill="#b67ccd" d="
  M 891.85 1304.41
  Q 887.81 1307.21 883.27 1308.22
  L 883.23 1304.73
  Q 883.22 1304.23 883.71 1304.17
  Q 887.77 1303.64 891.85 1304.41
  Z"
/>
</svg>
