<svg xmlns="http://www.w3.org/2000/svg" viewBox="0 0 382 382"><defs><clipPath id="a"><path d="M203.44 143.33c-3.19-.43-6.39-.81-9.57-1.31-1.61-.25-3.21-.63-4.78-1.09-4.55-1.34-8.42-3.91-12.14-6.77-3.1-2.38-5.58-5.35-7.52-8.67-1.19-2.04-1.62-4.52-2.48-6.77-.98-2.58-1.17-5.29-1.66-7.97-.81-4.49-1.66-9.02-3.04-13.36-1.2-3.78-4.08-7.25-9.09-5.97-2.21.57-4.26 1.31-6.23 2.47-5.28 3.13-10.95 5.4-16.99 6.5-5.82 1.06-11.7 1.86-17.56 2.69-1.73.25-3.5.21-5.51.32.34-1.19.6-2.15.89-3.1.97-3.12 2.02-6.22 2.93-9.36.93-3.2 3.25-5.22 5.95-6.7 2.75-1.5 5.74-2.57 8.62-3.82 5.98-.41 11.95-.86 17.93-1.21 1.37-.08 2.77.22 4.15.2 3.88-.04 7.75-.12 11.63-.24 1.99-.06 3.99-.25 5.98-.41.8-.06 1.59-.22 2.38-.33h-.03l4.94-.75h-.03c.75-.16 1.5-.38 2.26-.46 2.53-.28 5.06-.56 7.6-.76 2.68-.21 5.37-.45 8.06-.46 5.45-.02 10.91.04 16.36.22 1.89.06 3.77.52 5.64.91 1.71.35 3.39.86 5.09 1.29h-.02c.75.25 1.49.49 2.24.74h-.02c.25.09.51.17.76.26h-.02c.25.09.5.18.76.27h-.02c.17.08.35.16.52.24h-.02c.17.08.35.16.52.25h-.02c.58.26 1.15.51 1.73.77h-.02c.17.08.34.17.51.25h-.02c.17.09.34.17.51.26h-.02c.42.24.84.48 1.26.73h-.02c.17.08.34.16.51.25h-.02c.26.15.51.31.77.48h-.02c.41.25.83.5 1.24.75h-.02c.17.09.33.18.5.27h-.02c.42.24.83.49 1.25.73H230c.25.16.5.32.76.49h-.02c.41.24.83.49 1.24.74h-.02c.25.16.5.33.75.5h-.02c.09.07.19.15.28.23h-.02c.16.09.32.19.48.28h-.02c.09.07.18.15.28.23h-.02c.09.07.18.15.27.23h-.02c.25.16.5.33.74.5h-.02q.135.105.27.24h-.02c.33.24.66.5.99.75.09.07.18.16.27.24.33.24.66.49.99.74.09.08.17.17.26.25s.17.16.26.25c.09.08.17.16.26.25.09.08.17.16.26.25.09.08.17.16.26.25.09.08.17.16.26.25.09.07.17.16.26.24.09.07.18.16.26.24.09.08.17.16.26.25.09.08.18.16.26.25l-.02-.02c.66.58 1.31 1.17 1.97 1.75.09.07.18.16.26.24.09.08.17.16.26.25.09.07.17.16.26.24q.135.105.27.24h-.02c.33.33.66.66.99 1V96c.07.09.16.18.24.27.09.08.17.16.26.25.09.07.18.16.27.24h-.02c.25.16.5.33.75.5h-.02c.09.08.18.17.27.25s.17.17.26.25l-.02-.02c.09.08.18.17.27.25l-.03-.02c.25.17.5.35.75.52h-.02l.75.51c.25.17.5.33.76.5.33.25.66.5 1 .75.09.08.18.17.27.25h-.02c.25.16.49.33.74.51h-.02c.42.25.83.49 1.25.74h-.02c.17.09.33.18.5.27h-.02c.25.15.51.32.76.48h-.02c.17.08.34.16.51.25h-.02c.17.08.34.17.51.25h-.02c.42.17.83.34 1.25.51h-.02c.17.08.34.17.52.25h-.02c.17.09.34.17.51.26h-.02c.17.09.34.17.51.26h-.02c1.42.25 2.83.6 4.26.74 3.08.29 6.17.48 9.25.69 1.79.12 3.61.46 5.35.22 1.78-.25 3.49-1.08 5.23-1.66l1.26-.24h-.02c.41.16.82.36 1.24.47 3.34.92 6.7 1.74 10.01 2.75 3.37 1.02 6.58 2.45 9.52 4.44.78.52 1.19 1.13 1.15 2.12-.07 2 .08 4.02-.08 6.01-.18 2.19-.55 4.37-.96 6.53-.27 1.41-.98 1.66-2.2.96-.88-.51-1.72-1.11-2.61-1.61-3.02-1.68-6.19-2.72-9.72-2.26-3.03.39-6.08.73-9.12 1.06-1.58.17-3.2.11-4.75.43-3.44.73-6.86 1.53-10.42 1.23l-4.69-.48h.02c-1.6-.16-3.2-.36-4.8-.48-.78-.06-1.57 0-2.35 0h.02c-1.06.29-.86 1.22-1 1.97v-.03c-.24.5-.49 1-.73 1.51v-.02c-.09.17-.18.33-.28.5v-.02c-.07.09-.16.18-.24.27l-.25.25v-.02c-.16.25-.33.5-.5.75v-.02c-.07.09-.15.18-.23.28v-.02c-.16.25-.33.5-.49.75v-.02c-.17.25-.35.5-.52.74v-.02c-.08.09-.16.18-.25.26s-.17.16-.26.25c-.09.08-.17.16-.26.25-.09.08-.17.16-.26.25-.09.08-.18.16-.26.25h.02c-.33.24-.66.5-.99.75h.02q-.135.105-.27.24h.02c-.25.16-.5.33-.75.5h.02c-.25.16-.5.32-.76.49h.02c-.17.08-.33.18-.5.27h.03l-.78.48h.02c-.17.08-.34.17-.5.25h.02c-.17.09-.34.17-.51.26h.02c-.17.08-.34.17-.51.25h.02c-.17.08-.34.16-.52.25h.02l-.51.24h.02c-.17.09-.34.17-.5.26h.02c-.17.09-.34.17-.51.26h.02c-.66.33-1.33.66-1.99.99h.02l-.51.25h.02c-.17.08-.34.17-.51.25h.02c-.17.07-.34.16-.52.24h.02c-.17.08-.34.17-.52.25h.02c-.42.17-.83.34-1.25.51h.02c-.42.16-.84.33-1.26.49h.02l-.75.27h.02c-.18.08-.35.15-.53.23h.02c-.25.09-.5.18-.76.27h.02l-.8.24c-5.39 1.94-11.06 1.84-16.66 2.19-.39-.07-.78-.21-1.17-.21-2.81-.02-5.63-.02-8.44-.02l.05-.43Z"/></clipPath></defs><g clip-path="url(#a)"><svg xmlns="http://www.w3.org/2000/svg" width="382" height="382" style="shape-rendering:geometricPrecision"><path fill="#9b6dcf" stroke="#9b6dcf" d="m103.446 221.419-10.948 23.47-32.76 9.801 4.584-48.091z"/><path fill="#cd5f44" stroke="#cd5f44" d="m330.536 329.824 9.772-10.774 36.334 25.992-25.025 17.8-18.554-15.904zM224.437 225.664l84.986-23.448 14.444 15.235 11.65 30.854-5.786 7.03-10.63 8.666-85.577-3.457-15.246-14.756z"/><path fill="#9b6dcf" stroke="#9b6dcf" d="m112.136 147.608-28.28-8.246 2.348-35.578 21.835-35.49 58.178 59.312z"/><path fill="#cd5f44" stroke="#cd5f44" d="M166.217 127.606 108.04 68.294 118.289 0h16.46l55.331 92.803-3.796 32.077z"/><path fill="#9b6dcf" stroke="#9b6dcf" d="m247.407 382 11.87-58.288 71.26 6.112 2.526 17.114L314.113 382zM382 382h-14.317l-16.066-19.158 25.025-17.8 5.358 1.955zM0 0h57.04L40.128 65.123 7.2 99.895 0 99.048zM77.467 141.693 55.39 196.13 0 210.97v-31.204l37.168-50.126z"/><path fill="#9b6dcf" stroke="#9b6dcf" d="m314.113 382 18.95-35.062 18.554 15.904L367.683 382zM0 236.823l22.974 17.327-1.828 46.047L0 311.227z"/><path fill="#cd5f44" stroke="#cd5f44" d="M134.748 0h126.413l-12 47.662-59.08 45.141zM382 346.997l-5.358-1.955-36.334-25.992 1.085-2.069L382 297.147z"/><path fill="#9b6dcf" stroke="#9b6dcf" d="m126.277 213.125-14.141-65.517 54.081-20.002 20.067-2.726 4.348 4.657 33.042 66.003.763 30.124-6.16 20.124-20.825 7.322z"/><path fill="#cd5f44" stroke="#cd5f44" d="m335.517 248.305 14.65-4.54L382 242.352v53.116l-52.269-40.132z"/><path fill="#9b6dcf" stroke="#9b6dcf" d="m0 99.048 7.2.847 29.968 29.745L0 179.766zM267.059 160.264l18.313-29.793 44.937 23.832 1.525 2.336-11.282 14.417z"/><path fill="#cd5f44" stroke="#cd5f44" d="m323.867 217.45-14.444-15.234 6.719-10.108 32.628 5.393-4.027 12.32zM330.309 154.303l-2.78-59.336L382 81.81v77.482l-50.166-2.654zM348.88 215.634l33.12-9.501v36.219l-31.833 1.413z"/><path fill="#9b6dcf" stroke="#9b6dcf" d="m223.674 195.54 43.385-35.276 53.493 10.792-4.41 21.052-6.719 10.108-84.986 23.448z"/><path fill="#cd5f44" stroke="#cd5f44" d="M233.524 260.544 319.101 264l22.292 52.98-1.085 2.069-9.772 10.774-71.258-6.112zM111.14 0 66.867 83.3l-26.74-18.177L57.04 0z"/><path fill="#9b6dcf" stroke="#9b6dcf" d="m77.467 141.693-40.3-12.053L7.2 99.895l32.927-34.772L66.867 83.3l19.337 20.484-2.348 35.578zM382 48.204l-74.592-10.767L270.238 0H382zM0 311.227l21.146-11.03 58.09 15.679 5.373 5.48L0 381.526z"/><path fill="#cd5f44" stroke="#cd5f44" d="m323.867 217.45 20.876-7.628 4.137 5.812 1.287 28.13-14.65 4.541z"/><path fill="#9b6dcf" stroke="#9b6dcf" d="m186.284 124.88 3.796-32.077 59.08-45.141 34.345 52.565-92.873 29.31zM126.277 213.125l-22.831 8.294-39.124-14.82-8.932-10.47 22.077-54.436 6.389-2.331 28.28 8.246z"/><path fill="#cd5f44" stroke="#cd5f44" d="M348.77 197.501 382 178.74v27.393l-33.12 9.5-4.137-5.811zM0 382v-.474l84.61-60.17 43.529 7.096L142.716 382zM283.505 100.227 249.16 47.662 261.16 0h9.078l37.17 37.437 5.26 54.956-27.001 9.015z"/><path fill="#9b6dcf" stroke="#9b6dcf" d="m64.322 206.599-4.583 48.091-5.393 6.24-31.372-6.78L0 236.823v-25.852l55.39-14.841z"/><path fill="#cd5f44" stroke="#cd5f44" d="m223.674 195.54-33.042-66.003 92.873-29.31 2.162 1.181-.295 29.063-18.313 29.793z"/><path fill="#cd5f44" stroke="#cd5f44" d="m285.372 130.47.295-29.062 27-9.015 14.862 2.574 2.78 59.336z"/><path fill="#9b6dcf" stroke="#9b6dcf" d="m312.668 92.393-5.26-54.956L382 48.204V81.81l-54.47 13.156z"/><path fill="#cd5f44" stroke="#cd5f44" d="m22.974 254.15 31.372 6.78 24.89 54.946-58.09-15.68z"/><path fill="#9b6dcf" stroke="#9b6dcf" d="m130.71 324.33 66.742-71.22 20.826-7.322 15.246 14.756 25.754 63.168L247.407 382H142.716l-14.577-53.548z"/><path fill="#cd5f44" stroke="#cd5f44" d="M86.204 103.784 66.867 83.3 111.14 0h7.148l-10.25 68.294z"/><path fill="#9b6dcf" stroke="#9b6dcf" d="m319.101 264.001 10.63-8.665L382 295.468v1.679l-40.607 19.834z"/><path fill="#cd5f44" stroke="#cd5f44" d="m320.552 171.056 11.282-14.417L382 159.293v19.447L348.77 197.5l-32.628-5.393z"/><path fill="#9b6dcf" stroke="#9b6dcf" d="m126.277 213.125 71.175 39.985-66.743 71.22-38.211-79.44 10.948-23.471z"/><path fill="#cd5f44" stroke="#cd5f44" d="m92.498 244.89 38.211 79.44-2.57 4.122-43.53-7.096-5.373-5.48-24.89-54.946 5.393-6.24z"/></svg></g></svg>