<svg xmlns="http://www.w3.org/2000/svg" viewBox="0 0 382 382"><defs><clipPath id="a"><path d="M203.44 143.33c-3.19-.43-6.39-.81-9.57-1.31-1.61-.25-3.21-.63-4.78-1.09-4.55-1.34-8.42-3.91-12.14-6.77-3.1-2.38-5.58-5.35-7.52-8.67-1.19-2.04-1.62-4.52-2.48-6.77-.98-2.58-1.17-5.29-1.66-7.97-.81-4.49-1.66-9.02-3.04-13.36-1.2-3.78-4.08-7.25-9.09-5.97-2.21.57-4.26 1.31-6.23 2.47-5.28 3.13-10.95 5.4-16.99 6.5-5.82 1.06-11.7 1.86-17.56 2.69-1.73.25-3.5.21-5.51.32.34-1.19.6-2.15.89-3.1.97-3.12 2.02-6.22 2.93-9.36.93-3.2 3.25-5.22 5.95-6.7 2.75-1.5 5.74-2.57 8.62-3.82 5.98-.41 11.95-.86 17.93-1.21 1.37-.08 2.77.22 4.15.2 3.88-.04 7.75-.12 11.63-.24 1.99-.06 3.99-.25 5.98-.41.8-.06 1.59-.22 2.38-.33h-.03l4.94-.75h-.03c.75-.16 1.5-.38 2.26-.46 2.53-.28 5.06-.56 7.6-.76 2.68-.21 5.37-.45 8.06-.46 5.45-.02 10.91.04 16.36.22 1.89.06 3.77.52 5.64.91 1.71.35 3.39.86 5.09 1.29h-.02c.75.25 1.49.49 2.24.74h-.02c.25.09.51.17.76.26h-.02c.25.09.5.18.76.27h-.02c.17.08.35.16.52.24h-.02c.17.08.35.16.52.25h-.02c.58.26 1.15.51 1.73.77h-.02c.17.08.34.17.51.25h-.02c.17.09.34.17.51.26h-.02c.42.24.84.48 1.26.73h-.02c.17.08.34.16.51.25h-.02c.26.15.51.31.77.48h-.02c.41.25.83.5 1.24.75h-.02c.17.09.33.18.5.27h-.02c.42.24.83.49 1.25.73H230c.25.16.5.32.76.49h-.02c.41.24.83.49 1.24.74h-.02c.25.16.5.33.75.5h-.02c.09.07.19.15.28.23h-.02c.16.09.32.19.48.28h-.02c.09.07.18.15.28.23h-.02c.09.07.18.15.27.23h-.02c.25.16.5.33.74.5h-.02q.135.105.27.24h-.02c.33.24.66.5.99.75.09.07.18.16.27.24.33.24.66.49.99.74.09.08.17.17.26.25s.17.16.26.25c.09.08.17.16.26.25.09.08.17.16.26.25.09.08.17.16.26.25.09.08.17.16.26.25.09.07.17.16.26.24.09.07.18.16.26.24.09.08.17.16.26.25.09.08.18.16.26.25l-.02-.02c.66.58 1.31 1.17 1.97 1.75.09.07.18.16.26.24.09.08.17.16.26.25.09.07.17.16.26.24q.135.105.27.24h-.02c.33.33.66.66.99 1V96c.07.09.16.18.24.27.09.08.17.16.26.25.09.07.18.16.27.24h-.02c.25.16.5.33.75.5h-.02c.09.08.18.17.27.25s.17.17.26.25l-.02-.02c.09.08.18.17.27.25l-.03-.02c.25.17.5.35.75.52h-.02l.75.51c.25.17.5.33.76.5.33.25.66.5 1 .75.09.08.18.17.27.25h-.02c.25.16.49.33.74.51h-.02c.42.25.83.49 1.25.74h-.02c.17.09.33.18.5.27h-.02c.25.15.51.32.76.48h-.02c.17.08.34.16.51.25h-.02c.17.08.34.17.51.25h-.02c.42.17.83.34 1.25.51h-.02c.17.08.34.17.52.25h-.02c.17.09.34.17.51.26h-.02c.17.09.34.17.51.26h-.02c1.42.25 2.83.6 4.26.74 3.08.29 6.17.48 9.25.69 1.79.12 3.61.46 5.35.22 1.78-.25 3.49-1.08 5.23-1.66l1.26-.24h-.02c.41.16.82.36 1.24.47 3.34.92 6.7 1.74 10.01 2.75 3.37 1.02 6.58 2.45 9.52 4.44.78.52 1.19 1.13 1.15 2.12-.07 2 .08 4.02-.08 6.01-.18 2.19-.55 4.37-.96 6.53-.27 1.41-.98 1.66-2.2.96-.88-.51-1.72-1.11-2.61-1.61-3.02-1.68-6.19-2.72-9.72-2.26-3.03.39-6.08.73-9.12 1.06-1.58.17-3.2.11-4.75.43-3.44.73-6.86 1.53-10.42 1.23l-4.69-.48h.02c-1.6-.16-3.2-.36-4.8-.48-.78-.06-1.57 0-2.35 0h.02c-1.06.29-.86 1.22-1 1.97v-.03c-.24.5-.49 1-.73 1.51v-.02c-.09.17-.18.33-.28.5v-.02c-.07.09-.16.18-.24.27l-.25.25v-.02c-.16.25-.33.5-.5.75v-.02c-.07.09-.15.18-.23.28v-.02c-.16.25-.33.5-.49.75v-.02c-.17.25-.35.5-.52.74v-.02c-.08.09-.16.18-.25.26s-.17.16-.26.25c-.09.08-.17.16-.26.25-.09.08-.17.16-.26.25-.09.08-.18.16-.26.25h.02c-.33.24-.66.5-.99.75h.02q-.135.105-.27.24h.02c-.25.16-.5.33-.75.5h.02c-.25.16-.5.32-.76.49h.02c-.17.08-.33.18-.5.27h.03l-.78.48h.02c-.17.08-.34.17-.5.25h.02c-.17.09-.34.17-.51.26h.02c-.17.08-.34.17-.51.25h.02c-.17.08-.34.16-.52.25h.02l-.51.24h.02c-.17.09-.34.17-.5.26h.02c-.17.09-.34.17-.51.26h.02c-.66.33-1.33.66-1.99.99h.02l-.51.25h.02c-.17.08-.34.17-.51.25h.02c-.17.07-.34.16-.52.24h.02c-.17.08-.34.17-.52.25h.02c-.42.17-.83.34-1.25.51h.02c-.42.16-.84.33-1.26.49h.02l-.75.27h.02c-.18.08-.35.15-.53.23h.02c-.25.09-.5.18-.76.27h.02l-.8.24c-5.39 1.94-11.06 1.84-16.66 2.19-.39-.07-.78-.21-1.17-.21-2.81-.02-5.63-.02-8.44-.02l.05-.43Z"/></clipPath></defs><g clip-path="url(#a)"><svg xmlns="http://www.w3.org/2000/svg" width="382" height="382" style="shape-rendering:geometricPrecision"><path fill="#61eef8" stroke="#61eef8" d="M201.925 35.902 191.47 0h51.766l-8.412 17.218L205.3 36.134zM258.738 26.466l-15.854 19.797-3.386-24.466zM313.13 234.83l17.516-41.87 22.149 12.457-4.84 57.894-14.47 2.064z"/><path fill="#1b9f3d" stroke="#1b9f3d" d="m0 341.366 24.929-7.715 4.615 47.644L0 344.433zM107.077 150.716l-22.218 81.932-29.407-19.505 14.18-28.485 37.37-34.216z"/><path fill="#61eef8" stroke="#61eef8" d="m211.712 143.334-25.861 38.469-78.567-33.119-.928-9.7 29.862-19.96 75.809 15.07z"/><path fill="#1b9f3d" stroke="#1b9f3d" d="m285.978 75.518-31.613-14.01 45.444-32.596-9.004 32.861z"/><path fill="#61eef8" stroke="#61eef8" d="m248.292 62.384-7.34-12.833 1.932-3.288 15.854-19.797L291.816 0h20.305l1.592 6.674-13.904 22.238-45.444 32.595z"/><path fill="#1b9f3d" stroke="#1b9f3d" d="m382 26.316-54.883-1.869-13.404-17.773L312.12 0H382z"/><path fill="#61eef8" stroke="#61eef8" d="m0 293.982 23.069 3.503 16.133 27.196-14.273 8.97L0 341.366z"/><path fill="#1b9f3d" stroke="#1b9f3d" d="m266.845 219.237 32.419 2.303 8.692 11.327-26.613 6.82-18.502-13.288z"/><path fill="#61eef8" stroke="#61eef8" d="m382 69.708-37.405-5.617-17.478-39.644L382 26.316z"/><path fill="#1b9f3d" stroke="#1b9f3d" d="m51.195 265.007-28.126 32.478L0 293.982V274.28l33.355-31.766z"/><path fill="#61eef8" stroke="#61eef8" d="m165.335 256.006-1.96 32.003-15.635 14.814-11.45-50.715 2.021-1.139zM266.845 219.237l9.354-38.914 6.618-4.736 16.447 45.953z"/><path fill="#1b9f3d" stroke="#1b9f3d" d="m70.95 273.15 29.55 56.334-28.254 16.639-29.013-20.197zM101.044 135.251l-28.339-2.39L0 74.87V55.865l74.8 2.343z"/><path fill="#61eef8" stroke="#61eef8" d="m221.372 159.87-9.66-16.536.315-9.24 10.026-8.963 56.105 34.75 6.322 13.51-1.663 2.196-6.618 4.736-22.259 3.468z"/><path fill="#1b9f3d" stroke="#1b9f3d" d="m223.3 122.2-25.791-50.017 47.731-.165.422 9.856-12.668 32.32zM72.246 346.123 61.298 382H29.937l-.393-.705-4.615-47.644 14.273-8.97 4.031 1.245z"/><path fill="#61eef8" stroke="#61eef8" d="m291.816 0-33.078 26.466-19.24-4.67-4.674-4.578L243.236 0zM214.29 222.41l46.114 4.982-5.141 54.02-30.584.688-3.28-3.61-16.384-50.476z"/><path fill="#61eef8" stroke="#61eef8" d="m262.84 226.4 18.503 13.287-9.444 45.91-16.636-4.185 5.14-54.02z"/><path fill="#61eef8" stroke="#61eef8" d="m218.34 215.968 35.6-32.177 22.259-3.468-9.354 38.914-4.004 7.162-2.437.993-46.114-4.981zM0 216.98l29.73 14.182 3.625 11.352L0 274.28zM232.994 114.195l12.668-32.32L290 93.192l5.897 9.27-10.297 9.503z"/><path fill="#1b9f3d" stroke="#1b9f3d" d="m216.57 315.623 27.82 45.074L242.167 382h-81.19l-10.573-38.714zM382 269.944l-34.045-6.633 4.84-57.894L382 198.613zM100.5 329.484l9.39-.046L103.614 382H61.298l10.948-35.877z"/><path fill="#61eef8" stroke="#61eef8" d="m307.956 232.867 5.174 1.963 20.355 30.545-34.773 36.14-26.813-15.919 9.444-45.909z"/><path fill="#1b9f3d" stroke="#1b9f3d" d="m284.48 173.39 27.608-2.641 11.384 6.816 7.174 15.395-17.516 41.87-5.174-1.963-8.692-11.327-16.447-45.953z"/><path fill="#61eef8" stroke="#61eef8" d="m157.347 69.492-21.13 49.533-29.86 19.96-5.313-3.734L74.8 58.208l14.933-23.895 60.54 25.457z"/><path fill="#1b9f3d" stroke="#1b9f3d" d="m290 93.193-44.338-11.319-.422-9.856 3.052-9.634 6.073-.877 31.613 14.011z"/><path fill="#61eef8" stroke="#61eef8" d="m271.9 285.596 26.812 15.92.612 5.782-54.934 53.399-27.82-45.074 8.109-33.523 30.584-.688z"/><path fill="#1b9f3d" stroke="#1b9f3d" d="M323.472 177.565 382 152.782v45.831l-29.205 6.804-22.15-12.457z"/><path fill="#61eef8" stroke="#61eef8" d="M127.251 197.455 113.477 230.4l-23.175 13.288-5.443-11.04 22.218-81.932zM110.32 267.836l28.605 50.057-2.12 10.345-26.915 1.2-9.39.046-29.55-56.335-.618-2.671 15.603-11.249zM245.24 72.018l-47.731.165-11.385-11.616 15.8-24.665 3.377.232 35.651 13.417 7.34 12.833zM107.001 150.442l-37.37 34.216-34.366-1.883-7.917-3.263 42.944-45.913 2.413-.738 28.339 2.39 5.312 3.734.928 9.7z"/><path fill="#1b9f3d" stroke="#1b9f3d" d="m382 152.782-58.528 24.783-11.384-6.816 18.217-57.922L382 136.695z"/><path fill="#61eef8" stroke="#61eef8" d="m147.442 0 2.831 59.77-60.54-25.457.263-4.803L101.562 0z"/><path fill="#1b9f3d" stroke="#1b9f3d" d="m221.372 159.87-3.032 56.098-4.05 6.443-9.275 5.603-7.958-2.896-2.656-2.477-8.55-40.838 25.861-38.469zM0 344.433l29.544 36.862.393.705H0z"/><path fill="#61eef8" stroke="#61eef8" d="m212.027 134.095-75.81-15.07 21.13-49.533 28.777-8.925 11.385 11.616L223.3 122.2l-1.247 2.93z"/><path fill="#1b9f3d" stroke="#1b9f3d" d="m325.331 104.068 8.61-18.666 10.654-21.311L382 69.708v66.987l-51.695-23.868z"/><path fill="#61eef8" stroke="#61eef8" d="M74.8 58.208 0 55.865V21.291l58.836-5.545 31.16 13.764-.263 4.803z"/><path fill="#1b9f3d" stroke="#1b9f3d" d="m278.158 159.88-56.105-34.749 1.247-2.93 9.694-8.006 52.605-2.23z"/><path fill="#61eef8" stroke="#61eef8" d="m240.952 49.55-35.65-13.416 29.522-18.916 4.674 4.579 3.386 24.466z"/><path fill="#1b9f3d" stroke="#1b9f3d" d="m221.372 159.87 32.568 23.921-35.6 32.177z"/><path fill="#61eef8" stroke="#61eef8" d="m136.29 252.108 11.45 50.715-8.815 15.07-28.604-50.057 23.37-15.895zM299.324 307.298l25.434 33.17L298.536 382h-56.37l2.224-21.303z"/><path fill="#61eef8" stroke="#61eef8" d="M382 382h-83.464l26.222-41.533L382 357.807zM58.836 15.746 0 21.29V9.281l53.794-4.96zM278.158 159.88l7.44-47.914 10.298-9.502 29.435 1.604 4.974 8.759-18.217 57.922-27.608 2.641zM157.347 69.492l-7.074-9.722L147.443 0h44.027l10.455 35.902-15.801 24.665z"/><path fill="#61eef8" stroke="#61eef8" d="M101.562 0 89.996 29.51l-31.16-13.764-5.042-11.424L53.966 0z"/><path fill="#1b9f3d" stroke="#1b9f3d" d="m55.452 213.143-18.956 12.26-1.231-42.628 34.367 1.883zM290 93.193l-4.022-17.675 4.827-13.745 43.135 23.63-8.609 18.665-29.435-1.604zM70.95 273.15l-27.717 52.776-4.031-1.245-16.133-27.196 28.126-32.478 19.137 5.47zM0 147.885l70.292-14.286-42.944 45.913L0 177.016zM382 357.807l-57.242-17.34-25.434-33.169-.612-5.782 34.773-36.141 14.47-2.064L382 269.944zM333.94 85.402l-43.135-23.629 9.004-32.86 13.904-22.239 13.404 17.773 17.478 39.644zM205.015 228.014l16.384 50.477-58.024 9.518 1.96-32.003 31.722-30.888z"/><path fill="#61eef8" stroke="#61eef8" d="m35.265 182.775 1.231 42.627-6.765 5.76L0 216.981v-39.965l27.348 2.496z"/><path fill="#1b9f3d" stroke="#1b9f3d" d="m113.477 230.4 20.213 21.541-23.37 15.895-24.385-8.607 4.367-15.54z"/><path fill="#61eef8" stroke="#61eef8" d="m90.302 243.688-4.367 15.541-15.603 11.249-19.137-5.47-17.84-22.494-3.624-11.352 6.765-5.76 18.956-12.259 29.407 19.505zM127.251 197.455l24.116 17.83-13.056 35.684-2.021 1.14-2.6-.168-20.213-21.54zM163.375 288.01l58.024-9.52 3.28 3.61-8.11 33.523-66.165 27.663-13.6-15.048 2.121-10.345 8.815-15.07z"/><path fill="#1b9f3d" stroke="#1b9f3d" d="m194.401 222.64 2.656 2.478-31.722 30.888-27.024-5.037 13.056-35.684z"/><path fill="#61eef8" stroke="#61eef8" d="m185.85 181.803 8.551 40.838-43.034-7.356-24.116-17.83-20.174-46.74-.076-.273.283-1.758z"/><path fill="#1b9f3d" stroke="#1b9f3d" d="m103.614 382 6.276-52.562 26.915-1.2 13.599 15.048L160.977 382zM0 74.869l72.705 57.992-2.413.738L0 147.885zM53.966 0l-.172 4.322L0 9.28V0z"/></svg></g></svg>