<svg xmlns="http://www.w3.org/2000/svg" viewBox="0 0 382 382"><defs><clipPath id="a"><path d="M203.44 143.33c-3.19-.43-6.39-.81-9.57-1.31-1.61-.25-3.21-.63-4.78-1.09-4.55-1.34-8.42-3.91-12.14-6.77-3.1-2.38-5.58-5.35-7.52-8.67-1.19-2.04-1.62-4.52-2.48-6.77-.98-2.58-1.17-5.29-1.66-7.97-.81-4.49-1.66-9.02-3.04-13.36-1.2-3.78-4.08-7.25-9.09-5.97-2.21.57-4.26 1.31-6.23 2.47-5.28 3.13-10.95 5.4-16.99 6.5-5.82 1.06-11.7 1.86-17.56 2.69-1.73.25-3.5.21-5.51.32.34-1.19.6-2.15.89-3.1.97-3.12 2.02-6.22 2.93-9.36.93-3.2 3.25-5.22 5.95-6.7 2.75-1.5 5.74-2.57 8.62-3.82 5.98-.41 11.95-.86 17.93-1.21 1.37-.08 2.77.22 4.15.2 3.88-.04 7.75-.12 11.63-.24 1.99-.06 3.99-.25 5.98-.41.8-.06 1.59-.22 2.38-.33h-.03l4.94-.75h-.03c.75-.16 1.5-.38 2.26-.46 2.53-.28 5.06-.56 7.6-.76 2.68-.21 5.37-.45 8.06-.46 5.45-.02 10.91.04 16.36.22 1.89.06 3.77.52 5.64.91 1.71.35 3.39.86 5.09 1.29h-.02c.75.25 1.49.49 2.24.74h-.02c.25.09.51.17.76.26h-.02c.25.09.5.18.76.27h-.02c.17.08.35.16.52.24h-.02c.17.08.35.16.52.25h-.02c.58.26 1.15.51 1.73.77h-.02c.17.08.34.17.51.25h-.02c.17.09.34.17.51.26h-.02c.42.24.84.48 1.26.73h-.02c.17.08.34.16.51.25h-.02c.26.15.51.31.77.48h-.02c.41.25.83.5 1.24.75h-.02c.17.09.33.18.5.27h-.02c.42.24.83.49 1.25.73H230c.25.16.5.32.76.49h-.02c.41.24.83.49 1.24.74h-.02c.25.16.5.33.75.5h-.02c.09.07.19.15.28.23h-.02c.16.09.32.19.48.28h-.02c.09.07.18.15.28.23h-.02c.09.07.18.15.27.23h-.02c.25.16.5.33.74.5h-.02q.135.105.27.24h-.02c.33.24.66.5.99.75.09.07.18.16.27.24.33.24.66.49.99.74.09.08.17.17.26.25s.17.16.26.25c.09.08.17.16.26.25.09.08.17.16.26.25.09.08.17.16.26.25.09.08.17.16.26.25.09.07.17.16.26.24.09.07.18.16.26.24.09.08.17.16.26.25.09.08.18.16.26.25l-.02-.02c.66.58 1.31 1.17 1.97 1.75.09.07.18.16.26.24.09.08.17.16.26.25.09.07.17.16.26.24q.135.105.27.24h-.02c.33.33.66.66.99 1V96c.07.09.16.18.24.27.09.08.17.16.26.25.09.07.18.16.27.24h-.02c.25.16.5.33.75.5h-.02c.09.08.18.17.27.25s.17.17.26.25l-.02-.02c.09.08.18.17.27.25l-.03-.02c.25.17.5.35.75.52h-.02l.75.51c.25.17.5.33.76.5.33.25.66.5 1 .75.09.08.18.17.27.25h-.02c.25.16.49.33.74.51h-.02c.42.25.83.49 1.25.74h-.02c.17.09.33.18.5.27h-.02c.25.15.51.32.76.48h-.02c.17.08.34.16.51.25h-.02c.17.08.34.17.51.25h-.02c.42.17.83.34 1.25.51h-.02c.17.08.34.17.52.25h-.02c.17.09.34.17.51.26h-.02c.17.09.34.17.51.26h-.02c1.42.25 2.83.6 4.26.74 3.08.29 6.17.48 9.25.69 1.79.12 3.61.46 5.35.22 1.78-.25 3.49-1.08 5.23-1.66l1.26-.24h-.02c.41.16.82.36 1.24.47 3.34.92 6.7 1.74 10.01 2.75 3.37 1.02 6.58 2.45 9.52 4.44.78.52 1.19 1.13 1.15 2.12-.07 2 .08 4.02-.08 6.01-.18 2.19-.55 4.37-.96 6.53-.27 1.41-.98 1.66-2.2.96-.88-.51-1.72-1.11-2.61-1.61-3.02-1.68-6.19-2.72-9.72-2.26-3.03.39-6.08.73-9.12 1.06-1.58.17-3.2.11-4.75.43-3.44.73-6.86 1.53-10.42 1.23l-4.69-.48h.02c-1.6-.16-3.2-.36-4.8-.48-.78-.06-1.57 0-2.35 0h.02c-1.06.29-.86 1.22-1 1.97v-.03c-.24.5-.49 1-.73 1.51v-.02c-.09.17-.18.33-.28.5v-.02c-.07.09-.16.18-.24.27l-.25.25v-.02c-.16.25-.33.5-.5.75v-.02c-.07.09-.15.18-.23.28v-.02c-.16.25-.33.5-.49.75v-.02c-.17.25-.35.5-.52.74v-.02c-.08.09-.16.18-.25.26s-.17.16-.26.25c-.09.08-.17.16-.26.25-.09.08-.17.16-.26.25-.09.08-.18.16-.26.25h.02c-.33.24-.66.5-.99.75h.02q-.135.105-.27.24h.02c-.25.16-.5.33-.75.5h.02c-.25.16-.5.32-.76.49h.02c-.17.08-.33.18-.5.27h.03l-.78.48h.02c-.17.08-.34.17-.5.25h.02c-.17.09-.34.17-.51.26h.02c-.17.08-.34.17-.51.25h.02c-.17.08-.34.16-.52.25h.02l-.51.24h.02c-.17.09-.34.17-.5.26h.02c-.17.09-.34.17-.51.26h.02c-.66.33-1.33.66-1.99.99h.02l-.51.25h.02c-.17.08-.34.17-.51.25h.02c-.17.07-.34.16-.52.24h.02c-.17.08-.34.17-.52.25h.02c-.42.17-.83.34-1.25.51h.02c-.42.16-.84.33-1.26.49h.02l-.75.27h.02c-.18.08-.35.15-.53.23h.02c-.25.09-.5.18-.76.27h.02l-.8.24c-5.39 1.94-11.06 1.84-16.66 2.19-.39-.07-.78-.21-1.17-.21-2.81-.02-5.63-.02-8.44-.02l.05-.43Z"/></clipPath></defs><g clip-path="url(#a)"><svg xmlns="http://www.w3.org/2000/svg" width="382" height="382" style="shape-rendering:geometricPrecision"><path fill="#de59b3" stroke="#de59b3" d="m130.825 0-7.967 22.547L79.62 1.494 78.68 0z"/><path fill="#0792e5" stroke="#0792e5" d="m196.124 101.316 5.695-59.702 48.075 12.618 2.966 2.557-4.162 34.182zM382 276.487l-51.58 23.655 11.59-62.743 7.083-6.987L382 252.255z"/><path fill="#de59b3" stroke="#de59b3" d="m240.525 220.364 17.07-7.637 24.784 9.934 8.42 9.63 1.042 5.319-12.475 15.607-31.24-2.994-10.504-13.926zM124.686 24.428l-1.828-1.88L130.825 0h21.75l1.613 8.707zM86.292 69.842 50.14 54.727 67.286 0H78.68l.941 1.494 19.542 65.828-9.292 2.422z"/><path fill="#0792e5" stroke="#0792e5" d="m346.993 144.685-38.427-35.397 18.83-27.868L382 105.927v24.35l-25.603 16.348zM196.985 266.83l40.637-30.533 10.504 13.926 6.399 25.366-47.006 12.76zM286.602 284.428l-7.236-31.21 12.475-15.608 6.828 6.145 2.659 43.026zM307.127 289.433l16.347-41.213 18.535-10.821-11.59 62.743-7.22 5.451z"/><path fill="#de59b3" stroke="#de59b3" d="m176.46 236.392-6.85-39.439 15.401-27.344 14.735 4.87 3.595 1.374 11.167 21.022zM252.86 56.789l-2.966-2.557L243.555 0H268.6l15.86 45.882z"/><path fill="#0792e5" stroke="#0792e5" d="M67.286 0 50.14 54.727l-23.09 7.74L0 55.135V0zM115.397 226.619l-3.223 5.67-53.57-64.305 4.974-19.43 29.627-5.909 11.378 18.507 14.755 46.322zM260.555 206.162l1.913-33.37 4.6-3.094 11.509 3.175 11.634 7.593-18.262 19.004z"/><path fill="#de59b3" stroke="#de59b3" d="m0 246.563 45.625 4.053-12.955 34.27L0 266.066zM214.508 196.875l-11.167-21.022 27.59-18.025 31.537 14.964-1.913 33.37-2.96 6.565-17.07 7.637-22.245-19.63z"/><path fill="#0792e5" stroke="#0792e5" d="m47.544 247.535-1.919 3.08L0 246.564v-11.134l30.018-4.424zM172.413 113.724l-9.441-39.954-3.044-22.209 11.751-12.099 22.829-3.156 7.311 5.308-5.695 59.702-9.45 6.663z"/><path fill="#de59b3" stroke="#de59b3" d="m119.066 264.605-16.775 51.457-29.047 3.239-36.698-23.83.148-1.585z"/><path fill="#0792e5" stroke="#0792e5" d="m0 192.259 38.31-3.586.83 4.258-9.122 38.074L0 235.429z"/><path fill="#de59b3" stroke="#de59b3" d="m180.33 260.86 16.655 5.97 10.534 21.519.551 3.481-29.21 60.096-44.796-86.03 37-7.707z"/><path fill="#0792e5" stroke="#0792e5" d="m207.52 288.349 47.005-12.76 11.792 13.817-8.021 15.939-39.267-7.085-10.959-6.43zM112.174 232.29l-.849 11.323-43.567-4.375-28.617-46.307-.83-4.258 20.293-20.689zM290.8 232.292l37.367-15.77 20.572 12.845.354 1.045-7.084 6.987-18.535 10.82-24.805-4.464-6.828-6.145z"/><path fill="#de59b3" stroke="#de59b3" d="m0 99.729 46.282 12.67 12.228 28.264.677 2.788L0 138.694z"/><path fill="#0792e5" stroke="#0792e5" d="m170.5 116.342-57.584-26.734 50.056-15.838 9.44 39.954z"/><path fill="#de59b3" stroke="#de59b3" d="m165.225 140.932-69.762.187 15.46-52.256 1.993.745 57.584 26.734zM86.292 69.842l3.578-.098-31.36 70.92L46.282 112.4l1.433-16.631zM38.31 188.673 0 192.26v-53.565l59.187 4.757 4.391 5.102-4.974 19.431z"/><path fill="#0792e5" stroke="#0792e5" d="m271.949 199.47 18.262-19.004 19.46.717 2.995 4.769-.167 6.307-1.311.896zM176.46 236.392l-5.396 21.797-37 7.707-13.56-3.3-9.179-18.983.849-11.323 3.223-5.671 54.212-29.666z"/><path fill="#de59b3" stroke="#de59b3" d="M382 0v105.927L327.395 81.42l-9.824-39.493L347.102 0zM169.61 196.953l-54.213 29.666 3.941-19.145 18.766-28.89 31.858-25.292 15.05 16.317zM230.931 157.828l5.641-13.163 39.204 2.326-8.708 22.707-4.6 3.094zM278.577 172.873l23.674-21.061 6.037 6.44 1.384 22.931-19.461-.717z"/><path fill="#de59b3" stroke="#de59b3" d="m138.104 178.584-18.766 28.89-14.755-46.322zM169.962 153.292l-4.737-12.36 5.275-24.59 1.913-2.618 14.262-5.745 28.815 18.98-15.744 47.52-14.735-4.87z"/><path fill="#0792e5" stroke="#0792e5" d="m162.972 73.77-50.056 15.838-1.992-.745-8.769-20.347 27.81-16.021 29.963-.934z"/><path fill="#de59b3" stroke="#de59b3" d="m266.317 289.406 20.285-4.978 14.726 2.353 5.799 2.652 16.072 16.16.344 55.38-64.113-29.896-1.134-25.732z"/><path fill="#0792e5" stroke="#0792e5" d="m312.499 192.259.167-6.307 38.729-11.493 10.851 21.151-13.507 33.757-20.572-12.844z"/><path fill="#de59b3" stroke="#de59b3" d="M0 382v-64.487l30.202-11.485 9.584 41.493L20.466 382z"/><path fill="#0792e5" stroke="#0792e5" d="m199.746 174.48 15.744-47.521 21.76 7.819-.678 9.887-5.641 13.163-27.59 18.025z"/><path fill="#de59b3" stroke="#de59b3" d="m248.698 90.97 4.162-34.181 31.6-10.907 33.111-3.955 9.824 39.493-18.829 27.868-18.664 10.469-36.642-20.08zM176.46 236.392l38.048-39.517 3.772 3.86-37.95 60.124-9.266-2.67zM275.776 146.99l13.92-13.459 12.555 18.28-23.674 21.062-11.51-3.175z"/><path fill="#0792e5" stroke="#0792e5" d="m138.104 178.584-33.52-17.432-11.379-18.507 2.258-1.526 69.762-.187 4.737 12.36zM347.102 0l-29.53 41.927-33.113 3.955L268.6 0zM309.672 181.183l-1.384-22.93 38.705-13.568 9.404 1.94-5.002 27.834-38.729 11.493z"/><path fill="#de59b3" stroke="#de59b3" d="m93.205 142.645-29.627 5.908-4.39-5.102-.678-2.788 31.36-70.92 9.292-2.421 2.993 1.194 8.769 20.347-15.46 52.256z"/><path fill="#0792e5" stroke="#0792e5" d="m39.14 192.931 28.618 46.307-20.214 8.297-17.526-16.53zM254.525 275.589l-6.4-25.366 31.241 2.994 7.236 31.21-20.285 4.979zM356.397 146.625 382 130.277v61.84l-19.754 3.493-10.851-21.15zM289.696 133.531l.206-13.774 18.664-10.47 38.427 35.398-38.705 13.568-6.037-6.441zM73.244 319.3l29.047-3.238 19.215 65.672-62.041-38.339z"/><path fill="#de59b3" stroke="#de59b3" d="m208.07 291.83 10.96 6.43 20.426 43.1-44.12 40.64h-16.15l-.326-30.074z"/><path fill="#0792e5" stroke="#0792e5" d="m120.503 262.596-1.437 2.009-82.372 29.281-4.024-9 12.955-34.27 1.919-3.081 20.214-8.297 43.567 4.375zM46.282 112.4 0 99.729V55.134l27.05 7.334 20.665 33.3zM301.328 286.78l-2.659-43.025 24.805 4.465-16.347 41.213z"/><path fill="#de59b3" stroke="#de59b3" d="m73.244 319.3-13.78 24.095-19.678 4.126-9.584-41.493 6.344-10.558zM159.928 51.561l-29.963.934-5.279-28.067 29.502-15.721 17.491 30.755z"/><path fill="#0792e5" stroke="#0792e5" d="m195.336 382 44.12-40.64 19.974-10.283 64.113 29.896L333.723 382z"/><path fill="#de59b3" stroke="#de59b3" d="m0 266.066 32.67 18.82 4.024 9-.148 1.584-6.344 10.558L0 317.513zM86.292 69.842 47.715 95.769 27.049 62.468l23.091-7.74zM204.482 0l-9.974 36.306-22.829 3.156-17.491-30.755L152.575 0zM260.555 206.162l11.394-6.692 39.239-6.315-28.81 29.506-24.783-9.934zM20.466 382l19.32-34.479 19.679-4.126 62.041 38.339.145.266zM275.776 146.99l-39.204-2.325.678-9.887 16.01-35.1 36.642 20.079-.206 13.774zM382 252.255l-32.907-21.843-.354-1.045 13.507-33.757L382 192.117zM282.379 222.661l28.809-29.506 1.31-.896 15.67 24.264-37.369 15.769z"/><path fill="#de59b3" stroke="#de59b3" d="m201.819 41.614-7.311-5.308L204.482 0h39.073l6.34 54.232zM382 382h-48.277l-10.18-21.027-.344-55.38 7.22-5.451L382 276.487zM180.33 260.86l37.95-60.126 22.245 19.63-2.903 15.933-40.637 30.533z"/><path fill="#0792e5" stroke="#0792e5" d="m134.064 265.896 44.796 86.03.326 30.074H121.65l-.145-.266-19.215-65.672 16.775-51.457 1.437-2.01z"/><path fill="#de59b3" stroke="#de59b3" d="m102.155 68.516-2.993-1.194L79.62 1.494l43.238 21.053 1.828 1.88 5.279 28.068zM219.03 298.26l39.266 7.085 1.134 25.732-19.974 10.283z"/><path fill="#0792e5" stroke="#0792e5" d="m237.25 134.778-21.76-7.82-28.815-18.98 9.45-6.662 52.573-10.345 4.562 8.707z"/></svg></g></svg>