<svg xmlns="http://www.w3.org/2000/svg" viewBox="0 0 382 382"><g fill="none" stroke="#6c7670" stroke-width="2"><path d="M218.25 78.63q-.29.76-.19 1.45.08.58.64.74 1.36.39 1.47 1.78.01.16.14.25.13.08.26.07.3-.01.31-.31l.09-2.91M223.2 80.71q-.24.32.14.71.73.76 1.61.15M226.54 82.48l.3.36q.34.39-.03.74-.29.28-.42.66-.15.45.1.86.87 1.36.07 2.98a.91.9-46 0 0 .01.85q.28.5.79.76a.72.71 24.6 0 1 .34.9q-.1.23-.27.42-.2.24-.21.55 0 .14.09.24.49.59 1.09.11.86-.69 1.84-.98.64-.19.34-.78l-1.3-2.52q-.27-.54.24-.87l2.08-1.31M272.56 105.98q-1.39 1.07-2.1 2.32-.29.52.21.85.85.57 1.12 1.48.15.5-.08.96l-1.2 2.42q-.64 1.28.48.39.63-.49 1.18-1.09a.94.94 0 0 1 1.15-.19l1.1.6q.67.37.6-.4-.11-1.32-.63-2.52-.36-.83.42-1.3.84-.51 1.83-.61.66-.07.97.51l.6 1.15q.28.52.86.51 1.76-.04 3.03-1.63.62-.77.77.21c.22 1.39.83 2.4.75 3.85q-.15 2.43-.14 4.89 0 .58-.36 1.05l-.45.59q-.44.58.06 1.11 1.17 1.23 1.75 2.79M185.5 139.79q1.41-3.03-.77-4.08-.63-.31-.17-.84.66-.75.11-1.7-.35-.61-.05-1.25.78-1.67-1.1-2.86-.35-.22-.73-.03-.65.33-.82 1.08-.31 1.31-.98.15-.75-1.28-.45-2.6.21-.91-.67-1.25-.38-.15-.56-.52-.35-.73.34-1.13 1.91-1.1.82-2.87-.28-.46.01-.91l.21-.3q.76-1.16-.57-1.56-1.39-.41-1.03-1.81.45-1.76 1.07-3.48a1.41 1.39 86.8 0 1 .69-.78l3.42-1.77q.37-.19.6.16.11.16.32.18.63.08.3-.47-.85-1.43-.36-3.32.13-.48.57-.71l1.49-.77q.44-.23.46-.73.03-.87-.81-1.3a.5.49-75.7 0 0-.72.43q0 .56-.36.96a.53.53 0 0 1-.86-.1l-.94-1.72q-.77-1.43-1 .18-.08.58.02 1.16a.71.71 0 0 1-.46.78q-.54.19-1-.14-.4-.29-.47-.78-.08-.56-.55-.84t-1.03-.23q-.5.03-.93-.2-.5-.27-.48-.85c.09-2.68.59-6.02-.15-8.6q-.2-.69-.55-.07c-1.28 2.22-1.09 3.35-3.77 4.44q-.65.26-.57-.44.06-.55-.3-.9-.57-.56-.55.24.03.9-.31 1.66a1.25 1.21-84.3 0 1-.84.71q-.36.09-.66.31-.58.43.08.75 1 .48 1.43 1.42.24.52-.07 1-.9 1.4-2.16 2.29a.45.45 0 0 1-.71-.43q.11-.83-.04-1.66-.13-.69-.84-.69l-2.25-.01q-.62 0-.43-.59l1.28-3.9a.18.18 0 0 0-.12-.22l-.65-.17q-.46-.12-.6-.57-.42-1.3-.38-2.69.01-.54-.53-.57-.29-.02-.5.19-.43.42-.7-.12l-.84-1.63q-.27-.52.21-.87 1.09-.81 1.47-2.08.21-.71.87-.37l.44.22q.37.19.66-.1l2.83-2.88a.39.39 0 0 0-.03-.58q-.88-.71-1.99-1.1a1.18 1.17 3.7 0 1-.75-.85q-.57-2.61 1.25-3.26.61-.22.23-.74l-1.19-1.66M301.03 110.75c-.92 2.22-2.67 7.19-.97 8.98q.43.44.31 1.04l-.49 2.53q-.14.67-.73.32-1.21-.7-2.71-.86a.33.33 0 0 1-.23-.52l.25-.33q.49-.68-.32-.83l-.35-.06q-.82-.15-.41-.88l.22-.4a.58.57 17.3 0 0-.45-.85l-.34-.03q-.43-.04-.5-.46-.03-.21.15-.35.4-.3.13-.72-.19-.27-.54-.29-.56-.03-.75-.56l-.38-1.02q-.21-.58-.7-.21l-.54.41q-.58.44-.29 1.11.68 1.58-1.74 2.97-.71.41-.66-.41.03-.5-.24-.85-.69-.88-.73.24-.05 1.21-1.11 1.23-.74.01-.45.69.74 1.71.12 3.16M184.04 138.81q-2.04-3.2-3.57-2.1M165.42 112.71q.02-.36-.08-.68M165.16 111.2l-.04-.67M141.3 79.15l4.39-.01M150.54 79.17l4.92-.05M282.42 104.19l-1.92-.07M227.61 93.21q-.18.09-.22.3-.06.29.22.21.27-.06.25-.37-.02-.25-.25-.14" vector-effect="non-scaling-stroke"/><path d="M184.16 128.3a.37.37 0 0 0 0 .56q.65.54 1.45-.18a.34.34 0 0 0-.1-.57q-.76-.31-1.35.19" vector-effect="non-scaling-stroke"/></g><path d="M218.25 78.63q-.29.76-.19 1.45.08.58.64.74 1.36.39 1.47 1.78.01.16.14.25.13.08.26.07.3-.01.31-.31l.09-2.91q1.35.28 2.23 1.01-.24.32.14.71.73.76 1.61.15.91.36 1.59.91l.3.36q.34.39-.03.74-.29.28-.42.66-.15.45.1.86.87 1.36.07 2.98a.91.9-46 0 0 .01.85q.28.5.79.76a.72.71 24.6 0 1 .34.9q-.1.23-.27.42-.2.24-.21.55 0 .14.09.24.49.59 1.09.11.86-.69 1.84-.98.64-.19.34-.78l-1.3-2.52q-.27-.54.24-.87l2.08-1.31q5.23 3.72 9.96 8.25c3.55 3.41 7.09 6.37 11.29 8.72 6 3.36 12.88 2.39 19.71 3.56q-1.39 1.07-2.1 2.32-.29.52.21.85.85.57 1.12 1.48.15.5-.08.96l-1.2 2.42q-.64 1.28.48.39.63-.49 1.18-1.09a.94.94 0 0 1 1.15-.19l1.1.6q.67.37.6-.4-.11-1.32-.63-2.52-.36-.83.42-1.3.84-.51 1.83-.61.66-.07.97.51l.6 1.15q.28.52.86.51 1.76-.04 3.03-1.63.62-.77.77.21c.22 1.39.83 2.4.75 3.85q-.15 2.43-.14 4.89 0 .58-.36 1.05l-.45.59q-.44.58.06 1.11 1.17 1.23 1.75 2.79c-4.55.8-9.08.84-13.58 1.79q-3.18.67-6.17.53-5.84-.28-12.1-.96a1.46 1.46 0 0 0-1.61 1.36c-.17 2.68-4.55 7.05-6.73 8.4-5.34 3.34-12.79 7.25-19.03 8.05-1.94.25-3.69.72-5.71.77q-6.79.19-13.39.11c-2.55-.04-5.05-1.01-7.75-1.23q-6.8-.53-12.91-2.95 1.41-3.03-.77-4.08-.63-.31-.17-.84.66-.75.11-1.7-.35-.61-.05-1.25.78-1.67-1.1-2.86-.35-.22-.73-.03-.65.33-.82 1.08-.31 1.31-.98.15-.75-1.28-.45-2.6.21-.91-.67-1.25-.38-.15-.56-.52-.35-.73.34-1.13 1.91-1.1.82-2.87-.28-.46.01-.91l.21-.3q.76-1.16-.57-1.56-1.39-.41-1.03-1.81.45-1.76 1.07-3.48a1.41 1.39 86.8 0 1 .69-.78l3.42-1.77q.37-.19.6.16.11.16.32.18.63.08.3-.47-.85-1.43-.36-3.32.13-.48.57-.71l1.49-.77q.44-.23.46-.73.03-.87-.81-1.3a.5.49-75.7 0 0-.72.43q0 .56-.36.96a.53.53 0 0 1-.86-.1l-.94-1.72q-.77-1.43-1 .18-.08.58.02 1.16a.71.71 0 0 1-.46.78q-.54.19-1-.14-.4-.29-.47-.78-.08-.56-.55-.84t-1.03-.23q-.5.03-.93-.2-.5-.27-.48-.85c.09-2.68.59-6.02-.15-8.6q-.2-.69-.55-.07c-1.28 2.22-1.09 3.35-3.77 4.44q-.65.26-.57-.44.06-.55-.3-.9-.57-.56-.55.24.03.9-.31 1.66a1.25 1.21-84.3 0 1-.84.71q-.36.09-.66.31-.58.43.08.75 1 .48 1.43 1.42.24.52-.07 1-.9 1.4-2.16 2.29a.45.45 0 0 1-.71-.43q.11-.83-.04-1.66-.13-.69-.84-.69l-2.25-.01q-.62 0-.43-.59l1.28-3.9a.18.18 0 0 0-.12-.22l-.65-.17q-.46-.12-.6-.57-.42-1.3-.38-2.69.01-.54-.53-.57-.29-.02-.5.19-.43.42-.7-.12l-.84-1.63q-.27-.52.21-.87 1.09-.81 1.47-2.08.21-.71.87-.37l.44.22q.37.19.66-.1l2.83-2.88a.39.39 0 0 0-.03-.58q-.88-.71-1.99-1.1a1.18 1.17 3.7 0 1-.75-.85q-.57-2.61 1.25-3.26.61-.22.23-.74l-1.19-1.66q12.25-2.16 16.67-2.3 18.17-.55 25.5.03 2.29.19 9.75 2.45m9.36 14.58q-.18.09-.22.3-.06.29.22.21.27-.06.25-.37-.02-.25-.25-.14m-43.45 35.09a.37.37 0 0 0 0 .56q.65.54 1.45-.18a.34.34 0 0 0-.1-.57q-.76-.31-1.35.19"/><path fill="#d7ece0" d="m166.33 78.45 1.19 1.66q.38.52-.23.74-1.82.65-1.25 3.26a1.18 1.17 3.7 0 0 .75.85q1.11.39 1.99 1.1a.39.39 0 0 1 .03.58l-2.83 2.88q-.29.29-.66.1l-.44-.22q-.66-.34-.87.37-.38 1.27-1.47 2.08-.48.35-.21.87l.84 1.63q.27.54.7.12.21-.21.5-.19.54.03.53.57-.04 1.39.38 2.69.14.45.6.57l.65.17a.18.18 0 0 1 .12.22l-1.28 3.9q-.19.59.43.59l2.25.01q.71 0 .84.69.15.83.04 1.66a.45.45 0 0 0 .71.43q1.26-.89 2.16-2.29.31-.48.07-1-.43-.94-1.43-1.42-.66-.32-.08-.75.3-.22.66-.31a1.25 1.21-84.3 0 0 .84-.71q.34-.76.31-1.66-.02-.8.55-.24.36.35.3.9-.08.7.57.44c2.68-1.09 2.49-2.22 3.77-4.44q.35-.62.55.07c.74 2.58.24 5.92.15 8.6q-.02.58.48.85.43.23.93.2.56-.05 1.03.23t.55.84q.07.49.47.78.46.33 1 .14a.71.71 0 0 0 .46-.78q-.1-.58-.02-1.16.23-1.61 1-.18l.94 1.72a.53.53 0 0 0 .86.1q.36-.4.36-.96a.5.49-75.7 0 1 .72-.43q.84.43.81 1.3-.02.5-.46.73l-1.49.77q-.44.23-.57.71-.49 1.89.36 3.32.33.55-.3.47-.21-.02-.32-.18-.23-.35-.6-.16l-3.42 1.77a1.41 1.39 86.8 0 0-.69.78q-.62 1.72-1.07 3.48-.36 1.4 1.03 1.81 1.33.4.57 1.56l-.21.3q-.29.45-.01.91 1.09 1.77-.82 2.87-.69.4-.34 1.13.18.37.56.52.88.34.67 1.25-.3 1.32.45 2.6.67 1.16.98-.15.17-.75.82-1.08.38-.19.73.03 1.88 1.19 1.1 2.86-.3.64.05 1.25.55.95-.11 1.7-.46.53.17.84 2.18 1.05.77 4.08l-1.46-.98q-2.04-3.2-3.57-2.1-8.47-4.88-11.99-12.93-1.76-4.02-3.06-11.07.02-.36-.08-.68l-.18-.83-.04-.67q-.92-4.94-2.06-9.83c-3.19-13.76-11.1-9.34-19.82-4.72q-6.62 3.5-15.8 5-11.12 1.82-19.63 2.69-1.17.12-.85-1.02 1.86-6.63 3.93-12.55c1.55-4.45 6.65-6.66 10.88-8.46q3.04-1.3 7.66-1.61 5.94-.4 11.87-.88l4.39-.01 4.85.03 4.92-.05zM218.25 78.63l2.72 1.07-.09 2.91q-.01.3-.31.31-.13.01-.26-.07-.13-.09-.14-.25-.11-1.39-1.47-1.78-.56-.16-.64-.74-.1-.69.19-1.45"/><path d="m145.69 79.14-4.39.01zM155.46 79.12l-4.92.05z"/><path fill="#d7ece0" d="M223.2 80.71q1.1.23 1.75.86-.88.61-1.61-.15-.38-.39-.14-.71M231.6 85.45l-2.08 1.31q-.51.33-.24.87l1.3 2.52q.3.59-.34.78-.98.29-1.84.98-.6.48-1.09-.11-.09-.1-.09-.24.01-.31.21-.55.17-.19.27-.42a.72.71 24.6 0 0-.34-.9q-.51-.26-.79-.76a.91.9-46 0 1-.01-.85q.8-1.62-.07-2.98-.25-.41-.1-.86.13-.38.42-.66.37-.35.03-.74l-.3-.36zM227.61 93.21q.23-.11.25.14.02.31-.25.37-.28.08-.22-.21.04-.21.22-.3"/><path d="m282.42 104.19-1.92-.07z"/><path fill="#d7ece0" d="m280.5 104.12 1.92.07q6.11 1.67 12.13 3.55 3.47 1.08 6.48 3.01c-.92 2.22-2.67 7.19-.97 8.98q.43.44.31 1.04l-.49 2.53q-.14.67-.73.32-1.21-.7-2.71-.86a.33.33 0 0 1-.23-.52l.25-.33q.49-.68-.32-.83l-.35-.06q-.82-.15-.41-.88l.22-.4a.58.57 17.3 0 0-.45-.85l-.34-.03q-.43-.04-.5-.46-.03-.21.15-.35.4-.3.13-.72-.19-.27-.54-.29-.56-.03-.75-.56l-.38-1.02q-.21-.58-.7-.21l-.54.41q-.58.44-.29 1.11.68 1.58-1.74 2.97-.71.41-.66-.41.03-.5-.24-.85-.69-.88-.73.24-.05 1.21-1.11 1.23-.74.01-.45.69.74 1.71.12 3.16l-2.1.12q-.58-1.56-1.75-2.79-.5-.53-.06-1.11l.45-.59q.36-.47.36-1.05-.01-2.46.14-4.89c.08-1.45-.53-2.46-.75-3.85q-.15-.98-.77-.21-1.27 1.59-3.03 1.63-.58.01-.86-.51l-.6-1.15q-.31-.58-.97-.51-.99.1-1.83.61-.78.47-.42 1.3.52 1.2.63 2.52.07.77-.6.4l-1.1-.6a.94.94 0 0 0-1.15.19q-.55.6-1.18 1.09-1.12.89-.48-.39l1.2-2.42q.23-.46.08-.96-.27-.91-1.12-1.48-.5-.33-.21-.85.71-1.25 2.1-2.32 3.95-.22 7.94-1.86"/><path d="M165.16 111.2q-.09-.33-.04-.67zM286.58 123.8q.62-1.45-.12-3.16-.29-.68.45-.69 1.06-.02 1.11-1.23.04-1.12.73-.24.27.35.24.85-.05.82.66.41 2.42-1.39 1.74-2.97-.29-.67.29-1.11l.54-.41q.49-.37.7.21l.38 1.02q.19.53.75.56.35.02.54.29.27.42-.13.72-.18.14-.15.35.07.42.5.46l.34.03a.58.57 17.3 0 1 .45.85l-.22.4q-.41.73.41.88l.35.06q.81.15.32.83l-.25.33a.33.33 0 0 0 .23.52q1.5.16 2.71.86.59.35.73-.32l.49-2.53q.12-.6-.31-1.04c-1.7-1.79.05-6.76.97-8.98q2.75 1.03 2.79 2.99.13 6.73-1.32 13.18a1.21 1.21 0 0 1-1.81.77c-4.54-2.78-8.14-4.73-14.11-3.89M165.42 112.71q-.12-.31-.08-.68.1.32.08.68"/><path fill="#d7ece0" d="M184.16 128.3q.59-.5 1.35-.19a.34.34 0 0 1 .1.57q-.8.72-1.45.18a.37.37 0 0 1 0-.56"/><path d="M184.04 138.81q-2.16-.65-3.57-2.1 1.53-1.1 3.57 2.1"/></svg>