<svg xmlns="http://www.w3.org/2000/svg" viewBox="0 0 382 382"><g fill="none" stroke="#0c5a0b" stroke-width="2"><path d="M222.7 80.29q-.78 1.73-.53 3.23.03.2.24.21.29 0 .33-.29.19-1.5 1.54-2.27M269.48 105.47l-.95 2.57q-.16.44.01.86l.62 1.53q.29.72.85.18.69-.67.85-1.65.09-.54.59-.77l1.8-.83q.6-.27.71.37.25 1.46 1.7 2.07.39.17.77-.02.77-.37 1.29-1.11.96-1.36 1.22.28.07.42-.15.77-.3.46-.2 1 .74 4.03.23 7.89-.05.41-.34.72-.5.55.23.62.79.09 1.52-.05 1.09-.2.15-.8-.18-.11-.2-.34-.03-.53.46-.72l1.52-.62a.95.95 0 0 1 .98.16q.56.47 1.26.33.67-.14.55-.82-.05-.28.05-.54.27-.72.7-.09l1.98 2.87q.36.52.31 1.15-.12 1.86.74 3.1M169.27 125.52l3.79-2.08q.51-.28 1 .04.55.35.92.85.4.55.74-.04.89-1.6 2.07-2.92.17-.19.18-.46.01-.24-.17-.42-.34-.37-.61.05-.48.75-1.8-.87a1.72 1.69 28.1 0 1-.38-1.2q.17-2.63-1.28-4.31-.38-.43-.23-.99l.64-2.48a.82.82 0 0 1 .56-.57q1.72-.52 1.22-2.52-.14-.6-.6-.18-.49.45-1.16.6a.85.85 0 0 1-.94-.46l-.57-1.15a.58.55 82.4 0 0-.37-.3q-1.98-.5-.85-2.16.77-1.12-.54-.76-2.14.59-3.51 2.02-.5.51-.19 1.16l.52 1.09a1.59 1.58.5 0 1-2.14 2.1l-.67-.34M158.59 92.13q1.01.02 1.51-1.35.18-.51.7-.36 1.25.36 2.61-.56.42-.28.31-.78l-1.29-5.67q-.06-.29.23-.27.24.01.44-.1.35-.19.47-.57l1.19-3.75M297 108.66q-.2 1.4 1.28 1.38.13 0 .26.06.17.09.2.25.06.37-.31.46-1.26.29-2.11 1.24-.42.46.03.89.96.91.19 1.91a.82.81 54.2 0 0-.12.77l.54 1.6a.61.61 0 0 1-.84.75q-1.1-.51-2.26-.97-.68-.27-1.32-.08-.57.17-.31.7l.42.86a.61.61 0 0 1-.3.82l-1.82.85q-.49.23-.52.76-.05.73.49 1.27.39.38.01.77-.39.38-1.27.58" vector-effect="non-scaling-stroke"/></g><path d="M222.7 80.29q-.78 1.73-.53 3.23.03.2.24.21.29 0 .33-.29.19-1.5 1.54-2.27 9.52 4.95 17.24 12.48c3.59 3.5 7.25 6.51 11.52 8.87 5.16 2.86 10.67 2.46 16.44 2.95l-.95 2.57q-.16.44.01.86l.62 1.53q.29.72.85.18.69-.67.85-1.65.09-.54.59-.77l1.8-.83q.6-.27.71.37.25 1.46 1.7 2.07.39.17.77-.02.77-.37 1.29-1.11.96-1.36 1.22.28.07.42-.15.77-.3.46-.2 1 .74 4.03.23 7.89-.05.41-.34.72-.5.55.23.62.79.09 1.52-.05 1.09-.2.15-.8-.18-.11-.2-.34-.03-.53.46-.72l1.52-.62a.95.95 0 0 1 .98.16q.56.47 1.26.33.67-.14.55-.82-.05-.28.05-.54.27-.72.7-.09l1.98 2.87q.36.52.31 1.15-.12 1.86.74 3.1-6.44.69-12.97 1.38-2.75.28-5.47.86-2.89.61-5.85.43-6.06-.37-11.82-.96a1.47 1.46 5.5 0 0-1.6 1.31q-.09 1-.61 1.85c-3.31 5.45-7.49 7.71-12.94 10.41q-8.57 4.25-16.42 4.81-6.68.47-15 .28-2.02-.05-3.74-.59c-1.71-.54-3.45-.37-5.2-.65q-3.17-.5-6.34-1.19c-8-1.72-17.26-8.57-21.5-16l3.79-2.08q.51-.28 1 .04.55.35.92.85.4.55.74-.04.89-1.6 2.07-2.92.17-.19.18-.46.01-.24-.17-.42-.34-.37-.61.05-.48.75-1.8-.87a1.72 1.69 28.1 0 1-.38-1.2q.17-2.63-1.28-4.31-.38-.43-.23-.99l.64-2.48a.82.82 0 0 1 .56-.57q1.72-.52 1.22-2.52-.14-.6-.6-.18-.49.45-1.16.6a.85.85 0 0 1-.94-.46l-.57-1.15a.58.55 82.4 0 0-.37-.3q-1.98-.5-.85-2.16.77-1.12-.54-.76-2.14.59-3.51 2.02-.5.51-.19 1.16l.52 1.09a1.59 1.58.5 0 1-2.14 2.1l-.67-.34q-1.46-7.87-3.21-12.92-.65-1.88-3.1-4.17 1.01.02 1.51-1.35.18-.51.7-.36 1.25.36 2.61-.56.42-.28.31-.78l-1.29-5.67q-.06-.29.23-.27.24.01.44-.1.35-.19.47-.57l1.19-3.75q13.79-2.53 18.84-2.63 18.63-.36 24.02.03 6.13.44 15.08 4.17"/><path fill="#17b415" d="m164.76 78.72-1.19 3.75q-.12.38-.47.57-.2.11-.44.1-.29-.02-.23.27l1.29 5.67q.11.5-.31.78-1.36.92-2.61.56-.52-.15-.7.36-.5 1.37-1.51 1.35-5.27-1.8-11.22 1.73-8.38 4.98-17.53 6.67-10.62 1.96-22.16 3.16a.75.74 5.3 0 1-.79-.95q1.84-6.29 3.73-12.03c1.75-5.32 7.1-7.24 11.75-9.35q2.81-1.27 5.81-1.33c5.65-.12 11.06-.97 16.98-.89q9.75.12 19.6-.42M222.7 80.29l1.58.88q-1.35.77-1.54 2.27-.04.29-.33.29-.21-.01-.24-.21-.25-1.5.53-3.23M169.27 125.52q-3.42-7.78-4.37-16.3l.67.34a1.59 1.58.5 0 0 2.14-2.1l-.52-1.09q-.31-.65.19-1.16 1.37-1.43 3.51-2.02 1.31-.36.54.76-1.13 1.66.85 2.16a.58.55 82.4 0 1 .37.3l.57 1.15a.85.85 0 0 0 .94.46q.67-.15 1.16-.6.46-.42.6.18.5 2-1.22 2.52a.82.82 0 0 0-.56.57l-.64 2.48q-.15.56.23.99 1.45 1.68 1.28 4.31a1.72 1.69 28.1 0 0 .38 1.2q1.32 1.62 1.8.87.27-.42.61-.05.18.18.17.42-.01.27-.18.46-1.18 1.32-2.07 2.92-.34.59-.74.04-.37-.5-.92-.85-.49-.32-1-.04zM297 108.66q-.2 1.4 1.28 1.38.13 0 .26.06.17.09.2.25.06.37-.31.46-1.26.29-2.11 1.24-.42.46.03.89.96.91.19 1.91a.82.81 54.2 0 0-.12.77l.54 1.6a.61.61 0 0 1-.84.75q-1.1-.51-2.26-.97-.68-.27-1.32-.08-.57.17-.31.7l.42.86a.61.61 0 0 1-.3.82l-1.82.85q-.49.23-.52.76-.05.73.49 1.27.39.38.01.77-.39.38-1.27.58l-.51.05q-.86-1.24-.74-3.1.05-.63-.31-1.15l-1.98-2.87q-.43-.63-.7.09-.1.26-.05.54.12.68-.55.82-.7.14-1.26-.33a.95.95 0 0 0-.98-.16l-1.52.62q-.49.19-.46.72.02.23.2.34.94.6-.15.8-.73.14-1.52.05-.73-.07-.23-.62.29-.31.34-.72.51-3.86-.23-7.89-.1-.54.2-1 .22-.35.15-.77-.26-1.64-1.22-.28-.52.74-1.29 1.11-.38.19-.77.02-1.45-.61-1.7-2.07-.11-.64-.71-.37l-1.8.83q-.5.23-.59.77-.16.98-.85 1.65-.56.54-.85-.18l-.62-1.53q-.17-.42-.01-.86l.95-2.57q5.18 1.21 9.96-1.04c.66-.3 1.52-.49 2.28-.3q5.38 1.35 10 2.59 2.75.74 5.28 1.94"/><path d="M289.24 123.53q.88-.2 1.27-.58.38-.39-.01-.77-.54-.54-.49-1.27.03-.53.52-.76l1.82-.85a.61.61 0 0 0 .3-.82l-.42-.86q-.26-.53.31-.7.64-.19 1.32.08 1.16.46 2.26.97a.61.61 0 0 0 .84-.75l-.54-1.6a.82.81 54.2 0 1 .12-.77q.77-1-.19-1.91-.45-.43-.03-.89.85-.95 2.11-1.24.37-.09.31-.46-.03-.16-.2-.25-.13-.06-.26-.06-1.48.02-1.28-1.38c1.76.69 6.75 2.63 6.82 5.44q.14 6.21-1.31 12.79a1.23 1.23 0 0 1-1.83.79c-3.8-2.26-6.78-4.06-11.44-4.15"/></svg>