<svg xmlns="http://www.w3.org/2000/svg" viewBox="0 0 382 382"><defs><clipPath id="a"><path d="M203.44 143.33c-3.19-.43-6.39-.81-9.57-1.31-1.61-.25-3.21-.63-4.78-1.09-4.55-1.34-8.42-3.91-12.14-6.77-3.1-2.38-5.58-5.35-7.52-8.67-1.19-2.04-1.62-4.52-2.48-6.77-.98-2.58-1.17-5.29-1.66-7.97-.81-4.49-1.66-9.02-3.04-13.36-1.2-3.78-4.08-7.25-9.09-5.97-2.21.57-4.26 1.31-6.23 2.47-5.28 3.13-10.95 5.4-16.99 6.5-5.82 1.06-11.7 1.86-17.56 2.69-1.73.25-3.5.21-5.51.32.34-1.19.6-2.15.89-3.1.97-3.12 2.02-6.22 2.93-9.36.93-3.2 3.25-5.22 5.95-6.7 2.75-1.5 5.74-2.57 8.62-3.82 5.98-.41 11.95-.86 17.93-1.21 1.37-.08 2.77.22 4.15.2 3.88-.04 7.75-.12 11.63-.24 1.99-.06 3.99-.25 5.98-.41.8-.06 1.59-.22 2.38-.33h-.03l4.94-.75h-.03c.75-.16 1.5-.38 2.26-.46 2.53-.28 5.06-.56 7.6-.76 2.68-.21 5.37-.45 8.06-.46 5.45-.02 10.91.04 16.36.22 1.89.06 3.77.52 5.64.91 1.71.35 3.39.86 5.09 1.29h-.02c.75.25 1.49.49 2.24.74h-.02c.25.09.51.17.76.26h-.02c.25.09.5.18.76.27h-.02c.17.08.35.16.52.24h-.02c.17.08.35.16.52.25h-.02c.58.26 1.15.51 1.73.77h-.02c.17.08.34.17.51.25h-.02c.17.09.34.17.51.26h-.02c.42.24.84.48 1.26.73h-.02c.17.08.34.16.51.25h-.02c.26.15.51.31.77.48h-.02c.41.25.83.5 1.24.75h-.02c.17.09.33.18.5.27h-.02c.42.24.83.49 1.25.73H230c.25.16.5.32.76.49h-.02c.41.24.83.49 1.24.74h-.02c.25.16.5.33.75.5h-.02c.09.07.19.15.28.23h-.02c.16.09.32.19.48.28h-.02c.09.07.18.15.28.23h-.02c.09.07.18.15.27.23h-.02c.25.16.5.33.74.5h-.02q.135.105.27.24h-.02c.33.24.66.5.99.75.09.07.18.16.27.24.33.24.66.49.99.74.09.08.17.17.26.25s.17.16.26.25c.09.08.17.16.26.25.09.08.17.16.26.25.09.08.17.16.26.25.09.08.17.16.26.25.09.07.17.16.26.24.09.07.18.16.26.24.09.08.17.16.26.25.09.08.18.16.26.25l-.02-.02c.66.58 1.31 1.17 1.97 1.75.09.07.18.16.26.24.09.08.17.16.26.25.09.07.17.16.26.24q.135.105.27.24h-.02c.33.33.66.66.99 1V96c.07.09.16.18.24.27.09.08.17.16.26.25.09.07.18.16.27.24h-.02c.25.16.5.33.75.5h-.02c.09.08.18.17.27.25s.17.17.26.25l-.02-.02c.09.08.18.17.27.25l-.03-.02c.25.17.5.35.75.52h-.02l.75.51c.25.17.5.33.76.5.33.25.66.5 1 .75.09.08.18.17.27.25h-.02c.25.16.49.33.74.51h-.02c.42.25.83.49 1.25.74h-.02c.17.09.33.18.5.27h-.02c.25.15.51.32.76.48h-.02c.17.08.34.16.51.25h-.02c.17.08.34.17.51.25h-.02c.42.17.83.34 1.25.51h-.02c.17.08.34.17.52.25h-.02c.17.09.34.17.51.26h-.02c.17.09.34.17.51.26h-.02c1.42.25 2.83.6 4.26.74 3.08.29 6.17.48 9.25.69 1.79.12 3.61.46 5.35.22 1.78-.25 3.49-1.08 5.23-1.66l1.26-.24h-.02c.41.16.82.36 1.24.47 3.34.92 6.7 1.74 10.01 2.75 3.37 1.02 6.58 2.45 9.52 4.44.78.52 1.19 1.13 1.15 2.12-.07 2 .08 4.02-.08 6.01-.18 2.19-.55 4.37-.96 6.53-.27 1.41-.98 1.66-2.2.96-.88-.51-1.72-1.11-2.61-1.61-3.02-1.68-6.19-2.72-9.72-2.26-3.03.39-6.08.73-9.12 1.06-1.58.17-3.2.11-4.75.43-3.44.73-6.86 1.53-10.42 1.23l-4.69-.48h.02c-1.6-.16-3.2-.36-4.8-.48-.78-.06-1.57 0-2.35 0h.02c-1.06.29-.86 1.22-1 1.97v-.03c-.24.5-.49 1-.73 1.51v-.02c-.09.17-.18.33-.28.5v-.02c-.07.09-.16.18-.24.27l-.25.25v-.02c-.16.25-.33.5-.5.75v-.02c-.07.09-.15.18-.23.28v-.02c-.16.25-.33.5-.49.75v-.02c-.17.25-.35.5-.52.74v-.02c-.08.09-.16.18-.25.26s-.17.16-.26.25c-.09.08-.17.16-.26.25-.09.08-.17.16-.26.25-.09.08-.18.16-.26.25h.02c-.33.24-.66.5-.99.75h.02q-.135.105-.27.24h.02c-.25.16-.5.33-.75.5h.02c-.25.16-.5.32-.76.49h.02c-.17.08-.33.18-.5.27h.03l-.78.48h.02c-.17.08-.34.17-.5.25h.02c-.17.09-.34.17-.51.26h.02c-.17.08-.34.17-.51.25h.02c-.17.08-.34.16-.52.25h.02l-.51.24h.02c-.17.09-.34.17-.5.26h.02c-.17.09-.34.17-.51.26h.02c-.66.33-1.33.66-1.99.99h.02l-.51.25h.02c-.17.08-.34.17-.51.25h.02c-.17.07-.34.16-.52.24h.02c-.17.08-.34.17-.52.25h.02c-.42.17-.83.34-1.25.51h.02c-.42.16-.84.33-1.26.49h.02l-.75.27h.02c-.18.08-.35.15-.53.23h.02c-.25.09-.5.18-.76.27h.02l-.8.24c-5.39 1.94-11.06 1.84-16.66 2.19-.39-.07-.78-.21-1.17-.21-2.81-.02-5.63-.02-8.44-.02l.05-.43Z"/></clipPath></defs><g clip-path="url(#a)"><svg xmlns="http://www.w3.org/2000/svg" width="382" height="382" style="shape-rendering:geometricPrecision"><path fill="#e8fadf" stroke="#e8fadf" d="m123.703 180.11-36.515-2.39-.533-22.044 32.711-29.072 8.213 5.72 3.114 41.631z"/><path fill="#31c26d" stroke="#31c26d" d="m298.567 239.63 7.324-51.143 23.138-7.945L382 185.5v64.995l-24.021 11.62z"/><path fill="#e8fadf" stroke="#e8fadf" d="m200.079 226.014-52.362 35.072 3.555-32.42 33.718-28.07z"/><path fill="#e8fadf" stroke="#e8fadf" d="m200.079 226.014 14.956 7.011-11.58 37.243-32.05 3.031-16.694-3.824-7.662-5.159.668-3.23zM225.766 218.606l-5.394-52.239 11.494-9.495 16.693 4.415 37.589 22.277-23.56 31.969z"/><path fill="#e8fadf" stroke="#e8fadf" d="m200.079 226.014-15.089-25.418 18.48-29.22 16.902-5.009 5.394 52.24-.281 4.838-10.45 9.58z"/><path fill="#31c26d" stroke="#31c26d" d="m149.988 126.694-24.395-35.93 45.06 22.122-13.39 16.607z"/><path fill="#e8fadf" stroke="#e8fadf" d="m253.505 302.07 38.793 36.344-4.355 5.284-43.32-8.92-7.295-26.273zM0 0h35.189l-9.973 46.08L9.111 58.432 0 57.549zM239.81 31.403 240.393 0h19.338l5.375 25.356-23.348 7.205zM232.68 354.534l11.943-19.756 43.32 8.92-3.032 35.02z"/><path fill="#31c26d" stroke="#31c26d" d="m147.717 261.086-.668 3.23-21.209 5.082-37.685-15.169-9.846-63.266 1.114-7.075 7.765-6.168 36.515 2.39 27.569 48.556zM61.238 113.872l-21.348-6.498-.326-9.834 28.29-42.224 4.069-2.279 31.355 21.952zM382 177.276 352.054 93.94 382 89.18z"/><path fill="#e8fadf" stroke="#e8fadf" d="M216.605 275.795 244.9 259.71l13.299 8.317-2.525 32.509-2.169 1.535-16.177 6.434-3.694-2.147z"/><path fill="#31c26d" stroke="#31c26d" d="M116.796 98.19 75.08 126.97l-13.84-13.098 42.039-38.883 9.632 1.874 6.96 6.58 1.068 1.71.083.883z"/><path fill="#e8fadf" stroke="#e8fadf" d="m107.628 314.476 1.78 35.392-12.272 16.625-41.921-38 18.826-17.803zM128.64 21.676 72.718 45.153 64.127 0h62.25l4.302 18.272z"/><path fill="#e8fadf" stroke="#e8fadf" d="m88.155 254.229 37.685 15.169-18.212 45.078-33.587-3.786-15.667-40.146 5.772-6.946z"/><path fill="#31c26d" stroke="#31c26d" d="m382 89.18-29.946 4.76-9.673-6.294 17.35-37.807L382 27.744zM204.708 87.974l-5.753-12.27 2.33-32.502 38.526-11.8 1.946 1.159 20.988 35.33z"/><path fill="#e8fadf" stroke="#e8fadf" d="m308.714 0-5.813 18.76-37.796 6.596L259.73 0zM312.979 113.321l18.673-24.805 10.73-.87 9.672 6.294L382 177.276v8.225l-52.971-4.96zM285.481 382l-.57-3.282 3.032-35.02 4.355-5.284 15.9-14.05L378.705 382zM0 131.364l12.327-.172 28.06 41.679L0 211.2z"/><path fill="#31c26d" stroke="#31c26d" d="m225.873 223.724 30.706 5.109 1.758 12.446-11.6 11.696zM0 334.668 24.72 382H0z"/><path fill="#e8fadf" stroke="#e8fadf" d="m74.04 310.69-18.825 17.802-26.025-4.136 26.568-52.146 2.616-1.666z"/><path fill="#31c26d" stroke="#31c26d" d="M67.854 55.316 39.564 97.54 9.11 58.432 25.216 46.08zM382 0v27.744l-22.27 22.095-56.211-13.623-.618-17.455L308.714 0z"/><path fill="#e8fadf" stroke="#e8fadf" d="m123.994 348.494 68.61 26.34 3.709 7.166H93.498l3.638-15.507 12.271-16.625z"/><path fill="#e8fadf" stroke="#e8fadf" d="m55.215 328.492 41.92 38.001L93.499 382H56.133l-32.97-54.99 6.027-2.654zM255.674 300.536l2.525-32.509 34.062 1.568 7.553 19.881zM78.31 190.963l-38.006 28.66L0 212.495v-1.294l40.387-38.33 39.036 11.017z"/><path fill="#31c26d" stroke="#31c26d" d="m258.337 241.28 36.28 5.14-2.356 23.175-34.062-1.568-13.3-8.317 1.839-6.735zM79.423 183.888 40.387 172.87l-28.06-41.679 27.563-23.818 21.348 6.498L75.08 126.97l5.367 10.886 6.21 17.821.532 22.044z"/><path fill="#e8fadf" stroke="#e8fadf" d="m116.86 113.55 2.506 13.054-32.71 29.072-6.21-17.821zM119.87 83.443l-6.96-6.58 15.73-55.187 2.04-3.404 23.86 14.012-.957 20.745z"/><path fill="#e8fadf" stroke="#e8fadf" d="m127.579 132.323-8.213-5.719-2.506-13.055-.064-15.359 4.225-12.154 4.572 4.728 24.395 35.93z"/><path fill="#31c26d" stroke="#31c26d" d="m192.885 0-1.403 30.817-36.941 1.467-23.862-14.012L126.376 0zM204.485 99.024l.223-11.05 58.037-20.082 6.793 2.813 1.162 18.932-41.7 51.507zM0 269.689l55.758 2.521-26.568 52.146-6.028 2.654L0 328.507zM170.653 112.886l-45.06-22.122-4.572-4.728-.083-.883 27.369-1.89 24.965 27.682z"/><path fill="#e8fadf" stroke="#e8fadf" d="m171.404 273.299 32.05-3.031 13.15 5.527 17.03 30.563-36.018 21.663zM201.286 43.202l-9.804-12.385L192.885 0h47.507l-.581 31.403zM203.47 171.377l-40.18-12.338-6.026-29.546 13.389-16.607 2.62-1.94 31.212-11.922 24.516 42.12 2.865 15.728-11.494 9.495z"/><path fill="#e8fadf" stroke="#e8fadf" d="m163.29 159.039-32.597 14.916-3.114-41.632 22.41-5.629 7.275 2.799z"/><path fill="#31c26d" stroke="#31c26d" d="m116.86 113.55-36.414 24.305-5.367-10.886 41.717-28.779z"/><path fill="#e8fadf" stroke="#e8fadf" d="m286.148 183.564-37.589-22.277 45.97-49.092 18.45 1.126 16.05 67.22-23.138 7.946z"/><path fill="#31c26d" stroke="#31c26d" d="m58.374 270.544-2.616 1.666L0 269.69v-33.984l46.69 10.936 17.456 16.957z"/><path fill="#e8fadf" stroke="#e8fadf" d="M262.745 67.892 241.757 32.56l23.348-7.205L302.9 18.76l.618 17.455-4.283 18.81-29.698 15.679zM173.272 110.945l-24.965-27.683 22.97-10.064 27.678 2.505 5.753 12.27-.223 11.05z"/><path fill="#e8fadf" stroke="#e8fadf" d="M171.277 73.198 153.583 53.03l.958-20.745 36.941-1.467 9.804 12.385-2.33 32.501zM197.726 382l34.955-27.466 52.23 24.184.57 3.282zM255.674 300.536l44.14-11.06 12.004 11.17-3.62 23.719-15.9 14.05-38.793-36.344zM225.485 223.445l.28-4.839 36.823-3.073-6.01 13.3-30.705-5.109z"/><path fill="#e8fadf" stroke="#e8fadf" d="m120.938 85.153-1.067-1.71 33.712-30.414 17.694 20.17-22.97 10.063zM294.53 112.195 270.7 89.637l-1.162-18.932 29.698-15.68 32.416 33.491-18.673 24.805z"/><path fill="#31c26d" stroke="#31c26d" d="M382 382h-3.295l-70.507-57.635 3.62-23.718 10.385-4.05L382 326.475z"/><path fill="#e8fadf" stroke="#e8fadf" d="m203.47 171.377-18.48 29.219-33.718 28.07-27.569-48.555 6.99-6.156 32.596-14.916z"/><path fill="#31c26d" stroke="#31c26d" d="m0 212.495 40.304 7.128 6.387 27.018L0 235.705zM171.404 273.299l26.212 54.722-8.434 25.386-31.227-29.538-3.244-54.394zM231.866 156.872 229 141.144l41.7-51.507 23.828 22.558-45.97 49.092zM382 326.475l-59.797-29.878 35.776-34.481L382 250.496z"/><path fill="#e8fadf" stroke="#e8fadf" d="m154.711 269.475 3.244 54.394-33.96 24.625-14.588 1.374-1.78-35.392 18.213-45.078 21.209-5.082z"/><path fill="#e8fadf" stroke="#e8fadf" d="m189.182 353.407 3.422 21.428-68.61-26.341 33.96-24.625zM67.854 55.316 25.216 46.08 35.189 0h28.937l8.591 45.153-.794 7.884z"/><path fill="#e8fadf" stroke="#e8fadf" d="m233.634 306.358 3.694 2.147 7.295 26.273-11.942 19.756L197.726 382h-1.413l-3.71-7.165-3.421-21.428 8.434-25.386z"/><path fill="#31c26d" stroke="#31c26d" d="m294.617 246.42 3.95-6.79 59.412 22.486-35.776 34.48-10.385 4.05-12.004-11.17-7.553-19.881z"/><path fill="#31c26d" stroke="#31c26d" d="m262.588 215.533 23.56-31.97 19.743 4.924-7.324 51.143-3.95 6.79-36.28-5.14-1.758-12.447zM78.31 190.963l9.845 63.266-24.009 9.37-17.455-16.958-6.387-27.018z"/><path fill="#e8fadf" stroke="#e8fadf" d="M103.278 74.99 71.923 53.036l.794-7.884 55.924-23.477-15.731 55.187z"/><path fill="#31c26d" stroke="#31c26d" d="m299.236 55.026 4.283-18.81L359.73 49.84l-17.349 37.807-10.729.87z"/><path fill="#e8fadf" stroke="#e8fadf" d="m215.035 233.025 10.45-9.58.388.28 20.865 29.25-1.838 6.735-28.295 16.085-13.15-5.527zM0 328.507l23.162-1.497L56.133 382H24.72L0 334.668zM0 57.549l9.111.883L39.564 97.54l.326 9.834-27.563 23.818L0 131.364z"/></svg></g></svg>