<svg xmlns="http://www.w3.org/2000/svg" viewBox="0 0 382 382"><defs><clipPath id="a"><path d="M203.44 143.33c-3.19-.43-6.39-.81-9.57-1.31-1.61-.25-3.21-.63-4.78-1.09-4.55-1.34-8.42-3.91-12.14-6.77-3.1-2.38-5.58-5.35-7.52-8.67-1.19-2.04-1.62-4.52-2.48-6.77-.98-2.58-1.17-5.29-1.66-7.97-.81-4.49-1.66-9.02-3.04-13.36-1.2-3.78-4.08-7.25-9.09-5.97-2.21.57-4.26 1.31-6.23 2.47-5.28 3.13-10.95 5.4-16.99 6.5-5.82 1.06-11.7 1.86-17.56 2.69-1.73.25-3.5.21-5.51.32.34-1.19.6-2.15.89-3.1.97-3.12 2.02-6.22 2.93-9.36.93-3.2 3.25-5.22 5.95-6.7 2.75-1.5 5.74-2.57 8.62-3.82 5.98-.41 11.95-.86 17.93-1.21 1.37-.08 2.77.22 4.15.2 3.88-.04 7.75-.12 11.63-.24 1.99-.06 3.99-.25 5.98-.41.8-.06 1.59-.22 2.38-.33h-.03l4.94-.75h-.03c.75-.16 1.5-.38 2.26-.46 2.53-.28 5.06-.56 7.6-.76 2.68-.21 5.37-.45 8.06-.46 5.45-.02 10.91.04 16.36.22 1.89.06 3.77.52 5.64.91 1.71.35 3.39.86 5.09 1.29h-.02c.75.25 1.49.49 2.24.74h-.02c.25.09.51.17.76.26h-.02c.25.09.5.18.76.27h-.02c.17.08.35.16.52.24h-.02c.17.08.35.16.52.25h-.02c.58.26 1.15.51 1.73.77h-.02c.17.08.34.17.51.25h-.02c.17.09.34.17.51.26h-.02c.42.24.84.48 1.26.73h-.02c.17.08.34.16.51.25h-.02c.26.15.51.31.77.48h-.02c.41.25.83.5 1.24.75h-.02c.17.09.33.18.5.27h-.02c.42.24.83.49 1.25.73H230c.25.16.5.32.76.49h-.02c.41.24.83.49 1.24.74h-.02c.25.16.5.33.75.5h-.02c.09.07.19.15.28.23h-.02c.16.09.32.19.48.28h-.02c.09.07.18.15.28.23h-.02c.09.07.18.15.27.23h-.02c.25.16.5.33.74.5h-.02q.135.105.27.24h-.02c.33.24.66.5.99.75.09.07.18.16.27.24.33.24.66.49.99.74.09.08.17.17.26.25s.17.16.26.25c.09.08.17.16.26.25.09.08.17.16.26.25.09.08.17.16.26.25.09.08.17.16.26.25.09.07.17.16.26.24.09.07.18.16.26.24.09.08.17.16.26.25.09.08.18.16.26.25l-.02-.02c.66.58 1.31 1.17 1.97 1.75.09.07.18.16.26.24.09.08.17.16.26.25.09.07.17.16.26.24q.135.105.27.24h-.02c.33.33.66.66.99 1V96c.07.09.16.18.24.27.09.08.17.16.26.25.09.07.18.16.27.24h-.02c.25.16.5.33.75.5h-.02c.09.08.18.17.27.25s.17.17.26.25l-.02-.02c.09.08.18.17.27.25l-.03-.02c.25.17.5.35.75.52h-.02l.75.51c.25.17.5.33.76.5.33.25.66.5 1 .75.09.08.18.17.27.25h-.02c.25.16.49.33.74.51h-.02c.42.25.83.49 1.25.74h-.02c.17.09.33.18.5.27h-.02c.25.15.51.32.76.48h-.02c.17.08.34.16.51.25h-.02c.17.08.34.17.51.25h-.02c.42.17.83.34 1.25.51h-.02c.17.08.34.17.52.25h-.02c.17.09.34.17.51.26h-.02c.17.09.34.17.51.26h-.02c1.42.25 2.83.6 4.26.74 3.08.29 6.17.48 9.25.69 1.79.12 3.61.46 5.35.22 1.78-.25 3.49-1.08 5.23-1.66l1.26-.24h-.02c.41.16.82.36 1.24.47 3.34.92 6.7 1.74 10.01 2.75 3.37 1.02 6.58 2.45 9.52 4.44.78.52 1.19 1.13 1.15 2.12-.07 2 .08 4.02-.08 6.01-.18 2.19-.55 4.37-.96 6.53-.27 1.41-.98 1.66-2.2.96-.88-.51-1.72-1.11-2.61-1.61-3.02-1.68-6.19-2.72-9.72-2.26-3.03.39-6.08.73-9.12 1.06-1.58.17-3.2.11-4.75.43-3.44.73-6.86 1.53-10.42 1.23l-4.69-.48h.02c-1.6-.16-3.2-.36-4.8-.48-.78-.06-1.57 0-2.35 0h.02c-1.06.29-.86 1.22-1 1.97v-.03c-.24.5-.49 1-.73 1.51v-.02c-.09.17-.18.33-.28.5v-.02c-.07.09-.16.18-.24.27l-.25.25v-.02c-.16.25-.33.5-.5.75v-.02c-.07.09-.15.18-.23.28v-.02c-.16.25-.33.5-.49.75v-.02c-.17.25-.35.5-.52.74v-.02c-.08.09-.16.18-.25.26s-.17.16-.26.25c-.09.08-.17.16-.26.25-.09.08-.17.16-.26.25-.09.08-.18.16-.26.25h.02c-.33.24-.66.5-.99.75h.02q-.135.105-.27.24h.02c-.25.16-.5.33-.75.5h.02c-.25.16-.5.32-.76.49h.02c-.17.08-.33.18-.5.27h.03l-.78.48h.02c-.17.08-.34.17-.5.25h.02c-.17.09-.34.17-.51.26h.02c-.17.08-.34.17-.51.25h.02c-.17.08-.34.16-.52.25h.02l-.51.24h.02c-.17.09-.34.17-.5.26h.02c-.17.09-.34.17-.51.26h.02c-.66.33-1.33.66-1.99.99h.02l-.51.25h.02c-.17.08-.34.17-.51.25h.02c-.17.07-.34.16-.52.24h.02c-.17.08-.34.17-.52.25h.02c-.42.17-.83.34-1.25.51h.02c-.42.16-.84.33-1.26.49h.02l-.75.27h.02c-.18.08-.35.15-.53.23h.02c-.25.09-.5.18-.76.27h.02l-.8.24c-5.39 1.94-11.06 1.84-16.66 2.19-.39-.07-.78-.21-1.17-.21-2.81-.02-5.63-.02-8.44-.02l.05-.43Z"/></clipPath></defs><g clip-path="url(#a)"><svg xmlns="http://www.w3.org/2000/svg" width="382" height="382" style="shape-rendering:geometricPrecision"><path fill="#e11c95" stroke="#e11c95" d="m169.646 253.79 27.61 30.32-47.33-5.684-4.933-13.436zM0 0h58.409l-4.94 49.074-2.407.81L0 15.924z"/><path fill="#e11c95" stroke="#e11c95" d="m0 15.924 51.062 33.96-33.684 16.703L0 71.758zM240.92 167.982l-40.793-20.647 13.631-12.968 39.268-22.777 23.452 14.323 13.424 24.62.127 2.544-9.326 16.444zM382 156.779l-24.662-1.519-7.797-4.706-1.426-29.617 33.885-8.11z"/><path fill="#2aba27" stroke="#2aba27" d="m148.878 317.41 59.65-15.64-14.659 62.298-46.51-17.936zM77.167 306.269l-5.125 15.166-33.888 22.335-21.294-37.197 17.77-37.47 25.63 6.285z"/><path fill="#e11c95" stroke="#e11c95" d="M129.13 126.776 85.24 86.088 79.28 69.502l40.78-29.951 56.389 34.63-17.537 47.129z"/><path fill="#2aba27" stroke="#2aba27" d="m315.786 109.081-24.64-39.875 9.515-9.777 12.646-2.381 23.927 5.292 16.217 13.79-13.58 25.571z"/><path fill="#e11c95" stroke="#e11c95" d="m149.925 278.426-6.475 33.097-46.184-11.663 29.604-45.578 18.123 10.708z"/><path fill="#2aba27" stroke="#2aba27" d="m339.87 101.701 13.581-25.57L382 74.683v38.143l-33.885 8.11zM276.478 125.913l7.614-49.51 6.038-6.81 1.017-.387 24.64 39.875-25.885 41.452zM253.026 111.59l-7.763-23.412 38.829-11.775-7.614 49.51z"/><path fill="#e11c95" stroke="#e11c95" d="m382 269.383-58.384-20.151 33.722-93.972L382 156.78z"/><path fill="#2aba27" stroke="#2aba27" d="m213.758 134.367 24.038-50.298 7.467 4.11 7.763 23.411z"/><path fill="#e11c95" stroke="#e11c95" d="m192.574 56.833-34.756-41.835L160.351 0h61.337l-24.72 54.8z"/><path fill="#2aba27" stroke="#2aba27" d="m289.902 150.533 25.884-41.452 24.085-7.38 8.244 19.236 1.426 29.617-59.512 2.523z"/><path fill="#e11c95" stroke="#e11c95" d="m222.254 218 18.666-50.018 39.783 1.539 25.73 77.695-50.543 32.185-1.468-.217L228.46 246.5z"/><path fill="#2aba27" stroke="#2aba27" d="m125.092 382 13.361-32.72 8.727-2.985.775 35.705zM0 124.877V71.758l17.378-5.171 27.177 47.021z"/><path fill="#e11c95" stroke="#e11c95" d="m86.574 210.787-26.314 64.6-25.63-6.285-13.475-6.907L0 247.008V233.28l84.428-34.637zM300.66 59.429 275.287 0h50.988l-12.967 57.048z"/><path fill="#2aba27" stroke="#2aba27" d="M180.153 188.968 166.89 210.18 86.4 189.296l-.117-1.01 2.106-6.14 40.74-55.37 29.782-5.466 28.163 24.947z"/><path fill="#e11c95" stroke="#e11c95" d="m337.234 62.34 13.049-41.205L382 32.012v42.672l-28.549 1.446z"/><path fill="#2aba27" stroke="#2aba27" d="M167.425 216.557 125.58 249.87l-39.006-39.083-2.146-12.145 1.973-9.346 80.489 20.883z"/><path fill="#e11c95" stroke="#e11c95" d="m138.732 0 2.377 16.612-17.988 6.461L119.762 0z"/><path fill="#2aba27" stroke="#2aba27" d="M126.87 254.282 97.266 299.86l-20.099 6.409-16.907-30.881 26.314-64.601 39.006 39.083z"/><path fill="#e11c95" stroke="#e11c95" d="m187.075 146.257-28.163-24.947 17.537-47.128 16.125-17.349 4.394-2.032 22.25 9.057 18.578 20.211-24.038 50.298-13.63 12.968z"/><path fill="#2aba27" stroke="#2aba27" d="m222.254 218-42.101-29.032 6.922-42.711 13.052 1.078 40.793 20.647zM313.307 57.048 326.274 0h12.633l11.376 21.135-13.05 41.205z"/><path fill="#e11c95" stroke="#e11c95" d="m382 32.012-31.717-10.877L338.907 0H382z"/><path fill="#2aba27" stroke="#2aba27" d="M37.327 174.855 0 188.579v-60.312l19.507 14.135z"/><path fill="#e11c95" stroke="#e11c95" d="m6.486 382 31.668-38.23 33.888-22.335 26.45 30.35.284 30.215z"/><path fill="#2aba27" stroke="#2aba27" d="m53.698 137.122-34.191 5.28L0 128.267v-3.39l44.555-11.269 6.964.853z"/><path fill="#e11c95" stroke="#e11c95" d="m265.101 0-7.514 51.329-38.37 12.529-22.249-9.057L221.688 0z"/><path fill="#2aba27" stroke="#2aba27" d="M138.453 349.28 125.093 382H98.775l-.284-30.215z"/><path fill="#e11c95" stroke="#e11c95" d="m160.351 0-2.533 14.998-16.709 1.614L138.732 0z"/><path fill="#2aba27" stroke="#2aba27" d="m0 247.008 21.155 15.187-13.99 39.427L0 301.32zM86.401 189.296l-1.973 9.346L0 233.28v-44.7l37.327-13.724 48.957 13.43z"/><path fill="#e11c95" stroke="#e11c95" d="m149.925 278.426 47.33 5.684 17.825 10.65-6.553 7.01-59.649 15.64-5.428-5.887zM222.254 218l6.206 28.501-52.834-17.062-8.201-12.882-.535-6.378 13.263-21.21z"/><path fill="#2aba27" stroke="#2aba27" d="m129.13 126.776-40.74 55.37-34.692-45.024-2.18-22.66 33.72-28.374zM260.029 382l12.04-40.1 43.12 4.296L338.231 382z"/><path fill="#2aba27" stroke="#2aba27" d="M382 382h-43.768l-23.044-35.804L382 296.942zM121.472 25.624 64.062 0h55.7l3.36 23.073zM0 382v-80.68l7.166.302 9.694 4.951 21.294 37.197L6.486 382z"/><path fill="#e11c95" stroke="#e11c95" d="m228.46 246.501 25.962 32.683-39.342 15.576-17.825-10.65-27.61-30.32 5.98-24.35zM237.796 84.07l-18.579-20.212 38.37-12.53 32.543 18.266-6.038 6.81-38.83 11.774z"/><path fill="#2aba27" stroke="#2aba27" d="m147.955 382-.775-35.705.178-.163 46.511 17.936L202.312 382z"/><path fill="#e11c95" stroke="#e11c95" d="m254.422 279.184 1.468.217 16.18 62.5L260.028 382h-57.717l-8.443-17.932 14.658-62.298 6.553-7.01z"/><path fill="#2aba27" stroke="#2aba27" d="m51.519 114.461-6.964-.853-27.177-47.021 33.684-16.703 2.408-.81 25.81 20.428 5.959 16.586z"/><path fill="#e11c95" stroke="#e11c95" d="m306.432 247.216 17.184 2.016L382 269.383v27.559l-66.812 49.254-43.119-4.296-16.179-62.499zM290.13 69.594l-32.543-18.265L265.101 0h10.185l25.375 59.429-9.514 9.777zM175.626 229.44l-5.98 24.35-24.653 11.2-18.123-10.708-1.29-4.412 41.845-33.313zM53.698 137.122l34.692 45.024-2.106 6.14-48.957-13.431-17.82-32.453z"/><path fill="#2aba27" stroke="#2aba27" d="m306.432 247.216-25.729-77.695 9.326-16.444 59.512-2.523 7.797 4.706-33.722 93.972zM176.449 74.182 120.06 39.55l1.412-13.927 1.65-2.55 17.987-6.462 16.71-1.614 34.755 41.835z"/><path fill="#2aba27" stroke="#2aba27" d="M79.28 69.502 53.47 49.074 58.409 0h5.654l57.409 25.624-1.412 13.927zM34.63 269.102l-17.77 37.471-9.694-4.951 13.989-39.427zM148.878 317.41l-1.52 28.722-.178.163-8.727 2.984-39.96 2.506-26.45-30.35 5.124-15.166 20.099-6.409 46.184 11.663z"/></svg></g></svg>