<svg xmlns="http://www.w3.org/2000/svg" viewBox="0 0 382 382"><defs><clipPath id="a"><path d="M203.44 143.33c-3.19-.43-6.39-.81-9.57-1.31-1.61-.25-3.21-.63-4.78-1.09-4.55-1.34-8.42-3.91-12.14-6.77-3.1-2.38-5.58-5.35-7.52-8.67-1.19-2.04-1.62-4.52-2.48-6.77-.98-2.58-1.17-5.29-1.66-7.97-.81-4.49-1.66-9.02-3.04-13.36-1.2-3.78-4.08-7.25-9.09-5.97-2.21.57-4.26 1.31-6.23 2.47-5.28 3.13-10.95 5.4-16.99 6.5-5.82 1.06-11.7 1.86-17.56 2.69-1.73.25-3.5.21-5.51.32.34-1.19.6-2.15.89-3.1.97-3.12 2.02-6.22 2.93-9.36.93-3.2 3.25-5.22 5.95-6.7 2.75-1.5 5.74-2.57 8.62-3.82 5.98-.41 11.95-.86 17.93-1.21 1.37-.08 2.77.22 4.15.2 3.88-.04 7.75-.12 11.63-.24 1.99-.06 3.99-.25 5.98-.41.8-.06 1.59-.22 2.38-.33h-.03l4.94-.75h-.03c.75-.16 1.5-.38 2.26-.46 2.53-.28 5.06-.56 7.6-.76 2.68-.21 5.37-.45 8.06-.46 5.45-.02 10.91.04 16.36.22 1.89.06 3.77.52 5.64.91 1.71.35 3.39.86 5.09 1.29h-.02c.75.25 1.49.49 2.24.74h-.02c.25.09.51.17.76.26h-.02c.25.09.5.18.76.27h-.02c.17.08.35.16.52.24h-.02c.17.08.35.16.52.25h-.02c.58.26 1.15.51 1.73.77h-.02c.17.08.34.17.51.25h-.02c.17.09.34.17.51.26h-.02c.42.24.84.48 1.26.73h-.02c.17.08.34.16.51.25h-.02c.26.15.51.31.77.48h-.02c.41.25.83.5 1.24.75h-.02c.17.09.33.18.5.27h-.02c.42.24.83.49 1.25.73H230c.25.16.5.32.76.49h-.02c.41.24.83.49 1.24.74h-.02c.25.16.5.33.75.5h-.02c.09.07.19.15.28.23h-.02c.16.09.32.19.48.28h-.02c.09.07.18.15.28.23h-.02c.09.07.18.15.27.23h-.02c.25.16.5.33.74.5h-.02q.135.105.27.24h-.02c.33.24.66.5.99.75.09.07.18.16.27.24.33.24.66.49.99.74.09.08.17.17.26.25s.17.16.26.25c.09.08.17.16.26.25.09.08.17.16.26.25.09.08.17.16.26.25.09.08.17.16.26.25.09.07.17.16.26.24.09.07.18.16.26.24.09.08.17.16.26.25.09.08.18.16.26.25l-.02-.02c.66.58 1.31 1.17 1.97 1.75.09.07.18.16.26.24.09.08.17.16.26.25.09.07.17.16.26.24q.135.105.27.24h-.02c.33.33.66.66.99 1V96c.07.09.16.18.24.27.09.08.17.16.26.25.09.07.18.16.27.24h-.02c.25.16.5.33.75.5h-.02c.09.08.18.17.27.25s.17.17.26.25l-.02-.02c.09.08.18.17.27.25l-.03-.02c.25.17.5.35.75.52h-.02l.75.51c.25.17.5.33.76.5.33.25.66.5 1 .75.09.08.18.17.27.25h-.02c.25.16.49.33.74.51h-.02c.42.25.83.49 1.25.74h-.02c.17.09.33.18.5.27h-.02c.25.15.51.32.76.48h-.02c.17.08.34.16.51.25h-.02c.17.08.34.17.51.25h-.02c.42.17.83.34 1.25.51h-.02c.17.08.34.17.52.25h-.02c.17.09.34.17.51.26h-.02c.17.09.34.17.51.26h-.02c1.42.25 2.83.6 4.26.74 3.08.29 6.17.48 9.25.69 1.79.12 3.61.46 5.35.22 1.78-.25 3.49-1.08 5.23-1.66l1.26-.24h-.02c.41.16.82.36 1.24.47 3.34.92 6.7 1.74 10.01 2.75 3.37 1.02 6.58 2.45 9.52 4.44.78.52 1.19 1.13 1.15 2.12-.07 2 .08 4.02-.08 6.01-.18 2.19-.55 4.37-.96 6.53-.27 1.41-.98 1.66-2.2.96-.88-.51-1.72-1.11-2.61-1.61-3.02-1.68-6.19-2.72-9.72-2.26-3.03.39-6.08.73-9.12 1.06-1.58.17-3.2.11-4.75.43-3.44.73-6.86 1.53-10.42 1.23l-4.69-.48h.02c-1.6-.16-3.2-.36-4.8-.48-.78-.06-1.57 0-2.35 0h.02c-1.06.29-.86 1.22-1 1.97v-.03c-.24.5-.49 1-.73 1.51v-.02c-.09.17-.18.33-.28.5v-.02c-.07.09-.16.18-.24.27l-.25.25v-.02c-.16.25-.33.5-.5.75v-.02c-.07.09-.15.18-.23.28v-.02c-.16.25-.33.5-.49.75v-.02c-.17.25-.35.5-.52.74v-.02c-.08.09-.16.18-.25.26s-.17.16-.26.25c-.09.08-.17.16-.26.25-.09.08-.17.16-.26.25-.09.08-.18.16-.26.25h.02c-.33.24-.66.5-.99.75h.02q-.135.105-.27.24h.02c-.25.16-.5.33-.75.5h.02c-.25.16-.5.32-.76.49h.02c-.17.08-.33.18-.5.27h.03l-.78.48h.02c-.17.08-.34.17-.5.25h.02c-.17.09-.34.17-.51.26h.02c-.17.08-.34.17-.51.25h.02c-.17.08-.34.16-.52.25h.02l-.51.24h.02c-.17.09-.34.17-.5.26h.02c-.17.09-.34.17-.51.26h.02c-.66.33-1.33.66-1.99.99h.02l-.51.25h.02c-.17.08-.34.17-.51.25h.02c-.17.07-.34.16-.52.24h.02c-.17.08-.34.17-.52.25h.02c-.42.17-.83.34-1.25.51h.02c-.42.16-.84.33-1.26.49h.02l-.75.27h.02c-.18.08-.35.15-.53.23h.02c-.25.09-.5.18-.76.27h.02l-.8.24c-5.39 1.94-11.06 1.84-16.66 2.19-.39-.07-.78-.21-1.17-.21-2.81-.02-5.63-.02-8.44-.02l.05-.43Z"/></clipPath></defs><g clip-path="url(#a)"><svg xmlns="http://www.w3.org/2000/svg" width="382" height="382" style="shape-rendering:geometricPrecision"><path fill="#884b32" stroke="#884b32" d="m244.89 382 14.769-15.668 20.818-.644 2.334 2.755-.305 13.557zM0 255.19l11.538-.21 36.664 63.484L0 344.4z"/><path fill="#22a301" stroke="#22a301" d="M181.59 118.997 142.556 50.87l.937-8.423L194.8 86.26l-5.97 26.234z"/><path fill="#884b32" stroke="#884b32" d="m194.8 86.26-51.307-43.813-1.068-13.993L145.465 0h25.813l43.785 62.282zM257.163 347.042l1.28 2.233 1.216 17.057L244.89 382h-56.957l53.565-43.733z"/><path fill="#22a301" stroke="#22a301" d="m208.596 186.432 15.371-7.965 4.978 8.675-.956 22.074zM215.063 62.282 171.278 0h14.238l73.9 40.075-37.3 24.167zM266.593 185.081l43.133-21.69 19.007 41.444-7.963 19.846-1.049 1-54.97-10.8zM79.276 0l-2.261 82.068-2.27 5.124-6.447 9.913L0 87.702V0zM355.923 382 382 321.767V382z"/><path fill="#884b32" stroke="#884b32" d="m319.721 225.68 1.049-.999L382 248.947v62.846l-50.957-1.736-10.336-23.236-2.22-53.21z"/><path fill="#22a301" stroke="#22a301" d="m235.435 108.444-46.606 4.05 5.97-26.234 20.264-23.978 7.053 1.96 17.051 26.57z"/><path fill="#884b32" stroke="#884b32" d="m181.358 279.062 4.008 30.38-20.249-.355-22.188-4.764-1.358-11.033 3.408-18.108z"/><path fill="#22a301" stroke="#22a301" d="m81.173 270.757-.167 3.42-25.764 46.743-7.04-2.456-36.664-63.483 28.03-18.26 25.185 4.34 13.502 17.08z"/><path fill="#884b32" stroke="#884b32" d="m112.727 241.405-18.33 16.7-16.142.037-13.502-17.082 21.626-15.279zM244.3 232.045l20.451-17.164 54.97 10.8-1.233 7.93-55.77 28.901-23.713-3.225z"/><path fill="#22a301" stroke="#22a301" d="m166.233 129.264-61.581 19.312-6.501-9.725-6.45-19.781 34.995-16.878zM107.981 197.76 86.38 225.781l-21.626 15.28-25.185-4.34 1.7-57.355 66.233 6.686z"/><path fill="#884b32" stroke="#884b32" d="m166.233 129.264-39.537-27.072 7.365-31.352 8.495-19.97 39.034 68.127-6.905 12.845z"/><path fill="#22a301" stroke="#22a301" d="M134.06 70.84 74.745 87.192l2.27-5.124 65.41-53.614 1.07 13.993-.938 8.423zM108.452 301.525l8.726 3.674 5.947 43.295-40.889-11.79 17.057-36.507z"/><path fill="#884b32" stroke="#884b32" d="m228.945 187.142-4.978-8.675 3.071-23.577 16.789-6.55 19.679 33.542z"/><path fill="#22a301" stroke="#22a301" d="m142.929 304.323-14.1 46.747-5.704-2.576-5.947-43.295 3.545-6.149 20.848-5.76z"/><path fill="#884b32" stroke="#884b32" d="m81.173 270.757 33.417 9.03-3.584 6.935-11.388 8.936-18.612-21.48z"/><path fill="#22a301" stroke="#22a301" d="m315.127 382-1.302-14.827 8.608-21.152L347.806 382z"/><path fill="#884b32" stroke="#884b32" d="m142.929 304.323 22.188 4.764-30.745 48.096-5.543-6.113z"/><path fill="#22a301" stroke="#22a301" d="m185.366 309.441 7.927 15.062L183.53 382h-28.276l-20.883-24.817 30.745-48.096zM228.945 187.142l34.56-5.26 3.088 3.2-1.842 29.8-20.45 17.163-14.866-14.402-1.446-8.427zM208.596 186.432l19.393 22.784 1.446 8.427-52.163-12.334-.025-.609 5.891-17.171z"/><path fill="#884b32" stroke="#884b32" d="m111.416 178.93-3.915 7.122-66.234-6.686-.573-1.096L98.15 138.85l6.5 9.725zM258.443 349.275l24.455-.54-2.42 16.953-20.82.644z"/><path fill="#884b32" stroke="#884b32" d="m177.272 205.309-6.877 14.458-25.85 11.498-36.564-33.505-.48-11.708 3.915-7.123 17.12-2.462 48.711 28.233zM382 0v34.811l-64.592 23.05-31.913-3.171-10.475-17.056L281.428 0zM331.043 310.057 382 311.793v9.974L355.923 382h-8.117l-25.373-35.98 6.06-33.835zM0 382v-37.6l48.202-25.936 7.04 2.456 18.522 16.214L56.373 382zM235.435 108.444l3.732-17.631 40.251-15.509 15.153 48.263-42.899 9.37z"/><path fill="#884b32" stroke="#884b32" d="m56.373 382 17.39-44.866 8.473-.43 40.89 11.79 5.703 2.576 5.543 6.113L155.255 382z"/><path fill="#22a301" stroke="#22a301" d="m145.465 0-3.04 28.454-65.41 53.614L79.276 0zM294.571 123.567l-15.153-48.263 6.077-20.614 31.913 3.17 9.476 70.57-11.625 4.95zM257.163 347.042l29.022-30.58 14.724 1.987-18.011 30.287-24.455.539zM134.06 70.84l-7.364 31.352-34.995 16.878-4.542-2.716-18.861-19.25 6.446-9.912z"/><path fill="#884b32" stroke="#884b32" d="m136.277 264.414.03.117-21.717 15.257-33.417-9.03-2.918-12.616 16.143-.037zM281.428 0l-6.408 37.634-15.604 2.44L185.516 0zM111.006 286.722l6.062 9.413-8.616 5.39-9.159-1.328.325-4.539zM183.138 187.529l-5.89 17.171-48.711-28.233 48.396-35.833 5.363 7.044z"/><path fill="#22a301" stroke="#22a301" d="m208.596 186.432-25.458 1.097-.842-39.85 44.742 7.21-3.07 23.578zM87.16 116.354 33.28 169.53 0 145.648V87.702l68.298 9.403zM382 121.37l-55.116 7.06-9.476-70.57L382 34.811z"/><path fill="#884b32" stroke="#884b32" d="m112.727 241.405 24.874 6.982-1.324 16.027-41.88-6.309z"/><path fill="#22a301" stroke="#22a301" d="m382 187.5-53.267 17.335-19.007-41.443 5.533-30.012 11.625-4.95L382 121.37z"/><path fill="#884b32" stroke="#884b32" d="m239.167 90.813-17.051-26.57 37.3-24.168 15.604-2.441 10.475 17.056-6.077 20.614z"/><path fill="#22a301" stroke="#22a301" d="m242.17 295.937 5.405 6.62-6.077 35.71L187.933 382h-4.402l9.762-57.497zM227.038 154.89l-44.742-7.212-5.363-7.044-2.248-8.792 6.905-12.845 7.239-6.503 46.606-4.05 16.237 24.492-7.845 15.405z"/><path fill="#884b32" stroke="#884b32" d="m181.358 279.062 18.252-17.398 38.303-.98 4.257 35.253-48.877 28.566-7.927-15.062zM263.506 181.882l-19.68-33.541 7.846-15.405 42.9-9.369 20.687 9.813-5.533 30.012-43.133 21.69zM81.006 274.178l18.612 21.48-.325 4.54-17.057 36.506-8.472.43-18.522-16.214zM262.718 262.512l55.77-28.901 2.219 53.21zM107.981 197.76l36.564 33.505-6.944 17.122-24.874-6.982-26.348-15.624z"/><path fill="#884b32" stroke="#884b32" d="m262.718 262.512 57.989 24.309 10.336 23.236-2.55 2.128-27.584 6.264-14.724-1.988-38.61-13.904-5.405-6.62-4.257-35.254 1.092-1.396z"/><path fill="#22a301" stroke="#22a301" d="m257.163 347.042-15.665-8.775 6.077-35.71 38.61 13.904zM300.909 318.449l27.584-6.264-6.06 33.836-8.608 21.152-31.014 1.27-2.334-2.755 2.42-16.952zM144.979 275.182l-3.408 18.108-20.848 5.76-3.655-2.915-6.062-9.413 3.584-6.934 21.718-15.257z"/><path fill="#884b32" stroke="#884b32" d="m170.395 219.767 29.215 41.897-18.252 17.398-36.379-3.88-8.671-10.651-.03-.117 1.323-16.027 6.944-17.122z"/><path fill="#22a301" stroke="#22a301" d="m120.723 299.05-3.545 6.149-8.726-3.674 8.616-5.39zM282.506 382l.305-13.557 31.014-1.27L315.127 382z"/><path fill="#884b32" stroke="#884b32" d="m382 248.947-61.23-24.266 7.963-19.846L382 187.5zM98.15 138.851 40.695 178.27l-7.414-8.741 53.88-53.175 4.54 2.716z"/><path fill="#22a301" stroke="#22a301" d="m0 145.648 33.28 23.881 7.414 8.74.573 1.097-1.7 57.355-28.029 18.26L0 255.189z"/><path fill="#884b32" stroke="#884b32" d="m177.272 205.309 52.163 12.334 14.866 14.402-5.296 27.242-1.092 1.396-38.303.981-29.215-41.897zM176.933 140.634l-48.396 35.833-17.121 2.462-6.764-30.353 61.581-19.312 8.452 2.578z"/></svg></g></svg>