<svg xmlns="http://www.w3.org/2000/svg" viewBox="0 0 382 382"><g fill="none" stroke-width="2"><path stroke="#6f054e" d="M222.38 80.14c-.11 2.97-1.85 4.67-2.91 7.23q-.16.41.15.71 1.2 1.17 1.8 2.77a.24.24 0 0 0 .43.03l1.41-2.39q.31-.53.92-.53l4.31.06a.58.58 0 0 1 .57.65q-.17 1.39.24 2.77.46 1.56 1.85.99.42-.17.82.04.16.08.31.14.9.32.29-.42-2.32-2.83-.24-6.19M270.5 105.66q-.69.93-1.77 1.57-.46.27-.21.75 1.31 2.47-.8 3.44-.5.23.03.35 1.56.36 1.24 2.13a.92.92 0 0 0 1.24 1.02q.87-.34 1.41-1.25.39-.67-.02-1.31-.23-.37-.31-.8a1.08 1.08 0 0 1 1.49-1.17q1.97.85 3.54 2.35.48.46 1.07.15.77-.41 1.39-1.15 1.34-1.63 1.12.47-.06.56-.46 1.01-.46.51-.16 1.14c.44.92.65 1.71.41 2.74q-.73 3.09-1.09 6.37-.04.39.25.65.33.29.9.5M174.46 132.21l.75-2.46q.15-.52.7-.53 1.27-.03 1.18-1.46-.05-.86.61-.32.4.33.27.89a.3.3 0 0 0 .44.32l.24-.13q.29-.17.63-.17l5.22.11q.46.01.8.31l1.81 1.62q.6.54.36-.23-1.21-3.73.45-7.22a.82.81 38.5 0 0-.1-.86q-.87-1.07-1.92-1.67-.64-.37-1.09.22-.64.83-.91 1.84a.57.57 0 0 1-1 .2q-1.28-1.66-1.43-3.62-.14-1.73-.76-3.39-.25-.65-.94-.68l-.96-.04q-.56-.02-.39-.55l1.29-4.11q.03-.1-.05-.16-.13-.09-.21-.22-.25-.39.09-.71 1.12-1.05 1.66-2.52.15-.39.51-.6l1.01-.57a.66.66 0 0 0 .16-1.02q-.45-.5-1.12-.47a.63.62-3.9 0 1-.65-.56l-.15-1.44q-.16-1.44-.89-.18-.94 1.64-1.18 3.45a.76.75-75.8 0 1-1.01.61q-1.19-.43-2.38-.25a1.15 1.15 0 0 1-1.32-1.04l-.33-3.92a1.39 1.35-72.7 0 0-.47-.92l-.47-.41q-.66-.57-.86.28-.36 1.52.57 2.61.3.35-.12.51-2.12.83-3.94 3.22-.23.29-.15.66.44 2.08 1.96 2.61.45.16.26.6l-.6 1.46q-.25.61-.83.3-1.56-.84-2.88.18-.75.58-.68-.37.16-2.46-.76-2.29" vector-effect="non-scaling-stroke"/><path stroke="#6e054e" d="M161.24 95.18q.58-1.35 1.28-2.24c1-1.26 2.39-1.01 3.79-.97q.4.01.28-.37l-.92-2.98q-.11-.33-.43-.2l-.55.23a.45.45 0 0 1-.61-.32q-.43-2.02.69-3.37.29-.35.4-.79l1.45-5.68" vector-effect="non-scaling-stroke"/><path stroke="#6f054e" d="M294.64 107.74q1.74 2.99 3.01 1.2M302.44 111.46q-2.26 2.94-1.2 7.97a.35.35 0 0 0 .55.22q.29-.21.92-.04.87.22.74 1M302.98 123.02q-3.03-.03-5.98-2.01a.66.65-77.6 0 0-1.01.65q.4 2.47-1.69 2.67M291.27 123.66q-1.57-1.45-3.58-2.27-.54-.22-.68.35l-.09.43q-.15.61-.75.81-1.08.34-1.91-.27a.67.66 23.8 0 1-.26-.66q.03-.17-.01-.32-.16-.63-.77-.41-2.16.8-2.93 3.17" vector-effect="non-scaling-stroke"/><path stroke="#6e054e" d="M188.27 121.77a.33.32 33.5 0 0 .48-.09q.38-.66.09-1.27-.16-.33-.54-.36-.27-.02-.52.01-.82.07-.37.76.38.57.86.95" vector-effect="non-scaling-stroke"/></g><path d="M222.38 80.14c-.11 2.97-1.85 4.67-2.91 7.23q-.16.41.15.71 1.2 1.17 1.8 2.77a.24.24 0 0 0 .43.03l1.41-2.39q.31-.53.92-.53l4.31.06a.58.58 0 0 1 .57.65q-.17 1.39.24 2.77.46 1.56 1.85.99.42-.17.82.04.16.08.31.14.9.32.29-.42-2.32-2.83-.24-6.19 4.4 3.17 11.48 9.94 4.49 4.3 11.62 7.71 1.6.77 4.09 1.1c3.66.48 7.29.35 10.98.91q-.69.93-1.77 1.57-.46.27-.21.75 1.31 2.47-.8 3.44-.5.23.03.35 1.56.36 1.24 2.13a.92.92 0 0 0 1.24 1.02q.87-.34 1.41-1.25.39-.67-.02-1.31-.23-.37-.31-.8a1.08 1.08 0 0 1 1.49-1.17q1.97.85 3.54 2.35.48.46 1.07.15.77-.41 1.39-1.15 1.34-1.63 1.12.47-.06.56-.46 1.01-.46.51-.16 1.14c.44.92.65 1.71.41 2.74q-.73 3.09-1.09 6.37-.04.39.25.65.33.29.9.5c-2.87.23-5.61.33-8.4.99q-3.18.75-6.38.62-6.16-.24-12.32-.95a1.48 1.48 0 0 0-1.64 1.32q-.1 1.03-.65 1.93c-3.28 5.36-7.44 7.61-12.81 10.26q-8.69 4.29-16.07 4.86-6.93.52-15.19.29-1.57-.05-4.25-.59-2.03-.41-4.31-.59-13.32-1.07-23.29-10.55l.75-2.46q.15-.52.7-.53 1.27-.03 1.18-1.46-.05-.86.61-.32.4.33.27.89a.3.3 0 0 0 .44.32l.24-.13q.29-.17.63-.17l5.22.11q.46.01.8.31l1.81 1.62q.6.54.36-.23-1.21-3.73.45-7.22a.82.81 38.5 0 0-.1-.86q-.87-1.07-1.92-1.67-.64-.37-1.09.22-.64.83-.91 1.84a.57.57 0 0 1-1 .2q-1.28-1.66-1.43-3.62-.14-1.73-.76-3.39-.25-.65-.94-.68l-.96-.04q-.56-.02-.39-.55l1.29-4.11q.03-.1-.05-.16-.13-.09-.21-.22-.25-.39.09-.71 1.12-1.05 1.66-2.52.15-.39.51-.6l1.01-.57a.66.66 0 0 0 .16-1.02q-.45-.5-1.12-.47a.63.62-3.9 0 1-.65-.56l-.15-1.44q-.16-1.44-.89-.18-.94 1.64-1.18 3.45a.76.75-75.8 0 1-1.01.61q-1.19-.43-2.38-.25a1.15 1.15 0 0 1-1.32-1.04l-.33-3.92a1.39 1.35-72.7 0 0-.47-.92l-.47-.41q-.66-.57-.86.28-.36 1.52.57 2.61.3.35-.12.51-2.12.83-3.94 3.22-.23.29-.15.66.44 2.08 1.96 2.61.45.16.26.6l-.6 1.46q-.25.61-.83.3-1.56-.84-2.88.18-.75.58-.68-.37.16-2.46-.76-2.29l-3.64-13.94q.58-1.35 1.28-2.24c1-1.26 2.39-1.01 3.79-.97q.4.01.28-.37l-.92-2.98q-.11-.33-.43-.2l-.55.23a.45.45 0 0 1-.61-.32q-.43-2.02.69-3.37.29-.35.4-.79l1.45-5.68q11.65-2.33 17.63-2.43 17.86-.28 23.02.06 6.32.42 15.11 4.02m-34.11 41.63a.33.32 33.5 0 0 .48-.09q.38-.66.09-1.27-.16-.33-.54-.36-.27-.02-.52.01-.82.07-.37.76.38.57.86.95"/><path fill="#dc099b" d="m166.62 78.49-1.45 5.68q-.11.44-.4.79-1.12 1.35-.69 3.37a.45.45 0 0 0 .61.32l.55-.23q.32-.13.43.2l.92 2.98q.12.38-.28.37c-1.4-.04-2.79-.29-3.79.97q-.7.89-1.28 2.24c-3.47-5.57-9.26-4.05-13.9-1.31q-7.98 4.72-16.17 6.37-10.99 2.21-23.59 3.44a.69.69 0 0 1-.72-.89q1.89-6.28 3.9-12.48c1.57-4.85 7.36-7.05 11.82-9.02q2.76-1.22 5.61-1.26c5.54-.08 10.65-.98 16.39-.88q10.71.18 22.04-.66"/><path fill="#dd0a9c" d="M232.33 86q-2.08 3.36.24 6.19.61.74-.29.42-.15-.06-.31-.14-.4-.21-.82-.04-1.39.57-1.85-.99-.41-1.38-.24-2.77a.58.58 0 0 0-.57-.65l-4.31-.06q-.61 0-.92.53l-1.41 2.39a.24.24 0 0 1-.43-.03q-.6-1.6-1.8-2.77-.31-.3-.15-.71c1.06-2.56 2.8-4.26 2.91-7.23zM174.46 132.21c-6.35-6.1-8.57-14.38-9.58-23.09q.92-.17.76 2.29-.07.95.68.37 1.32-1.02 2.88-.18.58.31.83-.3l.6-1.46q.19-.44-.26-.6-1.52-.53-1.96-2.61-.08-.37.15-.66 1.82-2.39 3.94-3.22.42-.16.12-.51-.93-1.09-.57-2.61.2-.85.86-.28l.47.41a1.39 1.35-72.7 0 1 .47.92l.33 3.92a1.15 1.15 0 0 0 1.32 1.04q1.19-.18 2.38.25a.76.75-75.8 0 0 1.01-.61q.24-1.81 1.18-3.45.73-1.26.89.18l.15 1.44a.63.62-3.9 0 0 .65.56q.67-.03 1.12.47a.66.66 0 0 1-.16 1.02l-1.01.57q-.36.21-.51.6-.54 1.47-1.66 2.52-.34.32-.09.71.08.13.21.22.08.06.05.16l-1.29 4.11q-.17.53.39.55l.96.04q.69.03.94.68.62 1.66.76 3.39.15 1.96 1.43 3.62a.57.57 0 0 0 1-.2q.27-1.01.91-1.84.45-.59 1.09-.22 1.05.6 1.92 1.67a.82.81 38.5 0 1 .1.86q-1.66 3.49-.45 7.22.24.77-.36.23l-1.81-1.62q-.34-.3-.8-.31l-5.22-.11q-.34 0-.63.17l-.24.13a.3.3 0 0 1-.44-.32q.13-.56-.27-.89-.66-.54-.61.32.09 1.43-1.18 1.46-.55.01-.7.53zM294.64 107.74q1.74 2.99 3.01 1.2l4.79 2.52q-2.26 2.94-1.2 7.97a.35.35 0 0 0 .55.22q.29-.21.92-.04.87.22.74 1 .15.72-.47 2.41-3.03-.03-5.98-2.01a.66.65-77.6 0 0-1.01.65q.4 2.47-1.69 2.67l-3.03-.67q-1.57-1.45-3.58-2.27-.54-.22-.68.35l-.09.43q-.15.61-.75.81-1.08.34-1.91-.27a.67.66 23.8 0 1-.26-.66q.03-.17-.01-.32-.16-.63-.77-.41-2.16.8-2.93 3.17-.63-.02-.52.13-.57-.21-.9-.5-.29-.26-.25-.65.36-3.28 1.09-6.37c.24-1.03.03-1.82-.41-2.74q-.3-.63.16-1.14.4-.45.46-1.01.22-2.1-1.12-.47-.62.74-1.39 1.15-.59.31-1.07-.15-1.57-1.5-3.54-2.35a1.08 1.08 0 0 0-1.49 1.17q.08.43.31.8.41.64.02 1.31-.54.91-1.41 1.25a.92.92 0 0 1-1.24-1.02q.32-1.77-1.24-2.13-.53-.12-.03-.35 2.11-.97.8-3.44-.25-.48.21-.75 1.08-.64 1.77-1.57 4.67.79 9.19-1.3.58-.27 1.1-.24.6.04 1.14.16 6.58 1.45 12.71 3.46"/><path d="M297.65 108.94q-1.27 1.79-3.01-1.2zM303.45 120.61q.13-.78-.74-1-.63-.17-.92.04a.35.35 0 0 1-.55-.22q-1.06-5.03 1.2-7.97 2.37 2.69 1.01 9.15"/><path fill="#dc099b" d="M188.27 121.77q-.48-.38-.86-.95-.45-.69.37-.76.25-.03.52-.01.38.03.54.36.29.61-.09 1.27a.33.32 33.5 0 1-.48.09"/><path d="m302.98 123.02-.39 3.66a1.3 1.3 0 0 1-1.9 1.01l-6.39-3.36q2.09-.2 1.69-2.67a.66.65-77.6 0 1 1.01-.65q2.95 1.98 5.98 2.01M291.27 123.66l-10.98.83q.77-2.37 2.93-3.17.61-.22.77.41.04.15.01.32a.67.66 23.8 0 0 .26.66q.83.61 1.91.27.6-.2.75-.81l.09-.43q.14-.57.68-.35 2.01.82 3.58 2.27"/></svg>