<svg xmlns="http://www.w3.org/2000/svg" viewBox="0 0 382 382"><defs><clipPath id="a"><path d="M203.44 143.33c-3.19-.43-6.39-.81-9.57-1.31-1.61-.25-3.21-.63-4.78-1.09-4.55-1.34-8.42-3.91-12.14-6.77-3.1-2.38-5.58-5.35-7.52-8.67-1.19-2.04-1.62-4.52-2.48-6.77-.98-2.58-1.17-5.29-1.66-7.97-.81-4.49-1.66-9.02-3.04-13.36-1.2-3.78-4.08-7.25-9.09-5.97-2.21.57-4.26 1.31-6.23 2.47-5.28 3.13-10.95 5.4-16.99 6.5-5.82 1.06-11.7 1.86-17.56 2.69-1.73.25-3.5.21-5.51.32.34-1.19.6-2.15.89-3.1.97-3.12 2.02-6.22 2.93-9.36.93-3.2 3.25-5.22 5.95-6.7 2.75-1.5 5.74-2.57 8.62-3.82 5.98-.41 11.95-.86 17.93-1.21 1.37-.08 2.77.22 4.15.2 3.88-.04 7.75-.12 11.63-.24 1.99-.06 3.99-.25 5.98-.41.8-.06 1.59-.22 2.38-.33h-.03l4.94-.75h-.03c.75-.16 1.5-.38 2.26-.46 2.53-.28 5.06-.56 7.6-.76 2.68-.21 5.37-.45 8.06-.46 5.45-.02 10.91.04 16.36.22 1.89.06 3.77.52 5.64.91 1.71.35 3.39.86 5.09 1.29h-.02c.75.25 1.49.49 2.24.74h-.02c.25.09.51.17.76.26h-.02c.25.09.5.18.76.27h-.02c.17.08.35.16.52.24h-.02c.17.08.35.16.52.25h-.02c.58.26 1.15.51 1.73.77h-.02c.17.08.34.17.51.25h-.02c.17.09.34.17.51.26h-.02c.42.24.84.48 1.26.73h-.02c.17.08.34.16.51.25h-.02c.26.15.51.31.77.48h-.02c.41.25.83.5 1.24.75h-.02c.17.09.33.18.5.27h-.02c.42.24.83.49 1.25.73H230c.25.16.5.32.76.49h-.02c.41.24.83.49 1.24.74h-.02c.25.16.5.33.75.5h-.02c.09.07.19.15.28.23h-.02c.16.09.32.19.48.28h-.02c.09.07.18.15.28.23h-.02c.09.07.18.15.27.23h-.02c.25.16.5.33.74.5h-.02q.135.105.27.24h-.02c.33.24.66.5.99.75.09.07.18.16.27.24.33.24.66.49.99.74.09.08.17.17.26.25s.17.16.26.25c.09.08.17.16.26.25.09.08.17.16.26.25.09.08.17.16.26.25.09.08.17.16.26.25.09.07.17.16.26.24.09.07.18.16.26.24.09.08.17.16.26.25.09.08.18.16.26.25l-.02-.02c.66.58 1.31 1.17 1.97 1.75.09.07.18.16.26.24.09.08.17.16.26.25.09.07.17.16.26.24q.135.105.27.24h-.02c.33.33.66.66.99 1V96c.07.09.16.18.24.27.09.08.17.16.26.25.09.07.18.16.27.24h-.02c.25.16.5.33.75.5h-.02c.09.08.18.17.27.25s.17.17.26.25l-.02-.02c.09.08.18.17.27.25l-.03-.02c.25.17.5.35.75.52h-.02l.75.51c.25.17.5.33.76.5.33.25.66.5 1 .75.09.08.18.17.27.25h-.02c.25.16.49.33.74.51h-.02c.42.25.83.49 1.25.74h-.02c.17.09.33.18.5.27h-.02c.25.15.51.32.76.48h-.02c.17.08.34.16.51.25h-.02c.17.08.34.17.51.25h-.02c.42.17.83.34 1.25.51h-.02c.17.08.34.17.52.25h-.02c.17.09.34.17.51.26h-.02c.17.09.34.17.51.26h-.02c1.42.25 2.83.6 4.26.74 3.08.29 6.17.48 9.25.69 1.79.12 3.61.46 5.35.22 1.78-.25 3.49-1.08 5.23-1.66l1.26-.24h-.02c.41.16.82.36 1.24.47 3.34.92 6.7 1.74 10.01 2.75 3.37 1.02 6.58 2.45 9.52 4.44.78.52 1.19 1.13 1.15 2.12-.07 2 .08 4.02-.08 6.01-.18 2.19-.55 4.37-.96 6.53-.27 1.41-.98 1.66-2.2.96-.88-.51-1.72-1.11-2.61-1.61-3.02-1.68-6.19-2.72-9.72-2.26-3.03.39-6.08.73-9.12 1.06-1.58.17-3.2.11-4.75.43-3.44.73-6.86 1.53-10.42 1.23l-4.69-.48h.02c-1.6-.16-3.2-.36-4.8-.48-.78-.06-1.57 0-2.35 0h.02c-1.06.29-.86 1.22-1 1.97v-.03c-.24.5-.49 1-.73 1.51v-.02c-.09.17-.18.33-.28.5v-.02c-.07.09-.16.18-.24.27l-.25.25v-.02c-.16.25-.33.5-.5.75v-.02c-.07.09-.15.18-.23.28v-.02c-.16.25-.33.5-.49.75v-.02c-.17.25-.35.5-.52.74v-.02c-.08.09-.16.18-.25.26s-.17.16-.26.25c-.09.08-.17.16-.26.25-.09.08-.17.16-.26.25-.09.08-.18.16-.26.25h.02c-.33.24-.66.5-.99.75h.02q-.135.105-.27.24h.02c-.25.16-.5.33-.75.5h.02c-.25.16-.5.32-.76.49h.02c-.17.08-.33.18-.5.27h.03l-.78.48h.02c-.17.08-.34.17-.5.25h.02c-.17.09-.34.17-.51.26h.02c-.17.08-.34.17-.51.25h.02c-.17.08-.34.16-.52.25h.02l-.51.24h.02c-.17.09-.34.17-.5.26h.02c-.17.09-.34.17-.51.26h.02c-.66.33-1.33.66-1.99.99h.02l-.51.25h.02c-.17.08-.34.17-.51.25h.02c-.17.07-.34.16-.52.24h.02c-.17.08-.34.17-.52.25h.02c-.42.17-.83.34-1.25.51h.02c-.42.16-.84.33-1.26.49h.02l-.75.27h.02c-.18.08-.35.15-.53.23h.02c-.25.09-.5.18-.76.27h.02l-.8.24c-5.39 1.94-11.06 1.84-16.66 2.19-.39-.07-.78-.21-1.17-.21-2.81-.02-5.63-.02-8.44-.02l.05-.43Z"/></clipPath></defs><g clip-path="url(#a)"><svg xmlns="http://www.w3.org/2000/svg" width="382" height="382" style="shape-rendering:geometricPrecision"><path fill="#13fdf8" stroke="#13fdf8" d="m284.457 221.28 44.696-28.475 10.725 22.881-1.021 5.78-40.83 47.74-9.668-9.957z"/><path fill="#2d8eef" stroke="#2d8eef" d="m120.119 382 24.537-26.48L207.393 382z"/><path fill="#13fdf8" stroke="#13fdf8" d="m0 347.784 20.522 2.928 3.735 4.653 12 26.635H0zM177.954 186.837l11.728-1.688 33.914 36.322-6.32 30.39-32.957 25.603-5.65-21.751zM382 211.928l-42.122 3.758-10.725-22.88.228-2.786L382 173.823z"/><path fill="#2d8eef" stroke="#2d8eef" d="m279.45 91-32.428-5.003 22.058-35.745 39.962 9.339z"/><path fill="#13fdf8" stroke="#13fdf8" d="m143.468 310.874 1.188 44.647L120.12 382h-29.16l-5.224-44.683 2.334-20.491z"/><path fill="#2d8eef" stroke="#2d8eef" d="M0 0h95.222L51.585 96.134 0 88.464z"/><path fill="#13fdf8" stroke="#13fdf8" d="m177.954 186.837.715 68.876-40.372-59.094 2.959-13.766 28.628.868z"/><path fill="#2d8eef" stroke="#2d8eef" d="m337.086 382 14.2-31.292 4.125-2.226L367.4 382zM138.297 196.62l-29.15 44.921-11.032.457-31.798-56.734 1.653-3.682 70.4-.273 2.24.8.646.744zM193.898 0l-15.861 52.572-33.74-11.217L135.91 0z"/><path fill="#13fdf8" stroke="#13fdf8" d="m224.269 151.847-43.86-26.35-13.49-16.001 45.997-37.47 31.108 15.371.684 62.433z"/><path fill="#13fdf8" stroke="#13fdf8" d="m169.884 183.72-28.628-.867-.646-.744 13.897-73.374 12.413.76 13.489 16.002z"/><path fill="#2d8eef" stroke="#2d8eef" d="m279.45 91 29.592-31.41L382 42.884v39.03l-63.37 38.93z"/><path fill="#13fdf8" stroke="#13fdf8" d="m177.954 186.837-8.07-3.116 10.525-58.224 43.86 26.35-34.587 33.302zM154.507 108.735l-13.897 73.374-2.24-.8-54.139-75.598 46.87-9.152z"/><path fill="#2d8eef" stroke="#2d8eef" d="m85.45 255.26-1.944 6.761L10.91 277.89 0 270.45v-18.691l79.871 1.946zM382 42.883l-72.958 16.708-39.962-9.339L266.082 0H382z"/><path fill="#13fdf8" stroke="#13fdf8" d="m66.317 185.264 31.798 56.734L85.45 255.26l-5.579-1.556-63.884-42.913z"/><path fill="#2d8eef" stroke="#2d8eef" d="M382 382h-14.6l-11.989-33.518 3.104-6.55 23.485.705zM298.027 269.206l40.83-47.74 36.135 39.185-45.504 30.86-23.92-4.086zM382 307.604l-34.836 3.74-17.676-19.832 45.504-30.861 7.008-1.69zM189.682 185.15l34.587-33.303 20.44-2.017 14.726 11.652-1.058 24.093-34.781 35.896z"/><path fill="#13fdf8" stroke="#13fdf8" d="m109.148 241.541 66.33 40.61-32.01 28.723-55.399 5.952-8.759-9.084 4.196-45.72 1.944-6.762 12.665-13.262z"/><path fill="#2d8eef" stroke="#2d8eef" d="m0 88.463 51.585 7.671 12.485 9.283 3.9 76.165-1.653 3.682-50.33 25.527L0 215.785z"/><path fill="#13fdf8" stroke="#13fdf8" d="m138.297 196.62 40.372 59.093 5.65 21.75-1.843 3.25-6.997 1.438-66.331-40.61z"/><path fill="#2d8eef" stroke="#2d8eef" d="m244.708 149.83-.684-62.433 2.998-1.4L279.45 91l39.18 29.844-17.808 30.283-41.387 10.355zM212.727 71.383 218.655 0h47.427l2.998 50.252-22.058 35.745-2.998 1.4-31.108-15.37zM382 342.637l-23.485-.706-11.35-30.587 34.835-3.74zM217.275 251.861l71.084 7.388 9.668 9.957 7.54 18.22-55.94 79.659-67.151-86.371 1.843-3.25z"/><path fill="#13fdf8" stroke="#13fdf8" d="m382 145.392-63.853 24.83-17.325-19.095 17.808-30.283L382 81.914z"/><path fill="#2d8eef" stroke="#2d8eef" d="m42.14 307.154 37.17.588 8.76 9.084-2.335 20.491-61.478 18.048-3.735-4.653z"/><path fill="#13fdf8" stroke="#13fdf8" d="M339.878 215.686 382 211.928v47.033l-7.008 1.69-36.135-39.185zM83.506 262.021l-4.196 45.72-37.17-.587-31.23-29.265zM138.37 181.31l-70.4.272-3.9-76.165 20.161.294z"/><path fill="#2d8eef" stroke="#2d8eef" d="m284.457 221.28-26.08-35.705 1.058-24.093 41.387-10.355 17.325 19.096 11.234 19.797-.228 2.785zM0 215.785l15.987-4.994 63.884 42.913L0 251.758z"/><path fill="#13fdf8" stroke="#13fdf8" d="m382 173.823-52.62 16.197-11.233-19.797L382 145.393zM217.275 251.861l6.32-30.39 34.782-35.896 26.08 35.705 3.902 37.969zM248.737 382l1.144-7.527 101.404-23.765L337.086 382z"/><path fill="#2d8eef" stroke="#2d8eef" d="m305.567 287.425 23.92 4.087 17.677 19.832 11.351 30.587-3.104 6.551-4.126 2.226-101.404 23.765-.254-7.388zM90.96 382H36.257l-12-26.635 61.478-18.048zM154.507 108.735l-23.406-12.176 13.196-55.204 33.74 11.217 34.69 18.811.189.644-45.996 37.469zM182.476 280.714l67.15 86.371.255 7.388-1.144 7.527h-41.344l-62.737-26.48-1.188-44.646 32.01-28.723z"/><path fill="#2d8eef" stroke="#2d8eef" d="m218.655 0-5.928 71.383-34.69-18.81L193.897 0zM84.231 105.711l-20.16-.294-12.486-9.283L95.222 0h40.688l8.387 41.355L131.1 96.559zM0 270.449l10.91 7.44 31.23 29.265-21.618 43.558L0 347.784z"/></svg></g></svg>