<svg xmlns="http://www.w3.org/2000/svg" viewBox="0 0 382 382"><g fill="none" stroke="#13327c" stroke-width="2"><path d="m221.11 79.61-.35 4.18q-.04.48-.41.79-1.41 1.17-2.31 3.09-.17.36.05.69l.75 1.18a.75.75 0 0 1 0 .8q-1.05 1.72-.7 3.5.24 1.2.56.01.39-1.48 1.61-2.04.63-.29.67-.99l.08-1.6q.08-1.43 1.11-.43 1.32 1.27 2.84 1.12a.43.42 75.9 0 0 .35-.59l-.27-.6a.3.3 0 0 1 .11-.38q.18-.12.35-.05.37.16.33.56-.1.96.8 1.39a1.57 1.53 2.7 0 1 .8.86l1.49 3.96q.17.45-.14.82l-.23.26q-.57.67.3.52.44-.08.84-.35.44-.31.87.02.64.51 1.51.67.57.11.48-.47-.45-2.75-2.21-4.03-.51-.37-.17-.89 1.81-2.79 1.9-5.77M255.43 103.75q-.21.34-.15.57.16.57.52.09.1-.13.15-.37M270.26 105.59q-2.17 1.89-2.78 5.51-.08.45.09.88l.94 2.45q.2.53-.01 1.05-.44 1.08-.49 2.2a.21.2 84.7 0 0 .25.21l.34-.09a.33.33 0 0 0 .26-.28q.44-2.54 2.58-1.93.53.16.58-.4.11-1.38-.63-2.52-.31-.46.23-.58 2.12-.48 2.5 1.36.07.34.37.18 1.38-.73 2.56.55.43.45.36-.16-.06-.56.44-.82t.83.2q1.37 1.96.87 3.61-1.14 3.8-1.93 7.67M176.43 133.82l1.69-1.28q.64-.5.83.29l.13.59a.33.32-86.8 0 0 .2.23q.19.08.36-.03.34-.2.31-.59-.03-.36.24-.56.44-.33.62.19l.11.31q.12.34.49.35l3.86.1q.54.01.74.51.59 1.43 1.42 2.78.36.59 1.02.71.68.13.52-.54l-.63-2.74a1.44 1.43-38.3 0 1 .12-.98q.62-1.19 0-2.34-.24-.43.18-.7 1.88-1.19 3.66-.92.86.13.67-.72-.38-1.76-.13-3.43.11-.75-.58-.44-1.17.53-1.32 1.75-.07.57-.59.31l-1.71-.85a1.2 1.2 0 0 1-.67-1.11q.01-.63-.22-1.2-.29-.73-.57.01-.46 1.19-1.23 2.1-.24.28-.23.64.01.91-.9.82a.63.63 0 0 1-.52-.4q-1.28-3.24-1.02-6 .04-.45-.36-.66-1.21-.63-1.12-2.18.05-.95-.77-.48-.15.09-.33.15-.72.25-.57-.51.09-.42.33-.78.28-.44.09-.92c-1.02-2.5 2.15-5.89 3.76-7.5q.36-.36.1-.8-1.44-2.35-.62-5.12a.92.91 15.3 0 0-.66-1.15q-2.06-.5-.23 1.68a.19.18-41.9 0 1-.02.27q-1.03.94-2.19.64-.82-.22-.19.35.95.86.47 2.59-.19.66-.88.61-1.06-.08-1.25-1.15a.45.45 0 0 0-.79-.22l-.93 1.08q-.76.88-1.01-.25-.73-3.2-1.52-5.94-.2-.71-.84-1.1-.61-.37-.7.34-.19 1.41.56 2.47.35.51-.09.95l-1.46 1.42q-.46.44-1 .1-.55-.36-1.2-.49-.87-.17-.45.61l.55 1.03q.41.77-.42.99l-.81.22q-.59.16-.34.72l.81 1.85q.24.53.81.64.49.1.8.49.25.32.07.68l-1.13 2.39a.29.28 49.1 0 1-.53-.04q-.66-2.08-1.23-1.18-.47.75-2.26 1.81" vector-effect="non-scaling-stroke"/><path d="M165.36 111.99q.75.57 1.56-.45a.78.78 0 0 0-.37-1.23q-.52-.16-1.26.82M164.34 105.88q.57-.35.3-1.13-.25-.75-.78-.54M161.45 95.71q1.16-3.32 4.61-2.72.8.14.57-.63-.25-.83-.13-1.66.11-.72-.61-.65-.63.06-1.21-.15-.54-.19-.22-.66.12-.17.16-.37a1.44 1.4 36.4 0 0-.16-.97q-.75-1.34.59-1.96.55-.25.35-.82l-.12-.33q-.16-.47.01-.93.95-2.59.5-5.38M296.11 108.22q-1.34 1.03-1.04 2.06.21.74.98.66l1.22-.14q.81-.09.48-.84l-.46-1.03M303.65 112.87c-1.79 1.6-2.33 2.9-2.11 5.37q.08.98.07 2.49-.01 1.59 1.17 4M302.53 126.53q-1.37.87-2 .19-.28-.31-.05-.66.55-.81-.29-1.4-1.13-.79-2.46-.47a.54.54 0 0 1-.61-.28q-.19-.38-.58-.54a.37.37 0 0 0-.47.17q-.45.84-1 1.06M289.86 123.66q-1.04-.14-2.14-.99-.39-.3-.74.03-.99.93-1.98 1.21M283.52 123.98c-.87-1.06-2.43-1.03-3.02.29M266.42 112.35q-.13.65.38.23a.24.23-45.6 0 0 0-.37q-.31-.24-.38.14" vector-effect="non-scaling-stroke"/><path d="M299.63 125.4q-.14-.05-.22.14a.09.09 0 0 0 .06.12q.16.04.23-.06.1-.14-.07-.2" vector-effect="non-scaling-stroke"/></g><path d="m221.11 79.61-.35 4.18q-.04.48-.41.79-1.41 1.17-2.31 3.09-.17.36.05.69l.75 1.18a.75.75 0 0 1 0 .8q-1.05 1.72-.7 3.5.24 1.2.56.01.39-1.48 1.61-2.04.63-.29.67-.99l.08-1.6q.08-1.43 1.11-.43 1.32 1.27 2.84 1.12a.43.42 75.9 0 0 .35-.59l-.27-.6a.3.3 0 0 1 .11-.38q.18-.12.35-.05.37.16.33.56-.1.96.8 1.39a1.57 1.53 2.7 0 1 .8.86l1.49 3.96q.17.45-.14.82l-.23.26q-.57.67.3.52.44-.08.84-.35.44-.31.87.02.64.51 1.51.67.57.11.48-.47-.45-2.75-2.21-4.03-.51-.37-.17-.89 1.81-2.79 1.9-5.77 4.53 3.31 12.1 10.44 4.27 4.02 11.21 7.47-.21.34-.15.57.16.57.52.09.1-.13.15-.37l14.31 1.55q-2.17 1.89-2.78 5.51-.08.45.09.88l.94 2.45q.2.53-.01 1.05-.44 1.08-.49 2.2a.21.2 84.7 0 0 .25.21l.34-.09a.33.33 0 0 0 .26-.28q.44-2.54 2.58-1.93.53.16.58-.4.11-1.38-.63-2.52-.31-.46.23-.58 2.12-.48 2.5 1.36.07.34.37.18 1.38-.73 2.56.55.43.45.36-.16-.06-.56.44-.82t.83.2q1.37 1.96.87 3.61-1.14 3.8-1.93 7.67c-5.01.65-10.2 1.85-15.05 1.47q-4.76-.37-9.89-.83-1.42-.12-1.61 1.23-.13.91-.57 1.72-2.68 4.99-8.76 8.35-11.62 6.41-20.36 7.06-6.58.5-14.22.27c-3.42-.1-6.7-.98-10.13-1.3q-11.76-1.1-20.6-8.83l1.69-1.28q.64-.5.83.29l.13.59a.33.32-86.8 0 0 .2.23q.19.08.36-.03.34-.2.31-.59-.03-.36.24-.56.44-.33.62.19l.11.31q.12.34.49.35l3.86.1q.54.01.74.51.59 1.43 1.42 2.78.36.59 1.02.71.68.13.52-.54l-.63-2.74a1.44 1.43-38.3 0 1 .12-.98q.62-1.19 0-2.34-.24-.43.18-.7 1.88-1.19 3.66-.92.86.13.67-.72-.38-1.76-.13-3.43.11-.75-.58-.44-1.17.53-1.32 1.75-.07.57-.59.31l-1.71-.85a1.2 1.2 0 0 1-.67-1.11q.01-.63-.22-1.2-.29-.73-.57.01-.46 1.19-1.23 2.1-.24.28-.23.64.01.91-.9.82a.63.63 0 0 1-.52-.4q-1.28-3.24-1.02-6 .04-.45-.36-.66-1.21-.63-1.12-2.18.05-.95-.77-.48-.15.09-.33.15-.72.25-.57-.51.09-.42.33-.78.28-.44.09-.92c-1.02-2.5 2.15-5.89 3.76-7.5q.36-.36.1-.8-1.44-2.35-.62-5.12a.92.91 15.3 0 0-.66-1.15q-2.06-.5-.23 1.68a.19.18-41.9 0 1-.02.27q-1.03.94-2.19.64-.82-.22-.19.35.95.86.47 2.59-.19.66-.88.61-1.06-.08-1.25-1.15a.45.45 0 0 0-.79-.22l-.93 1.08q-.76.88-1.01-.25-.73-3.2-1.52-5.94-.2-.71-.84-1.1-.61-.37-.7.34-.19 1.41.56 2.47.35.51-.09.95l-1.46 1.42q-.46.44-1 .1-.55-.36-1.2-.49-.87-.17-.45.61l.55 1.03q.41.77-.42.99l-.81.22q-.59.16-.34.72l.81 1.85q.24.53.81.64.49.1.8.49.25.32.07.68l-1.13 2.39a.29.28 49.1 0 1-.53-.04q-.66-2.08-1.23-1.18-.47.75-2.26 1.81l-.37-2.3q.75.57 1.56-.45a.78.78 0 0 0-.37-1.23q-.52-.16-1.26.82l-.95-5.25q.57-.35.3-1.13-.25-.75-.78-.54l-2.41-8.5q1.16-3.32 4.61-2.72.8.14.57-.63-.25-.83-.13-1.66.11-.72-.61-.65-.63.06-1.21-.15-.54-.19-.22-.66.12-.17.16-.37a1.44 1.4 36.4 0 0-.16-.97q-.75-1.34.59-1.96.55-.25.35-.82l-.12-.33q-.16-.47.01-.93.95-2.59.5-5.38c6.87-1.11 13.68-2.15 20.69-2.39q13.17-.46 20.78.06 5.72.39 13.85 3.46m45.31 32.74q-.13.65.38.23a.24.23-45.6 0 0 0-.37q-.31-.24-.38.14"/><path fill="#2663f7" d="M165.79 78.48q.45 2.79-.5 5.38-.17.46-.01.93l.12.33q.2.57-.35.82-1.34.62-.59 1.96a1.44 1.4 36.4 0 1 .16.97q-.04.2-.16.37-.32.47.22.66.58.21 1.21.15.72-.07.61.65-.12.83.13 1.66.23.77-.57.63-3.45-.6-4.61 2.72c-4.27-8.2-13.19-2.55-18.94.65q-4.68 2.6-11.75 3.97-10.93 2.12-22.95 3.33-1.21.12-.87-1.05 1.75-6.1 3.73-12.01c1.76-5.23 7.22-7.28 12-9.34q2.83-1.22 5.93-1.26c5.13-.05 10.22-.95 15.51-.91 7.06.05 14.62.4 21.68-.61M232.12 85.84q-.09 2.98-1.9 5.77-.34.52.17.89 1.76 1.28 2.21 4.03.09.58-.48.47-.87-.16-1.51-.67-.43-.33-.87-.02-.4.27-.84.35-.87.15-.3-.52l.23-.26q.31-.37.14-.82l-1.49-3.96a1.57 1.53 2.7 0 0-.8-.86q-.9-.43-.8-1.39.04-.4-.33-.56-.17-.07-.35.05a.3.3 0 0 0-.11.38l.27.6a.43.42 75.9 0 1-.35.59q-1.52.15-2.84-1.12-1.03-1-1.11.43l-.08 1.6q-.04.7-.67.99-1.22.56-1.61 2.04-.32 1.19-.56-.01-.35-1.78.7-3.5a.75.75 0 0 0 0-.8l-.75-1.18q-.22-.33-.05-.69.9-1.92 2.31-3.09.37-.31.41-.79l.35-4.18zM176.43 133.82c-6.55-5.06-9.14-11.59-10.7-19.53q1.79-1.06 2.26-1.81.57-.9 1.23 1.18a.29.28 49.1 0 0 .53.04l1.13-2.39q.18-.36-.07-.68-.31-.39-.8-.49-.57-.11-.81-.64l-.81-1.85q-.25-.56.34-.72l.81-.22q.83-.22.42-.99l-.55-1.03q-.42-.78.45-.61.65.13 1.2.49.54.34 1-.1l1.46-1.42q.44-.44.09-.95-.75-1.06-.56-2.47.09-.71.7-.34.64.39.84 1.1.79 2.74 1.52 5.94.25 1.13 1.01.25l.93-1.08a.45.45 0 0 1 .79.22q.19 1.07 1.25 1.15.69.05.88-.61.48-1.73-.47-2.59-.63-.57.19-.35 1.16.3 2.19-.64a.19.18-41.9 0 0 .02-.27q-1.83-2.18.23-1.68a.92.91 15.3 0 1 .66 1.15q-.82 2.77.62 5.12.26.44-.1.8c-1.61 1.61-4.78 5-3.76 7.5q.19.48-.09.92-.24.36-.33.78-.15.76.57.51.18-.06.33-.15.82-.47.77.48-.09 1.55 1.12 2.18.4.21.36.66-.26 2.76 1.02 6a.63.63 0 0 0 .52.4q.91.09.9-.82-.01-.36.23-.64.77-.91 1.23-2.1.28-.74.57-.01.23.57.22 1.2a1.2 1.2 0 0 0 .67 1.11l1.71.85q.52.26.59-.31.15-1.22 1.32-1.75.69-.31.58.44-.25 1.67.13 3.43.19.85-.67.72-1.78-.27-3.66.92-.42.27-.18.7.62 1.15 0 2.34a1.44 1.43-38.3 0 0-.12.98l.63 2.74q.16.67-.52.54-.66-.12-1.02-.71-.83-1.35-1.42-2.78-.2-.5-.74-.51l-3.86-.1q-.37-.01-.49-.35l-.11-.31q-.18-.52-.62-.19-.27.2-.24.56.03.39-.31.59-.17.11-.36.03a.33.32-86.8 0 1-.2-.23l-.13-.59q-.19-.79-.83-.29zM255.95 104.04q-.05.24-.15.37-.36.48-.52-.09-.06-.23.15-.57.39.1.52.29M164.34 105.88l-.48-1.67q.53-.21.78.54.27.78-.3 1.13M296.11 108.22q-1.34 1.03-1.04 2.06.21.74.98.66l1.22-.14q.81-.09.48-.84l-.46-1.03q4.03 1.27 6.36 3.94c-1.79 1.6-2.33 2.9-2.11 5.37q.08.98.07 2.49-.01 1.59 1.17 4l-.25 1.8q-1.37.87-2 .19-.28-.31-.05-.66.55-.81-.29-1.4-1.13-.79-2.46-.47a.54.54 0 0 1-.61-.28q-.19-.38-.58-.54a.37.37 0 0 0-.47.17q-.45.84-1 1.06-2.52-.95-5.21-.94-1.04-.14-2.14-.99-.39-.3-.74.03-.99.93-1.98 1.21l-1.48.07c-.87-1.06-2.43-1.03-3.02.29l-2.88.41q.79-3.87 1.93-7.67.5-1.65-.87-3.61-.33-.46-.83-.2t-.44.82q.07.61-.36.16-1.18-1.28-2.56-.55-.3.16-.37-.18-.38-1.84-2.5-1.36-.54.12-.23.58.74 1.14.63 2.52-.05.56-.58.4-2.14-.61-2.58 1.93a.33.33 0 0 1-.26.28l-.34.09a.21.2 84.7 0 1-.25-.21q.05-1.12.49-2.2.21-.52.01-1.05l-.94-2.45q-.17-.43-.09-.88.61-3.62 2.78-5.51 4.84.92 9.16-1.14.67-.32 1.22-.32.66 0 1.29.14 7.12 1.63 14.18 3.95"/><path d="m297.29 108.93.46 1.03q.33.75-.48.84l-1.22.14q-.77.08-.98-.66-.3-1.03 1.04-2.06.72.12 1.18.71"/><path fill="#2663f7" d="m165.36 111.99-.07-.86q.74-.98 1.26-.82a.78.78 0 0 1 .37 1.23q-.81 1.02-1.56.45M266.42 112.35q.07-.38.38-.14a.24.23-45.6 0 1 0 .37q-.51.42-.38-.23"/><path d="M302.78 124.73q-1.18-2.41-1.17-4 .01-1.51-.07-2.49c-.22-2.47.32-3.77 2.11-5.37q.56 6.15-.87 11.86M289.86 123.66l-4.86.25q.99-.28 1.98-1.21.35-.33.74-.03 1.1.85 2.14.99M283.52 123.98q-1.47.55-3.02.29c.59-1.32 2.15-1.35 3.02-.29M302.53 126.53q-.16.94-.87 1.2-.47.18-.92-.06l-5.67-3.07q.55-.22 1-1.06a.37.37 0 0 1 .47-.17q.39.16.58.54a.54.54 0 0 0 .61.28q1.33-.32 2.46.47.84.59.29 1.4-.23.35.05.66.63.68 2-.19m-2.9-1.13q-.14-.05-.22.14a.09.09 0 0 0 .06.12q.16.04.23-.06.1-.14-.07-.2"/><path fill="#2663f7" d="M299.7 125.6q-.07.1-.23.06a.09.09 0 0 1-.06-.12q.08-.19.22-.14.17.06.07.2"/></svg>