<svg xmlns="http://www.w3.org/2000/svg" viewBox="0 0 382 382"><g fill="none" stroke="gray" stroke-width="2"><path d="m242.08 60.05.34 1.82q.36 1.99 1.17.14.26-.59.62-1.84M245.26 60.03c-.68 2.26-2.31 4.88-1.29 7.16q.21.46.71.42l6.72-.5a1.59 1.59 0 0 0 1.35-2.2q-.58-1.41-.91-2.91-.42-1.9.96-.56.13.13.17 1 .02.6.42 1.1.41.51.57-.13.28-1.11.88-1.94.1-.15.27-.08.13.06.21.18.11.13.02.38-.79 2.36-1.36 4.77M250.34 68.38l-8.18.75q-.53.05-.67.56l-1.08 4.02M237.01 74.37q-.28-.47-.12-.9.15-.39-.21-.59-.75-.43-.57-1.33a.4.4 0 0 0-.39-.48l-.45-.01q-.44 0-.32.43l.8 2.68q.08.27-.2.35l-.28.07q-.12.04-.19-.07-.74-1.1-.96-2.21-.13-.69-.82-.52-4.01 1-2.89 3.31M222.04 70.62q-1.26-.67-1.09-1.82M221.54 68.18q1.74 1.51 3.52 3.07.21.17.44.13.87-.15.37-1.24a1.05 1.04-46.5 0 1-.02-.81q.25-.66-.28-.86-.34-.13-.4.23-.09.57-.4 1.04-.36.53-.65-.04-.21-.42.03-.79 1.35-2.02 1.41-3.92M229.19 62.83l-.03 7.9q-.01 1.35 1.28.98l2.08-.6q1-.29.73-1.3l-.75-2.83q-.24-.91-.55-.02l-1.42 4.09q-.1.28-.38.17l-.33-.14q-.14-.06-.1-.21l1.42-4.89q.71-2.45 1.83-.16.89 1.82 1.25 3.83.08.46.55.43l.48-.04q.73-.05.64-.78l-.25-1.98q-.01-.13.12-.18l.36-.12q.08-.02.11.06l.67 1.71q.27.69.78.15l.42-.43q.18-.19.41-.3.34-.17.45.08a.98.98 0 0 0 1.65.21c2.43-2.97 1.09-5.06.43-8.25M257.04 61.26l-.63.97a.27.27 0 0 0 .11.4l2.02.91q.29.13.38-.17.18-.57.65-.84.57-.34.34.28-.17.47.13.83.23.29.63.33.87.1 2.92.16" vector-effect="non-scaling-stroke"/><path d="M238.12 60.36q-.46 3.31.21 6.5a.3.3 0 0 0 .47.18q.27-.19.28-.55.09-3.13-.43-6.17M231.21 62.27q.46 1.34 1.19 1.53.52.13.79-.34.54-.96.75-2.22M235.26 61.19l.45 4.69q.01.08.09.1l.34.08a.24.24 0 0 0 .3-.23l.04-5.03M219.97 65.04q-.32-2.25-1.23.96M245.52 71.51q-.08-.81-.74-1.3a.49.49 0 0 0-.77.27q-.19.76.62 1.45M245.96 73.78q-.43.35-.49 1.11M215.21 61.1q.67 1.87 2.8 3.93.39.38.05.86-.34.47-.71.02l-1.7-2.03q-.53-.63-.72.17l-1.45 6.12M246.95 74.67q-.14.49-.45.87M213.77 61.25q.7 1.07.51 1.75-1.05 3.62-1.72 7.14M202.51 70.9q1.37-1.36.97-2.54-.15-.47-.46-.07l-1.98 2.58M197.96 70.95q1.93-4.02.53-7.82M204.17 61.8q-.11 2.86-2.03 5.07-.14.16.03.27l.21.16q.21.14.37-.05 2.12-2.6 2.65-5.82M196.28 71.59l-3.52-5.55M286.22 68.59q.21.79 1.54 1.38a.46.46 0 0 1-.02.85l-2.65 1q-.13.05-.27 0-.21-.07-.26-.25-.11-.36.21-.57.41-.26.44-.78.05-.7-.41-.17l-1.65 1.89a1.98 1.94 11.9 0 1-.88.56q-1.8.55-3.48 1.65-.5.32.01.62 1.24.74 1.32 1.71M279.57 76.67q-.91-.86-2.1-1.35-.45-.19-.87.05-5.01 2.78-10.23 3.91-.64.14-.08.47 3.11 1.8 6.49 2.02M271.49 82.85q-.84.15-1.55-.27-3.5-2.11-7.05-2.5-1.27-.14-2.19-.45-1.04-.36-2.13-.69a.35.35 0 0 0-.43.19l-.18.38q-.23.48.3.51l1.85.09q.28.02.46.24.12.16.01.35-.29.53-.05 1.09c.31.74 1.24 1.29 1.36 1.95q.11.65-.27.12-1.24-1.71-2.91-2.58a1.09 1.09 0 0 0-1.6 1.02q.05.95-.83 2.29M255.66 83.21q.27-.21.39-.44.27-.51-.27-.73-.79-.32-1.73-.32M252.24 80.21l3.82-.19q.56-.03.73-.56l.12-.35a.57.56-80.3 0 0-.52-.74l-6.09-.21M249.47 76.99q-.23-.6.04-.76M249.86 76.57l6.33.79a1 1 0 0 0 1.04-1.4l-1.35-3M256.79 72.46q-.03 1.49.77 2.43.31.37.39.85l.16 1q.09.53.59.74 4.48 1.81 7.34.98 5.13-1.5 9.68-3.64a.34.34 0 0 0 .02-.61q-4.34-2.34-8.54-3.65-.68-.21-.45.47.86 2.5 2.17 4.88.1.17-.07.27h-.01q-.19.11-.29-.08-1.71-3.32-3.57-6.58" vector-effect="non-scaling-stroke"/><path d="M197.75 63.26q.71 3.12-.26 6.31-.47 1.57-1.38.21l-2.85-4.21M288.81 69.13l2.32 2.52M289.11 71.96q-2.79-.34-3.95 1.52M257.98 72.04l.23 1.9q.08.67.38.07.71-1.42-.15-2.43M274.67 84.72q-.35.36-.38.76M265.58 84.75q-.5-1.54-2.03-1.82-.55-.1-.31.41.63 1.36 2.04 1.5M281.01 67.96l-1.59 1a.48.47-26.9 0 0-.19.57l.12.3q.19.5.68.28l3.93-1.83M285.92 68.39q-.01.89-1.15.54-.48-.14-.87.16l-5.98 4.53q-.41.31-.87.07l-2.83-1.47" vector-effect="non-scaling-stroke"/><path d="m274.22 72.22 2.63-.35q.82-.11.37-.81l-.86-1.31a1.28 1.27 41.3 0 0-2.22.14q-.57 1.2.08 2.33" vector-effect="non-scaling-stroke"/><path d="M274.22 72.22q-1.1.06-1.61-.52a.54.54 0 0 1 .03-.75q.68-.65.33-1.57-.29-.78-.59-.01-.21.57-.19 1.14.02.71-.64.46l-5-1.85M272.74 68.13q.46.67 1.52-.4M276.28 85.13q.62.15-.1 1.2M287.86 86.03q-.78 1.76-1.21 3.38-.05.17-.01.33.04.22.32.3a.32.31-65.5 0 0 .36-.14q1.1-1.76 1.28-3.77" vector-effect="non-scaling-stroke"/><path d="m290.48 86.14 1.13 2.21q.23.46-.25.67-1.87.79-3.46 2.04a.54.54 0 0 1-.64.03q-.18-.12-.37-.1-.51.05-.78.47-1.15 1.78-3.03.91M291.76 86.33q.22.78.63 1.1.42.32.85.02l1.25-.89M295.71 86.85l-1.85 1.5q-.38.3-.11.7l.48.75q.28.42.68.1.47-.37 1.11-.35a.9.89-84.1 0 0 .91-.75l.27-1.7M298.78 87.28q-.18.66-.12 1.12a.66.66 0 0 0 1.03.45q.36-.25.75-.92M305.26 89.39q-.63.14-2.27-.1-1.56-.22-1.98 1.29a.46.45-77.3 0 1-.51.33q-.35-.07-.42-.42-.1-.52-.61-.62-.17-.03-.35-.01-.55.06-.87.52l-.45.64q-.33.48-.72.04-.72-.81-1.88-.45-.44.14-.3.58.34 1.09 1.37 1.27a.77.77 0 0 1 .63.62q.17.8.91 1.04a.67.66-73.7 0 1 .44.81l-.26.98q-.14.49.04.96l1.82 4.9M298.98 102.01l-2.13-4.75q-.17-.38-.49-.11-.29.24-.19.79a.77.73 18.8 0 0 .21.4q.84.83-.01 1.78-.39.44-.39-.15l.01-.99q.01-1.28-.53-.12-.41.86-.53 2.01-.11 1.17-.5.06-.39-1.14.32-2.61a.51.51 0 0 0-.6-.71q-2.09.6-4.23.38-2.76-.28-.42 1.2.66.41 1.25.9 1.7 1.41-.38.67-.77-.27-1.43-.93-.76-.75-.38.25l2.31 6.15M290.78 106.72q.17 1.36-.48 1.1M289.96 107.47q.24-.46.14-.72-1.43-3.8-3.21-7.7-.33-.72-1-.73-.58 0-.54.58.05.61-.33 1.07-.04.05-.09.02l-.23-.12a.33.32-62.2 0 1-.13-.43q.11-.24.11-.49-.02-.52-.54-.5l-2.78.1" vector-effect="non-scaling-stroke"/><path d="M281.36 98.55q1.1-1.12 2.91-1.47.51-.1.27-.56-.53-1.05-1.82-1.55M316.19 97.2q-1.3.7-1.2 2.76M284.35 101.88q.41-.18.28-.62-.18-.58-.37-.27M301.22 109.74q-.29.79-.3 1.55M296.8 102.83l-4.23-.75q-.49-.09-.14.27l1.87 1.95" vector-effect="non-scaling-stroke"/><path d="M316.76 97.9q-.9.05-.64.86.34 1.03.15 1.51M301.97 110.08l.49 6.92a3.54 3.53-86.5 0 0 2.84 3.22q2.54.51 5.09-1.1.84-.53.8.47-.04.99-.87 1.6-.23.16-.49.04-.84-.42-1.5.22a.99.98-62.8 0 1-.8.26q-2.25-.3-4.61.24a1.28 1.28 0 0 0-.96.96c-.42 1.87-1.17 4.88 1.11 5.88a.7.68 29.8 0 0 .82-.21l1.7-2.22a.23.23 0 0 1 .42.16q-.11 1.26.74 2.08.42.41-.12.64-.6.25-1.24.07-.26-.08-.4.16l-.2.33a.34.34 0 0 0 .25.51q2.26.34 4.52-.31.27-.08.35.19l.08.3a.3.29 70.6 0 1-.17.36q-1.59.61-3.1 1.45-.74.41-1.48.11c-1.25-.51-2.74-.5-4.14-.59q-.5-.03-.66.45-.11.31.16.53.49.39.11.89-.33.42-.88.74" vector-effect="non-scaling-stroke"/><path d="M300.21 132.65q.21-.54-.03-1.35M301.17 115.71l-.05-.74M301.12 113.46l.01-.69M317.47 98.79q-.47.23-.16.68.22.32.42-.01M314.3 116.71q.07 1.68-1.73 2.65-1.1.59.15.55.65-.02 1.29-.28.56-.22.71.36l.67 2.6q.19.75-.53.47-1.49-.59-3-.5-.7.05-.09.38 1.58.87 3.23 1.06a1.35 1.34-9.4 0 1 1.08.77l.88 1.86a1.29 1.29 0 0 1-1.54 1.78q-1.86-.56-3.51-.55-.23 0-.35.2-.07.12-.07.25.02.48.49.49.35 0 .48.3.23.54-.35.49-.43-.03-.62.38-.39.81.48.54 2.15-.68 4.81-1.22c1.23-.25 1.97.29 2.31 1.42M300.67 136.1q-.42-.61-1.13-.9" vector-effect="non-scaling-stroke"/><path d="M316.16 118.12q-1.06 2.72.83 5.2a1.28 1.26 77.1 0 0 .72.46l2.88.66q.52.11.28.58l-.17.34q-.12.22-.35.15l-2.36-.69q-.72-.21-.54.51.27 1.13 1 1.83a.81.81 0 0 0 .99.11q.59-.37 1.26-.29.81.09.14.56-.49.36-1.08.47-.5.09-.45.6.04.48.48.62c1.87.58 4.34.46 5.9 2.48M321.41 130.75q-.06-.59-.47-.86-.43-.28-.82.04-.46.38-.36.86M303.58 141.46q-.19 1.01-.87 1.15M302.55 142.2q.22-.16.19-.37-.04-.27-.41-.28M300.02 138.01q.11-1.1-.74-1.05" vector-effect="non-scaling-stroke"/><path d="M322.7 124.6q-.69.97-.66 2.08.01.54.55.45.82-.14 1.25-.89M303.75 144.69q-.26-.24-.53-.15-.25.08-.33.32-.25.75.45 1.16a.46.45 29 0 0 .64-.18q.19-.36 0-.84M305.62 145.14q.27 1.44-.47 1.96-.53.37-.16.91l.67.95q.3.42-.08.76-.41.36-.93.61-.02.01-.03.04-.06.15-.03.3.08.45.51.27l1.23-.53q.55-.24.89.25.58.86.97 1.77.12.27.39.4.21.09.42-.02.69-.36.02-.77-.64-.39-1.06-.96-.5-.68.26-1.04l3.47-1.66M324.62 161.9q-.47-.07-.8.01-.61.15-.23.64.48.62 1.48.58M326.65 167.97q-.84.02-1.34.84-.26.41-.71.62l-2.02.92M317.77 168.75q-.13-2.02 1.37-3.49.18-.18-.01-.35l-.21-.19q-.14-.12-.24.03-.63.84-1.61.95-.48.06-.78.43l-1.55 1.92M314.04 167.93q-.26-1.23-1.62-2.14-.62-.4.07-.68 1.42-.58 2.63-.29.42.1.71-.21l.97-1.02q.48-.52-.21-.66c-1.47-.3-2 .64-3.25.99q-2.29.62-4.41 1.35-1.09.37-.04.86l3.21 1.51M308.53 167.46l-.64-.67a.75.75 0 0 0-.84-.17q-.75.31-.35 1.01M302.9 167.43q1.98-.3 2.28-1.72.17-.8.91-.46.52.22.99-.11.7-.49-.12-.74-.9-.28-1.8-.39-.88-.11-.29.55.16.16.2.38.11.59-.46.74-1.27.33-2.08 1.1-.34.33-.07.74M301.51 172.98q-.63.09-1.09-.02" vector-effect="non-scaling-stroke"/><path d="m301.46 163.9 2.11.24q.65.07.31-.48-.66-1.09-2.23-1.45M302.11 155.74q.84-.58.59-1.84-.12-.58.41-.83.33-.16.59-.4.72-.62-.2-.4-.67.16-1.33 1.11" vector-effect="non-scaling-stroke"/><path d="M302.11 154.26q.11-.5.06-.88M316.79 168.41q.13-.21.1-.41-.07-.46-.51-.3-.3.11-.59.52M326.8 168.8q-.39.7.06 1.42M326.89 170.77l-1.84.51M306.02 175.52l-5.79-1.68M306.75 145.89l1.02 1.79q.27.47.81.45.84-.03 1.71-.43M306.02 175.52q-.14.05-.15.19-.01.13-.14.15l-5.51.71" vector-effect="non-scaling-stroke"/><path d="M306.96 176.16q-.38-.05-.71-.04-.34.01-.63.2-2.08 1.35-5.04 1.2-.46-.02-.46-.48 0-.21.1-.47M307.66 176.99l-5.57 6.42q-.3.35-.75.24l-2.32-.52M308.43 177.46l-5.13 6.3a.64.64 0 0 0 .41 1.03l3.74.5q.37.05.41-.32.03-.26.19-.45.22-.24.54-.39 1.44-.66 2.95-1.44M312.81 184.98q-.5.19-.81.47-.64.58.22.49l.85-.09M314.16 190.59l-2.63-.9q-.53-.18-.15.22 1.14 1.22 3.06 1.58M314.73 195.03c-2.39 1.57-4.7 3.92-7.81 2.16q-.49-.28-.63-.83l-1.27-4.98a.4.4 0 0 0-.49-.29l-.27.07q-.17.04-.13.2l.82 4.06q.23 1.1-.71.48-1.89-1.26-4.09-2.02-.66-.23-.47.45.19.69.85 1.43M300.08 204.43l-1.04.28a.49.48 80.1 0 0-.34.49q.01.36-.27.52-.9.51-.68-.5.3-1.33-1.04-2.5M298.83 188.05q1.88-.77 1.94-3.08.02-.51-.46-.72-.56-.23-1.2-.29" vector-effect="non-scaling-stroke"/><path d="M298.98 186.58q.6-.23.95-.76.32-.5-.22-.74-.23-.11-.57-.06M301.41 206l-2.36.55a1.99 1.99 0 0 0-.84 3.45q1.1.95 1.68 2.23.4.88-.37.28l-1.09-.85q-.56-.43-.56.27l-.02 2.22q0 .26-.18.46-.26.3-.67-.13a.37.34-69.2 0 1-.1-.25l-.08-3.14q-.01-.51-.36-.87-.57-.6-1.46-.96M314.51 196.46q-1.03.36-1.63 1.14-.17.21.07.34.16.08.31.15.93.38-.06.57l-2.53.48" vector-effect="non-scaling-stroke"/><path d="M304.29 214.1q-1.11.33-2.21-.7-.36-.34-.81-.35-.76-.03-.05.23.74.27 1.03 1.04.18.5-.29.74l-3.2 1.6q-.49.25-.77-.23-.27-.47-.74-.46-2.01.05-3.92-1.24M304.7 216c-2.49-.47-4.12.99-6.29 1.89q-.47.19-.54.69l-.4 2.97M296.45 220.96l.19-1.54q.07-.58-.51-.47-1.02.18-1.74.92M292.43 220.75q-.2-.2-.6-.22M292.42 217.94l.62.63q.37.38.85.19l2.41-.96q1.39-.55-.05-.97l-3.02-.89M304.86 216.77q-.04.37.04.71M294.78 233.63q-.43 1.11-.95 1.48-.44.31-.81-.07l-2.33-2.36M295.32 236.96q-2.32 3.07-3.44 7.45M291.15 243.07l2.28-5.63q.2-.51-.32-.66l-3-.84M290.09 234.96q.82-.05 1.25.72.03.05.08.02l.28-.14q.21-.11.09-.3-.61-.95-1.52-1.54M288.49 244.61l-1.06-.45M295.19 246.43q-1.04-.82-2.58-.47M288.1 246.03l-.83-.38M295.03 247.04l-2.03-.2M289.29 247.95l-2.26 4.01M289.86 249.01l-2 3.9M228.11 71.13q-.15-2.35 0-4.92.02-.41-.38-.47l-.29-.04q-.4-.06-.47.34-.54 3.38.75 6.52.06.15.22.11.15-.03.27-.09.27-.14.21-.43t-.19-.55q-.11-.23-.12-.47M242.77 67.28q-.32-.57-.77.01a.38.38 0 0 0 .31.61q.22 0 .39-.17.21-.2.07-.45M239.06 73.23q.97-1.21 1.28-3.31.11-.72-.48-.29l-.54.39a.73.72 78.8 0 0-.28.43l-.53 2.52q-.26 1.27.55.26M237.17 72.08q.17.86.5.05.36-.86.03-1.71-.26-.68-.46.02-.24.82-.07 1.64M271.36 80.75q.61.48.31-.23-.26-.64-.8-1.03-.65-.48-.31.25.29.6.8 1.01M262.08 84.45q-.08.09-.01.18.11.15.27.07t0-.17q-.07-.04-.13-.09-.07-.06-.13.01M292.68 89.68q.16-.41-.23-.56a.26.26 0 0 0-.33.14q-.14.29.13.53.29.26.43-.11M289.15 92.6q-.51.13-1.01.24-1.25.27-1.76 1.46l-.18.41a1.15 1.15 0 0 0 1.13 1.61q3.9-.25 7.6-2.26a.64.63-41 0 0 .08-1.07q-.76-.57-1.04-1.51-.15-.51-.64-.71-2.21-.91-3.85.4-.19.14-.29.35-.1.22.1.36.73.51-.14.72M292.48 96.08q-.46-.04-.89.15-.67.29.03.51 2.05.65 3.53-.91.57-.6-.24-.43-.72.15-1.4.49-.49.23-1.03.19M302.09 91.66q-1.09.44-2.3.42-.66-.02-.96.56-.17.32-.19.66-.06 1.02.78.45l3.94-2.68q.12-.09.11-.14-.04-.13-.07-.25-.09-.33-.38-.14-.31.2-.42.57a.85.85 0 0 1-.51.55M297.31 92.27a.18.18 0 0 0-.14.26q.18.39.55.16.26-.15.01-.31-.19-.12-.42-.11M304.25 120.76q.53-.13.07-.42-.98-.61-2.17-.25-.65.19-.04.49.97.48 2.14.18M311.35 117.25q-.2.38.19.2.49-.21.67-.74.37-1.07-.37-.22-.22.27-.49.76M308.98 122.44q.22-.39-.22-.43-.26-.02-.48.11-.19.11-.21.34l-.04.26a.25.25 0 0 0 .35.26q.39-.18.6-.54M307.73 123.8l-.35 1.41q-.17.68.24.11.51-.72.36-1.51-.11-.57-.25-.01M310.457 128.201a1.24.56-8.3 0 0-1.308-.375 1.24.56-8.3 0 0-1.146.733 1.24.56-8.3 0 0 1.308.375 1.24.56-8.3 0 0 1.146-.733M310.05 150.8l-.21-.19q-.65-.59-.27.2.47.99 1.34 1.44.61.31.4-.34-.21-.7-.99-.95-.15-.05-.27-.16M318.53 157.95l-6.06-4.74a.01.01 0 0 0-.02 0l-.12.15a3.74.74 38 0 0 2.5 2.89l.19.14a3.74.74 38 0 0 3.4 1.72l.11-.15a.01.01 0 0 0 0-.01M309.8 154.64q.32.22.71.05.36-.17.05-.41-.26-.22-.6-.22-1.02.03-.16.58" vector-effect="non-scaling-stroke"/><path d="M313.555 160.139a2.3.49 58.4 0 0-.788-2.216 2.3.49 58.4 0 0-1.622-1.702 2.3.49 58.4 0 0 .788 2.216 2.3.49 58.4 0 0 1.622 1.702M302.15 157.66l-.22.25q-.04.05 0 .09 1.52 1.55 3.07 2.89.27.22.6.1a.47.47 0 0 0 .16-.78l-2.8-2.59q-.43-.39-.81.04M321.57 159.13q-.23 0-.38.19a.25.25 0 0 0 .2.41q.27 0 .39-.26.17-.35-.21-.34" vector-effect="non-scaling-stroke"/><path d="M313.71 161.37a.39.39 0 0 0 .15.43q.47.33.73-.01a.5.5 0 0 0-.34-.8q-.42-.04-.54.38M320.57 163.84q.48-1.79 2.15-2.05.11-.02.2-.07.2-.11.2-.31a.4.4 0 0 0-.38-.39q-2.29-.12-3.78 1.45-.23.23 0 .45l1.11 1.06q.37.36.5-.14M309.317 163.875a1.57.55 33 0 0-1.017-1.316 1.57.55 33 0 0-1.617-.394 1.57.55 33 0 0 1.017 1.316 1.57.55 33 0 0 1.617.394M306.84 148.51q-.06-.49-.31-.89-.46-.77-.45.13.01.57.41.93.41.38.35-.17M303.04 187.87q.39 1.01.61 2.02.11.5.51.19l.33-.26q.11-.08.08-.21l-.41-1.75q-.12-.52.38-.7 1.58-.56 2.82.93.03.04.06 0l.15-.23q.15-.23-.07-.4-1.48-1.14-3.33-1.35-.52-.06-.72-.55-.17-.41-.6-.4-.69 0-.78.68-.07.6-.45 1.07-.67.83.39.7.06 0 .1-.03.65-.46.93.29M309.59 186q.66-.02 1.32-.01.17.01.02-.07-1.18-.67-2.56-.36-.25.06-.44.23-.12.11-.08.3.13.7.69.28.46-.34 1.05-.37M310.479 189.099a1.31.31 23.8 0 0-1.074-.813 1.31.31 23.8 0 0-1.324-.245 1.31.31 23.8 0 0 1.074.813 1.31.31 23.8 0 0 1.324.245M295.73 208.24a.45.44 21.3 0 0 .2.45q.29.19.55.04a.43.43 0 0 0 .08-.69q-.67-.64-.83.2" vector-effect="non-scaling-stroke"/></g><path fill="#fff" d="m242.08 60.05.34 1.82q.36 1.99 1.17.14.26-.59.62-1.84l1.05-.14c-.68 2.26-2.31 4.88-1.29 7.16q.21.46.71.42l6.72-.5a1.59 1.59 0 0 0 1.35-2.2q-.58-1.41-.91-2.91-.42-1.9.96-.56.13.13.17 1 .02.6.42 1.1.41.51.57-.13.28-1.11.88-1.94.1-.15.27-.08.13.06.21.18.11.13.02.38-.79 2.36-1.36 4.77-1.57 1.4-3.64 1.66l-8.18.75q-.53.05-.67.56l-1.08 4.02-3.4.66q-.28-.47-.12-.9.15-.39-.21-.59-.75-.43-.57-1.33a.4.4 0 0 0-.39-.48l-.45-.01q-.44 0-.32.43l.8 2.68q.08.27-.2.35l-.28.07q-.12.04-.19-.07-.74-1.1-.96-2.21-.13-.69-.82-.52-4.01 1-2.89 3.31l-8.37-4.48q-1.26-.67-1.09-1.82.24-.4.59-.62 1.74 1.51 3.52 3.07.21.17.44.13.87-.15.37-1.24a1.05 1.04-46.5 0 1-.02-.81q.25-.66-.28-.86-.34-.13-.4.23-.09.57-.4 1.04-.36.53-.65-.04-.21-.42.03-.79 1.35-2.02 1.41-3.92l3.63-2.16-.03 7.9q-.01 1.35 1.28.98l2.08-.6q1-.29.73-1.3l-.75-2.83q-.24-.91-.55-.02l-1.42 4.09q-.1.28-.38.17l-.33-.14q-.14-.06-.1-.21l1.42-4.89q.71-2.45 1.83-.16.89 1.82 1.25 3.83.08.46.55.43l.48-.04q.73-.05.64-.78l-.25-1.98q-.01-.13.12-.18l.36-.12q.08-.02.11.06l.67 1.71q.27.69.78.15l.42-.43q.18-.19.41-.3.34-.17.45.08a.98.98 0 0 0 1.65.21c2.43-2.97 1.09-5.06.43-8.25zm-13.97 11.08q-.15-2.35 0-4.92.02-.41-.38-.47l-.29-.04q-.4-.06-.47.34-.54 3.38.75 6.52.06.15.22.11.15-.03.27-.09.27-.14.21-.43t-.19-.55q-.11-.23-.12-.47m14.66-3.85q-.32-.57-.77.01a.38.38 0 0 0 .31.61q.22 0 .39-.17.21-.2.07-.45m-3.71 5.95q.97-1.21 1.28-3.31.11-.72-.48-.29l-.54.39a.73.72 78.8 0 0-.28.43l-.53 2.52q-.26 1.27.55.26m-1.89-1.15q.17.86.5.05.36-.86.03-1.71-.26-.68-.46.02-.24.82-.07 1.64"/><path d="M244.21 60.17q-.36 1.25-.62 1.84-.81 1.85-1.17-.14l-.34-1.82zM257.04 61.26l-.63.97a.27.27 0 0 0 .11.4l2.02.91q.29.13.38-.17.18-.57.65-.84.57-.34.34.28-.17.47.13.83.23.29.63.33.87.1 2.92.16l-9.61 2.59q.57-2.41 1.36-4.77.09-.25-.02-.38-.08-.12-.21-.18-.17-.07-.27.08-.6.83-.88 1.94-.16.64-.57.13-.4-.5-.42-1.1-.04-.87-.17-1-1.38-1.34-.96.56.33 1.5.91 2.91a1.59 1.59 0 0 1-1.35 2.2l-6.72.5q-.5.04-.71-.42c-1.02-2.28.61-4.9 1.29-7.16q3.56.03 7.24.04 2.42.02 4.54 1.19M238.12 60.36q-.46 3.31.21 6.5a.3.3 0 0 0 .47.18q.27-.19.28-.55.09-3.13-.43-6.17.9-.33 2.39-.11c.66 3.19 2 5.28-.43 8.25a.98.98 0 0 1-1.65-.21q-.11-.25-.45-.08-.23.11-.41.3l-.42.43q-.51.54-.78-.15l-.67-1.71q-.03-.08-.11-.06l-.36.12q-.13.05-.12.18l.25 1.98q.09.73-.64.78l-.48.04q-.47.03-.55-.43-.36-2.01-1.25-3.83-1.12-2.29-1.83.16l-1.42 4.89q-.04.15.1.21l.33.14q.28.11.38-.17l1.42-4.09q.31-.89.55.02l.75 2.83q.27 1.01-.73 1.3l-2.08.6q-1.29.37-1.28-.98l.03-7.9 2.02-.56q.46 1.34 1.19 1.53.52.13.79-.34.54-.96.75-2.22l1.32-.05.45 4.69q.01.08.09.1l.34.08a.24.24 0 0 0 .3-.23l.04-5.03q.94-.61 1.64-.44"/><path fill="#fff" d="M238.65 60.32q.52 3.04.43 6.17-.01.36-.28.55a.3.3 0 0 1-.47-.18q-.67-3.19-.21-6.5zM236.48 60.8l-.04 5.03a.24.24 0 0 1-.3.23l-.34-.08q-.08-.02-.09-.1l-.45-4.69q.46-.33 1.22-.39"/><path d="M213.77 61.25q.7 1.07.51 1.75-1.05 3.62-1.72 7.14-4.86 1.53-10.05.76 1.37-1.36.97-2.54-.15-.47-.46-.07l-1.98 2.58-3.08.08q1.93-4.02.53-7.82l5.68-1.33q-.11 2.86-2.03 5.07-.14.16.03.27l.21.16q.21.14.37-.05 2.12-2.6 2.65-5.82z"/><path fill="#fff" d="M215.21 61.1q.67 1.87 2.8 3.93.39.38.05.86-.34.47-.71.02l-1.7-2.03q-.53-.63-.72.17l-1.45 6.12q-.36.12-.92-.03.67-3.52 1.72-7.14.19-.68-.51-1.75z"/><path d="M219.97 65.04q-.32-2.25-1.23.96-1.54.73-2.84 2.13-.51.54.23.58 1.96.09 3.94.45.32.06.6-.12.17-.11.28-.24-.17 1.15 1.09 1.82l-2.81.28q-.52.06-1.01-.16-.71-.3-1.4-.02c-1.14.45-2.35.12-3.34-.55l1.45-6.12q.19-.8.72-.17l1.7 2.03q.37.45.71-.02.34-.48-.05-.86-2.13-2.06-2.8-3.93l10.06.78q1.66.13.14.79z"/><path fill="#fff" d="M233.94 61.24q-.21 1.26-.75 2.22-.27.47-.79.34-.73-.19-1.19-1.53zM263.59 64.13q-2.05-.06-2.92-.16-.4-.04-.63-.33-.3-.36-.13-.83.23-.62-.34-.28-.47.27-.65.84-.09.3-.38.17l-2.02-.91a.27.27 0 0 1-.11-.4l.63-.97q3.44.51 6.55 2.87M205.4 61.43q-.53 3.22-2.65 5.82-.16.19-.37.05l-.21-.16q-.17-.11-.03-.27 1.92-2.21 2.03-5.07.54-.32 1.23-.37"/><path d="M197.75 63.26q.71 3.12-.26 6.31-.47 1.57-1.38.21l-2.85-4.21z"/><path fill="#fff" d="M198.49 63.13q1.4 3.8-.53 7.82-.88.73-1.68.64l-3.52-5.55q.29.06.5-.47l2.85 4.21q.91 1.36 1.38-.21.97-3.19.26-6.31zM219.97 65.04q-.28.9-1.23.96.91-3.21 1.23-.96"/><path d="M225.56 64.99q-.06 1.9-1.41 3.92-.24.37-.03.79.29.57.65.04.31-.47.4-1.04.06-.36.4-.23.53.2.28.86a1.05 1.04-46.5 0 0 .02.81q.5 1.09-.37 1.24-.23.04-.44-.13-1.78-1.56-3.52-3.07zM228.23 71.6q.13.26.19.55t-.21.43q-.12.06-.27.09-.16.04-.22-.11-1.29-3.14-.75-6.52.07-.4.47-.34l.29.04q.4.06.38.47-.15 2.57 0 4.92.01.24.12.47M192.76 66.04l3.52 5.55q-4.74 1.92-9.76 2.94-.5.1-.71-.29a.57.55 51.9 0 1 .07-.64zM242.77 67.28q.14.25-.07.45-.17.17-.39.17a.38.38 0 0 1-.31-.61q.45-.58.77-.01M281.01 67.96l-1.59 1a.48.47-26.9 0 0-.19.57l.12.3q.19.5.68.28l3.93-1.83q1.09-.23 1.96.11-.01.89-1.15.54-.48-.14-.87.16l-5.98 4.53q-.41.31-.87.07l-2.83-1.47 2.63-.35q.82-.11.37-.81l-.86-1.31a1.28 1.27 41.3 0 0-2.22.14q-.57 1.2.08 2.33-1.1.06-1.61-.52a.54.54 0 0 1 .03-.75q.68-.65.33-1.57-.29-.78-.59-.01-.21.57-.19 1.14.02.71-.64.46l-5-1.85q3.01-1.3 6.19-.99.46.67 1.52-.4z"/><path fill="#fff" d="m202.51 70.9-1.47-.03 1.98-2.58q.31-.4.46.07.4 1.18-.97 2.54M274.26 67.73q-1.06 1.07-1.52.4.63-.32 1.52-.4M281.01 67.96l2.95.32-3.93 1.83q-.49.22-.68-.28l-.12-.3a.48.47-26.9 0 1 .19-.57z"/><path d="m250.34 68.38-4.82 3.13q-.08-.81-.74-1.3a.49.49 0 0 0-.77.27q-.19.76.62 1.45-.43.45-.04.73.73.54 1.37 1.12-.43.35-.49 1.11-2.52-1.48-5.06-1.18l1.08-4.02q.14-.51.67-.56z"/><path fill="#fff" d="m285.92 68.39.3.2q.21.79 1.54 1.38a.46.46 0 0 1-.02.85l-2.65 1q-.13.05-.27 0-.21-.07-.26-.25-.11-.36.21-.57.41-.26.44-.78.05-.7-.41-.17l-1.65 1.89a1.98 1.94 11.9 0 1-.88.56q-1.8.55-3.48 1.65-.5.32.01.62 1.24.74 1.32 1.71l-.55.19q-.91-.86-2.1-1.35-.45-.19-.87.05-5.01 2.78-10.23 3.91-.64.14-.08.47 3.11 1.8 6.49 2.02l-1.29 1.08q-.84.15-1.55-.27-3.5-2.11-7.05-2.5-1.27-.14-2.19-.45-1.04-.36-2.13-.69a.35.35 0 0 0-.43.19l-.18.38q-.23.48.3.51l1.85.09q.28.02.46.24.12.16.01.35-.29.53-.05 1.09c.31.74 1.24 1.29 1.36 1.95q.11.65-.27.12-1.24-1.71-2.91-2.58a1.09 1.09 0 0 0-1.6 1.02q.05.95-.83 2.29l-.62-1.38q.27-.21.39-.44.27-.51-.27-.73-.79-.32-1.73-.32l-1.81-1.51 3.82-.19q.56-.03.73-.56l.12-.35a.57.56-80.3 0 0-.52-.74l-6.09-.21q-.3-.66-.83-1.17-.23-.6.04-.76.17.17.35.34l6.33.79a1 1 0 0 0 1.04-1.4l-1.35-3 .91-.5q-.03 1.49.77 2.43.31.37.39.85l.16 1q.09.53.59.74 4.48 1.81 7.34.98 5.13-1.5 9.68-3.64a.34.34 0 0 0 .02-.61q-4.34-2.34-8.54-3.65-.68-.21-.45.47.86 2.5 2.17 4.88.1.17-.07.27h-.01q-.19.11-.29-.08-1.71-3.32-3.57-6.58.36-.57 1.57-.4l5 1.85q.66.25.64-.46-.02-.57.19-1.14.3-.77.59.01.35.92-.33 1.57a.54.54 0 0 0-.03.75q.51.58 1.61.52l2.83 1.47q.46.24.87-.07l5.98-4.53q.39-.3.87-.16 1.14.35 1.15-.54"/><path d="m288.81 69.13 2.32 2.52q-1.09.56-2.02.31-2.79-.34-3.95 1.52l-5.04 3q-.08-.97-1.32-1.71-.51-.3-.01-.62 1.68-1.1 3.48-1.65a1.98 1.94 11.9 0 0 .88-.56l1.65-1.89q.46-.53.41.17-.03.52-.44.78-.32.21-.21.57.05.18.26.25.14.05.27 0l2.65-1a.46.46 0 0 0 .02-.85q-1.33-.59-1.54-1.38z"/><path fill="#fff" d="M274.22 72.22q-.65-1.13-.08-2.33a1.28 1.27 41.3 0 1 2.22-.14l.86 1.31q.45.7-.37.81zM291.13 71.65l-2.32-2.52 3.12 1.08a.69.69 0 0 1 .27 1.13q-.54.57-1.07.31"/><path d="m238.51 72.97.53-2.52a.73.72 78.8 0 1 .28-.43l.54-.39q.59-.43.48.29-.31 2.1-1.28 3.31-.81 1.01-.55-.26M264.98 69.52q1.86 3.26 3.57 6.58.1.19.29.08h.01q.17-.1.07-.27-1.31-2.38-2.17-4.88-.23-.68.45-.47 4.2 1.31 8.54 3.65a.34.34 0 0 1-.02.61q-4.55 2.14-9.68 3.64-2.86.83-7.34-.98-.5-.21-.59-.74l-.16-1q-.08-.48-.39-.85-.8-.94-.77-2.43.43-.46 1.19-.42l.23 1.9q.08.67.38.07.71-1.42-.15-2.43zM237.17 72.08q-.17-.82.07-1.64.2-.7.46-.02.33.85-.03 1.71-.33.81-.5-.05"/><path fill="#fff" d="M245.52 71.51q-.34.55-.89.42-.81-.69-.62-1.45a.49.49 0 0 1 .77-.27q.66.49.74 1.3"/><path d="m237.01 74.37-6.6.73q-1.12-2.31 2.89-3.31.69-.17.82.52.22 1.11.96 2.21.07.11.19.07l.28-.07q.28-.08.2-.35l-.8-2.68q-.12-.43.32-.43l.45.01a.4.4 0 0 1 .39.48q-.18.9.57 1.33.36.2.21.59-.16.43.12.9"/><path fill="#fff" d="M258.44 71.58q.86 1.01.15 2.43-.3.6-.38-.07l-.23-1.9q.05-.16.46-.46M289.11 71.96l-3.95 1.52q1.16-1.86 3.95-1.52"/><path d="m255.88 72.96 1.35 3a1 1 0 0 1-1.04 1.4l-6.33-.79z"/><path fill="#fff" d="M246.95 74.67q-.14.49-.45.87-.62-.21-1.03-.65.06-.76.49-1.11.96.32.99.89"/><path d="m246.95 74.67 2.56 1.56q-.27.16-.04.76l-2.97-1.45q.31-.38.45-.87M279.57 76.67l-6.79 5.1q-3.38-.22-6.49-2.02-.56-.33.08-.47 5.22-1.13 10.23-3.91.42-.24.87-.05 1.19.49 2.1 1.35m-8.21 4.08q.61.48.31-.23-.26-.64-.8-1.03-.65-.48-.31.25.29.6.8 1.01M252.24 80.21q-1.16-.55-1.94-2.05l6.09.21a.57.56-80.3 0 1 .52.74l-.12.35q-.17.53-.73.56zM271.49 82.85q-.39 1.24 3.18 1.87-.35.36-.38.76-2.21-.47-4.49-.8c-1.49-.22-2.71.29-4.22.07q-.5-1.54-2.03-1.82-.55-.1-.31.41.63 1.36 2.04 1.5l-9-.25q.88-1.34.83-2.29a1.09 1.09 0 0 1 1.6-1.02q1.67.87 2.91 2.58.38.53.27-.12c-.12-.66-1.05-1.21-1.36-1.95q-.24-.56.05-1.09.11-.19-.01-.35-.18-.22-.46-.24l-1.85-.09q-.53-.03-.3-.51l.18-.38a.35.35 0 0 1 .43-.19q1.09.33 2.13.69.92.31 2.19.45 3.55.39 7.05 2.5.71.42 1.55.27m-9.41 1.6q-.08.09-.01.18.11.15.27.07t0-.17q-.07-.04-.13-.09-.07-.06-.13.01"/><path fill="#fff" d="M271.36 80.75q-.51-.41-.8-1.01-.34-.73.31-.25.54.39.8 1.03.3.71-.31.23"/><path d="M255.66 83.21q-.93-.45-1.61-1.49.94 0 1.73.32.54.22.27.73-.12.23-.39.44"/><path fill="#fff" d="M265.58 84.75q-.15.04-.3.09-1.41-.14-2.04-1.5-.24-.51.31-.41 1.53.28 2.03 1.82M262.21 84.44q.06.05.13.09.16.09 0 .17t-.27-.07q-.07-.09.01-.18.06-.07.13-.01M276.28 85.13q.62.15-.1 1.2l-1.89-.85q.03-.4.38-.76.52.34 1.61.41"/><path d="M287.86 86.03q-.78 1.76-1.21 3.38-.05.17-.01.33.04.22.32.3a.32.31-65.5 0 0 .36-.14q1.1-1.76 1.28-3.77.84-.22 1.88.01l1.13 2.21q.23.46-.25.67-1.87.79-3.46 2.04a.54.54 0 0 1-.64.03q-.18-.12-.37-.1-.51.05-.78.47-1.15 1.78-3.03.91-.07-2.61-1.7-4.13-.73-.69-2.51-1.05-1.46-.31-2.69-.86.72-1.05.1-1.2.39-.12.74-.08.26.04.62.35c2.09 1.83 7.52.86 10.22.63"/><path fill="#fff" d="M288.6 86.13q-.18 2.01-1.28 3.77a.32.31-65.5 0 1-.36.14q-.28-.08-.32-.3-.04-.16.01-.33.43-1.62 1.21-3.38.23-.04.74.1"/><path fill="#fff" d="M291.76 86.33q.22.78.63 1.1.42.32.85.02l1.25-.89q.69-.04 1.22.29l-1.85 1.5q-.38.3-.11.7l.48.75q.28.42.68.1.47-.37 1.11-.35a.9.89-84.1 0 0 .91-.75l.27-1.7q.86-.12 1.58.18-.18.66-.12 1.12a.66.66 0 0 0 1.03.45q.36-.25.75-.92l4.82 1.46q-.63.14-2.27-.1-1.56-.22-1.98 1.29a.46.45-77.3 0 1-.51.33q-.35-.07-.42-.42-.1-.52-.61-.62-.17-.03-.35-.01-.55.06-.87.52l-.45.64q-.33.48-.72.04-.72-.81-1.88-.45-.44.14-.3.58.34 1.09 1.37 1.27a.77.77 0 0 1 .63.62q.17.8.91 1.04a.67.66-73.7 0 1 .44.81l-.26.98q-.14.49.04.96l1.82 4.9-.87.24-2.13-4.75q-.17-.38-.49-.11-.29.24-.19.79a.77.73 18.8 0 0 .21.4q.84.83-.01 1.78-.39.44-.39-.15l.01-.99q.01-1.28-.53-.12-.41.86-.53 2.01-.11 1.17-.5.06-.39-1.14.32-2.61a.51.51 0 0 0-.6-.71q-2.09.6-4.23.38-2.76-.28-.42 1.2.66.41 1.25.9 1.7 1.41-.38.67-.77-.27-1.43-.93-.76-.75-.38.25l2.31 6.15q-.04.24-.09.49.17 1.36-.48 1.1l-.34-.35q.24-.46.14-.72-1.43-3.8-3.21-7.7-.33-.72-1-.73-.58 0-.54.58.05.61-.33 1.07-.04.05-.09.02l-.23-.12a.33.32-62.2 0 1-.13-.43q.11-.24.11-.49-.02-.52-.54-.5l-2.78.1q1.1-1.12 2.91-1.47.51-.1.27-.56-.53-1.05-1.82-1.55l.36-2.6q1.88.87 3.03-.91.27-.42.78-.47.19-.02.37.1a.54.54 0 0 0 .64-.03q1.59-1.25 3.46-2.04.48-.21.25-.67l-1.13-2.21q.69-.07 1.28.19m.92 3.35q.16-.41-.23-.56a.26.26 0 0 0-.33.14q-.14.29.13.53.29.26.43-.11m-3.53 2.92q-.51.13-1.01.24-1.25.27-1.76 1.46l-.18.41a1.15 1.15 0 0 0 1.13 1.61q3.9-.25 7.6-2.26a.64.63-41 0 0 .08-1.07q-.76-.57-1.04-1.51-.15-.51-.64-.71-2.21-.91-3.85.4-.19.14-.29.35-.1.22.1.36.73.51-.14.72m3.33 3.48q-.46-.04-.89.15-.67.29.03.51 2.05.65 3.53-.91.57-.6-.24-.43-.72.15-1.4.49-.49.23-1.03.19"/><path d="m294.49 86.56-1.25.89q-.43.3-.85-.02-.41-.32-.63-1.1zM297.2 87.1l-.27 1.7a.9.89-84.1 0 1-.91.75q-.64-.02-1.11.35-.4.32-.68-.1l-.48-.75q-.27-.4.11-.7l1.85-1.5zM300.44 87.93q-.39.67-.75.92a.66.66 0 0 1-1.03-.45q-.06-.46.12-1.12zM292.68 89.68q-.14.37-.43.11-.27-.24-.13-.53a.26.26 0 0 1 .33-.14q.39.15.23.56M305.26 89.39q6.04 2.95 10.93 7.81-1.3.7-1.2 2.76-7.88-.56-15.14 1.81l-1.82-4.9q-.18-.47-.04-.96l.26-.98a.67.66-73.7 0 0-.44-.81q-.74-.24-.91-1.04a.77.77 0 0 0-.63-.62q-1.03-.18-1.37-1.27-.14-.44.3-.58 1.16-.36 1.88.45.39.44.72-.04l.45-.64q.32-.46.87-.52.18-.02.35.01.51.1.61.62.07.35.42.42a.46.45-77.3 0 0 .51-.33q.42-1.51 1.98-1.29 1.64.24 2.27.1m-3.17 2.27q-1.09.44-2.3.42-.66-.02-.96.56-.17.32-.19.66-.06 1.02.78.45l3.94-2.68q.12-.09.11-.14-.04-.13-.07-.25-.09-.33-.38-.14-.31.2-.42.57a.85.85 0 0 1-.51.55m-4.78.61a.18.18 0 0 0-.14.26q.18.39.55.16.26-.15.01-.31-.19-.12-.42-.11M289.29 91.88q-.2-.14-.1-.36.1-.21.29-.35 1.64-1.31 3.85-.4.49.2.64.71.28.94 1.04 1.51a.64.63-41 0 1-.08 1.07q-3.7 2.01-7.6 2.26a1.15 1.15 0 0 1-1.13-1.61l.18-.41q.51-1.19 1.76-1.46.5-.11 1.01-.24.87-.21.14-.72"/><path fill="#fff" d="M302.6 91.11q.11-.37.42-.57.29-.19.38.14.03.12.07.25.01.05-.11.14l-3.94 2.68q-.84.57-.78-.45.02-.34.19-.66.3-.58.96-.56 1.21.02 2.3-.42a.85.85 0 0 0 .51-.55M297.31 92.27q.23-.01.42.11.25.16-.01.31-.37.23-.55-.16a.18.18 0 0 1 .14-.26"/><path d="m281.36 98.55-.04-.29q-.05-.4.19-.74.9-1.2 1.21-2.55 1.29.5 1.82 1.55.24.46-.27.56-1.81.35-2.91 1.47M293.51 95.89q.68-.34 1.4-.49.81-.17.24.43-1.48 1.56-3.53.91-.7-.22-.03-.51.43-.19.89-.15.54.04 1.03-.19"/><path d="M298.98 102.01q-1.1.77-2.18.82l-4.23-.75q-.49-.09-.14.27l1.87 1.95-3.43 1.93-2.31-6.15q-.38-1 .38-.25.66.66 1.43.93 2.08.74.38-.67-.59-.49-1.25-.9-2.34-1.48.42-1.2 2.14.22 4.23-.38a.51.51 0 0 1 .6.71q-.71 1.47-.32 2.61.39 1.11.5-.06.12-1.15.53-2.01.54-1.16.53.12l-.01.99q0 .59.39.15.85-.95.01-1.78a.77.73 18.8 0 1-.21-.4q-.1-.55.19-.79.32-.27.49.11z"/><path fill="#fff" d="M316.19 97.2q.4.3.57.7-.9.05-.64.86.34 1.03.15 1.51l-1.28-.31q-.1-2.06 1.2-2.76"/><path d="M316.76 97.9q.6.29.71.89-.47.23-.16.68.22.32.42-.01.43.35.54.68a.49.49 0 0 1-.42.65q-.77.07-1.58-.52.19-.48-.15-1.51-.26-.81.64-.86M289.96 107.47c-2.39-1.75-4.91-1.94-5.61-5.59q.41-.18.28-.62-.18-.58-.37-.27-.7-1.37-2.9-2.44l2.78-.1q.52-.02.54.5 0 .25-.11.49a.33.32-62.2 0 0 .13.43l.23.12q.05.03.09-.02.38-.46.33-1.07-.04-.58.54-.58.67.01 1 .73 1.78 3.9 3.21 7.7.1.26-.14.72"/><path fill="#fff" d="M317.47 98.79q.43.28.26.67-.2.33-.42.01-.31-.45.16-.68M284.35 101.88q-.23-.39-.09-.89.19-.31.37.27.13.44-.28.62M296.8 102.83l-2.5 1.47-1.87-1.95q-.35-.36.14-.27z"/><path d="M301.22 109.74q-.29.79-.3 1.55-1.89-1.39-2.93-1.54-3.99-.58-7.69-1.93.65.26.48-1.1z"/><path fill="#fff" d="m301.97 110.08.49 6.92a3.54 3.53-86.5 0 0 2.84 3.22q2.54.51 5.09-1.1.84-.53.8.47-.04.99-.87 1.6-.23.16-.49.04-.84-.42-1.5.22a.99.98-62.8 0 1-.8.26q-2.25-.3-4.61.24a1.28 1.28 0 0 0-.96.96c-.42 1.87-1.17 4.88 1.11 5.88a.7.68 29.8 0 0 .82-.21l1.7-2.22a.23.23 0 0 1 .42.16q-.11 1.26.74 2.08.42.41-.12.64-.6.25-1.24.07-.26-.08-.4.16l-.2.33a.34.34 0 0 0 .25.51q2.26.34 4.52-.31.27-.08.35.19l.08.3a.3.29 70.6 0 1-.17.36q-1.59.61-3.1 1.45-.74.41-1.48.11c-1.25-.51-2.74-.5-4.14-.59q-.5-.03-.66.45-.11.31.16.53.49.39.11.89-.33.42-.88.74-.57-.84.38-1.78.21-.54-.03-1.35c.06-1.44.69-2.64.8-3.91q.49-5.81.19-11.68l-.05-.74v-1.51l.01-.69-.21-1.48q.01-.76.3-1.55.53.31.75.34m2.28 10.68q.53-.13.07-.42-.98-.61-2.17-.25-.65.19-.04.49.97.48 2.14.18"/><path d="M314.3 116.71q.07 1.68-1.73 2.65-1.1.59.15.55.65-.02 1.29-.28.56-.22.71.36l.67 2.6q.19.75-.53.47-1.49-.59-3-.5-.7.05-.09.38 1.58.87 3.23 1.06a1.35 1.34-9.4 0 1 1.08.77l.88 1.86a1.29 1.29 0 0 1-1.54 1.78q-1.86-.56-3.51-.55-.23 0-.35.2-.07.12-.07.25.02.48.49.49.35 0 .48.3.23.54-.35.49-.43-.03-.62.38-.39.81.48.54 2.15-.68 4.81-1.22c1.23-.25 1.97.29 2.31 1.42-3.27.47-6.41.6-9.54 1.63q-3.64 1.2-7.27 2.43-1.25.42-1.61 1.33-.42-.61-1.13-.9.22-.33.29-.77.55-.32.88-.74.38-.5-.11-.89-.27-.22-.16-.53.16-.48.66-.45c1.4.09 2.89.08 4.14.59q.74.3 1.48-.11 1.51-.84 3.1-1.45a.3.29 70.6 0 0 .17-.36l-.08-.3q-.08-.27-.35-.19-2.26.65-4.52.31a.34.34 0 0 1-.25-.51l.2-.33q.14-.24.4-.16.64.18 1.24-.07.54-.23.12-.64-.85-.82-.74-2.08a.23.23 0 0 0-.42-.16l-1.7 2.22a.7.68 29.8 0 1-.82.21c-2.28-1-1.53-4.01-1.11-5.88a1.28 1.28 0 0 1 .96-.96q2.36-.54 4.61-.24a.99.98-62.8 0 0 .8-.26q.66-.64 1.5-.22.26.12.49-.04.83-.61.87-1.6.04-1-.8-.47-2.55 1.61-5.09 1.1a3.54 3.53-86.5 0 1-2.84-3.22l-.49-6.92q6.79 2.43 12.33 6.63m-2.95.54q-.2.38.19.2.49-.21.67-.74.37-1.07-.37-.22-.22.27-.49.76m-2.37 5.19q.22-.39-.22-.43-.26-.02-.48.11-.19.11-.21.34l-.04.26a.25.25 0 0 0 .35.26q.39-.18.6-.54m-1.25 1.36-.35 1.41q-.17.68.24.11.51-.72.36-1.51-.11-.57-.25-.01m2.727 4.401a1.24.56-8.3 0 0-1.308-.375 1.24.56-8.3 0 0-1.146.733 1.24.56-8.3 0 0 1.308.375 1.24.56-8.3 0 0 1.146-.733M301.12 113.46l.01-.69zM301.17 115.71q-.11-.33-.05-.74z"/><path fill="#fff" d="M311.35 117.25q.27-.49.49-.76.74-.85.37.22-.18.53-.67.74-.39.18-.19-.2M316.16 118.12q-1.06 2.72.83 5.2a1.28 1.26 77.1 0 0 .72.46l2.88.66q.52.11.28.58l-.17.34q-.12.22-.35.15l-2.36-.69q-.72-.21-.54.51.27 1.13 1 1.83a.81.81 0 0 0 .99.11q.59-.37 1.26-.29.81.09.14.56-.49.36-1.08.47-.5.09-.45.6.04.48.48.62c1.87.58 4.34.46 5.9 2.48q-1.91-.91-4.28-.96-.06-.59-.47-.86-.43-.28-.82.04-.46.38-.36.86l-.67-.08c-.34-1.13-1.08-1.67-2.31-1.42q-2.66.54-4.81 1.22-.87.27-.48-.54.19-.41.62-.38.58.05.35-.49-.13-.3-.48-.3-.47-.01-.49-.49 0-.13.07-.25.12-.2.35-.2 1.65-.01 3.51.55a1.29 1.29 0 0 0 1.54-1.78l-.88-1.86A1.35 1.34-9.4 0 0 315 124q-1.65-.19-3.23-1.06-.61-.33.09-.38 1.51-.09 3 .5.72.28.53-.47l-.67-2.6q-.15-.58-.71-.36-.64.26-1.29.28-1.25.04-.15-.55 1.8-.97 1.73-2.65z"/><path d="M322.7 124.6q-.69.97-.66 2.08.01.54.55.45.82-.14 1.25-.89l3.07 5.19a.35.35 0 0 1-.3.53q-.38 0-.92-.25c-1.56-2.02-4.03-1.9-5.9-2.48q-.44-.14-.48-.62-.05-.51.45-.6.59-.11 1.08-.47.67-.47-.14-.56-.67-.08-1.26.29a.81.81 0 0 1-.99-.11q-.73-.7-1-1.83-.18-.72.54-.51l2.36.69q.23.07.35-.15l.17-.34q.24-.47-.28-.58l-2.88-.66a1.28 1.26 77.1 0 1-.72-.46q-1.89-2.48-.83-5.2zM304.25 120.76q-1.17.3-2.14-.18-.61-.3.04-.49 1.19-.36 2.17.25.46.29-.07.42"/><path fill="#fff" d="M308.98 122.44q-.21.36-.6.54a.25.25 0 0 1-.35-.26l.04-.26q.02-.23.21-.34.22-.13.48-.11.44.04.22.43M307.98 123.81q.15.79-.36 1.51-.41.57-.24-.11l.35-1.41q.14-.56.25.01M322.7 124.6q1.04.91 1.14 1.64-.43.75-1.25.89-.54.09-.55-.45-.03-1.11.66-2.08"/><ellipse fill="#fff" rx="1.24" ry=".56" transform="rotate(-8.3 1039.285 -2066.723)"/><path d="m321.41 130.75-1.65.04q-.1-.48.36-.86.39-.32.82-.04.41.27.47.86M300.18 131.3q.24.81.03 1.35-.25-.69-.03-1.35"/><path fill="#fff" d="m300.67 136.1 2.91 5.36q-.19 1.01-.87 1.15l-.16-.41q.22-.16.19-.37-.04-.27-.41-.28-.81-1.94-2.31-3.54.11-1.1-.74-1.05-.23-1.08.26-1.76.71.29 1.13.9"/><path d="M300.02 138.01q-.76-.14-.74-1.05.85-.05.74 1.05M302.55 142.2q-.52-.33-.22-.65.37.01.41.28.03.21-.19.37M303.75 144.69q-.26-.24-.53-.15-.25.08-.33.32-.25.75.45 1.16a.46.45 29 0 0 .64-.18q.19-.36 0-.84l1.64.14q.27 1.44-.47 1.96-.53.37-.16.91l.67.95q.3.42-.08.76-.41.36-.93.61-.02.01-.03.04-.06.15-.03.3.08.45.51.27l1.23-.53q.55-.24.89.25.58.86.97 1.77.12.27.39.4.21.09.42-.02.69-.36.02-.77-.64-.39-1.06-.96-.5-.68.26-1.04l3.47-1.66q7.9 5.02 12.93 13.52-.47-.07-.8.01-.61.15-.23.64.48.62 1.48.58l1.58 4.84q-.84.02-1.34.84-.26.41-.71.62l-2.02.92-4.81-1.6q-.13-2.02 1.37-3.49.18-.18-.01-.35l-.21-.19q-.14-.12-.24.03-.63.84-1.61.95-.48.06-.78.43l-1.55 1.92q-.39.05-.7-.12-.26-1.23-1.62-2.14-.62-.4.07-.68 1.42-.58 2.63-.29.42.1.71-.21l.97-1.02q.48-.52-.21-.66c-1.47-.3-2 .64-3.25.99q-2.29.62-4.41 1.35-1.09.37-.04.86l3.21 1.51-3.57-.18-.64-.67a.75.75 0 0 0-.84-.17q-.75.31-.35 1.01-1.77.29-3.8-.2 1.98-.3 2.28-1.72.17-.8.91-.46.52.22.99-.11.7-.49-.12-.74-.9-.28-1.8-.39-.88-.11-.29.55.16.16.2.38.11.59-.46.74-1.27.33-2.08 1.1-.34.33-.07.74-.81.78-.64 2.46.05.5-.14.96-.44 1.04-.17 2.04-.63.09-1.09-.02l1.04-9.06 2.11.24q.65.07.31-.48-.66-1.09-2.23-1.45l.46-6.47q.84-.58.59-1.84-.12-.58.41-.83.33-.16.59-.4.72-.62-.2-.4-.67.16-1.33 1.11l.17-8.47q.01-.49.26-.91.4-.65.11-1.39.68-.14.87-1.15.58 1.82.17 3.23m6.3 6.11-.21-.19q-.65-.59-.27.2.47.99 1.34 1.44.61.31.4-.34-.21-.7-.99-.95-.15-.05-.27-.16m8.48 7.15-6.06-4.74a.01.01 0 0 0-.02 0l-.12.15a3.74.74 38 0 0 2.5 2.89l.19.14a3.74.74 38 0 0 3.4 1.72l.11-.15a.01.01 0 0 0 0-.01m-8.73-3.31q.32.22.71.05.36-.17.05-.41-.26-.22-.6-.22-1.02.03-.16.58m3.755 5.499a2.3.49 58.4 0 0-.788-2.216 2.3.49 58.4 0 0-1.622-1.702 2.3.49 58.4 0 0 .788 2.216 2.3.49 58.4 0 0 1.622 1.702m-11.405-2.479-.22.25q-.04.05 0 .09 1.52 1.55 3.07 2.89.27.22.6.1a.47.47 0 0 0 .16-.78l-2.8-2.59q-.43-.39-.81.04m19.42 1.47q-.23 0-.38.19a.25.25 0 0 0 .2.41q.27 0 .39-.26.17-.35-.21-.34m-7.86 2.24a.39.39 0 0 0 .15.43q.47.33.73-.01a.5.5 0 0 0-.34-.8q-.42-.04-.54.38m6.86 2.47q.48-1.79 2.15-2.05.11-.02.2-.07.2-.11.2-.31a.4.4 0 0 0-.38-.39q-2.29-.12-3.78 1.45-.23.23 0 .45l1.11 1.06q.37.36.5-.14m-11.253.035a1.57.55 33 0 0-1.017-1.316 1.57.55 33 0 0-1.617-.394 1.57.55 33 0 0 1.017 1.316 1.57.55 33 0 0 1.617.394"/><path fill="#fff" d="m303.75 144.69.23.31q.19.48 0 .84a.46.45 29 0 1-.64.18q-.7-.41-.45-1.16.08-.24.33-.32.27-.09.53.15M305.62 145.14l1.13.75 1.02 1.79q.27.47.81.45.84-.03 1.71-.43l1.4.68-3.47 1.66q-.76.36-.26 1.04.42.57 1.06.96.67.41-.02.77-.21.11-.42.02-.27-.13-.39-.4-.39-.91-.97-1.77-.34-.49-.89-.25l-1.23.53q-.43.18-.51-.27-.03-.15.03-.3.01-.03.03-.04.52-.25.93-.61.38-.34.08-.76l-.67-.95q-.37-.54.16-.91.74-.52.47-1.96m1.22 3.37q-.06-.49-.31-.89-.46-.77-.45.13.01.57.41.93.41.38.35-.17"/><path d="M310.29 147.7q-.87.4-1.71.43-.54.02-.81-.45l-1.02-1.79zM306.84 148.51q.06.55-.35.17-.4-.36-.41-.93-.01-.9.45-.13.25.4.31.89"/><path fill="#fff" d="M310.32 150.96q.78.25.99.95.21.65-.4.34-.87-.45-1.34-1.44-.38-.79.27-.2l.21.19q.12.11.27.16M302.11 155.74v-1.48q.11-.5.06-.88.66-.95 1.33-1.11.92-.22.2.4-.26.24-.59.4-.53.25-.41.83.25 1.26-.59 1.84"/><path d="M302.17 153.38q.05.38-.06.88z"/><path fill="#fff" d="M318.53 157.95a.01.01 0 0 1 0 .01l-.11.15a3.74.74 38 0 1-3.4-1.72l-.19-.14a3.74.74 38 0 1-2.5-2.89l.12-.15a.01.01 0 0 1 .02 0zM309.96 154.06q.34 0 .6.22.31.24-.05.41-.39.17-.71-.05-.86-.55.16-.58"/><ellipse fill="#fff" rx="2.3" ry=".49" transform="rotate(58.4 14.66 358.532)"/><path fill="#fff" d="m302.96 157.62 2.8 2.59a.47.47 0 0 1-.16.78q-.33.12-.6-.1-1.55-1.34-3.07-2.89-.04-.04 0-.09l.22-.25q.38-.43.81-.04M321.78 159.47q-.12.26-.39.26a.25.25 0 0 1-.2-.41q.15-.19.38-.19.38-.01.21.34M313.71 161.37q.12-.42.54-.38a.5.5 0 0 1 .34.8q-.26.34-.73.01a.39.39 0 0 1-.15-.43M320.57 163.84q-.13.5-.5.14l-1.11-1.06q-.23-.22 0-.45 1.49-1.57 3.78-1.45a.4.4 0 0 1 .38.39q0 .2-.2.31-.09.05-.2.07-1.67.26-2.15 2.05M324.62 161.9q.31.55.45 1.23-1 .04-1.48-.58-.38-.49.23-.64.33-.08.8-.01"/><ellipse fill="#fff" rx="1.57" ry=".55" transform="rotate(33 -121.173 601.405)"/><path fill="#fff" d="M301.46 163.9q.27-.78.19-1.69 1.57.36 2.23 1.45.34.55-.31.48zM314.04 167.93q-1.21.15-1.94-.29l-3.21-1.51q-1.05-.49.04-.86 2.12-.73 4.41-1.35c1.25-.35 1.78-1.29 3.25-.99q.69.14.21.66l-.97 1.02q-.29.31-.71.21-1.21-.29-2.63.29-.69.28-.07.68 1.36.91 1.62 2.14"/><path fill="#fff" d="M302.9 167.43q.41.13-.44.09-.27-.41.07-.74.81-.77 2.08-1.1.57-.15.46-.74-.04-.22-.2-.38-.59-.66.29-.55.9.11 1.8.39.82.25.12.74-.47.33-.99.11-.74-.34-.91.46-.3 1.42-2.28 1.72M317.77 168.75q-.75.24-.98-.34.13-.21.1-.41-.07-.46-.51-.3-.3.11-.59.52-.58.13-1.05-.17l1.55-1.92q.3-.37.78-.43.98-.11 1.61-.95.1-.15.24-.03l.21.19q.19.17.01.35-1.5 1.47-1.37 3.49M308.53 167.46l-1.83.17q-.4-.7.35-1.01a.75.75 0 0 1 .84.17z"/><path d="M316.79 168.41q-.5.03-1-.19.29-.41.59-.52.44-.16.51.3.03.2-.1.41"/><path fill="#fff" d="m326.65 167.97.15.83q-.39.7.06 1.42l.03.55-1.84.51-2.47-.93 2.02-.92q.45-.21.71-.62.5-.82 1.34-.84"/><path d="M326.86 170.22q-.45-.72-.06-1.42.28.74.06 1.42M326.89 170.77q.08.39-.05.65-.12.25-.5.26-.67.01-1.29-.4z"/><path fill="#fff" d="M301.51 172.98q2.81.59 4.51 2.54l-5.79-1.68q-.08-.39.19-.88.46.11 1.09.02"/><path d="M306.02 175.52q-.14.05-.15.19-.01.13-.14.15l-5.51.71.01-2.73z"/><path fill="#fff" d="M306.96 176.16q-.38-.05-.71-.04-.34.01-.63.2-2.08 1.35-5.04 1.2-.46-.02-.46-.48 0-.21.1-.47l5.51-.71q.13-.02.14-.15.01-.14.15-.19.67-.14.94.64"/><path d="m306.96 176.16.7.83-5.57 6.42q-.3.35-.75.24l-2.32-.52 1.2-6.56q-.1.26-.1.47 0 .46.46.48 2.96.15 5.04-1.2.29-.19.63-.2.33-.01.71.04"/><path fill="#fff" d="m308.43 177.46-5.13 6.3a.64.64 0 0 0 .41 1.03l3.74.5q.37.05.41-.32.03-.26.19-.45.22-.24.54-.39 1.44-.66 2.95-1.44.94 1.25 1.27 2.29-.5.19-.81.47-.64.58.22.49l.85-.09q.88 2.06 1.09 4.74l-2.63-.9q-.53-.18-.15.22 1.14 1.22 3.06 1.58l.29 3.54c-2.39 1.57-4.7 3.92-7.81 2.16q-.49-.28-.63-.83l-1.27-4.98a.4.4 0 0 0-.49-.29l-.27.07q-.17.04-.13.2l.82 4.06q.23 1.1-.71.48-1.89-1.26-4.09-2.02-.66-.23-.47.45.19.69.85 1.43-.49-.17-.88-.15-.49.02-.61.5l-1.2 4.58a1.17 1.15 34.3 0 0 .2 1.01l2.04 2.73-1.04.28a.49.48 80.1 0 0-.34.49q.01.36-.27.52-.9.51-.68-.5.3-1.33-1.04-2.5l2.12-14.67q1.88-.77 1.94-3.08.02-.51-.46-.72-.56-.23-1.2-.29.08-.42-.09-.83l2.32.52q.45.11.75-.24l5.57-6.42zm-5.39 10.41q.39 1.01.61 2.02.11.5.51.19l.33-.26q.11-.08.08-.21l-.41-1.75q-.12-.52.38-.7 1.58-.56 2.82.93.03.04.06 0l.15-.23q.15-.23-.07-.4-1.48-1.14-3.33-1.35-.52-.06-.72-.55-.17-.41-.6-.4-.69 0-.78.68-.07.6-.45 1.07-.67.83.39.7.06 0 .1-.03.65-.46.93.29m6.55-1.87q.66-.02 1.32-.01.17.01.02-.07-1.18-.67-2.56-.36-.25.06-.44.23-.12.11-.08.3.13.7.69.28.46-.34 1.05-.37m.889 3.099a1.31.31 23.8 0 0-1.074-.813 1.31.31 23.8 0 0-1.324-.245 1.31.31 23.8 0 0 1.074.813 1.31.31 23.8 0 0 1.324.245"/><path d="M311.54 182.69q-1.51.78-2.95 1.44-.32.15-.54.39-.16.19-.19.45-.04.37-.41.32l-3.74-.5a.64.64 0 0 1-.41-1.03l5.13-6.3zM298.83 188.05q-.37-1.02.15-1.47.6-.23.95-.76.32-.5-.22-.74-.23-.11-.57-.06l-.03-1.06q.64.06 1.2.29.48.21.46.72-.06 2.31-1.94 3.08"/><path fill="#fff" d="m298.98 186.58.16-1.56q.34-.05.57.06.54.24.22.74-.35.53-.95.76"/><path d="m312.81 184.98.26.87-.85.09q-.86.09-.22-.49.31-.28.81-.47M302.11 187.58q-.04.03-.1.03-1.06.13-.39-.7.38-.47.45-1.07.09-.68.78-.68.43-.01.6.4.2.49.72.55 1.85.21 3.33 1.35.22.17.07.4l-.15.23q-.03.04-.06 0-1.24-1.49-2.82-.93-.5.18-.38.7l.41 1.75q.03.13-.08.21l-.33.26q-.4.31-.51-.19-.22-1.01-.61-2.02-.28-.75-.93-.29M309.59 186q-.59.03-1.05.37-.56.42-.69-.28-.04-.19.08-.3.19-.17.44-.23 1.38-.31 2.56.36.15.08-.02.07-.66-.01-1.32.01"/><ellipse rx="1.31" ry=".31" transform="rotate(23.8 -292.774 828.104)"/><path d="M314.16 190.59q.27.27.28.9-1.92-.36-3.06-1.58-.38-.4.15-.22zM314.73 195.03q.36.91-.22 1.43-1.03.36-1.63 1.14-.17.21.07.34.16.08.31.15.93.38-.06.57l-2.53.48-10.14-3.38q-.66-.74-.85-1.43-.19-.68.47-.45 2.2.76 4.09 2.02.94.62.71-.48l-.82-4.06q-.04-.16.13-.2l.27-.07a.4.4 0 0 1 .49.29l1.27 4.98q.14.55.63.83c3.11 1.76 5.42-.59 7.81-2.16"/><path fill="#fff" d="M314.51 196.46q.27 1.91-.64 3.69-.23.45-.68.23l-2.52-1.24 2.53-.48q.99-.19.06-.57-.15-.07-.31-.15-.24-.13-.07-.34.6-.78 1.63-1.14"/><path d="M296.71 202.72q1.34 1.17 1.04 2.5-.22 1.01.68.5.28-.16.27-.52a.49.48 80.1 0 1 .34-.49l1.04-.28q.67.48 1.33 1.57l-2.36.55a1.99 1.99 0 0 0-.84 3.45q1.1.95 1.68 2.23.4.88-.37.28l-1.09-.85q-.56-.43-.56.27l-.02 2.22q0 .26-.18.46-.26.3-.67-.13a.37.34-69.2 0 1-.1-.25l-.08-3.14q-.01-.51-.36-.87-.57-.6-1.46-.96zm-.98 5.52a.45.44 21.3 0 0 .2.45q.29.19.55.04a.43.43 0 0 0 .08-.69q-.67-.64-.83.2"/><path fill="#fff" d="M304.29 214.1q-1.11.33-2.21-.7-.36-.34-.81-.35-.76-.03-.05.23.74.27 1.03 1.04.18.5-.29.74l-3.2 1.6q-.49.25-.77-.23-.27-.47-.74-.46-2.01.05-3.92-1.24l1.67-5.47q.89.36 1.46.96.35.36.36.87l.08 3.14a.37.34-69.2 0 0 .1.25q.41.43.67.13.18-.2.18-.46l.02-2.22q0-.7.56-.27l1.09.85q.77.6.37-.28-.58-1.28-1.68-2.23a1.99 1.99 0 0 1 .84-3.45l2.36-.55z"/><path fill="#fff" d="M295.73 208.24q.16-.84.83-.2a.43.43 0 0 1-.08.69q-.26.15-.55-.04a.45.44 21.3 0 1-.2-.45"/><path d="M304.29 214.1q.49.78.41 1.9c-2.49-.47-4.12.99-6.29 1.89q-.47.19-.54.69l-.4 2.97q-.69-.21-1.02-.59l.19-1.54q.07-.58-.51-.47-1.02.18-1.74.92-1.32-.35-1.96.88-.2-.2-.6-.22.02-1.44.59-2.59l.62.63q.37.38.85.19l2.41-.96q1.39-.55-.05-.97l-3.02-.89q-.24-.41.1-1.21 1.91 1.29 3.92 1.24.47-.01.74.46.28.48.77.23l3.2-1.6q.47-.24.29-.74-.29-.77-1.03-1.04-.71-.26.05-.23.45.01.81.35 1.1 1.03 2.21.7"/><path fill="#fff" d="m304.7 216 .16.77q-.04.37.04.71.21 4.63-.41 8.98-.32 2.31-1.48.29-1.72-3.02-5.54-5.2l.4-2.97q.07-.5.54-.69c2.17-.9 3.8-2.36 6.29-1.89M292.42 217.94l.81-2 3.02.89q1.44.42.05.97l-2.41.96q-.48.19-.85-.19z"/><path d="M304.9 217.48q-.08-.34-.04-.71z"/><path fill="#fff" d="m296.45 220.96-2.06-1.09q.72-.74 1.74-.92.58-.11.51.47zM292.43 220.75l-.25 6.46q-.02.5.18.94l2.42 5.48q-.43 1.11-.95 1.48-.44.31-.81-.07l-2.33-2.36 1.14-12.15q.4.02.6.22"/><path d="m290.69 232.68 2.33 2.36q.37.38.81.07.52-.37.95-1.48l.54 3.33q-2.32 3.07-3.44 7.45-1.02-.86-.73-1.34l2.28-5.63q.2-.51-.32-.66l-3-.84q-.14-.37-.02-.98.82-.05 1.25.72.03.05.08.02l.28-.14q.21-.11.09-.3-.61-.95-1.52-1.54.07-.51.42-1.04"/><path fill="#fff" d="M290.09 234.96q-.03-.64.18-1.24.91.59 1.52 1.54.12.19-.09.3l-.28.14q-.05.03-.08-.02-.43-.77-1.25-.72M291.15 243.07l-1.21-1.33q-.4-.44-.67.08-.65 1.26-.78 2.79l-1.06-.45 2.68-8.22 3 .84q.52.15.32.66zM295.32 236.96l-.13 9.47q-1.04-.82-2.58-.47l-.73-1.55q1.12-4.38 3.44-7.45"/><path d="m287.43 244.16 1.06.45q.27.74-.39 1.42l-.83-.38q-.51-.48.16-1.49"/><path fill="#fff" d="M288.1 246.03q.32.97 1.19 1.92l-2.26 4.01q-1.15-3.06.24-6.31z"/><path d="m295.19 246.43-.16.61-2.03-.2q-.45-.14-.39-.88 1.54-.35 2.58.47"/><path fill="#fff" d="M295.03 247.04q-.1.6-.46 1-.46.51-.94.3-.57-.25-.63-1.5z"/><path d="m289.86 249.01-2 3.9q-.78-.19-.83-.95l2.26-4.01q.66.47.57 1.06"/><path fill="#fff" d="M289.86 249.01q1.31 3.07 1.01 5.65a.67.66 27.6 0 1-1.16.36l-1.85-2.11z"/></svg>