<svg xmlns="http://www.w3.org/2000/svg" viewBox="0 0 382 382"><g fill="none" stroke="gray" stroke-width="2"><path d="M241.66 60.08q-1.3 2.46-3.56 4.56a.45.44 51.4 0 0-.06.58l.28.39q.21.29.44.02 2.22-2.48 4.48-4.79.16-.16.32-.02l.01.01q.16.13.04.31-.98 1.46-2.15 2.85-.37.43-.08.91l4.04 6.78M244.47 72.32l-2.79-2.52q-.16-.13-.34-.06t-.27.2q-.17.24-.01.48l2.29 3.5M240.79 73.65l.33-.07q.76-.15-.03-.31-.2-.04-.36-.14-.25-.16-.31-.46-.26-1.5-1.12-2.64-.56-.74-.7.18l-.55 3.85M237.03 74.21l.74-5.42q.14-1.01-.64-.35-1.19 1-2.55 2.05-.14.11-.26-.03-.05-.06.01-.12 1.61-1.66 2.91-3.21.47-.56-.12-1l-3.39-2.6q-.55-.42-.57.28-.01 1.08-.58 1.99c-1.95 3.1 1.65 6.35 3.12 8.8M234.19 74.62q-.38-1.17-.94-2.34c-.76-1.56-2.07-2.09-2.66-3.68q-.18-.5-.51-.08l-.7.86a.71.71 0 0 0-.08.77l2.41 4.81M227.48 73.51q1.81-1.56.55-3.3-.32-.45-.87-.52-1.08-.16-1.76-1.16-.5-.74-.26-1.77.19-.85.61-1.89M228 63.56q-.03.38.08.42a.54.53 12.2 0 0 .74-.47q.01-.19-.27-.36M229.9 62.81q-.23 2.15.38 3.69.21.52.38-.02.62-1.96.28-4.15M233.99 61.47q-.01 1.58 1.53 2.14.49.18.41-.34l-.31-2.21" vector-effect="non-scaling-stroke"/><path d="M236.28 60.86q.89 1.43.75 2.3-.43 2.7.9.31.51-.93-.47-2.95M238.8 60.26q.01.87.38 1.45.32.49.66.01.4-.57.44-1.45M245.54 60.06l2.39 5.07a1.14 1.09 36.5 0 1 .1.58l-.25 2.71q-.1 1.05.46.16l.88-1.41q.12-.2.35-.24.16-.03.32.02.29.11.27.41l-.11 1.44M226.88 73.03q.42-1.42.03-1.99-.38-.54-.76 0-.34.48-.38 1.51M224.96 71.97q.26-1.88-1.3-3.17-.36-.3-.08-.66.71-.92.42-2.14M288.2 69.22q.98 3.28-.43 3.44M280.59 76.44q-.17-2.97-1.47-5.54-.24-.46-.06-.95.16-.47 0-.93-.06-.17-.24-.13l-.25.05a.26.25 79.2 0 0-.19.29l1.01 5.95q.11.67-.55.54-1.66-.32-3.16-1.28-.44-.28-.96-.22-.57.07-1.02.51-.45.45-.07.96l2.44 3.3M281.04 86.33l-.27 1.06M263.03 84.9q-.24-.61-1.55.02M261.13 84.86q-2.75-1.62-5.86-1.73M245.79 75.02l-.74-1.96M250.12 76.38q.53 1.34 1.38 1.73.53.25.54-.33.01-1.12-.85-2.06M252.17 74.99q.3 1.51 1.16 2.34.44.41.75-.11c.94-1.6 3.24-2.67 2.92-4.79" vector-effect="non-scaling-stroke"/><path d="M257 72.43q1.82-.33 2.54-1.17M262.52 70.32q-1.19.38-.44 2.35a.32.32 0 0 0 .53.11l3.16-3.33M268.5 68.63q1.06 1.89 2.17 2.95.42.4 1.03.34.51-.06.37-.55l-.9-3.2M246.81 60.04q0 2.19 1.47 2.65.47.15.6.62.27.96.25 1.95-.01.26.24.34.3.1.37-.21.11-.4.39-.74.59-.7.79.19l.67 3.09M290.18 69.62q-1.09.09-1.23 1.01-.04.34.19.69.21.32.44.61M258.26 84.91q-.94-.67-2.02-.49M279.07 76.94l-3.82-1.48q-.54-.21-.22.27l1.83 2.7M283.95 86.31l.26.53q.23.47-.18.78l-1.93 1.48" vector-effect="non-scaling-stroke"/><path d="m281.51 86.31.78 1.39q.31.55.69.04.31-.43.02-1.5M248 60.08l.39.67q.24.41.71.45.79.08.96.91.14.65.69 1.02 1.53.99 2.65 2.58.27-.28-.19-.47a.68.68 0 0 1-.17-1.13q1.35-1.16 1.95-2.67.07-.17.03-.35-.05-.19-.26-.27a.38.37-62.5 0 0-.45.15l-1.49 2.34q-.47.73-.78-.07l-1.12-2.93M260.64 64.97q.18-.39.2-.69.05-1.2-.5-.19-.19.34-.2 1.12M212.75 61.27q2.01 2.63 7.06 4" vector-effect="non-scaling-stroke"/><path d="M218.41 66.16q-1.55-2.03-3.59-2.33-.79-.12-.76.68.07 2.21 1.88 2.75.3.09.28.4-.02.17-.14.34M216.24 69.02q.68.86.57 1.7M214.81 70.74l-.77-1.84a1.84 1.58-46.8 0 0-3.12.33q-.22.46.3 1.22" vector-effect="non-scaling-stroke"/><path d="M210.05 70.73q.11-2.46 2.26-3.33.88-.35.15-.97-.31-.25-.41-.68a.47.47 0 0 0-.92-.01q-.5 1.93-2.24 2.75-.28.14-.39.43-.05.13-.11.25-.41 1-.56-.07-.06-.35-.22-.68-.26-.48-.13-1.02.73-3.01.46-6.14M291.14 86.32l-5.44 3.29q-.56.34-.42-.31l.12-.55q.14-.65-.34-.19-1.12 1.07-2.54 1.59M249.21 60.12q.04.67.54.04M222.01 61.53l1.02 2.11M207.72 71.22q-.77-.74-1.74-1.19-.49-.23-.69.27-.15.4-.11.82M203.94 70.98q.19-.69.01-1.27-.16-.47-.62-.65-1.15-.44-2.1-1.26-.11-.1-.14-.24-.06-.25.16-.36.34-.17.66.03l.38.25q.45.29.19-.18-1.09-1.96-2.69-2.01-.53-.01-.65-.53-.25-1.11-.86-1.56M199.99 62.79q-.01.69.32 1.01a.33.33 0 0 0 .55-.18q.17-.9-.38-1.19M286.3 86.11q.81.48-.84.77-.4.07-.34-.54M293.04 86.5l-6.48 3.7a1.1 1.09-26.2 0 0-.47 1.37q1.07 2.54 2.48 4.7.69 1.05-.54.81-.63-.12-.96.44-.62 1.07-1.13-.05c-.65-1.41-1.12-2.62-2.88-3.51M283.1 92.95l.37-.32q.25-.21-.04-.35-.2-.1-.35-.25M224 61.83q-.12.84.25 1.24" vector-effect="non-scaling-stroke"/><path d="m198.28 63.2-.41.82q-.22.43-.65.22l-.71-.35M202.7 70.91l-.87-.8q-.45-.42-.74.12l-.35.66M196.84 71.44q-.56-.95-1.76-1.47-.8-.34.02-.63.23-.08.48-.06a.54.53.5 0 0 .56-.54q0-.19-.05-.38-.13-.41-.53-.57l-1.62-.67a.34.33-40.7 0 1 .05-.63q1.92-.51 3.44.22.77.37.2-.27-.57-.63-1.58-.74-.82-.08-1.08-.96M293.98 86.47q.23 1.43.97 2.85.24.46.02.93c-.86 1.75-2.12 3.15-2.9 4.97q-1.11 2.61-4.88 3.8a.46.46 0 0 0-.32.51q.06.48.38.87.42.52.58-.14.18-.75.89-.99 2.63-.89 3.26-3.21.13-.49.46-.87l3.13-3.76a.4.39 39.4 0 1 .56-.05q1.05.86 1.15 2.49a.48.47 69.6 0 0 .76.35q.3-.22.17-.64-.07-.22-.27-.44-2.37-2.72-.01-5.88M306.57 90.23q.22.37.62.19M311.84 93.54q-1.81 1.59 1.12 4.57.4.4.67-.09l1.13-2.04M315.68 96.72q-1.21 1.57-1.57 3.13M312.64 99.83q-.84-2.03-2.29-3.56-.35-.36-.76-.08-2.28 1.58-3.91 4.01M300.87 101.5c1.61-2.46 5.33-7.17 5.64-9.92q.06-.61-.27-.1l-4.34 6.65a.68.68 0 0 1-1.21-.14q-.71-1.96-2.01-2.91a.31.31 0 0 0-.46.4l2.13 3.69q.21.36.08.76-.35 1.03-.23 1.84M296.32 103.25l-4.63-4.17a.28.28 0 0 0-.39.02l-.18.21q-.2.22.02.42l4.41 3.94M293.15 104.95l-2.78-4.84a.25.25 0 0 0-.35-.09l-.29.17q-.22.13-.09.36l2.85 4.78M292.73 107.85l-1.18.27M289.83 107.22q.39.03.54-.41.11-.3 0-.59-.87-2.44-1.68-4.9a.28.27 78.4 0 0-.27-.18l-.33.02a.4.4 0 0 0-.36.53l1.62 5.01M193.86 72.5q-.98-.54-2.25-.42-.62.06-.65-.56l-.08-1.55q-.03-.44.41-.34.96.22 1.94.17t.2-.64q-.54-.41-1.19-.38-1.24.06-1.55-.71" vector-effect="non-scaling-stroke"/><path d="M295.2 86.84q-.06.68.29 1.18.32.46.76.1.48-.39.66-1M306.74 112.13q-.85.7-1.95 1.14-.35.14-.12-.16.06-.07.13-.11.4-.22.22-.67-.05-.13-.18-.19-.12-.05-.22.03l-3.37 2.78M188.18 70.75q.02.48.17.54a1.14 1.14 0 0 0 1.54-.79q.25-1.05-.43-1.15M307.79 112.76l-6.5 3.72M313.09 115.98l-4.7 2.97q-.13.08-.05.21l.16.25a.4.4 0 0 0 .55.13l4.89-2.98M317.78 119.85q-11.51.92-17.31 10.71M301.5 122.9q1.96-.41 3.03-1.12 1.96-1.29-.35-.88-1 .18-2.71 1.21" vector-effect="non-scaling-stroke"/><path d="M318.95 120.96q-.98 4.25-.01 8.52.1.42-.33.52l-.26.06q-.25.06-.32-.19-1-4.09-.24-8.21a.59.58-87.7 0 0-.63-.69q-12.38 1.23-17.38 13.34M312.75 149.09l-10.48-.06M313.71 149.76l-11.35.4M321.05 157l-3.56 1.58q-.17.08-.22.26-.05.17.03.34a.37.36-15.3 0 0 .36.2q2.27-.15 3.96-1.73M322.77 159.44q-.64-.14-1.15.02-.61.19-.08.54.43.29.93.23.47-.06.3-.79M325.26 163.49q-.51 2.21 1.23 3.76" vector-effect="non-scaling-stroke"/><path d="M326.75 169.3q-2.17-1.65-2.72-4.52-.11-.58-.7-.63-1.88-.15-3.12 1.11-.52.54-.05 1.12 1.35 1.63 1.87 3.72M320.93 169.81l-1.07-2.47q-.21-.47-.57-.11l-1.35 1.34M312.49 167.66l-5.7-3.85q-.52-.35.08-.54l5.8-1.74q.27-.08.23-.36l-.04-.32q-.03-.31-.33-.24-3.23.72-6.31 2.04-.69.29-1.26-.19l-2.98-2.51M302.17 152.84q2.76 3.63 7.01 5.48.23.1.34-.13l.13-.25q.06-.11-.06-.18-4.24-2.35-7.19-6.15M310.34 167.5q-1.43-1.36-3.5-1.75-.54-.11-.87-.55-1.27-1.72-3.48-1.11-.6.16-.2.64 1.12 1.32 2.45 2.34.24.18-.02.05-.07-.04-.14-.05c-1.3-.2-1.62-.98-3.28-.87M301.72 163.25q1.49.2.2-2.07" vector-effect="non-scaling-stroke"/><path d="M306.02 167.48q-1.09-.32-1.02.28M305 167.76q-.5-.07-.96.1M301.7 168.98q-.43.57-.62.31M301.11 167.45l.04-.66M301.55 170.46q.04-.74-.5-.7M301.44 171.28q.02.41-.29.63-.19.14-.42-.03M308.53 177.64q-.62.15-.87-.04-3.47-2.57-7.36-4.45M309.36 178.73q-3.7.73-7.02-.19a1.65 1.65 0 0 0-2.07 1.9q.1.53-.96 1.3M300.1 177.2q.01-.59.51-1.16.42-.47.31-.72-.16-.32-.82-.57" vector-effect="non-scaling-stroke"/><path d="m309.93 179.84-2.48.23q-.77.07-.24.64l.73.77q.56.59-.17.93-.59.27-1.19.32-.82.05-.89-.77-.12-1.25-1.06-1.75-.68-.36-.53.39.16.83.72 1.56a.6.59 66.6 0 1-.37.94l-2.36.44q-.2.04-.33.19-.18.21-.15.47.08.77.84.65l2.65-.38a.7.69 1.1 0 1 .79.81c-.76 4.17 3.95 3.77 6.43 3.86q1.23.05.43-.88l-1.26-1.47q-.46-.53.22-.71.59-.15 1.29-.09M314.2 190.45l-3.97-.21q-.72-.04-.2.47l.97.97q.56.55 1.32.38.92-.2 2.15.06M314.66 192.82q-.88-.01-1.31.48-.34.39.1.68l1.25.82M314.54 196.06q-3.63.27-6.92 1.77M306.04 197.12l5.84-1.68q1.84-.53.27-1.63-1.22-.85-3.63-.31-4.23.95-8.58 2.08M298.88 196.25q-.45-.5-1.02-.79M298.76 188.48q.56-.56 1.13-.33a.38.38 0 0 1 .07.67q-.24.15-.5.22-.56.15.02.15.25 0 .48-.05 2.54-.54 5.07-.55 1.44 0 .16-.67-2.23-1.16-5.3-.8-.52.06-.68-.44-.25-.77.51-.94a.7.7 0 0 0 .51-.92q-.28-.79-1.19-.62" vector-effect="non-scaling-stroke"/><path d="M298.83 187.21q.15-.32.13-.74M311.96 182.8q-2.26.57-2.53 2.3-.08.54.45.48 1.32-.14 2.66-.82M301.87 207.32l-5.89-.48q-.17-.01-.28-.14l-.18-.21M302.8 208.82q-2.05.24-3.93-1.2-.39-.3-.89-.28l-2.6.1M304.84 218.06q-.39.16-.35.61.04.48.4.56M304.91 220.03q-1.05.04-1.93.52-.51.28-.61.85l-.44 2.39q-.13.66.53.56l2.33-.34M304.78 224.98l-2.77.49M301.02 224.28q.1-.96-.61-1.26-.35-.16-.62-.44l-6.54-6.75M297.51 221.74l-4.63-4.66M292.74 219.27q-.32.25-.64.36M292.22 221.74l-.66.42M294.27 232.14q-2.59.75-3.99 2.86M291.23 225.74q.53.1.59-.2.07-.34-.35-.38M294.65 233.76q-1.39.81-2.76 1.64-.12.08-.05.21t.2.06q1.37-.67 2.85-1.02M295.19 236.26l-5.7 1.51M295.51 237.51l-6.47 1.54M295.05 247.08q-2.37-.03-1.88.85M288.85 244.05q-.79-.74-.37-1.3.95-1.3-.09-1.78M288.28 246.02q-1.29-.16-1.14-.73M288.78 247.25q.95 1.7-2.45 2.75M290.83 251.81l-.77 1.11q-.35.5.22.72.28.11.62.07M287.96 253.12q1.59-1.09 2.28-2.35a.62.62 0 0 0-.74-.89l-2.89.91M228.07 65.99l-.23 2.75q-.09.98.43.15.84-1.37.26-2.96-.37-1.02-.46.06M225.93 66.36q-.03.49.36.8.34.28.38-.16.04-.43-.15-.77-.51-.96-.59.13M239.26 66.48q-.31.49.28.42a.28.28 0 0 0 .14-.49q-.25-.21-.42.07M242.82 68.84l-1.34-2.08q-.44-.68-.39.13.09 1.52 1.37 2.31.98.61.36-.36M239.25 69.03q.24-.03.46-.13.41-.16.05-.42-.31-.22-.65-.06-.43.2-.34.67.04.2.24.13.16-.05.24-.19M212.89 65.003a1.52.67 55.5 0 0-.308-1.633 1.52.67 55.5 0 0-1.413-.873 1.52.67 55.5 0 0 .309 1.632 1.52.67 55.5 0 0 1.413.874M209.07 64c-.31.84-.21 2.17-.33 3.09q-.1.78.6.43.23-.12.34-.35.71-1.6.1-3.18-.36-.92-.71.01M204.7 67.45q.47.56 1.13.55.5-.02.2-.42-.42-.57-1.14-.56a.26.26 0 0 0-.19.43M199.974 70.02a1.17.74 30.9 0 0-.624-1.235 1.17.74 30.9 0 0-1.384.034 1.17.74 30.9 0 0 .624 1.236 1.17.74 30.9 0 0 1.384-.034M273.59 73.34a.73.73 0 0 0-.73-.73.73.73 0 0 0-.73.73.73.73 0 0 0 .73.73.73.73 0 0 0 .73-.73M258.58 76.52q-.38-.05-.46-.47-.36-2.1-1.19-.14-.8 1.89-2.42 3.3a.86.86 0 0 0-.1 1.18q.64.82 1.55 1.31.71.39.88-.4.61-2.76 2.83-4.92a1.5 1.5 0 0 1 2.32.28q1.3 2.1 2.89 3.58a.35.35 0 0 0 .53-.45q-1.95-2.97-4.12-5.68-1-1.25-2.15-.38-.44.34-.32.88l.3 1.31a.5.49-3.3 0 1-.54.6M267.365 82.905a1.26.53 47.9 0 0-.452-1.29 1.26.53 47.9 0 0-1.238-.58 1.26.53 47.9 0 0 .452 1.29 1.26.53 47.9 0 0 1.238.58M189.08 72.35q.09.03.18.03.16 0 .04-.1-.09-.07-.2-.06-.33.02-.02.13M284.63 91.14q-.01-.05.03-.08.06-.05-.02-.06v-.01q-.07-.03-.06.04.22 1.79 1.17 3.57.05.08.14.04l.24-.1q.31-.13.16-.43-.72-1.46-1.57-2.75-.06-.1-.09-.22M287.03 102.3q-.64.34-1.14 1-.17.23 0 .48.1.15.25.1.17-.05.29-.17.53-.51.9-1.09.45-.71-.3-.32M307.755 119.749a1.11.46-28.6 0 0-1.195.127 1.11.46-28.6 0 0-.755.935 1.11.46-28.6 0 0 1.195-.127 1.11.46-28.6 0 0 .755-.935M314.34 160.78q.3.07.49-.15a.3.3 0 0 0-.29-.49q-.23.05-.35.26-.19.3.15.38M323.11 162.61a.5.5 0 0 0-.5-.5.5.5 0 0 0-.5.5.5.5 0 0 0 .5.5.5.5 0 0 0 .5-.5M302.42 191.12c-1.27.9-2.8 1.3-3.77 2.52q-.94 1.19.56.9l10.3-2.02q.69-.14.21-.65-3.32-3.59-7.3-.75M309.68 181.04q-.53.18-.72.72-.16.46.31.32.58-.16.75-.71a.27.26 88.5 0 0-.34-.33M307.01 185.78a.49.49 0 0 0 .8.09q.63-.71.81-1.54.11-.54-.44-.54-2.21.01-1.17 1.99M296.53 217.5q-.09-.02-.01.03 1.79 1.3 4.09 1.1.26-.02.23-.27l-.03-.25q0-.07-.07-.06-1.81.16-4.21-.55M302.79 219.51q.09.02.18-.02.31-.12-.03-.11-.09 0-.17.06-.05.05.02.07M300.93 221.39q.5-.26-.05-.4-.52-.13-1.03.22-.4.28.07.35.52.09 1.01-.17M292.02 241.11q.2.04.33-.12a.07.07 0 0 0-.08-.11q-.58.16-.25.23" vector-effect="non-scaling-stroke"/></g><path d="M241.66 60.08q-1.3 2.46-3.56 4.56a.45.44 51.4 0 0-.06.58l.28.39q.21.29.44.02 2.22-2.48 4.48-4.79.16-.16.32-.02l.01.01q.16.13.04.31-.98 1.46-2.15 2.85-.37.43-.08.91l4.04 6.78-.95.64-2.79-2.52q-.16-.13-.34-.06t-.27.2q-.17.24-.01.48l2.29 3.5-2.56-.27.33-.07q.76-.15-.03-.31-.2-.04-.36-.14-.25-.16-.31-.46-.26-1.5-1.12-2.64-.56-.74-.7.18l-.55 3.85q-.54.18-1.02.15l.74-5.42q.14-1.01-.64-.35-1.19 1-2.55 2.05-.14.11-.26-.03-.05-.06.01-.12 1.61-1.66 2.91-3.21.47-.56-.12-1l-3.39-2.6q-.55-.42-.57.28-.01 1.08-.58 1.99c-1.95 3.1 1.65 6.35 3.12 8.8q-.94.13-1.51.02-.38-1.17-.94-2.34c-.76-1.56-2.07-2.09-2.66-3.68q-.18-.5-.51-.08l-.7.86a.71.71 0 0 0-.08.77l2.41 4.81q-2.02.23-4.23-1.45 1.81-1.56.55-3.3-.32-.45-.87-.52-1.08-.16-1.76-1.16-.5-.74-.26-1.77.19-.85.61-1.89.64-.71 2.25-1.31-.03.38.08.42a.54.53 12.2 0 0 .74-.47q.01-.19-.27-.36l1.35-.34q-.23 2.15.38 3.69.21.52.38-.02.62-1.96.28-4.15 1.6-.82 3.05-.86-.01 1.58 1.53 2.14.49.18.41-.34l-.31-2.21.66-.2q.89 1.43.75 2.3-.43 2.7.9.31.51-.93-.47-2.95.66-.32 1.34-.26.01.87.38 1.45.32.49.66.01.4-.57.44-1.45.7-.26 1.38-.19m-13.59 5.91-.23 2.75q-.09.98.43.15.84-1.37.26-2.96-.37-1.02-.46.06m-2.14.37q-.03.49.36.8.34.28.38-.16.04-.43-.15-.77-.51-.96-.59.13m13.33.12q-.31.49.28.42a.28.28 0 0 0 .14-.49q-.25-.21-.42.07m3.56 2.36-1.34-2.08q-.44-.68-.39.13.09 1.52 1.37 2.31.98.61.36-.36m-3.57.19q.24-.03.46-.13.41-.16.05-.42-.31-.22-.65-.06-.43.2-.34.67.04.2.24.13.16-.05.24-.19"/><path fill="#fff" d="m245.54 60.06 2.39 5.07a1.14 1.09 36.5 0 1 .1.58l-.25 2.71q-.1 1.05.46.16l.88-1.41q.12-.2.35-.24.16-.03.32.02.29.11.27.41l-.11 1.44-4.53 2.88-4.04-6.78q-.29-.48.08-.91 1.17-1.39 2.15-2.85.12-.18-.04-.31l-.01-.01q-.16-.14-.32.02-2.26 2.31-4.48 4.79-.23.27-.44-.02l-.28-.39a.45.44 51.4 0 1 .06-.58q2.26-2.1 3.56-4.56z"/><path d="M246.81 60.04q0 2.19 1.47 2.65.47.15.6.62.27.96.25 1.95-.01.26.24.34.3.1.37-.21.11-.4.39-.74.59-.7.79.19l.67 3.09q-.93 1.08-1.64.87l.11-1.44q.02-.3-.27-.41-.16-.05-.32-.02-.23.04-.35.24l-.88 1.41q-.56.89-.46-.16l.25-2.71a1.14 1.09 36.5 0 0-.1-.58l-2.39-5.07z"/><path fill="#fff" d="m248 60.08.39.67q.24.41.71.45.79.08.96.91.14.65.69 1.02 1.53.99 2.65 2.58.27-.28-.19-.47a.68.68 0 0 1-.17-1.13q1.35-1.16 1.95-2.67.07-.17.03-.35-.05-.19-.26-.27a.38.37-62.5 0 0-.45.15l-1.49 2.34q-.47.73-.78-.07l-1.12-2.93c1.55.17 2.94-.02 4.43.34q3.51.87 7.23 2.31a.9.89-84.7 0 1 .55.67q.29 1.65-2.49 1.34.18-.39.2-.69.05-1.2-.5-.19-.19.34-.2 1.12l-8.55 2.72-.67-3.09q-.2-.89-.79-.19-.28.34-.39.74-.07.31-.37.21-.25-.08-.24-.34.02-.99-.25-1.95-.13-.47-.6-.62-1.47-.46-1.47-2.65z"/><path d="M249.21 60.12q.04.67.54.04.63-.13 1.17.15l1.12 2.93q.31.8.78.07l1.49-2.34a.38.37-62.5 0 1 .45-.15q.21.08.26.27.04.18-.03.35-.6 1.51-1.95 2.67a.68.68 0 0 0 .17 1.13q.46.19.19.47-1.12-1.59-2.65-2.58-.55-.37-.69-1.02-.17-.83-.96-.91-.47-.04-.71-.45l-.39-.67q.65-.08 1.21.04"/><path fill="#fff" d="M249.75 60.16q-.5.63-.54-.04.29-.11.54.04M240.28 60.27q-.04.88-.44 1.45-.34.48-.66-.01-.37-.58-.38-1.45zM237.46 60.52q.98 2.02.47 2.95-1.33 2.39-.9-.31.14-.87-.75-2.3.64-.29 1.18-.34M212.75 61.27q2.01 2.63 7.06 4l-1.4.89q-1.55-2.03-3.59-2.33-.79-.12-.76.68.07 2.21 1.88 2.75.3.09.28.4-.02.17-.14.34-.29.14-.32.5-.03.39.48.52.68.86.57 1.7-1.01.21-2 .02l-.77-1.84a1.84 1.58-46.8 0 0-3.12.33q-.22.46.3 1.22-.56.39-1.17.28.11-2.46 2.26-3.33.88-.35.15-.97-.31-.25-.41-.68a.47.47 0 0 0-.92-.01q-.5 1.93-2.24 2.75-.28.14-.39.43-.05.13-.11.25-.41 1-.56-.07-.06-.35-.22-.68-.26-.48-.13-1.02.73-3.01.46-6.14zm.14 3.733a1.52.67 55.5 0 0-.308-1.633 1.52.67 55.5 0 0-1.413-.873 1.52.67 55.5 0 0 .309 1.632 1.52.67 55.5 0 0 1.413.874M209.07 64c-.31.84-.21 2.17-.33 3.09q-.1.78.6.43.23-.12.34-.35.71-1.6.1-3.18-.36-.92-.71.01"/><path d="m222.01 61.53 1.02 2.11-3.22 1.63q-5.05-1.37-7.06-4z"/><path fill="#fff" d="m235.62 61.06.31 2.21q.08.52-.41.34-1.54-.56-1.53-2.14.9-.49 1.63-.41"/><path d="M207.94 61.26q.27 3.13-.46 6.14-.13.54.13 1.02.16.33.22.68.15 1.07.56.07.06-.12.11-.25.11-.29.39-.43 1.74-.82 2.24-2.75a.47.47 0 0 1 .92.01q.1.43.41.68.73.62-.15.97-2.15.87-2.26 3.33l-2.33.49q-.77-.74-1.74-1.19-.49-.23-.69.27-.15.4-.11.82-.56.12-1.24-.14.19-.69.01-1.27-.16-.47-.62-.65-1.15-.44-2.1-1.26-.11-.1-.14-.24-.06-.25.16-.36.34-.17.66.03l.38.25q.45.29.19-.18-1.09-1.96-2.69-2.01-.53-.01-.65-.53-.25-1.11-.86-1.56.72-.37 1.71-.41-.01.69.32 1.01a.33.33 0 0 0 .55-.18q.17-.9-.38-1.19zm-3.24 6.19q.47.56 1.13.55.5-.02.2-.42-.42-.57-1.14-.56a.26.26 0 0 0-.19.43"/><path fill="#fff" d="M224 61.83q-.12.84.25 1.24-.6 1.17-1.22.57l-1.02-2.11q1.06-.38 1.99.3"/><path d="M224.25 63.07q-.37-.4-.25-1.24.92-.19 1.39.08.59.33.06.76-.36.3-1.2.4"/><path fill="#fff" d="M230.94 62.33q.34 2.19-.28 4.15-.17.54-.38.02-.61-1.54-.38-3.69.42-.63 1.04-.48M200.48 62.43q.55.29.38 1.19a.33.33 0 0 1-.55.18q-.33-.32-.32-1.01.14-.35.49-.36"/><ellipse rx="1.52" ry=".67" transform="rotate(55.5 45.43 233.376)"/><path d="m198.28 63.2-.41.82q-.22.43-.65.22l-.71-.35z"/><path fill="#fff" d="m203.94 70.98-1.24-.07-.87-.8q-.45-.42-.74.12l-.35.66q-2.01-.11-3.9.55-.56-.95-1.76-1.47-.8-.34.02-.63.23-.08.48-.06a.54.53.5 0 0 .56-.54q0-.19-.05-.38-.13-.41-.53-.57l-1.62-.67a.34.33-40.7 0 1 .05-.63q1.92-.51 3.44.22.77.37.2-.27-.57-.63-1.58-.74-.82-.08-1.08-.96.36-.75 1.54-.85l.71.35q.43.21.65-.22l.41-.82q.61.45.86 1.56.12.52.65.53 1.6.05 2.69 2.01.26.47-.19.18l-.38-.25q-.32-.2-.66-.03-.22.11-.16.36.03.14.14.24.95.82 2.1 1.26.46.18.62.65.18.58-.01 1.27m-3.966-.96a1.17.74 30.9 0 0-.624-1.235 1.17.74 30.9 0 0-1.384.034 1.17.74 30.9 0 0 .624 1.236 1.17.74 30.9 0 0 1.384-.034M228.55 63.15q.28.17.27.36a.54.53 12.2 0 1-.74.47q-.11-.04-.08-.42.19-.29.55-.41M237.03 74.21l-1.33.39c-1.47-2.45-5.07-5.7-3.12-8.8q.57-.91.58-1.99.02-.7.57-.28l3.39 2.6q.59.44.12 1-1.3 1.55-2.91 3.21-.06.06-.01.12.12.14.26.03 1.36-1.05 2.55-2.05.78-.66.64.35z"/><path d="M208.74 67.09c.12-.92.02-2.25.33-3.09q.35-.93.71-.01.61 1.58-.1 3.18-.11.23-.34.35-.7.35-.6-.43M218.41 66.16 216.08 68q.12-.17.14-.34.02-.31-.28-.4-1.81-.54-1.88-2.75-.03-.8.76-.68 2.04.3 3.59 2.33M260.64 64.97q.17.25-.5.24.01-.78.2-1.12.55-1.01.5.19-.02.3-.2.69M194.97 64.74q.26.88 1.08.96 1.01.11 1.58.74.57.64-.2.27-1.52-.73-3.44-.22a.34.33-40.7 0 0-.05.63l1.62.67q.4.16.53.57.05.19.05.38a.54.53.5 0 1-.56.54q-.25-.02-.48.06-.82.29-.02.63 1.2.52 1.76 1.47l-2.98 1.06q-.98-.54-2.25-.42-.62.06-.65-.56l-.08-1.55q-.03-.44.41-.34.96.22 1.94.17t.2-.64q-.54-.41-1.19-.38-1.24.06-1.55-.71 1.87-2.11 4.28-3.33"/><path fill="#fff" d="M225.75 64.87q-.42 1.04-.61 1.89-.24 1.03.26 1.77.68 1 1.76 1.16.55.07.87.52 1.26 1.74-.55 3.3-.27 0-.6-.48.42-1.42.03-1.99-.38-.54-.76 0-.34.48-.38 1.51l-.81-.58q.26-1.88-1.3-3.17-.36-.3-.08-.66.71-.92.42-2.14.64-.63 1.75-1.13"/><path fill="#fff" d="m227.84 68.74.23-2.75q.09-1.08.46-.06.58 1.59-.26 2.96-.52.83-.43-.15M226.52 66.23q.19.34.15.77-.04.44-.38.16-.39-.31-.36-.8.08-1.09.59-.13"/><path d="M224 66q.29 1.22-.42 2.14-.28.36.08.66 1.56 1.29 1.3 3.17c-2.71-1.63-5.16-.98-8.15-1.25q.11-.84-.57-1.7c1.19-.61 2.8.13 4.17-.01q.5-.05.8-.44 1.22-1.56 2.79-2.57"/><path fill="#fff" d="M239.26 66.48q.17-.28.42-.07a.28.28 0 0 1-.14.49q-.59.07-.28-.42M241.48 66.76l1.34 2.08q.62.97-.36.36-1.28-.79-1.37-2.31-.05-.81.39-.13M204.89 67.02q.72-.01 1.14.56.3.4-.2.42-.66.01-1.13-.55a.26.26 0 0 1 .19-.43"/><path d="M288.2 69.22q.98 3.28-.43 3.44-4.01 1.3-7.18 3.78-.17-2.97-1.47-5.54-.24-.46-.06-.95.16-.47 0-.93-.06-.17-.24-.13l-.25.05a.26.25 79.2 0 0-.19.29l1.01 5.95q.11.67-.55.54-1.66-.32-3.16-1.28-.44-.28-.96-.22-.57.07-1.02.51-.45.45-.07.96l2.44 3.3-4.64 3.98q-.48.41.12.62l7.76 2.71a2.08 2.01-36.9 0 0 .87.11l.86-.08-.27 1.06q-4.76-1.2-9.5-2.38c-2.86-.7-5.37-.23-8.24-.11q-.24-.61-1.55.02-.26.05-.35-.06-2.75-1.62-5.86-1.73-3.2-2.29-5.53-5.54-.29-.4-.71-.65l-3.24-1.92-.74-1.96 5.07 3.32q.53 1.34 1.38 1.73.53.25.54-.33.01-1.12-.85-2.06.03-.45.98-.73.3 1.51 1.16 2.34.44.41.75-.11c.94-1.6 3.24-2.67 2.92-4.79q1.82-.33 2.54-1.17 1.43-.96 2.98-.94-1.19.38-.44 2.35a.32.32 0 0 0 .53.11l3.16-3.33 2.73-.82q1.06 1.89 2.17 2.95.42.4 1.03.34.51-.06.37-.55l-.9-3.2q8.72-1.29 17.03 1.05m-14.61 4.12a.73.73 0 0 0-.73-.73.73.73 0 0 0-.73.73.73.73 0 0 0 .73.73.73.73 0 0 0 .73-.73m-15.01 3.18q-.38-.05-.46-.47-.36-2.1-1.19-.14-.8 1.89-2.42 3.3a.86.86 0 0 0-.1 1.18q.64.82 1.55 1.31.71.39.88-.4.61-2.76 2.83-4.92a1.5 1.5 0 0 1 2.32.28q1.3 2.1 2.89 3.58a.35.35 0 0 0 .53-.45q-1.95-2.97-4.12-5.68-1-1.25-2.15-.38-.44.34-.32.88l.3 1.31a.5.49-3.3 0 1-.54.6m8.785 6.385a1.26.53 47.9 0 0-.452-1.29 1.26.53 47.9 0 0-1.238-.58 1.26.53 47.9 0 0 .452 1.29 1.26.53 47.9 0 0 1.238.58"/><path fill="#fff" d="M190.69 68.07q.31.77 1.55.71.65-.03 1.19.38.78.59-.2.64t-1.94-.17q-.44-.1-.41.34l.08 1.55q.03.62.65.56 1.27-.12 2.25.42-3.48 1.6-7.7 1.95a.52.52 0 0 1-.44-.86l2.46-2.84q.02.48.17.54a1.14 1.14 0 0 0 1.54-.79q.25-1.05-.43-1.15.59-1.08 1.23-1.28m-1.61 4.28q.09.03.18.03.16 0 .04-.1-.09-.07-.2-.06-.33.02-.02.13"/><path d="M214.81 70.74q-1.9-1.06-3.59-.29-.52-.76-.3-1.22a1.84 1.58-46.8 0 1 3.12-.33z"/><path fill="#fff" d="M234.19 74.62q-1.38.42-2.48.34l-2.41-4.81a.71.71 0 0 1 .08-.77l.7-.86q.33-.42.51.08c.59 1.59 1.9 2.12 2.66 3.68q.56 1.17.94 2.34M239.25 69.03q-.08.14-.24.19-.2.07-.24-.13-.09-.47.34-.67.34-.16.65.06.36.26-.05.42-.22.1-.46.13M271.17 68.17l.9 3.2q.14.49-.37.55-.61.06-1.03-.34-1.11-1.06-2.17-2.95z"/><ellipse rx="1.17" ry=".74" transform="rotate(30.9 -26.1 394.66)"/><path fill="#fff" d="M280.59 76.44q-.86.42-1.52.5l-3.82-1.48q-.54-.21-.22.27l1.83 2.7q-.34.36-.79.56l-2.44-3.3q-.38-.51.07-.96.45-.44 1.02-.51.52-.06.96.22 1.5.96 3.16 1.28.66.13.55-.54l-1.01-5.95a.26.25 79.2 0 1 .19-.29l.25-.05q.18-.04.24.13.16.46 0 .93-.18.49.06.95 1.3 2.57 1.47 5.54"/><path d="M189.46 69.35q.68.1.43 1.15a1.14 1.14 0 0 1-1.54.79q-.15-.06-.17-.54.47-1 1.28-1.4"/><path fill="#fff" d="M290.18 69.62q-1.09.09-1.23 1.01-.04.34.19.69.21.32.44.61-.77.89-1.81.73 1.41-.16.43-3.44 1.34-.23 1.98.4M265.77 69.45l-3.16 3.33a.32.32 0 0 1-.53-.11q-.75-1.97.44-2.35z"/><path d="M289.58 71.93q-.23-.29-.44-.61-.23-.35-.19-.69.14-.92 1.23-1.01 1.4.28 1.79.99.28.49-.22.74-.97.48-2.17.58M202.7 70.91l-1.96-.02.35-.66q.29-.54.74-.12z"/><path fill="#fff" d="M207.72 71.22q-1.2.18-2.54-.1-.04-.42.11-.82.2-.5.69-.27.97.45 1.74 1.19M240.79 73.65q-1.41.54-2.74.41l.55-3.85q.14-.92.7-.18.86 1.14 1.12 2.64.06.3.31.46.16.1.36.14.79.16.03.31zM244.47 72.32q.13.6.58.74l.74 1.96q-1.5-.39-2.44-1.1l-2.29-3.5q-.16-.24.01-.48.09-.13.27-.2t.34.06z"/><path d="m226.88 73.03-1.11-.48q.04-1.03.38-1.51.38-.54.76 0 .39.57-.03 1.99"/><path fill="#fff" d="M259.54 71.26q-.72.84-2.54 1.17 1.25-1 2.54-1.17"/><path d="M189.1 72.22q.11-.01.2.06.12.1-.04.1-.09 0-.18-.03-.31-.11.02-.13"/><path fill="#fff" d="M257 72.43c.32 2.12-1.98 3.19-2.92 4.79q-.31.52-.75.11-.86-.83-1.16-2.34z"/><circle cx="272.86" cy="73.34" r=".73" fill="#fff"/><path fill="#fff" d="m259.12 75.92-.3-1.31q-.12-.54.32-.88 1.15-.87 2.15.38 2.17 2.71 4.12 5.68a.35.35 0 0 1-.53.45q-1.59-1.48-2.89-3.58a1.5 1.5 0 0 0-2.32-.28q-2.22 2.16-2.83 4.92-.17.79-.88.4-.91-.49-1.55-1.31a.86.86 0 0 1 .1-1.18q1.62-1.41 2.42-3.3.83-1.96 1.19.14.08.42.46.47a.5.49-3.3 0 0 .54-.6"/><path d="m279.07 76.94-2.21 1.49-1.83-2.7q-.32-.48.22-.27z"/><path fill="#fff" d="M250.12 76.38q.65-.24 1.07-.66.86.94.85 2.06-.01.58-.54.33-.85-.39-1.38-1.73"/><ellipse fill="#fff" rx="1.26" ry=".53" transform="rotate(47.9 40.99 340.996)"/><path fill="#fff" d="m261.13 84.86-2.87.05q-.94-.67-2.02-.49-.68-.57-.97-1.29 3.11.11 5.86 1.73"/><path d="M258.26 84.91q-1.35.22-2.02-.49 1.08-.18 2.02.49"/><path fill="#fff" d="M263.03 84.9q-.83.15-1.55.02 1.31-.63 1.55-.02M283.95 86.31l.26.53q.23.47-.18.78l-1.93 1.48q-.63-1.26-1.33-1.71l.27-1.06.47-.02.78 1.39q.31.55.69.04.31-.43.02-1.5.61-.2.95.07M286.3 86.11q.81.48-.84.77-.4.07-.34-.54.53-.26 1.18-.23"/><path d="m291.14 86.32-5.44 3.29q-.56.34-.42-.31l.12-.55q.14-.65-.34-.19-1.12 1.07-2.54 1.59-.55-.44-.42-1.05l1.93-1.48q.41-.31.18-.78l-.26-.53q.62-.1 1.17.03-.06.61.34.54 1.65-.29.84-.77z"/><path d="M283 86.24q.29 1.07-.02 1.5-.38.51-.69-.04l-.78-1.39z"/><path fill="#fff" d="m293.04 86.5-6.48 3.7a1.1 1.09-26.2 0 0-.47 1.37q1.07 2.54 2.48 4.7.69 1.05-.54.81-.63-.12-.96.44-.62 1.07-1.13-.05c-.65-1.41-1.12-2.62-2.88-3.51l.04-1.01.37-.32q.25-.21-.04-.35-.2-.1-.35-.25l-.56-1.88q1.42-.52 2.54-1.59.48-.46.34.19l-.12.55q-.14.65.42.31l5.44-3.29q.96-.34 1.9.18m-8.41 4.64q-.01-.05.03-.08.06-.05-.02-.06v-.01q-.07-.03-.06.04.22 1.79 1.17 3.57.05.08.14.04l.24-.1q.31-.13.16-.43-.72-1.46-1.57-2.75-.06-.1-.09-.22"/><path d="M293.98 86.47q.23 1.43.97 2.85.24.46.02.93c-.86 1.75-2.12 3.15-2.9 4.97q-1.11 2.61-4.88 3.8a.46.46 0 0 0-.32.51q.06.48.38.87.42.52.58-.14.18-.75.89-.99 2.63-.89 3.26-3.21.13-.49.46-.87l3.13-3.76a.4.39 39.4 0 1 .56-.05q1.05.86 1.15 2.49a.48.47 69.6 0 0 .76.35q.3-.22.17-.64-.07-.22-.27-.44-2.37-2.72-.01-5.88l8.64 2.97q.22.37.62.19 3.05 1.36 4.65 3.12-1.81 1.59 1.12 4.57.4.4.67-.09l1.13-2.04q.64.22.92.74-1.21 1.57-1.57 3.13-.77.26-1.47-.02-.84-2.03-2.29-3.56-.35-.36-.76-.08-2.28 1.58-3.91 4.01l-4.81 1.3c1.61-2.46 5.33-7.17 5.64-9.92q.06-.61-.27-.1l-4.34 6.65a.68.68 0 0 1-1.21-.14q-.71-1.96-2.01-2.91a.31.31 0 0 0-.46.4l2.13 3.69q.21.36.08.76-.35 1.03-.23 1.84l-3.88 1.48-4.63-4.17a.28.28 0 0 0-.39.02l-.18.21q-.2.22.02.42l4.41 3.94-2.4 1.28-2.78-4.84a.25.25 0 0 0-.35-.09l-.29.17q-.22.13-.09.36l2.85 4.78-1.31.88q-.44.3-.09.7.6.68 1.64.94l-1.18.27q-1.4-.12-1.72-.9.39.03.54-.41.11-.3 0-.59-.87-2.44-1.68-4.9a.28.27 78.4 0 0-.27-.18l-.33.02a.4.4 0 0 0-.36.53l1.62 5.01q-2.42-.61-4.03-2.55-.36-.44-.42-.99-.36-3.12-3.08-4.46-.54-.26-.32-.82l1.56-3.92c1.76.89 2.23 2.1 2.88 3.51q.51 1.12 1.13.05.33-.56.96-.44 1.23.24.54-.81-1.41-2.16-2.48-4.7a1.1 1.09-26.2 0 1 .47-1.37l6.48-3.7q.36-.14.94-.03m-6.95 15.83q-.64.34-1.14 1-.17.23 0 .48.1.15.25.1.17-.05.29-.17.53-.51.9-1.09.45-.71-.3-.32"/><path fill="#fff" d="M295.2 86.84q-.06.68.29 1.18.32.46.76.1.48-.39.66-1 .35-.08 1.02.14-2.36 3.16.01 5.88.2.22.27.44.13.42-.17.64a.48.47 69.6 0 1-.76-.35q-.1-1.63-1.15-2.49a.4.39 39.4 0 0-.56.05l-3.13 3.76q-.33.38-.46.87-.63 2.32-3.26 3.21-.71.24-.89.99-.16.66-.58.14-.32-.39-.38-.87a.46.46 0 0 1 .32-.51q3.77-1.19 4.88-3.8c.78-1.82 2.04-3.22 2.9-4.97q.22-.47-.02-.93-.74-1.42-.97-2.85.53-.25 1.22.37"/><path d="M296.91 87.12q-.18.61-.66 1-.44.36-.76-.1-.35-.5-.29-1.18.87-.02 1.71.28"/><path fill="#fff" d="M307.19 90.42q-.4.18-.62-.19.55-.27.62.19"/><path d="M284.72 91.36q.85 1.29 1.57 2.75.15.3-.16.43l-.24.1q-.09.04-.14-.04-.95-1.78-1.17-3.57-.01-.07.06-.04V91q.08.01.02.06-.04.03-.03.08.03.12.09.22"/><path fill="#fff" d="M300.87 101.5q.06.19-.67.27-.12-.81.23-1.84.13-.4-.08-.76l-2.13-3.69a.31.31 0 0 1 .46-.4q1.3.95 2.01 2.91a.68.68 0 0 0 1.21.14l4.34-6.65q.33-.51.27.1c-.31 2.75-4.03 7.46-5.64 9.92"/><path d="m283.1 92.95-.02-.92q.15.15.35.25.29.14.04.35z"/><path fill="#fff" d="m311.84 93.54 2.92 2.44-1.13 2.04q-.27.49-.67.09-2.93-2.98-1.12-4.57M312.64 99.83l-6.96.37q1.63-2.43 3.91-4.01.41-.28.76.08 1.45 1.53 2.29 3.56M315.68 96.72q1.68 1.74 2.09 2.47 1.62 2.95-1.33 1.33-.67-.37-2.33-.67.36-1.56 1.57-3.13M296.32 103.25q-.45.55-.77.42l-4.41-3.94q-.22-.2-.02-.42l.18-.21a.28.28 0 0 1 .39-.02zM293.15 104.95l-.66.38-2.85-4.78q-.13-.23.09-.36l.29-.17a.25.25 0 0 1 .35.09zM289.83 107.22q-.31-.23-.48-.52l-1.62-5.01a.4.4 0 0 1 .36-.53l.33-.02a.28.27 78.4 0 1 .27.18q.81 2.46 1.68 4.9.11.29 0 .59-.15.44-.54.41M287.03 102.3q.75-.39.3.32-.37.58-.9 1.09-.12.12-.29.17-.15.05-.25-.1-.17-.25 0-.48.5-.66 1.14-1M292.73 107.85q7.36.81 14.01 4.28-.85.7-1.95 1.14-.35.14-.12-.16.06-.07.13-.11.4-.22.22-.67-.05-.13-.18-.19-.12-.05-.22.03l-3.37 2.78-.1-2.68q-.02-.5-.32-.89-.95-1.24-2.23-1.5-4.91-.98-7.05-1.76z"/><path d="M306.74 112.13q.91-.09 1.05.63l-6.5 3.72q-.42-.84-.04-1.53l3.37-2.78q.1-.08.22-.03.13.06.18.19.18.45-.22.67-.07.04-.13.11-.23.3.12.16 1.1-.44 1.95-1.14"/><path fill="#fff" d="m307.79 112.76 5.3 3.22-4.7 2.97q-.13.08-.05.21l.16.25a.4.4 0 0 0 .55.13l4.89-2.98 3.84 3.29q-11.51.92-17.31 10.71l1.03-7.66q1.96-.41 3.03-1.12 1.96-1.29-.35-.88-1 .18-2.71 1.21l-.18-5.63zm-.035 6.989a1.11.46-28.6 0 0-1.195.127 1.11.46-28.6 0 0-.755.935 1.11.46-28.6 0 0 1.195-.127 1.11.46-28.6 0 0 .755-.935"/><path d="m313.94 116.56-4.89 2.98a.4.4 0 0 1-.55-.13l-.16-.25q-.08-.13.05-.21l4.7-2.97q.54.07.85.58"/><ellipse rx="1.11" ry=".46" transform="rotate(-28.6 389.329 -541.633)"/><path d="M318.95 120.96q-.98 4.25-.01 8.52.1.42-.33.52l-.26.06q-.25.06-.32-.19-1-4.09-.24-8.21a.59.58-87.7 0 0-.63-.69q-12.38 1.23-17.38 13.34-.11-2.09.69-3.75 5.8-9.79 17.31-10.71 1.23.27 1.17 1.11M301.5 122.9q-.5-.39-.03-.79 1.71-1.03 2.71-1.21 2.31-.41.35.88-1.07.71-3.03 1.12"/><path fill="#fff" d="M318.95 120.96q5.06 4.39 7.79 10.47.37.83-.45.43c-1.34-.66-2.76-1.12-4.28-1.11q-11.66.07-20.37 4.41a1.74 1.73 55.1 0 0-.48 2.75q2.61 2.74 2.57 6.26-.01.51.45.74l8.57 4.18-10.48-.06c-.09-2.58 1.03-5.48.13-7.66q-.84-2.02-2.63-3.63a1.16 1.14-64.8 0 1-.37-1.06l.38-2.37q5-12.11 17.38-13.34a.59.58-87.7 0 1 .63.69q-.76 4.12.24 8.21.07.25.32.19l.26-.06q.43-.1.33-.52-.97-4.27.01-8.52"/><path d="M312.75 149.09q.66.01.96.67l-11.35.4q-.18-.54-.09-1.13z"/><path fill="#fff" d="M313.71 149.76q4.21 3.11 7.34 7.24l-3.56 1.58q-.17.08-.22.26-.05.17.03.34a.37.36-15.3 0 0 .36.2q2.27-.15 3.96-1.73l1.15 1.79q-.64-.14-1.15.02-.61.19-.08.54.43.29.93.23.47-.06.3-.79 1.65 1.51 2.49 4.05-.51 2.21 1.23 3.76.38 1 .26 2.05-2.17-1.65-2.72-4.52-.11-.58-.7-.63-1.88-.15-3.12 1.11-.52.54-.05 1.12 1.35 1.63 1.87 3.72-.67-.33-1.1-.29l-1.07-2.47q-.21-.47-.57-.11l-1.35 1.34-5.45-.91-5.7-3.85q-.52-.35.08-.54l5.8-1.74q.27-.08.23-.36l-.04-.32q-.03-.31-.33-.24-3.23.72-6.31 2.04-.69.29-1.26-.19l-2.98-2.51.19-7.11q2.76 3.63 7.01 5.48.23.1.34-.13l.13-.25q.06-.11-.06-.18-4.24-2.35-7.19-6.15l-.04-1.45zm.63 11.02q.3.07.49-.15a.3.3 0 0 0-.29-.49q-.23.05-.35.26-.19.3.15.38m8.77 1.83a.5.5 0 0 0-.5-.5.5.5 0 0 0-.5.5.5.5 0 0 0 .5.5.5.5 0 0 0 .5-.5"/><path d="M302.17 152.84q-.22-.3.23-1.23 2.95 3.8 7.19 6.15.12.07.06.18l-.13.25q-.11.23-.34.13-4.25-1.85-7.01-5.48M321.62 157.65q-1.69 1.58-3.96 1.73a.37.36-15.3 0 1-.36-.2q-.08-.17-.03-.34.05-.18.22-.26l3.56-1.58q.79.21.57.65M322.77 159.44q.17.73-.3.79-.5.06-.93-.23-.53-.35.08-.54.51-.16 1.15-.02M301.98 159.95l2.98 2.51q.57.48 1.26.19 3.08-1.32 6.31-2.04.3-.07.33.24l.04.32q.04.28-.23.36l-5.8 1.74q-.6.19-.08.54l5.7 3.85q-1.5.61-2.15-.16-1.43-1.36-3.5-1.75-.54-.11-.87-.55-1.27-1.72-3.48-1.11-.6.16-.2.64 1.12 1.32 2.45 2.34.24.18-.02.05-.07-.04-.14-.05c-1.3-.2-1.62-.98-3.28-.87q-.19-1.79.42-2.95 1.49.2.2-2.07-.25-.3.06-1.23M314.19 160.4q.12-.21.35-.26a.3.3 0 0 1 .29.49q-.19.22-.49.15-.34-.08-.15-.38"/><path fill="#fff" d="M301.72 163.25q-.12-1.17.2-2.07 1.29 2.27-.2 2.07"/><circle cx="322.61" cy="162.61" r=".5"/><path d="M326.49 167.25q-1.74-1.55-1.23-3.76z"/><path fill="#fff" d="m310.34 167.5-4.32-.02q-1.09-.32-1.02.28-.5-.07-.96.1l-1.55-.01q-.55-.01-.72.51-.08.27-.07.62-.43.57-.62.31l.03-1.84.04-.66q.13-.27.15-.59c1.66-.11 1.98.67 3.28.87q.07.01.14.05.26.13.02-.05-1.33-1.02-2.45-2.34-.4-.48.2-.64 2.21-.61 3.48 1.11.33.44.87.55 2.07.39 3.5 1.75"/><path d="M326.75 169.3q.3 1.05-.06 2.1-.16.49-.65.3l-4.01-1.6q-.52-2.09-1.87-3.72-.47-.58.05-1.12 1.24-1.26 3.12-1.11.59.05.7.63.55 2.87 2.72 4.52M301.15 166.79l-.04.66zM320.93 169.81l-2.99-1.24 1.35-1.34q.36-.36.57.11zM306.02 167.48q-.24.47-1.02.28-.07-.6 1.02-.28M305 167.76q-.24.29-.96.1.46-.17.96-.1M301.7 168.98q.23.86-.15 1.48.04-.74-.5-.7-.03-.24.03-.47.19.26.62-.31"/><path fill="#fff" d="m301.55 170.46-.11.82q.02.41-.29.63-.19.14-.42-.03l.32-2.12q.54-.04.5.7"/><path d="M301.44 171.28q-.18 1.57 1.22 1.72.5.05.88.37l4.99 4.27q-.62.15-.87-.04-3.47-2.57-7.36-4.45-.12-.67.43-1.27.23.17.42.03.31-.22.29-.63"/><path fill="#fff" d="m308.53 177.64.83 1.09q-3.7.73-7.02-.19a1.65 1.65 0 0 0-2.07 1.9q.1.53-.96 1.3l.79-4.54q.01-.59.51-1.16.42-.47.31-.72-.16-.32-.82-.57-.1-.82.2-1.6 3.89 1.88 7.36 4.45.25.19.87.04"/><path d="M300.1 177.2v-2.45q.66.25.82.57.11.25-.31.72-.5.57-.51 1.16M309.36 178.73q.52.47.57 1.11l-2.48.23q-.77.07-.24.64l.73.77q.56.59-.17.93-.59.27-1.19.32-.82.05-.89-.77-.12-1.25-1.06-1.75-.68-.36-.53.39.16.83.72 1.56a.6.59 66.6 0 1-.37.94l-2.36.44q-.2.04-.33.19-.18.21-.15.47.08.77.84.65l2.65-.38a.7.69 1.1 0 1 .79.81c-.76 4.17 3.95 3.77 6.43 3.86q1.23.05.43-.88l-1.26-1.47q-.46-.53.22-.71.59-.15 1.29-.09l1.2 4.46-3.97-.21q-.72-.04-.2.47l.97.97q.56.55 1.32.38.92-.2 2.15.06.23.35.19.7-.88-.01-1.31.48-.34.39.1.68l1.25.82q.42.83-.16 1.26-3.63.27-6.92 1.77-.75.31-1.58-.71l5.84-1.68q1.84-.53.27-1.63-1.22-.85-3.63-.31-4.23.95-8.58 2.08-.32.36-1.06.67-.45-.5-1.02-.79.31-1.88.28-3.76-.03-1.8.62-3.22.56-.56 1.13-.33a.38.38 0 0 1 .07.67q-.24.15-.5.22-.56.15.02.15.25 0 .48-.05 2.54-.54 5.07-.55 1.44 0 .16-.67-2.23-1.16-5.3-.8-.52.06-.68-.44-.25-.77.51-.94a.7.7 0 0 0 .51-.92q-.28-.79-1.19-.62l.27-2.46q1.06-.77.96-1.3a1.65 1.65 0 0 1 2.07-1.9q3.32.92 7.02.19m-6.94 12.39c-1.27.9-2.8 1.3-3.77 2.52q-.94 1.19.56.9l10.3-2.02q.69-.14.21-.65-3.32-3.59-7.3-.75"/><path fill="#fff" d="m309.93 179.84 2.03 2.96q-2.26.57-2.53 2.3-.08.54.45.48 1.32-.14 2.66-.82.38.59.46 1.23-.7-.06-1.29.09-.68.18-.22.71l1.26 1.47q.8.93-.43.88c-2.48-.09-7.19.31-6.43-3.86a.7.69 1.1 0 0-.79-.81l-2.65.38q-.76.12-.84-.65-.03-.26.15-.47.13-.15.33-.19l2.36-.44a.6.59 66.6 0 0 .37-.94q-.56-.73-.72-1.56-.15-.75.53-.39.94.5 1.06 1.75.07.82.89.77.6-.05 1.19-.32.73-.34.17-.93l-.73-.77q-.53-.57.24-.64zm-.25 1.2q-.53.18-.72.72-.16.46.31.32.58-.16.75-.71a.27.26 88.5 0 0-.34-.33m-2.67 4.74a.49.49 0 0 0 .8.09q.63-.71.81-1.54.11-.54-.44-.54-2.21.01-1.17 1.99"/><path d="M309.68 181.04a.27.26 88.5 0 1 .34.33q-.17.55-.75.71-.47.14-.31-.32.19-.54.72-.72M312.54 184.76q-1.34.68-2.66.82-.53.06-.45-.48.27-1.73 2.53-2.3.06.89.58 1.96M307.01 185.78q-1.04-1.98 1.17-1.99.55 0 .44.54-.18.83-.81 1.54a.49.49 0 0 1-.8-.09"/><path fill="#fff" d="m298.76 188.48.07-1.27q.15-.32.13-.74.22-1.09.08-2.27.91-.17 1.19.62a.7.7 0 0 1-.51.92q-.76.17-.51.94.16.5.68.44 3.07-.36 5.3.8 1.28.67-.16.67-2.53.01-5.07.55-.23.05-.48.05-.58 0-.02-.15.26-.07.5-.22a.38.38 0 0 0-.07-.67q-.57-.23-1.13.33"/><path d="M298.96 186.47q.02.42-.13.74-.05-.42.13-.74"/><path fill="#fff" d="M302.42 191.12q3.98-2.84 7.3.75.48.51-.21.65l-10.3 2.02q-1.5.29-.56-.9c.97-1.22 2.5-1.62 3.77-2.52M314.2 190.45q.28.85.27 1.67-1.23-.26-2.15-.06-.76.17-1.32-.38l-.97-.97q-.52-.51.2-.47zM314.66 192.82l.04 1.98-1.25-.82q-.44-.29-.1-.68.43-.49 1.31-.48M306.04 197.12l-6.1-1.54q4.35-1.13 8.58-2.08 2.41-.54 3.63.31 1.57 1.1-.27 1.63zM298.88 196.25l-.94 3.87a2.65 2.62 28.8 0 0 .74 2.51q1.83 1.76 3.19 4.69l-5.89-.48q-.17-.01-.28-.14l-.18-.21q1.78-4.43 1.92-9.36.02-.89.42-1.67.57.29 1.02.79M314.54 196.06l-.6 4.44q-.09.65-.67.34l-5.65-3.01q3.29-1.5 6.92-1.77"/><path d="m295.52 206.49.18.21q.11.13.28.14l5.89.48q.74.37.93 1.5-2.05.24-3.93-1.2-.39-.3-.89-.28l-2.6.1q-.21-.59.14-.95"/><path fill="#fff" d="m302.8 208.82 1.83 5.5a1.9 1.9 0 0 1 .08.9q-.2 1.38.13 2.84-.39.16-.35.61.04.48.4.56l.02.8q-1.05.04-1.93.52-.51.28-.61.85l-.44 2.39q-.13.66.53.56l2.33-.34q.12.58-.01.97l-2.77.49q-.61-.47-.99-1.19.1-.96-.61-1.26-.35-.16-.62-.44l-6.54-6.75 2.13-8.39 2.6-.1q.5-.02.89.28 1.88 1.44 3.93 1.2m-6.27 8.68q-.09-.02-.01.03 1.79 1.3 4.09 1.1.26-.02.23-.27l-.03-.25q0-.07-.07-.06-1.81.16-4.21-.55m6.26 2.01q.09.02.18-.02.31-.12-.03-.11-.09 0-.17.06-.05.05.02.07m-1.86 1.88q.5-.26-.05-.4-.52-.13-1.03.22-.4.28.07.35.52.09 1.01-.17"/><path d="m293.25 215.83 6.54 6.75q.27.28.62.44.71.3.61 1.26l-3.51-2.54-4.63-4.66q-.03-.87.37-1.25"/><path fill="#fff" d="m292.88 217.08 4.63 4.66q-2.19-1.77-4.77-2.47-.32.25-.64.36-.1-1.31.78-2.55"/><path d="M296.53 217.5q2.4.71 4.21.55.07-.01.07.06l.03.25q.03.25-.23.27-2.3.2-4.09-1.1-.08-.05.01-.03M304.89 219.23q-.36-.08-.4-.56-.04-.45.35-.61.22.65.05 1.17M292.74 219.27q.25 1.43-.52 2.47l-.66.42q-.31-1.3.54-2.53.32-.11.64-.36M302.77 219.44q.08-.06.17-.06.34-.01.03.11-.09.04-.18.02-.07-.02-.02-.07M304.91 220.03l-.12 3.98-2.33.34q-.66.1-.53-.56l.44-2.39q.1-.57.61-.85.88-.48 1.93-.52M300.93 221.39q-.49.26-1.01.17-.47-.07-.07-.35.51-.35 1.03-.22.55.14.05.4"/><path fill="#fff" d="M292.22 221.74q.02 2.4.11 4.84.06 1.36.78 2.81.68 1.35 1.16 2.75-2.59.75-3.99 2.86l.95-9.26q.53.1.59-.2.07-.34-.35-.38l.09-3z"/><path d="M304.78 224.98q.03 1.39-.67 2.32-.32.41-.72.07-.89-.77-1.38-1.9zM291.47 225.16q.42.04.35.38-.06.3-.59.2.01-.35.24-.58M294.27 232.14q.48.86.38 1.62-1.39.81-2.76 1.64-.12.08-.05.21t.2.06q1.37-.67 2.85-1.02l.3 1.61-5.7 1.51q.17-1.49.79-2.77 1.4-2.11 3.99-2.86"/><path fill="#fff" d="M294.65 233.76q.34.49.24.89-1.48.35-2.85 1.02-.13.07-.2-.06t.05-.21q1.37-.83 2.76-1.64M295.19 236.26q.29.62.32 1.25l-6.47 1.54q.12-.85.45-1.28z"/><path d="m295.51 237.51-.46 9.57q-2.37-.03-1.88.85-.7-3.55-3.34-6.16-.39-.39-.65.1-.39.74-.33 2.18-.79-.74-.37-1.3.95-1.3-.09-1.78.17-1.03.65-1.92zm-3.49 3.6q.2.04.33-.12a.07.07 0 0 0-.08-.11q-.58.16-.25.23"/><path fill="#fff" d="M292.02 241.11q-.33-.07.25-.23a.07.07 0 0 1 .08.11q-.13.16-.33.12M288.85 244.05l-.57 1.97q-1.29-.16-1.14-.73.05-2.05 1.25-4.32 1.04.48.09 1.78-.42.56.37 1.3"/><path d="M287.14 245.29q-.15.57 1.14.73l.5 1.23q.95 1.7-2.45 2.75z"/><path fill="#fff" d="M295.05 247.08q-.1 1.05-.83 1.35-.92.38-1.05-.5-.49-.88 1.88-.85M290.83 251.81l-.77 1.11q-.35.5.22.72.28.11.62.07.24 1.28-.31 1.63-.47.29-.83-.13l-1.8-2.09q1.59-1.09 2.28-2.35a.62.62 0 0 0-.74-.89l-2.89.91-.28-.79q3.4-1.05 2.45-2.75 1.6 1.6 2.05 4.56"/><path d="M287.96 253.12q-1.09-.94-1.35-2.33l2.89-.91a.62.62 0 0 1 .74.89q-.69 1.26-2.28 2.35M290.9 253.71q-.34.04-.62-.07-.57-.22-.22-.72l.77-1.11q.29.92.07 1.9"/></svg>