<?xml version="1.0" encoding="UTF-8" standalone="no"?>
<!DOCTYPE svg PUBLIC "-//W3C//DTD SVG 1.1//EN" "http://www.w3.org/Graphics/SVG/1.1/DTD/svg11.dtd">
<svg xmlns="http://www.w3.org/2000/svg" version="1.1" viewBox="0.00 0.00 1592.00 1592.00" width="1592.00" height="1592.00">
<g stroke-width="2.00" fill="none" stroke-linecap="butt">
<path stroke="#356820" vector-effect="non-scaling-stroke" d="
  M 1057.09 279.18
  L 1050.61 279.06
  Q 1050.06 279.05 1050.06 279.59
  L 1050.05 282.20"
/>
<path stroke="#356820" vector-effect="non-scaling-stroke" d="
  M 1046.19 283.91
  Q 1044.36 282.87 1042.11 283.26
  Q 1041.60 283.35 1041.54 283.86
  Q 1041.40 285.13 1041.71 286.31"
/>
<path stroke="#356820" vector-effect="non-scaling-stroke" d="
  M 1038.94 287.78
  Q 1036.88 287.78 1037.56 283.90
  Q 1037.67 283.25 1036.92 283.25
  L 1033.87 283.25
  Q 1033.27 283.25 1033.27 283.93
  L 1033.29 291.25"
/>
<path stroke="#356820" vector-effect="non-scaling-stroke" d="
  M 1032.39 291.72
  Q 1031.01 291.34 1029.75 291.47
  Q 1029.23 291.52 1029.10 292.02
  Q 1028.89 292.85 1029.13 293.86"
/>
<path stroke="#356820" vector-effect="non-scaling-stroke" d="
  M 1019.47 303.89
  L 1017.12 304.03
  Q 1016.60 304.06 1016.65 304.58
  Q 1016.94 308.28 1015.07 308.54"
/>
<path stroke="#356820" vector-effect="non-scaling-stroke" d="
  M 1012.43 307.59
  L 1012.48 296.26
  Q 1012.48 295.78 1012.02 295.78
  L 1008.76 295.74
  Q 1008.25 295.74 1008.25 296.24
  L 1008.28 299.49
  Q 1008.29 300.01 1007.76 300.00
  L 1000.51 299.99
  Q 1000.02 299.99 1000.02 300.49
  L 1000.01 303.49
  A 0.49 0.47 89.9 0 0 1000.48 303.98
  L 1003.32 303.96
  Q 1003.82 303.95 1003.95 304.50
  Q 1004.19 305.50 1003.90 306.71"
/>
<path stroke="#356820" vector-effect="non-scaling-stroke" d="
  M 998.56 308.59
  L 996.28 308.05
  Q 995.72 307.91 995.72 307.36
  L 995.70 296.35
  Q 995.70 295.76 995.11 295.76
  L 992.25 295.74
  Q 991.52 295.74 991.51 294.99
  L 991.46 292.35
  Q 991.45 291.39 992.39 291.39
  L 994.72 291.37
  Q 995.23 291.37 995.39 290.88
  Q 995.91 289.26 994.86 288.13
  A 1.68 1.64 30.6 0 0 992.02 288.83
  L 991.49 291.03
  Q 991.34 291.63 990.72 291.62
  L 988.25 291.60
  A 0.93 0.89 0.3 0 1 987.32 290.71
  L 987.35 279.96
  Q 987.36 279.12 986.55 279.10
  L 984.23 279.04
  Q 983.35 279.01 983.36 279.89
  L 983.38 283.08
  A 0.54 0.53 -86.9 0 1 982.78 283.62
  L 980.29 283.33
  Q 979.36 283.22 979.30 284.13
  L 979.14 286.52
  Q 979.07 287.43 980.00 287.42
  L 982.53 287.40
  A 0.86 0.81 -89.7 0 1 983.34 288.27
  L 983.29 290.77
  Q 983.28 291.57 982.64 291.58
  L 979.71 291.59
  Q 979.18 291.59 979.13 292.18
  L 978.87 295.19
  Q 978.83 295.72 978.30 295.72
  L 971.23 295.80
  Q 970.77 295.81 970.77 296.26
  L 970.78 299.47
  A 0.51 0.50 -0.3 0 1 970.27 299.97
  L 962.96 300.03
  Q 962.46 300.04 962.47 300.54
  L 962.55 303.46
  Q 962.56 303.98 962.03 303.98
  L 958.73 304.00
  Q 958.21 304.00 958.22 304.51
  L 958.27 307.71
  Q 958.27 308.16 957.79 308.21
  Q 956.15 308.35 954.75 308.36
  Q 953.74 308.37 953.98 309.96"
/>
<path stroke="#356820" vector-effect="non-scaling-stroke" d="
  M 912.47 295.16
  L 912.51 291.98
  Q 912.51 291.49 913.01 291.48
  L 915.99 291.48
  Q 916.45 291.48 916.46 291.01
  L 916.52 288.11"
/>
<path stroke="#356820" vector-effect="non-scaling-stroke" d="
  M 1020.91 304.87
  L 1020.73 307.48
  Q 1020.70 308.01 1021.21 308.13
  Q 1023.33 308.67 1025.35 307.77"
/>
<path stroke="#356820" vector-effect="non-scaling-stroke" d="
  M 912.46 255.85
  Q 912.66 256.85 912.44 257.76
  Q 912.31 258.29 911.82 258.29
  L 904.51 258.22
  A 0.51 0.48 -89.7 0 0 904.02 258.73
  L 904.01 261.99
  Q 904.01 262.49 903.51 262.48
  L 896.26 262.44
  Q 895.71 262.44 895.71 262.99
  L 895.69 266.01
  Q 895.69 266.54 896.25 266.55
  L 899.53 266.57
  Q 899.98 266.57 899.98 267.03
  L 900.01 270.22
  Q 900.01 270.71 899.53 270.71
  L 896.25 270.72
  Q 895.73 270.72 895.73 271.24
  L 895.72 274.47
  Q 895.72 274.99 896.23 274.99
  Q 901.19 275.01 906.50 275.00
  Q 908.35 275.00 908.60 276.28"
/>
<path stroke="#356820" vector-effect="non-scaling-stroke" d="
  M 1290.80 383.09
  L 1287.98 383.31
  Q 1287.51 383.34 1287.52 383.77
  L 1287.54 387.01
  Q 1287.54 387.56 1286.99 387.56
  L 1279.51 387.48
  Q 1279.00 387.48 1279.00 387.98
  L 1279.00 391.02
  Q 1279.00 391.54 1278.49 391.53
  L 1275.51 391.45
  A 0.51 0.50 -89.5 0 0 1275.00 391.97
  L 1275.02 395.26
  Q 1275.02 395.78 1275.52 395.77
  L 1278.25 395.70
  Q 1279.01 395.68 1279.01 396.49
  L 1279.00 403.15
  Q 1279.00 404.04 1278.23 404.04
  L 1275.74 404.06
  Q 1275.12 404.07 1275.09 404.67
  L 1274.96 407.58
  Q 1274.93 408.33 1274.18 408.33
  L 1271.52 408.31
  Q 1270.73 408.31 1270.73 407.51
  L 1270.70 396.22
  Q 1270.70 395.75 1270.22 395.75
  L 1267.02 395.76
  A 0.49 0.49 0.0 0 1 1266.53 395.28
  L 1266.44 388.10
  Q 1266.43 387.50 1265.85 387.51
  L 1263.13 387.52
  Q 1262.50 387.53 1262.50 386.90
  L 1262.49 383.77
  Q 1262.49 383.27 1262.01 383.27
  L 1254.51 383.27
  Q 1254.00 383.27 1254.00 382.76
  L 1253.99 375.74
  Q 1253.99 375.01 1253.30 375.00
  L 1250.76 374.99
  Q 1250.06 374.99 1250.04 375.70
  L 1249.98 378.52
  Q 1249.97 379.00 1249.48 379.01
  L 1246.20 379.06
  Q 1245.74 379.07 1245.74 379.55
  L 1245.80 382.74
  A 0.55 0.53 89.4 0 1 1245.27 383.29
  L 1242.24 383.31
  A 0.65 0.64 -89.9 0 0 1241.61 383.95
  L 1241.59 386.70
  Q 1241.59 387.41 1242.26 387.42
  L 1245.09 387.50
  Q 1245.87 387.51 1245.83 388.34
  L 1245.53 394.87
  Q 1245.50 395.73 1244.66 395.76
  L 1242.27 395.86
  Q 1241.62 395.89 1241.60 396.52
  L 1241.51 399.46
  Q 1241.50 399.89 1241.06 399.93
  L 1238.23 400.21
  Q 1237.70 400.26 1237.70 400.77
  L 1237.48 416.04
  Q 1237.48 416.55 1236.97 416.55
  L 1233.75 416.54
  Q 1233.21 416.54 1233.21 416.00
  L 1233.23 413.01
  Q 1233.23 412.55 1232.77 412.54
  L 1229.54 412.49
  Q 1229.06 412.48 1229.05 412.96
  L 1228.99 416.03
  Q 1228.98 416.54 1228.48 416.54
  L 1225.53 416.52
  Q 1225.02 416.52 1225.01 416.03
  L 1224.97 412.96
  Q 1224.96 412.47 1224.46 412.47
  L 1221.25 412.49
  Q 1220.76 412.49 1220.76 412.99
  L 1220.74 420.26
  A 0.50 0.49 -0.1 0 0 1221.25 420.75
  L 1224.48 420.73
  Q 1224.96 420.73 1224.96 421.21
  L 1224.98 434.97"
/>
<path stroke="#356820" vector-effect="non-scaling-stroke" d="
  M 1225.03 450.67
  L 1224.98 453.81"
/>
<path stroke="#356820" vector-effect="non-scaling-stroke" d="
  M 1062.47 344.30
  Q 1062.62 343.13 1062.36 342.07
  Q 1062.23 341.57 1061.72 341.52
  Q 1060.61 341.42 1059.48 341.75"
/>
<path stroke="#356820" vector-effect="non-scaling-stroke" d="
  M 1058.06 340.77
  L 1058.29 333.73
  Q 1058.31 333.24 1058.76 333.24
  L 1066.04 333.23
  Q 1066.50 333.23 1066.50 332.75
  L 1066.51 321.26
  Q 1066.51 320.76 1066.01 320.76
  L 1058.74 320.81
  A 0.57 0.56 89.7 0 1 1058.18 320.25
  L 1058.17 316.98
  A 0.56 0.54 -0.1 0 1 1058.73 316.44
  L 1062.03 316.44
  Q 1062.49 316.44 1062.49 315.97
  L 1062.49 313.00
  Q 1062.49 312.52 1062.01 312.52
  L 1054.51 312.53
  Q 1054.04 312.53 1054.04 312.99
  L 1054.01 316.02
  Q 1054.01 316.55 1053.49 316.55
  L 1050.50 316.54
  Q 1050.05 316.54 1050.04 316.10
  L 1049.97 312.54"
/>
<path stroke="#356820" vector-effect="non-scaling-stroke" d="
  M 1229.03 451.50
  L 1229.00 454.75"
/>
<path stroke="#356820" vector-effect="non-scaling-stroke" d="
  M 1291.64 383.66
  L 1291.53 391.27
  Q 1291.53 391.53 1291.79 391.53
  L 1295.64 391.49
  Q 1295.93 391.48 1295.87 391.19
  Q 1295.21 387.99 1296.75 387.12"
/>
<path stroke="#356820" vector-effect="non-scaling-stroke" d="
  M 1237.52 451.99
  Q 1236.58 455.55 1242.30 453.20"
/>
<path stroke="#356820" vector-effect="non-scaling-stroke" d="
  M 1245.76 454.34
  L 1245.61 458.31"
/>
<path stroke="#356820" vector-effect="non-scaling-stroke" d="
  M 1310.91 804.23
  L 1308.71 803.89
  Q 1308.21 803.81 1308.21 803.33
  L 1308.30 796.26
  Q 1308.31 795.70 1307.74 795.71
  L 1300.52 795.76
  Q 1300.01 795.77 1300.01 795.26
  L 1300.00 783.71
  A 0.56 0.52 89.7 0 0 1299.48 783.15
  L 1296.22 783.19
  Q 1295.75 783.20 1295.76 782.72
  L 1295.82 779.54
  A 0.51 0.50 1.5 0 0 1295.32 779.03
  L 1292.10 778.93
  Q 1291.49 778.91 1291.51 778.34
  L 1291.61 775.73
  Q 1291.64 775.06 1290.96 775.04
  L 1287.99 774.97
  A 0.54 0.54 0.0 0 0 1287.43 775.51
  L 1287.49 787.01
  Q 1287.49 787.54 1288.02 787.53
  L 1290.75 787.53
  A 0.73 0.71 89.3 0 1 1291.45 788.24
  L 1291.51 790.85
  Q 1291.53 791.47 1290.90 791.47
  L 1287.99 791.48
  Q 1287.46 791.48 1287.46 792.01
  L 1287.52 799.48
  Q 1287.53 799.99 1287.03 799.99
  L 1283.71 800.01
  Q 1283.19 800.01 1283.20 800.51
  L 1283.28 803.48
  Q 1283.30 804.00 1282.77 803.99
  L 1279.51 803.97
  Q 1278.99 803.97 1278.99 804.49
  L 1279.00 807.75
  Q 1279.00 808.31 1279.51 808.29
  L 1282.31 808.20
  Q 1283.26 808.16 1283.27 809.28
  L 1283.29 815.51
  Q 1283.29 816.49 1282.27 816.49
  L 1263.13 816.47
  Q 1262.52 816.47 1262.52 815.88
  L 1262.51 812.74
  A 0.27 0.27 0.0 0 0 1262.23 812.47
  L 1258.51 812.48
  A 0.29 0.29 0.0 0 0 1258.22 812.76
  L 1258.19 816.98"
/>
<path stroke="#356820" vector-effect="non-scaling-stroke" d="
  M 1202.28 1028.75
  L 1200.56 1029.10
  A 0.67 0.61 -6.1 0 0 1200.02 1029.71
  L 1200.00 1032.69
  Q 1199.99 1033.27 1199.36 1033.27
  L 1196.28 1033.24
  A 0.60 0.60 0.0 0 1 1195.69 1032.53
  Q 1196.05 1030.55 1195.28 1028.81"
/>
<path stroke="#356820" vector-effect="non-scaling-stroke" d="
  M 1204.13 1031.05
  L 1203.97 1041.06
  Q 1203.96 1041.57 1203.47 1041.55
  L 1200.50 1041.46
  A 0.50 0.50 0.0 0 0 1199.99 1041.97
  L 1199.98 1053.50
  Q 1199.98 1054.06 1200.53 1054.05
  L 1203.37 1054.01
  Q 1203.94 1054.00 1203.92 1054.61
  L 1203.77 1058.69"
/>
<path stroke="#356820" vector-effect="non-scaling-stroke" d="
  M 1212.49 1058.18
  L 1208.81 1058.32
  Q 1208.32 1058.34 1208.37 1058.83
  Q 1208.75 1062.62 1206.89 1062.82"
/>
</g>
<path fill="#6ad03f" d="
  M 1057.09 279.18
  L 1050.61 279.06
  Q 1050.06 279.05 1050.06 279.59
  L 1050.05 282.20
  L 1046.19 283.91
  Q 1044.36 282.87 1042.11 283.26
  Q 1041.60 283.35 1041.54 283.86
  Q 1041.40 285.13 1041.71 286.31
  L 1038.94 287.78
  Q 1036.88 287.78 1037.56 283.90
  Q 1037.67 283.25 1036.92 283.25
  L 1033.87 283.25
  Q 1033.27 283.25 1033.27 283.93
  L 1033.29 291.25
  L 1032.39 291.72
  Q 1031.01 291.34 1029.75 291.47
  Q 1029.23 291.52 1029.10 292.02
  Q 1028.89 292.85 1029.13 293.86
  L 1018.08 301.71
  A 0.50 0.50 0.0 0 0 1018.02 302.48
  L 1019.47 303.89
  L 1017.12 304.03
  Q 1016.60 304.06 1016.65 304.58
  Q 1016.94 308.28 1015.07 308.54
  L 1012.43 307.59
  L 1012.48 296.26
  Q 1012.48 295.78 1012.02 295.78
  L 1008.76 295.74
  Q 1008.25 295.74 1008.25 296.24
  L 1008.28 299.49
  Q 1008.29 300.01 1007.76 300.00
  L 1000.51 299.99
  Q 1000.02 299.99 1000.02 300.49
  L 1000.01 303.49
  A 0.49 0.47 89.9 0 0 1000.48 303.98
  L 1003.32 303.96
  Q 1003.82 303.95 1003.95 304.50
  Q 1004.19 305.50 1003.90 306.71
  Q 1001.19 307.15 998.56 308.59
  L 996.28 308.05
  Q 995.72 307.91 995.72 307.36
  L 995.70 296.35
  Q 995.70 295.76 995.11 295.76
  L 992.25 295.74
  Q 991.52 295.74 991.51 294.99
  L 991.46 292.35
  Q 991.45 291.39 992.39 291.39
  L 994.72 291.37
  Q 995.23 291.37 995.39 290.88
  Q 995.91 289.26 994.86 288.13
  A 1.68 1.64 30.6 0 0 992.02 288.83
  L 991.49 291.03
  Q 991.34 291.63 990.72 291.62
  L 988.25 291.60
  A 0.93 0.89 0.3 0 1 987.32 290.71
  L 987.35 279.96
  Q 987.36 279.12 986.55 279.10
  L 984.23 279.04
  Q 983.35 279.01 983.36 279.89
  L 983.38 283.08
  A 0.54 0.53 -86.9 0 1 982.78 283.62
  L 980.29 283.33
  Q 979.36 283.22 979.30 284.13
  L 979.14 286.52
  Q 979.07 287.43 980.00 287.42
  L 982.53 287.40
  A 0.86 0.81 -89.7 0 1 983.34 288.27
  L 983.29 290.77
  Q 983.28 291.57 982.64 291.58
  L 979.71 291.59
  Q 979.18 291.59 979.13 292.18
  L 978.87 295.19
  Q 978.83 295.72 978.30 295.72
  L 971.23 295.80
  Q 970.77 295.81 970.77 296.26
  L 970.78 299.47
  A 0.51 0.50 -0.3 0 1 970.27 299.97
  L 962.96 300.03
  Q 962.46 300.04 962.47 300.54
  L 962.55 303.46
  Q 962.56 303.98 962.03 303.98
  L 958.73 304.00
  Q 958.21 304.00 958.22 304.51
  L 958.27 307.71
  Q 958.27 308.16 957.79 308.21
  Q 956.15 308.35 954.75 308.36
  Q 953.74 308.37 953.98 309.96
  Q 947.41 306.10 941.61 302.40
  Q 934.29 297.73 925.85 294.96
  Q 924.10 294.39 922.73 294.62
  Q 920.69 294.95 920.11 294.74
  Q 919.43 294.48 918.02 294.21
  Q 917.52 294.11 917.14 294.45
  Q 915.21 296.20 912.47 295.16
  L 912.51 291.98
  Q 912.51 291.49 913.01 291.48
  L 915.99 291.48
  Q 916.45 291.48 916.46 291.01
  L 916.52 288.11
  L 918.63 288.43
  A 0.94 0.94 0.0 0 0 919.47 288.13
  C 942.41 262.43 976.38 251.59 1010.09 250.14
  Q 1012.16 250.05 1025.06 249.98
  Q 1034.49 249.93 1039.96 250.53
  Q 1049.20 251.53 1057.05 251.88
  Q 1060.08 252.01 1063.38 253.08
  C 1065.90 253.89 1068.81 254.22 1071.76 255.21
  Q 1079.74 257.88 1088.91 260.88
  Q 1090.38 261.36 1095.58 263.53
  Q 1096.04 263.72 1096.21 264.20
  Q 1097.09 266.65 1095.71 268.79
  Q 1095.44 269.22 1094.93 269.24
  Q 1092.37 269.34 1088.75 270.37
  Q 1086.04 271.13 1082.60 271.72
  Q 1069.43 273.97 1057.09 279.18
  Z"
/>
<path fill="#000000" d="
  M 912.46 255.85
  Q 912.66 256.85 912.44 257.76
  Q 912.31 258.29 911.82 258.29
  L 904.51 258.22
  A 0.51 0.48 -89.7 0 0 904.02 258.73
  L 904.01 261.99
  Q 904.01 262.49 903.51 262.48
  L 896.26 262.44
  Q 895.71 262.44 895.71 262.99
  L 895.69 266.01
  Q 895.69 266.54 896.25 266.55
  L 899.53 266.57
  Q 899.98 266.57 899.98 267.03
  L 900.01 270.22
  Q 900.01 270.71 899.53 270.71
  L 896.25 270.72
  Q 895.73 270.72 895.73 271.24
  L 895.72 274.47
  Q 895.72 274.99 896.23 274.99
  Q 901.19 275.01 906.50 275.00
  Q 908.35 275.00 908.60 276.28
  Q 902.29 280.03 897.37 285.35
  Q 896.94 285.82 897.57 285.89
  L 916.52 288.11
  L 916.46 291.01
  Q 916.45 291.48 915.99 291.48
  L 913.01 291.48
  Q 912.51 291.49 912.51 291.98
  L 912.47 295.16
  L 905.22 293.54
  Q 904.76 293.44 904.37 293.77
  L 903.62 294.39
  Q 903.22 294.72 902.65 294.75
  Q 900.96 294.82 899.84 294.33
  Q 899.30 294.11 898.99 294.59
  Q 898.50 295.31 897.93 295.51
  Q 897.55 295.65 896.66 295.29
  C 892.09 293.42 889.13 291.69 885.11 292.41
  Q 880.03 293.32 873.34 295.32
  Q 869.76 296.39 858.52 296.71
  Q 854.14 296.83 844.18 295.51
  Q 836.05 294.43 831.77 294.83
  C 822.62 295.69 812.72 299.70 804.85 303.13
  C 798.87 305.74 792.65 306.80 784.94 308.81
  C 782.90 309.34 780.64 310.45 779.00 311.09
  Q 778.54 311.27 778.11 311.04
  Q 775.88 309.90 773.88 309.75
  Q 773.08 309.69 773.50 309.19
  Q 773.86 308.75 773.39 307.95
  Q 773.11 307.46 773.46 307.03
  C 784.62 293.26 796.10 279.86 810.64 270.39
  Q 815.48 267.23 820.90 265.15
  Q 829.29 261.92 839.54 259.61
  Q 857.70 255.52 878.13 255.09
  Q 895.31 254.72 912.46 255.85
  Z"
/>
<path fill="#6ad03f" d="
  M 908.60 276.28
  Q 908.35 275.00 906.50 275.00
  Q 901.19 275.01 896.23 274.99
  Q 895.72 274.99 895.72 274.47
  L 895.73 271.24
  Q 895.73 270.72 896.25 270.72
  L 899.53 270.71
  Q 900.01 270.71 900.01 270.22
  L 899.98 267.03
  Q 899.98 266.57 899.53 266.57
  L 896.25 266.55
  Q 895.69 266.54 895.69 266.01
  L 895.71 262.99
  Q 895.71 262.44 896.26 262.44
  L 903.51 262.48
  Q 904.01 262.49 904.01 261.99
  L 904.02 258.73
  A 0.51 0.48 -89.7 0 1 904.51 258.22
  L 911.82 258.29
  Q 912.31 258.29 912.44 257.76
  Q 912.66 256.85 912.46 255.85
  Q 931.79 256.89 938.50 257.49
  Q 940.22 257.64 941.47 259.29
  Q 941.78 259.70 941.30 259.91
  Q 937.12 261.68 934.37 263.21
  Q 932.04 264.50 926.91 266.29
  Q 923.24 267.57 919.55 269.78
  Q 914.08 273.05 908.60 276.28
  Z"
/>
<path fill="#000000" d="
  M 998.56 308.59
  Q 994.15 309.33 989.59 308.62
  A 1.23 1.23 0.0 0 0 988.66 308.86
  Q 985.27 311.42 981.40 310.61
  Q 979.34 310.18 977.12 310.56
  Q 972.39 311.37 970.67 311.86
  Q 967.18 312.85 964.20 312.82
  Q 957.97 312.76 953.98 309.96
  Q 953.74 308.37 954.75 308.36
  Q 956.15 308.35 957.79 308.21
  Q 958.27 308.16 958.27 307.71
  L 958.22 304.51
  Q 958.21 304.00 958.73 304.00
  L 962.03 303.98
  Q 962.56 303.98 962.55 303.46
  L 962.47 300.54
  Q 962.46 300.04 962.96 300.03
  L 970.27 299.97
  A 0.51 0.50 -0.3 0 0 970.78 299.47
  L 970.77 296.26
  Q 970.77 295.81 971.23 295.80
  L 978.30 295.72
  Q 978.83 295.72 978.87 295.19
  L 979.13 292.18
  Q 979.18 291.59 979.71 291.59
  L 982.64 291.58
  Q 983.28 291.57 983.29 290.77
  L 983.34 288.27
  A 0.86 0.81 -89.7 0 0 982.53 287.40
  L 980.00 287.42
  Q 979.07 287.43 979.14 286.52
  L 979.30 284.13
  Q 979.36 283.22 980.29 283.33
  L 982.78 283.62
  A 0.54 0.53 -86.9 0 0 983.38 283.08
  L 983.36 279.89
  Q 983.35 279.01 984.23 279.04
  L 986.55 279.10
  Q 987.36 279.12 987.35 279.96
  L 987.32 290.71
  A 0.93 0.89 0.3 0 0 988.25 291.60
  L 990.72 291.62
  Q 991.34 291.63 991.49 291.03
  L 992.02 288.83
  A 1.68 1.64 30.6 0 1 994.86 288.13
  Q 995.91 289.26 995.39 290.88
  Q 995.23 291.37 994.72 291.37
  L 992.39 291.39
  Q 991.45 291.39 991.46 292.35
  L 991.51 294.99
  Q 991.52 295.74 992.25 295.74
  L 995.11 295.76
  Q 995.70 295.76 995.70 296.35
  L 995.72 307.36
  Q 995.72 307.91 996.28 308.05
  L 998.56 308.59
  Z"
/>
<path fill="#000000" d="
  M 1057.09 279.18
  L 1050.05 282.20
  L 1050.06 279.59
  Q 1050.06 279.05 1050.61 279.06
  L 1057.09 279.18
  Z"
/>
<path fill="#6ad03f" d="
  M 1290.80 383.09
  L 1287.98 383.31
  Q 1287.51 383.34 1287.52 383.77
  L 1287.54 387.01
  Q 1287.54 387.56 1286.99 387.56
  L 1279.51 387.48
  Q 1279.00 387.48 1279.00 387.98
  L 1279.00 391.02
  Q 1279.00 391.54 1278.49 391.53
  L 1275.51 391.45
  A 0.51 0.50 -89.5 0 0 1275.00 391.97
  L 1275.02 395.26
  Q 1275.02 395.78 1275.52 395.77
  L 1278.25 395.70
  Q 1279.01 395.68 1279.01 396.49
  L 1279.00 403.15
  Q 1279.00 404.04 1278.23 404.04
  L 1275.74 404.06
  Q 1275.12 404.07 1275.09 404.67
  L 1274.96 407.58
  Q 1274.93 408.33 1274.18 408.33
  L 1271.52 408.31
  Q 1270.73 408.31 1270.73 407.51
  L 1270.70 396.22
  Q 1270.70 395.75 1270.22 395.75
  L 1267.02 395.76
  A 0.49 0.49 0.0 0 1 1266.53 395.28
  L 1266.44 388.10
  Q 1266.43 387.50 1265.85 387.51
  L 1263.13 387.52
  Q 1262.50 387.53 1262.50 386.90
  L 1262.49 383.77
  Q 1262.49 383.27 1262.01 383.27
  L 1254.51 383.27
  Q 1254.00 383.27 1254.00 382.76
  L 1253.99 375.74
  Q 1253.99 375.01 1253.30 375.00
  L 1250.76 374.99
  Q 1250.06 374.99 1250.04 375.70
  L 1249.98 378.52
  Q 1249.97 379.00 1249.48 379.01
  L 1246.20 379.06
  Q 1245.74 379.07 1245.74 379.55
  L 1245.80 382.74
  A 0.55 0.53 89.4 0 1 1245.27 383.29
  L 1242.24 383.31
  A 0.65 0.64 -89.9 0 0 1241.61 383.95
  L 1241.59 386.70
  Q 1241.59 387.41 1242.26 387.42
  L 1245.09 387.50
  Q 1245.87 387.51 1245.83 388.34
  L 1245.53 394.87
  Q 1245.50 395.73 1244.66 395.76
  L 1242.27 395.86
  Q 1241.62 395.89 1241.60 396.52
  L 1241.51 399.46
  Q 1241.50 399.89 1241.06 399.93
  L 1238.23 400.21
  Q 1237.70 400.26 1237.70 400.77
  L 1237.48 416.04
  Q 1237.48 416.55 1236.97 416.55
  L 1233.75 416.54
  Q 1233.21 416.54 1233.21 416.00
  L 1233.23 413.01
  Q 1233.23 412.55 1232.77 412.54
  L 1229.54 412.49
  Q 1229.06 412.48 1229.05 412.96
  L 1228.99 416.03
  Q 1228.98 416.54 1228.48 416.54
  L 1225.53 416.52
  Q 1225.02 416.52 1225.01 416.03
  L 1224.97 412.96
  Q 1224.96 412.47 1224.46 412.47
  L 1221.25 412.49
  Q 1220.76 412.49 1220.76 412.99
  L 1220.74 420.26
  A 0.50 0.49 -0.1 0 0 1221.25 420.75
  L 1224.48 420.73
  Q 1224.96 420.73 1224.96 421.21
  L 1224.98 434.97
  L 1210.15 444.10
  A 0.60 0.60 0.0 0 0 1210.13 445.11
  Q 1212.11 446.46 1214.39 447.59
  C 1217.56 449.15 1221.50 449.82 1225.03 450.67
  L 1224.98 453.81
  Q 1214.31 451.72 1205.17 445.87
  Q 1204.68 445.56 1204.61 445.19
  L 1204.52 444.78
  Q 1204.43 444.31 1203.82 444.13
  C 1197.20 442.16 1190.34 437.50 1187.53 430.99
  Q 1186.31 428.16 1184.62 421.18
  Q 1184.28 419.75 1182.51 416.97
  Q 1181.61 415.56 1178.89 414.30
  Q 1176.21 413.07 1173.98 411.46
  C 1170.45 408.90 1173.03 405.93 1174.78 403.51
  C 1177.23 400.15 1178.55 395.14 1179.21 391.14
  Q 1180.12 385.64 1179.04 380.48
  Q 1177.85 374.82 1175.50 370.22
  Q 1172.27 363.88 1165.50 362.94
  C 1164.45 362.79 1164.14 362.95 1163.25 363.27
  A 1.03 1.03 0.0 0 1 1162.44 363.23
  C 1154.84 359.47 1146.80 357.35 1136.65 354.55
  Q 1136.17 354.42 1135.69 354.58
  Q 1133.64 355.28 1131.21 354.58
  Q 1123.25 352.30 1121.35 351.87
  C 1120.25 351.63 1118.58 351.69 1117.25 351.98
  Q 1112.39 353.05 1106.50 353.44
  Q 1091.18 354.46 1075.03 354.24
  C 1071.51 354.19 1069.55 353.19 1067.29 350.33
  Q 1064.89 347.29 1062.47 344.30
  Q 1062.62 343.13 1062.36 342.07
  Q 1062.23 341.57 1061.72 341.52
  Q 1060.61 341.42 1059.48 341.75
  L 1058.06 340.77
  L 1058.29 333.73
  Q 1058.31 333.24 1058.76 333.24
  L 1066.04 333.23
  Q 1066.50 333.23 1066.50 332.75
  L 1066.51 321.26
  Q 1066.51 320.76 1066.01 320.76
  L 1058.74 320.81
  A 0.57 0.56 89.7 0 1 1058.18 320.25
  L 1058.17 316.98
  A 0.56 0.54 -0.1 0 1 1058.73 316.44
  L 1062.03 316.44
  Q 1062.49 316.44 1062.49 315.97
  L 1062.49 313.00
  Q 1062.49 312.52 1062.01 312.52
  L 1054.51 312.53
  Q 1054.04 312.53 1054.04 312.99
  L 1054.01 316.02
  Q 1054.01 316.55 1053.49 316.55
  L 1050.50 316.54
  Q 1050.05 316.54 1050.04 316.10
  L 1049.97 312.54
  Q 1052.69 310.64 1054.51 309.75
  Q 1061.32 306.42 1069.22 302.21
  C 1073.52 299.93 1080.44 296.98 1086.29 295.17
  Q 1110.73 287.59 1115.91 286.66
  Q 1133.76 283.45 1140.26 282.49
  Q 1144.01 281.94 1148.53 282.17
  Q 1155.50 282.52 1156.68 282.52
  Q 1169.03 282.41 1171.69 282.85
  C 1189.16 285.71 1200.07 287.07 1213.40 291.56
  Q 1216.46 292.59 1217.20 293.68
  Q 1218.27 295.27 1217.42 297.09
  Q 1217.22 297.54 1216.74 297.64
  Q 1199.80 301.39 1186.41 307.94
  Q 1182.41 309.90 1163.71 320.24
  Q 1156.21 324.39 1150.94 328.65
  Q 1143.06 335.02 1128.38 347.20
  Q 1127.79 347.69 1128.51 347.91
  L 1135.04 349.89
  Q 1135.46 350.02 1135.91 350.42
  Q 1136.75 351.18 1137.26 351.33
  Q 1141.08 352.48 1153.46 356.07
  Q 1158.45 357.52 1165.21 361.03
  A 1.29 1.29 0.0 0 0 1166.83 360.67
  Q 1167.72 359.51 1169.39 360.47
  Q 1169.83 360.72 1170.33 360.66
  Q 1198.94 357.08 1227.67 360.86
  C 1249.78 363.77 1271.84 371.00 1290.80 383.09
  Z"
/>
<path fill="#000000" d="
  M 1038.94 287.78
  L 1033.29 291.25
  L 1033.27 283.93
  Q 1033.27 283.25 1033.87 283.25
  L 1036.92 283.25
  Q 1037.67 283.25 1037.56 283.90
  Q 1036.88 287.78 1038.94 287.78
  Z"
/>
<path fill="#000000" d="
  M 1046.19 283.91
  L 1041.71 286.31
  Q 1041.40 285.13 1041.54 283.86
  Q 1041.60 283.35 1042.11 283.26
  Q 1044.36 282.87 1046.19 283.91
  Z"
/>
<path fill="#000000" d="
  M 1032.39 291.72
  L 1029.13 293.86
  Q 1028.89 292.85 1029.10 292.02
  Q 1029.23 291.52 1029.75 291.47
  Q 1031.01 291.34 1032.39 291.72
  Z"
/>
<path fill="#000000" d="
  M 1012.43 307.59
  Q 1008.65 306.33 1003.90 306.71
  Q 1004.19 305.50 1003.95 304.50
  Q 1003.82 303.95 1003.32 303.96
  L 1000.48 303.98
  A 0.49 0.47 89.9 0 1 1000.01 303.49
  L 1000.02 300.49
  Q 1000.02 299.99 1000.51 299.99
  L 1007.76 300.00
  Q 1008.29 300.01 1008.28 299.49
  L 1008.25 296.24
  Q 1008.25 295.74 1008.76 295.74
  L 1012.02 295.78
  Q 1012.48 295.78 1012.48 296.26
  L 1012.43 307.59
  Z"
/>
<path fill="#000000" d="
  M 1019.47 303.89
  Q 1020.32 304.26 1020.91 304.87
  L 1020.73 307.48
  Q 1020.70 308.01 1021.21 308.13
  Q 1023.33 308.67 1025.35 307.77
  Q 1028.13 309.19 1029.54 310.47
  Q 1030.08 310.95 1030.46 312.18
  Q 1030.61 312.67 1031.02 312.89
  L 1041.59 318.61
  A 0.89 0.87 39.4 0 0 1042.57 318.52
  L 1049.97 312.54
  L 1050.04 316.10
  Q 1050.05 316.54 1050.50 316.54
  L 1053.49 316.55
  Q 1054.01 316.55 1054.01 316.02
  L 1054.04 312.99
  Q 1054.04 312.53 1054.51 312.53
  L 1062.01 312.52
  Q 1062.49 312.52 1062.49 313.00
  L 1062.49 315.97
  Q 1062.49 316.44 1062.03 316.44
  L 1058.73 316.44
  A 0.56 0.54 -0.1 0 0 1058.17 316.98
  L 1058.18 320.25
  A 0.57 0.56 89.7 0 0 1058.74 320.81
  L 1066.01 320.76
  Q 1066.51 320.76 1066.51 321.26
  L 1066.50 332.75
  Q 1066.50 333.23 1066.04 333.23
  L 1058.76 333.24
  Q 1058.31 333.24 1058.29 333.73
  L 1058.06 340.77
  Q 1053.69 336.32 1049.06 332.77
  Q 1045.32 329.90 1044.13 328.10
  Q 1042.34 325.40 1041.07 322.39
  Q 1040.87 321.90 1040.40 321.66
  L 1015.07 308.54
  Q 1016.94 308.28 1016.65 304.58
  Q 1016.60 304.06 1017.12 304.03
  L 1019.47 303.89
  Z"
/>
<path fill="#6ad03f" d="
  M 1020.91 304.87
  L 1025.35 307.77
  Q 1023.33 308.67 1021.21 308.13
  Q 1020.70 308.01 1020.73 307.48
  L 1020.91 304.87
  Z"
/>
<path fill="#000000" d="
  M 1062.47 344.30
  Q 1060.79 343.32 1059.48 341.75
  Q 1060.61 341.42 1061.72 341.52
  Q 1062.23 341.57 1062.36 342.07
  Q 1062.62 343.13 1062.47 344.30
  Z"
/>
<path fill="#000000" d="
  M 1290.80 383.09
  L 1291.64 383.66
  L 1291.53 391.27
  Q 1291.53 391.53 1291.79 391.53
  L 1295.64 391.49
  Q 1295.93 391.48 1295.87 391.19
  Q 1295.21 387.99 1296.75 387.12
  Q 1304.89 393.29 1312.29 399.96
  Q 1320.75 407.60 1326.54 418.26
  A 1.10 1.10 0.0 0 1 1325.78 419.87
  C 1325.13 419.99 1324.36 420.03 1323.73 419.77
  Q 1319.40 417.98 1316.98 417.56
  Q 1306.96 415.80 1295.15 415.96
  Q 1257.54 416.48 1224.98 434.97
  L 1224.96 421.21
  Q 1224.96 420.73 1224.48 420.73
  L 1221.25 420.75
  A 0.50 0.49 -0.1 0 1 1220.74 420.26
  L 1220.76 412.99
  Q 1220.76 412.49 1221.25 412.49
  L 1224.46 412.47
  Q 1224.96 412.47 1224.97 412.96
  L 1225.01 416.03
  Q 1225.02 416.52 1225.53 416.52
  L 1228.48 416.54
  Q 1228.98 416.54 1228.99 416.03
  L 1229.05 412.96
  Q 1229.06 412.48 1229.54 412.49
  L 1232.77 412.54
  Q 1233.23 412.55 1233.23 413.01
  L 1233.21 416.00
  Q 1233.21 416.54 1233.75 416.54
  L 1236.97 416.55
  Q 1237.48 416.55 1237.48 416.04
  L 1237.70 400.77
  Q 1237.70 400.26 1238.23 400.21
  L 1241.06 399.93
  Q 1241.50 399.89 1241.51 399.46
  L 1241.60 396.52
  Q 1241.62 395.89 1242.27 395.86
  L 1244.66 395.76
  Q 1245.50 395.73 1245.53 394.87
  L 1245.83 388.34
  Q 1245.87 387.51 1245.09 387.50
  L 1242.26 387.42
  Q 1241.59 387.41 1241.59 386.70
  L 1241.61 383.95
  A 0.65 0.64 -89.9 0 1 1242.24 383.31
  L 1245.27 383.29
  A 0.55 0.53 89.4 0 0 1245.80 382.74
  L 1245.74 379.55
  Q 1245.74 379.07 1246.20 379.06
  L 1249.48 379.01
  Q 1249.97 379.00 1249.98 378.52
  L 1250.04 375.70
  Q 1250.06 374.99 1250.76 374.99
  L 1253.30 375.00
  Q 1253.99 375.01 1253.99 375.74
  L 1254.00 382.76
  Q 1254.00 383.27 1254.51 383.27
  L 1262.01 383.27
  Q 1262.49 383.27 1262.49 383.77
  L 1262.50 386.90
  Q 1262.50 387.53 1263.13 387.52
  L 1265.85 387.51
  Q 1266.43 387.50 1266.44 388.10
  L 1266.53 395.28
  A 0.49 0.49 0.0 0 0 1267.02 395.76
  L 1270.22 395.75
  Q 1270.70 395.75 1270.70 396.22
  L 1270.73 407.51
  Q 1270.73 408.31 1271.52 408.31
  L 1274.18 408.33
  Q 1274.93 408.33 1274.96 407.58
  L 1275.09 404.67
  Q 1275.12 404.07 1275.74 404.06
  L 1278.23 404.04
  Q 1279.00 404.04 1279.00 403.15
  L 1279.01 396.49
  Q 1279.01 395.68 1278.25 395.70
  L 1275.52 395.77
  Q 1275.02 395.78 1275.02 395.26
  L 1275.00 391.97
  A 0.51 0.50 -89.5 0 1 1275.51 391.45
  L 1278.49 391.53
  Q 1279.00 391.54 1279.00 391.02
  L 1279.00 387.98
  Q 1279.00 387.48 1279.51 387.48
  L 1286.99 387.56
  Q 1287.54 387.56 1287.54 387.01
  L 1287.52 383.77
  Q 1287.51 383.34 1287.98 383.31
  L 1290.80 383.09
  Z"
/>
<path fill="#6ad03f" d="
  M 1291.64 383.66
  L 1296.75 387.12
  Q 1295.21 387.99 1295.87 391.19
  Q 1295.93 391.48 1295.64 391.49
  L 1291.79 391.53
  Q 1291.53 391.53 1291.53 391.27
  L 1291.64 383.66
  Z"
/>
<path fill="#000000" d="
  M 1229.03 451.50
  L 1229.00 454.75
  L 1224.98 453.81
  L 1225.03 450.67
  L 1229.03 451.50
  Z"
/>
<path fill="#6ad03f" d="
  M 1237.52 451.99
  Q 1236.58 455.55 1242.30 453.20
  L 1245.76 454.34
  L 1245.61 458.31
  L 1229.00 454.75
  L 1229.03 451.50
  L 1232.73 452.21
  Q 1233.21 452.30 1233.60 452.00
  Q 1235.17 450.78 1237.52 451.99
  Z"
/>
<path fill="#000000" d="
  M 1242.30 453.20
  Q 1236.58 455.55 1237.52 451.99
  L 1242.30 453.20
  Z"
/>
<path fill="#000000" d="
  M 1310.91 804.23
  L 1308.71 803.89
  Q 1308.21 803.81 1308.21 803.33
  L 1308.30 796.26
  Q 1308.31 795.70 1307.74 795.71
  L 1300.52 795.76
  Q 1300.01 795.77 1300.01 795.26
  L 1300.00 783.71
  A 0.56 0.52 89.7 0 0 1299.48 783.15
  L 1296.22 783.19
  Q 1295.75 783.20 1295.76 782.72
  L 1295.82 779.54
  A 0.51 0.50 1.5 0 0 1295.32 779.03
  L 1292.10 778.93
  Q 1291.49 778.91 1291.51 778.34
  L 1291.61 775.73
  Q 1291.64 775.06 1290.96 775.04
  L 1287.99 774.97
  A 0.54 0.54 0.0 0 0 1287.43 775.51
  L 1287.49 787.01
  Q 1287.49 787.54 1288.02 787.53
  L 1290.75 787.53
  A 0.73 0.71 89.3 0 1 1291.45 788.24
  L 1291.51 790.85
  Q 1291.53 791.47 1290.90 791.47
  L 1287.99 791.48
  Q 1287.46 791.48 1287.46 792.01
  L 1287.52 799.48
  Q 1287.53 799.99 1287.03 799.99
  L 1283.71 800.01
  Q 1283.19 800.01 1283.20 800.51
  L 1283.28 803.48
  Q 1283.30 804.00 1282.77 803.99
  L 1279.51 803.97
  Q 1278.99 803.97 1278.99 804.49
  L 1279.00 807.75
  Q 1279.00 808.31 1279.51 808.29
  L 1282.31 808.20
  Q 1283.26 808.16 1283.27 809.28
  L 1283.29 815.51
  Q 1283.29 816.49 1282.27 816.49
  L 1263.13 816.47
  Q 1262.52 816.47 1262.52 815.88
  L 1262.51 812.74
  A 0.27 0.27 0.0 0 0 1262.23 812.47
  L 1258.51 812.48
  A 0.29 0.29 0.0 0 0 1258.22 812.76
  L 1258.19 816.98
  L 1249.57 814.72
  Q 1249.07 814.59 1248.67 814.93
  L 1248.12 815.40
  Q 1247.69 815.76 1247.14 815.62
  L 1245.37 815.15
  Q 1244.76 814.98 1244.69 815.56
  Q 1243.10 828.03 1240.50 839.91
  A 0.54 0.54 0.0 0 0 1240.66 840.42
  Q 1255.72 854.64 1262.87 873.92
  Q 1267.64 886.81 1269.75 902.87
  Q 1270.22 906.43 1270.30 909.83
  C 1270.37 912.97 1270.87 915.78 1270.72 919.08
  Q 1269.94 936.33 1269.51 941.00
  Q 1269.36 942.62 1267.91 947.07
  A 1.08 1.08 0.0 0 1 1267.27 947.74
  Q 1264.24 948.88 1263.14 946.85
  Q 1257.02 935.56 1247.04 928.23
  Q 1235.32 919.63 1221.23 913.83
  Q 1220.76 913.64 1220.60 914.12
  Q 1217.86 922.83 1217.93 925.01
  Q 1218.33 937.22 1217.16 949.78
  Q 1217.12 950.29 1217.45 950.67
  Q 1221.27 955.04 1223.59 960.72
  Q 1229.03 974.02 1230.36 988.76
  Q 1231.96 1006.43 1230.73 1022.53
  Q 1230.59 1024.32 1229.84 1028.31
  C 1229.27 1031.35 1227.09 1036.41 1223.29 1034.55
  A 1.21 1.21 0.0 0 1 1222.66 1033.80
  C 1220.67 1026.85 1216.83 1020.13 1213.84 1014.53
  Q 1211.00 1009.21 1206.07 1005.61
  A 0.51 0.51 0.0 0 0 1205.29 1005.87
  Q 1203.08 1012.92 1201.09 1022.52
  Q 1200.73 1024.21 1200.75 1026.56
  Q 1200.75 1027.07 1201.10 1027.45
  L 1202.28 1028.75
  L 1200.56 1029.10
  A 0.67 0.61 -6.1 0 0 1200.02 1029.71
  L 1200.00 1032.69
  Q 1199.99 1033.27 1199.36 1033.27
  L 1196.28 1033.24
  A 0.60 0.60 0.0 0 1 1195.69 1032.53
  Q 1196.05 1030.55 1195.28 1028.81
  Q 1198.12 1013.83 1203.26 999.24
  C 1203.60 998.27 1204.31 997.45 1204.58 996.62
  Q 1206.89 989.63 1208.42 982.49
  Q 1211.78 966.91 1213.12 959.87
  C 1213.87 955.92 1214.36 951.35 1214.27 946.38
  Q 1214.02 932.47 1215.48 920.42
  Q 1215.87 917.12 1217.35 912.95
  Q 1219.30 907.48 1219.84 905.61
  Q 1222.62 895.99 1230.57 866.70
  Q 1231.65 862.72 1232.64 858.15
  Q 1232.91 856.91 1235.20 849.79
  Q 1236.17 846.79 1236.76 843.60
  Q 1236.78 843.52 1240.80 819.25
  Q 1242.13 811.26 1247.02 761.54
  Q 1248.12 750.34 1251.48 729.12
  A 1.21 1.21 0.0 0 0 1251.27 728.22
  L 1250.94 727.76
  Q 1250.67 727.38 1250.77 726.91
  Q 1253.30 715.38 1254.68 699.01
  C 1254.76 698.12 1254.52 697.26 1254.77 696.19
  Q 1255.60 692.63 1256.27 686.51
  Q 1259.58 656.09 1260.02 627.28
  Q 1260.02 627.16 1260.26 619.28
  Q 1260.42 614.10 1260.03 608.24
  Q 1259.84 605.37 1260.60 602.39
  Q 1260.88 601.25 1261.44 600.47
  C 1262.10 599.55 1262.35 598.94 1262.21 597.80
  Q 1261.48 592.08 1258.57 585.60
  Q 1257.50 583.25 1255.78 581.58
  Q 1251.76 577.69 1250.72 572.31
  Q 1250.42 570.73 1250.16 572.31
  Q 1249.79 574.52 1250.37 577.01
  A 0.20 0.20 0.0 0 1 1250.20 577.25
  L 1249.92 577.28
  Q 1249.83 577.29 1249.79 577.20
  L 1247.19 570.48
  Q 1247.01 570.01 1247.12 569.45
  Q 1247.69 566.71 1247.49 565.39
  Q 1247.42 564.89 1247.84 564.59
  Q 1249.23 563.62 1249.16 561.92
  Q 1248.98 557.38 1249.00 555.69
  Q 1249.01 554.70 1249.34 554.36
  Q 1249.76 553.93 1249.92 553.77
  Q 1250.28 553.40 1250.34 552.89
  Q 1250.92 547.90 1251.60 544.87
  Q 1252.72 539.90 1253.91 534.95
  C 1255.23 529.45 1255.58 522.40 1255.96 517.65
  Q 1256.23 514.20 1256.25 510.36
  Q 1256.26 509.00 1256.26 490.10
  Q 1256.26 485.34 1255.72 478.96
  Q 1255.19 472.60 1255.10 467.78
  Q 1255.03 463.63 1251.71 461.77
  A 0.39 0.39 0.0 0 0 1251.17 462.29
  L 1251.55 463.07
  Q 1251.79 463.55 1251.22 463.42
  Q 1248.68 462.88 1248.96 460.24
  Q 1249.01 459.74 1248.55 459.55
  L 1245.61 458.31
  L 1245.76 454.34
  Q 1270.72 462.35 1293.45 475.20
  Q 1299.00 478.33 1303.94 482.14
  Q 1310.76 487.41 1314.03 490.09
  Q 1329.11 502.46 1344.05 518.92
  C 1345.60 520.62 1346.58 523.07 1347.85 524.67
  Q 1356.51 535.59 1361.71 547.20
  Q 1362.12 548.13 1362.05 548.40
  Q 1361.88 549.03 1361.35 549.58
  A 1.42 1.42 0.0 0 1 1359.61 549.82
  Q 1354.27 546.70 1347.35 545.22
  C 1340.75 543.80 1333.27 543.97 1326.28 544.87
  Q 1309.28 547.05 1303.02 547.84
  Q 1293.09 549.10 1279.65 553.94
  Q 1267.23 558.42 1254.13 563.98
  Q 1252.72 564.58 1252.87 566.11
  Q 1253.66 574.27 1258.49 579.53
  Q 1260.86 582.11 1261.75 584.28
  C 1264.56 591.12 1266.35 595.73 1265.19 601.87
  Q 1265.03 602.76 1265.89 603.06
  C 1299.73 614.72 1328.74 636.83 1347.48 667.30
  Q 1352.03 674.70 1353.47 677.28
  C 1359.59 688.25 1361.51 701.13 1361.79 713.77
  A 1.62 1.62 0.0 0 1 1359.68 715.34
  Q 1353.18 713.29 1348.52 711.31
  Q 1340.23 707.79 1337.47 706.84
  Q 1314.24 698.91 1288.81 697.92
  Q 1273.53 697.33 1258.33 698.31
  Q 1257.80 698.34 1257.78 698.87
  Q 1257.46 707.48 1255.67 718.41
  A 0.73 0.73 0.0 0 0 1256.11 719.20
  Q 1276.25 727.78 1288.88 745.07
  Q 1290.33 747.05 1292.79 751.23
  C 1294.43 754.01 1296.44 756.90 1297.85 759.48
  Q 1304.92 772.39 1307.72 786.92
  Q 1308.73 792.18 1310.24 800.04
  Q 1310.64 802.10 1310.91 804.23
  Z"
/>
<path fill="#6ad03f" d="
  M 1310.91 804.23
  Q 1311.35 816.24 1309.59 828.27
  Q 1308.98 832.51 1307.22 836.26
  Q 1307.07 836.58 1306.77 836.40
  Q 1290.24 826.69 1272.05 820.70
  Q 1269.53 819.87 1265.13 818.82
  Q 1261.64 817.99 1258.19 816.98
  L 1258.22 812.76
  A 0.29 0.29 0.0 0 1 1258.51 812.48
  L 1262.23 812.47
  A 0.27 0.27 0.0 0 1 1262.51 812.74
  L 1262.52 815.88
  Q 1262.52 816.47 1263.13 816.47
  L 1282.27 816.49
  Q 1283.29 816.49 1283.29 815.51
  L 1283.27 809.28
  Q 1283.26 808.16 1282.31 808.20
  L 1279.51 808.29
  Q 1279.00 808.31 1279.00 807.75
  L 1278.99 804.49
  Q 1278.99 803.97 1279.51 803.97
  L 1282.77 803.99
  Q 1283.30 804.00 1283.28 803.48
  L 1283.20 800.51
  Q 1283.19 800.01 1283.71 800.01
  L 1287.03 799.99
  Q 1287.53 799.99 1287.52 799.48
  L 1287.46 792.01
  Q 1287.46 791.48 1287.99 791.48
  L 1290.90 791.47
  Q 1291.53 791.47 1291.51 790.85
  L 1291.45 788.24
  A 0.73 0.71 89.3 0 0 1290.75 787.53
  L 1288.02 787.53
  Q 1287.49 787.54 1287.49 787.01
  L 1287.43 775.51
  A 0.54 0.54 0.0 0 1 1287.99 774.97
  L 1290.96 775.04
  Q 1291.64 775.06 1291.61 775.73
  L 1291.51 778.34
  Q 1291.49 778.91 1292.10 778.93
  L 1295.32 779.03
  A 0.51 0.50 1.5 0 1 1295.82 779.54
  L 1295.76 782.72
  Q 1295.75 783.20 1296.22 783.19
  L 1299.48 783.15
  A 0.56 0.52 89.7 0 1 1300.00 783.71
  L 1300.01 795.26
  Q 1300.01 795.77 1300.52 795.76
  L 1307.74 795.71
  Q 1308.31 795.70 1308.30 796.26
  L 1308.21 803.33
  Q 1308.21 803.81 1308.71 803.89
  L 1310.91 804.23
  Z"
/>
<path fill="#6ad03f" d="
  M 1202.28 1028.75
  L 1204.13 1031.05
  L 1203.97 1041.06
  Q 1203.96 1041.57 1203.47 1041.55
  L 1200.50 1041.46
  A 0.50 0.50 0.0 0 0 1199.99 1041.97
  L 1199.98 1053.50
  Q 1199.98 1054.06 1200.53 1054.05
  L 1203.37 1054.01
  Q 1203.94 1054.00 1203.92 1054.61
  L 1203.77 1058.69
  L 1196.30 1051.25
  Q 1195.95 1050.90 1195.82 1050.42
  Q 1194.10 1044.25 1193.73 1042.34
  Q 1192.39 1035.48 1195.28 1028.81
  Q 1196.05 1030.55 1195.69 1032.53
  A 0.60 0.60 0.0 0 0 1196.28 1033.24
  L 1199.36 1033.27
  Q 1199.99 1033.27 1200.00 1032.69
  L 1200.02 1029.71
  A 0.67 0.61 -6.1 0 1 1200.56 1029.10
  L 1202.28 1028.75
  Z"
/>
<path fill="#000000" d="
  M 1204.13 1031.05
  C 1209.83 1038.69 1212.20 1048.89 1212.49 1058.18
  L 1208.81 1058.32
  Q 1208.32 1058.34 1208.37 1058.83
  Q 1208.75 1062.62 1206.89 1062.82
  L 1203.77 1058.69
  L 1203.92 1054.61
  Q 1203.94 1054.00 1203.37 1054.01
  L 1200.53 1054.05
  Q 1199.98 1054.06 1199.98 1053.50
  L 1199.99 1041.97
  A 0.50 0.50 0.0 0 1 1200.50 1041.46
  L 1203.47 1041.55
  Q 1203.96 1041.57 1203.97 1041.06
  L 1204.13 1031.05
  Z"
/>
<path fill="#6ad03f" d="
  M 1212.49 1058.18
  Q 1212.59 1062.89 1209.56 1065.12
  Q 1209.14 1065.42 1208.70 1065.16
  Q 1207.34 1064.33 1206.89 1062.82
  Q 1208.75 1062.62 1208.37 1058.83
  Q 1208.32 1058.34 1208.81 1058.32
  L 1212.49 1058.18
  Z"
/>
</svg>
