<svg xmlns="http://www.w3.org/2000/svg" viewBox="0 0 382 382"><g fill="none" stroke-width="2"><path stroke="#262f03" d="M274.82 67.82q-.36 1.06.53 1.78a.93.93 0 0 0 1.51-.61q.06-.57-.81-1.17M278.84 77.12q-.57-1.05-1.34-.37-1.27 1.13-.27 1.32" vector-effect="non-scaling-stroke"/><path stroke="#1b2401" d="m310.67 131.84-.32-1.54q-.12-.58-.62-.9l-2.11-1.35q-.64-.4-.64.35-.01 1.85-1.77 2.36-.46.14-.26.56l.14.3a.25.25 0 0 0 .31.12q1.62-.64 1.81-2.09a.49.48 20.3 0 1 .75-.34q1.51.98 1.3 2.88M313.75 149.96l.39 2.02q.11.56.53.95.35.34.46.8a.88.87-26.8 0 1-.29.88q-.82.68-1.09 1.6" vector-effect="non-scaling-stroke"/><path stroke="#1b2401" d="M313.75 156.21q-.62.16-.62.96a.61.61 0 0 0 .5.61q1.36.26 2.77.07.45-.06.6-.49.31-.89 1.12-1.31.51-.26.58-.79.06-.45-.08-1.13M316.64 168.32q.43-2.46-2-1.42-.65.27-.66 1M307.48 167.43q.29-.95-.49-1.54-.43-.32-.88-.04-.85.55-.61 1.58M306.09 197.12q-1.63-3.07.14-4.63 1.05-.91 1.83-2.2a.8.79 31.7 0 1 1.11-.26q1.73 1.1-1.68 3.05a.61.6 55.8 0 0-.17.91q.44.55 1.05.5.56-.06.88-.52l2.28-3.24q.31-.44-.23-.44-.35 0-.51.27a.51.5-54.2 0 1-.76.13q-.16-.14-.26-.33a.68.67 49.3 0 1 .05-.74q.66-.89-.35-1.49a1 .99 33.2 0 0-1.32.27l-1.97 2.74q-.51.71-1.3.33l-.68-.33a.67.66-60.2 0 1-.26-.97l1.7-2.49q.51-.74-.33-.43-.9.34-1.32 1.3-.43 1-.89.01-.39-.83-1.3-1.02-2.81-.58-.32-1.96.13-.07 1.34-.43.12-.04.11-.16l-.04-.33q-.05-.39-.4-.23-.99.47-1.7-.14-.6-.52-.72.26-.18 1.19-1.03 1.4M300.3 176.06l1.05 1.14a.79.79 0 0 0 1.36-.41q.28-1.84-.7-1.75-1.09.1-1.76-.51M300.82 129.53q.58.11.79-.59.19-.64.85-.73l2.59-.33a.54.53-83.7 0 0 .44-.36l.12-.34a.26.25 11.8 0 0-.22-.33l-4.11-.38M284.62 101.93q.4.41.81.1a.59.58 60 0 0 .19-.72q-.15-.37-.59-.26-.4.1-.58.47M237.62 74.04l-1.85-.81q-.49-.21-.74.26-.21.41-.23.93M212.72 70.07q.28.08.47-.04.38-.26.08-.61-1.95-2.25-3.04-4.98-.28-.7-.35.05l-.24 2.3q-.05.54.33.94l2.33 2.43M220.71 64.67q-.26-.73.23-1.5.19-.31-.12-.5-.13-.08-.3-.08-.25-.01-.53.23-2.37 2.05-.47 2.46" vector-effect="non-scaling-stroke"/><path stroke="#1b2401" d="m316.22 151.94.75 3.17a1.64 1.63 83.7 0 1-1.61 2.02q-1.78-.02-1.61-.92M301.56 195.9q.04-.46-.14-.99-.24-.76.55-.7.57.05 1.08.45.26.21.36.49.07.17.16.34.34.7.45-.07.42-2.75-.74-5.12-.39-.81-1.28-.86-.67-.04-.9-.63-.23-.61-.83-.88l-1.39-.63" vector-effect="non-scaling-stroke"/><path stroke="#1b2401" d="M315.53 151.28q-.26.65.44 3.98a.51.51 0 0 1-.4.6l-1.82.35" vector-effect="non-scaling-stroke"/><path stroke="#262f03" d="M238.65 62.69q.59.23 1-.2a.42.42 0 0 0-.34-.7q-.42.04-.75.32-.43.37.09.58" vector-effect="non-scaling-stroke"/><path stroke="#1b2401" d="M216.54 63.937a1.07.78 70.3 0 0 .374-1.27 1.07.78 70.3 0 0-1.095-.744 1.07.78 70.3 0 0-.373 1.27 1.07.78 70.3 0 0 1.095.744" vector-effect="non-scaling-stroke"/><path stroke="#262f03" d="M242 64.8q.56-1.11.4-2.45-.04-.35-.39-.33l-.45.03q-.56.03-.39.57.78 2.49-.69 4.74-.27.41-.12.87.1.29.4.44.69.34.78-.42l.39-3.22a.93.91 62.7 0 1 .07-.23" vector-effect="non-scaling-stroke"/><path stroke="#1b2401" d="M246.06 62.82q.25.02.51.03.45.02.12-.28-.33-.31-.68-.19-1.06.34.05.44" vector-effect="non-scaling-stroke"/><path stroke="#262f03" d="M255.96 63.81c-.57.75-1.25 1.22-2.24 1.07q-.5-.08-.87.23-.61.53.19.52l1.2-.01q.54-.01.93-.38.96-.89 2.15-1.25.6-.19.13-.61-1.8-1.58-4.16-.81-.75.25-.16.79l.33.29a.84.83 40 0 0 1.22-.1q.47-.6 1.14-.3.42.19.14.56M212 63.11q-.1.4.05.78a.42.41 61.3 0 0 .63.19q.26-.19.26-.51-.01-.51-.47-.7a.35.34 17.4 0 0-.47.24M232.08 64.79l-.38.65q-.27.44.25.45.83 0 .46-1.31a1.76 1.73 40.5 0 1-.06-.69q.08-.94-.49-.86-.42.06-.25.44.13.3.36.53.37.35.11.79" vector-effect="non-scaling-stroke"/><path stroke="#1b2401" d="M235.34 63.1q-.32.16-.4.49-.09.38.27.24.43-.16.42-.55a.2.2 0 0 0-.29-.18" vector-effect="non-scaling-stroke"/><path stroke="#262f03" d="M237.51 63.72q-.26-.09-.07.67.12.49.31.02.2-.51-.24-.69M246.403 65.724a.92.29 113.5 0 0 .633-.728.92.29 113.5 0 0 .1-.96.92.29 113.5 0 0-.632.728.92.29 113.5 0 0-.1.96" vector-effect="non-scaling-stroke"/><path stroke="#1b2401" d="m207.25 64.73-.11.85q-.09.7.36.16.41-.49.11-1.08-.29-.55-.36.07M200.26 65.03l-.88-.4q-.93-.42-.4.44.31.51.89.51a.83.83 0 0 1 .75.51q.34.81.34 1.69a.61.6-13.6 0 0 .89.54l.36-.19a1.07 1.06-26.7 0 0 .47-1.39l-.88-1.91q-.15-.33-.48-.19-.15.07-.26.2-.33.4-.8.19M216.6 65.16q-.89-.08-1.73.31-.64.29.06.4.89.15 1.75-.25.83-.38-.08-.46" vector-effect="non-scaling-stroke"/><path stroke="#262f03" d="M234.22 65.56q.57.47.46-.26-.04-.28-.31-.25a.29.29 0 0 0-.15.51" vector-effect="non-scaling-stroke"/><path stroke="#1b2401" d="M196.44 66.09q-1.01.48-1.68 1.85-.52 1.06.38.3 1.03-.86 1.75-1.44 2.77-2.23-.45-.71" vector-effect="non-scaling-stroke"/><path stroke="#262f03" d="M238.95 65.95q.19-.11.26-.32.1-.3-.21-.21-.81.21-.89 1.14-.02.19.08.35.26.4.37-.06l.15-.57q.05-.22.24-.33M248.92 66.94l-.5.76q-.29.44-.72.14-.51-.35-1.13-.44-1.01-.16-.17.42.2.13.4.27.42.29.97.17 1.48-.31 2.63-1.45.35-.35-.1-.58l-1.42-.71q-.5-.25-.26.26.08.16.2.28.41.4.1.88M244.39 66.16q-.68-.09-1.28.23-.6.33.07.48.88.2 1.31-.47a.16.15-68.3 0 0-.1-.24M205.61 68.28q.43.32.79.82 1.49 2.09 1.24-.52l-.12-1.31a.61.61 0 0 0-.75-.53l-2.14.54q-.71.18-.14.64.28.22.6.2.29-.01.52.16M224.56 68.28q-.19.38-.32.81-.22.72.39.27 1.19-.89.57-2.36-.19-.44-.4-.01-.16.3-.13.66a1.23 1.23 0 0 1-.11.63" vector-effect="non-scaling-stroke"/><path stroke="#1b2401" d="M214.41 67.41q.05.4.37.17.29-.21-.02-.39a.23.23 0 0 0-.35.22" vector-effect="non-scaling-stroke"/><path stroke="#262f03" d="M231.47 67.31q-.09.19.07.32.17.15.16-.08-.02-.67-.23-.24" vector-effect="non-scaling-stroke"/><path stroke="#1b2401" d="M197.81 69.26q.29.15.63 0 .45-.19.06-.5-1.43-1.12-3.09.35-.51.45.16.58t1.17-.31q.49-.42 1.07-.12" vector-effect="non-scaling-stroke"/><path stroke="#262f03" d="M227.67 68.35q-.22.1-.32.32-.29.6.28.26.27-.16.24-.47-.01-.21-.2-.11" vector-effect="non-scaling-stroke"/><path stroke="#1b2401" d="M194.07 68.88a.24.23-61 0 0-.08-.3q-.56-.37-1.25.13a.41.41 0 0 0 .07.71q.82.38 1.26-.54M205.76 69.382a.83.48.8 0 0-.823-.492.83.48.8 0 0-.837.468.83.48.8 0 0 .823.492.83.48.8 0 0 .837-.468M191.61 69.32q-.46.56.24.33.17-.06.2-.25.03-.21-.18-.21-.16 0-.26.13" vector-effect="non-scaling-stroke"/><path stroke="#262f03" d="M271.15 69.47q-.17-.09-.36-.11-.68-.09-.35.51l.43.76q.31.57.93.37.92-.3 1.06-1.24.11-.79-.6-.43l-.31.16q-.4.21-.8-.02M227 70.56q.33.25.64.2.86-.12.09-.52-.36-.18-.62-.5-.37-.46-.71.03-.07.11-.12.24-.13.31.17.47.27.14.55.08M231.42 69.93q.05-.02.08-.07.24-.38-.21-.32-.35.05-.54.34-.45.69.1 1.26.55.56.34-.19-.11-.42.04-.8.06-.14.19-.22M244.128 71.366a1.24.29 45.6 0 0-.66-1.089 1.24.29 45.6 0 0-1.076-.683 1.24.29 45.6 0 0 .66 1.089 1.24.29 45.6 0 0 1.076.683M234.645 70.43a.99.35-15.2 0 0-1.047-.078.99.35-15.2 0 0-.863.598.99.35-15.2 0 0 1.047.078.99.35-15.2 0 0 .863-.598M239.79 71.21q.09.63.48 1.23.42.63.45-.13.04-1.23-.84-2.11a.29.29 0 0 0-.5.21q.01.5.41.8M282.97 73.18q-.69.23-1.29.61-.67.43-.97-.31-.62-1.59-.07-2.86.25-.59-.35-.38-.55.2-.88.66-.24.34-.06.71.62 1.32-.12 2.69-.84 1.57.75.75 1.77-.91 3.46-1.12a.47.46 1.6 0 0 .41-.38q.37-1.88-.8-2.89-.71-.62-.74.32-.03.82.76 1.25 1.05.58-.1.95M265.95 70.62h.12q.64-.03.05-.12-.1-.02-.19.03-.25.11.02.09M288.883 70.667a.72.45-26.7 0 0-.845-.079.72.45-26.7 0 0-.441.726.72.45-26.7 0 0 .845.078.72.45-26.7 0 0 .441-.725M267.83 71.948a.59.34 52.4 0 0-.09-.675.59.34 52.4 0 0-.63-.26.59.34 52.4 0 0 .09.674.59.34 52.4 0 0 .63.26M231.68 71.7q.1.5.49.76a.25.25 0 0 0 .34-.06q.31-.4.03-.82-.22-.33-.61-.25a.32.32 0 0 0-.25.37M264.37 71.3a.12.11-5.7 0 0-.12-.09q-.26-.03-.44.21-.11.16.03.28.1.09.23.13.36.11.35-.27-.01-.13-.05-.26M276.13 72.59l-.44-.84q-.14-.25-.42-.21-.18.03-.33.13-.44.3-.88 0l-.3-.19q-.65-.44-.25.24.43.73 1.22 1.02a.96.94 86.6 0 1 .54.49l.55 1.18q.33.69.94.23.85-.64.98-1.77.07-.63-.5-.37-.16.07-.25.18-.5.6-.86-.09M264.83 72.27a.34.33-62.8 0 0 .18.57q.61.1.82-.41.06-.15-.07-.23-.53-.31-.93.07M272.021 72.953a2.16.7-26.6 0 0-2.244.341 2.16.7-26.6 0 0-1.618 1.593 2.16.7-26.6 0 0 2.244-.341 2.16.7-26.6 0 0 1.618-1.593" vector-effect="non-scaling-stroke"/><path stroke="#1b2401" d="M273.3 73.19q-.27.17-.27.46a.25.25 0 0 0 .4.2q.3-.22.19-.54a.22.22 0 0 0-.32-.12" vector-effect="non-scaling-stroke"/><path stroke="#262f03" d="M267.33 73.48q-.04.26.21.17.09-.04.12-.13.09-.27-.19-.21-.13.03-.14.17" vector-effect="non-scaling-stroke"/><path stroke="#1b2401" d="M261.45 73.61q.34.34.84.25.43-.08.03-.26-.64-.29-.85-.16-.11.07-.02.17" vector-effect="non-scaling-stroke"/><path stroke="#262f03" d="M263.88 74.05q.13-.36-.25-.38-.16-.01-.31.08-.18.11-.2.33l-.09 1.23q-.1 1.45.39.08l.46-1.34" vector-effect="non-scaling-stroke"/><path stroke="#262f03" d="M263.21 76.87q-1.55.4-2.72 1.42-.49.43.15.29l4.72-1.09a1.8 1.79-1.7 0 0 1.37-1.45q.29-1.64-1.2-1.71-.74-.03-.11.36.58.36.72 1.01.16.76-.61.8-1.19.08-2.32.37M272.24 74.85q-.19.37.02.71a.22.22 0 0 0 .37.01q.2-.28.17-.61-.09-1.02-.56-.11M255.177 75.708a.8.54 133.7 0 0 .943-.205.8.54 133.7 0 0 .163-.951.8.54 133.7 0 0-.943.205.8.54 133.7 0 0-.163.951M260.55 75.51a1.06.41 2.2 0 0-1.044-.45 1.06.41 2.2 0 0-1.075.37 1.06.41 2.2 0 0 1.043.45 1.06.41 2.2 0 0 1.075-.37M269.22 76.81c.22.22.45.48.67.68q.45.42.82-.06.15-.19.23-.42a.38.38 0 0 0-.23-.48q-.63-.22-1.33-.16-.55.05-.16.44M267.48 77.33q-.13-.59-.45-.08l-.46.73q-.29.46.2.7.15.08.31.1.65.09.56-.56-.07-.46-.16-.89M253.87 78.08l.24.1q.31.13.54-.1.24-.23.13-.42-.15-.28-.47-.26l-1.89.17q-.24.02-.29.26-.04.23.12.41a.43.43 0 0 0 .55.09l.3-.19q.36-.23.77-.06M275.18 78.31q-.01-.49-1.17-.76-.58-.13-.29.39.21.36.43.69 1.07 1.62 1.03-.32M256.27 79.54q-.25.49-.05 1a.26.26 0 0 0 .5-.05q.1-.49-.08-.93a.2.2 0 0 0-.37-.02M270.33 80.665a1.13.41 24.3 0 0-.861-.839 1.13.41 24.3 0 0-1.199-.091 1.13.41 24.3 0 0 .861.839 1.13.41 24.3 0 0 1.199.091M258.14 81.91q.98-.45 1.25-1.43a.34.33-71.3 0 0-.19-.4l-.25-.09q-.24-.1-.34.14l-1.16 2.74q-.38.91.25.26.23-.23.13-.55a.56.56 0 0 1 .31-.67M263.51 83.31c1.44-.62 2.41-1.48 2.14-3.22q-.03-.2-.22-.21l-.43-.02q-.41-.01-.36.39.21 1.73-1.53 2.02-.29.04-.18.31l.22.57q.1.27.36.16" vector-effect="non-scaling-stroke"/><path stroke="#1b2401" d="M272.07 80.29q.12-.17 0-.35a.29.29 0 0 0-.46-.03q-.13.15-.05.33.22.49.51.05M262.11 80.41a.39.39 0 0 0 .16.59q.46.18.83-.1.47-.37-.06-.66-.56-.31-.93.17" vector-effect="non-scaling-stroke"/><path stroke="#262f03" d="m267.7 81.52-.06-.53q-.12-1.02-.53-.08l-.58 1.36q-.2.47.26.69 1.67.79 3.34.07.75-.33-.06-.44l-1.53-.22q-.75-.1-.84-.85M290.45 87.46q-.52-.31-.55.29-.02.53.43.85.19.12.41.08.18-.02.33-.12.59-.37-.01-.73l-.61-.37M285.4 90.53q.34-.09.12-.36l-2.11-2.49a.27.27 0 0 0-.36-.05l-.24.16a.32.32 0 0 0-.08.44l1.51 2.31q.17.26.47.18l.69-.19M288.93 88.13a.51.51 0 0 0-.51-.51.51.51 0 0 0-.51.51.51.51 0 0 0 .51.51.51.51 0 0 0 .51-.51" vector-effect="non-scaling-stroke"/><path stroke="#1b2401" d="M292.98 89.27a.34.34 0 0 0 .52.03q.42-.42.41-.97a.57.57 0 0 0-.66-.55l-.43.07q-.83.15-.31.81l.47.61M297.11 89.97q.1.12.18.26.44.85.36-.11-.03-.35.12-.68.93-2.01-1.01-.95-.8.44-1.32 1.15-.57.78.36.5l.94-.28a.35.34 61.1 0 1 .37.11M286.77 89.06q.01-.15-.06-.3-.12-.23-.31-.05-.4.38-.3.92.15.79.93.9.92.14.24-.5-.29-.28-.44-.63-.06-.16-.06-.34M292.76 90.87q.56-.2.34-.78-.05-.14-.18-.09l-1.64.56q-.37.13-.31.52.03.18.15.32.35.42.77.07.19-.17.38-.33.22-.18.49-.27M287.08 91.98q-.13-.12-.18-.28-.31-.91-.51.03-.11.51.12 1.02.2.43.67.32.91-.23 1.38-.84.29-.38-.19-.39-.34-.01-.61.18a.54.53 47.7 0 1-.68-.04M306.34 92.5q.35.16.25-.21-.12-.47-.61-.68-.33-.15-.23.2.16.48.59.69" vector-effect="non-scaling-stroke"/><path stroke="#262f03" d="M298.71 96.17c-.47-1.21-1.1-2.64-.85-3.98a.1.1 0 0 0-.12-.12l-.26.04q-.22.04-.17.25.56 2.52-.02 4.9-.16.63.48.5.43-.09.72-.41.48-.51.22-1.18M302.58 93.43l-.75-.95q-.61-.77-.91.17l-.12.38q-.31 1 .73 1.05.54.02 1-.3a.24.24 0 0 0 .05-.35" vector-effect="non-scaling-stroke"/><path stroke="#1b2401" d="m292.64 95.18-.94 1.78q-.28.54.19.16 1.94-1.59 1.72-4.05-.09-1.02-.42-.05-.2.59-.26 1.2-.06.51-.29.96M304.32 93.36q.4.05.3-.31a.16.16 0 0 0-.28-.07q-.3.35-.02.38" vector-effect="non-scaling-stroke"/><path stroke="#262f03" d="M295.25 94.25q-.17.22-.08.49.13.4.45.13.2-.18.19-.44a.31.31 0 0 0-.56-.18M309.56 96.48a1.14.46 76.8 0 0 .188-1.215 1.14.46 76.8 0 0-.708-1.005 1.14.46 76.8 0 0-.188 1.215 1.14.46 76.8 0 0 .708 1.005" vector-effect="non-scaling-stroke"/><path stroke="#1b2401" d="M288.63 95.66q.6-.21.14-.65-.31-.29-.74-.16-.55.16-.61.68-.07.56.46.38l.75-.25" vector-effect="non-scaling-stroke"/><path stroke="#262f03" d="m311.97 96.49-.08.61q-.08.56.43.33.17-.08.34-.15.3-.14.22-.46-.24-.97-1.06-1.72-.51-.46-.56.23-.06.66.63 1.01a.15.13 19.7 0 1 .08.15" vector-effect="non-scaling-stroke"/><path stroke="#1b2401" d="M305.67 95.54q.04.43.32.32.16-.07.19-.22.06-.31-.24-.35a.23.23 0 0 0-.27.25" vector-effect="non-scaling-stroke"/><path stroke="#262f03" d="M285.3 96.885a.67.42 48.9 0 0-.124-.781.67.42 48.9 0 0-.756-.229.67.42 48.9 0 0 .123.781.67.42 48.9 0 0 .757.229" vector-effect="non-scaling-stroke"/><path stroke="#1b2401" d="m305.67 98.11.77.26q1.01.34.47-.57-.33-.57-.85-.95-.59-.44-.92.22l-.25.52q-.25.51-.73.22-.66-.4-.58-1.35.09-1.09-.72-.36l-1.2 1.06q-.65.57.03 1.1.89.69 1.87 1.08 1.08.42 1.25-.7.12-.78.86-.53M287.21 98.27a.18.18 0 0 0 0 .32q.22.12.45.03a.2.2 0 0 0 .01-.37q-.24-.09-.46.02M308.54 98.57q.19-.28-.1-.41-.19-.09-.3.09-.1.18.07.34.18.19.33-.02" vector-effect="non-scaling-stroke"/><path stroke="#262f03" d="m295.03 98.71-.18-.23a.42.42 0 0 0-.61-.07l-.77.64q-.53.45.06.82.98.63 1.93.03.46-.29.07-.66l-.26-.25q-.13-.13-.24-.28M299.48 99.52l-.82-.88a.25.25 0 0 0-.36-.01l-.06.06a3.48.77-43 0 0-2.02 2.93l.11.12a3.48.77-43 0 0 3.07-1.81l.06-.06a.25.25 0 0 0 .02-.35M291.16 102.16q.72.51.97 1.35.12.41.54.31l.31-.06q.39-.09.27-.47c-.32-1.03-1.15-2.3-2.43-1.92q-.58.17-1.18.3-.67.13-.38.75.35.73.99.99.63.27.21-.27-.3-.39-.07-.81a.53.53 0 0 1 .77-.17M287.21 102.51a.44.44 0 0 0 .43.61q.45-.04.53-.43a.46.45 85.2 0 0-.61-.52q-.25.1-.35.34" vector-effect="non-scaling-stroke"/><path stroke="#1b2401" d="M288.581 104.767a.66.48 9.3 0 0-.573-.58.66.48 9.3 0 0-.73.366.66.48 9.3 0 0 .574.58.66.48 9.3 0 0 .73-.366M303.17 120.13q1.36.34.09.91-.36.16-.51.51-.32.77.5.66l2.43-.31q.64-.08.5-.71l-1.3-5.94a1.05 1.03-23.7 0 1 .43-1.08q1.01-.68 1.32.45.67 2.48 2.47 2.37.99-.05.52.82-.2.35-.57.28a.83.8 76.2 0 1-.49-.31q-.78-1-2.17-.82-.85.12-.22.7l.29.27q.39.36.47.89.23 1.49 1.88 1.84a.4.4 0 0 0 .48-.39q0-.15-.05-.29-.16-.43.18-.74l2.04-1.8q.41-.35 0-.7-1.04-.88-2.14-.87-.41 0-.71-.29l-2.76-2.69a1.04 1.03-59.6 0 0-1.71.45q-.3 1-.91 1.81a.5.49 35.4 0 0 .12.7q.26.19.46.44a.59.59 0 0 1 .05.65l-1.14 1.95q-.3.5.05.97.16.21.4.27M315.924 120.186a1.58.89-19 0 0-1.784-.328 1.58.89-19 0 0-1.204 1.356 1.58.89-19 0 0 1.784.328 1.58.89-19 0 0 1.204-1.356" vector-effect="non-scaling-stroke"/><path stroke="#262f03" d="m307.49 123.03.5 1.03q.24.49.6.07l.94-1.1q.53-.63-.29-.66l-1.29-.05q-.82-.03-.46.71" vector-effect="non-scaling-stroke"/><path stroke="#1b2401" d="m315.54 123.37 1.45.51q.72.26.93-.47l.1-.34a.67.67 0 0 0-.57-.85q-1.76-.2-3.11.95a.26.26 0 0 0 .17.46q.21 0 .38-.14.29-.25.65-.12" vector-effect="non-scaling-stroke"/><path stroke="#1b2401" d="M319.25 124.12q-.26.35-.58.24-.52-.18-.69.35-.26.84-1.11 1.01-.31.06-.59-.1-.97-.56-1.5.61a.51.5 10.1 0 0 .5.71q2.41-.17 4.19-1.47.34-.25.54.13.07.15.08.32.01.37-.18.7-.78 1.34-.84 2.98-.01.28.26.24l.36-.04q.2-.03.21-.23l.12-1.57q.12-1.67 1.28-.48.37.38.85.37.94-.01.16-.54-1.25-.84-1.65-2.25-.12-.46-.6-.48l-.25-.01a.44.43 17.8 0 1-.35-.67q.26-.42.19-.93-.11-.84-.35-.03-.11.33.01.67a.52.52 0 0 1-.06.47M311.09 122.88a.48.47-36.7 0 0-.13.84q.54.36 1.09.05a.5.49-52.8 0 0-.12-.91q-.43-.11-.84.02M303.97 123.53q-.12.46.35.43.35-.02.57-.3a.34.34 0 0 0-.17-.54q-.58-.18-.75.41M306.54 125.79q1.61-.78.54-2.29-.45-.65-.6.12l-.36 1.84q-.12.59.42.33M310.41 125.61a.16.15-49.4 0 0-.01-.23q-1.14-.81-2.16-.07-.6.43.07.73 1.12.5 2.1-.43M311.43 127.526a.62.37 106 0 0 .526-.494.62.37 106 0 0-.185-.698.62.37 106 0 0-.527.494.62.37 106 0 0 .185.698M314.6 129.12q.25.02.43.24a.6.59-36.9 0 0 .78.11q.31-.2.51-.49.48-.72-.39-.68l-2.57.14a.62.61 74.7 0 0-.51.9l.18.34a.28.27-34.2 0 0 .43.08l.41-.39q.31-.29.73-.25M302.197 132.758a.82.57 141.7 0 0 .996-.06.82.57 141.7 0 0 .29-.956.82.57 141.7 0 0-.996.06.82.57 141.7 0 0-.29.956" vector-effect="non-scaling-stroke"/><path stroke="#262f03" d="M305.21 148.462a.89.42-.5 0 0-.894-.412.89.42-.5 0 0-.886.428.89.42-.5 0 0 .894.412.89.42-.5 0 0 .886-.428" vector-effect="non-scaling-stroke"/><path stroke="#1b2401" d="M307.83 149.18q.17.28.47.41.41.19.46-.27.13-1.23-1.18-1.28a.42.42 0 0 0-.43.52q.06.26.35.36a.6.56-4.6 0 1 .33.26M311.98 151.96l-.5.28q-.56.31.03.54.2.08.42.06.46-.04.48-.5.05-.82.59-1.42.54-.61-.27-.69l-2.12-.22q-.26-.02-.27.24l-.01.28q0 .07.07.08.85.11 1.56.46.86.43.02.89M306.93 151.89q-1.17-.23-2.09-1.07-1.21-1.1-1.08.53.07.85-.4 1.6-.51.81.3.3.78-.49 1.42-1.17.37-.38.86-.18 1.73.73 2.12 1.24.62.83.27 1.7a.51.5 13.8 0 1-.54.32q-1.54-.18-2.76 1.02-.57.55.21.7.45.08.75.43.75.9.56-.26-.13-.79.61-1.12a.54.54 0 0 1 .73.33q.53 1.71-.84 2.59a.82.81-14.1 0 0-.38.63q-.08 1.08-.64 2.02-.28.47.27.53l.45.05a.88.87-73.8 0 0 .87-.48q.73-1.46.7-2.91-.01-.47.29-.84.39-.47.29-1.1a1.35 1.33 55.3 0 1 .14-.81q1.72-3.26-1.11-5.29-.48-.34-.77.3-.06.12.04.21.13.12.16.29.13.56-.43.44M310.72 154.98q.37.43.9.68a.61.6 30.7 0 0 .74-.18q.18-.24.19-.52.03-.55-.5-.67-.53-.13-1.07-.04-.75.14-.26.73M311.83 158.65h.28q.94 0 .32-.71-.82-.93-1.98-.98-.98-.05-.69.88.22.68.01 1.39-.2.71.53.74.95.03 1.19-1.04.06-.28.34-.28" vector-effect="non-scaling-stroke"/><path stroke="#262f03" d="m318.61 164.09 2.22 1.75q.97.75.58-.41l-.3-.91q-.11-.36-.1-.73.02-.56-.4-.88a.57.56 46.5 0 0-.65-.02q-.71.46-1.55.48a.58.56 86.1 0 1-.57-.51l-.03-.34q-.05-.51.45-.52.27 0 .52-.13.71-.36-.07-.54-1.17-.29-2.08-.91-.62-.43-.41.29.12.41.46.66.86.63.18 1.45-1.82 2.18.02 3.44 1.24.85.94-.63-.13-.6-.08-1.16.09-.99.87-.38" vector-effect="non-scaling-stroke"/><path stroke="#1b2401" d="m305.98 164.13.17.4q.27.63.6.02.12-.22.32-.35.52-.33.81.22l.26.5q.29.55.57-.01l1.03-2.08q.34-.7-.41-.5-.92.25-1.65.89-.44.38-1.02.39-1.34.01-2.45-.92-.43-.36-.42-.92 0-.27-.2-.48-.65-.7-.49.24.17.97-.31 1.74-.3.48-.11 1.02.2.57.58 1.01 1.69 1.96 1.64-.57-.02-.68.68-.82.29-.05.4.22M313.81 162.47q.03-.29-.26-.46-.45-.27-.49.25-.09 1.09.76 1.45.83.36.35-.41l-.27-.41q-.12-.2-.09-.42M311.14 164.41l-.72 2.1q-.35 1.01.53.4 1.36-.94.9-2.48-.34-1.11-.71-.02M312.89 165.91q-.24.47.16.89a.46.46 0 0 0 .79-.27q.04-.37-.21-.7a.44.44 0 0 0-.74.08M301.31 177.96l-.45 1.28a.38.38 0 0 0 .52.48q1.37-.66.67-1.83-.44-.75-.74.07M304.06 178.73c.6.21.84.37 1.22.87q.62.82.29-.15-.37-1.05-1.47-1-.76.03-.04.28M304.54 181.78q-.72-.04-1.58.06-.94.1-.14.61 1.47.93 2.81-.46.37-.39.23-.9a.22.22 0 0 0-.34-.12q-.17.13-.25.34-.19.5-.73.47M308.95 186.13q-.06.43.27.63.6.36.87-.28.63-1.49-.64-2.85a.73.73 0 0 0-1.18.17q-.45.85.35 1.48.41.33.33.85M305.09 185.21a.82.81 43.7 0 1 1-.02l1.18.87q.51.37.24-.2-.69-1.48-2.47-1.7-.57-.07-.83.43-.13.25-.13.53-.01.93.71.34l.3-.25M312.51 192.65q-.11.83-.17 1.6a.25.24 1.9 0 0 .26.27l.26-.02q.11 0 .1-.11-.09-.95-.45-1.91-.02-.06.04-.07.07-.03.03.04-.05.09-.07.2M301.88 191.84l.33-.15q.91-.39-.07-.54-.71-.12-1.44.26-1 .51-.68 1.57.25.82.62.04.2-.42.54-.73.31-.28.7-.45M295.45 218.12q1.33-1.08 2.6-2.21.77-.68.89-2.47.02-.33-.17-.55a.62.62 0 0 0-.86-.06l-1.79 1.54q-.45.39-.02.81.28.27.13.63-.2.5-.6.87-1.23 1.14-.47 2.79.23.5.76.34l1.85-.58q.5-.16.98.07l4.21 2.02q.15.07.28-.03.11-.08.13-.22.09-.64-.56-.68-1.4-.08-2.08-1.32-.33-.59-1-.55-.41.03-.74.24-.64.4-.97-.28l-.3-.61q-.23-.45-.61-.11-.2.18-.14.43a.4.39 58.1 0 1-.08.37q-.61.73-1.35.37-.67-.33-.09-.81M301.11 213.92q.35.84 1.04 1.39.59.46.69-.27.13-.88-.53-1.3-.26-.17-.57-.15-.24.01-.47.04a.21.2 75 0 0-.16.29" vector-effect="non-scaling-stroke"/><path stroke="#1b2401" d="M303.4 218.359a2.07.67 38.5 0 0-1.203-1.813 2.07.67 38.5 0 0-2.037-.765 2.07.67 38.5 0 0 1.203 1.813 2.07.67 38.5 0 0 2.037.765M293.02 234.71q-.18.12-.31.29-.44.58.29.57.31 0 .51-.31.07-.11.08-.24.01-.16-.14-.29-.21-.17-.43-.02" vector-effect="non-scaling-stroke"/></g><path d="M274.82 67.82q-.36 1.06.53 1.78a.93.93 0 0 0 1.51-.61q.06-.57-.81-1.17 7.84-.17 14.83 2.13 2.72.9-.04 1.65-5.83 1.57-12 5.52-.57-1.05-1.34-.37-1.27 1.13-.27 1.32l-6.12 5.01a.36.36 0 0 0 .12.62q3.4 1.03 7.12 2.41 1.63.61 3.41.41c12.94-1.43 25.1 1.48 34.02 10.33q1.48 1.46 2.47 3.4a.35.35 0 0 1-.42.5c-8.78-2.72-19.28.33-26.95 5.56q-.69.46.05.83c2.8 1.4 5.98 1.24 8.81 2.13q12.78 4.07 21.96 14.41 2.79 3.15 4.92 7.36.62 1.2-.63.68c-4.94-2.06-10.24-.66-15.32.12l-.32-1.54q-.12-.58-.62-.9l-2.11-1.35q-.64-.4-.64.35-.01 1.85-1.77 2.36-.46.14-.26.56l.14.3a.25.25 0 0 0 .31.12q1.62-.64 1.81-2.09a.49.48 20.3 0 1 .75-.34q1.51.98 1.3 2.88l-7.4 2.75a1.8 1.79-30.5 0 0-.74 2.85q2.56 3 2.6 6.39.01.63.61.83 5.13 1.71 9.42 4.95l.39 2.02q.11.56.53.95.35.34.46.8a.88.87-26.8 0 1-.29.88q-.82.68-1.09 1.6-.62.16-.62.96a.61.61 0 0 0 .5.61q1.36.26 2.77.07.45-.06.6-.49.31-.89 1.12-1.31.51-.26.58-.79.06-.45-.08-1.13 3.58 3.66 6.26 8.74 2.08 3.94 1.79 8.33a.37.37 0 0 1-.49.33l-9.54-3.21q.43-2.46-2-1.42-.65.27-.66 1l-6.5-.47q.29-.95-.49-1.54-.43-.32-.88-.04-.85.55-.61 1.58l-3.06.22q-.57.04-.63.62l-.36 3.69q-.08.77.63 1.07 2.93 1.21 4.84 3.18 9.25 9.55 7.24 23.45-.17 1.13-1.2.65l-6.87-3.19q-1.63-3.07.14-4.63 1.05-.91 1.83-2.2a.8.79 31.7 0 1 1.11-.26q1.73 1.1-1.68 3.05a.61.6 55.8 0 0-.17.91q.44.55 1.05.5.56-.06.88-.52l2.28-3.24q.31-.44-.23-.44-.35 0-.51.27a.51.5-54.2 0 1-.76.13q-.16-.14-.26-.33a.68.67 49.3 0 1 .05-.74q.66-.89-.35-1.49a1 .99 33.2 0 0-1.32.27l-1.97 2.74q-.51.71-1.3.33l-.68-.33a.67.66-60.2 0 1-.26-.97l1.7-2.49q.51-.74-.33-.43-.9.34-1.32 1.3-.43 1-.89.01-.39-.83-1.3-1.02-2.81-.58-.32-1.96.13-.07 1.34-.43.12-.04.11-.16l-.04-.33q-.05-.39-.4-.23-.99.47-1.7-.14-.6-.52-.72.26-.18 1.19-1.03 1.4l1.26-9.89 1.05 1.14a.79.79 0 0 0 1.36-.41q.28-1.84-.7-1.75-1.09.1-1.76-.51 2.12-13.68 2.2-27.52.01-1.52.26-2.89.6-3.25-2.89-6.18-.34-.28-.27-.72l1.27-7.69q.58.11.79-.59.19-.64.85-.73l2.59-.33a.54.53-83.7 0 0 .44-.36l.12-.34a.26.25 11.8 0 0-.22-.33l-4.11-.38-.11-14.38a1.23 1.21 14.8 0 0-.63-1.06c-.97-.53-1.94-1.31-3.05-1.43q-5.82-.67-10.84-4.27-1.7-1.22-2.03-3.4.4.41.81.1a.59.58 60 0 0 .19-.72q-.15-.37-.59-.26-.4.1-.58.47-.53-1.94-2.56-2.68a.84.83-62.4 0 1-.39-1.26q2.31-3.33 1.24-7.19c-1.03-3.76-3.31-3-6.21-4.18-2.02-.82-4.03-1.07-6.17-1.48q-1.61-.31-3.21-.13-4.92.56-9.67.33-.58-.03-.96-.48-2.23-2.73-4.99-4.8c-.71-.54-1.06-1.23-1.48-1.99q-.25-.44-.68-.7-4.61-2.71-6.42-3.18-1.28-.33-5.33.26l-1.85-.81q-.49-.21-.74.26-.21.41-.23.93c-2.17.67-4.43.91-6.43-.39-2.15-1.4-4.48-3.09-7.13-3.25q-2.54-.16-4.78-.07c-1.44.05-2.4-.31-3.74-.64q.28.08.47-.04.38-.26.08-.61-1.95-2.25-3.04-4.98-.28-.7-.35.05l-.24 2.3q-.05.54.33.94l2.33 2.43q-5.36 1.58-10.96.61c-1.46-.25-3.69.19-5.08.76q-4.99 2.05-9.69 3.02-.49.1-.74-.33-.23-.39.05-.75c3.5-4.55 7.62-8.95 13.27-10.51 8.57-2.37 17.21-1.87 26.07-1.13q.25.02.38.22a.37.37 0 0 1-.16.56l-4.73 2.06q-.26-.73.23-1.5.19-.31-.12-.5-.13-.08-.3-.08-.25-.01-.53.23-2.37 2.05-.47 2.46l-3.93 2.78a.35.35 0 0 0 .16.64l4.1.46q.82.09 1.38-.5c7.13-7.42 16.97-8.97 27.18-8.61q7.27.26 12.95 2.61 3.79 1.56-.24 2.28-9.24 1.64-16.71 7.46-.13.1-.01.2 3.4 2.79 5.46 3.78.09.05.17-.01 11.24-7.47 24.79-8.55m-36.17-5.13q.59.23 1-.2a.42.42 0 0 0-.34-.7q-.42.04-.75.32-.43.37.09.58m-22.11 1.247a1.07.78 70.3 0 0 .374-1.27 1.07.78 70.3 0 0-1.095-.744 1.07.78 70.3 0 0-.373 1.27 1.07.78 70.3 0 0 1.095.744M242 64.8q.56-1.11.4-2.45-.04-.35-.39-.33l-.45.03q-.56.03-.39.57.78 2.49-.69 4.74-.27.41-.12.87.1.29.4.44.69.34.78-.42l.39-3.22a.93.91 62.7 0 1 .07-.23m4.06-1.98q.25.02.51.03.45.02.12-.28-.33-.31-.68-.19-1.06.34.05.44m9.9.99c-.57.75-1.25 1.22-2.24 1.07q-.5-.08-.87.23-.61.53.19.52l1.2-.01q.54-.01.93-.38.96-.89 2.15-1.25.6-.19.13-.61-1.8-1.58-4.16-.81-.75.25-.16.79l.33.29a.84.83 40 0 0 1.22-.1q.47-.6 1.14-.3.42.19.14.56m-43.96-.7q-.1.4.05.78a.42.41 61.3 0 0 .63.19q.26-.19.26-.51-.01-.51-.47-.7a.35.34 17.4 0 0-.47.24m20.08 1.68-.38.65q-.27.44.25.45.83 0 .46-1.31a1.76 1.73 40.5 0 1-.06-.69q.08-.94-.49-.86-.42.06-.25.44.13.3.36.53.37.35.11.79m3.26-1.69q-.32.16-.4.49-.09.38.27.24.43-.16.42-.55a.2.2 0 0 0-.29-.18m2.17.62q-.26-.09-.07.67.12.49.31.02.2-.51-.24-.69m8.893 2.004a.92.29 113.5 0 0 .633-.728.92.29 113.5 0 0 .1-.96.92.29 113.5 0 0-.632.728.92.29 113.5 0 0-.1.96m-39.153-.994-.11.85q-.09.7.36.16.41-.49.11-1.08-.29-.55-.36.07m-6.99.3-.88-.4q-.93-.42-.4.44.31.51.89.51a.83.83 0 0 1 .75.51q.34.81.34 1.69a.61.6-13.6 0 0 .89.54l.36-.19a1.07 1.06-26.7 0 0 .47-1.39l-.88-1.91q-.15-.33-.48-.19-.15.07-.26.2-.33.4-.8.19m16.34.13q-.89-.08-1.73.31-.64.29.06.4.89.15 1.75-.25.83-.38-.08-.46m17.62.4q.57.47.46-.26-.04-.28-.31-.25a.29.29 0 0 0-.15.51m-37.78.53q-1.01.48-1.68 1.85-.52 1.06.38.3 1.03-.86 1.75-1.44 2.77-2.23-.45-.71m42.51-.14q.19-.11.26-.32.1-.3-.21-.21-.81.21-.89 1.14-.02.19.08.35.26.4.37-.06l.15-.57q.05-.22.24-.33m9.97.99-.5.76q-.29.44-.72.14-.51-.35-1.13-.44-1.01-.16-.17.42.2.13.4.27.42.29.97.17 1.48-.31 2.63-1.45.35-.35-.1-.58l-1.42-.71q-.5-.25-.26.26.08.16.2.28.41.4.1.88m-4.53-.78q-.68-.09-1.28.23-.6.33.07.48.88.2 1.31-.47a.16.15-68.3 0 0-.1-.24m-38.78 2.12q.43.32.79.82 1.49 2.09 1.24-.52l-.12-1.31a.61.61 0 0 0-.75-.53l-2.14.54q-.71.18-.14.64.28.22.6.2.29-.01.52.16m18.95 0q-.19.38-.32.81-.22.72.39.27 1.19-.89.57-2.36-.19-.44-.4-.01-.16.3-.13.66a1.23 1.23 0 0 1-.11.63m-10.15-.87q.05.4.37.17.29-.21-.02-.39a.23.23 0 0 0-.35.22m17.06-.1q-.09.19.07.32.17.15.16-.08-.02-.67-.23-.24m-33.66 1.95q.29.15.63 0 .45-.19.06-.5-1.43-1.12-3.09.35-.51.45.16.58t1.17-.31q.49-.42 1.07-.12m29.86-.91q-.22.1-.32.32-.29.6.28.26.27-.16.24-.47-.01-.21-.2-.11m-33.6.53a.24.23-61 0 0-.08-.3q-.56-.37-1.25.13a.41.41 0 0 0 .07.71q.82.38 1.26-.54m11.69.502a.83.48.8 0 0-.823-.492.83.48.8 0 0-.837.468.83.48.8 0 0 .823.492.83.48.8 0 0 .837-.468m-14.15-.062q-.46.56.24.33.17-.06.2-.25.03-.21-.18-.21-.16 0-.26.13m79.54.15q-.17-.09-.36-.11-.68-.09-.35.51l.43.76q.31.57.93.37.92-.3 1.06-1.24.11-.79-.6-.43l-.31.16q-.4.21-.8-.02M227 70.56q.33.25.64.2.86-.12.09-.52-.36-.18-.62-.5-.37-.46-.71.03-.07.11-.12.24-.13.31.17.47.27.14.55.08m4.42-.63q.05-.02.08-.07.24-.38-.21-.32-.35.05-.54.34-.45.69.1 1.26.55.56.34-.19-.11-.42.04-.8.06-.14.19-.22m12.708 1.436a1.24.29 45.6 0 0-.66-1.089 1.24.29 45.6 0 0-1.076-.683 1.24.29 45.6 0 0 .66 1.089 1.24.29 45.6 0 0 1.076.683m-9.483-.936a.99.35-15.2 0 0-1.047-.078.99.35-15.2 0 0-.863.598.99.35-15.2 0 0 1.047.078.99.35-15.2 0 0 .863-.598m5.145.78q.09.63.48 1.23.42.63.45-.13.04-1.23-.84-2.11a.29.29 0 0 0-.5.21q.01.5.41.8m43.18 1.97q-.69.23-1.29.61-.67.43-.97-.31-.62-1.59-.07-2.86.25-.59-.35-.38-.55.2-.88.66-.24.34-.06.71.62 1.32-.12 2.69-.84 1.57.75.75 1.77-.91 3.46-1.12a.47.46 1.6 0 0 .41-.38q.37-1.88-.8-2.89-.71-.62-.74.32-.03.82.76 1.25 1.05.58-.1.95m-17.02-2.56h.12q.64-.03.05-.12-.1-.02-.19.03-.25.11.02.09m22.933.046a.72.45-26.7 0 0-.845-.078.72.45-26.7 0 0-.441.726.72.45-26.7 0 0 .845.078.72.45-26.7 0 0 .441-.725m-21.053 1.282a.59.34 52.4 0 0-.09-.675.59.34 52.4 0 0-.63-.26.59.34 52.4 0 0 .09.674.59.34 52.4 0 0 .63.26m-36.15-.248q.1.5.49.76a.25.25 0 0 0 .34-.06q.31-.4.03-.82-.22-.33-.61-.25a.32.32 0 0 0-.25.37m32.69-.4a.12.11-5.7 0 0-.12-.09q-.26-.03-.44.21-.11.16.03.28.1.09.23.13.36.11.35-.27-.01-.13-.05-.26m11.76 1.29-.44-.84q-.14-.25-.42-.21-.18.03-.33.13-.44.3-.88 0l-.3-.19q-.65-.44-.25.24.43.73 1.22 1.02a.96.94 86.6 0 1 .54.49l.55 1.18q.33.69.94.23.85-.64.98-1.77.07-.63-.5-.37-.16.07-.25.18-.5.6-.86-.09m-11.3-.32a.34.33-62.8 0 0 .18.57q.61.1.82-.41.06-.15-.07-.23-.53-.31-.93.07m7.191.683a2.16.7-26.6 0 0-2.244.341 2.16.7-26.6 0 0-1.618 1.593 2.16.7-26.6 0 0 2.244-.341 2.16.7-26.6 0 0 1.618-1.593m1.279.237q-.27.17-.27.46a.25.25 0 0 0 .4.2q.3-.22.19-.54a.22.22 0 0 0-.32-.12m-5.97.29q-.04.26.21.17.09-.04.12-.13.09-.27-.19-.21-.13.03-.14.17m-5.88.13q.34.34.84.25.43-.08.03-.26-.64-.29-.85-.16-.11.07-.02.17m2.43.44q.13-.36-.25-.38-.16-.01-.31.08-.18.11-.2.33l-.09 1.23q-.1 1.45.39.08zm-.67 2.82q-1.55.4-2.72 1.42-.49.43.15.29l4.72-1.09a1.8 1.79-1.7 0 0 1.37-1.45q.29-1.64-1.2-1.71-.74-.03-.11.36.58.36.72 1.01.16.76-.61.8-1.19.08-2.32.37m9.03-2.02q-.19.37.02.71a.22.22 0 0 0 .37.01q.2-.28.17-.61-.09-1.02-.56-.11m-17.063.858a.8.54 133.7 0 0 .943-.205.8.54 133.7 0 0 .163-.951.8.54 133.7 0 0-.943.205.8.54 133.7 0 0-.163.951m5.372-.197a1.06.41 2.2 0 0-1.043-.45 1.06.41 2.2 0 0-1.075.368 1.06.41 2.2 0 0 1.043.45 1.06.41 2.2 0 0 1.075-.368m8.671 1.299c.22.22.45.48.67.68q.45.42.82-.06.15-.19.23-.42a.38.38 0 0 0-.23-.48q-.63-.22-1.33-.16-.55.05-.16.44m-1.74.52q-.13-.59-.45-.08l-.46.73q-.29.46.2.7.15.08.31.1.65.09.56-.56-.07-.46-.16-.89m-13.61.75.24.1q.31.13.54-.1.24-.23.13-.42-.15-.28-.47-.26l-1.89.17q-.24.02-.29.26-.04.23.12.41a.43.43 0 0 0 .55.09l.3-.19q.36-.23.77-.06m21.31.23q-.01-.49-1.17-.76-.58-.13-.29.39.21.36.43.69 1.07 1.62 1.03-.32m-18.91 1.23q-.25.49-.05 1a.26.26 0 0 0 .5-.05q.1-.49-.08-.93a.2.2 0 0 0-.37-.02m14.06 1.125a1.13.41 24.3 0 0-.861-.839 1.13.41 24.3 0 0-1.199-.091 1.13.41 24.3 0 0 .861.839 1.13.41 24.3 0 0 1.199.091m-12.19 1.245q.98-.45 1.25-1.43a.34.33-71.3 0 0-.19-.4l-.25-.09q-.24-.1-.34.14l-1.16 2.74q-.38.91.25.26.23-.23.13-.55a.56.56 0 0 1 .31-.67m5.37 1.4c1.44-.62 2.41-1.48 2.14-3.22q-.03-.2-.22-.21l-.43-.02q-.41-.01-.36.39.21 1.73-1.53 2.02-.29.04-.18.31l.22.57q.1.27.36.16m8.56-3.02q.12-.17 0-.35a.29.29 0 0 0-.46-.03q-.13.15-.05.33.22.49.51.05m-9.96.12a.39.39 0 0 0 .16.59q.46.18.83-.1.47-.37-.06-.66-.56-.31-.93.17m5.59 1.11-.06-.53q-.12-1.02-.53-.08l-.58 1.36q-.2.47.26.69 1.67.79 3.34.07.75-.33-.06-.44l-1.53-.22q-.75-.1-.84-.85m22.75 5.94q-.52-.31-.55.29-.02.53.43.85.19.12.41.08.18-.02.33-.12.59-.37-.01-.73zm-5.05 3.07q.34-.09.12-.36l-2.11-2.49a.27.27 0 0 0-.36-.05l-.24.16a.32.32 0 0 0-.08.44l1.51 2.31q.17.26.47.18zm3.53-2.4a.51.51 0 0 0-.51-.51.51.51 0 0 0-.51.51.51.51 0 0 0 .51.51.51.51 0 0 0 .51-.51m4.05 1.14a.34.34 0 0 0 .52.03q.42-.42.41-.97a.57.57 0 0 0-.66-.55l-.43.07q-.83.15-.31.81zm4.13.7q.1.12.18.26.44.85.36-.11-.03-.35.12-.68.93-2.01-1.01-.95-.8.44-1.32 1.15-.57.78.36.5l.94-.28a.35.34 61.1 0 1 .37.11m-10.34-.91q.01-.15-.06-.3-.12-.23-.31-.05-.4.38-.3.92.15.79.93.9.92.14.24-.5-.29-.28-.44-.63-.06-.16-.06-.34m5.99 1.81q.56-.2.34-.78-.05-.14-.18-.09l-1.64.56q-.37.13-.31.52.03.18.15.32.35.42.77.07.19-.17.38-.33.22-.18.49-.27m-5.68 1.11q-.13-.12-.18-.28-.31-.91-.51.03-.11.51.12 1.02.2.43.67.32.91-.23 1.38-.84.29-.38-.19-.39-.34-.01-.61.18a.54.53 47.7 0 1-.68-.04m19.26.52q.35.16.25-.21-.12-.47-.61-.68-.33-.15-.23.2.16.48.59.69m-7.63 3.67c-.47-1.21-1.1-2.64-.85-3.98a.1.1 0 0 0-.12-.12l-.26.04q-.22.04-.17.25.56 2.52-.02 4.9-.16.63.48.5.43-.09.72-.41.48-.51.22-1.18m3.87-2.74-.75-.95q-.61-.77-.91.17l-.12.38q-.31 1 .73 1.05.54.02 1-.3a.24.24 0 0 0 .05-.35m-9.94 1.75-.94 1.78q-.28.54.19.16 1.94-1.59 1.72-4.05-.09-1.02-.42-.05-.2.59-.26 1.2-.06.51-.29.96m11.68-1.82q.4.05.3-.31a.16.16 0 0 0-.28-.07q-.3.35-.02.38m-9.07.89q-.17.22-.08.49.13.4.45.13.2-.18.19-.44a.31.31 0 0 0-.56-.18m14.31 2.23a1.14.46 76.8 0 0 .188-1.215 1.14.46 76.8 0 0-.708-1.005 1.14.46 76.8 0 0-.188 1.215 1.14.46 76.8 0 0 .708 1.005m-20.93-.82q.6-.21.14-.65-.31-.29-.74-.16-.55.16-.61.68-.07.56.46.38zm23.34.83-.08.61q-.08.56.43.33.17-.08.34-.15.3-.14.22-.46-.24-.97-1.06-1.72-.51-.46-.56.23-.06.66.63 1.01a.15.13 19.7 0 1 .08.15m-6.3-.95q.04.43.32.32.16-.07.19-.22.06-.31-.24-.35a.23.23 0 0 0-.27.25m-20.37 1.345a.67.42 48.9 0 0-.124-.781.67.42 48.9 0 0-.756-.229.67.42 48.9 0 0 .123.781.67.42 48.9 0 0 .757.229m20.37 1.225.77.26q1.01.34.47-.57-.33-.57-.85-.95-.59-.44-.92.22l-.25.52q-.25.51-.73.22-.66-.4-.58-1.35.09-1.09-.72-.36l-1.2 1.06q-.65.57.03 1.1.89.69 1.87 1.08 1.08.42 1.25-.7.12-.78.86-.53m-18.46.16a.18.18 0 0 0 0 .32q.22.12.45.03a.2.2 0 0 0 .01-.37q-.24-.09-.46.02m21.33.3q.19-.28-.1-.41-.19-.09-.3.09-.1.18.07.34.18.19.33-.02m-13.51.14-.18-.23a.42.42 0 0 0-.61-.07l-.77.64q-.53.45.06.82.98.63 1.93.03.46-.29.07-.66l-.26-.25q-.13-.13-.24-.28m4.45.81-.82-.88a.25.25 0 0 0-.36-.01l-.06.06a3.48.77-43 0 0-2.02 2.93l.11.12a3.48.77-43 0 0 3.07-1.81l.06-.06a.25.25 0 0 0 .02-.35m-8.32 2.64q.72.51.97 1.35.12.41.54.31l.31-.06q.39-.09.27-.47c-.32-1.03-1.15-2.3-2.43-1.92q-.58.17-1.18.3-.67.13-.38.75.35.73.99.99.63.27.21-.27-.3-.39-.07-.81a.53.53 0 0 1 .77-.17m-3.95.35a.44.44 0 0 0 .43.61q.45-.04.53-.43a.46.45 85.2 0 0-.61-.52q-.25.1-.35.34m1.371 2.257a.66.48 9.3 0 0-.573-.58.66.48 9.3 0 0-.73.366.66.48 9.3 0 0 .574.58.66.48 9.3 0 0 .73-.366m14.589 15.363q1.36.34.09.91-.36.16-.51.51-.32.77.5.66l2.43-.31q.64-.08.5-.71l-1.3-5.94a1.05 1.03-23.7 0 1 .43-1.08q1.01-.68 1.32.45.67 2.48 2.47 2.37.99-.05.52.82-.2.35-.57.28a.83.8 76.2 0 1-.49-.31q-.78-1-2.17-.82-.85.12-.22.7l.29.27q.39.36.47.89.23 1.49 1.88 1.84a.4.4 0 0 0 .48-.39q0-.15-.05-.29-.16-.43.18-.74l2.04-1.8q.41-.35 0-.7-1.04-.88-2.14-.87-.41 0-.71-.29l-2.76-2.69a1.04 1.03-59.6 0 0-1.71.45q-.3 1-.91 1.81a.5.49 35.4 0 0 .12.7q.26.19.46.44a.59.59 0 0 1 .05.65l-1.14 1.95q-.3.5.05.97.16.21.4.27m12.754.056a1.58.89-19 0 0-1.784-.328 1.58.89-19 0 0-1.204 1.356 1.58.89-19 0 0 1.784.328 1.58.89-19 0 0 1.204-1.356m-8.434 2.844.5 1.03q.24.49.6.07l.94-1.1q.53-.63-.29-.66l-1.29-.05q-.82-.03-.46.71m8.05.34 1.45.51q.72.26.93-.47l.1-.34a.67.67 0 0 0-.57-.85q-1.76-.2-3.11.95a.26.26 0 0 0 .17.46q.21 0 .38-.14.29-.25.65-.12m3.71.75q-.26.35-.58.24-.52-.18-.69.35-.26.84-1.11 1.01-.31.06-.59-.1-.97-.56-1.5.61a.51.5 10.1 0 0 .5.71q2.41-.17 4.19-1.47.34-.25.54.13.07.15.08.32.01.37-.18.7-.78 1.34-.84 2.98-.01.28.26.24l.36-.04q.2-.03.21-.23l.12-1.57q.12-1.67 1.28-.48.37.38.85.37.94-.01.16-.54-1.25-.84-1.65-2.25-.12-.46-.6-.48l-.25-.01a.44.43 17.8 0 1-.35-.67q.26-.42.19-.93-.11-.84-.35-.03-.11.33.01.67a.52.52 0 0 1-.06.47m-8.16-1.24a.48.47-36.7 0 0-.13.84q.54.36 1.09.05a.5.49-52.8 0 0-.12-.91q-.43-.11-.84.02m-7.12.65q-.12.46.35.43.35-.02.57-.3a.34.34 0 0 0-.17-.54q-.58-.18-.75.41m2.57 2.26q1.61-.78.54-2.29-.45-.65-.6.12l-.36 1.84q-.12.59.42.33m3.87-.18a.16.15-49.4 0 0-.01-.23q-1.14-.81-2.16-.07-.6.43.07.73 1.12.5 2.1-.43m1.02 1.916a.62.37 106 0 0 .526-.494.62.37 106 0 0-.185-.698.62.37 106 0 0-.527.494.62.37 106 0 0 .185.698m3.17 1.594q.25.02.43.24a.6.59-36.9 0 0 .78.11q.31-.2.51-.49.48-.72-.39-.68l-2.57.14a.62.61 74.7 0 0-.51.9l.18.34a.28.27-34.2 0 0 .43.08l.41-.39q.31-.29.73-.25m-12.404 3.638a.82.57 141.7 0 0 .997-.06.82.57 141.7 0 0 .29-.956.82.57 141.7 0 0-.996.06.82.57 141.7 0 0-.29.956m3.014 15.704a.89.42-.5 0 0-.894-.412.89.42-.5 0 0-.886.428.89.42-.5 0 0 .894.412.89.42-.5 0 0 .886-.428m2.62.718q.17.28.47.41.41.19.46-.27.13-1.23-1.18-1.28a.42.42 0 0 0-.43.52q.06.26.35.36a.6.56-4.6 0 1 .33.26m4.15 2.78-.5.28q-.56.31.03.54.2.08.42.06.46-.04.48-.5.05-.82.59-1.42.54-.61-.27-.69l-2.12-.22q-.26-.02-.27.24l-.01.28q0 .07.07.08.85.11 1.56.46.86.43.02.89m-5.05-.07q-1.17-.23-2.09-1.07-1.21-1.1-1.08.53.07.85-.4 1.6-.51.81.3.3.78-.49 1.42-1.17.37-.38.86-.18 1.73.73 2.12 1.24.62.83.27 1.7a.51.5 13.8 0 1-.54.32q-1.54-.18-2.76 1.02-.57.55.21.7.45.08.75.43.75.9.56-.26-.13-.79.61-1.12a.54.54 0 0 1 .73.33q.53 1.71-.84 2.59a.82.81-14.1 0 0-.38.63q-.08 1.08-.64 2.02-.28.47.27.53l.45.05a.88.87-73.8 0 0 .87-.48q.73-1.46.7-2.91-.01-.47.29-.84.39-.47.29-1.1a1.35 1.33 55.3 0 1 .14-.81q1.72-3.26-1.11-5.29-.48-.34-.77.3-.06.12.04.21.13.12.16.29.13.56-.43.44m3.79 3.09q.37.43.9.68a.61.6 30.7 0 0 .74-.18q.18-.24.19-.52.03-.55-.5-.67-.53-.13-1.07-.04-.75.14-.26.73m1.11 3.67h.28q.94 0 .32-.71-.82-.93-1.98-.98-.98-.05-.69.88.22.68.01 1.39-.2.71.53.74.95.03 1.19-1.04.06-.28.34-.28m6.78 5.44 2.22 1.75q.97.75.58-.41l-.3-.91q-.11-.36-.1-.73.02-.56-.4-.88a.57.56 46.5 0 0-.65-.02q-.71.46-1.55.48a.58.56 86.1 0 1-.57-.51l-.03-.34q-.05-.51.45-.52.27 0 .52-.13.71-.36-.07-.54-1.17-.29-2.08-.91-.62-.43-.41.29.12.41.46.66.86.63.18 1.45-1.82 2.18.02 3.44 1.24.85.94-.63-.13-.6-.08-1.16.09-.99.87-.38m-12.63.04.17.4q.27.63.6.02.12-.22.32-.35.52-.33.81.22l.26.5q.29.55.57-.01l1.03-2.08q.34-.7-.41-.5-.92.25-1.65.89-.44.38-1.02.39-1.34.01-2.45-.92-.43-.36-.42-.92 0-.27-.2-.48-.65-.7-.49.24.17.97-.31 1.74-.3.48-.11 1.02.2.57.58 1.01 1.69 1.96 1.64-.57-.02-.68.68-.82.29-.05.4.22m7.83-1.66q.03-.29-.26-.46-.45-.27-.49.25-.09 1.09.76 1.45.83.36.35-.41l-.27-.41q-.12-.2-.09-.42m-2.67 1.94-.72 2.1q-.35 1.01.53.4 1.36-.94.9-2.48-.34-1.11-.71-.02m1.75 1.5q-.24.47.16.89a.46.46 0 0 0 .79-.27q.04-.37-.21-.7a.44.44 0 0 0-.74.08m-11.58 12.05-.45 1.28a.38.38 0 0 0 .52.48q1.37-.66.67-1.83-.44-.75-.74.07m2.75.77c.6.21.84.37 1.22.87q.62.82.29-.15-.37-1.05-1.47-1-.76.03-.04.28m.48 3.05q-.72-.04-1.58.06-.94.1-.14.61 1.47.93 2.81-.46.37-.39.23-.9a.22.22 0 0 0-.34-.12q-.17.13-.25.34-.19.5-.73.47m4.41 4.35q-.06.43.27.63.6.36.87-.28.63-1.49-.64-2.85a.73.73 0 0 0-1.18.17q-.45.85.35 1.48.41.33.33.85m-3.86-.92a.82.81 43.7 0 1 1-.02l1.18.87q.51.37.24-.2-.69-1.48-2.47-1.7-.57-.07-.83.43-.13.25-.13.53-.01.93.71.34zm7.42 7.44q-.11.83-.17 1.6a.25.24 1.9 0 0 .26.27l.26-.02q.11 0 .1-.11-.09-.95-.45-1.91-.02-.06.04-.07.07-.03.03.04-.05.09-.07.2"/><path fill="#4b5d05" d="M238.56 62.11q.33-.28.75-.32a.42.42 0 0 1 .34.7q-.41.43-1 .2-.52-.21-.09-.58"/><ellipse fill="#364802" rx="1.07" ry=".78" transform="rotate(70.3 63.403 184.977)"/><path fill="#4b5d05" d="m241.93 65.03-.39 3.22q-.09.76-.78.42-.3-.15-.4-.44-.15-.46.12-.87 1.47-2.25.69-4.74-.17-.54.39-.57l.45-.03q.35-.02.39.33.16 1.34-.4 2.45a.93.91 62.7 0 0-.07.23"/><path fill="#364802" d="M246.01 62.38q.35-.12.68.19.33.3-.12.28-.26-.01-.51-.03-1.11-.1-.05-.44"/><path fill="#4b5d05" d="M255.82 63.25q-.67-.3-1.14.3a.84.83 40 0 1-1.22.1l-.33-.29q-.59-.54.16-.79 2.36-.77 4.16.81.47.42-.13.61-1.19.36-2.15 1.25-.39.37-.93.38l-1.2.01q-.8.01-.19-.52.37-.31.87-.23c.99.15 1.67-.32 2.24-1.07q.28-.37-.14-.56M212 63.11a.35.34 17.4 0 1 .47-.24q.46.19.47.7 0 .32-.26.51a.42.41 61.3 0 1-.63-.19q-.15-.38-.05-.78"/><path fill="#364802" d="M220.71 64.67q-.52.4-1.19.61-1.9-.41.47-2.46.28-.24.53-.23.17 0 .3.08.31.19.12.5-.49.77-.23 1.5"/><path fill="#4b5d05" d="M231.97 64q-.23-.23-.36-.53-.17-.38.25-.44.57-.08.49.86a1.76 1.73 40.5 0 0 .06.69q.37 1.31-.46 1.31-.52-.01-.25-.45l.38-.65q.26-.44-.11-.79"/><path fill="#364802" d="M235.34 63.1a.2.2 0 0 1 .29.18q.01.39-.42.55-.36.14-.27-.24.08-.33.4-.49"/><path fill="#4b5d05" d="M237.51 63.72q.44.18.24.69-.19.47-.31-.02-.19-.76.07-.67"/><path fill="#364802" d="m212.72 70.07-.42.09-2.33-2.43q-.38-.4-.33-.94l.24-2.3q.07-.75.35-.05 1.09 2.73 3.04 4.98.3.35-.08.61-.19.12-.47.04"/><ellipse fill="#4b5d05" rx=".92" ry=".29" transform="rotate(113.5 102.116 113.335)"/><path fill="#364802" d="M207.61 64.66q.3.59-.11 1.08-.45.54-.36-.16l.11-.85q.07-.62.36-.07M201.06 64.84q.11-.13.26-.2.33-.14.48.19l.88 1.91a1.07 1.06-26.7 0 1-.47 1.39l-.36.19a.61.6-13.6 0 1-.89-.54q0-.88-.34-1.69a.83.83 0 0 0-.75-.51q-.58 0-.89-.51-.53-.86.4-.44l.88.4q.47.21.8-.19M216.6 65.16q.91.08.08.46-.86.4-1.75.25-.7-.11-.06-.4.84-.39 1.73-.31"/><path fill="#4b5d05" d="M234.22 65.56a.29.29 0 0 1 .15-.51q.27-.03.31.25.11.73-.46.26"/><path fill="#364802" d="M196.44 66.09q3.22-1.52.45.71-.72.58-1.75 1.44-.9.76-.38-.3.67-1.37 1.68-1.85"/><path fill="#4b5d05" d="m238.71 66.28-.15.57q-.11.46-.37.06-.1-.16-.08-.35.08-.93.89-1.14.31-.09.21.21-.07.21-.26.32t-.24.33M248.82 66.06q-.12-.12-.2-.28-.24-.51.26-.26l1.42.71q.45.23.1.58-1.15 1.14-2.63 1.45-.55.12-.97-.17-.2-.14-.4-.27-.84-.58.17-.42.62.09 1.13.44.43.3.72-.14l.5-.76q.31-.48-.1-.88M244.39 66.16a.16.15-68.3 0 1 .1.24q-.43.67-1.31.47-.67-.15-.07-.48.6-.32 1.28-.23M205.09 68.12q-.32.02-.6-.2-.57-.46.14-.64l2.14-.54a.61.61 0 0 1 .75.53l.12 1.31q.25 2.61-1.24.52-.36-.5-.79-.82-.23-.17-.52-.16M224.67 67.65q-.03-.36.13-.66.21-.43.4.01.62 1.47-.57 2.36-.61.45-.39-.27.13-.43.32-.81a1.23 1.23 0 0 0 .11-.63"/><path fill="#364802" d="M214.41 67.41a.23.23 0 0 1 .35-.22q.31.18.02.39-.32.23-.37-.17"/><path fill="#4b5d05" d="M231.47 67.31q.21-.43.23.24.01.23-.16.08-.16-.13-.07-.32M276.05 67.82q.87.6.81 1.17a.93.93 0 0 1-1.51.61q-.89-.72-.53-1.78.52-.14 1.23 0"/><path fill="#364802" d="M196.74 69.38q-.5.44-1.17.31t-.16-.58q1.66-1.47 3.09-.35.39.31-.06.5-.34.15-.63 0-.58-.3-1.07.12"/><path fill="#4b5d05" d="M227.67 68.35q.19-.1.2.11.03.31-.24.47-.57.34-.28-.26.1-.22.32-.32"/><path fill="#364802" d="M194.07 68.88q-.44.92-1.26.54a.41.41 0 0 1-.07-.71q.69-.5 1.25-.13a.24.23-61 0 1 .08.3"/><ellipse fill="#364802" rx=".83" ry=".48" transform="rotate(.8 -4865.715 14711.477)"/><path fill="#364802" d="M191.61 69.32q.1-.13.26-.13.21 0 .18.21-.03.19-.2.25-.7.23-.24-.33"/><path fill="#4b5d05" d="m271.95 69.49.31-.16q.71-.36.6.43-.14.94-1.06 1.24-.62.2-.93-.37l-.43-.76q-.33-.6.35-.51.19.02.36.11.4.23.8.02M227 70.56q-.28.06-.55-.08-.3-.16-.17-.47.05-.13.12-.24.34-.49.71-.03.26.32.62.5.77.4-.09.52-.31.05-.64-.2M231.23 70.15q-.15.38-.04.8.21.75-.34.19-.55-.57-.1-1.26.19-.29.54-.34.45-.06.21.32-.03.05-.08.07-.13.08-.19.22"/><ellipse fill="#4b5d05" rx="1.24" ry=".29" transform="rotate(45.6 37.797 324.586)"/><ellipse fill="#4b5d05" rx=".99" ry=".35" transform="rotate(-15.2 381.743 -840.368)"/><path fill="#4b5d05" d="M239.79 71.21q-.4-.3-.41-.8a.29.29 0 0 1 .5-.21q.88.88.84 2.11-.03.76-.45.13-.39-.6-.48-1.23M282.97 73.18q1.15-.37.1-.95-.79-.43-.76-1.25.03-.94.74-.32 1.17 1.01.8 2.89a.47.46 1.6 0 1-.41.38q-1.69.21-3.46 1.12-1.59.82-.75-.75.74-1.37.12-2.69-.18-.37.06-.71.33-.46.88-.66.6-.21.35.38-.55 1.27.07 2.86.3.74.97.31.6-.38 1.29-.61M265.93 70.53q.09-.05.19-.03.59.09-.05.12h-.12q-.27.02-.02-.09"/><ellipse fill="#4b5d05" rx=".72" ry=".45" transform="rotate(-26.7 293.691 -571.808)"/><ellipse fill="#4b5d05" rx=".59" ry=".34" transform="rotate(52.4 61.102 307.525)"/><path fill="#4b5d05" d="M231.68 71.7a.32.32 0 0 1 .25-.37q.39-.08.61.25.28.42-.03.82a.25.25 0 0 1-.34.06q-.39-.26-.49-.76M264.37 71.3q.04.13.05.26.01.38-.35.27-.13-.04-.23-.13-.14-.12-.03-.28.18-.24.44-.21a.12.11-5.7 0 1 .12.09M276.99 72.68q.09-.11.25-.18.57-.26.5.37-.13 1.13-.98 1.77-.61.46-.94-.23l-.55-1.18a.96.94 86.6 0 0-.54-.49q-.79-.29-1.22-1.02-.4-.68.25-.24l.3.19q.44.3.88 0 .15-.1.33-.13.28-.04.42.21l.44.84q.36.69.86.09M264.83 72.27q.4-.38.93-.07.13.08.07.23-.21.51-.82.41a.34.33-62.8 0 1-.18-.57"/><ellipse fill="#4b5d05" rx="2.16" ry=".7" transform="rotate(-26.6 291.397 -534.32)"/><path fill="#364802" d="M237.62 74.04q-1.68.74-2.82.38.02-.52.23-.93.25-.47.74-.26zM273.3 73.19a.22.22 0 0 1 .32.12q.11.32-.19.54a.25.25 0 0 1-.4-.2q0-.29.27-.46"/><path fill="#4b5d05" d="M267.33 73.48q.01-.14.14-.17.28-.06.19.21-.03.09-.12.13-.25.09-.21-.17"/><path fill="#364802" d="M261.47 73.44q.21-.13.85.16.4.18-.03.26-.5.09-.84-.25-.09-.1.02-.17"/><path fill="#4b5d05" d="m263.88 74.05-.46 1.34q-.49 1.37-.39-.08l.09-1.23q.02-.22.2-.33.15-.09.31-.08.38.02.25.38"/><path fill="#4b5d05" d="M263.21 76.87q1.13-.29 2.32-.37.77-.04.61-.8-.14-.65-.72-1.01-.63-.39.11-.36 1.49.07 1.2 1.71a1.8 1.79-1.7 0 1-1.37 1.45l-4.72 1.09q-.64.14-.15-.29 1.17-1.02 2.72-1.42M272.8 74.96q.03.33-.17.61a.22.22 0 0 1-.37-.01q-.21-.34-.02-.71.47-.91.56.11"/><ellipse fill="#4b5d05" rx=".8" ry=".54" transform="rotate(133.7 111.803 92.236)"/><ellipse fill="#4b5d05" rx="1.06" ry=".41" transform="rotate(2.2 -1835.52 6794.942)"/><path fill="#4b5d05" d="M269.89 77.49c-.22-.2-.45-.46-.67-.68q-.39-.39.16-.44.7-.06 1.33.16a.38.38 0 0 1 .23.48q-.08.23-.23.42-.37.48-.82.06M278.84 77.12l-1.61.95q-1-.19.27-1.32.77-.68 1.34.37M267.48 77.33q.09.43.16.89.09.65-.56.56-.16-.02-.31-.1-.49-.24-.2-.7l.46-.73q.32-.51.45.08M253.1 78.14l-.3.19a.43.43 0 0 1-.55-.09q-.16-.18-.12-.41.05-.24.29-.26l1.89-.17q.32-.02.47.26.11.19-.13.42-.23.23-.54.1l-.24-.1q-.41-.17-.77.06M275.18 78.31q.04 1.94-1.03.32-.22-.33-.43-.69-.29-.52.29-.39 1.16.27 1.17.76M256.27 79.54a.2.2 0 0 1 .37.02q.18.44.08.93a.26.26 0 0 1-.5.05q-.2-.51.05-1"/><ellipse fill="#4b5d05" rx="1.13" ry=".41" transform="rotate(24.3 -51.607 665.523)"/><path fill="#4b5d05" d="M257.83 82.58q.1.32-.13.55-.63.65-.25-.26l1.16-2.74q.1-.24.34-.14l.25.09a.34.33-71.3 0 1 .19.4q-.27.98-1.25 1.43a.56.56 0 0 0-.31.67M265.65 80.09c.27 1.74-.7 2.6-2.14 3.22q-.26.11-.36-.16l-.22-.57q-.11-.27.18-.31 1.74-.29 1.53-2.02-.05-.4.36-.39l.43.02q.19.01.22.21"/><path fill="#364802" d="M272.07 80.29q-.29.44-.51-.05-.08-.18.05-.33a.29.29 0 0 1 .46.03q.12.18 0 .35M262.11 80.41q.37-.48.93-.17.53.29.06.66-.37.28-.83.1a.39.39 0 0 1-.16-.59"/><path fill="#4b5d05" d="m268.54 82.37 1.53.22q.81.11.06.44-1.67.72-3.34-.07-.46-.22-.26-.69l.58-1.36q.41-.94.53.08l.06.53q.09.75.84.85M290.45 87.46l.61.37q.6.36.01.73-.15.1-.33.12-.22.04-.41-.08-.45-.32-.43-.85.03-.6.55-.29M285.4 90.53l-.69.19q-.3.08-.47-.18l-1.51-2.31a.32.32 0 0 1 .08-.44l.24-.16a.27.27 0 0 1 .36.05l2.11 2.49q.22.27-.12.36"/><circle cx="288.42" cy="88.13" r=".51" fill="#4b5d05"/><path fill="#364802" d="m292.98 89.27-.47-.61q-.52-.66.31-.81l.43-.07a.57.57 0 0 1 .66.55q.01.55-.41.97a.34.34 0 0 1-.52-.03M296.74 89.86l-.94.28q-.93.28-.36-.5.52-.71 1.32-1.15 1.94-1.06 1.01.95-.15.33-.12.68.08.96-.36.11-.08-.14-.18-.26a.35.34 61.1 0 0-.37-.11M286.83 89.4q.15.35.44.63.68.64-.24.5-.78-.11-.93-.9-.1-.54.3-.92.19-.18.31.05.07.15.06.3 0 .18.06.34M292.27 91.14q-.19.16-.38.33-.42.35-.77-.07-.12-.14-.15-.32-.06-.39.31-.52l1.64-.56q.13-.05.18.09.22.58-.34.78-.27.09-.49.27M287.76 92.02q.27-.19.61-.18.48.01.19.39-.47.61-1.38.84-.47.11-.67-.32-.23-.51-.12-1.02.2-.94.51-.03.05.16.18.28a.54.53 47.7 0 0 .68.04M306.34 92.5q-.43-.21-.59-.69-.1-.35.23-.2.49.21.61.68.1.37-.25.21"/><path fill="#4b5d05" d="M297.86 92.19c-.25 1.34.38 2.77.85 3.98q.26.67-.22 1.18-.29.32-.72.41-.64.13-.48-.5.58-2.38.02-4.9-.05-.21.17-.25l.26-.04a.1.1 0 0 1 .12.12M302.58 93.43a.24.24 0 0 1-.05.35q-.46.32-1 .3-1.04-.05-.73-1.05l.12-.38q.3-.94.91-.17z"/><path fill="#364802" d="M292.93 94.22q.06-.61.26-1.2.33-.97.42.05.22 2.46-1.72 4.05-.47.38-.19-.16l.94-1.78q.23-.45.29-.96M304.32 93.36q-.28-.03.02-.38a.16.16 0 0 1 .28.07q.1.36-.3.31"/><path fill="#4b5d05" d="M295.25 94.25a.31.31 0 0 1 .56.18q.01.26-.19.44-.32.27-.45-.13-.09-.27.08-.49"/><ellipse fill="#4b5d05" rx="1.14" ry=".46" transform="rotate(76.8 94.487 242.805)"/><path fill="#364802" d="m288.63 95.66-.75.25q-.53.18-.46-.38.06-.52.61-.68.43-.13.74.16.46.44-.14.65"/><path fill="#4b5d05" d="M311.89 96.34q-.69-.35-.63-1.01.05-.69.56-.23.82.75 1.06 1.72.08.32-.22.46-.17.07-.34.15-.51.23-.43-.33l.08-.61a.15.13 19.7 0 0-.08-.15"/><path fill="#364802" d="M305.67 95.54a.23.23 0 0 1 .27-.25q.3.04.24.35-.03.15-.19.22-.28.11-.32-.32"/><ellipse fill="#4b5d05" rx=".67" ry=".42" transform="rotate(48.9 36.442 361.448)"/><path fill="#364802" d="M304.81 98.64q-.17 1.12-1.25.7-.98-.39-1.87-1.08-.68-.53-.03-1.1l1.2-1.06q.81-.73.72.36-.08.95.58 1.35.48.29.73-.22l.25-.52q.33-.66.92-.22.52.38.85.95.54.91-.47.57l-.77-.26q-.74-.25-.86.53M287.21 98.27q.22-.11.46-.02a.2.2 0 0 1-.01.37q-.23.09-.45-.03a.18.18 0 0 1 0-.32M308.54 98.57q-.15.21-.33.02-.17-.16-.07-.34.11-.18.3-.09.29.13.1.41"/><path fill="#4b5d05" d="m295.27 98.99.26.25q.39.37-.07.66-.95.6-1.93-.03-.59-.37-.06-.82l.77-.64a.42.42 0 0 1 .61.07l.18.23q.11.15.24.28M299.48 99.52a.25.25 0 0 1-.02.35l-.06.06a3.48.77-43 0 1-3.07 1.81l-.11-.12a3.48.77-43 0 1 2.02-2.93l.06-.06a.25.25 0 0 1 .36.01z"/><path fill="#364802" d="M284.62 101.93q-.12-.18-.17-.41.18-.37.58-.47.44-.11.59.26a.59.58 60 0 1-.19.72q-.41.31-.81-.1"/><path fill="#4b5d05" d="M290.39 102.33q-.23.42.07.81.42.54-.21.27-.64-.26-.99-.99-.29-.62.38-.75.6-.13 1.18-.3c1.28-.38 2.11.89 2.43 1.92q.12.38-.27.47l-.31.06q-.42.1-.54-.31-.25-.84-.97-1.35a.53.53 0 0 0-.77.17M287.21 102.51q.1-.24.35-.34a.46.45 85.2 0 1 .61.52q-.08.39-.53.43a.44.44 0 0 1-.43-.61"/><ellipse fill="#364802" rx=".66" ry=".48" transform="rotate(9.3 -499.412 1822.323)"/><path fill="#364802" d="M303.17 120.13q-.24-.06-.4-.27-.35-.47-.05-.97l1.14-1.95a.59.59 0 0 0-.05-.65q-.2-.25-.46-.44a.5.49 35.4 0 1-.12-.7q.61-.81.91-1.81a1.04 1.03-59.6 0 1 1.71-.45l2.76 2.69q.3.29.71.29 1.1-.01 2.14.87.41.35 0 .7l-2.04 1.8q-.34.31-.18.74.05.14.05.29a.4.4 0 0 1-.48.39q-1.65-.35-1.88-1.84-.08-.53-.47-.89l-.29-.27q-.63-.58.22-.7 1.39-.18 2.17.82a.83.8 76.2 0 0 .49.31q.37.07.57-.28.47-.87-.52-.82-1.8.11-2.47-2.37-.31-1.13-1.32-.45a1.05 1.03-23.7 0 0-.43 1.08l1.3 5.94q.14.63-.5.71l-2.43.31q-.82.11-.5-.66.15-.35.51-.51 1.27-.57-.09-.91"/><ellipse fill="#364802" rx="1.58" ry=".89" transform="rotate(-19 517.852 -879.13)"/><path fill="#4b5d05" d="m307.99 124.06-.5-1.03q-.36-.74.46-.71l1.29.05q.82.03.29.66l-.94 1.1q-.36.42-.6-.07"/><path fill="#364802" d="M314.89 123.49q-.17.14-.38.14a.26.26 0 0 1-.17-.46q1.35-1.15 3.11-.95a.67.67 0 0 1 .57.85l-.1.34q-.21.73-.93.47l-1.45-.51q-.36-.13-.65.12"/><path fill="#364802" d="M319.31 123.65q-.12-.34-.01-.67.24-.81.35.03.07.51-.19.93a.44.43 17.8 0 0 .35.67l.25.01q.48.02.6.48.4 1.41 1.65 2.25.78.53-.16.54-.48.01-.85-.37-1.16-1.19-1.28.48l-.12 1.57q-.01.2-.21.23l-.36.04q-.27.04-.26-.24.06-1.64.84-2.98.19-.33.18-.7-.01-.17-.08-.32-.2-.38-.54-.13-1.78 1.3-4.19 1.47a.51.5 10.1 0 1-.5-.71q.53-1.17 1.5-.61.28.16.59.1.85-.17 1.11-1.01.17-.53.69-.35.32.11.58-.24a.52.52 0 0 0 .06-.47M311.09 122.88q.41-.13.84-.02a.5.49-52.8 0 1 .12.91q-.55.31-1.09-.05a.48.47-36.7 0 1 .13-.84M303.97 123.53q.17-.59.75-.41a.34.34 0 0 1 .17.54q-.22.28-.57.3-.47.03-.35-.43M306.54 125.79q-.54.26-.42-.33l.36-1.84q.15-.77.6-.12 1.07 1.51-.54 2.29M310.41 125.61q-.98.93-2.1.43-.67-.3-.07-.73 1.02-.74 2.16.07a.16.15-49.4 0 1 .01.23"/><ellipse fill="#364802" rx=".62" ry=".37" transform="rotate(106 107.976 180.869)"/><path fill="#364802" d="m300.82 129.53.46-3.06 4.11.38a.26.25 11.8 0 1 .22.33l-.12.34a.54.53-83.7 0 1-.44.36l-2.59.33q-.66.09-.85.73-.21.7-.79.59M310.67 131.84l-1.41.35q.21-1.9-1.3-2.88a.49.48 20.3 0 0-.75.34q-.19 1.45-1.81 2.09a.25.25 0 0 1-.31-.12l-.14-.3q-.2-.42.26-.56 1.76-.51 1.77-2.36 0-.75.64-.35l2.11 1.35q.5.32.62.9zM313.87 129.37l-.41.39a.28.27-34.2 0 1-.43-.08l-.18-.34a.62.61 74.7 0 1 .51-.9l2.57-.14q.87-.04.39.68-.2.29-.51.49a.6.59-36.9 0 1-.78-.11q-.18-.22-.43-.24-.42-.04-.73.25"/><ellipse fill="#364802" rx=".82" ry=".57" transform="rotate(141.7 128.458 118.707)"/><ellipse fill="#4b5d05" rx=".89" ry=".42" transform="rotate(-.5 17165.46 -34798.047)"/><path fill="#364802" d="M307.5 148.92q-.29-.1-.35-.36a.42.42 0 0 1 .43-.52q1.31.05 1.18 1.28-.05.46-.46.27-.3-.13-.47-.41a.6.56-4.6 0 0-.33-.26M311.96 151.07q-.71-.35-1.56-.46-.07-.01-.07-.08l.01-.28q.01-.26.27-.24l2.12.22q.81.08.27.69-.54.6-.59 1.42-.02.46-.48.5-.22.02-.42-.06-.59-.23-.03-.54l.5-.28q.84-.46-.02-.89M315.53 151.28q-.26.65.44 3.98a.51.51 0 0 1-.4.6l-1.82.35q.27-.92 1.09-1.6a.88.87-26.8 0 0 .29-.88q-.11-.46-.46-.8-.42-.39-.53-.95l-.39-2.02q1 .49 1.78 1.32M307.36 151.45q-.03-.17-.16-.29-.1-.09-.04-.21.29-.64.77-.3 2.83 2.03 1.11 5.29a1.35 1.33 55.3 0 0-.14.81q.1.63-.29 1.1-.3.37-.29.84.03 1.45-.7 2.91a.88.87-73.8 0 1-.87.48l-.45-.05q-.55-.06-.27-.53.56-.94.64-2.02a.82.81-14.1 0 1 .38-.63q1.37-.88.84-2.59a.54.54 0 0 0-.73-.33q-.74.33-.61 1.12.19 1.16-.56.26-.3-.35-.75-.43-.78-.15-.21-.7 1.22-1.2 2.76-1.02a.51.5 13.8 0 0 .54-.32q.35-.87-.27-1.7-.39-.51-2.12-1.24-.49-.2-.86.18-.64.68-1.42 1.17-.81.51-.3-.3.47-.75.4-1.6-.13-1.63 1.08-.53.92.84 2.09 1.07.56.12.43-.44"/><path d="m316.22 151.94.75 3.17a1.64 1.63 83.7 0 1-1.61 2.02q-1.78-.02-1.61-.92l1.82-.35a.51.51 0 0 0 .4-.6q-.7-3.33-.44-3.98.42.29.69.66"/><path fill="#364802" d="M318.62 154.13q.14.68.08 1.13-.07.53-.58.79-.81.42-1.12 1.31-.15.43-.6.49-1.41.19-2.77-.07a.61.61 0 0 1-.5-.61q0-.8.62-.96-.17.9 1.61.92a1.64 1.63 83.7 0 0 1.61-2.02l-.75-3.17zM310.98 154.25q.54-.09 1.07.04.53.12.5.67-.01.28-.19.52a.61.6 30.7 0 1-.74.18q-.53-.25-.9-.68-.49-.59.26-.73M311.49 158.93q-.24 1.07-1.19 1.04-.73-.03-.53-.74.21-.71-.01-1.39-.29-.93.69-.88 1.16.05 1.98.98.62.71-.32.71h-.28q-.28 0-.34.28"/><path fill="#4b5d05" d="M317.74 164.47q-.05.56.08 1.16.3 1.48-.94.63-1.84-1.26-.02-3.44.68-.82-.18-1.45-.34-.25-.46-.66-.21-.72.41-.29.91.62 2.08.91.78.18.07.54-.25.13-.52.13-.5.01-.45.52l.03.34a.58.56 86.1 0 0 .57.51q.84-.02 1.55-.48a.57.56 46.5 0 1 .65.02q.42.32.4.88-.01.37.1.73l.3.91q.39 1.16-.58.41l-2.22-1.75q-.78-.61-.87.38"/><path fill="#364802" d="M305.58 163.91q-.7.14-.68.82.05 2.53-1.64.57-.38-.44-.58-1.01-.19-.54.11-1.02.48-.77.31-1.74-.16-.94.49-.24.2.21.2.48-.01.56.42.92 1.11.93 2.45.92.58-.01 1.02-.39.73-.64 1.65-.89.75-.2.41.5l-1.03 2.08q-.28.56-.57.01l-.26-.5q-.29-.55-.81-.22-.2.13-.32.35-.33.61-.6-.02l-.17-.4q-.11-.27-.4-.22M313.9 162.89l.27.41q.48.77-.35.41-.85-.36-.76-1.45.04-.52.49-.25.29.17.26.46-.03.22.09.42M311.14 164.41q.37-1.09.71.02.46 1.54-.9 2.48-.88.61-.53-.4z"/><path fill="#364802" d="M307.48 167.43h-1.98q-.24-1.03.61-1.58.45-.28.88.04.78.59.49 1.54M312.89 165.91a.44.44 0 0 1 .74-.08q.25.33.21.7a.46.46 0 0 1-.79.27q-.4-.42-.16-.89M316.64 168.32l-2.66-.42q.01-.73.66-1 2.43-1.04 2 1.42M300.3 176.06l-.05-1.53q.67.61 1.76.51.98-.09.7 1.75a.79.79 0 0 1-1.36.41z"/><path fill="#364802" d="M302.05 177.89q.7 1.17-.67 1.83a.38.38 0 0 1-.52-.48l.45-1.28q.3-.82.74-.07M305.28 179.6c-.38-.5-.62-.66-1.22-.87q-.72-.25.04-.28 1.1-.05 1.47 1 .33.97-.29.15M305.27 181.31q.08-.21.25-.34a.22.22 0 0 1 .34.12q.14.51-.23.9-1.34 1.39-2.81.46-.8-.51.14-.61.86-.1 1.58-.06.54.03.73-.47M308.62 185.28q-.8-.63-.35-1.48a.73.73 0 0 1 1.18-.17q1.27 1.36.64 2.85-.27.64-.87.28-.33-.2-.27-.63.08-.52-.33-.85M306.09 197.12l-4.53-1.22q.04-.46-.14-.99-.24-.76.55-.7.57.05 1.08.45.26.21.36.49.07.17.16.34.34.7.45-.07.42-2.75-.74-5.12-.39-.81-1.28-.86-.67-.04-.9-.63-.23-.61-.83-.88l-1.39-.63.16-1.35q.85-.21 1.03-1.4.12-.78.72-.26.71.61 1.7.14.35-.16.4.23l.04.33q.01.12-.11.16-1.21.36-1.34.43-2.49 1.38.32 1.96.91.19 1.3 1.02.46.99.89-.01.42-.96 1.32-1.3.84-.31.33.43l-1.7 2.49a.67.66-60.2 0 0 .26.97l.68.33q.79.38 1.3-.33l1.97-2.74a1 .99 33.2 0 1 1.32-.27q1.01.6.35 1.49a.68.67 49.3 0 0-.05.74q.1.19.26.33a.51.5-54.2 0 0 .76-.13q.16-.27.51-.27.54 0 .23.44l-2.28 3.24q-.32.46-.88.52-.61.05-1.05-.5a.61.6 55.8 0 1 .17-.91q3.41-1.95 1.68-3.05a.8.79 31.7 0 0-1.11.26q-.78 1.29-1.83 2.2-1.77 1.56-.14 4.63"/><path fill="#364802" d="m305.09 185.21-.3.25q-.72.59-.71-.34 0-.28.13-.53.26-.5.83-.43 1.78.22 2.47 1.7.27.57-.24.2l-1.18-.87a.82.81 43.7 0 0-1 .02"/><path d="m298.88 187.3 1.39.63q.6.27.83.88.23.59.9.63.89.05 1.28.86 1.16 2.37.74 5.12-.11.77-.45.07-.09-.17-.16-.34-.1-.28-.36-.49-.51-.4-1.08-.45-.79-.06-.55.7.18.53.14.99-1.16-.38-2.24-.21-.54.09-.64.62l-.88 4.53q-.15.78.4 1.34c6.19 6.36 7.64 15.72 6.28 24.38q-.33 2.16-1.49.3-2.86-4.63-9.54-7.4a.66.66 0 0 0-.92.57l-.47 7.44a1.41 1.37-61.7 0 0 .26.9c3.3 4.47 3.58 12.36 2.89 17.46q-.7 5.07-2.57.31-.99-2.52-2.68-4.51a.5.49 31.6 0 0-.86.2l-.87 3.68q-.21.87.37 1.56 2.61 3.07 2.22 7.47-.17 1.85-1.23.33c-1.58-2.26-3.69-3.02-3.09-6.37.55-3.1 1.47-6.28 2.51-9.31q2.46-7.15 2.47-14.7 0-3.44.88-6.17 3.3-10.28 4.58-16.35.85-4.07 1.94-14.67m3 4.54.33-.15q.91-.39-.07-.54-.71-.12-1.44.26-1 .51-.68 1.57.25.82.62.04.2-.42.54-.73.31-.28.7-.45m-6.43 26.28q1.33-1.08 2.6-2.21.77-.68.89-2.47.02-.33-.17-.55a.62.62 0 0 0-.86-.06l-1.79 1.54q-.45.39-.02.81.28.27.13.63-.2.5-.6.87-1.23 1.14-.47 2.79.23.5.76.34l1.85-.58q.5-.16.98.07l4.21 2.02q.15.07.28-.03.11-.08.13-.22.09-.64-.56-.68-1.4-.08-2.08-1.32-.33-.59-1-.55-.41.03-.74.24-.64.4-.97-.28l-.3-.61q-.23-.45-.61-.11-.2.18-.14.43a.4.39 58.1 0 1-.08.37q-.61.73-1.35.37-.67-.33-.09-.81m5.66-4.2q.35.84 1.04 1.39.59.46.69-.27.13-.88-.53-1.3-.26-.17-.57-.15-.24.01-.47.04a.21.2 75 0 0-.16.29m2.29 4.439a2.07.67 38.5 0 0-1.203-1.813 2.07.67 38.5 0 0-2.037-.765 2.07.67 38.5 0 0 1.203 1.813 2.07.67 38.5 0 0 2.037.765m-10.38 16.351q-.18.12-.31.29-.44.58.29.57.31 0 .51-.31.07-.11.08-.24.01-.16-.14-.29-.21-.17-.43-.02"/><path fill="#364802" d="M301.18 192.29q-.34.31-.54.73-.37.78-.62-.04-.32-1.06.68-1.57.73-.38 1.44-.26.98.15.07.54l-.33.15q-.39.17-.7.45M312.51 192.65q.02-.11.07-.2.04-.07-.03-.04-.06.01-.04.07.36.96.45 1.91.01.11-.1.11l-.26.02a.25.24 1.9 0 1-.26-.27q.06-.77.17-1.6M295.54 218.93q.74.36 1.35-.37a.4.39 58.1 0 0 .08-.37q-.06-.25.14-.43.38-.34.61.11l.3.61q.33.68.97.28.33-.21.74-.24.67-.04 1 .55.68 1.24 2.08 1.32.65.04.56.68-.02.14-.13.22-.13.1-.28.03l-4.21-2.02q-.48-.23-.98-.07l-1.85.58q-.53.16-.76-.34-.76-1.65.47-2.79.4-.37.6-.87.15-.36-.13-.63-.43-.42.02-.81l1.79-1.54a.62.62 0 0 1 .86.06q.19.22.17.55-.12 1.79-.89 2.47-1.27 1.13-2.6 2.21-.58.48.09.81M301.11 213.92a.21.2 75 0 1 .16-.29q.23-.03.47-.04.31-.02.57.15.66.42.53 1.3-.1.73-.69.27-.69-.55-1.04-1.39"/><ellipse fill="#364802" rx="2.07" ry=".67" transform="rotate(38.5 -159.907 540.618)"/><path fill="#364802" d="M293.02 234.71q.22-.15.43.02.15.13.14.29-.01.13-.08.24-.2.31-.51.31-.73.01-.29-.57.13-.17.31-.29"/></svg>