<svg xmlns="http://www.w3.org/2000/svg" viewBox="0 0 382 382"><g fill="none" stroke-width="2"><path stroke="#52544f" d="M247.06 74.51q.18.79-.5 1.05M243.64 74.06q.12-.16.18-.31.16-.43-.28-.56-.52-.16-.83.6M238.83 74.13q.3-1.22 1.86-2.32.17-.12.22-.31.04-.17-.07-.29-.45-.48-.8.07l-.27.43q-.33.52-.66 0l-.41-.63q-.37-.57-.72.01-.07.13-.1.27-.1.56.47.6.46.02.54.42.11.47-.31.73-.52.32-.79 1.1M218 70.73q-.41-.69-1.03-.06M216.51 70.84l-1.47.04M212.01 70.32q-.57-.26-.78.19M204.03 71.03q-.37-1.88-.14-3.6a.96.93 82.5 0 1 .56-.75q.71-.31.72-1.06.01-.51.31-.91l1.07-1.42" vector-effect="non-scaling-stroke"/><path stroke="#ac709a" d="M206.55 63.29q.08.06.16.08.24.08.18-.16-.01-.05-.04-.08-.06-.08-.18-.05-.08.01-.16.03" vector-effect="non-scaling-stroke"/><path stroke="#52544f" d="M206.51 63.11q-.99-.43-1.6-1.5" vector-effect="non-scaling-stroke"/><path stroke="#9a9f8d" d="M206.48 61.35q.64.37 1.31-.04M209.67 61.18q.48.92 1.27.56.35-.17.49-.61" vector-effect="non-scaling-stroke"/><path stroke="#52544f" d="M214.02 61.11q.02.06.03.12" vector-effect="non-scaling-stroke"/><path stroke="#ac709a" d="M214.05 61.23q.14.49.73.38.11-.02.14-.12.03-.12-.04-.26" vector-effect="non-scaling-stroke"/><path stroke="#52544f" d="m214.88 61.23.14-.12M215.68 68.25q-.41-.03-.53.2a.31.3-73.7 0 0 .24.45q.2.01.41-.24" vector-effect="non-scaling-stroke"/><path stroke="#602259" d="M214.88 61.23q-.4-.1-.83 0M206.51 63.11l.04.18" vector-effect="non-scaling-stroke"/><path stroke="#70726e" d="m197.98 70.98.07-.84" vector-effect="non-scaling-stroke"/><path stroke="#602259" d="M198.05 70.14q.4-.07.7-.28.96-.7-.14-.47-.33.07-.73.51" vector-effect="non-scaling-stroke"/><path stroke="#70726e" d="M197.88 69.9q-2.66.54-3.44-1.19-.33-.73.47-.62.65.09 1.06.57.45.53 1.15.46.84-.09 1.19-.86.25-.57-.34-.75l-2.48-.77q-.63-.2-.13-.64.71-.6 1.44-1.32.23-.22.28-.52.1-.48-.29-.57" vector-effect="non-scaling-stroke"/><path stroke="#70726e" d="m199.03 63.05-2.07 3.03q-.15.22.06.38l.21.15a.37.37 0 0 0 .56-.15q1.19-2.72 3.72-2.2.41.08.48-.32l.08-.4q.09-.5-.41-.58l-1.89-.29" vector-effect="non-scaling-stroke"/><path stroke="#6b6d67" d="M203.11 62.02q.39 1.23 1.2 1.94a.39.39 0 0 0 .59-.1l.19-.3q.2-.33-.15-.5-.84-.39-1.41-1.12" vector-effect="non-scaling-stroke"/><path stroke="#aaaf9d" d="M305.29 89.46q-.34 1.59-2.1.83-.62-.27-.96.32-.41.73.1 1.45.63.89-.03 1.76-.96 1.24-1.88 2.56-.55.78-.02 1.42" vector-effect="non-scaling-stroke"/><path stroke="#4e514b" d="M300.4 97.8q-.44.45-.57 1.06-.04.19.04.29.1.15.33.1" vector-effect="non-scaling-stroke"/><path stroke="#aaaf9d" d="M300.2 99.25q-.13.64-1.15.69" vector-effect="non-scaling-stroke"/><path stroke="#605fa0" d="M299.05 99.94q.15-.46 0-.74a.45.45 0 0 0-.81 0q-.53 1.07.04 1.66" vector-effect="non-scaling-stroke"/><path stroke="#aaaf9d" d="M298.28 100.86q.68.48 1.73-.23" vector-effect="non-scaling-stroke"/><path stroke="#4e514b" d="M300.01 100.63q.29.93 1.88.09" vector-effect="non-scaling-stroke"/><path stroke="#aaaf9d" d="m301.89 100.72.18.34" vector-effect="non-scaling-stroke"/><path stroke="#5c5b67" d="M305.27 111.33q.7 1.81 2.63 1.26" vector-effect="non-scaling-stroke"/><path stroke="#a86d97" d="M309.74 113.62q-.91.49-.45 1.09.55.74 1.41 1.42a.27.27 0 0 0 .43-.14l.14-.53q.04-.15-.1-.23-1.07-.59-1.11-1.5" vector-effect="non-scaling-stroke"/><path stroke="#4e514b" d="M318.06 119.86q-2.97-.23-2.82 1.05" vector-effect="non-scaling-stroke"/><path stroke="#b3b9a5" d="M315.24 120.91q-.89.63-1.97-.41" vector-effect="non-scaling-stroke"/><path stroke="#605fa0" d="M313.27 120.5q-.13-.21-.3-.34-.43-.35-.81.04-.8.81.67 1.65" vector-effect="non-scaling-stroke"/><path stroke="#b3b9a5" d="M312.83 121.85q-1.31 1.3-2.88 1.34-.5.01-.82.4-.34.41-.79.73-.68.48-.56-.35.13-.96 1.11-1.16 1.18-.24 2.32-.74.46-.2.3-.65-.18-.53-.74-.53-1.19.01-1.85-.91-.38-.53-.94-.2l-1.01.61" vector-effect="non-scaling-stroke"/><path stroke="#4e514b" d="M306.97 120.39q-.25-.31-.61-.28-.4.03-.37.39" vector-effect="non-scaling-stroke"/><path stroke="#b3b9a5" d="m305.99 120.5-1.24-.75" vector-effect="non-scaling-stroke"/><path stroke="#4e514b" d="M304.75 119.75q-.32-.82-.93-1.18-.47-.29-.77.18-.25.38-.29.87" vector-effect="non-scaling-stroke"/><path stroke="#b3b9a5" d="M302.76 119.62q-.47-.06-.85.07-.19.06-.26.2-.08.19.06.37" vector-effect="non-scaling-stroke"/><path stroke="#4e514b" d="M301.71 120.26q-.22-.1-.39-.31M248.99 76.84l.02-.87M250.72 76.21q.38 1.08 1.07.98.59-.09.41-.66-.22-.68-1.23-.57" vector-effect="non-scaling-stroke"/><path stroke="#ca8eb9" d="M197.88 69.9q.08.12.17.24" vector-effect="non-scaling-stroke"/><path stroke="#70726e" d="M197.25 71.29q-.48-.16-.8.2M191.71 73.32q-.75-.9-1.41-.27-.32.29-.35.71M189.05 73.92q-.23-1.25.3-2.43.11-.24.06-.47-.09-.43-.56-.41a.05.05 0 0 0-.01.1q.18.07.1.35-.06.24-.23.41-1.07 1.17-.51 2.72M186.32 74.65q.92-.92.16-2.1M188.76 70.14q1.57-1.34 2.56-1.22.68.07.65-.61-.05-1.43 1.31-1.48.66-.02.56-.67l-.13-.83M194.84 64.7q.82.14 1.18-.61" vector-effect="non-scaling-stroke"/><path stroke="#6b6d67" d="M304.75 119.75q-.9.45-1.99-.13" vector-effect="non-scaling-stroke"/><path stroke="#aaaf9d" d="M312.31 93.69q-.58.42-.27.86a.75.73 60.6 0 0 .9.26q.08-.03.26-.35" vector-effect="non-scaling-stroke"/><path stroke="#62645f" d="M315.47 96.48q-1.55 1.5 1.03 2.06.51.11.58.62.09.63-.37 1.35" vector-effect="non-scaling-stroke"/><path stroke="#62645f" d="M315.72 100.17q.3-.48.16-.88a.36.35 60.5 0 0-.56-.16q-.34.28-.3.84" vector-effect="non-scaling-stroke"/><path stroke="#6f6e7b" d="M312.23 99.82q-.4-.75-2.23-1.01" vector-effect="non-scaling-stroke"/><path stroke="#bb80aa" d="M310 98.81q.11-.38 0-.59-.28-.54-.69-.09l-.97 1.08" vector-effect="non-scaling-stroke"/><path stroke="#62645f" d="M308.34 99.21q-1.08-.42-1.35.76M305.54 100.41q.05-.23.02-.4-.09-.49-.54-.29-.79.35-1.33 1M301.89 100.72q.74-.34.86-.54.88-1.43-.59-.62-.77.43-2.15 1.07" vector-effect="non-scaling-stroke"/><path stroke="#7472b4" d="M298.28 100.86q.63-.04.77-.92" vector-effect="non-scaling-stroke"/><path stroke="#62645f" d="M300.2 99.25q.58-.32.69-.78.08-.32-.19-.52-.14-.09-.3-.15" vector-effect="non-scaling-stroke"/><path stroke="#7d7bbc" d="M312.83 121.85q.72-.28.44-1.35" vector-effect="non-scaling-stroke"/><path stroke="#6b6d67" d="M315.24 120.91q.46 1.12-.91 1.68-1.66.68-2.33 1.96-.34.67.36.39 2.62-1.08 3.72-3.26.23-.46.72-.59l1.93-.53" vector-effect="non-scaling-stroke"/><path stroke="#6b6d67" d="M319.97 121.85q-.89.25-1.71.18-.54-.04-1.02.21-1.16.62-1.39 1.84a2.31 2.31 0 0 1-2.15 1.87q-.59.04-.75.65-.14.53.38.35.57-.2.92-.74a.77.77 0 0 1 .9-.3q2.01.7 3.46 1.97.19.17.31-.05.06-.11.04-.31" vector-effect="non-scaling-stroke"/><path stroke="#c6ccb9" d="M318.96 127.52q.33-.37.51.53a.34.34 0 0 0 .49.24l.3-.15" vector-effect="non-scaling-stroke"/><path stroke="#6b6d67" d="M320.26 128.14q1.14-.35 2.02.55.21.21.36.21.22-.02.38-.28" vector-effect="non-scaling-stroke"/><path stroke="#c6ccb9" d="m323.02 128.62.98.07" vector-effect="non-scaling-stroke"/><path stroke="#6b6d67" d="M324 128.69q1.05.49.9 1.53-.07.5.37.74.49.27 1.24-.27" vector-effect="non-scaling-stroke"/><path stroke="#b3b9a5" d="M322.95 130.79q-.11-.37-.38-.48-.28-.11-.19.17.03.14.07.27" vector-effect="non-scaling-stroke"/><path stroke="#6b6d67" d="M322.45 130.75q-2.88-1.07-2.76-.03M319.52 130.87q-2.97-.63-3.75-3.44a.34.33 84.9 0 0-.29-.25q-.47-.05-.59.55a.83.83 0 0 0 .37.85q1.16.74.94 2.37" vector-effect="non-scaling-stroke"/><path stroke="#b3b9a5" d="M314.64 131.18q-1.9-.83-3.64.68" vector-effect="non-scaling-stroke"/><path stroke="#6b6d67" d="M300.88 135.79v.74M304.9 145.07q1.48 2.71 3.37 1.45" vector-effect="non-scaling-stroke"/><path stroke="#94978d" d="M311.29 148.22q.07.53.72.47" vector-effect="non-scaling-stroke"/><path stroke="#6b6d67" d="m313.64 149.65-.35.5q-.35.5.22.71l2.81 1.06M316.97 152.45q.58 2.77 3.28 3.43" vector-effect="non-scaling-stroke"/><path stroke="#787883" d="M323.27 160q-1.93 3.13-2.3 3.98-.27.64-.06 1.45.14.52.3 0 1.6-5.05 3.87-2.14" vector-effect="non-scaling-stroke"/><path stroke="#6b6d67" d="M325.83 164.55q-.02.33.09.65M326.32 166.3q-.06.36.11.65M321.1 169.69q-3.25-2.08-6.32-1.65M313.96 167.89q-.14-.29-.47-.3-.33 0-.5.26M312.34 167.89l.6-3.46q.04-.24-.2-.3l-.25-.05q-.2-.05-.27.14-.34.93-.41 1.88-.04.6-.56.97-.24.18-.49.34-.64.43-.76-.33-.09-.49-.74-.2a1 .88-75.1 0 0-.24.16q-.54.51-1.04.15" vector-effect="non-scaling-stroke"/><path stroke="#b3b9a5" d="M307.98 167.19q-1.76-.17-2.23-1.59-.06-.18-.24-.3-.12-.07-.34.02-.26.09-.18.36.28 1.01-.85 2M302.74 167.65q.19-.33.77-.66.44-.25-.06-.31l-2.3-.26" vector-effect="non-scaling-stroke"/><path stroke="#6b6d67" d="M301.34 165.42q.86-.67.16-1.49" vector-effect="non-scaling-stroke"/><path stroke="#d5dac8" d="M301.83 162.05q.03.01.07.02" vector-effect="non-scaling-stroke"/><path stroke="#6b6d67" d="M301.9 162.07q.18 1.42 1.06.29a.92.91 22.2 0 1 .85-.35q1.61.21 2.81-1.04.58-.61-.19-.26-.72.33-1.52.41-1.38.14-.5-.93.96-1.17 2.51-1.21.82-.02.18-.55-.68-.56-1.57-.09-1.72.89-3.52 1.63" vector-effect="non-scaling-stroke"/><path stroke="#b3b9a5" d="M302.16 158.02q.27-.55-.05-1.22" vector-effect="non-scaling-stroke"/><path stroke="#c48ab3" d="M302.15 155.96q.95 0 1.31-.75a.42.41 16.4 0 0-.33-.59q-.53-.06-.98.41" vector-effect="non-scaling-stroke"/><path stroke="#6b6d67" d="m302.12 153.96.03-1.42M302.29 150.71q1.31-2.38.01-4.74" vector-effect="non-scaling-stroke"/><path stroke="#b3b9a5" d="M302.48 141.95q.32-.09.21-.44-.11-.34-.39-.28" vector-effect="non-scaling-stroke"/><path stroke="#d5dac8" d="M300.76 128.87q1.31 0 1.18 2.33-.03.53.46.71.34.12.83.09" vector-effect="non-scaling-stroke"/><path stroke="#6b6d67" d="M303.23 132q-.42.41-.33.85a.4.4 0 0 0 .68.2l1.31-1.33a.43.42 46.5 0 0 .01-.58q-.22-.25-.59-.13" vector-effect="non-scaling-stroke"/><path stroke="#d5dac8" d="m304.31 131.01-.26-1.79" vector-effect="non-scaling-stroke"/><path stroke="#787883" d="M304.05 129.22q.58-.66-.3-1.21-1.3-.8-1.65-1.26" vector-effect="non-scaling-stroke"/><path stroke="#6b6d67" d="M302.1 126.75q-.08-.65.36-.95.47-.33-.03-.62-.65-.37-.6-1.26.03-.61.62-.74.85-.2 1.78-.31.54-.06.81-.5.23-.39.09-.84-.23-.75-.74-.15-.48.55-1.18.68-.53.1-.9-.28-.53-.53-.6-1.52M305.99 120.5q.51 1.08 1.33 1.11.44.01.33-.42-.1-.42-.68-.8" vector-effect="non-scaling-stroke"/><path stroke="#141029" d="m302.1 126.75-.36 1.12" vector-effect="non-scaling-stroke"/><path stroke="#70726e" d="m301.74 127.87-.71.11" vector-effect="non-scaling-stroke"/><path stroke="#6d2c75" d="M310 98.81q-.46.36-.25 1.06" vector-effect="non-scaling-stroke"/><path stroke="#602259" d="M308.78 99.89q-.33-.37-.44-.68" vector-effect="non-scaling-stroke"/><path stroke="#4e514b" d="M322.45 130.75q-.44-.43.02-.05" vector-effect="non-scaling-stroke"/><path stroke="#62645f" d="M320.46 122.28q-.45.85-1.21.63-.27-.08-.46-.28-.34-.37-.71-.03l-2.04 1.85a.75.75 0 0 0 .24 1.26q1.48.55 2.68 1.81M324.79 127.58l-.79 1.11M323.02 128.62l-1.61-1.38q-.39-.34-.89-.16-.97.35-.26 1.06" vector-effect="non-scaling-stroke"/><path stroke="#4e514b" d="m301.63 171.57.04 1.31M303.02 173.32q-.24 1.17.35 1.71" vector-effect="non-scaling-stroke"/><path stroke="#b8bdac" d="M303.37 175.03q-.16 1.37.97 2.47.36.34.72.01.92-.85 2.43-.69M308.55 178l-1.79-.25q-.59-.09-.86.44l-.76 1.45a.88.88 0 0 0 1.01 1.26q.92-.25 1.61.36.41.37.2.88-.4 1.01.4 1.75a1.08 1.03 41.8 0 0 1.5-.05q.07-.08-.08-.51" vector-effect="non-scaling-stroke"/><path stroke="#4e514b" d="M309.78 183.33q.84-1.57 2-.6" vector-effect="non-scaling-stroke"/><path stroke="#aaaf9d" d="M298.85 196.14q-.44-.26-1.14-.35" vector-effect="non-scaling-stroke"/><path stroke="#4e514b" d="M298.08 194.01c.7-.86 1.84-.99 2.29-1.96q.47-1.02-.48-.42-.73.46-1.69.32" vector-effect="non-scaling-stroke"/><path stroke="#5c5b67" d="M298.22 190.66q1.78-1.48 1.72-2.43" vector-effect="non-scaling-stroke"/><path stroke="#b8bdac" d="M299.94 188.23q1.1-.42 1.04-1.22" vector-effect="non-scaling-stroke"/><path stroke="#4e514b" d="M300.98 187.01q.99-.46.53-.97" vector-effect="non-scaling-stroke"/><path stroke="#b8bdac" d="M301.51 186.04q.63-1.05.23-1.53-.32-.4-.73-.09-1 .76-1.77-.46" vector-effect="non-scaling-stroke"/><path stroke="#4e514b" d="m299.24 183.96-.09-1.42M300.16 175.48l-.05-1.71" vector-effect="non-scaling-stroke"/><path stroke="#7e7c8a" d="m304.05 129.22-2.31-1.35" vector-effect="non-scaling-stroke"/><path stroke="#4e514b" d="M305.71 167.64q1.14.02 2.27-.45" vector-effect="non-scaling-stroke"/><path stroke="#70726e" d="M301.9 162.07q.68-.05 1.02-.26a.35.35 0 0 0 .02-.59q-.47-.32-1.11-.26M304.31 131.01l-1.08.99M300.98 187.01q-1.23-.01-1.95-.44M299.24 183.96h-.13M304.94 175.44q-.05.5.42.54.62.04.89-.47M309.31 178.81l-2.97.28q-.4.04-.3.43l.08.33a.44.43-18.7 0 0 .6.29q2.03-.89 3.24 1.03.18.29-.01.58-.13.17-.35.21-.4.06-.48.46-.1.55.66.91" vector-effect="non-scaling-stroke"/><path stroke="#7e7c8a" d="m299.94 188.23-1.23-.32" vector-effect="non-scaling-stroke"/><path stroke="#70726e" d="M301.51 186.04q-1.09.3-1.69-.85-.14-.25-.42-.28-.17-.02-.34.05" vector-effect="non-scaling-stroke"/><path stroke="#62645f" d="M299.59 203.51q-.6.65-.44 1.09.11.33.57.33.36 0 .73-.15" vector-effect="non-scaling-stroke"/><path stroke="#aeb2a0" d="M302.15 207.42q-.16.31-.35.47-.3.26-.51-.06-.16-.25-.52-.29" vector-effect="non-scaling-stroke"/><path stroke="#62645f" d="m300.77 207.54-.97-1.36q-.37-.52-.74-.01-.27.38 0 1.05.41.97 1.7.66" vector-effect="non-scaling-stroke"/><path stroke="#aeb2a0" d="m300.76 207.88.94 3.47q.25.94-.62.51l-.26-.13q-.53-.26-.82.25-.46.83-1.25 1.17" vector-effect="non-scaling-stroke"/><path stroke="#aaaf9d" d="M298.75 213.15q-.42-.03-.63.17-.21.19-.08.41.12.2.52.2" vector-effect="non-scaling-stroke"/><path stroke="#aeb2a0" d="M298.56 213.93q1.11.78 2.61 1.11.47.1.87.4l2.89 2.2" vector-effect="non-scaling-stroke"/><path stroke="#bb80aa" d="M304.9 219.95q-1.4-.07-1.02-1.63.06-.27-.21-.27h-.38q-.17 0-.17.17.02 2.07 1.81 2.87" vector-effect="non-scaling-stroke"/><path stroke="#62645f" d="m304.88 224.54-.05.65" vector-effect="non-scaling-stroke"/><path stroke="#6f6e7b" d="M302.97 226.98q.55-2.29-1.21-1.78" vector-effect="non-scaling-stroke"/><path stroke="#62645f" d="M300.76 224.06q-.27-2.17-2.5-1.99M297.04 221.38q.72.01.86-.72a.47.47 0 0 0-.66-.52q-.52.23-.63.87M294.77 220.05q.44-.92 1.26-1.61" vector-effect="non-scaling-stroke"/><path stroke="#bb80aa" d="M296.03 218.44q.94-.41 1.04-1.34" vector-effect="non-scaling-stroke"/><path stroke="#aaaf9d" d="M297.07 217.1q.16-.41-.03-.75-.14-.24-.36-.31-.53-.17-.58.39l-.08.8" vector-effect="non-scaling-stroke"/><path stroke="#bb80aa" d="m296.02 217.23-.25.65" vector-effect="non-scaling-stroke"/><path stroke="#62645f" d="M295.77 217.88q-1.03 1.06-2.61 1.8M292.39 228.27q-.41.49-1.13.78M291.38 224.97q.59-.1.42-.7-.09-.33-.42-.27M292.27 219.02q.57-.14.4-1.71" vector-effect="non-scaling-stroke"/><path stroke="#aaaf9d" d="M293.13 215.81q.6-.1.63 1.07.01.54.53.38.25-.08.42-.28.35-.4 0-.79-.89-.98-.9-2.47" vector-effect="non-scaling-stroke"/><path stroke="#62645f" d="M295.1 208.89q.43-.02.48-.38.03-.29-.42-.38" vector-effect="non-scaling-stroke"/><path stroke="#4e514b" d="m304.45 174.21-.22.51" vector-effect="non-scaling-stroke"/><path stroke="#70726e" d="m304.23 174.72-.86.31" vector-effect="non-scaling-stroke"/><path stroke="#4e514b" d="m305.04 174.67-.1.77" vector-effect="non-scaling-stroke"/><path stroke="#b8bdac" d="M304.94 175.44q-.28-.66-.71-.72" vector-effect="non-scaling-stroke"/><path stroke="#602259" d="m296.03 218.44-.26-.56" vector-effect="non-scaling-stroke"/><path stroke="#70726e" d="M295 235.32q-1.23-.93-2.06-2.29" vector-effect="non-scaling-stroke"/><path stroke="#602259" d="m292.94 233.03.56-1.14q.22-.44-.23-.63-.73-.31-1.56-.31" vector-effect="non-scaling-stroke"/><path stroke="#70726e" d="M291.71 230.95q-.04-.87-.6-.75" vector-effect="non-scaling-stroke"/><path stroke="#9a9f8d" d="M298.56 213.93q.35-.03.51-.27.11-.18.03-.32-.09-.16-.35-.19" vector-effect="non-scaling-stroke"/><path stroke="#52544f" d="M300.77 207.54q-.03.2-.01.34" vector-effect="non-scaling-stroke"/><path stroke="#a86d97" d="M297.07 217.1q-.55-.02-1.05.13" vector-effect="non-scaling-stroke"/><path stroke="#ca8eb9" d="M291.71 230.95q.05 1.88 1.23 2.08" vector-effect="non-scaling-stroke"/><path stroke="#70726e" d="m295.11 235.98-1.38.7q-.58.29-1.02-.18-.41-.44-1.03-.49-.79-.06-.43-.77.07-.14.19-.21.45-.25.46-.76.03-1.44-1.37-1.59" vector-effect="non-scaling-stroke"/><path stroke="#6b6d67" d="M295.22 237.04q-.84-.13-1.06.35-.15.32.14.53.11.07.21.16.52.46-.1.78-.2.1-.31.29-.35.61.32.81l1.23.36" vector-effect="non-scaling-stroke"/><path stroke="#5c5e53" d="m295.65 241.43-1.96-1.08q-.64-.35-.77.37-.03.13-.1.25-.12.22-.35.13-.15-.06-.21-.2-.19-.4.14-.7.86-.81.76-2.21a.85.85 0 0 0-.47-.71l-2.63-1.36" vector-effect="non-scaling-stroke"/><path stroke="#4e514b" d="M290.15 234.54q.11.44.21.41a.45.44 72.1 0 0 .29-.58q-.11-.3-.36-.25" vector-effect="non-scaling-stroke"/><path stroke="#a4aa91" d="M291.66 244.25q.46-.5-.18-1.07-.23-.21-.39.05" vector-effect="non-scaling-stroke"/><path stroke="#5c5e53" d="M288.72 244.06q-.16.18-.13.64" vector-effect="non-scaling-stroke"/><path stroke="#6a696f" d="M288.29 246.46q-.31.37-.37.72-.1.59.5.68.37.05.84-.11M289.08 239.29q1.34-.75.5-2.17" vector-effect="non-scaling-stroke"/><path stroke="#b3b9a5" d="M295.3 237.49q-.2.66.1.79" vector-effect="non-scaling-stroke"/><path stroke="#ac709a" d="M212.1 63.08q-.37.5-1.06.97-.54.37-.07.87.4.43.84.04.47-.41.29-1.8" vector-effect="non-scaling-stroke"/><path stroke="#52544f" d="M212.1 63.16q.72-.08.84-.69a.39.39 0 0 0-.54-.44q-.52.22-.3 1.05" vector-effect="non-scaling-stroke"/><path stroke="#602259" d="M212.1 63.16q.24.16 0-.08" vector-effect="non-scaling-stroke"/><path stroke="#605e6b" d="M217.42 62.88q.36.02.51-.3.04-.09.05-.19.01-.16-.11-.28a.36.36 0 0 0-.6.21q-.12.77-.9.81-1.14.07-.09.52.64.28.88.86.26.67.75.14l1.03-1.13q.13-.15-.03-.26l-.24-.16a.3.29-65.4 0 0-.45.17q-.2.75-.82.73-.33-.01-.42-.33-.04-.14-.06-.28a.48.47-1 0 1 .5-.51" vector-effect="non-scaling-stroke"/><path stroke="#52544f" d="M208.09 67.21q-.02.2.11.36.6.78.7-.2.07-.67.39-1.29.32-.61-.22-1.03-.46-.35-.38-.92.11-.79-.33-.13c-1.16 1.72-1.68 3.38-3.64 4.41q-.35.19-.25.57.26 1 .8 1.6.58.64.59-.23.02-2.29 1.62-3.49.7-.52.61.35" vector-effect="non-scaling-stroke"/><path stroke="#ac709a" d="M210.71 66.78q-.67.41-.27 1.17.03.06.1.06.13.01.26.01" vector-effect="non-scaling-stroke"/><path stroke="#605e6b" d="M210.8 68.02q-.1.59.05.87a.47.47 0 0 0 .86-.07q.11-.34-.05-.81" vector-effect="non-scaling-stroke"/><path stroke="#ac709a" d="m211.66 68.01.08-.98" vector-effect="non-scaling-stroke"/><path stroke="#605e6b" d="M211.74 67.03q.29-.34.17-.61a.46.45 70.5 0 0-.51-.25q-.62.14-.69.61" vector-effect="non-scaling-stroke"/><path stroke="#6d2c75" d="M211.74 67.03q-.8.44-1.03-.25M211.66 68.01q-.61-.45-.86.01" vector-effect="non-scaling-stroke"/><path stroke="#52544f" d="M213.87 68.14q.14-.79-.59-1.06a.31.3 7.9 0 0-.41.3q.04.73.7.95a.24.23-76 0 0 .3-.19M209.607 68.925a.87.58-30.8 0 0-1.044-.053.87.58-30.8 0 0-.45.944.87.58-30.8 0 0 1.044.052.87.58-30.8 0 0 .45-.944M239.83 69.49a.41.41 0 0 0-.41-.41.41.41 0 0 0-.41.41.41.41 0 0 0 .41.41.41.41 0 0 0 .41-.41" vector-effect="non-scaling-stroke"/><path stroke="#70726e" d="m203.98 66.4.47-.9q.15-.3-.15-.45-.43-.22-.91-.1-.65.17-.45.8.15.48.57.77.3.22.47-.12" vector-effect="non-scaling-stroke"/><path stroke="#62645f" d="M198.957 67.57a1.53.43 127.1 0 0 1.266-.96 1.53.43 127.1 0 0 .58-1.48 1.53.43 127.1 0 0-1.266.96 1.53.43 127.1 0 0-.58 1.48" vector-effect="non-scaling-stroke"/><path stroke="#4e514b" d="M201.31 68.48q.23-.34.63-.6.79-.49-.14-.46-.89.03-1.69 1.03-.47.6.24.89.78.3 1.51.56.13.04.26 0 .16-.06.25-.21.22-.36-.17-.51-.26-.1-.55-.09-.77.03-.34-.61" vector-effect="non-scaling-stroke"/><path stroke="#5c5b67" d="M254.58 76.98q.15-.1.1-.28-.13-.55-.53-.14-.29.31-.67.5-.77.4-.04.86 1.04.66 1.73 1.67.33.48.75.07.46-.47.7-1 .34-.76-.48-.62-.93.16-1.57-.3-.55-.39.01-.76" vector-effect="non-scaling-stroke"/><path stroke="#aaaf9d" d="M306.05 94.47q.01.22.24.29.46.12.4-.35-.13-1.07-1.26-1.6-.61-.29-.47.37.15.73.91 1.03.17.07.18.26" vector-effect="non-scaling-stroke"/><path stroke="#6f6e7b" d="M304.31 95.27q.42.4 1 .38.87-.03.15-.52l-1.35-.92q-.46-.32-.89.05-.6.53-1.09 1.11-.5.58.25.43.5-.1.85-.48a.76.75-47.4 0 1 1.08-.05" vector-effect="non-scaling-stroke"/><path stroke="#aaaf9d" d="M312.1 96.38q.14.42.6.49.49.06.34-.4-.15-.49-.65-.48a.3.3 0 0 0-.29.39" vector-effect="non-scaling-stroke"/><path stroke="#62645f" d="M305.54 99.09q.39-.8.29-1.54-.06-.41-.48-.42l-3.1-.06q-.31-.01-.36.03-.23.14-.05.4.15.21.41.23l2.34.2q.33.02.5.3.23.34.16.76-.2 1.11.29.1" vector-effect="non-scaling-stroke"/><path stroke="#6f6e7b" d="M308.1 97.4a.49.49 0 0 0-.49-.49.49.49 0 0 0-.49.49.49.49 0 0 0 .49.49.49.49 0 0 0 .49-.49" vector-effect="non-scaling-stroke"/><path stroke="#6b6d67" d="M306.37 122.96q-.44.15-.39.68a.54.54 0 0 0 .81.4q.42-.25.19-.8a.5.49-19.8 0 0-.61-.28" vector-effect="non-scaling-stroke"/><path stroke="#b3b9a5" d="M310.88 124.41q-.12-.12-.29-.19-.46-.21-.15.19.15.19.39.14a.09.08-26.3 0 0 .05-.14" vector-effect="non-scaling-stroke"/><path stroke="#6b6d67" d="M306.871 126.023a1.57.45 29.9 0 0-1.137-1.173 1.57.45 29.9 0 0-1.585-.393 1.57.45 29.9 0 0 1.137 1.173 1.57.45 29.9 0 0 1.585.393M311.103 126.994a.63.33 39.9 0 0-.271-.657.63.33 39.9 0 0-.695-.151.63.33 39.9 0 0 .271.657.63.33 39.9 0 0 .695.151" vector-effect="non-scaling-stroke"/><path stroke="#787883" d="M309.786 128.603a1.07.32 41.1 0 0-.596-.944 1.07.32 41.1 0 0-1.016-.462 1.07.32 41.1 0 0 .596.944 1.07.32 41.1 0 0 1.016.462" vector-effect="non-scaling-stroke"/><path stroke="#c48ab3" d="M305.79 128.84q-.79.19-.87.69-.03.25.19.45.19.17.4.18.44.02.54-.42l.12-.54" vector-effect="non-scaling-stroke"/><path stroke="#6b6d67" d="M306.17 129.2q.66-.16.89-.5.31-.46-.15-.78-.26-.18-.56-.05-.29.13-.41.43-.1.25-.15.54" vector-effect="non-scaling-stroke"/><path stroke="#602259" d="m306.17 129.2-.38-.36" vector-effect="non-scaling-stroke"/><path stroke="#b3b9a5" d="M313.57 128.878a.8.32 29 0 0-.545-.668.8.32 29 0 0-.855-.108.8.32 29 0 0 .545.668.8.32 29 0 0 .855.108" vector-effect="non-scaling-stroke"/><path stroke="#6b6d67" d="M310 130.52a.53.53 0 0 0-.53-.53.53.53 0 0 0-.53.53.53.53 0 0 0 .53.53.53.53 0 0 0 .53-.53" vector-effect="non-scaling-stroke"/><path stroke="#7d7bbc" d="M306.31 150.054a.88.5 101.1 0 0 .66-.768.88.5 101.1 0 0-.32-.96.88.5 101.1 0 0-.66.768.88.5 101.1 0 0 .32.96" vector-effect="non-scaling-stroke"/><path stroke="#6b6d67" d="m308.48 153.95-.48.25q-.22.12-.12.34l.14.3a.16.16 0 0 0 .21.09q1.21-.48 1.61-1.81a.61.59 25.8 0 0-.24-.66q-.64-.44-.92-1.17-.15-.36-.46-.13l-.3.21q-.09.07-.05.18.28.72.8 1.3.62.67-.19 1.1M304.81 155.21a.21.2 76.3 0 0 .34.21l1.4-1.53q.64-.7-.31-.78l-.55-.04q-.69-.05-.66.64.03.8-.22 1.5M311.852 153.548a.29.22 45.9 0 0-.044-.361.29.22 45.9 0 0-.36-.055.29.22 45.9 0 0 .044.361.29.22 45.9 0 0 .36.055" vector-effect="non-scaling-stroke"/><path stroke="#c48ab3" d="M315.04 154.29q.01.29.21.31.22.03.29-.26" vector-effect="non-scaling-stroke"/><path stroke="#6b6d67" d="M315.54 154.34q.49-.33.25-.93a.93.93 0 0 0-1.38-.41q-.11.07-.17.22-.06.14.01.27.27.51.79.8" vector-effect="non-scaling-stroke"/><path stroke="#602259" d="m315.54 154.34-.5-.05" vector-effect="non-scaling-stroke"/><path stroke="#6b6d67" d="M311.37 155.04q-.41-.06-.53.3-.08.22.1.38.57.54 1.43.68.79.13.61-.65l-.21-.93q-.06-.26-.32-.27-.33-.01-.52.25a.59.59 0 0 1-.56.24M316.64 156.28q-1-.09-1.86-.75-.27-.2-.47.08l-.17.24q-.14.2.05.35.97.74 2.22.94a.35.35 0 0 0 .4-.28l.06-.28q.05-.28-.23-.3M308.157 157.685a.99.45 117.9 0 0 .86-.664.99.45 117.9 0 0 .066-1.086.99.45 117.9 0 0-.86.664.99.45 117.9 0 0-.066 1.086M305.36 156.48q-.83.26-1.27 1.03-.14.25.07.44.48.42.71-.18.21-.56.67-.97.7-.59-.18-.32M312.6 159.62l.49 2.82q.12.68.62.2.82-.79.6-1.81-.11-.51-.62-.63-.45-.1-.74-.47-.43-.55.21-.81.34-.14.61.06.8.55.48-.36-.16-.49-.19-1-.05-.92-.57-.16-.09.14-.23.23-.49.3-1.05.21-2.33-.4-4 1.29-.36.37.06.68 1.11.82 1.92 2.11a.38.37 67.9 0 0 .39.17q.31-.05.4-.31.21-.62-.39-.9-.52-.24-.75-.76-.34-.79.47-1.1.69-.26 1.37-.25.78.01.92.79M319.34 158.82q.18-.07.22-.26.01-.06 0-.12-.04-.2-.17-.36-.34-.45-.35.11-.01.52-.45.79-.77.46-.03.98.41.28.53.78.14.6.67.28.15-.09.15-.23.04-.62.65-.71l1.09-.15q.27-.04.26-.31l-.01-.27q-.01-.28-.29-.28-1.09.03-1.76.72a.48.48 0 0 1-.73-.06q-.12-.16-.14-.36-.03-.41.36-.55M315.72 158.82q-.27.36.07.65.17.15.39.23.58.2.73-.38.09-.32.11-.64.07-.85-.67-.42-.37.21-.63.56" vector-effect="non-scaling-stroke"/><path stroke="#b3b9a5" d="M307.88 161.16q.11.29.38.12.14-.09.05-.24-.09-.14-.29-.12-.23.02-.14.24" vector-effect="non-scaling-stroke"/><path stroke="#787883" d="M315.18 164.5q.24-.54.61-1.03.36-.46.13-.99-.08-.2-.25-.28-.82-.39-.75.51.06.81-.49 1.5-.43.54-.28 1.23.11.54.49.93.59.61.47-.23l-.08-.55q-.09-.56.15-1.09" vector-effect="non-scaling-stroke"/><path stroke="#c48ab3" d="M318.21 162.84q-.26-.38-.73-.5-.26-.06-.34.2l-.09.32a.3.3 0 0 0 .31.38l2.11-.11q.18-.01.3-.15.16-.2.05-.37-.27-.4-.62-.06l-.36.36a.41.41 0 0 1-.63-.07" vector-effect="non-scaling-stroke"/><path stroke="#6b6d67" d="M308.77 164.67q-.33.32-.71.66-.79.69.23.43 1.56-.39 1.97-1.75.17-.53-.24-.96-.48-.5-.84.09-.16.27-.1.57.11.57-.31.96M305.27 163.583a.73.44 1.8 0 0-.716-.463.73.44 1.8 0 0-.744.417.73.44 1.8 0 0 .716.463.73.44 1.8 0 0 .744-.417" vector-effect="non-scaling-stroke"/><path stroke="#787883" d="M307.27 163.9q-.14.04-.2.17-.14.33.17.15.08-.04.15-.11.31-.33-.12-.21" vector-effect="non-scaling-stroke"/><path stroke="#6b6d67" d="M318.65 166.18q.62.58 1.44.94.15.07.32.02.14-.04.18-.22.05-.2-.12-.32-1.05-.76-2.11-1.54-.59-.43-1.14.04-.31.27-.02.57.22.24.56.21.51-.05.89.3" vector-effect="non-scaling-stroke"/><path stroke="#b3b9a5" d="M322.57 166.94q-.59.31-.5.95.02.14.11.25.41.5.69-.08l1.12-2.34q.33-.69-.43-.63-.22.02-.38.19-.35.41-.25.94.09.5-.36.72" vector-effect="non-scaling-stroke"/><path stroke="#6b6d67" d="M326.19 168.87a1.14 1.14 0 0 0-1.14-1.14 1.14 1.14 0 0 0-1.14 1.14 1.14 1.14 0 0 0 1.14 1.14 1.14 1.14 0 0 0 1.14-1.14" vector-effect="non-scaling-stroke"/><path stroke="#b3b9a5" d="M306.33 182.54q.21.25.49.01.28-.25-.05-.43-.36-.2-.49.12-.06.16.05.3" vector-effect="non-scaling-stroke"/><path stroke="#5c5b67" d="M301.89 193.572a.8.48-2.7 0 0-.823-.441.8.48-2.7 0 0-.776.517.8.48-2.7 0 0 .822.441.8.48-2.7 0 0 .776-.517" vector-effect="non-scaling-stroke"/><path stroke="#62645f" d="M297.91 206.52a.49.49 0 0 0-.49-.49.49.49 0 0 0-.49.49.49.49 0 0 0 .49.49.49.49 0 0 0 .49-.49M298.156 210.183a.83.69 107.1 0 0 .904-.59.83.69 107.1 0 0-.416-.996.83.69 107.1 0 0-.904.59.83.69 107.1 0 0 .416.996" vector-effect="non-scaling-stroke"/><path stroke="#bb80aa" d="M294.86 213.48q.56 1 1.72 1.4.27.09.36-.17l.09-.27q.11-.33-.21-.49-.83-.41-1.16-1.22" vector-effect="non-scaling-stroke"/><path stroke="#aaaf9d" d="m295.66 212.73-.15-.83q-.06-.36-.42-.44-.2-.04-.32.12-.17.2-.15.48.04.69.24 1.42" vector-effect="non-scaling-stroke"/><path stroke="#a86d97" d="M295.66 212.73q-.33-.14-.59.11-.24.23-.21.64" vector-effect="non-scaling-stroke"/><path stroke="#62645f" d="M301.43 217.06q-.43-.54-1.03-.86-.75-.4-.26.3l.92 1.34q.24.35.56.07.13-.1.22-.24.12-.2-.03-.38-.16-.18-.38-.23" vector-effect="non-scaling-stroke"/><path stroke="#7472b4" d="M299.35 217.83q-.18-.22-.45-.31-.51-.16-.35.35.28.92 1.3.92.54 0 .31-.49-.11-.26-.38-.27-.26 0-.43-.2" vector-effect="non-scaling-stroke"/><path stroke="#a4aa91" d="M291.15 238.69q.16.25.47.21a.29.29 0 0 0 .24-.41q-.11-.26-.42-.28a.32.32 0 0 0-.29.48" vector-effect="non-scaling-stroke"/><path stroke="#6a696f" d="M290.98 240.6a.44.44 0 0 0-.5-.52q-.65.1-.58.84a.41.4-8.1 0 0 .47.35q.49-.09.61-.67" vector-effect="non-scaling-stroke"/><path stroke="#5c5e53" d="m294.28 244.27.84-.54q.65-.42-.09-.65-.58-.17-1.01.22-.26.23-.32.58-.17.88.58.39" vector-effect="non-scaling-stroke"/><path stroke="#6a696f" d="M289.235 249.688a1.17.52 5.3 0 0-1.117-.626 1.17.52 5.3 0 0-1.213.41 1.17.52 5.3 0 0 1.117.626 1.17.52 5.3 0 0 1.213-.41" vector-effect="non-scaling-stroke"/></g><path fill="#9ea290" d="M247.06 74.51q.18.79-.5 1.05l-2.92-1.5q.12-.16.18-.31.16-.43-.28-.56-.52-.16-.83.6l-3.88.34q.3-1.22 1.86-2.32.17-.12.22-.31.04-.17-.07-.29-.45-.48-.8.07l-.27.43q-.33.52-.66 0l-.41-.63q-.37-.57-.72.01-.07.13-.1.27-.1.56.47.6.46.02.54.42.11.47-.31.73-.52.32-.79 1.1-3.15.9-6.37.74-2.24-.1-3.83-1.22-1.96-1.38-4.14-2.34c-1.81-.8-3.53-.41-5.45-.66q-.41-.69-1.03-.06l-.46.17-1.47.04q-1.54-.65-3.03-.56-.57-.26-.78.19-3.67 1.13-7.2.52-.37-1.88-.14-3.6a.96.93 82.5 0 1 .56-.75q.71-.31.72-1.06.01-.51.31-.91l1.07-1.42q.08.06.16.08.24.08.18-.16-.01-.05-.04-.08-.06-.08-.18-.05-.08.01-.16.03-.99-.43-1.6-1.5l1.57-.26q.64.37 1.31-.04.87-.22 1.88-.13.48.92 1.27.56.35-.17.49-.61l2.59-.02q.02.06.03.12.14.49.73.38.11-.02.14-.12.03-.12-.04-.26l.14-.12 10.44.81a.45.44 37.4 0 1 .12.86q-5.55 1.94-9.9 5.47-.41-.03-.53.2a.31.3-73.7 0 0 .24.45q.2.01.41-.24l4.2.36q.5.05.86-.31 8.07-7.97 19.95-8.58c4.8-.24 10.45-.48 15.18.66q2.77.67 5.13 1.63 4.5 1.83-.27 2.72-9.03 1.67-15.95 7.06-.39.31 0 .62zM212.1 63.08q-.37.5-1.06.97-.54.37-.07.87.4.43.84.04.47-.41.29-1.8.72-.08.84-.69a.39.39 0 0 0-.54-.44q-.52.22-.3 1.05m5.32-.2q.36.02.51-.3.04-.09.05-.19.01-.16-.11-.28a.36.36 0 0 0-.6.21q-.12.77-.9.81-1.14.07-.09.52.64.28.88.86.26.67.75.14l1.03-1.13q.13-.15-.03-.26l-.24-.16a.3.29-65.4 0 0-.45.17q-.2.75-.82.73-.33-.01-.42-.33-.04-.14-.06-.28a.48.47-1 0 1 .5-.51m-9.33 4.33q-.02.2.11.36.6.78.7-.2.07-.67.39-1.29.32-.61-.22-1.03-.46-.35-.38-.92.11-.79-.33-.13c-1.16 1.72-1.68 3.38-3.64 4.41q-.35.19-.25.57.26 1 .8 1.6.58.64.59-.23.02-2.29 1.62-3.49.7-.52.61.35m2.62-.43q-.67.41-.27 1.17.03.06.1.06.13.01.26.01-.1.59.05.87a.47.47 0 0 0 .86-.07q.11-.34-.05-.81l.08-.98q.29-.34.17-.61a.46.45 70.5 0 0-.51-.25q-.62.14-.69.61m3.16 1.36q.14-.79-.59-1.06a.31.3 7.9 0 0-.41.3q.04.73.7.95a.24.23-76 0 0 .3-.19m-4.263.784a.87.58-30.8 0 0-1.044-.052.87.58-30.8 0 0-.45.944.87.58-30.8 0 0 1.044.052.87.58-30.8 0 0 .45-.944m30.223.566a.41.41 0 0 0-.41-.41.41.41 0 0 0-.41.41.41.41 0 0 0 .41.41.41.41 0 0 0 .41-.41"/><path fill="#969c89" d="M211.43 61.13q-.14.44-.49.61-.79.36-1.27-.56.85-.19 1.76-.05"/><path fill="#06050d" d="m215.02 61.11-.14.12q-.4-.1-.83 0-.01-.06-.03-.12z"/><path fill="#969c89" d="M207.79 61.31q-.67.41-1.31.04.62-.15 1.31-.04"/><path fill="#b93ea4" d="M214.88 61.23q.07.14.04.26-.03.1-.14.12-.59.11-.73-.38.43-.1.83 0"/><path fill="#06050d" d="M204.91 61.61q.61 1.07 1.6 1.5l.04.18-1.07 1.42q-.3.4-.31.91-.01.75-.72 1.06a.96.93 82.5 0 0-.56.75q-.23 1.72.14 3.6l-6.05-.05.07-.84q.4-.07.7-.28.96-.7-.14-.47-.33.07-.73.51-2.66.54-3.44-1.19-.33-.73.47-.62.65.09 1.06.57.45.53 1.15.46.84-.09 1.19-.86.25-.57-.34-.75l-2.48-.77q-.63-.2-.13-.64.71-.6 1.44-1.32.23-.22.28-.52.1-.48-.29-.57 1.01-.63 2.24-.64l-2.07 3.03q-.15.22.06.38l.21.15a.37.37 0 0 0 .56-.15q1.19-2.72 3.72-2.2.41.08.48-.32l.08-.4q.09-.5-.41-.58l-1.89-.29q1.49-.66 3.34-.65.39 1.23 1.2 1.94a.39.39 0 0 0 .59-.1l.19-.3q.2-.33-.15-.5-.84-.39-1.41-1.12zm-.93 4.79.47-.9q.15-.3-.15-.45-.43-.22-.91-.1-.65.17-.45.8.15.48.57.77.3.22.47-.12m-5.023 1.17a1.53.43 127.1 0 0 1.266-.96 1.53.43 127.1 0 0 .58-1.48 1.53.43 127.1 0 0-1.266.96 1.53.43 127.1 0 0-.58 1.48m2.353.91q.23-.34.63-.6.79-.49-.14-.46-.89.03-1.69 1.03-.47.6.24.89.78.3 1.51.56.13.04.26 0 .16-.06.25-.21.22-.36-.17-.51-.26-.1-.55-.09-.77.03-.34-.61"/><path fill="#cfd5c1" d="M203.53 61.94q.57.73 1.41 1.12.35.17.15.5l-.19.3a.39.39 0 0 1-.59.1q-.81-.71-1.2-1.94z"/><path fill="#06050d" d="M212.1 63.16q.24.16 0-.08-.22-.83.3-1.05a.39.39 0 0 1 .54.44q-.12.61-.84.69"/><path fill="#211a45" d="M216.92 63.39q.02.14.06.28.09.32.42.33.62.02.82-.73a.3.29-65.4 0 1 .45-.17l.24.16q.16.11.03.26l-1.03 1.13q-.49.53-.75-.14-.24-.58-.88-.86-1.05-.45.09-.52.78-.04.9-.81a.36.36 0 0 1 .6-.21q.12.12.11.28-.01.1-.05.19-.15.32-.51.3a.48.47-1 0 0-.5.51"/><path fill="#dadece" d="m199.77 62.67 1.89.29q.5.08.41.58l-.08.4q-.07.4-.48.32-2.53-.52-3.72 2.2a.37.37 0 0 1-.56.15l-.21-.15q-.21-.16-.06-.38l2.07-3.03z"/><path fill="#b93ea4" d="m206.55 63.29-.04-.18q.08-.02.16-.03.12-.03.18.05.03.03.04.08.06.24-.18.16-.08-.02-.16-.08M212.1 63.16q.18 1.39-.29 1.8-.44.39-.84-.04-.47-.5.07-.87.69-.47 1.06-.97.24.24 0 .08"/><path fill="#06050d" d="M207.48 66.86q-1.6 1.2-1.62 3.49-.01.87-.59.23-.54-.6-.8-1.6-.1-.38.25-.57c1.96-1.03 2.48-2.69 3.64-4.41q.44-.66.33.13-.08.57.38.92.54.42.22 1.03-.32.62-.39 1.29-.1.98-.7.2-.13-.16-.11-.36.09-.87-.61-.35"/><path fill="#dadece" d="M196.79 63.69q.39.09.29.57-.05.3-.28.52-.73.72-1.44 1.32-.5.44.13.64l2.48.77q.59.18.34.75-.35.77-1.19.86-.7.07-1.15-.46-.41-.48-1.06-.57-.8-.11-.47.62.78 1.73 3.44 1.19.08.12.17.24l-.07.84-.73.31q-.48-.16-.8.2l-4.74 1.83q-.75-.9-1.41-.27-.32.29-.35.71l-.9.16q-.23-1.25.3-2.43.11-.24.06-.47-.09-.43-.56-.41a.05.05 0 0 0-.01.1q.18.07.1.35-.06.24-.23.41-1.07 1.17-.51 2.72-.72.63-1.88.46.92-.92.16-2.1 1.08-1.58 2.28-2.41 1.57-1.34 2.56-1.22.68.07.65-.61-.05-1.43 1.31-1.48.66-.02.56-.67l-.13-.83 1.13-.63q.82.14 1.18-.61z"/><path fill="#06050d" d="M196.02 64.09q-.36.75-1.18.61.4-.55 1.18-.61"/><path fill="#dadece" d="m204.45 65.5-.47.9q-.17.34-.47.12-.42-.29-.57-.77-.2-.63.45-.8.48-.12.91.1.3.15.15.45"/><path fill="#06050d" d="m193.71 65.33.13.83q.1.65-.56.67-1.36.05-1.31 1.48.03.68-.65.61-.99-.12-2.56 1.22 2.09-2.86 4.95-4.81"/><ellipse fill="#bdc2b0" rx="1.53" ry=".43" transform="rotate(127.1 83.436 82.894)"/><path fill="#211a45" d="M211.74 67.03q-.8.44-1.03-.25.07-.47.69-.61a.46.45 70.5 0 1 .51.25q.12.27-.17.61"/><path fill="#b93ea4" d="M210.71 66.78q.23.69 1.03.25l-.08.98q-.61-.45-.86.01-.13 0-.26-.01-.07 0-.1-.06-.4-.76.27-1.17"/><path fill="#06050d" d="M213.87 68.14a.24.23-76 0 1-.3.19q-.66-.22-.7-.95a.31.3 7.9 0 1 .41-.3q.73.27.59 1.06"/><path fill="#969c89" d="M201.65 69.09q.29-.01.55.09.39.15.17.51-.09.15-.25.21-.13.04-.26 0-.73-.26-1.51-.56-.71-.29-.24-.89.8-1 1.69-1.03.93-.03.14.46-.4.26-.63.6-.43.64.34.61M305.29 89.46q-.34 1.59-2.1.83-.62-.27-.96.32-.41.73.1 1.45.63.89-.03 1.76-.96 1.24-1.88 2.56-.55.78-.02 1.42-.44.45-.57 1.06-.04.19.04.29.1.15.33.1-.13.64-1.15.69.15-.46 0-.74a.45.45 0 0 0-.81 0q-.53 1.07.04 1.66.68.48 1.73-.23.29.93 1.88.09l.18.34q-5.86 1.86-11.04 5.34-.62.41.05.73 1.86.88 3.84 1.01c3.51.23 7.15 1.78 10.35 3.19q.7 1.81 2.63 1.26l1.84 1.03q-.91.49-.45 1.09.55.74 1.41 1.42a.27.27 0 0 0 .43-.14l.14-.53q.04-.15-.1-.23-1.07-.59-1.11-1.5l8 6.13q-2.97-.23-2.82 1.05-.89.63-1.97-.41-.13-.21-.3-.34-.43-.35-.81.04-.8.81.67 1.65-1.31 1.3-2.88 1.34-.5.01-.82.4-.34.41-.79.73-.68.48-.56-.35.13-.96 1.11-1.16 1.18-.24 2.32-.74.46-.2.3-.65-.18-.53-.74-.53-1.19.01-1.85-.91-.38-.53-.94-.2l-1.01.61q-.25-.31-.61-.28-.4.03-.37.39l-1.24-.75q-.32-.82-.93-1.18-.47-.29-.77.18-.25.38-.29.87-.47-.06-.85.07-.19.06-.26.2-.08.19.06.37-.22-.1-.39-.31l-.21-6.92a3.23 3.23 0 0 0-2.82-3.11q-6.35-.8-11.23-4.12-2.4-1.63-2.96-4.83-.11-.63-.64-1l-2.14-1.48q-.46-.32-.13-.78 3.56-4.94.23-9.54-.31-.43-.82-.6-9.16-2.95-11.41-2.81-6.43.38-11.86.18-.5-.02-.85-.38l-7.49-7.72.02-.87 1.71.24q.38 1.08 1.07.98.59-.09.41-.66-.22-.68-1.23-.57.29-.67.98-1.08 9.55-5.6 20.1-6.9 9.38-1.16 18.72 1.83 3.35 1.07-.03 2.04-10.26 2.95-19.31 11.18-.47.43.14.62 3.02.97 6.15 2.14 1.75.65 4.29.45c8.15-.63 15.65-.01 23.28 3.22m-50.71-12.48q.15-.1.1-.28-.13-.55-.53-.14-.29.31-.67.5-.77.4-.04.86 1.04.66 1.73 1.67.33.48.75.07.46-.47.7-1 .34-.76-.48-.62-.93.16-1.57-.3-.55-.39.01-.76"/><path fill="#211a45" d="M211.66 68.01q.16.47.05.81a.47.47 0 0 1-.86.07q-.15-.28-.05-.87.25-.46.86-.01"/><path fill="#06050d" d="M215.68 68.25q.15.27.12.41-.21.25-.41.24a.31.3-73.7 0 1-.24-.45q.12-.23.53-.2"/><ellipse fill="#06050d" rx=".87" ry=".58" transform="rotate(-30.8 230.353 -344.446)"/><circle cx="239.42" cy="69.49" r=".41" fill="#06050d"/><path fill="#b93ea4" d="M198.05 70.14q-.09-.12-.17-.24.4-.44.73-.51 1.1-.23.14.47-.3.21-.7.28"/><path fill="#06050d" d="M212.01 70.32q-.26.27-.78.19.21-.45.78-.19M218 70.73l-1.03-.06q.62-.63 1.03.06M189.05 73.92l-.85.27q-.56-1.55.51-2.72.17-.17.23-.41.08-.28-.1-.35a.05.05 0 0 1 .01-.1q.47-.02.56.41.05.23-.06.47-.53 1.18-.3 2.43M216.51 70.84l-1.47.04zM238.83 74.13l-1.04.08q.27-.78.79-1.1.42-.26.31-.73-.08-.4-.54-.42-.57-.04-.47-.6.03-.14.1-.27.35-.58.72-.01l.41.63q.33.52.66 0l.27-.43q.35-.55.8-.07.11.12.07.29-.05.19-.22.31-1.56 1.1-1.86 2.32M197.25 71.29q-.25.34-.8.2.32-.36.8-.2M186.48 72.55q.76 1.18-.16 2.1-1.55-.59.16-2.1M191.71 73.32q-.78.52-1.76.44.03-.42.35-.71.66-.63 1.41.27M243.64 74.06q-.55.02-.93-.27.31-.76.83-.6.44.13.28.56-.06.15-.18.31M249.01 75.97l-.02.87-2.43-1.28q.68-.26.5-1.05zM250.97 75.96q1.01-.11 1.23.57.18.57-.41.66-.69.1-1.07-.98.09-.15.25-.25"/><path fill="#211a45" d="M254.57 77.74q.64.46 1.57.3.82-.14.48.62-.24.53-.7 1-.42.41-.75-.07-.69-1.01-1.73-1.67-.73-.46.04-.86.38-.19.67-.5.4-.41.53.14.05.18-.1.28-.56.37-.01.76"/><path fill="#bdc2b0" d="M312.31 93.69q-.58.42-.27.86a.75.73 60.6 0 0 .9.26q.08-.03.26-.35l2.27 2.02q-1.55 1.5 1.03 2.06.51.11.58.62.09.63-.37 1.35-.5-.06-.99-.34.3-.48.16-.88a.36.35 60.5 0 0-.56-.16q-.34.28-.3.84l-2.79-.15q-.4-.75-2.23-1.01.11-.38 0-.59-.28-.54-.69-.09l-.97 1.08q-1.08-.42-1.35.76l-1.45.44q.05-.23.02-.4-.09-.49-.54-.29-.79.35-1.33 1l-1.62.34-.18-.34q.74-.34.86-.54.88-1.43-.59-.62-.77.43-2.15 1.07-1.05.71-1.73.23.63-.04.77-.92 1.02-.05 1.15-.69.58-.32.69-.78.08-.32-.19-.52-.14-.09-.3-.15-.53-.64.02-1.42.92-1.32 1.88-2.56.66-.87.03-1.76-.51-.72-.1-1.45.34-.59.96-.32 1.76.76 2.1-.83zm-6.26.78q.01.22.24.29.46.12.4-.35-.13-1.07-1.26-1.6-.61-.29-.47.37.15.73.91 1.03.17.07.18.26m-1.74.8q.42.4 1 .38.87-.03.15-.52l-1.35-.92q-.46-.32-.89.05-.6.53-1.09 1.11-.5.58.25.43.5-.1.85-.48a.76.75-47.4 0 1 1.08-.05m7.79 1.11q.14.42.6.49.49.06.34-.4-.15-.49-.65-.48a.3.3 0 0 0-.29.39m-6.56 2.71q.39-.8.29-1.54-.06-.41-.48-.42l-3.1-.06q-.31-.01-.36.03-.23.14-.05.4.15.21.41.23l2.34.2q.33.02.5.3.23.34.16.76-.2 1.11.29.1m2.56-1.69a.49.49 0 0 0-.49-.49.49.49 0 0 0-.49.49.49.49 0 0 0 .49.49.49.49 0 0 0 .49-.49"/><path fill="#969c89" d="M305.87 94.21q-.76-.3-.91-1.03-.14-.66.47-.37 1.13.53 1.26 1.6.06.47-.4.35-.23-.07-.24-.29-.01-.19-.18-.26M313.2 94.46q-.18.32-.26.35a.75.73 60.6 0 1-.9-.26q-.31-.44.27-.86.6.33.89.77"/><path fill="#211a45" d="M303.23 95.32q-.35.38-.85.48-.75.15-.25-.43.49-.58 1.09-1.11.43-.37.89-.05l1.35.92q.72.49-.15.52-.58.02-1-.38a.76.75-47.4 0 0-1.08.05"/><path fill="#969c89" d="M312.1 96.38a.3.3 0 0 1 .29-.39q.5-.01.65.48.15.46-.34.4-.46-.07-.6-.49"/><path fill="#06050d" d="M316.71 100.51q.46-.72.37-1.35-.07-.51-.58-.62-2.58-.56-1.03-2.06 1.98 1.61 2.82 3.81.2.52-.36.58-.59.06-1.22-.36M305.25 98.99q.07-.42-.16-.76-.17-.28-.5-.3l-2.34-.2q-.26-.02-.41-.23-.18-.26.05-.4.05-.04.36-.03l3.1.06q.42.01.48.42.1.74-.29 1.54-.49 1.01-.29-.1"/><circle cx="307.61" cy="97.4" r=".49" fill="#211a45"/><path fill="#06050d" d="M300.2 99.25q-.23.05-.33-.1-.08-.1-.04-.29.13-.61.57-1.06.16.06.3.15.27.2.19.52-.11.46-.69.78"/><path fill="#b93ea4" d="M310 98.81q-.46.36-.25 1.06l-.97.02q-.33-.37-.44-.68l.97-1.08q.41-.45.69.09.11.21 0 .59"/><path fill="#211a45" d="M310 98.81q1.83.26 2.23 1.01-1.22.25-2.48.05-.21-.7.25-1.06"/><path fill="#2a21b7" d="M299.05 99.94q-.14.88-.77.92-.57-.59-.04-1.66a.45.45 0 0 1 .81 0q.15.28 0 .74"/><path fill="#06050d" d="M308.34 99.21q.11.31.44.68l-1.79.08q.27-1.18 1.35-.76M315.72 100.17q-.39.11-.7-.2-.04-.56.3-.84a.36.35 60.5 0 1 .56.16q.14.4-.16.88M301.89 100.72q-1.59.84-1.88-.09 1.38-.64 2.15-1.07 1.47-.81.59.62-.12.2-.86.54M305.54 100.41q-.9.32-1.85.31.54-.65 1.33-1 .45-.2.54.29.03.17-.02.4"/><path fill="#211a45" d="M307.9 112.59q-1.93.55-2.63-1.26z"/><path fill="#b93ea4" d="M309.74 113.62q.16.05.32.11.04.91 1.11 1.5.14.08.1.23l-.14.53a.27.27 0 0 1-.43.14q-.86-.68-1.41-1.42-.46-.6.45-1.09"/><path fill="#06050d" d="M304.75 119.75q-.9.45-1.99-.13.04-.49.29-.87.3-.47.77-.18.61.36.93 1.18"/><path fill="#cfd5c1" d="M312.83 121.85q.72-.28.44-1.35 1.08 1.04 1.97.41.46 1.12-.91 1.68-1.66.68-2.33 1.96-.34.67.36.39 2.62-1.08 3.72-3.26.23-.46.72-.59l1.93-.53q.77.57 1.24 1.29-.89.25-1.71.18-.54-.04-1.02.21-1.16.62-1.39 1.84a2.31 2.31 0 0 1-2.15 1.87q-.59.04-.75.65-.14.53.38.35.57-.2.92-.74a.77.77 0 0 1 .9-.3q2.01.7 3.46 1.97.19.17.31-.05.06-.11.04-.31.33-.37.51.53a.34.34 0 0 0 .49.24l.3-.15q1.14-.35 2.02.55.21.21.36.21.22-.02.38-.28l.98.07q1.05.49.9 1.53-.07.5.37.74.49.27 1.24-.27.74.58.22 1.13a.55.53 30.6 0 1-.59.14l-3.19-1.17q-.11-.37-.38-.48-.28-.11-.19.17.03.14.07.27-2.88-1.07-2.76-.03l-.17.15q-2.97-.63-3.75-3.44a.34.33 84.9 0 0-.29-.25q-.47-.05-.59.55a.83.83 0 0 0 .37.85q1.16.74.94 2.37-.8.3-1.56.23-1.9-.83-3.64.68-4.93 1.37-9.72 3.45-.16.07-.24.19-.09.14-.16.29v.74q0 .36.1.74.09.34.32.6 2.5 2.86 2.6 6.48.01.5.49.67.25.09.51.05 1.48 2.71 3.37 1.45l3.02 1.7q.07.53.72.47l1.63.96-.35.5q-.35.5.22.71l2.81 1.06.65.53q.58 2.77 3.28 3.43 1.84 1.74 3.02 4.12-1.93 3.13-2.3 3.98-.27.64-.06 1.45.14.52.3 0 1.6-5.05 3.87-2.14.51.36.75 1.26-.02.33.09.65l.4 1.1q-.06.36.11.65.69 2.15.38 4.28-.08.54-.59.35l-5.12-1.89q-3.25-2.08-6.32-1.65l-.82-.15q-.14-.29-.47-.3-.33 0-.5.26l-.65.04.6-3.46q.04-.24-.2-.3l-.25-.05q-.2-.05-.27.14-.34.93-.41 1.88-.04.6-.56.97-.24.18-.49.34-.64.43-.76-.33-.09-.49-.74-.2a1 .88-75.1 0 0-.24.16q-.54.51-1.04.15-1.76-.17-2.23-1.59-.06-.18-.24-.3-.12-.07-.34.02-.26.09-.18.36.28 1.01-.85 2l-1.4-.03q.19-.33.77-.66.44-.25-.06-.31l-2.3-.26.19-1q.86-.67.16-1.49-.05-.91.33-1.88.03.01.07.02.18 1.42 1.06.29a.92.91 22.2 0 1 .85-.35q1.61.21 2.81-1.04.58-.61-.19-.26-.72.33-1.52.41-1.38.14-.5-.93.96-1.17 2.51-1.21.82-.02.18-.55-.68-.56-1.57-.09-1.72.89-3.52 1.63l.15-1.95q.27-.55-.05-1.22-.07-.44.04-.84.95 0 1.31-.75a.42.41 16.4 0 0-.33-.59q-.53-.06-.98.41-.11-.51-.03-1.07l.03-1.42.14-1.83q1.31-2.38.01-4.74-.08-1.02.39-2.14.2-.47.06-.96l-.27-.92q.32-.09.21-.44-.11-.34-.39-.28-1.01-2.15-2.69-3.37a1.04 1.03-66.3 0 1-.4-1.04l1.55-7.95q1.31 0 1.18 2.33-.03.53.46.71.34.12.83.09-.42.41-.33.85a.4.4 0 0 0 .68.2l1.31-1.33a.43.42 46.5 0 0 .01-.58q-.22-.25-.59-.13l-.26-1.79q.58-.66-.3-1.21-1.3-.8-1.65-1.26-.08-.65.36-.95.47-.33-.03-.62-.65-.37-.6-1.26.03-.61.62-.74.85-.2 1.78-.31.54-.06.81-.5.23-.39.09-.84-.23-.75-.74-.15-.48.55-1.18.68-.53.1-.9-.28-.53-.53-.6-1.52-.14-.18-.06-.37.07-.14.26-.2.38-.13.85-.07 1.09.58 1.99.13l1.24.75q.51 1.08 1.33 1.11.44.01.33-.42-.1-.42-.68-.8l1.01-.61q.56-.33.94.2.66.92 1.85.91.56 0 .74.53.16.45-.3.65-1.14.5-2.32.74-.98.2-1.11 1.16-.12.83.56.35.45-.32.79-.73.32-.39.82-.4 1.57-.04 2.88-1.34m-6.46 1.11q-.44.15-.39.68a.54.54 0 0 0 .81.4q.42-.25.19-.8a.5.49-19.8 0 0-.61-.28m4.51 1.45q-.12-.12-.29-.19-.46-.21-.15.19.15.19.39.14a.09.08-26.3 0 0 .05-.14m-4.009 1.613a1.57.45 29.9 0 0-1.137-1.173 1.57.45 29.9 0 0-1.585-.393 1.57.45 29.9 0 0 1.137 1.173 1.57.45 29.9 0 0 1.585.393m4.232.971a.63.33 39.9 0 0-.271-.657.63.33 39.9 0 0-.695-.151.63.33 39.9 0 0 .271.657.63.33 39.9 0 0 .695.151m-1.317 1.61a1.07.32 41.1 0 0-.596-.945 1.07.32 41.1 0 0-1.016-.462 1.07.32 41.1 0 0 .596.944 1.07.32 41.1 0 0 1.016.462m-3.996.236q-.79.19-.87.69-.03.25.19.45.19.17.4.18.44.02.54-.42l.12-.54q.66-.16.89-.5.31-.46-.15-.78-.26-.18-.56-.05-.29.13-.41.43-.1.25-.15.54m7.78.038a.8.32 29 0 0-.545-.668.8.32 29 0 0-.855-.108.8.32 29 0 0 .545.668.8.32 29 0 0 .855.108M310 130.52a.53.53 0 0 0-.53-.53.53.53 0 0 0-.53.53.53.53 0 0 0 .53.53.53.53 0 0 0 .53-.53m-3.69 19.534a.88.5 101.1 0 0 .66-.768.88.5 101.1 0 0-.32-.96.88.5 101.1 0 0-.66.768.88.5 101.1 0 0 .32.96m2.17 3.896-.48.25q-.22.12-.12.34l.14.3a.16.16 0 0 0 .21.09q1.21-.48 1.61-1.81a.61.59 25.8 0 0-.24-.66q-.64-.44-.92-1.17-.15-.36-.46-.13l-.3.21q-.09.07-.05.18.28.72.8 1.3.62.67-.19 1.1m-3.67 1.26a.21.2 76.3 0 0 .34.21l1.4-1.53q.64-.7-.31-.78l-.55-.04q-.69-.05-.66.64.03.8-.22 1.5m7.042-1.662a.29.22 45.9 0 0-.044-.361.29.22 45.9 0 0-.36-.055.29.22 45.9 0 0 .044.361.29.22 45.9 0 0 .36.055m3.188.742q.01.29.21.31.22.03.29-.26.49-.33.25-.93a.93.93 0 0 0-1.38-.41q-.11.07-.17.22-.06.14.01.27.27.51.79.8m-3.67.75q-.41-.06-.53.3-.08.22.1.38.57.54 1.43.68.79.13.61-.65l-.21-.93q-.06-.26-.32-.27-.33-.01-.52.25a.59.59 0 0 1-.56.24m5.27 1.24q-1-.09-1.86-.75-.27-.2-.47.08l-.17.24q-.14.2.05.35.97.74 2.22.94a.35.35 0 0 0 .4-.28l.06-.28q.05-.28-.23-.3m-8.483 1.405a.99.45 117.9 0 0 .86-.664.99.45 117.9 0 0 .066-1.086.99.45 117.9 0 0-.86.664.99.45 117.9 0 0-.066 1.086m-2.797-1.205q-.83.26-1.27 1.03-.14.25.07.44.48.42.71-.18.21-.56.67-.97.7-.59-.18-.32m7.24 3.14.49 2.82q.12.68.62.2.82-.79.6-1.81-.11-.51-.62-.63-.45-.1-.74-.47-.43-.55.21-.81.34-.14.61.06.8.55.48-.36-.16-.49-.19-1-.05-.92-.57-.16-.09.14-.23.23-.49.3-1.05.21-2.33-.4-4 1.29-.36.37.06.68 1.11.82 1.92 2.11a.38.37 67.9 0 0 .39.17q.31-.05.4-.31.21-.62-.39-.9-.52-.24-.75-.76-.34-.79.47-1.1.69-.26 1.37-.25.78.01.92.79m6.74-.8q.18-.07.22-.26.01-.06 0-.12-.04-.2-.17-.36-.34-.45-.35.11-.01.52-.45.79-.77.46-.03.98.41.28.53.78.14.6.67.28.15-.09.15-.23.04-.62.65-.71l1.09-.15q.27-.04.26-.31l-.01-.27q-.01-.28-.29-.28-1.09.03-1.76.72a.48.48 0 0 1-.73-.06q-.12-.16-.14-.36-.03-.41.36-.55m-3.62 0q-.27.36.07.65.17.15.39.23.58.2.73-.38.09-.32.11-.64.07-.85-.67-.42-.37.21-.63.56m-7.84 2.34q.11.29.38.12.14-.09.05-.24-.09-.14-.29-.12-.23.02-.14.24m7.3 3.34q.24-.54.61-1.03.36-.46.13-.99-.08-.2-.25-.28-.82-.39-.75.51.06.81-.49 1.5-.43.54-.28 1.23.11.54.49.93.59.61.47-.23l-.08-.55q-.09-.56.15-1.09m3.03-1.66q-.26-.38-.73-.5-.26-.06-.34.2l-.09.32a.3.3 0 0 0 .31.38l2.11-.11q.18-.01.3-.15.16-.2.05-.37-.27-.4-.62-.06l-.36.36a.41.41 0 0 1-.63-.07m-9.44 1.83q-.33.32-.71.66-.79.69.23.43 1.56-.39 1.97-1.75.17-.53-.24-.96-.48-.5-.84.09-.16.27-.1.57.11.57-.31.96m-3.5-1.087a.73.44 1.8 0 0-.716-.463.73.44 1.8 0 0-.744.417.73.44 1.8 0 0 .716.463.73.44 1.8 0 0 .744-.417m2 .317q-.14.04-.2.17-.14.33.17.15.08-.04.15-.11.31-.33-.12-.21m11.38 2.28q.62.58 1.44.94.15.07.32.02.14-.04.18-.22.05-.2-.12-.32-1.05-.76-2.11-1.54-.59-.43-1.14.04-.31.27-.02.57.22.24.56.21.51-.05.89.3m3.92.76q-.59.31-.5.95.02.14.11.25.41.5.69-.08l1.12-2.34q.33-.69-.43-.63-.22.02-.38.19-.35.41-.25.94.09.5-.36.72m3.62 1.93a1.14 1.14 0 0 0-1.14-1.14 1.14 1.14 0 0 0-1.14 1.14 1.14 1.14 0 0 0 1.14 1.14 1.14 1.14 0 0 0 1.14-1.14"/><path fill="#06050d" d="M318.06 119.86q.39.25.67.7l-1.93.53q-.49.13-.72.59-1.1 2.18-3.72 3.26-.7.28-.36-.39.67-1.28 2.33-1.96 1.37-.56.91-1.68-.15-1.28 2.82-1.05M301.71 120.26q.07.99.6 1.52.37.38.9.28.7-.13 1.18-.68.51-.6.74.15.14.45-.09.84-.27.44-.81.5-.93.11-1.78.31-.59.13-.62.74-.05.89.6 1.26.5.29.03.62-.44.3-.36.95l-.36 1.12-.71.11.29-8.03q.17.21.39.31M306.97 120.39q.58.38.68.8.11.43-.33.42-.82-.03-1.33-1.11-.03-.36.37-.39.36-.03.61.28"/><path fill="#2a21b7" d="M313.27 120.5q.28 1.07-.44 1.35-1.47-.84-.67-1.65.38-.39.81-.04.17.13.3.34"/><path fill="#06050d" d="m319.97 121.85.49.43q-.45.85-1.21.63-.27-.08-.46-.28-.34-.37-.71-.03l-2.04 1.85a.75.75 0 0 0 .24 1.26q1.48.55 2.68 1.81.02.2-.04.31-.12.22-.31.05-1.45-1.27-3.46-1.97a.77.77 0 0 0-.9.3q-.35.54-.92.74-.52.18-.38-.35.16-.61.75-.65a2.31 2.31 0 0 0 2.15-1.87q.23-1.22 1.39-1.84.48-.25 1.02-.21.82.07 1.71-.18"/><path fill="#bdc2b0" d="m320.46 122.28 4.33 5.3-.79 1.11-.98-.07-1.61-1.38q-.39-.34-.89-.16-.97.35-.26 1.06l-.3.15a.34.34 0 0 1-.49-.24q-.18-.9-.51-.53-1.2-1.26-2.68-1.81a.75.75 0 0 1-.24-1.26l2.04-1.85q.37-.34.71.03.19.2.46.28.76.22 1.21-.63"/><path fill="#06050d" d="M306.37 122.96a.5.49-19.8 0 1 .61.28q.23.55-.19.8a.54.54 0 0 1-.81-.4q-.05-.53.39-.68"/><path fill="#969c89" d="M310.88 124.41a.09.08-26.3 0 1-.05.14q-.24.05-.39-.14-.31-.4.15-.19.17.07.29.19"/><ellipse fill="#06050d" rx="1.57" ry=".45" transform="rotate(29.9 -81.764 634.706)"/><ellipse fill="#06050d" rx=".63" ry=".33" transform="rotate(39.9 -19.065 491.167)"/><path fill="#211a45" d="m304.05 129.22-2.31-1.35.36-1.12q.35.46 1.65 1.26.88.55.3 1.21"/><ellipse fill="#211a45" rx="1.07" ry=".32" transform="rotate(41.1 -16.098 476.056)"/><path fill="#06050d" d="M323.02 128.62q-.16.26-.38.28-.15 0-.36-.21-.88-.9-2.02-.55-.71-.71.26-1.06.5-.18.89.16zM319.52 130.87l-3.32.08q.22-1.63-.94-2.37a.83.83 0 0 1-.37-.85q.12-.6.59-.55a.34.33 84.9 0 1 .29.25q.78 2.81 3.75 3.44M326.51 130.69q-.75.54-1.24.27-.44-.24-.37-.74.15-1.04-.9-1.53l.79-1.11zM306.17 129.2l-.38-.36q.05-.29.15-.54.12-.3.41-.43.3-.13.56.05.46.32.15.78-.23.34-.89.5"/><path fill="#dadece" d="m301.74 127.87 2.31 1.35.26 1.79-1.08.99q-.49.03-.83-.09-.49-.18-.46-.71.13-2.33-1.18-2.33l.27-.89z"/><ellipse fill="#969c89" rx=".8" ry=".32" transform="rotate(29 -91.982 669.134)"/><path fill="#b93ea4" d="m305.79 128.84.38.36-.12.54q-.1.44-.54.42-.21-.01-.4-.18-.22-.2-.19-.45.08-.5.87-.69"/><circle cx="309.47" cy="130.52" r=".53" fill="#06050d"/><path fill="#06050d" d="M322.45 130.75q-.44-.43.02-.05-1.54.24-2.78.02-.12-1.04 2.76.03"/><path fill="#969c89" d="M322.95 130.79q-.27.04-.48-.09-.46-.38-.02.05-.04-.13-.07-.27-.09-.28.19-.17.27.11.38.48"/><path fill="#06050d" d="m303.23 132 1.08-.99q.37-.12.59.13a.43.42 46.5 0 1-.01.58l-1.31 1.33a.4.4 0 0 1-.68-.2q-.09-.44.33-.85"/><path fill="#969c89" d="M314.64 131.18q-1.8.71-3.64.68 1.74-1.51 3.64-.68"/><path fill="#06050d" d="M300.88 135.79v.74z"/><path fill="#969c89" d="M302.48 141.95q-.3-.36-.18-.72.28-.06.39.28.11.35-.21.44"/><path fill="#06050d" d="M308.27 146.52q-1.89 1.26-3.37-1.45zM302.29 150.71l.01-4.74q1.3 2.36-.01 4.74"/><ellipse fill="#2a21b7" rx=".88" ry=".5" transform="rotate(101.1 91.858 200.692)"/><path fill="#595959" fill-opacity=".996" d="M312.01 148.69q-.65.06-.72-.47.53.02.72.47"/><path fill="#06050d" d="m316.32 151.92-2.81-1.06q-.57-.21-.22-.71l.35-.5zM308.67 152.85q-.52-.58-.8-1.3-.04-.11.05-.18l.3-.21q.31-.23.46.13.28.73.92 1.17a.61.59 25.8 0 1 .24.66q-.4 1.33-1.61 1.81a.16.16 0 0 1-.21-.09l-.14-.3q-.1-.22.12-.34l.48-.25q.81-.43.19-1.1M302.15 152.54l-.03 1.42zM320.25 155.88q-2.7-.66-3.28-3.43 1.95 1.44 3.28 3.43M304.81 155.21q.25-.7.22-1.5-.03-.69.66-.64l.55.04q.95.08.31.78l-1.4 1.53a.21.2 76.3 0 1-.34-.21"/><ellipse fill="#06050d" rx=".29" ry=".22" transform="rotate(45.9 -25.237 444.663)"/><path fill="#06050d" d="m315.54 154.34-.5-.05q-.52-.29-.79-.8-.07-.13-.01-.27.06-.15.17-.22a.93.93 0 0 1 1.38.41q.24.6-.25.93"/><path fill="#b93ea4" d="M315.54 154.34q-.07.29-.29.26-.2-.02-.21-.31z"/><path fill="#06050d" d="M311.93 154.8q.19-.26.52-.25.26.01.32.27l.21.93q.18.78-.61.65-.86-.14-1.43-.68-.18-.16-.1-.38.12-.36.53-.3a.59.59 0 0 0 .56-.24"/><path fill="#b93ea4" d="M302.15 155.96q-.31-.4 0-.93.45-.47.98-.41a.42.41 16.4 0 1 .33.59q-.36.75-1.31.75"/><path fill="#06050d" d="M316.64 156.28q.28.02.23.3l-.06.28a.35.35 0 0 1-.4.28q-1.25-.2-2.22-.94-.19-.15-.05-.35l.17-.24q.2-.28.47-.08.86.66 1.86.75"/><ellipse fill="#06050d" rx=".99" ry=".45" transform="rotate(117.9 107.106 171.307)"/><path fill="#06050d" d="M305.54 156.8q-.46.41-.67.97-.23.6-.71.18-.21-.19-.07-.44.44-.77 1.27-1.03.88-.27.18.32"/><path fill="#969c89" d="M302.16 158.02q-.23-.6-.05-1.22.32.67.05 1.22"/><path fill="#06050d" d="M311.68 158.83q-.68-.01-1.37.25-.81.31-.47 1.1.23.52.75.76.6.28.39.9-.09.26-.4.31a.38.37 67.9 0 1-.39-.17q-.81-1.29-1.92-2.11-.42-.31-.06-.68 1.67-1.69 4-1.29.56.09 1.05-.21.14-.09.23-.23.52-.76.57.16.03.51.19 1 .32.91-.48.36-.27-.2-.61-.06-.64.26-.21.81.29.37.74.47.51.12.62.63.22 1.02-.6 1.81-.5.48-.62-.2l-.49-2.82q-.14-.78-.92-.79M318.98 159.37q.02.2.14.36a.48.48 0 0 0 .73.06q.67-.69 1.76-.72.28 0 .29.28l.01.27q.01.27-.26.31l-1.09.15q-.61.09-.65.71 0 .14-.15.23-.53.32-.67-.28-.12-.5-.53-.78-.74-.52.03-.98.44-.27.45-.79.01-.56.35-.11.13.16.17.36.01.06 0 .12-.04.19-.22.26-.39.14-.36.55M301.9 162.07q.68-.05 1.02-.26a.35.35 0 0 0 .02-.59q-.47-.32-1.11-.26l.18-.99q1.8-.74 3.52-1.63.89-.47 1.57.09.64.53-.18.55-1.55.04-2.51 1.21-.88 1.07.5.93.8-.08 1.52-.41.77-.35.19.26-1.2 1.25-2.81 1.04a.92.91 22.2 0 0-.85.35q-.88 1.13-1.06-.29M315.72 158.82q.26-.35.63-.56.74-.43.67.42-.02.32-.11.64-.15.58-.73.38-.22-.08-.39-.23-.34-.29-.07-.65"/><path fill="#211a45" d="M325.08 163.29q-2.27-2.91-3.87 2.14-.16.52-.3 0-.21-.81.06-1.45.37-.85 2.3-3.98 1.37 1.49 1.81 3.29"/><path fill="#dadece" d="M301.9 162.07q-.04-.01-.07-.02-.16-.55 0-1.09.64-.06 1.11.26a.35.35 0 0 1-.02.59q-.34.21-1.02.26"/><path fill="#969c89" d="M307.88 161.16q-.09-.22.14-.24.2-.02.29.12.09.15-.05.24-.27.17-.38-.12"/><path fill="#211a45" d="m315.03 165.59.08.55q.12.84-.47.23-.38-.39-.49-.93-.15-.69.28-1.23.55-.69.49-1.5-.07-.9.75-.51.17.08.25.28.23.53-.13.99-.37.49-.61 1.03-.24.53-.15 1.09"/><path fill="#b93ea4" d="m318.84 162.91.36-.36q.35-.34.62.06.11.17-.05.37-.12.14-.3.15l-2.11.11a.3.3 0 0 1-.31-.38l.09-.32q.08-.26.34-.2.47.12.73.5a.41.41 0 0 0 .63.07"/><path fill="#06050d" d="M309.08 163.71q-.06-.3.1-.57.36-.59.84-.09.41.43.24.96-.41 1.36-1.97 1.75-1.02.26-.23-.43.38-.34.71-.66.42-.39.31-.96"/><ellipse fill="#06050d" rx=".73" ry=".44" transform="rotate(1.8 -5053.578 9774.792)"/><path fill="#211a45" d="M307.39 164.11q-.07.07-.15.11-.31.18-.17-.15.06-.13.2-.17.43-.12.12.21"/><path fill="#06050d" d="M301.5 163.93q.7.82-.16 1.49-.29-.76.16-1.49M312.34 167.89l-6.63-.25q1.14.02 2.27-.45.5.36 1.04-.15a1 .88-75.1 0 1 .24-.16q.65-.29.74.2.12.76.76.33.25-.16.49-.34.52-.37.56-.97.07-.95.41-1.88.07-.19.27-.14l.25.05q.24.06.2.3zM325.92 165.2q-.11-.32-.09-.65.14.26.09.65M317.76 165.88q-.34.03-.56-.21-.29-.3.02-.57.55-.47 1.14-.04 1.06.78 2.11 1.54.17.12.12.32-.04.18-.18.22-.17.05-.32-.02-.82-.36-1.44-.94-.38-.35-.89-.3"/><path fill="#969c89" d="M322.93 166.22q-.1-.53.25-.94.16-.17.38-.19.76-.06.43.63l-1.12 2.34q-.28.58-.69.08-.09-.11-.11-.25-.09-.64.5-.95.45-.22.36-.72M307.98 167.19q-1.13.47-2.27.45l-1.57.04q1.13-.99.85-2-.08-.27.18-.36.22-.09.34-.02.18.12.24.3.47 1.42 2.23 1.59"/><path fill="#969c89" d="m301.15 166.42 2.3.26q.5.06.06.31-.58.33-.77.66-.81.08-.81.59 0 1.69-.3 3.33l.04 1.31q.79.09 1.35.44-.24 1.17.35 1.71-.16 1.37.97 2.47.36.34.72.01.92-.85 2.43-.69.64.32 1.06 1.18l-1.79-.25q-.59-.09-.86.44l-.76 1.45a.88.88 0 0 0 1.01 1.26q.92-.25 1.61.36.41.37.2.88-.4 1.01.4 1.75a1.08 1.03 41.8 0 0 1.5-.05q.07-.08-.08-.51.84-1.57 2-.6 2.37 4.74 2.98 10.29.38 3.38-.82 7.34-.17.57-.69.28-6.2-3.53-13.44-4.91-.38-.07-.68.17l-.28.24q-.44-.26-1.14-.35.48-.68.37-1.78c.7-.86 1.84-.99 2.29-1.96q.47-1.02-.48-.42-.73.46-1.69.32l.02-1.29q1.78-1.48 1.72-2.43 1.1-.42 1.04-1.22.99-.46.53-.97.63-1.05.23-1.53-.32-.4-.73-.09-1 .76-1.77-.46l-.09-1.42 1.01-7.06-.05-1.71zm5.18 16.12q.21.25.49.01.28-.25-.05-.43-.36-.2-.49.12-.06.16.05.3m-4.44 11.032a.8.48-2.7 0 0-.823-.441.8.48-2.7 0 0-.776.517.8.48-2.7 0 0 .822.441.8.48-2.7 0 0 .776-.517"/><path fill="#06050d" d="M326.43 166.95q-.17-.29-.11-.65.19.3.11.65M313.96 167.89q-.46.14-.97-.04.17-.26.5-.26.33.01.47.3M321.1 169.69l-6.32-1.65q3.07-.43 6.32 1.65"/><circle cx="325.05" cy="168.87" r="1.14" fill="#06050d"/><path fill="#06050d" d="m301.63 171.57.04 1.31zM304.45 174.21l-.22.51-.86.31q-.59-.54-.35-1.71.83.22 1.43.89M300.11 173.77l.05 1.71z"/><path fill="#969c89" d="M304.45 174.21q.35-.07.59.46l-.1.77q-.28-.66-.71-.72z"/><path fill="#dadece" d="M304.23 174.72q.43.06.71.72-.05.5.42.54.62.04.89-.47.82.43 1.24 1.31-1.51-.16-2.43.69-.36.33-.72-.01-1.13-1.1-.97-2.47z"/><path fill="#06050d" d="M306.25 175.51q-.27.51-.89.47-.47-.04-.42-.54l.1-.77q.72.28 1.21.84"/><path fill="#dadece" d="M308.55 178q.37.21.76.81l-2.97.28q-.4.04-.3.43l.08.33a.44.43-18.7 0 0 .6.29q2.03-.89 3.24 1.03.18.29-.01.58-.13.17-.35.21-.4.06-.48.46-.1.55.66.91.15.43.08.51a1.08 1.03 41.8 0 1-1.5.05q-.8-.74-.4-1.75.21-.51-.2-.88-.69-.61-1.61-.36a.88.88 0 0 1-1.01-1.26l.76-1.45q.27-.53.86-.44z"/><path fill="#06050d" d="M311.78 182.73q-1.16-.97-2 .6-.76-.36-.66-.91.08-.4.48-.46.22-.04.35-.21.19-.29.01-.58-1.21-1.92-3.24-1.03a.44.43-18.7 0 1-.6-.29l-.08-.33q-.1-.39.3-.43l2.97-.28z"/><path fill="#cfd5c1" d="M306.28 182.24q.13-.32.49-.12.33.18.05.43-.28.24-.49-.01-.11-.14-.05-.3"/><path fill="#06050d" d="m299.15 182.54.09 1.42h-.13z"/><path fill="#dadece" d="M299.24 183.96q.77 1.22 1.77.46.41-.31.73.09.4.48-.23 1.53-1.09.3-1.69-.85-.14-.25-.42-.28-.17-.02-.34.05l.05-1z"/><path fill="#06050d" d="M301.51 186.04q.46.51-.53.97-1.23-.01-1.95-.44l.03-1.61q.17-.07.34-.05.28.03.42.28.6 1.15 1.69.85"/><path fill="#dadece" d="M300.98 187.01q.06.8-1.04 1.22l-1.23-.32q.02-.85.32-1.34.72.43 1.95.44"/><path fill="#211a45" d="M299.94 188.23q.06.95-1.72 2.43l.49-2.75z"/><path fill="#06050d" d="m298.08 194.01.12-2.06q.96.14 1.69-.32.95-.6.48.42c-.45.97-1.59 1.1-2.29 1.96"/><ellipse fill="#211a45" rx=".8" ry=".48" transform="rotate(-2.7 4258.316 -6291.34)"/><path fill="#bdc2b0" d="m298.85 196.14-.93 4.8a1.06 1.06 0 0 0 .24.9l1.43 1.67q-.6.65-.44 1.09.11.33.57.33.36 0 .73-.15l1.7 2.64q-.16.31-.35.47-.3.26-.51-.06-.16-.25-.52-.29l-.97-1.36q-.37-.52-.74-.01-.27.38 0 1.05.41.97 1.7.66l.94 3.47q.25.94-.62.51l-.26-.13q-.53-.26-.82.25-.46.83-1.25 1.17-.42-.03-.63.17-.21.19-.08.41.12.2.52.2 1.11.78 2.61 1.11.47.1.87.4l2.89 2.2-.03 2.31q-1.4-.07-1.02-1.63.06-.27-.21-.27h-.38q-.17 0-.17.17.02 2.07 1.81 2.87l-.05 3.45-.05.65q.05 1.58-.73 2.31-.42.4-.83-.02-.18-.19-.3-.5.55-2.29-1.21-1.78-.64-.45-1-1.14-.27-2.17-2.5-1.99-.63-.17-1.22-.69.72.01.86-.72a.47.47 0 0 0-.66-.52q-.52.23-.63.87-1.12-.19-1.84-.96.44-.92 1.26-1.61.94-.41 1.04-1.34.16-.41-.03-.75-.14-.24-.36-.31-.53-.17-.58.39l-.08.8-.25.65q-1.03 1.06-2.61 1.8-1.3 3.87-.77 8.59-.41.49-1.13.78l.12-4.08q.59-.1.42-.7-.09-.33-.42-.27-.19-2.68.89-4.98.57-.14.4-1.71l.46-1.5q.6-.1.63 1.07.01.54.53.38.25-.08.42-.28.35-.4 0-.79-.89-.98-.9-2.47l1.29-4.83q.43-.02.48-.38.03-.29-.42-.38l2.55-12.34q.7.09 1.14.35m-.94 10.38a.49.49 0 0 0-.49-.49.49.49 0 0 0-.49.49.49.49 0 0 0 .49.49.49.49 0 0 0 .49-.49m.246 3.663a.83.69 107.1 0 0 .904-.59.83.69 107.1 0 0-.416-.996.83.69 107.1 0 0-.904.59.83.69 107.1 0 0 .416.996m-3.296 3.297q.56 1 1.72 1.4.27.09.36-.17l.09-.27q.11-.33-.21-.49-.83-.41-1.16-1.22l-.15-.83q-.06-.36-.42-.44-.2-.04-.32.12-.17.2-.15.48.04.69.24 1.42m6.57 3.58q-.43-.54-1.03-.86-.75-.4-.26.3l.92 1.34q.24.35.56.07.13-.1.22-.24.12-.2-.03-.38-.16-.18-.38-.23m-2.08.77q-.18-.22-.45-.31-.51-.16-.35.35.28.92 1.3.92.54 0 .31-.49-.11-.26-.38-.27-.26 0-.43-.2"/><path fill="#06050d" d="M300.45 204.78q-.37.15-.73.15-.46 0-.57-.33-.16-.44.44-1.09zM300.77 207.54q-.03.2-.01.34-1.29.31-1.7-.66-.27-.67 0-1.05.37-.51.74.01z"/><circle cx="297.42" cy="206.52" r=".49" fill="#06050d"/><path fill="#9ea290" d="M302.15 207.42q2.3 4.78 2.78 10.22l-2.89-2.2q-.4-.3-.87-.4-1.5-.33-2.61-1.11.35-.03.51-.27.11-.18.03-.32-.09-.16-.35-.19.79-.34 1.25-1.17.29-.51.82-.25l.26.13q.87.43.62-.51l-.94-3.47q-.02-.14.01-.34.36.04.52.29.21.32.51.06.19-.16.35-.47"/><path fill="#06050d" d="M295.16 208.13q.45.09.42.38-.05.36-.48.38-.08-.33.06-.76"/><ellipse fill="#06050d" rx=".83" ry=".69" transform="rotate(107.1 71.871 214.896)"/><path fill="#969c89" d="M295.66 212.73q-.33-.14-.59.11-.24.23-.21.64-.2-.73-.24-1.42-.02-.28.15-.48.12-.16.32-.12.36.08.42.44z"/><path fill="#b93ea4" d="M295.66 212.73q.33.81 1.16 1.22.32.16.21.49l-.09.27q-.09.26-.36.17-1.16-.4-1.72-1.4-.03-.41.21-.64.26-.25.59-.11"/><path fill="#969c89" d="M298.75 213.15q.26.03.35.19.08.14-.03.32-.16.24-.51.27-.4 0-.52-.2-.13-.22.08-.41.21-.2.63-.17M293.81 213.72q.01 1.49.9 2.47.35.39 0 .79-.17.2-.42.28-.52.16-.53-.38-.03-1.17-.63-1.07-.02-1.19.68-2.09M297.07 217.1q-.55-.02-1.05.13l.08-.8q.05-.56.58-.39.22.07.36.31.19.34.03.75"/><path fill="#06050d" d="M301.43 217.06q.22.05.38.23.15.18.03.38-.09.14-.22.24-.32.28-.56-.07l-.92-1.34q-.49-.7.26-.3.6.32 1.03.86"/><path fill="#b93ea4" d="M297.07 217.1q-.1.93-1.04 1.34l-.26-.56.25-.65q.5-.15 1.05-.13"/><path fill="#06050d" d="M292.67 217.31q.17 1.57-.4 1.71-.24-.63.4-1.71"/><path fill="#2a21b7" d="M299.78 218.03q.27.01.38.27.23.49-.31.49-1.02 0-1.3-.92-.16-.51.35-.35.27.09.45.31.17.2.43.2"/><path fill="#06050d" d="m295.77 217.88.26.56q-.82.69-1.26 1.61l-1.61-.37q1.58-.74 2.61-1.8"/><path fill="#b93ea4" d="m304.9 219.95.03 1.14q-1.79-.8-1.81-2.87 0-.17.17-.17h.38q.27 0 .21.27-.38 1.56 1.02 1.63"/><path fill="#06050d" d="M297.04 221.38q-.34-.12-.43-.37.11-.64.63-.87a.47.47 0 0 1 .66.52q-.14.73-.86.72M300.76 224.06l-2.5-1.99q2.23-.18 2.5 1.99M291.38 224.97q-.24-.44 0-.97.33-.06.42.27.17.6-.42.7M304.88 224.54q.04.38-.05.65z"/><path fill="#211a45" d="m302.97 226.98-1.21-1.78q1.76-.51 1.21 1.78"/><path fill="#06050d" d="M292.39 228.27q2.31 3.2 2.61 7.05-1.23-.93-2.06-2.29l.56-1.14q.22-.44-.23-.63-.73-.31-1.56-.31-.04-.87-.6-.75-.07-.65.15-1.15.72-.29 1.13-.78"/><path fill="#dadece" d="M291.71 230.95q.05 1.88 1.23 2.08.83 1.36 2.06 2.29l.11.66-1.38.7q-.58.29-1.02-.18-.41-.44-1.03-.49-.79-.06-.43-.77.07-.14.19-.21.45-.25.46-.76.03-1.44-1.37-1.59.53-1.16.58-2.48.56-.12.6.75"/><path fill="#b93ea4" d="M292.94 233.03q-1.18-.2-1.23-2.08.83 0 1.56.31.45.19.23.63z"/><path fill="#06050d" d="m295.11 235.98.11 1.06q-.84-.13-1.06.35-.15.32.14.53.11.07.21.16.52.46-.1.78-.2.1-.31.29-.35.61.32.81l1.23.36v1.11l-1.96-1.08q-.64-.35-.77.37-.03.13-.1.25-.12.22-.35.13-.15-.06-.21-.2-.19-.4.14-.7.86-.81.76-2.21a.85.85 0 0 0-.47-.71l-2.63-1.36.09-1.38q.11.44.21.41a.45.44 72.1 0 0 .29-.58q-.11-.3-.36-.25-.04-.73.24-1.44 1.4.15 1.37 1.59-.01.51-.46.76-.12.07-.19.21-.36.71.43.77.62.05 1.03.49.44.47 1.02.18z"/><path fill="#969c89" d="M290.15 234.54q0-.23.14-.42.25-.05.36.25a.45.44 72.1 0 1-.29.58q-.1.03-.21-.41"/><path fill="#b2b799" d="M295.65 241.43q.23 3.26-.57 5.69-.88 2.63-2.04.12l-1.38-2.99q.46-.5-.18-1.07-.23-.21-.39.05l-1.18-1.28q-.4-.43-.7.07-.46.76-.49 2.04-.16.18-.13.64l-.3 1.76q-.31.37-.37.72-.1.59.5.68.37.05.84-.11 2.34 3.47 1.49 7.57a.45.44-59.9 0 1-.77.21q-1.29-1.47-2.53-2.87-1.43-1.62-.96-4.09.68-3.61 1.8-7.79.23-.86.79-1.49 1.34-.75.5-2.17l.48-1.2 2.63 1.36a.85.85 0 0 1 .47.71q.1 1.4-.76 2.21-.33.3-.14.7.06.14.21.2.23.09.35-.13.07-.12.1-.25.13-.72.77-.37zm-4.5-2.74q.16.25.47.21a.29.29 0 0 0 .24-.41q-.11-.26-.42-.28a.32.32 0 0 0-.29.48m-.17 1.91a.44.44 0 0 0-.5-.52q-.65.1-.58.84a.41.4-8.1 0 0 .47.35q.49-.09.61-.67m3.3 3.67.84-.54q.65-.42-.09-.65-.58-.17-1.01.22-.26.23-.32.58-.17.88.58.39m-5.045 5.418a1.17.52 5.3 0 0-1.117-.626 1.17.52 5.3 0 0-1.213.41 1.17.52 5.3 0 0 1.117.626 1.17.52 5.3 0 0 1.213-.41"/><path fill="#211a45" d="M289.58 237.12q.84 1.42-.5 2.17-.01-1.13.5-2.17"/><path fill="#cfd5c1" d="m295.22 237.04.08.45q-.2.66.1.79l.25 2.04-1.23-.36q-.67-.2-.32-.81.11-.19.31-.29.62-.32.1-.78-.1-.09-.21-.16-.29-.21-.14-.53.22-.48 1.06-.35"/><path fill="#969c89" d="M295.4 238.28q-.3-.13-.1-.79.24.31.1.79M291.15 238.69a.32.32 0 0 1 .29-.48q.31.02.42.28a.29.29 0 0 1-.24.41q-.31.04-.47-.21"/><path fill="#211a45" d="M290.98 240.6q-.12.58-.61.67a.41.4-8.1 0 1-.47-.35q-.07-.74.58-.84a.44.44 0 0 1 .5.52"/><path fill="#06050d" d="M293.7 243.88q.06-.35.32-.58.43-.39 1.01-.22.74.23.09.65l-.84.54q-.75.49-.58-.39"/><path fill="#969c89" d="M291.66 244.25q-.45-.37-.57-1.02.16-.26.39-.05.64.57.18 1.07"/><path fill="#06050d" d="m288.72 244.06-.13.64q-.03-.46.13-.64"/><path fill="#211a45" d="M289.26 247.75q-.47.16-.84.11-.6-.09-.5-.68.06-.35.37-.72z"/><ellipse fill="#211a45" rx="1.17" ry=".52" transform="rotate(5.3 -2552.132 3236.757)"/></svg>