<?xml version="1.0" encoding="UTF-8" standalone="no"?>
<!DOCTYPE svg PUBLIC "-//W3C//DTD SVG 1.1//EN" "http://www.w3.org/Graphics/SVG/1.1/DTD/svg11.dtd">
<svg xmlns="http://www.w3.org/2000/svg" version="1.1" viewBox="0.00 0.00 1592.00 1592.00" width="1592.00" height="1592.00">
<g stroke-width="2.00" fill="none" stroke-linecap="butt">
<path stroke="#6f1308" vector-effect="non-scaling-stroke" d="
  M 1058.07 278.80
  L 1058.34 275.86
  A 0.79 0.58 -86.5 0 0 1057.79 275.01
  L 1050.50 274.98
  A 0.81 0.58 89.3 0 0 1049.93 275.80
  L 1050.07 282.18"
/>
<path stroke="#6f1308" vector-effect="non-scaling-stroke" d="
  M 1047.20 283.41
  L 1038.06 283.26
  Q 1037.49 283.25 1037.51 282.71
  L 1037.58 279.53
  Q 1037.59 279.02 1037.04 279.02
  L 1033.73 279.00
  Q 1033.22 278.99 1033.22 279.51
  L 1033.26 287.01
  Q 1033.26 287.55 1032.74 287.53
  L 1029.75 287.47
  Q 1029.00 287.45 1028.99 288.21
  L 1028.98 290.77
  Q 1028.97 291.66 1029.84 291.49
  Q 1031.03 291.27 1032.58 291.70"
/>
<path stroke="#6f1308" vector-effect="non-scaling-stroke" d="
  M 1020.24 300.13
  Q 1018.54 299.85 1016.98 300.17
  Q 1016.47 300.27 1016.49 300.77
  L 1016.59 303.32
  Q 1016.61 303.98 1015.94 303.99
  L 1013.26 304.06
  Q 1012.47 304.08 1012.47 303.27
  L 1012.52 291.97
  Q 1012.52 291.44 1011.95 291.45
  L 1008.74 291.51
  Q 1008.29 291.52 1008.29 291.99
  L 1008.27 295.26
  Q 1008.27 295.78 1007.75 295.78
  L 1000.64 295.74
  Q 1000.02 295.74 1000.01 296.36
  L 1000.00 299.18
  Q 999.99 299.90 1000.70 299.92
  L 1003.28 300.01
  Q 1004.01 300.03 1004.02 300.75
  L 1004.03 303.09
  Q 1004.03 304.01 1003.13 304.01
  L 996.26 304.05
  Q 995.71 304.05 995.71 303.51
  L 995.76 292.00
  Q 995.76 291.50 995.25 291.50
  L 992.26 291.54
  A 0.77 0.75 -0.7 0 1 991.48 290.80
  L 991.46 288.24
  Q 991.45 287.44 992.23 287.44
  L 995.16 287.45
  Q 995.74 287.45 995.74 286.85
  L 995.76 283.93
  Q 995.76 283.32 995.17 283.31
  L 987.99 283.26
  Q 987.47 283.25 987.48 282.74
  L 987.53 275.90
  Q 987.54 275.01 986.81 275.01
  L 983.98 274.99
  Q 983.21 274.99 983.24 275.86
  L 983.31 278.31
  Q 983.33 278.97 982.66 278.98
  L 979.72 279.01
  Q 978.99 279.01 979.00 279.74
  L 979.06 282.49
  Q 979.07 283.17 979.72 283.19
  L 982.70 283.25
  A 0.67 0.66 -89.2 0 1 983.34 283.92
  L 983.32 286.73
  Q 983.31 287.51 982.55 287.53
  L 979.91 287.60
  A 0.70 0.68 4.0 0 0 979.24 288.17
  L 978.82 290.58
  Q 978.73 291.12 978.24 291.20
  Q 974.40 291.82 971.81 291.72
  Q 970.72 291.68 970.75 294.67
  A 1.05 1.05 0.0 0 1 969.73 295.73
  L 967.44 295.80
  Q 966.51 295.83 966.46 294.94
  L 966.32 292.44
  Q 966.29 291.89 965.76 291.76
  Q 964.48 291.47 963.35 291.71
  Q 962.79 291.83 962.77 292.41
  L 962.42 299.53
  Q 962.40 299.98 961.96 299.99
  L 958.97 300.04
  A 0.69 0.68 -0.6 0 0 958.29 300.72
  L 958.30 303.28
  A 0.65 0.64 88.6 0 1 957.69 303.92
  L 954.70 304.06
  A 0.79 0.74 89.1 0 0 954.00 304.83
  L 953.94 309.92"
/>
<path stroke="#6f1308" vector-effect="non-scaling-stroke" d="
  M 916.67 294.44
  L 916.48 288.11"
/>
<path stroke="#6f1308" vector-effect="non-scaling-stroke" d="
  M 1056.79 279.20
  Q 1053.65 278.51 1054.05 280.42"
/>
<path stroke="#6f1308" vector-effect="non-scaling-stroke" d="
  M 908.49 255.66
  Q 908.10 256.31 908.23 257.71
  Q 908.28 258.27 907.72 258.26
  L 904.64 258.22
  Q 904.05 258.22 904.04 258.83
  L 904.00 262.01
  Q 904.00 262.58 903.47 262.55
  L 900.84 262.42
  Q 900.00 262.38 900.00 263.34
  L 900.01 270.03
  Q 900.01 270.79 900.75 270.79
  L 911.86 270.74
  Q 912.45 270.74 912.46 271.36
  L 912.50 274.01"
/>
<path stroke="#6f1308" vector-effect="non-scaling-stroke" d="
  M 910.25 275.21
  Q 909.22 274.89 908.54 275.34
  Q 908.14 275.60 908.32 276.50"
/>
<path stroke="#6f1308" vector-effect="non-scaling-stroke" d="
  M 1057.69 308.24
  L 1061.68 308.19
  A 0.83 0.83 0.0 0 1 1062.52 309.02
  L 1062.51 311.72
  Q 1062.51 312.44 1061.84 312.44
  L 1058.76 312.44
  Q 1058.19 312.44 1058.18 313.00
  L 1058.14 315.99
  A 0.60 0.60 0.0 0 0 1058.75 316.60
  L 1066.00 316.49
  A 0.50 0.50 0.0 0 1 1066.50 316.99
  L 1066.50 328.50
  Q 1066.49 329.00 1066.00 328.99
  L 1058.98 328.95
  Q 1058.17 328.95 1058.18 329.74
  L 1058.22 336.77
  Q 1058.23 337.58 1058.99 337.57
  L 1061.87 337.51
  Q 1062.42 337.50 1062.41 338.11
  L 1062.36 344.26"
/>
<path stroke="#6f1308" vector-effect="non-scaling-stroke" d="
  M 1283.44 378.68
  L 1283.18 382.79
  Q 1283.15 383.25 1282.70 383.25
  L 1275.53 383.21
  Q 1275.01 383.21 1275.01 383.73
  L 1274.98 399.38
  Q 1274.98 399.98 1274.33 399.98
  L 1271.36 399.98
  A 0.64 0.64 0.0 0 1 1270.72 399.35
  L 1270.64 396.32
  Q 1270.63 395.76 1270.07 395.76
  L 1267.29 395.73
  Q 1266.57 395.73 1266.55 395.03
  L 1266.45 392.16
  Q 1266.43 391.63 1265.91 391.61
  L 1263.37 391.53
  A 0.70 0.69 -0.3 0 1 1262.69 390.87
  L 1262.39 383.66
  Q 1262.37 383.22 1261.93 383.23
  L 1258.80 383.30
  Q 1258.29 383.31 1258.28 382.80
  L 1258.22 379.54
  Q 1258.22 379.04 1258.71 379.04
  L 1261.89 379.02
  Q 1262.49 379.01 1262.50 378.38
  L 1262.55 375.53
  A 0.52 0.52 0.0 0 0 1262.03 374.99
  L 1250.64 375.00
  A 0.62 0.61 -0.1 0 1 1250.02 374.40
  L 1250.00 367.23
  Q 1250.00 366.47 1249.23 366.47
  L 1246.34 366.47
  Q 1245.71 366.47 1245.72 367.13
  L 1245.78 374.47
  Q 1245.79 375.01 1245.28 375.00
  L 1242.47 374.99
  Q 1241.56 374.99 1241.56 375.97
  L 1241.56 382.21
  Q 1241.56 383.10 1242.47 383.14
  L 1244.94 383.26
  Q 1245.81 383.30 1245.79 383.81
  L 1245.67 386.74
  Q 1245.64 387.54 1244.79 387.55
  L 1242.48 387.58
  Q 1241.92 387.59 1241.92 388.18
  Q 1241.94 390.46 1240.83 395.23
  Q 1240.73 395.68 1240.23 395.75
  L 1238.51 395.97
  Q 1237.97 396.04 1237.92 396.51
  L 1237.64 399.24
  A 0.71 0.70 -0.0 0 1 1237.00 399.86
  L 1234.19 400.14
  A 0.97 0.95 -1.5 0 0 1233.31 401.05
  L 1233.22 402.94
  A 0.79 0.79 0.0 0 0 1233.91 403.77
  L 1236.86 404.12
  Q 1237.62 404.21 1237.59 405.01
  L 1237.49 407.45
  Q 1237.46 408.30 1236.56 408.29
  L 1229.54 408.26
  Q 1229.09 408.26 1229.06 407.79
  L 1228.88 404.91
  Q 1228.82 403.98 1227.93 404.00
  L 1225.87 404.07
  A 0.80 0.75 0.7 0 0 1225.10 404.77
  L 1224.93 407.62
  Q 1224.89 408.25 1224.28 408.27
  L 1221.83 408.37
  Q 1220.91 408.41 1220.90 409.31
  L 1220.73 428.51
  Q 1220.72 429.02 1220.24 429.02
  L 1217.31 428.98
  Q 1216.46 428.96 1216.46 429.88
  L 1216.51 436.73
  Q 1216.51 437.72 1217.48 437.50
  Q 1218.57 437.24 1220.56 437.68"
/>
<path stroke="#6f1308" vector-effect="non-scaling-stroke" d="
  M 1216.48 448.59
  Q 1216.20 450.72 1220.81 449.71"
/>
<path stroke="#6f1308" vector-effect="non-scaling-stroke" d="
  M 1225.19 450.74
  L 1224.97 453.80"
/>
<path stroke="#6f1308" vector-effect="non-scaling-stroke" d="
  M 1229.00 451.48
  Q 1229.43 454.33 1227.71 454.44"
/>
<path stroke="#6f1308" vector-effect="non-scaling-stroke" d="
  M 1287.37 380.97
  L 1287.48 382.61
  Q 1287.52 383.14 1288.05 383.21
  Q 1289.35 383.38 1290.82 383.05"
/>
<path stroke="#6f1308" vector-effect="non-scaling-stroke" d="
  M 1237.65 452.06
  Q 1237.27 453.99 1237.58 456.38"
/>
<path stroke="#6f1308" vector-effect="non-scaling-stroke" d="
  M 1310.43 799.81
  Q 1309.49 799.84 1308.79 800.18
  Q 1308.31 800.42 1308.30 800.99
  L 1308.28 807.25
  Q 1308.27 808.25 1307.29 808.25
  L 1301.10 808.29
  Q 1300.02 808.30 1300.00 807.39
  L 1299.95 804.59
  A 0.64 0.63 -0.1 0 0 1299.32 803.97
  L 1296.31 803.93
  Q 1295.69 803.92 1295.70 803.33
  L 1295.73 800.71
  A 0.61 0.60 2.7 0 0 1295.17 800.10
  L 1292.20 799.86
  A 0.62 0.62 0.0 0 1 1291.63 799.21
  Q 1291.97 793.51 1291.24 787.98
  Q 1291.18 787.48 1290.68 787.42
  Q 1289.02 787.20 1287.84 787.87
  A 0.92 0.92 0.0 0 0 1287.37 788.72
  Q 1287.51 791.62 1284.85 791.48
  Q 1283.60 791.42 1283.53 792.73
  L 1283.21 798.61
  Q 1283.15 799.86 1284.38 799.97
  L 1286.69 800.19
  Q 1287.24 800.24 1287.38 800.77
  Q 1287.72 802.02 1287.48 803.24
  Q 1287.38 803.72 1286.87 803.77
  L 1283.68 804.07
  Q 1283.22 804.12 1283.21 804.58
  L 1283.21 807.46
  Q 1283.20 808.23 1283.97 808.26
  L 1286.80 808.36
  Q 1287.47 808.38 1287.48 809.07
  L 1287.51 811.78
  Q 1287.52 812.53 1286.78 812.52
  L 1283.67 812.49
  A 0.47 0.42 89.8 0 0 1283.24 812.97
  L 1283.29 815.99
  A 0.52 0.48 -0.3 0 1 1282.77 816.48
  L 1279.65 816.47
  Q 1279.01 816.47 1279.01 816.60
  L 1279.02 820.63
  A 0.62 0.15 -0.3 0 0 1279.64 820.77
  L 1282.74 820.76
  A 0.47 0.47 0.0 0 1 1283.21 821.25
  L 1283.04 824.74"
/>
<path stroke="#6f1308" vector-effect="non-scaling-stroke" d="
  M 1211.74 1062.49
  L 1208.94 1062.46
  Q 1208.30 1062.46 1208.29 1061.81
  L 1208.25 1058.97
  Q 1208.25 1058.44 1207.72 1058.35
  Q 1205.72 1058.01 1203.70 1058.55"
/>
<path stroke="#6f1308" vector-effect="non-scaling-stroke" d="
  M 1199.92 1054.19
  L 1199.89 1050.68
  Q 1199.88 1050.13 1199.34 1050.11
  L 1195.68 1049.96"
/>
<path stroke="#6f1308" vector-effect="non-scaling-stroke" d="
  M 1195.42 1048.77
  Q 1195.27 1047.44 1195.81 1046.17
  Q 1196.00 1045.72 1196.48 1045.72
  L 1199.48 1045.75
  Q 1200.00 1045.75 1200.00 1045.25
  L 1200.00 1033.73
  Q 1200.00 1033.20 1199.49 1033.21
  L 1196.26 1033.27
  Q 1195.81 1033.28 1195.80 1033.74
  L 1195.72 1036.68
  Q 1195.71 1037.07 1195.35 1037.27
  L 1193.51 1038.29"
/>
</g>
<path fill="#dd2610" d="
  M 1058.07 278.80
  L 1058.34 275.86
  A 0.79 0.58 -86.5 0 0 1057.79 275.01
  L 1050.50 274.98
  A 0.81 0.58 89.3 0 0 1049.93 275.80
  L 1050.07 282.18
  Q 1048.53 283.12 1047.20 283.41
  L 1038.06 283.26
  Q 1037.49 283.25 1037.51 282.71
  L 1037.58 279.53
  Q 1037.59 279.02 1037.04 279.02
  L 1033.73 279.00
  Q 1033.22 278.99 1033.22 279.51
  L 1033.26 287.01
  Q 1033.26 287.55 1032.74 287.53
  L 1029.75 287.47
  Q 1029.00 287.45 1028.99 288.21
  L 1028.98 290.77
  Q 1028.97 291.66 1029.84 291.49
  Q 1031.03 291.27 1032.58 291.70
  L 1020.24 300.13
  Q 1018.54 299.85 1016.98 300.17
  Q 1016.47 300.27 1016.49 300.77
  L 1016.59 303.32
  Q 1016.61 303.98 1015.94 303.99
  L 1013.26 304.06
  Q 1012.47 304.08 1012.47 303.27
  L 1012.52 291.97
  Q 1012.52 291.44 1011.95 291.45
  L 1008.74 291.51
  Q 1008.29 291.52 1008.29 291.99
  L 1008.27 295.26
  Q 1008.27 295.78 1007.75 295.78
  L 1000.64 295.74
  Q 1000.02 295.74 1000.01 296.36
  L 1000.00 299.18
  Q 999.99 299.90 1000.70 299.92
  L 1003.28 300.01
  Q 1004.01 300.03 1004.02 300.75
  L 1004.03 303.09
  Q 1004.03 304.01 1003.13 304.01
  L 996.26 304.05
  Q 995.71 304.05 995.71 303.51
  L 995.76 292.00
  Q 995.76 291.50 995.25 291.50
  L 992.26 291.54
  A 0.77 0.75 -0.7 0 1 991.48 290.80
  L 991.46 288.24
  Q 991.45 287.44 992.23 287.44
  L 995.16 287.45
  Q 995.74 287.45 995.74 286.85
  L 995.76 283.93
  Q 995.76 283.32 995.17 283.31
  L 987.99 283.26
  Q 987.47 283.25 987.48 282.74
  L 987.53 275.90
  Q 987.54 275.01 986.81 275.01
  L 983.98 274.99
  Q 983.21 274.99 983.24 275.86
  L 983.31 278.31
  Q 983.33 278.97 982.66 278.98
  L 979.72 279.01
  Q 978.99 279.01 979.00 279.74
  L 979.06 282.49
  Q 979.07 283.17 979.72 283.19
  L 982.70 283.25
  A 0.67 0.66 -89.2 0 1 983.34 283.92
  L 983.32 286.73
  Q 983.31 287.51 982.55 287.53
  L 979.91 287.60
  A 0.70 0.68 4.0 0 0 979.24 288.17
  L 978.82 290.58
  Q 978.73 291.12 978.24 291.20
  Q 974.40 291.82 971.81 291.72
  Q 970.72 291.68 970.75 294.67
  A 1.05 1.05 0.0 0 1 969.73 295.73
  L 967.44 295.80
  Q 966.51 295.83 966.46 294.94
  L 966.32 292.44
  Q 966.29 291.89 965.76 291.76
  Q 964.48 291.47 963.35 291.71
  Q 962.79 291.83 962.77 292.41
  L 962.42 299.53
  Q 962.40 299.98 961.96 299.99
  L 958.97 300.04
  A 0.69 0.68 -0.6 0 0 958.29 300.72
  L 958.30 303.28
  A 0.65 0.64 88.6 0 1 957.69 303.92
  L 954.70 304.06
  A 0.79 0.74 89.1 0 0 954.00 304.83
  L 953.94 309.92
  Q 947.35 306.08 941.61 302.41
  Q 934.41 297.81 926.22 295.05
  Q 923.90 294.26 921.56 294.82
  Q 921.06 294.94 920.57 294.77
  Q 918.63 294.13 916.67 294.44
  L 916.48 288.11
  L 918.59 288.40
  A 0.95 0.95 0.0 0 0 919.43 288.10
  Q 935.12 270.86 956.18 261.91
  Q 981.91 250.97 1012.05 250.10
  Q 1014.63 250.02 1025.70 249.95
  Q 1034.14 249.90 1039.32 250.48
  Q 1047.94 251.44 1054.09 251.67
  Q 1059.54 251.87 1065.87 253.62
  Q 1080.98 257.79 1095.47 263.40
  Q 1095.95 263.59 1096.14 264.06
  Q 1097.15 266.65 1095.69 268.80
  Q 1095.41 269.20 1094.92 269.24
  Q 1091.64 269.49 1088.70 270.37
  Q 1086.22 271.11 1082.65 271.71
  Q 1069.99 273.84 1058.07 278.80
  Z"
/>
<path fill="#000000" d="
  M 908.49 255.66
  Q 908.10 256.31 908.23 257.71
  Q 908.28 258.27 907.72 258.26
  L 904.64 258.22
  Q 904.05 258.22 904.04 258.83
  L 904.00 262.01
  Q 904.00 262.58 903.47 262.55
  L 900.84 262.42
  Q 900.00 262.38 900.00 263.34
  L 900.01 270.03
  Q 900.01 270.79 900.75 270.79
  L 911.86 270.74
  Q 912.45 270.74 912.46 271.36
  L 912.50 274.01
  L 910.25 275.21
  Q 909.22 274.89 908.54 275.34
  Q 908.14 275.60 908.32 276.50
  Q 902.06 280.21 897.21 285.48
  A 0.31 0.31 0.0 0 0 897.40 286.00
  L 916.48 288.11
  L 916.67 294.44
  Q 916.03 295.83 914.01 295.43
  Q 909.15 294.48 905.53 293.60
  Q 904.55 293.36 903.74 294.29
  Q 903.41 294.67 902.90 294.72
  Q 901.30 294.91 899.88 294.35
  Q 899.41 294.17 899.07 294.53
  L 898.27 295.36
  A 0.78 0.74 -58.2 0 1 897.48 295.57
  C 893.45 294.23 889.92 291.73 885.10 292.38
  Q 882.45 292.74 873.35 295.33
  Q 869.55 296.41 858.52 296.71
  Q 854.10 296.83 844.19 295.51
  Q 835.83 294.40 831.77 294.81
  C 822.64 295.71 813.18 299.55 804.85 303.12
  C 798.80 305.71 791.96 306.98 784.94 308.81
  C 782.92 309.34 780.68 310.43 779.03 311.08
  Q 778.58 311.25 778.15 311.04
  Q 775.69 309.86 773.85 309.75
  Q 773.06 309.70 773.50 309.19
  Q 773.86 308.77 773.39 307.94
  Q 773.12 307.44 773.47 307.00
  Q 781.69 296.91 789.09 288.85
  Q 799.12 277.92 810.63 270.38
  Q 815.59 267.14 821.46 264.95
  Q 839.37 258.28 860.01 256.33
  Q 884.25 254.05 908.49 255.66
  Z"
/>
<path fill="#dd2610" d="
  M 912.50 274.01
  L 912.46 271.36
  Q 912.45 270.74 911.86 270.74
  L 900.75 270.79
  Q 900.01 270.79 900.01 270.03
  L 900.00 263.34
  Q 900.00 262.38 900.84 262.42
  L 903.47 262.55
  Q 904.00 262.58 904.00 262.01
  L 904.04 258.83
  Q 904.05 258.22 904.64 258.22
  L 907.72 258.26
  Q 908.28 258.27 908.23 257.71
  Q 908.10 256.31 908.49 255.66
  Q 928.96 256.64 938.50 257.49
  Q 940.25 257.65 941.45 259.28
  Q 941.75 259.69 941.29 259.89
  Q 936.18 262.15 932.38 264.20
  C 930.02 265.48 926.54 266.14 924.13 267.36
  Q 920.06 269.43 912.50 274.01
  Z"
/>
<path fill="#dd2610" d="
  M 910.25 275.21
  L 908.32 276.50
  Q 908.14 275.60 908.54 275.34
  Q 909.22 274.89 910.25 275.21
  Z"
/>
<path fill="#000000" d="
  M 1020.24 300.13
  L 1018.46 301.47
  Q 1017.37 302.29 1018.49 303.07
  Q 1023.17 306.34 1028.73 309.85
  C 1029.65 310.43 1030.15 311.04 1030.33 312.04
  Q 1030.43 312.57 1030.89 312.82
  L 1041.63 318.63
  A 0.87 0.85 36.7 0 0 1042.64 318.49
  Q 1049.19 312.03 1057.69 308.24
  L 1061.68 308.19
  A 0.83 0.83 0.0 0 1 1062.52 309.02
  L 1062.51 311.72
  Q 1062.51 312.44 1061.84 312.44
  L 1058.76 312.44
  Q 1058.19 312.44 1058.18 313.00
  L 1058.14 315.99
  A 0.60 0.60 0.0 0 0 1058.75 316.60
  L 1066.00 316.49
  A 0.50 0.50 0.0 0 1 1066.50 316.99
  L 1066.50 328.50
  Q 1066.49 329.00 1066.00 328.99
  L 1058.98 328.95
  Q 1058.17 328.95 1058.18 329.74
  L 1058.22 336.77
  Q 1058.23 337.58 1058.99 337.57
  L 1061.87 337.51
  Q 1062.42 337.50 1062.41 338.11
  L 1062.36 344.26
  Q 1057.42 340.32 1053.00 336.07
  Q 1051.06 334.20 1048.12 332.04
  Q 1043.29 328.47 1041.19 322.46
  Q 1041.01 321.93 1040.52 321.66
  Q 1029.02 315.30 1023.20 312.38
  Q 1015.40 308.45 1010.82 307.19
  Q 1005.20 305.64 999.96 307.94
  Q 997.23 309.13 995.61 309.06
  Q 992.66 308.93 989.68 308.57
  Q 989.14 308.50 988.71 308.83
  Q 985.32 311.41 981.42 310.61
  Q 979.40 310.20 977.13 310.57
  Q 972.67 311.31 970.67 311.87
  Q 967.14 312.85 964.21 312.82
  Q 957.91 312.76 953.94 309.92
  L 954.00 304.83
  A 0.79 0.74 89.1 0 1 954.70 304.06
  L 957.69 303.92
  A 0.65 0.64 88.6 0 0 958.30 303.28
  L 958.29 300.72
  A 0.69 0.68 -0.6 0 1 958.97 300.04
  L 961.96 299.99
  Q 962.40 299.98 962.42 299.53
  L 962.77 292.41
  Q 962.79 291.83 963.35 291.71
  Q 964.48 291.47 965.76 291.76
  Q 966.29 291.89 966.32 292.44
  L 966.46 294.94
  Q 966.51 295.83 967.44 295.80
  L 969.73 295.73
  A 1.05 1.05 0.0 0 0 970.75 294.67
  Q 970.72 291.68 971.81 291.72
  Q 974.40 291.82 978.24 291.20
  Q 978.73 291.12 978.82 290.58
  L 979.24 288.17
  A 0.70 0.68 4.0 0 1 979.91 287.60
  L 982.55 287.53
  Q 983.31 287.51 983.32 286.73
  L 983.34 283.92
  A 0.67 0.66 -89.2 0 0 982.70 283.25
  L 979.72 283.19
  Q 979.07 283.17 979.06 282.49
  L 979.00 279.74
  Q 978.99 279.01 979.72 279.01
  L 982.66 278.98
  Q 983.33 278.97 983.31 278.31
  L 983.24 275.86
  Q 983.21 274.99 983.98 274.99
  L 986.81 275.01
  Q 987.54 275.01 987.53 275.90
  L 987.48 282.74
  Q 987.47 283.25 987.99 283.26
  L 995.17 283.31
  Q 995.76 283.32 995.76 283.93
  L 995.74 286.85
  Q 995.74 287.45 995.16 287.45
  L 992.23 287.44
  Q 991.45 287.44 991.46 288.24
  L 991.48 290.80
  A 0.77 0.75 -0.7 0 0 992.26 291.54
  L 995.25 291.50
  Q 995.76 291.50 995.76 292.00
  L 995.71 303.51
  Q 995.71 304.05 996.26 304.05
  L 1003.13 304.01
  Q 1004.03 304.01 1004.03 303.09
  L 1004.02 300.75
  Q 1004.01 300.03 1003.28 300.01
  L 1000.70 299.92
  Q 999.99 299.90 1000.00 299.18
  L 1000.01 296.36
  Q 1000.02 295.74 1000.64 295.74
  L 1007.75 295.78
  Q 1008.27 295.78 1008.27 295.26
  L 1008.29 291.99
  Q 1008.29 291.52 1008.74 291.51
  L 1011.95 291.45
  Q 1012.52 291.44 1012.52 291.97
  L 1012.47 303.27
  Q 1012.47 304.08 1013.26 304.06
  L 1015.94 303.99
  Q 1016.61 303.98 1016.59 303.32
  L 1016.49 300.77
  Q 1016.47 300.27 1016.98 300.17
  Q 1018.54 299.85 1020.24 300.13
  Z"
/>
<path fill="#000000" d="
  M 1058.07 278.80
  L 1056.79 279.20
  Q 1053.65 278.51 1054.05 280.42
  L 1050.07 282.18
  L 1049.93 275.80
  A 0.81 0.58 89.3 0 1 1050.50 274.98
  L 1057.79 275.01
  A 0.79 0.58 -86.5 0 1 1058.34 275.86
  L 1058.07 278.80
  Z"
/>
<path fill="#000000" d="
  M 1047.20 283.41
  L 1032.58 291.70
  Q 1031.03 291.27 1029.84 291.49
  Q 1028.97 291.66 1028.98 290.77
  L 1028.99 288.21
  Q 1029.00 287.45 1029.75 287.47
  L 1032.74 287.53
  Q 1033.26 287.55 1033.26 287.01
  L 1033.22 279.51
  Q 1033.22 278.99 1033.73 279.00
  L 1037.04 279.02
  Q 1037.59 279.02 1037.58 279.53
  L 1037.51 282.71
  Q 1037.49 283.25 1038.06 283.26
  L 1047.20 283.41
  Z"
/>
<path fill="#dd2610" d="
  M 1056.79 279.20
  L 1054.05 280.42
  Q 1053.65 278.51 1056.79 279.20
  Z"
/>
<path fill="#dd2610" d="
  M 1283.44 378.68
  L 1283.18 382.79
  Q 1283.15 383.25 1282.70 383.25
  L 1275.53 383.21
  Q 1275.01 383.21 1275.01 383.73
  L 1274.98 399.38
  Q 1274.98 399.98 1274.33 399.98
  L 1271.36 399.98
  A 0.64 0.64 0.0 0 1 1270.72 399.35
  L 1270.64 396.32
  Q 1270.63 395.76 1270.07 395.76
  L 1267.29 395.73
  Q 1266.57 395.73 1266.55 395.03
  L 1266.45 392.16
  Q 1266.43 391.63 1265.91 391.61
  L 1263.37 391.53
  A 0.70 0.69 -0.3 0 1 1262.69 390.87
  L 1262.39 383.66
  Q 1262.37 383.22 1261.93 383.23
  L 1258.80 383.30
  Q 1258.29 383.31 1258.28 382.80
  L 1258.22 379.54
  Q 1258.22 379.04 1258.71 379.04
  L 1261.89 379.02
  Q 1262.49 379.01 1262.50 378.38
  L 1262.55 375.53
  A 0.52 0.52 0.0 0 0 1262.03 374.99
  L 1250.64 375.00
  A 0.62 0.61 -0.1 0 1 1250.02 374.40
  L 1250.00 367.23
  Q 1250.00 366.47 1249.23 366.47
  L 1246.34 366.47
  Q 1245.71 366.47 1245.72 367.13
  L 1245.78 374.47
  Q 1245.79 375.01 1245.28 375.00
  L 1242.47 374.99
  Q 1241.56 374.99 1241.56 375.97
  L 1241.56 382.21
  Q 1241.56 383.10 1242.47 383.14
  L 1244.94 383.26
  Q 1245.81 383.30 1245.79 383.81
  L 1245.67 386.74
  Q 1245.64 387.54 1244.79 387.55
  L 1242.48 387.58
  Q 1241.92 387.59 1241.92 388.18
  Q 1241.94 390.46 1240.83 395.23
  Q 1240.73 395.68 1240.23 395.75
  L 1238.51 395.97
  Q 1237.97 396.04 1237.92 396.51
  L 1237.64 399.24
  A 0.71 0.70 -0.0 0 1 1237.00 399.86
  L 1234.19 400.14
  A 0.97 0.95 -1.5 0 0 1233.31 401.05
  L 1233.22 402.94
  A 0.79 0.79 0.0 0 0 1233.91 403.77
  L 1236.86 404.12
  Q 1237.62 404.21 1237.59 405.01
  L 1237.49 407.45
  Q 1237.46 408.30 1236.56 408.29
  L 1229.54 408.26
  Q 1229.09 408.26 1229.06 407.79
  L 1228.88 404.91
  Q 1228.82 403.98 1227.93 404.00
  L 1225.87 404.07
  A 0.80 0.75 0.7 0 0 1225.10 404.77
  L 1224.93 407.62
  Q 1224.89 408.25 1224.28 408.27
  L 1221.83 408.37
  Q 1220.91 408.41 1220.90 409.31
  L 1220.73 428.51
  Q 1220.72 429.02 1220.24 429.02
  L 1217.31 428.98
  Q 1216.46 428.96 1216.46 429.88
  L 1216.51 436.73
  Q 1216.51 437.72 1217.48 437.50
  Q 1218.57 437.24 1220.56 437.68
  L 1210.00 444.24
  A 0.47 0.47 0.0 0 0 1210.02 445.05
  L 1216.48 448.59
  Q 1216.20 450.72 1220.81 449.71
  L 1225.19 450.74
  L 1224.97 453.80
  Q 1214.30 451.72 1205.17 445.87
  Q 1204.68 445.56 1204.60 445.19
  L 1204.52 444.78
  Q 1204.43 444.32 1203.82 444.13
  C 1196.93 442.07 1190.09 437.30 1187.31 430.45
  Q 1186.18 427.66 1184.63 421.15
  Q 1184.31 419.81 1182.54 417.03
  Q 1181.59 415.54 1178.96 414.36
  Q 1176.56 413.28 1173.78 411.27
  C 1169.57 408.23 1174.86 404.31 1176.08 401.46
  Q 1180.11 392.06 1179.60 384.31
  Q 1179.33 380.00 1176.65 372.66
  Q 1174.29 366.19 1168.48 363.65
  Q 1165.78 362.47 1163.23 363.22
  A 1.27 1.26 49.8 0 1 1162.32 363.15
  Q 1158.24 361.15 1155.39 360.17
  Q 1148.38 357.77 1136.43 354.48
  Q 1135.93 354.35 1135.48 354.62
  C 1135.01 354.89 1134.55 355.05 1134.13 355.01
  Q 1130.52 354.66 1124.79 352.71
  Q 1123.19 352.16 1120.30 351.78
  Q 1118.98 351.61 1115.80 352.26
  Q 1111.54 353.12 1106.50 353.46
  Q 1092.45 354.40 1075.01 354.23
  C 1071.37 354.19 1069.48 353.13 1067.15 350.14
  Q 1064.74 347.05 1062.36 344.26
  L 1062.41 338.11
  Q 1062.42 337.50 1061.87 337.51
  L 1058.99 337.57
  Q 1058.23 337.58 1058.22 336.77
  L 1058.18 329.74
  Q 1058.17 328.95 1058.98 328.95
  L 1066.00 328.99
  Q 1066.49 329.00 1066.50 328.50
  L 1066.50 316.99
  A 0.50 0.50 0.0 0 0 1066.00 316.49
  L 1058.75 316.60
  A 0.60 0.60 0.0 0 1 1058.14 315.99
  L 1058.18 313.00
  Q 1058.19 312.44 1058.76 312.44
  L 1061.84 312.44
  Q 1062.51 312.44 1062.51 311.72
  L 1062.52 309.02
  A 0.83 0.83 0.0 0 0 1061.68 308.19
  L 1057.69 308.24
  Q 1064.08 304.87 1070.43 301.70
  Q 1078.70 297.58 1085.36 295.46
  Q 1086.95 294.96 1100.80 290.74
  Q 1111.64 287.43 1116.51 286.56
  Q 1123.85 285.26 1134.39 283.36
  Q 1141.84 282.01 1149.01 282.20
  Q 1157.95 282.44 1158.00 282.44
  Q 1169.39 282.51 1171.00 282.77
  C 1190.20 285.89 1200.81 287.19 1214.97 292.12
  Q 1218.49 293.34 1217.57 296.94
  A 0.86 0.86 0.0 0 1 1216.92 297.57
  Q 1206.32 299.88 1195.56 303.95
  Q 1188.20 306.74 1177.57 312.58
  Q 1161.62 321.35 1157.15 324.15
  Q 1153.09 326.71 1143.07 335.07
  Q 1134.99 341.81 1128.14 347.34
  A 0.27 0.27 0.0 0 0 1128.23 347.81
  L 1135.15 349.93
  Q 1135.56 350.05 1135.94 350.44
  Q 1136.58 351.09 1137.44 351.35
  Q 1139.22 351.89 1153.24 356.05
  Q 1159.04 357.77 1164.20 360.59
  Q 1166.22 361.69 1167.18 360.36
  Q 1167.50 359.91 1168.03 360.07
  C 1169.05 360.36 1169.92 360.74 1171.35 360.57
  Q 1207.96 356.14 1242.48 363.50
  Q 1263.83 368.04 1283.44 378.68
  Z"
/>
<path fill="#000000" d="
  M 1283.44 378.68
  L 1287.37 380.97
  L 1287.48 382.61
  Q 1287.52 383.14 1288.05 383.21
  Q 1289.35 383.38 1290.82 383.05
  Q 1299.25 388.64 1312.22 400.04
  Q 1321.04 407.79 1326.61 418.46
  A 0.92 0.92 0.0 0 1 1326.04 419.78
  C 1325.17 420.02 1324.38 420.05 1323.49 419.69
  Q 1318.60 417.67 1315.03 417.18
  Q 1285.25 413.14 1255.82 421.84
  Q 1236.71 427.48 1220.56 437.68
  Q 1218.57 437.24 1217.48 437.50
  Q 1216.51 437.72 1216.51 436.73
  L 1216.46 429.88
  Q 1216.46 428.96 1217.31 428.98
  L 1220.24 429.02
  Q 1220.72 429.02 1220.73 428.51
  L 1220.90 409.31
  Q 1220.91 408.41 1221.83 408.37
  L 1224.28 408.27
  Q 1224.89 408.25 1224.93 407.62
  L 1225.10 404.77
  A 0.80 0.75 0.7 0 1 1225.87 404.07
  L 1227.93 404.00
  Q 1228.82 403.98 1228.88 404.91
  L 1229.06 407.79
  Q 1229.09 408.26 1229.54 408.26
  L 1236.56 408.29
  Q 1237.46 408.30 1237.49 407.45
  L 1237.59 405.01
  Q 1237.62 404.21 1236.86 404.12
  L 1233.91 403.77
  A 0.79 0.79 0.0 0 1 1233.22 402.94
  L 1233.31 401.05
  A 0.97 0.95 -1.5 0 1 1234.19 400.14
  L 1237.00 399.86
  A 0.71 0.70 -0.0 0 0 1237.64 399.24
  L 1237.92 396.51
  Q 1237.97 396.04 1238.51 395.97
  L 1240.23 395.75
  Q 1240.73 395.68 1240.83 395.23
  Q 1241.94 390.46 1241.92 388.18
  Q 1241.92 387.59 1242.48 387.58
  L 1244.79 387.55
  Q 1245.64 387.54 1245.67 386.74
  L 1245.79 383.81
  Q 1245.81 383.30 1244.94 383.26
  L 1242.47 383.14
  Q 1241.56 383.10 1241.56 382.21
  L 1241.56 375.97
  Q 1241.56 374.99 1242.47 374.99
  L 1245.28 375.00
  Q 1245.79 375.01 1245.78 374.47
  L 1245.72 367.13
  Q 1245.71 366.47 1246.34 366.47
  L 1249.23 366.47
  Q 1250.00 366.47 1250.00 367.23
  L 1250.02 374.40
  A 0.62 0.61 -0.1 0 0 1250.64 375.00
  L 1262.03 374.99
  A 0.52 0.52 0.0 0 1 1262.55 375.53
  L 1262.50 378.38
  Q 1262.49 379.01 1261.89 379.02
  L 1258.71 379.04
  Q 1258.22 379.04 1258.22 379.54
  L 1258.28 382.80
  Q 1258.29 383.31 1258.80 383.30
  L 1261.93 383.23
  Q 1262.37 383.22 1262.39 383.66
  L 1262.69 390.87
  A 0.70 0.69 -0.3 0 0 1263.37 391.53
  L 1265.91 391.61
  Q 1266.43 391.63 1266.45 392.16
  L 1266.55 395.03
  Q 1266.57 395.73 1267.29 395.73
  L 1270.07 395.76
  Q 1270.63 395.76 1270.64 396.32
  L 1270.72 399.35
  A 0.64 0.64 0.0 0 0 1271.36 399.98
  L 1274.33 399.98
  Q 1274.98 399.98 1274.98 399.38
  L 1275.01 383.73
  Q 1275.01 383.21 1275.53 383.21
  L 1282.70 383.25
  Q 1283.15 383.25 1283.18 382.79
  L 1283.44 378.68
  Z"
/>
<path fill="#dd2610" d="
  M 1290.82 383.05
  Q 1289.35 383.38 1288.05 383.21
  Q 1287.52 383.14 1287.48 382.61
  L 1287.37 380.97
  L 1290.82 383.05
  Z"
/>
<path fill="#000000" d="
  M 1220.81 449.71
  Q 1216.20 450.72 1216.48 448.59
  L 1220.81 449.71
  Z"
/>
<path fill="#000000" d="
  M 1229.00 451.48
  Q 1229.43 454.33 1227.71 454.44
  L 1224.97 453.80
  L 1225.19 450.74
  L 1229.00 451.48
  Z"
/>
<path fill="#dd2610" d="
  M 1237.65 452.06
  Q 1237.27 453.99 1237.58 456.38
  L 1227.71 454.44
  Q 1229.43 454.33 1229.00 451.48
  L 1232.73 452.21
  Q 1233.21 452.31 1233.60 452.01
  Q 1235.28 450.73 1237.65 452.06
  Z"
/>
<path fill="#000000" d="
  M 1310.43 799.81
  Q 1309.49 799.84 1308.79 800.18
  Q 1308.31 800.42 1308.30 800.99
  L 1308.28 807.25
  Q 1308.27 808.25 1307.29 808.25
  L 1301.10 808.29
  Q 1300.02 808.30 1300.00 807.39
  L 1299.95 804.59
  A 0.64 0.63 -0.1 0 0 1299.32 803.97
  L 1296.31 803.93
  Q 1295.69 803.92 1295.70 803.33
  L 1295.73 800.71
  A 0.61 0.60 2.7 0 0 1295.17 800.10
  L 1292.20 799.86
  A 0.62 0.62 0.0 0 1 1291.63 799.21
  Q 1291.97 793.51 1291.24 787.98
  Q 1291.18 787.48 1290.68 787.42
  Q 1289.02 787.20 1287.84 787.87
  A 0.92 0.92 0.0 0 0 1287.37 788.72
  Q 1287.51 791.62 1284.85 791.48
  Q 1283.60 791.42 1283.53 792.73
  L 1283.21 798.61
  Q 1283.15 799.86 1284.38 799.97
  L 1286.69 800.19
  Q 1287.24 800.24 1287.38 800.77
  Q 1287.72 802.02 1287.48 803.24
  Q 1287.38 803.72 1286.87 803.77
  L 1283.68 804.07
  Q 1283.22 804.12 1283.21 804.58
  L 1283.21 807.46
  Q 1283.20 808.23 1283.97 808.26
  L 1286.80 808.36
  Q 1287.47 808.38 1287.48 809.07
  L 1287.51 811.78
  Q 1287.52 812.53 1286.78 812.52
  L 1283.67 812.49
  A 0.47 0.42 89.8 0 0 1283.24 812.97
  L 1283.29 815.99
  A 0.52 0.48 -0.3 0 1 1282.77 816.48
  L 1279.65 816.47
  Q 1279.01 816.47 1279.01 816.60
  L 1279.02 820.63
  A 0.62 0.15 -0.3 0 0 1279.64 820.77
  L 1282.74 820.76
  A 0.47 0.47 0.0 0 1 1283.21 821.25
  L 1283.04 824.74
  Q 1273.15 820.73 1269.80 819.93
  Q 1259.14 817.38 1249.62 814.76
  Q 1249.02 814.59 1248.58 814.99
  L 1248.13 815.40
  Q 1247.72 815.77 1247.15 815.62
  L 1245.36 815.15
  Q 1244.76 814.99 1244.69 815.56
  Q 1243.10 828.03 1240.50 839.91
  A 0.53 0.53 0.0 0 0 1240.65 840.41
  Q 1255.72 854.64 1262.87 873.92
  Q 1267.63 886.77 1269.75 902.87
  Q 1270.23 906.50 1270.29 909.83
  C 1270.35 912.86 1270.87 915.78 1270.72 919.08
  Q 1269.94 936.33 1269.51 941.00
  Q 1269.36 942.62 1267.91 947.07
  A 1.08 1.08 0.0 0 1 1267.27 947.74
  Q 1264.25 948.88 1263.15 946.85
  Q 1257.01 935.57 1247.02 928.22
  Q 1235.58 919.79 1221.22 913.82
  Q 1220.75 913.62 1220.60 914.11
  Q 1217.85 922.93 1217.92 925.01
  Q 1218.34 937.24 1217.15 949.81
  Q 1217.11 950.30 1217.40 950.69
  C 1218.00 951.50 1218.93 952.17 1219.41 952.94
  C 1226.15 963.74 1229.06 975.88 1230.34 988.72
  Q 1232.00 1005.46 1230.71 1022.49
  Q 1230.35 1027.27 1228.90 1031.38
  C 1228.24 1033.24 1225.87 1035.79 1223.73 1034.78
  Q 1222.83 1034.35 1222.36 1032.84
  Q 1220.63 1027.36 1218.99 1024.26
  C 1214.34 1015.43 1212.33 1010.18 1206.15 1005.66
  Q 1205.49 1005.18 1205.25 1005.96
  Q 1203.29 1012.31 1201.37 1021.12
  Q 1200.64 1024.48 1200.75 1026.59
  Q 1200.78 1027.10 1201.14 1027.47
  Q 1206.95 1033.42 1209.50 1041.49
  Q 1211.18 1046.78 1212.06 1051.50
  Q 1213.15 1057.32 1211.74 1062.49
  L 1208.94 1062.46
  Q 1208.30 1062.46 1208.29 1061.81
  L 1208.25 1058.97
  Q 1208.25 1058.44 1207.72 1058.35
  Q 1205.72 1058.01 1203.70 1058.55
  L 1199.92 1054.19
  L 1199.89 1050.68
  Q 1199.88 1050.13 1199.34 1050.11
  L 1195.68 1049.96
  Q 1195.42 1049.41 1195.42 1048.77
  Q 1195.27 1047.44 1195.81 1046.17
  Q 1196.00 1045.72 1196.48 1045.72
  L 1199.48 1045.75
  Q 1200.00 1045.75 1200.00 1045.25
  L 1200.00 1033.73
  Q 1200.00 1033.20 1199.49 1033.21
  L 1196.26 1033.27
  Q 1195.81 1033.28 1195.80 1033.74
  L 1195.72 1036.68
  Q 1195.71 1037.07 1195.35 1037.27
  L 1193.51 1038.29
  Q 1193.32 1034.32 1194.47 1030.51
  Q 1196.07 1025.20 1196.32 1023.96
  Q 1198.86 1011.38 1203.25 999.23
  C 1203.63 998.20 1204.31 997.40 1204.65 996.38
  Q 1207.02 989.08 1208.46 982.48
  Q 1208.73 981.25 1213.14 959.88
  C 1213.87 956.35 1214.37 951.35 1214.27 947.04
  Q 1213.93 933.52 1215.50 920.45
  Q 1215.91 917.04 1217.36 912.98
  Q 1218.89 908.68 1219.78 905.61
  Q 1227.86 877.62 1232.35 859.56
  Q 1233.06 856.69 1234.64 851.69
  Q 1236.13 846.94 1236.73 843.73
  Q 1240.01 826.17 1242.89 802.45
  Q 1243.46 797.72 1244.89 782.54
  Q 1247.65 753.29 1251.36 729.33
  Q 1251.50 728.43 1251.36 728.27
  Q 1251.24 728.13 1250.96 727.79
  Q 1250.61 727.35 1250.74 726.80
  Q 1252.85 718.23 1254.54 700.82
  Q 1254.73 698.83 1254.71 698.23
  Q 1254.64 696.58 1254.87 695.64
  Q 1255.55 692.94 1256.28 686.56
  Q 1259.42 659.30 1260.15 623.14
  Q 1260.37 611.93 1260.04 607.58
  Q 1259.88 605.46 1260.59 602.43
  Q 1260.81 601.52 1261.45 600.47
  C 1262.10 599.40 1262.36 599.01 1262.21 597.79
  Q 1261.47 592.06 1258.56 585.60
  Q 1257.50 583.25 1255.78 581.58
  Q 1251.76 577.69 1250.72 572.31
  Q 1250.42 570.75 1250.16 572.32
  Q 1249.79 574.52 1250.37 577.01
  A 0.20 0.20 0.0 0 1 1250.20 577.25
  L 1249.92 577.28
  Q 1249.83 577.29 1249.79 577.21
  L 1247.16 570.40
  Q 1247.00 569.99 1247.10 569.53
  Q 1247.67 566.89 1247.49 565.38
  Q 1247.44 564.87 1247.86 564.58
  Q 1249.22 563.63 1249.15 561.90
  Q 1248.99 557.20 1248.98 555.48
  Q 1248.98 554.63 1249.86 553.86
  A 1.29 1.29 0.0 0 0 1250.28 553.03
  Q 1250.94 546.85 1253.79 535.44
  Q 1254.96 530.75 1255.40 524.81
  Q 1255.47 523.95 1255.96 517.61
  C 1256.54 510.21 1256.25 504.17 1256.27 490.52
  Q 1256.27 485.43 1255.73 479.04
  Q 1255.23 473.23 1255.10 467.54
  Q 1255.00 463.61 1251.76 461.81
  Q 1251.07 461.43 1251.20 462.21
  Q 1251.26 462.55 1251.55 463.07
  Q 1251.79 463.51 1251.29 463.42
  Q 1248.54 462.87 1249.03 460.32
  A 0.70 0.70 0.0 0 0 1248.53 459.52
  L 1237.58 456.38
  Q 1237.27 453.99 1237.65 452.06
  Q 1239.27 452.27 1242.89 453.41
  Q 1270.88 462.28 1293.87 475.42
  Q 1299.85 478.84 1304.12 482.27
  Q 1304.76 482.79 1313.79 489.98
  Q 1327.83 501.15 1343.90 518.76
  C 1345.54 520.56 1346.53 523.01 1347.82 524.63
  Q 1356.39 535.40 1361.70 547.20
  Q 1362.12 548.13 1362.05 548.40
  Q 1361.88 549.03 1361.35 549.58
  A 1.42 1.42 0.0 0 1 1359.61 549.82
  Q 1354.30 546.71 1347.35 545.22
  C 1340.75 543.80 1333.23 543.98 1326.28 544.87
  Q 1306.66 547.38 1303.02 547.86
  Q 1292.26 549.29 1279.65 553.93
  Q 1266.00 558.95 1254.13 563.99
  Q 1252.72 564.59 1252.87 566.11
  Q 1253.66 574.27 1258.49 579.53
  Q 1260.86 582.11 1261.75 584.28
  C 1264.56 591.12 1266.35 595.73 1265.19 601.87
  Q 1265.03 602.77 1265.89 603.06
  C 1299.73 614.71 1328.74 636.83 1347.48 667.30
  Q 1352.03 674.70 1353.47 677.28
  C 1359.59 688.25 1361.51 701.13 1361.79 713.77
  A 1.62 1.62 0.0 0 1 1359.68 715.34
  Q 1353.19 713.29 1348.52 711.31
  Q 1340.23 707.79 1337.47 706.84
  Q 1314.24 698.91 1288.81 697.92
  Q 1273.52 697.33 1258.33 698.31
  Q 1257.80 698.34 1257.78 698.87
  Q 1257.45 707.52 1255.67 718.41
  A 0.74 0.74 0.0 0 0 1256.12 719.22
  Q 1276.29 727.79 1288.88 745.07
  C 1290.90 747.84 1293.24 752.12 1295.43 755.49
  Q 1297.16 758.16 1297.99 759.71
  Q 1305.31 773.45 1307.80 786.70
  Q 1309.49 795.70 1310.43 799.81
  Z"
/>
<path fill="#dd2610" d="
  M 1310.43 799.81
  Q 1311.41 808.15 1310.96 813.75
  Q 1310.29 822.18 1309.21 829.75
  Q 1308.74 833.08 1307.26 836.07
  Q 1307.03 836.53 1306.59 836.27
  Q 1295.18 829.59 1283.04 824.74
  L 1283.21 821.25
  A 0.47 0.47 0.0 0 0 1282.74 820.76
  L 1279.64 820.77
  A 0.62 0.15 -0.3 0 1 1279.02 820.63
  L 1279.01 816.60
  Q 1279.01 816.47 1279.65 816.47
  L 1282.77 816.48
  A 0.52 0.48 -0.3 0 0 1283.29 815.99
  L 1283.24 812.97
  A 0.47 0.42 89.8 0 1 1283.67 812.49
  L 1286.78 812.52
  Q 1287.52 812.53 1287.51 811.78
  L 1287.48 809.07
  Q 1287.47 808.38 1286.80 808.36
  L 1283.97 808.26
  Q 1283.20 808.23 1283.21 807.46
  L 1283.21 804.58
  Q 1283.22 804.12 1283.68 804.07
  L 1286.87 803.77
  Q 1287.38 803.72 1287.48 803.24
  Q 1287.72 802.02 1287.38 800.77
  Q 1287.24 800.24 1286.69 800.19
  L 1284.38 799.97
  Q 1283.15 799.86 1283.21 798.61
  L 1283.53 792.73
  Q 1283.60 791.42 1284.85 791.48
  Q 1287.51 791.62 1287.37 788.72
  A 0.92 0.92 0.0 0 1 1287.84 787.87
  Q 1289.02 787.20 1290.68 787.42
  Q 1291.18 787.48 1291.24 787.98
  Q 1291.97 793.51 1291.63 799.21
  A 0.62 0.62 0.0 0 0 1292.20 799.86
  L 1295.17 800.10
  A 0.61 0.60 2.7 0 1 1295.73 800.71
  L 1295.70 803.33
  Q 1295.69 803.92 1296.31 803.93
  L 1299.32 803.97
  A 0.64 0.63 -0.1 0 1 1299.95 804.59
  L 1300.00 807.39
  Q 1300.02 808.30 1301.10 808.29
  L 1307.29 808.25
  Q 1308.27 808.25 1308.28 807.25
  L 1308.30 800.99
  Q 1308.31 800.42 1308.79 800.18
  Q 1309.49 799.84 1310.43 799.81
  Z"
/>
<path fill="#dd2610" d="
  M 1195.42 1048.77
  L 1193.51 1038.29
  L 1195.35 1037.27
  Q 1195.71 1037.07 1195.72 1036.68
  L 1195.80 1033.74
  Q 1195.81 1033.28 1196.26 1033.27
  L 1199.49 1033.21
  Q 1200.00 1033.20 1200.00 1033.73
  L 1200.00 1045.25
  Q 1200.00 1045.75 1199.48 1045.75
  L 1196.48 1045.72
  Q 1196.00 1045.72 1195.81 1046.17
  Q 1195.27 1047.44 1195.42 1048.77
  Z"
/>
<path fill="#dd2610" d="
  M 1199.92 1054.19
  C 1198.04 1052.74 1195.94 1051.47 1195.68 1049.96
  L 1199.34 1050.11
  Q 1199.88 1050.13 1199.89 1050.68
  L 1199.92 1054.19
  Z"
/>
<path fill="#dd2610" d="
  M 1211.74 1062.49
  Q 1210.83 1064.62 1209.85 1065.07
  Q 1208.57 1065.67 1207.78 1064.50
  L 1203.70 1058.55
  Q 1205.72 1058.01 1207.72 1058.35
  Q 1208.25 1058.44 1208.25 1058.97
  L 1208.29 1061.81
  Q 1208.30 1062.46 1208.94 1062.46
  L 1211.74 1062.49
  Z"
/>
</svg>
