<?xml version="1.0" encoding="UTF-8" standalone="no"?>
<!DOCTYPE svg PUBLIC "-//W3C//DTD SVG 1.1//EN" "http://www.w3.org/Graphics/SVG/1.1/DTD/svg11.dtd">
<svg xmlns="http://www.w3.org/2000/svg" version="1.1" viewBox="0.00 0.00 1592.00 1592.00" width="1592.00" height="1592.00">
<g stroke-width="2.00" fill="none" stroke-linecap="butt">
<path stroke="#0d1b64" vector-effect="non-scaling-stroke" d="
  M 1054.16 280.46
  Q 1054.23 278.44 1050.59 279.00
  Q 1050.08 279.07 1050.02 279.59
  Q 1049.89 280.84 1050.23 282.12"
/>
<path stroke="#0d1b64" vector-effect="non-scaling-stroke" d="
  M 1041.70 286.34
  Q 1041.39 284.91 1041.51 284.06
  Q 1041.63 283.21 1040.80 283.22
  L 1038.22 283.24
  Q 1037.51 283.25 1037.50 283.98
  L 1037.48 286.99
  Q 1037.48 287.47 1037.00 287.47
  L 1033.93 287.50
  Q 1033.48 287.50 1033.35 287.99
  Q 1032.95 289.61 1033.53 291.15"
/>
<path stroke="#0d1b64" vector-effect="non-scaling-stroke" d="
  M 1019.51 303.86
  L 1016.97 303.88
  Q 1016.40 303.88 1016.42 303.32
  L 1016.54 300.53
  A 0.52 0.51 1.4 0 0 1016.03 300.00
  L 1004.54 299.95
  Q 1004.05 299.94 1004.05 300.43
  L 1003.97 306.60"
/>
<path stroke="#0d1b64" vector-effect="non-scaling-stroke" d="
  M 997.67 308.82
  Q 995.54 308.20 995.73 305.75
  Q 995.93 303.21 995.28 292.23
  Q 995.25 291.73 994.74 291.66
  L 992.64 291.40
  A 0.68 0.68 0.0 0 1 992.05 290.79
  L 991.38 284.18
  A 1.03 1.00 -2.8 0 0 990.36 283.28
  L 984.32 283.28
  Q 983.42 283.28 983.41 284.19
  L 983.25 295.27
  Q 983.24 295.79 982.73 295.78
  L 975.66 295.68
  A 0.64 0.64 0.0 0 0 975.00 296.33
  L 975.06 307.71
  Q 975.06 308.35 974.40 308.35
  L 971.23 308.35
  Q 970.61 308.34 970.62 307.73
  L 970.74 300.50
  Q 970.75 299.98 970.25 299.99
  L 963.04 300.01
  Q 962.50 300.01 962.51 300.54
  L 962.58 312.41"
/>
<path stroke="#0d1b64" vector-effect="non-scaling-stroke" d="
  M 916.61 295.04
  L 916.56 288.11"
/>
<path stroke="#0d1b64" vector-effect="non-scaling-stroke" d="
  M 912.53 255.86
  Q 912.69 256.81 912.43 257.78
  Q 912.30 258.28 911.79 258.28
  L 904.55 258.24
  Q 904.07 258.23 904.06 258.71
  L 903.97 265.91
  Q 903.96 266.55 903.34 266.54
  L 900.64 266.48
  Q 900.07 266.47 900.07 267.08
  L 899.98 274.51
  Q 899.98 274.97 899.52 274.98
  L 896.34 275.04
  Q 895.79 275.05 895.77 275.58
  L 895.70 278.13
  Q 895.68 279.01 896.60 279.00
  L 902.99 278.99
  Q 904.00 278.98 904.00 278.01
  L 904.02 275.65
  Q 904.03 275.13 904.61 275.01
  Q 907.58 274.44 908.60 276.20"
/>
<path stroke="#0d1b64" vector-effect="non-scaling-stroke" d="
  M 1287.51 380.93
  L 1287.46 387.06
  Q 1287.46 387.58 1286.96 387.57
  L 1279.87 387.45
  Q 1278.99 387.44 1279.00 388.34
  L 1279.01 395.00
  Q 1279.02 395.79 1279.72 395.75
  L 1282.39 395.63
  Q 1283.29 395.59 1283.30 396.62
  L 1283.34 402.98
  Q 1283.35 404.02 1282.29 404.02
  L 1275.89 404.01
  A 0.90 0.88 -0.3 0 1 1274.99 403.14
  L 1274.96 400.65
  Q 1274.95 400.10 1274.39 400.08
  L 1271.35 399.95
  Q 1270.75 399.93 1270.74 399.34
  L 1270.69 396.45
  Q 1270.69 395.92 1270.20 395.90
  L 1267.86 395.79
  Q 1266.66 395.74 1266.46 394.48
  Q 1266.25 393.21 1266.50 391.50"
/>
<path stroke="#0d1b64" vector-effect="non-scaling-stroke" d="
  M 1266.50 391.50
  L 1270.18 391.28
  Q 1270.76 391.24 1270.76 390.67
  L 1270.76 388.23
  Q 1270.77 387.69 1270.23 387.65
  L 1267.28 387.43
  Q 1266.72 387.39 1266.69 387.93
  L 1266.50 391.50"
/>
<path stroke="#0d1b64" vector-effect="non-scaling-stroke" d="
  M 1266.50 391.50
  Q 1264.91 391.85 1263.37 391.36
  Q 1262.88 391.20 1262.68 390.73
  Q 1262.14 389.45 1262.65 387.95
  Q 1262.82 387.44 1263.36 387.43
  L 1265.76 387.40
  Q 1266.54 387.38 1266.54 386.50
  L 1266.54 379.77
  Q 1266.54 379.00 1265.76 379.00
  L 1259.07 378.97
  A 0.89 0.83 1.2 0 1 1258.18 378.11
  L 1258.29 375.71
  Q 1258.31 375.10 1257.70 375.07
  L 1254.75 374.95
  Q 1254.07 374.92 1254.04 374.25
  L 1253.92 371.42
  A 0.73 0.73 0.0 0 0 1253.19 370.72
  L 1250.50 370.72
  Q 1249.96 370.72 1249.96 371.25
  L 1249.93 382.67
  A 0.62 0.62 0.0 0 1 1249.33 383.29
  L 1246.46 383.41
  Q 1245.86 383.43 1245.86 384.01
  L 1245.88 386.45
  Q 1245.89 387.10 1246.49 387.18
  L 1249.23 387.55
  Q 1249.68 387.61 1249.76 388.09
  Q 1250.29 391.43 1249.63 395.11
  Q 1249.54 395.58 1249.07 395.65
  L 1246.78 395.99
  Q 1246.05 396.10 1245.93 396.77
  L 1245.60 398.72
  A 1.51 1.32 -1.2 0 1 1244.38 399.83
  Q 1243.21 400.02 1242.54 400.50
  Q 1242.09 400.82 1242.06 401.38
  L 1241.36 415.47
  Q 1241.31 416.50 1240.28 416.52
  L 1238.78 416.55
  Q 1237.68 416.57 1237.56 415.55
  L 1237.35 413.60
  Q 1237.28 412.95 1236.62 412.92
  L 1225.88 412.47
  Q 1224.97 412.43 1224.97 413.34
  L 1224.98 419.72
  Q 1224.99 420.76 1225.95 420.75
  L 1228.10 420.73
  Q 1228.94 420.72 1228.95 421.66
  L 1229.00 428.01
  Q 1229.00 428.98 1228.00 428.99
  L 1225.66 429.01
  Q 1225.09 429.02 1225.03 429.58
  Q 1224.87 430.96 1224.84 431.79
  Q 1224.77 433.46 1227.27 433.66"
/>
<path stroke="#0d1b64" vector-effect="non-scaling-stroke" d="
  M 1229.00 451.49
  Q 1229.39 453.51 1228.21 454.47"
/>
<path stroke="#0d1b64" vector-effect="non-scaling-stroke" d="
  M 1062.32 344.13
  Q 1062.62 343.25 1062.49 342.33
  Q 1062.42 341.81 1061.92 341.64
  Q 1060.71 341.24 1059.44 341.74"
/>
<path stroke="#0d1b64" vector-effect="non-scaling-stroke" d="
  M 1058.09 340.60
  L 1058.16 334.04
  A 0.85 0.83 0.4 0 1 1059.02 333.21
  L 1065.52 333.23
  Q 1066.52 333.23 1066.52 332.27
  L 1066.53 325.91
  A 0.92 0.80 89.8 0 0 1065.72 324.99
  L 1063.00 325.02
  Q 1062.46 325.03 1062.46 324.49
  L 1062.52 312.99
  Q 1062.52 312.49 1062.03 312.50
  L 1058.78 312.51
  Q 1058.31 312.51 1058.30 313.03
  L 1058.29 316.10
  Q 1058.28 316.54 1057.51 316.54
  L 1054.76 316.55
  Q 1053.94 316.55 1053.95 315.77
  L 1053.99 313.16
  Q 1054.00 312.62 1053.40 312.61
  L 1049.98 312.57"
/>
<path stroke="#0d1b64" vector-effect="non-scaling-stroke" d="
  M 1295.72 386.41
  L 1295.80 390.90
  Q 1295.81 391.41 1296.32 391.50
  Q 1300.35 392.23 1300.29 389.83"
/>
<path stroke="#0d1b64" vector-effect="non-scaling-stroke" d="
  M 1245.77 454.34
  L 1245.65 458.36"
/>
<path stroke="#0d1b64" vector-effect="non-scaling-stroke" d="
  M 1233.18 455.52
  L 1233.32 452.36"
/>
<path stroke="#0d1b64" vector-effect="non-scaling-stroke" d="
  M 1308.86 792.78
  Q 1308.23 793.79 1308.24 794.75
  Q 1308.25 795.76 1307.29 795.77
  L 1304.86 795.82
  Q 1304.09 795.83 1304.03 795.09
  L 1303.80 792.04
  Q 1303.77 791.56 1303.29 791.54
  L 1300.72 791.39
  Q 1300.07 791.35 1300.02 790.72
  L 1299.80 787.99
  A 0.59 0.56 87.8 0 0 1299.25 787.45
  L 1296.72 787.43
  Q 1296.06 787.42 1296.04 786.73
  L 1295.62 775.58
  Q 1295.60 775.06 1295.08 775.04
  L 1292.22 774.94
  A 0.73 0.72 1.1 0 1 1291.52 774.22
  L 1291.55 767.00
  Q 1291.56 766.44 1291.00 766.44
  L 1284.16 766.47
  A 0.84 0.82 -0.3 0 1 1283.31 765.66
  L 1283.29 763.24
  Q 1283.29 762.46 1282.52 762.45
  L 1279.77 762.40
  Q 1278.97 762.39 1278.97 763.22
  L 1278.96 778.24
  A 0.78 0.78 0.0 0 0 1279.74 779.02
  L 1286.19 778.99
  Q 1287.64 778.99 1287.58 780.42
  L 1287.33 785.73
  Q 1287.26 787.31 1285.73 787.37
  Q 1283.42 787.47 1283.03 790.16
  Q 1282.95 790.68 1282.47 790.91
  Q 1281.45 791.40 1280.34 791.45
  A 1.13 1.11 -89.3 0 0 1279.28 792.50
  L 1278.82 799.45
  A 0.65 0.61 -87.5 0 1 1278.20 800.06
  L 1276.26 800.02
  Q 1275.06 800.00 1275.00 801.21
  L 1274.93 802.67
  Q 1274.87 803.78 1275.98 803.88
  L 1278.39 804.10
  Q 1278.99 804.15 1278.99 804.76
  L 1279.00 811.87
  Q 1279.00 812.47 1278.35 812.47
  L 1275.70 812.46
  Q 1275.18 812.45 1275.14 813.00
  L 1274.94 815.81
  A 0.73 0.72 1.8 0 1 1274.22 816.48
  L 1267.28 816.52
  Q 1266.50 816.52 1266.51 815.78
  L 1266.54 813.01
  Q 1266.54 812.48 1266.01 812.48
  L 1263.26 812.47
  Q 1262.66 812.47 1262.64 811.87
  L 1262.54 808.98
  Q 1262.51 808.19 1261.74 808.18
  L 1258.92 808.13
  A 0.74 0.73 0.9 0 0 1258.17 808.85
  L 1258.12 811.87
  A 0.68 0.61 0.2 0 1 1257.45 812.47
  L 1254.79 812.49
  Q 1254.08 812.49 1254.06 811.78
  L 1253.96 808.70
  Q 1253.95 808.20 1253.45 808.20
  L 1250.52 808.17
  A 0.48 0.48 0.0 0 0 1250.04 808.65
  L 1249.90 814.77"
/>
<path stroke="#0d1b64" vector-effect="non-scaling-stroke" d="
  M 1259.56 866.14
  Q 1258.31 866.37 1258.18 869.58
  Q 1258.13 870.82 1259.36 870.74
  L 1261.59 870.61"
/>
<path stroke="#0d1b64" vector-effect="non-scaling-stroke" d="
  M 1201.40 1020.98
  Q 1201.08 1020.49 1200.91 1020.60
  A 2.24 1.68 78.0 0 0 1200.11 1022.32
  L 1200.07 1028.30
  Q 1200.06 1028.93 1199.45 1028.92
  L 1195.25 1028.81"
/>
<path stroke="#0d1b64" vector-effect="non-scaling-stroke" d="
  M 1256.08 516.64
  L 1257.60 516.43
  Q 1258.15 516.35 1258.17 515.80
  L 1258.30 513.25
  A 0.60 0.60 0.0 0 0 1257.83 512.64
  L 1256.31 512.30"
/>
<path stroke="#0d1b64" vector-effect="non-scaling-stroke" d="
  M 1256.34 508.37
  Q 1258.90 508.95 1258.22 504.78
  Q 1258.14 504.27 1257.64 504.11
  Q 1257.03 503.92 1256.27 504.00"
/>
<path stroke="#0d1b64" vector-effect="non-scaling-stroke" d="
  M 1255.29 474.92
  L 1262.31 474.95
  Q 1262.52 474.95 1262.52 474.74
  L 1262.52 466.74
  A 0.32 0.31 -89.9 0 0 1262.21 466.43
  L 1255.00 466.40"
/>
<path stroke="#0d1b64" vector-effect="non-scaling-stroke" d="
  M 1204.40 1031.20
  L 1203.93 1032.76
  Q 1203.78 1033.26 1203.30 1033.25
  L 1200.50 1033.22
  A 0.53 0.50 -89.6 0 0 1199.99 1033.74
  L 1199.95 1049.33
  A 0.63 0.63 0.0 0 0 1200.58 1049.96
  L 1203.23 1049.98
  A 0.78 0.78 0.0 0 1 1204.00 1050.75
  L 1204.03 1053.20
  Q 1204.04 1053.97 1203.25 1054.02
  L 1200.01 1054.18"
/>
<path stroke="#0d1b64" vector-effect="non-scaling-stroke" d="
  M 1212.15 1054.08
  L 1208.86 1054.07
  Q 1208.24 1054.07 1208.24 1054.63
  L 1208.28 1057.71
  Q 1208.29 1058.19 1207.78 1058.20
  L 1203.47 1058.28"
/>
</g>
<path fill="#1936c8" d="
  M 1054.16 280.46
  Q 1054.23 278.44 1050.59 279.00
  Q 1050.08 279.07 1050.02 279.59
  Q 1049.89 280.84 1050.23 282.12
  L 1041.70 286.34
  Q 1041.39 284.91 1041.51 284.06
  Q 1041.63 283.21 1040.80 283.22
  L 1038.22 283.24
  Q 1037.51 283.25 1037.50 283.98
  L 1037.48 286.99
  Q 1037.48 287.47 1037.00 287.47
  L 1033.93 287.50
  Q 1033.48 287.50 1033.35 287.99
  Q 1032.95 289.61 1033.53 291.15
  L 1018.29 301.69
  Q 1017.85 302.00 1018.11 302.47
  Q 1018.52 303.20 1019.51 303.86
  L 1016.97 303.88
  Q 1016.40 303.88 1016.42 303.32
  L 1016.54 300.53
  A 0.52 0.51 1.4 0 0 1016.03 300.00
  L 1004.54 299.95
  Q 1004.05 299.94 1004.05 300.43
  L 1003.97 306.60
  L 997.67 308.82
  Q 995.54 308.20 995.73 305.75
  Q 995.93 303.21 995.28 292.23
  Q 995.25 291.73 994.74 291.66
  L 992.64 291.40
  A 0.68 0.68 0.0 0 1 992.05 290.79
  L 991.38 284.18
  A 1.03 1.00 -2.8 0 0 990.36 283.28
  L 984.32 283.28
  Q 983.42 283.28 983.41 284.19
  L 983.25 295.27
  Q 983.24 295.79 982.73 295.78
  L 975.66 295.68
  A 0.64 0.64 0.0 0 0 975.00 296.33
  L 975.06 307.71
  Q 975.06 308.35 974.40 308.35
  L 971.23 308.35
  Q 970.61 308.34 970.62 307.73
  L 970.74 300.50
  Q 970.75 299.98 970.25 299.99
  L 963.04 300.01
  Q 962.50 300.01 962.51 300.54
  L 962.58 312.41
  Q 959.14 312.55 955.88 311.52
  Q 955.40 311.37 955.10 310.96
  C 954.69 310.43 954.57 310.06 953.93 309.74
  Q 950.90 308.19 948.90 306.93
  C 939.76 301.17 933.84 297.29 925.20 294.82
  Q 923.43 294.31 921.77 294.80
  Q 921.28 294.95 920.80 294.77
  Q 917.99 293.72 916.61 295.04
  L 916.56 288.11
  L 918.44 288.44
  Q 918.96 288.53 919.31 288.15
  Q 939.48 266.19 968.76 257.23
  Q 989.51 250.87 1010.17 250.15
  Q 1018.27 249.86 1031.09 250.05
  Q 1038.03 250.15 1044.85 251.03
  Q 1047.24 251.34 1050.64 251.52
  Q 1056.32 251.81 1056.44 251.81
  Q 1058.93 251.94 1063.19 253.03
  C 1066.17 253.80 1069.25 254.35 1072.07 255.30
  Q 1081.63 258.51 1089.28 261.01
  Q 1090.29 261.34 1095.58 263.53
  Q 1096.04 263.72 1096.21 264.18
  Q 1097.09 266.61 1095.71 268.79
  Q 1095.44 269.21 1094.94 269.23
  Q 1092.41 269.33 1088.63 270.40
  Q 1086.03 271.14 1082.36 271.77
  Q 1067.65 274.32 1054.16 280.46
  Z"
/>
<path fill="#000000" d="
  M 912.53 255.86
  Q 912.69 256.81 912.43 257.78
  Q 912.30 258.28 911.79 258.28
  L 904.55 258.24
  Q 904.07 258.23 904.06 258.71
  L 903.97 265.91
  Q 903.96 266.55 903.34 266.54
  L 900.64 266.48
  Q 900.07 266.47 900.07 267.08
  L 899.98 274.51
  Q 899.98 274.97 899.52 274.98
  L 896.34 275.04
  Q 895.79 275.05 895.77 275.58
  L 895.70 278.13
  Q 895.68 279.01 896.60 279.00
  L 902.99 278.99
  Q 904.00 278.98 904.00 278.01
  L 904.02 275.65
  Q 904.03 275.13 904.61 275.01
  Q 907.58 274.44 908.60 276.20
  C 904.89 278.72 900.40 281.54 897.74 285.01
  Q 896.80 286.23 898.33 286.38
  L 916.56 288.11
  L 916.61 295.04
  Q 912.33 295.62 905.68 293.60
  Q 904.60 293.27 903.71 294.29
  Q 903.39 294.66 902.91 294.72
  Q 901.33 294.92 899.89 294.34
  Q 899.42 294.15 899.05 294.53
  L 898.34 295.29
  Q 897.93 295.73 897.42 295.55
  C 893.25 294.05 889.76 291.77 885.09 292.37
  Q 881.52 292.83 873.17 295.47
  Q 870.71 296.25 858.52 296.70
  Q 854.21 296.85 844.18 295.51
  Q 836.06 294.43 831.77 294.85
  Q 823.30 295.69 815.41 298.87
  C 806.29 302.55 802.53 304.44 794.98 306.27
  Q 790.45 307.37 784.94 308.81
  C 782.92 309.34 780.67 310.43 779.04 311.07
  Q 778.60 311.25 778.16 311.04
  Q 775.71 309.86 773.86 309.76
  Q 773.05 309.71 773.49 309.19
  Q 773.85 308.77 773.43 308.02
  Q 773.16 307.53 773.50 307.09
  Q 785.08 292.43 795.93 281.94
  Q 801.36 276.68 809.44 271.19
  Q 816.32 266.51 824.81 263.72
  C 840.55 258.55 856.07 256.10 872.28 255.39
  Q 892.40 254.50 912.53 255.86
  Z"
/>
<path fill="#1936c8" d="
  M 908.60 276.20
  Q 907.58 274.44 904.61 275.01
  Q 904.03 275.13 904.02 275.65
  L 904.00 278.01
  Q 904.00 278.98 902.99 278.99
  L 896.60 279.00
  Q 895.68 279.01 895.70 278.13
  L 895.77 275.58
  Q 895.79 275.05 896.34 275.04
  L 899.52 274.98
  Q 899.98 274.97 899.98 274.51
  L 900.07 267.08
  Q 900.07 266.47 900.64 266.48
  L 903.34 266.54
  Q 903.96 266.55 903.97 265.91
  L 904.06 258.71
  Q 904.07 258.23 904.55 258.24
  L 911.79 258.28
  Q 912.30 258.28 912.43 257.78
  Q 912.69 256.81 912.53 255.86
  Q 932.13 256.91 938.50 257.48
  Q 940.21 257.64 941.45 259.27
  Q 941.77 259.69 941.29 259.90
  Q 935.97 262.26 933.92 263.43
  Q 931.81 264.63 927.36 266.10
  Q 924.42 267.07 920.89 269.14
  Q 914.64 272.79 908.60 276.20
  Z"
/>
<path fill="#000000" d="
  M 1054.16 280.46
  L 1050.23 282.12
  Q 1049.89 280.84 1050.02 279.59
  Q 1050.08 279.07 1050.59 279.00
  Q 1054.23 278.44 1054.16 280.46
  Z"
/>
<path fill="#1936c8" d="
  M 1287.51 380.93
  L 1287.46 387.06
  Q 1287.46 387.58 1286.96 387.57
  L 1279.87 387.45
  Q 1278.99 387.44 1279.00 388.34
  L 1279.01 395.00
  Q 1279.02 395.79 1279.72 395.75
  L 1282.39 395.63
  Q 1283.29 395.59 1283.30 396.62
  L 1283.34 402.98
  Q 1283.35 404.02 1282.29 404.02
  L 1275.89 404.01
  A 0.90 0.88 -0.3 0 1 1274.99 403.14
  L 1274.96 400.65
  Q 1274.95 400.10 1274.39 400.08
  L 1271.35 399.95
  Q 1270.75 399.93 1270.74 399.34
  L 1270.69 396.45
  Q 1270.69 395.92 1270.20 395.90
  L 1267.86 395.79
  Q 1266.66 395.74 1266.46 394.48
  Q 1266.25 393.21 1266.50 391.50
  L 1270.18 391.28
  Q 1270.76 391.24 1270.76 390.67
  L 1270.76 388.23
  Q 1270.77 387.69 1270.23 387.65
  L 1267.28 387.43
  Q 1266.72 387.39 1266.69 387.93
  L 1266.50 391.50
  Q 1264.91 391.85 1263.37 391.36
  Q 1262.88 391.20 1262.68 390.73
  Q 1262.14 389.45 1262.65 387.95
  Q 1262.82 387.44 1263.36 387.43
  L 1265.76 387.40
  Q 1266.54 387.38 1266.54 386.50
  L 1266.54 379.77
  Q 1266.54 379.00 1265.76 379.00
  L 1259.07 378.97
  A 0.89 0.83 1.2 0 1 1258.18 378.11
  L 1258.29 375.71
  Q 1258.31 375.10 1257.70 375.07
  L 1254.75 374.95
  Q 1254.07 374.92 1254.04 374.25
  L 1253.92 371.42
  A 0.73 0.73 0.0 0 0 1253.19 370.72
  L 1250.50 370.72
  Q 1249.96 370.72 1249.96 371.25
  L 1249.93 382.67
  A 0.62 0.62 0.0 0 1 1249.33 383.29
  L 1246.46 383.41
  Q 1245.86 383.43 1245.86 384.01
  L 1245.88 386.45
  Q 1245.89 387.10 1246.49 387.18
  L 1249.23 387.55
  Q 1249.68 387.61 1249.76 388.09
  Q 1250.29 391.43 1249.63 395.11
  Q 1249.54 395.58 1249.07 395.65
  L 1246.78 395.99
  Q 1246.05 396.10 1245.93 396.77
  L 1245.60 398.72
  A 1.51 1.32 -1.2 0 1 1244.38 399.83
  Q 1243.21 400.02 1242.54 400.50
  Q 1242.09 400.82 1242.06 401.38
  L 1241.36 415.47
  Q 1241.31 416.50 1240.28 416.52
  L 1238.78 416.55
  Q 1237.68 416.57 1237.56 415.55
  L 1237.35 413.60
  Q 1237.28 412.95 1236.62 412.92
  L 1225.88 412.47
  Q 1224.97 412.43 1224.97 413.34
  L 1224.98 419.72
  Q 1224.99 420.76 1225.95 420.75
  L 1228.10 420.73
  Q 1228.94 420.72 1228.95 421.66
  L 1229.00 428.01
  Q 1229.00 428.98 1228.00 428.99
  L 1225.66 429.01
  Q 1225.09 429.02 1225.03 429.58
  Q 1224.87 430.96 1224.84 431.79
  Q 1224.77 433.46 1227.27 433.66
  L 1210.13 444.13
  A 0.57 0.57 0.0 0 0 1210.10 445.08
  C 1212.86 446.99 1215.60 448.36 1219.04 449.21
  Q 1224.03 450.45 1229.00 451.49
  Q 1229.39 453.51 1228.21 454.47
  Q 1215.82 452.53 1205.22 445.95
  Q 1204.72 445.64 1204.63 445.26
  L 1204.50 444.72
  A 1.00 0.76 5.6 0 0 1203.84 444.12
  Q 1187.24 439.08 1184.91 421.69
  Q 1184.73 420.39 1182.24 416.70
  C 1180.48 414.11 1172.21 412.36 1172.25 408.76
  Q 1172.28 407.10 1172.74 406.49
  Q 1180.05 396.82 1179.59 384.50
  Q 1179.43 380.22 1176.65 372.69
  Q 1174.15 365.91 1168.32 363.59
  Q 1165.58 362.49 1163.28 363.22
  A 1.29 1.29 0.0 0 1 1162.33 363.16
  Q 1158.06 361.12 1157.00 360.74
  Q 1148.78 357.81 1136.39 354.51
  Q 1135.89 354.38 1135.44 354.64
  Q 1135.04 354.87 1134.84 354.92
  Q 1134.39 355.04 1134.12 355.01
  Q 1130.57 354.66 1124.61 352.67
  Q 1122.78 352.05 1120.09 351.77
  Q 1118.84 351.64 1115.58 352.30
  Q 1111.45 353.14 1105.75 353.49
  Q 1090.51 354.45 1075.01 354.24
  C 1071.39 354.19 1069.46 353.12 1067.15 350.15
  Q 1064.75 347.09 1062.32 344.13
  Q 1062.62 343.25 1062.49 342.33
  Q 1062.42 341.81 1061.92 341.64
  Q 1060.71 341.24 1059.44 341.74
  Q 1058.55 341.29 1058.09 340.60
  L 1058.16 334.04
  A 0.85 0.83 0.4 0 1 1059.02 333.21
  L 1065.52 333.23
  Q 1066.52 333.23 1066.52 332.27
  L 1066.53 325.91
  A 0.92 0.80 89.8 0 0 1065.72 324.99
  L 1063.00 325.02
  Q 1062.46 325.03 1062.46 324.49
  L 1062.52 312.99
  Q 1062.52 312.49 1062.03 312.50
  L 1058.78 312.51
  Q 1058.31 312.51 1058.30 313.03
  L 1058.29 316.10
  Q 1058.28 316.54 1057.51 316.54
  L 1054.76 316.55
  Q 1053.94 316.55 1053.95 315.77
  L 1053.99 313.16
  Q 1054.00 312.62 1053.40 312.61
  L 1049.98 312.57
  Q 1052.57 310.73 1054.02 310.01
  Q 1063.49 305.30 1070.41 301.66
  Q 1074.18 299.68 1082.45 296.47
  Q 1087.82 294.39 1110.15 288.11
  Q 1115.82 286.51 1124.13 285.18
  Q 1126.10 284.86 1138.25 282.78
  Q 1143.21 281.92 1148.18 282.12
  Q 1156.85 282.45 1156.87 282.45
  Q 1166.08 282.54 1166.28 282.54
  Q 1169.45 282.52 1175.72 283.53
  Q 1193.61 286.41 1200.43 287.95
  Q 1211.68 290.49 1216.27 292.83
  Q 1218.41 293.92 1217.49 297.01
  A 0.88 0.88 0.0 0 1 1216.84 297.62
  Q 1200.03 301.29 1186.42 307.94
  Q 1182.50 309.85 1163.90 320.13
  Q 1156.30 324.33 1151.06 328.56
  Q 1143.38 334.76 1128.38 347.20
  Q 1127.79 347.69 1128.52 347.91
  L 1134.98 349.87
  Q 1135.40 350.00 1135.84 350.39
  Q 1136.77 351.20 1138.54 351.72
  Q 1141.15 352.48 1153.63 356.14
  Q 1158.48 357.56 1165.20 361.03
  A 1.26 1.26 0.0 0 0 1166.75 360.71
  Q 1167.70 359.55 1169.49 360.50
  A 1.55 1.55 0.0 0 0 1170.42 360.67
  Q 1195.77 357.32 1223.88 360.44
  Q 1258.44 364.27 1287.51 380.93
  Z"
/>
<path fill="#000000" d="
  M 997.67 308.82
  L 989.56 308.56
  A 1.25 1.25 0.0 0 0 988.77 308.80
  Q 985.26 311.43 981.29 310.61
  C 978.25 309.99 976.21 310.77 972.42 311.44
  Q 972.34 311.45 968.70 312.38
  Q 965.73 313.13 962.58 312.41
  L 962.51 300.54
  Q 962.50 300.01 963.04 300.01
  L 970.25 299.99
  Q 970.75 299.98 970.74 300.50
  L 970.62 307.73
  Q 970.61 308.34 971.23 308.35
  L 974.40 308.35
  Q 975.06 308.35 975.06 307.71
  L 975.00 296.33
  A 0.64 0.64 0.0 0 1 975.66 295.68
  L 982.73 295.78
  Q 983.24 295.79 983.25 295.27
  L 983.41 284.19
  Q 983.42 283.28 984.32 283.28
  L 990.36 283.28
  A 1.03 1.00 -2.8 0 1 991.38 284.18
  L 992.05 290.79
  A 0.68 0.68 0.0 0 0 992.64 291.40
  L 994.74 291.66
  Q 995.25 291.73 995.28 292.23
  Q 995.93 303.21 995.73 305.75
  Q 995.54 308.20 997.67 308.82
  Z"
/>
<path fill="#000000" d="
  M 1041.70 286.34
  L 1033.53 291.15
  Q 1032.95 289.61 1033.35 287.99
  Q 1033.48 287.50 1033.93 287.50
  L 1037.00 287.47
  Q 1037.48 287.47 1037.48 286.99
  L 1037.50 283.98
  Q 1037.51 283.25 1038.22 283.24
  L 1040.80 283.22
  Q 1041.63 283.21 1041.51 284.06
  Q 1041.39 284.91 1041.70 286.34
  Z"
/>
<path fill="#000000" d="
  M 1019.51 303.86
  Q 1023.66 306.61 1027.93 309.33
  Q 1029.89 310.58 1030.46 312.20
  Q 1030.62 312.66 1031.04 312.89
  L 1041.58 318.61
  Q 1042.11 318.90 1042.58 318.52
  L 1049.98 312.57
  L 1053.40 312.61
  Q 1054.00 312.62 1053.99 313.16
  L 1053.95 315.77
  Q 1053.94 316.55 1054.76 316.55
  L 1057.51 316.54
  Q 1058.28 316.54 1058.29 316.10
  L 1058.30 313.03
  Q 1058.31 312.51 1058.78 312.51
  L 1062.03 312.50
  Q 1062.52 312.49 1062.52 312.99
  L 1062.46 324.49
  Q 1062.46 325.03 1063.00 325.02
  L 1065.72 324.99
  A 0.92 0.80 89.8 0 1 1066.53 325.91
  L 1066.52 332.27
  Q 1066.52 333.23 1065.52 333.23
  L 1059.02 333.21
  A 0.85 0.83 0.4 0 0 1058.16 334.04
  L 1058.09 340.60
  Q 1055.48 338.44 1053.11 336.18
  Q 1050.96 334.11 1048.26 332.16
  Q 1043.32 328.57 1041.18 322.43
  Q 1041.00 321.92 1040.52 321.66
  C 1029.22 315.47 1022.06 311.23 1012.10 307.53
  Q 1010.23 306.84 1008.09 306.77
  Q 1006.02 306.71 1003.97 306.60
  L 1004.05 300.43
  Q 1004.05 299.94 1004.54 299.95
  L 1016.03 300.00
  A 0.52 0.51 1.4 0 1 1016.54 300.53
  L 1016.42 303.32
  Q 1016.40 303.88 1016.97 303.88
  L 1019.51 303.86
  Z"
/>
<path fill="#000000" d="
  M 1062.32 344.13
  Q 1060.69 343.24 1059.44 341.74
  Q 1060.71 341.24 1061.92 341.64
  Q 1062.42 341.81 1062.49 342.33
  Q 1062.62 343.25 1062.32 344.13
  Z"
/>
<path fill="#000000" d="
  M 1266.50 391.50
  Q 1266.25 393.21 1266.46 394.48
  Q 1266.66 395.74 1267.86 395.79
  L 1270.20 395.90
  Q 1270.69 395.92 1270.69 396.45
  L 1270.74 399.34
  Q 1270.75 399.93 1271.35 399.95
  L 1274.39 400.08
  Q 1274.95 400.10 1274.96 400.65
  L 1274.99 403.14
  A 0.90 0.88 -0.3 0 0 1275.89 404.01
  L 1282.29 404.02
  Q 1283.35 404.02 1283.34 402.98
  L 1283.30 396.62
  Q 1283.29 395.59 1282.39 395.63
  L 1279.72 395.75
  Q 1279.02 395.79 1279.01 395.00
  L 1279.00 388.34
  Q 1278.99 387.44 1279.87 387.45
  L 1286.96 387.57
  Q 1287.46 387.58 1287.46 387.06
  L 1287.51 380.93
  L 1295.72 386.41
  L 1295.80 390.90
  Q 1295.81 391.41 1296.32 391.50
  Q 1300.35 392.23 1300.29 389.83
  Q 1306.37 394.72 1312.26 400.00
  Q 1321.08 407.91 1326.59 418.42
  A 0.97 0.97 0.0 0 1 1325.94 419.82
  C 1325.21 419.98 1324.46 420.07 1323.70 419.74
  Q 1319.04 417.73 1313.98 417.06
  Q 1302.29 415.53 1290.51 416.08
  Q 1256.77 417.63 1227.27 433.66
  Q 1224.77 433.46 1224.84 431.79
  Q 1224.87 430.96 1225.03 429.58
  Q 1225.09 429.02 1225.66 429.01
  L 1228.00 428.99
  Q 1229.00 428.98 1229.00 428.01
  L 1228.95 421.66
  Q 1228.94 420.72 1228.10 420.73
  L 1225.95 420.75
  Q 1224.99 420.76 1224.98 419.72
  L 1224.97 413.34
  Q 1224.97 412.43 1225.88 412.47
  L 1236.62 412.92
  Q 1237.28 412.95 1237.35 413.60
  L 1237.56 415.55
  Q 1237.68 416.57 1238.78 416.55
  L 1240.28 416.52
  Q 1241.31 416.50 1241.36 415.47
  L 1242.06 401.38
  Q 1242.09 400.82 1242.54 400.50
  Q 1243.21 400.02 1244.38 399.83
  A 1.51 1.32 -1.2 0 0 1245.60 398.72
  L 1245.93 396.77
  Q 1246.05 396.10 1246.78 395.99
  L 1249.07 395.65
  Q 1249.54 395.58 1249.63 395.11
  Q 1250.29 391.43 1249.76 388.09
  Q 1249.68 387.61 1249.23 387.55
  L 1246.49 387.18
  Q 1245.89 387.10 1245.88 386.45
  L 1245.86 384.01
  Q 1245.86 383.43 1246.46 383.41
  L 1249.33 383.29
  A 0.62 0.62 0.0 0 0 1249.93 382.67
  L 1249.96 371.25
  Q 1249.96 370.72 1250.50 370.72
  L 1253.19 370.72
  A 0.73 0.73 0.0 0 1 1253.92 371.42
  L 1254.04 374.25
  Q 1254.07 374.92 1254.75 374.95
  L 1257.70 375.07
  Q 1258.31 375.10 1258.29 375.71
  L 1258.18 378.11
  A 0.89 0.83 1.2 0 0 1259.07 378.97
  L 1265.76 379.00
  Q 1266.54 379.00 1266.54 379.77
  L 1266.54 386.50
  Q 1266.54 387.38 1265.76 387.40
  L 1263.36 387.43
  Q 1262.82 387.44 1262.65 387.95
  Q 1262.14 389.45 1262.68 390.73
  Q 1262.88 391.20 1263.37 391.36
  Q 1264.91 391.85 1266.50 391.50
  Z"
/>
<path fill="#1936c8" d="
  M 1295.72 386.41
  L 1300.29 389.83
  Q 1300.35 392.23 1296.32 391.50
  Q 1295.81 391.41 1295.80 390.90
  L 1295.72 386.41
  Z"
/>
<path fill="#000000" d="
  M 1266.50 391.50
  L 1266.69 387.93
  Q 1266.72 387.39 1267.28 387.43
  L 1270.23 387.65
  Q 1270.77 387.69 1270.76 388.23
  L 1270.76 390.67
  Q 1270.76 391.24 1270.18 391.28
  L 1266.50 391.50
  Z"
/>
<path fill="#1936c8" d="
  M 1245.77 454.34
  L 1245.65 458.36
  L 1233.18 455.52
  L 1233.32 452.36
  Q 1234.15 451.24 1235.08 451.39
  Q 1240.12 452.22 1245.77 454.34
  Z"
/>
<path fill="#000000" d="
  M 1233.32 452.36
  L 1233.18 455.52
  L 1228.21 454.47
  Q 1229.39 453.51 1229.00 451.49
  L 1233.32 452.36
  Z"
/>
<path fill="#000000" d="
  M 1308.86 792.78
  Q 1308.23 793.79 1308.24 794.75
  Q 1308.25 795.76 1307.29 795.77
  L 1304.86 795.82
  Q 1304.09 795.83 1304.03 795.09
  L 1303.80 792.04
  Q 1303.77 791.56 1303.29 791.54
  L 1300.72 791.39
  Q 1300.07 791.35 1300.02 790.72
  L 1299.80 787.99
  A 0.59 0.56 87.8 0 0 1299.25 787.45
  L 1296.72 787.43
  Q 1296.06 787.42 1296.04 786.73
  L 1295.62 775.58
  Q 1295.60 775.06 1295.08 775.04
  L 1292.22 774.94
  A 0.73 0.72 1.1 0 1 1291.52 774.22
  L 1291.55 767.00
  Q 1291.56 766.44 1291.00 766.44
  L 1284.16 766.47
  A 0.84 0.82 -0.3 0 1 1283.31 765.66
  L 1283.29 763.24
  Q 1283.29 762.46 1282.52 762.45
  L 1279.77 762.40
  Q 1278.97 762.39 1278.97 763.22
  L 1278.96 778.24
  A 0.78 0.78 0.0 0 0 1279.74 779.02
  L 1286.19 778.99
  Q 1287.64 778.99 1287.58 780.42
  L 1287.33 785.73
  Q 1287.26 787.31 1285.73 787.37
  Q 1283.42 787.47 1283.03 790.16
  Q 1282.95 790.68 1282.47 790.91
  Q 1281.45 791.40 1280.34 791.45
  A 1.13 1.11 -89.3 0 0 1279.28 792.50
  L 1278.82 799.45
  A 0.65 0.61 -87.5 0 1 1278.20 800.06
  L 1276.26 800.02
  Q 1275.06 800.00 1275.00 801.21
  L 1274.93 802.67
  Q 1274.87 803.78 1275.98 803.88
  L 1278.39 804.10
  Q 1278.99 804.15 1278.99 804.76
  L 1279.00 811.87
  Q 1279.00 812.47 1278.35 812.47
  L 1275.70 812.46
  Q 1275.18 812.45 1275.14 813.00
  L 1274.94 815.81
  A 0.73 0.72 1.8 0 1 1274.22 816.48
  L 1267.28 816.52
  Q 1266.50 816.52 1266.51 815.78
  L 1266.54 813.01
  Q 1266.54 812.48 1266.01 812.48
  L 1263.26 812.47
  Q 1262.66 812.47 1262.64 811.87
  L 1262.54 808.98
  Q 1262.51 808.19 1261.74 808.18
  L 1258.92 808.13
  A 0.74 0.73 0.9 0 0 1258.17 808.85
  L 1258.12 811.87
  A 0.68 0.61 0.2 0 1 1257.45 812.47
  L 1254.79 812.49
  Q 1254.08 812.49 1254.06 811.78
  L 1253.96 808.70
  Q 1253.95 808.20 1253.45 808.20
  L 1250.52 808.17
  A 0.48 0.48 0.0 0 0 1250.04 808.65
  L 1249.90 814.77
  L 1247.26 815.48
  Q 1246.77 815.61 1246.32 815.41
  Q 1245.84 815.19 1245.31 815.14
  Q 1244.76 815.10 1244.69 815.65
  Q 1243.08 828.07 1240.51 839.84
  Q 1240.43 840.24 1240.72 840.52
  Q 1252.49 851.57 1259.56 866.14
  Q 1258.31 866.37 1258.18 869.58
  Q 1258.13 870.82 1259.36 870.74
  L 1261.59 870.61
  Q 1268.34 887.72 1269.88 906.15
  Q 1270.08 908.62 1270.50 913.22
  Q 1270.83 916.87 1270.67 920.30
  Q 1269.91 936.68 1269.52 941.01
  Q 1269.37 942.59 1267.91 947.07
  A 1.08 1.08 0.0 0 1 1267.26 947.75
  Q 1264.26 948.88 1263.15 946.85
  Q 1257.05 935.62 1247.02 928.21
  Q 1235.84 919.95 1221.24 913.81
  Q 1220.77 913.61 1220.61 914.11
  Q 1217.92 922.40 1217.97 925.03
  Q 1218.26 938.22 1217.15 949.76
  Q 1217.10 950.27 1217.44 950.66
  Q 1221.26 955.01 1223.59 960.72
  Q 1229.14 974.29 1230.39 988.76
  Q 1231.92 1006.36 1230.71 1022.53
  Q 1230.53 1024.97 1229.73 1028.74
  C 1229.11 1031.68 1226.93 1036.36 1223.32 1034.56
  Q 1222.85 1034.33 1222.70 1033.83
  Q 1220.78 1027.60 1218.33 1022.98
  C 1214.20 1015.21 1212.08 1009.96 1206.10 1005.64
  Q 1205.44 1005.16 1205.24 1005.95
  L 1201.40 1020.98
  Q 1201.08 1020.49 1200.91 1020.60
  A 2.24 1.68 78.0 0 0 1200.11 1022.32
  L 1200.07 1028.30
  Q 1200.06 1028.93 1199.45 1028.92
  L 1195.25 1028.81
  Q 1198.18 1013.69 1203.20 999.22
  C 1203.53 998.28 1204.32 997.40 1204.65 996.37
  Q 1207.01 989.13 1208.41 982.70
  Q 1208.83 980.80 1213.14 959.88
  C 1213.91 956.13 1214.38 951.13 1214.28 946.70
  Q 1213.96 933.49 1215.47 920.50
  Q 1215.88 916.90 1217.37 912.90
  Q 1218.78 909.10 1219.84 905.42
  Q 1228.31 876.09 1231.57 862.42
  Q 1233.11 855.95 1235.29 849.79
  Q 1235.94 847.93 1236.62 844.16
  Q 1240.66 821.87 1242.87 802.45
  Q 1243.76 794.60 1244.90 782.56
  Q 1247.80 751.95 1251.37 729.34
  Q 1251.51 728.43 1251.35 728.26
  Q 1251.19 728.08 1251.02 727.88
  Q 1250.68 727.48 1250.78 726.95
  Q 1253.97 710.71 1254.50 700.37
  Q 1254.65 697.45 1255.12 694.71
  Q 1255.62 691.75 1255.63 691.70
  Q 1259.48 660.31 1260.02 626.84
  Q 1260.02 626.75 1260.22 620.19
  Q 1260.41 613.65 1260.02 607.78
  Q 1259.87 605.46 1260.59 602.41
  Q 1260.89 601.15 1261.43 600.47
  C 1262.07 599.67 1262.36 598.91 1262.21 597.78
  Q 1261.44 591.93 1258.51 585.49
  Q 1257.49 583.23 1255.65 581.44
  Q 1251.74 577.63 1250.73 572.32
  Q 1250.43 570.73 1250.16 572.33
  Q 1249.79 574.54 1250.37 577.02
  A 0.20 0.20 0.0 0 1 1250.19 577.26
  L 1249.89 577.27
  Q 1249.82 577.27 1249.79 577.20
  L 1247.17 570.43
  Q 1247.01 570.02 1247.10 569.56
  Q 1247.71 566.44 1247.51 565.37
  Q 1247.41 564.86 1247.85 564.57
  Q 1249.19 563.71 1249.14 562.12
  Q 1248.97 556.66 1248.97 555.74
  Q 1248.96 554.65 1249.84 553.85
  Q 1250.20 553.53 1250.25 553.04
  Q 1251.07 546.35 1254.00 534.57
  C 1255.36 529.10 1255.52 522.60 1256.08 516.64
  L 1257.60 516.43
  Q 1258.15 516.35 1258.17 515.80
  L 1258.30 513.25
  A 0.60 0.60 0.0 0 0 1257.83 512.64
  L 1256.31 512.30
  L 1256.34 508.37
  Q 1258.90 508.95 1258.22 504.78
  Q 1258.14 504.27 1257.64 504.11
  Q 1257.03 503.92 1256.27 504.00
  Q 1256.25 494.36 1256.00 484.76
  Q 1255.88 479.87 1255.29 474.92
  L 1262.31 474.95
  Q 1262.52 474.95 1262.52 474.74
  L 1262.52 466.74
  A 0.32 0.31 -89.9 0 0 1262.21 466.43
  L 1255.00 466.40
  Q 1254.35 463.13 1251.67 461.78
  Q 1251.08 461.48 1251.18 462.14
  Q 1251.23 462.44 1251.54 462.97
  Q 1251.82 463.47 1251.26 463.39
  Q 1248.61 463.05 1248.97 460.26
  Q 1249.04 459.74 1248.56 459.55
  L 1245.65 458.36
  L 1245.77 454.34
  Q 1270.73 462.36 1293.45 475.20
  Q 1299.00 478.33 1303.93 482.14
  Q 1310.77 487.42 1314.03 490.09
  Q 1329.09 502.44 1344.07 518.93
  C 1345.58 520.60 1346.45 522.89 1347.80 524.62
  Q 1356.63 535.87 1361.11 545.94
  Q 1363.71 551.78 1357.96 548.98
  C 1356.41 548.23 1354.50 547.15 1352.55 546.57
  Q 1340.52 543.01 1327.94 544.67
  Q 1311.97 546.79 1310.01 546.98
  Q 1298.83 548.11 1292.25 549.99
  Q 1280.33 553.40 1271.83 556.80
  Q 1256.26 563.04 1254.21 563.90
  Q 1252.77 564.50 1252.88 566.07
  Q 1253.42 573.80 1258.59 579.61
  Q 1260.91 582.23 1261.76 584.29
  C 1264.56 591.11 1266.35 595.74 1265.19 601.87
  Q 1265.03 602.77 1265.89 603.06
  C 1299.73 614.71 1328.74 636.83 1347.48 667.30
  Q 1352.03 674.70 1353.47 677.28
  C 1359.59 688.25 1361.51 701.13 1361.79 713.77
  A 1.62 1.62 0.0 0 1 1359.68 715.34
  Q 1353.18 713.29 1348.52 711.31
  Q 1340.23 707.79 1337.47 706.84
  Q 1314.24 698.91 1288.81 697.92
  Q 1273.53 697.33 1258.33 698.31
  Q 1257.80 698.34 1257.78 698.87
  Q 1257.46 707.45 1255.68 718.40
  A 0.76 0.76 0.0 0 0 1256.13 719.22
  Q 1275.10 727.29 1287.31 742.98
  Q 1289.75 746.11 1293.45 752.24
  Q 1297.20 758.46 1297.26 758.55
  C 1303.40 768.80 1307.16 781.00 1308.86 792.78
  Z"
/>
<path fill="#1936c8" d="
  M 1255.29 474.92
  L 1255.00 466.40
  L 1262.21 466.43
  A 0.32 0.31 -89.9 0 1 1262.52 466.74
  L 1262.52 474.74
  Q 1262.52 474.95 1262.31 474.95
  L 1255.29 474.92
  Z"
/>
<path fill="#1936c8" d="
  M 1256.34 508.37
  L 1256.27 504.00
  Q 1257.03 503.92 1257.64 504.11
  Q 1258.14 504.27 1258.22 504.78
  Q 1258.90 508.95 1256.34 508.37
  Z"
/>
<path fill="#1936c8" d="
  M 1256.08 516.64
  L 1256.31 512.30
  L 1257.83 512.64
  A 0.60 0.60 0.0 0 1 1258.30 513.25
  L 1258.17 515.80
  Q 1258.15 516.35 1257.60 516.43
  L 1256.08 516.64
  Z"
/>
<path fill="#1936c8" d="
  M 1308.86 792.78
  Q 1311.59 803.09 1310.88 813.74
  Q 1310.29 822.55 1309.27 829.29
  Q 1308.73 832.94 1307.30 836.14
  A 0.47 0.47 0.0 0 1 1306.64 836.35
  Q 1292.13 827.74 1275.28 821.78
  Q 1271.07 820.29 1262.61 818.19
  Q 1256.26 816.61 1249.90 814.77
  L 1250.04 808.65
  A 0.48 0.48 0.0 0 1 1250.52 808.17
  L 1253.45 808.20
  Q 1253.95 808.20 1253.96 808.70
  L 1254.06 811.78
  Q 1254.08 812.49 1254.79 812.49
  L 1257.45 812.47
  A 0.68 0.61 0.2 0 0 1258.12 811.87
  L 1258.17 808.85
  A 0.74 0.73 0.9 0 1 1258.92 808.13
  L 1261.74 808.18
  Q 1262.51 808.19 1262.54 808.98
  L 1262.64 811.87
  Q 1262.66 812.47 1263.26 812.47
  L 1266.01 812.48
  Q 1266.54 812.48 1266.54 813.01
  L 1266.51 815.78
  Q 1266.50 816.52 1267.28 816.52
  L 1274.22 816.48
  A 0.73 0.72 1.8 0 0 1274.94 815.81
  L 1275.14 813.00
  Q 1275.18 812.45 1275.70 812.46
  L 1278.35 812.47
  Q 1279.00 812.47 1279.00 811.87
  L 1278.99 804.76
  Q 1278.99 804.15 1278.39 804.10
  L 1275.98 803.88
  Q 1274.87 803.78 1274.93 802.67
  L 1275.00 801.21
  Q 1275.06 800.00 1276.26 800.02
  L 1278.20 800.06
  A 0.65 0.61 -87.5 0 0 1278.82 799.45
  L 1279.28 792.50
  A 1.13 1.11 -89.3 0 1 1280.34 791.45
  Q 1281.45 791.40 1282.47 790.91
  Q 1282.95 790.68 1283.03 790.16
  Q 1283.42 787.47 1285.73 787.37
  Q 1287.26 787.31 1287.33 785.73
  L 1287.58 780.42
  Q 1287.64 778.99 1286.19 778.99
  L 1279.74 779.02
  A 0.78 0.78 0.0 0 1 1278.96 778.24
  L 1278.97 763.22
  Q 1278.97 762.39 1279.77 762.40
  L 1282.52 762.45
  Q 1283.29 762.46 1283.29 763.24
  L 1283.31 765.66
  A 0.84 0.82 -0.3 0 0 1284.16 766.47
  L 1291.00 766.44
  Q 1291.56 766.44 1291.55 767.00
  L 1291.52 774.22
  A 0.73 0.72 1.1 0 0 1292.22 774.94
  L 1295.08 775.04
  Q 1295.60 775.06 1295.62 775.58
  L 1296.04 786.73
  Q 1296.06 787.42 1296.72 787.43
  L 1299.25 787.45
  A 0.59 0.56 87.8 0 1 1299.80 787.99
  L 1300.02 790.72
  Q 1300.07 791.35 1300.72 791.39
  L 1303.29 791.54
  Q 1303.77 791.56 1303.80 792.04
  L 1304.03 795.09
  Q 1304.09 795.83 1304.86 795.82
  L 1307.29 795.77
  Q 1308.25 795.76 1308.24 794.75
  Q 1308.23 793.79 1308.86 792.78
  Z"
/>
<path fill="#1936c8" d="
  M 1259.56 866.14
  L 1261.59 870.61
  L 1259.36 870.74
  Q 1258.13 870.82 1258.18 869.58
  Q 1258.31 866.37 1259.56 866.14
  Z"
/>
<path fill="#1936c8" d="
  M 1201.40 1020.98
  L 1200.76 1026.39
  A 1.09 1.09 0.0 0 0 1201.01 1027.23
  L 1204.40 1031.20
  L 1203.93 1032.76
  Q 1203.78 1033.26 1203.30 1033.25
  L 1200.50 1033.22
  A 0.53 0.50 -89.6 0 0 1199.99 1033.74
  L 1199.95 1049.33
  A 0.63 0.63 0.0 0 0 1200.58 1049.96
  L 1203.23 1049.98
  A 0.78 0.78 0.0 0 1 1204.00 1050.75
  L 1204.03 1053.20
  Q 1204.04 1053.97 1203.25 1054.02
  L 1200.01 1054.18
  Q 1198.42 1053.17 1197.06 1051.89
  Q 1195.61 1050.54 1195.30 1048.76
  Q 1194.89 1046.50 1194.20 1044.37
  Q 1193.61 1042.54 1193.43 1039.93
  Q 1193.02 1034.03 1195.25 1028.81
  L 1199.45 1028.92
  Q 1200.06 1028.93 1200.07 1028.30
  L 1200.11 1022.32
  A 2.24 1.68 78.0 0 1 1200.91 1020.60
  Q 1201.08 1020.49 1201.40 1020.98
  Z"
/>
<path fill="#000000" d="
  M 1212.15 1054.08
  L 1208.86 1054.07
  Q 1208.24 1054.07 1208.24 1054.63
  L 1208.28 1057.71
  Q 1208.29 1058.19 1207.78 1058.20
  L 1203.47 1058.28
  L 1200.01 1054.18
  L 1203.25 1054.02
  Q 1204.04 1053.97 1204.03 1053.20
  L 1204.00 1050.75
  A 0.78 0.78 0.0 0 0 1203.23 1049.98
  L 1200.58 1049.96
  A 0.63 0.63 0.0 0 1 1199.95 1049.33
  L 1199.99 1033.74
  A 0.53 0.50 -89.6 0 1 1200.50 1033.22
  L 1203.30 1033.25
  Q 1203.78 1033.26 1203.93 1032.76
  L 1204.40 1031.20
  Q 1211.14 1041.37 1212.15 1054.08
  Z"
/>
<path fill="#1936c8" d="
  M 1212.15 1054.08
  C 1212.84 1057.33 1212.81 1062.62 1209.92 1064.95
  A 1.42 1.42 0.0 0 1 1207.85 1064.64
  L 1203.47 1058.28
  L 1207.78 1058.20
  Q 1208.29 1058.19 1208.28 1057.71
  L 1208.24 1054.63
  Q 1208.24 1054.07 1208.86 1054.07
  L 1212.15 1054.08
  Z"
/>
</svg>
