<svg xmlns="http://www.w3.org/2000/svg" viewBox="0 0 382 382"><g fill="none" stroke="gray" stroke-width="2"><path d="M254.04 60.56q-2.83 4.98-3.99 7.29-.14.28-.05.9M246.79 70.7l-5.74-5.65q-.26-.26-.52 0-.2.19-.04.42 1.05 1.49 2.16 2.74.87.97-.38.59-5.64-1.72-11.94-2.56-1.46-.2-2.99-2.12M238.18 60.47q.68.26.79-.22" vector-effect="non-scaling-stroke"/><path d="M244.47 72.26q-.83-.11-1.06-.76-.1-.26 0-.52.1-.27.39-.39.65-.24.09-.65-.45-.33-.84-.09-.44.28-.93.09-3.31-1.31-7.16-1.95-.2-.03-.25.17l-.07.24q-.01.06.05.08 3.36.88 6.68 2.15.33.13.22.45l-.1.32q-.04.11-.15.09-4.02-.94-7.73-2.74c-3.59-1.73-7.52-1.64-11.39-1.01M223.68 66.28l4.16.07q.51.01.1-.3l-1.9-1.42M255.04 60.69l-4.07 7.51M244.45 72.67l-1.44 1.1M232.62 74.94q-4.14-2.62-8.81-3.79M245.99 73.81l-1.56.63M224.19 61.89q.11 1.02-.57 1.2a.54.52-29.7 0 1-.47-.12q-.19-.17-.44-.24-.42-.12-.8.09-2.21 1.17-3.52 3.24M215.9 69.04l-5.95 1.47M247.25 74.96l-.26.64M221.38 61.53q-2.9 2.86-5.85 5.53-.82.75-5.33 1.45-.48.08-.66-.38-.27-.67-.86-1.16-.56-.46-.57.27 0 .85.58 1.52a.24.23-15.6 0 1-.22.38q-2-.34-4.06.2-.24.07-.3.31l-.07.29a.21.2 1.7 0 0 .24.25q1.86-.37 3.02.95" vector-effect="non-scaling-stroke"/><path d="m201.45 70.96 5.1-6.95q.56-.76.58.18.03.86.53 1.59.54.79.48-.17l-.25-4.2M248.03 75.34l-.32.7M200.18 70.72q-4.08-1.45-8.43-2.32-.34-.06-.78-.66M191.71 67.15l5.99 1.46a.26.26 0 0 0 .26-.41q-2.57-3.22-1.23-4.38M207.05 61.36l-5.49 7.1q-.32.41-.79.19c-2-.97-2.55-3.26-3.47-5.09M191.77 73.32l-1.18-3.51q-.14-.42-.57-.45-.66-.04-.45-.27M264.07 84.89q-1.06-1.17-2.09.01M259.72 84.91q.2-.35.22-.65.04-.58-.54-.59l-3.85-.06M254.87 82.49l1.63-4.48a.83.83 0 0 0-.87-1.11q-2.72.29-4.8 2.06M250.29 78.09l2.76-1.62q.37-.22.07-.52l-1.03-1.03M253.78 74.09q1.36 1.57 3.75.89.19-.05.27-.24.05-.12.05-.25.01-.36-.34-.43l-2.54-.48M257.28 72.38q1.24.18 2.49-.94.09-.09-.02-.14-.13-.05-.25-.11" vector-effect="non-scaling-stroke"/><path d="M189 73.92q.05-.75-.24-1.59-.16-.46.21-.77.63-.53.77-1.06.19-.75-.8-.85M280.59 68l-4.94 1.92q-.51.2-.91-.17l-.53-.5a.4.4 0 0 0-.68.27q-.05.77.23 1.52.23.61-.35.3-1.08-.59-1.88.68a.53.53 0 0 0 .45.81h2.32a1.78 1.71-29.1 0 1 .87.23q.66.38.97 1.04.69 1.47-.9 1.12l-4.75-1.05q-.31-.07-.38.24l-.07.31a.26.26 0 0 0 .18.3l2.81.76q1.02.28-.01.5l-3.87.84a.35.34-13 0 0-.26.4l.09.39q.05.23.28.18c3.09-.59 6.23-2.03 9.25-.76M272.27 82.29c-2.05-.54-6.09-.88-5.95 2.47M265.04 84.91q.44-.75.27-1.54-.06-.26-.32-.32l-.34-.08q-.46-.1-.81-.42l-4.97-4.66q-.55-.52.18-.32 4.16 1.09 8.42.52.25-.03.23-.28l-.01-.29q-.01-.24-.25-.23-4.95.2-7.71-.53-2.28-.61-.17-1.66 3.79-1.88 8.94-.31.3.09.36-.22l.05-.26q.05-.24-.18-.31-.77-.26-1.55-.53-.93-.33.06-.29 1.57.05 2.9-.48a1.05 1.01 1.1 0 0 .53-.49l.19-.36a.27.27 0 0 0-.27-.39l-9.5 1.2q-.5.06-.51-.45l-.04-1.27" vector-effect="non-scaling-stroke"/><path d="M282.72 68.21q-3.48 1.67-5.84 2.44-2.94.96.14 1.2l4.26.34q.59.05 1.01-.36l3.59-3.5M286.71 68.76l-2.56 3.43q-.29.39.11.65.6.41 1.42.59M284.26 74.01q-.74-.73-1.49-.17-.9.66-1.78 2.12M280.27 76.29q-.47-1 .42-1.74.17-.13.02-.29l-.21-.23a.09.09 0 0 0-.14.01q-.55.78-1.43 1.09-.67.23-.19.76.45.5 1.26.61M270.92 83.17q-1.67-.39-2.95.12-1.15.46.04.79l2.02.56M285.78 86.23q.48.16.91-.04" vector-effect="non-scaling-stroke"/><path d="M288.74 86.11q-.38.79-1.25.81-.49.01-.84-.34-.65-.64-1.12.13-1.22 1.97-3.43 2.04M271.21 84.91l-.66-.1M293.47 86.42l7.29 5q.18.12.33-.05l.18-.22a.22.21 41.9 0 0-.02-.29l-3.95-3.77" vector-effect="non-scaling-stroke"/><path d="m298.98 87.53 2.99 2.62q.42.38.95.16l1.61-.66q.18-.07.26.1l.22.45q.14.29-.17.39-.74.23-1.17.83-.53.73.37.64.23-.03.43.09.75.46.03.96t-.61 1.37q.07.53.74 1.16 2.03 1.9 3.59 4.24M306.98 99.97l-3.09-4.38a.87.86-35.4 0 0-1.21-.2l-4.85 3.45q-.59.42-.11.98l1.68 1.95" vector-effect="non-scaling-stroke"/><path d="M298.51 102.29q-1.77-3.67-5.08-1.39-.24.16-.33-.11l-.09-.25a.04.03 69.2 0 1 .02-.05l1.43-.57a.91.9-37.1 0 0 .22-1.56q-.6-.45-.77-1.1-.18-.68.45-.36.8.4 1.33 1.1a.95.94 53.4 0 0 1.3.2l4.88-3.47a.36.36 0 0 0-.04-.61c-2.33-1.29-5.22.74-7.23 1.86q-.41.23-.57-.21l-.17-.48q-.02-.05.03-.07 2.02-.95 3.65-1.87.88-.51-.14-.5-1.09 0-1.98-.61-.83-.56.18-.59 1.39-.04 2.75.32 1.97.51.41-.79-2.89-2.39-6.84-4.39-.46-.23-.95-.11-3.2.78-5.39 2.58-.59.49.16.6l8.44 1.27q.14.02.12.17l-.06.54q-.03.24-.27.21l-6.33-.88q-1.2-.16-.2.52l5.37 3.69a.68.68 0 0 1-.14 1.2l-9 3.39M282.02 98.88q.87-1.43.66-3.43M283.05 93.71l.71-1.68q.22-.51-.22-.85l-.75-.57M290.61 106.58l-2.44-1.96a.48.48 0 0 1 .11-.82l2.85-1.27q.24-.11.34-.35.11-.25-.27-.36-.27-.07-.55.02l-3.5 1.24a1.01 1 45.4 0 1-.66-.01q-1.03-.36-1.96-1.41M314.51 95.71q-.18.84-.61 1.27-.33.33-.78.18-4.07-1.43-7.73-3.51-.28-.16-.38.15l-.1.3a.72.72 0 0 0 .17.72l4.72 5.06M291.54 107.48l-.55.54M287.79 105.93q-.53-1.41-1.79-1.25M315.69 96.71q-.64.66-.15 1.56.49.92 1.76.67M315.55 99.98q.42-.4-.33-.74-1.16-.53-1.48.66" vector-effect="non-scaling-stroke"/><path d="M311.84 99.78q.52-.49.7-1.01.2-.54-.33-.79l-3.22-1.51q-.92-.44-.26.34l2.54 2.99M298.05 108.76l-.29.9M299.22 109.21l-.24.83M306.26 111.9q1.23 3.03 3.39 5.24.37.39.24-.13-.64-2.39-2.47-4.49M313.49 116.27q.05 2.38.39 3.8.06.26.3.27.41.02.41-.39l.07-2.78M317.78 119.77q-.64 1.31-1.06 2.01-.74 1.18.22.17.68-.72 1.79-1.3M322.69 124.63l.41 4.07q.05.47-.36.71l-1.96 1.16M311.46 131.72q-1.93-1.67-4.26-2.66-.21-.09-.3.11v.01q-.09.21.11.3 1.8.89 3.13 2.39M308.88 132.2q-1.32-.7-1.86.6" vector-effect="non-scaling-stroke"/><path d="M305.06 133.72q-.86-2.07-.6-3.87a.71.71 0 0 1 .36-.52l6.78-3.71a.49.49 0 0 1 .7.25q.82 2.14.89 4.66.02.65.68.62l.3-.01a.32.32 0 0 0 .31-.33q-.05-3.71.47-7.83.12-.92-.55-1.43-.6-.46-.59.29.02.89-.34 1.67-.15.34-.01.68.3.74.28 1.55-.01.33-.14.03l-2.56-5.95q-.06-.14-.19-.08l-.37.14q-.23.09-.15.32l1.42 3.88q.22.6-.39.79-2.8.85-4.77 2.78a1.29 1.23-72.9 0 1-.5.28q-.78.21-1.17-.25-.63-.74-.69.18l-.45 6.37M300.98 135.5q-.67-.17-1.19-.57M299.94 133l2.02.89q.44.19.23-.24-.55-1.17-1.95-1.68M300.33 130.99q1.76.01 2.75-1.5.21-.32-.1-.56l-.23-.18q-.14-.1-.26.03-.83.98-2.01 1.46M301.1 125.93q1.05.21 1.11 1.72a.23.23 0 0 0 .35.18l.37-.24a.69.67 65.8 0 0 .28-.76q-.43-1.49-2.11-2.38M301.32 124.01q.24.08.32-.26.12-.5-.17-.73M301.53 119.66q2.2-1.41 4.6-2.39.18-.07.11-.25v-.01q-.07-.18-.25-.12-2.26.73-4.48 1.59M325.09 128.22q-.19 1.47-1.06 2.75M322.92 130.75q-.01-.13-.12-.23-.17-.15-.35-.03-.14.09-.2.22M300.92 136.97q-.97-.91-1.53-.48M300.96 137.71q-.29.42-.71.46M317.53 152.95q-.84 1.26-2.1 1.91a1.06 1.05-45.3 0 1-.94.01c-1.53-.74-2.22-2.15-3.78-2.9q-1.23-.59-2.56-.83c-1.9-.33-3.55-1.68-5.33-2.39q-.32-.13-.57.11-.18.17-.11.35M302.36 146.91l1.47.17q.66.07.22-.43-.68-.78-1.64-1.32M318.31 153.67q-.76 1.11-1.78 1.6a.53.53 0 0 0-.06.92l3.67 2.37q.45.29.94.09l.38-.15q.65-.26.73.43c.1.77.77 1.16.79 1.67q.01.14 0 .29-.03.64-.64.42l-.58-.22q-.31-.12-.56.1-.12.1-.14.24-.07.51.44.61.33.06.42.36.15.5-.37.55l-2.5.21a1.07 1.07 0 0 0-.79.48q-1.25 1.92-3.28 3.22-.2.12-.38.01-.52-.31-.08-.73l1.86-1.76q.2-.19.01-.39l-.18-.19a.06.06 0 0 0-.09.01q-1.56 1.88-3.9 2.18" vector-effect="non-scaling-stroke"/><path d="M312.22 165.99q1.44-1.72 3.13-2.62.96-.51-.12-.68l-5.33-.81q-.49-.07-.82.3l-4.72 5.42M303.07 167.64l5.1-5.93q.1-.11 0-.23l-.19-.21q-.31-.35-.62 0-.6.67-1.19.05-.39-.42-.96-.53-1.72-.32-3.22-1.56M302.05 158.41l2.44.28a.49.48-71.2 0 0 .46-.23q.14-.23.42-.31.74-.2.44.5l-.2.46q-.28.65.41.8l2.37.49q.71.14 1.24-.35l3.78-3.45q.67-.6-.09-1.08-2.09-1.32-4.13-2.43-1.57-.86-3.43-.09-1.17.49-.61-.64.21-.43.69-.63.7-.29 0-.59l-3.55-1.5" vector-effect="non-scaling-stroke"/><path d="M312.22 165.99q-1.18-.04-1.73 1.82M301.85 170.01q-.32-.52-.78-.26M302.26 153.91l.56-.4q.52-.38-.1-.55l-.42-.12M324.35 161.42q-.58.47-.66.95-.09.56.45.73.49.15 1.07.05M326.2 167.04q-.72-.36-1.26.53c-.73 1.2-.16 2.1-1.5 3.16M322.03 169.93l.74-.81q.39-.43-.19-.48-1.3-.11-2.07 1.07" vector-effect="non-scaling-stroke"/><path d="M313.03 167.91q1.18-.46-.28-.58-.33-.02-.48-.18-.4-.42-.05-1.16M301.78 171.23q-.78.57-1.16.25M326.73 169.94l-1.94 1.17M302.3 173.03l-2.08 1.74M305.81 175.15c-1.69-.64-4.04 1.02-5.65 1.62M305.81 175.15q.25 2.04 2.17 2.59.58.16.65.76l.2 1.58a.95.95 0 0 0 .52.74q.72.34 1.58.4M311.25 181.8l-5.53 2.08a.75.75 0 0 0-.48.81l.05.35a.07.06 81.3 0 0 .07.06q2.7-.58 4.67-1.96.51-.37 1.14-.29l.8.09M313.49 187.63q-1.52 2.9-2.01 3.53-1.08 1.42-1.56 3.15-.53 1.95-1.18 3.95M306.92 197.49q1.25-.16 1.47-.81a.55.55 0 0 0-.76-.68q-.97.47-1.31 1.25M304.45 196.64l-5.09-3.52a1.19 1.18-45.2 0 1 0-1.94q1.49-1.04 2.37-2.79.38-.76-.4-.42-2.11.96-2.84 2.13" vector-effect="non-scaling-stroke"/><path d="M298.62 188.03q2.77-.08 4.42-1.67.7-.68-.22-1.01l-.28-.09q-.92-.32-1.72.23l-1.85 1.28M313.84 189.28q-2.34 3.56-3.63 7.72c-.25.8-.06 1.3.29 2.01M301.46 195.64q-2.58-1.9-3.44-3.36" vector-effect="non-scaling-stroke"/><path d="M314.7 194.02q-1.09-1.32-2.35-.45-.48.34.04.62.9.48 2.27.05M314.67 196.34q-1.96 1.26-3.18 3.25M300.13 204.15q-.67 2.4.82 1.74M303.51 211.84q-1.76.09-2.89-.51-1.19-.65.05-1.19.66-.28 1.01-.85.51-.81-.41-.53l-3.84 1.18q-.51.16-.6.69l-.23 1.31q-.18 1.07.72.45l.49-.34q.43-.3.95-.19l5.2 1.17M304.27 214.27q-.71.45-1.53.63a1.68 1.6-39.2 0 1-1-.08q-2.49-1.01-5.06-.96-.19.01-.2.2l-.01.37q-.01.24.22.26l7.81.82M304.77 217.02l-5.06 1.48a1.04 1.04 0 0 1-.9-.16l-2.7-2.03q-.07-.05-.11.02l-.22.32q-.13.18.07.28 2.18 1.05.91 2.56-.36.43.19.43l1.57.01q.76.01.48.72l-.62 1.53M293.27 219.27q-.38-.27-.4-.73-.02-.31.17-.55.76-.96 1.71-1.63.38-.27.51-.73 1.13-4.22-.9-3.82M314.12 198.1q-.91 1.1-1.9 1.69M292.43 221.31q-.3.41-.92.39M304.89 219.71q-1.35.52-2.47 1.47-.56.48-.32 1.17.11.34-.38.47-.39.11-.78.03l-2.03-.42M294.2 232.52q-.38 1.74.71 3.16M295.51 238.13l-3.65 2.68q-.83.6-.29-.27c.81-1.34 1.95-1.89 2.17-3.58q.12-.9-.49-.23l-1.42 1.52q-.34.37-.84.46-.85.16-1.88.01M290.27 234.69l2.16.04q.25.01.23-.24l-.02-.29q-.02-.28-.29-.29l-.58-.04q-.68-.04-.37-.65.5-.95-.35-1.68M291.3 229.25q.49-.02.48-.49-.02-.48-.53-.48" vector-effect="non-scaling-stroke"/><path d="M304.72 223.1q-2.51-.69-3.62 1.26M295.52 241.75q-1.07 2.66-.34 4.88M288.93 243.03q-.74.48-.78 1.11-.02.47-.47.61-.21.06-.42.05M288.36 246.24l-1.58.72M289.87 249.03q-1.73-.18-2.83.43-.5.28.04.49 1.24.48 3.07-.03M289.53 254.71q.13-.51-.44-.53M286.96 251.89q1.98.39 3.06-.21.52-.29-.02-.52-1.56-.68-3.4.08M240.05 63.39q-.52-1.38-1.48-2.39-.58-.59-.34.2.43 1.44 1.36 2.47.97 1.09.46-.28M279.52 73.21q-1.23-.48-2.36-.13-.67.21-.14.66 1.05.91 2.54.12.69-.36-.04-.65M256.29 82.04a.31.31 0 0 0 .27.41l5.46.45a.31.31 0 0 0 .24-.54l-4.28-3.88a.31.31 0 0 0-.5.12l-1.19 3.44M285.53 91.67a.56.56 0 0 0-.86.35l-1.3 6.13a.56.56 0 0 0 .73.64l7.02-2.32a.56.56 0 0 0 .13-1l-5.72-3.8M302.49 93a.31.3 48.1 0 0 .39.03q.37-.25.24-.65a.39.39 0 0 0-.34-.27l-.68-.04q-.63-.04-.17.4l.56.53M308.38 149.927a1.65.4 31.3 0 0-1.202-1.199 1.65.4 31.3 0 0-1.618-.515 1.65.4 31.3 0 0 1.202 1.199 1.65.4 31.3 0 0 1.618.515M311.45 150.48q-.44.22.03.38.79.27 1.43-.12.53-.32-.08-.43-.76-.14-1.38.17M310.39 150.88q.31.14.56-.07-.28.03-.56.07M319.28 160.02l.26-.11q.75-.35 0-.69l-4.84-2.26q-.15-.07-.27.04l-4 3.63a.17.16-61.2 0 0 .08.29l7.25 1.13q.56.08.88-.38.23-.34.16-.73-.11-.64.48-.92M324.029 166.25a1.31.49 58.8 0 0-.26-1.374 1.31.49 58.8 0 0-1.098-.867 1.31.49 58.8 0 0 .26 1.375 1.31.49 58.8 0 0 1.098.867M309.32 165.16q.14.41.56.52.31.08.22-.23-.12-.43-.52-.56a.21.21 0 0 0-.26.27M304.54 185.59q.05-.03.07-.08.09-.31-.16-.1-.26.21-.35.53a.05.04-17.3 0 0 .08.04q.09-.1.22-.12.07-.01.07-.09-.01-.05.01-.1t.06-.08M305.572 191.058a1.79.53 52.4 0 0-.672-1.741 1.79.53 52.4 0 0-1.512-1.095 1.79.53 52.4 0 0 .672 1.741 1.79.53 52.4 0 0 1.512 1.095M306.26 193.95q-.14.15-.16.35-.07.62.52.4l2.28-.85q1.46-.55-.04-.97c-1.05-.29-2.01-.94-3.06-1.02q-1.54-.13-3.02-1.16a.42.41-46.8 0 0-.51.02l-.27.21q-.37.3.01.58c1.66 1.24 3.3-.2 4.32 2.05a.35.35 0 0 1-.07.39M297.967 208.524a1.2.42 136 0 0 1.155-.532 1.2.42 136 0 0 .571-1.136 1.2.42 136 0 0-1.155.532 1.2.42 136 0 0-.571 1.136M302.19 218.83q-.9.29-1.85.65-.66.24.02.43.93.26 2.04-.73.75-.66-.21-.35" vector-effect="non-scaling-stroke"/></g><path fill="#fff" d="M254.04 60.56q-2.83 4.98-3.99 7.29-.14.28-.05.9l-3.21 1.95-5.74-5.65q-.26-.26-.52 0-.2.19-.04.42 1.05 1.49 2.16 2.74.87.97-.38.59-5.64-1.72-11.94-2.56-1.46-.2-2.99-2.12c1.91-1.95 8.18-3.2 10.84-3.65q.68.26.79-.22 7.52-.63 15.07.31m-13.99 2.83q-.52-1.38-1.48-2.39-.58-.59-.34.2.43 1.44 1.36 2.47.97 1.09.46-.28"/><path d="M238.97 60.25q-.11.48-.79.22.38-.18.79-.22M255.04 60.69l-4.07 7.51q-.42.55-.97.55-.09-.62.05-.9 1.16-2.31 3.99-7.29.24-.53 1 .13M240.05 63.39q.51 1.37-.46.28-.93-1.03-1.36-2.47-.24-.79.34-.2.96 1.01 1.48 2.39"/><path fill="#fff" d="m250.97 68.2 4.07-7.51 6.58 1.68a2.26 2.03 3.3 0 1 1.63 1.64q.08.44-1.04.63-5.8.97-11.24 3.56M221.38 61.53q-2.9 2.86-5.85 5.53-.82.75-5.33 1.45-.48.08-.66-.38-.27-.67-.86-1.16-.56-.46-.57.27 0 .85.58 1.52a.24.23-15.6 0 1-.22.38q-2-.34-4.06.2-.24.07-.3.31l-.07.29a.21.2 1.7 0 0 .24.25q1.86-.37 3.02.95l-5.85-.18 5.1-6.95q.56-.76.58.18.03.86.53 1.59.54.79.48-.17l-.25-4.2zM207.05 61.36l-5.49 7.1q-.32.41-.79.19c-2-.97-2.55-3.26-3.47-5.09z"/><path d="m207.89 61.41.25 4.2q.06.96-.48.17-.5-.73-.53-1.59-.02-.94-.58-.18l-5.1 6.95-1.27-.24q-4.08-1.45-8.43-2.32-.34-.06-.78-.66.42-.59.74-.59l5.99 1.46a.26.26 0 0 0 .26-.41q-2.57-3.22-1.23-4.38.29-.13.57-.26c.92 1.83 1.47 4.12 3.47 5.09q.47.22.79-.19l5.49-7.1q.59-.38.84.05"/><path d="M224.19 61.89q.11 1.02-.57 1.2a.54.52-29.7 0 1-.47-.12q-.19-.17-.44-.24-.42-.12-.8.09-2.21 1.17-3.52 3.24-1.86 1.28-2.49 2.98l-5.95 1.47q-.82.71-2.65.63-1.16-1.32-3.02-.95a.21.2 1.7 0 1-.24-.25l.07-.29q.06-.24.3-.31 2.06-.54 4.06-.2a.24.23-15.6 0 0 .22-.38q-.58-.67-.58-1.52.01-.73.57-.27.59.49.86 1.16.18.46.66.38 4.51-.7 5.33-1.45 2.95-2.67 5.85-5.53.97-.51 2.81.36"/><path fill="#fff" d="M218.39 66.06q1.31-2.07 3.52-3.24.38-.21.8-.09.25.07.44.24a.54.52-29.7 0 0 .47.12q.68-.18.57-1.2.73-.18.8-.15 1.46.6-.02 1.12-3.18 1.12-6.58 3.2M196.73 63.82q-1.34 1.16 1.23 4.38a.26.26 0 0 1-.26.41l-5.99-1.46q2.59-2.36 5.02-3.33"/><path d="M227.34 64.12q1.53 1.92 2.99 2.12 6.3.84 11.94 2.56 1.25.38.38-.59-1.11-1.25-2.16-2.74-.16-.23.04-.42.26-.26.52 0l5.74 5.65-2.32 1.56q-.83-.11-1.06-.76-.1-.26 0-.52.1-.27.39-.39.65-.24.09-.65-.45-.33-.84-.09-.44.28-.93.09-3.31-1.31-7.16-1.95-.2-.03-.25.17l-.07.24q-.01.06.05.08 3.36.88 6.68 2.15.33.13.22.45l-.1.32q-.04.11-.15.09-4.02-.94-7.73-2.74c-3.59-1.73-7.52-1.64-11.39-1.01q.61-1.01 1.46-1.46l4.16.07q.51.01.1-.3l-1.9-1.42q.72-.71 1.3-.51"/><path fill="#fff" d="m226.04 64.63 1.9 1.42q.41.31-.1.3l-4.16-.07zM244.47 72.26l-.02.41-1.44 1.1-10.39 1.17q-4.14-2.62-8.81-3.79l-11-.93q-.48-.05-.94.09-1.01.31-1.92.2l5.95-1.47q1.69-.23 3.42-.03c1.43.17 2.06-.22 2.9-1.27 3.87-.63 7.8-.72 11.39 1.01q3.71 1.8 7.73 2.74.11.02.15-.09l.1-.32q.11-.32-.22-.45-3.32-1.27-6.68-2.15-.06-.02-.05-.08l.07-.24q.05-.2.25-.17 3.85.64 7.16 1.95.49.19.93-.09.39-.24.84.09.56.41-.09.65-.29.12-.39.39-.1.26 0 .52.23.65 1.06.76M190.97 67.74q.44.6.78.66 4.35.87 8.43 2.32-4.25.54-8.41 2.6l-1.18-3.51q-.14-.42-.57-.45-.66-.04-.45-.27zM280.59 68l-4.94 1.92q-.51.2-.91-.17l-.53-.5a.4.4 0 0 0-.68.27q-.05.77.23 1.52.23.61-.35.3-1.08-.59-1.88.68a.53.53 0 0 0 .45.81h2.32a1.78 1.71-29.1 0 1 .87.23q.66.38.97 1.04.69 1.47-.9 1.12l-4.75-1.05q-.31-.07-.38.24l-.07.31a.26.26 0 0 0 .18.3l2.81.76q1.02.28-.01.5l-3.87.84a.35.34-13 0 0-.26.4l.09.39q.05.23.28.18c3.09-.59 6.23-2.03 9.25-.76l-6.24 4.96c-2.05-.54-6.09-.88-5.95 2.47q-.64.21-1.28.15.44-.75.27-1.54-.06-.26-.32-.32l-.34-.08q-.46-.1-.81-.42l-4.97-4.66q-.55-.52.18-.32 4.16 1.09 8.42.52.25-.03.23-.28l-.01-.29q-.01-.24-.25-.23-4.95.2-7.71-.53-2.28-.61-.17-1.66 3.79-1.88 8.94-.31.3.09.36-.22l.05-.26q.05-.24-.18-.31-.77-.26-1.55-.53-.93-.33.06-.29 1.57.05 2.9-.48a1.05 1.01 1.1 0 0 .53-.49l.19-.36a.27.27 0 0 0-.27-.39l-9.5 1.2q-.5.06-.51-.45l-.04-1.27q9.96-3.28 13.21-3.24 3.34.04 6.84.3"/><path d="M282.72 68.21q-3.48 1.67-5.84 2.44-2.94.96.14 1.2l4.26.34q.59.05 1.01-.36l3.59-3.5q.55-.08.83.43l-2.56 3.43q-.29.39.11.65.6.41 1.42.59-.35.6-1.42.58-.74-.73-1.49-.17-.9.66-1.78 2.12-.27.25-.72.33-.47-1 .42-1.74.17-.13.02-.29l-.21-.23a.09.09 0 0 0-.14.01q-.55.78-1.43 1.09-.67.23-.19.76.45.5 1.26.61l-1.49.83c-3.02-1.27-6.16.17-9.25.76q-.23.05-.28-.18l-.09-.39a.35.34-13 0 1 .26-.4l3.87-.84q1.03-.22.01-.5l-2.81-.76a.26.26 0 0 1-.18-.3l.07-.31q.07-.31.38-.24l4.75 1.05q1.59.35.9-1.12-.31-.66-.97-1.04a1.78 1.71-29.1 0 0-.87-.23h-2.32a.53.53 0 0 1-.45-.81q.8-1.27 1.88-.68.58.31.35-.3-.28-.75-.23-1.52a.4.4 0 0 1 .68-.27l.53.5q.4.37.91.17l4.94-1.92q.96-.14 2.13.21m-3.2 5q-1.23-.48-2.36-.13-.67.21-.14.66 1.05.91 2.54.12.69-.36-.04-.65"/><path fill="#fff" d="m282.72 68.21 3.16.12-3.59 3.5q-.42.41-1.01.36l-4.26-.34q-3.08-.24-.14-1.2 2.36-.77 5.84-2.44M286.71 68.76q2.76.54 4.35 1.25 2.66 1.18-.18 1.8-2.28.5-5.2 1.62-.82-.18-1.42-.59-.4-.26-.11-.65z"/><path d="M189.57 69.09q-.21.23.45.27.43.03.57.45l1.18 3.51q-1.32.67-2.77.6.05-.75-.24-1.59-.16-.46.21-.77.63-.53.77-1.06.19-.75-.8-.85z"/><path fill="#fff" d="M188.94 69.65q.99.1.8.85-.14.53-.77 1.06-.37.31-.21.77.29.84.24 1.59l-1.6.56q-2.69.93-1.19-1.48.94-1.5 2.73-3.35"/><path d="m260.54 70.94.04 1.27q.01.51.51.45l9.5-1.2a.27.27 0 0 1 .27.39l-.19.36a1.05 1.01 1.1 0 1-.53.49q-1.33.53-2.9.48-.99-.04-.06.29.78.27 1.55.53.23.07.18.31l-.05.26q-.06.31-.36.22-5.15-1.57-8.94.31-2.11 1.05.17 1.66 2.76.73 7.71.53.24-.01.25.23l.01.29q.02.25-.23.28-4.26.57-8.42-.52-.73-.2-.18.32l4.97 4.66q.35.32.81.42l.34.08q.26.06.32.32.17.79-.27 1.54-.53.08-.97-.02-1.06-1.17-2.09.01-1.09.2-2.26.01.2-.35.22-.65.04-.58-.54-.59l-3.85-.06q-.58-.51-.68-1.12l1.63-4.48a.83.83 0 0 0-.87-1.11q-2.72.29-4.8 2.06-.63-.23-.54-.87l2.76-1.62q.37-.22.07-.52l-1.03-1.03q.66-.83 1.69-.83 1.36 1.57 3.75.89.19-.05.27-.24.05-.12.05-.25.01-.36-.34-.43l-2.54-.48q1.27-1.43 2.31-1.2 1.24.18 2.49-.94.09-.09-.02-.14-.13-.05-.25-.11zm-4.25 11.1a.31.31 0 0 0 .27.41l5.46.45a.31.31 0 0 0 .24-.54l-4.28-3.88a.31.31 0 0 0-.5.12zM232.62 74.94q-4.34-.04-8.81-3.79 4.67 1.17 8.81 3.79"/><path fill="#fff" d="M259.5 71.19q.12.06.25.11.11.05.02.14-1.25 1.12-2.49.94z"/><path d="M244.45 72.67q.99.37 1.54 1.14l-1.56.63q-.77-.13-1.42-.67z"/><path fill="#fff" d="M279.52 73.21q.73.29.04.65-1.49.79-2.54-.12-.53-.45.14-.66 1.13-.35 2.36.13M254.97 73.58l2.54.48q.35.07.34.43 0 .13-.05.25-.08.19-.27.24-2.39.68-3.75-.89.65-.47 1.19-.51M284.26 74.01l-3.27 1.95q.88-1.46 1.78-2.12.75-.56 1.49.17M245.99 73.81q.78.47 1.26 1.15l-.26.64-2.56-1.16zM280.27 76.29l-.27.21q-.81-.11-1.26-.61-.48-.53.19-.76.88-.31 1.43-1.09a.09.09 0 0 1 .14-.01l.21.23q.15.16-.02.29-.89.74-.42 1.74"/><path d="m248.03 75.34-.32.7q-.51-.11-.72-.44l.26-.64q.47.05.78.38"/><path fill="#fff" d="m252.09 74.92 1.03 1.03q.3.3-.07.52l-2.76 1.62q-.39-1.16-2.58-2.05l.32-.7q2.32 2.14 4.06-.42M254.87 82.49l-4.04-3.53q2.08-1.77 4.8-2.06a.83.83 0 0 1 .87 1.11zM256.29 82.04l1.19-3.44a.31.31 0 0 1 .5-.12l4.28 3.88a.31.31 0 0 1-.24.54l-5.46-.45a.31.31 0 0 1-.27-.41"/><path d="M272.27 82.29q-.43.81-1.35.88-1.67-.39-2.95.12-1.15.46.04.79l2.02.56-3.71.12c-.14-3.35 3.9-3.01 5.95-2.47"/><path fill="#fff" d="m270.92 83.17 8.12 3.27q.45.18.92.15l5.82-.36q.48.16.91-.04l2.05-.08q-.38.79-1.25.81-.49.01-.84-.34-.65-.64-1.12.13-1.22 1.97-3.43 2.04-.82-1.31-2.4-1.69-2.57-.61-2.68-.65-2.84-1.03-5.81-1.5l-.66-.1-.52-.17-2.02-.56q-1.19-.33-.04-.79 1.28-.51 2.95-.12M259.72 84.91q-2.51.48-4.17-1.3l3.85.06q.58.01.54.59-.02.3-.22.65M264.07 84.89l-2.09.01q1.03-1.18 2.09-.01"/><path d="m271.21 84.91-.66-.1zM286.69 86.19q-.43.2-.91.04.53-.22.91-.04"/><path d="m293.47 86.42 7.29 5q.18.12.33-.05l.18-.22a.22.21 41.9 0 0-.02-.29l-3.95-3.77q1.17-.15 1.68.44l2.99 2.62q.42.38.95.16l1.61-.66q.18-.07.26.1l.22.45q.14.29-.17.39-.74.23-1.17.83-.53.73.37.64.23-.03.43.09.75.46.03.96t-.61 1.37q.07.53.74 1.16 2.03 1.9 3.59 4.24l-1.24.09-3.09-4.38a.87.86-35.4 0 0-1.21-.2l-4.85 3.45q-.59.42-.11.98l1.68 1.95-.89.52q-1.77-3.67-5.08-1.39-.24.16-.33-.11l-.09-.25a.04.03 69.2 0 1 .02-.05l1.43-.57a.91.9-37.1 0 0 .22-1.56q-.6-.45-.77-1.1-.18-.68.45-.36.8.4 1.33 1.1a.95.94 53.4 0 0 1.3.2l4.88-3.47a.36.36 0 0 0-.04-.61c-2.33-1.29-5.22.74-7.23 1.86q-.41.23-.57-.21l-.17-.48q-.02-.05.03-.07 2.02-.95 3.65-1.87.88-.51-.14-.5-1.09 0-1.98-.61-.83-.56.18-.59 1.39-.04 2.75.32 1.97.51.41-.79-2.89-2.39-6.84-4.39-.46-.23-.95-.11-3.2.78-5.39 2.58-.59.49.16.6l8.44 1.27q.14.02.12.17l-.06.54q-.03.24-.27.21l-6.33-.88q-1.2-.16-.2.52l5.37 3.69a.68.68 0 0 1-.14 1.2l-9 3.39q-.97-.33-1.65-1.09.87-1.43.66-3.43-.06-.82.37-1.74l.71-1.68q.22-.51-.22-.85l-.75-.57q-.81-.7-.69-1.86 2.21-.07 3.43-2.04.47-.77 1.12-.13.35.35.84.34.87-.02 1.25-.81zm-7.94 5.25a.56.56 0 0 0-.86.35l-1.3 6.13a.56.56 0 0 0 .73.64l7.02-2.32a.56.56 0 0 0 .13-1zM302.49 93a.31.3 48.1 0 0 .39.03q.37-.25.24-.65a.39.39 0 0 0-.34-.27l-.68-.04q-.63-.04-.17.4z"/><path fill="#fff" d="m298.51 102.29-7.9 4.29-2.44-1.96a.48.48 0 0 1 .11-.82l2.85-1.27q.24-.11.34-.35.11-.25-.27-.36-.27-.07-.55.02l-3.5 1.24a1.01 1 45.4 0 1-.66-.01q-1.03-.36-1.96-1.41l-.86-1.69 9-3.39a.68.68 0 0 0 .14-1.2l-5.37-3.69q-1-.68.2-.52l6.33.88q.24.03.27-.21l.06-.54q.02-.15-.12-.17l-8.44-1.27q-.75-.11-.16-.6 2.19-1.8 5.39-2.58.49-.12.95.11 3.95 2 6.84 4.39 1.56 1.3-.41.79-1.36-.36-2.75-.32-1.01.03-.18.59.89.61 1.98.61 1.02-.01.14.5-1.63.92-3.65 1.87-.05.02-.03.07l.17.48q.16.44.57.21c2.01-1.12 4.9-3.15 7.23-1.86a.36.36 0 0 1 .04.61l-4.88 3.47a.95.94 53.4 0 1-1.3-.2q-.53-.7-1.33-1.1-.63-.32-.45.36.17.65.77 1.1a.91.9-37.1 0 1-.22 1.56l-1.43.57a.04.03 69.2 0 0-.02.05l.09.25q.09.27.33.11 3.31-2.28 5.08 1.39M297.3 87.09l3.95 3.77a.22.21 41.9 0 1 .02.29l-.18.22q-.15.17-.33.05l-7.29-5z"/><path fill="#fff" d="M314.51 95.71q-.18.84-.61 1.27-.33.33-.78.18-4.07-1.43-7.73-3.51-.28-.16-.38.15l-.1.3a.72.72 0 0 0 .17.72l4.72 5.06h-1.58q-1.56-2.34-3.59-4.24-.67-.63-.74-1.16-.11-.87.61-1.37t-.03-.96q-.2-.12-.43-.09-.9.09-.37-.64.43-.6 1.17-.83.31-.1.17-.39l-.22-.45q-.08-.17-.26-.1l-1.61.66q-.53.22-.95-.16l-2.99-2.62q9.01 1.98 15.53 8.18M283.05 93.71q.14-1.6-.26-3.1l.75.57q.44.34.22.85zM285.53 91.67l5.72 3.8a.56.56 0 0 1-.13 1l-7.02 2.32a.56.56 0 0 1-.73-.64l1.3-6.13a.56.56 0 0 1 .86-.35"/><path fill="#fff" d="m302.49 93-.56-.53q-.46-.44.17-.4l.68.04a.39.39 0 0 1 .34.27q.13.4-.24.65a.31.3 48.1 0 1-.39-.03"/><path d="M314.51 95.71q.97.39 1.18 1-.64.66-.15 1.56.49.92 1.76.67.88.61.99 1.31.08.57-.49.52-1.12-.08-2.25-.79.42-.4-.33-.74-1.16-.53-1.48.66-.96.2-1.9-.12.52-.49.7-1.01.2-.54-.33-.79l-3.22-1.51q-.92-.44-.26.34l2.54 2.99q-.83.25-1.47.08l-4.72-5.06a.72.72 0 0 1-.17-.72l.1-.3q.1-.31.38-.15 3.66 2.08 7.73 3.51.45.15.78-.18.43-.43.61-1.27"/><path fill="#fff" d="m306.98 99.97-7.58 1.8-1.68-1.95q-.48-.56.11-.98l4.85-3.45a.87.86-35.4 0 1 1.21.2zM282.02 98.88q-1.01-.98.66-3.43.21 2-.66 3.43M311.84 99.78q-.33.13-.57.02l-2.54-2.99q-.66-.78.26-.34l3.22 1.51q.53.25.33.79-.18.52-.7 1.01M315.69 96.71l1.61 2.23q-1.27.25-1.76-.67-.49-.9.15-1.56M315.55 99.98l-1.81-.08q.32-1.19 1.48-.66.75.34.33.74"/><path d="m290.61 106.58.93.9-.55.54q-1.78-.7-3.2-2.09-.53-1.41-1.79-1.25-1.33-.64-1.47-3.02.93 1.05 1.96 1.41a1.01 1 45.4 0 0 .66.01l3.5-1.24q.28-.09.55-.02.38.11.27.36-.1.24-.34.35l-2.85 1.27a.48.48 0 0 0-.11.82z"/><path fill="#fff" d="M287.79 105.93q-1.03-.21-1.79-1.25 1.26-.16 1.79 1.25M291.54 107.48l6.51 1.28-.29.9-6.77-1.64z"/><path d="m299.22 109.21-.24.83q-.72.04-1.22-.38l.29-.9q.73.15 1.17.45"/><path fill="#fff" d="m299.22 109.21 7.04 2.69q1.23 3.03 3.39 5.24.37.39.24-.13-.64-2.39-2.47-4.49l6.07 3.75q.05 2.38.39 3.8.06.26.3.27.41.02.41-.39l.07-2.78 3.12 2.6q-.64 1.31-1.06 2.01-.74 1.18.22.17.68-.72 1.79-1.3l3.96 3.98.41 4.07q.05.47-.36.71l-1.96 1.16-9.32 1.15q-1.93-1.67-4.26-2.66-.21-.09-.3.11v.01q-.09.21.11.3 1.8.89 3.13 2.39-.66.44-1.26.33-1.32-.7-1.86.6l-1.96.92q-.86-2.07-.6-3.87a.71.71 0 0 1 .36-.52l6.78-3.71a.49.49 0 0 1 .7.25q.82 2.14.89 4.66.02.65.68.62l.3-.01a.32.32 0 0 0 .31-.33q-.05-3.71.47-7.83.12-.92-.55-1.43-.6-.46-.59.29.02.89-.34 1.67-.15.34-.01.68.3.74.28 1.55-.01.33-.14.03l-2.56-5.95q-.06-.14-.19-.08l-.37.14q-.23.09-.15.32l1.42 3.88q.22.6-.39.79-2.8.85-4.77 2.78a1.29 1.23-72.9 0 1-.5.28q-.78.21-1.17-.25-.63-.74-.69.18l-.45 6.37-2.8 1.27q-.67-.17-1.19-.57l.15-1.93 2.02.89q.44.19.23-.24-.55-1.17-1.95-1.68l.09-.98q1.76.01 2.75-1.5.21-.32-.1-.56l-.23-.18q-.14-.1-.26.03-.83.98-2.01 1.46.77-2.14.62-4.31 1.05.21 1.11 1.72a.23.23 0 0 0 .35.18l.37-.24a.69.67 65.8 0 0 .28-.76q-.43-1.49-2.11-2.38l.22-.44q.24.08.32-.26.12-.5-.17-.73l.06-3.36q2.2-1.41 4.6-2.39.18-.07.11-.25v-.01q-.07-.18-.25-.12-2.26.73-4.48 1.59-.26-2.71-.29-5.49c-.02-1.74-.74-2.37-2.24-2.95z"/><path d="M307.42 112.52q1.83 2.1 2.47 4.49.13.52-.24.13-2.16-2.21-3.39-5.24 1.01.24 1.16.62M314.66 117.17l-.07 2.78q0 .41-.41.39-.24-.01-.3-.27-.34-1.42-.39-3.8.94.3 1.17.9M301.53 119.66q-.29-.66-.02-1.18 2.22-.86 4.48-1.59.18-.06.25.12v.01q.07.18-.11.25-2.4.98-4.6 2.39M305.06 133.72l-1.28.51.45-6.37q.06-.92.69-.18.39.46 1.17.25a1.29 1.23-72.9 0 0 .5-.28q1.97-1.93 4.77-2.78.61-.19.39-.79l-1.42-3.88q-.08-.23.15-.32l.37-.14q.13-.06.19.08l2.56 5.95q.13.3.14-.03.02-.81-.28-1.55-.14-.34.01-.68.36-.78.34-1.67-.01-.75.59-.29.67.51.55 1.43-.52 4.12-.47 7.83a.32.32 0 0 1-.31.33l-.3.01q-.66.03-.68-.62-.07-2.52-.89-4.66a.49.49 0 0 0-.7-.25l-6.78 3.71a.71.71 0 0 0-.36.52q-.26 1.8.6 3.87M318.73 120.65q-1.11.58-1.79 1.3-.96 1.01-.22-.17.42-.7 1.06-2.01.65.28.95.88M301.47 123.02q.29.23.17.73-.08.34-.32.26-.26-.65.15-.99M301.1 124.45q1.68.89 2.11 2.38a.69.67 65.8 0 1-.28.76l-.37.24a.23.23 0 0 1-.35-.18q-.06-1.51-1.11-1.72zM325.09 128.22q-.19 1.47-1.06 2.75-.65.05-1.11-.22-.01-.13-.12-.23-.17-.15-.35-.03-.14.09-.2.22-.76.35-1.47-.14l1.96-1.16q.41-.24.36-.71l-.41-4.07z"/><path fill="#fff" d="M324.03 130.97q.87-1.28 1.06-2.75l1.49 3q.26.52-.33.49-1.22-.06-2.22-.74"/><path d="M300.33 130.99q-.31-.33.15-.75 1.18-.48 2.01-1.46.12-.13.26-.03l.23.18q.31.24.1.56-.99 1.51-2.75 1.5M311.46 131.72q-.92.39-1.32.15-1.33-1.5-3.13-2.39-.2-.09-.11-.3v-.01q.09-.2.3-.11 2.33.99 4.26 2.66"/><path fill="#fff" d="M322.92 130.75q-.37.08-.67-.04.06-.13.2-.22.18-.12.35.03.11.1.12.23"/><path d="m299.94 133 .3-1.03q1.4.51 1.95 1.68.21.43-.23.24zM308.88 132.2q-.84.53-1.86.6.54-1.3 1.86-.6M299.79 134.93q.52.4 1.19.57l-.06 1.47q-.97-.91-1.53-.48-.49-.92.4-1.56"/><path fill="#fff" d="M300.92 136.97q.27.39.04.74-.29.42-.71.46-.49.3-.74-.23-.31-.64-.12-1.45.56-.43 1.53.48"/><path d="M317.53 152.95q-.84 1.26-2.1 1.91a1.06 1.05-45.3 0 1-.94.01c-1.53-.74-2.22-2.15-3.78-2.9q-1.23-.59-2.56-.83c-1.9-.33-3.55-1.68-5.33-2.39q-.32-.13-.57.11-.18.17-.11.35-.09-1.04.22-2.3l1.47.17q.66.07.22-.43-.68-.78-1.64-1.32 1.26-3.89-2.16-7.16.42-.04.71-.46 2.72 2.78 2.85 6.6a.81.81 0 0 0 .88.79c1.61-.12 3.02 1.33 4.47 1.99q4.76 2.18 8.37 5.86m-9.15-3.023a1.65.4 31.3 0 0-1.202-1.199 1.65.4 31.3 0 0-1.618-.515 1.65.4 31.3 0 0 1.202 1.199 1.65.4 31.3 0 0 1.618.515m3.07.553q-.44.22.03.38.79.27 1.43-.12.53-.32-.08-.43-.76-.14-1.38.17m-1.06.4q.31.14.56-.07-.28.03-.56.07"/><path fill="#fff" d="M302.41 145.33q.96.54 1.64 1.32.44.5-.22.43l-1.47-.17q-.21-.88.05-1.58"/><ellipse fill="#fff" rx="1.65" ry=".4" transform="rotate(31.3 -112.573 622.41)"/><path fill="#fff" d="m317.53 152.95.78.72q-.76 1.11-1.78 1.6a.53.53 0 0 0-.06.92l3.67 2.37q.45.29.94.09l.38-.15q.65-.26.73.43c.1.77.77 1.16.79 1.67q.01.14 0 .29-.03.64-.64.42l-.58-.22q-.31-.12-.56.1-.12.1-.14.24-.07.51.44.61.33.06.42.36.15.5-.37.55l-2.5.21a1.07 1.07 0 0 0-.79.48q-1.25 1.92-3.28 3.22-.2.12-.38.01-.52-.31-.08-.73l1.86-1.76q.2-.19.01-.39l-.18-.19a.06.06 0 0 0-.09.01q-1.56 1.88-3.9 2.18 1.44-1.72 3.13-2.62.96-.51-.12-.68l-5.33-.81q-.49-.07-.82.3l-4.72 5.42-1.29.04 5.1-5.93q.1-.11 0-.23l-.19-.21q-.31-.35-.62 0-.6.67-1.19.05-.39-.42-.96-.53-1.72-.32-3.22-1.56.17-.14.06-.82l2.44.28a.49.48-71.2 0 0 .46-.23q.14-.23.42-.31.74-.2.44.5l-.2.46q-.28.65.41.8l2.37.49q.71.14 1.24-.35l3.78-3.45q.67-.6-.09-1.08-2.09-1.32-4.13-2.43-1.57-.86-3.43-.09-1.17.49-.61-.64.21-.43.69-.63.7-.29 0-.59l-3.55-1.5-.15-.43q-.07-.18.11-.35.25-.24.57-.11c1.78.71 3.43 2.06 5.33 2.39q1.33.24 2.56.83c1.56.75 2.25 2.16 3.78 2.9a1.06 1.05-45.3 0 0 .94-.01q1.26-.65 2.1-1.91m1.75 7.07.26-.11q.75-.35 0-.69l-4.84-2.26q-.15-.07-.27.04l-4 3.63a.17.16-61.2 0 0 .08.29l7.25 1.13q.56.08.88-.38.23-.34.16-.73-.11-.64.48-.92"/><path d="m302.05 158.41.21-4.5.56-.4q.52-.38-.1-.55l-.42-.12q-.44-1.51-.01-3.2l3.55 1.5q.7.3 0 .59-.48.2-.69.63-.56 1.13.61.64 1.86-.77 3.43.09 2.04 1.11 4.13 2.43.76.48.09 1.08l-3.78 3.45q-.53.49-1.24.35l-2.37-.49q-.69-.15-.41-.8l.2-.46q.3-.7-.44-.5-.28.08-.42.31a.49.48-71.2 0 1-.46.23z"/><path fill="#fff" d="M311.45 150.48q.62-.31 1.38-.17.61.11.08.43-.64.39-1.43.12-.47-.16-.03-.38M310.39 150.88q.28-.04.56-.07-.25.21-.56.07M302.26 153.91q-.25-.74.04-1.07l.42.12q.62.17.1.55z"/><path d="M324.35 161.42q-.58.47-.66.95-.09.56.45.73.49.15 1.07.05.97 1.77.99 3.89-.72-.36-1.26.53c-.73 1.2-.16 2.1-1.5 3.16q-.84-.1-1.41-.8l.74-.81q.39-.43-.19-.48-1.3-.11-2.07 1.07l-7.48-1.8q1.18-.46-.28-.58-.33-.02-.48-.18-.4-.42-.05-1.16 2.34-.3 3.9-2.18a.06.06 0 0 1 .09-.01l.18.19q.19.2-.01.39l-1.86 1.76q-.44.42.08.73.18.11.38-.01 2.03-1.3 3.28-3.22a1.07 1.07 0 0 1 .79-.48l2.5-.21q.52-.05.37-.55-.09-.3-.42-.36-.51-.1-.44-.61.02-.14.14-.24.25-.22.56-.1l.58.22q.61.22.64-.42.01-.15 0-.29c-.02-.51-.69-.9-.79-1.67q-.08-.69-.73-.43l-.38.15q-.49.2-.94-.09l-3.67-2.37a.53.53 0 0 1 .06-.92q1.02-.49 1.78-1.6zm-.321 4.83a1.31.49 58.8 0 0-.26-1.374 1.31.49 58.8 0 0-1.098-.867 1.31.49 58.8 0 0 .26 1.375 1.31.49 58.8 0 0 1.098.867"/><path d="M318.8 160.94q.07.39-.16.73-.32.46-.88.38l-7.25-1.13a.17.16-61.2 0 1-.08-.29l4-3.63q.12-.11.27-.04l4.84 2.26q.75.34 0 .69l-.26.11q-.59.28-.48.92M303.07 167.64q-.68-.28-1 .1-.19.22-.17.81.03.74-.05 1.46-.32-.52-.78-.26l.92-10.52q1.5 1.24 3.22 1.56.57.11.96.53.59.62 1.19-.05.31-.35.62 0l.19.21q.1.12 0 .23z"/><path fill="#fff" d="m324.35 161.42.86 1.73q-.58.1-1.07-.05-.54-.17-.45-.73.08-.48.66-.95"/><path d="M312.22 165.99q-1.18-.04-1.73 1.82l-6.13-.21 4.72-5.42q.33-.37.82-.3l5.33.81q1.08.17.12.68-1.69.9-3.13 2.62m-2.9-.83q.14.41.56.52.31.08.22-.23-.12-.43-.52-.56a.21.21 0 0 0-.26.27"/><ellipse fill="#fff" rx="1.31" ry=".49" transform="rotate(58.8 15.146 369.492)"/><path fill="#fff" d="M309.32 165.16a.21.21 0 0 1 .26-.27q.4.13.52.56.09.31-.22.23-.42-.11-.56-.52M312.22 165.99q-.35.74.05 1.16.15.16.48.18 1.46.12.28.58l-2.54-.1q.55-1.86 1.73-1.82M326.2 167.04q1.24 1.75.53 2.9l-1.94 1.17-1.35-.38c1.34-1.06.77-1.96 1.5-3.16q.54-.89 1.26-.53M322.03 169.93l-1.52-.22q.77-1.18 2.07-1.07.58.05.19.48zM301.85 170.01q.29.66-.07 1.22-.78.57-1.16.25-.34-.83.45-1.73.46-.26.78.26"/><path d="M326.73 169.94q.26.93-.06 1.38a.63.63 0 0 1-.72.22l-1.16-.43zM301.78 171.23q-.62 1.79.52 1.8l-2.08 1.74.4-3.29q.38.32 1.16-.25"/><path fill="#fff" d="M305.81 175.15c-1.69-.64-4.04 1.02-5.65 1.62q-.23-1.13.06-2l2.08-1.74z"/><path d="M305.81 175.15q.25 2.04 2.17 2.59.58.16.65.76l.2 1.58a.95.95 0 0 0 .52.74q.72.34 1.58.4l.32.58-5.53 2.08a.75.75 0 0 0-.48.81l.05.35a.07.06 81.3 0 0 .07.06q2.7-.58 4.67-1.96.51-.37 1.14-.29l.8.09 1.52 4.69q-1.52 2.9-2.01 3.53-1.08 1.42-1.56 3.15-.53 1.95-1.18 3.95l-1.82-.77q1.25-.16 1.47-.81a.55.55 0 0 0-.76-.68q-.97.47-1.31 1.25-1.69-.23-1.87-.61l-5.09-3.52a1.19 1.18-45.2 0 1 0-1.94q1.49-1.04 2.37-2.79.38-.76-.4-.42-2.11.96-2.84 2.13l.13-2.07q2.77-.08 4.42-1.67.7-.68-.22-1.01l-.28-.09q-.92-.32-1.72.23l-1.85 1.28 1.19-10c1.61-.6 3.96-2.26 5.65-1.62m-1.27 10.44q.05-.03.07-.08.09-.31-.16-.1-.26.21-.35.53a.05.04-17.3 0 0 .08.04q.09-.1.22-.12.07-.01.07-.09-.01-.05.01-.1t.06-.08m1.032 5.468a1.79.53 52.4 0 0-.672-1.741 1.79.53 52.4 0 0-1.512-1.095 1.79.53 52.4 0 0 .672 1.741 1.79.53 52.4 0 0 1.512 1.095m.688 2.892q-.14.15-.16.35-.07.62.52.4l2.28-.85q1.46-.55-.04-.97c-1.05-.29-2.01-.94-3.06-1.02q-1.54-.13-3.02-1.16a.42.41-46.8 0 0-.51.02l-.27.21q-.37.3.01.58c1.66 1.24 3.3-.2 4.32 2.05a.35.35 0 0 1-.07.39"/><path fill="#fff" d="M310.93 181.22q-.86-.06-1.58-.4a.95.95 0 0 1-.52-.74l-.2-1.58q-.07-.6-.65-.76-1.92-.55-2.17-2.59 3.11 2.28 5.12 6.07M311.25 181.8q.48.3.72 1.14l-.8-.09q-.63-.08-1.14.29-1.97 1.38-4.67 1.96a.07.06 81.3 0 1-.07-.06l-.05-.35a.75.75 0 0 1 .48-.81zM298.62 188.03q.04-.8.35-1.26l1.85-1.28q.8-.55 1.72-.23l.28.09q.92.33.22 1.01-1.65 1.59-4.42 1.67M304.48 185.67q-.02.05-.01.1 0 .08-.07.09-.13.02-.22.12a.05.04-17.3 0 1-.08-.04q.09-.32.35-.53.25-.21.16.1-.02.05-.07.08-.04.03-.06.08"/><path fill="#fff" d="M304.45 196.64q-1.78.43-2.99-1-2.58-1.9-3.44-3.36.48-1.23.47-2.18.73-1.17 2.84-2.13.78-.34.4.42-.88 1.75-2.37 2.79a1.19 1.18-45.2 0 0 0 1.94zM313.49 187.63q.66.72.35 1.65-2.34 3.56-3.63 7.72c-.25.8-.06 1.3.29 2.01q-1.26-.02-1.76-.75.65-2 1.18-3.95.48-1.73 1.56-3.15.49-.63 2.01-3.53"/><ellipse fill="#fff" rx="1.79" ry=".53" transform="rotate(52.4 -40.46 404.213)"/><path d="M313.84 189.28q1.24 2.45.86 4.74-1.09-1.32-2.35-.45-.48.34.04.62.9.48 2.27.05l.01 2.1q-1.96 1.26-3.18 3.25l-.99-.58c-.35-.71-.54-1.21-.29-2.01q1.29-4.16 3.63-7.72"/><path fill="#fff" d="M306.33 193.56c-1.02-2.25-2.66-.81-4.32-2.05q-.38-.28-.01-.58l.27-.21a.42.41-46.8 0 1 .51-.02q1.48 1.03 3.02 1.16c1.05.08 2.01.73 3.06 1.02q1.5.42.04.97l-2.28.85q-.59.22-.52-.4.02-.2.16-.35a.35.35 0 0 0 .07-.39"/><path d="M298.02 192.28q.86 1.46 3.44 3.36l-2.26.26q-.73.09-.66.82l.09 1.02q.06.59-.21 1.11-1.57 3.03 1.71 5.3-.67 2.4.82 1.74 2.35 2.12 2.56 5.95-1.76.09-2.89-.51-1.19-.65.05-1.19.66-.28 1.01-.85.51-.81-.41-.53l-3.84 1.18q-.51.16-.6.69l-.23 1.31q-.18 1.07.72.45l.49-.34q.43-.3.95-.19l5.2 1.17q.39.46.31 1.24-.71.45-1.53.63a1.68 1.6-39.2 0 1-1-.08q-2.49-1.01-5.06-.96-.19.01-.2.2l-.01.37q-.01.24.22.26l7.81.82.27 1.51-5.06 1.48a1.04 1.04 0 0 1-.9-.16l-2.7-2.03q-.07-.05-.11.02l-.22.32q-.13.18.07.28 2.18 1.05.91 2.56-.36.43.19.43l1.57.01q.76.01.48.72l-.62 1.53-5.11-2.91q-.38-.27-.4-.73-.02-.31.17-.55.76-.96 1.71-1.63.38-.27.51-.73 1.13-4.22-.9-3.82.95-4.54 2.41-9.38c.48-1.59.02-2.99.54-4.5q1-2.99.71-5.65m-.053 16.244a1.2.42 136 0 0 1.155-.532 1.2.42 136 0 0 .571-1.136 1.2.42 136 0 0-1.155.532 1.2.42 136 0 0-.571 1.136"/><path fill="#fff" d="m314.7 194.02-.04.22q-1.37.43-2.27-.05-.52-.28-.04-.62 1.26-.87 2.35.45M306.92 197.49q-.42.09-.6-.24.34-.78 1.31-1.25a.55.55 0 0 1 .76.68q-.22.65-1.47.81M314.67 196.34q.33 1.1-.55 1.76-.91 1.1-1.9 1.69-.51-.05-.73-.2 1.22-1.99 3.18-3.25"/><path d="M314.12 198.1q.28 1.23-.28 2.05-.31.45-.8.22-.47-.21-.82-.58.99-.59 1.9-1.69"/><path fill="#fff" d="M300.95 205.89q-1.49.66-.82-1.74.93.91.82 1.74"/><ellipse fill="#fff" rx="1.2" ry=".42" transform="rotate(136 107.459 164.213)"/><path fill="#fff" d="M303.51 211.84q.46.42.45 1.19l-5.2-1.17q-.52-.11-.95.19l-.49.34q-.9.62-.72-.45l.23-1.31q.09-.53.6-.69l3.84-1.18q.92-.28.41.53-.35.57-1.01.85-1.24.54-.05 1.19 1.13.6 2.89.51M293.27 219.27q-.3 1.24-.84 2.04-.3.41-.92.39l2.85-9.89q2.03-.4.9 3.82-.13.46-.51.73-.95.67-1.71 1.63-.19.24-.17.55.02.46.4.73M304.27 214.27l.23 1.24-7.81-.82q-.23-.02-.22-.26l.01-.37q.01-.19.2-.2 2.57-.05 5.06.96a1.68 1.6-39.2 0 0 1 .08q.82-.18 1.53-.63M304.77 217.02q.38 1.29.12 2.69-1.35.52-2.47 1.47-.56.48-.32 1.17.11.34-.38.47-.39.11-.78.03l-2.03-.42-.53-.25.62-1.53q.28-.71-.48-.72l-1.57-.01q-.55 0-.19-.43 1.27-1.51-.91-2.56-.2-.1-.07-.28l.22-.32q.04-.07.11-.02l2.7 2.03a1.04 1.04 0 0 0 .9.16zm-2.58 1.81q-.9.29-1.85.65-.66.24.02.43.93.26 2.04-.73.75-.66-.21-.35"/><path d="M302.4 219.18q-1.11.99-2.04.73-.68-.19-.02-.43.95-.36 1.85-.65.96-.31.21.35M304.89 219.71l-.17 3.39q-2.51-.69-3.62 1.26l-2.19-1.93 2.03.42q.39.08.78-.03.49-.13.38-.47-.24-.69.32-1.17 1.12-.95 2.47-1.47M292.43 221.31l-.23 5.92a1.45 1.45 0 0 0 .29.9q1.55 2.05 1.71 4.39-.38 1.74.71 3.16.69 1.4.6 2.45l-3.65 2.68q-.83.6-.29-.27c.81-1.34 1.95-1.89 2.17-3.58q.12-.9-.49-.23l-1.42 1.52q-.34.37-.84.46-.85.16-1.88.01l1.16-4.03 2.16.04q.25.01.23-.24l-.02-.29q-.02-.28-.29-.29l-.58-.04q-.68-.04-.37-.65.5-.95-.35-1.68-.12-1.21.25-2.29.49-.02.48-.49-.02-.48-.53-.48l.26-6.58q.62.02.92-.39"/><path fill="#fff" d="M304.72 223.1q.73 2.44-.55 4.15-.34.45-.7.01l-2.37-2.9q1.11-1.95 3.62-1.26M291.3 229.25q-.29-.42-.05-.97.51 0 .53.48.01.47-.48.49M290.27 234.69q-.11-1.72.78-3.15.85.73.35 1.68-.31.61.37.65l.58.04q.27.01.29.29l.02.29q.02.25-.23.24zM294.2 232.52q.94 1.53.71 3.16-1.09-1.42-.71-3.16M295.51 238.13l.01 3.62q-1.07 2.66-.34 4.88-.19 1.86-1.29 1.88-.51 0-.67-.47-1.16-3.29-3.24-5.9a.53.52-41.2 0 0-.78-.05q-.34.32-.27.94-.74.48-.78 1.11-.02.47-.47.61-.21.06-.42.05.5-3.47 1.85-6.08 1.03.15 1.88-.01.5-.09.84-.46l1.42-1.52q.61-.67.49.23c-.22 1.69-1.36 2.24-2.17 3.58q-.54.87.29.27z"/><path d="M295.52 241.75q.79 2.91-.34 4.88-.73-2.22.34-4.88M288.93 243.03q.09 1.6-.57 3.21l-1.58.72.48-2.16q.21.01.42-.05.45-.14.47-.61.04-.63.78-1.11"/><path fill="#fff" d="m288.36 246.24 1.51 2.79q-1.73-.18-2.83.43-.5.28.04.49 1.24.48 3.07-.03 1.17 2.49.68 5.16-.1.56-.64.41-.47-.12-.66-.78.13-.51-.44-.53l-2.13-2.29q1.98.39 3.06-.21.52-.29-.02-.52-1.56-.68-3.4.08-.93-2.01.18-4.28z"/><path d="M289.87 249.03q.24.19.28.89-1.83.51-3.07.03-.54-.21-.04-.49 1.1-.61 2.83-.43M286.96 251.89l-.36-.65q1.84-.76 3.4-.08.54.23.02.52-1.08.6-3.06.21M289.53 254.71q-.44-.14-.44-.53.57.02.44.53"/></svg>