<svg xmlns="http://www.w3.org/2000/svg" viewBox="0 0 382 382"><g fill="none" stroke="#7f7f7f" stroke-width="2"><path d="M241.66 60.09q2.24 2.12 5.27 1.85.64-.06 1-.6.19-.27.5-.38.74-.27 1.22.34l.36.45q.57.71.52-.2l-.08-1.45M251.73 60.18q2.74 2.53 6.23 1.07M262.35 62.97q-.19.2-.38.31-.23.12-.48.06-1.83-.43-3.54.15a.54.54 0 0 0-.33.7l.11.3a.37.37 0 0 0 .46.23q2.02-.65 3.73.14M247.24 70.51q-.47-.3-.8-.24-.42.08-.31.48.05.16.19.3M245.48 71.81q-.8-1.08-.07-1.95.49-.59-.26-.75-1.2-.26-2.26-.85-.92-.52-.72.52c.38 2.08-.16 3.59 1.81 5.04q.2.14.08.36-.1.18-.26.06M241.43 73.56q-4.22.13-5.06-1.27-1.88-3.1 1.34-1.49 1.3.66 3.22 1.51.19.08.37.02.24-.08.23-.37-.01-.48-.45-.67l-3.4-1.46q-.64-.27-.16-.79l.32-.35q.36-.39.38-.91.12-2.17-2.17-2.74a.66.65 34.5 0 0-.5.09q-.22.14-.46.15-.52.02-.8-.41-.63-.99-1.56-1.71-.83.36-.9-1.13M233.53 61.2q1.11-.12 1.83.45a1.08 1.08 0 0 1 .41.76q.08 1.12 1.07 1.8.57.39.32-.26l-1.2-3.13" vector-effect="non-scaling-stroke"/><path d="M236.29 60.54q1.99.91 1.68 3.29-.08.57.4.88.79.51 1.28 1.36.28.5.63.05.4-.51 1-.79.64-.29.69.42l.04.44a.67.66-81.8 0 0 .43.58l3.24 1.28q1.59.62.77-.88-.53-.95-.41-2.09.04-.48.47-.71.58-.32 1.2.05a1.04 1-86.8 0 1 .41.48q.74 1.9 2 3.29a.29.29 0 0 0 .4.02l.2-.18q.09-.08.03-.18l-1.69-3.17q-.4-.75.45-.71l2.12.08a.45.45 0 0 1 .43.49q-.05.69.14 1.35.14.47.58.25l.25-.13a.28.27 78.9 0 0 .15-.23q0-.63-.32-1.15-.42-.7.4-.67l2.74.12q.45.02.43-.44l-.01-.29a.38.38 0 0 0-.4-.37q-1.81.09-3.55-.14-1.67-.23-3.26.06-3.95.72-6.81-.78-.81-.43-.6.46.01.06.05.1.7.74-.25 1.09-.22.08-.44.1-.96.09-.57-.79.63-1.43-.91-2.86M246 73.72q-.75-.11-1.23.33-.29.26.02.65M234.98 74.77l.03-4.98q.01-.36-.35-.46-.19-.05-.37.03a.7.69 70.9 0 0-.41.86q.12.37-.24.53-.31.14-.43-.19-.53-1.51-1.96-2.66-.23-.18-.47-.01l-.24.18q-.47.34-.03.71 1.52 1.32 1.65 3.24a.52.52 0 0 1-.8.48l-8.53-5.45M229.45 62.89q1.85 1.44 2.4 2.21 1.63 2.25 1.2-.48-.14-.95-1.32-1.15-.55-.09-.75-.61-.12-.29-.03-.57M246.74 74.33l.17 1.56M248.12 75.37l-.39.79M222.3 67.42q3.71 4.03 8.84 6.17.42.17 1.56 1.33M220.5 70.78q-.48-1.07-1.12-1.68M250.78 76.27q.27.54.37.61 1.63 1.26.8-.63-.17-.38-.28-1.18M291.99 70.23q-.69-.57-1.28 1.64M286.26 73.15q-.61-1.11-1.49-1.01-.55.06-.52.62.04.71.54 1.35M283.25 74.75q-.08-.71-.28-1.06-.31-.56-.72-.06-.64.77-.68 2.09M280.78 76.1q-2.21-.27-3.7 1.5-.15.19-.1.34.06.15.26.3M276.05 79.24q-.7-.33-1.25-.09-.51.22-.6.77-.06.35-.28.61-.37.46-.99.41-.54-.03-1.02-.27-.41-.2-.87-.13-3.97.6-6.79 4.45" vector-effect="non-scaling-stroke"/><path d="M262.68 84.92q1.7-1.68 3.33-3.46.25-.27-.09-.41-.11-.04-.13-.21-.04-.35.31-.42 2.67-.55 4.81-3.08.61-.71-.31-.56-2.71.45-5.51.29-.48-.02-.57-.49-.05-.23.1-.39.83-.94-.4-1.19-1.87-.38-2.75.94-.29.44.06.83 1.39 1.56 2.6 3.35.08.12.09.27 0 .39-.71.3a.78.74 71.6 0 1-.43-.23q-.69-.74-1.21.1-.28.46-.81.42-2.35-.18-4.67-1.45a.85.84-48.4 0 0-.91.06q-1.21.9-2.02 2.12M252.92 81.03l1.13-1.63q.29-.42.27-.94-.08-1.71 1.26-2.59.51-.34.06-.76-.82-.74-2.26-1M257.57 72q1.17 1.18 2.46 1.16a1.38 1.36-67.4 0 0 .93-.39q1.96-1.93 4.22-3.28.13-.07-.01-.12-.04-.02-.09-.04M217.78 68.96q.41 1.01-.6 1.68M276.87 67.64q.16 1.1.76 1.85.34.43.82.17 1.48-.82 3.38-.79.4 0 .72-.22.32-.23.5-.58" vector-effect="non-scaling-stroke"/><path d="M285.2 68.23q-2.12 1.78-4.35 2.37-.45.13-.68.54-.36.67-1.06 1.02-3.18 1.56-5.66 3.54-.53.42-.68-.23-.29-1.15-.85-2.24a2.46 2.45 60.2 0 0-3.49-.95q-.86.54-1.55 1.37a1.44 1.43 23.9 0 1-1.3.5l-2.56-.34q-.55-.08-.96.3-.35.34-.84.48-.65.2-.22-.33 2.4-2.88 4.91-3.44.51-.12.36-.61t-.65-.68q-.51-.19.02-.32l.41-.1" vector-effect="non-scaling-stroke"/><path d="m266.72 69.07-.07.34q-.1.42.33.46.69.08.96.75.25.64.83.27l.52-.33q.47-.29.99-.07.64.27 1.26.06.41-.14.41-.57.01-.14-.07-.24-.26-.36-.7-.33-2.06.16-3.7-.49M270.22 68.19q.38.07.82-.04M271.89 82.51q-.66-.36-1.43-.42a1.35 1.34-62.5 0 0-.96.31q-.9.78-1.99.97-.54.1-.5.64.04.7-.19.89M258.93 84.91q.2-.97-2.14-.08M216.36 61.11q1.24 1.73 3.01 2.94.19.13.21.37.02.18-.13.33-.26.28-.63.21-.4-.08-.73-.28-.55-.34-.41.29l.32 1.5M217.27 67.01l-1.54-2.03q-.37-.49-.36.13.07 3.27 1.44 5.6M276.45 67.56q-1.35 2.7-1.54 5.66-.05.94-.89.83a.47.47 0 0 1-.32-.72q1.54-2.3 1.29-5.69" vector-effect="non-scaling-stroke"/><path d="M271.28 83.16q-1.14-.56-2.36 1.29M217.8 61.45q3.02 1.16 5.62.82.32-.04.2-.34-.04-.12-.19-.21M213.84 61.09l1.25 9.84M271.45 83.69q-.56.36-.79 1.11M209.01 61.13q-.58 2.54-.39 5.05c.14 1.95 1.26 3.05 2.26 4.69M206.95 71.42q.09-1.32-.31-1.93-.47-.71-.53.13-.03.48-.24.96-.31.71-.6-.01l-1.02-2.51a1.5 1.49 50.8 0 0-2.63-.27l-1.93 2.91M199.5 70.8q-.52.12-.18-.88.63-1.87 1.73-3.1.44-.48-.14-.77l-1.34-.67q-.92-.46-1.04.57l-.6 5.07M196.54 71.47l-.59-.87q-.28-.41-.6-.02-.45.56-.58 1.65M192.05 73.04l-4.27-2.02M188.41 70.25q2.23 1.3 4.64 1.75.56.11.8-.41l1.04-2.3q.26-.58.03-1.18l-1.09-2.83M194.35 64.83l1.17 1.82q.28.43.67.1 1.3-1.08.95-3.43M199.09 62.85q.88 2.31 3.23 2.29.66-.01.88.62.22.62.85.87.73.29.33-.38-.33-.56-.86-.99a1.13 1.11-73 0 1-.43-.82q-.05-1.21-.63-2.28M271.99 83.89q.38.41.17 1.06M186.54 74.86q1.04-1.39.73-3.08 0-.03-.02-.03l-.25-.04M279.18 86.29l-.45.82M277.95 86.9q-.3-.37-.4-.16M292.33 86.19l-5.3 1.82q-.54.18-.96-.19-.54-.47-1.17-.54-1.09-.1-.35.71l.41.44q.49.55-.24.54-.94-.02-1.48.57-.62.67.29.64l1.49-.05q.06 0 .1.02.12.08.18.19.14.26-.13.39l-2.11 1.07M294.42 86.33l-11.3 6.72M298.61 87.3q.11.79.54 1.27.41.46.69-.09.16-.32.15-.72M305.4 89.52q-1.24.57-1.72 2.2-.16.55.34.29 1.25-.64 1.65-2.22M311.33 92.93q-10.71 1.15-19.32 6.25-.84.5-.53-.42l.14-.43q.21-.62-.38-.9-1.99-.95-1.68-3.02a.52.52 0 0 0-.67-.57q-.82.25-.94 1.07-.19 1.39-1.16.38-.93-.97-2.17-1.53-.13-.06-.27-.03-.27.04-.36.43a.46.45 26.3 0 0 .16.45q1.37 1.12 1.57 3.35.04.45.47.32 2.13-.61 3.64 1.91a.68.68 0 0 1-.2.91l-4.47 3.04" vector-effect="non-scaling-stroke"/><path d="M284.99 103.05q1.06.16.6-.67a.38.37 82.2 0 0-.24-.19q-.34-.1-.63.34M284.23 101.13l1.26-.36q.76-.21.3-.85-.23-.33-.6-.51a.69.68-52.8 0 0-.77.11q-.27.25-.36.79M281.6 98.73l.05-1.51M317.18 98.37q-.56 1.29-1.37 1.38-.63.07-.68-.57-.06-.87-.83-1.39-.34-.23-.13-.58l.22-.38q.27-.45-.22-.62-.19-.06-.38-.03-.49.1-.61.59-.3 1.17-1.5 1.42-.22.04-.31-.16-.08-.17-.06-.36.05-.35.38-.47 1.11-.43 1.44-1.55.42-1.46-1.21-1.72a1.48 1.46-66.3 0 0-1.4.56q-1.32 1.72-3.28 2.42-.84.31-.26-.38c.73-.85 1.73-1.08 2.43-1.75q.73-.73-.29-.58-7.3 1.03-13.6 4.51-.38.2-.17.57.08.14-.05.24a.4.39-51.5 0 1-.38.05q-1.07-.46-1.8.55a1.36 1.36 0 0 0 1.28 2.14q.9-.12 1.81-1.3.33-.43.84-.25l.42.14q.77.27 1.1-.47.63-1.45 2.72-1.79.48-.07.75.33.65.99.6 1.99" vector-effect="non-scaling-stroke"/><path d="M300.99 101.34q-1.03-.46-1.5.36M296.47 103.23q-1.72-.3-2.64.52-.54.48-.96-.1l-1.18-1.62q-.24-.32-.63-.42-.81-.19-1.53.51a.57.57 0 0 0 .23.95l.87.26q.52.16.01.33-.27.09-.53.03-.31-.06-.59-.26-1.11-.77-2.05.64a.64.64 0 0 0 .18.89l2.39 1.54q.44.28.59.78l.14.47M293.03 107.93q-.13.43-.07.85M311.29 99.87q-.19-1.81-2.15.02M294.78 108.09l.33.4q.35.43.66-.03l.27-.41M304.87 111.33q.74 1.95-2.34.86-.4-.14-.91-.62-.52-.48-1.05-.52M308.51 113.01q.58 1.07 1.49.76M312.76 115.47q-2.14.52-3.44 2.28a.54.53 33 0 1-.7.14l-.25-.15q-.25-.14-.08-.38l1.26-1.65q.82-1.08-.52-.88-2.91.44-5.8 2.23-.76.46-.1 1.13.46.48 0 .95l-.35.37q-.42.44-.95.15-.3-.16-.56-.45M301.1 117.29q.62.38 1.11-.56.24-.46.7-.7l3.93-2q.25-.13.07-.35l-.19-.25q-.17-.21-.43-.13-1.58.46-3 .27a.72.72 0 0 0-.73.39q-.38.76-.5 1.58a.36.34-88.8 0 1-.3.3q-.13.01-.29-.03M313.25 116.06q-.43 1.26-.18 2.5.06.29.35.38.14.04.26-.05.24-.17.28-.46.11-.79.17-1.71" vector-effect="non-scaling-stroke"/><path d="M320.01 121.91q-1.49.63-3.04.83-1.65.22-2.69-.67-1.89-1.62-2.41-3.72-.46-1.83-1.05-.04-.33 1.02.43 2.24.47.76-.42.69-1.35-.1-2.44-.95-.51-.41-1.01.01l-3.34 2.81q-.61.51.15.75l1.83.58q.71.22 1.1-.41.59-.97 1.8-.99 1.84-.02.26.9-2.64 1.54-4.78 4.33a1.66 1.63 63.3 0 0-.35 1.1q.02.58-.17 1.1-.21.54-.7.23l-1.16-.73q-.62-.39-.64.34-.04 1.65-1.36 2.63M301.08 124.48q1.1-1.54.01-2.98M301.12 120.71l.01-.92M320.48 122.34q-.76.68-1.75 1.05a.39.38-28.3 0 0-.18.58l.17.23a.65.64 58.2 0 0 .83.2q1.07-.58 2.44-.53M324.19 126.89l.02 4.15" vector-effect="non-scaling-stroke"/><path d="m322.97 130.94-1.03-2.27q-.21-.46-.66-.24-.13.06-.27.13-.46.23-.86-.11-.7-.61-1.49-.09-1.99 1.3-3.67-.4-.44-.45.1-.78l.49-.3q.49-.3 1.05-.16 1.67.41 3.38 1.08 1.97.78.59-.83-1.49-1.71-4-2.62a.55.54 16.2 0 0-.73.39q-.2.9-1.05 1.29-1.93.91-3.41 2.22-.7.61-.5-.3.23-.99 1.21-1.79.17-.14.1-.34l-.16-.5q-.12-.38-.46-.16l-.87.57q-.44.29-.91.06c-1.64-.82-3.08 1.24-3.88 2.41q-.24.37.06.68.11.11.22.21.67.58-.19.79-1.5.35-1.42 2.38.02.57.47.21.37-.29.82-.36a.57.56-9.9 0 1 .65.45l.15.78M304.48 133.96q.04-.13-.06-.28-.08-.13-.22-.1l-2.93.46q-.48.08-.46.57.02.38.45.58M300.65 136.29q-.76-.56-1.51.16" vector-effect="non-scaling-stroke"/><path d="M319.7 130.9q-.32-.06-.66 0M314.12 131.36l-.22-2.72q-.05-.53-.43-.16-1.36 1.29-.34 3.3M303.87 142.47q.23.85-1.16 1.73M306.69 145.78q-2.01.74-4.43-.31M308.1 146.83q-.46.21-.38.61.09.44.39.54.56.19.7-.39l.18-.7M316.46 152.01l-1.85.61q-.51.17-.84-.26l-2.18-2.83a.73.72 74.3 0 0-.46-.26q-3.07-.38-5 1.39-.68.62-1.4.04-.98-.8-2.16-1.19-.55-.19-.09-.54l1.53-1.18q.39-.3 0-.6l-.31-.25a.31.3 35.7 0 0-.44.07q-.43.64-.92 1M317.85 153.28q-.84.83-.07 1.68.83.9 1.71.11M322.72 158.88q-1.52 3.04-2.75 3.13-1.61.11-2.93.79-.62.32-.52-.37.04-.33.31-.52.66-.47-.04-.88-4.22-2.53-6.89 1.67a.23.22 37.4 0 1-.34.04q-1.04-.91-2.3-1.33a.05.04 9.7 0 0-.06.04q0 .15-.09.25-.34.36-.75.07-.97-.68-1.69-1.62-.86-1.12.42-.52l.39.18q.59.27.91-.29.29-.51.85-.36.47.14.76.53.42.58.89 1.09.4.43.73-.05l.53-.76a1.42 1.42 0 0 1 .74-.53q2.69-.82 5.17-.14.52.14 1.05.03l.79-.17q.47-.1.8.25 1.11 1.19 2.7.33.47-.24.48-.77.01-.49-.3-.85-.39-.47-.97-.27-1.03.37-1.73-.35-.28-.28-.56 0-.91.92-2.09.67-1.31-.28-1.54-1.9-.13-.87.52-.28l1.03.95q.49.45 1.1.18l.38-.17q.45-.21.1-.55l-1.63-1.64q-.76-.76-1.41.09l-2.36 3.12q-.2.27-.44.04l-.2-.19q-.26-.24-.05-.52l1.99-2.84a.16.16 0 0 0-.11-.25l-2.61-.41q-.32-.05-.51.2-.71.92-.69 2.06a.74.74 0 0 0 .52.69q.35.11.64.36a.42.42 0 0 1-.19.73q-.65.14-1.06-.35-.47-.54-.61.16-.08.38-.44.56a.77.77 0 0 1-.82-.1q-.62-.49-1.29-.01a1.27 1.25-59.9 0 1-.84.23q-.89-.08-1.53.33-.42.27-.75-.11l-1.36-1.58" vector-effect="non-scaling-stroke"/><path d="M302.09 156.11q2.11-.46 3.15.63.32.34.79.26l.57-.11q1.63-.31.08-.91-.26-.1-.53-.2-.94-.34.06-.4 1.05-.06 2 .53.11.07.19-.03.7-.86.77-2.05 0-.14-.13-.18-3.22-1.09-5.3 1.31a.35.35 0 0 1-.6-.3q.17-.83 1.64-1.76a.46.46 0 0 0 .07-.73q-2-1.93-2.75-.86M323.2 160.04q-.01.84.79 1M324.24 161.47l-.79.86q-.39.42.11.7.75.43 1.68.52M325.51 163.94q-.04.92-.81.7-4.52-1.28-5.94 2.71-.16.45-.63.44-1.12-.02-1.57.87" vector-effect="non-scaling-stroke"/><path d="m314.95 168.13.27-.77q.19-.53.73-.37l1.33.41a.22.22 0 0 0 .28-.15l.09-.27q.1-.34-.22-.48-.63-.27-1.03-.75-.43-.51.18-.79.44-.2.44-.67a.4.4 0 0 0-.72-.23q-.98 1.37-2.29.39-.62-.46-1.39-.47-2.41-.04-4.88-.37-.33-.05-.63.1-.35.16-.51.54-.09.19.07.32.17.14.26.35.31.72-.41.4l-.87-.39q-.53-.23-.17-.69.13-.17.32-.28.32-.18.33-.54.01-.16-.08-.28-.4-.6-.93-.12-.83.75-1.34 1.8a.22.22 0 0 1-.41-.03q-.39-1.22-2.22-.5" vector-effect="non-scaling-stroke"/><path d="m313.94 167.79.56-1.06q.26-.5-.15-.88-1.91-1.76-4.17-1.16a.42.42 0 0 0-.2.69q.88.96 1.47 2.34M310.06 167.8q-.6-2.05-2.29-2.47-.48-.12-.14.23.84.87.8 2.11M307.32 167.67q-.96-1.11-2.29-1.33-.66-.12-.93.3-.27.4-.22 1.14M302.07 167.92q.07-.82-.61-1.04-.15-.05-.25.07-.08.1-.04.27M301.22 165.83q.62.01.09-.52M326.91 170.77q-1.18-.38-1.75.78M301.92 168.32q-.4.62-.84.37M301.77 170.69q-.4-.32-1.08-.4M301.73 172.61q-.71.4-1.13.27M302.47 172.94q.38.93.37 1.38-.01.61-.53.29-1.19-.71-2.21-.74M305.08 174.59q-2.1 2.77-5.01.94" vector-effect="non-scaling-stroke"/><path d="M306.2 175.18q-.71 1.38-.65 2.38.1 1.65-1.33.81-2.24-1.3-3.47.41-.15.2-.39.26-.33.07-.73-.09M307.7 177.04q-.77.51-.85 1.25-.07.54.43.32.57-.27.98-1.22M310.94 181.2l-1.8-.37q-.47-.09-.71.31-.87 1.46-2.74 1.02a.64.63-61.5 0 1-.31-1.06l.97-1q.65-.66-.27-.51l-3.99.69q-.4.07-.76.26-.89.47-1.99.62M312.59 184.84l-4.86 1.45q-.27.08-.44-.15l-.19-.27a.31.31 0 0 1 .12-.46q1.46-.69 3.09-1.08.19-.05.17-.25l-.02-.25q0-.01-.01-.01-2.09.24-4.11-.43-.86-.28-.65.6l.57 2.31a.46.46 0 0 1-.56.56q-1.55-.37-1.71-2.06-.05-.49-.53-.54l-1.48-.18a.72.72 0 0 1-.52-1.1q.23-.37.63-.61.24-.14.18-.41-.03-.16-.17-.27a.48.46-40.7 0 0-.51-.03q-1.11.63-2.29.05M313.92 189.21q-.76.07-1.29.56-.46.43.05.79l.26.18q.91.65-.2.5-1.39-.18-2.58-.86-1.6-.91-.67.68 1.42 2.42 5.3 1.58M314.53 198.01q-1.67.04-1.64-1.44.01-.23-.18-.36-.13-.09-.28-.11-.45-.05-.32.38.1.32-.02.6-.26.61-.81.25-.25-.16-.54-.18-.58-.04-.64.53l-.15 1.35M306.39 197.42l2.19-.72q.78-.25.16-.79-.59-.52-.82-1.24-.28-.91-.68-.05-.14.29-.45.3-.54 0-.64-.53l-.07-.43q-.1-.56-.65-.7-3.18-.81-5.78.6-.46.25-.52.58-.12.56.42.36 1.41-.52 2.38 1.24M297.96 200.01q-.48.15-.9-.02M298.19 190.13l3.56-1.74a1.03 1.02 41.9 0 1 .8-.04l2.1.75a.3.3 0 0 0 .37-.41q-.8-1.67-2.65-1.87-.55-.07-1.01.25-1.21.85-2.6.95M298.83 187q1.24-.08 2.09-1.39a1.01 1.01 0 0 0-.56-1.51l-1.26-.38" vector-effect="non-scaling-stroke"/><path d="M304.91 196.85q.17-1.48-1.42-2.09-.46-.18-.56.31-.15.78-.65 1.08M298 201.98q-.43.45-1.16.04M298.96 202.94q-.14 0-.26.05a.67.66 82 0 0-.39.52q-.27 2.04-2.25 1.12" vector-effect="non-scaling-stroke"/><path d="m299.52 203.51-.2.19q-.29.29-.05.62 1.11 1.49 1.35 3.75.08.77-.4.16-1.12-1.43-1.41-3.03-.1-.52-.55-.25l-2.02 1.16q-.57.33-.38.96l.95 3.15q.18.57.77.69 2.33.45 3.25-1.49.2-.41.66-.38l1.33.1M303.27 210.01l-1.27 1.3q-.41.42.12.68.73.37 1.67.05M304.28 213.58q-1.81.14-3.59-.52a1.33 1.29 41.8 0 0-1.01.04q-.88.42-1.28 1.37-.21.48.3.36.39-.09.5-.42.23-.67.89-.42 1.35.53 2 1.93.1.21-.08.34l-.21.16a.05.05 0 0 1-.08-.02q-.91-2.07-2.69-.45a.94.94 0 0 0-.31.72q.02.62-.04 1.25-.09.83-.48.09-.2-.39-.22-.8-.07-1.15-.85-.3l-.26.28a1.37 1.37 0 0 0 .52 2.21q1.07.4 1.42 1.41.38 1.08-.67.65-1.46-.6-2.2-1.93a.7.69 56.5 0 0-1.03-.22q-.19.15-.21.76M293.7 219.78q.94-1.45-1.18-2.64M293.02 216.89q.35-.03.42-.39.07-.37-.19-.46M294.07 212.88q.46.15.63-.08a.42.42 0 0 0-.21-.65q-.16-.06-.4.08M304.88 223.45q-1.83-.45-3.47 1.25M293.23 219.71q-.93.89-1.71.99M304.82 226.72q.15-1.28-.84-1.59-.96-.31-1.7.68M292.38 226.96q-.16-.93-1.12-.77M304.73 227.04q-.84.11-1.67-.06M293.27 229.67q-.77 1.06-2.17.33M294.69 233.27q-.77-.13-.95 1.81-.06.56-.5.21-.99-.79-1.49-2.26-.21-.61-1.23-.55M295.72 244.5q-1.65 2.1-1.48 3.96M292.66 246.25q0-.96 1.4-3.23a.77.77 0 0 0-.3-1.08q-1.51-.8-1.98-2.36-.27-.91.45-.28l1.81 1.6q.51.45.85-.14.15-.26.19-.53.06-.45-.17-.85-1.51-2.58-3.37-4.46a1.77 1.68 76.3 0 0-.62-.4l-.74-.26M288.78 240q.36 1.14 1.48-1.32.3-.66-.38-.4l-.81.32M243.85 64.79q-.16.28.04.56a.31.31 0 0 0 .55-.07q.13-.32-.12-.57a.3.3 0 0 0-.47.08M207.593 64.208a1.19.42 86.5 0 0 .346-1.214 1.19.42 86.5 0 0-.492-1.162 1.19.42 86.5 0 0-.346 1.214 1.19.42 86.5 0 0 .492 1.162M230.521 66.983a1.81.54 62.3 0 0-.363-1.854 1.81.54 62.3 0 0-1.32-1.352 1.81.54 62.3 0 0 .364 1.854 1.81.54 62.3 0 0 1.32 1.352M227.226 66.846a.75.31 37.4 0 0-.408-.702.75.31 37.4 0 0-.784-.21.75.31 37.4 0 0 .408.702.75.31 37.4 0 0 .784.21M236.2 68.28l-.36-1.48q-.19-.76-.83-.3l-.65.48q-.43.31-.07.71.61.69 1.48.98.57.19.43-.39M243.27 70.68q-.23.37-.03.76.17.32.41.06.28-.31.18-.73a.31.31 0 0 0-.56-.09M282.209 71.69a.37.37 0 0 0-.51-.12l-6.153 3.815a.37.37 0 0 0-.12.51l.085.136a.37.37 0 0 0 .51.119l6.153-3.815a.37.37 0 0 0 .12-.51l-.085-.136M268.29 75.01l2.71.51q1.41.26.51-.86l-1.55-1.94a.65.64-45.3 0 0-1.02.01l-2.02 2.68a.07.07 0 0 0 .09.1l.51-.34q.35-.24.77-.16M258.077 75.116a.81.49 24.5 0 0-.534-.782.81.49 24.5 0 0-.94.11.81.49 24.5 0 0 .534.782.81.49 24.5 0 0 .94-.11M256.34 76.96q.36-.12.39-.54.03-.49-.32-.15l-1.18 1.13q-.42.4.16.39.46-.02.57-.44.09-.29.38-.39M259.95 77.35q.11.11.27.14.28.05.2-.22-.2-.6-.67-1.02-.28-.24-.55.01-.09.1-.13.23-.07.3.19.47.18.11.38.19.17.06.31.2M261.71 80.03a.32.32 0 0 0 .19-.6l-4.05-2.32a.32.32 0 0 0-.42.47l1.54 2.02a.32.32 0 0 0 .21.13l2.53.3M271.28 78.94q.49.24 1.01.3.69.08.82-.61l.09-.51q.12-.65-.53-.52-.9.17-1.48.98-.17.23.09.36M270.49 79.25q-.11.05-.14.17a.05.05 0 0 0 .05.07q.13-.01.19-.12.16-.24-.1-.12M260.707 82.336a.83.29-36.5 0 0-.84.26.83.29-36.5 0 0-.494.728.83.29-36.5 0 0 .84-.26.83.29-36.5 0 0 .494-.728M288.66 91.5q.22-.51-.29-.29-.79.34-1.44 1.01-.26.27.02.53l.27.25q.21.2.41-.01.67-.68 1.03-1.49M291.06 92.3q.01.09-.07.18t.02.01q.02-.02.06-.01.12.03.09-.09-.03-.09-.1-.17-.03-.03 0 .08M301.129 93.96a.81.36 57.2 0 0-.136-.875.81.36 57.2 0 0-.742-.486.81.36 57.2 0 0 .136.876.81.36 57.2 0 0 .742.486M292.605 97.19a1.74.69 71.4 0 0 .099-1.87 1.74.69 71.4 0 0-1.209-1.43 1.74.69 71.4 0 0-.099 1.87 1.74.69 71.4 0 0 1.209 1.43M284.42 97.52q-.13.31.13.4.12.05.24.02.42-.1.1-.48-.28-.34-.47.06M305.607 97.237a.47.23-38.6 0 0-.51.113.47.23-38.6 0 0-.224.473.47.23-38.6 0 0 .51-.113.47.23-38.6 0 0 .224-.473M313.05 98.35q-.25-.07-.26.18a.28.28 0 0 0 .34.29q.31-.08.23-.37-.08-.31-.31-.1M306.43 116.73q.07.2.24.07.21-.16.09-.44-.1-.21-.25-.04-.16.2-.08.41M306.719 118.986a1.62.67-31 0 0-1.734.26 1.62.67-31 0 0-1.044 1.408 1.62.67-31 0 0 1.734-.26 1.62.67-31 0 0 1.044-1.408M316.5 120.59q-.9-.03-1.2.74-.26.68.45.51.85-.21 1.6-.94a.31.31 0 0 0-.24-.53q-.35.02-.61.22M304.972 125.171a1.08.53-32.4 0 0-1.196.131 1.08.53-32.4 0 0-.628 1.027 1.08.53-32.4 0 0 1.196-.131 1.08.53-32.4 0 0 .628-1.027M306.54 123.49q.46-.4.81-.94.45-.7-.27-.28-.73.43-.83 1.06-.08.48.29.16M314.375 124.348a.84.56-34.2 0 0-1.01.009.84.56-34.2 0 0-.38.935.84.56-34.2 0 0 1.01-.009.84.56-34.2 0 0 .38-.935M322.21 127.43a.22.22 0 0 0 .41-.04q.41-1.76-1.6-2.07-.06-.01-.08.04l-.17.31q-.11.21.11.33.89.47 1.33 1.43M303.69 131.923a1.05.75 1.8 0 0-1.026-.783 1.05.75 1.8 0 0-1.073.717 1.05.75 1.8 0 0 1.025.783 1.05.75 1.8 0 0 1.074-.717M307.89 127.4a.28.28 0 0 0 .36.38l.42-.18a.29.28-47.8 0 0-.02-.53q-.51-.15-.76.33M306.51 151.83l3.31.31a.13.13 0 0 0 .14-.12v-.03a1.75 1.68 5.3 0 0-1.59-1.83l-.07-.01a1.75 1.68 5.3 0 0-1.9 1.51l-.01.03a.13.13 0 0 0 .12.14M325.618 167.136a1.26.47 23.2 0 0-.973-.928 1.26.47 23.2 0 0-1.343-.064 1.26.47 23.2 0 0 .973.928 1.26.47 23.2 0 0 1.343.064M302.88 181.81q.52-.09.47-.71-.03-.5-.26-.06-.43.81-.21.77M307.21 187.52q.06.25.26.41.61.46.34-.26-.12-.31-.47-.31a.13.13 0 0 0-.13.16M304.86 191.95a.23.23 0 0 0 .39-.05q.24-.65.16-1.38-.07-.58-.64-.47l-1.89.35q-.99.19-.01.38 1.26.25 1.99 1.17M309.11 192.25q.14.09.31.05.43-.11.01-.26-.17-.06-.31.03t-.01.18M309.27 195.26q-.36 1.08.72.7.74-.26 1.5-.09a.3.3 0 0 0 .32-.44q-.65-1.15-1.77-1.45-1.03-.28-.76.76.07.26-.01.52M314.24 194.558a.96.49-2.5 0 0-.981-.447.96.49-2.5 0 0-.938.53.96.49-2.5 0 0 .98.448.96.49-2.5 0 0 .938-.53" vector-effect="non-scaling-stroke"/><path d="M299.48 211.47a.25.25 0 0 0 .18.4l.9.03a.34.34 0 0 0 .19-.63q-.75-.46-1.27.2M298.83 212.82q.18.03-.05-.34a.08.08 0 0 0-.15.03q-.06.26.2.31M294.94 217.2a.13.13 0 0 0 .21 0q.62-.94 1.66-1.39.67-.29.41-.97l-.32-.83q-.3-.78-.99-.32-2.32 1.53-.97 3.51M303.26 219.596a1.47.26 73 0 0-.181-1.482 1.47.26 73 0 0-.679-1.33 1.47.26 73 0 0 .181 1.482 1.47.26 73 0 0 .679 1.33" vector-effect="non-scaling-stroke"/><path d="M303.31 221.25q-.33.25-.26.64a.44.44 0 0 0 .76.22q.32-.36.06-.77-.23-.35-.56-.09M292.607 243.39a1.18.54 54.4 0 0-.248-1.274 1.18.54 54.4 0 0-1.126-.646 1.18.54 54.4 0 0 .248 1.274 1.18.54 54.4 0 0 1.126.645" vector-effect="non-scaling-stroke"/></g><path fill="#fefefe" d="M241.66 60.09q2.24 2.12 5.27 1.85.64-.06 1-.6.19-.27.5-.38.74-.27 1.22.34l.36.45q.57.71.52-.2l-.08-1.45 1.28.08q2.74 2.53 6.23 1.07l4.39 1.72q-.19.2-.38.31-.23.12-.48.06-1.83-.43-3.54.15a.54.54 0 0 0-.33.7l.11.3a.37.37 0 0 0 .46.23q2.02-.65 3.73.14-8.25 1.54-14.68 5.65-.47-.3-.8-.24-.42.08-.31.48.05.16.19.3l-.84.76q-.8-1.08-.07-1.95.49-.59-.26-.75-1.2-.26-2.26-.85-.92-.52-.72.52c.38 2.08-.16 3.59 1.81 5.04q.2.14.08.36-.1.18-.26.06-1.91-.19-2.37-.68-4.22.13-5.06-1.27-1.88-3.1 1.34-1.49 1.3.66 3.22 1.51.19.08.37.02.24-.08.23-.37-.01-.48-.45-.67l-3.4-1.46q-.64-.27-.16-.79l.32-.35q.36-.39.38-.91.12-2.17-2.17-2.74a.66.65 34.5 0 0-.5.09q-.22.14-.46.15-.52.02-.8-.41-.63-.99-1.56-1.71-.83.36-.9-1.13.66-.67 1.7-.83 1.11-.12 1.83.45a1.08 1.08 0 0 1 .41.76q.08 1.12 1.07 1.8.57.39.32-.26l-1.2-3.13q.16-.14.33-.28 1.99.91 1.68 3.29-.08.57.4.88.79.51 1.28 1.36.28.5.63.05.4-.51 1-.79.64-.29.69.42l.04.44a.67.66-81.8 0 0 .43.58l3.24 1.28q1.59.62.77-.88-.53-.95-.41-2.09.04-.48.47-.71.58-.32 1.2.05a1.04 1-86.8 0 1 .41.48q.74 1.9 2 3.29a.29.29 0 0 0 .4.02l.2-.18q.09-.08.03-.18l-1.69-3.17q-.4-.75.45-.71l2.12.08a.45.45 0 0 1 .43.49q-.05.69.14 1.35.14.47.58.25l.25-.13a.28.27 78.9 0 0 .15-.23q0-.63-.32-1.15-.42-.7.4-.67l2.74.12q.45.02.43-.44l-.01-.29a.38.38 0 0 0-.4-.37q-1.81.09-3.55-.14-1.67-.23-3.26.06-3.95.72-6.81-.78-.81-.43-.6.46.01.06.05.1.7.74-.25 1.09-.22.08-.44.1-.96.09-.57-.79.63-1.43-.91-2.86 1.08-.34 1.98-.13"/><path d="m250.45 60.1.08 1.45q.05.91-.52.2l-.36-.45q-.48-.61-1.22-.34-.31.11-.5.38-.36.54-1 .6-3.03.27-5.27-1.85zM257.96 61.25q-3.49 1.46-6.23-1.07 2.74-.23 6.23 1.07"/><path d="M239.68 60.22q1.54 1.43.91 2.86-.39.88.57.79.22-.02.44-.1.95-.35.25-1.09-.04-.04-.05-.1-.21-.89.6-.46 2.86 1.5 6.81.78 1.59-.29 3.26-.06 1.74.23 3.55.14a.38.38 0 0 1 .4.37l.01.29q.02.46-.43.44l-2.74-.12q-.82-.03-.4.67.32.52.32 1.15a.28.27 78.9 0 1-.15.23l-.25.13q-.44.22-.58-.25-.19-.66-.14-1.35a.45.45 0 0 0-.43-.49l-2.12-.08q-.85-.04-.45.71l1.69 3.17q.06.1-.03.18l-.2.18a.29.29 0 0 1-.4-.02q-1.26-1.39-2-3.29a1.04 1-86.8 0 0-.41-.48q-.62-.37-1.2-.05-.43.23-.47.71-.12 1.14.41 2.09.82 1.5-.77.88l-3.24-1.28a.67.66-81.8 0 1-.43-.58l-.04-.44q-.05-.71-.69-.42-.6.28-1 .79-.35.45-.63-.05-.49-.85-1.28-1.36-.48-.31-.4-.88.31-2.38-1.68-3.29 1.56-.55 3.39-.32m4.17 4.57q-.16.28.04.56a.31.31 0 0 0 .55-.07q.13-.32-.12-.57a.3.3 0 0 0-.47.08M235.96 60.82l1.2 3.13q.25.65-.32.26-.99-.68-1.07-1.8a1.08 1.08 0 0 0-.41-.76q-.72-.57-1.83-.45z"/><path fill="#fefefe" d="M209.01 61.13q-.58 2.54-.39 5.05c.14 1.95 1.26 3.05 2.26 4.69l-3.93.55q.09-1.32-.31-1.93-.47-.71-.53.13-.03.48-.24.96-.31.71-.6-.01l-1.02-2.51a1.5 1.49 50.8 0 0-2.63-.27l-1.93 2.91q-.1.05-.19.1-.52.12-.18-.88.63-1.87 1.73-3.1.44-.48-.14-.77l-1.34-.67q-.92-.46-1.04.57l-.6 5.07q-.56.42-1.39.45l-.59-.87q-.28-.41-.6-.02-.45.56-.58 1.65l-2.72.81-4.27-2.02.63-.77q2.23 1.3 4.64 1.75.56.11.8-.41l1.04-2.3q.26-.58.03-1.18l-1.09-2.83q.21-.06.52-.45l1.17 1.82q.28.43.67.1 1.3-1.08.95-3.43l1.95-.47q.88 2.31 3.23 2.29.66-.01.88.62.22.62.85.87.73.29.33-.38-.33-.56-.86-.99a1.13 1.11-73 0 1-.43-.82q-.05-1.21-.63-2.28 3.13-1.32 6.55-1.03m-1.417 3.078a1.19.42 86.5 0 0 .346-1.214 1.19.42 86.5 0 0-.492-1.162 1.19.42 86.5 0 0-.346 1.214 1.19.42 86.5 0 0 .492 1.162"/><path d="m213.84 61.09 1.25 9.84q-2.1-.94-4.21-.06c-1-1.64-2.12-2.74-2.26-4.69q-.19-2.51.39-5.05z"/><path fill="#fefefe" d="M216.36 61.11q1.24 1.73 3.01 2.94.19.13.21.37.02.18-.13.33-.26.28-.63.21-.4-.08-.73-.28-.55-.34-.41.29l.32 1.5q-.33.34-.73.54l-1.54-2.03q-.37-.49-.36.13.07 3.27 1.44 5.6l-1.72.22-1.25-9.84z"/><path d="M217.8 61.45q3.02 1.16 5.62.82.32-.04.2-.34-.04-.12-.19-.21 1.27-.38 2.18.09a.59.58-44.1 0 1-.02 1.05L218 66.47l-.32-1.5q-.14-.63.41-.29.33.2.73.28.37.07.63-.21.15-.15.13-.33-.02-.24-.21-.37-1.77-1.21-3.01-2.94 2.59-.19 1.44.34"/><path fill="#fefefe" d="m217.8 61.45 5.63.27q.15.09.19.21.12.3-.2.34-2.6.34-5.62-.82"/><path d="M202.46 62.16q.58 1.07.63 2.28a1.13 1.11-73 0 0 .43.82q.53.43.86.99.4.67-.33.38-.63-.25-.85-.87-.22-.63-.88-.62-2.35.02-3.23-2.29z"/><ellipse rx="1.19" ry=".42" transform="rotate(86.5 70.264 141.81)"/><path d="M231.83 62.03q.07 1.49.9 1.13.93.72 1.56 1.71.28.43.8.41.24-.01.46-.15a.66.65 34.5 0 1 .5-.09q2.29.57 2.17 2.74-.02.52-.38.91l-.32.35q-.48.52.16.79l3.4 1.46q.44.19.45.67.01.29-.23.37-.18.06-.37-.02-1.92-.85-3.22-1.51-3.22-1.61-1.34 1.49.84 1.4 5.06 1.27l-6.45 1.21.03-4.98q.01-.36-.35-.46-.19-.05-.37.03a.7.69 70.9 0 0-.41.86q.12.37-.24.53-.31.14-.43-.19-.53-1.51-1.96-2.66-.23-.18-.47-.01l-.24.18q-.47.34-.03.71 1.52 1.32 1.65 3.24a.52.52 0 0 1-.8.48l-8.53-5.45q2.63-2.75 6.62-4.16 1.85 1.44 2.4 2.21 1.63 2.25 1.2-.48-.14-.95-1.32-1.15-.55-.09-.75-.61-.12-.29-.03-.57zm-1.309 4.953a1.81.54 62.3 0 0-.363-1.854 1.81.54 62.3 0 0-1.32-1.352 1.81.54 62.3 0 0 .364 1.854 1.81.54 62.3 0 0 1.32 1.352m-3.295-.138a.75.31 37.4 0 0-.408-.701.75.31 37.4 0 0-.784-.21.75.31 37.4 0 0 .408.702.75.31 37.4 0 0 .784.21m8.974 1.435-.36-1.48q-.19-.76-.83-.3l-.65.48q-.43.31-.07.71.61.69 1.48.98.57.19.43-.39"/><path fill="#fefefe" d="M230.95 62.29q-.09.28.03.57.2.52.75.61 1.18.2 1.32 1.15.43 2.73-1.2.48-.55-.77-2.4-2.21z"/><path d="M261.92 64.86q-1.71-.79-3.73-.14a.37.37 0 0 1-.46-.23l-.11-.3a.54.54 0 0 1 .33-.7q1.71-.58 3.54-.15.25.06.48-.06.19-.11.38-.31 2.23 1.28-.43 1.89M197.14 63.32q.35 2.35-.95 3.43-.39.33-.67-.1l-1.17-1.82z"/><ellipse fill="#fefefe" rx="1.81" ry=".54" transform="rotate(62.3 60.756 222.687)"/><path d="M217.27 67.01q-1.24.43-1.35 1.11-.08.52.44.6l1.42.24q.41 1.01-.6 1.68-.18.04-.37.07-1.37-2.33-1.44-5.6-.01-.62.36-.13z"/><path fill="#fefefe" d="M243.85 64.79a.3.3 0 0 1 .47-.08q.25.25.12.57a.31.31 0 0 1-.55.07q-.2-.28-.04-.56"/><path d="m193.83 65.28 1.09 2.83q.23.6-.03 1.18l-1.04 2.3q-.24.52-.8.41-2.41-.45-4.64-1.75zM199.5 70.8l-1.57.22.6-5.07q.12-1.03 1.04-.57l1.34.67q.58.29.14.77-1.1 1.23-1.73 3.1-.34 1 .18.88"/><ellipse fill="#fefefe" rx=".75" ry=".31" transform="rotate(37.4 15.245 367.97)"/><path fill="#fefefe" d="M236.2 68.28q.14.58-.43.39-.87-.29-1.48-.98-.36-.4.07-.71l.65-.48q.64-.46.83.3z"/><path d="m206.95 71.42-7.26-.72 1.93-2.91a1.5 1.49 50.8 0 1 2.63.27l1.02 2.51q.29.72.6.01.21-.48.24-.96.06-.84.53-.13.4.61.31 1.93M222.3 67.42q3.71 4.03 8.84 6.17.42.17 1.56 1.33-2.34.32-3.18-.25-4.26-2.86-9.02-3.89-.48-1.07-1.12-1.68 1.62-.14 2.92-1.68"/><path fill="#fefefe" d="m222.83 67.05 8.53 5.45a.52.52 0 0 0 .8-.48q-.13-1.92-1.65-3.24-.44-.37.03-.71l.24-.18q.24-.17.47.01 1.43 1.15 1.96 2.66.12.33.43.19.36-.16.24-.53a.7.69 70.9 0 1 .41-.86q.18-.08.37-.03.36.1.35.46l-.03 4.98-2.28.15q-1.14-1.16-1.56-1.33-5.13-2.14-8.84-6.17.26-.19.53-.37"/><path d="M276.45 67.56q-1.35 2.7-1.54 5.66-.05.94-.89.83a.47.47 0 0 1-.32-.72q1.54-2.3 1.29-5.69.76-.52 1.46-.08"/><path fill="#fefefe" d="M274.99 67.64q.25 3.39-1.29 5.69a.47.47 0 0 0 .32.72q.84.11.89-.83.19-2.96 1.54-5.66l.42.08q.16 1.1.76 1.85.34.43.82.17 1.48-.82 3.38-.79.4 0 .72-.22.32-.23.5-.58l2.15.16q-2.12 1.78-4.35 2.37-.45.13-.68.54-.36.67-1.06 1.02-3.18 1.56-5.66 3.54-.53.42-.68-.23-.29-1.15-.85-2.24a2.46 2.45 60.2 0 0-3.49-.95q-.86.54-1.55 1.37a1.44 1.43 23.9 0 1-1.3.5l-2.56-.34q-.55-.08-.96.3-.35.34-.84.48-.65.2-.22-.33 2.4-2.88 4.91-3.44.51-.12.36-.61t-.65-.68q-.51-.19.02-.32l.41-.1.67-.04-.07.34q-.1.42.33.46.69.08.96.75.25.64.83.27l.52-.33q.47-.29.99-.07.64.27 1.26.06.41-.14.41-.57.01-.14-.07-.24-.26-.36-.7-.33-2.06.16-3.7-.49 1.36-.67 2.74-.73.38.07.82-.04z"/><path d="M283.05 68.07q-.18.35-.5.58-.32.22-.72.22-1.9-.03-3.38.79-.48.26-.82-.17-.6-.75-.76-1.85zM245.48 71.81l-.38.31q-.45.38-.02.77l.92.83q-.75-.11-1.23.33-.29.26.02.65-.61-.03-.99-.46.16.12.26-.06.12-.22-.08-.36c-1.97-1.45-1.43-2.96-1.81-5.04q-.2-1.04.72-.52 1.06.59 2.26.85.75.16.26.75-.73.87.07 1.95m-2.21-1.13q-.23.37-.03.76.17.32.41.06.28-.31.18-.73a.31.31 0 0 0-.56-.09M271.04 68.15q-.44.11-.82.04.43-.25.82-.04"/><path d="M291.99 70.23q-.69-.57-1.28 1.64l-4.45 1.28q-.61-1.11-1.49-1.01-.55.06-.52.62.04.71.54 1.35-.71.52-1.54.64-.08-.71-.28-1.06-.31-.56-.72-.06-.64.77-.68 2.09l-.79.38q-2.21-.27-3.7 1.5-.15.19-.1.34.06.15.26.3-.49.59-1.19 1-.7-.33-1.25-.09-.51.22-.6.77-.06.35-.28.61-.37.46-.99.41-.54-.03-1.02-.27-.41-.2-.87-.13-3.97.6-6.79 4.45l-1.57-.07q1.7-1.68 3.33-3.46.25-.27-.09-.41-.11-.04-.13-.21-.04-.35.31-.42 2.67-.55 4.81-3.08.61-.71-.31-.56-2.71.45-5.51.29-.48-.02-.57-.49-.05-.23.1-.39.83-.94-.4-1.19-1.87-.38-2.75.94-.29.44.06.83 1.39 1.56 2.6 3.35.08.12.09.27 0 .39-.71.3a.78.74 71.6 0 1-.43-.23q-.69-.74-1.21.1-.28.46-.81.42-2.35-.18-4.67-1.45a.85.84-48.4 0 0-.91.06q-1.21.9-2.02 2.12-.33-.23-.54-.68l1.13-1.63q.29-.42.27-.94-.08-1.71 1.26-2.59.51-.34.06-.76-.82-.74-2.26-1l4.19-2.11q1.17 1.18 2.46 1.16a1.38 1.36-67.4 0 0 .93-.39q1.96-1.93 4.22-3.28.13-.07-.01-.12-.04-.02-.09-.04.02-.34.97-.22l-.41.1q-.53.13-.02.32.5.19.65.68t-.36.61q-2.51.56-4.91 3.44-.43.53.22.33.49-.14.84-.48.41-.38.96-.3l2.56.34a1.44 1.43 23.9 0 0 1.3-.5q.69-.83 1.55-1.37a2.46 2.45 60.2 0 1 3.49.95q.56 1.09.85 2.24.15.65.68.23 2.48-1.98 5.66-3.54.7-.35 1.06-1.02.23-.41.68-.54 2.23-.59 4.35-2.37zm-9.781 1.46a.37.37 0 0 0-.51-.12l-6.153 3.815a.37.37 0 0 0-.12.51l.085.136a.37.37 0 0 0 .51.119l6.153-3.815a.37.37 0 0 0 .12-.51zm-13.919 3.32 2.71.51q1.41.26.51-.86l-1.55-1.94a.65.64-45.3 0 0-1.02.01l-2.02 2.68a.07.07 0 0 0 .09.1l.51-.34q.35-.24.77-.16m-10.213.106a.81.49 24.5 0 0-.534-.782.81.49 24.5 0 0-.94.11.81.49 24.5 0 0 .534.782.81.49 24.5 0 0 .94-.11m-1.737 1.844q.36-.12.39-.54.03-.49-.32-.15l-1.18 1.13q-.42.4.16.39.46-.02.57-.44.09-.29.38-.39m3.61.39q.11.11.27.14.28.05.2-.22-.2-.6-.67-1.02-.28-.24-.55.01-.09.1-.13.23-.07.3.19.47.18.11.38.19.17.06.31.2m1.76 2.68a.32.32 0 0 0 .19-.6l-4.05-2.32a.32.32 0 0 0-.42.47l1.54 2.02a.32.32 0 0 0 .21.13zm9.57-1.09q.49.24 1.01.3.69.08.82-.61l.09-.51q.12-.65-.53-.52-.9.17-1.48.98-.17.23.09.36m-.79.31q-.11.05-.14.17a.05.05 0 0 0 .05.07q.13-.01.19-.12.16-.24-.1-.12"/><path d="M267.48 68.92q1.64.65 3.7.49.44-.03.7.33.08.1.07.24 0 .43-.41.57-.62.21-1.26-.06-.52-.22-.99.07l-.52.33q-.58.37-.83-.27-.27-.67-.96-.75-.43-.04-.33-.46l.07-.34q.53-.27.76-.15"/><path fill="#fefefe" d="M219.38 69.1q.64.61 1.12 1.68-1.69.41-3.32-.14 1.01-.67.6-1.68zM265.08 69.33q.05.02.09.04.14.05.01.12-2.26 1.35-4.22 3.28a1.38 1.36-67.4 0 1-.93.39q-1.29.02-2.46-1.16z"/><path d="m196.54 71.47-1.77.76q.13-1.09.58-1.65.32-.39.6.02zM247.24 70.51q-.41.39-.92.54-.14-.14-.19-.3-.11-.4.31-.48.33-.06.8.24"/><path fill="#fefefe" d="M291.99 70.23q.79 1.6-1.28 1.64.59-2.21 1.28-1.64M243.27 70.68a.31.31 0 0 1 .56.09q.1.42-.18.73-.24.26-.41-.06-.2-.39.03-.76"/><path d="m187.78 71.02 4.27 2.02-5.51 1.82q1.04-1.39.73-3.08 0-.03-.02-.03l-.25-.04q.33-.54.78-.69"/><path fill="#fefefe" d="M186.54 74.86q-.84-.06-1.16-.51-.32-.44.04-.85l1.58-1.79.25.04q.02 0 .02.03.31 1.69-.73 3.08"/><rect width="7.98" height=".9" x="-3.99" y="-.45" fill="#fefefe" rx=".37" transform="rotate(-31.8 269.074 -452.543)"/><path fill="#fefefe" d="M286.26 73.15q-.62.72-1.47.96-.5-.64-.54-1.35-.03-.56.52-.62.88-.1 1.49 1.01M267.52 75.17l-.51.34a.07.07 0 0 1-.09-.1l2.02-2.68a.65.64-45.3 0 1 1.02-.01l1.55 1.94q.9 1.12-.51.86l-2.71-.51q-.42-.08-.77.16M283.25 74.75l-1.68.97q.04-1.32.68-2.09.41-.5.72.06.2.35.28 1.06M246 73.72l.74.61.17 1.56-2.12-1.19q-.31-.39-.02-.65.48-.44 1.23-.33"/><path d="m248.12 75.37-.39.79q-.29-.19-.82-.27l-.17-1.56q.78.4 1.38 1.04"/><path fill="#fefefe" d="M253.38 74.11q1.44.26 2.26 1 .45.42-.06.76-1.34.88-1.26 2.59.02.52-.27.94l-1.13 1.63q-1.74-1.37-2.9-3.2-.27-.42-.69-.68l-1.6-.99.39-.79q1.18.85 2.66.9.27.54.37.61 1.63 1.26.8-.63-.17-.38-.28-1.18.83-.72 1.71-.96"/><ellipse fill="#fefefe" rx=".81" ry=".49" transform="rotate(24.5 -43.538 630.008)"/><path d="M251.67 75.07q.11.8.28 1.18.83 1.89-.8.63-.1-.07-.37-.61.28-1.04.89-1.2"/><path fill="#fefefe" d="m262.68 84.92-3.75-.01q.2-.97-2.14-.08l-3.33-3.12q.81-1.22 2.02-2.12a.85.84-48.4 0 1 .91-.06q2.32 1.27 4.67 1.45.53.04.81-.42.52-.84 1.21-.1a.78.74 71.6 0 0 .43.23q.71.09.71-.3-.01-.15-.09-.27-1.21-1.79-2.6-3.35-.35-.39-.06-.83.88-1.32 2.75-.94 1.23.25.4 1.19-.15.16-.1.39.09.47.57.49 2.8.16 5.51-.29.92-.15.31.56-2.14 2.53-4.81 3.08-.35.07-.31.42.02.17.13.21.34.14.09.41-1.63 1.78-3.33 3.46m-1.973-2.584a.83.29-36.5 0 0-.84.26.83.29-36.5 0 0-.494.728.83.29-36.5 0 0 .84-.26.83.29-36.5 0 0 .494-.728M255.96 77.35q-.11.42-.57.44-.58.01-.16-.39l1.18-1.13q.35-.34.32.15-.03.42-.39.54-.29.1-.38.39M280.78 76.1l-3.54 2.14q-.2-.15-.26-.3-.05-.15.1-.34 1.49-1.77 3.7-1.5"/><path fill="#fefefe" d="M259.64 77.15q-.2-.08-.38-.19-.26-.17-.19-.47.04-.13.13-.23.27-.25.55-.01.47.42.67 1.02.08.27-.2.22-.16-.03-.27-.14-.14-.14-.31-.2M261.71 80.03l-2.53-.3a.32.32 0 0 1-.21-.13l-1.54-2.02a.32.32 0 0 1 .42-.47l4.05 2.32a.32.32 0 0 1-.19.6M271.28 78.94q-.26-.13-.09-.36.58-.81 1.48-.98.65-.13.53.52l-.09.51q-.13.69-.82.61-.52-.06-1.01-.3M270.59 79.37q-.06.11-.19.12a.05.05 0 0 1-.05-.07q.03-.12.14-.17.26-.12.1.12M276.05 79.24l-4.16 3.27q-.66-.36-1.43-.42a1.35 1.34-62.5 0 0-.96.31q-.9.78-1.99.97-.54.1-.5.64.04.7-.19.89l-2.57.09q2.82-3.85 6.79-4.45.46-.07.87.13.48.24 1.02.27.62.05.99-.41.22-.26.28-.61.09-.55.6-.77.55-.24 1.25.09"/><path d="M271.89 82.51q-.28.48-.61.65-1.14-.56-2.36 1.29-.95.59-2.1.45.23-.19.19-.89-.04-.54.5-.64 1.09-.19 1.99-.97a1.35 1.34-62.5 0 1 .96-.31q.77.06 1.43.42"/><ellipse rx=".83" ry=".29" transform="rotate(-36.5 255.615 -352.883)"/><path fill="#fefefe" d="m271.28 83.16.17.53q-.56.36-.79 1.11l-1.74-.35q1.22-1.85 2.36-1.29"/><path d="M271.45 83.69q.31.03.54.2.38.41.17 1.06-.79.3-1.5-.15.23-.75.79-1.11"/><path fill="#fefefe" d="m279.18 86.29-.45.82q-.3-.17-.78-.21-.3-.37-.4-.16l-5.39-1.79q.21-.65-.17-1.06z"/><path d="M258.93 84.91q-.94.22-2.14-.08 2.34-.89 2.14.08M292.33 86.19l-5.3 1.82q-.54.18-.96-.19-.54-.47-1.17-.54-1.09-.1-.35.71l.41.44q.49.55-.24.54-.94-.02-1.48.57-.62.67.29.64l1.49-.05q.06 0 .1.02.12.08.18.19.14.26-.13.39l-2.11 1.07-1.28-3.2a1.43 1.41-87 0 0-.62-.7q-1.04-.59-2.43-.79l.45-.82z"/><path fill="#fefefe" d="m292.33 86.19 2.09.14-11.3 6.72-.06-1.25 2.11-1.07q.27-.13.13-.39-.06-.11-.18-.19-.04-.02-.1-.02l-1.49.05q-.91.03-.29-.64.54-.59 1.48-.57.73.01.24-.54l-.41-.44q-.74-.81.35-.71.63.07 1.17.54.42.37.96.19z"/><path d="M298.61 87.3q.11.79.54 1.27.41.46.69-.09.16-.32.15-.72 2.91.34 5.41 1.76-1.24.57-1.72 2.2-.16.55.34.29 1.25-.64 1.65-2.22l5.66 3.14q-10.71 1.15-19.32 6.25-.84.5-.53-.42l.14-.43q.21-.62-.38-.9-1.99-.95-1.68-3.02a.52.52 0 0 0-.67-.57q-.82.25-.94 1.07-.19 1.39-1.16.38-.93-.97-2.17-1.53-.13-.06-.27-.03-.27.04-.36.43a.46.45 26.3 0 0 .16.45q1.37 1.12 1.57 3.35.04.45.47.32 2.13-.61 3.64 1.91a.68.68 0 0 1-.2.91l-4.47 3.04-.17-1.09q1.06.16.6-.67a.38.37 82.2 0 0-.24-.19q-.34-.1-.63.34-.56-.65-.49-1.4l1.26-.36q.76-.21.3-.85-.23-.33-.6-.51a.69.68-52.8 0 0-.77.11q-.27.25-.36.79l-2.46-1.58.05-1.51 1.47-4.17 11.3-6.72zm-9.95 4.2q.22-.51-.29-.29-.79.34-1.44 1.01-.26.27.02.53l.27.25q.21.2.41-.01.67-.68 1.03-1.49m2.4.8q.01.09-.07.18t.02.01q.02-.02.06-.01.12.03.09-.09-.03-.09-.1-.17-.03-.03 0 .08m10.069 1.66a.81.36 57.2 0 0-.136-.875.81.36 57.2 0 0-.742-.486.81.36 57.2 0 0 .136.876.81.36 57.2 0 0 .742.486m-8.524 3.23a1.74.69 71.4 0 0 .099-1.87 1.74.69 71.4 0 0-1.209-1.43 1.74.69 71.4 0 0-.099 1.87 1.74.69 71.4 0 0 1.209 1.43m-8.185.33q-.13.31.13.4.12.05.24.02.42-.1.1-.48-.28-.34-.47.06M277.95 86.9q-.36.01-.4-.16.1-.21.4.16"/><path fill="#fefefe" d="M299.99 87.76q.01.4-.15.72-.28.55-.69.09-.43-.48-.54-1.27.88-.22 1.38.46M305.4 89.52q.24.17.27.27-.4 1.58-1.65 2.22-.5.26-.34-.29.48-1.63 1.72-2.2M288.66 91.5q-.36.81-1.03 1.49-.2.21-.41.01l-.27-.25q-.28-.26-.02-.53.65-.67 1.44-1.01.51-.22.29.29M291.06 92.22q.07.08.1.17.03.12-.09.09-.04-.01-.06.01-.1.08-.02-.01t.07-.18q-.03-.11 0-.08"/><ellipse fill="#fefefe" rx=".81" ry=".36" transform="rotate(57.2 64.801 322.392)"/><path fill="#fefefe" d="M311.33 92.93q3.15 2 5.85 5.44-.56 1.29-1.37 1.38-.63.07-.68-.57-.06-.87-.83-1.39-.34-.23-.13-.58l.22-.38q.27-.45-.22-.62-.19-.06-.38-.03-.49.1-.61.59-.3 1.17-1.5 1.42-.22.04-.31-.16-.08-.17-.06-.36.05-.35.38-.47 1.11-.43 1.44-1.55.42-1.46-1.21-1.72a1.48 1.46-66.3 0 0-1.4.56q-1.32 1.72-3.28 2.42-.84.31-.26-.38c.73-.85 1.73-1.08 2.43-1.75q.73-.73-.29-.58-7.3 1.03-13.6 4.51-.38.2-.17.57.08.14-.05.24a.4.39-51.5 0 1-.38.05q-1.07-.46-1.8.55a1.36 1.36 0 0 0 1.28 2.14q.9-.12 1.81-1.3.33-.43.84-.25l.42.14q.77.27 1.1-.47.63-1.45 2.72-1.79.48-.07.75.33.65.99.6 1.99l-1.65.43q-1.03-.46-1.5.36-1.27 1.03-3.02 1.53-1.72-.3-2.64.52-.54.48-.96-.1l-1.18-1.62q-.24-.32-.63-.42-.81-.19-1.53.51a.57.57 0 0 0 .23.95l.87.26q.52.16.01.33-.27.09-.53.03-.31-.06-.59-.26-1.11-.77-2.05.64a.64.64 0 0 0 .18.89l2.39 1.54q.44.28.59.78l.14.47q-3.67-1.16-5.61-3.61l4.47-3.04a.68.68 0 0 0 .2-.91q-1.51-2.52-3.64-1.91-.43.13-.47-.32-.2-2.23-1.57-3.35a.46.45 26.3 0 1-.16-.45q.09-.39.36-.43.14-.03.27.03 1.24.56 2.17 1.53.97 1.01 1.16-.38.12-.82.94-1.07a.52.52 0 0 1 .67.57q-.31 2.07 1.68 3.02.59.28.38.9l-.14.43q-.31.92.53.42 8.61-5.1 19.32-6.25"/><ellipse fill="#fefefe" rx="1.74" ry=".69" transform="rotate(71.4 79.546 250.985)"/><path d="M317.18 98.37q.81.9 1.04 1.86.15.64-.51.58c-1.23-.12-2.17-.74-3.37-.8q-1.73-.09-3.05-.14-.19-1.81-2.15.02l-6.5 1.02q.05-1-.6-1.99-.27-.4-.75-.33-2.09.34-2.72 1.79-.33.74-1.1.47l-.42-.14q-.51-.18-.84.25-.91 1.18-1.81 1.3a1.36 1.36 0 0 1-1.28-2.14q.73-1.01 1.8-.55a.4.39-51.5 0 0 .38-.05q.13-.1.05-.24-.21-.37.17-.57 6.3-3.48 13.6-4.51 1.02-.15.29.58c-.7.67-1.7.9-2.43 1.75q-.58.69.26.38 1.96-.7 3.28-2.42a1.48 1.46-66.3 0 1 1.4-.56q1.63.26 1.21 1.72-.33 1.12-1.44 1.55-.33.12-.38.47-.02.19.06.36.09.2.31.16 1.2-.25 1.5-1.42.12-.49.61-.59.19-.03.38.03.49.17.22.62l-.22.38q-.21.35.13.58.77.52.83 1.39.05.64.68.57.81-.09 1.37-1.38m-11.573-1.133a.47.23-38.6 0 0-.51.113.47.23-38.6 0 0-.224.473.47.23-38.6 0 0 .51-.113.47.23-38.6 0 0 .224-.473m7.443 1.113q-.25-.07-.26.18a.28.28 0 0 0 .34.29q.31-.08.23-.37-.08-.31-.31-.1"/><path fill="#fefefe" d="m281.65 97.22-.05 1.51q-.45-.15-.49-.73-.03-.56.54-.78M284.42 97.52q.19-.4.47-.06.32.38-.1.48-.12.03-.24-.02-.26-.09-.13-.4"/><ellipse fill="#fefefe" rx=".47" ry=".23" transform="rotate(-38.6 291.871 -387.05)"/><path fill="#fefefe" d="M313.05 98.35q.23-.21.31.1.08.29-.23.37a.28.28 0 0 1-.34-.29q.01-.25.26-.18M311.29 99.87l-2.15.02q1.96-1.83 2.15-.02M284.23 101.13q-.24-.38-.17-.82.09-.54.36-.79a.69.68-52.8 0 1 .77-.11q.37.18.6.51.46.64-.3.85z"/><path d="M300.99 101.34q-.7.32-1.5.36.47-.82 1.5-.36M296.47 103.23l-5.08 2.72q-1.17.63.08 1.07.7.25 1.56.91-.13.43-.07.85-1.21-.13-2.19-1.03l-.14-.47q-.15-.5-.59-.78l-2.39-1.54a.64.64 0 0 1-.18-.89q.94-1.41 2.05-.64.28.2.59.26.26.06.53-.03.51-.17-.01-.33l-.87-.26a.57.57 0 0 1-.23-.95q.72-.7 1.53-.51.39.1.63.42l1.18 1.62q.42.58.96.1.92-.82 2.64-.52"/><path fill="#fefefe" d="M284.99 103.05q-.25-.18-.27-.52.29-.44.63-.34a.38.37 82.2 0 1 .24.19q.46.83-.6.67M294.78 108.09l.33.4q.35.43.66-.03l.27-.41q4.94 1.04 8.83 3.28.74 1.95-2.34.86-.4-.14-.91-.62-.52-.48-1.05-.52-1.91-1.21-4.07-1.24-.5-.01-.94-.23-1.27-.65-2.6-.8-.06-.42.07-.85z"/><path d="m296.04 108.05-.27.41q-.31.46-.66.03l-.33-.4zM304.87 111.33q2.45.61 3.64 1.68.58 1.07 1.49.76 1.54.49 2.76 1.7-2.14.52-3.44 2.28a.54.53 33 0 1-.7.14l-.25-.15q-.25-.14-.08-.38l1.26-1.65q.82-1.08-.52-.88-2.91.44-5.8 2.23-.76.46-.1 1.13.46.48 0 .95l-.35.37q-.42.44-.95.15-.3-.16-.56-.45l-.17-1.92q.62.38 1.11-.56.24-.46.7-.7l3.93-2q.25-.13.07-.35l-.19-.25q-.17-.21-.43-.13-1.58.46-3 .27a.72.72 0 0 0-.73.39q-.38.76-.5 1.58a.36.34-88.8 0 1-.3.3q-.13.01-.29-.03-.1-2.7-.9-4.76.53.04 1.05.52.51.48.91.62 3.08 1.09 2.34-.86"/><path fill="#fefefe" d="M310 113.77q-.91.31-1.49-.76 1 .09 1.49.76M301.1 117.29q-.02-.88.37-1.48.16.04.29.03a.36.34-88.8 0 0 .3-.3q.12-.82.5-1.58a.72.72 0 0 1 .73-.39q1.42.19 3-.27.26-.08.43.13l.19.25q.18.22-.07.35l-3.93 2q-.46.24-.7.7-.49.94-1.11.56M312.76 115.47q.31.24.49.59-.43 1.26-.18 2.5.06.29.35.38.14.04.26-.05.24-.17.28-.46.11-.79.17-1.71 3.37 2.01 5.88 5.19-1.49.63-3.04.83-1.65.22-2.69-.67-1.89-1.62-2.41-3.72-.46-1.83-1.05-.04-.33 1.02.43 2.24.47.76-.42.69-1.35-.1-2.44-.95-.51-.41-1.01.01l-3.34 2.81q-.61.51.15.75l1.83.58q.71.22 1.1-.41.59-.97 1.8-.99 1.84-.02.26.9-2.64 1.54-4.78 4.33a1.66 1.63 63.3 0 0-.35 1.1q.02.58-.17 1.1-.21.54-.7.23l-1.16-.73q-.62-.39-.64.34-.04 1.65-1.36 2.63l1.06-8.46q1.1-1.54.01-2.98l.03-.79.01-.92.14-.58q.26.29.56.45.53.29.95-.15l.35-.37q.46-.47 0-.95-.66-.67.1-1.13 2.89-1.79 5.8-2.23 1.34-.2.52.88l-1.26 1.65q-.17.24.08.38l.25.15a.54.53 33 0 0 .7-.14q1.3-1.76 3.44-2.28m-6.33 1.26q.07.2.24.07.21-.16.09-.44-.1-.21-.25-.04-.16.2-.08.41m.289 2.256a1.62.67-31 0 0-1.734.26 1.62.67-31 0 0-1.044 1.408 1.62.67-31 0 0 1.734-.26 1.62.67-31 0 0 1.044-1.408m9.781 1.604q-.9-.03-1.2.74-.26.68.45.51.85-.21 1.6-.94a.31.31 0 0 0-.24-.53q-.35.02-.61.22m-11.528 4.581a1.08.53-32.4 0 0-1.196.131 1.08.53-32.4 0 0-.628 1.027 1.08.53-32.4 0 0 1.196-.131 1.08.53-32.4 0 0 .628-1.027"/><path d="M306.43 116.73q-.08-.21.08-.41.15-.17.25.04.12.28-.09.44-.17.13-.24-.07M314.13 116.72q-.06.92-.17 1.71-.04.29-.28.46-.12.09-.26.05-.29-.09-.35-.38-.25-1.24.18-2.5.73-.11.88.66"/><path d="M320.01 121.91q.25-.02.47.43-.76.68-1.75 1.05a.39.38-28.3 0 0-.18.58l.17.23a.65.64 58.2 0 0 .83.2q1.07-.58 2.44-.53 1.57 1.13 2.2 3.02l.02 4.15-1.24-.1-1.03-2.27q-.21-.46-.66-.24-.13.06-.27.13-.46.23-.86-.11-.7-.61-1.49-.09-1.99 1.3-3.67-.4-.44-.45.1-.78l.49-.3q.49-.3 1.05-.16 1.67.41 3.38 1.08 1.97.78.59-.83-1.49-1.71-4-2.62a.55.54 16.2 0 0-.73.39q-.2.9-1.05 1.29-1.93.91-3.41 2.22-.7.61-.5-.3.23-.99 1.21-1.79.17-.14.1-.34l-.16-.5q-.12-.38-.46-.16l-.87.57q-.44.29-.91.06c-1.64-.82-3.08 1.24-3.88 2.41q-.24.37.06.68.11.11.22.21.67.58-.19.79-1.5.35-1.42 2.38.02.57.47.21.37-.29.82-.36a.57.56-9.9 0 1 .65.45l.15.78q-.96.49-2.22.62.04-.13-.06-.28-.08-.13-.22-.1l-2.93.46q-.48.08-.46.57.02.38.45.58-.11.59-.61 1.1-.76-.56-1.51.16-.06-.36 0-.7.09-.51.47-.87.36-.34.05-.71-.34-.43-.03-.87.15-.21.39-.36 1.32-.98 1.36-2.63.02-.73.64-.34l1.16.73q.49.31.7-.23.19-.52.17-1.1a1.66 1.63 63.3 0 1 .35-1.1q2.14-2.79 4.78-4.33 1.58-.92-.26-.9-1.21.02-1.8.99-.39.63-1.1.41l-1.83-.58q-.76-.24-.15-.75l3.34-2.81q.5-.42 1.01-.01 1.09.85 2.44.95.89.07.42-.69-.76-1.22-.43-2.24.59-1.79 1.05.04.52 2.1 2.41 3.72 1.04.89 2.69.67 1.55-.2 3.04-.83m-13.47 1.58q.46-.4.81-.94.45-.7-.27-.28-.73.43-.83 1.06-.08.48.29.16m7.835.858a.84.56-34.2 0 0-1.01.009.84.56-34.2 0 0-.38.935.84.56-34.2 0 0 1.01-.009.84.56-34.2 0 0 .38-.935m7.835 3.082a.22.22 0 0 0 .41-.04q.41-1.76-1.6-2.07-.06-.01-.08.04l-.17.31q-.11.21.11.33.89.47 1.33 1.43m-18.52 4.493a1.05.75 1.8 0 0-1.026-.783 1.05.75 1.8 0 0-1.073.717 1.05.75 1.8 0 0 1.025.783 1.05.75 1.8 0 0 1.074-.717"/><ellipse rx="1.62" ry=".67" transform="rotate(-31 368.693 -490.582)"/><path d="m301.13 119.79-.01.92zM316.5 120.59q.26-.2.61-.22a.31.31 0 0 1 .24.53q-.75.73-1.6.94-.71.17-.45-.51.3-.77 1.2-.74M301.08 124.48l.01-2.98q1.09 1.44-.01 2.98"/><path fill="#fefefe" d="M306.54 123.49q-.37.32-.29-.16.1-.63.83-1.06.72-.42.27.28-.35.54-.81.94M320.48 122.34q.84.6 1.51 1.53-1.37-.05-2.44.53a.65.64 58.2 0 1-.83-.2l-.17-.23a.39.38-28.3 0 1 .18-.58q.99-.37 1.75-1.05"/><ellipse fill="#fefefe" rx=".84" ry=".56" transform="rotate(-34.2 359.707 -447.406)"/><path fill="#fefefe" d="m322.97 130.94-3.27-.04q-.32-.06-.66 0l-4.92.46-.22-2.72q-.05-.53-.43-.16-1.36 1.29-.34 3.3-3-.06-6.43 1.56l-.15-.78a.57.56-9.9 0 0-.65-.45q-.45.07-.82.36-.45.36-.47-.21-.08-2.03 1.42-2.38.86-.21.19-.79-.11-.1-.22-.21-.3-.31-.06-.68c.8-1.17 2.24-3.23 3.88-2.41q.47.23.91-.06l.87-.57q.34-.22.46.16l.16.5q.07.2-.1.34-.98.8-1.21 1.79-.2.91.5.3 1.48-1.31 3.41-2.22.85-.39 1.05-1.29a.55.54 16.2 0 1 .73-.39q2.51.91 4 2.62 1.38 1.61-.59.83-1.71-.67-3.38-1.08-.56-.14-1.05.16l-.49.3q-.54.33-.1.78 1.68 1.7 3.67.4.79-.52 1.49.09.4.34.86.11.14-.07.27-.13.45-.22.66.24zm-15.08-3.54a.28.28 0 0 0 .36.38l.42-.18a.29.28-47.8 0 0-.02-.53q-.51-.15-.76.33"/><ellipse rx="1.08" ry=".53" transform="rotate(-32.4 368.447 -460.416)"/><path fill="#fefefe" d="M322.21 127.43q-.44-.96-1.33-1.43-.22-.12-.11-.33l.17-.31q.02-.05.08-.04 2.01.31 1.6 2.07a.22.22 0 0 1-.41.04"/><path d="M307.89 127.4q.25-.48.76-.33a.29.28-47.8 0 1 .02.53l-.42.18a.28.28 0 0 1-.36-.38"/><path fill="#fefefe" d="M324.19 126.89q1.81 1.93 2.64 4.41.16.5-.35.61-1.26.28-2.27-.87z"/><path d="m314.12 131.36-.99.42q-1.02-2.01.34-3.3.38-.37.43.16zM319.7 130.9h-.66q.34-.06.66 0"/><ellipse fill="#fefefe" rx="1.05" ry=".75" transform="rotate(1.8 -4046.524 9698.483)"/><path fill="#fefefe" d="M304.48 133.96q-1.09 1.14-3.22 1.23-.43-.2-.45-.58-.02-.49.46-.57l2.93-.46q.14-.03.22.1.1.15.06.28M300.65 136.29l3.22 6.18q.23.85-1.16 1.73-.17-3.91-2.98-6.12-.4-.31-.47-.81l-.12-.82q.75-.72 1.51-.16"/><path d="M306.69 145.78q-2.01.74-4.43-.31-.15-.66.45-1.27 1.39-.88 1.16-1.73l.15 1.83q.05.53.57.58 1.38.12 2.1.9"/><path fill="#fefefe" d="M306.69 145.78q1.91.6 1.41 1.05-.46.21-.38.61.09.44.39.54.56.19.7-.39l.18-.7q4.04 1.74 7.47 5.12l-1.85.61q-.51.17-.84-.26l-2.18-2.83a.73.72 74.3 0 0-.46-.26q-3.07-.38-5 1.39-.68.62-1.4.04-.98-.8-2.16-1.19-.55-.19-.09-.54l1.53-1.18q.39-.3 0-.6l-.31-.25a.31.3 35.7 0 0-.44.07q-.43.64-.92 1l-.08-2.54q2.42 1.05 4.43.31"/><path d="m308.1 146.83.89.06-.18.7q-.14.58-.7.39-.3-.1-.39-.54-.08-.4.38-.61M316.46 152.01q.96.25 1.39 1.27-.84.83-.07 1.68.83.9 1.71.11 2.32 2.04 3.23 3.81-1.52 3.04-2.75 3.13-1.61.11-2.93.79-.62.32-.52-.37.04-.33.31-.52.66-.47-.04-.88-4.22-2.53-6.89 1.67a.23.22 37.4 0 1-.34.04q-1.04-.91-2.3-1.33a.05.04 9.7 0 0-.06.04q0 .15-.09.25-.34.36-.75.07-.97-.68-1.69-1.62-.86-1.12.42-.52l.39.18q.59.27.91-.29.29-.51.85-.36.47.14.76.53.42.58.89 1.09.4.43.73-.05l.53-.76a1.42 1.42 0 0 1 .74-.53q2.69-.82 5.17-.14.52.14 1.05.03l.79-.17q.47-.1.8.25 1.11 1.19 2.7.33.47-.24.48-.77.01-.49-.3-.85-.39-.47-.97-.27-1.03.37-1.73-.35-.28-.28-.56 0-.91.92-2.09.67-1.31-.28-1.54-1.9-.13-.87.52-.28l1.03.95q.49.45 1.1.18l.38-.17q.45-.21.1-.55l-1.63-1.64q-.76-.76-1.41.09l-2.36 3.12q-.2.27-.44.04l-.2-.19q-.26-.24-.05-.52l1.99-2.84a.16.16 0 0 0-.11-.25l-2.61-.41q-.32-.05-.51.2-.71.92-.69 2.06a.74.74 0 0 0 .52.69q.35.11.64.36a.42.42 0 0 1-.19.73q-.65.14-1.06-.35-.47-.54-.61.16-.08.38-.44.56a.77.77 0 0 1-.82-.1q-.62-.49-1.29-.01a1.27 1.25-59.9 0 1-.84.23q-.89-.08-1.53.33-.42.27-.75-.11l-1.36-1.58q-.06-.43.02-.86 2.11-.46 3.15.63.32.34.79.26l.57-.11q1.63-.31.08-.91-.26-.1-.53-.2-.94-.34.06-.4 1.05-.06 2 .53.11.07.19-.03.7-.86.77-2.05 0-.14-.13-.18-3.22-1.09-5.3 1.31a.35.35 0 0 1-.6-.3q.17-.83 1.64-1.76a.46.46 0 0 0 .07-.73q-2-1.93-2.75-.86l.24-3.3q.49-.36.92-1a.31.3 35.7 0 1 .44-.07l.31.25q.39.3 0 .6l-1.53 1.18q-.46.35.09.54 1.18.39 2.16 1.19.72.58 1.4-.04 1.93-1.77 5-1.39a.73.72 74.3 0 1 .46.26l2.18 2.83q.33.43.84.26zm-9.95-.18 3.31.31a.13.13 0 0 0 .14-.12v-.03a1.75 1.68 5.3 0 0-1.59-1.83l-.07-.01a1.75 1.68 5.3 0 0-1.9 1.51l-.01.03a.13.13 0 0 0 .12.14"/><path fill="#fefefe" d="M306.51 151.83a.13.13 0 0 1-.12-.14l.01-.03a1.75 1.68 5.3 0 1 1.9-1.51l.07.01a1.75 1.68 5.3 0 1 1.59 1.83v.03a.13.13 0 0 1-.14.12zM302.09 156.11l.01-4.8q.75-1.07 2.75.86a.46.46 0 0 1-.07.73q-1.47.93-1.64 1.76a.35.35 0 0 0 .6.3q2.08-2.4 5.3-1.31.13.04.13.18-.07 1.19-.77 2.05-.08.1-.19.03-.95-.59-2-.53-1 .06-.06.4.27.1.53.2 1.55.6-.08.91l-.57.11q-.47.08-.79-.26-1.04-1.09-3.15-.63M319.49 155.07q-.88.79-1.71-.11-.77-.85.07-1.68z"/><path fill="#fefefe" d="m322.72 158.88.48 1.16q-.01.84.79 1l.25.43-.79.86q-.39.42.11.7.75.43 1.68.52l.27.39q-.04.92-.81.7-4.52-1.28-5.94 2.71-.16.45-.63.44-1.12-.02-1.57.87-.8-.42-1.61-.53l.27-.77q.19-.53.73-.37l1.33.41a.22.22 0 0 0 .28-.15l.09-.27q.1-.34-.22-.48-.63-.27-1.03-.75-.43-.51.18-.79.44-.2.44-.67a.4.4 0 0 0-.72-.23q-.98 1.37-2.29.39-.62-.46-1.39-.47-2.41-.04-4.88-.37-.33-.05-.63.1-.35.16-.51.54-.09.19.07.32.17.14.26.35.31.72-.41.4l-.87-.39q-.53-.23-.17-.69.13-.17.32-.28.32-.18.33-.54.01-.16-.08-.28-.4-.6-.93-.12-.83.75-1.34 1.8a.22.22 0 0 1-.41-.03q-.39-1.22-2.22-.5l.92-7.32 1.36 1.58q.33.38.75.11.64-.41 1.53-.33a1.27 1.25-59.9 0 0 .84-.23q.67-.48 1.29.01a.77.77 0 0 0 .82.1q.36-.18.44-.56.14-.7.61-.16.41.49 1.06.35a.42.42 0 0 0 .19-.73q-.29-.25-.64-.36a.74.74 0 0 1-.52-.69q-.02-1.14.69-2.06.19-.25.51-.2l2.61.41a.16.16 0 0 1 .11.25l-1.99 2.84q-.21.28.05.52l.2.19q.24.23.44-.04l2.36-3.12q.65-.85 1.41-.09l1.63 1.64q.35.34-.1.55l-.38.17q-.61.27-1.1-.18l-1.03-.95q-.65-.59-.52.28.23 1.62 1.54 1.9 1.18.25 2.09-.67.28-.28.56 0 .7.72 1.73.35.58-.2.97.27.31.36.3.85-.01.53-.48.77-1.59.86-2.7-.33-.33-.35-.8-.25l-.79.17q-.53.11-1.05-.03-2.48-.68-5.17.14a1.42 1.42 0 0 0-.74.53l-.53.76q-.33.48-.73.05-.47-.51-.89-1.09-.29-.39-.76-.53-.56-.15-.85.36-.32.56-.91.29l-.39-.18q-1.28-.6-.42.52.72.94 1.69 1.62.41.29.75-.07.09-.1.09-.25a.05.04 9.7 0 1 .06-.04q1.26.42 2.3 1.33a.23.22 37.4 0 0 .34-.04q2.67-4.2 6.89-1.67.7.41.04.88-.27.19-.31.52-.1.69.52.37 1.32-.68 2.93-.79 1.23-.09 2.75-3.13"/><path d="M323.99 161.04q-.8-.16-.79-1 .65.3.79 1M325.24 163.55q-.93-.09-1.68-.52-.5-.28-.11-.7l.79-.86q.74.72 1 2.08M314.95 168.13q-.53-.03-1.01-.34l.56-1.06q.26-.5-.15-.88-1.91-1.76-4.17-1.16a.42.42 0 0 0-.2.69q.88.96 1.47 2.34-.78.28-1.39.08-.6-2.05-2.29-2.47-.48-.12-.14.23.84.87.8 2.11-.6.19-1.11 0-.96-1.11-2.29-1.33-.66-.12-.93.3-.27.4-.22 1.14l-1.81.14q.07-.82-.61-1.04-.15-.05-.25.07-.08.1-.04.27-.19-.81.05-1.39.62.01.09-.52l-.16-1.02q1.83-.72 2.22.5a.22.22 0 0 0 .41.03q.51-1.05 1.34-1.8.53-.48.93.12.09.12.08.28-.01.36-.33.54-.19.11-.32.28-.36.46.17.69l.87.39q.72.32.41-.4-.09-.21-.26-.35-.16-.13-.07-.32.16-.38.51-.54.3-.15.63-.1 2.47.33 4.88.37.77.01 1.39.47 1.31.98 2.29-.39a.4.4 0 0 1 .72.23q0 .47-.44.67-.61.28-.18.79.4.48 1.03.75.32.14.22.48l-.09.27a.22.22 0 0 1-.28.15l-1.33-.41q-.54-.16-.73.37z"/><path d="M326.91 170.77q-1.18-.38-1.75.78l-8.6-2.89q.45-.89 1.57-.87.47.01.63-.44 1.42-3.99 5.94-2.71.77.22.81-.7 1.72 3.3 1.4 6.83m-1.292-3.634a1.26.47 23.2 0 0-.973-.928 1.26.47 23.2 0 0-1.343-.064 1.26.47 23.2 0 0 .973.928 1.26.47 23.2 0 0 1.343.064"/><path fill="#fefefe" d="M313.94 167.79q-1.21.29-2.49-.07-.59-1.38-1.47-2.34a.42.42 0 0 1 .2-.69q2.26-.6 4.17 1.16.41.38.15.88zM301.22 165.83q-.01-.3.09-.52.53.53-.09.52M310.06 167.8l-1.63-.13q.04-1.24-.8-2.11-.34-.35.14-.23 1.69.42 2.29 2.47"/><ellipse fill="#fefefe" rx="1.26" ry=".47" transform="rotate(23.2 -243.673 873.643)"/><path fill="#fefefe" d="m307.32 167.67-3.44.11q-.05-.74.22-1.14.27-.42.93-.3 1.33.22 2.29 1.33M302.07 167.92q-.07.2-.15.4-.4.62-.84.37l.09-1.47q-.04-.17.04-.27.1-.12.25-.07.68.22.61 1.04"/><path d="M301.92 168.32q.14 1.28-.15 2.37-.4-.32-1.08-.4l.39-1.6q.44.25.84-.37"/><path fill="#fefefe" d="M301.77 170.69q.24 1.04-.04 1.92-.71.4-1.13.27-.39-1.46.09-2.59.68.08 1.08.4M326.91 170.77v.57q0 .56-.55.63-.64.07-1.2-.42.57-1.16 1.75-.78"/><path d="M301.73 172.61q.43.33.74.33.38.93.37 1.38-.01.61-.53.29-1.19-.71-2.21-.74-.04-.66.5-.99.42.13 1.13-.27"/><path fill="#fefefe" d="M305.08 174.59q-2.1 2.77-5.01.94l.03-1.66q1.02.03 2.21.74.52.32.53-.29.01-.45-.37-1.38 1.37.48 2.61 1.65"/><path d="M306.2 175.18q-.71 1.38-.65 2.38.1 1.65-1.33.81-2.24-1.3-3.47.41-.15.2-.39.26-.33.07-.73-.09.59-1.9.44-3.42 2.91 1.83 5.01-.94z"/><path fill="#fefefe" d="M306.2 175.18q.94.7 1.5 1.86-.77.51-.85 1.25-.07.54.43.32.57-.27.98-1.22l2.68 3.81-1.8-.37q-.47-.09-.71.31-.87 1.46-2.74 1.02a.64.63-61.5 0 1-.31-1.06l.97-1q.65-.66-.27-.51l-3.99.69q-.4.07-.76.26-.89.47-1.99.62l.29-2.21q.4.16.73.09.24-.06.39-.26 1.23-1.71 3.47-.41 1.43.84 1.33-.81-.06-1 .65-2.38"/><path d="m307.7 177.04.56.35q-.41.95-.98 1.22-.5.22-.43-.32.08-.74.85-1.25M310.94 181.2q1.33 1.8 1.65 3.64l-4.86 1.45q-.27.08-.44-.15l-.19-.27a.31.31 0 0 1 .12-.46q1.46-.69 3.09-1.08.19-.05.17-.25l-.02-.25q0-.01-.01-.01-2.09.24-4.11-.43-.86-.28-.65.6l.57 2.31a.46.46 0 0 1-.56.56q-1.55-.37-1.71-2.06-.05-.49-.53-.54l-1.48-.18a.72.72 0 0 1-.52-1.1q.23-.37.63-.61.24-.14.18-.41-.03-.16-.17-.27a.48.46-40.7 0 0-.51-.03q-1.11.63-2.29.05l.04-.55q1.1-.15 1.99-.62.36-.19.76-.26l3.99-.69q.92-.15.27.51l-.97 1a.64.63-61.5 0 0 .31 1.06q1.87.44 2.74-1.02.24-.4.71-.31zm-8.06.61q.52-.09.47-.71-.03-.5-.26-.06-.43.81-.21.77"/><path fill="#fefefe" d="M302.88 181.81q-.22.04.21-.77.23-.44.26.06.05.62-.47.71"/><path fill="#fefefe" d="M312.59 184.84q1.54 2.54 1.33 4.37-.76.07-1.29.56-.46.43.05.79l.26.18q.91.65-.2.5-1.39-.18-2.58-.86-1.6-.91-.67.68 1.42 2.42 5.3 1.58l-.26 5.37q-1.67.04-1.64-1.44.01-.23-.18-.36-.13-.09-.28-.11-.45-.05-.32.38.1.32-.02.6-.26.61-.81.25-.25-.16-.54-.18-.58-.04-.64.53l-.15 1.35q-1.62-1.12-3.56-1.61l2.19-.72q.78-.25.16-.79-.59-.52-.82-1.24-.28-.91-.68-.05-.14.29-.45.3-.54 0-.64-.53l-.07-.43q-.1-.56-.65-.7-3.18-.81-5.78.6-.46.25-.52.58-.12.56.42.36 1.41-.52 2.38 1.24l-2.3-.16q-.53-.04-.67.47l-1 3.66q-.48.15-.9-.02l1.13-9.86 3.56-1.74a1.03 1.02 41.9 0 1 .8-.04l2.1.75a.3.3 0 0 0 .37-.41q-.8-1.67-2.65-1.87-.55-.07-1.01.25-1.21.85-2.6.95l.07-1.02q1.24-.08 2.09-1.39a1.01 1.01 0 0 0-.56-1.51l-1.26-.38.2-2.01q1.18.58 2.29-.05a.48.46-40.7 0 1 .51.03q.14.11.17.27.06.27-.18.41-.4.24-.63.61a.72.72 0 0 0 .52 1.1l1.48.18q.48.05.53.54.16 1.69 1.71 2.06a.46.46 0 0 0 .56-.56l-.57-2.31q-.21-.88.65-.6 2.02.67 4.11.43.01 0 .01.01l.02.25q.02.2-.17.25-1.63.39-3.09 1.08a.31.31 0 0 0-.12.46l.19.27q.17.23.44.15zm-5.38 2.68q.06.25.26.41.61.46.34-.26-.12-.31-.47-.31a.13.13 0 0 0-.13.16m-2.35 4.43a.23.23 0 0 0 .39-.05q.24-.65.16-1.38-.07-.58-.64-.47l-1.89.35q-.99.19-.01.38 1.26.25 1.99 1.17m4.25.3q.14.09.31.05.43-.11.01-.26-.17-.06-.31.03t-.01.18m.16 3.01q-.36 1.08.72.7.74-.26 1.5-.09a.3.3 0 0 0 .32-.44q-.65-1.15-1.77-1.45-1.03-.28-.76.76.07.26-.01.52m4.97-.702a.96.49-2.5 0 0-.981-.447.96.49-2.5 0 0-.938.53.96.49-2.5 0 0 .98.448.96.49-2.5 0 0 .938-.53"/><path d="m298.83 187 .27-3.28 1.26.38a1.01 1.01 0 0 1 .56 1.51q-.85 1.31-2.09 1.39M298.19 190.13q.15-1.37.57-2.11 1.39-.1 2.6-.95.46-.32 1.01-.25 1.85.2 2.65 1.87a.3.3 0 0 1-.37.41l-2.1-.75a1.03 1.02 41.9 0 0-.8.04zM307.21 187.52a.13.13 0 0 1 .13-.16q.35 0 .47.31.27.72-.34.26-.2-.16-.26-.41M313.92 189.21l.87 3.43q-3.88.84-5.3-1.58-.93-1.59.67-.68 1.19.68 2.58.86 1.11.15.2-.5l-.26-.18q-.51-.36-.05-.79.53-.49 1.29-.56M304.86 191.95q-.73-.92-1.99-1.17-.98-.19.01-.38l1.89-.35q.57-.11.64.47.08.73-.16 1.38a.23.23 0 0 1-.39.05M309.11 192.25q-.13-.09.01-.18t.31-.03q.42.15-.01.26-.17.04-.31-.05M306.39 197.42q-.83-.05-1.48-.57.17-1.48-1.42-2.09-.46-.18-.56.31-.15.78-.65 1.08-.22-.11-.35-.11-.97-1.76-2.38-1.24-.54.2-.42-.36.06-.33.52-.58 2.6-1.41 5.78-.6.55.14.65.7l.07.43q.1.53.64.53.31-.01.45-.3.4-.86.68.05.23.72.82 1.24.62.54-.16.79z"/><path d="M309.27 195.26q.08-.26.01-.52-.27-1.04.76-.76 1.12.3 1.77 1.45a.3.3 0 0 1-.32.44q-.76-.17-1.5.09-1.08.38-.72-.7"/><ellipse rx=".96" ry=".49" transform="rotate(-2.5 4615.836 -7081.41)"/><path fill="#fefefe" d="m304.91 196.85-2.63-.7q.5-.3.65-1.08.1-.49.56-.31 1.59.61 1.42 2.09"/><path d="M314.53 198.01q.13 1.3-.67 2.33-.31.41-.77.19l-3.14-1.5.15-1.35q.06-.57.64-.53.29.02.54.18.55.36.81-.25.12-.28.02-.6-.13-.43.32-.38.15.02.28.11.19.13.18.36-.03 1.48 1.64 1.44M297.96 200.01l.04 1.97q-.43.45-1.16.04l.22-2.03q.42.17.9.02"/><path fill="#fefefe" d="M298 201.98q.66.28.96.96-.14 0-.26.05a.67.66 82 0 0-.39.52q-.27 2.04-2.25 1.12l.78-2.61q.73.41 1.16-.04"/><path d="m298.96 202.94.56.57-.2.19q-.29.29-.05.62 1.11 1.49 1.35 3.75.08.77-.4.16-1.12-1.43-1.41-3.03-.1-.52-.55-.25l-2.02 1.16q-.57.33-.38.96l.95 3.15q.18.57.77.69 2.33.45 3.25-1.49.2-.41.66-.38l1.33.1.45.87-1.27 1.3q-.41.42.12.68.73.37 1.67.05l.49 1.54q-1.81.14-3.59-.52a1.33 1.29 41.8 0 0-1.01.04q-.88.42-1.28 1.37-.21.48.3.36.39-.09.5-.42.23-.67.89-.42 1.35.53 2 1.93.1.21-.08.34l-.21.16a.05.05 0 0 1-.08-.02q-.91-2.07-2.69-.45a.94.94 0 0 0-.31.72q.02.62-.04 1.25-.09.83-.48.09-.2-.39-.22-.8-.07-1.15-.85-.3l-.26.28a1.37 1.37 0 0 0 .52 2.21q1.07.4 1.42 1.41.38 1.08-.67.65-1.46-.6-2.2-1.93a.7.69 56.5 0 0-1.03-.22q-.19.15-.21.76l-1-.29q.94-1.45-1.18-2.64.35.1.5-.25.35-.03.42-.39.07-.37-.19-.46-.33-1.6.82-3.16.46.15.63-.08a.42.42 0 0 0-.21-.65q-.16-.06-.4.08l1.97-7.6q1.98.92 2.25-1.12a.67.66 82 0 1 .39-.52q.12-.05.26-.05m.52 8.53a.25.25 0 0 0 .18.4l.9.03a.34.34 0 0 0 .19-.63q-.75-.46-1.27.2m-.65 1.35q.18.03-.05-.34a.08.08 0 0 0-.15.03q-.06.26.2.31m-3.89 4.38a.13.13 0 0 0 .21 0q.62-.94 1.66-1.39.67-.29.41-.97l-.32-.83q-.3-.78-.99-.32-2.32 1.53-.97 3.51"/><path fill="#fefefe" d="m299.52 203.51 3.3 5.63-1.33-.1q-.46-.03-.66.38-.92 1.94-3.25 1.49-.59-.12-.77-.69l-.95-3.15q-.19-.63.38-.96l2.02-1.16q.45-.27.55.25.29 1.6 1.41 3.03.48.61.4-.16-.24-2.26-1.35-3.75-.24-.33.05-.62zM303.79 212.04q-.94.32-1.67-.05-.53-.26-.12-.68l1.27-1.3q.78.44.52 2.03"/><path fill="#fefefe" d="M299.48 211.47q.52-.66 1.27-.2a.34.34 0 0 1-.19.63l-.9-.03a.25.25 0 0 1-.18-.4M294.07 212.88l.02-.65q.24-.14.4-.08a.42.42 0 0 1 .21.65q-.17.23-.63.08M298.83 212.82q-.26-.05-.2-.31a.08.08 0 0 1 .15-.03q.23.37.05.34M304.28 213.58q1.01 4.75.6 9.87-1.83-.45-3.47 1.25l-6.71-4.63q.02-.61.21-.76a.7.69 56.5 0 1 1.03.22q.74 1.33 2.2 1.93 1.05.43.67-.65-.35-1.01-1.42-1.41a1.37 1.37 0 0 1-.52-2.21l.26-.28q.78-.85.85.3.02.41.22.8.39.74.48-.09.06-.63.04-1.25a.94.94 0 0 1 .31-.72q1.78-1.62 2.69.45a.05.05 0 0 0 .08.02l.21-.16q.18-.13.08-.34-.65-1.4-2-1.93-.66-.25-.89.42-.11.33-.5.42-.51.12-.3-.36.4-.95 1.28-1.37a1.33 1.29 41.8 0 1 1.01-.04q1.78.66 3.59.52m-1.02 6.016a1.47.26 73 0 0-.181-1.482 1.47.26 73 0 0-.679-1.33 1.47.26 73 0 0 .181 1.482 1.47.26 73 0 0 .679 1.33m.05 1.654q-.33.25-.26.64a.44.44 0 0 0 .76.22q.32-.36.06-.77-.23-.35-.56-.09"/><path fill="#fefefe" d="M294.94 217.2q-1.35-1.98.97-3.51.69-.46.99.32l.32.83q.26.68-.41.97-1.04.45-1.66 1.39a.13.13 0 0 1-.21 0M293.02 216.89q-.04-.4.23-.85.26.09.19.46-.07.36-.42.39"/><ellipse rx="1.47" ry=".26" transform="rotate(73 3.982 313.72)"/><path fill="#fefefe" d="M292.52 217.14q2.12 1.19 1.18 2.64-.32.08-.47-.07-.93.89-1.71.99z"/><path d="M293.23 219.71q-1.51 3.53-.85 7.25-.16-.93-1.12-.77l.26-5.49q.78-.1 1.71-.99M303.31 221.25q.33-.26.56.09.26.41-.06.77a.44.44 0 0 1-.76-.22q-.07-.39.26-.64M304.88 223.45l-.06 3.27q.15-1.28-.84-1.59-.96-.31-1.7.68-.78-.46-.87-1.11 1.64-1.7 3.47-1.25"/><path fill="#fefefe" d="M304.82 226.72q-.05.16-.09.32-.84.11-1.67-.06l-.78-1.17q.74-.99 1.7-.68.99.31.84 1.59M292.38 226.96q.07 1.31.89 2.71-.77 1.06-2.17.33l.16-3.81q.96-.16 1.12.77"/><path d="M304.73 227.04q-1.06 1.65-1.67-.06.83.17 1.67.06M294.69 233.27q-.77-.13-.95 1.81-.06.56-.5.21-.99-.79-1.49-2.26-.21-.61-1.23-.55.57-1.16.58-2.48 1.4.73 2.17-.33 1.27 1.79 1.42 3.6"/><path fill="#fefefe" d="M294.69 233.27q1.44 5.77 1.03 11.23-1.65 2.1-1.48 3.96l-.37.04q-.49.04-.64-.43l-.57-1.82q0-.96 1.4-3.23a.77.77 0 0 0-.3-1.08q-1.51-.8-1.98-2.36-.27-.91.45-.28l1.81 1.6q.51.45.85-.14.15-.26.19-.53.06-.45-.17-.85-1.51-2.58-3.37-4.46a1.77 1.68 76.3 0 0-.62-.4l-.74-.26q-.18-.94.34-1.78 1.02-.06 1.23.55.5 1.47 1.49 2.26.44.35.5-.21.18-1.94.95-1.81"/><path d="m292.66 246.25-3.25-4.84a.13.12 34.5 0 0-.23.04l-.92 4.49q-.09.42.21.73 3.17 3.24 2.44 8.51a.66.65 30.9 0 1-1.18.29q-.83-1.13-1.82-2.1c-1.09-1.05-1.88-3.2-1.65-4.62q.45-2.85 2.52-8.75.36 1.14 1.48-1.32.3-.66-.38-.4l-.81.32 1.11-4.34.74.26a1.77 1.68 76.3 0 1 .62.4q1.86 1.88 3.37 4.46.23.4.17.85-.04.27-.19.53-.34.59-.85.14l-1.81-1.6q-.72-.63-.45.28.47 1.56 1.98 2.36a.77.77 0 0 1 .3 1.08q-1.4 2.27-1.4 3.23m-.053-2.86a1.18.54 54.4 0 0-.248-1.274 1.18.54 54.4 0 0-1.126-.646 1.18.54 54.4 0 0 .248 1.274 1.18.54 54.4 0 0 1.126.645"/><path fill="#fefefe" d="M288.78 240q.46-1.08.29-1.4l.81-.32q.68-.26.38.4-1.12 2.46-1.48 1.32"/><ellipse fill="#fefefe" rx="1.18" ry=".54" transform="rotate(54.4 -89.899 405.222)"/><path d="M294.24 248.46q-.17-1.86 1.48-3.96.06 2.44-1.48 3.96"/></svg>