<svg xmlns="http://www.w3.org/2000/svg" viewBox="0 0 382 382"><g fill="none" stroke="#807f80" stroke-width="2"><path d="M241.36 60.12q.95 3.31-2.9 3.67-.5.05-.89-.29-1.06-.91-1.15-2.74M251.68 60.26q.29.78.16 1.27-.12.43-.57.51-3.17.57-5.66 1.2-.66.17-.7.85l-.07 1.23q-.04.53.43.29l5.66-2.93q.37-.19.48.21l.11.34q.04.15-.09.22l-5.95 3.24a.54.54 0 0 0-.13.85q1.09 1.08 1.7 2.94M246.22 70.98l-1.46-3.17q-.25-.54-.78-.27-3.03 1.57-1.97 4.79.17.49.68.56.89.12 1.85-.12M244.76 72.83q.04 1.13-1.08 1.31M241.17 73.74q-.03-.75-.25-1.12-.32-.57-.68-.02-.37.54-.43 1.36M238.01 73.98q1.38-1.38 1.66-3.12.09-.61-.4-.24l-5.37 4.11M232.43 74.95q.21-.87 1.06-1.49 3.04-2.2 5.96-4.38.53-.39.18-.96L238 65.48q-.32-.51-.88-.32l-3.27 1.07q-.54.18-.77.71-.82 1.9-1.77 3.55-.71 1.2-.72-.2 0-.17.11-.33.24-.36-.02-.7-.16-.2-.35-.11-1.29.61-.74-.7.12-.26.46-.39.44-.15.83.09.26.17.55-.18.36-.45-.21-.39l-3.18.34q-.77.09-.36.74l1.51 2.44q.32.51-.27.62l-1.13.22q-.51.1-.48-.43.06-1.23-.49-2.34-.26-.51-.78-.3-1.79.72-3.14 2.06M219.37 70.9q2.48-1.57 5.01-2.76 1.8-.85 1.3-2.66M225.68 65.48q.55.27 1.04.3.44.03.97-.34 2.13-1.51 4.15-3.46" vector-effect="non-scaling-stroke"/><path d="M229.56 74.89q.64-.77.23-1.51-.26-.47-.79-.44-.7.03-1.19.55M225.68 65.48q-.36.16-.51-.21M250.17 76.26q-.11.45-.54 1.04M225.68 65.48q.27-.11.25-.36-.01-.11-.12-.21-.31-.29-.28.16M254.72 60.43q-1.52.01-2.1 2.07-.17.58.39.35l4.14-1.72M257.67 65.73q1.09-1.24 1.14-2.3.02-.59-.45-.24-1.35 1-2.02 2.88M218.14 61.15l-2.82 3.34q-.32.37-.18.84.32 1.05 1.18 1.99M216.95 68.84l.18 1.38q.04.35-.31.36l-.28.01a.44.44 0 0 1-.45-.43q-.02-.79-.39-1.56M215.33 68.06q-.34-1.09-.99-1.83-.36-.41-.73 0l-4.33 4.71M208.75 61.12q-.6.21.02.49a.38.37-48.7 0 0 .37-.03q.3-.21.09-.49M217.41 61.09l-2.55 2.29q-.53.48-.86-.16-.27-.52-.78-.92-.18-.14-.39-.17-.22-.03-.32.25a.23.21-49.7 0 0 .01.19l.77 1.58q.25.5-.13.91l-5.4 5.9M206.75 71.16l-1.48-2.87q-.31-.59.01-1.18.97-1.85 2.54-3.53 1.63-1.74-.55-.78-1.71.75-3.28 1.68-.33.19-.69.05-.16-.06-.3-.19-.54-.5-.89.14-.81 1.49-2.58 2.24-.3.13-.18.43l.1.24q.02.05.06.03l2.59-.99a1.09 1.09 0 0 1 1.44 1.28l-.79 3.14M187.11 74.4q1.91-2.3 4.5-3.78.54-.3.73-.76.19-.47.01-.99-.17-.5-.11-1.03l.17-1.4M197.01 63.75q1.83.94 3.88-1.37M221.94 63.94q.81-.81.99-1.59.13-.57-.41-.33-1.91.83-2.41 3.15M252.06 80.06l-1.57-3.91" vector-effect="non-scaling-stroke"/><path d="m205.62 71.18-.86-1.67q-.29-.56-.55.01l-.63 1.42M277.56 67.81q.13.62.51 1t.91.35q.82-.05 1.6.24a.35.35 0 0 1 .08.61l-.42.3a1.2 1.2 0 0 1-.92.19l-2.19-.43q-.8-.16-1.4.4l-3.08 2.92q-.45.43-.2.99.69 1.58 2.37 1.94 1.08.23.06.65-1.99.82-4.11 1.02-.62.06-.57.68.02.29.24.48.62.54-.15.84l-1.13.43q-.44.18-.9.02c-2.24-.76-4.47 3.02-5.55 4.62M261.51 84.94l3.02-3.91q.6-.77-.34-.53l-4.22 1.09q-.19.05-.35-.06l-.28-.2q-.41-.28-.89-.17l-4.23.95M252.46 80.46q.28-.27.73-.21M253.19 80.25q-.02.26.1.46.26.4.6.07 5.78-5.59 11.92-10.07.1-.08.07-.2-.04-.15-.14-.26-.15-.15-.34-.07-1.66.76-3.54.21" vector-effect="non-scaling-stroke"/><path d="M253.19 80.25q.32.22.52-.05 2.72-3.52 5.53-6.97.53-.65.48-1.25-.02-.29.21-.47.2-.15.31-.47M253.19 80.25q-.23-.68.13-1.16 2.05-2.77 5.58-6.83.17-.2.25-.45.07-.25.14-.53M277.19 67.82q-2.93 2.49-6.3.29M255.97 83.74l2.15-1.22q.98-.55-.14-.67-1.5-.16-2.38 1.5M282.05 68l.03 1.6a1.7 1.7 0 0 0 2.64 1.37q3.43-2.28 6.05.89M286.96 73.02q.05-.61-.52-.89a.59.59 0 0 0-.84.47q-.02.24.5.57M281.16 75.74q-7.13.3-2.63 1.58M276 79.06q-1.09-1.56-2.09-.69-.74.65-1.52 1.28-.34.27.08.38l1.85.47M276.66 85.28q-.21.24-.4.75M280.03 86.39q.06.36-.07.8" vector-effect="non-scaling-stroke"/><path d="M288.45 69.22q.37.14.75.05M289.2 69.27q-.17.23.07.35.65.3.98-.08M281.19 86.33q.79.88.57 1.96M282.5 90.26l.21-.26q.24-.29-.03-.55-.16-.15-.44-.22M287.9 86.11q.5 1.65-1.43 2.26-.27.08-.38.36-.22.57.37.45l.92-.19q.6-.12.47.48-.06.28-.36.42-.87.4-1.63.02-.52-.26-.56.32-.08 1.05.82 1.57a.56.56 0 0 0 .82-.32q.17-.55.75-.35.83.3.09.78l-4.99 3.24" vector-effect="non-scaling-stroke"/><path d="M282.92 91.28q.74-.83 1.16-1.99.17-.46-.11-.87l-1.42-2.08M295.24 86.56q-.11.63-.51.92a.93.93 0 0 1-.88.14l-1.09-.39q-.66-.23-.86.44l-.32 1.11a.53.52 89.8 0 0 .65.65l2.97-.85a1.03 1.02 86.8 0 0 .72-.81q.13-.76.51-.84M299.8 87.54q-1.3 2.74.52 4.32.48.42 1.12.38l1.61-.1q.74-.04.52-.75l-.1-.33q-.16-.53-.72-.56l-2.08-.12a.69.69 0 0 1-.64-.56l-.05-.32a.44.44 0 0 1 .36-.51q.89-.14 1.86-.77" vector-effect="non-scaling-stroke"/><path d="M309.73 92.02q-1.03 1.49-.2 2.47.55.64-.29.62-1.84-.05-3.38-.62-.48-.18-.74.25-.28.44-.61.88-.42.55-.52-.13l-.18-1.15a.67.67 0 0 0-.71-.57l-1.87.12q-.5.03-.34.5l.63 1.89q.29.9-.52.41-.71-.42-.96-1.27-.06-.17-.23-.24-.12-.05-.26.01-.32.13-.33.48l-.03 1.7q0 .26-.24.37-.15.07-.31.06-.5-.01-.39-.49.06-.31 0-.61-.11-.59-.55-.17c-.71.68-1 1.96-1.7 2.39q-.52.33-1-.04a.9.9 0 0 1-.17-1.27l3.07-3.96a.79.79 0 0 0-.61-1.28q-1.03-.02-1.9-.5a.54.53-50.6 0 1-.08-.87l.21-.18a.71.7-42.8 0 1 .96.03q.49.49 1.14.6.33.05.35-.28l.07-.97q.02-.39-.36-.48-2.09-.48-3.62.67-.32.24-.18.61.07.18.04.37-.12.71-.76.39-1.76-.88-2.33.69-.62 1.72.77 3.01.41.37-.1.59-3.13 1.37-1.74 4.73a.64.64 0 0 0 1.13.1q.88-1.38 2.13-2.2.62-.41.05-.87-.34-.28-.76-.24-.52.06-.42-.45l.09-.5q.07-.42.51-.41 1.27.02 1.41 1.54a2.28 2.27-21.1 0 1-.89 2.01l-7.12 5.37" vector-effect="non-scaling-stroke"/><path d="M285.89 105.13q.41-1.74 1.55-2.79.35-.32.81-.45.29-.07.51-.28a.58.57-35.9 0 0 .11-.68q-.86-1.65-.7-3.46a.69.68-86.9 0 0-.67-.75l-2.12-.04q-.24-.01-.29-.25l-.05-.25q-.06-.29.22-.37 1.02-.29 1.97-.09.83.18.87-.67l.04-1.04q.03-.68-.6-.41-1.97.82-3.7 2.73-.86.95-1.91.53M310.93 92.66q-2.02 1.85 1.83 1.51M313.12 94.41q.6 1.46-2.11 1.17-.83-.09-.3.56.5.62 1.36.66.23.01.44.07.35.1.39.35.07.41-.32.58-.68.28-1.2.78-1.16 1.09-1.3-.5-.08-.98-.66-1.8-.44-.62-.97-.07-1.41 1.46-2.12 3.31a.29.28 20 0 0 .18.37q.23.08.3.02M304.28 100.69q.66-1.6.35-3.42-.03-.2-.21-.28-.19-.09-.38.05-.29.22-.34.59-.1.82.07 1.58a.65.64 78.4 0 1-.51.78q-1.28.23-1.24.95M300 101.8l-.17-.84q-.1-.51.34-.78l2.3-1.44q.11-.07.04-.19l-.14-.21q-.26-.4-.62-.09-.95.83-2.15.64-.44-.06-.74.26-.61.67-1.42 1.01-.62.26 0 .54.25.11.45-.02.6-.43.5.31-.11.8.62 1.22M292.67 105.31l.47-2.42q.13-.67-.3-.13-.93 1.17-1.82 2.41-.18.26-.14.57.05.33.39.38M293.01 107.91l-1.56.28M289.8 107.5q.55-.18.67-.75.09-.44-.17-.81-.38-.53-.12-1.16a.31.31 0 0 0-.19-.42l-.26-.08q-.29-.09-.35.22-.28 1.61.42 3M293.5 108.08q.51.61.29.71" vector-effect="non-scaling-stroke"/><path d="M318.22 100.05q-1.81-.98-3.1-2.35-.39-.42-.36-1 .01-.43-.26-.76-.57-.7-.54.2.07 2.66-2.46 3.77M308.58 99.92l.04-1.13q.02-.67-.52-.27-.75.58-1.29 1.39M296.94 108.13q-.38.86-.99 1.52M297.77 108.52q-.15.95-.51 1.34M299.74 108.99q.15.89.87 2.17M309.49 113.59q-.57.79-.43 1.3.13.44.51.18.46-.31.79-1.12M323.83 125.87l-4.72 3.15M319.11 129.02q-1.19-1.8-.95-3.55.09-.69.78-.63l3.22.28q.28.02.34-.26l.06-.29q.06-.27-.21-.33-4.73-1-8.89.24-.47.13-.89-.03-.79-.32-.61-1.19.1-.49-.39-.45-.99.07-.94-.99-1.14-2.23-2.48-4.13-.27-.38-.7-.56l-3.83-1.62q-1.3-.55-.19.32.99.78 2.22 1.15c1.77.53 2.6 2.12 3.35 3.65q.34.68-.31 1.09-1.29.8-1.53 2.36-.15.95.64.39.84-.59 1.38-1.48.25-.41.72-.31.38.08.01.81a.83.81-88.6 0 1-.39.38q-1.71.76-1.24 2.22.15.44-.27.66-1.61.85-1.95-.45" vector-effect="non-scaling-stroke"/><path d="M306.06 126.3q1.1-1.27.37-1.14-.17.57-.37 1.14M306.06 126.3l-1.35 1.25a.75.75 0 0 1-1.19-.24q-.83-1.85-2.28-2.82M301.2 115.44q.82-.75-.09-1.43M319.11 129.02q-1.03-.24-1.23-1.5-.22-1.34-.4-2.08-.15-.63-.79-.53l-3.17.49q-.7.1-.47.77l.73 2.12q.08.21-.02.42-.07.13-.21.16-.44.1-.62-.32l-.9-2.15a.59.58-24.8 0 0-.81-.29q-2.27 1.17-4.25 2.47-.42.28-.58.74a.53.53 0 0 0 .54.7q.14-.01.28-.01.91-.03.42.73-.57.9.29 1.96M303.77 134.22q-1.23-.15-2.29.47-.19.11-.1.31.05.1.19.18M301.23 137.7q-1.33.03-1.01.71M299.4 136.13l1.83-3.21q.26-.44.03-.91-.28-.55.06-1.08.14-.22.15-.49.01-.31-.21-.47-.48-.35.08-.54.44-.14.86.05.23.1.48.02.13-.04.23-.11.45-.28.24-.76-.71-1.68-1.91-2.75M319.11 129.02q-.08.3.07.55.33.56.87.19t.78-1a.97.96 3.5 0 1 .68-.6q1.48-.35 2.66-1.21M318.97 130.85q-.33-.51-.83-.77-.43-.24-.73.17l-.46.64" vector-effect="non-scaling-stroke"/><path d="M313.87 131.62q.51-2.54-2.42.31M310.69 131.9q-.69-.29-.69-.01M303.56 141.99q-.02.49.21.7M303.77 142.69q.08.38.03.72-.07.39-.39.52t-.73.02M303.7 144.89l-.53-.09a.56.55-22.8 0 0-.41 1q2.79 1.94 5.7 3.49 1.04.56.49-.49-.69-1.31-2.27-3.03M312.97 149.21c.57.94 1.36 2.07 2.34 2.6q.73.39.96 1.23.14.51.62.75.61.31 1.3.37.69.07.17.53-.38.33-.89.48a.74.73 58.7 0 1-.72-.18l-.28-.27q-.47-.46-.62.18-.07.32.12.53.27.31.64.14.29-.13.53.05c.49.38.69.97.91 1.53q.23.56.83.6 1.21.08 1.94 1.07.31.42.82.4l1.06-.04M323.08 159.76q-.38.92-.99 1.29-.55.32-.3.9l.19.47a.45.44-35.4 0 0 .74.12l1.38-1.52M325.41 163.21q-2.45 1.17 1.1 4.76M326.8 171.97l-3.25-2.14q-.42-.27-.9-.17-1.3.28-1.55-.85-.11-.5-.54-.77l-3.78-2.29q-.13-.08-.19-.22-.06-.12-.15-.22-.21-.25-.54-.36c-5.59-1.89-9.28-2.88-13.77-8.1" vector-effect="non-scaling-stroke"/><path d="M302.09 155.66c2.29 1.36 3.18 3.21 5.16 4.59a.52.52 0 0 0 .68-.07l.22-.23a.76.76 0 0 0-.02-1.06l-6.02-5.93M302.07 151.94q1.03.89 2.35.53 1.06-.3.2.39l-.21.17q-.4.33-.03.69l4.58 4.42a.52.52 0 0 0 .76-.03l3.02-3.44q.42-.48-.1-.84l-10.16-6.9M303.91 173.83q-2.11-.03-3.72.6M301.13 167.47q.14-.77-.07-1.47M302.1 160.28q.7.07 1.03-.34.39-.48-.15-.77-.37-.2-.93-.15M304.23 174.16q-1.78.92-3.97 1.24M306.25 175.35l-3.39 2.65q-.41.32-.88.12-.96-.38-1.77-1.38M306.76 175.76q-.88 1.34-2.76 2.53a.95.94-42.6 0 0-.07 1.55q2.46 1.86 4.95 2.78 2.17.8.85-1.1-1.52-2.21-2.59-5.46M310.9 199.28q.74-1.16-1.42-3.17-.64-.6-1.36-.09l-1.86 1.32M303.75 196.94q.28-.66.09-1.19-.26-.69-.71-.1-.1.13-.25.14-.51.02-.71-.44-1.26-2.83-1.72-3.51-.92-1.37-2.17-.6M298.99 186.14l1.65 1.43q.4.34.27.85-.36 1.41 1.21 2.23.95.49.5-.49l-3.08-6.59q-.28-.61.39-.56.17.01.3.1.58.41.7 1.13.23 1.38 1.49 1.01.41-.12.4.31-.01.18-.15.28-.46.36-.26.91l1.57 4.28q.25.69.96.88 1.36.38 2.55.2a.64.64 0 0 0 .44-.97q-.39-.63-.18-1.33c.44-1.43-.73-2.91-1.96-3.47q-1.37-.63-.69.71.71 1.41 1.56 2.61.04.06.02.12-.07.2-.26.32a.37.37 0 0 1-.44-.03q-2.5-2.18-1.48-4.43.29-.63.97-.72.55-.07.94-.44.85-.78 1.22.31.47 1.37 1.54 2.52.59.65-.27.77-.51.06-.59.89-.04.34-.01.68.09 1.07.25 2.07.21 1.28.95.22l.76-1.08q.27-.38.6-.05.13.14.16.32.13.72-.58.93-.24.07-.39.27-.37.53.26.65l2.42.46a.62.62 0 0 0 .73-.66q-.06-.71-.59-1.21-.38-.36-.44-.9l-.41-3.62q-.06-.47-.49-.67-.23-.1-.41.02-.87.54-.57-.44.24-.78-.51-1.14-3.77-1.79-7.87-3.43a1.33 1.29 46 0 0-.9-.03q-1.67.57-2.17 2.08M299.86 178.28q.06.44.32.5a.24.24 0 0 0 .29-.28q-.05-.29-.38-.4M297.91 201.03q-.41.41-.97-.03M298.2 202.23q-.86.02-1.29.63a.51.51 0 0 0 .33.8l2.71.48M300.28 204.49q-.11.83.33 1.53.4.65-.36.64-.16 0-.29-.09-.44-.29-.89-.04-1.2.64-1.74 1.98-.26.63.42.68.51.04.98.29.81.44-.1.6-1.94.35-3.95-.21" vector-effect="non-scaling-stroke"/><path d="M295.03 208.93q1.07-.89 2.48-1.65.69-.37.8-1.28.06-.48-.39-.68-1.14-.51-1.46-1.85M303.03 209.42q-1.28.03-2.37-.14-.17-.02-.34.04-.19.07-.22.27-.07.41.33.31.51-.12.96.07.41.17.47.61.31 1.99-.95 2.7-.43.24-.83-.04l-1.95-1.36q-1.19-.83-.48.43.59 1.04 1.66 1.6 1.03.53.21 1.34l-.24.24q-.91.9-1.96.18-1.24-.86-2.44-1.74-.14-.1-.24.04-.07.1.03.17 1.69 1.23 3.13 2.77.51.55-.02 1.09l-1.78 1.82a.6.6 0 0 1-.98-.19q-.62-1.48-2.16-2.95" vector-effect="non-scaling-stroke"/><path d="M303.66 211.64q-.37-.43-1.32.38-.41.34-.41.87-.01.72-.32 1.32-.25.49.07.93.68.93.82 1.98M302.5 217.12q-.71-.65-1.38-.69-.96-.06-.34.68.43.5 1.13.78.46.18.64-.28.08-.21-.05-.49" vector-effect="non-scaling-stroke"/><path d="M302.5 217.12q.52-.02.65.63a1.01 1-82.9 0 1-1.42 1.11l-.78-.37q-.54-.26-1.03.08-.44.3-.95.12-.54-.19-.82.32l-.43.78" vector-effect="non-scaling-stroke"/><path d="M297.72 219.79q-.82.22-.58.83.61 0 .58-.83M297.72 219.79q1 .15 1.51 1.2.22.46.72.56l4.98 1.03M304.87 223.72l-5.62-1.06M293.85 219.67q-.89-.87-1.23-2.44M292.39 223.77l-.02 1.19M293.97 231q-.99 1.02-2.91-.18M291.37 226.96q.12-.46-.03-.92M291.33 224.72l.13-1.18M304.77 218.02q-.43.75.1 1.73M304.7 225.52q-.96 1.22-1.84 1.01M294.02 232.02q-.69.64.06 1.42.24.26.61.26M294.94 235.29q-.78-.32-1.32-.1-.53.22-.2.69.77 1.11 2.05 1.39" vector-effect="non-scaling-stroke"/><path d="M295.26 238.06q-2.05-.71-3.07-1.96-.44-.53-.51.15-.04.34.25.49.18.1.18.31 0 .17-.09.31-.27.46-.7.15l-.93-.67a.61.6-47.3 0 1-.03-.96q.68-.58.39-1.47-.23-.69.49-.57.56.09 1.06.58.69.67.55-.29-.21-1.48-2.03-2.43M295.61 239.24l.01.97M295.57 242.89l-2.97-2.18q-.23-.17-.2-.47.02-.19.14-.3.65-.53-.23-.79-1.55-.45-3.02-.97M295.49 243.96q-2.12-1.05-3.68-2.88a.28.27-48.9 0 0-.45.04l-.16.25a.95.94-45.8 0 0 .01.99q1.3 2.01 2.46 4.26c.24.46.68.74 1.18.82M289.65 241.72q.79-.91-.79-2.12M288.98 241.94l-.84.17M288.77 243.18l-.84-.55M289.9 248.52l-3.66.06M287.07 246.25l.06-.95M290.1 249.97q-.61 1.37.56 2.04M290.9 252.77q-.4.69-.91.94a.73.73 0 0 1-1.05-.54q-.37-2.32-2.59-3.34M246.67 61.65l2.06-.01q1.02-.01.13-.5-1.22-.68-2.33.02-.8.5.14.49M245.11 61.385a1.24.63-14.7 0 0-1.36-.294 1.24.63-14.7 0 0-1.04.924 1.24.63-14.7 0 0 1.36.294 1.24.63-14.7 0 0 1.04-.924M233.37 63.92q1.39.82 2.8.58.73-.12.85-.87.05-.29-.22-.42-.78-.36-.67-1.23.02-.23-.08-.43-.13-.23-.58-.04a.51.5 87.5 0 0-.28.31q-.37 1.31-1.56.94-.6-.19-1.11.2l-4.24 3.26q-.85.65.22.55 2.97-.3 4.15-2.64a.52.52 0 0 1 .72-.21M240.69 66.52q-.13-.06-.11-.2l.2-1.6q.09-.69-.58-.48-.51.16-.94.46-.69.49-.06 1.06l1.77 1.61q.56.51 1.06-.06.41-.46 1.05-.52a.64.63 80.7 0 0 .56-.79l-.36-1.41q-.4-1.56-1.24-.19-.56.89-.42 2.05.06.54-.44.31l-.49-.24M196.85 65.54q.03.51.56.35.48-.15.19-.57-.17-.24-.47-.16a.38.38 0 0 0-.28.38M194.13 66.84q-.08.56.4.49.14-.02.18-.16.11-.34-.22-.51-.31-.17-.36.18M198.11 67.014a1.55.41-21.8 0 0-1.592.195 1.55.41-21.8 0 0-1.287.957 1.55.41-21.8 0 0 1.591-.195 1.55.41-21.8 0 0 1.287-.957M205.12 65.38c.01-.08.07-.2.12-.26q.35-.41-.13-.17-.41.21-.83.43-.36.19-.11.52.11.14.27.23.5.28.6-.29.04-.22.08-.46M269.75 70.62q.05-.01.08-.06.4-.84-.5-.5c-4.33 1.66-9.1 6.13-12.56 9.44q-1.52 1.46.48.82.65-.21 1.17.21.49.4 1.04.09c2.39-1.31 5.39-1.35 7.61-2.88q3.52-2.44 2.33-6.41-.16-.52.35-.71M270.93 72.67a.38.38 0 0 0 .64.32l2.49-2.29a.38.38 0 0 0-.28-.66l-2.21.09a.38.38 0 0 0-.36.34l-.28 2.2M272.33 76.88a.26.25-14.1 0 0 .21-.34q-.27-.76-.76-1.36-.4-.48-.76.04l-.72 1.08q-.58.86.45.75l1.58-.17M267.92 79.32q-.07.07-.07.17.01.16.12.04.05-.06.08-.13.13-.36-.13-.08M276.5 72.09q.09 0 .13-.08.19-.34-.12-.1-.06.05-.07.13-.01.06.06.05M276.05 72.9q.15-.35-.02-.26-.14.07-.16.21l-.08.39a.09.09 0 0 0 .15.08q.27-.29.11-.42M268.787 84.35a1.33.49 100.1 0 0 .715-1.224 1.33.49 100.1 0 0-.249-1.395 1.33.49 100.1 0 0-.715 1.223 1.33.49 100.1 0 0 .249 1.395M288.99 88.81a.62.61.9 0 0 .8.82q.97-.42 1.06-2.08a.4.4 0 0 0-.66-.32q-.78.69-1.2 1.58M289.54 92.92q.09-.17.11-.37.14-1.01-.45-.19-.19.26 0 .58.19.3.34-.02M307.787 93.848a1.63.61 28.9 0 0-1.132-1.322 1.63.61 28.9 0 0-1.722-.254 1.63.61 28.9 0 0 1.132 1.322 1.63.61 28.9 0 0 1.722.254M289.33 93.83l-.25 1.67q-.06.43.38.39l.54-.06q.65-.06.34-.64l-.76-1.41q-.19-.34-.25.05M303.23 112.75l1.24 1.13q.34.31.41-.14.09-.66-1.65-.99M303.23 112.75q-.12-.55-.47-.86-.55-.48-.58.22-.01.35.37.61.32.22.68.03M312.92 121.11q-.39.3-.49.77-.22.97.59.4 1.08-.76 2.26-1.14.95-.3.08-.8-1.11-.63-2.27-.98-1.74-.51-.12-1.35.91-.46.84-1.41-.01-.08-.07-.13-.13-.12-.26-.08-.25.07-.34.32-.6 1.84-2.4 1.61-.59-.07-.44.5.24.86.96 1.33a1.26 1.22 53.9 0 0 .98.17q.24-.05.47-.01 1 .17.21.8M319.638 122.866a1.56.28 33.7 0 0-1.143-1.099 1.56.28 33.7 0 0-1.453-.633 1.56.28 33.7 0 0 1.143 1.099 1.56.28 33.7 0 0 1.453.633M304.13 124.37c-.2.19-.45.3-.64.49q-.45.47.17.3l2.15-.58a.45.45 0 0 0-.09-.89q-.81-.06-1.59.68M309.22 125.47q-.55.81.36.45.93-.37 1.6-1.2.55-.7-.3-.46-1.03.29-1.66 1.21M303.41 132.17a.39.39 0 0 0 .15.59q.91.41 1.97.32a.53.53 0 0 0 .48-.63q-.2-.99-.95-1.39-.58-.32-.98.22l-.67.89M309.06 130.59q.12.67.73.87.55.19.35-.36-.19-.49-.58-.8a.31.31 0 0 0-.5.29M313.153 152.072a1.51.38 44.7 0 0-.806-1.332 1.51.38 44.7 0 0-1.34-.792 1.51.38 44.7 0 0 .806 1.332 1.51.38 44.7 0 0 1.34.792M313.72 152.47q-.16.09-.01.22.19.15.44.11.28-.05.25-.33-.04-.38-.68 0M310.54 158.65a.65.65 0 0 0 .07.94l1.74 1.42a.65.65 0 0 0 1.04-.34l1.2-4.75a.65.65 0 0 0-1.12-.59l-2.93 3.32M318.57 163.55a1.93 1.93 0 0 0 .89-3.16l-3.7-4.03a.2.19-59.8 0 0-.33.09l-1.42 5.4q-.1.37.19.63 2.02 1.74 4.37 1.07M311.27 162.39q.45.28.97.32.92.06.18-.49l-2.62-1.97q-.36-.27-.76-.07-.24.11-.32.34a.71.7-62.3 0 0 .25.82c.73.49 1.58.6 2.3 1.05M320.32 162.76q-.18.15-.34.33-.49.53.22.59l.8.06q1.09.09.3-.68-.2-.19-.28-.48-.18-.68-.58-.09-.08.13-.12.27M323.25 165.99l.16.4q.12.31.41.13.16-.09.06-.24-.94-1.55-1.37-1.6-1.96-.18-4.09.23-.67.13-.12.52 1.79 1.28 3.62 2.15.79.37.35-.38-.39-.65.02-1.3.56-.91.96.09M324.77 167.45a.44.44 0 0 0-.73-.1l-.44.49q-.57.63.18 1.04l1.67.88q.16.09.31 0 .19-.1.18-.45a.46.43 24.9 0 0-.12-.3q-.64-.71-1.05-1.56M306.15 162.35a.22.22 0 0 0 .18.35q.36-.02.58-.32.42-.6-.28-.37-.29.1-.48.34M304.625 164.147a1.51.38-37.7 0 0-1.427.622 1.51.38-37.7 0 0-.963 1.224 1.51.38-37.7 0 0 1.427-.622 1.51.38-37.7 0 0 .963-1.224M306.59 185.73q.16-.15.05-.39-.12-.29-.37-.1-.16.13-.14.32a.27.27 0 0 0 .46.17M303.482 194.116a1.15.47 53.6 0 0-.304-1.205 1.15.47 53.6 0 0-1.06-.647 1.15.47 53.6 0 0 .304 1.205 1.15.47 53.6 0 0 1.06.647M306.89 193.94q.27-.01.48-.17.2-.16-.02-.28-.05-.03-.1-.03-.33-.06-.61.11-.7.41-1.44.37-.5-.02-.43.47l.19 1.31q.13.91.76.25.51-.54.48-1.31a.7.7 0 0 1 .69-.72M312.66 195.57q-.4-.07-.6-.42-.59-.99-1.71-.99-.88 0-.17.53l2.72 2.05q.82.61 1.22-.33.28-.64.09-1.35-.14-.5-.63-.33-.25.08-.27.34-.05.61-.65.5M303.62 183.1c-.37-.08-1.04-.14-1.44-.17q-.51-.03-.37.46.21.73 1.04.73.79.01.97-.71a.26.25 13.2 0 0-.2-.31M288.32 249.74q.25-.06-.04-.31a.12.11 21.5 0 0-.19.08q-.01.29.23.23" vector-effect="non-scaling-stroke"/></g><path d="M241.36 60.12q.95 3.31-2.9 3.67-.5.05-.89-.29-1.06-.91-1.15-2.74z"/><path fill="#fffeff" d="M251.68 60.26q.29.78.16 1.27-.12.43-.57.51-3.17.57-5.66 1.2-.66.17-.7.85l-.07 1.23q-.04.53.43.29l5.66-2.93q.37-.19.48.21l.11.34q.04.15-.09.22l-5.95 3.24a.54.54 0 0 0-.13.85q1.09 1.08 1.7 2.94-.33.41-.83.5l-1.46-3.17q-.25-.54-.78-.27-3.03 1.57-1.97 4.79.17.49.68.56.89.12 1.85-.12.25.56.22.06.04 1.13-1.08 1.31l-2.51-.4q-.03-.75-.25-1.12-.32-.57-.68-.02-.37.54-.43 1.36-.87.4-1.8.02 1.38-1.38 1.66-3.12.09-.61-.4-.24l-5.37 4.11-1.47.22q.21-.87 1.06-1.49 3.04-2.2 5.96-4.38.53-.39.18-.96L238 65.48q-.32-.51-.88-.32l-3.27 1.07q-.54.18-.77.71-.82 1.9-1.77 3.55-.71 1.2-.72-.2 0-.17.11-.33.24-.36-.02-.7-.16-.2-.35-.11-1.29.61-.74-.7.12-.26.46-.39.44-.15.83.09.26.17.55-.18.36-.45-.21-.39l-3.18.34q-.77.09-.36.74l1.51 2.44q.32.51-.27.62l-1.13.22q-.51.1-.48-.43.06-1.23-.49-2.34-.26-.51-.78-.3-1.79.72-3.14 2.06l-3.53-.03q2.48-1.57 5.01-2.76 1.8-.85 1.3-2.66.55.27 1.04.3.44.03.97-.34 2.13-1.51 4.15-3.46 1.96-.93 4.58-1.22.09 1.83 1.15 2.74.39.34.89.29 3.85-.36 2.9-3.67zm-5.01 1.39 2.06-.01q1.02-.01.13-.5-1.22-.68-2.33.02-.8.5.14.49m-1.56-.265a1.24.63-14.7 0 0-1.36-.294 1.24.63-14.7 0 0-1.04.924 1.24.63-14.7 0 0 1.36.294 1.24.63-14.7 0 0 1.04-.924m-11.74 2.535q1.39.82 2.8.58.73-.12.85-.87.05-.29-.22-.42-.78-.36-.67-1.23.02-.23-.08-.43-.13-.23-.58-.04a.51.5 87.5 0 0-.28.31q-.37 1.31-1.56.94-.6-.19-1.11.2l-4.24 3.26q-.85.65.22.55 2.97-.3 4.15-2.64a.52.52 0 0 1 .72-.21m7.32 2.6q-.13-.06-.11-.2l.2-1.6q.09-.69-.58-.48-.51.16-.94.46-.69.49-.06 1.06l1.77 1.61q.56.51 1.06-.06.41-.46 1.05-.52a.64.63 80.7 0 0 .56-.79l-.36-1.41q-.4-1.56-1.24-.19-.56.89-.42 2.05.06.54-.44.31z"/><path d="M254.72 60.43q-1.52.01-2.1 2.07-.17.58.39.35l4.14-1.72 5.35 1.96q.46.17.61.64.08.26-.03.51-.2.49-.72.59l-4.69.9q1.09-1.24 1.14-2.3.02-.59-.45-.24-1.35 1-2.02 2.88l-9.29 4.41q-.61-1.86-1.7-2.94a.54.54 0 0 1 .13-.85l5.95-3.24q.13-.07.09-.22l-.11-.34q-.11-.4-.48-.21l-5.66 2.93q-.47.24-.43-.29l.07-1.23q.04-.68.7-.85 2.49-.63 5.66-1.2.45-.08.57-.51.13-.49-.16-1.27 1.59-.24 3.04.17"/><path fill="#fffeff" d="m254.72 60.43 2.43.7-4.14 1.72q-.56.23-.39-.35.58-2.06 2.1-2.07"/><path d="M246.67 61.65q-.94.01-.14-.49 1.11-.7 2.33-.02.89.49-.13.5zM208.75 61.12q-.6.21.02.49a.38.37-48.7 0 0 .37-.03q.3-.21.09-.49h8.18l-2.55 2.29q-.53.48-.86-.16-.27-.52-.78-.92-.18-.14-.39-.17-.22-.03-.32.25a.23.21-49.7 0 0 .01.19l.77 1.58q.25.5-.13.91l-5.4 5.9q-.36.26-1.01.2l-1.48-2.87q-.31-.59.01-1.18.97-1.85 2.54-3.53 1.63-1.74-.55-.78-1.71.75-3.28 1.68-.33.19-.69.05-.16-.06-.3-.19-.54-.5-.89.14-.81 1.49-2.58 2.24-.3.13-.18.43l.1.24q.02.05.06.03l2.59-.99a1.09 1.09 0 0 1 1.44 1.28l-.79 3.14q-3.47-.52-6.11.55-5.49 2.24-9.53 3 1.91-2.3 4.5-3.78.54-.3.73-.76.19-.47.01-.99-.17-.5-.11-1.03l.17-1.4q1.87-2.02 4.6-2.69 1.83.94 3.88-1.37zm-11.9 4.42q.03.51.56.35.48-.15.19-.57-.17-.24-.47-.16a.38.38 0 0 0-.28.38m-2.72 1.3q-.08.56.4.49.14-.02.18-.16.11-.34-.22-.51-.31-.17-.36.18m3.98.174a1.55.41-21.8 0 0-1.592.195 1.55.41-21.8 0 0-1.287.957 1.55.41-21.8 0 0 1.591-.195 1.55.41-21.8 0 0 1.287-.957"/><path fill="#fffeff" d="M209.23 61.09q.21.28-.09.49a.38.37-48.7 0 1-.37.03q-.62-.28-.02-.49.24-.08.48-.03M218.14 61.15l-2.82 3.34q-.32.37-.18.84.32 1.05 1.18 1.99-.15 1.14.63 1.52l.18 1.38q.04.35-.31.36l-.28.01a.44.44 0 0 1-.45-.43q-.02-.79-.39-1.56.08-.32-.37-.54-.34-1.09-.99-1.83-.36-.41-.73 0l-4.33 4.71-1.52.02 5.4-5.9q.38-.41.13-.91l-.77-1.58a.23.21-49.7 0 1-.01-.19q.1-.28.32-.25.21.03.39.17.51.4.78.92.33.64.86.16l2.55-2.29z"/><path d="M221.94 63.94q.81-.81.99-1.59.13-.57-.41-.33-1.91.83-2.41 3.15l-3.79 2.15q-.86-.94-1.18-1.99-.14-.47.18-.84l2.82-3.34q3.17.16 5.96.28 2.89.12.54 1.81-.65.47-2.7.7"/><ellipse rx="1.24" ry=".63" transform="rotate(-14.7 361.12 -914.61)"/><path d="M233.37 63.92a.52.52 0 0 0-.72.21q-1.18 2.34-4.15 2.64-1.07.1-.22-.55l4.24-3.26q.51-.39 1.11-.2 1.19.37 1.56-.94a.51.5 87.5 0 1 .28-.31q.45-.19.58.04.1.2.08.43-.11.87.67 1.23.27.13.22.42-.12.75-.85.87-1.41.24-2.8-.58"/><path fill="#fffeff" d="M221.94 63.94q-.7.91-1.83 1.23.5-2.32 2.41-3.15.54-.24.41.33-.18.78-.99 1.59"/><path d="M231.84 61.98q-2.02 1.95-4.15 3.46-.53.37-.97.34-.49-.03-1.04-.3.27-.11.25-.36-.01-.11-.12-.21-.31-.29-.28.16z"/><path fill="#fffeff" d="m206.75 71.16-1.13.02-.86-1.67q-.29-.56-.55.01l-.63 1.42-.83-.09.79-3.14a1.09 1.09 0 0 0-1.44-1.28l-2.59.99q-.04.02-.06-.03l-.1-.24q-.12-.3.18-.43 1.77-.75 2.58-2.24.35-.64.89-.14.14.13.3.19.36.14.69-.05 1.57-.93 3.28-1.68 2.18-.96.55.78-1.57 1.68-2.54 3.53-.32.59-.01 1.18zm-1.63-5.78c.01-.08.07-.2.12-.26q.35-.41-.13-.17-.41.21-.83.43-.36.19-.11.52.11.14.27.23.5.28.6-.29.04-.22.08-.46M200.89 62.38q-2.05 2.31-3.88 1.37zM257.67 65.73l-1.33.34q.67-1.88 2.02-2.88.47-.35.45.24-.05 1.06-1.14 2.3"/><path d="M241.62 66.45q-.14-1.16.42-2.05.84-1.37 1.24.19l.36 1.41a.64.63 80.7 0 1-.56.79q-.64.06-1.05.52-.5.57-1.06.06l-1.77-1.61q-.63-.57.06-1.06.43-.3.94-.46.67-.21.58.48l-.2 1.6q-.02.14.11.2l.49.24q.5.23.44-.31M205.12 65.38q-.04.24-.08.46-.1.57-.6.29-.16-.09-.27-.23-.25-.33.11-.52.42-.22.83-.43.48-.24.13.17a.6.6 0 0 0-.12.26"/><path fill="#fffeff" d="M225.53 65.07q-.03-.45.28-.16.11.1.12.21.02.25-.25.36-.36.16-.51-.21.43-.6.36-.2"/><path d="m232.43 74.95-2.87-.06q.64-.77.23-1.51-.26-.47-.79-.44-.7.03-1.19.55l-4.91-2.56q1.35-1.34 3.14-2.06.52-.21.78.3.55 1.11.49 2.34-.03.53.48.43l1.13-.22q.59-.11.27-.62l-1.51-2.44q-.41-.65.36-.74l3.18-.34q.57-.06.21.39-.29.35-.55.18-.39-.24-.83-.09-.34.13-.46.39-.55 1.31.74.7.19-.09.35.11.26.34.02.7-.11.16-.11.33.01 1.4.72.2.95-1.65 1.77-3.55.23-.53.77-.71l3.27-1.07q.56-.19.88.32l1.63 2.64q.35.57-.18.96-2.92 2.18-5.96 4.38-.85.62-1.06 1.49"/><path fill="#fffeff" d="M196.85 65.54a.38.38 0 0 1 .28-.38q.3-.08.47.16.29.42-.19.57-.53.16-.56-.35"/><path d="M225.17 65.27q.15.37.51.21.5 1.81-1.3 2.66-2.53 1.19-5.01 2.76-2.04-.54-4.34 0-.49.12-.9-.19l-.47-.36q-.42-.32-.93-.2l-3.45.79 4.33-4.71q.37-.41.73 0 .65.74.99 1.83-.02.73.37.54.37.77.39 1.56a.44.44 0 0 0 .45.43l.28-.01q.35-.01.31-.36l-.18-1.38q1.87.43 3.39.15.48-.09.86-.41z"/><path fill="#fffeff" d="m192.41 66.44-.17 1.4q-.06.53.11 1.03.18.52-.01.99-.19.46-.73.76-2.59 1.48-4.5 3.78-1.23.32-1.39-.43a.44.41-32 0 1 .1-.38zM194.13 66.84q.05-.35.36-.18.33.17.22.51-.04.14-.18.16-.48.07-.4-.49"/><ellipse fill="#fffeff" rx="1.55" ry=".41" transform="rotate(-21.8 273.83 -476.851)"/><path d="M246.22 70.98q-.68.85-1.64 1.3-.16.08-.07.24.06.11.03.25-.96.24-1.85.12-.51-.07-.68-.56-1.06-3.22 1.97-4.79.53-.27.78.27zM277.19 67.82q-2.93 2.49-6.3.29z"/><path fill="#fffeff" d="M277.56 67.81q.13.62.51 1t.91.35q.82-.05 1.6.24a.35.35 0 0 1 .08.61l-.42.3a1.2 1.2 0 0 1-.92.19l-2.19-.43q-.8-.16-1.4.4l-3.08 2.92q-.45.43-.2.99.69 1.58 2.37 1.94 1.08.23.06.65-1.99.82-4.11 1.02-.62.06-.57.68.02.29.24.48.62.54-.15.84l-1.13.43q-.44.18-.9.02c-2.24-.76-4.47 3.02-5.55 4.62q-.35-.23-1.2-.12l3.02-3.91q.6-.77-.34-.53l-4.22 1.09q-.19.05-.35-.06l-.28-.2q-.41-.28-.89-.17l-4.23.95-1.76-1.65q.28-.27.73-.21-.02.26.1.46.26.4.6.07 5.78-5.59 11.92-10.07.1-.08.07-.2-.04-.15-.14-.26-.15-.15-.34-.07-1.66.76-3.54.21l9.03-2.28q3.37 2.2 6.3-.29.19 0 .37-.01m-7.81 2.81q.05-.01.08-.06.4-.84-.5-.5c-4.33 1.66-9.1 6.13-12.56 9.44q-1.52 1.46.48.82.65-.21 1.17.21.49.4 1.04.09c2.39-1.31 5.39-1.35 7.61-2.88q3.52-2.44 2.33-6.41-.16-.52.35-.71m1.18 2.05a.38.38 0 0 0 .64.32l2.49-2.29a.38.38 0 0 0-.28-.66l-2.21.09a.38.38 0 0 0-.36.34zm1.4 4.21a.26.25-14.1 0 0 .21-.34q-.27-.76-.76-1.36-.4-.48-.76.04l-.72 1.08q-.58.86.45.75zm-4.41 2.44q-.07.07-.07.17.01.16.12.04.05-.06.08-.13.13-.36-.13-.08"/><path d="m282.05 68 .03 1.6a1.7 1.7 0 0 0 2.64 1.37q3.43-2.28 6.05.89l-3.81 1.16q.05-.61-.52-.89a.59.59 0 0 0-.84.47q-.02.24.5.57l-4.94 2.57q-7.13.3-2.63 1.58L276 79.06q-1.09-1.56-2.09-.69-.74.65-1.52 1.28-.34.27.08.38l1.85.47q-1.71 1.05-2.69 2.49-.29.42.15.67 2.2 1.24 4.88 1.62-.21.24-.4.75-6.45-1.76-13.55-.97c1.08-1.6 3.31-5.38 5.55-4.62q.46.16.9-.02l1.13-.43q.77-.3.15-.84-.22-.19-.24-.48-.05-.62.57-.68 2.12-.2 4.11-1.02 1.02-.42-.06-.65-1.68-.36-2.37-1.94-.25-.56.2-.99l3.08-2.92q.6-.56 1.4-.4l2.19.43a1.2 1.2 0 0 0 .92-.19l.42-.3a.35.35 0 0 0-.08-.61q-.78-.29-1.6-.24-.53.03-.91-.35t-.51-1zm-5.55 4.09q.09 0 .13-.08.19-.34-.12-.1-.06.05-.07.13-.01.06.06.05m-.45.81q.15-.35-.02-.26-.14.07-.16.21l-.08.39a.09.09 0 0 0 .15.08q.27-.29.11-.42m-7.263 11.45a1.33.49 100.1 0 0 .715-1.224 1.33.49 100.1 0 0-.249-1.395 1.33.49 100.1 0 0-.715 1.223 1.33.49 100.1 0 0 .249 1.395"/><path fill="#fffeff" d="M288.45 69.22q.37.14.75.05-.17.23.07.35.65.3.98-.08l1.46.56a.94.93-47.7 0 1 .08 1.71q-.44.23-1.02.05-2.62-3.17-6.05-.89a1.7 1.7 0 0 1-2.64-1.37l-.03-1.6z"/><path d="m205.62 71.18-2.04-.24.63-1.42q.26-.57.55-.01zM289.2 69.27q-.38.09-.75-.05.38-.31.75.05M290.25 69.54q-.33.38-.98.08-.24-.12-.07-.35.75-.22 1.05.27M269.4 71.33q1.19 3.97-2.33 6.41c-2.22 1.53-5.22 1.57-7.61 2.88q-.55.31-1.04-.09-.52-.42-1.17-.21-2 .64-.48-.82c3.46-3.31 8.23-7.78 12.56-9.44q.9-.34.5.5-.03.05-.08.06-.51.19-.35.71M270.93 72.67l.28-2.2a.38.38 0 0 1 .36-.34l2.21-.09a.38.38 0 0 1 .28.66l-2.49 2.29a.38.38 0 0 1-.64-.32M238.01 73.98q-1.82 1.06-4.11.75l5.37-4.11q.49-.37.4.24-.28 1.74-1.66 3.12M261.86 70.39q1.88.55 3.54-.21.19-.08.34.07.1.11.14.26.03.12-.07.2-6.14 4.48-11.92 10.07-.34.33-.6-.07-.12-.2-.1-.46.32.22.52-.05 2.72-3.52 5.53-6.97.53-.65.48-1.25-.02-.29.21-.47.2-.15.31-.47.76-.6 1.62-.65"/><path fill="#fffeff" d="M260.24 71.04q-.11.32-.31.47-.23.18-.21.47.05.6-.48 1.25-2.81 3.45-5.53 6.97-.2.27-.52.05-.23-.68.13-1.16 2.05-2.77 5.58-6.83.17-.2.25-.45.07-.25.14-.53z"/><path d="M259.29 71.28q-.07.28-.14.53-.08.25-.25.45-3.53 4.06-5.58 6.83-.36.48-.13 1.16-.45-.06-.73.21-.28-.17-.4-.4l-1.57-3.91z"/><path fill="#fffeff" d="M276.44 72.04q.01-.08.07-.13.31-.24.12.1-.04.08-.13.08-.07.01-.06-.05"/><path d="M241.17 73.74q-.65.28-1.36.22.06-.82.43-1.36.36-.55.68.02.22.37.25 1.12"/><path fill="#fffeff" d="m286.96 73.02-.86.15q-.52-.33-.5-.57a.59.59 0 0 1 .84-.47q.57.28.52.89M276.05 72.9q.16.13-.11.42a.09.09 0 0 1-.15-.08l.08-.39q.02-.14.16-.21.17-.09.02.26M229.56 74.89q-1.03-.5-1.75-1.4.49-.52 1.19-.55.53-.03.79.44.41.74-.23 1.51"/><path d="M250.17 76.26q-.11.45-.54 1.04l-5.95-3.16q1.12-.18 1.08-1.31 2.62 2.38 5.41 3.43M272.33 76.88l-1.58.17q-1.03.11-.45-.75l.72-1.08q.36-.52.76-.04.49.6.76 1.36a.26.25-14.1 0 1-.21.34"/><path fill="#fffeff" d="M281.16 75.74q-1.25 1.17-2.63 1.58-4.5-1.28 2.63-1.58M250.49 76.15l1.57 3.91q-1.6-.91-2.43-2.76.43-.59.54-1.04.75.08.32-.11M276 79.06q-.43.96-1.68 1.44l-1.85-.47q-.42-.11-.08-.38.78-.63 1.52-1.28 1-.87 2.09.69"/><path d="M268.05 79.4q-.03.07-.08.13-.11.12-.12-.04 0-.1.07-.17.26-.28.13.08M261.51 84.94c-1.83.13-4.77.56-5.54-1.2l2.15-1.22q.98-.55-.14-.67-1.5-.16-2.38 1.5l-1.38-1.24 4.23-.95q.48-.11.89.17l.28.2q.16.11.35.06l4.22-1.09q.94-.24.34.53z"/><ellipse fill="#fffeff" rx="1.33" ry=".49" transform="rotate(100.1 99.732 154.187)"/><path fill="#fffeff" d="M255.97 83.74q-.36-.13-.37-.39.88-1.66 2.38-1.5 1.12.12.14.67zM280.03 86.39q.06.36-.07.8-2.02.18-3.7-1.16.19-.51.4-.75z"/><path d="M287.9 86.11q.5 1.65-1.43 2.26-.27.08-.38.36-.22.57.37.45l.92-.19q.6-.12.47.48-.06.28-.36.42-.87.4-1.63.02-.52-.26-.56.32-.08 1.05.82 1.57a.56.56 0 0 0 .82-.32q.17-.55.75-.35.83.3.09.78l-4.99 3.24q.56-2.31.13-3.87.74-.83 1.16-1.99.17-.46-.11-.87l-1.42-2.08z"/><path fill="#fffeff" d="M295.24 86.56q-.11.63-.51.92a.93.93 0 0 1-.88.14l-1.09-.39q-.66-.23-.86.44l-.32 1.11a.53.52 89.8 0 0 .65.65l2.97-.85a1.03 1.02 86.8 0 0 .72-.81q.13-.76.51-.84 2.29-.03 3.37.61-1.3 2.74.52 4.32.48.42 1.12.38l1.61-.1q.74-.04.52-.75l-.1-.33q-.16-.53-.72-.56l-2.08-.12a.69.69 0 0 1-.64-.56l-.05-.32a.44.44 0 0 1 .36-.51q.89-.14 1.86-.77 4.1 1.26 7.53 3.8-1.03 1.49-.2 2.47.55.64-.29.62-1.84-.05-3.38-.62-.48-.18-.74.25-.28.44-.61.88-.42.55-.52-.13l-.18-1.15a.67.67 0 0 0-.71-.57l-1.87.12q-.5.03-.34.5l.63 1.89q.29.9-.52.41-.71-.42-.96-1.27-.06-.17-.23-.24-.12-.05-.26.01-.32.13-.33.48l-.03 1.7q0 .26-.24.37-.15.07-.31.06-.5-.01-.39-.49.06-.31 0-.61-.11-.59-.55-.17c-.71.68-1 1.96-1.7 2.39q-.52.33-1-.04a.9.9 0 0 1-.17-1.27l3.07-3.96a.79.79 0 0 0-.61-1.28q-1.03-.02-1.9-.5a.54.53-50.6 0 1-.08-.87l.21-.18a.71.7-42.8 0 1 .96.03q.49.49 1.14.6.33.05.35-.28l.07-.97q.02-.39-.36-.48-2.09-.48-3.62.67-.32.24-.18.61.07.18.04.37-.12.71-.76.39-1.76-.88-2.33.69-.62 1.72.77 3.01.41.37-.1.59-3.13 1.37-1.74 4.73a.64.64 0 0 0 1.13.1q.88-1.38 2.13-2.2.62-.41.05-.87-.34-.28-.76-.24-.52.06-.42-.45l.09-.5q.07-.42.51-.41 1.27.02 1.41 1.54a2.28 2.27-21.1 0 1-.89 2.01l-7.12 5.37q.41-1.74 1.55-2.79.35-.32.81-.45.29-.07.51-.28a.58.57-35.9 0 0 .11-.68q-.86-1.65-.7-3.46a.69.68-86.9 0 0-.67-.75l-2.12-.04q-.24-.01-.29-.25l-.05-.25q-.06-.29.22-.37 1.02-.29 1.97-.09.83.18.87-.67l.04-1.04q.03-.68-.6-.41-1.97.82-3.7 2.73-.86.95-1.91.53.27-1.26.86-1.71l4.99-3.24q.74-.48-.09-.78-.58-.2-.75.35a.56.56 0 0 1-.82.32q-.9-.52-.82-1.57.04-.58.56-.32.76.38 1.63-.02.3-.14.36-.42.13-.6-.47-.48l-.92.19q-.59.12-.37-.45.11-.28.38-.36 1.93-.61 1.43-2.26zm-6.25 2.25a.62.61.9 0 0 .8.82q.97-.42 1.06-2.08a.4.4 0 0 0-.66-.32q-.78.69-1.2 1.58m.55 4.11q.09-.17.11-.37.14-1.01-.45-.19-.19.26 0 .58.19.3.34-.02m18.247.928a1.63.61 28.9 0 0-1.132-1.322 1.63.61 28.9 0 0-1.722-.254 1.63.61 28.9 0 0 1.132 1.322 1.63.61 28.9 0 0 1.722.254m-18.457-.018-.25 1.67q-.06.43.38.39l.54-.06q.65-.06.34-.64l-.76-1.41q-.19-.34-.25.05"/><path d="M281.19 86.33q.79.88.57 1.96l-1.8-1.1q.13-.44.07-.8.6-.14 1.16-.06"/><path fill="#fffeff" d="m282.55 86.34 1.42 2.08q.28.41.11.87-.42 1.16-1.16 1.99l-.42-1.02.21-.26q.24-.29-.03-.55-.16-.15-.44-.22l-.48-.94q.22-1.08-.57-1.96.69-.15 1.36.01"/><path d="M296.43 86.93q-.38.08-.51.84a1.03 1.02 86.8 0 1-.72.81l-2.97.85a.53.52 89.8 0 1-.65-.65l.32-1.11q.2-.67.86-.44l1.09.39a.93.93 0 0 0 .88-.14q.4-.29.51-.92.66.03 1.19.37M288.99 88.81q.42-.89 1.2-1.58a.4.4 0 0 1 .66.32q-.09 1.66-1.06 2.08a.62.61.9 0 1-.8-.82M299.8 87.54l2.4.68q-.97.63-1.86.77a.44.44 0 0 0-.36.51l.05.32a.69.69 0 0 0 .64.56l2.08.12q.56.03.72.56l.1.33q.22.71-.52.75l-1.61.1q-.64.04-1.12-.38-1.82-1.58-.52-4.32M282.5 90.26q-.35-.27-.26-1.03.28.07.44.22.27.26.03.55z"/><path d="M309.73 92.02q1.17-.04 1.2.64-2.02 1.85 1.83 1.51l.36.24q.6 1.46-2.11 1.17-.83-.09-.3.56.5.62 1.36.66.23.01.44.07.35.1.39.35.07.41-.32.58-.68.28-1.2.78-1.16 1.09-1.3-.5-.08-.98-.66-1.8-.44-.62-.97-.07-1.41 1.46-2.12 3.31a.29.28 20 0 0 .18.37q.23.08.3.02-.98 1.01-2.53.78.66-1.6.35-3.42-.03-.2-.21-.28-.19-.09-.38.05-.29.22-.34.59-.1.82.07 1.58a.65.64 78.4 0 1-.51.78q-1.28.23-1.24.95-.94.74-2.02.86l-.17-.84q-.1-.51.34-.78l2.3-1.44q.11-.07.04-.19l-.14-.21q-.26-.4-.62-.09-.95.83-2.15.64-.44-.06-.74.26-.61.67-1.42 1.01-.62.26 0 .54.25.11.45-.02.6-.43.5.31-.11.8.62 1.22l-6.34 3.1.47-2.42q.13-.67-.3-.13-.93 1.17-1.82 2.41-.18.26-.14.57.05.33.39.38-.21.05-.33.15-.36.28.03.5l2.04 1.14-1.56.28q-.98-.14-1.65-.69.55-.18.67-.75.09-.44-.17-.81-.38-.53-.12-1.16a.31.31 0 0 0-.19-.42l-.26-.08q-.29-.09-.35.22-.28 1.61.42 3l-3.91-2.37 7.12-5.37a2.28 2.27-21.1 0 0 .89-2.01q-.14-1.52-1.41-1.54-.44-.01-.51.41l-.09.5q-.1.51.42.45.42-.04.76.24.57.46-.05.87-1.25.82-2.13 2.2a.64.64 0 0 1-1.13-.1q-1.39-3.36 1.74-4.73.51-.22.1-.59-1.39-1.29-.77-3.01.57-1.57 2.33-.69.64.32.76-.39.03-.19-.04-.37-.14-.37.18-.61 1.53-1.15 3.62-.67.38.09.36.48l-.07.97q-.02.33-.35.28-.65-.11-1.14-.6a.71.7-42.8 0 0-.96-.03l-.21.18a.54.53-50.6 0 0 .08.87q.87.48 1.9.5a.79.79 0 0 1 .61 1.28l-3.07 3.96a.9.9 0 0 0 .17 1.27q.48.37 1 .04c.7-.43.99-1.71 1.7-2.39q.44-.42.55.17.06.3 0 .61-.11.48.39.49.16.01.31-.06.24-.11.24-.37l.03-1.7q.01-.35.33-.48.14-.06.26-.01.17.07.23.24.25.85.96 1.27.81.49.52-.41l-.63-1.89q-.16-.47.34-.5l1.87-.12a.67.67 0 0 1 .71.57l.18 1.15q.1.68.52.13.33-.44.61-.88.26-.43.74-.25 1.54.57 3.38.62.84.02.29-.62-.83-.98.2-2.47M289.2 92.94q-.19-.32 0-.58.59-.82.45.19-.02.2-.11.37-.15.32-.34.02"/><ellipse rx="1.63" ry=".61" transform="rotate(28.9 -27.388 640.973)"/><path fill="#fffeff" d="M310.93 92.66q1.08.6 1.83 1.51-3.85.34-1.83-1.51"/><path d="M285.89 105.13q-1.2-1.91-1.72-4.15-.12-.53-.56-.85l-1.96-1.43q-.43-.32-.31-.85.14-.56.59-.99 1.05.42 1.91-.53 1.73-1.91 3.7-2.73.63-.27.6.41l-.04 1.04q-.04.85-.87.67-.95-.2-1.97.09-.28.08-.22.37l.05.25q.05.24.29.25l2.12.04a.69.68-86.9 0 1 .67.75q-.16 1.81.7 3.46a.58.57-35.9 0 1-.11.68q-.22.21-.51.28-.46.13-.81.45-1.14 1.05-1.55 2.79M289.33 93.83q.06-.39.25-.05l.76 1.41q.31.58-.34.64l-.54.06q-.44.04-.38-.39z"/><path fill="#fffeff" d="M318.22 100.05q-1.81-.98-3.1-2.35-.39-.42-.36-1 .01-.43-.26-.76-.57-.7-.54.2.07 2.66-2.46 3.77l-2.92.01.04-1.13q.02-.67-.52-.27-.75.58-1.29 1.39-.07.06-.3-.02a.29.28 20 0 1-.18-.37q.71-1.85 2.12-3.31.53-.55.97.07.58.82.66 1.8.14 1.59 1.3.5.52-.5 1.2-.78.39-.17.32-.58-.04-.25-.39-.35-.21-.06-.44-.07-.86-.04-1.36-.66-.53-.65.3-.56 2.71.29 2.11-1.17 3.15 1.84 5.1 5.64"/><path d="M318.22 100.05q.66 1.73-2 .46c-1.54-.73-3.09-.6-4.72-.6q2.53-1.11 2.46-3.77-.03-.9.54-.2.27.33.26.76-.03.58.36 1 1.29 1.37 3.1 2.35"/><path fill="#fffeff" d="m304.28 100.69-2.26.25q-.04-.72 1.24-.95a.65.64 78.4 0 0 .51-.78q-.17-.76-.07-1.58.05-.37.34-.59.19-.14.38-.05.18.08.21.28.31 1.82-.35 3.42M300 101.8q-.66.1-.99.41-.73-.42-.62-1.22.1-.74-.5-.31-.2.13-.45.02-.62-.28 0-.54.81-.34 1.42-1.01.3-.32.74-.26 1.2.19 2.15-.64.36-.31.62.09l.14.21q.07.12-.04.19l-2.3 1.44q-.44.27-.34.78z"/><path d="m308.58 99.92-1.77-.01q.54-.81 1.29-1.39.54-.4.52.27z"/><path fill="#fffeff" d="m292.67 105.31-1.4.81q-.34-.05-.39-.38-.04-.31.14-.57.89-1.24 1.82-2.41.43-.54.3.13zM289.8 107.5q-.7-1.39-.42-3 .06-.31.35-.22l.26.08a.31.31 0 0 1 .19.42q-.26.63.12 1.16.26.37.17.81-.12.57-.67.75M293.01 107.91l.49.17q.51.61.29.71l-2.34-.6z"/><path d="M296.94 108.13q-.38.86-.99 1.52l-2.16-.86q.22-.1-.29-.71z"/><path fill="#fffeff" d="m296.94 108.13.83.39q-.15.95-.51 1.34-.71.09-1.31-.21.61-.66.99-1.52"/><path d="M299.74 108.99q.15.89.87 2.17-2.1-1.23-3.35-1.3.36-.39.51-1.34 1 .56 1.97.47"/><path fill="#fffeff" d="M309.49 113.59q-.57.79-.43 1.3.13.44.51.18.46-.31.79-1.12 1.99 1.37 4.02 2.68 3.61 2.34 9.45 9.24l-4.72 3.15q-1.19-1.8-.95-3.55.09-.69.78-.63l3.22.28q.28.02.34-.26l.06-.29q.06-.27-.21-.33-4.73-1-8.89.24-.47.13-.89-.03-.79-.32-.61-1.19.1-.49-.39-.45-.99.07-.94-.99-1.14-2.23-2.48-4.13-.27-.38-.7-.56l-3.83-1.62q-1.3-.55-.19.32.99.78 2.22 1.15c1.77.53 2.6 2.12 3.35 3.65q.34.68-.31 1.09-1.29.8-1.53 2.36-.15.95.64.39.84-.59 1.38-1.48.25-.41.72-.31.38.08.01.81a.83.81-88.6 0 1-.39.38q-1.71.76-1.24 2.22.15.44-.27.66-1.61.85-1.95-.45 1.1-1.27.37-1.14-.17.57-.37 1.14l-1.35 1.25a.75.75 0 0 1-1.19-.24q-.83-1.85-2.28-2.82l-.04-9.05q.82-.75-.09-1.43.08-2.01-.5-2.85-.72-1.28-.87-2.17zm-6.26-.84 1.24 1.13q.34.31.41-.14.09-.66-1.65-.99-.12-.55-.47-.86-.55-.48-.58.22-.01.35.37.61.32.22.68.03m9.69 8.36q-.39.3-.49.77-.22.97.59.4 1.08-.76 2.26-1.14.95-.3.08-.8-1.11-.63-2.27-.98-1.74-.51-.12-1.35.91-.46.84-1.41-.01-.08-.07-.13-.13-.12-.26-.08-.25.07-.34.32-.6 1.84-2.4 1.61-.59-.07-.44.5.24.86.96 1.33a1.26 1.22 53.9 0 0 .98.17q.24-.05.47-.01 1 .17.21.8m6.718 1.756a1.56.28 33.7 0 0-1.143-1.099 1.56.28 33.7 0 0-1.453-.633 1.56.28 33.7 0 0 1.143 1.099 1.56.28 33.7 0 0 1.453.633m-15.508 1.504c-.2.19-.45.3-.64.49q-.45.47.17.3l2.15-.58a.45.45 0 0 0-.09-.89q-.81-.06-1.59.68"/><path d="M303.23 112.75q-.36.19-.68-.03-.38-.26-.37-.61.03-.7.58-.22.35.31.47.86M303.23 112.75q1.74.33 1.65.99-.07.45-.41.14zM310.36 113.95q-.33.81-.79 1.12-.38.26-.51-.18-.14-.51.43-1.3.41.27.87.36M301.2 115.44q-.22-.62-.09-1.43.91.68.09 1.43M319.11 129.02q-1.03-.24-1.23-1.5-.22-1.34-.4-2.08-.15-.63-.79-.53l-3.17.49q-.7.1-.47.77l.73 2.12q.08.21-.02.42-.07.13-.21.16-.44.1-.62-.32l-.9-2.15a.59.58-24.8 0 0-.81-.29q-2.27 1.17-4.25 2.47-.42.28-.58.74a.53.53 0 0 0 .54.7q.14-.01.28-.01.91-.03.42.73-.57.9.29 1.96l-4.15 1.52q-1.23-.15-2.29.47-.19.11-.1.31.05.1.19.18-1.06 1.24-.34 2.52-1.33.03-1.01.71-1.41-.3-.82-2.28l1.83-3.21q.26-.44.03-.91-.28-.55.06-1.08.14-.22.15-.49.01-.31-.21-.47-.48-.35.08-.54.44-.14.86.05.23.1.48.02.13-.04.23-.11.45-.28.24-.76-.71-1.68-1.91-2.75-.42-.45 0-1.39 1.45.97 2.28 2.82a.75.75 0 0 0 1.19.24l1.35-1.25q.34 1.3 1.95.45.42-.22.27-.66-.47-1.46 1.24-2.22a.83.81-88.6 0 0 .39-.38q.37-.73-.01-.81-.47-.1-.72.31-.54.89-1.38 1.48-.79.56-.64-.39.24-1.56 1.53-2.36.65-.41.31-1.09c-.75-1.53-1.58-3.12-3.35-3.65q-1.23-.37-2.22-1.15-1.11-.87.19-.32l3.83 1.62q.43.18.7.56 1.34 1.9 2.48 4.13-.05 1.06.94.99.49-.04.39.45-.18.87.61 1.19.42.16.89.03 4.16-1.24 8.89-.24.27.06.21.33l-.06.29q-.06.28-.34.26l-3.22-.28q-.69-.06-.78.63-.24 1.75.95 3.55m-9.89-3.55q-.55.81.36.45.93-.37 1.6-1.2.55-.7-.3-.46-1.03.29-1.66 1.21m-5.81 6.7a.39.39 0 0 0 .15.59q.91.41 1.97.32a.53.53 0 0 0 .48-.63q-.2-.99-.95-1.39-.58-.32-.98.22z"/><path d="M312.71 120.31q-.23-.04-.47.01a1.26 1.22 53.9 0 1-.98-.17q-.72-.47-.96-1.33-.15-.57.44-.5 1.8.23 2.4-1.61.09-.25.34-.32.13-.04.26.08.06.05.07.13.07.95-.84 1.41-1.62.84.12 1.35 1.16.35 2.27.98.87.5-.08.8-1.18.38-2.26 1.14-.81.57-.59-.4.1-.47.49-.77.79-.63-.21-.8"/><ellipse rx="1.56" ry=".28" transform="rotate(33.7 -42.236 586.539)"/><path d="M304.13 124.37q.78-.74 1.59-.68a.45.45 0 0 1 .09.89l-2.15.58q-.62.17-.17-.3c.19-.19.44-.3.64-.49"/><path fill="#fffeff" d="M309.22 125.47q.63-.92 1.66-1.21.85-.24.3.46-.67.83-1.6 1.2-.91.36-.36-.45"/><path d="M306.06 126.3q.2-.57.37-1.14.73-.13-.37 1.14"/><path fill="#fffeff" d="M319.11 129.02q-.08.3.07.55.33.56.87.19t.78-1a.97.96 3.5 0 1 .68-.6q1.48-.35 2.66-1.21l2.51 4.42q.29.52-.28.33-3.71-1.21-7.43-.85-.33-.51-.83-.77-.43-.24-.73.17l-.46.64-3.08.73q.51-2.54-2.42.31l-.76-.03q-.69-.29-.69-.01-1.11.73-2.08.81-.86-1.06-.29-1.96.49-.76-.42-.73-.14 0-.28.01a.53.53 0 0 1-.54-.7q.16-.46.58-.74 1.98-1.3 4.25-2.47a.59.58-24.8 0 1 .81.29l.9 2.15q.18.42.62.32.14-.03.21-.16.1-.21.02-.42l-.73-2.12q-.23-.67.47-.77l3.17-.49q.64-.1.79.53.18.74.4 2.08.2 1.26 1.23 1.5m-10.05 1.57q.12.67.73.87.55.19.35-.36-.19-.49-.58-.8a.31.31 0 0 0-.5.29M299.4 136.13l1.84-10.25q1.2 1.07 1.91 2.75.21.48-.24.76-.1.07-.23.11-.25.08-.48-.02-.42-.19-.86-.05-.56.19-.08.54.22.16.21.47-.01.27-.15.49-.34.53-.06 1.08.23.47-.03.91z"/><path d="m323.83 125.87.34 1.08q-1.18.86-2.66 1.21a.97.96 3.5 0 0-.68.6q-.24.63-.78 1t-.87-.19q-.15-.25-.07-.55zM318.97 130.85q-.98.3-2.02.04l.46-.64q.3-.41.73-.17.5.26.83.77M309.06 130.59a.31.31 0 0 1 .5-.29q.39.31.58.8.2.55-.35.36-.61-.2-.73-.87M313.87 131.62l-2.42.31q2.93-2.85 2.42-.31"/><path fill="#fffeff" d="m303.41 132.17.67-.89q.4-.54.98-.22.75.4.95 1.39a.53.53 0 0 1-.48.63q-1.06.09-1.97-.32a.39.39 0 0 1-.15-.59"/><path d="M310.69 131.9q-.37.1-.69-.01 0-.28.69.01"/><path fill="#fffeff" d="M303.77 134.22q-1.04.67-2.2.96-.14-.08-.19-.18-.09-.2.1-.31 1.06-.62 2.29-.47M301.23 137.7q1.5 1.88 2.33 4.29-.02.49.21.7.08.38.03.72-.07.39-.39.52t-.73.02q.11-3.37-2.46-5.54-.32-.68 1.01-.71"/><path d="M303.77 142.69q-.23-.21-.21-.7.24.16.21.7M303.7 144.89l-.53-.09a.56.55-22.8 0 0-.41 1q2.79 1.94 5.7 3.49 1.04.56.49-.49-.69-1.31-2.27-3.03l6.29 3.44c.57.94 1.36 2.07 2.34 2.6q.73.39.96 1.23.14.51.62.75.61.31 1.3.37.69.07.17.53-.38.33-.89.48a.74.73 58.7 0 1-.72-.18l-.28-.27q-.47-.46-.62.18-.07.32.12.53.27.31.64.14.29-.13.53.05c.49.38.69.97.91 1.53q.23.56.83.6 1.21.08 1.94 1.07.31.42.82.4l1.06-.04.38.58q-.38.92-.99 1.29-.55.32-.3.9l.19.47a.45.44-35.4 0 0 .74.12l1.38-1.52 1.31 2.19q-2.45 1.17 1.1 4.76.68 1.45.29 4l-3.25-2.14q-.42-.27-.9-.17-1.3.28-1.55-.85-.11-.5-.54-.77l-3.78-2.29q-.13-.08-.19-.22-.06-.12-.15-.22-.21-.25-.54-.36c-5.59-1.89-9.28-2.88-13.77-8.1q-.27-.3-.04-1.19c2.29 1.36 3.18 3.21 5.16 4.59a.52.52 0 0 0 .68-.07l.22-.23a.76.76 0 0 0-.02-1.06l-6.02-5.93q-.14-.36-.04-1.02 1.03.89 2.35.53 1.06-.3.2.39l-.21.17q-.4.33-.03.69l4.58 4.42a.52.52 0 0 0 .76-.03l3.02-3.44q.42-.48-.1-.84l-10.16-6.9q-.72-1.4.2-2.98.41.11.73-.02t.39-.52q.05-.34-.03-.72.4.98-.07 2.2m9.453 7.182a1.51.38 44.7 0 0-.806-1.332 1.51.38 44.7 0 0-1.34-.792 1.51.38 44.7 0 0 .806 1.332 1.51.38 44.7 0 0 1.34.792m.567.398q-.16.09-.01.22.19.15.44.11.28-.05.25-.33-.04-.38-.68 0m-3.18 6.18a.65.65 0 0 0 .07.94l1.74 1.42a.65.65 0 0 0 1.04-.34l1.2-4.75a.65.65 0 0 0-1.12-.59zm8.03 4.9a1.93 1.93 0 0 0 .89-3.16l-3.7-4.03a.2.19-59.8 0 0-.33.09l-1.42 5.4q-.1.37.19.63 2.02 1.74 4.37 1.07m-7.3-1.16q.45.28.97.32.92.06.18-.49l-2.62-1.97q-.36-.27-.76-.07-.24.11-.32.34a.71.7-62.3 0 0 .25.82c.73.49 1.58.6 2.3 1.05m9.05.37q-.18.15-.34.33-.49.53.22.59l.8.06q1.09.09.3-.68-.2-.19-.28-.48-.18-.68-.58-.09-.08.13-.12.27m2.93 3.23.16.4q.12.31.41.13.16-.09.06-.24-.94-1.55-1.37-1.6-1.96-.18-4.09.23-.67.13-.12.52 1.79 1.28 3.62 2.15.79.37.35-.38-.39-.65.02-1.3.56-.91.96.09m1.52 1.46a.44.44 0 0 0-.73-.1l-.44.49q-.57.63.18 1.04l1.67.88q.16.09.31 0 .19-.1.18-.45a.46.43 24.9 0 0-.12-.3q-.64-.71-1.05-1.56"/><path fill="#fffeff" d="m303.7 144.89 2.98.88q1.58 1.72 2.27 3.03.55 1.05-.49.49-2.91-1.55-5.7-3.49a.56.55-22.8 0 1 .41-1zM302.07 151.94l.41-5.01 10.16 6.9q.52.36.1.84l-3.02 3.44a.52.52 0 0 1-.76.03l-4.58-4.42q-.37-.36.03-.69l.21-.17q.86-.69-.2-.39-1.32.36-2.35-.53M322.7 159.18l-1.06.04q-.51.02-.82-.4-.73-.99-1.94-1.07-.6-.04-.83-.6c-.22-.56-.42-1.15-.91-1.53q-.24-.18-.53-.05-.37.17-.64-.14-.19-.21-.12-.53.15-.64.62-.18l.28.27a.74.73 58.7 0 0 .72.18q.51-.15.89-.48.52-.46-.17-.53-.69-.06-1.3-.37-.48-.24-.62-.75-.23-.84-.96-1.23c-.98-.53-1.77-1.66-2.34-2.6q6.09 3.86 9.73 9.97"/><ellipse fill="#fffeff" rx="1.51" ry=".38" transform="rotate(44.7 -27.604 455.026)"/><path fill="#fffeff" d="M313.72 152.47q.64-.38.68 0 .03.28-.25.33-.25.04-.44-.11-.15-.13.01-.22M302.09 155.66l.02-2.7 6.02 5.93a.76.76 0 0 1 .02 1.06l-.22.23a.52.52 0 0 1-.68.07c-1.98-1.38-2.87-3.23-5.16-4.59M310.54 158.65l2.93-3.32a.65.65 0 0 1 1.12.59l-1.2 4.75a.65.65 0 0 1-1.04.34l-1.74-1.42a.65.65 0 0 1-.07-.94M318.57 163.55q-2.35.67-4.37-1.07-.29-.26-.19-.63l1.42-5.4a.2.19-59.8 0 1 .33-.09l3.7 4.03a1.93 1.93 0 0 1-.89 3.16"/><path fill="#fffeff" d="M326.8 171.97q-8.99-4.05-18.36-4.37-1.37-.05-2.9.13-1.47.18-2.87.02-.58-.07-.66.51l-.52 3.73q-.08.55.41.81l2.01 1.03q-2.11-.03-3.72.6l.94-6.96q.14-.77-.07-1.47l1.04-5.72q.7.07 1.03-.34.39-.48-.15-.77-.37-.2-.93-.15l.08-2.17c4.49 5.22 8.18 6.21 13.77 8.1q.33.11.54.36.09.1.15.22.06.14.19.22l3.78 2.29q.43.27.54.77.25 1.13 1.55.85.48-.1.9.17zm-20.65-9.62a.22.22 0 0 0 .18.35q.36-.02.58-.32.42-.6-.28-.37-.29.1-.48.34m-1.525 1.797a1.51.38-37.7 0 0-1.427.622 1.51.38-37.7 0 0-.963 1.224 1.51.38-37.7 0 0 1.427-.622 1.51.38-37.7 0 0 .963-1.224"/><path d="M302.1 160.28q-.39-.76-.05-1.26.56-.05.93.15.54.29.15.77-.33.41-1.03.34"/><path fill="#fffeff" d="m324.1 161.02-1.38 1.52a.45.44-35.4 0 1-.74-.12l-.19-.47q-.25-.58.3-.9.61-.37.99-1.29zM311.27 162.39c-.72-.45-1.57-.56-2.3-1.05a.71.7-62.3 0 1-.25-.82q.08-.23.32-.34.4-.2.76.07l2.62 1.97q.74.55-.18.49-.52-.04-.97-.32"/><path d="M306.15 162.35q.19-.24.48-.34.7-.23.28.37-.22.3-.58.32a.22.22 0 0 1-.18-.35"/><path fill="#fffeff" d="M320.32 162.76q.04-.14.12-.27.4-.59.58.09.08.29.28.48.79.77-.3.68l-.8-.06q-.71-.06-.22-.59.16-.18.34-.33M326.51 167.97q-3.55-3.59-1.1-4.76.89 1.91 1.1 4.76"/><ellipse rx="1.51" ry=".38" transform="rotate(-37.7 393.468 -361.853)"/><path fill="#fffeff" d="M322.29 165.9q-.41.65-.02 1.3.44.75-.35.38-1.83-.87-3.62-2.15-.55-.39.12-.52 2.13-.41 4.09-.23.43.05 1.37 1.6.1.15-.06.24-.29.18-.41-.13l-.16-.4q-.4-1-.96-.09"/><path d="m301.13 167.47-.07-1.47q.21.7.07 1.47"/><path fill="#fffeff" d="M324.77 167.45q.41.85 1.05 1.56a.46.43 24.9 0 1 .12.3q.01.35-.18.45-.15.09-.31 0l-1.67-.88q-.75-.41-.18-1.04l.44-.49a.44.44 0 0 1 .73.1"/><path d="m303.91 173.83.32.33q-1.78.92-3.97 1.24l-.07-.97q1.61-.63 3.72-.6"/><path fill="#fffeff" d="m304.23 174.16 2.02 1.19-3.39 2.65q-.41.32-.88.12-.96-.38-1.77-1.38l.05-1.34q2.19-.32 3.97-1.24"/><path d="M306.76 175.76q-.88 1.34-2.76 2.53a.95.94-42.6 0 0-.07 1.55q2.46 1.86 4.95 2.78 2.17.8.85-1.1-1.52-2.21-2.59-5.46 3.97 4.38 6.07 9.7c.8 2.03.9 4 1.39 6.1q1 4.36-.64 8.35-.2.5-.72.35-1.39-.42-2.34-1.28.74-1.16-1.42-3.17-.64-.6-1.36-.09l-1.86 1.32q-1.19-.46-2.51-.4.28-.66.09-1.19-.26-.69-.71-.1-.1.13-.25.14-.51.02-.71-.44-1.26-2.83-1.72-3.51-.92-1.37-2.17-.6l.71-5.1 1.65 1.43q.4.34.27.85-.36 1.41 1.21 2.23.95.49.5-.49l-3.08-6.59q-.28-.61.39-.56.17.01.3.1.58.41.7 1.13.23 1.38 1.49 1.01.41-.12.4.31-.01.18-.15.28-.46.36-.26.91l1.57 4.28q.25.69.96.88 1.36.38 2.55.2a.64.64 0 0 0 .44-.97q-.39-.63-.18-1.33c.44-1.43-.73-2.91-1.96-3.47q-1.37-.63-.69.71.71 1.41 1.56 2.61.04.06.02.12-.07.2-.26.32a.37.37 0 0 1-.44-.03q-2.5-2.18-1.48-4.43.29-.63.97-.72.55-.07.94-.44.85-.78 1.22.31.47 1.37 1.54 2.52.59.65-.27.77-.51.06-.59.89-.04.34-.01.68.09 1.07.25 2.07.21 1.28.95.22l.76-1.08q.27-.38.6-.05.13.14.16.32.13.72-.58.93-.24.07-.39.27-.37.53.26.65l2.42.46a.62.62 0 0 0 .73-.66q-.06-.71-.59-1.21-.38-.36-.44-.9l-.41-3.62q-.06-.47-.49-.67-.23-.1-.41.02-.87.54-.57-.44.24-.78-.51-1.14-3.77-1.79-7.87-3.43a1.33 1.29 46 0 0-.9-.03q-1.67.57-2.17 2.08-.14-2.77.76-5.16.06.44.32.5a.24.24 0 0 0 .29-.28q-.05-.29-.38-.4-.17-.64.12-1.36.81 1 1.77 1.38.47.2.88-.12l3.39-2.65q.28.11.51.41m-.17 9.97q.16-.15.05-.39-.12-.29-.37-.1-.16.13-.14.32a.27.27 0 0 0 .46.17m-3.108 8.386a1.15.47 53.6 0 0-.304-1.205 1.15.47 53.6 0 0-1.06-.647 1.15.47 53.6 0 0 .304 1.205 1.15.47 53.6 0 0 1.06.647m3.408-.176q.27-.01.48-.17.2-.16-.02-.28-.05-.03-.1-.03-.33-.06-.61.11-.7.41-1.44.37-.5-.02-.43.47l.19 1.31q.13.91.76.25.51-.54.48-1.31a.7.7 0 0 1 .69-.72m5.77 1.63q-.4-.07-.6-.42-.59-.99-1.71-.99-.88 0-.17.53l2.72 2.05q.82.61 1.22-.33.28-.64.09-1.35-.14-.5-.63-.33-.25.08-.27.34-.05.61-.65.5"/><path fill="#fffeff" d="m306.76 175.76.38.3q1.07 3.25 2.59 5.46 1.32 1.9-.85 1.1-2.49-.92-4.95-2.78a.95.94-42.6 0 1 .07-1.55q1.88-1.19 2.76-2.53M299.86 178.28q.12-.09.23-.18.33.11.38.4a.24.24 0 0 1-.29.28q-.26-.06-.32-.5M298.99 186.14l.11-2.7q.5-1.51 2.17-2.08a1.33 1.29 46 0 1 .9.03q4.1 1.64 7.87 3.43.75.36.51 1.14-.3.98.57.44.18-.12.41-.02.43.2.49.67l.41 3.62q.06.54.44.9.53.5.59 1.21a.62.62 0 0 1-.73.66l-2.42-.46q-.63-.12-.26-.65.15-.2.39-.27.71-.21.58-.93-.03-.18-.16-.32-.33-.33-.6.05l-.76 1.08q-.74 1.06-.95-.22-.16-1-.25-2.07-.03-.34.01-.68.08-.83.59-.89.86-.12.27-.77-1.07-1.15-1.54-2.52-.37-1.09-1.22-.31-.39.37-.94.44-.68.09-.97.72-1.02 2.25 1.48 4.43a.37.37 0 0 0 .44.03q.19-.12.26-.32.02-.06-.02-.12-.85-1.2-1.56-2.61-.68-1.34.69-.71c1.23.56 2.4 2.04 1.96 3.47q-.21.7.18 1.33a.64.64 0 0 1-.44.97q-1.19.18-2.55-.2-.71-.19-.96-.88l-1.57-4.28q-.2-.55.26-.91.14-.1.15-.28.01-.43-.4-.31-1.26.37-1.49-1.01-.12-.72-.7-1.13-.13-.09-.3-.1-.67-.05-.39.56l3.08 6.59q.45.98-.5.49-1.57-.82-1.21-2.23.13-.51-.27-.85zm4.63-3.04c-.37-.08-1.04-.14-1.44-.17q-.51-.03-.37.46.21.73 1.04.73.79.01.97-.71a.26.25 13.2 0 0-.2-.31"/><path d="M302.18 182.93c.4.03 1.07.09 1.44.17a.26.25 13.2 0 1 .2.31q-.18.72-.97.71-.83 0-1.04-.73-.14-.49.37-.46"/><path fill="#fffeff" d="M306.59 185.73a.27.27 0 0 1-.46-.17q-.02-.19.14-.32.25-.19.37.1.11.24-.05.39M303.75 196.94q-2.07-1.06-4.27-1.31-.53-.06-.63.46l-.94 4.94q-.41.41-.97-.03l1.34-9.76q1.25-.77 2.17.6.46.68 1.72 3.51.2.46.71.44.15-.01.25-.14.45-.59.71.1.19.53-.09 1.19"/><ellipse fill="#fffeff" rx="1.15" ry=".47" transform="rotate(53.6 -39.826 396.316)"/><path fill="#fffeff" d="M306.89 193.94a.7.7 0 0 0-.69.72q.03.77-.48 1.31-.63.66-.76-.25l-.19-1.31q-.07-.49.43-.47.74.04 1.44-.37.28-.17.61-.11.05 0 .1.03.22.12.02.28-.21.16-.48.17M313.31 195.07q.02-.26.27-.34.49-.17.63.33.19.71-.09 1.35-.4.94-1.22.33l-2.72-2.05q-.71-.53.17-.53 1.12 0 1.71.99.2.35.6.42.6.11.65-.5M310.9 199.28l-4.64-1.94 1.86-1.32q.72-.51 1.36.09 2.16 2.01 1.42 3.17"/><path d="M297.91 201.03q.01.64.29 1.2-.86.02-1.29.63a.51.51 0 0 0 .33.8l2.71.48.33.35q-.11.83.33 1.53.4.65-.36.64-.16 0-.29-.09-.44-.29-.89-.04-1.2.64-1.74 1.98-.26.63.42.68.51.04.98.29.81.44-.1.6-1.94.35-3.95-.21-.05-.26.35-.94 1.07-.89 2.48-1.65.69-.37.8-1.28.06-.48-.39-.68-1.14-.51-1.46-1.85l.48-2.47q.56.44.97.03"/><path fill="#fffeff" d="m298.2 202.23 1.75 1.91-2.71-.48a.51.51 0 0 1-.33-.8q.43-.61 1.29-.63M295.03 208.93l1.43-5.46q.32 1.34 1.46 1.85.45.2.39.68-.11.91-.8 1.28-1.41.76-2.48 1.65"/><path fill="#fffeff" d="M303.03 209.42q-1.28.03-2.37-.14-.17-.02-.34.04-.19.07-.22.27-.07.41.33.31.51-.12.96.07.41.17.47.61.31 1.99-.95 2.7-.43.24-.83-.04l-1.95-1.36q-1.19-.83-.48.43.59 1.04 1.66 1.6 1.03.53.21 1.34l-.24.24q-.91.9-1.96.18-1.24-.86-2.44-1.74-.14-.1-.24.04-.07.1.03.17 1.69 1.23 3.13 2.77.51.55-.02 1.09l-1.78 1.82a.6.6 0 0 1-.98-.19q-.62-1.48-2.16-2.95l1.82-6.81q2.01.56 3.95.21.91-.16.1-.6-.47-.25-.98-.29-.68-.05-.42-.68.54-1.34 1.74-1.98.45-.25.89.04.13.09.29.09.76.01.36-.64-.44-.7-.33-1.53 2.02 2.23 2.75 4.93"/><path d="M303.03 209.42q.73 1.18.63 2.22-.37-.43-1.32.38-.41.34-.41.87-.01.72-.32 1.32-.25.49.07.93.68.93.82 1.98-.71-.65-1.38-.69-.96-.06-.34.68.43.5 1.13.78.46.18.64-.28.08-.21-.05-.49.52-.02.65.63a1.01 1-82.9 0 1-1.42 1.11l-.78-.37q-.54-.26-1.03.08-.44.3-.95.12-.54-.19-.82.32l-.43.78q-.82.22-.58.83.61 0 .58-.83 1 .15 1.51 1.2.22.46.72.56l4.98 1.03q.16.6-.06 1.14l-5.62-1.06-5.4-2.99q-.89-.87-1.23-2.44.41-.33.24-.55 1.54 1.47 2.16 2.95a.6.6 0 0 0 .98.19l1.78-1.82q.53-.54.02-1.09-1.44-1.54-3.13-2.77-.1-.07-.03-.17.1-.14.24-.04 1.2.88 2.44 1.74 1.05.72 1.96-.18l.24-.24q.82-.81-.21-1.34-1.07-.56-1.66-1.6-.71-1.26.48-.43l1.95 1.36q.4.28.83.04 1.26-.71.95-2.7-.06-.44-.47-.61-.45-.19-.96-.07-.4.1-.33-.31.03-.2.22-.27.17-.06.34-.04 1.09.17 2.37.14"/><path fill="#fffeff" d="M303.66 211.64q1.19 3.27 1.11 6.38-.43.75.1 1.73l.06 2.83-4.98-1.03q-.5-.1-.72-.56-.51-1.05-1.51-1.2l.43-.78q.28-.51.82-.32.51.18.95-.12.49-.34 1.03-.08l.78.37a1.01 1-82.9 0 0 1.42-1.11q-.13-.65-.65-.63-.14-1.05-.82-1.98-.32-.44-.07-.93.31-.6.32-1.32 0-.53.41-.87.95-.81 1.32-.38"/><path fill="#fffeff" d="M302.5 217.12q.13.28.05.49-.18.46-.64.28-.7-.28-1.13-.78-.62-.74.34-.68.67.04 1.38.69M292.62 217.23q.34 1.57 1.23 2.44-1.88.69-1.46 4.1l-.02 1.19-.15 2.29a1.15 1.14-56.7 0 0 .13.64l1.62 3.11q-.99 1.02-2.91-.18l.31-3.86q.12-.46-.03-.92l-.01-1.32.13-1.18z"/><path d="M304.77 218.02q.41.83.1 1.73-.53-.98-.1-1.73"/><path fill="#fffeff" d="M297.72 219.79q.03.83-.58.83-.24-.61.58-.83M304.87 223.72l-.17 1.8q-.96 1.22-1.84 1.01l-3.61-3.87z"/><path d="m291.46 223.54-.13 1.18q-.09-.67.13-1.18M292.37 224.96l.02-1.19zM304.7 225.52q.26 1.1-.39 1.81-.46.49-.91.27-.44-.22-.54-1.07.88.21 1.84-1.01M291.37 226.96q-.16-.45-.03-.92.15.46.03.92M293.97 231l.05 1.02q-.69.64.06 1.42.24.26.61.26.36.76.25 1.59-.78-.32-1.32-.1-.53.22-.2.69.77 1.11 2.05 1.39.06.4-.21.79-2.05-.71-3.07-1.96-.44-.53-.51.15-.04.34.25.49.18.1.18.31 0 .17-.09.31-.27.46-.7.15l-.93-.67a.61.6-47.3 0 1-.03-.96q.68-.58.39-1.47-.23-.69.49-.57.56.09 1.06.58.69.67.55-.29-.21-1.48-2.03-2.43.18.05.24-.88 1.92 1.2 2.91.18"/><path fill="#fffeff" d="M290.82 231.7q1.82.95 2.03 2.43.14.96-.55.29-.5-.49-1.06-.58-.72-.12-.49.57.29.89-.39 1.47a.61.6-47.3 0 0 .03.96l.93.67q.43.31.7-.15.09-.14.09-.31 0-.21-.18-.31-.29-.15-.25-.49.07-.68.51-.15 1.02 1.25 3.07 1.96l.35 1.18.01.97-.05 2.68-2.97-2.18q-.23-.17-.2-.47.02-.19.14-.3.65-.53-.23-.79-1.55-.45-3.02-.97zM294.02 232.02q.5.81.67 1.68-.37 0-.61-.26-.75-.78-.06-1.42"/><path fill="#fffeff" d="m294.94 235.29.53 1.98q-1.28-.28-2.05-1.39-.33-.47.2-.69.54-.22 1.32.1"/><path d="M295.57 242.89q.21.29-.08 1.07-2.12-1.05-3.68-2.88a.28.27-48.9 0 0-.45.04l-.16.25a.95.94-45.8 0 0 .01.99q1.3 2.01 2.46 4.26c.24.46.68.74 1.18.82q.09.62-.36 1.03a.78.78 0 0 1-1.27-.35q-1.08-3.6-3.57-6.4.79-.91-.79-2.12l.43-1.42q1.47.52 3.02.97.88.26.23.79-.12.11-.14.3-.03.3.2.47zM295.62 240.21l-.01-.97z"/><path fill="#fffeff" d="M288.86 239.6q1.58 1.21.79 2.12l-.67.22-.84.17q-.27-1.61.72-2.51M295.49 243.96q.28 1.58-.64 3.48c-.5-.08-.94-.36-1.18-.82q-1.16-2.25-2.46-4.26a.95.94-45.8 0 1-.01-.99l.16-.25a.28.27-48.9 0 1 .45-.04q1.56 1.83 3.68 2.88"/><path d="M288.98 241.94q.15.59-.21 1.24l-.84-.55q.01-.29.21-.52z"/><path fill="#fffeff" d="m287.93 242.63.84.55q.04 1.3-.44 2.6-.17.46.12.85l1.45 1.89-3.66.06.83-2.33.06-.95q.07-1.47.8-2.67"/><path d="m287.13 245.3-.06.95zM290.1 249.97q-.61 1.37.56 2.04.32.23.24.76-.4.69-.91.94a.73.73 0 0 1-1.05-.54q-.37-2.32-2.59-3.34l-.11-1.25 3.66-.06zm-1.78-.23q.25-.06-.04-.31a.12.11 21.5 0 0-.19.08q-.01.29.23.23"/><path fill="#fffeff" d="M288.32 249.74q-.24.06-.23-.23a.12.11 21.5 0 1 .19-.08q.29.25.04.31M290.9 252.77q.29 1.63-.26 2.39-.32.44-.74.09-2.58-2.2-3.55-5.42 2.22 1.02 2.59 3.34a.73.73 0 0 0 1.05.54q.51-.25.91-.94M290.1 249.97q.6.92.56 2.04-1.17-.67-.56-2.04"/></svg>