<?xml version="1.0" encoding="UTF-8" standalone="no"?>
<!DOCTYPE svg PUBLIC "-//W3C//DTD SVG 1.1//EN" "http://www.w3.org/Graphics/SVG/1.1/DTD/svg11.dtd">
<svg xmlns="http://www.w3.org/2000/svg" version="1.1" viewBox="0.00 0.00 1592.00 1592.00" width="1592.00" height="1592.00">
<g stroke-width="2.00" fill="none" stroke-linecap="butt">
<path stroke="#037009" vector-effect="non-scaling-stroke" d="
  M 574.40 1291.23
  L 578.44 1291.48
  Q 579.01 1291.51 579.00 1292.03
  L 578.95 1294.80
  Q 578.94 1295.77 580.04 1295.77
  L 586.52 1295.78
  Q 587.52 1295.78 587.51 1294.80
  L 587.43 1283.79
  Q 587.42 1283.28 587.95 1283.23
  Q 588.48 1283.19 590.74 1283.24
  Q 591.35 1283.25 591.51 1282.55"
/>
<path stroke="#0de216" vector-effect="non-scaling-stroke" d="
  M 591.51 1282.55
  Q 591.86 1282.94 591.96 1283.20"
/>
<path stroke="#037009" vector-effect="non-scaling-stroke" d="
  M 591.96 1283.20
  Q 591.08 1284.91 591.71 1287.01
  Q 591.85 1287.45 592.28 1287.45
  L 595.24 1287.44
  Q 595.80 1287.44 595.80 1288.00
  L 595.76 1303.50
  Q 595.76 1304.00 596.25 1304.00
  L 603.23 1304.03
  Q 603.93 1304.03 603.94 1304.73
  L 604.07 1311.86
  Q 604.08 1312.65 604.87 1312.60
  L 607.28 1312.43
  Q 608.08 1312.38 608.13 1311.58
  L 608.31 1308.67
  Q 608.35 1308.17 608.85 1308.17
  L 611.77 1308.18
  A 0.67 0.67 0.0 0 0 612.44 1307.52
  L 612.50 1304.69
  Q 612.51 1304.10 611.94 1304.08
  L 608.79 1303.95
  Q 608.16 1303.93 608.17 1303.29
  L 608.22 1300.55
  Q 608.23 1300.08 608.70 1300.06
  L 611.89 1299.93
  Q 612.45 1299.91 612.45 1299.36
  L 612.45 1296.26
  A 0.53 0.53 0.0 0 1 612.97 1295.73
  L 620.03 1295.57
  Q 620.64 1295.56 620.65 1294.96
  L 620.70 1292.29
  Q 620.71 1291.55 621.25 1291.53
  L 624.25 1291.40
  A 0.83 0.60 86.2 0 1 624.90 1292.17
  L 625.12 1294.98
  Q 625.18 1295.73 625.96 1295.72
  L 628.23 1295.69
  Q 628.91 1295.68 628.93 1294.97
  L 629.07 1287.98
  Q 629.08 1287.53 629.53 1287.50
  L 632.26 1287.31
  A 1.04 1.04 0.0 0 0 633.20 1286.10
  Q 632.68 1283.09 636.03 1283.11
  A 1.25 1.19 -88.4 0 0 637.22 1281.92
  L 637.49 1276.12
  Q 637.53 1275.17 636.63 1275.09
  L 634.17 1274.88
  Q 633.16 1274.80 633.18 1273.75
  L 633.21 1271.55
  A 0.92 0.90 -89.7 0 1 634.11 1270.65
  L 636.81 1270.64
  A 0.62 0.62 0.0 0 0 637.43 1270.00
  L 637.38 1267.36
  Q 637.36 1266.71 636.73 1266.72
  L 629.75 1266.78
  Q 629.16 1266.78 629.10 1267.39
  L 628.84 1270.25
  Q 628.79 1270.81 628.24 1270.80
  L 625.75 1270.79
  Q 625.19 1270.78 625.15 1270.24
  L 624.91 1267.09
  A 0.57 0.56 88.6 0 0 624.37 1266.56
  L 621.25 1266.48
  Q 620.78 1266.47 620.78 1266.00
  L 620.72 1250.65
  Q 620.72 1250.03 620.14 1250.03
  L 617.03 1250.02
  Q 616.52 1250.01 616.53 1250.51
  L 616.56 1253.32
  Q 616.57 1253.81 616.03 1253.93
  Q 611.83 1254.87 612.25 1251.76"
/>
<path stroke="#037009" vector-effect="non-scaling-stroke" d="
  M 618.76 1245.67
  Q 619.46 1245.81 620.04 1245.67
  Q 620.58 1245.54 620.70 1245.06
  Q 620.81 1244.62 620.70 1244.03"
/>
<path stroke="#037009" vector-effect="non-scaling-stroke" d="
  M 623.69 1241.31
  L 628.23 1241.45
  Q 628.76 1241.47 628.90 1240.96
  Q 629.48 1238.81 628.29 1237.10"
/>
<path stroke="#037009" vector-effect="non-scaling-stroke" d="
  M 641.19 1225.93
  L 641.59 1228.35
  Q 641.68 1228.91 642.19 1228.94
  L 645.19 1229.11
  Q 645.72 1229.14 645.74 1229.70
  L 645.86 1232.52
  Q 645.89 1233.14 646.57 1233.16
  L 649.23 1233.24
  Q 649.96 1233.26 649.97 1232.51
  L 650.03 1225.83
  Q 650.04 1224.99 650.88 1224.99
  L 657.40 1225.02
  Q 658.35 1225.03 658.31 1225.89
  L 658.21 1228.26
  Q 658.18 1229.00 658.99 1229.00
  L 665.65 1229.01
  Q 666.62 1229.01 666.56 1228.12
  L 666.42 1225.68
  Q 666.39 1225.18 666.97 1225.08
  Q 668.47 1224.81 670.01 1225.18"
/>
<path stroke="#0ce618" vector-effect="non-scaling-stroke" d="
  M 670.01 1225.18
  Q 671.40 1233.38 671.31 1241.29"
/>
<path stroke="#037009" vector-effect="non-scaling-stroke" d="
  M 671.31 1241.29
  L 670.67 1257.74
  Q 670.65 1258.22 670.18 1258.23
  L 667.11 1258.31
  Q 666.52 1258.33 666.52 1258.90
  L 666.53 1262.01
  Q 666.53 1262.49 667.01 1262.49
  L 678.50 1262.50
  Q 678.99 1262.50 678.99 1263.00
  L 679.00 1270.28
  Q 679.00 1270.81 679.53 1270.80
  L 682.75 1270.73
  A 0.52 0.50 0.0 0 1 683.28 1271.24
  L 683.20 1274.35
  Q 683.19 1274.97 683.85 1274.98
  L 686.89 1274.99
  Q 687.51 1274.99 687.51 1274.37
  L 687.47 1271.25
  Q 687.46 1270.70 688.01 1270.71
  L 690.79 1270.78
  Q 691.52 1270.80 691.52 1271.53
  L 691.50 1278.47
  Q 691.49 1278.94 691.83 1278.95
  L 695.40 1279.03
  Q 695.78 1279.03 695.78 1279.53
  L 695.78 1282.75
  Q 695.78 1283.27 695.25 1283.27
  L 683.76 1283.24
  Q 683.26 1283.23 683.26 1283.74
  L 683.26 1287.03
  Q 683.26 1287.58 682.74 1287.56
  L 679.76 1287.41
  A 0.78 0.71 -88.7 0 0 679.01 1288.19
  L 679.00 1299.38
  Q 679.00 1300.02 679.64 1300.03
  L 682.68 1300.05
  Q 683.28 1300.05 683.28 1300.66
  L 683.26 1307.72
  Q 683.25 1308.18 683.71 1308.20
  L 687.03 1308.32
  Q 687.47 1308.34 687.47 1308.79
  L 687.50 1311.99
  Q 687.51 1312.52 686.99 1312.53
  L 683.96 1312.57
  A 0.65 0.65 0.0 0 0 683.32 1313.24
  L 683.39 1315.81
  Q 683.41 1316.45 684.05 1316.46
  L 686.98 1316.46
  Q 687.48 1316.46 687.48 1316.97
  L 687.53 1320.03
  Q 687.54 1320.75 688.27 1320.74
  L 690.97 1320.74
  Q 691.44 1320.74 691.44 1320.28
  L 691.47 1316.99
  Q 691.47 1316.44 692.02 1316.45
  L 695.21 1316.48
  Q 695.66 1316.48 695.67 1316.04
  L 695.72 1313.00
  Q 695.72 1312.45 696.26 1312.44
  L 699.35 1312.38
  Q 699.98 1312.37 699.98 1313.01
  L 699.98 1316.00
  Q 699.98 1316.65 699.36 1316.62
  L 696.26 1316.48
  Q 695.78 1316.45 695.79 1316.96
  L 695.80 1324.35
  A 0.64 0.63 89.6 0 1 695.17 1324.99
  L 691.97 1325.04
  Q 691.46 1325.04 691.48 1325.55
  L 691.56 1328.46
  A 0.50 0.49 -1.3 0 1 691.06 1328.97
  L 688.01 1329.02
  Q 687.57 1329.03 687.57 1329.48
  L 687.45 1336.96
  Q 687.44 1337.60 686.82 1337.60
  L 684.10 1337.59
  Q 683.45 1337.59 683.43 1338.20
  L 683.20 1345.33
  Q 683.18 1345.82 682.71 1345.81
  L 679.66 1345.73
  Q 679.05 1345.71 679.03 1346.32
  L 678.96 1349.47
  Q 678.95 1350.01 679.47 1350.01
  L 686.78 1350.00
  Q 687.53 1350.00 687.53 1350.77
  L 687.49 1357.72
  Q 687.48 1358.22 687.96 1358.23
  L 690.89 1358.24
  Q 691.50 1358.24 691.50 1358.86
  L 691.50 1365.68
  Q 691.51 1366.54 692.42 1366.53
  L 699.15 1366.47
  Q 700.07 1366.46 700.05 1365.68
  L 700.01 1363.07
  Q 700.00 1362.44 700.66 1362.45
  L 703.50 1362.49
  Q 703.99 1362.50 704.00 1362.01
  L 704.04 1358.59
  Q 704.04 1358.21 704.42 1358.22
  L 708.03 1358.27
  Q 708.25 1358.27 708.25 1358.51
  L 708.27 1362.02
  Q 708.27 1362.58 707.73 1362.56
  L 704.26 1362.46
  A 0.35 0.35 0.0 0 0 703.90 1362.82
  L 704.02 1366.04
  Q 704.04 1366.55 704.53 1366.53
  L 707.38 1366.43
  Q 708.25 1366.40 708.25 1367.36
  L 708.28 1374.14
  Q 708.29 1375.03 707.38 1375.02
  L 704.51 1374.98
  Q 703.97 1374.97 703.98 1375.50
  L 704.01 1378.23
  Q 704.01 1379.00 703.29 1379.00
  L 700.61 1379.00
  Q 700.05 1379.00 700.03 1379.60
  L 699.91 1386.86
  A 0.74 0.70 -88.8 0 1 699.20 1387.59
  L 696.48 1387.52
  Q 695.94 1387.50 695.92 1388.07
  L 695.65 1395.22
  A 0.64 0.62 -88.5 0 1 695.03 1395.84
  L 692.67 1395.80
  Q 691.74 1395.78 691.71 1396.79
  L 691.48 1402.93
  Q 691.45 1403.93 692.41 1403.98
  L 694.90 1404.09
  Q 695.78 1404.13 695.76 1405.03
  L 695.70 1407.50
  Q 695.68 1408.20 695.00 1408.23
  L 692.14 1408.37
  A 0.63 0.62 -1.5 0 0 691.55 1408.99
  L 691.57 1415.76
  Q 691.57 1416.45 692.27 1416.45
  L 695.23 1416.46
  A 0.53 0.53 0.0 0 1 695.76 1416.98
  L 695.79 1420.25
  Q 695.80 1420.71 696.25 1420.71
  L 699.23 1420.73
  Q 699.95 1420.73 699.96 1420.01
  L 700.08 1413.28
  A 0.85 0.84 -88.9 0 1 700.94 1412.44
  L 702.98 1412.48
  Q 703.73 1412.50 703.81 1413.23
  L 704.08 1416.02
  A 0.64 0.64 0.0 0 0 704.74 1416.59
  L 707.44 1416.51
  Q 708.17 1416.49 708.20 1417.20
  L 708.32 1420.04
  Q 708.35 1420.74 709.02 1420.73
  L 711.32 1420.73
  A 1.18 1.11 88.2 0 1 712.44 1421.84
  L 712.57 1424.25
  Q 712.60 1424.74 713.10 1424.76
  Q 721.50 1425.15 728.38 1424.94
  Q 729.02 1424.92 729.01 1424.22
  L 728.94 1421.64
  Q 728.92 1420.82 728.11 1420.80
  L 725.93 1420.77
  Q 725.04 1420.76 725.05 1419.85
  L 725.13 1413.26
  Q 725.14 1412.43 725.98 1412.44
  L 728.23 1412.48
  Q 728.70 1412.48 728.71 1412.02
  L 729.00 1400.78
  A 0.93 0.91 -87.4 0 1 729.97 1399.88
  L 732.46 1400.05
  Q 733.35 1400.11 733.34 1400.96
  L 733.33 1411.79
  Q 733.33 1412.50 734.04 1412.48
  L 740.49 1412.27
  Q 741.30 1412.24 741.36 1411.46
  L 741.57 1408.79
  Q 741.62 1408.14 742.24 1408.17
  L 745.11 1408.27
  Q 745.74 1408.30 745.74 1408.89
  L 745.67 1415.93
  Q 745.66 1416.51 745.05 1416.55
  L 742.26 1416.69
  A 0.58 0.56 -1.1 0 0 741.72 1417.24
  L 741.52 1428.34
  Q 741.51 1428.93 742.10 1428.96
  L 745.20 1429.09
  Q 745.77 1429.11 745.77 1429.69
  L 745.76 1432.53
  Q 745.76 1433.33 745.00 1433.31
  L 742.04 1433.24
  A 0.49 0.48 -89.1 0 0 741.54 1433.72
  L 741.47 1445.08
  Q 741.47 1445.70 742.09 1445.70
  L 745.21 1445.70
  A 0.52 0.52 0.0 0 1 745.73 1446.21
  L 745.82 1449.20
  Q 745.84 1449.99 745.04 1449.99
  L 737.98 1450.02
  A 0.50 0.49 -0.1 0 0 737.48 1450.52
  L 737.48 1453.45
  Q 737.48 1453.95 737.96 1453.96
  L 740.93 1454.02
  Q 741.55 1454.03 741.54 1454.67
  L 741.52 1457.73
  Q 741.51 1458.20 741.97 1458.20
  L 745.01 1458.21
  Q 745.77 1458.22 745.76 1459.01
  L 745.76 1461.75
  A 0.77 0.76 -1.2 0 1 745.03 1462.50
  L 742.30 1462.62
  Q 741.62 1462.65 741.60 1463.28
  L 741.43 1470.27
  Q 741.42 1470.72 740.99 1470.73
  L 738.36 1470.85
  A 0.73 0.65 90.0 0 0 737.74 1471.54
  L 737.52 1478.02
  Q 737.48 1478.97 738.41 1478.99
  Q 744.25 1479.10 745.29 1479.04
  Q 746.00 1479.00 745.80 1482.15
  Q 745.75 1483.06 746.71 1483.11
  L 748.94 1483.23
  A 0.82 0.57 3.6 0 0 749.78 1482.72
  L 750.03 1479.74
  Q 750.08 1479.06 750.75 1479.07
  L 753.08 1479.12
  Q 753.80 1479.14 753.84 1479.85
  Q 754.17 1485.90 753.87 1495.39
  A 0.52 0.52 0.0 0 1 753.34 1495.89
  L 750.73 1495.83
  Q 750.01 1495.81 750.01 1496.55
  L 750.01 1499.08
  Q 750.01 1499.93 750.85 1499.94
  L 753.05 1499.97
  A 0.83 0.78 89.4 0 1 753.82 1500.78
  L 754.18 1511.86
  Q 754.20 1512.52 754.87 1512.49
  L 757.38 1512.37
  Q 758.01 1512.34 758.10 1511.72
  L 758.49 1508.86
  Q 758.57 1508.28 759.15 1508.27
  L 761.76 1508.18
  A 0.66 0.55 -89.3 0 0 762.30 1507.55
  L 762.59 1500.59
  Q 762.61 1500.05 763.18 1499.99
  L 765.71 1499.73
  Q 766.27 1499.67 766.29 1499.16
  L 766.61 1492.25
  Q 766.64 1491.63 767.34 1491.58
  L 769.95 1491.38
  A 0.65 0.64 -3.6 0 1 770.65 1491.99
  L 770.80 1494.95
  Q 770.84 1495.75 771.64 1495.75
  L 774.00 1495.76
  A 1.07 1.06 -0.1 0 0 775.07 1494.69
  L 774.99 1479.76
  Q 774.99 1479.04 774.21 1479.04
  L 771.54 1479.05
  A 0.71 0.70 0.8 0 0 770.83 1479.73
  L 770.75 1482.51
  A 0.76 0.76 0.0 0 1 770.01 1483.25
  L 767.52 1483.32
  Q 766.43 1483.35 766.45 1482.25
  L 766.59 1476.35
  Q 766.61 1475.23 767.71 1475.09
  L 770.21 1474.77
  Q 770.65 1474.71 770.67 1474.29
  L 770.78 1471.49
  Q 770.81 1470.78 771.52 1470.77
  L 774.49 1470.71
  Q 774.94 1470.70 774.95 1470.26
  L 775.05 1467.08
  Q 775.06 1466.49 775.66 1466.48
  L 778.32 1466.44
  Q 778.84 1466.43 778.89 1465.91
  L 779.16 1463.26
  Q 779.24 1462.51 779.99 1462.50
  L 782.44 1462.45
  Q 783.20 1462.43 783.21 1463.17
  L 783.25 1465.60
  Q 783.26 1466.42 784.15 1466.41
  L 786.54 1466.39
  A 0.89 0.85 89.9 0 0 787.39 1465.50
  L 787.50 1446.71
  Q 787.51 1445.73 788.63 1445.72
  L 790.60 1445.70
  Q 791.51 1445.69 791.50 1446.60
  L 791.50 1448.86
  Q 791.50 1449.93 792.64 1449.94
  L 798.82 1450.02
  Q 799.95 1450.03 799.98 1448.98
  L 800.05 1446.25
  Q 800.06 1445.56 800.75 1445.58
  L 803.23 1445.66
  A 0.71 0.69 -0.4 0 1 803.92 1446.32
  L 804.05 1449.12
  Q 804.10 1450.12 805.13 1450.10
  L 807.21 1450.06
  Q 808.19 1450.04 808.19 1449.06
  L 808.19 1442.12
  Q 808.19 1441.52 807.62 1441.52
  L 804.73 1441.56
  A 0.66 0.65 89.6 0 1 804.07 1440.90
  L 804.05 1425.64
  Q 804.05 1425.04 804.59 1425.03
  L 807.63 1424.97
  A 0.59 0.58 89.0 0 0 808.19 1424.37
  L 808.09 1417.24
  Q 808.08 1416.56 807.42 1416.57
  L 804.73 1416.60
  Q 804.11 1416.61 804.09 1415.96
  L 803.87 1408.93
  A 0.67 0.67 0.0 0 0 803.20 1408.28
  L 800.72 1408.25
  Q 800.12 1408.24 800.09 1407.61
  L 799.99 1404.84
  A 0.99 0.82 -1.5 0 0 798.99 1404.05
  L 796.68 1404.10
  Q 795.85 1404.11 795.83 1404.99
  L 795.79 1407.47
  Q 795.77 1408.18 796.48 1408.18
  L 799.11 1408.15
  Q 800.07 1408.14 800.05 1409.11
  L 799.99 1411.68
  Q 799.97 1412.61 799.07 1412.62
  L 796.49 1412.68
  A 0.66 0.64 0.3 0 0 795.84 1413.30
  L 795.76 1415.62
  A 0.95 0.90 -0.1 0 1 794.85 1416.49
  L 792.44 1416.57
  Q 791.49 1416.61 791.46 1415.84
  L 791.38 1413.49
  A 0.90 0.63 89.5 0 0 790.77 1412.63
  L 788.21 1412.51
  A 0.79 0.79 0.0 0 1 787.45 1411.72
  L 787.46 1400.63
  Q 787.46 1400.06 786.88 1400.05
  L 779.62 1399.98
  Q 779.01 1399.98 779.01 1399.36
  L 778.97 1392.28
  Q 778.96 1391.53 779.70 1391.51
  L 790.42 1391.19
  Q 791.16 1391.16 791.21 1390.29
  L 791.32 1388.44
  Q 791.36 1387.60 790.45 1387.58
  L 788.52 1387.53
  A 1.01 0.99 -89.1 0 1 787.55 1386.51
  L 787.57 1384.32
  Q 787.57 1383.37 788.52 1383.29
  L 790.55 1383.14
  Q 791.38 1383.07 791.40 1382.24
  L 791.45 1380.11
  Q 791.47 1379.26 790.62 1379.18
  L 788.18 1378.95
  Q 787.62 1378.89 787.59 1378.33
  L 787.46 1375.29"
/>
<path stroke="#0de216" vector-effect="non-scaling-stroke" d="
  M 787.46 1375.29
  L 791.95 1374.72"
/>
<path stroke="#037009" vector-effect="non-scaling-stroke" d="
  M 791.95 1374.72
  L 795.19 1375.01
  Q 795.81 1375.07 795.83 1375.71
  L 795.92 1378.09
  A 0.89 0.84 90.0 0 0 796.73 1378.95
  L 798.90 1379.03
  Q 800.04 1379.07 800.03 1378.02
  L 799.98 1363.28
  Q 799.98 1362.59 799.29 1362.59
  L 796.51 1362.61
  Q 795.67 1362.61 795.68 1361.76
  L 795.70 1358.96
  Q 795.71 1358.10 796.55 1358.11
  L 803.44 1358.19
  A 0.51 0.51 0.0 0 1 803.95 1358.68
  L 804.03 1362.03
  A 0.46 0.45 -1.0 0 0 804.49 1362.47
  L 807.73 1362.44
  Q 808.27 1362.43 808.27 1362.98
  L 808.28 1365.90
  Q 808.28 1366.49 808.90 1366.48
  L 815.81 1366.34
  Q 816.45 1366.33 816.46 1365.69
  L 816.48 1363.26
  Q 816.49 1362.54 815.76 1362.54
  L 813.02 1362.56
  Q 812.46 1362.57 812.46 1362.01
  L 812.45 1358.74
  Q 812.45 1358.19 813.01 1358.20
  L 820.25 1358.22
  A 0.49 0.45 0.4 0 0 820.74 1357.77
  L 820.78 1354.58
  Q 820.79 1354.08 820.30 1354.07
  L 816.96 1354.01
  Q 816.43 1354.01 816.43 1353.47
  L 816.41 1350.64
  Q 816.40 1349.95 817.08 1349.95
  L 820.06 1349.94
  Q 820.77 1349.94 820.75 1349.23
  L 820.69 1346.29
  Q 820.68 1345.82 820.27 1345.82
  L 817.01 1345.81
  Q 816.47 1345.81 816.47 1345.26
  L 816.37 1333.77
  Q 816.36 1333.14 816.99 1333.14
  L 820.24 1333.13
  Q 820.90 1333.13 820.89 1333.81
  L 820.81 1340.87
  Q 820.80 1341.45 821.39 1341.45
  L 824.46 1341.44
  Q 824.96 1341.44 824.97 1341.95
  L 825.04 1345.28
  Q 825.05 1345.75 825.53 1345.75
  L 832.76 1345.66
  A 0.58 0.58 0.0 0 1 833.34 1346.25
  L 833.26 1353.49
  A 0.49 0.45 -89.6 0 0 833.71 1353.98
  L 840.99 1354.00
  Q 841.44 1354.00 841.44 1353.53
  L 841.69 1338.01
  Q 841.70 1337.49 842.25 1337.48
  L 844.74 1337.43
  Q 845.62 1337.42 845.64 1336.51
  L 845.74 1329.56
  Q 845.75 1329.08 846.20 1329.07
  L 849.35 1329.02
  A 0.64 0.64 0.0 0 0 849.98 1328.39
  L 850.04 1316.95
  Q 850.04 1316.45 850.55 1316.45
  L 853.38 1316.49
  Q 854.02 1316.50 854.02 1315.87
  L 853.99 1313.10
  Q 853.98 1312.44 853.39 1312.47
  L 850.56 1312.59
  A 0.65 0.50 88.3 0 1 850.03 1311.95
  L 849.96 1308.97
  Q 849.95 1308.22 849.27 1308.23
  L 846.43 1308.27
  Q 845.76 1308.28 845.77 1308.99
  L 845.83 1311.97
  Q 845.84 1312.53 845.26 1312.53
  L 842.01 1312.56
  A 0.53 0.52 -89.7 0 1 841.48 1312.02
  L 841.57 1307.20"
/>
<path stroke="#037009" vector-effect="non-scaling-stroke" d="
  M 874.17 1299.70
  L 882.77 1300.09
  Q 883.28 1300.12 883.28 1300.61
  L 883.29 1311.91
  Q 883.29 1312.50 883.91 1312.51
  L 886.86 1312.53
  Q 887.49 1312.54 887.49 1311.90
  L 887.50 1304.51
  Q 887.50 1304.00 888.00 1304.00
  L 895.00 1303.97
  Q 895.71 1303.97 895.71 1303.26
  L 895.72 1300.92
  Q 895.72 1300.10 894.93 1300.06
  L 891.99 1299.90
  Q 891.37 1299.86 891.40 1299.24
  L 891.52 1296.52
  A 0.78 0.78 0.0 0 1 892.28 1295.77
  L 899.26 1295.64
  Q 899.89 1295.62 899.90 1296.25
  L 900.07 1303.31
  Q 900.09 1303.85 900.63 1303.95
  Q 901.31 1304.08 903.31 1304.08
  Q 903.84 1304.08 903.85 1304.55
  L 903.96 1307.35
  Q 904.00 1308.24 905.06 1308.24
  L 911.76 1308.24
  Q 912.50 1308.24 912.50 1307.47
  L 912.47 1285.57"
/>
<path stroke="#0a720d" vector-effect="non-scaling-stroke" d="
  M 834.78 1162.32
  Q 833.33 1162.31 833.19 1163.50
  Q 832.89 1165.98 834.16 1166.78"
/>
<path stroke="#0a720d" vector-effect="non-scaling-stroke" d="
  M 791.95 1374.72
  Q 791.51 1373.01 791.63 1371.53
  A 0.84 0.84 0.0 0 0 790.81 1370.62
  L 788.59 1370.59
  Q 787.69 1370.58 787.50 1371.51
  Q 787.19 1372.99 787.46 1375.29"
/>
<path stroke="#09760f" vector-effect="non-scaling-stroke" d="
  M 671.31 1241.29
  L 674.38 1241.49
  Q 674.90 1241.53 674.92 1241.08
  L 675.03 1238.09
  A 0.63 0.59 1.2 0 1 675.67 1237.53
  L 678.31 1237.55
  A 0.63 0.63 0.0 0 0 678.94 1236.92
  L 678.98 1234.00
  A 0.74 0.69 -89.3 0 0 678.29 1233.25
  L 675.47 1233.22
  Q 674.96 1233.22 674.96 1232.71
  L 674.97 1229.50
  Q 674.97 1228.98 675.51 1228.98
  L 682.25 1229.01
  Q 683.26 1229.02 683.26 1228.03
  L 683.26 1221.63
  Q 683.25 1220.68 682.40 1220.71
  L 679.54 1220.81
  Q 679.01 1220.83 679.00 1220.29
  L 678.93 1216.92
  Q 678.92 1216.44 678.43 1216.45
  L 675.51 1216.54
  Q 674.96 1216.55 674.96 1216.00
  L 674.97 1204.75
  Q 674.97 1204.04 674.25 1204.03
  L 671.48 1203.99
  Q 670.73 1203.98 670.73 1204.75
  L 670.79 1215.96
  Q 670.79 1216.46 670.29 1216.47
  L 666.97 1216.53
  Q 666.47 1216.54 666.47 1217.03
  L 666.50 1220.38
  Q 666.51 1220.77 666.89 1220.76
  L 670.19 1220.73
  Q 670.65 1220.73 670.74 1221.19
  Q 671.24 1223.93 670.01 1225.18"
/>
<path stroke="#0a720d" vector-effect="non-scaling-stroke" d="
  M 591.96 1283.20
  Q 593.76 1283.52 595.40 1283.26
  Q 595.90 1283.18 595.88 1282.68
  L 595.79 1279.49
  A 0.56 0.56 0.0 0 0 595.24 1278.95
  L 592.01 1278.93
  Q 591.46 1278.93 591.47 1279.47
  L 591.51 1282.55"
/>
<path stroke="#0a720d" vector-effect="non-scaling-stroke" d="
  M 695.7900 1266.9735
  A 0.56 0.56 0.0 0 0 695.2232 1266.4204
  L 691.9835 1266.4600
  A 0.56 0.56 0.0 0 0 691.4304 1267.0268
  L 691.4700 1270.2665
  A 0.56 0.56 0.0 0 0 692.0368 1270.8196
  L 695.2765 1270.7800
  A 0.56 0.56 0.0 0 0 695.8296 1270.2132
  L 695.7900 1266.9735"
/>
<path stroke="#0a720d" vector-effect="non-scaling-stroke" d="
  M 845.83 1325.65
  A 0.64 0.64 0.0 0 0 845.19 1325.01
  L 842.03 1325.01
  A 0.64 0.64 0.0 0 0 841.39 1325.65
  L 841.39 1328.39
  A 0.64 0.64 0.0 0 0 842.03 1329.03
  L 845.19 1329.03
  A 0.64 0.64 0.0 0 0 845.83 1328.39
  L 845.83 1325.65"
/>
<path stroke="#0a720d" vector-effect="non-scaling-stroke" d="
  M 787.5957 1413.4636
  A 0.98 0.98 0.0 0 0 786.6400 1412.4599
  L 784.2407 1412.4013
  A 0.98 0.98 0.0 0 0 783.2370 1413.3571
  L 783.1843 1415.5164
  A 0.98 0.98 0.0 0 0 784.1400 1416.5201
  L 786.5393 1416.5787
  A 0.98 0.98 0.0 0 0 787.5430 1415.6229
  L 787.5957 1413.4636"
/>
</g>
<path fill="#06e012" d="
  M 574.40 1291.23
  L 578.44 1291.48
  Q 579.01 1291.51 579.00 1292.03
  L 578.95 1294.80
  Q 578.94 1295.77 580.04 1295.77
  L 586.52 1295.78
  Q 587.52 1295.78 587.51 1294.80
  L 587.43 1283.79
  Q 587.42 1283.28 587.95 1283.23
  Q 588.48 1283.19 590.74 1283.24
  Q 591.35 1283.25 591.51 1282.55
  Q 591.86 1282.94 591.96 1283.20
  Q 591.08 1284.91 591.71 1287.01
  Q 591.85 1287.45 592.28 1287.45
  L 595.24 1287.44
  Q 595.80 1287.44 595.80 1288.00
  L 595.76 1303.50
  Q 595.76 1304.00 596.25 1304.00
  L 603.23 1304.03
  Q 603.93 1304.03 603.94 1304.73
  L 604.07 1311.86
  Q 604.08 1312.65 604.87 1312.60
  L 607.28 1312.43
  Q 608.08 1312.38 608.13 1311.58
  L 608.31 1308.67
  Q 608.35 1308.17 608.85 1308.17
  L 611.77 1308.18
  A 0.67 0.67 0.0 0 0 612.44 1307.52
  L 612.50 1304.69
  Q 612.51 1304.10 611.94 1304.08
  L 608.79 1303.95
  Q 608.16 1303.93 608.17 1303.29
  L 608.22 1300.55
  Q 608.23 1300.08 608.70 1300.06
  L 611.89 1299.93
  Q 612.45 1299.91 612.45 1299.36
  L 612.45 1296.26
  A 0.53 0.53 0.0 0 1 612.97 1295.73
  L 620.03 1295.57
  Q 620.64 1295.56 620.65 1294.96
  L 620.70 1292.29
  Q 620.71 1291.55 621.25 1291.53
  L 624.25 1291.40
  A 0.83 0.60 86.2 0 1 624.90 1292.17
  L 625.12 1294.98
  Q 625.18 1295.73 625.96 1295.72
  L 628.23 1295.69
  Q 628.91 1295.68 628.93 1294.97
  L 629.07 1287.98
  Q 629.08 1287.53 629.53 1287.50
  L 632.26 1287.31
  A 1.04 1.04 0.0 0 0 633.20 1286.10
  Q 632.68 1283.09 636.03 1283.11
  A 1.25 1.19 -88.4 0 0 637.22 1281.92
  L 637.49 1276.12
  Q 637.53 1275.17 636.63 1275.09
  L 634.17 1274.88
  Q 633.16 1274.80 633.18 1273.75
  L 633.21 1271.55
  A 0.92 0.90 -89.7 0 1 634.11 1270.65
  L 636.81 1270.64
  A 0.62 0.62 0.0 0 0 637.43 1270.00
  L 637.38 1267.36
  Q 637.36 1266.71 636.73 1266.72
  L 629.75 1266.78
  Q 629.16 1266.78 629.10 1267.39
  L 628.84 1270.25
  Q 628.79 1270.81 628.24 1270.80
  L 625.75 1270.79
  Q 625.19 1270.78 625.15 1270.24
  L 624.91 1267.09
  A 0.57 0.56 88.6 0 0 624.37 1266.56
  L 621.25 1266.48
  Q 620.78 1266.47 620.78 1266.00
  L 620.72 1250.65
  Q 620.72 1250.03 620.14 1250.03
  L 617.03 1250.02
  Q 616.52 1250.01 616.53 1250.51
  L 616.56 1253.32
  Q 616.57 1253.81 616.03 1253.93
  Q 611.83 1254.87 612.25 1251.76
  L 618.76 1245.67
  Q 619.46 1245.81 620.04 1245.67
  Q 620.58 1245.54 620.70 1245.06
  Q 620.81 1244.62 620.70 1244.03
  L 623.69 1241.31
  L 628.23 1241.45
  Q 628.76 1241.47 628.90 1240.96
  Q 629.48 1238.81 628.29 1237.10
  L 641.19 1225.93
  L 641.59 1228.35
  Q 641.68 1228.91 642.19 1228.94
  L 645.19 1229.11
  Q 645.72 1229.14 645.74 1229.70
  L 645.86 1232.52
  Q 645.89 1233.14 646.57 1233.16
  L 649.23 1233.24
  Q 649.96 1233.26 649.97 1232.51
  L 650.03 1225.83
  Q 650.04 1224.99 650.88 1224.99
  L 657.40 1225.02
  Q 658.35 1225.03 658.31 1225.89
  L 658.21 1228.26
  Q 658.18 1229.00 658.99 1229.00
  L 665.65 1229.01
  Q 666.62 1229.01 666.56 1228.12
  L 666.42 1225.68
  Q 666.39 1225.18 666.97 1225.08
  Q 668.47 1224.81 670.01 1225.18
  Q 671.40 1233.38 671.31 1241.29
  L 670.67 1257.74
  Q 670.65 1258.22 670.18 1258.23
  L 667.11 1258.31
  Q 666.52 1258.33 666.52 1258.90
  L 666.53 1262.01
  Q 666.53 1262.49 667.01 1262.49
  L 678.50 1262.50
  Q 678.99 1262.50 678.99 1263.00
  L 679.00 1270.28
  Q 679.00 1270.81 679.53 1270.80
  L 682.75 1270.73
  A 0.52 0.50 0.0 0 1 683.28 1271.24
  L 683.20 1274.35
  Q 683.19 1274.97 683.85 1274.98
  L 686.89 1274.99
  Q 687.51 1274.99 687.51 1274.37
  L 687.47 1271.25
  Q 687.46 1270.70 688.01 1270.71
  L 690.79 1270.78
  Q 691.52 1270.80 691.52 1271.53
  L 691.50 1278.47
  Q 691.49 1278.94 691.83 1278.95
  L 695.40 1279.03
  Q 695.78 1279.03 695.78 1279.53
  L 695.78 1282.75
  Q 695.78 1283.27 695.25 1283.27
  L 683.76 1283.24
  Q 683.26 1283.23 683.26 1283.74
  L 683.26 1287.03
  Q 683.26 1287.58 682.74 1287.56
  L 679.76 1287.41
  A 0.78 0.71 -88.7 0 0 679.01 1288.19
  L 679.00 1299.38
  Q 679.00 1300.02 679.64 1300.03
  L 682.68 1300.05
  Q 683.28 1300.05 683.28 1300.66
  L 683.26 1307.72
  Q 683.25 1308.18 683.71 1308.20
  L 687.03 1308.32
  Q 687.47 1308.34 687.47 1308.79
  L 687.50 1311.99
  Q 687.51 1312.52 686.99 1312.53
  L 683.96 1312.57
  A 0.65 0.65 0.0 0 0 683.32 1313.24
  L 683.39 1315.81
  Q 683.41 1316.45 684.05 1316.46
  L 686.98 1316.46
  Q 687.48 1316.46 687.48 1316.97
  L 687.53 1320.03
  Q 687.54 1320.75 688.27 1320.74
  L 690.97 1320.74
  Q 691.44 1320.74 691.44 1320.28
  L 691.47 1316.99
  Q 691.47 1316.44 692.02 1316.45
  L 695.21 1316.48
  Q 695.66 1316.48 695.67 1316.04
  L 695.72 1313.00
  Q 695.72 1312.45 696.26 1312.44
  L 699.35 1312.38
  Q 699.98 1312.37 699.98 1313.01
  L 699.98 1316.00
  Q 699.98 1316.65 699.36 1316.62
  L 696.26 1316.48
  Q 695.78 1316.45 695.79 1316.96
  L 695.80 1324.35
  A 0.64 0.63 89.6 0 1 695.17 1324.99
  L 691.97 1325.04
  Q 691.46 1325.04 691.48 1325.55
  L 691.56 1328.46
  A 0.50 0.49 -1.3 0 1 691.06 1328.97
  L 688.01 1329.02
  Q 687.57 1329.03 687.57 1329.48
  L 687.45 1336.96
  Q 687.44 1337.60 686.82 1337.60
  L 684.10 1337.59
  Q 683.45 1337.59 683.43 1338.20
  L 683.20 1345.33
  Q 683.18 1345.82 682.71 1345.81
  L 679.66 1345.73
  Q 679.05 1345.71 679.03 1346.32
  L 678.96 1349.47
  Q 678.95 1350.01 679.47 1350.01
  L 686.78 1350.00
  Q 687.53 1350.00 687.53 1350.77
  L 687.49 1357.72
  Q 687.48 1358.22 687.96 1358.23
  L 690.89 1358.24
  Q 691.50 1358.24 691.50 1358.86
  L 691.50 1365.68
  Q 691.51 1366.54 692.42 1366.53
  L 699.15 1366.47
  Q 700.07 1366.46 700.05 1365.68
  L 700.01 1363.07
  Q 700.00 1362.44 700.66 1362.45
  L 703.50 1362.49
  Q 703.99 1362.50 704.00 1362.01
  L 704.04 1358.59
  Q 704.04 1358.21 704.42 1358.22
  L 708.03 1358.27
  Q 708.25 1358.27 708.25 1358.51
  L 708.27 1362.02
  Q 708.27 1362.58 707.73 1362.56
  L 704.26 1362.46
  A 0.35 0.35 0.0 0 0 703.90 1362.82
  L 704.02 1366.04
  Q 704.04 1366.55 704.53 1366.53
  L 707.38 1366.43
  Q 708.25 1366.40 708.25 1367.36
  L 708.28 1374.14
  Q 708.29 1375.03 707.38 1375.02
  L 704.51 1374.98
  Q 703.97 1374.97 703.98 1375.50
  L 704.01 1378.23
  Q 704.01 1379.00 703.29 1379.00
  L 700.61 1379.00
  Q 700.05 1379.00 700.03 1379.60
  L 699.91 1386.86
  A 0.74 0.70 -88.8 0 1 699.20 1387.59
  L 696.48 1387.52
  Q 695.94 1387.50 695.92 1388.07
  L 695.65 1395.22
  A 0.64 0.62 -88.5 0 1 695.03 1395.84
  L 692.67 1395.80
  Q 691.74 1395.78 691.71 1396.79
  L 691.48 1402.93
  Q 691.45 1403.93 692.41 1403.98
  L 694.90 1404.09
  Q 695.78 1404.13 695.76 1405.03
  L 695.70 1407.50
  Q 695.68 1408.20 695.00 1408.23
  L 692.14 1408.37
  A 0.63 0.62 -1.5 0 0 691.55 1408.99
  L 691.57 1415.76
  Q 691.57 1416.45 692.27 1416.45
  L 695.23 1416.46
  A 0.53 0.53 0.0 0 1 695.76 1416.98
  L 695.79 1420.25
  Q 695.80 1420.71 696.25 1420.71
  L 699.23 1420.73
  Q 699.95 1420.73 699.96 1420.01
  L 700.08 1413.28
  A 0.85 0.84 -88.9 0 1 700.94 1412.44
  L 702.98 1412.48
  Q 703.73 1412.50 703.81 1413.23
  L 704.08 1416.02
  A 0.64 0.64 0.0 0 0 704.74 1416.59
  L 707.44 1416.51
  Q 708.17 1416.49 708.20 1417.20
  L 708.32 1420.04
  Q 708.35 1420.74 709.02 1420.73
  L 711.32 1420.73
  A 1.18 1.11 88.2 0 1 712.44 1421.84
  L 712.57 1424.25
  Q 712.60 1424.74 713.10 1424.76
  Q 721.50 1425.15 728.38 1424.94
  Q 729.02 1424.92 729.01 1424.22
  L 728.94 1421.64
  Q 728.92 1420.82 728.11 1420.80
  L 725.93 1420.77
  Q 725.04 1420.76 725.05 1419.85
  L 725.13 1413.26
  Q 725.14 1412.43 725.98 1412.44
  L 728.23 1412.48
  Q 728.70 1412.48 728.71 1412.02
  L 729.00 1400.78
  A 0.93 0.91 -87.4 0 1 729.97 1399.88
  L 732.46 1400.05
  Q 733.35 1400.11 733.34 1400.96
  L 733.33 1411.79
  Q 733.33 1412.50 734.04 1412.48
  L 740.49 1412.27
  Q 741.30 1412.24 741.36 1411.46
  L 741.57 1408.79
  Q 741.62 1408.14 742.24 1408.17
  L 745.11 1408.27
  Q 745.74 1408.30 745.74 1408.89
  L 745.67 1415.93
  Q 745.66 1416.51 745.05 1416.55
  L 742.26 1416.69
  A 0.58 0.56 -1.1 0 0 741.72 1417.24
  L 741.52 1428.34
  Q 741.51 1428.93 742.10 1428.96
  L 745.20 1429.09
  Q 745.77 1429.11 745.77 1429.69
  L 745.76 1432.53
  Q 745.76 1433.33 745.00 1433.31
  L 742.04 1433.24
  A 0.49 0.48 -89.1 0 0 741.54 1433.72
  L 741.47 1445.08
  Q 741.47 1445.70 742.09 1445.70
  L 745.21 1445.70
  A 0.52 0.52 0.0 0 1 745.73 1446.21
  L 745.82 1449.20
  Q 745.84 1449.99 745.04 1449.99
  L 737.98 1450.02
  A 0.50 0.49 -0.1 0 0 737.48 1450.52
  L 737.48 1453.45
  Q 737.48 1453.95 737.96 1453.96
  L 740.93 1454.02
  Q 741.55 1454.03 741.54 1454.67
  L 741.52 1457.73
  Q 741.51 1458.20 741.97 1458.20
  L 745.01 1458.21
  Q 745.77 1458.22 745.76 1459.01
  L 745.76 1461.75
  A 0.77 0.76 -1.2 0 1 745.03 1462.50
  L 742.30 1462.62
  Q 741.62 1462.65 741.60 1463.28
  L 741.43 1470.27
  Q 741.42 1470.72 740.99 1470.73
  L 738.36 1470.85
  A 0.73 0.65 90.0 0 0 737.74 1471.54
  L 737.52 1478.02
  Q 737.48 1478.97 738.41 1478.99
  Q 744.25 1479.10 745.29 1479.04
  Q 746.00 1479.00 745.80 1482.15
  Q 745.75 1483.06 746.71 1483.11
  L 748.94 1483.23
  A 0.82 0.57 3.6 0 0 749.78 1482.72
  L 750.03 1479.74
  Q 750.08 1479.06 750.75 1479.07
  L 753.08 1479.12
  Q 753.80 1479.14 753.84 1479.85
  Q 754.17 1485.90 753.87 1495.39
  A 0.52 0.52 0.0 0 1 753.34 1495.89
  L 750.73 1495.83
  Q 750.01 1495.81 750.01 1496.55
  L 750.01 1499.08
  Q 750.01 1499.93 750.85 1499.94
  L 753.05 1499.97
  A 0.83 0.78 89.4 0 1 753.82 1500.78
  L 754.18 1511.86
  Q 754.20 1512.52 754.87 1512.49
  L 757.38 1512.37
  Q 758.01 1512.34 758.10 1511.72
  L 758.49 1508.86
  Q 758.57 1508.28 759.15 1508.27
  L 761.76 1508.18
  A 0.66 0.55 -89.3 0 0 762.30 1507.55
  L 762.59 1500.59
  Q 762.61 1500.05 763.18 1499.99
  L 765.71 1499.73
  Q 766.27 1499.67 766.29 1499.16
  L 766.61 1492.25
  Q 766.64 1491.63 767.34 1491.58
  L 769.95 1491.38
  A 0.65 0.64 -3.6 0 1 770.65 1491.99
  L 770.80 1494.95
  Q 770.84 1495.75 771.64 1495.75
  L 774.00 1495.76
  A 1.07 1.06 -0.1 0 0 775.07 1494.69
  L 774.99 1479.76
  Q 774.99 1479.04 774.21 1479.04
  L 771.54 1479.05
  A 0.71 0.70 0.8 0 0 770.83 1479.73
  L 770.75 1482.51
  A 0.76 0.76 0.0 0 1 770.01 1483.25
  L 767.52 1483.32
  Q 766.43 1483.35 766.45 1482.25
  L 766.59 1476.35
  Q 766.61 1475.23 767.71 1475.09
  L 770.21 1474.77
  Q 770.65 1474.71 770.67 1474.29
  L 770.78 1471.49
  Q 770.81 1470.78 771.52 1470.77
  L 774.49 1470.71
  Q 774.94 1470.70 774.95 1470.26
  L 775.05 1467.08
  Q 775.06 1466.49 775.66 1466.48
  L 778.32 1466.44
  Q 778.84 1466.43 778.89 1465.91
  L 779.16 1463.26
  Q 779.24 1462.51 779.99 1462.50
  L 782.44 1462.45
  Q 783.20 1462.43 783.21 1463.17
  L 783.25 1465.60
  Q 783.26 1466.42 784.15 1466.41
  L 786.54 1466.39
  A 0.89 0.85 89.9 0 0 787.39 1465.50
  L 787.50 1446.71
  Q 787.51 1445.73 788.63 1445.72
  L 790.60 1445.70
  Q 791.51 1445.69 791.50 1446.60
  L 791.50 1448.86
  Q 791.50 1449.93 792.64 1449.94
  L 798.82 1450.02
  Q 799.95 1450.03 799.98 1448.98
  L 800.05 1446.25
  Q 800.06 1445.56 800.75 1445.58
  L 803.23 1445.66
  A 0.71 0.69 -0.4 0 1 803.92 1446.32
  L 804.05 1449.12
  Q 804.10 1450.12 805.13 1450.10
  L 807.21 1450.06
  Q 808.19 1450.04 808.19 1449.06
  L 808.19 1442.12
  Q 808.19 1441.52 807.62 1441.52
  L 804.73 1441.56
  A 0.66 0.65 89.6 0 1 804.07 1440.90
  L 804.05 1425.64
  Q 804.05 1425.04 804.59 1425.03
  L 807.63 1424.97
  A 0.59 0.58 89.0 0 0 808.19 1424.37
  L 808.09 1417.24
  Q 808.08 1416.56 807.42 1416.57
  L 804.73 1416.60
  Q 804.11 1416.61 804.09 1415.96
  L 803.87 1408.93
  A 0.67 0.67 0.0 0 0 803.20 1408.28
  L 800.72 1408.25
  Q 800.12 1408.24 800.09 1407.61
  L 799.99 1404.84
  A 0.99 0.82 -1.5 0 0 798.99 1404.05
  L 796.68 1404.10
  Q 795.85 1404.11 795.83 1404.99
  L 795.79 1407.47
  Q 795.77 1408.18 796.48 1408.18
  L 799.11 1408.15
  Q 800.07 1408.14 800.05 1409.11
  L 799.99 1411.68
  Q 799.97 1412.61 799.07 1412.62
  L 796.49 1412.68
  A 0.66 0.64 0.3 0 0 795.84 1413.30
  L 795.76 1415.62
  A 0.95 0.90 -0.1 0 1 794.85 1416.49
  L 792.44 1416.57
  Q 791.49 1416.61 791.46 1415.84
  L 791.38 1413.49
  A 0.90 0.63 89.5 0 0 790.77 1412.63
  L 788.21 1412.51
  A 0.79 0.79 0.0 0 1 787.45 1411.72
  L 787.46 1400.63
  Q 787.46 1400.06 786.88 1400.05
  L 779.62 1399.98
  Q 779.01 1399.98 779.01 1399.36
  L 778.97 1392.28
  Q 778.96 1391.53 779.70 1391.51
  L 790.42 1391.19
  Q 791.16 1391.16 791.21 1390.29
  L 791.32 1388.44
  Q 791.36 1387.60 790.45 1387.58
  L 788.52 1387.53
  A 1.01 0.99 -89.1 0 1 787.55 1386.51
  L 787.57 1384.32
  Q 787.57 1383.37 788.52 1383.29
  L 790.55 1383.14
  Q 791.38 1383.07 791.40 1382.24
  L 791.45 1380.11
  Q 791.47 1379.26 790.62 1379.18
  L 788.18 1378.95
  Q 787.62 1378.89 787.59 1378.33
  L 787.46 1375.29
  L 791.95 1374.72
  L 795.19 1375.01
  Q 795.81 1375.07 795.83 1375.71
  L 795.92 1378.09
  A 0.89 0.84 90.0 0 0 796.73 1378.95
  L 798.90 1379.03
  Q 800.04 1379.07 800.03 1378.02
  L 799.98 1363.28
  Q 799.98 1362.59 799.29 1362.59
  L 796.51 1362.61
  Q 795.67 1362.61 795.68 1361.76
  L 795.70 1358.96
  Q 795.71 1358.10 796.55 1358.11
  L 803.44 1358.19
  A 0.51 0.51 0.0 0 1 803.95 1358.68
  L 804.03 1362.03
  A 0.46 0.45 -1.0 0 0 804.49 1362.47
  L 807.73 1362.44
  Q 808.27 1362.43 808.27 1362.98
  L 808.28 1365.90
  Q 808.28 1366.49 808.90 1366.48
  L 815.81 1366.34
  Q 816.45 1366.33 816.46 1365.69
  L 816.48 1363.26
  Q 816.49 1362.54 815.76 1362.54
  L 813.02 1362.56
  Q 812.46 1362.57 812.46 1362.01
  L 812.45 1358.74
  Q 812.45 1358.19 813.01 1358.20
  L 820.25 1358.22
  A 0.49 0.45 0.4 0 0 820.74 1357.77
  L 820.78 1354.58
  Q 820.79 1354.08 820.30 1354.07
  L 816.96 1354.01
  Q 816.43 1354.01 816.43 1353.47
  L 816.41 1350.64
  Q 816.40 1349.95 817.08 1349.95
  L 820.06 1349.94
  Q 820.77 1349.94 820.75 1349.23
  L 820.69 1346.29
  Q 820.68 1345.82 820.27 1345.82
  L 817.01 1345.81
  Q 816.47 1345.81 816.47 1345.26
  L 816.37 1333.77
  Q 816.36 1333.14 816.99 1333.14
  L 820.24 1333.13
  Q 820.90 1333.13 820.89 1333.81
  L 820.81 1340.87
  Q 820.80 1341.45 821.39 1341.45
  L 824.46 1341.44
  Q 824.96 1341.44 824.97 1341.95
  L 825.04 1345.28
  Q 825.05 1345.75 825.53 1345.75
  L 832.76 1345.66
  A 0.58 0.58 0.0 0 1 833.34 1346.25
  L 833.26 1353.49
  A 0.49 0.45 -89.6 0 0 833.71 1353.98
  L 840.99 1354.00
  Q 841.44 1354.00 841.44 1353.53
  L 841.69 1338.01
  Q 841.70 1337.49 842.25 1337.48
  L 844.74 1337.43
  Q 845.62 1337.42 845.64 1336.51
  L 845.74 1329.56
  Q 845.75 1329.08 846.20 1329.07
  L 849.35 1329.02
  A 0.64 0.64 0.0 0 0 849.98 1328.39
  L 850.04 1316.95
  Q 850.04 1316.45 850.55 1316.45
  L 853.38 1316.49
  Q 854.02 1316.50 854.02 1315.87
  L 853.99 1313.10
  Q 853.98 1312.44 853.39 1312.47
  L 850.56 1312.59
  A 0.65 0.50 88.3 0 1 850.03 1311.95
  L 849.96 1308.97
  Q 849.95 1308.22 849.27 1308.23
  L 846.43 1308.27
  Q 845.76 1308.28 845.77 1308.99
  L 845.83 1311.97
  Q 845.84 1312.53 845.26 1312.53
  L 842.01 1312.56
  A 0.53 0.52 -89.7 0 1 841.48 1312.02
  L 841.57 1307.20
  Q 850.65 1305.96 859.64 1303.63
  Q 867.03 1301.72 874.17 1299.70
  L 882.77 1300.09
  Q 883.28 1300.12 883.28 1300.61
  L 883.29 1311.91
  Q 883.29 1312.50 883.91 1312.51
  L 886.86 1312.53
  Q 887.49 1312.54 887.49 1311.90
  L 887.50 1304.51
  Q 887.50 1304.00 888.00 1304.00
  L 895.00 1303.97
  Q 895.71 1303.97 895.71 1303.26
  L 895.72 1300.92
  Q 895.72 1300.10 894.93 1300.06
  L 891.99 1299.90
  Q 891.37 1299.86 891.40 1299.24
  L 891.52 1296.52
  A 0.78 0.78 0.0 0 1 892.28 1295.77
  L 899.26 1295.64
  Q 899.89 1295.62 899.90 1296.25
  L 900.07 1303.31
  Q 900.09 1303.85 900.63 1303.95
  Q 901.31 1304.08 903.31 1304.08
  Q 903.84 1304.08 903.85 1304.55
  L 903.96 1307.35
  Q 904.00 1308.24 905.06 1308.24
  L 911.76 1308.24
  Q 912.50 1308.24 912.50 1307.47
  L 912.47 1285.57
  C 948.57 1269.69 982.06 1249.03 1014.63 1226.38
  Q 1027.60 1217.36 1038.85 1208.34
  Q 1057.50 1193.36 1084.87 1169.36
  Q 1110.52 1146.87 1132.82 1130.33
  C 1152.66 1115.61 1174.34 1103.01 1198.07 1093.52
  Q 1200.75 1092.45 1203.68 1092.47
  Q 1209.73 1092.50 1225.45 1092.50
  Q 1225.97 1092.50 1226.33 1092.88
  Q 1233.96 1101.23 1239.50 1108.28
  Q 1246.39 1117.07 1249.61 1127.08
  Q 1252.59 1136.34 1252.62 1136.40
  C 1258.19 1150.64 1267.66 1163.09 1277.94 1174.49
  Q 1361.25 1266.95 1416.22 1331.72
  Q 1465.28 1389.51 1477.15 1467.37
  Q 1478.59 1476.86 1478.62 1487.29
  Q 1478.63 1488.21 1478.36 1507.76
  Q 1477.91 1541.81 1478.87 1585.34
  Q 1478.93 1588.30 1478.47 1591.15
  A 0.71 0.71 0.0 0 1 1477.77 1591.74
  L 457.24 1591.75
  A 0.41 0.41 0.0 0 1 456.87 1591.18
  C 471.46 1557.39 485.46 1522.05 495.76 1487.78
  Q 506.45 1452.26 511.70 1415.99
  Q 513.58 1403.04 517.34 1387.91
  Q 523.64 1362.56 537.57 1341.07
  Q 556.29 1312.20 574.40 1291.23
  Z"
/>
<path fill="#000000" d="
  M 834.78 1162.32
  Q 833.33 1162.31 833.19 1163.50
  Q 832.89 1165.98 834.16 1166.78
  Q 830.56 1195.79 817.04 1224.79
  Q 811.00 1237.73 808.79 1254.97
  Q 808.15 1259.99 808.19 1266.11
  Q 808.23 1273.06 808.54 1277.24
  C 809.08 1284.67 810.27 1292.13 814.10 1298.44
  Q 817.95 1304.80 825.58 1306.62
  Q 833.39 1308.48 841.57 1307.20
  L 841.48 1312.02
  A 0.53 0.52 -89.7 0 0 842.01 1312.56
  L 845.26 1312.53
  Q 845.84 1312.53 845.83 1311.97
  L 845.77 1308.99
  Q 845.76 1308.28 846.43 1308.27
  L 849.27 1308.23
  Q 849.95 1308.22 849.96 1308.97
  L 850.03 1311.95
  A 0.65 0.50 88.3 0 0 850.56 1312.59
  L 853.39 1312.47
  Q 853.98 1312.44 853.99 1313.10
  L 854.02 1315.87
  Q 854.02 1316.50 853.38 1316.49
  L 850.55 1316.45
  Q 850.04 1316.45 850.04 1316.95
  L 849.98 1328.39
  A 0.64 0.64 0.0 0 1 849.35 1329.02
  L 846.20 1329.07
  Q 845.75 1329.08 845.74 1329.56
  L 845.64 1336.51
  Q 845.62 1337.42 844.74 1337.43
  L 842.25 1337.48
  Q 841.70 1337.49 841.69 1338.01
  L 841.44 1353.53
  Q 841.44 1354.00 840.99 1354.00
  L 833.71 1353.98
  A 0.49 0.45 -89.6 0 1 833.26 1353.49
  L 833.34 1346.25
  A 0.58 0.58 0.0 0 0 832.76 1345.66
  L 825.53 1345.75
  Q 825.05 1345.75 825.04 1345.28
  L 824.97 1341.95
  Q 824.96 1341.44 824.46 1341.44
  L 821.39 1341.45
  Q 820.80 1341.45 820.81 1340.87
  L 820.89 1333.81
  Q 820.90 1333.13 820.24 1333.13
  L 816.99 1333.14
  Q 816.36 1333.14 816.37 1333.77
  L 816.47 1345.26
  Q 816.47 1345.81 817.01 1345.81
  L 820.27 1345.82
  Q 820.68 1345.82 820.69 1346.29
  L 820.75 1349.23
  Q 820.77 1349.94 820.06 1349.94
  L 817.08 1349.95
  Q 816.40 1349.95 816.41 1350.64
  L 816.43 1353.47
  Q 816.43 1354.01 816.96 1354.01
  L 820.30 1354.07
  Q 820.79 1354.08 820.78 1354.58
  L 820.74 1357.77
  A 0.49 0.45 0.4 0 1 820.25 1358.22
  L 813.01 1358.20
  Q 812.45 1358.19 812.45 1358.74
  L 812.46 1362.01
  Q 812.46 1362.57 813.02 1362.56
  L 815.76 1362.54
  Q 816.49 1362.54 816.48 1363.26
  L 816.46 1365.69
  Q 816.45 1366.33 815.81 1366.34
  L 808.90 1366.48
  Q 808.28 1366.49 808.28 1365.90
  L 808.27 1362.98
  Q 808.27 1362.43 807.73 1362.44
  L 804.49 1362.47
  A 0.46 0.45 -1.0 0 1 804.03 1362.03
  L 803.95 1358.68
  A 0.51 0.51 0.0 0 0 803.44 1358.19
  L 796.55 1358.11
  Q 795.71 1358.10 795.70 1358.96
  L 795.68 1361.76
  Q 795.67 1362.61 796.51 1362.61
  L 799.29 1362.59
  Q 799.98 1362.59 799.98 1363.28
  L 800.03 1378.02
  Q 800.04 1379.07 798.90 1379.03
  L 796.73 1378.95
  A 0.89 0.84 90.0 0 1 795.92 1378.09
  L 795.83 1375.71
  Q 795.81 1375.07 795.19 1375.01
  L 791.95 1374.72
  Q 791.51 1373.01 791.63 1371.53
  A 0.84 0.84 0.0 0 0 790.81 1370.62
  L 788.59 1370.59
  Q 787.69 1370.58 787.50 1371.51
  Q 787.19 1372.99 787.46 1375.29
  L 787.59 1378.33
  Q 787.62 1378.89 788.18 1378.95
  L 790.62 1379.18
  Q 791.47 1379.26 791.45 1380.11
  L 791.40 1382.24
  Q 791.38 1383.07 790.55 1383.14
  L 788.52 1383.29
  Q 787.57 1383.37 787.57 1384.32
  L 787.55 1386.51
  A 1.01 0.99 -89.1 0 0 788.52 1387.53
  L 790.45 1387.58
  Q 791.36 1387.60 791.32 1388.44
  L 791.21 1390.29
  Q 791.16 1391.16 790.42 1391.19
  L 779.70 1391.51
  Q 778.96 1391.53 778.97 1392.28
  L 779.01 1399.36
  Q 779.01 1399.98 779.62 1399.98
  L 786.88 1400.05
  Q 787.46 1400.06 787.46 1400.63
  L 787.45 1411.72
  A 0.79 0.79 0.0 0 0 788.21 1412.51
  L 790.77 1412.63
  A 0.90 0.63 89.5 0 1 791.38 1413.49
  L 791.46 1415.84
  Q 791.49 1416.61 792.44 1416.57
  L 794.85 1416.49
  A 0.95 0.90 -0.1 0 0 795.76 1415.62
  L 795.84 1413.30
  A 0.66 0.64 0.3 0 1 796.49 1412.68
  L 799.07 1412.62
  Q 799.97 1412.61 799.99 1411.68
  L 800.05 1409.11
  Q 800.07 1408.14 799.11 1408.15
  L 796.48 1408.18
  Q 795.77 1408.18 795.79 1407.47
  L 795.83 1404.99
  Q 795.85 1404.11 796.68 1404.10
  L 798.99 1404.05
  A 0.99 0.82 -1.5 0 1 799.99 1404.84
  L 800.09 1407.61
  Q 800.12 1408.24 800.72 1408.25
  L 803.20 1408.28
  A 0.67 0.67 0.0 0 1 803.87 1408.93
  L 804.09 1415.96
  Q 804.11 1416.61 804.73 1416.60
  L 807.42 1416.57
  Q 808.08 1416.56 808.09 1417.24
  L 808.19 1424.37
  A 0.59 0.58 89.0 0 1 807.63 1424.97
  L 804.59 1425.03
  Q 804.05 1425.04 804.05 1425.64
  L 804.07 1440.90
  A 0.66 0.65 89.6 0 0 804.73 1441.56
  L 807.62 1441.52
  Q 808.19 1441.52 808.19 1442.12
  L 808.19 1449.06
  Q 808.19 1450.04 807.21 1450.06
  L 805.13 1450.10
  Q 804.10 1450.12 804.05 1449.12
  L 803.92 1446.32
  A 0.71 0.69 -0.4 0 0 803.23 1445.66
  L 800.75 1445.58
  Q 800.06 1445.56 800.05 1446.25
  L 799.98 1448.98
  Q 799.95 1450.03 798.82 1450.02
  L 792.64 1449.94
  Q 791.50 1449.93 791.50 1448.86
  L 791.50 1446.60
  Q 791.51 1445.69 790.60 1445.70
  L 788.63 1445.72
  Q 787.51 1445.73 787.50 1446.71
  L 787.39 1465.50
  A 0.89 0.85 89.9 0 1 786.54 1466.39
  L 784.15 1466.41
  Q 783.26 1466.42 783.25 1465.60
  L 783.21 1463.17
  Q 783.20 1462.43 782.44 1462.45
  L 779.99 1462.50
  Q 779.24 1462.51 779.16 1463.26
  L 778.89 1465.91
  Q 778.84 1466.43 778.32 1466.44
  L 775.66 1466.48
  Q 775.06 1466.49 775.05 1467.08
  L 774.95 1470.26
  Q 774.94 1470.70 774.49 1470.71
  L 771.52 1470.77
  Q 770.81 1470.78 770.78 1471.49
  L 770.67 1474.29
  Q 770.65 1474.71 770.21 1474.77
  L 767.71 1475.09
  Q 766.61 1475.23 766.59 1476.35
  L 766.45 1482.25
  Q 766.43 1483.35 767.52 1483.32
  L 770.01 1483.25
  A 0.76 0.76 0.0 0 0 770.75 1482.51
  L 770.83 1479.73
  A 0.71 0.70 0.8 0 1 771.54 1479.05
  L 774.21 1479.04
  Q 774.99 1479.04 774.99 1479.76
  L 775.07 1494.69
  A 1.07 1.06 -0.1 0 1 774.00 1495.76
  L 771.64 1495.75
  Q 770.84 1495.75 770.80 1494.95
  L 770.65 1491.99
  A 0.65 0.64 -3.6 0 0 769.95 1491.38
  L 767.34 1491.58
  Q 766.64 1491.63 766.61 1492.25
  L 766.29 1499.16
  Q 766.27 1499.67 765.71 1499.73
  L 763.18 1499.99
  Q 762.61 1500.05 762.59 1500.59
  L 762.30 1507.55
  A 0.66 0.55 -89.3 0 1 761.76 1508.18
  L 759.15 1508.27
  Q 758.57 1508.28 758.49 1508.86
  L 758.10 1511.72
  Q 758.01 1512.34 757.38 1512.37
  L 754.87 1512.49
  Q 754.20 1512.52 754.18 1511.86
  L 753.82 1500.78
  A 0.83 0.78 89.4 0 0 753.05 1499.97
  L 750.85 1499.94
  Q 750.01 1499.93 750.01 1499.08
  L 750.01 1496.55
  Q 750.01 1495.81 750.73 1495.83
  L 753.34 1495.89
  A 0.52 0.52 0.0 0 0 753.87 1495.39
  Q 754.17 1485.90 753.84 1479.85
  Q 753.80 1479.14 753.08 1479.12
  L 750.75 1479.07
  Q 750.08 1479.06 750.03 1479.74
  L 749.78 1482.72
  A 0.82 0.57 3.6 0 1 748.94 1483.23
  L 746.71 1483.11
  Q 745.75 1483.06 745.80 1482.15
  Q 746.00 1479.00 745.29 1479.04
  Q 744.25 1479.10 738.41 1478.99
  Q 737.48 1478.97 737.52 1478.02
  L 737.74 1471.54
  A 0.73 0.65 90.0 0 1 738.36 1470.85
  L 740.99 1470.73
  Q 741.42 1470.72 741.43 1470.27
  L 741.60 1463.28
  Q 741.62 1462.65 742.30 1462.62
  L 745.03 1462.50
  A 0.77 0.76 -1.2 0 0 745.76 1461.75
  L 745.76 1459.01
  Q 745.77 1458.22 745.01 1458.21
  L 741.97 1458.20
  Q 741.51 1458.20 741.52 1457.73
  L 741.54 1454.67
  Q 741.55 1454.03 740.93 1454.02
  L 737.96 1453.96
  Q 737.48 1453.95 737.48 1453.45
  L 737.48 1450.52
  A 0.50 0.49 -0.1 0 1 737.98 1450.02
  L 745.04 1449.99
  Q 745.84 1449.99 745.82 1449.20
  L 745.73 1446.21
  A 0.52 0.52 0.0 0 0 745.21 1445.70
  L 742.09 1445.70
  Q 741.47 1445.70 741.47 1445.08
  L 741.54 1433.72
  A 0.49 0.48 -89.1 0 1 742.04 1433.24
  L 745.00 1433.31
  Q 745.76 1433.33 745.76 1432.53
  L 745.77 1429.69
  Q 745.77 1429.11 745.20 1429.09
  L 742.10 1428.96
  Q 741.51 1428.93 741.52 1428.34
  L 741.72 1417.24
  A 0.58 0.56 -1.1 0 1 742.26 1416.69
  L 745.05 1416.55
  Q 745.66 1416.51 745.67 1415.93
  L 745.74 1408.89
  Q 745.74 1408.30 745.11 1408.27
  L 742.24 1408.17
  Q 741.62 1408.14 741.57 1408.79
  L 741.36 1411.46
  Q 741.30 1412.24 740.49 1412.27
  L 734.04 1412.48
  Q 733.33 1412.50 733.33 1411.79
  L 733.34 1400.96
  Q 733.35 1400.11 732.46 1400.05
  L 729.97 1399.88
  A 0.93 0.91 -87.4 0 0 729.00 1400.78
  L 728.71 1412.02
  Q 728.70 1412.48 728.23 1412.48
  L 725.98 1412.44
  Q 725.14 1412.43 725.13 1413.26
  L 725.05 1419.85
  Q 725.04 1420.76 725.93 1420.77
  L 728.11 1420.80
  Q 728.92 1420.82 728.94 1421.64
  L 729.01 1424.22
  Q 729.02 1424.92 728.38 1424.94
  Q 721.50 1425.15 713.10 1424.76
  Q 712.60 1424.74 712.57 1424.25
  L 712.44 1421.84
  A 1.18 1.11 88.2 0 0 711.32 1420.73
  L 709.02 1420.73
  Q 708.35 1420.74 708.32 1420.04
  L 708.20 1417.20
  Q 708.17 1416.49 707.44 1416.51
  L 704.74 1416.59
  A 0.64 0.64 0.0 0 1 704.08 1416.02
  L 703.81 1413.23
  Q 703.73 1412.50 702.98 1412.48
  L 700.94 1412.44
  A 0.85 0.84 -88.9 0 0 700.08 1413.28
  L 699.96 1420.01
  Q 699.95 1420.73 699.23 1420.73
  L 696.25 1420.71
  Q 695.80 1420.71 695.79 1420.25
  L 695.76 1416.98
  A 0.53 0.53 0.0 0 0 695.23 1416.46
  L 692.27 1416.45
  Q 691.57 1416.45 691.57 1415.76
  L 691.55 1408.99
  A 0.63 0.62 -1.5 0 1 692.14 1408.37
  L 695.00 1408.23
  Q 695.68 1408.20 695.70 1407.50
  L 695.76 1405.03
  Q 695.78 1404.13 694.90 1404.09
  L 692.41 1403.98
  Q 691.45 1403.93 691.48 1402.93
  L 691.71 1396.79
  Q 691.74 1395.78 692.67 1395.80
  L 695.03 1395.84
  A 0.64 0.62 -88.5 0 0 695.65 1395.22
  L 695.92 1388.07
  Q 695.94 1387.50 696.48 1387.52
  L 699.20 1387.59
  A 0.74 0.70 -88.8 0 0 699.91 1386.86
  L 700.03 1379.60
  Q 700.05 1379.00 700.61 1379.00
  L 703.29 1379.00
  Q 704.01 1379.00 704.01 1378.23
  L 703.98 1375.50
  Q 703.97 1374.97 704.51 1374.98
  L 707.38 1375.02
  Q 708.29 1375.03 708.28 1374.14
  L 708.25 1367.36
  Q 708.25 1366.40 707.38 1366.43
  L 704.53 1366.53
  Q 704.04 1366.55 704.02 1366.04
  L 703.90 1362.82
  A 0.35 0.35 0.0 0 1 704.26 1362.46
  L 707.73 1362.56
  Q 708.27 1362.58 708.27 1362.02
  L 708.25 1358.51
  Q 708.25 1358.27 708.03 1358.27
  L 704.42 1358.22
  Q 704.04 1358.21 704.04 1358.59
  L 704.00 1362.01
  Q 703.99 1362.50 703.50 1362.49
  L 700.66 1362.45
  Q 700.00 1362.44 700.01 1363.07
  L 700.05 1365.68
  Q 700.07 1366.46 699.15 1366.47
  L 692.42 1366.53
  Q 691.51 1366.54 691.50 1365.68
  L 691.50 1358.86
  Q 691.50 1358.24 690.89 1358.24
  L 687.96 1358.23
  Q 687.48 1358.22 687.49 1357.72
  L 687.53 1350.77
  Q 687.53 1350.00 686.78 1350.00
  L 679.47 1350.01
  Q 678.95 1350.01 678.96 1349.47
  L 679.03 1346.32
  Q 679.05 1345.71 679.66 1345.73
  L 682.71 1345.81
  Q 683.18 1345.82 683.20 1345.33
  L 683.43 1338.20
  Q 683.45 1337.59 684.10 1337.59
  L 686.82 1337.60
  Q 687.44 1337.60 687.45 1336.96
  L 687.57 1329.48
  Q 687.57 1329.03 688.01 1329.02
  L 691.06 1328.97
  A 0.50 0.49 -1.3 0 0 691.56 1328.46
  L 691.48 1325.55
  Q 691.46 1325.04 691.97 1325.04
  L 695.17 1324.99
  A 0.64 0.63 89.6 0 0 695.80 1324.35
  L 695.79 1316.96
  Q 695.78 1316.45 696.26 1316.48
  L 699.36 1316.62
  Q 699.98 1316.65 699.98 1316.00
  L 699.98 1313.01
  Q 699.98 1312.37 699.35 1312.38
  L 696.26 1312.44
  Q 695.72 1312.45 695.72 1313.00
  L 695.67 1316.04
  Q 695.66 1316.48 695.21 1316.48
  L 692.02 1316.45
  Q 691.47 1316.44 691.47 1316.99
  L 691.44 1320.28
  Q 691.44 1320.74 690.97 1320.74
  L 688.27 1320.74
  Q 687.54 1320.75 687.53 1320.03
  L 687.48 1316.97
  Q 687.48 1316.46 686.98 1316.46
  L 684.05 1316.46
  Q 683.41 1316.45 683.39 1315.81
  L 683.32 1313.24
  A 0.65 0.65 0.0 0 1 683.96 1312.57
  L 686.99 1312.53
  Q 687.51 1312.52 687.50 1311.99
  L 687.47 1308.79
  Q 687.47 1308.34 687.03 1308.32
  L 683.71 1308.20
  Q 683.25 1308.18 683.26 1307.72
  L 683.28 1300.66
  Q 683.28 1300.05 682.68 1300.05
  L 679.64 1300.03
  Q 679.00 1300.02 679.00 1299.38
  L 679.01 1288.19
  A 0.78 0.71 -88.7 0 1 679.76 1287.41
  L 682.74 1287.56
  Q 683.26 1287.58 683.26 1287.03
  L 683.26 1283.74
  Q 683.26 1283.23 683.76 1283.24
  L 695.25 1283.27
  Q 695.78 1283.27 695.78 1282.75
  L 695.78 1279.53
  Q 695.78 1279.03 695.40 1279.03
  L 691.83 1278.95
  Q 691.49 1278.94 691.50 1278.47
  L 691.52 1271.53
  Q 691.52 1270.80 690.79 1270.78
  L 688.01 1270.71
  Q 687.46 1270.70 687.47 1271.25
  L 687.51 1274.37
  Q 687.51 1274.99 686.89 1274.99
  L 683.85 1274.98
  Q 683.19 1274.97 683.20 1274.35
  L 683.28 1271.24
  A 0.52 0.50 0.0 0 0 682.75 1270.73
  L 679.53 1270.80
  Q 679.00 1270.81 679.00 1270.28
  L 678.99 1263.00
  Q 678.99 1262.50 678.50 1262.50
  L 667.01 1262.49
  Q 666.53 1262.49 666.53 1262.01
  L 666.52 1258.90
  Q 666.52 1258.33 667.11 1258.31
  L 670.18 1258.23
  Q 670.65 1258.22 670.67 1257.74
  L 671.31 1241.29
  L 674.38 1241.49
  Q 674.90 1241.53 674.92 1241.08
  L 675.03 1238.09
  A 0.63 0.59 1.2 0 1 675.67 1237.53
  L 678.31 1237.55
  A 0.63 0.63 0.0 0 0 678.94 1236.92
  L 678.98 1234.00
  A 0.74 0.69 -89.3 0 0 678.29 1233.25
  L 675.47 1233.22
  Q 674.96 1233.22 674.96 1232.71
  L 674.97 1229.50
  Q 674.97 1228.98 675.51 1228.98
  L 682.25 1229.01
  Q 683.26 1229.02 683.26 1228.03
  L 683.26 1221.63
  Q 683.25 1220.68 682.40 1220.71
  L 679.54 1220.81
  Q 679.01 1220.83 679.00 1220.29
  L 678.93 1216.92
  Q 678.92 1216.44 678.43 1216.45
  L 675.51 1216.54
  Q 674.96 1216.55 674.96 1216.00
  L 674.97 1204.75
  Q 674.97 1204.04 674.25 1204.03
  L 671.48 1203.99
  Q 670.73 1203.98 670.73 1204.75
  L 670.79 1215.96
  Q 670.79 1216.46 670.29 1216.47
  L 666.97 1216.53
  Q 666.47 1216.54 666.47 1217.03
  L 666.50 1220.38
  Q 666.51 1220.77 666.89 1220.76
  L 670.19 1220.73
  Q 670.65 1220.73 670.74 1221.19
  Q 671.24 1223.93 670.01 1225.18
  Q 668.47 1224.81 666.97 1225.08
  Q 666.39 1225.18 666.42 1225.68
  L 666.56 1228.12
  Q 666.62 1229.01 665.65 1229.01
  L 658.99 1229.00
  Q 658.18 1229.00 658.21 1228.26
  L 658.31 1225.89
  Q 658.35 1225.03 657.40 1225.02
  L 650.88 1224.99
  Q 650.04 1224.99 650.03 1225.83
  L 649.97 1232.51
  Q 649.96 1233.26 649.23 1233.24
  L 646.57 1233.16
  Q 645.89 1233.14 645.86 1232.52
  L 645.74 1229.70
  Q 645.72 1229.14 645.19 1229.11
  L 642.19 1228.94
  Q 641.68 1228.91 641.59 1228.35
  L 641.19 1225.93
  Q 680.48 1193.44 717.75 1167.51
  Q 728.59 1159.96 743.35 1153.61
  Q 753.89 1149.07 775.77 1139.74
  Q 784.07 1136.20 795.13 1129.61
  Q 806.40 1122.89 815.99 1113.24
  Q 817.70 1111.53 821.47 1110.18
  Q 825.82 1108.63 829.60 1110.77
  Q 832.48 1112.39 834.43 1116.36
  Q 836.58 1120.75 836.68 1125.53
  Q 837.00 1142.83 834.78 1162.32
  Z
  M 695.7900 1266.9735
  A 0.56 0.56 0.0 0 0 695.2232 1266.4204
  L 691.9835 1266.4600
  A 0.56 0.56 0.0 0 0 691.4304 1267.0268
  L 691.4700 1270.2665
  A 0.56 0.56 0.0 0 0 692.0368 1270.8196
  L 695.2765 1270.7800
  A 0.56 0.56 0.0 0 0 695.8296 1270.2132
  L 695.7900 1266.9735
  Z
  M 845.83 1325.65
  A 0.64 0.64 0.0 0 0 845.19 1325.01
  L 842.03 1325.01
  A 0.64 0.64 0.0 0 0 841.39 1325.65
  L 841.39 1328.39
  A 0.64 0.64 0.0 0 0 842.03 1329.03
  L 845.19 1329.03
  A 0.64 0.64 0.0 0 0 845.83 1328.39
  L 845.83 1325.65
  Z
  M 787.5957 1413.4636
  A 0.98 0.98 0.0 0 0 786.6400 1412.4599
  L 784.2407 1412.4013
  A 0.98 0.98 0.0 0 0 783.2370 1413.3571
  L 783.1843 1415.5164
  A 0.98 0.98 0.0 0 0 784.1400 1416.5201
  L 786.5393 1416.5787
  A 0.98 0.98 0.0 0 0 787.5430 1415.6229
  L 787.5957 1413.4636
  Z"
/>
<path fill="#14e41a" d="
  M 834.78 1162.32
  L 834.16 1166.78
  Q 832.89 1165.98 833.19 1163.50
  Q 833.33 1162.31 834.78 1162.32
  Z"
/>
<path fill="#12ec1e" d="
  M 671.31 1241.29
  Q 671.40 1233.38 670.01 1225.18
  Q 671.24 1223.93 670.74 1221.19
  Q 670.65 1220.73 670.19 1220.73
  L 666.89 1220.76
  Q 666.51 1220.77 666.50 1220.38
  L 666.47 1217.03
  Q 666.47 1216.54 666.97 1216.53
  L 670.29 1216.47
  Q 670.79 1216.46 670.79 1215.96
  L 670.73 1204.75
  Q 670.73 1203.98 671.48 1203.99
  L 674.25 1204.03
  Q 674.97 1204.04 674.97 1204.75
  L 674.96 1216.00
  Q 674.96 1216.55 675.51 1216.54
  L 678.43 1216.45
  Q 678.92 1216.44 678.93 1216.92
  L 679.00 1220.29
  Q 679.01 1220.83 679.54 1220.81
  L 682.40 1220.71
  Q 683.25 1220.68 683.26 1221.63
  L 683.26 1228.03
  Q 683.26 1229.02 682.25 1229.01
  L 675.51 1228.98
  Q 674.97 1228.98 674.97 1229.50
  L 674.96 1232.71
  Q 674.96 1233.22 675.47 1233.22
  L 678.29 1233.25
  A 0.74 0.69 -89.3 0 1 678.98 1234.00
  L 678.94 1236.92
  A 0.63 0.63 0.0 0 1 678.31 1237.55
  L 675.67 1237.53
  A 0.63 0.59 1.2 0 0 675.03 1238.09
  L 674.92 1241.08
  Q 674.90 1241.53 674.38 1241.49
  L 671.31 1241.29
  Z"
/>
<path fill="#000000" d="
  M 628.29 1237.10
  Q 629.48 1238.81 628.90 1240.96
  Q 628.76 1241.47 628.23 1241.45
  L 623.69 1241.31
  L 628.29 1237.10
  Z"
/>
<path fill="#000000" d="
  M 620.70 1244.03
  Q 620.81 1244.62 620.70 1245.06
  Q 620.58 1245.54 620.04 1245.67
  Q 619.46 1245.81 618.76 1245.67
  L 620.70 1244.03
  Z"
/>
<path fill="#000000" d="
  M 591.96 1283.20
  Q 593.76 1283.52 595.40 1283.26
  Q 595.90 1283.18 595.88 1282.68
  L 595.79 1279.49
  A 0.56 0.56 0.0 0 0 595.24 1278.95
  L 592.01 1278.93
  Q 591.46 1278.93 591.47 1279.47
  L 591.51 1282.55
  Q 591.35 1283.25 590.74 1283.24
  Q 588.48 1283.19 587.95 1283.23
  Q 587.42 1283.28 587.43 1283.79
  L 587.51 1294.80
  Q 587.52 1295.78 586.52 1295.78
  L 580.04 1295.77
  Q 578.94 1295.77 578.95 1294.80
  L 579.00 1292.03
  Q 579.01 1291.51 578.44 1291.48
  L 574.40 1291.23
  Q 592.21 1270.45 612.25 1251.76
  Q 611.83 1254.87 616.03 1253.93
  Q 616.57 1253.81 616.56 1253.32
  L 616.53 1250.51
  Q 616.52 1250.01 617.03 1250.02
  L 620.14 1250.03
  Q 620.72 1250.03 620.72 1250.65
  L 620.78 1266.00
  Q 620.78 1266.47 621.25 1266.48
  L 624.37 1266.56
  A 0.57 0.56 88.6 0 1 624.91 1267.09
  L 625.15 1270.24
  Q 625.19 1270.78 625.75 1270.79
  L 628.24 1270.80
  Q 628.79 1270.81 628.84 1270.25
  L 629.10 1267.39
  Q 629.16 1266.78 629.75 1266.78
  L 636.73 1266.72
  Q 637.36 1266.71 637.38 1267.36
  L 637.43 1270.00
  A 0.62 0.62 0.0 0 1 636.81 1270.64
  L 634.11 1270.65
  A 0.92 0.90 -89.7 0 0 633.21 1271.55
  L 633.18 1273.75
  Q 633.16 1274.80 634.17 1274.88
  L 636.63 1275.09
  Q 637.53 1275.17 637.49 1276.12
  L 637.22 1281.92
  A 1.25 1.19 -88.4 0 1 636.03 1283.11
  Q 632.68 1283.09 633.20 1286.10
  A 1.04 1.04 0.0 0 1 632.26 1287.31
  L 629.53 1287.50
  Q 629.08 1287.53 629.07 1287.98
  L 628.93 1294.97
  Q 628.91 1295.68 628.23 1295.69
  L 625.96 1295.72
  Q 625.18 1295.73 625.12 1294.98
  L 624.90 1292.17
  A 0.83 0.60 86.2 0 0 624.25 1291.40
  L 621.25 1291.53
  Q 620.71 1291.55 620.70 1292.29
  L 620.65 1294.96
  Q 620.64 1295.56 620.03 1295.57
  L 612.97 1295.73
  A 0.53 0.53 0.0 0 0 612.45 1296.26
  L 612.45 1299.36
  Q 612.45 1299.91 611.89 1299.93
  L 608.70 1300.06
  Q 608.23 1300.08 608.22 1300.55
  L 608.17 1303.29
  Q 608.16 1303.93 608.79 1303.95
  L 611.94 1304.08
  Q 612.51 1304.10 612.50 1304.69
  L 612.44 1307.52
  A 0.67 0.67 0.0 0 1 611.77 1308.18
  L 608.85 1308.17
  Q 608.35 1308.17 608.31 1308.67
  L 608.13 1311.58
  Q 608.08 1312.38 607.28 1312.43
  L 604.87 1312.60
  Q 604.08 1312.65 604.07 1311.86
  L 603.94 1304.73
  Q 603.93 1304.03 603.23 1304.03
  L 596.25 1304.00
  Q 595.76 1304.00 595.76 1303.50
  L 595.80 1288.00
  Q 595.80 1287.44 595.24 1287.44
  L 592.28 1287.45
  Q 591.85 1287.45 591.71 1287.01
  Q 591.08 1284.91 591.96 1283.20
  Z"
/>
<rect fill="#14e41a" x="-2.18" y="-2.18" transform="translate(693.63,1268.62) rotate(-0.7)" width="4.36" height="4.36" rx="0.56"/>
<path fill="#14e41a" d="
  M 591.96 1283.20
  Q 591.86 1282.94 591.51 1282.55
  L 591.47 1279.47
  Q 591.46 1278.93 592.01 1278.93
  L 595.24 1278.95
  A 0.56 0.56 0.0 0 1 595.79 1279.49
  L 595.88 1282.68
  Q 595.90 1283.18 595.40 1283.26
  Q 593.76 1283.52 591.96 1283.20
  Z"
/>
<path fill="#000000" d="
  M 912.47 1285.57
  L 912.50 1307.47
  Q 912.50 1308.24 911.76 1308.24
  L 905.06 1308.24
  Q 904.00 1308.24 903.96 1307.35
  L 903.85 1304.55
  Q 903.84 1304.08 903.31 1304.08
  Q 901.31 1304.08 900.63 1303.95
  Q 900.09 1303.85 900.07 1303.31
  L 899.90 1296.25
  Q 899.89 1295.62 899.26 1295.64
  L 892.28 1295.77
  A 0.78 0.78 0.0 0 0 891.52 1296.52
  L 891.40 1299.24
  Q 891.37 1299.86 891.99 1299.90
  L 894.93 1300.06
  Q 895.72 1300.10 895.72 1300.92
  L 895.71 1303.26
  Q 895.71 1303.97 895.00 1303.97
  L 888.00 1304.00
  Q 887.50 1304.00 887.50 1304.51
  L 887.49 1311.90
  Q 887.49 1312.54 886.86 1312.53
  L 883.91 1312.51
  Q 883.29 1312.50 883.29 1311.91
  L 883.28 1300.61
  Q 883.28 1300.12 882.77 1300.09
  L 874.17 1299.70
  Q 893.82 1293.62 912.47 1285.57
  Z"
/>
<rect fill="#14e41a" x="841.39" y="1325.01" width="4.44" height="4.02" rx="0.64"/>
<path fill="#14e41a" d="
  M 791.95 1374.72
  L 787.46 1375.29
  Q 787.19 1372.99 787.50 1371.51
  Q 787.69 1370.58 788.59 1370.59
  L 790.81 1370.62
  A 0.84 0.84 0.0 0 1 791.63 1371.53
  Q 791.51 1373.01 791.95 1374.72
  Z"
/>
<rect fill="#14e41a" x="-2.18" y="-2.06" transform="translate(785.39,1414.49) rotate(1.4)" width="4.36" height="4.12" rx="0.98"/>
</svg>
