<?xml version="1.0" encoding="UTF-8" standalone="no"?>
<!DOCTYPE svg PUBLIC "-//W3C//DTD SVG 1.1//EN" "http://www.w3.org/Graphics/SVG/1.1/DTD/svg11.dtd">
<svg xmlns="http://www.w3.org/2000/svg" version="1.1" viewBox="0.00 0.00 1592.00 1592.00" width="1592.00" height="1592.00">
<g stroke-width="2.00" fill="none" stroke-linecap="butt">
<path stroke="#7a2767" vector-effect="non-scaling-stroke" d="
  M 570.48 1295.87
  Q 571.01 1297.61 570.69 1299.29
  A 0.60 0.60 0.0 0 0 571.27 1300.00
  L 574.35 1300.04
  Q 574.99 1300.05 575.00 1299.44
  L 575.03 1296.21
  Q 575.03 1295.70 575.54 1295.71
  L 578.48 1295.78
  Q 578.95 1295.79 578.95 1295.29
  L 578.93 1286.05"
/>
<path stroke="#7a2767" vector-effect="non-scaling-stroke" d="
  M 581.51 1283.17
  L 583.69 1283.20"
/>
<path stroke="#7b55d6" vector-effect="non-scaling-stroke" d="
  M 583.69 1283.20
  L 587.39 1283.05"
/>
<path stroke="#7a2767" vector-effect="non-scaling-stroke" d="
  M 587.39 1283.05
  L 587.53 1291.00
  Q 587.54 1291.51 588.01 1291.50
  L 590.82 1291.44
  Q 591.40 1291.42 591.41 1292.04
  L 591.57 1303.35
  Q 591.58 1303.88 592.16 1303.91
  L 595.80 1304.09"
/>
<path stroke="#8964e5" vector-effect="non-scaling-stroke" d="
  M 595.80 1304.09
  L 595.98 1308.16"
/>
<path stroke="#7a2767" vector-effect="non-scaling-stroke" d="
  M 595.98 1308.16
  L 595.79 1311.46
  Q 595.74 1312.36 596.70 1312.37
  L 598.82 1312.42
  Q 599.82 1312.44 599.90 1311.52
  L 600.10 1308.93
  Q 600.15 1308.25 600.83 1308.24
  L 603.14 1308.23
  A 1.02 0.82 -89.6 0 0 603.96 1307.22
  L 604.06 1300.63
  A 0.58 0.56 -0.4 0 1 604.61 1300.07
  L 611.51 1299.87
  Q 612.39 1299.85 612.37 1299.00
  L 612.25 1295.46"
/>
<path stroke="#7b55d6" vector-effect="non-scaling-stroke" d="
  M 612.25 1295.46
  L 612.78 1291.51"
/>
<path stroke="#7a2767" vector-effect="non-scaling-stroke" d="
  M 612.78 1291.51
  L 615.79 1291.62
  Q 616.33 1291.64 616.38 1292.16
  L 616.67 1294.76
  Q 616.74 1295.36 617.35 1295.44
  Q 621.22 1295.92 624.45 1295.53
  A 0.63 0.62 86.1 0 0 625.00 1294.90
  L 624.96 1292.24
  Q 624.95 1291.50 624.23 1291.51
  L 621.78 1291.57
  Q 620.77 1291.59 620.77 1290.55
  L 620.77 1288.71
  Q 620.78 1287.65 621.86 1287.60
  L 624.30 1287.48
  Q 624.90 1287.45 624.91 1286.89
  L 625.05 1279.58
  Q 625.06 1278.98 625.68 1278.97
  L 628.09 1278.90
  Q 629.05 1278.88 629.03 1277.93
  L 628.99 1276.06
  Q 628.98 1275.07 628.04 1275.06
  L 625.72 1275.03
  Q 625.11 1275.03 625.08 1274.40
  L 624.84 1270.36"
/>
<path stroke="#7b55d6" vector-effect="non-scaling-stroke" d="
  M 624.84 1270.36
  Q 625.21 1268.67 624.81 1267.12
  Q 624.65 1266.51 623.96 1266.51
  L 621.37 1266.54
  Q 620.75 1266.54 620.78 1267.22
  L 620.96 1270.65"
/>
<path stroke="#7a2767" vector-effect="non-scaling-stroke" d="
  M 620.96 1270.65
  L 617.10 1270.82
  Q 616.51 1270.85 616.51 1270.27
  L 616.47 1267.00
  Q 616.47 1266.53 616.00 1266.53
  L 613.00 1266.54
  Q 612.47 1266.54 612.47 1266.00
  L 612.49 1263.03
  A 0.45 0.45 0.0 0 0 612.05 1262.58
  L 608.25 1262.49"
/>
<path stroke="#7b55d6" vector-effect="non-scaling-stroke" d="
  M 608.25 1262.49
  L 608.02 1255.88"
/>
<path stroke="#7a2767" vector-effect="non-scaling-stroke" d="
  M 610.01 1253.93
  L 611.86 1253.90
  Q 612.41 1253.89 612.52 1253.36
  Q 612.67 1252.63 612.20 1251.71"
/>
<path stroke="#7a2767" vector-effect="non-scaling-stroke" d="
  M 662.40 1208.74
  L 662.57 1212.04
  Q 662.59 1212.49 663.00 1212.49
  L 665.86 1212.49
  Q 666.50 1212.49 666.50 1213.10
  L 666.53 1215.99
  Q 666.53 1216.52 666.01 1216.52
  L 658.75 1216.51
  Q 658.28 1216.51 658.27 1216.98
  L 658.23 1220.24
  Q 658.22 1220.76 658.73 1220.75
  L 662.00 1220.69
  A 0.50 0.45 90.0 0 1 662.46 1221.20
  L 662.41 1225.09"
/>
<path stroke="#805adb" vector-effect="non-scaling-stroke" d="
  M 662.41 1225.09
  L 658.90 1225.08
  Q 658.33 1225.07 658.34 1225.64
  L 658.35 1228.83"
/>
<path stroke="#7a2767" vector-effect="non-scaling-stroke" d="
  M 658.35 1228.83
  L 658.32 1237.58"
/>
<path stroke="#7b55d6" vector-effect="non-scaling-stroke" d="
  M 658.32 1237.58
  L 658.32 1240.86
  Q 658.32 1241.42 658.88 1241.41
  L 662.45 1241.32"
/>
<path stroke="#7a2767" vector-effect="non-scaling-stroke" d="
  M 662.45 1241.32
  L 662.46 1245.81"
/>
<path stroke="#7a2767" vector-effect="non-scaling-stroke" d="
  M 662.46 1245.81
  L 658.85 1245.82
  Q 658.23 1245.82 658.24 1246.38
  L 658.26 1249.76
  Q 658.26 1250.00 658.48 1250.00
  L 662.23 1249.99
  Q 662.46 1249.98 662.46 1249.77
  L 662.46 1245.81"
/>
<path stroke="#7a2767" vector-effect="non-scaling-stroke" d="
  M 662.46 1245.81
  L 665.99 1245.77
  Q 666.54 1245.76 666.53 1246.26
  L 666.47 1249.38
  Q 666.45 1250.02 667.11 1250.01
  L 674.51 1249.97
  Q 675.01 1249.96 675.01 1250.50
  L 675.01 1253.63
  Q 675.02 1254.01 674.61 1254.01
  L 671.24 1254.01
  Q 670.73 1254.01 670.73 1254.50
  L 670.74 1257.78
  Q 670.74 1258.29 671.27 1258.28
  L 678.26 1258.20
  A 0.79 0.77 -89.9 0 1 679.03 1259.00
  L 678.99 1261.82
  Q 678.98 1262.42 679.58 1262.48
  Q 681.62 1262.68 683.30 1262.23"
/>
<path stroke="#f751d2" vector-effect="non-scaling-stroke" d="
  M 683.30 1262.23
  Q 684.25 1266.78 683.82 1269.25
  C 683.17 1272.92 680.55 1275.97 678.51 1278.99"
/>
<path stroke="#7a2767" vector-effect="non-scaling-stroke" d="
  M 678.51 1278.99
  L 675.63 1279.08
  Q 675.04 1279.09 675.04 1279.66
  L 674.97 1291.04
  Q 674.97 1291.57 674.43 1291.56
  L 671.26 1291.50
  Q 670.79 1291.49 670.78 1291.96
  L 670.73 1295.21
  Q 670.72 1295.72 671.23 1295.72
  L 678.52 1295.73
  A 0.51 0.48 -89.9 0 1 679.00 1296.24
  L 678.99 1303.52
  A 0.52 0.49 -0.2 0 0 679.51 1304.02
  L 682.73 1303.99
  Q 683.23 1303.98 683.22 1304.48
  L 683.14 1308.32"
/>
<path stroke="#7b55d6" vector-effect="non-scaling-stroke" d="
  M 683.14 1308.32
  L 679.64 1308.30
  Q 679.11 1308.30 679.03 1308.82
  Q 678.38 1313.12 680.46 1312.50"
/>
<path stroke="#f751d2" vector-effect="non-scaling-stroke" d="
  M 680.46 1312.50
  Q 685.52 1316.69 685.26 1322.09
  Q 685.11 1325.25 683.45 1328.97"
/>
<path stroke="#7a2767" vector-effect="non-scaling-stroke" d="
  M 683.45 1328.97
  L 683.21 1332.79
  Q 683.18 1333.27 682.70 1333.26
  L 679.53 1333.22
  Q 679.02 1333.22 679.02 1333.73
  L 678.99 1341.03
  Q 678.99 1341.55 678.45 1341.54
  L 675.51 1341.48
  Q 675.02 1341.46 675.02 1341.98
  L 675.00 1345.26
  Q 674.99 1345.78 675.51 1345.77
  L 682.72 1345.73
  Q 683.19 1345.73 683.20 1346.21
  L 683.27 1350.19"
/>
<path stroke="#7b55d6" vector-effect="non-scaling-stroke" d="
  M 683.27 1350.19
  L 683.29 1353.23
  Q 683.29 1353.76 683.80 1353.88
  Q 685.52 1354.29 687.46 1353.78"
/>
<path stroke="#7a2767" vector-effect="non-scaling-stroke" d="
  M 687.46 1353.78
  L 687.55 1362.02
  Q 687.56 1362.54 688.08 1362.53
  L 690.97 1362.47
  Q 691.48 1362.46 691.49 1362.97
  L 691.53 1366.01
  Q 691.53 1366.47 692.00 1366.47
  L 695.26 1366.48
  Q 695.75 1366.48 695.75 1365.99
  L 695.76 1358.62
  Q 695.76 1358.25 696.13 1358.25
  L 699.59 1358.22
  Q 699.98 1358.21 699.98 1358.60
  L 699.98 1362.01
  A 0.47 0.43 0.6 0 0 700.45 1362.44
  L 704.03 1362.51"
/>
<path stroke="#7b55d6" vector-effect="non-scaling-stroke" d="
  M 704.03 1362.51
  L 704.09 1365.73
  A 0.87 0.87 0.0 0 0 704.95 1366.58
  L 707.48 1366.61
  Q 708.11 1366.62 708.15 1367.23
  L 708.42 1370.73"
/>
<path stroke="#7a2767" vector-effect="non-scaling-stroke" d="
  M 708.42 1370.73
  L 704.51 1370.80
  Q 704.03 1370.81 704.03 1371.22
  L 703.95 1374.45
  Q 703.94 1374.95 703.46 1374.96
  L 700.65 1375.02
  Q 699.96 1375.03 699.97 1375.78
  L 700.00 1378.22
  Q 700.01 1378.96 700.72 1378.97
  L 703.07 1379.02
  Q 704.04 1379.04 704.01 1380.06
  L 703.91 1382.68
  Q 703.89 1383.33 703.24 1383.34
  L 699.81 1383.40"
/>
<path stroke="#7b55d6" vector-effect="non-scaling-stroke" d="
  M 699.81 1383.40
  Q 698.11 1383.10 696.47 1383.38
  Q 695.96 1383.46 695.86 1383.96
  Q 695.53 1385.64 695.96 1387.39"
/>
<path stroke="#7a2767" vector-effect="non-scaling-stroke" d="
  M 695.96 1387.39
  L 692.29 1387.60
  Q 691.66 1387.64 691.62 1388.22
  L 691.47 1390.69
  Q 691.43 1391.32 692.00 1391.35
  L 695.28 1391.56
  Q 695.73 1391.59 695.73 1392.04
  L 695.74 1395.24
  Q 695.74 1395.77 695.25 1395.77
  L 688.36 1395.76
  Q 687.54 1395.76 687.53 1396.56
  L 687.45 1403.14
  Q 687.44 1404.03 688.30 1404.03
  L 691.29 1404.01
  Q 691.50 1404.01 691.50 1404.28
  L 691.50 1408.00
  Q 691.50 1408.27 691.25 1408.27
  L 688.20 1408.26
  Q 687.48 1408.26 687.49 1408.99
  L 687.52 1415.72
  Q 687.53 1416.55 688.43 1416.53
  L 690.96 1416.48
  Q 691.46 1416.46 691.47 1416.96
  L 691.54 1420.27
  A 0.50 0.47 89.6 0 0 692.00 1420.75
  L 695.23 1420.78
  Q 695.72 1420.78 695.72 1420.28
  L 695.74 1412.74
  A 0.27 0.27 0.0 0 1 696.02 1412.46
  L 699.72 1412.45
  Q 699.98 1412.45 699.98 1412.71
  L 700.01 1416.03
  A 0.51 0.49 89.1 0 0 700.51 1416.53
  L 703.49 1416.47
  Q 703.99 1416.46 703.99 1416.98
  L 704.00 1420.28
  Q 704.01 1420.80 704.53 1420.79
  L 707.72 1420.72
  Q 708.25 1420.71 708.25 1421.23
  L 708.23 1424.50
  Q 708.23 1425.01 708.75 1425.01
  L 724.50 1425.00
  A 0.50 0.49 -0.1 0 0 724.99 1424.50
  L 724.99 1421.24
  Q 724.99 1420.71 724.49 1420.72
  L 721.40 1420.81
  A 0.65 0.57 87.8 0 1 720.80 1420.19
  L 720.63 1416.30"
/>
<path stroke="#7b55d6" vector-effect="non-scaling-stroke" d="
  M 720.63 1416.30
  L 720.62 1412.65"
/>
<path stroke="#7a2767" vector-effect="non-scaling-stroke" d="
  M 720.62 1412.65
  L 720.83 1408.84
  Q 720.85 1408.34 721.36 1408.33
  L 733.31 1408.22"
/>
<path stroke="#7b55d6" vector-effect="non-scaling-stroke" d="
  M 733.31 1408.22
  L 736.84 1408.17
  Q 737.40 1408.16 737.41 1407.60
  L 737.45 1404.01"
/>
<path stroke="#7a2767" vector-effect="non-scaling-stroke" d="
  M 737.45 1404.01
  L 740.68 1403.95
  A 0.84 0.84 0.0 0 1 741.53 1404.78
  L 741.52 1411.78
  Q 741.52 1412.55 740.74 1412.55
  L 738.01 1412.52
  Q 737.51 1412.52 737.51 1413.00
  L 737.49 1424.45
  Q 737.48 1424.93 737.96 1424.94
  L 741.67 1425.07"
/>
<path stroke="#7b55d6" vector-effect="non-scaling-stroke" d="
  M 741.67 1425.07
  L 741.57 1428.32
  Q 741.55 1428.91 742.14 1428.90
  L 745.65 1428.83"
/>
<path stroke="#7a2767" vector-effect="non-scaling-stroke" d="
  M 745.65 1428.83
  L 745.70 1432.66
  Q 745.71 1433.28 745.10 1433.28
  L 738.00 1433.28
  Q 737.50 1433.28 737.51 1433.77
  L 737.63 1445.02
  Q 737.64 1445.69 738.25 1445.70
  L 740.79 1445.74
  Q 741.46 1445.75 741.48 1446.53
  L 741.53 1449.06
  Q 741.55 1449.92 740.78 1449.95
  L 738.33 1450.06
  A 0.68 0.64 -2.1 0 0 737.68 1450.72
  L 737.89 1457.27
  Q 737.91 1457.89 738.53 1458.01
  L 740.61 1458.43
  Q 741.13 1458.54 741.20 1459.05
  Q 741.51 1461.47 740.94 1465.70
  Q 740.87 1466.23 740.38 1466.44
  Q 739.60 1466.76 738.76 1466.80
  Q 738.24 1466.83 738.18 1467.34
  L 737.31 1474.46
  Q 737.25 1474.92 736.79 1474.94
  L 734.23 1475.09
  Q 733.38 1475.14 733.38 1476.01
  L 733.38 1478.24
  A 0.67 0.66 0.9 0 0 734.03 1478.89
  L 741.01 1479.11
  Q 741.66 1479.13 741.67 1479.77
  L 741.72 1482.12
  Q 741.74 1482.92 742.64 1483.03
  L 744.65 1483.27
  A 0.89 0.81 -85.6 0 0 745.56 1482.41
  L 745.67 1479.94
  Q 745.71 1479.03 746.61 1479.04
  L 749.16 1479.05
  Q 749.88 1479.05 749.92 1479.78
  L 750.10 1483.46"
/>
<path stroke="#7b55d6" vector-effect="non-scaling-stroke" d="
  M 750.10 1483.46
  Q 749.75 1485.50 750.16 1487.31"
/>
<path stroke="#7a2767" vector-effect="non-scaling-stroke" d="
  M 750.16 1487.31
  L 750.14 1503.29
  Q 750.14 1503.93 750.73 1503.95
  L 753.26 1504.03
  Q 753.87 1504.04 753.87 1504.67
  L 753.87 1508.09"
/>
<path stroke="#7b55d6" vector-effect="non-scaling-stroke" d="
  M 753.87 1508.09
  L 750.94 1508.26
  Q 749.99 1508.31 750.00 1509.27
  L 750.05 1511.52
  Q 750.07 1512.54 751.09 1512.50
  L 753.72 1512.38"
/>
<path stroke="#7a2767" vector-effect="non-scaling-stroke" d="
  M 753.72 1512.38
  L 757.82 1512.43
  Q 758.24 1512.43 758.24 1512.01
  L 758.28 1500.51
  Q 758.28 1500.05 758.74 1500.04
  L 762.00 1499.98
  A 0.48 0.48 0.0 0 0 762.48 1499.50
  L 762.45 1496.26
  A 0.53 0.53 0.0 0 1 762.98 1495.73
  L 770.21 1495.73
  Q 770.70 1495.73 770.70 1495.23
  L 770.67 1487.40"
/>
<path stroke="#7b55d6" vector-effect="non-scaling-stroke" d="
  M 770.67 1487.40
  Q 771.02 1485.63 770.67 1483.87
  Q 770.57 1483.34 770.03 1483.34
  L 766.68 1483.36"
/>
<path stroke="#7a2767" vector-effect="non-scaling-stroke" d="
  M 766.68 1483.36
  L 763.06 1483.30
  A 0.59 0.58 0.5 0 1 762.48 1482.72
  L 762.48 1479.61
  A 0.63 0.62 -89.8 0 1 763.10 1478.97
  L 765.96 1479.00
  Q 766.41 1479.00 766.43 1478.51
  L 766.53 1474.97"
/>
<path stroke="#805adb" vector-effect="non-scaling-stroke" d="
  M 766.53 1474.97
  L 770.12 1474.93
  Q 770.67 1474.93 770.67 1474.38
  L 770.70 1470.79"
/>
<path stroke="#7a2767" vector-effect="non-scaling-stroke" d="
  M 770.70 1470.79
  L 774.40 1470.70
  Q 774.90 1470.69 774.93 1470.19
  L 775.11 1466.32"
/>
<path stroke="#7b55d6" vector-effect="non-scaling-stroke" d="
  M 775.11 1466.32
  L 778.83 1466.42"
/>
<path stroke="#7a2767" vector-effect="non-scaling-stroke" d="
  M 778.83 1466.42
  L 782.65 1466.46
  Q 783.18 1466.46 783.18 1465.93
  L 783.15 1458.02"
/>
<path stroke="#7b55d6" vector-effect="non-scaling-stroke" d="
  M 783.15 1458.02
  L 783.18 1454.24"
/>
<path stroke="#7a2767" vector-effect="non-scaling-stroke" d="
  M 783.18 1454.24
  L 783.19 1450.79
  A 0.85 0.81 -89.7 0 1 784.01 1449.94
  L 790.73 1450.00
  Q 791.70 1450.01 791.63 1450.96
  L 791.49 1452.95
  Q 791.42 1453.98 792.46 1453.98
  L 794.72 1453.98
  Q 795.68 1453.98 795.68 1452.98
  L 795.69 1450.69
  Q 795.69 1450.03 796.59 1450.01
  L 798.89 1449.95
  Q 799.87 1449.93 799.97 1450.89
  L 800.25 1453.42
  Q 800.32 1454.06 800.95 1454.04
  L 803.21 1453.98
  Q 803.97 1453.95 803.97 1453.29
  L 803.92 1446.28
  Q 803.92 1445.66 803.28 1445.69
  L 800.70 1445.82
  A 0.67 0.65 88.8 0 1 800.03 1445.15
  Q 800.06 1436.84 799.82 1433.77
  Q 799.76 1433.01 796.73 1433.38
  Q 795.72 1433.51 795.71 1432.48
  L 795.69 1430.12
  Q 795.68 1429.08 796.77 1429.05
  L 802.85 1428.92
  Q 804.04 1428.90 804.03 1427.68
  L 803.96 1421.85
  Q 803.95 1420.65 802.83 1420.71
  L 800.56 1420.82
  Q 800.04 1420.85 800.03 1420.29
  L 799.91 1413.48
  Q 799.89 1412.50 798.91 1412.53
  L 796.83 1412.61
  Q 795.96 1412.64 795.90 1413.51
  L 795.73 1416.04
  Q 795.70 1416.54 795.20 1416.57
  L 792.18 1416.75
  Q 791.66 1416.78 791.63 1417.33
  L 791.50 1420.09
  Q 791.47 1420.65 790.90 1420.69
  L 788.03 1420.86
  Q 787.48 1420.89 787.48 1420.31
  L 787.48 1413.26
  Q 787.48 1412.67 786.89 1412.67
  L 778.77 1412.64"
/>
<path stroke="#805adb" vector-effect="non-scaling-stroke" d="
  M 778.77 1412.64
  L 775.85 1412.57
  A 0.75 0.75 0.0 0 1 775.12 1411.88
  L 774.84 1408.49"
/>
<path stroke="#7a2767" vector-effect="non-scaling-stroke" d="
  M 774.84 1408.49
  L 775.16 1404.55
  Q 775.21 1404.00 775.73 1404.00
  L 782.69 1403.99
  Q 783.18 1403.99 783.18 1403.48
  L 783.13 1391.22"
/>
<path stroke="#7b55d6" vector-effect="non-scaling-stroke" d="
  M 783.13 1391.22
  Q 783.43 1389.70 783.12 1388.21
  Q 783.02 1387.71 782.52 1387.61
  Q 780.93 1387.28 779.23 1387.76"
/>
<path stroke="#7a2767" vector-effect="non-scaling-stroke" d="
  M 779.23 1387.76
  L 779.15 1378.74"
/>
<path stroke="#805adb" vector-effect="non-scaling-stroke" d="
  M 779.15 1378.74
  Q 780.98 1379.15 782.54 1378.95"
/>
<path stroke="#7b55d6" vector-effect="non-scaling-stroke" d="
  M 782.54 1378.95
  Q 783.35 1379.11 783.07 1381.91
  A 1.20 1.20 0.0 0 0 784.24 1383.23
  L 787.45 1383.29"
/>
<path stroke="#7a2767" vector-effect="non-scaling-stroke" d="
  M 787.45 1383.29
  L 787.65 1386.77
  Q 787.69 1387.39 788.29 1387.39
  L 790.73 1387.40
  Q 791.43 1387.41 791.44 1386.75
  L 791.58 1375.65
  Q 791.58 1375.08 792.10 1375.05
  L 795.09 1374.90
  Q 795.76 1374.87 795.75 1374.16
  L 795.71 1371.53
  Q 795.70 1370.84 795.03 1370.84
  L 792.04 1370.80
  A 0.57 0.57 0.0 0 1 791.48 1370.21
  L 791.61 1362.47"
/>
<path stroke="#7b55d6" vector-effect="non-scaling-stroke" d="
  M 791.61 1362.47
  L 795.62 1362.50"
/>
<path stroke="#7a2767" vector-effect="non-scaling-stroke" d="
  M 795.62 1362.50
  L 795.85 1365.86
  Q 795.89 1366.44 796.47 1366.45
  L 799.35 1366.48
  A 0.66 0.59 0.9 0 1 800.00 1367.08
  L 799.94 1369.83
  Q 799.92 1370.80 801.05 1370.78
  L 807.30 1370.70
  Q 808.24 1370.69 808.25 1369.73
  L 808.27 1363.01
  Q 808.27 1362.44 808.77 1362.46
  L 811.72 1362.57
  Q 812.49 1362.59 812.50 1361.68
  L 812.54 1354.78
  A 0.89 0.81 0.9 0 0 811.67 1353.96
  L 808.06 1353.87"
/>
<path stroke="#7b55d6" vector-effect="non-scaling-stroke" d="
  M 808.06 1353.87
  L 808.20 1350.22"
/>
<path stroke="#7a2767" vector-effect="non-scaling-stroke" d="
  M 808.20 1350.22
  L 808.27 1337.31"
/>
<path stroke="#7b55d6" vector-effect="non-scaling-stroke" d="
  M 808.27 1337.31
  L 812.48 1337.30"
/>
<path stroke="#7a2767" vector-effect="non-scaling-stroke" d="
  M 812.48 1337.30
  L 812.57 1345.07
  Q 812.58 1345.72 813.15 1345.74
  L 815.98 1345.82
  Q 816.51 1345.83 816.50 1346.40
  L 816.46 1349.46
  Q 816.46 1349.98 816.95 1349.98
  L 820.31 1350.01
  A 0.52 0.48 -89.0 0 1 820.79 1350.55
  L 820.72 1353.50
  A 0.53 0.49 -90.0 0 0 821.22 1354.04
  L 824.50 1353.95
  Q 825.03 1353.93 825.02 1354.49
  L 824.98 1357.87
  Q 824.98 1358.26 825.38 1358.26
  L 828.59 1358.26
  Q 828.97 1358.26 828.97 1357.88
  L 829.00 1354.23
  Q 829.01 1353.97 829.27 1353.97
  L 832.90 1354.00
  Q 833.28 1354.00 833.27 1354.39
  L 833.24 1357.99
  A 0.25 0.25 0.0 0 0 833.49 1358.24
  L 837.24 1358.25
  Q 837.48 1358.25 837.48 1358.01
  L 837.53 1350.53
  Q 837.53 1350.05 837.04 1350.04
  L 833.60 1349.98
  Q 833.21 1349.98 833.21 1349.58
  L 833.25 1346.23
  Q 833.26 1345.75 833.76 1345.75
  L 837.00 1345.75
  Q 837.46 1345.75 837.45 1345.28
  L 837.37 1341.34"
/>
<path stroke="#7b55d6" vector-effect="non-scaling-stroke" d="
  M 837.37 1341.34
  L 837.40 1337.56"
/>
<path stroke="#7a2767" vector-effect="non-scaling-stroke" d="
  M 837.40 1337.56
  L 837.55 1333.70
  Q 837.57 1333.21 838.04 1333.21
  L 845.22 1333.26
  Q 845.71 1333.27 845.72 1332.78
  L 845.82 1329.44
  Q 845.83 1329.03 845.44 1329.03
  L 842.36 1329.05
  Q 841.47 1329.05 841.47 1328.20
  L 841.48 1321.68
  Q 841.48 1320.69 842.47 1320.71
  L 845.25 1320.78
  Q 845.74 1320.79 845.75 1320.27
  L 845.77 1317.00
  Q 845.78 1316.50 845.27 1316.50
  L 842.05 1316.55
  Q 841.50 1316.56 841.50 1316.05
  L 841.51 1313.34
  A 0.85 0.68 89.9 0 0 840.83 1312.48
  L 838.17 1312.51
  Q 837.46 1312.52 837.46 1313.36
  L 837.47 1316.36"
/>
<path stroke="#7b55d6" vector-effect="non-scaling-stroke" d="
  M 837.47 1316.36
  Q 835.29 1316.74 833.28 1316.38"
/>
<path stroke="#7a2767" vector-effect="non-scaling-stroke" d="
  M 833.28 1316.38
  L 833.19 1312.97
  Q 833.17 1312.47 832.73 1312.48
  L 829.87 1312.58
  Q 828.97 1312.61 828.99 1311.63
  L 829.02 1309.00
  Q 829.03 1307.99 830.01 1308.19
  Q 831.65 1308.53 833.26 1307.89"
/>
<path stroke="#7a2767" vector-effect="non-scaling-stroke" d="
  M 861.56 1303.14
  Q 865.61 1304.53 870.12 1303.98
  Q 870.63 1303.91 870.69 1303.41
  Q 870.86 1302.03 870.55 1300.75"
/>
<path stroke="#7a2767" vector-effect="non-scaling-stroke" d="
  M 874.98 1299.42
  L 875.14 1308.47"
/>
<path stroke="#7b55d6" vector-effect="non-scaling-stroke" d="
  M 875.14 1308.47
  Q 874.85 1310.30 875.20 1312.02
  Q 875.30 1312.47 875.76 1312.48
  L 878.30 1312.52
  Q 878.79 1312.53 878.81 1312.02
  L 878.94 1308.32"
/>
<path stroke="#7a2767" vector-effect="non-scaling-stroke" d="
  M 878.94 1308.32
  L 886.94 1308.28
  Q 887.48 1308.28 887.48 1307.74
  L 887.50 1304.53
  Q 887.50 1304.06 887.02 1304.05
  L 883.84 1303.99
  Q 883.22 1303.98 883.22 1303.35
  L 883.22 1300.63
  Q 883.22 1300.02 883.85 1300.01
  L 887.00 1299.97
  Q 887.46 1299.96 887.46 1299.50
  L 887.46 1296.62
  Q 887.46 1295.83 888.27 1295.80
  L 890.94 1295.69
  Q 891.47 1295.66 891.48 1296.19
  L 891.52 1299.51
  Q 891.53 1299.97 891.99 1299.98
  L 895.27 1300.03
  Q 895.76 1300.04 895.76 1300.52
  L 895.76 1312.00
  Q 895.77 1312.49 896.24 1312.49
  L 899.47 1312.50
  Q 899.93 1312.50 899.95 1312.04
  L 900.06 1308.59
  Q 900.07 1308.26 900.52 1308.26
  L 903.47 1308.23
  Q 903.93 1308.22 903.94 1308.59
  L 904.04 1312.02
  Q 904.05 1312.49 904.53 1312.49
  L 907.74 1312.48
  A 0.47 0.45 -89.8 0 0 908.19 1312.02
  L 908.25 1304.52
  Q 908.25 1304.00 907.77 1304.01
  L 904.87 1304.08
  Q 903.97 1304.10 903.97 1303.13
  L 903.99 1296.59
  Q 903.99 1295.66 904.86 1295.69
  L 907.98 1295.78
  Q 908.21 1295.78 908.21 1295.51
  L 908.22 1291.76
  Q 908.22 1291.52 908.01 1291.52
  L 904.65 1291.56
  Q 904.14 1291.56 904.08 1291.01
  L 903.92 1289.18"
/>
<path stroke="#012e6f" vector-effect="non-scaling-stroke" d="
  M 608.25 1262.49
  L 608.29 1265.92
  Q 608.29 1266.45 607.77 1266.46
  L 604.52 1266.51
  A 0.51 0.51 0.0 0 1 604.00 1266.01
  L 603.94 1259.76"
/>
<path stroke="#7f59da" vector-effect="non-scaling-stroke" d="
  M 691.56 1262.57
  L 691.48 1266.53"
/>
<path stroke="#845edf" vector-effect="non-scaling-stroke" d="
  M 682.97 1279.11
  Q 680.91 1278.74 679.01 1279.16"
/>
<path stroke="#116ced" vector-effect="non-scaling-stroke" d="
  M 833.02 1320.69
  Q 833.49 1319.10 833.14 1316.62"
/>
<path stroke="#012e6f" vector-effect="non-scaling-stroke" d="
  M 878.94 1308.32
  L 875.14 1308.47"
/>
<path stroke="#7f59da" vector-effect="non-scaling-stroke" d="
  M 683.04 1312.44
  L 680.46 1312.50"
/>
<path stroke="#0761e3" vector-effect="non-scaling-stroke" d="
  M 783.20 1378.50
  Q 783.18 1378.85 782.54 1378.95"
/>
<path stroke="#012e6f" vector-effect="non-scaling-stroke" d="
  M 620.96 1270.65
  Q 623.15 1270.95 624.84 1270.36"
/>
<path stroke="#012e6f" vector-effect="non-scaling-stroke" d="
  M 612.78 1291.51
  L 612.57 1288.84
  Q 612.48 1287.70 611.35 1287.61
  L 609.62 1287.46
  A 1.21 1.21 0.0 0 0 608.32 1288.64
  L 608.21 1294.87
  Q 608.20 1295.48 608.76 1295.66
  Q 610.45 1296.20 612.25 1295.46"
/>
<path stroke="#103e7e" vector-effect="non-scaling-stroke" d="
  M 595.98 1308.16
  Q 597.70 1308.50 599.27 1308.16
  Q 599.77 1308.05 599.89 1307.55
  Q 600.23 1306.09 599.91 1304.64
  Q 599.79 1304.12 599.25 1304.12
  L 595.80 1304.09"
/>
<path stroke="#012e6f" vector-effect="non-scaling-stroke" d="
  M 587.39 1283.05
  Q 588.29 1278.34 585.52 1278.74"
/>
<path stroke="#167071" vector-effect="non-scaling-stroke" d="
  M 712.42 1370.73
  L 708.42 1370.73"
/>
<path stroke="#012e6f" vector-effect="non-scaling-stroke" d="
  M 833.28 1316.38
  Q 833.24 1316.49 833.14 1316.62"
/>
<path stroke="#103e7e" vector-effect="non-scaling-stroke" d="
  M 833.14 1316.62
  L 829.12 1316.57"
/>
<path stroke="#012e6f" vector-effect="non-scaling-stroke" d="
  M 829.12 1316.57
  L 828.89 1313.13
  Q 828.85 1312.56 828.30 1312.55
  L 825.51 1312.49
  Q 825.04 1312.47 825.03 1312.97
  L 824.98 1315.97
  Q 824.97 1316.52 825.52 1316.52
  L 829.04 1316.49"
/>
<path stroke="#103e7e" vector-effect="non-scaling-stroke" d="
  M 829.04 1316.49
  L 829.09 1320.16
  Q 829.10 1320.71 829.65 1320.71
  L 833.02 1320.69"
/>
<path stroke="#012e6f" vector-effect="non-scaling-stroke" d="
  M 833.02 1320.69
  Q 833.45 1322.54 833.16 1324.26
  A 0.65 0.64 4.8 0 0 833.79 1325.02
  L 836.90 1325.01
  A 0.64 0.64 0.0 0 0 837.53 1324.37
  L 837.54 1321.20
  Q 837.54 1320.66 838.07 1320.69
  L 840.55 1320.82
  Q 841.45 1320.87 841.47 1319.99
  L 841.51 1317.59
  A 1.01 1.01 0.0 0 0 840.57 1316.57
  L 837.47 1316.36"
/>
<path stroke="#012e6f" vector-effect="non-scaling-stroke" d="
  M 837.40 1337.56
  L 833.80 1337.59
  Q 833.19 1337.59 833.19 1338.20
  L 833.21 1340.81
  Q 833.22 1341.44 833.85 1341.42
  L 837.37 1341.34"
/>
<path stroke="#012e6f" vector-effect="non-scaling-stroke" d="
  M 812.48 1337.30
  L 812.49 1333.69
  Q 812.49 1333.25 812.04 1333.25
  L 808.58 1333.27
  Q 808.26 1333.28 808.26 1333.59
  L 808.27 1337.31"
/>
<path stroke="#012e6f" vector-effect="non-scaling-stroke" d="
  M 808.20 1350.22
  Q 806.38 1349.79 804.63 1350.06
  Q 804.01 1350.15 804.01 1350.69
  L 803.99 1353.26
  Q 803.99 1353.75 804.52 1353.85
  Q 806.27 1354.16 808.06 1353.87"
/>
<path stroke="#012e6f" vector-effect="non-scaling-stroke" d="
  M 795.62 1362.50
  L 795.55 1358.86
  Q 795.54 1358.28 794.91 1358.28
  L 792.37 1358.26
  Q 791.75 1358.26 791.73 1358.81
  L 791.61 1362.47"
/>
<path stroke="#012e6f" vector-effect="non-scaling-stroke" d="
  M 787.45 1383.29
  L 787.46 1380.14
  A 1.41 1.41 0.0 0 0 785.77 1378.76
  Q 783.77 1379.17 783.20 1378.50"
/>
<path stroke="#063374" vector-effect="non-scaling-stroke" d="
  M 783.20 1378.50
  L 783.25 1375.68
  Q 783.25 1375.14 782.72 1375.12
  L 779.87 1375.00
  Q 779.30 1374.97 779.19 1375.52
  Q 778.86 1377.18 779.15 1378.74"
/>
<path stroke="#012e6f" vector-effect="non-scaling-stroke" d="
  M 779.23 1387.76
  Q 778.77 1389.38 779.22 1390.90
  Q 779.37 1391.38 779.87 1391.45
  Q 781.46 1391.68 783.13 1391.22"
/>
<path stroke="#063374" vector-effect="non-scaling-stroke" d="
  M 774.84 1408.49
  L 771.72 1408.21
  Q 770.83 1408.13 770.82 1408.99
  L 770.75 1415.79
  Q 770.74 1416.57 771.51 1416.55
  L 774.47 1416.46
  Q 774.96 1416.45 774.96 1416.96
  L 775.01 1420.27
  A 0.49 0.49 0.0 0 0 775.50 1420.75
  L 778.51 1420.74
  Q 778.94 1420.74 778.93 1420.32
  L 778.77 1412.64"
/>
<path stroke="#012e6f" vector-effect="non-scaling-stroke" d="
  M 783.18 1454.24
  Q 781.42 1453.75 779.60 1454.11
  Q 779.01 1454.22 779.01 1454.75
  L 779.02 1457.50
  Q 779.02 1458.03 779.61 1458.13
  Q 781.37 1458.44 783.15 1458.02"
/>
<path stroke="#012e6f" vector-effect="non-scaling-stroke" d="
  M 778.83 1466.42
  L 778.92 1463.11
  Q 778.93 1462.51 778.37 1462.50
  L 775.64 1462.46
  Q 775.13 1462.45 775.13 1463.01
  L 775.11 1466.32"
/>
<path stroke="#063374" vector-effect="non-scaling-stroke" d="
  M 770.70 1470.79
  L 767.12 1470.82
  Q 766.57 1470.83 766.56 1471.37
  L 766.53 1474.97"
/>
<path stroke="#012e6f" vector-effect="non-scaling-stroke" d="
  M 766.68 1483.36
  Q 766.23 1485.12 766.56 1486.89
  Q 766.67 1487.42 767.21 1487.42
  L 770.67 1487.40"
/>
<path stroke="#012e6f" vector-effect="non-scaling-stroke" d="
  M 753.72 1512.38
  Q 754.19 1510.30 753.87 1508.09"
/>
<path stroke="#012e6f" vector-effect="non-scaling-stroke" d="
  M 750.16 1487.31
  Q 751.83 1487.79 753.31 1487.42
  Q 753.82 1487.29 753.90 1486.78
  Q 754.14 1485.35 753.91 1483.94
  Q 753.83 1483.44 753.34 1483.30
  Q 751.68 1482.86 750.10 1483.46"
/>
<path stroke="#012e6f" vector-effect="non-scaling-stroke" d="
  M 745.65 1428.83
  L 745.68 1425.65
  Q 745.68 1425.09 745.12 1425.09
  L 741.67 1425.07"
/>
<path stroke="#012e6f" vector-effect="non-scaling-stroke" d="
  M 737.45 1404.01
  L 737.51 1396.25
  Q 737.52 1395.71 736.97 1395.71
  L 733.78 1395.70
  Q 733.25 1395.70 733.26 1396.23
  L 733.31 1408.22"
/>
<path stroke="#012e6f" vector-effect="non-scaling-stroke" d="
  M 720.62 1412.65
  Q 718.80 1412.31 717.01 1412.56
  Q 716.44 1412.64 716.44 1413.22
  L 716.44 1415.79
  A 0.66 0.63 4.3 0 0 717.00 1416.42
  Q 718.84 1416.69 720.63 1416.30"
/>
<path stroke="#012e6f" vector-effect="non-scaling-stroke" d="
  M 695.96 1387.39
  Q 697.85 1387.74 699.45 1387.29
  Q 699.96 1387.15 699.94 1386.62
  L 699.81 1383.40"
/>
<path stroke="#154202" vector-effect="non-scaling-stroke" d="
  M 708.42 1370.73
  L 708.22 1374.37
  Q 708.19 1374.95 708.80 1374.95
  L 711.96 1374.94
  Q 712.60 1374.94 712.57 1374.32
  L 712.42 1370.73"
/>
<path stroke="#012e6f" vector-effect="non-scaling-stroke" d="
  M 712.42 1370.73
  Q 712.71 1368.96 712.38 1367.15
  A 0.69 0.64 84.9 0 0 711.75 1366.58
  L 708.77 1366.52
  Q 708.27 1366.51 708.26 1366.03
  L 708.18 1363.19
  Q 708.17 1362.63 707.56 1362.52
  Q 705.80 1362.21 704.03 1362.51"
/>
<path stroke="#012e6f" vector-effect="non-scaling-stroke" d="
  M 687.46 1353.78
  L 687.41 1350.67
  Q 687.41 1350.13 686.88 1350.06
  Q 685.10 1349.80 683.27 1350.19"
/>
<path stroke="#7e2b6b" vector-effect="non-scaling-stroke" d="
  M 683.45 1328.97
  L 691.04 1328.94
  Q 691.51 1328.94 691.51 1328.47
  L 691.47 1321.26
  Q 691.46 1320.72 691.99 1320.73
  L 699.48 1320.77
  Q 700.00 1320.78 700.00 1320.25
  L 699.99 1316.86
  Q 699.99 1316.47 699.61 1316.47
  L 696.22 1316.49
  Q 695.68 1316.49 695.69 1315.99
  L 695.75 1312.99
  Q 695.76 1312.48 695.25 1312.49
  L 691.96 1312.52
  Q 691.54 1312.53 691.55 1312.09
  L 691.67 1308.21"
/>
<path stroke="#012e6f" vector-effect="non-scaling-stroke" d="
  M 691.67 1308.21
  L 695.26 1308.19
  Q 695.75 1308.19 695.75 1307.70
  L 695.76 1300.27
  Q 695.76 1300.03 695.52 1300.03
  L 691.78 1300.02
  Q 691.53 1300.02 691.53 1300.26
  L 691.55 1308.24"
/>
<path stroke="#7e2b6b" vector-effect="non-scaling-stroke" d="
  M 691.55 1308.24
  L 687.97 1308.28
  Q 687.49 1308.28 687.49 1308.77
  L 687.51 1311.99
  Q 687.51 1312.48 687.01 1312.48
  L 683.04 1312.44"
/>
<path stroke="#012e6f" vector-effect="non-scaling-stroke" d="
  M 683.04 1312.44
  L 683.14 1308.32"
/>
<path stroke="#7e2b6b" vector-effect="non-scaling-stroke" d="
  M 678.51 1278.99
  L 679.01 1279.16"
/>
<path stroke="#063374" vector-effect="non-scaling-stroke" d="
  M 679.01 1279.16
  L 679.11 1282.64
  Q 679.13 1283.23 679.75 1283.23
  L 682.56 1283.26
  Q 683.14 1283.26 683.22 1282.66
  Q 683.47 1280.89 682.97 1279.11"
/>
<path stroke="#7e2b6b" vector-effect="non-scaling-stroke" d="
  M 682.97 1279.11
  L 686.97 1278.86
  Q 687.52 1278.82 687.51 1278.32
  L 687.46 1267.02
  Q 687.46 1266.54 687.96 1266.54
  L 691.48 1266.53"
/>
<path stroke="#012e6f" vector-effect="non-scaling-stroke" d="
  M 691.48 1266.53
  L 691.50 1270.29
  Q 691.50 1270.73 691.95 1270.73
  L 695.30 1270.73
  Q 695.77 1270.73 695.77 1270.26
  L 695.76 1263.06
  Q 695.76 1262.54 695.24 1262.54
  L 691.56 1262.57"
/>
<path stroke="#7e2b6b" vector-effect="non-scaling-stroke" d="
  M 691.56 1262.57
  L 691.45 1258.75
  Q 691.44 1258.23 691.12 1258.23
  L 688.02 1258.25
  Q 687.43 1258.26 687.45 1257.62
  L 687.55 1254.63
  Q 687.57 1254.12 686.97 1254.11
  L 683.14 1253.99"
/>
<path stroke="#012e6f" vector-effect="non-scaling-stroke" d="
  M 683.14 1253.99
  L 683.24 1250.71
  Q 683.27 1249.97 682.52 1249.98
  L 679.62 1249.99
  Q 678.99 1249.99 678.99 1250.62
  L 679.02 1257.62
  A 0.52 0.50 -0.7 0 0 679.54 1258.12
  L 683.18 1258.05"
/>
<path stroke="#7e2b6b" vector-effect="non-scaling-stroke" d="
  M 683.18 1258.05
  L 683.30 1262.23"
/>
<path stroke="#012e6f" vector-effect="non-scaling-stroke" d="
  M 662.45 1241.32
  L 662.46 1238.09
  Q 662.46 1237.54 661.91 1237.55
  L 658.32 1237.58"
/>
<path stroke="#063374" vector-effect="non-scaling-stroke" d="
  M 658.35 1228.83
  L 661.89 1228.92
  Q 662.46 1228.93 662.46 1228.36
  L 662.41 1225.09"
/>
<path stroke="#063374" vector-effect="non-scaling-stroke" d="
  M 791.25 1149.95
  L 799.97 1149.87"
/>
<path stroke="#012e6f" vector-effect="non-scaling-stroke" d="
  M 808.30 1158.25
  L 808.23 1174.65
  Q 808.23 1174.98 808.56 1174.98
  L 812.07 1175.00
  Q 812.49 1175.00 812.49 1174.58
  L 812.49 1158.26"
/>
<path stroke="#012e6f" vector-effect="non-scaling-stroke" d="
  M 812.61 1153.81
  L 820.19 1153.89
  Q 820.82 1153.90 820.80 1153.27
  L 820.73 1150.78
  Q 820.71 1150.20 820.16 1150.15
  L 816.47 1149.87"
/>
<path stroke="#012e6f" vector-effect="non-scaling-stroke" d="
  M 583.69 1283.20
  L 582.76 1281.73"
/>
<path stroke="#7f59da" vector-effect="non-scaling-stroke" d="
  M 683.14 1253.99
  L 683.18 1258.05"
/>
<path stroke="#012e6f" vector-effect="non-scaling-stroke" d="
  M 791.68 1141.52
  Q 791.15 1143.96 791.82 1145.78"
/>
<path stroke="#0761e3" vector-effect="non-scaling-stroke" d="
  M 791.82 1145.78
  L 791.25 1149.95"
/>
<path stroke="#012e6f" vector-effect="non-scaling-stroke" d="
  M 791.25 1149.95
  L 788.03 1149.89
  Q 787.46 1149.88 787.46 1149.38
  L 787.52 1146.25
  Q 787.52 1145.73 787.00 1145.73
  L 783.70 1145.72
  Q 783.21 1145.72 783.22 1145.21
  L 783.29 1142.17
  A 0.62 0.62 0.0 0 0 782.68 1141.54
  Q 779.63 1141.51 775.99 1141.54
  Q 775.34 1141.54 775.11 1141.24
  Q 774.85 1140.89 774.78 1140.24"
/>
<path stroke="#116ced" vector-effect="non-scaling-stroke" d="
  M 829.12 1316.57
  Q 829.08 1316.53 829.04 1316.49"
/>
<path stroke="#7e2b6b" vector-effect="non-scaling-stroke" d="
  M 835.16 1158.21
  Q 832.74 1159.34 833.14 1154.48
  Q 833.17 1154.02 832.75 1154.01
  L 829.52 1154.01
  Q 829.00 1154.01 829.00 1153.50
  L 829.01 1142.00
  Q 829.01 1141.48 828.50 1141.48
  L 821.23 1141.50
  Q 820.72 1141.51 820.72 1140.99
  L 820.72 1137.98
  A 0.48 0.46 89.9 0 0 820.25 1137.50
  L 817.00 1137.51
  Q 816.56 1137.51 816.55 1137.96
  L 816.47 1149.87"
/>
<path stroke="#7f59da" vector-effect="non-scaling-stroke" d="
  M 816.47 1149.87
  L 813.30 1150.13
  Q 812.77 1150.17 812.64 1150.69
  Q 812.27 1152.15 812.61 1153.81"
/>
<path stroke="#7e2b6b" vector-effect="non-scaling-stroke" d="
  M 812.61 1153.81
  L 812.49 1158.26"
/>
<path stroke="#7f59da" vector-effect="non-scaling-stroke" d="
  M 812.49 1158.26
  L 808.30 1158.25"
/>
<path stroke="#7e2b6b" vector-effect="non-scaling-stroke" d="
  M 808.30 1158.25
  L 808.25 1154.64
  A 0.59 0.51 90.0 0 0 807.75 1154.06
  L 804.53 1154.00
  Q 803.99 1153.99 803.99 1153.50
  L 803.98 1150.70
  Q 803.98 1150.13 803.35 1150.09
  L 799.97 1149.87"
/>
<path stroke="#845edf" vector-effect="non-scaling-stroke" d="
  M 799.97 1149.87
  L 799.93 1146.43
  A 0.80 0.80 0.0 0 0 799.11 1145.64
  L 795.65 1145.71"
/>
<path stroke="#7e2b6b" vector-effect="non-scaling-stroke" d="
  M 795.65 1145.71
  L 795.66 1142.10
  Q 795.66 1141.56 795.12 1141.56
  L 791.68 1141.52"
/>
<path stroke="#7f59da" vector-effect="non-scaling-stroke" d="
  M 791.68 1141.52
  L 791.59 1133.90
  A 0.68 0.68 0.0 0 1 792.28 1133.21
  L 799.26 1133.29
  Q 799.75 1133.29 799.86 1132.81
  Q 800.29 1130.99 799.80 1129.14"
/>
<path stroke="#7e2b6b" vector-effect="non-scaling-stroke" d="
  M 799.80 1129.14
  L 803.37 1128.90
  Q 803.88 1128.87 803.95 1128.36
  Q 804.21 1126.41 803.77 1124.54"
/>
<path stroke="#f751d2" vector-effect="non-scaling-stroke" d="
  M 803.77 1124.54
  L 803.70 1123.96"
/>
<path stroke="#7f59da" vector-effect="non-scaling-stroke" d="
  M 691.67 1308.21
  Q 691.61 1308.22 691.55 1308.24"
/>
<path stroke="#063374" vector-effect="non-scaling-stroke" d="
  M 795.65 1145.71
  L 791.82 1145.78"
/>
<path stroke="#012e6f" vector-effect="non-scaling-stroke" d="
  M 799.80 1129.14
  L 796.67 1128.78"
/>
<path stroke="#7a2767" vector-effect="non-scaling-stroke" d="
  M 803.77 1124.54
  Q 803.31 1124.53 802.98 1124.41"
/>
<path stroke="#063374" vector-effect="non-scaling-stroke" d="
  M 791.4968 1154.2865
  A 0.26 0.26 0.0 0 0 791.2363 1154.0270
  L 787.7763 1154.0330
  A 0.26 0.26 0.0 0 0 787.5168 1154.2935
  L 787.5232 1157.9735
  A 0.26 0.26 0.0 0 0 787.7837 1158.2330
  L 791.2437 1158.2270
  A 0.26 0.26 0.0 0 0 791.5032 1157.9665
  L 791.4968 1154.2865"
/>
<path stroke="#063374" vector-effect="non-scaling-stroke" d="
  M 670.7772 1208.7324
  A 0.48 0.48 0.0 0 0 670.3022 1208.2474
  L 667.0024 1208.2128
  A 0.48 0.48 0.0 0 0 666.5174 1208.6878
  L 666.4828 1211.9876
  A 0.48 0.48 0.0 0 0 666.9578 1212.4726
  L 670.2576 1212.5072
  A 0.48 0.48 0.0 0 0 670.7426 1212.0322
  L 670.7772 1208.7324"
/>
<path stroke="#063374" vector-effect="non-scaling-stroke" d="
  M 691.4689 1237.8519
  A 0.40 0.40 0.0 0 0 691.0613 1237.4597
  L 687.8619 1237.5211
  A 0.40 0.40 0.0 0 0 687.4697 1237.9287
  L 687.5311 1241.1281
  A 0.40 0.40 0.0 0 0 687.9387 1241.5203
  L 691.1381 1241.4589
  A 0.40 0.40 0.0 0 0 691.5303 1241.0513
  L 691.4689 1237.8519"
/>
<path stroke="#012e6f" vector-effect="non-scaling-stroke" d="
  M 687.4829 1246.1269
  A 0.41 0.41 0.0 0 0 687.0665 1245.7234
  L 683.6469 1245.7771
  A 0.41 0.41 0.0 0 0 683.2434 1246.1935
  L 683.2971 1249.6131
  A 0.41 0.41 0.0 0 0 683.7135 1250.0166
  L 687.1331 1249.9629
  A 0.41 0.41 0.0 0 0 687.5366 1249.5465
  L 687.4829 1246.1269"
/>
<path stroke="#012e6f" vector-effect="non-scaling-stroke" d="
  M 820.7817 1341.9451
  A 0.46 0.46 0.0 0 0 820.3249 1341.4819
  L 816.9450 1341.4583
  A 0.46 0.46 0.0 0 0 816.4818 1341.9150
  L 816.4583 1345.2749
  A 0.46 0.46 0.0 0 0 816.9151 1345.7381
  L 820.2950 1345.7617
  A 0.46 0.46 0.0 0 0 820.7582 1345.3050
  L 820.7817 1341.9451"
/>
<path stroke="#012e6f" vector-effect="non-scaling-stroke" d="
  M 724.9835 1396.1063
  A 0.37 0.37 0.0 0 0 724.6128 1395.7370
  L 721.1328 1395.7430
  A 0.37 0.37 0.0 0 0 720.7635 1396.1137
  L 720.7765 1403.6137
  A 0.37 0.37 0.0 0 0 721.1472 1403.9830
  L 724.6272 1403.9770
  A 0.37 0.37 0.0 0 0 724.9965 1403.6063
  L 724.9835 1396.1063"
/>
<path stroke="#012e6f" vector-effect="non-scaling-stroke" d="
  M 712.5109 1412.9238
  A 0.47 0.47 0.0 0 0 712.0352 1412.4596
  L 708.6754 1412.5007
  A 0.47 0.47 0.0 0 0 708.2112 1412.9764
  L 708.2491 1416.0762
  A 0.47 0.47 0.0 0 0 708.7248 1416.5404
  L 712.0846 1416.4993
  A 0.47 0.47 0.0 0 0 712.5488 1416.0236
  L 712.5109 1412.9238"
/>
<path stroke="#012e6f" vector-effect="non-scaling-stroke" d="
  M 783.36 1424.99
  L 783.33 1428.34
  Q 783.32 1428.99 783.97 1428.98
  L 786.80 1428.97
  Q 787.41 1428.96 787.40 1428.34
  L 787.36 1425.01"
/>
<path stroke="#7e2b6b" vector-effect="non-scaling-stroke" d="
  M 787.36 1425.01
  L 787.43 1421.06
  Q 787.43 1420.75 787.12 1420.76
  L 783.55 1420.80
  Q 783.28 1420.81 783.29 1421.07
  L 783.36 1424.99"
/>
<path stroke="#7f59da" vector-effect="non-scaling-stroke" d="
  M 787.36 1425.01
  L 783.36 1424.99"
/>
<path stroke="#7e2b6b" vector-effect="non-scaling-stroke" d="
  M 783.2745 1446.2826
  A 0.55 0.55 0.0 0 0 782.7226 1445.7345
  L 779.5826 1445.7455
  A 0.55 0.55 0.0 0 0 779.0345 1446.2974
  L 779.0455 1449.4374
  A 0.55 0.55 0.0 0 0 779.5974 1449.9855
  L 782.7374 1449.9745
  A 0.55 0.55 0.0 0 0 783.2855 1449.4226
  L 783.2745 1446.2826"
/>
<path stroke="#012e6f" vector-effect="non-scaling-stroke" d="
  M 616.4828 1271.2735
  A 0.50 0.50 0.0 0 0 615.9837 1270.7726
  L 613.0037 1270.7674
  A 0.50 0.50 0.0 0 0 612.5028 1271.2665
  L 612.4972 1274.4665
  A 0.50 0.50 0.0 0 0 612.9963 1274.9674
  L 615.9763 1274.9726
  A 0.50 0.50 0.0 0 0 616.4772 1274.4735
  L 616.4828 1271.2735"
/>
</g>
<path fill="#f34dce" d="
  M 570.48 1295.87
  Q 571.01 1297.61 570.69 1299.29
  A 0.60 0.60 0.0 0 0 571.27 1300.00
  L 574.35 1300.04
  Q 574.99 1300.05 575.00 1299.44
  L 575.03 1296.21
  Q 575.03 1295.70 575.54 1295.71
  L 578.48 1295.78
  Q 578.95 1295.79 578.95 1295.29
  L 578.93 1286.05
  L 581.51 1283.17
  L 583.69 1283.20
  L 587.39 1283.05
  L 587.53 1291.00
  Q 587.54 1291.51 588.01 1291.50
  L 590.82 1291.44
  Q 591.40 1291.42 591.41 1292.04
  L 591.57 1303.35
  Q 591.58 1303.88 592.16 1303.91
  L 595.80 1304.09
  L 595.98 1308.16
  L 595.79 1311.46
  Q 595.74 1312.36 596.70 1312.37
  L 598.82 1312.42
  Q 599.82 1312.44 599.90 1311.52
  L 600.10 1308.93
  Q 600.15 1308.25 600.83 1308.24
  L 603.14 1308.23
  A 1.02 0.82 -89.6 0 0 603.96 1307.22
  L 604.06 1300.63
  A 0.58 0.56 -0.4 0 1 604.61 1300.07
  L 611.51 1299.87
  Q 612.39 1299.85 612.37 1299.00
  L 612.25 1295.46
  L 612.78 1291.51
  L 615.79 1291.62
  Q 616.33 1291.64 616.38 1292.16
  L 616.67 1294.76
  Q 616.74 1295.36 617.35 1295.44
  Q 621.22 1295.92 624.45 1295.53
  A 0.63 0.62 86.1 0 0 625.00 1294.90
  L 624.96 1292.24
  Q 624.95 1291.50 624.23 1291.51
  L 621.78 1291.57
  Q 620.77 1291.59 620.77 1290.55
  L 620.77 1288.71
  Q 620.78 1287.65 621.86 1287.60
  L 624.30 1287.48
  Q 624.90 1287.45 624.91 1286.89
  L 625.05 1279.58
  Q 625.06 1278.98 625.68 1278.97
  L 628.09 1278.90
  Q 629.05 1278.88 629.03 1277.93
  L 628.99 1276.06
  Q 628.98 1275.07 628.04 1275.06
  L 625.72 1275.03
  Q 625.11 1275.03 625.08 1274.40
  L 624.84 1270.36
  Q 625.21 1268.67 624.81 1267.12
  Q 624.65 1266.51 623.96 1266.51
  L 621.37 1266.54
  Q 620.75 1266.54 620.78 1267.22
  L 620.96 1270.65
  L 617.10 1270.82
  Q 616.51 1270.85 616.51 1270.27
  L 616.47 1267.00
  Q 616.47 1266.53 616.00 1266.53
  L 613.00 1266.54
  Q 612.47 1266.54 612.47 1266.00
  L 612.49 1263.03
  A 0.45 0.45 0.0 0 0 612.05 1262.58
  L 608.25 1262.49
  L 608.02 1255.88
  L 610.01 1253.93
  L 611.86 1253.90
  Q 612.41 1253.89 612.52 1253.36
  Q 612.67 1252.63 612.20 1251.71
  Q 636.34 1229.18 662.40 1208.74
  L 662.57 1212.04
  Q 662.59 1212.49 663.00 1212.49
  L 665.86 1212.49
  Q 666.50 1212.49 666.50 1213.10
  L 666.53 1215.99
  Q 666.53 1216.52 666.01 1216.52
  L 658.75 1216.51
  Q 658.28 1216.51 658.27 1216.98
  L 658.23 1220.24
  Q 658.22 1220.76 658.73 1220.75
  L 662.00 1220.69
  A 0.50 0.45 90.0 0 1 662.46 1221.20
  L 662.41 1225.09
  L 658.90 1225.08
  Q 658.33 1225.07 658.34 1225.64
  L 658.35 1228.83
  L 658.32 1237.58
  L 658.32 1240.86
  Q 658.32 1241.42 658.88 1241.41
  L 662.45 1241.32
  L 662.46 1245.81
  L 658.85 1245.82
  Q 658.23 1245.82 658.24 1246.38
  L 658.26 1249.76
  Q 658.26 1250.00 658.48 1250.00
  L 662.23 1249.99
  Q 662.46 1249.98 662.46 1249.77
  L 662.46 1245.81
  L 665.99 1245.77
  Q 666.54 1245.76 666.53 1246.26
  L 666.47 1249.38
  Q 666.45 1250.02 667.11 1250.01
  L 674.51 1249.97
  Q 675.01 1249.96 675.01 1250.50
  L 675.01 1253.63
  Q 675.02 1254.01 674.61 1254.01
  L 671.24 1254.01
  Q 670.73 1254.01 670.73 1254.50
  L 670.74 1257.78
  Q 670.74 1258.29 671.27 1258.28
  L 678.26 1258.20
  A 0.79 0.77 -89.9 0 1 679.03 1259.00
  L 678.99 1261.82
  Q 678.98 1262.42 679.58 1262.48
  Q 681.62 1262.68 683.30 1262.23
  Q 684.25 1266.78 683.82 1269.25
  C 683.17 1272.92 680.55 1275.97 678.51 1278.99
  L 675.63 1279.08
  Q 675.04 1279.09 675.04 1279.66
  L 674.97 1291.04
  Q 674.97 1291.57 674.43 1291.56
  L 671.26 1291.50
  Q 670.79 1291.49 670.78 1291.96
  L 670.73 1295.21
  Q 670.72 1295.72 671.23 1295.72
  L 678.52 1295.73
  A 0.51 0.48 -89.9 0 1 679.00 1296.24
  L 678.99 1303.52
  A 0.52 0.49 -0.2 0 0 679.51 1304.02
  L 682.73 1303.99
  Q 683.23 1303.98 683.22 1304.48
  L 683.14 1308.32
  L 679.64 1308.30
  Q 679.11 1308.30 679.03 1308.82
  Q 678.38 1313.12 680.46 1312.50
  Q 685.52 1316.69 685.26 1322.09
  Q 685.11 1325.25 683.45 1328.97
  L 683.21 1332.79
  Q 683.18 1333.27 682.70 1333.26
  L 679.53 1333.22
  Q 679.02 1333.22 679.02 1333.73
  L 678.99 1341.03
  Q 678.99 1341.55 678.45 1341.54
  L 675.51 1341.48
  Q 675.02 1341.46 675.02 1341.98
  L 675.00 1345.26
  Q 674.99 1345.78 675.51 1345.77
  L 682.72 1345.73
  Q 683.19 1345.73 683.20 1346.21
  L 683.27 1350.19
  L 683.29 1353.23
  Q 683.29 1353.76 683.80 1353.88
  Q 685.52 1354.29 687.46 1353.78
  L 687.55 1362.02
  Q 687.56 1362.54 688.08 1362.53
  L 690.97 1362.47
  Q 691.48 1362.46 691.49 1362.97
  L 691.53 1366.01
  Q 691.53 1366.47 692.00 1366.47
  L 695.26 1366.48
  Q 695.75 1366.48 695.75 1365.99
  L 695.76 1358.62
  Q 695.76 1358.25 696.13 1358.25
  L 699.59 1358.22
  Q 699.98 1358.21 699.98 1358.60
  L 699.98 1362.01
  A 0.47 0.43 0.6 0 0 700.45 1362.44
  L 704.03 1362.51
  L 704.09 1365.73
  A 0.87 0.87 0.0 0 0 704.95 1366.58
  L 707.48 1366.61
  Q 708.11 1366.62 708.15 1367.23
  L 708.42 1370.73
  L 704.51 1370.80
  Q 704.03 1370.81 704.03 1371.22
  L 703.95 1374.45
  Q 703.94 1374.95 703.46 1374.96
  L 700.65 1375.02
  Q 699.96 1375.03 699.97 1375.78
  L 700.00 1378.22
  Q 700.01 1378.96 700.72 1378.97
  L 703.07 1379.02
  Q 704.04 1379.04 704.01 1380.06
  L 703.91 1382.68
  Q 703.89 1383.33 703.24 1383.34
  L 699.81 1383.40
  Q 698.11 1383.10 696.47 1383.38
  Q 695.96 1383.46 695.86 1383.96
  Q 695.53 1385.64 695.96 1387.39
  L 692.29 1387.60
  Q 691.66 1387.64 691.62 1388.22
  L 691.47 1390.69
  Q 691.43 1391.32 692.00 1391.35
  L 695.28 1391.56
  Q 695.73 1391.59 695.73 1392.04
  L 695.74 1395.24
  Q 695.74 1395.77 695.25 1395.77
  L 688.36 1395.76
  Q 687.54 1395.76 687.53 1396.56
  L 687.45 1403.14
  Q 687.44 1404.03 688.30 1404.03
  L 691.29 1404.01
  Q 691.50 1404.01 691.50 1404.28
  L 691.50 1408.00
  Q 691.50 1408.27 691.25 1408.27
  L 688.20 1408.26
  Q 687.48 1408.26 687.49 1408.99
  L 687.52 1415.72
  Q 687.53 1416.55 688.43 1416.53
  L 690.96 1416.48
  Q 691.46 1416.46 691.47 1416.96
  L 691.54 1420.27
  A 0.50 0.47 89.6 0 0 692.00 1420.75
  L 695.23 1420.78
  Q 695.72 1420.78 695.72 1420.28
  L 695.74 1412.74
  A 0.27 0.27 0.0 0 1 696.02 1412.46
  L 699.72 1412.45
  Q 699.98 1412.45 699.98 1412.71
  L 700.01 1416.03
  A 0.51 0.49 89.1 0 0 700.51 1416.53
  L 703.49 1416.47
  Q 703.99 1416.46 703.99 1416.98
  L 704.00 1420.28
  Q 704.01 1420.80 704.53 1420.79
  L 707.72 1420.72
  Q 708.25 1420.71 708.25 1421.23
  L 708.23 1424.50
  Q 708.23 1425.01 708.75 1425.01
  L 724.50 1425.00
  A 0.50 0.49 -0.1 0 0 724.99 1424.50
  L 724.99 1421.24
  Q 724.99 1420.71 724.49 1420.72
  L 721.40 1420.81
  A 0.65 0.57 87.8 0 1 720.80 1420.19
  L 720.63 1416.30
  L 720.62 1412.65
  L 720.83 1408.84
  Q 720.85 1408.34 721.36 1408.33
  L 733.31 1408.22
  L 736.84 1408.17
  Q 737.40 1408.16 737.41 1407.60
  L 737.45 1404.01
  L 740.68 1403.95
  A 0.84 0.84 0.0 0 1 741.53 1404.78
  L 741.52 1411.78
  Q 741.52 1412.55 740.74 1412.55
  L 738.01 1412.52
  Q 737.51 1412.52 737.51 1413.00
  L 737.49 1424.45
  Q 737.48 1424.93 737.96 1424.94
  L 741.67 1425.07
  L 741.57 1428.32
  Q 741.55 1428.91 742.14 1428.90
  L 745.65 1428.83
  L 745.70 1432.66
  Q 745.71 1433.28 745.10 1433.28
  L 738.00 1433.28
  Q 737.50 1433.28 737.51 1433.77
  L 737.63 1445.02
  Q 737.64 1445.69 738.25 1445.70
  L 740.79 1445.74
  Q 741.46 1445.75 741.48 1446.53
  L 741.53 1449.06
  Q 741.55 1449.92 740.78 1449.95
  L 738.33 1450.06
  A 0.68 0.64 -2.1 0 0 737.68 1450.72
  L 737.89 1457.27
  Q 737.91 1457.89 738.53 1458.01
  L 740.61 1458.43
  Q 741.13 1458.54 741.20 1459.05
  Q 741.51 1461.47 740.94 1465.70
  Q 740.87 1466.23 740.38 1466.44
  Q 739.60 1466.76 738.76 1466.80
  Q 738.24 1466.83 738.18 1467.34
  L 737.31 1474.46
  Q 737.25 1474.92 736.79 1474.94
  L 734.23 1475.09
  Q 733.38 1475.14 733.38 1476.01
  L 733.38 1478.24
  A 0.67 0.66 0.9 0 0 734.03 1478.89
  L 741.01 1479.11
  Q 741.66 1479.13 741.67 1479.77
  L 741.72 1482.12
  Q 741.74 1482.92 742.64 1483.03
  L 744.65 1483.27
  A 0.89 0.81 -85.6 0 0 745.56 1482.41
  L 745.67 1479.94
  Q 745.71 1479.03 746.61 1479.04
  L 749.16 1479.05
  Q 749.88 1479.05 749.92 1479.78
  L 750.10 1483.46
  Q 749.75 1485.50 750.16 1487.31
  L 750.14 1503.29
  Q 750.14 1503.93 750.73 1503.95
  L 753.26 1504.03
  Q 753.87 1504.04 753.87 1504.67
  L 753.87 1508.09
  L 750.94 1508.26
  Q 749.99 1508.31 750.00 1509.27
  L 750.05 1511.52
  Q 750.07 1512.54 751.09 1512.50
  L 753.72 1512.38
  L 757.82 1512.43
  Q 758.24 1512.43 758.24 1512.01
  L 758.28 1500.51
  Q 758.28 1500.05 758.74 1500.04
  L 762.00 1499.98
  A 0.48 0.48 0.0 0 0 762.48 1499.50
  L 762.45 1496.26
  A 0.53 0.53 0.0 0 1 762.98 1495.73
  L 770.21 1495.73
  Q 770.70 1495.73 770.70 1495.23
  L 770.67 1487.40
  Q 771.02 1485.63 770.67 1483.87
  Q 770.57 1483.34 770.03 1483.34
  L 766.68 1483.36
  L 763.06 1483.30
  A 0.59 0.58 0.5 0 1 762.48 1482.72
  L 762.48 1479.61
  A 0.63 0.62 -89.8 0 1 763.10 1478.97
  L 765.96 1479.00
  Q 766.41 1479.00 766.43 1478.51
  L 766.53 1474.97
  L 770.12 1474.93
  Q 770.67 1474.93 770.67 1474.38
  L 770.70 1470.79
  L 774.40 1470.70
  Q 774.90 1470.69 774.93 1470.19
  L 775.11 1466.32
  L 778.83 1466.42
  L 782.65 1466.46
  Q 783.18 1466.46 783.18 1465.93
  L 783.15 1458.02
  L 783.18 1454.24
  L 783.19 1450.79
  A 0.85 0.81 -89.7 0 1 784.01 1449.94
  L 790.73 1450.00
  Q 791.70 1450.01 791.63 1450.96
  L 791.49 1452.95
  Q 791.42 1453.98 792.46 1453.98
  L 794.72 1453.98
  Q 795.68 1453.98 795.68 1452.98
  L 795.69 1450.69
  Q 795.69 1450.03 796.59 1450.01
  L 798.89 1449.95
  Q 799.87 1449.93 799.97 1450.89
  L 800.25 1453.42
  Q 800.32 1454.06 800.95 1454.04
  L 803.21 1453.98
  Q 803.97 1453.95 803.97 1453.29
  L 803.92 1446.28
  Q 803.92 1445.66 803.28 1445.69
  L 800.70 1445.82
  A 0.67 0.65 88.8 0 1 800.03 1445.15
  Q 800.06 1436.84 799.82 1433.77
  Q 799.76 1433.01 796.73 1433.38
  Q 795.72 1433.51 795.71 1432.48
  L 795.69 1430.12
  Q 795.68 1429.08 796.77 1429.05
  L 802.85 1428.92
  Q 804.04 1428.90 804.03 1427.68
  L 803.96 1421.85
  Q 803.95 1420.65 802.83 1420.71
  L 800.56 1420.82
  Q 800.04 1420.85 800.03 1420.29
  L 799.91 1413.48
  Q 799.89 1412.50 798.91 1412.53
  L 796.83 1412.61
  Q 795.96 1412.64 795.90 1413.51
  L 795.73 1416.04
  Q 795.70 1416.54 795.20 1416.57
  L 792.18 1416.75
  Q 791.66 1416.78 791.63 1417.33
  L 791.50 1420.09
  Q 791.47 1420.65 790.90 1420.69
  L 788.03 1420.86
  Q 787.48 1420.89 787.48 1420.31
  L 787.48 1413.26
  Q 787.48 1412.67 786.89 1412.67
  L 778.77 1412.64
  L 775.85 1412.57
  A 0.75 0.75 0.0 0 1 775.12 1411.88
  L 774.84 1408.49
  L 775.16 1404.55
  Q 775.21 1404.00 775.73 1404.00
  L 782.69 1403.99
  Q 783.18 1403.99 783.18 1403.48
  L 783.13 1391.22
  Q 783.43 1389.70 783.12 1388.21
  Q 783.02 1387.71 782.52 1387.61
  Q 780.93 1387.28 779.23 1387.76
  L 779.15 1378.74
  Q 780.98 1379.15 782.54 1378.95
  Q 783.35 1379.11 783.07 1381.91
  A 1.20 1.20 0.0 0 0 784.24 1383.23
  L 787.45 1383.29
  L 787.65 1386.77
  Q 787.69 1387.39 788.29 1387.39
  L 790.73 1387.40
  Q 791.43 1387.41 791.44 1386.75
  L 791.58 1375.65
  Q 791.58 1375.08 792.10 1375.05
  L 795.09 1374.90
  Q 795.76 1374.87 795.75 1374.16
  L 795.71 1371.53
  Q 795.70 1370.84 795.03 1370.84
  L 792.04 1370.80
  A 0.57 0.57 0.0 0 1 791.48 1370.21
  L 791.61 1362.47
  L 795.62 1362.50
  L 795.85 1365.86
  Q 795.89 1366.44 796.47 1366.45
  L 799.35 1366.48
  A 0.66 0.59 0.9 0 1 800.00 1367.08
  L 799.94 1369.83
  Q 799.92 1370.80 801.05 1370.78
  L 807.30 1370.70
  Q 808.24 1370.69 808.25 1369.73
  L 808.27 1363.01
  Q 808.27 1362.44 808.77 1362.46
  L 811.72 1362.57
  Q 812.49 1362.59 812.50 1361.68
  L 812.54 1354.78
  A 0.89 0.81 0.9 0 0 811.67 1353.96
  L 808.06 1353.87
  L 808.20 1350.22
  L 808.27 1337.31
  L 812.48 1337.30
  L 812.57 1345.07
  Q 812.58 1345.72 813.15 1345.74
  L 815.98 1345.82
  Q 816.51 1345.83 816.50 1346.40
  L 816.46 1349.46
  Q 816.46 1349.98 816.95 1349.98
  L 820.31 1350.01
  A 0.52 0.48 -89.0 0 1 820.79 1350.55
  L 820.72 1353.50
  A 0.53 0.49 -90.0 0 0 821.22 1354.04
  L 824.50 1353.95
  Q 825.03 1353.93 825.02 1354.49
  L 824.98 1357.87
  Q 824.98 1358.26 825.38 1358.26
  L 828.59 1358.26
  Q 828.97 1358.26 828.97 1357.88
  L 829.00 1354.23
  Q 829.01 1353.97 829.27 1353.97
  L 832.90 1354.00
  Q 833.28 1354.00 833.27 1354.39
  L 833.24 1357.99
  A 0.25 0.25 0.0 0 0 833.49 1358.24
  L 837.24 1358.25
  Q 837.48 1358.25 837.48 1358.01
  L 837.53 1350.53
  Q 837.53 1350.05 837.04 1350.04
  L 833.60 1349.98
  Q 833.21 1349.98 833.21 1349.58
  L 833.25 1346.23
  Q 833.26 1345.75 833.76 1345.75
  L 837.00 1345.75
  Q 837.46 1345.75 837.45 1345.28
  L 837.37 1341.34
  L 837.40 1337.56
  L 837.55 1333.70
  Q 837.57 1333.21 838.04 1333.21
  L 845.22 1333.26
  Q 845.71 1333.27 845.72 1332.78
  L 845.82 1329.44
  Q 845.83 1329.03 845.44 1329.03
  L 842.36 1329.05
  Q 841.47 1329.05 841.47 1328.20
  L 841.48 1321.68
  Q 841.48 1320.69 842.47 1320.71
  L 845.25 1320.78
  Q 845.74 1320.79 845.75 1320.27
  L 845.77 1317.00
  Q 845.78 1316.50 845.27 1316.50
  L 842.05 1316.55
  Q 841.50 1316.56 841.50 1316.05
  L 841.51 1313.34
  A 0.85 0.68 89.9 0 0 840.83 1312.48
  L 838.17 1312.51
  Q 837.46 1312.52 837.46 1313.36
  L 837.47 1316.36
  Q 835.29 1316.74 833.28 1316.38
  L 833.19 1312.97
  Q 833.17 1312.47 832.73 1312.48
  L 829.87 1312.58
  Q 828.97 1312.61 828.99 1311.63
  L 829.02 1309.00
  Q 829.03 1307.99 830.01 1308.19
  Q 831.65 1308.53 833.26 1307.89
  Q 847.74 1307.02 861.56 1303.14
  Q 865.61 1304.53 870.12 1303.98
  Q 870.63 1303.91 870.69 1303.41
  Q 870.86 1302.03 870.55 1300.75
  L 874.98 1299.42
  L 875.14 1308.47
  Q 874.85 1310.30 875.20 1312.02
  Q 875.30 1312.47 875.76 1312.48
  L 878.30 1312.52
  Q 878.79 1312.53 878.81 1312.02
  L 878.94 1308.32
  L 886.94 1308.28
  Q 887.48 1308.28 887.48 1307.74
  L 887.50 1304.53
  Q 887.50 1304.06 887.02 1304.05
  L 883.84 1303.99
  Q 883.22 1303.98 883.22 1303.35
  L 883.22 1300.63
  Q 883.22 1300.02 883.85 1300.01
  L 887.00 1299.97
  Q 887.46 1299.96 887.46 1299.50
  L 887.46 1296.62
  Q 887.46 1295.83 888.27 1295.80
  L 890.94 1295.69
  Q 891.47 1295.66 891.48 1296.19
  L 891.52 1299.51
  Q 891.53 1299.97 891.99 1299.98
  L 895.27 1300.03
  Q 895.76 1300.04 895.76 1300.52
  L 895.76 1312.00
  Q 895.77 1312.49 896.24 1312.49
  L 899.47 1312.50
  Q 899.93 1312.50 899.95 1312.04
  L 900.06 1308.59
  Q 900.07 1308.26 900.52 1308.26
  L 903.47 1308.23
  Q 903.93 1308.22 903.94 1308.59
  L 904.04 1312.02
  Q 904.05 1312.49 904.53 1312.49
  L 907.74 1312.48
  A 0.47 0.45 -89.8 0 0 908.19 1312.02
  L 908.25 1304.52
  Q 908.25 1304.00 907.77 1304.01
  L 904.87 1304.08
  Q 903.97 1304.10 903.97 1303.13
  L 903.99 1296.59
  Q 903.99 1295.66 904.86 1295.69
  L 907.98 1295.78
  Q 908.21 1295.78 908.21 1295.51
  L 908.22 1291.76
  Q 908.22 1291.52 908.01 1291.52
  L 904.65 1291.56
  Q 904.14 1291.56 904.08 1291.01
  L 903.92 1289.18
  Q 935.12 1276.27 964.20 1258.95
  Q 997.07 1239.38 1027.98 1216.71
  Q 1041.46 1206.83 1061.41 1189.65
  C 1101.58 1155.07 1126.78 1131.99 1162.22 1110.96
  Q 1177.94 1101.62 1198.17 1093.49
  Q 1200.71 1092.47 1203.61 1092.47
  Q 1219.45 1092.49 1225.41 1092.53
  Q 1225.97 1092.53 1226.35 1092.94
  Q 1234.26 1101.45 1240.41 1109.50
  Q 1246.51 1117.50 1249.57 1126.98
  Q 1252.64 1136.46 1252.66 1136.51
  C 1258.74 1151.71 1268.89 1164.61 1279.87 1176.73
  Q 1346.05 1249.70 1411.88 1326.60
  Q 1420.83 1337.04 1424.62 1342.03
  Q 1466.66 1397.29 1477.06 1467.10
  Q 1478.66 1477.85 1478.59 1487.02
  Q 1478.48 1499.77 1478.36 1508.53
  Q 1477.84 1546.09 1478.96 1586.03
  Q 1479.03 1588.53 1478.22 1591.22
  A 0.72 0.72 0.0 0 1 1477.53 1591.74
  L 457.04 1591.74
  A 0.29 0.29 0.0 0 1 456.78 1591.34
  C 473.21 1553.62 489.01 1513.06 499.24 1475.75
  Q 507.24 1446.55 512.09 1413.78
  Q 515.20 1392.74 521.67 1373.66
  Q 527.13 1357.55 536.21 1343.01
  Q 551.67 1318.28 570.48 1295.87
  Z"
/>
<path fill="#fb55d6" d="
  M 835.16 1158.21
  Q 832.74 1159.34 833.14 1154.48
  Q 833.17 1154.02 832.75 1154.01
  L 829.52 1154.01
  Q 829.00 1154.01 829.00 1153.50
  L 829.01 1142.00
  Q 829.01 1141.48 828.50 1141.48
  L 821.23 1141.50
  Q 820.72 1141.51 820.72 1140.99
  L 820.72 1137.98
  A 0.48 0.46 89.9 0 0 820.25 1137.50
  L 817.00 1137.51
  Q 816.56 1137.51 816.55 1137.96
  L 816.47 1149.87
  L 813.30 1150.13
  Q 812.77 1150.17 812.64 1150.69
  Q 812.27 1152.15 812.61 1153.81
  L 812.49 1158.26
  L 808.30 1158.25
  L 808.25 1154.64
  A 0.59 0.51 90.0 0 0 807.75 1154.06
  L 804.53 1154.00
  Q 803.99 1153.99 803.99 1153.50
  L 803.98 1150.70
  Q 803.98 1150.13 803.35 1150.09
  L 799.97 1149.87
  L 799.93 1146.43
  A 0.80 0.80 0.0 0 0 799.11 1145.64
  L 795.65 1145.71
  L 795.66 1142.10
  Q 795.66 1141.56 795.12 1141.56
  L 791.68 1141.52
  L 791.59 1133.90
  A 0.68 0.68 0.0 0 1 792.28 1133.21
  L 799.26 1133.29
  Q 799.75 1133.29 799.86 1132.81
  Q 800.29 1130.99 799.80 1129.14
  L 803.37 1128.90
  Q 803.88 1128.87 803.95 1128.36
  Q 804.21 1126.41 803.77 1124.54
  L 803.70 1123.96
  Q 807.55 1121.00 816.26 1113.02
  Q 818.26 1111.20 821.94 1110.03
  Q 825.27 1108.97 828.10 1110.11
  C 837.71 1113.97 836.79 1127.00 836.60 1135.63
  Q 836.36 1146.95 835.16 1158.21
  Z"
/>
<path fill="#f34dce" d="
  M 803.70 1123.96
  L 803.77 1124.54
  Q 803.31 1124.53 802.98 1124.41
  L 803.70 1123.96
  Z"
/>
<path fill="#000000" d="
  M 802.98 1124.41
  Q 803.31 1124.53 803.77 1124.54
  Q 804.21 1126.41 803.95 1128.36
  Q 803.88 1128.87 803.37 1128.90
  L 799.80 1129.14
  L 796.67 1128.78
  L 802.98 1124.41
  Z"
/>
<path fill="#025cde" d="
  M 796.67 1128.78
  L 799.80 1129.14
  Q 800.29 1130.99 799.86 1132.81
  Q 799.75 1133.29 799.26 1133.29
  L 792.28 1133.21
  A 0.68 0.68 0.0 0 0 791.59 1133.90
  L 791.68 1141.52
  Q 791.15 1143.96 791.82 1145.78
  L 791.25 1149.95
  L 788.03 1149.89
  Q 787.46 1149.88 787.46 1149.38
  L 787.52 1146.25
  Q 787.52 1145.73 787.00 1145.73
  L 783.70 1145.72
  Q 783.21 1145.72 783.22 1145.21
  L 783.29 1142.17
  A 0.62 0.62 0.0 0 0 782.68 1141.54
  Q 779.63 1141.51 775.99 1141.54
  Q 775.34 1141.54 775.11 1141.24
  Q 774.85 1140.89 774.78 1140.24
  L 796.67 1128.78
  Z"
/>
<path fill="#000000" d="
  M 835.16 1158.21
  Q 832.58 1188.59 820.86 1216.36
  Q 813.83 1233.05 813.59 1233.77
  Q 808.82 1248.00 808.33 1260.50
  C 807.91 1271.05 808.17 1281.63 810.95 1291.43
  Q 814.21 1302.90 824.28 1306.37
  Q 825.90 1306.93 828.74 1307.29
  Q 831.00 1307.58 833.26 1307.89
  Q 831.65 1308.53 830.01 1308.19
  Q 829.03 1307.99 829.02 1309.00
  L 828.99 1311.63
  Q 828.97 1312.61 829.87 1312.58
  L 832.73 1312.48
  Q 833.17 1312.47 833.19 1312.97
  L 833.28 1316.38
  Q 833.24 1316.49 833.14 1316.62
  L 829.12 1316.57
  L 828.89 1313.13
  Q 828.85 1312.56 828.30 1312.55
  L 825.51 1312.49
  Q 825.04 1312.47 825.03 1312.97
  L 824.98 1315.97
  Q 824.97 1316.52 825.52 1316.52
  L 829.04 1316.49
  L 829.09 1320.16
  Q 829.10 1320.71 829.65 1320.71
  L 833.02 1320.69
  Q 833.45 1322.54 833.16 1324.26
  A 0.65 0.64 4.8 0 0 833.79 1325.02
  L 836.90 1325.01
  A 0.64 0.64 0.0 0 0 837.53 1324.37
  L 837.54 1321.20
  Q 837.54 1320.66 838.07 1320.69
  L 840.55 1320.82
  Q 841.45 1320.87 841.47 1319.99
  L 841.51 1317.59
  A 1.01 1.01 0.0 0 0 840.57 1316.57
  L 837.47 1316.36
  L 837.46 1313.36
  Q 837.46 1312.52 838.17 1312.51
  L 840.83 1312.48
  A 0.85 0.68 89.9 0 1 841.51 1313.34
  L 841.50 1316.05
  Q 841.50 1316.56 842.05 1316.55
  L 845.27 1316.50
  Q 845.78 1316.50 845.77 1317.00
  L 845.75 1320.27
  Q 845.74 1320.79 845.25 1320.78
  L 842.47 1320.71
  Q 841.48 1320.69 841.48 1321.68
  L 841.47 1328.20
  Q 841.47 1329.05 842.36 1329.05
  L 845.44 1329.03
  Q 845.83 1329.03 845.82 1329.44
  L 845.72 1332.78
  Q 845.71 1333.27 845.22 1333.26
  L 838.04 1333.21
  Q 837.57 1333.21 837.55 1333.70
  L 837.40 1337.56
  L 833.80 1337.59
  Q 833.19 1337.59 833.19 1338.20
  L 833.21 1340.81
  Q 833.22 1341.44 833.85 1341.42
  L 837.37 1341.34
  L 837.45 1345.28
  Q 837.46 1345.75 837.00 1345.75
  L 833.76 1345.75
  Q 833.26 1345.75 833.25 1346.23
  L 833.21 1349.58
  Q 833.21 1349.98 833.60 1349.98
  L 837.04 1350.04
  Q 837.53 1350.05 837.53 1350.53
  L 837.48 1358.01
  Q 837.48 1358.25 837.24 1358.25
  L 833.49 1358.24
  A 0.25 0.25 0.0 0 1 833.24 1357.99
  L 833.27 1354.39
  Q 833.28 1354.00 832.90 1354.00
  L 829.27 1353.97
  Q 829.01 1353.97 829.00 1354.23
  L 828.97 1357.88
  Q 828.97 1358.26 828.59 1358.26
  L 825.38 1358.26
  Q 824.98 1358.26 824.98 1357.87
  L 825.02 1354.49
  Q 825.03 1353.93 824.50 1353.95
  L 821.22 1354.04
  A 0.53 0.49 -90.0 0 1 820.72 1353.50
  L 820.79 1350.55
  A 0.52 0.48 -89.0 0 0 820.31 1350.01
  L 816.95 1349.98
  Q 816.46 1349.98 816.46 1349.46
  L 816.50 1346.40
  Q 816.51 1345.83 815.98 1345.82
  L 813.15 1345.74
  Q 812.58 1345.72 812.57 1345.07
  L 812.48 1337.30
  L 812.49 1333.69
  Q 812.49 1333.25 812.04 1333.25
  L 808.58 1333.27
  Q 808.26 1333.28 808.26 1333.59
  L 808.27 1337.31
  L 808.20 1350.22
  Q 806.38 1349.79 804.63 1350.06
  Q 804.01 1350.15 804.01 1350.69
  L 803.99 1353.26
  Q 803.99 1353.75 804.52 1353.85
  Q 806.27 1354.16 808.06 1353.87
  L 811.67 1353.96
  A 0.89 0.81 0.9 0 1 812.54 1354.78
  L 812.50 1361.68
  Q 812.49 1362.59 811.72 1362.57
  L 808.77 1362.46
  Q 808.27 1362.44 808.27 1363.01
  L 808.25 1369.73
  Q 808.24 1370.69 807.30 1370.70
  L 801.05 1370.78
  Q 799.92 1370.80 799.94 1369.83
  L 800.00 1367.08
  A 0.66 0.59 0.9 0 0 799.35 1366.48
  L 796.47 1366.45
  Q 795.89 1366.44 795.85 1365.86
  L 795.62 1362.50
  L 795.55 1358.86
  Q 795.54 1358.28 794.91 1358.28
  L 792.37 1358.26
  Q 791.75 1358.26 791.73 1358.81
  L 791.61 1362.47
  L 791.48 1370.21
  A 0.57 0.57 0.0 0 0 792.04 1370.80
  L 795.03 1370.84
  Q 795.70 1370.84 795.71 1371.53
  L 795.75 1374.16
  Q 795.76 1374.87 795.09 1374.90
  L 792.10 1375.05
  Q 791.58 1375.08 791.58 1375.65
  L 791.44 1386.75
  Q 791.43 1387.41 790.73 1387.40
  L 788.29 1387.39
  Q 787.69 1387.39 787.65 1386.77
  L 787.45 1383.29
  L 787.46 1380.14
  A 1.41 1.41 0.0 0 0 785.77 1378.76
  Q 783.77 1379.17 783.20 1378.50
  L 783.25 1375.68
  Q 783.25 1375.14 782.72 1375.12
  L 779.87 1375.00
  Q 779.30 1374.97 779.19 1375.52
  Q 778.86 1377.18 779.15 1378.74
  L 779.23 1387.76
  Q 778.77 1389.38 779.22 1390.90
  Q 779.37 1391.38 779.87 1391.45
  Q 781.46 1391.68 783.13 1391.22
  L 783.18 1403.48
  Q 783.18 1403.99 782.69 1403.99
  L 775.73 1404.00
  Q 775.21 1404.00 775.16 1404.55
  L 774.84 1408.49
  L 771.72 1408.21
  Q 770.83 1408.13 770.82 1408.99
  L 770.75 1415.79
  Q 770.74 1416.57 771.51 1416.55
  L 774.47 1416.46
  Q 774.96 1416.45 774.96 1416.96
  L 775.01 1420.27
  A 0.49 0.49 0.0 0 0 775.50 1420.75
  L 778.51 1420.74
  Q 778.94 1420.74 778.93 1420.32
  L 778.77 1412.64
  L 786.89 1412.67
  Q 787.48 1412.67 787.48 1413.26
  L 787.48 1420.31
  Q 787.48 1420.89 788.03 1420.86
  L 790.90 1420.69
  Q 791.47 1420.65 791.50 1420.09
  L 791.63 1417.33
  Q 791.66 1416.78 792.18 1416.75
  L 795.20 1416.57
  Q 795.70 1416.54 795.73 1416.04
  L 795.90 1413.51
  Q 795.96 1412.64 796.83 1412.61
  L 798.91 1412.53
  Q 799.89 1412.50 799.91 1413.48
  L 800.03 1420.29
  Q 800.04 1420.85 800.56 1420.82
  L 802.83 1420.71
  Q 803.95 1420.65 803.96 1421.85
  L 804.03 1427.68
  Q 804.04 1428.90 802.85 1428.92
  L 796.77 1429.05
  Q 795.68 1429.08 795.69 1430.12
  L 795.71 1432.48
  Q 795.72 1433.51 796.73 1433.38
  Q 799.76 1433.01 799.82 1433.77
  Q 800.06 1436.84 800.03 1445.15
  A 0.67 0.65 88.8 0 0 800.70 1445.82
  L 803.28 1445.69
  Q 803.92 1445.66 803.92 1446.28
  L 803.97 1453.29
  Q 803.97 1453.95 803.21 1453.98
  L 800.95 1454.04
  Q 800.32 1454.06 800.25 1453.42
  L 799.97 1450.89
  Q 799.87 1449.93 798.89 1449.95
  L 796.59 1450.01
  Q 795.69 1450.03 795.69 1450.69
  L 795.68 1452.98
  Q 795.68 1453.98 794.72 1453.98
  L 792.46 1453.98
  Q 791.42 1453.98 791.49 1452.95
  L 791.63 1450.96
  Q 791.70 1450.01 790.73 1450.00
  L 784.01 1449.94
  A 0.85 0.81 -89.7 0 0 783.19 1450.79
  L 783.18 1454.24
  Q 781.42 1453.75 779.60 1454.11
  Q 779.01 1454.22 779.01 1454.75
  L 779.02 1457.50
  Q 779.02 1458.03 779.61 1458.13
  Q 781.37 1458.44 783.15 1458.02
  L 783.18 1465.93
  Q 783.18 1466.46 782.65 1466.46
  L 778.83 1466.42
  L 778.92 1463.11
  Q 778.93 1462.51 778.37 1462.50
  L 775.64 1462.46
  Q 775.13 1462.45 775.13 1463.01
  L 775.11 1466.32
  L 774.93 1470.19
  Q 774.90 1470.69 774.40 1470.70
  L 770.70 1470.79
  L 767.12 1470.82
  Q 766.57 1470.83 766.56 1471.37
  L 766.53 1474.97
  L 766.43 1478.51
  Q 766.41 1479.00 765.96 1479.00
  L 763.10 1478.97
  A 0.63 0.62 -89.8 0 0 762.48 1479.61
  L 762.48 1482.72
  A 0.59 0.58 0.5 0 0 763.06 1483.30
  L 766.68 1483.36
  Q 766.23 1485.12 766.56 1486.89
  Q 766.67 1487.42 767.21 1487.42
  L 770.67 1487.40
  L 770.70 1495.23
  Q 770.70 1495.73 770.21 1495.73
  L 762.98 1495.73
  A 0.53 0.53 0.0 0 0 762.45 1496.26
  L 762.48 1499.50
  A 0.48 0.48 0.0 0 1 762.00 1499.98
  L 758.74 1500.04
  Q 758.28 1500.05 758.28 1500.51
  L 758.24 1512.01
  Q 758.24 1512.43 757.82 1512.43
  L 753.72 1512.38
  Q 754.19 1510.30 753.87 1508.09
  L 753.87 1504.67
  Q 753.87 1504.04 753.26 1504.03
  L 750.73 1503.95
  Q 750.14 1503.93 750.14 1503.29
  L 750.16 1487.31
  Q 751.83 1487.79 753.31 1487.42
  Q 753.82 1487.29 753.90 1486.78
  Q 754.14 1485.35 753.91 1483.94
  Q 753.83 1483.44 753.34 1483.30
  Q 751.68 1482.86 750.10 1483.46
  L 749.92 1479.78
  Q 749.88 1479.05 749.16 1479.05
  L 746.61 1479.04
  Q 745.71 1479.03 745.67 1479.94
  L 745.56 1482.41
  A 0.89 0.81 -85.6 0 1 744.65 1483.27
  L 742.64 1483.03
  Q 741.74 1482.92 741.72 1482.12
  L 741.67 1479.77
  Q 741.66 1479.13 741.01 1479.11
  L 734.03 1478.89
  A 0.67 0.66 0.9 0 1 733.38 1478.24
  L 733.38 1476.01
  Q 733.38 1475.14 734.23 1475.09
  L 736.79 1474.94
  Q 737.25 1474.92 737.31 1474.46
  L 738.18 1467.34
  Q 738.24 1466.83 738.76 1466.80
  Q 739.60 1466.76 740.38 1466.44
  Q 740.87 1466.23 740.94 1465.70
  Q 741.51 1461.47 741.20 1459.05
  Q 741.13 1458.54 740.61 1458.43
  L 738.53 1458.01
  Q 737.91 1457.89 737.89 1457.27
  L 737.68 1450.72
  A 0.68 0.64 -2.1 0 1 738.33 1450.06
  L 740.78 1449.95
  Q 741.55 1449.92 741.53 1449.06
  L 741.48 1446.53
  Q 741.46 1445.75 740.79 1445.74
  L 738.25 1445.70
  Q 737.64 1445.69 737.63 1445.02
  L 737.51 1433.77
  Q 737.50 1433.28 738.00 1433.28
  L 745.10 1433.28
  Q 745.71 1433.28 745.70 1432.66
  L 745.65 1428.83
  L 745.68 1425.65
  Q 745.68 1425.09 745.12 1425.09
  L 741.67 1425.07
  L 737.96 1424.94
  Q 737.48 1424.93 737.49 1424.45
  L 737.51 1413.00
  Q 737.51 1412.52 738.01 1412.52
  L 740.74 1412.55
  Q 741.52 1412.55 741.52 1411.78
  L 741.53 1404.78
  A 0.84 0.84 0.0 0 0 740.68 1403.95
  L 737.45 1404.01
  L 737.51 1396.25
  Q 737.52 1395.71 736.97 1395.71
  L 733.78 1395.70
  Q 733.25 1395.70 733.26 1396.23
  L 733.31 1408.22
  L 721.36 1408.33
  Q 720.85 1408.34 720.83 1408.84
  L 720.62 1412.65
  Q 718.80 1412.31 717.01 1412.56
  Q 716.44 1412.64 716.44 1413.22
  L 716.44 1415.79
  A 0.66 0.63 4.3 0 0 717.00 1416.42
  Q 718.84 1416.69 720.63 1416.30
  L 720.80 1420.19
  A 0.65 0.57 87.8 0 0 721.40 1420.81
  L 724.49 1420.72
  Q 724.99 1420.71 724.99 1421.24
  L 724.99 1424.50
  A 0.50 0.49 -0.1 0 1 724.50 1425.00
  L 708.75 1425.01
  Q 708.23 1425.01 708.23 1424.50
  L 708.25 1421.23
  Q 708.25 1420.71 707.72 1420.72
  L 704.53 1420.79
  Q 704.01 1420.80 704.00 1420.28
  L 703.99 1416.98
  Q 703.99 1416.46 703.49 1416.47
  L 700.51 1416.53
  A 0.51 0.49 89.1 0 1 700.01 1416.03
  L 699.98 1412.71
  Q 699.98 1412.45 699.72 1412.45
  L 696.02 1412.46
  A 0.27 0.27 0.0 0 0 695.74 1412.74
  L 695.72 1420.28
  Q 695.72 1420.78 695.23 1420.78
  L 692.00 1420.75
  A 0.50 0.47 89.6 0 1 691.54 1420.27
  L 691.47 1416.96
  Q 691.46 1416.46 690.96 1416.48
  L 688.43 1416.53
  Q 687.53 1416.55 687.52 1415.72
  L 687.49 1408.99
  Q 687.48 1408.26 688.20 1408.26
  L 691.25 1408.27
  Q 691.50 1408.27 691.50 1408.00
  L 691.50 1404.28
  Q 691.50 1404.01 691.29 1404.01
  L 688.30 1404.03
  Q 687.44 1404.03 687.45 1403.14
  L 687.53 1396.56
  Q 687.54 1395.76 688.36 1395.76
  L 695.25 1395.77
  Q 695.74 1395.77 695.74 1395.24
  L 695.73 1392.04
  Q 695.73 1391.59 695.28 1391.56
  L 692.00 1391.35
  Q 691.43 1391.32 691.47 1390.69
  L 691.62 1388.22
  Q 691.66 1387.64 692.29 1387.60
  L 695.96 1387.39
  Q 697.85 1387.74 699.45 1387.29
  Q 699.96 1387.15 699.94 1386.62
  L 699.81 1383.40
  L 703.24 1383.34
  Q 703.89 1383.33 703.91 1382.68
  L 704.01 1380.06
  Q 704.04 1379.04 703.07 1379.02
  L 700.72 1378.97
  Q 700.01 1378.96 700.00 1378.22
  L 699.97 1375.78
  Q 699.96 1375.03 700.65 1375.02
  L 703.46 1374.96
  Q 703.94 1374.95 703.95 1374.45
  L 704.03 1371.22
  Q 704.03 1370.81 704.51 1370.80
  L 708.42 1370.73
  L 708.22 1374.37
  Q 708.19 1374.95 708.80 1374.95
  L 711.96 1374.94
  Q 712.60 1374.94 712.57 1374.32
  L 712.42 1370.73
  Q 712.71 1368.96 712.38 1367.15
  A 0.69 0.64 84.9 0 0 711.75 1366.58
  L 708.77 1366.52
  Q 708.27 1366.51 708.26 1366.03
  L 708.18 1363.19
  Q 708.17 1362.63 707.56 1362.52
  Q 705.80 1362.21 704.03 1362.51
  L 700.45 1362.44
  A 0.47 0.43 0.6 0 1 699.98 1362.01
  L 699.98 1358.60
  Q 699.98 1358.21 699.59 1358.22
  L 696.13 1358.25
  Q 695.76 1358.25 695.76 1358.62
  L 695.75 1365.99
  Q 695.75 1366.48 695.26 1366.48
  L 692.00 1366.47
  Q 691.53 1366.47 691.53 1366.01
  L 691.49 1362.97
  Q 691.48 1362.46 690.97 1362.47
  L 688.08 1362.53
  Q 687.56 1362.54 687.55 1362.02
  L 687.46 1353.78
  L 687.41 1350.67
  Q 687.41 1350.13 686.88 1350.06
  Q 685.10 1349.80 683.27 1350.19
  L 683.20 1346.21
  Q 683.19 1345.73 682.72 1345.73
  L 675.51 1345.77
  Q 674.99 1345.78 675.00 1345.26
  L 675.02 1341.98
  Q 675.02 1341.46 675.51 1341.48
  L 678.45 1341.54
  Q 678.99 1341.55 678.99 1341.03
  L 679.02 1333.73
  Q 679.02 1333.22 679.53 1333.22
  L 682.70 1333.26
  Q 683.18 1333.27 683.21 1332.79
  L 683.45 1328.97
  L 691.04 1328.94
  Q 691.51 1328.94 691.51 1328.47
  L 691.47 1321.26
  Q 691.46 1320.72 691.99 1320.73
  L 699.48 1320.77
  Q 700.00 1320.78 700.00 1320.25
  L 699.99 1316.86
  Q 699.99 1316.47 699.61 1316.47
  L 696.22 1316.49
  Q 695.68 1316.49 695.69 1315.99
  L 695.75 1312.99
  Q 695.76 1312.48 695.25 1312.49
  L 691.96 1312.52
  Q 691.54 1312.53 691.55 1312.09
  L 691.67 1308.21
  L 695.26 1308.19
  Q 695.75 1308.19 695.75 1307.70
  L 695.76 1300.27
  Q 695.76 1300.03 695.52 1300.03
  L 691.78 1300.02
  Q 691.53 1300.02 691.53 1300.26
  L 691.55 1308.24
  L 687.97 1308.28
  Q 687.49 1308.28 687.49 1308.77
  L 687.51 1311.99
  Q 687.51 1312.48 687.01 1312.48
  L 683.04 1312.44
  L 683.14 1308.32
  L 683.22 1304.48
  Q 683.23 1303.98 682.73 1303.99
  L 679.51 1304.02
  A 0.52 0.49 -0.2 0 1 678.99 1303.52
  L 679.00 1296.24
  A 0.51 0.48 -89.9 0 0 678.52 1295.73
  L 671.23 1295.72
  Q 670.72 1295.72 670.73 1295.21
  L 670.78 1291.96
  Q 670.79 1291.49 671.26 1291.50
  L 674.43 1291.56
  Q 674.97 1291.57 674.97 1291.04
  L 675.04 1279.66
  Q 675.04 1279.09 675.63 1279.08
  L 678.51 1278.99
  L 679.01 1279.16
  L 679.11 1282.64
  Q 679.13 1283.23 679.75 1283.23
  L 682.56 1283.26
  Q 683.14 1283.26 683.22 1282.66
  Q 683.47 1280.89 682.97 1279.11
  L 686.97 1278.86
  Q 687.52 1278.82 687.51 1278.32
  L 687.46 1267.02
  Q 687.46 1266.54 687.96 1266.54
  L 691.48 1266.53
  L 691.50 1270.29
  Q 691.50 1270.73 691.95 1270.73
  L 695.30 1270.73
  Q 695.77 1270.73 695.77 1270.26
  L 695.76 1263.06
  Q 695.76 1262.54 695.24 1262.54
  L 691.56 1262.57
  L 691.45 1258.75
  Q 691.44 1258.23 691.12 1258.23
  L 688.02 1258.25
  Q 687.43 1258.26 687.45 1257.62
  L 687.55 1254.63
  Q 687.57 1254.12 686.97 1254.11
  L 683.14 1253.99
  L 683.24 1250.71
  Q 683.27 1249.97 682.52 1249.98
  L 679.62 1249.99
  Q 678.99 1249.99 678.99 1250.62
  L 679.02 1257.62
  A 0.52 0.50 -0.7 0 0 679.54 1258.12
  L 683.18 1258.05
  L 683.30 1262.23
  Q 681.62 1262.68 679.58 1262.48
  Q 678.98 1262.42 678.99 1261.82
  L 679.03 1259.00
  A 0.79 0.77 -89.9 0 0 678.26 1258.20
  L 671.27 1258.28
  Q 670.74 1258.29 670.74 1257.78
  L 670.73 1254.50
  Q 670.73 1254.01 671.24 1254.01
  L 674.61 1254.01
  Q 675.02 1254.01 675.01 1253.63
  L 675.01 1250.50
  Q 675.01 1249.96 674.51 1249.97
  L 667.11 1250.01
  Q 666.45 1250.02 666.47 1249.38
  L 666.53 1246.26
  Q 666.54 1245.76 665.99 1245.77
  L 662.46 1245.81
  L 662.45 1241.32
  L 662.46 1238.09
  Q 662.46 1237.54 661.91 1237.55
  L 658.32 1237.58
  L 658.35 1228.83
  L 661.89 1228.92
  Q 662.46 1228.93 662.46 1228.36
  L 662.41 1225.09
  L 662.46 1221.20
  A 0.50 0.45 90.0 0 0 662.00 1220.69
  L 658.73 1220.75
  Q 658.22 1220.76 658.23 1220.24
  L 658.27 1216.98
  Q 658.28 1216.51 658.75 1216.51
  L 666.01 1216.52
  Q 666.53 1216.52 666.53 1215.99
  L 666.50 1213.10
  Q 666.50 1212.49 665.86 1212.49
  L 663.00 1212.49
  Q 662.59 1212.49 662.57 1212.04
  L 662.40 1208.74
  Q 692.90 1184.82 717.42 1167.67
  Q 726.03 1161.65 738.15 1155.90
  Q 746.21 1152.08 774.78 1140.24
  Q 774.85 1140.89 775.11 1141.24
  Q 775.34 1141.54 775.99 1141.54
  Q 779.63 1141.51 782.68 1141.54
  A 0.62 0.62 0.0 0 1 783.29 1142.17
  L 783.22 1145.21
  Q 783.21 1145.72 783.70 1145.72
  L 787.00 1145.73
  Q 787.52 1145.73 787.52 1146.25
  L 787.46 1149.38
  Q 787.46 1149.88 788.03 1149.89
  L 791.25 1149.95
  L 799.97 1149.87
  L 803.35 1150.09
  Q 803.98 1150.13 803.98 1150.70
  L 803.99 1153.50
  Q 803.99 1153.99 804.53 1154.00
  L 807.75 1154.06
  A 0.59 0.51 90.0 0 1 808.25 1154.64
  L 808.30 1158.25
  L 808.23 1174.65
  Q 808.23 1174.98 808.56 1174.98
  L 812.07 1175.00
  Q 812.49 1175.00 812.49 1174.58
  L 812.49 1158.26
  L 812.61 1153.81
  L 820.19 1153.89
  Q 820.82 1153.90 820.80 1153.27
  L 820.73 1150.78
  Q 820.71 1150.20 820.16 1150.15
  L 816.47 1149.87
  L 816.55 1137.96
  Q 816.56 1137.51 817.00 1137.51
  L 820.25 1137.50
  A 0.48 0.46 89.9 0 1 820.72 1137.98
  L 820.72 1140.99
  Q 820.72 1141.51 821.23 1141.50
  L 828.50 1141.48
  Q 829.01 1141.48 829.01 1142.00
  L 829.00 1153.50
  Q 829.00 1154.01 829.52 1154.01
  L 832.75 1154.01
  Q 833.17 1154.02 833.14 1154.48
  Q 832.74 1159.34 835.16 1158.21
  Z
  M 791.4968 1154.2865
  A 0.26 0.26 0.0 0 0 791.2363 1154.0270
  L 787.7763 1154.0330
  A 0.26 0.26 0.0 0 0 787.5168 1154.2935
  L 787.5232 1157.9735
  A 0.26 0.26 0.0 0 0 787.7837 1158.2330
  L 791.2437 1158.2270
  A 0.26 0.26 0.0 0 0 791.5032 1157.9665
  L 791.4968 1154.2865
  Z
  M 670.7772 1208.7324
  A 0.48 0.48 0.0 0 0 670.3022 1208.2474
  L 667.0024 1208.2128
  A 0.48 0.48 0.0 0 0 666.5174 1208.6878
  L 666.4828 1211.9876
  A 0.48 0.48 0.0 0 0 666.9578 1212.4726
  L 670.2576 1212.5072
  A 0.48 0.48 0.0 0 0 670.7426 1212.0322
  L 670.7772 1208.7324
  Z
  M 691.4689 1237.8519
  A 0.40 0.40 0.0 0 0 691.0613 1237.4597
  L 687.8619 1237.5211
  A 0.40 0.40 0.0 0 0 687.4697 1237.9287
  L 687.5311 1241.1281
  A 0.40 0.40 0.0 0 0 687.9387 1241.5203
  L 691.1381 1241.4589
  A 0.40 0.40 0.0 0 0 691.5303 1241.0513
  L 691.4689 1237.8519
  Z
  M 687.4829 1246.1269
  A 0.41 0.41 0.0 0 0 687.0665 1245.7234
  L 683.6469 1245.7771
  A 0.41 0.41 0.0 0 0 683.2434 1246.1935
  L 683.2971 1249.6131
  A 0.41 0.41 0.0 0 0 683.7135 1250.0166
  L 687.1331 1249.9629
  A 0.41 0.41 0.0 0 0 687.5366 1249.5465
  L 687.4829 1246.1269
  Z
  M 820.7817 1341.9451
  A 0.46 0.46 0.0 0 0 820.3249 1341.4819
  L 816.9450 1341.4583
  A 0.46 0.46 0.0 0 0 816.4818 1341.9150
  L 816.4583 1345.2749
  A 0.46 0.46 0.0 0 0 816.9151 1345.7381
  L 820.2950 1345.7617
  A 0.46 0.46 0.0 0 0 820.7582 1345.3050
  L 820.7817 1341.9451
  Z
  M 724.9835 1396.1063
  A 0.37 0.37 0.0 0 0 724.6128 1395.7370
  L 721.1328 1395.7430
  A 0.37 0.37 0.0 0 0 720.7635 1396.1137
  L 720.7765 1403.6137
  A 0.37 0.37 0.0 0 0 721.1472 1403.9830
  L 724.6272 1403.9770
  A 0.37 0.37 0.0 0 0 724.9965 1403.6063
  L 724.9835 1396.1063
  Z
  M 712.5109 1412.9238
  A 0.47 0.47 0.0 0 0 712.0352 1412.4596
  L 708.6754 1412.5007
  A 0.47 0.47 0.0 0 0 708.2112 1412.9764
  L 708.2491 1416.0762
  A 0.47 0.47 0.0 0 0 708.7248 1416.5404
  L 712.0846 1416.4993
  A 0.47 0.47 0.0 0 0 712.5488 1416.0236
  L 712.5109 1412.9238
  Z
  M 783.36 1424.99
  L 783.33 1428.34
  Q 783.32 1428.99 783.97 1428.98
  L 786.80 1428.97
  Q 787.41 1428.96 787.40 1428.34
  L 787.36 1425.01
  L 787.43 1421.06
  Q 787.43 1420.75 787.12 1420.76
  L 783.55 1420.80
  Q 783.28 1420.81 783.29 1421.07
  L 783.36 1424.99
  Z
  M 783.2745 1446.2826
  A 0.55 0.55 0.0 0 0 782.7226 1445.7345
  L 779.5826 1445.7455
  A 0.55 0.55 0.0 0 0 779.0345 1446.2974
  L 779.0455 1449.4374
  A 0.55 0.55 0.0 0 0 779.5974 1449.9855
  L 782.7374 1449.9745
  A 0.55 0.55 0.0 0 0 783.2855 1449.4226
  L 783.2745 1446.2826
  Z"
/>
<path fill="#000000" d="
  M 791.68 1141.52
  L 795.12 1141.56
  Q 795.66 1141.56 795.66 1142.10
  L 795.65 1145.71
  L 791.82 1145.78
  Q 791.15 1143.96 791.68 1141.52
  Z"
/>
<path fill="#0c66e7" d="
  M 795.65 1145.71
  L 799.11 1145.64
  A 0.80 0.80 0.0 0 1 799.93 1146.43
  L 799.97 1149.87
  L 791.25 1149.95
  L 791.82 1145.78
  L 795.65 1145.71
  Z"
/>
<path fill="#025cde" d="
  M 816.47 1149.87
  L 820.16 1150.15
  Q 820.71 1150.20 820.73 1150.78
  L 820.80 1153.27
  Q 820.82 1153.90 820.19 1153.89
  L 812.61 1153.81
  Q 812.27 1152.15 812.64 1150.69
  Q 812.77 1150.17 813.30 1150.13
  L 816.47 1149.87
  Z"
/>
<rect fill="#0c66e7" x="-1.99" y="-2.10" transform="translate(789.51,1156.13) rotate(-0.1)" width="3.98" height="4.20" rx="0.26"/>
<path fill="#025cde" d="
  M 812.49 1158.26
  L 812.49 1174.58
  Q 812.49 1175.00 812.07 1175.00
  L 808.56 1174.98
  Q 808.23 1174.98 808.23 1174.65
  L 808.30 1158.25
  L 812.49 1158.26
  Z"
/>
<rect fill="#0c66e7" x="-2.13" y="-2.13" transform="translate(668.63,1210.36) rotate(0.6)" width="4.26" height="4.26" rx="0.48"/>
<path fill="#0c66e7" d="
  M 662.41 1225.09
  L 662.46 1228.36
  Q 662.46 1228.93 661.89 1228.92
  L 658.35 1228.83
  L 658.34 1225.64
  Q 658.33 1225.07 658.90 1225.08
  L 662.41 1225.09
  Z"
/>
<path fill="#025cde" d="
  M 662.45 1241.32
  L 658.88 1241.41
  Q 658.32 1241.42 658.32 1240.86
  L 658.32 1237.58
  L 661.91 1237.55
  Q 662.46 1237.54 662.46 1238.09
  L 662.45 1241.32
  Z"
/>
<rect fill="#0c66e7" x="-2.00" y="-2.00" transform="translate(689.50,1239.49) rotate(-1.1)" width="4.00" height="4.00" rx="0.40"/>
<path fill="#000000" d="
  M 662.46 1245.81
  L 662.46 1249.77
  Q 662.46 1249.98 662.23 1249.99
  L 658.48 1250.00
  Q 658.26 1250.00 658.26 1249.76
  L 658.24 1246.38
  Q 658.23 1245.82 658.85 1245.82
  L 662.46 1245.81
  Z"
/>
<rect fill="#025cde" x="-2.12" y="-2.12" transform="translate(685.39,1247.87) rotate(-0.9)" width="4.24" height="4.24" rx="0.41"/>
<path fill="#025cde" d="
  M 683.14 1253.99
  L 683.18 1258.05
  L 679.54 1258.12
  A 0.52 0.50 -0.7 0 1 679.02 1257.62
  L 678.99 1250.62
  Q 678.99 1249.99 679.62 1249.99
  L 682.52 1249.98
  Q 683.27 1249.97 683.24 1250.71
  L 683.14 1253.99
  Z"
/>
<path fill="#000000" d="
  M 612.20 1251.71
  Q 612.67 1252.63 612.52 1253.36
  Q 612.41 1253.89 611.86 1253.90
  L 610.01 1253.93
  L 612.20 1251.71
  Z"
/>
<path fill="#fb55d6" d="
  M 691.56 1262.57
  L 691.48 1266.53
  L 687.96 1266.54
  Q 687.46 1266.54 687.46 1267.02
  L 687.51 1278.32
  Q 687.52 1278.82 686.97 1278.86
  L 682.97 1279.11
  Q 680.91 1278.74 679.01 1279.16
  L 678.51 1278.99
  C 680.55 1275.97 683.17 1272.92 683.82 1269.25
  Q 684.25 1266.78 683.30 1262.23
  L 683.18 1258.05
  L 683.14 1253.99
  L 686.97 1254.11
  Q 687.57 1254.12 687.55 1254.63
  L 687.45 1257.62
  Q 687.43 1258.26 688.02 1258.25
  L 691.12 1258.23
  Q 691.44 1258.23 691.45 1258.75
  L 691.56 1262.57
  Z"
/>
<path fill="#025cde" d="
  M 608.02 1255.88
  L 608.25 1262.49
  L 608.29 1265.92
  Q 608.29 1266.45 607.77 1266.46
  L 604.52 1266.51
  A 0.51 0.51 0.0 0 1 604.00 1266.01
  L 603.94 1259.76
  L 608.02 1255.88
  Z"
/>
<path fill="#000000" d="
  M 603.94 1259.76
  L 604.00 1266.01
  A 0.51 0.51 0.0 0 0 604.52 1266.51
  L 607.77 1266.46
  Q 608.29 1266.45 608.29 1265.92
  L 608.25 1262.49
  L 612.05 1262.58
  A 0.45 0.45 0.0 0 1 612.49 1263.03
  L 612.47 1266.00
  Q 612.47 1266.54 613.00 1266.54
  L 616.00 1266.53
  Q 616.47 1266.53 616.47 1267.00
  L 616.51 1270.27
  Q 616.51 1270.85 617.10 1270.82
  L 620.96 1270.65
  Q 623.15 1270.95 624.84 1270.36
  L 625.08 1274.40
  Q 625.11 1275.03 625.72 1275.03
  L 628.04 1275.06
  Q 628.98 1275.07 628.99 1276.06
  L 629.03 1277.93
  Q 629.05 1278.88 628.09 1278.90
  L 625.68 1278.97
  Q 625.06 1278.98 625.05 1279.58
  L 624.91 1286.89
  Q 624.90 1287.45 624.30 1287.48
  L 621.86 1287.60
  Q 620.78 1287.65 620.77 1288.71
  L 620.77 1290.55
  Q 620.77 1291.59 621.78 1291.57
  L 624.23 1291.51
  Q 624.95 1291.50 624.96 1292.24
  L 625.00 1294.90
  A 0.63 0.62 86.1 0 1 624.45 1295.53
  Q 621.22 1295.92 617.35 1295.44
  Q 616.74 1295.36 616.67 1294.76
  L 616.38 1292.16
  Q 616.33 1291.64 615.79 1291.62
  L 612.78 1291.51
  L 612.57 1288.84
  Q 612.48 1287.70 611.35 1287.61
  L 609.62 1287.46
  A 1.21 1.21 0.0 0 0 608.32 1288.64
  L 608.21 1294.87
  Q 608.20 1295.48 608.76 1295.66
  Q 610.45 1296.20 612.25 1295.46
  L 612.37 1299.00
  Q 612.39 1299.85 611.51 1299.87
  L 604.61 1300.07
  A 0.58 0.56 -0.4 0 0 604.06 1300.63
  L 603.96 1307.22
  A 1.02 0.82 -89.6 0 1 603.14 1308.23
  L 600.83 1308.24
  Q 600.15 1308.25 600.10 1308.93
  L 599.90 1311.52
  Q 599.82 1312.44 598.82 1312.42
  L 596.70 1312.37
  Q 595.74 1312.36 595.79 1311.46
  L 595.98 1308.16
  Q 597.70 1308.50 599.27 1308.16
  Q 599.77 1308.05 599.89 1307.55
  Q 600.23 1306.09 599.91 1304.64
  Q 599.79 1304.12 599.25 1304.12
  L 595.80 1304.09
  L 592.16 1303.91
  Q 591.58 1303.88 591.57 1303.35
  L 591.41 1292.04
  Q 591.40 1291.42 590.82 1291.44
  L 588.01 1291.50
  Q 587.54 1291.51 587.53 1291.00
  L 587.39 1283.05
  Q 588.29 1278.34 585.52 1278.74
  L 603.94 1259.76
  Z
  M 616.4828 1271.2735
  A 0.50 0.50 0.0 0 0 615.9837 1270.7726
  L 613.0037 1270.7674
  A 0.50 0.50 0.0 0 0 612.5028 1271.2665
  L 612.4972 1274.4665
  A 0.50 0.50 0.0 0 0 612.9963 1274.9674
  L 615.9763 1274.9726
  A 0.50 0.50 0.0 0 0 616.4772 1274.4735
  L 616.4828 1271.2735
  Z"
/>
<path fill="#025cde" d="
  M 691.48 1266.53
  L 691.56 1262.57
  L 695.24 1262.54
  Q 695.76 1262.54 695.76 1263.06
  L 695.77 1270.26
  Q 695.77 1270.73 695.30 1270.73
  L 691.95 1270.73
  Q 691.50 1270.73 691.50 1270.29
  L 691.48 1266.53
  Z"
/>
<path fill="#025cde" d="
  M 624.84 1270.36
  Q 623.15 1270.95 620.96 1270.65
  L 620.78 1267.22
  Q 620.75 1266.54 621.37 1266.54
  L 623.96 1266.51
  Q 624.65 1266.51 624.81 1267.12
  Q 625.21 1268.67 624.84 1270.36
  Z"
/>
<rect fill="#025cde" x="-1.99" y="-2.10" transform="translate(614.49,1272.87) rotate(0.1)" width="3.98" height="4.20" rx="0.50"/>
<path fill="#025cde" d="
  M 585.52 1278.74
  Q 588.29 1278.34 587.39 1283.05
  L 583.69 1283.20
  L 582.76 1281.73
  L 585.52 1278.74
  Z"
/>
<path fill="#0c66e7" d="
  M 682.97 1279.11
  Q 683.47 1280.89 683.22 1282.66
  Q 683.14 1283.26 682.56 1283.26
  L 679.75 1283.23
  Q 679.13 1283.23 679.11 1282.64
  L 679.01 1279.16
  Q 680.91 1278.74 682.97 1279.11
  Z"
/>
<path fill="#000000" d="
  M 582.76 1281.73
  L 583.69 1283.20
  L 581.51 1283.17
  L 582.76 1281.73
  Z"
/>
<path fill="#000000" d="
  M 578.93 1286.05
  L 578.95 1295.29
  Q 578.95 1295.79 578.48 1295.78
  L 575.54 1295.71
  Q 575.03 1295.70 575.03 1296.21
  L 575.00 1299.44
  Q 574.99 1300.05 574.35 1300.04
  L 571.27 1300.00
  A 0.60 0.60 0.0 0 1 570.69 1299.29
  Q 571.01 1297.61 570.48 1295.87
  L 578.93 1286.05
  Z"
/>
<path fill="#025cde" d="
  M 612.78 1291.51
  L 612.25 1295.46
  Q 610.45 1296.20 608.76 1295.66
  Q 608.20 1295.48 608.21 1294.87
  L 608.32 1288.64
  A 1.21 1.21 0.0 0 1 609.62 1287.46
  L 611.35 1287.61
  Q 612.48 1287.70 612.57 1288.84
  L 612.78 1291.51
  Z"
/>
<path fill="#000000" d="
  M 903.92 1289.18
  L 904.08 1291.01
  Q 904.14 1291.56 904.65 1291.56
  L 908.01 1291.52
  Q 908.22 1291.52 908.22 1291.76
  L 908.21 1295.51
  Q 908.21 1295.78 907.98 1295.78
  L 904.86 1295.69
  Q 903.99 1295.66 903.99 1296.59
  L 903.97 1303.13
  Q 903.97 1304.10 904.87 1304.08
  L 907.77 1304.01
  Q 908.25 1304.00 908.25 1304.52
  L 908.19 1312.02
  A 0.47 0.45 -89.8 0 1 907.74 1312.48
  L 904.53 1312.49
  Q 904.05 1312.49 904.04 1312.02
  L 903.94 1308.59
  Q 903.93 1308.22 903.47 1308.23
  L 900.52 1308.26
  Q 900.07 1308.26 900.06 1308.59
  L 899.95 1312.04
  Q 899.93 1312.50 899.47 1312.50
  L 896.24 1312.49
  Q 895.77 1312.49 895.76 1312.00
  L 895.76 1300.52
  Q 895.76 1300.04 895.27 1300.03
  L 891.99 1299.98
  Q 891.53 1299.97 891.52 1299.51
  L 891.48 1296.19
  Q 891.47 1295.66 890.94 1295.69
  L 888.27 1295.80
  Q 887.46 1295.83 887.46 1296.62
  L 887.46 1299.50
  Q 887.46 1299.96 887.00 1299.97
  L 883.85 1300.01
  Q 883.22 1300.02 883.22 1300.63
  L 883.22 1303.35
  Q 883.22 1303.98 883.84 1303.99
  L 887.02 1304.05
  Q 887.50 1304.06 887.50 1304.53
  L 887.48 1307.74
  Q 887.48 1308.28 886.94 1308.28
  L 878.94 1308.32
  L 875.14 1308.47
  L 874.98 1299.42
  L 903.92 1289.18
  Z"
/>
<path fill="#025cde" d="
  M 691.67 1308.21
  Q 691.61 1308.22 691.55 1308.24
  L 691.53 1300.26
  Q 691.53 1300.02 691.78 1300.02
  L 695.52 1300.03
  Q 695.76 1300.03 695.76 1300.27
  L 695.75 1307.70
  Q 695.75 1308.19 695.26 1308.19
  L 691.67 1308.21
  Z"
/>
<path fill="#000000" d="
  M 870.55 1300.75
  Q 870.86 1302.03 870.69 1303.41
  Q 870.63 1303.91 870.12 1303.98
  Q 865.61 1304.53 861.56 1303.14
  L 870.55 1300.75
  Z"
/>
<path fill="#1f7bfc" d="
  M 595.98 1308.16
  L 595.80 1304.09
  L 599.25 1304.12
  Q 599.79 1304.12 599.91 1304.64
  Q 600.23 1306.09 599.89 1307.55
  Q 599.77 1308.05 599.27 1308.16
  Q 597.70 1308.50 595.98 1308.16
  Z"
/>
<path fill="#025cde" d="
  M 683.14 1308.32
  L 683.04 1312.44
  L 680.46 1312.50
  Q 678.38 1313.12 679.03 1308.82
  Q 679.11 1308.30 679.64 1308.30
  L 683.14 1308.32
  Z"
/>
<path fill="#fb55d6" d="
  M 691.55 1308.24
  Q 691.61 1308.22 691.67 1308.21
  L 691.55 1312.09
  Q 691.54 1312.53 691.96 1312.52
  L 695.25 1312.49
  Q 695.76 1312.48 695.75 1312.99
  L 695.69 1315.99
  Q 695.68 1316.49 696.22 1316.49
  L 699.61 1316.47
  Q 699.99 1316.47 699.99 1316.86
  L 700.00 1320.25
  Q 700.00 1320.78 699.48 1320.77
  L 691.99 1320.73
  Q 691.46 1320.72 691.47 1321.26
  L 691.51 1328.47
  Q 691.51 1328.94 691.04 1328.94
  L 683.45 1328.97
  Q 685.11 1325.25 685.26 1322.09
  Q 685.52 1316.69 680.46 1312.50
  L 683.04 1312.44
  L 687.01 1312.48
  Q 687.51 1312.48 687.51 1311.99
  L 687.49 1308.77
  Q 687.49 1308.28 687.97 1308.28
  L 691.55 1308.24
  Z"
/>
<path fill="#025cde" d="
  M 878.94 1308.32
  L 878.81 1312.02
  Q 878.79 1312.53 878.30 1312.52
  L 875.76 1312.48
  Q 875.30 1312.47 875.20 1312.02
  Q 874.85 1310.30 875.14 1308.47
  L 878.94 1308.32
  Z"
/>
<path fill="#025cde" d="
  M 829.12 1316.57
  Q 829.08 1316.53 829.04 1316.49
  L 825.52 1316.52
  Q 824.97 1316.52 824.98 1315.97
  L 825.03 1312.97
  Q 825.04 1312.47 825.51 1312.49
  L 828.30 1312.55
  Q 828.85 1312.56 828.89 1313.13
  L 829.12 1316.57
  Z"
/>
<path fill="#025cde" d="
  M 837.47 1316.36
  L 840.57 1316.57
  A 1.01 1.01 0.0 0 1 841.51 1317.59
  L 841.47 1319.99
  Q 841.45 1320.87 840.55 1320.82
  L 838.07 1320.69
  Q 837.54 1320.66 837.54 1321.20
  L 837.53 1324.37
  A 0.64 0.64 0.0 0 1 836.90 1325.01
  L 833.79 1325.02
  A 0.65 0.64 4.8 0 1 833.16 1324.26
  Q 833.45 1322.54 833.02 1320.69
  Q 833.49 1319.10 833.14 1316.62
  Q 833.24 1316.49 833.28 1316.38
  Q 835.29 1316.74 837.47 1316.36
  Z"
/>
<path fill="#1f7bfc" d="
  M 829.12 1316.57
  L 833.14 1316.62
  Q 833.49 1319.10 833.02 1320.69
  L 829.65 1320.71
  Q 829.10 1320.71 829.09 1320.16
  L 829.04 1316.49
  Q 829.08 1316.53 829.12 1316.57
  Z"
/>
<path fill="#025cde" d="
  M 812.48 1337.30
  L 808.27 1337.31
  L 808.26 1333.59
  Q 808.26 1333.28 808.58 1333.27
  L 812.04 1333.25
  Q 812.49 1333.25 812.49 1333.69
  L 812.48 1337.30
  Z"
/>
<path fill="#025cde" d="
  M 837.40 1337.56
  L 837.37 1341.34
  L 833.85 1341.42
  Q 833.22 1341.44 833.21 1340.81
  L 833.19 1338.20
  Q 833.19 1337.59 833.80 1337.59
  L 837.40 1337.56
  Z"
/>
<rect fill="#025cde" x="-2.15" y="-2.14" transform="translate(818.62,1343.61) rotate(0.4)" width="4.30" height="4.28" rx="0.46"/>
<path fill="#025cde" d="
  M 687.46 1353.78
  Q 685.52 1354.29 683.80 1353.88
  Q 683.29 1353.76 683.29 1353.23
  L 683.27 1350.19
  Q 685.10 1349.80 686.88 1350.06
  Q 687.41 1350.13 687.41 1350.67
  L 687.46 1353.78
  Z"
/>
<path fill="#025cde" d="
  M 808.20 1350.22
  L 808.06 1353.87
  Q 806.27 1354.16 804.52 1353.85
  Q 803.99 1353.75 803.99 1353.26
  L 804.01 1350.69
  Q 804.01 1350.15 804.63 1350.06
  Q 806.38 1349.79 808.20 1350.22
  Z"
/>
<path fill="#025cde" d="
  M 795.62 1362.50
  L 791.61 1362.47
  L 791.73 1358.81
  Q 791.75 1358.26 792.37 1358.26
  L 794.91 1358.28
  Q 795.54 1358.28 795.55 1358.86
  L 795.62 1362.50
  Z"
/>
<path fill="#025cde" d="
  M 712.42 1370.73
  L 708.42 1370.73
  L 708.15 1367.23
  Q 708.11 1366.62 707.48 1366.61
  L 704.95 1366.58
  A 0.87 0.87 0.0 0 1 704.09 1365.73
  L 704.03 1362.51
  Q 705.80 1362.21 707.56 1362.52
  Q 708.17 1362.63 708.18 1363.19
  L 708.26 1366.03
  Q 708.27 1366.51 708.77 1366.52
  L 711.75 1366.58
  A 0.69 0.64 84.9 0 1 712.38 1367.15
  Q 712.71 1368.96 712.42 1370.73
  Z"
/>
<path fill="#298304" d="
  M 712.42 1370.73
  L 712.57 1374.32
  Q 712.60 1374.94 711.96 1374.94
  L 708.80 1374.95
  Q 708.19 1374.95 708.22 1374.37
  L 708.42 1370.73
  L 712.42 1370.73
  Z"
/>
<path fill="#0c66e7" d="
  M 783.20 1378.50
  Q 783.18 1378.85 782.54 1378.95
  Q 780.98 1379.15 779.15 1378.74
  Q 778.86 1377.18 779.19 1375.52
  Q 779.30 1374.97 779.87 1375.00
  L 782.72 1375.12
  Q 783.25 1375.14 783.25 1375.68
  L 783.20 1378.50
  Z"
/>
<path fill="#025cde" d="
  M 787.45 1383.29
  L 784.24 1383.23
  A 1.20 1.20 0.0 0 1 783.07 1381.91
  Q 783.35 1379.11 782.54 1378.95
  Q 783.18 1378.85 783.20 1378.50
  Q 783.77 1379.17 785.77 1378.76
  A 1.41 1.41 0.0 0 1 787.46 1380.14
  L 787.45 1383.29
  Z"
/>
<path fill="#025cde" d="
  M 699.81 1383.40
  L 699.94 1386.62
  Q 699.96 1387.15 699.45 1387.29
  Q 697.85 1387.74 695.96 1387.39
  Q 695.53 1385.64 695.86 1383.96
  Q 695.96 1383.46 696.47 1383.38
  Q 698.11 1383.10 699.81 1383.40
  Z"
/>
<path fill="#025cde" d="
  M 783.13 1391.22
  Q 781.46 1391.68 779.87 1391.45
  Q 779.37 1391.38 779.22 1390.90
  Q 778.77 1389.38 779.23 1387.76
  Q 780.93 1387.28 782.52 1387.61
  Q 783.02 1387.71 783.12 1388.21
  Q 783.43 1389.70 783.13 1391.22
  Z"
/>
<rect fill="#025cde" x="-2.11" y="-4.12" transform="translate(722.88,1399.86) rotate(-0.1)" width="4.22" height="8.24" rx="0.37"/>
<path fill="#025cde" d="
  M 737.45 1404.01
  L 737.41 1407.60
  Q 737.40 1408.16 736.84 1408.17
  L 733.31 1408.22
  L 733.26 1396.23
  Q 733.25 1395.70 733.78 1395.70
  L 736.97 1395.71
  Q 737.52 1395.71 737.51 1396.25
  L 737.45 1404.01
  Z"
/>
<path fill="#0c66e7" d="
  M 774.84 1408.49
  L 775.12 1411.88
  A 0.75 0.75 0.0 0 0 775.85 1412.57
  L 778.77 1412.64
  L 778.93 1420.32
  Q 778.94 1420.74 778.51 1420.74
  L 775.50 1420.75
  A 0.49 0.49 0.0 0 1 775.01 1420.27
  L 774.96 1416.96
  Q 774.96 1416.45 774.47 1416.46
  L 771.51 1416.55
  Q 770.74 1416.57 770.75 1415.79
  L 770.82 1408.99
  Q 770.83 1408.13 771.72 1408.21
  L 774.84 1408.49
  Z"
/>
<rect fill="#025cde" x="-2.15" y="-2.02" transform="translate(710.38,1414.50) rotate(-0.7)" width="4.30" height="4.04" rx="0.47"/>
<path fill="#025cde" d="
  M 720.62 1412.65
  L 720.63 1416.30
  Q 718.84 1416.69 717.00 1416.42
  A 0.66 0.63 4.3 0 1 716.44 1415.79
  L 716.44 1413.22
  Q 716.44 1412.64 717.01 1412.56
  Q 718.80 1412.31 720.62 1412.65
  Z"
/>
<path fill="#fb55d6" d="
  M 787.36 1425.01
  L 783.36 1424.99
  L 783.29 1421.07
  Q 783.28 1420.81 783.55 1420.80
  L 787.12 1420.76
  Q 787.43 1420.75 787.43 1421.06
  L 787.36 1425.01
  Z"
/>
<path fill="#025cde" d="
  M 745.65 1428.83
  L 742.14 1428.90
  Q 741.55 1428.91 741.57 1428.32
  L 741.67 1425.07
  L 745.12 1425.09
  Q 745.68 1425.09 745.68 1425.65
  L 745.65 1428.83
  Z"
/>
<path fill="#025cde" d="
  M 787.36 1425.01
  L 787.40 1428.34
  Q 787.41 1428.96 786.80 1428.97
  L 783.97 1428.98
  Q 783.32 1428.99 783.33 1428.34
  L 783.36 1424.99
  L 787.36 1425.01
  Z"
/>
<rect fill="#fb55d6" x="-2.12" y="-2.12" transform="translate(781.16,1447.86) rotate(-0.2)" width="4.24" height="4.24" rx="0.55"/>
<path fill="#025cde" d="
  M 783.18 1454.24
  L 783.15 1458.02
  Q 781.37 1458.44 779.61 1458.13
  Q 779.02 1458.03 779.02 1457.50
  L 779.01 1454.75
  Q 779.01 1454.22 779.60 1454.11
  Q 781.42 1453.75 783.18 1454.24
  Z"
/>
<path fill="#025cde" d="
  M 778.83 1466.42
  L 775.11 1466.32
  L 775.13 1463.01
  Q 775.13 1462.45 775.64 1462.46
  L 778.37 1462.50
  Q 778.93 1462.51 778.92 1463.11
  L 778.83 1466.42
  Z"
/>
<path fill="#0c66e7" d="
  M 770.70 1470.79
  L 770.67 1474.38
  Q 770.67 1474.93 770.12 1474.93
  L 766.53 1474.97
  L 766.56 1471.37
  Q 766.57 1470.83 767.12 1470.82
  L 770.70 1470.79
  Z"
/>
<path fill="#025cde" d="
  M 750.16 1487.31
  Q 749.75 1485.50 750.10 1483.46
  Q 751.68 1482.86 753.34 1483.30
  Q 753.83 1483.44 753.91 1483.94
  Q 754.14 1485.35 753.90 1486.78
  Q 753.82 1487.29 753.31 1487.42
  Q 751.83 1487.79 750.16 1487.31
  Z"
/>
<path fill="#025cde" d="
  M 770.67 1487.40
  L 767.21 1487.42
  Q 766.67 1487.42 766.56 1486.89
  Q 766.23 1485.12 766.68 1483.36
  L 770.03 1483.34
  Q 770.57 1483.34 770.67 1483.87
  Q 771.02 1485.63 770.67 1487.40
  Z"
/>
<path fill="#025cde" d="
  M 753.87 1508.09
  Q 754.19 1510.30 753.72 1512.38
  L 751.09 1512.50
  Q 750.07 1512.54 750.05 1511.52
  L 750.00 1509.27
  Q 749.99 1508.31 750.94 1508.26
  L 753.87 1508.09
  Z"
/>
</svg>
