<?xml version="1.0" encoding="UTF-8" standalone="no"?>
<!DOCTYPE svg PUBLIC "-//W3C//DTD SVG 1.1//EN" "http://www.w3.org/Graphics/SVG/1.1/DTD/svg11.dtd">
<svg xmlns="http://www.w3.org/2000/svg" version="1.1" viewBox="0.00 0.00 1592.00 1592.00" width="1592.00" height="1592.00">
<g stroke-width="2.00" fill="none" stroke-linecap="butt">
<path stroke="#0d2676" vector-effect="non-scaling-stroke" d="
  M 574.59 1291.03
  L 575.11 1299.43
  Q 575.15 1300.04 575.71 1300.04
  L 578.46 1300.01
  Q 578.93 1300.01 578.95 1299.54
  L 579.05 1296.29
  Q 579.07 1295.66 579.68 1295.68
  L 582.70 1295.76
  Q 583.17 1295.78 583.17 1295.30
  L 583.16 1283.89
  Q 583.16 1283.18 583.86 1283.19
  L 586.56 1283.21
  A 0.95 0.90 -2.0 0 1 587.50 1284.03
  L 587.72 1286.71
  Q 587.77 1287.32 588.37 1287.37
  L 590.76 1287.55
  Q 591.34 1287.60 591.40 1288.20
  L 591.60 1290.54
  Q 591.66 1291.18 592.28 1291.25
  L 594.64 1291.54
  A 1.23 1.18 3.4 0 1 595.72 1292.71
  L 595.74 1294.95
  Q 595.75 1295.75 594.99 1295.79
  L 592.53 1295.91
  Q 591.55 1295.96 591.52 1296.93
  L 591.46 1298.78
  A 1.08 1.04 3.4 0 0 592.46 1299.86
  L 595.02 1300.08
  A 0.75 0.73 -88.6 0 1 595.69 1300.79
  L 595.91 1307.65
  A 0.60 0.60 0.0 0 0 596.52 1308.22
  L 598.83 1308.20
  Q 599.73 1308.19 599.78 1309.09
  L 600.19 1315.79
  A 0.83 0.82 -2.9 0 0 601.05 1316.56
  L 602.88 1316.48
  Q 603.70 1316.45 603.82 1315.66
  L 604.23 1312.96
  Q 604.30 1312.49 604.78 1312.47
  L 607.02 1312.35
  Q 608.07 1312.29 608.09 1311.23
  L 608.11 1309.55
  Q 608.12 1308.51 607.06 1308.43
  L 604.64 1308.25
  Q 603.99 1308.20 604.01 1307.42
  L 604.09 1304.96
  A 0.90 0.71 88.8 0 1 604.74 1304.11
  L 607.18 1303.86
  A 1.01 1.01 0.0 0 0 608.09 1302.88
  Q 608.23 1297.63 608.46 1296.49
  Q 608.70 1295.28 610.33 1295.60
  A 1.61 1.56 7.5 0 0 612.25 1294.18
  L 612.61 1288.54
  Q 612.69 1287.36 613.81 1287.35
  L 615.53 1287.32
  Q 616.54 1287.31 616.56 1288.30
  L 616.68 1294.45
  A 1.22 1.22 0.0 0 0 617.88 1295.65
  L 623.85 1295.74
  Q 624.94 1295.76 624.96 1294.67
  L 625.09 1288.07
  Q 625.11 1287.45 625.68 1287.46
  L 628.45 1287.49
  Q 628.92 1287.50 628.93 1287.04
  L 629.05 1283.72
  Q 629.06 1283.25 629.54 1283.24
  L 632.74 1283.20
  Q 633.18 1283.20 633.20 1282.76
  L 633.28 1279.75
  Q 633.30 1279.20 632.76 1279.16
  L 629.81 1278.96
  Q 628.96 1278.90 628.96 1278.05
  L 628.96 1267.23
  Q 628.96 1266.64 628.39 1266.54
  Q 624.46 1265.88 624.92 1268.12"
/>
<path stroke="#1f51f0" vector-effect="non-scaling-stroke" d="
  M 624.92 1268.12
  L 620.13 1250.10"
/>
<path stroke="#0d2676" vector-effect="non-scaling-stroke" d="
  M 620.13 1250.10
  Q 621.13 1248.97 620.79 1246.45
  A 0.76 0.76 0.0 0 0 620.24 1245.82
  Q 619.52 1245.63 618.76 1245.70"
/>
<path stroke="#1f51f0" vector-effect="non-scaling-stroke" d="
  M 631.58 1234.29
  Q 637.60 1231.88 642.50 1230.65
  Q 653.09 1228.00 662.85 1233.28"
/>
<path stroke="#0d2676" vector-effect="non-scaling-stroke" d="
  M 662.85 1233.28
  Q 662.21 1234.76 662.61 1236.89
  Q 662.71 1237.45 663.25 1237.45
  L 665.52 1237.46
  A 1.06 1.03 90.0 0 1 666.55 1238.51
  L 666.56 1240.60
  A 0.92 0.88 -90.0 0 1 665.67 1241.53
  L 663.22 1241.51
  Q 662.53 1241.51 662.53 1242.16
  L 662.53 1244.93
  Q 662.53 1245.70 663.23 1245.71
  L 665.48 1245.74
  Q 666.45 1245.76 666.48 1246.75
  L 666.57 1249.19
  Q 666.60 1249.95 665.83 1249.98
  L 662.96 1250.07
  A 0.49 0.47 -1.3 0 0 662.48 1250.54
  L 662.51 1253.48
  Q 662.52 1253.96 662.98 1253.97
  L 670.16 1254.02
  Q 670.80 1254.03 670.79 1254.66
  L 670.74 1257.76
  Q 670.74 1258.30 671.26 1258.28
  L 674.02 1258.18
  A 1.20 1.12 -86.8 0 1 675.17 1259.54
  Q 674.82 1262.10 675.40 1262.58"
/>
<path stroke="#1f51f0" vector-effect="non-scaling-stroke" d="
  M 675.40 1262.58
  Q 679.78 1272.59 679.98 1283.12"
/>
<path stroke="#0d2676" vector-effect="non-scaling-stroke" d="
  M 679.98 1283.12
  Q 678.65 1283.68 678.85 1286.95
  Q 678.89 1287.58 678.35 1287.56
  L 675.99 1287.47
  A 0.94 0.94 0.0 0 0 675.02 1288.39
  L 674.97 1290.55
  Q 674.95 1291.43 675.80 1291.45
  L 678.21 1291.50
  Q 678.92 1291.52 678.95 1292.24
  L 679.04 1294.98
  Q 679.06 1295.79 678.27 1295.79
  L 671.48 1295.79
  A 0.73 0.67 0.6 0 0 670.76 1296.45
  L 670.70 1299.17
  Q 670.68 1299.92 671.42 1299.93
  L 682.57 1300.07
  Q 683.22 1300.07 683.23 1300.72
  L 683.42 1311.21
  Q 683.44 1312.35 684.67 1312.36
  L 686.04 1312.38
  Q 687.15 1312.39 687.27 1311.22
  L 687.51 1308.83
  Q 687.59 1308.12 688.24 1308.13
  L 695.23 1308.17
  Q 695.84 1308.18 695.84 1308.77
  L 695.87 1320.16
  Q 695.87 1320.74 696.41 1320.72
  L 698.56 1320.63
  Q 699.78 1320.58 699.91 1321.92
  L 700.05 1323.49
  Q 700.18 1324.91 698.75 1324.95
  L 692.25 1325.13
  A 0.99 0.97 79.9 0 0 691.36 1326.43
  Q 692.05 1328.49 691.00 1328.67
  Q 689.84 1328.86 684.08 1329.16
  A 0.80 0.73 -1.5 0 0 683.32 1329.89
  L 683.31 1332.72
  Q 683.30 1333.24 682.78 1333.23
  L 679.72 1333.22
  A 0.57 0.57 0.0 0 0 679.16 1333.77
  L 678.81 1345.21
  Q 678.80 1345.73 678.27 1345.74
  L 676.04 1345.78
  Q 675.10 1345.80 675.06 1346.77
  L 674.98 1348.93
  A 0.98 0.97 -88.4 0 0 675.93 1349.95
  L 686.70 1350.12
  A 0.83 0.72 0.5 0 1 687.52 1350.85
  L 687.52 1353.17
  Q 687.52 1353.82 688.09 1353.87
  L 690.86 1354.15
  Q 691.47 1354.21 691.48 1354.88
  L 691.52 1357.38
  Q 691.53 1357.99 690.92 1358.09
  L 688.20 1358.55
  Q 687.81 1358.61 687.80 1359.04
  L 687.65 1365.49
  A 0.87 0.84 1.3 0 0 688.50 1366.35
  L 694.67 1366.49
  Q 695.58 1366.51 695.61 1365.62
  L 695.83 1358.79
  Q 695.85 1358.20 696.44 1358.20
  L 699.09 1358.20
  Q 699.66 1358.20 699.73 1357.65
  L 700.09 1354.91
  Q 700.22 1353.94 701.16 1353.95
  L 702.86 1353.98
  A 1.12 1.09 0.1 0 1 703.96 1355.06
  L 704.13 1365.98
  Q 704.14 1366.58 704.58 1366.56
  L 707.25 1366.47
  A 0.80 0.80 0.0 0 1 708.07 1367.21
  L 708.26 1369.80
  Q 708.32 1370.70 707.45 1370.73
  L 704.81 1370.79
  Q 704.25 1370.80 704.23 1371.41
  L 703.76 1382.09
  A 1.15 1.15 0.0 0 1 702.78 1383.18
  L 700.94 1383.46
  Q 700.40 1383.54 700.29 1384.11
  L 699.73 1387.00
  Q 699.61 1387.57 699.03 1387.61
  L 697.06 1387.76
  Q 696.37 1387.81 696.30 1388.46
  L 695.58 1395.22
  A 0.59 0.58 -88.7 0 1 695.04 1395.75
  L 688.60 1396.17
  Q 688.10 1396.21 687.95 1396.68
  Q 687.51 1398.05 687.71 1399.06
  Q 687.82 1399.59 688.36 1399.63
  L 694.56 1400.11
  Q 695.86 1400.21 695.81 1401.52
  L 695.77 1402.42
  Q 695.73 1403.66 694.59 1403.90
  L 692.53 1404.33
  Q 691.94 1404.45 691.93 1405.04
  Q 691.88 1407.88 691.06 1411.67
  A 1.07 0.94 -7.2 0 1 690.44 1412.37
  L 688.64 1413.12
  Q 688.18 1413.31 687.96 1413.75
  Q 687.56 1414.56 688.12 1415.48
  Q 688.39 1415.92 688.90 1416.00
  Q 692.05 1416.46 694.63 1415.81
  Q 695.08 1415.70 695.28 1415.30
  L 696.15 1413.52
  A 1.06 1.02 -82.9 0 1 696.84 1412.96
  Q 699.60 1412.32 703.12 1412.60
  Q 703.74 1412.65 703.78 1413.27
  L 704.27 1419.83
  A 0.98 0.96 -4.6 0 0 705.33 1420.71
  L 706.66 1420.60
  Q 707.78 1420.50 708.00 1419.38
  L 708.41 1417.25
  Q 708.53 1416.62 709.16 1416.53
  Q 710.76 1416.30 711.78 1416.84
  Q 712.27 1417.09 712.32 1417.64
  Q 712.79 1422.06 712.57 1427.66
  Q 712.52 1428.97 713.83 1428.96
  L 715.02 1428.95
  Q 716.35 1428.94 716.43 1427.74
  L 716.57 1425.66
  A 0.70 0.70 0.0 0 1 717.27 1425.01
  L 724.13 1424.95
  A 0.98 0.92 -1.6 0 0 725.10 1423.98
  L 725.00 1421.90
  A 1.15 1.12 -0.2 0 0 723.90 1420.84
  L 721.69 1420.74
  Q 720.70 1420.70 720.73 1419.68
  L 720.92 1413.55
  Q 720.95 1412.54 721.98 1412.50
  L 724.14 1412.41
  Q 724.65 1412.39 724.67 1411.88
  L 725.05 1401.08
  Q 725.09 1399.95 726.28 1399.95
  L 727.70 1399.95
  Q 728.93 1399.95 728.96 1401.20
  L 729.10 1406.88
  Q 729.14 1408.27 730.46 1408.27
  L 735.88 1408.29
  Q 737.24 1408.29 737.35 1407.03
  L 737.55 1404.65
  Q 737.59 1404.09 738.13 1404.00
  Q 740.09 1403.69 741.12 1404.31
  Q 741.51 1404.54 741.54 1405.04
  L 741.67 1407.49
  Q 741.71 1408.07 742.27 1408.12
  L 744.78 1408.32
  A 0.87 0.80 -6.7 0 1 745.51 1408.85
  Q 746.02 1410.24 745.63 1411.79
  Q 745.51 1412.27 745.05 1412.39
  L 742.65 1413.03
  Q 742.14 1413.17 741.96 1413.66
  L 741.37 1415.28
  Q 741.21 1415.72 740.78 1415.92
  L 738.45 1417.00
  Q 738.00 1417.20 737.91 1417.72
  Q 737.42 1420.59 737.85 1424.14
  Q 737.91 1424.69 738.43 1424.79
  L 740.79 1425.25
  Q 741.42 1425.37 741.47 1426.05
  L 741.64 1428.09
  Q 741.69 1428.61 742.18 1428.70
  L 744.68 1429.12
  Q 745.64 1429.28 745.79 1430.28
  Q 746.20 1432.99 744.03 1433.12
  Q 742.37 1433.22 738.24 1433.47
  Q 737.74 1433.50 737.72 1433.99
  Q 737.60 1437.37 738.15 1440.42
  Q 738.24 1440.88 738.72 1441.11
  L 740.33 1441.84
  Q 740.88 1442.10 740.99 1442.64
  Q 741.51 1445.27 740.98 1449.03
  Q 740.91 1449.53 740.46 1449.70
  L 738.51 1450.42
  Q 738.00 1450.61 737.99 1451.13
  L 737.84 1461.45
  Q 737.83 1462.35 738.71 1462.50
  Q 741.91 1463.05 741.16 1465.35
  Q 741.00 1465.83 740.55 1466.02
  L 738.55 1466.86
  A 1.24 1.12 79.5 0 0 737.86 1467.98
  L 737.90 1473.81
  Q 737.90 1474.40 738.47 1474.57
  L 740.75 1475.25
  A 0.83 0.82 -84.2 0 1 741.33 1475.98
  L 741.81 1482.01
  A 1.31 1.31 0.0 0 0 743.09 1483.22
  L 744.45 1483.25
  Q 745.55 1483.26 745.61 1482.17
  L 745.75 1479.70
  Q 745.78 1479.11 746.41 1479.06
  Q 750.66 1478.71 753.17 1479.05
  Q 754.04 1479.16 754.02 1480.07
  L 753.93 1486.71
  Q 753.92 1487.58 753.05 1487.59
  L 750.69 1487.61
  Q 749.99 1487.61 750.00 1488.31
  L 750.14 1503.23
  A 0.69 0.66 3.4 0 0 750.75 1503.88
  L 753.22 1504.18
  A 0.61 0.59 1.9 0 1 753.76 1504.73
  L 754.17 1511.41
  A 1.16 1.14 -3.7 0 0 755.40 1512.47
  L 756.75 1512.38
  Q 757.90 1512.30 758.07 1511.13
  L 758.40 1508.94
  Q 758.48 1508.36 759.08 1508.31
  L 761.36 1508.08
  Q 761.90 1508.03 762.13 1507.58
  Q 762.69 1506.44 762.42 1504.76
  Q 762.33 1504.15 761.70 1504.09
  L 759.10 1503.86
  Q 758.04 1503.76 758.08 1502.68
  L 758.12 1501.28
  Q 758.16 1500.14 759.31 1500.09
  L 765.77 1499.79
  Q 766.28 1499.77 766.35 1499.25
  L 766.71 1496.56
  Q 766.79 1495.96 767.38 1495.90
  L 769.81 1495.65
  A 0.67 0.67 0.0 0 0 770.41 1495.01
  L 770.80 1484.34
  Q 770.84 1483.32 769.82 1483.32
  L 763.29 1483.33
  Q 762.31 1483.34 762.33 1482.34
  L 762.39 1480.14
  Q 762.41 1479.12 763.37 1479.00
  L 765.71 1478.69
  A 0.72 0.71 89.0 0 0 766.33 1478.04
  L 766.54 1475.75
  Q 766.60 1475.09 767.25 1475.05
  L 770.12 1474.87
  A 0.64 0.63 88.8 0 0 770.71 1474.25
  L 770.77 1471.32
  Q 770.78 1470.68 771.43 1470.68
  L 774.47 1470.72
  Q 774.93 1470.73 774.94 1470.26
  L 775.04 1463.10
  Q 775.05 1462.52 775.65 1462.49
  L 778.26 1462.38
  Q 778.94 1462.35 778.95 1463.01
  L 778.99 1465.61
  A 1.06 0.97 -1.6 0 0 780.09 1466.56
  L 782.14 1466.48
  Q 783.19 1466.44 783.20 1465.39
  L 783.24 1458.77
  Q 783.24 1458.25 783.77 1458.23
  L 786.47 1458.12
  A 1.09 1.08 -89.4 0 0 787.51 1457.09
  L 787.61 1455.31
  A 1.18 1.14 -87.1 0 0 786.52 1454.07
  L 783.91 1453.95
  Q 783.13 1453.92 783.14 1453.15
  L 783.30 1446.25
  A 0.76 0.67 1.9 0 1 784.10 1445.60
  L 786.70 1445.71
  Q 787.40 1445.74 787.43 1446.47
  L 787.53 1448.79
  A 1.24 1.21 -0.7 0 0 788.75 1449.95
  L 795.07 1450.06
  A 0.67 0.66 89.2 0 1 795.71 1450.70
  L 795.82 1453.04
  Q 795.86 1453.95 796.78 1453.97
  L 803.03 1454.06
  Q 803.96 1454.07 803.95 1453.13
  L 803.90 1446.49
  Q 803.90 1445.83 803.24 1445.82
  L 800.89 1445.79
  Q 799.98 1445.78 799.98 1444.86
  L 800.01 1438.32
  Q 800.02 1437.40 800.88 1437.42
  L 803.16 1437.47
  Q 804.00 1437.49 804.00 1436.61
  L 803.95 1430.00
  Q 803.94 1429.07 803.01 1429.03
  L 800.94 1428.92
  Q 800.00 1428.88 800.00 1427.93
  L 800.00 1425.92
  Q 800.00 1425.07 800.87 1425.05
  L 803.16 1424.99
  Q 803.99 1424.97 803.98 1424.11
  L 803.95 1417.37
  Q 803.95 1416.51 803.12 1416.52
  L 800.57 1416.57
  A 0.51 0.50 88.7 0 1 800.05 1416.07
  L 799.88 1409.19
  A 0.92 0.88 88.9 0 0 798.99 1408.30
  L 796.68 1408.32
  Q 795.99 1408.33 795.98 1409.10
  L 795.79 1420.05
  Q 795.78 1420.69 795.13 1420.70
  L 792.33 1420.75
  A 0.67 0.66 85.5 0 1 791.66 1420.18
  L 791.28 1417.41
  Q 791.21 1416.87 790.68 1416.78
  L 788.23 1416.34
  A 0.71 0.70 -88.4 0 1 787.66 1415.73
  L 787.36 1413.26
  A 0.64 0.63 -1.0 0 0 786.77 1412.70
  L 784.02 1412.48
  A 0.80 0.77 2.2 0 1 783.28 1411.72
  L 783.24 1405.21
  Q 783.23 1404.02 781.96 1404.01
  L 775.74 1403.99
  A 0.79 0.75 89.5 0 1 775.00 1403.21
  L 774.95 1400.62
  Q 774.94 1399.98 775.61 1399.98
  L 786.74 1399.97
  A 0.70 0.70 0.0 0 0 787.43 1399.27
  L 787.35 1388.25
  Q 787.35 1387.69 786.79 1387.67
  L 784.38 1387.61
  Q 783.14 1387.57 783.14 1386.37
  L 783.17 1375.86
  Q 783.17 1374.91 784.16 1374.91
  L 786.80 1374.90
  A 0.86 0.81 -90.0 0 1 787.61 1375.77
  L 787.59 1382.50
  A 0.70 0.68 0.4 0 0 788.28 1383.18
  L 795.01 1383.26
  Q 795.74 1383.26 795.74 1382.50
  L 795.59 1359.26
  A 1.20 1.18 -89.5 0 1 796.80 1358.06
  L 798.82 1358.11
  Q 799.94 1358.14 799.98 1359.25
  L 800.21 1365.83
  Q 800.24 1366.44 800.80 1366.44
  L 803.14 1366.46
  A 0.70 0.69 88.5 0 1 803.82 1367.11
  L 803.97 1369.78
  Q 804.03 1370.69 805.02 1370.68
  L 811.43 1370.64
  Q 812.36 1370.64 812.40 1369.70
  L 812.86 1358.86
  Q 812.89 1358.34 813.40 1358.29
  L 815.07 1358.14
  Q 816.14 1358.04 816.20 1356.88
  L 816.44 1351.44
  Q 816.50 1350.09 815.18 1350.06
  L 809.26 1349.95
  Q 807.91 1349.93 808.07 1348.55
  L 808.25 1346.99
  Q 808.41 1345.55 809.86 1345.61
  Q 811.19 1345.67 811.79 1345.41
  Q 812.31 1345.18 812.27 1343.95
  Q 812.15 1340.76 812.77 1337.98
  Q 812.88 1337.47 813.40 1337.38
  Q 814.62 1337.16 815.67 1337.76
  A 1.22 1.22 0.0 0 1 816.26 1338.54
  Q 816.85 1341.09 819.59 1341.61
  Q 820.14 1341.71 820.33 1342.30
  L 821.15 1344.78
  Q 821.33 1345.31 821.86 1345.42
  L 824.06 1345.89
  A 0.86 0.82 89.8 0 1 824.70 1346.55
  L 825.24 1349.27
  Q 825.35 1349.81 825.89 1349.88
  L 828.25 1350.17
  Q 828.75 1350.23 828.81 1350.76
  L 829.06 1352.99
  Q 829.18 1354.03 830.30 1354.01
  L 836.15 1353.91
  Q 837.38 1353.90 837.44 1352.79
  L 837.56 1350.75
  Q 837.60 1350.13 838.23 1350.08
  L 840.49 1349.92
  Q 841.44 1349.85 841.40 1348.88
  L 841.33 1347.00
  A 1.14 1.12 2.4 0 0 840.33 1345.93
  L 838.31 1345.69
  A 0.65 0.63 -86.9 0 1 837.75 1345.06
  L 837.71 1337.99
  Q 837.70 1337.43 838.27 1337.42
  L 840.82 1337.40
  Q 841.51 1337.39 841.51 1336.70
  L 841.54 1334.21
  A 0.87 0.86 0.4 0 0 840.67 1333.34
  L 837.99 1333.32
  Q 837.42 1333.32 837.42 1332.75
  L 837.38 1329.51
  Q 837.38 1328.93 837.97 1328.94
  L 845.25 1329.00
  Q 845.76 1329.01 845.76 1328.50
  L 845.73 1317.30
  Q 845.73 1316.60 845.06 1316.60
  L 842.30 1316.58
  Q 841.63 1316.58 841.63 1317.22
  L 841.62 1320.18
  Q 841.62 1320.87 840.93 1320.87
  L 837.99 1320.89
  Q 837.34 1320.90 837.35 1320.24
  L 837.49 1309.00
  Q 837.50 1308.27 836.73 1308.24
  L 833.76 1308.12
  Q 833.15 1308.09 833.18 1308.69
  L 833.32 1311.98
  Q 833.34 1312.51 832.77 1312.52
  L 829.74 1312.55
  Q 828.95 1312.56 828.96 1311.76
  L 829.00 1308.93
  A 0.77 0.76 5.3 0 1 829.90 1308.20
  Q 831.30 1308.43 833.17 1307.82"
/>
<path stroke="#0d2676" vector-effect="non-scaling-stroke" d="
  M 866.34 1301.78
  Q 866.27 1302.77 866.50 1303.41
  Q 866.69 1303.97 867.28 1303.97
  L 874.18 1304.00
  Q 874.71 1304.00 874.82 1303.49
  Q 875.21 1301.59 874.87 1299.43"
/>
<path stroke="#0d2676" vector-effect="non-scaling-stroke" d="
  M 878.97 1298.18
  L 879.01 1311.48
  Q 879.02 1312.47 879.98 1312.45
  L 882.05 1312.41
  A 1.21 1.15 -86.8 0 0 883.18 1311.35
  L 883.48 1308.91
  Q 883.55 1308.37 884.12 1308.30
  L 886.61 1307.98
  Q 887.24 1307.90 887.30 1307.35
  L 887.57 1304.70
  Q 887.63 1304.07 888.25 1304.04
  L 890.78 1303.90
  Q 891.48 1303.86 891.47 1303.16
  L 891.42 1300.74
  Q 891.40 1300.15 890.85 1300.12
  L 888.44 1300.01
  Q 887.35 1299.96 887.39 1298.97
  L 887.46 1297.14
  Q 887.52 1295.83 888.74 1295.78
  L 894.46 1295.58
  A 1.04 1.03 84.7 0 1 895.52 1296.47
  Q 895.98 1299.50 895.78 1303.12
  Q 895.75 1303.68 896.29 1303.84
  Q 896.95 1304.02 898.24 1304.01
  Q 899.75 1303.99 899.83 1305.00
  Q 899.90 1305.85 900.07 1307.35
  A 0.95 0.93 86.4 0 0 901.00 1308.19
  L 907.24 1308.14
  Q 908.14 1308.13 908.17 1307.28
  L 908.26 1304.51
  Q 908.28 1304.05 908.76 1304.03
  L 911.78 1303.94
  Q 912.47 1303.92 912.48 1303.24
  L 912.50 1300.81
  Q 912.51 1300.05 911.80 1300.04
  L 908.81 1299.98
  Q 908.22 1299.97 908.22 1299.36
  L 908.09 1287.46"
/>
<path stroke="#122b7b" vector-effect="non-scaling-stroke" d="
  M 642.71 1224.79
  Q 643.89 1225.19 644.99 1225.02
  A 0.82 0.82 0.0 0 0 645.65 1224.45
  Q 645.97 1223.39 645.82 1222.19"
/>
<path stroke="#122b7b" vector-effect="non-scaling-stroke" d="
  M 647.78 1220.59
  L 653.40 1220.72
  Q 653.95 1220.73 653.94 1220.18
  L 653.94 1215.53"
/>
<path stroke="#122b7b" vector-effect="non-scaling-stroke" d="
  M 668.89 1203.71
  Q 669.84 1204.12 670.43 1203.76
  Q 670.76 1203.56 670.78 1203.09
  Q 670.79 1202.71 670.69 1202.28"
/>
<path stroke="#122b7b" vector-effect="non-scaling-stroke" d="
  M 624.92 1268.12
  L 625.12 1273.41
  Q 625.18 1275.05 623.60 1275.05
  L 618.01 1275.06
  Q 616.40 1275.07 616.41 1273.50
  L 616.55 1258.77
  Q 616.56 1258.23 616.01 1258.23
  L 613.02 1258.25
  Q 612.54 1258.25 612.53 1258.74
  L 612.52 1262.00
  Q 612.52 1262.52 612.01 1262.52
  L 608.80 1262.53
  A 0.59 0.59 0.0 0 1 608.21 1261.95
  L 608.16 1255.63"
/>
<path stroke="#122b7b" vector-effect="non-scaling-stroke" d="
  M 610.27 1253.72
  Q 611.11 1254.06 611.88 1253.97
  Q 612.41 1253.90 612.52 1253.37
  Q 612.69 1252.58 612.23 1251.72"
/>
<path stroke="#122b7b" vector-effect="non-scaling-stroke" d="
  M 620.13 1250.10
  L 614.41 1249.83"
/>
<path stroke="#122b7b" vector-effect="non-scaling-stroke" d="
  M 679.98 1283.12
  L 687.06 1283.20
  Q 687.55 1283.20 687.54 1282.73
  L 687.45 1275.52
  A 0.52 0.50 89.8 0 1 687.95 1274.99
  L 690.96 1275.02
  Q 691.45 1275.02 691.45 1275.48
  L 691.42 1278.36
  Q 691.41 1279.04 692.11 1279.03
  L 695.18 1279.00
  Q 695.84 1278.99 695.83 1278.34
  L 695.80 1271.23
  A 0.56 0.54 89.4 0 0 695.25 1270.68
  L 691.97 1270.74
  Q 691.45 1270.75 691.46 1270.22
  L 691.51 1267.01
  A 0.52 0.47 -89.8 0 0 691.04 1266.48
  L 688.03 1266.52
  Q 687.53 1266.52 687.52 1266.02
  L 687.46 1262.89
  Q 687.45 1262.57 687.14 1262.57
  L 683.51 1262.50
  Q 683.27 1262.49 683.27 1262.74
  L 683.26 1266.02
  Q 683.26 1266.53 682.74 1266.53
  L 679.65 1266.52
  Q 679.01 1266.52 679.00 1265.90
  L 678.97 1262.97
  Q 678.96 1262.54 678.48 1262.54
  L 675.40 1262.58"
/>
<path stroke="#122b7b" vector-effect="non-scaling-stroke" d="
  M 662.85 1233.28
  L 666.02 1233.18
  Q 666.50 1233.17 666.50 1232.71
  L 666.46 1225.53
  Q 666.46 1225.05 666.98 1225.04
  L 669.92 1224.99
  Q 670.79 1224.98 670.78 1224.11
  L 670.75 1217.38
  Q 670.75 1216.42 669.91 1216.44
  L 666.99 1216.52
  Q 666.47 1216.54 666.48 1215.98
  L 666.50 1212.98
  Q 666.50 1212.48 667.01 1212.48
  L 674.51 1212.51
  Q 674.97 1212.52 674.96 1212.04
  L 674.62 1199.27"
/>
<path stroke="#122b7b" vector-effect="non-scaling-stroke" d="
  M 836.37 1141.67
  L 833.70 1141.43
  Q 833.24 1141.39 833.24 1140.94
  L 833.19 1137.98
  Q 833.18 1137.55 832.74 1137.54
  L 829.60 1137.49
  Q 828.99 1137.48 828.99 1136.86
  L 829.01 1133.83
  Q 829.02 1133.24 829.65 1133.25
  L 832.38 1133.27
  Q 833.30 1133.28 833.30 1132.39
  L 833.28 1125.88
  Q 833.27 1124.95 832.39 1124.95
  L 825.52 1125.01
  Q 825.04 1125.02 825.03 1124.52
  L 824.99 1121.23
  A 0.52 0.50 89.6 0 0 824.49 1120.71
  L 817.01 1120.71
  Q 816.47 1120.71 816.47 1121.22
  L 816.47 1124.57
  Q 816.47 1124.97 816.83 1124.97
  L 819.95 1124.98
  Q 820.80 1124.98 820.80 1125.93
  L 820.79 1132.26
  Q 820.79 1133.25 819.78 1133.25
  L 813.03 1133.26
  Q 812.52 1133.26 812.52 1133.73
  L 812.53 1141.01
  Q 812.53 1141.53 812.00 1141.53
  L 808.86 1141.50
  Q 808.23 1141.50 808.23 1140.87
  L 808.22 1137.98
  Q 808.22 1137.50 807.73 1137.50
  L 804.63 1137.52
  Q 803.99 1137.52 803.99 1136.88
  L 803.99 1133.82
  A 0.61 0.61 0.0 0 1 804.61 1133.21
  L 807.72 1133.27
  Q 808.17 1133.28 808.16 1132.80
  L 808.05 1120.69"
/>
<path stroke="#122b7b" vector-effect="non-scaling-stroke" d="
  M 808.2369 1141.8763
  A 0.37 0.37 0.0 0 0 807.8663 1141.5070
  L 804.3863 1141.5130
  A 0.37 0.37 0.0 0 0 804.0169 1141.8837
  L 804.0231 1145.3837
  A 0.37 0.37 0.0 0 0 804.3937 1145.7530
  L 807.8737 1145.7470
  A 0.37 0.37 0.0 0 0 808.2431 1145.3763
  L 808.2369 1141.8763"
/>
<path stroke="#1a3303" vector-effect="non-scaling-stroke" d="
  M 679.0115 1254.4639
  A 0.46 0.46 0.0 0 0 678.5548 1254.0007
  L 675.5148 1253.9794
  A 0.46 0.46 0.0 0 0 675.0516 1254.4362
  L 675.0285 1257.7561
  A 0.46 0.46 0.0 0 0 675.4852 1258.2193
  L 678.5252 1258.2406
  A 0.46 0.46 0.0 0 0 678.9884 1257.7838
  L 679.0115 1254.4639"
/>
<path stroke="#122b7b" vector-effect="non-scaling-stroke" d="
  M 691.4853 1258.8970
  A 0.61 0.61 0.0 0 0 690.8774 1258.2849
  L 688.0974 1258.2752
  A 0.61 0.61 0.0 0 0 687.4853 1258.8830
  L 687.4747 1261.9230
  A 0.61 0.61 0.0 0 0 688.0826 1262.5351
  L 690.8626 1262.5448
  A 0.61 0.61 0.0 0 0 691.4747 1261.9370
  L 691.4853 1258.8970"
/>
<path stroke="#122b7b" vector-effect="non-scaling-stroke" d="
  M 787.5678 1421.6467
  A 1.05 1.05 0.0 0 0 786.5069 1420.6078
  L 784.1470 1420.6325
  A 1.05 1.05 0.0 0 0 783.1081 1421.6934
  L 783.1322 1423.9933
  A 1.05 1.05 0.0 0 0 784.1931 1425.0322
  L 786.5530 1425.0075
  A 1.05 1.05 0.0 0 0 787.5919 1423.9466
  L 787.5678 1421.6467"
/>
</g>
<path fill="#1a4ceb" d="
  M 574.59 1291.03
  L 575.11 1299.43
  Q 575.15 1300.04 575.71 1300.04
  L 578.46 1300.01
  Q 578.93 1300.01 578.95 1299.54
  L 579.05 1296.29
  Q 579.07 1295.66 579.68 1295.68
  L 582.70 1295.76
  Q 583.17 1295.78 583.17 1295.30
  L 583.16 1283.89
  Q 583.16 1283.18 583.86 1283.19
  L 586.56 1283.21
  A 0.95 0.90 -2.0 0 1 587.50 1284.03
  L 587.72 1286.71
  Q 587.77 1287.32 588.37 1287.37
  L 590.76 1287.55
  Q 591.34 1287.60 591.40 1288.20
  L 591.60 1290.54
  Q 591.66 1291.18 592.28 1291.25
  L 594.64 1291.54
  A 1.23 1.18 3.4 0 1 595.72 1292.71
  L 595.74 1294.95
  Q 595.75 1295.75 594.99 1295.79
  L 592.53 1295.91
  Q 591.55 1295.96 591.52 1296.93
  L 591.46 1298.78
  A 1.08 1.04 3.4 0 0 592.46 1299.86
  L 595.02 1300.08
  A 0.75 0.73 -88.6 0 1 595.69 1300.79
  L 595.91 1307.65
  A 0.60 0.60 0.0 0 0 596.52 1308.22
  L 598.83 1308.20
  Q 599.73 1308.19 599.78 1309.09
  L 600.19 1315.79
  A 0.83 0.82 -2.9 0 0 601.05 1316.56
  L 602.88 1316.48
  Q 603.70 1316.45 603.82 1315.66
  L 604.23 1312.96
  Q 604.30 1312.49 604.78 1312.47
  L 607.02 1312.35
  Q 608.07 1312.29 608.09 1311.23
  L 608.11 1309.55
  Q 608.12 1308.51 607.06 1308.43
  L 604.64 1308.25
  Q 603.99 1308.20 604.01 1307.42
  L 604.09 1304.96
  A 0.90 0.71 88.8 0 1 604.74 1304.11
  L 607.18 1303.86
  A 1.01 1.01 0.0 0 0 608.09 1302.88
  Q 608.23 1297.63 608.46 1296.49
  Q 608.70 1295.28 610.33 1295.60
  A 1.61 1.56 7.5 0 0 612.25 1294.18
  L 612.61 1288.54
  Q 612.69 1287.36 613.81 1287.35
  L 615.53 1287.32
  Q 616.54 1287.31 616.56 1288.30
  L 616.68 1294.45
  A 1.22 1.22 0.0 0 0 617.88 1295.65
  L 623.85 1295.74
  Q 624.94 1295.76 624.96 1294.67
  L 625.09 1288.07
  Q 625.11 1287.45 625.68 1287.46
  L 628.45 1287.49
  Q 628.92 1287.50 628.93 1287.04
  L 629.05 1283.72
  Q 629.06 1283.25 629.54 1283.24
  L 632.74 1283.20
  Q 633.18 1283.20 633.20 1282.76
  L 633.28 1279.75
  Q 633.30 1279.20 632.76 1279.16
  L 629.81 1278.96
  Q 628.96 1278.90 628.96 1278.05
  L 628.96 1267.23
  Q 628.96 1266.64 628.39 1266.54
  Q 624.46 1265.88 624.92 1268.12
  L 620.13 1250.10
  Q 621.13 1248.97 620.79 1246.45
  A 0.76 0.76 0.0 0 0 620.24 1245.82
  Q 619.52 1245.63 618.76 1245.70
  L 631.58 1234.29
  Q 637.60 1231.88 642.50 1230.65
  Q 653.09 1228.00 662.85 1233.28
  Q 662.21 1234.76 662.61 1236.89
  Q 662.71 1237.45 663.25 1237.45
  L 665.52 1237.46
  A 1.06 1.03 90.0 0 1 666.55 1238.51
  L 666.56 1240.60
  A 0.92 0.88 -90.0 0 1 665.67 1241.53
  L 663.22 1241.51
  Q 662.53 1241.51 662.53 1242.16
  L 662.53 1244.93
  Q 662.53 1245.70 663.23 1245.71
  L 665.48 1245.74
  Q 666.45 1245.76 666.48 1246.75
  L 666.57 1249.19
  Q 666.60 1249.95 665.83 1249.98
  L 662.96 1250.07
  A 0.49 0.47 -1.3 0 0 662.48 1250.54
  L 662.51 1253.48
  Q 662.52 1253.96 662.98 1253.97
  L 670.16 1254.02
  Q 670.80 1254.03 670.79 1254.66
  L 670.74 1257.76
  Q 670.74 1258.30 671.26 1258.28
  L 674.02 1258.18
  A 1.20 1.12 -86.8 0 1 675.17 1259.54
  Q 674.82 1262.10 675.40 1262.58
  Q 679.78 1272.59 679.98 1283.12
  Q 678.65 1283.68 678.85 1286.95
  Q 678.89 1287.58 678.35 1287.56
  L 675.99 1287.47
  A 0.94 0.94 0.0 0 0 675.02 1288.39
  L 674.97 1290.55
  Q 674.95 1291.43 675.80 1291.45
  L 678.21 1291.50
  Q 678.92 1291.52 678.95 1292.24
  L 679.04 1294.98
  Q 679.06 1295.79 678.27 1295.79
  L 671.48 1295.79
  A 0.73 0.67 0.6 0 0 670.76 1296.45
  L 670.70 1299.17
  Q 670.68 1299.92 671.42 1299.93
  L 682.57 1300.07
  Q 683.22 1300.07 683.23 1300.72
  L 683.42 1311.21
  Q 683.44 1312.35 684.67 1312.36
  L 686.04 1312.38
  Q 687.15 1312.39 687.27 1311.22
  L 687.51 1308.83
  Q 687.59 1308.12 688.24 1308.13
  L 695.23 1308.17
  Q 695.84 1308.18 695.84 1308.77
  L 695.87 1320.16
  Q 695.87 1320.74 696.41 1320.72
  L 698.56 1320.63
  Q 699.78 1320.58 699.91 1321.92
  L 700.05 1323.49
  Q 700.18 1324.91 698.75 1324.95
  L 692.25 1325.13
  A 0.99 0.97 79.9 0 0 691.36 1326.43
  Q 692.05 1328.49 691.00 1328.67
  Q 689.84 1328.86 684.08 1329.16
  A 0.80 0.73 -1.5 0 0 683.32 1329.89
  L 683.31 1332.72
  Q 683.30 1333.24 682.78 1333.23
  L 679.72 1333.22
  A 0.57 0.57 0.0 0 0 679.16 1333.77
  L 678.81 1345.21
  Q 678.80 1345.73 678.27 1345.74
  L 676.04 1345.78
  Q 675.10 1345.80 675.06 1346.77
  L 674.98 1348.93
  A 0.98 0.97 -88.4 0 0 675.93 1349.95
  L 686.70 1350.12
  A 0.83 0.72 0.5 0 1 687.52 1350.85
  L 687.52 1353.17
  Q 687.52 1353.82 688.09 1353.87
  L 690.86 1354.15
  Q 691.47 1354.21 691.48 1354.88
  L 691.52 1357.38
  Q 691.53 1357.99 690.92 1358.09
  L 688.20 1358.55
  Q 687.81 1358.61 687.80 1359.04
  L 687.65 1365.49
  A 0.87 0.84 1.3 0 0 688.50 1366.35
  L 694.67 1366.49
  Q 695.58 1366.51 695.61 1365.62
  L 695.83 1358.79
  Q 695.85 1358.20 696.44 1358.20
  L 699.09 1358.20
  Q 699.66 1358.20 699.73 1357.65
  L 700.09 1354.91
  Q 700.22 1353.94 701.16 1353.95
  L 702.86 1353.98
  A 1.12 1.09 0.1 0 1 703.96 1355.06
  L 704.13 1365.98
  Q 704.14 1366.58 704.58 1366.56
  L 707.25 1366.47
  A 0.80 0.80 0.0 0 1 708.07 1367.21
  L 708.26 1369.80
  Q 708.32 1370.70 707.45 1370.73
  L 704.81 1370.79
  Q 704.25 1370.80 704.23 1371.41
  L 703.76 1382.09
  A 1.15 1.15 0.0 0 1 702.78 1383.18
  L 700.94 1383.46
  Q 700.40 1383.54 700.29 1384.11
  L 699.73 1387.00
  Q 699.61 1387.57 699.03 1387.61
  L 697.06 1387.76
  Q 696.37 1387.81 696.30 1388.46
  L 695.58 1395.22
  A 0.59 0.58 -88.7 0 1 695.04 1395.75
  L 688.60 1396.17
  Q 688.10 1396.21 687.95 1396.68
  Q 687.51 1398.05 687.71 1399.06
  Q 687.82 1399.59 688.36 1399.63
  L 694.56 1400.11
  Q 695.86 1400.21 695.81 1401.52
  L 695.77 1402.42
  Q 695.73 1403.66 694.59 1403.90
  L 692.53 1404.33
  Q 691.94 1404.45 691.93 1405.04
  Q 691.88 1407.88 691.06 1411.67
  A 1.07 0.94 -7.2 0 1 690.44 1412.37
  L 688.64 1413.12
  Q 688.18 1413.31 687.96 1413.75
  Q 687.56 1414.56 688.12 1415.48
  Q 688.39 1415.92 688.90 1416.00
  Q 692.05 1416.46 694.63 1415.81
  Q 695.08 1415.70 695.28 1415.30
  L 696.15 1413.52
  A 1.06 1.02 -82.9 0 1 696.84 1412.96
  Q 699.60 1412.32 703.12 1412.60
  Q 703.74 1412.65 703.78 1413.27
  L 704.27 1419.83
  A 0.98 0.96 -4.6 0 0 705.33 1420.71
  L 706.66 1420.60
  Q 707.78 1420.50 708.00 1419.38
  L 708.41 1417.25
  Q 708.53 1416.62 709.16 1416.53
  Q 710.76 1416.30 711.78 1416.84
  Q 712.27 1417.09 712.32 1417.64
  Q 712.79 1422.06 712.57 1427.66
  Q 712.52 1428.97 713.83 1428.96
  L 715.02 1428.95
  Q 716.35 1428.94 716.43 1427.74
  L 716.57 1425.66
  A 0.70 0.70 0.0 0 1 717.27 1425.01
  L 724.13 1424.95
  A 0.98 0.92 -1.6 0 0 725.10 1423.98
  L 725.00 1421.90
  A 1.15 1.12 -0.2 0 0 723.90 1420.84
  L 721.69 1420.74
  Q 720.70 1420.70 720.73 1419.68
  L 720.92 1413.55
  Q 720.95 1412.54 721.98 1412.50
  L 724.14 1412.41
  Q 724.65 1412.39 724.67 1411.88
  L 725.05 1401.08
  Q 725.09 1399.95 726.28 1399.95
  L 727.70 1399.95
  Q 728.93 1399.95 728.96 1401.20
  L 729.10 1406.88
  Q 729.14 1408.27 730.46 1408.27
  L 735.88 1408.29
  Q 737.24 1408.29 737.35 1407.03
  L 737.55 1404.65
  Q 737.59 1404.09 738.13 1404.00
  Q 740.09 1403.69 741.12 1404.31
  Q 741.51 1404.54 741.54 1405.04
  L 741.67 1407.49
  Q 741.71 1408.07 742.27 1408.12
  L 744.78 1408.32
  A 0.87 0.80 -6.7 0 1 745.51 1408.85
  Q 746.02 1410.24 745.63 1411.79
  Q 745.51 1412.27 745.05 1412.39
  L 742.65 1413.03
  Q 742.14 1413.17 741.96 1413.66
  L 741.37 1415.28
  Q 741.21 1415.72 740.78 1415.92
  L 738.45 1417.00
  Q 738.00 1417.20 737.91 1417.72
  Q 737.42 1420.59 737.85 1424.14
  Q 737.91 1424.69 738.43 1424.79
  L 740.79 1425.25
  Q 741.42 1425.37 741.47 1426.05
  L 741.64 1428.09
  Q 741.69 1428.61 742.18 1428.70
  L 744.68 1429.12
  Q 745.64 1429.28 745.79 1430.28
  Q 746.20 1432.99 744.03 1433.12
  Q 742.37 1433.22 738.24 1433.47
  Q 737.74 1433.50 737.72 1433.99
  Q 737.60 1437.37 738.15 1440.42
  Q 738.24 1440.88 738.72 1441.11
  L 740.33 1441.84
  Q 740.88 1442.10 740.99 1442.64
  Q 741.51 1445.27 740.98 1449.03
  Q 740.91 1449.53 740.46 1449.70
  L 738.51 1450.42
  Q 738.00 1450.61 737.99 1451.13
  L 737.84 1461.45
  Q 737.83 1462.35 738.71 1462.50
  Q 741.91 1463.05 741.16 1465.35
  Q 741.00 1465.83 740.55 1466.02
  L 738.55 1466.86
  A 1.24 1.12 79.5 0 0 737.86 1467.98
  L 737.90 1473.81
  Q 737.90 1474.40 738.47 1474.57
  L 740.75 1475.25
  A 0.83 0.82 -84.2 0 1 741.33 1475.98
  L 741.81 1482.01
  A 1.31 1.31 0.0 0 0 743.09 1483.22
  L 744.45 1483.25
  Q 745.55 1483.26 745.61 1482.17
  L 745.75 1479.70
  Q 745.78 1479.11 746.41 1479.06
  Q 750.66 1478.71 753.17 1479.05
  Q 754.04 1479.16 754.02 1480.07
  L 753.93 1486.71
  Q 753.92 1487.58 753.05 1487.59
  L 750.69 1487.61
  Q 749.99 1487.61 750.00 1488.31
  L 750.14 1503.23
  A 0.69 0.66 3.4 0 0 750.75 1503.88
  L 753.22 1504.18
  A 0.61 0.59 1.9 0 1 753.76 1504.73
  L 754.17 1511.41
  A 1.16 1.14 -3.7 0 0 755.40 1512.47
  L 756.75 1512.38
  Q 757.90 1512.30 758.07 1511.13
  L 758.40 1508.94
  Q 758.48 1508.36 759.08 1508.31
  L 761.36 1508.08
  Q 761.90 1508.03 762.13 1507.58
  Q 762.69 1506.44 762.42 1504.76
  Q 762.33 1504.15 761.70 1504.09
  L 759.10 1503.86
  Q 758.04 1503.76 758.08 1502.68
  L 758.12 1501.28
  Q 758.16 1500.14 759.31 1500.09
  L 765.77 1499.79
  Q 766.28 1499.77 766.35 1499.25
  L 766.71 1496.56
  Q 766.79 1495.96 767.38 1495.90
  L 769.81 1495.65
  A 0.67 0.67 0.0 0 0 770.41 1495.01
  L 770.80 1484.34
  Q 770.84 1483.32 769.82 1483.32
  L 763.29 1483.33
  Q 762.31 1483.34 762.33 1482.34
  L 762.39 1480.14
  Q 762.41 1479.12 763.37 1479.00
  L 765.71 1478.69
  A 0.72 0.71 89.0 0 0 766.33 1478.04
  L 766.54 1475.75
  Q 766.60 1475.09 767.25 1475.05
  L 770.12 1474.87
  A 0.64 0.63 88.8 0 0 770.71 1474.25
  L 770.77 1471.32
  Q 770.78 1470.68 771.43 1470.68
  L 774.47 1470.72
  Q 774.93 1470.73 774.94 1470.26
  L 775.04 1463.10
  Q 775.05 1462.52 775.65 1462.49
  L 778.26 1462.38
  Q 778.94 1462.35 778.95 1463.01
  L 778.99 1465.61
  A 1.06 0.97 -1.6 0 0 780.09 1466.56
  L 782.14 1466.48
  Q 783.19 1466.44 783.20 1465.39
  L 783.24 1458.77
  Q 783.24 1458.25 783.77 1458.23
  L 786.47 1458.12
  A 1.09 1.08 -89.4 0 0 787.51 1457.09
  L 787.61 1455.31
  A 1.18 1.14 -87.1 0 0 786.52 1454.07
  L 783.91 1453.95
  Q 783.13 1453.92 783.14 1453.15
  L 783.30 1446.25
  A 0.76 0.67 1.9 0 1 784.10 1445.60
  L 786.70 1445.71
  Q 787.40 1445.74 787.43 1446.47
  L 787.53 1448.79
  A 1.24 1.21 -0.7 0 0 788.75 1449.95
  L 795.07 1450.06
  A 0.67 0.66 89.2 0 1 795.71 1450.70
  L 795.82 1453.04
  Q 795.86 1453.95 796.78 1453.97
  L 803.03 1454.06
  Q 803.96 1454.07 803.95 1453.13
  L 803.90 1446.49
  Q 803.90 1445.83 803.24 1445.82
  L 800.89 1445.79
  Q 799.98 1445.78 799.98 1444.86
  L 800.01 1438.32
  Q 800.02 1437.40 800.88 1437.42
  L 803.16 1437.47
  Q 804.00 1437.49 804.00 1436.61
  L 803.95 1430.00
  Q 803.94 1429.07 803.01 1429.03
  L 800.94 1428.92
  Q 800.00 1428.88 800.00 1427.93
  L 800.00 1425.92
  Q 800.00 1425.07 800.87 1425.05
  L 803.16 1424.99
  Q 803.99 1424.97 803.98 1424.11
  L 803.95 1417.37
  Q 803.95 1416.51 803.12 1416.52
  L 800.57 1416.57
  A 0.51 0.50 88.7 0 1 800.05 1416.07
  L 799.88 1409.19
  A 0.92 0.88 88.9 0 0 798.99 1408.30
  L 796.68 1408.32
  Q 795.99 1408.33 795.98 1409.10
  L 795.79 1420.05
  Q 795.78 1420.69 795.13 1420.70
  L 792.33 1420.75
  A 0.67 0.66 85.5 0 1 791.66 1420.18
  L 791.28 1417.41
  Q 791.21 1416.87 790.68 1416.78
  L 788.23 1416.34
  A 0.71 0.70 -88.4 0 1 787.66 1415.73
  L 787.36 1413.26
  A 0.64 0.63 -1.0 0 0 786.77 1412.70
  L 784.02 1412.48
  A 0.80 0.77 2.2 0 1 783.28 1411.72
  L 783.24 1405.21
  Q 783.23 1404.02 781.96 1404.01
  L 775.74 1403.99
  A 0.79 0.75 89.5 0 1 775.00 1403.21
  L 774.95 1400.62
  Q 774.94 1399.98 775.61 1399.98
  L 786.74 1399.97
  A 0.70 0.70 0.0 0 0 787.43 1399.27
  L 787.35 1388.25
  Q 787.35 1387.69 786.79 1387.67
  L 784.38 1387.61
  Q 783.14 1387.57 783.14 1386.37
  L 783.17 1375.86
  Q 783.17 1374.91 784.16 1374.91
  L 786.80 1374.90
  A 0.86 0.81 -90.0 0 1 787.61 1375.77
  L 787.59 1382.50
  A 0.70 0.68 0.4 0 0 788.28 1383.18
  L 795.01 1383.26
  Q 795.74 1383.26 795.74 1382.50
  L 795.59 1359.26
  A 1.20 1.18 -89.5 0 1 796.80 1358.06
  L 798.82 1358.11
  Q 799.94 1358.14 799.98 1359.25
  L 800.21 1365.83
  Q 800.24 1366.44 800.80 1366.44
  L 803.14 1366.46
  A 0.70 0.69 88.5 0 1 803.82 1367.11
  L 803.97 1369.78
  Q 804.03 1370.69 805.02 1370.68
  L 811.43 1370.64
  Q 812.36 1370.64 812.40 1369.70
  L 812.86 1358.86
  Q 812.89 1358.34 813.40 1358.29
  L 815.07 1358.14
  Q 816.14 1358.04 816.20 1356.88
  L 816.44 1351.44
  Q 816.50 1350.09 815.18 1350.06
  L 809.26 1349.95
  Q 807.91 1349.93 808.07 1348.55
  L 808.25 1346.99
  Q 808.41 1345.55 809.86 1345.61
  Q 811.19 1345.67 811.79 1345.41
  Q 812.31 1345.18 812.27 1343.95
  Q 812.15 1340.76 812.77 1337.98
  Q 812.88 1337.47 813.40 1337.38
  Q 814.62 1337.16 815.67 1337.76
  A 1.22 1.22 0.0 0 1 816.26 1338.54
  Q 816.85 1341.09 819.59 1341.61
  Q 820.14 1341.71 820.33 1342.30
  L 821.15 1344.78
  Q 821.33 1345.31 821.86 1345.42
  L 824.06 1345.89
  A 0.86 0.82 89.8 0 1 824.70 1346.55
  L 825.24 1349.27
  Q 825.35 1349.81 825.89 1349.88
  L 828.25 1350.17
  Q 828.75 1350.23 828.81 1350.76
  L 829.06 1352.99
  Q 829.18 1354.03 830.30 1354.01
  L 836.15 1353.91
  Q 837.38 1353.90 837.44 1352.79
  L 837.56 1350.75
  Q 837.60 1350.13 838.23 1350.08
  L 840.49 1349.92
  Q 841.44 1349.85 841.40 1348.88
  L 841.33 1347.00
  A 1.14 1.12 2.4 0 0 840.33 1345.93
  L 838.31 1345.69
  A 0.65 0.63 -86.9 0 1 837.75 1345.06
  L 837.71 1337.99
  Q 837.70 1337.43 838.27 1337.42
  L 840.82 1337.40
  Q 841.51 1337.39 841.51 1336.70
  L 841.54 1334.21
  A 0.87 0.86 0.4 0 0 840.67 1333.34
  L 837.99 1333.32
  Q 837.42 1333.32 837.42 1332.75
  L 837.38 1329.51
  Q 837.38 1328.93 837.97 1328.94
  L 845.25 1329.00
  Q 845.76 1329.01 845.76 1328.50
  L 845.73 1317.30
  Q 845.73 1316.60 845.06 1316.60
  L 842.30 1316.58
  Q 841.63 1316.58 841.63 1317.22
  L 841.62 1320.18
  Q 841.62 1320.87 840.93 1320.87
  L 837.99 1320.89
  Q 837.34 1320.90 837.35 1320.24
  L 837.49 1309.00
  Q 837.50 1308.27 836.73 1308.24
  L 833.76 1308.12
  Q 833.15 1308.09 833.18 1308.69
  L 833.32 1311.98
  Q 833.34 1312.51 832.77 1312.52
  L 829.74 1312.55
  Q 828.95 1312.56 828.96 1311.76
  L 829.00 1308.93
  A 0.77 0.76 5.3 0 1 829.90 1308.20
  Q 831.30 1308.43 833.17 1307.82
  Q 849.75 1306.96 866.34 1301.78
  Q 866.27 1302.77 866.50 1303.41
  Q 866.69 1303.97 867.28 1303.97
  L 874.18 1304.00
  Q 874.71 1304.00 874.82 1303.49
  Q 875.21 1301.59 874.87 1299.43
  L 878.97 1298.18
  L 879.01 1311.48
  Q 879.02 1312.47 879.98 1312.45
  L 882.05 1312.41
  A 1.21 1.15 -86.8 0 0 883.18 1311.35
  L 883.48 1308.91
  Q 883.55 1308.37 884.12 1308.30
  L 886.61 1307.98
  Q 887.24 1307.90 887.30 1307.35
  L 887.57 1304.70
  Q 887.63 1304.07 888.25 1304.04
  L 890.78 1303.90
  Q 891.48 1303.86 891.47 1303.16
  L 891.42 1300.74
  Q 891.40 1300.15 890.85 1300.12
  L 888.44 1300.01
  Q 887.35 1299.96 887.39 1298.97
  L 887.46 1297.14
  Q 887.52 1295.83 888.74 1295.78
  L 894.46 1295.58
  A 1.04 1.03 84.7 0 1 895.52 1296.47
  Q 895.98 1299.50 895.78 1303.12
  Q 895.75 1303.68 896.29 1303.84
  Q 896.95 1304.02 898.24 1304.01
  Q 899.75 1303.99 899.83 1305.00
  Q 899.90 1305.85 900.07 1307.35
  A 0.95 0.93 86.4 0 0 901.00 1308.19
  L 907.24 1308.14
  Q 908.14 1308.13 908.17 1307.28
  L 908.26 1304.51
  Q 908.28 1304.05 908.76 1304.03
  L 911.78 1303.94
  Q 912.47 1303.92 912.48 1303.24
  L 912.50 1300.81
  Q 912.51 1300.05 911.80 1300.04
  L 908.81 1299.98
  Q 908.22 1299.97 908.22 1299.36
  L 908.09 1287.46
  Q 933.95 1276.41 958.45 1262.19
  Q 989.68 1244.05 1018.30 1223.78
  Q 1033.10 1213.29 1046.32 1202.31
  Q 1066.33 1185.68 1085.14 1169.14
  Q 1109.83 1147.42 1132.83 1130.33
  C 1152.72 1115.55 1174.91 1102.66 1198.06 1093.55
  Q 1200.87 1092.44 1203.68 1092.46
  Q 1217.48 1092.52 1225.34 1092.50
  Q 1225.94 1092.50 1226.34 1092.94
  Q 1234.23 1101.39 1240.55 1109.70
  Q 1246.55 1117.59 1249.60 1127.06
  Q 1252.60 1136.38 1252.62 1136.43
  C 1258.60 1151.60 1268.84 1164.57 1279.86 1176.72
  Q 1346.59 1250.31 1412.12 1326.88
  Q 1420.99 1337.24 1424.74 1342.18
  Q 1467.37 1398.33 1477.34 1469.16
  Q 1478.68 1478.69 1478.60 1488.55
  Q 1478.56 1493.29 1478.37 1508.00
  Q 1477.84 1549.50 1478.97 1586.02
  Q 1479.05 1588.50 1478.20 1591.24
  A 0.72 0.71 8.6 0 1 1477.52 1591.74
  L 457.05 1591.74
  A 0.29 0.29 0.0 0 1 456.78 1591.34
  Q 464.46 1573.40 469.80 1560.31
  Q 488.69 1514.06 499.33 1475.37
  Q 507.18 1446.82 511.67 1416.19
  Q 513.33 1404.86 516.72 1390.52
  Q 522.49 1366.11 534.48 1346.03
  Q 538.52 1339.26 545.31 1329.21
  Q 558.72 1309.38 574.59 1291.03
  Z"
/>
<path fill="#2355f5" d="
  M 836.37 1141.67
  L 833.70 1141.43
  Q 833.24 1141.39 833.24 1140.94
  L 833.19 1137.98
  Q 833.18 1137.55 832.74 1137.54
  L 829.60 1137.49
  Q 828.99 1137.48 828.99 1136.86
  L 829.01 1133.83
  Q 829.02 1133.24 829.65 1133.25
  L 832.38 1133.27
  Q 833.30 1133.28 833.30 1132.39
  L 833.28 1125.88
  Q 833.27 1124.95 832.39 1124.95
  L 825.52 1125.01
  Q 825.04 1125.02 825.03 1124.52
  L 824.99 1121.23
  A 0.52 0.50 89.6 0 0 824.49 1120.71
  L 817.01 1120.71
  Q 816.47 1120.71 816.47 1121.22
  L 816.47 1124.57
  Q 816.47 1124.97 816.83 1124.97
  L 819.95 1124.98
  Q 820.80 1124.98 820.80 1125.93
  L 820.79 1132.26
  Q 820.79 1133.25 819.78 1133.25
  L 813.03 1133.26
  Q 812.52 1133.26 812.52 1133.73
  L 812.53 1141.01
  Q 812.53 1141.53 812.00 1141.53
  L 808.86 1141.50
  Q 808.23 1141.50 808.23 1140.87
  L 808.22 1137.98
  Q 808.22 1137.50 807.73 1137.50
  L 804.63 1137.52
  Q 803.99 1137.52 803.99 1136.88
  L 803.99 1133.82
  A 0.61 0.61 0.0 0 1 804.61 1133.21
  L 807.72 1133.27
  Q 808.17 1133.28 808.16 1132.80
  L 808.05 1120.69
  Q 813.42 1115.58 816.57 1112.84
  Q 819.71 1110.11 824.03 1109.63
  Q 827.78 1109.21 830.79 1111.61
  C 835.30 1115.21 836.74 1122.06 836.72 1127.51
  Q 836.70 1134.63 836.37 1141.67
  Z"
/>
<path fill="#000000" d="
  M 808.05 1120.69
  L 808.16 1132.80
  Q 808.17 1133.28 807.72 1133.27
  L 804.61 1133.21
  A 0.61 0.61 0.0 0 0 803.99 1133.82
  L 803.99 1136.88
  Q 803.99 1137.52 804.63 1137.52
  L 807.73 1137.50
  Q 808.22 1137.50 808.22 1137.98
  L 808.23 1140.87
  Q 808.23 1141.50 808.86 1141.50
  L 812.00 1141.53
  Q 812.53 1141.53 812.53 1141.01
  L 812.52 1133.73
  Q 812.52 1133.26 813.03 1133.26
  L 819.78 1133.25
  Q 820.79 1133.25 820.79 1132.26
  L 820.80 1125.93
  Q 820.80 1124.98 819.95 1124.98
  L 816.83 1124.97
  Q 816.47 1124.97 816.47 1124.57
  L 816.47 1121.22
  Q 816.47 1120.71 817.01 1120.71
  L 824.49 1120.71
  A 0.52 0.50 89.6 0 1 824.99 1121.23
  L 825.03 1124.52
  Q 825.04 1125.02 825.52 1125.01
  L 832.39 1124.95
  Q 833.27 1124.95 833.28 1125.88
  L 833.30 1132.39
  Q 833.30 1133.28 832.38 1133.27
  L 829.65 1133.25
  Q 829.02 1133.24 829.01 1133.83
  L 828.99 1136.86
  Q 828.99 1137.48 829.60 1137.49
  L 832.74 1137.54
  Q 833.18 1137.55 833.19 1137.98
  L 833.24 1140.94
  Q 833.24 1141.39 833.70 1141.43
  L 836.37 1141.67
  Q 835.80 1157.38 833.35 1172.81
  Q 829.16 1199.27 817.11 1224.83
  Q 811.00 1237.80 808.75 1255.00
  Q 808.15 1259.62 808.19 1266.12
  Q 808.23 1272.73 808.53 1277.24
  Q 809.00 1284.16 810.84 1290.98
  Q 815.29 1307.39 833.17 1307.82
  Q 831.30 1308.43 829.90 1308.20
  A 0.77 0.76 5.3 0 0 829.00 1308.93
  L 828.96 1311.76
  Q 828.95 1312.56 829.74 1312.55
  L 832.77 1312.52
  Q 833.34 1312.51 833.32 1311.98
  L 833.18 1308.69
  Q 833.15 1308.09 833.76 1308.12
  L 836.73 1308.24
  Q 837.50 1308.27 837.49 1309.00
  L 837.35 1320.24
  Q 837.34 1320.90 837.99 1320.89
  L 840.93 1320.87
  Q 841.62 1320.87 841.62 1320.18
  L 841.63 1317.22
  Q 841.63 1316.58 842.30 1316.58
  L 845.06 1316.60
  Q 845.73 1316.60 845.73 1317.30
  L 845.76 1328.50
  Q 845.76 1329.01 845.25 1329.00
  L 837.97 1328.94
  Q 837.38 1328.93 837.38 1329.51
  L 837.42 1332.75
  Q 837.42 1333.32 837.99 1333.32
  L 840.67 1333.34
  A 0.87 0.86 0.4 0 1 841.54 1334.21
  L 841.51 1336.70
  Q 841.51 1337.39 840.82 1337.40
  L 838.27 1337.42
  Q 837.70 1337.43 837.71 1337.99
  L 837.75 1345.06
  A 0.65 0.63 -86.9 0 0 838.31 1345.69
  L 840.33 1345.93
  A 1.14 1.12 2.4 0 1 841.33 1347.00
  L 841.40 1348.88
  Q 841.44 1349.85 840.49 1349.92
  L 838.23 1350.08
  Q 837.60 1350.13 837.56 1350.75
  L 837.44 1352.79
  Q 837.38 1353.90 836.15 1353.91
  L 830.30 1354.01
  Q 829.18 1354.03 829.06 1352.99
  L 828.81 1350.76
  Q 828.75 1350.23 828.25 1350.17
  L 825.89 1349.88
  Q 825.35 1349.81 825.24 1349.27
  L 824.70 1346.55
  A 0.86 0.82 89.8 0 0 824.06 1345.89
  L 821.86 1345.42
  Q 821.33 1345.31 821.15 1344.78
  L 820.33 1342.30
  Q 820.14 1341.71 819.59 1341.61
  Q 816.85 1341.09 816.26 1338.54
  A 1.22 1.22 0.0 0 0 815.67 1337.76
  Q 814.62 1337.16 813.40 1337.38
  Q 812.88 1337.47 812.77 1337.98
  Q 812.15 1340.76 812.27 1343.95
  Q 812.31 1345.18 811.79 1345.41
  Q 811.19 1345.67 809.86 1345.61
  Q 808.41 1345.55 808.25 1346.99
  L 808.07 1348.55
  Q 807.91 1349.93 809.26 1349.95
  L 815.18 1350.06
  Q 816.50 1350.09 816.44 1351.44
  L 816.20 1356.88
  Q 816.14 1358.04 815.07 1358.14
  L 813.40 1358.29
  Q 812.89 1358.34 812.86 1358.86
  L 812.40 1369.70
  Q 812.36 1370.64 811.43 1370.64
  L 805.02 1370.68
  Q 804.03 1370.69 803.97 1369.78
  L 803.82 1367.11
  A 0.70 0.69 88.5 0 0 803.14 1366.46
  L 800.80 1366.44
  Q 800.24 1366.44 800.21 1365.83
  L 799.98 1359.25
  Q 799.94 1358.14 798.82 1358.11
  L 796.80 1358.06
  A 1.20 1.18 -89.5 0 0 795.59 1359.26
  L 795.74 1382.50
  Q 795.74 1383.26 795.01 1383.26
  L 788.28 1383.18
  A 0.70 0.68 0.4 0 1 787.59 1382.50
  L 787.61 1375.77
  A 0.86 0.81 -90.0 0 0 786.80 1374.90
  L 784.16 1374.91
  Q 783.17 1374.91 783.17 1375.86
  L 783.14 1386.37
  Q 783.14 1387.57 784.38 1387.61
  L 786.79 1387.67
  Q 787.35 1387.69 787.35 1388.25
  L 787.43 1399.27
  A 0.70 0.70 0.0 0 1 786.74 1399.97
  L 775.61 1399.98
  Q 774.94 1399.98 774.95 1400.62
  L 775.00 1403.21
  A 0.79 0.75 89.5 0 0 775.74 1403.99
  L 781.96 1404.01
  Q 783.23 1404.02 783.24 1405.21
  L 783.28 1411.72
  A 0.80 0.77 2.2 0 0 784.02 1412.48
  L 786.77 1412.70
  A 0.64 0.63 -1.0 0 1 787.36 1413.26
  L 787.66 1415.73
  A 0.71 0.70 -88.4 0 0 788.23 1416.34
  L 790.68 1416.78
  Q 791.21 1416.87 791.28 1417.41
  L 791.66 1420.18
  A 0.67 0.66 85.5 0 0 792.33 1420.75
  L 795.13 1420.70
  Q 795.78 1420.69 795.79 1420.05
  L 795.98 1409.10
  Q 795.99 1408.33 796.68 1408.32
  L 798.99 1408.30
  A 0.92 0.88 88.9 0 1 799.88 1409.19
  L 800.05 1416.07
  A 0.51 0.50 88.7 0 0 800.57 1416.57
  L 803.12 1416.52
  Q 803.95 1416.51 803.95 1417.37
  L 803.98 1424.11
  Q 803.99 1424.97 803.16 1424.99
  L 800.87 1425.05
  Q 800.00 1425.07 800.00 1425.92
  L 800.00 1427.93
  Q 800.00 1428.88 800.94 1428.92
  L 803.01 1429.03
  Q 803.94 1429.07 803.95 1430.00
  L 804.00 1436.61
  Q 804.00 1437.49 803.16 1437.47
  L 800.88 1437.42
  Q 800.02 1437.40 800.01 1438.32
  L 799.98 1444.86
  Q 799.98 1445.78 800.89 1445.79
  L 803.24 1445.82
  Q 803.90 1445.83 803.90 1446.49
  L 803.95 1453.13
  Q 803.96 1454.07 803.03 1454.06
  L 796.78 1453.97
  Q 795.86 1453.95 795.82 1453.04
  L 795.71 1450.70
  A 0.67 0.66 89.2 0 0 795.07 1450.06
  L 788.75 1449.95
  A 1.24 1.21 -0.7 0 1 787.53 1448.79
  L 787.43 1446.47
  Q 787.40 1445.74 786.70 1445.71
  L 784.10 1445.60
  A 0.76 0.67 1.9 0 0 783.30 1446.25
  L 783.14 1453.15
  Q 783.13 1453.92 783.91 1453.95
  L 786.52 1454.07
  A 1.18 1.14 -87.1 0 1 787.61 1455.31
  L 787.51 1457.09
  A 1.09 1.08 -89.4 0 1 786.47 1458.12
  L 783.77 1458.23
  Q 783.24 1458.25 783.24 1458.77
  L 783.20 1465.39
  Q 783.19 1466.44 782.14 1466.48
  L 780.09 1466.56
  A 1.06 0.97 -1.6 0 1 778.99 1465.61
  L 778.95 1463.01
  Q 778.94 1462.35 778.26 1462.38
  L 775.65 1462.49
  Q 775.05 1462.52 775.04 1463.10
  L 774.94 1470.26
  Q 774.93 1470.73 774.47 1470.72
  L 771.43 1470.68
  Q 770.78 1470.68 770.77 1471.32
  L 770.71 1474.25
  A 0.64 0.63 88.8 0 1 770.12 1474.87
  L 767.25 1475.05
  Q 766.60 1475.09 766.54 1475.75
  L 766.33 1478.04
  A 0.72 0.71 89.0 0 1 765.71 1478.69
  L 763.37 1479.00
  Q 762.41 1479.12 762.39 1480.14
  L 762.33 1482.34
  Q 762.31 1483.34 763.29 1483.33
  L 769.82 1483.32
  Q 770.84 1483.32 770.80 1484.34
  L 770.41 1495.01
  A 0.67 0.67 0.0 0 1 769.81 1495.65
  L 767.38 1495.90
  Q 766.79 1495.96 766.71 1496.56
  L 766.35 1499.25
  Q 766.28 1499.77 765.77 1499.79
  L 759.31 1500.09
  Q 758.16 1500.14 758.12 1501.28
  L 758.08 1502.68
  Q 758.04 1503.76 759.10 1503.86
  L 761.70 1504.09
  Q 762.33 1504.15 762.42 1504.76
  Q 762.69 1506.44 762.13 1507.58
  Q 761.90 1508.03 761.36 1508.08
  L 759.08 1508.31
  Q 758.48 1508.36 758.40 1508.94
  L 758.07 1511.13
  Q 757.90 1512.30 756.75 1512.38
  L 755.40 1512.47
  A 1.16 1.14 -3.7 0 1 754.17 1511.41
  L 753.76 1504.73
  A 0.61 0.59 1.9 0 0 753.22 1504.18
  L 750.75 1503.88
  A 0.69 0.66 3.4 0 1 750.14 1503.23
  L 750.00 1488.31
  Q 749.99 1487.61 750.69 1487.61
  L 753.05 1487.59
  Q 753.92 1487.58 753.93 1486.71
  L 754.02 1480.07
  Q 754.04 1479.16 753.17 1479.05
  Q 750.66 1478.71 746.41 1479.06
  Q 745.78 1479.11 745.75 1479.70
  L 745.61 1482.17
  Q 745.55 1483.26 744.45 1483.25
  L 743.09 1483.22
  A 1.31 1.31 0.0 0 1 741.81 1482.01
  L 741.33 1475.98
  A 0.83 0.82 -84.2 0 0 740.75 1475.25
  L 738.47 1474.57
  Q 737.90 1474.40 737.90 1473.81
  L 737.86 1467.98
  A 1.24 1.12 79.5 0 1 738.55 1466.86
  L 740.55 1466.02
  Q 741.00 1465.83 741.16 1465.35
  Q 741.91 1463.05 738.71 1462.50
  Q 737.83 1462.35 737.84 1461.45
  L 737.99 1451.13
  Q 738.00 1450.61 738.51 1450.42
  L 740.46 1449.70
  Q 740.91 1449.53 740.98 1449.03
  Q 741.51 1445.27 740.99 1442.64
  Q 740.88 1442.10 740.33 1441.84
  L 738.72 1441.11
  Q 738.24 1440.88 738.15 1440.42
  Q 737.60 1437.37 737.72 1433.99
  Q 737.74 1433.50 738.24 1433.47
  Q 742.37 1433.22 744.03 1433.12
  Q 746.20 1432.99 745.79 1430.28
  Q 745.64 1429.28 744.68 1429.12
  L 742.18 1428.70
  Q 741.69 1428.61 741.64 1428.09
  L 741.47 1426.05
  Q 741.42 1425.37 740.79 1425.25
  L 738.43 1424.79
  Q 737.91 1424.69 737.85 1424.14
  Q 737.42 1420.59 737.91 1417.72
  Q 738.00 1417.20 738.45 1417.00
  L 740.78 1415.92
  Q 741.21 1415.72 741.37 1415.28
  L 741.96 1413.66
  Q 742.14 1413.17 742.65 1413.03
  L 745.05 1412.39
  Q 745.51 1412.27 745.63 1411.79
  Q 746.02 1410.24 745.51 1408.85
  A 0.87 0.80 -6.7 0 0 744.78 1408.32
  L 742.27 1408.12
  Q 741.71 1408.07 741.67 1407.49
  L 741.54 1405.04
  Q 741.51 1404.54 741.12 1404.31
  Q 740.09 1403.69 738.13 1404.00
  Q 737.59 1404.09 737.55 1404.65
  L 737.35 1407.03
  Q 737.24 1408.29 735.88 1408.29
  L 730.46 1408.27
  Q 729.14 1408.27 729.10 1406.88
  L 728.96 1401.20
  Q 728.93 1399.95 727.70 1399.95
  L 726.28 1399.95
  Q 725.09 1399.95 725.05 1401.08
  L 724.67 1411.88
  Q 724.65 1412.39 724.14 1412.41
  L 721.98 1412.50
  Q 720.95 1412.54 720.92 1413.55
  L 720.73 1419.68
  Q 720.70 1420.70 721.69 1420.74
  L 723.90 1420.84
  A 1.15 1.12 -0.2 0 1 725.00 1421.90
  L 725.10 1423.98
  A 0.98 0.92 -1.6 0 1 724.13 1424.95
  L 717.27 1425.01
  A 0.70 0.70 0.0 0 0 716.57 1425.66
  L 716.43 1427.74
  Q 716.35 1428.94 715.02 1428.95
  L 713.83 1428.96
  Q 712.52 1428.97 712.57 1427.66
  Q 712.79 1422.06 712.32 1417.64
  Q 712.27 1417.09 711.78 1416.84
  Q 710.76 1416.30 709.16 1416.53
  Q 708.53 1416.62 708.41 1417.25
  L 708.00 1419.38
  Q 707.78 1420.50 706.66 1420.60
  L 705.33 1420.71
  A 0.98 0.96 -4.6 0 1 704.27 1419.83
  L 703.78 1413.27
  Q 703.74 1412.65 703.12 1412.60
  Q 699.60 1412.32 696.84 1412.96
  A 1.06 1.02 -82.9 0 0 696.15 1413.52
  L 695.28 1415.30
  Q 695.08 1415.70 694.63 1415.81
  Q 692.05 1416.46 688.90 1416.00
  Q 688.39 1415.92 688.12 1415.48
  Q 687.56 1414.56 687.96 1413.75
  Q 688.18 1413.31 688.64 1413.12
  L 690.44 1412.37
  A 1.07 0.94 -7.2 0 0 691.06 1411.67
  Q 691.88 1407.88 691.93 1405.04
  Q 691.94 1404.45 692.53 1404.33
  L 694.59 1403.90
  Q 695.73 1403.66 695.77 1402.42
  L 695.81 1401.52
  Q 695.86 1400.21 694.56 1400.11
  L 688.36 1399.63
  Q 687.82 1399.59 687.71 1399.06
  Q 687.51 1398.05 687.95 1396.68
  Q 688.10 1396.21 688.60 1396.17
  L 695.04 1395.75
  A 0.59 0.58 -88.7 0 0 695.58 1395.22
  L 696.30 1388.46
  Q 696.37 1387.81 697.06 1387.76
  L 699.03 1387.61
  Q 699.61 1387.57 699.73 1387.00
  L 700.29 1384.11
  Q 700.40 1383.54 700.94 1383.46
  L 702.78 1383.18
  A 1.15 1.15 0.0 0 0 703.76 1382.09
  L 704.23 1371.41
  Q 704.25 1370.80 704.81 1370.79
  L 707.45 1370.73
  Q 708.32 1370.70 708.26 1369.80
  L 708.07 1367.21
  A 0.80 0.80 0.0 0 0 707.25 1366.47
  L 704.58 1366.56
  Q 704.14 1366.58 704.13 1365.98
  L 703.96 1355.06
  A 1.12 1.09 0.1 0 0 702.86 1353.98
  L 701.16 1353.95
  Q 700.22 1353.94 700.09 1354.91
  L 699.73 1357.65
  Q 699.66 1358.20 699.09 1358.20
  L 696.44 1358.20
  Q 695.85 1358.20 695.83 1358.79
  L 695.61 1365.62
  Q 695.58 1366.51 694.67 1366.49
  L 688.50 1366.35
  A 0.87 0.84 1.3 0 1 687.65 1365.49
  L 687.80 1359.04
  Q 687.81 1358.61 688.20 1358.55
  L 690.92 1358.09
  Q 691.53 1357.99 691.52 1357.38
  L 691.48 1354.88
  Q 691.47 1354.21 690.86 1354.15
  L 688.09 1353.87
  Q 687.52 1353.82 687.52 1353.17
  L 687.52 1350.85
  A 0.83 0.72 0.5 0 0 686.70 1350.12
  L 675.93 1349.95
  A 0.98 0.97 -88.4 0 1 674.98 1348.93
  L 675.06 1346.77
  Q 675.10 1345.80 676.04 1345.78
  L 678.27 1345.74
  Q 678.80 1345.73 678.81 1345.21
  L 679.16 1333.77
  A 0.57 0.57 0.0 0 1 679.72 1333.22
  L 682.78 1333.23
  Q 683.30 1333.24 683.31 1332.72
  L 683.32 1329.89
  A 0.80 0.73 -1.5 0 1 684.08 1329.16
  Q 689.84 1328.86 691.00 1328.67
  Q 692.05 1328.49 691.36 1326.43
  A 0.99 0.97 79.9 0 1 692.25 1325.13
  L 698.75 1324.95
  Q 700.18 1324.91 700.05 1323.49
  L 699.91 1321.92
  Q 699.78 1320.58 698.56 1320.63
  L 696.41 1320.72
  Q 695.87 1320.74 695.87 1320.16
  L 695.84 1308.77
  Q 695.84 1308.18 695.23 1308.17
  L 688.24 1308.13
  Q 687.59 1308.12 687.51 1308.83
  L 687.27 1311.22
  Q 687.15 1312.39 686.04 1312.38
  L 684.67 1312.36
  Q 683.44 1312.35 683.42 1311.21
  L 683.23 1300.72
  Q 683.22 1300.07 682.57 1300.07
  L 671.42 1299.93
  Q 670.68 1299.92 670.70 1299.17
  L 670.76 1296.45
  A 0.73 0.67 0.6 0 1 671.48 1295.79
  L 678.27 1295.79
  Q 679.06 1295.79 679.04 1294.98
  L 678.95 1292.24
  Q 678.92 1291.52 678.21 1291.50
  L 675.80 1291.45
  Q 674.95 1291.43 674.97 1290.55
  L 675.02 1288.39
  A 0.94 0.94 0.0 0 1 675.99 1287.47
  L 678.35 1287.56
  Q 678.89 1287.58 678.85 1286.95
  Q 678.65 1283.68 679.98 1283.12
  L 687.06 1283.20
  Q 687.55 1283.20 687.54 1282.73
  L 687.45 1275.52
  A 0.52 0.50 89.8 0 1 687.95 1274.99
  L 690.96 1275.02
  Q 691.45 1275.02 691.45 1275.48
  L 691.42 1278.36
  Q 691.41 1279.04 692.11 1279.03
  L 695.18 1279.00
  Q 695.84 1278.99 695.83 1278.34
  L 695.80 1271.23
  A 0.56 0.54 89.4 0 0 695.25 1270.68
  L 691.97 1270.74
  Q 691.45 1270.75 691.46 1270.22
  L 691.51 1267.01
  A 0.52 0.47 -89.8 0 0 691.04 1266.48
  L 688.03 1266.52
  Q 687.53 1266.52 687.52 1266.02
  L 687.46 1262.89
  Q 687.45 1262.57 687.14 1262.57
  L 683.51 1262.50
  Q 683.27 1262.49 683.27 1262.74
  L 683.26 1266.02
  Q 683.26 1266.53 682.74 1266.53
  L 679.65 1266.52
  Q 679.01 1266.52 679.00 1265.90
  L 678.97 1262.97
  Q 678.96 1262.54 678.48 1262.54
  L 675.40 1262.58
  Q 674.82 1262.10 675.17 1259.54
  A 1.20 1.12 -86.8 0 0 674.02 1258.18
  L 671.26 1258.28
  Q 670.74 1258.30 670.74 1257.76
  L 670.79 1254.66
  Q 670.80 1254.03 670.16 1254.02
  L 662.98 1253.97
  Q 662.52 1253.96 662.51 1253.48
  L 662.48 1250.54
  A 0.49 0.47 -1.3 0 1 662.96 1250.07
  L 665.83 1249.98
  Q 666.60 1249.95 666.57 1249.19
  L 666.48 1246.75
  Q 666.45 1245.76 665.48 1245.74
  L 663.23 1245.71
  Q 662.53 1245.70 662.53 1244.93
  L 662.53 1242.16
  Q 662.53 1241.51 663.22 1241.51
  L 665.67 1241.53
  A 0.92 0.88 -90.0 0 0 666.56 1240.60
  L 666.55 1238.51
  A 1.06 1.03 90.0 0 0 665.52 1237.46
  L 663.25 1237.45
  Q 662.71 1237.45 662.61 1236.89
  Q 662.21 1234.76 662.85 1233.28
  L 666.02 1233.18
  Q 666.50 1233.17 666.50 1232.71
  L 666.46 1225.53
  Q 666.46 1225.05 666.98 1225.04
  L 669.92 1224.99
  Q 670.79 1224.98 670.78 1224.11
  L 670.75 1217.38
  Q 670.75 1216.42 669.91 1216.44
  L 666.99 1216.52
  Q 666.47 1216.54 666.48 1215.98
  L 666.50 1212.98
  Q 666.50 1212.48 667.01 1212.48
  L 674.51 1212.51
  Q 674.97 1212.52 674.96 1212.04
  L 674.62 1199.27
  Q 699.25 1180.39 716.83 1168.08
  Q 727.53 1160.58 741.63 1154.41
  Q 755.95 1148.14 770.41 1142.21
  Q 790.60 1133.94 808.05 1120.69
  Z
  M 808.2369 1141.8763
  A 0.37 0.37 0.0 0 0 807.8663 1141.5070
  L 804.3863 1141.5130
  A 0.37 0.37 0.0 0 0 804.0169 1141.8837
  L 804.0231 1145.3837
  A 0.37 0.37 0.0 0 0 804.3937 1145.7530
  L 807.8737 1145.7470
  A 0.37 0.37 0.0 0 0 808.2431 1145.3763
  L 808.2369 1141.8763
  Z
  M 679.0115 1254.4639
  A 0.46 0.46 0.0 0 0 678.5548 1254.0007
  L 675.5148 1253.9794
  A 0.46 0.46 0.0 0 0 675.0516 1254.4362
  L 675.0285 1257.7561
  A 0.46 0.46 0.0 0 0 675.4852 1258.2193
  L 678.5252 1258.2406
  A 0.46 0.46 0.0 0 0 678.9884 1257.7838
  L 679.0115 1254.4639
  Z
  M 691.4853 1258.8970
  A 0.61 0.61 0.0 0 0 690.8774 1258.2849
  L 688.0974 1258.2752
  A 0.61 0.61 0.0 0 0 687.4853 1258.8830
  L 687.4747 1261.9230
  A 0.61 0.61 0.0 0 0 688.0826 1262.5351
  L 690.8626 1262.5448
  A 0.61 0.61 0.0 0 0 691.4747 1261.9370
  L 691.4853 1258.8970
  Z
  M 787.5678 1421.6467
  A 1.05 1.05 0.0 0 0 786.5069 1420.6078
  L 784.1470 1420.6325
  A 1.05 1.05 0.0 0 0 783.1081 1421.6934
  L 783.1322 1423.9933
  A 1.05 1.05 0.0 0 0 784.1931 1425.0322
  L 786.5530 1425.0075
  A 1.05 1.05 0.0 0 0 787.5919 1423.9466
  L 787.5678 1421.6467
  Z"
/>
<rect fill="#2355f5" x="-2.11" y="-2.12" transform="translate(806.13,1143.63) rotate(-0.1)" width="4.22" height="4.24" rx="0.37"/>
<path fill="#2355f5" d="
  M 674.62 1199.27
  L 674.96 1212.04
  Q 674.97 1212.52 674.51 1212.51
  L 667.01 1212.48
  Q 666.50 1212.48 666.50 1212.98
  L 666.48 1215.98
  Q 666.47 1216.54 666.99 1216.52
  L 669.91 1216.44
  Q 670.75 1216.42 670.75 1217.38
  L 670.78 1224.11
  Q 670.79 1224.98 669.92 1224.99
  L 666.98 1225.04
  Q 666.46 1225.05 666.46 1225.53
  L 666.50 1232.71
  Q 666.50 1233.17 666.02 1233.18
  L 662.85 1233.28
  Q 653.09 1228.00 642.50 1230.65
  Q 637.60 1231.88 631.58 1234.29
  L 642.71 1224.79
  Q 643.89 1225.19 644.99 1225.02
  A 0.82 0.82 0.0 0 0 645.65 1224.45
  Q 645.97 1223.39 645.82 1222.19
  L 647.78 1220.59
  L 653.40 1220.72
  Q 653.95 1220.73 653.94 1220.18
  L 653.94 1215.53
  L 668.89 1203.71
  Q 669.84 1204.12 670.43 1203.76
  Q 670.76 1203.56 670.78 1203.09
  Q 670.79 1202.71 670.69 1202.28
  L 674.62 1199.27
  Z"
/>
<path fill="#000000" d="
  M 670.69 1202.28
  Q 670.79 1202.71 670.78 1203.09
  Q 670.76 1203.56 670.43 1203.76
  Q 669.84 1204.12 668.89 1203.71
  L 670.69 1202.28
  Z"
/>
<path fill="#000000" d="
  M 653.94 1215.53
  L 653.94 1220.18
  Q 653.95 1220.73 653.40 1220.72
  L 647.78 1220.59
  L 653.94 1215.53
  Z"
/>
<path fill="#000000" d="
  M 645.82 1222.19
  Q 645.97 1223.39 645.65 1224.45
  A 0.82 0.82 0.0 0 1 644.99 1225.02
  Q 643.89 1225.19 642.71 1224.79
  L 645.82 1222.19
  Z"
/>
<path fill="#000000" d="
  M 618.76 1245.70
  Q 619.52 1245.63 620.24 1245.82
  A 0.76 0.76 0.0 0 1 620.79 1246.45
  Q 621.13 1248.97 620.13 1250.10
  L 614.41 1249.83
  L 618.76 1245.70
  Z"
/>
<path fill="#2355f5" d="
  M 614.41 1249.83
  L 620.13 1250.10
  L 624.92 1268.12
  L 625.12 1273.41
  Q 625.18 1275.05 623.60 1275.05
  L 618.01 1275.06
  Q 616.40 1275.07 616.41 1273.50
  L 616.55 1258.77
  Q 616.56 1258.23 616.01 1258.23
  L 613.02 1258.25
  Q 612.54 1258.25 612.53 1258.74
  L 612.52 1262.00
  Q 612.52 1262.52 612.01 1262.52
  L 608.80 1262.53
  A 0.59 0.59 0.0 0 1 608.21 1261.95
  L 608.16 1255.63
  L 610.27 1253.72
  Q 611.11 1254.06 611.88 1253.97
  Q 612.41 1253.90 612.52 1253.37
  Q 612.69 1252.58 612.23 1251.72
  L 614.41 1249.83
  Z"
/>
<path fill="#000000" d="
  M 612.23 1251.72
  Q 612.69 1252.58 612.52 1253.37
  Q 612.41 1253.90 611.88 1253.97
  Q 611.11 1254.06 610.27 1253.72
  L 612.23 1251.72
  Z"
/>
<rect fill="#346605" x="-1.98" y="-2.12" transform="translate(677.02,1256.11) rotate(0.4)" width="3.96" height="4.24" rx="0.46"/>
<path fill="#000000" d="
  M 608.16 1255.63
  L 608.21 1261.95
  A 0.59 0.59 0.0 0 0 608.80 1262.53
  L 612.01 1262.52
  Q 612.52 1262.52 612.52 1262.00
  L 612.53 1258.74
  Q 612.54 1258.25 613.02 1258.25
  L 616.01 1258.23
  Q 616.56 1258.23 616.55 1258.77
  L 616.41 1273.50
  Q 616.40 1275.07 618.01 1275.06
  L 623.60 1275.05
  Q 625.18 1275.05 625.12 1273.41
  L 624.92 1268.12
  Q 624.46 1265.88 628.39 1266.54
  Q 628.96 1266.64 628.96 1267.23
  L 628.96 1278.05
  Q 628.96 1278.90 629.81 1278.96
  L 632.76 1279.16
  Q 633.30 1279.20 633.28 1279.75
  L 633.20 1282.76
  Q 633.18 1283.20 632.74 1283.20
  L 629.54 1283.24
  Q 629.06 1283.25 629.05 1283.72
  L 628.93 1287.04
  Q 628.92 1287.50 628.45 1287.49
  L 625.68 1287.46
  Q 625.11 1287.45 625.09 1288.07
  L 624.96 1294.67
  Q 624.94 1295.76 623.85 1295.74
  L 617.88 1295.65
  A 1.22 1.22 0.0 0 1 616.68 1294.45
  L 616.56 1288.30
  Q 616.54 1287.31 615.53 1287.32
  L 613.81 1287.35
  Q 612.69 1287.36 612.61 1288.54
  L 612.25 1294.18
  A 1.61 1.56 7.5 0 1 610.33 1295.60
  Q 608.70 1295.28 608.46 1296.49
  Q 608.23 1297.63 608.09 1302.88
  A 1.01 1.01 0.0 0 1 607.18 1303.86
  L 604.74 1304.11
  A 0.90 0.71 88.8 0 0 604.09 1304.96
  L 604.01 1307.42
  Q 603.99 1308.20 604.64 1308.25
  L 607.06 1308.43
  Q 608.12 1308.51 608.11 1309.55
  L 608.09 1311.23
  Q 608.07 1312.29 607.02 1312.35
  L 604.78 1312.47
  Q 604.30 1312.49 604.23 1312.96
  L 603.82 1315.66
  Q 603.70 1316.45 602.88 1316.48
  L 601.05 1316.56
  A 0.83 0.82 -2.9 0 1 600.19 1315.79
  L 599.78 1309.09
  Q 599.73 1308.19 598.83 1308.20
  L 596.52 1308.22
  A 0.60 0.60 0.0 0 1 595.91 1307.65
  L 595.69 1300.79
  A 0.75 0.73 -88.6 0 0 595.02 1300.08
  L 592.46 1299.86
  A 1.08 1.04 3.4 0 1 591.46 1298.78
  L 591.52 1296.93
  Q 591.55 1295.96 592.53 1295.91
  L 594.99 1295.79
  Q 595.75 1295.75 595.74 1294.95
  L 595.72 1292.71
  A 1.23 1.18 3.4 0 0 594.64 1291.54
  L 592.28 1291.25
  Q 591.66 1291.18 591.60 1290.54
  L 591.40 1288.20
  Q 591.34 1287.60 590.76 1287.55
  L 588.37 1287.37
  Q 587.77 1287.32 587.72 1286.71
  L 587.50 1284.03
  A 0.95 0.90 -2.0 0 0 586.56 1283.21
  L 583.86 1283.19
  Q 583.16 1283.18 583.16 1283.89
  L 583.17 1295.30
  Q 583.17 1295.78 582.70 1295.76
  L 579.68 1295.68
  Q 579.07 1295.66 579.05 1296.29
  L 578.95 1299.54
  Q 578.93 1300.01 578.46 1300.01
  L 575.71 1300.04
  Q 575.15 1300.04 575.11 1299.43
  L 574.59 1291.03
  Q 590.26 1272.70 608.16 1255.63
  Z"
/>
<rect fill="#2355f5" x="-2.00" y="-2.13" transform="translate(689.48,1260.41) rotate(0.2)" width="4.00" height="4.26" rx="0.61"/>
<path fill="#2355f5" d="
  M 679.98 1283.12
  Q 679.78 1272.59 675.40 1262.58
  L 678.48 1262.54
  Q 678.96 1262.54 678.97 1262.97
  L 679.00 1265.90
  Q 679.01 1266.52 679.65 1266.52
  L 682.74 1266.53
  Q 683.26 1266.53 683.26 1266.02
  L 683.27 1262.74
  Q 683.27 1262.49 683.51 1262.50
  L 687.14 1262.57
  Q 687.45 1262.57 687.46 1262.89
  L 687.52 1266.02
  Q 687.53 1266.52 688.03 1266.52
  L 691.04 1266.48
  A 0.52 0.47 -89.8 0 1 691.51 1267.01
  L 691.46 1270.22
  Q 691.45 1270.75 691.97 1270.74
  L 695.25 1270.68
  A 0.56 0.54 89.4 0 1 695.80 1271.23
  L 695.83 1278.34
  Q 695.84 1278.99 695.18 1279.00
  L 692.11 1279.03
  Q 691.41 1279.04 691.42 1278.36
  L 691.45 1275.48
  Q 691.45 1275.02 690.96 1275.02
  L 687.95 1274.99
  A 0.52 0.50 89.8 0 0 687.45 1275.52
  L 687.54 1282.73
  Q 687.55 1283.20 687.06 1283.20
  L 679.98 1283.12
  Z"
/>
<path fill="#000000" d="
  M 908.09 1287.46
  L 908.22 1299.36
  Q 908.22 1299.97 908.81 1299.98
  L 911.80 1300.04
  Q 912.51 1300.05 912.50 1300.81
  L 912.48 1303.24
  Q 912.47 1303.92 911.78 1303.94
  L 908.76 1304.03
  Q 908.28 1304.05 908.26 1304.51
  L 908.17 1307.28
  Q 908.14 1308.13 907.24 1308.14
  L 901.00 1308.19
  A 0.95 0.93 86.4 0 1 900.07 1307.35
  Q 899.90 1305.85 899.83 1305.00
  Q 899.75 1303.99 898.24 1304.01
  Q 896.95 1304.02 896.29 1303.84
  Q 895.75 1303.68 895.78 1303.12
  Q 895.98 1299.50 895.52 1296.47
  A 1.04 1.03 84.7 0 0 894.46 1295.58
  L 888.74 1295.78
  Q 887.52 1295.83 887.46 1297.14
  L 887.39 1298.97
  Q 887.35 1299.96 888.44 1300.01
  L 890.85 1300.12
  Q 891.40 1300.15 891.42 1300.74
  L 891.47 1303.16
  Q 891.48 1303.86 890.78 1303.90
  L 888.25 1304.04
  Q 887.63 1304.07 887.57 1304.70
  L 887.30 1307.35
  Q 887.24 1307.90 886.61 1307.98
  L 884.12 1308.30
  Q 883.55 1308.37 883.48 1308.91
  L 883.18 1311.35
  A 1.21 1.15 -86.8 0 1 882.05 1312.41
  L 879.98 1312.45
  Q 879.02 1312.47 879.01 1311.48
  L 878.97 1298.18
  L 908.09 1287.46
  Z"
/>
<path fill="#000000" d="
  M 874.87 1299.43
  Q 875.21 1301.59 874.82 1303.49
  Q 874.71 1304.00 874.18 1304.00
  L 867.28 1303.97
  Q 866.69 1303.97 866.50 1303.41
  Q 866.27 1302.77 866.34 1301.78
  L 874.87 1299.43
  Z"
/>
<rect fill="#2355f5" x="-2.23" y="-2.20" transform="translate(785.35,1422.82) rotate(-0.6)" width="4.46" height="4.40" rx="1.05"/>
</svg>
