<svg xmlns="http://www.w3.org/2000/svg" viewBox="0 0 382 382"><g fill="none" stroke-width="2"><path stroke="#87fe9e" d="M289.02 262.15q.31.5-.11 1.24-4.64 8.06-14.14 7.27-.83-.07-.95-.65" vector-effect="non-scaling-stroke"/><path stroke="#b9c2aa" d="M275.26 268.79q7.94.4 11.94-6.33" vector-effect="non-scaling-stroke"/><path stroke="#87fe9e" d="M353.62 347.54c-8.15-2.61-17.12 2.24-18.77 10.52q-1.3 6.54 2.06 11.25 6.5 9.11 17.89 5.31M257.77 382v-23.02q0-.52.52-.52l19.31.01q.56 0 .56-.57v-55.34q0-.46-.47-.47l-45.48-.37M221.58 307.36l-.01 32.96q0 .56-.57.56l-6.73-.03a.38.38 0 0 0-.38.38V382M171.87 382l-.04-27.74q0-.55-.55-.55h-27.1q-.61 0-.62.61l-.01 27.68M116.54 364.58c6.08 13.69 26.32 8.71 25.01-6.15q-.46-5.26-4.87-8.9-6.33-5.22-15.33-.83M168.089 334.758a.36.36 0 0 0-.36-.359l-12.64.022a.36.36 0 0 0-.36.36l.022 12.66a.36.36 0 0 0 .36.36l12.64-.022a.36.36 0 0 0 .36-.36l-.022-12.66" vector-effect="non-scaling-stroke"/><path stroke="#83abfb" d="M255.73 382v-23.09a.45.45 0 0 0-.45-.45h-33.01q-.64 0-.64-.63l.01-14.59q0-.4-.4-.39l-4.88.02a.44.44 0 0 0-.44.44l.03 38.69" vector-effect="non-scaling-stroke"/><path stroke="#9dcd8b" d="m223.61 306.28.06 49.63q0 .55.54.55h51.65a.31.3 90 0 0 .3-.31v-51.6q0-.48-.47-.48l-47.23-.18M166.135 336.786a.37.37 0 0 0-.369-.37l-8.66-.031a.37.37 0 0 0-.37.369l-.031 8.66a.37.37 0 0 0 .369.37l8.66.031a.37.37 0 0 0 .37-.369l.031-8.66" vector-effect="non-scaling-stroke"/><path stroke="#8ddcd7" d="M117.41 361.58q2.31 6.62 7.01 8.31c6.62 2.38 13.68-1.14 15-8.23 1.97-10.58-10.2-16.74-18.16-10.17q-.2.16-.45.2-.27.04-.52.02" vector-effect="non-scaling-stroke"/><path stroke="#99d9fd" d="M353.99 349.74q-7.81-2.81-13.18 2.06c-5.83 5.29-5.71 14.48.43 19.22q6.06 4.68 13.67 1.33" vector-effect="non-scaling-stroke"/><path stroke="#b9c2aa" d="M169.9 356.11a.41.41 0 0 0-.41-.41h-23.6a.41.41 0 0 0-.41.41v23.62a.41.41 0 0 0 .41.41h23.6a.41.41 0 0 0 .41-.41v-23.62" vector-effect="non-scaling-stroke"/></g><path fill="#fefffe" d="M289.02 262.15q.31.5-.11 1.24-4.64 8.06-14.14 7.27-.83-.07-.95-.65.61-.91 1.44-1.22 7.94.4 11.94-6.33.9-.54 1.82-.31"/><path fill="#0ffd3d" d="M353.62 347.54c-8.15-2.61-17.12 2.24-18.77 10.52q-1.3 6.54 2.06 11.25 6.5 9.11 17.89 5.31l-.01 7.38h-97.02v-23.02q0-.52.52-.52l19.31.01q.56 0 .56-.57v-55.34q0-.46-.47-.47l-45.48-.37q12.23-7.48 17.26-11.74c7.95-6.74 15.8-14.03 24.35-19.97q.12.58.95.65 9.5.79 14.14-7.27.42-.74.11-1.24l4.59.13q.72.02 1.22.55 4.01 4.26 5.59 9.24 1.26 3.98 4.63 7.81 18.18 20.61 33.66 38.41 11.23 12.92 14.91 29.25"/><path fill="#738555" d="M287.2 262.46q-4 6.73-11.94 6.33z"/><path fill="#0ffd3d" d="m221.58 307.36-.01 32.96q0 .56-.57.56l-6.73-.03a.38.38 0 0 0-.38.38V382h-42.02l-.04-27.74q0-.55-.55-.55h-27.1q-.61 0-.62.61l-.01 27.68h-33.89l6.88-17.42c6.08 13.69 26.32 8.71 25.01-6.15q-.46-5.26-4.87-8.9-6.33-5.22-15.33-.83 1.51-10.75 3.47-17.83 1.18-4.24 3.87-8.45c10.82-16.92 25.95-29.61 42.59-41.5 7.88-5.63 17.42-6.97 24.82-13.88a2.52 2.51 48.4 0 1 3.64.22c2.47 2.94.07 15.42-.9 19.22-1 3.9-3.09 7.55-4.12 11.45q-1.45 5.47-.23 11.5c.94 4.57 4.76 4.81 8.6 4.09q9.45-1.78 18.49-6.16m-53.491 27.398a.36.36 0 0 0-.36-.359l-12.64.022a.36.36 0 0 0-.36.36l.022 12.66a.36.36 0 0 0 .36.36l12.64-.022a.36.36 0 0 0 .36-.36z"/><path fill="#fefffe" d="m232.21 301.72 45.48.37q.47.01.47.47v55.34q0 .57-.56.57l-19.31-.01q-.52 0-.52.52V382h-2.04v-23.09a.45.45 0 0 0-.45-.45h-33.01q-.64 0-.64-.63l.01-14.59q0-.4-.4-.39l-4.88.02a.44.44 0 0 0-.44.44l.03 38.69h-2.06v-40.77a.38.38 0 0 1 .38-.38l6.73.03q.57 0 .57-.56l.01-32.96q.63-.59 2.03-1.08l.06 49.63q0 .55.54.55h51.65a.31.3 90 0 0 .3-.31v-51.6q0-.48-.47-.48l-47.23-.18q1.99-1.6 3.75-2.17"/><path fill="#3b9a17" d="m228.46 303.89 47.23.18q.47 0 .47.48v51.6a.31.3 90 0 1-.3.31h-51.65q-.54 0-.54-.55l-.06-49.63z"/><path fill="#fefffe" d="M168.111 347.418a.36.36 0 0 1-.36.361l-12.64.022a.36.36 0 0 1-.36-.36l-.022-12.66a.36.36 0 0 1 .36-.36l12.64-.022a.36.36 0 0 1 .36.36zm-1.976-10.632a.37.37 0 0 0-.369-.37l-8.66-.031a.37.37 0 0 0-.37.369l-.031 8.66a.37.37 0 0 0 .369.37l8.66.031a.37.37 0 0 0 .37-.369z"/><rect width="9.4" height="9.4" x="-4.7" y="-4.7" fill="#3b9a17" rx=".37" transform="rotate(.2 -97637.143 46413.927)"/><path fill="#0856f8" d="M255.73 382h-39.78l-.03-38.69a.44.44 0 0 1 .44-.44l4.88-.02q.4-.01.4.39l-.01 14.59q0 .63.64.63h33.01a.45.45 0 0 1 .45.45z"/><path fill="#fefffe" d="m116.54 364.58.87-3q2.31 6.62 7.01 8.31c6.62 2.38 13.68-1.14 15-8.23 1.97-10.58-10.2-16.74-18.16-10.17q-.2.16-.45.2-.27.04-.52.02.26-1.69 1.06-3.01 9-4.39 15.33.83 4.41 3.64 4.87 8.9c1.31 14.86-18.93 19.84-25.01 6.15M353.62 347.54q.54.8.37 2.2-7.81-2.81-13.18 2.06c-5.83 5.29-5.71 14.48.43 19.22q6.06 4.68 13.67 1.33l-.11 2.27q-11.39 3.8-17.89-5.31-3.36-4.71-2.06-11.25c1.65-8.28 10.62-13.13 18.77-10.52"/><path fill="#1bb9b0" d="m117.41 361.58 2.88-9.87q.25.02.52-.02.25-.04.45-.2c7.96-6.57 20.13-.41 18.16 10.17-1.32 7.09-8.38 10.61-15 8.23q-4.7-1.69-7.01-8.31"/><path fill="#33b2fc" d="M353.99 349.74q.83 2.03.87 3.94.16 6.41.05 18.67-7.61 3.35-13.67-1.33c-6.14-4.74-6.26-13.93-.43-19.22q5.37-4.87 13.18-2.06"/><path fill="#fefffe" d="M171.87 382h-28.32l.01-27.68q.01-.61.62-.61h27.1q.55 0 .55.55zm-1.97-25.89a.41.41 0 0 0-.41-.41h-23.6a.41.41 0 0 0-.41.41v23.62a.41.41 0 0 0 .41.41h23.6a.41.41 0 0 0 .41-.41z"/><rect width="24.42" height="24.44" x="145.48" y="355.7" fill="#738555" rx=".41"/></svg>