<svg xmlns="http://www.w3.org/2000/svg" viewBox="0 0 382 382"><g fill="none" stroke-width="2"><path stroke="#8fa4f4" d="m344.73 326.25-10.14.06a.29.29 0 0 0-.26.42l11.83 23.66a.36.36 0 0 0 .65 0l4.87-9.65" vector-effect="non-scaling-stroke"/><path stroke="#e484ca" d="m346.06 328.19-8.21.11a.3.3 0 0 0-.27.44l8.56 17.15a.36.36 0 0 0 .64 0l4-7.96" vector-effect="non-scaling-stroke"/></g><path fill="#1e48ea" d="m344.73 326.25-10.14.06a.29.29 0 0 0-.26.42l11.83 23.66a.36.36 0 0 0 .65 0l4.87-9.65q3 8.97 3.04 13.51.11 13.88.12 27.75H109.76q2.75-7.01 5.46-13.98 5.79-14.93 8-30.24 1.52-10.56 8.86-20.46c10.73-14.44 23.53-25.28 39.41-36.52q2.72-1.93 5.4-3.12c6.73-3.02 13.29-5.31 19.09-10.47 2.52-2.23 4.7.25 4.74 2.78.1 7.77-.88 15.73-4.07 22.57-2.66 5.68-3.7 12.42-1.69 18.21 1.29 3.73 6.12 3.33 9.16 2.63 6.59-1.51 13.64-3.91 19.44-6.97q17.51-9.23 27.68-17.99 9.11-7.86 18.49-15.44 8.46-6.84 17.73-10.37 2.09-.79 6.15-.35.72.08 1.23.61 3.93 4.06 5.61 9.2 1.47 4.49 5.06 8.47 16.9 18.8 33.22 37.71 3.23 3.74 6 7.98"/><path fill="#fffffe" d="M344.73 326.25q.94.72 1.33 1.94l-8.21.11a.3.3 0 0 0-.27.44l8.56 17.15a.36.36 0 0 0 .64 0l4-7.96q.92 1.81.9 2.81l-4.87 9.65a.36.36 0 0 1-.65 0l-11.83-23.66a.29.29 0 0 1 .26-.42z"/><path fill="#c90895" d="m346.06 328.19 4.72 9.74-4 7.96a.36.36 0 0 1-.64 0l-8.56-17.15a.3.3 0 0 1 .27-.44z"/></svg>