<svg xmlns="http://www.w3.org/2000/svg" viewBox="0 0 382 382"><g fill="none" stroke-width="2"><path stroke="#f3b2b9" d="m296.34 264.48.01 12.19a.48.47 0 0 1-.48.47h-27.85q-.51 0-.69-.48-.46-1.21-.96-1.16" vector-effect="non-scaling-stroke"/><path stroke="#a6e8b3" d="m298.42 267.4-.16 11.22q0 .52-.53.52l-31.77-.01q-.54 0-.65-.53l-.37-1.87" vector-effect="non-scaling-stroke"/></g><path fill="#e66473" d="m296.34 264.48.01 12.19a.48.47 0 0 1-.48.47h-27.85q-.51 0-.69-.48-.46-1.21-.96-1.16 9.03-7.82 19.92-12.7c2.47-1.11 4.95-.74 7.5-.72q.52 0 .86.4z"/><path fill="#fff" d="m298.42 267.4-.16 11.22q0 .52-.53.52l-31.77-.01q-.54 0-.65-.53l-.37-1.87 1.43-1.23q.5-.05.96 1.16.18.48.69.48h27.85a.48.47 0 0 0 .48-.47l-.01-12.19q1.47 1.48 2.08 2.92"/><path fill="#4cd066" d="m264.94 276.73.37 1.87q.11.53.65.53l31.77.01q.53 0 .53-.52l.16-11.22q1.63 3.09 2.47 6.18.64 2.38 5.14 7.4 26.05 29.01 35.31 40.44 8.74 10.78 12.02 24.93 1.37 5.91 1.42 15.92.05 9.87.06 19.73h-245.1q2.51-6.37 5.02-12.71 5.97-15.07 8.56-31.98 1.57-10.25 8.6-19.79c10.69-14.51 24.35-25.88 39.08-36.36 8.01-5.7 17.44-7.17 24.95-13.95 2.37-2.13 4.72.08 4.75 2.61q.18 13.6-3.97 22.5c-2.56 5.48-3.67 11.82-2.1 17.55 1.81 6.64 11.47 3.3 16.08 1.78 20.39-6.7 37.33-19.67 54.23-34.92"/></svg>