<svg xmlns="http://www.w3.org/2000/svg" viewBox="0 0 382 382"><g fill="none" stroke-width="2"><path stroke="#9ef68a" d="M313.95 330.04a.42.42 0 0 0-.42-.42h-23.74a.42.42 0 0 0-.42.42v23.74a.42.42 0 0 0 .42.42h23.74a.42.42 0 0 0 .42-.42v-23.74" vector-effect="non-scaling-stroke"/><path stroke="#c9dad6" d="M311.95 332.02a.43.43 0 0 0-.43-.43h-19.7a.43.43 0 0 0-.43.43v19.74a.43.43 0 0 0 .43.43h19.7a.43.43 0 0 0 .43-.43v-19.74" vector-effect="non-scaling-stroke"/></g><path fill="#3eee16" d="M354.84 382H109.73c4.67-11.85 9.92-24.3 11.94-35.91 1.32-7.59 2.41-15.87 6.45-22.64 10.39-17.41 26.53-30.95 43.56-42.73 4.87-3.37 10.17-5.17 15.51-7.66q4.71-2.2 8.82-5.89c2.34-2.1 4.63.16 4.69 2.64q.21 8.95-1.92 16.93c-1.05 3.9-3.11 7.44-4.11 11.36-1.29 5.08-2.24 17.21 6.87 15.69q10.2-1.71 18.18-5.56 19.41-9.35 32.06-20.27 8.96-7.74 17.96-14.97 8.61-6.92 17.82-10.4 2.1-.79 6.11-.32.59.07 1 .5 3.92 4.06 4.95 7.22 2.04 6.3 6.03 10.75 16.9 18.81 33.46 38 10.58 12.27 14.27 27.76 1.35 5.64 1.4 15.61.05 9.95.06 19.89m-40.89-51.96a.42.42 0 0 0-.42-.42h-23.74a.42.42 0 0 0-.42.42v23.74a.42.42 0 0 0 .42.42h23.74a.42.42 0 0 0 .42-.42z"/><path fill="#fefefe" d="M313.95 353.78a.42.42 0 0 1-.42.42h-23.74a.42.42 0 0 1-.42-.42v-23.74a.42.42 0 0 1 .42-.42h23.74a.42.42 0 0 1 .42.42zm-2-21.76a.43.43 0 0 0-.43-.43h-19.7a.43.43 0 0 0-.43.43v19.74a.43.43 0 0 0 .43.43h19.7a.43.43 0 0 0 .43-.43z"/><rect width="20.56" height="20.6" x="291.39" y="331.59" fill="#94b5ad" rx=".43"/></svg>