<svg xmlns="http://www.w3.org/2000/svg" viewBox="0 0 382 382"><g fill="none" stroke-width="2"><path stroke="#c59ecd" d="M289.9 345.33a.4.4 0 0 0-.4-.4h-26.04a.4.4 0 0 0-.4.4v26.06a.4.4 0 0 0 .4.4h26.04a.4.4 0 0 0 .4-.4v-26.06" vector-effect="non-scaling-stroke"/><path stroke="#fad897" d="M287.88 347.3a.38.38 0 0 0-.38-.38l-22.06.04a.38.38 0 0 0-.38.38l.04 22.08a.38.38 0 0 0 .38.38l22.06-.04a.38.38 0 0 0 .38-.38l-.04-22.08" vector-effect="non-scaling-stroke"/></g><path fill="#8b3c9b" d="M354.83 382H109.75q2.46-6.28 4.94-12.53 6.17-15.53 8.59-31.98 1.5-10.27 8.73-20.06c10.74-14.55 23.84-25.62 39.69-36.77 7.87-5.53 17.22-6.75 24.4-13.63a2.46 2.46 0 0 1 3.56.15q1.02 1.17 1.04 2.8.17 13.49-4.05 22.54c-2.66 5.7-3.74 12.59-1.62 18.43 2.47 6.81 20.89-.91 24.68-2.73q19.59-9.38 32.33-20.46 10.22-8.89 17.68-14.79 9.2-7.28 17.78-10.33 2.4-.85 6.16-.39.57.07.97.49 4.04 4.25 4.85 6.83 2.05 6.6 6.34 11.36 21.36 23.67 34.15 38.85 9.87 11.71 13.37 26.59 1.38 5.87 1.44 15.9.05 9.87.05 19.73m-64.93-36.67a.4.4 0 0 0-.4-.4h-26.04a.4.4 0 0 0-.4.4v26.06a.4.4 0 0 0 .4.4h26.04a.4.4 0 0 0 .4-.4z"/><path fill="#fffffe" d="M289.9 371.39a.4.4 0 0 1-.4.4h-26.04a.4.4 0 0 1-.4-.4v-26.06a.4.4 0 0 1 .4-.4h26.04a.4.4 0 0 1 .4.4zm-2.02-24.09a.38.38 0 0 0-.38-.38l-22.06.04a.38.38 0 0 0-.38.38l.04 22.08a.38.38 0 0 0 .38.38l22.06-.04a.38.38 0 0 0 .38-.38z"/><rect width="22.82" height="22.84" x="-11.41" y="-11.42" fill="#f4b12f" rx=".38" transform="rotate(-.1 205463.348 -158237.88)"/></svg>