<svg xmlns="http://www.w3.org/2000/svg" viewBox="0 0 382 382"><g fill="none" stroke-width="2"><path stroke="#92f5dc" d="m278.25 382-.09-11.22q0-.63-.63-.63l-16.27.01q-.56 0-.57.57l-.07 11.27M171.82 280.73l28.21.12" vector-effect="non-scaling-stroke"/><path stroke="#d1e0a4" d="m200.48 278.85-25.78-.21" vector-effect="non-scaling-stroke"/><path stroke="#d8a4db" d="m276.15 382-.05-9.31q-.01-.55-.56-.55h-12.59q-.29 0-.29.29l.03 9.57" vector-effect="non-scaling-stroke"/></g><path fill="#27eaba" d="M354.86 382h-76.61l-.09-11.22q0-.63-.63-.63l-16.27.01q-.56 0-.57.57l-.07 11.27H109.74c4.05-10.34 9.27-22.37 11.12-31.68 1.44-7.25 2.44-15.33 4.87-21.85 3.06-8.26 10.56-17.15 16.8-23.45q13.68-13.83 29.29-24.29l28.21.12q-.94 5.88-3.1 11.22-2.29 5.69-2.58 7.7c-.6 4.25-1.31 13.14 4.28 13.91q2.87.4 6.19-.4 8.54-2.06 14.98-5.11 17.7-8.38 30.11-18.72 9.1-7.58 19.28-15.99 8.87-7.33 17.89-10.74 2.49-.94 6.7-.43a1.27 1.25-18.9 0 1 .75.36q3.99 3.88 5.25 7.77 1.91 5.92 5.89 10.35 17.06 18.96 33.46 38.01 10.59 12.3 14.26 27.75 1.33 5.62 1.38 15.55.05 9.96.09 19.92"/><path fill="#a5c149" d="m200.48 278.85-25.78-.21c7.46-3.72 15.11-6.14 21.1-11.54.95-.85 2.37-1.46 3.49-.48q1.41 1.25 1.55 2.38.48 3.88-.36 9.85"/><path fill="#fdfffe" d="m174.7 278.64 25.78.21-.45 2-28.21-.12q1.86-1.88 2.88-2.09M278.25 382h-2.1l-.05-9.31q-.01-.55-.56-.55h-12.59q-.29 0-.29.29l.03 9.57h-2.07l.07-11.27q.01-.57.57-.57l16.27-.01q.63 0 .63.63z"/><path fill="#b349b7" d="M276.15 382h-13.46l-.03-9.57q0-.29.29-.29h12.59q.55 0 .56.55z"/></svg>