<svg xmlns="http://www.w3.org/2000/svg" viewBox="0 0 382 382"><g fill="none" stroke-width="2"><path stroke="#9cceba" d="M294.28 313.86a.32.32 0 0 0-.28-.46h-54.98a.32.32 0 0 0-.28.46l27.48 54.98a.32.32 0 0 0 .58 0l27.48-54.98" vector-effect="non-scaling-stroke"/><path stroke="#8fe189" d="M291.07 315.86a.32.32 0 0 0-.29-.46h-48.52a.32.32 0 0 0-.29.46l24.26 48.53a.32.32 0 0 0 .58 0l24.26-48.53" vector-effect="non-scaling-stroke"/></g><path fill="#399c74" d="M354.84 382H109.68c6.58-15.22 11.2-28.67 13.63-44.8q1.5-9.93 8.67-19.72c10.83-14.79 24.15-25.92 40.28-37.18q2.8-1.95 5.88-3.23c6.44-2.68 12.81-5.17 17.99-10.04a2.49 2.49 0 0 1 3.67.29q.83 1.06.87 2.4c.27 7.9-.89 16.15-4.2 23.28-2.31 4.99-3.03 10.03-2.16 15.59.98 6.32 6.42 5.72 10.98 4.56 6.31-1.6 12.48-3.76 18.24-6.72q16.24-8.32 28.07-18.33 10.09-8.54 18.8-15.61 7.99-6.48 17.29-9.97 1.66-.62 5.99-.29.44.03.76.35 4.32 4.2 5.92 9.27 1.45 4.58 4.96 8.49 17.23 19.21 33.92 38.57 10.44 12.11 14.15 27.61 1.34 5.61 1.39 15.58.05 9.95.06 19.9m-60.56-68.14a.32.32 0 0 0-.28-.46h-54.98a.32.32 0 0 0-.28.46l27.48 54.98a.32.32 0 0 0 .58 0z"/><path fill="#feffff" d="m294.28 313.86-27.48 54.98a.32.32 0 0 1-.58 0l-27.48-54.98a.32.32 0 0 1 .28-.46H294a.32.32 0 0 1 .28.46m-3.21 2a.32.32 0 0 0-.29-.46h-48.52a.32.32 0 0 0-.29.46l24.26 48.53a.32.32 0 0 0 .58 0z"/><path fill="#20c313" d="m291.07 315.86-24.26 48.53a.32.32 0 0 1-.58 0l-24.26-48.53a.32.32 0 0 1 .29-.46h48.52a.32.32 0 0 1 .29.46"/></svg>