<svg xmlns="http://www.w3.org/2000/svg" viewBox="0 0 382 382"><g fill="none" stroke-width="2"><path stroke="#9fc79a" d="m118.48 358.65 7.86-.05q.52-.01.52-.52l-.1-32.05M157.33 291.57q-.26 1.51.92 1.51 13.5-.02 26.92 0a.41.4 0 0 0 .41-.4l-.01-18.87" vector-effect="non-scaling-stroke"/><path stroke="#adc4de" d="M158.35 290.48c1.13.23 2.04.58 3.22.59q10.84.01 21.61.01a.43.43 0 0 0 .43-.43l.02-16.09" vector-effect="non-scaling-stroke"/><path stroke="#d7c9c9" d="M119.03 356.59h5.26q.55 0 .54-.56l-.29-24.43" vector-effect="non-scaling-stroke"/></g><path fill="#409035" d="M354.84 382H109.76l8.72-23.35 7.86-.05q.52-.01.52-.52l-.1-32.05q2.51-4.98 6.3-9.98 10.47-13.81 24.27-24.48-.26 1.51.92 1.51 13.5-.02 26.92 0a.41.4 0 0 0 .41-.4l-.01-18.87q5.88-2.43 10.8-6.66 1.82-1.56 3.27-.06.97 1 1.02 2.52.4 12.93-3.7 22.17c-2.6 5.85-3.75 10.97-2.56 17.24 1.09 5.78 6.27 5.25 10.58 4.21 6.26-1.53 12.59-3.77 18.23-6.63q16.17-8.22 28.5-18.59c11.55-9.73 22.3-20.23 36.05-25.55q1.49-.57 5.91-.19.6.05 1.02.48 4.06 4.11 5.83 9.49 1.46 4.43 5.11 8.49 16.83 18.68 33.57 38.13 10.48 12.18 14.15 27.58 1.38 5.77 1.43 15.75.05 9.91.06 19.81"/><path fill="#fefeff" d="m185.57 273.81.01 18.87a.41.4 0 0 1-.41.4q-13.42-.02-26.92 0-1.18 0-.92-1.51.34-.59 1.02-1.09c1.13.23 2.04.58 3.22.59q10.84.01 21.61.01a.43.43 0 0 0 .43-.43l.02-16.09q.76-.54 1.94-.75"/><path fill="#5c89bd" d="m183.63 274.56-.02 16.09a.43.43 0 0 1-.43.43q-10.77 0-21.61-.01c-1.18-.01-2.09-.36-3.22-.59q9.5-7.69 15.96-11.67 3.01-1.85 9.32-4.25"/><path fill="#fefeff" d="m118.48 358.65.55-2.06h5.26q.55 0 .54-.56l-.29-24.43q.53-2.74 2.22-5.57l.1 32.05q0 .51-.52.52z"/><path fill="#b09392" d="m124.54 331.6.29 24.43q.01.56-.54.56h-5.26z"/></svg>