<svg xmlns="http://www.w3.org/2000/svg" viewBox="0 0 382 382"><g fill="none" stroke-width="2"><path stroke="#bee386" d="m295.39 263.44-8.35.28a.49.49 0 0 0-.42.71l23.81 47.66q.35.68.69 0l8.15-16.25" vector-effect="non-scaling-stroke"/><path stroke="#bcaae0" d="m320.66 297.54-9.54 19.09a.36.36 0 0 1-.65 0l-26.34-52.72M129.5 382c7.23-12.92 4.77-28.2-7.56-36.89" vector-effect="non-scaling-stroke"/><path stroke="#9ff8db" d="M127.09 382q5.8-8.89 4.17-18.75-1.53-9.27-9.05-15.41-.23-.18-.44-.21-.3-.05-.51.09" vector-effect="non-scaling-stroke"/></g><path fill="#fffffc" d="m295.39 263.44-8.35.28a.49.49 0 0 0-.42.71l23.81 47.66q.35.68.69 0l8.15-16.25q.99.87 1.39 1.7l-9.54 19.09a.36.36 0 0 1-.65 0l-26.34-52.72q1.44-.83 2.71-1.35c2.15-.89 4.79-.48 7.08-.5q.53-.01.83.44z"/><path fill="#7cc60f" d="m319.27 295.84-8.15 16.25q-.34.68-.69 0l-23.81-47.66a.49.49 0 0 1 .42-.71l8.35-.28q3.53 3.39 4.25 5.94 1.81 6.43 6.88 12.1 6.46 7.23 12.75 14.36"/><path fill="#7855c3" d="m284.13 263.91 26.34 52.72a.36.36 0 0 0 .65 0l9.54-19.09q14.02 15.97 18.97 21.84 10.16 12.04 13.71 27.02 1.38 5.84 1.44 15.85.05 9.87.05 19.75H129.5c7.23-12.92 4.77-28.2-7.56-36.89q.61-3.57 1.15-6.97 1.76-11.17 9.03-20.81 6.41-8.5 10.7-12.79 11.58-11.61 28.32-23.52c7.94-5.65 17.64-7.01 24.92-13.96a2.52 2.52 0 0 1 3.69.22c2.55 3.1-.05 16.07-1.14 20.04-.93 3.42-2.75 6.52-3.68 9.83-1.49 5.29-2.85 18.03 6.45 16.61q10.25-1.55 19.19-5.93 19.06-9.32 31-19.69 11.1-9.63 18.42-15.4 6.33-4.99 14.14-8.83"/><path fill="#fffffc" d="M121.94 345.11c12.33 8.69 14.79 23.97 7.56 36.89h-2.41q5.8-8.89 4.17-18.75-1.53-9.27-9.05-15.41-.23-.18-.44-.21-.3-.05-.51.09.04-1.48.68-2.61"/><path fill="#3ff1b9" d="M127.09 382h-17.6c5.05-11.89 9.01-22.13 11.77-34.28q.21-.14.51-.09.21.03.44.21 7.52 6.14 9.05 15.41 1.63 9.86-4.17 18.75"/></svg>