<svg xmlns="http://www.w3.org/2000/svg" viewBox="0 0 382 382"><g fill="none" stroke-width="2"><path stroke="#9c998a" d="m297.65 266.17-5.82 11.65a.33.33 0 0 1-.58 0l-7.05-14.01" vector-effect="non-scaling-stroke"/><path stroke="#c2daf6" d="m298.97 268.24-7.21 14.07a.28.28 0 0 1-.5 0l-8.81-17.61" vector-effect="non-scaling-stroke"/></g><path fill="#393215" d="m297.65 266.17-5.82 11.65a.33.33 0 0 1-.58 0l-7.05-14.01q4.25-2.54 9.85-1.62.5.09.81.48z"/><path fill="#fff" d="m284.2 263.81 7.05 14.01a.33.33 0 0 0 .58 0l5.82-11.65 1.32 2.07-7.21 14.07a.28.28 0 0 1-.5 0l-8.81-17.61q.57-.47 1.75-.89"/><path fill="#85b5ec" d="m282.45 264.7 8.81 17.61a.28.28 0 0 0 .5 0l7.21-14.07q2.17 7.44 6.99 12.8 19.89 22.13 33.67 38.33 10.16 11.94 13.72 27.03 1.37 5.85 1.43 15.85.05 9.87.05 19.75H109.74c6.49-15.94 11.19-28.76 13.58-44.72q1.54-10.23 8.78-20c10.94-14.75 24.77-26.15 39.89-36.81q2.48-1.75 5.12-2.93c6.81-3.03 13.16-5.26 18.99-10.43 2.41-2.14 4.6.48 4.63 2.89.09 7.76-.89 15.66-4.06 22.52-2.63 5.68-3.64 12-1.84 17.93 1.21 3.99 5.84 3.69 9.11 2.97q9.21-2.06 15.49-5.08 19.03-9.16 30.29-18.64c10.44-8.8 20.34-18.26 32.73-25"/></svg>