<svg xmlns="http://www.w3.org/2000/svg" viewBox="0 0 382 382"><g fill="none" stroke-width="2"><path stroke="#87a08c" d="m297.01 265.25-18.77 36.69q-.23.45-.46 0l-12.72-25.27" vector-effect="non-scaling-stroke"/><path stroke="#ae9db2" d="m298.26 266.63-20.02 39.96a.26.26 0 0 1-.46 0l-14.32-28.73" vector-effect="non-scaling-stroke"/></g><path fill="#0f4219" d="m297.01 265.25-18.77 36.69q-.23.45-.46 0l-12.72-25.27q9.28-8.42 20.82-13.7c2.74-1.25 5.13-.97 7.92-.9q.52.02.86.41z"/><path fill="#fffeff" d="M297.01 265.25q.65 1.06 1.25 1.38l-20.02 39.96a.26.26 0 0 1-.46 0l-14.32-28.73 1.6-1.19 12.72 25.27q.23.45.46 0z"/><path fill="#5d3c64" d="m263.46 277.86 14.32 28.73a.26.26 0 0 0 .46 0l20.02-39.96q2.64 8.72 8.08 14.79 16.08 17.95 32.71 37.26 10.62 12.33 14.3 27.73 1.37 5.77 1.43 15.8.05 9.89.05 19.79H109.61q6.62-14.6 10.72-29.85c1.78-6.64 2.53-13.97 4.35-20.56q1.83-6.66 7.36-14.19c10.83-14.74 24.5-25.95 39.49-36.62q2.54-1.81 5.1-2.97c6.95-3.16 13.54-5.44 19.49-10.7 2.25-1.99 4.52.25 4.57 2.62q.29 13.36-4.06 22.87c-2.46 5.38-3.36 10.79-2.2 16.55q1.04 5.16 6.39 4.65c8.82-.84 18.05-4.78 25.93-9.11q20.33-11.2 36.71-26.83"/></svg>