<svg xmlns="http://www.w3.org/2000/svg" viewBox="0 0 382 382"><g fill="none" stroke-width="2"><path stroke="#9fecbb" d="m345.01 326.62-9.49-.03a.33.33 0 0 0-.29.48l19.4 38.76" vector-effect="non-scaling-stroke"/><path stroke="#f1bbb9" d="m346.37 328.6-7.5.21q-.52.01-.29.47l16.27 32.57" vector-effect="non-scaling-stroke"/></g><path fill="#40d978" d="m345.01 326.62-9.49-.03a.33.33 0 0 0-.29.48l19.4 38.76.17 16.17H109.74q2.62-6.64 5.22-13.25 5.89-15.02 8.28-31.12 1.56-10.47 8.63-20.01c11.26-15.18 25.11-26.88 41.72-38.2q1.65-1.13 3.45-1.87c6.52-2.71 13.5-5.33 18.74-10.22 2.44-2.27 4.88-.17 4.93 2.52q.14 8.72-1.76 16.25c-1.13 4.53-3.59 8.5-4.51 13.08q-1.32 6.63.61 11.8c1.26 3.38 5.84 3.12 8.67 2.49q9.85-2.22 16-5.24 19.11-9.38 29.86-18.43 9.77-8.23 19.45-16.26 8.27-6.85 18.82-11.13 1.45-.59 5.84-.13a1.71 1.7 70.7 0 1 1.07.52q4.09 4.27 5.76 9.47 1.38 4.28 5.17 8.5 17.06 18.96 33.37 37.93 3.16 3.67 5.95 7.92"/><path fill="#fefefe" d="M345.01 326.62q.73.56 1.36 1.98l-7.5.21q-.52.01-.29.47l16.27 32.57q.34 1.89-.22 3.98l-19.4-38.76a.33.33 0 0 1 .29-.48z"/><path fill="#e47873" d="M346.37 328.6q7.11 12.1 8.57 26.4.14 1.42-.09 6.85l-16.27-32.57q-.23-.46.29-.47z"/></svg>