<svg xmlns="http://www.w3.org/2000/svg" viewBox="0 0 382 382"><g fill="none" stroke-width="2"><path stroke="#ab94fa" d="M169.25 313.76a11.22 11.22 0 0 0-11.22-11.22 11.22 11.22 0 0 0-11.22 11.22 11.22 11.22 0 0 0 11.22 11.22 11.22 11.22 0 0 0 11.22-11.22" vector-effect="non-scaling-stroke"/><path stroke="#9eaffa" d="M167.25 313.76a9.22 9.22 0 0 0-9.22-9.22 9.22 9.22 0 0 0-9.22 9.22 9.22 9.22 0 0 0 9.22 9.22 9.22 9.22 0 0 0 9.22-9.22" vector-effect="non-scaling-stroke"/></g><path fill="#5629f5" d="M354.83 382H109.54q9.72-20.71 14.13-46.78 1.39-8.23 8.45-17.93c10.6-14.57 24.65-26.06 39.75-36.75 7.58-5.37 16.76-6.62 23.95-13.24 2.39-2.19 4.82-.17 4.88 2.48.15 8.12-.9 15.8-4.1 22.88q-1.36 3-2.03 5.93c-.88 3.81-1.65 13.77 3.4 14.94q2.75.63 5.38.05 9.98-2.2 17.13-5.71 18.13-8.91 29.24-18.23 9.44-7.92 19.22-15.94 9.62-7.89 18.75-11.16 1.79-.64 6-.3.47.04.8.37 4.13 4.03 5.4 8.13 1.7 5.51 6.17 10.48 16.78 18.64 33.1 37.59 10.52 12.22 14.19 27.61 1.37 5.77 1.43 15.79.05 9.89.05 19.79m-185.58-68.24a11.22 11.22 0 0 0-11.22-11.22 11.22 11.22 0 0 0-11.22 11.22 11.22 11.22 0 0 0 11.22 11.22 11.22 11.22 0 0 0 11.22-11.22"/><path fill="#fff" d="M169.25 313.76a11.22 11.22 0 0 1-11.22 11.22 11.22 11.22 0 0 1-11.22-11.22 11.22 11.22 0 0 1 11.22-11.22 11.22 11.22 0 0 1 11.22 11.22m-2 0a9.22 9.22 0 0 0-9.22-9.22 9.22 9.22 0 0 0-9.22 9.22 9.22 9.22 0 0 0 9.22 9.22 9.22 9.22 0 0 0 9.22-9.22"/><circle cx="158.03" cy="313.76" r="9.22" fill="#3c5ff5"/></svg>