<svg xmlns="http://www.w3.org/2000/svg" viewBox="0 0 382 382"><path fill="none" stroke="#4ca2b7" stroke-width="2" d="M136.85 310.98q1.09 1.15 1.54 2.51a.22.22 0 0 0 .41.03l4.95-10.12" vector-effect="non-scaling-stroke"/><path fill="#43fbd0" d="M354.84 382h-245.2q5.8-13.01 9.78-26.48 1.62-5.52 2.53-10.76c1.28-7.35 2.33-14.16 5.87-20.91q2.11-4.01 9.03-12.87 1.09 1.15 1.54 2.51a.22.22 0 0 0 .41.03l4.95-10.12q12.78-12.14 27.48-22.43c7.91-5.53 17.59-7.04 24.89-13.94a2.47 2.47 0 0 1 3.56.17c2.58 2.97.11 15.66-.88 19.4-.91 3.49-2.94 7.31-3.97 11.05q-1.94 7.02.15 13.17c1.14 3.36 5.44 3.34 8.27 2.74q10.1-2.16 17.42-5.77 17.98-8.86 29.04-18.16 9.65-8.1 19.34-16.07 8.81-7.25 17.96-10.79 2.71-1.05 6.76-.47.49.07.84.41 3.81 3.79 5.04 7.45 2.09 6.29 6.6 11.28 16.54 18.34 32.9 37.37 10.53 12.25 14.21 27.63 1.36 5.73 1.42 15.75.05 9.9.06 19.81"/><path fill="#55489d" d="m143.75 303.4-4.95 10.12a.22.22 0 0 1-.41-.03q-.45-1.36-1.54-2.51z"/></svg>