<svg xmlns="http://www.w3.org/2000/svg" viewBox="0 0 382 382"><path fill="none" stroke="#50a957" stroke-width="2" d="m132.36 382-.1-5.47q-.01-.5-.5-.5l-19.73-.12" vector-effect="non-scaling-stroke"/><path fill="#8fcc9e" d="M354.84 382H132.36l-.1-5.47q-.01-.5-.5-.5l-19.73-.12q8.25-18.36 11.17-37.76 1.73-11.48 8.65-20.76 8.92-11.94 21.39-22.5 8.42-7.12 18.78-14.45 2.36-1.66 4.39-2.56c6.89-3.03 14.06-5.52 19.64-10.81a2.55 2.54-41.4 0 1 3.72.23c2.27 2.76.22 14.33-.56 17.82-.9 3.97-2.67 7.47-4.03 11.29q-1.85 5.25-.93 11.93c.84 6.01 5.38 6.06 9.99 5.02q8.55-1.94 15.29-5.08 17.76-8.26 30.53-18.95 14.55-12.18 19.16-15.91 9.27-7.49 17.94-10.69 2.57-.95 6.37-.51.65.08 1.12.53 4.15 4.02 5.96 9.87 1.17 3.75 4.68 7.67 17.61 19.71 33.56 38.13 10.83 12.5 14.54 28.12 1.34 5.62 1.39 15.54.04 9.96.06 19.92"/><path fill="#10850f" d="M132.36 382h-22.78l2.45-6.09 19.73.12q.49 0 .5.5z"/></svg>