<svg xmlns="http://www.w3.org/2000/svg" viewBox="0 0 382 382"><g fill="none" stroke-width="2"><path stroke="#99cbe4" d="m168.58 282.97 7.72.35q.56.03.8.53l1.41 2.89q.35.73.72.01l1.58-3.08a.91.9-75.7 0 1 .82-.49l1.87.04q.7.02.62-.68-.53-4.68 1.38-8.68" vector-effect="non-scaling-stroke"/><path stroke="#cfacbb" d="m170.56 281.19 4.56-.03q.51 0 .33-.47l-.82-2.13M176.06 277.81q1.6 2.11 2.43 4.64a.32.32 0 0 0 .59.03l3.66-7.53" vector-effect="non-scaling-stroke"/></g><path fill="#3396c9" d="M354.83 382H109.74c5.08-12.83 10.52-25.94 12.5-38.89q1.21-7.97 3.3-14.1c2.87-8.4 11.02-18.07 17.46-24.52q12-12.01 25.58-21.52l7.72.35q.56.03.8.53l1.41 2.89q.35.73.72.01l1.58-3.08a.91.9-75.7 0 1 .82-.49l1.87.04q.7.02.62-.68-.53-4.68 1.38-8.68 5.43-2.27 9.86-6.14c2.85-2.49 5.3-1.12 5.36 2.4q.14 8.08-1.69 15.7c-1.03 4.24-3.21 7.92-4.28 12.07-1.03 3.97-2.12 14.82 3.61 15.73q2.88.46 5.7-.2 9.28-2.16 15.81-5.26 18.36-8.71 31.88-20.19 8.98-7.61 17.94-14.92 8.33-6.81 17.61-10.39 2.33-.9 6.35-.41a1.78 1.78 0 0 1 1.04.52q4.14 4.23 5.72 9.21 1.42 4.49 4.99 8.46 17.04 18.97 33.76 38.37 10.51 12.2 14.19 27.63 1.38 5.77 1.43 15.75.05 9.91.05 19.81"/><path fill="#fffffe" d="M185.5 273.86q-1.91 4-1.38 8.68.08.7-.62.68l-1.87-.04a.91.9-75.7 0 0-.82.49l-1.58 3.08q-.37.72-.72-.01l-1.41-2.89q-.24-.5-.8-.53l-7.72-.35 1.98-1.78 4.56-.03q.51 0 .33-.47l-.82-2.13 1.43-.75q1.6 2.11 2.43 4.64a.32.32 0 0 0 .59.03l3.66-7.53q.84-.84 2.76-1.09"/><path fill="#9e5877" d="m182.74 274.95-3.66 7.53a.32.32 0 0 1-.59-.03q-.83-2.53-2.43-4.64zM174.63 278.56l.82 2.13q.18.47-.33.47l-4.56.03z"/></svg>