<svg xmlns="http://www.w3.org/2000/svg" viewBox="0 0 382 382"><g fill="none" stroke-width="2"><path stroke="#b48ae0" d="M188.41 352.97a14.87 14.87 0 0 0-14.87-14.87 14.87 14.87 0 0 0-14.87 14.87 14.87 14.87 0 0 0 14.87 14.87 14.87 14.87 0 0 0 14.87-14.87" vector-effect="non-scaling-stroke"/><path stroke="#8ee98f" d="M186.43 352.94a12.88 12.88 0 0 0-12.88-12.88 12.88 12.88 0 0 0-12.88 12.88 12.88 12.88 0 0 0 12.88 12.88 12.88 12.88 0 0 0 12.88-12.88" vector-effect="non-scaling-stroke"/></g><path fill="#6a14c1" d="M354.84 382H109.78q1.42-3.98 3.09-7.87 7.58-17.67 10.32-36.27 1.54-10.41 8.45-19.91c10.76-14.79 23.91-25.91 40.21-37.38 7.76-5.46 16.86-6.69 24.07-13.34 2.39-2.2 4.71.06 4.78 2.59q.22 7.91-1.62 15.76c-.9 3.87-2.72 7.35-3.97 11.01q-1.81 5.28-.78 11.99c.94 6.14 5.87 5.73 10.42 4.67q9.02-2.1 15.33-5.19 18.34-8.96 29.49-18.3 9.52-7.97 19.49-16.2 9.28-7.64 18.63-10.99 2.22-.79 5.99-.29a1.75 1.72-17.7 0 1 1.03.52q3.75 3.85 4.8 7.06 2.12 6.45 6.89 11.74 15.64 17.35 32.33 36.67 10.92 12.64 14.66 28.25 1.33 5.57 1.39 15.59.05 9.94.06 19.89m-166.43-29.03a14.87 14.87 0 0 0-14.87-14.87 14.87 14.87 0 0 0-14.87 14.87 14.87 14.87 0 0 0 14.87 14.87 14.87 14.87 0 0 0 14.87-14.87"/><path fill="#fefffe" d="M188.41 352.97a14.87 14.87 0 0 1-14.87 14.87 14.87 14.87 0 0 1-14.87-14.87 14.87 14.87 0 0 1 14.87-14.87 14.87 14.87 0 0 1 14.87 14.87m-1.98-.03a12.88 12.88 0 0 0-12.88-12.88 12.88 12.88 0 0 0-12.88 12.88 12.88 12.88 0 0 0 12.88 12.88 12.88 12.88 0 0 0 12.88-12.88"/><circle cx="173.55" cy="352.94" r="12.88" fill="#1dd220"/></svg>