<?xml version="1.0" encoding="UTF-8" standalone="no"?>
<!DOCTYPE svg PUBLIC "-//W3C//DTD SVG 1.1//EN" "http://www.w3.org/Graphics/SVG/1.1/DTD/svg11.dtd">
<svg xmlns="http://www.w3.org/2000/svg" version="1.1" viewBox="0.00 0.00 1592.00 1592.00" width="1592.00" height="1592.00">
<path fill="#2fe056" d="
  M 1478.13 1592.00
  L 456.71 1592.00
  Q 461.63 1579.83 466.72 1567.74
  Q 482.17 1531.05 492.74 1497.53
  Q 503.39 1463.81 508.00 1437.77
  Q 510.54 1423.42 512.79 1409.52
  C 515.69 1391.58 520.66 1373.31 528.64 1356.69
  Q 531.85 1350.02 538.62 1339.37
  Q 554.02 1315.17 572.59 1293.33
  Q 593.29 1268.98 617.27 1247.02
  Q 643.30 1223.19 672.29 1201.04
  Q 700.75 1179.30 717.45 1167.70
  Q 729.06 1159.64 744.39 1153.15
  Q 758.14 1147.33 776.91 1139.17
  Q 799.76 1129.24 816.58 1112.86
  Q 817.94 1111.53 820.88 1110.37
  Q 826.44 1108.19 830.96 1111.71
  C 834.92 1114.80 836.64 1121.49 836.70 1126.60
  Q 836.83 1138.26 835.70 1153.01
  C 834.00 1175.07 829.45 1196.51 820.66 1216.68
  Q 814.49 1230.83 813.89 1232.68
  Q 809.34 1246.75 808.34 1258.91
  Q 807.65 1267.18 809.34 1285.16
  Q 809.73 1289.35 812.83 1296.01
  Q 815.79 1302.37 820.83 1304.88
  Q 826.62 1307.76 834.08 1307.71
  Q 840.93 1307.67 848.84 1306.04
  C 882.35 1299.16 915.30 1285.92 945.49 1269.46
  Q 978.43 1251.51 1012.26 1228.01
  Q 1037.78 1210.28 1060.76 1190.25
  Q 1078.39 1174.88 1103.63 1153.37
  Q 1131.72 1129.43 1159.70 1112.43
  Q 1176.73 1102.09 1198.16 1093.51
  Q 1200.74 1092.47 1203.61 1092.48
  Q 1222.21 1092.50 1225.37 1092.52
  Q 1225.96 1092.53 1226.37 1092.96
  Q 1234.27 1101.44 1240.55 1109.71
  Q 1246.57 1117.63 1249.63 1127.15
  Q 1252.57 1136.30 1252.59 1136.33
  C 1258.25 1150.93 1268.32 1163.96 1278.92 1175.65
  Q 1346.89 1250.67 1411.93 1326.65
  Q 1420.83 1337.04 1424.62 1342.03
  Q 1467.35 1398.27 1477.32 1468.97
  Q 1478.67 1478.53 1478.58 1488.70
  Q 1478.51 1497.27 1478.37 1508.50
  Q 1477.86 1547.74 1478.96 1586.00
  Q 1479.02 1588.09 1478.13 1592.00
  Z"
/>
</svg>
