<svg xmlns="http://www.w3.org/2000/svg" viewBox="0 0 382 382"><g fill="none" stroke-width="2"><path stroke="#c1d886" d="m351.38 339.78.08 33.48q0 .52.5.67 1.31.39 2.9.05M118.4 358.57l10.97 21.96a.68.68 0 0 0 1.21 0l19.75-39.51a.4.4 0 0 0-.36-.58l-27.16-.02" vector-effect="non-scaling-stroke"/><path stroke="#c1d886" d="m353.56 347.61-.14 23.5a.82.82 0 0 0 .46.75q.44.22 1.05.17" vector-effect="non-scaling-stroke"/><path stroke="#befed3" d="m119.24 355.91 10.48 20.81a.29.29 0 0 0 .52 0l16.96-33.94a.25.25 0 0 0-.22-.37l-24.71.01" vector-effect="non-scaling-stroke"/></g><path fill="#84b10e" d="m351.38 339.78.08 33.48q0 .52.5.67 1.31.39 2.9.05l-.07 8.02H109.72c3.1-7.48 6.81-15.59 8.68-23.43l10.97 21.96a.68.68 0 0 0 1.21 0l19.75-39.51a.4.4 0 0 0-.36-.58l-27.16-.02q1.37-12.34 9.5-23.36c10.64-14.44 23.85-25.16 38.67-35.93 7.94-5.77 17.68-7.07 25.1-14.09a2.51 2.51 0 0 1 3.68.26q.97 1.21.98 2.94c.02 7.05-.74 14.14-3.3 20.43-1.08 2.65-2.34 5.24-2.93 8.03-.74 3.49-1.67 13.99 3.67 14.91q2.81.48 5.88-.22 9.6-2.21 15.52-5.09 18.93-9.23 29.85-18.41 9.57-8.05 19.63-16.33 9.31-7.67 18.43-10.94 2.4-.86 6.16-.35.58.07 1 .49 3.91 3.9 5.17 7.83 1.85 5.79 6.81 11.28 22.2 24.58 34.36 39.13 6.53 7.82 10.39 18.78"/><path fill="#fefffe" d="M351.38 339.78q1.91 4.19 2.18 7.83l-.14 23.5a.82.82 0 0 0 .46.75q.44.22 1.05.17l-.07 1.95q-1.59.34-2.9-.05-.5-.15-.5-.67zM118.4 358.57l.84-2.66 10.48 20.81a.29.29 0 0 0 .52 0l16.96-33.94a.25.25 0 0 0-.22-.37l-24.71.01q-.18-1.11.54-2l27.16.02a.4.4 0 0 1 .36.58l-19.75 39.51a.68.68 0 0 1-1.21 0z"/><path fill="#7dfca7" d="m122.27 342.42 24.71-.01a.25.25 0 0 1 .22.37l-16.96 33.94a.29.29 0 0 1-.52 0l-10.48-20.81z"/><path fill="#84b10e" d="M354.93 372.03q-.61.05-1.05-.17a.82.82 0 0 1-.46-.75l.14-23.5q1.36 4.3 1.37 6.89.03 8.78 0 17.53"/></svg>