<svg xmlns="http://www.w3.org/2000/svg" viewBox="0 0 382 382"><g fill="none" stroke-width="2"><path stroke="#b48f9c" d="M354.75 364.05q-11.58 5.18-10.9 17.95" vector-effect="non-scaling-stroke"/><path stroke="#ac94f3" d="M354.92 365.87c-6.13 3.86-9.85 8.43-8.96 16.13" vector-effect="non-scaling-stroke"/></g><path fill="#691e39" d="M354.75 364.05q-11.58 5.18-10.9 17.95H109.78q1.67-4.6 3.58-9.12 7.15-16.96 9.91-35.33 1.57-10.46 8.75-20.16c10.92-14.74 24.64-26.1 39.57-36.62 7.78-5.49 17.03-6.88 24.34-13.54 2.4-2.19 4.68.04 4.75 2.58q.25 8.65-1.76 16.39c-1.07 4.12-3.31 8-4.3 12.16q-1.57 6.63.31 12.36c1.19 3.61 5.61 3.39 8.62 2.75q9.8-2.09 16.53-5.4 18.51-9.09 29.49-18.31 9.82-8.25 19.48-16.21 9.29-7.65 18.6-10.95 2.28-.81 6.01-.35.62.08 1.05.53 3.79 3.96 4.93 7.37 2.11 6.27 6.27 10.9 17.66 19.62 33.38 37.93 13.14 15.3 15.46 35.53.22 1.94 0 9.54"/><path fill="#fff" d="m354.75 364.05.17 1.82c-6.13 3.86-9.85 8.43-8.96 16.13h-2.11q-.68-12.77 10.9-17.95"/><path fill="#5828e7" d="m354.92 365.87.07 16.13h-9.03c-.89-7.7 2.83-12.27 8.96-16.13"/></svg>