<?xml version="1.0" encoding="UTF-8"?>
<svg id="Phil" xmlns="http://www.w3.org/2000/svg" viewBox="0 0 128 128">
  <defs>
    <style>
      .cls-1 {
        fill: #231f20;
        stroke-width: 0px;
      }
    </style>
  </defs>
  <path id="Eyes" class="cls-1" d="M27.94,23.44c0,.16-.87.35-.87.5-.33-9.4,9.51-11.13,16.69-8.64,8.51.68,16.94-3.87,25.35-1.07,14.93,7.35,11.33,12.05,30.56,11.65-18.9,2.45-16.89-5.01-31.35-11.23-8.09-2.36-16.85,1.66-24.99,1.18-7.4-1.6-15-2.87-15.4,7.61h0ZM84.37,34.82c9.24-2.34,12.96-1.76,19.88-2.02-7.42-.91-12.96-.51-19.88,2.02ZM27.08,23.94c2.86,2.97,20.22-14.27,21.85,1.45,3.22,1.11-1.05-8.2-6.04-7.58-5.51-.5-9.98,7.03-15.02,5.72-.48.37-1.37-.38-.8.42ZM84.37,34.82c-8.27,8.77-14.45,7.61-25.35,7.45,10.17,2.24,19.3-.25,25.35-7.45ZM60.76,42.31c-11.97-6.61-8.45-16.78-11.25-17.5,0,.15-.7-.15-.69.02,1.75,7.42,6.54,18.81,11.94,17.48ZM104.47,33.12c1.74-12.19,1.21-5.96-5.52-7.36l5.52,7.36ZM49.3,23.93c-.05.26.75,2.43.75,2.43M28.02,23.93l-.67-.92M88.65,33.6l-3.14.83-1.14.4-.69.72M100.62,25.9l-1.31-.08-2.53.08M102.77,32.85l1.28.28.69-1.87"/>
</svg>