<svg xmlns="http://www.w3.org/2000/svg" viewBox="0 0 382 382"><g fill="none" stroke-width="2"><path stroke="#070419" d="m211.98 66.8 2.23 3.75" vector-effect="non-scaling-stroke"/><path stroke="#080420" d="m214.21 70.55-8.43-.85a1.06 1.05 65.1 0 1-.46-.17l-.49-.33a.53.53 0 0 0-.74.73q1.8 2.79 3.58 5.58.53.84-.09 1.58a.24.23 44.3 0 1-.35 0q-.11-.12-.1-.31a.41.4-7.3 0 0-.52-.4q-.66.2-.67.83-.04 2.77.54 5.39.45 2.06-1.17.71-.54-.45-.81-1.06-.21-.46-.6-.15l-.24.19a.47.47 0 0 0-.1.61q2.04 3.28 1.48 6.93a.53.52 27.3 0 0 .15.45q.33.32.47.05.39-.72 1.01-.2 2.33 1.93 4.55 3.64.59.46.17 1.08-.64.96-.2 2.17.14.38-.26.37l-.55-.01q-.25-.01-.3-.26-.48-2.7-1.99-4.86-.28-.39-.75-.31-3 .52-6.02-.16-.52-.12-.6-.65l-.29-1.91q-.12-.77-.85-.52-.99.32-1.69.82-.64.46-.03.96 3.02 2.46 6.13 3.42 1.21.38 2.21-.25.4-.25.59.18.78 1.81 2.39 3.07 1.39 1.08-.37.96l-2.98-.2q-.59-.04-.69-.62-.07-.36-.38-.56a.75.75 0 0 0-1.15.6l-.24 4.29a1.26 1.23-66.4 0 0 .36.95q2.9 2.93 2.23 6.89-.2 1.23 1.04 1.34.44.04.64.42.44.79 1.14.22.95-.76 2.08-1.08.14-.04.22-.16.09-.14.06-.28-.11-.42-.55-.42l-2.3-.01q-.38 0-.42-.38l-.04-.36q-.05-.45.4-.51 2.84-.37 5.36-.39 2.51-.01.76-1.66-.1-.09-.99.48-.43.28-.89.06-.42-.21-.73-.55a.38.37-52.7 0 0-.61.09q-.07.15-.11.31-.17.79-.77.26l-5.46-4.81a.82.82 0 0 1 .52-1.43q1.79-.05 3.27-1.02 1.22-.81.76.58l-1.19 3.64a.5.48 21 0 0 .28.61l.34.14q.46.19.59-.29l.78-2.9q.15-.56.72-.45l.39.07a.48.47-82 0 1 .38.51l-.25 2.76q-.07.79.54.28 1.01-.85 2.1-.39.45.18.75-.2.11-.14.18-.32.34-.87.74-.02 1.11 2.33 3.74 4.91 1.14 1.12 1.31 2.99.05.56.6.69l.42.09q.55.13.6.69.38 4.48 1.72 8.86.84 2.76-1.37.91-1.35-1.13-2.87-2.08a.53.52-59.6 0 0-.74.2l-.18.35a.74.74 0 0 0 .35 1.03c1.62.72 4.21 2.17 3.44 4.32q-1.29 3.65-2.11 6.86-.06.21-.28.17h-.01q-.22-.04-.19-.26.36-2.81.78-5.41.27-1.7-.24-3.05-.46-1.23-1.65-2.2-1.21-.97-.71.5l.68 1.96q.28.82-.58.92l-.29.04a.88.87-7.8 0 1-.97-.73q-.3-1.79.78-3.47.12-.19.14-.41.02-.19-.12-.34-.32-.34.03-.65l1.39-1.22q1.14-1.01-.38-1.01-1.35 0-2.49.53-.55.26-.33-.31.71-1.86.09-3.55-.2-.56.23-.96l2.16-2.04q.57-.54-.21-.65l-1.99-.28q-.61-.09-.68.53l-.42 3.84q-.06.5-.55.56-.88.1-1.41-.67a1.7 1.7 0 0 0-.85-.64l-6.07-1.95q-.24-.07-.34.15l-.1.23a.23.22-62.2 0 0 .08.28l7.61 4.46q.6.35.68 1.04.65 5.17.13 9.85-.05.46-.52.49-1.46.09-2.84-.29a.58.57-81.4 0 0-.73.54l-.16 5.56a.39.39 0 0 1-.66.27l-1.39-1.32q-.45-.44-1.02-.15l-3.9 2.02a.9.9 0 0 0-.38.38q-.36.7-1.07.43a.5.5 0 0 0-.68.44q-.03.56-.52.77-.69.31-.53-.43l.46-2.18a.28.27-82.6 0 0-.25-.33l-.38-.03q-.28-.02-.37.24l-1.76 5.14a.37.37 0 0 1-.51.21l-.33-.15q-.4-.2-.16-.57l.42-.64q.97-1.49-.58-.63l-2.65 1.47q-1.22.68.08 1.19l2.13.84a.36.35 25.6 0 1 .18.51l-.21.33q-.27.45-.69.14l-1.3-.96q-.56-.41-.83.22l-.72 1.66q-.59 1.37-1.95.77-1.77-.79-3.53-2.01-.25-.18-.32-.47-.09-.38.04-.76.15-.47.65-.39 1.39.23 2.68.09.53-.06.12-.39l-1.02-.84q-.81-.67.21-.94l3.8-1q.11-.03.18-.12.09-.14.11-.3.05-.35-.3-.44l-2.44-.57a.79.79 0 0 1-.23-1.44q1.49-.93 2.31-2.63a.21.21 0 0 0-.14-.29l-.29-.06q-.22-.05-.29.16-.18.53-.5 1.02-1.34 2.01-1.94-.33-1.13-4.44-1.01-10.26.02-.63.62-.78.49-.13.96-.32 1.37-.57-.02-1.06l-4.18-1.48a.41.41 0 0 0-.53.49q.54 2.04-.11 4a1.29 1.29 0 0 1-1.79.74l-1.99-.99q-.23-.11-.39.08l-.2.25q-.34.41.12.68 1.41.8 2.08 2.28.6 1.34 1.37.09l1.24-2.03q.29-.48.68-.08.43.43.23 1.04-.53 1.64-1.38 3.06-.15.24.06.42.12.1.26.08.43-.05.61.35l2.51 5.61q1.44 3.23-1.64 1.5-2.64-1.48-5.42-2.25-1.73-.48-2.66-1.99-.3-.49-.86-.32l-.99.3a.98.97 54.7 0 0-.29 1.72q2.26 1.67 3.09 3.84.63 1.64.96-.08.17-.88.74-1.51.38-.42.9-.18l2.62 1.21q.5.23.52.78.2 4.15-.5 8.31-.07.41-.43.22l-.26-.14q-.19-.1-.14-.3.34-1.32.21-2.65-.08-.81-.65-.22l-1.45 1.48q-.18.19-.37 0l-.2-.19q-.07-.07-.01-.15l2.99-4.12q.57-.79-.39-.94-.72-.11-1.44-.14-1.03-.05-1.48.87-.45.93-.96 1.77-1.39 2.3-2.02-.31-.07-.3.14-1.03a.53.52 11.5 0 0-.45-.67q-.76-.1-1.42.21a.5.5 0 0 1-.71-.43l-.07-1.67q-.01-.37-.38-.37-.24 0-.33.21-1.28 2.9-3.14 5.82a.28.28 0 0 1-.48-.02q-.62-1.12-1.73-1.91a.66.65-50.8 0 0-.85.09q-.78.83-1.39 1.84-.16.27-.47.18-.42-.12-.33-.56.44-2.03 1.93-3.07.33-.23.22-.61-.79-2.8.66-5.59a.8.79 14.5 0 1 .74-.43q1.03.05 1.73.82.27.3.67.22.14-.03.25-.1.34-.21.06-.48l-1.92-1.86q-.44-.42.11-.7l2.19-1.09q.14-.07.21-.21t.03-.27q-.11-.37-.49-.31l-2.08.34q-.57.1-.65-.47l-.19-1.36q-.05-.36.32-.4l6.48-.61q.31-.03.41.27l.08.26q.17.5-.35.55l-2.26.25a.85.85 0 0 0-.76.83l-.03 5.37q-.01.75-.75.87-2.32.38-3.38 2.3-.39.72.37.41 3.51-1.42 7.57-.58.3.07.55-.12.11-.07.13-.21.09-.54-.34-.88-2.33-1.9-2.79-4.77a.57.57 0 0 1 .55-.66l3.85-.1a.47.47 0 0 0 .32-.8l-.85-.87a1.3 1.29 54.8 0 1 .35-2.06l1.97-.97a.66.66 0 0 0 .08-1.14q-1.21-.81-2-1.93-.44-.63.33-.56l3.71.37q1.28.13.37-.77-1.11-1.1-1.57-2.4-.51-1.45-2.04-1.41-2.46.05-4.62-.98-.34-.17-.7-.1-.67.12-.93.8a.33.33 0 0 1-.54.12q-.19-.18-.16-.44.04-.38.35-.62 1.88-1.4 3.98-.06a.25.25 0 0 0 .35-.08l.17-.27q.13-.21-.08-.36-.87-.61-1.41-1.45-.41-.64.34-.58.72.07 1.38.34 1.4.57 1.49-.93.12-1.89.79-3.51.44-1.07-.7-1.28-3.43-.64-7.05-.41a.44.44 0 0 0-.41.45l.03.74a.47.47 0 0 0 .47.45l3.85-.02q.55 0 .52.56-.08 1.41-.67 2.42-.3.51-.74.11l-.99-.91q-.44-.4-.59.18c-.85 3.29-2.5 5.7-2.99 9.23q-.03.25.14.43.35.37.53-.1.46-1.22.11-2.37a.29.29 0 0 1 .38-.36q2.66 1.05 5.23.58a.34.34 0 0 1 .4.35q-.12 2.32.15 4.61.04.35-.32.42l-8.06 1.56q-1.2.23-.2-.47 3.14-2.23 7.16-1.57.45.08.58-.36l.09-.32a.27.26 17.4 0 0-.18-.33q-1.41-.41-1.35-1.7.04-.85-.74-.51l-3.24 1.43a.93.92-28.9 0 1-1.13-.32l-1.3-1.9q-.15-.2-.37-.1l-.25.11q-.3.13-.16.42l1.02 2.02q.57 1.13-.7 1.03l-1.86-.16q-.92-.08-.62.79 1.16 3.35 1.63 7.07.06.49-.19.92-.94 1.59-1.18 3.5-.09.69-.75.48l-.7-.21q-.87-.26-.9-1.17l-.27-7.38" vector-effect="non-scaling-stroke"/><path stroke="#1c0819" d="M165.08 127.9q3.01 2.34 1.46-3.62-.86-3.31.54-7.49c.71-2.12.33-4 .67-6.13q.08-.46.54-.52l2.24-.31q.5-.06.15-.42-.33-.34-.82-.36a1.32 1.31 87.2 0 1-1.27-1.16c-.59-4.63 1.03-8.64 2.78-12.9 1.07-2.61.52-5.31.49-8.01a.33.33 0 0 1 .55-.25c.64.55 1.31.78 2.14.66q2.93-.4 5.33 1.14.55.36.72-.28.33-1.31.86-1.78" vector-effect="non-scaling-stroke"/><path stroke="#080420" d="M181.46 86.47q.43 2.32 4.39 2.25c1.31-.02 2.2.3 3.32.86q.56.28 1.05-.1l2.13-1.66q.61-.47.72-1.23.15-1.06.93-1.61.37-.27 0-.52l-1.47-1.01a.68.68 0 0 0-1.06.57q.03 2-1.4 3.5-1 1.06-.86-.39.23-2.29 1.35-4.09a.81.79-72.4 0 1 .71-.38q1.97.05 2.23-2.36.05-.52-.36-.82-.76-.57-1.65-.64-.75-.06-.16.41 1.35 1.08-.1 2.13-.32.23-.67.33-1.16.31-.47-.67.84-1.21.77-2.51c-.1-1.72.61-2.69-.44-4.41q-.39-.63-.81-.02c-.91 1.31-.34 2.26.37 3.46a.83.82 58.9 0 1-.27 1.11l-.3.19q-.49.31-.72-.22l-1.52-3.37q-.32-.69-.99-.34-.48.25-.68.77-.19.47-.68.37l-3.35-.64q-.37-.07-.32.3l.07.54q.03.24.27.27 1.2.18 1.98.97.61.62-.25.48l-2.3-.38q-.58-.09-.78-.64-.53-1.46-.63-2.95-.15-2.15-1.79-3.27-.45-.32-.19-.8.45-.85 1.37-.79.91.07 1.91.34 1.81.48.73-1.05l-.57-.8" vector-effect="non-scaling-stroke"/><path stroke="#180709" d="M181.46 86.47q.63-.88 1.77-1.17.24-.06.14-.29l-.11-.28q-.07-.16-.23-.13-1.59.31-2.95 1.33a.57.55 44.4 0 1-.67 0l-.95-.71a.76.76 0 0 0-1 .07l-.28.28q-.4.4-.91.18-.17-.07-.25-.22-.35-.7-.79-.05-.57.85-1.59.67-.62-.1-.34-.66.1-.2.28-.32.56-.34.07-.77-.93-.8-.82-1.99.08-.81.78-.39.71.42 1 1.27.75 2.26 1.06-.1.13-.99.62-1.86.21-.39 0-.77-.1-.19-.13-.4-.18-1.03-.7-.12-.51.88-1.67 1.11-.46.1-.6-.36l-1.3-4.54" vector-effect="non-scaling-stroke"/><path stroke="#0c220a" d="M220.57 101.22q1.15.49 1.87 1.11.6.53-.2.54l-.59.01q-.61 0-.48.59l1.17 5.21q.15.66.6.15.18-.2.19-.44.05-.88.78-.38 1.11.76 2.33.48.5-.11.8.3c.75 1.04 1.45 2.05 1.75 3.32q.42 1.73 1.53 3.5.29.47.53-.03.44-.91.5-1.84.03-.52-.39-.83-.48-.35-.74-.9-.3-.63.31-.28.62.36 1.08.89.47.54.8-.08.14-.25.14-.53a1.04 1.04 0 0 1 1.16-1.02q.88.11 1.42-.48.57-.63-.29-.56-.54.04-1.05.27-.79.36-.59-.48.1-.38.42-.6.53-.37.44-1.01-.19-1.38-.07-2.62.24-2.4-1.67-.93-.7.53-1.37 1.19-.21.21-.49.17-.2-.02-.31-.19-.19-.29.12-.47.2-.11.3-.31.62-1.22-.74-1.03c-2.03.27-2.62-2-3-3.74a.49.49 0 0 0-.65-.35l-.24.09q-.62.23-.56.88.1 1.31.8 2.44.3.48.08.99-.15.34-.41.59-.4.37.03.71l1.37 1.09q.23.18.03.4l-.64.69q-.19.21-.4.01l-1.52-1.48a.59.56 22 0 1-.17-.38l-.22-3.03q-.03-.45-.25-.85l-2.43-4.62q-.3-.58.21-.98 1.2-.97.82-2.61a.45.44-15 0 1 .31-.53l.29-.08q.5-.13.67.36.48 1.41 2.31 2.41.24.13.5.04.33-.12.27-.62a.59.58-78 0 0-.29-.45q-.5-.29-.74-.78-.36-.69.42-.59.88.11 1.48.76.44.49-.2.64-.29.07-.29.36-.01.46.41.66.65.31.88 1.01.09.28-.04.54-.13.28-.41.36a.73.72 67.3 0 1-.82-.34q-.34-.6-.99-.77-.53-.14-.79.34-.28.53-.83.53-.6 0-.24-.48l.21-.28q.18-.25-.06-.44-.1-.09-.24-.12-.5-.09-.72.37-.47 1.03.1 2.07.24.42.72.41.77-.01 1.4-.42.46-.31.92.02 1.64 1.17 4.01 1.28.34.02.47-.29l.11-.25a.52.51 18.1 0 0-.36-.7q-.4-.09-.6-.46-.3-.52.27-.71l1.94-.64q.42-.14.78.13l.23.18q.35.26-.04.45-1.85.92-1.97 2.74-.04.56-.6.61-.29.02-.53-.12-.47-.28-.78.18-.53.8.13 1.48 1.31 1.35 2.29-.18.34-.54.84-.14 1.39 1.12 3.3.75.49-.09.58.39.07.34-.24.52-.54.32-1.14.31a.66.66 0 0 0-.68.7l.08 1.32q.05.71.75.78 1.52.15 3.14.1.5-.02.91-.3.51-.34.48-.97-.07-1.62-1.23-.49-.32.31-.69.48-.83.39-.42-.42.4-.79.35-1.64-.04-.63.59-.72 1.03-.15 1.75.55.36.35.86.39 2.96.26 6.02-.72 2.04-.65 3.85-.3a.62.61-80.6 0 1 .49.69c-.18 1.21.59 2.07.37 3.42q-.14.91-.45 1.83-.2.61-.76.29-.25-.14-.32-.43a1.08 1.08 0 0 1 .22-.95q.19-.22.13-.55-.13-.69-.72-.31-1.95 1.27-2.67 3.87a.37.36 89.6 0 0 .45.45l2.04-.62q.51-.15.71.35.29.73.15 1.43-.11.53-.55.21-1.11-.81-2.17.19a.39.38-49.2 0 0 .04.6q1.64 1.15 2.98.17a.53.52 51.2 0 1 .71.08q.48.54 1.16.8.52.21 1.06.02 1.92-.67 3.8-.01" vector-effect="non-scaling-stroke"/><path stroke="#0b1c0a" d="m258.03 114.59-3.26 1.59q-.54.27-1.01-.12-2.28-1.89-5.54-.28-.38.19-.47.6l-.07.36q-.1.55-.63.35-2.17-.83-3.22-2.58a.28.27 59.6 0 0-.37-.1l-.28.15a.63.63 0 0 0-.26.81l.75 1.64q.14.31-.2.37l-.29.04q-.66.09-.53-.57.15-.8-.4-1.47a.83.81-36.1 0 0-1.08-.16l-1.11.72q-.68.44-.04.92l1.68 1.26a.58.58 0 0 1 .01.92l-.64.51q-.43.35-.81-.04l-.77-.77q-.33-.33-.78-.27l-2.65.36q-.58.08-.9.56-.89 1.33-.4 2.81a.57.57 0 0 0 .92.24q1.14-1.06 3.18-1.04.69 0 .13.41-1.13.82-2.4 1.18a.9.89 78.4 0 0-.64.98q.26 1.93 1.09 3.62a1.22 1.22 0 0 0 1.7.52q.74-.42 1.55-.12.34.12.34.48v.46q0 .54-.53.47l-5.04-.66q-.58-.08-.43-.64.26-.9.76-1.63.15-.22.17-.5.02-.55-.41-.82a.79.77 9 0 1-.33-.44l-.97-3.49q-.19-.71.37-1.19 1.01-.87.6-2.1-.18-.55.39-.48l3.3.39q.57.06.64-.5.12-.99-.34-1.87-.25-.47-.14-1 .36-1.68 1.65-2.36.44-.23.77.14.14.17.03.35-.11.19-.3.31-.49.3-.16.76.3.44.83.43.49-.02.66-.48.3-.84 1.23-.9 1.15-.07 2.27-.28.57-.11.87-.6.77-1.27.26-2.95" vector-effect="non-scaling-stroke"/><path stroke="#0c220a" d="M246.78 108.89q1.06-2.58 3.63-2.86a.81.8-4.5 0 0 .73-.84q-.05-.86-1.21-1.3a2.17 2.15-62.6 0 0-2.56.82l-.84 1.25q-.28.41-.76.45l-.28.02" vector-effect="non-scaling-stroke"/><path stroke="#0b1c0a" d="m245.49 106.43-2.42-1.62q-.5-.32-.78.2l-1.59 2.9q-.28.51.13.92l.92.92q.38.38-.1.61-.15.08-.31.09-.47.03-.59-.43l-.3-1.23q-.14-.54-.68-.68l-2.34-.6q-.44-.11-.62.3-.3.68-.07 1.45.2.71.94.59.75-.13 1.31.29.54.41-.03.78-2.64 1.72-5.23 2.05-.71.1-.62.8l.29 2.29q.06.48-.37.69-.71.34-1.47-.16-.6-.39-1.03.18-.54.7.12 1.38.57.59-.26.52-.16-.01-.32.01-.44.07-.45-.37-.08-4.82-3.78-7.94-1.4-1.19-2.09.51-.6 1.51-.06 2.99.26.71.78.16.63-.68 1.52-1.04.92-.37.47.52-.68 1.34-2.14 1.03a.48.48 0 0 0-.58.53c.15 1.17.26 2.37 1.06 3.33q1.58 1.86 1.11 5.14-.27 1.95 1.56 1.22c1.64-.65 3.61.08 4.34-2.16q.21-.66-.29-1.13-.52-.47-.6-1.15-.11-.9.45-.19 2.72 3.49.92 7.83-.13.32-.41.12l-.21-.14q-.42-.3-.27-.79l.45-1.44a.6.59-84 0 0-.62-.77l-3.59.33a1.25 1.25 0 0 0-.88 2q.96 1.26.92 2.76-.02.62.32 1.13.59.9-.33 1.43-.64.37-.39 1.07.99 2.79 1.84 5.91c.46 1.66-.5 2.78.04 4.47q.8 2.45 1.67 5.18.19.59.79.64.51.03.52-.48.01-.23.15-.42.47-.61.41.16-.08.93.46 1.51a.51.5 49.9 0 0 .67.06q.74-.57 1.65-.51a.34.34 0 0 1 .27.5c-.59 1.04-1.63 1.69-2.82 1.25q-.43-.16-.88-.1-.6.08-.74.66-1.06 4.44 1.09 9.02" vector-effect="non-scaling-stroke"/><path stroke="#180709" d="M161.38 154.15q-.47-2.34.14-5.46c.14-.73-.1-1.34-.5-1.91q-.3-.44.14-.72c2.08-1.35.14-4.22-1.02-5.57q-.38-.43.11-.73l2.91-1.82q.37-.23.48-.64 1.13-4.16.29-7.94-.1-.47.1-.88.29-.58 1.05-.58" vector-effect="non-scaling-stroke"/><path stroke="#011b28" d="M232.27 71.17q-.35 1.32.13 2.62.17.46.03.92-.4 1.37.24 2.71a.28.27-46.1 0 0 .5-.01q.69-1.57.47-3.13a1.16 1.16 0 0 1 .34-.99q.85-.85-.32-1.89" vector-effect="non-scaling-stroke"/><path stroke="#0b2203" d="M272.74 81q.58 1.16-.23 3.32-.18.47.14.85.2.24.34.54.45.92-.35.28-.45-.37-.76-.84-.37-.57-.62.06-.32.83-.34 1.77-.02 1.01-.96 1.09a.76.75-11.8 0 1-.78-.5q-.6-1.73.5-2.77.44-.43-.16-.55-.5-.09-.9.16-.69.44-.5 1.25.18.77-.43 1.05-1 .46-.61-.56.38-.97-.01-1.56-1.4-2.14-1.37.44.01.51-.01 1.02-.02.69-.66.42-.21-.1-.39-.29-.34-.39-.56.08-.13.27.07.49 1.51 1.66 3.55 1.69.66.01.49.63-.04.14 0 .28.1.42.51.28l2.74-.98a.73.73 0 0 1 .93.95q-.5 1.33-1.72.73-.42-.21-.45.26-.03.39.25.68.33.33.04.71-.21.28-.66.22a.6.6 0 0 1-.39-.22q-.31-.38-.79-.45a.48.48 0 0 0-.52.62l.73 2.31q.02.04-.02.05l-.29.14q-.35.17-.37-.22-.06-1.14-.79-2.05-.8-.98-1.91-.43-.39.2-.38.64.06 2.56 2.5 2.52.8-.01.63.77-.06.27-.2.51-.38.63-1.12.59-2.55-.17-2.78 2.56-.02.21-.22.31-.14.07-.27.02-.41-.17-.2-.55.43-.79-.06-1.56-.3-.48-.14-1.02.32-1.1 1.55-1.5a.57.55-18.4 0 0 .36-.7l-.14-.43q-.22-.69-.9-.46-2.01.69-3.92.2-.22-.06-.21-.29.03-.41.44-.42l.61-.03q.71-.02.58-.72-.09-.46-.36-.84-.84-1.17.59-.99l3.87.48q2.24.28.55-1.21-.99-.87-2.31-1.29a1.93 1.93 0 0 1-.51-3.42q.55-.39 1.01-.84.95-.94-.39-1.08-1.07-.1-2.33.39a1.28 1.25-88.5 0 0-.68.66q-.71 1.59.62 2.64a1.07 1.06 44.7 0 1 .01 1.67l-1.52 1.21a.55.54 57.6 0 1-.83-.19l-.15-.33a.94.93-29.4 0 1 .34-1.19q1.05-.66.05-2.15-.14-.2-.18-.46-.03-.24.09-.45.3-.49-.27-.51c-2-.08-3.54 1.78-2.61 3.74a2.62 2.43 30.7 0 1 .24.81l.26 2.41q.08.69.62 1.13 1.23.99 2.17 2.37.95 1.36-.67 1-3.07-.7-3.22-4.7-.02-.55-.27-1.05-1.02-2.02-.69-4.28a.44.43 9.7 0 0-.35-.49q-1.66-.32-2.98.53-.31.21-.51-.11-.3-.49-.85-.75a.38.38 0 0 0-.54.39l.23 2.01q.06.56.57.31.49-.25.74-.76.17-.37.28.03.03.12.05.25.08.54-.41.8-1.02.54-1.71 1.44a.88.88 0 0 1-1.07.26q-1.91-.88-3.37-2.33-.37-.36-.89-.28-.8.14-1.37.73-.45.47-.71-.13-.45-1.05-.39-2.18a.74.72-9.2 0 1 .48-.65q2.65-.97 3.53 1.18.17.42.5.72l1.87 1.74a.68.68 0 0 0 1.13-.38q.19-1.06-.91-1.32-2.72-.63-2.53-3.15.05-.55-.48-.4-3.32.92-8.33-.01c-1.26-.23-1.88-.95-2.92-1.57a1.43 1.42 55.8 0 0-.92-.18q-1.03.13-1.62-.73-.27-.39-.66-.13l-.24.16q-.13.08-.06.22.55 1.12 1.85 1.25.31.04.19.32l-.13.31q-.11.24-.34.14c-1.14-.51-2.38-.05-3.33-.77q-1.5-1.16-.77-3.31.24-.7.93-.45.79.29 1.36.95a.16.15-65 0 0 .27-.1l.02-3.72q0-.35-.27-.58-.36-.3-.82-.25a.77.77 0 0 0-.41 1.35q.36.32.43.79a.59.58 88.1 0 1-.63.68l-.81-.07q-.49-.05-.56-.53-.28-1.8-1.97-2.94-.11-.07-.24-.05-.16.03-.22.17-.13.28.08.51.58.65.89 1.52.17.5-.33.67-.38.12-.55.48a.35.34 7.3 0 0 .38.49q.14-.03.22-.13.38-.49.68.08l.17.32q.26.48.13 1.01-.49 1.95-.49 4.04 0 1.23.92 2.31c1.26 1.47 1.31 3.99.77 5.73a.81.81 0 0 0 .17.77q.38.44.97.39.55-.05.82.44l1.24 2.31q.3.55-.06 1.07-.17.24-.45.34a.65.65 0 0 1-.87-.6q-.01-3.61-2.84-3.5-.43.02-.52-.41-.32-1.6.33-2.89.25-.51.05-1.04l-2.27-5.84q-.11-.26-.02-.53.11-.37.52-.37.99-.01.22-.64-.25-.22-.58-.32-.52-.18-.24-.66.41-.69.2-1.45-.17-.6-.46-.05-.24.48-.24 1.05 0 .53-.35.92-.79.88.2 1.62.37.27.07.62-1.08 1.28.48 2.12.64.34.5 1.05-.06.31-.33.51a.4.4 0 0 1-.36.04q-.29-.11-.32-.28-.14-.68-.8-.48-.33.09-.65.18-.44.12-.3-.31.05-.16-.1-.31-.38-.38-.91-.26-1.71.4-2.8-.77-1.65-1.77-1.26.62c.32 1.95 2.08 2.75 1.79 4.9q-.2 1.45.1 2.75c.41 1.82.84 5.62 2.3 6.82q.38.31.05.67-.6.66-.73 1.38" vector-effect="non-scaling-stroke"/><path stroke="#030309" d="M220.57 101.22q-3.85-3.21-4.11-8.24-.45-8.98-1.79-15.18c-.56-2.56-.54-4.78-.46-7.25" vector-effect="non-scaling-stroke"/><path stroke="#0b2203" d="m274.13 81.09 1.68 4.92q.17.51.67.73l1.02.46q.47.2.75.62.46.69 1.32.86.51.09.95-.19l1.96-1.29q.41-.28.91-.32l4.29-.4M287.83 92.58l-2.6-1.86q-.43-.31-.91-.06-.51.26-.84.67a.52.52 0 0 0 .59.82q.52-.19.99 0 .43.18.39.64-.17 2.03.69 3.83.25.53.78.29.67-.3.47-.96" vector-effect="non-scaling-stroke"/><path stroke="#0b2203" d="M288.22 96.11q-.8.93-.19 2.38.17.41-.17.68-.14.12-.32.15-.58.11-.66-.47-.1-.69-.48-1.24-.37-.54-.58.09l-.92 2.83q-.16.48-.65.58l-2.62.5q-.38.07-.56.41-.36.65-1.17.55a.87.86-71 0 0-.85.42q-.38.66-.97 1.18-.39.35-.81.04-.29-.2-.41-.54-.05-.14-.16-.04-.14.13-.15.33a.44.44 0 0 0 .47.47q.45-.02.88.18a.87.86-54.6 0 0 .97-.17q1.03-1.02 2.38-1.65.54-.26 1.13-.17 1.32.22 2.48-.41a.47.47 0 0 1 .68.55q-.67 2.17.25 4.25a.33.33 0 0 0 .5.13l1.32-1.04q.35-.27.16-.68-.37-.81.17-1.58c.57-.82 1.78-.79 2.33-.03q.41.57-.05 1.1-.61.72-1.58.76-.9.04-.09.45 1.33.67 1.06 2.24-.09.55.47.6l.29.02q.31.03.34-.28c.1-1.02-.5-1.89.03-2.83q.68-1.21 1.97.4" vector-effect="non-scaling-stroke"/><path stroke="#133c04" d="M293.88 115.28q-1.01.64-1.81.8" vector-effect="non-scaling-stroke"/><path stroke="#0b2203" d="M292.07 116.08q-.34-.48-.73-.52-.5-.06-.7.41-.57 1.38-2.17 1.54-2.2.21-4.1.87" vector-effect="non-scaling-stroke"/><path stroke="#133c04" d="M284.37 118.38q-.06-.68-.95-.5-.43.1-.62.49l-.71 1.45q-.24.49-.78.55-1 .12-1.79-.7a.49.49 0 0 1 .35-.83h1.68a.61.61 0 0 0 .54-.33q.09-.19.09-.41-.02-.57-.52-.83l-1.31-.7a1.5 1.49 36.2 0 1-.37-2.36q.43-.45.59-1.04.28-1.07-.71-.59-1.69.82-2.73 2.37-.36.52.07.98l1.09 1.19q.21.23 0 .46l-.2.22a.64.63-53 0 1-.81.12q-1.43-.87-2.87-.84-.54.02-.54-.52v-2.65q0-.51-.47-.69l-2.09-.78q-1.3-.48-.65.74.43.83 1.22 1.08.62.2.74.84.22 1.19-.85 2.03a.27.27 0 0 1-.34 0l-.4-.32q-.22-.18-.01-.36l.76-.7q.42-.39-.03-.74-.23-.18-.52-.27t-.54.07q-.68.44-1.31.96-.42.35-.27.88.35 1.25-.13 2.44-.27.68-.4-.04-.36-1.87.06-3.72.11-.48-.35-.69-.67-.3-1.33.09a.85.84-26.4 0 0-.35 1.02l.91 2.41q.25.67-.33.27c-1.74-1.19-1.48-4.11-1.28-5.93q.04-.3-.19-.49-.13-.11-.29-.13-.64-.11-.72.54l-.66 5.35q-.06.48-.5.29l-1.2-.51q-.71-.31-.29-.96.53-.82 1.38-1.47.08-.06.08-.17 0-.14-.07-.25-.16-.25-.44-.16-2.68.91-2.15 3.67.09.46-.3.72l-3.01 2a.84.84 0 0 0-.32 1.02q.4 1.01-.13 1.75c-.87 1.21-1.06 3.01-1.17 4.48q-.03.36.15.66.11.16.27.27.54.37.04.78-.54.43-1.34.14a.92.91-71 0 1-.56-1.16l.64-1.86a.84.84 0 0 0-.73-1.1q-2.78-.2-5.38-1.69-.16-.09-.24-.27-.06-.16-.02-.33.17-.58.73-.36l3 1.16q.48.18.82-.2l.19-.22q.41-.46-.17-.68-1.04-.4-1.22-1.35-.12-.64.37-1.12.86-.86 1.05-1.97.07-.41.48-.25.01 0 1.53.57.52.2.32.72-.5 1.28-1.01 2.74-.02.06.04.08l.26.12q.48.22.69-.26 1.31-2.95 4.17-4.82a.32.32 0 0 0-.06-.56l-1.39-.55q-.68-.27-.2-.81l1.92-2.15q.26-.3-.03-.57l-.23-.21q-.37-.35-.69.05l-1.3 1.61" vector-effect="non-scaling-stroke"/><path stroke="#0a1d02" d="M245.34 106.85q-1.31.74-2.48.7-.99-.03-.17.52.63.43.52 1.23a1.04 1.04 0 0 0 .71 1.13q2.12.7 2.06-1.14M284.37 118.38q.41.82 1.66.85.48.01.49.49l.07 4.62v.03q-.2.68-.59.71-.81.07-.37.76.56.87 1.56.68.48-.08.6-.54.51-1.89 1.98-3.04.4-.32.54-.81.24-.83.76-1.52.18-.22-.02-.43l-.25-.25q-.31-.31-.53.08-.63 1.12-1.68 1.64-.57.28-.76-.32l-.47-1.48q-.21-.65.46-.73 3.12-.4 4.25-3.04M293.05 127.79q-2.13-.43-3.2-1.46-.73-.7-.46.27.06.2.24.31a.61.61 0 0 1-.15 1.11q-2.1.61-3.89 1.94-.32.25-.56-.09-.72-1.03-2.04-.47a1.28 1.28 0 0 0-.73 1.52q.29 1.03.15 2.17-.06.52.21.95.37.58 1.07.58.64.01.21-.47-.78-.87-.74-2.21.02-.98.98-1.12a.95.95 0 0 1 1.04.61q.24.67.95.59.53-.06.93-.41 1.23-1.08 2.53-2.1.44-.34.75.12.59.85.63 2.01.03.81-.74 1.06l-.96.32q-.59.2-.12.61c1.45 1.26.28 3.59-1.59 3.72q-.79.05-.37-.63.3-.48.84-.68.53-.2.32-.72-.4-.97-.9-1.77-.32-.52-.92-.34-.56.16-.39.72.14.51.07 1.02-.08.59-.63.84l-2.03.89a.89.89 0 0 0-.51.99q.27 1.41-.55 2.56-.54.75.37.61.67-.1 1.27-.41a.55.55 0 0 0 .16-.86q-.32-.35-.29-.82.05-.65.7-.73.97-.1 1.85-.56.59-.31.99.23l.24.34q.39.53-.05 1.02l-.24.25q-.3.32-.13.73.47 1.13-.49 1.72-.36.23-.77.09-1.31-.44-1.99.65-.31.51-.91.48-.76-.05-1.1-.71-.28-.55-.8-.22l-2.04 1.28q-.5.31.08.43l.4.09a.44.44 0 0 1 .23.72q-.45.5-1.13.88-.36.2-.68-.05-1.06-.82-.8-2.14.1-.47-.36-.6-.66-.18-1.19-.56-.16-.11-.2.09l-.05.31q-.04.2.16.28 1.8.74 1.22 2.44-.18.51.34.69 3.29 1.18 4.56-1.48a1.31 1.31 0 0 1 2.03-.44l2.69 2.26M285.09 152.21q-.68-.26-1.08-.08-.56.25-.17.73.18.22.15.51-.04.49-.48.71-.56.28-1.08.01-.44-.22-.49-.75-.1-1.15.41-2.02.28-.47.81-.36.88.19 1.7-.15.78-.33-.04-.55-1.5-.42-3.04-.37-.48.02-.52.49l-.2 2.59a.91.9 78.7 0 1-.48.73q-.46.24-1.05.03" vector-effect="non-scaling-stroke"/><path stroke="#0a1d02" d="M279.53 153.73q-.2-.98-1.44-1.27-.48-.12-.81-.48l-2.18-2.41a.78.78 0 0 0-1.12-.04q-2.9 2.74-.41 6.03a1.1 1.08 30.8 0 1 .21.8q-.08.68.42.99.56.35.64 1.01l.08.66q.07.53.54.78 1.13.58 2.01 1.47.11.11.28.14.15.02.3-.08.15-.09.06-.24l-.58-.91q-.27-.43-.73-.66-1.2-.61-1.76-1.83-.25-.55.32-.7 1.17-.33 2.29-.08.25.05.29-.2l.06-.31q.05-.27-.23-.27l-2.33.01a.49.49 0 0 1-.38-.81q1.81-2.19 4.47-1.6" vector-effect="non-scaling-stroke"/><path stroke="#0a1d02" d="M279.53 153.73q.18 1.18-.96 2.18-.2.17-.01.35.1.09.22.13a.5.49-70.4 0 0 .61-.29q.34-.85 1.12-1.13.51-.18.51.35.02 2.66-1.15 4.64-.21.36.21.41 1.31.15.91 1.39-.18.57.42.62.29.02.74-.04" vector-effect="non-scaling-stroke"/><path stroke="#133c04" d="m246.78 108.89-.8.4" vector-effect="non-scaling-stroke"/><path stroke="#0b2203" d="M245.98 109.29q-.84-.49-.64-2.44" vector-effect="non-scaling-stroke"/><path stroke="#133c04" d="m245.34 106.85.15-.42" vector-effect="non-scaling-stroke"/><path stroke="#0b2203" d="M278.44 81.92q-1.13.86-1.5.7-2.41-1.02-1.11 1.26.52.92 1.11 1.73.28.39.74.55.9.32 1.5.99.25.28.53.03.5-.44 1.19-.43.68.02 1.14-.48l.69-.77q.38-.42.95-.43 1.38-.02 2.26-.9M215.51 72.5q-.48 1.95-.3 3.85a.27.27 0 0 0 .29.25l.26-.02q.3-.02.29-.31-.08-3.71 1.19-7.54.24-.72-.51-.91-.49-.13-.73.32-.98 1.83-.51 3.5a1.76 1.72 44.3 0 1 .02.86" vector-effect="non-scaling-stroke"/><path stroke="#160702" d="m155.08 80.32-.48-.87q-.36-.67-.98-.23l-1.28.92q-2.21 1.59.51 1.45l1.5-.08q.71-.03.95.62.39 1.05 1.25 1.69.19.14.38.02.27-.18.13-.48-.38-.77-.03-1.54a.83.82 44.6 0 0-.01-.72q-.42-.83-1.28-.53-.44.16-.66-.25" vector-effect="non-scaling-stroke"/><path stroke="#0b2203" d="M234.46 84.85q.78 2.24 2.1 4.16a.5.49-22.3 0 0 .5.2l.46-.1q.62-.12.2-.59-1.16-1.3-1.49-2.96a.83.81 8 0 0-.43-.56l-.97-.48q-.57-.28-.37.33M275.073 87.753a.89.69 40.9 0 0-.221-1.105.89.69 40.9 0 0-1.125-.06.89.69 40.9 0 0 .221 1.104.89.69 40.9 0 0 1.125.06M276.57 88.99a.28.28 0 0 0-.14.45q.32.37.77.3a.27.27 0 0 0 .19-.4q-.3-.51-.82-.35M282.87 89.496a.86.54-1.6 0 0-.875-.516.86.54-1.6 0 0-.845.564.86.54-1.6 0 0 .875.516.86.54-1.6 0 0 .845-.564M242.32 95.54q.2-.72.82-1.14.12-.09.05-.21l-.12-.25q-.16-.29-.38-.05l-1.23 1.32a.57.57 0 0 0 .18.9l.88.39q.48.22.42.74-.02.24-.22.44-.22.23-.54.18-.13-.03-.26-.02-.54.04-.67.56-.46 1.8-.15 4.04a.73.72 53.4 0 0 1.38.21l.3-.65q.23-.51-.19-.89-.55-.49-.39-1.23c.18-.85 1.36-1.43 1.76-2.47q.24-.64.84-.3l.69.38q.44.25.91.08 1.59-.55 3.05.57.42.32.5.85.22 1.35.66 2.62.02.04.02 0l.17-2.14q.05-.61.61-.86l1.44-.66q.63-.28.22-.84l-.92-1.27a2.95 2.94 52.2 0 1 .49-3.97l1.8-1.52q.4-.34-.09-.53l-.29-.11q-.15-.06-.27.06l-2.56 2.49a2.29 2.28-50.3 0 1-2.85.27l-3.14-2.08q-.78-.51-.4.34.29.64.13 1.3-.1.45.35.45.46.01.66-.35a.65.64-42.6 0 1 1.15.04q.61 1.36 1.99 1.64.95.18 1.13 1.11.11.54.63.69l.53.16a.93.92 15.3 0 1 .64 1.11l-.09.37q-.17.67-.76.32-1.07-.64-2.24-.71-.73-.04-.55-.74.25-.98-.59-1.43-.66-.35-.67.4-.01.77-.77.87-1.62.2-3.6.15-.63-.02-.46-.63M276 96q.74 1.2.97 2.51.1.56-.46.68l-.59.12q-.25.05-.35.29-.06.16-.05.33.01.44.45.43 2.36-.01 4.6.4.55.1.39-.44-.27-.9-1.19-1.05c-1.45-.24-2.17-1.56-2.06-2.96q.05-.55.59-.5 1.67.13 3.38-.81.08-.04.06-.13l-.1-.31q-.07-.24-.31-.17L276 96M276 96q-2.41-1.46-1.79-4.26.17-.77.89-.42.62.3 1 .97.41.72.82.01.12-.2.32-.31.75-.4.88.44l.21 1.34a.45.45 0 0 0 .54.37l.3-.06a.39.39 0 0 0 .29-.47l-.23-.97q-.13-.56.44-.65.66-.11 1.34.21a.88.87-56.6 0 0 1.04-.22l.2-.23q.37-.43-.17-.64c-1.31-.51-3.1-.71-4.39-.02q-1.31.69-1.9-.79-.29-.7-1-.46c-1.95.66-1.86 3.1-1.02 4.59a.47.46 61.6 0 1-.19.65q-.3.16-.28.45.04.66.7.61l2-.14M235.06 93.68c-.9.39-1.85.22-2.43-.58q-.32-.44-.72-.08l-.24.21q-.36.33-.04.69l2.34 2.65a1.66 1.55-6.8 0 0 .59.43c.96.41 2.11.7 2.44 1.83q.42 1.45 2.03 1.24.61-.08.12-.45-.89-.68-.44-1.7.9-2.04-.75-4.65-.24-.39-.69-.29-1.13.24-2.21.7" vector-effect="non-scaling-stroke"/><path stroke="#0b2203" d="M278.72 107.77q.28.49.22 1.07-.05.53-.58.47-.15-.02-.3-.08a.56.56 0 0 0-.77.52q0 .28.09.54a.63.62-86.3 0 1-.87.77q-.91-.44-1.64-1.22-.2-.21-.06-.46.07-.12.18-.19.52-.34.21-.88-1.23-2.14-.49-4.4c.37-1.12.24-1.77-.65-2.44a.66.66 0 0 0-1.06.59q.02.2-.05.36-.2.49-.72.37-2.67-.57-2.05-3.3.14-.62.73-.37.67.28 1.21.79a.52.52 0 0 0 .74-.02l.88-.92q.6-.63-.27-.63l-1.82-.01q-1.59 0-.73-1.35.34-.53.81-.96.6-.55-.02-1.06l-.47-.38a.64.64 0 0 0-.98.2q-1.19 2.32-1.22 4.8 0 .62-.61.52l-1.36-.22q-.55-.09-.74.43-.57 1.55-1.96 2.79-.4.36.04.67.92.62 2.54.15.5-.15.49-.67-.02-.7-.46-1.21a.52.51 50.1 0 1 .06-.73c.68-.55 1.71-.36 2.14.42q.5.93 1.17 1.78.2.26.53.26l2.11-.04q.75-.01.5.7-.46 1.37.12 2.71.23.51.07 1.05l-.55 1.83q-.16.53.1 1.02l1.75 3.25q.37.7.5-.08.37-2.27 2.11-2.85.42-.14.21-.53-.3-.58.35-.79 1.1-.35 2.16-.6.63-.14.4-.74l-.67-1.8a1.15 1.15 0 0 0-1.18-.74q-.9.08-1.74.73-.11.09-.16.21-.07.17-.02.35.19.59.74.3l.36-.18q.43-.23.68.2M282.63 97.64c-1.01 0-1.61-.73-2.91-.49q-.17.04-.3.17-.14.14-.08.32.16.51.68.43l1.21-.17q.47-.07.81.26.97.93 2.38 1.23a.35.35 0 0 0 .42-.29q.23-1.49-.94-2.19-.67-.4-.82.36-.07.37-.45.37M255.36 99.33q.07-1.14-1.02-1.48-.52-.16-.43.37.23 1.33.86 2.31.32.48.88.38.79-.14 1.25-.8.32-.47.88-.62.93-.25 1.6-.87.42-.4.99-.26.73.19.96-.52a.64.64 0 0 0-.86-.79q-2.62 1.16-4.6 2.56-.56.4-.51-.28M246.08 101.15q.87-1 2.11-1.35.95-.27 0-.56-.76-.24-1.6-.18-.62.04-.96.57-.64.97-1.84 1.43-.9.35.01.68l1.44.53q.57.21.58-.4 0-.42.26-.72M235.12 99.67q-1.46-.37-2.11 1.22-.78 1.91.87.67.37-.27.82-.32.54-.06.96.28.68.57 1.52.39.74-.15.25-.72-1.02-1.19-2.31-1.52M255.73 102.08a.43.43 0 0 0-.57.12q-.19.27-.26.59-.13.56.44.61.83.06 1.39.73.35.42.9.38l2.42-.19a.36.36 0 0 0 .33-.35v-.36a.43.43 0 0 0-.46-.44q-2.16.14-4.19-1.09M283.32 105.26l.71-.13q.28-.06.15-.31l-.19-.37q-.29-.58-.66-.04l-.29.43q-.37.55.28.42" vector-effect="non-scaling-stroke"/><path stroke="#0b2203" d="M269.02 108.3q.55 1.02 1.98.69.53-.13.7-.66.26-.84-.08-1.72-.28-.7-.7-.08-.78 1.16-1.9 1.77M269.02 108.3q-.1-1.14-.62-2.04-.29-.51-.84-.34-.49.15-.74.58a1.24 1.23 21.8 0 0 .8 1.84q.47.11 1.4-.04M282.2 111.6q.56-.88.25-1.84-.11-.36.21-.55.31-.18.64-.05.4.17.57.58.11.25.16.51.16.79.72.21.53-.55 1.26-.47a.62.62 0 0 0 .66-.78l-.3-1.09q-.21-.76-.63-.09-.23.35-.6.27-.44-.1-.73-.45-.78-.92-2.06-1.3-.94-.28-.46.57.78 1.39-.4 2.16-.58.38-.23.98 1.4 2.4.34 4.8a.43.43 0 0 0 .19.55l.55.29q.22.12.29-.12l.51-1.7a.38.38 0 0 1 .75.1l.05 1.23a1.44 1.42-74 0 0 .63 1.15q1 .69 1.97-.19.47-.41 1.08-.31.23.04.41.18.7.52.5-.32-.13-.55-.45-1.03-.68-1 .53-.93.56.03 1.09.31a.83.83 0 0 0 .97-.15q.84-.84.42-2.16-.13-.42-.44-.09c-2.42 2.64-5.21.1-8.15.26a.34.34 0 0 1-.3-.53" vector-effect="non-scaling-stroke"/><path stroke="#0b2203" d="M288.6 109.84a.22.22 0 0 0-.3.14q-.28 1.11-1.26 1.31-.88.19-.01.41 1.04.27 1.82-.47 1.07-1.02 2.26-.26a.35.34 45.8 0 0 .34.01q.15-.08.23-.23.33-.58-.34-.51-1.48.16-2.74-.4M278.82 83.81q-1.09.33-.52 1.28a.47.46 57.8 0 0 .65.15q.57-.36.46-1.06a.47.46-12.6 0 0-.59-.37M289.097 100.91a1.24.77 19.8 0 0-.906-1.144 1.24.77 19.8 0 0-1.428.304 1.24.77 19.8 0 0 .906 1.145 1.24.77 19.8 0 0 1.428-.305" vector-effect="non-scaling-stroke"/><path stroke="#0a1d02" d="m277.24 135.11 4 3.1a.12.12 0 0 0 .17-.02l.04-.05a2.5 2.32 37.8 0 0-.56-3.37l-.23-.18a2.5 2.32 37.8 0 0-3.4.3l-.04.05a.12.12 0 0 0 .02.17" vector-effect="non-scaling-stroke"/><path stroke="#133c04" d="m253.41 139.45-.26.07q-.39.11-.31.51.51 2.53 3.6 3.8a.49.49 0 0 0 .66-.34l.53-2.24a.54.53 4.2 0 0-.57-.66q-.37.04-.6.31-.45.53-1.13.45-1.27-.13-1.32-1.47a.47.47 0 0 0-.6-.43" vector-effect="non-scaling-stroke"/><path stroke="#0a1d02" d="M272.98 143.98q.47.58 1.13.89.87.42.54-.49-.15-.43-.28-.76c-.63-1.58-3.6-1.11-4.72-.61q-.72.31-.03.68 1.12.59 2.38.05a.84.84 0 0 1 .98.24M261.8 143.74q1.5.64 2.26 2.64a.99.98 76.5 0 0 1.02.63l.36-.03q.73-.08.45-.76-.78-1.91-3.04-3.19-.32-.17-.63.01-.17.1-.36.13-.95.19-.06.57M269.08 148.22q-.88-.49-1.85-.64-.97-.16-.85.82.1.8.75 1.47.52.53.8-.15.31-.73 1.09-.94.71-.2.06-.56M265.76 155.22q-.49-.01-.94-.21a.46.46 0 0 0-.58.2l-.14.27q-.07.12.03.21.77.73 1.68.5.53-.13.86.3l.94 1.2q.46.58.57-.15.17-1.12-.65-1.85-1.08-.97 0-1.97a.49.48-56.4 0 0-.16-.81q-.68-.24-.7-1-.04-1-.95-.58l-1.26.58a1 .99 59.6 0 1-1.22-.32q-.34-.48-.92-.4-.77.1-.16.58 1.74 1.38 2.12 2.27.2.45.36-.01.12-.36.44-.64.88-.74.99.41l.09.98a.4.4 0 0 1-.4.44" vector-effect="non-scaling-stroke"/><path stroke="#0b2203" d="M274.39 151.83q-.36 1.03-.36 2.13a.57.56-9.1 0 0 .75.54q2.18-.77.92-2.57-.29-.41-.79-.45-.39-.02-.52.35" vector-effect="non-scaling-stroke"/></g><path fill="#0c0530" d="m211.98 66.8 2.23 3.75-8.43-.85a1.06 1.05 65.1 0 1-.46-.17l-.49-.33a.53.53 0 0 0-.74.73q1.8 2.79 3.58 5.58.53.84-.09 1.58a.24.23 44.3 0 1-.35 0q-.11-.12-.1-.31a.41.4-7.3 0 0-.52-.4q-.66.2-.67.83-.04 2.77.54 5.39.45 2.06-1.17.71-.54-.45-.81-1.06-.21-.46-.6-.15l-.24.19a.47.47 0 0 0-.1.61q2.04 3.28 1.48 6.93a.53.52 27.3 0 0 .15.45q.33.32.47.05.39-.72 1.01-.2 2.33 1.93 4.55 3.64.59.46.17 1.08-.64.96-.2 2.17.14.38-.26.37l-.55-.01q-.25-.01-.3-.26-.48-2.7-1.99-4.86-.28-.39-.75-.31-3 .52-6.02-.16-.52-.12-.6-.65l-.29-1.91q-.12-.77-.85-.52-.99.32-1.69.82-.64.46-.03.96 3.02 2.46 6.13 3.42 1.21.38 2.21-.25.4-.25.59.18.78 1.81 2.39 3.07 1.39 1.08-.37.96l-2.98-.2q-.59-.04-.69-.62-.07-.36-.38-.56a.75.75 0 0 0-1.15.6l-.24 4.29a1.26 1.23-66.4 0 0 .36.95q2.9 2.93 2.23 6.89-.2 1.23 1.04 1.34.44.04.64.42.44.79 1.14.22.95-.76 2.08-1.08.14-.04.22-.16.09-.14.06-.28-.11-.42-.55-.42l-2.3-.01q-.38 0-.42-.38l-.04-.36q-.05-.45.4-.51 2.84-.37 5.36-.39 2.51-.01.76-1.66-.1-.09-.99.48-.43.28-.89.06-.42-.21-.73-.55a.38.37-52.7 0 0-.61.09q-.07.15-.11.31-.17.79-.77.26l-5.46-4.81a.82.82 0 0 1 .52-1.43q1.79-.05 3.27-1.02 1.22-.81.76.58l-1.19 3.64a.5.48 21 0 0 .28.61l.34.14q.46.19.59-.29l.78-2.9q.15-.56.72-.45l.39.07a.48.47-82 0 1 .38.51l-.25 2.76q-.07.79.54.28 1.01-.85 2.1-.39.45.18.75-.2.11-.14.18-.32.34-.87.74-.02 1.11 2.33 3.74 4.91 1.14 1.12 1.31 2.99.05.56.6.69l.42.09q.55.13.6.69.38 4.48 1.72 8.86.84 2.76-1.37.91-1.35-1.13-2.87-2.08a.53.52-59.6 0 0-.74.2l-.18.35a.74.74 0 0 0 .35 1.03c1.62.72 4.21 2.17 3.44 4.32q-1.29 3.65-2.11 6.86-.06.21-.28.17h-.01q-.22-.04-.19-.26.36-2.81.78-5.41.27-1.7-.24-3.05-.46-1.23-1.65-2.2-1.21-.97-.71.5l.68 1.96q.28.82-.58.92l-.29.04a.88.87-7.8 0 1-.97-.73q-.3-1.79.78-3.47.12-.19.14-.41.02-.19-.12-.34-.32-.34.03-.65l1.39-1.22q1.14-1.01-.38-1.01-1.35 0-2.49.53-.55.26-.33-.31.71-1.86.09-3.55-.2-.56.23-.96l2.16-2.04q.57-.54-.21-.65l-1.99-.28q-.61-.09-.68.53l-.42 3.84q-.06.5-.55.56-.88.1-1.41-.67a1.7 1.7 0 0 0-.85-.64l-6.07-1.95q-.24-.07-.34.15l-.1.23a.23.22-62.2 0 0 .08.28l7.61 4.46q.6.35.68 1.04.65 5.17.13 9.85-.05.46-.52.49-1.46.09-2.84-.29a.58.57-81.4 0 0-.73.54l-.16 5.56a.39.39 0 0 1-.66.27l-1.39-1.32q-.45-.44-1.02-.15l-3.9 2.02a.9.9 0 0 0-.38.38q-.36.7-1.07.43a.5.5 0 0 0-.68.44q-.03.56-.52.77-.69.31-.53-.43l.46-2.18a.28.27-82.6 0 0-.25-.33l-.38-.03q-.28-.02-.37.24l-1.76 5.14a.37.37 0 0 1-.51.21l-.33-.15q-.4-.2-.16-.57l.42-.64q.97-1.49-.58-.63l-2.65 1.47q-1.22.68.08 1.19l2.13.84a.36.35 25.6 0 1 .18.51l-.21.33q-.27.45-.69.14l-1.3-.96q-.56-.41-.83.22l-.72 1.66q-.59 1.37-1.95.77-1.77-.79-3.53-2.01-.25-.18-.32-.47-.09-.38.04-.76.15-.47.65-.39 1.39.23 2.68.09.53-.06.12-.39l-1.02-.84q-.81-.67.21-.94l3.8-1q.11-.03.18-.12.09-.14.11-.3.05-.35-.3-.44l-2.44-.57a.79.79 0 0 1-.23-1.44q1.49-.93 2.31-2.63a.21.21 0 0 0-.14-.29l-.29-.06q-.22-.05-.29.16-.18.53-.5 1.02-1.34 2.01-1.94-.33-1.13-4.44-1.01-10.26.02-.63.62-.78.49-.13.96-.32 1.37-.57-.02-1.06l-4.18-1.48a.41.41 0 0 0-.53.49q.54 2.04-.11 4a1.29 1.29 0 0 1-1.79.74l-1.99-.99q-.23-.11-.39.08l-.2.25q-.34.41.12.68 1.41.8 2.08 2.28.6 1.34 1.37.09l1.24-2.03q.29-.48.68-.08.43.43.23 1.04-.53 1.64-1.38 3.06-.15.24.06.42.12.1.26.08.43-.05.61.35l2.51 5.61q1.44 3.23-1.64 1.5-2.64-1.48-5.42-2.25-1.73-.48-2.66-1.99-.3-.49-.86-.32l-.99.3a.98.97 54.7 0 0-.29 1.72q2.26 1.67 3.09 3.84.63 1.64.96-.08.17-.88.74-1.51.38-.42.9-.18l2.62 1.21q.5.23.52.78.2 4.15-.5 8.31-.07.41-.43.22l-.26-.14q-.19-.1-.14-.3.34-1.32.21-2.65-.08-.81-.65-.22l-1.45 1.48q-.18.19-.37 0l-.2-.19q-.07-.07-.01-.15l2.99-4.12q.57-.79-.39-.94-.72-.11-1.44-.14-1.03-.05-1.48.87-.45.93-.96 1.77-1.39 2.3-2.02-.31-.07-.3.14-1.03a.53.52 11.5 0 0-.45-.67q-.76-.1-1.42.21a.5.5 0 0 1-.71-.43l-.07-1.67q-.01-.37-.38-.37-.24 0-.33.21-1.28 2.9-3.14 5.82a.28.28 0 0 1-.48-.02q-.62-1.12-1.73-1.91a.66.65-50.8 0 0-.85.09q-.78.83-1.39 1.84-.16.27-.47.18-.42-.12-.33-.56.44-2.03 1.93-3.07.33-.23.22-.61-.79-2.8.66-5.59a.8.79 14.5 0 1 .74-.43q1.03.05 1.73.82.27.3.67.22.14-.03.25-.1.34-.21.06-.48l-1.92-1.86q-.44-.42.11-.7l2.19-1.09q.14-.07.21-.21t.03-.27q-.11-.37-.49-.31l-2.08.34q-.57.1-.65-.47l-.19-1.36q-.05-.36.32-.4l6.48-.61q.31-.03.41.27l.08.26q.17.5-.35.55l-2.26.25a.85.85 0 0 0-.76.83l-.03 5.37q-.01.75-.75.87-2.32.38-3.38 2.3-.39.72.37.41 3.51-1.42 7.57-.58.3.07.55-.12.11-.07.13-.21.09-.54-.34-.88-2.33-1.9-2.79-4.77a.57.57 0 0 1 .55-.66l3.85-.1a.47.47 0 0 0 .32-.8l-.85-.87a1.3 1.29 54.8 0 1 .35-2.06l1.97-.97a.66.66 0 0 0 .08-1.14q-1.21-.81-2-1.93-.44-.63.33-.56l3.71.37q1.28.13.37-.77-1.11-1.1-1.57-2.4-.51-1.45-2.04-1.41-2.46.05-4.62-.98-.34-.17-.7-.1-.67.12-.93.8a.33.33 0 0 1-.54.12q-.19-.18-.16-.44.04-.38.35-.62 1.88-1.4 3.98-.06a.25.25 0 0 0 .35-.08l.17-.27q.13-.21-.08-.36-.87-.61-1.41-1.45-.41-.64.34-.58.72.07 1.38.34 1.4.57 1.49-.93.12-1.89.79-3.51.44-1.07-.7-1.28-3.43-.64-7.05-.41a.44.44 0 0 0-.41.45l.03.74a.47.47 0 0 0 .47.45l3.85-.02q.55 0 .52.56-.08 1.41-.67 2.42-.3.51-.74.11l-.99-.91q-.44-.4-.59.18c-.85 3.29-2.5 5.7-2.99 9.23q-.03.25.14.43.35.37.53-.1.46-1.22.11-2.37a.29.29 0 0 1 .38-.36q2.66 1.05 5.23.58a.34.34 0 0 1 .4.35q-.12 2.32.15 4.61.04.35-.32.42l-8.06 1.56q-1.2.23-.2-.47 3.14-2.23 7.16-1.57.45.08.58-.36l.09-.32a.27.26 17.4 0 0-.18-.33q-1.41-.41-1.35-1.7.04-.85-.74-.51l-3.24 1.43a.93.92-28.9 0 1-1.13-.32l-1.3-1.9q-.15-.2-.37-.1l-.25.11q-.3.13-.16.42l1.02 2.02q.57 1.13-.7 1.03l-1.86-.16q-.92-.08-.62.79 1.16 3.35 1.63 7.07.06.49-.19.92-.94 1.59-1.18 3.5-.09.69-.75.48l-.7-.21q-.87-.26-.9-1.17l-.27-7.38q3.01 2.34 1.46-3.62-.86-3.31.54-7.49c.71-2.12.33-4 .67-6.13q.08-.46.54-.52l2.24-.31q.5-.06.15-.42-.33-.34-.82-.36a1.32 1.31 87.2 0 1-1.27-1.16c-.59-4.63 1.03-8.64 2.78-12.9 1.07-2.61.52-5.31.49-8.01a.33.33 0 0 1 .55-.25c.64.55 1.31.78 2.14.66q2.93-.4 5.33 1.14.55.36.72-.28.33-1.31.86-1.78.43 2.32 4.39 2.25c1.31-.02 2.2.3 3.32.86q.56.28 1.05-.1l2.13-1.66q.61-.47.72-1.23.15-1.06.93-1.61.37-.27 0-.52l-1.47-1.01a.68.68 0 0 0-1.06.57q.03 2-1.4 3.5-1 1.06-.86-.39.23-2.29 1.35-4.09a.81.79-72.4 0 1 .71-.38q1.97.05 2.23-2.36.05-.52-.36-.82-.76-.57-1.65-.64-.75-.06-.16.41 1.35 1.08-.1 2.13-.32.23-.67.33-1.16.31-.47-.67.84-1.21.77-2.51c-.1-1.72.61-2.69-.44-4.41q-.39-.63-.81-.02c-.91 1.31-.34 2.26.37 3.46a.83.82 58.9 0 1-.27 1.11l-.3.19q-.49.31-.72-.22l-1.52-3.37q-.32-.69-.99-.34-.48.25-.68.77-.19.47-.68.37l-3.35-.64q-.37-.07-.32.3l.07.54q.03.24.27.27 1.2.18 1.98.97.61.62-.25.48l-2.3-.38q-.58-.09-.78-.64-.53-1.46-.63-2.95-.15-2.15-1.79-3.27-.45-.32-.19-.8.45-.85 1.37-.79.91.07 1.91.34 1.81.48.73-1.05l-.57-.8q3.36.68 5.69 2.45a2.61 2.6 50.6 0 0 2.7.27c3.5-1.68 7.39-3.71 11.36-4.06 3.21-.27 7.41.74 11.26.49"/><path fill="#010301" d="M232.27 71.17q-.35 1.32.13 2.62.17.46.03.92-.4 1.37.24 2.71a.28.27-46.1 0 0 .5-.01q.69-1.57.47-3.13a1.16 1.16 0 0 1 .34-.99q.85-.85-.32-1.89l3.52-.86q.49-.12.97.03l2.18.72q.53.18 1.04-.04 2.74-1.15 5.92-1.31.59-.03 1.05.34l13.7 10.99a2.67 2.66-28.4 0 0 1.91.57l8.79-.84q.58 1.16-.23 3.32-.18.47.14.85.2.24.34.54.45.92-.35.28-.45-.37-.76-.84-.37-.57-.62.06-.32.83-.34 1.77-.02 1.01-.96 1.09a.76.75-11.8 0 1-.78-.5q-.6-1.73.5-2.77.44-.43-.16-.55-.5-.09-.9.16-.69.44-.5 1.25.18.77-.43 1.05-1 .46-.61-.56.38-.97-.01-1.56-1.4-2.14-1.37.44.01.51-.01 1.02-.02.69-.66.42-.21-.1-.39-.29-.34-.39-.56.08-.13.27.07.49 1.51 1.66 3.55 1.69.66.01.49.63-.04.14 0 .28.1.42.51.28l2.74-.98a.73.73 0 0 1 .93.95q-.5 1.33-1.72.73-.42-.21-.45.26-.03.39.25.68.33.33.04.71-.21.28-.66.22a.6.6 0 0 1-.39-.22q-.31-.38-.79-.45a.48.48 0 0 0-.52.62l.73 2.31q.02.04-.02.05l-.29.14q-.35.17-.37-.22-.06-1.14-.79-2.05-.8-.98-1.91-.43-.39.2-.38.64.06 2.56 2.5 2.52.8-.01.63.77-.06.27-.2.51-.38.63-1.12.59-2.55-.17-2.78 2.56-.02.21-.22.31-.14.07-.27.02-.41-.17-.2-.55.43-.79-.06-1.56-.3-.48-.14-1.02.32-1.1 1.55-1.5a.57.55-18.4 0 0 .36-.7l-.14-.43q-.22-.69-.9-.46-2.01.69-3.92.2-.22-.06-.21-.29.03-.41.44-.42l.61-.03q.71-.02.58-.72-.09-.46-.36-.84-.84-1.17.59-.99l3.87.48q2.24.28.55-1.21-.99-.87-2.31-1.29a1.93 1.93 0 0 1-.51-3.42q.55-.39 1.01-.84.95-.94-.39-1.08-1.07-.1-2.33.39a1.28 1.25-88.5 0 0-.68.66q-.71 1.59.62 2.64a1.07 1.06 44.7 0 1 .01 1.67l-1.52 1.21a.55.54 57.6 0 1-.83-.19l-.15-.33a.94.93-29.4 0 1 .34-1.19q1.05-.66.05-2.15-.14-.2-.18-.46-.03-.24.09-.45.3-.49-.27-.51c-2-.08-3.54 1.78-2.61 3.74a2.62 2.43 30.7 0 1 .24.81l.26 2.41q.08.69.62 1.13 1.23.99 2.17 2.37.95 1.36-.67 1-3.07-.7-3.22-4.7-.02-.55-.27-1.05-1.02-2.02-.69-4.28a.44.43 9.7 0 0-.35-.49q-1.66-.32-2.98.53-.31.21-.51-.11-.3-.49-.85-.75a.38.38 0 0 0-.54.39l.23 2.01q.06.56.57.31.49-.25.74-.76.17-.37.28.03.03.12.05.25.08.54-.41.8-1.02.54-1.71 1.44a.88.88 0 0 1-1.07.26q-1.91-.88-3.37-2.33-.37-.36-.89-.28-.8.14-1.37.73-.45.47-.71-.13-.45-1.05-.39-2.18a.74.72-9.2 0 1 .48-.65q2.65-.97 3.53 1.18.17.42.5.72l1.87 1.74a.68.68 0 0 0 1.13-.38q.19-1.06-.91-1.32-2.72-.63-2.53-3.15.05-.55-.48-.4-3.32.92-8.33-.01c-1.26-.23-1.88-.95-2.92-1.57a1.43 1.42 55.8 0 0-.92-.18q-1.03.13-1.62-.73-.27-.39-.66-.13l-.24.16q-.13.08-.06.22.55 1.12 1.85 1.25.31.04.19.32l-.13.31q-.11.24-.34.14c-1.14-.51-2.38-.05-3.33-.77q-1.5-1.16-.77-3.31.24-.7.93-.45.79.29 1.36.95a.16.15-65 0 0 .27-.1l.02-3.72q0-.35-.27-.58-.36-.3-.82-.25a.77.77 0 0 0-.41 1.35q.36.32.43.79a.59.58 88.1 0 1-.63.68l-.81-.07q-.49-.05-.56-.53-.28-1.8-1.97-2.94-.11-.07-.24-.05-.16.03-.22.17-.13.28.08.51.58.65.89 1.52.17.5-.33.67-.38.12-.55.48a.35.34 7.3 0 0 .38.49q.14-.03.22-.13.38-.49.68.08l.17.32q.26.48.13 1.01-.49 1.95-.49 4.04 0 1.23.92 2.31c1.26 1.47 1.31 3.99.77 5.73a.81.81 0 0 0 .17.77q.38.44.97.39.55-.05.82.44l1.24 2.31q.3.55-.06 1.07-.17.24-.45.34a.65.65 0 0 1-.87-.6q-.01-3.61-2.84-3.5-.43.02-.52-.41-.32-1.6.33-2.89.25-.51.05-1.04l-2.27-5.84q-.11-.26-.02-.53.11-.37.52-.37.99-.01.22-.64-.25-.22-.58-.32-.52-.18-.24-.66.41-.69.2-1.45-.17-.6-.46-.05-.24.48-.24 1.05 0 .53-.35.92-.79.88.2 1.62.37.27.07.62-1.08 1.28.48 2.12.64.34.5 1.05-.06.31-.33.51a.4.4 0 0 1-.36.04q-.29-.11-.32-.28-.14-.68-.8-.48-.33.09-.65.18-.44.12-.3-.31.05-.16-.1-.31-.38-.38-.91-.26-1.71.4-2.8-.77-1.65-1.77-1.26.62c.32 1.95 2.08 2.75 1.79 4.9q-.2 1.45.1 2.75c.41 1.82.84 5.62 2.3 6.82q.38.31.05.67-.6.66-.73 1.38-3.85-3.21-4.11-8.24-.45-8.98-1.79-15.18c-.56-2.56-.54-4.78-.46-7.25l-2.23-3.75q2.47-1.06 3.69-.5 3.6 1.68 7.5 2.17 2.93.37 4.62.99 2.28.83 4.48 1.71m-16.76 1.33q-.48 1.95-.3 3.85a.27.27 0 0 0 .29.25l.26-.02q.3-.02.29-.31-.08-3.71 1.19-7.54.24-.72-.51-.91-.49-.13-.73.32-.98 1.83-.51 3.5a1.76 1.72 44.3 0 1 .02.86"/><path fill="#040210" d="m180.97 67.65.57.8q1.08 1.53-.73 1.05-1-.27-1.91-.34-.92-.06-1.37.79-.26.48.19.8 1.64 1.12 1.79 3.27.1 1.49.63 2.95.2.55.78.64l2.3.38q.86.14.25-.48-.78-.79-1.98-.97-.24-.03-.27-.27l-.07-.54q-.05-.37.32-.3l3.35.64q.49.1.68-.37.2-.52.68-.77.67-.35.99.34l1.52 3.37q.23.53.72.22l.3-.19a.83.82 58.9 0 0 .27-1.11c-.71-1.2-1.28-2.15-.37-3.46q.42-.61.81.02c1.05 1.72.34 2.69.44 4.41q.07 1.3-.77 2.51-.69.98.47.67.35-.1.67-.33 1.45-1.05.1-2.13-.59-.47.16-.41.89.07 1.65.64.41.3.36.82-.26 2.41-2.23 2.36a.81.79-72.4 0 0-.71.38q-1.12 1.8-1.35 4.09-.14 1.45.86.39 1.43-1.5 1.4-3.5a.68.68 0 0 1 1.06-.57l1.47 1.01q.37.25 0 .52-.78.55-.93 1.61-.11.76-.72 1.23l-2.13 1.66q-.49.38-1.05.1c-1.12-.56-2.01-.88-3.32-.86q-3.96.07-4.39-2.25.63-.88 1.77-1.17.24-.06.14-.29l-.11-.28q-.07-.16-.23-.13-1.59.31-2.95 1.33a.57.55 44.4 0 1-.67 0l-.95-.71a.76.76 0 0 0-1 .07l-.28.28q-.4.4-.91.18-.17-.07-.25-.22-.35-.7-.79-.05-.57.85-1.59.67-.62-.1-.34-.66.1-.2.28-.32.56-.34.07-.77-.93-.8-.82-1.99.08-.81.78-.39.71.42 1 1.27.75 2.26 1.06-.1.13-.99.62-1.86.21-.39 0-.77-.1-.19-.13-.4-.18-1.03-.7-.12-.51.88-1.67 1.11-.46.1-.6-.36l-1.3-4.54q3.07-5.36 4-6.61 1.67-2.27 5.08-1.99"/><path fill="#144104" d="M215.49 71.64q-.47-1.67.51-3.5.24-.45.73-.32.75.19.51.91-1.27 3.83-1.19 7.54.01.29-.29.31l-.26.02a.27.27 0 0 1-.29-.25q-.18-1.9.3-3.85a1.76 1.72 44.3 0 0-.02-.86"/><path fill="#040210" d="M214.21 70.55c-.08 2.47-.1 4.69.46 7.25q1.34 6.2 1.79 15.18.26 5.03 4.11 8.24 1.15.49 1.87 1.11.6.53-.2.54l-.59.01q-.61 0-.48.59l1.17 5.21q.15.66.6.15.18-.2.19-.44.05-.88.78-.38 1.11.76 2.33.48.5-.11.8.3c.75 1.04 1.45 2.05 1.75 3.32q.42 1.73 1.53 3.5.29.47.53-.03.44-.91.5-1.84.03-.52-.39-.83-.48-.35-.74-.9-.3-.63.31-.28.62.36 1.08.89.47.54.8-.08.14-.25.14-.53a1.04 1.04 0 0 1 1.16-1.02q.88.11 1.42-.48.57-.63-.29-.56-.54.04-1.05.27-.79.36-.59-.48.1-.38.42-.6.53-.37.44-1.01-.19-1.38-.07-2.62.24-2.4-1.67-.93-.7.53-1.37 1.19-.21.21-.49.17-.2-.02-.31-.19-.19-.29.12-.47.2-.11.3-.31.62-1.22-.74-1.03c-2.03.27-2.62-2-3-3.74a.49.49 0 0 0-.65-.35l-.24.09q-.62.23-.56.88.1 1.31.8 2.44.3.48.08.99-.15.34-.41.59-.4.37.03.71l1.37 1.09q.23.18.03.4l-.64.69q-.19.21-.4.01l-1.52-1.48a.59.56 22 0 1-.17-.38l-.22-3.03q-.03-.45-.25-.85l-2.43-4.62q-.3-.58.21-.98 1.2-.97.82-2.61a.45.44-15 0 1 .31-.53l.29-.08q.5-.13.67.36.48 1.41 2.31 2.41.24.13.5.04.33-.12.27-.62a.59.58-78 0 0-.29-.45q-.5-.29-.74-.78-.36-.69.42-.59.88.11 1.48.76.44.49-.2.64-.29.07-.29.36-.01.46.41.66.65.31.88 1.01.09.28-.04.54-.13.28-.41.36a.73.72 67.3 0 1-.82-.34q-.34-.6-.99-.77-.53-.14-.79.34-.28.53-.83.53-.6 0-.24-.48l.21-.28q.18-.25-.06-.44-.1-.09-.24-.12-.5-.09-.72.37-.47 1.03.1 2.07.24.42.72.41.77-.01 1.4-.42.46-.31.92.02 1.64 1.17 4.01 1.28.34.02.47-.29l.11-.25a.52.51 18.1 0 0-.36-.7q-.4-.09-.6-.46-.3-.52.27-.71l1.94-.64q.42-.14.78.13l.23.18q.35.26-.04.45-1.85.92-1.97 2.74-.04.56-.6.61-.29.02-.53-.12-.47-.28-.78.18-.53.8.13 1.48 1.31 1.35 2.29-.18.34-.54.84-.14 1.39 1.12 3.3.75.49-.09.58.39.07.34-.24.52-.54.32-1.14.31a.66.66 0 0 0-.68.7l.08 1.32q.05.71.75.78 1.52.15 3.14.1.5-.02.91-.3.51-.34.48-.97-.07-1.62-1.23-.49-.32.31-.69.48-.83.39-.42-.42.4-.79.35-1.64-.04-.63.59-.72 1.03-.15 1.75.55.36.35.86.39 2.96.26 6.02-.72 2.04-.65 3.85-.3a.62.61-80.6 0 1 .49.69c-.18 1.21.59 2.07.37 3.42q-.14.91-.45 1.83-.2.61-.76.29-.25-.14-.32-.43a1.08 1.08 0 0 1 .22-.95q.19-.22.13-.55-.13-.69-.72-.31-1.95 1.27-2.67 3.87a.37.36 89.6 0 0 .45.45l2.04-.62q.51-.15.71.35.29.73.15 1.43-.11.53-.55.21-1.11-.81-2.17.19a.39.38-49.2 0 0 .04.6q1.64 1.15 2.98.17a.53.52 51.2 0 1 .71.08q.48.54 1.16.8.52.21 1.06.02 1.92-.67 3.8-.01l-3.26 1.59q-.54.27-1.01-.12-2.28-1.89-5.54-.28-.38.19-.47.6l-.07.36q-.1.55-.63.35-2.17-.83-3.22-2.58a.28.27 59.6 0 0-.37-.1l-.28.15a.63.63 0 0 0-.26.81l.75 1.64q.14.31-.2.37l-.29.04q-.66.09-.53-.57.15-.8-.4-1.47a.83.81-36.1 0 0-1.08-.16l-1.11.72q-.68.44-.04.92l1.68 1.26a.58.58 0 0 1 .01.92l-.64.51q-.43.35-.81-.04l-.77-.77q-.33-.33-.78-.27l-2.65.36q-.58.08-.9.56-.89 1.33-.4 2.81a.57.57 0 0 0 .92.24q1.14-1.06 3.18-1.04.69 0 .13.41-1.13.82-2.4 1.18a.9.89 78.4 0 0-.64.98q.26 1.93 1.09 3.62a1.22 1.22 0 0 0 1.7.52q.74-.42 1.55-.12.34.12.34.48v.46q0 .54-.53.47l-5.04-.66q-.58-.08-.43-.64.26-.9.76-1.63.15-.22.17-.5.02-.55-.41-.82a.79.77 9 0 1-.33-.44l-.97-3.49q-.19-.71.37-1.19 1.01-.87.6-2.1-.18-.55.39-.48l3.3.39q.57.06.64-.5.12-.99-.34-1.87-.25-.47-.14-1 .36-1.68 1.65-2.36.44-.23.77.14.14.17.03.35-.11.19-.3.31-.49.3-.16.76.3.44.83.43.49-.02.66-.48.3-.84 1.23-.9 1.15-.07 2.27-.28.57-.11.87-.6.77-1.27.26-2.95 1.06-2.58 3.63-2.86a.81.8-4.5 0 0 .73-.84q-.05-.86-1.21-1.3a2.17 2.15-62.6 0 0-2.56.82l-.84 1.25q-.28.41-.76.45l-.28.02-2.42-1.62q-.5-.32-.78.2l-1.59 2.9q-.28.51.13.92l.92.92q.38.38-.1.61-.15.08-.31.09-.47.03-.59-.43l-.3-1.23q-.14-.54-.68-.68l-2.34-.6q-.44-.11-.62.3-.3.68-.07 1.45.2.71.94.59.75-.13 1.31.29.54.41-.03.78-2.64 1.72-5.23 2.05-.71.1-.62.8l.29 2.29q.06.48-.37.69-.71.34-1.47-.16-.6-.39-1.03.18-.54.7.12 1.38.57.59-.26.52-.16-.01-.32.01-.44.07-.45-.37-.08-4.82-3.78-7.94-1.4-1.19-2.09.51-.6 1.51-.06 2.99.26.71.78.16.63-.68 1.52-1.04.92-.37.47.52-.68 1.34-2.14 1.03a.48.48 0 0 0-.58.53c.15 1.17.26 2.37 1.06 3.33q1.58 1.86 1.11 5.14-.27 1.95 1.56 1.22c1.64-.65 3.61.08 4.34-2.16q.21-.66-.29-1.13-.52-.47-.6-1.15-.11-.9.45-.19 2.72 3.49.92 7.83-.13.32-.41.12l-.21-.14q-.42-.3-.27-.79l.45-1.44a.6.59-84 0 0-.62-.77l-3.59.33a1.25 1.25 0 0 0-.88 2q.96 1.26.92 2.76-.02.62.32 1.13.59.9-.33 1.43-.64.37-.39 1.07.99 2.79 1.84 5.91c.46 1.66-.5 2.78.04 4.47q.8 2.45 1.67 5.18.19.59.79.64.51.03.52-.48.01-.23.15-.42.47-.61.41.16-.08.93.46 1.51a.51.5 49.9 0 0 .67.06q.74-.57 1.65-.51a.34.34 0 0 1 .27.5c-.59 1.04-1.63 1.69-2.82 1.25q-.43-.16-.88-.1-.6.08-.74.66-1.06 4.44 1.09 9.02-9.08-3.27-18.75-1.59c-7.7 1.33-16.43 2.73-24.23 1.92q-14.46-1.51-28.04-7.69-.47-2.34.14-5.46c.14-.73-.1-1.34-.5-1.91q-.3-.44.14-.72c2.08-1.35.14-4.22-1.02-5.57q-.38-.43.11-.73l2.91-1.82q.37-.23.48-.64 1.13-4.16.29-7.94-.1-.47.1-.88.29-.58 1.05-.58l.27 7.38q.03.91.9 1.17l.7.21q.66.21.75-.48.24-1.91 1.18-3.5.25-.43.19-.92-.47-3.72-1.63-7.07-.3-.87.62-.79l1.86.16q1.27.1.7-1.03l-1.02-2.02q-.14-.29.16-.42l.25-.11q.22-.1.37.1l1.3 1.9a.93.92-28.9 0 0 1.13.32l3.24-1.43q.78-.34.74.51-.06 1.29 1.35 1.7a.27.26 17.4 0 1 .18.33l-.09.32q-.13.44-.58.36-4.02-.66-7.16 1.57-1 .7.2.47l8.06-1.56q.36-.07.32-.42-.27-2.29-.15-4.61a.34.34 0 0 0-.4-.35q-2.57.47-5.23-.58a.29.29 0 0 0-.38.36q.35 1.15-.11 2.37-.18.47-.53.1-.17-.18-.14-.43c.49-3.53 2.14-5.94 2.99-9.23q.15-.58.59-.18l.99.91q.44.4.74-.11.59-1.01.67-2.42.03-.56-.52-.56l-3.85.02a.47.47 0 0 1-.47-.45l-.03-.74a.44.44 0 0 1 .41-.45q3.62-.23 7.05.41 1.14.21.7 1.28-.67 1.62-.79 3.51-.09 1.5-1.49.93-.66-.27-1.38-.34-.75-.06-.34.58.54.84 1.41 1.45.21.15.08.36l-.17.27a.25.25 0 0 1-.35.08q-2.1-1.34-3.98.06-.31.24-.35.62-.03.26.16.44a.33.33 0 0 0 .54-.12q.26-.68.93-.8.36-.07.7.1 2.16 1.03 4.62.98 1.53-.04 2.04 1.41.46 1.3 1.57 2.4.91.9-.37.77l-3.71-.37q-.77-.07-.33.56.79 1.12 2 1.93a.66.66 0 0 1-.08 1.14l-1.97.97a1.3 1.29 54.8 0 0-.35 2.06l.85.87a.47.47 0 0 1-.32.8l-3.85.1a.57.57 0 0 0-.55.66q.46 2.87 2.79 4.77.43.34.34.88-.02.14-.13.21-.25.19-.55.12-4.06-.84-7.57.58-.76.31-.37-.41 1.06-1.92 3.38-2.3.74-.12.75-.87l.03-5.37a.85.85 0 0 1 .76-.83l2.26-.25q.52-.05.35-.55l-.08-.26q-.1-.3-.41-.27l-6.48.61q-.37.04-.32.4l.19 1.36q.08.57.65.47l2.08-.34q.38-.06.49.31.04.13-.03.27t-.21.21l-2.19 1.09q-.55.28-.11.7l1.92 1.86q.28.27-.06.48-.11.07-.25.1-.4.08-.67-.22-.7-.77-1.73-.82a.8.79 14.5 0 0-.74.43q-1.45 2.79-.66 5.59.11.38-.22.61-1.49 1.04-1.93 3.07-.09.44.33.56.31.09.47-.18.61-1.01 1.39-1.84a.66.65-50.8 0 1 .85-.09q1.11.79 1.73 1.91a.28.28 0 0 0 .48.02q1.86-2.92 3.14-5.82.09-.21.33-.21.37 0 .38.37l.07 1.67a.5.5 0 0 0 .71.43q.66-.31 1.42-.21a.53.52 11.5 0 1 .45.67q-.21.73-.14 1.03.63 2.61 2.02.31.51-.84.96-1.77.45-.92 1.48-.87.72.03 1.44.14.96.15.39.94l-2.99 4.12q-.06.08.01.15l.2.19q.19.19.37 0l1.45-1.48q.57-.59.65.22.13 1.33-.21 2.65-.05.2.14.3l.26.14q.36.19.43-.22.7-4.16.5-8.31-.02-.55-.52-.78l-2.62-1.21q-.52-.24-.9.18-.57.63-.74 1.51-.33 1.72-.96.08-.83-2.17-3.09-3.84a.98.97 54.7 0 1 .29-1.72l.99-.3q.56-.17.86.32.93 1.51 2.66 1.99 2.78.77 5.42 2.25 3.08 1.73 1.64-1.5l-2.51-5.61q-.18-.4-.61-.35-.14.02-.26-.08-.21-.18-.06-.42.85-1.42 1.38-3.06.2-.61-.23-1.04-.39-.4-.68.08l-1.24 2.03q-.77 1.25-1.37-.09-.67-1.48-2.08-2.28-.46-.27-.12-.68l.2-.25q.16-.19.39-.08l1.99.99a1.29 1.29 0 0 0 1.79-.74q.65-1.96.11-4a.41.41 0 0 1 .53-.49l4.18 1.48q1.39.49.02 1.06-.47.19-.96.32-.6.15-.62.78-.12 5.82 1.01 10.26.6 2.34 1.94.33.32-.49.5-1.02.07-.21.29-.16l.29.06a.21.21 0 0 1 .14.29q-.82 1.7-2.31 2.63a.79.79 0 0 0 .23 1.44l2.44.57q.35.09.3.44-.02.16-.11.3-.07.09-.18.12l-3.8 1q-1.02.27-.21.94l1.02.84q.41.33-.12.39-1.29.14-2.68-.09-.5-.08-.65.39-.13.38-.04.76.07.29.32.47 1.76 1.22 3.53 2.01 1.36.6 1.95-.77l.72-1.66q.27-.63.83-.22l1.3.96q.42.31.69-.14l.21-.33a.36.35 25.6 0 0-.18-.51l-2.13-.84q-1.3-.51-.08-1.19l2.65-1.47q1.55-.86.58.63l-.42.64q-.24.37.16.57l.33.15a.37.37 0 0 0 .51-.21l1.76-5.14q.09-.26.37-.24l.38.03a.28.27-82.6 0 1 .25.33l-.46 2.18q-.16.74.53.43.49-.21.52-.77a.5.5 0 0 1 .68-.44q.71.27 1.07-.43a.9.9 0 0 1 .38-.38l3.9-2.02q.57-.29 1.02.15l1.39 1.32a.39.39 0 0 0 .66-.27l.16-5.56a.58.57-81.4 0 1 .73-.54q1.38.38 2.84.29.47-.03.52-.49.52-4.68-.13-9.85-.08-.69-.68-1.04l-7.61-4.46a.23.22-62.2 0 1-.08-.28l.1-.23q.1-.22.34-.15l6.07 1.95a1.7 1.7 0 0 1 .85.64q.53.77 1.41.67.49-.06.55-.56l.42-3.84q.07-.62.68-.53l1.99.28q.78.11.21.65l-2.16 2.04q-.43.4-.23.96.62 1.69-.09 3.55-.22.57.33.31 1.14-.53 2.49-.53 1.52 0 .38 1.01l-1.39 1.22q-.35.31-.03.65.14.15.12.34-.02.22-.14.41-1.08 1.68-.78 3.47a.88.87-7.8 0 0 .97.73l.29-.04q.86-.1.58-.92l-.68-1.96q-.5-1.47.71-.5 1.19.97 1.65 2.2.51 1.35.24 3.05-.42 2.6-.78 5.41-.03.22.19.26h.01q.22.04.28-.17.82-3.21 2.11-6.86c.77-2.15-1.82-3.6-3.44-4.32a.74.74 0 0 1-.35-1.03l.18-.35a.53.52-59.6 0 1 .74-.2q1.52.95 2.87 2.08 2.21 1.85 1.37-.91-1.34-4.38-1.72-8.86-.05-.56-.6-.69l-.42-.09q-.55-.13-.6-.69-.17-1.87-1.31-2.99-2.63-2.58-3.74-4.91-.4-.85-.74.02-.07.18-.18.32-.3.38-.75.2-1.09-.46-2.1.39-.61.51-.54-.28l.25-2.76a.48.47-82 0 0-.38-.51l-.39-.07q-.57-.11-.72.45l-.78 2.9q-.13.48-.59.29l-.34-.14a.5.48 21 0 1-.28-.61l1.19-3.64q.46-1.39-.76-.58-1.48.97-3.27 1.02a.82.82 0 0 0-.52 1.43l5.46 4.81q.6.53.77-.26.04-.16.11-.31a.38.37-52.7 0 1 .61-.09q.31.34.73.55.46.22.89-.06.89-.57.99-.48 1.75 1.65-.76 1.66-2.52.02-5.36.39-.45.06-.4.51l.04.36q.04.38.42.38l2.3.01q.44 0 .55.42.03.14-.06.28-.08.12-.22.16-1.13.32-2.08 1.08-.7.57-1.14-.22-.2-.38-.64-.42-1.24-.11-1.04-1.34.67-3.96-2.23-6.89a1.26 1.23-66.4 0 1-.36-.95l.24-4.29a.75.75 0 0 1 1.15-.6q.31.2.38.56.1.58.69.62l2.98.2q1.76.12.37-.96-1.61-1.26-2.39-3.07-.19-.43-.59-.18-1 .63-2.21.25-3.11-.96-6.13-3.42-.61-.5.03-.96.7-.5 1.69-.82.73-.25.85.52l.29 1.91q.08.53.6.65 3.02.68 6.02.16.47-.08.75.31 1.51 2.16 1.99 4.86.05.25.3.26l.55.01q.4.01.26-.37-.44-1.21.2-2.17.42-.62-.17-1.08-2.22-1.71-4.55-3.64-.62-.52-1.01.2-.14.27-.47-.05a.53.52 27.3 0 1-.15-.45q.56-3.65-1.48-6.93a.47.47 0 0 1 .1-.61l.24-.19q.39-.31.6.15.27.61.81 1.06 1.62 1.35 1.17-.71-.58-2.62-.54-5.39.01-.63.67-.83a.41.4-7.3 0 1 .52.4q-.01.19.1.31a.24.23 44.3 0 0 .35 0q.62-.74.09-1.58-1.78-2.79-3.58-5.58a.53.53 0 0 1 .74-.73l.49.33a1.06 1.05 65.1 0 0 .46.17z"/><path fill="#01324f" d="m232.27 71.17 1.39.23q1.17 1.04.32 1.89a1.16 1.16 0 0 0-.34.99q.22 1.56-.47 3.13a.28.27-46.1 0 1-.5.01q-.64-1.34-.24-2.71.14-.46-.03-.92-.48-1.3-.13-2.62"/><path fill="#2b0b02" d="m171.89 76.25 1.3 4.54q.14.46.6.36 1.16-.23 1.67-1.11.52-.91.7.12.03.21.13.4.21.38 0 .77-.49.87-.62 1.86-.31 2.36-1.06.1-.29-.85-1-1.27-.7-.42-.78.39-.11 1.19.82 1.99.49.43-.07.77-.18.12-.28.32-.28.56.34.66 1.02.18 1.59-.67.44-.65.79.05.08.15.25.22.51.22.91-.18l.28-.28a.76.76 0 0 1 1-.07l.95.71a.57.55 44.4 0 0 .67 0q1.36-1.02 2.95-1.33.16-.03.23.13l.11.28q.1.23-.14.29-1.14.29-1.77 1.17-.53.47-.86 1.78-.17.64-.72.28-2.4-1.54-5.33-1.14c-.83.12-1.5-.11-2.14-.66a.33.33 0 0 0-.55.25c.03 2.7.58 5.4-.49 8.01-1.75 4.26-3.37 8.27-2.78 12.9a1.32 1.31 87.2 0 0 1.27 1.16q.49.02.82.36.35.36-.15.42l-2.24.31q-.46.06-.54.52c-.34 2.13.04 4.01-.67 6.13q-1.4 4.18-.54 7.49 1.55 5.96-1.46 3.62-.76 0-1.05.58-.2.41-.1.88.84 3.78-.29 7.94-.11.41-.48.64l-2.91 1.82q-.49.3-.11.73c1.16 1.35 3.1 4.22 1.02 5.57q-.44.28-.14.72c.4.57.64 1.18.5 1.91q-.61 3.12-.14 5.46-7.22-.58-14.22-.47-7.55.12-12.61-.3c-6.52-.55-13.13-.51-19.41-2.22q-6.08-1.65-12.68-4.13-7.31-2.75-17.02-3.74c-7.64-.77-12.46-3.18-9.74-12.04 2.35-7.68 7.29-13.68 12.1-20.22 1.35-1.84 3.06-3.5 5.36-3.95q15.93-3.12 35.72-9.57c10.58-3.44 20.01-9.61 21.17-21.36.31-3.07 2.38-4.94 5.61-3.98q5.97 1.76 11.62 4.56 2.12 1.05 4.61-.48m-16.81 4.07-.48-.87q-.36-.67-.98-.23l-1.28.92q-2.21 1.59.51 1.45l1.5-.08q.71-.03.95.62.39 1.05 1.25 1.69.19.14.38.02.27-.18.13-.48-.38-.77-.03-1.54a.83.82 44.6 0 0-.01-.72q-.42-.83-1.28-.53-.44.16-.66-.25"/><path fill="#144104" d="m272.74 81 1.39.09 1.68 4.92q.17.51.67.73l1.02.46q.47.2.75.62.46.69 1.32.86.51.09.95-.19l1.96-1.29q.41-.28.91-.32l4.29-.4q.64 3.01.15 6.1l-2.6-1.86q-.43-.31-.91-.06-.51.26-.84.67a.52.52 0 0 0 .59.82q.52-.19.99 0 .43.18.39.64-.17 2.03.69 3.83.25.53.78.29.67-.3.47-.96l.83.16q-.8.93-.19 2.38.17.41-.17.68-.14.12-.32.15-.58.11-.66-.47-.1-.69-.48-1.24-.37-.54-.58.09l-.92 2.83q-.16.48-.65.58l-2.62.5q-.38.07-.56.41-.36.65-1.17.55a.87.86-71 0 0-.85.42q-.38.66-.97 1.18-.39.35-.81.04-.29-.2-.41-.54-.05-.14-.16-.04-.14.13-.15.33a.44.44 0 0 0 .47.47q.45-.02.88.18a.87.86-54.6 0 0 .97-.17q1.03-1.02 2.38-1.65.54-.26 1.13-.17 1.32.22 2.48-.41a.47.47 0 0 1 .68.55q-.67 2.17.25 4.25a.33.33 0 0 0 .5.13l1.32-1.04q.35-.27.16-.68-.37-.81.17-1.58c.57-.82 1.78-.79 2.33-.03q.41.57-.05 1.1-.61.72-1.58.76-.9.04-.09.45 1.33.67 1.06 2.24-.09.55.47.6l.29.02q.31.03.34-.28c.1-1.02-.5-1.89.03-2.83q.68-1.21 1.97.4l1.17 9.01q-1.01.64-1.81.8-.34-.48-.73-.52-.5-.06-.7.41-.57 1.38-2.17 1.54-2.2.21-4.1.87-.06-.68-.95-.5-.43.1-.62.49l-.71 1.45q-.24.49-.78.55-1 .12-1.79-.7a.49.49 0 0 1 .35-.83h1.68a.61.61 0 0 0 .54-.33q.09-.19.09-.41-.02-.57-.52-.83l-1.31-.7a1.5 1.49 36.2 0 1-.37-2.36q.43-.45.59-1.04.28-1.07-.71-.59-1.69.82-2.73 2.37-.36.52.07.98l1.09 1.19q.21.23 0 .46l-.2.22a.64.63-53 0 1-.81.12q-1.43-.87-2.87-.84-.54.02-.54-.52v-2.65q0-.51-.47-.69l-2.09-.78q-1.3-.48-.65.74.43.83 1.22 1.08.62.2.74.84.22 1.19-.85 2.03a.27.27 0 0 1-.34 0l-.4-.32q-.22-.18-.01-.36l.76-.7q.42-.39-.03-.74-.23-.18-.52-.27t-.54.07q-.68.44-1.31.96-.42.35-.27.88.35 1.25-.13 2.44-.27.68-.4-.04-.36-1.87.06-3.72.11-.48-.35-.69-.67-.3-1.33.09a.85.84-26.4 0 0-.35 1.02l.91 2.41q.25.67-.33.27c-1.74-1.19-1.48-4.11-1.28-5.93q.04-.3-.19-.49-.13-.11-.29-.13-.64-.11-.72.54l-.66 5.35q-.06.48-.5.29l-1.2-.51q-.71-.31-.29-.96.53-.82 1.38-1.47.08-.06.08-.17 0-.14-.07-.25-.16-.25-.44-.16-2.68.91-2.15 3.67.09.46-.3.72l-3.01 2a.84.84 0 0 0-.32 1.02q.4 1.01-.13 1.75c-.87 1.21-1.06 3.01-1.17 4.48q-.03.36.15.66.11.16.27.27.54.37.04.78-.54.43-1.34.14a.92.91-71 0 1-.56-1.16l.64-1.86a.84.84 0 0 0-.73-1.1q-2.78-.2-5.38-1.69-.16-.09-.24-.27-.06-.16-.02-.33.17-.58.73-.36l3 1.16q.48.18.82-.2l.19-.22q.41-.46-.17-.68-1.04-.4-1.22-1.35-.12-.64.37-1.12.86-.86 1.05-1.97.07-.41.48-.25.01 0 1.53.57.52.2.32.72-.5 1.28-1.01 2.74-.02.06.04.08l.26.12q.48.22.69-.26 1.31-2.95 4.17-4.82a.32.32 0 0 0-.06-.56l-1.39-.55q-.68-.27-.2-.81l1.92-2.15q.26-.3-.03-.57l-.23-.21q-.37-.35-.69.05l-1.3 1.61q-1.88-.66-3.8.01-.54.19-1.06-.02-.68-.26-1.16-.8a.53.52 51.2 0 0-.71-.08q-1.34.98-2.98-.17a.39.38-49.2 0 1-.04-.6q1.06-1 2.17-.19.44.32.55-.21.14-.7-.15-1.43-.2-.5-.71-.35l-2.04.62a.37.36 89.6 0 1-.45-.45q.72-2.6 2.67-3.87.59-.38.72.31.06.33-.13.55a1.08 1.08 0 0 0-.22.95q.07.29.32.43.56.32.76-.29.31-.92.45-1.83c.22-1.35-.55-2.21-.37-3.42a.62.61-80.6 0 0-.49-.69q-1.81-.35-3.85.3-3.06.98-6.02.72-.5-.04-.86-.39-.72-.7-1.75-.55-.63.09-.59.72.05.85-.35 1.64-.41.81.42.42.37-.17.69-.48 1.16-1.13 1.23.49.03.63-.48.97-.41.28-.91.3-1.62.05-3.14-.1-.7-.07-.75-.78l-.08-1.32a.66.66 0 0 1 .68-.7q.6.01 1.14-.31.31-.18.24-.52-.09-.48-.58-.39-1.91.37-3.3-.75-.5-.4-.84.14-.98 1.53-2.29.18-.66-.68-.13-1.48.31-.46.78-.18.24.14.53.12.56-.05.6-.61.12-1.82 1.97-2.74.39-.19.04-.45l-.23-.18q-.36-.27-.78-.13l-1.94.64q-.57.19-.27.71.2.37.6.46a.52.51 18.1 0 1 .36.7l-.11.25q-.13.31-.47.29-2.37-.11-4.01-1.28-.46-.33-.92-.02-.63.41-1.4.42-.48.01-.72-.41-.57-1.04-.1-2.07.22-.46.72-.37.14.03.24.12.24.19.06.44l-.21.28q-.36.48.24.48.55 0 .83-.53.26-.48.79-.34.65.17.99.77a.73.72 67.3 0 0 .82.34q.28-.08.41-.36.13-.26.04-.54-.23-.7-.88-1.01-.42-.2-.41-.66 0-.29.29-.36.64-.15.2-.64-.6-.65-1.48-.76-.78-.1-.42.59.24.49.74.78a.59.58-78 0 1 .29.45q.06.5-.27.62-.26.09-.5-.04-1.83-1-2.31-2.41-.17-.49-.67-.36l-.29.08a.45.44-15 0 0-.31.53q.38 1.64-.82 2.61-.51.4-.21.98l2.43 4.62q.22.4.25.85l.22 3.03a.59.56 22 0 0 .17.38l1.52 1.48q.21.2.4-.01l.64-.69q.2-.22-.03-.4l-1.37-1.09q-.43-.34-.03-.71.26-.25.41-.59.22-.51-.08-.99-.7-1.13-.8-2.44-.06-.65.56-.88l.24-.09a.49.49 0 0 1 .65.35c.38 1.74.97 4.01 3 3.74q1.36-.19.74 1.03-.1.2-.3.31-.31.18-.12.47.11.17.31.19.28.04.49-.17.67-.66 1.37-1.19 1.91-1.47 1.67.93-.12 1.24.07 2.62.09.64-.44 1.01-.32.22-.42.6-.2.84.59.48.51-.23 1.05-.27.86-.07.29.56-.54.59-1.42.48a1.04 1.04 0 0 0-1.16 1.02q0 .28-.14.53-.33.62-.8.08-.46-.53-1.08-.89-.61-.35-.31.28.26.55.74.9.42.31.39.83-.06.93-.5 1.84-.24.5-.53.03-1.11-1.77-1.53-3.5c-.3-1.27-1-2.28-1.75-3.32q-.3-.41-.8-.3-1.22.28-2.33-.48-.73-.5-.78.38-.01.24-.19.44-.45.51-.6-.15l-1.17-5.21q-.13-.59.48-.59l.59-.01q.8-.01.2-.54-.72-.62-1.87-1.11.13-.72.73-1.38.33-.36-.05-.67c-1.46-1.2-1.89-5-2.3-6.82q-.3-1.3-.1-2.75c.29-2.15-1.47-2.95-1.79-4.9q-.39-2.39 1.26-.62 1.09 1.17 2.8.77.53-.12.91.26.15.15.1.31-.14.43.3.31.32-.09.65-.18.66-.2.8.48.03.17.32.28a.4.4 0 0 0 .36-.04q.27-.2.33-.51.14-.71-.5-1.05-1.56-.84-.48-2.12.3-.35-.07-.62-.99-.74-.2-1.62.35-.39.35-.92 0-.57.24-1.05.29-.55.46.05.21.76-.2 1.45-.28.48.24.66.33.1.58.32.77.63-.22.64-.41 0-.52.37-.09.27.02.53l2.27 5.84q.2.53-.05 1.04-.65 1.29-.33 2.89.09.43.52.41 2.83-.11 2.84 3.5a.65.65 0 0 0 .87.6q.28-.1.45-.34.36-.52.06-1.07l-1.24-2.31q-.27-.49-.82-.44-.59.05-.97-.39a.81.81 0 0 1-.17-.77c.54-1.74.49-4.26-.77-5.73q-.92-1.08-.92-2.31 0-2.09.49-4.04.13-.53-.13-1.01l-.17-.32q-.3-.57-.68-.08-.08.1-.22.13a.35.34 7.3 0 1-.38-.49q.17-.36.55-.48.5-.17.33-.67-.31-.87-.89-1.52-.21-.23-.08-.51.06-.14.22-.17.13-.02.24.05 1.69 1.14 1.97 2.94.07.48.56.53l.81.07a.59.58 88.1 0 0 .63-.68q-.07-.47-.43-.79a.77.77 0 0 1 .41-1.35q.46-.05.82.25.27.23.27.58l-.02 3.72a.16.15-65 0 1-.27.1q-.57-.66-1.36-.95-.69-.25-.93.45-.73 2.15.77 3.31c.95.72 2.19.26 3.33.77q.23.1.34-.14l.13-.31q.12-.28-.19-.32-1.3-.13-1.85-1.25-.07-.14.06-.22l.24-.16q.39-.26.66.13.59.86 1.62.73a1.43 1.42 55.8 0 1 .92.18c1.04.62 1.66 1.34 2.92 1.57q5.01.93 8.33.01.53-.15.48.4-.19 2.52 2.53 3.15 1.1.26.91 1.32a.68.68 0 0 1-1.13.38l-1.87-1.74q-.33-.3-.5-.72-.88-2.15-3.53-1.18a.74.72-9.2 0 0-.48.65q-.06 1.13.39 2.18.26.6.71.13.57-.59 1.37-.73.52-.08.89.28 1.46 1.45 3.37 2.33a.88.88 0 0 0 1.07-.26q.69-.9 1.71-1.44.49-.26.41-.8-.02-.13-.05-.25-.11-.4-.28-.03-.25.51-.74.76-.51.25-.57-.31l-.23-2.01a.38.38 0 0 1 .54-.39q.55.26.85.75.2.32.51.11 1.32-.85 2.98-.53a.44.43 9.7 0 1 .35.49q-.33 2.26.69 4.28.25.5.27 1.05.15 4 3.22 4.7 1.62.36.67-1-.94-1.38-2.17-2.37-.54-.44-.62-1.13l-.26-2.41a2.62 2.43 30.7 0 0-.24-.81c-.93-1.96.61-3.82 2.61-3.74q.57.02.27.51-.12.21-.09.45.04.26.18.46 1 1.49-.05 2.15a.94.93-29.4 0 0-.34 1.19l.15.33a.55.54 57.6 0 0 .83.19l1.52-1.21a1.07 1.06 44.7 0 0-.01-1.67q-1.33-1.05-.62-2.64a1.28 1.25-88.5 0 1 .68-.66q1.26-.49 2.33-.39 1.34.14.39 1.08-.46.45-1.01.84a1.93 1.93 0 0 0 .51 3.42q1.32.42 2.31 1.29 1.69 1.49-.55 1.21l-3.87-.48q-1.43-.18-.59.99.27.38.36.84.13.7-.58.72l-.61.03q-.41.01-.44.42-.01.23.21.29 1.91.49 3.92-.2.68-.23.9.46l.14.43a.57.55-18.4 0 1-.36.7q-1.23.4-1.55 1.5-.16.54.14 1.02.49.77.06 1.56-.21.38.2.55.13.05.27-.02.2-.1.22-.31.23-2.73 2.78-2.56.74.04 1.12-.59.14-.24.2-.51.17-.78-.63-.77-2.44.04-2.5-2.52-.01-.44.38-.64 1.11-.55 1.91.43.73.91.79 2.05.02.39.37.22l.29-.14q.04-.01.02-.05l-.73-2.31a.48.48 0 0 1 .52-.62q.48.07.79.45a.6.6 0 0 0 .39.22q.45.06.66-.22.29-.38-.04-.71-.28-.29-.25-.68.03-.47.45-.26 1.22.6 1.72-.73a.73.73 0 0 0-.93-.95l-2.74.98q-.41.14-.51-.28-.04-.14 0-.28.17-.62-.49-.63-2.04-.03-3.55-1.69-.2-.22-.07-.49.22-.47.56-.08.18.19.39.29.64.27.66-.42.02-.51.01-1.02-.03-2.58 1.37-.44.39.59.01 1.56-.39 1.02.61.56.61-.28.43-1.05-.19-.81.5-1.25.4-.25.9-.16.6.12.16.55-1.1 1.04-.5 2.77a.76.75-11.8 0 0 .78.5q.94-.08.96-1.09.02-.94.34-1.77.25-.63.62-.06.31.47.76.84.8.64.35-.28-.14-.3-.34-.54-.32-.38-.14-.85.81-2.16.23-3.32m-38.28 3.85q.78 2.24 2.1 4.16a.5.49-22.3 0 0 .5.2l.46-.1q.62-.12.2-.59-1.16-1.3-1.49-2.96a.83.81 8 0 0-.43-.56l-.97-.48q-.57-.28-.37.33m40.613 2.903a.89.69 40.9 0 0-.221-1.105.89.69 40.9 0 0-1.125-.06.89.69 40.9 0 0 .221 1.104.89.69 40.9 0 0 1.125.06m1.497 1.237a.28.28 0 0 0-.14.45q.32.37.77.3a.27.27 0 0 0 .19-.4q-.3-.51-.82-.35m6.3.506a.86.54-1.6 0 0-.875-.516.86.54-1.6 0 0-.845.564.86.54-1.6 0 0 .875.516.86.54-1.6 0 0 .845-.564m-40.55 6.044q.2-.72.82-1.14.12-.09.05-.21l-.12-.25q-.16-.29-.38-.05l-1.23 1.32a.57.57 0 0 0 .18.9l.88.39q.48.22.42.74-.02.24-.22.44-.22.23-.54.18-.13-.03-.26-.02-.54.04-.67.56-.46 1.8-.15 4.04a.73.72 53.4 0 0 1.38.21l.3-.65q.23-.51-.19-.89-.55-.49-.39-1.23c.18-.85 1.36-1.43 1.76-2.47q.24-.64.84-.3l.69.38q.44.25.91.08 1.59-.55 3.05.57.42.32.5.85.22 1.35.66 2.62.02.04.02 0l.17-2.14q.05-.61.61-.86l1.44-.66q.63-.28.22-.84l-.92-1.27a2.95 2.94 52.2 0 1 .49-3.97l1.8-1.52q.4-.34-.09-.53l-.29-.11q-.15-.06-.27.06l-2.56 2.49a2.29 2.28-50.3 0 1-2.85.27l-3.14-2.08q-.78-.51-.4.34.29.64.13 1.3-.1.45.35.45.46.01.66-.35a.65.64-42.6 0 1 1.15.04q.61 1.36 1.99 1.64.95.18 1.13 1.11.11.54.63.69l.53.16a.93.92 15.3 0 1 .64 1.11l-.09.37q-.17.67-.76.32-1.07-.64-2.24-.71-.73-.04-.55-.74.25-.98-.59-1.43-.66-.35-.67.4-.01.77-.77.87-1.62.2-3.6.15-.63-.02-.46-.63M276 96q.74 1.2.97 2.51.1.56-.46.68l-.59.12q-.25.05-.35.29-.06.16-.05.33.01.44.45.43 2.36-.01 4.6.4.55.1.39-.44-.27-.9-1.19-1.05c-1.45-.24-2.17-1.56-2.06-2.96q.05-.55.59-.5 1.67.13 3.38-.81.08-.04.06-.13l-.1-.31q-.07-.24-.31-.17zq-2.41-1.46-1.79-4.26.17-.77.89-.42.62.3 1 .97.41.72.82.01.12-.2.32-.31.75-.4.88.44l.21 1.34a.45.45 0 0 0 .54.37l.3-.06a.39.39 0 0 0 .29-.47l-.23-.97q-.13-.56.44-.65.66-.11 1.34.21a.88.87-56.6 0 0 1.04-.22l.2-.23q.37-.43-.17-.64c-1.31-.51-3.1-.71-4.39-.02q-1.31.69-1.9-.79-.29-.7-1-.46c-1.95.66-1.86 3.1-1.02 4.59a.47.46 61.6 0 1-.19.65q-.3.16-.28.45.04.66.7.61zm-40.94-2.32c-.9.39-1.85.22-2.43-.58q-.32-.44-.72-.08l-.24.21q-.36.33-.04.69l2.34 2.65a1.66 1.55-6.8 0 0 .59.43c.96.41 2.11.7 2.44 1.83q.42 1.45 2.03 1.24.61-.08.12-.45-.89-.68-.44-1.7.9-2.04-.75-4.65-.24-.39-.69-.29-1.13.24-2.21.7m43.66 14.09q.28.49.22 1.07-.05.53-.58.47-.15-.02-.3-.08a.56.56 0 0 0-.77.52q0 .28.09.54a.63.62-86.3 0 1-.87.77q-.91-.44-1.64-1.22-.2-.21-.06-.46.07-.12.18-.19.52-.34.21-.88-1.23-2.14-.49-4.4c.37-1.12.24-1.77-.65-2.44a.66.66 0 0 0-1.06.59q.02.2-.05.36-.2.49-.72.37-2.67-.57-2.05-3.3.14-.62.73-.37.67.28 1.21.79a.52.52 0 0 0 .74-.02l.88-.92q.6-.63-.27-.63l-1.82-.01q-1.59 0-.73-1.35.34-.53.81-.96.6-.55-.02-1.06l-.47-.38a.64.64 0 0 0-.98.2q-1.19 2.32-1.22 4.8 0 .62-.61.52l-1.36-.22q-.55-.09-.74.43-.57 1.55-1.96 2.79-.4.36.04.67.92.62 2.54.15.5-.15.49-.67-.02-.7-.46-1.21a.52.51 50.1 0 1 .06-.73c.68-.55 1.71-.36 2.14.42q.5.93 1.17 1.78.2.26.53.26l2.11-.04q.75-.01.5.7-.46 1.37.12 2.71.23.51.07 1.05l-.55 1.83q-.16.53.1 1.02l1.75 3.25q.37.7.5-.08.37-2.27 2.11-2.85.42-.14.21-.53-.3-.58.35-.79 1.1-.35 2.16-.6.63-.14.4-.74l-.67-1.8a1.15 1.15 0 0 0-1.18-.74q-.9.08-1.74.73-.11.09-.16.21-.07.17-.02.35.19.59.74.3l.36-.18q.43-.23.68.2m3.91-10.13c-1.01 0-1.61-.73-2.91-.49q-.17.04-.3.17-.14.14-.08.32.16.51.68.43l1.21-.17q.47-.07.81.26.97.93 2.38 1.23a.35.35 0 0 0 .42-.29q.23-1.49-.94-2.19-.67-.4-.82.36-.07.37-.45.37m-27.27 1.69q.07-1.14-1.02-1.48-.52-.16-.43.37.23 1.33.86 2.31.32.48.88.38.79-.14 1.25-.8.32-.47.88-.62.93-.25 1.6-.87.42-.4.99-.26.73.19.96-.52a.64.64 0 0 0-.86-.79q-2.62 1.16-4.6 2.56-.56.4-.51-.28m-9.28 1.82q.87-1 2.11-1.35.95-.27 0-.56-.76-.24-1.6-.18-.62.04-.96.57-.64.97-1.84 1.43-.9.35.01.68l1.44.53q.57.21.58-.4 0-.42.26-.72m-10.96-1.48q-1.46-.37-2.11 1.22-.78 1.91.87.67.37-.27.82-.32.54-.06.96.28.68.57 1.52.39.74-.15.25-.72-1.02-1.19-2.31-1.52m20.61 2.41a.43.43 0 0 0-.57.12q-.19.27-.26.59-.13.56.44.61.83.06 1.39.73.35.42.9.38l2.42-.19a.36.36 0 0 0 .33-.35v-.36a.43.43 0 0 0-.46-.44q-2.16.14-4.19-1.09m27.59 3.18.71-.13q.28-.06.15-.31l-.19-.37q-.29-.58-.66-.04l-.29.43q-.37.55.28.42m-14.3 3.04q.55 1.02 1.98.69.53-.13.7-.66.26-.84-.08-1.72-.28-.7-.7-.08-.78 1.16-1.9 1.77-.1-1.14-.62-2.04-.29-.51-.84-.34-.49.15-.74.58a1.24 1.23 21.8 0 0 .8 1.84q.47.11 1.4-.04m13.18 3.3q.56-.88.25-1.84-.11-.36.21-.55.31-.18.64-.05.4.17.57.58.11.25.16.51.16.79.72.21.53-.55 1.26-.47a.62.62 0 0 0 .66-.78l-.3-1.09q-.21-.76-.63-.09-.23.35-.6.27-.44-.1-.73-.45-.78-.92-2.06-1.3-.94-.28-.46.57.78 1.39-.4 2.16-.58.38-.23.98 1.4 2.4.34 4.8a.43.43 0 0 0 .19.55l.55.29q.22.12.29-.12l.51-1.7a.38.38 0 0 1 .75.1l.05 1.23a1.44 1.42-74 0 0 .63 1.15q1 .69 1.97-.19.47-.41 1.08-.31.23.04.41.18.7.52.5-.32-.13-.55-.45-1.03-.68-1 .53-.93.56.03 1.09.31a.83.83 0 0 0 .97-.15q.84-.84.42-2.16-.13-.42-.44-.09c-2.42 2.64-5.21.1-8.15.26a.34.34 0 0 1-.3-.53m6.4-1.76a.22.22 0 0 0-.3.14q-.28 1.11-1.26 1.31-.88.19-.01.41 1.04.27 1.82-.47 1.07-1.02 2.26-.26a.35.34 45.8 0 0 .34.01q.15-.08.23-.23.33-.58-.34-.51-1.48.16-2.74-.4"/><path fill="#010301" d="M155.74 80.57q.86-.3 1.28.53a.83.82 44.6 0 1 .01.72q-.35.77.03 1.54.14.3-.13.48-.19.12-.38-.02-.86-.64-1.25-1.69-.24-.65-.95-.62l-1.5.08q-2.72.14-.51-1.45l1.28-.92q.62-.44.98.23l.48.87q.22.41.66.25M278.44 81.92q-1.13.86-1.5.7-2.41-1.02-1.11 1.26.52.92 1.11 1.73.28.39.74.55.9.32 1.5.99.25.28.53.03.5-.44 1.19-.43.68.02 1.14-.48l.69-.77q.38-.42.95-.43 1.38-.02 2.26-.9 1.28.74 1.74 2.31l-4.29.4q-.5.04-.91.32l-1.96 1.29q-.44.28-.95.19-.86-.17-1.32-.86-.28-.42-.75-.62l-1.02-.46q-.5-.22-.67-.73l-1.68-4.92z"/><path fill="#144104" d="m278.44 81.92 7.5 2.25q-.88.88-2.26.9-.57.01-.95.43l-.69.77q-.46.5-1.14.48-.69-.01-1.19.43-.28.25-.53-.03-.6-.67-1.5-.99-.46-.16-.74-.55-.59-.81-1.11-1.73-1.3-2.28 1.11-1.26.37.16 1.5-.7m.38 1.89q-1.09.33-.52 1.28a.47.46 57.8 0 0 .65.15q.57-.36.46-1.06a.47.46-12.6 0 0-.59-.37"/><path fill="#010301" d="M278.82 83.81a.47.46-12.6 0 1 .59.37q.11.7-.46 1.06a.47.46 57.8 0 1-.65-.15q-.57-.95.52-1.28M234.46 84.85q-.2-.61.37-.33l.97.48a.83.81 8 0 1 .43.56q.33 1.66 1.49 2.96.42.47-.2.59l-.46.1a.5.49-22.3 0 1-.5-.2q-1.32-1.92-2.1-4.16"/><ellipse fill="#010301" rx=".89" ry=".69" transform="rotate(40.9 20.316 411.522)"/><path fill="#010301" d="M276.57 88.99q.52-.16.82.35a.27.27 0 0 1-.19.4q-.45.07-.77-.3a.28.28 0 0 1 .14-.45"/><ellipse fill="#010301" rx=".86" ry=".54" transform="rotate(-1.6 3346.496 -10053.323)"/><path fill="#010301" d="M242.78 96.17q1.98.05 3.6-.15.76-.1.77-.87.01-.75.67-.4.84.45.59 1.43-.18.7.55.74 1.17.07 2.24.71.59.35.76-.32l.09-.37a.93.92 15.3 0 0-.64-1.11l-.53-.16q-.52-.15-.63-.69-.18-.93-1.13-1.11-1.38-.28-1.99-1.64a.65.64-42.6 0 0-1.15-.04q-.2.36-.66.35-.45 0-.35-.45.16-.66-.13-1.3-.38-.85.4-.34l3.14 2.08a2.29 2.28-50.3 0 0 2.85-.27l2.56-2.49q.12-.12.27-.06l.29.11q.49.19.09.53l-1.8 1.52a2.95 2.94 52.2 0 0-.49 3.97l.92 1.27q.41.56-.22.84l-1.44.66q-.56.25-.61.86l-.17 2.14q0 .04-.02 0-.44-1.27-.66-2.62-.08-.53-.5-.85-1.46-1.12-3.05-.57-.47.17-.91-.08l-.69-.38q-.6-.34-.84.3c-.4 1.04-1.58 1.62-1.76 2.47q-.16.74.39 1.23.42.38.19.89l-.3.65a.73.72 53.4 0 1-1.38-.21q-.31-2.24.15-4.04.13-.52.67-.56.13-.01.26.02.32.05.54-.18.2-.2.22-.44.06-.52-.42-.74l-.88-.39a.57.57 0 0 1-.18-.9l1.23-1.32q.22-.24.38.05l.12.25q.07.12-.05.21-.62.42-.82 1.14-.17.61.46.63M276 96l-2 .14q-.66.05-.7-.61-.02-.29.28-.45a.47.46 61.6 0 0 .19-.65c-.84-1.49-.93-3.93 1.02-4.59q.71-.24 1 .46.59 1.48 1.9.79c1.29-.69 3.08-.49 4.39.02q.54.21.17.64l-.2.23a.88.87-56.6 0 1-1.04.22q-.68-.32-1.34-.21-.57.09-.44.65l.23.97a.39.39 0 0 1-.29.47l-.3.06a.45.45 0 0 1-.54-.37l-.21-1.34q-.13-.84-.88-.44-.2.11-.32.31-.41.71-.82-.01-.38-.67-1-.97-.72-.35-.89.42-.62 2.8 1.79 4.26M287.83 92.58l-.44 3.37q.2.66-.47.96-.53.24-.78-.29-.86-1.8-.69-3.83.04-.46-.39-.64-.47-.19-.99 0a.52.52 0 0 1-.59-.82q.33-.41.84-.67.48-.25.91.06zM235.06 93.68q1.08-.46 2.21-.7.45-.1.69.29 1.65 2.61.75 4.65-.45 1.02.44 1.7.49.37-.12.45-1.61.21-2.03-1.24c-.33-1.13-1.48-1.42-2.44-1.83a1.66 1.55-6.8 0 1-.59-.43l-2.34-2.65q-.32-.36.04-.69l.24-.21q.4-.36.72.08c.58.8 1.53.97 2.43.58"/><path fill="#010301" d="m276 96 5.33-1.61q.24-.07.31.17l.1.31q.02.09-.06.13-1.71.94-3.38.81-.54-.05-.59.5c-.11 1.4.61 2.72 2.06 2.96q.92.15 1.19 1.05.16.54-.39.44-2.24-.41-4.6-.4-.44.01-.45-.43-.01-.17.05-.33.1-.24.35-.29l.59-.12q.56-.12.46-.68-.23-1.31-.97-2.51"/><path fill="#010301" d="m278.04 107.57-.36.18q-.55.29-.74-.3-.05-.18.02-.35.05-.12.16-.21.84-.65 1.74-.73a1.15 1.15 0 0 1 1.18.74l.67 1.8q.23.6-.4.74-1.06.25-2.16.6-.65.21-.35.79.21.39-.21.53-1.74.58-2.11 2.85-.13.78-.5.08l-1.75-3.25q-.26-.49-.1-1.02l.55-1.83q.16-.54-.07-1.05-.58-1.34-.12-2.71.25-.71-.5-.7l-2.11.04q-.33 0-.53-.26-.67-.85-1.17-1.78c-.43-.78-1.46-.97-2.14-.42a.52.51 50.1 0 0-.06.73q.44.51.46 1.21.01.52-.49.67-1.62.47-2.54-.15-.44-.31-.04-.67 1.39-1.24 1.96-2.79.19-.52.74-.43l1.36.22q.61.1.61-.52.03-2.48 1.22-4.8a.64.64 0 0 1 .98-.2l.47.38q.62.51.02 1.06-.47.43-.81.96-.86 1.35.73 1.35l1.82.01q.87 0 .27.63l-.88.92a.52.52 0 0 1-.74.02q-.54-.51-1.21-.79-.59-.25-.73.37-.62 2.73 2.05 3.3.52.12.72-.37.07-.16.05-.36a.66.66 0 0 1 1.06-.59c.89.67 1.02 1.32.65 2.44q-.74 2.26.49 4.4.31.54-.21.88-.11.07-.18.19-.14.25.06.46.73.78 1.64 1.22a.63.62-86.3 0 0 .87-.77q-.09-.26-.09-.54a.56.56 0 0 1 .77-.52q.15.06.3.08.53.06.58-.47.06-.58-.22-1.07-.25-.43-.68-.2"/><path fill="#010301" d="M292.71 106.27q-1.29-1.61-1.97-.4c-.53.94.07 1.81-.03 2.83q-.03.31-.34.28l-.29-.02q-.56-.05-.47-.6.27-1.57-1.06-2.24-.81-.41.09-.45.97-.04 1.58-.76.46-.53.05-1.1c-.55-.76-1.76-.79-2.33.03q-.54.77-.17 1.58.19.41-.16.68l-1.32 1.04a.33.33 0 0 1-.5-.13q-.92-2.08-.25-4.25a.47.47 0 0 0-.68-.55q-1.16.63-2.48.41-.59-.09-1.13.17-1.35.63-2.38 1.65a.87.86-54.6 0 1-.97.17q-.43-.2-.88-.18a.44.44 0 0 1-.47-.47q.01-.2.15-.33.11-.1.16.04.12.34.41.54.42.31.81-.04.59-.52.97-1.18a.87.86-71 0 1 .85-.42q.81.1 1.17-.55.18-.34.56-.41l2.62-.5q.49-.1.65-.58l.92-2.83q.21-.63.58-.09.38.55.48 1.24.08.58.66.47.18-.03.32-.15.34-.27.17-.68-.61-1.45.19-2.38 1.12.15 1.33 1.1.81 3.72 2.36 6.05c.68 1.03.82 1.87.8 3.01m-3.613-5.36a1.24.77 19.8 0 0-.906-1.144 1.24.77 19.8 0 0-1.428.304 1.24.77 19.8 0 0 .906 1.145 1.24.77 19.8 0 0 1.428-.305"/><path fill="#010301" d="M282.63 97.64q.38 0 .45-.37.15-.76.82-.36 1.17.7.94 2.19a.35.35 0 0 1-.42.29q-1.41-.3-2.38-1.23-.34-.33-.81-.26l-1.21.17q-.52.08-.68-.43-.06-.18.08-.32.13-.13.3-.17c1.3-.24 1.9.49 2.91.49M255.87 99.61q1.98-1.4 4.6-2.56a.64.64 0 0 1 .86.79q-.23.71-.96.52-.57-.14-.99.26-.67.62-1.6.87-.56.15-.88.62-.46.66-1.25.8-.56.1-.88-.38-.63-.98-.86-2.31-.09-.53.43-.37 1.09.34 1.02 1.48-.05.68.51.28M246.08 101.15q-.26.3-.26.72-.01.61-.58.4l-1.44-.53q-.91-.33-.01-.68 1.2-.46 1.84-1.43.34-.53.96-.57.84-.06 1.6.18.95.29 0 .56-1.24.35-2.11 1.35M235.12 99.67q1.29.33 2.31 1.52.49.57-.25.72-.84.18-1.52-.39-.42-.34-.96-.28-.45.05-.82.32-1.65 1.24-.87-.67.65-1.59 2.11-1.22"/><ellipse fill="#144104" rx="1.24" ry=".77" transform="rotate(19.8 -143.926 875.127)"/><path fill="#010301" d="M255.73 102.08q2.03 1.23 4.19 1.09a.43.43 0 0 1 .46.44v.36a.36.36 0 0 1-.33.35l-2.42.19q-.55.04-.9-.38-.56-.67-1.39-.73-.57-.05-.44-.61.07-.32.26-.59a.43.43 0 0 1 .57-.12"/><path fill="#144104" d="m246.78 108.89-.8.4q-.84-.49-.64-2.44l.15-.42.28-.02q.48-.04.76-.45l.84-1.25a2.17 2.15-62.6 0 1 2.56-.82q1.16.44 1.21 1.3a.81.8-4.5 0 1-.73.84q-2.57.28-3.63 2.86"/><path fill="#010301" d="m283.04 104.84.29-.43q.37-.54.66.04l.19.37q.13.25-.15.31l-.71.13q-.65.13-.28-.42"/><path fill="#123603" d="m245.49 106.43-.15.42q-1.31.74-2.48.7-.99-.03-.17.52.63.43.52 1.23a1.04 1.04 0 0 0 .71 1.13q2.12.7 2.06-1.14l.8-.4q.51 1.68-.26 2.95-.3.49-.87.6-1.12.21-2.27.28-.93.06-1.23.9-.17.46-.66.48-.53.01-.83-.43-.33-.46.16-.76.19-.12.3-.31.11-.18-.03-.35-.33-.37-.77-.14-1.29.68-1.65 2.36-.11.53.14 1 .46.88.34 1.87-.07.56-.64.5l-3.3-.39q-.57-.07-.39.48.41 1.23-.6 2.1-.56.48-.37 1.19l.97 3.49a.79.77 9 0 0 .33.44q.43.27.41.82-.02.28-.17.5-.5.73-.76 1.63-.15.56.43.64l5.04.66q.53.07.53-.47v-.46q0-.36-.34-.48-.81-.3-1.55.12a1.22 1.22 0 0 1-1.7-.52q-.83-1.69-1.09-3.62a.9.89 78.4 0 1 .64-.98q1.27-.36 2.4-1.18.56-.41-.13-.41-2.04-.02-3.18 1.04a.57.57 0 0 1-.92-.24q-.49-1.48.4-2.81.32-.48.9-.56l2.65-.36q.45-.06.78.27l.77.77q.38.39.81.04l.64-.51a.58.58 0 0 0-.01-.92l-1.68-1.26q-.64-.48.04-.92l1.11-.72a.83.81-36.1 0 1 1.08.16q.55.67.4 1.47-.13.66.53.57l.29-.04q.34-.06.2-.37l-.75-1.64a.63.63 0 0 1 .26-.81l.28-.15a.28.27 59.6 0 1 .37.1q1.05 1.75 3.22 2.58.53.2.63-.35l.07-.36q.09-.41.47-.6 3.26-1.61 5.54.28.47.39 1.01.12l3.26-1.59 1.3-1.61q.32-.4.69-.05l.23.21q.29.27.03.57l-1.92 2.15q-.48.54.2.81l1.39.55a.32.32 0 0 1 .06.56q-2.86 1.87-4.17 4.82-.21.48-.69.26l-.26-.12q-.06-.02-.04-.08.51-1.46 1.01-2.74.2-.52-.32-.72-1.52-.57-1.53-.57-.41-.16-.48.25-.19 1.11-1.05 1.97-.49.48-.37 1.12.18.95 1.22 1.35.58.22.17.68l-.19.22q-.34.38-.82.2l-3-1.16q-.56-.22-.73.36-.04.17.02.33.08.18.24.27 2.6 1.49 5.38 1.69a.84.84 0 0 1 .73 1.1l-.64 1.86a.92.91-71 0 0 .56 1.16q.8.29 1.34-.14.5-.41-.04-.78-.16-.11-.27-.27-.18-.3-.15-.66c.11-1.47.3-3.27 1.17-4.48q.53-.74.13-1.75a.84.84 0 0 1 .32-1.02l3.01-2q.39-.26.3-.72-.53-2.76 2.15-3.67.28-.09.44.16.07.11.07.25 0 .11-.08.17-.85.65-1.38 1.47-.42.65.29.96l1.2.51q.44.19.5-.29l.66-5.35q.08-.65.72-.54.16.02.29.13.23.19.19.49c-.2 1.82-.46 4.74 1.28 5.93q.58.4.33-.27l-.91-2.41a.85.84-26.4 0 1 .35-1.02q.66-.39 1.33-.09.46.21.35.69-.42 1.85-.06 3.72.13.72.4.04.48-1.19.13-2.44-.15-.53.27-.88.63-.52 1.31-.96.25-.16.54-.07t.52.27q.45.35.03.74l-.76.7q-.21.18.01.36l.4.32a.27.27 0 0 0 .34 0q1.07-.84.85-2.03-.12-.64-.74-.84-.79-.25-1.22-1.08-.65-1.22.65-.74l2.09.78q.47.18.47.69v2.65q0 .54.54.52 1.44-.03 2.87.84a.64.63-53 0 0 .81-.12l.2-.22q.21-.23 0-.46l-1.09-1.19q-.43-.46-.07-.98 1.04-1.55 2.73-2.37.99-.48.71.59-.16.59-.59 1.04a1.5 1.49 36.2 0 0 .37 2.36l1.31.7q.5.26.52.83 0 .22-.09.41a.61.61 0 0 1-.54.33h-1.68a.49.49 0 0 0-.35.83q.79.82 1.79.7.54-.06.78-.55l.71-1.45q.19-.39.62-.49.89-.18.95.5.41.82 1.66.85.48.01.49.49l.07 4.62v.03q-.2.68-.59.71-.81.07-.37.76.56.87 1.56.68.48-.08.6-.54.51-1.89 1.98-3.04.4-.32.54-.81.24-.83.76-1.52.18-.22-.02-.43l-.25-.25q-.31-.31-.53.08-.63 1.12-1.68 1.64-.57.28-.76-.32l-.47-1.48q-.21-.65.46-.73 3.12-.4 4.25-3.04.8-.16 1.81-.8.7 6.07-.83 12.51-2.13-.43-3.2-1.46-.73-.7-.46.27.06.2.24.31a.61.61 0 0 1-.15 1.11q-2.1.61-3.89 1.94-.32.25-.56-.09-.72-1.03-2.04-.47a1.28 1.28 0 0 0-.73 1.52q.29 1.03.15 2.17-.06.52.21.95.37.58 1.07.58.64.01.21-.47-.78-.87-.74-2.21.02-.98.98-1.12a.95.95 0 0 1 1.04.61q.24.67.95.59.53-.06.93-.41 1.23-1.08 2.53-2.1.44-.34.75.12.59.85.63 2.01.03.81-.74 1.06l-.96.32q-.59.2-.12.61c1.45 1.26.28 3.59-1.59 3.72q-.79.05-.37-.63.3-.48.84-.68.53-.2.32-.72-.4-.97-.9-1.77-.32-.52-.92-.34-.56.16-.39.72.14.51.07 1.02-.08.59-.63.84l-2.03.89a.89.89 0 0 0-.51.99q.27 1.41-.55 2.56-.54.75.37.61.67-.1 1.27-.41a.55.55 0 0 0 .16-.86q-.32-.35-.29-.82.05-.65.7-.73.97-.1 1.85-.56.59-.31.99.23l.24.34q.39.53-.05 1.02l-.24.25q-.3.32-.13.73.47 1.13-.49 1.72-.36.23-.77.09-1.31-.44-1.99.65-.31.51-.91.48-.76-.05-1.1-.71-.28-.55-.8-.22l-2.04 1.28q-.5.31.08.43l.4.09a.44.44 0 0 1 .23.72q-.45.5-1.13.88-.36.2-.68-.05-1.06-.82-.8-2.14.1-.47-.36-.6-.66-.18-1.19-.56-.16-.11-.2.09l-.05.31q-.04.2.16.28 1.8.74 1.22 2.44-.18.51.34.69 3.29 1.18 4.56-1.48a1.31 1.31 0 0 1 2.03-.44l2.69 2.26-1.47 5.97q-.68-.26-1.08-.08-.56.25-.17.73.18.22.15.51-.04.49-.48.71-.56.28-1.08.01-.44-.22-.49-.75-.1-1.15.41-2.02.28-.47.81-.36.88.19 1.7-.15.78-.33-.04-.55-1.5-.42-3.04-.37-.48.02-.52.49l-.2 2.59a.91.9 78.7 0 1-.48.73q-.46.24-1.05.03-.2-.98-1.44-1.27-.48-.12-.81-.48l-2.18-2.41a.78.78 0 0 0-1.12-.04q-2.9 2.74-.41 6.03a1.1 1.08 30.8 0 1 .21.8q-.08.68.42.99.56.35.64 1.01l.08.66q.07.53.54.78 1.13.58 2.01 1.47.11.11.28.14.15.02.3-.08.15-.09.06-.24l-.58-.91q-.27-.43-.73-.66-1.2-.61-1.76-1.83-.25-.55.32-.7 1.17-.33 2.29-.08.25.05.29-.2l.06-.31q.05-.27-.23-.27l-2.33.01a.49.49 0 0 1-.38-.81q1.81-2.19 4.47-1.6.18 1.18-.96 2.18-.2.17-.01.35.1.09.22.13a.5.49-70.4 0 0 .61-.29q.34-.85 1.12-1.13.51-.18.51.35.02 2.66-1.15 4.64-.21.36.21.41 1.31.15.91 1.39-.18.57.42.62.29.02.74-.04-3.85 2.4-7.92 1.14-3.16-.98-6.28-2.4c-3.27-1.48-6.54.87-9.34 2.44-3.53 1.97-7.37 2.72-11.65 2.12q-7.71-1.09-14.56-4.13-2.15-4.58-1.09-9.02.14-.58.74-.66.45-.06.88.1c1.19.44 2.23-.21 2.82-1.25a.34.34 0 0 0-.27-.5q-.91-.06-1.65.51a.51.5 49.9 0 1-.67-.06q-.54-.58-.46-1.51.06-.77-.41-.16-.14.19-.15.42-.01.51-.52.48-.6-.05-.79-.64-.87-2.73-1.67-5.18c-.54-1.69.42-2.81-.04-4.47q-.85-3.12-1.84-5.91-.25-.7.39-1.07.92-.53.33-1.43-.34-.51-.32-1.13.04-1.5-.92-2.76a1.25 1.25 0 0 1 .88-2l3.59-.33a.6.59-84 0 1 .62.77l-.45 1.44q-.15.49.27.79l.21.14q.28.2.41-.12 1.8-4.34-.92-7.83-.56-.71-.45.19.08.68.6 1.15.5.47.29 1.13c-.73 2.24-2.7 1.51-4.34 2.16q-1.83.73-1.56-1.22.47-3.28-1.11-5.14c-.8-.96-.91-2.16-1.06-3.33a.48.48 0 0 1 .58-.53q1.46.31 2.14-1.03.45-.89-.47-.52-.89.36-1.52 1.04-.52.55-.78-.16-.54-1.48.06-2.99.69-1.7 2.09-.51 3.7 3.12 3.78 7.94.01.44.45.37.16-.02.32-.01.83.07.26-.52-.66-.68-.12-1.38.43-.57 1.03-.18.76.5 1.47.16.43-.21.37-.69l-.29-2.29q-.09-.7.62-.8 2.59-.33 5.23-2.05.57-.37.03-.78-.56-.42-1.31-.29-.74.12-.94-.59-.23-.77.07-1.45.18-.41.62-.3l2.34.6q.54.14.68.68l.3 1.23q.12.46.59.43.16-.01.31-.09.48-.23.1-.61l-.92-.92q-.41-.41-.13-.92l1.59-2.9q.28-.52.78-.2zm31.75 28.68 4 3.1a.12.12 0 0 0 .17-.02l.04-.05a2.5 2.32 37.8 0 0-.56-3.37l-.23-.18a2.5 2.32 37.8 0 0-3.4.3l-.04.05a.12.12 0 0 0 .02.17m-23.83 4.34-.26.07q-.39.11-.31.51.51 2.53 3.6 3.8a.49.49 0 0 0 .66-.34l.53-2.24a.54.53 4.2 0 0-.57-.66q-.37.04-.6.31-.45.53-1.13.45-1.27-.13-1.32-1.47a.47.47 0 0 0-.6-.43m19.57 4.53q.47.58 1.13.89.87.42.54-.49-.15-.43-.28-.76c-.63-1.58-3.6-1.11-4.72-.61q-.72.31-.03.68 1.12.59 2.38.05a.84.84 0 0 1 .98.24m-11.18-.24q1.5.64 2.26 2.64a.99.98 76.5 0 0 1.02.63l.36-.03q.73-.08.45-.76-.78-1.91-3.04-3.19-.32-.17-.63.01-.17.1-.36.13-.95.19-.06.57m7.28 4.48q-.88-.49-1.85-.64-.97-.16-.85.82.1.8.75 1.47.52.53.8-.15.31-.73 1.09-.94.71-.2.06-.56m-3.32 7q-.49-.01-.94-.21a.46.46 0 0 0-.58.2l-.14.27q-.07.12.03.21.77.73 1.68.5.53-.13.86.3l.94 1.2q.46.58.57-.15.17-1.12-.65-1.85-1.08-.97 0-1.97a.49.48-56.4 0 0-.16-.81q-.68-.24-.7-1-.04-1-.95-.58l-1.26.58a1 .99 59.6 0 1-1.22-.32q-.34-.48-.92-.4-.77.1-.16.58 1.74 1.38 2.12 2.27.2.45.36-.01.12-.36.44-.64.88-.74.99.41l.09.98a.4.4 0 0 1-.4.44"/><path fill="#010301" d="M269.02 108.3q-.93.15-1.4.04a1.24 1.23 21.8 0 1-.8-1.84q.25-.43.74-.58.55-.17.84.34.52.9.62 2.04"/><path fill="#010301" d="M269.02 108.3q1.12-.61 1.9-1.77.42-.62.7.08.34.88.08 1.72-.17.53-.7.66-1.43.33-1.98-.69M282.2 111.6a.34.34 0 0 0 .3.53c2.94-.16 5.73 2.38 8.15-.26q.31-.33.44.09.42 1.32-.42 2.16a.83.83 0 0 1-.97.15q-.53-.28-1.09-.31-1.21-.07-.53.93.32.48.45 1.03.2.84-.5.32-.18-.14-.41-.18-.61-.1-1.08.31-.97.88-1.97.19a1.44 1.42-74 0 1-.63-1.15l-.05-1.23a.38.38 0 0 0-.75-.1l-.51 1.7q-.07.24-.29.12l-.55-.29a.43.43 0 0 1-.19-.55q1.06-2.4-.34-4.8-.35-.6.23-.98 1.18-.77.4-2.16-.48-.85.46-.57 1.28.38 2.06 1.3.29.35.73.45.37.08.6-.27.42-.67.63.09l.3 1.09a.62.62 0 0 1-.66.78q-.73-.08-1.26.47-.56.58-.72-.21-.05-.26-.16-.51-.17-.41-.57-.58-.33-.13-.64.05-.32.19-.21.55.31.96-.25 1.84M245.34 106.85q-.2 1.95.64 2.44.06 1.84-2.06 1.14a1.04 1.04 0 0 1-.71-1.13q.11-.8-.52-1.23-.82-.55.17-.52 1.17.04 2.48-.7"/><path fill="#010301" d="M288.6 109.84q1.26.56 2.74.4.67-.07.34.51-.08.15-.23.23a.35.34 45.8 0 1-.34-.01q-1.19-.76-2.26.26-.78.74-1.82.47-.87-.22.01-.41.98-.2 1.26-1.31a.22.22 0 0 1 .3-.14M292.07 116.08q-1.13 2.64-4.25 3.04-.67.08-.46.73l.47 1.48q.19.6.76.32 1.05-.52 1.68-1.64.22-.39.53-.08l.25.25q.2.21.02.43-.52.69-.76 1.52-.14.49-.54.81-1.47 1.15-1.98 3.04-.12.46-.6.54-1 .19-1.56-.68-.44-.69.37-.76.39-.03.59-.71v-.03l-.07-4.62q-.01-.48-.49-.49-1.25-.03-1.66-.85 1.9-.66 4.1-.87 1.6-.16 2.17-1.54.2-.47.7-.41.39.04.73.52M293.05 127.79l-6.49 18.45-2.69-2.26a1.31 1.31 0 0 0-2.03.44q-1.27 2.66-4.56 1.48-.52-.18-.34-.69.58-1.7-1.22-2.44-.2-.08-.16-.28l.05-.31q.04-.2.2-.09.53.38 1.19.56.46.13.36.6-.26 1.32.8 2.14.32.25.68.05.68-.38 1.13-.88a.44.44 0 0 0-.23-.72l-.4-.09q-.58-.12-.08-.43l2.04-1.28q.52-.33.8.22.34.66 1.1.71.6.03.91-.48.68-1.09 1.99-.65.41.14.77-.09.96-.59.49-1.72-.17-.41.13-.73l.24-.25q.44-.49.05-1.02l-.24-.34q-.4-.54-.99-.23-.88.46-1.85.56-.65.08-.7.73-.03.47.29.82a.55.55 0 0 1-.16.86q-.6.31-1.27.41-.91.14-.37-.61.82-1.15.55-2.56a.89.89 0 0 1 .51-.99l2.03-.89q.55-.25.63-.84.07-.51-.07-1.02-.17-.56.39-.72.6-.18.92.34.5.8.9 1.77.21.52-.32.72-.54.2-.84.68-.42.68.37.63c1.87-.13 3.04-2.46 1.59-3.72q-.47-.41.12-.61l.96-.32q.77-.25.74-1.06-.04-1.16-.63-2.01-.31-.46-.75-.12-1.3 1.02-2.53 2.1-.4.35-.93.41-.71.08-.95-.59a.95.95 0 0 0-1.04-.61q-.96.14-.98 1.12-.04 1.34.74 2.21.43.48-.21.47-.7 0-1.07-.58-.27-.43-.21-.95.14-1.14-.15-2.17a1.28 1.28 0 0 1 .73-1.52q1.32-.56 2.04.47.24.34.56.09 1.79-1.33 3.89-1.94a.61.61 0 0 0 .15-1.11q-.18-.11-.24-.31-.27-.97.46-.27 1.07 1.03 3.2 1.46"/><path fill="#010301" d="M277.24 135.11a.12.12 0 0 1-.02-.17l.04-.05a2.5 2.32 37.8 0 1 3.4-.3l.23.18a2.5 2.32 37.8 0 1 .56 3.37l-.04.05a.12.12 0 0 1-.17.02z"/><path fill="#144104" d="M254.01 139.88q.05 1.34 1.32 1.47.68.08 1.13-.45.23-.27.6-.31a.54.53 4.2 0 1 .57.66l-.53 2.24a.49.49 0 0 1-.66.34q-3.09-1.27-3.6-3.8-.08-.4.31-.51l.26-.07a.47.47 0 0 1 .6.43"/><path fill="#010301" d="M272 143.74q-1.26.54-2.38-.05-.69-.37.03-.68c1.12-.5 4.09-.97 4.72.61q.13.33.28.76.33.91-.54.49-.66-.31-1.13-.89a.84.84 0 0 0-.98-.24M261.86 143.17q.19-.03.36-.13.31-.18.63-.01 2.26 1.28 3.04 3.19.28.68-.45.76l-.36.03a.99.98 76.5 0 1-1.02-.63q-.76-2-2.26-2.64-.89-.38.06-.57M269.02 148.78q-.78.21-1.09.94-.28.68-.8.15-.65-.67-.75-1.47-.12-.98.85-.82.97.15 1.85.64.65.36-.06.56M279.53 153.73q-2.66-.59-4.47 1.6a.49.49 0 0 0 .38.81l2.33-.01q.28 0 .23.27l-.06.31q-.04.25-.29.2-1.12-.25-2.29.08-.57.15-.32.7.56 1.22 1.76 1.83.46.23.73.66l.58.91q.09.15-.06.24-.15.1-.3.08-.17-.03-.28-.14-.88-.89-2.01-1.47-.47-.25-.54-.78l-.08-.66q-.08-.66-.64-1.01-.5-.31-.42-.99a1.1 1.08 30.8 0 0-.21-.8q-2.49-3.29.41-6.03a.78.78 0 0 1 1.12.04l2.18 2.41q.33.36.81.48 1.24.29 1.44 1.27m-5.14-1.9q-.36 1.03-.36 2.13a.57.56-9.1 0 0 .75.54q2.18-.77.92-2.57-.29-.41-.79-.45-.39-.02-.52.35"/><path fill="#010301" d="M285.09 152.21q-.38 6.23-2.94 10.13-.45.06-.74.04-.6-.05-.42-.62.4-1.24-.91-1.39-.42-.05-.21-.41 1.17-1.98 1.15-4.64 0-.53-.51-.35-.78.28-1.12 1.13a.5.49-70.4 0 1-.61.29q-.12-.04-.22-.13-.19-.18.01-.35 1.14-1 .96-2.18.59.21 1.05-.03a.91.9 78.7 0 0 .48-.73l.2-2.59q.04-.47.52-.49 1.54-.05 3.04.37.82.22.04.55-.82.34-1.7.15-.53-.11-.81.36-.51.87-.41 2.02.05.53.49.75.52.27 1.08-.01.44-.22.48-.71.03-.29-.15-.51-.39-.48.17-.73.4-.18 1.08.08M266.16 154.78l-.09-.98q-.11-1.15-.99-.41-.32.28-.44.64-.16.46-.36.01-.38-.89-2.12-2.27-.61-.48.16-.58.58-.08.92.4a1 .99 59.6 0 0 1.22.32l1.26-.58q.91-.42.95.58.02.76.7 1a.49.48-56.4 0 1 .16.81q-1.08 1 0 1.97.82.73.65 1.85-.11.73-.57.15l-.94-1.2q-.33-.43-.86-.3-.91.23-1.68-.5-.1-.09-.03-.21l.14-.27a.46.46 0 0 1 .58-.2q.45.2.94.21a.4.4 0 0 0 .4-.44"/><path fill="#144104" d="M274.39 151.83q.13-.37.52-.35.5.04.79.45 1.26 1.8-.92 2.57a.57.56-9.1 0 1-.75-.54q0-1.1.36-2.13"/></svg>