<svg xmlns="http://www.w3.org/2000/svg" viewBox="0 0 382 382"><g fill="none" stroke-width="2"><path stroke="#30734e" d="M218.26 78.68q-.88 2.04 1.18 2.58.53.14.53.69 0 .86-.85 1.4-.77.48-1.6.88-.82.41 0 .8.25.12.14.5-.15.48-.65.42-.27-.04-.47.15-.38.35-.41.87-.04.79-.37 1.45-.19.36-.57.54-2.09.96-4.41 1.52-.06.01-.05.07l.05.25q.09.48.57.36 1.72-.4 2.95.38.67.43.62-.36-.02-.42.2-.76.37-.58.83-.06 1.13 1.27 1.77 2.99a.55.51 2 0 0 .31.31q1.39.52.09-1.25a.83.83 0 0 1 .13-1.11q.86-.74.09-1.65c-.23-.27-.35-.76-.28-1.11q.13-.61.61-.22.73.6 1.63.75a.5.5 0 0 1 .33.78l-.49.7q-.43.62.32.6 1.53-.04 2.86-.87a.6.59-35.8 0 1 .77.12q1.08 1.24.89 2.85-.38 3.08.6 5.23.22.49-.31.56-1.03.13-1.77.85-.52.5-.11 1.09.52.75 1.38.59a2.89 2.37-9.7 0 1 3.29 1.87q.14.86-.57 1.62-.75.8.35.82.21.01.41.08.52.2.6.75.32 2.15 1.71 4.23.34.5.57-.06.64-1.53-.43-2.77-.46-.53-.56-1.22-.17-1.2.43-2.15.46-.74-.41-.71-.7.03-1.14-.47a.72.71 47.3 0 1 .04-1q.84-.8 1-1.97.08-.59.63-.36.24.1.36.35a.46.46 0 0 0 .85-.04q.18-.48-.09-1a.94.91 79.6 0 0-.66-.47q-1.15-.19-1.34-1.31A.92.91 87.9 0 0 229 97q-.7-.08-.92-.68a.8.79 55.6 0 1 .14-.79l4.34-5.17q.32-.38.81-.43 1.51-.15 1.72 1.31.09.64.65.31.83-.49 1.48-1.8M252.31 102.17q-.09 1.75-.81 3.16-.39.76.46.7.32-.03.59.17a.71.7 28.5 0 1 .25.83q-1.32 3.3-.54 7.12.32 1.58.54-.02l.73-5.46q.09-.66.57-1.13 1.6-1.54.1-3.05-.17-.17-.04-.37.08-.12.21-.17.48-.2.67.28.32.82.98 1.29.7.5.39-.3l-.49-1.3M270.52 105.67q-.72 1.22-2.02 1.56a.27.27 0 0 0-.16.4l.22.37q.32.55-.12 1l-1.67 1.76q-.51.53-1.15.16-.5-.3-1.02-.52-.87-.37-.25.35 1.09 1.27 2.3 2.32.49.42.27 1.03-.85 2.39-1.01 5.13a.72.71 5.1 0 0 .63.75l.29.04a1.02 1.01 10.2 0 0 1.11-.77q.3-1.26 1.42-2.12.19-.15.33.06l.18.27q.13.2-.05.36-.56.51-.73 1.28-.15.69.49.4 1.4-.66 3.17-.5.29.03.33-.26l.03-.26q0-.07-.06-.08-.8-.15-1.53-.49-.51-.24-.45-.8.2-1.91-.77-3.54a.36.36 0 0 1 .24-.53q1.88-.41 2.5 1.23.22.6.86.66 1.25.13 2.34.63.86.4.69-.54-.06-.32.14-.58.59-.74.76.19.23 1.33.72 2.35.29.6-.04 1.18-.33.55.08 1.02.5.57.16 1.25-1.37 2.69-3.56 4.47" vector-effect="non-scaling-stroke"/><path stroke="#51146c" d="m259.56 125.95.28-.15q.24-.12.11-.36-.08-.15-.29-.17-.2-.01-.29.13-.09.17-.04.44" vector-effect="non-scaling-stroke"/><path stroke="#14482d" d="m243.75 135.38-2.95-.14q-.74-.04-.17.44.62.52 1.87.31" vector-effect="non-scaling-stroke"/><path stroke="#30734e" d="M225.7 142.97q1.3-1.62 3.92-3.33.59-.38.54-1.03-.06-.67-.54-.2l-4.79 4.72M206.83 143.81q-.97-1.03-.72-1.58a.48.47 43.5 0 1 .85-.02q.39.71 1.09 1.16.4.27.8.02 1.39-.85 2.38-2.29" vector-effect="non-scaling-stroke"/><path stroke="#51146c" d="M211.23 141.1q.22-.12 1.23.35.62.29.49-.37-.02-.13.01-.25.12-.46.43-.8c1.67-1.81 3.27-3.26 4.73-5.38q2.08-3.01 5.29-5.42.05-.04.12-.04.14 0 .26.06.46.26.9-.02 4.66-2.96 10.87-1.99 1.03.16 2.06-.03 1.59-.29 1.19-.73-.17-.19-.36-.01-.16.14-.36.23a1.28 1.25 41.6 0 1-.82.04q-6.75-1.92-13.38.4-.48.17-.77.58l-1.33 1.85q-.3.42-.61.01-.16-.2-.42-.21-.4-.02-.63.32-3.4 5.1-7.55 9.84-.31.35-.74.55l-1.37.62" vector-effect="non-scaling-stroke"/><path stroke="#30734e" d="m210.47 140.7-1.98 1.04a1.15 1.05 25.6 0 1-.46.14q-.64.06-1.1-.33-.42-.34-.87-.05-.51.32-.75.87-.27.6-.92.43-.34-.1-.49-.45a.76.76 0 0 0-.85-.45q-1.76.35-2.29-1.17-.26-.76-.64-.05-.42.8-.03 2.27M198.73 142.79q.69-1.7-1.79-2.96a1.28 1.27 32.4 0 1-.43-1.92q.29-.38.31-.79.09-1.82-.84-.26-.65 1.09-.89 2.54-.07.41-.49.48-.26.05-.44-.15-.17-.2-.2-.45-.23-1.86.55-3.54.29-.64-.27-.22l-1.68 1.24a.41.41 0 0 1-.66-.33q0-1.68.62-3.21c.74-1.82-.15-4.45-1.03-6.02q-1.51-2.68-.83.32.53 2.37.19 5.05a.65.65 0 0 1-.97.49q-2.04-1.13-3.39-2.7-.19-.22-.35.02-.21.3.12.46 2.75 1.36.97 3.61-.48.61.3.61l.73.01q1.1 0 .37.82l-.63.7a.57.57 0 0 1-.99-.38q0-1.26-1.23-1.29a.44.43 17.6 0 1-.36-.68q1.25-1.86-.9-3.18-.81-.5-.14-1.16.85-.85 2.2-.88.14-.01.23-.11.12-.14.08-.3-.08-.34-.42-.43l-.86-.23q-.48-.12-.52-.61l-.26-2.58q-.06-.64-.69-.76-1.11-.21-1.85-1.23-.36-.49-.13-1.06c1.08-2.67 1.33-5.63 4.31-6.89q.55-.23.55-.82l.02-1.5a.41.41 0 0 1 .68-.3q1.65 1.48 2.62 3.4.11.22.34.15.05-.02.08-.07.1-.18.04-.38-1.14-3.88-2.53-7.87c-.29-.83.17-1.61.81-2.1q.46-.35.8.11.15.21.41.28.74.21.52-.53c-.31-.97-.81-1.79-.6-2.86q.66-3.35 1.35-6.8.13-.64-.43-.31-.46.28-.59.84-1.01 4.23-3.42 5.86" vector-effect="non-scaling-stroke"/><path stroke="#51146c" d="M187.12 101.92q-.86.25-.92.58a.24.24 0 0 0 .34.25q.34-.17.58-.54" vector-effect="non-scaling-stroke"/><path stroke="#30734e" d="M187.12 102.21q.6-.21.93.44a.82.81 64.3 0 1-.39 1.12l-1.84.81q-.6.27-1.01-.25-.9-1.13-2.28-1.38-.85-.16-.28.5 1.85 2.15 2.35 5.1a.89.89 0 0 1-1.09 1.02q-2.16-.52-3.71-2.21-.54-.6-.75.18-.1.4-.16.78-.17 1.07-.77.16-.89-1.36-.53-2.71.14-.53-.15-.98-.36-.55-.25-1.16.1-.53.62-.69.32-.09.58-.3.8-.65-.22-.6l-.58.03q-.35.02-.48-.32-.14-.35.26-.61a.25.17 11.6 0 1 .1-.04l.75-.09q.6-.08.39-.65-.26-.69-.88-1.05-.49-.28-.76.21-.17.3-.5.31-.42.02-.41-.4.07-2.11-1.79-3.78-.34-.31-.35.15-.05 1.21.35 2.26.19.49-.1.92l-.77 1.2q-.4.6.2 1.01.87.59 1.33 1.52a.76.75-13.9 0 1-.66 1.09q-1.22.03-1.31 1.28-.11 1.44-1.09.38-.59-.65-.81-1.54-.18-.76-.92-.49-.86.31-1.61-.21-.68-.46-.27.25.92 1.61 1.58 3.25a1.64 1.52-10.1 0 1-1.59 2.1q-.56 0-.86.43-.32.47.23.58 1.35.26 1.42 1.49.03.49-.42.67-.35.14-.31.53.07.57.48.17l.33-.33q.39-.39.79-.01l.54.5q.34.32.23.78-.59 2.57-2.88 2.49-.55-.02-.97.29-.57.44-.39 1.05M164.19 105.68q.81-.75 1.12-1.77.17-.56-.34-.27l-1.02.58M161.94 96.91q4.52-1.31 5.83-5.74a.19.19 0 0 0-.14-.24q-2.37-.57-2.69 1.6a.4.39 6.1 0 1-.43.34l-.26-.02a.33.32 6.6 0 1-.3-.37q.31-2.12-.61-3.95-.34-.68.41-.57.99.16 1.9-.02.61-.13.42-.72l-.67-2.07q-.15-.49.04-.96.65-1.55.56-3.31-.02-.43.33-.67.28-.2.33-.54.12-.99-.55-.25-.1.11-.14.27-.19.85-.67.11-.13-.2-.33-.34-.41-.28-.83-.02-.89.55-1.64-.53" vector-effect="non-scaling-stroke"/><path stroke="#14482d" d="M175 77.13q0 .52.5.47.53-.06.66-.54" vector-effect="non-scaling-stroke"/><path stroke="#30734e" d="m178.33 76.89-.21 2.12q-.05.52.35.85.26.21.6.2.94-.03.39-.8-.4-.57-.17-1.21.11-.32.33-.58.38-.47.05-.71" vector-effect="non-scaling-stroke"/><path stroke="#14482d" d="M182.25 76.41q.85.83 1.55-.23" vector-effect="non-scaling-stroke"/><path stroke="#30734e" d="M295.02 107.86q-.26 2.03.58 3.61a.5.5 0 0 1-.06.56l-.21.24q-.62.75.35.77l1.55.04q.94.02.37-.72-1.46-1.92.76-3.09M301.75 111.23q.21 1.45 2.02 2.9M303.67 114.54l-.01 3.42M303.65 118.71q.03.6-1.42 1.54a.67.67 0 0 0-.26.81q.35.9 1.13 1.7M302.85 124.51q-1.13 1.15-.76 2.93M289.04 123.6l-1.29-.02" vector-effect="non-scaling-stroke"/><path stroke="#8187ba" d="M187.12 102.21v-.29M211.23 141.1q-.16.12-.76-.4" vector-effect="non-scaling-stroke"/><path stroke="#30734e" d="m157.46 79.11-4.71.03M145.46 79.14l-3.5-.07" vector-effect="non-scaling-stroke"/><path stroke="#51146c" d="M189.27 78.54q.01.06.07.09.22.08.18-.15-.01-.1-.11-.11a.13.13 0 0 0-.14.17" vector-effect="non-scaling-stroke"/><path stroke="#6b3b1a" d="M192.55 80.678a.73.44 85.3 0 0 .379-.764.73.44 85.3 0 0-.499-.692.73.44 85.3 0 0-.379.764.73.44 85.3 0 0 .499.691" vector-effect="non-scaling-stroke"/><path stroke="#30734e" d="M197.27 79.47q-.08.17.12.17.15.01.19-.18a.12.11-75.4 0 0-.07-.13q-.25-.07-.32.12-.05.13.03.03.01-.02.03-.03.06-.07.02.02" vector-effect="non-scaling-stroke"/><path stroke="#14482d" d="M202.55 79.38q-.45-.2-.36.29a.26.26 0 0 0 .48.08q.15-.25-.12-.37" vector-effect="non-scaling-stroke"/><path stroke="#51146c" d="M210.47 79.62q.09.16.2.04a.18.17-31.1 0 0 .05-.19q-.07-.17-.22-.04-.09.08-.03.19" vector-effect="non-scaling-stroke"/><path stroke="#6b3b1a" d="M173.74 82.97q-.15.12-.23.29-.47.89.23.17.85-.88 1.79-1.69.21-.18.06-.41l-.15-.24q-.21-.33-.49-.05-.61.61-.86 1.42-.1.31-.35.51" vector-effect="non-scaling-stroke"/><path stroke="#51146c" d="M209.41 82.97q.32-.19.31-.59-.02-.49-.38-.17-1.02.9-1.16 2.24-.07.75.4.15.35-.44.45-1.06.06-.37.38-.57" vector-effect="non-scaling-stroke"/><path stroke="#14482d" d="M202.7 82.75q.41.13.78-.19.31-.27-.09-.33-.34-.06-.66 0-1.1.19-.03.52" vector-effect="non-scaling-stroke"/><path stroke="#51146c" d="M175.1 83.49q-.15.48.04.89.44.95.57-.09.06-.5-.26-.87a.2.2 0 0 0-.35.07M189.24 83.53q-.28.55.02 1.13.23.44.51.02.39-.61 0-1.19a.31.31 0 0 0-.53.04" vector-effect="non-scaling-stroke"/><path stroke="#6b3b1a" d="M199.255 85.996a1.26.32 38.6 0 0-.785-1.036 1.26.32 38.6 0 0-1.185-.536 1.26.32 38.6 0 0 .785 1.036 1.26.32 38.6 0 0 1.185.536M174.79 86.28q-.29-.33-.46.09a.27.27 0 0 0 .46.28q.17-.19 0-.37M194.746 87.726a.84.36 73.7 0 0 .11-.907.84.36 73.7 0 0-.582-.705.84.36 73.7 0 0-.11.907.84.36 73.7 0 0 .582.705M201.775 86.753a.97.34 17.6 0 0-.822-.617.97.34 17.6 0 0-1.028.03.97.34 17.6 0 0 .822.618.97.34 17.6 0 0 1.028-.03" vector-effect="non-scaling-stroke"/><path stroke="#14482d" d="M172.31 86.6q.11.07.19-.03a.15.14-55.2 0 0-.03-.2q-.06-.04-.13-.02-.27.09-.03.25" vector-effect="non-scaling-stroke"/><path stroke="#6b3b1a" d="M189.51 86.35q-.07-.03-.12.03-.08.09-.05.21.05.19.23.24a.29.29 0 0 0 .3-.45q-.12-.15-.26-.04-.05.03-.1.01" vector-effect="non-scaling-stroke"/><path stroke="#51146c" d="M205.64 86.28q-.27 0-.44.21a.18.18 0 0 0 .11.29q.37.08.49-.28.08-.23-.16-.22M176.44 87.41h-.1q-.11.01-.07.11.02.05.05.1.04.05.1.04.11-.01.13-.12.03-.14-.11-.13M190.18 88.52a.22.21-82.7 0 0 .19.26q.3.04.36-.22.06-.21-.14-.3-.33-.16-.41.26M175.23 89.45q-.12.45.31.29.17-.06.19-.26.03-.25-.22-.24-.23.02-.28.21M200.224 94.014a.26.26 0 0 0-.02-.367l-3.7-3.332a.26.26 0 0 0-.367.019l-.281.312a.26.26 0 0 0 .02.367l3.7 3.332a.26.26 0 0 0 .367-.019l.281-.312" vector-effect="non-scaling-stroke"/><path stroke="#30734e" d="M210.09 91.09q.14-.41-.91.14a.19.19 0 0 0 .05.36q.66.14.86-.5" vector-effect="non-scaling-stroke"/><path stroke="#51146c" d="M207.82 91.616a1.56.32-24.4 0 0-1.552.353 1.56.32-24.4 0 0-1.289.935 1.56.32-24.4 0 0 1.553-.353 1.56.32-24.4 0 0 1.289-.935M171.31 92.51q-.04.21.18.21.18 0 .23-.15.1-.34-.25-.26-.14.03-.16.2M191.44 92.79q.2.01.25-.25a.12.12 0 0 0-.18-.13q-.22.12-.17.31.02.07.1.07M203.97 93.56q.22-.19-.03-.35-.46-.3-.82.27-.21.34.19.34.37.01.66-.26M201.53 94.715a.71.52 83.5 0 0 .437-.764.71.52 83.5 0 0-.597-.646.71.52 83.5 0 0-.437.764.71.52 83.5 0 0 .597.646" vector-effect="non-scaling-stroke"/><path stroke="#30734e" d="M173.958 95.1a.5.26 54.9 0 0-.075-.56.5.26 54.9 0 0-.5-.26.5.26 54.9 0 0 .074.56.5.26 54.9 0 0 .5.26M223.17 94.53q-.36.52.05.93a.34.34 0 0 0 .57-.14q.11-.35.01-.69a.35.35 0 0 0-.63-.1M230.28 95.02q.25-.11.25-.43 0-.37-.3-.16-.59.42-.95 1.02-.26.43.22.32.39-.08.53-.47a.49.45-5.3 0 1 .25-.28" vector-effect="non-scaling-stroke"/><path stroke="#51146c" d="M233.297 95.845a.93.6 53.2 0 0-.077-1.104.93.6 53.2 0 0-1.037-.386.93.6 53.2 0 0 .077 1.104.93.6 53.2 0 0 1.037.386" vector-effect="non-scaling-stroke"/><path stroke="#30734e" d="M166.7 96.76q.18-.21-.01-.41-.14-.13-.33-.08-.27.08-.21.36a.32.31-31.5 0 0 .55.13M231.767 97.869a.5.41 59.1 0 0 .095-.64.5.41 59.1 0 0-.609-.218.5.41 59.1 0 0-.095.64.5.41 59.1 0 0 .609.218" vector-effect="non-scaling-stroke"/><path stroke="#51146c" d="M221.25 98.36q-.2.21.07.3.22.07.33-.15.08-.16.01-.28-.1-.18-.41.13M180.3 101.65q.19.08.24-.11.1-.32-.19-.15-.08.04-.11.13-.02.09.06.13" vector-effect="non-scaling-stroke"/><path stroke="#30734e" d="M267.488 106.598a1.04.44 3.2 0 0-1.013-.497 1.04.44 3.2 0 0-1.063.38 1.04.44 3.2 0 0 1.013.498 1.04.44 3.2 0 0 1.063-.38" vector-effect="non-scaling-stroke"/><path stroke="#51146c" d="M263.778 106.292a1.01.24-42.2 0 0-.91.5 1.01.24-42.2 0 0-.586.856 1.01.24-42.2 0 0 .91-.5 1.01.24-42.2 0 0 .586-.856" vector-effect="non-scaling-stroke"/><path stroke="#30734e" d="M181.461 107.885a.38.3 80.7 0 0 .235-.424.38.3 80.7 0 0-.357-.326.38.3 80.7 0 0-.235.423.38.3 80.7 0 0 .357.327" vector-effect="non-scaling-stroke"/><path stroke="#51146c" d="M227.74 107.39q-.05-.05-.12-.04-.38.06-.06.27.04.03.09.03.08.01.09-.06l.02-.11q.02-.05-.02-.09M240.28 117.75l-5.47-2.04a1.01.97 84 0 1-.5-.42q-1.09-1.81-2.76-3.38-.05-.04-.09-.01l-.22.16q-.17.12-.05.29.83 1.15 1.68 2.38c1.17 1.69 4.29 2.75 6.11 3.7a2.34 2.33 48.6 0 0 1.87.12q1.36-.49.93-1.03a.25.25 0 0 0-.32-.07l-.56.27q-.3.15-.62.03" vector-effect="non-scaling-stroke"/><path stroke="#30734e" d="M265.9 113.57a.32.32 0 0 0-.32-.32.32.32 0 0 0-.32.32.32.32 0 0 0 .32.32.32.32 0 0 0 .32-.32" vector-effect="non-scaling-stroke"/><path stroke="#51146c" d="M253.03 116.49q-.06.68.42 1.2.41.46.47-.16.05-.67-.42-1.2-.42-.47-.47.16M189.902 118.382a.4.33-11.3 0 0-.457-.246.4.33-11.3 0 0-.327.402.4.33-11.3 0 0 .457.246.4.33-11.3 0 0 .327-.402" vector-effect="non-scaling-stroke"/><path stroke="#14482d" d="M187.7 118.39q-.15-.22-.41.04-.23.23.09.28.61.1.32-.32" vector-effect="non-scaling-stroke"/><path stroke="#51146c" d="M246.58 120.36q.35.24.43.68a1.05 1.03 8.2 0 0 .54.71q2.17 1.08 3.73 3.1.22.28.48.04l.19-.18a.2.19-44 0 0 .01-.28q-2.04-2.07-4.12-4.09c-1.25-1.22-2.86-1.37-4.42-2.02q-.94-.39-.26.37 1.06 1.19 2.73 1.4.38.05.69.27M254.26 118.9l-.26.25a.14.14 0 0 0 0 .2l5.45 5.61a.25.22-44.2 0 0 .33-.02l.1-.1a.25.22-44.2 0 0 .03-.33l-5.45-5.6a.14.14 0 0 0-.2-.01" vector-effect="non-scaling-stroke"/><path stroke="#30734e" d="M276.6 119.41q.01-.2-.18-.17-.1.01-.1.11.01.15.16.16.11.01.12-.1M274.77 119.4a.23.23 0 0 0-.23-.23.23.23 0 0 0-.23.23.23.23 0 0 0 .23.23.23.23 0 0 0 .23-.23M189.652 121.528a.57.35 9.9 0 0-.502-.443.57.35 9.9 0 0-.621.247.57.35 9.9 0 0 .5.443.57.35 9.9 0 0 .623-.247" vector-effect="non-scaling-stroke"/><path stroke="#51146c" d="M273.29 121.52q-.02.25.23.24.24 0 .24-.25 0-.22-.22-.22-.24-.01-.25.23" vector-effect="non-scaling-stroke"/><path stroke="#30734e" d="M183.14 122.46q0 .23.15.4a.31.31 0 0 0 .54-.14q.06-.36-.29-.52-.41-.19-.4.26M265.44 126.088a1.58.52 92.9 0 0 .6-1.552 1.58.52 92.9 0 0-.44-1.604 1.58.52 92.9 0 0-.6 1.552 1.58.52 92.9 0 0 .44 1.604" vector-effect="non-scaling-stroke"/><path stroke="#6b3b1a" d="M242.224 126.758a1.08.66-23 0 0-1.252-.185 1.08.66-23 0 0-.736 1.029 1.08.66-23 0 0 1.252.185 1.08.66-23 0 0 .736-1.029M244.79 128.61l2.51.99q1.35.53.34-.51-1.26-1.29-2.76-1.15-1.46.14-.09.67M232.37 137.73c.72-.19 2.17-1.12 2.76-1.61a.3.29-40.1 0 0 .04-.41l-.24-.3a.29.29 0 0 0-.39-.06q-1.26.89-2.38 2.02-.58.58.21.36" vector-effect="non-scaling-stroke"/><path stroke="#14482d" d="M238.975 135.43a1.5.28-4.6 0 0-1.517-.16 1.5.28-4.6 0 0-1.473.4 1.5.28-4.6 0 0 1.517.16 1.5.28-4.6 0 0 1.473-.4" vector-effect="non-scaling-stroke"/></g><path d="M218.26 78.68q-.88 2.04 1.18 2.58.53.14.53.69 0 .86-.85 1.4-.77.48-1.6.88-.82.41 0 .8.25.12.14.5-.15.48-.65.42-.27-.04-.47.15-.38.35-.41.87-.04.79-.37 1.45-.19.36-.57.54-2.09.96-4.41 1.52-.06.01-.05.07l.05.25q.09.48.57.36 1.72-.4 2.95.38.67.43.62-.36-.02-.42.2-.76.37-.58.83-.06 1.13 1.27 1.77 2.99a.55.51 2 0 0 .31.31q1.39.52.09-1.25a.83.83 0 0 1 .13-1.11q.86-.74.09-1.65c-.23-.27-.35-.76-.28-1.11q.13-.61.61-.22.73.6 1.63.75a.5.5 0 0 1 .33.78l-.49.7q-.43.62.32.6 1.53-.04 2.86-.87a.6.59-35.8 0 1 .77.12q1.08 1.24.89 2.85-.38 3.08.6 5.23.22.49-.31.56-1.03.13-1.77.85-.52.5-.11 1.09.52.75 1.38.59a2.89 2.37-9.7 0 1 3.29 1.87q.14.86-.57 1.62-.75.8.35.82.21.01.41.08.52.2.6.75.32 2.15 1.71 4.23.34.5.57-.06.64-1.53-.43-2.77-.46-.53-.56-1.22-.17-1.2.43-2.15.46-.74-.41-.71-.7.03-1.14-.47a.72.71 47.3 0 1 .04-1q.84-.8 1-1.97.08-.59.63-.36.24.1.36.35a.46.46 0 0 0 .85-.04q.18-.48-.09-1a.94.91 79.6 0 0-.66-.47q-1.15-.19-1.34-1.31A.92.91 87.9 0 0 229 97q-.7-.08-.92-.68a.8.79 55.6 0 1 .14-.79l4.34-5.17q.32-.38.81-.43 1.51-.15 1.72 1.31.09.64.65.31.83-.49 1.48-1.8 4.2 3.83 8.25 7.53 1.6 1.46 6.84 4.89-.09 1.75-.81 3.16-.39.76.46.7.32-.03.59.17a.71.7 28.5 0 1 .25.83q-1.32 3.3-.54 7.12.32 1.58.54-.02l.73-5.46q.09-.66.57-1.13 1.6-1.54.1-3.05-.17-.17-.04-.37.08-.12.21-.17.48-.2.67.28.32.82.98 1.29.7.5.39-.3l-.49-1.3c5.21 1.31 9.66 1.15 14.6 1.75q-.72 1.22-2.02 1.56a.27.27 0 0 0-.16.4l.22.37q.32.55-.12 1l-1.67 1.76q-.51.53-1.15.16-.5-.3-1.02-.52-.87-.37-.25.35 1.09 1.27 2.3 2.32.49.42.27 1.03-.85 2.39-1.01 5.13a.72.71 5.1 0 0 .63.75l.29.04a1.02 1.01 10.2 0 0 1.11-.77q.3-1.26 1.42-2.12.19-.15.33.06l.18.27q.13.2-.05.36-.56.51-.73 1.28-.15.69.49.4 1.4-.66 3.17-.5.29.03.33-.26l.03-.26q0-.07-.06-.08-.8-.15-1.53-.49-.51-.24-.45-.8.2-1.91-.77-3.54a.36.36 0 0 1 .24-.53q1.88-.41 2.5 1.23.22.6.86.66 1.25.13 2.34.63.86.4.69-.54-.06-.32.14-.58.59-.74.76.19.23 1.33.72 2.35.29.6-.04 1.18-.33.55.08 1.02.5.57.16 1.25-1.37 2.69-3.56 4.47-7.85 1.89-15.63 1.05l.28-.15q.24-.12.11-.36-.08-.15-.29-.17-.2-.01-.29.13-.09.17-.04.44-2.9-.22-5.82-.5c-2.77-.28-2.36 1.61-3.23 3.18q-2.4 4.38-6.53 6.86l-2.95-.14q-.74-.04-.17.44.62.52 1.87.31-7.54 4.88-16.8 6.98 1.3-1.62 3.92-3.33.59-.38.54-1.03-.06-.67-.54-.2l-4.79 4.72q-8.73 1.41-18 .68-.97-1.03-.72-1.58a.48.47 43.5 0 1 .85-.02q.39.71 1.09 1.16.4.27.8.02 1.39-.85 2.38-2.29.22-.12 1.23.35.62.29.49-.37-.02-.13.01-.25.12-.46.43-.8c1.67-1.81 3.27-3.26 4.73-5.38q2.08-3.01 5.29-5.42.05-.04.12-.04.14 0 .26.06.46.26.9-.02 4.66-2.96 10.87-1.99 1.03.16 2.06-.03 1.59-.29 1.19-.73-.17-.19-.36-.01-.16.14-.36.23a1.28 1.25 41.6 0 1-.82.04q-6.75-1.92-13.38.4-.48.17-.77.58l-1.33 1.85q-.3.42-.61.01-.16-.2-.42-.21-.4-.02-.63.32-3.4 5.1-7.55 9.84-.31.35-.74.55l-1.37.62-1.98 1.04a1.15 1.05 25.6 0 1-.46.14q-.64.06-1.1-.33-.42-.34-.87-.05-.51.32-.75.87-.27.6-.92.43-.34-.1-.49-.45a.76.76 0 0 0-.85-.45q-1.76.35-2.29-1.17-.26-.76-.64-.05-.42.8-.03 2.27-.75.13-1.36-.16.69-1.7-1.79-2.96a1.28 1.27 32.4 0 1-.43-1.92q.29-.38.31-.79.09-1.82-.84-.26-.65 1.09-.89 2.54-.07.41-.49.48-.26.05-.44-.15-.17-.2-.2-.45-.23-1.86.55-3.54.29-.64-.27-.22l-1.68 1.24a.41.41 0 0 1-.66-.33q0-1.68.62-3.21c.74-1.82-.15-4.45-1.03-6.02q-1.51-2.68-.83.32.53 2.37.19 5.05a.65.65 0 0 1-.97.49q-2.04-1.13-3.39-2.7-.19-.22-.35.02-.21.3.12.46 2.75 1.36.97 3.61-.48.61.3.61l.73.01q1.1 0 .37.82l-.63.7a.57.57 0 0 1-.99-.38q0-1.26-1.23-1.29a.44.43 17.6 0 1-.36-.68q1.25-1.86-.9-3.18-.81-.5-.14-1.16.85-.85 2.2-.88.14-.01.23-.11.12-.14.08-.3-.08-.34-.42-.43l-.86-.23q-.48-.12-.52-.61l-.26-2.58q-.06-.64-.69-.76-1.11-.21-1.85-1.23-.36-.49-.13-1.06c1.08-2.67 1.33-5.63 4.31-6.89q.55-.23.55-.82l.02-1.5a.41.41 0 0 1 .68-.3q1.65 1.48 2.62 3.4.11.22.34.15.05-.02.08-.07.1-.18.04-.38-1.14-3.88-2.53-7.87c-.29-.83.17-1.61.81-2.1q.46-.35.8.11.15.21.41.28.74.21.52-.53c-.31-.97-.81-1.79-.6-2.86q.66-3.35 1.35-6.8.13-.64-.43-.31-.46.28-.59.84-1.01 4.23-3.42 5.86-.86.25-.92.58a.24.24 0 0 0 .34.25q.34-.17.58-.54.6-.21.93.44a.82.81 64.3 0 1-.39 1.12l-1.84.81q-.6.27-1.01-.25-.9-1.13-2.28-1.38-.85-.16-.28.5 1.85 2.15 2.35 5.1a.89.89 0 0 1-1.09 1.02q-2.16-.52-3.71-2.21-.54-.6-.75.18-.1.4-.16.78-.17 1.07-.77.16-.89-1.36-.53-2.71.14-.53-.15-.98-.36-.55-.25-1.16.1-.53.62-.69.32-.09.58-.3.8-.65-.22-.6l-.58.03q-.35.02-.48-.32-.14-.35.26-.61a.25.17 11.6 0 1 .1-.04l.75-.09q.6-.08.39-.65-.26-.69-.88-1.05-.49-.28-.76.21-.17.3-.5.31-.42.02-.41-.4.07-2.11-1.79-3.78-.34-.31-.35.15-.05 1.21.35 2.26.19.49-.1.92l-.77 1.2q-.4.6.2 1.01.87.59 1.33 1.52a.76.75-13.9 0 1-.66 1.09q-1.22.03-1.31 1.28-.11 1.44-1.09.38-.59-.65-.81-1.54-.18-.76-.92-.49-.86.31-1.61-.21-.68-.46-.27.25.92 1.61 1.58 3.25a1.64 1.52-10.1 0 1-1.59 2.1q-.56 0-.86.43-.32.47.23.58 1.35.26 1.42 1.49.03.49-.42.67-.35.14-.31.53.07.57.48.17l.33-.33q.39-.39.79-.01l.54.5q.34.32.23.78-.59 2.57-2.88 2.49-.55-.02-.97.29-.57.44-.39 1.05l-2.25-11.78q.81-.75 1.12-1.77.17-.56-.34-.27l-1.02.58-2.01-7.31q4.52-1.31 5.83-5.74a.19.19 0 0 0-.14-.24q-2.37-.57-2.69 1.6a.4.39 6.1 0 1-.43.34l-.26-.02a.33.32 6.6 0 1-.3-.37q.31-2.12-.61-3.95-.34-.68.41-.57.99.16 1.9-.02.61-.13.42-.72l-.67-2.07q-.15-.49.04-.96.65-1.55.56-3.31-.02-.43.33-.67.28-.2.33-.54.12-.99-.55-.25-.1.11-.14.27-.19.85-.67.11-.13-.2-.33-.34-.41-.28-.83-.02-.89.55-1.64-.53l12.5-1.78q0 .52.5.47.53-.06.66-.54 1.01-.4 2.17-.17l-.21 2.12q-.05.52.35.85.26.21.6.2.94-.03.39-.8-.4-.57-.17-1.21.11-.32.33-.58.38-.47.05-.71 1.25-.56 2.58-.35.85.83 1.55-.23 10.4-.33 20.95-.04 6.9.19 13.51 2.54m-28.99-.14q.01.06.07.09.22.08.18-.15-.01-.1-.11-.11a.13.13 0 0 0-.14.17m3.28 2.137a.73.44 85.3 0 0 .379-.763.73.44 85.3 0 0-.499-.692.73.44 85.3 0 0-.379.764.73.44 85.3 0 0 .499.691m4.72-1.207q-.08.17.12.17.15.01.19-.18a.12.11-75.4 0 0-.07-.13q-.25-.07-.32.12-.05.13.03.03.01-.02.03-.03.06-.07.02.02m5.28-.09q-.45-.2-.36.29a.26.26 0 0 0 .48.08q.15-.25-.12-.37m7.92.24q.09.16.2.04a.18.17-31.1 0 0 .05-.19q-.07-.17-.22-.04-.09.08-.03.19m-36.73 3.35q-.15.12-.23.29-.47.89.23.17.85-.88 1.79-1.69.21-.18.06-.41l-.15-.24q-.21-.33-.49-.05-.61.61-.86 1.42-.1.31-.35.51m35.67 0q.32-.19.31-.59-.02-.49-.38-.17-1.02.9-1.16 2.24-.07.75.4.15.35-.44.45-1.06.06-.37.38-.57m-6.71-.22q.41.13.78-.19.31-.27-.09-.33-.34-.06-.66 0-1.1.19-.03.52m-27.6.74q-.15.48.04.89.44.95.57-.09.06-.5-.26-.87a.2.2 0 0 0-.35.07m14.14.04q-.28.55.02 1.13.23.44.51.02.39-.61 0-1.19a.31.31 0 0 0-.53.04m10.015 2.466a1.26.32 38.6 0 0-.785-1.036 1.26.32 38.6 0 0-1.185-.536 1.26.32 38.6 0 0 .785 1.036 1.26.32 38.6 0 0 1.185.536m-24.465.284q-.29-.33-.46.09a.27.27 0 0 0 .46.28q.17-.19 0-.37m19.956 1.446a.84.36 73.7 0 0 .11-.907.84.36 73.7 0 0-.582-.705.84.36 73.7 0 0-.11.907.84.36 73.7 0 0 .582.705m7.029-.973a.97.34 17.6 0 0-.822-.617.97.34 17.6 0 0-1.028.03.97.34 17.6 0 0 .822.618.97.34 17.6 0 0 1.028-.03M172.31 86.6q.11.07.19-.03a.15.14-55.2 0 0-.03-.2q-.06-.04-.13-.02-.27.09-.03.25m17.2-.25q-.07-.03-.12.03-.08.09-.05.21.05.19.23.24a.29.29 0 0 0 .3-.45q-.12-.15-.26-.04-.05.03-.1.01m16.13-.07q-.27 0-.44.21a.18.18 0 0 0 .11.29q.37.08.49-.28.08-.23-.16-.22m-29.2 1.13h-.1q-.11.01-.07.11.02.05.05.1.04.05.1.04.11-.01.13-.12.03-.14-.11-.13m13.74 1.11a.22.21-82.7 0 0 .19.26q.3.04.36-.22.06-.21-.14-.3-.33-.16-.41.26m-14.95.93q-.12.45.31.29.17-.06.19-.26.03-.25-.22-.24-.23.02-.28.21m24.994 4.564a.26.26 0 0 0-.02-.367l-3.7-3.332a.26.26 0 0 0-.367.019l-.281.312a.26.26 0 0 0 .02.367l3.7 3.332a.26.26 0 0 0 .367-.019zm9.866-2.924q.14-.41-.91.14a.19.19 0 0 0 .05.36q.66.14.86-.5m-2.27.526a1.56.32-24.4 0 0-1.552.353 1.56.32-24.4 0 0-1.289.935 1.56.32-24.4 0 0 1.553-.353 1.56.32-24.4 0 0 1.289-.935m-36.51.894q-.04.21.18.21.18 0 .23-.15.1-.34-.25-.26-.14.03-.16.2m20.13.28q.2.01.25-.25a.12.12 0 0 0-.18-.13q-.22.12-.17.31.02.07.1.07m12.53.77q.22-.19-.03-.35-.46-.3-.82.27-.21.34.19.34.37.01.66-.26m-2.44 1.155a.71.52 83.5 0 0 .437-.764.71.52 83.5 0 0-.597-.646.71.52 83.5 0 0-.437.764.71.52 83.5 0 0 .597.646m-27.572.384a.5.26 54.9 0 0-.075-.559.5.26 54.9 0 0-.5-.26.5.26 54.9 0 0 .074.56.5.26 54.9 0 0 .5.26m49.212-.569q-.36.52.05.93a.34.34 0 0 0 .57-.14q.11-.35.01-.69a.35.35 0 0 0-.63-.1m7.11.49q.25-.11.25-.43 0-.37-.3-.16-.59.42-.95 1.02-.26.43.22.32.39-.08.53-.47a.49.45-5.3 0 1 .25-.28m3.017.825a.93.6 53.2 0 0-.077-1.104.93.6 53.2 0 0-1.037-.386.93.6 53.2 0 0 .077 1.104.93.6 53.2 0 0 1.037.386m-66.597.915q.18-.21-.01-.41-.14-.13-.33-.08-.27.08-.21.36a.32.31-31.5 0 0 .55.13m65.067 1.109a.5.41 59.1 0 0 .095-.64.5.41 59.1 0 0-.609-.218.5.41 59.1 0 0-.095.64.5.41 59.1 0 0 .609.218m-10.517.491q-.2.21.07.3.22.07.33-.15.08-.16.01-.28-.1-.18-.41.13m-40.95 3.29q.19.08.24-.11.1-.32-.19-.15-.08.04-.11.13-.02.09.06.13m87.188 4.948a1.04.44 3.2 0 0-1.013-.497 1.04.44 3.2 0 0-1.063.38 1.04.44 3.2 0 0 1.013.498 1.04.44 3.2 0 0 1.063-.38m-3.71-.306a1.01.24-42.2 0 0-.91.5 1.01.24-42.2 0 0-.586.856 1.01.24-42.2 0 0 .91-.5 1.01.24-42.2 0 0 .586-.856m-82.317 1.593a.38.3 80.7 0 0 .235-.424.38.3 80.7 0 0-.357-.326.38.3 80.7 0 0-.235.423.38.3 80.7 0 0 .357.327m46.279-.495q-.05-.05-.12-.04-.38.06-.06.27.04.03.09.03.08.01.09-.06l.02-.11q.02-.05-.02-.09m12.54 10.36-5.47-2.04a1.01.97 84 0 1-.5-.42q-1.09-1.81-2.76-3.38-.05-.04-.09-.01l-.22.16q-.17.12-.05.29.83 1.15 1.68 2.38c1.17 1.69 4.29 2.75 6.11 3.7a2.34 2.33 48.6 0 0 1.87.12q1.36-.49.93-1.03a.25.25 0 0 0-.32-.07l-.56.27q-.3.15-.62.03m25.62-4.18a.32.32 0 0 0-.32-.32.32.32 0 0 0-.32.32.32.32 0 0 0 .32.32.32.32 0 0 0 .32-.32m-12.87 2.92q-.06.68.42 1.2.41.46.47-.16.05-.67-.42-1.2-.42-.47-.47.16m-63.128 1.892a.4.33-11.3 0 0-.457-.246.4.33-11.3 0 0-.327.402.4.33-11.3 0 0 .457.246.4.33-11.3 0 0 .327-.402m-2.202.008q-.15-.22-.41.04-.23.23.09.28.61.1.32-.32m58.88 1.97q.35.24.43.68a1.05 1.03 8.2 0 0 .54.71q2.17 1.08 3.73 3.1.22.28.48.04l.19-.18a.2.19-44 0 0 .01-.28q-2.04-2.07-4.12-4.09c-1.25-1.22-2.86-1.37-4.42-2.02q-.94-.39-.26.37 1.06 1.19 2.73 1.4.38.05.69.27m7.68-1.46-.26.25a.14.14 0 0 0 0 .2l5.45 5.61a.25.22-44.2 0 0 .33-.02l.1-.1a.25.22-44.2 0 0 .03-.33l-5.45-5.6a.14.14 0 0 0-.2-.01m22.34.51q.01-.2-.18-.17-.1.01-.1.11.01.15.16.16.11.01.12-.1m-1.83-.01a.23.23 0 0 0-.23-.23.23.23 0 0 0-.23.23.23.23 0 0 0 .23.23.23.23 0 0 0 .23-.23m-85.118 2.128a.57.35 9.9 0 0-.502-.443.57.35 9.9 0 0-.621.247.57.35 9.9 0 0 .5.443.57.35 9.9 0 0 .623-.247m83.638-.008q-.02.25.23.24.24 0 .24-.25 0-.22-.22-.22-.24-.01-.25.23m-90.15.94q0 .23.15.4a.31.31 0 0 0 .54-.14q.06-.36-.29-.52-.41-.19-.4.26m82.3 3.628a1.58.52 92.9 0 0 .6-1.552 1.58.52 92.9 0 0-.44-1.604 1.58.52 92.9 0 0-.6 1.552 1.58.52 92.9 0 0 .44 1.604m-23.216.67a1.08.66-23 0 0-1.252-.185 1.08.66-23 0 0-.736 1.029 1.08.66-23 0 0 1.252.185 1.08.66-23 0 0 .736-1.029m2.566 1.852 2.51.99q1.35.53.34-.51-1.26-1.29-2.76-1.15-1.46.14-.09.67m-12.42 9.12c.72-.19 2.17-1.12 2.76-1.61a.3.29-40.1 0 0 .04-.41l-.24-.3a.29.29 0 0 0-.39-.06q-1.26.89-2.38 2.02-.58.58.21.36m6.605-2.3a1.5.28-4.6 0 0-1.517-.16 1.5.28-4.6 0 0-1.473.4 1.5.28-4.6 0 0 1.517.16 1.5.28-4.6 0 0 1.473-.4"/><path fill="#278f5a" d="M183.8 76.18q-.7 1.06-1.55.23.68-.25 1.55-.23"/><path fill="#5fe69b" d="M179.67 76.76q.33.24-.05.71-.22.26-.33.58-.23.64.17 1.21.55.77-.39.8-.34.01-.6-.2-.4-.33-.35-.85l.21-2.12q.62-.35 1.34-.13"/><path fill="#278f5a" d="M176.16 77.06q-.13.48-.66.54-.5.05-.5-.47z"/><path fill="#a227d8" d="M189.27 78.54a.13.13 0 0 1 .14-.17q.1.01.11.11.04.23-.18.15-.06-.03-.07-.09"/><path fill="#5fe69b" d="M218.26 78.68q2.87.79 5.58 2.21 7.24 3.8 13.38 8.86-.65 1.31-1.48 1.8-.56.33-.65-.31-.21-1.46-1.72-1.31-.49.05-.81.43l-4.34 5.17a.8.79 55.6 0 0-.14.79q.22.6.92.68a.92.91 87.9 0 1 .81.76q.19 1.12 1.34 1.31a.94.91 79.6 0 1 .66.47q.27.52.09 1a.46.46 0 0 1-.85.04q-.12-.25-.36-.35-.55-.23-.63.36-.16 1.17-1 1.97a.72.71 47.3 0 0-.04 1q.44.5 1.14.47.87-.03.41.71-.6.95-.43 2.15.1.69.56 1.22 1.07 1.24.43 2.77-.23.56-.57.06-1.39-2.08-1.71-4.23-.08-.55-.6-.75-.2-.07-.41-.08-1.1-.02-.35-.82.71-.76.57-1.62a2.89 2.37-9.7 0 0-3.29-1.87q-.86.16-1.38-.59-.41-.59.11-1.09.74-.72 1.77-.85.53-.07.31-.56-.98-2.15-.6-5.23.19-1.61-.89-2.85a.6.59-35.8 0 0-.77-.12q-1.33.83-2.86.87-.75.02-.32-.6l.49-.7a.5.5 0 0 0-.33-.78q-.9-.15-1.63-.75-.48-.39-.61.22c-.07.35.05.84.28 1.11q.77.91-.09 1.65a.83.83 0 0 0-.13 1.11q1.3 1.77-.09 1.25a.55.51 2 0 1-.31-.31q-.64-1.72-1.77-2.99-.46-.52-.83.06-.22.34-.2.76.05.79-.62.36-1.23-.78-2.95-.38-.48.12-.57-.36l-.05-.25q-.01-.06.05-.07 2.32-.56 4.41-1.52.38-.18.57-.54.33-.66.37-1.45.03-.52.41-.87.2-.19.47-.15.5.06.65-.42.11-.38-.14-.5-.82-.39 0-.8.83-.4 1.6-.88.85-.54.85-1.4 0-.55-.53-.69-2.06-.54-1.18-2.58"/><path d="m145.46 79.14-3.5-.07zM157.46 79.11l-4.71.03z"/><path fill="#5fe69b" d="M162.5 78.91q.75 1.08 1.64.53.42-.26.83.02.2.14.33.34.48.74.67-.11.04-.16.14-.27.67-.74.55.25-.05.34-.33.54-.35.24-.33.67.09 1.76-.56 3.31-.19.47-.04.96l.67 2.07q.19.59-.42.72-.91.18-1.9.02-.75-.11-.41.57.92 1.83.61 3.95a.33.32 6.6 0 0 .3.37l.26.02a.4.39 6.1 0 0 .43-.34q.32-2.17 2.69-1.6a.19.19 0 0 1 .14.24q-1.31 4.43-5.83 5.74c-3.13-8.78-10.76-5.12-16.53-2q-7.76 4.2-15.35 5.59-11.44 2.08-22.14 3.16-1.35.13-.96-1.18 1.73-5.79 3.52-11.41c1.76-5.52 6.74-7.43 11.61-9.57q2.69-1.18 6.65-1.44 6.62-.44 13.22-.99l3.5.07h7.29l4.71-.03z"/><ellipse fill="#d57534" rx=".73" ry=".44" transform="rotate(85.3 52.849 144.458)"/><path fill="#5fe69b" d="M197.25 79.45q-.02.01-.03.03-.08.1-.03-.03.07-.19.32-.12a.12.11-75.4 0 1 .07.13q-.04.19-.19.18-.2 0-.12-.17.04-.09-.02-.02"/><path fill="#278f5a" d="M202.55 79.38q.27.12.12.37a.26.26 0 0 1-.48-.08q-.09-.49.36-.29"/><path fill="#a227d8" d="M210.5 79.43q.15-.13.22.04a.18.17-31.1 0 1-.05.19q-.11.12-.2-.04-.06-.11.03-.19"/><path fill="#d57534" d="M174.09 82.46q.25-.81.86-1.42.28-.28.49.05l.15.24q.15.23-.06.41-.94.81-1.79 1.69-.7.72-.23-.17.08-.17.23-.29.25-.2.35-.51"/><path fill="#a227d8" d="M209.03 83.54q-.1.62-.45 1.06-.47.6-.4-.15.14-1.34 1.16-2.24.36-.32.38.17.01.4-.31.59-.32.2-.38.57"/><path fill="#278f5a" d="M202.73 82.23q.32-.06.66 0 .4.06.09.33-.37.32-.78.19-1.07-.33.03-.52"/><path fill="#a227d8" d="M175.1 83.49a.2.2 0 0 1 .35-.07q.32.37.26.87-.13 1.04-.57.09-.19-.41-.04-.89M189.24 83.53a.31.31 0 0 1 .53-.04q.39.58 0 1.19-.28.42-.51-.02-.3-.58-.02-1.13"/><ellipse fill="#d57534" rx="1.26" ry=".32" transform="rotate(38.6 -22.526 325.69)"/><path fill="#d57534" d="M174.79 86.28q.17.18 0 .37a.27.27 0 0 1-.46-.28q.17-.42.46-.09"/><ellipse fill="#d57534" rx=".84" ry=".36" transform="rotate(73.7 39.266 173.227)"/><ellipse fill="#d57534" rx=".97" ry=".34" transform="rotate(17.6 -178.824 691.936)"/><path fill="#278f5a" d="M172.34 86.35q.07-.02.13.02a.15.14-55.2 0 1 .03.2q-.08.1-.19.03-.24-.16.03-.25"/><path fill="#d57534" d="M189.61 86.34q.14-.11.26.04a.29.29 0 0 1-.3.45q-.18-.05-.23-.24-.03-.12.05-.21.05-.06.12-.03.05.02.1-.01"/><path fill="#a227d8" d="M205.8 86.5q-.12.36-.49.28a.18.18 0 0 1-.11-.29q.17-.21.44-.21.24-.01.16.22M176.55 87.54q-.02.11-.13.12-.06.01-.1-.04-.03-.05-.05-.1-.04-.1.07-.11h.1q.14-.01.11.13M190.18 88.52q.08-.42.41-.26.2.09.14.3-.06.26-.36.22a.22.21-82.7 0 1-.19-.26M175.23 89.45q.05-.19.28-.21.25-.01.22.24-.02.2-.19.26-.43.16-.31-.29"/><rect width="5.5" height=".94" x="-2.75" y="-.47" fill="#a227d8" rx=".26" transform="rotate(42 -21.244 304.12)"/><path fill="#5fe69b" d="M210.09 91.09q-.2.64-.86.5a.19.19 0 0 1-.05-.36q1.05-.55.91-.14"/><ellipse fill="#a227d8" rx="1.56" ry=".32" transform="rotate(-24.4 316.56 -431.189)"/><path fill="#a227d8" d="M171.31 92.51q.02-.17.16-.2.35-.08.25.26-.05.15-.23.15-.22 0-.18-.21M191.34 92.72q-.05-.19.17-.31a.12.12 0 0 1 .18.13q-.05.26-.25.25-.08 0-.1-.07M203.97 93.56q-.29.27-.66.26-.4 0-.19-.34.36-.57.82-.27.25.16.03.35"/><ellipse fill="#a227d8" rx=".71" ry=".52" transform="rotate(83.5 48.06 159.858)"/><ellipse fill="#5fe69b" rx=".5" ry=".26" transform="rotate(54.9 -4.308 214.51)"/><path fill="#5fe69b" d="M223.17 94.53a.35.35 0 0 1 .63.1q.1.34-.01.69a.34.34 0 0 1-.57.14q-.41-.41-.05-.93M230.03 95.3q-.14.39-.53.47-.48.11-.22-.32.36-.6.95-1.02.3-.21.3.16 0 .32-.25.43a.49.45-5.3 0 0-.25.28"/><ellipse fill="#a227d8" rx=".93" ry=".6" transform="rotate(53.2 21.415 279.936)"/><path fill="#5fe69b" d="M198.73 142.79c-14.68-.87-29.07-10.18-32.29-25.33q-.18-.61.39-1.05.42-.31.97-.29 2.29.08 2.88-2.49.11-.46-.23-.78l-.54-.5q-.4-.38-.79.01l-.33.33q-.41.4-.48-.17-.04-.39.31-.53.45-.18.42-.67-.07-1.23-1.42-1.49-.55-.11-.23-.58.3-.43.86-.43a1.64 1.52-10.1 0 0 1.59-2.1q-.66-1.64-1.58-3.25-.41-.71.27-.25.75.52 1.61.21.74-.27.92.49.22.89.81 1.54.98 1.06 1.09-.38.09-1.25 1.31-1.28a.76.75-13.9 0 0 .66-1.09q-.46-.93-1.33-1.52-.6-.41-.2-1.01l.77-1.2q.29-.43.1-.92-.4-1.05-.35-2.26.01-.46.35-.15 1.86 1.67 1.79 3.78-.01.42.41.4.33-.01.5-.31.27-.49.76-.21.62.36.88 1.05.21.57-.39.65l-.75.09a.25.17 11.6 0 0-.1.04q-.4.26-.26.61.13.34.48.32l.58-.03q1.02-.05.22.6-.26.21-.58.3-.52.16-.62.69-.11.61.25 1.16.29.45.15.98-.36 1.35.53 2.71.6.91.77-.16.06-.38.16-.78.21-.78.75-.18 1.55 1.69 3.71 2.21a.89.89 0 0 0 1.09-1.02q-.5-2.95-2.35-5.1-.57-.66.28-.5 1.38.25 2.28 1.38.41.52 1.01.25l1.84-.81a.82.81 64.3 0 0 .39-1.12q-.33-.65-.93-.44v-.29q2.41-1.63 3.42-5.86.13-.56.59-.84.56-.33.43.31-.69 3.45-1.35 6.8c-.21 1.07.29 1.89.6 2.86q.22.74-.52.53-.26-.07-.41-.28-.34-.46-.8-.11c-.64.49-1.1 1.27-.81 2.1q1.39 3.99 2.53 7.87.06.2-.04.38-.03.05-.08.07-.23.07-.34-.15-.97-1.92-2.62-3.4a.41.41 0 0 0-.68.3l-.02 1.5q0 .59-.55.82c-2.98 1.26-3.23 4.22-4.31 6.89q-.23.57.13 1.06.74 1.02 1.85 1.23.63.12.69.76l.26 2.58q.04.49.52.61l.86.23q.34.09.42.43.04.16-.08.3-.09.1-.23.11-1.35.03-2.2.88-.67.66.14 1.16 2.15 1.32.9 3.18a.44.43 17.6 0 0 .36.68q1.23.03 1.23 1.29a.57.57 0 0 0 .99.38l.63-.7q.73-.82-.37-.82l-.73-.01q-.78 0-.3-.61 1.78-2.25-.97-3.61-.33-.16-.12-.46.16-.24.35-.02 1.35 1.57 3.39 2.7a.65.65 0 0 0 .97-.49q.34-2.68-.19-5.05-.68-3 .83-.32c.88 1.57 1.77 4.2 1.03 6.02q-.62 1.53-.62 3.21a.41.41 0 0 0 .66.33l1.68-1.24q.56-.42.27.22-.78 1.68-.55 3.54.03.25.2.45.18.2.44.15.42-.07.49-.48.24-1.45.89-2.54.93-1.56.84.26-.02.41-.31.79a1.28 1.27 32.4 0 0 .43 1.92q2.48 1.26 1.79 2.96M166.7 96.76a.32.31-31.5 0 1-.55-.13q-.06-.28.21-.36.19-.05.33.08.19.2.01.41"/><ellipse fill="#5fe69b" rx=".5" ry=".41" transform="rotate(59.1 29.818 252.9)"/><path fill="#a227d8" d="M221.25 98.36q.31-.31.41-.13.07.12-.01.28-.11.22-.33.15-.27-.09-.07-.3M180.24 101.52q.03-.09.11-.13.29-.17.19.15-.05.19-.24.11-.08-.04-.06-.13M187.12 101.92v.29q-.24.37-.58.54a.24.24 0 0 1-.34-.25q.06-.33.92-.58"/><path fill="#5fe69b" d="m255.92 103.92.49 1.3q.31.8-.39.3-.66-.47-.98-1.29-.19-.48-.67-.28-.13.05-.21.17-.13.2.04.37 1.5 1.51-.1 3.05-.48.47-.57 1.13l-.73 5.46q-.22 1.6-.54.02-.78-3.82.54-7.12a.71.7 28.5 0 0-.25-.83q-.27-.2-.59-.17-.85.06-.46-.7.72-1.41.81-3.16zM164.19 105.68l-.24-1.46 1.02-.58q.51-.29.34.27-.31 1.02-1.12 1.77M295.02 107.86q-.26 2.03.58 3.61a.5.5 0 0 1-.06.56l-.21.24q-.62.75.35.77l1.55.04q.94.02.37-.72-1.46-1.92.76-3.09l3.39 1.96q.21 1.45 2.02 2.9-.05.21-.1.41l-.01 3.42-.01.75q.03.6-1.42 1.54a.67.67 0 0 0-.26.81q.35.9 1.13 1.7l-.25 1.75q-1.13 1.15-.76 2.93-.17.36-.62.44-.31.06-.68-.16c-3.8-2.25-7.13-4.33-11.75-4.12l-1.29-.02-12.56 1.32q2.19-1.78 3.56-4.47.34-.68-.16-1.25-.41-.47-.08-1.02.33-.58.04-1.18-.49-1.02-.72-2.35-.17-.93-.76-.19-.2.26-.14.58.17.94-.69.54-1.09-.5-2.34-.63-.64-.06-.86-.66-.62-1.64-2.5-1.23a.36.36 0 0 0-.24.53q.97 1.63.77 3.54-.06.56.45.8.73.34 1.53.49.06.01.06.08l-.03.26q-.04.29-.33.26-1.77-.16-3.17.5-.64.29-.49-.4.17-.77.73-1.28.18-.16.05-.36l-.18-.27q-.14-.21-.33-.06-1.12.86-1.42 2.12a1.02 1.01 10.2 0 1-1.11.77l-.29-.04a.72.71 5.1 0 1-.63-.75q.16-2.74 1.01-5.13.22-.61-.27-1.03-1.21-1.05-2.3-2.32-.62-.72.25-.35.52.22 1.02.52.64.37 1.15-.16l1.67-1.76q.44-.45.12-1l-.22-.37a.27.27 0 0 1 .16-.4q1.3-.34 2.02-1.56 4.76.87 9.26-1.42.7-.35 2.13-.02 6.66 1.53 13.11 3.63"/><ellipse fill="#5fe69b" rx="1.04" ry=".44" transform="rotate(3.2 -1773.87 4822.799)"/><ellipse fill="#a227d8" rx="1.01" ry=".24" transform="rotate(-42.2 270.125 -287.344)"/><ellipse fill="#5fe69b" rx=".38" ry=".3" transform="rotate(80.7 27.426 160.516)"/><path fill="#a227d8" d="m227.76 107.48-.02.11q-.01.07-.09.06-.05 0-.09-.03-.32-.21.06-.27.07-.01.12.04.04.04.02.09"/><path d="M298.36 109.27q-2.22 1.17-.76 3.09.57.74-.37.72l-1.55-.04q-.97-.02-.35-.77l.21-.24a.5.5 0 0 0 .06-.56q-.84-1.58-.58-3.61zM303.77 114.13q-1.81-1.45-2.02-2.9 1.99.72 2.02 2.9"/><path fill="#a227d8" d="m240.9 117.72.56-.27a.25.25 0 0 1 .32.07q.43.54-.93 1.03a2.34 2.33 48.6 0 1-1.87-.12c-1.82-.95-4.94-2.01-6.11-3.7q-.85-1.23-1.68-2.38-.12-.17.05-.29l.22-.16q.04-.03.09.01 1.67 1.57 2.76 3.38a1.01.97 84 0 0 .5.42l5.47 2.04q.32.12.62-.03"/><circle cx="265.58" cy="113.57" r=".32" fill="#5fe69b"/><path d="m303.67 114.54-.01 3.42z"/><path fill="#a227d8" d="M253.5 116.33q.47.53.42 1.2-.06.62-.47.16-.48-.52-.42-1.2.05-.63.47-.16"/><ellipse fill="#a227d8" rx=".4" ry=".33" transform="rotate(-11.3 693.45 -898.55)"/><path fill="#278f5a" d="M187.7 118.39q.29.42-.32.32-.32-.05-.09-.28.26-.26.41-.04"/><path fill="#a227d8" d="M245.89 120.09q-1.67-.21-2.73-1.4-.68-.76.26-.37c1.56.65 3.17.8 4.42 2.02q2.08 2.02 4.12 4.09a.2.19-44 0 1-.01.28l-.19.18q-.26.24-.48-.04-1.56-2.02-3.73-3.1a1.05 1.03 8.2 0 1-.54-.71q-.08-.44-.43-.68-.31-.22-.69-.27M254.26 118.9a.14.14 0 0 1 .2.01l5.45 5.6a.25.22-44.2 0 1-.03.33l-.1.1a.25.22-44.2 0 1-.33.02l-5.45-5.61a.14.14 0 0 1 0-.2z"/><path d="M303.65 118.71q.13 2.11-.55 4.05-.78-.8-1.13-1.7a.67.67 0 0 1 .26-.81q1.45-.94 1.42-1.54"/><path fill="#5fe69b" d="M276.6 119.41q-.01.11-.12.1-.15-.01-.16-.16 0-.1.1-.11.19-.03.18.17"/><circle cx="274.54" cy="119.4" r=".23" fill="#5fe69b"/><ellipse fill="#5fe69b" rx=".57" ry=".35" transform="rotate(9.9 -606.476 1152.34)"/><path fill="#a227d8" d="M273.29 121.52q.01-.24.25-.23.22 0 .22.22 0 .25-.24.25-.25.01-.23-.24"/><path fill="#5fe69b" d="M183.14 122.46q-.01-.45.4-.26.35.16.29.52a.31.31 0 0 1-.54.14q-.15-.17-.15-.4"/><ellipse fill="#5fe69b" rx="1.58" ry=".52" transform="rotate(92.9 73.579 188.46)"/><path d="M289.04 123.6q-.68.13-1.29-.02zM302.85 124.51q.28 1.69-.76 2.93-.37-1.78.76-2.93"/><path fill="#a227d8" d="M259.56 125.95q-.12-.06-.23-.11-.05-.27.04-.44.09-.14.29-.13.21.02.29.17.13.24-.11.36zM211.23 141.1q-.16.12-.76-.4l1.37-.62q.43-.2.74-.55 4.15-4.74 7.55-9.84.23-.34.63-.32.26.01.42.21.31.41.61-.01l1.33-1.85q.29-.41.77-.58 6.63-2.32 13.38-.4a1.28 1.25 41.6 0 0 .82-.04q.2-.09.36-.23.19-.18.36.01.4.44-1.19.73-1.03.19-2.06.03-6.21-.97-10.87 1.99-.44.28-.9.02-.12-.06-.26-.06-.07 0-.12.04-3.21 2.41-5.29 5.42c-1.46 2.12-3.06 3.57-4.73 5.38q-.31.34-.43.8-.03.12-.01.25.13.66-.49.37-1.01-.47-1.23-.35"/><ellipse fill="#d57534" rx="1.08" ry=".66" transform="rotate(-23 433.17 -529.252)"/><path fill="#d57534" d="m247.3 129.6-2.51-.99q-1.37-.53.09-.67 1.5-.14 2.76 1.15 1.01 1.04-.34.51M235.13 136.12c-.59.49-2.04 1.42-2.76 1.61q-.79.22-.21-.36 1.12-1.13 2.38-2.02a.29.29 0 0 1 .39.06l.24.3a.3.29-40.1 0 1-.04.41"/><ellipse fill="#278f5a" rx="1.5" ry=".28" transform="rotate(-4.6 1806.19 -2888.593)"/><path fill="#278f5a" d="M243.75 135.38q-.54.56-1.25.61-1.25.21-1.87-.31-.57-.48.17-.44z"/><path fill="#5fe69b" d="M225.7 142.97q.92-.46-.87.16l4.79-4.72q.48-.47.54.2.05.65-.54 1.03-2.62 1.71-3.92 3.33M210.47 140.7q.6.52.76.4-.99 1.44-2.38 2.29-.4.25-.8-.02-.7-.45-1.09-1.16a.48.47 43.5 0 0-.85.02q-.25.55.72 1.58l-6.74-.86q-.39-1.47.03-2.27.38-.71.64.05.53 1.52 2.29 1.17a.76.76 0 0 1 .85.45q.15.35.49.45.65.17.92-.43.24-.55.75-.87.45-.29.87.05.46.39 1.1.33a1.15 1.05 25.6 0 0 .46-.14z"/></svg>