<svg xmlns="http://www.w3.org/2000/svg" viewBox="0 0 382 382"><g fill="none" stroke="#7c5e64" stroke-opacity=".996" stroke-width="2"><path d="M19.56 2.47q-.2.44-.58.66M91.93 3.64l-.68.5M117.26 2.19l.97.27M122.3 20.49q-.67.55-1.02.63M110.07 13.62q-.41.31-.88.39M108.95 3.59l-.21-2.86M117.24 0l-.18 1.54M120.7 0q.32.48.47 1.15M122.35 1.24q-.93.67-.26 2.47M125.16 16.98q.27 1.61 0 2.29M126.42 8.64q-.5.4-.08 1.27M126.38 29.46q-1.64-.63-1.17-2.69M129.67.73l1.26 2.21M143.27 17.44q-.35.67-.72.96M141.86 18.01q.28-.34-1.09-1.29M155 13.7q-.63.15-1 .75M146.69 7.58l.63-.65M158.95 22.27q-.55.36-1.05.18M155.14 16.31q-.34-1.09-1.14-1.86M27.04 8.85q-.53.41-.98.21M26.06 9.06 25.04 6.9M139.21 8.72q-.07.59-.77.54M157.75 38.86l.15 2.94M154.91 42.37q-.34.27-.97.32M153.73 32.85q-.48-1.63-1.01-2.16M150.98 28.76q-.67.32-1.16-.75M146.9 22.02q-.18-.29-.64-.49M144.73 20.18q-.62-1.04-1.84-1.2M146.01 19.71l.74.49M147.11 18.51l-1.56-3.13M145.26 15.05q-.05-1.28-.64-1.93M99.35 9.92q-.51.19-.82.47M39.82 19.34q.29 1.7 2 2.1M45.86 29.97q-.81.47-1.24-.55-.38-.9-.83-1.35M106.7 16.02q-.28.08-.67.6M50.07 39.02q-.72.06-.85.44M37.4 24.28l-1.73-1.53M103.44 18.62q-.21.26-.81.52M162.98 21.2q-.23.21-.81.33M125.12 38.17q.46-.61.15-1.36M122.3 30.33q-.41.31-.82.21M126.39 57.71q-.73-.79-1.01-1.99M122.25 42.27q-.13-1.13-.98-1.74M121.04 40.03q-.13-1.13-.82-2.03M118.22 35.79q-.59.16-1.09-.53M117.17 31.5q-.14-1.16-.93-2.2M114.06 27.08q-.47.07-1.02-.54M159.14 33.11l-.09 1.69M158.98 61.06q-.89-.26-1.14.12M157.58 60.32q.53-.91.15-2.18M101.23 22.04q.09.34-.33.82M114.1 29.04q-2.18-2.07-.16 1.88M118.03 37.95q-.23-.68-.85-.67M116.02 36.14q-.76-1.36-1.96-1.73M109.88 25.41l-1.98-1.65M60.57 42.41q-.22.32-.73.53M150.83 30.87q.01-.12-.1-.34-.08-.18-.24-.25-.28-.12-.63-.01M149.82 30.81q-.15 3.07.97 2.96M150.8 43.41l-.94.03M167.01 30.23q-.7.25-.9.01M175.19 47.96l-.91.04M167.04 39.65l-.86.4M64 39.93q-.32.15-.67.62M175.21 68.41q-.28.54-.08 1.13M183.34 93.89q-1.02.98-.05 2.78M183.41 98.79q-.35.72-1.12-.88M179.16 92.03q-.11-.81-.86-.79M177.88 91.7l1.08 2.25M180.29 96.52q-.2.22-.3.45-.22.46.12.83l1.17 1.28M182.27 100.23q.68-.03.84.49M183.37 103.79q-.34.51-1.02.19M174.82 88.07l-1.57-1.35M167.84 82.04q.4-.41.52-.82M178.12 89.36q.25.32.91.62M179.22 87.7l-1.94-4.36M174.09 66.35q.22-1.25.06-2.04M171.17 50.9l-.99-1.89M118.85 51.45l-1.03.78M112.27 47.29q-.53-.59-1.4-.81M117.23 47.96q.35-.64.01-.95M147.39 45.63q-.06.22-.8.57M71.26 45.97l-.91.49M70.04 46.24q-.23-1.12-.76-1.92M50.53 40.04 51 41M54.04 47.6q-.24.27-.71.49M33.26 45.92q-.23.35-.31.92M73.33 52.8q.64.93.7 2.14M69.11 50.94l-1.82-1.55M131.47 62.13q.43.62.67 1.57M126.36 59.08l-1.18-.83M42.59 48.49q-.91.96-2.61-.77M155.16 55.02l-1.12-2.15M78.69 52.34l-.81.39M58.63 52.7q.61.58 1.32 1.15.39.32.67.2t.64-.49M68.75 59.87q-1.19.77-2.95-1.16M63.33 57.92l-1.29.05M49.99 54.72q-.08.3-.53.78M75.33 54.7q-.41.6-1.1.31M114.99 52.89q-.35.05-.85.45M183.37 74.78q-.32-.08-.9.2M72.06 57.26l-.53.9M86.08 58.64q-.7.23-.8.53M84.86 58.77q-.05-.91-.82-1.97M125.42 62.09q.43.95 1.02.91M130.26 66.37l-.91.86M126.5 66.2q-1.25-.15-1.57.83M125.31 67.91q.58.29 1.09.09M126.45 84.75q.12.54-.09.88M131.32 89.93l1.98 1.81M130.5 95.97q-.95.62-.1 2.59M120.16 64.41q.54-.87.61-.59M120.82 59.08q-.19-1-1.05-2.22M125.99 64.45q-.14-.51-.49-.49a.34.33-19.9 0 0-.25.53q.17.22.53.26M157.45 67.03q-.61-.53-1.27.02M154.77 63.95q.42-.25.1-.65-.27-.35-.54-.08M81.54 70.61l1.01 2.19M85.57 79.26q.58.63.7 1.75M75.18 66.73l-1.68-1.44M70.99 64.47l-1.52-.37M64.33 59.84q-1.18-1.19-1.37-.5M63.54 60.52q.89 1.14 1.97 1.87M66.95 63.43l-1.23.73M58.3 58.18l-1.82-.57M79.55 63.81q-.58.05-.88.49M133.34 63.64q-.39.66-1.08.32M93.46 64.74q-.13.27-.66.62M90.18 67.37q-.11.26-.79.48M162.44 70.79l.78 1.94M158.98 78.78q-.26 1.32-.92 1.82M140.92 70.15q-.43-.13-.83.49M100.86 71.01q-1.07.63-2.04-1.92M71.97 65.93q-.64-.18-1.3-.09M70.73 67q.98 1.13 1.14 2.1M80.15 65.1l.51 1.14M87.49 80.95q-.75.54-1.22.06M142.24 82.74q.17.75.52.95M162.7 100.38q.73-.25 1.05-.65M166 97.97l1.1-.26M171.22 106.46l-1.11.55M167.67 108.65q-.39.05-.59.33-.16.22-.09.58.09.43.22.69M166.99 116.26q-.87-1.07-1.16-2.17M165.88 109.14q.66-.63-1.12-1.45M161.54 104.87l-3.99-3.4M154.25 98.76q-1.65-2.03-3.9-3.34M140.71 81.77l-1.06-2.06M136.3 72.82q-.21-1.06-.8-2.01M190.34 80.02q-.18 1.61 1.17 2.7M191.52 111.79q-.47.4-1.07.18M190.31 118.81l.27 2.64M186.28 103.23l1.18-.5M190.32 101.52q.2-1.05.06-1.98M187.37 85.75q-.24-1.1-.99-1.84M179.29 77.6q.65-.41.84-.35M109.1 88.81q-1.43-.15-2.18-2.11M98.75 75.96l-2.21-1.9M96.32 74.07q-.5-.84-1.5-1.44M88.02 70.79l-.35.86M76.9 77.42q-.19.34-.74.64M148.29 76.6q-.51.16-.78.38M113.55 81.6q.64.77 1.03 2.22M109.78 89.94q.01.71.32.98M113.02 97.22q-.09.29-.57.7M155.51 82.49l-.66.62M89.65 88.1q.66.96.72 1.91M88.1 91.8q-.68.2-1.53-1.17M129.74 100.56l.75.53M131.79 98.83q-.04.99.62 1.33M142.72 122.43q-.69.37-1.16.41M139.48 124.72q-1.45.67 1.11 2.46M141.34 129.21q.88 2.11-.13 2.01M134.5 116.93q-.61-.43-1.14-.54M133.92 122.46q-.04.6.61 1.06M136.09 127.02q-.65 1.42 1.17 2.7M138.05 131.79q-.62.33-1.57-.94M130.72 118.53l-.96-2.12M128.11 115.01q-1.02-.56-2.3-.51M125.81 114.5l.14-1.28M123.46 109.62q-.9-.68-1.53-.39M120.59 108.67q-2.41-.5-2.57-1.76M121.02 107.59q.4.41 1.46.31M121.56 105.77q-.62-.79-1.63-1.02M119.7 104.47l.58-1.17M126.1 98.98l-1.33-1.27M130.05 104.47q.06.55.42.53M152.09 84.78q0 .32-.69.51M163.05 88.99q-1.56-.38-2.05-1.97M94.51 96.07q-1.28-.03-1.45-.29M166 97.97q-.39-1.5-1.27-2.79M163.12 93.78q-.8.15-1.21-.78M159.78 91.29q-.66 1.2 1.02 2.34M162.05 95.03q.89-.25 1.09.67M134.09 90.99q-.29.73-.79.75M168.58 119.75q-.8 1.29 1.2 2.75M170.82 124.6q-.49.75-2.01-1.23M150.49 100.81q-1.1-.6-2.71-.72M141.08 98.18l.63-.78M41.76 95.72q-.09.4-.34.58M92.34 95.44l-.38 1.39M74.48 108.72l1.88 1.61M81.89 114.94q1.87 1.98 2.71 1.03M95.48 118.72l-.19.88M91.97 122.04q-.03.35-.38.81M101.77 98.46q-1.06.82-2.71-1.04M67.13 102.48 68.9 104M117.85 102.66q1.6.8 1.18 1.35M108.99 104.49q.01.38-.31.89M95.29 97.62q-1.46-.64-2.82-.51M99.24 106.13q-.09.85.72 1.06M100.02 107.67l-.92.38M95.78 114.59q.02.2-.37.9M191.53 160.06l-1.05.05M182.74 139.2q-.43-.7-.47-.35M181.05 137.35q-1.61-1.27-1-2.42M182.44 136.73q.45.78 1.03 1.01M183.25 135.33q-.32-1.97-.94-2.07M178.91 130.46q-.44-.31-.71-.26M177.05 128.61q-1.44-1.77-1.76-1.13M175.22 134.84q-.63-.09-.99.1M171.1 128.37q-.29-2.17-.94-1.68M165.91 124.35q.57-.36.41-.87M163.05 119.79q.33-.22.67-.44M170.89 118.03q1.12-.27.96-.81M174.04 118.98q.56 1.24 1.14.79M175.1 117.78q-.8-2.03.18-2.56M187.49 141.49q-.91.66-.13 2.23M190.14 149.35q.41-.72.04-1.97M186.5 131.98q.69.1.99-.24M187.38 124.62l-1.03-2.15M179.29 116.32q.48-.24.66-.59M178.46 128.05q.1.21.24.57.09.25.21.28.17.04.37-.23M179.09 126.42q-.1-1.44-.73-1.86M174.96 121.48q-2.05-.36.05 3.73M108.46 109.48q.56-.57.08-.89M107.25 113.61q-1.05.84 1.14 2.42M111.77 118.91q1.39.84 1.99 1.79M111.09 121.86q-.95-.05-1.82-1.5M107.88 118.91q-3.21-.45-2.65-1.82M137.57 139.15q.95 1.02 1.09.66M141.71 142.34q.37 1.11 1.06 1M149.29 148.89q.82.84 1.59.98M153.95 152.8q.48 1.18.92.47M154.91 151.91q-.11-1.79-.91-1.93M153.81 149.27l1.15-.49M163.28 150.02q.6.32 1.11-.31M176 164.89q-.87.9 1.05 2.25M177.99 168.05q.48.26.79.71M180.05 173.66q-.42.37-1.36-.18M163.04 166.19q-.71-.02-.83.43-.08.27.21.7.56.86.78 1.7M163.05 170.99q-.74-.24-1.23-.86M161.81 166.16l-.99-2.2M159.05 160.62q-.13-1.75-1.07-2.39M154.95 155.44l-.3-.5q-.12-.2-.34-.12-.13.05-.27.16M154.01 155.3q-.01 2.67.89 2.01M155.71 159.68q-.61-.01-1.27.3M150.87 159.03q-.76-1.11-.9-1.99M150.1 151.75q1-.35-1.72-1.76M146.27 149.24q-.94-.01-1.5-.28M142.66 145.38q-.63-.69-1.1-.29M141.49 147.76q.65.69.16 1.7-.21.46.11.84.28.32.81.54M143.05 153.01q-.59.22-.15 1.14M146.86 162.24q.48-.28.55-.64M151.27 162.7q.85-.29.79-.89M157.59 166.64q.54.8 1.39.9M159.65 168.45q-.72.54-1.62.76M155.02 168.22q-.29-.06-.59-.01-.2.03-.31.17-.11.16-.16.36M153.11 173.64q-.97.41-.93.79M153.74 177.72q.72.4 1.37.13M157.47 178.7q.6.26 1 .79.33.43-.17.64l-.34.14M156.2 179.95q-.65-.75-1.5-.57M153.72 179.32l-.21-.19M152.77 178.66l-4.8-1.22M146.83 177.88q-.7-.28-1.71-1.5-.51-.62-1.12-.22M141.13 175.38q.55-.44.66-.77M143.43 174.76q.49.09.77-.01M145.83 175.42q.69.69 2.11.57M142.62 171.67q-3.26-3.48-7.52-5.69M131.22 157.75l.83-.25M138.66 164.03l.61-.61M140.52 158.94q-.3-1.08-1.01-2.13M131.35 146.19l-2.13-2.06M121.29 143.91q-1.26-1.16-1.39-.51M125.76 141.01q1.06-.18 2.03.33M131.06 142.27q1.2.12 2.44.57.69.25 1.22-.65M135.31 138.91l-1.54-1.43M130.4 134.51l-1.75-1.26M128.09 132.83l-1.66-1.58M123.08 128.31l-4.27-3.31M116.6 124.17q-.76.15-1.34-.16M138.8 141.8q-.17-.75-.57-.24a.33.31-34.9 0 0-.06.28q.1.32.48.19M112.76 123.36l-.55 1.31M131.17 126.58q-.11.31-.53.53M100.8 124.34q.24 1.34-2.69.53M150.76 139.74q-1.59.33-2.07-2.02M146.84 133.78l-1.06-1.9M143.41 133.48q-.64.64.09 1.25.84.71 1.44 1.42M146.07 138.26q-.18 1.52.78 2M147.25 141.75l-.84.98M142.76 134.63l-1.07-.42M141.49 139.27q.31.98-.07 2.22M138.61 135.45q-.57-1.5-1.1-2.06M133.6 131.46q.29-.23.16-.74M125.83 134.32q-.85-.04-1.59-1.33M122.27 131.22q-2.36-.12-2.51-1.72M117.42 125.86l-1.42-.32M114.74 125.1q-1.08-.48-2.08-.29M110.76 127.13q-.44.86-.97.98M108.82 130.73l-2.72-.94M103.78 129.1q-1.43-.27-2.3.66M100.8 129.78q-.14-.92.13-1.22M127.26 135.67l-.29 1.27M119.91 131.28q-.48-.78-1.21-.27M120.95 135.72q.77.83 1.56 1.22M125.52 139.46l-.48.99M117.13 134.04l-1.78-1.52M91.3 130.26q.33.56.11 1.03M81.64 128.71l-2.58-.73M171.22 135.62l-.82.08M183.34 142.77q-.53.07-.9-.03M100.3 129.98q-1.04-.07-1.97.2M113.48 131.97l-3.55.2M133.43 140.94q-.17.16-.3.32-.36.44.21.44h.41M131.69 141.08q1.02.26-.41-1.91M129.51 137.48q-1.02-.53-2.26-.39M175.18 144.02q-.53.15-.96-.04M174.04 143.67q.29-1.29.12-2.08M162.49 148.09q.49.67.58 1.84M190.44 167.24q.1.92-.18 1.81M187.43 163.29l-1.07-2.26M186.04 160.61q-.17-1.1-.89-2.02M175.35 145.71q-.16.68.03 1.2M186.56 170.77q.65-.14.85-.48M190.46 169.71l1.03.02M191.51 198.72q-.52-.12-.98.07M186.53 190.05q.75-.11.92-.55M187.35 182.57q-.72-2.54-2.22-4.57M182.37 171.68q-.37-1.28-1.31-2.59M178.8 167q-.51-.17-.68-.42M146.97 150.71l-1.71-.44M145.7 151.29q1 1.17 1.38 2.51M148.25 153.75q-.67.02-.99.3M130.23 167.13q-1.78-2.89-3.95-3.56M134.27 168.43q-.45 1.22-1.53.56-.85-.51-1.53-.37M145.99 174.06q.35.43.71.55M167.1 174.92l-1.12.32M163.21 172.94q-.47-.62-1.18-.95M161.79 172.7q.24 1.56 1.21 2.52M165.94 178.93q.39.56 1.05.79M168.76 181.34q1.09 1.45 1.28 2.64M167.06 181.5l-4.11-3.53M160.25 179.6l-.93.88M159.91 181.17q.48-.47 1.67 1.05M164.76 184.98q1.83 1.12 1.28 1.71M164.59 188.76q-.63.29-.99.28M158.72 186.76q-.39.04-.81.25M150.96 178.65q-.29-.59-1.22.14M149.52 182.55q.54.65 1.24.73M152.73 185.22q.56 2.07 2.14 1.95M157.82 193.5q-.04 2.92 1.08 2.49M158.92 205.87q-1.2.07-1.1-3.29M154.92 196.72q-.28.4-.99.32M150.87 185.25q0-.35-.68-.5M149.82 185.76q-.26 2.23.93 2.7M157.79 212.69l.05 2.54M155.06 209.51q-.07-1.15-1.08-1.86M153.89 207.03q-.2-1.3-1.1-2.44M153.83 173.97q.29.68 1.16 1.07M155.07 170.89q-.08-1-1.12-1.93M182.25 175.33q.29.49.7.58M182.97 177.67q-.14-.54-.64-.6M182.03 177.85q.4 1.88-.14 2.27" vector-effect="non-scaling-stroke"/><path d="M171.24 183.76q-1.72-.09.01 2.33M171 188.44q-.74-.25-.98-.67M167.44 185.75q-.88.66.57 1.74M171.15 195.73q1.12.46 1.88 1.37M174.01 198.02q.59.27.92.7M176.1 203.65q-.58 1.05 1.14 2.3M178.18 207.5q.17 1.58 1.11 2.53M182.24 210.43q1.03.86 1.2 2.28M185.32 216.39q.76 1.11 1.05 2.67M183.37 219.95q-.28-.6-1.05-.66M182.1 219.07q.22-1.1-.06-2.38M181.24 214.86q-.85-1.2-2.11-1.88M175.23 204.94l-.29-.61q-.16-.36-.54-.23l-.24.08M174.22 209.08l-.04 2.87M174.19 218.55l-.02 2.74M183.36 181.05q.04-.4-1.04-.23M183.35 190.46q-.18.5-.91.32M175.28 192.5q-.63.35-1.15.33M171.14 190.25q-.31-.52-1.18-.95M169.08 188.31l-1.07-.82M179.82 192.75q.06.39-.66.62M172.17 194.84q-1.04.2-1.02.89M187.46 199.26q-.8.77-.15 2.44M187.47 208.98l-.7.13M116.6 203.8q1.12 2.89 1.96 1.81M130.22 220.86q-.74.9.91 2.19M139.58 233.92q.79 2.58 1.99 1.88M142.29 237.2q.13.47.44.85M153.02 250.75q-1.19.67-2.91-.94M120.13 218.85q.42-.28.36-.7M183.31 209.74q-.54.56-1.07.69M182.02 210.03q-.25-1.24-1.01-2.28M179.08 203.61q-.19-1.69-.78-2.16M177.84 201.06q.15-.81-.81-1.99M174.81 196.99q-.76-.21-.73-.59M158.97 222.25q-.77-.42-1.13-.97M191.52 217.99l-1.06.03M131.47 216.58q.59.73.84 1.92M175.21 221.53l-1-.07M157.44 220.9q-1.15-.14-1.32.63" vector-effect="non-scaling-stroke"/><path d="M187.39 218.41q-1.33.63.02 2.64M187.44 228.02q-.14.64-.87.71M140.92 224.71q-.24.04-.81.42M191.51 246.73q-1.46-.21-1.25-2.79M164.46 227.22q-.7-.06-1.1.11M163.04 227.1l-.63-1.83M183.34 228.99q-.04.56-.92.5M159.17 223.99q-.17-.27-.43-.47-.44-.35-.78.09-.15.19-.11.46.06.34.3.58.33.34.79.65M166.34 239.41q-.01.47-.51.88M162.88 243.1q-.69 1.12-2.07-2M180.02 231.67q-.27.25-.81.44M187.42 257.18q-1.13.11.11 2.63M190.35 265.84q.48-.53-.06-2.47M190.51 256.76q.51.16.99-.23M191.5 275.98q-.56-.05-.98.08M186.26 257.4l-.97-2.08M182.82 253q-.5-.12-.54-.44M182.27 248.79q-.13-1.04-1.23-2.49M179.12 242.4q-.25-1.49-.84-2.14M178.07 239.82l-.88-2.03M148.13 230.71l-.85.48M146.83 230.86q-.12-1.07-.88-2.06M171.78 233.36q-.19.26-.62.53M179.42 249.56l-1.29-3.52M177.21 244.59q-1.73-2.13-3.94-3.4M155.52 236.88l-.67.71M187.36 237.69l-.98.55M186 237.93q-.07-.99-.83-2.06M152.23 239.52q-.04.36-.68.62M124.76 242.95q.19.43-.29.85M156.89 244.73q1.04 1.01 1.44 1.21.62.32 1.04-.5M161.8 247.38q.46.69 1.26.87M164.79 249.91l1.32 2.4M163.07 249.94q-.62-.8-1.11-.66M161.82 250.04q.14 1.28 1.09 2.26M163.8 254.41q-.42.46-1.07.58M171.11 260.72q-.47.38-1.1.55M167.2 258.94l-.3-.54q-.2-.35-.58-.21l-.33.12" vector-effect="non-scaling-stroke"/><path d="M165.99 258.31q.28 1.37-.18 3.14M165.96 256.05q.23.82 1.07.86M167.14 255.14l-.66-2.27q-.03-.12-.14-.05l-.24.14M134.25 245.59q-.45.54-.28 1.02M179.99 250.77q-.54.41-1.5-.53M179.31 278.4q-1.1.26-.16 2.57M179.25 283.28q-.72-.31-1.04-.96" vector-effect="non-scaling-stroke"/><path d="M178.32 278.8q-.21-1.24-1.15-2.56M175.14 274.21q-.63-.03-1.07-.79M171.91 271.69q-.47.6-1.17.61M167.21 264.55q-.37-.54-1.22-.79M163.09 263.08q-.08-.47-1.11-.26M162.08 263.41q1.11 3.08 2.34 2.42M165.88 268.75q.33 1.12 1.17 1.98M173.81 278.8q.57-1.27.28-2.81M174.14 275.8q.15-.33.46-.14.36.23.4.52M175.13 279.25l-.33.03q-.57.05-.12.39.24.18.55.22M176.05 280.76q-.62.72-1.86.55M171.5 280.61q-.89-.6-1.51-.41M167.24 278.26l3.26.66M169.57 276.74q-.62-.54-1.37-.8M157.68 261.49l.62-1.21M161.29 261.15q.52.5.92.04M161.36 259.28q-.53-1.08-1.37-1.07M159.58 257.73l-2.06-1.83M154.18 253.18q-.89-1.19-2.12-1.67M150.8 254.26q-.18 1.28-2.46.42M182 254.96l.26 2.93M140.94 256.77q.38-.46.2-.9M183.39 267.96l-.98.04M179.95 270.23q-.09.37-.68.54M163.62 273.76q-.04.36-.73.44M191.5 285.53q-.56.5-1.02.23M187.47 286.21l-.87.54M183.32 287q-.81.83.07 2.72M179.1 285.01q-1.85-2.2-.07 2.13M180.04 289.46q-.39.28-1.08.31M175.21 289.09l-1.02.01M171.08 282.67q-.43-1.79-.97-1.47M171.14 289.76q-.28.48-.9.22M191.52 323.75l-1.31-.42M190.21 323.33q.23-.94.11-1.96M190.49 314.45l-.16-2.43M190.46 304.82q.23-1.04-.12-2.6M187.27 298.18q-.12-.92-.93-1.7M183.14 293.69q-.12-.49-.69-.54M182.1 293.9l.06 2.42M182.29 291.27q.49.62 1.16.88M175.18 298.67q-.97.13-1.01-.15M174.05 298.22q.28-1.28.12-2.13M157.13 298.24l-.75.44M183.33 306.46l-.89.23M178.14 321.07q.62.73 1.18.87M179.15 319.46q-.93-1.98.15-2.5M187.44 334.48q-.61.47-1.08.61M183.39 335.49q-1.42-.5-1.28-3.05M181.09 330.55q-1.56-1.33-1.02-2.63M179.07 323.75q-.28-.55-.85-.5M177.05 321.82q-1.69-2.04-3.9-3.33M163.5 304.8l-.97-2.05M187.46 305.68l-.67-.06M175.45 300.15q-.23.51-.25.95M175.22 308.22l-.89.05M187.46 324.8q-.41.45-.99.18M171.91 310.77q-.27-.01-.83.39M166.46 316.69l-.36.86M187.47 353.74q-1.18.86-.08 2.71M190.49 362.92l1.01-.13M191.5 333.98l-1.06-.03M190.19 333.07q.32-.93.17-1.84M186.57 344.6q.59-.14.91-.46M190.48 343.48l-.17-2.68" vector-effect="non-scaling-stroke"/></g><path fill="#f8bbc8" fill-opacity=".996" d="M18.26 0q.92 1.07 1.3 2.47-.2.44-.58.66Q17.97 1.68 17.47 0zM90.03 0q1.2 1.56 1.9 3.64l-.68.5Q89.88 2.03 89.39 0z"/><path fill-opacity=".996" d="M109.95 0c.21 1.7-.38 4.96.95 6.18q.36.33.58.78 1.23 2.58 2.45 5.35c1.12 2.55 3.6 4.18 5.73 5.88q.94.74.38-.32-1.01-1.91-1.99-4c-1.45-3.07-.84-8.23-.79-11.68l.97.27q-.1 3.46.05 6.9.13 2.85 1.41 5.6 1.29 2.78 2.61 5.53-.67.55-1.02.63c-2.65-2.63-6.62-4.99-8.15-8.17q-1.18-2.43-2.08-4.74-.91-2.3-.93.17l-.05 5.24q-.41.31-.88.39l-.24-10.42-.21-2.86.51-.73zM117.24 0l-.18 1.54q-1.1-.61-.55-1.54z"/><path fill="#f8bbc8" fill-opacity=".996" d="M117.38 0q1.24.04.85 2.46l-.97-.27-.2-.65.18-1.54z"/><path fill-opacity=".996" d="M120.7 0q.32.48.47 1.15-1.44.02-1.22-1.15z"/><path fill="#f8bbc8" fill-opacity=".996" d="m121.66 0 .69 1.24q-.93.67-.26 2.47.21 2.44.28 4.89.07 2.44.86 4.31.87 2.05 1.93 4.07.27 1.61 0 2.29-1.54-2.84-2.73-5.74-1.06-2.58-1.1-5.87-.04-3.27-.16-6.51-.15-.67-.47-1.15z"/><path fill-opacity=".996" d="m125.64 0 .32.13q.46.19.46.68v7.83q-.5.4-.08 1.27l.04 19.55q-1.64-.63-1.17-2.69l-.05-7.5q.27-.68 0-2.29 1.27-7.07-3.07-13.27-.67-1.8.26-2.47l2.42 5.37q.68 1.53.63-.15L125.2 0z"/><path fill="#f8bbc8" fill-opacity=".996" d="m128.73 0 .94.73 1.26 2.21q-2.08-1.28-3.36-2.94z"/><path fill-opacity=".996" d="M130.72 0q1.96 4.42 4.08 8.8 1.2 2.48 3.24 4.26 2.58 2.24 5.23 4.38-.35.67-.72.96-.65-.13-.69-.39.28-.34-1.09-1.29-1.82-1.51-3.58-3.06-1.79-1.58-2.88-3.66-1.83-3.48-3.38-7.06L129.67.73q.23-.29.28-.73zM150.77 0q.1 1.49.05 2.99-.04 1.58.56 2.88 1.81 3.92 3.62 7.83-.63.15-1 .75l-7.31-6.87.63-.65 4.79 4.02q1.01.85.41-.33-.96-1.9-1.93-4.04c-1.01-2.25-.9-4.23-.68-6.58z"/><path fill="#f8bbc8" fill-opacity=".996" d="m154.76 0 .1 3.24q.01.5.22.94l2.24 4.88q.58 1.28.59-.12l.04-5.68q0-.29.28-.29h.44q.26 0 .26.26l.02 19.04q-.55.36-1.05.18l-2.76-6.14q-.34-1.09-1.14-1.86.37-.6 1-.75l2.22 4.94q.57 1.27.64-.11c.15-2.63.43-5.33-.79-7.78q-1.36-2.69-2.64-5.53c-.76-1.68-.61-3.43-.51-5.22zM27.04 8.85q-.53.41-.98.21L25.04 6.9 22.22.77q-.15-.34.19-.48l.29-.12q.2-.09.3.12zM108.74.73l.21 2.86-1.5-2.88q-.29-.56.34-.46.47.08.95.48M139.21 8.72q-.07.59-.77.54L134.57.94a.38.38 0 0 1 .19-.51l.29-.13q.22-.1.32.12zM147.32 6.93l-.63.65q-1.56-2.76-2.12-4.25-1.96-5.19-1.91.36c.01 1.02-.25 2.2.35 3.49q7.32 15.78 14.74 31.68l.15 2.94-2.63-5.59q-.29-.61-.29.06l-.07 6.1q-.34.27-.97.32l-.21-9.84q-.48-1.63-1.01-2.16l-1.25-3q-.28-.67-.49.02-.12.43 0 1.05-.67.32-1.16-.75.77-4.14-2.92-5.99-.18-.29-.64-.49l-1.53-1.35q-.62-1.04-1.84-1.2 0-.23-.34-.58.37-.29.72-.96l2.74 2.27.74.49q.62.95 1.46 1.36.54.27.27-.28l-1.37-2.77-1.56-3.13q-.16-.28-.29-.33-.05-1.28-.64-1.93c-1.12-2.55-3.03-5.54-2.97-8.18q.04-1.92-.05-3.98-.03-.62.59-.64l1.38-.06q.7-.03.99.61z"/><path fill-opacity=".996" d="M99.35 9.92q-.51.19-.82.47l-7.28-6.25.68-.5 4.4 3.64q1.19.98.54-.42l-2.3-4.97q-.12-.26.11-.42l.29-.21q.26-.18.4.1zM25.04 6.9l1.02 2.16-7.08-5.93q.38-.22.58-.66z"/><path fill="#f8bbc8" fill-opacity=".996" d="M39.82 19.34q.29 1.7 2 2.1l4.04 8.53q-.81.47-1.24-.55-.38-.9-.83-1.35c-1.08-2.67-2.1-5.67-4.27-7.52q-2.35-2.01-4.86-4.08a6.33 6.15-83.4 0 1-1.69-2.2l-3.4-7.38a.35.35 0 0 1 .26-.49l.34-.06q.14-.02.2.1 1.55 2.92 2.79 5.96c1.26 3.06 4 5.03 6.66 6.94"/><path fill-opacity=".996" d="M106.7 16.02q-.28.08-.67.6l-4.14-8.81q-.09-.19.09-.3l.27-.17a.34.33-28.6 0 1 .48.14z"/><path fill="#f8bbc8" fill-opacity=".996" d="M126.42 8.64q2.76 2.32 5.49 4.56 1.95 1.59 4.18 2.27 2.29.69 4.68 1.25 1.37.95 1.09 1.29-7.61-1.44-9.25-2.87-2.94-2.55-6.27-5.23-.42-.87.08-1.27"/><path fill-opacity=".996" d="M144.62 13.12q.59.65.64 1.93l-6.82-5.79q.7.05.77-.54zM27.04 8.85l2.86 6.02q1.13 2.39 3.09 4.11 5.26 4.63 10.8 9.09.45.45.83 1.35.43 1.02 1.24.55l4.21 9.05q-.72.06-.85.44-2.77-2.43-5.6-4.82-1.76-1.48-2.77-3.59-1.69-3.52-3.45-6.77l-1.73-1.53q-1.66-1.5-3.33-2.95-1.76-1.52-2.75-3.4-1.93-3.65-3.53-7.34.45.2.98-.21m20.68 27.39c-1.15-2.26-1.93-5.21-3.96-6.78q-1.83-1.42-3.53-3.03-.84-.8-.36.26.93 2.04 1.96 4.28c1.1 2.42 3.56 3.8 5.47 5.58q1.08 1.01.42-.31"/><path fill="#f8bbc8" fill-opacity=".996" d="m99.35 9.92 4.09 8.7q-.21.26-.81.52l-4.1-8.75q.31-.28.82-.47"/><path fill-opacity=".996" d="M162.98 21.2q-.23.21-.81.33l-.14-9.34q-.01-.42.41-.43h.27q.18-.01.18.17zM41.82 21.44q-1.71-.4-2-2.1l-2.92-6.28q-.16-.34.21-.41l.3-.06q.18-.04.26.13z"/><path fill="#f8bbc8" fill-opacity=".996" d="m110.07 13.62 14.81 31.9q.71 1.54.62-.15l-.38-7.2q.46-.61.15-1.36c.2-2.9.58-6.48-.74-9.09q-.98-1.95-1.85-3.84-.46-1-.45.1l.07 6.35q-.41.31-.82.21l-.2-9.42q.35-.08 1.02-.63l2.91 6.28q-.47 2.06 1.17 2.69l.01 28.25q-.73-.79-1.01-1.99.09-2.54-.07-5.04-.13-2.17-1.12-4.32-.94-2.06-1.94-4.09-.13-1.13-.98-1.74l-.23-.5q-.13-1.13-.82-2.03l-1.8-3.73q-.37-.77-.31.09l.11 1.43q-.59.16-1.09-.53l.04-3.76q-.14-1.16-.93-2.2l-1.59-3.47q-.3-.65-.55.02-.15.39-.04 1.23-.47.07-1.02-.54.72-3.35-.9-4.69-3.09-2.54-6.11-5.23.39-.52.67-.6l5.22 4.32q.05.03 0 .06-10.14 4.86.19-.03.11-.05.06-.16l-2.98-6.2q.47-.08.88-.39"/><path fill-opacity=".996" d="M155.14 16.31q-.25-.04-.26.19c0 2.49-.45 5.83.61 7.94q1.01 2.01 1.91 4.09.38.87.4-.08l.1-6q.5.18 1.05-.18l.19 10.84-.09 1.69-.07 26.26q-.89-.26-1.14.12.01-.35-.26-.86.53-.91.15-2.18.72-5.67.04-7.14-1.88-4.07-3.83-8.31.63-.05.97-.32l2.62 5.43q.28.6.29-.07l.08-5.93-.15-2.94c.32-2.89.6-6-.63-8.64q-.97-2.1-1.99-4.1c-1.73-3.41-1.47-7.96-1.13-11.67q.8.77 1.14 1.86"/><path fill="#f8bbc8" fill-opacity=".996" d="m35.67 22.75 1.73 1.53c-3.93-.9-8.38-1.67-11.33-4.35q-2.36-2.15-4.72-4.07a.47.47 0 0 1-.06-.66l.19-.23q.06-.07.14-.02 2.86 2.1 5.44 4.5c2.27 2.11 5.58 2.59 8.61 3.3"/><path fill-opacity=".996" d="M147.11 18.51q-.49.55-.36 1.69l-.74-.49-.46-4.33zM101.23 22.04q.09.34-.33.82.27-.18-.23-.17-.18 0-.32-.12l-6.85-5.78q-.3-.25 0-.5l.26-.21a.31.31 0 0 1 .4 0zM103.44 18.62l9.6 7.92q.55.61 1.02.54.78 1.3 2.18 2.22.79 1.04.93 2.2l-3.07-2.46q-2.18-2.07-.16 1.88.76 2.93 3.19 4.34.5.69 1.09.53.56 1.46 2 2.21.69.9.82 2.03l-3.01-2.08q-.23-.68-.85-.67-.48-1.28-1.16-1.14-.76-1.36-1.96-1.73l-4.18-9-1.98-1.65-5.27-4.62q.6-.26.81-.52m9.545 10.229a.86.3 63.4 0 0-.117-.903.86.3 63.4 0 0-.653-.635.86.3 63.4 0 0 .117.903.86.3 63.4 0 0 .653.635"/><path fill="#f8bbc8" fill-opacity=".996" d="M60.57 42.41q-.22.32-.73.53-1.53-3.29-3.16-6.56-1.17-2.32-3.2-4.05c-2.21-1.87-4.79-3.52-5.99-6.13q-1.57-3.42-3.13-6.81-.14-.3.18-.39l.45-.13q.17-.04.25.11 1.64 3.42 3.08 6.66c1.11 2.54 3.64 4.07 5.69 5.79q.7.58.31-.24l-2.64-5.7q-.16-.36.22-.39l.37-.03q.22-.02.31.18z"/><path fill-opacity=".996" d="M144.73 20.18q.3 1.41 1.09 1.81.25.12.34-.04.07-.14.1-.42.46.2.64.49-.85 4.17 2.92 5.99.49 1.07 1.16.75.4 1.48 1.74 1.93.53.53 1.01 2.16l-2.9-1.98q.01-.12-.1-.34-.08-.18-.24-.25-.28-.12-.63-.01-.14-.73-.49-1.16-.41-.49-.48.14-.13 1.12.93 1.56-.15 3.07.97 2.96l.01 9.64-.94.03q.02-3.48-.1-6.98-.08-2.66-1.24-5.18-2.81-6.13-5.63-12.3 1.22.16 1.84 1.2"/><path fill="#f8bbc8" fill-opacity=".996" d="M167.01 30.23q-.7.25-.9.01l-3.94-8.71q.58-.12.81-.33l2.7 5.59q.37.78.38-.09l.04-5.96q0-.21.2-.22l.43-.05q.27-.02.27.25zM107.9 23.76l1.98 1.65-8.98-2.55q.42-.48.33-.82zM114.1 29.04q.12 1.09-.16 1.88-2.02-3.95.16-1.88"/><path fill-opacity=".996" d="m175.19 47.96-.91.04c-1.44-3.29-4.19-7.7-4.17-11.1q.02-3.66.05-7.27a.37.37 0 0 1 .38-.36l.28.01q.32 0 .33.33.04 3.33-.04 7.13c-.06 2.77 1.56 5.37 2.74 7.79q.38.8.37-.09l-.06-5.95q0-.35.34-.37l.35-.01a.34.33 88.4 0 1 .35.34z"/><path fill="#f8bbc8" fill-opacity=".996" d="m150.83 30.87-.04 2.9q-1.12.11-.97-2.96l.04-.54q.35-.11.63.01.16.07.24.25.11.22.1.34"/><path fill-opacity=".996" d="m167.01 30.23.03 9.42-.86.4-.07-9.81q.2.24.9-.01M122.3 30.33l2.97 6.48q.31.75-.15 1.36l-3.64-7.63q.41.1.82-.21M64 39.93q-.32.15-.67.62l-4.14-8.78a.27.26 65.3 0 1 .13-.36l.25-.11q.31-.13.46.18z"/><path fill="#f8bbc8" fill-opacity=".996" d="M159.14 33.11q2.03 3.13 3.43 6.4 1.07 2.52 2.41 3.62 1.74 1.43 3.45 2.85.69.58.32-.24l-2.57-5.69.86-.4 6.59 14.12q.62 1.33.62-.14l.03-5.63.91-.04.02 20.45q-.28.54-.08 1.13.01 2.38.11 4.76.1 2.32 1.1 4.53 3.46 7.6 7 15.06-1.02.98-.05 2.78l.12 2.12q-.35.72-1.12-.88.86-4.2-3.13-5.88-.11-.81-.86-.79-.23-.62-.56-.84-.66-.42-.43.39.13.45.57.91l1.08 2.25 1.33 2.57q-.2.22-.3.45-.22.46.12.83l1.17 1.28q.2 1.3.99 1.15.68-.03.84.49.41 1.47.26 3.07-.34.51-1.02.19l-7.53-15.91-1.57-1.35-5.41-4.68q.4-.41.52-.82l9.76 8.14q.25.32.91.62l1.75 1.89q1.01 1.09.36-.25l-1.92-3.92-1.94-4.36q-1.03-2.11-1.92-4.19-.91-2.1-1.05-4.44-.24-4.25-.22-8.36.22-1.25.06-2.04.06-2.38.03-4.71-.03-2.34-1-4.48-.95-2.1-2.01-4.22l-.99-1.89q-2.65-2.46-5.62-5.05-1.73-1.5-2.73-3.63-1.27-2.7-2.78-5.53zM116.02 36.14q.09 1.01.88 1.38.09.04.18-.01.11-.07.1-.23.62-.01.85.67.31 5.82.21 11.55-.01.72.61 1.95l-1.03.78-5.55-4.94q-.53-.59-1.4-.81l-4.37-9.4q-.14-.31.18-.43l.28-.1a.28.27-23.4 0 1 .35.13q1.49 3 2.85 6.14c1.23 2.82 3.77 4.58 6.03 6.45q.6.5.28-.21l-2.63-5.69q-.22-.48.31-.53l.34-.03q.23-.02.34.19l2.4 4.96q.35-.64.01-.95c.02-2.78.27-5.1-.84-7.73q-1.02-2.4-2.34-4.87 1.2.37 1.96 1.73"/><path fill-opacity=".996" d="M147.39 45.63q-.06.22-.8.57l-3.9-8.59a.26.25-23.2 0 1 .14-.34l.37-.15q.21-.08.31.12zM71.26 45.97l-.91.49q-.27-.35-.31-.22-.23-1.12-.76-1.92l-2.69-6.12q-.18-.41.22-.6l.26-.12q.16-.08.24.09z"/><path fill="#f8bbc8" fill-opacity=".996" d="M50.07 39.02q.03.46.46 1.02L51 41l3.04 6.6q-.24.27-.71.49l-4.11-8.63q.13-.38.85-.44"/><path fill-opacity=".996" d="M33.26 45.92q-.23.35-.31.92l-7.48-6.33q-.16-.14-.02-.3l.17-.2q.27-.3.58-.04zM59.84 42.94q.51-.21.73-.53L73.33 52.8q.64.93.7 2.14l-4.92-4-1.82-1.55q-3.76-.98-7.51-2.2-2.24-.74-4.23-2.48Q53.36 42.8 51 41l-.47-.96q.34-.08.67-.07.29.01.57.25c2.46 2.09 5.74 5.62 8.86 6.32q2.07.46 3.99 1.05 1.04.33.21-.38z"/><path fill="#f8bbc8" fill-opacity=".996" d="m64 39.93 5.28 4.39q.53.8.76 1.92l-6.71-5.69q.35-.47.67-.62"/><path fill-opacity=".996" d="M122.25 42.27q-.05 2.5.08 4.97.11 2.2 1.11 4.35.95 2.06 1.94 4.13.28 1.2 1.01 1.99l5.08 4.42q.43.62.67 1.57l-5.78-4.62-1.18-.83q-1.65-3.14-3.09-6.48-.92-2.14-.85-4.73.09-3.22.03-6.51.85.61.98 1.74M42.59 48.49q-.91.96-2.61-.77l-5.06-4.45a.35.34 38.1 0 1-.06-.47l.15-.22q.21-.3.49-.06z"/><path fill="#f8bbc8" fill-opacity=".996" d="m150.8 43.41 6.93 14.73q.38 1.27-.15 2.18l-2.42-5.3-1.12-2.15-7.45-6.67q.74-.35.8-.57l4.75 4q.97.82.44-.34l-2.72-5.85z"/><path fill-opacity=".996" d="m78.69 52.34-.81.39-3.93-8.41q-.12-.27.15-.38l.24-.11a.35.35 0 0 1 .47.17z"/><path fill="#f8bbc8" fill-opacity=".996" d="M58.63 52.7q.61.58 1.32 1.15.39.32.67.2t.64-.49l7.49 6.31q-1.19.77-2.95-1.16l-2.78-2.33q-.63-.53-.29.22l.6 1.32-1.29.05c-.35-1.73-1.1-3.57-2.94-4.03-3.56-.88-7.34-1.5-10.19-4.11q-2.36-2.15-4.67-4.01a.46.46 0 0 1-.07-.66l.17-.22q.08-.1.19-.03 2.65 1.9 5 4.13c2.5 2.37 5.77 3.01 9.1 3.66M33.26 45.92l6.72 1.8q1.7 1.73 2.61.77l7.4 6.23q-.08.3-.53.78-2.43-2.03-4.86-4.03-2.3-1.89-4.98-2.75-3.3-1.04-6.67-1.88.08-.57.31-.92M71.26 45.97l4.07 8.73q-.41.6-1.1.31-.34-.44-.2-.07-.06-1.21-.7-2.14l-2.98-6.34z"/><path fill-opacity=".996" d="m112.27 47.29 2.72 5.6q-.35.05-.85.45l-3.27-6.86q.87.22 1.4.81M183.37 74.78q-.32-.08-.9.2c-.15-3.65.56-8.46-.99-11.71-1.28-2.69-3.15-5.63-3.19-8.61q-.05-3.95.08-7.66a.35.35 0 0 1 .37-.34l.28.01q.25.01.26.27.06 3.72-.01 7.62c-.04 2.41 1.45 4.98 2.56 7.07q.54 1.01.54-.14l.01-5.77q0-.41.4-.32l.37.09q.22.05.22.28zM117.23 47.96q.22-.63.01-.95.34.31-.01.95M54.04 47.6l7.22 5.96q-.36.37-.64.49t-.67-.2q-.71-.57-1.32-1.15l-5.3-4.61q.47-.22.71-.49M171.17 50.9q-.09 2.31-.07 4.57.02 2.32.92 4.39.98 2.24 2.13 4.45.16.79-.06 2.04-3.89-6.3-3.95-9.1-.08-3.79.04-8.24z"/><path fill="#f8bbc8" fill-opacity=".996" d="m69.11 50.94 2.95 6.32-.53.9-4.24-8.77z"/><path fill-opacity=".996" d="M86.08 58.64q-.7.23-.8.53-.49-.22-.42-.4-.05-.91-.82-1.97l-2.77-6.32q-.11-.24.13-.35l.33-.15a.29.28 65.3 0 1 .37.14zM125.42 62.09q.43.95 1.02.91l3.82 3.37-.91.86-2.85-1.03q-1.25-.15-1.57.83-.72-1.12-1.79-1.89a.49.49 0 0 0-.78.38c-.04 1.3-.22 2.71.29 3.92q1.05 2.53 2.26 5.05.4.84.4-.1v-6.48q.58.29 1.09.09l.05 16.75q.12.54-.09.88-.47 4.4 4.96 4.3l1.98 1.81-4.77-1.14q-.52-.13-.3.36l2.27 5.01q-.95.62-.1 2.59-.24.37-.36.99-.09.44-.47.2-.11-.07-.18-.21-.07-.13-.04-.27c.24-1.4.18-2.88-1.03-3.86q-3.03-2.44-5.9-5.01a2.71 2.6-79.7 0 1-.75-1.13q-1.28-3.71-4.02-5.49-.62-.41-.21-1.02l.95-1.41q.49-.73.78.1 1.5 4.25 5.87 7.11.81.53.6-.42c-.9-4.16.77-8.56-1.23-12.44-1.66-3.21-3.43-6.24-3.08-10.02q.05-.52-.34-.87-.35-.31-.83-.4.54-.87.61-.59 1.14-1.83.05-4.74-.19-1-1.05-2.22l-1.95-4.63 1.03-.78q2.4 5.32 4.14 8.56.75 1.4 2.43 2.08m-3.05.49q-.39.4-.23.96.17.56.6.16.39-.37.34-.88a.41.41 0 0 0-.71-.24m1.76.75q-.07.34.2.65a.44.44 0 0 0 .77-.23q.05-.47-.45-.68a.38.38 0 0 0-.52.26m1.65 1.42q.19.16.39.15.21 0 .19-.22-.04-.27-.37-.23-.14-.51-.49-.49a.34.33-19.9 0 0-.25.53q.17.22.53.26m-7.62 17.9q.01.42.39.55a.29.29 0 0 0 .39-.26q.02-.41-.38-.57-.41-.16-.4.28m9.39 10.91q1.04.92.48-.35l-1.07-2.41q-.24-.55-.8-.75-1.96-.71-3.47-2.01-.53-.46-.38.23.2.93.89 1.52 2.17 1.83 4.35 3.77"/><path fill="#f8bbc8" fill-opacity=".996" d="m78.69 52.34 5.35 4.46q.77 1.06.82 1.97l-6.98-6.04zM114.99 52.89l4.78 3.97q.86 1.22 1.05 2.22l-6.68-5.74q.5-.4.85-.45"/><path fill-opacity=".996" d="M155.16 55.02q-.14-.07-.23.03-.07.08-.07.18.08 2.29 0 4.58c-.07 2.32 1.66 4.85 2.59 7.22q-.61-.53-1.27.02l-1.41-3.1q.42-.25.1-.65-.27-.35-.54-.08l-2.04-4.68q-.28-.65.41-.51.43.09.47.51a.37.35-7.6 0 0 .42.31q.33-.06.31-.35-.16-2.44.14-5.63zM62.04 57.97l1.29-.05q1.49 1.27 2.47.79 1.76 1.93 2.95 1.16l12.79 10.74 1.01 2.19-4.81-3.99q-.82-.68-.3.25.94 1.66 1.63 3.45c1.08 2.8 4.07 4.94 6.5 6.75q.58.63.7 1.75-.1-.01-.3-.06-.15-.03-.27-.13-2.18-1.89-4.47-3.75-1.66-1.33-2.93-4.02-1.54-3.26-3.12-6.32l-1.68-1.44-2.81-2.41q-.53-.45-.38.22.16.69.68 1.37l-1.52-.37q-.88-4.26-5.14-4.26-1.18-1.19-1.37-.5-.32-.26-.54-.3-.62-.1-.2.63.36.62 1.32.85.89 1.14 1.97 1.87.59.62 1.44 1.04l-1.23.73-7.42-5.98-1.82-.57-7.02-2.11q.45-.48.53-.78zM79.55 63.81q-.58.05-.88.49l-7.14-6.14.53-.9 4.92 4.08q.5.42.22-.17l-2.97-6.16q.69.29 1.1-.31z"/><path fill="#f8bbc8" fill-opacity=".996" d="M133.34 63.64q-.39.66-1.08.32l-.12-.26q-.24-.95-.67-1.57l-2.85-6.33q-.22-.49.31-.54l.34-.03q.1-.01.15.09zM56.48 57.61l1.82.57q-7.91 1.99-10.05 1.38-4.03-1.15-8.02-2.34-.14-.05-.13-.2l.01-.28a.32.32 0 0 1 .37-.3q2.76.46 5.27 1.4c3.37 1.26 7.25.49 10.73-.23M93.46 64.74q-.13.27-.66.62.25-.06-.15-.26-.19-.1-.29-.3l-3.76-8.22q-.07-.15.08-.21l.28-.14q.43-.19.63.23zM120.77 63.82q-.07-.28-.61.59l-7.28-6.11q-.2-.17-.03-.37l.19-.22q.21-.24.46-.03zM126.36 59.08l.08 3.92q-.59.04-1.02-.91l-.24-3.84zM86.08 58.64l4.1 8.73q-.11.26-.79.48l-4.11-8.68q.1-.3.8-.53M64.33 59.84l1.18 2.55q-1.08-.73-1.97-1.87l-.58-1.18q.19-.69 1.37.5M158.98 61.06v6.27q0 .52.4.86l3.06 2.6.78 1.94-3.77-3.05a.35.34-71.2 0 0-.56.28l.09 8.82q-.26 1.32-.92 1.82-.17-4.88-.19-9.73-.01-.97-1.69-3.82.66-.55 1.27-.02.87-2.56.39-5.85.25-.38 1.14-.12"/><path fill-opacity=".996" d="M140.92 70.15q-.43-.13-.83.49l-4.04-8.63q-.19-.43.24-.61l.27-.12q.17-.07.25.1z"/><path fill="#f8bbc8" fill-opacity=".996" d="M100.86 71.01q-1.07.63-2.04-1.92L96 62.84q-.09-.19.09-.3l.29-.19a.38.37 61.6 0 1 .53.16zM154.77 63.95q-.39-.18-.44-.73.27-.27.54.08.32.4-.1.65M66.95 63.43l2.52.67 1.52.37 2.51.82 1.68 1.44-3.21-.8q-.64-.18-1.3-.09-.76-.7-1.31-.71-.58-.01-.16.39L70.73 67q.98 1.13 1.14 2.1l-6.15-4.94zM79.55 63.81l.6 1.29.51 1.14 6.83 14.71q-.75.54-1.22.06-.12-1.12-.7-1.75l-3.02-6.46-1.01-2.19-2.87-6.31q.3-.44.88-.49"/><path fill-opacity=".996" d="M142.24 82.74q.17.75.52.95.92 2.47 2.11 4.67 1.17 2.17 3.12 3.76 9 7.33 17.04 14.3 1.08.93.45-.35l-2.78-5.69q.73-.25 1.05-.65.76 1.29 1.62 1.57.57.19.58-.41l.05-2.92 1.1-.26 4.12 8.75-1.11.55q-.95-1.5-2.45-2.35-.45-.25-.56.25-.51 2.17.57 3.74-.39.05-.59.33-.16.22-.09.58.09.43.22.69l-.22 6.01q-.87-1.07-1.16-2.17.51-2.59.05-4.95.66-.63-1.12-1.45l-3.22-2.82-3.99-3.4-3.3-2.71q-1.65-2.03-3.9-3.34-1.93-1.63-3.74-3.28-1.83-1.66-2.93-3.9-1.59-3.23-2.97-6.47l-1.06-2.06-3.35-6.89q-.21-1.06-.8-2.01l-3.24-6.85q.69.34 1.08-.32zm26.55 20.77-1.14-2.4q-.35-.74-.53.06c-.25 1.12.25 2.25 1.33 2.69q.63.27.34-.35m-3.85-.66q0 .69.57 1.12.49.37.41-.23-.08-.7-.59-1.08a.24.24 0 0 0-.39.19"/><path fill="#f8bbc8" fill-opacity=".996" d="m125.99 64.45-.21.3q-.36-.04-.53-.26a.34.33-19.9 0 1 .25-.53q.35-.02.49.49"/><path fill-opacity=".996" d="M168.36 81.22q-.12.41-.52.82l-4.62-9.31-.78-1.94-2.72-6q-.06-.13.04-.23l.42-.39q.2-.19.31.06z"/><path fill="#f8bbc8" fill-opacity=".996" d="M190.34 80.02q-.18 1.61 1.17 2.7l.01 29.07q-.47.4-1.07.18-1.09-3.23-2.87-6.17-.48-.8-.34.12.32 2.11.15 4.28c-.22 2.77 1.81 5.89 2.92 8.61l.27 2.64q-1.77-3.27-3.1-6.69-.98-2.51-1.03-5.69-.06-2.94-.17-5.84l1.18-.5 3 6.39q.14.28.13-.03l-.27-7.57q.2-1.05.06-1.98.11-2.39.06-4.76-.04-2.41-.98-4.6-.96-2.24-2.09-4.43-.24-1.1-.99-1.84l-7.09-6.31q.65-.41.84-.35l4.93 4.14q.71.6.31-.25l-2.9-6.16q.58-.28.9-.2l6.72 14.38q.6 1.29.5-.13c-.22-2.86.39-5.6-1-8.35-1.38-2.73-3.26-5.76-3.21-8.87q.05-3.57.08-7.29.01-.29.3-.29h.32q.27 0 .28.27.15 3.19.03 6.78c-.11 3.12 1.55 5.95 2.95 8.74"/><path fill-opacity=".996" d="M98.82 69.09q.97 2.55 2.04 1.92l8.24 17.8q-1.43-.15-2.18-2.11-.88-2.41-2.01-4.62-.96-1.88-2.74-3.36-1.66-1.39-3.42-2.76l-2.21-1.9q-.02.32-.22.01-.5-.84-1.5-1.44l-5.43-4.78q.68-.22.79-.48l12.37 10.42q.71.59.29-.22-.98-1.94-1.92-4.12-.78-1.79-2.82-3.49-2.71-2.25-5.3-4.6.53-.35.66-.62zM88.02 70.79l-.35.86-7.01-5.41-.51-1.14.59.01q.5.01.88.33zM71.97 65.93l4.93 11.49q-.19.34-.74.64l-4.29-8.96q-.16-.97-1.14-2.1.36-.29-.06-1.16.66-.09 1.3.09"/><path fill="#f8bbc8" fill-opacity=".996" d="m126.5 66.2-.1 1.8q-.51.2-1.09-.09-.32-.4-.38-.88.32-.98 1.57-.83M130.26 66.37l5.24 4.44q.59.95.8 2.01l-4.54-3.7q-.76-.61-.3.25 1 1.89 1.85 3.88c1.12 2.6 4.09 4.59 6.34 6.46l1.06 2.06q-2.99-2.17-5.51-4.58-1.94-1.86-3.32-4.72-1.28-2.63-2.53-5.24zM148.29 76.6q-.51.16-.78.38l-7.42-6.34q.4-.62.83-.49l4.84 3.95q.55.45.25-.19l-2.71-5.81q-.05-.1.05-.16l.25-.13q.43-.23.64.22z"/><path fill-opacity=".996" d="M175.21 68.41q.84.24 1.11.84 1.85 4.07 3.81 8-.19-.06-.84.35l-4.16-8.06q-.2-.59.08-1.13M113.55 81.6q.64.77 1.03 2.22c-2.92-2.4-6.9-5.08-8.32-8.37q-1.35-3.11-2.82-6.16-.15-.32.18-.48l.32-.15a.26.26 0 0 1 .34.12q1.55 3.14 2.86 6.21c1.21 2.84 3.97 4.69 6.41 6.61M177.28 83.34l1.94 4.36q-.33 1.11-.19 2.28-.66-.3-.91-.62.3-1.87-.05-3.55-.1-.49-.48-.81c-2.85-2.34-6.42-4.74-7.87-8.14q-1.39-3.28-2.73-6.11a.31.31 0 0 1 .21-.43l.29-.06a.3.3 0 0 1 .33.15q1.6 2.99 2.88 6.15c1.19 2.92 4.09 4.83 6.58 6.78"/><path fill="#f8bbc8" fill-opacity=".996" d="M94.82 72.63q1 .6 1.5 1.44l-8.65-2.42.35-.86z"/><path fill-opacity=".996" d="M191.51 82.72q-1.35-1.09-1.17-2.7l.08-6.55a.39.38 0 0 1 .39-.38h.38q.3-.01.3.29z"/><path fill="#f8bbc8" fill-opacity=".996" d="M98.75 75.96q.95 2.21 1.94 4.31.97 2.05 2.71 3.53 1.7 1.44 3.52 2.9.75 1.96 2.18 2.11.05.47.68 1.13.01.71.32.98l2.92 6.3q-.09.29-.57.7c-2.24-3.53-2.95-7.95-6.33-10.62-2.61-2.06-4.98-3.56-6.45-6.84q-1.43-3.21-3.13-6.4z"/><path fill-opacity=".996" d="m155.51 82.49-.66.62-4.02-8.64q-.13-.27.15-.39l.27-.13a.31.3 65.2 0 1 .4.15z"/><path fill="#f8bbc8" fill-opacity=".996" d="M76.16 78.06q.55-.3.74-.64L89.65 88.1q.66.96.72 1.91l-4.38-3.7q-.93-.78-.4.31l2.51 5.18q-.68.2-1.53-1.17l-2.7-5.42a2.24 2.23 84.2 0 0-1.42-1.16q-2.98-.8-5.88-1.59c-3.69-.99-6.68-4.45-9.57-6.82a.3.3 0 0 1-.03-.43l.22-.24q.18-.2.4-.04 2.81 2.14 5.51 4.62c2.16 1.99 5.09 2.27 7.77 3.03q.9.25.19-.35zM129.74 100.56l.75.53q.7.86 1.55 1.38.49.29.23-.22l-1.87-3.69q-.85-1.97.1-2.59l1.29 2.86q-.04.99.62 1.33l10.31 22.27q-.69.37-1.16.41-1.19-1.64-2.87-2.16-.48-.15-.71-.59-.47-.91-1.2-1.53-.85-.74-.32.25.71 1.33 1.76 2.21.34.29.38.73.12 1.62.88 2.97-1.45.67 1.11 2.46.19 1.13.75 2.03.88 2.11-.13 2.01l-6.71-14.29q-.61-.43-1.14-.54-1.12-.57-2.06-.49-.56.04-.32.54l2.94 6.02q-.04.6.61 1.06l1.56 3.5q-.65 1.42 1.17 2.7l.79 2.07q-.62.33-1.57-.94l-5.76-12.32-.96-2.12q-.32-1.23-1.65-1.4-1.02-.56-2.3-.51l.14-1.28q1.06.46 2.04.53.52.04.39-.47-.99-3.62-4.92-3.66-.9-.68-1.53-.39l-1.34-.56q-2.41-.5-2.57-1.76l3 .68q.4.41 1.46.31.81.5 1.76.71.53.12.19-.31-1.18-1.49-2.87-2.53-.62-.79-1.63-1.02-.04-.14-.23-.28l.58-1.17 11.93 10.1q1.2 1.01.53-.4l-6.64-14.02-1.33-1.27q-2.15-1.63-4.08-3.4-1.82-1.67-3.05-4.22-1.53-3.19-3.06-6.27-.39-1.45-1.03-2.22l-2.7-6.08q-.15-.32.18-.47l.23-.11q.3-.15.45.16 3.46 7.25 6.85 14.82.9 2.02 2.93 3.75 4.11 3.51 8.25 6.89m.31 3.91q.06.55.42.53.56 2.63 2.53 3.56.63.3.61-.4c-.05-2-.11-3.49-2.02-4.69q-1.57-.98-2.71-2.29-.1-.12-.26-.1-.13.02-.22.14-.04.05-.01.1zm4.32 3.38q-.09 2.29 1.83 3.63.59.41.28-.24-.95-2-2.17-3.71-.46-.63-.05.04l.05.09q.06.09.06.19m3.16 7.77q.28-2.08-1.76-3.17-1.88-1-2.87-2.74-.13-.22-.35-.1h-.01q-.23.12-.11.35.64 1.22 1.8 2.19.44.36.35.93-.45 2.89 2.81 4.4.86.4.39-.43-.16-.26-.22-.57-.08-.42-.03-.86m-7.32-1.63q.4.8 1.25.9.81.1.23-.48l-1.89-1.92q-.58-.59-.59.23-.01.57.54.82a1.02.98.6 0 1 .46.45m10.115 6.361a1.9.45 62.9 0 0-.464-1.896 1.9.45 62.9 0 0-1.266-1.486 1.9.45 62.9 0 0 .464 1.896 1.9.45 62.9 0 0 1.267 1.486"/><path fill-opacity=".996" d="m148.29 76.6 3.8 8.18q0 .32-.69.51l-3.89-8.31q.27-.22.78-.38M158.98 78.78q2.8 2.2 5.43 4.4 1.97 1.65 4.14 2.31 2.3.7 4.7 1.23l1.57 1.35c-3.75-.72-8.48-1.58-11.24-4.15q-1.84-1.71-3.76-3.26-1.04-.84-.47.37l3.7 7.96q-1.56-.38-2.05-1.97l-2.94-6.42q.66-.5.92-1.82M87.49 80.95l7.02 15.12q-1.28-.03-1.45-.29l-2.69-5.77q-.06-.95-.72-1.91l-3.38-7.09q.47.48 1.22-.06"/><path fill="#f8bbc8" fill-opacity=".996" d="m155.51 82.49 5.49 4.53q.49 1.59 2.05 1.97l4.05 8.72-1.1.26q-.39-1.5-1.27-2.79l-.83-2.66q-.17-.55-.51-.08-.33.47-.27 1.34-.8.15-1.21-.78.3-1.86-.03-3.49-.09-.49-.47-.81l-6.56-5.59zM151.4 85.29q.69-.19.69-.51l7.69 6.51q-.66 1.2 1.02 2.34.1.87.44 1.56.2.4.58.15.14-.1.23-.31.89-.25 1.09.67-.53 2.31.61 4.03-.32.4-1.05.65l-3.56-7.85a1.2 1.18-3.3 0 0-.73-.64q-3.31-1.07-6.6-1.84c-3.22-.76-6.43-4.25-9.05-6.36q-.35-.2-.52-.95.38-.13.7-.1.28.03.49.2 2.63 2.19 4.99 4.28c2.28 2.02 5.04 2.24 7.83 3.06q.9.26.2-.37z"/><path fill-opacity=".996" d="M187.37 85.75q0 2.44.05 4.86.05 2.39 1.01 4.59.95 2.17 1.95 4.34.14.93-.06 1.98-1.46-2.72-2.65-5.49-1.16-2.71-1.25-5.86-.1-3.08-.04-6.26.75.74.99 1.84"/><path fill="#f8bbc8" fill-opacity=".996" d="M134.09 90.99q-.29.73-.79.75l-1.98-1.81-4.96-4.3q.21-.34.09-.88zM150.35 95.42q2.25 1.31 3.9 3.34.54 2.69 3.3 2.71l3.99 3.4q.47 2.61 3.22 2.82 1.78.82 1.12 1.45-1.14-.46-1.99-.45-.55 0-.32.51l2.26 4.89q.29 1.1 1.16 2.17l1.59 3.49q-.8 1.29 1.2 2.75.2 1.02 1.04 2.1-.49.75-2.01-1.23-1.98-4.52-4-8.8-1.16-2.46-3.2-4.26-5.41-4.81-11.12-9.5-1.1-.6-2.71-.72l-6.7-1.91.63-.78 11.69 3.36q.28.08.21-.19-.38-1.7-1.25-3.16-.19-.34-.57-.46-3.26-1.06-6.54-1.83c-3.35-.78-6.75-4.45-9.43-6.73q-.22-.18-.06-.41l.18-.25q.2-.29.48-.08 2.63 2.04 5.05 4.28 1.6 1.48 4.17 2.23 2.31.67 4.71 1.26m4.865 7.736a1.09.33 43.9 0 0-.556-.994 1.09.33 43.9 0 0-1.014-.518 1.09.33 43.9 0 0 .556.994 1.09.33 43.9 0 0 1.014.518m5.005 3.624a.5.5 0 0 0 .68-.66l-1.23-2.61a.5.5 0 0 0-.3-.27l-2.75-.87a.5.5 0 0 0-.56.76l1.52 2.22a.5.5 0 0 0 .18.16zm2.223 2.599a1.14.32 43.8 0 0-.602-1.02 1.14.32 43.8 0 0-1.044-.558 1.14.32 43.8 0 0 .602 1.02 1.14.32 43.8 0 0 1.044.558"/><path fill-opacity=".996" d="M41.76 95.72q-.09.4-.34.58l-7.33-5.78q-.28-.23-.04-.5l.19-.22q.2-.22.43-.03zM86.57 90.63q.85 1.37 1.53 1.17l4.24 3.64-.38 1.39-7.21-6.35q-.52-.46.16-.56.58-.09 1.66.71M124.77 97.71l1.33 1.27q-3.73-.76-6.94-1.84-2.31-.77-4.7-2.78-2.11-1.78-4.36-3.44-.31-.27-.32-.98.63-.24.98.05 2.52 2.08 5.02 4.2 1.78 1.51 4.03 2.13 2.46.67 4.96 1.39M141.71 97.4l-.63.78-7.78-6.44q.5-.02.79-.75zM161.91 93q.41.93 1.21.78.46 1.33 1.61 1.4.88 1.29 1.27 2.79-1.29-1.42-2.86-2.27-.2-.92-1.09-.67-.47-.9-1.25-1.4-1.68-1.14-1.02-2.34zM179.16 92.03q0-.27-.68-.25-.01-.29-.18-.54.75-.02.86.79M178.48 91.78q.99 1.3.48 2.17l-1.08-2.25q.38.23.6.08"/><path fill="#f8bbc8" fill-opacity=".996" d="m74.48 108.72 1.88 1.61-5.98-1.58q-.92-.24-.17.34 1.77 1.39 3.48 2.89c2.03 1.79 5.45 2.34 8.2 2.96q1.87 1.98 2.71 1.03l10.88 2.75-.19.88-8.71-2.42q-.64-.18-.13.25l5.52 4.61q-.03.35-.38.81-2.88-2.24-5.72-4.6-2.13-1.77-4.14-2.27c-2.93-.72-6.4-1.16-8.73-3.26q-2.62-2.34-5.33-4.47a1.03 1.02-30.8 0 0-.84-.21q-3.22.57-6.42 1.19c-3.65.7-8.1-1.25-11.56-2.11q-.4-.1-.19-.44l.21-.36q.09-.14.25-.11 3.2.64 6.61 1.73c2.81.91 5.57.15 8.28-.43q1.04-.22.02-.51-1.98-.57-4.05-1.06c-2.8-.66-5.17-3.25-7.29-5.16-2.58-2.33-7.09-3.06-10.5-3.93q-.28-.07-.77-.55.25-.18.34-.58l6.1 1.64q.97.26.2-.39l-4.8-4.09q-.22-.18 0-.37l.22-.18a.47.47 0 0 1 .6 0q6.35 5.24 12.68 10.72 1.52 1.32 3.94 1.99 6.81 1.91 13.78 3.68"/><path fill-opacity=".996" d="M101.77 98.46q-1.06.82-2.71-1.04l-5.17-4.3a.29.28 38 0 1-.05-.38l.29-.4q.16-.22.36-.04zM187.46 102.73l-1.18.5q-1.28-1.79-3.17-2.51-.16-.52-.84-.49-.2-1.1-.99-1.15l-1.17-1.28q-.34-.37-.12-.83.1-.23.3-.45 1.09 1.37 2 1.39.77 1.6 1.12.88.44 1.17 1.29 1.41.63.18.31-.39l-1.72-3.14q-.97-1.8.05-2.78z"/><path fill="#f8bbc8" fill-opacity=".996" d="M67.13 102.48 68.9 104c-3.96-.83-8.58-1.68-11.54-4.42q-2.35-2.17-4.67-4.07-.29-.23 0-.46l.31-.26q.19-.15.38 0 2.62 2.22 5.19 4.38 1.86 1.57 4.02 2.19 2.23.64 4.54 1.12M117.85 102.66q1.6.8 1.18 1.35c-3.9-.94-8.53-1.86-11.43-4.63q-2.16-2.07-4.31-3.84-.27-.22-.05-.49l.18-.22q.08-.11.2-.03 2.69 1.83 4.96 4.09c2.29 2.27 6.12 2.94 9.27 3.77M93.06 95.78q.17.26 1.45.29l4.55 1.35q1.65 1.86 2.71 1.04l7.22 6.03q.01.38-.31.89-2.78-2.2-5.51-4.5-1.82-1.52-3.68-2.15-2.09-.7-4.2-1.11-1.46-.64-2.82-.51-.51-.62-.51-.28l.38-1.39q.3.41.72.34"/><path fill-opacity=".996" d="m95.29 97.62 3.95 8.51q-.09.85.72 1.06-.23.47.06.48l-.92.38q-1.77-3.6-3.51-7.29c-.77-1.65-1.79-2.53-3.12-3.65q1.36-.13 2.82.51M84.6 115.97q-.84.95-2.71-1.03l-5.53-4.61-1.88-1.61L68.9 104l-1.77-1.52-5.05-4.28q-.38-.33-.01-.65l.22-.19a.27.27 0 0 1 .36 0zM120.28 103.3l-.58 1.17-.67-.46q.42-.55-1.18-1.35l-5.4-4.74q.48-.41.57-.7zM147.78 100.09q1.61.12 2.71.72-3.41.61-6.88 1.13-2.55.38-5.15-.29-2.97-.76-6.05-1.49-.66-.34-.62-1.33 3.5.92 7 1.87 2.38.65 4.49.33 2.24-.34 4.5-.94"/><path fill="#f8bbc8" fill-opacity=".996" d="M95.78 114.59q.02.2-.37.9-.02-.21-.36-.33-.3-.1-.54-.3-2.4-2.05-4.99-4.25c-3.54-2.99-8.76-2.06-12.28-5q-3.08-2.57-6.01-5.16-.15-.13-.02-.28l.24-.26q.21-.24.45-.04 2.79 2.17 5.42 4.54c2.24 2.02 5.04 2.3 7.71 3.01q1.04.28.21-.41l-4.48-3.76q-.27-.23-.09-.52l.17-.28q.17-.29.42-.07z"/><path fill-opacity=".996" d="m130.49 101.09-.75-.53q.62-.42.75.53M183.37 103.79c.02 3.51-.67 8.36.85 11.47q3 6.14 5.76 12.33.35.77.38-.08l.22-6.06-.27-2.64.14-6.84q.6.22 1.07-.18l.01 48.27-1.05.05q-1.5-3.3-2.99-6.64-1.02-2.27-1.07-4.73-.04-2.46-.05-4.93c-.01-2.6-1.36-3.86-3.63-4.61q-.43-.7-.47-.35-.29-1.14-1.22-1.5-1.61-1.27-1-2.42 1.15 1.17 2.39 1.8.45.78 1.03 1.01.58.84 1.32 1.29.63.38.29-.27l-1.83-3.43q-.32-1.97-.94-2.07-1.32-1.95-3.4-2.8-.44-.31-.71-.26-.19-1.22-1.15-1.59-1.44-1.77-1.76-1.13l-.07 7.36q-.63-.09-.99.1l-3.13-6.57q-.29-2.17-.94-1.68c-.45-1.53-2.91-1.9-4.25-2.34q.57-.36.41-.87.29.29.45.19.17-.11.02-.26l-3.74-3.62q.33-.22.67-.44l5.09 4.02q1.52 1.98 2.01 1.23.89.58 1.3.41.52-.23.07-.59l-2.41-1.92q-2-1.46-1.2-2.75 2.14 2.62 4.93 4 .41.21.2-.2l-2.82-5.52q1.12-.27.96-.81.96 1.36 2.19 1.76.56 1.24 1.14.79.44 1.3 1.05 1.51.6.21.45-.41-.41-1.75-1.58-3.09-.8-2.03.18-2.56l12.21 26.27q-.91.66-.13 2.23c-.03 2.92-.42 6.48.88 9.01q.98 1.89 1.78 3.84.39.96.36-.08l-.24-7.14q.41-.72.04-1.97 1.14-5.09-.45-8.35-1.68-3.45-3.23-7.05.69.1.99-.24l2.55 5.49q.23.48.3-.04.99-6.81-2.96-12.57l-1.03-2.15-7.06-6.15q.48-.24.66-.59l4.86 3.99q.75.61.33-.26-1.01-2.08-1.96-4.13c-1.44-3.1-.82-7.98-.83-11.35q.68.32 1.02-.19m-10.23 16.65q-.02.38.25.6a.34.34 0 0 0 .55-.25q.02-.39-.37-.6-.42-.22-.43.25m1.87 4.77q1.48 1.79 3.45 2.84.1.21.24.57.09.25.21.28.17.04.37-.23.59 1.13 1.43 1.42.63.21.29-.36l-1.91-3.31q-.1-1.44-.73-1.86l-3.4-3.08q-2.05-.36.05 3.73m-1.2 6.16q.42.89.4-.09l-.08-3.87q-.01-.9-.9-1.09l-.98-.21q-.98-.2-.56.71zM118.02 106.91q.16 1.26 2.57 1.76.48 1.03 1.27 1.14.42.05.24-.33-.05-.11-.17-.25.63-.29 1.53.39.57 2.46 2.49 3.6l-.14 1.28-7.29-5.98q-.69-.57-1.58-.43l-8.48 1.39q.56-.57.08-.89 3.11-.6 4.54-.78 3.23-.4.08-1.24l-4.48-1.19q.32-.51.31-.89zM130.47 105q-.36.02-.42-.53.35.04.42.53M121.56 105.77l.92 2.13q-1.06.1-1.46-.31l-1.09-2.84q1.01.23 1.63 1.02"/><path fill="#f8bbc8" fill-opacity=".996" d="m99.1 108.05.92-.38 7.23 5.94q-1.05.84 1.14 2.42.61 2.66 3.38 2.88 1.39.84 1.99 1.79l-3.04-.9q-.68-.2-.38.45l.75 1.61q-.95-.05-1.82-1.5-.11-.87-1.39-1.45-3.21-.45-2.65-1.82l1.92.67q.62.21.51-.43-.5-3.02-3.29-3.63c-3.21-.72-6.76-1.4-9.31-3.66q-2.58-2.29-5.1-4.36-.23-.19-.04-.41l.2-.23a.38.37 38.9 0 1 .52-.05q2.74 2.15 5.31 4.48c2.13 1.93 4.92 2.31 7.57 3.01q1.55.4.3-.61zM108.54 108.59q.48.32-.08.89l-8.5-2.29q-.81-.21-.72-1.06zM171.22 106.46l4.06 8.76q-.98.53-.18 2.56l.08 1.99q-.58.45-1.14-.79 1.02-4.09-2.55-5.55-.49-.19-.48.33.04 1.82.84 3.46.16.54-.96.81l-3.68-7.78q-.13-.26-.22-.69-.07-.36.09-.58.2-.28.59-.33l1.53 1.22q.93.74.92-.45l-.01-2.41zm1.74 6.12-1.42-2.95q-.33-.66-.41.07-.26 2.15 1.51 3.18.66.39.32-.3m-3.109.213a.74.35 71.8 0 0 .101-.812.74.35 71.8 0 0-.563-.594.74.35 71.8 0 0-.102.812.74.35 71.8 0 0 .564.594M179.95 115.73q-.18.35-.66.59l-4.08-8.72q-.12-.27.16-.36l.34-.11q.22-.07.32.14zM163.72 119.35q-.34.22-.67.44l-4.19-8.54q-.12-.24.12-.36l.25-.11a.42.42 0 0 1 .55.2z"/><path fill-opacity=".996" d="m107.25 113.61 30.32 25.54q.95 1.02 1.09.66 1.17 1.68 3.05 2.53.37 1.11 1.06 1l6.52 5.55q.82.84 1.59.98.83 1.73 3.07 2.93.48 1.18.92.47.29 1.11 1.25 1.48.53.2.4-.35-.35-1.53-1.61-2.49-.11-1.79-.91-1.93l-.19-.71 1.15-.49 3.12 6.77a1 .98 83.3 0 0 .7.56q.56.12 1.02.48 2.59 2.05 5.01 4.28 1.31 1.2 3.51 1.81l3.93 1.09q1.24.34.27-.5c-2.33-2-4.39-3.08-5.78-6.13q-1.66-3.61-3.46-7.12.6.32 1.11-.31 1.46 3.32 3.04 6.57 1.15 2.35 3.18 4.08 2.7 2.32 5.39 4.53-.87.9 1.05 2.25-.05.88.69 1.28.19.11.24-.1.03-.13.01-.27.48.26.79.71l1.27 4.9q-.42.37-1.36-.18l-3.01-6.69a2.92 2.89-4.7 0 0-1.93-1.62c-3.26-.82-7.33-1.4-9.78-3.67q-2.04-1.89-4.4-3.76-.8-.64-.36.29l3.83 8.16q-.71-.02-.83.43-.08.27.21.7.56.86.78 1.7-.32.92-.15 1.97-.74-.24-1.23-.86.44-2.22-.01-3.97l-.99-2.2q-.39-1.91-1.77-3.34-.13-1.75-1.07-2.39-1.02-2.02-3.03-2.79l-.3-.5q-.12-.2-.34-.12-.13.05-.27.16-.21-1.1-.63-1.09a.47.47 0 0 0-.39.72q.52.82.99.69-.01 2.67.89 2.01.11 1.31.81 2.37-.61-.01-1.27.3-1.08-2.64-2.35-5.21-.12-.24-.11-.5.02-.29.25-.5a.27.27 0 0 0-.15-.47q-.36-.04-.7.08-.54.19-.54.76l.03 4.89q-.76-1.11-.9-1.99-.37-3.13.13-5.29 1-.35-1.72-1.76-1.09-1.61-2.69-2.5-.64-.35-.27.28l.85 1.47q-.94-.01-1.5-.28-.59-2.7-2.11-3.58-.63-.69-1.1-.29l-.95-.3q-.58-.18-.47.41.24 1.34 1.35 2.56.65.69.16 1.7-.21.46.11.84.28.32.81.54-.07 1.28.48 2.17-.59.22-.15 1.14l-.2 4.76q-.02.54.39.89l7.26 6.15q.06.04.11-.02l.18-.23q.15-.2-.04-.35l-3.74-3.11q.48-.28.55-.64l4.89 3.83q.5.39.22-.18l-1.25-2.55q.85-.29.79-.89l5.53 4.83q.54.8 1.39.9.05.52.67.91-.72.54-1.62.76-1.51-.93-3.01-.99-.29-.06-.59-.01-.2.03-.31.17-.11.16-.16.36-.78-1.23-1.99-1.49c-3.4-.75-6.17-3.7-8.52-5.97q-.63-.61-.29.2.91 2.2 1.89 4.3c1.38 2.97 5.53 5.6 8.06 7.86q-.97.41-.93.79l-2.91-.94q-.55-.17-.44.39.7 3.75 4.91 3.84.72.4 1.37.13 1.29 1.04 2.36.85.6.26 1 .79.33.43-.17.64l-.34.14q-1.26-1.06-1.76-.32-.65-.75-1.5-.57-.48-.45-.98-.06l-.21-.19q-.33-.41-.74-.47l-4.8-1.22q-.88-.9-1.14.44-.7-.28-1.71-1.5-.51-.62-1.12-.22l-2.87-.78q.55-.44.66-.77.83.29 1.64.15.49.09.77-.01 1.34 1.21 1.63.67.69.69 2.11.57.88-.62-.46-2.26-.11-.13-.28-.1l-.34.06q-.43.08-.69-.26-1.21-1.62-3.55-1.76-3.26-3.48-7.52-5.69l-3.88-8.23.83-.25q1.73 3.43 3.19 7.01.19.45.8.45.62 0 1.08.41 3.1 2.74 6.13 5.15.82.66 1.95.77.24.02.51-.01a.42.41 62.2 0 0 .22-.72l-7.27-6.53.61-.61 4.48 3.74q.79.66.36-.28l-3.59-7.94q-.3-1.08-1.01-2.13-1.94-6.97-8.16-10.62l-2.13-2.06q-4.03.61-7.93-.22-1.26-1.16-1.39-.51l-4.18-1.31q-.35-.11-.26-.46l.08-.28q.04-.15.19-.12 2.1.5 4.23.84.77.12.17-.37l-7.22-6q-.26-.21-.04-.47l.22-.25q.22-.26.48-.04 2.89 2.37 5.68 4.82c1.86 1.63 4.04 1.76 6.31 2.43a.47.46-83.3 0 0 .59-.47q-.02-.34-.39-.71 1.06-.18 2.03.33-.37.31.02.59.72.55 3.24 1.41.13.04.12.18 0 .13-.03.27a.99.98 25.7 0 0 .34.96l3.47 2.86q.87.71.37-.29l-1.7-3.38q-.23-.48-.76-.52-1.24-.12-1.8-1.15 1.2.12 2.44.57.69.25 1.22-.65 1.13-.1 1.8.41.39.31.43.8.1 1.13 1.17 1.65.56.27.17-.22-.43-.54-.95-.96-.39-.31-.32-.81.32-2.37-1.71-4.15l-1.54-1.43-3.37-2.97-1.75-1.26-.56-.42-1.66-1.58-3.35-2.94-4.27-3.31q-.86-1.43-2.39-2.22-.55-.28-.44.32.09.51.62 1.07-.76.15-1.34-.16l-1.5-3.31q-.6-.95-1.99-1.79l-3.38-2.88q-2.19-1.58-1.14-2.42m31.4 28.42q.5 1.34 1.52 1.66.58.19.37-.38-.37-.99-1.74-1.51-.17-.75-.57-.24a.33.31-34.9 0 0-.06.28q.1.32.48.19m-15.66.91q.85.55 1.79.68.77.11.11-.31-1.78-1.13-3.45-1.01-.53.04-.14.4.35.32.72.16.51-.22.97.08m18.17 14.86a.31.31 0 0 0 .59-.13l-.12-5.94a.3.3 0 0 0-.03-.13l-1.72-3.64a.3.3 0 0 0-.08-.1l-4.25-3.73a.31.31 0 0 0-.49.36zm14.98 9.71q.79.17.2-.38l-2.43-2.27q-.56-.52-.35.21.59 2 2.58 2.44m-6.6 4.46q-.38-.55-.9-.82-.3-.17-.52-.44-.32-.42-.82-.72-.61-.37-.35.3.65 1.67 2.3 2.09.68.17.29-.41"/><path fill-opacity=".996" d="M105.23 117.09q-.56 1.37 2.65 1.82-.1.99 1.39 1.45.87 1.45 1.82 1.5l1.67 1.5-.55 1.31-7.25-6.12q-.4-.33-.91-.26l-8.76 1.31.19-.88 5.9-1.09q.59-.11.01-.29l-5.98-1.85q.39-.7.37-.9zM128.11 115.01q.42 1.1 1.65 1.4l.96 2.12-4.91-4.03q1.28-.05 2.3.51M134.5 116.93l.03 6.59q-.65-.46-.61-1.06l-.56-6.07q.53.11 1.14.54"/><path fill="#f8bbc8" fill-opacity=".996" d="M166.32 123.48q.16.51-.41.87l-7.19-6.11q-.16-.14-.03-.31l.21-.28q.19-.24.42-.04zM131.17 126.58q-.11.31-.53.53-.11-.12-.34-.22a.23.21 85.6 0 1-.12-.11l-3.8-8.16q-.17-.35.19-.52l.25-.11q.25-.12.37.13zM174.96 121.48q.5 2.4.05 3.73-2.1-4.09-.05-3.73"/><path fill-opacity=".996" d="M100.8 124.34q.24 1.34-2.69.53l-6.52-2.02q.35-.46.38-.81zM142.72 122.43l8.04 17.31q-1.59.33-2.07-2.02l-1.85-3.94-1.06-1.9q-.92-1.57-2.36-2.32-.47-.24-.6.27-.52 2.02.59 3.65-.64.64.09 1.25.84.71 1.44 1.42-.1 1.29 1.13 2.11-.18 1.52.78 2 .01.79.4 1.49l-.84.98-3.65-8.1-1.07-.42-1.12-.58q-2.12-1.12-1.14 1.07l2.06 4.57q.31.98-.07 2.22l-2.81-6.04q-.57-1.5-1.1-2.06c-1.34-1.25-2.82-1.05-3.91-1.93q.29-.23.16-.74.23.21.47.02a.32.32 0 0 0-.02-.53q-2.03-1.26-3.57-3.1.42-.22.53-.53l5.31 4.27q.95 1.27 1.57.94 3.88 1.16-.79-2.07-1.82-1.28-1.17-2.7 2.19 2.54 5.12 4.2 1.01.1.13-2.01l.21.23q.32.33.3-.13-.05-1.29-1.26-2.13-2.56-1.79-1.11-2.46.92 1.27 1.75 1.44.56.12.52-.45l-.19-2.87q.47-.04 1.16-.41m.4 3.45q-.34-.6-.42.08-.22 1.78 1.4 2.67.84.46.37-.38zm-3.06 6.62q-.1.06.09.14.22.09.11-.12-.05-.11-.2-.02"/><path fill="#f8bbc8" fill-opacity=".996" d="m187.38 124.62.11 7.12q-.3.34-.99.24l-.15-9.51zM115.26 124.01q.58.31 1.34.16.77.75 2.21.83l4.27 3.31q.76 3.03 3.35 2.94l1.66 1.58-2.43-.59q-.57-.13-.51.44.07.74.68 1.64-.85-.04-1.59-1.33-.62-1.29-1.97-1.77-2.36-.12-2.51-1.72l2.24.56q.5.13.39-.38-.84-3.8-4.97-3.82l-1.42-.32q-.63-.57-1.26-.44-1.08-.48-2.08-.29-.45-.49-.45-.14l.55-1.31q1.22.58 2.5.65M98.11 124.87q2.93.81 2.69-.53l9.96 2.79q-.44.86-.97.98-1.26.04-2.3.49-.5.22-.32.74.24.72 1.65 1.39l-2.72-.94q-1.04-.87-2.32-.69-1.43-.27-2.3.66l-.68.02q-.14-.92.13-1.22l2.08-.4a.41.41 0 0 0 .17-.73l-2.13-1.62a1.01.99-30.4 0 0-.77-.19c-3.37.48-7.91 1.98-11.26.9q-3.26-1.04-6.57-1.83a.47.47 0 0 1-.35-.56l.06-.25q.05-.23.28-.18 3.4.73 7.25 1.96 1.65.52 3.98.08 2.14-.41 4.44-.87m9.38 2.84q-1.74-1.07-3.49-1.37-.75-.13-.2.4 1.59 1.52 3.58 1.4.73-.05.11-.43M179.09 126.42l.19 2.25q-.2.27-.37.23-.12-.03-.21-.28-.14-.36-.24-.57-.57-1.9-.1-3.49.63.42.73 1.86"/><path fill-opacity=".996" d="M114.74 125.1q.39.9 1.51 1.03.06.33.47.29.21-.03.11-.22-.12-.23-.58-.07.04-.33-.25-.59l1.42.32q.7 2.66 2.34 3.64.15 1.6 2.51 1.72.69 1.36 1.97 1.77.74 1.29 1.59 1.33l1.43 1.35-.29 1.27-6.62-5.95q-.21-.19-.37.05-.06.09-.07.24-.48-.78-1.21-.27-1.23-.36-2.33.04-.54.2-.1.58l4.68 4.09q.77.83 1.56 1.22l3.01 2.52-.48.99-7.91-6.41-1.78-1.52q-.28-.79-2.09-1.06-.95-2.22-3.47-3.35.53-.12.97-.98 2.22.45 4.48 1.13.84.25 1.07.72.09.19.3.21.25.02.38-.14.18-.24-.04-.43l-4.29-3.81q1-.19 2.08.29m-1.56 3.72q-.26-.05-.12.18.7 1.16 2.19 1.19a.38.38 0 0 0 .39-.32l.04-.29q.05-.28-.23-.33z"/><path fill="#f8bbc8" fill-opacity=".996" d="M133.76 130.72q.13.51-.16.74l-7.39-5.88a.46.46 0 0 1-.07-.66l.19-.23q.12-.15.27-.02zM91.3 130.26q.33.56.11 1.03l-9.77-2.58-2.58-.73-6.27-1.75q-.37-.1-.15-.41l.25-.36q.11-.14.28-.1zM171.1 128.37l.12 7.25-.82.08-.24-9.01q.65-.49.94 1.68"/><path fill-opacity=".996" d="m79.06 127.98 2.58.73q-3.38.71-6.73 1.22-2.61.4-5.27-.31-3.17-.85-6.37-1.77-.3-.09-.23-.39l.06-.29q.06-.28.34-.22 3.34.74 6.49 1.77 2.05.66 4.47.32 2.33-.33 4.66-1.06"/><path fill="#f8bbc8" fill-opacity=".996" d="M177.05 128.61q.24 1.53 1.15 1.59.27-.05.71.26l1.14 4.47q-.61 1.15 1 2.42.34 1.51 1.22 1.5.04-.35.47.35-.26.68.29 1.08.39.29.38.77l-.07 1.72q-.53.07-.9-.03l-7.15-15.26q.32-.64 1.76 1.13"/><path fill-opacity=".996" d="M100.93 128.56q-.27.3-.13 1.22l-.5.2q-1.04-.07-1.97.2l-6.92 1.11q.22-.47-.11-1.03zM103.78 129.1q.74 1.1 2.32.69l2.72.94 4.44.73q-.08.29.22.51l-3.55.2-8.45-2.41q.87-.93 2.3-.66"/><path fill="#f8bbc8" fill-opacity=".996" d="M100.3 129.98c-3.01 2.3-6.45 5.2-10.17 5.68q-3.24.42-6.28 1-.5.09-.59-.41l-.05-.29q-.02-.14.12-.17 3.34-.73 6.95-1.18 2.08-.26 4.19-1.7 1.9-1.3 3.86-2.73.93-.27 1.97-.2M119.91 131.28l2.6 5.66q-.79-.39-1.56-1.22l-2.25-4.71q.73-.51 1.21.27M146.84 133.78q-.7 2.83 1.85 3.94.48 2.35 2.07 2.02l4.2 9.04-1.15.49q-.94-1.6-2.32-2.09-.55-.19-.56.39l-.05 2.3q-.77-.14-1.59-.98l-2.88-6.16.84-.98q.87 1.19 2.02 1.79.55.3.62-.33.39-3.33-2.39-5-.6-.36-.62.34l-.03 1.71q-.96-.48-.78-2 .18-.99-1.13-2.11-.6-.71-1.44-1.42-.73-.61-.09-1.25l1.39 1.2q.97.85.98-.45v-2.35zm4.58 9.73q-.47-.79-.53.13-.12 1.65 1.17 2.63.63.49.42-.28-.36-1.29-1.06-2.48m-1.283 3.484a1.45.33 59.9 0 0-.441-1.42 1.45.33 59.9 0 0-1.013-1.089 1.45.33 59.9 0 0 .442 1.42 1.45.33 59.9 0 0 1.012 1.09M113.48 131.97q.82.43 1.87.55l1.78 1.52-7.2-1.87zM130.4 134.51q.59 2.81 3.37 2.97l1.54 1.43-2.46-.48q-.49-.1-.38.39.26 1.07.96 2.12-.17.16-.3.32-.36.44.21.44h.41l.97.49q-.53.9-1.22.65-1.24-.45-2.44-.57l-3.27-.93q-.97-.51-2.03-.33l-.72-.56.48-.99 6.17 1.62q1.02.26-.41-1.91-.3-1.52-1.77-1.69-1.02-.53-2.26-.39-.26-.51-.28-.15l.29-1.27q1.05.58 2.09.64.59.04.36-.5l-1.06-2.56zM138.61 135.45l.05 4.36q-.14.36-1.09-.66l-.06-5.76q.53.56 1.1 2.06M183.25 135.33q-.06 1.47.22 2.41-.58-.23-1.03-1.01l-.13-3.47q.62.1.94 2.07M142.76 134.63l.01 8.71q-.69.11-1.06-1-.04-.56-.29-.85.38-1.24.07-2.22l.2-5.06zM175.22 134.84l-.04 9.18q-.53.15-.96-.04-.1-.75-.18-.31.29-1.29.12-2.08l.07-6.65q.36-.19.99-.1"/><path fill-opacity=".996" d="M162.49 148.09q.49.67.58 1.84-2.15-1.74-4.22-3.46-2.66-2.21-3.54-4.14-1.54-3.37-3.02-6.59-.15-.33.18-.47l.32-.13q.2-.09.31.11 1.52 2.93 2.81 6.06c1.22 2.92 4.04 4.88 6.58 6.78M171.22 135.62l2.94 5.97q.17.79-.12 2.08l-3.64-7.97zM129.51 137.48q.64 1.15 1.77 1.69 1.43 2.17.41 1.91l-4.44-3.99q1.24-.14 2.26.39M133.75 141.7h-.41q-.57 0-.21-.44.13-.16.3-.32z"/><path fill="#f8bbc8" fill-opacity=".996" d="M138.8 141.8q-.07.12-.15.23-.38.13-.48-.19a.33.31-34.9 0 1 .06-.28q.4-.51.57.24M164.39 149.71q-.51.63-1.11.31-.26-.64-.21-.09-.09-1.17-.58-1.84l-2.83-6.41q-.04-.09.03-.16l.21-.21q.3-.3.49.09zM187.49 141.49l2.69 5.89q.37 1.25-.04 1.97l-2.78-5.63q-.78-1.57.13-2.23"/><path fill-opacity=".996" d="M183.34 142.77q-.03 3.32.05 6.63.06 2.58 1.16 4.99 2.94 6.42 5.89 12.85.1.92-.18 1.81l-2.83-5.76-1.07-2.26q-.22-.02-.32-.42-.17-1.1-.89-2.02-.6-2.01-1.97-4.53c-1.48-2.71-.85-8.23-.74-11.32q.37.1.9.03"/><path fill="#f8bbc8" fill-opacity=".996" d="M121.29 143.91c1.23 2.71 2.42 6.4 4.72 8.23q1.59 1.27 3.15 2.57.88.73.39-.31l-2.48-5.31a.32.32 0 0 1 .16-.43l.34-.16q.22-.1.32.12l4.16 8.88-.83.25q-3.07-2.33-5.85-4.97-1.88-1.79-3.12-4.42-1.14-2.43-2.35-4.96.13-.65 1.39.51"/><path fill-opacity=".996" d="M175.18 144.02q-.06.88.17 1.69-.16.68.03 1.2-.26 2.44-.17 4.82.08 2.3 1.15 4.56 7.11 15.02 13.7 29.34.4.87.41-.09c.06-3.08.38-5.48-1.07-8.55q-1.45-3.08-2.84-6.22.65-.14.85-.48l2.61 5.62q.44.95.44-.09v-6.11l1.03.02.02 28.99q-.52-.12-.98.07l-4-8.74q.75-.11.92-.55l2.64 5.68q.23.51.31-.05.89-6.88-3.05-12.56-.72-2.54-2.22-4.57-.27-1.79-1.62-3.37-.31-.36-.34.12-.01.18-.22.23-.51.13-.52-.4l-.06-2.9q-.37-1.28-1.31-2.59l-1.42-3.08q-.3-.65-.52.03l-.32.96q-.51-.17-.68-.42c.5-1.94.28-3.85-1.36-5.13-2.22-1.71-5.47-3.93-6.62-6.5q-1.56-3.52-3.16-6.96-.1-.22.12-.32l.23-.11a.39.38-26.5 0 1 .5.16q1.56 2.89 2.97 6.28c1.11 2.69 3.59 4.28 5.74 6q1.06.85.42-.35c-1.3-2.43-2.6-4.58-2.71-7.56q-.15-4.05-.03-8.11.43.19.96.04"/><path fill="#f8bbc8" fill-opacity=".996" d="M131.35 146.19q.91 2.05 1.9 4.04 1.01 2.04 2.66 3.53 1.74 1.58 3.6 3.05.71 1.05 1.01 2.13-2.64-2.06-5.03-4.27-2.2-2.02-3.62-4.94-1.27-2.63-2.65-5.6zM142.66 145.38c-.09 1.58-.33 3.85 2.11 3.58q.56.27 1.5.28.93.59 2.11.75 2.72 1.41 1.72 1.76-1.52-.86-3.13-1.04l-1.71-.44q-1.65-.23.44 1.02 1 1.17 1.38 2.51l-3.66-2.98q-.2-.16-.39-.15-.24.01-.46.17-.53-.22-.81-.54-.32-.38-.11-.84.49-1.01-.16-1.7.34-1.42.07-2.67.47-.4 1.1.29M185.15 158.59q.72.92.89 2.02-2.74-2.14-5.35-4.28c-2.48-2.03-3.86-6.53-5.31-9.42q-.19-.52-.03-1.2.64.05.8.41 1.41 3.06 2.86 6.11.97 2.06 2.68 3.5 1.67 1.41 3.46 2.86M154.91 151.91l-.04 1.36q-.44.71-.92-.47-.24-1.53.05-2.82.8.14.91 1.93"/><path fill-opacity=".996" d="m146.97 150.71 1.28 3.04q-.67.02-.99.3l-.18-.25q-.38-1.34-1.38-2.51.38-.29.22-.51-.2-.28-.66-.51z"/><path fill="#f8bbc8" fill-opacity=".996" d="M143.05 153.01q.53.05.83.72 1.8 3.99 3.53 7.87-.07.36-.55.64l-3.96-8.09q-.44-.92.15-1.14M148.25 153.75l1.72 3.29q.14.88.9 1.99l1.19 2.78q.06.6-.79.89l-4.01-8.65q.32-.28.99-.3M154.95 155.44l-.05 1.87q-.9.66-.89-2.01.02-.16.03-.32.14-.11.27-.16.22-.08.34.12zM139.27 163.42l-.61.61-4.17-8.64q-.09-.19.1-.27l.45-.21q.23-.11.33.12zM159.05 160.62q-.54 2.41 1.77 3.34l.99 2.2-2.24-1.66q-.47-.35-.49.23l-.1 2.81q-.85-.1-1.39-.9l-3.15-6.66q.66-.31 1.27-.3l1.42 1.52a.45.44-65.5 0 0 .77-.29l.08-2.68q.94.64 1.07 2.39m-1.25 3.58a1.17.36 67.4 0 0-.118-1.218 1.17.36 67.4 0 0-.782-.942 1.17.36 67.4 0 0 .118 1.218 1.17.36 67.4 0 0 .782.942"/><path fill-opacity=".996" d="M130.23 167.13q-1.78-2.89-3.95-3.56.06-.81.29-1.09.23-.29.81.15 3.58 2.75 6.89 5.8-.45 1.22-1.53.56-.85-.51-1.53-.37c-3.06-.94-6.45-1.47-8.82-3.59q-2.6-2.31-5.29-4.55-.1-.08-.06-.2l.07-.27q.17-.59.65-.2 3.41 2.77 6.91 5.47 1.25.96 5.56 1.85"/><path fill="#f8bbc8" fill-opacity=".996" d="m191.53 160.06-.04 9.67-1.03-.02q-.04-.42-.2-.66.28-.89.18-1.81l.04-7.13zM187.43 163.29l-.02 7q-.2.34-.85.48l-.2-9.74zM126.28 163.57q2.17.67 3.95 3.56-4.11-2.18-3.95-3.56M176 164.89l2.12 1.69q.17.25.68.42l2.26 2.09q.94 1.31 1.31 2.59l-3.59-2.92q-.31-.45-.79-.71-.34-.62-.94-.91-1.92-1.35-1.05-2.25M142.62 171.67l3.37 2.39q.35.43.71.55l1.24 1.38q-1.42.12-2.11-.57-1.27-1.13-1.63-.67-.28.1-.77.01-.39-1.79-3.62-2.78-1.7-.52-.45.75.72.73 2.43 1.88-.11.33-.66.77-1.82-1.47-3.71-2.99-1.08-.87-3.1-1.82-1.66-.79-3.11-1.95.68-.14 1.53.37 1.08.66 1.53-.56 2.35 2.01 4.8 2.4 2.05.33.32-.81-1.98-1.3-4.29-4.04 4.26 2.21 7.52 5.69"/><path fill="#f8bbc8" fill-opacity=".996" d="m163.04 166.19 4.06 8.73-1.12.32-2.77-2.3q-.47-.62-1.18-.95-.15-.59-.46-.77-.36-.19-.43.21-.12.74.65 1.27.24 1.56 1.21 2.52.62 2.53 2.94 3.71.39.56 1.05.79.72 1.04 1.77 1.62 1.09 1.45 1.28 2.64l-2.98-2.48-4.11-3.53-2.98-6.55q-.04-.09-.04-.19 0-.17.09-.29.19-.24-.05-.42-.2-.14-.43-.1-.49.1-.52.59c-.13 2-.04 4-.14 6.01q-.09 1.72 1.37 2.58l-.93.88q-1.09 2.14-.02 3.04 2.07 1.75 1.33-.85-.06-.25-.72-1.5.48-.47 1.67 1.05.61 2.58 3.18 2.76 1.83 1.12 1.28 1.71-.88-.78-2.06-.74-.57.02-.35.55l.96 2.26q-.63.29-.99.28-1.9-1.35-3.37-3-.52-.58-.89-.46-.47.16-.62 1.18-.39.04-.81.25c-.87-4-3.8-6.16-6.95-8.36q-.29-.59-1.22.14-1.46-.78-2.6-.1-.45.27-.24.74.86 1.98 2.62 3.12.54.65 1.24.73.69 1.13 1.97 1.94.56 2.07 2.14 1.95l2.95 6.33q-.04 2.92 1.08 2.49l.02 9.88q-1.2.07-1.1-3.29c.09-2.87.51-5.86-.72-8.39q-.91-1.86-1.74-3.65-.51-1.07-.49.11l.05 6.07q-.28.4-.99.32-.12-4.15-.03-8.27.05-2.05-3.03-3.52 0-.35-.68-.5-.5-.82-1.14-1.23-.5-.32-.32.25.34 1.05 1.09 1.99-.26 2.23.93 2.7.09 3.29.07 6.6-.01 2.49.95 4.67 2.86 6.48 6.02 12.96l.05 2.54-2.78-5.72q-.07-1.15-1.08-1.86-.16-.35-.09-.62-.2-1.3-1.1-2.44-.95-2.25-1.96-4.42-.99-2.14-1.01-4.42c-.02-3.32.45-6.8-1.06-9.75q-1.62-3.17-3.13-6.46-.31-.67-1.04-.51c-1.62.36-3.17.67-4.86.23q-3.84-1-7.75-2.09-.38-.1-.21-.46l.14-.31a.36.36 0 0 1 .41-.19q4.15 1.19 8.05 2.15 1.72.42 4.01-.39.51-.18.36-.69-.15-.57-.74-1.12.61-.4 1.12.22 1.01 1.22 1.71 1.5l1.14-.44 4.8 1.22q.15.53.74.47l.21.19q.48.6.98.06.85-.18 1.5.57.44 1.3 1.21 2.13.37.4.49-.13.18-.78.06-1.68l.34-.14q.5-.21.17-.64-.4-.53-1-.79l-2.52-2.31q-.55-.51-.43.23.08.47.59 1.23-.65.27-1.37-.13l-1.56-3.29q-.04-.38.93-.79-.08.15.72.33.29.68 1.16 1.07l2.16 1.98q1.47 1.36.61-.45l-2.69-5.68q-.08-1-1.12-1.93.01-.11.01-.22.05-.2.16-.36.11-.14.31-.17.3-.05.59.01l2.31 5.1q.53 1.18.57-.12l.13-3.99q.9-.22 1.62-.76l2.17 1.68q.49.62 1.23.86.42.94 1.29 1.43.56.31.29-.28l-1.43-3.12q-.22-.84-.78-1.7-.29-.43-.21-.7.12-.45.83-.43m-.596 20.289a1.02.31 44 0 0-.519-.932 1.02.31 44 0 0-.949-.486 1.02.31 44 0 0 .519.932 1.02.31 44 0 0 .949.486"/><path fill-opacity=".996" d="M155.07 170.89q-.4 1.94-.08 4.15-.87-.39-1.16-1.07l.12-5.01q1.04.93 1.12 1.93M163.21 172.94q-.29 1.05-.21 2.28-.97-.96-1.21-2.52.28-.2.24-.71.71.33 1.18.95"/><path fill="#f8bbc8" fill-opacity=".996" d="m180.05 173.66 2.2 1.67q.29.49.7.58l2.18 2.09q1.5 2.03 2.22 4.57l.1 6.93q-.17.44-.92.55l-.25-9.15q-.01-.52-.41-.85l-2.9-2.38q-.14-.54-.64-.6-.35-.67-.72-.79-.38-.13-.27.26.19.74.69 1.31.4 1.88-.14 2.27l-3.2-6.64q.94.55 1.36.18"/><path fill-opacity=".996" d="M146.7 174.61q-.36-.12-.71-.55.27-.35.6-.01.32.32.11.56M167.1 174.92l4.14 8.84q-1.72-.09.01 2.33-.39 1.25-.25 2.35-.74-.25-.98-.67l.02-3.79q-.19-1.19-1.28-2.64-.27-1.55-1.11-2.82-.32-.48-.57.03-.24.5-.09 1.17-.66-.23-1.05-.79l.04-3.69zM182.95 175.91q-.41-.09-.7-.58.24-.25.49-.05.36.27.21.63M182.97 177.67q-.16.1-.37-.02-.36-.21-.27-.58.5.06.64.6"/><path fill-opacity=".996" d="M167.06 181.5q-.4 2.48.38 4.25-.88.66.57 1.74-.71.48-.86 2.02c-.6 6.31 1.55 7.85 5.7 11.36q1.23 1.05.54-.41l-2.24-4.73q1.12.46 1.88 1.37-.03 1.01.69 1.32.2.09.27-.12.03-.13.02-.28.59.27.92.7-.02 3.5 1.17 4.93-.58 1.05 1.14 2.3-.31.93.94 1.55.17 1.58 1.11 2.53.51 2.34 2.14 3.34.45.28.64-.21.46-1.17.17-2.73 1.03.86 1.2 2.28-.86.75-.32 1.52.44.63.51.75.64 1.13 1.69 1.41.76 1.11 1.05 2.67-1.25-1.52-2.65-2.1-.47-.2-.45.31l.1 2.68q-.28-.6-1.05-.66-.15-.1-.22-.22.22-1.1-.06-2.38.48-1.27-.8-1.83-.85-1.2-2.11-1.88l-3.9-8.04-.29-.61q-.16-.36-.54-.23l-.24.08q-.97-.62-2.14-.86-.56-.11-.32.41l2.52 5.35-.04 2.87-2.66-5.62q-.24-.5-.32.05-.92 6.7 2.99 12.17l-.02 2.74c-1.74-3.34-4.12-7.48-4.07-11.14q.03-2.91.04-5.96a1.7 1.69 9.7 0 0-1.14-1.6c-1.54-.54-2.84-.73-4.11-1.81q-2.9-2.51-5.99-4.79-1.12.43-1.08-2.49l.09-6.49q.42-.21.81-.25l4.53 9.01q.31.6.82 1.03l3.75 3.19q1.25 1.06.57-.43l-4.79-10.52q.36.01.99-.28l.9 2.03q.34.76.37-.07l.18-4.03q.55-.59-1.28-1.71-1.26-1.74-3.18-2.76-1.19-1.52-1.67-1.05-.12-.31-.59-.69l.93-.88 4.6 3.83q1.23 1.03.53-.41l-2.43-5.05zm-2.72 16.8c-2.23-1.55-3.76-5.91-4.75-8.44q-.53-1.35-.57.1l-.1 3.95a1.19 1.17-69.5 0 0 .41.92l7.19 6.09.1.08.17-.19q.14-.15 0-.3-1.1-1.27-2.45-2.21m7.87 4.04q.25.06.14-.18-.65-1.29-1.97-2.01-.61-.33-.4.33.46 1.46 2.23 1.86M183.36 181.05q.04-.4-1.04-.23-.36-.42-.43-.7.54-.39.14-2.27 1.63.49 1.33 3.2M150.96 178.65l3.91 8.52q-1.58.12-2.14-1.95-.36-1.71-1.4-3.04-.37-.48-.45.12l-.12.98q-.7-.08-1.24-.73.15.08.26.04.15-.05.14-.2l-.18-3.6q.93-.73 1.22-.14"/><path fill="#f8bbc8" fill-opacity=".996" d="m183.36 181.05-.01 9.41q-.18.5-.91.32l-.12-9.96q1.08-.17 1.04.23M171.24 183.76l4.04 8.74q-.63.35-1.15.33-1.12-1.44-2.99-2.58-.31-.52-1.18-.95-.31-.62-.88-.99l-1.07-.82q-1.45-1.08-.57-1.74l2.58 2.02q.24.42.98.67.74 1.05 1.74 1.59.45.24.23-.22l-1.72-3.72q-1.73-2.42-.01-2.33M179.82 192.75q.06.39-.66.62l-3.98-8.63q-.07-.15.05-.25l.25-.21a.33.33 0 0 1 .51.11z"/><path fill-opacity=".996" d="m150.87 185.25-.12 3.21q-1.19-.47-.93-2.7.31-.44.37-1.01.68.15.68.5M169.08 188.31q-.09 1.09.61 1.52.3.19.34-.16.02-.17-.07-.37.87.43 1.18.95-.56 2.27 1.03 4.59-1.04.2-1.02.89-1.7-3.35-3.07-6.91c-.19-.49-.06-.82-.07-1.33zM187.46 199.26q-.8.77-.15 2.44l.16 7.28-.7.13-.41-8.54a2.39 2.37 19.1 0 0-.83-1.69l-6.37-5.51q.72-.23.66-.62l4.94 4.28q.8.69.37-.27l-2.69-5.98q.73.18.91-.32zM116.6 203.8q1.12 2.89 1.96 1.81 1.49 3.27 3.06 6.63 1.07 2.29 2.99 3.91 2.8 2.39 5.61 4.71-.74.9.91 2.19.92 2.17 1.96 4.23 1.07 2.15 2.77 3.66 1.74 1.55 3.72 2.98.79 2.58 1.99 1.88l.72 1.4q.13.47.44.85.87 2.37 1.99 4.6 1.03 2.07 3.13 3.77 2.6 2.12 5.17 4.33-1.19.67-2.91-.94-1.8-1.7-3.63-3.3-1.97-1.72-2.78-3.58-1.02-2.36-2.1-4.7c-1.24-2.69-3.98-4.55-6.26-6.28-2.7-2.05-4.17-6.32-5.55-9.44a2.33 2.33 0 0 0-1.51-1.29l-7.28-1.96q-.31-.08-.54-.31-.24-.23-.33-.1.42-.28.36-.7l5.27 1.38q2.03.53.4-.78c-1.95-1.57-4.13-3.04-5.16-5.37-1.41-3.16-2.45-6.49-5.22-8.75-2.03-1.66-4.89-3.5-5.97-5.81q-1.65-3.5-3.36-7.17-.19-.4.25-.52l.3-.08q.21-.05.31.15 1.95 3.84 3.54 7.7.71 1.7 5.75 4.9M152.79 204.59q.9 1.14 1.1 2.44c-2.71-2.46-6.92-5.19-8.35-8.44q-1.42-3.23-2.91-6.4-.14-.29.14-.46l.26-.16a.31.31 0 0 1 .44.12q1.48 3.02 2.87 6.28.82 1.9 2.84 3.61 1.77 1.5 3.61 3.01M183.31 209.74q-.54.56-1.07.69-.16-.2-.22-.4-.25-1.24-1.01-2.28-.39-2.3-1.93-4.14-.19-1.69-.78-2.16-.28-.06-.46-.39.15-.81-.81-1.99-.4-1.74-1.47-3.2-.34-.47-.49.1l-.26 1.02q-.76-.21-.73-.59l.05-3.57q.52.02 1.15-.33z"/><path fill="#f8bbc8" fill-opacity=".996" d="M172.17 194.84q.75 1 1.91 1.56-.03.38.73.59l2.22 2.08q.96 1.18.81 1.99l-2.91-2.34q-.33-.43-.92-.7-.34-.7-.98-.92-.76-.91-1.88-1.37-.02-.69 1.02-.89"/><path fill-opacity=".996" d="m154.92 196.72 2.9 5.86q-.1 3.36 1.1 3.29l.05 16.38q-.77-.42-1.13-.97v-6.05l-.05-2.54q.25-2.44.15-4.8-.08-2.15-1.2-4.57-1.45-3.1-2.81-6.28.71.08.99-.32"/><path fill="#f8bbc8" fill-opacity=".996" d="M118.56 205.61q-.84 1.08-1.96-1.81l-2.75-6q-.07-.15.04-.26l.28-.27q.28-.28.45.08zM191.51 198.72l.01 19.27-1.06.03-3.69-8.91.7-.13q1.32 3.12 2.87 6.05.42.78.39-.03-.01-.25-.21-.53-.04-2.04-.06-4.09-.02-2.15-.81-3.93-1.04-2.36-2.34-4.75-.65-1.67.15-2.44 1.39 3.37 3.12 6.56.51.94.32-.11-.04-.2-.15-.42-.22-.43-.22-.91v-5.59q.46-.19.98-.07M179.08 203.61q-.33 2.65 1.93 4.14.76 1.04 1.01 2.28-1.17-1.35-2.51-1.99-.45-.21-.4.29l.18 1.7q-.94-.95-1.11-2.53-.04-.87-.94-1.55-1.72-1.25-1.14-2.3l1.64 1.27q.48.37.49-.23l.07-3.24q.59.47.78 2.16"/><path fill-opacity=".996" d="M131.47 216.58q.59.73.84 1.92c-3.32-2.42-7.09-5.22-8.66-9.02q-1.12-2.73-2.41-5.39a.37.37 0 0 1 .18-.5l.28-.12a.29.28-25.1 0 1 .37.13q1.55 3.07 2.81 6.13c1.2 2.94 4.12 4.84 6.59 6.85"/><path fill="#f8bbc8" fill-opacity=".996" d="m175.23 204.94-.02 16.59-1-.07q-.02-.08-.04-.17l.02-2.74-.01-6.6.04-2.87-.06-4.9.24-.08q.38-.13.54.23z"/><path fill-opacity=".996" d="M155.06 209.51q-1.21 6.2 2.38 11.39-1.15-.14-1.32.63l-3.84-8.7q-.1-.24.14-.31l.25-.08a.34.34 0 0 1 .4.17l.25.5q.48.97.51-.11l.15-5.35q1.01.71 1.08 1.86"/><path fill="#f8bbc8" fill-opacity=".996" d="M141.57 235.8q-1.2.7-1.99-1.88-.98-2.16-1.98-4.16-1.05-2.09-2.73-3.6-1.8-1.6-3.74-3.11-1.65-1.29-.91-2.19l4.76 4.15q.8.7.34-.26l-3.01-6.25q-.25-1.19-.84-1.92l-2.81-6.18q-.15-.33.18-.48l.23-.1q.33-.16.49.17zM183.31 209.74l4.08 8.67q-1.33.63.02 2.64l.03 6.97q-.14.64-.87.71l-.2-9.67q-.29-1.56-1.05-2.67l-1.88-3.68q-.17-1.42-1.2-2.28.53-.13 1.07-.69M120.49 218.15q.06.42-.36.7l-7.38-6.28q-.18-.16.01-.31l.22-.17a.3.3 0 0 1 .39.01zM181.24 214.86l.8 1.83q.28 1.28.06 2.38l-2.97-6.09q1.26.68 2.11 1.88"/><path fill-opacity=".996" d="M140.92 224.71q-.24.04-.81.42l-4.03-8.73q-.11-.23.13-.33l.34-.14a.26.26 0 0 1 .34.13zM191.52 217.99l-.01 28.74q-1.46-.21-1.25-2.79.79-5.49.09-6.97-1.91-4.07-3.78-8.24.73-.07.87-.71l2.66 5.75q.49 1.05.4-.1-.15-1.89-.02-3.74c.2-2.95-1.65-6.24-3.07-8.88q-1.35-2.01-.02-2.64l2.72 5.74q.28.59.29-.06l.06-6.07zM164.46 227.22q-.7-.06-1.1.11-.18-.05-.32-.23l-.63-1.83-2.6-6.19q-.04-.11.04-.2l.2-.18a.33.32 56.4 0 1 .52.11z"/><path fill="#f8bbc8" fill-opacity=".996" d="m183.37 219.95-.03 9.04q-.04.56-.92.5l-.1-10.2q.77.06 1.05.66M157.44 220.9q-.55.06.4.38.36.55 1.13.97l3.44 3.02.63 1.83-3.87-3.11q-.17-.27-.43-.47-.44-.35-.78.09-.15.19-.11.46.06.34.3.58.33.34.79.65l.11 7.39q.01.5.4.83l6.89 5.89q-.01.47-.51.88l-6.4-5.02q-.47-.38-.21.17l3.66 7.66q-.69 1.12-2.07-2c-1.19-2.78-2.74-5.08-2.85-8.15-.14-4.09.79-7.59-1.84-11.42q.17-.77 1.32-.63"/><path fill-opacity=".996" d="M175.21 221.53q-.23 1.18.68 1.82a1.56 1.5 6.3 0 1 .51.61l3.62 7.71q-.27.25-.81.44l-3.17-6.81q-.88-1.89-.88.19c-.01 2.6-.23 4.89.95 7.42q5.7 12.19 11.31 24.27-1.13.11.11 2.63-1.11 6.92 2.58 12.63.31.47.3-.09l-.06-6.51q.48-.53-.06-2.47l.22-6.61q.51.16.99-.23v19.45q-.56-.05-.98.08-1.53-3.22-2.92-6.49-1.08-2.52-1.15-5.39-.08-3.48-.19-6.78l-.97-2.08-1.65-3.34q-.31-.63-.52.04l-.3.98q-.5-.12-.54-.44l-.01-3.77q-.13-1.04-1.23-2.49-.53-2.15-1.92-3.9-.25-1.49-.84-2.14-.19-.03-.21-.44l-.88-2.03q-1.08-2.39-2.02-4.68-.95-2.31-.97-4.91-.02-3.38.01-6.74zM148.13 230.71l-.85.48q-.27-.09-.45-.33-.12-1.07-.88-2.06l-2.59-6.06q-.11-.27.16-.41l.28-.14a.3.3 0 0 1 .41.14zM159.17 223.99l-.23 1.31q-.46-.31-.79-.65-.24-.24-.3-.58-.04-.27.11-.46.34-.44.78-.09.26.2.43.47"/><path fill="#f8bbc8" fill-opacity=".996" d="m140.92 224.71 5.03 4.09q.76.99.88 2.06l-6.72-5.73q.57-.38.81-.42"/><path fill-opacity=".996" d="M171.78 233.36q-.19.26-.62.53l-4.11-8.41a.42.42 0 0 1 .19-.57l.27-.13q.19-.09.28.1z"/><path fill="#f8bbc8" fill-opacity=".996" d="M164.46 227.22c1.55 3.26 3.01 7.92 5.82 10.18q3.79 3.05 7.27 6.06.72.61.72-.33l.01-2.87q.59.65.84 2.14-.55 2.42 1.92 3.9 1.1 1.45 1.23 2.49l-2.8-2.23q-.44-.35-.37.21l.32 2.79-1.29-3.52q.05-1.02-.92-1.45-1.73-2.13-3.94-3.4-1.96-1.58-3.75-3.21-1.77-1.6-2.9-3.92-1.64-3.37-3.26-6.73.4-.17 1.1-.11M155.52 236.88l-.67.71-4.11-8.92q-.05-.11.04-.18l.26-.2a.36.36 0 0 1 .54.13z"/><path fill-opacity=".996" d="m187.36 237.69-.98.55q-.26.07-.38-.31-.07-.99-.83-2.06l-2.75-6.38q.88.06.92-.5z"/><path fill="#f8bbc8" fill-opacity=".996" d="m148.13 230.71 4.1 8.81q-.04.36-.68.62l-4.27-8.95zM180.02 231.67l5.15 4.2q.76 1.07.83 2.06l-6.79-5.82q.54-.19.81-.44M171.78 233.36l5.41 4.43.88 2.03-6.91-5.93q.43-.27.62-.53M124.76 242.95q.19.43-.29.85l-7.38-6.28q-.16-.14-.02-.3l.17-.19a.34.33 40.5 0 1 .46-.03zM156.89 244.73q1.04 1.01 1.44 1.21.62.32 1.04-.5l2.43 1.94q.46.69 1.26.87.38 1.03 1.73 1.66l1.32 2.4-3.04-2.37q-.62-.8-1.11-.66-.27-.63-.71-1.07-.44-.45-.37.17.1.95.94 1.66.14 1.28 1.09 2.26l.89 2.11q-.42.46-1.07.58l-3.36-7.48q-.5-1.12-1.7-1.43-3.16-.8-6.22-1.67c-3.06-.87-6.07-4.17-8.72-6.36q-.31-.38-.44-.85.71-.21 1.12.13 2.43 2.05 4.89 4.11 1.86 1.55 4.04 2.16 2.21.62 4.55 1.13"/><path fill-opacity=".996" d="m155.52 236.88 5.29 4.22q1.38 3.12 2.07 2l8.23 17.62q-.47.38-1.1.55-1.3-1.47-2.81-2.33l-.3-.54q-.2-.35-.58-.21l-.33.12q.03-.68-.33-1.11a.32.32 0 0 0-.56.17q-.04.48.32.98.19.26.57-.04.28 1.37-.18 3.14l-3.08-6.46q.65-.12 1.07-.58.98 1.12 2.16 1.64.23.82 1.07.86.4 1.02 1.14 1.4.51.26.4-.3-.31-1.68-1.43-2.87l-.66-2.27q-.03-.12-.14-.05l-.24.14q-.07-.4.01-.65l-1.32-2.4-1.17-2.9q-.26-.64-.44.02-.16.55-.12 1.22-.8-.18-1.26-.87c.58-2.05.5-3.38-1.2-4.85q-2.87-2.49-5.75-4.94z"/><path fill="#f8bbc8" fill-opacity=".996" d="m187.36 237.69 2.9 6.25q-.21 2.58 1.25 2.79l-.01 9.8q-.48.39-.99.23-1.21-2.75-2.49-5.52-1.35-2.94-1.53-5.75-.23-3.58-.11-7.25zm3.17 15.31c-.26-2.78.43-5.42-.86-8.01q-.98-1.97-1.8-3.99-.32-.78-.43.05-.88 6.61 2.68 12.09.5.76.41-.14"/><path fill-opacity=".996" d="M134.25 245.59q-.45.54-.28 1.02l-9.5-2.81q.48-.42.29-.85l6.13 1.57q.81.2.17-.33l-4.63-3.89q-.17-.14-.05-.32l.22-.32q.19-.29.46-.07zM159.37 245.44q-.42.82-1.04.5-.4-.2-1.44-1.21l-5.34-4.59q.64-.26.68-.62zM173.27 241.19q2.21 1.27 3.94 3.4.01.95.92 1.45l1.29 3.52q.47.49.57 1.21-.54.41-1.5-.53l-2.84-6.2a2.93 2.92-4.6 0 0-1.9-1.61l-7.92-2.14q.5-.41.51-.88z"/><path fill="#f8bbc8" fill-opacity=".996" d="M150.11 249.81q1.72 1.61 2.91.94l12.79 10.7q.46-1.77.18-3.14l.33-.12q.38-.14.58.21l.3.54q-1.03 3.94 2.33 5.75.52.28.52-.31l-.04-3.11q.63-.17 1.1-.55l8.2 17.68q-1.1.26-.16 2.57l.1 2.31q-.72-.31-1.04-.96l.11-3.52q-.21-1.24-1.15-2.56l-1.68-3.48q-.28-.58-.39.06-.1.62.04 1.39-.63-.03-1.07-.79.9-3.85-2.28-5.37-.48-.23-.62.28-.43 1.6.74 3.36-.47.6-1.17.61l-3.53-7.75q-.37-.54-1.22-.79-1.24-.6-2.9-.68-.08-.47-1.11-.26-.44-.54-.85-.62-.74-.14-.29.53.36.54 1.24.68 1.11 3.08 2.34 2.42l1.46 2.92q.33 1.12 1.17 1.98c1.05 3.94 3.19 5.41 6.76 8.07q.57-1.27.28-2.81.02-.1.05-.19.15-.33.46-.14.36.23.4.52l.13 3.07-.33.03q-.57.05-.12.39.24.18.55.22l.82.87q-.62.72-1.86.55-1.2-.61-2.69-.7-.89-.6-1.51-.41c-1.76-.67-3.54-.93-5.03-2.1q-3.25-2.58-6.28-5.4-.32-.3.06-.51l.28-.16q.16-.1.31.02l7.91 6.21 3.26.66 1.74.72q.67.28.22-.29-1.2-1.54-2.89-2.61-.62-.54-1.37-.8c-1.59-2.33-2.34-4.93-3.57-7.42q-1.13-2.28-3.03-3.89-1.92-1.63-3.92-3.14l.62-1.21q1.38.93 2.99.87.52.5.92.04 1.04.96 1.71.87.73-.09.16-.56l-2.72-2.22q-.53-1.08-1.37-1.07l-.41-.48-2.06-1.83-3.34-2.72q-.89-1.19-2.12-1.67c-3.49-1.05-8.25-1.72-10.94-4.07q-2.72-2.38-5.28-4.6a.47.47 0 0 1-.04-.66l.18-.21q.08-.09.18-.02 2.9 2.23 5.55 4.67 1.49 1.37 3.98 2.04 2.15.57 4.42 1.15m22.7 16.85-1.15-2.4q-.35-.73-.49.07-.31 1.79 1.25 2.69.78.46.39-.36m-3.65-.26q.06.43.37.74.38.39.44-.15.08-.67-.47-.86a.26.25 6.4 0 0-.34.27"/><path fill="#f8bbc8" fill-opacity=".996" d="M134.25 245.59q2.59 2.2 5.21 4.35 2.12 1.74 4.72 2.5 3.27.96 6.62 1.82-.18 1.28-2.46.42-2.6-.65-5-1.44-2.42-.8-4.51-2.49-2.45-1.98-4.86-4.14-.17-.48.28-1.02"/><path fill-opacity=".996" d="m163.07 249.94-.16 2.36q-.95-.98-1.09-2.26.22-.24.14-.76.49-.14 1.11.66"/><path fill="#f8bbc8" fill-opacity=".996" d="m179.99 250.77 2.29 1.79q.04.32.54.44l2.47 2.32.97 2.08-4.64-3.79q-.41-.34-.26.17.19.64.64 1.18l.26 2.93-3.77-7.65q.96.94 1.5.53"/><path fill-opacity=".996" d="M154.18 253.18q1.11 3.17 3.34 2.72l2.06 1.83-3.17-.77q-.56-.13-.37.41.61 1.81 2.26 2.91l-.62 1.21-6.17-5.36a2.68 2.68 0 0 0-2.17-.63l-8.4 1.27q.38-.46.2-.9l7.2-1.19q2.28.86 2.46-.42 1.13.08 1.53.37 2.04 1.48 1-.82-.36-.78-1.27-2.3 1.23.48 2.12 1.67m.34 4.1a.25.24-9.9 0 0 .25-.35q-.29-.58-.99-.71-.5-.1-.27.36.32.62 1.01.7"/><path fill="#f8bbc8" fill-opacity=".996" d="m167.14 255.14-.11 1.77q-.84-.04-1.07-.86l.14-3.09.24-.14q.11-.07.14.05zM141.14 255.87q.18.44-.2.9l-8.96-2.42q-.3-.08-.2-.37l.12-.33a.28.28 0 0 1 .34-.18z"/><path fill-opacity=".996" d="m183.39 267.96-.98.04-.15-10.11-.26-2.93q1.32-.19 1.34 1.46.04 5.8.05 11.54"/><path fill="#f8bbc8" fill-opacity=".996" d="m187.42 257.18 2.87 6.19q.54 1.94.06 2.47l-2.82-6.03q-1.24-2.52-.11-2.63"/><path fill-opacity=".996" d="M161.36 259.28q.84 1.14.85 1.91-.4.46-.92-.04-1.01-1.4-1.3-2.94.84-.01 1.37 1.07M179.95 270.23q-.09.37-.68.54l-4.01-8.61q-.11-.24.12-.35l.25-.11q.23-.11.34.12zM163.09 263.08l1.33 2.75q-1.23.66-2.34-2.42.05-.21-.1-.59 1.03-.21 1.11.26M167.21 264.55l-.16 6.18q-.84-.86-1.17-1.98l.11-4.99q.85.25 1.22.79"/><path fill="#f8bbc8" fill-opacity=".996" d="M163.62 273.76q-.04.36-.73.44l-3.98-8.64q-.11-.25.15-.32l.3-.09a.28.27 69.5 0 1 .32.15zM183.39 267.96l6.7 14.34q.52 1.12.51-.12l-.08-6.12q.42-.13.98-.08v9.55q-.56.5-1.02.23l-2.78-6.1q-.29-.62-.28.07l.05 6.48-.87.54-.17-8.65a2.82 2.82 0 0 0-1-2.09l-6.16-5.24q.59-.17.68-.54l4.91 4.09q.93.78.41-.32l-2.86-6z"/><path fill-opacity=".996" d="M174.07 273.42q.44.76 1.07.79.53 1.37 2.03 2.03.94 1.32 1.15 2.56l-3.32-2.62q-.04-.29-.4-.52-.31-.19-.46.14-.15-.84-.68-1.08-.36-.17-.27.22.17.73.9 1.05.29 1.54-.28 2.81l-3.07-6.5q.7-.01 1.17-.61 1 1.68 2.16 1.73M163.62 273.76l4.77 3.83q.52.42.3-.21l-.49-1.44q.75.26 1.37.8l.93 2.18-3.26-.66-4.35-4.06q.69-.08.73-.44"/><path fill-opacity=".996" d="m179.31 278.4 4.01 8.6q-.81.83.07 2.72-1.14 3.38-1.12-1.5 0-.5-.31-.9-1.12-1.43-2.86-2.31-1.85-2.2-.07 2.13.66.91 1.01 2.32-.39.28-1.08.31-1.92-3.58-2.6-5.71-1.21-3.79-1.18.19l.03 4.84-1.02.01-3.11-6.43q-.43-1.79-.97-1.47l-.12-1q.62-.19 1.51.41l2.24 4.89q.31.67.33-.07l.12-4.12q1.24.17 1.86-.55l2.16 1.56q.32.65 1.04.96.41.85 1.01 1.19.52.29.43-.29-.28-1.82-1.54-3.21-.94-2.31.16-2.57m-1.83 4.95a.41.4-4.1 0 0-.41.47q.04.3.34.33.45.03.44-.42-.01-.37-.37-.38"/><path fill-opacity=".996" d="m175.13 279.25.1.64q-.31-.04-.55-.22-.45-.34.12-.39z"/><path fill="#f8bbc8" fill-opacity=".996" d="m171.08 282.67.06 7.09q-.28.48-.9.22l-.13-8.78q.54-.32.97 1.47M179.1 285.01q.35 1.46-.07 2.13-1.78-4.33.07-2.13"/><path fill-opacity=".996" d="m191.5 285.53.02 38.22-1.31-.42q.23-.94.11-1.96l.17-6.92-.16-2.43.13-7.2q.23-1.04-.12-2.6.75-5.38-.21-7.6-1.69-3.95-3.53-7.87l.87-.54 2.48 5.34q.53 1.13.53-.12v-5.67q.46.27 1.02-.23"/><path fill="#f8bbc8" fill-opacity=".996" d="M190.34 302.22q.35 1.56.12 2.6l-3.19-6.64q-.12-.92-.93-1.7-1.26-1.69-3.2-2.79-.12-.49-.69-.54-.33-.69-.77-.91-.49-.25-.33.27.23.75.75 1.39l.06 2.42-3.2-6.55q.69-.03 1.08-.31l2.25 1.81q.49.62 1.16.88.96 1.23 1.53 1.47.54.23.27-.29l-1.86-3.61q-.88-1.89-.07-2.72zM175.21 289.09l-.03 9.58q-.97.13-1.01-.15.03-.78-.12-.3.28-1.28.12-2.13l.02-6.99z"/><path fill-opacity=".996" d="m157.13 298.24-.75.44-4.02-8.62q-.11-.24.13-.35l.26-.12a.32.31-24.4 0 1 .41.15zM171.14 289.76l3.03 6.33q.16.85-.12 2.13l-3.81-8.24q.62.26.9-.22M183.45 292.15q-.67-.26-1.16-.88 1.04-.04 1.16.88M183.14 293.69q-.59.05-.69-.54.57.05.69.54M183.33 306.46l-.89.23-.28-10.37-.06-2.42q1.11.1 1.21 1.54.19 2.69.02 11.02M178.14 321.07q.62.73 1.18.87.57.98 1.28 1.2.63.19.32-.38l-1.77-3.3q-.93-1.98.15-2.5l8.14 17.52q-.61.47-1.08.61-1.09-1.65-2.61-2.28-.48-.2-.46.33l.1 2.35q-1.42-.5-1.28-3.05.33-1.38-1.02-1.89-1.56-1.33-1.02-2.63.72 1.19 1.5 1.4.53.15.65-.4.79-3.73-3.15-5.17-.28-.55-.85-.5-.24-1.06-1.17-1.43-1.69-2.04-3.9-3.33-1.86-1.93-3.91-3.49-.99-.74-1.56-1.85-2.16-4.18-4.18-8.35l-.97-2.05-2.91-6.35q-.11-.25.12-.39l.25-.16q.33-.21.51.14 3.55 7.26 6.8 14.66.92 2.1 2.97 3.9 3.83 3.36 7.87 6.52m5.28 7.74a.16.16 0 0 0-.29.04l-.12.54q-.08.35.09.68.64 1.27 1.76 2.11.95.71.35-.31zM187.27 298.18l.19 7.5-.67-.06-.45-9.14q.81.78.93 1.7"/><path fill="#f8bbc8" fill-opacity=".996" d="m157.13 298.24 5.4 4.51.97 2.05-7.12-6.12z"/><path fill-opacity=".996" d="M175.18 298.67q-.04.83.27 1.48-.23.51-.25.95l.02 7.12-.89.05-.16-9.75q.04.28 1.01.15"/><path fill="#f8bbc8" fill-opacity=".996" d="M175.45 300.15q.21.06.42.19.19.12.3.35 1.43 3.02 2.78 6.1c1.25 2.85 3.86 4.17 5.95 6.29q.97.98.39-.27l-2.85-6.12.89-.23 6.99 14.91q.12 1.02-.11 1.96l-2.41-5.04q-.23-.48-.24.05l-.1 6.46q-.41.45-.99.18l-.15-9q-.01-.48-.37-.8-2.48-2.15-5.06-4.28c-2.73-2.26-4.05-6.56-5.69-9.8q.02-.44.25-.95"/><path fill-opacity=".996" d="M171.91 310.77q-.27-.01-.83.39l-3.98-8.66q-.11-.24.13-.34l.28-.13a.26.25-23 0 1 .34.13z"/><path fill="#f8bbc8" fill-opacity=".996" d="m187.46 305.68 2.87 6.34.16 2.43-3.7-8.83zM175.22 308.22l4.08 8.74q-1.08.52-.15 2.5l.17 2.48q-.56-.14-1.18-.87v-3.22q0-.52-.4-.86l-6.66-5.83q.56-.4.83-.39l4.77 3.99q.82.68.39-.29l-2.74-6.2z"/><path fill-opacity=".996" d="m166.46 316.69-.36.86-7.37-6.18q-.26-.21.03-.38l.42-.24a.22.22 0 0 1 .26.03z"/><path fill="#f8bbc8" fill-opacity=".996" d="m166.46 316.69 6.69 1.8q2.21 1.29 3.9 3.33.27 1.51 1.17 1.43.57-.05.85.5.08 2.32 1 4.17-.54 1.3 1.02 2.63l1.02 1.89q-.14 2.55 1.28 3.05-.14 3.44 0 6.89.12 2.98 1.44 5.84 1.28 2.78 2.64 5.52-1.18.86-.08 2.71c.09 2.85-.38 6.18.75 8.62q1.04 2.23 2.07 4.42.37.78.36-.08l-.08-6.49 1.01-.13-.08 19.21h-.76q-.12-3.48-.2-6.99-.06-2.7-1.12-5.05c-1.13-2.5-2.88-5.25-2.91-7.96q-.04-3.5-.02-7.1 0-.53-.37-.9c-2.43-2.48-6.12-4.49-7.68-7.64q-1.83-3.69-3.2-7.02-.1-.26.17-.34l.39-.11q.18-.05.26.11 1.58 3.02 2.9 6.22c1.18 2.85 3.73 4.36 5.94 6.23q.91.77.37-.29-.97-1.89-1.94-3.86c-1.36-2.78-.91-6.23-.92-9.42q-.02-2.56-.92-4.38-3.22-6.47-6.03-12.93-.23-.52-.78-.67l-8.5-2.35zM191.52 323.75l-.02 10.23-1.06-.03q-.04-.46-.25-.88.32-.93.17-1.84l-.15-7.9z"/><path fill-opacity=".996" d="m187.46 324.8 2.9 6.43q.15.91-.17 1.84l-3.72-8.09q.58.27.99-.18M191.5 333.98v28.81l-1.01.13-3.1-6.47q-1.1-1.85.08-2.71l2.64 5.68q.45.94.42-.1c-.09-3.05.34-5.27-1.05-8.33q-1.45-3.16-2.91-6.39.59-.14.91-.46l2.63 5.52q.26.55.27-.06l.1-6.12-.17-2.68.13-6.85z"/><path fill="#f8bbc8" fill-opacity=".996" d="m187.44 334.48 2.87 6.32.17 2.68-2.7-5.67q-.28-.58-.28.07l-.02 6.26q-.32.32-.91.46l-.21-9.51q.47-.14 1.08-.61"/></svg>