<svg xmlns="http://www.w3.org/2000/svg" viewBox="0 0 382 382"><g fill="none" stroke="#7d7dfb" stroke-opacity=".996" stroke-width="2"><path d="m273.25 16.5-.22.86M281.07 2.48q-.84.86-.53.81M319.75 10.95q-.35.23-.64.3M290.8 21.19l-2.26-.3M338.98 27.27q-.23.36.14.87M360.98 29.78l.03.71M321.69 30.99l-.04-.73M307.81 18.51q-.25.65 0 .81M291.9 22.16q-1.55-.43-1.6.11M353.98 17.01q.25.36-.07.75M301.69 31.21q-.38-.04-.73.15M306.95 97.95q-.48.01-1.01.25M349.24 107.98l-.3-.67M345.51 152.39q.57.38.49.7M324.09 198.37l-.86-.41M309 131.16l-.15-.88M371.3 132.92q-.3-.06-.79-.44M277.69 145.62q-.2-.35-.74-.57M255.15 190.77l-.65-.14M254.91 208.6l-.93.1M298.5 218.7q-.22-.58-.4-.58M260 230.03l-.75 1.76M239.8 270.26l-.86-.4M257.02 233.75l.85-1.91M266.73 225.96q-.27-.17-.36-.41M252.83 237.02l-.54-.64M205.54 302.3q-.5.14-.88-.26M206.18 305.87q-.31-.19-.99-.11M191.45 313.76q-.22-.3-.58-.37M192.89 334.27q-.95.95-.99.42M183.62 351.08q-.06.3-.94.26M191.46 331.64q-.34.26-.63.3" vector-effect="non-scaling-stroke"/></g><path fill="#f9f9fa" fill-opacity=".996" d="m266.14 0 7.11 16.5-.22.86-.47-.41q-.3-.27-.45-.65L265.58 0z"/><path fill="#0101fc" fill-opacity=".996" d="m272.89 0 8.18 2.48q-.84.86-.53.81L270.45.71q-.61-.15-.02-.38l.85-.33z"/><path fill="#f9f9fa" fill-opacity=".996" d="M296.72 0q2.21 1.81 4.29 3.79 1.53 1.46 3.47 2.02 9.01 2.57 14.58 4.38.72.23.69.76-.35.23-.64.3-6.61-2.03-13.13-3.96-3.47-1.03-5.71-2.83-2.49-1.99-4.68-4.46zM281.07 2.48q-.17.23.06.36.21.13.3.35 3.2 7.34 6.39 14.77c.64 1.48 1.8 2.17 2.98 3.23l-2.26-.3q-4.58-8.23-8-17.6-.31.05.53-.81"/><path fill="#0101fc" fill-opacity=".996" d="M338.98 27.27q-.23.36.14.87l-4.55 1.13q-1.01.25.01.47 3.58.78 6.95 2.01 1.79.65 4.5.19 7.23-1.22 14.47-2.33.29-.04.48.17l.03.71-16.87 2.67q-.82.13-1.62-.1-4.06-1.18-8.27-2.56c-3.84-1.26-7.64-.18-11.49.6q-.23.05-1.07-.11l-.04-.73 6.01-1.21q1.11-.22.01-.48-.97-.22-1.76-.83-.38-.3-.56-.75l-6.24-15.74q.29-.07.64-.3l6.45 15.47q.19.45.63.69c4.08 2.15 8.08.83 12.15.16M288.54 20.89l2.26.3 17.01-2.68q-.25.65 0 .81l-15.91 2.84q-1.55-.43-1.6.11l-17.27-4.91.22-.86z"/><path fill="#f9f9fa" fill-opacity=".996" d="M353.98 17.01q.25.36-.07.75l-14.79 10.38q-.37-.51-.14-.87z"/><path fill="#0101fc" fill-opacity=".996" d="M382 19.85v.88q-4.23.95-8.51 1.51-2.64.34-5.38-.44-7.13-2.03-14.2-4.04.32-.39.07-.75.88-.06 1.79.19 6.66 1.9 13.35 3.86 2.11.62 4.29.23 4.3-.79 8.59-1.44"/><path fill="#f9f9fa" fill-opacity=".996" d="m321.65 30.26.04.73q-.85.02-1.56-.62-6.16-5.6-12.32-11.05-.25-.16 0-.81.82.1 1.48.7 6.19 5.62 12.36 11.05M291.9 22.16q6.94 5.89 9.59 8.34.18.17.2.71-.38-.04-.73.15l-10.66-9.09q.05-.54 1.6-.11M382 43.95v.95q-2.77-.64-5.44-1.56-2.5-.86-4.72-2.9-5.44-5.02-10.83-9.95l-.03-.71q.26.01.56.06.23.05.41.2 5.56 4.94 11 10.12c2.4 2.28 5.93 2.85 9.05 3.79"/><path fill="#0101fc" fill-opacity=".996" d="M301.69 31.21q.24.82.2 1.73-.33 6.81-.6 13.67-.1 2.57.8 4.58 3.11 7 5.93 13.73a1.83 1.82 48 0 1-.08 1.58l-7.87 14.64q-.23.42-.04.85l6.92 15.96q-.48.01-1.01.25l-6.9-16.12q-.27-.64.06-1.26l7.99-14.85q.2-.37.03-.75-3.1-7.07-6.07-13.94-.87-1.99-.75-4.71.32-7.67.66-15.21.35-.19.73-.15M382 90.39v2.52q-7.86 2.52-16.49 4.1-2.11.38-3.77 1.68-5.44 4.24-10.86 8.43-.77.58-1.64.86l-.3-.67 13.12-10.15q.98-.75 2.19-.99 7.47-1.53 14.77-3.14 1.76-.39 2.98-2.64"/><path fill="#f9f9fa" fill-opacity=".996" d="m306.95 97.95 12.77 11.04q.4.35.62.83.15.35.13.7-.06.99.72.38l9.27-7.17a2.52 2.51 32.9 0 1 2.12-.45l16.36 4.03.3.67q-.26.41-.75.28-8.6-2.16-16.28-4.05-.55-.14-1 .21l-10.03 7.74a2.11 2.09-17.9 0 0-.81 1.57q-.19 5.53-.56 11.92-.13 2.17.74 4.1 2.81 6.2 5.3 12.35.81 1.98 2.38 3.31 6.18 5.24 11.28 9.74 1.4 1.24 3.23 1.22.48-.01.72-.43l2.05-3.55q.57.38.49.7l-1.55 3.33q-.2.44.27.56l12.05 3.27q.98.26 1.38 1.19l6.51 15.13q.22.5.75.65l16.59 4.49v.93l-16.97-4.5a1.89 1.89 0 0 1-1.24-1.08l-6.52-15.13a1.21 1.2-4 0 0-.81-.7l-12.19-3.29q-.59-.16-.85.4-2.06 4.46-4.28 8.84-.94 1.86-.9 4.18.14 7.73.03 15.02a1.56 1.56 0 0 1-.6 1.21l-13.58 10.78-.86-.41 13.54-10.86a1.41 1.4 70.9 0 0 .53-1.1l-.01-16.01a5.28 5.19-32.6 0 1 .52-2.27l4.67-9.69a.55.55 0 0 0-.42-.79c-1.21-.17-2.23-.47-3.17-1.29q-6.07-5.29-12.07-10.49a5.42 5.31 9.6 0 1-1.42-1.96q-2.73-6.6-5.81-13.42-.9-1.99-.78-4.17.28-5.56.54-11.62.02-.52-.47-.35-.95.34-1.38 1.2l-7.62 15.18q-.15.31-.43.51-.23.16-.45.33l-.15-.88q3.69-7.59 7.58-15.14c.61-1.19 1.45-1.68 2.4-2.51a2.08 2.08 0 0 0 0-3.12L305.94 98.2q.53-.24 1.01-.25M382 123.25v1.1l-10.7 8.57q-.3-.06-.79-.44z"/><path fill="#0101fc" fill-opacity=".996" d="m308.85 130.28.15.88q-7.45 1.65-14.96 3.21-2.26.47-4.1 1.89-6.07 4.66-12.25 9.36-.2-.35-.74-.57 6.04-4.84 12.16-9.38 2.17-1.61 4.79-2.23 7.46-1.76 14.95-3.16M370.51 132.48q.49.38.79.44l-7.35 15.29q-.47.97-1.53 1.21L346 153.09q.08-.32-.49-.7l16.68-3.95a1.55 1.54-83.5 0 0 1.01-.81z"/><path fill="#f9f9fa" fill-opacity=".996" d="M276.95 145.05q.54.22.74.57-3.4 6.88-6.97 13.84-1.13 2.2-1.12 4.03.02 8.11-.22 15.58a1.62 1.62 0 0 1-.63 1.24l-13.6 10.46-.65-.14q0-.62.3-.85 6.56-5.06 13.19-10.15.42-.32.43-.84.16-7.13.2-15.07.01-2.06 1.14-4.41 3.48-7.23 7.19-14.26"/><path fill="#0101fc" fill-opacity=".996" d="m254.5 190.63.65.14-.24 17.83-.93.1.28-17.88q0-.02.02-.04.09-.1.22-.15M324.09 198.37l-7.55 15.64a1.69 1.67-82.8 0 1-1.15.9l-16.89 3.79q-.22-.58-.4-.58l16.57-3.99a1.9 1.89-83.8 0 0 1.26-1.02l7.3-15.15z"/><path fill="#f9f9fa" fill-opacity=".996" d="M254.91 208.6q3.41 6.95 6.52 13.94.94 2.11.54 3.08-.92 2.18-1.97 4.41l-.75 1.76q-1.96 3.47-3.78 7.23-1.13 2.35-1.12 4.53.05 7.78-.22 15.03a1.39 1.37-18.1 0 1-.54 1.05l-13.79 10.63-.86-.4 13.53-10.47a1.87 1.85 72 0 0 .72-1.43q.11-7.58.17-14.75c.04-3.31 2.11-6.52 3.66-9.46l.85-1.91 3.21-6.28q.39-.76.03-1.54l-7.13-15.32zM298.1 218.12q.18 0 .4.58l-13.68 10.82q-.69.53-1.53.34l-16.56-3.9q-.27-.17-.36-.41.01-.18.13-.32.27-.28.65-.19l16.13 3.79a1.5 1.49 32.7 0 0 1.25-.27z"/><path fill="#0101fc" fill-opacity=".996" d="M266.37 225.55q.09.24.36.41l-7.48 5.83.75-1.76q2.47-1.97 4.83-3.95.7-.59 1.54-.53M257.87 231.84l-.85 1.91-4.19 3.27-.54-.64z"/><path fill="#f9f9fa" fill-opacity=".996" d="m252.83 237.02-7.51 15.59q-.33.67-1.05.84-7.58 1.82-15.09 3.38-1.89.39-3.46 1.67-5.49 4.52-10.79 8.56-1.62 1.23-2.45 3.02-3 6.45-6.07 12.55-.83 1.65-.81 3.95.07 7.9-.06 15.72-.5.14-.88-.26-.12-7.82-.01-15.61.04-2.56.94-4.38 2.97-5.93 5.94-12.31.95-2.04 2.72-3.41 5.61-4.3 10.79-8.57 1.72-1.42 3.88-1.88 7.6-1.6 15-3.39.42-.1.62-.49l7.75-15.62z"/><path fill="#0101fc" fill-opacity=".996" d="m238.94 269.86.86.4-7.69 15.31q-.49.98-1.56 1.21l-15.76 3.31a1.62 1.61 7.3 0 0-1.12.86l-7.49 14.92q-.31-.19-.99-.11l7.89-15.68a1.69 1.66-81.9 0 1 1.16-.89l15.91-3.35a1.93 1.89 7 0 0 1.33-1.02zM205.54 302.3l-14.09 11.46q-.22-.3-.58-.37l13.79-11.35q.38.4.88.26"/><path fill="#f9f9fa" fill-opacity=".996" d="m206.18 305.87-.29 17.25a2.36 2.35 71.7 0 1-.91 1.82l-12.09 9.33q-.95.95-.99.42l-8.28 16.39q-.06.3-.94.26c.13-.59.07-.84.34-1.38q3.71-7.38 7.4-14.77.29-.58 1.55-1.68l12.45-9.66q.4-.31.42-.83l.35-17.26q.68-.08.99.11M191.45 313.76l.01 17.88q-.34.26-.63.3-.35-.45-.36-1.19-.03-12.63.05-16.74.01-.23.35-.62.36.07.58.37"/><path fill="#0101fc" fill-opacity=".996" d="M191.46 331.64q.73.73.51 1.87-.88.33-1.14-1.57.29-.04.63-.3M192.89 334.27l6.04 12.45a2.3 2.28 45.3 0 1 0 1.99l-7.21 14.94a4.01 4-57.3 0 0 1.05 4.83q5.05 4.17 10.83 8.88c1.69 1.38 1.76 2.63 1.39 4.64h-.95c.21-1.49.25-2.85-1.01-3.86q-5.7-4.53-10.98-9.01-.5-.42-.5.23l-.06 12.64h-.87q-.15-5.8-.16-11.64-.01-2.26-.99-4.3-3.52-7.33-6.79-14.72.88.04.94-.26l6.54 14.04q.57 1.23.46-.12l-.07-.77a1.53 1.5 55.9 0 1 .14-.76l7.34-15.22a1.1 1.08 45.6 0 0 0-.95l-6.13-12.61q.04.53.99-.42"/></svg>