<svg xmlns="http://www.w3.org/2000/svg" viewBox="0 0 382 382"><g fill="none" stroke="#7c7d01" stroke-width="2"><path d="M164.74 35.99q-.36.23-.25.84M180.64 38.44q-.2.94-.56.82M180.98 95.83q-.21.21-.97.23M191.34 124.74q-.54.02-.88-.43M180.68 137.13q-.71-.57-.56-.81M154.29 151.74q-.36-.15-.67-.14M154.27 167.87q-.83-.23-.91-.37M143.48 196.23q-.36-.04-.7-.23M133.14 208.73q-.34-.25-.6-.17M143.67 237.04q-.68.27-.93.06M154 265.56q-.42.08-.59.3M154.31 281.47q-.12.41-.55.51M191.2 324.99q-.4-.19-.75-.1M180.93 337.44q-.46-.08-.69-.23" vector-effect="non-scaling-stroke"/></g><path d="m106.36 0 6.67 1.14q.51.08.93-.22l1.29-.92h1.34q-.71 1.09-2.08 1.76-1.23.58-2.59.31-5.17-1.04-10.15-1.33-.94-.05-.05-.34.8-.26 1.77-.4zM147.64 0l6.37 7.54q.33.4.33.92v14.86a1.37 1.34-65.9 0 0 .33.89l10.07 11.78q-.36.23-.25.84L153.9 24.94a2.22 2.21 24.3 0 1-.56-1.47l.01-14.38q0-1.09-.71-1.92L146.52 0z"/><path fill="#f8fa02" d="m164.74 35.99 15.9 2.45q-.2.94-.56.82l-15.59-2.43q-.11-.61.25-.84"/><path d="M180.98 95.83q-.21.21-.97.23l-.06-15.39a3.2 3.17-25.2 0 1 .77-2.1l9.44-10.98q.34-.38.33-.89V51.94a1.57 1.52-66.1 0 0-.37-1.01l-10.04-11.67q.36.12.56-.82l10.53 12.19a1.4 1.39 24.9 0 1 .33.9l.01 15.2a2.24 2.23 65.7 0 1-.55 1.47l-9.61 11.17q-.34.4-.34.92z"/><path fill="#f8fa02" d="m180.98 95.83 9.93 11.48a2.49 2.46 25.2 0 1 .6 1.64l-.17 15.79q-.54.02-.88-.43l.02-15.43a1.7 1.7 0 0 0-.42-1.12l-10.05-11.7q.76-.02.97-.23"/><path d="M190.46 124.31q.34.45.88.43l-10.66 12.39q-.71-.57-.56-.81z"/><path fill="#f8fa02" d="M180.12 136.32q-.15.24.56.81l-15.43 2.39q-.5.08-.82.46l-10.14 11.76q-.36-.15-.67-.14-.1-.55.17-.87 4.94-5.76 9.97-11.57.33-.38.83-.46z"/><path d="m154.29 151.74-.02 16.13q-.83-.23-.91-.37l.26-15.9q.31-.01.67.14"/><path fill="#f8fa02" d="m154.27 167.87-10.1 11.8a1.62 1.6-24.8 0 0-.38 1.01l-.31 15.55q-.36-.04-.7-.23l.02-15.41a2.22 2.21 65.4 0 1 .53-1.44l10.03-11.65q.08.14.91.37"/><path d="M142.78 196q.34.19.7.23l-10.34 12.5q-.34-.25-.6-.17z"/><path fill="#f8fa02" d="m133.14 208.73.15 15.42q0 .49.32.88l10.06 12.01q-.68.27-.93.06l-9.7-11.16a3.22 3.17 24.5 0 1-.78-2.03q-.09-7.17-.1-14.66 0-.24.38-.69.26-.08.6.17"/><path d="m143.67 237.04.1 15.24a2.26 2.21-66.6 0 0 .56 1.46q4.8 5.51 9.71 11.21.23.26-.04.61-.42.08-.59.3l-9.75-11.29a3.38 3.38 0 0 1-.82-2.18l-.1-15.29q.25.21.93-.06"/><path fill="#f8fa02" d="m154 265.56.31 15.91q-.12.41-.55.51l-.35-16.12q.17-.22.59-.3"/><path d="M191.2 324.99q-.4-.19-.75-.1l-.01-15.49q0-.53-.34-.94l-9.39-10.94q-.51-.59-1.28-.71l-14.33-2.18q-.98-.15-1.62-.92l-9.72-11.73q.43-.1.55-.51l10.06 11.69a1.44 1.41-15.6 0 0 .86.47l14.22 2.17a3.4 3.4 0 0 1 2.06 1.14l9.31 10.81a2.88 2.87 25.3 0 1 .69 1.92z"/><path fill="#f8fa02" d="M190.45 324.89q.35-.09.75.1l-10.27 12.45q-.46-.08-.69-.23z"/><path d="m180.93 337.44.03 15.36q0 .54.34.94l9.4 10.91q.74.86.73 2l-.08 15.35h-.72l-.19-15.58q-.01-.55-.37-.97l-9.31-10.81a3.44 3.43 25.2 0 1-.83-2.29l.31-15.14q.23.15.69.23"/></svg>