<svg xmlns="http://www.w3.org/2000/svg" viewBox="0 0 382 382"><path d="M382 177.15v1.08l-3.39 2.9q-.41.36.13.35l3.26-.07v.59l-5.19.82q-.52.09-.93.41-.73.56-1.63.73a.97.92-40.8 0 1-.43-.02l-3.84-1.14a.92.92 0 0 0-.72.09l-12.21 7.37a3.48 3.43-1.4 0 0-1.21 1.25l-6.76 12a1.86 1.85-76.3 0 1-1.54.94l-13.99.48q-.55.02-.82.51-3.25 5.89-6.27 11.11-.91 1.59-.88 3.36.1 6.28.02 12.85-.01 1.04-.9 1.59-5.46 3.4-11.18 6.76-1.34.79-2.04 2.07-3.17 5.79-6.54 11.63a1.63 1.61-76 0 1-1.35.82q-6.61.24-13.07.42-1.78.05-3.4 1.07-5.6 3.55-10.69 6.53a2.17 2.17 0 0 1-2.09.05l-12.15-6.35q-.54-.28-1.05.04-5.4 3.37-10.9 6.58-1.57.92-2.42 2.47-3.23 5.91-6.41 11.46a1.39 1.37-76.1 0 1-1.14.7q-6.39.29-13.44.46-1.58.04-2.98.93-4.74 3.03-10.05 6.11c-2.6 1.51-4.16 5.76-5.66 8.29a2.12 2.12 0 0 0-.27 1.33q.56 4.51 1.17 9.47.22 1.75 1.31 3.13 3.5 4.46 7.04 9.38 1.04 1.45 2.67 2.13 5.87 2.42 11.61 5.05a2.35 2.35 0 0 1 1.35 1.83l1.79 13.53q.07.6.64.84 6 2.5 11.78 5.17 1.49.69 3.1.51 6.72-.73 13.1-1.32a1.59 1.58-21.3 0 1 1.4.61q3.82 4.91 7.91 10.52.96 1.32 2.44 1.95 5.69 2.43 11.8 5.14 1.15.51 1.31 1.75.83 6.28 1.75 13.15.12.86.7 1.73.57.89.87 1.71h-1.36q-2.33-7.73-2.96-16.44a1.16 1.16 0 0 0-.69-.98q-6.11-2.69-11.88-5.2-1.67-.72-2.76-2.21-3.95-5.36-7.73-10.28a1.14 1.14 0 0 0-1.03-.44l-13.17 1.31a5.54 5.49 53.7 0 1-2.79-.44l-12.52-5.54a1.47 1.47 0 0 1-.88-1.16l-1.82-13.88a1.13 1.1 9 0 0-.64-.86q-5.6-2.59-11.79-5.18-1.79-.75-2.89-2.27-3.37-4.66-7.17-9.53-1.26-1.61-1.48-3.61-.47-4.11-1.02-7.78-.12-.8-.56-.12c-.81 1.28-1.77 2.58-1.74 4.19q.13 6.58.02 13.55a1.77 1.77 0 0 1-.86 1.5l-11.96 7.24a.95.94 74.2 0 0-.46.83q.11 6.14 0 13.12-.03 1.45.75 2.8 3.4 5.85 6.47 11.43a1.86 1.85 45.4 0 1-.01 1.81l-6.96 12.32q-.26.46-.26.99l-.03 14.83h-.8l-.14-14.45a4.41 4.37 59.5 0 1 .57-2.24l6.73-11.92q.27-.47 0-.95l-6.68-11.84a4.85 4.8-60 0 1-.62-2.37l-.01-13.77a1.55 1.54-15.6 0 1 .75-1.32l11.93-7.24q.63-.38.63-1.12l.01-14.17q.01-.52.26-.98l2.35-4.25q.27-.5.18-1.06c-.22-1.38-.3-2.74.23-4.06q2.46-6.23 4.98-12.41a1 .99-52.4 0 0-.12-.95q-3.85-5.16-7.91-10.47-1.09-1.43-1.31-3.29-.75-6.31-1.65-12.67a2.23 2.21 66.7 0 1 .81-2.05l10.55-8.45q.56-.44.47-1.15-.75-6.35-1.7-12.82-.27-1.81.46-3.55 2.61-6.24 4.88-12.06a1.82 1.81 5.7 0 1 1.4-1.14l13.58-2.27q1.18-.19 2.31.21l12.81 4.64q.48.17.89-.14 4.77-3.72 10-8.06 1.49-1.24 3.33-1.53 6.48-1.02 12.77-2.14a2.15 2.14-25.5 0 1 2.01.71l8.98 10.45a.99.98-24.8 0 0 .91.33q6.11-.97 12.76-2.12 1.92-.34 3.81.36 6.31 2.32 12.11 4.43.44.17.81-.13l10.98-8.83a3.26 3.22-68.9 0 1 1.49-.67l13.75-2.29a1.07 1.06-84 0 0 .81-.66l5.05-12.66a4.26 4.2-8.9 0 1 1.28-1.73l10.87-8.71a1.73 1.72 35.7 0 1 1.68-.27c4.1 1.52 9.19 4.01 13.59 3.54q1.91-.2 4.04-1.84 1.82-1.39 3.7-2.72m-40.22 25.69-1.1.39q-1.37.47.08.43l6.64-.2q.54-.02.81-.48 3.17-5.53 6.26-11.16 1.04-1.9 2.95-2.99 5.64-3.25 11.03-6.72a.04.04 0 0 0-.01-.08q-7.74-2.82-8.51-2.98-.14-.03-.25.07-4.61 3.82-9.94 7.95-1.66 1.29-2.33 3.02-2.21 5.67-4.74 11.91a1.49 1.46 1.2 0 1-.89.84m-26.53 12.01a1.65 1.63-53.8 0 1-1.57.25l-13.07-4.79q-.72-.26-1.48-.13l-13.82 2.3a1.76 1.75-25 0 1-1.61-.58l-9.04-10.55q-.41-.46-1.02-.36-5.66.94-12.56 2.02-1.87.29-3.38 1.55-5.01 4.17-10.02 8.08a1.5 1.49 35.8 0 1-1.43.23q-5.85-2.11-12.32-4.54-1.45-.54-2.99-.28-6.32 1.1-12.86 2.12a1.23 1.22-83.5 0 0-.94.75l-5.17 12.91q-.2.5-.13 1.03l1.85 14.02a1.87 1.84 67.2 0 1-.68 1.7l-10.93 8.75a.9.89 66.8 0 0-.33.84q.88 5.75 1.69 12.88.17 1.54 1.14 2.8 4.19 5.44 7.92 10.5a1.82 1.82 0 0 1 .23 1.75L207 292.65q-.05.12.07.18l.39.19q.24.12.38-.12l3.16-5.6a4.02 3.98-1.1 0 1 1.44-1.48l11.24-6.84a6.31 6.26 28.2 0 1 3.02-.9l13.17-.43a.99.98 13.6 0 0 .82-.49l6.55-11.65a5.56 5.51 89.2 0 1 1.94-2.01l11.43-6.92a2.17 2.17 0 0 1 2.12-.07l12.29 6.39q.44.22.85-.03l11.46-7.01a5.45 5.44-61.5 0 1 2.62-.78l13.29-.43a1.2 1.19 13.7 0 0 1.01-.61l6.57-11.67a4.91 4.83 89.5 0 1 1.72-1.78l11.57-7.02q.48-.29.48-.84.09-6.12-.02-12.92-.02-1.86.93-3.55 3.07-5.44 6.17-10.89.43-.76-.42-.56c-1.78.41-3.91.28-5.35 1.47q-5.75 4.71-10.65 8.57m24.39-11.23q.12.11.29-.04a.11.11 0 0 0-.01-.15q-.14-.11-.26-.05-.18.11-.02.24"/></svg>