<svg xmlns="http://www.w3.org/2000/svg" viewBox="0 0 382 382"><path fill="#f6a203" fill-opacity=".996" d="m85.02 0 7.71 7.6a1.74 1.74 0 0 0 1.23.51l15.22.06q.47 0 .81-.32L118.13 0h1.46l-9.14 8.73a2.07 2.05-65.9 0 1-1.47.57l-15.49-.34a2.18 2.13-21 0 1-1.5-.65L83.9 0zM141.68 0l8.68 8.82a2.43 2.41 22.9 0 1 .7 1.7l-.01 15.22a1.45 1.43-67.8 0 0 .42 1.02l10.72 10.98q.38.4.93.41l14.96.33a3.3 3.29 68.4 0 1 2.28.99l10.36 10.56a2.83 2.81-67.3 0 1 .8 1.97l-.01 15.01a2.81 2.77 67.6 0 1-.8 1.96l-10.63 10.86q-.38.39-.38.93l-.01 15.33a1.31 1.3 22.9 0 0 .37.91l10.69 10.91a2.7 2.7 0 0 1 .78 1.9l-.02 15.15q0 1.03-.72 1.77l-10.52 10.76a2.91 2.88 21.3 0 1-2 .87l-15.26.32a1.09 1.07-68.3 0 0-.75.33l-10.8 11.06q-.41.42-.41 1l.01 15.01a3.09 3.08 67.4 0 1-.89 2.17l-10.49 10.71a1.51 1.49-23.1 0 0-.43 1.05l.01 15.12a2.78 2.78 0 0 1-.79 1.94l-10.56 10.82q-.45.45-.45 1.09v14.99a1.83 1.81 23.3 0 0 .51 1.26l10.64 10.9a2.32 2.3-67.3 0 1 .65 1.61l-.01 15.31a1.45 1.43-67.8 0 0 .42 1.02l10.73 10.98a2.34 2.34 0 0 1 .66 1.63l-.01 15.4q0 .52.36.88l10.81 11.05a1.13 1.09 67.3 0 0 .76.33q6.74.24 14.8.32 1.66.01 2.78 1.17 5.08 5.25 10.17 10.44a2.79 2.75 23.2 0 1 .79 1.93v15.04a2.81 2.77-23 0 1-.81 1.96l-10.63 10.84q-.39.39-.39.94v15.21a1.65 1.64 22.9 0 0 .47 1.15l10.8 10.97a1.68 1.66 23 0 1 .48 1.17l-.03 16.52h-.8l-.16-16.2q0-.53-.37-.91l-10.66-10.87a2.57 2.56 22.8 0 1-.74-1.8l.01-15.45a1.82 1.82 0 0 1 .52-1.25l10.78-11.04q.51-.52.51-1.25l-.01-15.24q0-.51-.36-.88l-10.75-11.01a1.32 1.29-21.6 0 0-.9-.38l-15.82-.35q-.53-.01-.9-.39l-10.99-11.25a2.51 2.5-67.4 0 1-.72-1.76v-15.21a1.55 1.53-67.7 0 0-.45-1.09l-10.78-11a2.06 2.01-67.7 0 1-.58-1.43l.01-15.51q0-.52-.37-.9l-10.84-11.08a2.1 2.1 0 0 1-.59-1.46v-15.48a2.23 2.22-22.8 0 1 .64-1.56l10.58-10.77a2.01 1.98 67.5 0 0 .57-1.4v-15.04a2.5 2.5 0 0 1 .71-1.75l10.59-10.84q.51-.53.51-1.26v-15.05a2.68 2.67 67.4 0 1 .77-1.88l10.74-10.95a2.1 2.07 21.3 0 1 1.44-.62l15.47-.35q.55-.01.93-.4l10.67-10.92a1.47 1.47 0 0 0 .43-1.04l-.01-15.18q0-.72-.51-1.24l-10.7-10.92q-.59-.6-.59-1.45V80.88a2.62 2.61-23.2 0 1 .73-1.81l10.65-10.91q.42-.43.42-1.02V51.87q0-.6-.42-1.03l-10.6-10.87q-.45-.46-1.1-.47l-15.45-.35a1.94 1.91 68.1 0 1-1.36-.59l-10.6-10.86a3.27 3.23-67.3 0 1-.91-2.26v-14.9a1.58 1.57 23 0 0-.45-1.1L140.43 0z"/></svg>