<svg xmlns="http://www.w3.org/2000/svg" viewBox="0 0 382 382"><g fill="none" stroke-width="2"><path stroke="#bd6f42" d="m133.18 5-.71 1.4M119.94 3.53l-.71.19" vector-effect="non-scaling-stroke"/><path stroke="#9b1662" d="m144.33 3.77-.02 2.04" vector-effect="non-scaling-stroke"/><path stroke="#d58427" d="m143.99 5.58-1.65-2.6M141.85 1.78q.01-.19-.03-.36-.07-.35-.42-.37l-.34-.01" vector-effect="non-scaling-stroke"/><path stroke="#be5841" d="M151.05 5.01q.51-.3.45-1.02" vector-effect="non-scaling-stroke"/><path stroke="#f9c706" stroke-opacity=".996" d="M160.75 28.76q-.76.36-1.27 1.03M148.26 13.91q.83.05.55-1.22" vector-effect="non-scaling-stroke"/><path stroke="#be5841" d="M148.81 12.69q.36.76.67 1.02.47.39.53-.22l.14-1.69M149.32 8.79l-.49-.41" vector-effect="non-scaling-stroke"/><path stroke="#bd6f42" d="m174.06 1.96.44.69M172.15 6.68q-.73.98-2.1 1.34M175.04 0q.07.7.68 1.05M181.78 21.86q-.05.58.12 1.2M181.59 24.09q-1.2.37-1.87 1.21M171.23 43.5q-1.25 1.14.29 2.37" vector-effect="non-scaling-stroke"/><path stroke="#f9c706" stroke-opacity=".996" d="M174.56 50.65q.11.45.58.86" vector-effect="non-scaling-stroke"/><path stroke="#bd6f42" d="M176.85 54.34q.16.87 1.14 1.49M179.99 58.8q.2.94 1.01 1.49" vector-effect="non-scaling-stroke"/><path stroke="#d58427" d="M182.76 63.44q-.01.45.74.88M186.72 69.53q.28 1.43 1 1.52" vector-effect="non-scaling-stroke"/><path stroke="#bd6f42" d="M187.72 71.05q.04.21.16.41M188.91 73.2q.31.7.84 1.06M190.34 72.84l-.39-1.05" vector-effect="non-scaling-stroke"/><path stroke="#f9c706" stroke-opacity=".996" d="m190.45 66.96.12-.57q.11-.51-.38-.7-.76-.29-.54-.91M190.52 60.64q.13.3.78.14" vector-effect="non-scaling-stroke"/><path stroke="#bd6f42" d="m192.93 59.46 1.53-.94" vector-effect="non-scaling-stroke"/><path stroke="#d58427" d="m194.46 58.52.82-.17" vector-effect="non-scaling-stroke"/><path stroke="#bd6f42" d="m191.67 69.18.35.87M197.58 61.97q.7-.19.54-1.22-.11-.71-.75-.88" vector-effect="non-scaling-stroke"/><path stroke="#d58427" d="M197.15 57.54q.47-1.23.11-1.89M196.72 55.71q-1.08 1.16-1.97 1.22" vector-effect="non-scaling-stroke"/><path stroke="#bd6f42" d="M197.09 53.23q.93-.39 1.7.49M198.84 55.23q.2.61.13 1.33" vector-effect="non-scaling-stroke"/><path stroke="#d58427" d="m208.14 69.1.92 1.24" vector-effect="non-scaling-stroke"/><path stroke="#bd6f42" d="M199.14 85.48q-.4.32-.56.82M191.54 83.44q-.81-.12-.85.76M190.5 93.76q.75.37 1.08-.49" vector-effect="non-scaling-stroke"/><path stroke="#f9c706" stroke-opacity=".996" d="M191.46 94.5q.53-.21-.46-.3-.33-.03-.23.3" vector-effect="non-scaling-stroke"/><path stroke="#bd6f42" d="M190.77 94.5q-.22.12-.25.31M186.92 108.53l.63.68" vector-effect="non-scaling-stroke"/><path stroke="#f9c706" stroke-opacity=".996" d="M190.52 106.96q.64.2.99.18" vector-effect="non-scaling-stroke"/><path stroke="#bd6f42" d="M210.22 88.04q1.57-.28 1.84.34M207.93 107.52l.79.51M191.78 127.51l-.01.88M197.5 129.24q.5-.26 1.07.14M201.95 129.87q.66-.17 1.28-.8M198.28 136.27l-.85-.29M191.66 145.21l.34.89" vector-effect="non-scaling-stroke"/><path stroke="#d58427" d="m191.67 152.98-.05 1.34" vector-effect="non-scaling-stroke"/><path stroke="#bd6f42" d="M191.48 173.28q-.55.23-.96-.01M188.7 151.73q-.1-.29-.48-.58M186.91 148.94q.07-.51-.65-.78" vector-effect="non-scaling-stroke"/><path stroke="#d58427" d="M177.47 156.17q.06.16.11.31" vector-effect="non-scaling-stroke"/><path stroke="#bd6f42" d="M177.58 156.48q0 .29.36.62" vector-effect="non-scaling-stroke"/><path stroke="#d58427" d="M180.28 160.77q.19 1.54-.37 1.8" vector-effect="non-scaling-stroke"/><path stroke="#bd6f42" d="M176.58 157.64q-.19-.43-.55-.75M171.97 158.97q-.82.51-.66 1.07" vector-effect="non-scaling-stroke"/><path stroke="#d58427" d="M180.04 176.21q.77-.4 1.53-.51" vector-effect="non-scaling-stroke"/><path stroke="#bd6f42" d="M181.57 175.7q-.02.06-.04.13M190.37 178.91q.21.03.39.14.39.22.17.61-.23.4-.21.82M190.23 189.7l.11.78" vector-effect="non-scaling-stroke"/><path stroke="#f9c706" stroke-opacity=".996" d="M190.34 190.48q-.29.22-.42.43" vector-effect="non-scaling-stroke"/><path stroke="#bd6f42" d="M181.4 213.76q-.36.37-1.15.61M169.88 198.19q.48-1.2-1.15-1.86M165.02 194.58q-.52-.11-.9-.47M143.92 173.94q-.57.24-1.05.25M115.56 150.31q.87-.64-.37-2.33M99.18 112.49q-.29-.46.65-.84M139.47 111.67q.58.07.93-.01M140.4 93.3l-.95-.13" vector-effect="non-scaling-stroke"/><path stroke="#f9c706" stroke-opacity=".996" d="M123.08 55.41q-.29-.1-.69-.04" vector-effect="non-scaling-stroke"/><path stroke="#bd6f42" d="m112.14 50.09.71-.66M122.13 36.71q1.34-.06.96.27" vector-effect="non-scaling-stroke"/><path stroke="#d58427" d="M129.41 48.76q-.04-.77-.15-.71" vector-effect="non-scaling-stroke"/><path stroke="#bd6f42" d="m147.15 11.24 1.66 1.45M180.33 8.44q.1-.65.03-.89" vector-effect="non-scaling-stroke"/><path stroke="#d58427" d="M144.5 12.56q.45.14-.06-.32-.21-.2-.31.07-.09.23.07.22.15-.01.3.03" vector-effect="non-scaling-stroke"/><path stroke="#bd6f42" d="M140.36 42.1q-.66-.14-.96-.38" vector-effect="non-scaling-stroke"/><path stroke="#f9c706" stroke-opacity=".996" d="M130.18 48.46q-.57.49-.07 1.28" vector-effect="non-scaling-stroke"/><path stroke="#bd6f42" d="m131.97 53.37.51 1.12M139.81 54.21q.35.36.78.51M160.9 67.76q-.56.22-1.11.02M150.7 63.8q-.41.15-.77.47M157.61 76.3l.7-.51M159.86 73.22q1.17-.65 1.35-1.69M161.49 71.2q.36.23.69.72M160.78 74.93q-.63.26-.82.79M159.75 79.8l1.18-.12M167.68 80.93q-.62-.13.44 1.22M169.88 93.41q.45 1.17.05 2.61M170.03 102.97q.75-.25 1.16.06M177.01 103.68l1.13.36M180.14 101.28l-.22-1.96M178.16 93.01q.06-.56-.09-1.05M171.17 84.15q-.39-.07-.63-.43-.34-.51-.04-.89M169.81 81.23q-.15.02-.27 0-.3-.05-.32-.36-.02-.22.1-.43M172.24 74.84q-.03-.28-.44-.72M172.58 72.7q.13.28.69.66M178.19 59.33q-.19-.04-.46-.54" vector-effect="non-scaling-stroke"/><path stroke="#f9c706" stroke-opacity=".996" d="m177.73 58.79-.59-1.05M174.33 53.18q-.17-.38-.88-.77" vector-effect="non-scaling-stroke"/><path stroke="#bd6f42" d="M171.15 48.41q-.31-1.43-1.2-1.61" vector-effect="non-scaling-stroke"/><path stroke="#be5841" d="M171.18 55.81q-.19 1.15-1.02 1.55M177.73 58.79q-.47.12-.67.49M162.9 70.81q.4-.22-.22-.29-.27-.04-.29-.31l-.02-.46" vector-effect="non-scaling-stroke"/><path stroke="#bd6f42" d="M171.09 95.15q-.25.25.15.89M176.79 93.42q.16-.03.24-.16.1-.18-.03-.35-.26-.34-.08-.49" vector-effect="non-scaling-stroke"/><path stroke="#d58427" d="M130.36 55.54q-.87 1.75.22 2.5" vector-effect="non-scaling-stroke"/><path stroke="#bd6f42" d="M132.02 55.44q.03-.51-.15-.9-.12-.24-.35-.32-.27-.1-.53 0" vector-effect="non-scaling-stroke"/><path stroke="#9b1662" d="M131.55 55.77q-.37-.07-.96.05" vector-effect="non-scaling-stroke"/><path stroke="#bd6f42" d="M187.79 75.43q-.01.17.22.32" vector-effect="non-scaling-stroke"/><path stroke="#d58427" d="M189.08 77.24q1.08 1.04.64 1.5M183.1 78.76l.09-.8" vector-effect="non-scaling-stroke"/><path stroke="#bd6f42" d="m183.19 77.96.71-.74M185.67 75.12l-1.44-.46" vector-effect="non-scaling-stroke"/><path stroke="#d58427" d="M181.56 78.21q.26.58-.69 1.54M180.67 80.51q.46.22.65.54M190.57 82.07q1.04-.38 1.2-1.08" vector-effect="non-scaling-stroke"/><path stroke="#bd6f42" d="M191.77 80.99q.16-.26-.02-.62" vector-effect="non-scaling-stroke"/><path stroke="#d58427" d="m191.75 80.37.19-.42" vector-effect="non-scaling-stroke"/><path stroke="#bd6f42" d="m191.94 79.95.06-.22" vector-effect="non-scaling-stroke"/><path stroke="#d58427" d="M191.8 78.47q-1.51.12-2.29-1.43" vector-effect="non-scaling-stroke"/><path stroke="#bd6f42" d="M188.94 76.43q-.15-.42-.44-.71M188.5 75.72q.13-.25-.27-.6M186.67 73.02q.1-.46-.2-.58-.22-.09-.42.07-.25.2-.04.53" vector-effect="non-scaling-stroke"/><path stroke="#9b1662" d="M191.88 78.79q-.09.59.06 1.16M191.75 80.37q-.42-.15-.74.13a.36.36 0 0 0 .17.63q.26.05.59-.14M183.19 77.96q-.38-.11-.76-.44" vector-effect="non-scaling-stroke"/><path stroke="#f9c706" stroke-opacity=".996" d="M143.87 81.32q.07-.39-.13-.49-.3-.14-.22.18.02.1.12.19" vector-effect="non-scaling-stroke"/><path stroke="#bd6f42" d="M171.36 121.75q-.6.47-1.33.51M160.93 130.05q-.69.03-.89-1.15M157.29 125.33q-.48.37-.81.37M160 148.93q.93-.26 1.17-1.42M161.37 146.23q-.54-.71-.05-1.75M170.04 133.72q.53-.03.85.54M180.21 138.09q.92-.14.66-.8-.43-1.14-.65-1.77M180.34 118.83l1.06.02M181.37 134.92q.09.96.33.96M185.06 136.26q.19-.03.72-.14.35-.08.46.37M187.01 146.3q.19.6.68.94M188.84 149.21l.63 1.02M190.4 148.73l-.47-.94M190.39 142.8l-.39-1.04M187.04 136.44q.1-.42.06-.8" vector-effect="non-scaling-stroke"/><path stroke="#d58427" d="M190.54 130.2q.56.13.37-.86" vector-effect="non-scaling-stroke"/><path stroke="#bd6f42" d="m186.85 135.33-1.04-.22M186.86 110.55q.06-.46-.88-.61M151.27 115.85q-.67.15-.5.75M155.82 124.61l.82-.48" vector-effect="non-scaling-stroke"/><path stroke="#d58427" d="M181.48 178.15q-.11-.42-.38-.4a.22.22 0 0 0-.2.25q.05.27.36.27" vector-effect="non-scaling-stroke"/><path stroke="#d66c26" d="M191.73.46q.01 1.49-1.43 1.74M191.81 20.72q-.87-.16-1.64-.01" vector-effect="non-scaling-stroke"/><path stroke="#9b1662" d="M190.16 19.06q-.49-.68-.06-1.08" vector-effect="non-scaling-stroke"/><path stroke="#be5841" d="m212.28 10.8 1.08-.23M217.83 6.19l.05-1.15M219.05 4.47q.45.7.01.88" vector-effect="non-scaling-stroke"/><path stroke="#f9c706" stroke-opacity=".996" d="m218.78 16.44-.96-.48" vector-effect="non-scaling-stroke"/><path stroke="#be5841" d="m211.84 12.91-1.28.29M205.63 20.99l-.34 1.65" vector-effect="non-scaling-stroke"/><path stroke="#f9c706" stroke-opacity=".996" d="m205.29 22.64-.88.06M196.16 25.81q.27.1.01 1.18M191.78 39.07q-1.41 1.56-.08 1.26" vector-effect="non-scaling-stroke"/><path stroke="#be5841" d="M191.76 51.48q.22.4 0 .84M191.67 58.81q.43.36.42.9" vector-effect="non-scaling-stroke"/><path stroke="#d66c26" d="M186.05 60.45q-.49-.53-1.04-.42" vector-effect="non-scaling-stroke"/><path stroke="#be5841" d="M181.36 59.76q-.25-.41-.18-.75.06-.3.18-.32M185.74 59.25q.54.29.97.12M190.35 53.58l-.58-.64M189.71 38.7l.64-.75M187.54 33.67q-.67.26-.69.76M177.95 47.75l-.98 1.05M184.18 35.73q.73-1.09 2.06-1.98.42-.28.5-.77.12-.73.01-1.09" vector-effect="non-scaling-stroke"/><path stroke="#d66c26" d="M188.74 28.53q1.04-.74 1.77-1.93.16-.26-.09-.44-.1-.07-.22-.11" vector-effect="non-scaling-stroke"/><path stroke="#be5841" d="m190.2 26.05-.02-.25" vector-effect="non-scaling-stroke"/><path stroke="#d58427" d="M259.5.34q-.29.31-.01.61M246.5 11.22q-.46.22-1.23-.2M282 12.02q-.68.89-1.43 1.15-1.73.59.08.85.82.12 2.58-.67M287.49 13.75q1.51.02 1.27-1.96M288.76 11.79q.42-.03.53-.53M290.05 10.39q.69-1.17 1.86-1.12" vector-effect="non-scaling-stroke"/><path stroke="#f9c706" stroke-opacity=".996" d="m298.76 15.42.08 1.61" vector-effect="non-scaling-stroke"/><path stroke="#bd6f42" d="M291.7 21.86q-.32-.37-.8-.52" vector-effect="non-scaling-stroke"/><path stroke="#f9c706" stroke-opacity=".996" d="M283.68 22.26q-.32-.06-.55-.02" vector-effect="non-scaling-stroke"/><path stroke="#d58427" d="M283.13 22.24q.01-.73-.39-.99M283.38 20.3q.57.03.35-.54M284.25 19.13q1.8-1.03 2.05-3.17" vector-effect="non-scaling-stroke"/><path stroke="#f9c706" stroke-opacity=".996" d="M280.83 23.26q-.54.48-.98.54M279 24.51q-.54.65-1.26.87M277.31 25.74q-.75.41-1.6.49" vector-effect="non-scaling-stroke"/><path stroke="#bd6f42" d="M273.71 26.22q-.55.2-.88.69" vector-effect="non-scaling-stroke"/><path stroke="#f9c706" stroke-opacity=".996" d="M272.69 27.72q-.16.99.12 1.77" vector-effect="non-scaling-stroke"/><path stroke="#d58427" d="M271.69 30.28q-.4.07-.65.28" vector-effect="non-scaling-stroke"/><path stroke="#bd6f42" d="m271.04 30.56-.62.34" vector-effect="non-scaling-stroke"/><path stroke="#d58427" d="M272.85 38.96q.69.08 1.01-.15" vector-effect="non-scaling-stroke"/><path stroke="#f9c706" stroke-opacity=".996" d="M276.42 37.65q.27.28.37.94" vector-effect="non-scaling-stroke"/><path stroke="#bd6f42" d="M273.75 40.22q-.74.48-.81.23M272.92 43.33q.26.07.82.5" vector-effect="non-scaling-stroke"/><path stroke="#f9c706" stroke-opacity=".996" d="M275.18 57.59q-.76.64-1.68.7" vector-effect="non-scaling-stroke"/><path stroke="#bd6f42" d="M246.65 105.49q.05.68-1.55.44M236.23 119.91q-.45.61-.38 1.15.08.63.66.38.41-.18.65-.79M236.29 127.98l-.88.31M240.27 149.71l-.06.94" vector-effect="non-scaling-stroke"/><path stroke="#d58427" d="M207.88 146.75q-.03-.58-.48-1.05" vector-effect="non-scaling-stroke"/><path stroke="#bd6f42" d="M208.04 145.3q.89-.14 1.75-.63M235.11 121.49q.24-.06 0-.71M218.73 130.31l-.9-.35M209.86 130.76q.08-.83-.11-.91" vector-effect="non-scaling-stroke"/><path stroke="#d58427" d="m239.32 74.56.88-1.24" vector-effect="non-scaling-stroke"/><path stroke="#bd6f42" d="M238.24 56.8q.46-.46.91-.35M248.69 61.48q.02-.72.43-.91M259.73 46.72l-.21-1.49M253.06 38.75q-.67-.25-.22-1.68" vector-effect="non-scaling-stroke"/><path stroke="#d58427" d="M267.95 31.7q.32.08.53-.25a.33.33 0 0 0-.33-.5q-.29.04-.42.47" vector-effect="non-scaling-stroke"/><path stroke="#bd6f42" d="m237.4 44.26-1.44.93" vector-effect="non-scaling-stroke"/><path stroke="#d58427" d="m235.96 45.19-.9.79" vector-effect="non-scaling-stroke"/><path stroke="#bd6f42" d="M232.37 40.97q-.63-.22-.09-.99M235.2 34.74q.21-.43.56-.59.24-.11.45.13M241.07 35.53q.28-.02.52-.27" vector-effect="non-scaling-stroke"/><path stroke="#d58427" d="M241.59 35.26q.48-.41.39-1.05M241.98 34.21q1.07-.33 1.01-1.69M243.15 32.22l3.06-2.73" vector-effect="non-scaling-stroke"/><path stroke="#bd6f42" d="m246.21 29.49.44-.05" vector-effect="non-scaling-stroke"/><path stroke="#d58427" d="M250.05 23.84q-1.05.12-1.92-.1M246.7 23.51q-.86-.54-.15-1.59" vector-effect="non-scaling-stroke"/><path stroke="#bd6f42" d="M260.93 15.16q.36-.78.93-.43M262.67 15.42l-.79.86M251.14 21.28q-.87.03-1.61.37M249.17 22.51l1.17.18M262.66 17.75l.57-.51" vector-effect="non-scaling-stroke"/><path stroke="#d58427" d="m290.99 8.13-.31.51q-.18.3-.49.13-.11-.06-.2-.2" vector-effect="non-scaling-stroke"/><path stroke="#be5841" d="M335.97 1q.24-.45.28-1M338.28.21q-.12.73-.46 1.29M332.49 9.83q-.15.03-.2.17" vector-effect="non-scaling-stroke"/><path stroke="#d66c26" d="M332.29 10q-.24.27-.28.59" vector-effect="non-scaling-stroke"/><path stroke="#be5841" d="M332.01 10.59q-.23.08-.49.31M329.9 13.7q-.62.14-1.27.85" vector-effect="non-scaling-stroke"/><path stroke="#d66c26" d="M339.97 24.18q.63.26.77.76" vector-effect="non-scaling-stroke"/><path stroke="#be5841" d="M322.91 43.33q-.85.15-1.39-.22M309.22 41.59q.45.62-.53.89" vector-effect="non-scaling-stroke"/><path stroke="#d66c26" d="M290.97 32.26q-.58-.15-.97.26" vector-effect="non-scaling-stroke"/><path stroke="#be5841" d="M289.95 39.78q.04.07.07.13" vector-effect="non-scaling-stroke"/><path stroke="#d66c26" d="M290.02 39.91q.25 1.01-.36 1.51M274.21 33.8l.03-1.15M273.85 29.22q-.62-.1-.98.32" vector-effect="non-scaling-stroke"/><path stroke="#be5841" d="M281.03 23.64q.44.11.5-.4" vector-effect="non-scaling-stroke"/><path stroke="#d66c26" d="M281.8 23q1.08.11 1.33-.76" vector-effect="non-scaling-stroke"/><path stroke="#be5841" d="M287.43 21.25q.2.77.05 1.3M290.03 27.99q.44-.19.99.03M297.5 23.85q.23-.75.66-1.25" vector-effect="non-scaling-stroke"/><path stroke="#d66c26" d="M304.16 13.18q1.15.94.82 1.25" vector-effect="non-scaling-stroke"/><path stroke="#be5841" d="m299.49 22.91-.56.97M303.63 24.91q.98-.18 2.41-1.16M322.8 6.27q-.05.03-.09.06" vector-effect="non-scaling-stroke"/><path stroke="#d66c26" d="m322.71 6.33-.29-.87M317.99 6.99q-1.07.66-2.06.68" vector-effect="non-scaling-stroke"/><path stroke="#be5841" d="M290.15 31.09q-.09-.43.09-.29" vector-effect="non-scaling-stroke"/><path stroke="#d66c26" d="M290.24 30.8q.58.14.93-.08M291.13 29.45q-.41-.19-.91-.11" vector-effect="non-scaling-stroke"/><path stroke="#be5841" d="M290.22 29.34q-.07-.1-.14-.19" vector-effect="non-scaling-stroke"/><path stroke="#9b1662" d="M290.22 29.34q-.12.72.02 1.46" vector-effect="non-scaling-stroke"/><path stroke="#bd6f42" d="M355.64 0q.55.43.75 0M356.13 1.97q-.71.07-1.12.59" vector-effect="non-scaling-stroke"/><path stroke="#d58427" d="M354.65 7.38q-.09 1.29 1.46.51" vector-effect="non-scaling-stroke"/><path stroke="#bd6f42" d="M356.78 9.48q-1.18.38-.93 1.5" vector-effect="non-scaling-stroke"/><path stroke="#d58427" d="M357.31 15.26q-.2 1.2.51 1.86" vector-effect="non-scaling-stroke"/><path stroke="#bd6f42" d="M360.71 18.03q.52.07 1.06-.06" vector-effect="non-scaling-stroke"/><path stroke="#d58427" d="m361.77 17.97.6.42M377.46 20q-.11-.44.09-.93M373.07 32.54l-.28 1.18M378.01 39.52q.2.67 1.32.81" vector-effect="non-scaling-stroke"/><path stroke="#bd6f42" d="M376.13 41.59q-1.76-.74-2.19-.33M368.78 46.35q.14.42.85.96M368.21 56.7q-.96-.76-.37-.63M368.93 48.22l-1.19-.61M363.59 53.74q-.09-.43-.72.77M360.19 54.75q-1.15.61-1.5-.09M355.96 48.69q.02-2.15.96-3.96M358.25 39.46q-.39-.84-1.14-1.06M337.3 39.56q-.67.36-1.68.44" vector-effect="non-scaling-stroke"/><path stroke="#d58427" d="m342.76 26.3.71-1.07" vector-effect="non-scaling-stroke"/><path stroke="#bd6f42" d="M344.6 25.62q1.01.19 2.13-.5M346.93 24.55v-.19M355.47 15.02q.11-1.18-.48-1.85M354.41 12.24q.08-.46-.41-.77" vector-effect="non-scaling-stroke"/><path stroke="#d58427" d="M348.21 13.06q-.54-.78-.17-1.28" vector-effect="non-scaling-stroke"/><path stroke="#bd6f42" d="M350.13 10.65q.44.1 1.04-.44M351.77 3.19l.45-1.03" vector-effect="non-scaling-stroke"/><path stroke="#9b1662" d="M356.16 2.46q-.44-.05-1.12.56" vector-effect="non-scaling-stroke"/><path stroke="#bd6f42" d="m212.24 27.75-1.52 1.14M198.99 52.16q-.86.12-1.46-.05M205.29 22.64q.27.07.44-.01" vector-effect="non-scaling-stroke"/><path stroke="#9b1662" d="m322.71 6.33-.7.01" vector-effect="non-scaling-stroke"/><path stroke="#bd6f42" d="M374.09 12.58q-.1-.41-.02-.82" vector-effect="non-scaling-stroke"/><path stroke="#9b1662" d="M332.94 9.9q-.07.27-.65.1M332.49 10.89q-.15-.27-.48-.3M246.7 23.51q-.16.36-.08.76M246.72 26.54q.46.18.61-.1.18-.33-.13-.6M246.63 28.83q-.43.29-.42.66M240 26.73q-.32-.12-.52-.35" vector-effect="non-scaling-stroke"/><path stroke="#d66c26" d="m239.48 26.38.3-1.4" vector-effect="non-scaling-stroke"/><path stroke="#9b1662" d="M242.41 22.96q-1.06.29-1.41 1.19-.23.62.33.28.32-.18.61-.52M245.16 19.2q.12-.31.06-.48a.24.24 0 0 0-.42-.03q-.24.41 0 .73" vector-effect="non-scaling-stroke"/><path stroke="#be5841" d="M347.06 22q.68-.53.58-1.28" vector-effect="non-scaling-stroke"/><path stroke="#9b1662" d="m330.03 13.9-1.15.87" vector-effect="non-scaling-stroke"/><path stroke="#d66c26" d="M341.34 23.4q-.02.84 1.2 1.15" vector-effect="non-scaling-stroke"/><path stroke="#9b1662" d="M361.77 17.97q.36.02.52-.09.23-.15-.02-.29-1.39-.78-2.58.09" vector-effect="non-scaling-stroke"/><path stroke="#bd6f42" d="M181.29 26.22q.11-.58-.69-1.35-.37-.35-.56.13l-.12.29M181.29 30.37l-1.39-.46" vector-effect="non-scaling-stroke"/><path stroke="#be5841" d="M239.48 26.38q-.39.18-.5.39M229.37 31.28q-1.1-.08-1.02-1.05" vector-effect="non-scaling-stroke"/><path stroke="#9b1662" d="M190.2 26.05q-.07.24-.2.4M234.17 46.25q-.09.68-.79 1.01" vector-effect="non-scaling-stroke"/><path stroke="#be5841" d="M219.87 50.3q-.78-.08-.73-.7" vector-effect="non-scaling-stroke"/><path stroke="#bd6f42" d="M228.61 42.54q1.63-.59 1.1-1.55M95.52 79.24q-.05.59-.73.7" vector-effect="non-scaling-stroke"/><path stroke="#9b1662" d="M273.94 33.67q-.27-.32-.47.1-.25.54.3.49M270.83 30.99l.21-.43" vector-effect="non-scaling-stroke"/><path stroke="#d66c26" d="m300.29 56.03-.96.83M292.04 59.6l-1.29-.36" vector-effect="non-scaling-stroke"/><path stroke="#9b1662" d="M290.02 39.91q.48.42.51-.15.04-.85-.48-1.02M241.59 35.26l-.11-.47" vector-effect="non-scaling-stroke"/><path stroke="#be5841" d="M219.05 43.28q.14.19.05.74" vector-effect="non-scaling-stroke"/><path stroke="#d66c26" d="M230.67 51.78q.13.43.03.67-.14.35-.39.32M218.72 54.27l-.91-.29" vector-effect="non-scaling-stroke"/><path stroke="#be5841" d="M217.84 51.21q-.66-.56-1.77-.32M206.85 52.81q-.55-.53-.6-1.03M211.84 43.12q.27-.32.4-.83M217.92 44.15l.01-1.09M335.81 41.56l-8.61 3.53M322.24 44.36q-.51-.42-1.45-.2" vector-effect="non-scaling-stroke"/><path stroke="#9b1662" d="M236.48 46.37q-.46-.44-.52-1.18" vector-effect="non-scaling-stroke"/><path stroke="#bd6f42" d="M362.01 59.11q-.64-.01-1.28-.37M359.24 55.96q-.07-.56-.96-.24M353.74 56.45q-.66-.15-1.41.07" vector-effect="non-scaling-stroke"/><path stroke="#be5841" d="m350.16 54.53.06-.95M348.23 51.73q-.32-.21-.57-.76" vector-effect="non-scaling-stroke"/><path stroke="#bd6f42" d="M223.39 44.61q-.15-.49-.03-.73" vector-effect="non-scaling-stroke"/><path stroke="#be5841" d="M346.81 52.24q-1.35-.58-.64-.54" vector-effect="non-scaling-stroke"/><path stroke="#d66c26" d="M327.39 60.24q.76-.41.05 1.25M327.45 64.02q.79.93.04 1.12" vector-effect="non-scaling-stroke"/><path stroke="#be5841" d="m321.33 64.43-.71-.66" vector-effect="non-scaling-stroke"/><path stroke="#d66c26" d="m317.76 50.56-.19-1.35" vector-effect="non-scaling-stroke"/><path stroke="#9b1662" d="M226.85 62.09q-.46.14-.9-.05a.61.6 44.6 0 1-.01-1.11l1.74-.77" vector-effect="non-scaling-stroke"/><path stroke="#bd6f42" d="M237.51 55.55q-.31-.03.16.06.09.01.16-.02.38-.16.48-.64M236.2 50.98q.19-.63.1-1.21" vector-effect="non-scaling-stroke"/><path stroke="#d58427" d="M236.12 47.2q-.74-.13-1.36 2.1" vector-effect="non-scaling-stroke"/><path stroke="#d66c26" d="m311.24 53.63-.18-1.58" vector-effect="non-scaling-stroke"/><path stroke="#bd6f42" d="M338.94 55.95q-.25-.3-.31-.77" vector-effect="non-scaling-stroke"/><path stroke="#f9c706" stroke-opacity=".996" d="m308.22 72.07-.51 1.71" vector-effect="non-scaling-stroke"/><path stroke="#d66c26" d="m301.2 77.45-.95.26M300.11 93.32q.59 1.64-.18 2.27" vector-effect="non-scaling-stroke"/><path stroke="#f9c706" stroke-opacity=".996" d="m284.79 88.15-1.23-.09" vector-effect="non-scaling-stroke"/><path stroke="#d66c26" d="M288.27 70.54q.12-.55.76-1.05M276.79 59.14q-1.41-1.55-2.74-.53" vector-effect="non-scaling-stroke"/><path stroke="#9b1662" d="m328.86 58.56.08 1.16" vector-effect="non-scaling-stroke"/><path stroke="#d58427" d="M328.94 59.72q-.01.37.3.79" vector-effect="non-scaling-stroke"/><path stroke="#9b1662" d="m328.88 61.29.01.91" vector-effect="non-scaling-stroke"/><path stroke="#d58427" d="M329.23 64.32q-.4.54-.01 1.02M328.74 71.78l-1.24-.31" vector-effect="non-scaling-stroke"/><path stroke="#be5841" d="M112.62 72.37q-.96-.34-.55-.86" vector-effect="non-scaling-stroke"/><path stroke="#bd6f42" d="M328.94 59.72q.17-.06.25-.16M357.5 68.37q.08.92.42 1.39M356.28 69.59l-.45-1.51M346.52 66.8l-1.5.41" vector-effect="non-scaling-stroke"/><path stroke="#f9c706" stroke-opacity=".996" d="m345.02 67.21-1.39-.6" vector-effect="non-scaling-stroke"/><path stroke="#9b1662" d="M194.46 58.52q-.16-.37-.74-.7" vector-effect="non-scaling-stroke"/><path stroke="#bd6f42" d="m315.86 73.06-1.13-.05" vector-effect="non-scaling-stroke"/><path stroke="#d66c26" d="M190.37 66.28q-1.86 1.38-2.45 3.17a.35.35 0 0 1-.59.13q-.18-.19-.31-.61" vector-effect="non-scaling-stroke"/><path stroke="#9b1662" d="M187.83 70.71q.01.18-.11.34" vector-effect="non-scaling-stroke"/><path stroke="#be5841" d="M105.92 82.69q-.62-.16-.92.16" vector-effect="non-scaling-stroke"/><path stroke="#bd6f42" d="M96.07 109.83q-.36.19-.34.51.02.36.24.53M98.19 112.04q.2.15.48-.11t.17-.65" vector-effect="non-scaling-stroke"/><path stroke="#be5841" d="M104.97 101.85q.24.39.77.42" vector-effect="non-scaling-stroke"/><path stroke="#bd6f42" d="M96.94 152.75q.18-.59.13-.91" vector-effect="non-scaling-stroke"/><path stroke="#be5841" d="M94.97 118.24q.36-.62-.1-1.21" vector-effect="non-scaling-stroke"/><path stroke="#bd6f42" d="M94.65 110.24q.26-.09.36-.48.1-.4-.2-.52" vector-effect="non-scaling-stroke"/><path stroke="#be5841" d="M345.02 67.21q-.12.62-.45.67" vector-effect="non-scaling-stroke"/><path stroke="#f9c706" stroke-opacity=".996" d="M332.3 91.27q-.63.16-1.12 1.46M326.15 76.21q-.22-2.17 1.59-2.23" vector-effect="non-scaling-stroke"/><path stroke="#bd6f42" d="M363.12 69.34q-.59.73-.58 1.13" vector-effect="non-scaling-stroke"/><path stroke="#f9c706" stroke-opacity=".996" d="m323.07 85.4-1.13.32" vector-effect="non-scaling-stroke"/><path stroke="#d58427" d="M301.44 96.24q-.42-.59-.35-1.95" vector-effect="non-scaling-stroke"/><path stroke="#bd6f42" d="m310.96 78.91.75.58M312.77 77.89q-.46-.16-.76-.48M312.87 76.1q.52.18.75.51" vector-effect="non-scaling-stroke"/><path stroke="#d58427" d="M314.92 74.59q-.45-.2-1.16-.2" vector-effect="non-scaling-stroke"/><path stroke="#9b1662" d="M313.95 75.67q-.61.05-.67-.33" vector-effect="non-scaling-stroke"/><path stroke="#be5841" d="m219.02 87.57.1.62M218.7 92.41q-.5-.11-.83-.46M217.9 89.04q-.09-.69.09-1.17M214.18 87.36q-1.29.31-1.66-.21M68.53 94.14q.64.28-.8.32" vector-effect="non-scaling-stroke"/><path stroke="#d66c26" d="M301.46 112.69q-.43.68-.53 1.55-.04.34.29.46.16.06.3 0" vector-effect="non-scaling-stroke"/><path stroke="#d58427" d="m301.44 115.64-1.44-1.13" vector-effect="non-scaling-stroke"/><path stroke="#9b1662" d="M300 114.51q.33-.93.04-.94" vector-effect="non-scaling-stroke"/><path stroke="#bd6f42" d="M377.73 99.09q-.32-.25-1-.21M299.85 114.32q.02.08.15.19M301.63 117.58l-1.56-1.19M246.45 144.21q-.43-.28-.38-.94M264.75 108.78q-.63-.75-.22-.92M353.78 106.12q-.28.76-.98.84" vector-effect="non-scaling-stroke"/><path stroke="#be5841" d="m190.32 104.79-.66-.58M190.6 95.25q.38-.04.46-.37.04-.15-.04-.25-.08-.12-.25-.13M78.38 109.41l-.77.53" vector-effect="non-scaling-stroke"/><path stroke="#bd6f42" d="M380.71 108.43q.18 1.29.88 2.07M380.55 112.03q-.44.03-.63-1.38M358.51 103.22q-.61.01-.62-.73M355.67 106.09q-1.38.59-1.33 1.21" vector-effect="non-scaling-stroke"/><path stroke="#be5841" d="M345.23 115.81q-.5-.2-.91-.88" vector-effect="non-scaling-stroke"/><path stroke="#bd6f42" d="M373.67 122.87q-.19.48-.81.51M357.58 130.48q-.62.55-1.52.85" vector-effect="non-scaling-stroke"/><path stroke="#be5841" d="m339.07 139.22-.74-1.02M359.19 128.52q-.54.14.17-.97M324.67 134.99q-1-.15-1.59.26M322.98 135.94q.51.04.86.36M344.02 153.24q-.18.39-.07.81M344.52 156.66l-.62.66" vector-effect="non-scaling-stroke"/><path stroke="#d66c26" d="M342.4 153.88q-.18-.69-.07-.98M323.31 137.32q-.19-.35-1.06-.22" vector-effect="non-scaling-stroke"/><path stroke="#be5841" d="M291.08 149.85q-.49.03-.99-.14M300.07 133.99q.93.01 1.62-.79M336.57 127.68q1.15.38 1.66-.71M342.38 120.48q.45-.91.26-2.24M301.68 124.94q-.37.84.05 1.31M299.9 127.2l.04-1.34" vector-effect="non-scaling-stroke"/><path stroke="#bd6f42" d="M198.44 128.23q-.3-.1-.81-.03M378.48 135.85q-.9-.23-.96-.93" vector-effect="non-scaling-stroke"/><path stroke="#be5841" d="M280.92 147.19q-.99.36-1.35-.05M252.87 151.1l.93.3" vector-effect="non-scaling-stroke"/><path stroke="#bd6f42" d="M253.17 152.38q-.35-.38-1.14.01M246.45 161.09q-.56 1.46.19 1.62" vector-effect="non-scaling-stroke"/><path stroke="#be5841" d="M246.62 181.49q-.48.55-1.48.39M237.81 182.46q-.07-.46-.67-.71" vector-effect="non-scaling-stroke"/><path stroke="#bd6f42" d="m374.77 133.04-.78.63" vector-effect="non-scaling-stroke"/><path stroke="#be5841" d="M365.2 148.23q-.4.63-1.28.6" vector-effect="non-scaling-stroke"/><path stroke="#d66c26" d="M321.14 154.52q-.4.34-.43.92" vector-effect="non-scaling-stroke"/><path stroke="#d58427" d="M299.39 168.99q.31-.97.03-1.5" vector-effect="non-scaling-stroke"/><path stroke="#d66c26" d="M319.3 154.4q.78.16.64-1.08M316.48 150.33q-1.39.01-2.15-.84" vector-effect="non-scaling-stroke"/><path stroke="#be5841" d="M371.46 171.42q-.22-.25-.38-.64-.19-.44-.66-.36-.39.07-.14.72" vector-effect="non-scaling-stroke"/><path stroke="#d66c26" d="M357.79 168.7q.28-.4.44-.32M356.47 166.04q-.46.26-.98-.25M352.49 163.26q-.44-.09-1 .47" vector-effect="non-scaling-stroke"/><path stroke="#be5841" d="M350.39 162.9q1.18.41 1.05-.57M351.96 155.18q-.12-.62.15-.83M297.19 157.49q.03.42.39.85" vector-effect="non-scaling-stroke"/><path stroke="#bd6f42" d="m292.49 160.82-1.79.79M282.54 165.26q-2 .95-2.94.5" vector-effect="non-scaling-stroke"/><path stroke="#9b1662" d="m186.35 148.98-.67-.64M187.58 151.35l.58.69M181.61 175.04l-.04.66M178.26 156.76q-.24-.43-.68-.28" vector-effect="non-scaling-stroke"/><path stroke="#be5841" d="M218.74 168.49q-.53.2-.99-.27M217.83 161.64l-.01-.98M201.63 169.2q-.18-.47-.63-.75" vector-effect="non-scaling-stroke"/><path stroke="#bd6f42" d="M283.43 175.04q-.84.67-1.67.62M273.79 179.04l-.19.44a.27.25-68.1 0 1-.32.15l-.27-.1M272.24 179.9q-1.01 1.05-1.27 2.11" vector-effect="non-scaling-stroke"/><path stroke="#d58427" d="M270.8 182.23q-.76-.29-1.24-.81" vector-effect="non-scaling-stroke"/><path stroke="#9b1662" d="M354.81 165.27q-.53.49.26.83.54.24.42-.31" vector-effect="non-scaling-stroke"/><path stroke="#d58427" d="m357.4 169.04-1.32-1.3" vector-effect="non-scaling-stroke"/><path stroke="#bd6f42" d="M374.78 184.95q.4-.13.86.02" vector-effect="non-scaling-stroke"/><path stroke="#be5841" d="M208.68 184.19q-.38-.55-.71-.67M191.96 184.27q-.46-.67-.47-1.06M191.9 191.05q-.82 1.62-1.56-.57" vector-effect="non-scaling-stroke"/><path stroke="#bd6f42" d="M287.08 173.54q-.16.52.2.8" vector-effect="non-scaling-stroke"/><path stroke="#be5841" d="M273.89 180.94q-.77.21-1.12.54" vector-effect="non-scaling-stroke"/><path stroke="#bd6f42" d="M164.28 195.69q-.41-.48-.93-.41" vector-effect="non-scaling-stroke"/><path stroke="#be5841" d="M268.62 204.25q-.7-.08-.81-.67" vector-effect="non-scaling-stroke"/><path stroke="#d66c26" d="M264.08 183.84q.45.3.2.93M253.29 189.23q.25.98-.14 1.4" vector-effect="non-scaling-stroke"/><path stroke="#be5841" d="M236.2 198.49q-.59.08-1.26-.67M209.72 220.47q-.59.21-1.1.54-.47.32-.41.66.06.35.53.77M191.47 249.29l-.95-.07M189.96 229.49q.31-.97.3-1.97M189.92 226.54q-.71-.69-.94-1.52M187.78 223.3q-.67.05-.69-1.08M190.39 205.58l-.39-.86M197.54 204.18q.51-.07.93.1M198.44 205.7l-.84-.26M197.63 211.51l.8.05" vector-effect="non-scaling-stroke"/><path stroke="#9b1662" d="M260.85 197.76q-.52.1-1.09.54" vector-effect="non-scaling-stroke"/><path stroke="#d58427" d="M259.76 198.3q-.03-.5-.49-.65" vector-effect="non-scaling-stroke"/><path stroke="#bd6f42" d="m361.77 211.23-.65.63M346.21 218.8l-1.6 1.04M347.17 257.26q-.05.48-.31.9M322.83 237.05q-.57-.01-.83.33M286.02 245.04q.03.61.44 1.21M285.67 247.47q-.5-.26-.5-.86M288.44 222.5q.43-.21.57-.83M160.82 201.06q-.43.06-.71-.07M259.76 198.3q-.04.11-.08.23M242.79 206.39q-.54-.32-.36-.86" vector-effect="non-scaling-stroke"/><path stroke="#be5841" d="M293.17 212.14q-.27.44-.11.69M267.8 205.46q-.42-.16-.78-.65M236.26 198.98q-.97-.18-1.13 1.29M237.62 207.77q.43.51.46.86M245.33 219.97l1.01.28M252.89 227.05q.05.1.09.2" vector-effect="non-scaling-stroke"/><path stroke="#9b1662" d="M252.98 227.25q-.71.52-.74 1.04" vector-effect="non-scaling-stroke"/><path stroke="#bd6f42" d="m252.24 228.29-.33.14M246.43 237.06q.19 1.32-1.19 1.46" vector-effect="non-scaling-stroke"/><path stroke="#be5841" d="M238.68 207.31q.06.39.27.79M174.05 229.16q.93-.48.68-.72" vector-effect="non-scaling-stroke"/><path stroke="#bd6f42" d="M188.48 227.75q-.11-1.09-.24-.86M186.68 224.75q.16-.49-.6-.89M175.36 229.39q-.18.64-.49 1.04M172.15 234.66q-.79 1.26-2.1 1.35" vector-effect="non-scaling-stroke"/><path stroke="#be5841" d="M375.37 222.68q-.01.27-.48.78" vector-effect="non-scaling-stroke"/><path stroke="#d66c26" d="M253.95 227.13q-.49-.02-.97.12M258.46 229.12l.23-1.06" vector-effect="non-scaling-stroke"/><path stroke="#bd6f42" d="m186.94 260.52.61.77M190.64 266.31q-.81.54.86 1.93M208.09 297.26q1.02.01 1.56-.53" vector-effect="non-scaling-stroke"/><path stroke="#d58427" d="m252.24 228.29.69-.28q.46-.19.49.3l.03.4" vector-effect="non-scaling-stroke"/><path stroke="#bd6f42" d="M281.62 251.97q.33.24.53.79M258.92 304.18l.17.96M207.98 335.5l.86.34M191.46 344.39q-.43.11-.9-.1M180.58 327.88q.35.05.67-.18M181.26 309.27q-.24-.21-.9-.11M170.08 274.14q-.18-.72-.04-1.07M180.26 288.14q.27.95.96 1.05M186.9 262.59q-.22-.76-.88-.65M218.48 244.76q-.54-.18-.63-.67M143.64 249.72q-.07.35-.77.54M218.62 282.59l-.56-.14" vector-effect="non-scaling-stroke"/><path stroke="#d58427" d="m218.06 282.45-.13-.65" vector-effect="non-scaling-stroke"/><path stroke="#9b1662" d="M218.06 282.45q-.19.12-.37-.2" vector-effect="non-scaling-stroke"/><path stroke="#be5841" d="M191.5 362.44q-.51-.08-.98 0" vector-effect="non-scaling-stroke"/></g><path fill="#faaf05" fill-opacity=".996" d="m99.23 0 2.02.39q.6.12 0 .28-4.01 1.04-5.67-.67z"/><path fill="#82017d" d="m122.18 0 8.48 3.95q.43.2.18-.21L128.57 0h1.4l3.21 5-.71 1.4L120.66.82a.43.43 0 0 0-.62.37l-.1 2.34-.71.19L119 0z"/><path fill="#b32a47" d="M142.49 0q.57 1.99 1.84 3.77l-.02 2.04q.27-.14-.32-.23l-1.65-2.6q.07-1.13-.49-1.2.01-.19-.03-.36-.07-.35-.42-.37l-.34-.01q-.27-.39.1-1.04z"/><path fill="#faaf05" fill-opacity=".996" d="M150.56 0q.16 2.35.06 4.75-.02.27.43.26.51-.3.45-1.02 1.14-2.47 2.77-3.99.34.02.67 0-1.68 2.76-3.35 5.49c-.94 1.53-.95 2.83-.99 4.53q-.04 1.78.93.28L158.16 0h1.76l-8.38 13.3q-.26.42 0 .84l9.21 14.62q-.76.36-1.27 1.03-4.58-7.4-9.43-14.61-.72-1.07-1.79-1.27.83.05.55-1.22.36.76.67 1.02.47.39.53-.22l.14-1.69-.83-3.01-.49-.41q1.3-3.67.74-8.38z"/><path fill="#82017d" d="M165.74 0q.69.35.87.65 1.7 2.88 3.57 5.7.28.42.58.02l3.3-4.41.44.69-2.35 4.03q-.73.98-2.1 1.34L165.23 0z"/><path fill="#f8de06" fill-opacity=".996" d="M175.04 0q.07.7.68 1.05.39 1.48 1.43 2.63a.81.81 0 0 0 .83.24q3.6-1.03 5.34-3.92h.56l.21.39q.27.5.81.32.62-.19 1.11-.71h1.66q.05.1.06.25a.4.39 76.4 0 1-.23.39c-1.96.87-5.29 1.91-5.92 4.12-.86 3.01.15 5.99.16 9.07q.01 3.95.04 8.03-.05.58.12 1.2l-.31 1.03q-1.2.37-1.87 1.21-3.77 6.06-7.59 12.04-.94 1.46-1 2.94-.07 1.55.1 3.22-1.25 1.14.29 2.37l3.04 4.78q.11.45.58.86l1.71 2.83q.16.87 1.14 1.49.59 1.59 2 2.97.2.94 1.01 1.49.62 1.83 1.76 3.15-.01.45.74.88l3.22 5.21q.28 1.43 1 1.52.04.21.16.41l1.03 1.74q.31.7.84 1.06.12.55.41.86.46.5.39-.18l-.21-2.1-.39-1.05q.85-2.33.5-4.83l.12-.57q.11-.51-.38-.7-.76-.29-.54-.91 1-1.75.87-4.14.13.3.78.14-.15.26-.14.43.03.3.28.13.94-.66 1.49-1.88l1.53-.94.82-.17c-2.32 3.51-4.58 5.96-3.61 10.83l.35.87-.53 6.1q-.05.59.52.43 3.19-.86 4.72-3.55.82-1.45.81-4.64-.01-3.23.04-6.42.7-.19.54-1.22-.11-.71-.75-.88l-.22-2.33q.47-1.23.11-1.89-.01-.27-.54.06-1.08 1.16-1.97 1.22l2.34-3.7q.93-.39 1.7.49l.05 1.51q.2.61.13 1.33-.8 7.04-.62 14.45.04 1.63-.75 2.41-1.11 1.09.31.46 4.88-2.16 10.23-4.78l.92 1.24q-6.29 3.17-12.8 5.94-1.55.66-2.79 3.78-.18.46.19.78l5.48 4.64q-.4.32-.56.82l-5.28-4.53q-.95-.82-1.34.37l-.42 1.3q-.81-.12-.85.76c-1.28 2.44-2.3 4.01-4.98 5.19q-2.01.89-3.95 1.8-.23.11-.23.36l-.07 6.19q0 .22.21.13l8.83-4.11q.75.37 1.08-.49l5.8-2.75q.36-.17.54.19l.12.25q.14.29-.15.43l-6.43 3.11q.53-.21-.46-.3-.33-.03-.23.3-.22.12-.25.31l-8.43 3.96a1.01 1.01 0 0 0-.42 1.45l5.25 8.31.63.68q.82 2.15 2.33 3.86.32.35.34-.12l.3-5.99q.64.2.99.18 4.07-6.5 8.21-12.75 1.16-1.75 3.05-2.69 3.6-1.79 7.45-3.66 1.57-.28 1.84.34l-9.94 4.59q-.66.31-1.03.93-3.68 6.09-8.2 12.86c-1.7 2.56-1.1 4.84-1.2 7.61q-.03.76.65.44l15.59-7.29.79.51-16.43 7.86q-.47.22-.47.73l-.04 10.89-.01.88-.38 5.9q-.04.61.52.35l5.01-2.35q.5-.24.52-.78l.06-2.27q.5-.26 1.07.14-.22.95-.13 1.5.09.59.63.34l2.88-1.35q.66-.17 1.28-.8 2.64-.45 3.33-1.54 4.87-7.68 9.76-15.3.17-.27.46-.14l.29.13q.28.13.12.39-4.65 7.42-9.39 14.8c-.65 1-1.49 1.48-2.32 2.26l-6.33 2.75a.95.94-8.8 0 0-.58.79l-.29 3.06-.85-.29.12-2.15q.04-.69-.59-.4l-4.69 2.15q-.69.31-.69 1.07l.08 8.56.34.89q-.78 3.17-.33 6.88l-.05 1.34-.14 18.96q-.55.23-.96-.01-.06-9.13-.04-18.27 0-1.35-1.78-3.27-.1-.29-.48-.58-.38-1.2-1.31-2.21.07-.51-.65-.78l-3.49-5.59q-.28-.45-.56 0l-6.32 9.97q-.3.48-.11 1.01.56 1.57 1.69 2.62.06.16.11.31 0 .29.36.62l2.34 3.67q.19 1.54-.37 1.8l-3.33-4.93q-.19-.43-.55-.75-.34-1.03-1.17-1.86-.38-.38-.65.09l-2.24 3.85q-.82.51-.66 1.07-.03.19-.12.3-.11.14-.11.31l-.01 34.55q0 .75.41.11l8.34-13.07q.3-.47.29-1.03l-.07-5q.77-.4 1.53-.51-.02.06-.04.13l4.94 7.94q.3.49.63.01l3.27-4.87q.21.03.39.14.39.22.17.61-.23.4-.21.82l-2.86 4.46q-.29.45-.01.91l2.38 3.85.11.78q-.29.22-.42.43l-2.74-3.92a.44.44 0 0 0-.73.01l-4.77 7.5q-.3.47-.3 1.03l.02 18.23q-.36.37-1.15.61l-10.37-16.18q.48-1.2-1.15-1.86l-1.93-3.39q-.31-.55-.66-.02l-1.12 1.66q-.52-.11-.9-.47l1.39-2.36q.26-.44-.01-.87-7.14-11.21-14.29-22.42-1.35-2.12-2.9-2.76-1.94-.8-3.77-1.78-.62-.33-.62.38v9.64q-.57.24-1.05.25-.45-.31-.45-.69-.05-5.07-.01-10.03a.58.56-78 0 0-.33-.52l-26.52-12.64q.87-.64-.37-2.33l-.02-16.51q0-.5-.27-.93-4.27-6.77-8.58-13.48-1.15-1.79-2.97-2.68-2.11-1.04-4.17-1.89-.29-.46.65-.84c2.79 1.11 5.63 2.11 7.27 4.7q4.63 7.31 8.72 13.79.37.59.37 1.28l-.02 17.53q0 .56.51.8l14.37 6.67q.56.26.23-.25l-8.47-13.22a4.1 4.08 29 0 1-.63-2.18l.01-17.54a.4.4 0 0 1 .38-.4l.31-.01q.32-.02.32.31v17.67a3.2 3.14 29.1 0 0 .51 1.72q4.03 6.16 8.2 12.9 1.17 1.88 2.9 2.64 3.5 1.52 6.94 3.19.64.31.64-.4l.01-5.56q0-.47.47-.48l.37-.01q.63-.01.63.61l.01 6.55q0 .29.26.41l5.36 2.45a.12.12 0 0 0 .17-.11l-.05-36.03q0-.51-.26-.94l-9.89-16.07q.58.07.93-.01l9.07 14.25q.18.29.18-.06l-.01-15.27q0-1.5-.79-2.78-2.58-4.17-5.26-8.23c-1.55-2.36-1.04-6.57-.84-9.29q.07-.84-.38-.12l-1.97 3.14-.95-.13 2.85-5.07a1.81 1.79 61.5 0 0 .24-.82c.1-2.71.7-7-.79-9.4q-5.49-8.85-11.05-17.66-1.09-1.74-3.15-2.85-2.13-1.15-4.47-1.96-.29-.1-.69-.04l-10.25-5.28.71-.66 8.83 4q.47.21.47-.3l-.02-16.42q1.34-.06.96.27 1.06 5.84 6.32 11.78-.04-.77-.15-.71l-.04-27.17q0-.88-.46-1.63l-9.53-15.53.71-.19 9.65 15.13q.14.23.29 0l3.21-5.07q.18-.3 0-.59l-3.56-5.62a.39.38 62.9 0 1 .18-.57l.28-.11a.36.35 62.4 0 1 .42.14l2.97 4.77q.48.77.98 0l1.69-2.63q.38-.59-.25-.91l-3.33-1.67.71-1.4 3.58 1.74q.48.24.77-.21l3.53-5.49.34.01q.35.02.42.37.04.17.03.36l-3.2 5.19q-.31.5.23.76l2.74 1.28q.66.3.66-.43l.06-5.6 1.65 2.6v3.64q0 .51.35.88 1.04 1.06 2.81 1.14l1.66 1.45q.28 1.27-.55 1.22-2.4-1.7-3.9-.33-.43.38-.42.95c0 2.26-.56 6.47.68 8.36q4.36 6.63 8.5 13.28c1.27 2.04 4.11 2.58 6.14 3.69q.69.37.66-.41-.15-4.22-.01-8.35c.02-.5-.2-.89-.43-1.31q.51-.67 1.27-1.03l5.47 8.96q.32.52.66.01l2.83-4.36a2.05 1.96-29.7 0 0 .32-1.08l.02-24.27q1.37-.36 2.1-1.34L175.53 5q.49-.24.17-.68l-1.2-1.67-.44-.69L172.89 0zm5.29 8.44q.1-.65.03-.89-.28-1.52.2-3.09.29-.92-.51-.38-.66.44-1.42.59-.81.16-.34.85zm-9.25 27.41q0 1.29.69.2l7.89-12.36q.29-.47.3-1.02.04-4.55.08-10.01c.02-2.55-1.76-4.1-2.87-6.17a1.02 1.02 0 0 0-1.31-.45l-4.22 1.89q-.58.26-.58.9zM141.9 13.48a1.3 1.3 0 0 0 .07-2.26l-3.39-2.06a1.3 1.3 0 0 0-1.79.44l-1.87 3.08a1.3 1.3 0 0 0 .01 1.37l.84 1.33a1.3 1.3 0 0 0 1.71.45zm2.6-.92q.45.14-.06-.32-.21-.2-.31.07-.09.23.07.22.15-.01.3.03m-10.56 2.02a.19.19 0 0 0-.31.03l-2.12 3.4q-.48.77.34.37l3.01-1.51q.67-.33.2-.91zm6.42 27.52q-.66-.14-.96-.38.04-8.31.01-16.73-.01-2.21-.79-3.41-1.14-1.73-2.33-3.53-.37-.56-.97-.28l-4.49 2.1a1.06 1.05-12.1 0 0-.61.94l-.04 27.65q-.57.49-.07 1.28l1.86 3.63.51 1.12 6.41 3.48q.49.26.47-.29-.06-1.85.45-3.47.35.36.78.51-.37 1.72-.04 3.54.1.53.59.76l8.43 3.93a.52.51-60.5 0 0 .65-.19q4.3-6.71 8.62-13.53.97-1.52 1.01-3.23.05-1.83-.02-3.56a1.25 1.25 0 0 0-.73-1.09l-5.54-2.57q-.78-.36-1.23-1.08-4.34-6.89-9.26-14.51c-1.31-2.04-.77-5.7-.74-8.08q.01-.6-.54-.35l-4.51 2.09q-.55.26-.18.74 1.33 1.75 2.33 3.5.98 1.72 1 3.91.07 8.54-.07 17.1m21.05-9.44a.3.3 0 0 0-.56.16l.03 7.62a.3.3 0 0 0 .18.27l2.8 1.27a.3.3 0 0 0 .38-.11l1.38-2.12a.3.3 0 0 0 0-.32zm7.94 10.19a.33.33 0 0 0 .62-.17l.09-6.9a.33.33 0 0 0-.61-.18l-2.21 3.42a.33.33 0 0 0-.01.35zm-1.09.74-1.42-2.44a.48.48 0 0 0-.77-.09l-.71.77q-.52.56.17.9l2.42 1.19q.71.35.31-.33m-38.99 13.23c-.17-2.74.47-5.41-1.21-7.85q-2.37-3.42-4.38-6.97a.26.26 0 0 0-.49.13v11.69q0 .36.33.52l5.52 2.63q.25.12.23-.15m32.29-14.3q-.68-.32-.68.43l-.03 3.5q0 .72.39.12l1.7-2.62a.62.62 0 0 0-.25-.9zm-.62 6.43a.33.33 0 0 0-.05.17l-.12 9.06a.33.33 0 0 0 .61.18l7.52-11.93a.33.33 0 0 0-.14-.47l-4.2-2.12a.33.33 0 0 0-.43.12zm9.01-2.15-8.67 13.5q-.27.42-.28.92l-.1 6.54q-.56.22-1.11.02l.08-17.4q0-1.02-.55-.15L150.7 63.8q-.41.15-.77.47l-9.08-4.29a.3.3 0 0 0-.42.27l.01 12.22a3.31 3.24-61.8 0 0 .51 1.76l4.68 7.34q.44.71.89 0l2.98-4.66q.22-.35.57-.12l.22.15q.28.18.1.46l-3.29 5.2a1.23 1.22-45.3 0 0 0 1.33l2.75 4.24q.44.67.86 0 3.34-5.4 6.86-10.9.15-.24.18-.47.09-.57-.14-.5l.7-.51q1.08-1 1.55-2.57 1.17-.65 1.35-1.69l.28-.33q.36.23.69.72-1.18 1.56-1.4 3.01-.63.26-.82.79l-7.78 11.98q-.45.7.31.35l8.99-4.11q.46-.21.22-.66l-1.95-3.48 1.18-.12 2.04 2.86q.31.42.79.2l3.92-1.81q-.62-.13.44 1.22l-3.6 1.88q-.46.24-.18.67l5.54 8.71q.45 1.17.05 2.61l-6.9-10.79a.63.62-28.4 0 0-.79-.23l-10.99 5.11q-.59.27-.6.92-.01 8.01.02 15.83c.01 2.21.95 3.46 1.98 5.23q.85 1.46 3.07 2.41 3.77 1.62 7.76 3.53a.62.61 28.6 0 0 .79-.23l5.38-8.38q.27-.42.28-.92l.1-5.53q.75-.25 1.16.06l.14 8.81q.01.55.31.09l5.37-8.25 1.13.36q-3 5.01-6.27 9.87-1.3 1.94-.51 5.17.13.53.43.07l8.32-13.11q.29-.45.26-.98l-.23-3.78-.22-1.96.1-6.59q0-.57-.55-.45-.61.13-1.31.73.06-.56-.09-1.05l1.52-.94q.47-.29.48-.84c.03-1.54.26-3.08-.6-4.46q-1.11-1.8-2.34-3.65a.63.63 0 0 0-.78-.22l-5.18 2.3q-.39-.07-.63-.43-.34-.51-.04-.89.96-.92 1.46-2.03.26-.57-.32-.33l-1.83.76q-.15.02-.27 0-.3-.05-.32-.36-.02-.22.1-.43l3.93-1.91a1.26 1.25-32.4 0 0 .43-1.91l-1.44-1.78q-.03-.28-.44-.72l-1.43-2.75q-.15-.29.14-.43l.24-.13q.28-.14.43.14.57 1.06 1.4 1.75.13.28.69.66.03 1.5 1.13 2.57a.48.47-51.4 0 0 .73-.09l6.16-9.55q.13-.2.33-.07l.45.3q.07.05.03.11l-6.43 10.28q-.5.8.35.4l7.7-3.59a2.7 2.7 0 0 0 1.14-3.9l-6.67-10.49q-.19-.04-.46-.54l-.59-1.05-2.81-4.56q-.17-.38-.88-.77-.53-2.04-2.3-4-.31-1.43-1.2-1.61m-39.59 8.74q-.87 1.75.22 2.5l8.5 13.27q.35.54.35-.1L139.41 60q0-.52-.46-.78l-6.93-3.78q.03-.51-.15-.9-.12-.24-.35-.32-.27-.1-.53 0-.03-.94-.35-1.25-.33-.32-.45.12-.3 1.19.17 2.45m55.65 17.5q-.46 1.95 1.78 2.39-.01.17.22.32l1.07 1.49q1.08 1.04.64 1.5l-2.06-1.57a.87.86 50.9 0 0-.89-.1l-3.67 1.69.09-.8.71-.74q2.95-1.23 1.77-2.1l-1.44-.46-7.67 3.45q-.61.27-.26.84l.51.83q.35.56.93.27l3.82-1.84q.26.58-.69 1.54l-2.49 1.22q-.6.29-.25.86l1.73 2.77q.54.86.42-.15-.26-2.28.39-3.94.46.22.65.54l.24 8.48q.02.8.72.4 1.73-1 3.57-1.69c2.28-.86 3.71-3.98 4.72-6.17q1.04-.38 1.2-1.08.16-.26-.02-.62l.19-.42.06-.22q.96-.47 1.27-1.42.18-.54-.38-.46-.72.11-1.09.62-1.51.12-2.29-1.43l-.57-.61q-.15-.42-.44-.71.13-.25-.27-.6-.52-1.13-1.56-2.1.1-.46-.2-.58-.22-.09-.42.07-.25.2-.04.53m-13.52 9.53 3.21-1.63q.75-.38.19-1.01l-.66-.73q-.57-.63-1.03.08l-1.96 3.01q-.39.6.25.28m-28.85-1.37-.04 4.06q0 .51.39.18 2.19-1.83-.12-4.12.07-.39-.13-.49-.3-.14-.22.18.02.1.12.19m5.58 25.33q.43.68.42-.12-.07-6.95.06-13.88.04-1.95-1.09-3.85-1.02-1.73-2.26-3.53a.51.51 0 0 0-.79-.06c-2.76 3.01-1.95 8.24-1.92 12.08q0 .57.31 1.06zm22.14 15.22q-.6.47-1.33.51-1.58-.96-3.26-1.31-.49-.1-.93.14c-1.59.84-3.48 1.28-4.44 3.11-.9 1.7-.55 3.99-.47 5.85q-.69.03-.89-1.15-.38-2.51.09-4.69.13-.55-.37-.27l-2.47 1.39q-.48.37-.81.37l-5.35 2.3q-.46.2-.47.71l-.04 34.46q0 .54.28.09l9.1-14.33q.93-.26 1.17-1.42.84-.66.2-1.28-.54-.71-.05-1.75.28.6.61.9.4.38.7-.09l7.41-11.57q.53-.03.85.54l-7.66 12.01a1.12 1.11 45.4 0 0 0 1.21l7.19 11.3a.19.18-44.4 0 0 .31 0l3.14-4.9q.18-.29 0-.57l-3.68-5.81q-.32-.5.24-.69l.29-.09a.62.62 0 0 1 .73.26l3 4.78q.39.6.77 0l6.45-10.17q.26-.42.02-.85l-1.48-2.65q.92-.14.66-.8-.43-1.14-.65-1.77l.12-16.69 1.06.02-.03 16.07q.09.96.33.96-.9.05.2 3.08a.71.71 0 0 0 1.26.15l1.9-2.85q.19-.03.72-.14.35-.08.46.37l-2.44 3.8q-.3.45-.01.91l3.22 5.1q.19.6.68.94.32 1.2 1.15 1.97l.63 1.02q.31.87.98 1.41.37.3.31-.17l-.36-2.74-.47-.94q.8-2.29.46-4.99l-.39-1.04q.68-2.17.51-4.64-.03-.47-.5-.5l-2.97-.18q.1-.42.06-.8 1.79.49 2.87-.22a.94.94 0 0 0 .43-.77l.14-4.45q.56.13.37-.86l-4.06 5.99-1.04-.22 4.16-6.65q.27-.42.28-.92.07-4.68.02-9.34-.03-2.31-1.02-4.06-1.03-1.81-2.39-3.59.06-.46-.88-.61.18-.58-.01-.89-2.2-3.54-4.2-6.71-.84-1.33-.54.22c.34 1.67.09 3.51-.93 5.07q-4.58 7.01-8.94 14.12m-20.09-5.9q-.67.15-.5.75l-.02 9.84q0 .58.52.34l4.55-2.17.82-.48q4.6-1.03 6.44-4.29a.73.72-63.4 0 0-.33-1.01q-4.09-1.89-8.49-3.97c-1.58-.74-2.35-1.98-3.02-3.49q-.37-.83-.54.07-.44 2.46.57 4.41m18.08-4.16-4.13 6.55q-.32.5.24.72l.85.34q.64.25 1.02-.33c1.48-2.28 3.27-3.9 2.49-7.2q-.14-.6-.47-.08m-.65 7.01q-1.25 1.06.24 2.11a.66.65-72.5 0 0 1.03-.54l-.02-2.56q-.01-.79-.54-.21-.48.53-.71 1.2m-3.88 1.97q.31-.19.13-.5-.15-.25-.42-.34-.38-.12-.5.25l-.2.64q-.22.69.4.31zm-13.87 45.21a.32.32 0 0 0 0 .34l15.19 23.86a.32.32 0 0 0 .54 0l3.32-5.21a.3.3 0 0 0 .05-.17l.01-24.54a.3.3 0 0 0-.05-.17l-7.39-11.69a.32.32 0 0 0-.54 0zm30.31 12.39q.71 3.03-.53 4.95-4.48 7.02-8.9 13.94a1.4 1.4 0 0 0 0 1.52l8.03 12.6q.43.67.42-.13v-15.2q0-1.14.61-2.11l4.87-7.61q.42-.65 0-1.32l-4.28-6.76q-.11-.42-.38-.4a.22.22 0 0 0-.2.25q.05.27.36.27m-11.83 16.99a.33.33 0 0 0 .61-.17l.04-7.37a.33.33 0 0 0-.61-.18l-2.32 3.68a.33.33 0 0 0-.01.34z"/><path fill="#82017d" d="M175.73 0q.5.38-.01 1.05-.61-.35-.68-1.05z"/><path fill="#faaf05" fill-opacity=".996" d="M191.2 0q.15.24.53.46.01 1.49-1.43 1.74L188.92 0z"/><path fill="#b32a47" d="m196.2 0-4.02 5.81a1.7 1.69-27.2 0 0-.3.93v9.91a.32.31-12.7 0 0 .45.28l5.18-2.45a.3.29 63.9 0 1 .39.14l.16.32q.14.29-.15.43L192.39 18q-.43.21-.45.68l-.13 2.04q-.87-.16-1.64-.01l-.01-1.65q-.49-.68-.06-1.08l.2-15.78q1.44-.25 1.43-1.74.83.49 1.54-.46zm-3.19 1.63q-1.55.67-1.46 2.6.02.49.33.11.89-1.08 1.56-2.22.54-.91-.43-.49"/><path fill="#faaf05" fill-opacity=".996" d="m203.02 0 1.95 2.57q.31.4.78.19L211.89 0h1.61q.12.08.18.18a.21.2-28.8 0 1-.09.29l-7.76 3.49q-.29.13-.29.46l-.02 9.59a.18.18 0 0 0 .26.16l6.5-3.37 1.08-.23 4-1.84q.46-.21.55-.71.15-.8-.08-1.83l.05-1.15.06-5.04h1l.11 4.47q.45.7.01.88l-.28 11.09-.96-.48v-5.67q0-.61-.55-.32l-5.43 2.94-1.28.29-4.43 2.04q-.49.22-.49.77l-.01 4.98-.34 1.65-.88.06.12-6.15q.01-.52-.5-.4-2.15.5-2.92 1.71-2.43 3.89-4.95 7.95.27.1.01 1.18h-.37q-.47 0-.72.39-1.1 1.74-2.2 3.51-1.11 1.79-1.17 3.74-.07 2.21.07 4.44-1.41 1.56-.08 1.26l.06 11.15q.22.4 0 .84l-.09 6.49q.43.36.42.9l-.79 1.07q-.65.16-.78-.14l-4.47-.19q-.49-.53-1.04-.42l-3.65-.27q-.25-.41-.18-.75.06-.3.18-.32l4.38.56q.54.29.97.12 1.88.68 3.18.12.47-.21.47-.73l-.01-5.18-.58-.64q.46-.77.48-1.45.08-3.31-.01-10.99 0-.73-.53-1.8l.64-.75.23-8.48q.01-.46-.3-.12-1.74 1.9-2.74 4.32-.67.26-.69.76l-5.31 8.34q-.26.4-.72.56-.46.15-.81.67-1.56 2.3-2.06 3.75l-.98 1.05-1.83 2.71q-.47-.41-.58-.86l9.62-14.92q.73-1.09 2.06-1.98.42-.28.5-.77.12-.73.01-1.09l1.99-3.36q1.04-.74 1.77-1.93.16-.26-.09-.44-.1-.07-.22-.11l-.02-.25-.01-5.09q.77-.15 1.64.01l.1 3.81q.01.58.59.68l1.73.3q.79.13 1.22-.54l5.03-7.9q.31-.48.83-.73l2.64-1.26a1 1 0 0 0 .58-.91V4.61q0-.68-.35-1.26L202.16 0zm-11.01 26.66a.33.33 0 0 0-.37.31l-.15 3.47q-.04.83.41.13l1.92-3.03q.39-.62-.34-.71z"/><path fill="#82017d" d="m230.51 0-11.45 5.35q.44-.18-.01-.88L228.32 0z"/><path fill="#f8de06" fill-opacity=".996" d="m246.3 0 .09 8.36q.01.54.3.08l5.3-8.44h1.44q.68.39 1.2 0h3.74l1.13.34q-.29.31-.01.61l-5.25-.3a1.82 1.8 17.3 0 0-1.62.84l-6.12 9.73q-.46.22-1.23-.2L245.35 0zM273.21 0l-8.97 14.15q-.31.48.11.87 4.35 4.03 8.99 7a.74.73-57.4 0 0 1.02-.23q2.14-3.35 4.16-6.46.97-1.47.96-4.03-.02-5.68-.01-11.3h1.5l.07 10.26q.02 1.75.95.28L288.67 0h.2q.45.34.24.7-3.23 5.55-7.11 11.32-.68.89-1.43 1.15-1.73.59.08.85.82.12 2.58-.67 2.37.92 4.26.4 1.51.02 1.27-1.96.42-.03.53-.53l.76-.87q.69-1.17 1.86-1.12-1.26 2.87-2.97 4.54a.1.1 0 0 0 .05.17q4.59 1.18 5.83 1.02.07-.01.11-.08l5.19-8.03a.48.47 32.3 0 1 .65-.14l.27.18q.11.07.04.19l-4.73 7.45q-.28.44.23.52l2.18.33.08 1.61-3.32-.21q-.51-.03-.78.39l-3.04 4.65q-.32-.37-.8-.52l3.12-5.02a.09.09 0 0 0-.07-.13q-2.93-.3-5.86-.34-.21 0-.32.17l-4.09 6.24q-.32-.06-.55-.02.01-.73-.39-.99l.64-.95q.57.03.35-.54.47-1.08.52-.63 1.8-1.03 2.05-3.17.12-.28-.13-.55-.23-.25-.57-.28-2.11-.22-4.1-.24-.59-.01-.6.58l-.07 7.79q-.54.48-.98.54v-6.85q0-.93-.5-.15l-3.48 5.4q-.38.58.24.89l2.89 1.42q-.54.65-1.26.87-.87-.93-1.68-1.03-.66-.08-.22.41.51.57 1.47.98-.75.41-1.6.49-.44-.37-.63-1.01-.16-.51-.61-.23-.49.29-.76 1.23-.55.2-.88.69-.78.79-.14.81-.16.99.12 1.77l-1.12.79q-.4.07-.65.28l-.62.34-4.76 7.38a.41.41 0 0 0 .33.63q2.88.12 5.8.67.4.08.63-.06.34-.19.43-.56.69.08 1.01-.15l2.56-1.16q.27.28.37.94l-3.04 1.63q-.74.48-.81.23l-11.02 5.05q-.85.4-.13.99l5.45 4.48q.56.46.95-.16l4.73-7.48q.26.07.82.5l-4.78 7.69a.89.88 35.9 0 0 .19 1.16l6.03 4.91q-.76.64-1.68.7l-5.21-4.45a.56.56 0 0 0-.84.13c-1.61 2.56-3.4 6.51-6.37 7.42q-1.71.52.06.78l6.36.96q.3.05.3.35l-.01.4q0 .23-.23.2l-9.1-1.18q-.53-.07-1.01.16l-10.51 4.86q-.54.26-.55.86l-.03 4.82q0 .5.49.59l5.2.96a.98.97 21.3 0 0 1-.43l2.39-3.75a1.73 1.71-85.9 0 1 .72-.63l16.68-7.81q.52-.24.54.33l.02.31q0 .11-.09.16-8.05 3.88-15.69 7.32c-1.84.83-2.1 2.36-3.32 3.75q-.46.52.22.68l3.57.86a1.25 1.24 39.1 0 0 .81-.08l16.62-7.8a.38.38 0 0 1 .49.15l.13.24q.45.75-.35 1.12-7.24 3.33-14.92 6.97c-2.25 1.06-5.06.4-7.45.3q-.57-.02-.87.46-2.39 3.81-4.98 7.81-.91 1.4-.93 3.7-.08 8.38.01 16.68.05.68-1.55.44V95.62q0-.7-.37-.11l-8.27 13.11q-.29.46-.29 1l.06 10.29q-.45.61-.38 1.15.08.63.66.38.41-.18.65-.79l15.09-7a2.28 2.27 36.1 0 1 1.28-.2l18.11 2.41a.27.26-81.9 0 1 .23.31l-.06.35q-.06.34-.4.29l-17.66-2.29a2.73 2.7 36 0 0-1.49.23l-15.54 7.24a1.01.99-13.6 0 0-.58.93l.15 5.06-.88.31-.32-3.69q-.04-.48-.3-.07l-8.39 13.14a.34.34 0 0 0 .07.44l13.8 11.6-.06.94-14.33-11.79a.9.88-37.8 0 0-.94-.11l-17.06 8q-.03-.58-.48-1.05l.64-.4q.89-.14 1.75-.63l14.47-6.76q.45-.22.73-.64l10.12-15.78q.24-.06 0-.71l-.04-9.32q-.01-.73-.4-.12l-6.53 10.24a4.7 4.66 3.4 0 1-1.97 1.73l-6.66 3.11q-.49.22-.53.76l-.25 3.13-.9-.35q.26-1.15.05-2.2-.09-.49-.56-.29l-7.46 3.29q.08-.83-.11-.91l7.76-3.66q.42-.2.42-.67l.05-14.26q0-.29.29-.28h.36q.3 0 .3.3l-.01 14a.25.25 0 0 0 .36.23l6.77-3.22a2.91 2.86-86.2 0 0 1.21-1.08q8.22-13.21 16.75-26.27 1.07-1.63 1.12-3.37.26-7.77.25-15.28-.01-.57-.56-.68l-5.5-1.05.88-1.24 4.47.76q.74.13.72-.62-.05-1.78.02-3.64.07-1.64-1.25-3.71-2.92-4.59-5.92-9.31.46-.46.91-.35l6.65 10.4q.28.43.74.22l9-4.14q.68-.32-.06-.43l-6.79-1.02q.02-.72.43-.91 3.44.58 7.07 1.01c2.02.24 3.18-.47 4.92-1.24 2.38-1.06 4.17-4.78 5.52-7.03q.26-.44-.12-.77l-6.78-5.82-.21-1.49 2.79-4.56a.42.42 0 0 0-.3-.63l-8.95-1.29q-.67-.25-.22-1.68l10.29 1.27q.51.06.78-.37l4.04-6.27q.32.08.53-.25a.33.33 0 0 0-.33-.5q-.29.04-.42.47-2.22 1.57-4.47 1.27-8.26-1.1-16.56-2.2a.84.83-69.4 0 0-.81.37l-8.49 13.4-1.44.93-.9.79.07-5.77a.36.36 0 0 0-.52-.33l-2.24 1.09q-.63-.22-.09-.99l2.27-1.25q.46-.25.48-.77l.17-3.22q.21-.43.56-.59.24-.11.45.13l.05 3.18q0 .57.51.31l4.3-2.24q.28-.02.52-.27.48-.41.39-1.05 1.07-.33 1.01-1.69l.16-.3 3.06-2.73.44-.05q8.01 1.1 16.05 2.15 2 .26 3.18-.28 1.32-.62 2.72-1.23.76-.33.11-.85-1.37-1.1-2.68-2.38-1.12-1.09-3.37-1.39-6.31-.84-12.61-1.62-1.05.12-1.92-.1-.75-.62-1.43-.23-.86-.54-.15-1.59l14.38-6.76q.36-.78.93-.43L271.67 0zm-10.54 15.42-.79.86q-.56-.14-.84-.01-4.44 2.04-8.82 4.25-.62.31-1.08.76-.87.03-1.61.37-1.06.34-1.39 1.03t.31.28l.72-.45 1.17.18q6.45 1.13 12.91 1.84c2.3.25 3.96 1.98 5.83 3.82q.67.66 1.19-.14l2.44-3.8q.51-.79-.27-1.31-3.95-2.6-8.86-4.54a.99.93-9.7 0 1-.36-.24l-.56-.57.57-.51 3.82 1.86q.63.3.17-.22-1.83-2.04-4.55-3.46m-22.33 22.24q.46-.72-.31-.35l-3.24 1.56q-.61.3-.62.98l-.04 3.43q-.01.97.52.15zm23.86 2.8c-.18 1.07-1.54 2.41-2.17 3.3q-.55.78.32.39l6.36-2.85q1.15-.51-.11-.56-1.84-.06-3.54-.76-.73-.29-.86.48m-17.86 43.9a.3.3 0 0 0 .55.16l4.81-7.78a.3.3 0 0 0-.23-.46l-4.74-.49a.3.3 0 0 0-.33.3z"/><path fill="#f8de06" fill-opacity=".996" d="m290.98 0 .01 8.13-.31.51q-.18.3-.49.13-.11-.06-.2-.2l-.1-8.57z"/><path fill="#b32a47" d="m311.13 0-19.22 9.27q-1.17-.05-1.86 1.12l-6.82 2.96q-1.76.79-2.58.67-1.81-.26-.08-.85.75-.26 1.43-1.15l7.99-3.45q.09.14.2.2.31.17.49-.13l.31-.51L308.15 0z"/><path fill="#faaf05" fill-opacity=".996" d="M318.65 0q.3.45.69.75.43.33.87.01.38-.28.67-.76h1.38q-.16.97-.79 1.85-.32.45.12.78 1.32 1 2.59 2.18c1.61 1.51 5.33 1.48 7.53 1.8q.51.07.8-.36L335.97 1q.24-.45.28-1h1.96q.03.1.07.21-.12.73-.46 1.29l-3.34 4.93q-.31.47.25.54l5.81.82q.21.03.16.24l-.14.48q-.05.21-.27.18l-6.33-.77a.9.9 0 0 0-.82.35q-.49.68-.65 1.56-.15.03-.2.17-.24.27-.28.59-.23.08-.49.31l-1.62 2.8q-.62.14-1.27.85l.03 16.78q0 .81.42.12c.84-1.39 1.38-2.69 2.95-3.46q3.81-1.88 7.94-3.81.63.26.77.76l-8.53 4.05a1.67 1.65 3.1 0 0-.71.63l-8.59 13.71q-.85.15-1.39-.22l5.53-8.75a4 4 0 0 0 .62-2.14l.02-16.76q0-.62-.56-.35-5.64 2.67-12.16 5.69c-.93.43-1.41 1.24-2.35 1.7q-8.8 4.26-16.47 7.53-.47.21-.08.54l13.15 11.02q.45.62-.53.89l-13.6-11.41q-.38-.32-.89-.29-1.71.1-3.23 1.48-.58-.15-.97.26l-3.03 1.44q-.52.25-.22.73l3.2 5.09q.04.07.07.13.25 1.01-.36 1.51l-4.09-6.28q-.28-.43-.76-.22l-8.02 3.67q-.1-.66-.37-.94l.95-.48q.48-.25.07-.6l-3.23-2.77.03-1.15 4.38 3.45q.44.34.94.11l4.73-2.21q.55-.25.22-.76l-2.9-4.57q-.32-.51-.9-.72-3.87-1.38-6.86 1.27-.62-.1-.98.32-.03-.02-.06-.05-.28-.78-.12-1.77.8-.65 2.07-.7.93-.05.95-.79.85-.08 1.6-.49.49.12.43-.36.72-.22 1.26-.87.19.08.36.08a.43.43 0 0 0 .43-.37l.06-.42q.44-.06.98-.54-.15.18.2.38.44.11.5-.4.17-.11.27-.24 1.08.11 1.33-.76.23-.04.55.02.51.36 1.28-.05 1.24-.65 2.47-.96.2.77.05 1.3l-4.94 2.31q-3.27 1.52.27 2.22 3.1.61 7.22.91.44-.19.99.03 1.39.6 3 .48.52-.04.8-.47l2.68-4.18q.23-.75.66-1.25l4.22-6.52q.28-.43-.2-.26l-3.34 1.21-.08-1.61 5.4-2.24q1.15.94.82 1.25l-5.49 8.48-.56.97-2.63 4.03q-.38.58.25.28l7.08-3.28q.98-.18 2.41-1.16 10.46-4.66 20.92-9.7c1.43-.68 1.98-1.63 2.58-3.01q.23-.54-.35-.63-.88-.14-1.38-.69-2.19-2.49-5.01-3.45-.05.03-.09.06l-.29-.87q-.49-.98-1.5-1.73-.42-.31-.71.11l-2.22 3.15q-1.07.66-2.06.68l2.89-4.74q.27-.45-.1-.82L316.58 0zm8.81 7.05q-.91-.1-.19.45l2.46 1.88q.5.38.86-.13l.9-1.23q.36-.48-.24-.55zm-48.05 19.42q-.04.02-.07.04-.14.13.06.22.25.11.5 0a.29.29 0 0 0 .08-.48q-.3-.27-.45.11-.03.07-.12.11m10.74 4.62q-.09-.43.09-.29.58.14.93-.08.98-.28 1.72-.88.44-.35-.1-.5-.86-.23-1.66.11-.41-.19-.91-.11-.07-.1-.14-.19l-7.09-1.02a.28.28 0 0 0-.28.43l2.64 4.17q.32.5.86.25z"/><path fill="#82017d" d="M336.25 0q-.04.55-.28 1-3.52.02-7.02-.33-.14-.01-.14-.16.01-.15.15-.15Q330 .31 331.01 0z"/><path fill="#f8de06" fill-opacity=".996" d="M355.64 0q.55.43.75 0h3l-3.26 1.97q-.71.07-1.12.59-.82-.03-1.3.38-.4.35-.23.86l1.17 3.58q-.09 1.29 1.46.51l8.55-3.83a.73.73 0 0 1 .94.32l.11.23a.42.42 0 0 1-.19.58l-8.74 4.29q-1.18.38-.93 1.5.33 2.22 1.46 4.28-.2 1.2.51 1.86-.02 1.01.29 1.53.28.47.78.24l1.82-.86q.52.07 1.06-.06l.6.42-3.2 1.73q-.57.3-.08.71l6.14 5.12a.99.99 0 0 0 1.04.13l11.64-5.44a.3.3 0 0 0-.06-.56l-.39-.08q-.11-.44.09-.93 1.97.31 3.93.68.04.01.08.05.14.17.03.46a.35.35 0 0 1-.34.22c-1.65-.05-2.57.96-3.98 1.6q-5.24 2.4-10.17 4.71-.6.28-.09.7l1.9 1.56a1.09 1.08 51.9 0 0 1.12.14L382 23.62v1.12l-11.12 5.28q-.49.24-.08.59l2.27 1.93-.28 1.18-2.89-2.01a2.68 2.67 36 0 0-3.66.57q-1.7 2.22-3.44 5.08-.33.54.29.68 4.5.95 8.68 1.17c2.16.11 4.05 1.45 6.24.31q.2.67 1.32.81-1.54 1.25 2.67 3.87v1.75l-5.87-4.36q-1.76-.74-2.19-.33c-4.19-.64-8.57-1.83-12.8-1.49q-.56.04-.13.41l4.1 3.47q.46.4.81-.1.51-.71 1.14-1.56.03-.05.09-.02l.53.25q.23.11.1.34l-.96 1.59q-.29.48.05.92.68.88 1.91 1.28.14.42.85.96c1.66 1.64 3.57 2.98 5.24 4.59q.86.82 2.15.16 2.45-1.27 4.98-2.38v1.05l-4.76 2.35q-.46.22-.07.56l4.83 4.27V59l-5.74-4.77a1.17 1.17 0 0 0-1.24-.16q-2.78 1.29-5.76 2.62-.33.15-1.05.01-.96-.76-.37-.63l6.47-2.84q.48-.21.07-.55l-5.45-4.46-1.19-.61q-.29-1.18-1.5-1.55-.53-.16-.83.3l-3.35 5.26q-.27.41.02.81.44.59 1.51 1.31-.09-.43-.72.77l-1.03-.97q-.38-.36-.82-.07-.61.41-.83 1.28-1.15.61-1.5-.09.9-.85 1.37-1.94.21-.47-.19-.8l-3.91-3.23q.02-2.15.96-3.96l2.46-4.09q.28-.46-.13-.82-.4-.36-1-.36-.39-.84-1.14-1.06l-11.96-9.96q-.39-.32-.67.1l-7.18 11.02q-.67.36-1.68.44l7.69-12.31q.26-.42-.06-.79l-.49-.6.71-1.07 1.13.39q1.01.19 2.13-.5l.24.22q.17.58 1.21.73 7.15 1.06 14.04 1.77.88.09 1.53-.62.38-.42-.05-.78l-6.16-5.29q-.36-.31-.79-.12l-9.78 4.31q-.15-.53-.04-.79v-.19l9.62-4.39q.48-.22.32-.72l-1.4-4.23q.11-1.18-.48-1.85.01-.65-.58-.93.08-.46-.41-.77.11-.2.12-.35.02-.43-.37-.27l-5.54 2.21q-.54-.78-.17-1.28 1-.23 2.09-1.13.44.1 1.04-.44 1.26-.2 2.15-.87.41-.32.25-.81l-1.8-5.34.45-1.03q2.23-.7 3.29-2.16zm10.23 28.19q-.6-.54-1.33-.2c-1.24.57-2.41 1.01-3.82.82q-7.08-.97-13.89-1.88-1.62-.21-.37.84l11.42 9.58a2.8 2.79 36.9 0 0 4.11-.58c1.33-1.98 2.81-5.5 5.26-6.28q.87-.28.19-.89zm-.94 17.01a.4.4 0 0 0-.08-.52l-4.04-3.33a.4.4 0 0 0-.59.09l-3.74 5.9a.4.4 0 0 0 .08.52l4.04 3.32a.4.4 0 0 0 .59-.09z"/><path fill="#82017d" d="M356.39 0q-.2.43-.75 0z"/><path fill="#b32a47" d="M259.49.95q-.28-.3.01-.61.34-.25.77-.15a.3.3 0 0 1 .12.53q-.34.28-.9.23"/><path fill="#82017d" d="m352.22 2.16-.45 1.03-7.27-.83q-.77-.09-.47.63c.48 1.16.22 1.4 1.36 2.32q2.96 2.4 5.78 4.9-.6.54-1.04.44c-2.6-2.36-6.46-4.46-7.33-8.07q-.11-.48-.6-.54l-4.38-.54q.34-.56.46-1.29l2.81.37q.53.07.99-.19.68-.38 1.27.19a1.48 1.46-18.7 0 0 .78.38zM261.86 14.73q-.57-.35-.93.43L252.72 2.3q-.23-.36.14-.6l.23-.15q.29-.19.47.1zM356.13 1.97q.22.3.03.49-.44-.05-1.12.56-.08-.29-.03-.46.41-.52 1.12-.59"/><path fill="#b32a47" d="m356.16 2.46-.05 5.43q-1.55.78-1.46-.51.61-2.02.39-4.36.68-.61 1.12-.56"/><path fill="#82017d" d="m148.83 8.38.49.41q-.89 1-.3 2.18.4.79 1.13.83l-.14 1.69q-.06.61-.53.22-.31-.26-.67-1.02l-1.66-1.45q-.56-2.81-2.84-5.43l.02-2.04q1.52 2.45 3.13 4.81.34.5 1.37-.2M151.5 3.99q.06.72-.45 1.02-.05-.77.45-1.02"/><path fill="#f8de06" fill-opacity=".996" d="m212.24 27.75-1.52 1.14q-1.41 3.21-4.42 4.63-.5.23-.5.78l-.02 6.92q-.01.47-.26.86l-6.53 10.08q-.86.12-1.46-.05l.05-10.97q0-.26.26-.28l.28-.02q.41-.03.41.39l-.03 9.14q0 .78.41.13l5.08-8q.3-.47.3-1.02l-.01-6.45q0-.54-.5-.31l-12.08 5.61q-1.33.3.08-1.26l11.84-5.55q.65-.3.65-1.01l.02-3.73q0-.61-.61-.7l-7.51-1.09q.26-1.08-.01-1.18l7.48.98q.5.06.53-.44l.24-3.65.88-.06q.27.07.44-.01l.07 3.84q.01.6.61.64.94.05 1.97.27 2.15.47 3.13-1.19 3.08-5.14 6.31-10.23l.96.48-6.06 9.53q-.38.58.25.29l13.26-6.16q.51-.24.82-.72l9.64-15.14q.11-.16.28-.09l.44.18q.3.13.12.4l-9.62 15.12a3.58 3.55 3.6 0 1-1.51 1.32zm-2.9 1.59a.32.32 0 0 0-.23-.5l-2.99-.29a.32.32 0 0 0-.35.32l-.02 3.15a.32.32 0 0 0 .45.29l1.37-.56a.3.3 0 0 0 .13-.11z"/><path fill="#82017d" d="m217.88 5.04-.05 1.15q-2.74.79-4.47 4.38l-1.08.23q1.72-4.57 5.6-5.76"/><path fill="#b32a47" d="m322.42 5.46.29.87-.7.01-17.03 8.09q.33-.31-.82-1.25l11.77-5.51q.99-.02 2.06-.68 2.31-1.33 4.43-1.53"/><path fill="#82017d" d="M322.71 6.33q.04-.03.09-.06-.37.26-.79.07zM180.33 8.44l.03-.89q.07.24-.03.89"/><path fill="#f8de06" fill-opacity=".996" d="M382 8.13v.93l-7.91 3.52q-.1-.41-.02-.82z"/><path fill="#82017d" d="M356.78 9.48q-.84.61-.93 1.5-.25-1.12.93-1.5M374.07 11.76q-.08.41.02.82l-17.08-2.28q-.25-.03-.22-.28l.03-.29q.03-.26.29-.22zM332.49 9.83q.24-.01.45.07-.07.27-.65.1.05-.14.2-.17"/><path fill="#b32a47" d="M332.29 10q.58.17.65-.1l15.1 1.88q-.37.5.17 1.28l-15.72-2.17q-.15-.27-.48-.3.04-.32.28-.59"/><path fill="#82017d" d="M332.01 10.59q.33.03.48.3-.42.14-.97.01.26-.23.49-.31"/><path fill="#b32a47" d="m246.5 11.22.05 10.7q-.71 1.05.15 1.59-.16.36-.08.76-.18 1.27.1 2.27.46.18.61-.1.18-.33-.13-.6.86-1.11.93-2.1.87.22 1.92.1l-.37.1q-.34.09-.52.39l-2.53 4.5q-.43.29-.42.66l-3.06 2.73q2.6-3.38 2.03-7.91-.06-.54-.54-.27L240 26.73q-.32-.12-.52-.35l.3-1.4q2.37-2.86 4.3-6.23.95-1.65 1.02-3.75.07-1.98.17-3.98.77.42 1.23.2m-1.7 8.2-2.39 3.54q-1.06.29-1.41 1.19-.23.62.33.28.32-.18.61-.52l2.58-1.31q.47-.24.5-.77l.14-2.63q.12-.31.06-.48a.24.24 0 0 0-.42-.03q-.24.41 0 .73M289.29 11.26q-.11.5-.53.53.17-.4.53-.53"/><path fill="#82017d" d="M354.41 12.24q-.3.58.58.93.59.67.48 1.85-.68-.8-1.41-.95-.51-.1-.8.34l-6.33 9.95v.19q-.07.37-.2.57-1.12.69-2.13.5 1.53-1.5 2.46-3.62.68-.53.58-1.28l4.79-7.04q.31-.46.07-.97-.09-.19-.04-.38.09-.43.53-.47.63-.05 1.01-.39.49.31.41.77"/><path fill="#b32a47" d="M288.76 11.79q.24 1.98-1.27 1.96.5-1.24 1.27-1.96M144.2 12.53q-.16.01-.07-.22.1-.27.31-.07.51.46.06.32-.15-.04-.3-.03"/><path fill="#82017d" d="m211.84 12.91-6.11 9.72q-.17.08-.44.01l.34-1.65 4.93-7.79zM329.9 13.7q.07.1.13.2l-1.15.87q.38-.03-.25-.22.65-.71 1.27-.85"/><path fill="#b32a47" d="m330.03 13.9 11.31 9.5q-.02.84 1.2 1.15l.93.68-.71 1.07-2.02-1.36q-.14-.5-.77-.76l-11.09-9.41z"/><path fill="#82017d" d="m112.85 49.43-.71.66-10.05-15.8q-.31-.48-.31-1.04V15.11q0-.36.36-.32l.29.02a.4.4 0 0 1 .37.4v17.91q0 .5.27.93z"/><path fill="#b32a47" d="M377.55 19.07q-.2.49-.09.93l-15.09-1.61-.6-.42q.36.02.52-.09.23-.15-.02-.29-1.39-.78-2.58.09l-1.87-.56q-.71-.66-.51-1.86 1 1.41 2.44 1.53 8.95.78 17.8 2.28"/><path fill="#82017d" d="m262.67 15.42.56 1.82-.57.51q-.56-.54-.78-1.47z"/><path fill="#b32a47" d="M286.3 15.96q-.25 2.14-2.05 3.17.52-1.96 2.05-3.17"/><path fill="#82017d" d="M361.77 17.97q-.54.13-1.06.06l-1.02-.35q1.19-.87 2.58-.09.25.14.02.29-.16.11-.52.09M190.1 17.98q-.43.4.06 1.08l-8.26 4q-.17-.62-.12-1.2zM245.16 19.2q-.13.14-.36.22-.24-.32 0-.73a.24.24 0 0 1 .42.03q.06.17-.06.48"/><path fill="#b32a47" d="M283.73 19.76q.22.57-.35.54-.07-.44.35-.54"/><path fill="#82017d" d="M123.09 36.98q.38-.33-.96-.27l.09-15.59q0-.34.34-.34h.29q.34-.01.33.33z"/><path fill="#faaf05" fill-opacity=".996" d="M347.64 20.72q.1.75-.58 1.28-2.83.93-4.52 2.55-1.22-.31-1.2-1.15z"/><path fill="#82017d" d="m251.14 21.28-.8 1.41-1.17-.18q.64-.68.36-.86.74-.34 1.61-.37"/><path fill="#b32a47" d="M282.74 21.25q.4.26.39.99-.25.87-1.33.76.16-.98.94-1.75"/><path fill="#82017d" d="M290.9 21.34q.48.15.8.52l6.46.74q-.43.5-.66 1.25l-5.79-.8q-.51-.07-.53.45l-.16 4.52q-.55-.22-.99-.03l-.09-4.45q-.01-.56-.56-.66l-1.9-.33q.15-.53-.05-1.3zM306.04 23.75q-1.43.98-2.41 1.16l-4.7-1.03.56-.97zM242.41 22.96l-.47.95q-.29.34-.61.52-.56.34-.33-.28.35-.9 1.41-1.19M281.53 23.24q-.06.51-.5.4.17-.32.5-.4M246.7 23.51l-.08.76q-.08-.4.08-.76M181.59 24.09l5.16 7.8q.11.36-.01 1.09-.08.49-.5.77-1.33.89-2.06 1.98 3.34-2.97-2.89-9.51.11-.58-.69-1.35-.37-.35-.56.13l-.12.29q-.1-.06-.2.01.67-.84 1.87-1.21"/><path fill="#f8de06" fill-opacity=".996" d="M181.29 26.22q.8 2.03 0 4.15l-1.39-.46.02-4.62.12-.29q.19-.48.56-.13.8.77.69 1.35"/><path fill="#faaf05" fill-opacity=".996" d="m239.78 24.98-.3 1.4q-.39.18-.5.39l-9.61 4.51q-1.1-.08-1.02-1.05z"/><path fill="#82017d" d="m190.18 25.8.02.25q-.07.24-.2.4.03-.35.18-.65M247.2 25.84q.31.27.13.6-.15.28-.61.1z"/><path fill="#b32a47" d="m188.74 28.53 1.26-2.08q.13-.16.2-.4.12.04.22.11.25.18.09.44-.73 1.19-1.77 1.93"/><path fill="#82017d" d="M273.71 26.22q.07.22.05.43-.04.47-.5.4-.2-.02-.43-.14.33-.49.88-.69M239.48 26.38q.2.23.52.35-1.73 3.1-3.54 6.04-.31.51-.25 1.51-.21-.24-.45-.13-.35.16-.56.59-1.96 2.6-3.07 4.76-.13.24.15.48-.54.77.09.99l1.8 5.28q-.09.68-.79 1.01l-1.7-5.34a.58.58 0 0 0-1.04-.14l-2.9 4.38q-.3.45-.78.69l-7.09 3.45q-.78-.08-.73-.7 3.24-1.61 6.37-3.12 2.22-1.06 3.1-3.94 1.63-.59 1.1-1.55.59-.49.93-1.3.19-.44.04-.9l-2.27-7.15a.62.6-3.7 0 0-.49-.42l-17.2-2.33 1.52-1.14q.03.4.26.3 7.84 1.08 15.85 2.18-.08.97 1.02 1.05l1.85 5.98q.37 1.18 1.03.14l6.73-10.63q.11-.21.5-.39"/><path fill="#f8de06" fill-opacity=".996" d="M95.52 79.24q-.05.59-.73.7l-9.71-15.25a3.47 3.43 29.1 0 1-.54-1.85l.01-17.31a3.09 3.03 61.8 0 1 .48-1.65l9.7-15.2q.14-.21.33-.05l.45.35q.14.12.04.27l-9.64 15.11q-.32.5-.33 1.1v17.6q0 .57.31 1.06z"/><path fill="#82017d" d="M246.63 28.83q.14.16.02.61l-.44.05q-.01-.37.42-.66"/><path fill="#b32a47" d="M273.85 29.22q-.28 2.13.39 3.43l-.03 1.15q-.14-.06-.27-.13-.27-.32-.47.1-.25.54.3.49l.09 4.55q-.32.23-1.01.15-.02-2.35-.02-4.71c.01-1.69-.68-2.41-2-3.26l.21-.43q.25-.21.65-.28.25.57.6.67.62.19.61-.46l-.03-.95q.36-.42.98-.32"/><path fill="#82017d" d="M290.22 29.34q-.12.72.02 1.46-.18-.14-.09.29l-.07-1.94q.07.09.14.19"/><path fill="#b32a47" d="m291.13 29.45.04 1.27q-.35.22-.93.08-.14-.74-.02-1.46.5-.08.91.11"/><path fill="#82017d" d="m179.9 29.91 1.39.46-9.77 15.5q-1.54-1.23-.29-2.37zM271.04 30.56l-.21.43q.21-.09-.41-.09z"/><path fill="#b32a47" d="M267.95 31.7q-.06-.02-.22-.28.13-.43.42-.47a.33.33 0 0 1 .33.5q-.21.33-.53.25M290.97 32.26l.04 8.46q0 .52.28.96l4.94 7.81q.34.54.7 0l3.03-4.68q.29-.43.79-.33l.38.07a.25.25 0 0 1 .17.37q-1.79 3.14-3.54 5.75a1.11 1.1-44.1 0 0-.02 1.19l2.55 4.17-.96.83-2.49-3.8q-.3-.45-.59 0l-4.21 6.54-1.29-.36 4.73-7.55q.27-.43.01-.86l-5.83-9.41q.61-.5.36-1.51.48.42.51-.15.04-.85-.48-1.02l-.05-6.22q.39-.41.97-.26M242.99 32.52q.06 1.36-1.01 1.69.26-1 1.01-1.69M382 33.63v1.4l-9.21-1.31.28-1.18z"/><path fill="#82017d" d="M273.94 33.67q-.18.25-.17.59-.55.05-.3-.49.2-.42.47-.1M187.54 33.67l2.81 4.28-.64.75-2.86-4.27q.02-.5.69-.76"/><path fill="#b32a47" d="M241.98 34.21q.09.64-.39 1.05l-.11-.47q.17-.5.5-.58"/><path fill="#82017d" d="m241.48 34.79.11.47q-.24.25-.52.27-.02-.56.41-.74"/><path fill="#faaf05" fill-opacity=".996" d="M219.05 43.28q.14.19.05.74l.04 5.58q-.05.62.73.7l10.8 1.48q.13.43.03.67-.14.35-.39.32l-10.7-1.37q-.52-.07-.58.45l-.31 2.42-.91-.29q.28-1.45.03-2.77-.66-.56-1.77-.32c-4.33-1.2-5.93.41-9.22 1.92q-.55-.53-.6-1.03l5.59-8.66q.27-.32.4-.83l4.08-6.17q.14-.2.35-.08l.26.16q.43.26.16.68l-8.63 13.53q-.45.7.31.35l2.97-1.36a1.07.97-51.2 0 1 .57-.09l4.98.66q.63.09.63-.55v-5.27l.01-1.09.11-7.87q0-.28.28-.26l.35.01q.33.02.34.36z"/><path fill="#82017d" d="m335.81 41.56-8.61 3.53-4.96-.73q-.51-.42-1.45-.2l-12.1-1.68q.98-.27.53-.89l12.3 1.52q.54.37 1.39.22 1.61.28 3.21.51 1.64.23 3.12-.43 3.45-1.54 6.38-3.41 1.01-.08 1.68-.44l7.13-3.36q.32-.15.45.17l.1.23q.17.39-.21.58zM252.84 37.07q-.45 1.43.22 1.68l-16.58 7.62q-.46-.44-.52-1.18l1.44-.93z"/><path fill="#b32a47" d="M382 37.67v1.06q-.87 1.01-2.67 1.6-1.12-.14-1.32-.81z"/><path fill="#82017d" d="m358.25 39.46-1.33 5.27q-.94 1.81-.96 3.96l-1.36 4.75q-.15.54.4.63l3.69.59q.35.7 1.5.09l2.39.35q.34.05.34-.3 0-.14-.05-.29.63-1.2.72-.77l4.15-6.13 1.19.61-3.8 6.22q-.29.48.23.68l2.48.95q-.59-.13.37.63-.28-.08-.43.03-.32.23-.02.49c1.27 1.1 2.03 2.17 3.88 2.4q5.19.65 10.36 1.37v.95l-11.64-1.59q-.5-.07-.89-.38l-4.12-3.36a1.29 1.29 0 0 0-1.9.29l-1.44 2.21q-.64-.01-1.28-.37l1.21-2.07q.26-.45-.24-.6-1.13-.32-2.46-.11-.07-.56-.96-.24l-3.69-.58q-.56-.09-.68.47l-.17.84q-.66-.15-1.41.07.24-.53.22-1.01-.02-.55-.56-.65l-1.83-.33.06-.95 1.96.24q.65.08.86-.55l1.12-3.46q.28-.86-.54-.49l-5.39 2.41q-.32-.21-.57-.76l6.45-3.23q.45-.23.59-.72l2.41-8.62q.75.22 1.14 1.06M140.59 54.72q-.43-.15-.78-.51l9.81-15.39q.16-.24.39-.08l.27.18a.3.3 0 0 1 .09.41zM290.02 39.91q-.03-.06-.07-.13-.03-.56.1-1.04.52.17.48 1.02-.03.57-.51.15M273.75 40.22l-.01 3.61q-.56-.43-.82-.5-.24-1.26.02-2.88.07.25.81-.23"/><path fill="#faaf05" fill-opacity=".996" d="M382 41.12v.65q-1.35.34-2.12-.05-1.76-.88.2-1.03.76-.06 1.92.43"/><path fill="#f8de06" fill-opacity=".996" d="M229.71 40.99q.53.96-1.1 1.55-2.8 1.65-5.22 2.07-.15-.49-.03-.73z"/><path fill="#82017d" d="M376.13 41.59c-3.14 1.7-4.8 1.88-6.5 5.72q-.71-.54-.85-.96 1.3-3.78 5.16-5.09.43-.41 2.19.33M212.24 42.29q-.13.51-.4.83l-5.74-.7q-.16-.02-.18-.17l-.04-.46a.28.28 0 0 1 .32-.31zM139.4 41.72q.3.24.96.38l-7.88 12.39-.51-1.12z"/><path fill="#faaf05" fill-opacity=".996" d="m335.81 41.56 11.85 9.41q.25.55.57.76.69 1.19 1.99 1.85l-.06.95-3.35-2.29q-1.35-.58-.64-.54l-10.37-8.8a1.39 1.39 0 0 0-1.49-.2l-12.04 5.64a1 .99-12.7 0 0-.58.9l-.02 13.31a.31.31 0 0 0 .44.28l5.28-2.59q.76-.41.05 1.25l-3.49 1.71q-.63.3.06.39l3.44.43q.79.93.04 1.12l-6.16-.71-.71-.66v-13.9q0-.52-.51-.42-1.17.23-2.35 1.11l-.19-1.35 3.22-5.05q.94-.22 1.45.2-.54 1.18-.59 2.48a.4.4 0 0 0 .56.38l4.99-2.13zm-16.317 7.032a1.14.3 127.7 0 0 .934-.718 1.14.3 127.7 0 0 .46-1.086 1.14.3 127.7 0 0-.934.719 1.14.3 127.7 0 0-.46 1.085"/><path fill="#82017d" d="m217.93 43.06-.01 1.09q-1.79-.6-3.78-.54-.34.01-.36-.32l-.02-.32q-.03-.36.34-.32zM223.36 43.88q-.12.24.03.73l-4.29-.59q.09-.55-.05-.74 2.3-.04 4.31.6M181.36 58.69q-.12.02-.18.32-.07.34.18.75-.21.19-.36.53-.81-.55-1.01-1.49l.4-14.97q.01-.24.25-.24l.31.01q.38.01.38.39zM259.52 45.23l.21 1.49-16.75 7.82q-.49.23-.09.58l6.23 5.45q-.41.19-.43.91l-6.61-5.52a1.5 1.43-22.8 0 0-.89-.34q-1.17-.03-2.04.83-.45-.11-.91.35l-11.39 5.29q-.46.14-.9-.05a.61.6 44.6 0 1-.01-1.11l1.74-.77 9.83-4.61q-.31-.03.16.06.09.01.16-.02.38-.16.48-.64.84.15 1.21-.19.41-.39 0-.77l-3.32-3.01q.19-.63.1-1.21l4.51 3.77q.4.33.86.11z"/><path fill="#b32a47" d="M235.96 45.19q.06.74.52 1.18-.27.32-.36.83-.74-.13-1.36 2.1l-7.08 10.86-1.74.77a.61.6 44.6 0 0 .01 1.11q.44.19.9.05l13.35 11.23-.88 1.24-13.49-11.41q-.48-.41-1.05-.14l-15.72 7.33-.92-1.24 9.67-15.12.91.29-8.52 13.32q-.56.88.39.44 6.09-2.86 12.3-5.67 1.65-.75 2.85-2.47 2.4-3.47 4.57-7.12.25.03.39-.32.1-.24-.03-.67 2.05-1.85 2.71-4.52.7-.33.79-1.01.51-.02.89-.27z"/><path fill="#82017d" d="m171.15 48.41.03 7.4q-.19 1.15-1.02 1.55l-.21-10.56q.89.18 1.2 1.61"/><path fill="#f8de06" fill-opacity=".996" d="m236.12 47.2.18 2.57q.09.58-.1 1.21.52 2.09 2.11 3.97-.1.48-.48.64-.07.03-.16.02-.47-.09-.16-.06-2.33-2.71-2.75-6.25.62-2.23 1.36-2.1"/><path fill="#82017d" d="m177.95 47.75.04 8.08q-.98-.62-1.14-1.49l.12-5.54z"/><path fill="#b32a47" d="m129.41 48.76-.15-.71q.11-.06.15.71"/><path fill="#faaf05" fill-opacity=".996" d="m130.18 48.46-.07 1.28q-.5-.79.07-1.28"/><path fill="#b32a47" d="m317.57 49.21.19 1.35-6.52 3.07-.18-1.58z"/><path fill="#82017d" d="M217.84 51.21q-3.06 1.46-6.1 2.81c-2.21.98-4.19.76-6.35.16a1.34 1.3-47.8 0 0-.89.06l-5.53 2.32q.07-.72-.13-1.33l2.12-1.05q.58-.28-.03-.48-1.11-.34-2.14.02-.77-.88-1.7-.49l-5.33-.91q.22-.44 0-.84l5.77.63q.6.17 1.46.05 3.78 1.71 7.26-.38.05.5.6 1.03-.23.06-.33.2-.25.34.16.44 2.5.62 3.46.2 3.03-1.29 5.93-2.76 1.11-.24 1.77.32M346.17 51.7q-.71-.04.64.54l-7.87 3.71q-.25-.3-.31-.77z"/><path fill="#faaf05" fill-opacity=".996" d="m311.06 52.05.18 1.58-9.55 4.44q-.46.22-.46.73v11.49q0 .55.53.64l6.46 1.14-.51 1.71q-2.89-1.03-5.91-.8-.51.04-.52.55l-.08 3.92-.95.26.04-3.21a2.33 2.33 0 0 0-2.14-2.35l-6.72-.53q-.3-.03-.31.27-.07 2.63-.04 5.37.02 2.02 1.09 3.76 3.72 6.09 7.94 12.3.59 1.64-.18 2.27l-9.6-14.92a1.9 1.84-62.5 0 1-.29-.97q-.07-3.87-.06-8.12.01-.13-.08-.23-.1-.12-.25-.12-.29-.01-.36.27l-4.5 16.65-1.23-.09 4.71-17.52q.12-.55.76-1.05.31.34.75.07a.41.4-16.5 0 0 .19-.34l.05-7.73q0-.61-.61-.69l-12.62-1.66q-1.41-1.55-2.74-.53l-.55-.32q.92-.06 1.68-.7l15.57 1.65 1.29.36q.58.62 1.71.12 2.95-1.3 5.58-2.86l.96-.83q.44.37.98.11 6.05-2.92 9.79-4.09m-11.54 6.42c-1.98.92-5.46 2.98-7.51 2.51q-.92-.21-.92.73l-.01 7.55q0 .79.79.75 3.26-.17 7.07 1.12a.99.98 9.2 0 0 1.3-.93V58.93q0-.79-.72-.46M174.33 53.18l-2.52 3.77q-.3.45.23.53 2.36.4 4.71.61.26.02.39-.35l.59 1.05q-.47.12-.67.49l-5.71-.72q-.51-.07-.79.37l-7.66 11.88q.4-.22-.22-.29-.27-.04-.29-.31l-.02-.46 7.79-12.39q.83-.4 1.02-1.55l2.27-3.4q.71.39.88.77"/><path fill="#b32a47" d="m328.86 58.56.08 1.16q-.01.37.3.79-.27.32-.36.78l.01.91q-.18 1.4.34 2.12-.4.54-.01 1.02l-.48 6.44-1.24-.31-.01-6.33q.75-.19-.04-1.12l-.01-2.53q.71-1.66-.05-1.25l.09-7.13q.01-.48.49-.49h.3q.62-.01.62.61z"/><path fill="#82017d" d="m190.35 53.58-3.64 5.79q-.43.17-.97-.12l4.03-6.31zM132.02 55.44q-.22.23-.47.33-.37-.07-.96.05.53-.54.4-1.6.26-.1.53 0 .23.08.35.32.18.39.15.9"/><path fill="#faaf05" fill-opacity=".996" d="M123.08 55.41q.14.49-.1.87-5.16 8.19-10.36 16.09-.96-.34-.55-.86l10.32-16.14q.4-.06.69.04"/><path fill="#f8de06" fill-opacity=".996" d="M338.63 55.18q.06.47.31.77l-9.7 4.56q-.31-.42-.3-.79.17-.06.25-.16z"/><path fill="#b32a47" d="M130.59 55.82q.59-.12.96-.05-.78 1.05-.97 2.27-1.09-.75-.22-2.5z"/><path fill="#f8de06" fill-opacity=".996" d="M359.24 55.96q-1.27 2.75-3.87 3.76-.59.23-.44.84l.07.3a.41.41 0 0 0 .58.27l5.15-2.39q.64.36 1.28.37l13.69 11.43q.38.32.87.38l5.43.75v1.23q-2.54.03-4.94-.58-2.06-.53-4.24-2.37-5.59-4.74-11.25-9.48-.5-.42-1.08-.14l-4.18 1.94a.76.76 0 0 0-.41.92l1.6 5.18q.08.92.42 1.39c.41 2.22.91 4.37 2.73 5.85q6.63 5.4 12.77 10.71.23.2.05.44l-.16.23q-.4.56-.93.11-5.89-5.02-12.59-10.55c-2.22-1.83-2.7-4.31-3.51-6.96l-.45-1.51-1.28-4.43a.44.43-20.4 0 0-.6-.27l-7.43 3.42-1.5.41-1.39-.6 9.85-4.51a.81.81 0 0 0 .46-.91l-.07-.33q-.09-.38-.44-.22l-12.58 5.73a3.2 3.19 36.2 0 1-1.76.27l-9.87-1.3q-.39-.48.01-1.02l10.29 1.3q.52.06.99-.16l12.1-5.6q.49-.23.36-.76l-.64-2.58q.75-.22 1.41-.07.05 1.26.55 2.01.29.44.78.25 2.13-.83 3.21-2.99.89-.32.96.24"/><path fill="#b32a47" d="M196.72 55.71q.02.16.01.3-.03.28.21.13.19-.12.32-.49.36.66-.11 1.89l-1.87.81-.82.17q-.16-.37-.74-.7l1.03-.89q.89-.06 1.97-1.22"/><path fill="#82017d" d="M193.72 57.82q.58.33.74.7l-1.53.94q-.48-.4-.84.25.01-.54-.42-.9z"/><path fill="#b32a47" d="m276.79 59.14 12.24 10.35q-.64.5-.76 1.05l-14.22-11.93q1.33-1.02 2.74.53"/><path fill="#82017d" d="M328.86 58.56q.01.59.33 1-.08.1-.25.16zM177.73 58.79q.27.5.46.54-.06 2.3-.14 4.44-.08 2.29-1.2 4.16-1.65 2.77-3.58 5.43-.56-.38-.69-.66 1.93-2.77 3.57-5.63.97-1.69.94-3.76-.04-2.02-.03-4.03.2-.37.67-.49M197.58 61.97q-.01-.17-.14-.2-.09-.02-.14.06l-5.28 8.22-.35-.87 5.7-9.31q.64.17.75.88.16 1.03-.54 1.22"/><path fill="#b32a47" d="m186.05 60.45-2.55 3.87q-.75-.43-.74-.88 1.54-1.49 2.25-3.41.55-.11 1.04.42"/><path fill="#82017d" d="m328.88 61.29.01.91zM150.7 63.8l7.61 11.99-.7.51-7.68-12.03q.36-.32.77-.47M321.33 64.43l-5.47 8.63-1.13-.05 5.89-9.24z"/><path fill="#faaf05" fill-opacity=".996" d="M189.65 64.78q-.22.62.54.91.49.19.38.7l-.12.57-.08-.68q-1.86 1.38-2.45 3.17a.35.35 0 0 1-.59.13q-.18-.19-.31-.61z"/><path fill="#b32a47" d="m190.37 66.28-2.54 4.43q.01.18-.11.34-.72-.09-1-1.52.21-.25.3-.56.13.42.31.61a.35.35 0 0 0 .59-.13q.59-1.79 2.45-3.17"/><path fill="#82017d" d="M112.07 71.51q-.41.52.55.86l-9.54 4.6q-.47.22-.2.66l3.04 5.06q-.62-.16-.92.16l-3.16-4.78q-.35-.53-.94-.27l-4.56 2.01q-.54.23-.53.82l.26 29.2q-.36.19-.34.51.02.36.24.53-.45 2.09-.09 4.17.11.61.43.09l1.88-3.09q.2.15.48-.11t.17-.65l6.13-9.43q.24.39.77.42l-5.91 9.38q-.94.38-.65.84l-2.94 4.83q-.26.43.01.86l18.94 29.8q1.24 1.69.37 2.33l-18.62 2.44q.18-.59.13-.91l17.25-2.3a.35.34-20.1 0 0 .25-.53l-19.6-30.77q.36-.62-.1-1.21l-.22-6.79q.26-.09.36-.48.1-.4-.2-.52l-.02-29.3q.68-.11.73-.7l5.01-2.37a.45.45 0 0 0 .19-.65l-5.74-9.01q-.14-.22.06-.4l.24-.2q.32-.27.54.08l5.74 8.98a.74.74 0 0 0 .93.27z"/><path fill="#faaf05" fill-opacity=".996" d="m343.63 66.61 1.39.6q-.12.62-.45.67l-16.06 7.44a1.33 1.32 68.8 0 0-.7 1.6l4.49 14.35q-.63.16-1.12 1.46l-5.03-16.52q-.22-2.17 1.59-2.23z"/><path fill="#82017d" d="m346.52 66.8 9.31 1.28.45 1.51-11.71-1.71q.33-.05.45-.67zM160.9 67.76q.81.99.9 1.9.05.49-.36.76-.69.45-.23 1.11-.18 1.04-1.35 1.69l-.07-5.44q.55.2 1.11-.02M363.12 69.34q-.59.73-.58 1.13l-4.62-.71q-.34-.47-.42-1.39z"/><path fill="#f8de06" fill-opacity=".996" d="M362.54 70.47q-.01-.4.58-1.13-.31.18.21.22.17.01.3.12l13.85 11.63q.3.25.04.55l-.25.28q-.34.4-.74.06z"/><path fill="#82017d" d="m162.37 69.75.02.46q.02.27.29.31.62.07.22.29l5.15 8.23a.35.34 45.5 0 0 .58.01l3.17-4.93q.41.44.44.72-1.41 2.99-2.89 4.71-.36.41-.03.89-.12.21-.1.43.02.31.32.36.12.02.27 0-.03 1.34.69 1.6-.3.38.04.89.24.36.63.43l-.08 11q-.25.25.15.89l-.05 6.99q-.41-.31-1.16-.06l-.1-6.95q.4-1.44-.05-2.61l.04-9.96a1.47 1.46-81.4 0 0-1.03-1.4q-.65-.21-.77.1-1.06-1.35-.44-1.22l-5.5-9.01q-.33-.49-.69-.72zM187.83 70.71q.15.35.05.75-.12-.2-.16-.41.12-.16.11-.34"/><path fill="#f8de06" fill-opacity=".996" d="m328.74 71.78-1 2.2q-1.81.06-1.59 2.23l-4.37 6.78a.56.56 0 0 0 .14.75q.8.61 1.15 1.66l-1.13.32q-.33-.78-.87-.86-.52-.09-.74.39-1.24 2.78-2.83 3.51-8 3.69-16.06 7.48-.42-.59-.35-1.95l9.87-15.38.75.58-8.9 14.17q-.36.59.27.31 10.87-4.87 13.99-6.64 1.55-.88 2.33-3.32.16-.49-.23-.81l-6.4-5.31q-.46-.16-.76-.48-1.88-2.19-4.3-3.63l.51-1.71 6.51.94 1.13.05 9.11 1.23q.51.07.86-.31 1.04-1.1 1.67-2.51zm-15.87 4.32q.52.18.75.51l6.4 5.49q.5.43.85-.13l3.57-5.57q.36-.57-.3-.65l-9.22-1.16q-.45-.2-1.16-.2-1.37-.65-2.88-.47-.58.06-.13.43z"/><path fill="#82017d" d="m189.95 71.79.39 1.05q-.61.57-.59 1.42-.53-.36-.84-1.06.3-.74 1.04-1.41M186.67 73.02q-.27-.33-.66.02-.21-.33.04-.53.2-.16.42-.07.3.12.2.58"/><path fill="#faaf05" fill-opacity=".996" d="m219.02 87.57.1.62-.42 4.22q-.5-.11-.83-.46l.03-2.91q-.09-.69.09-1.17.19-.85-.06-1.52-.19-.53-.7-.31l-3.05 1.32q-1.29.31-1.66-.21l5.01-2.53q.41-.2.41-.66l-.01-10.68q0-.31.31-.31l.34.01q.38 0 .38.38z"/><path fill="#b32a47" d="M314.92 74.59q-.18.78-.97 1.08-.61.05-.67-.33.13-.48.48-.95.71 0 1.16.2"/><path fill="#faaf05" fill-opacity=".996" d="M68.53 94.14q.64.28-.8.32l-.38-19.33a.39.39 0 0 1 .4-.39h.26q.32 0 .32.32z"/><path fill="#82017d" d="M185.67 75.12q-1.22.6-1.77 2.1l-.71.74q-.38-.11-.76-.44l1.8-2.86zM160.78 74.93l.15 4.75-1.18.12q-.58-.59-.68-1.14-.07-.37.39-1.12.56-.92.5-1.82.19-.53.82-.79M188.23 75.12q.4.35.27.6-.22-.07-.49.03-.23-.15-.22-.32zM313.28 75.34q.06.38.67.33-.01.44-.33.94-.23-.33-.75-.51zM188.94 76.43q-.31-.29-.44-.71.29.29.44.71"/><path fill="#b32a47" d="m191.8 78.47.08.32q-.09.59.06 1.16l-.19.42q-.42-.15-.74.13a.36.36 0 0 0 .17.63q.26.05.59-.14-.16.7-1.2 1.08.21-2.28-.85-3.33.44-.46-.64-1.5.41.14.43-.2.78 1.55 2.29 1.43M182.43 77.52q.38.33.76.44l-.09.8q-1.14.79-1.78 2.29-.19-.32-.65-.54.3.12.2-.76.95-.96.69-1.54zM301.2 77.45l-.11 16.84q-.07 1.36.35 1.95l.02 16.45q-.43.68-.53 1.55-.04.34.29.46.16.06.3 0 .26.33-.08.94l-1.44-1.13q.33-.93.04-.94l-.11-17.98q.77-.63.18-2.27l.14-15.61z"/><path fill="#82017d" d="m312.77 77.89-1.06 1.6-.75-.58 1.05-1.5q.3.32.76.48M192 79.73l-.06.22q-.15-.57-.06-1.16zM382 81.4v2.17l-4.27 15.52q-.32-.25-1-.21l4.7-18.56q.14-.54.28 0zM191.75 80.37q.18.36.02.62-.33.19-.59.14a.36.36 0 0 1-.17-.63q.32-.28.74-.13M219.12 88.19l-.1-.62 15.72-7.31q.29-.13.42.16l.12.29q.13.29-.16.42z"/><path fill="#faaf05" fill-opacity=".996" d="M143.87 81.32q.22-.13-.23-.12-.1-.09-.12-.19-.08-.32.22-.18.2.1.13.49M105.92 82.69l-.18 19.58q-.53-.03-.77-.42l.03-19q.3-.32.92-.16"/><path fill="#82017d" d="m191.54 83.44.04 9.83q-.33.86-1.08.49l.19-9.56q.04-.88.85-.76"/><path fill="#f8de06" fill-opacity=".996" d="M299.85 114.32q.02.08.15.19l1.44 1.13q1.62 1.47 2.65 2.41 1.71 1.57-.58 1.16-.56-.11-1.88-1.63l-1.56-1.19-9.73-8.21a5.33 5.26 11.7 0 1-1.63-2.44l-2.96-9.49q-.26-.82-.65-.06c-1.18 2.24-2.44 4.53-4.85 5.59q-3.08 1.37-5.93 2.73a.88.87-13.2 0 0-.49.78v13.51a4.16 4.1-29.1 0 1-.65 2.22l-9.03 14.13a4.62 4.58-86.1 0 1-1.97 1.73l-15.73 7.33q-.43-.28-.38-.94l15.95-7.47a2.86 2.8 3.2 0 0 1.19-1.04l9.26-14.53q.37-.58.37-1.26l-.02-13.24a.41.41 0 0 0-.58-.37l-7.49 3.42q-.63-.75-.22-.92l7.88-3.66q.47-.21.46-.73l-.05-2.29a.33.32-3.8 0 1 .3-.33l.32-.03q.23-.03.28.19.23.96.03 1.85a.47.47 0 0 0 .66.52q2.64-1.33 5.67-2.66c2.29-1 3.41-3.69 4.66-5.7a1.98 1.95 48.4 0 0 .1-1.89q-1.15-2.37-1.28-5.07l1.23.09q.21 2.2 1.27 4.29.17.34.38.01l5.06-8.03q.11-.16.29-.08l.23.1a.46.46 0 0 1 .2.66l-5.17 8.17a2.35 2.34 52.5 0 0-.25 1.94l3.32 10.61a1.73 1.7 11.5 0 0 .53.79z"/><path fill="#82017d" d="M178.07 91.96q.15.49.09 1.05-.17 4.05-.03 7.46.1 2.58.95.14.1-.27.84-1.29l.22 1.96q-1.25 1.02-2 2.76l-1.13-.36-.22-10.26q.16-.03.24-.16.1-.18-.03-.35-.26-.34-.08-.49l.13-7.15q.01-.38.38-.39l.3-.02q.25-.01.26.24zM212.52 87.15q.37.52 1.66.21l3.81.51q-.18.48-.09 1.17l-5.84-.66q-.27-.62-1.84-.34l-11.64-1.74q.16-.5.56-.82z"/><path fill="#faaf05" fill-opacity=".996" d="m323.07 85.4 1.88 5.55q.21.65.83.36l1.9-.89q.34-.16.47.19l.13.38a.29.28 67.4 0 1-.14.36l-2.07.96q-.63.29-.42.96l2.92 9.34q.14.45-.32.57l-.38.1q-.42.1-.55-.31l-2.86-9.17q-.21-.68-.86-.37-5.19 2.52-10.5 4.86-1.63.72-2.93 2.71-4.47 6.81-8.65 13.7-.14.06-.3 0-.33-.12-.29-.46.1-.87.53-1.55l8.53-13.31a3.93 3.89 3.6 0 1 1.64-1.43l11.81-5.51q.49-.23.33-.75l-1.83-5.97z"/><path fill="#f8de06" fill-opacity=".996" d="M332.3 91.27c.38.97.63 1.77 1.47 2.48q6.47 5.47 13 10.9.38.32.87.41l6.14 1.06q-.28.76-.98.84c-3.19.06-5.59-.22-8.21-2.34q-7.34-5.94-13.41-11.89.49-1.3 1.12-1.46"/><path fill="#82017d" d="m218.7 92.41-9.98 15.62-.79-.51 9.94-15.57q.33.35.83.46"/><path fill="#f8de06" fill-opacity=".996" d="M176.92 92.42q-.18.15.08.49.13.17.03.35-.08.13-.24.16l-5.55 2.62q-.4-.64-.15-.89z"/><path fill="#82017d" d="M140.4 93.3v18.36q-.35.08-.93.01l-.02-18.5z"/><path fill="#faaf05" fill-opacity=".996" d="m191.46 94.5.05 12.64q-.35.02-.99-.18.09-1.15-.2-2.17l-.66-.58c1.32-2.23.85-6.35.94-8.96q.38-.04.46-.37.04-.15-.04-.25-.08-.12-.25-.13-.1-.33.23-.3.99.09.46.3"/><path fill="#82017d" d="m68.53 94.14 9.85 15.27-.77.53-9.88-15.48q1.44-.04.8-.32M190.77 94.5q.17.01.25.13.08.1.04.25-.08.33-.46.37-.12-.22-.08-.44.03-.19.25-.31"/><path fill="#f8de06" fill-opacity=".996" d="M376.73 98.88q.68-.04 1 .21l2.98 9.34q.18 1.29.88 2.07-.13 1.07.41 1.89V115q-.57 3.12-1.45-2.97-.44.03-.63-1.38l-3.11-10.08q-.15-.48-.65-.4l-17.65 3.05q-.61.01-.62-.73z"/><path fill="#82017d" d="M357.89 102.49q.01.74.62.73l-2.84 2.87q-1.38.59-1.33 1.21l-9.11 8.51q-.5-.2-.91-.88c.85-1.09 1.43-2.03 2.62-2.84q3.15-2.14 5.86-5.13.7-.08.98-.84zM189.66 104.21l.66.58-2.77 4.42-.63-.68zM264.53 107.86q-.41.17.22.92l-18.05-2.35q-.46-.06-.71.34l-8.83 13.88q-.24.61-.65.79-.58.25-.66-.38-.07-.54.38-1.15l8.87-13.98q1.6.24 1.55-.44z"/><path fill="#f8de06" fill-opacity=".996" d="m355.67 106.09 9.82 1.31a.47.47 0 0 1 .41.52l-.04.36q-.06.59-.64.51l-10.88-1.49q-.05-.62 1.33-1.21M94.81 109.24q.3.12.2.52-.1.39-.36.48l-6.28-2.86q-.24-.11-.14-.36l.15-.35q.13-.29.42-.16z"/><path fill="#82017d" d="M382 108.21v1.51l-.41.78q-.7-.78-.88-2.07.37-.53.65-.52.31 0 .64.3"/><path fill="#faaf05" fill-opacity=".996" d="m78.38 109.41 16.49 7.62q.46.59.1 1.21l-17.36-8.3z"/><path fill="#f8de06" fill-opacity=".996" d="M98.84 111.28q.11.39-.17.65t-.48.11l-2.22-1.17q-.22-.17-.24-.53-.02-.32.34-.51z"/><path fill="#82017d" d="m186.86 110.55-5.46 8.3-1.06-.02 5.64-8.89q.94.15.88.61M379.92 110.65q.19 1.41.63 1.38l-6.88 10.84q-.19.48-.81.51l-15.28 7.1q-.62.55-1.52.85l-16.99 7.89-.74-1.02 20.86-9.68q-.54.14.17-.97c.74 0 1.54.17 2.26-.15q5.18-2.3 10.3-4.81.52-.25.83-.74zM300 114.51q-.13-.11-.15-.19.36-.48.19-.75.29.01-.04.94"/><path fill="#faaf05" fill-opacity=".996" d="m345.23 115.81-2.74 9.02q-.16.51.37.58l16.5 2.14q-.71 1.11-.17.97l-16.24-2.22a1.06 1.06 0 0 0-1.16.76l-1.83 6.57a.41.41 0 0 1-.44.29l-.33-.03q-.32-.03-.23-.34l1.6-5.85q.19-.71-.46-.38l-15.43 7.67q-1-.15-1.59.26-.39.03-.63.19-.69.46 0 .6.19.04.53-.1.51.04.86.36l14.49 1.9.74 1.02q2.12 6.71 4.27 13.47.11.33.68.55-.18.39-.07.81l.57 2.61-.62.66-1.5-3.44q-.18-.69-.07-.98l-4.16-13.22a.6.59 85.4 0 0-.49-.42l-14.37-1.94q-.19-.35-1.06-.22l-19.42-2.52q-1.83-.24-2.82 1.31l-8.93 13.96q-.49.03-.99-.14l9.98-15.72q.93.01 1.62-.79l17.21 2.27q1.1.14 2.11-.34l15.56-7.45q1.15.38 1.66-.71l2.23-1.01q.48-.21.62-.71l1.3-4.77q.45-.91.26-2.24l1.68-3.31q.41.68.91.88"/><path fill="#82017d" d="m151.27 115.85 5.37 8.28-.82.48-5.05-8.01q-.17-.6.5-.75M301.63 117.58l.05 7.36q-.37.84.05 1.31l-.04 6.95q-.69.8-1.62.79l-.17-6.79.04-1.34.13-9.47z"/><path fill="#f8de06" fill-opacity=".996" d="M198.44 128.23q-.3-.1-.81-.03v-11.12a.25.25 0 0 1 .24-.25l.28-.02q.3-.01.3.29z"/><path fill="#82017d" d="M342.64 118.24q.19 1.33-.26 2.24l-4.15 6.49q-.51 1.09-1.66.71z"/><path fill="#f8de06" fill-opacity=".996" d="M382 121.15v1.58l-1.34 4.99q-.13.51.21.9l1.13 1.33v.62q-.56.24-1.44-.6-.37-.36-.51.14l-1.57 5.74q-.9-.23-.96-.93l1.42-5.66q.13-.51-.27-.85l-5.81-5.03q.62-.03.81-.51l5.43 4.36q.51.4.66-.23l1.68-6.75q.14-.56.3-.01z"/><path fill="#82017d" d="M235.11 120.78q.24.65 0 .71zM171.36 121.75l8.86 13.77q.22.63.65 1.77.26.66-.66.8c-.68-1.62-1.34-2.59-3.23-2.85q-3.11-.43-6.09-.98-.32-.57-.85-.54l-.01-11.46q.73-.04 1.33-.51m5.84 12.52a.32.32 0 0 0 .32-.49l-5.78-9.24a.32.32 0 0 0-.59.17l.01 8.38a.32.32 0 0 0 .27.32z"/><path fill="#faaf05" fill-opacity=".996" d="M301.73 126.25q-.42-.47-.05-1.31l5.66-2.63q.4-.19.52.23l.09.28a.64.64 0 0 1-.35.76z"/><path fill="#82017d" d="m157.29 125.33 2.75 3.57q.2 1.18.89 1.15l.39 14.43q-.49 1.04.05 1.75-.53.66-.2 1.28-.24 1.16-1.17 1.42-.33-8.05-.35-15.85-.01-2.18-.97-3.88-.97-1.72-2.2-3.5.33 0 .81-.37"/><path fill="#faaf05" fill-opacity=".996" d="m299.94 125.86-.04 1.34-8.36 3.93q-.45.21-.72.63l-9.9 15.43q-.99.36-1.35-.05 4.27-7.16 8.97-14.48 1.26-1.97 3.2-3.01 3.84-2.08 8.2-3.79"/><path fill="#82017d" d="M197.63 128.2q.51-.07.81.03l4.79.84q-.62.63-1.28.8l-3.38-.49q-.57-.4-1.07-.14l-5.73-.85.01-.88zM246.07 143.27q-.05.66.38.94l.04 5.7q0 .55.55.61l5.83.58.93.3q1.7.34 3.44.53t3.17-.49q7.66-3.65 15.06-7.09.32-.15.46.17l.16.34q.13.27-.14.39l-16.49 7.67q-.46.21-.97.15l-5.32-.69q-.35-.38-1.14.01-2.49-.8-5.1-.68-.51.02-.51.53l.03 8.85q-.56 1.46.19 1.62l-.02 18.78q-.48.55-1.48.39v-10.23q0-.54-.3-.08l-7.03 10.89q-.07-.46-.67-.71l7.68-12.17q.28-.44.29-.96l.34-16.59q.01-.58-.56-.67l-4.68-.71.06-.94 4.5.5q.63.07.61-.56-.05-1.93.04-3.86.08-1.67-1.27-3.73-4.46-6.84-8.74-13.77l.88-.31z"/><path fill="#f8de06" fill-opacity=".996" d="M97.07 151.84q.05.32-.13.91-.16-.2-.48-.21-.31-.02-.6-.15l-15.37-7.13a4.5 4.49 86.1 0 1-1.87-1.64l-9.43-14.76q-.24-.37.13-.6l.29-.19a.23.22 56.3 0 1 .32.07l9.72 15.22a2.52 2.46 85.5 0 0 1.03.9z"/><path fill="#82017d" d="M209.75 129.85q.19.08.11.91-2.26-.01-4.16-.51-.23-.06-.28-.19-.05-.16.06-.39 1.89-.37 4.27.18"/><path fill="#b32a47" d="M190.91 129.34q.19.99-.37.86.49-.26.37-.86"/><path fill="#82017d" d="m218.73 130.31-8.94 14.36q-.86.49-1.75.63l9.79-15.34z"/><path fill="#f8de06" fill-opacity=".996" d="m357.58 130.48 17.19 2.56-.78.63-17.93-2.34q.9-.3 1.52-.85"/><path fill="#82017d" d="M377.52 134.92q.06.7.96.93l3.52 3.12v.9q-.52.18-.9-.24-1.28-1.42-2.97-2.58-.42-.28-.79.06l-12.14 11.12q-.4.63-1.28.6-.19-.74.17-1.06 6.26-5.69 12.48-11.43.41-.38-.03-.71l-2.55-1.96.78-.63zM185.81 135.11l1.04.22q.03.18.25.31.04.38-.06.8-.38-.15-.8.05-.11-.45-.46-.37-.53.11-.72.14l-3.36-.38q-.24 0-.33-.96zM324.67 134.99q-.19.58-.83 1.31-.35-.32-.86-.36.4-.28.1-.69.59-.41 1.59-.26M197.43 135.98l.85.29-6.28 9.83-.34-.89z"/><path fill="#b32a47" d="m323.31 137.32-7.3 11.48q-.4.63.34.72l4.71.61a1.51 1.5-69.5 0 0 1.45-.67l3.47-5.35a.36.35 27.8 0 1 .44-.13l.32.14a.56.55 28.1 0 1 .25.81l-3.16 4.95q-.33.51.27.59l18.23 2.43q-.11.29.07.98l-18.68-2.34q-.5-.07-.9.25-1.25 1.01-1.68 2.73-.4.34-.43.92-.11-.06-.26-.04a.64.63 7.5 0 0-.49.37q-1.94 4.55-4.28 5.64-7.9 3.65-16.29 7.58.31-.97.03-1.5 7.26-3.3 14.43-6.74 2.03-.97 3.19-2.67 1.18-1.75 2.26-3.68.78.16.64-1.08.75-.67 1.09-1.58.18-.48-.32-.58l-4.23-.83q-1.39.01-2.15-.84l7.92-12.39q.87-.13 1.06.22"/><path fill="#faaf05" fill-opacity=".996" d="m253.8 151.4-.93-.3c1.16-2.18 2.29-4.37 4.61-5.43q7.74-3.54 15.32-7.14.31-.15.47.17l.14.29q.14.29-.16.43-7.4 3.52-14.97 6.92-1.46.67-2.48 2-1.07 1.4-2 3.06M382 141.25v.95l-4.74 4.46q-.39.37.14.46l4.6.79v.91l-5.83-.76a1.24 1.24 0 0 0-1.36.91q-2.14 8.2-4.52 16.83-.51 1.82.63 3.95.22.41.68.48l5.69.89a.47.46-72.9 0 1 .34.65l-.11.23q-.07.16-.24.13l-5.82-.71q-.22-.25-.38-.64-.19-.44-.66-.36-.39.07-.14.72-5.89-.68-11.15-1.55-.91-.14-1.34-.89.28-.4.44-.32l11.4 1.51q.88.12.38-.62c-.77-1.12-.88-2.65-.56-3.95q2.12-8.48 4.6-16.88.2-.71-.53-.74c-2.24-.09-3.31-.74-5.62.4q-7.26 3.56-14.61 6.83-.24.1-.16.35l1.72 5.44q.04.13.17.07l9.76-4.55a.48.47-26.3 0 1 .63.21l.12.22q.14.27-.14.4l-9.64 4.5q-.52.24-.36.8l1.08 3.67q-.46.26-.98-.25l-1.07-2.92q-.18-.49-.69-.33-.62.2-1.24.72-.44-.09-1 .47c-1.67.53-3.02 1.32-4.84 1.09q-8.58-1.11-16.97-2.29a2.3 2.29 68.9 0 1-1.17-.52l-7.8-6.57q.03-.58.43-.92l7.97 6.67q.39.33.89.4 14.24 1.96 18 2.3.75.07 2.39-.99 1.18.41 1.05-.57 1.2-.31 2.04-.89.43-.29.26-.79l-1.78-5.47q-.12-.62.15-.83l11.81-5.52q.88.03 1.28-.6 1.74-.84 3.39-1.42c2.35-.81 4.05-.03 6.33.07q.53.02.92-.32z"/><path fill="#82017d" d="m190 141.76.39 1.04-2.7 4.44q-.49-.34-.68-.94z"/><path fill="#b32a47" d="M207.4 145.7q.45.47.48 1.05l-16.26 7.57.05-1.34z"/><path fill="#82017d" d="m280.92 147.19.05 15.23q.01 1.64.88.26l8.24-12.97q.5.17.99.14l-8.41 13.17q-1.13 1.77.77.88l13.75-6.41q.03.42.39.85l-5.09 2.48-1.79.79-8.16 3.65q-2 .95-2.94.5l-.03-18.62q.36.41 1.35.05M189.93 147.79l.47.94-.93 1.5-.63-1.02zM186.26 148.16q.72.27.65.78l-.56.04-.67-.64q.21.07.58-.18"/><path fill="#b32a47" d="m185.68 148.34.67.64-2.19 3.63q-.32.53.23.26l3.19-1.52.58.69q-1.97 1.36-4.28 2.4-2.81 1.28-2.67 3.31.59 8.66.4 17.29l-.04.66q-.76.11-1.53.51l-.13-13.64q.56-.26.37-1.8-.21-2.43.43-4.42.14-.46-.31-.31l-2.14.72q-.24-.43-.68-.28-.05-.15-.11-.31 3.98-1.34 5.03-2.92 1.63-2.43 3.18-4.91"/><path fill="#faaf05" fill-opacity=".996" d="M218.74 168.49q-.53.2-.99-.27l.08-6.58-.01-.98.08-11.36a.32.32 0 0 1 .31-.32h.39q.31-.01.31.3zM314.33 149.49q.76.85 2.15.84l3.46 2.99q.14 1.24-.64 1.08l-4.31-3.55q-.41-.34-.89-.11l-16.52 7.6q-.36-.43-.39-.85z"/><path fill="#82017d" d="M188.22 151.15q.38.29.48.58-.75.08-.54.31l-.58-.69z"/><path fill="#f8de06" fill-opacity=".996" d="m253.17 152.38-6.53 10.33q-.75-.16-.19-1.62l5.58-8.7q.79-.39 1.14-.01"/><path fill="#82017d" d="M352.11 154.35q-.27.21-.15.83l-8.01-1.13q-.11-.42.07-.81zM178.26 156.76q-.02.18-.32.34-.36-.33-.36-.62.44-.15.68.28M351.44 162.33q.13.98-1.05.57l-6.49-5.58.62-.66zM176.03 156.89q.36.32.55.75l-5.27 2.4q-.16-.56.66-1.07zM217.82 160.66l.01.98-16.2 7.56q-.18-.47-.63-.75z"/><path fill="#f8de06" fill-opacity=".996" d="m292.49 160.82-3.15 4.96q-.29.46.25.52l9.83 1.19q.28.53-.03 1.5l-10.84-1.18q-.5-.06-.77.37l-4.35 6.86q-.84.67-1.67.62l5.17-8.17a.2.19-71.8 0 0-.15-.3l-5.99-.46q-.28-.02-.43.21-2.9 4.67-5.99 9.43-.63.97-.58 2.67l-.19.44a.27.25-68.1 0 1-.32.15l-.27-.1q.13-.15.11-.27-.03-.24-.27-.17-.56.17-.61.81-1.01 1.05-1.27 2.11-.03.09-.17.22-.76-.29-1.24-.81l10.04-15.66q.94.45 2.94-.5 2.51.88 4.75.76.51-.03.79-.46l2.62-3.95z"/><path fill="#b32a47" d="m352.49 163.26 2.32 2.01q-.53.49.26.83.54.24.42-.31.52.51.98.25l1.76 2.34q-.16-.08-.44.32l-.39.34-1.32-1.3-4.59-4.01q.56-.56 1-.47"/><path fill="#82017d" d="M355.49 165.79q.12.55-.42.31-.79-.34-.26-.83.38.12.68.52"/><path fill="#f8de06" fill-opacity=".996" d="m357.4 169.04 1.03 3.1q.16.48.55.81 6.89 5.79 13.78 11.55.54.46 2.02.45.4-.13.86.02l6.36.96v.88q-3.88-.29-7.7-1.01-2.07-.4-3.8-1.86-5.26-4.47-10.58-8.88-1.85-1.53-2.59-3.25-.83-1.9-1.25-4.07z"/><path fill="#82017d" d="M217.75 168.22q.46.47.99.27l-10.06 15.7q-.38-.55-.71-.67z"/><path fill="#faaf05" fill-opacity=".996" d="M201 168.45q.45.28.63.75l-9.67 15.07q-.46-.67-.47-1.06z"/><path fill="#82017d" d="m371.46 171.42 4.18 13.55q-.46-.15-.86-.02l-4.5-13.81q-.25-.65.14-.72.47-.08.66.36.16.39.38.64M191.48 173.28l.01 9.93q.01.39.47 1.06l-.06 6.78q-.82 1.62-1.56-.57l-.11-.78.49-9.22q-.02-.42.21-.82.22-.39-.17-.61-.18-.11-.39-.14l.15-5.64q.41.24.96.01M287.08 173.54q-.16.52.2.8l-13.39 6.6q-.77.21-1.12.54l-1.8.53q.26-1.06 1.27-2.11.48-.06.77-.37l.27.1a.27.25-68.1 0 0 .32-.15l.19-.44 7.97-3.38q.83.05 1.67-.62z"/><path fill="#f8de06" fill-opacity=".996" d="M287.28 174.34q-.36-.28-.2-.8l18.78 2.25q.43.05.37.48l-.03.28q-.03.22-.25.19z"/><path fill="#82017d" d="M143.92 173.94q4.29 6.73 8.61 13.46 1.11 1.74 2.93 2.66 4.28 2.16 8.66 4.05.38.36.9.47l3.71 1.75q1.63.66 1.15 1.86l-5.6-2.5q-.41-.48-.93-.41l-9.7-4.56q-.93-.44-1.46-1.31l-9.32-15.22q.48-.01 1.05-.25M181.61 175.04q.11.43-.08.79.02-.07.04-.13z"/><path fill="#b32a47" d="m181.48 178.15-.22.12q-.31 0-.36-.27a.22.22 0 0 1 .2-.25q.27-.02.38.4"/><path fill="#faaf05" fill-opacity=".996" d="m273.89 180.94-.01 13.47a5.2 5.19-28.9 0 1-.8 2.77l-4.46 7.07q-.7-.08-.81-.67 1.97-3.03 3.79-6.01 1.11-1.82 1.17-3.95.18-6.02 0-12.14.35-.33 1.12-.54M246.62 181.49l17.46 2.35q.45.3.2.93l-17.53-2.32a.91.9-70.1 0 0-.89.42l-8.28 13.03q-.36.56.25.28l15.46-6.95q.25.98-.14 1.4l-16.95 7.86q-.59.08-1.26-.67l.2-10.49q.01-.72-.37-.11-2.97 4.7-6.06 9.5-1.39 2.17-3.04 2.92-3.12 1.42-6.23 2.86-.44.2-.46.68c-.06 1.61.1 2.62-.83 4.1q-4.12 6.6-8.43 13.19-.59.21-1.1.54-.47.32-.41.66.06.35.53.77l-16.44 7.67q-.83.39-.83 1.31v17.87l-.95-.07q.06-9.11-.09-18.21-.02-.86-.47-1.52.31-.97.3-1.97.57-1.1.32-2.15-.15-.62-.45-.05-.27.53-.21 1.22-.71-.69-.94-1.52c1.78-2.05 1.22-3.4 1.57-5.57q.08-.51-.26-.13-1.6 1.71-2.51 3.98-.67.05-.69-1.08 1.13-1.77 2.2-3.62 1.07-1.82 1.14-3.94.14-4.57-.04-9.08l-.39-.86q.72-6.97-.08-13.81.13-.21.42-.43.74 2.19 1.56.57l16.07-7.53q.33.12.71.67l-16.41 7.75q-.53.25-.53.84l-.02 10.02q0 .64.63.72l5.19.66q.51-.07.93.1 4.67.82 9.42 1.3 2.36.23 4.05-.64 2.66-1.36 5.43-2.58a.95.95 0 0 0 .57-.87l-.01-14.28q0-.36.36-.3l.45.08q.2.04.2.24l-.01 13.99a.29.28-13.6 0 0 .42.25q2.79-1.41 5.46-2.54 1.72-.73 3-2.69 4.44-6.81 8.4-13.52.36-.6.93-.97.6.25.67.71c-.76 1.21-1.64 2.33-1.62 3.81q.07 4.47-.02 8.97-.02.78.4.12l8.57-13.48q1 .16 1.48-.39m-48.18 24.21-.84-.26-5.43-.78q-.63-.09-.63.55l.04 14.43q0 .27-.17.48-.18.21-.05.46.23.44.49.02l5.78-9.09.8.05-6.54 11.08q-.24.4-.25.86l-.16 5.06a.25.25 0 0 0 .36.24l15.2-7.07q1.02-.48 1.63-1.42 4.31-6.67 8.91-13.98.65-1.04.32-2.62-.11-.58-.64-.31c-2.28 1.17-6.35 3.66-8.99 3.3q-4.88-.65-9.39-1.27-.16-.02-.26.03-.14.07-.18.24"/><path fill="#b32a47" d="M269.56 181.42q.48.52 1.24.81l-5.18 8.05q-.35.55.3.63l5.45.7q.63.08.57.71l-.03.35q-.02.23-.25.23-3.36.01-6.56-.86-.55-.14-.85.34l-3.4 5.38q-.52.1-1.09.54-.03-.5-.49-.65l3.11-5.12q.28-.46-.25-.54l-8.98-1.36q.39-.42.14-1.4l9.77 1.3q.57.07.88-.41l4.02-6.19q.34-.54-.26-.33l-3.42 1.17q.25-.63-.2-.93 2.76-.67 5.48-2.42"/><path fill="#f8de06" fill-opacity=".996" d="M382 189.77v1.05l-9.84 4.64a1.8 1.78 3.2 0 0-.72.64l-9.67 15.13-.65.63-14.91 6.94-1.6 1.04-16.83 7.78q-.45.21-.3.68l5.13 16.33a1.88 1.85 11.9 0 0 .57.86l13.99 11.77q-.05.48-.31.9l-13.95-11.61a4.33 4.3-78.9 0 1-1.35-2.02l-5.09-16.23q-.16-.51-.68-.58l-15.51-2.06q-.63-.09-.15.33l12.7 11.06q-.57-.01-.83.33l-13.1-11a4.64 4.6 68.7 0 0-2.36-1.05l-16.82-2.27a.5.5 0 0 0-.55.37q-1.97 7.66-4.23 15.68c-.6 2.1.32 3.97 1.08 5.93q.03.61.44 1.21l3.68 11.87q.15.5.55.84l13.69 11.51a.37.36-38.1 0 1-.08.6l-.31.15q-.14.07-.27-.03l-13.92-11.71a1.24 1.21 11.4 0 1-.39-.57l-3.74-11.44q-.5-.26-.5-.86-.5-1.96-1-4.06-.49-2.04.03-4.08 2.06-8.02 4.24-15.97.43-.21.57-.83l35.95 5a4.33 4.32-53.3 0 0 2.38-.35l32.31-14.87a4.18 4.17-85.9 0 0 1.77-1.54l9.29-14.59q.28-.43.75-.65z"/><path fill="#82017d" d="M198.47 204.28q-.42-.17-.93-.1l.01-10.97q0-.33.32-.34l.32-.02a.32.32 0 0 1 .34.32z"/><path fill="#f8de06" fill-opacity=".996" d="m164.28 195.69-3.46 5.37q-.43.06-.71-.07-.03-.12-.06-.25-.02-.08.02-.16l3.28-5.3q.52-.07.93.41M259.27 197.65q.46.15.49.65-.04.11-.08.23l-16.89 7.86q-.54-.32-.36-.86z"/><path fill="#82017d" d="m260.85 197.76 6.96 5.82q.11.59.81.67 2.4 2.33 5.01 4.24 1.75 1.28 4.13 1.58 7.71.95 15.41 2.07-.27.44-.11.69l-16.12-1.74q-.53-.06-.13.28l12.2 10.3q-.14.62-.57.83l-20.64-17.04q-.42-.16-.78-.65l-7.34-6.28q.04-.12.08-.23.57-.44 1.09-.54M234.94 197.82q.67.75 1.26.67-.15.79.06.49-.97-.18-1.13 1.29l-7.52 11.8q-.28.44.2.22l9.81-4.52q.43.51.46.86l-11.06 5.17a.32.31-37.6 0 0-.07.53q6.26 5.24 11.94 10.05 2.24 1.9 5.94 1.68.5-.03.5-.54v-5.55l1.01.28.06 5.33q0 .51.48.65 2.93.9 6.01.82.05.1.09.2-.71.52-.74 1.04l-.33.14-4.91-.63q-.53-.07-.54.47l-.03 8.79q.19 1.32-1.19 1.46l.13-10.31q.01-.59-.56-.77-1.83-.55-3.63-.45a2.88 2.87 63.4 0 1-2-.67l-13.32-11.2a1.03 1.02 52 0 0-1.08-.14l-16.04 7.46q-.47-.42-.53-.77-.06-.34.41-.66.51-.33 1.1-.54l14.71-6.83q.45-.22.72-.64z"/><path fill="#faaf05" fill-opacity=".996" d="M236.26 198.98q-.94 5.19 2.42 8.33.06.39.27.79l6.83 10.65a.7.69 61.2 0 0 .89.26q6.81-3.23 14.05-6.52 1.73-.79 2.98-2.56 1.68-2.39 3.32-5.12.36.49.78.65l-3.93 6.07q-.53.82-1.42 1.23l-16.11 7.49-1.01-.28-7.25-11.34q-.03-.35-.46-.86-2.99-3.43-2.49-7.5.16-1.47 1.13-1.29"/><path fill="#82017d" d="M160.82 201.06v18.02q0 .58.31 1.07l9.13 14.4a.23.23 0 0 0 .37.03q2.22-2.52 3.42-5.42.93-.48.68-.72l6.87-10.8a.86.86 0 0 0 .02-.89l-1.37-2.38q.79-.24 1.15-.61.61.64.77 1.14a.65.65 0 0 0 1.17.15l6.66-10.33.39.86-6.52 10.31q-.26.42-.08.88 1.2 3.01 3.3 5.45.02 1.13.69 1.08.18 1.2 1.2 1.72.23.83.94 1.52.01.55.34.98.01 1-.3 1.97l-1.48-1.74q-.11-1.09-.24-.86l-1.56-2.14q.16-.49-.6-.89l-3.28-5.17q-.29-.46-.58 0l-6.86 10.7q-.18.64-.49 1.04l-2.72 4.23q-.79 1.26-2.1 1.35l-9.76-15.3a2.88 2.82-61.3 0 1-.44-1.56l.26-18.16q.28.13.71.07"/><path fill="#faaf05" fill-opacity=".996" d="M293.06 212.83q-.16-.25.11-.69l16.86-7.82q.41-.19.6.23l.13.26q.08.19-.1.28l-16.81 7.81q-.24.12-.49.04-.18-.05-.3-.11"/><path fill="#82017d" d="m198.44 205.7-.01 5.86-.8-.05-.03-6.07zM242.43 205.53q-.18.54.36.86l-3.84 1.71q-.21-.4-.27-.79zM361.77 211.23l13.6 11.45q-.01.27-.48.78l-13.77-11.6z"/><path fill="#faaf05" fill-opacity=".996" d="M253.95 227.13q-.49-.02-.97.12-.04-.1-.09-.2c1.26-2.3 2.2-4.21 4.73-5.4q7.55-3.56 15.16-7.07.34-.16.51.18l.12.23q.13.26-.13.39-7.32 3.61-14.75 6.89-1.72.76-2.69 1.99-1.02 1.31-1.89 2.87"/><path fill="#82017d" d="M346.21 218.8q-.13.09-.13.21 0 .09.08.1l16.27 2.12a1.71 1.69-21.3 0 1 .9.39l14.04 11.82q.3.26 0 .52l-.19.16a.42.4-44.9 0 1-.53.01l-13.69-11.5q-.35-.3-.81-.36l-17.54-2.43z"/><path fill="#faaf05" fill-opacity=".996" d="m258.46 229.12.23-1.06 16.78-7.88a.46.46 0 0 1 .63.29l.08.27q.14.51-.34.74-7.88 3.73-15.78 7.32-.76.35-1.6.32M382 223.87v.82q-3.85.09-7.11-1.23.47-.51.48-.78zM174.73 228.44q.25.24-.68.72l-3.68-5.67q-.18-.29.1-.48l.26-.17a.32.32 0 0 1 .45.09z"/><path fill="#f8de06" fill-opacity=".996" d="m186.68 224.75-2.58 4.06q-.36.56.23.24l3.91-2.16q.13-.23.24.86c-2.29 1.83-7.36 2.72-7.2 6.6q.24 5.73.17 15.38-.02 2.02 1.03 3.88 2.06 3.63 4.46 6.91l.61.77 3.09 5.02q-.81.54.86 1.93l-.03 36.31a.29.29 0 0 0 .41.26l16.21-7.55q1.02.01 1.56-.53l14.62-6.76q.48-.22.77-.66l19.72-30.53a2.79 2.73 62 0 0 .44-1.5l.04-18.76q1.38-.14 1.19-1.46l5.48-8.63.33-.14.69-.28q.46-.19.49.3l.03.4q-.13-.12-.42.04-.17.09-.29.28-2.89 4.54-5.67 8.88-.46.73-.46 1.59l-.01 17.41q0 .57.56.64l16.86 2.24q.62.09 1.2-.18l16.4-7.64q.33.24.53.79l-16.36 7.6a4.35 4.32-53.3 0 1-2.4.36l-16.7-2.21a.88.88 0 0 0-.85.4l-8.42 13.2q-.46.73.32.36l14.06-6.59a4.01 3.95-53.2 0 1 2.23-.34l17.38 2.3q.37.05.32.42l-.04.32q-.04.3-.34.26l-17.38-2.29a3.53 3.52 36.3 0 0-1.97.3l-15.21 7.09q-.49.22-.77.67l-9.59 15.02q-.18.29.08.51l12.92 10.89a3.79 3.78-21.2 0 0 1.98.87l17.51 2.28.17.96-18.25-2.35a3.48 3.44-21 0 1-1.8-.79l-13.2-11.09a.97.97 0 0 0-1.05-.14l-32.72 15.52a1.03 1.02-13 0 0-.58.92l-.01 35.48a.33.33 0 0 0 .47.3l16.03-7.49.86.34-17.38 8.55q-.43.11-.9-.1l-9.98-16.41q.35.05.67-.18l8.97 14.03q.36.56.35-.1-.12-16.83-.01-33.22c.02-2.91-2.06-5.08-3.53-7.33a.36.36 0 0 0-.61.01l-5.16 8.18q-.24-.21-.9-.11.2-.11.24-.53.04-.37.24-.69l4.95-7.77q.31-.48.01-.96l-15.72-25.07q-.18-.72-.04-1.07l.01-37.06q1.31-.09 2.1-1.35l3.52-1.85q.46-.25.19-.7l-.99-1.68q.31-.4.49-1.04l1.52 2.4q.31.5.86.27 1.59-.68 3.08-1.46c2.14-1.11 3.82-4.66 5.26-6.74q.76.4.6.89m-6.28 8.27.24-.49q.43-.89-.47-.47l-1.75.82q-.7.32-.29.97l1.74 2.75q.48.77.45-.14l-.08-2.7q-.02-.39.16-.74m-8.51 37.92 8.02-12.58a2.92 2.85 60.4 0 0 .44-1.67q-.42-8.2-.22-15.94c.07-2.53-1.55-4.52-2.93-6.55q-.39-.57-1.01-.28l-4.43 2.01q-.69.31-.69 1.07l.01 33.71q0 1.51.81.23m8.37 17.2q.27.95.96 1.05l5.43 8.55q.4.64.77-.02c1.3-2.35 3.19-4.15 3.16-7.05q-.09-10.16-.03-20.25c.02-3-1.9-5.47-3.65-7.83q-.22-.76-.88-.65l.02-.38q.02-.38-.18-.7l-4.05-6.46q-.52-.82-.5.15c.04 1.77.17 3.32-.85 4.89q-4.7 7.2-9.01 14.16a.69.68-45.6 0 0 0 .73zm10.36 14.57q-.31-3.72.01-7.38.08-.96-.44-.15l-2.17 3.37q-.49.75-.01 1.5l1.85 2.91q.89 1.4.76-.25"/><path fill="#f8de06" fill-opacity=".996" d="M218.48 244.76q-.54-.18-.63-.67l.06-18.72q0-.13.11-.2l.25-.15a.41.41 0 0 1 .63.35q.06 8.91.04 17.86 0 .94-.46 1.53"/><path fill="#b32a47" d="m253.95 227.13 4.74.93-.23 1.06-5.01-.41-.03-.4q-.03-.49-.49-.3l-.69.28q.03-.52.74-1.04.48-.14.97-.12"/><path fill="#f8de06" fill-opacity=".996" d="M143.64 249.72q-.07.35-.77.54l-.18-.26q-.05-.07-.05-.15l-.02-18.64a.33.32 89.1 0 1 .31-.33l.34-.02q.35-.02.35.33z"/><path fill="#82017d" d="M286.46 246.25q-.41-.6-.44-1.21l5.47-8.58q.23-.36.59-.14l.23.15q.23.15.09.38zM322.83 237.05l5.57 17.76a.29.29 0 0 1-.25.37l-.36.03q-.17.02-.22-.14L322 237.38q.26-.34.83-.33M217.85 244.09q.09.49.63.67l-9.51 14.89a3.01 2.98 3.6 0 1-1.27 1.11l-16.2 7.48q-1.67-1.39-.86-1.93l-.03-8.76q0-.8-.45-.13l-2.61 3.87-.61-.77q1.29-2.07 2.48-4.13.96-1.65 1.05-3.47.09-1.84.05-3.7l.95.07.02 17.33a.4.4 0 0 0 .56.36l14.86-6.95a3.97 3.92 3.6 0 0 1.63-1.42zM285.67 247.47l-3.52 5.29q-.2-.55-.53-.79l3.55-5.36q0 .6.5.86M143.64 249.72l9.97 15.46q.27.42.73.63l15.7 7.26q-.14.35.04 1.07-7.73-3.37-15.15-7.03-1.9-.93-3.07-2.7-4.64-6.96-8.99-14.15.7-.19.77-.54M346.86 258.16q.26-.42.31-.9l18.4 2.44a.28.27-83.8 0 1 .24.31l-.02.27q-.03.32-.35.28zM186.9 262.59q-2.63 3.51-4.69 7.28-1 1.82-.96 4.07.16 7.55-.03 15.25-.69-.1-.96-1.05-.01-7.65.1-15.08.03-2.18 1.09-3.99 2.13-3.64 4.57-7.13.66-.11.88.65"/><path fill="#f8de06" fill-opacity=".996" d="m218.62 282.59-.56-.14-.13-.65.05-18.53q0-.36.35-.32l.37.04q.19.03.19.21z"/><path fill="#b32a47" d="m217.93 281.8.13.65q-.19.12-.37-.2.04-.24.24-.45"/><path fill="#82017d" d="M217.69 282.25q.18.32.37.2l.56.14-8.97 14.14q-.54.54-1.56.53zM259.09 305.14l-.17-.96 16.69-7.79a.27.27 0 0 1 .38.17l.12.4q.05.17-.12.25zM208.84 335.84l-.86-.34 9.67-15.28a1.83 1.78 62 0 0 .28-.97l.01-18.01a.31.31 0 0 1 .32-.31l.45.03q.23.01.23.24l-.01 18.29a1.84 1.8-29.8 0 1-.27.95zM180.36 309.16q.66-.1.9.11l-.01 18.43q-.32.23-.67.18zM191.46 344.39l.04 18.05q-.51-.08-.98 0l.04-18.15q.47.21.9.1"/><path fill="#faaf05" fill-opacity=".996" d="m191.5 362.44-.01 19.56h-.97v-19.56q.47-.08.98 0"/></svg>