<svg xmlns="http://www.w3.org/2000/svg" viewBox="0 0 382 382"><path fill="#0101fe" fill-opacity=".996" d="M143.01 0q.79 3.25-.04 4.69c-1.04 1.77-2.55 3.57-2.58 5.63-.03 1.85-.08 3.48 1 5.05q4.32 6.25-.66 12.74c-1.66 2.16-4.51 1.95-5.94 4.45q-.62 1.08-1.29 2.12c-.91 1.43-.46 3.75-.58 5.43-.21 2.72-2.89 4.02-2.74 6.95q.07 1.44.04 2.87c-.04 1.38-1.13 2.77-1.9 3.87-1.31 1.9-.88 4.11-.84 6.24q.01.48.3.87 5 6.58.35 13.1c-1.33 1.86-3.18 2.55-5.12 3.45q-.39.18-.62.55l-2.28 3.82a1.83 1.81 56 0 0-.23 1.23q.78 4.41-2.16 7.9-.36.44-.42 1.01-.18 1.8-.07 3.68c.17 2.94-2.67 4.41-2.8 7.15q-.07 1.7.07 3.37c.23 2.6 2.95 3.8 2.75 6.82q-.12 1.76.05 3.55.05.52.38.93 2.9 3.57 2.24 8.02a1.73 1.72 36.5 0 0 .16 1.05c1.19 2.44 2.03 4.1 4.76 5.46q6.04 3 5.41 10.54c-.25 2.92-2.89 4.25-2.85 7.22q.03 1.73.13 3.33.03.51.34.93 1.12 1.52 1.95 3.2c1.18 2.43-.48 4.86 1.27 7.35.86 1.22 1.81 2.66 1.87 4.18.08 1.95-.36 3.69.76 5.45q.89 1.41 1.67 2.77.24.41.69.58 7.98 3.04 7.15 11.64c-.25 2.63-2.87 4.14-2.8 6.71.04 1.67-.28 3.4.67 4.9q.62.97 1.27 1.91c1.77 2.55-.03 5.32 1.38 7.69q.58.98 1.21 1.92c1.26 1.88 1.18 4.36 1.03 6.51a1.54 1.51 31.7 0 0 .23.93q.79 1.27 1.54 2.62c1.5 2.72 4.77 2.37 6.3 4.97q.95 1.62 1.98 3.15a2.05 2.04 82.1 0 0 1.05.8q4.28 1.42 5.94 5.68a1.56 1.53 3.5 0 0 .73.81l3.89 2.05q.48.25 1.02.16 8.79-1.42 12.16 6.59c.9 2.15-.1 4.19.85 6.42q1.59 3.69 4.27 4.74 1.96.76 3.38 2.55 2.71 3.44 2.17 7.96-.25 2.06-1.48 3.67c-1.71 2.22-2 6.46-.2 8.96q2.79 3.88 1.28 8.62-1.53 4.75-6.32 6.43a1.94 1.92 7.3 0 0-.97.74q-1.1 1.58-2.09 3.32c-.77 1.34-.51 3.02-.45 4.5.09 2.22-1.57 4.04-2.62 5.87a2.07 2.07 0 0 0-.25 1.37q.78 4.51-2.28 7.93-.42.47-.42 1.09l-.01 4.47q0 .48.28.87.89 1.26 1.73 2.61c1.14 1.84.74 4.23.78 6.28q.02.54.32 1 .98 1.47 1.89 3c1.29 2.15-.04 4.69 1.06 7.11q1.65 3.66 4.43 4.69 1.85.68 3.01 2.25 4.62 6.22.51 12.34c-1.54 2.3-1.43 6.5.17 8.52 1.86 2.35 1.96 5.27 1.48 8.1h-.67l-.37-5.22q-.04-.5-.33-.9-4.58-6.15-.43-12.18c2.43-3.54.56-10.11-3.45-11.85q-6.43-2.79-5.8-10.89a1.6 1.55 33.7 0 0-.19-.89c-.99-1.88-2.66-3.61-2.63-5.86q.03-1.71.01-3.43-.01-.52-.29-.96c-.96-1.53-2.49-3.31-2.48-5.19q0-1.39-.03-2.8c-.05-2.33 1.56-3.94 2.6-5.88q.25-.46.23-.99c-.08-1.89-.33-4.36.77-5.99q.68-1.01 1.33-2.04c1.29-2.07.2-4.18.9-6.36q1.51-4.66 5.1-6.14c4.31-1.78 6.56-8.28 3.88-12.18q-3.76-5.46-.21-10.96c2.1-3.25 1.63-7.13-.6-10.22q-.99-1.38-2.35-1.99-6.49-2.94-6.05-10.04.1-1.57-.79-3.15-3.51-6.22-10.57-4.87a2.15 2.14-38.2 0 1-1.29-.15q-1.87-.86-3.75-1.9c-2.39-1.32-2.4-4.29-4.68-5.52q-1.25-.67-2.53-1.31c-1.91-.96-2.68-3.08-3.81-4.77a2.14 2.12-1.7 0 0-.76-.71c-1.7-.91-3.64-1.58-4.83-3.18q-2.87-3.85-2.21-8.07.1-.65-.21-1.23c-.97-1.82-2.51-3.39-2.58-5.54q-.07-1.89.03-3.74a1.63 1.63 0 0 0-.44-1.21q-3.25-3.47-2.25-8.88c.42-2.29 2.39-3.52 2.63-5.84q.71-6.86-4.91-9.71-2.19-1.12-2.94-2.1-.99-1.33-1.82-3.02c-1.03-2.09-.26-4.14-.73-6.34a2.38 2.3-71.6 0 0-.47-.98q-2.74-3.29-2.12-7.62a2.29 2.22 37.7 0 0-.18-1.24c-.79-1.68-2.13-3.07-2.48-4.93q-.99-5.14 2.19-8.76a1.65 1.62 66.7 0 0 .41-1.06l.07-4.34q0-.52-.27-.97l-2.07-3.37q-.27-.44-.73-.69c-1.83-.99-3.78-1.65-5.06-3.44-2.19-3.06-2.26-5.11-2.19-8.53q.01-.53-.27-.98c-1.14-1.77-2.49-3.37-2.47-5.59q.02-1.79.05-3.42.01-.62-.41-1.08-3.29-3.66-2.25-8.93c.38-1.93 1.81-3.16 2.5-4.98a2.15 2.12-38.6 0 0 .13-1.09q-.58-4.36 2.2-7.71.4-.47.48-1.08c.3-2.08-.35-4.3.68-6.19q.78-1.45 1.68-2.84c1.49-2.33 4.35-2.18 6-4.45q4.02-5.55.44-10.86-1.13-1.68-1.29-3.7-.38-4.72 2.61-7.95a1.24 1.23 61.1 0 0 .31-1.08q-.87-4.77 2.16-8.4a1.92 1.88-21.9 0 0 .43-.98c.23-1.81-.16-3.6.4-5.35q1.45-4.49 4.98-5.92 1.92-.78 3.19-2.53 2.1-2.9 1.87-6.5-.14-2.08-1.26-3.44-2.2-2.69-1.66-6.98.15-1.14 1.57-3.6 1.63-2.83 1.19-6.24z"/></svg>