<svg xmlns="http://www.w3.org/2000/svg" viewBox="0 0 382 382"><g fill="none" stroke-width="2"><path stroke="#f88002" d="M102.4 9.6q-.31-.65-.81-.65M96.12 11.9q.15-.5-.22-.96" vector-effect="non-scaling-stroke"/><path stroke="#7fb603" stroke-opacity=".996" d="M92.38 17.22q-.29.37-.77-.25" vector-effect="non-scaling-stroke"/><path stroke="#7e3e02" d="M88.49 29.4q-.28.04-.85-.23M88.41 36.23q-.62-.07-.84-.24" vector-effect="non-scaling-stroke"/><path stroke="#7fb603" stroke-opacity=".996" d="M88.34 53.58q-.62-.1-.78.33M88.52 60.7q-.18.31-.83.27" vector-effect="non-scaling-stroke"/><path stroke="#7e3e02" d="m92.34 66.03-.94.05" vector-effect="non-scaling-stroke"/><path stroke="#f88002" d="M102.58 80.51q-.42.34-.61.68M106.57 93.56q-.57-.35-.81-.31" vector-effect="non-scaling-stroke"/><path stroke="#7e3e02" d="M102.99 98.54q-.43.14-.7-.49M106.91 117.89q-.21-.19-.81.36M110.66 123.3q-.56.41-.83.19" vector-effect="non-scaling-stroke"/><path stroke="#7fb603" stroke-opacity=".996" d="M114.55 135.33q-.36-.19-.56.63" vector-effect="non-scaling-stroke"/><path stroke="#f88002" d="m121.25 137.86-.69.53M121.25 155.72q-.3-.04-.74-.4M121.22 162.54l-.61.73" vector-effect="non-scaling-stroke"/><path stroke="#7e3e02" d="M129.09 187.04q-.22.5-.88.21M132.75 192.32q-.27-.02-.33.83" vector-effect="non-scaling-stroke"/><path stroke="#f88002" d="m139.31 194.73-.6.71M160.38 209.9l.09.86M166.38 208.23q.16.54.03.81" vector-effect="non-scaling-stroke"/><path stroke="#7fb603" stroke-opacity=".996" d="M173.34 210.74q-.28.41-.77.49M177.09 222.82q-.27-.07-.88.22M180.96 228.26q.08.47-.52.73" vector-effect="non-scaling-stroke"/><path stroke="#7e3e02" d="m187.17 230.4-.42.83M187.38 249.17q-.45.24-.85-.07" vector-effect="non-scaling-stroke"/><path stroke="#7fb603" stroke-opacity=".996" d="M187.39 255.18q.08-.3-.79.05M191.33 268.06q-.68.18-.91-.21M187.37 273.58q-.12-.74-.47-.75M180.59 276.17q-.22.13-.59-.44M177.23 280.99q-.33-.11-.95-.02" vector-effect="non-scaling-stroke"/><path stroke="#f88002" d="M176.85 288.3q-.48-.22-.68-.46M173.29 293.33q-.22-.18-.81-.34" vector-effect="non-scaling-stroke"/><path stroke="#7fb603" stroke-opacity=".996" d="M173.12 300.22q-.67.27-.86-.05" vector-effect="non-scaling-stroke"/><path stroke="#7e3e02" d="M172.83 317.56q-.68.22-.57.66M177.05 330.65q-.47.12-.78.01M177.13 337.01q-.33.14-.87.09" vector-effect="non-scaling-stroke"/><path stroke="#f88002" d="m181.16 342.53-.65.67" vector-effect="non-scaling-stroke"/><path stroke="#7fb603" stroke-opacity=".996" d="M187.32 344.68q-.14.75-.32.96M187.51 369.41q-.26-.13-.81.14" vector-effect="non-scaling-stroke"/></g><path fill="#f9f803" fill-opacity=".996" d="M106.65 0c.79 3.79-1.46 6.84-4.25 9.6q-.31-.65-.81-.65 4.64-4.14 4.42-8.95z"/><path fill="#f70902" d="M101.59 8.95q.5 0 .81.65l-6.28 2.3q.15-.5-.22-.96z"/><path fill="#f9f803" fill-opacity=".996" d="M95.9 10.94q.37.46.22.96l-3.74 5.32q-.29.37-.77-.25z"/><path fill="#057303" fill-opacity=".996" d="M91.61 16.97q.48.62.77.25.31 2.49.11 4.93-.16 1.99-1.48 3.84-1.22 1.74-2.52 3.41-.28.04-.85-.23l3.59-5.24q.28-.41.29-.91z"/><path fill="#f70902" d="m88.49 29.4-.08 6.83q-.62-.07-.84-.24l.07-6.82q.57.27.85.23"/><path fill="#057303" fill-opacity=".996" d="M87.57 35.99q.22.17.84.24l-3.49 4.95q-.3.42-.3.93l-.04 5.57q-.01.5.28.91l3.48 4.99q-.62-.1-.78.33c-1.47-1.74-4.08-4.75-3.97-7.11q.07-1.57-.04-3.11c-.19-2.87 2.27-5.52 4.02-7.7"/><path fill="#f9f803" fill-opacity=".996" d="m88.34 53.58.18 7.12q-.18.31-.83.27l-.13-7.06q.16-.43.78-.33"/><path fill="#057303" fill-opacity=".996" d="m92.34 66.03-.94.05-3.71-5.11q.65.04.83-.27z"/><path fill="#f70902" d="m92.34 66.03.19 6.37q.01.54.32.97l3.14 4.4q.3.41.78.59l5.81 2.15q-.42.34-.61.68c-2.49-.87-5.84-1.41-7.38-3.58q-1.54-2.17-2.8-4.21-.29-.48-.3-1.04l-.09-6.28z"/><path fill="#f9f803" fill-opacity=".996" d="M106.57 93.56q-.57-.35-.81-.31.15-2.16.12-4.33-.03-2.22-1.2-4.03-1.22-1.92-2.71-3.7.19-.34.61-.68 3.35 3.59 4.06 5.79.79 2.47-.07 7.26"/><path fill="#f70902" d="M105.76 93.25q.24-.04.81.31l-3.58 4.98q-.43.14-.7-.49z"/><path fill="#057303" fill-opacity=".996" d="M102.29 98.05q.27.63.7.49v6.4q0 .49.29.89l3.24 4.54q.31.44.32.99l.07 6.53q-.21-.19-.81.36-.48-3.04-.17-6.26.07-.7-.44-1.38-1.46-1.92-2.68-3.73c-1.49-2.17-1.03-6.4-.52-8.83"/><path fill="#f70902" d="m106.91 117.89 3.75 5.41q-.56.41-.83.19l-3.73-5.24q.6-.55.81-.36"/><path fill="#057303" fill-opacity=".996" d="m110.66 123.3.23 6.1q.02.5.3.91l3.36 5.02q-.36-.19-.56.63-1.78-2.02-3.09-4.17-1.05-1.73-1.08-4.01-.03-2.15.01-4.29.27.22.83-.19"/><path fill="#f9f803" fill-opacity=".996" d="m114.55 135.33 6.7 2.53-.69.53-6.57-2.43q.2-.82.56-.63"/><path fill="#f70902" d="M121.25 137.86c1.43 1.83 3.99 4.73 3.9 7.09q-.05 1.56.06 3.1c.2 2.85-2.2 5.51-3.96 7.67q-.3-.04-.74-.4l3.33-4.77q.3-.43.3-.95l.01-5.47q0-.51-.29-.94l-3.3-4.8z"/><path fill="#f9f803" fill-opacity=".996" d="m121.25 155.72-.03 6.82-.61.73q-.97-3.94-.1-7.95.44.36.74.4"/><path fill="#f70902" d="M121.22 162.54q1.68 2.21 3.29 4.45c1.12 1.55.61 5.39.66 7.28q.01.49.28.9 1.16 1.71 2.39 3.27c1.74 2.22 1.33 5.86 1.25 8.6q-.22.5-.88.21l-.11-6.08q-.01-.49-.28-.91-1.31-2.04-2.82-3.95c-1.29-1.62-.92-5.35-.81-7.4q.03-.55-.29-1l-3.29-4.64z"/><path fill="#057303" fill-opacity=".996" d="m129.09 187.04 3.66 5.28q-.27-.02-.33.83l-4.21-5.9q.66.29.88-.21"/><path fill="#f70902" d="m132.75 192.32 6.56 2.41-.6.71-6.29-2.29q.06-.85.33-.83"/><path fill="#f9f803" fill-opacity=".996" d="m160.38 209.9.09.86q-3.13-.29-6.04-1.64-2.11-.98-3.08-2.66-.92-1.6-2.17-3.05-.27-.31-.65-.45-2.04-.72-4.17-1.38c-2.44-.75-4.18-4.02-5.65-6.14l.6-.71 3.62 4.96a1.57 1.55-8.4 0 0 .76.56q2.11.71 4.12 1.35c3.65 1.15 3.69 5.16 6.89 6.56q2.77 1.21 5.68 1.74"/><path fill="#f70902" d="M166.38 208.23q.16.54.03.81l-5.94 1.72-.09-.86z"/><path fill="#f9f803" fill-opacity=".996" d="M173.34 210.74q-.28.41-.77.49l-6.16-2.19q.13-.27-.03-.81 3.84.74 6.96 2.51"/><path fill="#057303" fill-opacity=".996" d="M177.09 222.82q-.27-.07-.88.22l-.05-6.04a1.68 1.6 29.4 0 0-.28-.91l-3.31-4.86q.49-.08.77-.49 1.38 1.81 2.58 3.65 1.2 1.85 1.26 4.05.05 2.18-.09 4.38"/><path fill="#f9f803" fill-opacity=".996" d="m177.09 222.82 3.87 5.44q.08.47-.52.73l-4.23-5.95q.61-.29.88-.22"/><path fill="#057303" fill-opacity=".996" d="m187.17 230.4-.42.83-6.31-2.24q.6-.26.52-.73z"/><path fill="#f70902" d="M187.38 249.17q-.45.24-.85-.07l3.75-5.93a1.23 1.2-29.5 0 0 .19-.65v-5.49q0-.64-.38-1.17l-3.34-4.63.42-.83c1.63 1.92 4.32 4.83 4.36 7.33q.04 1.78.06 3.67c.03 2.72-2.67 5.49-4.21 7.77"/><path fill="#057303" fill-opacity=".996" d="m187.38 249.17.01 6.01q.08-.3-.79.05l-.07-6.13q.4.31.85.07"/><path fill="#f9f803" fill-opacity=".996" d="M187.39 255.18q1.39 1.81 2.7 3.77 1.37 2.06 1.47 4.27.11 2.42-.23 4.84-.68.18-.91-.21l-.03-6.25q0-.5-.27-.92l-3.52-5.45q.87-.35.79-.05"/><path fill="#057303" fill-opacity=".996" d="M190.42 267.85q.23.39.91.21l-3.96 5.52q-.12-.74-.47-.75z"/><path fill="#f9f803" fill-opacity=".996" d="M186.9 272.83q.35.01.47.75l-6.78 2.59q-.22.13-.59-.44z"/><path fill="#057303" fill-opacity=".996" d="M180 275.73q.37.57.59.44l-3.36 4.82q-.33-.11-.95-.02z"/><path fill="#f9f803" fill-opacity=".996" d="m177.23 280.99-.38 7.31q-.48-.22-.68-.46l.11-6.87q.62-.09.95.02"/><path fill="#f70902" d="M176.17 287.84q.2.24.68.46l-3.56 5.03q-.22-.18-.81-.34z"/><path fill="#f9f803" fill-opacity=".996" d="m173.29 293.33-.17 6.89q-.67.27-.86-.05l.22-7.18q.59.16.81.34"/><path fill="#057303" fill-opacity=".996" d="M172.26 300.17q.19.32.86.05-1.39 2.48-3.08 4.57c-1.27 1.56-.81 5.12-.74 7.14q.02.54.33.99l3.2 4.64q-.68.22-.57.66c-1.52-1.95-3.98-4.61-4.02-7.09q-.03-1.65-.06-3.42c-.04-2.77 2.32-5.41 4.08-7.54"/><path fill="#f70902" d="M172.83 317.56q.07.19.19.42t.13.49q.1 2.77.02 5.55-.01.5.26.92l3.62 5.71q-.47.12-.78.01-1.44-1.81-2.72-3.77-1.26-1.92-1.35-4.16t.06-4.51q-.11-.44.57-.66"/><path fill="#057303" fill-opacity=".996" d="m177.05 330.65.08 6.36q-.33.14-.87.09l.01-6.44q.31.11.78-.01"/><path fill="#f70902" d="m177.13 337.01 4.03 5.52-.65.67-4.25-6.1q.54.05.87-.09"/><path fill="#f9f803" fill-opacity=".996" d="m181.16 342.53 6.16 2.15q-.14.75-.32.96l-6.49-2.44z"/><path fill="#057303" fill-opacity=".996" d="M187.51 369.41q-.26-.13-.81.14c-.26-2.8-.71-6.47 1.13-8.72q1.27-1.56 2.39-3.26.28-.42.28-.92l-.01-5.65a1.11 1.1-63.2 0 0-.21-.65l-3.28-4.71q.18-.21.32-.96c1.6 1.93 4.25 4.86 4.2 7.39-.05 2.37.49 4.94-1.08 6.97q-1.27 1.66-2.54 3.46-.2.27-.21.6z"/><path fill="#f9f803" fill-opacity=".996" d="M187.51 369.41q1.28 1.71 2.52 3.53 1.29 1.91 1.45 3.97.19 2.53-.09 5.09h-.71l-.19-6.2q-.02-.53-.33-.95l-3.15-4.34q-.22-.29-.22-.66 0-.2-.09-.3.55-.27.81-.14"/></svg>