<svg xmlns="http://www.w3.org/2000/svg" viewBox="0 0 382 382"><g fill="none" stroke="#f7ae58" stroke-opacity=".996" stroke-width="2"><path d="m148.14 223.78-.92.04M166.67 256.96q-.54-.07-.87.21M163.52 254.73q-.54-.55-.91-.28M165.9 262.7q.25.67.88-.51M184.58 287.04l.79-.54M187.5 285.66q.62.04.85-.25M191.5 314.55q-.8-.46-.88-1.19M189.99 308.07l.49-.96M188.32 303.63l-1 .69M185.42 311.07q-.18.38-.86.42M179.58 296.86l2.22 1.02M183.29 298.28q.05-.63-.29-1.32M182.07 296.24q-.42-.17-.92-.18M175.73 290.35q.64-.21.69-.56M166.7 278.29q-.73-.22-.96-.7M160.06 261.34q-1.51-1.1-2.13-1.07M148.72 251.01q.83-.14.81-.48M152.8 239.35q.02-.93.33-.85M151.33 231.34l.26-1.84M166.72 283.82l-.85-.54M163.59 279.05l-1.09-.05M161.88 274.03l-.07-1.21M163.65 294.1q.53-.3.55-.63M166.77 293.53q.31.2.47-.04.22-.32.11-.78M167.68 292.65l.44 1.07M175.31 305.96q-.99.35-1.6-.41M173.24 305.44l-1.5-.62M169.67 301.62q-.98-1.1-2.2-.92M171.21 308.23q-.07.81-.51.63M169.73 308.9l-1.05.19M165.42 307.72q-2.32.28-2.66-1.3M174.36 292.35q-.22.16-.51.78M166.7 286.48l-.91-.08M189.06 329.13q-.73.57-.75 1.34M188.47 334.36q-.28.24-.79.36M185.24 329.21q-.56-.11-.94.02M181.93 325.4q.72-.21 1.14-.68M183.94 323.06q.11-.92-.68-1.55M182.17 319.89q-.27-.31-.94-.42M180.01 319.87q-.35 1.64-.68.77M179.08 331.59q-.53-.32-.96-.13M177.32 329.5q.49-.17.83-.71M176.32 322.18q-.29-1.46-1.32-1.33M173.15 320.54q.35-.32.24-.71M150.03 304.53l-1.44-.79M191.5 328.46l-.89-.05M188.75 318.24q.13-.17.03-.36-.1-.18-.29-.1-.2.07-.11.44M181.08 342.35q.72.24 1.18-.35M179.39 337.23q-.31-.12-.99.11" vector-effect="non-scaling-stroke"/></g><path fill="#f5a30c" fill-opacity=".996" d="m148.14 223.78-.92.04c-.16-2.33.31-5.2-.84-7.2q-.63-1.08-1.32-2.08c-1.36-1.98-1.23-5.48-.94-7.84q.04-.32.35-.33.17 0 .3.11t.14.28c.24 3.08-.54 5.65 1.75 8.39q.4.48.42-.14l.12-3.2q0-.09.08-.09l.51-.03q.25-.01.26.24zM166.67 256.96q-.54-.07-.87.21-.14-2.55-1.86-4.77-.31-.4-.33.11l-.09 2.22q-.54-.55-.91-.28l-.03-3.22a1.79 1.78-80.4 0 0-1.18-1.67q-4.37-1.59-6.2-5.96-.87-2.09-.98.17c-.08 1.48.13 2.7.91 3.97q5.08 8.32 10.34 17.4.05.1.16.11.05 0 .1-.01.18-.06.11-.3-.31-1.12.06-2.24.25.67.88-.51 1.68 1.51 2.71 3.55c1 1.98 2.12 2.68 4.05 3.39q.72.27.24-.34c-2.25-2.84-1.89-5.07-1.9-8.46q0-.55-.25-1.04c-1.17-2.18-2.95-4.1-2.87-6.72q.06-2.07.05-3.97 0-.34.34-.32l.3.01q.32.01.33.33.06 2.38.03 4.76c-.01 1.43 1.02 2.46 1.64 3.7q.46.92.46-.11v-3.16q0-.32.32-.31l.36.01q.25 0 .25.25.18 4.74 0 9.49-.09 2.22 1.03 3.95 1.94 3 3.67 6.16.43.78.57-.1c.7-4.45-2.99-5.91-3.09-9.8q-.06-2.21.01-4.38.02-.36.38-.35l.26.01q.39.02.36.41c-.18 3.08-.44 5.68 1.6 8.27q.48.6.48-.17v-2.96q0-.32.32-.31l.41.01q.26.01.26.27v18.67a.72.71-77.8 0 0 .41.65q.16.08.34.1.19.02.3.18 1.04 1.49 1.9 3.21c.89 1.8 2.4 2.12 3.88 3.17q.81.56.32-.29l-1.67-2.91.79-.54 4.91 8.08q.59.96.4-.15c-.29-1.62.1-2.74-.8-4.31q-1.28-2.21-2.38-4.46.62.04.85-.25.83 1.68 1.93 3.12.57.74.33-.16-.41-1.59 0-3.45.03-.13.16-.12l.26.01q.5.02.5.52l-.03 29.22q-.8-.46-.88-1.19.12-2.73-.63-5.29l.49-.96q.4-3.15-.26-4.31c-1.09-1.91-2.78-4.02-2.82-6.27q-.03-1.96-.04-3.77a1.13 1.11 17.5 0 0-.47-.89c-1.91-1.34-4.21-1.9-5.5-4q-.95-1.57-1.72-3.15-.37-.77-.5.07-.45 2.81.47 4.3 4.47 7.2 8.68 14.54l-1 .69q-.8-.76-1.67-.9-.51-.08-.49.44l.26 7.21q-.18.38-.86.42-.22-2.14-.31-4.39-.08-2.16-1.08-3.93-1.64-2.89-3.59-6.31l2.22 1.02q.61 1.79 1.64 3.04a.47.47 0 0 0 .83-.23q.2-1.46-.98-2.41.05-.63-.29-1.32.03-.61-.3-1.08-.27-.39-.52.02-.09.13-.11.34-.42-.17-.92-.18c.27-1.66.05-2.39-1.53-3.15q-2.13-1.03-3.89-2.56.64-.21.69-.56l3.25 2.02q.87.54.31-.31c-2.07-3.13-2.03-4.91-1.85-8.56q.02-.47-.21-.88-.88-1.61-1.96-3.32c-1.4-2.22-.91-4.52-.94-6.97q-.01-.54-.47-.82-1.42-.87-2.98-1.64c-1.96-.96-3.01-2.78-3.89-4.67q-.91-1.98-.92.2l-.06 13.45q-.73-.22-.96-.7c.36-4.07-.86-5.19-2.45-8.07-1.1-2-.61-4.28-.75-6.45q-.04-.51-.44-.82-1.04-.78-2.04-.91-1.51-1.1-2.13-1.07-1.59-1.79-2.69-4.57a1.86 1.85-16 0 0-2.07-1.14q-5.14.93-9.56-2.74-1.4-1.17.32-.58c3.05 1.03 4.21 2.96 7.99 2.36q.67-.11.1-.48l-3.3-2.11q.83-.14.81-.48l6.07 3.34q.83.46.78-.49l-.03-.46a1.74 1.73 15.1 0 0-.78-1.35c-1.71-1.11-3.88-1.74-5.01-3.54q-1.3-2.06-2.29-4.05a.32.31-33.4 0 1 .08-.38l.24-.21q.26-.22.43.08l2.54 4.3q.35.6.96.92.87.47 1.65 1.03 1.95 1.4.61-.59c-1.11-1.62-1.53-2.97-1.43-4.96q.13-2.6-.55-4.82.02-.93.33-.85 1.05-4.07-1.8-7.16l.26-1.84 1.42 2.24q.37.57.35-.11l-.06-2.71q-.02-.68-.39-1.26-.92-1.45-1.8-2.88c-1.36-2.21-.94-5.04-.87-7.49q0-.26.26-.32l.28-.07q.53-.12.48.42c-.27 3.27-.4 5.63 1.75 8.52q.36.49.36-.12l-.05-3.3q-.01-.24.23-.25l.31-.02q.43-.02.44.41.05 9.48-.02 18.81 0 .71.64.41.04-.02.1-.02.21 0 .32.18 1.02 1.7 2.05 3.54c.9 1.62 2.32 1.93 3.7 2.93q.87.63.33-.3l-1.47-2.51q-.27-.46-.33-.99c-.29-2.42.38-4.81-.85-7.05-.82-1.49-2.11-2.97-2.28-4.68q-.25-2.51-.02-4.99.03-.27.21-.46.21-.23.36-.15.34.18.35.57c.03 3.2-.54 5.47 1.76 8.26q.33.4.34-.12l.08-3.29q0-.11.11-.11l.32-.02q.51-.02.51.49l.02 11.04q0 .53.27.99l4.62 7.74q.64 1.07.42-.16c-.26-1.46.11-2.79-.61-4.14-.9-1.68-2.6-3.71-2.63-5.62q-.03-2.41.01-4.76.01-.34.34-.34h.3q.24.01.27.25c.2 1.97-.38 4.83.57 6.58q.62 1.13 1.36 2.17.61.85.39-.18-.33-1.6-.1-3.22.04-.27.31-.27h.31q.35 0 .35.35zm-8.63-2.25q-.12-.55-.53-.91-.07-.06-.17-.05-.2.01-.28.26a.3.28-60 0 0 .07.29l1.01 1.05q.28.29.22-.1-.06-.35-.32-.54m.83 4.56a.27.26-58.9 0 0 .44-.11q.65-2.01-1.34-2.74-1.03-.38-.6.63.53 1.25 1.5 2.22m1.63-.12q-.54-.46-.27.19.27.64.95 1.12.63.45.24-.22-.35-.6-.92-1.09m5.38 11.96q.19-3.84-1.96-6.59-.43-.54-.45.15-.1 3.7 1.99 6.57.39.53.42-.13m11.69 8.53a.3.3 0 0 0 .57-.14l-.01-3.08a.3.3 0 0 0-.04-.15l-1.47-2.67a.3.3 0 0 0-.56.14v3.05a.3.3 0 0 0 .04.15zm13.08 20.97q.2-3.64-2-6.57-.26-.34-.3.09-.42 4.09 2.16 6.87.27.3.23-.1-.02-.16-.09-.29m-5.06.39q-.4-.52-.4.14-.01.66.81 1.16.65.4.28-.27-.31-.54-.69-1.03"/><path fill="#f9b9a3" fill-opacity=".996" d="m147.22 223.82.92-.04 3.45 5.72-.26 1.84c-.68 3.38.54 4.6 1.8 7.16q-.31-.08-.33.85c-3.04-3.64-2.54-5.58-2.67-9.44q-.02-.54-.49-.81c-2.06-1.19-4.5-2.08-5.67-4.3q-.95-1.78-2.01-3.4a.21.2 57.4 0 1 .06-.29l.26-.16q.43-.26.67.18c1.48 2.64 2.49 5.06 5.63 6.18q.58.2.29-.34zM149.53 250.53q.02.34-.81.48c-1.2-2.13-2.33-4.67-4.54-5.77-1.4-.7-3.24-1.49-4.11-2.81q-1.29-1.98-2.49-4.2-.18-.35.18-.5l.3-.11q.22-.09.35.12 1.15 1.94 2.31 3.92c.68 1.16 1.9 1.7 3.02 2.32q1.11.62.49-.49l-1.43-2.57q-.09-.17.08-.26l.25-.14a.38.37-29 0 1 .5.14zM163.52 254.73q.4 2.26 1.89 4.25.32.44.34-.1l.05-1.71q.33-.28.87-.21l.11 5.23q-.63 1.18-.88.51-1.07-3.17-3.06-6.25-.38-.59-.23-2 .37-.27.91.28M160.06 261.34l.58 7.31q.03.49.29.92l4.81 8.02q.23.48.96.7l.02 5.53-.85-.54q.2-3.73-1.91-6.56-.34-.46-.35.11l-.02 2.22-1.09-.05q.58-3.44-.62-4.97l-.07-1.21c-1.22-1.63-2.46-3.41-2.35-5.51q.09-1.55.03-3.03c-.05-1.51-.87-2.68-1.56-4.01q.62-.03 2.13 1.07"/><path fill="#f5a30c" fill-opacity=".996" d="m161.81 272.82.07 1.21q-5.46-1.95-7.32-7.48-.11-.33.19-.5.16-.09.31-.04.14.06.22.19 1.07 1.71 2.08 3.54c.92 1.64 2.75 2.4 4.45 3.08"/><path fill="#f9b9a3" fill-opacity=".996" d="m185.37 286.5-.79.54-.32-6.42a1.5 1.46-67.4 0 0-.34-.86q-3.74-4.46-2.51-10.4.05-.25.3-.27.17-.02.29.07.07.06.08.15c.36 3.42-.6 5.71 1.95 8.82q.32.39.31-.12l-.03-3.32q-.01-.38.37-.36l.28.02q.33.02.34.35z"/><path fill="#f5a30c" fill-opacity=".996" d="M163.65 294.1q.53-.3.55-.63l2.77 1.64q.48.28.4-.27-.09-.63-.6-1.31.31.2.47-.04.22-.32.11-.78.64.3.33-.06l.44 1.07 7.19 12.24q-.99.35-1.6-.41.24-.25.2-.48a.32.32 0 0 0-.53-.19q-.24.22-.14.56l-1.5-.62q1-3.13-2.07-3.2-.98-1.1-2.2-.92-.71-1.15-1.73-1.02-5.96.76-9.46-2.56-.47-.45-.29.17.76 2.74 2.58 3.72 5.59 3.03 11.49 6.21c.54.29.69.67 1.15 1.01q-.07.81-.51.63-.19-.52-1.01-.38-.2.04-.12.23.04.1.16.19l-1.05.19q-1.07-3.02-3.26-1.37-2.32.28-2.66-1.3 1.06-1.05-.89-1.94-.51-.23-1.07-.13-5.07.88-9.59-2.93-.23-.2-.09-.52a.33.32-63.1 0 1 .44-.15l4.55 2.41q.57.3 1.22.29l2.41-.05q1.29-.03.13-.6c-1.32-.65-2.79-1.19-3.56-2.53q-.86-1.47-1.68-2.94c-.93-1.65-2.88-2.48-4.5-3.28-2.01-.98-3.24-3.38-4.14-5.31a1.16 1.16 0 0 0-1.03-.66c-2.23-.02-4.65.57-6.7-.56q-1.97-1.08-3.88-2.14a.32.32 0 0 1-.14-.4l.13-.29q.1-.25.36-.13 2.09.96 4.38 2.24 1.31.73 4.05.28.84-.14.04-.43-3.59-1.31-5.15-5.09c-.87-2.13-3.49-3.02-5.3-4.17q-2.33-1.48-4.08-5.84-.1-.25.15-.34l.28-.11q.17-.07.28.09 1.29 1.92 2.32 3.88c.78 1.49 2.35 1.9 3.68 2.75q.82.52.31-.31l-1.81-2.95q-.11-.18.06-.29l.26-.18q.33-.23.55.11 2.54 3.92 4.92 8.31.93 1.69 2.62 2.59 3.73 1.98 6.82 3.56.89.45.33-.37c-1.17-1.7-2.03-3.1-4.08-3.94q-3.94-1.61-5.92-6.82-.11-.28.1-.48.13-.12.27-.1.23.04.36.24 1.12 1.78 2.14 3.62c.79 1.43 2.3 2.04 3.7 2.7q.73.35.29-.34l-1.65-2.56q-.18-.27.1-.43l.37-.22q.23-.13.37.1 4.63 7.72 9.39 15.84.41.69 1.22.49.46-.11.87.13c2.53 1.5 4.17 2.82 7.42 2.26q.88-.15.08-.53c-1.28-.62-2.79-1.27-3.57-2.51q-1.22-1.92-2.34-3.89a1.66 1.62 1 0 0-.62-.63c-2.18-1.22-4.77-2.12-6.02-4.42q-.94-1.73-1.98-3.28a.39.38-36.2 0 1 .08-.51l.24-.2q.24-.2.42.05 1.2 1.69 2.2 3.64c.77 1.49 2.23 2.05 3.61 2.79q.78.41.33-.35l-1.58-2.65q-.16-.27.12-.41l.32-.16q.27-.13.43.12 2.61 4.17 5.03 8.48c1.36 2.43 4.84 3.55 7.12 4.85q.51.29.65-.29.16-.68-.18-1.37a1.71 1.7 2.7 0 0-.65-.71zm-11.23-.32q-1.38-3.34-4.8-4.68-.5-.2-.27.29 1.51 3.28 4.85 4.62.38.15.22-.23m18.27 6.39q0-.3-.25-.37a.24.24 0 0 0-.3.21q-.01.28.29.36.26.06.26-.2m-6.09 5.16q-.49 0-.23.43.23.38.48.02.33-.45-.25-.45M163.59 279.05q.49 2.38 2.28 4.23l.85.54q.42 1.57 2.27 2.17.86.28.27-.41-.92-1.06-1.15-2.03-.67-2.82.86-.36 2.47 4.01 5.39 9.16-.22.16-.51.78c-1.25-1.78-2.33-4.57-4.12-5.62q-1.28-.74-2.61-1.53-.32-.19-.41.17-.03.14-.01.33l-.91-.08q-2.02-3.96-2.93-5.27-.79-1.15-.36-2.13z"/><path fill="#f9b9a3" fill-opacity=".996" d="M188.35 285.41q-.23.29-.85.25-.25-2.9-.01-5.68.02-.24.18-.39.12-.12.32-.06.28.08.29.37zM176.42 289.79q-.05.35-.69.56l-2.72-4.65a.27.27 0 0 1 .13-.38l.34-.14q.2-.09.31.1zM166.7 286.48q-.09 3.7.08 5.48.03.37.57.75.11.46-.11.78-.16.24-.47.04c-1.51-1.73-1.18-4.99-.98-7.13zM164.2 293.47q-.02.33-.55.63l-2.98-4.99q-.14-.24.11-.35l.29-.13q.26-.12.4.13zM181.15 296.06q.5.01.92.18-.01.64.93.72.34.69.29 1.32l-1.49-.4-2.22-1.02-6.37-.65q-.49-.05-.92-.28l-4.17-2.21-.44-1.07q2.3.71 4.24 1.94c1.91 1.22 2.93.81 4.96.8q.83 0 .11-.42l-3.14-1.84q.29-.62.51-.78zM169.67 301.62q.47 2.13 2.07 3.2l1.5.62q.2.18.47.11.61.76 1.6.41l13.75 23.17q-.73.57-.75 1.34l.16 3.89q-.28.24-.79.36-.47-2.29-.3-4.72c.08-1.26-.31-2.03-1.57-2.37q-.55-.15-.56.42l-.01 1.16q-.56-.11-.94.02l-2.37-3.83q.72-.21 1.14-.68 1.9 1.8.87-1.66.11-.92-.68-1.55-.03-1.12-1.09-1.62-.27-.31-.94-.42-.08-1.87-1.49-2.2-.54-.12-.73.4-.38 1.07 1 2.2-.35 1.64-.68.77l-.25 10.95q-.53-.32-.96-.13-.1-1.01-.8-1.96.49-.17.83-.71l-.16-3.89q-.03-.54-.37-.96-.62-.74-.67-1.62-.03-.47.39-.27.17.08.34-.01.4-.2.16-.57-.47-.75-.58-1.64-.06-.53-.57-.67-.65-.19-1.3-.46-.1-.04-.15.06v.01q-.06.13.08.18 2.68.98 1 3.23-.29-1.46-1.32-1.33l-1.85-.31q.35-.32.24-.71.54-.06.77-.2.5-.29-.04-.49-5.3-1.96-7.19-7.56-.1-.3.2-.4.14-.05.29.01.21.07.31.27c1.45 2.74 2.54 5.04 5.68 6.28q.83.33.3-.39-1.51-2.01-2.61-4.35a1.91 1.88-88.7 0 0-.84-.89l-7.29-3.97a2.25 2.25 0 0 0-2.52.26q-3.81 3.22-9.45 2.36-.3-.04-.36-.34-.03-.12 0-.25.08-.32.41-.31 2.48.08 4.7-.18 1.74-.21 3.81-1.67.64-.45-.15-.42-5.01.24-9.38-3.06l-1.44-.79-3.52-1.95a.22.22 0 0 1-.09-.31l.14-.25q.22-.4.62-.18l9.71 5.3a2.18 2.14-31 0 0 1.05.25l6.26-.18q.34 1.58 2.66 1.3 1.88 2.08 3.26 1.37l1.05-.19q.48.1.97-.04.44.18.51-.63.47-.48.18-.89-2.21-3.14-3.92-6.64 1.22-.18 2.2.92m4.76 8.13a.35.34-66.4 0 0 .42-.17c.63-1.29-.18-2.55-1.51-2.88q-.35-.08-.43.27-.45 2.08 1.52 2.78m-2.49 2.04q.14-1.06-.44-1.83a.39.39 0 0 0-.7.3q.15.95.85 1.63.25.25.29-.1m4.24-1.65q-.03.37.21.63.3.32.48-.09.17-.36 0-.68a.37.37 0 0 0-.69.14m1.51 7.95-4.22-7.17a.01.01 0 0 0-.02-.01l-.05.04a4.02 1.85 59.5 0 0 .45 4.4l.15.26a4.02 1.85 59.5 0 0 3.63 2.52l.05-.03a.01.01 0 0 0 .01-.01m.276-3.173a1.71.78 61.1 0 0-.143-1.874 1.71.78 61.1 0 0-1.51-1.12 1.71.78 61.1 0 0 .144 1.874 1.71.78 61.1 0 0 1.51 1.12m1.134.323q.02.45.41.74a.3.3 0 0 0 .47-.26q-.03-.49-.48-.74a.28.27 11.8 0 0-.4.26m7.153 11.151a.81.27 47.9 0 0-.343-.782.81.27 47.9 0 0-.743-.42.81.27 47.9 0 0 .343.782.81.27 47.9 0 0 .743.42"/><path fill="#f5a30c" fill-opacity=".996" d="m148.59 303.74 1.44.79q-6.22 1.47-10.83-2.61-.15-.14-.21-.33-.03-.13.04-.25a.33.33 0 0 1 .41-.11q2.41 1.15 4.65 2.46 1.07.63 4.5.05"/><path fill="#f9b9a3" fill-opacity=".996" d="m188.32 303.63 2.16 3.48-.49.96-1.35-1.79q-.28-.37-.32.1-.35 3.91 2.3 6.98.08.73.88 1.19v13.91l-.89-.05c-.83-2.52-2.81-4.64-3.14-7.07q-.25-1.81-.05-3.7a1.96 1.96 0 0 0-1.29-2.05q-4.76-1.7-6.79-7.35-.13-.38.27-.39.28-.01.43.21c1.05 1.46 2.07 4.21 3.59 5.05q1.15.63 2.32 1.28.8.44.3-.33l-1.69-2.57q.68-.04.86-.42l4.68 7.77q.38.62.47-.1c.39-3-.9-4.9-2.36-7.28-1.23-2-.84-4.82-.89-7.14zm.06 14.59q-.54 3.95 1.96 6.86.62.73.37-.2c-.46-1.73.09-2.86-.92-4.64q-.57-1-1.04-2 .13-.17.03-.36-.1-.18-.29-.1-.2.07-.11.44"/><path fill="#f5a30c" fill-opacity=".996" d="M173.39 319.83q.11.39-.24.71l-5.08-2.76q-.19-.1-.1-.3l.13-.3q.12-.28.38-.13zM188.75 318.24q-.21.04-.37-.02-.09-.37.11-.44.19-.08.29.1.1.19-.03.36M182.17 319.89q-.27.78 1.09 1.62.79.63.68 1.55-.71-.51-1.29-.62-.59-.11-.51.49.13.85.93 1.79-.42.47-1.14.68l-2.6-4.76q.33.87.68-.77.36.21.71.19.31-.02.43-.3.06-.14.08-.29.67.11.94.42M176.32 322.18q-1.17 3.21 1.83 6.61-.34.54-.83.71-2.89-3.67-2.32-8.65 1.03-.13 1.32 1.33"/><path fill="#f5a30c" fill-opacity=".996" d="M181.08 342.35q.72.24 1.18-.35l7.96 13.37q.38.64.4-.1c.1-2.78-.55-4.69-2.12-6.85-1.47-2-1.16-4.63-1.11-6.97a1.52 1.52 0 0 0-1.02-1.46q-4.66-1.61-6.55-6.44-.52-1.31-.7.09-.22 1.64.27 3.59-.31-.12-.99.11l-.28-5.88q.43-.19.96.13 1.74 1.56 3 3.96c.84 1.58 1.95 2.31 3.53 2.92q1.02.4.37-.48c-2.16-2.86-1.74-5.39-1.68-8.76q.38-.13.94-.02l.1 5.27q.01.56.3 1.05l4.36 7.29q.3.5.41-.08c.64-3.35-1.36-5.4-2.73-8.02q.51-.12.79-.36l1.76 2.65q.41.62.44-.13.12-3.41-1.87-6.29-.06-.09-.17-.1l-.32-.02q.02-.77.75-1.34l1.07 1.67q.34.53.37-.1l.11-2.29.89.05-.01 53.54h-.79q-.26-2.21-.3-4.55c-.03-1.97-.92-3.26-1.95-4.79-1.42-2.09-1.07-4.57-1.09-6.92a1.48 1.47 9.8 0 0-.97-1.37q-5.15-1.89-7.03-7.44-.07-.19-.03-.39.03-.19.23-.21.29-.03.46.22 1.27 1.91 2.45 3.96.72 1.26 3.5 2.57.69.33.26-.31c-2.2-3.27-1.94-4.9-1.91-8.68q0-.51-.26-.95l-4.42-7.45a1.7 1.7 0 0 0-1.75-.8q-4.97.88-9.71-2.73-.25-.19-.16-.49.05-.15.17-.23a.35.34-48.8 0 1 .35-.03c2.78 1.32 4.7 3.24 8.23 2.45q.84-.19.03-.48-3.34-1.18-4.89-4.76c-.62-1.42-1.8-2.5-3.22-3.1q-4.36-1.84-6.23-7.07-.15-.43.29-.49.15-.02.29.02.23.08.33.29c1.38 2.79 2.52 5.14 5.73 6.23q.63.21.26-.34l-1.64-2.46q-.18-.27.06-.5l.2-.2q.31-.3.53.06 2.51 3.93 4.86 8.25c1.44 2.64 4.65 3.51 7.07 5q.58.36.7-.31.13-.72-.06-1.65m7.59.38q-.21-.23-.26.07-.57 3.35 1.61 6.19.42.53.49-.14.38-3.54-1.84-6.12m-5.71 2.57q.15-.36-.08-.7-.52-.76-.49.16.01.35.28.6.19.18.29-.06m-.92 1.96 1.33 2.14q.57.93.82-.14.5-2.16-1.7-2.63-.97-.2-.45.63m3.59 2.4q-.33-.31-.31.14.01.59.53.93.34.23.27-.17-.09-.52-.49-.9m4.64 17.92q.37.62.28-.1c-.2-1.6.21-3-.64-4.52q-.76-1.36-1.58-2.65c-1.2-1.88-1.03-4.28-.94-6.39a1.97 1.97 0 0 0-.73-1.63q-.26-.21-.55-.34-.81-.36-.81.53l.02 6.2q0 .61.31 1.12zm.22-6.43q.36-3.57-1.82-6.38-.22-.28-.27.07-.53 3.53 1.67 6.43.36.48.42-.12m-1.35 6.37q-.85-1.44-.87.23-.04 3.5 1.96 5.87.36.43.4-.13.21-3.09-1.49-5.97"/><path fill="#f9b9a3" fill-opacity=".996" d="M178.4 337.34q.68-.23.99-.11l2.87 4.77q-.46.59-1.18.35c-2.15-1.26-4.92-2.35-6.11-4.54q-.96-1.77-2-3.37a.33.32 54.7 0 1 .07-.43l.25-.2a.38.38 0 0 1 .56.11c1.6 2.73 2.44 5.05 5.72 6.39q.67.28.31-.36z"/></svg>