<svg xmlns="http://www.w3.org/2000/svg" viewBox="0 0 382 382"><g fill="none" stroke-opacity=".996" stroke-width="2"><path stroke="#f8b35f" d="m243.33 94.79-.88-.01M243.44 105.35l-.88.4M255.46 123.72q-.53-.12-.9.02" vector-effect="non-scaling-stroke"/><path stroke="#f8b269" d="M248.32 132.18q.39-.66.23-1.05M217.5 148.95l-.66-.95M217.44 150.66l-.94 1.05M202.02 161.1q-.28-.22-.98-.36M203.66 159.06q.3-.34-1.01-.27M192.03 166.17q.15-.07.25-.17.14-.16-.07-.14-.07 0-.14.04M196.93 166.99q.07.65.43.91M191.88 186.42q-.92-.67-1.7-.64M223.54 168.13q-.57.17-1 .08" vector-effect="non-scaling-stroke"/><path stroke="#f8b35f" d="m198.19 137.78.47.8" vector-effect="non-scaling-stroke"/><path stroke="#f8b269" d="M203.63 141.2q-.55.05-.9-.09M193.11 164.14l-.9.18M201.88 188.72q.85.27 1.16.62" vector-effect="non-scaling-stroke"/><path stroke="#f8b35f" d="M191.47 189.55q-.33-.15-.89-.05M190.55 199.52q.47.11.91-.02" vector-effect="non-scaling-stroke"/><path stroke="#f8b269" d="M194.45 199.73q.05.63.71.29" vector-effect="non-scaling-stroke"/><path stroke="#f8b35f" d="m199.23 203-1.3-.15M195.47 202.03l-1.22-.48M187.73 206l-.01.95M190.74 206.54l.46.01M193.86 205.54q.21-.42 1.49-.45" vector-effect="non-scaling-stroke"/><path stroke="#f8b269" d="M194.3 247.22q.28-.13.95.07" vector-effect="non-scaling-stroke"/><path stroke="#f8b35f" d="m191.4 265.89-.89.05M189.75 270.95l.8.76M185.49 288.78l-1.01.62" vector-effect="non-scaling-stroke"/><path stroke="#f8b269" d="M178.31 259.36q.61-.36.56-.79M181.76 257.82q-.41.11.22.91M183.89 260.41l.14-1.21M183.6 258.27q-.68-.24-.7-.9" vector-effect="non-scaling-stroke"/><path stroke="#f8b35f" d="M178.34 237.83q.62-.34 1.05-1.27" vector-effect="non-scaling-stroke"/><path stroke="#f8b269" d="m183.13 224.22-.01-1.51M182.05 223.24q-.33.63.04 1.13" vector-effect="non-scaling-stroke"/><path stroke="#f8b35f" d="M179.55 227.75q-.6.19-1.43.01" vector-effect="non-scaling-stroke"/><path stroke="#f8b269" d="M178.4 217.54q1.04-.55.53-.98M180.25 213.47q-.06-.31-.17-.53-.1-.19-.28-.25-.19-.06-.4-.02M180.43 211.3q.13.65.53.68M185.04 206.26q-.1-.89-1.25-1.71M183.21 203.75q-.5-.73-.92-.58M179.33 198.03q-.24.22-.96-.93M173.41 208.88l-.94.13" vector-effect="non-scaling-stroke"/><path stroke="#f8b35f" d="M177.94 190.02q.55.69.51 1.42M178.11 194.72q.15.25.37.3.19.03.4-.15.29-.25.36-.56M184.29 186.77q-.48-.07-.52-1.12M178.11 233.54l-.52-.86" vector-effect="non-scaling-stroke"/><path stroke="#f8b269" d="M255.37 161.4q-.31-.03-.66.05M243.27 182.99q-.58.03-.82.54M239.5 188.13q-.87.39-.89.89" vector-effect="non-scaling-stroke"/><path stroke="#f9c2c1" d="M214.94 205.43q-.73.51-.7.77" vector-effect="non-scaling-stroke"/><path stroke="#f8b269" d="M191.8 213.85q-.57-.46-.34-1.37M194.38 211.32q.6-.05.93-.26M206.21 201.46l-.17-.93M206.53 191.96q.55-.28.92.27M216.09 191.15q1-.16 1.23.57M217.41 191.95l-.82.53M217.49 198.02q-.34-.05-.49-.28-.16-.23 0-.48.15-.23.43-.32M233.22 195.01q.24-1.15.65-1.19M173.26 212.56q-.35-.23-.84-.33" vector-effect="non-scaling-stroke"/><path stroke="#f8b35f" d="m191.77 296.9-.18 1.09M191.59 297.99l-1.11.23M189.93 297.49q-.24-.52-.9-.53M188.43 295.47q-.7-.37-.51-.89" vector-effect="non-scaling-stroke"/><path stroke="#f8b269" d="M173.65 251.21q-.08.95-.35 1.13M173.26 240.55l-.9.14M172.3 254.63l.88.17M174.41 238.74q-.15.6-1.35.24" vector-effect="non-scaling-stroke"/><path stroke="#f8b35f" d="M179.25 185.73q-.32.09-.82-.01M259.15 146.52q-.29 1.22-.83 1.03M256.11 151.21l.08 1.86" vector-effect="non-scaling-stroke"/><path stroke="#f9c2c1" d="M255.55 159.99q-.77.39-.94.3" vector-effect="non-scaling-stroke"/><path stroke="#f8b35f" d="M249.26 149.75q-.55.13-.97.03M237.08 152.27q-.57-.22-.78-.05M236 150.48l.93.21M238.7 151.3q.86-.14.91.3M223.77 230.83l-1.39.05M222.22 226.51q-.05-.55-.37-1.03" vector-effect="non-scaling-stroke"/><path stroke="#f8b269" d="M284.26 156.77q-.35.25-.98.4M286.06 161.02q.36.19.63-.07.24-.23.12-.54" vector-effect="non-scaling-stroke"/><path stroke="#f8b35f" d="m300.95 153.02-.9-.32" vector-effect="non-scaling-stroke"/><path stroke="#f8b269" d="m289.44 205.5-.74 1.01M286.82 209.02q-.31.51-.3.63" vector-effect="non-scaling-stroke"/><path stroke="#f8b35f" d="M255.61 207.25q.19-.78-.37-1.08" vector-effect="non-scaling-stroke"/><path stroke="#f8b269" d="M243.53 182.28q-.43-1.2.19-1.34M245.66 168.88q.24-.19.33-.5M246.14 168.07q.08-.52.72-1.06M246.21 165.7l-.69.94M241.93 168.05q.61-.76.86-.48M167.16 221.25q-.39.04-.91-.19M191.54 317.29q-.92.26-.94-.14M189.01 315.04q-.05-.32-.26-.58M185.62 309.74q-.45.01-1.36.51M179.37 321.02l-1.03.75" vector-effect="non-scaling-stroke"/><path stroke="#f8b35f" d="M191.35 287.46q-.27-.14-.8-.01M306.27 112.28q.47.33.71.68" vector-effect="non-scaling-stroke"/><path stroke="#f8b269" d="M295.09 129.91q-.37.2-.78-.03" vector-effect="non-scaling-stroke"/><path stroke="#f8b35f" d="M270.26 129.38q.21-.7.12-1.19" vector-effect="non-scaling-stroke"/><path stroke="#f8b269" d="M237.24 159.75q-.33.38-.81.48M282.78 154.77q-.32.11-.87.57" vector-effect="non-scaling-stroke"/><path stroke="#f8b35f" d="M301.96 152.07q-.73-.07-1.02-.79" vector-effect="non-scaling-stroke"/><path stroke="#f8b269" d="M290.24 206.93q-.13.82-.37.82M288.42 209.46q-.03.41-.23.86M191.96 339.05q-.29.42.09.89M191.68 339.96l-1.22.28M184.45 321.1q.56.24.92.11M188.59 316.38q-.9-.43-.62-.71M191.47 275.99q.85.55-1.18.42M223.47 299.04q-.46.1-.93 0" vector-effect="non-scaling-stroke"/><path stroke="#f8b35f" d="M310.33 111.97q-.06-.02-.13-.05M308.84 112.26q-.41.1-.63.82" vector-effect="non-scaling-stroke"/><path stroke="#f8b269" d="M206.23 262.32q-.23-.43-.19-.86M239.43 282.28l-.88-.24M234.74 287.41l.65.82M234.75 289.29q-.33-.18-.67-.62M222.46 268.34q-.11 1-.64-.75" vector-effect="non-scaling-stroke"/><path stroke="#f8b35f" d="M313.38 86.07q-.11.21-.76.46" vector-effect="non-scaling-stroke"/><path stroke="#f8b269" d="m227.31 88.56-.95-.1M219.48 82.99q-.12.58-.9.18M103.15 119.77q-.48.16-.88-.04" vector-effect="non-scaling-stroke"/><path stroke="#f8b35f" d="M191.44 157.76q-.5-.3-.86-.22M249.77 187.27q-.35-.33-.76-.43M251.91 188.85q-.05-.31.15-.79M134.95 217.85q-.38.01-.72.14" vector-effect="non-scaling-stroke"/><path stroke="#f8b269" d="M309.7 222.47q-.05-.63-.66-.74" vector-effect="non-scaling-stroke"/><path stroke="#f8b35f" d="m66.51 14.71-.7.74M56.46 47.3q-1.26-.76-.73-.65M116.75 5.59q.19.37.01.95M116.8 7.03q.11.5-.04 1.04M111.04 16.93q.58.42.19 1.42M117.98 26.29q1.01.09.91-.25M122.77 30.85q.48.52.41.89M129.91 41.27q.76 1.2.06 2.14M116.12 35.15l-.18-.93M118.9 35.32l.11 1.14M138.11 9.91q.7-.17 1.14-.03M135.68 30.36l.02 1.33M135.84 33.54l1.07.26M142.45 34.35l.97-.45" vector-effect="non-scaling-stroke"/><path stroke="#f8b269" d="M144.46 35.4q-.82.59-1.19.17M154.04 42.72q.4-.12 1.05-.01" vector-effect="non-scaling-stroke"/><path stroke="#f8b35f" d="M157.89 47.19q.08 1.03.85.99" vector-effect="non-scaling-stroke"/><path stroke="#f8b269" d="M142.83 70.54h-.87" vector-effect="non-scaling-stroke"/><path stroke="#f8b35f" d="M119.25 10.33q.08.8-.1 1.41M122.09 18.49q.69-.09 1.42-1.26M148.1 24.01q1.17-.09 1.21-1.33M177.76 36.2q-.17.8-.69.66" vector-effect="non-scaling-stroke"/><path stroke="#f8b269" d="M234.33 13.96q.3.44.75.72M307.53 14.7q-.37.51-.79.47M342.85 16.95q-.36.57-.34 1.06" vector-effect="non-scaling-stroke"/><path stroke="#f8b35f" d="m358.63 6.2 1 .04M363.26 9.02q.32.82-.3 1.19M360.63 13.57q-.28.82-.74.89M358.39 16.53q.47.64 1.27.84M362.74 21.53l.69.6" vector-effect="non-scaling-stroke"/><path stroke="#f8b269" d="M366.87 26.84q-1.23-1.01-1.46-.04M362.33 23.71l-.56-.75M347.55 22.82q-.49.33-.68.72M343.88 39q-.09.28.09 1.11" vector-effect="non-scaling-stroke"/><path stroke="#f8b35f" d="M333.9 76.42q-.28-.05-.07.81M311.71 64.36q.43-.66.42-1.09M315.8 49.65q.32.66.85.97M334.57 39.83q.4-.59.78-.78M338.27 25.45q.06-.5-.09-.95M374.8 2.25l-.85-.29M366.28 7.89q-.28.46-.36.83M367.41 9.75q-.44-.09-.91.22M313.37 45.91l-1.06-.93M307.51 46.08q-.7-.11-1.31.01M312.61 23.68l.85-.71M89.89 48.79q-.51.5-.1 1.32M78.85 64.22h-.88M72.82 65.54q-.26.31-.87.24" vector-effect="non-scaling-stroke"/><path stroke="#f8b269" d="M190.79 37.28q-.19-.11-.38-.08-.15.03-.26.2-.11.19-.16.36M188.2 37.9q.21-.47-.04-1.2" vector-effect="non-scaling-stroke"/><path stroke="#f8b35f" d="M40.82 41.66q-.25.16-.92.18" vector-effect="non-scaling-stroke"/><path stroke="#f8b269" d="M369.07 31.28q-.37-.17-.67-.56M354.74 41.3q-.09.74.58.94M179.38 36.74q.19.42-.52.76M106.96 38.54q-.59-.3-.87.2M190.66 45.25q-.68-.01-.76-.61" vector-effect="non-scaling-stroke"/><path stroke="#f8b35f" d="M46.35 49.46q-.24.62-.49.84" vector-effect="non-scaling-stroke"/><path stroke="#f8b269" d="M131.37 82.76q-.04.69.19 1.26M129.55 85.23q.08-.53-.01-.93M187.6 51.1q-.17.56.34.87M199 64.21q-.63-.13-.89-.37M194.57 65.61q.24-.27.11.91" vector-effect="non-scaling-stroke"/><path stroke="#f8b35f" d="m189.61 56.27-.99-.94M182.22 57.63l-1.53-.11M178.71 59.48q-.01.99-.33 1.29M175.23 65.44q.22-.04.28 1.1" vector-effect="non-scaling-stroke"/><path stroke="#f8b269" d="m174.98 67.24-.99.05" vector-effect="non-scaling-stroke"/><path stroke="#f8b35f" d="m167.33 79.21-1.23-.25M307.51 56.75q-.43.14-1.24-.01M46.92 60.79h-.97M31.46 59.94l-1.14.17M185.45 62.53l-.95.16" vector-effect="non-scaling-stroke"/><path stroke="#f8b269" d="M211.52 73.88q-.1.83.23 1.05M192.77 82.02q-.27-.02-.49.11M191.41 81.85q-.19.51 0 .86M191.43 90.53q-.41-.11-.88-.07M183.74 82.06q-.34-.65-.16-.96M184.62 72.97l.84-.34" vector-effect="non-scaling-stroke"/><path stroke="#f8b35f" d="m47.46 67.31-.03.99M165.85 81.72q-.03.81.48 1.44M166.19 86.65l-.21 1.84M162.12 94.54l1.14.01M165.58 92.5q.54.51.53 1.06" vector-effect="non-scaling-stroke"/><path stroke="#f8b269" d="m159.21 97.64-.57.59M155.03 108.79q-.58.13-.95-.04M153.96 114.82q-.56.32-.2 1.33M151.4 115.23l-1.39-1.04" vector-effect="non-scaling-stroke"/><path stroke="#f8b35f" d="M148.15 97.53q.66.04.91-.11M149.14 91.6l.36-1.13" vector-effect="non-scaling-stroke"/><path stroke="#f8b269" d="M78.83 85.72q-.49-.12-.85.03" vector-effect="non-scaling-stroke"/><path stroke="#f8b35f" d="M58.23 89.26q-.04-.5-.3-.78" vector-effect="non-scaling-stroke"/><path stroke="#f8b269" d="M211.57 84.46q-.03-.56-.64-.81" vector-effect="non-scaling-stroke"/><path stroke="#f8b35f" d="M149.3 84.98 148.07 86" vector-effect="non-scaling-stroke"/><path stroke="#f8b269" d="M104.95 90.48q-.16.18-.93.22" vector-effect="non-scaling-stroke"/><path stroke="#f8b35f" d="M335.77 75.75q.1.51.02.94M168.07 90.61q-.47-.35-.45-.86" vector-effect="non-scaling-stroke"/><path stroke="#f8b269" d="M118.22 95.59q1.17.16.95-.31" vector-effect="non-scaling-stroke"/><path stroke="#f8b35f" d="m190.32 102.57 2.28-1.83M198.3 103.58q-.34.31.88.34M199.01 105.4l-.75.1M182.32 115.15q-.41.02-.78-.43M179.01 114.3l-1.52-.56M173.25 114.72q-.64-.13-1.23-.03M161.59 118.08l-.54-1.07" vector-effect="non-scaling-stroke"/><path stroke="#f8b269" d="M198.86 90.75q-.2.56-.74.55M199.11 99.35q-.44.18-.87.19M156.34 118.54q-.34 1.27-.96.84M160.17 126.49q.11.39.87.59M168.67 128.1q1.34.55.78.77M166.54 135.71l-.56.8M154.53 127.96q-.36-.09-.61-.52M151.07 121.45l-.99-.13M143.03 130.03q.16.6-.01 1.16M141.8 143.75q.14.53-.07.95M137.82 151.08q-.01.45-.19.86" vector-effect="non-scaling-stroke"/><path stroke="#f8b35f" d="M173.46 131.57q-.62.5-1.44.5M183.19 139.73l-1.01.38M179.37 143.28q-.07.52.13 1.22M179.35 149.47q-.34.73-1 .85M178.33 144.99q-.28-.2-.16-.99" vector-effect="non-scaling-stroke"/><path stroke="#f8b269" d="m167.13 168.54-.83-.08M179.23 162.01l-.9-.36M147.96 163.43q-.28.19-.62.29M147.27 171.92q-.07.07-.05.32" vector-effect="non-scaling-stroke"/><path stroke="#f8b35f" d="M135.76 174.75q.19-.73.38-.66" vector-effect="non-scaling-stroke"/><path stroke="#f9c2c1" d="M166.76 177.34q-.54.28.26.29" vector-effect="non-scaling-stroke"/><path stroke="#f8b269" d="M155.02 193.5q-.45-.14-.85-.03" vector-effect="non-scaling-stroke"/></g><path fill="#f7a206" fill-opacity=".996" d="m60.64 0 .09 6.04a1.61 1.6-63.2 0 0 .29.89l5.49 7.78-.7.74Q63.28 12.11 61 8.61q-1.23-1.89-1.3-4.06-.08-2.27.05-4.55z"/><path fill="#f9c3b7" fill-opacity=".996" d="M82.66 0q.5 2.7-.19 3.71-2.65 3.9-5.25 7.52c-1.09 1.52-4 2.23-5.73 2.75q-.69.2-.27.79l1.31 1.83q.33.46.33 1.02v9.8q0 .56-.33 1.02l-5.57 7.88q-.26.37-.7.42-.94.1-2.02-.58-1.38-.86-1.34.77c.02.77.03 1.41-.42 2.08q-2.88 4.37-6.02 8.29-1.26-.76-.73-.65 4.44-5.71 5.77-7.9.83-1.36.31-3.08-.13-.43-.55-.57l-4.73-1.68q-.5-.18-.14-.57l.24-.27q.07-.07.17-.04l4.43 1.58q.69.25.69-.49V18q0-.47.48-.48h.28q.24 0 .24.24l.02 16.47a.77.76 8.8 0 0 .54.73l2 .61a.28.28 0 0 0 .37-.27l-.04-19.85.7-.74 2.14-.78q.59-.21.23-.72l-2.86-4.08q-.27-.39.18-.53l.31-.09q.24-.07.38.13l2.99 4.24q.34.48.9.29l4.36-1.51q.7-.24 1.13-.85l5.19-7.32a1.85 1.76 65.7 0 0 .33-.95L81.95 0zM67.3 34.11l4.29-6.09q.27-.39.28-.87.04-4.74-.1-9.07-.07-2.12-2.13-3.1-.62-.3-1.42.07-1.42.65-1.42 2.22l-.01 16.68q0 .88.51.16M105.05 0q1.31 1.51 2.54 3.15.64.85 1.78.82.52-.02.52-.54l.04-3.43h.99l.01 3.78q0 .5.41.78 2.62 1.82 5.41 1.03.19.37.01.95-.05.25.04.49.11.5-.04 1.04l-1.06-.69q-.47-.3-.99-.11l-3.22 1.14q-.48.17-.48.68l.03 7.84q.58.42.19 1.42l-.2 10.08a.78.77 8.2 0 0 .57.76l1.46.4q.55.15.55-.42l-.01-8.49a.59.59 0 0 1 .58-.59l.3-.01a.45.45 0 0 1 .46.45v8.97q0 .59.57.74l5.25 1.44a.42.42 0 0 0 .46-.65l-3.24-4.74q1.01.09.91-.25 1.88 2.32 3.29 4.52.1.16.25.22.17.07.34.07.48.52.41.89l6.73 9.53q.76 1.2.06 2.14l-9.6-3.61q-.47-.18-.79-.56l-3.46-4.09-.18-.93-2.14-3.13q-.3-.44-.81-.57l-2.32-.64a1.11 1.11 0 0 1-.83-1.09l.09-19.23a3.74 3.73-62.4 0 0-.68-2.18L104.11 0zm4.1 5.27q-.29.63.28.85a.33.33 0 0 0 .45-.26q.05-.34-.17-.64a.33.32 39.5 0 0-.56.05m3.76 1.01q-.85-.5-1.69-.31-.46.1-.37.56l.08.41a.54.53-19.4 0 0 .78.37l1.2-.64q.36-.19 0-.39m5.99 29.04.11 1.14q3.06 3.74 9.01 4.87.65.13.27-.41l-5.79-8.19q-.36-.52-.98-.44-2.83.34-5.32-1.01-.76-.4-.38.37 1.15 2.36 3.08 3.67"/><path fill="#f7a206" fill-opacity=".996" d="m118.53 0 .03 3.9q.01.91.88.62.43-.15.83.13.58.4-.1.59-2.08.55-1.51 3.06.13.57.68.37l3.83-1.42a.79.79 0 0 0 .5-.84q-.53-3.91 1.79-6.41h.79q.44.32.11.64-2.2 2.19-1.64 5.34.09.5.59.45.5-.04.99.13.86.3.01.62l-.87.33a.84.84 0 0 0-.54.8l.07 5.44q0 .45.45.39.25-.04.38-.39.31-.82.19-2.54-.02-.26.15-.46.1-.11.24-.11.45 0 .53.45.03.19.16.34.28.35.54-.02l1.9-2.78q.3-.44.3-.97l.05-7.66h.91l.09 7.43q0 .52.5.65l6.75 1.83q.7-.17 1.14-.03-.32.44.88.96.89.39-.04.65-.54.15-1.06-.12-.57-.29-.95.23l-1.15 1.6a.33.31-55.8 0 1-.43.09l-.23-.13q-.35-.21-.12-.54l.83-1.18q.38-.55-.26-.72l-5.65-1.54q-.59-.17-.94.33l-2.79 3.95a2.9 2.9 0 0 0 .01 3.35l2.84 3.99a.71.7-27.8 0 0 .81.25l8.82-3.18q.45-.17.45.31l.01.41q0 .18-.17.24l-8.73 3.12q-.4.14-.48.57-1.13 6.4 4.78 7.84l.02 1.33c-.96-1.06-2.92-.85-4.22-2.4q-.69-.82-.69.25v10.43q0 .83.47.15l4.58-6.58 1.07.26q.05.73-.23 1.14-2.73 3.95-5.49 7.74a.54.54 0 0 0 0 .62l10.94 15.51a.39.39 0 0 0 .64 0l6.19-8.86q.43-.61-.28-.83l-5.91-1.79q-.87-.26-.83-1.17l.51-11.81.97-.45 4.49-6.27a.37.36-54.7 0 1 .5-.09l.22.15q.24.16.08.4-2.2 3.27-4.44 6.45-.27.39.19.86-.82.59-1.19.17l-.26 10.32q-.01.63.62.69 2.87.26 5.59 1.44a1.13 1.12-60.6 0 0 1.37-.39l3.45-4.91q.4-.12 1.05-.01l.02 4.69q0 .57.55.41l2.23-.62q.08 1.03.85.99-2.31 3.68-4.83 6.99-1.36 1.79-2.18 2.1-4.08 1.56-8.22 2.93-.48.16-.49.66l-.19 9.68h-.87l-.09-9.68q0-.5-.29-.91l-11.61-16.54q.7-.94-.06-2.14l-.2-11.19q-.01-.52-.5-.35l-6.03 2.01q.07-.37-.41-.89l6.77-2.5a.64.63 66.1 0 0 .34-.89c-1.79-3.51-4.59-5.57-4.01-9.91q.34-2.58-1.04-.38c-.76 1.2-1.8 2.35-1.77 3.82q.04 2.51 0 4.98 0 .25-.25.27l-.37.02a.32.32 0 0 1-.34-.32l-.04-4.07q-.01-.54-.31-.1l-2.86 4.27q.1.34-.91.25l-.35-14.44q-.05-2.34-1.42-.44l-4.98 6.94q.39-1-.19-1.42l5.74-7.44q.29-.38.16-.83l-.18-.59q.15-.54.04-1.04.46.74.85.11a.39.38 37.9 0 0-.07-.48q-.45-.43-.82-.12.18-.58-.01-.95l.46-.38q.39-.31.4-.81l.07-4.4zm.72 10.33q.08.8-.1 1.41-.13-.27-.26-.32-.26-.1-.26.18l-.01 11.35q0 .51.35.15 1.98-2.03 3.12-4.61.69-.09 1.42-1.26l-.03-8.38q0-.52-.51-.42-2.69.52-3.72 1.9m7.67 8.17q-.23 3.31 2.63 6.16.41.41.42-.18.01-3.35-2.86-6.06-.17-.16-.19.08m24.67 29.54q-.43.64.32.81l1.04.24q.61.14.81-.46.52-1.59.24-3.17-.15-.79-.6-.12zm2.27 2.82-2.82-.94a.91.91 0 0 0-1.04.34l-5.71 8.08q-.58.81.36.47l6.7-2.42a2.17 2.16 7.8 0 0 1.06-.8l4.78-6.69q.41-.57-.27-.4-1.76.43-2.02 1.75-.18.89-1.04.61"/><path fill="#f9c3b7" fill-opacity=".996" d="m142.78 0 .06 4q0 .23.22.28l2.52.62q.23.06.24-.18l.09-4.72h.8l.09 4.77q.01.52.51.66l5.06 1.37q.46.12.25.56l-.12.23q-.11.22-.35.16l-4.81-1.26q-.54-.14-.56.42l-.09 2.45q-.01.26-.27.29l-.37.05q-.22.03-.22-.2l-.03-2.81q0-.63-.6-.8l-1.92-.57q-.61-.18-.98.34l-3.05 4.22q-.44-.14-1.14.03l3.5-5.14q.28-.41.29-.91l.05-3.86z"/><path fill="#f9c3b7" fill-opacity=".996" d="m154.97 0 .05 15.76q0 .51-.29.94-5.69 8.33-11.45 16.55-.1.14-.22.27-.2.2.36.38l-.97.45q-.83-1.13-2.95-1.44-.47-.06-.47.41l.06 4.71q.01.34-.33.35h-.27q-.38 0-.38-.37l-.09-5.44q0-.22-.18-.35-.16-.11-.31-.14-.41-.09-.46.33l-.16 1.39-1.07-.26-.14-1.85-.02-1.33.08-6.41q.01-.34.34-.36l.39-.02q.45-.02.45.42l.06 6.76q0 .25.25.27l.47.05q.31.02.31-.28l.06-2.63a.3.3 0 0 1 .28-.29l.35-.03q.38-.04.37.34l-.04 2.83a.9.89 10.7 0 0 .59.85l1.85.67q.5.18.81-.26l5.8-8.26q1.17-.09 1.21-1.33l4.5-6.45a1.52 1.5-28 0 0 .27-.86L154.2 0zM163.78 0q3.36 2.88 3.38 5.47.08 8.89.03 17.45-.01 1.2.68.22l10.22-14.5q.26-.38.26-.85l.02-7.79h.94l.09 7.49q.01.56.55.71l8.91 2.47q.31.09.2.39l-.14.37a.37.36-71.8 0 1-.43.22l-8.84-2.51q-.45-.13-.75.23-1.55 1.86-2.96 4.06-1.07 1.68-1.05 3.87.07 8.76.01 17.26 0 .51.42.8.96.66 2.44.84-.17.8-.69.66c-4.5.08-2.78-2.83-3.21-5.37q-.1-.59-.44-.1l-4.45 6.33a.39.39 0 0 1-.5.12l-.35-.18q-.24-.12-.09-.33l5.49-7.83q.4-.57.4-1.26l-.01-11.18q0-.78-.45-.14l-5.54 7.92q-1.72 2.45-1.72-.54V5.45q0-.57-.32-1.05L162.96 0z"/><path fill="#f7a206" fill-opacity=".996" d="m168.79 0-.04 5.84q0 .32-.31.29l-.36-.02q-.23-.02-.23-.25l.1-5.86zM190.86 0q.32 1.5-.25 2.29-.36.49-.58-.08-.35-.93.02-2.21zM206.84 0l-.02 11.2q0 .26-.25.26l-.34-.01a.26.25 0 0 1-.26-.25l.01-11.2z"/><path fill="#f8c1cb" fill-opacity=".996" d="M212 0c.18 2.18-.05 7.36 1.81 8.65q.42.29.42-.22L214.18 0h.93l.02 9.59q0 .56.34 1.01l2.24 2.98c1.62 2.17 5.18 2.59 7.82 3.28q.43.11.84-.04l5.91-2.14q.59-.21.18-.69-.5-.58-.58-1.37-.41-4.54-.71-9.49a1.29 1.29 0 0 1 .84-1.29L236.94 0h1.45l.35.17q.53.25-.02.43l-6.18 2.06a.57.57 0 0 0-.39.59q.39 4.48.65 8.94.04.62.41 1.11.47.61 1.12.66.3.44.75.72-.28-.1-.36.2a.28.28 0 0 0 .05.27l4.21 5.14q.35.42.87.57l9.17 2.54a.3.29 16.1 0 1 .21.37l-.08.3q-.11.38-.49.27l-8.86-2.47a3.49 3.47-11.5 0 1-1.78-1.17L234 15.74a.94.92-27.7 0 0-.99-.3q-2.35.69-4.49 1.6-.84.36-.05.8.18.1.22.31.14.7-.55.51l-9.18-2.57a1.58 1.55 77.3 0 1-.8-.52l-3.14-3.84q-.39-.47-.74.03l-5.08 7.2a.31.31 0 0 1-.46.05l-.23-.22q-.25-.22-.06-.5l5.14-7.33q.34-.48-.02-.93l-1.58-2.01q-.35-.44-.39-.99L211.02 0z"/><path fill="#f7a206" fill-opacity=".996" d="M256.13 0q1.07.42 1.01 1.12-.03.36.19.64l.89 1.16q.26.33-.03.64-.13.16-.36.16-.17 0-.28-.13l-1.34-1.61a2.15 2.14-47.3 0 0-3.41.14l-5.34 7.55a.58.57 43.6 0 0 .02.69l5.79 7.07a1.28 1.26 78.1 0 0 .66.44l9 2.47q.52.15 1.03-.03l8.8-3.16q.33-.11.52.17l.15.22q.25.36-.17.5l-9.21 3.29q-.62.22-1.26.04l-9.27-2.59a1.95 1.9 77.3 0 1-.97-.63l-5.72-7.03q-.34-.42-.85-.24l-10.9 3.8q-.45-.28-.75-.72l11.11-3.99a2.6 2.56-82.3 0 0 1.24-.96L252.99 0z"/><path fill="#f8c1cb" fill-opacity=".996" d="M291.1 0q.22 2.94 2.35 5.3 1.78 1.98 3.64 4.09 1.4 1.6 3.37 2.31c2.05.74 5.6 1.55 7.07 3q-.37.51-.79.47l-6.41-2.36q-1.08-.39-.24.39c.99.93 1.88 1.99 1.98 3.38q.34 4.48.65 9.17.02.36-.33.31l-.41-.05a.31.3 2.6 0 1-.26-.27l-.64-9.23a1.99 1.98 25.8 0 0-.34-.97c-1.91-2.85-4.58-4.44-6.47-7.31a1.6 1.59-8.9 0 0-.91-.66l-7.79-2.18q-.66-.18-1.01.4l-4.48 7.45a1.96 1.9-32.3 0 0-.28 1.16l.66 9.38a.38.38 0 0 1-.35.4l-.35.04q-.25.02-.27-.23l-.73-9.9q-.04-.54.25-1.02l5-8.31a1.11 1.11 0 0 1 1.24-.5l6.8 1.9q1.48.41.48-.75-2.55-2.95-2.07-5.41z"/><path fill="#f9c3b7" fill-opacity=".996" d="m313.56 0 .08 5.52a.39.39 0 0 1-.39.39h-.73q-.34-.01-.34-.35l.03-5.56z"/><path fill="#f8c1cb" fill-opacity=".996" d="m337.64 0 .07 9.03q0 .5.29.91l4.85 7.01q-.36.57-.34 1.06-2.67-3.33-4.61-6.52-1.17-1.91-1.21-4.26-.07-3.61.08-7.23z"/><path fill="#f7a206" fill-opacity=".996" d="m351.42 0 .13 6.53q.01.55.53.69l4.05 1.15q.56.16.99-.21.95-.8 1.51-1.96l1 .04-1.15 2.11q-.24.43.2.65 2.31 1.17 4.58.02.32.82-.3 1.19-2.44.87-4.88-.31a.77.76 29.8 0 0-.97.26l-1.04 1.58q-.37.55.27.72l4.29 1.11q-.28.82-.74.89l-4.17-1.16q-.54-.15-.9.28l-1.08 1.31q-.36.44-.89.63l-6.58 2.35q-1.3.46-.75 1.72l.34.76q.48 1.11 1.6.65l10.93-4.47q.47.64 1.27.84.94 2.36 3.08 4.16l.69.6q1.02 2.8 2.69 3.28 4.6 1.34 9.26 2.57.29.08.25.38l-.03.29q-.05.39-.43.29l-8.3-2.1q-1.23-1.01-1.46-.04l-2.53-3.19q-.13-.17-.32-.06l-.23.16-.56-.75q.14-.12.16-.35.01-.21-.12-.37l-2.89-3.64q-.31-.4-.79-.23l-10.52 3.71q-.37.13-.26.5.05.16.2.24-.49.33-.68.72-.62-1.15-2.55-.18a1.07 1.07 0 0 0-.58.95l.14 14.69q-.09.28.09 1.11l-.35-.02q-.16-.01-.25.12l-7.25 10.3q-.37.52-.37 1.16l-.02 7.1q-.01.79.54.22l.35-.37q.39-.41.91-.6l9.21-3.33q.31-.11.37.21l.07.36a.37.37 0 0 1-.24.43l-8.88 3.18q-.55.2-.87.68l-5.3 7.88a1.41 1.4 62.5 0 0-.25.8l-.03 8.12q0 .62.61.48l1.68-.41q-.28-.05-.07.81-1.21.76-2.41.9a.71.7 86.4 0 1-.79-.7v-7.74q0-.79-.47-.15c-.59.81-1.36 1.59-2.33 1.95q-3.67 1.38-7.57 2.62a1.12 1.12 0 0 0-.78 1.07l-.04 9.03q0 .3-.3.31h-.33q-.28 0-.28-.28l-.02-9.26q-.01-.53-.3-.96l-6.5-9.66q.43-.66.42-1.09.08-3.57-.04-7.02c-.08-2.09 2.77-5.42 3.71-6.6q.32.66.85.97l-2.71 3.93q-.29.43-.29.94l.02 9.17q0 .56.32 1.01l4.99 7.1a.66.65-27.6 0 0 .77.24l8.42-3.07q.58-.21.93-.72l4.77-7.06a1.94 1.93-28.1 0 0 .33-1.08l.06-7.26q0-.55-.34-.11l-1.71 2.25q-1.59 2.09-1.59-.53l.02-8.93q0-.5.27-.93l3.66-5.74q.4-.59.78-.78.89-1.24 1.31-1.39 1.38-.49.56.72-2.58 3.78-5.29 7.49-.3.42-.3.93l-.02 7.21q0 1.09.63.2l9.98-14.08q.31-.45.32-1l.24-14.66q.01-.51-.48-.35l-4.03 1.33q.06-.5-.09-.95l4.33-6.49q-.02-.49.34-1.06.1.2.27.26.4.15.61-.23c1.01-1.81.67-4.34.67-6.33q-.01-1.51 1.45-3.47 2.59-3.48 4.84-7.18zm-5.05 13.12c1.23-1.73 4.25-5.12 4.15-7.2q-.07-1.39.03-2.73.06-1.02-.52-.19l-4.25 6.02a1.88 1.84 64.6 0 0-.33.96q-.12 2.94-.06 4.03.01.26.21.35.38.17.47-.24.04-.22.07-.42.04-.32.23-.58m.42 1.16a.31.31 0 0 0 .36.47l7.32-2.67a.3.3 0 0 0 .15-.11l1.53-2.14a.31.31 0 0 0-.17-.48l-4.54-1.25a.31.31 0 0 0-.34.12zm6.606-.448a.31.31 0 0 0-.4-.18l-7.338 2.758a.31.31 0 0 0-.181.399l.007.019a.31.31 0 0 0 .4.18l7.338-2.758a.31.31 0 0 0 .181-.399zm-8.836 5.838q0-.26-.13-.53-.25-.52-.41.03-.43 1.44-.17 2.92.03.14.16.11l1.24-.25a.25.25 0 0 0 .16-.38q-.4-.62-.73-1.32-.13-.27-.12-.58m-2.25.94-1.55 2.23q-.46.66.33.52 2.07-.37 1.81-2.61-.1-.84-.59-.14"/><path fill="#f9c3b7" fill-opacity=".996" d="M358.26 0q.63.33.87 0h.68l-.18 6.24-1-.04.07-4.78q.01-.71-.67-.53l-2.17.56q-.69.18-.45-.5.21-.58 1.56-.95zM371.89 0q2.73 1.45 3.33 0h.66l.27.84q.16.49.66.63l3.54 1.02q.52.15.66-.37.09-.31-.26-.61-.95-.8-1.06-1.51h.85q.84.57 1.46 1.4-.01.15 0 .31l-.42 1.58q-.12.48-.59.37-2.76-.62-5.36-1.53-.52-.18-.83.12l-.85-.29q-1-.72-2.39-.84a.86.86 0 0 0-.79.36l-4.49 6.41q-.28.46-.36.83l-3.65 4.9q-.28.37.16.5l2.31.67q.34.11.22.44l-.12.31a.28.27-71.5 0 1-.33.17l-2.54-.72q-.5-.15-.81.28l-1.5 2.1q-.8-.2-1.27-.84 1.03-.88 1.5-2.07.46-.07.74-.89l2.33-3.36q.62-.37.3-1.19.79-.26 1.32-.93 3.07-3.93 5.83-8.09z"/><circle cx="86.18" cy=".73" r=".62" fill="#f7a206" fill-opacity=".996"/><path fill="#f7a206" fill-opacity=".996" d="m374.8 2.25-1.76 2.59q-.45.66.34.52l1.23-.2q.5-.09.99.05l6.4 1.77v.9l-6.87-1.77q-.47-.12-.93.04l-6.15 2.19q-.5.18-.56.7l-.08.71q-.44-.09-.91.22.14-.88-.58-1.25.08-.37.36-.83l3.83-1.41a1.71 1.63 7.4 0 0 .75-.55l3.09-3.97z"/><rect width="1" height="10.72" x="101.62" y="2.89" fill="#f7a206" fill-opacity=".996" rx=".48"/><rect width="1" height="10.56" x="-.5" y="-5.28" fill="#f9c3b7" fill-opacity=".996" rx=".48" transform="rotate(.2 -3378.241 48870.7)"/><path fill="#f9c3b7" fill-opacity=".996" d="M338.18 24.5q.15.45.09.95L319.97 32q-.54.19-.53.76.12 9.66.06 18.57-.03 3.41-1.73.46-.12-.19-1.12-1.17-.53-.31-.85-.97-.58-1.79-2.43-3.74l-1.06-.93-.15-7.24a2.71 2.61 87.9 0 0-2.75-2.65q-.42.02-1.43.69-.42.28-.42.79l-.05 9.51q-.7-.11-1.31.01l.01-10.09a.83.83 0 0 1 .54-.78l2.5-.96q.6-.22.23-.75l-2.81-4.02q-.24-.34.13-.53l.26-.13q.22-.12.37.09l2.96 4.16a1.21 1.21 0 0 0 1.81.18q1.6-1.5 3.16-3.8.6-.88 0-1.76l-2.75-4.02.85-.71 2.77 3.78q.49.65.95-.01l1.18-1.67q.17-.25.43-.12l.36.18q.29.14.11.4l-1.52 2.22q-.31.44-.07.93.53 1.1 1.45 2.02.37.37.86.19l8.05-2.87q.55-.19.88-.66l5.28-7.44q.3-.44.3-.97l-.03-9.43a.26.25-90 0 1 .25-.26l.33-.01q.47-.01.46.46l-.04 9.44q0 .7-.4 1.26l-4.17 5.91q-.7 1 .44.59zm-21.43 7.86q.04.2-.14.27l-2.59 1q-.58.22-.56.83l.27 9.49q.01.54.32.99l2.11 3.03q.3.44.65.05c1.06-1.15 1.69-1.98 1.68-3.69q-.03-5.84.02-11.59 0-1.15-1.69-2.85-.35-.35-.65.05l-1.46 1.99q-.4.55.23.31l1.29-.48q.38-.15.46.26zm-5.02 2.35q.14.47.26.57.78.58.6-.37-.09-.5-.59-.54a.27.26-6.9 0 0-.27.34m6.86 13.94a.17.17 0 0 0-.3-.14l-.59.75q-.35.45.08.82l.47.41q.59.51.37-.24-.24-.77-.03-1.6"/><rect width="1" height="10.66" x="-.5" y="-5.33" fill="#f7a206" fill-opacity=".996" rx=".48" transform="rotate(-35.2 70.076 -142.976)"/><path fill="#f9c3b7" fill-opacity=".996" d="M367.41 9.75q.15 2.26.07 4.51-.08 2.29-1.32 4.18-1.23 1.85-2.73 3.69l-.69-.6q1.3-1.77 2.46-3.51 1.18-1.76 1.26-3.85.08-2.1.04-4.2.47-.31.91-.22M119.25 10.33q2.98 3.41 4.26 6.9-.73 1.17-1.42 1.26c.33-3.06-1.41-4.58-2.94-6.75q.18-.61.1-1.41M89.89 48.79q-.51.5-.1 1.32l-10.31 3.73q-.46.16-.47.66l-.16 9.72h-.88q-.12-4.6 0-9.23.04-1.39-1.62-3.12-.45-.46-.81.07c-1.38 1.99-2.67 2.92-2.68 5.69q0 3.91-.04 7.91-.26.31-.87.24-.2-4.39-.06-8.84c.06-1.87 1.41-4.09 2.48-5.09q1.34-1.25.18-2.65c-1.45-1.75-2.77-3.31-2.72-5.71q.05-2.27-.02-4.48-.01-.54-.52-.73l-2.78-1.04a.29.29 0 0 1-.09-.49l.38-.35q.06-.05.13-.03 1.29.41 2.27.83.74.32.66-.48c-.11-1.19-.08-2.3.63-3.31q2.68-3.77 5.31-7.51.18-.27.47-.11l.24.13q.34.19.12.51-2.25 3.36-4.78 6.71-1.33 1.77-.95 4.13.09.52.58.7l4.11 1.46q.65.23 1.04-.33l5.03-7.11a2.04 1.97-28.5 0 0 .36-1.14L84 21.92q0-.67-.38-1.21L78.18 13q-.1-.15-.01-.29l.19-.29a.38.38 0 0 1 .63-.01l5.59 7.91q.41.58.41 1.28l-.01 9.55q0 .71-.4 1.28l-5.45 7.7a1.21 1.2 27.7 0 1-1.39.43l-4.27-1.54a.5.5 0 0 0-.66.5q.11 1.75-.01 3.51c-.14 2.14 1.77 3.96 2.91 5.61q.49.7.97-.01l1.09-1.65q.19-.28.5-.13l.28.15q.32.16.12.45l-1.54 2.25q-.34.5.02.99l1.35 1.88q.32.43.81.25l8.07-2.89q.62-.22 1-.76l5.2-7.33q.34-.48.34-1.07v-9.5a.3.29-1 0 1 .29-.29h.42q.3 0 .3.3l-.02 9.84q0 .53-.31.96z"/><rect width="1" height="10.68" x="49.79" y="13.67" fill="#f7a206" fill-opacity=".996" rx=".48"/><path fill="#f7a206" fill-opacity=".996" d="M149.31 22.68q-.04 1.24-1.21 1.33l-.05-9.6q0-.21.21-.24l.29-.04a.34.34 0 0 1 .39.32zM313.46 22.97l-.85.71-5.87-8.51q.42.04.79-.47z"/><path fill="#f8c1cb" fill-opacity=".996" d="m294.94 20.62-9.66-2.71a.25.25 0 0 1-.18-.29l.1-.5a.25.25 0 0 1 .32-.19l9.99 2.82a.25.25 0 0 1 .13.08l6.73 8.22a.25.25 0 0 1 .06.14l.78 10.33a.25.25 0 0 1-.24.27l-.51.01a.25.25 0 0 1-.26-.23l-.74-9.99a.25.25 0 0 0-.06-.14l-6.33-7.74a.25.25 0 0 0-.13-.08"/><path fill="#f7a206" fill-opacity=".996" d="M190.79 37.28q-.19-.11-.38-.08-.15.03-.26.2-.11.19-.16.36-.56-.29-1.79.14.21-.47-.04-1.2 1.98-.39 1.9-2.01-.04-.98.7-.33.18.16.15.42-.1.93.78.6 3.12-1.16 6.61-1.9.56-.11.23-.58-.56-.81-.3-1.81.18-.69-.51-.89l-3.08-.85a1.18 1.17-82.2 0 1-.85-1.13l-.01-9.68q0-.31.31-.31h.33q.37 0 .37.37l-.01 9.34a.55.54-83.3 0 0 .41.53l2.56.66q.42.1.42-.33l.06-6.17a.26.26 0 0 1 .26-.26l.36.01q.35 0 .35.35l.01 6.07q0 .69.65.9c1.83.6 4.03 1.6 5.96.85q4.27-1.64 8.13-2.89a.36.35-14.8 0 1 .46.26l.05.28q.04.18-.14.25-3.9 1.55-8.09 2.97c-2.57.87-4.23-.04-6.58-.68a.33.32-80.8 0 0-.41.3l-.08 1.96q-.02.55.52.7l8.35 2.32q.44.12.38.57l-.04.3a.21.21 0 0 1-.27.18l-9.36-2.61q-.51-.14-1 .05zM40.82 41.66q-.25.16-.92.18l-.01-10.26q0-.53.31-.97l5.67-8.02q.17-.24.43-.1l.3.18q.31.17.11.46l-5.36 7.58q-.51.72-.51 1.6z"/><path fill="#f8c1cb" fill-opacity=".996" d="M155.09 42.71q-.65-.11-1.05.01l.01-12.85a.41.41 0 0 1 .6-.36q.23.13.31.39.24.8.7.1.62-.96 1.24-1.81.43-.59.01-1.19l-2.58-3.66q-.23-.32.12-.48l.3-.14a.35.35 0 0 1 .43.11l2.43 3.38q.34.46.67 0l1.74-2.49q.2-.27.48-.1l.24.13a.38.38 0 0 1 .12.55l-2.02 2.86q-.34.5.04.96c1.11 1.33 2.31 2.8 2.29 4.62q-.06 4.59-.03 8.82 0 .43-.43.36l-.32-.05q-.27-.04-.26-.31.04-4.31 0-8.53c-.01-1.92-.77-2.64-1.78-4.02q-.4-.54-.79.01l-2.09 2.94q-.32.44-.33.99zM347.55 22.82l3.47 4.7q.31.42.8.23 3.96-1.51 7.89-2.84c.98-.33 1.54-1.12 2.06-1.95l.56.75q-.65 1.55-1.89 1.99-4.3 1.5-8.4 3-.59.22-.58.84l.02 3.89q.01.46.42.67.83.41 1.62.16.5-.16.76-.61c1.24-2.19 2.17-3.6 4.81-4.45q3.2-1.03 6.32-2.4.23-.97 1.46.04l5.32 6.62a.96.94-49.1 0 1 .07 1.08l-4.79 7.94a2.16 2.11-32 0 0-.31 1.27l.66 8.93q.04.57.4 1.02l6.04 7.38a.37.37 0 0 1-.15.58l-.35.14q-.16.06-.27-.07l-6.25-7.65q-.36-.45-.4-1.02l-.72-9.67q-.04-.52.23-.97l4.65-7.74q.26-.44.06-.91-.65-1.56-1.99-2.49-.37-.17-.67-.56-.45-1.54-1.96-2.61-.42-.3-.92-.13l-7.57 2.7q-.54.19-.87.65l-2.01 2.79q-1.17 1.64.72.96l9.46-3.36q.15-.05.25.07l.24.26q.36.41-.15.59l-9.19 3.31q-.49.18-1.01.09l-1.04-.16q-.48-.08-.76.33l-2.03 2.99a1.55 1.54-56.7 0 0 .44 2.16q1.04.68 2.74-.06-.09.74.58.94l8.17 2.36q.23.06.17.29l-.07.3q-.11.41-.51.3l-11.12-3.09a.39.39 0 0 0-.5.37l-.01 6.63q0 .28-.28.27l-.29-.02q-.34-.01-.35-.36l-.02-6.61a.92.92 0 0 0-.66-.87l-5.88-1.7q-.18-.83-.09-1.11l5.59 1.75q1.01.32 1.01-.73l.02-4.54q0-.8-.77-1l-3.93-1.04q-.39-.1-.3-.5l.08-.32q.05-.21.26-.16l4.11 1.08q.56.15.56-.43-.01-1.62.01-3.15c.02-2-2.47-4.73-3.65-6.42q.19-.39.68-.72m5.1 13.1q.49-.52-.21-.65-1.14-.21-1.22 1.06a.44.43 68.5 0 0 .75.33z"/><path fill="#f9c3b7" fill-opacity=".996" d="M335.35 39.05q-.38.19-.78.78l-.08-9.37q0-.36.35-.36h.29q.3 0 .3.3z"/><path fill="#f7a206" fill-opacity=".996" d="M368.4 30.72q.3.39.67.56c-1.18 1.96-4.27 7.38-6.34 8.14q-3.58 1.31-7.41 2.82-.67-.2-.58-.94 3.3-1.09 6.5-2.4 1.87-.76 3.09-2.42 2.06-2.79 4.07-5.76M179.38 36.74q.19.42-.52.76-1.41 1.31-2.63 3.22-.51.82.28.27c.64-.43 1.69-.74 2.47-.56q5.17 1.18 9.77 2.88a.33.33 0 0 1 .09.57l-.23.18a.87.84-55.8 0 1-.77.16l-9.13-2.55q-.64-.18-1.26.06l-8.5 3.25q-.6.24-.97.77l-3.88 5.65q-.46.66.29.39l7.37-2.68q.2-.07.3.12l.23.45q.15.3-.16.41l-8.75 3.06q-2.42.84-.94-1.24l4.1-5.8q.47-.65-.3-.41l-1.14.35q-.66.2-.38-.43.15-.35.48-.5 3.82-1.77 7.49-2.89c2.3-.7 3.4-2.93 4.65-4.79q.11-.16.05-.35t-.32-.23q.52.14.69-.66.69-.12 1.02-.68.83-1.39 1.71-2.06.2-.15.36.04l.21.26q.16.19-.02.37-1.17 1.18-1.66 2.61M115.94 34.22l.18.93c-.93-.04-1.58-.25-2.49.06q-2.92.98-5.92 2.07-.48.17-.6.67l-.15.59q-.59-.3-.87.2.1-.72-.08-.75a1.42 1.41-65.8 0 0-1.42.55q-2.64 3.62-5.35 7.55-.32.46.04.89l5.65 6.91a1.69 1.67 77.6 0 0 .85.55l9.11 2.47a.39.39 0 0 1 .27.51l-.13.38q-.07.2-.28.14l-9.6-2.65a1.43 1.41-11.7 0 1-.74-.48l-5.9-7.18q-.33-.4-.82-.23l-7.9 2.71q-.41-.82.1-1.32l7.51-2.46a1.63 1.59 8.7 0 0 .78-.56c1.6-2.18 4.91-8.04 7.28-8.78q.49-.15.55-.66l.13-1.3a.28.27 8.6 0 1 .33-.24l.34.06q.37.08.31.46-.02.15-.06.3-.2.88.65.58c2.67-.92 5.38-2.39 8.23-1.97"/><rect width="1.46" height="10.76" x="290.12" y="33.97" fill="#f7a206" fill-opacity=".996" rx=".6"/><path fill="#f7a206" fill-opacity=".996" d="m119.01 36.46-.11-1.14 5.38 1.5q.37.1.15.42l-.15.22q-.11.16-.31.12z"/><path fill="#f8c1cb" fill-opacity=".996" d="M144.46 35.4q2.15 2.98 4.16 5.92.13.19.08.41-.03.14-.13.25a.46.45 48.8 0 1-.69-.05l-4.61-6.36q.37.42 1.19-.17M188.16 36.7q.25.73.04 1.2c-1.72.65-3.06 1.29-4.96.85q-2.09-.48-4.38-1.25.71-.34.52-.76 2.05.51 3.87.97 1.34.35 2.5-.02 1.23-.4 2.41-.99"/><rect width="1" height="10.6" x="-.5" y="-5.3" fill="#f8c1cb" fill-opacity=".996" rx=".48" transform="rotate(-39.3 199.26 -376.89)"/><path fill="#f9c3b7" fill-opacity=".996" d="M158.74 48.18q-.77.04-.85-.99l.1-9.45q0-.46.47-.45h.28q.07 0 .07.06.18 4.4.1 8.75-.01.65.61.46l2.66-.84q.17-.05.27.09l.16.24a.22.22 0 0 1-.08.32z"/><path fill="#f8c1cb" fill-opacity=".996" d="m190.79 37.28-.13 7.97q-.68-.01-.76-.61l.09-6.88q.05-.17.16-.36.11-.17.26-.2.19-.03.38.08"/><rect width=".98" height="10.72" x="-.49" y="-5.36" fill="#f9c3b7" fill-opacity=".996" rx=".46" transform="rotate(.1 -24927.244 48436.711)"/><path fill="#f8c1cb" fill-opacity=".996" d="m106.96 38.54.02 6.64q0 .27-.27.25l-.3-.02a.33.33 0 0 1-.31-.33l-.01-6.34q.28-.5.87-.2"/><path fill="#f9c3b7" fill-opacity=".996" d="m40.82 41.66 5.53 7.8q-.24.62-.49.84l-5.96-8.46q.67-.02.92-.18"/><path fill="#f7a206" fill-opacity=".996" d="m243.33 94.79-.88-.01-.01-10.3q0-.53.3-.97l7.92-11.18a.39.39 0 0 0-.21-.6l-7.9-2.19q-.55-.15-.91-.6l-5.75-7.05a.9.89 60.5 0 0-.99-.28l-18.65 6.67q-.44.16-.55-.29l-.08-.3q-.05-.21.15-.28l18.87-6.79a1.75 1.75 0 0 1 1.94.54l5.73 7a1.52 1.51 78.3 0 0 .79.52l7.82 2.12q.5.14.87-.22 3.11-3.02 2.82-6.85a.42.42 0 0 0-.55-.37l-4.47 1.46q-.21.07-.25-.14l-.09-.38a.31.31 0 0 1 .2-.36l4.45-1.61q.62-.22.62-.88l-.02-4.5a1.92 1.9-28.1 0 1 .35-1.13l5.56-7.88q.32-.46.84-.65l9.36-3.36q.32-.11.39.22l.08.37q.06.31-.24.42l-8.98 3.17a1.74 1.71 6.7 0 0-.83.64q-2.24 3.32-4.69 6.63c-1.29 1.74-.83 3.81-.84 5.82q-.01.54.5.36l2.56-.91q.79-.28.79.55l.01 10.28a2.45 2.41-28 0 1-.44 1.39l-5.48 7.8q-.34.49-.91.69l-8.52 3q-.66.24-.66.93zm11.38-26.43c-3.13 4.91-6.87 9.61-9.93 14.08q-.55.8.37.47l6.81-2.44q.51-.19.82-.63l5.25-7.45q.32-.46.32-1.02v-9.14q0-.53-.48-.32l-2 .86a.6.6 0 0 0-.37.57c.06 1.8.25 3.39-.79 5.02M131.37 82.76q-.04.69.19 1.26-1 1.79-2.01 1.21.08-.53-.01-.93l.24-19.63q.01-.54-.3-.98l-5.37-7.62q-.43-.61-.43-1.36l.03-9.72q0-.3.3-.24l.44.08a.3.3 0 0 1 .24.29v9.49q0 .55.32.99l5.05 7.17q.73 1.03.73 2.29v17.99q0 .29.27.18.17-.07.31-.47M190.66 45.25l-3.61 5.31a.34.34 0 0 0 .17.51q.15.05.38.03-.17.56.34.87.29.93 1.18 1.62.46.36.93.01.77-.55 1.27.29.26.44.76.58l6.41 1.78q.51.14 1-.04l8.82-3.16q.43-.16.59.27l.09.26a.26.26 0 0 1-.15.33l-9.33 3.36q-.51.19-1.03.04l-6.85-1.93q-1.44-.41-.5.75l4.25 5.22q.37.46.94.62l9.05 2.54q.51.14.24.6l-.13.22q-.1.17-.29.12l-6.24-1.69q-.3-.08-.2.22.04.15.25.23-.63-.13-.89-.37-1-1.06-2.24-.68-.68.21-1.08.93-.5.92-.22 1.52.24-.27.11.91c-2.17.75-2.95 2.93-4.09 4.76a.37.37 0 0 1-.59.05l-.16-.19a.38.37 40.6 0 1-.04-.44l1.57-2.61q.68-1.12-.37-.34-.9.68-1.9.65-.46-.01-.35-.46.13-.56.75-.66 3.57-.56 5.06-4.64.17-.47-.16-.85l-4.79-5.52-.99-.94q-.05-1.26-1.57-2.46a1.24 1.24 0 0 0-1.79.28l-3.04 4.48-1.53-.11 1.25-1.92q.7-1.08-.52-.65l-5.97 2.08q-.55.19-.54.78l.01 2.41q.01.59.57.4l3.22-1.14q-.01.99-.33 1.29-1.63.18-2.96.96-.44.26-.5.77-.18 1.52.31 2.94.22-.04.28 1.1-.16.6-.53.7l-.99.05-.09-4.62q-.03-1.24-.75-.23l-5.49 7.75q-.27.39-.28.86l-.05 8.16-1.23-.25.12-10.75q0-.3.29-.38.14-.03.29 0 .09.02.09.12 0 .37.18.54.37.36.66-.07c2.01-2.99 3.84-6.24 5.82-7.29q.41-.22.4-.68l-.05-3.03a1.18 1.16-10.9 0 1 .77-1.12l7.05-2.54a.66.63 82.3 0 0 .43-.59q.17-3.7-.16-7.09-.06-.61.49-.82.49-.2.66.3.76 2.21 2.57 3.91.45.42.8-.08l3.39-4.75q.08.6.76.61m-7.09 7.74q1.09-.87 1.59-2 .18-.42-.11-.77l-1.54-1.85a.17.17 0 0 0-.3.11l-.1 4.28q-.01.59.46.23M313.37 45.91l.03 1.79q0 .3-.3.33l-.26.02q-.4.02-.42-.38l-.11-2.69zM307.51 46.08v10.67q-.43.14-1.24-.01l-.07-10.65q.61-.12 1.31-.01M55.73 46.65q-.53-.11.73.65l-8.97 3.15q-.47.17-.48.66l-.09 9.68h-.97l-.09-10.49q.25-.22.49-.84.09.17.24.24.12.05.31-.01 4.17-1.5 8.83-3.04"/><path fill="#f8c1cb" fill-opacity=".996" d="M187.94 51.97q-.51-.31-.34-.87l6.78-2.44a.26.25-18.8 0 1 .33.16l.14.41q.07.23-.15.3z"/><path fill="#f7a206" fill-opacity=".996" d="m31.46 59.94-1.14.17-.38-11.02q-.01-.26.25-.26l.37.01q.25 0 .26.25.21 4.39.07 8.66-.04 1.27.57 2.19M281.44 58.24l-.04 10.07a.24.24 0 0 1-.2.24l-.47.08a.24.24 0 0 1-.28-.24l-.03-10.45a.24.24 0 0 1 .04-.14l5.96-8.45a.24.24 0 0 1 .26-.09l.52.13a.24.24 0 0 1 .14.37l-5.86 8.34a.24.24 0 0 0-.04.14M89.45 70.42q-.52.29-.87.77-.18.24-.35 0l-.17-.22q-.12-.17.01-.32c1.03-1.2 2.06-2.43 2.02-4.1q-.11-4.59.13-9 0-.12.13-.12h.3q.41 0 .41.41l.02 7.68a.32.32 0 0 0 .59.17l1.93-2.86q.32-.47.32-1.03l.01-9.51q0-.27.27-.26l.5.02q.23.01.23.25-.01 4.7-.01 9.3c0 1.99-2.49 4.59-3.57 6.33q-.29.47-.29 1.03l.02 9.34q0 .39-.39.35l-.27-.03a.37.35 3.7 0 1-.32-.35l-.06-7.5q0-.67-.59-.35"/><rect width=".98" height="10.68" x="-.49" y="-5.34" fill="#f9c3b7" fill-opacity=".996" rx=".46" transform="rotate(.1 -32981.84 30109.082)"/><rect width="1.06" height="10.58" x="302.46" y="54.37" fill="#f7a206" fill-opacity=".996" rx=".52"/><path fill="#f7a206" fill-opacity=".996" d="m345.88 74.56 9.71 2.73a.25.25 0 0 1 .18.29l-.11.48a.25.25 0 0 1-.31.19l-10.05-2.81a.25.25 0 0 1-.13-.08l-6.81-8.33a.25.25 0 0 1-.01-.31l6.17-8.81a.25.25 0 0 1 .13-.1l10.12-3.6a.25.25 0 0 1 .15-.01l9.91 2.7a.25.25 0 0 1 .18.27l-.05.53a.25.25 0 0 1-.32.22l-9.66-2.68a.25.25 0 0 0-.15.01l-9.49 3.34a.25.25 0 0 0-.13.1l-5.62 7.96a.25.25 0 0 0 .01.31l6.15 7.52a.25.25 0 0 0 .13.08"/><path fill="#f9c3b7" fill-opacity=".996" d="m188.62 55.33.99.94-2.62 3.66q-.7.97.42.54l.94-.36a.48.48 0 0 1 .65.36l.05.27a.34.33 74.4 0 1-.2.36l-3.4 1.43-.95.16-5.07 1.63q-.29.1-.3-.2l-.02-.46q-.01-.17.15-.23 2.06-.71 4.07-1.43c2.08-.74 2.98-2.96 4.35-4.58q.58-.7-.29-.47-2.9.75-5.38 2.21-1.51.88-3.36 3.46-1.45 2.03-3.14 3.92-.06-1.14-.28-1.1l3.15-4.67q.32-.3.33-1.29 1.14-.78 1.98-1.96l1.53.11zM307.51 56.75l4.62 6.52q.01.43-.42 1.09l-5.44-7.62q.81.15 1.24.01"/><path fill="#f8c1cb" fill-opacity=".996" d="M141.96 70.54h.87l.03 10.22q0 .53-.52.56-.37.02-.7-.29a.82.78 12.4 0 1-.17-.25q-.37-.85-.99-1.47-.49-.48-.88.08l-2.45 3.46a1.56 1.55 63.2 0 0-.3.92v8.89q0 .56.33 1.02l5.64 8.01q.29.4-.15.64l-.26.14a.61.61 0 0 1-.79-.18l-2.08-3q-.46-.66-.46.14l-.01 7.19q0 .56.32 1.02l5.51 7.82q.26.37-.14.57l-.28.13q-.18.09-.3-.07-2.8-3.79-5.38-7.57c-1.41-2.07-.69-7.76-.75-10.31-.04-1.46-1.02-2.54-1.86-3.63q-.32-.42-.33-.94l-.01-10.1q0-.57.32-1.03l2.89-4.11q.38-.54 0-1.08l-1.8-2.63q-.5-.73-.42.15c.08.88.02 1.66-.49 2.42q-2.31 3.44-4.79 6.76-.23-.57-.19-1.26l4.05-5.82a2.42 2.4 62.1 0 0 .44-1.45l-.19-8.81q-.02-.91-.54-1.65l-4.99-7.09q-.28-.4.13-.68l.23-.16q.11-.07.19.03 2.49 3.22 4.65 6.55.61.94.55-.17l-.05-.98a.38.37 86.1 0 1 .34-.4l.36-.04q.34-.03.35.31l.1 9.7q.01.54.32.98l2.35 3.32q.34.47.75.06c1.95-1.97 1.44-3.64 1.55-5.92m-.296 8.6a1.28.5 83.1 0 0 .342-1.33 1.28.5 83.1 0 0-.65-1.21 1.28.5 83.1 0 0-.342 1.33 1.28.5 83.1 0 0 .65 1.21"/><rect width="1" height="10.56" x="-.5" y="-5.28" fill="#f8c1cb" fill-opacity=".996" rx=".48" transform="rotate(-.1 36633.908 -90736.05)"/><path fill="#f8c1cb" fill-opacity=".996" d="M211.52 73.88q-.1.83.23 1.05l-6.34-1.77q-.48-.13-.79.25-1.4 1.73-2.62 3.59c-1.68 2.56-8.67 2.67-9.23 5.02q-.27-.02-.49.11-.39-.26-.87-.28-.19.51 0 .86l.02 7.82q-.41-.11-.88-.07l-.17-9.18a1.42 1.42 0 0 0-2.22-1.15q-1.84 1.25-4.42 1.93-.34-.65-.16-.96l-8.79-2.57a1.09 1.08 8.2 0 1-.78-1.04l-.02-10.2.99-.05-.02 9.94a.61.61 0 0 0 .47.59q3.57.85 7.47 2.09c1.99.63 3.56-.02 4.89-1.47q.35-.39.05-.82l-3.22-4.6.84-.34 2.76 3.88a.5.5 0 0 0 .81-.01l6.9-9.87q.35-.51-.26-.43-.43.05-.99.32.13-1.18-.11-.91l3.54-1.77q.26.24.89.37l5.38 6.45q.32.39.7.06 1.35-1.17 1.37-2.22.09-4.68.09-9.57.01-.41.42-.41l.26-.01q.21 0 .21.21.07 4.46.07 8.92c.01 1.73-.7 2.78-1.72 4.02a.43.43 0 0 0 .22.69zm-10.77-4.77q-3.4 5.48-7.19 9.68-1.27 1.41.52.78l5.86-2.09q.71-.26 1.14-.87l2.49-3.58q.64-.93-.07-1.81l-4.26-5.24q-.89-1.1-1.69.07-1.84 2.69-3.68 5.23c-.97 1.33-.81 2.76-.78 4.32q.05 2.33 1.11.26 1.03-1.99 2.54-3.3c1.53-1.32 2.16-2.48 3.28-3.98a.29.29 0 0 1 .4-.07l.25.17q.24.18.08.43m-8.74 7.99q.23-1.09.21-2.71 0-.85-.49-.15l-2.22 3.24q-.36.53.27.63.48.08.97-.01 1.1-.2 1.26-1m-1.26 2.07a.37.37 0 0 0-.28.36q0 .25.23.34.37.15.76.02a.4.4 0 0 0 .08-.72q-.24-.14-.79 0"/><path fill="#f9c3b7" fill-opacity=".996" d="m31.46 59.94 5.15 7.18q.31.44.83.63l7.98 2.81q.47.17.47-.33l.03-2.13a.59.59 0 0 0-.4-.57l-2.58-.91q-.38-.13-.37-.54 0-.14.1-.25.13-.14.31-.08l2.23.69q.64.19.65-.47l.09-5.18h.97q-.02 4.58.04 5.96.02.33.5.56l-.03.99q.09-.28-.23-.15a.4.38 81.1 0 0-.24.35l-.05 2.77a.64.63-79.5 0 1-.85.59l-9.26-3.3q-.53-.18-.85-.63l-5.63-7.82z"/><path fill="#f7a206" fill-opacity=".996" d="M165.85 81.72q-.03.81.48 1.44-1.44.61-1.38 1.84.07 1.52 1.24 1.65l-.21 1.84-1.68-2q-.39-.47-.74.03l-5.67 8.1a.99.98-69.5 0 0 .7 1.54q2.39.25 3.53-1.62l1.14.01q-.13.14-.05.24t.19.05q1.39-.71 2.18-2.34.54.51.53 1.06c-1.61 2.25-3.32 2.6-6.48 3.5q-.25.07-.33.33-.05.12-.09.25l-.57.59q-1.55-.61-3.07.44-.42.29-.43.8l-.11 9.32q-.58.13-.95-.04.18-3.19-2.29-5.69-.36-.37-.38.15-.12 3.24.01 6.5c.09 2.16 1.28 3.51 2.54 5.11q-.56.32-.2 1.33l-2.01-2.51q-.38-.48-.37.13l.02 1.46-1.39-1.04-.08-13.1q-.01-.51-.26-.94l-1.52-2.62q.66.04.91-.11l4.43 6.25q.55.77.54-.17-.02-1.74.07-3.41.07-1.38-1.39-3.45-1.75-2.49-3.57-5.04l.36-1.13 4.68 6.49q.3.43.69.08 2.26-2-.24-4.25-.4-.36-.23-.85a.5.5 0 0 1 .88-.11l1.23 1.83q.4.59.81.01l5.63-8q.42-.6.01-1.19l-2.53-3.69a1.64 1.64 0 0 1-.29-.93v-9.73q0-.56.33-1.02l5.69-8.03q.3-.42.65-.03l.19.21q.13.15.02.31l-5.49 7.76q-.3.44-.32.97-.18 4.18-.07 8.59c.04 1.88 1.39 3.34 2.54 4.72q.33.4.66-.01zm-8.82 14.602a.39.32-39.5 0 0-.504.001.39.32-39.5 0 0-.097.495.39.32-39.5 0 0 .505-.001.39.32-39.5 0 0 .097-.495"/><rect width="1" height="10.6" x="-.5" y="-5.3" fill="#f8c1cb" fill-opacity=".996" rx=".48" transform="rotate(-.1 38777.618 -65443.81)"/><path fill="#f7a206" fill-opacity=".996" d="m185.45 62.53.01 10.1-.84.34-.12-10.28zM78.85 64.22l-.02 21.5q-.49-.12-.85.03l-.01-9.73a3.5 3.44 28.8 0 0-.57-1.9l-5.45-8.34q.61.07.87-.24l4.73 6.8q.33.48.34-.1l.08-8.02z"/><rect width="1" height="10.52" x="-.5" y="-5.26" fill="#f7a206" fill-opacity=".996" rx=".47" transform="rotate(-.1 41057.822 -104643.613)"/><path fill="#f7a206" fill-opacity=".996" d="M58.23 89.26q-.04-.5-.3-.78l.03-9.85q0-.55-.33-.99-2.07-2.71-3.93-5.64c-1.47-2.31-3.74-3.06-6.27-3.7l.03-.99c2.7.65 4.85 1.19 6.6 3.6q2.38 3.28 4.66 6.65.31.45.32 1 .08 4.65.01 9.56 0 .38-.2.69-.25.39-.62.45M211.57 84.46q-.03-.56-.64-.81 1.41-1.48 1.38-3.39-.05-2.92-.56-5.33-.33-.22-.23-1.05l.6-.44q.4-.29.7.09.14.17.25.35 1.16 1.79 1.13-.34-.02-2.02.04-4.34.01-.4.35-.55.42-.19.47.26.28 2.29.08 4.89-.05.71.36 1.3a.7.69-45.9 0 1 .01.77q-.52.81-.36 1.8c.36 2.19-1.52 3.22-1.6 5.32q-.02.47-.49.49-1 .03-1.49.98m2.41-5.14q.49-1.76-.02-3.7a.33.33 0 0 0-.63 0q-.53 1.89-.06 3.7.34 1.33.71 0M149.3 84.98 148.07 86l.03-6.56q0-.48.28-.87l5.64-7.98q.07-.11.21-.08l.29.07q.57.12.25.6-2.17 3.31-4.68 6.59c-1.59 2.08-1.28 4.76-.79 7.21M104.95 90.48q-.16.18-.93.22l-.12-10.48q-.01-.54.31-.99l5.64-8a.29.29 0 0 1 .41-.07l.27.19q.3.22.09.53l-5.4 7.65q-.31.45-.31.99z"/><path fill="#f9c3b7" fill-opacity=".996" d="M335.77 75.75q.1.51.02.94l-.04 5.67q0 .54-.54.56l-.42.01q-.59.01-.59-.58 0-2.26.11-4.6.01-.42-.48-.52-.21-.86.07-.81.53-1.7.37-3.72a.49.48 85.8 0 1 .44-.52l.34-.02q.61-.04.63.57z"/><rect width="1" height="10.6" x="96.15" y="72.77" fill="#f7a206" fill-opacity=".996" rx=".48"/><path fill="#f7a206" fill-opacity=".996" d="m287.4 77.74.43 20.31a.25.25 0 0 1-.25.25l-1.19-.02a.25.25 0 0 1-.24-.26l.47-21.04a.25.25 0 0 1 .16-.23l9.69-3.5a.25.25 0 0 1 .31.14l.2.46a.25.25 0 0 1-.14.33l-9.27 3.32a.25.25 0 0 0-.17.24M335.79 76.69q.08-.43-.02-.94l4.81-1.86q.27-.1.4.16l.14.28a.37.36-23.2 0 1-.21.51zM168.07 90.61q-.47-.35-.45-.86l2.11-3.06q.28-.4.28-.89l.08-9.66a.35.35 0 0 1 .25-.32l.41-.12q.33-.1.33.25v17.62q0 .39-.4.38l-.31-.02q-.31-.01-.31-.32l-.01-4.64q0-.97-.59-.19zM313.38 86.07q-.11.21-.76.46.14-.11-.06-.38-.15-.2-.15-.45v-9.47a.39.38 3.3 0 1 .43-.38l.3.03a.28.28 0 0 1 .25.28z"/><path fill="#f8c1cb" fill-opacity=".996" d="M129.54 84.3q.09.4.01.93l-2.05-.59q-.47-.13-.5.35c-.08 1.1-.04 2.02-.7 2.96q-2.51 3.57-4.94 6.99a4.36 4.35 8.4 0 1-2.16 1.6l-8.1 2.75a1.2 1.2 0 0 1-1.36-.45l-5.72-8.14q.77-.04.93-.22l5.3 7.36q.31.42.79.25l7.18-2.5q1.17.16.95-.31.54.1.93-.43 3.12-4.21 5.67-8.06a2.15 2.15 0 0 0-1.06-3.21l-4.29-1.55a.29.29 0 0 1-.19-.36l.09-.29q.1-.35.45-.23l4.6 1.58a.4.4 0 0 0 .53-.38l.04-5.78q0-.29.29-.28l.3.01a.39.39 0 0 1 .38.38l.03 6.06q0 .53.48.72z"/><path fill="#f9c3b7" fill-opacity=".996" d="m149.5 90.47-.36 1.13-.08 5.82q-.25.15-.91.11L148.07 86l1.23-1.02 4.76-6.7q.24-.33.52-.04l.21.22q.11.11.02.25-2.63 4.13-5.58 8.02-1.1 1.46.27 3.74"/><path fill="#f7a206" fill-opacity=".996" d="m227.31 88.56-.95-.1q.01-.15-.07-.29a.79.78-10.1 0 0-.6-.41q-2.71-.29-4.02-2.17-1.3-1.85-2.19-2.6-.12.58-.9.18-.31-2.43-2.16-4.16-.24-.22-.01-.45l.19-.18a.37.37 0 0 1 .54.01q2.66 2.93 5.33 6.51 1.19 1.61 3.23 1.87.63.09.63-.55l.03-3.26q.01-.44.44-.38l.28.04q.27.04.27.31l.01 3.61q.01.66.64.84l5.38 1.51q.15.04.12.18l-.06.31a.49.48 12.7 0 1-.59.37q-2.56-.63-5.1-1.46-.21-.06-.44.27"/><path fill="#f9c3b7" fill-opacity=".996" d="m167.33 79.21-.2 6.91q-.02.68.65.57l.48-.08q.87-.15.31.53-.95 1.15-1.52 2.52-.27.67.17.42.16-.09.4-.33-.02.51.45.86-1.95 2.96.16 5.92 2.47 3.47 4.88 7.06.27.41.75.55l4.76 1.39q.49.14.98-.04l8.91-3.22a.3.29-24.5 0 1 .36.13l.16.3q.22.39-.21.54l-9.29 3.31a1.4 1.34 41.9 0 1-.84.03l-4.66-1.3q-.57-.16-.57.43l.01 4.82a1.06 1.05 8.1 0 0 .77 1.01l3.27.94q.88.26.87-.66l-.02-2.37q0-.33.33-.34l.27-.02q.39-.02.39.37l-.01 2.88q0 .64.62.81l1.76.47q.62.16 1-.37l7.6-10.68 2.28-1.83q.22 2.44 5.7 2.84-.34.31.88.34c.92.47 1.72.71 2.77.35q3.81-1.29 7.29-2.63c1.21-.46 2.47-.11 3-1.61q.23-.64.68-.13l.23.26a.31.3-48.4 0 1 .02.38l-5.43 7.62a.59.57 43.3 0 0 .03.71l5.67 6.9a2 1.99-11.8 0 0 1.01.66l9.12 2.54q.27.07.23.35l-.05.3q-.06.38-.43.28l-9.36-2.55a2.2 2.2 0 0 1-1.11-.73l-6.03-7.35a1.22 1.22 0 0 1-.05-1.48l3.49-4.88q.5-.69-.3-.4l-8.1 2.88a1.84 1.75 39.9 0 1-.95.06q-1.14-.24-1.9-.05l-.75.1q.15-.16-.03-.5a.62.59-5.5 0 0-.37-.29l-5.48-1.56q-.54-.15-.87.3-1.89 2.63-3.75 5.37-.21.3-.46.41-.19.07-.38.09-.36.04-.57.34l-2.71 3.91q-.3.43.19.63c1.55.61 3.06 1.04 4.67.42q3.85-1.5 7.9-2.86.32-.11.42.21l.11.31a.34.34 0 0 1-.21.42l-8.67 3.09q-.5.17-.46.7l.66 9.35q.03.36-.34.33l-.37-.04a.32.3 1.2 0 1-.28-.28l-.68-9.16q-.03-.49-.47-.7-1.87-.91-3.79-.84-.41.02-.78-.43-.91-.56-2.53-.42l-1.52-.56q-1.5-.86-3.4-1.15-.47-.07-.55.4l-.29 1.73q-.64-.13-1.23-.03.21-1.06.04-2.22-.08-.54-.61-.68l-3.97-1.05a.81.8 24.9 0 0-.86.31l-5.03 7.03-.54-1.07 4.8-6.82q.3-.41.3-.92l-.04-15.71q.01-.55-.53-1.06.44-.62.4-1.05-.05-.5-.34-.1l-2.38 3.2-1.14-.01 3.86-6.05.21-1.84.14-3.49q-.51-.63-.48-1.44l.25-2.76zm2.22 23.71 1.34.44q.67.23.26-.35l-3.62-5.1q-.37-.52-.36.12l.06 11.01a.77.76-82.6 0 0 .56.74l3.67 1q.64.17.64-.49l-.01-5.05a.73.73 0 0 0-.6-.72q-1.2-.23-2.26-.61-.12-.04-.2-.14-.12-.16-.14-.33-.08-.76.66-.52"/><rect width="1" height="10.6" x="-.5" y="-5.3" fill="#f9c3b7" fill-opacity=".996" rx=".47" transform="rotate(-.1 48706.12 -90719.786)"/><path fill="#f7a206" fill-opacity=".996" d="M183.58 81.1q-.18.31.16.96l-6.5 2.32q-.23.08-.3-.15l-.14-.41q-.08-.23.14-.3zM191.41 81.85v.86q-.19-.35 0-.86M192.77 82.02l6.09 8.73q-.2.56-.74.55-3.12-4.29-5.93-8.57-.25-.37.09-.6.22-.13.49-.11"/><path fill="#f8c1cb" fill-opacity=".996" d="m219.48 82.99-.04 6.85q-.01 1.09 1.05 1.37l4.98 1.33q.99.26.96-.76l-.07-3.32.95.1.06 3.69a1.43 1.43 0 0 0 1.92 1.32l9.31-3.34q.27-.1.4.15l.18.35a.31.31 0 0 1-.17.44l-9.35 3.31q-.5.18-1.02.03l-9.4-2.66a.94.92-82.2 0 1-.67-.9l.01-7.78q.78.4.9-.18M210.93 83.65q.61.25.64.81c-1.13 1.81-1.95 3.45-4.09 4.27q-3.82 1.45-7.55 2.7a1.11 1.11 0 0 0-.76 1.04l-.06 6.88q-.44.18-.87.19l-.12-8.24q.54.01.74-.55 4.02-1.32 8.01-2.91 1.44-.57 2.33-1.72.93-1.19 1.73-2.47"/><path fill="#f7a206" fill-opacity=".996" d="M95.25 92.72q-2.4-3.28-4.83-6.85-.2-.3.08-.52l.23-.18q.25-.19.43.07l5.53 7.83q.46.65.46 1.45l-.01 9.57q0 .29-.3.29h-.29q-.35 0-.36-.35-.15-3.81.04-7.5.13-2.3-.98-3.81"/><path fill="#f8c1cb" fill-opacity=".996" d="m78.83 85.72-.01 9.82a.26.26 0 0 1-.26.26h-.28a.26.26 0 0 1-.26-.26l-.04-9.79q.36-.15.85-.03"/><path fill="#f9c3b7" fill-opacity=".996" d="m313.38 86.07 3.27 4.63q.32.45.84.26l4.92-1.8a.34.33-14.3 0 1 .45.26l.05.31q.04.31-.25.42l-4.67 1.71q-.46.17-.19.58l1.13 1.67q.23.33.61.2l8.97-3.22q.43-.15.43.3l.01.4q0 .22-.21.29l-8.63 3.07q-.63.22-.63.89l-.01 19.66q-.01.33-.34.33l-.36.01q-.25 0-.25-.25-.05-9.47-.03-19.27c0-1.6-.69-2.55-1.65-3.71q-.36-.43-.9-.25l-2.56.88q-.19.06-.32-.1l-.15-.2q-.23-.28.08-.48.99-.63 2.36-.88a.46.46 0 0 0 .3-.71l-3.03-4.54q.65-.25.76-.46"/><path fill="#f7a206" fill-opacity=".996" d="M119.17 95.28q.22.47-.95.31l.05-8.94a.29.29 0 0 1 .3-.29l.3.02q.22.01.22.23z"/><path fill="#f9c3b7" fill-opacity=".996" d="M57.93 88.48q.26.28.3.78l-9.45 2.62a.33.32 79.9 0 1-.41-.29l-.03-.32q-.01-.19.18-.24z"/><path fill="#f7a206" fill-opacity=".996" d="m35.02 99.45 5.77 8.14a.25.25 0 0 0 .12.09l9.51 3.4a.25.25 0 0 1 .16.3l-.11.46a.25.25 0 0 1-.33.18l-9.83-3.48a.25.25 0 0 1-.12-.09l-6.18-8.71a.25.25 0 0 1-.05-.14l-.07-10.41a.25.25 0 0 1 .27-.25l.47.03a.25.25 0 0 1 .23.25l.11 10.09a.25.25 0 0 0 .05.14M75.15 100.86l5.81 8.17a.24.24 0 0 0 .11.09l9.57 3.43a.24.24 0 0 1 .1.38l-.34.4a.24.24 0 0 1-.26.07l-9.7-3.43a.24.24 0 0 1-.11-.09l-6.2-8.76a.24.24 0 0 1-.04-.14l-.01-10.38a.24.24 0 0 1 .26-.24l.49.04a.24.24 0 0 1 .22.24l.06 10.08a.24.24 0 0 0 .04.14M191.43 90.53l.32 6.15q.04.62.63.44l2.13-.65q.34-.1.35.26l.02.38q.01.18-.16.24l-2.35.89q-.5.19-.62.71-.25 1.02.85 1.79l-2.28 1.83-.16-3.03q-.02-.53-.52-.35l-4.15 1.5q-.33.12-.47-.2l-.1-.24q-.16-.37.22-.51l4.46-1.58q.6-.22.63-.84l.32-6.86q.47-.04.88.07"/><rect width="1" height="10.54" x="-.5" y="-5.27" fill="#f7a206" fill-opacity=".996" rx=".46" transform="rotate(-.1 56029.12 -32311.778)"/><path fill="#f7a206" fill-opacity=".996" d="M199.18 103.92q-1.22-.03-.88-.34l-.06-4.04q.43-.01.87-.19-.25.38-.01.59a.26.25 38.4 0 0 .37-.04l4.9-6.85q.11-.16.28-.05l.26.19q.32.21.11.53-3.76 5.54-4.93 7.1-1.18 1.56-.91 3.1"/><path fill="#f9c3b7" fill-opacity=".996" d="m243.33 94.79.11 10.56-.88.4-.11-10.97z"/><rect width="10.54" height="1" x="-5.27" y="-.5" fill="#f8c1cb" fill-opacity=".996" rx=".46" transform="rotate(15.6 -242.92 881)"/><rect width="10.68" height="1" x="-5.34" y="-.5" fill="#f8c1cb" fill-opacity=".996" rx=".48" transform="rotate(-19.6 463.18 -986.05)"/><path fill="#f8c1cb" fill-opacity=".996" d="M159.21 97.64c1.2 1.17 1.93 2.22 1.92 4.01q0 4.34.01 8.57a2.65 2.61 62.6 0 1-.46 1.49q-1.96 2.83-4.09 5.81-.16.22-.19.48-.03.25-.06.54-.34 1.27-.96.84l4.79 7.11q.11.39.87.59.3 2.04 3.46 2.32 1.07.09 4.17-1.3 1.34.55.78.77l-4.13 1.44q-.53.19-1.07.05l-.68-.17q-1.04-.27-.43.62l3.4 4.9-.56.8q-1.54-2.14-3.05-4.27-1.67-2.34-3.57-3.16-2.24-.96-4.83-1.12-.36-.09-.61-.52l.02-8.08a.3.3 0 0 0-.51-.22l-2.36 2.31-.99-.13-6.6 2.25a.73.72 80.1 0 0-.49.7l.04 5.76q.16.6-.01 1.16l-.13 2.36q-.02.3-.31.32l-.27.03q-.4.03-.4-.38v-1.37q.01-.68-.64-.47l-1.49.48q-.56.18-.21.64c.93 1.23 1.7 2.08 1.7 3.73q0 3.19.07 6.59.01.36.46.63.14.53-.07.95l-3.91 6.38q-.01.45-.19.86-1.45.8-1.93 2.4-.16.54.16.99l5.09 7.2a.42.41 55.5 0 1-.1.57l-.28.2q-.21.15-.36-.07l-5.46-7.74q-.31-.43-.8-.61-3.53-1.31-7.27-2.57-2.03-.69-2.92-1.9-2.64-3.59-5.24-7.45-.32-.49-.32-1.06l.01-9.63q0-.39.38-.41l.29-.01q.32-.02.32.31v9.54q0 .56.32 1.01l5.26 7.44q.34.48.9.68l7.67 2.73q.7.25.7-.49l.01-1.82a.86.85-86.2 0 0-.74-.85q-1.24-.17-2.17-.86-.91-.69.23-.62.97.06 1.88.57.8.45.8-.46l.01-6.44q0-.54-.49-.78l-1.03-.5q-.66-.32.03-.56.4-.14.79-.02.66.2.67-.49c.02-1.73.15-3.6 0-5.3q-.19-2.16 2.33-2.47 1.61-.2.67-1.52l-2.55-3.56q-.21-.3.11-.46l.35-.19q.25-.13.4.1l2.98 4.2q.38.54 1.01.32l1.98-.69q.61-.21.6-.85v-6.01a1.15 1.14 80.3 0 1 .76-1.08l6.82-2.41q.48-.16.48-.67l.03-5.46 1.39 1.04.04 3.73q.01.57.48.24 1.66-1.18 1.84-3.05-.36-1.01.2-1.33l.12-6.07q.37.17.95.04l-.02 4.89q0 1.16.71.25c1.11-1.41 2.35-3.02 2.27-4.92q-.17-4.01-.02-8.08a.29.29 0 0 1 .35-.28l.37.08q.22.04.22.27l.02 7.63q.01.3.3.27l.29-.04a.65.64 87.5 0 0 .57-.63l.07-7.11q0-.52-.27-.95l-1.25-1.94zm-3.852 19.561a4.34.3 124.4 0 0 2.7-3.411 4.34.3 124.4 0 0 2.204-3.751 4.34.3 124.4 0 0-2.7 3.412 4.34.3 124.4 0 0-2.204 3.75m-.268 5.239-.03 3.65a1.01 1-82.5 0 0 .74.97l3.42.9q.88.23.35-.51l-3.71-5.25q-.76-1.06-.77.24m-16.28 16.6a.26.26 0 0 1 .25.26l.03 3.22q.01.38.39.4l.34.03q.44.02.46-.42.09-3.4-.1-6.37a3.19 2.51 83.6 0 0-3.02-3.06q-.71.14-1.36.58-.43.28-.43.79v6.26q0 .59.55.81l1.52.59a.47.47 0 0 0 .64-.44l-.05-2.32q0-.36.35-.35zm-3.44 3.84.04 7.4a.25.25 0 0 0 .25.25l.15-.01a2.28 2.05-.3 0 0 2.27-2.06l-.02-3.8a2.28 2.05-.3 0 0-2.29-2.04l-.15.01a.25.25 0 0 0-.25.25m3.66 2.91q-.23.47.05.92a.43.43 0 0 0 .72.02q.82-1.21.21-2.5-.26-.54-.68-.11-.4.41-.23 1.06.08.32-.07.61m-3.3 5.27q-.4.45-.3 1.01.09.46.39.1.42-.48.19-1.06a.17.17 0 0 0-.28-.05"/><path fill="#f7a206" fill-opacity=".996" d="M306.27 112.28q.47.33.71.68l-11.89 16.95q-.37.2-.78-.03l-7.19-9.45q-.36-.48-.92-.28l-14.1 5.02q-.57.21-.57.82.08 9.11-1.27 3.39.21-.7.12-1.19.26-1.06.1-1.79-.13-.6-.7-.39l-2.05.72a.81.81 0 0 1-1.09-.76l-.01-9.65q0-.57.32-1.03l3.23-4.61q.3-.42.3-.93l.01-9.52a.33.33 0 0 1 .32-.33l.26-.01q.33-.01.35.32.17 3.74-.03 7.79-.05 1.06.59.23.03-.04.04-.1.05-.45.44-.68.32-.19.63-.07.54.21.21.68l-5.35 7.55q-.32.45-.32 1.02v8.65q0 .42.4.28l2.04-.73q.42-.15.43-.59l.02-3.03q0-.27.27-.27l.43.01q.26 0 .26.26l.03 2.38a.52.51-9.7 0 0 .69.48q7.05-2.47 13.72-4.92.88-.32 1.69.17.44.26.48-.26c.14-2.38-.61-7.76.65-9.68q2.45-3.74 5.48-7.75.1-.13.26-.08l.34.11a.34.34 0 0 1 .17.53l-5.5 7.76q-.36.5-.36 1.12l-.02 8.83q0 .57.33 1.03l5.21 7.25q.18.25.36 0z"/><path fill="#f9c3b7" fill-opacity=".996" d="M310.33 111.97q-.06-.02-.13-.05-.68-.28-1.36.34-.41.1-.63.82-.55-.18-1.23-.12-.24-.35-.71-.68l.12-10.35a.32.32 0 0 1 .3-.32l.28-.01a.37.36 87.7 0 1 .38.36v8.91q.01.6.57.41l1.62-.52q.62-.2.64-.85l.12-2.82q.01-.24.25-.26l.36-.03q.25-.03.25.22v2.43q0 .69.65.47l4.54-1.59q.34-.12.39.23l.05.42a.32.32 0 0 1-.19.32z"/><path fill="#f7a206" fill-opacity=".996" d="M128.87 124.83h-.5a.25.25 0 0 1-.25-.25l.05-10.38a.25.25 0 0 1 .05-.14l5.98-8.42a.25.25 0 0 1 .36-.05l.39.29a.25.25 0 0 1 .05.35l-5.8 8.18a.25.25 0 0 0-.05.14l-.03 10.03a.25.25 0 0 1-.25.25M199.01 105.4l.12 6.77q0 .26-.26.26h-.28q-.26 0-.26-.26l-.07-6.67zM243.44 105.35l8.81 12.42q.37.52.75.01l1.43-1.92a.36.36 0 0 1 .57-.02l.2.22q.15.18.02.37l-1.71 2.45q-.32.46.07.86 1.8 1.84 1.88 3.98-.53-.12-.9.02-.16-1.8-1.63-3.09-.44-.39-.78.1l-2.42 3.46q-.32.45-.31 1l.03 9.33q0 .51-.5.39l-.3-.07a.37.37 0 0 1-.28-.36l-.05-2.32q.39-.66.23-1.05c-.28-2.78-.7-6.42 1.13-8.69q1.11-1.38 2.05-2.79.28-.44-.02-.87l-9.15-13.03zM62.1 127.58q-.15-3.22.02-7.06.09-2.08-1.19-3.78-2.32-3.09-4.35-6.11a1.95 1.89 82.2 0 0-.92-.72l-9.14-3.3q-.25-.09-.16-.34l.09-.26a.43.42-69.7 0 1 .55-.26l9.16 3.27a2.21 2.17 81.6 0 1 1.04.79l5.32 7.54a2.92 2.91 27.4 0 1 .54 1.69v9.28a1.19 1.19 0 0 1-.88 1.15l-9.61 2.63q-.19.05-.24-.14l-.08-.31a.4.39-15.8 0 1 .27-.48l8.85-2.56q.77-.22.73-1.03"/><path fill="#f8c1cb" fill-opacity=".996" d="M382 115.91v.86l-10.95-2.87q-.54-.14-.86.32l-3 4.31q-.24.34-.5.01l-.26-.33q-.12-.15-.01-.31l2.65-3.84q.34-.49-.2-.76-1.86-.93-3.57-.32l-18 6.44a.94.94 0 0 1-1.26-.89l.03-9.58a.32.32 0 0 1 .27-.32l.32-.06q.4-.06.4.34l-.01 8.84q0 .71.67.47 8.31-3 17.26-6.2c1.62-.58 3.06-.13 4.59.37q.5.17.82-.25l1.86-2.41q.26-.34.51.01l.17.25a.41.4-44.4 0 1-.01.48l-1.38 1.78q-.43.56.25.75z"/><path fill="#f7a206" fill-opacity=".996" d="M103.15 119.77q-.48.16-.88-.04l-.03-10.21q0-.62.56-.35l.26.13q.1.04.1.16zM310.33 111.97q2.78 1.93 6.38 2.45a.28.28 0 0 1 .23.33l-.08.52q-.05.29-.34.21l-4.62-1.35q-.56-.16-.66.41-.17.95 0 1.94.07.36-.14.68-.39.63-.68-.06-.43-1.05-.21-2.42a.94.92-68.8 0 0-.4-.93q-.71-.46-1.6-.67.22-.72.63-.82-.04.18.06.29.08.09.26.09.67-.02 1.04-.72.07.03.13.05M177.49 113.74l1.52.56q-.46.35.06.83.4.37.34.91l-.09.77q-.14 1.21.57.22l1.65-2.31q.37.45.78.43-1.3 2.47-2.58 3.97-1.4 1.64-1.4-.52l.01-2.9q0-.87-.52-.18-1.68 2.19-3.45 4.75c-1.3 1.89-.82 3.27-.96 5.34q-.05.8.76.58.16-.04.32.11.47.45-.09.77l-.43.25q-.46.26-.47.79l-.05 3.46q-.62.5-1.44.5-.12-.34-.28-.53-.37-.45-.72.02-1.75 2.43-3.47 4.86-.33.46-.68.51-.51.07-.89-.42l.56-.8q1.89-2.07 3.52-4.46.49-.73.38-1.25-.15-.71-.99-1.13.56-.22-.78-.77.18.07.27-.06.16-.21 0-.43c-1.12-1.48-2.15-3.68-3.89-4.31q-1.54-.56-3.2-1.19-.64-.23-.66.44l-.15 4.53q-.76-.2-.87-.59l-.18-4.32q-.02-.5-.47-.72l-4.14-2.07q.62.43.96-.84 1.33 1.46 3.15 1.73.68.09.63-.59-.15-1.98.93-2.67l.54 1.07q-.54.99-.53 2.15 0 .54.51.73l4.23 1.55q.51.18.82-.26l5.4-7.56q.59-.1 1.23.03l-5.37 8.15q-.35.53.02 1.04l2.14 3.02q.34.49.92.33.43-.12.79-.37a.89.87-19.4 0 0 .37-.75c-.1-2.27-.45-4.13.97-6.25q2.05-3.06 4.4-6.15m-5.93 14.42a.4.4 0 0 0-.38.38q-.01.25.25.37a.34.34 0 0 0 .49-.3q.01-.47-.36-.45"/><rect width="1" height="10.6" x="-.5" y="-5.3" fill="#f9c3b7" fill-opacity=".996" rx=".48" transform="rotate(-39.7 270.065 -231.998)"/><rect width="1.46" height="10.82" x="-.73" y="-5.41" fill="#f8c1cb" fill-opacity=".996" rx=".68" transform="rotate(.1 -70490.952 111708.128)"/><path fill="#f8c1cb" fill-opacity=".996" d="m103.15 119.77.04 10.06q0 .46-.46.46h-.29q-.19 0-.19-.19l.02-10.37q.4.2.88.04"/><path fill="#f7a206" fill-opacity=".996" d="M151.07 121.45q-3.52 5.83-6.14 8.73-.31.34-1.91 1.01.17-.56.01-1.16.98-.23 1.33-.67 2-2.5 5.72-8.04z"/><rect width=".98" height="10.6" x="125.92" y="121.7" fill="#f7a206" fill-opacity=".996" rx=".47"/><path fill="#f9c3b7" fill-opacity=".996" d="m255.46 123.72-.02 9.24q0 .25-.25.25h-.37a.28.27 0 0 1-.28-.27l.02-9.2q.37-.14.9-.02"/><rect width="10.5" height="1.02" x="-5.25" y="-.51" fill="#f9c3b7" fill-opacity=".996" rx=".46" transform="rotate(-19.6 475.749 -556.426)"/><path fill="#f7a206" fill-opacity=".996" d="M153.92 127.44q.25.43.61.52-5.45 8.24-11.14 16.18-.72 1-1.66.56.21-.42.07-.95z"/><rect width="10.6" height="1" x="-5.3" y="-.5" fill="#f7a206" fill-opacity=".996" rx=".48" transform="rotate(-19.6 528.085 -820.242)"/><path fill="#f9c3b7" fill-opacity=".996" d="M270.38 128.19q.09.49-.12 1.19l-8.28 3a1.68 1.66 8 0 0-.74.55q-2.82 3.76-5.46 7.76-1.71 2.59 1.22 1.55l7.55-2.67q.31-.11.38.21l.1.42q.12.51-.37.69l-8.06 2.91q-.78.29-.8 1.12l-.01.38q-.02.66.6.42.95-.36 2.24-.76.53-.17.64.37.1.48-.12 1.19-.29 1.22-.83 1.03.24-.79.22-.81a1.53 1.53 0 0 0-2.61.72q-.35 1.66.18 3.75l.08 1.86q-1.25 2.93-.64 6.92-.77.39-.94.3l-.56-12.04q-.03-.5-.52-.38-2.42.57-4.27 1.88-.55.13-.97.03l-8.39 2.87q-.47.16-.47.66l.02 1.99q0 .52-.48.34l-.33-.12q-.24-.09-.2-.35.16-.97.14-1.95-.01-.52-.4-.87-.49-.44-1.1-.08-.57-.22-.78-.05.15-.5-.42-.63-3.12-.73-6.13-1.88-.21-.09-.17-.31l.05-.3q.05-.27.32-.2l6.05 1.58.93.21 1.77.61q.86-.14.91.3l14.03-5.1q.45-.16.48-.64c.15-2.2.1-4.68 1.37-6.59q2.55-3.84 5.11-7.17.31-.39.77-.57z"/><path fill="#f8c1cb" fill-opacity=".996" d="M248.55 131.13q.16.39-.23 1.05l-8.84-2.45q-.5-.13-.98.04l-8.66 3.07q-.42.15-.68.5l-11.66 15.61-.66-.95 11.76-15.45q.33-.43.84-.61l8.4-3.02q1.16-.42 2.34-.09z"/><path fill="#f7a206" fill-opacity=".996" d="m198.19 137.78.47.8q1.63.82 3.5 1.05.74.1.5-.61-.16-.49.08-.94.44-.83.72.07.45 1.46.17 3.05-.55.05-.9-.09l-9.38-2.7a1.23 1.22-10.9 0 1-.61-.41l-6.33-7.78a.38.37 51.1 0 1 .05-.52l.23-.2a.26.26 0 0 1 .37.03q2.63 3 5.44 6.64c1.32 1.72 3.67 2.36 5.69 1.61"/><path fill="#f8c1cb" fill-opacity=".996" d="m295.09 129.91.05 9.8q0 .26-.25.26h-.39q-.29 0-.29-.29l.1-9.8q.41.23.78.03"/><path fill="#f9c3b7" fill-opacity=".996" d="m173.46 131.57 5.61 7.94q.43.61 1.04.19.68-.47 1.47-.57.62-.08.64-.7l.1-3q.01-.22.23-.26l.26-.03a.31.31 0 0 1 .36.31l-.02 2.58a.36.36 0 0 0 .48.34l4.57-1.64a.41.41 0 0 1 .54.29l.07.29q.09.34-.24.46l-5.38 1.96-1.01.38q-3.52.24-2.81 3.17-.07.52.13 1.22l-.15 4.97q-.34.73-1 .85l-.02-5.33q-.28-.2-.16-.99c.43-1.55.36-2.68-.64-4.06q-2.83-3.89-5.51-7.87.82 0 1.44-.5"/><path fill="#f8c1cb" fill-opacity=".996" d="M282.78 154.77q-.32.11-.87.57-2.08-4.74-1.68-10.75.15-2.27 1.58-4.37 2.26-3.34 4.73-6.58.22-.28.45-.01l.19.23a.38.37 42.9 0 1 .02.45l-5.46 7.72a1.8 1.8 0 0 0-.32 1.02q0 4.18-.01 8.57c-.01 1.31.69 2.12 1.37 3.15"/><path fill="#f9c3b7" fill-opacity=".996" d="m198.66 138.58-.47-.8 8.33-2.96q.29-.1.39.18l.1.3a.3.3 0 0 1-.18.38z"/><rect width="21.3" height=".98" x="-10.65" y="-.49" fill="#f8c1cb" fill-opacity=".996" rx=".47" transform="rotate(15.6 -335.711 1326.926)"/><path fill="#f7a206" fill-opacity=".996" d="M178.17 144q-.12.79.16.99-1.97.52-3.71 1.25-1.68.71-2.86 2.44-2.06 3.01-4.13 5.85a2.4 2.35-27.4 0 0-.46 1.4l-.04 12.61-.83-.08-.27-10.22q-.02-.53-.32-.96l-5.27-7.5q-.33-.47-.32-1.04l.05-9.76q0-.17.16-.23l.29-.11q.52-.2.52.36l-.01 9.47q0 .56.33 1.01l4.18 5.93q.3.43.55-.03 2.32-4.22 5.29-7.99 1.19-1.51 3.02-2.17 1.82-.65 3.67-1.22"/><path fill="#f9c3b7" fill-opacity=".996" d="M301.96 152.07q-.73-.07-1.02-.79 1.59-1.58 1.55-3.52-.1-4.34.07-8.75.01-.24.25-.23l.38.02q.28.01.28.29.03 4.62.04 9.17 0 1.36-1.55 3.81"/><path fill="#f7a206" fill-opacity=".996" d="m183.19 139.73-.07 5.64q0 .54-.3.98l-3.32 4.86a.9.9 0 0 0-.16.51l-.11 10.29-.9-.36q.03-4.06.04-8.27 0-.95-.37-.08-.27.66-.99.96-.22.1-.44.01-.42-.16-.14-.51 1.28-1.63 1.92-3.44.66-.12 1-.85c1.39-1.69 3.1-3.76 2.84-5.37q-.08-.52-.57-.35l-2.12.75q-.2-.7-.13-1.22 3.58-.11 2.81-3.17zM335.41 155.05l6.74 8.33a.23.23 0 0 1-.1.36l-.46.16a.23.23 0 0 1-.25-.06l-6.55-7.91a.23.23 0 0 0-.12-.08l-9.61-2.64a.23.23 0 0 0-.14 0l-9.45 3.36a.23.23 0 0 1-.29-.13l-.21-.49a.23.23 0 0 1 .13-.31l19.35-6.93a.23.23 0 0 0 .11-.08l5.93-8.3a.23.23 0 0 1 .29-.07l.43.21a.23.23 0 0 1 .09.34l-5.68 8.15a.23.23 0 0 0 .01.27l6.13 7.52a.23.23 0 0 0 .12.08l9.7 2.7a.23.23 0 0 0 .14 0l9.57-3.36a.23.23 0 0 1 .29.13l.17.47a.23.23 0 0 1-.14.3l-9.84 3.52a.23.23 0 0 1-.14 0l-10.31-2.88a.23.23 0 0 1-.12-.08l-6.39-7.8a.23.23 0 0 0-.25-.08l-7.27 2.6a.23.23 0 0 0 .02.44l7.98 2.18a.23.23 0 0 1 .12.08M239.61 151.6q-.05-.44-.91-.3-.24-1.37-.02-2.73.08-.51-.34-.2-1.13.88-1.41 2.32l-.93-.21q2.34-5.37 6.45-9.48.84-.84.46.29-.44 1.3-1.53 2.48c-2 2.17-2.14 4.89-1.77 7.83"/><path fill="#f8c1cb" fill-opacity=".996" d="m203.63 141.2-.01 5.65q0 .73.69.49l1.43-.49q.72-.25.74-1.02l.08-2.78q.01-.3.31-.28l.31.03q.31.02.31.32l-.01 2.33q0 .76.72.5l4.34-1.56q.27-.1.41.15l.15.27a.37.36-24.7 0 1-.2.52l-4.95 1.79q-.52.18-.5.73.07 2.11.07 4.22c0 2.27-2.48 4.93-3.86 6.99q.3-.34-1.01-.27c1.26-1.97 3.96-4.85 3.89-7.09q-.05-1.68-.02-3.33.01-.66-.61-.47l-2.36.71a.66.66 0 0 1-.85-.64l.03-6.86q.35.14.9.09"/><path fill="#f7a206" fill-opacity=".996" d="M284.26 156.77q-.35.25-.98.4l-.16 7.9q-.02 1.16.63.2l2.24-3.27q.21-.29.13-.64l-.06-.34q.36.19.63-.07.24-.23.12-.54.03-.08.25-.03.09.02.14-.06l6.81-9.65a1.21 1.2-64.6 0 1 1.3-.47l4.95 1.36q.25.08.46-.1l.22-.18q.29.72 1.02.79l2.76.83q.32.1.18.4l-.15.3q-.1.22-.34.17l-3.46-.75-.9-.32-4.72-1.33a.75.74-64.1 0 0-.82.29q-3.14 4.49-6.07 8.66-1.34 1.9-.91 4.55.1.56.63.37l13.05-4.64a2.99 2.96 7.4 0 0 1.43-1.09l5.18-7.38q.33-.47.88-.66l9.19-3.27q.37-.13.5.24l.11.32a.28.27 70.9 0 1-.16.34l-8.98 3.18q-.54.19-.87.66l-4.7 6.66q-.78 1.11.58 1.18.35.02.69.21a1.33 1.32-65.4 0 0 1.92-.72q.45-1.31 1.48-1.9.69-.4.42.36-.48 1.32-1.49 2.4a.27.27 0 0 0 .12.45l14.72 4.11q.46.12.91-.04l9.14-3.26a1.22 1.18-45.8 0 1 .74-.02l9.61 2.71a1.69 1.63 77.3 0 1 .85.56l6.28 7.72q.16.2-.04.37l-.25.19q-.32.26-.58-.06l-6-7.36q-.37-.46-.94-.62l-8.79-2.42q-.5-.13-.99.04l-8.43 3q-.53.19-.47.76l.19 1.91q.05.44.46.29l4.85-1.71a.27.27 0 0 1 .35.18l.1.32a.38.37 71.8 0 1-.23.46l-4.86 1.76q-.59.21-.55.84l.33 4.62q.05.72.51 1.28l5.93 7.26q.18.21-.01.41l-.21.21a.39.39 0 0 1-.58-.03q-2.94-3.58-5.54-6.75-1.54-1.9-1.27-5.91.12-1.79-1.48-.98c-.97.49-1.95.81-3.04.5q-4.3-1.22-8.78-2.42-.55-.14-.92-.58l-3.1-3.75q-.46-.56-.87.04l-1.33 1.89a.33.33 0 0 1-.43.1l-.27-.16q-.34-.2-.11-.52l1.57-2.23q.35-.5-.05-.97l-1.29-1.53q-.41-.49-1.02-.28l-13.5 4.81a.85.84 86.1 0 0-.53.61q-.18.78.11 1.44.15.36.53.47l4.48 1.29q.21.06.14.27l-.11.32q-.12.35-.47.26l-4.22-1.13a.36.36 0 0 0-.45.35l.2 11.31q.01.46.45.6l8.44 2.74a.8.8 0 0 0 .52 0l6.52-2.35q.5-.18.29-.67-.61-1.47-1.51-1.71-4.65-1.23-9.3-2.58-.35-.1-.25-.45l.07-.26a.33.33 0 0 1 .41-.24c2.67.72 5.33 1.62 7.99 2.18q2.34.5 3.56 2.6a1.03 1.02-42.2 0 0 1.72.08l5.81-8.17q.19-.27.46-.09l.28.2q.27.18.08.44l-5.78 8.19a.68.68 0 0 1-.47.29q-.29.05-.49.22-.36.3-.06.67l3.43 4.21q.32.39-.15.6l-.26.12q-.2.09-.34-.08l-3.68-4.49q-.39-.48-.97-.27l-7.04 2.47a1.43 1.37 41.7 0 1-.82.03l-7.82-2.17a2.51 2.51 0 0 0-2.72.97l-9.87 14.03q-.29.41.18.58.29.1.57.21.97.39-.03.67l-.37.1a.45.45 0 0 0-.23.72l3.41 4.2q.35.44.89.25l5.43-1.93q.55-.2.89-.68l5.34-7.62q.22-.32.54-.1l.26.19a.32.32 0 0 1 .08.44l-5.22 7.38q-.32.46-.07.96.53 1.04 1.47 1.51l-.74 1.01-1.58-1.84q-.33-.39-.81-.22-2.44.83-3.82 1.31-2.95 1.03.05 1.91 1.84.55 4.28 1.35-.31.51-.3.63-3.94-.31-6.74-2.55-.41-.32-.87-.1l-1.15.57a.35.34-28.2 0 1-.44-.13l-.27-.4q-.21-.31.15-.44l1.25-.44q.75-.26.25-.88l-3.21-3.95q-.37-.45-.92-.26l-6.79 2.38q-.38.14-.4-.26l-.01-.29a.44.44 0 0 1 .29-.44l5.81-2.08q.53-.18.85-.64l10.27-14.68q.51-.72-.31-.42l-4.16 1.55q-.51.19-1.03.05l-5.95-1.64q-3.1-.86-1.07 1.63l5.16 6.32q.21.26-.02.49l-.22.23q-.26.28-.5-.02l-4.68-5.77q-.34-.43-.34.12l-.01 6.81a1.7 1.67 63.4 0 1-.32.99q-2.41 3.4-4.86 6.94-1.08 1.56-3.28 2.41-3.58 1.39-7.39 2.5.19-.78-.37-1.08l9.03-3.29q.49-.18.79-.61l5.25-7.44q.33-.46.31-1.03l-.37-9.24q-.02-.51-.45-.8-.8-.52-1.38-1.19-2.8-3.25-5.43-6.6-.42-.53-1.05-.3l-11.73 4.19a1.16 1.14 4 0 0-.64.55q-.37.71-1.1.39a1 1 0 0 0-.73-.03l-4.21 1.51q-.43-1.2.19-1.34l4.17-1.42q.54-.19.54-.76l-.03-7.95q0-.55-.5-.8l-2.24-1.13q.24-.19.33-.5.72-.21.15-.31.08-.52.72-1.06l1.61 1.72a.85.76-11.3 0 0 .34.2l4.22 1.16q.5.14.99-.03l9.09-3.29q.13-.05.19.07l.18.33q.2.38-.2.54-3.94 1.53-8.16 3.02c-1.99.7-3.25.22-5.03-.48q-.69-.27-.69.48l.03 7.71q0 .64.61.43l11.82-4.24a1.81 1.74 7 0 0 .85-.64l5.17-7.34q.59-.84 1.56-1.19l8.73-3.07a.43.43 0 0 1 .55.27l.12.34q.06.17-.11.23l-9.06 3.23q-.57.2-.91.69l-4.85 6.88a.5.49 25.2 0 0 .28.76l10.09 2.76a.95.95 0 0 0 1.02-.37l6.4-9.03q.26-.37.26-.82l-.05-11.99q.55-.46.87-.57.15.44.4.45.2.01.32-.15 2.22-3.24 4.54-6.45a1.46 1.41-81.4 0 1 .67-.51l9.46-3.42q.2-.08.33.1l.21.29q.28.39-.17.56l-9.01 3.2q-.49.17-.79.58-2.34 3.15-4.52 6.36-.17.26-.16.48.01.3.2.51m20.09 5.72q.12.27.38.14.19-.09.11-.28-.06-.15-.23-.19a.24.24 0 0 0-.26.33m18.12 6.91q.4-2.53-1.69-3.12-7.04-1.97-13.54-3.62-2.46-.63-1.08 1.5l1.4 2.17q1.29 1.99 3.59 2.61 3.52.94 7.02 1.89 1.87.51 3.9-.8.33-.22.4-.63m-37.19-3.13q1.67-.52 1.25-2.62-.12-.63-.46-.09l-1.59 2.56q-.34.54.08 1.02.72.83 1.71 1.08.39.1.38-.31l-.01-.26a.3.29 5.3 0 0-.23-.27q-.64-.13-1.21-.48-.67-.4.08-.63m-2.68 14.65-7.04-1.96q-.24-.06-.37.14l-2.75 3.95q-.2.29.14.37 2.26.59 4.68 1.27 2.46.68 4.04.06 2.14-.83 4.39-1.71.64-.24.6-.92-.28-6.22.21-12.07a.76.75-79.7 0 0-.54-.79l-2.71-.79q-.47-.13-.75.27l-6.2 8.78q-.35.49.23.66l6.36 1.79q.17.04.15.22l-.05.46q-.03.37-.39.27m-17.54-3.97 4.28 5.23q1.32 1.61 2.52-.09l2.04-2.88q.41-.59-.28-.78l-8.05-2.26q-1.49-.42-.51.78M256.19 153.07l-.08-1.86q1.91-1.31 2.21-3.66.54.19.83-1.03.03.13.18.23.34.24.47-.16.31-.96 1.17-1.03a.39.39 0 0 1 .31.65q-2.23 2.37-1.91 5.18.07.62.67.8l4.7 1.36a1.34 1.29-46 0 0 .82-.03l8.96-3.24q.37-.13.52.23l.12.3q.12.29-.17.39l-9.45 3.35a1.4 1.35-46 0 1-.84.03l-4.69-1.34q-.65-.19-.65.49l-.01 2.29q0 .37-.36.38l-.3.02q-.3.01-.31-.29l-.07-2.78a.73.72 19.5 0 0-.28-.57q-.74-.58-1.84.29m2.09-1.96q.04-.03.06-.08.12-.3-.13-.1-.18.14-.24.36-.06.2.12.13.12-.04.11-.16 0-.1.08-.15"/><path fill="#f9c3b7" fill-opacity=".996" d="M191.44 157.76q-.5-.3-.86-.22v-10.12q0-.19.19-.2l.42-.02q.22-.01.22.21z"/><path fill="#f7a206" fill-opacity=".996" d="m193.11 164.14-.9.18q-.18-2.78-.07-5.52.1-2.48 1.41-4.56 2.09-3.32 4.71-6.31.25-.27.53-.03l.22.18q.11.1.03.22c-1.63 2.35-3.97 4.63-3.76 7.76q.22 3.13.02 6.47-.01.24-.25.24h-.33q-.39 0-.38-.39l.04-6.7q0-.35-.31-.19l-.61.3a.57.56 77.8 0 0-.31.49zM216.84 148l.66.95-.06 1.71-.94 1.05q.06-.38.01-.68-.12-.59-.47-.09l-4.35 6.16q-.33.46-.86.66l-8.81 3.34q-.28-.22-.98-.36.64-1.13 1.61-1.95 1.31-.07 1.01.27 2.77-.68 5.19-1.7 1.97-.83 3.39-2.79 2.34-3.25 4.6-6.57M249.26 149.75q-1.85 2.72-3.71 5.35-1.87 2.67-1.85 4.76.03 3.27 2.51 5.84l-.69.94q-.45-1.08-1.17-1.71-.57-.5-.54.26l.12 2.51q.02.49-.27.89l-5.88 7.94a.46.45-53.6 0 1-.63.1l-.22-.16q-.16-.11-.05-.26 2.5-3.61 5.05-7.22.26-.37 0-.94.61-.76.86-.48-.11-4.27.03-8.21.09-2.16 1.25-3.92 1.94-2.92 4.22-5.66.42.1.97-.03"/><path fill="#f8c1cb" fill-opacity=".996" d="m217.44 150.66.13 8.22a1.47 1.45-62.3 0 0 .25.82l5.72 8.43q-.57.17-1 .08-2.37-3.32-4.7-6.78-1.26-1.89-1.38-3.99-.16-2.85.04-5.73z"/><path fill="#f7a206" fill-opacity=".996" d="M137.82 151.08q2.97.71 3.56 1.54 2.98 4.17 5.87 8.39.29.41.31.92.04.89.4 1.5-.28.19-.62.29l-.07 8.2q-.07.07-.05.32-5.1 1.5-10.22 2.78-.29.07-1.24-.27.19-.73.38-.66l9.5-2.55q.47-.12.47-.6v-9.38q0-.49-.29-.9l-4.94-7.02q-.31-.43-.79-.64l-2.46-1.06q.18-.41.19-.86M237.08 152.27l.16 7.48q-.33.38-.81.48l-.13-8.01q.21-.17.78.05"/><path fill="#f9c3b7" fill-opacity=".996" d="m300.95 153.02-3.56 5.02q-.2.27-.38 0l-.28-.38q-.11-.16 0-.31l3.32-4.65z"/><rect width=".98" height="10.62" x="150.22" y="156.17" fill="#f8c1cb" fill-opacity=".996" rx=".47"/><path fill="#f8c1cb" fill-opacity=".996" d="m284.26 156.77 2.55 3.64q.12.31-.12.54-.27.26-.63.07l-2.78-3.85q.63-.15.98-.4"/><path fill="#f7a206" fill-opacity=".996" d="m191.44 157.76-5.82 8.58q-.28.41-.69.12l-.22-.16q-.2-.15-.06-.35l5.93-8.41q.36-.08.86.22"/><path fill="#f8c1cb" fill-opacity=".996" d="M255.37 161.4q-.31-.03-.66.05-2.23.48-4.27 1.35c-1.92.83-2.79 2.4-3.58 4.21q-.64.54-.72 1.06-.11.13-.15.31-.09.31-.33.5c-1.23.78-1.89 1.82-1.91 3.38q-.06 4.3-.03 8.68-.62.14-.19 1.34-.21.4-.26.71-.58.03-.82.54-1.97 2.25-2.95 4.6-.87.39-.89.89l-3.81 5.41a.69.69 0 0 0 .24 1.01l1.33.7q.47.25.56.77.21 1.29 1.31 2.27.16.14.02.3l-.27.3q-.19.21-.37 0l-2.1-2.46q-1.44-1.66-2.87 0-.2.23-.42.45-1.1 1.1-.12 2.31l5.14 6.34q.37.46.95.62l9.23 2.59q.34.09.21.42l-.13.32q-.1.25-.36.18l-7.2-1.96q-1.17-.32-.4.61l4.54 5.51a1.36 1.35 41.1 0 1 .11 1.55l-5.03 8.34a.28.27-55.8 0 1-.4.08l-.28-.21q-.29-.22-.1-.53l4.71-7.79q.36-.6-.08-1.15l-12.07-14.73q-.35-.43-.88-.24l-15.13 5.4q-.73.51-.7.77-1.3-.61-1.99.14-.35.38-.03.78l5.45 6.72q.17.2.03.43l-.17.25q-.26.39-.55.03l-5.96-7.31q-.31-.37-.76-.2l-18.46 6.81q-.57-.46-.34-1.37l2.92-1.16q.6-.05.93-.26 1.9-.5 3.68-1.24 1.7-.72 2.94-2.37 2.18-2.88 4.28-5.99l-.17-.93.49-8.57q.55-.28.92.27l.03 7.25q0 .7.64.42c1.59-.69 2.32-.64 3.48-2.25q2.27-3.14 4.49-6.5 1-.16 1.23.57.04.12.09.23l-.82.53q-.86 1.06-3.88 5.48-1.59 2.32-4.53 2.79-.28.04-.44.27l-5.38 7.59a.11.1-82.2 0 0 .12.16l10.29-3.74a.43.43 0 0 0 .02-.8q-.78-.34-.84-1.09-.07-1.07.68-.3l1.23 1.27q.36.38.86.21 7.51-2.56 15.02-5.36 1.29-.49 2.17-2.44.22-.51-.31-.66c-2.26-.63-4.04-1.42-6.42-.61q-3.87 1.33-7.69 2.77-.34-.05-.49-.28-.16-.23 0-.48.15-.23.43-.32l8.56-3.07q.47-.17.96-.08l6.27 1.22q.24-1.15.65-1.19l7.73-11.02q.45-.65.45-1.43v-9.53q0-.54.33-.98l3.14-4.22.69-.94c1.13-1.64 1.84-2.96 3.8-3.77q2.2-.89 4.6-1.64.17.09.94-.3l2.89-.99q.33-.11.4.23l.06.26a.35.34 77.5 0 1-.25.4q-1.84.46-3.28 1.51"/><path fill="#f8c1cb" fill-opacity=".996" d="m237.24 159.75 5.55 7.82q-.25-.28-.86.48l-5.5-7.82q.48-.1.81-.48M166.76 177.34q-.54.28.26.29l11.31-15.98.9.36-11.76 16.67q-.3.43-.79.25-.32-.11-.57-.33-.47-.42-.75.14-.41.85-1.09 1.09-4.35 1.58-8.72 3.12-.47.16-.47.65l-.06 9.9q-.45-.14-.85-.03l-.03-10.33a1.03 1.03 0 0 1 .69-.97l8.18-2.96a4.78 4.77 80.7 0 0 3.15-4.39l.14-6.36.83.08.08 4.74q.02 1.14.69.21l1.84-2.54q.32-.45.32-1l.01-9.57q0-.25.24-.28l.35-.05q.41-.05.41.36v9.07a3.99 3.96 61.6 0 1-.63 2.15zM202.02 161.1q-.42 1.05-1.44 1.45-3.45 1.4-6.86 2.52-.49.17-.61.67-.09.36-.03.75a.49.48 11.7 0 1-.74.48q-.38-.24-.31-.8.15-.07.25-.17.14-.16-.07-.14-.07 0-.14.04-.8.09-.75.63.38 3.9.12 7.22-.09 1.08.54.2l4.95-6.96q.07.65.43.91-2.24 3.09-4.34 6.26-1.16 1.76-1.24 3.8-.14 3.91.1 8.46-.92-.67-1.7-.64l.36-19.6q.01-.51.41-.84l1.26-1.02.9-.18q3.51-1.02 6.94-2.37.68-.27.99-1.03.7.14.98.36"/><path fill="#f7a206" fill-opacity=".996" d="M255.37 161.4q.45 1.81.21 2.51-.75 2.15-1.15-.09-.14-.74.28-2.37.35-.08.66-.05"/><path fill="#f9c3b7" fill-opacity=".996" d="M136.14 174.09q-.19-.07-.38.66-4.13-1.24-8.04-3-1.81-.81-2.98-2.54-2.12-3.12-4.26-6.29-.16-.24.07-.41l.26-.19q.34-.24.56.1l4.57 6.81a4.59 4.56 83.6 0 0 2.13 1.71z"/><path fill="#f8c1cb" fill-opacity=".996" d="M147.96 163.43q1.01-.2 1.01.83.02 3.58.05 7.28 0 .51.49.68l7.04 2.5q.36.12.24.49l-.1.28q-.12.35-.47.22l-6.41-2.36q-.52-.19-.81.29l-.14.23q-.5.83-.74-.11-.26-.98-.9-1.52-.02-.25.05-.32l.07-8.2q.34-.1.62-.29"/><path fill="#f7a206" fill-opacity=".996" d="M197.36 167.9q-.36-.26-.43-.91l9.57-3.41q.25-.09.33.16l.14.45q.07.21-.14.29zM192.03 166.17q-.02-.14.04-.27.07-.04.14-.04.21-.02.07.14-.1.1-.25.17"/><rect width="1" height="10.64" x="-.5" y="-5.32" fill="#f8c1cb" fill-opacity=".996" rx=".48" transform="rotate(-.1 98828.298 -129889.298)"/><path fill="#f7a206" fill-opacity=".996" d="M190.18 185.78q.78-.03 1.7.64 2.66-2.26 4.41-5.38.29-.51 1.26-.98.57-.28.6-.92l.13-3.26q.01-.16.16-.19l.4-.08q.33-.07.34.27l.04 2.96a.5.49 79.8 0 0 .66.46l6.59-2.37a.38.38 0 0 1 .49.24l.11.32a.29.29 0 0 1-.17.37l-7.04 2.52q-.65.23-.65.92l-.01 4.49q-.01.38-.39.4h-.32a.25.25 0 0 1-.26-.25l-.05-4.38a.45.45 0 0 0-.82-.25l-3.37 4.76q-.43.6.29.77l7.6 1.88q.85.27 1.16.62 3.13.91 6.12 1.74 2.47.68 4.05.06c2.24-.87 3.79-1.1 5.3-3.28q1.86-2.68 4.01-5.61.11-.14.27-.07l.28.12a.39.39 0 0 1 .16.58l-3.84 5.46q-.45.65.29.38l11.02-3.93q.29-.11.39.19l.11.31a.36.36 0 0 1-.22.46l-7.04 2.5q-1.09.38.03.68 3.04.82 6.06 1.68c1.95.55 2.77 1.63 3.84 3.21q-.41.04-.65 1.19-1.17-2.74-2.97-3.27-3.75-1.12-7.47-2.06-1.78-.45-3-.03-1.75.61-2.46 2.07-.23-.73-1.23-.57c-1.79.51-3.82 1.64-5.61 1.34q-1.37-.23-2.61-.71-.14-.06-.29 0-.26.11-.13.45-.37-.55-.92-.27.02-.12-.1-.32-.2-.33-.57-.43l-12.41-3.19a1.02 1-51.8 0 0-.71.09q-.82.44-1.27 1.44-.33-.15-.89-.05.7-1.22.71-1.31.33-2.33-1.1-.46-2.23 2.91-4.47 6.28-.28.42-.29.92-.07 4.36.08 8.52.11 2.83 1.96.68 1.38-1.61 3.08-4.61.47.11.91-.02l2.36.78a.44.44 0 0 0 .53-.22q.07-.16.1-.33.05.63.71.29.22.33.47.58.23.24.62.34 2.25.56 4.54 1.18.48.13.95-.04l4.3-1.55.17.93q-3.88 1.99-6.98 1.54l-1.3-.15q.24.04.34-.07.19-.2-.06-.31-1.3-.61-2.74-.44l-1.22-.48q-1.07-.72-2.6-.81-.55-.04-.86.41l-3 4.31q-.14.2.02.39.37.44-.08.15l-.01.95q.09.73.4 1.17.31.45.79.19 1.04-.58 1.83-1.77l.46.01q-.36 1.61-1.49 2.84-.34.37.03.72l.23.22q.36.35.65-.07l3.24-4.72q.21-.42 1.49-.45l-.04 5.97q-.33.21-.93.26l-.11-3.93q-.02-.77-.43-.12-1.14 1.87-2.55 3.66-.26.33-.24.75.03.49.41.8-.23.91.34 1.37l-.25 14.47q0 .51-.39.85l-1.43 1.27q-.37.33-.26.81.14.6.59 1.04.65.64.41-.24-.45-1.69 1.17-2.62a2.4 2.39-86.9 0 0 .81-.73l3.57-5.1q.69-.99 1.83-1.4l8.03-2.87q.63-.22.63-.88l.03-6.46a.25.25 0 0 1 .24-.25l.33-.02a.34.34 0 0 1 .35.34l.04 9.94q.01.48-.45.36l-.27-.07q-.28-.07-.26-.36l.04-.97q.04-.82-.73-.55l-7.88 2.8q-.52.18-.84.62c-1.45 1.99-5.58 6.85-5.58 9.25q0 .65.61.43l8.33-2.97a.27.26-21.8 0 1 .33.14l.11.25a.46.45-22.4 0 1-.26.62l-8.54 3.03q-.64.22-.64.9l.03 13.74a1.29 1.28-23.9 0 1-.34.87l-1.83 1.99q-.19.2-.01.4l.2.22q.05.06.1 0l4.68-5.48q.28-.13.95.07c-1.03 1.73-4 5.12-3.67 7.02q.09.49.56.32l8.19-2.98q.36-.13.48.22l.12.31q.11.32-.21.43l-8.69 3.09q-.45.16-.46.64l-.17 9.55-.89.05v-10.36a.21.21 0 0 0-.31-.19l-4.49 2.28a.65.64-17.7 0 0-.34.64q.72 5.54.31 12.05-.1 1.62-1.2 3.09-2.62 3.49-4.68 6.57-.31.48.02.94l4.1 5.77q.52.72.51-.16l-.01-7.54q0-.53.3-.96l5.03-7.12.8.76q-1.98 2.44-3.71 4.92-1.23 1.76-1.34 3.88-.23 4.12-.01 8.27l-1.01.62-5.59-8.03a3.16 3.12 27.8 0 1-.55-1.74l-.03-20.27q.61-.36.56-.79.94.06 2.89-.75-.41.11.22.91l-2.12.94q-.5.23-.5.77l.01 17.37q0 1.08.6.18 1.51-2.24 3.06-4.21 1.08-1.36 1.11-3.87.07-4.83-.25-9.5l.14-1.21q.15.06.3.09.36.07.32-.29-.04-.43-.44-.7-.3-.21-.61-.03-.68-.24-.7-.9c2.3-.38 3.59-2.99 4.84-4.75q.29-.41 0-.82-4.17-5.95-8.72-12.33-.59-.83-.68-1.64.62-.34 1.05-1.27 1.99-2.66 3.88-5.35 1.1-1.58 1.12-3.23.03-1.87-.34-3.74-.11-.58-.6-.24l-.32.22-.01-1.51q.07.22.36.16.38-.09.48-.47.81-3.17-.82-4.94a2.23 2.23 0 0 0-3.86 1.71q.2 2.07.03 4.19-.05.6.55.56 1.04-.06 2.19-.68-.33.63.04 1.13-3.19.16-2.54 3.38-.6.19-1.43.01l.28-10.22q1.04-.55.53-.98l2.22-.71q.52-.16.29-.66-.44-.97-1.19-1.72-.06-.31-.17-.53-.1-.19-.28-.25-.19-.06-.4-.02l-.54-1.61q-.21-.63.44-.47.55.14 1.13.71.13.65.53.68.37 1.84 1.43 2.68a1.77 1.76 37.3 0 0 2.52-.33l2.6-3.52q.31-.41.06-.86l-.76-1.37q-.32-.56-.88-.26l-.41.22q-.78.42-.54-.43.3-1.14.06-1.85-.1-.89-1.25-1.71.24-.41-.04-.78-.19-.24-.54-.02-.5-.73-.92-.58-.41-2.86-2.96-5.14-.24.22-.96-.93-1.07-1.33-2.95-1.25-.51.02-.82.43c-2.04 2.76-1.4 8.25-1.19 12.6l-.94.13-.27-13.95q-.01-.69-.66-.88l-2.28-.69a.65.65 0 0 1-.45-.76l.09-.39a.48.47 17.7 0 1 .66-.33l2.06.89q.64.28.65-.43l.07-3.73q0-.17.17-.2l.4-.07q.27-.05.28.22.14 2.18.14 2.7.05 4.9 2.88.9.26-.36 1.73-2.27.55.69.51 1.42-1.43.96-1.99 2.35a.82.82 0 0 0 .68 1.12q.71.06.97-.19.15.25.37.3.19.03.4-.15.29-.25.36-.56 3.33-3.34 5.05-7.54-.48-.07-.52-1.12c.22-1.35 1.05-7.68-.42-9.67q-2.3-3.1-4.96-7.15a.47.47 0 0 1 .18-.68l.28-.15q.51-.27.84.21l5.82 8.36q.32.47.32 1.03v8.99q0 .55-.31 1l-5.41 7.63a1.61 1.59-44.7 0 0-.02 1.82l1.43 2.08q.43.63.5-.13.05-.47.42-.58.75-.21.68.56-.18 2.04.68 3.53.63 1.09.63-.17l.01-7.81a1.64 1.64 0 0 1 .29-.93zm-16.99 9.4q-.18.99.51.75a.31.31 0 0 0 .21-.29q-.01-.53-.45-.63a.23.22 11.3 0 0-.27.17m14.16 18.53q.87-.25 1.41-.96.52-.69-.05-1.31-.31-.32-.55.05l-1.13 1.78q-.42.65.32.44m.89 7.35q1.08-.36.43.58-.51.73-1.43.85a2.32 2.08 72.2 0 0-1.46 3.28q.94 1.92 2.41 3.86.33.43.73.06 1.48-1.38 1.53-3.12.16-5.51.02-12.55a.6.6 0 0 0-.97-.47q-1.39 1.06-3.1 1.52a1.34 1.33-9.6 0 0-.98 1.37l.3 4.88q.04.58.59.39zm-3.68-4.51q.47-.51-.22-.52-.27 0-.41.19-.24.33.15.46.28.09.48-.13m.53 13.74q-2.6 3.64-5.21 7.54-.36.52.01 1.04l4.12 5.85q.55.78.51-.17-.13-3.3-.14-6.78c-.01-2.36 2.05-4.35 3.31-6.18a.79.78 46.7 0 0 .02-.86q-.83-1.39-1.92-2.78-.6-.77-.4.19.28 1.34-.3 2.15m2.95 2.38c-1.21 2.06-2.62 3-2.64 5.72q-.01 3.37 0 6.68c.01 2.39 1.59 3.75 2.72 5.59q.34.55.8.11 1.66-1.61 1.65-3.77-.01-5.48-.07-11.07c-.02-1.45-.55-2.31-1.46-3.36q-.57-.64-1 .1m-.8 23.36q1.93-.66 1.77-2.44-.09-.98-.65-.17l-1.46 2.16q-.5.74.34.45M223.54 168.13l-.08 10.28q0 .2-.2.2h-.3q-.48-.01-.48-.48l.06-9.92q.43.09 1-.08"/><path fill="#f7a206" fill-opacity=".996" d="M179.25 185.73q-.32.09-.82-.01v-10.4q0-.25.26-.25l.33-.01a.26.26 0 0 1 .26.26z"/><path fill="#f9c3b7" fill-opacity=".996" d="M166.76 177.34q.08.22.26.29-.8-.01-.26-.29"/><path fill="#f8c1cb" fill-opacity=".996" d="M203.04 189.34q-.31-.35-1.16-.62l8.41-3.1a1.7 1.67 7.2 0 0 .79-.6l5.48-7.79q.23-.32.51-.03l.29.3q.14.14.03.3l-5.38 7.65a3.3 3.3 0 0 1-1.58 1.2z"/><path fill="#f7a206" fill-opacity=".996" d="M249.77 187.27q-.35-.33-.76-.43l5.45-7.76q.1-.14.25-.08l.28.1q.47.18.18.58zM243.27 182.99l-.02 6.5q0 .21-.21.2l-.3-.01a.41.41 0 0 1-.4-.41l.11-5.74q.24-.51.82-.54M251.91 188.85q-.05-.31.15-.79.79.07 1.27-.72 1.29-2.12 2.96-3.94.19-.21.43-.07t.21.4q-.01.14-.09.26l-2.9 4.21a.25.24-65.8 0 0 .14.38l2.61.65q.17.04.16.23l-.03.56q-.02.31-.32.23l-2.78-.75q-.47-.12-.78.26l-1.37 1.7q-.44.54 0 1.09l5.78 7.06q.25.3-.06.55l-.26.21q-.2.15-.36-.04l-5.96-7.24q-.31-.38-.78-.22l-8.96 3.17q-.33.12-.37-.23l-.03-.26q-.04-.27.22-.37 4.22-1.73 8.38-3.09 1-.33 1.71-1.24.76-.99 1.03-2"/><path fill="#f9c3b7" fill-opacity=".996" d="M179.25 185.73q.48 2.95.16 4-1.04 3.36.96.46 1.34-1.94 3.4-4.54.04 1.05.52 1.12l-5.05 7.54q-.07.31-.36.56-.21.18-.4.15-.22-.05-.37-.3l.34-3.28q.04-.73-.51-1.42.58-1.92.49-4.3.5.1.82.01M249.01 186.84q.41.1.76.43l2.29.79q-.2.48-.15.79l-5.13-1.42q-.32-.08-.16-.37l.15-.27q.12-.2.33-.12 1.01.34 1.91.17"/><rect width="10.5" height="1" x="-5.25" y="-.5" fill="#f7a206" fill-opacity=".996" rx=".4" transform="rotate(15.3 -555.727 1195.978)"/><path fill="#f7a206" fill-opacity=".996" d="M337.53 189.02q-3.38 1.39-7 2.57a.32.32 0 0 1-.4-.19l-.11-.29q-.13-.35.22-.47l9.07-3.21q.62-.22 1.26-.04l9.2 2.52a.43.43 0 0 1 .29.55l-.09.27q-.1.28-.39.2-4.08-1.15-8.05-2.29-1.81-.52-4 .38M239.5 188.13l.04 9.38q.01.36-.35.34l-.41-.01q-.36-.02-.35-.38l.18-8.44q.02-.5.89-.89"/><path fill="#f9c3b7" fill-opacity=".996" d="M190.58 189.5q.56-.1.89.05l-.01 9.95q-.44.13-.91.02z"/><path fill="#f7a206" fill-opacity=".996" d="M134.95 217.85q-.38.01-.72.14l-5.72-8.12a1.98 1.93-63.6 0 1-.37-1.15l-.01-9.48q0-.69.4-1.26l5.59-7.92a.43.42 41.2 0 1 .66-.04l.2.23q.12.13.02.27l-5.55 7.9q-.32.46-.32 1.01l.01 8.99q0 .63.35 1.15zM217.41 191.95l.02 4.99q-.28.09-.43.32-.16.25 0 .48.15.23.49.28l-.09 3.27q-.01.29-.29.33l-.3.04q-.23.03-.23-.2l.01-8.98zM155.02 193.5l-.03 10.03a.26.26 0 0 1-.26.26h-.35q-.25-.01-.25-.26l.04-10.06q.4-.11.85.03"/><path fill="#f8c1cb" fill-opacity=".996" d="M195.16 200.02q-.66.34-.71-.29-.4-2.58.16-4.8.14-.52.35-.02.92 2.13.2 5.11"/><rect width="1" height="10.56" x="150.2" y="195.12" fill="#f7a206" fill-opacity=".996" rx=".48"/><path fill="#f8c1cb" fill-opacity=".996" d="m179.33 198.03.05 4.77q0 .51.47.71.94.42 1.92.51.49.05.52-.85.42-.15.92.58-.17.4.1.68.2.21.48.12 1.15.82 1.25 1.71-.74-.54-1.19-.56-.56-.02-.53.54.23 3.5-2.36 5.74-.4-.03-.53-.68 2.3-2.44 1.92-4.84a2.25 2.25 0 0 0-4.07-.94l-3.11 4.44a.98.97 45.4 0 0 0 1.13l2.22 3.17q.36.51.81.07.7-.66 1.2-1.66.21-.04.4.02.18.06.28.25.11.22.17.53-1.88 1.71-1.32 3.09.51.43-.53.98-.12-.62-1.57-.09-.77.28-.35-.42l.44-.76q.31-.52-.05-1.02l-2.29-3.24q-.38-.52-.8-.04l-.52.59q-.35-.23-.84-.33 1.57-1.75.05-3.22l.94-.13.34.29q.46.39.8-.1l3.49-4.95q.31-.44.31-.98l.02-6.04q.72 1.15.96.93"/><path fill="#f9c3b7" fill-opacity=".996" d="M255.24 206.17q.56.3.37 1.08l-.07 10.03q0 .2-.19.2l-.31.01q-.53.01-.53-.52l-.02-9.45a1.58 1.56 27.4 0 0-.28-.86l-5.56-7.96a.25.24 55.4 0 1 .06-.35l.23-.15a.51.5-34.2 0 1 .69.13z"/><rect width="21.04" height="1" x="-10.52" y="-.5" fill="#f7a206" fill-opacity=".996" rx=".48" transform="rotate(-19.7 742.805 -802.604)"/><path fill="#f9c3b7" fill-opacity=".996" d="m195.47 202.03.06 1.05q.03.55.58.47.93-.14 1.82-.7l1.3.15q-1.55 1.36-3.88 2.09-1.28.03-1.49.45-1.5.29-2.66 1.01l-.46-.01q-1.45.53-3.02.41l.01-.95q7.27-.33 6.52-4.45z"/><path fill="#f8c1cb" fill-opacity=".996" d="M290.24 206.93q-.13.82-.37.82-1.05-.29-1.45 1.71-.03.41-.23.86-.08-.27-.57-.06-.24.11-.41.35-1 1.44-2.03 2.97-.31.46.04.89l5.9 7.21q.29.35-.11.57l-.28.16q-.19.1-.33-.07l-5.98-7.23q-.35-.42-.86-.24l-8.91 3.12q-.25.08-.34-.17l-.09-.29a.34.34 0 0 1 .2-.43q3.96-1.53 7.96-2.86c2.06-.68 3.15-2.73 4.14-4.59q-.01-.12.3-.63 1.31-.84 1.88-2.51l.74-1.01 10.44-3.9q.32-.12.35.22l.04.4q.02.17-.14.23-4.61 1.75-9.13 3.35-1.1.39-.76 1.13"/><path fill="#f7a206" fill-opacity=".996" d="m253.71 245.97-3.82 1.32q-.62.22-1 .75l-5.18 7.35q-.35.51-.35 1.13v8.27q0 .76.71.5l8.26-2.92q.29-.1.39.19l.1.27q.12.38-.25.51l-7.11 2.54q-.9.32.02.58l7 1.97q.53.15 1.06-.04l8.97-3.22a.3.29-17.1 0 1 .39.2l.1.42a.29.29 0 0 1-.18.35l-9.3 3.31q-.51.18-1.03.04l-9.51-2.68a.87.86-82.3 0 1-.62-.82l-.02-9.7q0-.75.44-1.36 2.24-3.14 4.45-6.31c1.77-2.53 4.02-2.97 6.72-3.84q.56-.18.56-.78l-.02-15.25a1.57 1.56 80.3 0 1 1.04-1.48l8.57-3.08a1.77 1.73 6.9 0 0 .82-.63l5.29-7.5q.29-.41.29-.91l.02-9.54a.36.36 0 0 1 .37-.35h.36q.22.01.22.23v9.95q0 .6-.35 1.09l-5.62 7.92a1.76 1.69-81.2 0 1-.83.63l-8.54 3.01a.97.97 0 0 0-.64.91l.01 14.47q0 .76.72.5l2.15-.76q.5-.17.5.36v.31q0 .19-.18.26l-2.68 1.01q-.48.18-.49.7l-.04 2.91q-.01.36-.37.36h-.31a.31.3 89 0 1-.3-.3l-.03-2.33q-.02-.78-.76-.52"/><path fill="#f9c3b7" fill-opacity=".996" d="m223.77 230.83-1.39.05-.16-4.37q-.05-.55-.37-1.03.98-6.1.51-12.53a.88.88 0 0 0-.75-.81c-1.76-.25-3.01-.59-4.2-2.09q-1.57-1.97-3.17-3.85-.03-.26.7-.77c2.1 2.59 3.36 5.4 7.14 5.88q.43.05.35-.37-.07-.33.27-.55.68-.43.8.37l.09.53q.07.49.54.61l4.58 1.27q.35.1.22.44l-.12.29q-.11.28-.4.2l-4.3-1.19q-.67-.19-.66.5z"/><rect width=".98" height="10.8" x="-.49" y="-5.4" fill="#f7a206" fill-opacity=".996" rx=".47" transform="rotate(-39.5 456.588 -350.895)"/><path fill="#f7a206" fill-opacity=".996" d="M288.19 210.32q.2-.45.23-.86l2.46.52q.58.12.25-.36l-1.26-1.87q.24 0 .37-.82l2.31 2.55q.33.35.78.19l7.95-2.85q.19-.07.3.1l.15.25a.36.35 62.8 0 1-.16.51q-3.26 1.39-6.75 2.47-.51.16-.89.55-.2.2-.09.46.32.73-.45.52-2.63-.7-5.2-1.36"/><rect width="10.66" height="1" x="-5.33" y="-.5" fill="#f7a206" fill-opacity=".996" rx=".47" transform="rotate(-19.9 761.127 -773.583)"/><path fill="#f7a206" fill-opacity=".996" d="M172.42 212.23q.49.1.84.33l-6.1 8.69q-.39.04-.91-.19z"/><rect width="1" height="10.64" x="162.36" y="215.55" fill="#f7a206" fill-opacity=".996" rx=".48"/><path fill="#f7a206" fill-opacity=".996" d="M309.7 222.47q-.05-.63-.66-.74l-11.7-3.52a.32.32 0 0 1-.23-.32v-.35q0-.42.4-.31l19.45 5.4a1.6 1.56 42 0 0 .98-.04l8.89-3.19a1.63 1.59 41.9 0 1 .96-.04l9.53 2.6a1.54 1.46-10.5 0 1 .74.48l6.32 7.77q.17.2-.03.36l-.28.25q-.29.24-.53-.05l-5.7-7.03q-.61-.74-1.53-1l-8.41-2.33q-.51-.14-1 .04l-6.93 2.48q-.82.29.02.52l17.36 4.86a1.3 1.28-84.6 0 1 .94 1.15l.64 9.18a1.91 1.9 23.8 0 0 .42 1.07l5.82 7.1a1.57 1.54-11.8 0 0 .78.5l9.25 2.55q.36.1.2.43l-.14.3q-.14.28-.44.2l-7.19-1.99q-.84-.23-.37.5l.51.77q.34.52.38 1.14l.67 9.51q.02.27-.25.29l-.34.03q-.32.02-.36-.3-.52-5.35-.54-6.76c-.01-1.78-.05-3.16-1.28-4.58q-3.24-3.76-6.07-7.44-.9-1.17-.8.3l.51 6.97q.04.51.37.92l5.98 7.33q.36.45.41 1.02l.71 9.79a.33.32 86.5 0 1-.3.35l-.26.01a.41.41 0 0 1-.44-.38l-.69-9.38q-.05-.61-.43-1.08l-5.54-6.75q-.38-.47-.93-.23l-5.69 2.47a.9.9 0 0 0-.54.88l.38 5.95a1.22 1.2-14.3 0 1-.72 1.19l-8.64 3.78a1.19 1.16-85.6 0 0-.56.49l-5.06 8.35q-.15.24-.38.09l-.23-.14a.47.47 0 0 1-.15-.65q2.37-3.87 4.65-7.66.78-1.31 2.39-1.95.36-.15.23-.52-.06-.16-.2-.28-.19-.14-.06-.34l5-8.22a1.5 1.48 6.5 0 1 .83-.65q2.04-.66 1.18-2.95-.12-.32.19-.47l.27-.12q.59-.28.61.37l.06 1.35q.02.72.68.44l5.33-2.32q.57-.25.53-.87l-1.36-18.96a1.07 1.06-84.3 0 0-.78-.96l-17.88-5.02q-.58-.16-.58.44l.01 1.75q.01.64.62.81l2.72.79q.34.1.32.45-.01.21-.14.35-.15.16-.37.11l-2.25-.56q-.7-.18-.65.54c.17 2.41-.2 4.35 1.56 6.41q2.69 3.14 5.12 6.19.32.4-.14.63l-.29.14q-.13.07-.22-.04l-6.26-7.62q-.4-.48-.44-1.1l-.38-4.99q-.05-.65-.68-.83l-5.08-1.42a.24.24 0 0 1-.15-.35l.19-.34a.35.35 0 0 1 .4-.18l4.61 1.22q.58.16.54-.44l-.1-1.81q-.04-.58-.6-.73c-1.68-.48-4.98-1.86-6.71-1.06m15.41 40.12q-.54.9.41.48l5.65-2.49q.58-.26.54-.9l-.33-4.36q-.2-2.73-1.62-.39z"/><path fill="#f9c3b7" fill-opacity=".996" d="m134.95 217.85.18.18q.08.06.08.16l-.01 20.33q0 .35-.35.35h-.31q-.31-.01-.31-.31v-20.57q.34-.13.72-.14"/><path fill="#f8c1cb" fill-opacity=".996" d="m183.12 222.71.01 1.51.04 5.27a.41.41 0 0 1-.42.41l-.32-.02q-.32-.01-.32-.32l-.02-5.19q-.37-.5-.04-1.13l.22-3.49q.02-.23.24-.24h.32q.3-.01.3.29zM167.16 221.25l.01 10.13q0 .24-.24.26l-.29.03q-.3.03-.3-.27l-.09-10.34q.52.23.91.19M309.04 221.73q.61.11.66.74l-8.3 2.9q-.2.07-.27-.13l-.09-.28a.4.4 0 0 1 .25-.51z"/><path fill="#f7a206" fill-opacity=".996" d="M221.85 225.48q.32.48.37 1.03l-4.5 6.38q-.29.42-.3.93l-.01 3.58q0 .74.42.13l4.55-6.65 1.39-.05 8.96 2.49q.51.14 1-.03l9.08-3.24q.26-.1.31.18l.06.34a.44.43-14.3 0 1-.29.48l-8.65 3.13a3.39 3.37 42.6 0 1-2.09.08l-8.38-2.32q-.58-.16-.92.33l-4.73 6.75a4.75 4.75 0 0 0 .01 5.48l5.08 7.2a.37.36-40.4 0 1-.04.47l-.26.27q-.23.22-.42-.04l-5.69-8.02q-.3-.43-.32-.96-.17-4.22-.05-8.41.06-2.05 1.19-3.74 1.97-2.93 4.23-5.79"/><path fill="#f9c3b7" fill-opacity=".996" d="m179.55 227.75-.16 8.81q-.43.93-1.05 1.27l-.23-4.29-.52-.86q.84-2.01.53-4.92.83.18 1.43-.01"/><rect width="1" height="21.2" x="-.5" y="-10.6" fill="#f7a206" fill-opacity=".996" rx=".48" transform="rotate(35.1 -227.24 595.74)"/><path fill="#f7a206" fill-opacity=".996" d="m177.59 232.68.52.86-3.7 5.2q-.15.6-1.35.24z"/><rect width="1.06" height="10.7" x="206.47" y="232.73" fill="#f7a206" fill-opacity=".996" rx=".51"/><path fill="#f8c1cb" fill-opacity=".996" d="M195.25 247.29q-.67-.2-.95-.07l.01-10.23a.37.37 0 0 1 .35-.36l.29-.02q.33-.03.33.3zM173.26 240.55l-.9.14-4.69 1.66q-.46.16-.46.64l-.02 17.72q0 .98.57.19l4.54-6.27.88.17-5.37 7.7a1.22 1.22 0 0 0 0 1.4l5.24 7.44q.17.24-.06.42l-.21.17q-.34.26-.59-.09l-5.68-8.05q-.32-.46-.32-1.01l.01-19.88a1.64 1.62-11.4 0 1 1.01-1.5l5.85-2.42q1.2.36 1.35-.24l1.91-.36a.35.33-29.4 0 1 .28.07q.28.24.13.51-.05.1-.16.15z"/><path fill="#f7a206" fill-opacity=".996" d="m173.26 240.55.39 10.66q-.08.95-.35 1.13l-.12 2.46-.88-.17.06-13.94z"/><path fill="#f8c1cb" fill-opacity=".996" d="m173.65 251.21 5.22 7.36q.05.43-.56.79l-5.01-7.02q.27-.18.35-1.13M182.9 257.37q.02.66.7.9.01.51.43.93l-.14 1.21q-1.15-1.41-1.91-1.68-.63-.8-.22-.91l-3.1-4.52q-.22-.32.09-.56l.21-.16q.29-.22.5.07z"/><path fill="#f7a206" fill-opacity=".996" d="M206.23 262.32q-.23-.43-.19-.86.46-.42.46-2.21-.01-2.47.05-5.04 0-.26.26-.26h.42q.26 0 .26.26l.02 9.84q0 .55-.32 1.01l-5.65 8.01q-.22.32-.53.07l-.22-.17q-.28-.22-.07-.52 2.73-3.81 5.3-7.51.39-.55.49-1.23.16-1.05-.28-1.39M239.43 282.28l-.88-.24-.05-5.35q-.04-3.31-1.95-.6l-4.87 6.91q-.32.46.05.89l3.01 3.52.65.82 1.77 2.42a1.93 1.92 79.6 0 0 1.02.71l8.71 2.42q.63.18 1.25-.04l8.77-3.13q.39-.14.53.24l.11.29q.1.25-.16.34l-9.25 3.33q-.59.21-1.18.04-4.21-1.17-8.35-2.33c-1.92-.54-2.73-1.73-3.86-3.23q-.33-.18-.67-.62l-3.23-4.15a1.72 1.71-46.5 0 1-.05-2.04l4.19-5.91q.49-.69-.31-.43l-1.14.38q-.51.16-1.01.02l-8.99-2.54a1.44 1.43-82.5 0 1-1.04-1.37l-.04-4.29q-.11 1-.64-.75.92-1.78.73-4.39-.04-.54.27-.99l5.7-8.09q.19-.27.44-.06l.25.2a.38.37 38.2 0 1 .07.51l-5.45 7.75a1.63 1.61 63.1 0 0-.3.94l-.04 8.86q0 .62.59.78 3.68 1.01 6.94 2.03 2.16.68 3.64.03 1.56-.7 3.2-1.3a.91.91 0 0 0 .59-.85q0-.51.17-1.02.23-.65.7-.14.18.19.19.4.06.89.91.62l5.85-1.87q.5-.16 1.01-.02l9.36 2.59q.32.09.25.41l-.06.32q-.08.36-.44.26l-9.14-2.54a1.9 1.85-47.2 0 0-1.19.06l-5.94 2.36q-.54.22-.55.8zM312.06 258.01l9.45-3.35a.25.25 0 0 1 .32.17l.14.48a.25.25 0 0 1-.16.3l-9.7 3.45a.25.25 0 0 1-.15.01l-9.98-2.76a.25.25 0 0 1-.17-.33l.19-.46a.25.25 0 0 1 .3-.15l9.61 2.65a.25.25 0 0 0 .15-.01"/><rect width="1" height="10.66" x="162.36" y="257.62" fill="#f8c1cb" fill-opacity=".996" rx=".48"/><path fill="#f8c1cb" fill-opacity=".996" d="M206.04 261.46q-.04.43.19.86l-8.33 3.04a1.77 1.74 10 0 0-.77.53q-4.38 5.17-5.66 10.1.85.55-1.18.42l.12-3.07q.02-.51.38-.87 3.19-3.21 5.21-6.71a2.97 2.94-84.4 0 1 1.58-1.31z"/><rect width=".98" height="10.74" x="-.49" y="-5.37" fill="#f7a206" fill-opacity=".996" rx=".47" transform="rotate(-39.4 527.747 -293.827)"/><path fill="#f9c3b7" fill-opacity=".996" d="M191.4 265.89q.78 5.23-.85 5.82l-.8-.76q1.07-1.92.76-5.01z"/><path fill="#f8c1cb" fill-opacity=".996" d="M221.82 267.59q.53 1.75.64.75l-4.74 6.71q-.3.42-.3.94v9.13q0 .55.32 1l5.1 7.21q.38.53 1 .31l8.06-2.9q.56-.2.95-.65l1.23-1.42q.34.44.67.62c-.82 1.05-1.41 1.99-2.75 2.47q-3.96 1.45-7.97 2.88-.48.18-.49.69l-.07 3.71q-.46.1-.93 0l-.1-4.04q-.02-.53-.32-.96l-5.32-7.51q-.36-.52-.36-1.15l-.01-9.59q0-.64.36-1.15z"/><path fill="#f7a206" fill-opacity=".996" d="m339.18 279.13-.67-10.08a.24.24 0 0 1 .22-.25l.49-.03a.24.24 0 0 1 .25.22l.74 10.35a.24.24 0 0 1-.03.15l-5.35 8.87a.24.24 0 0 1-.26.1l-.51-.13a.24.24 0 0 1-.15-.35l5.23-8.71a.24.24 0 0 0 .04-.14"/><rect width="1.02" height="10.66" x="206.49" y="274.96" fill="#f8c1cb" fill-opacity=".996" rx=".48"/><path fill="#f7a206" fill-opacity=".996" d="M191.47 275.99q.71 6.16-.12 11.47-.27-.14-.8-.01l-.26-11.04q2.03.13 1.18-.42"/><path fill="#f9c3b7" fill-opacity=".996" d="m191.77 296.9-.18 1.09-1.11.23q-.08-.38-.55-.73-.24-.52-.9-.53.23-1.45-.6-1.49-.7-.37-.51-.89l-3.44-5.18 1.01-.62 2.86 4.05q.38.54.79.03 1.75-2.2 1.41-5.41.53-.13.8.01l.18 4a.89.88 65.2 0 1-.22.61l-1.86 2.14q-.05.07.01.13l.28.23q.19.16.35-.03l3.9-4.6q.35-.41.35-.96l.02-9.74q0-.56.54-.45l.26.05q.21.05.2.26-.05 4.11.05 8.64c.05 2.73-2.61 5.06-3.62 7.05q-.58 1.15-.02 2.11"/><path fill="#f8c1cb" fill-opacity=".996" d="m239.43 282.28-4.04 5.95-.65-.82 3.81-5.37z"/><path fill="#f7a206" fill-opacity=".996" d="M222.54 299.04q.47.1.93 0l.03.37q.04.45.47.57l3.66 1.04q.24.07.17.32l-.1.32q-.11.36-.47.26l-3.13-.82q-.59-.15-.6.46l-.05 13.71q0 .59-.53.35l-.25-.11q-.11-.06-.11-.18l-.08-14.06a.87.87 0 0 0-.65-.84l-4.01-1.07a1.75 1.74 77.1 0 1-.9-.57l-5.86-7.16a.85.83-29.3 0 0-.93-.25l-18.54 6.61.18-1.09 18.44-6.59a1.22 1.22 0 0 1 1.37.38l5.87 7.17q.36.43.9.59l3.79 1.08q.25.07.33-.19.04-.14.07-.3M188.43 295.47q-.93 1.07-1.38 2.17-.21.51.31.34.93-.3 1.67-1.02.66.01.9.53-1.71 1.48-3.5 1.97a1.45 1.45 0 0 0-1.07 1.44l.26 8.84q-.45.01-1.36.51l.28-9.5a.46.46 0 0 0-.61-.45l-3.92 1.33q-.65.22-.65.92l.01 18.47-1.03.75.03-19.84a1.01 1 80.1 0 1 .66-.95l5.14-1.86a1.78 1.76-81.2 0 0 .82-.61l2.93-3.93q-.19.52.51.89"/><path fill="#f8c1cb" fill-opacity=".996" d="m206.51 306.35-.01-9.98a.25.25 0 0 1 .25-.25l.5-.01a.25.25 0 0 1 .25.25l-.02 10.34a.25.25 0 0 1-.05.14l-5.96 8.46a.25.25 0 0 1-.38.03l-.35-.35a.25.25 0 0 1-.03-.32l5.75-8.17a.25.25 0 0 0 .05-.14"/><path fill="#f7a206" fill-opacity=".996" d="m191.59 297.99-.05 19.3q-.92.26-.94-.14l.02-3.07q0-.05-.03-.01-.8.93-1.58.97-.05-.32-.26-.58c.99-1.36 1.7-2.32 1.71-4.1q0-6.08.02-12.14zM264.91 306l.69 9.67a.25.25 0 0 0 .06.14l6.35 7.79a.25.25 0 0 1-.02.34l-.36.33a.25.25 0 0 1-.36-.03l-6.57-8.02a.25.25 0 0 1-.06-.14l-.76-10.05a.25.25 0 0 0-.18-.23l-9.34-2.59a.25.25 0 0 1-.18-.31l.13-.48a.25.25 0 0 1 .31-.18l9.65 2.68a.25.25 0 0 0 .15-.01l9.45-3.36a.25.25 0 0 1 .32.13l.2.43a.25.25 0 0 1-.15.34l-9.16 3.3a.25.25 0 0 0-.17.25"/><rect width="1" height="10.62" x="-.5" y="-5.31" fill="#f7a206" fill-opacity=".996" rx=".48" transform="rotate(-39.3 576.244 -248.55)"/><path fill="#f8c1cb" fill-opacity=".996" d="M185.62 309.74q1.14 2.58 3.13 4.72.21.26.26.58l1.59 2.11q.02.4.94.14-.1 10.64-.06 21.27 0 .25.09.35.14.14.39.14-.29.42.09.89l-.37.02-1.22.28-5.68-8.32a1.68 1.66-63.1 0 1-.29-.91l-.04-9.91q.56.24.92.11l.09 9.12q.01.52.31.94l4.43 6.26q.38.54.37-.12-.11-8.86-.03-17.65.01-1.56-1.95-3.38-.9-.43-.62-.71l-2.08-3.3q-.45-.72-.44.13v1q0 .6-.34 1.09l-5.36 7.66a.5.5 0 0 1-.15.15q-1.52 1.03-1.26-.63l1.03-.75q2.3-3.1 4.34-6.27c.99-1.55.82-2.81.55-4.5q.91-.5 1.36-.51"/><path fill="#f7a206" fill-opacity=".996" d="m188.59 316.38-3.22 4.83q-.36.13-.92-.11 1.14-2.73 3.52-5.43-.28.28.62.71"/><rect width="1" height="10.72" x="206.5" y="317.07" fill="#f9c3b7" fill-opacity=".996" rx=".48"/><path fill="#f7a206" fill-opacity=".996" d="M192.05 339.94q-.38-.47-.09-.89l8.62-3.1q.27-.09.34.19l.08.33a.27.27 0 0 1-.17.31zM191.68 339.96l-.06 9.91q0 .58-.57.62l-.31.02q-.3.02-.3-.29l.02-9.98zM191.43 382h-.83l-.1-20.79q0-.39.38-.39h.31a.36.36 0 0 1 .35.36z"/></svg>