<svg xmlns="http://www.w3.org/2000/svg" viewBox="0 0 382 382"><path fill="#fc0101" d="M114.2 0q.57.44-.22 1.97c-1.07 2.08-.6 6.31-.6 8.92 0 4.7 4.13 8.21 4.07 13.06q-.04 2.81-.09 5.59c-.09 4.87 4.11 8.41 4.09 13.39-.01 2.87-.57 6.65.66 9.28q1.26 2.69 2.43 5.52c1.06 2.57 3.88 4.54 5.96 6.31 2.79 2.38 3.92 5.9 5.27 9.18 1.81 4.39 7.08 5.92 8.98 10.24 1.24 2.81 2.4 6.82 4.76 8.8 2.44 2.05 4.74 4.98 7.88 5.89 3.04.87 6.68 1.65 9 3.92q1.79 1.76 3.73 3.36c2.78 2.28 3.74 6.07 5.23 9.22 2.1 4.41-.47 9.44 1.72 13.92 1.22 2.47 2.12 5.9 4.12 7.69 2.49 2.23 5.97 4.68 7.24 7.87 1.11 2.8 3.14 5.87 3.07 8.9q-.06 2.97.03 6.01c.15 5.06-4.31 8.63-4.11 13.73.12 2.96-.45 6.16.78 8.88 1.38 3.03 3.43 6.38 3.31 9.7q-.1 2.66.03 5.23c.18 3.52-2.01 6.91-3.33 10.04-1.86 4.45-7.26 5.96-9.1 10.53q-.98 2.43-2.12 4.77c-1.39 2.87-.82 6.77-.79 9.89.02 2.98-1.84 6.12-3.1 8.74-1.49 3.1-.96 6.89-.9 10.2.05 2.96-1.97 6.41-3.23 9.03-1.4 2.93-.75 6.52-.88 9.69-.18 4.71 4.23 8.45 4.1 13.46q-.07 2.81-.07 5.6c-.01 4.71 4.11 8.24 4.08 13.06-.02 3.28-.6 6.98.88 9.95 1.29 2.58 2.11 5.94 4.26 7.86q2.25 2.01 4.56 4.04c2.35 2.06 3.3 5.63 4.65 8.41 1.5 3.09.87 6.85.98 10.18.16 5.05-4.31 8.64-4.12 13.82q.1 2.65.04 5.14c-.06 2.63 1.55 5.53 2.74 7.88q1.16 2.3 1.29 5.61.14 3.77-.14 7.52h-.66q-.18-3.72-.22-7.5-.03-2.69-.86-4.47c-1.31-2.76-3.28-6.05-3.13-9.25.15-3.41-.5-7.01 1.07-10.24q1.15-2.36 2.27-4.92c1.22-2.75.62-6.12.75-9.08.14-3.18-1.87-6.03-2.98-8.92-1.18-3.05-4.3-5.13-6.67-7.25-2.43-2.17-3.58-5.86-4.87-8.77-1.29-2.94-.94-6.56-.81-9.7q.09-2.24-.96-4.39-.99-2.04-1.97-4.12c-1.56-3.3-1.24-7.13-1.1-10.69.18-4.49-3.96-8.08-4.03-12.68-.05-3.56-.53-7.56 1.02-10.95q1.14-2.48 2.35-4.99.75-1.56.68-3.19-.15-3.64-.04-6.96a7.83 7.81-32.9 0 1 .57-2.66q1.23-2.99 2.72-5.96.8-1.6.75-3.36-.09-3.2-.09-6.22c.01-3.23 2.06-6.59 3.32-9.49 2-4.62 7.46-6.06 9.31-11.01.97-2.6 2.84-5.29 2.77-8.09q-.08-2.66.03-5.41c.2-4.91-3.92-8.38-4.05-13.15-.1-3.73-.46-8.26 1.28-11.62q.99-1.92 1.91-3.98c1.35-2.99.72-6.38.85-9.58q.09-2.16-.94-4.17c-1.42-2.76-2.13-6.05-4.52-8.15q-2.09-1.83-4.13-3.61c-2.45-2.15-3.65-5.9-4.92-8.85-2-4.6.47-9.78-1.77-14.07-1.47-2.81-2.17-6.15-4.71-8.29-2.4-2.03-4.57-4.73-7.68-5.7-3.08-.95-6.51-1.57-8.94-3.84q-2.54-2.38-4.93-4.57a5.71 5.69-81.1 0 1-1.33-1.83q-1.33-2.89-2.59-5.98c-1.87-4.6-7.36-6.12-9.31-10.87-1.04-2.57-2.13-6.08-4.21-7.98-2.32-2.12-5.51-4.23-6.81-7.13q-1.36-3.03-2.66-6.07c-1.16-2.7-.65-6.28-.63-9.25.03-3.22-1.92-6.28-3.21-9.16-1.32-2.96-.87-6.74-.81-9.9.07-2.97-1.85-6.08-3.06-8.72q-.92-2.03-1.07-4.39-.38-5.93 1.23-10.87z"/></svg>