<svg xmlns="http://www.w3.org/2000/svg" viewBox="0 0 382 382"><g fill="none" stroke="#7c7e80" stroke-opacity=".996" stroke-width="2"><path d="M354.3 189.06q-.12-.38-.06-.74M343.97 198.83q.06-.65.2-.82M321.26 205.52q-.07-.26-.61-.6M365.36 197.21l-.05.7M351.3 198.74q-.26-.22-.26-.83M378.03 203q-.13.27-.12.85M339.61 206.19l-.73-.59M317.3 219.21q-.17-.45-.81-.62M312.21 231.31q-.36-.01-.66-.15M303.56 223.39q.12-.44-.44-.8M293.18 233.32q-.07-.79.18-.91M255.27 224.27q-.11.8.2.77M201.75 253.07q-.2-.35-.96-.09M279.78 229.41q.03.71-.18.97M300.2 253.02q-.1-.31-.45-.47M292.79 265.5l-.06-.94M204.57 266.78q-.72.08-.68-.24M203.79 314.23q-1.27-.28-.53-1.97M203.38 307.78q-.27-.23-.73-.39M207 327.94q-.16.27-.91.27M203.11 322.07l-.76-.47M191.53 329.39q-.22-.27-.55-.35M229.01 342.75q-.26.51-.17.84M232.76 356.45q-.11.32-.47.7M245.8 360.9q-.12.37-.04.64M259.74 358.59q-.41.67-.37.9" vector-effect="non-scaling-stroke"/></g><path fill="#0101fd" fill-opacity=".996" d="M354.3 189.06q-.12-.38-.06-.74l12.47-3.95a4.41 4.37 42.5 0 1 2.31-.09l12.69 2.9q.2.05.16.25l-.1.53q-.06.25-.31.2-5.74-1.33-11.55-2.67-1.82-.43-4.05.2-5.84 1.63-11.56 3.37"/><path fill="#f7fb03" fill-opacity=".996" d="M354.24 188.32q-.06.36.06.74l-9.05 9.15q-.3.3-.7.43l-.58.19q.06-.65.2-.82z"/><path fill="#0101fd" fill-opacity=".996" d="M344.17 198.01q-.14.17-.2.82l-12.15-2.7a1.9 1.9 0 0 0-1.76.51l-8.8 8.88q-.07-.26-.61-.6l8.86-8.98a2.41 2.4-61.5 0 1 2.22-.66z"/><path fill="#f7fb03" fill-opacity=".996" d="m365.36 197.21-.05.7-14.01.83q-.26-.22-.26-.83-.01.24.16-.04.07-.12.2-.12z"/><path fill="#0101fd" fill-opacity=".996" d="M378.03 203q-.13.27-.12.85l-12.6-5.94.05-.7zM351.04 197.91q0 .61.26.83l-11.69 7.45-.73-.59z"/><path fill="#f7fb03" fill-opacity=".996" d="M382 200.69v.78q-1.98 1.68-4.09 2.38-.01-.58.12-.85 1.87-1.57 3.97-2.31M320.65 204.92q.54.34.61.6l-3.96 13.69q-.17-.45-.81-.62zM338.88 205.6l.73.59-6.42 11.64a1.5 1.47 12.2 0 1-1.22.77l-12.52.71a1.13 1.12 12.6 0 0-.94.59l-6.3 11.41q-.36-.01-.66-.15v-.41q.01-.34.17-.64l5.94-10.74a2.07 2.04 12.3 0 1 1.68-1.06l11.99-.67a1.77 1.77 0 0 0 1.44-.91z"/><path fill="#0101fd" fill-opacity=".996" d="M316.49 218.59q.64.17.81.62l-13.74 4.18q.12-.44-.44-.8z"/><path fill="#f7fb03" fill-opacity=".996" d="M303.12 222.59q.56.36.44.8l-9.38 9.51a1.3 1.23 15.1 0 1-.63.34q-.18.04-.37.08-.07-.79.18-.91z"/><path fill="#0101fd" fill-opacity=".996" d="M255.27 224.27q-.11.8.2.77l-12.4 3.68q-.5.15-.87.52l-8.94 9.02a1.92 1.91 28.1 0 1-1.75.53q-5.28-1.1-11.12-2.53-1.63-.39-3.19.08-6.01 1.83-11.12 3.27a.97.96-89.4 0 0-.68.67l-3.65 12.79q-.2-.35-.96-.09l3.73-13.16a1.62 1.59-.5 0 1 1.1-1.1l11.56-3.39a5.81 5.69-46.4 0 1 2.87-.1l11.54 2.55a1.18 1.16-61 0 0 1.06-.31q3.48-3.49 7.37-7.55 1.41-1.47 3.66-2.25 5.7-1.98 11.59-3.4"/><path fill="#f7fb03" fill-opacity=".996" d="M279.78 229.41q.03.71-.18.97l-12.58 3.72a1.82 1.79 56.8 0 1-1.71-.37l-9.84-8.69q-.31.03-.2-.77 1.03.01 1.65.57 4.51 4.05 9.17 8.14a.92.92 0 0 0 .86.19z"/><path fill="#0101fd" fill-opacity=".996" d="M293.36 232.41q-.25.12-.18.91l-13.58-2.94q.21-.26.18-.97zM311.55 231.16q.3.14.66.15l.01 12.76q0 1.36-1.15 2.09l-10.87 6.86q-.1-.31-.45-.47l10.96-7.3a1.08 1.07 74 0 0 .48-.88z"/><path fill="#f7fb03" fill-opacity=".996" d="M299.75 252.55q.35.16.45.47l-6.43 11.59q-.21.38-.58.62l-.4.27-.06-.94zM201.75 253.07l2.82 13.71q-.72.08-.68-.24l-3.1-13.56q.76-.26.96.09"/><path fill="#0101fd" fill-opacity=".996" d="m292.73 264.56.06.94q-5.71.41-11.52.72-2.24.11-3.77 1.11-4.81 3.14-9.71 6.1-.74.46-1.53.08l-11.49-5.57q-.31-.15-.6.04-4.83 3.1-9.87 6.16-1.52.93-2.39 2.55-2.77 5.2-5.58 10.17a1.37 1.34 12.1 0 1-1.07.68q-5.71.44-11.75.67-1.81.06-3.31 1.07-4.27 2.88-8.88 5.62c-1.69 1-3.19 3.93-3.68 5.78q-1.8 6.79-3.85 13.55-1.27-.28-.53-1.97l2.34-7.7q.37-1.22-.31-.15-.95 1.47-1.91 3.37-.27-.23-.73-.39l3.26-6.04a1.21 1.21 0 0 0-.17-1.38l-7.58-8.41a5.19 5.18 17.6 0 1-1.2-2.31l-2.61-11.2q-.34-1.45.71-2.51l8.83-9q-.04.32.68.24-.05.14-.07.28-.04.27-.23.46l-8.77 8.8a1.13 1.13 0 0 0-.29 1.06q1.31 5.38 2.52 10.95.41 1.88 1.82 3.35 3.72 3.89 6.87 7.63a.35.35 0 0 0 .58-.06c.99-1.94 1.93-4.07 3.88-5.26q4.6-2.8 8.91-5.6 1.77-1.15 4.08-1.22 5.67-.17 11-.63.52-.04.77-.49 2.68-4.74 5.35-9.77.96-1.8 2.6-2.83 4.94-3.09 10.11-6.38a1.38 1.38 0 0 1 1.32-.08l11.51 5.5a1.01.99 41.5 0 0 .98-.05q4.74-2.88 9.52-6.02 1.62-1.05 4.01-1.19 5.88-.35 11.69-.67"/><path fill="#f7fb03" fill-opacity=".996" d="M202.65 307.39q.46.16.73.39l-.12 4.48q-.74 1.69.53 1.97l3.21 13.71q-.16.27-.91.27l-2.6-10q-.06-.25-.3-.18l-.25.08q-.02 0-.01.01.8 1.99.18 3.95l-.76-.47z"/><path fill="#0101fd" fill-opacity=".996" d="m202.35 321.6.76.47-11.58 7.32q-.22-.27-.55-.35zM229.01 342.75q-.26.51-.17.84l-12.09-4.26a4.15 4.09 78.5 0 1-1.68-1.13l-8.98-9.99q.75 0 .91-.27 3.94 4.23 7.79 8.54 1.41 1.57 3.4 2.25 4.99 1.7 9.9 3.43.56.19.92.59"/><path fill="#f7fb03" fill-opacity=".996" d="M190.98 329.04q.33.08.55.35-.03 5.82.01 11.74.01 2.31.98 3.98 2.82 4.88 5.39 9.64a1.78 1.78 0 0 1 0 1.68q-2.71 5.05-5.48 9.84-.93 1.61-.91 3.87.05 5.95-.09 11.86h-.78l-.16-13.19a3.71 3.68-31.3 0 1 .46-1.86l6.09-10.98q.21-.39 0-.77l-5.67-10.16q-.95-1.72-.92-3.69.11-5.9.03-11.52 0-.36.28-.6zM232.76 356.45q-.11.32-.47.7l-3.45-13.56q-.09-.33.17-.84.47-.06.62.51 1.73 6.6 3.13 13.19"/><path fill="#0101fd" fill-opacity=".996" d="M245.8 360.9q-.12.37-.04.64-.11.05-.23.1-.04.02-.08 0l-13.16-4.49q.36-.38.47-.7z"/><path fill="#f7fb03" fill-opacity=".996" d="M259.74 358.59q-.41.67-.37.9l-12.16 2.21q-.89.16-1.45-.16-.08-.27.04-.64z"/><path fill="#0101fd" fill-opacity=".996" d="M284.43 382h-.57l-1.92-7.01a1.15 1.14 2.1 0 0-.72-.77l-11.61-4.03a3.91 3.89-11.1 0 1-1.59-1.06l-8.65-9.64q-.04-.23.37-.9l9.16 10.04a1.94 1.93 78.2 0 0 .79.52l12.13 4.2a1.64 1.61 4.3 0 1 1.06 1.21z"/></svg>