<svg xmlns="http://www.w3.org/2000/svg" viewBox="0 0 382 382"><path fill="#017802" fill-opacity=".996" d="M120.8 0q.72 3.3.65 7.09-.04 1.82.48 3.23.67 1.81 1.45 3.55c1.24 2.77.97 5.63.88 8.57-.09 2.91 1.58 6.12 2.69 8.72 1.16 2.73 4.39 4.6 5.88 7.39q6.06 11.36.12 22.36a1.97 1.95 57.4 0 0-.23 1.07q.22 3.01.01 6.13c-.14 2.12 1.25 4.58 2.05 6.53 1.27 3.1 1.05 6.13.92 9.39q-.06 1.44.51 2.77c1.06 2.48 2.44 5.16 2.5 7.87q.05 2.59-.06 5.11c-.09 2.21 1.36 4.48 2.04 6.61 1.36 4.23 5.68 5.97 7.21 10.11q.83 2.26 1.75 4.58c.78 1.97 2.77 3.7 4.23 5.22 2.06 2.14 2.92 4.75 3.86 7.48.92 2.65 3.16 4.62 4.98 6.62q1.2 1.32 3.67 2.45 14.04 6.42 13.69 22.21-.06 2.54.68 4.34c.92 2.24 1.59 4.9 3.28 6.73 1.95 2.13 4.12 3.89 5.17 6.64q.9 2.36 1.77 4.62c.88 2.28.44 4.96.53 7.4.11 3.06-1.35 5.73-2.49 8.49-.95 2.29-.44 5.42-.51 7.86-.1 3.52 2.68 6.87 3 10.64q.7 8.16-3.34 14.64c-1.78 2.85-4.89 4.61-6.05 7.97-.79 2.3-2.16 4.64-2.1 7.11q.05 2.49.04 5.04c-.02 2.21-1.18 4.58-2.06 6.57-1.32 3.01-.91 5.9-.91 9.05.01 4.08-3.13 7.19-3.03 11.38.06 2.47-.31 5.14.65 7.49 1.13 2.79 2.53 5.37 2.41 8.5-.1 2.42-.36 5.1.61 7.39 1.01 2.39 2.33 5.15 2.34 7.79.01 2.98-.41 5.71.83 8.53q.8 1.82 1.45 3.67c.75 2.13 2.73 3.8 4.28 5.41q1.56 1.62 2.71 4.28 1.81 4.17 2.07 5.52.29 1.57.05 6.96c-.11 2.44-1.1 4.58-2.07 6.76-1.3 2.94-.83 6.05-.84 9.16-.01 2.05 1.22 4.25 2 6.17q.89 2.16.96 4.99.08 2.94-.17 5.84h-.63q-.21-2.74-.25-5.54-.06-3.11-.89-5.05-.75-1.73-1.43-3.47c-.94-2.45-.55-5.12-.62-7.67q-.07-2.37.87-4.62c.82-1.98 2.15-4.47 2.13-6.59q-.02-2.56.03-5.09c.04-2.41-1.34-4.73-2.12-6.99-1.35-3.9-5.22-5.59-6.79-9.25q-1.18-2.74-2.17-5.58c-1.39-3.94.52-7.84-1.5-11.96-1.63-3.33-2.24-6.45-1.87-10.18.42-4.23-2.48-7.15-2.89-11.16q-.32-3.04-.04-6.41c.31-3.8 3.31-7.28 2.95-10.93-.43-4.34.26-7.61 2.02-11.35 1.73-3.65.13-7.16 1.15-10.75q.83-2.89 2.15-5.95c1.18-2.73 3.37-4.4 5.28-6.61 1.53-1.76 3.89-7.72 3.81-10.05-.08-2.55.38-5.61-.63-8.02q-.87-2.06-1.7-4.14c-.97-2.46-.61-5.03-.69-7.59-.14-4.45 3.04-7.58 3.01-11.64q-.02-2.41.01-4.86c.03-2.51-1.29-4.7-2.09-7.01-1.25-3.63-4.66-5.51-6.45-8.72q-3.54-6.3-2.93-12.64c.29-3.11-1.17-5.49-2.16-8.26-.9-2.52-2.99-4.33-4.74-6.25-1.89-2.09-4.71-3.07-7.27-4.35-2.47-1.24-4.52-3.98-6.31-6.04-1.5-1.72-2.17-4.23-2.95-6.39-1.4-3.85-5.03-5.52-6.71-9.06-1.34-2.82-1.84-5.83-4.02-8.2-1.62-1.76-3.83-3.56-4.68-5.8-1.15-3.02-2.69-5.83-2.57-9.16q.07-1.92.08-3.85c0-2.45-1.36-5.11-2.29-7.32-.98-2.33-.8-5.06-.67-7.53.15-3.04-1.16-5.48-2.29-8.19-1.06-2.52-.73-5.74-.72-8.47.02-3.86 2.83-6.76 2.93-10.37.09-3.3.46-6.71-.99-9.85-.89-1.93-1.32-4.12-2.81-5.72-1.87-2.02-4.29-4.06-5.26-6.66-.94-2.55-2.27-4.98-2.34-7.75q-.05-2.21.06-4.35.12-2.09-.85-4.32-1.01-2.33-1.92-4.65-.76-1.94-.14-9.64z"/></svg>