<svg xmlns="http://www.w3.org/2000/svg" viewBox="0 0 382 382"><g fill="none" stroke="#f5c571" stroke-width="2"><path d="M170.42 27.09q-.28.09-.55.52M183.44 33.99q-.46.41-.6.75M191.47 47.69q-.61.17-.9-.05M191.47 62.09q-.61-.15-.88.07M183.67 75.49l-.89-.01M183.71 90.25l-.95.11M184.23 130.57q-.96-.41-.97-.08M170.31 138.68q.14-.43-.61-.8M162.6 165.93q-.65.18-.84-.07M155.04 178.91q-.09-.13-1.02-.09M147.21 222.18q-.31.2-.69.29M154.94 250.25l-.62.16M170.34 290.75q.15.31-.72.61M191.52 325.97q-.4-.31-.96-.12M183.66 339.32q-.68.28-.94-.14M191.6 367.37q-.53.7-.95.17" vector-effect="non-scaling-stroke"/></g><path fill="#f2e6dc" d="m162.57 0 .1 13.78q.01.5.27.93l7.48 12.38q-.28.09-.55.52-.34-.24-.58-.62-3.19-5.11-6.37-10.3-1.12-1.83-1.18-3.94-.18-6.38-.01-12.75z"/><path fill="#f7a305" d="m170.42 27.09 13.02 6.9q-.46.41-.6.75l-12.97-7.13q.27-.43.55-.52"/><path fill="#f2e6dc" d="M191.47 47.69q-.61.17-.9-.05l-7.73-12.9q.14-.34.6-.75z"/><path fill="#f7a305" d="M191.47 47.69v14.4q-.61-.15-.88.07l-.02-14.52q.29.22.9.05"/><path fill="#f2e6dc" d="m191.47 62.09-7.8 13.4-.89-.01 7.81-13.32q.27-.22.88-.07"/><path fill="#f7a305" d="m183.67 75.49.04 14.76-.95.11.02-14.88z"/><path fill="#f2e6dc" d="m183.71 90.25 7.48 12.44a2.07 2.06-61 0 1 .31 1.09l-.01 13.7a3.68 3.65-29.7 0 1-.52 1.88l-6.74 11.21q-.96-.41-.97-.08l6.95-11.74q.3-.5.3-1.08l-.01-13.84q0-.56-.29-1.04l-7.45-12.43z"/><path fill="#f7a305" d="M184.23 130.57q-.65 1.01-1.29 1.37-3.52 2-12.63 6.74.14-.43-.61-.8l13.56-7.39q.01-.33.97.08"/><path fill="#f2e6dc" d="M169.7 137.88q.75.37.61.8l-7.29 12.13q-.26.43-.26.93l-.16 14.19q-.65.18-.84-.07-.23-6.54.04-12.93.09-2.21 1.23-4.15 3.21-5.44 6.67-10.9"/><path fill="#f7a305" d="M161.76 165.86q.19.25.84.07l-7.56 12.98q-.09-.13-1.02-.09z"/><path fill="#f2e6dc" d="M154.02 178.82q.93-.04 1.02.09l-.12 14.15q-.01 1.34-.7 2.49l-6.66 11.05q-.39.65-.39 1.41l.04 14.17q-.31.2-.69.29l-.35-14.06q-.04-1.34.66-2.49l6.75-11.21q.27-.46.28-.99z"/><path fill="#f7a305" d="m147.21 222.18 7.18 11.91a3.4 3.4 0 0 1 .5 1.78l.05 14.38-.62.16q-.4-.33-.4-.67.02-6.97-.02-14 0-.5-.25-.94l-7.13-12.33q.38-.09.69-.29"/><path fill="#f2e6dc" d="M154.94 250.25q3.56 5.57 6.83 11.31 1.06 1.85 1.03 3.63-.08 6.36-.02 12.44.01.61.33 1.14l7.23 11.98q.15.31-.72.61l-7.48-12.45q-.39-.64-.39-1.39v-13.54q0-.57-.29-1.07-3.57-6-7.21-11.92-.18-.28.07-.58z"/><path fill="#f7a305" d="M191.52 325.97q-.4-.31-.96-.12-.05-6.32-.08-12.57-.01-2.25-.98-3.86-3.3-5.44-6.43-10.56-.3-.49-.82-.77l-12.63-6.73q.87-.3.72-.61 5.75 2.86 11.32 5.96 2.12 1.17 3.11 2.88 2.81 4.84 5.69 9.47 1.02 1.65 1.03 4.09 0 6.28.03 12.82"/><path fill="#f2e6dc" d="m191.52 325.97-7.86 13.35q-.68.28-.94-.14l7.84-13.33q.56-.19.96.12"/><path fill="#f7a305" d="m183.66 339.32.06 13.94a2.01 1.96 30.3 0 0 .26.94l7.62 13.17q-.53.7-.95.17-3.22-5.57-6.62-11.38-1.1-1.88-1.18-4.02-.23-6.24-.13-12.96.26.42.94.14"/><path fill="#f2e6dc" d="m191.6 367.37-.17 14.63h-.8l.02-14.46q.42.53.95-.17"/></svg>