<svg xmlns="http://www.w3.org/2000/svg" viewBox="0 0 382 382"><path d="M62.71 0q5.36 2.4 7 2.28 2.98-.21 3.45-2.28h.74q.15.29.35.46.46.38.88-.04l.42-.42h1.76l6.67 8.94a.56.55-28.9 0 0 .65.18l9.21-3.72q.54-.22.19-.69L90.58 0h1.58l2.72 3.55q1.81 2.36 1.54-.6-.1-1.14.13-2.95h.79l.19 3.34q.03.48.49.34 4.03-1.18 6.97-3.68h1.38l12.85 3.52q.5.14.6-.36.31-1.49.11-3.16h1.02l.08 3.53q.02.52.52.66l9.59 2.65q.53.14.54-.4l.1-6.44h.9l.13 6.75q.01.53.52.67l8.45 2.26q.97.26.36-.53L135.11 0h1.2l53.68 70.23q.5.65.5-.17V53.87q0-.72-.44-1.3l-10.69-13.99a3.07 3.04-64 0 1-.63-1.86V19.46a1.05 1.04-82.4 0 0-.77-1.01l-16.82-4.62a2.7 2.69 78.8 0 1-1.38-.93L149.87 0h1.14l9.64 12.37q.33.42.83.55l15.64 4.21q.61.16.24-.35-4.69-6.49-9.56-12.6-1.21-1.51-.78-4.18h.98q-.34 2.29.44 3.3 10.76 14.09 21.58 28.17.46.61.46-.16l.01-16.16a2.02 1.98 26.8 0 0-.41-1.21L179.48 0h1.21l9.27 12.14q.58.76.58-.2V0h.97l.01 382h-.91l-.12-18.26q0-.94-.57-1.69l-10.62-13.9q-.57-.74-.57-1.68v-17.52a.87.86-82.7 0 0-.64-.84l-16.98-4.63q-.85-.23-1.39-.93l-11.15-14.59q-.14-.19.05-.34l.23-.18q.37-.28.66.09l11.04 14.45a1.68 1.65-10.5 0 0 .89.6l15.84 4.22q.74.2.26-.4-4.54-5.77-9.34-12.12c-1.24-1.64-1.26-2.85-1.25-4.75q.03-7.65.03-15.61 0-.5-.3-.9l-17.59-23.01a.99.98 60.1 0 0-1.15-.32l-16.15 6.57a2.7 2.68-48.2 0 1-1.69.1l-17.58-4.78q-.35-.09-.29-.44l.04-.28q.05-.34.38-.25 8.42 2.21 17.17 4.65c1.5.42 2.56-.34 3.87-.87q6.35-2.54 12.77-5.21.83-.34-.04-.57l-15.73-4.27a2.61 2.6 78.8 0 1-1.4-.94l-10.8-14.15a1.75 1.69 78 0 0-.92-.62l-17.12-4.72q-1.08-.3-1.76-1.19l-10.88-14.23q-.23-.31.07-.54l.25-.19a.31.31 0 0 1 .43.05l11.12 14.55q.33.43.85.57l15.72 4.24q.8.22.3-.44l-10.18-13.32q-.19-.26.09-.42l.28-.15a.44.42 56.5 0 1 .55.12l22.81 29.84q.33.43.86.57l23.82 6.47a.37.37 0 0 0 .47-.37l-.06-9.98q0-.66-.63-.83l-16.64-4.57a3.61 3.59-11 0 1-1.92-1.29l-10.84-14.16q-.28-.36.08-.64l.27-.2q.17-.13.3.04l11.22 14.66q.35.46.9.61l15.83 4.25q.66.18.25-.36l-9.97-13.01a2.8 2.79 26.5 0 1-.57-1.69l.01-17.57a2.5 2.49 26.5 0 0-.51-1.51l-10.5-13.73a3.66 3.65 26.5 0 1-.76-2.26l.02-7.4q0-.48-.46-.6l-18.89-5.08q-.31-.08-.23-.4l.11-.45q.05-.21.25-.15l18.2 4.91a.8.8 0 0 0 1.01-.77l-.01-6.9q0-1.01-.97-1.28l-16.59-4.52a2.84 2.82 78.6 0 1-1.49-1l-10.93-14.33q-.3-.38.09-.67l.21-.17q.19-.15.34.05l11.14 14.56a1.7 1.69-11 0 0 .91.61l15.64 4.22q.6.16.22-.34l-11.68-15.36a3.04 3.02 78.9 0 0-1.6-1.08l-27.18-7.4a1.18 1.18 0 0 0-1.33.54l-8.74 14.87a2.97 2.95-85.8 0 1-1.45 1.26l-16.76 6.81q-.29.12-.41-.17l-.12-.29a.36.35 68.2 0 1 .19-.46l16.8-6.87a1.8 1.8 0 0 0 .88-.76l8.21-13.98q.44-.75-.36-.42l-14.57 5.94a4.26 4.24-48.3 0 1-2.69.16l-16.69-4.58q-.52-.14-1.02.06l-16.31 6.63a3.85 3.81 41.3 0 1-2.48.15l-17.27-4.75a.47.47 0 0 1-.32-.6l.08-.25q.07-.18.25-.13l17.72 4.77a2.49 2.47 41.2 0 0 1.62-.1l14.73-6q.85-.34-.03-.58L33.5 160.5q-.21-.06-.18-.28l.04-.27q.07-.49.55-.36l36.36 9.86q.57.16 1.12-.07l22.55-9.2q.64-.26.22-.81l-5.92-7.72q-.44-.57-1.1-.3l-16.1 6.56q-.93.38-1.91.11l-17.54-4.77q-.33-.1-.24-.43l.08-.32q.08-.3.37-.22l17.81 4.81q.51.14 1-.06l15.06-6.18q.76-.31-.03-.53l-15.49-4.23a3.63 3.63 0 0 1-1.94-1.3l-10.58-13.85q-.38-.5-.99-.66l-17.11-4.69a3.08 3.08 0 0 1-1.62-1.08l-10.57-13.83a.83.83 0 0 0-.96-.26l-16.36 6.65a2.53 2.53 0 0 1-1.65.09L0 114.86v-.93l8.19 2.18a3 2.96-48.2 0 0 1.87-.12l14.84-6.06q.71-.29-.03-.49l-15.71-4.28a3.29 3.28 78.8 0 1-1.76-1.18L0 94.28v-1.41l8.42 10.74q.32.4.82.54l34.59 9.4q.64.17.24-.35l-9.84-12.86a2.46 2.46 0 0 0-1.29-.87l-16.95-4.63a3 3 0 0 1-1.58-1.07L3.42 79.38a.34.33-38.4 0 1 .06-.47l.25-.18a.36.36 0 0 1 .5.06l11 14.41q.41.53 1.05.7l15.55 4.19q.88.24.33-.48L22.05 84.42q-.29-.38.15-.57l.27-.11q.25-.11.42.11l46.39 60.68q.29.38.75.51l49.25 13.38q.61.16.64-.47c.08-1.51.39-3.26-.65-4.56q-9.1-11.32-17.03-22.27a1.06 1.05 60.7 0 0-1.25-.36l-16.02 6.5a3.33 3.31-48.3 0 1-2.14.13l-17.34-4.73q-.33-.09-.24-.42l.08-.29a.33.33 0 0 1 .41-.24l17.53 4.73a2.11 2.08-48 0 0 1.32-.08l14.73-6.01q1.01-.42-.04-.7l-15.7-4.23a2.38 2.35 78.7 0 1-1.23-.83l-10.69-14.02a2.72 2.69-11 0 0-1.42-.95l-16.89-4.63a3 3 0 0 1-1.58-1.07L40.81 89.61a.43.42-38.4 0 1 .07-.58l.2-.17q.26-.22.47.06l11.09 14.49q.35.46.9.61l15.72 4.26q.79.22.29-.44L59.36 94.49a.27.27 0 0 1 .07-.39l.3-.19q.3-.19.51.09l22.84 29.88a1.7 1.7 0 0 0 .9.6l23.66 6.41q.59.16.59-.45l-.05-9.88a.85.85 0 0 0-.63-.82l-16.9-4.62a2.82 2.81 78.8 0 1-1.5-1.01L78.01 99.54q-.13-.17.02-.33l.17-.19a.46.45 47.3 0 1 .69.03L90 113.57q.34.44.88.59l15.84 4.31q.71.19.26-.39L96.9 104.9a2.1 2.1 0 0 1-.44-1.29l-.01-17.57a2.23 2.21-63.6 0 0-.44-1.33l-10.9-14.52a2.02 1.98 26.8 0 1-.41-1.21V51.21a.99.98 7.7 0 0-.73-.95L67.1 45.67a2.6 2.6 0 0 1-1.41-.95l-11-14.39q-.29-.37.08-.66l.25-.18q.18-.15.33.04l11.08 14.52a2.03 1.94-10 0 0 1.05.7l15.61 4.22q.78.21.3-.43-4.17-5.57-9.16-11.89c-1.9-2.41-1.28-5.65-1.26-8.49a.3.3 0 0 0-.42-.28l-11.03 4.46a.31.31 0 0 1-.41-.18l-.14-.4q-.09-.24.15-.33l11.32-4.6q.52-.21.52-.76l-.01-10.29q0-.69-.64-.44c-.88.35-1.92.38-2.82.14q-8.39-2.32-16.78-4.57-.51-.14-1 .06l-16.37 6.68a3.38 3.35-48.5 0 1-2.14.14l-17.63-4.81q-.16-.04-.17-.21l-.02-.37a.36.36 0 0 1 .45-.36l17.91 4.83q.52.14 1.02-.06l15.02-6.12q.8-.32-.04-.55L33.59 5.68q-.35-.1-.24-.45l.09-.29q.08-.28.36-.2 18.31 4.95 36.26 9.84.67.18 1.35-.01a.51.51 0 0 0 .26-.81L62.14 1.68q-.32-.41-.83-.52Q57.58.41 59.59 0zm11.25 7.48a.43.43 0 0 0 .32.41l8.36 2.18a.43.43 0 0 0 .45-.67l-6.34-8.26a.43.43 0 0 0-.5-.14l-2.01.77a.43.43 0 0 0-.28.41zm33.15-5.34q-.65-.85-1.63-.44l-7.45 3.11a1.01 1-16.3 0 0-.6 1.09c.37 2.35 2.07 4.78 4.59 5.06q1.31.15 2.52.66c2.95 1.25 5.39.1 8.03-1.2q.63-.31.21-.87zM120 5.09a.33.33 0 0 0-.24-.33l-10.97-2.99a.33.33 0 0 0-.34.52l5.64 7.26a.33.33 0 0 0 .38.11l5.25-2.1a.33.33 0 0 0 .21-.3zM72.22 2.56c-2.63 1.53-4.94-.02-7.58-.48q-.7-.12-.24.42c1.23 1.46 2.1 3.41 4.14 3.85q1.86.41 3.64 1.01.76.26.76-.55l.01-3.83q.01-.85-.73-.42m48.89 3.12q-.05.34 0 .69.11.76.8.42.37-.18.65-.47.52-.54-.16-.87l-.41-.21q-.74-.36-.88.44m-26.65.52-3.21 1.36q-.99.41.05.67l4.85 1.22q.54.13.44-.42-.24-1.24-1-2.47-.41-.66-1.13-.36m26.82 12.57 8.99 11.75q.4.52 1.04.7l11.56 3.15a.5.5 0 0 0 .63-.5c-.05-1.63.32-3.23-.81-4.64q-9.12-11.41-16.63-21.74c-1.18-1.63-3.24-.2-4.6.43q-.48.22-.48.75v9.19q0 .51.3.91m5.6-11.74 4.48 5.82q.46.6.44-.15l-.12-4.06a.89.87-84 0 0-.66-.83l-3.97-1.04q-.46-.12-.17.26M72.43 13.2q.51.68.51-.17l.01-3.74q0-.73-.7-.93l-3.51-1q-.92-.27-.34.5zm66.85 8.02q1.96.63 3.6.88.62.09.61-.54l-.04-9.57a1.01 1-82.8 0 0-.73-.96l-9.27-2.55q-.81-.22-.76.62c.14 2.24-.56 4.69.98 6.58q1.9 2.34 3.45 4.43c.62.84 1.27.82 2.16 1.11m-20.45-5.23q.11.31.32.56.77.95.78-.28l.05-7q.01-.73-.67-.46l-3.78 1.48q-.72.28-.25.89l3.13 4.05q.27.35.42.76M86.8 12.25a.33.33 0 0 0 .02.37l9.1 12.02a.33.33 0 0 0 .59-.2l-.08-13.63a.33.33 0 0 0-.25-.31l-6.97-1.8a.33.33 0 0 0-.37.15zM74.27 8.92a.31.31 0 0 0-.4.32l.18 3.76a.31.31 0 0 0 .42.28l5.55-2.15a.31.31 0 0 0-.03-.59zm23.37.32q-.11 0-.22-.01-.08-.01-.05.06.04.08.12.14.06.05.13.01.05-.02.08-.06.15-.15-.06-.14m-10.39.35q.11-.33-.23-.29-1.31.13-1.76 1.12-.42.91.54.64 1.08-.31 1.45-1.47m25.44 28.78 17.83 4.8q1.21.32 1.21-.93l-.02-6.57q-.01-1.12-1.09-1.41l-16.31-4.47a3.29 3.23-10.7 0 1-1.75-1.17l-10.99-14.38a.24.24 0 0 1 .04-.34l.25-.18q.36-.28.64.08l11 14.4q.36.47.93.63l15.69 4.22q.51.14.19-.28l-11.86-15.65a2.67 2.67 0 0 0-1.51-.98q-8.63-2.13-16.35-4.29-1.17-.32-2.36-.84a.55.55 0 0 0-.77.5v71.38a5.71 5.7-82.4 0 0 4.21 5.51l14.62 3.97q.77.21.28-.43l-10.22-13.4q-.13-.17.04-.31l.27-.21q.34-.27.6.07L130.12 108q.32.42.84.56l23.62 6.38q.66.18.66-.51l-.04-9.76q0-.68-.66-.86l-17.05-4.63a2.25 2.25 0 0 1-1.19-.8l-11.29-14.79q-.13-.16.01-.32l.18-.2a.44.43 47.3 0 1 .67.03l11.16 14.57q.35.46.92.62l15.88 4.29a.21.21 0 0 0 .22-.33l-10.01-13.1q-.57-.75-.57-1.68l.01-17.47a2.75 2.7-64.1 0 0-.56-1.66l-10.75-14.07q-.39-.51-.4-1.15-.11-4.11-.04-8.4.02-.81-.73-.62-.51.14-1.02 0l-17.62-4.81a.27.27 0 0 1-.19-.34l.12-.36q.09-.3.4-.22m.9-27.21c-1.29.38-2.6 1.08-3.85 1.52q-.88.31.02.55l6.97 1.83a.16.16 0 0 0 .16-.25q-2.73-3.43-2.76-3.48-.22-.27-.54-.17M78.25 24.45a1.02 1 3.9 0 0 .53-.45l5.79-9.99a1.77 1.77 0 0 0-.91-2.54c-.71-.27-1.45-.23-2.14.05q-3.55 1.4-7.12 2.9a.77.77 0 0 0-.47.71l.05 10.33q0 .7.65.44zm66.21-10.94.03 8.54a.75.73 7.8 0 0 .55.71l8.64 2.37q.79.21.29-.44l-8.77-11.43q-.75-.97-.74.25m-48.57 30.4a.33.33 0 0 0 .59-.2l-.02-16.68a.33.33 0 0 0-.07-.2L86.36 13.74a.33.33 0 0 0-.59.2l-.06 16.54a.33.33 0 0 0 .07.2zM84.7 30.06l.01-13.36q0-.86-.43-.12l-4.8 8.14q-.23.4-.66.57l-4.35 1.77q-.49.21-.5.74l-.01 6.18a1.63 1.59-64.3 0 0 .33.98l21.7 28.39q.47.61.47-.16V46.78a1.54 1.49-64.2 0 0-.3-.91L85.2 31.54q-.5-.66-.5-1.48m95.04-9.48v16.11q0 .72.43 1.29l9.84 12.86q.47.61.47-.16V34.35q0-.58-.36-1.05l-9.86-12.9q-.52-.68-.52.18m-36.23 7.34-.04-3.83q-.01-.65-.63-.83l-3.55-1q-.94-.27-.35.51l4.07 5.33q.51.68.5-.18m1.43-4.14a.38.38 0 0 0-.48.37l.06 10.34a.38.38 0 0 0 .28.37l9.96 2.76a.38.38 0 0 0 .48-.37l-.05-10.34a.38.38 0 0 0-.28-.37zm20.49 16.81a.3.3 0 0 0 .33-.48l-9.11-11.91a.3.3 0 0 0-.54.19l.16 9.31a.3.3 0 0 0 .21.28zm-33.14-8.07a.33.33 0 0 0-.35.52l5.66 7.23a.33.33 0 0 0 .38.11l5.24-2.1a.33.33 0 0 0 .21-.3l-.01-2.19a.33.33 0 0 0-.24-.32zm.42 4.05.01 5.26q0 .72.67.46l2.68-1.06q.7-.27.24-.88l-3.03-3.98q-.57-.75-.57.2m13.6-.44-1.39.01q-.7 0-.52.67l.11.42q.13.47.59.3.79-.3 1.42-.81a.33.33 0 0 0-.21-.59m2.65 38.92a.25.25 0 0 1 .37.03l11.48 14.99a.25.25 0 0 0 .13.09l16.34 4.47a.25.25 0 0 0 .26-.39l-10.49-13.72a.25.25 0 0 1-.05-.15l-.04-19.14a.25.25 0 0 0-.05-.15L148.72 37.3a.25.25 0 0 0-.3-.08l-3.79 1.64a.25.25 0 0 0-.15.23l-.01 48.88a.25.25 0 0 0 .05.15l45.55 59.59a.25.25 0 0 0 .45-.15l-.05-16.93a.25.25 0 0 0-.05-.15l-11.63-15.25a.25.25 0 0 1-.05-.15l-.01-18.82a.25.25 0 0 0-.18-.24l-18.19-4.98a.25.25 0 0 1-.13-.09l-11.65-15.21a.25.25 0 0 1 .02-.32zm6.26-35.86q0-.43-.42-.55l-3.88-1.09q-.83-.23-.31.45l4.14 5.46q.47.62.47-.16zm11.35 13.83a.32.32 0 0 0 .41-.31l-.01-10.48a.32.32 0 0 0-.23-.3l-10.1-2.79a.32.32 0 0 0-.4.31l-.01 5.52a.32.32 0 0 0 .07.2l4.75 6.26a.32.32 0 0 0 .17.12zm-27.81-11.86a.34.33 60.7 0 0-.14.52l4.24 5.6q.61.81.61-.2l.01-7.08q0-.73-.67-.46zm4.71 25.3V50.41q0-.71-.43-1.27l-5.15-6.73a.95.94-27.8 0 0-1.06-.32l-3.36 1.14q-.75.26-.75 1.05v8.43q0 .64.39 1.14l9.8 12.8q.56.74.56-.19M177 55.82a.33.33 0 0 0 .34-.52l-8.72-11.42a.33.33 0 0 0-.6.2l-.02 9.07a.33.33 0 0 0 .24.31zM96.46 82l-.02-15.81a2.05 2.04 26.4 0 0-.42-1.24l-9.93-12.82q-.4-.51-.4.14l.02 16.17q.01.74.46 1.32l9.65 12.46q.64.83.64-.22m65.81-28.68 4.07 5.34q.54.72.56-.18l.1-3.69q.02-.71-.67-.88l-3.83-.94q-.61-.15-.23.35m28.18 38.6a.3.3 0 0 0-.06-.18l-11.57-15.18a.3.3 0 0 1-.06-.18l-.05-18.77a.31.31 0 0 0-.23-.29l-10.08-2.84a.31.31 0 0 0-.39.3L168 80.03a.3.3 0 0 0 .06.18l21.92 28.7a.31.31 0 0 0 .56-.19zm-10.16-32.81a.32.32 0 0 0-.58.2l.07 16.74a.32.32 0 0 0 .06.2l10.13 13.33a.32.32 0 0 0 .58-.2l-.08-16.75a.32.32 0 0 0-.06-.2zm-31.24 93.37q.17-.14.31.04l11.19 14.64a1.58 1.58 0 0 0 .82.55l15.93 4.31a.23.23 0 0 0 .24-.37l-9.86-12.86q-.71-.91-.71-2.07v-17.57q0-.59-.36-1.06l-17.56-22.95a.92.91-29.5 0 0-1.07-.29l-16.58 6.74a1.47 1.43-47.4 0 1-.95.05l-17.97-4.91q-.33-.09-.24-.42l.07-.27q.09-.35.43-.25l17.58 4.74q.64.17 1.25-.07l14.9-6.09q.82-.34-.04-.57l-15.68-4.28a2.86 2.83 78.5 0 1-1.52-1.02l-10.6-13.89q-.45-.59-1.17-.8-8.17-2.39-16.49-4.53c-1.43-.36-2.36-1.28-3.11-2.5q-.42-.69-.42.11l.02 16.44a1.93 1.89-64.2 0 0 .39 1.16l92.11 120.49q.53.68.53-.18v-16.08q0-.74-.44-1.32l-10.68-13.99a3.08 3.07-63.9 0 1-.64-1.88v-17.3a1.01 1-82.5 0 0-.74-.97l-16.83-4.57a2.74 2.7 78.6 0 1-1.44-.97l-11.01-14.4a.47.46 52.5 0 1 .08-.65zm41.45-24.44v-16.07q0-.71-.43-1.28l-9.79-12.81q-.52-.67-.52.18v16.15a2.02 1.99-64.3 0 0 .42 1.23l9.77 12.78q.55.73.55-.18m-25.22-10.19a.32.32 0 0 0 .33-.5l-8.83-11.51a.32.32 0 0 0-.57.2l.04 9.11a.32.32 0 0 0 .24.3zm-125.77 6.71 15.94 4.31q.76.21.29-.42l-9.87-12.89q-.41-.53-1.06-.71l-15.66-4.24q-.78-.21-.29.43l10.04 13.1a1.18 1.13-9.3 0 0 .61.42M151.03 115a.34.34 0 0 0-.36.54l3.96 5.15a.34.34 0 0 0 .61-.21l-.04-4.07a.34.34 0 0 0-.25-.33zm9.06 12.68c1.35 1.89 4.07 2.05 6.11 2.66q.75.23.75-.55l.04-9.85a.73.73 0 0 0-.53-.7l-9.47-2.6q-.73-.2-.73.56l-.04 4.61a1.99 1.95 26.8 0 0 .42 1.24q1.68 2.14 3.45 4.63m7.93-5.64L168 130a1.02 1.01-82.6 0 0 .75.98l8.56 2.34q.63.18.23-.35l-8.59-11.24q-.93-1.22-.93.31m-49.76 11.69a.31.31 0 0 0 .33-.49l-8.82-11.49a.31.31 0 0 0-.56.19l-.01 9.14a.31.31 0 0 0 .23.3zm48.13 2.41q.54.72.55-.17l.04-3.73a.88.88 0 0 0-.63-.86l-3.61-1.02q-.85-.24-.32.47zm-62.34-5.19a.34.34 0 0 0-.36.54l3.9 5.1a.34.34 0 0 0 .61-.2l-.01-4.04a.34.34 0 0 0-.25-.33zm86.41 38.4a.3.3 0 0 0-.06-.18l-11.59-15.2a.3.3 0 0 1-.06-.18l-.03-18.75a.3.3 0 0 0-.22-.29l-10.13-2.84a.3.3 0 0 0-.38.29l.02 25.23a.3.3 0 0 0 .06.18l21.94 28.75a.3.3 0 0 0 .54-.19zm-70.5-23.51.01-9.94a.8.79-82.4 0 0-.58-.77l-9.46-2.58q-.72-.19-.7.55c.05 2.39-.64 4.82 1.1 6.89q1.8 2.16 3.38 4.33.4.56 1.08.73l4.62 1.21q.54.14.55-.42m59.79-9.04-.01 16.18a1.63 1.59-64.3 0 0 .33.98l10.01 13.1q.4.51.4-.14l.01-16.44q0-.59-.36-1.06l-9.8-12.81q-.58-.76-.58.19M130 149.16a.32.32 0 0 0 .34-.51l-8.75-11.48a.32.32 0 0 0-.57.19l-.05 9.11a.32.32 0 0 0 .24.31zM119.98 148a.68.67-82 0 0-.48-.65l-3.82-1.08q-.81-.23-.3.45l3.93 5.24q.61.81.63-.2zm11.18 13.7a.44.44 0 0 0 .56-.42l-.02-10.24a.44.44 0 0 0-.32-.42l-9.85-2.76a.44.44 0 0 0-.56.42l.01 10.23a.44.44 0 0 0 .32.42zm-26.9-5.74a.32.32 0 0 0-.03-.61l-14.08-3.8a.32.32 0 0 0-.34.51l5.59 7.28a.32.32 0 0 0 .37.1zm28.44-3.24.04 8.54a1.04 1.04 0 0 0 .76 1l8.41 2.31q.79.22.29-.43l-8.9-11.62q-.61-.79-.6.2m-27.89 13.79c3.42 1.34 4.88-.22 7.93-1.24a.42.42 0 0 0 .2-.65l-6.15-8.09a.6.6 0 0 0-.71-.19l-9.5 3.8a.37.37 0 0 0-.14.58q1.28 1.53 2.37 3.15c1.4 2.07 3.94 1.84 6 2.64m3.97-9.96a.34.34 0 0 0-.36.53l5.63 7.28a.34.34 0 0 0 .4.11l5.27-2.09a.34.34 0 0 0 .22-.3l.05-2.12a.34.34 0 0 0-.25-.34zm14.34 4.29a.17.16-45.5 0 0 0-.29q-.82-.43-1.62-.49-.52-.04-.47.48l.06.7q.07.71.7.36zm-28.41.11L91 162.4q-.76.3.02.52l6.79 1.87q.62.17.23-.33l-2.53-3.29q-.32-.41-.8-.22m47.43 22.4c-5.66-7.09-11.12-14.29-16.57-21.6a.89.87 59.9 0 0-1.06-.29l-3.02 1.28q-.51.22-.51.78v9.18q0 .52.32.94l9.07 11.82a1.7 1.69-11 0 0 .91.61l11.48 3.07q.52.14.65-.39.68-2.95-1.27-5.4m-10.39-15.85-.05-3.91q0-.76-.74-.96l-3.57-.97q-.84-.23-.31.46l4.27 5.52q.41.54.4-.14m5.75 7.96a.37.37 0 0 0 .2.13l5.33 1.5a.37.37 0 0 0 .47-.36l-.06-10.38a.37.37 0 0 0-.27-.35l-9.99-2.78a.37.37 0 0 0-.47.36l.04 5.53a.37.37 0 0 0 .08.22zm-17.53-11.61a.34.34 0 0 0-.47-.32l-4.22 1.68a.34.34 0 0 0-.15.52l4.21 5.67a.34.34 0 0 0 .61-.21zm-6.73 2.25-3.49 1.37q-.81.31.03.54l6.75 1.81q.66.18.23-.36l-2.44-3.08q-.44-.54-1.08-.28m40.26 13.77a.32.32 0 0 0 .34-.5l-8.8-11.48a.32.32 0 0 0-.58.2v9.11a.32.32 0 0 0 .24.31zm36.43 25.78a.33.33 0 0 0 .6-.2l-.07-16.73a.33.33 0 0 0-.07-.2l-10.1-13.32a.33.33 0 0 0-.6.2l.08 16.74a.33.33 0 0 0 .07.2zm-51.23-28.41 4.25 5.61q.55.71.54-.18l-.01-3.78q-.01-.65-.63-.82l-3.97-1.1q-.49-.13-.18.27m16.06 15.2a.38.38 0 0 0 .48-.37l-.04-10.35a.38.38 0 0 0-.28-.37l-9.98-2.74a.38.38 0 0 0-.48.37l.05 10.34a.38.38 0 0 0 .28.37zm10.69 2.99a.3.3 0 0 0 .33-.47l-9.12-11.92a.3.3 0 0 0-.54.18l.18 9.33a.3.3 0 0 0 .21.28zm-33.05-7.07 4.85 6.4q.33.44.87.3 2.47-.62 4.67-1.91a1.66 1.66 0 0 0-.4-3.03l-10.12-2.79a.4.39-74.2 0 0-.48.27q-.12.44.3.55a.66.62-9 0 1 .31.21m.33 8.47a.3.3 0 0 0 .4.29l3.3-1.13a.3.3 0 0 0 .14-.46l-3.34-4.39a.3.3 0 0 0-.54.18zm12.13-5.94a.41.41 0 0 0-.44.4l-.01.44q-.02.76.72.61.76-.15 1.4-.55.49-.29-.04-.52-.76-.33-1.63-.38m4.2 39.03a.25.25 0 0 1 .33.05l11.41 14.9a.25.25 0 0 0 .13.09l16.39 4.53a.25.25 0 0 0 .27-.39l-10.56-13.76a.25.25 0 0 1-.05-.15l-.02-19.14a.25.25 0 0 0-.05-.15l-18.2-23.78a.25.25 0 0 0-.3-.08l-3.78 1.64a.25.25 0 0 0-.15.23l-.01 48.88a.25.25 0 0 0 .05.15l45.54 59.58a.25.25 0 0 0 .45-.15l-.03-16.91a.25.25 0 0 0-.05-.15l-11.63-15.23a.25.25 0 0 1-.05-.15l-.02-18.83a.25.25 0 0 0-.18-.24l-18.22-5.04a.25.25 0 0 1-.13-.09l-11.64-15.18a.25.25 0 0 1 .07-.36zm6.17-31.58-.02-4.04q-.01-.66-.64-.85l-3.61-1.04q-.86-.25-.32.46l4.23 5.58q.36.48.36-.11m1.38-4.38a.34.34 0 0 0-.43.33l.05 5.51a.34.34 0 0 0 .07.2l4.76 6.25a.34.34 0 0 0 .18.12l5.3 1.49a.34.34 0 0 0 .43-.33v-10.46a.34.34 0 0 0-.25-.33zm-13.1.59q0-.48-.45-.3l-4.07 1.7q-.61.26-.21.79l4.18 5.48q.5.66.51-.17zm-.04 26.16.01-15.24q0-.95-.57-1.69l-5-6.52q-.43-.56-1.09-.34l-3.43 1.16q-.65.22-.65.91l-.03 8.44q0 .73.44 1.31l9.4 12.28q.92 1.21.92-.31m33.67-9.98a.32.32 0 0 0 .34-.5l-8.88-11.55a.32.32 0 0 0-.57.2l-.03 9.04a.32.32 0 0 0 .23.31zm-14.68-2.98q-.55-.14-.21.31l3.96 5.26q.69.91.72-.23l.08-3.6q.01-.56-.53-.7zm16.85 24.28a2.84 2.82-63.8 0 1-.58-1.72l.01-17.6a.7.69 7.7 0 0-.52-.67l-9.53-2.61a.55.55 0 0 0-.69.53v24.3a2.08 2.06 26.6 0 0 .43 1.26l21.59 28.24q.47.62.47-.16.01-6.67-.02-13.08c0-1.66.38-3.36-.69-4.76q-5.32-6.97-10.47-13.73m10.66 12.38a.31.31 0 0 0 .56-.18l-.05-16.77a.3.3 0 0 0-.06-.18l-10.13-13.31a.31.31 0 0 0-.56.18l.05 16.75a.3.3 0 0 0 .06.18zm.52 38.39.01-16.11q0-.63-.39-1.14l-9.86-12.9q-.49-.65-.49.17l-.01 16.15a2.13 2.06-64.5 0 0 .43 1.28l9.74 12.74q.57.75.57-.19m-25.22-10.11a.31.31 0 0 0 .33-.49l-8.82-11.59a.31.31 0 0 0-.56.19l-.01 9.16a.31.31 0 0 0 .23.3zm-14.42-2.84q-.75-.2-.27.41l4.14 5.34q.52.68.52-.18l-.03-3.76q0-.66-.64-.83zm5.85 1.52a.34.34 0 0 0-.43.32l-.08 5.46a.34.34 0 0 0 .07.21l4.81 6.33a.34.34 0 0 0 .18.12l5.29 1.42a.34.34 0 0 0 .43-.32l.01-10.43a.34.34 0 0 0-.25-.33zm20.47 15.96-8.5-11.16q-.63-.82-.63.22l-.05 8.52q0 .66.63.84l8.11 2.24q1.2.33.44-.66m-10.24 3.4.03-3.76q0-.66-.64-.83l-3.6-.94q-.9-.24-.33.5l3.99 5.21q.54.71.55-.18m23.53 33.46a.3.3 0 0 0-.06-.18l-11.59-15.23a.3.3 0 0 1-.06-.18l-.04-18.75a.31.31 0 0 0-.23-.29l-10.1-2.82a.31.31 0 0 0-.39.3l.02 25.22a.3.3 0 0 0 .06.18l21.91 28.71a.31.31 0 0 0 .56-.19zm-10.72-32.62v16.16q0 .63.38 1.13l9.84 12.87q.52.68.52-.18v-16.27a1.64 1.63-64.1 0 0-.34-1l-9.86-12.89q-.54-.71-.54.18m.57 38.52a.33.33 0 0 0-.6.2l.08 16.72a.33.33 0 0 0 .07.2l10.09 13.32a.33.33 0 0 0 .6-.2l-.08-16.74a.33.33 0 0 0-.07-.2z"/></svg>