<svg xmlns="http://www.w3.org/2000/svg" viewBox="0 0 382 382"><g fill="none" stroke="#023f83" stroke-opacity=".996" stroke-width="2"><path d="m191.26 36.29-.76.06M191.18 56.18l-.74-.01M159.24 77.24q-.18-.02-.56-.31M147.21 112.75q-.34-.38-.72-.3M135.55 128.01q-.33.15-.7-.23M123.32 163.68q-.4-.5-.69-.22M123.39 183.61q.05.53-.65.58M135.21 199.13q-.34-.05-.72.14M135.52 218.94l-.58.77M159.53 269.76q-.48.07-.79.41M191.17 311.37q-1.44-.1-.84-.38M179.74 326.04q-.36-.27-1.19-.1M179.74 346.88q-.46.4-1.12.21M191.06 361.37q-.77.32-.65.65" vector-effect="non-scaling-stroke"/></g><path fill="#0102fc" fill-opacity=".996" d="M179.27 0v19.7a1.89 1.81-64.5 0 0 .37 1.12l11.62 15.47-.76.06-11.66-14.94a2.55 2.53 26.7 0 1-.53-1.58L178.49 0z"/><path fill="#027c09" fill-opacity=".996" d="m191.26 36.29-.08 19.89-.74-.01.06-19.82z"/><path fill="#0102fc" fill-opacity=".996" d="M191.18 56.18q.04.13.07.26.04.16-.06.29l-11.88 15.02a2.73 2.7-77.4 0 1-1.48.95l-18.59 4.54q-.18-.02-.56-.31.51-.76 1.56-1.01 8.75-2.08 17.53-4.32a1.47 1.45-77.5 0 0 .79-.51l11.88-14.92z"/><path fill="#027c09" fill-opacity=".996" d="M158.68 76.93q.38.29.56.31l-11.21 14.88q-.3.4-.3.89.01 9.99-.03 18.92-.01.37-.49.82-.34-.38-.72-.3l.31-19.76q.01-.5.31-.89z"/><path fill="#0102fc" fill-opacity=".996" d="M146.49 112.45q.38-.08.72.3 0 .06.01.12 0 .12-.08.22-5.65 7.49-11.59 14.92-.33.15-.7-.23l-.04-.24q-.01-.03.01-.05z"/><path fill="#027c09" fill-opacity=".996" d="m135.55 128.01-.02 18.7a3.9 3.86 64.2 0 1-.82 2.39l-11.39 14.58q-.4-.5-.69-.22l11.46-15.25q.39-.51.4-1.16l.36-19.27q.37.38.7.23"/><path fill="#0102fc" fill-opacity=".996" d="m123.32 163.68.07 19.93q.05.53-.65.58-.23-.48-.25-1.07-.21-9.18-.24-18.37 0-.56.38-1.29.29-.28.69.22"/><path fill="#027c09" fill-opacity=".996" d="M135.21 199.13q-.34-.05-.72.14l-11.75-15.08q.7-.05.65-.58z"/><path fill="#0102fc" fill-opacity=".996" d="m135.21 199.13.31 19.81-.58.77c-.22-.48-.46-.73-.45-1.28q.03-9.61 0-19.16.38-.19.72-.14"/><path fill="#027c09" fill-opacity=".996" d="m135.52 218.94 11.75 15.08a2 1.98 26.3 0 1 .42 1.22v18.44q0 .8.49 1.44l11.35 14.64q-.48.07-.79.41l-11.37-14.59q-.7-.9-.7-2.03l.01-18.24q0-.54-.33-.96l-11.41-14.64z"/><path fill="#0102fc" fill-opacity=".996" d="m159.53 269.76 18.49 4.71a3.18 3.16 78.1 0 1 1.69 1.11l11.14 14.31a3 3 0 0 1 .64 1.91l-.32 19.57q-1.44-.1-.84-.38l.14-19.41a1.54 1.5 26.9 0 0-.33-.97l-11.34-14.56q-.31-.4-.8-.54l-19.26-5.34q.31-.34.79-.41"/><path fill="#027c09" fill-opacity=".996" d="M190.33 310.99q-.6.28.84.38l-11.43 14.67q-.36-.27-1.19-.1z"/><path fill="#0102fc" fill-opacity=".996" d="M179.74 326.04q-.41.45-.41 1.21-.05 9.24-.06 18.49 0 .67.47 1.14-.46.4-1.12.21-.79-10.38-.07-21.15.83-.17 1.19.1"/><path fill="#027c09" fill-opacity=".996" d="m179.74 346.88 11.32 14.49q-.77.32-.65.65l-11.79-14.93q.66.19 1.12-.21"/><path fill="#0102fc" fill-opacity=".996" d="M191.06 361.37q.42.31.42.62.1 5.75-.08 20.01h-.8l-.19-19.98q-.12-.33.65-.65"/></svg>