<svg xmlns="http://www.w3.org/2000/svg" viewBox="0 0 382 382"><path fill="#027d04" fill-opacity=".996" d="M166.7 0q2.51 2.68 2.5 5.27-.01 5.15 0 10.83.01 2.85 1.05 4.97 1.93 3.96 3.82 8.41.79 1.85 2.3 3.15 3.92 3.34 7.57 6.54 1.76 1.55 2.6 3.52 1.8 4.24 3.84 8.39 1.18 2.41 1.15 4.75-.07 4.89.01 9.99.04 2.17-.89 4.16-2.17 4.64-4.35 9.52-.75 1.67-.69 3.42.16 4.8 0 9.78-.06 1.87.72 3.59 2.16 4.72 4.33 9.43.9 1.95.88 4.02-.06 4.99-.01 10.12.02 2.42-1.18 4.81-1.98 3.98-3.73 8.19-.82 1.97-2.26 3.26-3.94 3.52-8.14 7.08-1.38 1.17-2.12 2.94-1.9 4.51-4.05 8.94-.93 1.93-.89 4.17.08 4.73.11 9.57.01 2.3-.92 4.32-2.1 4.56-4.23 9.17-.77 1.67-.76 3.62.02 5.12.08 10.01.02 2.08-.79 3.86-2.14 4.68-4.36 9.48-.84 1.81-.78 3.91.14 4.48.02 9.43-.06 2.21.91 4.28 2.05 4.38 4.06 8.72.9 1.94.9 3.9.02 5.25-.04 10.38-.02 1.86.71 3.45 2.15 4.71 4.29 9.35.91 1.98.9 4.28-.04 4.78-.1 9.48-.03 2.33 1.01 4.51c1.35 2.85 2.82 5.77 3.92 8.68q.57 1.51 1.67 2.49 4.01 3.57 8.22 7.16 1.66 1.41 2.51 3.4 1.87 4.36 4 8.77 1.13 2.35 1.06 4.78-.12 4.72-.01 9.6.06 2.3-.98 4.5-2.09 4.41-4.11 8.88-.88 1.95-.83 4.06.11 4.97.03 9.73-.04 1.92.88 3.88 2.12 4.51 4.03 8.69.94 2.08.96 5.21.02 5.63-.14 11.2h-.72q-.19-5.83-.22-11.72-.02-2.65-.92-4.57-1.89-4.02-3.94-8.46-1.05-2.27-.98-4.74.14-4.48.02-9.24-.06-2.29.93-4.49 2.01-4.45 4.1-8.86.93-1.97.88-4.1-.12-4.84 0-9.55.06-2.27-.97-4.4-2.03-4.2-3.9-8.62-.71-1.69-1.95-2.79-3.89-3.46-8.01-7-1.72-1.48-2.61-3.59-1.75-4.16-3.82-8.4-1.13-2.31-1.11-4.88.02-4.88.09-9.43.03-2.14-.77-3.92-2.1-4.65-4.23-9.19-.89-1.88-.88-3.96.01-5.08.06-10.18.02-1.96-.74-3.6-2.26-4.86-4.38-9.54-.82-1.81-.79-3.87.1-5.74.05-10.88a5.94 5.9-33.3 0 1 .52-2.47q2.13-4.75 4.39-9.56 1.01-2.16.96-4.52-.11-5.52-.02-10.69.01-.99.4-1.89 2.11-4.88 4.51-9.93.96-2.04.92-4.35-.12-5.35-.04-10.68.02-1.14.48-2.17 2.27-5.01 4.65-10.31.79-1.75 2.3-3.05 3.69-3.19 7.55-6.54 1.68-1.46 2.54-3.47 1.84-4.29 3.84-8.44 1.02-2.11.97-4.42-.1-5.02-.03-10.08.02-1.7-.78-3.39-2.18-4.6-4.3-9.3-.87-1.92-.82-4.04.11-4.97.02-9.91-.03-2.22 1.02-4.46 2-4.22 3.98-8.44.96-2.05.9-4.41-.12-4.79 0-9.38.06-2.3-.91-4.26-2.06-4.18-3.87-8.54-.84-2-2.47-3.41-3.84-3.29-7.67-6.65-1.58-1.38-2.4-3.28-1.96-4.51-4-8.79-1.04-2.19-1.03-4.52l.04-10.32q0-1.52-.76-3.16-.73-1.58-1.3-3.19z"/></svg>