<svg xmlns="http://www.w3.org/2000/svg" viewBox="0 0 382 382"><path fill="#fd0101" fill-opacity=".996" d="M23 0q.11.07.15.2.03.13-.08.21L2.38 15.31q-.5.36-.66.95-.83 2.96-1.03 6.05-.01.2-.21.2-.16-.01-.16-.16.01-.79-.32-1.48v-2.02q.93-2.24 0-3.04v-1.97q.52-.22 1.07.59.33.47.78.13l11.47-8.48q.56-.42-.13-.49L0 4.19v-.9l14.1 1.4a1.26 1.23-59.3 0 0 .86-.23L21.23 0zM27.02 0l5.53 6.05q.37.39.9.45l15.57 1.61q.49.05.88-.24l6.66-4.88q.43-.32.58-.83.29-1.01.22-2.16h1l.57.68q.38.46.78.03l.65-.71h2.16l-3.31 2.86q-.41.36-.41.9l-.02 5.2q0 .51.34.88l10.44 11.58q.37.42.93.47l15.13 1.55q.55.06.55-.5l-.02-3.2q-.01-.66-.66-.7l-3.88-.22a.53.53 0 0 1-.5-.52v-.37q0-.66.66-.56l3.66.55q.7.11.71-.6l.07-15.09q0-.52-.51-.65C82.22.75 78.58.97 75 .64q-.59-.05-.04-.26c.85-.33 1.97-.02 2.69-.38h3.8q.77.37 1.46 0h1.46L96.3.89A2.15 2.08-54.4 0 0 97.34.7q1.36-.65 2.74-.44.89.14.12.6-.82.5-.81 1.37.01.5.34.86l17.4 19.25q.43.48.87 0l2.69-2.96a.44.43-49 0 1 .59-.05l.22.17q.22.17.03.38l-2.98 3.43q-.28.31 0 .63l2.47 2.76q.32.35.63 0l10.47-11.58q.37-.4.35-.95L132.14 0h1.46l.15 5.52a1.6 1.57-66.9 0 0 .41 1.04l9.36 10.4q.43.48.44-.17L144.08 0h.58q.41 3.98.54 8.05c.09 2.82 1.25 3.82 3.06 5.53q.49.46.94-.04l5.86-6.51a3.29 3.26-70.8 0 1 2.21-1.08c2.55-.19 5.87-.12 7.73-1.94q1.71-1.67 1.24-4.01h1.95l.52 3.09a1.24 1.23 13.6 0 0 .49.8q1.61 1.2 3.21.17.51-.33.5-.93l-.01-2.4q-.01-.77.67-.39.7.4.51 1.19-.18.77.45.28L176.85 0h.81l-4.63 5.95q-.35.44.1.78l5.23 3.94q.53.39.48-.26-.26-3.27.79-4.98 1.18-1.91 5.51-5.43h1.51l3.4 2.46q.41.3.45-.21.15-1.58 1.37-2.25h1.02q-1.31 1.31-1.39 2.51-.09 1.23 1.15 2.02 1.86 1.19 3.43 2.52.41.35.95.3l16.16-1.63q.45-.05.47-.5l.17-5.22h.85l.02 9.74q0 .71.71.64l3.32-.34a.72.71 86.9 0 0 .63-.71l-.01-4.12a.39.39 0 0 1 .4-.39l.3.01q.29.01.29.3v4.11q0 .66.65.59l17.47-1.79q.47-.05.78-.4L246.21 0h1.28l-7.05 7.8a.05.05 0 0 0 .04.08q3.85-.36 7.71-.82a.82.78-70.6 0 0 .51-.26l6.13-6.8h1.2l-6.59 7.42q-.19.21-.14.49.75 4.18 1.08 5.09a.1.09 58.1 0 0 .16.04l6.04-6.6q.2-.22.38.01l.23.31q.19.24-.01.47l-5.96 6.6q-.58.64-.41 1.49l1.66 8.22q.12.58.6.93L266 33.94a1.13 1.1-29.5 0 0 .79.21l2.9-.33a1.5 1.5 0 0 0 1.33-1.49l.03-6.22q0-1.12.75-1.94l4.87-5.37q.34-.38.34-.88l.03-8.52q0-.32.32-.32h.28q.31 0 .31.31l.1 7.09q.01.87.58.21l3.9-4.45q.2-.22.42-.03l.21.19a.46.45 42.3 0 1 .04.64l-4.8 5.35q-.39.43-.39 1.02v5.77a3.77 3.73-24.4 0 1-.95 2.49l-4.42 4.97q-.89 1 .45.87l9.94-1.02a.38.37 86.5 0 1 .41.37l.01.27q.01.3-.3.33l-10 1.03q-1.05.11-1.1 1.17-.19 4.51.1 6.47.24 1.62 1.88 1.48l3.17-.28q.57-.05.95-.47l9.16-10.16a2.5 2.48 18.3 0 1 1.62-.81l15.54-1.59a1.29 1.28 87.3 0 0 1.15-1.27l.01-16.24a2.11 2.1-66.1 0 0-.54-1.41L294.85 0h1.78l9.03 9.87q.33.36.32-.13L305.91 0h.92v9.16q0 1.35.9.35L316.3 0h1.94l-9.39 10.55q-.34.39.17.34l12.8-1.27a3.62 3.62 0 0 0 2.35-1.2L331.73 0h1.74l-9.26 10.37a1.19 1.17-71.9 0 1-.74.38l-15.55 1.54a1.07 1.06 87 0 0-.95 1.06l.01 13.36q0 1.01.68.26l9.37-10.4a2.68 2.66 17.9 0 1 1.69-.86l16.03-1.63a.38.37-10 0 1 .4.27l.06.25a.37.37 0 0 1-.32.46l-16.17 1.65a1.31 1.29-72 0 0-.85.44l-5.11 5.71q-.33.37-.32.85l.04 8.88a1.87 1.87 0 0 0 .77 1.51l6.76 4.99q.45.33 1.01.28l15.71-1.61a1.57 1.55-71.3 0 0 .98-.49l10.79-11.96q.28-.31.59-.03l.26.23q.17.15.02.31l-10.8 12.01a2.86 2.86 0 0 1-1.84.93l-15.69 1.6q-.91.09-1.64-.46l-6.47-4.84a.3.3 0 0 0-.48.24l.01 5.18q0 .59-.4 1.02l-4.13 4.5q-.42.46.08.82l12.36 9.09q.46.34 1.03.26l15.73-2.01q.53-.06.89-.46l10.4-11.55a.51.5-47.8 0 1 .71-.04l.2.18q.2.18.02.37l-9.8 10.83q-.73.8.34.66l6.01-.75a1.35 1.35 0 0 1 .95.23l3.85 2.64q.47.32.47-.25l-.01-7.57q0-.58.37-1.02l3.19-3.77a1.04 1.04 0 0 0-.1-1.45c-1.55-1.4-2.83-2.93-2.79-5.15q.13-7.38.08-14.34a3.06 3.01-24.6 0 1 .78-2.05l10.78-11.93a.34.34 0 0 1 .51.01l.21.26a.34.34 0 0 1-.01.45l-10.7 11.84q-.56.63-.56 1.47 0 7.52.16 14.93.05 2.09 2.58 4.17.47.39.88-.07l5.96-6.69a2.44 2.43-72.9 0 1 1.49-.79l9.79-1.23q.55-.07.55-.62l.34-26.22q.01-.81-.65-1.29L368.55.98a1.92 1.9 60 0 0-1.31-.36q-6.61.71-8.95.61-1.71-.07-1.58-1.23h.68q1.65.65 3.29 0h3.78q1.49.37 2.99 0h1.45q1.51.92 1.98 0h1.03l3.02 3.31q.37.41.73 0L378.63 0h1.7l-2.83 3.38q-.32.39.18.42 2.06.16 4.32-.46v1.45l-5.01.4q-.87.07-.16.57 2.48 1.74 5.09 3.8.07.06.02.14l-.17.27q-.28.46-.71.14l-4.57-3.36a.35.35 0 0 0-.55.28V19.5q0 .9.6.24l5.46-5.88v1.76l-5.57 6.18q-.46.51-.46 1.2l.01 9.32q0 .63.64.66 2.92.17 5.38-1.45v1.11l-4.42 4.95q-1.74 1.96.68 1.08 1.27-.46 3.74-.32v.68q-1.84.68-3.44.58-1.95-.13-.35 1l3.79 2.7v1.83l-6.29-4.48a.55.54 38.3 0 0-.72.08l-8.92 9.9q-.48.53.23.5 8.27-.28 15.7-2.39v1.85q-2.92 1.78-4.85 4.72-.29.43.23.37l4.62-.53v.88l-5.27.7q-.84.11-1.39.74l-4.16 4.75q-.55.63.27.54L382 61.64v.88l-11.76 1.25a.83.82-9.1 0 0-.72.99l1.8 8.78q.12.54.67.48L382 72.98v1.54l-9.61 1q-.55.06-.49.61c.23 2.32.36 3.73 2.35 5.15q3.94 2.8 7.75 5.71v1.15q-4.23-3.09-8.38-6.11c-2.38-1.73-2.4-3.44-2.76-6.01a.23.23 0 0 0-.24-.2l-4.3.27q-.29.01-.23.29l1.31 5.9a1.16 1.14 12.7 0 0 .44.68l3.84 2.94a.32.31-56.3 0 1 .08.42l-.16.28q-.18.3-.46.09l-2.87-2.1q-.54-.39-.39.26l1.01 4.36a.75.74-78.9 0 0 .31.47l8.48 6.2q.38.28.86.24l3.46-.25v.85c-1.97.6-3.92.88-5.62-.53q-3.2-2.66-6.75-4.9-.06-.04-.09.02h-.01q-.1.14.04.25 3.02 2.29 6.14 4.48c2.63 1.85 1.89 4.56 2.94 7.12a1.8 1.79 9 0 0 .52.71l2.83 2.34v1.17q-.3 1.14-1.72 1.01-.72-.06-.57.64l1.08 4.95q.15.66-.51.8l-.3.07a.46.45 78.6 0 1-.53-.36l-.85-4.71a1.66 1.66 0 0 0-2.86-.82l-10.68 11.83q-.47.51-.33 1.2l.84 4.27q.14.69.61.17l5.52-6.12q.23-.26.54-.11l.33.16q.3.15.07.4l-6.19 6.86a1.43 1.42-30 0 0-.34 1.25l1.78 8.53a.63.62 80.7 0 0 .67.49l6.66-.66q.56-.06.42.48l-.08.32q-.04.13-.18.15l-5.2.55q-.88.1-.16.61l4.85 3.5q.52.37 1.16.35l5.97-.25v1.71q-1.89-.81-3.93-.12-.5.17-.08.49l4.01 3.13q-.01.32 0 .65l-6.11-3.8q-.44-.27-.96-.22l-10.36 1.11q-.65.06-.97.62l-7.76 13.22q-.34.58-.21 1.23l1.39 6.78a1.78 1.77-77.9 0 0 .68 1.06l12.7 9.31a1.29 1.28-29.3 0 0 .9.25l10.7-1.04v1.43l-8.76.86q-.96.1-.19.67l8.95 6.59v1.58l-6.81 7.43a1.17 1.15-30.1 0 0-.29 1.04l3.15 15.33q.09.44.45.71l3.5 2.67v1.05l-3.75-2.63a.39.38 32.6 0 0-.56.12l-1.85 3.12q-.24.4.13.68 1.92 1.44 3.76 2.79.4.29-.16.84a.61.6 40 0 1-.76.06l-3.63-2.56q-.15-.11-.29.01l-.21.17q-.5.4.01.78l7.31 5.41v.51q-.26.64-.46.49-3.73-2.84-7.26-5.39-.46-.33-.74.16l-1.73 2.97a.42.41 27.4 0 0 .19.59l8.24 3.76q.47.22.78-.2.47-.63.98-.75v1.28q-.43.61 0 1.08v4.01l-.26 1q-.2.73-.39 0c-.43-1.63-.1-3.22-.86-4.78q-.24-.49-.74-.72l-8.1-3.76q-.54-.25-.85.25l-1.45 2.33q-.77 1.25.41 2.12l6.88 5.08q.56.41.7 1.09l2.99 15.01q.14.69.33.02.37-1.27 1.34-.92v1.18l-5.27 9q-.6 1.03-1.74 1.39l-14.24 4.45q-.58.18-.89.71l-2.58 4.35q-.5.85.43.59.23-.06.45 0 .58.18 1.05.52 3 2.15 5.89 4.37.58.44.95-.18l4.83-8.22a1.43 1.42 5.7 0 1 .78-.63L382 264.9v.89l-9.05 2.92a2.81 2.79 6 0 0-1.57 1.26l-4.57 7.82a.61.59 34.2 0 0 .16.79l5.15 3.79q.21.15.08.38l-.15.25q-.24.42-.63.13l-4.9-3.7q-.46-.36-.76.14l-2.16 3.65q-.27.46-.17.98l3.27 15.92q.05.27-.2.39l-.29.14a.33.32 71 0 1-.46-.23l-3.34-16.26q-.11-.54.15-1.02l2.32-4.14a.68.67-57.5 0 0-.19-.88l-6.53-4.75a1.24 1.23-55.3 0 0-1.75.32c-.6.89-1.45 1.68-2.49 2.01q-7.57 2.45-15.13 4.72a.28.27-20.9 0 1-.34-.15l-.13-.31q-.15-.35.22-.47 8.06-2.51 16.1-5.08.33-.11.36-.41.05-.48-.43-.43l-12.87 1.32q-.53.05-.9.45l-10.61 11.75q-.36.4-.25.91l3.13 15.24a1.98 1.93 12.9 0 0 .76 1.18l12.58 9.24a1.63 1.6 59.5 0 0 1.13.3l15.99-1.64a.34.34 0 0 1 .37.3l.05.3q.05.36-.32.4l-15.87 1.61a3.02 3.02 0 0 1-2.1-.57l-12.67-9.3a2.15 2.09 13.2 0 1-.82-1.28l-3.14-15.27q-.13-.64-.78-.57l-14.02 1.42q-.83.08-.15.57l11.63 8.52a2.47 2.45 12.5 0 1 .95 1.48l3.29 15.99q.09.48-.39.45l-.36-.02q-.17-.01-.2-.18l-3.32-16.03q-.11-.56-.57-.89l-12.56-9.22a1.27 1.25-29.2 0 0-.88-.24l-15.95 1.6a1.3 1.26 12.3 0 0-.99.62l-7.81 13.27a1.78 1.76-36.3 0 0-.2 1.25l3.15 15.28a1.66 1.6 13.5 0 0 .63.99l12.96 9.49a.52.52 0 0 1 .12.73l-.16.2q-.13.19-.32.05l-13.06-9.55a2.98 2.98 0 0 1-1.16-1.81l-3.18-15.39a2.19 2.17 54.4 0 1 .25-1.54l7.62-12.97q.61-1.04-.37-1.76l-5.8-4.27q-.89-.66-1.6.18l-2.27 2.63q-.37.43-.26.97l1.5 7.42a1.4 1.4 0 0 1-.16.96l-8.4 14.28q-.24.41-.6.09l-.24-.21a.27.26-54.6 0 1-.05-.33l8.12-13.84a2 2 0 0 0 .24-1.41l-1.2-5.94q-.14-.65-.6-.17l-1.36 1.4q-.45.47-1.09.53l-16.13 1.64a2.1 2.06-29.3 0 1-1.44-.39l-12.85-9.43a.36.35-50.5 0 0-.48.05l-5.81 6.54q-.4.44-.28 1.02l.51 2.61q.14.67.82.6 4.51-.46 8.99-.94 1.62-.18 3.69 1.32 6 4.33 11.91 8.76.14.11.08.27l-.11.27q-.19.52-.63.19l-13.09-9.61q-.46-.34-1.03-.28l-9.86 1.04a.37.37 0 0 0-.33.44l2.13 10.38q.05.26-.19.37l-.29.13q-.39.17-.47-.24l-2.15-10.35q-.12-.62-.75-.55l-3.5.39q-.65.07-1.09.56l-10.72 11.88a.95.95 0 0 0-.22.83l3.14 15.24a1.5 1.5 0 0 0 .58.9l12.81 9.39q.46.34 1.02.28l16-1.64a.33.33 0 0 1 .34.19l.12.26q.22.47-.29.52l-16.07 1.66a2.58 2.58 0 0 1-1.79-.49L229.27 327a2.45 2.44 12.3 0 1-.96-1.49l-3.14-15.25a.61.6-8.9 0 0-.66-.48l-32.71 3.55a.38.37-3.5 0 0-.33.37v32.31q0 .81.8.72l15.04-1.53q.68-.07 1.14-.58l10.53-11.65q.36-.4.36-.93l.03-16.47q0-.17.17-.17h.38q.41 0 .41.41l.02 16.4a1.97 1.93-24.6 0 1-.5 1.3l-10.65 11.78a2.75 2.72 17.7 0 1-1.75.89l-15.25 1.56a.83.82-3.4 0 0-.74.83l.12 33.43h-1.14l.06-33.7q.01-.76-.5-1.32l-10.11-11.17a3.89 3.85-66.2 0 1-.99-2.59l-.01-15.26q0-.99.67-1.71l6.62-7.28a.45.45 0 0 0 0-.6l-18.05-20.3q-.5-.56-1.24-.64l-15.61-1.59a2.56 2.55-17.9 0 1-1.65-.84l-10.62-11.8a2.24 2.21-66.1 0 1-.56-1.48l-.01-16.27q0-.36.36-.31l.41.06q.23.03.23.25l-.01 16.26a1.24 1.22-66.6 0 0 .32.83l10.64 11.79a1.71 1.65 71.3 0 0 1.05.54l15.13 1.53q.73.07.73-.66v-32.52a1.69 1.67 24.3 0 0-.43-1.12l-10.48-11.59a2.8 2.77-66.2 0 1-.71-1.86q0-6.78-.02-15.15c0-2.09 1.63-3.44 3.04-4.73q1.36-1.23-.46-1.44-2.57-.29-5.15-.35c-1.95-.04-2.85-.32-4.2-1.83q-4.96-5.58-9.98-11.09-.83-.9-.78-2.53.13-4.57.06-8.9 0-.54-.53-.6l-26.7-2.98a1.55 1.5-59.1 0 0-1.08.29l-12.91 9.45a2.13 2.12-60.2 0 1-1.5.41l-15.79-1.6a2.64 2.61 71.5 0 1-1.68-.85l-10.78-11.94q-.32-.36.04-.68l.23-.2q.14-.13.27.01l11.07 12.21q.37.4.92.46l15.72 1.6a1.42 1.41 29.7 0 0 .96-.26l12.66-9.3a.32.32 0 0 0 .05-.47l-22.07-24.42q-.41-.45-1.02-.52l-15.73-1.61a2.33 2.31-17.9 0 1-1.5-.76l-10.67-11.81a2.35 2.34-66.3 0 1-.61-1.58l.02-16.31q0-.4.39-.33l.32.06q.28.06.28.34v16.23a1.47 1.45 24.3 0 0 .38.98l10.62 11.73q.38.42.94.48l15.19 1.54q.7.07.7-.63v-3.35q0-.6-.59-.66l-4.26-.43q-.46-.05-.33-.49l.09-.32q.05-.16.21-.15l4.26.38q.64.05.64-.59v-27.01q0-.58-.39-1.01l-10.34-11.42a3.45 3.44-66 0 1-.88-2.3l-.01-15.35q0-1.05.7-1.83l10.78-11.91a.42.42 0 0 1 .69.11l.13.29q.03.08-.02.14-5.2 5.91-10.71 11.87a2.09 2.08-23.9 0 0-.55 1.41l.01 15.53a1.85 1.81-66.5 0 0 .47 1.23l10.67 11.76a.59.57 64.5 0 0 .48.18l5.07-.55a.14.13-23.2 0 0 .09-.22l-5.8-6.47q-.2-.22-.01-.46l.17-.22q.26-.33.54-.02l6.15 6.79q.41.46 1.03.4l8.39-.86q.82-.08 1.37-.69l10.5-11.62a1.13 1.11 65.8 0 0 .29-.78l-.01-15.45a.65.64 3 0 0-.58-.64l-9.76-.98a2.54 2.53-18.2 0 1-1.61-.81q-5.31-5.86-10.38-11.46-1.03-1.12-.96-3.06.27-8.08.19-15.26a.41.4-89.4 0 1 .42-.42l.34.01q.18 0 .18.18l-.08 15.83a3.33 3.32-66 0 0 .86 2.26l10.19 11.28a1.48 1.44-17.3 0 0 .93.47l13.76 1.38q.84.08.27-.54l-3.02-3.35a2.94 2.91-66.1 0 1-.74-1.95V74.46q0-.3.29-.32l.33-.03q.37-.02.37.35V90.8q0 .3.19.53 2.59 3 4.47 4.89a.04.04 0 0 0 .07-.03q-.19-16.66-.07-32.99a1.45 1.41 25.4 0 0-.36-.97l-9.87-10.94a.79.78 50.7 0 0-1.05-.11q-6.21 4.62-12.67 9.26-.91.66-1.91.49-5.18-.87-11.45-1.27-2.19-.13-4.81-.81-.49-.12-.83-.5L67.01 46.22a.53.52 45.4 0 1 0-.71l.24-.27a.39.38-45 0 1 .57-.01l11.07 12.21q.38.41.93.47l15.28 1.51a2.45 2.41-59.7 0 0 1.66-.45l11.52-8.45a.97.97 0 0 0 .14-1.44L86.95 25.32q-.34-.38-.86-.43l-16.04-1.68a1.8 1.77-17.5 0 1-1.16-.59q-4.77-5.26-9.82-10.85c-2.27-2.52-1.93-4.03-1.68-6.94q.07-.84-.61-.34l-6.36 4.62q-.49.36-1.11.3L32.8 7.76q-.45-.05-.76-.39L25.41 0zm153.79 13.29q-.17-.01-.35.04-.56.14-.56.72l-.02 9.02q0 .58.39 1.02l2.2 2.48q.44.49.88 0l6.75-7.46a1.65 1.65 0 0 0 .42-1.1V4.92q0-.77-.61-1.22L186.12.9a.75.75 0 0 0-1.01.1l-4.85 5.33a1.46 1.43 66.5 0 0-.37.97l.01 3.89q0 .56.43.9l.75.59q.88.69-.27.61M372.119 2.132a.93.2 36.4 0 0-.63-.713.93.2 36.4 0 0-.868-.39.93.2 36.4 0 0 .63.712.93.2 36.4 0 0 .868.39M93.18 14.69c-2.07-2.71-1.41-8.4-1.07-11.8q.06-.68-.61-.74l-3.38-.3q-.47-.04-.47.43l-.02 15a.64.63-77.8 0 0 .37.58q3.74 1.67 5.39-2.09.12-.27.05-.56-.08-.28-.26-.52m1.28-.14a.36.36 0 0 0 .55-.06c1.05-1.52 2.66-2.37 2.92-4.37q.4-3.07-.04-6.55a1.01 1.01 0 0 0-.92-.88l-3.18-.29q-.63-.06-.64.57c-.05 2.98-.83 9.61 1.31 11.58m72.557-10.539a.71.62-31.3 0 0-.93-.16.71.62-31.3 0 0-.284.898.71.62-31.3 0 0 .93.16.71.62-31.3 0 0 .284-.898M95.73 15.63a.35.35 0 0 0 .02.46l8.42 8.73a3.05 3.03-18.9 0 0 1.91.93l7.42.73a1.39 1.38 5.6 0 0 1.51-1.23c.23-2.17.34-3.5-1.3-5.26q-6.68-7.17-13.37-14.84-1.45-1.66-1.24.54.29 3.06-.34 5.89-.11.53-.46.95zm106.73.75-5.13 5.77q-.38.42.08.76l2.75 2q.51.38.94-.1l12.16-13.48a1.7 1.68 66.2 0 0 .43-1.13l.02-2.98q.01-.63-.62-.56-7.89.89-15.59 1.63c-1.84.18-4.05-1.98-5.37-3.06q-.66-.55-.66.31l.01 12.77a.61.6-72.3 0 0 .25.49l4.1 2.93a.16.15-72.7 0 0 .24-.13l.08-8.63a.37.36-.8 0 1 .36-.36l.28-.01q.31-.01.31.29l.02 7.07q.01.87.59.22l3.96-4.43q.14-.15.31-.04l.42.27q.26.17.06.4M169.03 5.62a.38.37 7.3 0 0-.43.33l-.21 2q-.08.76.46.21l1.29-1.31a.56.56 0 0 0-.1-.87q-.46-.29-1.01-.36m-4.95.9-7.04 7.56q-.36.38-.36.91v1.53q0 .53.53.53 2.11.02 4.1-.55.48-.13.81-.51 1.66-1.91 3.54-3.77c1.77-1.74 1.45-3.56 1.42-5.73a.52.52 0 0 0-.55-.51l-1.53.1a1.4 1.38 18.9 0 0-.92.44m-8.41 8.73a2.79 2.75 66.5 0 1 .72-1.87l5.82-6.41q.55-.61-.27-.53l-4.61.46a2.32 2.3-71.8 0 0-1.49.76l-5.93 6.59q-.4.44-.1.95 1.8 3.19 5.34 2.01.51-.18.51-.71zm16.68-7.85q-.56-.41-.98.14c-1.38 1.82-2.67 2.24-2.67 4.97q0 7.23.05 14.5.01.62.51.99l6.75 4.97q.96.71 1.76-.18l3.6-4q.9-.99.01-1.99l-2.11-2.36q-.39-.44-.39-1.01l.01-10.62q.01-.58-.46-.92zm-38.89 7.61a.34.34 0 0 1-.09.23l-11.13 12.31a.34.34 0 0 0 0 .46l14.49 16.05a.34.34 0 0 0 .5 0l6.7-7.34a.34.34 0 0 0 .09-.23l.04-17.3a.34.34 0 0 0-.09-.23l-10.02-11.2a.34.34 0 0 0-.6.23zm114.32-6.93-6.94.73a3.64 3.63-3 0 0-3.26 3.61l-.02 6.81q0 .59.59.54c1.76-.15 3.62-.47 5.41-.5 2.18-.05 4.23-3.09 5.5-4.64a1.46 1.44-31.2 0 0 .31-1.22l-.99-4.89q-.1-.49-.6-.44m-14.41 6.19a.24.24 0 0 1 .36.01l.32.38a.24.24 0 0 1 0 .32l-4.84 5.33a.24.24 0 0 0 .21.4l6.92-.82a.24.24 0 0 0 .21-.23l.03-8.66a.24.24 0 0 1 .05-.14l1.06-1.37a.24.24 0 0 0-.22-.38l-16.89 1.77a.24.24 0 0 0-.21.23l-.04 3.57a.24.24 0 0 0 .1.19l7.21 5.35a.24.24 0 0 0 .32-.03zm-14.03-1.29q.14-.69-.02-1.45-.11-.5-.61-.47l-2.49.16q-.76.05-.15.51l2.78 2.06q.5.37.56-.24.03-.3-.07-.57m-9.15 9.99a.28.28 0 0 1 .45.05l.36.6a.28.28 0 0 1-.04.33l-3.56 4.01a.28.28 0 0 0 .24.46l6.42-.83a.28.28 0 0 0 .17-.09l5.06-5.5a.28.28 0 0 0 .07-.19l-.07-6.24a.28.28 0 0 0-.11-.22l-4.65-3.52a.28.28 0 0 0-.37.03l-12.49 13.8a.28.28 0 0 0 .04.41l3.16 2.28a.28.28 0 0 0 .37-.04zm-64.42-10.4a.35.35 0 0 0-.63.2l-.12 4.57a.35.35 0 0 0 .61.24l1.93-2.23a.35.35 0 0 0 .01-.45zm16.49 4.79a.38.38 0 0 1-.24.13l-5.01.6a.38.38 0 0 0-.33.39l.39 13.4a.38.38 0 0 0 .09.24l2.6 2.92a.38.38 0 0 0 .56 0l6.56-7.29a.38.38 0 0 0 .1-.26l.01-14.52a.38.38 0 0 0-.67-.25zm89.58 7.45a.34.34 0 0 1-.13-.21l-1.77-8.6a.34.34 0 0 0-.59-.16l-3.6 3.98a.34.34 0 0 1-.22.1l-7.65.89a.34.34 0 0 0-.3.33v6.72a.34.34 0 0 0 .09.23l11.12 12.31a.34.34 0 0 0 .29.11l16.32-1.68a.34.34 0 0 0 .21-.1l3.17-3.21a.34.34 0 0 0-.28-.58l-2.44.23a.34.34 0 0 1-.23-.07zm-101.88-7.3-1.26-1.42q-.29-.33-.56 0l-1.24 1.48q-.36.43.2.43l2.65-.03q.61-.01.21-.46m70.4 4.59a.3.3 0 0 1-.08.21l-4.2 4.68a.31.31 0 0 0 .27.51l5.5-.67a.3.3 0 0 0 .19-.09l4.88-5.36a.31.31 0 0 0-.05-.45l-6.09-4.52a.31.31 0 0 0-.49.26zM96.25 17.93q-.4-.51-.91-.79-1.21-.67-1.85.77a.62.62 0 0 0 .51.87l1.73.13q1.38.11.52-.98m56.97.47q-.42.03-.15.36l2.09 2.51q.6.71.57-.22l-.09-2.27q-.02-.59-.61-.54zm-2.56 12.34.03 8.91q.01.52.28.95.69 1.06 1.2 1.29a2.35 2.33 11.7 0 0 3.3-2.15l-.19-15.87q-.01-.57-.38-.99l-3.25-3.68q-.4-.46-1.01-.41l-4.6.39q-.66.05-.69.72-.43 8.41-.13 16.56.01.24.2.38l4.19 2.92a.04.04 0 0 0 .07-.03l.01-8.96a.34.33-5.1 0 1 .28-.33l.28-.05a.35.35 0 0 1 .41.35M87.63 21.1q.06 1.07.95.48 1.28-.84.73-1.91a.92.92 0 0 0-1.73.48zm20.93 26.12q.53.6.53-.2l.02-13.05a3.76 3.73-66.4 0 0-.98-2.53q-3.87-4.22-8-8.84-3.24-3.64-8.21-2.58-.52.11-.87.52l-2.81 3.26a.76.76 0 0 0 .01 1.01zm81.48-16.88c-.14-2.32 3.28-5.4 4.93-7.1a.61.61 0 0 0-.08-.91l-3.2-2.34q-.62-.46-1.14.12l-6.45 7.16q-.46.52.01 1.04l5.49 6.07q.56.62.56-.22-.01-1.92-.12-3.82m82.03-4.93a.3.3 0 0 0-.08.21l.05 5.43a.3.3 0 0 0 .53.2l4.38-4.96a.3.3 0 0 0 .08-.21l-.06-5.43a.3.3 0 0 0-.53-.2zm-38.01 42.05-10.9 12.1q-.52.57-1.26.76l-.95.25q-.57.15-.58.73l-.09 9.29q-.01.54.53.49c2.67-.23 6.14-.18 8.01-2.45q2.22-2.71 4.51-5.01.18-.19.35 0l.26.28q.21.23 0 .46l-4.69 5.2q-.51.56.25.56 2.61-.01 5.07-.61a2.6 2.59-6.9 0 0 1.99-2.53v-6.35q0-.68.46-1.18l10.6-11.71q.42-.46.42-1.08l.17-24.87a1.44 1.43 24.1 0 0-.37-.96l-10.55-11.64q-.75-.83-.74-1.95l.03-5.74q0-.58-.58-.52l-7.49.73q-.61.06-1.03.52L223.21 27a2.84 2.82-71.5 0 1-1.8.91l-5.85.62a2.44 2.38 16.9 0 0-1.58.82q-2.24 2.56-4.69 5.15c-1.61 1.7-5.44 1.23-7.62 1.71-3.2.71-6.36 1.04-9.57 1.56q-.59.1-.57.69.12 3.03.01 6.22c-.07 1.91 1.24 3.08 2.42 4.35q.45.48.89-.01l6.98-7.7a2.17 2.15 17.7 0 1 1.37-.7l16.35-1.66q.35-.04.34.32l-.01.34a.33.32 88.1 0 1-.29.32l-16.18 1.67q-.57.06-.94.48l-6.93 7.71q-.42.46 0 .92l5.93 6.57q.35.38.86.31 8.47-1.11 17.16-1.78.57-.05.95-.47l9.76-10.82q.38-.43.38-.99l-.01-16.08q0-.32.31-.36l.27-.04a.4.39-3.8 0 1 .45.39l-.01 16a2.74 2.72 66.3 0 1-.71 1.84l-10.43 11.55a2.81 2.79-71.7 0 1-1.78.9l-15.21 1.52q-.71.08-.71.79l-.03 13.99q0 .92.61.24l9.49-10.5a3.07 3.04-71.8 0 1 1.96-1l15.92-1.63q.29-.03.32.27l.04.32q.04.38-.34.42l-16 1.62q-.6.06-1 .5l-10.41 11.51q-.34.38-.42.88-.46 2.75 1.58 3.83 1.07.56 3.42.32 5.3-.55 10.88-1.17.57-.07.57-.64l.01-5.64q0-.32.32-.31h.28q.39 0 .39.39v4.51q-.01 3.2 2.14.83l10.74-11.88a.42.41 39.5 0 1 .55-.05l.24.18a.28.28 0 0 1 .05.42M116.8 24q.1 1-.22 2.26-.14.52.4.58l2.25.23q.68.07.29-.5Q118.45 25 116.8 24q.16-.51 0-.65a.22.22 0 0 0-.36.15q-.01.34.36.5m74.34 4.99a.32.32 0 0 0-.08.21l-.02 5.37a.32.32 0 0 0 .56.21l4.37-4.89a.32.32 0 0 0 .08-.21l.01-5.33a.32.32 0 0 0-.56-.22zm6.27-4.75a.22.22 0 0 0-.35.19l.08 3.84q.02.92.64.23l1.68-1.9q.52-.59-.13-1.04zm113.33.74-3.38 3.86q-.55.64.14 1.12l3.54 2.49q.43.31.43-.22l.03-6.96q0-1.15-.76-.29M112.99 27.9a.32.32 0 0 0-.21-.53l-6.46-.63a.32.32 0 0 0-.27.54l3.6 3.83a.32.32 0 0 0 .47-.01zm79.75 7.68a.3.3 0 0 0 .26.5l5.95-.85a.3.3 0 0 0 .18-.1l5.06-5.63a.3.3 0 0 0-.05-.44l-3.15-2.22a.3.3 0 0 0-.4.05zm-77.54 3.69a.3.3 0 0 1-.08-.19l-.11-11.1a.3.3 0 0 0-.52-.2l-3.64 3.99a.3.3 0 0 0-.08.21l.14 17.12a.3.3 0 0 0 .27.3l13.86 1.49a.3.3 0 0 0 .26-.5zm20.75 6.17a.59.58 45.4 0 0 0-.77q-6.89-7.61-14.09-15.6c-1.15-1.27-3.11-1.04-4.68-1.25q-.78-.11-.78.68l-.01 8.95a3.06 3.03 24.3 0 0 .78 2.03l9.59 10.61a3.44 3.44 0 0 0 5.14-.03zm42.03-11.48a.38.38 0 0 0 .06.57l3.8 2.65a.38.38 0 0 0 .49-.05l4-4.32a.38.38 0 0 0 0-.51l-3.06-3.46a.38.38 0 0 0-.57 0zm23.26.77a.31.31 0 0 0 .27.51l6.58-.91a.3.3 0 0 0 .19-.1l4.47-4.99a.31.31 0 0 0-.27-.51l-6.6.93a.3.3 0 0 0-.19.1zm-33.99 1.77a.28.28 0 0 1 .14-.45l.76-.2a.28.28 0 0 1 .27.08l3.14 3.25a.28.28 0 0 0 .41 0l3.85-4.28a.28.28 0 0 0-.04-.41l-7.68-5.7a.28.28 0 0 0-.37.04l-6.59 7.3a.28.28 0 0 0 0 .38l6.44 7.05a.28.28 0 0 0 .42 0l2.59-2.87a.28.28 0 0 0 .01-.37zm144.18-2.26a.35.35 0 0 0-.14-.27l-3.73-2.84a.35.35 0 0 0-.56.28l-.03 8.35a.35.35 0 0 0 .39.34l3.79-.43a.35.35 0 0 0 .31-.35zm-28.47 13.04q-.1-.39.49-.41a.44.43 67.8 0 1 .35.15l2.29 2.49q.4.44.81.01 3.41-3.53 6.43-7.19c.71-.86 2.23-1.41 3.19-2.48q3.68-4.09 7.19-8 .48-.54-.23-.46l-14.65 1.5a.98.97-71.9 0 0-.62.32l-10.66 11.84a2.55 2.54 45.1 0 0 0 3.41l4.86 5.38q.33.37.66-.01l2.45-2.86q.37-.43-.06-.81-1.33-1.15-2.28-2.44-.16-.21-.22-.44m22.75-15.3a.34.34 0 0 0-.59-.23l-7.81 8.82a.34.34 0 0 0 .3.56l7.63-1.11a.34.34 0 0 0 .29-.33zM184.14 36.6a.34.34 0 0 0 .28.57l5.06-.53a.34.34 0 0 0 .22-.56l-2.19-2.5a.34.34 0 0 0-.51-.01zm-25.42-1.28q-.52-.71-1.17-1.33-.63-.59-.64.27l-.04 3.69q-.01.55.44.22.62-.47 1.16-1 .93-.92.25-1.85m217.29 1.74a.33.33 0 0 0 .58.22l2.62-2.85a.33.33 0 0 0-.31-.55l-2.62.59a.33.33 0 0 0-.26.32zm-12.36 13.6a.41.41 0 0 0 .6 0l9.99-11.04a.4.4 0 0 0 .1-.28l.03-4.25a.41.41 0 0 0-.45-.41l-9.72.98a.4.4 0 0 0-.27.14l-6.66 7.38a.41.41 0 0 0 0 .55zm-99.2-10.68q-8.2.72-14.85 1.5a.47.47 0 0 0-.41.47l-.03 14.52a.24.24 0 0 0 .42.16l9.56-10.61q.88-.98 2.2-1.12l9.68-.99q.63-.06.49-.68-.77-3.32-.49-6.9.18-2.38-1.33-.53c-1.33 1.64-2.94 3.97-5.24 4.18m-83.35-1.62-4.02-2.96q-.2-.15-.38.04l-3.31 3.68q-.99 1.1.02 2.19l1.24 1.33q1.39 1.49 2.77-.02l3.7-4.04q.11-.12-.02-.22m-22.64 7.93a.64.64 0 0 0 .44.12l7.77-.77a.64.64 0 0 0 .42-1.06l-6.29-7.1a.64.64 0 0 0-.97.01l-4.68 5.52a.64.64 0 0 0 .11.94zm-13.39 4.6a.34.34 0 0 0 .59.22l4.03-4.64a.34.34 0 0 0 .09-.23l-.15-4.96a.34.34 0 0 0-.13-.26l-3.91-2.97a.34.34 0 0 0-.55.27zm43.25-12.38a.31.31 0 0 0-.25-.52l-5.41.61a.3.3 0 0 0-.19.09l-3.58 3.76a.31.31 0 0 0 .27.53l5.35-.66a.3.3 0 0 0 .19-.09zm-8.35 10.78v16.49q0 .57.56.51l5.77-.62q.59-.06.99-.49l2.55-2.75a1.6 1.57-25.8 0 0 .43-1.2c-.27-4.62.52-9.12.08-13.66q-.42-4.32-.28-8.63.04-.99-.66-.28c-1.43 1.45-3.3 4.64-5.53 4.78q-3.1.19-6.38.72a.74.74 0 0 0-.43 1.24l2.42 2.65q.48.53.48 1.24m-36.51 2.27a.36.36 0 0 0 .63-.24l-.04-12.41a.36.36 0 0 0-.63-.24l-5.47 6.23a.36.36 0 0 0 0 .47zm163.47-6.71a.31.31 0 0 0 .54.22l3.24-3.61a.31.31 0 0 0-.27-.52l-3.11.48a.31.31 0 0 0-.27.29zM172.7 44.1q0 .29.25.44.22.13.46.12.53-.04.23-.47l-1.68-2.41q-.46-.66-.98-.06l-1.41 1.59q-.8.91.39.66l2.04-.43q.7-.15.7.56m115.26 6.78a.55.55 0 0 0 0 .74l2.15 2.35a.55.55 0 0 0 .47.17l8.74-.92a.55.55 0 0 0 .35-.17l5.81-6.36a.55.55 0 0 0 .14-.37l.02-4.08a.55.55 0 0 0-.61-.55l-9.28.96a.55.55 0 0 0-.35.17zm-136.62-6.05q.66-.55 1.09-1.22a.52.52 0 0 0-.1-.68q-.51-.44-1.04-.7-.78-.38-.62.48.14.81-.04 1.7-.25 1.23.71.42m7.21 2.59a.5.5 0 0 1-.36-.1l-3.82-2.84a.51.51 0 0 0-.69.08l-7.67 8.87a.51.51 0 0 0 .01.67l17.73 19.63a.51.51 0 0 0 .76-.01l2.66-3.01a.5.5 0 0 0 .13-.33V47.13a.51.51 0 0 0-.56-.51zm117.48-1.16.46-1.25q.25-.68-.47-.63l-1.12.09q-.6.05-.35.59.38.82 1.01 1.33a.3.3 0 0 0 .47-.13m81.26-1.1q-.99-1.1-1.94.02c-1.28 1.5-2.62 2.64-2.5 4.87q.17 3.21-.01 6.28c-.1 1.58 1.11 2.79 2.43 3.38q.54.25.94-.19l6.16-6.73q.92-.99.01-2zM254.55 58.12a.25.25 0 0 1 .27.25l.01 16.77a.25.25 0 0 0 .06.16l4.48 5.03a.25.25 0 0 0 .37.01l16.3-17.77a.25.25 0 0 0 .07-.17l-.02-13.95a.25.25 0 0 0-.06-.17l-3.13-3.44a.25.25 0 0 0-.21-.08l-12.07 1.22a.25.25 0 0 0-.16.08l-11.07 12.3a.25.25 0 0 0-.06.17V75.4a.25.25 0 0 0 .1.2l8.76 6.38a.25.25 0 0 0 .37-.11l.2-.44a.25.25 0 0 0-.04-.26l-4.85-5.62a.25.25 0 0 1-.06-.16l-.01-16.97a.25.25 0 0 1 .23-.25zM169.12 45.4q-.05-.26-.28-.13-.17.1-.23.29-.09.31.23.26.34-.04.28-.42m-.88 30.54c-.01.47-.15.73-.31 1.15q-.38.99.36.24 5.24-5.32 10.05-11.1.36-.43.36-.99l-.01-15.38q0-.52-.34-.91l-2.45-2.73q-.43-.48-1.07-.42l-6.02.61q-.54.05-.53.59.05 14.43-.04 28.94m-34.87-24.41q2.11.65 4.19.48.5-.04.54-.54.17-2.52-.29-4.83a.71.71 0 0 0-1.22-.34l-4.06 4.5q-.54.6.27.63.29.01.57.1m186.22 6.92a.23.23 0 0 1 .03.33l-8.57 9.48a.23.23 0 0 0 .2.38l6.06-.72a.23.23 0 0 0 .15-.07l6.63-7.4a.23.23 0 0 0-.04-.34L306.9 47.72a.23.23 0 0 0-.3.02l-11.34 11.67a.23.23 0 0 0-.07.16l.07 10.46a.23.23 0 0 0 .25.22l13.6-1.42a.23.23 0 0 0 .15-.08l9.6-10.61a.23.23 0 0 1 .32-.02zM191.99 48.3q-.45-.52-.47.16l-.11 3.53q-.03.82.55.24l1.25-1.25q.59-.58.04-1.22zm-52.09.9q-.12-.13-.11.05l.05 2.22q.01.58.59.65l1.77.21q.66.07.21-.41zm142.23 5.97a.32.32 0 0 0-.08-.21l-4.39-4.93a.32.32 0 0 0-.56.21l-.01 11.97a.32.32 0 0 0 .13.26l4.46 3.26a.32.32 0 0 0 .51-.26zm-160.76-1.29a.34.34 0 0 1 .45.04l2.84 2.96q.52.54 1.02-.01l3.07-3.38q.63-.69-.31-.72c-.95-.02-1.87-.52-2.88-.6q-6.65-.53-12.99-1.35-1.15-.15-.37.72l8.76 9.68q.46.51.91-.01l2.13-2.5q.42-.5-.01-.99l-2.91-3.29q-.18-.2.04-.37zm243.14 9.08a.18.18 0 0 0 .19.18l2.98-.16q.59-.03.98-.47l10.16-11.18q.45-.5-.23-.43l-13.34 1.37a.75.75 0 0 0-.67.73zM194.73 51.31q-.19-.2-.41-.03c-1.41 1.12-2.74 2.47-2.65 4.48q.19 4.54.05 8.69-.02.56.54.57c2.02.07 3.36-.08 4.83-1.69q1.91-2.09 3.86-4.28a.63.62-45.4 0 0 0-.83zm93.54 3.03q.72-.1.26-.65l-.89-1.08q-.66-.78-1.29.02l-1.39 1.78q-.35.44.21.37zM128 60.66a1.35 1.35 0 0 0 1.15.45l8.28-.81q.66-.06.66-.73v-5.09q0-.6-.56-.77-3.27-.98-6.53-.7a1.35 1.29-70.3 0 0-.88.44l-3.91 4.36q-.38.41 0 .84zm235.2 2.63a.32.32 0 0 0 .3-.32l.07-8.78a.32.32 0 0 0-.56-.22l-5.9 6.59a.32.32 0 0 0 .05.47l3.09 2.34a.32.32 0 0 0 .21.06zm-222.69-5.54 2.78-2.99q.64-.69-.3-.73l-2.52-.1a.7.69 86.2 0 0-.7.81q.22 1.32-.02 2.63-.26 1.48.76.38m156.88-3.31-5.39.55q-.95.1-.3.8l2.43 2.61a.53.53 0 0 0 .78 0l2.87-3.19q.8-.89-.39-.77m28.9 6.03 7.57 5.49q.43.32.97.27l15.68-1.55q.65-.07.65-.73l-.01-5.11q0-.55-.44-.87l-3.94-2.87q-.38-.28-.86-.27-3.9.1-7.64.8c-2.48.47-4.89.21-7.37.66-2.17.38-3.3 2.32-4.65 3.81a.25.24 39.9 0 0 .04.37m-181.77 2.44.3-.11a.31.3 58.2 0 1 .33.08q5.86 6.42 10.97 12.17.59.66.61 1.54.01.55.54.64l2.83.49q.66.11 1.12-.39l1.55-1.71q.46-.51 0-1.02l-17.65-19.53a.55.55 0 0 0-.82 0l-3.94 4.37a1.63 1.59-21.2 0 0-.4.88q-.23 1.72-.15 3.42.03.63 1.09 1.84 4.9 5.57 9.31 10.38.93 1.02 2.31 1.05l2.64.05q1.45.03.48-1.06l-11.26-12.51a.36.36 0 0 1 .14-.58m140.65-7.3a1.36 1.36 0 0 0-1.26 1.36l.1 9.97a1.36 1.36 0 0 0 2.36.91l6.71-7.38a1.36 1.36 0 0 0-.03-1.86l-2.8-2.89a1.36 1.36 0 0 0-1.08-.41zm38.27 2.72 1.11.81q.5.37.91-.11l1.78-2.04q.53-.62-.28-.51l-4.37.55q-.76.1-.23.65.38.39.92.57a.66.47-9.2 0 1 .16.08M126.66 61.4a.34.34 0 0 0 .22-.56l-1.42-1.61a.34.34 0 0 0-.51-.01l-1.85 1.99a.34.34 0 0 0 .29.57zm74.49 16.62a.33.33 0 0 0 .52-.26l.13-17.33a.33.33 0 0 0-.57-.22l-9.36 10.48a.33.33 0 0 0 .05.49zm151.74-15.85q-.02 1.05.73.32l.72-.7q.48-.46.01-.94l-.79-.79q-.63-.64-.65.26zm-58.95 8.11a.32.32 0 0 0 .27-.31l.06-8.59a.32.32 0 0 0-.56-.21l-7.02 7.89a.32.32 0 0 0 .06.48l2.24 1.46a.32.32 0 0 0 .22.05zm-149.11 9.54q.18.19 0 .38l-10.95 12.13q-.44.49-.44 1.14l.01 10.28q0 .61.6.67l9.79 1q.52.06.88-.33l10.16-11.27q.46-.51.48-1.2l.3-13.15q.01-.54-.52-.65c-1.84-.38-4.56-.37-5.9-1.82q-5.21-5.59-10.13-11.2c-1.02-1.16-1.25-2.35-.98-3.8q.14-.8-.67-.72l-7.63.76q-.54.06-.18.46l3.34 3.71q.45.5.45 1.18l.01 15.93a2.91 2.88-24.2 0 1-.75 1.94l-10.21 11.29q-.46.51 0 1.02l5.32 5.8q.44.47 1.07.53l2.98.29q.6.06.6-.55l-.01-9.95a3.3 3.29 66.1 0 1 .85-2.21l10.73-11.89q.27-.3.56-.01zm180.53-12.46a.31.31 0 0 1 .51.07l.39.8a.31.31 0 0 1-.04.33l-2.74 3.18a.31.31 0 0 0 .05.45l4.72 3.45a.31.31 0 0 0 .45-.1l4.75-8.21a.31.31 0 0 0-.08-.4l-7.74-5.75a.31.31 0 0 0-.42.04l-6.41 7.11a.31.31 0 0 0 .05.46l2.93 2.1a.31.31 0 0 0 .41-.04zm28.96-3.72a.32.32 0 0 0 .26.54l3.28-.24a.32.32 0 0 0 .17-.57l-1.75-1.4a.32.32 0 0 0-.43.03zm-226.15-1.26a.34.34 0 0 0-.29-.11l-5.71.58a.34.34 0 0 0-.31.34v31.69a.34.34 0 0 0 .59.22l9.92-10.98a.34.34 0 0 0 .09-.23l-.01-16.69a.34.34 0 0 0-.09-.23zm148.84 1.17a.45.45 0 0 0-.6.06l-9.65 10.67q-.54.59.25.51l13.66-1.41a1.65 1.65 0 0 0 1.47-1.64l.01-3.78q0-.62-.5-.99zm-88.35 2.123a1.29.37 132.4 0 0 1.143-.704 1.29.37 132.4 0 0 .597-1.202 1.29.37 132.4 0 0-1.143.703 1.29.37 132.4 0 0-.597 1.203M367.4 64.28l-2.2.2q-.55.05-.59.6l-.18 2.12q-.06.75.47.21l2.69-2.73q.46-.46-.19-.4m-12.51 1.15q-.21-.13-.36.22a.38.37 30.5 0 0 .12.45l8.22 6.05q.55.4.52-.28-.14-2.84.25-6.21.11-1.01-.9-.92l-7.76.71q-.05.01-.09-.02m13.3-.03-3.01 3.25a1.54 1.52 66.3 0 0-.41 1.07l.04 3.17q.02 1.49 1.5 1.51 1.47.01 3.24-.17.88-.09.7-.96l-1.59-7.74q-.11-.53-.47-.13m-173.86.97q.53-.59-.26-.5l-1.76.2q-.55.07-.56.62l-.02 1.83q0 .75.5.19zm140.31 1.26a.34.34 0 0 0-.26.17l-4.93 8.38a.34.34 0 0 0 .09.45l6.42 4.69a.34.34 0 0 0 .46-.04l13.46-14.73a.34.34 0 0 0-.29-.57zM180.5 82.24l9.27-10.27q.38-.43.4-1.01l.09-3.98q.01-.56-.55-.6-2.02-.14-3.06 1.04-3.19 3.64-6.15 6.8-.61.64-.61 1.53v6.26a.35.35 0 0 0 .61.23m177.19-6.52a.3.3 0 0 1 .2.06l4.96 3.58a.3.3 0 0 0 .48-.26l-.18-4.53a.3.3 0 0 0-.13-.23l-10.76-7.91a.3.3 0 0 0-.4.04l-9.32 10.34a.3.3 0 0 0 .26.5zm-178.8.08a3.26 3.25 65.9 0 1 .84-2.21l5.76-6.36q.52-.56-.24-.48l-4.87.56q-.6.06-1 .5l-10.12 11.16q-.34.37 0 .75l6.34 6.99q.47.51.92-.01l2.06-2.42q.32-.38.32-.89zm59.58 10.45 9.02-10q.57-.64.57-1.5l-.04-4.96q0-1.03-.69-.27l-9.35 10.39q-.4.45-.4 1.05l-.02 5.77q0 .49.48.45l.41-.04a.08.08 0 0 0 .01-.15q-.16-.03-.16-.31 0-.25.17-.43m45.6-16.85q.08.67.68.59a.28.28 0 0 0 .24-.33q-.11-.61-.63-.61a.31.3 84.9 0 0-.29.35m22.37 4-6.8 7.52q-.5.55.24.47l13.59-1.51q.59-.06.99-.51l3.3-3.63q.45-.49.36-1.14-.28-2.24-1.06-4.61-.17-.5-.7-.46l-6.24.52q-.52.04-.9.39-1.3 1.18-2.05 1.25-5.69.51-11.18 1.13-.77.09-.77.87l.01 2.93q0 .52-.3.94l-.71 1q-.37.53.15.91l2.58 1.86q.6.43 1.09-.12 3.82-4.33 7.77-8.56a.28.28 0 0 1 .39-.02l.2.17q.33.28.04.6m-19.785-3.036a.87.45-16.4 0 0-.962-.186.87.45-16.4 0 0-.708.678.87.45-16.4 0 0 .962.186.87.45-16.4 0 0 .708-.678m20.405.236q.08.21.28.04.11-.11-.02-.21-.31-.22-.68.13a.12.12 0 0 0 .01.18q.28.24.34-.13a.04.04 0 0 1 .07-.01m11.68.12.35 2.55q.12.83.7.23l.94-.97q.48-.49-.09-.88l-1.63-1.1q-.32-.21-.27.17m-22.65.69q-.04-.02-.08-.05-.06-.04-.12 0-.04.04-.05.09-.02.09.07.1 2.35.33 4.82 0 .06-.01.06-.06l-.01-.26q0-.12-.12-.11-2.21.27-4.47.32-.06 0-.1-.03m-9.2.94q-2.06.09-.43 1.36 1.82 1.41 2.73-.71.3-.7-.46-.7-.88.01-1.84.05m-120.21 4.64a.34.34 0 0 0 .59-.22l.07-3.81a.34.34 0 0 0-.59-.24l-1.79 1.87a.34.34 0 0 0-.01.46zm23.89-3.45a.38.38 0 0 0-.66-.26l-9.9 11.02a.38.38 0 0 0-.1.25l-.03 6.74a.38.38 0 0 0 .1.26l3.42 3.69a.38.38 0 0 0 .56 0l6.44-7.26a.38.38 0 0 0 .1-.25zm6.54 8.65.01 8.31q0 1.46 1.18 2.33l1.66 1.21q1.58 1.16 1.58-.8l.02-12.42a1.84 1.84 0 0 0-.75-1.48l-8.56-6.27q-.79-.59-.79.4l.03 14.06q0 .32.25.5l4.26 3.14a.09.09 0 0 0 .14-.07l-.03-8.86q0-.16.15-.21l.43-.14q.41-.14.42.3m93.66-8.93a.87.87 0 0 0-.52.24l-1.06 1.01a.87.87 0 0 0 .12 1.36l3.28 2.15a.87.87 0 0 0 1.34-.61l.43-3.41a.87.87 0 0 0-.94-.98zm29.71 5.85q.17.38.58.31 2.42-.43 4.03 1.06.46.42.76-.12l1.63-2.84q.35-.59-.21-.99l-4.42-3.22q-.39-.28-.78 0-3.24 2.27-1.59 5.8M286 75.15q-.7-.74-1.64-.93-.86-.17-.18.38 1.08.89 2.24 1.3.51.19.17-.23-.09-.11-.19-.19-.33-.26-.4-.33m-15.19 9.45a.34.34 0 0 0 .22-.11l8.54-9.48a.34.34 0 0 0-.29-.56l-13.71 1.52a.34.34 0 0 0-.22.11l-4.72 5.24a.34.34 0 0 0 .01.46l3.17 3.33a.34.34 0 0 0 .27.11zm7.27-1.39a.43.42-9.5 0 0 .55.39q4-1.19 4.1-5.49.03-1.58-.19-3.15-.1-.64-.58-.21-1.67 1.52-3.21 3.35c-1.2 1.43-.72 3.41-.67 5.11m6.02-7.26a.54.54 0 0 0-.47.52l-.02 1.85q-.01.85.64.31.98-.82 1-1.72.01-1.1-1.15-.96m-118.96 2.17a.33.33 0 0 0 .32-.48q-.36-.72-.98-1.18-.49-.37-1.02-.06-.56.32-1.02.86a.42.42 0 0 0 .3.69zm126.837 1.76a3.05.32 35.7 0 0-2.29-2.04 3.05.32 35.7 0 0-2.664-1.52 3.05.32 35.7 0 0 2.29 2.04 3.05.32 35.7 0 0 2.664 1.52m-52.917 7.09a.35.35 0 0 0 .29.58l15.23-1.6a.35.35 0 0 0 .23-.11l2.44-2.79a.35.35 0 0 0-.06-.52l-8.15-5.96a.35.35 0 0 0-.46.04zm101.37-7.8q-1.29 1.32-2.51 2.75-.43.5.1.89l7.22 5.31q.41.3.91.25l16.62-1.58q.52-.05.52-.57l-.01-4.66a1.19 1.17-72.5 0 0-.49-.96l-4.84-3.57q-.41-.31-.93-.26-6.57.73-12.88 1.31-2.9.27-3.71 1.09m-24.22.37a.22.22 0 0 0 .18.37l1.98-.16q.82-.06.71-.88l-.17-1.32q-.09-.69-.57-.19zm49.27-1.73q-.35-1.37-.64.02-.37 1.78.49 3.54a.36.36 0 0 0 .4.2l.27-.06q.17-.04.15-.21-.27-1.88-.67-3.49m-81.93 4.32a.77.77 0 0 0 .74.91c2.17.04 5.23.16 6.24-2.08q.21-.46-.21-.75l-3.26-2.3q-.4-.28-.78.03-2.33 1.89-2.73 4.19m45.43-4.3a.42.42 0 0 0-.61.13l-1.8 3.18a.42.42 0 0 0 .12.55l5.34 3.86a.42.42 0 0 0 .55-.06l2.46-2.68a.42.42 0 0 0-.06-.63zm-172.36 4.05a.21.21 0 0 0 .36.14l2.12-2.33q.58-.64-.28-.69l-1.56-.08a.59.58 1.4 0 0-.62.58zm10.58 6.68a.32.32 0 0 0 .08-.21l.02-7.97a.32.32 0 0 0-.27-.32l-5.92-.88a.32.32 0 0 0-.29.1l-3.74 4.15a.32.32 0 0 0-.08.21l-.36 15.82a.32.32 0 0 0 .56.22zm128.995-5.582a2.27.33 35.2 0 0-1.665-1.578 2.27.33 35.2 0 0-2.045-1.038 2.27.33 35.2 0 0 1.665 1.578 2.27.33 35.2 0 0 2.045 1.038m29.865 5.462q.38.28.28-.18l-1.29-5.97a2.35 2.34-1.2 0 0-1.92-1.83l-.99-.16q-1.7-.28-1.28 1.39l.78 3.08q.14.55.59.88zm-49.14-7.46a.34.34 0 0 0-.59-.2l-2.4 2.75a.34.34 0 0 0 .28.57l2.59-.17a.34.34 0 0 0 .31-.37zm-69.79.89a.35.35 0 0 0-.17.63l11.73 8.49a.35.35 0 0 0 .56-.27l.12-9.7a.35.35 0 0 0-.38-.35zm114.13 4.67c-1.33-.97-1.33-3.75-1.79-5.32q-.15-.52-.68-.51-1.63.03-3.38.45c-3.16.74-5.55.99-8.42.8a1.37 1.36 23 0 0-1.09.44l-6.34 6.98q-.59.65.14 1.12c1.43.92 2.72 2.57 4.61 2.37q11.84-1.22 21.67-2.24a.29.29 0 0 0 .14-.52q-2.43-1.81-4.86-3.57m-146.62 2.19a.6.59-44.6 0 0 .01-.8l-6.01-6.72q-.41-.46-.41.15l.08 13.68q.01.67.46.17zm36.04 4.64-2.89 3.19a.37.36 26.1 0 0 .21.6q1.9.36 3.9.01c2.29-.4 3.85-3.37 5.51-4.92q.54-.5-.05-.94-6.87-5.16-13.93-10.11a.32.32 0 0 0-.5.26l-.01 11.31q0 .66.54 1.05l2.71 1.98q.54.39.99-.1l3.02-3.22q.06-.07.13-.02l.29.21q.43.31.08.7m84.649-9.108a.27.27 0 0 0-.064-.377l-3.489-2.479a.27.27 0 0 0-.376.064l-1.228 1.728a.27.27 0 0 0 .063.377l3.489 2.479a.27.27 0 0 0 .376-.064zm-33.604.413a1.69.28 45 0 0-.997-1.393 1.69.28 45 0 0-1.393-.997 1.69.28 45 0 0 .997 1.393 1.69.28 45 0 0 1.393.997m21.124-2.482a.86.31-44.9 0 0-.828.387.86.31-44.9 0 0-.39.827.86.31-44.9 0 0 .828-.387.86.31-44.9 0 0 .39-.827m81.931 4.027a.34.34 0 0 0 .13.26l2.11 1.68a.34.34 0 0 0 .54-.34l-.97-4.17a.34.34 0 0 0-.09-.17l-1.17-1.13a.34.34 0 0 0-.57.24zm-69.16 1.19 1.66 1.33q.86.69 1.61-.13l5.1-5.6q.4-.44-.19-.4l-5.4.43q-.91.08-1.48.79l-1.49 1.85q-.77.96.19 1.73m35.84-.58a.33.33 0 0 0-.05-.49l-4.67-3.41a.33.33 0 0 0-.51.34l1.6 6.75a.33.33 0 0 0 .56.14zm5.32 3.26-.51.04q-.56.04-.57.61l-.04 3.56q0 .61.61.69 5.82.74 8-5.17.22-.61-.3-1l-6.92-5.11a.63.63 0 0 0-.97.31q-.55 1.7-.36 3.59.08.81.78 1.23.39.24.61.58.39.61-.33.67m-77.97-6.3a.35.35 0 0 0-.45.05l-2.44 2.7a.35.35 0 0 0 .05.52l7.32 5.43a.35.35 0 0 0 .47-.05l2.7-3.1a.35.35 0 0 0-.07-.52zm24.74 4.19a.31.31 0 0 0 .54.23l3.4-3.7a.31.31 0 0 0-.26-.52l-3.28.4a.31.31 0 0 0-.27.29zm10.72 1.54q.06-1.35-.91-2.09-1.84-1.42-3.73-2.75-.57-.39-1.04.12l-4.34 4.73a.75.75 0 0 0 0 1l3.17 3.44a1.46 1.45-24.1 0 0 1.21.46l4.85-.47q.69-.06.7-.75.02-1.72.09-3.69M278 88.71a.33.33 0 0 0 .3.33l3.96.4a.33.33 0 0 0 .36-.32l.03-4.11a.33.33 0 0 0-.36-.33l-3.96.36a.33.33 0 0 0-.3.33zm-6.13-2.73a.33.33 0 0 0-.17.09l-1.6 1.61a.33.33 0 0 0 .2.56l6.32.64a.33.33 0 0 0 .36-.32l.04-3.15a.33.33 0 0 0-.4-.33zm-4.32 1.86q.97-.52 1.7-1.72.29-.47-.25-.4l-3.54.41q-.87.11-.22.7l.68.62q.84.8 1.63.39m-89.14 2.13a.31.31 0 0 0 .54-.21l-.06-3.49a.31.31 0 0 0-.55-.19l-1.45 1.75a.31.31 0 0 0 0 .4zm155.95-3.88q-.45.47-.38.82a.37.36-29.6 0 0 .63.17q.56-.62.11-1a.27.26 42.5 0 0-.36.01m30.54 1.44q-.11-.36-.49-.37-.46 0-.17.35.73.86 1.51 1.37.44.28.2-.18-.27-.53-.77-.82a.61.6 6.6 0 1-.28-.35m-32.76.81-2.15 2.38q-.33.37.07.66l4.38 3.22q.25.19.25-.13l-.02-5.17a1.45 1.45 0 0 0-2.53-.96m-77.22-.18a.61.61 0 0 0-.96.62l1.72 8.28a.61.61 0 0 0 .68.48l2.9-.38a.6.6 0 0 0 .37-.19l2.54-2.72a.61.61 0 0 0-.09-.91zm-9.21.63q1.13.33 1.96-.17.51-.3-.08-.26l-1.84.11q-.94.06-.04.32m98.07 4.47a.33.33 0 0 0 .32.5l13.84-1.51a.33.33 0 0 0 .19-.09l3.44-3.41a.33.33 0 0 0-.26-.56l-15.14 1.58a.33.33 0 0 0-.25.15zm27.01 4.53 5.59 4.13q.85.62.56-.39c-.64-2.17-.45-3.38-2.61-4.89q-5.59-3.93-10.59-7.78-.66-.5-1.21.11l-8.33 9.2q-.54.59.26.51l14.22-1.47a3.02 3.01-29.5 0 1 2.11.58m-180.26-1.26q.98-.66.48.41-.95 2.02-2.82 2.85-.5.23-.13.64l2.96 3.24q.43.47.85 0l3.87-4.22q.39-.42.39-.99l-.03-5.38a1.2 1.18 18.4 0 0-.49-.96l-4.06-2.98q-.48-.35-.87.09l-5.85 6.49q-.59.67.03 1.3l2.32 2.37a.52.51-51 0 0 .8-.09q1.15-1.82 2.55-2.77m57.54-7.22c-3.32.03-3.92 1.75-5.83 3.69q-.52.52.07.96l5.3 3.9q.58.42 1.29.35 2.3-.22 4.53-.14 1.49.06 1.17-1.52l-1.31-6.43q-.31-1.5-1.81-1.19-1.68.36-3.41.38m17.19 4.57c1.55 1.3 2.89 2.65 5.23 2.44q3.02-.28 6.02-.72.53-.07.53-.61l-.05-4.51q0-.57-.57-.63l-6.72-.71q-.6-.06-1 .38l-3.48 3.77a.41.4 41.7 0 0 .04.59m30.29-4.87a.28.28 0 0 0-.45.23l.16 2.55q.05.74.57.21l1.02-1.05q.47-.48-.05-.91zm71.53.69q.69 0-.1-.57-.22-.17-.28.11-.1.45.38.46m-184.86 7.35q.29-.33 0-.66l-6.09-6.92a.72.72 0 0 0-1.15.09c-.48.76-1.02 1.38-1.04 2.34q-.08 4.06-.01 8.4.01.63.52 1.01l1.84 1.37q.55.41 1-.1zm57.29-7.1q-.66-.33-1.45-.36-.95-.04-.26.62l2.56 2.47q.43.41.83-.02l2.04-2.16q.63-.66-.29-.59l-2.54.21q-.47.04-.89-.17m46.62 4.73a.3.3 0 0 0 .19-.5l-3.41-3.58a.3.3 0 0 0-.19-.09l-4.33-.47a.3.3 0 0 0-.33.29l-.08 4.89a.3.3 0 0 0 .34.3zM167.1 97.07a.3.3 0 0 0 .07-.19l.21-6.22a.3.3 0 0 0-.52-.21l-9.59 10.64a.3.3 0 0 0 .01.4l2.72 2.95a.3.3 0 0 0 .44 0zm54.49.1-4.19.44q-1.31.14-1.99 1.26l-1.31 2.14q-.67 1.1.59.84 4.87-1.01 9.42-.82.92.04 9.03-9.42.7-.82-.37-.66l-4.52.71a2.88 2.85-72.9 0 0-1.7.91l-3.5 3.86q-.59.65-1.46.74m14.96-.44.03-4.67q0-1.69-1.14-.45l-7.7 8.38q-.58.63.26.47 2.68-.5 5.18-.45a3.3 3.29-89.1 0 0 3.37-3.28m59.6-3.58a.34.34 0 0 0 .29.56l3.93-.41a.34.34 0 0 0 .16-.62l-2.15-1.52a.34.34 0 0 0-.44.05zm10.62 14.62-2.92 3.42q-.33.39.01.77l2.41 2.72q.37.41.93.35l15.93-1.69a1.31 1.26-71.4 0 0 .84-.44l6.7-7.71q.46-.53.25-1.21l-1.12-3.6a1.38 1.36 8.9 0 0-.53-.72c-.53-.37-.86-.84-.98-1.5q-.55-3.15-1.28-6.07a.65.64-9.6 0 0-.7-.49l-30.56 3.13a.49.48 83.2 0 0-.43.55q.47 3.36 1.19 7.13c.57 3.03 3.69 5.41 5.6 7.65q.45.53.91.01l2.56-2.88a.6.59-60.5 0 1 .6-.17l.4.12q.58.18.19.63m-81.3-15.49a.31.31 0 0 0-.26-.52l-5.84.71a.31.31 0 0 0-.23.15l-2.19 3.55a.31.31 0 0 0 .3.47l4.57-.53a.3.3 0 0 0 .19-.09zm12.13 0-.11 3.94q-.01.36.27.15 1.24-.93 2-2.14.36-.56-.15-.99l-1.43-1.22q-.56-.47-.58.26m-65.67.89-2.67 3.07q-.65.75.14 1.34l2.91 2.16q.57.43.58-.28l.01-5.92q.01-1.49-.97-.37m156.515.726a.63.21 83.2 0 0 .134-.65.63.21 83.2 0 0-.284-.602.63.21 83.2 0 0-.134.65.63.21 83.2 0 0 .284.602m5.795 2.254-3.83-2.98a.28.27-83 0 0-.42.33q.89 2.06.96 4.39c.04 1.45.99 2.62 2.13 3.39a1 1 0 0 0 1.56-.81l.06-3.37q.01-.59-.46-.95m-137.18-2.19c.21 1.22-.1 2.58.02 3.78q.07.68.53.18l1.89-2.05q.45-.49-.06-.91l-1.69-1.4q-.9-.74-.69.4m154.05.93q-4.04.25-8.31 1-.52.1-.79.55l-4.19 7.1a1.01 1 33.4 0 0 .28 1.32l4.57 3.37q.48.35.88-.08l13.12-14.2q.45-.49-.22-.52-2.48-.09-4.2 1.08-.52.35-1.14.38m-145.36 2.498a.59.59 0 0 0-.141-.822l-2.86-2.018a.59.59 0 0 0-.822.142l-.058.082a.59.59 0 0 0 .142.822l2.86 2.018a.59.59 0 0 0 .822-.142zm33.59 1.722a.32.32 0 0 0 .25.1l6.63-.49a.32.32 0 0 0 .16-.58l-5.06-3.59a.32.32 0 0 0-.42.04l-2.72 2.89a.32.32 0 0 0 0 .44zm-83.77 10.61a.32.32 0 0 0 .08-.21l.06-14.28a.32.32 0 0 0-.56-.22l-9.72 10.78a.32.32 0 0 0 0 .42l6.52 7.18a.32.32 0 0 0 .48-.01zm106.81-13.44q-.16.13-.27.26-.55.61.28.55l3.59-.27a.22.21 62.8 0 0 .12-.38l-1.52-1.29q-.38-.33-.85-.14c-.72.3-.8.8-1.35 1.27m26.94-.95a.32.32 0 0 0-.21.54l4.64 5.18a.32.32 0 0 0 .55-.23l-.28-5.57a.32.32 0 0 0-.35-.3zm-74.25 1.02a.22.22 0 0 0 .22.35q.57-.1.78-.65a.3.29 10.7 0 0-.28-.4q-.21 0-.72.7m72.82 17.89q-6.11.74-12.13 1.31c-1.65.16-3.35.5-5.02.26q-.48-.07-.87-.36-1.87-1.39-4.32-.66-.74.22-.12.68l11.66 8.56q.45.34 1.01.28l15.39-1.5q.52-.05.55-.57l.1-1.85q.03-.53.38-.92l5.18-5.74a.39.39 0 0 0-.13-.62c-3.57-1.58-2.25-5.7-3.72-7.96q-1.46-2.26-8.02-9.11-.46-.48-1.12-.41l-8.66.9a1.73 1.7 17.3 0 0-1.11.57q-4.83 5.36-9.79 10.87c-.79.87-2 1.34-3.13 1.34q-.98-.01-.17.55l4.55 3.17q.45.32.99.27l7.74-.71q.35-.03.35.32v.37q0 .25-.25.27l-6.51.6q-.56.05-.14.42.55.49 1.22.41 7.74-.85 15.9-1.65.21-.02.27.18l.13.4q.08.29-.21.33m-86.75-18.15a.37.37 0 0 0-.5.04q-1.35 1.43-2.74 2.93c-1.04 1.12-.86 2.34-.77 3.72a.56.55-5.4 0 0 .62.51l2.31-.28q.61-.07 1.02-.53l3.13-3.45q.31-.34-.06-.63zm134.44 2.99a.32.32 0 0 0 .56.24l2.46-2.66a.32.32 0 0 0-.28-.53l-2.31.32a.32.32 0 0 0-.28.3zm4.42-2.54-4.97 5.66q-.4.47.16.7l.8.34q.54.23.78-.3 1.51-3.32 3.78-6.18.03-.04-.01-.08l-.22-.17q-.17-.14-.32.03m-64.56.79a.33.33 0 0 0-.28-.56l-14.03 1.54a.33.33 0 0 0-.28.4l2.04 9.32a.33.33 0 0 0 .34.26l2.26-.16a.33.33 0 0 0 .22-.11zM115.86 160.2q.34 0 .34.34l.01 16.04a1.65 1.65 0 0 0 .42 1.1L126.87 189a2.55 2.51-18.1 0 0 1.65.82l9.25.78q.4.03.41-.37l.04-4.13q.01-.35.36-.37l.43-.03q.68-.04.68.64l-.02 4.47q0 .13.13.14l4.07.25q.2.01.2-.18v-32.89q0-.52-.35-.91l-10.59-11.76a2.68 2.63-66.3 0 1-.67-1.77V127.8a2.11 2.08-24.3 0 1 .54-1.4l4.53-4.96a4.06 4.05 45.3 0 0 .02-5.45c-3.7-4.11-7.06-8.3-11.25-12.27q-2.35-2.22-4.33-4.72c-1.43-1.8-3.11-1.8-5.17-1.89q-.6-.02-.6.59l.01 15.08a2.68 2.61 66.6 0 1-.68 1.78L105.1 126.1a2.92 2.9 18.3 0 1-1.86.93l-7.78.76a.3.3 0 0 0-.19.5l3.29 3.72q.41.47.41 1.09l.06 16.48q0 .55-.37.95l-5.77 6.41a.24.23 24.2 0 0 .15.39l5.19.51q.53.05.89.45l10.84 11.98a2.6 2.6 0 0 1 .66 1.73l-.01 15.57a.52.51 3.1 0 0 .46.51l14.26 1.51q.78.08.25-.5l-9.6-10.64a3 3 0 0 1-.76-1.99v-15.94q-.01-.32.31-.32zm52.46-54.78q.89.78 1.52 1.61 2.64 3.48 3-.87.16-2.1.03-4.24-.04-.55-.47-.87l-4.01-2.96q-.52-.39-.95.1l-6.13 6.82q-.4.45 0 .89l6.07 6.74a.52.51-44.7 0 0 .77 0l2.43-2.73q.3-.34 0-.66l-2.79-3.05q-.12-.14-.14-.32-.02-.16.04-.31.21-.51.63-.15m9.78-2.27a.66.66 0 0 0 .1.98l2.72 1.93a.66.66 0 0 0 .87-.09l4.2-4.63a.66.66 0 0 0-.02-.9l-2.3-2.41a.66.66 0 0 0-.97.02zm151.35-5.25a.13.12 71.1 0 0-.18-.09q-.16.07-.19.25-.07.32.23.47.27.12.14-.63m-117.23 1.66a.62.62 0 0 0 .46.99q.73.05 1-.74.08-.23.25-.42.45-.48.47-1.11.03-.72-.56-.3-.97.69-1.62 1.58m-1.85-.73q.55.3 1.1.07a.34.33-38.2 0 0 .07-.58q-.55-.4-1.15-.1-.58.29-.02.61m153.27 17.52a.39.38-6.3 0 1-.34.41q-8.62 1.04-16.77 1.7-.57.04-1.01-.3-1.52-1.18-2.82-2.26a.36.36 0 0 0-.58.35l1.16 5.51a1.16 1.15 81 0 0 1.24.91l18.45-1.91a2.18 2.17-71.7 0 0 1.42-.72q5.18-5.77 10.17-11.27 1.12-1.24 2.92-1.12.6.04.54-.56-.31-3.04-2.07-4.29-2.9-2.07-6.02-4.36-.43-.31-.97-.26l-15.56 1.6q-.49.05-.83.42l-10.75 11.92a1.46 1.45-50.7 0 0 .21 2.14l3.95 2.95q.44.33.99.28l16.36-1.67q.26-.02.28.23zM209.32 99.32c-2.8-2.23-5.24 1.16-6.93 3.13a.36.36 0 0 0 .27.59q3.32-.03 6.38-1.43a1.35 1.35 0 0 0 .28-2.29m28.24-.48q-.71.23-.86.39-.43.45.19.43.66-.02.92-.51.25-.46-.25-.31m19.75 6a.3.3 0 0 0 .12.19l3.16 2.33a.31.31 0 0 0 .48-.31l-1.75-8.03a.31.31 0 0 0-.32-.24l-2.58.1a.31.31 0 0 0-.29.37zm-2.2-5.63a.32.32 0 0 0-.35-.25l-4.11.52a.32.32 0 0 0-.27.38l2.13 9.26a.32.32 0 0 0 .34.24l6.91-.63a.32.32 0 0 0 .17-.57l-3.41-2.59a.32.32 0 0 1-.11-.19zm-5.63 1.01a.5.5 0 0 0-.51-.39l-7.6.45a.5.5 0 0 0-.34.83l7.69 8.47a.5.5 0 0 0 .42.16l1.85-.17a.5.5 0 0 0 .45-.61zm-37.56.66q-.98-.03-1.5.55-.55.61.26.66 1.07.07 1.54-.62.38-.56-.3-.59m20.62 1.8-5.34.39a.45.45 0 0 0-.41.52q.62 4.28 1.78 8.81c.76 2.95-.11 4.63 2.79 6.77q5.7 4.21 11.46 8.43.57.42 1.26.28l3.47-.68q.62-.12.62-.76v-15.36q.01-.58-.39-1.01l-7.86-8.71a1.43 1.42-17.1 0 0-.87-.46q-3.47-.49-5.28 1.23-.52.49-1.23.55m.21-1.24c-.83-.12-1.59-.07-2.43-.07h-.01q-.01.06.05.07 1.33.15 2.5.49a.03.02-58.3 0 0 .02-.01l.04-.25q.04-.2-.17-.23m-37.65.8c-.33.46-.8.77-1.1 1.23q-.38.56.29.54.68-.01 1.24-.22.57-.23.59-.84l.02-.95q.01-.6-.5-.28-.31.19-.54.52m100.18-.28q-.02-.05-.07-.07-.21-.1-.14.17.08.27.32.34a.14.14 0 0 0 .19-.13q.01-.2-.14-.2-.12 0-.16-.11m-112.47 4.39a.22.22 0 0 0 .19.37l6.77-.78a.42.42 0 0 0 .32-.63q-1.02-1.77-2.73-3.16-.45-.37-.85.07zm149.31-4.15q-.15.36-.02.72a.36.36 0 0 0 .51.18q.34-.2.36-.64.02-.39-.36-.49-.36-.1-.49.23m-107.59.27q-1.07.11-1.99.18-.1.01.01 0h.02q.08-.01.15.01 1.07.31 1.86.02a.11.11 0 0 0-.05-.21m-67.32.37a.31.31 0 0 0-.55.21l.02 4.78a.31.31 0 0 0 .54.21l2.14-2.4a.31.31 0 0 0 0-.41zm16.68.47v2q-.01 1.27.78.28l1.02-1.28a.75.75 0 0 0-.12-1.05l-.59-.47q-1.09-.87-1.09.52m42.98.75q-1.21.04-2.15-.66-.88-.64-1.68.09-1.01.93-1.64 2.06-.41.73.26 1.22l7.35 5.4a.21.21 0 0 0 .34-.17l.01-4q0-.33.31-.44.14-.05.26-.03.39.07.39.46l.02 4.34q.01.59.43.99l.96.93q.56.54-.16.81-.33.12-.55-.1-.71-.68-.7.3.06 4.86-.02 9.31 0 .5-.25.94-.25.45-.61.7-.78.54-.02 1.1l8.33 6.14q.15.12.07.29l-.11.24a.46.46 0 0 1-.69.18l-8.51-6.23a.58.57-50.8 0 0-.77.08l-8.51 9.44a2.84 2.83 18.2 0 1-1.81.91l-13.97 1.43q-3.17.32-1.12 2.75.74.88 1.78 1.74 2.07 1.71 4.74 1.44l14.49-1.47q.38-.04.4.35l.02.36a.23.23 0 0 1-.21.24q-8.47.92-15.97 1.61c-1.92.18-3.81-1.74-5.25-2.84q-.58-.44-.58.28l-.02 12.82q0 .23.19.37l3.97 2.86a.15.15 0 0 0 .24-.12l-.01-8.62q-.01-.36.36-.36h.34a.28.28 0 0 1 .28.28l.02 9.17q0 .57.46.91l7.1 5.24a.72.72 0 0 0 .96-.09l4.44-4.91q.18-.2.38-.02l.25.23q.29.28.02.57l-3.4 3.71q-.67.73.32.61l4.89-.56q.59-.07.98-.51l5.44-6.05q.38-.42.38-.98l.01-16.29q0-.18.17-.21l.35-.07q.47-.09.47.39v16.62a1.47 1.45-24.3 0 1-.38.98l-4.92 5.4a.28.28 0 0 0 .24.47l5.88-.58q.78-.08 1.31-.66l10.71-11.86a.41.4 41.6 0 1 .58-.03l.24.22q.2.17.02.37l-10.84 12.03a2.81 2.79-71.7 0 1-1.78.9l-7.12.71a1.88 1.84 17.9 0 0-1.2.6l-3.25 3.62q-.37.4.18.35l14.29-1.49a1.87 1.87 0 0 0 1.16-.59l10.66-11.79a1.52 1.44 70 0 0 .36-.83c.21-2.32-.64-7.01 1-8.83q4.86-5.39 10.15-11.23a1.6 1.57 66.9 0 0 .41-1.04v-6.36q.01-.69-.69-.67l-4.58.16a1.24 1.23 62.3 0 1-.76-.24l-12.8-9.4q-.92-.68-1.16-1.79c-.71-3.4-1.47-6.87-2.05-10.34q-.29-1.68-1.02-3.45-.2-.48-.71-.42-3.67.48-7.4.61m120.45 6.26q-.26-3.3-1.74-6.11a1.23 1.23 0 0 0-1.85-.39c-1.57 1.25-1.16 3.93.61 4.89q1.44.77 2.49 1.84.55.55.49-.23m-128.66-5.56.79.54q.66.44 1.11-.21l.56-.79q.56-.8-.4-.63l-1.91.35q-1 .18-.15.74m-3.16-.089a1.05.22.6 0 0-1.048-.231 1.05.22.6 0 0-1.052.209 1.05.22.6 0 0 1.048.231 1.05.22.6 0 0 1.052-.209m-26.61 6.759c-.16-1.54.25-2.89 1.46-3.85q.45-.35-.02-.7l-2.73-2.03q-.53-.39-1.01.06-2.15 2-3.67 4.68-.22.39.02.78 1.94 3.13 5.53 1.74.47-.18.42-.68m-49.14-6.44q-.68-.05-.21.45l2.57 2.74q.45.49.43-.18-.08-1.9-.08-1.99-.02-.62-.58-.74-.91-.21-2.13-.28m84.26 19.76a.85.84 86.3 0 1-.76-.67l-3.47-16.55a2.96 2.95 80.6 0 0-3.25-2.33l-8.83 1.07q-.59.07-.59.67v9.41a2.5 2.47 66.5 0 1-.65 1.68l-4.34 4.81q-.63.7-.63 1.64l.04 9.21q0 .73.73.66l2.99-.31q.61-.07 1.02-.52l5.49-6.11a2.4 2.38-71.4 0 1 1.53-.77l11.06-1.05q.69-.06.24-.58-.19-.22-.58-.26m165.42-19.38q-.43-.14-.43.31.02 1.54 1.13 1.73a.61.61 0 0 0 .68-.79q-.31-.91-1.38-1.25m-234.63 9.04a.23.23 0 0 1 .04.35l-3.1 3.52a.23.23 0 0 0 0 .3l2.74 3.16a.23.23 0 0 0 .34.01l6.5-7.25a.23.23 0 0 0 0-.3l-6.93-7.65a.23.23 0 0 0-.15-.08l-10.5-1.07a.23.23 0 0 0-.25.22l-.07 3.7a.23.23 0 0 0 .06.16l7.21 8a.23.23 0 0 0 .34.01l3.08-3.3a.23.23 0 0 1 .29-.03zm193.62-8.07q-.56-.42-.46.27.32 2.39 1.22 5.07a.57.56 57.8 0 0 .94.22l1.91-1.96q.51-.52-.07-.95zM156.66 117.5a2.34 2.28 31.7 0 0 .27 1.08q1.3 2.4 3.62 1.9 1.33-.28 2.77-1.88 1.6-1.78 3.5-3.91a.9.89 45.3 0 0 0-1.19l-6.16-6.81q-.44-.49-.88 0l-2.7 3.01q-.39.43-.39 1.01zm34.79 4.29q0 .23.16.06l4.08-4.42a1.7 1.67 66.7 0 0 .44-1.14l-.04-9.07q0-.62-.62-.56l-3.38.32a.68.67-2.8 0 0-.61.67zm139.18-14.7q-.97 1.78-.47 5.11.1.69.78.56l1.02-.18q.55-.1.48-.65-.29-2.5-1.05-4.77-.3-.91-.76-.07m-146.88 4.61a2.56 2.56 0 0 0 1.64-.83l2.85-3.17a.33.33 0 0 0-.28-.55l-5.9.64a2.17 2.16-75.5 0 0-1.52.9q-.81 1.12-.73 2.54.04.85.89.77zm116.11.54q.92.59 1.52-.36.27-.43-.08-.81l-3.38-3.67q-.5-.55-.42.19.41 3.41 2.36 4.65m-110-3.93-9.44 10.36q-.54.6-.48 1.4.34 4.32 1.56 7.84c.73 2.12 2.84 2.13 4.19.58q2.09-2.41 4.12-4.61a2.73 2.71-24 0 0 .71-1.83l-.01-13.49q0-.97-.65-.25m29.52 16.09-.06-9.67q-.01-1.07-.87-1.71l-6.91-5.08q-.8-.59-.6.38 1.37 6.49 2.8 13.29.44 2.08 1.52 2.83 1.73 1.19 3.75.48a.55.55 0 0 0 .37-.52m109.7-14.97a.31.31 0 0 0-.54-.21l-3.21 3.58a.31.31 0 0 0 .27.51l3.2-.35a.31.31 0 0 0 .28-.31zm4.8.17q-.57-.38-.41.28l.45 1.94q.12.53.67.55 1 .04 1.83-.28a.42.41 51.6 0 0 .08-.73zm-79.93 7.69-.26.1a.42.42 0 0 1-.57-.29l-1.3-5.93q-.11-.5-.62-.57-.75-.11-1.51.16-.51.19-.51.73l-.01 13.81q0 1.06.71.27l9.58-10.62q.32-.36.79-.48l1.35-.34q.7-.18.58-.89-.2-1.22-.21-2.43a1.27 1.2-2.9 0 0-1.38-1.18q-.36.03-7.09.65-.8.07-.64.86l1.22 5.91q.03.17-.13.24m10.01-6.25q-.42-.31-.33.19l.35 1.97q.13.78.92.67l1.62-.24q.74-.11.15-.55zm-90.91.86q-.39-.26-.64-.65-.44-.72-1.02-.09l-1.23 1.36q-.53.58.25.51l2.39-.18q1.49-.12.25-.95m-17.38 5.05-.03-4.94q-.01-.85-.56-.2l-1.7 1.97a.95.95 0 0 0 .01 1.23l1.83 2.11q.45.52.45-.17m27.65-4.25-2.78.31q-.68.08-.67.77l.04 2.52q.02 1.05.71.25l2.95-3.38q.48-.55-.25-.47m121.99 2.99q-1.2-1.51-2.49-2.79a.42.42 0 0 0-.6.01l-.2.21a.35.35 0 0 0 .01.5q1.51 1.37 3.03 2.35.97.62.25-.28m30.2 2.74q.77 1.69.43 3.86-.19 1.25 1.08 1.13l3.49-.36q1.35-.14.23-.89-1.25-.84-1.48-2.32-.53-3.28-1.32-6.42-.17-.64-.8-.43-1.12.37-2.18.24-.68-.09-.62.59.22 2.48 1.17 4.6m-159.27-4.42 2.13 2.43q.61.69.57-.23l-.09-2.45q-.04-1.03-.94-.54-.57.32-1.16.16-1.39-.37-.51.63m156.79.02a.58.58 0 0 0-.65-.49l-1.8.24a.58.58 0 0 0-.5.58l-.04 9.11a.58.58 0 0 0 .6.58l3.31-.11a.58.58 0 0 0 .56-.67zm8.69 4.71q-.33-2.08-1.09-3.93-1.17-2.82-.88.22.24 2.45.81 4.02 2.15 5.84 1.16-.31m-163.56.11a.48.48 0 0 0 .3-.8l-3.82-4.22a.48.48 0 0 0-.4-.15l-5.43.59a.48.48 0 0 0-.42.46l-.15 4.58a.48.48 0 0 0 .53.49zm129.13-2.52a.57.57 0 0 0-.28 1.02l4.75 3.56a.57.57 0 0 0 .4.11l16.42-1.64a.57.57 0 0 0 .51-.57l.01-4.19a.57.57 0 0 0-.63-.57zm-6.04-1.98q-.17-.12-.31.03l-5.05 5.52q-.47.52-.47 1.21v15.43q0 .75.5 1.31l9.59 10.57q.35.39.35-.13l-.01-29.64a1.63 1.62 18.9 0 0-.64-1.29zm-41.62 13.4q-1.63.21-3.36.21c-2.2.01-4.17.44-6.32.78q-.6.1-.61.71l-.05 7.53q0 .28.26.15.2-.1.33-.31.23-.39.66-.53l15.03-4.76a.69.69 0 0 0 .47-.79l-3.18-15.25q-.1-.48-.6-.45c-.97.05-1.81.23-2.48 1q-4.8 5.49-9.59 10.6a.2.19-66.9 0 0 .13.33c3.34.17 6.18-.84 9.42-.87q.53 0 .56.53l.01.32a.78.77-4.8 0 1-.68.8m-103.1-6.87a.33.33 0 0 0 .21-.55l-4.31-4.91a.33.33 0 0 0-.49-.01l-5.52 5.95a.33.33 0 0 0 .27.56zm10.4-4.84-3.41 3.82q-.49.56.24.47l2.79-.31q.74-.09.74-.82l.01-3.03q0-.54-.37-.13m124.76 25.07-3.7 4.12q-.38.42.14.66 5.41 2.43 10.13 4.57 2.69 1.22 6.45-.14.55-.19.16-.63l-10.12-11.18a2.65 2.62-66.3 0 1-.68-1.77l-.01-12.46a.24.23 86.8 0 0-.26-.24l-15.53 1.64a2.69 2.67-29.4 0 1-1.89-.52l-11.52-8.47q-.43-.32-.32.21l2.67 13.19a2.69 2.67 12.8 0 0 1.04 1.64l17.52 13.05a1.06 1.05 39.3 0 0 1.41-.14l3.75-4.16q.13-.14.3-.07l.35.16q.42.19.11.54m-152.05-22.5q0-.09-.06-.16-.05-.07-.13-.07-.13 0-.03.12.05.07.09.14.15.33.13-.03m179.75 10.74c2.79-.97 7.13-1.7 8.95-3.96q1.21-1.52.65-4.5-.1-.56-.67-.5l-15.98 1.63q-.56.05-1.01-.27l-3.88-2.76q-.58-.42-.58.3v28.96a.24.24 0 0 0 .38.2q1.98-1.42 2.65-3.24.56-1.53 1.42-2.99 3.77-6.36 7.13-12.1a1.77 1.75-84 0 1 .94-.77m-175.33 9.11V124.1q0-.78-.44-1.42-.89-1.29-2.11-2.3-2.05-1.69-2.05.97l-.03 11.92q0 .32.21.56l4.19 4.71a.13.13 0 0 0 .23-.08m29.63-12.42q.53 1.18.14 3.62a.76.75 1.4 0 0 .83.87l3.23-.38q1.04-.12 1.02-1.16l-.17-7.95q-.03-1.25-1.27-1.12l-7.99.81q-1.17.12-1.18 1.29l-.04 7.93q-.01 1.19 1.19 1.07l2.67-.26q.72-.07.75-.8.07-1.75.07-3.76-.01-1.88.75-.16m-6.37 3.67-.04-8.12q0-.7-.7-.6l-6.04.83q-.72.1-.23.64l6.69 7.37q.32.35.32-.12m186.8 1.91a.29.29 0 0 1-.43.11l-9.26-6.82a.29.29 0 0 0-.46.3l.77 3.57a.3.3 0 0 0 .11.18l6.35 4.6a.3.3 0 0 0 .2.05l9.05-.93a.3.3 0 0 0 .18-.09l4.17-4.68a.29.29 0 0 0 .07-.25l-1.19-5.68a.29.29 0 0 0-.31-.22l-17.83 1.73a.29.29 0 0 0-.15.52l8.97 6.55a.29.29 0 0 1 .09.36zm-187.02.56a.73.73 0 0 0-.19-.49l-8.48-9.37a.73.73 0 0 0-.62-.23l-12.09 1.17a.73.73 0 0 0-.66.72v15.58a.73.73 0 0 0 .19.49l5.35 5.97a.73.73 0 0 0 .47.24l9.21.93a.73.73 0 0 0 .62-.23l5.97-6.6a.73.73 0 0 0 .19-.49zm-28.58 1.92a.3.3 0 0 1-.08-.21l.05-11.22a.31.31 0 0 0-.54-.21l-4.43 4.91a.3.3 0 0 0-.08.21l.01 16.62a.3.3 0 0 0 .08.21l10.03 11.16a.31.31 0 0 0 .54-.21l-.08-15.02a.3.3 0 0 0-.08-.21zm205.51-4.87c-.66-1.37-.94-3.19-1.12-4.61a.83.82 81.8 0 0-.96-.72q-2.02.35-3.86.28-1.89-.07-.37 1.06l6.11 4.52q.42.3.31-.2-.04-.17-.11-.33m-159.92 1.93 2.85 3.11q.29.32.57 0l2.6-2.95q.37-.42.38-.98l.03-5.02q0-.98-.58-.19-2.79 3.78-5.79 5.63-.27.17-.06.4m145.73-5.49q.28-.4-.2-.32-.57.09-.72.74-.1.44.29.19.39-.26.63-.61m5.167 1.602a1.13.43 28.1 0 0-.795-.911 1.13.43 28.1 0 0-1.199-.153 1.13.43 28.1 0 0 .795.911 1.13.43 28.1 0 0 1.199.153m11.883 6.768a.1.1 0 0 0 .05-.18q-5.09-3.84-9.95-7.3-.72-.51-.38.31c.62 1.55.29 2.37 1.83 3.6q2.38 1.89 5.08 3.76.22.15.49.13 1.49-.13 2.88-.32m-153.46 4.11q-.61.66.29.58l13.38-1.28q.74-.07 1.25-.62 3.9-4.25 8.2-9.05.38-.43.4-.54.15-.94-.87-.84-6.64.59-12.61 1.23-.53.06-.88.45zm141.07-3.92c-.11-3.05.93-5.75-2.76-7.16q-.47-.19-.95-.03c-1.69.56-3.35.84-4.62 2.21q-7.19 7.86-14.28 15.75-.43.49-.33 1.12l.4 2.41a.76.76 0 0 0 .83.63l10.06-1.22q.55-.07.93-.48 4.67-5.19 9.01-10.03 1.75-1.96 1.71-3.2m-246.52-5.67a.66.66 0 0 0-.6.66l-.01 26.92a.66.66 0 0 0 .6.66l3.1.27a.66.66 0 0 0 .55-.22l6.3-7.02a.66.66 0 0 0 .17-.44l-.04-16.25a.66.66 0 0 0-.17-.44l-4.02-4.44a.66.66 0 0 0-.55-.22zm236.6.46-4.22 1.28a1.55 1.52-82.5 0 0-.89.7l-6.76 11.47a.05.05 0 0 0 .08.06l11.97-13.22q.41-.47-.18-.29m-143.72.43q.21-.42-.27-.49a.34.34 0 0 0-.3.56q.35.38.57-.07m178.67 4.94 5.35 3.83a1.22 1.21 12 0 0 1.9-1.23l-1.48-7.21q-.14-.72-.64-.17l-3.02 3.35q-.36.41-.88.56l-1.14.32q-.61.18-.09.55m-11.82-1.954a1.96.21 38.7 0 0-1.399-1.39 1.96.21 38.7 0 0-1.66-1.061 1.96.21 38.7 0 0 1.398 1.389 1.96.21 38.7 0 0 1.66 1.061m-11.86 2.794a2.43 2.42 67.3 0 1-.61 1.5l-10.32 11.4q-.4.44.19.37l3.41-.41a1.46 1.42-71.6 0 0 .91-.47l8.19-9.01a1.35 1.34-30.5 0 0 .32-1.23q-.81-3.35-1.18-6.53-.04-.31-.35-.35-.36-.04-.37.32zm-155.41.36.89-.1q.53-.05.42-.57l-.77-3.64a.52.51 77.7 0 0-.61-.4q-.2.04-.36.2-.13.13-.13.38.01 1.75-.02 3.59-.01.6.58.54m-6.23-4.04a.32.32 0 0 0-.28.32l-.05 8.25a.32.32 0 0 0 .55.21l4.38-4.87a.32.32 0 0 0 .08-.21l-.02-3.85a.32.32 0 0 0-.35-.31zm8.5 3.3a.42.42 0 0 0 .43.33l2.3-.09a.42.42 0 0 0 .29-.71l-2.95-3.22a.42.42 0 0 0-.72.37zm159.81-.11-4.1-2.95q-.72-.53-.55.35l.81 4.13q.19.97.83.22 1.26-1.49 2.92-1.49.46.01.09-.26m-174.08 11.8q-.01.38.25.1l3.8-4.24q.43-.47.43-1.11l-.03-9.02a.56.56 0 0 0-.62-.56l-3.46.38q-.31.04-.31.35zm21.03-11.81q1.02-.39 1.13-1.51.08-.77-.51-.28-.62.52-1.08 1.23-.63.98.46.56m88.24 12.98.28.28q.32.32.75.17l1.86-.65q.58-.2.54-.82c-.15-2.14-.59-3.99-2.48-5.35q-5.66-4.07-11.24-8.23-.71-.53-1.56-.26l-14.31 4.47a1.9 1.89-81.8 0 0-1.05.79q-1.72 2.6-1.09 6.23.11.58.59.94l12.42 9.11q.39.29.88.24l13.23-1.33q.53-.05.51-.58l-.05-2.63q-.01-.39-.39-.28l-5.41 1.69a.46.46 0 0 1-.6-.42l-.01-.25q-.01-.16.14-.21l5.54-1.7q.54-.16.77-.68l.2-.45q.18-.39.48-.08m71.51-14.23q.34.12.19-.21-.16-.34-.57-.4-.74-.1-.14.34.2.15.52.27m4.96 2.36 4.05 2.9a.72.71-29.1 0 0 .47.13l3.93-.33a.11.1 60.6 0 0 .05-.19l-3.81-2.86a2.87 2.86 61.5 0 0-1.91-.57l-2.56.18q-1.15.08-.22.74m-162.21-.48a.31.31 0 0 0-.27.25l-.44 2.57a.31.31 0 0 0 .53.27l2.63-2.8a.31.31 0 0 0-.26-.52zm-1.71 2.42q.37.22.4-.21.14-1.88-1.52-1.95-.67-.03-.37.57.5 1 1.49 1.59m161.45-1.99q.09.06.16.06.14.01.06-.09-.1-.13-.2-.14-.34-.03-.02.17m-12.28 4.32q1.81 8.16 3.46 16.63c.35 1.84 2.32 2.92 3.78 3.84q.58.37.93-.22l4.51-7.68a2.45 2.42-36.1 0 0 .28-1.72l-2.93-14.31q-.15-.71-.88-.74-2.92-.14-6.35.6c-1.63.35-3.21 1.78-2.8 3.6m13.39-4.12q-.06 0-.13.02-.3.06-.14.33.17.29.49.41a.37.36-60 0 0 .42-.12q.2-.26.22-.48.02-.33-.29-.26l-.32.08q-.06.02-.25.02m-167.193.764a.99.45 12.5 0 0-.87-.653.99.45 12.5 0 0-1.064.225.99.45 12.5 0 0 .87.653.99.45 12.5 0 0 1.064-.225m.573.336q-.84.54-.04 1.14l3.51 2.62q.85.63.66-.41c-.28-1.55-1.39-2.47-2.34-3.65q-.46-.57-1.07-.17zm-7.36 8.02q-.02-1.9 4.31-5.9 1.49-1.37-.33-2.26l-.56-.27q-1.87-.91-3.24.65l-9.8 11.16q-.36.41.01.81l9.13 10.12q.55.62.55-.21 0-6.52-.07-14.1m175.14 6.81a.3.3 0 0 1-.04.22l-5.5 9.38a.31.31 0 0 0 .08.41l6.9 5.11a.31.31 0 0 0 .49-.31l-1.44-6.49a.3.3 0 0 1 .03-.23l8.45-14.36a.31.31 0 0 0-.09-.41l-11.52-8.47a.31.31 0 0 0-.48.31zm5.6-12.11c-2.08.17-4-1.73-5.54-2.95q-.22-.17-.35.07l-.13.24q-.02.05.02.07l9.63 6.97q.43.32.97.27l5.31-.49q.89-.09.16-.61l-5.21-3.73q-.56-.4-1.23-.29-1.79.3-3.63.45M241.8 150.38q3.04-5.36 6.03-10.33.36-.61.14-1.27-.18-.51-.54-.1l-9.45 10.51a1.54 1.52-24.1 0 0-.4 1.03l-.01 5.58q0 .63.47.21 1.91-1.7 2.69-3.49.5-1.13 1.07-2.14m-51.6-7.68a.5.5 0 0 0-.2-.4l-4.67-3.41a.5.5 0 0 0-.66.06l-4.64 5.08a.5.5 0 0 0-.13.33l-.01 16.31a.5.5 0 0 0 .13.33l3.15 3.54a.5.5 0 0 0 .74 0l6.21-6.95a.5.5 0 0 0 .13-.33zm183.539 1.173a4.33.67 34.5 0 0-3.19-3.005 4.33.67 34.5 0 0-3.947-1.9 4.33.67 34.5 0 0 3.189 3.004 4.33.67 34.5 0 0 3.947 1.9m-38.779 8.757a.21.21 0 0 1 .23.19l.04.53a.21.21 0 0 1-.18.22l-3.8.42a.21.21 0 0 0-.18.25l1.41 6.82a.21.21 0 0 0 .27.16l9.27-2.98a.21.21 0 0 0 .14-.24l-3.68-17.87a.21.21 0 0 0-.36-.1l-8.15 8.95a.21.21 0 0 0-.05.2l.98 3.65a.21.21 0 0 0 .23.15zm-185.14-5.99-4.25-4.74q-.47-.52-.47.18l-.07 6.18q0 .5.34.88l5.76 6.4q.35.39.88.45 1.47.17 3.17-.23.68-.16.53-.84c-.54-2.48 2.14-4.64 3.71-6.24q.5-.51-.2-.58l-8.17-.84q-.73-.07-1.23-.62m16.29-4.01-3.77 4.28q-.42.47.21.53l3.92.4q.62.07.62-.56l-.01-4.29q0-1.46-.97-.36m81.15 1.02-3.25 5.46q-.27.45.11.09 1.95-1.89 3.61-4.04.21-.26.27-.6.06-.36.05-.71-.05-1.45-.79-.2m37.21 1.82-2.03-1.49q-.72-.53-.51.34l.46 1.93q.15.64.78.45l1.15-.36q.95-.29.15-.87m-38.76 23.11a.25.25 0 0 1-.24.3l-.83.02a.25.25 0 0 1-.25-.2l-2.22-10.65a.25.25 0 0 0-.27-.2l-4.05.39a.25.25 0 0 0-.22.24l-.09 7.95a.25.25 0 0 0 .07.17l11.19 12.38a.25.25 0 0 0 .21.08l16.56-1.69a.25.25 0 0 0 .16-.08l11.06-12.26a.25.25 0 0 0 .06-.16l.27-10.33a.25.25 0 0 0-.27-.25l-14.27 1.39a.25.25 0 0 1-.18-.05l-13.45-9.86a.25.25 0 0 0-.33.04l-5.98 6.57a.25.25 0 0 0-.06.21l.57 3.84a.25.25 0 0 0 .27.22l10.93-1.09a.25.25 0 0 1 .18.05l13.78 10.08a.25.25 0 0 1 .05.35l-.29.41a.25.25 0 0 1-.35.05l-13.46-9.89a.25.25 0 0 0-.18-.05l-10.32 1.08a.25.25 0 0 0-.22.3zm23.71 13.28q3.68.84 7.64-.09.3-.07.45.21l.13.26q.13.25-.14.34-2.03.66-3.58.55-1.71-.13-.15.59l10.21 4.7q.48.22 1 .1 2.42-.56 3.99-2.43.29-.36.2-.81l-3.74-17.73a1.13 1.1 55.1 0 1 .13-.8l7.92-13.46q.49-.83-.29-1.4l-5.97-4.37q-.73-.54-1.36.12l-2.16 2.3q-.41.44-.29 1.04l1.43 6.96a3.04 2.99 54.7 0 1-.35 2.15l-8.02 13.66q-.32.55-.91.31l-.31-.12a.31.31 0 0 1-.15-.44q3.54-6.15 7.43-12.55c1.58-2.59.49-5.91-.29-8.56q-.2-.67-.61-.1-1.04 1.46-2.81 1.8-.71.14-.73.86l-.19 9.52a2.32 2.29-23.8 0 1-.6 1.52l-10.47 11.59a2.57 2.53-71.6 0 1-1.63.83l-15.52 1.58q-.52.05-.52.57l.01 14.2q0 .87.58.22l9.83-10.89a1.4 1.38 16.7 0 1 .85-.45q3.58-.55 6.97-.76.97-.06 1.51-.83.19-.26.51-.19m13.638-33.108a1 .39 133.8 0 0 .974-.452 1 .39 133.8 0 0 .41-.992 1 .39 133.8 0 0-.974.452 1 .39 133.8 0 0-.41.992m25.802.718q.45-.07.89-.13 1.44-.19.69-1.69a.54.54 0 0 0-.89-.12l-1.09 1.22q-.82.92.4.72m-146.95-1.1q-.76-.08-1.29.47c-1.41 1.45-4.58 4.1-3.91 6.33q.14.49.65.44l3.6-.36q.59-.06.98-.5l4.77-5.27q.51-.57-.25-.65zm128.84.18c1.41 1.06 3.83 3.16 5.59 2.7q.73-.2.05-.52l-5.4-2.57q-.02-.01-.03 0l-.22.26q-.06.07.01.13m-12.28.67a.61.6-8.1 0 0-.43.56l-.05 2.67a.78.78 0 0 0 1.25.64c1.23-.9 3.36-2.46 2.36-4.24q-.27-.47-.79-.32zm36.13 1.73a.33.33 0 0 0-.15.6l3.81 2.64a.33.33 0 0 0 .22.06l10.55-1.02a.33.33 0 0 0 .3-.37l-.44-3.03a.33.33 0 0 0-.36-.28zm-145.62-.5a.32.32 0 0 0-.56.21l.07 15.39a.32.32 0 0 0 .13.26l8 5.87a.32.32 0 0 0 .42-.05l5.41-6.04a.32.32 0 0 0 0-.42zm-19.14 5.96a.32.32 0 0 0 .21-.52l-4.46-5.1a.32.32 0 0 0-.56.21l.06 5.48a.32.32 0 0 0 .34.32zm12.29-.42a.3.3 0 0 1-.2.1l-4.99.58a.31.31 0 0 0-.27.31l.32 13.3a.3.3 0 0 0 .08.2l2.91 3.23a.31.31 0 0 0 .46 0l6.55-7.25a.3.3 0 0 0 .08-.21l.05-14.97a.31.31 0 0 0-.54-.21zm145.5 6.87a2.1 1.91-40.5 0 1-.31 2.44q-.13.14-.01.3h.01v.01q.14.11.25-.02 2.42-2.83 4.92-5.35.44-.45.31-1.06l-1.44-6.88a.84.84 0 0 0-.92-.66l-2.94.32q-.5.06-.52.56c-.08 2.65-.5 8.53.65 10.34m-4.06-9.55 1.67 4.15q.3.74.37-.06.21-2.35.1-4.84-.02-.54-.56-.58-1.18-.09-2.24.19-.57.15-.24.64.15.24.47.23a.45.45 0 0 1 .43.27m9.67-1.2a.35.35 0 0 0-.55.36l1.24 5.34a.35.35 0 0 0 .6.15l2.31-2.62a.35.35 0 0 0-.05-.51zm-17.79 27.82q3.47-.66 6.97-.84.45-.02.74-.37 2.45-2.85 2.47-5.29.02-4.56.07-9.14.03-2.92-.87-5.34-1.05-2.79-2.25-5.14a1.79 1.78 75.8 0 0-1.62-.97l-5.2.11q-.55.01-.83.48l-7.75 13.18a2.24 2.2 54.9 0 0-.26 1.57l3.22 15.56a.35.34-27.1 0 0 .57.18c1.52-1.35 2.68-3.6 4.74-3.99m31.57-17.31q0 .38.37.27l3.5-1.09a.46.46 0 0 0 .31-.54l-1.38-6.58q-.12-.53-.66-.48l-8.91.9q-.78.08-.14.53 2.94 2.09 5.59 4.12 1.33 1.02 1.32 2.87m-85.58-8.27a.33.33 0 0 0-.58-.15l-1.87 2.34a.33.33 0 0 0 .27.54l2.3-.08a.33.33 0 0 0 .31-.39zm72.86 7.48q-.53.06-1.04-.14-.6-.25-1.03.24l-2.95 3.32q-.46.52-.17 1.15l.68 1.51q.27.59.89.4l14.08-4.43a1.61 1.61 0 0 0 .48-2.82l-6.67-5a.8.8 0 0 0-1.06.09l-2.77 2.96q-.29.31-.35.73-.11.67.25 1.26a.48.47 70.4 0 1-.34.73m-158.95-1.68q.37.4.36-.15l-.07-2.54q-.01-.55-.57-.6-.91-.08-1.85.21-.62.18-.18.65zm.3 18.57a.33.33 0 0 0 .09-.23l-.38-16.6a.33.33 0 0 0-.08-.21l-3.81-4.3a.33.33 0 0 0-.28-.11l-5.82.52a.33.33 0 0 0-.3.33l-.04 31.62a.33.33 0 0 0 .58.22zM87.2 160.88a.29.29 0 0 0 .48.29l2.46-2.61q.44-.47-.2-.55l-1.9-.23q-.84-.1-.69.73.22 1.23-.15 2.37m.59 1.75a.31.31 0 0 0 0 .42l21.33 23.64a.31.31 0 0 0 .54-.21l-.09-15a.3.3 0 0 0-.08-.21L98.35 158.9a.3.3 0 0 0-.2-.1l-6.23-.6a.31.31 0 0 0-.26.11zm103.39 9.45-.48-.01q-.12 0-.12-.12l-.02-4.24a.22.22 0 0 0-.37-.16l-1.82 1.79q-.21.21-.09.48.8 1.82 2.76 2.83.78.4 1.38-.25l3.29-3.61a1.56 1.56 0 0 0 .42-1.09l-.04-5.59q-.01-.43-.36-.68l-3.96-2.8a.18.17 18 0 0-.28.14l.02 12.99q0 .33-.33.32m-.82-6.34a.3.3 0 0 0 .07-.19l.17-6.15a.3.3 0 0 0-.52-.21l-5.69 6.26a.3.3 0 0 0 0 .4l2.74 3a.3.3 0 0 0 .44 0zm46.31 1.29a.32.32 0 0 1-.08-.21l-.01-6.66a.32.32 0 0 0-.56-.21l-9.87 10.95a.32.32 0 0 0-.08.28l3.31 16.01a.32.32 0 0 0 .12.19l13.49 9.88a.32.32 0 0 0 .22.06l4.66-.45a.32.32 0 0 0 .29-.32v-16.66a.32.32 0 0 0-.08-.21zm107.37-.57 2.1-3.61q.3-.51-.17-.87l-2.7-2.1a1.38 1.37-34.9 0 0-1.26-.22l-7.81 2.47a1.94 1.94 0 0 0-.56 3.41l13.03 9.57a.89.88-29.6 0 0 .63.17l9.16-.96q.79-.08.64-.86c-.42-2.15-.57-3.85-2.59-5.34q-3.19-2.36-6.53-4.69-.46-.32-.75.16l-1.88 3.18a.69.68 22.5 0 1-.76.31l-.33-.09q-.46-.12-.22-.53m-147.72 3.12q-1.13 1.37-2.49 2.69-.91.88.35.85c2.56-.07 5.4.19 7.37-1.84q1.38-1.44 2.53-2.94.36-.46-.11-.8l-6.45-4.78a.24.23 19.4 0 0-.38.18c-.04 2.08.42 5.13-.82 6.64m133.83 8.01a.25.25 0 0 1-.26.3l-.8-.03a.25.25 0 0 1-.24-.2l-2.5-11.92a.25.25 0 0 0-.46-.08l-7.8 13.14a.25.25 0 0 0-.03.17l3.18 15.51a.25.25 0 0 0 .28.19l15.92-1.87a.25.25 0 0 0 .15-.08l11.02-12.19a.25.25 0 0 1 .36-.01l.36.34a.25.25 0 0 1 .02.35l-10.17 11.23a.25.25 0 0 0 .21.42l7.05-.75a.25.25 0 0 1 .17.05l6.41 4.57a.25.25 0 0 0 .36-.08l6.35-10.82a.25.25 0 0 0 .03-.18l-2.18-9.85a.25.25 0 0 0-.27-.2l-10.6 1.04a.25.25 0 0 1-.18-.05l-14.17-10.37a.25.25 0 0 1-.1-.15l-.61-2.89a.25.25 0 0 0-.33-.18l-3.67 1.22a.25.25 0 0 0-.17.29zm-18.81 2.02-3.72.33q-.65.06-.65.7l-.01 3.5q0 .51.42.82l12.17 8.92q.63.46.47-.31l-2.77-13.61a3.34 3.3 54.7 0 1 .39-2.36l7.17-12.13q.39-.67-.35-.44l-13.53 4.22a1.64 1.63 6.3 0 0-.93.74c-1.59 2.71-3.48 4.7-2.88 8.08q.09.53.62.46l3.69-.47q.46-.06.52.4l.04.36q.08.73-.65.79m-133.39-7.01a.43.43 0 0 0 .07.64l3.09 2.22a.43.43 0 0 0 .57-.06l4.49-5.01a.43.43 0 0 0 0-.58l-2.53-2.82a.43.43 0 0 0-.64 0zm129.68-1.11c.78-1.53 2.07-2.55.76-4.32a.67.67 0 0 0-1.19.27q-.42 2.05-.17 3.95.13 1.03.6.1m-139.68 2.95a.29.29 0 0 1 .43-.01l3.09 3.4a.29.29 0 0 0 .43 0l4.04-4.51a.29.29 0 0 0-.05-.43l-7.79-5.78a.29.29 0 0 0-.39.04l-6.64 7.39a.29.29 0 0 0 .01.38l6.53 7.21a.29.29 0 0 0 .43-.01l2.55-2.92a.29.29 0 0 0 0-.38l-3.12-3.45a.29.29 0 0 1 0-.38zm34.41-2.71a.34.34 0 0 0 .27.58l5.14-.43a.34.34 0 0 0 .22-.1l3.59-3.7a.34.34 0 0 0-.27-.57l-5.16.44a.34.34 0 0 0-.22.1zm159.12 2.22a.34.34 0 0 0 .18-.61l-3.33-2.4a.34.34 0 0 0-.53.36l.67 2.58a.34.34 0 0 0 .35.25zm-174.55-2.91-3.98 4.42q-.57.63.28.53l6.45-.79a.64.63 66 0 0 .4-1.05l-2.76-3.11a.27.26-44.3 0 0-.39 0m33.4 40.77.02 16.67a1.48 1.47 66.3 0 1-.38.99l-5 5.5q-.43.47.21.41l5.77-.59a2.59 2.55 17.8 0 0 1.65-.83l10.76-11.88q.12-.14.25-.02l.27.25a.45.45 0 0 1 .03.64l-10.75 11.92a2.86 2.86 0 0 1-1.88.92q-2.66.2-5.7.53c-2.81.3-3.69 2.17-5.43 3.88q-.71.7.27.6l13.86-1.41a1.92 1.89-71.5 0 0 1.24-.63L236.17 227a1.56 1.53 66.4 0 0 .4-1.04l-.02-6.43a2.65 2.63 66 0 1 .67-1.76l10.41-11.5q.41-.47.41-1.09v-6.73q0-.73-.71-.59-2.17.42-4.19.38-.57-.01-1.03-.35l-12.97-9.51a2.05 2.02-78.1 0 1-.79-1.23l-3.22-15.62a.46.45 80.7 0 0-.49-.36l-23.49 2.65q-.51.05-.87.42c-1.76 1.81-5.8 1.53-8.15 1.81a.77.77 0 0 0-.67.76q0 15.21.05 29.49 0 .2-.09.37-.1.19-.21.39-.28.5.29.49.49 0 .88-.43 4.72-5.25 9.07-10.06a3.65 3.64 18.3 0 1 2.33-1.17l14.55-1.48a1.15 1.14 86.9 0 0 1.02-1.14v-16.03a.36.35-4.8 0 1 .3-.35l.29-.04q.4-.06.4.34v16.31a2.57 2.54-24.4 0 1-.65 1.7l-10.51 11.54a2.78 2.75 18.1 0 1-1.8.9l-15.24 1.54a.42.41-3.1 0 0-.38.41l-.03 16.7q0 .31.25.49l4.04 2.9a.07.06 16.5 0 0 .1-.05l.02-8.81a.36.35-11 0 1 .23-.33l.39-.14a.26.26 0 0 1 .35.24v9.3q.01.6.49.96l7.09 5.22q.45.33 1.01.27l6.71-.67q.61-.06 1.01-.51l5.55-6.08q.37-.41.37-.96l.02-16.39q0-.26.26-.26l.35-.01q.36-.01.36.35m-63.66-39.71-.01 4.93q0 .9.6.23l1.79-1.99q.49-.55 0-1.1l-1.97-2.22q-.4-.47-.41.15m22.22 8.77c.15-1.85 0-2.63 1.44-4.02a.53.53 0 0 0-.06-.81l-2.84-2q-.47-.34-.86.09l-3.81 4.21q-.43.48.01.94l2.01 2.13q.44.46 1.07.39l2.4-.26q.6-.07.64-.67m13.86-6.48q.74-.24.81-.25.11-.02.01-.01h-.01q-.51-.11-.83.21a.03.02-73.2 0 0 .02.05m5.679.236a1.61.25 2 0 0-1.6-.306 1.61.25 2 0 0-1.618.194 1.61.25 2 0 0 1.6.306 1.61.25 2 0 0 1.618-.194m165.521.444a.95.95 0 0 0-.65-.17l-3.64.36a.95.95 0 0 0-.48 1.7l7.6 5.74a.95.95 0 0 0 1.4-.3l1.31-2.33a.95.95 0 0 0-.27-1.24zm-200.16 37.51a.33.33 0 0 0 .49 0l2.94-3.41a.33.33 0 0 0 .08-.21l.01-25.5a.33.33 0 0 0-.08-.22l-6.74-7.5a.33.33 0 0 0-.5.01l-14.39 16.23a.33.33 0 0 0 0 .44zm17.18-31.32 3.11-.31q.69-.07 1.16-.59l3.19-3.52q.48-.53-.23-.45l-5.83.63q-1.56.17-2.16 1.63-.27.65-.4 1.37-.24 1.38 1.16 1.24m-.95 14.52a.35.35 0 0 0 .09.23l6.88 7.59a.35.35 0 0 0 .53-.01l2.91-3.36a.35.35 0 0 0 .08-.23l.06-23.08a.35.35 0 0 0-.61-.24l-4.66 5.03a.35.35 0 0 1-.22.11l-4.88.53a.35.35 0 0 0-.32.35zm125.58-17.84q-.62-.17-.35.51.21.51.5.04.26-.43-.15-.55m56.1 15.31 5.08-8.61q.32-.54-.18-.91l-6.68-4.93q-.96-.7-.63.44.94 3.25 1.32 6.36.07.62-.25 1.16l-6.16 10.47a.41.4-58 0 0 .12.54q2.99 2.03 5.53 4.02.99.77 2.61.37.46-.11.37-.58l-1.39-6.76q-.17-.84.26-1.57m-192.04-10.78 3.14-.36q.76-.09.22-.64l-1.26-1.26q-.41-.42-.79.04l-1.53 1.82q-.39.47.22.4m135.71 2.87a.87.87 0 0 0 .23-.56l.07-3.97a.87.87 0 0 0-1.61-.49l-5.48 8.65a.87.87 0 0 0 .17 1.13l.69.59a.87.87 0 0 0 1.21-.09zm-13.31-.17c.55.45 1.23.84 1.96.58q2.39-.86 4.98-1.58c1.9-.53 1.93-1.65 2.95-2.93q.52-.66-.32-.61l-5.97.4a1.17 1.17 0 0 0-.8.39l-2.84 3.14a.43.43 0 0 0 .04.61m79.18-4.14q.36-.01.33-.31-.04-.5-.42-.16-1.22 1.08-2.14 2.87-.32.62.24 1.03l1.73 1.28q.74.55.55-.35l-.77-3.73a.52.52 0 0 1 .48-.63m.95-.13a.32.32 0 0 0-.5.32l2.6 12.89a.32.32 0 0 0 .55.15l6.02-6.6a.32.32 0 0 0-.05-.47zm-195.07 1.73q-.34-.14-.59.06-.34.25-.06.57l1.92 2.26q.54.63.53-.2l-.03-2.31q-.01-.59-.6-.56-.3.02-.57.16a.72.7-46 0 1-.6.02m-8.91 33.5a.06.05-25.7 0 0 .1.03l10.16-11.24a1.41 1.4 66.1 0 0 .36-.94l-.16-15.51q-.01-.7-.47-1.23l-3.41-3.84a1.26 1.26 0 0 0-1.08-.42l-4.59.51q-.8.09-.8.89zm115.28-26.81-11.15-5.15a6.02 5.98-35.5 0 0-3.17-.52l-8.15.84q-.49.05-.82.42l-10.07 11.16q-.59.65.28.56l8.84-.94q.36-.04.67.16l.25.17q.35.23.75.11l14.3-4.52a3.53 3.48 47.8 0 1 2.48.14l4.21 1.88q.45.2.71-.23 1.1-1.83 2.67-3.39.86-.86-.34-.69-.06 0-.38.09-.56.15-1.08-.09m16.11-3.71a.33.33 0 0 0-.38-.5l-4.53 1.43a.33.33 0 0 0-.09.58l2.51 1.74a.33.33 0 0 0 .46-.1zm70.07 14.46c1.16-1.45 2.46-2.7 3.59-4.18a1.15 1.13-32.3 0 0 .21-.91l-1.37-6.74q-.12-.61-.63-.97l-2.78-2.01q-.51-.36-.83.18l-4.88 8.24q-.34.56-.2 1.21l1.36 6.45q.1.47.57.52 3.25.33 4.96-1.79m-79.36-13.74q-.18.12-.05.3.17.26.52.25a.36.36 0 0 0 .26-.6q-.26-.3-.73.05m13.2 8.5a.29.29 0 0 1-.41.08l-2.84-2.02a.29.29 0 0 0-.38.04l-6.6 7.35a.29.29 0 0 0-.07.25l1.74 8.23a.29.29 0 0 0 .31.23l21.98-2.26a.3.3 0 0 0 .18-.09l6.77-7.47a.29.29 0 0 0-.04-.43l-17.62-12.77a.29.29 0 0 0-.38.04l-4.93 5.45a.29.29 0 0 0 .04.42l2.57 2a.29.29 0 0 1 .06.39zm-11.54-7.5c-1.67.81-2.85.63-4.27 2.12q-1.92 2-3.74 4.05a.78.78 0 0 0 .27 1.22l6.78 3.08q1.03.47 1.6-.51l3.46-5.88q.69-1.17-.43-1.95l-2.93-2.07q-.35-.24-.74-.06m1.34 11.26a.15.15 0 0 0 .2-.03l5.61-6.3a.15.15 0 0 0-.03-.23l-1.48-1a.15.15 0 0 0-.21.05l-4.23 7.24a.15.15 0 0 0 .04.2zm-153.11-6.38q-.52-.07-.52.46l.01 9.58a1.94 1.88 24.9 0 0 .49 1.27l10.07 11.13q.48.54 1.19.67 3.57.68 8.47.87c1.38.05 2.42-1.25 2.98-2.33q.26-.52-.13-.94l-17.75-19.66q-.4-.44-1-.52zm110.74 19.56a.25.25 0 0 1-.1-.35l8.47-14.36a.25.25 0 0 0-.25-.38l-9.51 1.04a.25.25 0 0 0-.22.24l-.01 15.95a.25.25 0 0 0 .1.2l13.33 9.8a.25.25 0 0 0 .18.05l8.05-.87a.25.25 0 0 0 .15-.08l11.2-12.35a.25.25 0 0 0 .06-.17l.02-15.31a.25.25 0 0 0-.15-.23l-5.68-2.63a.25.25 0 0 0-.18-.01l-16.02 5.02a.25.25 0 0 0-.14.11l-8.52 14.47a.25.25 0 0 1-.33.09zm100.33-11.46.99-1.81q.4-.74-.27-1.23l-5.37-3.92q-.4-.3-.89-.24l-15.88 1.91q-.57.07-.96.5l-2.63 2.84a.45.44 40.1 0 0 .06.66l7.54 5.55q.43.32.97.26 11.68-1.38 23.48-2.21.92-.07.17-.61l-4.62-3.35a.53.53 0 0 0-.83.33q-.27 1.27-1.28 1.81-1.03.53-.48-.49m-23.77-4.69a.31.31 0 0 0-.25-.52l-4.83.39a.31.31 0 0 0-.16.55l2.58 1.93a.31.31 0 0 0 .41-.03zm-109.93.42a.33.33 0 0 0-.28-.55l-14.15 1.42a.33.33 0 0 0-.22.1l-9.59 10.47a.33.33 0 0 0 .28.55l14.14-1.41a.33.33 0 0 0 .22-.1zm67.06 12.29 6.87-7.6a1.07 1.07 0 0 0-.34-1.68l-6.68-3.15a.43.42 12.8 0 0-.61.38v11.76q0 1.13.76.29m89.43-10.53a.3.3 0 0 0-.52-.14l-4.1 4.57a.3.3 0 0 0-.07.26l2.36 11.63a.3.3 0 0 0 .39.22l4.77-1.45a.3.3 0 0 0 .2-.35zm-194.14 7.38a.33.33 0 0 1-.08.21l-10.95 12.12a.33.33 0 0 0 0 .44l9.45 10.55a.33.33 0 0 0 .58-.22l-.02-15.06a.33.33 0 0 1 .09-.22l7.34-8.15a.33.33 0 0 0 0-.44l-5.74-6.45a.33.33 0 0 0-.58.22zm146.35 1.42q-1.1 1.94-2.81 3.46-.51.44.04.84l4.32 3.18q.59.43.96-.2l4.53-7.7q.32-.55-.19-.93l-7.57-5.57a.39.38 38.6 0 0-.52.05l-6.2 6.89a.66.65 38.9 0 0 .11.97l2.5 1.79q.5.36.92-.09l3.05-3.25a.38.38 0 0 1 .49-.06l.26.17a.35.34 31.9 0 1 .11.45m-34.07-4.33a.34.34 0 0 0-.59-.16l-6.66 7.37a.34.34 0 0 0 .29.57l7.99-.93a.34.34 0 0 0 .3-.4zm-101.6 4.41q-.08-1.94-.12-4.04-.01-.88-.6-.22l-1.45 1.63q-.5.57 0 1.14l1.8 2.02q.48.53.51-.18.01-.21-.14-.35m177.05-4.08-2.65.28a.49.49 0 0 0-.43.58l1.45 7.04q.06.28.28.43l4.27 3a.09.09 0 0 0 .14-.09l-2.25-10.66q-.14-.66-.81-.58m-13.99 1.45q-.93.1-.16.63 4.75 3.26 9.57 6.95c1.51 1.16 3.06 1.72 3.15 3.86q.03.67.68.49l2.19-.61q.78-.21.14-.7c-1.72-1.3-4.52-2.67-4.83-5.05q-.4-3.09-1.24-5.96-.17-.58-.77-.52zm-24.14 10.58a.62.62 0 0 0 .17.82l15.05 11.03a3.69 3.65 55.3 0 0 3.15.59l8.07-2.2a2.43 2.42-82.4 0 0 1.45-1.11l3.12-5.28a1.76 1.75-83.2 0 1 1.02-.81l2.81-.87a1.51 1.51 0 0 0 .45-2.66l-12.5-9.2a2.17 2.16 60.5 0 0-1.5-.42l-15.76 1.56q-.56.06-.85.55zm-141.93-8.93a.44.44 0 0 0-.67-.01l-6.93 7.67a.44.44 0 0 0-.11.3l.02 16.24a.44.44 0 0 0 .11.3l3.24 3.6a.44.44 0 0 0 .66 0l6.2-6.87a.44.44 0 0 0 .11-.3l.03-17.64a.44.44 0 0 0-.11-.28zm60.25 8.72a.32.32 0 0 0 .08-.21l.1-6.05a.32.32 0 0 0-.56-.22l-9.82 10.91a.32.32 0 0 0-.08.21l-.13 6.09a.32.32 0 0 0 .56.22zm49.17 5.38a.35.35 0 0 0 .33.29c4.88.2 9.93-1.1 14.88-1.19 2.23-.04 4.34-3.02 5.83-4.86q.34-.42.23-.94l-.98-4.77q-.12-.58-.71-.52l-20.83 2.11q-.55.06-.45.6zm22.14-7.33a.19.19 0 0 0 .33.08l1.3-1.49q.46-.53-.09-.96l-1.56-1.22q-.77-.6-.59.36zm-30.33 1.27a.27.26 34.6 0 0 .07.36l4.58 3.41q.45.34.8-.11c.64-.82.94-1.65.62-2.7q-.66-2.15-1.07-4.3a.58.57-17 0 0-.8-.42q-2.5 1.11-4.2 3.76m-.66-.93c.56-.63 1.22-1.2 1.77-1.8q.52-.58-.25-.49l-4.17.49q-.88.1-.15.6l1.93 1.31q.48.33.87-.11m-120.89-1.76q0-.35-.24-.09l-1.9 2.05q-.47.51-.01 1.02l1.7 1.9q.46.52.46-.18zm157.99 10.49c-.33-2.11 1.42-3.9 2.33-5.67q.27-.54-.21-.89l-4.53-3.34q-.49-.36-.89.09l-2.03 2.32a.98.96 60.3 0 0-.22.84l1.6 7.92a2.74 2.71-77.8 0 0 1.05 1.65l3.66 2.73q.54.39.37-.25-.71-2.75-1.13-5.4m-47-4.41a1 1 0 0 0-.26.68v3.51a1.01 1.01 0 0 0 1.75.69l6.46-6.92a1.01 1.01 0 0 0-.16-1.52l-2.09-1.46a1.01 1.01 0 0 0-1.33.16zm95.1-1.07q.44.24.79.62.52.57.95-.07l1.17-1.8q.54-.84-.41-.55l-2.38.72q-1.31.4-.12 1.08m-209.12-1.52a.32.32 0 0 0-.47 0l-1.42 1.54a.32.32 0 0 0 .2.54l3.19.34a.32.32 0 0 0 .27-.54zm98.4 10.42a.34.34 0 0 1-.24-.07l-13.38-9.82a.34.34 0 0 0-.46.05l-9.52 10.52a.34.34 0 0 0 .29.56l15.08-1.5a.34.34 0 0 1 .23.07l8.64 6.3a.34.34 0 0 0 .45-.04l5.81-6.24a.34.34 0 0 0-.28-.57zm19.35-2.95c2.18-.27 6.8-1.33 8.5.48q.5.53.86-.1l1.45-2.5q.52-.91-.32-1.53l-3.91-2.87q-.87-.65-1.6.15l-5.28 5.79q-.65.7.3.58m-5.17 47.69-1.05-5.18q-.34-1.72-1.75-2.75l-8.64-6.35q-1.23-.91-.92.59l2.72 13.23a1.36 1.31 13.3 0 0 .52.81l18.21 13.58a.7.69-50.4 0 0 .94-.09l3.98-4.42a.5.5 0 0 1 .72-.02l.21.2q.1.1.01.21l-4.11 4.69q-.4.45.09.81l6.38 4.68a2.06 2.02-28.8 0 0 1.4.39l32.71-3.11q.77-.08 1.3-.66l10.41-11.52a2.73 2.7-71.5 0 1 1.76-.89l13.2-1.35a1.56 1.55 12.4 0 0 1.18-.75l6.73-11.41a1.69 1.66 54.6 0 0 .19-1.18l-3.21-15.54q-.07-.32-.36-.45l-4.68-2.2a.14.14 0 0 0-.2.15l1.8 8.69q.05.23-.18.27l-.33.06q-.42.08-.51-.34l-1.83-8.79q-.14-.69-.78-.98l-7.79-3.53q-.59-.28-.93.28l-3.41 5.63a.41.41 0 0 1-.63.08l-.2-.19q-.12-.12-.04-.27l2.7-4.59a.31.31 0 0 0-.31-.46c-2.28.34-3.55 3.4-4.51 5.28q-.26.51.19.86l5.28 3.98q.17.12.05.29l-.16.23q-.27.38-.65.1l-4.13-3q-.58-.42-.44.29l2.81 13.65q.11.54.55.87l13.12 9.69q.14.1.1.27l-.06.25q-.15.59-.64.23l-12.9-9.47a3.04 2.98 12.9 0 1-1.16-1.81l-3.05-14.64q-.12-.6-.61-.98l-3.36-2.54a1.35 1.34-35.5 0 0-1.23-.2l-2.76.92a.94.93-83.8 0 0-.52.42l-8.38 14.25q-.29.49-.64.03l-.21-.28q-.09-.11-.01-.23l8.35-14.24q.27-.46.75-.71 1.09-.55 2.26-.71.87-.12.22-.71l-1.49-1.38q-.4-.36-.51-.89-.69-3.27-1.35-6.63c-.41-2.04-4.42-4.34-6.03-5.65q-.43-.35-.54-.89l-1.49-7.42q-.25-1.24-.98-.21-1.1 1.56-2.44 2.73-1.25 1.09-2.66 1.24-7.65.79-15.06 1.52a.41.41 0 0 0-.36.49l1.22 5.89q.13.62.64.99l3.38 2.49a.4.39 25.7 0 1 .15.42l-.09.3q-.06.23-.27.14-1.6-.65-2.87-1.87-.67-.65-.43.25l.32 1.17a2.42 2.4-79.6 0 0 .9 1.32l12.32 9.04a2.7 2.7 0 0 1 1.07 1.66l3.19 15.43a2.4 2.37-36 0 1-.28 1.7l-8.26 14.05q-.14.24-.39.13l-.33-.15q-.33-.15-.15-.46l8.13-13.84q.41-.7.25-1.49l-3.06-14.85q-.19-.94-.96-1.51l-12.36-9.06q-.44-.33-.96-.16l-15.02 4.68a1.66 1.63-83.2 0 0-.91.73l-6.71 11.42q-.49.83.48.75.42-.04.82.18.84.44-.08.67-.69.17-1.43.17a1.23 1.23 0 0 0-1.22 1.47l1.63 8.05q.3 1.46 1.79 1.32l16.25-1.62q.37-.04.41.33l.03.31q.03.28-.25.31l-16.39 1.67q-.24.02-.45-.1l-.29-.17q-.75-.45-.57.4l1.1 5.33q.06.26-.2.34l-.35.11q-.37.11-.45-.27m67.94-41.59a.3.3 0 0 0-.08-.39l-15.69-11.58a.3.3 0 0 0-.44.09l-2.48 4.23a.3.3 0 0 0-.04.21l1.62 7.56a.3.3 0 0 0 .11.18l7.4 5.44a.3.3 0 0 0 .21.06l6.13-.68a.3.3 0 0 0 .23-.15zm25.5-12.09-3.01.93q-.6.18-.48.79l.87 4.38q.14.7.79 1.01l1.55.75q.62.3.99-.3l1.7-2.77a.8.8 0 0 0-.11-.97q-1.24-1.27-1.38-3.19-.07-.89-.92-.63m3.802 3.095a1.32.49 45.7 0 0-.571-1.287 1.32.49 45.7 0 0-1.273-.603 1.32.49 45.7 0 0 .571 1.287 1.32.49 45.7 0 0 1.273.603m-7.472 2.595-.91-4a.28.27 74.3 0 0-.35-.2l-3.3 1.08q-.51.16-.78.63l-2.34 3.98a.44.44 0 0 0 .57.62q3.77-1.82 6.79-1.72.41.01.32-.39m-199.01 22.74a.25.25 0 0 1 .08-.38l.42-.22a.25.25 0 0 1 .3.06l3.01 3.32a.25.25 0 0 0 .37 0l10.71-11.86a.25.25 0 0 0 0-.34l-15.03-16.7a.25.25 0 0 0-.17-.08l-6.29-.45a.25.25 0 0 0-.2.08l-4.05 4.43a.25.25 0 0 0-.07.17l.01 16.76a.25.25 0 0 0 .06.17l10.87 12a.25.25 0 0 0 .37 0l2.77-3.01a.25.25 0 0 0 0-.33zm127.57-26.48q-.2.52.18.89a.35.35 0 0 0 .58-.16q.16-.63-.11-.88a.4.4 0 0 0-.65.15m-18.48 4.36a.37.37 0 0 0 .33-.38l-.03-2.63a.3.3 0 0 0-.53-.2l-2.84 3.1q-.5.53.23.45zm15.52.54q-.33.56.19.94l4.66 3.45q.66.49.48-.32c-.53-2.34-.58-5.57-2.84-6.95q-.56-.35-.91.23zm-2.32 1.98a1.58 1.58 0 0 0-1.4-2.38q-5.14.16-10.13 1.12-.32.06-.32.38l-.03 8.84q-.01.34.32.24l7.65-2.43q.65-.2 1-.79zm71.94.71c1.81-.1 3.99 1.92 5.38 3.08q.95.79.69-.42l-.85-4.11a1.53 1.53 0 0 0-1.96-1.14l-7.26 2.3q-.12.04-.09.16l.09.3q.06.25.32.21 1.87-.27 3.68-.38m-94.17 8.79q2.39 2.7-.76.95-1.06-.59-2.39-1.78-.48-.43-.92.04l-2.52 2.73q-.39.42-.28.98l1.67 8.21a1.98 1.98 0 0 0 3.41.93l10.11-11.14q.58-.64-.24-.38l-4.81 1.51q-.48.15-.54-.34l-.04-.26q-.03-.22.18-.29l5.54-1.74q.97-.31.97-1.33v-7.66q-.01-.97-.98-.93l-3.32.13q-.53.02-.89.41l-6.77 7.41a.55.55 0 0 0 .18.87q1.5.67 2.4 1.68m100.55-9.73.24 1.82a.42.41-25.8 0 0 .7.24q.41-.39.65-.87.24-.49-.12-.9-.4-.44-1-.67a.35.35 0 0 0-.47.38m-105.21 23.84.91 3.51q.13.46.61.42l8.73-.86a2.02 2.02 0 0 0 1.55-.99l7.11-12.1a2.32 2.27 5.8 0 1 1.28-1.02l14.97-4.73q.5-.16.39-.67l-.51-2.27q-.13-.58-.6-.94l-5.61-4.16q-.47-.35-.76.16l-3.29 5.64a2.53 2.49 6.2 0 1-1.43 1.13l-7.55 2.37q-.51.16-.87.56-5.61 6.36-11.34 12.56-.58.63-3.16.8-.58.04-.43.59m-.83-16.58-7.66-5.65a1.5 1.5 0 0 0-1.14-.28q-4.9.81-10.88 1.19-2.2.14-4.32.65-.57.14-.57.73l-.01 6.57a2.81 2.81 0 0 0 3.1 2.8l18.12-1.85a1.62 1.61-72.3 0 0 1.02-.53l2.43-2.74q.44-.5-.09-.89m97.3 10.22a.63.63 0 0 0 .81-.25l6.75-11.47a.63.63 0 0 0-.17-.83l-4.02-2.95a.63.63 0 0 0-.44-.12l-5.39.55a.63.63 0 0 0-.48.3l-3.46 5.8a.63.63 0 0 0-.08.45l1.23 5.77a.63.63 0 0 0 .34.44zm-4.2-14.64a.31.31 0 0 0-.32-.46l-5.68 1.08a.3.3 0 0 0-.2.15l-2.48 4.04a.31.31 0 0 0 .3.47l5.48-.6a.31.31 0 0 0 .23-.15zm-163.74 14.47a.33.33 0 0 0 .58.22l3.98-4.57a.33.33 0 0 0 .08-.22l-.07-6.17a.33.33 0 0 0-.13-.26l-3.94-2.92a.33.33 0 0 0-.53.27zm151.63-9.34a.34.34 0 0 0 .34.52l1.34-.18a.34.34 0 0 0 .25-.15l2.69-4.27a.34.34 0 0 0-.33-.52l-1.36.18a.34.34 0 0 0-.24.15zm-152.77 2.34a.33.33 0 0 0 .08-.21l.17-5.96a.33.33 0 0 0-.58-.24l-5.56 6.09a.33.33 0 0 0 0 .44l2.71 2.99a.33.33 0 0 0 .49 0zm47.5 2.77c-1.99-1.57-1.39-6.05-1.15-8.22q.11-1.02-.57-.26l-8.48 9.41q-.58.64.28.55l9.78-.99a.28.27 61.1 0 0 .14-.49m94.77-4.44q-1.95-1.46-3.96-2.99-.75-.56-.56.36l1.16 5.71q.18.86.91 1.35l1.71 1.13a1.03 1.03 0 0 0 .9.12l5.79-1.87a2.84 2.82-83 0 0 1.55-1.22l.56-.93q.42-.7-.39-.59-2.06.29-4.06.49-1.34.13-3.61-1.56m31.53 26.65a.3.3 0 0 1-.04.22l-2.87 4.85a.31.31 0 0 0 .36.45l13.78-4.38a.3.3 0 0 0 .17-.14l4.19-7.16a.3.3 0 0 0 .04-.22l-3.52-16.97a.3.3 0 0 0-.12-.19l-7.79-5.65a.31.31 0 0 0-.45.09l-7.16 12.14a.3.3 0 0 0-.04.22zm-168.33-20.4q-1.18 1.12-2.22 2.32-.57.65.29.56l13.88-1.44q.54-.05.89-.46l2.86-3.25q.55-.62-.27-.53c-2.12.25-5.71 1.24-7.49-.05q-3.2-2.32-6.14-4.54-.61-.46-.57.31c.12 2.23.59 5.35-1.23 7.08m157.2-.73-.97-4.89q-.13-.66-.8-.63-2.18.08-4.32.55-4.1.9-.21 2.49 3.14 1.3 5.96 2.73a.24.23 8.3 0 0 .34-.25m-8.923-4.639a1.57.7-32.3 0 0-1.701.247 1.57.7-32.3 0 0-.953 1.43 1.57.7-32.3 0 0 1.701-.246 1.57.7-32.3 0 0 .953-1.43M179.72 246.83q3.23-3.63 6.48-7.21.17-.19 0-.38l-2.75-3.06q-.19-.21-.37 0l-10.29 11.43q-.38.42-.12.92 1.9 3.63 5.9 2.12.43-.16.36-.63c-.21-1.21-.04-2.25.79-3.19m10.94-5.44q-.32-2.15-.04-4.32.13-.98-.54-.25l-1.64 1.8a.74.74 0 0 0 .02 1.02l1.87 1.91a.19.19 0 0 0 .33-.16m50.25-2.56a.31.31 0 0 0-.19.52l8.08 8.87a.31.31 0 0 0 .27.1l12.01-1.22a.31.31 0 0 0 .27-.37l-1.92-9.46a.31.31 0 0 0-.34-.24zm92.81.85q-.52.16-.09.47l2.39 1.75q.41.3.66-.13l1.83-3.11q.34-.59-.31-.38zm-94.46-.5a.33.33 0 0 0-.28-.1l-12.38 1.2a.33.33 0 0 0-.29.4l3.18 15.67a.33.33 0 0 0 .13.21l13.25 9.71a.33.33 0 0 0 .22.06l4.77-.35a.33.33 0 0 0 .31-.33l-.02-16.5a.33.33 0 0 0-.09-.22zm-59.48 9.36a1.14 1.14 0 0 0 .91 1.87l3.42-.12a1.14 1.14 0 0 0 .79-.36l4.86-5.22a1.14 1.14 0 0 0 .02-1.52l-1.91-2.18a1.14 1.14 0 0 0-1.72.02zm40.56-2.08v16.49a1.92 1.9 66.1 0 1-.48 1.27l-10.51 11.64a3.34 3.32-71.7 0 1-2.13 1.08l-15 1.51q-.75.08-.75.83l.02 32.49a.25.25 0 0 0 .27.25l15.77-1.66a1.7 1.68-71.8 0 0 1.06-.54l10.31-11.39q.45-.49.45-1.16v-16.08q0-.35.35-.35l.34-.01q.3 0 .3.3l.01 16.4a2.02 2 66.1 0 1-.51 1.34l-9.98 11.06q-.37.42.18.36l14.06-1.44a2.39 2.38 17.5 0 0 1.53-.79q6.3-7.09 12.49-13.66 2.5-2.65 3.95-5.44 2.64-5.07 5.68-9.79a1.7 1.7 0 0 0 .27-.92l.03-10.38q0-.6-.6-.52l-3.84.5q-.7.09-1.27-.33l-13.28-9.75a2.18 2.14-78.2 0 1-.85-1.32l-3.18-15.21a.7.7 0 0 0-.76-.55q-6.76.76-13.74 1.4c-2.37.22-4.53.86-6.97.84-3.83-.03-7.39 1.13-11.25 1.07q-.84-.02-.84.83l.03 32.06q0 .64.64.58l15.08-1.53q.77-.08 1.29-.65l10.47-11.59q.37-.41.37-.97l-.01-16.27q0-.18.18-.22l.44-.09q.38-.09.38.31m-36.03 4.74-3.82.38q-.6.06-.6.67l.1 12.27q.01.63.43 1.1l6.27 6.93q.36.4.82.1 3.07-1.97 3.04-5.29-.06-10.03.01-21.56a.22.22 0 0 0-.39-.15l-4.24 4.73a2.54 2.52 17.9 0 1-1.62.82m75.18 2.31q.9-.97 2.14-.85.79.07.69-.72l-.4-3.06q-.11-.85-.97-.76l-11.4 1.16a.41.41 0 0 0-.37.41l-.01 14.31q0 .98.65.24 4.72-5.36 9.67-10.73m-89.55-1.84 3.07-.31q.68-.07.22-.58l-1.24-1.35q-.45-.5-.89.01l-1.45 1.68q-.56.64.29.55m8.47 3.33q.51.54.5-.19l-.03-2.53q-.01-.6-.6-.51l-1.85.27a.37.37 0 0 0-.21.62zm-3.75-2.67a.32.32 0 0 0-.27-.1l-5.8.59a.32.32 0 0 0-.29.32l-.04 31.83a.32.32 0 0 0 .56.22l10.03-11.2a.32.32 0 0 0 .08-.21l-.17-16.72a.32.32 0 0 0-.08-.21zm90.61.99a.34.34 0 0 0-.17.61l9.29 6.87a.34.34 0 0 0 .54-.34l-1.54-7.63a.34.34 0 0 0-.37-.28zm-5.07 12.2q-.12.36-.51.43-5.26.99-10.08 1.03-.28 0-.28.28l-.01 8.25q0 .04.04.02l16.46-5.43a.59.58 75.2 0 0 .39-.68l-3.03-14.68a1.63 1.62 60.2 0 0-2.8-.76l-10.05 11.14q-.75.84.35.63 4.22-.79 9.13-.79.6 0 .39.56m-81.82 32.53a.31.31 0 0 0 .54-.21l-.02-15.31a.3.3 0 0 1 .08-.21l7.34-8.2a.31.31 0 0 0 0-.42l-5.9-6.67a.31.31 0 0 0-.54.21l-.01 7.01a.3.3 0 0 1-.08.21l-11.1 12.35a.31.31 0 0 0 0 .42zm84.06-5.11a1.25 1.25 0 0 0 .85.24l15.4-1.56a3.51 3.5 81.3 0 0 3.08-4.2l-1.18-5.72q-.13-.6-.63-.97l-12.89-9.47q-.43-.32-.94-.15-6.98 2.28-13.96 4.38c-3.2.96-3 4.72-2.84 7.34q.03.52.45.83zm-71.89-21.13q.01-.78-.53-.21l-1.67 1.75q-.49.52-.01 1.05l1.58 1.74q.59.64.59-.23zm-10.57 10.9a.4.4 0 0 0-.11.28l.05 16.34a.4.4 0 0 0 .11.28l7.01 7.72a.41.41 0 0 0 .61-.01l2.81-3.27a.4.4 0 0 0 .1-.27l-.07-25.31a.4.4 0 0 0-.1-.27l-2.83-3.25a.41.41 0 0 0-.61 0zm63.5 5.91q.11.08.19-.03 2.1-2.74 4.06-4.82.4-.43.33-1.01l-.16-1.28a.28.28 0 0 0-.52-.1q-1.88 3.6-3.95 7.02-.08.13.04.22zm41.96-3.59a.38.37-51.4 0 0-.06-.55l-3.1-2.28q-.67-.49-.5.31l.93 4.61q.17.86.74.2zm-44.63 7.9-2.05 2.3q-.76.86.33.52 1.13-.36 2.21-.26.84.09.67-.74l-.31-1.59q-.19-.97-.85-.23m-52.51 15.83 1.71 1.84q.56.6.54-.22l-.05-3.93q-.01-.8-.55-.2l-1.66 1.86q-.29.33.01.65m-.91.89a.32.32 0 0 0-.48 0l-6.95 7.65a.32.32 0 0 0-.08.21l.03 16.68a.32.32 0 0 0 .08.21L190 345.51a.32.32 0 0 0 .56-.21l-.04-31.96a.32.32 0 0 0-.08-.21z"/><path fill="#fd0101" fill-opacity=".996" d="M287.7 0q2.18 1.01 3.84 2.72.26.27-.03.51-.1.09-.25.13-.07.01-.12-.03L286.59 0z"/></svg>