<svg xmlns="http://www.w3.org/2000/svg" viewBox="0 0 382 382"><g fill="none" stroke-width="2"><path stroke="#7f0100" d="m84.42.42-.65.61M95.25 11.77q-.83.47-.53.82" vector-effect="non-scaling-stroke"/><path stroke="#802602" d="m141.3 3.39-.65.72" vector-effect="non-scaling-stroke"/><path stroke="#7f0100" d="M111.97 13.24q-.07-.54-.3-.66" vector-effect="non-scaling-stroke"/><path stroke="#802602" d="m152.26 31.24-.83-.2M163.42 43.05q-.08.55-.2.74M191.03 55.59q-.71.06-.67.56" vector-effect="non-scaling-stroke"/><path stroke="#7f0100" d="M191.12 72.97q-.42-.04-.7-.27M180.2 84.77q-.19-.35-.71-.26" vector-effect="non-scaling-stroke"/><path stroke="#802602" d="M180.21 100.95q.13.29-.77.51M163.31 142.76q-.25.17-.4-.93M152.44 154.24l-.96-.34M141.03 198.81l-.92-.06" vector-effect="non-scaling-stroke"/><path stroke="#7f0100" d="M129.62 227.12q-.19.42-.91.05M140.68 239.23q-.83.24-.95.78M141.09 255.04q.02.67-.55.5M163.34 295.56q-.4.23-.27.61M191.24 308.9q-.31.24-.73.08M180.18 337.3q-.16-.28-.76-.54" vector-effect="non-scaling-stroke"/></g><path fill="#010100" d="m83.38 0 1.04.42-.65.61Q77.95.79 71.91.67q-.07 0-.13.05-.11.1-.22-.05-.13-.18.09-.19L79.9 0z"/><path fill="#fd0100" d="m84.42.42 10.83 11.35q-.83.47-.53.82L83.77 1.03zM141.3 3.39l-.65.72-15.88-1.12a1.29 1.28-62.7 0 0-.89.29l-11.91 9.96q-.07-.54-.3-.66l11.78-10.22a1.67 1.66 25.9 0 1 1.16-.4q7.61.37 15.23.75.41.03.78.22.36.2.68.46"/><path fill="#034a04" d="m152.26 31.24-.83-.2-.08-15.08q0-.51-.35-.88L140.65 4.11l.65-.72 10.73 11.29a.95.94-66.6 0 1 .25.64z"/><path fill="#010100" d="M111.67 12.58q.23.12.3.66-.32.4-.97.39-7.55-.12-16.28-1.04-.3-.35.53-.82z"/><path fill="#fd0100" d="m152.26 31.24 11.16 11.81q-.08.55-.2.74L151.9 32.31a1.18 1.17-69.6 0 1-.34-.75q-.02-.3-.13-.52z"/><path fill="#034a04" d="M191.03 55.59q-.71.06-.67.56l-10.47-10.92a1.3 1.29 69.5 0 0-.85-.39l-15.82-1.05q.12-.19.2-.74l15.74.82a1.88 1.86-20.2 0 1 1.25.57z"/><path fill="#fd0100" d="M191.03 55.59q.44.55.44.91.09 11.72.05 15.25 0 .55-.4 1.22-.42-.04-.7-.27l-.06-16.55q-.04-.5.67-.56"/><path fill="#010100" d="M190.42 72.7q.28.23.7.27l-10.92 11.8q-.19-.35-.71-.26z"/><path fill="#fd0100" d="M179.49 84.51q.52-.09.71.26l.01 16.18q.13.29-.77.51 0-.21-.14-.48a1.2 1.18-58.6 0 1-.14-.6z"/><path fill="#034a04" d="M163.31 142.76q-.25.17-.4-.93l15.66-.79a1.84 1.8 20.1 0 0 1.2-.54l10.27-10.61q.4-.41.4-.98l.11-14.91a1.53 1.51 24.2 0 0-.41-1.06l-10.7-11.48q.9-.22.77-.51l10.57 11.28a2.91 2.88 23.8 0 1 .79 2.01l-.14 14.66q-.01.98-.69 1.69l-10 10.37a3.81 3.78-68.9 0 1-2.57 1.15z"/><path fill="#fd0100" d="M162.91 141.83q.15 1.1.4.93l-10.87 11.48-.96-.34z"/><path fill="#034a04" d="m151.48 153.9.96.34-.01 15.2a2.88 2.86 66.9 0 1-.79 1.98l-10.14 10.65a1.62 1.62 0 0 0-.45 1.12l-.02 15.62-.92-.06.01-15.51a2.95 2.94-23.2 0 1 .8-1.99l10.13-10.64q.34-.35.34-.84z"/><path fill="#fd0100" d="M141.03 198.81q-.22-.01-.19.33a.59.56 65.5 0 1-.16.47l-10.34 10.76a2.24 2.22-23.1 0 0-.63 1.55l-.09 15.2q-.19.42-.91.05l.09-15.84a2.1 2.07 67.4 0 1 .57-1.41l10.74-11.17z"/><path fill="#010100" d="m129.62 227.12 11.06 12.11q-.83.24-.95.78-.48-1.38-1.15-2.08-4.61-4.78-9.09-9.68-.37-.4-.78-1.08.72.37.91-.05"/><path fill="#fd0100" d="m140.68 239.23.41 15.81q.02.67-.55.5l-.81-15.53q.12-.54.95-.78"/><path fill="#010100" d="m141.09 255.04 10.58 11.68a2.67 2.64-66.5 0 1 .7 1.8v14.62q0 .84.58 1.45l10.39 10.97q-.4.23-.27.61-.14-.03-.29-.04-.17-.01-.28-.13L152 284.97q-.63-.66-.63-1.57l.01-14.96q0-.49-.33-.85-4.94-5.37-10.16-10.72-.56-.58-.35-1.33.57.17.55-.5"/><path fill="#fd0100" d="M191.24 308.9q-.31.24-.73.08l-10.67-11.23q-.37-.38-.89-.41l-15.18-.78q-.27-.02-.47-.19l-.23-.2q-.13-.38.27-.61l15.65.82a2.32 2.31-20.8 0 1 1.56.7q5.27 5.46 10.51 11.09.15.16.2.32.06.26-.02.41"/><path fill="#010100" d="m191.24 308.9.28 15.5a2.43 2.42 66.5 0 1-.66 1.69l-10.68 11.21q-.16-.28-.76-.54l10.56-11.07a1.96 1.96 0 0 0 .55-1.36l-.02-15.35q.42.16.73-.08"/><path fill="#fd0100" d="m180.18 337.3-.02 15.51q0 .53.37.93l10.25 10.78a2.3 2.28-66.8 0 1 .62 1.57l-.06 15.91h-.73l-.19-15.87q-.01-.53-.38-.92l-10.19-10.73a2.62 2.59-66.9 0 1-.71-1.79v-14.82q0-.33.17-.61.14-.24.11-.5.6.26.76.54"/></svg>