<svg xmlns="http://www.w3.org/2000/svg" viewBox="0 0 382 382"><g fill="none" stroke="#7eb17f" stroke-opacity=".996" stroke-width="2"><path d="m72.95 26.97-.76.02M52.76 66.96q-.35-.59-.89-.45M82.82 96.39q.18.56.12 1.07M84.14 97.31q-.33-.72.1-.96M64.35 88.27q.02.54.55.71M66.78 101.52q-.43-.27-.85-.25M64.07 89.95q.06-.4-.13-.68-.21-.32-.56 0M66.87 110.83q-.01.33-.25.49-.49.33-.63-.24-.16-.65-.11-1.11M59.86 103.94q-.43.47-.88.39M49.78 123.89q-.14.35-.91.34M66.15 131.29l-.27.87M73.42 125.27q-.17.05-.64.76M70.88 126.23q.78-.48.74-1.02M73.98 123.06q-.17.61-.95.72M94.92 151.03q-.78-.9-1.07-1.73M114.56 10.84q.09.2-1.01.23M231.27 49.22q-.92-.04-1.32.17M216.2 58.99q-.49-.64-1.06-.89M314.32 53.99q-.41.09-.84-.01M328.33 88.95q-.44.08-.82-.18M321.49 83.37q.31.75-.09 1.05M321.58 90.86q-.07.66-1.28.44M320.13 87.01q.35-1.07.18-1.69M313.35 59.44q.36.19-.01 1.38M313.06 63.48q.36.41.89.12.64-.35.75-1.09M297.23 56.08q-.21.2-.82.09M328.72 118.46q-.4.5-1.37.78M320.54 112.09q.68-.49 1.09-.52M325.67 97.38q.27-.45-.64-.66M325.88 95.62q-.13.21-.08.49.05.3.35.36.13.02.28.02M327.46 95.49q.21-.35.06-.73-.1-.23-.24-.24M316.85 82.03q-.59.44-.84.92M315.15 83.8q-.73.35-.56 1.45M313.57 104.75l-.39-1.19M315.41 81.86l.49-.55M328.41 129.14q-.38.35-.95.1M327.41 139.15v-1.37M321.42 131.68q-.36.29-.66.29M328.41 69.36l-.87.28M331.69 73.7l-1.09-.94M331.42 71.94l-.7-.59M242.85 106.69q-.07.54.15 1.03M243.28 111.91q-.26.7-.01 1.29M241.76 111.46q.25-1.55-.25-3.52M239.04 107.28q-.22.28-.75.53M245.84 124.96q-.55-.11-.84.02M252.98 142q-.52-.07-.8.5M245.09 135.22q.99.17.87-1.76M252.69 128.05q-.86.06-.85-.39M257.5 146.49l.46.54M259.72 159.57l-.71.14M257.24 147.96q-.26-.49-.64-.75M259.98 169.26l-1 .85M260 189.54q-.28.2-.34.53M252.95 206.92l-.99-.09M245.99 205.09l-1.11-.8M240.46 191.07q.48-.17.78-.45M245.32 194.73q.21 1.99 1.83-.2M277.2 154.48q-.2.54-.03 1M276.96 162.22q-.61-.29-.94-.26M246.06 206.94l-1.02-.77M244.87 208.22q.13.46 1.04 1.02M246.04 210.9q-.38-.4-1.06-.64M246.81 193q.33-.14.55-.4M239.97 190.55q.23-.54.63-.86M280.89 155.33q-.63-.4-1.18.19M274.02 148.36q-.7.24.02 1.22M275.82 154.52q.31.65.17.97M272.99 149.67q.26-.7-.04-1.35M292.13 154.92q.31-.45-.01-.94" vector-effect="non-scaling-stroke"/><path d="M280.66 154.36q-.43.67-1.26.04M238.96 188.18l-.45.59M314.48 149.28q-1.28.32-1.09-1.42M314.34 150.67q-.03-.47-.42-.88-.27-.28-.66-.07M299.23 168.1q.63 1.84-.07 1.35M300.72 169.45q-.3-.32-.57-.33-.44-.02-.32.4.16.58.58 1.04M300.46 188.07q-.4-.28-1.28.2M305.01 193.81l-.73-.66M305.84 193.04l-.7-.76M308.66 188.4l.84-.04M260.89 249.79q-.76.62-1.89.86M259.84 260.7q-.44-.08-.81.06M259.98 267.22q.09.27.06.7M258.94 268.08q-.09-.61.02-1M276.77 243.3l-.75-.62M217.87 253.91q.39-.36.31-.84-.04-.22-.2-.31-.19-.1-.42 0M218.66 288.98l-.9.22M225.58 305.82q-.68-.06-.82.43M225.59 316.42l-.79.05M124.28 14.23q-.71-.18-.3-.31M192.61 2.2l-2.3 1.25M200.78 1.99l.44 1.06M197.69 3.36q-.43-.05-.27.32M198.3 24.7q-.32.94-.04 1.47M199.81 27.71q.08.31.48.51M200.77 28.72q1.24 1.55 3.14 2.45M203.85 47.26l.05.85M202.76 48.15l.02-.7M196.85 24.51q.16-.53.05-.95-.12-.48-.57-.26-.16.08-.33.23M191.84 11.56q-.14.34.41.79M198.25 6.32l-.5-.7M289.94 9.96l-.81-.13M292.57 0q-.13.17-.11.36.01.17.18.29.24.16.49.08M297.98 5.93q-.22.17.02.58.22.35.57.12M306.22 1.71q.39.11.56.4.13.23 0 .54-.14.32-.36.45M301.17 8.46q-.56.78-1.83.83M297.67 7.7q.63-.45-.79-.74M314.3 25.35l-.89.83M331.73.11v1.37M326.86 1.92l-1.01-.24M339.41 12.66q-.43.45.05 1.31M337.97 12.72q.14-.72.03-1.4M336.85 1.21q-.79-.5-.87.08M320.54 8.47q-.33-.12-.76-.57M178.29 25.16q-.08.59-1 1.1M163.61 48.84q-.14.24-.11.67M156.26 60.01l-1.13 1.17M152.39 64.16l-1.1.9M149.63 75.75l-1.34.99M148.3 66.83q.6-.44 1.14-1.4M154.46 60.21q.5-.27.85-.91M162.23 49.53q-.03-.76.2-.74M118.11 13.84l-.93-1.18M116.47 12.11l-1.49.04M113.84 51.24q.3.42.01.59-.34.2-.71.17M114.21 61.7q.34.41.86.59M100.08 32.61q1.03-1.43-.03-1.61M328.5 24.7q-.05.3-.54.79M269.76 13.15q-.38.48-1.31.08M290.15 16.16q-.04.05-.12.35-.1.41.15.59M288.93 17.23q.26-.72-.03-1.01M118.04 15.35q-.2-.35-.75-.44M271.08 14.49q-1.06-.73-1.54-.05M266.18 30.7q-.18.49.03 1.02M265.93 34.22l-1.12-.58M264.8 31.69q.55-.66.01-1.08M180.35 23.24q-.5.46-.79.56M249.16 26.53q.09.26-.92.29M355.61 35.53q-.09.3-.69.69M177.47 37.58l-.96-.02M114.49 35.36q-.68-.39-1.22-.37M203.54 30.1q.1.54.41.91M379.64 35.25q-.62.15-.84-.08M314.44 34.77q-.43.15-1.07.09M197.36 56.8q-.33.79-.54.8M117.28 41.99l.89.98M121.18 46.43q-.05.22-.1.37-.07.2-.26.26-.29.11-.45-.11M118.22 44.72q-.42-.56-1.19-1.02M113.07 37.47l.05-1.43M362.58 53.46l-.84.07M361.71 43.38q.56-.23.83-.78M120.27 57.69l-.08 1.31M363.11 62.97l-.08-1.24M142.4 54.54q-.44.34-1.11.42M121.22 56.85l-.82-.12M148.83 55.38l.83-.67q.4-.32-.05-.56-.29-.16-.9.14M362.98 89.11q-.29.13-.25.63.02.33.22.41M362.79 93.86q-.57-.15-1.15-.09M361.3 90.18q.26-.07.41-.25.16-.19.06-.4-.1-.18-.36-.32M354.92 71.68q.39-1.76-.32-1.44M134.44 63.71q-.28.31-.21-.52M189.72 60.17l-.87.83M121.36 58.92q-.29.74.02 1.41M197.71 71.6q-.37.3-1.03-.49M194.52 60.77q-.68-.28-1.53.07M189.72 61.96l-.75.82M194.18 59.63q1.4.52 2.73-.78M152.58 73.69q-1.15 1.66-3.23 3.42-.59.5-.39 1.87M149.75 80q.77.12 1.52-.13M155.4 78.79q.38.37.87-.52M180.62 75.54q-.47.19-.89.73M179.72 78.97q.42.75-.17 1.11M156.31 81.6q-1.5 1.85.17 3.4M160.98 89.52q-.08.21 0 .4.09.2.29.26.21.07.26.12M163.62 92.39l-1.48.8M160.6 91.44q.1-.55-.61-.77M158.41 92.2q.26.68.77.65M162.24 95.67l1.41 1.15M163.74 97q-.72.87-1.43 1.13M158.13 93.87q.03-.62-.47-.88M154.74 85.01q.19-.76.07-1.45M152.76 81.43q-.95-.27-1.46.08M134.76 121.89l-.44-1.34M128.24 95.64l-1.02-1.48M121.56 105.74q-.27.81-.81 1.49M156.43 71.1q-.65-.38-1.26-.31M207.79 70.25l.14 1.69M197.67 73.03q-.16-.34-.44-.45-.41-.16-.57.15M209.11 69.99q-.45-.37-.3-.76M184.41 84.62l-.85-.47M177.55 90.57q-.39.25-.72-.54-.21-.48-.63-.18-.37.27-.61.81M176.38 91.41q.89.22 1.34 1.18M179.09 97.88q1.49.6 1.62-.22M182.95 97.15q.5-.4 1.2.32M186 97.4q1.15.38 2.51.04M189.23 97.49q1.38-.75 2.65-.13.22.11.4-.05.18-.15.27-.36a.56.56 0 0 0-.08-.57q-.26-.34-.81-.59M207.68 88.63q.17.27 1.05.7M208.96 91.25q-.63-.33-1.43-.31M190.97 100.1q-.84-.12-1.06-.89-.14-.48-.6-.65-.7-.26-1.36.45" vector-effect="non-scaling-stroke"/><path d="M180.74 98.72q-.36-.76-1.51.01M163.37 102.97l-.95-.16-.42-.78M349.34 86.28q-.05.78.28 1.51M353.79 91.56l.75.56M359.71 93.87l1.52-.15M362.86 95.23q-.21 1.01.09 1.63M353.59 92.98l-.62-.56M348.47 88.25q-.27-.43-.38-.93M183.8 92.52q-.24-.18-.27-.68M357.47 90.37q-1.65.13-1.49-.92M178.38 91.6q.28.46 1.39.91M182.9 95.25q.05.48.44.63.33.13.63-.09M184.1 95.04q-.34-.72-.24-1.58M156.55 105.44l-.58.85M190 108.31q.74-1.18.52-3.36M190.55 103.79q.22-1.9-.87-2.58M163.38 123.09q-.39-.3-.91-.1M153.05 112.49q-.64-.22-.5-.75M152.8 115.13q.84.84-1.13.15M151.28 114.99q-.21-1.24-.99-1.14M150.96 113l.17.49q.07.21.26.12.12-.05.24-.12.18-.1.08-.29-.12-.24-.29-.43M204.07 112.56q.3.72-1.58-.07M212.68 113.8q-.24.06-.34.29-.07.17.01.34.11.22.32.22M194.59 139.22q-.18-.31-.61-.15-.3.11-.42.38-.14.31-.09.7M196.73 125.48q.97.43.93-1.2M211.38 114.91l.27-.28q.24-.24-.08-.35-.6-.21-.82-.65M205.76 113.81l-1.72.1M157.04 131.52l.78.68M157.13 133q-.31-.4-1.07-.7M152.93 116.62q.25-.47 1.27-.07M149.37 125.97q-.51 0-.89.25M162.39 127.42l-.05-1.24M152.36 133.99q-.42.07-.82-.02M135.06 141.45l-.69.73M146.46 140.98l-1.42 1.1M135.34 152.28l-.93-.07M145.17 140.46l1.38-1.25M156.42 143.15q-.42-.11-.91.16M171.98 150.11q.15.61.71 1.09M179.65 155.66q.35.46.81.09M180.42 157l-.82.08M177.53 164.24l.06.94M177.39 166.78q-.42-.21-.85-.02M176.2 165.22q.18-.34.12-.8M170.79 150.96q-.54-.97-1.07-1.01M163.17 150.26l-.16.94M142.41 189.5q-.19-.27-.87.49M191.49 161.14q-.25-.04-.83-.41M156.46 159q-.22.36-.47.41-.26.05-.67-.27M163.4 170.91l-1.08.17M218.77 173.87v1.05M217.72 174.96l.03-1.11M194.81 173.77q.17.12.34.25M205.69 176.79q.71.18 1.22.08M205.43 178.26l-1.36-.19M190.94 181.98l-.86.93M184.6 188.44q-.85-.1-1.3.1M189.74 181.44q.7-.45.59-.76M193.73 176.34q-.24-.76-.08-1.96M163.58 182.42l-.27.32q-.22.26-.03.55l.18.26M162.42 183.63q-.32-.6-.17-1.22M191.68 191.07q-.07.97-1.15 1.46M166.55 184.54q-.54.33-.93-.84M151.97 194.99q-.65-.16-.83.56M150.27 196.43q-.21.31-.45.49-.49.34-.85-.14-.2-.27-.17-.71M150.18 194.56q.22.11.47-.01.18-.1.24-.3.07-.26-.1-.41M166.34 186.39q-.38-.74-1-1.1M198.16 193.68q-.07.64.16.84M191.28 219.59q-.13 1.19-.76 1.21M177.86 217.01q-.41.26-.72-.15-.31-.42.14-.94M177.56 207.4l-.97-.91M170.44 218.55l-.84.48M183.29 198.49q.27.15 1.26.14M183.64 202.71l.9.47M190.49 196.99q.37-.14.41-.47.05-.49-.47-.84M156.26 210.18q-.65-.1-.92-.49M149.41 215.83q-.01.65-.71 1.78M224.72 235.63q.7.12 1.05 0M225.76 236.93l-.98.03M194.62 221.28q-.38-.57-1.12-.17M193.51 222.93q.24.07.4.2.39.31.04.67-.16.16-.41.26M193.49 229.83q.11.24.73.4M191.69 240.06q-.38.38-1.2.65M190.45 237.41q.6-1.6-.11-1.38M184.59 237.5l-.06-.98M184.64 232.98q-.26-.43-.62-.47-.32-.03-.67.34M183.31 229.16q.73-.04-.02-1.75M182.38 226.57q-1.34-.78-1.57-.14M183.41 236.77l-.04.96M176.5 246.8q.92.03-.36-1.11M179.12 224.74q1.17 1.05 1.56.25M180.4 224.07l-.82-.65M161.04 228.58q-.25.85.63.67M163.48 241.42q-.77-.37-1.1-1.11M160.37 238.29q-.32-.1-.85.58M159.33 231.74q.05-.98-.35-1.08M122.2 229.22q-.05.38-.73.55M159.27 271.27q.29.22.68.21.29-.01.47-.24.07-.11.12-.23M162.41 271.3l.35 1.27M160.54 272.84q-.58-.52-1.34-.1M194.66 223.47q-.21.16-.09.74M208.45 233.21q-.17-.6-.87-.54M156.47 244.43l-.85.56M191.7 250.55q-.48.53-1.36.16M190.28 259.3l1.57 2.57M191.6 263.57q.09.3.05.68M191.49 271.04q-.54.05-.94-.06M190.31 264.19q.34-.97-.08-1.9M163.29 242.85l-.96-.7M184.72 273.46q-.71-.15-1.53 0M177.45 276.54q-.25-.35-.92-.06M170.28 264.7q-.67.05-.8-.02M163.42 262.05q-.24-.48-.96-.29M177.56 285.35q-.27.14-.22.57.03.3.48.49M192.69 279.79q.08.48.8.55M191.74 290.97l-1.56.02M184.17 279.77q-.35-.67-.89-.49M184.41 293.58q-.17-.12-.85.38M191.52 320.9l-.98.32M184.46 333.83l-.81-.74M190.64 301.41q.1-.16.4-.18M201.32 321.32q-.3-.68-.48-.82M177.43 326.73q-.31.28-.68.21M191.54 341.02q-.13.95-1.02 1.03M188.82 340.18l-.67-.78M189.03 338.57q.14.58.8.67M190.32 338.53l-.05-1.23M191.46 351.56q-.58-.29-.92.16M191.5 361.28q.02.31-.27.51-.22.14-.69-.07" vector-effect="non-scaling-stroke"/></g><path fill="#046905" fill-opacity=".996" d="m114.28 0 .28 10.84q.09.2-1.01.23L113.45 0zM117.93 0l.37 6.06q.03.5.38.86 2.97 3.13 6 6.17.5.51-.4 1.14-.71-.18-.3-.31l-6.12-6.4q-.36-.37-.38-.89L117.26 0zM142.21 0l.13 6.72a.3.3 0 0 1-.29.31h-.31q-.3 0-.3-.31l.01-6.72z"/><path fill="#f8f9f9" fill-opacity=".996" d="M183.96 0q.14.12.18.32.07.32-.16.56l-6.42 6.66q-.39.4-.68-.08l-.14-.23q-.09-.16.04-.3L183.45 0z"/><path fill="#046905" fill-opacity=".996" d="M188.74 0q.84.74 1.91.52.47-.1.91.1 1.17.54 1.67-.62h1.04q-.32 1.02-1.66 2.2l-2.3 1.25L187.4 0z"/><path fill="#f8f9f9" fill-opacity=".996" d="M196.68 0q.27.66.21 1.52-.03.52.49.51l3.4-.04.44 1.06q-1.68.44-3.53.31-.43-.05-.27.32c.69.93 1.67 1.61 2.87 1.56q3.72-.16 7.52-.23a.29.29 0 0 1 .3.26l.04.33q.03.37-.35.39l-6.78.24q-1.06.03-.31.78L202.69 9a3 3 0 0 0 2.22.88l7.82-.26q.56-.02.94-.43l5.97-6.51q.35-.37.33-.89L219.9 0h.82q.14.45.38.74.37.45.75 0 .26-.31.4-.74h1.32l-5.38 6.17q-.33.38-.33.89v8.68q0 .4-.4.39l-.31-.01q-.29 0-.29-.29V7.96q0-.66-.47-.19l-2.52 2.57a.9.85-67.2 0 1-.59.26l-9.08.31a.38.38 0 0 0-.36.38l-.04 8.92q0 .4-.4.41h-.31q-.24 0-.24-.23-.08-4.37 0-8.55a.03.03 0 0 0-.05-.02q-2.35 2.29-4.92 5.01-.17.19-.15.45l.57 7.42q-.32.94-.04 1.47.44 1.02 1.55 1.54.08.31.48.51.11.36.48.5 1.24 1.55 3.14 2.45.74 1.98 2.09 1.94 4.52-.14 9.06-.26.4-.01.42.39l.01.29q.01.26-.24.27l-9.1.35a1.94 1.89 57.8 0 1-1-.24l-.85-.47q-.46-.26-.46.28l.01 13.54.05.85-.14 2.47q-.02.28-.3.29h-.29q-.32 0-.33-.33l-.08-2.39.02-.7.01-14.74a1.43 1.41-69.1 0 0-.46-1.05q-1.8-1.67-3.78-3.51c-1.12-1.03-1.42-2.21-1.7-3.64q.16-.53.05-.95-.12-.48-.57-.26-.16.08-.33.23-.45-2.81.07-5.6a.39.38 6.3 0 0-.37-.46l-3.35-.03q-.47-.01-.47.46v4.57a1.05 1.04-69.4 0 0 .35.78l6.8 6.15a.36.36 0 0 1-.08.59l-.28.15q-.62.3-1.13-.15l-6.23-5.47q-.47-.41-.91.04l-5.88 6.05q-.25.25-.48-.01l-.17-.19q-.24-.26.01-.52l5.86-6.1q.37-.39.37-.93l.01-4.68q0-.63-.63-.59l-2.03.15q-.3.02-.33-.27l-.04-.44q-.04-.38.34-.39l2.07-.06q.63-.02.64-.66l.17-12.47 2.3-1.25 2.55-.03q.52 0 .58-.52l.19-1.65zm-4.84 11.56q-.14.34.41.79-.53 1.59-.41 3.56.04.65.7.62l2.68-.13q.59-.03.59-.62l-.01-2.28q0-.22.22-.23l.45-.03q.24-.01.25.23l.11 2.12q.04.84.62.23l4.63-4.8q.42-.43.07-.92-1.69-2.31-3.9-3.78l-.5-.7-1.38-1.69a1.22 1.22 0 0 0-1-.44l-2.9.16q-.68.04-.67.72z"/><path fill="#046905" fill-opacity=".996" d="M204.33 0q-1.16 1.86-3.11 3.05l-.44-1.06L202.54 0z"/><path fill="#f8f9f9" fill-opacity=".996" d="m229.01 0 4.31 3.73q.39.34.91.33l9.14-.3q.29-.01.27.28l-.02.29a.43.42-88.5 0 1-.41.4l-9.23.35q-.52.02-.91-.33L227.8 0z"/><path fill="#046905" fill-opacity=".996" d="M283.06 0q.31 2.97.13 5.99-.03.33-.19.4-.12.04-.31.03-.24-.01-.24-.24L282.29 0z"/><path fill="#f8f9f9" fill-opacity=".996" d="m289.93 0 .01 9.96-.81-.13.04-9.83z"/><path fill="#046905" fill-opacity=".996" d="M292.57 0q-.13.17-.11.36.01.17.18.29.24.16.49.08l4.85 5.2q-.22.17.02.58.22.35.57.12.48.91 1.08 1.14.49.19.85-.18l5.72-5.88q.39.11.56.4.13.23 0 .54-.14.32-.36.45l-5.25 5.36q-.56.78-1.83.83l-1.67-1.59q.63-.45-.79-.74L290.82.54q-.12-.12-.05-.28l.12-.26z"/><path fill="#f8f9f9" fill-opacity=".996" d="m292.99 0 6.61.24q.1 0 .1.1l-.01.26q-.01.25-.25.24l-6.31-.11q-.25.08-.49-.08-.17-.12-.18-.29-.02-.19.11-.36zM308.99 0q-2.58 2.99-1.48 7.2a1.49 1.49 0 0 0 2.56.62L316.98 0h.12q.94 1.02-.91 2.94-3.34 3.45-6.28 6.19-.4.37-.02.75c1.42 1.44 4.54 3.85 4.53 5.92q-.02 3.73-.05 7.16-.01.71.49.2l1.11-1.13a1.76 1.73-23.4 0 0 .49-1.21l.04-9.06a.27.27 0 0 1 .27-.27l.4.01a.29.28-90 0 1 .28.29l.02 9.22q.01.5-.31.89l-2.86 3.45-.89.83-2.99 2.87q-.23.22-.41-.04l-.19-.27a.33.32 49.7 0 1 .03-.41l3.09-3.29a1.67 1.65 67.1 0 0 .46-1.15v-8.41q0-.59-.41-1.02l-4.63-4.76q-.44-.45-1.06-.43l-6.25.23q-.68.02-.68.7l-.01 28.92q0 .32-.32.28l-.32-.05a.43.43 0 0 1-.37-.43l-.01-29.63q1.27-.05 1.83-.83l5-.19q.47-.01.45-.48l-.2-4.69q.22-.13.36-.45.13-.31 0-.54-.17-.29-.56-.4-.09-.42-.05-.75.04-.49.51-.6l1.48-.36zM320.58 0q4.91 1.11 11.15.11v1.37l-4.87.44-1.01-.24c-2.22.05-5.86.48-6.24-1.68z"/><path fill="#046905" fill-opacity=".996" d="M339.41 12.66q-.43.45.05 1.31-.13-.03-.25.06-.11.07-.08.21.34 1.69.08 3.48-.05.36-.41.32l-.29-.04q-.27-.03-.29-.3l-.25-4.98q.14-.72.03-1.4.35-.66.27-1.59c-.15-1.82.77-3.27 2.23-4.27a.68.67 47.8 0 0 .05-1.07l-3.7-3.18q-.79-.5-.87.08l-4.25.19V.11l5.29.15a1.18 1.17-22.4 0 1 .73.3l3.53 3.15q.44.39.85-.02l3.02-3.05a.47.46-44.6 0 1 .65 0l.2.2q.17.17.01.34l-3.03 3.1a.7.69-48 0 0 .05 1.02q.79.67 1.54 1.41.23.23.23.56-.01.18-.13.31-.28.28-.57.02l-1.84-1.64q-.36-.32-.75-.05c-2.65 1.83-2.49 3.66-2.1 6.75"/><path fill="#f8f9f9" fill-opacity=".996" d="M336.85 1.21 338 11.32q.11.68-.03 1.4c-.75-.64-1.18-1.06-1.29-2.11q-.46-4.65-.7-9.32.08-.58.87-.08"/><path fill="#046905" fill-opacity=".996" d="m326.86 1.92-6.32 6.55q-.33-.12-.76-.57l6.07-6.22zM197.69 3.36l-.27.32q-.16-.37.27-.32"/><rect width="10.2" height=".98" x="-5.1" y="-.49" fill="#046905" fill-opacity=".996" rx=".47" transform="rotate(-2 238.755 -7226.882)"/><path fill="#f8f9f9" fill-opacity=".996" d="M178.29 25.16q-.08.59-1 1.1l-6.52.28a1.38 1.35 23.4 0 0-.81.31q-2.44 2.05-4.13 4.6-.29.44-.77.63-.71.28-1.2.81-.43.47-.43 1.1l-.03 6.4q0 .59.41.17l5.54-5.76q.2-.21.42-.02l.25.21q.27.23.03.5-2.21 2.38-4.44 4.61-1.76 1.75-2.07 3.62-.41 2.46.07 5.12-.14.24-.11.67.17 2.56-.48 3.26-3.62 3.91-6.76 7.24l-1.13 1.17-2.74 2.98-1.1.9q-.79.69-1.4 1.63-.52.83-.54 2-.07 3.49.28 7.06l-1.34.99.01-9.91q.6-.44 1.14-1.4l5.02-5.22q.5-.27.85-.91 3.42-3.14 6.46-6.67c.87-1 .87-1.94.46-3.1q-.03-.76.2-.74l.16-16.19q0-.59-.59-.58l-5.85.17q-.37.01-.29-.35l.09-.43q.04-.17.21-.18l4.28-.2q.85-.04.25-.64l-.75-.75a2.06 2.05 66.2 0 0-1.51-.59l-8.43.28q-.62.02-.62.63v18.92a.24.24 0 0 1-.23.24l-.33.01a.42.42 0 0 1-.44-.42l.02-19.05q0-.58-.41-1l-6.17-6.4q-.45-.47-.45-1.13v-8.97q0-.84.58-1.45l6.35-6.57q.28-.3.57-.01l.26.24q.14.14 0 .28-3.13 3.39-6.36 6.62-.4.4-.4.97v8.61q0 .52.36.9l5.99 6.22a1.27 1.26-22.6 0 0 .96.39l7.53-.29q1.39-.06.31-.93c-1.13-.91-2.14-1.86-2.13-3.44q0-4.57.05-8.65.01-.61.43-1.04l6.64-6.83q.14-.15.28-.01l.2.2q.35.33.01.69l-6.23 6.49q-.37.38-.37.9v8.59q0 .58.4.99l1.98 2.05q.45.47.91 0l5.44-5.61q.37-.38.37-.91l.01-9.12q0-.36.36-.36l.31.01q.28 0 .28.28.06 4.92.04 9.39-.01.69-.47 1.18-2.73 2.9-5.55 5.72-.54.54-.01 1.09l1.34 1.44q1.69 1.82 3.41.03l4.08-4.23q.4-.41.98-.44zM298.57 6.63q-.35.23-.57-.12-.24-.41-.02-.58.69-1.06 1.42-1.39.58-.26.54.37-.06.86-1.37 1.72"/><path fill="#046905" fill-opacity=".996" d="m198.25 6.32-6 6.03q-.55-.45-.41-.79l5.91-5.94z"/><path fill="#f8f9f9" fill-opacity=".996" d="m297.67 7.7-4.2 4.29a.36.35-46.9 0 1-.47.02l-.26-.21q-.25-.2-.03-.43l4.17-4.41q1.42.29.79.74M113.55 11.07q1.1-.03 1.01-.23 1.93.65 3-.16.38-.28.51.18.35 1.29.04 2.98l-.93-1.18q.16-.23.13-.44-.08-.43-.5-.32-.18.05-.34.21l-1.49.04-7.17.28q-.54.02-.54.56l.01 13.75q0 .71.71.68l2.37-.08q.39-.01.36.37l-.03.28q-.02.26-.27.28l-3.13.26q-.86.07-.26.7c1.8 1.88 1.1 8.29 1.06 10.72q0 .5-.27.92-.76 1.24-.65 2.67.09 1.1 1.23 2.18 2.8 2.64 5.44 5.52.3.42.01.59-.34.2-.71.17l-5.33-5.45q-.52-.53-.52.21l-.02 5.17q0 .46-.45.34l-.26-.06a.38.36-83.8 0 1-.27-.35l-.01-5.22q0-.64-.64-.66l-3.9-.15q-.57-.02-.64.55-.23 1.82 1.05 3.01.45.42.97.08.15-.1.29-.2.78-.55.73.4c-.03.91.04 1.66.71 2.36q4.68 4.85 9.36 9.67.34.41.86.59.09.66-.2.75a1.02 1 58.7 0 1-1.03-.26q-4.45-4.64-9.01-9.3-.63-.64-.63.26l-.02 5.3q0 .21-.22.19l-.49-.05q-.24-.02-.24-.27l-.06-6.33a2.51 2.5-73.4 0 0-1.09-2.03q-2.29-1.55-1.96-4.09a.61.6-83.8 0 0-.55-.69l-1.81-.16q-.16-.01-.18-.16l-.06-.34q-.07-.44.38-.42l1.53.08q.66.04.66-.63l-.01-11.53q1.03-1.43-.03-1.61l.18-2.66q.03-.58.61-.64l1.96-.18q.78-.07.23-.62l-2.08-2.11q-.38-.38-.88-.22l-.34.11q-.54.17-.54-.39l.08-9.17q0-.63.44-1.08l6.55-6.78q.27-.28.52.02l.18.2q.21.24-.01.47l-6.19 6.42q-.51.53-.51 1.27l-.03 7.65q-.01.53.52.5.15-.01.29-.05.27-.08.45.12 1.36 1.5 2.85 3.04.68.7 1.46.62a.53.52 87.7 0 0 .48-.53l.02-14.53a1.09 1.09 0 0 1 1.04-1.09zm-11.97 33.76q3.57.24 4.5-.04.2-.06.2-.26v-13q0-2.49-2.45-2.91-.21-.03-.41-.08-2.32-.5-2.32 1.87l.01 13.91a.51.51 0 0 0 .47.51M320.54 8.47l.65 9.01q.06.73.6 1.21l6.71 6.01q-.05.3-.54.79l-7.02-6.32q-.39-.34-.42-.86l-.74-10.41q.43.45.76.57M269.76 13.15q-.38.48-1.31.08l-2.87-3q-.13-.15-.06-.33l.15-.43q.14-.35.41-.08z"/><path fill="#046905" fill-opacity=".996" d="m289.13 9.83.81.13.21 6.2q-.04.05-.12.35-.1.41.15.59l-.24 2.32q-.03.33-.36.34l-.26.02q-.18 0-.19-.17l-.2-2.38q.26-.72-.03-1.01zM116.47 12.11q-.17.19.21.46.19.14.5.09l.93 1.18 2.63 3.24q.44.54-.24.39-1.17-.26-2.46-2.12-.2-.35-.75-.44l-2.31-2.76z"/><path fill="#f8f9f9" fill-opacity=".996" d="m339.41 12.66 5.36 4.88a.26.26 0 0 1 .02.37l-.21.23a.33.33 0 0 1-.47.02l-4.65-4.19q-.48-.86-.05-1.31"/><rect width="1.02" height="10.04" x="219.93" y="12.93" fill="#046905" fill-opacity=".996" rx=".4"/><path fill="#046905" fill-opacity=".996" d="m269.76 13.15 5.71.08a.3.29 7 0 1 .29.36l-.07.35a.29.29 0 0 1-.27.22l-4.34.33q-1.06-.73-1.54-.05-1.56-.23-2.82.14-.5.15-.5.66l-.04 15.46q-.18.49.03 1.02l-.28 2.5-1.12-.58q.74-.45-.01-1.95.55-.66.01-1.08l.31-15.96q.01-.52.45-.78.95-.58 2.88-.64.93.4 1.31-.08"/><path fill="#f8f9f9" fill-opacity=".996" d="m124.28 14.23.02 10.06q0 .16-.15.18l-.31.05q-.43.07-.44-.36-.06-4.71.01-9.41.01-.36.57-.83-.41.13.3.31M180.35 23.24q-.5.46-.79.56l-.04-9.06a.47.46 88.7 0 1 .44-.47l.29-.01q.19-.01.19.19zM271.08 14.49c1.06.99 2.12 1.99 2.1 3.52q-.07 4.25-.03 8.49a.39.39 0 0 1-.42.4l-.3-.02q-.3-.02-.3-.32l.03-8.88q0-.53-.36-.91l-2.26-2.33q.48-.68 1.54.05M118.04 15.35q.37 2.91.14 4.42-.36 2.33-.85.03-.43-2.03-.04-4.89.55.09.75.44"/><path fill="#046905" fill-opacity=".996" d="m72.95 26.97-.76.02-.06-9.68a1.01 1 89.1 0 1 .97-1.01l9.24-.32q.37-.01.36.36l-.01.38q-.01.23-.24.23l-8.73.34a.76.76 0 0 0-.73.76z"/><path fill="#f8f9f9" fill-opacity=".996" d="M290.18 17.1q-.25-.18-.15-.59.08-.3.12-.35l2.15.02a.39.39 0 0 1 .38.39q-.01.18-.1.34-.08.14-.23.14z"/><path fill="#046905" fill-opacity=".996" d="M249.16 26.53q.09.26-.92.29l-.19-9.99q-.02-.75.65-.41l.26.13q.14.07.14.22z"/><path fill="#f8f9f9" fill-opacity=".996" d="M288.9 16.22q.29.29.03 1.01l-5.82.28a1.19 1.18-68.9 0 0-.8.36l-5.9 6.03a1.6 1.58 67 0 0-.44 1.1v8.48a1.48 1.48 0 0 0 .37.98c1.22 1.39 3.9 3.26 3.86 5.28q-.06 4.02-.05 7.92 0 .61.6.63l8.71.32a.31.31 0 0 1 .3.31l-.01.33q-.01.36-.36.34l-9.33-.34q-.61-.02-1.03-.46l-6.4-6.62q-.33-.35.02-.67l.21-.2q.15-.15.29 0l5.12 5.26q.9.93.9-.37l.01-6.09q0-1.29-.91-2.22l-5.37-5.5q-.37-.38-.9-.41l-5.79-.25q-.21-.53-.03-1.02l6.04.21q.5.02.9.31.69.49 1.18 1.21.64.94.65-.2l.02-7.08a2.87 2.85-23.4 0 1 .79-1.97l6-6.23a1.12 1.11 19.5 0 1 .74-.35zM355.61 35.53q-.09.3-.69.69l-.19-10.2a1.35 1.34-23.8 0 1 .37-.95l6.59-6.84q.14-.15.29-.01l.24.23q.31.3.01.61l-6.07 6.37q-.55.57-.55 1.36z"/><rect width=".98" height="10.18" x="54.93" y="19.26" fill="#046905" fill-opacity=".996" rx=".47"/><path fill="#046905" fill-opacity=".996" d="m177.47 37.58-.96-.02q-.18-4.61.03-9.26c.04-.96.47-1.18.75-2.04q.92-.51 1-1.1 1.02-.36 1.27-1.36.29-.1.79-.56l3.23-3.1q.08-.08.19-.03l.29.13a.33.33 0 0 1 .12.53l-4.73 5.33q-.31.35-.73.55-1.22.61-1.24 1.59-.06 4.68-.01 9.34M231.27 49.22q-.92-.04-1.32.17l-3.19-2.94q-.35-.33-.39-.81l-.61-8.93a1.94 1.93-25 0 1 .54-1.48l13.14-13.65a1.17 1.16-47 0 1 1.61-.06l6.79 6.07q.15.14.07.32l-.22.5a.25.25 0 0 1-.39.08l-6.63-6.01a.52.52 0 0 0-.73.03l-4.89 5.09a.33.33 0 0 0 .25.56l7.74-.25q.41-.02.35.38l-.03.29a.37.36-87.2 0 1-.35.32l-8.69.32q-.86.03-1.46.65l-5.76 5.95q-.37.38-.33.91l.59 8.39q.03.53.43.89zM114.49 35.36q-.68-.39-1.22-.37l.13-5.54q.01-.55.39-.94l6.49-6.71q.24-.25.48 0l.2.22q.24.25 0 .5l-6.28 6.52a1.08 1.07 66 0 0-.29.76zM196.85 24.51l-.85-.98q.17-.15.33-.23.45-.22.57.26.11.42-.05.95M327.96 25.49q.49-.49.54-.79l9.61-.29a.28.27 82.5 0 1 .28.22l.06.28q.05.27-.22.28zM203.54 30.1q.1.54.41.91l-.04.16q-1.9-.9-3.14-2.45.17-.58-.48-.5-.4-.2-.48-.51-.31-1.15-1.55-1.54-.28-.53.04-1.47zM379.64 35.25q-.62.15-.84-.08l.04-9.62q0-.23.22-.24l.36-.01q.24 0 .24.24zM314.3 25.35l.14 9.42q-.43.15-1.07.09l.04-8.68z"/><path fill="#f8f9f9" fill-opacity=".996" d="m249.16 26.53 6.45 6.44q.37.36.88.38l8.32.29 1.12.58q-.32.41-.69.42-3.5.08-9.3-.32-.51-.04-.87-.41l-6.83-7.09q1.01-.03.92-.29M72.95 26.97q.27 4.97-.02 9.92-.01.21-.22.21h-.01q-.2 0-.22-.21-.31-4.94-.29-9.9z"/><rect width=".98" height="10.22" x="-.49" y="-5.11" fill="#f8f9f9" fill-opacity=".996" rx=".47" transform="rotate(.1 -18640.928 69241.063)"/><rect width="1" height="10.06" x="-.5" y="-5.03" fill="#f8f9f9" fill-opacity=".996" rx=".38" transform="rotate(.1 -19377.223 79039.289)"/><path fill="#f8f9f9" fill-opacity=".996" d="M203.95 31.01q-.31-.37-.41-.91l9.62-.29q.32-.01.3.31l-.02.33q-.02.2-.22.21zM84.07 40.63l6.53 6.95a.2.2 0 0 1 .05.19l-.11.45a.2.2 0 0 1-.34.09l-7.1-7.23a.2.2 0 0 1-.06-.14l-.02-10.06a.2.2 0 0 1 .2-.2l.42-.01a.2.2 0 0 1 .2.2l.18 9.62a.2.2 0 0 0 .05.14M264.81 30.61q.54.42-.01 1.08l-1.99-.28q-.27-.03-.35-.3-.04-.17.07-.34t.31-.17z"/><path fill="#046905" fill-opacity=".996" d="M100.05 31q1.06.18.03 1.61l-5.48 5.48q-.51.51-.51 1.23v8.32q0 .67.46 1.15l6.17 6.42q.41.42.41 1.01l-.02 9.32q0 .41-.4.38l-.3-.03q-.31-.02-.31-.33l.01-8.82a1.83 1.81-67.4 0 0-.53-1.31l-5.79-5.92a2.51 2.48 23.1 0 1-.71-1.74v-8.46a2.66 2.63-23.3 0 1 .74-1.83z"/><rect width="1" height="10.12" x="-.5" y="-5.06" fill="#f8f9f9" fill-opacity=".996" rx=".48" transform="rotate(.2 -10386.724 81014.471)"/><path fill="#046905" fill-opacity=".996" d="M197.36 56.8q-.33.79-.54.8l-6.75-7.05q-.43-.44-.43-1.06l-.01-9.22a1.41 1.37 67.7 0 1 .39-.97l6.55-6.81a.32.31 48.8 0 1 .49.04l.19.26q.18.26-.04.49l-6.25 6.47q-.34.36-.34.85l.01 8.63q0 .53.36.91z"/><path fill="#f8f9f9" fill-opacity=".996" d="m314.44 34.77 6.53 5.89q.56.49 1.3.47l8.87-.28a.38.37 86.1 0 1 .39.35l.02.31q.01.3-.28.31l-9.25.35a1.99 1.97 64.7 0 1-1.4-.51l-6.19-5.63a.68.67 42.8 0 0-.94.03l-13.04 13.52q-.33.34-.58-.06l-.16-.26q-.11-.17.03-.32l13.63-14.08q.64.06 1.07-.09M114.49 35.36q-.91 4.33 2.79 6.63l.89.98 3.01 3.46q-.05.22-.1.37-.07.2-.26.26-.29.11-.45-.11l-2.15-2.23q-.42-.56-1.19-1.02l-2.3-2.62q-.44-.5-.44.16l.04 3.31q0 .38-.38.35l-.41-.03q-.29-.02-.3-.32l-.17-7.08.05-1.43q-.04-.56.15-1.05.54-.02 1.22.37M378.8 35.17q.22.23.84.08l-.72 1.35q-.28.51.3.49l2.78-.11v.98l-4.16.3a1.61 1.6 19.3 0 0-1.03.49l-3.93 4.06a1.43 1.42-68.7 0 1-.97.43l-8.62.3q-.58.02-.59.6l-.12 9.32-.84.07-.03-10.15q.56-.23.83-.78l8.95-.42q.51-.02.86-.39z"/><path fill="#046905" fill-opacity=".996" d="M362.54 42.6q-.27.55-.83.78l-6.79-7.16q.6-.39.69-.69zM113.07 37.47l.05-1.43z"/><path fill="#f8f9f9" fill-opacity=".996" d="m177.47 37.58 7.05 6.28q.23.21.03.44l-.23.25q-.22.25-.48.03l-6.44-5.76q-.42-.37-.82.03l-6.05 6.26q-.17.18-.35.01l-.21-.19q-.32-.3-.02-.62l6.56-6.75z"/><path fill="#046905" fill-opacity=".996" d="m118.17 42.97-.89-.98-.02-3.41q0-.36.35-.34l.32.02q.34.02.33.36z"/><rect width=".76" height="10.14" x="-.38" y="-5.07" fill="#046905" fill-opacity=".996" rx=".36" transform="rotate(-.7 3619.704 -5653.586)"/><path fill="#f8f9f9" fill-opacity=".996" d="M229.95 49.39q.4-.21 1.32-.17 5.29 4.64 7.3 6.73c1.02 1.06.75 3.8.81 5.28q.03.84.61.24l11.69-12.12a1.31 1.27-23.5 0 0 .37-.9l.01-5.23q.01-.6-.59-.58l-2.51.09q-.48.02-.81.37l-6.29 6.5a.49.48 44.6 0 1-.69 0l-.21-.2q-.1-.1 0-.21 2.97-3.18 6.13-6.46 1.42-1.48 4.27-.97a.58.58 0 0 0 .68-.56l.04-1.76q.01-.18.16-.26l.26-.13q.67-.33.62.42l-.1 1.56q-.03.54.51.53l4.58-.09q.51-.01.88.33l7.07 6.38q.33.3-.04.55l-.29.19q-.18.12-.34-.02l-6.61-5.94q-.63-.56-1.47-.52l-3.57.16q-.67.03-.67.7v5q0 .61.46 1.01l6.54 5.9a.44.44 0 0 1 .03.63l-.18.18q-.2.22-.43.02l-6.39-5.78q-.49-.43-.94.04l-11.89 12.3a1.8 1.75 73.2 0 0-.47.91q-.24 1.25.05 2.75.07.37-.31.41l-.46.04q-.33.03-.35-.31l-.53-8.88q-.05-.75-.62-1.24l-6.47-5.53q-.41-.35-.96-.33l-8.67.32q-.38.02-.38-.36l-.01-.32q0-.32.32-.33zM216.2 58.99q-.49-.64-1.06-.89l-9.17.17q-.55.01-.93.41-3.08 3.26-6.62 6.69-.12.11-.23 0l-.3-.29q-.22-.2-.01-.42 6.3-6.59 12.96-13.39c1.03-1.06.88-2.2.85-3.53q-.07-3.5.01-6.91a.32.32 0 0 1 .31-.31h.38q.28 0 .27.28l-.05 9.39q0 .32.29.21l.46-.16a.37.36-8.2 0 0 .25-.33q.33-5.29.16-10.06-.01-.31.31-.3l.35.01q.38.02.38.4l-.04 9.18q-.01.64-.43 1.12-3.23 3.63-6.7 6.62-.4.34.13.32l6.62-.2a2.82 2.82 0 0 1 1.98.74l6.42 5.85a.43.42-48.4 0 1 .03.6l-.18.21q-.18.2-.38.02z"/><rect width="1" height="10.28" x="-.5" y="-5.14" fill="#f8f9f9" fill-opacity=".996" rx=".47" transform="rotate(-44.1 118.702 -130.578)"/><rect width=".98" height="10.32" x="-.49" y="-5.16" fill="#f8f9f9" fill-opacity=".996" rx=".47" transform="rotate(44 34.845 250.857)"/><path fill="#046905" fill-opacity=".996" d="M118.22 44.72q.13 4.71.01 9.46c-.05 1.79.68 2.56 2.04 3.51l-.08 1.31q-1.39-.92-2.27-2.15c-1.27-1.78-.63-4.84-.66-6.95a.17.17 0 0 0-.29-.12l-1.57 1.51q-.38.37-.38.91l.05 10.09q-.52-.18-.86-.59l-.02-7.93q0-1.24-.84-.33l-1.93 2.09a.47.47 0 0 1-.74-.06l-.16-.23q-.1-.16.02-.31l2.6-2.93q.37.03.71-.17.29-.17-.01-.59 4.21-2.45 3.19-7.54.77.46 1.19 1.02"/><path fill="#f8f9f9" fill-opacity=".996" d="M314.32 53.99q-.41.09-.84-.01l.01-9.93q0-.25.25-.25h.34q.26 0 .26.25z"/><path fill="#046905" fill-opacity=".996" d="m349.49 52.63-.01 9.57a.24.24 0 0 1-.24.24l-.49.01a.24.24 0 0 1-.24-.24l-.02-9.98a.24.24 0 0 1 .07-.17l6.94-7.22a.24.24 0 0 1 .37.03l.3.42a.24.24 0 0 1-.03.3l-6.58 6.87a.24.24 0 0 0-.07.17"/><path fill="#f8f9f9" fill-opacity=".996" d="M382 54.18v.92l-9.72.42q-.99.04-.25.71l4.95 4.45q.75.66 1.75.65l3.27-.04v.73c-2.17.62-4.5.7-6.22-.98q-2.71-2.65-5.36-4.91a.49.48-47.2 0 0-.66.03l-6.65 6.81-.08-1.24 6.17-6.43q.35-.37.35-.88v-8.97q0-.33.33-.37l.35-.03a.31.31 0 0 1 .35.31l-.03 8.62q0 .6.6.58z"/><path fill="#046905" fill-opacity=".996" d="M142.4 54.54q-.44.34-1.11.42l.09-8.26a.41.41 0 0 1 .4-.4h.26q.32 0 .32.32zM297.23 56.08q-.21.2-.82.09l-.03-9.57q0-.3.3-.3l.3.01q.3 0 .3.3zM121.22 56.85l-.82-.12-.03-9.78q.16.22.45.11.19-.06.26-.26.05-.15.1-.37z"/><path fill="#f8f9f9" fill-opacity=".996" d="M328.33 88.95q-.44.08-.82-.18-.19-4.47-.01-9.03.05-1.19-1.58-2.19-.41-.26-.74.09l-3.43 3.62a1.11 1.09-25 0 0-.3.8l.04 1.31q.31.75-.09 1.05l.18 6.44q-.07.66-1.28.44l-.17-4.29q.35-1.07.18-1.69-.17-2.05.29-3.97.12-.5.48-.87l3.43-3.53q.44-.46 0-.92-4.64-4.83-9.96-10.5-1.31-1.39-3.17-1.23-1.74.14-3.04 1.61-1.13 1.27-1.04 3.09.18 3.97.05 7.59-.02.38-.4.32l-.28-.04q-.3-.04-.3-.35l.01-9.26q0-.59.4-1.01l1.44-1.51q.57-.6-.26-.54-2.29.17-4.12-.22-.51-.11-.87-.49l-5.75-5.98q-.31-.32-.5-.71l-.31-.63q.61.11.82-.09l6.35 6.6q.48.49 1.17.51l4.12.11q.68.02 1.15-.47l3.33-3.39q.36.19-.01 1.38l-1.95 2.17q-.42.46.21.47l1.46.02q.36.41.89.12.64-.35.75-1.09l5.17-5.5q.31-.33.31-.79l-.01-9.26q0-.62.62-.54l.46.06a.45.44 3.7 0 1 .39.44l.02 8.78q0 .99-.69 1.7l-5.82 6.02q-.46.47 0 .94l4.77 4.9q.5.5.5-.21v-7.27a2.1 2.1 0 0 1 .59-1.46l6.31-6.48q.23-.23.46-.01l.24.23q.24.23.01.46L321.77 61q-.37.38-.37.91l.03 8.19q0 .65.45 1.12l3.54 3.67a.74.73-45.8 0 0 1.07-.02l.8-.88q.25-.29.52-.02l.27.25q.26.26-.01.5l-.92.87q-.52.49-.04 1.02l.91 1q.35.39.87.37l8.68-.26q.37-.01.36.35v.3q-.01.31-.32.32l-8.6.3a.68.67 89.1 0 0-.65.68z"/><path fill="#046905" fill-opacity=".996" d="m202.78 47.45-.02.7q-3.29.71-6.03-.01-.53-.13-.01-.3 2.7-.84 6.06-.39M203.9 48.11l-.05-.85q1.44-.29 2.28.2.54.32-.02.61-.77.41-2.21.04"/><path fill="#f8f9f9" fill-opacity=".996" d="m271.87 54.7.31.99a.25.25 0 0 1-.25.33l-9.93-.39a.25.25 0 0 1-.17-.07l-6.98-7.1a.25.25 0 0 1-.01-.34l.32-.37a.25.25 0 0 1 .37-.01l6.75 6.85a.25.25 0 0 0 .17.07l7.55.27a.25.25 0 0 0 .19-.08l6.53-6.81a.25.25 0 0 1 .36.01l.33.36a.25.25 0 0 1 0 .34l-5.48 5.7a.25.25 0 0 0-.06.25"/><path fill="#046905" fill-opacity=".996" d="M164.21 48.79q.64-.46 1.42-.07.64.31.06.71-.72.51-1.43.14-.65-.34-.05-.78M162.43 48.79q-.23-.02-.2.74l-5.54.34q-.56.03-.95.44l-3.63 3.83q-.83.88-.01 1.76l3.21 3.4q-.35.64-.85.91l-2.79-2.94q-2.57-2.7-2.12 1 .4 3.27-.11 7.16-.54.96-1.14 1.4-.69-5.95.53-11.45l.83-.67q.4-.32-.05-.56-.29-.16-.9.14-.06-.25-.07-.44-.01-.23.13-.4.2-.23.51-.22.44.01.64.4.24.46.78.32.28-.07.59-.42 1.98-2.18 4.13-4.18.37-.34.87-.36z"/><path fill="#046905" fill-opacity=".996" d="M163.5 49.51q-.03-.43.11-.67.4.58-.11.67"/><path fill="#f8f9f9" fill-opacity=".996" d="m180.41 58.1 6.66-6.86a.24.24 0 0 1 .33-.01l.36.33a.24.24 0 0 1 .01.35l-6.96 7.18a.24.24 0 0 1-.17.07l-9.98.35a.24.24 0 0 1-.25-.23v-.46a.24.24 0 0 1 .23-.25l9.6-.4a.24.24 0 0 0 .17-.07"/><path fill="#046905" fill-opacity=".996" d="m328.41 69.36-.87.28-.02-9.75q0-.64.44-1.09l6.45-6.65a1.34 1.33-68.4 0 1 .89-.39l9.37-.29q.31 0 .32.31v.41q0 .25-.25.26l-8.97.28q-.52.02-.88.39l-6.04 6.22q-.36.37-.37.88zM362.58 53.46l.45 8.27.08 1.24-6.96 7.03q-.43.43-.44 1.03l-.07 4.41q-.01.55.37.95l6.45 6.65q.37.39.39.92l.13 5.15q-.29.13-.25.63.02.33.22.41l-.16 3.71q-.57-.15-1.15-.09l-.34-3.59q.26-.07.41-.25.16-.19.06-.4-.1-.18-.36-.32v-5.25q0-.5-.34-.86-2.38-2.57-5.19-5.35c-1.62-1.61-1.51-3.97-.96-6.07q.39-1.76-.32-1.44.07-1.9.06-3.74-.01-.66.47-1.12 3.43-3.36 6.17-6.47.32-.36.33-.85l.11-4.53zm-6.98 15.33q-.01.6.4.16l5.21-5.43a1.5 1.47-22.5 0 0 .41-.97l.07-2.05q.02-.47-.3-.13l-5.3 5.53q-.45.47-.46 1.12z"/><path fill="#f8f9f9" fill-opacity=".996" d="m148.83 55.38-6.42.46q-.56.04-.95.44l-5.95 6.15a.95.94-26.3 0 0-.27.79q.6 4.86-.46 9.52l-.34-9.03q-.28.31-.21-.52l7.06-8.23q.67-.08 1.11-.42l6.31-.25q.61-.3.9-.14.45.24.05.56z"/><path fill="#046905" fill-opacity=".996" d="m314.32 53.99.38 8.52q-.11.74-.75 1.09-.53.29-.89-.12.54-1.28.28-2.66.37-1.19.01-1.38l.13-5.46q.43.1.84.01M189.72 60.17l-.87.83-.06-5.44q-.01-.31.3-.3l.39.01q.23.01.23.24zM52.76 66.96q-.35-.59-.89-.45l.01-9.6a.91.91 0 0 1 .88-.9l9.44-.28q.25 0 .25.25l.01.28a.4.39 88.5 0 1-.37.4l-8.64.36q-.6.02-.61.62z"/><rect width="10.2" height="1" x="-5.1" y="-.5" fill="#f8f9f9" fill-opacity=".996" rx=".48" transform="rotate(42.1 52.515 366.662)"/><path fill="#f8f9f9" fill-opacity=".996" d="m121.22 56.85.14 2.07q-.29.74.02 1.41l-.08 5.99a1 .99-88.3 0 1-1.03.98l-9.2-.32a.27.27 0 0 1-.25-.22l-.07-.37q-.09-.46.38-.44l8.86.35a.32.32 0 0 0 .33-.33l-.13-6.97.08-1.31.13-.96zM197.36 56.8l.34 1.92q.08.5.59.45l1.43-.12q.34-.03.33.31l-.02.45q-.01.23-.23.24l-1.5.12q-.63.05-.63.69l.04 10.74q-.37.3-1.03-.49l-.05-10.04q0-.53-.53-.6-.68-.08-1.58.3-.68-.28-1.53.07-2.54-.27-3.27 1.12l-.75.82-4.88 5.6a.32.32 0 0 1-.47.01l-.23-.24a.33.33 0 0 1-.02-.44l5.48-6.71.87-.83 4.46-.54q1.4.52 2.73-.78-.24-.7-.09-1.25.21-.01.54-.8"/><path fill="#046905" fill-opacity=".996" d="M196.91 58.85q-1.33 1.3-2.73.78l1.24-1.31q.41-.43.86-.03zM216.2 58.99l-6.23 5.88a.42.41 59.6 0 1-.68-.18l-.09-.26q-.04-.13.05-.23l5.89-6.1q.57.25 1.06.89"/><rect width="1" height="10.08" x="-.5" y="-5.04" fill="#046905" fill-opacity=".996" rx=".44" transform="rotate(.2 -18348.538 10118.967)"/><path fill="#046905" fill-opacity=".996" d="m121.36 58.92 3.33 3.51q.35.37.86.38l4.95.14q.77.02.62-.73-.15-.79.03-1.63.07-.35.43-.36l.43-.01q.39 0 .4.39l.04 1.7q.02.58.59.68l1.19.2q-.07.83.21.52l-1.47.42q-.48.14-.49.64-.05 2.62-.03 5.23.01 1.14 2.33 2.74.64 1.13 2.17 2.31.47.36.47-.23l.03-5.29q0-.28.28-.27l.31.01q.35.01.35.36l.06 6.64a.83.82.7 0 0 .81.82q3.75.1 7.74.2.78.02 1.29-.55l1.34-.99q2.94-3.38 1.66-10.69l1.1-.9.19 9.53q-1.15 1.66-3.23 3.42-.59.5-.39 1.87-1.53-.3-1.93.63-.24.57.38.53l2.34-.14q.77.12 1.52-.13 1.56.36 3.25.08a.87.87 0 0 0 .69-.58l.19-.58q.38.37.87-.52l4.64-4.71a2.9 2.9 0 0 1 1.92-.87l8.47-.42q.64-.03 1.11.38l4.48 3.92a.77.76-48.6 0 0 1.09-.07c1.4-1.62 3.3-4.35 5.64-4.4q4.1-.1 8.49-.25.29-.01.29.28v.26a.41.4 89.3 0 1-.39.41l-9.02.33q-.5.02-.89.35-.99.83-1.48 2.06-.47.19-.89.73-.64.32-1.15.87-.36.38-.07.82.41.61 1.21 1.01.42.75-.17 1.11l-1.79-1.29q-.43-.3-.8.06l-1.26 1.22q-.3.3-.52-.07l-.14-.24a.24.23-39.2 0 1 .03-.28l1.09-1.24q.47-.54-.06-1.02l-3.35-3.03q-.44-.39-1.03-.38l-8.77.17q-.54.01-.93.39c-1.9 1.94-5.21 4.56-5.71 7.23q-1.5 1.85.17 3.4l4.5 4.52q-.08.21 0 .4.09.2.29.26.21.07.26.12 1.65 1.16 2.09 2.09l-1.48.8q-.31-1.08-1.54-1.75.1-.55-.61-.77l-3.43-3.68q-.36-.39-.44.13-.63 3.76 2.29 5.08.26.68.77.65 1.13 1.61 3.06 2.82l1.41 1.15q.05.09.09.18-.72.87-1.43 1.13-1.13-2.61-4.18-4.26.03-.62-.47-.88c-3.26-1.86-2.57-4.92-2.92-7.98q.19-.76.07-1.45l.27-1.27q.12-.53-.39-.73-.98-.39-1.93-.13-.95-.27-1.46.08l-15.38.53q-.57.02-.57.59.01 19.34.01 38.75 0 .18-.1.33-.21.3-.5.18l-.44-1.34-.02-18.32q0-.52-.36-.88l-5.7-5.71-1.02-1.48.19-6.4a.43.42.6 0 0-.44-.44l-5.22.17a.45.45 0 0 0-.44.45q.04 8.48-.01 17.31-.45.04.26.49-.27.81-.81 1.49-.2-.12-.35-.29-.14-.17-.14-.4.12-9.15.03-18.8a1.25 1.25 0 0 1 1.21-1.26l5.1-.16q.65-.02.71-.67l.1-1.28q.04-.51.4-.88l6.48-6.72q.24-.24.48 0l.2.22q.27.28-.01.56-3.07 3.1-6.06 6.26c-.5.53-.67 1.1-.61 1.82q.05.55.6.56l1.81.03q.22 0 .19.22l-.05.53q-.04.32-.36.27-.87-.14-1.58-.01-.59.1-.56.69l.29 5.65a2.25 2.23-68.8 0 0 .64 1.47l4.56 4.67q.53.55.53-.21l-.01-17.62a1.21 1.2 88.8 0 1 1.15-1.21l8.98-.44a1.45 1.43 19.7 0 0 1.03-.48l.44-.49q.46-.51-.23-.51-3.49.04-6.88-.36-.67-.08-.52.58.04.22-.2.43-.45.39-.54-.2l-.27-1.78q-.09-.52-.45-.9l-5.32-5.51q-.47-.49-.47-1.16v-5.54q0-.27-.26-.28l-2.21-.14a.24.24 0 0 0-.26.25v9.59a.32.31 90 0 1-.31.32l-.33-.01q-.37 0-.37-.37v-9.2q0-.77-.77-.67c-1.24.16-2.19-.12-3.06-1.06q-1.06-1.15-2.12-2.41-.31-.67-.02-1.41"/><rect width=".98" height="10.16" x="-.49" y="-5.08" fill="#046905" fill-opacity=".996" rx=".47" transform="rotate(-.1 36951.066 -33972.817)"/><path fill="#046905" fill-opacity=".996" d="M156.26 60.01q.84 5.68.17 11.09-.65-.38-1.26-.31l-.04-9.61zM194.52 60.77l-3.96 4.11q-.38.4.03.77l6.09 5.46q.66.79 1.03.49 4.15-.08 8.25-.29c.9-.04 1.24-.47 1.83-1.06l.14 1.69-10.26 1.09q-.16-.34-.44-.45-.41-.16-.57.15-3.47-3.18-7.1-6.29-1.08-.92-.59-3.66l.75-.82.02.76q.05 1.45 1.05.4l2.2-2.28q.85-.35 1.53-.07"/><rect width="1" height="10.14" x="344.56" y="60.8" fill="#f8f9f9" fill-opacity=".996" rx=".46"/><path fill="#f8f9f9" fill-opacity=".996" d="M156.27 78.27q-.49.89-.87.52c-.18-2.04-.24-3.43 1.29-5.02q5.89-6.11 11.91-12.27.24-.24.43.03l.19.27a.39.39 0 0 1-.04.51l-12.22 12.63q-.43.45-.48 1.06z"/><path fill="#046905" fill-opacity=".996" d="M209.11 69.99q-.45-.37-.3-.76l4.59-4.77q.24-.24.51-.04.12.09.18.24.06.13-.04.24z"/><rect width="1" height="10.12" x="-.5" y="-5.06" fill="#f8f9f9" fill-opacity=".996" rx=".48" transform="rotate(.1 -40139.09 42090.151)"/><rect width="10.26" height=".98" x="-5.13" y="-.49" fill="#f8f9f9" fill-opacity=".996" rx=".47" transform="rotate(-2 2023.568 -7258.193)"/><rect width="1.32" height="10.4" x="-.66" y="-5.2" fill="#046905" fill-opacity=".996" rx=".57" transform="rotate(-.1 40732.123 -217275.997)"/><path fill="#f8f9f9" fill-opacity=".996" d="M208.81 69.23q-.15.39.3.76l.03 5.66q0 .47-.3.84l-2.99 3.59a.83.83 0 0 0 .67 1.36l9.87-.34q.35.89-.14.9-4.46.15-8.91.37c-.92.05-1.47-.31-2.26-.65a.8.79 13.7 0 0-1.11.67q-.09 1.23 1.19 1.23 4.58-.02 9.16-.26.26-.01.31.24l.07.43q.06.35-.29.36l-9.01.35q-.5.02-.92-.26-.9-.59-1.93-.81-.36-.08-.45-.43l-.16-.69a.68.65 14.7 0 0-.19-.31l-4.15-3.75q-.38-.34-.73.02l-6.21 6.38q-.22.22-.44-.01l-.24-.25q-.2-.21 0-.42l2.23-2.33q.42-.44-.17-.56-5.01-1.01-7.63 3.3l-.85-.47 1.81-2.34q.35-.46-.23-.48-.7-.02-1.12.39-2.7 2.69-6.2 6.74-.33.38-.31.88l.04 1.23q-.39.25-.72-.54-.21-.48-.63-.18-.37.27-.61.81-.45.35-.55.6-.18.48.33.54.87.11 1.01-.39.89.22 1.34 1.18-1.24 6.01 1.37 5.29 1.49.6 1.62-.22 2.08.4 2.24-.51.5-.4 1.2.32.9.36 1.85-.07 1.15.38 2.51.04.37.34.72.05 1.38-.75 2.65-.13.22.11.4-.05.18-.15.27-.36a.56.56 0 0 0-.08-.57q-.26-.34-.81-.59l5-5.13q.23-.23.43.02l.27.34q.11.14-.02.28L193.8 95a1.37 1.36 21.8 0 0 .99 2.31c1.23 0 2.09-.04 3-.98q2.87-2.98 5.6-5.84a1.64 1.63-75.7 0 1 .77-.46q1.06-.29 2.33-.18.97.08.27-.6l-.99-.95q-.7-.68-1.38.03l-5.66 5.94a.44.43-52.7 0 1-.53.08l-.28-.16q-.35-.19-.07-.48l6.49-6.65q.39-.39.89-.17 1.27.56 2.45 1.74.17.27 1.05.7 1.52.71 3.32.15.56-.17.12-.56l-3.11-2.71q-.16-.14-.03-.31l.27-.31q.08-.1.18-.02 4.54 3.24 7.97 7.12.34.39.85.37l3.96-.12q.32-.01.35.31l.02.33q.02.32-.3.33l-4.14.17q-.62.03-.58.65l.53 7.51q.03.4-.37.43l-.33.03q-.26.02-.28-.24l-.57-7.93a.41.41 0 0 0-.43-.38l-3.14.1a1.38 1.35-24.9 0 1-.91-.32l-3.15-2.68q-.63-.33-1.43-.31-1.35-.26-2.74-.03-.51.08-.86.46l-5.88 6.13q-.4.41-.96.54-1.31.31-2.78.16-.64-.07-.6.57l.39 5.78q.01.2-.19.22l-.36.03q-.42.03-.45-.39l-.41-5.6a.63.62-5.7 0 0-.7-.57q-1.93.26-1.02 1.86-.84-.12-1.06-.89-.14-.48-.6-.65-.7-.26-1.36.45-1.43-.76-3.26-.36-.6.12-.55.74l.17 2.47q.02.27-.25.27l-.38-.01a.35.34-.9 0 1-.34-.32l-.2-2.37q-.05-.54-.57-.69-.8-.22-1.83-.02-.36-.76-1.51.01-2.94.84-2.81-1.18.13-2.03.02-4.17-.02-.57-.6-.57c-.98 0-2.13-.22-2.93.46q-1.36 1.17-2.77 2.93-.63.78.35.59 1.26-.25 2.63-.02.3.05.27.35l-.03.33q-.01.13-.13.14l-3.07.16a.6.59-1.5 0 0-.57.59l-.05 8.08q0 .14-.14.14h-.34q-.46.01-.47-.46l-.01-7.66q0-.64-.64-.62l-3.69.13q-.61.03-.64.64l-.24 4.38-.95-.16-.42-.78.31-3.9q.71-.26 1.43-1.13l4.31-.23q.53-.02.53-.55l.02-9.47a.94.93 89.1 0 1 .9-.94l8.52-.33a1.57 1.56-1.1 0 0 1.51-1.56l.02-3.84q.59-.36.17-1.11-.41-1.39.01-2.7.42-.54.89-.73l-.07 7.7q-.01.8.49.18c1.6-1.96 2.54-3.17 5.3-3.06q.58.02.99-.39l3.07-3.13a.37.37 0 0 1 .56.03l.22.26q.17.22-.02.41l-2.32 2.32q-.54.54.22.5l4.34-.24q.55-.02.92-.42l1.93-2.05q.37-.39.37-.92l.04-4q.16-.31.57-.15.28.11.44.45l.02 3.66q.01.53.4.89l4.29 3.93a.71.7-46.5 0 0 .98-.03l.3-.31q.52-.54-.03-1.04l-4.9-4.44q-.27-.25-.02-.51l.2-.2q.24-.25.5-.02l4.84 4.42q.5.46.94-.07l2.66-3.2a1.39 1.36-27.6 0 0 .32-.98l-.24-3.19-.14-1.69-.13-4.33q-.01-.19.18-.19h.37q.31-.01.33.3zm-39.18 25.06a.33.33 0 0 0 .57.22l7.04-7.44a.33.33 0 0 0-.26-.56l-7.13.3a.33.33 0 0 0-.32.34zm44.26-3.64a.35.35 0 0 0-.23-.08h-3.17a.35.35 0 0 0-.22.62l2.38 1.94a.35.35 0 0 0 .23.08l3.02-.03a.35.35 0 0 0 .22-.62z"/><path fill="#046905" fill-opacity=".996" d="m331.42 71.94-.7-.59q-.33-2.29-.08-4.6.04-.32.28-.37.45-.08.45.37z"/><path fill="#f8f9f9" fill-opacity=".996" d="m52.76 66.96.09 9.37q0 .14-.13.21l-.41.23q-.39.21-.39-.23l-.05-10.03q.54-.14.89.45"/><rect width="10.26" height=".98" x="-5.13" y="-.49" fill="#f8f9f9" fill-opacity=".996" rx=".47" transform="rotate(42.1 16.677 320.284)"/><path fill="#f8f9f9" fill-opacity=".996" d="m331.69 73.7-1.09-.94-3.06-3.12.87-.28 2.31 1.99.7.59 3.77 3.6q.37.36.89.34l8.62-.26a1.42 1.42 0 0 0 .98-.44l6.42-6.59q.14-.15.29-.01l.28.28a.43.43 0 0 1 .01.61l-6.48 6.63q-.46.48-1.13.5l-9.16.28q-.6.02-1.04-.37z"/><rect width="1" height="10.16" x="-.5" y="-5.08" fill="#046905" fill-opacity=".996" rx=".47" transform="rotate(.1 -42731.572 65245.65)"/><rect width="1" height="10.18" x="-.5" y="-5.09" fill="#f8f9f9" fill-opacity=".996" rx=".48" transform="rotate(44 94.985 496.908)"/><path fill="#f8f9f9" fill-opacity=".996" d="m354.92 71.68-5.78 5.95q-.36.37-.32.89l.52 7.76q-.05.78.28 1.51l4.17 3.77.75.56q1.57 2.79 5.17 1.75l1.52-.15q.18.1.41.05.58-.06 1.15.09l3.46.07q.44.01.25.41l-.18.36q-.09.17-.28.15-1.68-.19-3.18.38-.21 1.01.09 1.63l-.09 6.25q-.01.52.38.87l6.56 5.91q.15.14.06.31l-.21.38q-.19.34-.48.08l-6.51-5.86a.61.6-46.7 0 0-.84.03l-13.19 13.59q-.34.35-.56-.08l-.17-.33q-.08-.15.03-.27l13.2-13.67q.35-.36.35-.86l-.01-7.34a.85.84-.7 0 0-.87-.84l-3.78.11q-.52.01-.93-.32l-2.3-1.84-.62-.56-4.5-4.17q-.27-.43-.38-.93l-.43-8.3a3.18 3.16-25 0 1 .87-2.37l6.07-6.41q.71-.32.32 1.44M155.17 70.79q.61-.07 1.26.31l-6.21 6.59q-.35.37-.12.83.33.7 1.17 1.35-.75.25-1.52.13-.19-.7-.79-1.02-.2-1.37.39-1.87 2.08-1.76 3.23-3.42zM82.82 96.39q.18.56.12 1.07l-2.42-.17a1.29 1.26 69.5 0 1-.85-.4L66.16 82.87q-.17-.18.01-.34l.26-.24q.29-.25.55.02l5.39 5.56q.53.54.54-.21.05-2.57-.08-5.86c-.06-1.51.13-2.53 1.17-3.59q2.91-2.94 5.87-6.03.14-.14.31-.05l.4.21q.33.18.07.45l-6.18 6.37a2.04 2-23.4 0 0-.57 1.4v8.4q0 .54.38.93l5.94 6.13q.38.39.92.38z"/><path fill="#046905" fill-opacity=".996" d="M331.69 73.7q-.39.8.09 2.19a.41.41 0 0 1-.18.49l-.45.26q-.28.17-.39-.15-.64-1.86-.16-3.73zM83 83.29v-9.5a.24.24 0 0 1 .26-.24l.51.05a.24.24 0 0 1 .22.24l-.01 9.92a.24.24 0 0 1-.07.17l-6.84 7.11a.24.24 0 0 1-.32.02l-.4-.3a.24.24 0 0 1-.03-.36l6.61-6.94a.24.24 0 0 0 .07-.17M216.39 81.1l-6.28-5.7a.34.33-54.1 0 1-.06-.42l.16-.28q.22-.36.53-.08l6.64 5.97q.48.42 1.11.4l9-.29q.22-.01.23.21l.01.27q.02.48-.46.5-4.62.21-9.27.33-.68.02-1.61-.91"/><path fill="#f8f9f9" fill-opacity=".996" d="M316.85 82.03q-.59.44-.84.92-.6.25-.86.85-.73.35-.56 1.45.07 9.32-.04 18.13-.01 1.35-.98 1.37l-.39-1.19q-.02-9.18 0-18.31.01-1.68 2.23-3.39l.49-.55 4.46-4.51q.21-.21.43-.01l.21.18a.44.44 0 0 1 .03.63z"/><rect width=".98" height="10.24" x="-.49" y="-5.12" fill="#f8f9f9" fill-opacity=".996" rx=".47" transform="rotate(-.1 47872.323 -28182.139)"/><path fill="#046905" fill-opacity=".996" d="m232.4 79.62-6.61 6.82a.25.25 0 0 1-.31.04l-.43-.27a.25.25 0 0 1-.05-.38l6.96-7.2a.25.25 0 0 1 .17-.07l9.98-.36a.25.25 0 0 1 .26.27l-.03.5a.25.25 0 0 1-.24.23l-9.53.35a.25.25 0 0 0-.17.07"/><path fill="#f8f9f9" fill-opacity=".996" d="M84.14 97.31q-.33-.72.1-.96l5.65-.32q.53-.03.9-.41l5.74-5.93a1.83 1.78 67.9 0 0 .5-1.23l.04-8.95q0-.19.18-.26l.31-.12q.49-.19.49.33l-.01 9.57q0 .53-.38.92l-6.54 6.75q-.39.39-.94.41z"/><path fill="#046905" fill-opacity=".996" d="m315.9 81.31-.49.55-1.53-1.38q-.41-.37.01-.73.11-.09.27-.11.17-.02.34.1.86.6 1.4 1.57"/><rect width="10.12" height="1" x="-5.06" y="-.5" fill="#f8f9f9" fill-opacity=".996" rx=".48" transform="rotate(-2.1 2317.875 -6827.729)"/><path fill="#046905" fill-opacity=".996" d="M348.09 87.32q.11.5.38.93l-5.99 6.18q-.25.26-.46-.03l-.17-.24a.4.4 0 0 1 .05-.5l2.28-2.36q.4-.41.4-.99l-.05-8.82q0-.35.35-.38l.33-.02q.39-.02.39.37l-.05 7.6q0 .71.51.22z"/><path fill="#f8f9f9" fill-opacity=".996" d="m152.76 81.43 2.05 2.13q.12.69-.07 1.45l-3.44-3.5q.51-.35 1.46-.08M156.31 81.6l.17 3.4q-1.67-1.55-.17-3.4"/><path fill="#046905" fill-opacity=".996" d="M316.85 82.03q.86 1.31 2.39 1.49.46.06.41.52-.12 1.06.66 1.28.17.62-.18 1.69-2.68-3.79-5.54-1.76-.17-1.1.56-1.45.74.28 1.19-.41.13-.21.04-.32t-.37-.12q.25-.48.84-.92M321.4 84.42q.4-.3.09-1.05l2.05-.01a.35.35 0 0 1 .35.33l.01.27q.03.33-.31.35zM64.35 88.27q.02.54.55.71c1.06 1.01 1.81 1.66 1.9 3.25q.24 4.63-.02 9.29-.43-.27-.85-.25-.09-4.25.01-8.52.05-2.07-1.87-2.8.06-.4-.13-.68-.21-.32-.56 0-.01-.21-.05-.37-.03-.17-.16-.29-2.22-2.1-4.02-4.23-.2-.24.06-.41l.23-.15a.46.46 0 0 1 .57.06z"/><rect width="1.02" height="10.02" x="151.45" y="83.86" fill="#046905" fill-opacity=".996" rx=".45"/><path fill="#046905" fill-opacity=".996" d="m184.41 84.62.03 7.79q0 .4-.37.23l-.27-.12q-.24-.18-.27-.68l.03-7.69z"/><rect width="1" height="10.16" x="-.5" y="-5.08" fill="#046905" fill-opacity=".996" rx=".48" transform="rotate(-4.1 1373.651 -3341.861)"/><path fill="#046905" fill-opacity=".996" d="M208.73 89.33q-.88-.43-1.05-.7l-.02-3.18a.34.33-87.7 0 1 .36-.34l.3.03q.5.04.41.53-.31 1.76 0 3.66M349.62 87.79q-.33-.73-.28-1.51.3.51.41.28 4.42-.24 8.96-.36a.31.31 0 0 1 .32.29l.02.33q.01.3-.29.32-4.39.31-8.67.21-.27-.01-.47.44M313.18 103.56l.39 1.19-1.64.17q-.54.06-.61.6l-.08.64q-.12.94-.6.12-.26-.46-.33-.99a.64.63-3.1 0 0-.62-.55l-5.03-.15a2.63 2.61-20.9 0 1-1.78-.79l-6.03-6.23q-.56-.58-.56-1.39l.03-9.23a.32.31 88.1 0 1 .29-.32l.3-.03q.37-.03.37.33l.02 9.04a1.45 1.44-67.3 0 0 .41 1.01l5.81 6.06q.52.54 1.28.56l4.86.15q.68.02.68-.66l-.01-6.42q0-.33.34-.34h.3q.37 0 .37.37v6.44q0 .45.4.65.69.36 1.44-.23"/><path fill="#f8f9f9" fill-opacity=".996" d="M64.9 88.98q-.53-.17-.55-.71l1.41-1.43q.27-.26.58-.05.13.09.21.25.1.17-.04.31zM161.53 90.3q-.05-.05-.26-.12-.2-.06-.29-.26-.08-.19 0-.4.65-.75 1.36-1.3.21-.16.46-.15.2 0 .27.19.11.3-.11.53z"/><path fill="#046905" fill-opacity=".996" d="m328.33 88.95.07 8.67a.59.58-1.4 0 0 .61.57l8.69-.3a.26.25 87.8 0 1 .26.25l.02.45q.01.3-.29.31l-8.72.3q-.54.02-.53.56l.28 18.7q-.4.5-1.37.78l-6.81-7.15q.68-.49 1.09-.52l5.41 5.46q.46.47.45-.19-.06-8.23-.06-16.61c0-1.43-.6-2.19-1.76-2.85q.27-.45-.64-.66-1.24-1.91-3.11-3.4-.51-.4-.51.24l-.01 3.33q0 .26-.25.26l-.33.01q-.31.01-.32-.3l-.2-5.56q1.21.22 1.28-.44 1.29 2.56 4.3 4.76-.13.21-.08.49.05.3.35.36.13.02.28.02.12.18.26.28.4.27.64-.15.37-.63.13-1.13.21-.35.06-.73-.1-.23-.24-.24l.23-5.75q.38.26.82.18"/><path fill="#f8f9f9" fill-opacity=".996" d="M362.95 90.15q-.2-.08-.22-.41-.04-.5.25-.63l12.85-.42q.3-.01.31.29l.01.3q.01.38-.37.39zM64.07 89.95l-3.83 4.15q-.35.37-.35.88l-.03 8.96q-.43.47-.88.39l.01-9.82q0-.52.35-.89l4.04-4.35q.35-.32.56 0 .19.28.13.68"/><path fill="#046905" fill-opacity=".996" d="m287.24 106.48 6.89 7.27a.22.22 0 0 1 .06.15l.01 9.92a.22.22 0 0 1-.23.22l-.57-.04a.22.22 0 0 1-.21-.22l-.02-9.55a.22.22 0 0 0-.06-.15l-6.86-7.16a.22.22 0 0 1-.06-.15l-.01-10.24a.22.22 0 0 1 .06-.15l7.01-7.23a.22.22 0 0 1 .31-.01l.34.34a.22.22 0 0 1 .01.31l-6.67 6.98a.22.22 0 0 0-.06.15v9.41a.22.22 0 0 0 .06.15"/><path fill="#f8f9f9" fill-opacity=".996" d="M361.41 89.21q.26.14.36.32.1.21-.06.4-.15.18-.41.25l-3.83.19q-1.65.13-1.49-.92z"/><rect width=".98" height="10.18" x="-.49" y="-5.09" fill="#f8f9f9" fill-opacity=".996" rx=".47" transform="rotate(-.1 54224.99 -59362.704)"/><path fill="#046905" fill-opacity=".996" d="m177.55 90.57.83 1.03q.28.46 1.39.91 1.13 1.64 3.13 2.74.05.48.44.63.33.13.63-.09.14.08.27.17.23.18.38-.07.19-.28-.07-.65-.17-.23-.45-.2-.34-.72-.24-1.58.12-.02.25-.02.3.01.42.28c1.42 3.12 4.41 2.66 7.13 2.07q.55.25.81.59a.56.56 0 0 1 .08.57q-.09.21-.27.36-.18.16-.4.05-1.27-.62-2.65.13-.28-.28-.72-.05-1.36.34-2.51-.04-.76-.96-1.85.07-.7-.72-1.2-.32l-5.23-4.56q-.45-.96-1.34-1.18-.41-.7-.79-.75.24-.54.61-.81.42-.3.63.18.33.79.72.54M355.98 89.45q-.16 1.05 1.49.92l3.76 3.35-1.52.15-3.06-2.63q-.41-.35-.91-.15-.65.26-1.2 1.03l-.75-.56z"/><path fill="#f8f9f9" fill-opacity=".996" d="M159.99 90.67q.71.22.61.77l-1.42 1.41q-.51.03-.77-.65z"/><path fill="#046905" fill-opacity=".996" d="M208.96 91.25q-.09-.12-.23-.08-.17.04-.15.22c.17 1.22.23 2.5-.68 3.48q-3.04 3.25-6.3 6.49a.31.31 0 0 1-.48-.06l-.19-.29a.35.35 0 0 1 .04-.43q2.89-2.95 5.87-6c.99-1.01.94-2.34.69-3.64q.8-.02 1.43.31"/><rect width="1" height="10.28" x="-.5" y="-5.14" fill="#046905" fill-opacity=".996" rx=".48" transform="rotate(44 -44.919 227.489)"/><path fill="#f8f9f9" fill-opacity=".996" d="M183.53 91.84q.03.5.27.68l.06.94q-.1.86.24 1.58-.22.39-.13.75-.3.22-.63.09-.39-.15-.44-.63l-.23-2.02q-.06-.55-.6-.58l-2.3-.14q-1.11-.45-1.39-.91zM163.62 92.39l.03 4.43-1.41-1.15-.1-2.48z"/><path fill="#046905" fill-opacity=".996" d="m352.97 92.42.62.56-4.07 4.25q-.23.25-.46 0l-.21-.25q-.16-.18.01-.36z"/><path fill="#f8f9f9" fill-opacity=".996" d="m158.13 93.87-1.2 1.46q-.32.38-.32.89l-.06 9.22-.58.85q-.77-.81-.77-1.29 0-3.67-.04-7.41c-.02-2.25.91-3.27 2.5-4.6q.5.26.47.88"/><path fill="#046905" fill-opacity=".996" d="M84.24 96.35q-.43.24-.1.96l-.19 6.45q-.01.51.34.89l3.34 3.55a.27.27 0 0 1-.06.42l-.35.2q-.18.1-.33-.05L80.32 102q-.82-.85.35-.65 1.07.18 1.48 1.02.75 1.54.76-.14l.03-4.77q.06-.51-.12-1.07l.29-2.44q.02-.19.21-.2h.38q.22 0 .21.23-.03 1.28.33 2.37"/><path fill="#f8f9f9" fill-opacity=".996" d="m128.24 95.64-.03 4.07q-.01.57-.4.98l-6.37 6.65q-.16.16-.39.12-.21-.05-.3-.23.54-.68.81-1.49l5.34-5.63q.36-.38.35-.9l-.03-5.05zM327.28 94.52q.14.01.24.24.15.38-.06.73l-1.03 1q-.15 0-.28-.02-.3-.06-.35-.36-.05-.28.08-.49.59-.87 1.4-1.1"/><path fill="#046905" fill-opacity=".996" d="M180.71 97.66q-.13.82-1.62.22.8-.78.45-2.29-.07-.29.23-.3l.45-.01q.23 0 .25.22zM362.86 95.23l.68 1.01a.38.38 0 0 1-.17.56q-.17.07-.42.06-.3-.62-.09-1.63"/><rect width=".98" height="10.18" x="31.65" y="96.27" fill="#f8f9f9" fill-opacity=".996" rx=".47"/><path fill="#f8f9f9" fill-opacity=".996" d="M325.03 96.72q.91.21.64.66l-3.76 3.93a1.21 1.17-24.2 0 0-.34.85l.06 9.41q-.41.03-1.09.52l.1-10.34q.01-.51.36-.88z"/><rect width=".98" height="10.06" x="-.49" y="-5.03" fill="#046905" fill-opacity=".996" rx=".47" transform="rotate(.2 -29092.403 75268.828)"/><path fill="#f8f9f9" fill-opacity=".996" d="M242.85 106.69q-.07.54.15 1.03-.43 2.18.28 4.19-.26.7-.01 1.29l-.08 2.34q-.02.4-.41.31l-.32-.07a.35.34-87.8 0 1-.27-.3l-.43-4.02q.25-1.55-.25-3.52.55-2.29-2.06-3.73-.5-.28-.48.29l.07 2.78q-.22.28-.75.53-.62-1.97-.42-4.11a1.9 1.88 24.3 0 0-.59-1.54l-2.81-2.61q-.27-.25.01-.5l.28-.24q.06-.06.13-.01 1.38.99 2.35 2.01.63.66.65-.26l.05-3.05q.01-.32.31-.25l.34.07q.29.06.3.36l.06 4.24q.01.57.48.89 2.36 1.62 3.42 3.88"/><path fill="#046905" fill-opacity=".996" d="M180.74 98.72q-.47 1.96-.02 3.94.13.53.53.89l8.66 7.78q.44.4.55-.18.36-1.78-.46-2.84.74-1.18.52-3.36.26-.43.03-1.16.22-1.9-.87-2.58l-1.73-2.2q.66-.71 1.36-.45.46.17.6.65.22.77 1.06.89.86 5.14.59 10.78-.05 1.15.25 2.15c.33 1.06-.26 2-.27 3.07q-.05 2.68-.09 5.39 0 .27-.27.26l-.44-.01q-.23-.01-.23-.24l.01-5.02q0-.72-.46-.17l-3.99 4.78q-.36.43-.33.99l.62 9.15q.01.2-.19.22l-.34.03q-.46.05-.49-.41l-.63-9.27a1.54 1.52 63.6 0 1 .36-1.09l4.84-5.76q1.07-1.28-.17-2.4l-8.58-7.73q-.48-.44-.68.18l-.26.81a.38.32-21.6 0 1-.07.13l-6.66 6.84q-.17.19-.33-.01l-.21-.25a.49.47-43.1 0 1 .03-.63l6.15-6.37a1.75 1.75 0 0 0-.04-2.47l-2.35-2.28q-1.01-.98.35-.65 1.13.28 1.85 1.42.42.66.59-.11.29-1.32-.3-2.7 1.15-.77 1.51-.01"/><path fill="#f8f9f9" fill-opacity=".996" d="m218.52 107.41.63 9.5a.25.25 0 0 1-.24.27l-.49.01a.25.25 0 0 1-.26-.24l-.66-9.87a.25.25 0 0 1 .05-.18l6.33-7.54a.25.25 0 0 1 .28-.08l.49.19a.25.25 0 0 1 .1.39l-6.18 7.37a.25.25 0 0 0-.05.18M66.78 101.52l.09 9.31q-.01.33-.25.49-.49.33-.63-.24-.16-.65-.11-1.11l.05-8.7q.42-.02.85.25M190.55 103.79q.08.61-.03 1.16.22 2.18-.52 3.36l-.32-7.1q1.09.68.87 2.58M328.41 129.14q-.38.35-.95.1l-.11-10q.97-.28 1.37-.78l8.61-.37q.54-.02.92-.41l5.86-6.1q.45-.46.45-1.11l.01-8.91q0-.35.35-.36l.28-.01a.34.33 0 0 1 .34.33l.02 9.41q0 .63-.44 1.08l-6.43 6.61a1.64 1.58-67.9 0 1-1.1.49l-8.59.29q-.61.02-.61.62z"/><path fill="#046905" fill-opacity=".996" d="M243 107.72q-.22-.49-.15-1.03c1.19-1.43 3.43-4.49 5.49-4.56q4.41-.17 8.87-.27.27-.01.24.25l-.04.31a.45.45 0 0 1-.42.4l-8.98.34a1.55 1.53-68.8 0 0-1.01.45zM162 102.03l.42.78-3.96 4.13a.43.43 0 0 0 0 .6l3.57 3.71q.39.4.39-.16v-8.28l.95.16.01 20.12q-.39-.3-.91-.1l-.06-9.3q0-.57-.39-.99l-4.05-4.24q-.45-.47-.92-.01l-4 4.04q-.64-.22-.5-.75l3.7-4.09q.32-.35.08-.76l-.36-.6.58-.85q.13.57.2.63a1.01 1.01 0 0 0 1.44-.16q1.73-2.26 3.81-3.88M59.86 103.94l6.02 6.03q-.05.46.11 1.11.14.57.63.24.24-.16.25-.49l9.32-.07a.3.3 0 0 1 .3.29l.01.29q0 .26-.26.27l-8.78.34q-.57.03-.57.6l-.03 8.7q0 .42-.42.44l-.31.01q-.24.01-.24-.23l-.01-9.01q0-.8-.55-1.37l-.89-.91q-.59-.6-.6.24l-.09 7.69a.46.46 0 0 1-.5.46l-.27-.01q-.15-.02-.15-.17l-.02-9.33q0-.5-.34-.88l-3.49-3.85q.45.08.88-.39"/><path fill="#f8f9f9" fill-opacity=".996" d="M152.55 111.74q-.14.53.5.75-1.24 1.81-.25 2.64.84.84-1.13.15-.12-.22-.39-.29-.21-1.24-.99-1.14l-1.5-1.58a.37.36 43.2 0 1-.02-.49l.19-.23a.28.27 40.2 0 1 .4-.03l1.6 1.48.17.49q.07.21.26.12.12-.05.24-.12.18-.1.08-.29-.12-.24-.29-.43l.05-8.36q0-.34.34-.33h.33q.31.01.31.32zM134.32 120.55l.44 1.34-6.73-6.47a2.32 2.3-68.3 0 1-.71-1.67l.03-9.02a.36.36 0 0 1 .31-.36l.27-.03q.38-.04.39.34l.02 9.09q0 .52.36.9z"/><rect width="10.18" height="1" x="-5.09" y="-.5" fill="#046905" fill-opacity=".996" rx=".48" transform="rotate(2.1 -2915.97 1366.903)"/><path fill="#046905" fill-opacity=".996" d="M241.51 107.94q.5 1.97.25 3.52l-3.47-3.65q.53-.25.75-.53l1.16 1.18q.43.43.85-.02z"/><path fill="#f8f9f9" fill-opacity=".996" d="M204.07 112.56q.3.72-1.58-.07l-4.71-4.17q-.14-.13-.06-.31l.15-.3q.2-.43.56-.12z"/><path fill="#046905" fill-opacity=".996" d="M245.84 124.96q-.55-.11-.84.02-.14-4.48-.08-8.98.02-1.76-1.65-2.8-.25-.59.01-1.29l2.1 1.9q.37.34.88.32l9.03-.27q.24-.01.24.22l.01.36q.01.37-.36.38l-8.7.34a.54.54 0 0 0-.52.53zM204.07 112.56q4.13.08 6.18-.15 1.82-.2 2.43 1.39-.24.06-.34.29-.07.17.01.34.11.22.32.22-.79 2.39 1.32 3.05.98.3 0 .6-.3.1-.61.1-.61.01-.57.62l.24 3.54q.02.33-.3.37l-.37.05q-.32.04-.34-.27l-.25-3.67q-.03-.54-.57-.52l-6.21.15q-.55.01-.93.41l-5.74 5.93a2.34 2.31-23.2 0 0-.66 1.62l-.04 8.55q0 .53-.34.92l-2.71 3.12q-.18-.31-.61-.15-.3.11-.42.38-.14.31-.09.7l-9.74 10.11a.35.35 0 0 1-.51-.01l-.21-.24q-.23-.25.01-.5l13.18-13.62q.38-.38.38-.91l.15-9.5q.97.43.93-1.2l5.75-5.98a2.01 2 20.8 0 1 1.37-.61l6.21-.2q.5-.02.57-.51.14-.97-.18-2.07l.27-.28q.24-.24-.08-.35-.6-.21-.82-.65l-4.99.18-1.72.1q-.81-.04-1.63-.14-.65-.08-.6-.43.05-.34.68-.85 1.88.79 1.58.07M151.42 112.77q.17.19.29.43.1.19-.08.29-.12.07-.24.12-.19.09-.26-.12l-.17-.49q.2-.18.46-.23"/><rect width="10.18" height="1" x="-5.09" y="-.5" fill="#f8f9f9" fill-opacity=".996" rx=".48" transform="rotate(42 -64.185 287.562)"/><path fill="#f8f9f9" fill-opacity=".996" d="m157.04 131.52.78.68 5.49 5.04a.43.42 42.5 0 1 .03.58l-.18.2q-.22.25-.46.03l-5.57-5.05q-.31-.4-1.07-.7c-1.53-2.2-1.24-7.38-1.45-10.08-.07-1.01.21-1.48.59-2.35q.22-.48-.14-.87l-2.13-2.38q.25-.47 1.27-.07l1.91 1.9q.4.39.79-.01l4.56-4.7q.23-.24.48-.01l.22.2a.35.35 0 0 1 .01.49l-5.16 5.35a2.17 2.13 67.8 0 0-.6 1.47q-.02 3.19.01 6.55c.01 1.27-.97 2.54.62 3.73"/><path fill="#046905" fill-opacity=".996" d="M151.28 114.99q-.47.04-.58.27a.37.37 0 0 0 .4.52q.38-.07.57-.5 1.97.69 1.13-.15l5.8.11q.33.01.26.33l-.11.46q-.03.17-.2.18l-4.35.34q-1.02-.4-1.27.07-1.42-.24-2.92.02-.51.09-.51.6l-.13 8.73q-.51 0-.89.25-.24-4.66-.01-9.28c.08-1.52.83-2.1 1.82-3.09q.78-.1.99 1.14"/><path fill="#f8f9f9" fill-opacity=".996" d="M205.76 113.81q2.56.38 4.99-.18.22.44.82.65.32.11.08.35l-.27.28q-2.53-.08-5.13.08-1.37.08-2.21-1.08zM212.68 113.8q1.42-.34 2.43.01.59.21.12.61-.71.59-2.56.23-.21 0-.32-.22-.08-.17-.01-.34.1-.23.34-.29M49.78 123.89q-.14.35-.91.34l.02-9.89q0-.26.26-.25l.39.01q.25.01.25.26z"/><path fill="#046905" fill-opacity=".996" d="M73.98 123.06q-.17.61-.95.72l-.07-9.13q0-.37.36-.33l.27.03a.36.36 0 0 1 .33.36zM66.15 131.29l-.27.87-1.52.02q-.5 0-.51.5l-.12 5.81q0 .2-.21.19l-.28-.01a.45.44-89.3 0 1-.42-.44l-.02-5.54q0-.6-.61-.62l-5.36-.21q-.58-.02-1-.4-1.12-1.01-1.93.22a1.96 1.95-72.3 0 1-1.68.87l-9.32-.31a1.2 1.2 0 0 1-.83-.36l-6.61-6.85a.36.36 0 0 1 .05-.55l.24-.18a.32.31-40.5 0 1 .41.03l6.2 6.4q.42.43 1.02.48 4.72.37 9.22.21a1.32 1.32 0 0 0 .92-2.22l-4.65-4.97q.77.01.91-.34l4.84 4.94q.46.46.94.03l3.69-3.33q.45-.4.45-1.01l.01-9a.3.3 0 0 1 .3-.3h.35q.33 0 .33.32l.02 9.16a1.98 1.97-20.8 0 1-.67 1.48l-4.05 3.6a.58.58 0 0 0 .35 1.01l5.92.28q.6.02.59-.58l-.04-1.56q-.01-.46.45-.44.13 0 .25.08.24.15.25.42l.07 1.51q.02.46.48.52z"/><path fill="#f8f9f9" fill-opacity=".996" d="M197.66 124.28q.04 1.63-.93 1.2l.1-9.92q0-.24.24-.22l.29.03q.3.04.3.34zM73.42 125.27q-.17.05-.64.76-2.77 2.61-5.79 5.69-.49.5-1.11.44l.27-.87 4.73-5.06q.78-.48.74-1.02 1.1-.56 1.41-1.43.78-.11.95-.72l5.94-6.07q.11-.12.28-.06l.34.11a.36.36 0 0 1 .14.59zM252.69 128.05q-.86.06-.85-.39l.11-9.8q0-.28.28-.3l.29-.01q.24-.02.23.23z"/><rect width=".98" height="10.28" x="344.56" y="121.33" fill="#f8f9f9" fill-opacity=".996" rx=".47"/><path fill="#046905" fill-opacity=".996" d="M321.42 131.68q-.36.29-.66.29l-.35-9.78a.4.39 1.3 0 1 .44-.41l.33.03q.23.03.23.26z"/><rect width="1" height="10.1" x="-.5" y="-5.05" fill="#046905" fill-opacity=".996" rx=".45" transform="rotate(.1 -73225.498 63988.835)"/><path fill="#f8f9f9" fill-opacity=".996" d="m163.38 123.09.01 9.75q0 .3-.3.31h-.33q-.3 0-.3-.3l-.07-5.43-.05-1.24.13-3.19q.52-.2.91.1"/><path fill="#046905" fill-opacity=".996" d="M152.36 133.99q-.42.07-.82-.02l-.02-9.45q0-.26.26-.26l.36.01q.23 0 .23.23zM135.06 141.45l-.69.73q-3.2-3.29-6.42-6.64-.57-.59-.61-1.49-.03-.68-.5-.2l-4.27 4.35q-.4.41-.4.97v9.05q0 .3-.31.31h-.35q-.33 0-.33-.33l-.03-8.88a2.56 2.55 67 0 1 .71-1.77l4.99-5.19q.45-.46.45-1.1l.07-6.3q0-.36.37-.37l.35-.01q.21-.01.21.2l.04 5.27q.01.48.27.9l.16.26q.21.33 0 .67c-.75 1.23-.63 2.45.44 3.54q2.94 2.99 5.85 6.03"/><rect width=".98" height="10.28" x="169.45" y="124.5" fill="#046905" fill-opacity=".996" rx=".47"/><path fill="#046905" fill-opacity=".996" d="M252.98 142q-.52-.07-.8.5l-7.09-7.28q.99.17.87-1.76l5.88-5.8q-.01.45.85.39l-6.18 6.36a.6.59-45.4 0 0 0 .83l4.65 4.83q.78.81.78-.31l.01-7.26q0-.64.45-1.1l6.4-6.66q.24-.24.52-.06l.28.19q.29.19.05.44l-6.23 6.46q-.38.38-.38.92z"/><path fill="#f8f9f9" fill-opacity=".996" d="m245.84 124.96.12 8.5q.12 1.93-.87 1.76l-.09-10.24q.29-.13.84-.02"/><path fill="#046905" fill-opacity=".996" d="M71.62 125.21q.04.54-.74 1.02-.26-.16-.39-.34-.14-.21 0-.45.28-.46 1.13-.23M73.42 125.27l6.76.29a.28.27 3.3 0 1 .26.28l-.01.33q0 .22-.23.21l-7.42-.35q.47-.71.64-.76"/><path fill="#f8f9f9" fill-opacity=".996" d="m149.37 125.97.1 9.48q.01.53.45.23.99-.68 1.62-1.71.4.09.82.02l-5.9 6.99-1.42 1.1-9.02.43q-.52.02-.52.54l-.16 9.23-.93-.07-.04-10.03.69-.73q6.4-.13 9.44-.37.38-.03.67-.62l1.38-1.25 2.22-2.19q.4-.4-.17-.38-4.7.16-9.64-.25-.22-.02-.21-.24l.01-.3q.02-.39.4-.37l8.59.27q.66.02.67-.64l.06-8.89q.38-.25.89-.25"/><path fill="#046905" fill-opacity=".996" d="m162.34 126.18.05 1.24-4.57 4.78-.78-.68zM328.41 129.14 328.4 159q0 .55-.52.41l-.26-.07q-.2-.05-.2-.26l-.01-19.93v-1.37l.05-8.54q.57.25.95-.1"/><path fill="#f8f9f9" fill-opacity=".996" d="M274.02 148.36q-.7.24.02 1.22l.02 4.27q0 .54.52.71.49.17 1.24-.04.31.65.17.97-1.44.3-2.39-.13-.48-.22-.49-.74l-.12-4.95q.26-.7-.04-1.35l.17-3.08q.03-.56.41-.96l2.15-2.25q.39-.41.39-.97l.02-9.01a.3.29-89 0 1 .29-.29l.28.01q.43 0 .43.44l-.02 7.61q0 .87.59.23l2.01-2.22a1.96 1.94 20 0 1 1.37-.63l9.27-.31q.45-.02.36.42l-.05.27q-.05.28-.35.3l-8.83.32q-.8.03-1.33.62-2.39 2.67-5.18 5.39c-1.2 1.17-1.08 2.57-.91 4.15M321.42 131.68l5.99 6.1v1.37l-6.65-7.18q.3 0 .66-.29"/><path fill="#046905" fill-opacity=".996" d="M157.13 133q-.41-.24-.48.76-.36 4.68-.23 9.39-.42-.11-.91.16c-.19-3.23-.64-8.03.55-11.01q.76.3 1.07.7"/><rect width="1" height="10.16" x="179.55" y="133.09" fill="#f8f9f9" fill-opacity=".996" rx=".48"/><rect width="10.28" height=".96" x="-5.14" y="-.48" fill="#f8f9f9" fill-opacity=".996" rx=".46" transform="rotate(-1.8 4474.68 -11436.273)"/><path fill="#046905" fill-opacity=".996" d="M314.48 149.28q-1.28.32-1.09-1.42l.15-4.15q.01-.47.34-.81l6.38-6.62a.43.43 0 0 1 .61-.01l.23.22q.18.16.01.33l-6.31 6.58q-.36.38-.35.89zM146.55 139.21l-1.38 1.25q-.61-2.63.72-2.29.93.24.66 1.04"/><rect width="1" height="10.22" x="-.5" y="-5.11" fill="#046905" fill-opacity=".996" rx=".48" transform="rotate(-44.1 214.474 -23.646)"/><path fill="#f8f9f9" fill-opacity=".996" d="M171.98 150.11q.15.61.71 1.09l4.19 4.39q.34.36.85.4.96.06 1.92-.33.35.46.81.09l6.03-.24q.54-.02.92-.41l5.75-5.98q.36-.37.36-.89l-.05-8.08q-.05-.39.09-.7.12-.27.42-.38.43-.16.61.15l-.1 9.42q-.01.51-.35.87-2.98 3.16-5.91 6.21c-1.47 1.53-5.69 1.06-7.81 1.28l-.82.08q-.9-.26-1.6-.05-.5.15-.5.67l.03 6.54.06.94-.2 1.6q-.42-.21-.85-.02.08-.89-.34-1.54.18-.34.12-.8l.08-7.27q.01-.51-.35-.87l-5.26-5.32q-.54-.97-1.07-1.01l-.12-10.59q-.01-.27.26-.25l.26.02q.29.02.29.31.03 4.71.04 9.31 0 1.08 1.53 1.36"/><path fill="#046905" fill-opacity=".996" d="M94.92 151.03q-.78-.9-1.07-1.73l.07-8.05a1.24 1.24 0 0 1 1.21-1.23l9.24-.25q.16 0 .2.15l.09.34a.34.33-9 0 1-.31.42l-8.86.37q-.5.02-.51.53zM146.46 140.98v6.89a.46.45-88.2 0 1-.48.46l-.29-.02q-.58-.04-.59-.62l-.06-5.61z"/><path fill="#f8f9f9" fill-opacity=".996" d="m252.98 142 4.52 4.49.46.54c1.1 1.12 1.88 1.82 1.94 3.51q.16 4.52-.18 9.03l-.71.14q-.18-4.35-.01-8.71.07-1.91-1.76-3.04-.26-.49-.64-.75l-4.42-4.71q.28-.57.8-.5"/><rect width="10.3" height="1" x="-5.15" y="-.5" fill="#046905" fill-opacity=".996" rx=".48" transform="rotate(41.9 -88.517 339.34)"/><path fill="#f8f9f9" fill-opacity=".996" d="m156.42 143.15 6.75 7.11-.16.94-7.23-6.96q-.25-.24-.27-.59-.01-.19 0-.34.49-.27.91-.16M93.85 149.3q.29.83 1.07 1.73l-.01 9.54q0 .28-.28.29l-.27.01q-.4.02-.4-.38l-.02-9.07q0-.6-.41-1.03l-6.2-6.4a.38.38 0 0 1 0-.54l.22-.23a.26.25 44.2 0 1 .37 0z"/><rect width="10.22" height=".98" x="-5.11" y="-.49" fill="#046905" fill-opacity=".996" rx=".47" transform="rotate(1.9 -4288.633 3164.146)"/><rect width="1" height="10.16" x="141.37" y="144.74" fill="#046905" fill-opacity=".996" rx=".48"/><path fill="#046905" fill-opacity=".996" d="m257.96 147.03-.46-.54q.69-1.09 1.06-1.33 1.56-1.02.87.71-.19.47-1.47 1.16"/><path fill="#f8f9f9" fill-opacity=".996" d="M313.39 147.86q-.19 1.74 1.09 1.42l3.92 3.69a.24.23-60.4 0 1 .06.25l-.08.23q-.22.61-.71.18l-3.33-2.96q-.03-.47-.42-.88-.27-.28-.66-.07l-2.23-2.06q-.39-.36-.92-.34l-8.91.27q-.53.02-.54-.5a.48.47 85 0 1 .39-.47q7.25-1.25 12.34 1.24"/><path fill="#046905" fill-opacity=".996" d="m257.24 147.96-3.79 3.97q-.47.49-.47 1.17v8.29q0 .82.57 1.41l4.15 4.26q1.21 1.25 1.23-.49l.08-6.86.71-.14.26 9.69-1 .85-6.72-7.26q-.36-.39-.36-.91l.01-9.19q0-.53.36-.92l4.33-4.62q.38.26.64.75M272.95 148.32q.3.65.04 1.35-1.21-.52-2.6-.13-.68.19-.79-.36a.61.61 0 0 1 .78-.7q1.34.41 2.57-.16M274.02 148.36l5.44.11q.52.01.58.53l.62 5.36q-.43.67-1.26.04l-.21-4.51q-.02-.57-.59-.54l-4.56.23q-.72-.98-.02-1.22M170.79 150.96l-7.78.24.16-.94 6.55-.31q.53.04 1.07 1.01M314.34 150.67l.06 2.66q.01.27-.26.31l-.32.05a.31.3 84.1 0 1-.35-.29l-.21-3.68q.39-.21.66.07.39.41.42.88M172.69 151.2q-.56-.48-.71-1.09.42-.16.73-.02.33.15.29.51-.04.3-.31.6M292.13 154.92q.31-.45-.01-.94l.31-2.78q.04-.37.41-.4.13-.01.25.04.21.08.22.29.35 4.69-.11 9.56-.02.26-.28.21l-.42-.08q-.23-.05-.23-.28zM114.14 161.14l.03-9.53a.25.25 0 0 1 .26-.24l.49.03a.25.25 0 0 1 .23.25l-.01 9.97a.25.25 0 0 1-.08.18l-7.41 6.64a.25.25 0 0 1-.35-.01l-.33-.35a.25.25 0 0 1 .01-.36l7.08-6.4a.25.25 0 0 0 .08-.18"/><path fill="#046905" fill-opacity=".996" d="M277.2 154.48q-.2.54-.03 1l-.21 6.74q-.61-.29-.94-.26l-.03-6.47q.14-.32-.17-.97l.24-2.23q.04-.38.42-.39l.25-.01q.41-.01.42.39zM134.41 152.21l.93.07.06 9.21q0 .54.37.92l10.46 10.82q.48.51.99.03l1.1-1.03q.29-.27.62-.05.15.11.13.34-.01.17-.12.31l-1.09 1.3a.79.78-56.1 0 0 .23 1.19q.72.38.97 1.11a.58.58 0 0 1-.57.77l-2.61-.11q-.55-.03-1.01.28-1.23.83-2.16 2.09a1.7 1.64-28.1 0 0-.33 1.02l.03 9.02q-.19-.27-.87.49-.37-5.89-.14-9.57.12-1.76 1.84-2.84a.27.27 0 0 0-.11-.5c-1.66-.2-3.98.29-5.25-.97q-2.97-2.95-6.02-6.28a2.21 2.18-66.8 0 1-.59-1.5v-8.93q0-.32.32-.3l.39.03a.35.34-88.3 0 1 .32.35l-.03 8.74q-.01.71.5 1.22l5.01 5.11q1.51 1.54 3.65 1.53 1.67 0 2.95-.28 2.42-.54.7-2.33l-10.23-10.57q-.37-.39-.38-.92zm12.01 23.43q.11.23.34.16.25-.09.1-.31-.09-.13-.24-.14a.2.2 0 0 0-.2.29M191.49 161.14q-.25-.04-.83-.41l6.86-7.12q.43-.44 1.04-.46l9.31-.32q.4-.01.28.37l-.12.39a.33.31 6 0 1-.3.23l-8.95.33q-.52.02-.89.39zM180.46 155.75q-.46.37-.81-.09l-.06-1.99a.36.36 0 0 1 .18-.33q.2-.11.42-.06.2.05.24.25.25 1.07.03 2.22"/><path fill="#f8f9f9" fill-opacity=".996" d="M156.46 159q-.22.36-.47.41-.26.05-.67-.27l.14-5.23q.01-.31.31-.28l.36.02q.27.02.27.3zM292.12 153.98q.32.49.01.94l-11.24.41q-.63-.4-1.18.19l-2.54-.04q-.17-.46.03-1l2.2-.08q.83.63 1.26-.04z"/><path fill="#046905" fill-opacity=".996" d="M280.89 155.33q-.32 1.47-.1 3.12a.3.3 0 0 1-.26.34l-.31.04a.29.29 0 0 1-.33-.27l-.18-3.04q.55-.59 1.18-.19M180.42 157q.54 3.98-.43 7.65-.13.5-.65.51l-1.75.02-.06-.94q1.11.18 1.79-.14.45-.2.44-.7l-.16-6.32zM156.46 159l.4 4.49q.05.5.39.87l6.15 6.55-1.08.17-5.4-5.43q-.51-.52-.51.21l-.03 3.43q0 .21-.21.22h-.36q-.21.01-.21-.2l-.28-10.17q.41.32.67.27.25-.05.47-.41"/><path fill="#f8f9f9" fill-opacity=".996" d="M218.77 173.87v1.05l-.16 2.4a.37.37 0 0 1-.31.34q-.25.05-.42-.12-.09-.09-.09-.22l-.07-2.36.03-1.11.07-6.09q.01-.56.41-.97l6.43-6.67a.26.26 0 0 1 .32-.05l.32.18q.42.25.08.59l-6.23 6.42q-.41.42-.41 1.02zM191.49 161.14l-.01 8.91q0 .83.64 1.36l.93.76q.54.44.54-.26v-3.7q0-.34.34-.33l.31.02q.32.01.33.33l.24 5.54q.17.12.34.25l3.11 2.81q.4.36.92.33l6.51-.37q.71.18 1.22.08l1.46.21q.39.06.3.45-.03.13-.14.25-.1.11-.25.13l-2.85.35-1.36-.19-5.33.13q-.57.01-.99-.38l-2.43-2.23q-.71-.65-.72.31v1.55a1.5 1.49 66.6 0 1-.4 1.02l-3.26 3.51-.86.93c-2.36 2.96-3.53 2.92-7.11 2.88q-.77-.01-.25.56l1.88 2.09q-.85-.1-1.3.1l-2.3-2.34q-.4-.39-.95-.28c-1.63.33-3.18.36-4.41-.95q-2.86-3.03-5.66-5.89a1.96 1.96 0 0 1-.55-1.36l.02-9.25q0-.33.33-.3l.41.04q.23.03.23.26l.01 9.08q.01.56.39.96l5.74 5.94q.7.73 1.7.6l.85-.11q.72-.09.22-.62l-2.51-2.65a.44.43 48.5 0 1 .03-.63q.37-.3.64-.04 1.79 1.77 3.45 3.55.35.38.86.36l4.32-.12q.62-.02 1.04-.48l2.58-2.87q.7-.45.59-.76 2.92-1.53 3.4-4.34-.24-.76-.08-1.96l-2.72-2.93q-.35-.37-.34-.88l.07-9.84q.58.37.83.41M276.96 162.22q-.17 1.42-1.27 1.76a1.71 1.7-76.6 0 0-.71.44l-4.6 4.76a2.07 2.06-68.9 0 1-1.41.63l-7.44.25a1.65 1.65 0 0 0-1.59 1.65l.06 17.83q-.28.2-.34.53-.64-.19-.64-.56-.13-6.62-.04-19.4l1-.85 5.47-5.36a2.82 2.82 0 0 1 1.85-.81q3.16-.16 6.61-.23c.89-.01 1.46-.37 2.11-.9q.33-.03.94.26m-14.52 6.32a.3.3 0 0 0 .23.5l6.67-.31a.3.3 0 0 0 .2-.09l4.23-4.34a.3.3 0 0 0-.23-.51l-6.72.32a.3.3 0 0 0-.2.1z"/><path fill="#046905" fill-opacity=".996" d="M176.32 164.42q.06.46-.12.8l-5.92.24a.27.26 86.6 0 1-.27-.25l-.02-.33q-.02-.26.24-.27z"/><path fill="#f8f9f9" fill-opacity=".996" d="M299.23 168.1q.63 1.84-.07 1.35l-4.89-4.44q-.09-.08-.06-.2l.09-.31q.17-.56.6-.18z"/><path fill="#046905" fill-opacity=".996" d="m217.75 173.85-.03 1.11-4.94.06a1.44 1.43 65.9 0 1-.96-.37l-2.52-2.31q-.67-.61-.7.3l-.05 1.99q-.02.54-.44.89-.79.65-1.2 1.35-.51.1-1.22-.08 4.44-4.59-.6-8.24-.45-.33-.05-.7.19-.19.45-.16.18.02.38.24.48.5 1.04.92.72.53.72-.37v-3.4q0-.57.56-.46.33.07.35.38.12 1.35.08 4.84-.01.56.41.93l3.11 2.8q.42.37.98.36z"/><rect width="1.02" height="10.08" x="183.46" y="165.08" fill="#046905" fill-opacity=".996" rx=".41"/><path fill="#046905" fill-opacity=".996" d="m177.39 166.78-.01 9.77q0 .2-.19.21l-.4.03q-.27.02-.27-.26l.02-9.77q.43-.19.85.02"/><path fill="#f8f9f9" fill-opacity=".996" d="m238.96 188.18-.45.59-.32-.27q-.28-.24-.28-.6v-9.35a1.49 1.47-23.4 0 1 .41-1.02l3.13-3.27q.4-.42.4-1.01l.01-5.87q0-.47.43-.29l.42.16q.15.06.15.23l-.01 4.5q0 .88.61.25l1.4-1.47q.14-.14.32-.04l.38.21q.3.17.07.43l-2.31 2.49q-.37.39-.41.93l-.18 2.28q-.01.14-.14.18l-.4.11q-.36.09-.35-.28l.04-1.03q.02-.74-.5-.21l-2.07 2.09q-.39.4-.39.96z"/><path fill="#046905" fill-opacity=".996" d="M300.72 169.45q-.3-.32-.57-.33-.44-.02-.32.4.16.58.58 1.04l.05 17.51q-.4-.28-1.28.2l-.02-18.82q.7.49.07-1.35l10.26-.73q.39-.02.38.37l-.01.28q-.01.37-.38.39-4.3.18-8.48.29-.61.02-.28.75"/><path fill="#f8f9f9" fill-opacity=".996" d="M300.72 169.45q1.05 1.45 2.03 1.34 6.87-.78 13.9-.51.27.01.26.28l-.01.32q0 .23-.24.26-7.87.85-14.41.49-.82-.05-1.84-1.07-.42-.46-.58-1.04-.12-.42.32-.4.27.01.57.33M163.4 170.91l.18 11.51-.27.32q-.22.26-.03.55l.18.26-.1 7.51q0 .2-.2.2l-.35.01q-.38.01-.38-.37l-.01-7.27q-.32-.6-.17-1.22l.07-11.33z"/><path fill="#046905" fill-opacity=".996" d="M195.15 174.02q-.17-.13-.34-.25.64-1.65 1.87-2.26a.4.4 0 0 1 .54.51q-.58 1.41-2.07 2M218.77 174.92v-1.05l3.73-.02q.2-.01.2.19l.01.3q.01.31-.29.33zM193.65 174.38q-.16 1.2.08 1.96-2.85 1.58-3.4 4.34.11.31-.59.76c-.79-3.16 2.01-4.92 3.91-7.06M305.84 193.04l-.7-.76 3.52-3.88.84-.04q1.41-5.3.86-10.85a.38.37-8.1 0 1 .31-.41q.24-.04.45.06.22.1.22.34v9.23q0 .54-.37.93zM252.95 206.92l-.99-.09v-6.3q0-2.64-2.2-4.12-.61-.41-1.43-.58-2.47-.51-2.44 2.02l.1 7.24-1.11-.8-.03-8.04q-.01-.5-.35-.87l-4.04-4.31q.48-.17.78-.45l4.08 4.11q.21 1.99 1.83-.2l8.04-.18q.52-.01.86-.38l3.61-3.9q.06-.33.34-.53c1.22-.66 2.18-1.75 2.1-3.21q-.23-4.09.12-8.25.02-.33.36-.32h.32q.16.01.16.17l-.01 9.31a2.12 2.12 0 0 1-.61 1.49q-2.79 2.88-5.73 5.96-1.24 1.3-4.54.94-1.61-.18-.55 1.05l.95 1.11q.31.36.31.83zM205.43 178.26l-3.95 3.91q-.38.38-.91.4l-8.06.26a1.03 1.03 0 0 0-1 1.05l.17 7.19q-.07.97-1.15 1.46l-.11-3.26a.35.33-77.5 0 0-.17-.28l-.33-.2q-.37-.21-.33-.64l.49-5.24.86-.93 9.1-.42q.5-.02.91-.31 1.79-1.24 3.12-3.18z"/><path fill="#f8f9f9" fill-opacity=".996" d="m309.5 188.36-.84.04-.5-9.7q-.03-.51.47-.65.18-.05.33.11.16.17.17.4zM166.55 184.54q-.54.33-.93-.84-.29-2.14.03-4.12.04-.3.26-.39.45-.18.46.3z"/><path fill="#046905" fill-opacity=".996" d="M162.25 182.41q-.15.62.17 1.22l-10.45 11.36q-.65-.16-.83.56l-.87.88q-.21.31-.45.49-.49.34-.85-.14-.2-.27-.17-.71.85-.28 1.38-1.51.22.11.47-.01.18-.1.24-.3.07-.26-.1-.41zM163.58 182.42q1.08.96 2.04 1.28.39 1.17.93.84l4.1 4.16a.25.25 0 0 1-.03.38l-.4.27q-.2.13-.39-.02l-3.49-2.94q-.38-.74-1-1.1-.77-1.01-1.88-1.74l-.18-.26q-.19-.29.03-.55z"/><path fill="#f8f9f9" fill-opacity=".996" d="M241.24 190.62q-.3.28-.78.45-.49-.15-.49-.52.23-.54.63-.86l5.75-6.01a2.17 2.12 20 0 1 1.46-.66l9.29-.38q.26-.01.26.25v.28a.52.51-90 0 1-.5.51l-8.83.31q-.49.01-.83.37z"/><rect width="1.02" height="20.28" x="-.51" y="-10.14" fill="#046905" fill-opacity=".996" rx=".49" transform="rotate(-.1 111833.622 -128944.027)"/><path fill="#f8f9f9" fill-opacity=".996" d="M198.16 193.68q-.07.64.16.84l-5.86 6.04a3.22 3.2 67.6 0 0-.9 2.18l-.13 8.55q0 .23-.23.23l-.47-.01q-.18 0-.18-.19l-.05-6.74q-.01-.74-.51-.21l-4.73 4.91a3 2.99 44.8 0 0 .02 4.17l6 6.14q-.13 1.19-.76 1.21l-7.68-7.95q-.36-.38-.73-.01l-4.25 4.17q-.41.26-.72-.15-.31-.42.14-.94l3.89-4.02q.37-.38 0-.77l-3.61-3.73-.97-.91q-.88-.43-2.4-.32-1.18.09-2.09.95-.71.68-1.35 1.47-.32.38-.32.89l.01 9.07-.84.48q-.43-6.68-.12-9.8.13-1.34 1.68-2.63.58-.49-.17-.52l-3.87-.13q-.28-.01-.27-.3l.04-.46q.01-.25.27-.24l5.03.17a.96.93-66.1 0 0 .69-.28l3.75-3.75q.1-.1.23-.02l.29.17a.29.29 0 0 1 .07.45l-2.81 3.1q-.36.4.18.43l1.4.07q.73.04 1.23-.48l6.07-6.32q.27.15 1.26.14l-6.31 6.52q-.35.37-.04.76 1.97 2.56 3.66 3.95 1.51 1.23 1.58-.72l.2-6.43.9.47-.01 4.73q0 .7.48.19l4.71-4.88q.49-.52.53-1.23l.24-5q.37-.14.41-.47.05-.49-.47-.84l.1-3.15q1.08-.49 1.15-1.46l5.82-6q.11-.11.26-.05l.31.14q.5.21.12.6l-6.44 6.72q-.2.2-.2.49-.04 3.56-.11 7.18a.04.04 0 0 0 .07.03q2.94-3.23 5.89-6.05a.74.72-74.5 0 1 .33-.19q.29-.08.43-.26M166.34 186.39q.29 1.31.12 2.7-.04.29-.33.29h-.28q-.28 0-.3-.29l-.21-3.8q.62.36 1 1.1M325.07 201.85l-.03-.53a.24.24 0 0 1 .23-.25l9.46-.3a.24.24 0 0 0 .17-.07l13.69-14.14a.24.24 0 0 1 .34-.01l.36.36a.24.24 0 0 1 0 .34l-13.63 14.13a.24.24 0 0 0-.06.19l.66 9.4a.24.24 0 0 0 .08.16l7.05 6.38a.24.24 0 0 0 .17.06l9.49-.28a.24.24 0 0 1 .24.16l.15.48a.24.24 0 0 1-.22.31l-10.03.35a.24.24 0 0 1-.17-.07l-7.63-6.89a.24.24 0 0 1-.08-.16l-.7-9.45a.24.24 0 0 0-.25-.22l-9.04.28a.24.24 0 0 1-.25-.23M247.15 194.53q-1.62 2.19-1.83.2 1.13-.49 1.49-1.73.33-.14.55-.4l4.27-4.29a.56.56 0 0 1 .85.71q-.12.18-.32.39-2.84 2.96-5.01 5.12M300.46 188.07l4.68 4.21.7.76q1.05.83 1.45 1.67.26.55-.35.47-.9-.13-1.93-1.37l-.73-.66-5.1-4.88q.88-.48 1.28-.2"/><path fill="#046905" fill-opacity=".996" d="m238.96 188.18 1.64 1.51q-.4.32-.63.86-1-.73-1.46-1.78zM184.6 188.44l-.05 10.19q-.99.01-1.26-.14l.01-9.95q.45-.2 1.3-.1"/><path fill="#f8f9f9" fill-opacity=".996" d="m142.41 189.5 6.39 6.57q-.03.44.17.71.36.48.85.14.24-.18.45-.49.61.31.95-.18.2-.29-.08-.7.18-.72.83-.56c.61.78 1.37 1.42 2.41 1.31q2.09-.22 4.32-.21.22 0 .23.21l.02.38q.03.4-.38.42l-3.5.12q-.77.03-.27.62l1.21 1.41q.37.42.36.99l-.11 9.94q-.65-.1-.92-.49l.09-7.81q.03-2.84-2.47-4.16-.43-.23-.91-.39-2.72-.88-2.71 1.98l.07 16.52q-.01.65-.71 1.78l-9.69-.36a.28.28 0 0 1-.26-.34l.07-.3q.07-.31.39-.3l8.55.29a.61.6.9 0 0 .63-.6v-17.98a2.31 2.29 23.4 0 0-.64-1.59l-6.21-6.44q.68-.76.87-.49"/><path fill="#046905" fill-opacity=".996" d="M247.36 192.6q-.22.26-.55.4-1.15-.61-1.41-1.48-.19-.62.44-.47.8.19 1.52 1.55"/><path fill="#f8f9f9" fill-opacity=".996" d="M150.79 193.84q.17.15.1.41-.06.2-.24.3-.25.12-.47.01-1.07-.82-1.26-1.67-.14-.63.46-.42.75.27 1.41 1.37"/><rect width="1.02" height="10.06" x="-.51" y="-5.03" fill="#046905" fill-opacity=".996" rx=".42" transform="rotate(.1 -113245.404 163867.435)"/><path fill="#046905" fill-opacity=".996" d="M198.32 194.52q-.23-.2-.16-.84l9.71-.31q.27-.01.26.25v.32q0 .26-.26.26zM305.01 193.81q-.58 1.05-1.17 1.09-4.65.26-9.01.35-.7.02-.69.71l.27 18.32a.67.67 0 0 1-.63.68l-.27.03q-.5.03-.5-.47l.21-19.09a1.13 1.13 0 0 1 1.09-1.12l8.78-.34q.58-.02.93-.48l.26-.34zM190.43 195.68q.52.35.47.84-.04.33-.41.47l-5.95 6.19-.9-.47z"/><rect width="1.02" height="10.08" x="-.51" y="-5.04" fill="#f8f9f9" fill-opacity=".996" rx=".45" transform="rotate(.2 -58061.05 65510.33)"/><rect width=".98" height="10.26" x="131.29" y="199.36" fill="#f8f9f9" fill-opacity=".996" rx=".47"/><path fill="#046905" fill-opacity=".996" d="M382 214.21v1.17q-3.1-1.75-7.54-.96-.53.09-.49.63l.1 1.51q.02.35-.33.4l-.35.05q-.33.04-.35-.29l-.11-1.71q-.04-.61-.64-.51c-1.15.2-2.26.03-3.15-.78q-7.21-6.52-14.08-12.72a.24.24 0 0 1-.02-.34l.2-.21q.3-.34.64-.04l14.46 13a1.44 1.44 0 0 0 2.4-1.17l-.33-4.78a.41.41 0 0 1 .39-.44l.3-.02q.28-.02.3.26l.39 5.53q.05.6.64.53 4.55-.51 7.57.89"/><path fill="#f8f9f9" fill-opacity=".996" d="m244.88 204.29 1.11.8q1.5 2.88 5.97 1.74l.99.09 4.48-.08q.34 0 .34.34l.01.32q0 .32-.32.33-1.98.04-3.82.15-.86.05-1.72.06l-3.57.07q-.49.01-.89-.25l-1.4-.92-1.02-.77-4.4-4.15q-.42-.39-.81.02l-4.67 4.83q-.71.74.32.71l7.15-.25q.5-.02.94.21l1.3.68q.13.46 1.04 1.02l5.01 4.63a.51.51 0 0 1 .03.71l-.17.19q-.16.18-.34.02l-4.4-3.89q-.38-.4-1.06-.64c-.65-1.15-1.44-1.91-2.89-1.89q-4.03.06-8.08.28-.53.03-.9.41l-6.5 6.61q-.12.12-.25 0l-.24-.23q-.31-.31-.01-.62l13.47-13.97a.94.94 0 0 1 1.3-.05zM208.6 207.69q0 .6.42.17l6.03-6.22q.37-.39.63.09l.16.29q.09.16-.04.3l-6.77 6.97q-.39.4-.4.96l-.06 2.04q-.01.56-.57.48-.18-.03-.3-.21-.05-.08-.05-.17l-.04-2.24q-.02-.59-.61-.57l-8.24.25q-.27.01-.29-.26l-.02-.4q-.01-.3.28-.31l8.56-.31a.33.32-1.9 0 0 .31-.32l.03-5.31q.01-.31.31-.33l.26-.01a.4.4 0 0 1 .42.4z"/><rect width="1.02" height="10.04" x="145.31" y="205.14" fill="#046905" fill-opacity=".996" rx=".44"/><path fill="#046905" fill-opacity=".996" d="m246.06 206.94-.15 2.3q-.91-.56-1.04-1.02l.17-2.05zM177.56 207.4l-.28 8.52q-.45.52-.14.94.31.41.72.15.45 1.06 1.38 1.35.62.18.43-.44-.43-1.44.36-2.43.53-.65.54.19l.03 3.51q.01.53.4.88l3.24 2.92a1.54 1.52 64.6 0 0 1.07.39l4.4-.16q.57-.02.73-.56.25-.85.08-1.86.63-.02.76-1.21l19.11-.59q1.28-.04 1.37 1.24l.59 8.66q.04.56.46.94l6.19 5.55q.37.34.88.41 2.47.33 4.84-.17.7.12 1.05 0l3.71.16q.29.01.19.28l-.11.29a.4.39 8.2 0 1-.34.25l-3.46.32-.98.03c-1.52-.16-5.06.45-6.33-.69q-3.18-2.85-6.23-5.6a2.72 2.71-71.2 0 1-.89-1.82l-.55-7.95a.61.6-2.9 0 0-.63-.56l-14.81.61a.87.86 24.8 0 0-.5.18q-.11.09-.22.15-.38-.57-1.12-.17-1.14-.49-1.62-.14a1.27 1.26 40.8 0 0 .16 2.15q.47.25 1.47-.19.24.07.4.2.39.31.04.67-.16.16-.41.26-.73-.14-1.4.04-.58.15-.59.76l-.07 6.17q0 .55.41.19l1.6-1.39q.11.24.73.4-.89.92-1.64 1.81-.82.96-.94 2.18-.31 2.93.05 5.84-.38.38-1.2.65l-.04-3.3q.6-1.6-.11-1.38.3-.62.29-1.1-.01-.6-.47-.23-1.04.81-1.92 1.78-1.36 1.48-3.65 1.02l-.06-.98c2.46.62 4.21-1.8 5.6-3.5q.33-.41.33-.94l.05-7.19a.63.62.9 0 0-.62-.63l-5-.03q-.16-.01-.26.12-.1.14-.11.32-.02.38.37.38l1.51.03q.48 0 .62.45.04.12.03.26a.4.4 0 0 1-.4.37h-1.4q-.74 0-.73.75l.12 6.07q-.26-.43-.62-.47-.32-.03-.67.34l-.04-3.69q.73-.04-.02-1.75.66-1.48-.91-.84-1.34-.78-1.57-.14-3.5-.48-3.45 2.55.08 3.87.09 7.4a.49.49 0 0 0 .56.48l1.02-.16q.59-.09.54-.68-.04-.54-.01-1.09a3.24 1.14-64.3 0 1 .05-.45q.07-.42.52-.34.4.06.41.47l.02 1.29q.01.61.62.67l2.23.2-.04.96q-1.12-.2-2.21 0-.58.1-.59.68l-.05 5.58a.39.38-89.2 0 1-.38.38h-.32q-.24 0-.24-.24l-.03-5.97q0-.37-.38-.36l-.97.03a.48.47 89.4 0 0-.45.47l-.38 19.01q-.01.44-.43.31l-.26-.07q-.17-.05-.17-.23l-.01-10.52q.92.03-.36-1.11l.33-16.54q.01-.73-.5-.2l-2.37 2.47q-.3.32-.55-.04l-.16-.22q-.15-.21.03-.41l3.19-3.38a1.15 1.15 0 0 0-.01-1.59l-6.5-6.75.84-.48 6.28 6.53q.35.37.85.27.79-.16 1.55-.61 1.17 1.05 1.56.25 1.41.58 2.41.14a.86.86 0 0 0 .27-1.4l-2.26-2.27q-.56-.57-.6.23l-.1 2.38-.82-.65c.39-3.6-.94-3.72-2.88-6.02q-.33-.39-.32-.9l.21-10.01z"/><rect width=".96" height="10.2" x="193.6" y="208.24" fill="#046905" fill-opacity=".996" rx=".47"/><path fill="#046905" fill-opacity=".996" d="m156.26 210.18-6.11 6.37a.85.84 44.8 0 0 .01 1.18l10.88 10.85q-.25.85.63.67.03 1.21 1.06 1.36.45.06.77-.27l5.97-6.14q.17-.17.34-.01l.26.24q.3.27.02.56l-6.24 6.47q-.35.37-.36.88l-.01 9.08q-.77-.37-1.1-1.11v-7.86a1.57 1.56 29.7 0 0-.22-.8q-.42-.69-1.04-.99a.59.59 0 0 0-.84.54l.09 7.09q-.32-.1-.85.58l-.19-7.13q.05-.98-.35-1.08.89-1.55-.5-2.89-2.05-1.98-9.78-10.16.7-1.13.71-1.78l5.93-6.14q.27.39.92.49M246.04 210.9l-.06 4.61a.24.24 0 0 1-.23.24l-.31.02q-.47.02-.47-.46l.01-5.05q.68.24 1.06.64"/><path fill="#f8f9f9" fill-opacity=".996" d="M225.77 235.63q-.35.12-1.05 0 .37-2.15-.63-3.37-.3-.36-.34-.82l-.57-8.01a1.88 1.88 0 0 0-.68-1.31q-2.52-2.08-5.12-4.62-1.16-1.13-2.79-1.23-3.43-.22-5.12 1.34-.74.67-1-.29-.07-.27.14-.43.67-.49-.16-.45-.94.05-1.86.26a.39.39 0 0 1-.47-.37l-.02-.45q-.01-.31.3-.3c2.04.11 3.58.13 5.12-1.44q1.8-1.82 3.5-3.58.26-.28.54-.02l.25.24q.17.15.01.31l-3.16 3.33q-1.35 1.42.55.97 2.45-.57 4.01.75 2.94 2.48 6.21 5.54.81.76.78 1.84-.09 2.48.1 4.9.01.19.21.16.15-.03.13-.18-.25-1.63.26-3.01.22-.6.86-.62l9.21-.29q.25-.01.32.22l.09.26q.17.48-.34.5l-8.57.28q-.75.03-.75.78l.01 6.77q0 .86.6.24l5.31-5.49q.38-.39.92-.41l9.45-.32q.32-.01.36.31l.03.29q.03.35-.32.37l-8.97.34a1.7 1.69-68.8 0 0-1.17.52zM122.2 229.22q-.05.38-.73.55l-.2-.83q-.1-.43-.1-.87l-.01-8.01a2.32 2.3 67.3 0 1 .65-1.61l6.29-6.56q.3-.32.62-.01l.24.23q.16.16.01.32l-6.42 6.66q-.37.39-.37.92z"/><path fill="#046905" fill-opacity=".996" d="M159.27 271.27q.29.22.68.21.29-.01.47-.24.07-.11.12-.23.77.95 1.87.29l.35 1.27q-1.51-.27-2.22.27-.58-.52-1.34-.1-.03-.08-.15-.21-.05-.05-.11-.05-7.96-.3-15.64-.58a1.14 1.14 0 0 1-1.1-1.14l.02-8.75q0-.51-.35-.87l-6.03-6.3q-.37-.37-.89-.39l-5.12-.13q-.64-.01-.64.62l-.01 1.53q0 .33-.32.31l-.43-.01a.27.27 0 0 1-.26-.27v-1.65q0-.57-.57-.6l-1.71-.09q-.3-.02-.31-.32v-.32q0-.14.13-.17 1.01-.23 1.84-.09.61.1.61-.52l.01-15.22a1.9 1.87 23.7 0 0-.53-1.33l-6.17-6.42q.68-.17.73-.55l6.2 6.44a1.44 1.43-22.6 0 0 1.08.44l8.49-.28a1.52 1.52 0 0 0 1.05-.47l5.87-6.09q.43-.45.43-1.07l-.01-8.91q0-.3.31-.31l.38-.01q.32-.01.32.3l.01 9.27a1.66 1.61-23.8 0 1-.46 1.13l-6.45 6.72q-.37.38-.89.4l-8.75.33q-.59.02-.59.61v14.98q0 .57.57.6c2.18.13 5.74-.43 7.35 1.34q2.79 3.1 5.53 5.77a1.94 1.92 22.5 0 1 .59 1.41l-.05 8.52a.55.55 0 0 0 .53.55l7.09.29q.84.03.26-.57l-5.34-5.53q-.4-.41-.4-1l.01-9.39a.32.31 87 0 1 .28-.32l.32-.03q.37-.03.37.34l.02 9.01q0 .58.4.99l5.83 6.04q.36.38.88.39z"/><path fill="#f8f9f9" fill-opacity=".996" d="m194.62 221.28.04 2.19q-.21.16-.09.74l-.35 6.02q-.62-.16-.73-.4l.05-5.77q.25-.1.41-.26.35-.36-.04-.67-.16-.13-.4-.2.26-.89-.01-1.82.74-.4 1.12.17M179.58 223.42l.82.65.28.92q-.39.8-1.56-.25l-2.35-2.82q-.15-.18.02-.33l.23-.2q.16-.15.32 0z"/><path fill="#046905" fill-opacity=".996" d="M208.45 233.21q-.17-.6-.87-.54l.04-9.56q.01-.26.26-.28l.33-.03q.31-.03.31.28zM194.66 223.47q.11.65-.09.74-.12-.58.09-.74"/><path fill="#f8f9f9" fill-opacity=".996" d="M260.89 249.79q-.76.62-1.89.86l-6.7-7.03q-.36-.38-.36-.91v-9.19a1.51 1.49-23.1 0 1 .43-1.05l6.49-6.7a.37.36-48.7 0 1 .48-.04l.31.23q.23.18.03.39l-6.37 6.61q-.37.37-.37.9v8.72q0 .27.19.48 2.23 2.5 5.7 5.99a.04.04 0 0 0 .07-.03q.09-9.27.07-18.31 0-.44.44-.44h.31q.23 0 .23.22l.03 17.78q.01 1.12.75.28 2.47-2.78 5.32-5.56.06-.06.15-.03l.29.09a.39.38-59.7 0 1 .16.64zM182.38 226.57l.91.84q.75 1.71.02 1.75-1.02-1.59-2.5-2.73.23-.64 1.57.14M161.67 229.25q-.88.18-.63-.67.66-1.13 1.41-1.38.63-.21.5.44-.15.75-1.28 1.61M158.98 230.66q.4.1.35 1.08l-2.48 2.58q-.36.37-.36.88l-.02 9.23-.85.56-.06-10.13q0-.52.35-.91z"/><rect width="10.26" height=".98" x="-5.13" y="-.49" fill="#f8f9f9" fill-opacity=".996" rx=".47" transform="rotate(-1.8 7506.468 -7506.218)"/><path fill="#f8f9f9" fill-opacity=".996" d="m184.64 232.98-.11 3.54.06.98q.17 1.03-.31 1.25a.65.65 0 0 1-.85-.3q-.16-.31-.06-.72l.04-.96-.06-3.92q.35-.37.67-.34.36.04.62.47M208.45 233.21l-6.59 6.85a2.18 2.15-68.7 0 1-1.48.66l-8.14.28q-.6.02-.6.61l.06 8.94q-.48.53-1.36.16l.15-10q.82-.27 1.2-.65l8.52-.39a1.3 1.25 19.5 0 0 .84-.38l6.53-6.62q.7-.06.87.54M276.77 243.3l-.75-.62q.86-3.82-2.14-5.83a1.89 1.48 84.7 0 1-.51-.54q-.2-.33.17-.48.16-.06.32 0 .9.39 1.7 1.23.5.52.51-.2l.04-3.83q.01-.27.28-.27l.46.01q.24.01.24.26l-.01 4.82q0 .61.45 1.02l3.29 2.98q.37.33.87.31l9.14-.3q.41-.02.33.39l-.06.29a.4.39-84.2 0 1-.37.31l-9.27.34q-.61.03-1.07-.39l-2.6-2.37q-.76-.69-.63.33.14 1.14-.39 2.54"/><path fill="#f8f9f9" fill-opacity=".996" d="m190.45 237.41-5.63 5.82q-.35.37-.35.87v8.59q0 .52.36.9l5.45 5.71 1.57 2.57q-.36.75-.25 1.7.09.3.05.68l-.16 6.79q-.54.05-.94-.06l-.24-6.79q.34-.97-.08-1.9.38-1.15-.1-1.67-3.07-3.28-6.27-6.58-.38-.39-.38-.94l.01-9.29a1.7 1.7 0 0 1 .47-1.17l6.38-6.61q.71-.22.11 1.38M225.76 236.93v7.77a1.31 1.28 21.8 0 0 .44.99l6.28 5.65q.46.41 1.07.39l8.48-.28q.6-.02 1.02-.45l6.13-6.37q.32-.33.66-.01l.19.18a.26.26 0 0 1 .01.37l-6.57 6.83q-.38.39-.92.41l-9.26.33q-.73.03-1.27-.46l-6.74-6.06q-.53-.48-.53-1.19l.03-8.07zM160.37 238.29q.75 1.13 2.01 2.02.33.74 1.1 1.11l3.33 3.53q.35.38.86.4l8.47.34q1.28 1.14.36 1.11-3.65-.27-7.34-.38-2.08-.06-3.33-.99-1.36-1.02-2.54-2.58l-.96-.7-2.81-3.28q.53-.68.85-.58"/><rect width="1" height="10.24" x="135.2" y="239.4" fill="#046905" fill-opacity=".996" rx=".48"/><path fill="#046905" fill-opacity=".996" d="m163.29 242.85.09 8.2a.32.32 0 0 0 .34.32l5.43-.23a.27.27 0 0 0 .26-.27l.02-1.42q0-.39.37-.31l.49.1a.28.27 9.1 0 1 .22.3l-.08.93q-.05.58.54.58l1.74.01q.31 0 .29.31l-.05.47q-.02.22-.24.22l-1.64-.02q-.65 0-.62.64l.31 5.96q.03.63.47 1.09l5.46 5.71q.47.49 1.15.46l5.07-.2q.86-.04.64-.86l-.14-.53q-.24-.9.66-.69 3.73.84 6.16-1.33.42.93.08 1.9l-3.1 2.15q-.4.28-.89.29l-1 .02q-1.26.03-.92 1.24.78 2.78.32 5.57-.71-.15-1.53 0-.3-3.1.35-5.83a.76.75 5.6 0 0-.76-.92l-4.42.16q-.94.04-.94.97l.03 8.7q-.25-.35-.92-.06l-.07-9.25a1.5 1.5 0 0 0-.41-1l-5.06-5.3q-.43-.46-.48.17l-.23 3.6q-.67.05-.8-.02l-.06-12.24q0-.29-.3-.28l-5.34.19q-.33.01-.33.34l-.03 9.36q-.24-.48-.96-.29l-.04-9.06q0-.51-.34-.88l-6.46-6.83.85-.56 5.53 5.58q.39.4.38-.16l-.05-7.7zm22.03 21.96q-.46-.14-.91-.02-.58.16-.07.47 1.43.9 2.65-.04.77-.59-.2-.55-.35.01-.7.13a1.18 1.15 43.6 0 1-.77.01M276.77 243.3l-6.64 6.85a1.58 1.56 20.5 0 1-1.05.47l-8.57.32a.63.63 0 0 0-.61.63l-.06 9.13q-.44-.08-.81.06l-.03-10.11q1.13-.24 1.89-.86l8.06-.3q.5-.02.85-.39l6.22-6.42z"/><rect width="1" height="10.12" x="-.5" y="-5.06" fill="#f8f9f9" fill-opacity=".996" rx=".44" transform="rotate(.1 -142023.815 119367.976)"/><path fill="#046905" fill-opacity=".996" d="M217.87 253.91q.39-.36.31-.84-.04-.22-.2-.31-.19-.1-.42 0l.17-4.11q.01-.34.34-.31l.38.02q.28.02.28.3l.01 9.44q0 .38-.38.38l-.32.01q-.26.01-.25-.25zM191.85 261.87l-1.57-2.57q.48.12.97.52.02.16.06.28.11.41.45.15l1.33-1.03a1.27 1.27 0 0 0 .5-1.01l.01-9.21a.39.39 0 0 1 .51-.37l.29.09q.15.05.15.21l.03 9.53a1.15 1.12-25.1 0 1-.3.79z"/><path fill="#046905" fill-opacity=".996" d="m191.7 250.55-.17 9.04q0 .06-.04.09-.11.09-.24.14-.64-.67-.66-1.59-.05-3.77-.25-7.52.88.37 1.36-.16"/><rect width="10.18" height="1" x="-5.09" y="-.5" fill="#f8f9f9" fill-opacity=".996" rx=".48" transform="rotate(42 -217.132 430.127)"/><path fill="#f8f9f9" fill-opacity=".996" d="m217.87 253.91-6.02 6.18q-.31.31-.62.01l-.21-.19q-.2-.2 0-.41l6.54-6.74q.23-.1.42 0 .16.09.2.31.08.48-.31.84"/><path fill="#046905" fill-opacity=".996" d="M191.65 264.25q.04-.38-.05-.68 1.05.12 2.07-.12.99-.22 1.69-.98 2.78-2.99 5.71-5.89a.3.3 0 0 1 .36-.05l.34.21q.23.13.05.34-2.88 3.21-5.84 6.15-1.89 1.88-4.33 1.02"/><rect width="1" height="10.04" x="-.5" y="-5.02" fill="#f8f9f9" fill-opacity=".996" rx=".44" transform="rotate(.1 -151026.25 177009.686)"/><path fill="#f8f9f9" fill-opacity=".996" d="m259.84 260.7.14 6.52q.09.27.06.7l-.15 2.44q-.01.27-.27.38-.16.06-.34-.01-.19-.08-.21-.29l-.13-2.36q-.09-.61.02-1l.07-6.32q.37-.14.81-.06M163.42 262.05l-.04 8.08q0 .86.6.24l5.5-5.69q.13.07.8.02-.07.17-.11.35a1.19 1.16-17.6 0 1-.3.56l-5.87 6.11q-.36.37 0 .75l11.92 12.36q.63.65.63-.25l-.02-8.1q.67-.29.92.06l.11 8.81q-.27.14-.22.57.03.3.48.49-.38.54-.9.51-.36-.02-.79-.46-6.77-6.92-13.37-13.89l-.35-1.27.05-9.54q.72-.19.96.29"/><rect width=".98" height="10.26" x="-.49" y="-5.13" fill="#046905" fill-opacity=".996" rx=".47" transform="rotate(.1 -153631.942 119372.376)"/><path fill="#046905" fill-opacity=".996" d="m225.75 266.45-.06 9.1a.25.25 0 0 1-.24.25l-.5.01a.25.25 0 0 1-.26-.25l.09-10.07a.25.25 0 0 1 .24-.25l10.07-.37a.25.25 0 0 1 .26.27l-.04.49a.25.25 0 0 1-.24.23l-9.08.34a.25.25 0 0 0-.24.25M258.96 267.08q-.11.39-.02 1l-5.87.34q-.51.03-.87.4l-5.91 6.14q-.36.38-.36.91l.01 8.07q0 .75.75.73l8.55-.27q.34-.01.35.33l.01.33q.01.29-.27.3l-8.04.3a4.59 4.58-.8 0 0-4.42 4.55l-.05 8.02a.42.41 0 0 1-.42.41l-.3-.01a.24.24 0 0 1-.24-.24l-.01-7.92q0-.82-.58-.23l-9.39 9.72a.34.33-34.1 0 1-.55-.1l-.14-.34q-.06-.16.06-.29l13.2-13.74q.48-.5.48-1.21v-8.74a1.55 1.54 67.2 0 1 .44-1.08l6.22-6.45q.59-.61 1.43-.65zM260.04 267.92q.03-.43-.06-.7 1.38-.37 1.86-.23 2.05.61-.05 1.01-.5.1-1.75-.08"/><path fill="#f8f9f9" fill-opacity=".996" d="M160.54 271.01q-.05.12-.12.23-.18.23-.47.24-.39.01-.68-.21-.47-1.59.17-2.23.41-.41.85-.03.53.46.25 2"/><path fill="#046905" fill-opacity=".996" d="M191.49 271.04q.01 4.3.11 8.59.01.57.27.6.3.05.82-.44.08.48.8.55l7.28-.2q.3-.01.33.29l.03.3q.04.37-.32.38l-7.78.3a1.31 1.31 0 0 0-1.26 1.31l-.03 8.25-1.56.02.37-20.01q.4.11.94.06"/><path fill="#f8f9f9" fill-opacity=".996" d="m160.54 272.84.01 5.63a.51.5 89.4 0 1-.49.51h-.41q-.51.02-.5-.49l.05-5.75q.76-.42 1.34.1M184.72 273.46q.05 2.64-.07 5.29-.03.58-.48 1.02-.35-.67-.89-.49l-.09-5.82q.82-.15 1.53 0M193.49 280.34q-.72-.07-.8-.55l4.88-4.97a1.3 1.28 20.3 0 1 .89-.4l9.36-.36q.34-.01.32.32l-.02.36a.35.35 0 0 1-.34.34l-9 .31a1.26 1.25-68.9 0 0-.85.38z"/><rect width=".98" height="10.26" x="-.49" y="-5.13" fill="#046905" fill-opacity=".996" rx=".47" transform="rotate(43.9 -213.832 474.393)"/><path fill="#046905" fill-opacity=".996" d="m184.17 279.77-6.35 6.64q-.45-.19-.48-.49-.05-.43.22-.57l5.72-6.07q.54-.18.89.49"/><path fill="#f8f9f9" fill-opacity=".996" d="m218.66 288.98-.9.22q.16-.76.38-1.01 1.38-1.55 6.51-6.79.29-.3.54.04l.2.26q.11.15-.01.28z"/><rect width=".98" height="10.22" x="207.62" y="283.38" fill="#046905" fill-opacity=".996" rx=".47"/><path fill="#046905" fill-opacity=".996" d="M184.41 293.58q-.17-.12-.85.38l.03-9.95a.23.23 0 0 1 .24-.23l.37.01q.24 0 .24.25z"/><rect width="1" height="10.28" x="-.5" y="-5.14" fill="#046905" fill-opacity=".996" rx=".48" transform="rotate(43.9 -224.057 474.678)"/><path fill="#046905" fill-opacity=".996" d="m191.52 320.9-.98.32q-.19-1.32.01-2.17.28-1.17-.56-.31l-5.15 5.28q-.38.38-.38.92v8.89l-.81-.74.02-8.76q0-.51.36-.88l5.97-6.19a1.79 1.78 67.3 0 0 .51-1.25l-.02-11.53q0-.7-.5-.22l-2.59 2.47q-.28.27-.39-.1l-.17-.51q-.05-.18.09-.3 2.33-1.93 3.71-4.41.1-.16.4-.18 2.62-1.14 2.59-2.98-.09-4.38-.02-8.83.01-.33.34-.3l.3.03a.37.36-87.5 0 1 .33.37q-.03 4.23.03 8.46c.03 1.6-.95 2.55-2.04 3.54q-.78.72-.82 1.99-.25 8.74-.23 17.39M218.66 288.98l.04 8.87q0 .92.64 1.57l6.24 6.4q-.68-.06-.82.43l-6.54-6.8q-.35-.37-.36-.88l-.1-9.37z"/><path fill="#f8f9f9" fill-opacity=".996" d="M191.74 290.97q-.48 4.63-.14 9.28.03.43-.56.98-.3.02-.4.18l-7.08-7.45q.68-.5.85-.38l5.78 5.97a.19.19 0 0 0 .33-.14l-.34-8.42z"/><path fill="#046905" fill-opacity=".996" d="m279.95 300.64 3.57-.11q.37-.01.35.36l-.01.34q-.01.3-.31.31l-4.81.12a1.08 1.06 19 0 0-.8.38l-2.91 3.47q-.37.43-.33 1l.61 8.5a1.44 1.44 0 0 0 .47.97l6.79 6.16q.13.13.01.27l-.23.26a.43.43 0 0 1-.62.04l-6.89-6.22a1.52 1.48 19.3 0 1-.49-.98l-.65-8.53q-.16-2.07 2.21-3.9 1.64-1.27-.44-1.26h-1.29q-.58 0-1.01-.39l-6.96-6.31q-.18-.17-.05-.38l.14-.23q.25-.4.61-.08l6.03 5.44q2.05 1.84 4.49.56.41-.22.83-.44 2.43-1.28.38-3.12l-5.58-5a.45.45 0 0 1-.01-.66l.2-.19q.15-.15.31-.01l7.13 6.36q.6.54.12 1.18l-1.15 1.54q-.42.57.29.55"/><path fill="#f8f9f9" fill-opacity=".996" d="m208.49 298.12 6.69-6.89a.23.23 0 0 1 .33 0l.34.37a.23.23 0 0 1 0 .32l-6.92 7.18a.23.23 0 0 1-.15.07l-9.99.37a.23.23 0 0 1-.24-.21l-.04-.49a.23.23 0 0 1 .22-.25l9.61-.4a.23.23 0 0 0 .15-.07"/><path fill="#046905" fill-opacity=".996" d="m297.69 304.62-7.05-6.39a.25.25 0 0 1-.03-.34l.31-.37a.25.25 0 0 1 .36-.03l7.39 6.66a.25.25 0 0 1 .08.17l.69 9.88a.25.25 0 0 1-.19.26l-.47.12a.25.25 0 0 1-.31-.23l-.7-9.56a.25.25 0 0 0-.08-.17M201.32 321.32q-.3-.68-.48-.82l6.42-6.62q.37-.38.37-.9l-.01-9.03q0-.44.43-.35l.27.05q.29.06.29.36l-.01 9.36q0 .53-.38.91z"/><rect width="1" height="10.06" x="-.5" y="-5.03" fill="#046905" fill-opacity=".996" rx=".41" transform="rotate(.1 -177020.684 105561.579)"/><path fill="#f8f9f9" fill-opacity=".996" d="m225.58 305.82.01 10.6-.79.05-.04-10.22q.14-.49.82-.43"/><path fill="#046905" fill-opacity=".996" d="M177.43 326.73q-.31.28-.68.21l-.3-19.76q0-.36.36-.35l.32.01q.3.01.3.31zM225.59 316.42v9.78q0 .22-.22.22l-.29-.01q-.24 0-.24-.25l-.04-9.69z"/><path fill="#f8f9f9" fill-opacity=".996" d="M200.84 320.5q.18.14.48.82-.19.01-.4.13a.74.68-58.4 0 1-.36.1l-8.72.3a.36.35 89.2 0 0-.34.36l.04 18.81q-.13.95-1.02 1.03-.58-1.04-1.7-1.87l-.67-.78-11.4-12.46q.37.07.68-.21l6.22 6.36.81.74 4.57 4.74q.14.58.8.67-.04.28.09.44.24.29.52.04.46-.41-.12-1.19l-.05-1.23.27-16.08.98-.32z"/><rect width="1" height="10.06" x="207.62" y="323.88" fill="#046905" fill-opacity=".996" rx=".46"/><rect width="10.3" height="1" x="-5.15" y="-.5" fill="#046905" fill-opacity=".996" rx=".48" transform="rotate(42 -283.41 540.545)"/><path fill="#046905" fill-opacity=".996" d="m257.69 333.59-9.54.32a.25.25 0 0 1-.25-.21l-.08-.49a.25.25 0 0 1 .24-.29l9.99-.31a.25.25 0 0 1 .17.07l7.44 6.7a.25.25 0 0 1-.04.4l-.44.27a.25.25 0 0 1-.3-.03l-7.01-6.36a.25.25 0 0 0-.18-.07M269.28 342.62l7.07 6.39a.25.25 0 0 1 0 .38l-.37.33a.25.25 0 0 1-.34 0l-7.32-6.62a.25.25 0 0 1-.08-.17l-.71-9.89a.25.25 0 0 1 .24-.26l.5-.03a.25.25 0 0 1 .26.23l.67 9.47a.25.25 0 0 0 .08.17M190.27 337.3l.05 1.23-.49.71q-.66-.09-.8-.67.5-.77 1.24-1.27M188.82 340.18l-4.28 4.36q-.22.22-.46.03l-.21-.17q-.23-.18-.03-.39l4.31-4.61zM191.46 351.56q-.58-.29-.92.16l-.02-9.67q.89-.08 1.02-1.03l9.23-.22q.33-.01.27.32l-.09.46q-.03.14-.17.15l-8.58.32q-.59.03-.6.61z"/><rect width="10.26" height="1" x="-5.13" y="-.5" fill="#046905" fill-opacity=".996" rx=".48" transform="rotate(42 -339.01 497.431)"/><path fill="#f8f9f9" fill-opacity=".996" d="m191.46 351.56.04 9.72q.02.31-.27.51-.22.14-.69-.07v-10q.34-.45.92-.16"/><path fill="#046905" fill-opacity=".996" d="M191.41 382h-.78l-.09-20.28q.47.21.69.07.29-.2.27-.51l9.23-.32q.31-.01.32.3l.01.36q.01.33-.32.34l-8.75.29q-.5.01-.5.51z"/></svg>