<svg xmlns="http://www.w3.org/2000/svg" viewBox="0 0 382 382"><g fill="none" stroke="#1f782f" stroke-width="2"><path d="m83.68 140.04-.99 3.14M97.79 142.68l-1.06.24q-.46.1-.55.57-.06.33.26.49.5.24.29.76-.14.34-.49.51-.11.06-.13.17-.04.2.1.31.34.26.63-.06l.49-.53a.71.7 32.9 0 1 .81-.17q1.43.64 1.81 1.93.13.46-.03.91l-1.61 4.49q-.17.48.3.67.13.05.27.04.59-.04.86-.54.25-.49.35-1.06.1-.6.58-.23.4.32.36.88-.05.96.8.5.18-.09.3-.26a.43.43 0 0 1 .78.19q.4 2.7-.55 4.77a1.32 1.26 1.2 0 1-.74.68l-.92.32q-.76.27-.09.73 1.73 1.2 1.41 4-.12 1.01.86 1.05M107.97 146.16q-.1 1.52.04 2.08.45 1.77.99.02.16-.52.54-1.6M110.8 147.24q.03 1.03.51 1.52.36.36.86.24.51-.13.95-.47.47-.37.73.17c.35.71.02 1.7-.49 2.27q-2.54 2.85-2.42 6.56a.46.46 0 0 0 .68.38q.57-.33.47-1.18-.09-.77.54-.32.49.35.33 1.09-.23 1.18.96 1.8M113.88 160.72q-1.39-.92-2.72.35M103.48 161.56q-.17.19-.15.64M129.38 148.73l-2.52 5.67M132.31 152.82q-.47.01-.81.23-.48.3-.5.86-.03.52-.44.82a.36.36 0 0 1-.55-.19q-.07-.2-.27-.27-.48-.15-.6.33-.28 1.13-1.18 1.5M132.22 148.14q.72.58 1.26.58.5 0 .55-.68M149.31 147.27q-.71.8-1.39.8-1.47-.01-.37.97.57.52 1.12 1a.56.56 0 0 1 .02.84l-1.2 1.14q-.41.39-.09.85.55.81 1.49.93M147.95 157.06q-.75.3-.69 1.34M133.91 157.99q1.13-.01.97-.97-.08-.55-.36-.99-.26-.43-.03-.89.55-1.09.62-2.29a.93.93 0 0 1 .63-.82l.44-.16q.82-.27.2-.86l-.89-.84q-.46-.44-.17-1 .48-.95-.02-1.55M154.76 149.63q-1.81 1.19-1.9 3.59-.04 1.05.86.51.23-.14.38-.33.35-.44.63.04 1.03 1.76 1.45 3.29.12.44.89.39M156.9 158.16q-1.11-1.39-2.3-1.2a.75.75 0 0 0-.62.86q.2 1.24-.45 2.2-.28.42-.04.86.53.97.45 2.08M157.17 150.47q-.18.66.06 1.13a.34.33 51.8 0 0 .55.07q.36-.41.18-.87M168.51 154.7c1.73 1.64 2.37 3.38.23 5.1a1.27 1.25 74.7 0 0-.45.8q-.25 1.86-1.28 2.69M178.18 157.49q-.45 1.45-.12 2.77.15.61.7.31 1.23-.68 1.92.63.25.47.79.43 1.36-.09 1.53-1.4.16-1.13.41-1.37" vector-effect="non-scaling-stroke"/><path d="M183.97 159q.05 1.2-.58 2.23-.26.43.07.8.77.86.46 2.19-.03.13-.11.24-.16.24-.36.23-.59-.04-.54-.63.03-.28-.07-.5-.23-.5-.73-.29l-1.04.42M179.95 165.96q-.83.34-1.45.03a.94.93-78.7 0 1-.52-.79q-.05-.97-1-1.23-.49-.13-.65-.62c-.43-1.28-.72-3.25-2.38-3.4M172.51 159.72c-2.2.5-2.86 2.78-3.61 4.63q-.21.52-.72.29l-.97-.44M177.26 169.02q.89-.31 1.33-1.04.26-.45-.01-.89-1.05-1.72-2.64-.99M171.13 163.73q-.06-.51-.49-.52a.37.36 76.9 0 0-.33.54q.2.37.65.21M135.91 158.98q.47-.62.63-1.38.13-.6-.39-.27-1.22.78-1.07 2.29a.31.3 62.4 0 0 .53.17q.32-.36.3-.81M167.44 159.18a.25.25 0 0 0-.17.37q.16.24.43.2a.25.25 0 0 0 .16-.4q-.17-.21-.42-.17" vector-effect="non-scaling-stroke"/></g><path fill="#3eef5e" d="m83.68 140.04-.99 3.14q-4.12-1.14.99-3.14"/><path d="m97.79 142.68-1.06.24q-.46.1-.55.57-.06.33.26.49.5.24.29.76-.14.34-.49.51-.11.06-.13.17-.04.2.1.31.34.26.63-.06l.49-.53a.71.7 32.9 0 1 .81-.17q1.43.64 1.81 1.93.13.46-.03.91l-1.61 4.49q-.17.48.3.67.13.05.27.04.59-.04.86-.54.25-.49.35-1.06.1-.6.58-.23.4.32.36.88-.05.96.8.5.18-.09.3-.26a.43.43 0 0 1 .78.19q.4 2.7-.55 4.77a1.32 1.26 1.2 0 1-.74.68l-.92.32q-.76.27-.09.73 1.73 1.2 1.41 4-.12 1.01.86 1.05.22 1.9-.21 3.19a1.14 1.13 33.1 0 1-1.92.4c-4.25-4.68-4.34-12.47-3.02-18.85q.04-.2-.14-.29l-.3-.15q-.17-.08-.22.11l-.83 3.21q-.93 3.63-2.55.25-.27-.58-.44-1.16-.22-.79-.64-.09c-1.45 2.37-2.02 5.45-2.4 8.19q-.56 3.99-2.89.7-1.78-2.49-2.75-5.9c-.63-2.22.03-4.44.32-6.67q.42-3.16-2.2-3.8l.99-3.14q7.35-.25 14.11 2.64"/><path fill="#3eef5e" d="m97.79 142.68 10.18 3.48q-.1 1.52.04 2.08.45 1.77.99.02.16-.52.54-1.6l1.26.58q.03 1.03.51 1.52.36.36.86.24.51-.13.95-.47.47-.37.73.17c.35.71.02 1.7-.49 2.27q-2.54 2.85-2.42 6.56a.46.46 0 0 0 .68.38q.57-.33.47-1.18-.09-.77.54-.32.49.35.33 1.09-.23 1.18.96 1.8l-.04 1.42q-1.39-.92-2.72.35-2.9-4.27-3.29-8.7-.22-2.54-1.07-.14l-3.32 9.33q-.17.19-.15.64l-.45 1.84q-.98-.04-.86-1.05.32-2.8-1.41-4-.67-.46.09-.73l.92-.32a1.32 1.26 1.2 0 0 .74-.68q.95-2.07.55-4.77a.43.43 0 0 0-.78-.19q-.12.17-.3.26-.85.46-.8-.5.04-.56-.36-.88-.48-.37-.58.23-.1.57-.35 1.06-.27.5-.86.54-.14.01-.27-.04-.47-.19-.3-.67l1.61-4.49q.16-.45.03-.91-.38-1.29-1.81-1.93a.71.7 32.9 0 0-.81.17l-.49.53q-.29.32-.63.06-.14-.11-.1-.31.02-.11.13-.17.35-.17.49-.51.21-.52-.29-.76-.32-.16-.26-.49.09-.47.55-.57z"/><path d="M109.54 146.66q-.38 1.08-.54 1.6-.54 1.75-.99-.02-.14-.56-.04-2.08 1.32.03 1.57.5M149.31 147.27q-.71.8-1.39.8-1.47-.01-.37.97.57.52 1.12 1a.56.56 0 0 1 .02.84l-1.2 1.14q-.41.39-.09.85.55.81 1.49.93-.14 1.7-.94 3.26-.75.3-.69 1.34-1.39.37-2.53-1.42-1.15-1.8-2.03-3.9-.52-1.23-.92.04-1.83 5.68-1.93 10.75-.05 2.83-2.13.89-2.85-2.66-3.81-6.77 1.13-.01.97-.97-.08-.55-.36-.99-.26-.43-.03-.89.55-1.09.62-2.29a.93.93 0 0 1 .63-.82l.44-.16q.82-.27.2-.86l-.89-.84q-.46-.44-.17-1 .48-.95-.02-1.55c5.6-.98 9.35-2.01 14.01-.35m-13.4 11.71q.47-.62.63-1.38.13-.6-.39-.27-1.22.78-1.07 2.29a.31.3 62.4 0 0 .53.17q.32-.36.3-.81M129.38 148.73l-2.52 5.67q.24.51-.21-.18a.38.38 0 0 0-.63-.02q-3.5 4.75-4.28 10.29c-.1.74-.39 1.27-.85 1.85q-.88 1.12-1.69-.05c-3.07-4.42-3.19-8.73-3.53-13.83q-.09-1.28-.34-.02l-1.41 6.86q-1.19-.62-.96-1.8.16-.74-.33-1.09-.63-.45-.54.32.1.85-.47 1.18a.46.46 0 0 1-.68-.38q-.12-3.71 2.42-6.56c.51-.57.84-1.56.49-2.27q-.26-.54-.73-.17-.44.34-.95.47-.5.12-.86-.24-.48-.49-.51-1.52 8.89 2.57 18.58 1.49"/><path fill="#3eef5e" d="M154.76 149.63q-1.81 1.19-1.9 3.59-.04 1.05.86.51.23-.14.38-.33.35-.44.63.04 1.03 1.76 1.45 3.29.12.44.89.39-.21.36-.17 1.04-1.11-1.39-2.3-1.2a.75.75 0 0 0-.62.86q.2 1.24-.45 2.2-.28.42-.04.86.53.97.45 2.08-1.26.05-1.6-1.29-.78-2.99-1.39-6.28c-.18-.96-.68-1.67-1.08-2.55a.39.39 0 0 0-.69-.03q-.21.38-.29.99-.94-.12-1.49-.93-.32-.46.09-.85l1.2-1.14a.56.56 0 0 0-.02-.84q-.55-.48-1.12-1-1.1-.98.37-.97.68 0 1.39-.8zM135.3 147.62q.5.6.02 1.55-.29.56.17 1l.89.84q.62.59-.2.86l-.44.16a.93.93 0 0 0-.63.82q-.07 1.2-.62 2.29-.23.46.03.89.28.44.36.99.16.96-.97.97l-1.6-5.17q-.47.01-.81.23-.48.3-.5.86-.03.52-.44.82a.36.36 0 0 1-.55-.19q-.07-.2-.27-.27-.48-.15-.6.33-.28 1.13-1.18 1.5-.68-.43-1.1-1.7l2.52-5.67 2.84-.59q.72.58 1.26.58.5 0 .55-.68z"/><path d="M134.03 148.04q-.05.68-.55.68-.54 0-1.26-.58zM157.17 150.47q-.18.66.06 1.13a.34.33 51.8 0 0 .55.07q.36-.41.18-.87c1.36.19 2.49.15 3.76.74q3.41 1.6 6.79 3.16c1.73 1.64 2.37 3.38.23 5.1a1.27 1.25 74.7 0 0-.45.8q-.25 1.86-1.28 2.69-1.25-2.68-.99-5.71.03-.43-.38-.32l-.35.1q-.16.04-.17.2-.18 2.23-1.14 4.07a1.36 1.35 46.1 0 1-2.43-.05q-1.45-3.1-2.35-6.58-.52-2-1.04-.01-.23.92-1.09 2.13-.77.05-.89-.39-.42-1.53-1.45-3.29-.28-.48-.63-.04-.15.19-.38.33-.9.54-.86-.51.09-2.4 1.9-3.59zm10.27 8.71a.25.25 0 0 0-.17.37q.16.24.43.2a.25.25 0 0 0 .16-.4q-.17-.21-.42-.17"/><path fill="#3eef5e" d="M157.96 150.8q.18.46-.18.87a.34.33 51.8 0 1-.55-.07q-.24-.47-.06-1.13.48.05.79.33"/><path d="m132.31 152.82-.62 4.91a1.17 1.17 0 0 1-1.77.86q-1.3-.8-1.96-2.49.9-.37 1.18-1.5.12-.48.6-.33.2.07.27.27a.36.36 0 0 0 .55.19q.41-.3.44-.82.02-.56.5-.86.34-.22.81-.23"/><path fill="#3eef5e" d="M178.18 157.49q-.45 1.45-.12 2.77.15.61.7.31 1.23-.68 1.92.63.25.47.79.43 1.36-.09 1.53-1.4.16-1.13.41-1.37l.56.14q.05 1.2-.58 2.23-.26.43.07.8.77.86.46 2.19-.03.13-.11.24-.16.24-.36.23-.59-.04-.54-.63.03-.28-.07-.5-.23-.5-.73-.29l-1.04.42q-1.39-2.42-1.12 2.27-.83.34-1.45.03a.94.93-78.7 0 1-.52-.79q-.05-.97-1-1.23-.49-.13-.65-.62c-.43-1.28-.72-3.25-2.38-3.4q-.62-.56-1.44-.23c-2.2.5-2.86 2.78-3.61 4.63q-.21.52-.72.29l-.97-.44-.2-.91q1.03-.83 1.28-2.69a1.27 1.25 74.7 0 1 .45-.8c2.14-1.72 1.5-3.46-.23-5.1zM147.95 157.06q.12.76-.69 1.34-.06-1.04.69-1.34"/><path d="M156.9 158.16q-.59 1.64-1.23 3.53-.5 1.46-1.73 1.27.08-1.11-.45-2.08-.24-.44.04-.86.65-.96.45-2.2a.75.75 0 0 1 .62-.86q1.19-.19 2.3 1.2"/><path fill="#3eef5e" d="M135.91 158.98q.02.45-.3.81a.31.3 62.4 0 1-.53-.17q-.15-1.51 1.07-2.29.52-.33.39.27-.16.76-.63 1.38"/><path d="M183.41 158.86q-.25.24-.41 1.37-.17 1.31-1.53 1.4-.54.04-.79-.43-.69-1.31-1.92-.63-.55.3-.7-.31-.33-1.32.12-2.77z"/><path fill="#3eef5e" d="M167.44 159.18q.25-.04.42.17a.25.25 0 0 1-.16.4q-.27.04-.43-.2a.25.25 0 0 1 .17-.37"/><path d="m181.07 163.69 1.04-.42q.5-.21.73.29.1.22.07.5-.05.59.54.63.2.01.36-.23.08-.11.11-.24.31-1.33-.46-2.19-.33-.37-.07-.8.63-1.03.58-2.23 6.17.14 12.3.41 1.82.08 3.41-.18 1.81-.29 3.55-.17a1.37 1.37 0 0 1 1.19 1.86l-3.85 9.9q-1.1 2.84-1.81-.13l-1.64-6.91q-.49-2.08-1.13-.04-1.6 5.06-2.65 9.73-.86 3.78-2.22.15-1.79-4.76-3.38-10.65-.22-.82-.64-.08-1.42 2.49-1.3 5.53.11 2.68-1.7.7-1.74-1.9-3.03-5.43M172.51 159.72l-1.38 4.01q-.06-.51-.49-.52a.37.36 76.9 0 0-.33.54q.2.37.65.21.02 1.67-.52 3.2a.47.46-62.6 0 1-.7.23q-1.79-1.22-2.53-3.19l.97.44q.51.23.72-.29c.75-1.85 1.41-4.13 3.61-4.63M179.95 165.96l-.08 4.18a.8.79-77 0 1-1.13.71q-1.13-.52-1.48-1.83.89-.31 1.33-1.04.26-.45-.01-.89-1.05-1.72-2.64-.99l-1.99-6.15c1.66.15 1.95 2.12 2.38 3.4q.16.49.65.62.95.26 1 1.23a.94.93-78.7 0 0 .52.79q.62.31 1.45-.03M113.88 160.72q.25 1.21-.33 1.83-.36.4-.84.14-.91-.51-1.55-1.62 1.33-1.27 2.72-.35M103.48 161.56l-.15.64q-.02-.45.15-.64"/><path fill="#3eef5e" d="M171.13 163.73q-.08.12-.17.23-.45.16-.65-.21a.37.36 76.9 0 1 .33-.54q.43.01.49.52M177.26 169.02l-1.32-2.92q1.59-.73 2.64.99.27.44.01.89-.44.73-1.33 1.04"/></svg>