<svg xmlns="http://www.w3.org/2000/svg" viewBox="0 0 382 382"><g fill="none" stroke-width="2"><path stroke="#6a1249" d="M97.19 142.5q.33 2.77 2.47 4.63a1.23 1.23 0 0 1-.01 1.87l-1.49 1.26q-.48.41-.21.98.44.92 1.35 1.32.76.34.23-.3-.27-.32-.31-.69a.31.3-71.8 0 1 .51-.26l2.6 2.42q.5.46.24 1.1-.87 2.07-2.22 3.53-.58.63-.14 1.37l.96 1.6q.39.65.94.14l1.91-1.73M83.01 143.23q-.16-.73-.88-1.27-.42-.32-.14-.77.3-.47 1.19-1M107.11 146q4.61 2.53 5.02 4.85.04.21.25.22.17 0 .31-.09.24-.16.28-.44l.32-2.52" vector-effect="non-scaling-stroke"/><path stroke="#6a1249" d="M114.31 148.27q.65 1.17-.47 3.1-.18.31-.49.48-.32.17-.67.12-2.11-.31-1.37 1.67.43 1.17-.17 2.47-.38.82.04 1.55a.39.38-43.5 0 0 .66.01q.16-.25.44-.21.65.1.65.77-.01 1.6.59 2.97.24.53-.31.73l-1.01.37M128 148.96q1.59 1.69.11 2.4-2.58 1.22-1.91 2.61M131.85 157.26q-.74-.95-.84-2.28-.04-.49-.53-.54-1.85-.15-3.53.29M148.38 147.01l-1.96 2.28q-.5.58.26.68.69.08 1.17.55.58.58-.06 1.09-.25.21-.37.5-.21.52.22.88.92.8.71 1.85-.09.45-.38.8l-2.02 2.41M135.07 161q1.78.4 1.94-1.83.08-1.13-.9-.55t-2.03-.34M133.18 154.77q.86-1.87 3.04-1.99.56-.03.8-.53.12-.22.04-.47-.21-.71-.89-.42-.18.08-.32.21-.58.57-.71-.24l-.24-1.5q-.07-.47-.5-.68l-1.95-.96M155.32 149.86l-3.1 3.22a1.05 1.04 30.4 0 0 .45 1.72q1.21.36 1.51 1.72.23 1.06.71.09.17-.33.16-.71a.84.83-31.6 0 1 .11-.45q.49-.86.8.34a.83.81-33.2 0 1-.17.76q-.84.97-2.03 1.46-.49.21-.56.74-.21 1.46-.97 2.27M156.27 150.23q-.25.44-.18.87.08.38.5.62 1.18.67 1.55-1.03M168.04 154.58q-2.09.24-2.08 1.71 0 .88.73.39l.42-.28q.49-.32.95.04c1.87 1.46.95 5.32-1.89 4.17M156.8 158.22q-.55-.23-1.03-.22a.75.75 0 0 0-.69.54q-.31 1.07.85 1.89M176.78 157.07l.98 2.58q.18.47-.05.93-.89 1.75-.81 3.96.01.4.4.38l.31-.02a.32.32 0 0 0 .3-.3q.18-2.62 2.19-2.05M179.9 169.75q-1.8-1.26-2.31-.01M171.19 163.59q-.68.16-1.38-.39a.23.22-56.3 0 0-.34.07q-.99 1.8-1.74 1.95M189.02 166.99q.59.13.39-.73a.6.6 0 0 0-.52-.47q-.12-.02-.21.19" vector-effect="non-scaling-stroke"/><path stroke="#532a62" d="M188.11 163.97q1.6-.07 2.27-1.03.95-1.36-.63-.85-.68.22-1.65 1.12" vector-effect="non-scaling-stroke"/><path stroke="#6a1249" d="M186.13 165.04q-1.33-2.12-1.22-4.82.01-.25-.24-.25h-.39a.28.28 0 0 0-.28.29q.06 1.15-.63 1.95-.3.35.05.66.78.7-.09 1.32a.37.37 0 0 0-.05.56l.28.28q.42.43-.01.86-.42.44-1.1.76M185.91 165.95q-1.64.87-2.53 2.29M96.983 145.812a1.58.45 60.3 0 0-.392-1.595 1.58.45 60.3 0 0-1.174-1.15 1.58.45 60.3 0 0 .392 1.596 1.58.45 60.3 0 0 1.174 1.15M99.754 157.341a1.02.41-44 0 0-1.019.414 1.02.41-44 0 0-.449 1.004 1.02.41-44 0 0 1.019-.414 1.02.41-44 0 0 .449-1.004M101.733 163.852a1.45.76 36 0 0-.726-1.467 1.45.76 36 0 0-1.62-.237 1.45.76 36 0 0 .726 1.467 1.45.76 36 0 0 1.62.237M100.17 165.38a.61.61 0 0 0 .41 1.06q.54 0 1.03-.32a.62.62 0 0 0-.23-1.14q-.67-.1-1.21.4M124.66 154.42q-.12-.01-.2.08-.11.1.03.16.29.12.24-.18-.01-.06-.07-.06" vector-effect="non-scaling-stroke"/></g><path d="M97.19 142.5q.33 2.77 2.47 4.63a1.23 1.23 0 0 1-.01 1.87l-1.49 1.26q-.48.41-.21.98.44.92 1.35 1.32.76.34.23-.3-.27-.32-.31-.69a.31.3-71.8 0 1 .51-.26l2.6 2.42q.5.46.24 1.1-.87 2.07-2.22 3.53-.58.63-.14 1.37l.96 1.6q.39.65.94.14l1.91-1.73-1.33 7.33a.88.88 0 0 1-.71.71q-1.29.23-2.03-.98-3.77-6.16-2.74-14.15.23-1.78.22-3.64 0-.96-.41-.09-.6 1.26-.94 2.72-.78 3.42-2.38.3-.26-.51-.38-1.07-.2-.95-.73-.13c-1.64 2.51-2.24 6.49-2.63 9.4a1 .99 28.2 0 1-1.74.52q-5.21-5.97-3.35-13.44.75-3.03-1.86-3.99-.16-.73-.88-1.27-.42-.32-.14-.77.3-.47 1.19-1 7.13-.63 14.01 2.31m-.207 3.312a1.58.45 60.3 0 0-.392-1.595 1.58.45 60.3 0 0-1.174-1.15 1.58.45 60.3 0 0 .392 1.596 1.58.45 60.3 0 0 1.174 1.15m2.77 11.53a1.02.41-44 0 0-1.018.413 1.02.41-44 0 0-.449 1.004 1.02.41-44 0 0 1.019-.414 1.02.41-44 0 0 .449-1.004m1.98 6.51a1.45.76 36 0 0-.726-1.467 1.45.76 36 0 0-1.62-.237 1.45.76 36 0 0 .726 1.467 1.45.76 36 0 0 1.62.237m-1.563 1.528a.61.61 0 0 0 .41 1.06q.54 0 1.03-.32a.62.62 0 0 0-.23-1.14q-.67-.1-1.21.4"/><path fill="#d42492" d="M83.18 140.19q-.89.53-1.19 1-.28.45.14.77.72.54.88 1.27-1.15-.14-1.72-.58-.42-.33-.21-.83.49-1.15 2.1-1.63M107.11 146q4.61 2.53 5.02 4.85.04.21.25.22.17 0 .31-.09.24-.16.28-.44l.32-2.52 1.02.25q.65 1.17-.47 3.1-.18.31-.49.48-.32.17-.67.12-2.11-.31-1.37 1.67.43 1.17-.17 2.47-.38.82.04 1.55a.39.38-43.5 0 0 .66.01q.16-.25.44-.21.65.1.65.77-.01 1.6.59 2.97.24.53-.31.73l-1.01.37c-2.9-3.1-3.67-6.74-4.62-10.45a.34.34 0 0 0-.65-.04l-2.91 7.93-1.91 1.73q-.55.51-.94-.14l-.96-1.6q-.44-.74.14-1.37 1.35-1.46 2.22-3.53.26-.64-.24-1.1l-2.6-2.42a.31.3-71.8 0 0-.51.26q.04.37.31.69.53.64-.23.3-.91-.4-1.35-1.32-.27-.57.21-.98l1.49-1.26a1.23 1.23 0 0 0 .01-1.87q-2.14-1.86-2.47-4.63z"/><ellipse fill="#d42492" rx="1.58" ry=".45" transform="rotate(60.3 -76.236 155.03)"/><path d="m113.29 148.02-.32 2.52q-.04.28-.28.44-.14.09-.31.09-.21-.01-.25-.22-.41-2.32-5.02-4.85zM148.38 147.01l-1.96 2.28q-.5.58.26.68.69.08 1.17.55.58.58-.06 1.09-.25.21-.37.5-.21.52.22.88.92.8.71 1.85-.09.45-.38.8l-2.02 2.41q-1.01-.36-1.46-1.33-.92-2.01-2.06-4.02-.33-.58-.54.05-2.12 6.24-2.03 11.97a.72.72 0 0 1-1.1.63q-2.73-1.67-3.69-4.35 1.78.4 1.94-1.83.08-1.13-.9-.55t-2.03-.34q-.77-1.75-.9-3.51.86-1.87 3.04-1.99.56-.03.8-.53.12-.22.04-.47-.21-.71-.89-.42-.18.08-.32.21-.58.57-.71-.24l-.24-1.5q-.07-.47-.5-.68l-1.95-.96q4.47-.86 8.94-1.55 3.9-.6 6.99.37"/><path fill="#d42492" d="m155.32 149.86-3.1 3.22a1.05 1.04 30.4 0 0 .45 1.72q1.21.36 1.51 1.72.23 1.06.71.09.17-.33.16-.71a.84.83-31.6 0 1 .11-.45q.49-.86.8.34a.83.81-33.2 0 1-.17.76q-.84.97-2.03 1.46-.49.21-.56.74-.21 1.46-.97 2.27c-.67-2.55-.91-5.98-2.36-8.11q-.47-.7-.7.11l-1.23 4.47a1.21 1.18-14.3 0 1-.32.52q-1.13 1.03-1.67.04l2.02-2.41q.29-.35.38-.8.21-1.05-.71-1.85-.43-.36-.22-.88.12-.29.37-.5.64-.51.06-1.09-.48-.47-1.17-.55-.76-.1-.26-.68l1.96-2.28z"/><path d="M128 148.96q1.59 1.69.11 2.4-2.58 1.22-1.91 2.61-3.78 4.9-4.58 11.53a1.41 1.4-67.2 0 1-2.27.93q-.65-.52-1.08-1.4-2.65-5.38-2.41-11.39.12-2.98-.76-.13-1.19 3.85-1.18 8.4a.87.86-20.3 0 1-.31.66q-.8.65-1.41-.27l1.01-.37q.55-.2.31-.73-.6-1.37-.59-2.97 0-.67-.65-.77-.28-.04-.44.21a.39.38-43.5 0 1-.66-.01q-.42-.73-.04-1.55.6-1.3.17-2.47-.74-1.98 1.37-1.67.35.05.67-.12.31-.17.49-.48 1.12-1.93.47-3.1zm-3.34 5.46q-.12-.01-.2.08-.11.1.03.16.29.12.24-.18-.01-.06-.07-.06"/><path fill="#d42492" d="m132.45 148.19 1.95.96q.43.21.5.68l.24 1.5q.13.81.71.24.14-.13.32-.21.68-.29.89.42.08.25-.04.47-.24.5-.8.53-2.18.12-3.04 1.99-.85-3.85-1.33 2.49-.74-.95-.84-2.28-.04-.49-.53-.54-1.85-.15-3.53.29-.32-.16-.75-.76-.67-1.39 1.91-2.61 1.48-.71-.11-2.4z"/><path d="M156.27 150.23q-.25.44-.18.87.08.38.5.62 1.18.67 1.55-1.03 4.82.91 9.9 3.89-2.09.24-2.08 1.71 0 .88.73.39l.42-.28q.49-.32.95.04c1.87 1.46.95 5.32-1.89 4.17q.05-1.88-.05-2.19-.89-2.9-1.09.13-.1 1.54-1.13 3.19a1.31 1.31 0 0 1-2.27-.08q-1.65-3.15-2.34-6.73-.27-1.4-1-.17-.79 1.33-1.49 3.46-.55-.23-1.03-.22a.75.75 0 0 0-.69.54q-.31 1.07.85 1.89c.08 3.09-3.56 3.54-3.7.59q.76-.81.97-2.27.07-.53.56-.74 1.19-.49 2.03-1.46a.83.81-33.2 0 0 .17-.76q-.31-1.2-.8-.34a.84.83-31.6 0 0-.11.45q.01.38-.16.71-.48.97-.71-.09-.3-1.36-1.51-1.72a1.05 1.04 30.4 0 1-.45-1.72l3.1-3.22q.48.05.95.37"/><path fill="#d42492" d="m156.27 150.23 1.87.46q-.37 1.7-1.55 1.03-.42-.24-.5-.62-.07-.43.18-.87M124.73 154.48q.05.3-.24.18-.14-.06-.03-.16.08-.09.2-.08.06 0 .07.06"/><path d="M131.85 157.26q-.33 1.13-.98 1.42-.47.22-.89-.11-1.84-1.44-3.03-3.84 1.68-.44 3.53-.29.49.05.53.54.1 1.33.84 2.28"/><path fill="#d42492" d="m168.04 154.58 8.74 2.49.98 2.58q.18.47-.05.93-.89 1.75-.81 3.96.01.4.4.38l.31-.02a.32.32 0 0 0 .3-.3q.18-2.62 2.19-2.05l-.2 7.2q-1.8-1.26-2.31-.01-2.29-4.06-3.52-9.05-.56-2.29-1.74-.25-.49.85-1.14 3.15-.68.16-1.38-.39a.23.22-56.3 0 0-.34.07q-.99 1.8-1.74 1.95-1.15-2.1-1.56-4.61c2.84 1.15 3.76-2.71 1.89-4.17q-.46-.36-.95-.04l-.42.28q-.73.49-.73-.39-.01-1.47 2.08-1.71"/><path d="M189.02 166.99q.59.13.39-.73a.6.6 0 0 0-.52-.47q-.12-.02-.21.19-.58-1.01-.57-2.01 1.6-.07 2.27-1.03.95-1.36-.63-.85-.68.22-1.65 1.12-.7-1.81-1.97 1.83-1.33-2.12-1.22-4.82.01-.25-.24-.25h-.39a.28.28 0 0 0-.28.29q.06 1.15-.63 1.95-.3.35.05.66.78.7-.09 1.32a.37.37 0 0 0-.05.56l.28.28q.42.43-.01.86-.42.44-1.1.76-.76-2.15-2.35-4.1-2.01-.57-2.19 2.05a.32.32 0 0 1-.3.3l-.31.02q-.39.02-.4-.38-.08-2.21.81-3.96.23-.46.05-.93l-.98-2.58q6.97 2.43 13.72 2.19 2.9-.11 5.45.15c2.6.26 4.77-.58 7.29-.35a1.36 1.36 0 0 1 1.15 1.83q-1.67 4.5-3.54 9.2-.36.92-1 1.69a.47.47 0 0 1-.82-.19l-1.94-7.81q-.48-1.94-1.09-.04-1.69 5.28-2.79 10.09-.71 3.06-1.95.18-1.31-3.02-2.24-7.02"/><ellipse fill="#d42492" rx="1.02" ry=".41" transform="rotate(-44 245.104 -43.517)"/><path fill="#d42492" d="M156.8 158.22q-.22 1.17-.87 2.21-1.16-.82-.85-1.89a.75.75 0 0 1 .69-.54q.48-.01 1.03.22M135.07 161q-.77-1.3-.99-2.72 1.05.92 2.03.34t.9.55q-.16 2.23-1.94 1.83M186.13 165.04q-.18.35-.22.91-1.64.87-2.53 2.29l-.93-1.59q.68-.32 1.1-.76.43-.43.01-.86l-.28-.28a.37.37 0 0 1 .05-.56q.87-.62.09-1.32-.35-.31-.05-.66.69-.8.63-1.95a.28.28 0 0 1 .28-.29h.39q.25 0 .24.25-.11 2.7 1.22 4.82"/><ellipse fill="#d42492" rx="1.45" ry=".76" transform="rotate(36 -200.551 236.246)"/><path fill="#a653c3" d="M188.11 163.97q-.18-.36-.01-.76.97-.9 1.65-1.12 1.58-.51.63.85-.67.96-2.27 1.03"/><path d="m171.19 163.59-.7 3.29q-.12.54-.65.39-1.24-.34-2.11-2.05.75-.15 1.74-1.95a.23.22-56.3 0 1 .34-.07q.7.55 1.38.39"/><path fill="#d42492" d="M100.17 165.38q.54-.5 1.21-.4a.62.62 0 0 1 .23 1.14q-.49.32-1.03.32a.61.61 0 0 1-.41-1.06M189.02 166.99l-.34-1.01q.09-.21.21-.19a.6.6 0 0 1 .52.47q.2.86-.39.73"/><path d="m185.91 165.95-.11 3.47a.5.5 0 0 1-.74.43q-.99-.53-1.68-1.61.89-1.42 2.53-2.29M179.9 169.75q.12.66-.24.99-.32.3-.83.13-.72-.23-1.24-1.13.51-1.25 2.31.01"/></svg>