<svg xmlns="http://www.w3.org/2000/svg" viewBox="0 0 382 382"><g fill="none" stroke-width="2"><path stroke="#7f0428" d="M94.94 141.65q-1.29.59-.86 2.21.05.19.21.3.18.11.29-.02.4-.46.91-.12l2.01 1.37q.5.34.35.93l-.45 1.8" vector-effect="non-scaling-stroke"/><path stroke="#640f3d" d="M97.17 148.2q-.45-.68-.87-.32a.72.71 51.2 0 0-.1.99q.16.2.75.09" vector-effect="non-scaling-stroke"/><path stroke="#7f0428" d="M104.77 144.97q.29 2.07.6 3.87.11.61.89.99.63.31.65-.39l.02-.94q.02-.81.81-.63l.35.08a1.03 1.01-86 0 1 .8.94q.12 1.92 1.59 3.27" vector-effect="non-scaling-stroke"/><path stroke="#7f0a53" d="M110.48 152.16q-.6 1-.02 1.98.34.57.19.78-.22.3-.99.39" vector-effect="non-scaling-stroke"/><path stroke="#7f0428" d="M109.66 155.31q-.43-.12-1.12.16M103.5 161.55l-.55-2.8a1.73 1.72-83.1 0 0-.95-1.22l-3.75-1.78q-.71-.34-.29-1.01.63-1.02.92-2.3a1.3 1.28 37.8 0 0-.12-.9l-1.11-2.09M125.08 149.08l-1.13 1.45q-.35.45.04.86l2.29 2.43" vector-effect="non-scaling-stroke"/><path stroke="#030f40" d="M116.15 154.03q2.53-.46 1.96-3.6-.13-.68-.61-.19-.28.28-.25.68.04.6-.47.91l-.74.46M115.54 151.96q-.78-.2-1.05.34-.18.35.04.89.16.42.38.84" vector-effect="non-scaling-stroke"/><path stroke="#00062b" d="M114.33 156.96q-.03-.66-.54-.81-.31-.09-.55.11-.13.11-.18.26-.22.62-.87.4-.13-.05-.2-.18-.12-.24.09-.39 1.57-1.16.36-3.42" vector-effect="non-scaling-stroke"/><path stroke="#2a265a" d="M112.44 152.93q.65-.28.74-.77.06-.37-.32-.36-.44.02-.78.46" vector-effect="non-scaling-stroke"/><path stroke="#00062b" d="m112.08 152.26-1.6-.1M114.02 157.72q-3.3.3-4.36-2.41" vector-effect="non-scaling-stroke"/><path stroke="#2a2c84" d="M112.44 152.93q-.05-.02-.14-.04-.18-.06-.22-.18-.07-.19 0-.45" vector-effect="non-scaling-stroke"/><path stroke="#7f0428" d="M131.89 155.08q-2.71-.46-3.53 1.68M132.15 153.13q-.78-3.67-3.51-4.31M155.26 149.97q.05.86-.26 1.61-.25.58-.86.44-2.32-.5-2.31 1.68 0 .29-.18.52-.1.11-.22.19-.5.35-.49-.26.06-2.18-1.06-1.97M148.75 154q-.63-.03-1.11.15a.91.9-5.2 0 0-.58.69q-.29 1.79.87 2.26M142.8 152.97q.54-.57.79-1.26.19-.53-.19-.94-.73-.77-.08-1.51.34-.39.23-.88l-.47-2.02M159.63 150.97q-.56.79-.4 1.54c.15.66.92 1.06 1.25 1.71q.22.44-.06.83-.53.72-.38 1.95M167.17 154.3q-.1 4.41-1.32 2.9M160.28 158.3q.68-.18.27-1.17-.07-.17-.17-.22-.18-.08-.34.09" vector-effect="non-scaling-stroke"/><path stroke="#640f3d" d="m169.16 155-.51 1.3q-.26.65.36.32.62-.32.96-1.5" vector-effect="non-scaling-stroke"/><path stroke="#030f40" d="M181.84 158.67q-.03.87.66 1.54.38.37.8.06.79-.58 1.3-1.32" vector-effect="non-scaling-stroke"/><path stroke="#00062b" d="M193.41 159.2q-.82 2.01.14 3.28.59.77-.38.67-.61-.06-1.16.05-1.68.34.01.6 1.26.19 1.19 1.37-.01.11.03.22.06.18.3.19a.25.25 0 0 0 .26-.23l.06-.51q.1-.98.96-.5l.83.45" vector-effect="non-scaling-stroke"/><path stroke="#030f40" d="M177.48 169.5q.99-1.92.54-3.95-.13-.61.38-.97.43-.31.68-.77.13-.25-.05-.47-.13-.14-.23-.08-.49.3-.31-.27.16-.49.28-.99M178.77 162q1.05-.02.83-.58-.26-.67-.77-.87-.54-.21-.3.32.32.68.24 1.13" vector-effect="non-scaling-stroke"/><path stroke="#030f40" d="M178.77 162q-1.17-.05-1.36.44-.68 1.73-1.51 3.68" vector-effect="non-scaling-stroke"/><path stroke="#00062b" d="m201.77 159.04.58 7" vector-effect="non-scaling-stroke"/><path stroke="#2a265a" d="M89.509 142.989a.51.33-34.8 0 0-.607.02.51.33-34.8 0 0-.23.562.51.33-34.8 0 0 .606-.02.51.33-34.8 0 0 .23-.562" vector-effect="non-scaling-stroke"/><path stroke="#4b3d64" d="M87.12 145.75q-.6.26-1 .74-.47.56.22.32.68-.24.94-.9a.12.12 0 0 0-.16-.16" vector-effect="non-scaling-stroke"/><path stroke="#2a265a" d="M88.891 146.789a.51.28 48 0 0-.133-.566.51.28 48 0 0-.55-.192.51.28 48 0 0 .134.566.51.28 48 0 0 .55.192" vector-effect="non-scaling-stroke"/><path stroke="#4b3d64" d="M86.5 149.98q.59-.02 1.03-.34.52-.36.33-.96-.1-.34-.4-.18-1.43.79-2.19 2.3-.09.18.08.29a.18.18 0 0 0 .27-.15q-.01-.22.07-.41.23-.53.81-.55" vector-effect="non-scaling-stroke"/><path stroke="#2a265a" d="M89.46 149.67c-.19.67-.78 1.29-1.09 1.91q-.35.72.24.17 1.05-.97 1.43-2.45.12-.46-.24-.15-.25.22-.34.52M86.3 152.06q-.41-.03-.11.27.56.54 1.32.2a.2.2 0 0 0-.07-.39l-1.14-.08M88.15 153.38q-.05.65.2 1.26.29.73.3-.06.01-.63-.27-1.24-.19-.42-.23.04M86.2 154.78q-.25.46.02.86a.33.33 0 0 0 .58-.05q.2-.47-.07-.85a.31.31 0 0 0-.53.04M110.07 149.69q-.12.46.21.87.27.33.39-.08.14-.51-.19-.88a.24.24 0 0 0-.41.09" vector-effect="non-scaling-stroke"/><path stroke="#00062b" d="M136.51 148.42a.13.13 0 0 0-.2-.16q-1.91 1.91-.3 4.15.14.19.32.04l.01-.01q.18-.15.02-.31-1.3-1.36.15-3.71" vector-effect="non-scaling-stroke"/><path stroke="#2a265a" d="M141.16 149.04q.17-.22.23-.49a.26.25 19.8 0 0-.14-.29q-.17-.1-.35-.05-.36.1-.52.44-.48 1.09-.03 2.18.19.45-.04.87-.2.38-.51.66-.62.57.2.39.91-.2 1.38-.92.27-.43.11-.91l-.43-1.32q-.1-.31.1-.56" vector-effect="non-scaling-stroke"/><path stroke="#00062b" d="M137.68 155.37q-.36 1.13-1.45 1.84-.02.01-.01.04l.11.32q.16.48.5.1l1.79-1.98a.61.6 48.4 0 0 .04-.76q-.53-.72.18-1.36a.15.15 0 0 0-.18-.23q-2.2 1.56-4.14.79a.75.75 0 0 0-1.03.73q.08 2 1.75 2.18.84.09.16-.42-.48-.36-.6-.85-.2-.76.6-.82l1.83-.14a.43.43 0 0 1 .45.56" vector-effect="non-scaling-stroke"/><path stroke="#4b3d64" d="M154.94 157.4q.11-.08.18-.2.33-.68.75-1.26.33-.47-.04-.97-.63-.86-.67.2-.04 1.14-.58 1.81-1.07 1.32.36.42" vector-effect="non-scaling-stroke"/><path stroke="#2a265a" d="M153.28 156.15q-.21.27.05.6.24.3.44-.03.29-.44-.14-.64-.21-.1-.35.07" vector-effect="non-scaling-stroke"/><path stroke="#030f40" d="M176.21 160.99q.2-.12.31-.32.19-.35-.19-.48-.6-.19-.97.22-.39.44-.19 1.06a.3.3 0 0 0 .47.14q.21-.16.35-.39a.6.54-88.4 0 1 .22-.23M190.79 161.18l-2.55-.3q-.78-.09-.19.43 1.06.93 2.79.4 1.23-.38-.05-.53M186.275 162.39a1.09.48 30.9 0 0-.689-.972 1.09.48 30.9 0 0-1.181-.148 1.09.48 30.9 0 0 .689.972 1.09.48 30.9 0 0 1.181.148" vector-effect="non-scaling-stroke"/><path stroke="#00062b" d="M169.16 163.55q.05.17.19.07.2-.13-.02-.22-.26-.11-.17.15" vector-effect="non-scaling-stroke"/></g><path d="M94.94 141.65q-1.29.59-.86 2.21.05.19.21.3.18.11.29-.02.4-.46.91-.12l2.01 1.37q.5.34.35.93l-.45 1.8q-.11.04-.23.08-.45-.68-.87-.32a.72.71 51.2 0 0-.1.99q.16.2.75.09l-1.2 3.55q-.82 2.4-1.78.05l-.73-1.82q-.27-.65-.64-.06c-1.65 2.62-2.17 6.42-2.65 9.5a.97.97 0 0 1-1.7.48q-5.15-5.97-3.46-12.9 1.06-4.36-3.3-4.91-.69-.08-.49-.74.54-1.76 2.02-1.94 5.66-.69 11.92 1.48m-5.431 1.339a.51.33-34.8 0 0-.607.02.51.33-34.8 0 0-.23.562.51.33-34.8 0 0 .606-.02.51.33-34.8 0 0 .23-.562m-2.389 2.761q-.6.26-1 .74-.47.56.22.32.68-.24.94-.9a.12.12 0 0 0-.16-.16m1.771 1.039a.51.28 48 0 0-.133-.566.51.28 48 0 0-.55-.192.51.28 48 0 0 .134.566.51.28 48 0 0 .55.192M86.5 149.98q.59-.02 1.03-.34.52-.36.33-.96-.1-.34-.4-.18-1.43.79-2.19 2.3-.09.18.08.29a.18.18 0 0 0 .27-.15q-.01-.22.07-.41.23-.53.81-.55m2.96-.31c-.19.67-.78 1.29-1.09 1.91q-.35.72.24.17 1.05-.97 1.43-2.45.12-.46-.24-.15-.25.22-.34.52m-3.16 2.39q-.41-.03-.11.27.56.54 1.32.2a.2.2 0 0 0-.07-.39zm1.85 1.32q-.05.65.2 1.26.29.73.3-.06.01-.63-.27-1.24-.19-.42-.23.04m-1.95 1.4q-.25.46.02.86a.33.33 0 0 0 .58-.05q.2-.47-.07-.85a.31.31 0 0 0-.53.04"/><path fill="#fe0850" d="m94.94 141.65 9.83 3.32q.29 2.07.6 3.87.11.61.89.99.63.31.65-.39l.02-.94q.02-.81.81-.63l.35.08a1.03 1.01-86 0 1 .8.94q.12 1.92 1.59 3.27-.6 1-.02 1.98.34.57.19.78-.22.3-.99.39-.43-.12-1.12.16-.24-2.1-1.07-3.74-.24-.49-.43.03l-3.54 9.79-.55-2.8a1.73 1.72-83.1 0 0-.95-1.22l-3.75-1.78q-.71-.34-.29-1.01.63-1.02.92-2.3a1.3 1.28 37.8 0 0-.12-.9l-1.11-2.09q.29-.62-.25-1.33l.45-1.8q.15-.59-.35-.93l-2.01-1.37q-.51-.34-.91.12-.11.13-.29.02-.16-.11-.21-.3-.43-1.62.86-2.21"/><ellipse fill="#534bb3" rx=".51" ry=".33" transform="rotate(-34.8 273.149 -70.503)"/><path d="m125.08 149.08-1.13 1.45q-.35.45.04.86l2.29 2.43q-3.92 5.2-4.72 11.79a1.31 1.31 0 0 1-2.17.82c-2.77-2.47-3.65-8.98-3.24-12.4q2.53-.46 1.96-3.6-.13-.68-.61-.19-.28.28-.25.68.04.6-.47.91l-.74.46-.5-.33q-.78-.2-1.05.34-.18.35.04.89.16.42.38.84-.01 1.48-.58 2.93-.03-.66-.54-.81-.31-.09-.55.11-.13.11-.18.26-.22.62-.87.4-.13-.05-.2-.18-.12-.24.09-.39 1.57-1.16.36-3.42.65-.28.74-.77.06-.37-.32-.36-.44.02-.78.46l-1.6-.1q-1.47-1.35-1.59-3.27a1.03 1.01-86 0 0-.8-.94l-.35-.08q-.79-.18-.81.63l-.02.94q-.02.7-.65.39-.78-.38-.89-.99-.31-1.8-.6-3.87 4.39 1.35 8.68 3.09 2.39.97 11.63 1.02m-15.01.61q-.12.46.21.87.27.33.39-.08.14-.51-.19-.88a.24.24 0 0 0-.41.09"/><path fill="#9679c8" d="M87.12 145.75a.12.12 0 0 1 .16.16q-.26.66-.94.9-.69.24-.22-.32.4-.48 1-.74"/><ellipse fill="#534bb3" rx=".51" ry=".28" transform="rotate(48 -120.146 172.648)"/><path fill="#fe0850" d="M155.26 149.97q.05.86-.26 1.61-.25.58-.86.44-2.32-.5-2.31 1.68 0 .29-.18.52-.1.11-.22.19-.5.35-.49-.26.06-2.18-1.06-1.97-.78.9-1.13 1.82-.63-.03-1.11.15a.91.9-5.2 0 0-.58.69q-.29 1.79.87 2.26.08.55-.21.91a1.4 1.4 0 0 1-2.16.01q-1.9-2.3-2.76-5.05.54-.57.79-1.26.19-.53-.19-.94-.73-.77-.08-1.51.34-.39.23-.88l-.47-2.02q6.22 0 12.18 3.61"/><path d="m143.08 146.36.47 2.02q.11.49-.23.88-.65.74.08 1.51.38.41.19.94-.25.69-.79 1.26-.2-.24-.43-.28a.49.49 0 0 0-.55.33q-2.03 6.11-1.97 11.91a.5.5 0 0 1-.64.49c-4.1-1.2-5.81-8.14-6.29-11.83q-.08-.66-.77-.46-.78-3.67-3.51-4.31zm-6.57 2.06a.13.13 0 0 0-.2-.16q-1.91 1.91-.3 4.15.14.19.32.04l.01-.01q.18-.15.02-.31-1.3-1.36.15-3.71m4.65.62q.17-.22.23-.49a.26.25 19.8 0 0-.14-.29q-.17-.1-.35-.05-.36.1-.52.44-.48 1.09-.03 2.18.19.45-.04.87-.2.38-.51.66-.62.57.2.39.91-.2 1.38-.92.27-.43.11-.91l-.43-1.32q-.1-.31.1-.56m-3.48 6.33q-.36 1.13-1.45 1.84-.02.01-.01.04l.11.32q.16.48.5.1l1.79-1.98a.61.6 48.4 0 0 .04-.76q-.53-.72.18-1.36a.15.15 0 0 0-.18-.23q-2.2 1.56-4.14.79a.75.75 0 0 0-1.03.73q.08 2 1.75 2.18.84.09.16-.42-.48-.36-.6-.85-.2-.76.6-.82l1.83-.14a.43.43 0 0 1 .45.56"/><path fill="#c81e7a" d="m97.17 148.2-.22.76q-.59.11-.75-.09a.72.71 51.2 0 1 .1-.99q.42-.36.87.32"/><path fill="#000c55" d="M136.51 148.42q-1.45 2.35-.15 3.71.16.16-.02.31l-.01.01q-.18.15-.32-.04-1.61-2.24.3-4.15a.13.13 0 0 1 .2.16"/><path fill="#534bb3" d="m141.06 149.6.43 1.32q.16.48-.11.91-.47.72-1.38.92-.82.18-.2-.39.31-.28.51-.66.23-.42.04-.87-.45-1.09.03-2.18.16-.34.52-.44.18-.05.35.05a.26.25 19.8 0 1 .14.29q-.06.27-.23.49-.2.25-.1.56"/><path fill="#9679c8" d="M85.69 150.53q-.08.19-.07.41a.18.18 0 0 1-.27.15q-.17-.11-.08-.29.76-1.51 2.19-2.3.3-.16.4.18.19.6-.33.96-.44.32-1.03.34-.58.02-.81.55"/><path fill="#fe0850" d="M128.64 148.82q2.73.64 3.51 4.31.11.74-.26 1.95-2.71-.46-3.53 1.68l-2.08-2.94-2.29-2.43q-.39-.41-.04-.86l1.13-1.45z"/><path fill="#534bb3" d="M89.46 149.67q.09-.3.34-.52.36-.31.24.15-.38 1.48-1.43 2.45-.59.55-.24-.17c.31-.62.9-1.24 1.09-1.91"/><path d="m103.5 161.55-.7 5.51a.96.96 0 0 1-.53.75q-.4.2-.79.13-.52-.1-.87-.48c-4-4.42-4.25-12.44-2.96-18.01l1.11 2.09a1.3 1.28 37.8 0 1 .12.9q-.29 1.28-.92 2.3-.42.67.29 1.01l3.75 1.78a1.73 1.72-83.1 0 1 .95 1.22z"/><path fill="#534bb3" d="M110.07 149.69a.24.24 0 0 1 .41-.09q.33.37.19.88-.12.41-.39.08-.33-.41-.21-.87"/><path fill="#051d7f" d="M116.15 154.03q-.24-.92-.11-1.74l.74-.46q.51-.31.47-.91-.03-.4.25-.68.48-.49.61.19.57 3.14-1.96 3.6"/><path d="M159.63 150.97q-.56.79-.4 1.54c.15.66.92 1.06 1.25 1.71q.22.44-.06.83-.53.72-.38 1.95l-.96-2.11q-.48-1.04-.93.01-1.37 3.24-2.38 6.64-.19.67-.72 1.13a1.6 1.6 0 0 1-2.6-.8l-2.57-9.69q1.12-.21 1.06 1.97-.01.61.49.26.12-.08.22-.19.18-.23.18-.52-.01-2.18 2.31-1.68.61.14.86-.44.31-.75.26-1.61zm-4.69 6.43q.11-.08.18-.2.33-.68.75-1.26.33-.47-.04-.97-.63-.86-.67.2-.04 1.14-.58 1.81-1.07 1.32.36.42m-1.66-1.25q-.21.27.05.6.24.3.44-.03.29-.44-.14-.64-.21-.1-.35.07"/><path fill="#fe0850" d="M167.17 154.3q-.1 4.41-1.32 2.9l-1.93 4.45a1.18 1.18 0 0 1-2.03.23q-1.23-1.65-1.61-3.58.68-.18.27-1.17-.07-.17-.17-.22-.18-.08-.34.09-.15-1.23.38-1.95.28-.39.06-.83c-.33-.65-1.1-1.05-1.25-1.71q-.16-.75.4-1.54 3.84.93 7.54 3.33"/><path fill="#534bb3" d="M112.44 152.93q-.05-.02-.14-.04-.18-.06-.22-.18-.07-.19 0-.45.34-.44.78-.46.38-.01.32.36-.09.49-.74.77M86.3 152.06l1.14.08a.2.2 0 0 1 .07.39q-.76.34-1.32-.2-.3-.3.11-.27"/><path fill="#051d7f" d="m115.54 151.96-.63 2.07q-.22-.42-.38-.84-.22-.54-.04-.89.27-.54 1.05-.34"/><path fill="#000c55" d="M112.08 152.26q-.07.26 0 .45.04.12.22.18.09.02.14.04 1.21 2.26-.36 3.42-.21.15-.09.39.07.13.2.18.65.22.87-.4.05-.15.18-.26.24-.2.55-.11.51.15.54.81-.09.5-.31.76-3.3.3-4.36-2.41.77-.09.99-.39.15-.21-.19-.78-.58-.98.02-1.98z"/><path fill="#534bb3" d="M88.15 153.38q.04-.46.23-.04.28.61.27 1.24-.01.79-.3.06-.25-.61-.2-1.26"/><path fill="#000c55" d="m137.23 154.81-1.83.14q-.8.06-.6.82.12.49.6.85.68.51-.16.42-1.67-.18-1.75-2.18a.75.75 0 0 1 1.03-.73q1.94.77 4.14-.79a.15.15 0 0 1 .18.23q-.71.64-.18 1.36a.61.6 48.4 0 1-.04.76l-1.79 1.98q-.34.38-.5-.1l-.11-.32q-.01-.03.01-.04 1.09-.71 1.45-1.84a.43.43 0 0 0-.45-.56"/><path d="M148.75 154q.05 1.44-.82 3.1-1.16-.47-.87-2.26a.91.9-5.2 0 1 .58-.69q.48-.18 1.11-.15"/><path fill="#9679c8" d="M154.58 156.98q.54-.67.58-1.81.04-1.06.67-.2.37.5.04.97-.42.58-.75 1.26-.07.12-.18.2-1.43.9-.36-.42"/><path d="m169.16 155-.51 1.3q-.26.65.36.32.62-.32.96-1.5l11.87 3.55q-.03.87.66 1.54.38.37.8.06.79-.58 1.3-1.32l8.81.25q-.82 2.01.14 3.28.59.77-.38.67-.61-.06-1.16.05-1.68.34.01.6 1.26.19 1.19 1.37-.01.11.03.22.06.18.3.19a.25.25 0 0 0 .26-.23l.06-.51q.1-.98.96-.5l.83.45-2.4 8.81q-.9 3.29-2.11.1-1.87-4.93-3.29-10.6-.27-1.11-.83-.11-1.25 2.25-1.18 4.76.11 3.98-2.22.75-1.6-2.21-2.63-5.14-.09-.27-.32-.43-.17-.13-.38-.08-.29.07-.29.37l-.08 7q-.01.61-.62.67-1.15.11-1.82-1.39.99-1.92.54-3.95-.13-.61.38-.97.43-.31.68-.77.13-.25-.05-.47-.13-.14-.23-.08-.49.3-.31-.27.16-.49.28-.99 1.05-.02.83-.58-.26-.67-.77-.87-.54-.21-.3.32.32.68.24 1.13-1.17-.05-1.36.44-.68 1.73-1.51 3.68-1.22-2.77-1.74-4.97-.75-3.21-2.06-.19-1.03 2.37-1.58 6.01a.63.63 0 0 1-1.06.37q-3.58-3.31-3.61-10.14 1.22 1.51 1.32-2.9.91-.26 1.99.7m7.05 5.99q.2-.12.31-.32.19-.35-.19-.48-.6-.19-.97.22-.39.44-.19 1.06a.3.3 0 0 0 .47.14q.21-.16.35-.39a.6.54-88.4 0 1 .22-.23m14.58.19-2.55-.3q-.78-.09-.19.43 1.06.93 2.79.4 1.23-.38-.05-.53m-4.515 1.21a1.09.48 30.9 0 0-.689-.972 1.09.48 30.9 0 0-1.181-.148 1.09.48 30.9 0 0 .689.972 1.09.48 30.9 0 0 1.181.148m-17.115 1.16q.05.17.19.07.2-.13-.02-.22-.26-.11-.17.15"/><path fill="#534bb3" d="M86.2 154.78a.31.31 0 0 1 .53-.04q.27.38.07.85a.33.33 0 0 1-.58.05q-.27-.4-.02-.86"/><path d="M131.89 155.08q.44 2.14-.77 3.42-.37.38-.86.19-1.25-.47-1.9-1.93.82-2.14 3.53-1.68"/><path fill="#c81e7a" d="M169.97 155.12q-.34 1.18-.96 1.5-.62.33-.36-.32l.51-1.3z"/><path d="M109.66 155.31q1.06 2.71 4.36 2.41l-.2 4.35a.85.85 0 0 1-1.52.49q-2.77-3.49-3.76-7.09.69-.28 1.12-.16"/><path fill="#534bb3" d="M153.63 156.08q.43.2.14.64-.2.33-.44.03-.26-.33-.05-.6.14-.17.35-.07"/><path d="M160.28 158.3q-.39-.52-.24-1.3.16-.17.34-.09.1.05.17.22.41.99-.27 1.17"/><path fill="#051d7f" d="m181.84 158.67 2.76.28q-.51.74-1.3 1.32-.42.31-.8-.06-.69-.67-.66-1.54"/><path fill="#000c55" d="m201.77 159.04.58 7-1.93 4.96q-.84 2.15-1.48-.07-.96-3.31-1.81-7.16-.48-2.2-1.16-.06-.03.08-.32 1.08l-.83-.45q-.86-.48-.96.5l-.06.51a.25.25 0 0 1-.26.23q-.24-.01-.3-.19-.04-.11-.03-.22.07-1.18-1.19-1.37-1.69-.26-.01-.6.55-.11 1.16-.05.97.1.38-.67-.96-1.27-.14-3.28z"/><path d="m202.35 166.04-.58-7q1.6-.25 2.24.37.52.5.19 1.8-.64 2.45-1.85 4.83"/><path fill="#051d7f" d="M175.99 161.22q-.14.23-.35.39a.3.3 0 0 1-.47-.14q-.2-.62.19-1.06.37-.41.97-.22.38.13.19.48-.11.2-.31.32a.6.54-88.4 0 0-.22.23M178.77 162q.08-.45-.24-1.13-.24-.53.3-.32.51.2.77.87.22.56-.83.58M190.84 161.71q-1.73.53-2.79-.4-.59-.52.19-.43l2.55.3q1.28.15.05.53"/><ellipse fill="#051d7f" rx="1.09" ry=".48" transform="rotate(30.9 -200.092 416.208)"/><path fill="#051d7f" d="M178.77 162q-.12.5-.28.99-.18.57.31.27.1-.06.23.08.18.22.05.47-.25.46-.68.77-.51.36-.38.97.45 2.03-.54 3.95l-1.58-3.38q.83-1.95 1.51-3.68.19-.49 1.36-.44"/><path fill="#000c55" d="M169.16 163.55q-.09-.26.17-.15.22.09.02.22-.14.1-.19-.07"/></svg>