<svg xmlns="http://www.w3.org/2000/svg" viewBox="0 0 382 382"><g fill="none" stroke-width="2"><path stroke="#e19a3d" d="M88.24 140.13q-.37.26-.5.57t.12.68q.39.58.94.75" vector-effect="non-scaling-stroke"/><path stroke="#7fb35b" d="M88.8 142.13q-.2.88-.81 1.36-.15.12-1.07.38-.65.19-.92.78" vector-effect="non-scaling-stroke"/><path stroke="#e19a3d" d="M86 144.65q-.52-.03-1.15.65" vector-effect="non-scaling-stroke"/><path stroke="#897560" d="m166.13 160.25-.01-1.2" vector-effect="non-scaling-stroke"/><path stroke="#7bab57" d="M165.11 157.24q-.22-2.73-2.69-3.59-.5-.18-.87-.57l-.79-.84q-.6-.64-.42.22.1.49.35.9.3.48-.14.84-.54.43-1.27.58" vector-effect="non-scaling-stroke"/><path stroke="#ac9a49" d="M158.01 154.89q-.95-.71-1.68-.72-.56-.01-.52.55.09 1.37 1.46 1.98" vector-effect="non-scaling-stroke"/><path stroke="#897560" d="M142.74 152.61q1.36-.38 1.26-1.5" vector-effect="non-scaling-stroke"/><path stroke="#7bab57" d="M144 151.11q.84-.08 1.46.92.29.49.86.59.46.08.25-.33-.36-.75-1.07-1.18-.42-.26-.51-.75-.2-1.14-1.04-1.98-.49-.5-1.18-.36-.53.11-.83.61-.82 1.33-1.06-.21-.03-.22-.22-.35-.34-.26-.54.12-.2.42.12.58 2.12 1.05 2.01 3.29" vector-effect="non-scaling-stroke"/><path stroke="#897560" d="m142.25 152.06-.18.3" vector-effect="non-scaling-stroke"/><path stroke="#ac9a49" d="M113.98 157.89q-1.13-.19-1.65.29-.4.36.06.65.52.33 1.58-.06" vector-effect="non-scaling-stroke"/><path stroke="#7bab57" d="M92.83 150.22q-1.68.12-2.42-1.53-.21-.48.13-.87l.24-.29a1.05.9 14.4 0 0-1.04-1.49l-2.59.26q-.48.04-.84.36l-1.35 1.2M86 144.65q1.56.45 2.86-.96.34-.38.8-.15l.78.39q.84.43.41-.41-.77-1.49-2.05-1.39" vector-effect="non-scaling-stroke"/><path stroke="#278e7e" d="M144 151.11q-1.13-.48-1.75.95" vector-effect="non-scaling-stroke"/><path stroke="#7fb35b" d="M164.37 160.29q-1.23-.55-1.57-1.89-.05-.19-.24-.22-.15-.02-.3.01-.36.06-.35.43.04 1.36-.54 2.56M160.56 159.14q.36-1.83 1.25-2.69a.93.93 0 0 0-.56-1.6q-1.73-.16-1.58 1.34M90.67 156.45q-.68.34-1.28.41-.34.04-1.21-.31-1.17-.48-2.2.45" vector-effect="non-scaling-stroke"/><path stroke="#7bab57" d="M85.98 157q.12-.57.59-1.01.38-.36-.01-.71-.47-.41-1.48-.3" vector-effect="non-scaling-stroke"/><path stroke="#e19a3d" d="M85.199 141.293a.65.52-3.3 0 0-.679-.482.65.52-3.3 0 0-.619.556.65.52-3.3 0 0 .679.482.65.52-3.3 0 0 .619-.556" vector-effect="non-scaling-stroke"/><path stroke="#7bab57" d="M94.13 144.798a1.14.46 13.1 0 0-1.006-.706 1.14.46 13.1 0 0-1.214.19 1.14.46 13.1 0 0 1.006.706 1.14.46 13.1 0 0 1.214-.19" vector-effect="non-scaling-stroke"/><path stroke="#ac9a49" d="M96.055 146.87a.68.48 38.1 0 0-.239-.798.68.48 38.1 0 0-.831-.042.68.48 38.1 0 0 .239.798.68.48 38.1 0 0 .831.042" vector-effect="non-scaling-stroke"/><path stroke="#7bab57" d="M126.61 151.56q.27.37.51.75.54.86.36-.14-.14-.74.09-1.46a.66.65 20.9 0 0-.36-.8q-.48-.21-.96.07a.74.73-27.7 0 0-.3.94q.13.29.43.44a.62.61 85.4 0 1 .23.2M134.93 150.494a.93.57-.4 0 0-.934-.564.93.57-.4 0 0-.926.576.93.57-.4 0 0 .934.564.93.57-.4 0 0 .926-.576M117 151.42q-.19.31-.17.7.05 1.35 1.05.44l.85-.78a.48.48 0 0 0-.12-.78q-.43-.2-.87-.1-.48.11-.74.52" vector-effect="non-scaling-stroke"/><path stroke="#897560" d="M120.67 151.72q1.96.57 3.52 1.77.76.58.41-.31-.39-1.02-1.38-1.25-.36-.09-.68-.28-.94-.59-1.84-.46-1.27.18-.03.53" vector-effect="non-scaling-stroke"/><path stroke="#7bab57" d="M121.06 156.98q-.55-.03-.79.15-.26.21 0 .42.2.16.42.11.2-.04.28-.25.06-.18.09-.43M121.06 156.98q.36.03.65-.16.51-.32.24-.87-.46-.92-1.24-1.42-.71-.47-.67.38.03 1 1.02 2.07M154.91 155.951a1.14.4 46.8 0 0-.488-1.105 1.14.4 46.8 0 0-1.072-.557 1.14.4 46.8 0 0 .488 1.105 1.14.4 46.8 0 0 1.072.557M100.918 156.483a1.12.93 30.2 0 0-.5-1.367 1.12.93 30.2 0 0-1.436.24 1.12.93 30.2 0 0 .5 1.368 1.12.93 30.2 0 0 1.436-.24M119.75 156.18q-.34-.73-1.11-1.02-.92-.34-.51.55.31.7 1.18.97.78.23.44-.5" vector-effect="non-scaling-stroke"/><path stroke="#ac9a49" d="M154.21 157.2a.41.41 0 0 0 .41.65q.24-.05.4-.23a.38.38 0 0 0-.15-.61q-.4-.16-.66.19" vector-effect="non-scaling-stroke"/><path stroke="#897560" d="m184.74 161.48-.1-1.44q-.06-.78-.4-.07-.24.51-.05 1.06.14.39-.17.68l-.26.25q-.53.48-.15 1.09.38.6 1.03.5a.75.72 16.3 0 0 .42-.22q.9-.93-.1-1.49a.47.45-77.6 0 1-.22-.36" vector-effect="non-scaling-stroke"/><path stroke="#7bab57" d="M186.33 161.27q-.09.16.06.28a.12.11-39.6 0 0 .13.01q.07-.05.08-.14.02-.22-.18-.14-.03.02-.05.04-.07.05.01.03.06-.02.11-.04.1-.02.01-.01-.06.01-.09-.04-.05-.05-.08.01" vector-effect="non-scaling-stroke"/><path stroke="#ac9a49" d="M189.72 162.011a.54.46 58.7 0 0 .113-.7.54.46 58.7 0 0-.673-.222.54.46 58.7 0 0-.113.7.54.46 58.7 0 0 .673.222" vector-effect="non-scaling-stroke"/><path stroke="#7bab57" d="M191.436 165.27a2.11.55 90.1 0 0 .554-2.109 2.11.55 90.1 0 0-.546-2.111 2.11.55 90.1 0 0-.554 2.109 2.11.55 90.1 0 0 .546 2.111" vector-effect="non-scaling-stroke"/><path stroke="#7bab57" d="M189.88 167.53q-.14.37.04.69a.63.63 0 0 0 1.15-.16q.37-1.41-.41-2.72-.25-.41-.68-.24-.57.23-.41.81l.32 1.17a.73.69 47.5 0 1-.01.45" vector-effect="non-scaling-stroke"/><path stroke="#897560" d="M193.777 165.5a.81.34 4.9 0 0-.778-.409.81.34 4.9 0 0-.836.27.81.34 4.9 0 0 .778.408.81.34 4.9 0 0 .836-.27" vector-effect="non-scaling-stroke"/><path stroke="#278e7e" d="M88.15 150.569a.61.45.8 0 0-.604-.459.61.45.8 0 0-.616.441.61.45.8 0 0 .604.459.61.45.8 0 0 .616-.441" vector-effect="non-scaling-stroke"/></g><path fill="#e5a240" d="M88.24 140.13q-.37.26-.5.57t.12.68q.39.58.94.75-.2.88-.81 1.36-.15.12-1.07.38-.65.19-.92.78-.52-.03-1.15.65c-.13-1.67-2.19-2.15-3.47-2.56q-.54-.17-.35-.71c.87-2.49 4.32-2.08 7.21-1.9m-3.041 1.163a.65.52-3.3 0 0-.679-.482.65.52-3.3 0 0-.619.556.65.52-3.3 0 0 .679.482.65.52-3.3 0 0 .619-.556"/><path fill="#dc9239" d="M88.24 140.13q3.74.59 5.09 1.02 9.82 3.09 20.47 6.94 1.79.65 8.46.91c6.58.26 13.25-1.4 19.7-2.45 6.57-1.07 11.61 3.28 17.67 4.43q2.36.45 4.53 1.69c4.06 2.32 9.12 3.32 13.57 4.69q4.68 1.45 8.19 1.71 4.04.3 8.28.15c1.75-.06 3.19.59 5 .14q2-.51 4.09-.29a1.36 1.36 0 0 1 1.13 1.85l-4.04 10.35a.82.81-3.5 0 1-.37.41q-.78.4-.92-.06-1.12-3.93-1.9-7.62-.59-2.82-1.34-.04l-2.61 9.64q-.89 3.3-2.09.1-1.94-5.2-3.33-10.68-.28-1.11-.8-.09-1.48 2.9-1.24 6.37a.56.55 13.5 0 1-.84.51c-1.8-1.05-3.17-4.38-3.97-6.41q-.1-.25-.31-.42-.31-.28-.48-.14-.15.13-.15.32-.09 3.62-.13 7.01a.82.82 0 0 1-1.26.68c-2.08-1.33-3.89-7.5-4.6-9.99q-.77-2.75-1.83-.1-1.17 2.91-1.66 6.24a.64.64 0 0 1-1.1.35q-2.94-3.12-3.32-7.1l-.01-1.2q.2-1.95-1.01-1.81-.22-2.73-2.69-3.59-.5-.18-.87-.57l-.79-.84q-.6-.64-.42.22.1.49.35.9.3.48-.14.84-.54.43-1.27.58-.12-.29-.33-.48-.26-.23-.51-.06-.24.17-.43.65-.95-.71-1.68-.72-.56-.01-.52.55.09 1.37 1.46 1.98l-1.73 5.29a1.49 1.48-85.7 0 1-1.16 1q-1.65.28-2.08-1.38-.87-3.42-1.4-6.37c-.13-.77-.57-1.45-.97-2.11q-.72-1.21-.92.19-.36 2.53-1.35 4.69a1.06 1.06 0 0 1-1.73.3q-2.32-2.4-3.19-5.7 1.36-.38 1.26-1.5.84-.08 1.46.92.29.49.86.59.46.08.25-.33-.36-.75-1.07-1.18-.42-.26-.51-.75-.2-1.14-1.04-1.98-.49-.5-1.18-.36-.53.11-.83.61-.82 1.33-1.06-.21-.03-.22-.22-.35-.34-.26-.54.12-.2.42.12.58 2.12 1.05 2.01 3.29l-.18.3q-2.23 6-2.24 12.46 0 .64-.63.55c-3.86-.54-5.64-8.27-6.32-11.4q-.44-2.06-.72.03-.25 1.87-.42 3.72a1.15 1.15 0 0 1-.84 1.01q-.78.21-1.05-.08-2.12-2.22-3.09-4.26a.46.46 0 0 0-.78-.09q-2.75 3.44-3.74 7.9-.47 2.09-1.16 4.02a.97.97 0 0 1-1.66.28c-3.21-3.96-3.53-8.84-3.39-13.92a.41.41 0 0 0-.58-.38l-.24.11q-.13.06-.13.21-.02 2.78-1.1 5.37-1.13-.19-1.65.29-.4.36.06.65.52.33 1.58-.06l-.09 3.32a.78.78 0 0 1-1.25.6c-2.78-2.08-4.36-7.29-4.75-10.6q-.18-1.52-.85-.15-3.48 7.19-4.4 15.22a.99.99 0 0 1-1.66.61c-4.61-4.37-4.58-13.35-3.12-19.16q.04-.16-.04-.31t-.21-.18q-.15-.03-.22.11-1.02 2-1.56 4.17-.13.52-.44.84-.34.36-.79.16-.48-.21-.59-.72-.32-1.52-1.17-2.46-1.68.12-2.42-1.53-.21-.48.13-.87l.24-.29a1.05.9 14.4 0 0-1.04-1.49l-2.59.26q-.48.04-.84.36l-1.35 1.2-.11-2.56q.63-.68 1.15-.65 1.56.45 2.86-.96.34-.38.8-.15l.78.39q.84.43.41-.41-.77-1.49-2.05-1.39-.55-.17-.94-.75-.25-.37-.12-.68t.5-.57m5.89 4.668a1.14.46 13.1 0 0-1.006-.706 1.14.46 13.1 0 0-1.214.19 1.14.46 13.1 0 0 1.006.706 1.14.46 13.1 0 0 1.214-.19m1.925 2.072a.68.48 38.1 0 0-.239-.798.68.48 38.1 0 0-.831-.042.68.48 38.1 0 0 .239.798.68.48 38.1 0 0 .831.042m30.555 4.69q.27.37.51.75.54.86.36-.14-.14-.74.09-1.46a.66.65 20.9 0 0-.36-.8q-.48-.21-.96.07a.74.73-27.7 0 0-.3.94q.13.29.43.44a.62.61 85.4 0 1 .23.2m8.32-1.066a.93.57-.4 0 0-.934-.564.93.57-.4 0 0-.926.576.93.57-.4 0 0 .934.564.93.57-.4 0 0 .926-.576m-17.93.926q-.19.31-.17.7.05 1.35 1.05.44l.85-.78a.48.48 0 0 0-.12-.78q-.43-.2-.87-.1-.48.11-.74.52m3.67.3q1.96.57 3.52 1.77.76.58.41-.31-.39-1.02-1.38-1.25-.36-.09-.68-.28-.94-.59-1.84-.46-1.27.18-.03.53m.39 5.26q-.55-.03-.79.15-.26.21 0 .42.2.16.42.11.2-.04.28-.25.06-.18.09-.43.36.03.65-.16.51-.32.24-.87-.46-.92-1.24-1.42-.71-.47-.67.38.03 1 1.02 2.07m33.85-1.029a1.14.4 46.8 0 0-.488-1.105 1.14.4 46.8 0 0-1.072-.557 1.14.4 46.8 0 0 .488 1.105 1.14.4 46.8 0 0 1.072.557m-53.992.532a1.12.93 30.2 0 0-.5-1.367 1.12.93 30.2 0 0-1.436.24 1.12.93 30.2 0 0 .5 1.368 1.12.93 30.2 0 0 1.436-.24m18.832-.303q-.34-.73-1.11-1.02-.92-.34-.51.55.31.7 1.18.97.78.23.44-.5m34.46 1.02a.41.41 0 0 0 .41.65q.24-.05.4-.23a.38.38 0 0 0-.15-.61q-.4-.16-.66.19m30.53 4.28-.1-1.44q-.06-.78-.4-.07-.24.51-.05 1.06.14.39-.17.68l-.26.25q-.53.48-.15 1.09.38.6 1.03.5a.75.72 16.3 0 0 .42-.22q.9-.93-.1-1.49a.47.45-77.6 0 1-.22-.36m1.59-.21q-.09.16.06.28a.12.11-39.6 0 0 .13.01q.07-.05.08-.14.02-.22-.18-.14-.03.02-.05.04-.07.05.01.03.06-.02.11-.04.1-.02.01-.01-.06.01-.09-.04-.05-.05-.08.01m3.39.741a.54.46 58.7 0 0 .113-.7.54.46 58.7 0 0-.673-.222.54.46 58.7 0 0-.113.7.54.46 58.7 0 0 .673.222m1.716 3.259a2.11.55 90.1 0 0 .554-2.109 2.11.55 90.1 0 0-.546-2.111 2.11.55 90.1 0 0-.554 2.109 2.11.55 90.1 0 0 .546 2.111m-1.556 2.26q-.14.37.04.69a.63.63 0 0 0 1.15-.16q.37-1.41-.41-2.72-.25-.41-.68-.24-.57.23-.41.81l.32 1.17a.73.69 47.5 0 1-.01.45m3.897-2.03a.81.34 4.9 0 0-.778-.409.81.34 4.9 0 0-.836.27.81.34 4.9 0 0 .778.408.81.34 4.9 0 0 .836-.27"/><ellipse fill="#dc9239" rx=".65" ry=".52" transform="rotate(-3.3 2495.419 -1396.916)"/><path fill="#19c375" d="M86 144.65q.27-.59.92-.78.92-.26 1.07-.38.61-.48.81-1.36 1.28-.1 2.05 1.39.43.84-.41.41l-.78-.39q-.46-.23-.8.15-1.3 1.41-2.86.96"/><ellipse fill="#19c375" rx="1.14" ry=".46" transform="rotate(13.1 -582.912 477.34)"/><path fill="#19c375" d="M92.83 150.22q-1.78 3.03-2.16 6.23-.68.34-1.28.41-.34.04-1.21-.31-1.17-.48-2.2.45.12-.57.59-1.01.38-.36-.01-.71-.47-.41-1.48-.3-1.54-3.41-.12-7.12l1.35-1.2q.36-.32.84-.36l2.59-.26a1.05.9 14.4 0 1 1.04 1.49l-.24.29q-.34.39-.13.87.74 1.65 2.42 1.53m-4.68.349a.61.45.8 0 0-.604-.459.61.45.8 0 0-.616.441.61.45.8 0 0 .604.459.61.45.8 0 0 .616-.441"/><ellipse fill="#7ba158" rx=".68" ry=".48" transform="rotate(38.1 -164.3 211.538)"/><path fill="#19c375" d="M144 151.11q-1.13-.48-1.75.95.11-2.24-2.01-3.29-.32-.16-.12-.58.2-.38.54-.12.19.13.22.35.24 1.54 1.06.21.3-.5.83-.61.69-.14 1.18.36.84.84 1.04 1.98.09.49.51.75.71.43 1.07 1.18.21.41-.25.33-.57-.1-.86-.59-.62-1-1.46-.92M126.38 151.36q-.3-.15-.43-.44a.74.73-27.7 0 1 .3-.94q.48-.28.96-.07a.66.65 20.9 0 1 .36.8q-.23.72-.09 1.46.18 1-.36.14-.24-.38-.51-.75a.62.61 85.4 0 0-.23-.2"/><ellipse fill="#355886" rx=".61" ry=".45" transform="rotate(.8 -10739.12 6344.769)"/><ellipse fill="#19c375" rx=".93" ry=".57" transform="rotate(-.4 21624.45 -19118.758)"/><path fill="#19c375" d="M117 151.42q.26-.41.74-.52.44-.1.87.1a.48.48 0 0 1 .12.78l-.85.78q-1 .91-1.05-.44-.02-.39.17-.7"/><path fill="#355886" d="M120.7 151.19q.9-.13 1.84.46.32.19.68.28.99.23 1.38 1.25.35.89-.41.31-1.56-1.2-3.52-1.77-1.24-.35.03-.53M144 151.11q.1 1.12-1.26 1.5.07.33-.67-.25l.18-.3q.62-1.43 1.75-.95"/><path fill="#19c375" d="M165.11 157.24q-.05 1.67-.74 3.05-1.23-.55-1.57-1.89-.05-.19-.24-.22-.15-.02-.3.01-.36.06-.35.43.04 1.36-.54 2.56l-.81-2.04q.36-1.83 1.25-2.69a.93.93 0 0 0-.56-1.6q-1.73-.16-1.58 1.34l-.39-1.41q.73-.15 1.27-.58.44-.36.14-.84-.25-.41-.35-.9-.18-.86.42-.22l.79.84q.37.39.87.57 2.47.86 2.69 3.59M121.06 156.98q-.99-1.07-1.02-2.07-.04-.85.67-.38.78.5 1.24 1.42.27.55-.24.87-.29.19-.65.16"/><ellipse fill="#19c375" rx="1.14" ry=".4" transform="rotate(46.8 -102.166 255.647)"/><path fill="#7ba158" d="M158.01 154.89q-.04 1.03-.74 1.81-1.37-.61-1.46-1.98-.04-.56.52-.55.73.01 1.68.72"/><path fill="#e5a240" d="m160.56 159.14-.89-2.95q-.15-1.5 1.58-1.34a.93.93 0 0 1 .56 1.6q-.89.86-1.25 2.69"/><path fill="#dc9239" d="M85.98 157q-.79-.92-.9-2.02 1.01-.11 1.48.3.39.35.01.71-.47.44-.59 1.01"/><ellipse fill="#19c375" rx="1.12" ry=".93" transform="rotate(30.2 -238.958 263.176)"/><path fill="#19c375" d="M119.75 156.18q.34.73-.44.5-.87-.27-1.18-.97-.41-.89.51-.55.77.29 1.11 1.02"/><path fill="#e5a240" d="m90.67 156.45-.86 4a.73.72-65.6 0 1-1.14.43q-1.99-1.48-2.69-3.88 1.03-.93 2.2-.45.87.35 1.21.31.6-.07 1.28-.41"/><path fill="#19c375" d="M121.06 156.98q-.03.25-.09.43-.08.21-.28.25-.22.05-.42-.11-.26-.21 0-.42.24-.18.79-.15"/><path fill="#7ba158" d="M154.21 157.2q.26-.35.66-.19a.38.38 0 0 1 .15.61q-.16.18-.4.23a.41.41 0 0 1-.41-.65M113.98 157.89l-.01.88q-1.06.39-1.58.06-.46-.29-.06-.65.52-.48 1.65-.29"/><path fill="#e5a240" d="M164.37 160.29q0 1.17-.73 1.82-.4.36-.91.21-.8-.23-1.36-1.14.58-1.2.54-2.56-.01-.37.35-.43.15-.03.3-.01.19.03.24.22.34 1.34 1.57 1.89"/><path fill="#355886" d="m166.12 159.05.01 1.2zM184.96 161.84q1 .56.1 1.49a.75.72 16.3 0 1-.42.22q-.65.1-1.03-.5-.38-.61.15-1.09l.26-.25q.31-.29.17-.68-.19-.55.05-1.06.34-.71.4.07l.1 1.44a.47.45-77.6 0 0 .22.36"/><path fill="#19c375" d="M186.41 161.26q.03.05.09.04.09-.01-.01.01-.05.02-.11.04-.08.02-.01-.03.02-.02.05-.04.2-.08.18.14-.01.09-.08.14a.12.11-39.6 0 1-.13-.01q-.15-.12-.06-.28.03-.06.08-.01"/><ellipse fill="#7ba158" rx=".54" ry=".46" transform="rotate(58.7 -48.925 249.22)"/><ellipse fill="#19c375" rx="2.11" ry=".55" transform="rotate(90.1 14.282 177.133)"/><path fill="#19c375" d="m189.89 167.08-.32-1.17q-.16-.58.41-.81.43-.17.68.24.78 1.31.41 2.72a.63.63 0 0 1-1.15.16q-.18-.32-.04-.69a.73.69 47.5 0 0 .01-.45"/><ellipse fill="#355886" rx=".81" ry=".34" transform="rotate(4.9 -1836.712 2337.74)"/></svg>