<svg xmlns="http://www.w3.org/2000/svg" viewBox="0 0 382 382"><g fill="none" stroke-width="2"><path stroke="#515b88" d="M124.76 149.08q-.72.75-.91 1.41-.17.57.44.55 1.22-.06 1.72-1.9" vector-effect="non-scaling-stroke"/><path stroke="#27329c" d="m133.94 147.96.41 1.37" vector-effect="non-scaling-stroke"/><path stroke="#515b88" d="M134.35 149.33q-.43.86-.13 1.54.17.38.48.1.17-.14.29-.51" vector-effect="non-scaling-stroke"/><path stroke="#27329c" d="M134.99 150.46q.65.02.79-.92.07-.47.55-.45.22.01.39.15.29.24.09.56-.08.13-.2.22-.37.29-.16.7.2.37.62.47.77.17.18-.36-.17-.16-.14-.42.06-.52.47-.2.69.55.72 1.43c.05 1.29 1.11 1.33 1.48 2.32q.25.68-.25 1.16" vector-effect="non-scaling-stroke"/><path stroke="#515b88" d="M139.53 155.12q-1.18.94-2.07.08a.49.48 30.1 0 0-.81.21q-.17.62.16 1.1a.85.85 0 0 0 .88.35l.6-.13q.6-.13.8.46.13.37.46.59.41.28.5-.2.04-.2.22-.29a.24.24 0 0 1 .34.14q.05.14-.01.29" vector-effect="non-scaling-stroke"/><path stroke="#303baa" d="m115.1 152.87-2.53 1.31q-.52.27-.12.7.9.95 2.31.43" vector-effect="non-scaling-stroke"/><path stroke="#5d627a" d="M97.79 161.4q1.46-.56 1.25-1.65-.22-1.17-1.84-.96" vector-effect="non-scaling-stroke"/><path stroke="#515b88" d="M97.11 157.69q.02-.7 1.3-.67.52.02.62-.49.05-.28-.09-.5-.27-.45-.75-.23-.56.25-1.12.29" vector-effect="non-scaling-stroke"/><path stroke="#303baa" d="M92.62 150.31q.7-.14.86-.56.26-.65-.43-.52-.81.15-1.65-.08-.39-.11-.8.06-.49.21-.64.54" vector-effect="non-scaling-stroke"/><path stroke="#5d627a" d="M89.96 149.75q-.36.16-.6.14-.55-.04-.41-.56.47-1.81-2.02-1.58" vector-effect="non-scaling-stroke"/><path stroke="#303baa" d="m86.93 147.75-2.2.97" vector-effect="non-scaling-stroke"/><path stroke="#5d627a" d="M84.92 147.6q1.26.34 1.02-1.57-.13-1.08-1.07-1.04" vector-effect="non-scaling-stroke"/><path stroke="#3e46b6" d="M84.01 143.82q1.19-.49 1.49-1.32.2-.54-.37-.6-1.28-.11-2.07 1.27" vector-effect="non-scaling-stroke"/><path stroke="#27329c" d="M143.49 146.42q.5.3 1.27-.05M147.07 146.66q.13.86.64 1.29.23.19.23-.1-.01-.18.22-.07.13.05.16.18l.21.71" vector-effect="non-scaling-stroke"/><path stroke="#6c7088" d="M148.53 148.67q-.36.15-.42.58-.07.54.37.78" vector-effect="non-scaling-stroke"/><path stroke="#27329c" d="M148.48 150.03q-.66 2.12.52 2.88" vector-effect="non-scaling-stroke"/><path stroke="#606997" d="M140.79 156.7q-.39-.92-1.26-1.58M134.99 150.46q.27-.72.07-1.34a.3.29-24.6 0 0-.44-.16q-.15.09-.27.37" vector-effect="non-scaling-stroke"/><path stroke="#757997" d="M86.93 147.75q-.14.93.88 1.5a.38.37 42.6 0 1 .03.64q-1.19.79-.79 2 .2.64.64.13.68-.82 1.68-.85.49-.01.76-.42.52-.8-.17-1" vector-effect="non-scaling-stroke"/><path stroke="#6972a5" d="M86.38 157.68q.66-.66.57-1.5a.66.66 0 0 0-.83-.57q-.47.13-.57.52" vector-effect="non-scaling-stroke"/><path stroke="#3e46b6" d="M165.3 153.32q-.18.82-1.11 1.09-.48.13-.56.63l-.43 2.58q-.03.2-.23.18l-.27-.02q-.32-.02-.32-.34-.01-.7-.36-1.25-.41-.64-.98-.15-.19.17-.29.41-.22.55.14 1.03.56.72.4 1.57-.1.54.38.8.71.39 1.44.41.65.01.39.61-.31.71-1.33 1.42" vector-effect="non-scaling-stroke"/><path stroke="#515b88" d="M158.23 154.27q-.06-.39-.19-.46a.76.76 0 0 0-1.13.69q.02.83 1.03.67" vector-effect="non-scaling-stroke"/><path stroke="#5d627a" d="M148.48 150.03q.67-.55.05-1.36" vector-effect="non-scaling-stroke"/><path stroke="#3e46b6" d="M166.24 153.84q-.18.72-.1 1.42.09.66.75.72 2.04.19 3.84 1.37.17.11.09.3l-.11.27q-.14.34-.48.19l-1.48-.61q-.49-.21-.75.25-1.23 2.18-1.9 1.17M188.07 159.19q-.79.99-.69 1.25.74 1.94 1.57.03.04-.08-.28-1.13" vector-effect="non-scaling-stroke"/><path stroke="#515b88" d="m188.43 165.24 1.02-.49q.67-.33.01-.68-.83-.44-.48-1.37a.56.56 0 0 0-.27-.71q-.96-.48-.87.5" vector-effect="non-scaling-stroke"/><path stroke="#5d627a" d="M95.6 143.94q-.56-.25-1.1-.15-.7.14-.06.45 1.38.68 2.77.54.68-.07.1-.44-.45-.28-.96-.26-.39.03-.75-.14M92.04 146.04l-.36 1.18q-.18.6.34.25l.81-.53q.54-.35.17-.88-.52-.73-1.11-1.4-.5-.57-.24.14.07.18.19.32.36.4.2.92" vector-effect="non-scaling-stroke"/><path stroke="#3e46b6" d="M94.7 146.34q-.92-.02-.18.52.38.27.45-.18.06-.33-.27-.34" vector-effect="non-scaling-stroke"/><path stroke="#5d627a" d="M98.615 150.688a1.02.55 125.7 0 0 1.042-.507 1.02.55 125.7 0 0 .148-1.15 1.02.55 125.7 0 0-1.042.508 1.02.55 125.7 0 0-.148 1.15" vector-effect="non-scaling-stroke"/><path stroke="#515b88" d="M120.045 159.303a.83.55 125.8 0 0 .931-.351.83.55 125.8 0 0 .04-.995.83.55 125.8 0 0-.932.351.83.55 125.8 0 0-.04.995M136.84 158.76q-.02.81.65 1.24a.43.42-79.4 0 0 .64-.44q-.13-.74-.71-1.11-.56-.35-.58.31" vector-effect="non-scaling-stroke"/><path stroke="#3e46b6" d="M100.434 161.87a.47.33 101.8 0 0 .419-.393.47.33 101.8 0 0-.227-.527.47.33 101.8 0 0-.419.393.47.33 101.8 0 0 .227.527" vector-effect="non-scaling-stroke"/><path stroke="#6c7088" d="M146.792 149.785a.5.35 45.3 0 0-.103-.601.5.35 45.3 0 0-.6-.11.5.35 45.3 0 0 .102.602.5.35 45.3 0 0 .6.11" vector-effect="non-scaling-stroke"/><path stroke="#3e46b6" d="M160.97 154.65q.14.31.45.36a.49.49 0 0 0 .5-.73q-.34-.6-1.25-.9-.61-.2-.4.41.11.3.41.5.2.14.29.36M154.49 158.187a1.43.67 128 0 0 1.408-.715 1.43.67 128 0 0 .352-1.539 1.43.67 128 0 0-1.408.715 1.43.67 128 0 0-.352 1.539" vector-effect="non-scaling-stroke"/><path stroke="#5d627a" d="M202.14 161.63q.12.09.25.15.38.17.64-.18.11-.14.14-.32.05-.43-.36-.55-.5-.14-.84-.52-.5-.57-.96.04-.16.21-.21.46-.11.49.39.61l.55.13q.22.05.4.18M200.23 162.17q.32-.74-.45-.5-.81.26-1.45.61-.55.3-.36.93.19.61.8.42.97-.31 1.46-1.46" vector-effect="non-scaling-stroke"/></g><path fill="#18238d" d="M124.76 149.08q-.72.75-.91 1.41-.17.57.44.55 1.22-.06 1.72-1.9l7.93-1.18.41 1.37q-.43.86-.13 1.54.17.38.48.1.17-.14.29-.51.65.02.79-.92.07-.47.55-.45.22.01.39.15.29.24.09.56-.08.13-.2.22-.37.29-.16.7.2.37.62.47.77.17.18-.36-.17-.16-.14-.42.06-.52.47-.2.69.55.72 1.43c.05 1.29 1.11 1.33 1.48 2.32q.25.68-.25 1.16-1.18.94-2.07.08a.49.48 30.1 0 0-.81.21q-.17.62.16 1.1a.85.85 0 0 0 .88.35l.6-.13q.6-.13.8.46.13.37.46.59.41.28.5-.2.04-.2.22-.29a.24.24 0 0 1 .34.14q.05.14-.01.29l-.8 7.13q-.06.57-.63.49c-3.84-.57-5.87-8.51-6.37-12.21q-.04-.28-.32-.22l-.25.04q-.08.02-.09.17l-.35 4.54a1.22 1.22 0 0 1-2.04.8q-1.82-1.67-2.98-4.07a.51.51 0 0 0-.87-.08q-2.39 3.3-3.58 7.31c-.54 1.85-.29 3.67-1.78 5.11a.67.67 0 0 1-.98-.05c-3.24-3.88-3.71-8.89-3.56-13.87q.01-.41-.31-.65-.04-.03-.09-.04-.13-.02-.18.1-.18.43-.32.65l-2.53 1.31q-.52.27-.12.7.9.95 2.31.43-.94 3.29-.91 5.93.03 2.93-1.96.77-3-3.25-3.66-8.59-.48-3.89-1.84-.21-1.64 4.41-2.93 8.63c-.54 1.76-.52 3.38-.71 5.16a1.13 1.13 0 0 1-1.91.68q-2.57-2.52-3.05-6.28 1.46-.56 1.25-1.65-.22-1.17-1.84-.96-.18-.53-.09-1.1.02-.7 1.3-.67.52.02.62-.49.05-.28-.09-.5-.27-.45-.75-.23-.56.25-1.12.29-.28-3.87.84-7.62.06-.21-.15-.27l-.25-.07q-.13-.04-.18.08-.88 1.8-1.3 3.45-.97 3.78-2.19.1-.08-.25-1.22-1.45.7-.14.86-.56.26-.65-.43-.52-.81.15-1.65-.08-.39-.11-.8.06-.49.21-.64.54-.36.16-.6.14-.55-.04-.41-.56.47-1.81-2.02-1.58l-2.2.97.19-1.12q1.26.34 1.02-1.57-.13-1.08-1.07-1.04-.24-.68-.86-1.17 1.19-.49 1.49-1.32.2-.54-.37-.6-1.28-.11-2.07 1.27-.89-.05-1.68-.43-.55-.26-.34-.83.57-1.51 2.1-1.7 4.67-.59 9.24.72 8.17 2.33 18.56 6.21c4.35 1.62 9.14 1.86 13.82 1.94m-29.16-5.14q-.56-.25-1.1-.15-.7.14-.06.45 1.38.68 2.77.54.68-.07.1-.44-.45-.28-.96-.26-.39.03-.75-.14m-3.56 2.1-.36 1.18q-.18.6.34.25l.81-.53q.54-.35.17-.88-.52-.73-1.11-1.4-.5-.57-.24.14.07.18.19.32.36.4.2.92m2.66.3q-.92-.02-.18.52.38.27.45-.18.06-.33-.27-.34m3.915 4.348a1.02.55 125.7 0 0 1.042-.507 1.02.55 125.7 0 0 .148-1.15 1.02.55 125.7 0 0-1.042.508 1.02.55 125.7 0 0-.148 1.15m21.43 8.615a.83.55 125.8 0 0 .931-.351.83.55 125.8 0 0 .04-.995.83.55 125.8 0 0-.932.351.83.55 125.8 0 0-.04.995m16.795-.543q-.02.81.65 1.24a.43.42-79.4 0 0 .64-.44q-.13-.74-.71-1.11-.56-.35-.58.31m-36.406 3.11a.47.33 101.8 0 0 .419-.393.47.33 101.8 0 0-.227-.527.47.33 101.8 0 0-.419.393.47.33 101.8 0 0 .227.527"/><path fill="#6369df" d="M84.01 143.82q-.54-.25-.95-.65.79-1.38 2.07-1.27.57.06.37.6-.3.83-1.49 1.32"/><path fill="#a2a066" d="M96.35 144.08q.51-.02.96.26.58.37-.1.44-1.39.14-2.77-.54-.64-.31.06-.45.54-.1 1.1.15.36.17.75.14M91.84 145.12q-.12-.14-.19-.32-.26-.71.24-.14.59.67 1.11 1.4.37.53-.17.88l-.81.53q-.52.35-.34-.25l.36-1.18q.16-.52-.2-.92M84.92 147.6l-.05-2.61q.94-.04 1.07 1.04.24 1.91-1.02 1.57"/><path fill="#6369df" d="M94.7 146.34q.33.01.27.34-.07.45-.45.18-.74-.54.18-.52"/><path fill="#3540aa" d="M143.49 146.42q.5.3 1.27-.05l2.31.29q.13.86.64 1.29.23.19.23-.1-.01-.18.22-.07.13.05.16.18l.21.71q-.36.15-.42.58-.07.54.37.78-.66 2.12.52 2.88-.27 2.91-1.28 4.99a1.16 1.16 0 0 1-1.88.3q-2.01-2.06-3-4.99-.47-1.38-1.06-.05-.71 1.58-.99 3.54-.39-.92-1.26-1.58.5-.48.25-1.16c-.37-.99-1.43-1.03-1.48-2.32q-.03-.88-.72-1.43-.41-.32-.47.2-.03.26.14.42.59.53-.18.36-.42-.1-.62-.47-.21-.41.16-.7.12-.09.2-.22.2-.32-.09-.56-.17-.14-.39-.15-.48-.02-.55.45-.14.94-.79.92.27-.72.07-1.34a.3.29-24.6 0 0-.44-.16q-.15.09-.27.37l-.41-1.37zm3.302 3.365a.5.35 45.3 0 0-.103-.601.5.35 45.3 0 0-.6-.11.5.35 45.3 0 0 .102.602.5.35 45.3 0 0 .6.11"/><path fill="#18238d" d="M144.76 146.37q-.77.35-1.27.05.65-.15 1.27-.05M165.3 153.32q-.18.82-1.11 1.09-.48.13-.56.63l-.43 2.58q-.03.2-.23.18l-.27-.02q-.32-.02-.32-.34-.01-.7-.36-1.25-.41-.64-.98-.15-.19.17-.29.41-.22.55.14 1.03.56.72.4 1.57-.1.54.38.8.71.39 1.44.41.65.01.39.61-.31.71-1.33 1.42-2.14-3.34-3.1-7.8a.45.44 79.6 0 0-.5-.35q-.17.02-.34.13-.06-.39-.19-.46a.76.76 0 0 0-1.13.69q.02.83 1.03.67l-2.49 7.02a1.11 1.1-89.4 0 1-.69.68q-1.95.67-2.46-1.32-.79-3.09-1.37-6.21-.15-.79-.53-1.51-.87-1.61-1.4-.92-1.18-.76-.52-2.88.67-.55.05-1.36l-.21-.71q-.03-.13-.16-.18-.23-.11-.22.07 0 .29-.23.1-.51-.43-.64-1.29 4.1 1.12 7.96 3.08c2.05 1.04 5.22 1.02 7.57 2.17q1.36.67 2.7 1.41m-4.33 1.33q.14.31.45.36a.49.49 0 0 0 .5-.73q-.34-.6-1.25-.9-.61-.2-.4.41.11.3.41.5.2.14.29.36m-6.48 3.537a1.43.67 128 0 0 1.408-.715 1.43.67 128 0 0 .352-1.539 1.43.67 128 0 0-1.408.715 1.43.67 128 0 0-.352 1.539"/><path fill="#4852c7" d="M86.93 147.75q-.14.93.88 1.5a.38.37 42.6 0 1 .03.64q-1.19.79-.79 2 .2.64.64.13.68-.82 1.68-.85.49-.01.76-.42.52-.8-.17-1 .15-.33.64-.54.41-.17.8-.06.84.23 1.65.08.69-.13.43.52-.16.42-.86.56-2.17 5.01-2.7 10.06a.71.71 0 0 1-1.02.56q-2.02-1-2.52-3.25.66-.66.57-1.5a.66.66 0 0 0-.83-.57q-.47.13-.57.52-1.98-3.65-.82-7.41z"/><path fill="#a2a066" d="M89.96 149.75q.69.2.17 1-.27.41-.76.42-1 .03-1.68.85-.44.51-.64-.13-.4-1.21.79-2a.38.37 42.6 0 0-.03-.64q-1.02-.57-.88-1.5 2.49-.23 2.02 1.58-.14.52.41.56.24.02.6-.14"/><path fill="#8a9283" d="M134.99 150.46q-.12.37-.29.51-.31.28-.48-.1-.3-.68.13-1.54.12-.28.27-.37a.3.29-24.6 0 1 .44.16q.2.62-.07 1.34"/><path fill="#a2a066" d="M148.53 148.67q.62.81-.05 1.36-.44-.24-.37-.78.06-.43.42-.58"/><ellipse fill="#a2a066" rx="1.02" ry=".55" transform="rotate(125.7 11.179 100.369)"/><path fill="#8a9283" d="M126.01 149.14q-.5 1.84-1.72 1.9-.61.02-.44-.55.19-.66.91-1.41.65-.28 1.25.06"/><ellipse fill="#a2a066" rx=".5" ry=".35" transform="rotate(45.3 -105.83 250.183)"/><path fill="#4852c7" d="m115.1 152.87-.34 2.44q-1.41.52-2.31-.43-.4-.43.12-.7z"/><path fill="#6369df" d="M160.68 154.29q-.3-.2-.41-.5-.21-.61.4-.41.91.3 1.25.9a.49.49 0 0 1-.5.73q-.31-.05-.45-.36-.09-.22-.29-.36M166.24 153.84q-.18.72-.1 1.42.09.66.75.72 2.04.19 3.84 1.37.17.11.09.3l-.11.27q-.14.34-.48.19l-1.48-.61q-.49-.21-.75.25-1.23 2.18-1.9 1.17l.06-1.03q-.93-1.77-1.1.22-.16 1.73-1.27 3.91-.23.46-1.62.27 1.02-.71 1.33-1.42.26-.6-.39-.61-.73-.02-1.44-.41-.48-.26-.38-.8.16-.85-.4-1.57-.36-.48-.14-1.03.1-.24.29-.41.57-.49.98.15.35.55.36 1.25 0 .32.32.34l.27.02q.2.02.23-.18l.43-2.58q.08-.5.56-.63.93-.27 1.11-1.09.5.1.94.52"/><path fill="#8a9283" d="M158.23 154.27q-.06.47-.29.9-1.01.16-1.03-.67a.76.76 0 0 1 1.13-.69q.13.07.19.46"/><path fill="#18238d" d="M188.07 159.19q-.79.99-.69 1.25.74 1.94 1.57.03.04-.08-.28-1.13l14.36-.34a1.41 1.41 0 0 1 1.36 1.9q-1.96 5.36-3.91 10.03-.22.51-.67.86a.52.51-25.8 0 1-.81-.28l-1.85-7.52q-.62-2.53-1.3-.01l-2.61 9.58q-1.02 3.77-2.18.05l-2.63-8.37 1.02-.49q.67-.33.01-.68-.83-.44-.48-1.37a.56.56 0 0 0-.27-.71q-.96-.48-.87.5-.5-.06-.74.38-1.4 2.57-1.31 5.46.09 2.86-1.76.68-1.91-2.26-3.05-5.75a.58.56 5.8 0 0-.28-.33q-.5-.27-.63.06-.05.13-.05.25-.08 3.57-.11 6.91a.84.84 0 0 1-1.37.65c-2.13-1.72-3.7-7.17-4.45-9.84q-.82-2.88-1.93-.11-1.1 2.75-1.57 6.05a.72.72 0 0 1-1.24.38q-3.41-3.79-3.25-8.36.67 1.01 1.9-1.17.26-.46.75-.25l1.48.61q.34.15.48-.19l.11-.27q.08-.19-.09-.3-1.8-1.18-3.84-1.37-.66-.06-.75-.72-.08-.7.1-1.42 6.94 2.22 13.99 4.24c2.68.76 5.11.94 7.84 1.11m14.07 2.44q.12.09.25.15.38.17.64-.18.11-.14.14-.32.05-.43-.36-.55-.5-.14-.84-.52-.5-.57-.96.04-.16.21-.21.46-.11.49.39.61l.55.13q.22.05.4.18m-1.91.54q.32-.74-.45-.5-.81.26-1.45.61-.55.3-.36.93.19.61.8.42.97-.31 1.46-1.46"/><path fill="#8a9283" d="M139.53 155.12q.87.66 1.26 1.58l-.19 1.02q.06-.15.01-.29a.24.24 0 0 0-.34-.14q-.18.09-.22.29-.09.48-.5.2-.33-.22-.46-.59-.2-.59-.8-.46l-.6.13a.85.85 0 0 1-.88-.35q-.33-.48-.16-1.1a.49.48 30.1 0 1 .81-.21q.89.86 2.07-.08M86.38 157.68q-.73-.7-.83-1.55.1-.39.57-.52a.66.66 0 0 1 .83.57q.09.84-.57 1.5M97.11 157.69l-.04-1.6q.56-.04 1.12-.29.48-.22.75.23.14.22.09.5-.1.51-.62.49-1.28-.03-1.3.67"/><ellipse fill="#6369df" rx="1.43" ry=".67" transform="rotate(128 39.383 116.42)"/><ellipse fill="#8a9283" rx=".83" ry=".55" transform="rotate(125.8 19.677 110.154)"/><path fill="#8a9283" d="M137.42 158.45q.58.37.71 1.11a.43.42-79.4 0 1-.64.44q-.67-.43-.65-1.24.02-.66.58-.31"/><path fill="#a2a066" d="M97.79 161.4q-.71-1.25-.59-2.61 1.62-.21 1.84.96.21 1.09-1.25 1.65"/><path fill="#6369df" d="M188.67 159.34q.32 1.05.28 1.13-.83 1.91-1.57-.03-.1-.26.69-1.25z"/><path fill="#a2a066" d="m201.74 161.45-.55-.13q-.5-.12-.39-.61.05-.25.21-.46.46-.61.96-.04.34.38.84.52.41.12.36.55-.03.18-.14.32-.26.35-.64.18-.13-.06-.25-.15-.18-.13-.4-.18"/><ellipse fill="#6369df" rx=".47" ry=".33" transform="rotate(101.8 -15.322 121.554)"/><path fill="#a2a066" d="M200.23 162.17q-.49 1.15-1.46 1.46-.61.19-.8-.42-.19-.63.36-.93.64-.35 1.45-.61.77-.24.45.5"/><path fill="#8a9283" d="m188.43 165.24-.59-2.75q-.09-.98.87-.5a.56.56 0 0 1 .27.71q-.35.93.48 1.37.66.35-.01.68z"/></svg>