<svg xmlns="http://www.w3.org/2000/svg" viewBox="0 0 382 382"><g fill="none" stroke="#3b1e57" stroke-width="2"><path d="M84.55 139.97q.18 1.2 1.25 2.47.46.55.15.97-.31.41-.72.1-1.01-.75-1.91-.1M80.99 141.97q1.48-.33 2.11-1.76M101.48 143.96q-.42 1.8-1.89 2.98-.46.36-.22.89.26.59.88.78.63.18.65-.48.01-.43.32-.72.38-.36.75.01l1.73 1.77q.43.44.36 1.05-.17 1.53-1.48 2.62-.42.36-.18.86l.25.54q.39.82-.52.84-.28.01-.54.11-.86.34.03.58 1.26.34 1.52 1.54.04.19.2.32.12.11.28.1a.37.37 0 0 0 .34-.39q-.16-2.6 1.74-2.43M112.02 147.57q.02.76.32.99.22.17.64-.05.32-.17.62-.35M115.54 148.42q.54.73.02 1.49a1.16 1.14 56.6 0 0-.17.88l.23 1.16M114.67 155.08q-1.77-.06-2.58 3.74c-.12.55.02 1.08.44 1.46q.4.37.39.92-.03 1.23.88 1.1M111.46 161.44q.3-.38.43-.81.18-.6-.45-.6-.35 0-.77.31M116.1 156.9q.86-1.72 2.37-2.22 1.1-.37.35-1.26l-.7-.82q-.61-.73-1.18.03-.37.48-.89.82M141.22 154.78l-1.28-.4q-.67-.21-.9.45-.31.93-1.2 1.44-.26.15-.22.46l.04.29q.06.43-.18.79l-2.29 3.38M134.34 159.53q.89-1.27.38-2.39a1.33 1.32-49.6 0 1-.07-.93q.51-1.69.27-3.55-.07-.54-.62-.55-2.22-.02-3.85-2.25-.43-.6.27-.37 1.43.47 2.28-1.43M156.43 150.25q-.53 1.49-1.83 2.69-.37.34-.16.8 1.17 2.58 3.48 1.5M141.34 154.47l-.35-3.76q-.05-.5.37-.79.21-.15.25-.4.1-.76-.44-.21-.17.18-.33.37a.83.82-63.4 0 1-.83.28q-.57-.14-.91-.61-.36-.48-.02-.97l.99-1.41M164.06 152.7q-.26 1.33.02 2.57a.86.86 0 0 0 .48.6l2.88 1.34q.43.2.55.67.05.19.02.39-.1.89-.82.35l-1.03-.76M164.96 158q-2.27-.19-4.5 1.15" vector-effect="non-scaling-stroke"/><path d="M117.87 153.48a.45.45 0 0 0-.45-.45.45.45 0 0 0-.45.45.45.45 0 0 0 .45.45.45.45 0 0 0 .45-.45" vector-effect="non-scaling-stroke"/></g><path fill="#753bae" d="M84.55 139.97q.18 1.2 1.25 2.47.46.55.15.97-.31.41-.72.1-1.01-.75-1.91-.1l-2.03-.73q-.33-.11-.35-.45 0-.13.05-.26 1.48-.33 2.11-1.76.71 0 1.45-.24"/><path d="M101.48 143.96q-.42 1.8-1.89 2.98-.46.36-.22.89.26.59.88.78.63.18.65-.48.01-.43.32-.72.38-.36.75.01l1.73 1.77q.43.44.36 1.05-.17 1.53-1.48 2.62-.42.36-.18.86l.25.54q.39.82-.52.84-.28.01-.54.11-.86.34.03.58 1.26.34 1.52 1.54.04.19.2.32.12.11.28.1a.37.37 0 0 0 .34-.39q-.16-2.6 1.74-2.43c-1.29 3.96-2.83 7.65-2.87 11.89a1.16 1.15-73.3 0 1-1.78.96q-1-.65-1.6-1.76c-3.01-5.55-2.69-11.23-1.92-17.34q.02-.22-.19-.28-.15-.04-.21.11-.71 1.73-1.2 3.58-.72 2.78-2.07.24-.27-.5-.42-1.09-.42-1.71-1.13-.1-1.76 3.95-2.3 8.93a1.03 1.03 0 0 1-1.8.56q-5.19-5.95-3.34-13.41.7-2.79-1.55-3.81.9-.65 1.91.1.41.31.72-.1.31-.42-.15-.97-1.07-1.27-1.25-2.47 8.67.28 16.93 3.99M83.1 140.21q-.63 1.43-2.11 1.76.54-1.37 2.11-1.76"/><path fill="#753bae" d="m101.48 143.96 10.54 3.61q.02.76.32.99.22.17.64-.05.32-.17.62-.35l1.94.26q.54.73.02 1.49a1.16 1.14 56.6 0 0-.17.88l.23 1.16-.95 3.13q-1.77-.06-2.58 3.74c-.12.55.02 1.08.44 1.46q.4.37.39.92-.03 1.23.88 1.1-.92 1.39-2.34-.86.3-.38.43-.81.18-.6-.45-.6-.35 0-.77.31-2.36-3.99-2.85-8.16-.21-1.76-.9-.12l-1.22 2.87q-1.9-.17-1.74 2.43a.37.37 0 0 1-.34.39q-.16.01-.28-.1-.16-.13-.2-.32-.26-1.2-1.52-1.54-.89-.24-.03-.58.26-.1.54-.11.91-.02.52-.84l-.25-.54q-.24-.5.18-.86 1.31-1.09 1.48-2.62.07-.61-.36-1.05l-1.73-1.77q-.37-.37-.75-.01-.31.29-.32.72-.02.66-.65.48-.62-.19-.88-.78-.24-.53.22-.89 1.47-1.18 1.89-2.98"/><path d="M156.43 150.25q-.53 1.49-1.83 2.69-.37.34-.16.8 1.17 2.58 3.48 1.5-1.2 3.37-2.43 6.78-.4 1.1-1.56 1.02a1.78 1.77-5.1 0 1-1.62-1.35q-.85-3.45-1.49-6.67-.24-1.19-1.02-2.03-.42-.47-.59.13l-1.4 4.78a.98.98 0 0 1-1.37.61q-1.28-.62-1.93-2.15-2.59-6.14-3.17-1.89l-.35-3.76q-.05-.5.37-.79.21-.15.25-.4.1-.76-.44-.21-.17.18-.33.37a.83.82-63.4 0 1-.83.28q-.57-.14-.91-.61-.36-.48-.02-.97l.99-1.41c6.3-1.83 10.74 1 16.36 3.28"/><path fill="#753bae" d="m140.07 146.97-.99 1.41q-.34.49.02.97.34.47.91.61a.83.82-63.4 0 0 .83-.28q.16-.19.33-.37.54-.55.44.21-.04.25-.25.4-.42.29-.37.79l.35 3.76q-.06.15-.12.31l-1.28-.4q-.67-.21-.9.45-.31.93-1.2 1.44-.26.15-.22.46l.04.29q.06.43-.18.79l-2.29 3.38-.85-1.66q.89-1.27.38-2.39a1.33 1.32-49.6 0 1-.07-.93q.51-1.69.27-3.55-.07-.54-.62-.55-2.22-.02-3.85-2.25-.43-.6.27-.37 1.43.47 2.28-1.43z"/><path d="M113.6 148.16q-.3.18-.62.35-.42.22-.64.05-.3-.23-.32-.99zM133 148.06q-.85 1.9-2.28 1.43-.7-.23-.27.37 1.63 2.23 3.85 2.25.55.01.62.55.24 1.86-.27 3.55a1.33 1.32-49.6 0 0 .07.93q.51 1.12-.38 2.39l-1.63-5.8q-.32-1.11-.49.03l-.5 3.49a.1.08-38 0 1-.01.04q-1.04 2.66-2.49.73-1.38-1.85-2.73-3.62a.39.39 0 0 0-.62 0q-3.32 4.5-4.13 10.15c-.1.7-.48 1.41-.95 1.93a1.02 1.02 0 0 1-1.61-.14q-3.04-4.79-3.08-9.44.86-1.72 2.37-2.22 1.1-.37.35-1.26l-.7-.82q-.61-.73-1.18.03-.37.48-.89.82.02-.94-.43-1.5l-.23-1.16a1.16 1.14 56.6 0 1 .17-.88q.52-.76-.02-1.49 8.84 1.36 17.46-.36"/><path fill="#753bae" d="M164.06 152.7q-.26 1.33.02 2.57a.86.86 0 0 0 .48.6l2.88 1.34q.43.2.55.67.05.19.02.39-.1.89-.82.35l-1.03-.76q.01-.24-.08-.42-.23-.49-.65-.14-.3.25-.47.7-2.27-.19-4.5 1.15l-1.42-4.84q-.18-.58-.5-.06l-.62.99q-2.31 1.08-3.48-1.5-.21-.46.16-.8 1.3-1.2 1.83-2.69 1.76.53 3.74.86c1.55.26 2.62.83 3.89 1.59M116.1 156.9l-.05-3.45q.52-.34.89-.82.57-.76 1.18-.03l.7.82q.75.89-.35 1.26-1.51.5-2.37 2.22m1.77-3.42a.45.45 0 0 0-.45-.45.45.45 0 0 0-.45.45.45.45 0 0 0 .45.45.45.45 0 0 0 .45-.45"/><path d="m166.16 157.86 1.03.76q.72.54.82-.35.03-.2-.02-.39-.12-.47-.55-.67l-2.88-1.34a.86.86 0 0 1-.48-.6q-.28-1.24-.02-2.57c5.6 2.65 11.72 3.95 17.48 5.77q2.83.89 12.41.73c1.81-.03 3.31.59 5.12.17q2.1-.49 4.13-.32a1.39 1.39 0 0 1 1.19 1.86q-1.6 4.28-3.4 8.86-.43 1.08-1.14 1.99a.46.46 0 0 1-.81-.17l-1.94-7.78q-.52-2.08-1.14-.03-1.53 4.98-2.66 9.83-.81 3.48-2.11.15-1.93-4.93-3.39-10.86-.19-.79-.62-.1-1.69 2.76-1.34 6.47a.58.58 0 0 1-.88.55c-1.87-1.12-3.06-4.21-3.98-6.22q-.94-2.08-.98.2l-.07 4.24q-.09 5.67-2.85.72-1.75-3.12-2.86-7.46-.9-3.5-2.19-.12-1.05 2.73-1.49 5.65a.75.75 0 0 1-1.33.36q-3.57-4.39-3.05-9.33"/><circle cx="117.42" cy="153.48" r=".45"/><path d="m141.22 154.78-1.44 9.63q-.25 1.69-1.61.64-2.26-1.75-2.98-3.86l2.29-3.38q.24-.36.18-.79l-.04-.29q-.04-.31.22-.46.89-.51 1.2-1.44.23-.66.9-.45zM114.67 155.08l-.87 7.22q-.91.13-.88-1.1.01-.55-.39-.92c-.42-.38-.56-.91-.44-1.46q.81-3.8 2.58-3.74M164.96 158q-.06 2.21-1.11 3.85a1.24 1.23 48.4 0 1-2.15-.13l-1.24-2.57q2.23-1.34 4.5-1.15M111.46 161.44l-.79-1.1q.42-.31.77-.31.63 0 .45.6-.13.43-.43.81"/></svg>