<svg xmlns="http://www.w3.org/2000/svg" viewBox="0 0 382 382"><g fill="none" stroke-width="2"><path stroke="#2e1c11" d="M83.59 140.09q-.76.97-1.67.73" vector-effect="non-scaling-stroke"/><path stroke="#7a3104" d="M97.9 142.67q-1.95 1.39-2.84 3.76a.33.33 0 0 0 .23.43q1.99.52 2.66-1.24.43-1.12.93-.04l.99 2.12q.26.55-.13 1.03-.89 1.1-2.29 1.72M83.33 143.34l-1.68-2.21M107.98 146.08l.05 2.4q0 .15.08.3.2.39.58-.12.21-.28.29-.62.03-.19.06-.36.14-.94.82-.28l2.22 2.15q.34.33.7.01.39-.35.75-1.41M113.92 148.21q.29 3.39-2.2 5.03-.45.3-.2.77.65 1.25-.33 2.5a.89.88-62.9 0 0 .45 1.4q1.58.44 2.23 2.15M113.9 160.78l-2.39.65M104.49 158.25q-.53.23-.87.61-.34.4-.24.92.1.49.43.94M102.94 162.92q-1.57 1.36-.15 3.1M102.14 167.82l-.85.05M100.89 167.61l.06-7.82q0-.6-.58-.72l-.64-.14q-.98-.21-.05-.6 2.09-.87 3-3.75.11-.37-.27-.46-2.08-.48-2.44-2.42a.65.65 0 0 0-1.15-.28q-.88 1.11-1.65 1.6M97.31 151.99q.56-.57.14-1.54" vector-effect="non-scaling-stroke"/><path stroke="#505934" d="M125.04 149.09q-.07.5.46.51.71.01.67-.49" vector-effect="non-scaling-stroke"/><path stroke="#7a3104" d="M128.11 148.88q.93 1.58.04 2.57-.47.51-1.02.09l-.53-.39q-.41-.31-.81.01-.15.12-.15.29c.01.71 1.25 1.91 1.4 3.1" vector-effect="non-scaling-stroke"/><path stroke="#2e1c11" d="M116.46 159.98q.16-.77-.19-1.19" vector-effect="non-scaling-stroke"/><path stroke="#7a3104" d="M131.9 155.2q-2.97-.99-4.86-.37M148.16 146.96q-1.75 1.8-.44 3.45a.97.96 32.8 0 1 .19.85q-.11.47-.46.82-.4.38-.05.81c1.23 1.5 1.31 3.11-.62 4.01a.8.8 0 0 0 .01 1.46q.21.1.5.2M135.49 161.88q.3-1.87 2.21-2.14.26-.04.23-.3l-.03-.28a.28.28 0 0 0-.36-.24q-2.29.71-2.78-1.4a.83.82 1.3 0 0-.59-.61q-.53-.15-.49-.64.04-.58.48-.97.82-.72.16-1.61-.46-.62.31-.69 1.12-.11 2.16.53.52.32.53-.29.02-1.85-1.46-2.35-.55-.19-.85-.69-.11-.17-.13-.38a.43.43 0 0 0-.59-.34q-1.35.53-2.19-1.29" vector-effect="non-scaling-stroke"/><path stroke="#505934" d="m139.19 147-1.48 2.16q-.46.66.22.22 1.34-.86 2.28-2.39" vector-effect="non-scaling-stroke"/><path stroke="#7a3104" d="m155.34 149.94-3.19 3.37a.87.87 0 0 0-.19.85l.1.33a.46.45-29.5 0 0 .73.2q1.13-.96 2.81-.77.32.03.31.36v.3q-.01.24-.24.28l-1.14.2q-.64.12-.3.67.39.62.98.91.45.22.84-.09.76-.6 1.27.23M157.1 156.89l-2.56 1.3q-.58.29-.48.93.24 1.58-1.16 2.24-.15.08-.21.24-.05.17.01.34.07.2.29.19.72-.02 1.66.94M155.8 150.04q1.1.98 1.4 2.55.04.23.27.19l.28-.06q.29-.05.26-.33-.1-.93.28-1.68M167.97 154.55q-1.06.3-1.06 1.34-.01 1.31 1.03.51l.24-.18a.5.5 0 0 1 .81.44q-.12 1.36.59 2.47.42.65-.32.85-2.69.75-2.22 3.02M178.32 157.5c.95 1.24.33 3.7 1.23 4.25a.22.21 24.3 0 0 .32-.12q.09-.28.43-.26.55.03.11.36-.83.62-.36.96M179.49 170.78q-.66-.71-1.54-.7M177.74 169.95q.47-1.44-.4-3.06-1.33-2.48-2.3-3.23M171.66 162.33q-.73.39-1.16.92-.3.37-.35 1.36-.08 1.58-1.62 1.51" vector-effect="non-scaling-stroke"/><path stroke="#7a3104" d="M167.29 164.26q.35-.02.39-.17a1.26 1.23 39.5 0 0-.1-.91q-.18-.34-.54-.18" vector-effect="non-scaling-stroke"/><path stroke="#505934" d="M182.26 158.72q-.27.46-.08.74a.45.45 0 0 0 .77-.04q.1-.19-.02-.59" vector-effect="non-scaling-stroke"/><path stroke="#612b3c" d="M200.32 171.13q-.6-1.29-1.6-.77" vector-effect="non-scaling-stroke"/><path stroke="#505934" d="M196.84 162.59q-.09-.67-1.1-.52a.76.75 1.7 0 0-.62.58q-.23.98.68 1.29" vector-effect="non-scaling-stroke"/><path stroke="#612b3c" d="M191.24 174.15q1.08-.83.53-1.65-.39-.59-1.23-.46" vector-effect="non-scaling-stroke"/><path stroke="#7a3104" d="m185.86 166.69-.34-.57q-.24-.42-.08-.87l1.44-3.96q.17-.47-.32-.38l-.81.14q-.43.07-.59.47-.41.96-1.38 1.44-.49.25-.68.76-.36.95-1.14 1.64M185.67 168.17q-.9-.45-2.16.15" vector-effect="non-scaling-stroke"/><path stroke="#2e1c11" d="M145.46 155.76q-.01 0-.06-.02-.1-.04-.01 0 .04.02.08.05.07.04.13-.02.18-.19-.08-.3-.11-.05-.14.07-.04.15.08.22.04.02 0 0" vector-effect="non-scaling-stroke"/><path stroke="#505934" d="M137.82 156.13a.33.33 0 0 0-.08.6q.36.2.76.15a.33.32 59.7 0 0 .15-.58q-.37-.29-.83-.17" vector-effect="non-scaling-stroke"/><path stroke="#612b3c" d="M138.46 163.58q.12.26.28.03a.17.16-75.7 0 0-.15-.26q-.21.03-.13.23" vector-effect="non-scaling-stroke"/><path stroke="#505934" d="M114.714 151.418a.68.33 127.7 0 0 .677-.336.68.33 127.7 0 0 .155-.74.68.33 127.7 0 0-.677.336.68.33 127.7 0 0-.155.74" vector-effect="non-scaling-stroke"/><path stroke="#2e1c11" d="M124.51 153.45q.08.34.27-.01a.11.11 0 0 0-.09-.16q-.23-.01-.18.17" vector-effect="non-scaling-stroke"/><path stroke="#505934" d="M119.65 157.1q.28.47.4 1 .4 1.71.73-.01.18-.92-.68-1.44-1.06-.63-.45.45" vector-effect="non-scaling-stroke"/><path stroke="#2e1c11" d="M118.34 159.49q.05.2.19.04.19-.2-.07-.22-.18-.02-.12.18" vector-effect="non-scaling-stroke"/><path stroke="#505934" d="M119.83 163.48a.3.3 0 0 0-.3-.3.3.3 0 0 0-.3.3.3.3 0 0 0 .3.3.3.3 0 0 0 .3-.3" vector-effect="non-scaling-stroke"/><path stroke="#7a3104" d="M98.95 153.58a.27.27 0 0 0 .3.43q.23-.1.31-.34.14-.37-.25-.3-.21.05-.36.21M183.71 161.78q.85-.49 1.12-1.37.23-.72-.4-.3-.81.53-1.06 1.4-.16.55.34.27" vector-effect="non-scaling-stroke"/><path stroke="#505934" d="M193.3 161.1q.24-.15.28-.46.04-.41-.32-.2-.63.36-.92 1-.21.47.28.32.33-.1.47-.43a.53.5 88.7 0 1 .21-.23" vector-effect="non-scaling-stroke"/><path stroke="#2e1c11" d="M189.25 163.48a.21.2 82.7 0 0 .28.22q.13-.06.17-.2a.2.2 0 0 0-.18-.26q-.24-.01-.27.24M199.21 165.54q.05.17.22.19.31.05.33-.28.01-.22-.19-.28a.29.29 0 0 0-.36.37" vector-effect="non-scaling-stroke"/></g><path fill="#5c3922" fill-opacity=".996" d="M83.59 140.09q-.76.97-1.67.73.54-.7 1.67-.73"/><path d="M97.9 142.67q-1.95 1.39-2.84 3.76a.33.33 0 0 0 .23.43q1.99.52 2.66-1.24.43-1.12.93-.04l.99 2.12q.26.55-.13 1.03-.89 1.1-2.29 1.72.41-1 .32-1.82-.09-.77-.47-.1-1.08 1.91-1.4 3.82-.08.49-.43.84-.27.29-.67.26-.48-.03-.66-.47l-.78-1.91q-.51-1.27-1.05 0-1.62 3.82-2.13 7.87-.49 3.82-2.77.73-1.95-2.64-2.91-6.27c-.78-2.97 2.04-8.44-1.17-10.06l-1.68-2.21q.29-.28.27-.31.91.24 1.67-.73 7.35-.33 14.31 2.58"/><path fill="#f36207" d="m81.65 141.13 1.68 2.21-1.84-.56q-.51-.16-.51-.7.01-.59.67-.95M97.9 142.67l10.08 3.41.05 2.4q0 .15.08.3.2.39.58-.12.21-.28.29-.62.03-.19.06-.36.14-.94.82-.28l2.22 2.15q.34.33.7.01.39-.35.75-1.41l.39.06q.29 3.39-2.2 5.03-.45.3-.2.77.65 1.25-.33 2.5a.89.88-62.9 0 0 .45 1.4q1.58.44 2.23 2.15.08.32.03.72l-2.39.65c-2.36-2.88-3.09-6.16-3.78-9.39q-.31-1.46-.84-.07l-2.4 6.28q-.53.23-.87.61-.34.4-.24.92.1.49.43.94-.29 1.3-.87 2.2-1.57 1.36-.15 3.1.18.97-.65 1.8l-.85.05-.4-.26.06-7.82q0-.6-.58-.72l-.64-.14q-.98-.21-.05-.6 2.09-.87 3-3.75.11-.37-.27-.46-2.08-.48-2.44-2.42a.65.65 0 0 0-1.15-.28q-.88 1.11-1.65 1.6l.14-1.03q.56-.57.14-1.54 1.4-.62 2.29-1.72.39-.48.13-1.03l-.99-2.12q-.5-1.08-.93.04-.67 1.76-2.66 1.24a.33.33 0 0 1-.23-.43q.89-2.37 2.84-3.76"/><path d="M113.53 148.15q-.36 1.06-.75 1.41-.36.32-.7-.01l-2.22-2.15q-.68-.66-.82.28-.03.17-.06.36-.08.34-.29.62-.38.51-.58.12-.08-.15-.08-.3l-.05-2.4zM148.16 146.96q-1.75 1.8-.44 3.45a.97.96 32.8 0 1 .19.85q-.11.47-.46.82-.4.38-.05.81c1.23 1.5 1.31 3.11-.62 4.01a.8.8 0 0 0 .01 1.46q.21.1.5.2c-2.51-.3-3.73-3.28-4.52-5.38q-.53-1.42-1.01.02-1.94 5.87-1.93 11.65a.59.59 0 0 1-.76.56q-2.41-.76-3.58-3.53.3-1.87 2.21-2.14.26-.04.23-.3l-.03-.28a.28.28 0 0 0-.36-.24q-2.29.71-2.78-1.4a.83.82 1.3 0 0-.59-.61q-.53-.15-.49-.64.04-.58.48-.97.82-.72.16-1.61-.46-.62.31-.69 1.12-.11 2.16.53.52.32.53-.29.02-1.85-1.46-2.35-.55-.19-.85-.69-.11-.17-.13-.38a.43.43 0 0 0-.59-.34q-1.35.53-2.19-1.29l7.09-1.19-1.48 2.16q-.46.66.22.22 1.34-.86 2.28-2.39 3.81-1.31 7.95-.03m-2.7 8.8q-.01 0-.06-.02-.1-.04-.01 0 .04.02.08.05.07.04.13-.02.18-.19-.08-.3-.11-.05-.14.07-.04.15.08.22.04.02 0 0m-7.64.37a.33.33 0 0 0-.08.6q.36.2.76.15a.33.32 59.7 0 0 .15-.58q-.37-.29-.83-.17m.64 7.45q.12.26.28.03a.17.16-75.7 0 0-.15-.26q-.21.03-.13.23"/><path fill="#9fb267" d="M140.21 146.99q-.94 1.53-2.28 2.39-.68.44-.22-.22l1.48-2.16q.27.11 1.02-.01"/><path fill="#f36207" d="m155.34 149.94-3.19 3.37a.87.87 0 0 0-.19.85l.1.33a.46.45-29.5 0 0 .73.2q1.13-.96 2.81-.77.32.03.31.36v.3q-.01.24-.24.28l-1.14.2q-.64.12-.3.67.39.62.98.91.45.22.84-.09.76-.6 1.27.23-.11.06-.22.11l-2.56 1.3q-.58.29-.48.93.24 1.58-1.16 2.24-.15.08-.21.24-.05.17.01.34.07.2.29.19.72-.02 1.66.94-1.94-.03-2.35-1.6-.87-3.38-1.6-6.88-.19-.89-.89-1.68-.4-.45-.6.11l-1.92 5.54q-.29-.1-.5-.2a.8.8 0 0 1-.01-1.46c1.93-.9 1.85-2.51.62-4.01q-.35-.43.05-.81.35-.35.46-.82a.97.96 32.8 0 0-.19-.85q-1.31-1.65.44-3.45z"/><path d="M125.04 149.09q-.07.5.46.51.71.01.67-.49 1.11-.33 1.94-.23.93 1.58.04 2.57-.47.51-1.02.09l-.53-.39q-.41-.31-.81.01-.15.12-.15.29c.01.71 1.25 1.91 1.4 3.1q-.79-.6-1.15-.13-3.39 4.55-4.22 10.33-.16 1.15-1.1 1.91a.86.86 0 0 1-1.24-.18q-2.21-3.18-2.87-6.5.16-.77-.19-1.19l-.34-6.35q-.01-.11-.1-.18-.14-.11-.24-.09-.06.02-.09.12-1.15 3.8-1.63 7.77-.65-1.71-2.23-2.15a.89.88-62.9 0 1-.45-1.4q.98-1.25.33-2.5-.25-.47.2-.77 2.49-1.64 2.2-5.03zm-10.326 2.328a.68.33 127.7 0 0 .677-.336.68.33 127.7 0 0 .155-.74.68.33 127.7 0 0-.677.336.68.33 127.7 0 0-.155.74m9.796 2.032q.08.34.27-.01a.11.11 0 0 0-.09-.16q-.23-.01-.18.17m-4.86 3.65q.28.47.4 1 .4 1.71.73-.01.18-.92-.68-1.44-1.06-.63-.45.45m-1.31 2.39q.05.2.19.04.19-.2-.07-.22-.18-.02-.12.18m1.49 3.99a.3.3 0 0 0-.3-.3.3.3 0 0 0-.3.3.3.3 0 0 0 .3.3.3.3 0 0 0 .3-.3"/><path fill="#f36207" d="M132.1 148.19q.84 1.82 2.19 1.29a.43.43 0 0 1 .59.34q.02.21.13.38.3.5.85.69 1.48.5 1.46 2.35-.01.61-.53.29-1.04-.64-2.16-.53-.77.07-.31.69.66.89-.16 1.61-.44.39-.48.97-.04.49.49.64a.83.82 1.3 0 1 .59.61q.49 2.11 2.78 1.4a.28.28 0 0 1 .36.24l.03.28q.03.26-.23.3-1.91.27-2.21 2.14l-2.72-8.39q-.16-.48-.41-.05-.35.6-.46 1.76-2.97-.99-4.86-.37v-.28c-.15-1.19-1.39-2.39-1.4-3.1q0-.17.15-.29.4-.32.81-.01l.53.39q.55.42 1.02-.09.89-.99-.04-2.57z"/><path fill="#9fb267" d="M126.17 149.11q.04.5-.67.49-.53-.01-.46-.51.62-.15 1.13.02"/><path d="M155.8 150.04q1.1.98 1.4 2.55.04.23.27.19l.28-.06q.29-.05.26-.33-.1-.93.28-1.68 4.83.97 9.68 3.84-1.06.3-1.06 1.34-.01 1.31 1.03.51l.24-.18a.5.5 0 0 1 .81.44q-.12 1.36.59 2.47.42.65-.32.85-2.69.75-2.22 3.02-.71-.45-.78-1.25-.17-2.03-.32-4.08-.03-.38-.4-.43-.21-.04-.36.33-.08.22-.12.45-.26 1.86-1 3.55a1.36 1.35 43.5 0 1-2.45.06q-1.58-3.11-2.41-6.83-.31-1.38-.91-.1l-.97 2.08q-.51-.83-1.27-.23-.39.31-.84.09-.59-.29-.98-.91-.34-.55.3-.67l1.14-.2q.23-.04.24-.28v-.3q.01-.33-.31-.36-1.68-.19-2.81.77a.46.45-29.5 0 1-.73-.2l-.1-.33a.87.87 0 0 1 .19-.85l3.19-3.37q.15.08.46.1"/><path fill="#f36207" d="M158.29 150.71q-.38.75-.28 1.68.03.28-.26.33l-.28.06q-.23.04-.27-.19-.3-1.57-1.4-2.55z"/><ellipse fill="#9fb267" rx=".68" ry=".33" transform="rotate(127.7 20.526 103.703)"/><path d="M97.45 150.45q.42.97-.14 1.54-.31-.78.14-1.54M100.89 167.61c-3.61-3.39-4.26-10.05-3.72-14.59q.77-.49 1.65-1.6a.65.65 0 0 1 1.15.28q.36 1.94 2.44 2.42.38.09.27.46-.91 2.88-3 3.75-.93.39.05.6l.64.14q.58.12.58.72zm-1.94-14.03a.27.27 0 0 0 .3.43q.23-.1.31-.34.14-.37-.25-.3-.21.05-.36.21"/><path fill="#f36207" d="M98.95 153.58q.15-.16.36-.21.39-.07.25.3-.08.24-.31.34a.27.27 0 0 1-.3-.43"/><path fill="#5c3922" fill-opacity=".996" d="M124.51 153.45q-.05-.18.18-.17a.11.11 0 0 1 .09.16q-.19.35-.27.01"/><path d="M131.9 155.2q.43 1.86-.76 3.38a.75.75 0 0 1-1.06.13q-1.94-1.54-3.04-3.88 1.89-.62 4.86.37"/><path fill="#f36207" d="m167.97 154.55 10.35 2.95c.95 1.24.33 3.7 1.23 4.25a.22.21 24.3 0 0 .32-.12q.09-.28.43-.26.55.03.11.36-.83.62-.36.96l-.56 8.09q-.66-.71-1.54-.7-.2-.5-.21-.13.47-1.44-.4-3.06-1.33-2.48-2.3-3.23l-1.37-3.82a.56.55-37.7 0 0-.98-.12q-.68 1.02-1.03 2.61-.73.39-1.16.92-.3.37-.35 1.36-.08 1.58-1.62 1.51-.96-.65-1.24-1.86.35-.02.39-.17a1.26 1.23 39.5 0 0-.1-.91q-.18-.34-.54-.18-.47-2.27 2.22-3.02.74-.2.32-.85-.71-1.11-.59-2.47a.5.5 0 0 0-.81-.44l-.24.18q-1.04.8-1.03-.51 0-1.04 1.06-1.34"/><path fill="#5c3922" fill-opacity=".996" d="M145.46 155.76q-.12-.07-.08-.22.03-.12.14-.07.26.11.08.3-.06.06-.13.02-.04-.03-.08-.05-.09-.04.01 0 .05.02.06.02.04.02 0 0"/><path fill="#9fb267" d="M137.82 156.13q.46-.12.83.17a.33.32 59.7 0 1-.15.58q-.4.05-.76-.15a.33.33 0 0 1 .08-.6M119.65 157.1q-.61-1.08.45-.45.86.52.68 1.44-.33 1.72-.73.01-.12-.53-.4-1"/><path d="M157.1 156.89q-.57 3.92-2.45 6.18-.94-.96-1.66-.94-.22.01-.29-.19-.06-.17-.01-.34.06-.16.21-.24 1.4-.66 1.16-2.24-.1-.64.48-.93zM182.26 158.72q-.27.46-.08.74a.45.45 0 0 0 .77-.04q.1-.19-.02-.59c3.03.16 6.15.56 9.16.39 2.58-.16 4.97.59 7.48.06q1.9-.4 3.78-.22a1.24 1.24 0 0 1 1.03 1.69l-4.06 10.38q-.6-1.29-1.6-.77l-1.88-7.77q-.09-.67-1.1-.52a.76.75 1.7 0 0-.62.58q-.23.98.68 1.29l-3.02 10.97q-.15.52-.61.24-.56-.34-.93-1 1.08-.83.53-1.65-.39-.59-1.23-.46l-2.75-9.17a.33.33 0 0 0-.6-.08q-1.15 1.79-1.33 3.9l-.34-.57q-.24-.42-.08-.87l1.44-3.96q.17-.47-.32-.38l-.81.14q-.43.07-.59.47-.41.96-1.38 1.44-.49.25-.68.76-.36.95-1.14 1.64-.83-1.84-1.91-2.67-.47-.34.36-.96.44-.33-.11-.36-.34-.02-.43.26a.22.21 24.3 0 1-.32.12c-.9-.55-.28-3.01-1.23-4.25zm1.45 3.06q.85-.49 1.12-1.37.23-.72-.4-.3-.81.53-1.06 1.4-.16.55.34.27m9.59-.68q.24-.15.28-.46.04-.41-.32-.2-.63.36-.92 1-.21.47.28.32.33-.1.47-.43a.53.5 88.7 0 1 .21-.23m-4.05 2.38a.21.2 82.7 0 0 .28.22q.13-.06.17-.2a.2.2 0 0 0-.18-.26q-.24-.01-.27.24m9.96 2.06q.05.17.22.19.31.05.33-.28.01-.22-.19-.28a.29.29 0 0 0-.36.37M104.49 158.25l-.68 2.47q-.33-.45-.43-.94-.1-.52.24-.92.34-.38.87-.61"/><path fill="#5c3922" fill-opacity=".996" d="M116.46 159.98q-.33-.49-.19-1.19.35.42.19 1.19"/><path fill="#9fb267" d="M182.26 158.72q.34 0 .67.11.12.4.02.59a.45.45 0 0 1-.77.04q-.19-.28.08-.74"/><path fill="#5c3922" fill-opacity=".996" d="M118.34 159.49q-.06-.2.12-.18.26.02.07.22-.14.16-.19-.04"/><path fill="#f36207" d="M183.71 161.78q-.5.28-.34-.27.25-.87 1.06-1.4.63-.42.4.3-.27.88-1.12 1.37"/><path fill="#9fb267" d="M193.09 161.33q-.14.33-.47.43-.49.15-.28-.32.29-.64.92-1 .36-.21.32.2-.04.31-.28.46a.53.5 88.7 0 0-.21.23"/><path d="M113.9 160.78q.25 1.19-.37 1.79-.4.38-.9.16-.68-.3-1.12-1.3z"/><path fill="#f36207" d="m185.86 166.69-.19 1.48q-.9-.45-2.16.15-1.16-1.43-1.55-2.96.78-.69 1.14-1.64.19-.51.68-.76.97-.48 1.38-1.44.16-.4.59-.47l.81-.14q.49-.09.32.38l-1.44 3.96q-.16.45.08.87z"/><path fill="#9fb267" d="M196.84 162.59q-.86.37-1.04 1.35-.91-.31-.68-1.29a.76.75 1.7 0 1 .62-.58q1.01-.15 1.1.52"/><path d="m171.66 162.33-1.21 4.61q-.13.5-.64.4-.86-.16-1.28-1.22 1.54.07 1.62-1.51.05-.99.35-1.36.43-.53 1.16-.92M102.94 162.92l-.15 3.1q-1.42-1.74.15-3.1M167.29 164.26q-.41-.44-.25-1.26.36-.16.54.18a1.26 1.23 39.5 0 1 .1.91q-.04.15-.39.17"/><circle cx="119.53" cy="163.48" r=".3" fill="#9fb267"/><path fill="#c35778" fill-opacity=".996" d="M138.46 163.58q-.08-.2.13-.23a.17.16-75.7 0 1 .15.26q-.16.23-.28-.03"/><path fill="#5c3922" fill-opacity=".996" d="M189.25 163.48q.03-.25.27-.24a.2.2 0 0 1 .18.26q-.04.14-.17.2a.21.2 82.7 0 1-.28-.22"/><path d="M177.74 169.95q-1.91-3-2.7-6.29.97.75 2.3 3.23.87 1.62.4 3.06"/><path fill="#5c3922" fill-opacity=".996" d="M199.21 165.54a.29.29 0 0 1 .36-.37q.2.06.19.28-.02.33-.33.28-.17-.02-.22-.19"/><path d="M102.14 167.82q-.36.13-.85.05zM185.67 168.17q.21.71.12 1.16-.13.59-.7.43-.99-.26-1.58-1.44 1.26-.6 2.16-.15M179.49 170.78q-1.01.38-1.54-.7.88-.01 1.54.7"/><path fill="#c35778" fill-opacity=".996" d="m200.32 171.13-.36.51q-.44.61-.73-.08l-.51-1.2q1-.52 1.6.77M191.24 174.15l-.7-2.11q.84-.13 1.23.46.55.82-.53 1.65"/></svg>