<?xml version="1.0" encoding="UTF-8" standalone="no"?>
<!DOCTYPE svg PUBLIC "-//W3C//DTD SVG 1.1//EN" "http://www.w3.org/Graphics/SVG/1.1/DTD/svg11.dtd">
<svg xmlns="http://www.w3.org/2000/svg" version="1.1" viewBox="0.00 0.00 1592.00 1592.00" width="1592.00" height="1592.00">
<g stroke-width="2.00" fill="none" stroke-linecap="butt">
<path stroke="#d31680" vector-effect="non-scaling-stroke" d="
  M 1033.07 250.02
  L 1033.31 253.08
  A 0.86 0.85 -1.7 0 0 1034.15 253.86
  L 1048.95 254.15
  A 0.96 0.94 3.0 0 1 1049.89 255.17
  Q 1049.77 256.50 1050.36 257.73
  Q 1050.55 258.12 1050.96 258.13
  L 1061.67 258.31
  A 0.74 0.72 -2.1 0 1 1062.39 258.96
  L 1062.65 261.74
  Q 1062.70 262.28 1063.24 262.35
  L 1065.75 262.64
  Q 1066.25 262.70 1066.33 263.23
  L 1066.71 265.82
  Q 1066.79 266.35 1067.32 266.39
  L 1070.14 266.60
  Q 1070.62 266.64 1070.64 267.13
  L 1070.74 269.94
  A 0.90 0.85 -1.2 0 0 1071.64 270.77
  L 1074.39 270.75
  A 0.60 0.51 84.8 0 1 1074.91 271.26
  L 1075.19 273.14"
/>
<path stroke="#d31680" vector-effect="non-scaling-stroke" d="
  M 1067.00 275.49
  L 1066.38 271.36
  Q 1066.29 270.83 1065.75 270.80
  L 1063.25 270.65
  Q 1062.58 270.61 1062.56 270.02
  L 1062.45 267.23
  A 0.71 0.66 -0.2 0 0 1061.77 266.60
  L 1054.89 266.41
  Q 1054.39 266.39 1054.30 265.90
  L 1053.84 263.26
  A 0.61 0.61 0.0 0 0 1053.27 262.76
  L 1042.24 262.12
  Q 1041.65 262.09 1041.61 261.59
  L 1041.44 259.35
  Q 1041.37 258.40 1040.35 258.39
  L 1021.28 258.28
  Q 1020.84 258.28 1020.81 258.72
  L 1020.60 261.81
  A 0.67 0.66 -88.1 0 1 1019.94 262.43
  L 992.02 262.49
  Q 991.57 262.49 991.56 262.01
  L 991.50 259.06
  Q 991.49 258.31 990.77 258.30
  L 979.78 258.22
  Q 979.28 258.21 979.22 257.72
  L 978.83 254.50"
/>
<path stroke="#d31680" vector-effect="non-scaling-stroke" d="
  M 1066.62 253.72
  Q 1066.33 255.91 1066.69 257.74
  Q 1066.79 258.21 1067.26 258.22
  L 1074.32 258.28
  Q 1074.86 258.28 1074.89 258.83
  L 1075.10 261.96
  Q 1075.14 262.54 1075.71 262.53
  L 1078.22 262.50
  Q 1078.91 262.50 1078.94 263.21
  L 1079.06 265.93
  A 0.63 0.59 88.4 0 0 1079.66 266.53
  L 1086.81 266.45
  A 0.73 0.71 -89.7 0 1 1087.53 267.19
  L 1087.46 270.76"
/>
<path stroke="#6a0c01" vector-effect="non-scaling-stroke" d="
  M 1056.51 279.34
  Q 1053.72 278.63 1054.21 280.30"
/>
<path stroke="#6a0c01" vector-effect="non-scaling-stroke" d="
  M 1046.12 283.97
  Q 1044.28 282.86 1042.21 283.36
  Q 1041.71 283.48 1041.59 283.97
  Q 1041.29 285.22 1041.73 286.34"
/>
<path stroke="#6a0c01" vector-effect="non-scaling-stroke" d="
  M 1020.94 299.61
  L 1020.78 296.32
  Q 1020.75 295.72 1020.16 295.72
  L 1017.22 295.73
  Q 1016.47 295.73 1016.48 296.50
  L 1016.53 299.47
  Q 1016.53 299.96 1016.02 299.97
  L 1013.24 300.03
  Q 1012.52 300.05 1012.52 300.76
  L 1012.55 303.44
  Q 1012.56 303.94 1012.06 303.95
  L 1008.98 304.06
  Q 1008.41 304.08 1008.34 304.66
  L 1008.12 306.46"
/>
<path stroke="#6a0c01" vector-effect="non-scaling-stroke" d="
  M 1004.28 306.52
  Q 1004.23 305.48 1003.84 304.65
  Q 1003.60 304.17 1003.11 304.13
  L 1000.78 303.95
  Q 1000.19 303.91 1000.15 303.29
  L 999.50 292.31
  Q 999.46 291.75 998.94 291.70
  L 996.87 291.51
  Q 996.28 291.45 996.23 290.88
  L 995.32 279.68
  Q 995.27 279.04 994.64 279.07
  L 992.83 279.15
  A 0.77 0.73 0.5 0 0 992.09 279.84
  Q 991.85 283.22 990.52 286.95
  C 990.22 287.80 989.27 288.35 988.87 288.83
  Q 988.35 289.45 988.12 290.49
  Q 987.60 292.74 986.61 295.11
  A 1.05 1.05 0.0 0 1 985.87 295.72
  Q 983.76 296.20 983.41 298.58
  A 1.29 1.29 0.0 0 1 982.92 299.42
  Q 981.85 300.22 979.95 300.31
  Q 979.32 300.34 979.23 300.93
  L 978.88 302.97
  A 0.96 0.95 81.3 0 1 978.38 303.66
  Q 977.24 304.24 975.67 304.01
  Q 975.16 303.93 975.10 303.33
  L 974.86 300.63
  Q 974.80 300.03 974.23 300.03
  L 967.46 300.06
  Q 966.49 300.07 966.47 301.04
  L 966.43 302.96
  A 0.85 0.84 -86.5 0 0 967.18 303.82
  L 970.07 304.12
  A 0.90 0.88 -86.4 0 1 970.86 305.03
  L 970.80 307.47
  Q 970.78 308.22 970.06 308.24
  L 967.11 308.35
  A 0.55 0.55 0.0 0 0 966.58 308.92
  Q 966.66 311.06 965.92 312.82"
/>
<path stroke="#6a0c01" vector-effect="non-scaling-stroke" d="
  M 916.63 294.28
  Q 917.72 290.35 909.16 291.66
  A 0.89 0.84 -3.8 0 1 908.13 290.82
  L 908.21 288.26
  Q 908.22 287.72 907.67 287.76
  Q 904.84 287.99 903.89 286.83"
/>
<path stroke="#6b0d02" vector-effect="non-scaling-stroke" d="
  M 1020.71 304.72
  L 1020.81 307.65
  Q 1020.83 308.17 1021.35 308.25
  Q 1023.54 308.56 1025.38 307.79"
/>
<path stroke="#6b0d02" vector-effect="non-scaling-stroke" d="
  M 916.29 256.09
  Q 916.90 257.04 916.43 257.73
  Q 916.14 258.15 915.66 258.16
  L 912.98 258.20
  A 0.55 0.54 89.2 0 0 912.44 258.76
  L 912.52 266.01
  Q 912.53 266.56 911.99 266.55
  L 904.53 266.50
  Q 904.06 266.49 904.04 266.95
  L 903.97 270.53
  A 0.25 0.24 -89.1 0 1 903.72 270.78
  L 900.28 270.75
  Q 900.07 270.75 900.06 270.54
  L 899.98 266.96
  Q 899.96 266.46 899.48 266.46
  L 896.24 266.47
  Q 895.73 266.47 895.73 267.00
  L 895.74 274.50
  Q 895.74 275.02 896.25 275.01
  L 899.48 274.99
  Q 899.95 274.99 899.96 275.49
  L 900.03 282.36"
/>
<path stroke="#6f1106" vector-effect="non-scaling-stroke" d="
  M 899.23 283.31
  Q 897.77 283.03 896.27 283.26
  Q 895.66 283.36 895.67 283.94
  L 895.74 286.94
  Q 895.76 287.46 896.26 287.55
  Q 899.41 288.09 900.17 286.60"
/>
<path stroke="#6a0b00" vector-effect="non-scaling-stroke" d="
  M 1066.36 349.02
  L 1066.38 342.11
  Q 1066.38 341.52 1065.80 341.53
  L 1063.14 341.57
  Q 1062.45 341.59 1062.45 340.89
  L 1062.42 334.11
  Q 1062.42 333.17 1063.36 333.18
  L 1070.12 333.23
  Q 1070.71 333.23 1070.72 332.64
  L 1070.73 329.48
  Q 1070.74 328.97 1071.26 328.98
  L 1074.38 329.01
  Q 1075.03 329.02 1075.03 328.38
  L 1074.99 325.62
  A 0.64 0.61 89.4 0 0 1074.38 325.00
  L 1067.24 325.07
  Q 1066.42 325.07 1066.42 324.24
  L 1066.50 313.02
  Q 1066.51 312.52 1066.01 312.53
  L 1063.25 312.55
  Q 1062.60 312.55 1062.59 313.19
  L 1062.53 315.81
  Q 1062.52 316.56 1061.73 316.57
  L 1058.98 316.59
  A 0.83 0.83 0.0 0 1 1058.14 315.77
  L 1058.09 308.03"
/>
<path stroke="#d31680" vector-effect="non-scaling-stroke" d="
  M 1141.46 352.61
  Q 1141.05 354.03 1144.03 353.47"
/>
<path stroke="#d31680" vector-effect="non-scaling-stroke" d="
  M 1145.70 353.93
  L 1145.97 357.18"
/>
<path stroke="#d31680" vector-effect="non-scaling-stroke" d="
  M 1120.45 351.55
  Q 1121.19 351.07 1120.53 350.43
  Q 1120.21 350.12 1119.76 350.08
  L 1117.09 349.83
  Q 1116.61 349.79 1116.59 349.33
  L 1116.44 346.62
  A 0.71 0.71 0.0 0 0 1115.84 345.95
  L 1113.25 345.56
  Q 1112.66 345.47 1112.64 344.87
  Q 1112.57 342.81 1111.93 342.11
  Q 1111.58 341.74 1111.08 341.63
  L 1109.56 341.32
  Q 1108.92 341.19 1108.81 340.54
  L 1107.73 334.64
  A 1.23 1.14 -83.4 0 0 1107.10 333.78
  L 1105.23 332.86
  Q 1104.66 332.59 1104.56 331.98
  L 1103.56 326.05
  Q 1103.47 325.52 1102.99 325.34
  L 1101.10 324.60
  Q 1100.61 324.41 1100.54 323.90
  L 1099.62 317.80
  A 1.26 1.21 -0.9 0 0 1098.51 316.78
  Q 1096.15 316.52 1095.94 314.06
  Q 1095.58 309.71 1095.46 309.21
  Q 1095.32 308.64 1095.00 308.57
  L 1092.54 308.01
  A 0.93 0.82 -1.9 0 1 1091.89 307.48
  Q 1091.49 306.42 1091.51 305.65
  Q 1091.53 304.22 1090.09 304.13
  Q 1087.31 303.97 1087.52 301.75
  Q 1087.87 298.14 1086.89 294.98"
/>
<path stroke="#d31680" vector-effect="non-scaling-stroke" d="
  M 1129.56 346.20
  Q 1128.86 344.24 1128.85 342.13
  Q 1128.84 341.56 1128.31 341.55
  L 1125.81 341.50
  Q 1125.21 341.49 1125.13 340.91
  L 1124.72 338.12
  A 0.63 0.57 86.8 0 0 1124.18 337.58
  L 1121.55 337.44
  Q 1120.98 337.41 1120.91 336.82
  L 1120.59 334.30
  A 1.09 1.09 0.0 0 0 1119.46 333.34
  Q 1116.98 333.46 1116.72 331.15
  Q 1116.27 327.18 1116.03 326.26
  Q 1115.89 325.73 1115.36 325.58
  Q 1112.83 324.87 1112.04 322.05
  A 1.10 1.10 0.0 0 0 1111.31 321.30
  Q 1108.56 320.44 1107.92 317.67
  Q 1107.79 317.09 1107.26 316.88
  L 1105.38 316.13
  Q 1104.44 315.76 1104.29 314.66
  L 1103.59 309.35
  Q 1103.52 308.77 1102.99 308.62
  L 1101.46 308.21
  A 1.77 1.72 5.6 0 1 1100.17 306.68
  L 1099.72 301.09
  Q 1099.67 300.56 1099.18 300.42
  L 1096.63 299.69
  Q 1096.09 299.54 1095.96 299.00
  L 1095.38 296.54
  Q 1095.24 295.98 1094.67 295.97
  Q 1091.11 295.90 1091.20 293.69"
/>
<path stroke="#d31680" vector-effect="non-scaling-stroke" d="
  M 1212.28 359.35
  Q 1212.69 360.60 1212.38 361.92
  Q 1212.27 362.41 1211.77 362.41
  L 1196.41 362.54
  Q 1195.87 362.55 1195.83 363.07
  L 1195.64 365.85
  A 0.58 0.56 1.8 0 1 1195.07 366.38
  L 1173.77 366.51"
/>
<path stroke="#d41701" vector-effect="non-scaling-stroke" d="
  M 1173.77 366.51
  Q 1173.40 366.20 1172.79 366.31"
/>
<path stroke="#d31680" vector-effect="non-scaling-stroke" d="
  M 1170.56 364.52
  Q 1170.87 363.81 1170.60 363.09
  Q 1170.41 362.60 1169.89 362.55
  L 1167.57 362.36"
/>
<path stroke="#d41701" vector-effect="non-scaling-stroke" d="
  M 1167.57 362.36
  Q 1164.58 362.01 1161.51 362.68"
/>
<path stroke="#d61037" vector-effect="non-scaling-stroke" d="
  M 1153.87 359.60
  Q 1153.30 357.26 1150.80 358.59"
/>
<path stroke="#d31680" vector-effect="non-scaling-stroke" d="
  M 1162.35 321.03
  L 1154.65 320.58
  Q 1154.08 320.54 1154.06 320.07
  L 1153.93 317.17
  A 0.71 0.68 -1.4 0 0 1153.21 316.51
  L 1150.75 316.52
  A 0.58 0.56 85.9 0 1 1150.19 316.02
  L 1149.81 313.20
  Q 1149.74 312.65 1149.19 312.63
  L 1142.32 312.38
  A 0.63 0.63 0.0 0 1 1141.72 311.83
  L 1141.37 309.17
  Q 1141.31 308.72 1140.82 308.57
  L 1138.29 307.82
  Q 1137.72 307.65 1137.65 307.16
  L 1137.33 305.03
  Q 1137.25 304.47 1136.69 304.34
  L 1133.96 303.71
  Q 1133.36 303.58 1133.31 302.97
  L 1133.17 301.21
  A 1.07 1.05 89.8 0 0 1132.21 300.23
  L 1125.95 299.73
  Q 1125.40 299.69 1125.30 299.20
  L 1124.75 296.46
  A 0.69 0.66 -1.3 0 0 1124.17 295.93
  L 1121.37 295.54
  Q 1120.81 295.47 1120.82 294.95
  Q 1120.83 292.96 1120.46 292.10
  Q 1120.26 291.62 1119.76 291.61
  L 1113.21 291.41
  Q 1112.64 291.40 1112.62 290.81
  L 1112.49 287.53"
/>
<path stroke="#d31680" vector-effect="non-scaling-stroke" d="
  M 1235.33 362.11
  Q 1232.48 362.44 1233.32 365.22
  A 1.04 0.99 81.7 0 1 1232.38 366.56
  L 1225.77 366.44
  Q 1225.14 366.43 1225.09 367.04
  L 1224.86 370.12
  Q 1224.82 370.70 1224.21 370.70
  L 1213.00 370.81
  A 0.45 0.42 0.8 0 0 1212.56 371.22
  L 1212.43 374.20
  A 0.66 0.65 -0.3 0 1 1211.81 374.82
  L 1204.73 375.18
  Q 1204.13 375.21 1204.06 375.81
  L 1203.74 378.30
  Q 1203.68 378.83 1203.18 378.84
  L 1184.07 379.09
  A 0.85 0.80 -0.4 0 0 1183.23 379.89
  L 1183.23 382.69
  Q 1183.22 383.11 1182.75 383.16
  L 1179.54 383.51"
/>
<path stroke="#d31680" vector-effect="non-scaling-stroke" d="
  M 1173.36 366.81
  Q 1173.40 366.55 1173.77 366.51"
/>
<path stroke="#d31680" vector-effect="non-scaling-stroke" d="
  M 1167.57 362.36
  L 1165.74 362.82"
/>
<path stroke="#6a0c01" vector-effect="non-scaling-stroke" d="
  M 1254.12 366.56
  L 1254.03 374.46
  Q 1254.02 375.05 1253.45 375.03
  L 1250.72 374.94
  A 0.75 0.74 -89.2 0 0 1249.96 375.70
  L 1249.99 382.54
  Q 1249.99 383.33 1250.77 383.30
  L 1253.37 383.21
  Q 1254.00 383.18 1254.00 383.87
  L 1253.99 390.67
  Q 1253.99 391.63 1253.14 391.59
  L 1250.70 391.49
  Q 1250.13 391.46 1250.08 392.05
  L 1249.86 395.09
  Q 1249.81 395.71 1249.17 395.74
  L 1246.83 395.85
  Q 1246.31 395.87 1246.19 396.35
  Q 1245.38 399.48 1245.80 403.10
  Q 1245.87 403.71 1246.49 403.78
  L 1249.11 404.04
  Q 1250.08 404.13 1250.06 405.09
  L 1250.01 407.26
  Q 1249.99 408.29 1248.99 408.29
  L 1242.13 408.27
  Q 1241.50 408.27 1241.49 407.65
  L 1241.43 404.72
  Q 1241.42 403.97 1240.69 403.98
  L 1238.42 404.02
  Q 1237.69 404.03 1237.65 404.71
  L 1237.45 407.78
  Q 1237.42 408.18 1237.02 408.21
  L 1233.93 408.43
  Q 1233.34 408.47 1233.33 409.09
  L 1233.30 411.76
  Q 1233.29 412.33 1233.89 412.35
  L 1236.93 412.48
  Q 1237.58 412.51 1237.57 413.17
  L 1237.55 415.91
  A 0.69 0.67 0.2 0 1 1236.86 416.58
  L 1233.77 416.59
  A 0.47 0.46 0.0 0 0 1233.30 417.04
  L 1233.26 430.51"
/>
<path stroke="#6a0c01" vector-effect="non-scaling-stroke" d="
  M 1258.29 458.80
  L 1258.23 470.23
  A 0.53 0.51 89.6 0 0 1258.76 470.76
  L 1261.96 470.69
  Q 1262.45 470.68 1262.45 471.19
  L 1262.61 483.22"
/>
<path stroke="#d91c06" vector-effect="non-scaling-stroke" d="
  M 1262.61 483.22
  Q 1263.39 484.14 1263.96 484.93
  C 1266.01 487.85 1270.28 488.51 1269.21 493.21
  Q 1268.43 496.63 1267.14 499.97"
/>
<path stroke="#6a0c01" vector-effect="non-scaling-stroke" d="
  M 1267.14 499.97
  Q 1266.14 500.69 1266.57 502.97
  Q 1266.76 503.95 1265.77 503.99
  L 1263.23 504.07
  A 0.77 0.75 -0.2 0 1 1262.44 503.30
  L 1262.51 500.54
  Q 1262.52 500.08 1262.04 500.07
  L 1258.88 499.96
  Q 1258.27 499.94 1258.25 499.38
  L 1258.19 496.86
  Q 1258.17 496.32 1257.75 495.97
  Q 1257.18 495.50 1256.27 495.45"
/>
<path stroke="#6b0d02" vector-effect="non-scaling-stroke" d="
  M 1262.37 369.26
  L 1262.44 378.29
  Q 1262.45 379.08 1263.24 379.06
  L 1265.93 379.00
  A 0.64 0.64 0.0 0 0 1266.55 378.34
  L 1266.47 375.78
  A 0.76 0.66 89.2 0 1 1267.13 375.00
  L 1270.33 375.03
  Q 1270.80 375.04 1270.80 375.58
  L 1270.77 382.78
  Q 1270.77 383.29 1271.28 383.28
  L 1274.30 383.17
  Q 1274.95 383.15 1274.97 383.75
  L 1275.03 386.78
  Q 1275.05 387.50 1274.29 387.49
  L 1271.26 387.46
  Q 1270.71 387.45 1270.71 388.00
  L 1270.73 391.03
  Q 1270.73 391.58 1271.28 391.57
  L 1278.33 391.47
  Q 1278.94 391.46 1278.96 392.06
  L 1279.05 395.19
  A 0.64 0.63 88.1 0 0 1279.70 395.81
  L 1282.70 395.70
  Q 1283.21 395.68 1283.21 396.22
  L 1283.19 399.37
  Q 1283.19 400.05 1283.87 400.04
  L 1287.03 399.99
  Q 1287.56 399.98 1287.56 399.46
  L 1287.49 392.00
  Q 1287.49 391.46 1287.02 391.47
  L 1284.19 391.55
  Q 1283.19 391.58 1283.20 390.63
  L 1283.26 383.86
  A 0.91 0.71 -0.1 0 1 1284.16 383.16
  L 1290.81 383.10"
/>
<path stroke="#6b0d02" vector-effect="non-scaling-stroke" d="
  M 1300.13 389.70
  Q 1300.02 390.47 1300.26 391.04
  Q 1300.47 391.54 1301.01 391.55
  Q 1301.52 391.55 1302.07 391.25"
/>
<path stroke="#6b0d02" vector-effect="non-scaling-stroke" d="
  M 1303.04 770.56
  L 1300.62 770.79
  Q 1300.10 770.83 1300.08 771.34
  L 1299.95 774.38
  Q 1299.92 774.93 1299.38 774.95
  L 1296.27 775.07
  Q 1295.65 775.09 1295.68 775.74
  L 1295.78 778.32
  Q 1295.81 778.94 1295.20 778.95
  L 1292.09 779.01
  Q 1291.44 779.02 1291.43 779.65
  L 1291.39 782.22
  Q 1291.37 783.30 1290.28 783.23
  L 1288.48 783.11
  Q 1287.59 783.05 1287.58 782.17
  L 1287.57 779.68
  Q 1287.57 779.06 1286.93 779.05
  L 1283.88 778.99
  Q 1283.27 778.98 1283.27 778.38
  L 1283.25 771.23
  Q 1283.25 770.71 1282.73 770.72
  L 1279.52 770.77
  A 0.51 0.50 -0.5 0 1 1279.01 770.27
  L 1279.00 762.99
  Q 1279.00 762.47 1278.49 762.48
  L 1275.56 762.55
  Q 1275.04 762.56 1275.03 762.05
  L 1275.00 758.74
  Q 1274.99 758.21 1274.49 758.22
  L 1271.29 758.25
  Q 1270.78 758.25 1270.78 757.71
  L 1270.79 749.92"
/>
<path stroke="#6f1106" vector-effect="non-scaling-stroke" d="
  M 1270.79 749.92
  L 1274.05 750.00
  Q 1275.05 750.03 1275.04 749.05
  L 1275.02 742.43
  Q 1275.02 741.49 1274.21 741.52
  L 1271.30 741.61
  Q 1270.76 741.63 1270.76 741.07
  L 1270.76 737.93
  Q 1270.76 737.44 1270.34 737.44
  L 1267.28 737.42
  Q 1266.48 737.41 1266.48 738.29
  L 1266.48 744.98
  Q 1266.48 745.91 1267.41 745.88
  L 1270.25 745.77
  A 0.47 0.41 88.6 0 1 1270.68 746.24
  L 1270.73 749.89"
/>
<path stroke="#6b0d02" vector-effect="non-scaling-stroke" d="
  M 1270.73 749.89
  L 1262.97 750.04
  Q 1262.46 750.05 1262.46 750.55
  L 1262.52 757.76
  A 0.51 0.51 0.0 0 1 1262.00 758.27
  L 1250.50 758.21
  Q 1249.96 758.21 1249.96 758.75
  L 1250.01 766.02
  Q 1250.01 766.55 1250.53 766.55
  L 1257.77 766.51
  Q 1258.28 766.51 1258.28 767.02
  L 1258.19 774.25
  Q 1258.17 775.07 1259.01 775.06
  L 1261.91 775.01
  A 0.66 0.63 -1.0 0 0 1262.57 774.37
  L 1262.51 771.28
  Q 1262.50 770.80 1262.98 770.80
  L 1266.04 770.76
  Q 1266.50 770.75 1266.51 771.21
  Q 1266.68 779.63 1265.98 790.74
  Q 1265.94 791.33 1265.36 791.36
  L 1263.26 791.46
  Q 1262.74 791.48 1262.73 792.00
  L 1262.46 803.51
  Q 1262.45 803.98 1262.00 803.98
  L 1258.72 804.03
  Q 1258.21 804.03 1258.21 804.54
  L 1258.22 807.76
  Q 1258.22 808.29 1258.76 808.29
  L 1265.75 808.23
  Q 1266.52 808.23 1266.52 808.98
  L 1266.51 812.00
  Q 1266.51 812.53 1266.00 812.53
  L 1258.78 812.48
  Q 1258.33 812.48 1258.36 812.95
  Q 1258.55 816.19 1257.21 816.72"
/>
<path stroke="#6f1106" vector-effect="non-scaling-stroke" d="
  M 1243.97 820.60
  Q 1242.76 820.52 1241.96 820.91
  Q 1241.45 821.16 1241.46 821.73
  L 1241.56 828.03
  Q 1241.57 828.58 1241.06 828.79
  Q 1240.29 829.13 1239.27 829.03"
/>
<path stroke="#6f1106" vector-effect="non-scaling-stroke" d="
  M 1247.48 757.99
  Q 1248.48 758.35 1249.32 758.27
  Q 1249.87 758.22 1249.91 757.69
  L 1250.12 754.79
  Q 1250.16 754.18 1249.56 754.04
  Q 1248.82 753.87 1247.94 754.00"
/>
<path stroke="#6b0d02" vector-effect="non-scaling-stroke" d="
  M 1249.08 558.34
  Q 1250.74 556.82 1249.46 554.08"
/>
<path stroke="#6f1106" vector-effect="non-scaling-stroke" d="
  M 1267.14 499.97
  L 1270.03 499.99
  Q 1270.78 500.00 1270.77 500.75
  L 1270.71 512.01
  A 0.55 0.55 0.0 0 0 1271.26 512.56
  L 1274.48 512.54
  Q 1275.00 512.54 1275.00 512.02
  L 1275.07 488.21
  A 0.72 0.70 -89.1 0 1 1275.79 487.49
  L 1278.12 487.56
  A 0.90 0.84 -90.0 0 0 1278.99 486.64
  L 1278.93 484.05
  Q 1278.91 483.31 1278.21 483.30
  L 1262.61 483.22"
/>
<path stroke="#da1d07" vector-effect="non-scaling-stroke" d="
  M 1270.79 749.92
  Q 1270.76 749.91 1270.73 749.89"
/>
<path stroke="#6f1106" vector-effect="non-scaling-stroke" d="
  M 1245.80 845.76
  L 1242.27 845.72
  Q 1241.50 845.71 1241.51 846.49
  L 1241.54 853.24
  Q 1241.55 854.01 1240.78 854.02
  L 1238.11 854.04
  Q 1237.41 854.05 1237.44 853.36
  L 1237.53 850.83
  Q 1237.55 850.31 1237.04 850.14
  Q 1236.13 849.82 1235.26 849.96"
/>
<path stroke="#6f1106" vector-effect="non-scaling-stroke" d="
  M 1236.33 846.01
  Q 1238.49 845.20 1237.25 841.62"
/>
<path stroke="#6f1106" vector-effect="non-scaling-stroke" d="
  M 1261.61 870.66
  Q 1259.76 870.88 1258.97 870.69
  Q 1258.31 870.53 1258.31 871.22
  L 1258.22 878.26
  Q 1258.21 879.00 1258.99 879.00
  L 1262.04 879.02
  Q 1262.55 879.03 1262.54 879.53
  L 1262.50 882.72
  Q 1262.50 883.23 1263.03 883.22
  L 1265.80 883.14"
/>
<path stroke="#6f1106" vector-effect="non-scaling-stroke" d="
  M 1269.73 937.32
  L 1266.94 937.58
  Q 1266.50 937.62 1266.50 938.03
  L 1266.53 945.25
  Q 1266.53 945.78 1265.99 945.76
  L 1262.47 945.61"
/>
<path stroke="#6b0d02" vector-effect="non-scaling-stroke" d="
  M 1225.30 1034.82
  Q 1224.80 1032.58 1222.54 1033.32"
/>
<path stroke="#6f1106" vector-effect="non-scaling-stroke" d="
  M 1203.33 1012.49
  Q 1201.91 1012.20 1200.66 1012.56
  Q 1200.10 1012.73 1200.06 1013.32
  L 1199.88 1015.65
  Q 1199.85 1016.11 1199.44 1016.35
  Q 1198.84 1016.71 1197.98 1016.75"
/>
<path stroke="#6f1106" vector-effect="non-scaling-stroke" d="
  M 1201.47 1020.54
  Q 1200.05 1020.75 1199.97 1024.05
  Q 1199.95 1024.87 1199.13 1024.91
  L 1196.22 1025.05"
/>
<path stroke="#6a0c01" vector-effect="non-scaling-stroke" d="
  M 1209.46 1041.35
  L 1204.51 1041.54
  Q 1204.00 1041.56 1204.01 1042.05
  L 1204.02 1049.32
  Q 1204.02 1050.03 1203.31 1050.02
  L 1195.65 1049.95"
/>
<path stroke="#6f1106" vector-effect="non-scaling-stroke" d="
  M 1195.56 1048.76
  Q 1195.38 1047.52 1195.70 1046.34
  Q 1195.85 1045.76 1196.41 1045.77
  L 1199.37 1045.82
  Q 1200.08 1045.84 1200.06 1045.13
  L 1200.00 1042.09
  A 0.70 0.62 88.7 0 0 1199.36 1041.40
  L 1196.23 1041.48
  Q 1195.68 1041.49 1195.67 1040.90
  L 1195.62 1027.96"
/>
<path stroke="#6f1106" vector-effect="non-scaling-stroke" d="
  M 1279.0114 396.2096
  A 0.50 0.50 0.0 0 0 1278.5088 395.7122
  L 1275.5088 395.7279
  A 0.50 0.50 0.0 0 0 1275.0114 396.2305
  L 1275.0286 399.5104
  A 0.50 0.50 0.0 0 0 1275.5312 400.0078
  L 1278.5312 399.9921
  A 0.50 0.50 0.0 0 0 1279.0286 399.4895
  L 1279.0114 396.2096"
/>
<path stroke="#6b0d02" vector-effect="non-scaling-stroke" d="
  M 1300.0390 779.5558
  A 0.55 0.55 0.0 0 0 1299.4958 778.9991
  L 1296.3960 778.9612
  A 0.55 0.55 0.0 0 0 1295.8393 779.5045
  L 1295.8010 782.6442
  A 0.55 0.55 0.0 0 0 1296.3442 783.2009
  L 1299.4440 783.2388
  A 0.55 0.55 0.0 0 0 1300.0007 782.6955
  L 1300.0390 779.5558"
/>
</g>
<path fill="#d215ff" d="
  M 1033.07 250.02
  L 1033.31 253.08
  A 0.86 0.85 -1.7 0 0 1034.15 253.86
  L 1048.95 254.15
  A 0.96 0.94 3.0 0 1 1049.89 255.17
  Q 1049.77 256.50 1050.36 257.73
  Q 1050.55 258.12 1050.96 258.13
  L 1061.67 258.31
  A 0.74 0.72 -2.1 0 1 1062.39 258.96
  L 1062.65 261.74
  Q 1062.70 262.28 1063.24 262.35
  L 1065.75 262.64
  Q 1066.25 262.70 1066.33 263.23
  L 1066.71 265.82
  Q 1066.79 266.35 1067.32 266.39
  L 1070.14 266.60
  Q 1070.62 266.64 1070.64 267.13
  L 1070.74 269.94
  A 0.90 0.85 -1.2 0 0 1071.64 270.77
  L 1074.39 270.75
  A 0.60 0.51 84.8 0 1 1074.91 271.26
  L 1075.19 273.14
  L 1067.00 275.49
  L 1066.38 271.36
  Q 1066.29 270.83 1065.75 270.80
  L 1063.25 270.65
  Q 1062.58 270.61 1062.56 270.02
  L 1062.45 267.23
  A 0.71 0.66 -0.2 0 0 1061.77 266.60
  L 1054.89 266.41
  Q 1054.39 266.39 1054.30 265.90
  L 1053.84 263.26
  A 0.61 0.61 0.0 0 0 1053.27 262.76
  L 1042.24 262.12
  Q 1041.65 262.09 1041.61 261.59
  L 1041.44 259.35
  Q 1041.37 258.40 1040.35 258.39
  L 1021.28 258.28
  Q 1020.84 258.28 1020.81 258.72
  L 1020.60 261.81
  A 0.67 0.66 -88.1 0 1 1019.94 262.43
  L 992.02 262.49
  Q 991.57 262.49 991.56 262.01
  L 991.50 259.06
  Q 991.49 258.31 990.77 258.30
  L 979.78 258.22
  Q 979.28 258.21 979.22 257.72
  L 978.83 254.50
  Q 997.49 250.02 1012.50 250.00
  Q 1022.75 249.99 1033.07 250.02
  Z"
/>
<path fill="#d31600" d="
  M 1066.62 253.72
  Q 1066.33 255.91 1066.69 257.74
  Q 1066.79 258.21 1067.26 258.22
  L 1074.32 258.28
  Q 1074.86 258.28 1074.89 258.83
  L 1075.10 261.96
  Q 1075.14 262.54 1075.71 262.53
  L 1078.22 262.50
  Q 1078.91 262.50 1078.94 263.21
  L 1079.06 265.93
  A 0.63 0.59 88.4 0 0 1079.66 266.53
  L 1086.81 266.45
  A 0.73 0.71 -89.7 0 1 1087.53 267.19
  L 1087.46 270.76
  L 1075.19 273.14
  L 1074.91 271.26
  A 0.60 0.51 84.8 0 0 1074.39 270.75
  L 1071.64 270.77
  A 0.90 0.85 -1.2 0 1 1070.74 269.94
  L 1070.64 267.13
  Q 1070.62 266.64 1070.14 266.60
  L 1067.32 266.39
  Q 1066.79 266.35 1066.71 265.82
  L 1066.33 263.23
  Q 1066.25 262.70 1065.75 262.64
  L 1063.24 262.35
  Q 1062.70 262.28 1062.65 261.74
  L 1062.39 258.96
  A 0.74 0.72 -2.1 0 0 1061.67 258.31
  L 1050.96 258.13
  Q 1050.55 258.12 1050.36 257.73
  Q 1049.77 256.50 1049.89 255.17
  A 0.96 0.94 3.0 0 0 1048.95 254.15
  L 1034.15 253.86
  A 0.86 0.85 -1.7 0 1 1033.31 253.08
  L 1033.07 250.02
  Q 1045.02 251.02 1057.02 251.91
  Q 1059.20 252.07 1061.83 252.72
  Q 1064.19 253.30 1066.62 253.72
  Z"
/>
<path fill="#d215ff" d="
  M 1087.46 270.76
  L 1087.53 267.19
  A 0.73 0.71 -89.7 0 0 1086.81 266.45
  L 1079.66 266.53
  A 0.63 0.59 88.4 0 1 1079.06 265.93
  L 1078.94 263.21
  Q 1078.91 262.50 1078.22 262.50
  L 1075.71 262.53
  Q 1075.14 262.54 1075.10 261.96
  L 1074.89 258.83
  Q 1074.86 258.28 1074.32 258.28
  L 1067.26 258.22
  Q 1066.79 258.21 1066.69 257.74
  Q 1066.33 255.91 1066.62 253.72
  L 1095.50 263.45
  A 1.06 1.06 0.0 0 1 1096.15 264.08
  Q 1097.09 266.52 1095.79 268.65
  Q 1095.54 269.08 1095.05 269.18
  L 1087.46 270.76
  Z"
/>
<path fill="#d41701" d="
  M 978.83 254.50
  L 979.22 257.72
  Q 979.28 258.21 979.78 258.22
  L 990.77 258.30
  Q 991.49 258.31 991.50 259.06
  L 991.56 262.01
  Q 991.57 262.49 992.02 262.49
  L 1019.94 262.43
  A 0.67 0.66 -88.1 0 0 1020.60 261.81
  L 1020.81 258.72
  Q 1020.84 258.28 1021.28 258.28
  L 1040.35 258.39
  Q 1041.37 258.40 1041.44 259.35
  L 1041.61 261.59
  Q 1041.65 262.09 1042.24 262.12
  L 1053.27 262.76
  A 0.61 0.61 0.0 0 1 1053.84 263.26
  L 1054.30 265.90
  Q 1054.39 266.39 1054.89 266.41
  L 1061.77 266.60
  A 0.71 0.66 -0.2 0 1 1062.45 267.23
  L 1062.56 270.02
  Q 1062.58 270.61 1063.25 270.65
  L 1065.75 270.80
  Q 1066.29 270.83 1066.38 271.36
  L 1067.00 275.49
  L 1056.51 279.34
  Q 1053.72 278.63 1054.21 280.30
  L 1046.12 283.97
  Q 1044.28 282.86 1042.21 283.36
  Q 1041.71 283.48 1041.59 283.97
  Q 1041.29 285.22 1041.73 286.34
  Q 1031.04 292.27 1020.94 299.61
  L 1020.78 296.32
  Q 1020.75 295.72 1020.16 295.72
  L 1017.22 295.73
  Q 1016.47 295.73 1016.48 296.50
  L 1016.53 299.47
  Q 1016.53 299.96 1016.02 299.97
  L 1013.24 300.03
  Q 1012.52 300.05 1012.52 300.76
  L 1012.55 303.44
  Q 1012.56 303.94 1012.06 303.95
  L 1008.98 304.06
  Q 1008.41 304.08 1008.34 304.66
  L 1008.12 306.46
  Q 1006.23 307.08 1004.28 306.52
  Q 1004.23 305.48 1003.84 304.65
  Q 1003.60 304.17 1003.11 304.13
  L 1000.78 303.95
  Q 1000.19 303.91 1000.15 303.29
  L 999.50 292.31
  Q 999.46 291.75 998.94 291.70
  L 996.87 291.51
  Q 996.28 291.45 996.23 290.88
  L 995.32 279.68
  Q 995.27 279.04 994.64 279.07
  L 992.83 279.15
  A 0.77 0.73 0.5 0 0 992.09 279.84
  Q 991.85 283.22 990.52 286.95
  C 990.22 287.80 989.27 288.35 988.87 288.83
  Q 988.35 289.45 988.12 290.49
  Q 987.60 292.74 986.61 295.11
  A 1.05 1.05 0.0 0 1 985.87 295.72
  Q 983.76 296.20 983.41 298.58
  A 1.29 1.29 0.0 0 1 982.92 299.42
  Q 981.85 300.22 979.95 300.31
  Q 979.32 300.34 979.23 300.93
  L 978.88 302.97
  A 0.96 0.95 81.3 0 1 978.38 303.66
  Q 977.24 304.24 975.67 304.01
  Q 975.16 303.93 975.10 303.33
  L 974.86 300.63
  Q 974.80 300.03 974.23 300.03
  L 967.46 300.06
  Q 966.49 300.07 966.47 301.04
  L 966.43 302.96
  A 0.85 0.84 -86.5 0 0 967.18 303.82
  L 970.07 304.12
  A 0.90 0.88 -86.4 0 1 970.86 305.03
  L 970.80 307.47
  Q 970.78 308.22 970.06 308.24
  L 967.11 308.35
  A 0.55 0.55 0.0 0 0 966.58 308.92
  Q 966.66 311.06 965.92 312.82
  Q 959.28 312.49 955.93 311.61
  Q 955.24 311.43 954.66 310.36
  Q 954.52 310.10 954.25 309.97
  Q 952.17 308.94 949.37 307.19
  C 939.69 301.16 933.47 296.87 924.75 294.73
  Q 923.15 294.34 921.49 294.81
  Q 921.00 294.94 920.53 294.79
  Q 918.73 294.23 916.63 294.28
  Q 917.72 290.35 909.16 291.66
  A 0.89 0.84 -3.8 0 1 908.13 290.82
  L 908.21 288.26
  Q 908.22 287.72 907.67 287.76
  Q 904.84 287.99 903.89 286.83
  L 918.65 288.49
  Q 919.15 288.54 919.47 288.16
  C 922.27 284.88 926.24 280.98 928.82 278.84
  Q 950.60 260.75 978.83 254.50
  Z"
/>
<path fill="#000000" d="
  M 916.29 256.09
  Q 916.90 257.04 916.43 257.73
  Q 916.14 258.15 915.66 258.16
  L 912.98 258.20
  A 0.55 0.54 89.2 0 0 912.44 258.76
  L 912.52 266.01
  Q 912.53 266.56 911.99 266.55
  L 904.53 266.50
  Q 904.06 266.49 904.04 266.95
  L 903.97 270.53
  A 0.25 0.24 -89.1 0 1 903.72 270.78
  L 900.28 270.75
  Q 900.07 270.75 900.06 270.54
  L 899.98 266.96
  Q 899.96 266.46 899.48 266.46
  L 896.24 266.47
  Q 895.73 266.47 895.73 267.00
  L 895.74 274.50
  Q 895.74 275.02 896.25 275.01
  L 899.48 274.99
  Q 899.95 274.99 899.96 275.49
  L 900.03 282.36
  Q 899.82 282.92 899.23 283.31
  Q 897.77 283.03 896.27 283.26
  Q 895.66 283.36 895.67 283.94
  L 895.74 286.94
  Q 895.76 287.46 896.26 287.55
  Q 899.41 288.09 900.17 286.60
  Q 902.04 286.26 903.89 286.83
  Q 904.84 287.99 907.67 287.76
  Q 908.22 287.72 908.21 288.26
  L 908.13 290.82
  A 0.89 0.84 -3.8 0 0 909.16 291.66
  Q 917.72 290.35 916.63 294.28
  Q 916.29 295.90 913.99 295.49
  Q 911.36 295.01 905.52 293.59
  Q 904.57 293.35 903.67 294.33
  Q 903.33 294.70 902.83 294.74
  Q 901.07 294.87 899.81 294.33
  Q 899.29 294.10 898.99 294.58
  Q 898.52 295.32 897.92 295.50
  Q 897.43 295.64 896.66 295.31
  C 892.40 293.51 889.18 291.70 885.10 292.42
  Q 880.07 293.31 873.34 295.32
  Q 869.78 296.39 858.52 296.71
  Q 854.15 296.83 844.17 295.51
  Q 836.06 294.43 831.77 294.83
  C 822.64 295.69 812.68 299.70 804.85 303.13
  C 798.87 305.74 792.23 306.89 784.94 308.82
  C 782.90 309.36 780.80 310.40 779.03 311.08
  Q 778.58 311.25 778.15 311.04
  Q 775.78 309.89 773.87 309.75
  Q 773.07 309.70 773.49 309.19
  Q 773.86 308.74 773.44 308.02
  Q 773.15 307.54 773.50 307.09
  Q 785.10 292.41 795.93 281.94
  Q 801.33 276.71 809.44 271.19
  Q 816.25 266.54 824.81 263.72
  Q 838.38 259.25 851.13 257.39
  Q 861.69 255.86 872.28 255.41
  Q 894.29 254.47 916.29 256.09
  Z"
/>
<path fill="#d61903" d="
  M 900.03 282.36
  L 899.96 275.49
  Q 899.95 274.99 899.48 274.99
  L 896.25 275.01
  Q 895.74 275.02 895.74 274.50
  L 895.73 267.00
  Q 895.73 266.47 896.24 266.47
  L 899.48 266.46
  Q 899.96 266.46 899.98 266.96
  L 900.06 270.54
  Q 900.07 270.75 900.28 270.75
  L 903.72 270.78
  A 0.25 0.24 -89.1 0 0 903.97 270.53
  L 904.04 266.95
  Q 904.06 266.49 904.53 266.50
  L 911.99 266.55
  Q 912.53 266.56 912.52 266.01
  L 912.44 258.76
  A 0.55 0.54 89.2 0 1 912.98 258.20
  L 915.66 258.16
  Q 916.14 258.15 916.43 257.73
  Q 916.90 257.04 916.29 256.09
  Q 932.86 256.96 938.50 257.49
  Q 940.24 257.65 941.44 259.27
  Q 941.75 259.69 941.28 259.90
  Q 936.27 262.12 931.98 264.40
  C 930.16 265.38 927.43 265.88 925.36 266.88
  Q 912.21 273.23 900.03 282.36
  Z"
/>
<path fill="#000000" d="
  M 1004.28 306.52
  Q 1002.20 307.01 1000.16 307.83
  Q 997.91 308.73 996.02 308.80
  Q 993.44 308.90 991.02 308.88
  C 988.56 308.87 987.22 309.93 985.23 310.42
  Q 983.06 310.96 981.19 310.57
  Q 979.46 310.22 977.28 310.59
  Q 971.49 311.60 965.92 312.82
  Q 966.66 311.06 966.58 308.92
  A 0.55 0.55 0.0 0 1 967.11 308.35
  L 970.06 308.24
  Q 970.78 308.22 970.80 307.47
  L 970.86 305.03
  A 0.90 0.88 -86.4 0 0 970.07 304.12
  L 967.18 303.82
  A 0.85 0.84 -86.5 0 1 966.43 302.96
  L 966.47 301.04
  Q 966.49 300.07 967.46 300.06
  L 974.23 300.03
  Q 974.80 300.03 974.86 300.63
  L 975.10 303.33
  Q 975.16 303.93 975.67 304.01
  Q 977.24 304.24 978.38 303.66
  A 0.96 0.95 81.3 0 0 978.88 302.97
  L 979.23 300.93
  Q 979.32 300.34 979.95 300.31
  Q 981.85 300.22 982.92 299.42
  A 1.29 1.29 0.0 0 0 983.41 298.58
  Q 983.76 296.20 985.87 295.72
  A 1.05 1.05 0.0 0 0 986.61 295.11
  Q 987.60 292.74 988.12 290.49
  Q 988.35 289.45 988.87 288.83
  C 989.27 288.35 990.22 287.80 990.52 286.95
  Q 991.85 283.22 992.09 279.84
  A 0.77 0.73 0.5 0 1 992.83 279.15
  L 994.64 279.07
  Q 995.27 279.04 995.32 279.68
  L 996.23 290.88
  Q 996.28 291.45 996.87 291.51
  L 998.94 291.70
  Q 999.46 291.75 999.50 292.31
  L 1000.15 303.29
  Q 1000.19 303.91 1000.78 303.95
  L 1003.11 304.13
  Q 1003.60 304.17 1003.84 304.65
  Q 1004.23 305.48 1004.28 306.52
  Z"
/>
<path fill="#000000" d="
  M 1056.51 279.34
  L 1054.21 280.30
  Q 1053.72 278.63 1056.51 279.34
  Z"
/>
<path fill="#d215ff" d="
  M 1162.35 321.03
  L 1154.65 320.58
  Q 1154.08 320.54 1154.06 320.07
  L 1153.93 317.17
  A 0.71 0.68 -1.4 0 0 1153.21 316.51
  L 1150.75 316.52
  A 0.58 0.56 85.9 0 1 1150.19 316.02
  L 1149.81 313.20
  Q 1149.74 312.65 1149.19 312.63
  L 1142.32 312.38
  A 0.63 0.63 0.0 0 1 1141.72 311.83
  L 1141.37 309.17
  Q 1141.31 308.72 1140.82 308.57
  L 1138.29 307.82
  Q 1137.72 307.65 1137.65 307.16
  L 1137.33 305.03
  Q 1137.25 304.47 1136.69 304.34
  L 1133.96 303.71
  Q 1133.36 303.58 1133.31 302.97
  L 1133.17 301.21
  A 1.07 1.05 89.8 0 0 1132.21 300.23
  L 1125.95 299.73
  Q 1125.40 299.69 1125.30 299.20
  L 1124.75 296.46
  A 0.69 0.66 -1.3 0 0 1124.17 295.93
  L 1121.37 295.54
  Q 1120.81 295.47 1120.82 294.95
  Q 1120.83 292.96 1120.46 292.10
  Q 1120.26 291.62 1119.76 291.61
  L 1113.21 291.41
  Q 1112.64 291.40 1112.62 290.81
  L 1112.49 287.53
  Q 1114.84 286.83 1117.30 286.39
  Q 1130.38 284.06 1138.49 282.72
  Q 1143.52 281.90 1148.32 282.15
  Q 1154.97 282.49 1157.71 282.49
  Q 1163.68 282.47 1166.58 282.56
  Q 1170.84 282.71 1175.39 283.46
  C 1192.60 286.32 1202.31 287.65 1215.16 292.20
  Q 1217.95 293.18 1217.76 296.24
  A 1.58 1.58 0.0 0 1 1216.52 297.69
  Q 1200.92 301.04 1186.22 307.99
  Q 1180.76 310.57 1162.35 321.03
  Z"
/>
<path fill="#dd210b" d="
  M 899.23 283.31
  L 897.46 285.38
  Q 897.08 285.83 897.65 285.97
  L 900.17 286.60
  Q 899.41 288.09 896.26 287.55
  Q 895.76 287.46 895.74 286.94
  L 895.67 283.94
  Q 895.66 283.36 896.27 283.26
  Q 897.77 283.03 899.23 283.31
  Z"
/>
<path fill="#000000" d="
  M 1046.12 283.97
  L 1041.73 286.34
  Q 1041.29 285.22 1041.59 283.97
  Q 1041.71 283.48 1042.21 283.36
  Q 1044.28 282.86 1046.12 283.97
  Z"
/>
<path fill="#d31600" d="
  M 1112.49 287.53
  L 1112.62 290.81
  Q 1112.64 291.40 1113.21 291.41
  L 1119.76 291.61
  Q 1120.26 291.62 1120.46 292.10
  Q 1120.83 292.96 1120.82 294.95
  Q 1120.81 295.47 1121.37 295.54
  L 1124.17 295.93
  A 0.69 0.66 -1.3 0 1 1124.75 296.46
  L 1125.30 299.20
  Q 1125.40 299.69 1125.95 299.73
  L 1132.21 300.23
  A 1.07 1.05 89.8 0 1 1133.17 301.21
  L 1133.31 302.97
  Q 1133.36 303.58 1133.96 303.71
  L 1136.69 304.34
  Q 1137.25 304.47 1137.33 305.03
  L 1137.65 307.16
  Q 1137.72 307.65 1138.29 307.82
  L 1140.82 308.57
  Q 1141.31 308.72 1141.37 309.17
  L 1141.72 311.83
  A 0.63 0.63 0.0 0 0 1142.32 312.38
  L 1149.19 312.63
  Q 1149.74 312.65 1149.81 313.20
  L 1150.19 316.02
  A 0.58 0.56 85.9 0 0 1150.75 316.52
  L 1153.21 316.51
  A 0.71 0.68 -1.4 0 1 1153.93 317.17
  L 1154.06 320.07
  Q 1154.08 320.54 1154.65 320.58
  L 1162.35 321.03
  Q 1155.76 324.69 1148.43 330.68
  Q 1139.09 338.33 1129.56 346.20
  Q 1128.86 344.24 1128.85 342.13
  Q 1128.84 341.56 1128.31 341.55
  L 1125.81 341.50
  Q 1125.21 341.49 1125.13 340.91
  L 1124.72 338.12
  A 0.63 0.57 86.8 0 0 1124.18 337.58
  L 1121.55 337.44
  Q 1120.98 337.41 1120.91 336.82
  L 1120.59 334.30
  A 1.09 1.09 0.0 0 0 1119.46 333.34
  Q 1116.98 333.46 1116.72 331.15
  Q 1116.27 327.18 1116.03 326.26
  Q 1115.89 325.73 1115.36 325.58
  Q 1112.83 324.87 1112.04 322.05
  A 1.10 1.10 0.0 0 0 1111.31 321.30
  Q 1108.56 320.44 1107.92 317.67
  Q 1107.79 317.09 1107.26 316.88
  L 1105.38 316.13
  Q 1104.44 315.76 1104.29 314.66
  L 1103.59 309.35
  Q 1103.52 308.77 1102.99 308.62
  L 1101.46 308.21
  A 1.77 1.72 5.6 0 1 1100.17 306.68
  L 1099.72 301.09
  Q 1099.67 300.56 1099.18 300.42
  L 1096.63 299.69
  Q 1096.09 299.54 1095.96 299.00
  L 1095.38 296.54
  Q 1095.24 295.98 1094.67 295.97
  Q 1091.11 295.90 1091.20 293.69
  L 1112.49 287.53
  Z"
/>
<path fill="#d215ff" d="
  M 1091.20 293.69
  Q 1091.11 295.90 1094.67 295.97
  Q 1095.24 295.98 1095.38 296.54
  L 1095.96 299.00
  Q 1096.09 299.54 1096.63 299.69
  L 1099.18 300.42
  Q 1099.67 300.56 1099.72 301.09
  L 1100.17 306.68
  A 1.77 1.72 5.6 0 0 1101.46 308.21
  L 1102.99 308.62
  Q 1103.52 308.77 1103.59 309.35
  L 1104.29 314.66
  Q 1104.44 315.76 1105.38 316.13
  L 1107.26 316.88
  Q 1107.79 317.09 1107.92 317.67
  Q 1108.56 320.44 1111.31 321.30
  A 1.10 1.10 0.0 0 1 1112.04 322.05
  Q 1112.83 324.87 1115.36 325.58
  Q 1115.89 325.73 1116.03 326.26
  Q 1116.27 327.18 1116.72 331.15
  Q 1116.98 333.46 1119.46 333.34
  A 1.09 1.09 0.0 0 1 1120.59 334.30
  L 1120.91 336.82
  Q 1120.98 337.41 1121.55 337.44
  L 1124.18 337.58
  A 0.63 0.57 86.8 0 1 1124.72 338.12
  L 1125.13 340.91
  Q 1125.21 341.49 1125.81 341.50
  L 1128.31 341.55
  Q 1128.84 341.56 1128.85 342.13
  Q 1128.86 344.24 1129.56 346.20
  L 1128.34 347.21
  Q 1127.86 347.60 1128.44 347.82
  L 1141.46 352.61
  Q 1141.05 354.03 1144.03 353.47
  L 1145.70 353.93
  L 1145.97 357.18
  L 1136.73 354.54
  Q 1136.25 354.41 1135.78 354.56
  Q 1133.77 355.25 1131.60 354.66
  Q 1126.16 353.17 1120.45 351.55
  Q 1121.19 351.07 1120.53 350.43
  Q 1120.21 350.12 1119.76 350.08
  L 1117.09 349.83
  Q 1116.61 349.79 1116.59 349.33
  L 1116.44 346.62
  A 0.71 0.71 0.0 0 0 1115.84 345.95
  L 1113.25 345.56
  Q 1112.66 345.47 1112.64 344.87
  Q 1112.57 342.81 1111.93 342.11
  Q 1111.58 341.74 1111.08 341.63
  L 1109.56 341.32
  Q 1108.92 341.19 1108.81 340.54
  L 1107.73 334.64
  A 1.23 1.14 -83.4 0 0 1107.10 333.78
  L 1105.23 332.86
  Q 1104.66 332.59 1104.56 331.98
  L 1103.56 326.05
  Q 1103.47 325.52 1102.99 325.34
  L 1101.10 324.60
  Q 1100.61 324.41 1100.54 323.90
  L 1099.62 317.80
  A 1.26 1.21 -0.9 0 0 1098.51 316.78
  Q 1096.15 316.52 1095.94 314.06
  Q 1095.58 309.71 1095.46 309.21
  Q 1095.32 308.64 1095.00 308.57
  L 1092.54 308.01
  A 0.93 0.82 -1.9 0 1 1091.89 307.48
  Q 1091.49 306.42 1091.51 305.65
  Q 1091.53 304.22 1090.09 304.13
  Q 1087.31 303.97 1087.52 301.75
  Q 1087.87 298.14 1086.89 294.98
  L 1091.20 293.69
  Z"
/>
<path fill="#d31600" d="
  M 1086.89 294.98
  Q 1087.87 298.14 1087.52 301.75
  Q 1087.31 303.97 1090.09 304.13
  Q 1091.53 304.22 1091.51 305.65
  Q 1091.49 306.42 1091.89 307.48
  A 0.93 0.82 -1.9 0 0 1092.54 308.01
  L 1095.00 308.57
  Q 1095.32 308.64 1095.46 309.21
  Q 1095.58 309.71 1095.94 314.06
  Q 1096.15 316.52 1098.51 316.78
  A 1.26 1.21 -0.9 0 1 1099.62 317.80
  L 1100.54 323.90
  Q 1100.61 324.41 1101.10 324.60
  L 1102.99 325.34
  Q 1103.47 325.52 1103.56 326.05
  L 1104.56 331.98
  Q 1104.66 332.59 1105.23 332.86
  L 1107.10 333.78
  A 1.23 1.14 -83.4 0 1 1107.73 334.64
  L 1108.81 340.54
  Q 1108.92 341.19 1109.56 341.32
  L 1111.08 341.63
  Q 1111.58 341.74 1111.93 342.11
  Q 1112.57 342.81 1112.64 344.87
  Q 1112.66 345.47 1113.25 345.56
  L 1115.84 345.95
  A 0.71 0.71 0.0 0 1 1116.44 346.62
  L 1116.59 349.33
  Q 1116.61 349.79 1117.09 349.83
  L 1119.76 350.08
  Q 1120.21 350.12 1120.53 350.43
  Q 1121.19 351.07 1120.45 351.55
  Q 1112.21 353.06 1106.73 353.42
  Q 1093.74 354.29 1075.49 354.23
  Q 1069.18 354.21 1066.36 349.02
  L 1066.38 342.11
  Q 1066.38 341.52 1065.80 341.53
  L 1063.14 341.57
  Q 1062.45 341.59 1062.45 340.89
  L 1062.42 334.11
  Q 1062.42 333.17 1063.36 333.18
  L 1070.12 333.23
  Q 1070.71 333.23 1070.72 332.64
  L 1070.73 329.48
  Q 1070.74 328.97 1071.26 328.98
  L 1074.38 329.01
  Q 1075.03 329.02 1075.03 328.38
  L 1074.99 325.62
  A 0.64 0.61 89.4 0 0 1074.38 325.00
  L 1067.24 325.07
  Q 1066.42 325.07 1066.42 324.24
  L 1066.50 313.02
  Q 1066.51 312.52 1066.01 312.53
  L 1063.25 312.55
  Q 1062.60 312.55 1062.59 313.19
  L 1062.53 315.81
  Q 1062.52 316.56 1061.73 316.57
  L 1058.98 316.59
  A 0.83 0.83 0.0 0 1 1058.14 315.77
  L 1058.09 308.03
  Q 1064.66 304.55 1071.42 301.19
  Q 1078.78 297.53 1086.89 294.98
  Z"
/>
<path fill="#000000" d="
  M 1020.94 299.61
  L 1018.15 301.87
  Q 1017.71 302.23 1018.15 302.60
  L 1020.71 304.72
  L 1020.81 307.65
  Q 1020.83 308.17 1021.35 308.25
  Q 1023.54 308.56 1025.38 307.79
  Q 1028.13 309.18 1029.54 310.47
  Q 1030.07 310.95 1030.45 312.18
  Q 1030.61 312.67 1031.02 312.89
  L 1041.60 318.61
  A 0.90 0.88 36.9 0 0 1042.65 318.48
  Q 1049.41 311.89 1058.09 308.03
  L 1058.14 315.77
  A 0.83 0.83 0.0 0 0 1058.98 316.59
  L 1061.73 316.57
  Q 1062.52 316.56 1062.53 315.81
  L 1062.59 313.19
  Q 1062.60 312.55 1063.25 312.55
  L 1066.01 312.53
  Q 1066.51 312.52 1066.50 313.02
  L 1066.42 324.24
  Q 1066.42 325.07 1067.24 325.07
  L 1074.38 325.00
  A 0.64 0.61 89.4 0 1 1074.99 325.62
  L 1075.03 328.38
  Q 1075.03 329.02 1074.38 329.01
  L 1071.26 328.98
  Q 1070.74 328.97 1070.73 329.48
  L 1070.72 332.64
  Q 1070.71 333.23 1070.12 333.23
  L 1063.36 333.18
  Q 1062.42 333.17 1062.42 334.11
  L 1062.45 340.89
  Q 1062.45 341.59 1063.14 341.57
  L 1065.80 341.53
  Q 1066.38 341.52 1066.38 342.11
  L 1066.36 349.02
  C 1064.81 347.20 1063.50 345.34 1061.71 343.83
  Q 1056.24 339.20 1052.96 335.97
  Q 1051.51 334.53 1047.89 331.89
  Q 1043.37 328.58 1041.18 322.42
  Q 1040.99 321.89 1040.49 321.62
  Q 1031.95 316.94 1022.67 312.10
  Q 1015.53 308.38 1008.12 306.46
  L 1008.34 304.66
  Q 1008.41 304.08 1008.98 304.06
  L 1012.06 303.95
  Q 1012.56 303.94 1012.55 303.44
  L 1012.52 300.76
  Q 1012.52 300.05 1013.24 300.03
  L 1016.02 299.97
  Q 1016.53 299.96 1016.53 299.47
  L 1016.48 296.50
  Q 1016.47 295.73 1017.22 295.73
  L 1020.16 295.72
  Q 1020.75 295.72 1020.78 296.32
  L 1020.94 299.61
  Z"
/>
<path fill="#d61903" d="
  M 1020.71 304.72
  L 1025.38 307.79
  Q 1023.54 308.56 1021.35 308.25
  Q 1020.83 308.17 1020.81 307.65
  L 1020.71 304.72
  Z"
/>
<path fill="#d41701" d="
  M 1144.03 353.47
  Q 1141.05 354.03 1141.46 352.61
  L 1144.03 353.47
  Z"
/>
<path fill="#d31600" d="
  M 1212.28 359.35
  Q 1212.69 360.60 1212.38 361.92
  Q 1212.27 362.41 1211.77 362.41
  L 1196.41 362.54
  Q 1195.87 362.55 1195.83 363.07
  L 1195.64 365.85
  A 0.58 0.56 1.8 0 1 1195.07 366.38
  L 1173.77 366.51
  Q 1173.40 366.20 1172.79 366.31
  L 1170.56 364.52
  Q 1170.87 363.81 1170.60 363.09
  Q 1170.41 362.60 1169.89 362.55
  L 1167.57 362.36
  Q 1164.58 362.01 1161.51 362.68
  L 1153.87 359.60
  Q 1153.30 357.26 1150.80 358.59
  L 1145.97 357.18
  L 1145.70 353.93
  Q 1155.16 355.98 1164.88 360.88
  Q 1166.15 361.52 1167.24 360.30
  Q 1167.58 359.92 1168.07 360.06
  Q 1168.37 360.14 1169.49 360.48
  Q 1170.05 360.65 1171.03 360.53
  Q 1191.60 358.12 1212.28 359.35
  Z"
/>
<path fill="#da096e" fill-opacity="0.996" d="
  M 1153.87 359.60
  L 1150.80 358.59
  Q 1153.30 357.26 1153.87 359.60
  Z"
/>
<path fill="#d215ff" d="
  M 1235.33 362.11
  Q 1232.48 362.44 1233.32 365.22
  A 1.04 0.99 81.7 0 1 1232.38 366.56
  L 1225.77 366.44
  Q 1225.14 366.43 1225.09 367.04
  L 1224.86 370.12
  Q 1224.82 370.70 1224.21 370.70
  L 1213.00 370.81
  A 0.45 0.42 0.8 0 0 1212.56 371.22
  L 1212.43 374.20
  A 0.66 0.65 -0.3 0 1 1211.81 374.82
  L 1204.73 375.18
  Q 1204.13 375.21 1204.06 375.81
  L 1203.74 378.30
  Q 1203.68 378.83 1203.18 378.84
  L 1184.07 379.09
  A 0.85 0.80 -0.4 0 0 1183.23 379.89
  L 1183.23 382.69
  Q 1183.22 383.11 1182.75 383.16
  L 1179.54 383.51
  Q 1178.31 374.05 1173.36 366.81
  Q 1173.40 366.55 1173.77 366.51
  L 1195.07 366.38
  A 0.58 0.56 1.8 0 0 1195.64 365.85
  L 1195.83 363.07
  Q 1195.87 362.55 1196.41 362.54
  L 1211.77 362.41
  Q 1212.27 362.41 1212.38 361.92
  Q 1212.69 360.60 1212.28 359.35
  Q 1223.87 359.99 1235.33 362.11
  Z"
/>
<path fill="#d41701" d="
  M 1254.12 366.56
  L 1254.03 374.46
  Q 1254.02 375.05 1253.45 375.03
  L 1250.72 374.94
  A 0.75 0.74 -89.2 0 0 1249.96 375.70
  L 1249.99 382.54
  Q 1249.99 383.33 1250.77 383.30
  L 1253.37 383.21
  Q 1254.00 383.18 1254.00 383.87
  L 1253.99 390.67
  Q 1253.99 391.63 1253.14 391.59
  L 1250.70 391.49
  Q 1250.13 391.46 1250.08 392.05
  L 1249.86 395.09
  Q 1249.81 395.71 1249.17 395.74
  L 1246.83 395.85
  Q 1246.31 395.87 1246.19 396.35
  Q 1245.38 399.48 1245.80 403.10
  Q 1245.87 403.71 1246.49 403.78
  L 1249.11 404.04
  Q 1250.08 404.13 1250.06 405.09
  L 1250.01 407.26
  Q 1249.99 408.29 1248.99 408.29
  L 1242.13 408.27
  Q 1241.50 408.27 1241.49 407.65
  L 1241.43 404.72
  Q 1241.42 403.97 1240.69 403.98
  L 1238.42 404.02
  Q 1237.69 404.03 1237.65 404.71
  L 1237.45 407.78
  Q 1237.42 408.18 1237.02 408.21
  L 1233.93 408.43
  Q 1233.34 408.47 1233.33 409.09
  L 1233.30 411.76
  Q 1233.29 412.33 1233.89 412.35
  L 1236.93 412.48
  Q 1237.58 412.51 1237.57 413.17
  L 1237.55 415.91
  A 0.69 0.67 0.2 0 1 1236.86 416.58
  L 1233.77 416.59
  A 0.47 0.46 0.0 0 0 1233.30 417.04
  L 1233.26 430.51
  L 1209.99 444.29
  A 0.43 0.43 0.0 0 0 1209.98 445.02
  C 1212.57 446.75 1215.35 448.31 1218.63 449.12
  Q 1224.86 450.66 1232.89 452.28
  Q 1233.40 452.38 1233.74 452.00
  Q 1234.18 451.49 1234.58 451.41
  Q 1235.18 451.29 1235.69 451.41
  Q 1247.27 454.32 1258.29 458.80
  L 1258.23 470.23
  A 0.53 0.51 89.6 0 0 1258.76 470.76
  L 1261.96 470.69
  Q 1262.45 470.68 1262.45 471.19
  L 1262.61 483.22
  Q 1263.39 484.14 1263.96 484.93
  C 1266.01 487.85 1270.28 488.51 1269.21 493.21
  Q 1268.43 496.63 1267.14 499.97
  Q 1266.14 500.69 1266.57 502.97
  Q 1266.76 503.95 1265.77 503.99
  L 1263.23 504.07
  A 0.77 0.75 -0.2 0 1 1262.44 503.30
  L 1262.51 500.54
  Q 1262.52 500.08 1262.04 500.07
  L 1258.88 499.96
  Q 1258.27 499.94 1258.25 499.38
  L 1258.19 496.86
  Q 1258.17 496.32 1257.75 495.97
  Q 1257.18 495.50 1256.27 495.45
  Q 1256.50 485.83 1256.18 483.32
  Q 1255.17 475.38 1255.14 467.97
  Q 1255.12 463.86 1251.92 461.87
  Q 1251.49 461.61 1251.33 462.08
  Q 1251.25 462.31 1251.58 463.01
  Q 1251.79 463.47 1251.30 463.38
  Q 1248.54 462.88 1249.01 460.31
  A 0.69 0.68 -74.0 0 0 1248.59 459.55
  Q 1244.72 458.01 1242.52 457.49
  Q 1237.33 456.26 1227.16 454.35
  Q 1214.96 452.05 1205.21 445.94
  Q 1204.70 445.62 1204.62 445.23
  L 1204.50 444.73
  Q 1204.41 444.32 1203.90 444.17
  Q 1199.48 442.88 1195.27 440.00
  Q 1187.90 434.96 1185.89 426.12
  C 1184.88 421.66 1183.85 416.48 1179.36 414.55
  Q 1177.16 413.59 1174.30 411.70
  Q 1170.73 409.32 1173.28 405.54
  Q 1176.75 400.41 1177.68 397.64
  Q 1180.05 390.62 1179.54 383.51
  L 1182.75 383.16
  Q 1183.22 383.11 1183.23 382.69
  L 1183.23 379.89
  A 0.85 0.80 -0.4 0 1 1184.07 379.09
  L 1203.18 378.84
  Q 1203.68 378.83 1203.74 378.30
  L 1204.06 375.81
  Q 1204.13 375.21 1204.73 375.18
  L 1211.81 374.82
  A 0.66 0.65 -0.3 0 0 1212.43 374.20
  L 1212.56 371.22
  A 0.45 0.42 0.8 0 1 1213.00 370.81
  L 1224.21 370.70
  Q 1224.82 370.70 1224.86 370.12
  L 1225.09 367.04
  Q 1225.14 366.43 1225.77 366.44
  L 1232.38 366.56
  A 1.04 0.99 81.7 0 0 1233.32 365.22
  Q 1232.48 362.44 1235.33 362.11
  L 1254.12 366.56
  Z"
/>
<path fill="#d41701" d="
  M 1167.57 362.36
  L 1165.74 362.82
  Q 1162.71 363.62 1161.51 362.68
  Q 1164.58 362.01 1167.57 362.36
  Z"
/>
<path fill="#d215ff" d="
  M 1167.57 362.36
  L 1169.89 362.55
  Q 1170.41 362.60 1170.60 363.09
  Q 1170.87 363.81 1170.56 364.52
  L 1165.74 362.82
  L 1167.57 362.36
  Z"
/>
<path fill="#d41701" d="
  M 1173.77 366.51
  Q 1173.40 366.55 1173.36 366.81
  Q 1172.95 366.60 1172.79 366.31
  Q 1173.40 366.20 1173.77 366.51
  Z"
/>
<path fill="#000000" d="
  M 1262.37 369.26
  L 1262.44 378.29
  Q 1262.45 379.08 1263.24 379.06
  L 1265.93 379.00
  A 0.64 0.64 0.0 0 0 1266.55 378.34
  L 1266.47 375.78
  A 0.76 0.66 89.2 0 1 1267.13 375.00
  L 1270.33 375.03
  Q 1270.80 375.04 1270.80 375.58
  L 1270.77 382.78
  Q 1270.77 383.29 1271.28 383.28
  L 1274.30 383.17
  Q 1274.95 383.15 1274.97 383.75
  L 1275.03 386.78
  Q 1275.05 387.50 1274.29 387.49
  L 1271.26 387.46
  Q 1270.71 387.45 1270.71 388.00
  L 1270.73 391.03
  Q 1270.73 391.58 1271.28 391.57
  L 1278.33 391.47
  Q 1278.94 391.46 1278.96 392.06
  L 1279.05 395.19
  A 0.64 0.63 88.1 0 0 1279.70 395.81
  L 1282.70 395.70
  Q 1283.21 395.68 1283.21 396.22
  L 1283.19 399.37
  Q 1283.19 400.05 1283.87 400.04
  L 1287.03 399.99
  Q 1287.56 399.98 1287.56 399.46
  L 1287.49 392.00
  Q 1287.49 391.46 1287.02 391.47
  L 1284.19 391.55
  Q 1283.19 391.58 1283.20 390.63
  L 1283.26 383.86
  A 0.91 0.71 -0.1 0 1 1284.16 383.16
  L 1290.81 383.10
  L 1300.13 389.70
  Q 1300.02 390.47 1300.26 391.04
  Q 1300.47 391.54 1301.01 391.55
  Q 1301.52 391.55 1302.07 391.25
  Q 1307.44 395.70 1312.62 400.39
  Q 1321.27 408.22 1326.62 418.43
  A 0.94 0.94 0.0 0 1 1326.14 419.73
  Q 1325.78 419.88 1324.92 419.95
  Q 1324.29 420.01 1323.68 419.75
  Q 1319.01 417.78 1315.02 417.20
  Q 1307.12 416.05 1297.40 416.01
  Q 1263.68 415.90 1233.26 430.51
  L 1233.30 417.04
  A 0.47 0.46 0.0 0 1 1233.77 416.59
  L 1236.86 416.58
  A 0.69 0.67 0.2 0 0 1237.55 415.91
  L 1237.57 413.17
  Q 1237.58 412.51 1236.93 412.48
  L 1233.89 412.35
  Q 1233.29 412.33 1233.30 411.76
  L 1233.33 409.09
  Q 1233.34 408.47 1233.93 408.43
  L 1237.02 408.21
  Q 1237.42 408.18 1237.45 407.78
  L 1237.65 404.71
  Q 1237.69 404.03 1238.42 404.02
  L 1240.69 403.98
  Q 1241.42 403.97 1241.43 404.72
  L 1241.49 407.65
  Q 1241.50 408.27 1242.13 408.27
  L 1248.99 408.29
  Q 1249.99 408.29 1250.01 407.26
  L 1250.06 405.09
  Q 1250.08 404.13 1249.11 404.04
  L 1246.49 403.78
  Q 1245.87 403.71 1245.80 403.10
  Q 1245.38 399.48 1246.19 396.35
  Q 1246.31 395.87 1246.83 395.85
  L 1249.17 395.74
  Q 1249.81 395.71 1249.86 395.09
  L 1250.08 392.05
  Q 1250.13 391.46 1250.70 391.49
  L 1253.14 391.59
  Q 1253.99 391.63 1253.99 390.67
  L 1254.00 383.87
  Q 1254.00 383.18 1253.37 383.21
  L 1250.77 383.30
  Q 1249.99 383.33 1249.99 382.54
  L 1249.96 375.70
  A 0.75 0.74 -89.2 0 1 1250.72 374.94
  L 1253.45 375.03
  Q 1254.02 375.05 1254.03 374.46
  L 1254.12 366.56
  L 1262.37 369.26
  Z
  M 1279.0114 396.2096
  A 0.50 0.50 0.0 0 0 1278.5088 395.7122
  L 1275.5088 395.7279
  A 0.50 0.50 0.0 0 0 1275.0114 396.2305
  L 1275.0286 399.5104
  A 0.50 0.50 0.0 0 0 1275.5312 400.0078
  L 1278.5312 399.9921
  A 0.50 0.50 0.0 0 0 1279.0286 399.4895
  L 1279.0114 396.2096
  Z"
/>
<path fill="#d61903" d="
  M 1290.81 383.10
  L 1284.16 383.16
  A 0.91 0.71 -0.1 0 0 1283.26 383.86
  L 1283.20 390.63
  Q 1283.19 391.58 1284.19 391.55
  L 1287.02 391.47
  Q 1287.49 391.46 1287.49 392.00
  L 1287.56 399.46
  Q 1287.56 399.98 1287.03 399.99
  L 1283.87 400.04
  Q 1283.19 400.05 1283.19 399.37
  L 1283.21 396.22
  Q 1283.21 395.68 1282.70 395.70
  L 1279.70 395.81
  A 0.64 0.63 88.1 0 1 1279.05 395.19
  L 1278.96 392.06
  Q 1278.94 391.46 1278.33 391.47
  L 1271.28 391.57
  Q 1270.73 391.58 1270.73 391.03
  L 1270.71 388.00
  Q 1270.71 387.45 1271.26 387.46
  L 1274.29 387.49
  Q 1275.05 387.50 1275.03 386.78
  L 1274.97 383.75
  Q 1274.95 383.15 1274.30 383.17
  L 1271.28 383.28
  Q 1270.77 383.29 1270.77 382.78
  L 1270.80 375.58
  Q 1270.80 375.04 1270.33 375.03
  L 1267.13 375.00
  A 0.76 0.66 89.2 0 0 1266.47 375.78
  L 1266.55 378.34
  A 0.64 0.64 0.0 0 1 1265.93 379.00
  L 1263.24 379.06
  Q 1262.45 379.08 1262.44 378.29
  L 1262.37 369.26
  Q 1277.26 374.46 1290.81 383.10
  Z"
/>
<path fill="#d61903" d="
  M 1302.07 391.25
  Q 1301.52 391.55 1301.01 391.55
  Q 1300.47 391.54 1300.26 391.04
  Q 1300.02 390.47 1300.13 389.70
  L 1302.07 391.25
  Z"
/>
<rect fill="#dd210b" x="-2.00" y="-2.14" transform="translate(1277.02,397.86) rotate(-0.3)" width="4.00" height="4.28" rx="0.50"/>
<path fill="#000000" d="
  M 1303.04 770.56
  L 1300.62 770.79
  Q 1300.10 770.83 1300.08 771.34
  L 1299.95 774.38
  Q 1299.92 774.93 1299.38 774.95
  L 1296.27 775.07
  Q 1295.65 775.09 1295.68 775.74
  L 1295.78 778.32
  Q 1295.81 778.94 1295.20 778.95
  L 1292.09 779.01
  Q 1291.44 779.02 1291.43 779.65
  L 1291.39 782.22
  Q 1291.37 783.30 1290.28 783.23
  L 1288.48 783.11
  Q 1287.59 783.05 1287.58 782.17
  L 1287.57 779.68
  Q 1287.57 779.06 1286.93 779.05
  L 1283.88 778.99
  Q 1283.27 778.98 1283.27 778.38
  L 1283.25 771.23
  Q 1283.25 770.71 1282.73 770.72
  L 1279.52 770.77
  A 0.51 0.50 -0.5 0 1 1279.01 770.27
  L 1279.00 762.99
  Q 1279.00 762.47 1278.49 762.48
  L 1275.56 762.55
  Q 1275.04 762.56 1275.03 762.05
  L 1275.00 758.74
  Q 1274.99 758.21 1274.49 758.22
  L 1271.29 758.25
  Q 1270.78 758.25 1270.78 757.71
  L 1270.79 749.92
  L 1274.05 750.00
  Q 1275.05 750.03 1275.04 749.05
  L 1275.02 742.43
  Q 1275.02 741.49 1274.21 741.52
  L 1271.30 741.61
  Q 1270.76 741.63 1270.76 741.07
  L 1270.76 737.93
  Q 1270.76 737.44 1270.34 737.44
  L 1267.28 737.42
  Q 1266.48 737.41 1266.48 738.29
  L 1266.48 744.98
  Q 1266.48 745.91 1267.41 745.88
  L 1270.25 745.77
  A 0.47 0.41 88.6 0 1 1270.68 746.24
  L 1270.73 749.89
  L 1262.97 750.04
  Q 1262.46 750.05 1262.46 750.55
  L 1262.52 757.76
  A 0.51 0.51 0.0 0 1 1262.00 758.27
  L 1250.50 758.21
  Q 1249.96 758.21 1249.96 758.75
  L 1250.01 766.02
  Q 1250.01 766.55 1250.53 766.55
  L 1257.77 766.51
  Q 1258.28 766.51 1258.28 767.02
  L 1258.19 774.25
  Q 1258.17 775.07 1259.01 775.06
  L 1261.91 775.01
  A 0.66 0.63 -1.0 0 0 1262.57 774.37
  L 1262.51 771.28
  Q 1262.50 770.80 1262.98 770.80
  L 1266.04 770.76
  Q 1266.50 770.75 1266.51 771.21
  Q 1266.68 779.63 1265.98 790.74
  Q 1265.94 791.33 1265.36 791.36
  L 1263.26 791.46
  Q 1262.74 791.48 1262.73 792.00
  L 1262.46 803.51
  Q 1262.45 803.98 1262.00 803.98
  L 1258.72 804.03
  Q 1258.21 804.03 1258.21 804.54
  L 1258.22 807.76
  Q 1258.22 808.29 1258.76 808.29
  L 1265.75 808.23
  Q 1266.52 808.23 1266.52 808.98
  L 1266.51 812.00
  Q 1266.51 812.53 1266.00 812.53
  L 1258.78 812.48
  Q 1258.33 812.48 1258.36 812.95
  Q 1258.55 816.19 1257.21 816.72
  L 1249.57 814.72
  Q 1249.05 814.58 1248.65 814.94
  L 1248.05 815.46
  A 0.91 0.89 -57.3 0 1 1247.21 815.65
  L 1245.35 815.13
  Q 1244.80 814.97 1244.72 815.53
  L 1243.97 820.60
  Q 1242.76 820.52 1241.96 820.91
  Q 1241.45 821.16 1241.46 821.73
  L 1241.56 828.03
  Q 1241.57 828.58 1241.06 828.79
  Q 1240.29 829.13 1239.27 829.03
  Q 1242.41 808.42 1243.98 792.49
  Q 1246.54 766.43 1247.48 757.99
  Q 1248.48 758.35 1249.32 758.27
  Q 1249.87 758.22 1249.91 757.69
  L 1250.12 754.79
  Q 1250.16 754.18 1249.56 754.04
  Q 1248.82 753.87 1247.94 754.00
  L 1251.48 729.12
  Q 1251.55 728.58 1251.25 728.18
  L 1250.92 727.75
  Q 1250.61 727.34 1250.74 726.79
  Q 1253.16 716.28 1254.59 700.20
  Q 1254.73 698.63 1254.66 697.72
  Q 1254.57 696.47 1254.90 695.30
  Q 1255.56 693.03 1255.93 689.88
  Q 1259.42 659.98 1260.15 623.35
  Q 1260.38 611.59 1260.03 607.10
  Q 1259.90 605.45 1260.60 602.42
  Q 1260.82 601.49 1261.45 600.47
  C 1262.10 599.42 1262.36 599.00 1262.21 597.79
  Q 1261.47 592.05 1258.56 585.59
  Q 1257.53 583.30 1255.77 581.58
  Q 1251.74 577.65 1250.66 572.09
  Q 1250.43 570.95 1250.22 572.09
  Q 1249.77 574.44 1250.37 577.00
  Q 1250.42 577.22 1250.19 577.25
  L 1249.92 577.28
  Q 1249.83 577.29 1249.79 577.21
  L 1247.17 570.42
  Q 1247.00 569.99 1247.10 569.51
  Q 1247.73 566.58 1247.50 565.31
  Q 1247.41 564.78 1247.89 564.55
  Q 1248.99 564.02 1249.08 562.32
  Q 1249.18 560.27 1249.08 558.34
  Q 1250.74 556.82 1249.46 554.08
  Q 1249.99 554.17 1250.09 553.60
  Q 1251.70 544.64 1253.22 537.68
  Q 1255.03 529.36 1255.49 523.71
  Q 1256.62 509.63 1256.27 495.45
  Q 1257.18 495.50 1257.75 495.97
  Q 1258.17 496.32 1258.19 496.86
  L 1258.25 499.38
  Q 1258.27 499.94 1258.88 499.96
  L 1262.04 500.07
  Q 1262.52 500.08 1262.51 500.54
  L 1262.44 503.30
  A 0.77 0.75 -0.2 0 0 1263.23 504.07
  L 1265.77 503.99
  Q 1266.76 503.95 1266.57 502.97
  Q 1266.14 500.69 1267.14 499.97
  L 1270.03 499.99
  Q 1270.78 500.00 1270.77 500.75
  L 1270.71 512.01
  A 0.55 0.55 0.0 0 0 1271.26 512.56
  L 1274.48 512.54
  Q 1275.00 512.54 1275.00 512.02
  L 1275.07 488.21
  A 0.72 0.70 -89.1 0 1 1275.79 487.49
  L 1278.12 487.56
  A 0.90 0.84 -90.0 0 0 1278.99 486.64
  L 1278.93 484.05
  Q 1278.91 483.31 1278.21 483.30
  L 1262.61 483.22
  L 1262.45 471.19
  Q 1262.45 470.68 1261.96 470.69
  L 1258.76 470.76
  A 0.53 0.51 89.6 0 1 1258.23 470.23
  L 1258.29 458.80
  Q 1277.27 465.81 1294.74 475.96
  Q 1300.24 479.16 1304.67 482.68
  Q 1310.18 487.07 1313.85 490.01
  Q 1328.00 501.33 1343.87 518.73
  C 1345.55 520.57 1346.55 523.04 1347.84 524.68
  Q 1356.56 535.76 1361.10 545.94
  Q 1363.68 551.71 1358.00 549.04
  C 1356.63 548.40 1354.66 547.17 1353.13 546.72
  Q 1341.55 543.30 1331.09 544.40
  Q 1325.12 545.02 1303.04 547.85
  Q 1292.50 549.20 1279.65 553.92
  Q 1266.63 558.71 1254.16 563.96
  Q 1252.74 564.56 1252.87 566.09
  Q 1253.48 573.02 1257.66 578.66
  Q 1257.91 578.98 1259.48 580.59
  Q 1260.60 581.74 1261.38 583.54
  Q 1264.83 591.39 1265.31 594.95
  Q 1265.81 598.61 1265.20 601.88
  Q 1265.03 602.77 1265.89 603.07
  Q 1312.12 618.97 1341.01 657.64
  Q 1344.19 661.88 1347.48 667.30
  C 1352.35 675.31 1356.58 681.71 1358.79 690.40
  Q 1361.62 701.57 1361.75 713.88
  A 1.54 1.54 0.0 0 1 1359.76 715.36
  Q 1353.44 713.39 1348.05 711.11
  Q 1339.55 707.51 1336.47 706.49
  Q 1313.55 698.88 1288.81 697.92
  Q 1273.55 697.33 1258.32 698.31
  Q 1257.80 698.34 1257.78 698.87
  Q 1257.46 707.51 1255.67 718.40
  A 0.75 0.75 0.0 0 0 1256.12 719.21
  Q 1276.13 727.73 1288.73 744.87
  Q 1290.20 746.87 1292.97 751.50
  Q 1295.13 755.11 1297.09 758.17
  Q 1300.13 762.91 1303.04 770.56
  Z"
/>
<path fill="#dd210b" d="
  M 1267.14 499.97
  Q 1268.43 496.63 1269.21 493.21
  C 1270.28 488.51 1266.01 487.85 1263.96 484.93
  Q 1263.39 484.14 1262.61 483.22
  L 1278.21 483.30
  Q 1278.91 483.31 1278.93 484.05
  L 1278.99 486.64
  A 0.90 0.84 -90.0 0 1 1278.12 487.56
  L 1275.79 487.49
  A 0.72 0.70 -89.1 0 0 1275.07 488.21
  L 1275.00 512.02
  Q 1275.00 512.54 1274.48 512.54
  L 1271.26 512.56
  A 0.55 0.55 0.0 0 1 1270.71 512.01
  L 1270.77 500.75
  Q 1270.78 500.00 1270.03 499.99
  L 1267.14 499.97
  Z"
/>
<path fill="#d61903" d="
  M 1249.46 554.08
  Q 1250.74 556.82 1249.08 558.34
  Q 1248.69 555.80 1249.46 554.08
  Z"
/>
<path fill="#dd210b" d="
  M 1270.79 749.92
  Q 1270.76 749.91 1270.73 749.89
  L 1270.68 746.24
  A 0.47 0.41 88.6 0 0 1270.25 745.77
  L 1267.41 745.88
  Q 1266.48 745.91 1266.48 744.98
  L 1266.48 738.29
  Q 1266.48 737.41 1267.28 737.42
  L 1270.34 737.44
  Q 1270.76 737.44 1270.76 737.93
  L 1270.76 741.07
  Q 1270.76 741.63 1271.30 741.61
  L 1274.21 741.52
  Q 1275.02 741.49 1275.02 742.43
  L 1275.04 749.05
  Q 1275.05 750.03 1274.05 750.00
  L 1270.79 749.92
  Z"
/>
<path fill="#d61903" d="
  M 1270.73 749.89
  Q 1270.76 749.91 1270.79 749.92
  L 1270.78 757.71
  Q 1270.78 758.25 1271.29 758.25
  L 1274.49 758.22
  Q 1274.99 758.21 1275.00 758.74
  L 1275.03 762.05
  Q 1275.04 762.56 1275.56 762.55
  L 1278.49 762.48
  Q 1279.00 762.47 1279.00 762.99
  L 1279.01 770.27
  A 0.51 0.50 -0.5 0 0 1279.52 770.77
  L 1282.73 770.72
  Q 1283.25 770.71 1283.25 771.23
  L 1283.27 778.38
  Q 1283.27 778.98 1283.88 778.99
  L 1286.93 779.05
  Q 1287.57 779.06 1287.57 779.68
  L 1287.58 782.17
  Q 1287.59 783.05 1288.48 783.11
  L 1290.28 783.23
  Q 1291.37 783.30 1291.39 782.22
  L 1291.43 779.65
  Q 1291.44 779.02 1292.09 779.01
  L 1295.20 778.95
  Q 1295.81 778.94 1295.78 778.32
  L 1295.68 775.74
  Q 1295.65 775.09 1296.27 775.07
  L 1299.38 774.95
  Q 1299.92 774.93 1299.95 774.38
  L 1300.08 771.34
  Q 1300.10 770.83 1300.62 770.79
  L 1303.04 770.56
  Q 1306.76 780.20 1308.15 788.33
  Q 1309.55 796.49 1310.22 799.03
  Q 1311.38 803.40 1310.89 813.78
  Q 1310.60 819.85 1309.29 829.10
  Q 1308.71 833.16 1307.28 836.16
  A 0.44 0.44 0.0 0 1 1306.66 836.35
  Q 1291.07 827.13 1273.17 821.07
  Q 1270.03 820.01 1265.21 818.83
  Q 1261.09 817.82 1257.21 816.72
  Q 1258.55 816.19 1258.36 812.95
  Q 1258.33 812.48 1258.78 812.48
  L 1266.00 812.53
  Q 1266.51 812.53 1266.51 812.00
  L 1266.52 808.98
  Q 1266.52 808.23 1265.75 808.23
  L 1258.76 808.29
  Q 1258.22 808.29 1258.22 807.76
  L 1258.21 804.54
  Q 1258.21 804.03 1258.72 804.03
  L 1262.00 803.98
  Q 1262.45 803.98 1262.46 803.51
  L 1262.73 792.00
  Q 1262.74 791.48 1263.26 791.46
  L 1265.36 791.36
  Q 1265.94 791.33 1265.98 790.74
  Q 1266.68 779.63 1266.51 771.21
  Q 1266.50 770.75 1266.04 770.76
  L 1262.98 770.80
  Q 1262.50 770.80 1262.51 771.28
  L 1262.57 774.37
  A 0.66 0.63 -1.0 0 1 1261.91 775.01
  L 1259.01 775.06
  Q 1258.17 775.07 1258.19 774.25
  L 1258.28 767.02
  Q 1258.28 766.51 1257.77 766.51
  L 1250.53 766.55
  Q 1250.01 766.55 1250.01 766.02
  L 1249.96 758.75
  Q 1249.96 758.21 1250.50 758.21
  L 1262.00 758.27
  A 0.51 0.51 0.0 0 0 1262.52 757.76
  L 1262.46 750.55
  Q 1262.46 750.05 1262.97 750.04
  L 1270.73 749.89
  Z
  M 1300.0390 779.5558
  A 0.55 0.55 0.0 0 0 1299.4958 778.9991
  L 1296.3960 778.9612
  A 0.55 0.55 0.0 0 0 1295.8393 779.5045
  L 1295.8010 782.6442
  A 0.55 0.55 0.0 0 0 1296.3442 783.2009
  L 1299.4440 783.2388
  A 0.55 0.55 0.0 0 0 1300.0007 782.6955
  L 1300.0390 779.5558
  Z"
/>
<path fill="#dd210b" d="
  M 1247.48 757.99
  L 1247.94 754.00
  Q 1248.82 753.87 1249.56 754.04
  Q 1250.16 754.18 1250.12 754.79
  L 1249.91 757.69
  Q 1249.87 758.22 1249.32 758.27
  Q 1248.48 758.35 1247.48 757.99
  Z"
/>
<rect fill="#000000" x="-2.10" y="-2.12" transform="translate(1297.92,781.10) rotate(0.7)" width="4.20" height="4.24" rx="0.55"/>
<path fill="#dd210b" d="
  M 1243.97 820.60
  L 1240.51 839.74
  A 1.06 1.06 0.0 0 0 1240.80 840.67
  L 1245.80 845.76
  L 1242.27 845.72
  Q 1241.50 845.71 1241.51 846.49
  L 1241.54 853.24
  Q 1241.55 854.01 1240.78 854.02
  L 1238.11 854.04
  Q 1237.41 854.05 1237.44 853.36
  L 1237.53 850.83
  Q 1237.55 850.31 1237.04 850.14
  Q 1236.13 849.82 1235.26 849.96
  L 1236.33 846.01
  Q 1238.49 845.20 1237.25 841.62
  L 1239.27 829.03
  Q 1240.29 829.13 1241.06 828.79
  Q 1241.57 828.58 1241.56 828.03
  L 1241.46 821.73
  Q 1241.45 821.16 1241.96 820.91
  Q 1242.76 820.52 1243.97 820.60
  Z"
/>
<path fill="#000000" d="
  M 1237.25 841.62
  Q 1238.49 845.20 1236.33 846.01
  L 1237.25 841.62
  Z"
/>
<path fill="#000000" d="
  M 1245.80 845.76
  Q 1255.81 856.74 1261.61 870.66
  Q 1259.76 870.88 1258.97 870.69
  Q 1258.31 870.53 1258.31 871.22
  L 1258.22 878.26
  Q 1258.21 879.00 1258.99 879.00
  L 1262.04 879.02
  Q 1262.55 879.03 1262.54 879.53
  L 1262.50 882.72
  Q 1262.50 883.23 1263.03 883.22
  L 1265.80 883.14
  Q 1269.87 897.80 1270.12 906.32
  Q 1270.23 909.72 1270.49 913.12
  Q 1270.79 916.95 1270.68 919.91
  Q 1270.36 928.60 1269.73 937.32
  L 1266.94 937.58
  Q 1266.50 937.62 1266.50 938.03
  L 1266.53 945.25
  Q 1266.53 945.78 1265.99 945.76
  L 1262.47 945.61
  Q 1256.29 934.85 1246.47 927.77
  Q 1235.33 919.73 1221.21 913.84
  Q 1220.73 913.63 1220.57 914.14
  Q 1217.86 922.96 1217.93 925.00
  Q 1218.32 936.91 1217.17 949.76
  Q 1217.13 950.27 1217.46 950.65
  Q 1221.81 955.77 1224.42 962.66
  Q 1229.25 975.39 1230.36 988.75
  Q 1231.95 1007.91 1230.71 1022.74
  C 1230.34 1027.06 1229.33 1034.07 1225.30 1034.82
  Q 1224.80 1032.58 1222.54 1033.32
  Q 1220.82 1027.76 1218.08 1022.64
  Q 1214.41 1015.78 1213.63 1014.33
  Q 1210.79 1009.08 1205.86 1005.43
  A 0.29 0.29 0.0 0 0 1205.42 1005.58
  L 1203.33 1012.49
  Q 1201.91 1012.20 1200.66 1012.56
  Q 1200.10 1012.73 1200.06 1013.32
  L 1199.88 1015.65
  Q 1199.85 1016.11 1199.44 1016.35
  Q 1198.84 1016.71 1197.98 1016.75
  Q 1199.67 1009.53 1203.16 999.61
  Q 1203.49 998.67 1203.85 998.02
  Q 1204.48 996.90 1204.60 996.50
  Q 1207.05 988.93 1208.41 982.70
  Q 1208.84 980.71 1213.14 959.88
  C 1214.82 951.76 1214.08 942.94 1214.37 934.91
  Q 1214.61 928.03 1215.42 920.77
  Q 1215.85 917.02 1217.59 912.27
  Q 1219.22 907.81 1220.33 903.87
  Q 1226.09 883.37 1230.84 865.69
  Q 1230.86 865.61 1232.50 858.77
  Q 1233.57 854.28 1235.26 849.96
  Q 1236.13 849.82 1237.04 850.14
  Q 1237.55 850.31 1237.53 850.83
  L 1237.44 853.36
  Q 1237.41 854.05 1238.11 854.04
  L 1240.78 854.02
  Q 1241.55 854.01 1241.54 853.24
  L 1241.51 846.49
  Q 1241.50 845.71 1242.27 845.72
  L 1245.80 845.76
  Z"
/>
<path fill="#dd210b" d="
  M 1261.61 870.66
  L 1265.80 883.14
  L 1263.03 883.22
  Q 1262.50 883.23 1262.50 882.72
  L 1262.54 879.53
  Q 1262.55 879.03 1262.04 879.02
  L 1258.99 879.00
  Q 1258.21 879.00 1258.22 878.26
  L 1258.31 871.22
  Q 1258.31 870.53 1258.97 870.69
  Q 1259.76 870.88 1261.61 870.66
  Z"
/>
<path fill="#dd210b" d="
  M 1269.73 937.32
  Q 1269.76 942.34 1267.86 946.98
  A 1.36 1.35 87.7 0 1 1267.22 947.67
  Q 1263.97 949.32 1262.47 945.61
  L 1265.99 945.76
  Q 1266.53 945.78 1266.53 945.25
  L 1266.50 938.03
  Q 1266.50 937.62 1266.94 937.58
  L 1269.73 937.32
  Z"
/>
<path fill="#dd210b" d="
  M 1203.33 1012.49
  L 1201.47 1020.54
  Q 1200.05 1020.75 1199.97 1024.05
  Q 1199.95 1024.87 1199.13 1024.91
  L 1196.22 1025.05
  L 1197.98 1016.75
  Q 1198.84 1016.71 1199.44 1016.35
  Q 1199.85 1016.11 1199.88 1015.65
  L 1200.06 1013.32
  Q 1200.10 1012.73 1200.66 1012.56
  Q 1201.91 1012.20 1203.33 1012.49
  Z"
/>
<path fill="#000000" d="
  M 1201.47 1020.54
  Q 1200.64 1023.56 1200.84 1026.63
  Q 1200.87 1027.12 1201.21 1027.48
  Q 1206.87 1033.42 1209.46 1041.35
  L 1204.51 1041.54
  Q 1204.00 1041.56 1204.01 1042.05
  L 1204.02 1049.32
  Q 1204.02 1050.03 1203.31 1050.02
  L 1195.65 1049.95
  Q 1195.36 1049.30 1195.56 1048.76
  Q 1195.38 1047.52 1195.70 1046.34
  Q 1195.85 1045.76 1196.41 1045.77
  L 1199.37 1045.82
  Q 1200.08 1045.84 1200.06 1045.13
  L 1200.00 1042.09
  A 0.70 0.62 88.7 0 0 1199.36 1041.40
  L 1196.23 1041.48
  Q 1195.68 1041.49 1195.67 1040.90
  L 1195.62 1027.96
  Q 1195.51 1026.61 1196.22 1025.05
  L 1199.13 1024.91
  Q 1199.95 1024.87 1199.97 1024.05
  Q 1200.05 1020.75 1201.47 1020.54
  Z"
/>
<path fill="#dd210b" d="
  M 1195.56 1048.76
  Q 1192.90 1042.14 1193.54 1035.00
  Q 1193.86 1031.38 1195.62 1027.96
  L 1195.67 1040.90
  Q 1195.68 1041.49 1196.23 1041.48
  L 1199.36 1041.40
  A 0.70 0.62 88.7 0 1 1200.00 1042.09
  L 1200.06 1045.13
  Q 1200.08 1045.84 1199.37 1045.82
  L 1196.41 1045.77
  Q 1195.85 1045.76 1195.70 1046.34
  Q 1195.38 1047.52 1195.56 1048.76
  Z"
/>
<path fill="#d61903" d="
  M 1225.30 1034.82
  Q 1223.04 1035.34 1222.54 1033.32
  Q 1224.80 1032.58 1225.30 1034.82
  Z"
/>
<path fill="#d41701" d="
  M 1209.46 1041.35
  Q 1212.20 1049.53 1212.37 1058.25
  Q 1212.45 1062.04 1210.56 1064.39
  Q 1209.00 1066.33 1207.66 1064.24
  C 1206.89 1063.04 1206.21 1061.70 1205.31 1060.53
  Q 1201.02 1054.98 1196.15 1051.11
  Q 1195.84 1050.87 1195.65 1049.95
  L 1203.31 1050.02
  Q 1204.02 1050.03 1204.02 1049.32
  L 1204.01 1042.05
  Q 1204.00 1041.56 1204.51 1041.54
  L 1209.46 1041.35
  Z"
/>
</svg>
