<?xml version="1.0" encoding="UTF-8"?>
<svg id="Phil" xmlns="http://www.w3.org/2000/svg" viewBox="0 0 128 128">
  <defs>
    <style>
      .cls-1 {
        fill: #231f20;
        stroke-width: 0px;
      }
    </style>
  </defs>
  <g id="Neck">
    <path class="cls-1" d="M56.03,66.6c1.05.4,2.12.8,3.04,1.47.97.7,1.59,1.66,1.94,2.79s.51,2.45.69,3.67c.19,1.37.36,2.74.51,4.11s.34,2.77.35,4.14c0,.25-.01.52-.14.74-.02.04-.18.27-.21.24.02.02.13-.1.12-.04,0,0,.12-.04.12-.04-.01,0-.31.27-.29.25-.25.21-.49.43-.73.65-1.58,1.48-3.08,3.3-2.96,5.59.06,1.25.27,2.39,0,3.64-.25,1.14-.71,2.21-1.2,3.27-.9,1.96-2.24,4.25-1.82,6.49s2.85,2.73,4.85,2.7c1.13-.02,2.31-.3,3.42-.54,1.32-.29,2.63-.65,3.92-1.06,2.56-.81,5.05-1.8,7.54-2.8,2.05-.83,4.01-1.76,5.9-2.9,2.57-1.56,4.96-3.38,7.58-4.87s5.09-2.68,7.69-3.89c.83-.38,1.81-.69,2.55-1.25.13-.1.36-.27.38-.45s-.17-.44-.24-.62c-.13-.33-.23-.67-.32-1.01-.61-2.47-.18-5.07.29-7.53,1.06-5.58,2.15-11.16,3.21-16.75s2.15-11.09,2.53-16.72c.09-1.38.14-2.77.13-4.15,0-.64.03-1.32-.08-1.95s-.59-1.05-.82-1.64c-.43-1.09.14-2.46.32-3.56.21-1.36.3-2.73.27-4.11s-.18-2.66-.44-3.97l-.87.5.15.33.87-.5c-.81.21-1.78-.19-2.55-.42-.85-.25-1.69-.53-2.51-.86-.67-.27-1.32-.61-1.75-1.21-.2-.28-.34-.59-.54-.87-.15-.21-.53-.39-.36-.6l-.87.5c0,9.57-1.01,19.12-3.02,28.48l.87-.5.04-.69c-.01.18-.83.3-.87.5-.9,4.93-4.23,9.07-8.37,11.74-2.43,1.56-5.35,2.48-8.16,3.09s-5.67.89-8.54,1c-3.37.12-6.8.04-10.03-1.04-.21-.07-.66.57-.87.5,3.16,1.06,6.51,1.15,9.81,1.05s6.33-.42,9.42-1.15c5.1-1.21,10.18-3.75,13.67-7.74,1.98-2.26,3.4-4.97,3.94-7.94l-.87.5-.04.69c.01-.18.82-.3.87-.5,2.01-9.36,3.03-18.91,3.02-28.48,0,.12-.77.38-.87.5-.18.21.21.39.36.6.18.25.32.54.5.8.43.64,1.1.99,1.8,1.28.78.32,1.59.59,2.4.83s1.83.67,2.67.45c.09-.02.87-.49.87-.5l-.15-.33s-.88.43-.87.5c.4,2.05.54,4.13.38,6.21-.08,1.06-.23,2.11-.45,3.14-.18.85-.4,1.75.06,2.56.22.4.52.72.64,1.17.13.49.11,1.03.12,1.54.02,1.1,0,2.2-.04,3.3-.09,2.16-.3,4.31-.59,6.45-.57,4.3-1.42,8.57-2.23,12.83s-1.65,8.69-2.49,13.03c-.42,2.19-.94,4.4-1.06,6.64-.06,1.07-.02,2.15.2,3.2.11.52.26,1.03.47,1.52.09.22.18.3.1.5-.04.1-.14.21-.21.3l.87-.5c-5.41,2.45-10.73,5.14-15.65,8.49-1.54,1.05-3.05,2.11-4.74,2.9-1.48.69-3.02,1.28-4.54,1.88-3.03,1.19-6.1,2.32-9.29,3.03-1.37.31-2.78.62-4.19.59-1.17-.02-2.46-.18-3.37-.98-2.17-1.92-.42-5.4.54-7.47.59-1.27,1.21-2.54,1.52-3.91.14-.64.22-1.3.19-1.95-.04-.81-.23-1.61-.17-2.42.09-1.3.73-2.47,1.54-3.46.41-.51.87-.97,1.35-1.42.24-.22.48-.44.73-.66.04-.04.34-.33.36-.32,0,0-.2.05-.2.07.06-.13.28-.42.31-.71.05-.41-.02-.84-.06-1.25-.07-.93-.15-1.86-.25-2.79-.19-1.9-.43-3.79-.72-5.68-.24-1.54-.5-3.2-1.54-4.43s-2.53-1.76-3.95-2.3c-.2-.08-.67.57-.87.5h0Z"/>
  </g>
</svg>