<?xml version="1.0" encoding="UTF-8"?>
<svg id="Phil" xmlns="http://www.w3.org/2000/svg" viewBox="0 0 128 128">
  <defs>
    <style>
      .cls-1 {
        fill: #231f20;
        stroke-width: 0px;
      }
    </style>
  </defs>
  <g id="Spikes">
    <path class="cls-1" d="M98.87,81.93c-.02-1.11.33-2.14.66-3.18s.62-2.11.81-3.19c.39-2.16.09-4.22.46-6.37s1.08-4.22,1.61-6.33c.56-2.22.99-4.47,1.36-6.73.73-4.41,1.65-8.96,1.45-13.44-.1-2.24-.79-4.34-1.02-6.56-.12-1.19.05-2.22.33-3.36.13-.52.19-1.05.2-1.59,0-.79.02-1.86-.32-2.58-.77-1.65-2.82-2.31-4.36-2.94-1.64-.68-3.53-1.71-3.76-3.68-.05-.43.02-.85.17-1.25.16-.44.34-.83.19-1.3-.25-.77-1.07-1.22-1.77-1.52-1.96-.85-4.13-1.23-6.26-1.14-1.05.05-2.1.17-3.13-.11-.92-.26-1.75-.78-2.49-1.36-1.44-1.13-2.7-2.93-4.73-2.73-.95.09-1.83.48-2.76.67-1.04.22-1.99.04-2.98-.3-2.13-.73-4.21-1.18-6.46-1.3-.51-.03-1.02-.05-1.53-.06-.27,0-.55-.01-.82-.01-.23,0-.74.1-.94,0-.16-.09-.1.06-.04-.1.02-.06.12-.14.17-.19.09-.1.19-.19.29-.28.29-.27.61-.5.93-.72,1.35-.91,3.06-1.46,4.63-1.86,1.8-.46,3.69-.53,5.54-.53,1.15,0,2.31.06,3.46.17l.87-.5c-1.51.34-3.11,1.19-4.26,2.24-.67.61-1.44,1.36-.7,2.23.55.64,1.52.8,2.32.67,1.51-.26,2.88-1.5,4.05-2.39,1.64-1.25,3.74-1.86,5.79-2.06,2.28-.21,4.59.15,6.68,1.1l.87-.5c-2.11.19-4.07.88-5.9,1.93-.76.44-1.5.89-2.19,1.44-.4.32-.97.7-1.25,1.13-.12.18-.14.05-.07.29.02.08.13.2.18.25.18.2.42.33.67.42,1.72.61,3.52-1.21,4.93-1.91,2.12-1.05,4.45-1.68,6.81-1.87,2.65-.21,5.32.13,7.82,1.02l.87-.5c-2.54.65-4.88,1.72-7.13,3.06-.48.28-.94.58-1.4.89s-1.32.77-1.38,1.4c-.06.66.92.97,1.4,1.16.7.29,1.43.48,2.17.59l.87-.5-.73.1c-.3.04-.57.48-.87.5,5.27-.43,11.07.72,14.36,5.23l.87-.5c-2.12-.5-4.32-.51-6.44,0-.83.2-1.68.46-2.43.87-.47.26-1.26.58-1.44,1.14-.28.91,1.01,1.19,1.61,1.4.87.3,1.72.67,2.53,1.09,1.66.86,3.2,1.96,4.55,3.26,1.54,1.47,2.82,3.19,3.8,5.08l.87-.5c-2.28-1.01-4.92-1.09-7.25-.19-.76.3-1.5.7-2.19,1.14-.41.26-.82.6-1.02,1.06-.12.27-.1.49-.07.78.02.26-.02.52.14.74l.87-.5-.24-.18-.87.5c.5.17.58.67.67,1.13.12.58.25,1.09.84,1.35.68.3,1.38.46,2.03.82s1.25.81,1.8,1.32c2.42,2.25,3.54,5.46,4.42,8.56l.87-.5c-.92-.75-2.12-1.14-3.26-1.41-1.3-.31-2.66-.46-4-.46-1.04,0-2.19.07-3.15.52-.56.26-1.5.66-1.67,1.33.05-.2.73-.32.87-.5l.44-.61c-.12.17-.55.31-.74.42-.51.3-1.07.69-1.08,1.35s.46,1.28.83,1.78c1.27,1.74,2.72,3.33,3.41,5.42.49,1.49.54,3.06.21,4.59l.87-.5c-.69-1.23-2.02-2.39-3.42-2.69-.58-.12-1.08-.02-1.59.27-.43.24-1.23.59-1.37,1.12-.1.38.2,1.01.32,1.39.15.48.31.95.48,1.43.34.96.71,1.92,1.01,2.89.63,2.03.9,4.11.25,6.17l.87-.5c-.54-1.05-1.09-2.24-1.99-3.04-.81-.72-1.57-.35-2.35.23-.74.55-.65,1.44-.59,2.28.08.96.28,1.9.49,2.84.42,1.93.85,3.9.24,5.83l.87-.5c-.47-.71-.5-1.67-.83-2.45-.12-.28-.31-.68-.67-.69-.31-.02-.7.31-.95.46-.41.24-.63.49-.73.98-.11.57.02,1.16.18,1.71.25.85,1.04,2.21.38,3.03l.87-.5c-.22-.92-.96-1.83-1.72-2.38-.12-.08-.76.58-.87.5.76.54,1.5,1.45,1.72,2.38-.02-.06.79-.41.87-.5.55-.69.05-1.74-.2-2.46-.33-.99-.57-1.88-.14-2.87.02-.04.04-.08.08-.1.2-.17.04-.08-.5.28.04.02.13-.04.18-.02.11.06.2.07.3.15.25.22.36.6.47.9.23.67.3,1.49.7,2.09,0-.02.84-.42.87-.5.61-1.93.18-3.91-.24-5.83-.2-.94-.41-1.88-.49-2.84-.07-.87-.15-1.75.63-2.31l-.32.19.09-.05-.55.31c.8-.36,1.51.44,1.95,1.02.56.73.98,1.55,1.39,2.37-.02-.04.84-.41.87-.5,1.15-3.67-.68-7.05-1.75-10.49-.11-.37-.34-.85-.33-1.23s.36-.49.53-.76c-.29.48-.59.24-.18.19.17-.02.33-.04.51-.03.27.01.54.08.8.17,1.24.43,2.38,1.43,3.02,2.57-.02-.03.85-.41.87-.5.54-2.54-.06-4.96-1.46-7.12-.54-.83-1.16-1.6-1.77-2.38-.43-.55-.94-1.15-1.14-1.83s.15-1.29.76-1.66l-.74.42-.44.61.87-.5c.03-.12.08-.23.16-.34.12-.17.59-.45.01-.12-.64.36.06,0,.25-.05.2-.06.41-.11.61-.15,1.05-.21,2.13-.22,3.19-.15,2.04.13,4.5.5,6.13,1.83.03.03.87-.49.87-.5-.88-3.11-2-6.3-4.42-8.56-.52-.49-1.09-.92-1.71-1.27-.68-.39-1.41-.55-2.12-.87-.56-.25-.71-.71-.83-1.28-.1-.48-.16-1.03-.68-1.2-.16-.05-.75.58-.87.5l.24.18c.07.05.83-.55.87-.5-.17-.24-.19-.79-.18-1.1.02-.43.32-.82.63-1.1.64-.58,1.77-.84,2.63-1,1.89-.35,3.83-.12,5.59.66.08.03.85-.53.87-.5-1.56-2.99-3.88-5.54-6.71-7.38-1.41-.92-2.94-1.64-4.53-2.17-.59-.19-1.54-.55-1.21-1.35.03-.08.3-.48.37-.44.05.03-.5.19-.15.11.1-.02.21-.08.31-.12.48-.18.97-.34,1.47-.46,2.15-.54,4.39-.54,6.54-.03.11.03.83-.55.87-.5-3.3-4.5-9.1-5.66-14.36-5.23l-.87.5.73-.1c.26-.03.62-.54.87-.5-1.07-.16-2.28-.46-3.18-1.08-1.13-.77.54-1.76,1.16-2.18,2-1.35,4.3-2.24,6.63-2.84.19-.05.71-.56.87-.5-4.01-1.43-8.47-1.43-12.49-.04-1.59.55-3.08,1.34-4.51,2.23-.2.13-.4.27-.6.39.36-.21-.19.08-.23.09-.12.05-.25.09-.38.13-.44.12-.92.12-1.35-.04-.27-.1-.86-.4-.88-.75-.02-.31.79-.88,1.04-1.09,1.88-1.59,4.23-2.4,6.67-2.62.19-.02.72-.57.87-.5-3.35-1.52-7.3-1.54-10.68-.09-1.3.55-2.57,1.31-3.68,2.17-.38.29-.75.6-1.14.88,0,0-.52.29-.25.17.22-.1-.1.02-.12.03-.22.07-.43.15-.66.19-.73.12-1.59,0-2.16-.51-.3-.27-.56-.68-.48-1.1.09-.44.57-.86.87-1.15.19-.18.39-.35.6-.51.08-.06.16-.12.24-.18.37-.24.42-.28.15-.12-.22.12-.21.12,0,0,.55-.24,1.09-.45,1.67-.58.26-.06.62-.52.87-.5-3.97-.37-7.96-.27-11.68,1.26-1.25.51-2.46,1.16-3.58,1.9-.26.17-.51.35-.75.55-.2.17-.62.45-.73.7-.06.16-.24.05.16.1.11.01.24,0,.35,0,.27,0,.55,0,.82.01.59.01,1.17.03,1.76.05,2.29.11,4.43.52,6.59,1.28,1.03.36,2.01.56,3.09.34.99-.2,1.94-.63,2.95-.69,2.04-.1,3.37,1.9,4.86,2.99.77.56,1.62,1.03,2.56,1.21,1.1.21,2.21.01,3.32,0,2.08-.01,4.43.39,6.26,1.43.72.41,1.44,1.09,1.22,1.99-.11.44-.35.82-.39,1.27s.05.91.22,1.32c.79,1.94,2.88,2.6,4.65,3.34.84.35,1.68.76,2.36,1.37.32.28.6.6.82.97.26.44.28,1,.34,1.5.13,1.21,0,2.28-.29,3.44-.39,1.55-.17,3.1.15,4.65.48,2.27.79,4.48.7,6.82s-.43,4.67-.78,6.99c-.69,4.6-1.48,9.14-2.74,13.62-.59,2.09-1.31,4.42-1.12,6.58s-.36,4.5-1.02,6.58c-.34,1.08-.73,2.14-.7,3.29,0-.15.87-.33.87-.5h0Z"/>
  </g>
</svg>