<?xml version="1.0" encoding="UTF-8" standalone="no"?>
<svg
   version="1.1"
   id="Layer_1"
   x="0px"
   y="0px"
   width="100%"
   viewBox="0 0 740 327"
   enable-background="new 0 0 740 327"
   xml:space="preserve"
   sodipodi:docname="PhilTopJaw.svg"
   inkscape:version="1.2.2 (b0a84865, 2022-12-01)"
   xmlns:inkscape="http://www.inkscape.org/namespaces/inkscape"
   xmlns:sodipodi="http://sodipodi.sourceforge.net/DTD/sodipodi-0.dtd"
   xmlns="http://www.w3.org/2000/svg"
   xmlns:svg="http://www.w3.org/2000/svg"><defs
   id="defs22" /><sodipodi:namedview
   id="namedview20"
   pagecolor="#ffffff"
   bordercolor="#000000"
   borderopacity="0.25"
   inkscape:showpageshadow="2"
   inkscape:pageopacity="0.0"
   inkscape:pagecheckerboard="0"
   inkscape:deskcolor="#d1d1d1"
   showgrid="false"
   inkscape:zoom="0.72171254"
   inkscape:cx="342.93432"
   inkscape:cy="163.5"
   inkscape:window-width="1309"
   inkscape:window-height="456"
   inkscape:window-x="0"
   inkscape:window-y="156"
   inkscape:window-maximized="0"
   inkscape:current-layer="Layer_1" />
<path
   fill="#FFFFFF"
   opacity="1.000000"
   stroke="none"
   d=" M453.000000,1.000000   C457.024536,1.000000 461.049103,1.000000 465.240173,1.343475   C470.537109,2.791300 475.619751,4.400090 480.808197,4.891264   C490.544739,5.812984 500.023193,6.691034 508.054993,13.388742   C512.968384,17.486090 518.813171,20.310198 525.617371,18.965397   C531.356323,17.831150 536.990417,16.116060 542.755737,15.179698   C549.134094,14.143767 555.705627,14.163750 562.008911,12.844197   C566.531494,11.897424 568.996704,13.733615 572.099976,16.420650   C580.458191,23.657888 589.304626,30.327921 597.808655,37.401752   C602.139160,41.003933 605.910583,45.312462 610.412170,48.659576   C612.487915,50.202957 615.676147,50.488945 618.422424,50.808273   C620.277405,51.023968 622.248718,50.003860 624.155273,50.051128   C632.901733,50.267952 641.641296,50.764553 650.387817,50.976494   C664.304504,51.313705 677.398682,55.620579 690.581665,59.344757   C695.444580,60.718529 699.764832,63.613190 700.083435,69.560905   C700.488098,77.115242 701.149780,84.699020 700.824341,92.232254   C700.643250,96.426811 700.551575,99.821037 703.867310,103.007233   C705.274963,104.359909 705.457703,107.088249 705.978699,109.244164   C707.668884,116.238373 710.186401,122.211555 718.318665,124.168556   C723.082642,125.315002 727.493103,127.868538 732.146973,129.556671   C735.015869,130.597382 738.043579,131.200455 741.000000,132.000000   C741.000000,134.370560 741.000000,136.741104 740.612061,139.558838   C739.484802,141.124542 738.515747,142.154648 738.045288,143.376663   C735.803040,149.200958 734.092773,155.262543 731.461426,160.897995   C725.390137,173.900650 721.312988,187.496628 717.802917,201.362671   C715.334045,211.116104 713.178711,221.266891 708.656250,230.099960   C703.303589,240.554352 699.614441,251.273651 696.964600,262.557861   C693.399841,277.737946 689.658691,292.876709 685.973877,308.028503   C682.554932,322.086609 672.633240,324.342499 662.445801,323.790619   C653.612000,323.312134 644.801758,321.370453 636.117126,319.457825   C627.755188,317.616302 619.929260,317.140442 612.167725,321.847717   C608.698486,323.951752 604.362183,324.603455 600.476685,326.066498   C599.833069,326.308868 599.484741,327.335693 599.000000,328.000000   C584.645752,328.000000 570.291565,328.000000 555.462769,327.584290   C550.440430,326.020691 545.896118,324.858429 541.344177,323.727417   C524.199585,319.467529 507.216125,314.245026 489.845917,311.324432   C479.213715,309.536743 467.584564,309.513184 457.124664,311.882538   C442.922211,315.099670 428.620117,316.743500 414.307159,317.742371   C398.243988,318.863373 382.040802,318.119659 365.902069,317.912323   C362.069305,317.863098 358.152924,317.065033 354.442322,316.018280   C338.082489,311.403290 321.785950,306.564026 305.461243,301.824066   C302.081696,300.842804 298.731232,299.515228 295.276428,299.094727   C289.576385,298.400879 283.772522,298.573975 278.065948,297.916809   C268.382111,296.801697 258.776215,294.795074 249.071335,294.131470   C236.359421,293.262207 223.578613,293.453491 210.835876,292.967316   C197.168015,292.445862 183.451660,292.233887 169.864670,290.835663   C157.328888,289.545563 144.593491,288.038818 132.557373,284.530304   C111.990570,278.535034 91.870758,270.988708 71.628006,263.908539   C64.087982,261.271301 57.214237,256.210052 48.746357,257.066528   C40.516357,257.898956 32.225208,258.754517 24.171391,260.546112   C13.543419,262.910339 12.326097,262.531342 10.007978,251.998917   C9.937696,251.679581 10.111176,251.254333 9.958387,251.013184   C6.991237,246.330093 3.992365,241.667114 1.000001,237.000000   C1.000000,228.645767 1.000000,220.291534 1.397236,211.464722   C2.090927,210.898483 2.608990,210.864288 2.652339,210.702713   C6.689518,195.655975 14.354845,182.440765 24.202917,170.646530   C32.785992,160.367294 42.131992,150.693176 51.577827,141.185806   C54.388367,138.356949 58.448490,136.111847 62.325447,135.117477   C76.805183,131.403687 91.478920,128.455032 106.019203,124.966423   C125.246170,120.353333 144.506500,115.835388 163.583496,110.654289   C180.522339,106.053894 196.182358,98.326248 211.821747,90.328484   C221.719467,85.266930 227.945221,78.030617 233.082245,68.823341   C239.199326,57.859428 242.291183,45.983597 245.102707,33.905872   C246.391235,28.370600 248.814682,22.632793 255.180420,21.452621   C265.976959,19.451006 276.805176,19.585716 287.021149,24.518774   C293.656067,27.722645 300.121429,31.295113 306.845856,34.291630   C314.516693,37.709908 317.479370,36.382065 321.012390,28.738647   C321.410889,27.876596 321.626434,26.929886 322.025970,26.068415   C328.445618,12.226880 336.722168,5.694612 351.893036,8.236757   C357.023926,9.096525 361.604767,12.922641 366.617615,14.945455   C368.894470,15.864226 371.901489,16.571831 374.074829,15.853986   C381.053345,13.549008 387.813385,10.573308 394.628143,7.784150   C403.814178,4.024469 413.321533,2.296294 423.243439,3.082287   C431.083893,3.703392 438.915344,4.641047 446.764648,4.815822   C448.930054,4.864037 452.788269,5.247557 453.000000,1.000000  z"
   id="path9" />




</svg>
