<?xml version="1.0" encoding="UTF-8" standalone="no"?>
<svg
   version="1.1"
   id="Layer_1"
   x="0px"
   y="0px"
   width="100%"
   viewBox="0 0 623 220"
   enable-background="new 0 0 623 220"
   xml:space="preserve"
   sodipodi:docname="PhilEyes.svg"
   inkscape:version="1.2.2 (b0a84865, 2022-12-01)"
   xmlns:inkscape="http://www.inkscape.org/namespaces/inkscape"
   xmlns:sodipodi="http://sodipodi.sourceforge.net/DTD/sodipodi-0.dtd"
   xmlns="http://www.w3.org/2000/svg"
   xmlns:svg="http://www.w3.org/2000/svg"><defs
   id="defs22" /><sodipodi:namedview
   id="namedview20"
   pagecolor="#ffffff"
   bordercolor="#000000"
   borderopacity="0.25"
   inkscape:showpageshadow="2"
   inkscape:pageopacity="0.0"
   inkscape:pagecheckerboard="0"
   inkscape:deskcolor="#d1d1d1"
   showgrid="false"
   inkscape:zoom="1.0727273"
   inkscape:cx="293.17797"
   inkscape:cy="110"
   inkscape:window-width="1309"
   inkscape:window-height="456"
   inkscape:window-x="0"
   inkscape:window-y="156"
   inkscape:window-maximized="0"
   inkscape:current-layer="Layer_1" />
<path
   fill="#FF8B39"
   opacity="1.000000"
   stroke="none"
   d=" M262.000000,0.999998   C275.354218,1.000000 288.708466,1.000000 302.195496,1.340100   C303.003632,2.106292 303.627319,2.755462 304.361938,2.925506   C318.712921,6.247341 333.140015,9.261894 347.423645,12.848543   C369.996490,18.516638 388.506348,31.851505 406.806641,45.373440   C427.451416,60.627701 447.430420,76.837349 471.444153,86.877029   C481.314209,91.003510 491.455231,94.168365 502.110382,93.860580   C518.058289,93.399910 533.977478,91.244629 549.912170,91.207977   C568.326782,91.165634 586.956116,88.728302 605.132385,94.000473   C612.318787,96.084961 619.992981,97.497261 621.176514,107.074486   C621.268799,107.821228 623.019897,108.362968 624.000000,109.000000   C624.000000,121.354225 624.000000,133.708450 623.718689,146.186798   C619.962585,150.095428 615.915405,149.530182 611.683655,147.916458   C604.922607,145.338211 598.357178,142.455688 590.657715,143.911072   C575.790527,146.721298 560.819214,148.975922 545.909729,151.567917   C529.159546,154.479904 512.613281,158.802353 495.371368,158.059250   C489.452454,157.804153 483.463837,156.825974 477.585846,158.951874   C474.706909,159.993103 471.449585,160.059738 468.658813,161.256210   C464.675751,162.963837 460.475067,164.735916 457.252350,167.508972   C452.593109,171.518158 448.833252,176.553268 444.501221,180.965668   C431.337280,194.373962 414.603210,201.963516 397.316681,207.796753   C375.744354,215.076202 353.052429,217.140182 330.442688,219.070068   C328.917969,219.200211 327.478912,220.333344 326.000000,221.000000   C314.645782,221.000000 303.291534,221.000000 291.452118,220.583771   C290.845825,219.877304 290.781830,219.377518 290.595490,219.326721   C279.042816,216.177780 267.377197,213.399902 255.940460,209.878311   C234.055984,203.139679 214.665421,192.447418 202.654099,171.966568   C196.949142,162.238892 191.143631,152.237701 187.715210,141.608398   C184.760773,132.448608 184.726929,122.247261 184.094925,112.461647   C183.187897,98.417290 182.465134,84.414680 178.032013,70.884178   C174.921890,61.391655 171.256256,52.413296 160.971130,48.508644   C157.651062,47.248222 154.223663,46.184414 150.761902,45.398056   C134.246475,41.646515 117.943588,36.730572 100.724899,36.901516   C96.252014,36.945927 93.092667,38.849815 90.633415,41.978458   C84.432068,49.867802 76.528099,55.620003 67.568001,59.628315   C55.607414,64.978897 43.461330,70.035278 31.068544,74.260834   C21.301598,77.591064 11.041220,79.474159 1.000000,82.000000   C1.000000,75.978844 1.000000,69.957695 1.257678,63.806602   C2.685755,60.507782 3.821874,57.325737 5.033221,54.172585   C8.197406,45.936176 11.623892,37.821026 18.049683,31.477873   C31.741798,17.961851 48.784344,11.807693 67.495056,11.224908   C82.141937,10.768697 96.875549,12.013105 111.525032,13.110636   C121.101608,13.828108 130.585251,15.725493 140.133286,16.910927   C144.692749,17.477003 149.342438,18.149330 153.885498,17.832058   C162.024597,17.263651 170.132706,16.115473 178.219437,14.967675   C188.694275,13.480920 199.142838,11.802987 209.589081,10.122590   C219.865158,8.469565 230.101654,6.556200 240.398758,5.053418   C247.040543,4.084106 253.765625,3.693765 260.435699,2.896158   C261.024292,2.825773 261.481689,1.658049 262.000000,0.999998  z"
   id="path9" />




</svg>
