<?xml version="1.0" encoding="UTF-8" standalone="no"?>
<svg
   version="1.1"
   id="Layer_1"
   x="0px"
   y="0px"
   width="100%"
   viewBox="0 0 828 331"
   enable-background="new 0 0 828 331"
   xml:space="preserve"
   sodipodi:docname="PhilTop.svg"
   inkscape:version="1.2.2 (b0a84865, 2022-12-01)"
   xmlns:inkscape="http://www.inkscape.org/namespaces/inkscape"
   xmlns:sodipodi="http://sodipodi.sourceforge.net/DTD/sodipodi-0.dtd"
   xmlns="http://www.w3.org/2000/svg"
   xmlns:svg="http://www.w3.org/2000/svg"><defs
   id="defs20" /><sodipodi:namedview
   id="namedview18"
   pagecolor="#ffffff"
   bordercolor="#000000"
   borderopacity="0.25"
   inkscape:showpageshadow="2"
   inkscape:pageopacity="0.0"
   inkscape:pagecheckerboard="0"
   inkscape:deskcolor="#d1d1d1"
   showgrid="false"
   inkscape:zoom="0.71299094"
   inkscape:cx="386.40042"
   inkscape:cy="-58.90678"
   inkscape:window-width="1309"
   inkscape:window-height="456"
   inkscape:window-x="0"
   inkscape:window-y="156"
   inkscape:window-maximized="0"
   inkscape:current-layer="Layer_1" />
<path
   fill="#2EB0FF"
   opacity="1.000000"
   stroke="none"
   d=" M603.000000,1.000005   C609.688721,1.000000 616.377441,1.000000 623.198730,1.254264   C623.634644,1.904367 623.852966,2.483937 624.253662,2.669184   C634.570312,7.438834 640.598633,15.895415 644.004639,26.310083   C648.045715,38.666512 656.537781,47.461636 666.090393,55.610775   C678.574829,66.261055 691.198059,76.774261 703.238342,87.912186   C714.146790,98.003151 724.240295,108.969444 734.912354,119.323822   C741.049561,125.278290 747.398926,131.059906 754.043884,136.435898   C769.441650,148.893173 783.853210,162.417664 796.158081,177.876984   C812.987671,199.020950 824.643433,222.658966 827.084839,250.117599   C827.145203,250.796463 828.336243,251.374786 829.000000,252.000000   C829.000000,265.688690 829.000000,279.377350 828.564636,293.551636   C827.762451,294.479095 827.099731,294.903259 827.072144,295.365417   C826.341370,307.574554 825.676331,319.787598 825.000000,332.000000   C551.833313,332.000000 278.666656,332.002197 5.500007,331.956818   C3.565703,331.956482 0.191824,333.462250 1.374900,328.493835   C4.018695,323.629150 6.342207,319.298065 8.546316,314.907074   C15.390182,301.272766 23.361578,288.057129 28.706005,273.855072   C35.289917,256.359314 39.686268,238.039108 44.998528,220.066498   C48.566936,207.993759 50.721447,195.285004 55.888218,183.945038   C69.578796,153.897171 93.268417,132.243652 119.314224,112.976135   C132.913605,102.915932 146.835754,93.287254 160.326080,83.085449   C187.464966,62.562183 217.030792,46.742252 249.322327,35.997723   C258.634064,32.899384 268.641479,31.641125 276.861694,25.611231   C282.893005,21.186998 288.902954,16.726007 295.071533,12.498966   C300.229584,8.964364 305.069763,10.367328 305.878876,16.425695   C306.818756,23.463373 306.413666,30.755732 305.932831,37.893124   C304.782654,54.967449 300.276611,71.116669 291.532715,85.963219   C284.684204,97.591583 281.740540,110.187469 283.086761,123.587212   C283.748291,130.172012 284.415833,137.333145 292.185028,139.958008   C296.436096,141.394257 300.943909,142.752441 305.369690,142.869415   C322.723663,143.328079 339.239624,138.443695 355.391571,133.014114   C372.528839,127.253281 389.250214,120.217873 406.020935,113.412971   C431.059113,103.253441 454.658630,90.305809 477.135956,75.360474   C502.675995,58.378693 527.842163,40.826908 553.569092,24.136955   C567.598145,15.035826 583.081604,8.759290 599.458801,4.851048   C600.865479,4.515351 601.830078,2.327486 603.000000,1.000005  z"
   id="path9" />



</svg>
