<?xml version="1.0" encoding="UTF-8" standalone="no"?>
<svg
   version="1.1"
   id="Layer_1"
   x="0px"
   y="0px"
   width="100%"
   viewBox="0 0 450 620"
   enable-background="new 0 0 450 620"
   xml:space="preserve"
   sodipodi:docname="PhilSpikes.svg"
   inkscape:version="1.2.2 (b0a84865, 2022-12-01)"
   xmlns:inkscape="http://www.inkscape.org/namespaces/inkscape"
   xmlns:sodipodi="http://sodipodi.sourceforge.net/DTD/sodipodi-0.dtd"
   xmlns="http://www.w3.org/2000/svg"
   xmlns:svg="http://www.w3.org/2000/svg"><defs
   id="defs68" /><sodipodi:namedview
   id="namedview66"
   pagecolor="#ffffff"
   bordercolor="#000000"
   borderopacity="0.25"
   inkscape:showpageshadow="2"
   inkscape:pageopacity="0.0"
   inkscape:pagecheckerboard="0"
   inkscape:deskcolor="#d1d1d1"
   showgrid="false"
   inkscape:zoom="0.38064516"
   inkscape:cx="172.07627"
   inkscape:cy="310"
   inkscape:window-width="1309"
   inkscape:window-height="456"
   inkscape:window-x="0"
   inkscape:window-y="156"
   inkscape:window-maximized="0"
   inkscape:current-layer="Layer_1" />

<path
   fill="#FF00D2"
   opacity="1.000000"
   stroke="none"
   d=" M448.956726,355.113525   C441.647064,352.578278 434.375610,349.925720 427.020142,347.531403   C409.878265,341.951416 392.156067,341.607117 374.381927,342.106140   C373.088745,342.142456 371.833984,343.546753 369.875793,344.728882   C369.555359,343.269287 368.966187,341.992004 369.055115,340.763763   C369.659668,332.412231 370.383423,324.068878 371.124786,315.727905   C371.312012,313.621429 371.903961,311.539032 371.967194,309.435303   C372.365631,296.180267 371.928864,282.847565 373.261810,269.691833   C374.145264,260.972504 371.804321,254.911240 365.323212,249.452423   C363.619904,248.017792 362.848969,244.315170 363.172455,241.854202   C364.118835,234.654816 365.742889,227.537064 367.265381,220.422424   C370.499023,205.311310 370.982788,190.110489 369.045624,174.805557   C368.983185,174.312286 369.046631,173.803833 368.995422,173.308243   C368.696655,170.416855 369.441895,166.533508 367.855042,164.839645   C364.333893,161.081085 359.861694,158.496460 354.160492,157.855377   C341.677734,156.451691 330.191132,151.986404 320.955597,143.212662   C318.551086,140.928360 317.432922,137.194382 316.009796,133.998901   C314.514893,130.642273 313.743591,127.200661 309.475616,125.636711   C305.835968,124.302994 304.930939,121.762718 307.535858,117.598427   C313.002563,108.859184 312.526093,99.577148 306.848633,90.981415   C305.594604,89.082771 302.769257,87.956123 300.438477,87.090446   C295.756622,85.351562 290.911530,84.054337 286.157379,82.502502   C285.899414,82.418304 285.857819,81.671127 285.382568,80.206512   C291.386993,80.228592 296.138550,82.065674 300.232239,85.433716   C301.633850,84.932518 302.918335,84.126122 304.241577,84.056541   C312.660400,83.613853 321.118713,82.709000 329.506226,83.123993   C349.899994,84.133018 369.933716,87.202629 388.381409,96.794037   C403.039276,104.415009 415.600677,114.449188 425.106110,129.019104   C423.654602,129.403519 422.482147,130.076050 421.416107,129.936340   C415.462036,129.156082 409.559692,127.778206 403.588684,127.390984   C398.392151,127.053993 393.060242,127.312851 387.907013,128.093307   C375.055023,130.039688 362.637970,133.696365 351.006042,139.571701   C345.968536,142.116150 341.281708,145.354782 334.781830,149.275681   C341.020538,151.088623 345.998779,152.632401 351.030548,153.975540   C359.276428,156.176636 367.862976,157.461578 375.759857,160.535507   C392.515594,167.057816 407.735992,176.109299 421.243225,188.400040   C432.406769,198.558182 442.320984,209.344055 449.312408,222.732376   C449.522430,223.134537 450.078247,223.356125 450.736420,223.330948   C451.000000,225.041672 451.000000,227.083328 450.612946,229.556931   C447.679596,228.995972 445.162415,227.919052 442.581696,227.025589   C434.098022,224.088531 425.651062,226.159103 417.074341,226.814682   C401.939911,227.971527 387.894470,232.432785 374.151764,238.388504   C366.818573,241.566498 366.734833,241.727219 370.332825,248.771271   C370.626221,249.345749 370.782043,250.037933 371.199677,250.494293   C376.182098,255.938599 377.962952,262.561554 378.176178,269.406464   C398.598236,276.678223 416.115051,287.608307 429.880737,304.292023   C438.189178,314.361664 446.172821,324.516418 449.289825,337.581268   C449.352051,337.842010 450.407776,337.865723 451.000000,338.000000   C451.000000,339.066681 451.000000,340.133331 450.743286,341.664246   C450.657745,342.752319 450.828888,343.376160 451.000000,344.000000   C451.000000,347.030609 451.000000,350.061188 450.705414,353.604065   C449.926117,354.448730 449.441406,354.781128 448.956726,355.113525  z"
   id="path11" />
<path
   fill="#FF00D2"
   opacity="1.000000"
   stroke="none"
   d=" M221.583344,0.999998   C222.449799,1.660283 222.770020,2.727705 223.369247,2.918401   C229.970871,5.019280 236.624435,6.956335 243.242218,9.007752   C244.614014,9.432996 246.101135,9.904595 247.157394,10.800264   C248.041870,11.550269 248.940384,13.045752 248.774033,14.032691   C248.640076,14.827369 247.003662,15.663373 245.896118,15.951535   C238.714706,17.820009 231.110535,18.640144 224.373001,21.511995   C212.248154,26.680151 200.635452,33.049816 188.808777,38.917530   C188.862473,39.531887 188.916153,40.146244 188.969833,40.760605   C194.135971,44.436356 199.243835,48.200321 204.531494,51.692032   C205.317795,52.211273 207.259796,51.867825 208.145798,51.215454   C221.227051,41.583511 236.021591,35.647736 251.473419,31.274286   C266.942749,26.895882 282.761475,23.376762 298.854858,25.217461   C312.453247,26.772791 325.835083,30.221914 339.779724,33.157326   C340.416260,33.680977 340.611816,33.850124 340.833313,33.989216   C340.882324,34.748913 340.931305,35.508610 340.749268,36.757526   C340.319000,37.416283 340.149811,37.611813 340.010651,37.833336   C326.119232,40.443596 313.572021,46.468479 301.790680,53.898079   C292.085114,60.018642 283.010437,67.139618 273.269775,74.093071   C276.675232,76.143486 279.064636,77.582153 281.454071,79.020828   C281.367737,79.531281 281.281403,80.041725 281.195068,80.552177   C278.471222,80.552177 275.544739,81.206009 273.059692,80.435722   C263.737518,77.546211 254.517975,80.690269 245.261520,80.419136   C240.493912,80.279488 235.647568,81.256683 230.958084,80.702621   C228.714890,80.437599 226.653397,77.898453 224.685547,76.187035   C220.094055,72.193893 215.616013,68.070503 211.073792,64.020309   C210.349808,63.374744 209.156693,63.000202 208.813507,62.221401   C204.494354,52.420170 194.384583,50.700603 186.346512,46.235363   C179.418015,42.386501 172.316437,46.722004 165.285629,46.829857   C155.654083,46.977604 145.862244,52.369339 136.344589,45.820377   C131.827332,42.712124 126.836311,40.294422 122.073708,37.540031   C118.290894,35.352291 114.354980,35.558617 110.077652,35.733334   C103.958328,35.983295 97.788635,34.698467 91.625359,34.306213   C88.706726,34.120461 85.621933,33.974293 82.838509,34.689766   C72.018768,37.470982 61.362747,36.815071 50.344093,35.512016   C44.160042,34.780704 37.405342,37.645359 31.094574,39.519123   C22.779432,41.988018 14.669779,45.143063 6.409416,47.809948   C5.383109,48.141293 3.975737,47.292339 2.222469,46.746952   C1.493636,46.298244 1.260303,46.130379 1.000000,46.000000   C1.000000,45.250000 1.000000,44.500000 1.186221,43.262825   C1.610365,42.605442 1.815911,42.402447 2.307968,42.022774   C6.040224,38.078632 9.568057,34.374115 12.842986,30.458090   C19.533508,22.457834 27.450500,15.905429 37.120491,12.129497   C54.753197,5.244286 73.439812,4.448471 92.084808,4.072300   C98.166832,3.949593 104.266457,4.655293 110.356812,5.003405   C115.948860,5.323033 121.544998,5.602334 127.125359,6.067200   C128.196701,6.156446 129.203140,7.024525 131.541641,8.172537   C119.000778,14.424407 106.598656,18.229177 96.796211,27.762321   C102.524399,28.474377 107.577835,29.102554 112.762070,29.746994   C113.676659,28.506117 114.440659,26.989159 115.621101,25.941353   C129.284363,13.813367 145.032745,5.964176 163.124710,2.923780   C163.837433,2.804004 164.378799,1.664412 165.000000,1.000001   C165.750000,1.000000 166.500000,1.000000 167.727783,1.313804   C169.470383,1.418406 170.735184,1.209203 172.000000,1.000000   C184.354233,1.000000 196.708450,1.000000 209.662262,1.342992   C212.725891,3.598497 215.036896,4.007935 217.000000,1.000000   C218.388885,1.000000 219.777786,1.000000 221.583344,0.999998  z"
   id="path13" />


<path
   fill="#FF00D2"
   opacity="1.000000"
   stroke="none"
   d=" M344.166656,597.010681   C341.514832,589.503784 338.066193,582.482300 331.903961,575.409363   C330.349274,581.306702 329.006012,585.670593 328.167511,590.129395   C327.973083,591.163269 329.438080,592.564880 330.246460,593.722656   C335.637970,601.444275 338.562775,609.730286 335.859467,619.777710   C335.298248,620.506348 335.130402,620.739685 335.000000,621.000000   C334.555542,621.000000 334.111115,621.000000 333.317627,620.672424   C332.367920,619.563171 331.767273,618.781433 331.166656,617.999756   C328.401031,614.168579 324.672058,610.678955 323.156219,606.404602   C321.795746,602.568359 322.069031,597.681580 323.029205,593.588501   C325.231110,584.202087 328.577789,575.088989 330.927979,565.731384   C333.602600,555.082153 335.693665,544.286499 338.059998,533.559204   C338.190430,532.967957 338.519165,532.420532 339.484039,530.102905   C342.398926,535.683899 345.566315,539.855774 346.800232,544.537170   C348.852905,552.324890 350.123352,560.397339 350.862823,568.429138   C351.517365,575.538696 351.213379,582.765442 350.906433,589.922119   C350.760651,593.321594 350.759125,597.419434 345.251892,597.749146   C344.583771,597.318970 344.388214,597.149780 344.166656,597.010681  z"
   id="path19" />
<path
   fill="#FF00D2"
   opacity="1.000000"
   stroke="none"
   d=" M216.562500,1.000000   C215.036896,4.007935 212.725891,3.598497 210.130920,1.342992   C212.041672,1.000000 214.083328,1.000000 216.562500,1.000000  z"
   id="path21" />
<path
   fill="#FF00D2"
   opacity="1.000000"
   stroke="none"
   d=" M171.600006,1.000000   C170.735184,1.209203 169.470383,1.418406 168.102783,1.313804   C169.066666,1.000000 170.133347,1.000000 171.600006,1.000000  z"
   id="path23" />
<path
   fill="#FF00D2"
   opacity="1.000000"
   stroke="none"
   d=" M331.095612,618.324219   C331.767273,618.781433 332.367920,619.563171 332.984283,620.672424   C333.000000,621.000000 332.500000,621.000000 332.250000,621.000000   C331.674866,620.216187 331.349731,619.432434 331.095612,618.324219  z"
   id="path25" />
<path
   fill="#FF00D2"
   opacity="1.000000"
   stroke="none"
   d=" M451.000000,343.666687   C450.828888,343.376160 450.657745,342.752319 450.743286,342.064240   C451.000000,342.444458 451.000000,342.888885 451.000000,343.666687  z"
   id="path27" />
<path
   fill="#FF00D2"
   opacity="1.000000"
   stroke="none"
   d=" M449.076538,355.400909   C449.441406,354.781128 449.926117,354.448730 450.705414,354.058167   C451.000000,354.444458 451.000000,354.888885 451.000000,355.666687   C450.398804,355.896118 449.797577,355.792206 449.076538,355.400909  z"
   id="path29" />
<path
   fill="#FF00D2"
   opacity="1.000000"
   stroke="none"
   d=" M1.000000,46.250000   C1.260303,46.130379 1.493636,46.298244 1.840024,46.668465   C1.820334,46.882446 1.660621,46.931557 1.250453,46.990334   C1.000000,47.000000 1.000000,46.500000 1.000000,46.250000  z"
   id="path31" />
<path
   fill="#FF00D2"
   opacity="1.000000"
   stroke="none"
   d=" M1.000000,42.250000   C1.168442,42.006443 1.336883,42.012890 1.747203,42.092999   C1.815911,42.402447 1.610365,42.605442 1.186221,42.887825   C1.000000,43.000000 1.000000,42.500000 1.000000,42.250000  z"
   id="path33" />
<path
   fill="#FF00D2"
   opacity="1.000000"
   stroke="none"
   d=" M335.250000,621.000000   C335.130402,620.739685 335.298248,620.506348 335.668457,620.159912   C335.882446,620.179504 335.931580,620.339233 335.990356,620.749512   C336.000000,621.000000 335.500000,621.000000 335.250000,621.000000  z"
   id="path35" />
<path
   fill="#FF00D2"
   opacity="1.000000"
   stroke="none"
   d=" M409.010651,446.833344   C402.541382,443.963928 396.203339,440.733734 389.568237,438.320221   C382.001892,435.567993 374.241272,433.244141 366.408203,431.400757   C364.289276,430.902100 361.602661,432.815552 357.961334,434.025726   C360.899658,408.086212 363.820709,382.298981 366.831543,355.719299   C380.097870,361.838837 390.768829,369.128815 398.223877,381.248718   C405.241882,392.658112 410.253082,404.724274 411.579132,417.782806   C412.492310,426.775909 410.623474,436.051453 409.758148,445.723755   C409.319031,446.416321 409.149841,446.611847 409.010651,446.833344  z"
   id="path37" />
<path
   fill="#FF00D2"
   opacity="1.000000"
   stroke="none"
   d=" M375.166656,531.010681   C368.150909,518.745056 356.672150,512.246460 344.023682,506.738983   C342.909149,508.368073 341.876251,509.877838 340.843384,511.387573   C340.349213,511.337463 339.855072,511.287323 339.360931,511.237183   C339.360931,509.547913 338.986053,507.755524 339.418091,506.185089   C344.553009,487.520264 349.794769,468.884735 355.063995,450.257233   C355.391174,449.100525 356.181671,448.074890 357.320404,445.922729   C363.059326,454.457123 369.052582,461.814880 373.290100,470.073547   C378.338501,479.912659 380.875244,490.769684 380.985565,501.991943   C381.060883,509.649750 381.187469,517.315918 380.900513,524.963745   C380.796417,527.738098 381.395050,531.576111 376.264923,531.749084   C375.583771,531.318970 375.388214,531.149780 375.166656,531.010681  z"
   id="path39" />
<path
   fill="#FF00D2"
   opacity="1.000000"
   stroke="none"
   d=" M341.117340,513.039917   C341.117340,518.151428 341.117340,523.262939 341.117340,528.477844   C337.934540,527.756531 337.934540,527.756531 338.461853,513.457886   C339.642029,513.015564 340.379700,513.027771 341.117340,513.039917  z"
   id="path41" />
<path
   fill="#FF00D2"
   opacity="1.000000"
   stroke="none"
   d=" M284.308167,78.983505   C286.065704,79.671783 287.281433,80.306709 288.707092,81.051292   C285.287476,83.676659 282.461914,83.074554 278.863007,78.258904   C280.497467,78.482651 282.131897,78.706390 284.308167,78.983505  z"
   id="path43" />
<path
   fill="#FF00D2"
   opacity="1.000000"
   stroke="none"
   d=" M370.804138,354.296265   C369.788544,355.632080 368.928619,356.401093 368.068726,357.170105   C367.716339,356.157654 366.942261,355.072113 367.102325,354.148468   C367.403870,352.408508 368.243927,350.761841 368.860077,349.076355   C369.384705,349.153198 369.909332,349.230042 370.433990,349.306854   C370.609253,350.781036 370.784515,352.255219 370.804138,354.296265  z"
   id="path45" />
<path
   fill="#FF00D2"
   opacity="1.000000"
   stroke="none"
   d=" M360.901001,437.871033   C359.922852,439.339935 359.018188,440.106262 358.113556,440.872589   C357.597137,440.580811 357.080750,440.289032 356.564362,439.997253   C357.471558,437.950928 358.378754,435.904633 359.285950,433.858337   C359.848785,434.961700 360.411652,436.065094 360.901001,437.871033  z"
   id="path47" />
<path
   fill="#FF00D2"
   opacity="1.000000"
   stroke="none"
   d=" M356.734833,441.524323   C358.029297,440.979797 358.937775,441.075928 359.846252,441.172058   C359.374298,443.157745 358.902313,445.143494 358.430328,447.129211   C357.736511,447.043335 357.042664,446.957489 356.348846,446.871613   C356.348846,445.302734 356.348846,443.733856 356.734833,441.524323  z"
   id="path49" />
<path
   fill="#FF00D2"
   opacity="1.000000"
   stroke="none"
   d=" M368.122131,346.684570   C368.582794,344.497589 369.125336,342.994293 369.667908,341.490967   C370.333008,341.626709 370.998108,341.762421 371.663208,341.898132   C371.428436,343.570251 371.367126,345.300293 370.841248,346.875183   C370.703674,347.287109 369.122314,347.216949 368.122131,346.684570  z"
   id="path51" />
<path
   fill="#FF00D2"
   opacity="1.000000"
   stroke="none"
   d=" M341.510559,512.723022   C340.379700,513.027771 339.642029,513.015564 338.535522,513.001831   C338.700745,511.487213 339.234802,509.974091 339.768829,508.460968   C340.303497,508.522461 340.838165,508.583923 341.372833,508.645416   C341.549835,509.898987 341.726807,511.152557 341.510559,512.723022  z"
   id="path53" />
<path
   fill="#FF00D2"
   opacity="1.000000"
   stroke="none"
   d=" M409.271118,446.872192   C409.149841,446.611847 409.319031,446.416321 409.675781,446.132629   C409.732758,446.316040 409.632202,446.613556 409.271118,446.872192  z"
   id="path55" />
<path
   fill="#FF00D2"
   opacity="1.000000"
   stroke="none"
   d=" M340.271118,37.872196   C340.149811,37.611813 340.319000,37.416283 340.675781,37.132675   C340.732758,37.316086 340.632202,37.613571 340.271118,37.872196  z"
   id="path57" />
<path
   fill="#FF00D2"
   opacity="1.000000"
   stroke="none"
   d=" M340.872192,33.728737   C340.611816,33.850124 340.416260,33.680977 340.132629,33.324226   C340.316040,33.267197 340.613525,33.367729 340.872192,33.728737  z"
   id="path59" />
<path
   fill="#FF00D2"
   opacity="1.000000"
   stroke="none"
   d=" M375.127808,531.271179   C375.388214,531.149780 375.583771,531.318970 375.867432,531.675781   C375.683990,531.732849 375.386475,531.632263 375.127808,531.271179  z"
   id="path61" />
<path
   fill="#FF00D2"
   opacity="1.000000"
   stroke="none"
   d=" M344.127808,597.271240   C344.388214,597.149780 344.583771,597.318970 344.867432,597.675842   C344.683990,597.732849 344.386475,597.632263 344.127808,597.271240  z"
   id="path63" />
</svg>
