<?xml version="1.0" encoding="UTF-8" standalone="no"?>
<svg
   version="1.1"
   id="Layer_1"
   x="0px"
   y="0px"
   width="100%"
   viewBox="0 0 405 91"
   enable-background="new 0 0 405 91"
   xml:space="preserve"
   sodipodi:docname="PhilTeeth.svg"
   inkscape:version="1.2.2 (b0a84865, 2022-12-01)"
   xmlns:inkscape="http://www.inkscape.org/namespaces/inkscape"
   xmlns:sodipodi="http://sodipodi.sourceforge.net/DTD/sodipodi-0.dtd"
   xmlns="http://www.w3.org/2000/svg"
   xmlns:svg="http://www.w3.org/2000/svg"><defs
   id="defs22" /><sodipodi:namedview
   id="namedview20"
   pagecolor="#ffffff"
   bordercolor="#000000"
   borderopacity="0.25"
   inkscape:showpageshadow="2"
   inkscape:pageopacity="0.0"
   inkscape:pagecheckerboard="0"
   inkscape:deskcolor="#d1d1d1"
   showgrid="false"
   inkscape:zoom="2.5934066"
   inkscape:cx="102.375"
   inkscape:cy="14.652542"
   inkscape:window-width="1309"
   inkscape:window-height="456"
   inkscape:window-x="0"
   inkscape:window-y="156"
   inkscape:window-maximized="0"
   inkscape:current-layer="Layer_1" />


<path
   fill="#FF0000"
   opacity="1.000000"
   stroke="none"
   d=" M48.531342,1.000000   C49.449879,1.662641 49.759060,2.707803 50.370010,2.932522   C70.802246,10.447916 91.077522,18.465107 111.795082,25.099403   C122.869301,28.645653 134.641602,30.319532 146.227661,31.885414   C162.306915,34.058563 178.474960,35.853188 194.664047,36.864159   C214.307388,38.090836 234.040665,37.894363 253.679626,39.168072   C265.036011,39.904606 276.346863,41.982346 287.563660,44.071587   C301.792694,46.721882 315.945892,49.820328 330.054016,53.063942   C339.387177,55.209740 348.566772,58.016003 357.850983,60.386166   C360.844421,61.150352 363.934479,61.748722 367.010376,61.939835   C379.688751,62.727581 392.378632,63.329662 405.532166,64.000000   C406.000000,65.388893 406.000000,66.777779 405.782837,68.241608   C402.518097,71.238358 399.472473,74.162201 396.422516,77.081558   C390.342438,82.901299 387.952576,82.752045 382.754211,76.215775   C382.453369,75.837532 382.251892,75.381203 381.994995,74.966927   C380.527039,72.599739 379.462341,72.066406 377.452240,74.874214   C373.563690,80.305939 369.145111,85.357391 364.994751,90.604820   C364.769104,90.890053 364.988007,91.526848 365.000000,92.000000   C363.933319,92.000000 362.866669,92.000000 361.400024,92.000000   C358.440125,84.381439 355.880219,76.762886 353.207672,68.809105   C349.048126,71.596176 345.034698,74.334908 340.971069,76.997032   C334.204681,81.429741 331.941711,80.843384 327.927368,73.531540   C326.037354,70.088997 324.222046,66.596901 322.564941,63.037846   C321.329895,60.385326 319.999756,60.460640 318.134094,62.344433   C312.927643,67.601547 307.561188,72.706032 302.494171,78.093002   C299.864258,80.888969 297.734009,84.154900 294.991486,87.709496   C290.467743,75.063019 286.238525,63.198597 281.965332,51.350033   C281.468536,49.972549 281.043457,48.264553 280.003845,47.480637   C279.119110,46.813499 276.628662,46.679077 276.161652,47.298656   C270.778381,54.440567 265.642029,61.768745 260.447723,69.052864   C257.618866,73.019897 254.804611,76.997375 251.216980,82.050041   C247.199081,69.505676 243.573059,58.184750 239.827881,46.491829   C237.572418,47.969643 236.020432,48.853596 234.616653,49.930721   C230.045593,53.438194 228.025360,53.034473 225.426239,47.891106   C224.635742,46.326828 224.011963,44.678303 223.089355,42.556767   C218.491104,45.774097 214.043182,48.886250 209.241455,52.245945   C207.673340,50.000820 206.174713,48.242489 205.107712,46.252708   C202.254807,40.932541 197.483109,40.261066 192.957657,44.488411   C185.398529,51.549591 182.627167,60.934395 179.970016,70.424309   C179.532104,71.988297 178.692703,73.439873 178.038849,74.943398   C177.585312,74.876900 177.131775,74.810410 176.678223,74.743919   C176.117874,71.274239 175.980438,67.667427 174.909210,64.363380   C172.670593,57.458683 170.995987,50.028114 167.137070,44.080441   C162.535751,36.988586 156.976212,37.905159 151.994873,44.939129   C150.102707,47.610977 148.106400,50.218342 146.009033,52.731125   C145.152054,53.757862 143.901276,54.455914 141.870239,56.062294   C140.064407,49.893768 138.643677,44.620571 136.932220,39.443485   C136.399841,37.833076 134.903351,35.163937 134.154266,35.264267   C132.018906,35.550282 128.999939,36.492962 128.194366,38.107922   C125.668961,43.170689 123.977943,48.652649 122.010422,53.989449   C121.032631,56.641640 120.156906,59.331463 119.235016,62.004265   C118.711746,61.994362 118.188477,61.984463 117.665199,61.974560   C114.106636,51.586060 110.635475,41.165993 106.905647,30.839346   C106.264870,29.065241 104.772377,26.750586 103.232773,26.340805   C100.690666,25.664194 96.559380,25.222181 95.269051,26.647234   C91.297157,31.033855 88.339981,36.342560 85.025238,41.317440   C84.513329,42.085728 84.194572,42.982719 82.495209,43.926594   C80.794052,35.757542 79.092903,27.588488 77.272385,18.846245   C68.638565,22.155979 66.136810,29.568506 64.344894,39.556194   C61.345692,35.116482 58.932304,31.854280 56.862396,28.387024   C55.026264,25.311354 53.853630,21.388512 48.999077,25.851259   C47.183449,22.196854 45.699371,19.209772 43.526466,14.836258   C41.090237,17.994501 38.839123,20.726002 36.800468,23.607801   C34.735828,26.526337 32.881306,29.593515 29.422354,33.002167   C27.970051,28.494196 26.517746,23.986227 24.640604,18.159552   C20.766148,23.413191 17.103235,28.379984 13.257911,33.594120   C7.818147,29.070095 9.271873,22.343325 8.915956,16.160683   C8.364609,15.956463 7.813263,15.752244 7.261917,15.548024   C5.432792,19.355093 3.603667,23.162161 1.387271,26.984615   C1.000000,19.645748 1.000000,12.291496 1.394455,4.702578   C3.248216,4.307955 4.791609,4.395010 6.148162,3.933213   C8.493195,3.134919 10.722276,1.996014 13.000000,1.000000   C24.687561,1.000000 36.375122,1.000000 48.531342,1.000000  z"
   id="path13" />


</svg>
