<?xml version="1.0" encoding="UTF-8" standalone="no"?>
<svg
   version="1.1"
   id="Layer_1"
   x="0px"
   y="0px"
   width="100%"
   viewBox="0 0 767 818"
   enable-background="new 0 0 767 818"
   xml:space="preserve"
   sodipodi:docname="Phil.svg"
   inkscape:version="1.2.2 (b0a84865, 2022-12-01)"
   xmlns:inkscape="http://www.inkscape.org/namespaces/inkscape"
   xmlns:sodipodi="http://sodipodi.sourceforge.net/DTD/sodipodi-0.dtd"
   xmlns="http://www.w3.org/2000/svg"
   xmlns:svg="http://www.w3.org/2000/svg"><defs
   id="defs24" /><sodipodi:namedview
   id="namedview22"
   pagecolor="#ffffff"
   bordercolor="#000000"
   borderopacity="0.25"
   inkscape:showpageshadow="2"
   inkscape:pageopacity="0.0"
   inkscape:pagecheckerboard="0"
   inkscape:deskcolor="#d1d1d1"
   showgrid="false"
   inkscape:zoom="0.28850856"
   inkscape:cx="313.6822"
   inkscape:cy="409"
   inkscape:window-width="1309"
   inkscape:window-height="456"
   inkscape:window-x="0"
   inkscape:window-y="156"
   inkscape:window-maximized="0"
   inkscape:current-layer="Layer_1" />
<path
   fill="#52833A"
   opacity="1.000000"
   stroke="none"
   d=" M455.000000,0.999998   C457.700012,1.000000 460.400024,1.000000 463.434448,1.354979   C468.216309,6.579643 474.199738,7.380317 480.115997,6.889627   C493.520111,5.777905 504.510040,10.769572 514.608398,18.912270   C515.875977,19.934399 518.158508,20.221790 519.886780,20.042000   C523.742737,19.640871 527.521973,18.539906 531.374390,18.061497   C542.448486,16.686291 553.534180,15.383134 564.640686,14.315083   C566.188904,14.166199 568.086243,15.212803 569.458984,16.207129   C571.938110,18.002819 574.001770,20.373589 576.486389,22.160023   C589.155212,31.268904 603.402771,38.490753 611.737244,51.933849   C622.958923,51.283581 633.979980,49.203152 644.651917,50.355431   C661.802979,52.207283 678.455139,56.986366 694.585571,63.567009   C700.029236,65.787804 701.251282,68.980721 700.983337,73.844437   C700.459229,83.357521 699.842163,92.865479 699.341675,101.091759   C701.249268,103.632828 703.096863,105.621407 704.382568,107.923782   C706.063843,110.934685 706.842224,114.534569 708.859680,117.248840   C710.826050,119.894447 713.517761,122.636421 716.490845,123.789528   C730.291748,129.142014 744.314697,133.919830 758.211731,139.029663   C759.430664,139.477829 761.038086,140.720306 761.218872,141.802124   C761.819031,145.393631 761.459106,149.158401 762.170288,152.716187   C764.532532,164.533813 764.662842,176.348495 763.019348,188.244232   C761.398438,199.976562 760.124878,211.763306 758.215393,223.447174   C756.893860,231.533340 761.375061,242.240814 768.000000,245.000000   C768.000000,252.687576 768.000000,260.375153 767.575195,268.503967   C766.819153,272.922211 766.440796,276.896912 766.240417,280.880524   C766.223145,281.223328 767.385620,281.625427 768.000000,282.000000   C768.000000,294.354218 768.000000,306.708466 767.588379,319.596222   C766.784790,321.612915 766.199341,323.075287 766.037415,324.583130   C765.560913,329.019409 765.427307,333.496674 764.846985,337.916840   C762.638855,354.735291 760.283203,371.534241 758.029968,388.346832   C755.950623,403.861450 754.768372,419.553436 751.671509,434.859863   C747.924377,453.379761 742.589966,471.579071 737.920959,489.911621   C735.976196,497.547699 733.234192,505.069092 732.183655,512.822693   C730.787964,523.123230 730.404419,533.591431 730.101135,544.002625   C729.580078,561.889832 724.444397,578.680725 719.162720,595.554932   C716.876099,602.860413 715.300049,610.709290 715.275146,618.317566   C715.246277,627.139343 717.352051,635.959045 718.391724,644.796082   C719.354858,652.983643 720.261902,661.183472 720.868408,669.401794   C720.969360,670.769653 719.771851,672.933716 718.558655,673.587524   C708.688843,678.906738 698.301147,683.349060 688.769897,689.197021   C659.684021,707.042786 630.464233,724.734253 602.162415,743.773010   C581.018921,757.996521 560.010742,771.928345 536.030518,781.147705   C512.373108,790.242920 489.987793,802.624878 465.067871,808.473694   C453.076294,811.288086 441.096039,814.151917 429.135468,817.094360   C428.316895,817.295715 427.706940,818.345032 427.000000,819.000000   C417.979095,819.000000 408.958221,819.000000 399.574341,818.638428   C397.986023,817.520203 396.842041,816.554504 395.522125,816.040955   C386.411896,812.496033 381.914001,806.120911 382.045654,796.329163   C382.089813,793.043335 382.390289,789.708801 383.046234,786.492920   C385.144836,776.204407 386.874176,765.785522 389.856415,755.746887   C393.218994,744.427917 398.211456,733.599182 401.721924,722.316589   C406.110565,708.211731 408.477264,693.854614 406.215851,678.853210   C404.990112,670.722351 405.143280,662.241211 410.501923,654.975769   C417.825287,645.046570 425.153076,635.119263 432.339935,625.091553   C434.344818,622.294189 437.337830,619.134949 437.316833,616.159790   C437.257904,607.796326 435.898865,599.438660 434.988861,591.085632   C434.078918,582.733032 433.105469,574.387268 432.135101,566.041382   C431.106903,557.198303 430.282349,548.323059 428.940582,539.527222   C427.556213,530.452332 426.428711,521.219116 423.752045,512.496033   C421.354187,504.681549 417.725372,496.935699 410.966980,491.586426   C386.033081,471.851257 356.855713,468.212585 326.492432,470.212921   C313.360809,471.078033 300.301208,474.652161 287.125824,471.855469   C280.615692,470.473511 273.549500,468.885437 268.253998,465.205017   C257.755249,457.908234 248.527496,448.814484 238.383621,440.968719   C218.714355,425.755585 199.068680,410.540771 177.639038,397.714722   C150.632095,381.550598 121.120193,374.936981 90.269524,371.764343   C78.775444,370.582306 66.980774,368.116791 56.337276,363.759399   C35.192348,355.102783 21.893394,338.361237 13.884096,317.140930   C9.526568,305.595825 7.503617,293.918304 10.062229,281.712982   C12.119771,271.897919 11.354694,262.235413 7.945381,252.937302   C6.277172,248.387665 3.354755,244.297897 1.000001,240.000000   C1.000000,232.312424 1.000000,224.624832 1.372537,216.425293   C2.508763,214.367966 3.285371,212.828827 4.033756,211.276077   C6.462065,206.237885 8.504894,200.969070 11.374995,196.197372   C18.844759,183.778473 26.476723,171.445541 34.456387,159.350403   C37.862034,154.188293 41.518795,148.571716 46.452152,145.191177   C52.940605,140.745010 60.509144,137.149002 68.127861,135.221161   C87.238235,130.385452 106.706917,126.986313 125.904663,122.470154   C150.303375,116.730492 174.131409,109.100349 196.894669,98.490242   C207.061401,93.751465 217.952042,90.534882 225.244812,80.561325   C233.241486,69.625168 239.934189,58.327358 242.995728,45.072643   C243.549881,42.673523 243.685333,40.179661 244.198486,37.768787   C247.334549,23.034670 256.588257,17.100336 271.736084,21.579964   C281.135376,24.359587 290.084961,28.837341 298.989380,33.072254   C313.219391,39.839989 317.353180,38.275143 323.053162,23.361834   C325.970337,15.729280 331.530701,10.441513 339.557922,9.219060   C349.310547,7.733840 358.572845,9.618322 366.712006,15.969630   C368.348724,17.246826 371.619568,17.550173 373.705688,16.905960   C378.560394,15.406796 383.186279,13.132109 387.844177,11.036715   C401.404694,4.936409 415.341980,2.416195 430.285980,4.714849   C437.340393,5.799940 444.697205,5.132974 451.898071,4.821986   C452.985046,4.775043 453.968597,2.333745 455.000000,0.999998  z"
   id="path9" />




<path
   fill="#000000"
   opacity="1.000000"
   stroke="none"
   d=" M768.000000,281.536804   C767.385620,281.625427 766.223145,281.223328 766.240417,280.880524   C766.440796,276.896912 766.819153,272.922211 767.575195,268.972595   C768.000000,273.024536 768.000000,277.049103 768.000000,281.536804  z"
   id="path19" />
</svg>
