<?xml version="1.0" encoding="UTF-8" standalone="no"?>
<svg
   version="1.1"
   id="Layer_1"
   x="0px"
   y="0px"
   width="100%"
   viewBox="0 0 396 717"
   enable-background="new 0 0 396 717"
   xml:space="preserve"
   sodipodi:docname="PhilNeck.svg"
   inkscape:version="1.2.2 (b0a84865, 2022-12-01)"
   xmlns:inkscape="http://www.inkscape.org/namespaces/inkscape"
   xmlns:sodipodi="http://sodipodi.sourceforge.net/DTD/sodipodi-0.dtd"
   xmlns="http://www.w3.org/2000/svg"
   xmlns:svg="http://www.w3.org/2000/svg"><defs
   id="defs22" /><sodipodi:namedview
   id="namedview20"
   pagecolor="#ffffff"
   bordercolor="#000000"
   borderopacity="0.25"
   inkscape:showpageshadow="2"
   inkscape:pageopacity="0.0"
   inkscape:pagecheckerboard="0"
   inkscape:deskcolor="#d1d1d1"
   showgrid="false"
   inkscape:zoom="0.32914923"
   inkscape:cx="135.19703"
   inkscape:cy="358.5"
   inkscape:window-width="1309"
   inkscape:window-height="456"
   inkscape:window-x="0"
   inkscape:window-y="156"
   inkscape:window-maximized="0"
   inkscape:current-layer="Layer_1" />
<path
   fill="#BA00FF"
   opacity="1.000000"
   stroke="none"
   d=" M67.000000,718.000000   C52.645771,718.000000 38.291542,718.000000 23.462793,717.627197   C21.459969,716.189331 19.757614,715.303589 18.438051,714.023254   C15.260072,710.939697 10.819168,708.157532 9.539298,704.360107   C7.764675,699.094604 7.137952,692.739746 8.281009,687.329041   C11.351832,672.793152 15.052323,658.329041 19.561501,644.173645   C25.376343,625.919373 31.283115,607.844910 30.090935,588.286194   C29.823427,583.897583 30.377192,579.386230 31.102087,575.022644   C33.941402,557.931152 42.335953,543.409790 52.665085,529.882324   C57.028156,524.168213 61.925484,518.382324 61.790318,511.010773   C61.623180,501.895935 59.931549,492.807953 58.878216,483.710724   C57.261265,469.745850 55.794884,455.760651 53.939850,441.827301   C52.740486,432.818787 52.287319,423.396851 49.186466,415.016113   C40.843811,392.468170 23.170710,379.509125 1.000000,372.000000   C1.000000,370.933319 1.000000,369.866669 1.435904,368.399994   C5.251997,368.502167 8.675829,368.806152 12.005166,369.539246   C31.048559,373.732513 50.358631,376.522736 69.786911,376.783081   C91.121857,377.068970 112.542397,376.444366 133.804489,374.721497   C147.459412,373.615021 161.135849,370.667572 174.360840,366.966614   C187.071411,363.409607 199.071091,357.382996 211.658936,353.289703   C218.989120,350.906097 226.003525,348.372833 232.012909,343.480255   C237.208984,339.249786 242.318741,334.908020 247.614807,330.806763   C260.295502,320.986847 270.799927,309.324768 277.986145,294.911957   C286.834473,277.165680 291.179199,258.118073 294.070038,238.629623   C295.138306,231.428055 297.881165,224.989212 304.494629,220.697708   C306.717896,219.255035 308.560303,216.768723 309.811768,214.361664   C316.372314,201.743317 317.421021,187.703262 320.155823,174.050934   C322.369873,162.998520 325.362213,152.009857 329.115784,141.383743   C332.932495,130.578812 338.633636,120.441956 342.495087,109.649567   C345.087067,102.405289 345.300140,94.331039 347.675171,86.982887   C351.047699,76.548592 355.514496,66.472229 359.354004,56.183319   C362.591980,47.506252 361.552673,44.358864 352.217010,39.260647   C346.651489,36.221317 340.177795,33.896999 333.913757,33.285461   C321.520142,32.075508 317.791443,19.504320 321.029694,10.107606   C322.140686,6.883662 324.312714,4.025352 326.000000,0.999999   C328.041656,1.000000 330.083344,1.000000 332.210938,1.292398   C335.309235,13.435371 342.440582,22.124601 353.606934,26.729288   C363.428711,30.779497 373.753418,33.603230 383.827057,37.053188   C387.266357,38.231056 390.354309,40.086781 390.913544,44.075592   C391.482330,48.132694 391.872559,52.241123 391.953583,56.334743   C392.111786,64.328545 392.256653,72.338249 391.927979,80.321648   C391.597473,88.349869 390.812500,96.367249 389.991364,104.365227   C389.141541,112.642784 387.571533,120.868027 387.130249,129.159454   C386.734833,136.588531 391.397583,141.731018 397.000000,146.000000   C397.000000,166.687561 397.000000,187.375122 396.566650,208.549164   C395.755554,210.315384 395.168671,211.573654 395.034668,212.878418   C394.281189,220.216690 393.758575,227.579926 392.930420,234.909027   C391.022827,251.791840 389.009949,268.662933 386.987701,285.532532   C386.152588,292.498871 385.165680,299.446899 384.280426,306.407410   C383.169373,315.143158 382.123718,323.887299 380.987885,332.619781   C380.294006,337.954834 379.991638,343.408417 378.631256,348.576569   C374.436798,364.511597 369.672668,380.296112 365.419006,396.216339   C362.852356,405.822540 360.459198,415.407990 360.800201,425.627441   C361.054810,433.257568 360.268616,441.128448 358.565704,448.576508   C354.603638,465.905182 349.759430,483.030823 345.366821,500.262756   C342.451843,511.697968 342.131195,523.171204 344.883179,534.742004   C346.794067,542.776367 348.306305,550.906677 349.942535,559.005005   C351.519897,566.812256 347.899719,573.229614 340.481110,576.219666   C336.132141,577.972412 331.646362,579.555054 327.611481,581.887695   C312.043365,590.888123 296.362976,599.740479 281.235229,609.444214   C264.986420,619.867004 249.524292,631.512817 233.321381,642.011414   C219.458405,650.993896 205.354980,659.717590 190.762650,667.429504   C177.189468,674.602844 162.861679,680.359558 148.806549,686.605957   C139.202225,690.874207 129.680679,695.434570 119.793770,698.937561   C102.609566,705.026062 85.167755,710.386719 67.860550,716.132629   C67.416031,716.280212 67.279930,717.356689 67.000000,718.000000  z"
   id="path9" />




</svg>
