<svg xmlns="http://www.w3.org/2000/svg" viewBox="0 0 382 382"><g fill="none" stroke="gray" stroke-width="2"><path d="M188.45 76.04q.46 1.22 1.27 2.22.21.27.1.59-.05.15-.21.22-.36.16-.28.54 1.04 5.08.94 9.81-.05 2.44 1.24.37 1.36-2.18 2.35-4.55a2.53 2.53 0 0 0-.65-2.86l-2.33-2.08q-.6-.54.19-.68.2-.03.4.01.98.21.54-.72-.22-.48.11-.82.44-.45.61.16.61 2.15 2.02 3.88a.55.54-47.9 0 0 .87-.05l1.32-1.96q.28-.42.69-.72 1.6-1.22 2.14-3.36" vector-effect="non-scaling-stroke"/><path d="M201.41 76.08q-2.95 2.59-4.59 6.24-.26.57.25.94l1.59 1.19a.86.85 44.3 0 1 .02 1.36l-1.45 1.14q-.49.39-.28.98.15.4-.07.78-.39.67-.6-.07-.11-.39-.47-.37-.53.04-.9.41-2.09 2.12-4.34 3.6-.23.15-.39.37-.33.43.19.75.37.24.46-.2.05-.24.28-.25.54-.02.44.51-.35 1.74-1.39 2.94-.32.37-.24.86.34 2.02-.29 4.07a.79.78-68.8 0 0 .41.94q2.95 1.41 6.58 2.75.06.02.05.09l-.11.45q-.06.24-.31.19-3.3-.7-5.4-2.36a1.76 1.76 0 0 0-2.74.75l-2.45 6.38q-.15.38.16.66 1.22 1.13 2.77.72.5-.13.29-.6-1.27-2.78-.47-6.32.04-.15.19-.13l.38.04q.22.03.22.25l-.04 6.04q0 .69.69.62 1.24-.12 2.56-.59.06-.02.08.03l.1.25a.38.37 72.8 0 1-.26.5q-1.32.33-1.74 1.49-.17.49-.69.61-.42.09-.78-.04-.18-.06-.11-.23.06-.13.15-.22.58-.56-.23-.5-.68.05-1.32.12a.29.28 62.8 0 0-.16.5l.39.33q.44.38.4.96-.07.87.62 1.38.16.12.02.26v.01q-.11.1-.21-.01-.86-.99-1.83-2.06c-1.17-1.3-2.96-.94-3.76.52q-1.8 3.3-3.92 5.69-.16.17.04.31l.25.18q.1.08.14-.04.28-.88 1.11-.9.59-.01.74.56.33 1.22 1.14 2.22.41.51 1.03.28l.75-.27q1.05-.39.44.55-.25.37-.67.56a.72.71 75.1 0 0-.41.72q.17 1.76 1.77 1.82.61.02.16.42-1.26 1.13-2.1 2.61-.02.02-.04 0l-.19-.17a.27.27 0 0 1-.01-.41q.91-.82.68-1.99-.1-.54-.54-.86l-.88-.63q-2.09-1.52-.88.76.48.9.71 2.02.03.13-.1.18l-.25.09q-.29.1-.43-.17l-1.25-2.49q-.29-.58-.92-.42-4.09 1.05-7.65 3.35" vector-effect="non-scaling-stroke"/><path d="M169.3 125.59q.28-.86.67-1.26.55-.58.78.19l.44 1.48a.84.84 0 0 0 1.41.35l5.3-5.44a.57.56-45.4 0 0 0-.79l-2.83-2.88q-.44-.45-1.03-.21l-6.92 2.81M166.91 119.08q2.75-1.88 5.89-2.75.76-.22.16-.73l-1.08-.93q-.28-.23-.07-.53l.18-.23a.3.3 0 0 1 .43-.06q.96.8 1.96 1.41.85.52 1.52-.14.33-.33.13-.75-.67-1.39-.3-2.93.17-.69.44-.03.67 1.63 1 3.31.05.28.34.22l.29-.07a.41.4-19.1 0 0 .28-.56q-.68-1.53-.51-3.18c.14-1.32-.69-2.73-1.23-3.91q-.26-.57.21-1 .46-.4.46-.98 0-.86.57-.21 1.15 1.33 2.65 2.04.61.29.1.74-.54.48-.62.96" vector-effect="non-scaling-stroke"/><path d="M179.71 108.77q-.62-.04-1.17-.48-.41-.33-.61.16-.15.39-.05.8.54 2.32 1.09 4.46.15.57.72.45 2.21-.45 3.94-1.63.56-.38.02-.78l-3.94-2.98" vector-effect="non-scaling-stroke"/><path d="M179.71 108.77q.89.39 1.76.09.49-.18.9.15l1.41 1.14a.68.68 0 0 0 1.06-.29l2.55-6.79a1.04 1.02-51 0 0-.09-.91q-.52-.83.37-1.41a1.26 1.23-13.2 0 0 .54-.85l.89-6.19q.12-.89-.64-.41l-5.99 3.74q-.64.4 0 .79l3.49 2.2q.19.12.09.31l-.23.49q-.12.24-.34.1l-4.12-2.66q-.49-.32-1.01-.06-.44.21-.86.43-.9.46-.26-.32.61-.74.57-1.68-.04-.7.62-.47.14.05.29.13.56.3 1.1-.04l6.85-4.25q.48-.3.53-.87.75-8.23-2.35-15.06M165.08 109.92q.67.78 1.3.94.6.16.44-.44-.33-1.19-1.84-1.36" vector-effect="non-scaling-stroke"/><path d="m164.08 105.06 1.29-.9q.36-.25.72 0 .64.46 1.37-.05.71-.5.7.37l-.05 7.52q-.01.68.66.8l1.4.25q.88.16.22-.45l-.96-.89a1.08 1.06 22 0 1-.34-.78l.12-7.02a1.04 1.04 0 0 1 1.41-.96q3.72 1.4 4.31 5.27M174.93 108.22q-.03 1.6.45 2.01.41.36.56-.17.38-1.38-1.01-1.84" vector-effect="non-scaling-stroke"/><path d="M174.93 108.22c-.03-.84-.08-1.35.36-2.11q.85-1.48 1.54-3.09.23-.54.11-1.11-.33-1.68.85-2.62.27-.21.01-.42-1.29-1.05-.81-3.32.17-.78.73-.2.45.47 1.05.67.72.24.28-.38-.7-1.02-1.6-1.75-.47-.38-.37-.97l.77-4.41q.04-.18-.12-.27l-.23-.14q-.17-.11-.23.09l-1.15 3.75q-.09.27-.37.23-.14-.02-.23-.15-.27-.4 0-.79.46-.65.61-1.5.03-.17-.13-.24l-.41-.16q-.32-.12-.37.22-.1.73-.53 1.21-.37.42-.79.06-1.1-.96-1.71-2.2-.17-.36-.03-.73l3.46-8.98q.07-.18-.11-.26l-.39-.17q-.1-.04-.15.06-2.18 4.17-3.44 8.43-.27.9-.75.09-.1-.18-.35-.2-.7-.07-.36.55l1.03 1.86q.24.44.74.5 1.13.14 1.27 1.28.06.53.54.78.12.06.22.14.4.32.38.84l-.24 6.1q-.07 1.73-1.78 2.04-.29.05-.59.01-1.96-.31-1.76-2.28.31-3.14 1.25-6.47.08-.27-.2-.34l-.29-.07q-.25-.05-.3.19l-1.41 7.19q-.18.91-.68.13l-.54-.84q-.16-.24-.43-.16-.15.04-.18.19-.11.41.19.71.92.92 1.18 2.21.1.55-.26.98-1.53 1.83-4.22 1.57" vector-effect="non-scaling-stroke"/><path d="M162.52 98.53q.92-.7 2.71.27.63.33.71-.38.15-1.45-.76-2.43-.47-.51-.07-1.08.12-.18.07-.4-.09-.53-.51-.19l-2.77 2.34M156.24 91.23q.61-.31 1.09-.84.47-.51-.08-.94-.2-.15-.14-.4.12-.63.64-.25l.87.62q.62.44.48-.3-.37-1.97-2.06-3.13M157.04 85.99q.21-.71.96-1.42.44-.41.21-.98-.36-.89-.4-1.8-.01-.03-.03-.02l-.26.05q-.12.02-.13.14l-.25 2.16q-.14 1.22-.7.14l-2.59-4.99M157.92 79.05l1.22 3.52q.16.48.35.01l1.41-3.51M163.87 78.76q.53 2.17 2.02 3.08.48.29.36-.26-.37-1.6-1.81-3M170.6 77.89l-.26 1.31q-.15.73.44.26.7-.56.93-1.73M207.34 76.19l-3.1 3.18q-.47.48-.7-.15l-.93-2.59q-.13-.37-.5-.23l-.3.11q-.29.11-.18.4l1.17 3.12q.18.47-.17.85-.94 1.01-2.06 1.92-.78.63-.54 1.59M200.03 84.39q-.33-.08-.03.59M200 84.98q-.06.77.5 1.08 1.37.76 2.91 1.14.62.16.33.73l-2.66 5.3q-.08.16-.25.16-.14.01-.27-.03-.7-.23-.51.48.13.47.08.99-.08.83.71.55c.48-.17.79-.51.97-.98q1.16-3.11 2.8-5.84a1.52 1.52 0 0 1 2.38-.29q1.38 1.37 2.14 3.12.8 1.84 1.11-.14c.47-2.99-.09-6.8-.27-9.96q-.03-.56.46-.84l.64-.37q.57-.32-.03-.59-.34-.16-.6.09-.71.72-.78-.27-.12-1.7-1.05-2.91M228.97 84.01q.2.78.05 1.45-.11.52-.6.74l-3.33 1.5q-.43.2-.9.08-1.34-.36-2.89.27-.19.08-.24.27-.04.18.05.34a.55.55 0 0 0 .56.26q.79-.15 1.45-.57a1.43 1.4 29.9 0 1 .81-.21q2.46.13 5.08-.95.17-.07.24.09l.15.28a.52.52 0 0 1-.18.67q-5.31 3.47-8.9 6.36-.29.24-.29.61-.01.63.51.27c1.67-1.17 2.84-2.8 4.6-3.82q3.36-1.95 6.08-4.17.6-.49.81-1.59M237.77 90.38l-2.92-1.3a1.28 1.27-50.1 0 0-1.26.12q-.72.5-1.64.66-.77.14-.42.83.42.82 1.07 1.45.46.44.04.93l-1.9 2.19q-.56.64-.6-.2-.14-2.71.57-5.15.26-.88-.46-.3-1.32 1.09-2.79 2.04-.62.39-.84 1.08-.27.84.41.27l1.66-1.41q.6-.5.57.28-.07 1.68-.12 3.53c-.06 2.27-2.04 3.56-3.45 5.03q-.47.5-.6-.17-.46-2.35.61-4.37.34-.64.15-1.35-.17-.62-1.25-.54a.99.95 16.2 0 0-.65.34l-2.51 2.95q-.08.1-.08.22-.02.53.54.34.32-.1.55-.34 1.02-1.03 1.99-2.31.15-.19.34-.06l.22.15q.06.04.02.09-.81.98-.47 2.18.19.67-.17 1.27-.56.94-.17 2.06.19.56-.2 1.01l-.91 1.03q-.41.46-.9.1l-4.27-3.06a.79.78-54.2 0 0-1.09.18c-1.25 1.74-.19 3.92.73 5.59 1 1.82.54 4.19-.64 5.82q-.05.08.01.15l.23.27a.53.52 44.7 0 0 .79 0q6.13-7.08 13.81-12.5.2-.14.05-.38a.28.28 0 0 0-.36-.1l-.95.48q-.6.31-.7-.36c-.3-2.14 1.82-3.43 3.07-4.83q.37-.42.88-.2.49.2.62.74.13.48.5.15 1.56-1.37 3.83-2.13a.3.3 0 0 1 .38.22l.06.28a.39.38 71 0 1-.2.42l-3.17 1.56q-.45.22-.66.68-.48 1.07-1.76 1.54-.74.27.01.5.33.1.6-.12 2.96-2.32 5.99-4.14.38-.22.41-.67.02-.22-.01-.43" vector-effect="non-scaling-stroke"/><path d="m241.51 93.73-4.76 3.28q-.43.3-.6.79-.1.28-.08.6.03.57-.5.8c-2.7 1.17-4.38 1.4-6.18 4.44a.08.07-43.8 0 1-.13 0q-.1-.24-.35-.28-.57-.09-.72.47l-.58 2.16q-.1.36-.46.29-.21-.04-.31-.25a.48.47-23.4 0 0-.61-.24q-.85.36-1.11 1.18-.16.52-.68.69-.76.25-1.37.71-.59.45.15.44 1.01 0 1.98-.32a.09.08-9.7 0 0 .06-.08q0-.17-.09-.32a.34.33-21.4 0 1 .22-.49q.93-.2 1.63.46.46.44-.15.61-.4.11-.77-.06-.49-.22-.8.22-1.37 1.92-4.09 1.73-.72-.05-.72.67.01.52-.48.72c-2.02.84-3.94 3.63-4.84 5.48a1.63 1.63 0 0 0 1.4 2.33l5.43.24q.52.03.84-.39.47-.61 1.07-1.12.58-.49.38.24-.4 1.43-1.63 2.24a.6.6 0 0 1-.67-.01q-.89-.6-2.07-.67-2.78-.16-5.61-.47-1-.12-.3.6 1.56 1.59 3.32.96.49-.18.84.21 1.65 1.85 3.4.11.48-.48.32.18-.31 1.2-1.16 2.12-2.5 2.66-4.11 5.48-.31.53-.93.52-2.99-.03-5.71-.26-.87-.08-.85.77a.56.5 66.4 0 1-.11.33l-3.76 5.14q-.42.57.16.97 1.52 1.07 3.02 2.08 3.36 2.29-.7 2.07c-2.31-.12-6.57-.35-8.24 1.72M199.04 142.9q-1.73-1.39-3.94-.47M193.28 141.87l4.95-1.25q.51-.13.74-.6l1.41-2.86a.88.88 0 0 0-.21-1.04l-1.79-1.56q-.51-.44-1.15-.22l-3.76 1.26q-.76.26-.23-.36 1.22-1.42 3.17-1.55.75-.05.11-.45-.38-.24-.81-.12-.18.05-.32-.06-.25-.19.05-.56.21-.25.52-.36 1.19-.38 2.45.21.31.14.48-.15l.14-.24q.12-.2-.08-.32-1.12-.72-1.68-1.85-.18-.37-.49-.63-1.69-1.44-2.74-3.6-.2-.42.17-.68.25-.18.54-.08.13.06.23.17.07.07.09.17.2.8.61.09 7.4-13.03 18.03-23.54 1.32-1.3 2.79-2.6 1.42-1.25 2.54-2.82.05-.08-.02-.14l-.21-.17q-.24-.18-.45.03-1.02 1.06-2.42 1.11-.53.03-.88-.38l-3.75-4.34q-.24-.28-.4.06l-.23.47q-.09.19.05.36l4.24 4.81q.36.41 0 .81-2.12 2.43-4.59 4.57-1.56 1.36-1.3-.69l1.15-8.8a.38.38 0 0 0-.52-.4l-.39.17a.25.25 0 0 0-.15.21q-.32 3.93-.92 7.3a.8.8 0 0 1-.07.21q-.24.48-.66.56-.78.14-.16.64.14.12.25.29.22.36.12.78l-.77 3.16a.74.74 0 0 1-.87.55l-6.19-1.28q-.56-.12-.54-.68l.01-.53q.02-.79-.41-.13l-.88 1.35a.61.61 0 0 0 .49.95l3.75.1q.48.01.85.3.9.7 2.16.75.87.03.33.7l-.17.22q-.5.63-1.29.74l-7.42 1.05q-.09.01-.08.1l.05.33q.02.16.18.15l6.59-.39a.18.18 0 0 1 .16.29l-3.09 4.37q-.34.48-.67 0-.73-1.06-1.18-2.35-.28-.81-.34.04-.06.77.36 1.5.72 1.26-.67.88l-5.74-1.58q-.14-.04-.22.08-.09.13-.07.27.04.55.57.44c1.19-.24 2.42.99 3.65 1.35q1.2.34 2.39.51.55.08.45.63-.79 4.13-5.32 3.42a.89.87-12.7 0 1-.57-.35l-1.52-2.12a.08.08 0 0 0-.14.08l.95 2.37q.29.7-.47.64-.92-.07-1.59.52-.86.75.28.63l2.65-.29q.44-.05.52.39l.07.36q.07.37-.31.43-1.3.19-2.07 1.1-.25.3-.45-.03-.08-.12-.18-.21-.42-.39-.84 0-.53.48-1.23.61a1.23 1.2 14.1 0 0-.72.42l-4.58 5.48q-.35.41-.06.87l.34.55a.71.7 60 0 1-.26 1l-3.75 1.98q-.08.05-.06.13l.11.33q.1.3.4.17l1.74-.79q.71-.31 1 .4.09.22.32.35.62.35.86-.32.24-.63.2-1.34-.04-.67.37-.15.79.98 1.41 2.09.9 1.64 1.43-.13.11-.37-.32-1.34-.04-.08.04-.1l.27-.08q.29-.09.35.21.2.92 1.1 1.4.54.29.73-.3l.54-1.69q.16-.52.48-.96 1.58-2.12 2.63-4.7.2-.49-.25-.77-.8-.51-1.15-1.38-.08-.19-.02-.38.06-.18.21-.24.46-.17.73.24.52.78 1.36 1.12.85.35.54 1.22-.34.97.58 1.35.45.18.33.64-.05.19-.2.26-.38.2-.54-.2l-.14-.33a.56.56 0 0 0-1.02-.04q-2.54 5.17-5.22 10.38-.28.56-.72.26" vector-effect="non-scaling-stroke"/><path d="M187.96 140.76q0-.3-.1-.54-.2-.43-.66-.31l-.4.1M186.8 140.01q-.91-1.99-2.92-3.01-.17-.09-.3.07l-.18.23q-.35.42.19.51 1.87.34.96 1.31M178.26 135.27q.01-1.5-.48-2.13-.79-1.01.47-1.21 1.98-.33 3.11-1.63.75-.86-.31-.45l-3.92 1.51q-1.04.4-1.52-.62-.42-.9-1.24-1.27-.89-.41-.16.23 1.58 1.38.82 2.91M180.8 76.36l-2.85 10.41q-.08.3-.38.21l-.33-.1q-.29-.08-.21-.37l2.88-9.9M152.73 79.27q1.25 3.11 3.08 5.88c.32.48.74.59 1.23.84M157.04 85.99l-2.26 5.21M245.98 97.95l-.58 3.28q-.09.55-.62.73-.38.13-.61.53-.28.48.24.28 2.43-.96 2.56-4.16M253.31 103.04l-5.02-.1q-.3-.01-.27-.31l.02-.3q.01-.09.1-.1 1.29-.08 1.6-1.04.26-.77-.43-.33l-2.32 1.49q-.55.36-.01.72 2.5 1.66 5.86.88.14-.03.19.1l.09.24q.16.39-.26.44-3.61.47-6.71-1.25-.45-.26-.88.05l-6 4.33q-1.05.75.21.46c1.93-.44 3.61-2 5.11-3.32a1.05 1.02 29.2 0 1 .89-.24l6.81 1.3a.38.38 0 0 1 .3.46q-.32 1.34-1.3 1.89-.06.03-.01.07l.19.19q.22.22.43-.02l1.9-2.16q.39-.44.96-.33 3.17.57 5.75-1.07M261.41 105.1q1.2.38 1.41 1.07.16.52-.37.65-5.9 1.4-11.12 4.47-.16.09-.07.26v.01q.1.17.28.09 4.82-2.26 10.18-3.53 1.16-.27.69.82l-1.61 3.71a1.56 1.56 0 0 1-1.37.94q-4.5.21-8.4-.42a1.64 1.6 1.9 0 1-1.37-1.43q-.02-.18-.19-.15h-.02q-.19.03-.13.21.34 1 .96 1.89.34.49.93.56 4.07.44 7.94.36.25-.01.47.12.15.08.08.23-.39.75.41.49 1.93-.63 3.85-1.41.2-.08.3.1l.16.28q.04.06-.02.09-2.34 1.18-4.78 2.06-.12.05-.25.03-.16-.03-.27-.13-.23-.22-.45.01c-.9.95-1.75 1.9-2.84 2.65q-6.04 4.13-11.11 8.39c-1.46 1.23-2.63 2.74-4.05 4.07q-2.04 1.92-2.99 3.17-2.01 2.61-4.01 5.58M228.17 142.39q-3.35-1.88-2.45.41M216.47 143.81q-.63-.98-.82-2.09-.13-.72.6-.63l4.34.59q.23.03.24-.2l.02-.54q.02-.31-.29-.34l-5.73-.58q-.52-.06-.53.47-.01.88.36 1.75a.31.3-24.5 0 1-.16.41q-.34.14-.45-.1-.24-.55-.76-.26-.47.27-.57.87-.08.49.38.29.81-.36 1.17.46M210.56 143.9q.61-1.77 2.13-3.07.81-.7-.29-.9-.19-.03-.33-.15-.58-.5-.86.22l-1.47 3.88M200 84.98q-.12-.4.03-.59M230.73 85.02q.4.84 1.3.87" vector-effect="non-scaling-stroke"/><path d="M176.79 133.99q.28-.24-.17-.61-.58-.48-.87-.16M200 84.98l4.99 1.36a.33.33 0 0 0 .39-.44q-.71-1.85-1.38-3.78-.22-.64-.75-.23l-3.22 2.5M143.14 79.16q8.69 3.84 6.82 13.54" vector-effect="non-scaling-stroke"/><path d="M148.97 92.84q-1.16-.14-1.75-.94-.08-.12-.04-.26t.15-.23a.57.57 0 0 1 .77.05q.27.28.6.1.44-.24.49-.74c.64-6.52-3.3-10.31-9.24-11.53M265.98 105.29q.91 1.02 2.02.18M288.72 106.08q-.38 1.31-1.86 1.11-.24-.04-.23.2v.01q.01.24.25.22 2.14-.11 4.13-.95M303.59 116.46q-.22.26-.39.08c-1.28-1.34-3.3-2.99-4.13-4.71-.87-1.82-4.72-2.76-6.47-3.2q-2.18-.54-5.17-.01-7.85 1.39-15.49 4.97-.46.22-.87-.07-.38-.26-.82-.12-7.31 2.27-14.27 7.04-.57.4.08.65.22.08.12.28-.16.38-.49.61-2.66 1.94-5.83 3.97a.52.52 0 0 0 .1.93l.93.34M250.47 128.09q-1.73-1.61-3.78-.95-.24.08-.29.32-.1.43.31.63a5.52 4.87 61.1 0 0 .92.33q.56.15 1.06.5.79.55-.17.44l-3.16-.34q-.57-.06-.98.34l-1.95 1.89q-.76.74.28.91l4.14.65M245.74 133.87q-2.74-.95-4.88-.8-.25.01-.38.18-.25.33.14.49l3.34 1.38M243.07 135.83q-1.54-1.08-3.3-1.14-.51-.02-.88.34-3.11 3.09-.39 3.04M255.21 103.66q-.59.36-.73.77-.19.54.36.66 2.36.52 4.72-.21M137.18 98.54q-3.04-1.37-5.19-4.03-1.37-1.7-.06-2.76.54-.44-.13-.6-.35-.08-.64.13-.46.32-.69-.2-.11-.25-.01-.53.16-.46.64-.5 5.78-.46 10.59 1.09 1.96.63 4.09.72.21.01.23-.2l.03-.4a.32.31-84.2 0 0-.27-.34l-11.74-1.61a.19.18-70.5 0 1-.13-.28l4.39-7.51q.16-.27-.13-.39l-.36-.17a.43.43 0 0 0-.55.2q-1.96 3.83-4.36 7.43c-.43.65-1.26.75-1.98.7a.6.6 0 0 1-.56-.66q.59-5.96 6.16-8.31a.35.34 65.1 0 0 .17-.48l-.16-.28q-.05-.11-.16-.07-6.37 2.14-6.99 9.23a.62.62 0 0 1-.59.56l-4.5.13q-.12 0-.13.13l-.02.32q-.02.27.25.26l3.67-.03a1.94 1.94 0 0 1 1.46 3.23l-5.22 5.88q-.68.76.34.83l5.75.42M122.91 101.82q-.1-.46-.43-.47-.43-.01-.5.31M109.8 103.29l1.88-.71q.19-.08.16-.28l-.08-.49q-.06-.36-.41-.25l-3.98 1.32q-.12.03-.17-.08-.06-.13-.05-.26M107.59 100.72l.43-.08a.91.81 14.9 0 0 .38-.19l3.13-2.77q1.15-1.01 1.44.48l.11.55q.18.92.73.17.57-.77.32-1.85a1.12 1.1-28.6 0 1 .32-1.05l4.44-4.15a.57.57 0 0 0-.27-.97q-1.9-.42-3.9.05-.42.1-.54-.31-.04-.17-.16-.29-.37-.37-.71.03-.98 1.15-2.8 1.11M112.49 87.47q.15.94.53 1.34a.51.5 32.9 0 0 .85-.18q.26-.75-.74-2.03" vector-effect="non-scaling-stroke"/><path d="M249.74 129.23q-.62-.14-.39.46M303.81 118.02q-4.96-.54-9.26-.11-1.83.19-.1.84 2.82 1.06 5.8 2.75.51.29.76.86.36.85-.44.4-3.14-1.77-6.47-3.02-1.96-.73-.7.94 1.12 1.48 2.61 2.76.33.28.04.6l-.18.21q-.14.17-.31.02l-4.05-3.79q-.15-.14-.26.04-.07.11 0 .28.07.15.21.24.89.58.4 1.86a.48.48 0 0 1-.88.04q-.23-.45-.14-.95.18-.98-.28-.1-.39.76-.6 1.59M288.98 123.41l1.31-3.69a.86.86 0 0 0-.62-1.13l-.47-.1q-.78-.18-1.09.56-.87 2.12-1.03 4.55M285.89 123.65l.98-4.12q.22-.92-.46-.25-.69.68-1.63.79a1.55 1.54-77.9 0 0-1.14.74q-.76 1.32-2.23 1.23a1.34 1.33 22.9 0 0-1.07.43q-.41.45-.95.56-.59.12-.16-.29.57-.55 1.29-.86.54-.24.88-.72l.41-.58q.49-.69-.31-.4-3.35 1.2-4.29 4.51M264.04 126.33q.29 0 .35-.32a.92.92 0 0 0-.57-1.04q-.8-.32-1.2 1.09M287.47 105.71l-9.35-.53M139.57 79.24q-1.55.72-2.65.05M107.88 99.77l4.84-3.74q.41-.31.41-.83l-.02-2.51q0-.69-.66-.51-1.2.32-2.22.09M135.76 98.91q-3.14-1.52-5.02-4.47-.36-.56-.8-.06l-3.8 4.28q-.43.48.22.51l7.16.36M302.89 122.91q-.29-.06-.66.09-.52.21-.18.66.2.26.75.46M298.01 125.95q-.18-.68-.77-1.06-.35-.23-.56.13-.07.12-.12.3M197.33 84.57q-.54-.31-1.1-.4-.73-.13-.57.59.13.62.48 1.13.31.45.78.16.38-.24.62-.59a.63.61-58.9 0 0-.21-.89M193.92 88.42q1.01-.85 1.23-1.78.16-.66-.42-.31-.88.53-1.21 1.84-.19.75.4.25M188.74 101.87q-.82.25-.28.32.12.02.22-.05.11-.08.13-.2a.06.06 0 0 0-.07-.07M180.79 116.99l1.15-1.88q.5-.82-.41-.5l-1.53.55q-.69.25-.37.91.17.36.22.73.21 1.38.94.19M178.966 118.992a1.63.55 73.4 0 0 .061-1.72 1.63.55 73.4 0 0-.993-1.404 1.63.55 73.4 0 0-.061 1.72 1.63.55 73.4 0 0 .993 1.404M176.15 116.57q-.11.51.26.55a.38.37 11.2 0 0 .4-.26q.13-.4-.29-.51-.3-.08-.37.22M179.09 124.75q.35-.11.24-.46l-.62-2.03a.33.32-30.3 0 0-.54-.14l-3.97 3.99q-.5.51.17.28l4.72-1.64M179.92 122.7q.06.75.61 1.17a.37.37 0 0 0 .58-.39q-.17-.63-.64-1.05-.62-.56-.55.27M220.53 86.81l4.74-4.57a.16.16 0 0 0 0-.23l-.1-.1a3.14.88-44 0 0-2.87 1.55l-.44.43a3.14.88-44 0 0-1.65 2.82l.1.1a.16.16 0 0 0 .22 0M213.843 88.72a1.65.51 5.2 0 0-1.597-.658 1.65.51 5.2 0 0-1.69.359 1.65.51 5.2 0 0 1.598.657 1.65.51 5.2 0 0 1.69-.359M217.63 89.83l-1.6 5.22q-.03.11.08.14l.29.1a.38.37-69.9 0 0 .48-.23l2.35-6.33a.51.51 0 0 0-.47-.69q-2.08-.03-3.87.7-.72.3.05.47 1.03.22 2.05-.04.91-.24.64.66M232.42 88.78q.28-.1.54-.21a.25.25 0 0 0-.05-.48q-.68-.14-1.28.14-.44.21-.03.47.36.24.82.08M199.03 92.532a1.41.47 69.7 0 0-.05-1.485 1.41.47 69.7 0 0-.93-1.16 1.41.47 69.7 0 0 .05 1.486 1.41.47 69.7 0 0 .93 1.16M202.33 97.05q.29.55.69.94.37.35.33-.16-.07-.81-.76-1.08-.52-.2-.26.3M198.94 103.57q1.17-2.98 1.8-6.19.03-.15-.11-.22-.05-.02-.11-.01-.28.01-.38.26-1.26 3.25-1.28 6.43a.01.01 0 0 0 .02 0q.01-.14.06-.27M206.014 101.45a1.75.5 54.2 0 0-.619-1.713 1.75.5 54.2 0 0-1.429-1.126 1.75.5 54.2 0 0 .618 1.712 1.75.5 54.2 0 0 1.43 1.126M220.07 99.82q-.23.55.36.48.56-.07.93-.58a.36.36 0 0 0-.28-.57q-.73-.03-1.01.67M211.18 119.49q3.1-2.73 4.71-6.48.06-.13-.08-.2-.04-.02-.09-.03-.21-.03-.34.15-1.66 2.36-4.52 3.12-.28.08-.17.35l.16.38q.12.3.41.14.33-.18.7-.35.92-.42.2.29-2.09 2.07-4.41.23-.44-.35.02-.67c2.59-1.78 5.16-3.94 7.9-5.44q1.22-.67 1.16-2.45-.01-.53-.52-.4c-2.65.67-3.16-1.5-5.21-2.26q-.65-.24-.29.35.46.77 1.09 1.23.7.52-.17.54l-2.24.06q-.26.01-.26.27v.28q0 .4.41.42 2.12.09 4.16.09.22 0 .37.15.11.11.03.29-.09.2-.31.21l-6.77.42q-.11.01-.11.11v.38a.25.25 0 0 0 .24.25l5.24.07q1.21.02.23.72l-7.01 5q-1.28.91-.74-.57.78-2.14 1.84-4.67.02-.06-.03-.09l-.23-.1q-.06-.02-.09.03-1.7 2.38-2.55 4.95a.85.84 7.3 0 1-.74.57q-.45.03-.8.3-.43.33-.14.78.09.13.2.24.62.57-.16.88c-2.93 1.18-3.82 3.65-5.5 6.07a3.06 3.05 40.2 0 0 .33 3.89l2.41 2.45q.41.42.95.2 1.12-.43 2.27-.25.61.1.95-.41l1.93-2.93q.44-.67-.23-1.12-2.34-1.56-3.47-4.33-.03-.08.04-.12l.37-.23q.22-.13.36.08 2.51 3.69 5.83 6.43.1.09.17-.02l.16-.22q.16-.22-.07-.37-1.13-.8-1.77-1.8-.34-.52.09-.97 2.39-2.45 3.85-5.57.09-.19.24-.32M198.76 108.89q.08-.27-.14-.41a.18.17-73 0 0-.27.15q0 .19.17.33.18.15.24-.07M194.89 111.246a.53.37-33.7 0 0-.645-.014.53.37-33.7 0 0-.236.602.53.37-33.7 0 0 .646.014.53.37-33.7 0 0 .236-.602M190.17 120.25q.07-1.07-.32-2-.13-.31-.43-.17-.15.07-.23.19-.1.17 0 .46.26.82.81 1.56.15.2.17-.04" vector-effect="non-scaling-stroke"/><path d="M212.85 120.75q.09-.21-.02-.4-.08-.15-.24-.19-.33-.09-.43.25-.12.42.16.74.63.72.72 1.58c.17 1.66 1.97 3.75 3.01 4.94q.44.51.8-.06l1.25-1.97q.3-.47-.15-.8l-4.95-3.57a.45.45 0 0 1-.15-.52M186.7 123.72q1.2-.16 2-.96.69-.69-.28-.57-1.31.16-2 1.04-.47.6.28.49M217.2 122.17l-.12-.08q-.1-.06-.06.05.03.1.12.15.12.07.2-.03t-.04-.08q-.05.01-.1-.01M210.11 123.12c-.78.97-1.77 2.14-1.01 3.45q.32.55.7.05 1.49-1.96 1.63-2.93.38-2.68-1.32-.57M212.16 129.39a.34.34 0 0 0 .24.07l2.8-.27a.34.34 0 0 0 .25-.54l-2.84-4.05a.34.34 0 0 0-.59.05l-1.48 3.15a.34.34 0 0 0 .1.42l1.52 1.17M205.25 131.2q.99-.08 1.9-.23.94-.16.68-1.08-.16-.55-.61-.98-.64-.6-1.05.18-.46.86-1.17 1.53-.7.65.25.58M200.32 132.21q-.07.01-.1.07-.07.21.14.27.11.03.16-.08.14-.31-.2-.26M202.74 132.56q-.11.06-.19.17-.52.8.27.27.1-.07.17-.17.42-.63-.25-.27M206.36 132.8a.35.35 0 0 0-.27-.55q-2.17-.07-3.2 2.24-.07.18.09.28l1.12.72q.21.13.36-.07l1.9-2.62M201.29 134.45q.05-.14.08-.28.13-.51-.39-.43l-1.07.15q-.77.11-.16.6l.82.66q.33.27.55-.09.11-.19.12-.42.01-.1.05-.19M202.3 135.69q-1.3 2.37-1.48 2.75-1.71 3.81.88.54.67-.86 1.52-2.32a.59.58 41.8 0 0-.04-.64l-.27-.37a.37.36 41 0 0-.61.04M187.405 139.498a1.41.71 118.6 0 0 1.298-.898 1.41.71 118.6 0 0 .052-1.578 1.41.71 118.6 0 0-1.298.898 1.41.71 118.6 0 0-.052 1.578M204.51 137.71q.06.13.01-.24a.05.05 0 0 0-.1 0q-.07.39.09.24M205.05 138.9q.9.73 1.91.95.8.18.27-.44-1.63-1.89-3.73-.82-.78.4-1.15 1.22a.37.37 0 0 0 .37.52q1.49-.1 1.77-1.24.14-.54.56-.19M178.98 77.58a.09.09 0 0 0-.03-.14q-.14-.07-.3-.02-.23.07-.17.3.08.3.5-.14M177.34 79.54q0 .24.18.08.36-.3.45-.76.17-.97-.38-.15-.25.38-.25.83M170.02 81.14q-.45.58-.47 1.35-.01.59.44.21.68-.59.49-1.45-.11-.55-.46-.11M177.635 81.807a.47.47 0 0 0-.331-.577l-.058-.015a.47.47 0 0 0-.576.331l-1.605 5.947a.47.47 0 0 0 .331.577l.058.015a.47.47 0 0 0 .576-.331l1.605-5.947M168.1 84.85l-.13 2.44q-.04.59.37.17.84-.89.67-2.13-.07-.55-.5-.9-.86-.72-1.53-1.51a.03.03 0 0 0-.05 0l-.17.19v.01q-.39.55.96 1.11a.64.63 14 0 1 .38.62M166.84 90.04q.34-.06.41-.35.28-1.12-.39-.18-1.09 1.5-2.02 3.17-.04.08.03.13l.24.18q.51.39.68-.23l.65-2.37a.5.5 0 0 1 .4-.35M159.7 90.17q.82 2.25 2.54 3.81.23.21.51.07.47-.23.15-.66-1.41-1.87-2.96-3.37-.46-.45-.24.15M170.8 90.44q.07-.05-.03-.17-.07-.08-.1.02-.07.21-.03.22t.16-.07M169.29 114.52q-.03-.05-.09-.05-.12-.01-.11.11.03.38.19.15a.2.2 0 0 0 .01-.21M206.84 84.14q-.04-1.1.99-1.76a1.97 1.97 0 0 0 .91-1.92l-.33-2.53q-.15-1.18-.98-.33l-2.62 2.73q-.41.43-.19.98 1.54 3.68 4.3 7.56.35.49.33-.12l-.14-5.47q-.03-1.28-.76-.22l-.86 1.27q-.61.89-.65-.19M175.31 93.7c-.25 1.25-.44 3.73-.1 5.16q.34 1.46.58-.02.42-2.62-.08-5.14-.2-1-.4 0" vector-effect="non-scaling-stroke"/><path d="M175.476 103.82a1.66.53 88.4 0 0 .484-1.675 1.66.53 88.4 0 0-.576-1.644 1.66.53 88.4 0 0-.484 1.674 1.66.53 88.4 0 0 .576 1.644M173.3 101.4q-.34.32-.39.63-.13.81.48.25.4-.37.17-.83a.17.17 0 0 0-.26-.05M173.8 103.42q-.07-.1-.19-.1-.13.01-.1.13.03.15.18.17.3.04.11-.2M159.22 79.32q-.17.39-.07.79a.35.35 0 0 0 .65.06q.21-.48-.05-.89a.3.3 0 0 0-.53.04M121.65 88.97q.25 1.18.83.99.22-.56-.83-.99M121.65 88.97c1.12-2.86 3.58-4.77 4.96-7.47q.05-.11.02-.22-.05-.13-.2-.2-.27-.11-.44.13l-5.82 8q-.34.47.23.36.62-.12 1.25-.6M121.61 99.61q-.09-.04-.17 0-.08.03-.02.08.07.06.15.07.54.06.04-.15M113.81 100.52q-.1-.14-.27-.21-.67-.29-.58.44l.15 1.26q.06.48.51.3 2.23-.89 4.72-.96.08 0 .1-.07l.14-.39q.03-.09-.06-.09l-4.01.07q-.44.01-.7-.35M225.85 102.59q2-.94 3.14-2.71.69-1.06-.44-.49-1.92.97-3.07 2.85a1.68 1.66 4 0 1-.78.67q-.55.24-.82.77-.32.63.33.35.56-.23.87-.75a1.8 1.78 2.9 0 1 .77-.69M219.39 105.06q-.13 0-.24-.07-.35-.22-.21-.61.85-2.41-.69-3.8-1.06-.95-1 .47.09 2.5 1.2 5.28.19.48.53.08.76-.88 1.85-1.34a.99.98 83.5 0 0 .59-.75q.12-.78-.64-1.18-.52-.28-.79.25-.31.63-.34 1.42-.01.26-.26.25M219.58 107.53l.2.26q.2.27.45.05l2.77-2.47q.14-.12 0-.25l-.21-.2q-.16-.15-.32-.01l-2.87 2.44a.13.13 0 0 0-.02.18M114.09 94.17a.32.32 0 0 0 .53.25l2.94-2.62a.32.32 0 0 0-.27-.56l-2.87.52a.32.32 0 0 0-.27.31l-.06 2.1M208.51 105.56q.32-.26.29-.66-.03-.33-.31-.14-.37.25-.3.68.05.34.32.12M196.366 122.054a.88.37-25.3 0 0-.954.041.88.37-25.3 0 0-.638.711.88.37-25.3 0 0 .954-.041.88.37-25.3 0 0 .638-.711M231.28 106.87c1.26-1.28 4.39-1.84 6.07-2.78q.59-.32.69-.98l.19-1.12q.11-.66-.53-.86-.3-.08-.33-.44-.07-.64.53-.42.28.11.47.33.44.52.39-.16-.06-.81-.89-1.16-1.05-.43-2.08.08-4 1.98-6.96 6.44-.25.37.12.63l1.43 1q.42.3.75.7.6.74 1.6.87.42.06.63.43.44.82 1.24.37 1.72-.96 3-2.61.49-.62-.23-.29l-1.66.78q-.5.24-1-.01-1.54-.77-3.25-.46-.61.11-.18-.34M240.32 101.89l-.44.05q-.55.07-.38.6.06.18.23.27.4.23.81.11 1.23-.35 2.56-.92.71-.3-.01-.58l-3.04-1.19q-.11-.04-.14.07l-.09.26q-.14.4.27.53.21.07.39.21.65.5-.16.59M240.17 105.11q-.56.12-.74.67-.22.67.35.26l3.52-2.59q.65-.47-.15-.45-1.41.05-1.97 1.31-.3.66-1.01.8M236.41 109.91q-.41.08-.53.34a.33.33 0 0 0 .3.47q.36 0 .61-.25a.32.32 0 0 0-.06-.5q-.15-.09-.32-.06M244.17 112.61a.45.45 0 0 0-.299-.562l-5.18-1.594a.45.45 0 0 0-.562.298l-.018.058a.45.45 0 0 0 .298.562l5.18 1.594a.45.45 0 0 0 .563-.298l.017-.058M232.54 110.75q-.79.05-1.44.66-.54.51.2.49.87-.01 1.46-.72.38-.46-.22-.43M245.03 113.13a.15.14 48 0 0-.01.27q1.31.59 2.55-.58.68-.64-.22-.38l-2.32.69M226.82 116.93q1.62-1.94 3.35-3.59.93-.87-.25-.38-2.5 1.03-3.95 4.01-.42.85.39.36.26-.16.46-.4M248.27 113.44q-.03.07.02.13.1.12.2 0 .07-.07.01-.15-.13-.19-.23.02M223.75 115.86c-.89-.56-1.74-1.32-2.63-1.75q-.84-.4-.23.31 1.38 1.6 3.52 2.56 1 .46.26-.37-.38-.42-.92-.75M236 120.44q-.76.86-1.31 1.81-.19.32.17.43l.39.13q.19.06.28-.12c1.22-2.26 4.92-4.69 6.91-6.29q.1-.08.02-.19l-.16-.2q-.16-.19-.36-.04-2.5 1.85-5.24 3.28-.41.21-.47.67-.03.3-.23.52M233.05 119.14q.65.17 1.29.18.73.01.02-.19-1.92-.53-3.75-.21-.47.08-.89-.15-.71-.4-1.53-.41-.77-.01-.08.31 1.98.94 3.94.46a1.93 1.91 45.3 0 1 1 .01M233.87 121.992a.37.37 0 0 0-.3-.428l-7.8-1.376a.37.37 0 0 0-.429.3l-.01.06a.37.37 0 0 0 .3.428l7.8 1.376a.37.37 0 0 0 .428-.3l.01-.06M245.789 125.38a.45.45 0 0 0-.3-.562l-7.884-2.395a.45.45 0 0 0-.562.3l-.012.038a.45.45 0 0 0 .3.561l7.884 2.395a.45.45 0 0 0 .562-.3l.012-.038M222.68 128.2q-.35-.21-.77.06a.61.61 0 0 0-.28.43q-.11.88-.86 1.36-.66.43.12.56 2.66.45 5.35.02a.27.27 0 0 1 .29.18l.15.44a.42.42 0 0 0 .71.15q3.53-3.76 5.15-6.57 1.1-1.91-.49-.39-.97.94-2.21 2.15-.85.83-1.53.24-.29-.25-.65-.38l-3.81-1.38a.76.76 0 0 0-.72.11q-.6.43-.77 1.14-.14.58.38.87l.46.25q.24.13.25.4.01.17-.12.29-.3.29-.65.07M221.22 124.67l-.51 1.26q-.33.82.37.28.78-.58.5-1.53-.15-.51-.36-.01M235.85 129.65c2.29-.05 5.94-.22 7.32-2.05q.52-.67-.32-.52-4.58.8-9.19.44a1.2 1.2 0 0 0-1 .4q-.76.82-.56 1.93.1.53.58.77 1.25.62 2.83.34.15-.03.21.11l.18.38q.17.35-.22.39-2.26.23-3.93-.6-.26-.13-.38.14l-.1.23a.4.39-69.7 0 0 .24.53q2.52.79 5.53 1.34.21.04.29-.17.1-.28-.2-.32-.56-.08-.83-.56-.38-.68.37-.45 1.16.37 1.97-.22.9-.66-.22-.66-1.68 0-2.76-.9-.62-.53.19-.55M218 130.38q1.17-.1 1.77-1.14.41-.72-.39-.51-1.1.28-1.65 1.22-.27.47.27.43M230.33 129.46a.19.18-87.9 0 0 .21.23q.17-.03.21-.19.04-.21-.17-.22-.2-.01-.25.18M212.62 133.92q-.37-.05-.27-.36.55-1.74 1.98-1.04.51.25.77-.25l.13-.26a.41.41 0 0 0-.14-.53q-1.15-.76-2.08.2-.39.4-.8.02-1.06-.99-2.47-.71-.81.15-.09.57l.46.26a1.71 1.69-.5 0 1 .62.6q1.88 3.03 2.57 6.16.08.35.44.31l.26-.04a.28.27-7.5 0 0 .24-.3c-.12-1.37-.96-2.12-1.16-3.43q-.09-.57.38-.94a2.6 2.34-88.7 0 0 .46-.49q.19-.28-.04-.51-.37-.36-.65.07l-.38.57a.22.22 0 0 1-.23.1M229.44 131.12q-.89.34.01.63.19.06.35-.07.28-.23.02-.48-.17-.16-.38-.08M218.28 133.71q-.84-.65-1.1-.91-1.73-1.77-.86.55.19.5 1.96.36" vector-effect="non-scaling-stroke"/><path d="M218.28 133.71q.11 1.01.88 1.3.38.14.82.07.35-.05.47.29.24.68-.44.44-1.2-.4-2.39-.49-.85-.06-.15.43c1.39.97 4.05 1.31 4.65 2.66q.28.61.63.04l3.82-6.15q.08-.13-.05-.23l-.21-.17q-.05-.03-.11.06l-1.43 1.89a.88.88 0 0 1-1.24.17q-1.69-1.29-3.49-1.95-1.08-.39-.31.46 1.05 1.18 2.7 1.85.12.05.19.17.1.2-.08.39a.29.28 31.9 0 1-.28.06l-3.98-1.29M215.05 134.09q-.58.15-.12.54.57.47 1.31.53.42.04.39-.38l-.03-.32q-.06-.73-.78-.56l-.77.19M225.34 137.56q.18-.02.34.04.58.2.98-.27.71-.85.14-1.7-.41-.61-.84-.02l-1.39 1.91q-.35.48.24.58.34.05.3-.24-.04-.27.23-.3M233.857 138.12a.61.61 0 0 0-.506-.7l-4.78-.765a.61.61 0 0 0-.698.506l-.01.06a.61.61 0 0 0 .506.698l4.78.766a.61.61 0 0 0 .698-.506l.01-.06M232.3 139.7q1.01-.14.04-.46-1.31-.42-2.98-.13-.74.13-.03.36 1.43.45 2.97.23M222 140.67q-.64-.06-.25.45.88 1.15 2.25.8.82-.21.08-.6-.99-.54-2.08-.65M164.41 96.73q-.69-.29-.29.35.1.16.29.12.24-.05.17-.28-.04-.14-.17-.19M234.336 108.448a.37.25-31.3 0 0-.446-.022.37.25-31.3 0 0-.186.406.37.25-31.3 0 0 .446.022.37.25-31.3 0 0 .186-.406M264.55 106.78q.03-.09.05-.18.02-.08-.04-.13-.14-.13-.09.06.02.09.02.18-.04.35.06.07M268.92 111.42a.74.74 0 0 0 1.02.71l1.76-.72a.74.74 0 0 0 .43-.47l1.05-3.57a.74.74 0 0 0-.76-.94l-2.68.17a.74.74 0 0 0-.69.71l-.13 4.11M276.62 106.2a.57.57 0 0 0-.59.42l-.79 3.21a.29.29 0 0 0 .36.35q3.38-.96 6.77-1.98.37-.11.64-.39.21-.23.27-.51a.52.51-81 0 0-.46-.64l-6.2-.46M274.1 108q-.13.3-.02.63.17.5.45.06.57-.87.19-1.93-.22-.63-.5-.02-.16.35-.08.79.05.24-.04.47M263.38 112.64a.5.5 0 0 0 .54.7l3.59-.61a.5.5 0 0 0 .42-.48l.13-4.84a.5.5 0 0 0-.61-.5l-1.5.34a.5.5 0 0 0-.35.29l-2.22 5.1M263.2 110.6q.74-.82.72-1.91a.3.29-8.2 0 0-.38-.28l-.25.07q-.08.03-.08.11.02 1.66-.94 2.91-.15.21-.03.44.07.13.22.15a.26.25-76.5 0 0 .26-.17l.37-1.13a.65.5 82.5 0 1 .11-.19M273.55 110.67q.51-.39.52-.97a.27.27 0 0 0-.41-.23q-.59.37-.53 1.01a.26.26 0 0 0 .42.19M206.33 117.48q.2-.11.41-.21-.21.1-.41.21M204.65 119.326a.48.39-33.4 0 0-.615-.062.48.39-33.4 0 0-.186.59.48.39-33.4 0 0 .616.062.48.39-33.4 0 0 .186-.59M201.32 121.34a.25.25 0 0 0-.32-.31q-.33.12-.54.35-.31.34.14.38.57.06.72-.42M203 121.23a.11.11 0 0 0-.08.19l2.91 3.33q.37.42.83.09.34-.25.35-.71.04-1.48-.89-2.78-.14-.2-.39-.19l-2.73.07" vector-effect="non-scaling-stroke"/><path d="m282.78 115.78.76.24a.2.2 0 0 0 .25-.12l.04-.13a5.73.26-71.9 0 0 1.53-5.52l-.64-.22a5.73.26-71.9 0 0-2.03 5.37l-.04.12a.2.2 0 0 0 .13.26" vector-effect="non-scaling-stroke"/><path d="M281.78 115.39q1.51-1.62 1.49-3.96a.37.37 0 0 0-.72-.1l-1.46 4.85q-.13.44.29.24.39-.2.29-.6a.48.46-31.7 0 1 .11-.43M294.19 115.9q-.38 1.07.75.97 3.06-.28 6.27-.02.88.07.28-.57l-3.27-3.52q-.39-.42-.91-.19-2.3 1.05-3.12 3.33M273.34 113.61q-.45.42-.57 1.04-.09.49.31.18.6-.46.52-1.13a.15.15 0 0 0-.26-.09M267.69 115.45q0 .29.27.21.17-.04.18-.23.03-.28-.24-.24-.22.04-.21.26M270.76 115.33q-.34.2-.35.63 0 .41.35.2.46-.27.31-.71a.21.21 0 0 0-.31-.12M293.622 115.587a1.07.27-30.5 0 0-1.059.31 1.07.27-30.5 0 0-.785.776 1.07.27-30.5 0 0 1.059-.31 1.07.27-30.5 0 0 .785-.776M267.06 123.05q-.55 1.12-1.68 1.1-.47-.01-.25.41l.15.28a.14.14 0 0 0 .15.07c3.03-.46 5.91-5.77 6.96-8.34a.23.23 0 0 0-.4-.21q-.65 1.02-1.71.89-.6-.07-.91.45l-2.6 4.39q-.1.17-.27.08l-.28-.14q-.21-.11-.12-.33l1.78-4.26a.25.25 0 0 0-.2-.34l-.37-.05a.33.33 0 0 0-.34.19l-2.4 5.5q-.23.53.32.36l1.77-.53q.74-.23.4.48M290.58 116.8l.18-.38-.18.38M281.48 117.6q-.19-.01-.27-.15-.37-.67-.69.02-.35.76-.75 1.65-.25.54.25.22l1.11-.72q.36-.23.79-.18 1.09.12 1.23-1.06a.45.44 82.8 0 0-.6-.47q-.46.18-.8.58-.11.12-.27.11" vector-effect="non-scaling-stroke"/><path d="M269.59 119.11q-.16.09-.22.26-.28.89.38.23.47-.46.71-1.09.15-.38-.22-.19-.32.17-.44.54-.06.17-.21.25M169.34 120.57q-.31.95.11 1.89.34.78.46-.06.14-.93-.19-1.84-.2-.56-.38.01M205.39 122.48q-.21.09-.08.26a.27.27 0 0 0 .48-.07q.05-.17-.11-.21-.15-.03-.29.02M227.818 129.55a.41.41 0 0 0-.386-.433l-4.892-.273a.41.41 0 0 0-.433.386l-.005.1a.41.41 0 0 0 .386.432l4.893.274a.41.41 0 0 0 .432-.386l.005-.1M222.6 135.83q-.64.2-1.18.4-.09.03-.06.13.09.27.32.41a.62.62 0 0 0 .69-.02q.71-.51 1.17-1.12.3-.4-.19-.3-.51.1-.75.5" vector-effect="non-scaling-stroke"/></g><path d="M188.45 76.04q.46 1.22 1.27 2.22.21.27.1.59-.05.15-.21.22-.36.16-.28.54 1.04 5.08.94 9.81-.05 2.44 1.24.37 1.36-2.18 2.35-4.55a2.53 2.53 0 0 0-.65-2.86l-2.33-2.08q-.6-.54.19-.68.2-.03.4.01.98.21.54-.72-.22-.48.11-.82.44-.45.61.16.61 2.15 2.02 3.88a.55.54-47.9 0 0 .87-.05l1.32-1.96q.28-.42.69-.72 1.6-1.22 2.14-3.36l1.64.04q-2.95 2.59-4.59 6.24-.26.57.25.94l1.59 1.19a.86.85 44.3 0 1 .02 1.36l-1.45 1.14q-.49.39-.28.98.15.4-.07.78-.39.67-.6-.07-.11-.39-.47-.37-.53.04-.9.41-2.09 2.12-4.34 3.6-.23.15-.39.37-.33.43.19.75.37.24.46-.2.05-.24.28-.25.54-.02.44.51-.35 1.74-1.39 2.94-.32.37-.24.86.34 2.02-.29 4.07a.79.78-68.8 0 0 .41.94q2.95 1.41 6.58 2.75.06.02.05.09l-.11.45q-.06.24-.31.19-3.3-.7-5.4-2.36a1.76 1.76 0 0 0-2.74.75l-2.45 6.38q-.15.38.16.66 1.22 1.13 2.77.72.5-.13.29-.6-1.27-2.78-.47-6.32.04-.15.19-.13l.38.04q.22.03.22.25l-.04 6.04q0 .69.69.62 1.24-.12 2.56-.59.06-.02.08.03l.1.25a.38.37 72.8 0 1-.26.5q-1.32.33-1.74 1.49-.17.49-.69.61-.42.09-.78-.04-.18-.06-.11-.23.06-.13.15-.22.58-.56-.23-.5-.68.05-1.32.12a.29.28 62.8 0 0-.16.5l.39.33q.44.38.4.96-.07.87.62 1.38.16.12.02.26v.01q-.11.1-.21-.01-.86-.99-1.83-2.06c-1.17-1.3-2.96-.94-3.76.52q-1.8 3.3-3.92 5.69-.16.17.04.31l.25.18q.1.08.14-.04.28-.88 1.11-.9.59-.01.74.56.33 1.22 1.14 2.22.41.51 1.03.28l.75-.27q1.05-.39.44.55-.25.37-.67.56a.72.71 75.1 0 0-.41.72q.17 1.76 1.77 1.82.61.02.16.42-1.26 1.13-2.1 2.61-.02.02-.04 0l-.19-.17a.27.27 0 0 1-.01-.41q.91-.82.68-1.99-.1-.54-.54-.86l-.88-.63q-2.09-1.52-.88.76.48.9.71 2.02.03.13-.1.18l-.25.09q-.29.1-.43-.17l-1.25-2.49q-.29-.58-.92-.42-4.09 1.05-7.65 3.35-1.32-1.21-2.5-3.49.28-.86.67-1.26.55-.58.78.19l.44 1.48a.84.84 0 0 0 1.41.35l5.3-5.44a.57.56-45.4 0 0 0-.79l-2.83-2.88q-.44-.45-1.03-.21l-6.92 2.81q.03-.31-.21-.76 2.75-1.88 5.89-2.75.76-.22.16-.73l-1.08-.93q-.28-.23-.07-.53l.18-.23a.3.3 0 0 1 .43-.06q.96.8 1.96 1.41.85.52 1.52-.14.33-.33.13-.75-.67-1.39-.3-2.93.17-.69.44-.03.67 1.63 1 3.31.05.28.34.22l.29-.07a.41.4-19.1 0 0 .28-.56q-.68-1.53-.51-3.18c.14-1.32-.69-2.73-1.23-3.91q-.26-.57.21-1 .46-.4.46-.98 0-.86.57-.21 1.15 1.33 2.65 2.04.61.29.1.74-.54.48-.62.96-.62-.04-1.17-.48-.41-.33-.61.16-.15.39-.05.8.54 2.32 1.09 4.46.15.57.72.45 2.21-.45 3.94-1.63.56-.38.02-.78l-3.94-2.98q.89.39 1.76.09.49-.18.9.15l1.41 1.14a.68.68 0 0 0 1.06-.29l2.55-6.79a1.04 1.02-51 0 0-.09-.91q-.52-.83.37-1.41a1.26 1.23-13.2 0 0 .54-.85l.89-6.19q.12-.89-.64-.41l-5.99 3.74q-.64.4 0 .79l3.49 2.2q.19.12.09.31l-.23.49q-.12.24-.34.1l-4.12-2.66q-.49-.32-1.01-.06-.44.21-.86.43-.9.46-.26-.32.61-.74.57-1.68-.04-.7.62-.47.14.05.29.13.56.3 1.1-.04l6.85-4.25q.48-.3.53-.87.75-8.23-2.35-15.06zm8.88 8.53q-.54-.31-1.1-.4-.73-.13-.57.59.13.62.48 1.13.31.45.78.16.38-.24.62-.59a.63.61-58.9 0 0-.21-.89m-3.41 3.85q1.01-.85 1.23-1.78.16-.66-.42-.31-.88.53-1.21 1.84-.19.75.4.25m-5.18 13.45q-.82.25-.28.32.12.02.22-.05.11-.08.13-.2a.06.06 0 0 0-.07-.07m-7.95 15.12 1.15-1.88q.5-.82-.41-.5l-1.53.55q-.69.25-.37.91.17.36.22.73.21 1.38.94.19m-1.824 2.002a1.63.55 73.4 0 0 .061-1.72 1.63.55 73.4 0 0-.993-1.404 1.63.55 73.4 0 0-.061 1.72 1.63.55 73.4 0 0 .993 1.404m-2.816-2.422q-.11.51.26.55a.38.37 11.2 0 0 .4-.26q.13-.4-.29-.51-.3-.08-.37.22m2.94 8.18q.35-.11.24-.46l-.62-2.03a.33.32-30.3 0 0-.54-.14l-3.97 3.99q-.5.51.17.28zm.83-2.05q.06.75.61 1.17a.37.37 0 0 0 .58-.39q-.17-.63-.64-1.05-.62-.56-.55.27"/><path fill="#fff" d="M199.77 76.04q-.54 2.14-2.14 3.36-.41.3-.69.72l-1.32 1.96a.55.54-47.9 0 1-.87.05q-1.41-1.73-2.02-3.88-.17-.61-.61-.16-.33.34-.11.82.44.93-.54.72-.2-.04-.4-.01-.79.14-.19.68l2.33 2.08a2.53 2.53 0 0 1 .65 2.86q-.99 2.37-2.35 4.55-1.29 2.07-1.24-.37.1-4.73-.94-9.81-.08-.38.28-.54.16-.07.21-.22.11-.32-.1-.59-.81-1-1.27-2.22z"/><path fill="#fff" d="m207.34 76.19-3.1 3.18q-.47.48-.7-.15l-.93-2.59q-.13-.37-.5-.23l-.3.11q-.29.11-.18.4l1.17 3.12q.18.47-.17.85-.94 1.01-2.06 1.92-.78.63-.54 1.59-.33-.08-.03.59-.06.77.5 1.08 1.37.76 2.91 1.14.62.16.33.73l-2.66 5.3q-.08.16-.25.16-.14.01-.27-.03-.7-.23-.51.48.13.47.08.99-.08.83.71.55c.48-.17.79-.51.97-.98q1.16-3.11 2.8-5.84a1.52 1.52 0 0 1 2.38-.29q1.38 1.37 2.14 3.12.8 1.84 1.11-.14c.47-2.99-.09-6.8-.27-9.96q-.03-.56.46-.84l.64-.37q.57-.32-.03-.59-.34-.16-.6.09-.71.72-.78-.27-.12-1.7-1.05-2.91l5.34.81a1.35 1.16 58.7 0 1 .37.12q.92.51 2.73.85 4.4.82 11.92 5.83.2.78.05 1.45-.11.52-.6.74l-3.33 1.5q-.43.2-.9.08-1.34-.36-2.89.27-.19.08-.24.27-.04.18.05.34a.55.55 0 0 0 .56.26q.79-.15 1.45-.57a1.43 1.4 29.9 0 1 .81-.21q2.46.13 5.08-.95.17-.07.24.09l.15.28a.52.52 0 0 1-.18.67q-5.31 3.47-8.9 6.36-.29.24-.29.61-.01.63.51.27c1.67-1.17 2.84-2.8 4.6-3.82q3.36-1.95 6.08-4.17.6-.49.81-1.59l5.74 4.49-2.92-1.3a1.28 1.27-50.1 0 0-1.26.12q-.72.5-1.64.66-.77.14-.42.83.42.82 1.07 1.45.46.44.04.93l-1.9 2.19q-.56.64-.6-.2-.14-2.71.57-5.15.26-.88-.46-.3-1.32 1.09-2.79 2.04-.62.39-.84 1.08-.27.84.41.27l1.66-1.41q.6-.5.57.28-.07 1.68-.12 3.53c-.06 2.27-2.04 3.56-3.45 5.03q-.47.5-.6-.17-.46-2.35.61-4.37.34-.64.15-1.35-.17-.62-1.25-.54a.99.95 16.2 0 0-.65.34l-2.51 2.95q-.08.1-.08.22-.02.53.54.34.32-.1.55-.34 1.02-1.03 1.99-2.31.15-.19.34-.06l.22.15q.06.04.02.09-.81.98-.47 2.18.19.67-.17 1.27-.56.94-.17 2.06.19.56-.2 1.01l-.91 1.03q-.41.46-.9.1l-4.27-3.06a.79.78-54.2 0 0-1.09.18c-1.25 1.74-.19 3.92.73 5.59 1 1.82.54 4.19-.64 5.82q-.05.08.01.15l.23.27a.53.52 44.7 0 0 .79 0q6.13-7.08 13.81-12.5.2-.14.05-.38a.28.28 0 0 0-.36-.1l-.95.48q-.6.31-.7-.36c-.3-2.14 1.82-3.43 3.07-4.83q.37-.42.88-.2.49.2.62.74.13.48.5.15 1.56-1.37 3.83-2.13a.3.3 0 0 1 .38.22l.06.28a.39.38 71 0 1-.2.42l-3.17 1.56q-.45.22-.66.68-.48 1.07-1.76 1.54-.74.27.01.5.33.1.6-.12 2.96-2.32 5.99-4.14.38-.22.41-.67.02-.22-.01-.43l1.15 1.04-4.76 3.28q-.43.3-.6.79-.1.28-.08.6.03.57-.5.8c-2.7 1.17-4.38 1.4-6.18 4.44a.08.07-43.8 0 1-.13 0q-.1-.24-.35-.28-.57-.09-.72.47l-.58 2.16q-.1.36-.46.29-.21-.04-.31-.25a.48.47-23.4 0 0-.61-.24q-.85.36-1.11 1.18-.16.52-.68.69-.76.25-1.37.71-.59.45.15.44 1.01 0 1.98-.32a.09.08-9.7 0 0 .06-.08q0-.17-.09-.32a.34.33-21.4 0 1 .22-.49q.93-.2 1.63.46.46.44-.15.61-.4.11-.77-.06-.49-.22-.8.22-1.37 1.92-4.09 1.73-.72-.05-.72.67.01.52-.48.72c-2.02.84-3.94 3.63-4.84 5.48a1.63 1.63 0 0 0 1.4 2.33l5.43.24q.52.03.84-.39.47-.61 1.07-1.12.58-.49.38.24-.4 1.43-1.63 2.24a.6.6 0 0 1-.67-.01q-.89-.6-2.07-.67-2.78-.16-5.61-.47-1-.12-.3.6 1.56 1.59 3.32.96.49-.18.84.21 1.65 1.85 3.4.11.48-.48.32.18-.31 1.2-1.16 2.12-2.5 2.66-4.11 5.48-.31.53-.93.52-2.99-.03-5.71-.26-.87-.08-.85.77a.56.5 66.4 0 1-.11.33l-3.76 5.14q-.42.57.16.97 1.52 1.07 3.02 2.08 3.36 2.29-.7 2.07c-2.31-.12-6.57-.35-8.24 1.72q.02.18-.46.08-1.73-1.39-3.94-.47l-1.82-.56 4.95-1.25q.51-.13.74-.6l1.41-2.86a.88.88 0 0 0-.21-1.04l-1.79-1.56q-.51-.44-1.15-.22l-3.76 1.26q-.76.26-.23-.36 1.22-1.42 3.17-1.55.75-.05.11-.45-.38-.24-.81-.12-.18.05-.32-.06-.25-.19.05-.56.21-.25.52-.36 1.19-.38 2.45.21.31.14.48-.15l.14-.24q.12-.2-.08-.32-1.12-.72-1.68-1.85-.18-.37-.49-.63-1.69-1.44-2.74-3.6-.2-.42.17-.68.25-.18.54-.08.13.06.23.17.07.07.09.17.2.8.61.09 7.4-13.03 18.03-23.54 1.32-1.3 2.79-2.6 1.42-1.25 2.54-2.82.05-.08-.02-.14l-.21-.17q-.24-.18-.45.03-1.02 1.06-2.42 1.11-.53.03-.88-.38l-3.75-4.34q-.24-.28-.4.06l-.23.47q-.09.19.05.36l4.24 4.81q.36.41 0 .81-2.12 2.43-4.59 4.57-1.56 1.36-1.3-.69l1.15-8.8a.38.38 0 0 0-.52-.4l-.39.17a.25.25 0 0 0-.15.21q-.32 3.93-.92 7.3a.8.8 0 0 1-.07.21q-.24.48-.66.56-.78.14-.16.64.14.12.25.29.22.36.12.78l-.77 3.16a.74.74 0 0 1-.87.55l-6.19-1.28q-.56-.12-.54-.68l.01-.53q.02-.79-.41-.13l-.88 1.35a.61.61 0 0 0 .49.95l3.75.1q.48.01.85.3.9.7 2.16.75.87.03.33.7l-.17.22q-.5.63-1.29.74l-7.42 1.05q-.09.01-.08.1l.05.33q.02.16.18.15l6.59-.39a.18.18 0 0 1 .16.29l-3.09 4.37q-.34.48-.67 0-.73-1.06-1.18-2.35-.28-.81-.34.04-.06.77.36 1.5.72 1.26-.67.88l-5.74-1.58q-.14-.04-.22.08-.09.13-.07.27.04.55.57.44c1.19-.24 2.42.99 3.65 1.35q1.2.34 2.39.51.55.08.45.63-.79 4.13-5.32 3.42a.89.87-12.7 0 1-.57-.35l-1.52-2.12a.08.08 0 0 0-.14.08l.95 2.37q.29.7-.47.64-.92-.07-1.59.52-.86.75.28.63l2.65-.29q.44-.05.52.39l.07.36q.07.37-.31.43-1.3.19-2.07 1.1-.25.3-.45-.03-.08-.12-.18-.21-.42-.39-.84 0-.53.48-1.23.61a1.23 1.2 14.1 0 0-.72.42l-4.58 5.48q-.35.41-.06.87l.34.55a.71.7 60 0 1-.26 1l-3.75 1.98q-.08.05-.06.13l.11.33q.1.3.4.17l1.74-.79q.71-.31 1 .4.09.22.32.35.62.35.86-.32.24-.63.2-1.34-.04-.67.37-.15.79.98 1.41 2.09.9 1.64 1.43-.13.11-.37-.32-1.34-.04-.08.04-.1l.27-.08q.29-.09.35.21.2.92 1.1 1.4.54.29.73-.3l.54-1.69q.16-.52.48-.96 1.58-2.12 2.63-4.7.2-.49-.25-.77-.8-.51-1.15-1.38-.08-.19-.02-.38.06-.18.21-.24.46-.17.73.24.52.78 1.36 1.12.85.35.54 1.22-.34.97.58 1.35.45.18.33.64-.05.19-.2.26-.38.2-.54-.2l-.14-.33a.56.56 0 0 0-1.02-.04q-2.54 5.17-5.22 10.38-.28.56-.72.26 0-.3-.1-.54-.2-.43-.66-.31l-.4.1q-.91-1.99-2.92-3.01-.17-.09-.3.07l-.18.23q-.35.42.19.51 1.87.34.96 1.31l-6.29-3.85q.01-1.5-.48-2.13-.79-1.01.47-1.21 1.98-.33 3.11-1.63.75-.86-.31-.45l-3.92 1.51q-1.04.4-1.52-.62-.42-.9-1.24-1.27-.89-.41-.16.23 1.58 1.38.82 2.91l-3.23-3.53q3.56-2.3 7.65-3.35.63-.16.92.42l1.25 2.49q.14.27.43.17l.25-.09q.13-.05.1-.18-.23-1.12-.71-2.02-1.21-2.28.88-.76l.88.63q.44.32.54.86.23 1.17-.68 1.99a.27.27 0 0 0 .01.41l.19.17q.02.02.04 0 .84-1.48 2.1-2.61.45-.4-.16-.42-1.6-.06-1.77-1.82a.72.71 75.1 0 1 .41-.72q.42-.19.67-.56.61-.94-.44-.55l-.75.27q-.62.23-1.03-.28-.81-1-1.14-2.22-.15-.57-.74-.56-.83.02-1.11.9-.04.12-.14.04l-.25-.18q-.2-.14-.04-.31 2.12-2.39 3.92-5.69c.8-1.46 2.59-1.82 3.76-.52q.97 1.07 1.83 2.06.1.11.21.01v-.01q.14-.14-.02-.26-.69-.51-.62-1.38.04-.58-.4-.96l-.39-.33a.29.28 62.8 0 1 .16-.5q.64-.07 1.32-.12.81-.06.23.5-.09.09-.15.22-.07.17.11.23.36.13.78.04.52-.12.69-.61.42-1.16 1.74-1.49a.38.37 72.8 0 0 .26-.5l-.1-.25q-.02-.05-.08-.03-1.32.47-2.56.59-.69.07-.69-.62l.04-6.04q0-.22-.22-.25l-.38-.04q-.15-.02-.19.13-.8 3.54.47 6.32.21.47-.29.6-1.55.41-2.77-.72-.31-.28-.16-.66l2.45-6.38a1.76 1.76 0 0 1 2.74-.75q2.1 1.66 5.4 2.36.25.05.31-.19l.11-.45q.01-.07-.05-.09-3.63-1.34-6.58-2.75a.79.78-68.8 0 1-.41-.94q.63-2.05.29-4.07-.08-.49.24-.86 1.04-1.2 1.39-2.94.1-.53-.44-.51-.23.01-.28.25-.09.44-.46.2-.52-.32-.19-.75.16-.22.39-.37 2.25-1.48 4.34-3.6.37-.37.9-.41.36-.02.47.37.21.74.6.07.22-.38.07-.78-.21-.59.28-.98l1.45-1.14a.86.85 44.3 0 0-.02-1.36l-1.59-1.19q-.51-.37-.25-.94 1.64-3.65 4.59-6.24zm13.19 10.62 4.74-4.57a.16.16 0 0 0 0-.23l-.1-.1a3.14.88-44 0 0-2.87 1.55l-.44.43a3.14.88-44 0 0-1.65 2.82l.1.1a.16.16 0 0 0 .22 0m-6.687 1.91a1.65.51 5.2 0 0-1.597-.658 1.65.51 5.2 0 0-1.69.359 1.65.51 5.2 0 0 1.598.657 1.65.51 5.2 0 0 1.69-.359m3.787 1.11-1.6 5.22q-.03.11.08.14l.29.1a.38.37-69.9 0 0 .48-.23l2.35-6.33a.51.51 0 0 0-.47-.69q-2.08-.03-3.87.7-.72.3.05.47 1.03.22 2.05-.04.91-.24.64.66m14.79-1.05q.28-.1.54-.21a.25.25 0 0 0-.05-.48q-.68-.14-1.28.14-.44.21-.03.47.36.24.82.08m-33.39 3.752a1.41.47 69.7 0 0-.05-1.485 1.41.47 69.7 0 0-.93-1.16 1.41.47 69.7 0 0 .05 1.486 1.41.47 69.7 0 0 .93 1.16m3.3 4.518q.29.55.69.94.37.35.33-.16-.07-.81-.76-1.08-.52-.2-.26.3m-3.39 6.52q1.17-2.98 1.8-6.19.03-.15-.11-.22-.05-.02-.11-.01-.28.01-.38.26-1.26 3.25-1.28 6.43a.01.01 0 0 0 .02 0q.01-.14.06-.27m7.074-2.12a1.75.5 54.2 0 0-.619-1.713 1.75.5 54.2 0 0-1.429-1.126 1.75.5 54.2 0 0 .618 1.712 1.75.5 54.2 0 0 1.43 1.126m14.056-1.63q-.23.55.36.48.56-.07.93-.58a.36.36 0 0 0-.28-.57q-.73-.03-1.01.67m-8.89 19.67q3.1-2.73 4.71-6.48.06-.13-.08-.2-.04-.02-.09-.03-.21-.03-.34.15-1.66 2.36-4.52 3.12-.28.08-.17.35l.16.38q.12.3.41.14.33-.18.7-.35.92-.42.2.29-2.09 2.07-4.41.23-.44-.35.02-.67c2.59-1.78 5.16-3.94 7.9-5.44q1.22-.67 1.16-2.45-.01-.53-.52-.4c-2.65.67-3.16-1.5-5.21-2.26q-.65-.24-.29.35.46.77 1.09 1.23.7.52-.17.54l-2.24.06q-.26.01-.26.27v.28q0 .4.41.42 2.12.09 4.16.09.22 0 .37.15.11.11.03.29-.09.2-.31.21l-6.77.42q-.11.01-.11.11v.38a.25.25 0 0 0 .24.25l5.24.07q1.21.02.23.72l-7.01 5q-1.28.91-.74-.57.78-2.14 1.84-4.67.02-.06-.03-.09l-.23-.1q-.06-.02-.09.03-1.7 2.38-2.55 4.95a.85.84 7.3 0 1-.74.57q-.45.03-.8.3-.43.33-.14.78.09.13.2.24.62.57-.16.88c-2.93 1.18-3.82 3.65-5.5 6.07a3.06 3.05 40.2 0 0 .33 3.89l2.41 2.45q.41.42.95.2 1.12-.43 2.27-.25.61.1.95-.41l1.93-2.93q.44-.67-.23-1.12-2.34-1.56-3.47-4.33-.03-.08.04-.12l.37-.23q.22-.13.36.08 2.51 3.69 5.83 6.43.1.09.17-.02l.16-.22q.16-.22-.07-.37-1.13-.8-1.77-1.8-.34-.52.09-.97 2.39-2.45 3.85-5.57.09-.19.24-.32m-12.42-10.6q.08-.27-.14-.41a.18.17-73 0 0-.27.15q0 .19.17.33.18.15.24-.07m-3.87 2.356a.53.37-33.7 0 0-.645-.014.53.37-33.7 0 0-.236.602.53.37-33.7 0 0 .646.014.53.37-33.7 0 0 .236-.602m-4.72 9.004q.07-1.07-.32-2-.13-.31-.43-.17-.15.07-.23.19-.1.17 0 .46.26.82.81 1.56.15.2.17-.04m22.68.5q.09-.21-.02-.4-.08-.15-.24-.19-.33-.09-.43.25-.12.42.16.74.63.72.72 1.58c.17 1.66 1.97 3.75 3.01 4.94q.44.51.8-.06l1.25-1.97q.3-.47-.15-.8l-4.95-3.57a.45.45 0 0 1-.15-.52m-26.15 2.97q1.2-.16 2-.96.69-.69-.28-.57-1.31.16-2 1.04-.47.6.28.49m30.5-1.55-.12-.08q-.1-.06-.06.05.03.1.12.15.12.07.2-.03t-.04-.08q-.05.01-.1-.01m-7.09.95c-.78.97-1.77 2.14-1.01 3.45q.32.55.7.05 1.49-1.96 1.63-2.93.38-2.68-1.32-.57m2.05 6.27a.34.34 0 0 0 .24.07l2.8-.27a.34.34 0 0 0 .25-.54l-2.84-4.05a.34.34 0 0 0-.59.05l-1.48 3.15a.34.34 0 0 0 .1.42zm-6.91 1.81q.99-.08 1.9-.23.94-.16.68-1.08-.16-.55-.61-.98-.64-.6-1.05.18-.46.86-1.17 1.53-.7.65.25.58m-4.93 1.01q-.07.01-.1.07-.07.21.14.27.11.03.16-.08.14-.31-.2-.26m2.42.35q-.11.06-.19.17-.52.8.27.27.1-.07.17-.17.42-.63-.25-.27m3.62.24a.35.35 0 0 0-.27-.55q-2.17-.07-3.2 2.24-.07.18.09.28l1.12.72q.21.13.36-.07zm-5.07 1.65q.05-.14.08-.28.13-.51-.39-.43l-1.07.15q-.77.11-.16.6l.82.66q.33.27.55-.09.11-.19.12-.42.01-.1.05-.19m1.01 1.24q-1.3 2.37-1.48 2.75-1.71 3.81.88.54.67-.86 1.52-2.32a.59.58 41.8 0 0-.04-.64l-.27-.37a.37.36 41 0 0-.61.04m-14.895 3.808a1.41.71 118.6 0 0 1.298-.898 1.41.71 118.6 0 0 .052-1.578 1.41.71 118.6 0 0-1.298.898 1.41.71 118.6 0 0-.052 1.578m17.105-1.788q.06.13.01-.24a.05.05 0 0 0-.1 0q-.07.39.09.24m.54 1.19q.9.73 1.91.95.8.18.27-.44-1.63-1.89-3.73-.82-.78.4-1.15 1.22a.37.37 0 0 0 .37.52q1.49-.1 1.77-1.24.14-.54.56-.19"/><path d="m180.8 76.36-2.85 10.41q-.08.3-.38.21l-.33-.1q-.29-.08-.21-.37l2.88-9.9q.55-.27.89-.25"/><path fill="#fff" d="M186.84 76.08q3.1 6.83 2.35 15.06-.05.57-.53.87l-6.85 4.25q-.54.34-1.1.04-.15-.08-.29-.13-.66-.23-.62.47.04.94-.57 1.68-.64.78.26.32.42-.22.86-.43.52-.26 1.01.06l4.12 2.66q.22.14.34-.1l.23-.49q.1-.19-.09-.31l-3.49-2.2q-.64-.39 0-.79l5.99-3.74q.76-.48.64.41l-.89 6.19a1.26 1.23-13.2 0 1-.54.85q-.89.58-.37 1.41a1.04 1.02-51 0 1 .09.91l-2.55 6.79a.68.68 0 0 1-1.06.29l-1.41-1.14q-.41-.33-.9-.15-.87.3-1.76-.09.08-.48.62-.96.51-.45-.1-.74-1.5-.71-2.65-2.04-.57-.65-.57.21 0 .58-.46.98-.47.43-.21 1c.54 1.18 1.37 2.59 1.23 3.91q-.17 1.65.51 3.18a.41.4-19.1 0 1-.28.56l-.29.07q-.29.06-.34-.22-.33-1.68-1-3.31-.27-.66-.44.03-.37 1.54.3 2.93.2.42-.13.75-.67.66-1.52.14-1-.61-1.96-1.41a.3.3 0 0 0-.43.06l-.18.23q-.21.3.07.53l1.08.93q.6.51-.16.73-3.14.87-5.89 2.75l-1.83-9.16q.67.78 1.3.94.6.16.44-.44-.33-1.19-1.84-1.36-.95-1.99-.9-4l1.29-.9q.36-.25.72 0 .64.46 1.37-.05.71-.5.7.37l-.05 7.52q-.01.68.66.8l1.4.25q.88.16.22-.45l-.96-.89a1.08 1.06 22 0 1-.34-.78l.12-7.02a1.04 1.04 0 0 1 1.41-.96q3.72 1.4 4.31 5.27-.03 1.6.45 2.01.41.36.56-.17.38-1.38-1.01-1.84c-.03-.84-.08-1.35.36-2.11q.85-1.48 1.54-3.09.23-.54.11-1.11-.33-1.68.85-2.62.27-.21.01-.42-1.29-1.05-.81-3.32.17-.78.73-.2.45.47 1.05.67.72.24.28-.38-.7-1.02-1.6-1.75-.47-.38-.37-.97l.77-4.41q.04-.18-.12-.27l-.23-.14q-.17-.11-.23.09l-1.15 3.75q-.09.27-.37.23-.14-.02-.23-.15-.27-.4 0-.79.46-.65.61-1.5.03-.17-.13-.24l-.41-.16q-.32-.12-.37.22-.1.73-.53 1.21-.37.42-.79.06-1.1-.96-1.71-2.2-.17-.36-.03-.73l3.46-8.98q.07-.18-.11-.26l-.39-.17q-.1-.04-.15.06-2.18 4.17-3.44 8.43-.27.9-.75.09-.1-.18-.35-.2-.7-.07-.36.55l1.03 1.86q.24.44.74.5 1.13.14 1.27 1.28.06.53.54.78.12.06.22.14.4.32.38.84l-.24 6.1q-.07 1.73-1.78 2.04-.29.05-.59.01-1.96-.31-1.76-2.28.31-3.14 1.25-6.47.08-.27-.2-.34l-.29-.07q-.25-.05-.3.19l-1.41 7.19q-.18.91-.68.13l-.54-.84q-.16-.24-.43-.16-.15.04-.18.19-.11.41.19.71.92.92 1.18 2.21.1.55-.26.98-1.53 1.83-4.22 1.57l-1.47-5.44q.92-.7 2.71.27.63.33.71-.38.15-1.45-.76-2.43-.47-.51-.07-1.08.12-.18.07-.4-.09-.53-.51-.19l-2.77 2.34q-1.75-4.5-5.66-5.43.61-.31 1.09-.84.47-.51-.08-.94-.2-.15-.14-.4.12-.63.64-.25l.87.62q.62.44.48-.3-.37-1.97-2.06-3.13.21-.71.96-1.42.44-.41.21-.98-.36-.89-.4-1.8-.01-.03-.03-.02l-.26.05q-.12.02-.13.14l-.25 2.16q-.14 1.22-.7.14l-2.59-4.99 4.07-.22 1.22 3.52q.16.48.35.01l1.41-3.51 2.97-.31q.53 2.17 2.02 3.08.48.29.36-.26-.37-1.6-1.81-3 1.39.28 2.55-.2.45-.19.94-.24l2.67-.25-.26 1.31q-.15.73.44.26.7-.56.93-1.73l8.2-1.12-2.88 9.9q-.08.29.21.37l.33.1q.3.09.38-.21l2.85-10.41zm-7.86 1.5a.09.09 0 0 0-.03-.14q-.14-.07-.3-.02-.23.07-.17.3.08.3.5-.14m-1.64 1.96q0 .24.18.08.36-.3.45-.76.17-.97-.38-.15-.25.38-.25.83m-7.32 1.6q-.45.58-.47 1.35-.01.59.44.21.68-.59.49-1.45-.11-.55-.46-.11m7.615.667a.47.47 0 0 0-.331-.577l-.058-.015a.47.47 0 0 0-.576.331l-1.605 5.947a.47.47 0 0 0 .331.577l.058.015a.47.47 0 0 0 .576-.331zM168.1 84.85l-.13 2.44q-.04.59.37.17.84-.89.67-2.13-.07-.55-.5-.9-.86-.72-1.53-1.51a.03.03 0 0 0-.05 0l-.17.19v.01q-.39.55.96 1.11a.64.63 14 0 1 .38.62m-1.26 5.19q.34-.06.41-.35.28-1.12-.39-.18-1.09 1.5-2.02 3.17-.04.08.03.13l.24.18q.51.39.68-.23l.65-2.37a.5.5 0 0 1 .4-.35m-7.14.13q.82 2.25 2.54 3.81.23.21.51.07.47-.23.15-.66-1.41-1.87-2.96-3.37-.46-.45-.24.15m11.1.27q.07-.05-.03-.17-.07-.08-.1.02-.07.21-.03.22t.16-.07m-1.51 24.08q-.03-.05-.09-.05-.12-.01-.11.11.03.38.19.15a.2.2 0 0 0 .01-.21"/><path d="M208.61 76.4q.93 1.21 1.05 2.91.07.99.78.27.26-.25.6-.09.6.27.03.59l-.64.37q-.49.28-.46.84c.18 3.16.74 6.97.27 9.96q-.31 1.98-1.11.14-.76-1.75-2.14-3.12a1.52 1.52 0 0 0-2.38.29q-1.64 2.73-2.8 5.84c-.18.47-.49.81-.97.98q-.79.28-.71-.55.05-.52-.08-.99-.19-.71.51-.48.13.04.27.03.17 0 .25-.16l2.66-5.3q.29-.57-.33-.73-1.54-.38-2.91-1.14-.56-.31-.5-1.08l4.99 1.36a.33.33 0 0 0 .39-.44q-.71-1.85-1.38-3.78-.22-.64-.75-.23l-3.22 2.5q-.24-.96.54-1.59 1.12-.91 2.06-1.92.35-.38.17-.85l-1.17-3.12q-.11-.29.18-.4l.3-.11q.37-.14.5.23l.93 2.59q.23.63.7.15l3.1-3.18q.59-.06 1.27.21m-1.77 7.74q-.04-1.1.99-1.76a1.97 1.97 0 0 0 .91-1.92l-.33-2.53q-.15-1.18-.98-.33l-2.62 2.73q-.41.43-.19.98 1.54 3.68 4.3 7.56.35.49.33-.12l-.14-5.47q-.03-1.28-.76-.22l-.86 1.27q-.61.89-.65-.19M178.98 77.58q-.42.44-.5.14-.06-.23.17-.3.16-.05.3.02a.09.09 0 0 1 .03.14"/><path fill="#fff" d="M206.84 84.14q.04 1.08.65.19l.86-1.27q.73-1.06.76.22l.14 5.47q.02.61-.33.12-2.76-3.88-4.3-7.56-.22-.55.19-.98l2.62-2.73q.83-.85.98.33l.33 2.53a1.97 1.97 0 0 1-.91 1.92q-1.03.66-.99 1.76"/><path d="M171.71 77.73q-.23 1.17-.93 1.73-.59.47-.44-.26l.26-1.31zM177.34 79.54q0-.45.25-.83.55-.82.38.15-.09.46-.45.76-.18.16-.18-.08M164.44 78.58q1.44 1.4 1.81 3 .12.55-.36.26-1.49-.91-2.02-3.08.24-.24.57-.18M174.93 108.22q-.59-3.87-4.31-5.27a1.04 1.04 0 0 0-1.41.96l-.12 7.02a1.08 1.06 22 0 0 .34.78l.96.89q.66.61-.22.45l-1.4-.25q-.67-.12-.66-.8l.05-7.52q.01-.87-.7-.37-.73.51-1.37.05-.36-.25-.72 0l-1.29.9-.09-1.09q2.69.26 4.22-1.57.36-.43.26-.98-.26-1.29-1.18-2.21-.3-.3-.19-.71.03-.15.18-.19.27-.08.43.16l.54.84q.5.78.68-.13l1.41-7.19q.05-.24.3-.19l.29.07q.28.07.2.34-.94 3.33-1.25 6.47-.2 1.97 1.76 2.28.3.04.59-.01 1.71-.31 1.78-2.04l.24-6.1q.02-.52-.38-.84-.1-.08-.22-.14-.48-.25-.54-.78-.14-1.14-1.27-1.28-.5-.06-.74-.5l-1.03-1.86q-.34-.62.36-.55.25.02.35.2.48.81.75-.09 1.26-4.26 3.44-8.43.05-.1.15-.06l.39.17q.18.08.11.26l-3.46 8.98q-.14.37.03.73.61 1.24 1.71 2.2.42.36.79-.06.43-.48.53-1.21.05-.34.37-.22l.41.16q.16.07.13.24-.15.85-.61 1.5-.27.39 0 .79.09.13.23.15.28.04.37-.23l1.15-3.75q.06-.2.23-.09l.23.14q.16.09.12.27l-.77 4.41q-.1.59.37.97.9.73 1.6 1.75.44.62-.28.38-.6-.2-1.05-.67-.56-.58-.73.2-.48 2.27.81 3.32.26.21-.01.42-1.18.94-.85 2.62.12.57-.11 1.11-.69 1.61-1.54 3.09c-.44.76-.39 1.27-.36 2.11m.38-14.52c-.25 1.25-.44 3.73-.1 5.16q.34 1.46.58-.02.42-2.62-.08-5.14-.2-1-.4 0m.166 10.12a1.66.53 88.4 0 0 .484-1.675 1.66.53 88.4 0 0-.576-1.644 1.66.53 88.4 0 0-.484 1.674 1.66.53 88.4 0 0 .576 1.644m-2.176-2.42q-.34.32-.39.63-.13.81.48.25.4-.37.17-.83a.17.17 0 0 0-.26-.05m.5 2.02q-.07-.1-.19-.1-.13.01-.1.13.03.15.18.17.3.04.11-.2M139.57 79.24q-1.55.72-2.65.05 1.42-.34 2.65-.05M143.14 79.16q8.69 3.84 6.82 13.54-.51.38-.99.14-1.16-.14-1.75-.94-.08-.12-.04-.26t.15-.23a.57.57 0 0 1 .77.05q.27.28.6.1.44-.24.49-.74c.64-6.52-3.3-10.31-9.24-11.53q1.7-.48 3.19-.13"/><path fill="#fff" d="M152.73 79.27q1.25 3.11 3.08 5.88c.32.48.74.59 1.23.84l-2.26 5.21q-2.31.15-4.82 1.5 1.87-9.7-6.82-13.54z"/><path d="m153.85 79.27 2.59 4.99q.56 1.08.7-.14l.25-2.16q.01-.12.13-.14l.26-.05q.02-.01.03.02.04.91.4 1.8.23.57-.21.98-.75.71-.96 1.42c-.49-.25-.91-.36-1.23-.84q-1.83-2.77-3.08-5.88.86-.39 1.12 0M160.9 79.07l-1.41 3.51q-.19.47-.35-.01l-1.22-3.52zm-1.68.25q-.17.39-.07.79a.35.35 0 0 0 .65.06q.21-.48-.05-.89a.3.3 0 0 0-.53.04"/><path fill="#fff" d="M136.92 79.29q1.1.67 2.65-.05l.38.05c5.94 1.22 9.88 5.01 9.24 11.53q-.05.5-.49.74-.33.18-.6-.1a.57.57 0 0 0-.77-.05q-.11.09-.15.23t.04.26q.59.8 1.75.94l-11.79 5.7q-3.04-1.37-5.19-4.03-1.37-1.7-.06-2.76.54-.44-.13-.6-.35-.08-.64.13-.46.32-.69-.2-.11-.25-.01-.53.16-.46.64-.5 5.78-.46 10.59 1.09 1.96.63 4.09.72.21.01.23-.2l.03-.4a.32.31-84.2 0 0-.27-.34l-11.74-1.61a.19.18-70.5 0 1-.13-.28l4.39-7.51q.16-.27-.13-.39l-.36-.17a.43.43 0 0 0-.55.2q-1.96 3.83-4.36 7.43c-.43.65-1.26.75-1.98.7a.6.6 0 0 1-.56-.66q.59-5.96 6.16-8.31a.35.34 65.1 0 0 .17-.48l-.16-.28q-.05-.11-.16-.07-6.37 2.14-6.99 9.23a.62.62 0 0 1-.59.56l-4.5.13q-.12 0-.13.13l-.02.32q-.02.27.25.26l3.67-.03a1.94 1.94 0 0 1 1.46 3.23l-5.22 5.88q-.68.76.34.83l5.75.42-7.47 1.37q-.1-.46-.43-.47-.43-.01-.5.31l-12.18 1.63 1.88-.71q.19-.08.16-.28l-.08-.49q-.06-.36-.41-.25l-3.98 1.32q-.12.03-.17-.08-.06-.13-.05-.26l.44-1.82.43-.08a.91.81 14.9 0 0 .38-.19l3.13-2.77q1.15-1.01 1.44.48l.11.55q.18.92.73.17.57-.77.32-1.85a1.12 1.1-28.6 0 1 .32-1.05l4.44-4.15a.57.57 0 0 0-.27-.97q-1.9-.42-3.9.05-.42.1-.54-.31-.04-.17-.16-.29-.37-.37-.71.03-.98 1.15-2.8 1.11.51-2.27 1.98-3.98.15.94.53 1.34a.51.5 32.9 0 0 .85-.18q.26-.75-.74-2.03 4.63-3.2 9.96-5.46 2.26-.96 5.35-1.06 4.31-.13 8.48-.79m-15.27 9.68q.25 1.18.83.99.22-.56-.83-.99c1.12-2.86 3.58-4.77 4.96-7.47q.05-.11.02-.22-.05-.13-.2-.2-.27-.11-.44.13l-5.82 8q-.34.47.23.36.62-.12 1.25-.6m-.04 10.64q-.09-.04-.17 0-.08.03-.02.08.07.06.15.07.54.06.04-.15m-7.8.91q-.1-.14-.27-.21-.67-.29-.58.44l.15 1.26q.06.48.51.3 2.23-.89 4.72-.96.08 0 .1-.07l.14-.39q.03-.09-.06-.09l-4.01.07q-.44.01-.7-.35M159.22 79.32a.3.3 0 0 1 .53-.04q.26.41.05.89a.35.35 0 0 1-.65-.06q-.1-.4.07-.79"/><path d="M137.18 98.54q-1.06.47-1.42.37-3.14-1.52-5.02-4.47-.36-.56-.8-.06l-3.8 4.28q-.43.48.22.51l7.16.36-3.14.92-5.75-.42q-1.02-.07-.34-.83l5.22-5.88a1.94 1.94 0 0 0-1.46-3.23l-3.67.03q-.27.01-.25-.26l.02-.32q.01-.13.13-.13l4.5-.13a.62.62 0 0 0 .59-.56q.62-7.09 6.99-9.23.11-.04.16.07l.16.28a.35.34 65.1 0 1-.17.48q-5.57 2.35-6.16 8.31a.6.6 0 0 0 .56.66c.72.05 1.55-.05 1.98-.7q2.4-3.6 4.36-7.43a.43.43 0 0 1 .55-.2l.36.17q.29.12.13.39l-4.39 7.51a.19.18-70.5 0 0 .13.28l11.74 1.61a.32.31-84.2 0 1 .27.34l-.03.4q-.02.21-.23.2-2.13-.09-4.09-.72-4.81-1.55-10.59-1.09-.48.04-.64.5-.1.28.01.53.23.52.69.2.29-.21.64-.13.67.16.13.6-1.31 1.06.06 2.76 2.15 2.66 5.19 4.03M121.65 88.97q-.63.48-1.25.6-.57.11-.23-.36l5.82-8q.17-.24.44-.13.15.07.2.2.03.11-.02.22c-1.38 2.7-3.84 4.61-4.96 7.47M170.02 81.14q.35-.44.46.11.19.86-.49 1.45-.45.38-.44-.21.02-.77.47-1.35"/><rect width="1" height="7.1" x="-.5" y="-3.55" rx=".47" transform="rotate(15.1 -231.162 707.594)"/><path fill="#fff" d="M200 84.98q-.12-.4.03-.59l3.22-2.5q.53-.41.75.23.67 1.93 1.38 3.78a.33.33 0 0 1-.39.44z"/><path d="M220.53 86.81a.16.16 0 0 1-.22 0l-.1-.1a3.14.88-44 0 1 1.65-2.82l.44-.43a3.14.88-44 0 1 2.87-1.55l.1.1a.16.16 0 0 1 0 .23zM168.1 84.85a.64.63 14 0 0-.38-.62q-1.35-.56-.96-1.11v-.01l.17-.19a.03.03 0 0 1 .05 0q.67.79 1.53 1.51.43.35.5.9.17 1.24-.67 2.13-.41.42-.37-.17zM230.73 85.02q.4.84 1.3.87-.21 1.1-.81 1.59-2.72 2.22-6.08 4.17c-1.76 1.02-2.93 2.65-4.6 3.82q-.52.36-.51-.27 0-.37.29-.61 3.59-2.89 8.9-6.36a.52.52 0 0 0 .18-.67l-.15-.28q-.07-.16-.24-.09-2.62 1.08-5.08.95a1.43 1.4 29.9 0 0-.81.21q-.66.42-1.45.57a.55.55 0 0 1-.56-.26q-.09-.16-.05-.34.05-.19.24-.27 1.55-.63 2.89-.27.47.12.9-.08l3.33-1.5q.49-.22.6-.74.15-.67-.05-1.45z"/><path fill="#fff" d="M197.33 84.57a.63.61-58.9 0 1 .21.89q-.24.35-.62.59-.47.29-.78-.16-.35-.51-.48-1.13-.16-.72.57-.59.56.09 1.1.4"/><path d="M200.03 84.39q-.15.19-.03.59-.3-.67.03-.59"/><path fill="#fff" d="M232.03 85.89q-.9-.03-1.3-.87.76.15 1.3.87"/><path d="M156.24 91.23q-.49.13-1.46-.03l2.26-5.21q1.69 1.16 2.06 3.13.14.74-.48.3l-.87-.62q-.52-.38-.64.25-.06.25.14.4.55.43.08.94-.48.53-1.09.84"/><path fill="#fff" d="M193.52 88.17q.33-1.31 1.21-1.84.58-.35.42.31-.22.93-1.23 1.78-.59.5-.4-.25"/><path d="M113.13 86.6q1 1.28.74 2.03a.51.5 32.9 0 1-.85.18q-.38-.4-.53-1.34.62-.5.64-.87"/><ellipse rx="1.65" ry=".51" transform="rotate(5.2 -869.131 2380.788)"/><path d="M216.99 89.17q-1.02.26-2.05.04-.77-.17-.05-.47 1.79-.73 3.87-.7a.51.51 0 0 1 .47.69l-2.35 6.33a.38.37-69.9 0 1-.48.23l-.29-.1q-.11-.03-.08-.14l1.6-5.22q.27-.9-.64-.66M232.42 88.78q-.46.16-.82-.08-.41-.26.03-.47.6-.28 1.28-.14a.25.25 0 0 1 .05.48q-.26.11-.54.21M121.65 88.97q1.05.43.83.99-.58.19-.83-.99M166.44 90.39l-.65 2.37q-.17.62-.68.23l-.24-.18q-.07-.05-.03-.13.93-1.67 2.02-3.17.67-.94.39.18-.07.29-.41.35a.5.5 0 0 0-.4.35M237.77 90.38l2.59 2.31q.03.21.01.43-.03.45-.41.67-3.03 1.82-5.99 4.14-.27.22-.6.12-.75-.23-.01-.5 1.28-.47 1.76-1.54.21-.46.66-.68l3.17-1.56a.39.38 71 0 0 .2-.42l-.06-.28a.3.3 0 0 0-.38-.22q-2.27.76-3.83 2.13-.37.33-.5-.15-.13-.54-.62-.74-.51-.22-.88.2c-1.25 1.4-3.37 2.69-3.07 4.83q.1.67.7.36l.95-.48a.28.28 0 0 1 .36.1q.15.24-.05.38-7.68 5.42-13.81 12.5a.53.52 44.7 0 1-.79 0l-.23-.27q-.06-.07-.01-.15c1.18-1.63 1.64-4 .64-5.82-.92-1.67-1.98-3.85-.73-5.59a.79.78-54.2 0 1 1.09-.18l4.27 3.06q.49.36.9-.1l.91-1.03q.39-.45.2-1.01-.39-1.12.17-2.06.36-.6.17-1.27-.34-1.2.47-2.18.04-.05-.02-.09l-.22-.15q-.19-.13-.34.06-.97 1.28-1.99 2.31-.23.24-.55.34-.56.19-.54-.34 0-.12.08-.22l2.51-2.95a.99.95 16.2 0 1 .65-.34q1.08-.08 1.25.54.19.71-.15 1.35-1.07 2.02-.61 4.37.13.67.6.17c1.41-1.47 3.39-2.76 3.45-5.03q.05-1.85.12-3.53.03-.78-.57-.28L227.03 93q-.68.57-.41-.27.22-.69.84-1.08 1.47-.95 2.79-2.04.72-.58.46.3-.71 2.44-.57 5.15.04.84.6.2l1.9-2.19q.42-.49-.04-.93-.65-.63-1.07-1.45-.35-.69.42-.83.92-.16 1.64-.66a1.28 1.27-50.1 0 1 1.26-.12zm-11.92 12.21q2-.94 3.14-2.71.69-1.06-.44-.49-1.92.97-3.07 2.85a1.68 1.66 4 0 1-.78.67q-.55.24-.82.77-.32.63.33.35.56-.23.87-.75a1.8 1.78 2.9 0 1 .77-.69m-6.46 2.47q-.13 0-.24-.07-.35-.22-.21-.61.85-2.41-.69-3.8-1.06-.95-1 .47.09 2.5 1.2 5.28.19.48.53.08.76-.88 1.85-1.34a.99.98 83.5 0 0 .59-.75q.12-.78-.64-1.18-.52-.28-.79.25-.31.63-.34 1.42-.01.26-.26.25m.19 2.47.2.26q.2.27.45.05l2.77-2.47q.14-.12 0-.25l-.21-.2q-.16-.15-.32-.01l-2.87 2.44a.13.13 0 0 0-.02.18M159.7 90.17q-.22-.6.24-.15 1.55 1.5 2.96 3.37.32.43-.15.66-.28.14-.51-.07-1.72-1.56-2.54-3.81"/><ellipse rx="1.41" ry=".47" transform="rotate(69.7 33.775 188.17)"/><path d="M107.59 100.72q.06-.62.29-.95l4.84-3.74q.41-.31.41-.83l-.02-2.51q0-.69-.66-.51-1.2.32-2.22.09.06-.45.28-.82 1.82.04 2.8-1.11.34-.4.71-.03.12.12.16.29.12.41.54.31 2-.47 3.9-.05a.57.57 0 0 1 .27.97l-4.44 4.15a1.12 1.1-28.6 0 0-.32 1.05q.25 1.08-.32 1.85-.55.75-.73-.17l-.11-.55q-.29-1.49-1.44-.48l-3.13 2.77a.91.81 14.9 0 1-.38.19zm6.5-6.55a.32.32 0 0 0 .53.25l2.94-2.62a.32.32 0 0 0-.27-.56l-2.87.52a.32.32 0 0 0-.27.31zM170.64 90.51q-.04-.01.03-.22.03-.1.1-.02.1.12.03.17-.12.08-.16.07"/><path fill="#fff" d="m114.09 94.17.06-2.1a.32.32 0 0 1 .27-.31l2.87-.52a.32.32 0 0 1 .27.56l-2.94 2.62a.32.32 0 0 1-.53-.25M107.88 99.77l2.35-7.5q1.02.23 2.22-.09.66-.18.66.51l.02 2.51q0 .52-.41.83z"/><path d="m193.28 141.87-5.32-1.11q.44.3.72-.26 2.68-5.21 5.22-10.38a.56.56 0 0 1 1.02.04l.14.33q.16.4.54.2.15-.07.2-.26.12-.46-.33-.64-.92-.38-.58-1.35.31-.87-.54-1.22-.84-.34-1.36-1.12-.27-.41-.73-.24-.15.06-.21.24-.06.19.02.38.35.87 1.15 1.38.45.28.25.77-1.05 2.58-2.63 4.7-.32.44-.48.96l-.54 1.69q-.19.59-.73.3-.9-.48-1.1-1.4-.06-.3-.35-.21l-.27.08q-.08.02-.04.1.43.97.32 1.34-.53 1.77-1.43.13-.62-1.11-1.41-2.09-.41-.52-.37.15.04.71-.2 1.34-.24.67-.86.32-.23-.13-.32-.35-.29-.71-1-.4l-1.74.79q-.3.13-.4-.17l-.11-.33q-.02-.08.06-.13l3.75-1.98a.71.7 60 0 0 .26-1l-.34-.55q-.29-.46.06-.87l4.58-5.48a1.23 1.2 14.1 0 1 .72-.42q.7-.13 1.23-.61.42-.39.84 0 .1.09.18.21.2.33.45.03.77-.91 2.07-1.1.38-.06.31-.43l-.07-.36q-.08-.44-.52-.39l-2.65.29q-1.14.12-.28-.63.67-.59 1.59-.52.76.06.47-.64l-.95-2.37a.08.08 0 0 1 .14-.08l1.52 2.12a.89.87-12.7 0 0 .57.35q4.53.71 5.32-3.42.1-.55-.45-.63-1.19-.17-2.39-.51c-1.23-.36-2.46-1.59-3.65-1.35q-.53.11-.57-.44-.02-.14.07-.27.08-.12.22-.08l5.74 1.58q1.39.38.67-.88-.42-.73-.36-1.5.06-.85.34-.04.45 1.29 1.18 2.35.33.48.67 0l3.09-4.37a.18.18 0 0 0-.16-.29l-6.59.39q-.16.01-.18-.15l-.05-.33q-.01-.09.08-.1l7.42-1.05q.79-.11 1.29-.74l.17-.22q.54-.67-.33-.7-1.26-.05-2.16-.75-.37-.29-.85-.3l-3.75-.1a.61.61 0 0 1-.49-.95l.88-1.35q.43-.66.41.13l-.01.53q-.02.56.54.68l6.19 1.28a.74.74 0 0 0 .87-.55l.77-3.16q.1-.42-.12-.78-.11-.17-.25-.29-.62-.5.16-.64.42-.08.66-.56a.8.8 0 0 0 .07-.21q.6-3.37.92-7.3a.25.25 0 0 1 .15-.21l.39-.17a.38.38 0 0 1 .52.4l-1.15 8.8q-.26 2.05 1.3.69 2.47-2.14 4.59-4.57.36-.4 0-.81l-4.24-4.81q-.14-.17-.05-.36l.23-.47q.16-.34.4-.06l3.75 4.34q.35.41.88.38 1.4-.05 2.42-1.11.21-.21.45-.03l.21.17q.07.06.02.14-1.12 1.57-2.54 2.82-1.47 1.3-2.79 2.6-10.63 10.51-18.03 23.54-.41.71-.61-.09-.02-.1-.09-.17-.1-.11-.23-.17-.29-.1-.54.08-.37.26-.17.68 1.05 2.16 2.74 3.6.31.26.49.63.56 1.13 1.68 1.85.2.12.08.32l-.14.24q-.17.29-.48.15-1.26-.59-2.45-.21-.31.11-.52.36-.3.37-.05.56.14.11.32.06.43-.12.81.12.64.4-.11.45-1.95.13-3.17 1.55-.53.62.23.36l3.76-1.26q.64-.22 1.15.22l1.79 1.56a.88.88 0 0 1 .21 1.04l-1.41 2.86q-.23.47-.74.6zm15.23-36.31q.32-.26.29-.66-.03-.33-.31-.14-.37.25-.3.68.05.34.32.12m-12.144 16.494a.88.37-25.3 0 0-.954.041.88.37-25.3 0 0-.638.711.88.37-25.3 0 0 .954-.041.88.37-25.3 0 0 .638-.711"/><path fill="#fff" d="M175.21 98.86c-.34-1.43-.15-3.91.1-5.16q.2-1 .4 0 .5 2.52.08 5.14-.24 1.48-.58.02"/><path d="m241.51 93.73 4.47 4.22-.58 3.28q-.09.55-.62.73-.38.13-.61.53-.28.48.24.28 2.43-.96 2.56-4.16l6.34 4.43-5.02-.1q-.3-.01-.27-.31l.02-.3q.01-.09.1-.1 1.29-.08 1.6-1.04.26-.77-.43-.33l-2.32 1.49q-.55.36-.01.72 2.5 1.66 5.86.88.14-.03.19.1l.09.24q.16.39-.26.44-3.61.47-6.71-1.25-.45-.26-.88.05l-6 4.33q-1.05.75.21.46c1.93-.44 3.61-2 5.11-3.32a1.05 1.02 29.2 0 1 .89-.24l6.81 1.3a.38.38 0 0 1 .3.46q-.32 1.34-1.3 1.89-.06.03-.01.07l.19.19q.22.22.43-.02l1.9-2.16q.39-.44.96-.33 3.17.57 5.75-1.07.53-.13.9.01 1.2.38 1.41 1.07.16.52-.37.65-5.9 1.4-11.12 4.47-.16.09-.07.26v.01q.1.17.28.09 4.82-2.26 10.18-3.53 1.16-.27.69.82l-1.61 3.71a1.56 1.56 0 0 1-1.37.94q-4.5.21-8.4-.42a1.64 1.6 1.9 0 1-1.37-1.43q-.02-.18-.19-.15h-.02q-.19.03-.13.21.34 1 .96 1.89.34.49.93.56 4.07.44 7.94.36.25-.01.47.12.15.08.08.23-.39.75.41.49 1.93-.63 3.85-1.41.2-.08.3.1l.16.28q.04.06-.02.09-2.34 1.18-4.78 2.06-.12.05-.25.03-.16-.03-.27-.13-.23-.22-.45.01c-.9.95-1.75 1.9-2.84 2.65q-6.04 4.13-11.11 8.39c-1.46 1.23-2.63 2.74-4.05 4.07q-2.04 1.92-2.99 3.17-2.01 2.61-4.01 5.58l-5.48 2.05q-3.35-1.88-2.45.41l-9.25 1.01q-.63-.98-.82-2.09-.13-.72.6-.63l4.34.59q.23.03.24-.2l.02-.54q.02-.31-.29-.34l-5.73-.58q-.52-.06-.53.47-.01.88.36 1.75a.31.3-24.5 0 1-.16.41q-.34.14-.45-.1-.24-.55-.76-.26-.47.27-.57.87-.08.49.38.29.81-.36 1.17.46l-3.71-.01q.61-1.77 2.13-3.07.81-.7-.29-.9-.19-.03-.33-.15-.58-.5-.86.22l-1.47 3.88q-5.17.18-10.24-1.06c1.67-2.07 5.93-1.84 8.24-1.72q4.06.22.7-2.07-1.5-1.01-3.02-2.08-.58-.4-.16-.97l3.76-5.14a.56.5 66.4 0 0 .11-.33q-.02-.85.85-.77 2.72.23 5.71.26.62.01.93-.52 1.61-2.82 4.11-5.48.85-.92 1.16-2.12.16-.66-.32-.18-1.75 1.74-3.4-.11-.35-.39-.84-.21-1.76.63-3.32-.96-.7-.72.3-.6 2.83.31 5.61.47 1.18.07 2.07.67a.6.6 0 0 0 .67.01q1.23-.81 1.63-2.24.2-.73-.38-.24-.6.51-1.07 1.12-.32.42-.84.39l-5.43-.24a1.63 1.63 0 0 1-1.4-2.33c.9-1.85 2.82-4.64 4.84-5.48q.49-.2.48-.72 0-.72.72-.67 2.72.19 4.09-1.73.31-.44.8-.22.37.17.77.06.61-.17.15-.61-.7-.66-1.63-.46a.34.33-21.4 0 0-.22.49q.09.15.09.32a.09.08-9.7 0 1-.06.08q-.97.32-1.98.32-.74.01-.15-.44.61-.46 1.37-.71.52-.17.68-.69.26-.82 1.11-1.18a.48.47-23.4 0 1 .61.24q.1.21.31.25.36.07.46-.29l.58-2.16q.15-.56.72-.47.25.04.35.28a.08.07-43.8 0 0 .13 0c1.8-3.04 3.48-3.27 6.18-4.44q.53-.23.5-.8-.02-.32.08-.6.17-.49.6-.79zm-10.23 13.14c1.26-1.28 4.39-1.84 6.07-2.78q.59-.32.69-.98l.19-1.12q.11-.66-.53-.86-.3-.08-.33-.44-.07-.64.53-.42.28.11.47.33.44.52.39-.16-.06-.81-.89-1.16-1.05-.43-2.08.08-4 1.98-6.96 6.44-.25.37.12.63l1.43 1q.42.3.75.7.6.74 1.6.87.42.06.63.43.44.82 1.24.37 1.72-.96 3-2.61.49-.62-.23-.29l-1.66.78q-.5.24-1-.01-1.54-.77-3.25-.46-.61.11-.18-.34m9.04-4.98-.44.05q-.55.07-.38.6.06.18.23.27.4.23.81.11 1.23-.35 2.56-.92.71-.3-.01-.58l-3.04-1.19q-.11-.04-.14.07l-.09.26q-.14.4.27.53.21.07.39.21.65.5-.16.59m-.15 3.22q-.56.12-.74.67-.22.67.35.26l3.52-2.59q.65-.47-.15-.45-1.41.05-1.97 1.31-.3.66-1.01.8m-3.76 4.8q-.41.08-.53.34a.33.33 0 0 0 .3.47q.36 0 .61-.25a.32.32 0 0 0-.06-.5q-.15-.09-.32-.06m7.76 2.7a.45.45 0 0 0-.299-.562l-5.18-1.594a.45.45 0 0 0-.562.298l-.018.058a.45.45 0 0 0 .298.562l5.18 1.594a.45.45 0 0 0 .563-.298zm-11.63-1.86q-.79.05-1.44.66-.54.51.2.49.87-.01 1.46-.72.38-.46-.22-.43m12.49 2.38a.15.14 48 0 0-.01.27q1.31.59 2.55-.58.68-.64-.22-.38zm-18.21 3.8q1.62-1.94 3.35-3.59.93-.87-.25-.38-2.5 1.03-3.95 4.01-.42.85.39.36.26-.16.46-.4m21.45-3.49q-.03.07.02.13.1.12.2 0 .07-.07.01-.15-.13-.19-.23.02m-24.52 2.42c-.89-.56-1.74-1.32-2.63-1.75q-.84-.4-.23.31 1.38 1.6 3.52 2.56 1 .46.26-.37-.38-.42-.92-.75m12.25 4.58q-.76.86-1.31 1.81-.19.32.17.43l.39.13q.19.06.28-.12c1.22-2.26 4.92-4.69 6.91-6.29q.1-.08.02-.19l-.16-.2q-.16-.19-.36-.04-2.5 1.85-5.24 3.28-.41.21-.47.67-.03.3-.23.52m-2.95-1.3q.65.17 1.29.18.73.01.02-.19-1.92-.53-3.75-.21-.47.08-.89-.15-.71-.4-1.53-.41-.77-.01-.08.31 1.98.94 3.94.46a1.93 1.91 45.3 0 1 1 .01m.82 2.852a.37.37 0 0 0-.3-.428l-7.8-1.376a.37.37 0 0 0-.429.3l-.01.06a.37.37 0 0 0 .3.428l7.8 1.376a.37.37 0 0 0 .428-.3zm11.918 3.387a.45.45 0 0 0-.3-.561l-7.883-2.395a.45.45 0 0 0-.562.3l-.012.038a.45.45 0 0 0 .3.561l7.884 2.395a.45.45 0 0 0 .562-.3zM222.68 128.2q-.35-.21-.77.06a.61.61 0 0 0-.28.43q-.11.88-.86 1.36-.66.43.12.56 2.66.45 5.35.02a.27.27 0 0 1 .29.18l.15.44a.42.42 0 0 0 .71.15q3.53-3.76 5.15-6.57 1.1-1.91-.49-.39-.97.94-2.21 2.15-.85.83-1.53.24-.29-.25-.65-.38l-3.81-1.38a.76.76 0 0 0-.72.11q-.6.43-.77 1.14-.14.58.38.87l.46.25q.24.13.25.4.01.17-.12.29-.3.29-.65.07m-1.46-3.53-.51 1.26q-.33.82.37.28.78-.58.5-1.53-.15-.51-.36-.01m14.63 4.98c2.29-.05 5.94-.22 7.32-2.05q.52-.67-.32-.52-4.58.8-9.19.44a1.2 1.2 0 0 0-1 .4q-.76.82-.56 1.93.1.53.58.77 1.25.62 2.83.34.15-.03.21.11l.18.38q.17.35-.22.39-2.26.23-3.93-.6-.26-.13-.38.14l-.1.23a.4.39-69.7 0 0 .24.53q2.52.79 5.53 1.34.21.04.29-.17.1-.28-.2-.32-.56-.08-.83-.56-.38-.68.37-.45 1.16.37 1.97-.22.9-.66-.22-.66-1.68 0-2.76-.9-.62-.53.19-.55m-17.85.73q1.17-.1 1.77-1.14.41-.72-.39-.51-1.1.28-1.65 1.22-.27.47.27.43m12.33-.92a.19.18-87.9 0 0 .21.23q.17-.03.21-.19.04-.21-.17-.22-.2-.01-.25.18m-17.71 4.46q-.37-.05-.27-.36.55-1.74 1.98-1.04.51.25.77-.25l.13-.26a.41.41 0 0 0-.14-.53q-1.15-.76-2.08.2-.39.4-.8.02-1.06-.99-2.47-.71-.81.15-.09.57l.46.26a1.71 1.69-.5 0 1 .62.6q1.88 3.03 2.57 6.16.08.35.44.31l.26-.04a.28.27-7.5 0 0 .24-.3c-.12-1.37-.96-2.12-1.16-3.43q-.09-.57.38-.94a2.6 2.34-88.7 0 0 .46-.49q.19-.28-.04-.51-.37-.36-.65.07l-.38.57a.22.22 0 0 1-.23.1m16.82-2.8q-.89.34.01.63.19.06.35-.07.28-.23.02-.48-.17-.16-.38-.08m-11.16 2.59q-.84-.65-1.1-.91-1.73-1.77-.86.55.19.5 1.96.36.11 1.01.88 1.3.38.14.82.07.35-.05.47.29.24.68-.44.44-1.2-.4-2.39-.49-.85-.06-.15.43c1.39.97 4.05 1.31 4.65 2.66q.28.61.63.04l3.82-6.15q.08-.13-.05-.23l-.21-.17q-.05-.03-.11.06l-1.43 1.89a.88.88 0 0 1-1.24.17q-1.69-1.29-3.49-1.95-1.08-.39-.31.46 1.05 1.18 2.7 1.85.12.05.19.17.1.2-.08.39a.29.28 31.9 0 1-.28.06zm-3.23.38q-.58.15-.12.54.57.47 1.31.53.42.04.39-.38l-.03-.32q-.06-.73-.78-.56zm10.29 3.47q.18-.02.34.04.58.2.98-.27.71-.85.14-1.7-.41-.61-.84-.02l-1.39 1.91q-.35.48.24.58.34.05.3-.24-.04-.27.23-.3m8.517.56a.61.61 0 0 0-.506-.7l-4.78-.765a.61.61 0 0 0-.698.506l-.01.06a.61.61 0 0 0 .506.698l4.78.766a.61.61 0 0 0 .698-.506zm-1.557 1.58q1.01-.14.04-.46-1.31-.42-2.98-.13-.74.13-.03.36 1.43.45 2.97.23m-10.3.97q-.64-.06-.25.45.88 1.15 2.25.8.82-.21.08-.6-.99-.54-2.08-.65"/><path fill="#fff" d="m135.76 98.91-2.24.62-7.16-.36q-.65-.03-.22-.51l3.8-4.28q.44-.5.8.06 1.88 2.95 5.02 4.47"/><path d="M162.52 98.53q-.53-1-.62-1.87l2.77-2.34q.42-.34.51.19.05.22-.07.4-.4.57.07 1.08.91.98.76 2.43-.08.71-.71.38-1.79-.97-2.71-.27m1.89-1.8q-.69-.29-.29.35.1.16.29.12.24-.05.17-.28-.04-.14-.17-.19"/><path fill="#fff" d="M164.41 96.73q.13.05.17.19.07.23-.17.28-.19.04-.29-.12-.4-.64.29-.35"/><path d="M202.59 96.75q.69.27.76 1.08.04.51-.33.16-.4-.39-.69-.94-.26-.5.26-.3M198.94 103.57q-.05.13-.06.27a.01.01 0 0 1-.02 0q.02-3.18 1.28-6.43.1-.25.38-.26.06-.01.11.01.14.07.11.22-.63 3.21-1.8 6.19"/><path fill="#fff" d="M246.97 98.61q-.13 3.2-2.56 4.16-.52.2-.24-.28.23-.4.61-.53.53-.18.62-.73l.58-3.28q.76.31.99.66"/><ellipse rx="1.75" ry=".5" transform="rotate(54.2 4.757 250.308)"/><path fill="#fff" d="M225.08 103.28q-.31.52-.87.75-.65.28-.33-.35.27-.53.82-.77a1.68 1.66 4 0 0 .78-.67q1.15-1.88 3.07-2.85 1.13-.57.44.49-1.14 1.77-3.14 2.71a1.8 1.78 2.9 0 0-.77.69M231.46 107.21q1.71-.31 3.25.46.5.25 1 .01l1.66-.78q.72-.33.23.29-1.28 1.65-3 2.61-.8.45-1.24-.37-.21-.37-.63-.43-1-.13-1.6-.87-.33-.4-.75-.7l-1.43-1q-.37-.26-.12-.63 2.96-4.46 6.96-6.44 1.03-.51 2.08-.08.83.35.89 1.16.05.68-.39.16-.19-.22-.47-.33-.6-.22-.53.42.03.36.33.44.64.2.53.86l-.19 1.12q-.1.66-.69.98c-1.68.94-4.81 1.5-6.07 2.78q-.43.45.18.34m2.876 1.238a.37.25-31.3 0 0-.446-.022.37.25-31.3 0 0-.186.406.37.25-31.3 0 0 .446.022.37.25-31.3 0 0 .186-.406"/><path d="M220.07 99.82q.28-.7 1.01-.67a.36.36 0 0 1 .28.57q-.37.51-.93.58-.59.07-.36-.48M121.57 99.76q-.08-.01-.15-.07-.06-.05.02-.08.08-.04.17 0 .5.21-.04.15M114.51 100.87l4.01-.07q.09 0 .06.09l-.14.39q-.02.07-.1.07-2.49.07-4.72.96-.45.18-.51-.3l-.15-1.26q-.09-.73.58-.44.17.07.27.21.26.36.7.35"/><path fill="#fff" d="M219.65 104.81q.03-.79.34-1.42.27-.53.79-.25.76.4.64 1.18a.99.98 83.5 0 1-.59.75q-1.09.46-1.85 1.34-.34.4-.53-.08-1.11-2.78-1.2-5.28-.06-1.42 1-.47 1.54 1.39.69 3.8-.14.39.21.61.11.07.24.07.25.01.26-.25M240.48 101.3q-.18-.14-.39-.21-.41-.13-.27-.53l.09-.26q.03-.11.14-.07l3.04 1.19q.72.28.01.58-1.33.57-2.56.92-.41.12-.81-.11-.17-.09-.23-.27-.17-.53.38-.6l.44-.05q.81-.09.16-.59"/><ellipse fill="#fff" rx="1.66" ry=".53" transform="rotate(88.4 35.188 141.28)"/><path fill="#fff" d="M253.31 103.04q1.16-.09 1.9.62-.59.36-.73.77-.19.54.36.66 2.36.52 4.72-.21.31.15.95.21-2.58 1.64-5.75 1.07-.57-.11-.96.33l-1.9 2.16q-.21.24-.43.02l-.19-.19q-.05-.04.01-.07.98-.55 1.3-1.89a.38.38 0 0 0-.3-.46l-6.81-1.3a1.05 1.02 29.2 0 0-.89.24c-1.5 1.32-3.18 2.88-5.11 3.32q-1.26.29-.21-.46l6-4.33q.43-.31.88-.05 3.1 1.72 6.71 1.25.42-.05.26-.44l-.09-.24q-.05-.13-.19-.1-3.36.78-5.86-.88-.54-.36.01-.72l2.32-1.49q.69-.44.43.33-.31.96-1.6 1.04-.09.01-.1.1l-.02.3q-.03.3.27.31z"/><path d="M122.91 101.82q-.68.1-.93-.16.07-.32.5-.31.33.01.43.47"/><path fill="#fff" d="M173.3 101.4a.17.17 0 0 1 .26.05q.23.46-.17.83-.61.56-.48-.25.05-.31.39-.63"/><path d="M109.8 103.29q-1.18.43-2.35.29-.56-.07-.41-.61l.11-.43q-.01.13.05.26.05.11.17.08l3.98-1.32q.35-.11.41.25l.08.49q.03.2-.16.28z"/><path fill="#fff" d="M188.74 101.87a.06.06 0 0 1 .07.07q-.02.12-.13.2-.1.07-.22.05-.54-.07.28-.32M241.18 104.31q.56-1.26 1.97-1.31.8-.02.15.45l-3.52 2.59q-.57.41-.35-.26.18-.55.74-.67.71-.14 1.01-.8M173.69 103.62q-.15-.02-.18-.17-.03-.12.1-.13.12 0 .19.1.19.24-.11.2"/><path d="M259.56 104.88q-2.36.73-4.72.21-.55-.12-.36-.66.14-.41.73-.77zM287.47 105.71l-9.35-.53q1.99-1.19 2.88-1.11 1.97.17 6.47 1.64"/><path fill="#fff" d="M208.19 105.44q-.07-.43.3-.68.28-.19.31.14.03.4-.29.66-.27.22-.32-.12M219.6 107.35l2.87-2.44q.16-.14.32.01l.21.2q.14.13 0 .25l-2.77 2.47q-.25.22-.45-.05l-.2-.26a.13.13 0 0 1 .02-.18M265.98 105.29q.91 1.02 2.02.18 2.26.12 4.61.41 1.33.16 2.74-.19 1.46-.35 2.77-.51l9.35.53 1.25.37q-.38 1.31-1.86 1.11-.24-.04-.23.2v.01q.01.24.25.22 2.14-.11 4.13-.95 4.36 1.15 7.83 2.74 2.25 1.03 4.47 2.91.38.32.37.82l-.09 3.32q-.22.26-.39.08c-1.28-1.34-3.3-2.99-4.13-4.71-.87-1.82-4.72-2.76-6.47-3.2q-2.18-.54-5.17-.01-7.85 1.39-15.49 4.97-.46.22-.87-.07-.38-.26-.82-.12-7.31 2.27-14.27 7.04-.57.4.08.65.22.08.12.28-.16.38-.49.61-2.66 1.94-5.83 3.97a.52.52 0 0 0 .1.93l.93.34-.42.87q-1.73-1.61-3.78-.95-.24.08-.29.32-.1.43.31.63a5.52 4.87 61.1 0 0 .92.33q.56.15 1.06.5.79.55-.17.44l-3.16-.34q-.57-.06-.98.34l-1.95 1.89q-.76.74.28.91l4.14.65q-.42.77-1.11 1.06-2.74-.95-4.88-.8-.25.01-.38.18-.25.33.14.49l3.34 1.38q-.57.58-.89.71-1.54-1.08-3.3-1.14-.51-.02-.88.34-3.11 3.09-.39 3.04-1.88 1.55-4.85 2.27 2-2.97 4.01-5.58.95-1.25 2.99-3.17c1.42-1.33 2.59-2.84 4.05-4.07q5.07-4.26 11.11-8.39c1.09-.75 1.94-1.7 2.84-2.65q.22-.23.45-.01.11.1.27.13.13.02.25-.03 2.44-.88 4.78-2.06.06-.03.02-.09l-.16-.28q-.1-.18-.3-.1-1.92.78-3.85 1.41-.8.26-.41-.49.07-.15-.08-.23-.22-.13-.47-.12-3.87.08-7.94-.36-.59-.07-.93-.56-.62-.89-.96-1.89-.06-.18.13-.21h.02q.17-.03.19.15a1.64 1.6 1.9 0 0 1.37 1.43q3.9.63 8.4.42a1.56 1.56 0 0 0 1.37-.94l1.61-3.71q.47-1.09-.69-.82-5.36 1.27-10.18 3.53-.18.08-.28-.09v-.01q-.09-.17.07-.26 5.22-3.07 11.12-4.47.53-.13.37-.65-.21-.69-1.41-1.07zm-1.43 1.49q.03-.09.05-.18.02-.08-.04-.13-.14-.13-.09.06.02.09.02.18-.04.35.06.07m4.37 4.64a.74.74 0 0 0 1.02.71l1.76-.72a.74.74 0 0 0 .43-.47l1.05-3.57a.74.74 0 0 0-.76-.94l-2.68.17a.74.74 0 0 0-.69.71zm7.7-5.22a.57.57 0 0 0-.59.42l-.79 3.21a.29.29 0 0 0 .36.35q3.38-.96 6.77-1.98.37-.11.64-.39.21-.23.27-.51a.52.51-81 0 0-.46-.64zm-2.52 1.8q-.13.3-.02.63.17.5.45.06.57-.87.19-1.93-.22-.63-.5-.02-.16.35-.08.79.05.24-.04.47m-10.72 4.64a.5.5 0 0 0 .54.7l3.59-.61a.5.5 0 0 0 .42-.48l.13-4.84a.5.5 0 0 0-.61-.5l-1.5.34a.5.5 0 0 0-.35.29zm-.18-2.04q.74-.82.72-1.91a.3.29-8.2 0 0-.38-.28l-.25.07q-.08.03-.08.11.02 1.66-.94 2.91-.15.21-.03.44.07.13.22.15a.26.25-76.5 0 0 .26-.17l.37-1.13a.65.5 82.5 0 1 .11-.19m10.35.07q.51-.39.52-.97a.27.27 0 0 0-.41-.23q-.59.37-.53 1.01a.26.26 0 0 0 .42.19"/><path d="M268 105.47q-1.11.84-2.02-.18 1 .39 2.02.18M210.94 119.81q-1.46 3.12-3.85 5.57-.43.45-.09.97.64 1 1.77 1.8.23.15.07.37l-.16.22q-.07.11-.17.02-3.32-2.74-5.83-6.43-.14-.21-.36-.08l-.37.23q-.07.04-.04.12 1.13 2.77 3.47 4.33.67.45.23 1.12l-1.93 2.93q-.34.51-.95.41-1.15-.18-2.27.25-.54.22-.95-.2l-2.41-2.45a3.06 3.05 40.2 0 1-.33-3.89c1.68-2.42 2.57-4.89 5.5-6.07q.78-.31.16-.88-.11-.11-.2-.24-.29-.45.14-.78.35-.27.8-.3a.85.84 7.3 0 0 .74-.57q.85-2.57 2.55-4.95.03-.05.09-.03l.23.1q.05.03.03.09-1.06 2.53-1.84 4.67-.54 1.48.74.57l7.01-5q.98-.7-.23-.72l-5.24-.07a.25.25 0 0 1-.24-.25v-.38q0-.1.11-.11l6.77-.42q.22-.01.31-.21.08-.18-.03-.29-.15-.15-.37-.15-2.04 0-4.16-.09-.41-.02-.41-.42v-.28q0-.26.26-.27l2.24-.06q.87-.02.17-.54-.63-.46-1.09-1.23-.36-.59.29-.35c2.05.76 2.56 2.93 5.21 2.26q.51-.13.52.4.06 1.78-1.16 2.45c-2.74 1.5-5.31 3.66-7.9 5.44q-.46.32-.02.67 2.32 1.84 4.41-.23.72-.71-.2-.29-.37.17-.7.35-.29.16-.41-.14l-.16-.38q-.11-.27.17-.35 2.86-.76 4.52-3.12.13-.18.34-.15.05.01.09.03.14.07.08.2-1.61 3.75-4.71 6.48-.15.13-.24.32m-4.61-2.33q.2-.11.41-.21-.21.1-.41.21m-1.68 1.846a.48.39-33.4 0 0-.615-.062.48.39-33.4 0 0-.186.59.48.39-33.4 0 0 .616.062.48.39-33.4 0 0 .186-.59m-3.33 2.014a.25.25 0 0 0-.32-.31q-.33.12-.54.35-.31.34.14.38.57.06.72-.42m1.68-.11a.11.11 0 0 0-.08.19l2.91 3.33q.37.42.83.09.34-.25.35-.71.04-1.48-.89-2.78-.14-.2-.39-.19zM291.01 106.67q-1.99.84-4.13.95-.24.02-.25-.22v-.01q-.01-.24.23-.2 1.48.2 1.86-1.11 1.16.02 2.29.59M264.49 106.71q0-.09-.02-.18-.05-.19.09-.06.06.05.04.13-.02.09-.05.18-.1.28-.06-.07M268.92 111.42l.13-4.11a.74.74 0 0 1 .69-.71l2.68-.17a.74.74 0 0 1 .76.94l-1.05 3.57a.74.74 0 0 1-.43.47l-1.76.72a.74.74 0 0 1-1.02-.71M276.62 106.2l6.2.46a.52.51-81 0 1 .46.64q-.06.28-.27.51-.27.28-.64.39-3.39 1.02-6.77 1.98a.29.29 0 0 1-.36-.35l.79-3.21a.57.57 0 0 1 .59-.42M274.14 107.53q-.08-.44.08-.79.28-.61.5.02.38 1.06-.19 1.93-.28.44-.45-.06-.11-.33.02-.63.09-.23.04-.47M263.38 112.64l2.22-5.1a.5.5 0 0 1 .35-.29l1.5-.34a.5.5 0 0 1 .61.5l-.13 4.84a.5.5 0 0 1-.42.48l-3.59.61a.5.5 0 0 1-.54-.7"/><path fill="#fff" d="m179.71 108.77 3.94 2.98q.54.4-.02.78-1.73 1.18-3.94 1.63-.57.12-.72-.45-.55-2.14-1.09-4.46-.1-.41.05-.8.2-.49.61-.16.55.44 1.17.48"/><path d="M174.93 108.22q1.39.46 1.01 1.84-.15.53-.56.17-.48-.41-.45-2.01M198.52 108.96q-.17-.14-.17-.33a.18.17-73 0 1 .27-.15q.22.14.14.41-.06.22-.24.07"/><ellipse rx=".37" ry=".25" transform="rotate(-31.3 310.909 -363.355)"/><path d="m263.09 110.79-.37 1.13a.26.25-76.5 0 1-.26.17q-.15-.02-.22-.15-.12-.23.03-.44.96-1.25.94-2.91 0-.08.08-.11l.25-.07a.3.29-8.2 0 1 .38.28q.02 1.09-.72 1.91a.65.5 82.5 0 0-.11.19M303.59 116.46q.36.83.22 1.56-4.96-.54-9.26-.11-1.83.19-.1.84 2.82 1.06 5.8 2.75.51.29.76.86.36.85-.44.4-3.14-1.77-6.47-3.02-1.96-.73-.7.94 1.12 1.48 2.61 2.76.33.28.04.6l-.18.21q-.14.17-.31.02l-4.05-3.79q-.15-.14-.26.04-.07.11 0 .28.07.15.21.24.89.58.4 1.86a.48.48 0 0 1-.88.04q-.23-.45-.14-.95.18-.98-.28-.1-.39.76-.6 1.59-.45.11-.98-.07l1.31-3.69a.86.86 0 0 0-.62-1.13l-.47-.1q-.78-.18-1.09.56-.87 2.12-1.03 4.55-.39.28-1.19.05l.98-4.12q.22-.92-.46-.25-.69.68-1.63.79a1.55 1.54-77.9 0 0-1.14.74q-.76 1.32-2.23 1.23a1.34 1.33 22.9 0 0-1.07.43q-.41.45-.95.56-.59.12-.16-.29.57-.55 1.29-.86.54-.24.88-.72l.41-.58q.49-.69-.31-.4-3.35 1.2-4.29 4.51l-13.17 1.64q.29 0 .35-.32a.92.92 0 0 0-.57-1.04q-.8-.32-1.2 1.09-6.43-.9-10.62-.81-1.12.03-1.11 1.97l-.93-.34a.52.52 0 0 1-.1-.93q3.17-2.03 5.83-3.97.33-.23.49-.61.1-.2-.12-.28-.65-.25-.08-.65 6.96-4.77 14.27-7.04.44-.14.82.12.41.29.87.07 7.64-3.58 15.49-4.97 2.99-.53 5.17.01c1.75.44 5.6 1.38 6.47 3.2.83 1.72 2.85 3.37 4.13 4.71q.17.18.39-.08m-20.81-.68.76.24a.2.2 0 0 0 .25-.12l.04-.13a5.73.26-71.9 0 0 1.53-5.52l-.64-.22a5.73.26-71.9 0 0-2.03 5.37l-.04.12a.2.2 0 0 0 .13.26m-1-.39q1.51-1.62 1.49-3.96a.37.37 0 0 0-.72-.1l-1.46 4.85q-.13.44.29.24.39-.2.29-.6a.48.46-31.7 0 1 .11-.43m12.41.51q-.38 1.07.75.97 3.06-.28 6.27-.02.88.07.28-.57l-3.27-3.52q-.39-.42-.91-.19-2.3 1.05-3.12 3.33m-20.85-2.29q-.45.42-.57 1.04-.09.49.31.18.6-.46.52-1.13a.15.15 0 0 0-.26-.09m-5.65 1.84q0 .29.27.21.17-.04.18-.23.03-.28-.24-.24-.22.04-.21.26m3.07-.12q-.34.2-.35.63 0 .41.35.2.46-.27.31-.71a.21.21 0 0 0-.31-.12m22.862.257a1.07.27-30.5 0 0-1.059.31 1.07.27-30.5 0 0-.785.776 1.07.27-30.5 0 0 1.059-.31 1.07.27-30.5 0 0 .785-.776m-26.562 7.463q-.55 1.12-1.68 1.1-.47-.01-.25.41l.15.28a.14.14 0 0 0 .15.07c3.03-.46 5.91-5.77 6.96-8.34a.23.23 0 0 0-.4-.21q-.65 1.02-1.71.89-.6-.07-.91.45l-2.6 4.39q-.1.17-.27.08l-.28-.14q-.21-.11-.12-.33l1.78-4.26a.25.25 0 0 0-.2-.34l-.37-.05a.33.33 0 0 0-.34.19l-2.4 5.5q-.23.53.32.36l1.77-.53q.74-.23.4.48m23.52-6.25.18-.38zm-9.1.8q-.19-.01-.27-.15-.37-.67-.69.02-.35.76-.75 1.65-.25.54.25.22l1.11-.72q.36-.23.79-.18 1.09.12 1.23-1.06a.45.44 82.8 0 0-.6-.47q-.46.18-.8.58-.11.12-.27.11M165.08 109.92q-.14-.34-.1-.86 1.51.17 1.84 1.36.16.6-.44.44-.63-.16-1.3-.94M273.55 110.67a.26.26 0 0 1-.42-.19q-.06-.64.53-1.01a.27.27 0 0 1 .41.23q-.01.58-.52.97"/><path fill="#fff" d="M236.41 109.91q.17-.03.32.06a.32.32 0 0 1 .06.5q-.25.25-.61.25a.33.33 0 0 1-.3-.47q.12-.26.53-.34"/><rect width="6.32" height=".96" x="-3.16" y="-.48" fill="#fff" rx=".45" transform="rotate(17.1 -250.946 857.82)"/><path fill="#fff" d="M282.78 115.78a.2.2 0 0 1-.13-.26l.04-.12a5.73.26-71.9 0 1 2.03-5.37l.64.22a5.73.26-71.9 0 1-1.53 5.52l-.04.13a.2.2 0 0 1-.25.12zM232.54 110.75q.6-.03.22.43-.59.71-1.46.72-.74.02-.2-.49.65-.61 1.44-.66"/><ellipse rx=".53" ry=".37" transform="rotate(-33.7 281.363 -265.242)"/><path fill="#fff" d="M281.67 115.82q.1.4-.29.6-.42.2-.29-.24l1.46-4.85a.37.37 0 0 1 .72.1q.02 2.34-1.49 3.96a.48.46-31.7 0 0-.11.43M245.03 113.13l2.32-.69q.9-.26.22.38-1.24 1.17-2.55.58a.15.14 48 0 1 .01-.27M294.19 115.9q.82-2.28 3.12-3.33.52-.23.91.19l3.27 3.52q.6.64-.28.57-3.21-.26-6.27.02-1.13.1-.75-.97M226.82 116.93q-.2.24-.46.4-.81.49-.39-.36 1.45-2.98 3.95-4.01 1.18-.49.25.38-1.73 1.65-3.35 3.59M248.27 113.44q.1-.21.23-.02.06.08-.01.15-.1.12-.2 0-.05-.06-.02-.13M273.34 113.61a.15.15 0 0 1 .26.09q.08.67-.52 1.13-.4.31-.31-.18.12-.62.57-1.04M223.75 115.86q.54.33.92.75.74.83-.26.37-2.14-.96-3.52-2.56-.61-.71.23-.31c.89.43 1.74 1.19 2.63 1.75"/><path d="M169.29 114.52a.2.2 0 0 1-.01.21q-.16.23-.19-.15-.01-.12.11-.11.06 0 .09.05"/><path fill="#fff" d="M179.85 116.8q-.05-.37-.22-.73-.32-.66.37-.91l1.53-.55q.91-.32.41.5l-1.15 1.88q-.73 1.19-.94-.19M267.69 115.45q-.01-.22.21-.26.27-.04.24.24-.01.19-.18.23-.27.08-.27-.21M270.76 115.33a.21.21 0 0 1 .31.12q.15.44-.31.71-.35.21-.35-.2.01-.43.35-.63"/><ellipse fill="#fff" rx="1.07" ry=".27" transform="rotate(-30.5 359.33 -478.74)"/><ellipse fill="#fff" rx="1.63" ry=".55" transform="rotate(73.4 10.478 178.453)"/><path fill="#fff" d="M236 120.44q.2-.22.23-.52.06-.46.47-.67 2.74-1.43 5.24-3.28.2-.15.36.04l.16.2q.08.11-.02.19c-1.99 1.6-5.69 4.03-6.91 6.29q-.09.18-.28.12l-.39-.13q-.36-.11-.17-.43.55-.95 1.31-1.81M176.15 116.57q.07-.3.37-.22.42.11.29.51a.38.37 11.2 0 1-.4.26q-.37-.04-.26-.55M266.66 122.57l-1.77.53q-.55.17-.32-.36l2.4-5.5a.33.33 0 0 1 .34-.19l.37.05a.25.25 0 0 1 .2.34l-1.78 4.26q-.09.22.12.33l.28.14q.17.09.27-.08l2.6-4.39q.31-.52.91-.45 1.06.13 1.71-.89a.23.23 0 0 1 .4.21c-1.05 2.57-3.93 7.88-6.96 8.34a.14.14 0 0 1-.15-.07l-.15-.28q-.22-.42.25-.41 1.13.02 1.68-1.1.34-.71-.4-.48m2.93-3.46q-.16.09-.22.26-.28.89.38.23.47-.46.71-1.09.15-.38-.22-.19-.32.17-.44.54-.06.17-.21.25M290.58 116.8l.18-.38zM281.75 117.49q.34-.4.8-.58a.45.44 82.8 0 1 .6.47q-.14 1.18-1.23 1.06-.43-.05-.79.18l-1.11.72q-.5.32-.25-.22.4-.89.75-1.65.32-.69.69-.02.08.14.27.15.16.01.27-.11M169.3 125.59l-2.18-5.75 6.92-2.81q.59-.24 1.03.21l2.83 2.88a.57.56-45.4 0 1 0 .79l-5.3 5.44a.84.84 0 0 1-1.41-.35l-.44-1.48q-.23-.77-.78-.19-.39.4-.67 1.26m.04-5.02q-.31.95.11 1.89.34.78.46-.06.14-.93-.19-1.84-.2-.56-.38.01M206.33 117.48q.2-.11.41-.21-.21.1-.41.21M303.81 118.02q.26 2.32-.92 4.89-.29-.06-.66.09-.52.21-.18.66.2.26.75.46l-.43 2.73q-.3 1.9-1.88.81l-2.48-1.71q-.18-.68-.77-1.06-.35-.23-.56.13-.07.12-.12.3-3.1-1.93-6.6-1.84.21-.83.6-1.59.46-.88.28.1-.09.5.14.95a.48.48 0 0 0 .88-.04q.49-1.28-.4-1.86-.14-.09-.21-.24-.07-.17 0-.28.11-.18.26-.04l4.05 3.79q.17.15.31-.02l.18-.21q.29-.32-.04-.6-1.49-1.28-2.61-2.76-1.26-1.67.7-.94 3.33 1.25 6.47 3.02.8.45.44-.4-.25-.57-.76-.86-2.98-1.69-5.8-2.75-1.73-.65.1-.84 4.3-.43 9.26.11"/><path d="M190.17 120.25q-.02.24-.17.04-.55-.74-.81-1.56-.1-.29 0-.46.08-.12.23-.19.3-.14.43.17.39.93.32 2"/><path fill="#fff" d="M232.05 119.13q-1.96.48-3.94-.46-.69-.32.08-.31.82.01 1.53.41.42.23.89.15 1.83-.32 3.75.21.71.2-.02.19-.64-.01-1.29-.18a1.93 1.91 45.3 0 0-1-.01"/><path d="M269.8 118.86q.12-.37.44-.54.37-.19.22.19-.24.63-.71 1.09-.66.66-.38-.23.06-.17.22-.26.15-.08.21-.25"/><path fill="#fff" d="m288.98 123.41-1.9.19q.16-2.43 1.03-4.55.31-.74 1.09-.56l.47.1a.86.86 0 0 1 .62 1.13zM285.89 123.65l-8.68 1.04q.94-3.31 4.29-4.51.8-.29.31.4l-.41.58q-.34.48-.88.72-.72.31-1.29.86-.43.41.16.29.54-.11.95-.56a1.34 1.33 22.9 0 1 1.07-.43q1.47.09 2.23-1.23a1.55 1.54-77.9 0 1 1.14-.74q.94-.11 1.63-.79.68-.67.46.25z"/><ellipse fill="#fff" rx=".48" ry=".39" transform="rotate(-33.4 301.432 -280.605)"/><path d="m213 121.27 4.95 3.57q.45.33.15.8l-1.25 1.97q-.36.57-.8.06c-1.04-1.19-2.84-3.28-3.01-4.94q-.09-.86-.72-1.58-.28-.32-.16-.74.1-.34.43-.25.16.04.24.19.11.19.02.4a.45.45 0 0 0 .15.52M169.34 120.57q.18-.57.38-.01.33.91.19 1.84-.12.84-.46.06-.42-.94-.11-1.89"/><rect width="8.66" height=".8" x="-4.33" y="-.4" fill="#fff" rx=".37" transform="rotate(10 -578.261 1372.805)"/><path fill="#fff" d="M201.32 121.34q-.15.48-.72.42-.45-.04-.14-.38.21-.23.54-.35a.25.25 0 0 1 .32.31M203 121.23l2.73-.07q.25-.01.39.19.93 1.3.89 2.78-.01.46-.35.71-.46.33-.83-.09l-2.91-3.33a.11.11 0 0 1 .08-.19m2.39 1.25q-.21.09-.08.26a.27.27 0 0 0 .48-.07q.05-.17-.11-.21-.15-.03-.29.02"/><ellipse fill="#fff" rx=".88" ry=".37" transform="rotate(-25.3 370.527 -374.464)"/><path fill="#fff" d="m179.09 124.75-4.72 1.64q-.67.23-.17-.28l3.97-3.99a.33.32-30.3 0 1 .54.14l.62 2.03q.11.35-.24.46M180.47 122.43q.47.42.64 1.05a.37.37 0 0 1-.58.39q-.55-.42-.61-1.17-.07-.83.55-.27"/><path d="M186.7 123.72q-.75.11-.28-.49.69-.88 2-1.04.97-.12.28.57-.8.8-2 .96M217.3 122.18q.12-.02.04.08t-.2.03q-.09-.05-.12-.15-.04-.11.06-.05l.12.08q.05.02.1.01M205.68 122.46q.16.04.11.21a.27.27 0 0 1-.48.07q-.13-.17.08-.26.14-.05.29-.02M210.11 123.12q1.7-2.11 1.32.57-.14.97-1.63 2.93-.38.5-.7-.05c-.76-1.31.23-2.48 1.01-3.45"/><rect width="9.14" height=".94" x="-4.57" y="-.47" fill="#fff" rx=".45" transform="rotate(16.9 -296.873 874.54)"/><path d="M302.89 122.91q.3.57-.09 1.21-.55-.2-.75-.46-.34-.45.18-.66.37-.15.66-.09"/><path fill="#fff" d="M223.33 128.13q.13-.12.12-.29-.01-.27-.25-.4l-.46-.25q-.52-.29-.38-.87.17-.71.77-1.14a.76.76 0 0 1 .72-.11l3.81 1.38q.36.13.65.38.68.59 1.53-.24 1.24-1.21 2.21-2.15 1.59-1.52.49.39-1.62 2.81-5.15 6.57a.42.42 0 0 1-.71-.15l-.15-.44a.27.27 0 0 0-.29-.18q-2.69.43-5.35-.02-.78-.13-.12-.56.75-.48.86-1.36a.61.61 0 0 1 .28-.43q.42-.27.77-.06.35.22.65-.07m4.488 1.42a.41.41 0 0 0-.386-.433l-4.892-.273a.41.41 0 0 0-.433.386l-.005.1a.41.41 0 0 0 .386.432l4.893.274a.41.41 0 0 0 .432-.386z"/><path d="m212.16 129.39-1.52-1.17a.34.34 0 0 1-.1-.42l1.48-3.15a.34.34 0 0 1 .59-.05l2.84 4.05a.34.34 0 0 1-.25.54l-2.8.27a.34.34 0 0 1-.24-.07"/><path fill="#fff" d="M221.22 124.67q.21-.5.36.01.28.95-.5 1.53-.7.54-.37-.28z"/><path d="M298.01 125.95q-.79-.16-1.45-.63.05-.18.12-.3.21-.36.56-.13.59.38.77 1.06"/><path fill="#fff" d="m264.04 126.33-1.42-.27q.4-1.41 1.2-1.09a.92.92 0 0 1 .57 1.04q-.06.32-.35.32M235.66 130.2q1.08.9 2.76.9 1.12 0 .22.66-.81.59-1.97.22-.75-.23-.37.45.27.48.83.56.3.04.2.32-.08.21-.29.17-3.01-.55-5.53-1.34a.4.39-69.7 0 1-.24-.53l.1-.23q.12-.27.38-.14 1.67.83 3.93.6.39-.04.22-.39l-.18-.38q-.06-.14-.21-.11-1.58.28-2.83-.34-.48-.24-.58-.77-.2-1.11.56-1.93a1.2 1.2 0 0 1 1-.4q4.61.36 9.19-.44.84-.15.32.52c-1.38 1.83-5.03 2-7.32 2.05q-.81.02-.19.55"/><path d="M250.47 128.09q-.08.61-.73 1.14-.62-.14-.39.46l-2.5 3.12-4.14-.65q-1.04-.17-.28-.91l1.95-1.89q.41-.4.98-.34l3.16.34q.96.11.17-.44-.5-.35-1.06-.5a5.52 4.87 61.1 0 1-.92-.33q-.41-.2-.31-.63.05-.24.29-.32 2.05-.66 3.78.95M205 130.62q.71-.67 1.17-1.53.41-.78 1.05-.18.45.43.61.98.26.92-.68 1.08-.91.15-1.9.23-.95.07-.25-.58"/><path fill="#fff" d="M218 130.38q-.54.04-.27-.43.55-.94 1.65-1.22.8-.21.39.51-.6 1.04-1.77 1.14"/><rect width="5.72" height=".92" x="-2.86" y="-.46" rx=".41" transform="rotate(3.2 -2204.532 4091.566)"/><path d="M178.26 135.27q-.96-.47-1.47-1.28.28-.24-.17-.61-.58-.48-.87-.16-.47-.25-.72-.61.76-1.53-.82-2.91-.73-.64.16-.23.82.37 1.24 1.27.48 1.02 1.52.62l3.92-1.51q1.06-.41.31.45-1.13 1.3-3.11 1.63-1.26.2-.47 1.21.49.63.48 2.13"/><path fill="#fff" d="M230.33 129.46q.05-.19.25-.18.21.01.17.22-.04.16-.21.19a.19.18-87.9 0 1-.21-.23M249.74 129.23q-.01.43-.39.46-.23-.6.39-.46M212.85 133.82l.38-.57q.28-.43.65-.07.23.23.04.51a2.6 2.34-88.7 0 1-.46.49q-.47.37-.38.94c.2 1.31 1.04 2.06 1.16 3.43a.28.27-7.5 0 1-.24.3l-.26.04q-.36.04-.44-.31-.69-3.13-2.57-6.16a1.71 1.69-.5 0 0-.62-.6l-.46-.26q-.72-.42.09-.57 1.41-.28 2.47.71.41.38.8-.02.93-.96 2.08-.2a.41.41 0 0 1 .14.53l-.13.26q-.26.5-.77.25-1.43-.7-1.98 1.04-.1.31.27.36a.22.22 0 0 0 .23-.1M229.44 131.12q.21-.08.38.08.26.25-.02.48-.16.13-.35.07-.9-.29-.01-.63M218.28 133.71l3.98 1.29a.29.28 31.9 0 0 .28-.06q.18-.19.08-.39-.07-.12-.19-.17-1.65-.67-2.7-1.85-.77-.85.31-.46 1.8.66 3.49 1.95a.88.88 0 0 0 1.24-.17l1.43-1.89q.06-.09.11-.06l.21.17q.13.1.05.23l-3.82 6.15q-.35.57-.63-.04c-.6-1.35-3.26-1.69-4.65-2.66q-.7-.49.15-.43 1.19.09 2.39.49.68.24.44-.44-.12-.34-.47-.29-.44.07-.82-.07-.77-.29-.88-1.3m4.32 2.12q-.64.2-1.18.4-.09.03-.06.13.09.27.32.41a.62.62 0 0 0 .69-.02q.71-.51 1.17-1.12.3-.4-.19-.3-.51.1-.75.5"/><path d="M200.32 132.21q.34-.05.2.26-.05.11-.16.08-.21-.06-.14-.27.03-.06.1-.07M202.99 132.83q-.07.1-.17.17-.79.53-.27-.27.08-.11.19-.17.67-.36.25.27M206.36 132.8l-1.9 2.62q-.15.2-.36.07l-1.12-.72q-.16-.1-.09-.28 1.03-2.31 3.2-2.24a.35.35 0 0 1 .27.55"/><path fill="#fff" d="M218.28 133.71q-1.77.14-1.96-.36-.87-2.32.86-.55.26.26 1.1.91M176.79 133.99q-.63-.26-1.04-.77.29-.32.87.16.45.37.17.61"/><path d="m245.74 133.87-1.78 1.25-3.34-1.38q-.39-.16-.14-.49.13-.17.38-.18 2.14-.15 4.88.8M201.24 134.64q-.01.23-.12.42-.22.36-.55.09l-.82-.66q-.61-.49.16-.6l1.07-.15q.52-.08.39.43-.03.14-.08.28-.04.09-.05.19"/><path fill="#fff" d="m215.05 134.09.77-.19q.72-.17.78.56l.03.32q.03.42-.39.38-.74-.06-1.31-.53-.46-.39.12-.54"/><path d="m243.07 135.83-4.57 2.24q-2.72.05.39-3.04.37-.36.88-.34 1.76.06 3.3 1.14M222.6 135.83q.24-.4.75-.5.49-.1.19.3-.46.61-1.17 1.12a.62.62 0 0 1-.69.02q-.23-.14-.32-.41-.03-.1.06-.13.54-.2 1.18-.4M202.3 135.69a.37.36 41 0 1 .61-.04l.27.37a.59.58 41.8 0 1 .04.64q-.85 1.46-1.52 2.32-2.59 3.27-.88-.54.18-.38 1.48-2.75"/><path fill="#fff" d="M225.11 137.86q.04.29-.3.24-.59-.1-.24-.58l1.39-1.91q.43-.59.84.02.57.85-.14 1.7-.4.47-.98.27-.16-.06-.34-.04-.27.03-.23.3"/><rect width="6.06" height="1.28" x="-3.03" y="-.64" fill="#fff" rx=".61" transform="rotate(9.1 -749.55 1519.328)"/><path d="m186.8 140.01-2.25-.89q.91-.97-.96-1.31-.54-.09-.19-.51l.18-.23q.13-.16.3-.07 2.01 1.02 2.92 3.01"/><ellipse rx="1.41" ry=".71" transform="rotate(118.6 52.994 124.967)"/><path d="M204.51 137.71q-.16.15-.09-.24a.05.05 0 0 1 .1 0q.05.37-.01.24M204.49 139.09q-.28 1.14-1.77 1.24a.37.37 0 0 1-.37-.52q.37-.82 1.15-1.22 2.1-1.07 3.73.82.53.62-.27.44-1.01-.22-1.91-.95-.42-.35-.56.19"/><path fill="#fff" d="M232.3 139.7q-1.54.22-2.97-.23-.71-.23.03-.36 1.67-.29 2.98.13.97.32-.04.46M210.56 143.9l-.82-.02 1.47-3.88q.28-.72.86-.22.14.12.33.15 1.1.2.29.9-1.52 1.3-2.13 3.07"/><path d="M187.96 140.76q-.77.03-1.16-.75l.4-.1q.46-.12.66.31.1.24.1.54"/><path fill="#fff" d="m216.47 143.81-2.2.1q-.36-.82-1.17-.46-.46.2-.38-.29.1-.6.57-.87.52-.29.76.26.11.24.45.1a.31.3-24.5 0 0 .16-.41q-.37-.87-.36-1.75.01-.53.53-.47l5.73.58q.31.03.29.34l-.02.54q-.01.23-.24.2l-4.34-.59q-.73-.09-.6.63.19 1.11.82 2.09M222 140.67q1.09.11 2.08.65.74.39-.08.6-1.37.35-2.25-.8-.39-.51.25-.45M228.17 142.39q-1.02.65-2.45.41-.9-2.29 2.45-.41"/><path d="m199.04 142.9-3.94-.47q2.21-.92 3.94.47"/></svg>