<svg xmlns="http://www.w3.org/2000/svg" viewBox="0 0 382 382"><g fill="none" stroke="gray" stroke-width="2"><path d="M195.89 76.04q.7 2.32-1.45 3.79-.4.28-.9.3-1.74.06-3.19.7-.81.36.05.53 1.16.22 2.44-.29.18-.07.31.08.09.09.1.22a.36.34 69.5 0 1-.12.29q-1.75 1.53-3.81 2.26-.81.28-1.37-.36l-.8-.94a.59.59 0 0 1 .36-.97q.68-.1 1.29-.41.9-.45-.11-.54-1.19-.1-2.29.17-.5.13-.87-.24l-4.08-4.1" vector-effect="non-scaling-stroke"/><path d="M197.28 76.05q-1.15 1.79-1.19 3.47-.02.52.43.78.47.28 1 .38 1.06.21-.02.32l-1.95.19q-.58.06-.98.49-1.93 2.02-4.63 3.05-.66.24-.22.79l3.5 4.24a1.22 1.22 0 0 0 1.95-.08l9.03-13.01q.33-.48.92-.5l.92-.04M206.56 76.05q.62.66-.06 3.9-.12.6.49.61 1.79.03 3.54.59.23.07.23.3 0 .47-.46.42l-3.51-.35q-.52-.06-.75.41-2.2 4.46-5.27 7.67-.56.59.25.53 1.53-.12 3.06.46.78.3-.05.41c-3 .43-5.21-.4-7.76 2q-.39.38-.09.83l3.57 5.41q.21.32.15.71l-.05.38q-.1.66.46.3.89-.57 1.36-1.43 1.83-3.38 3.83-7.14.36-.69.56.06.17.64-.15 1.25-1.28 2.5-2.72 5.03-.6 1.04.42.4 2.07-1.32 3.69-3.07.29-.32.6-.01l.22.21a.36.35 45.6 0 1 0 .51q-2.36 2.23-5.29 4.21-.78.53-.99 1.46-.09.43.07.77.41.81 1.22.41 3.36-1.63 6.88-4.41.2-.16.27.09l.1.34q.05.16-.07.29-2.25 2.33-5 3.61-1.06.49.08.74l3.88.83q.72.15 1.08-.5 1.63-3.03 3.24-6.08.69-1.32 1.84-2.47.15-.15 0-.3l-.19-.19q-.03-.02-.05.01-1.64 1.91-3.76 3.63-.25.2-.47-.03l-.22-.24q-.07-.07 0-.14 2.29-2.48 4.54-4.86a.53.53 0 0 0-.31-.89l-2.6-.37a1.32 1.31-69.3 0 0-1.29.59q-.65 1.02-1.48 1.95-.1.12-.25.17-.17.05-.32-.05-.45-.3-.14-.74l1.24-1.75q.32-.45-.22-.53l-3.2-.47a.53.53 0 0 1-.34-.84l5.35-7.02a.24.24 0 0 1 .32-.06l.22.15q.25.16.08.4l-4.23 5.87q-.46.64.32.73l2.07.23q.89.1 1.3-.7l1.88-3.6q.12-.24.37-.14l.23.1q.16.06.12.22-.51 2.15-1.77 3.91-.39.54.26.67 2.12.44 3.93.34a1.19 1.19 0 0 1 1.04 1.87q-2.61 3.7-5.31 7.99c-.64 1.03-.92 2.2-1.21 3.36a1.78 1.75 80.8 0 1-.72 1.02q-1.43.99-1.37.27.05-.62-.56-.71l-5.16-.77a.37.36-9.5 0 0-.38.53l2.08 3.9q.28.52.79.81.68.39 1.15 1.04.5.68.59-.16.17-1.62 1.46-2.53.79-.56.42.34-.27.68-.63 1.33-1.37 2.42.98.93l4.59-2.9q.08-.05.16-.01l.25.13q.28.14.05.36-2.06 2.02-4.84 3.39a.48.48 0 0 0 .09.9q1.91.5 3.23 2.27a1.01 1.01 0 0 0 1.43.19l1.38-1.07a.58.58 0 0 1 .89.25c1.51 3.9-2.52 5.37-5.05 6.71a1.31 1.3-51.7 0 1-.92.11q-.16-.04-.31-.12-.75-.42-.53.41.15.57.61.91 2.51 1.85 5.69 3.61.07.04.11-.03l.13-.23q.04-.07-.02-.12l-4.05-3.07q-.49-.38.04-.69l4.61-2.71q.49-.29.83.18c1.93 2.64 2.54 6.45 3.46 9.64q.26.89-.56.45-1.18-.62-2.01-1.63-.41-.48.12-.84.6-.4.95-1.02.37-.66-.33-.38-1.42.59-2.65 1.57-.55.44.11.68c2.34.86 6.96 4.73 4.9 7.77q-.38.57-.99.24-1.19-.67-2.53-1.05-.75-.22-.19.32.72.69 1.62.97 1.5.46.14 1.23l-2.94 1.67q-.32.18-.65.02l-.29-.14q-.74-.37-.67.46.09.87-.27 1.64-.31.66.37.4.17-.06.29-.2a1.18 1.16 47.7 0 1 1.81.1q1.15 1.54 1.18 2.25M207.18 143.77q-.88-.6-1.44.23M200.16 142.8l1.45-2.13M201.61 140.67q.88.25 1.26.62 1.44 1.4.58-.42-.44-.93-.33-1.96.24-2.28-1.73-1.2-.87.48-1.88.05-.55-.24-.87.28-.29.49-.88.63c-1.02.25-1.84-.51-2.8-.68q-.54-.09-.67-.62l-1.29-5.16q-.14-.58.34-.92l.28-.2a.45.45 0 0 0-.13-.8q-.35-.1-.97.11-.24.08-.32-.16l-.55-1.52q-.06-.17.12-.2l7.51-1.27a.71.66 47.3 0 1 .38.03l.32.12q.69.24.44-.44-.12-.33-.38-.54-1.88-1.54-4.62-2.29-.8-.22-.14.28l2.38 1.81q.35.27-.09.34l-5.62.88a.9.87 72.4 0 1-.93-.5q-.96-2.02-1.94-4.16-.98-2.11-2.28-4.08-1.98-3-3.64-6.32-.71-1.41-2.2-1.74-.35-.07-.29-.43l.06-.35q.09-.57.66-.53 1.05.06 1.97.61a1.51 1.48-37.8 0 0 1.19.14q.44-.13.89-.06.73.11.21.64-.59.6-1.47.26-.95-.38-.45.52l1.79 3.17a1.22 1.21-16.2 0 0 1.14.62l7.62-.47a.26.26 0 0 0 .24-.29l-.03-.37q-.02-.18-.19-.16-3.49.48-6.35-1.63a.4.39 22.3 0 0-.63.26l-.17 1.32q-.06.49-.52.32l-.24-.09a.35.35 0 0 1-.23-.37l.32-2.58q.06-.49.34-.9.21-.33.33-.73.23-.85-.65-.77-2.51.24-4.9.22-1.98-.01-3.17-1.31-1.5-1.63-3.34-3.2-.04-.04-.01-.08l.21-.25q.18-.22.39-.02l3.19 2.95q1.18 1.1.5-.37-1.2-2.63-3.98-3.69-4.07-1.54-8.67-5.3c-.47-.39-1.15-.62-1.75-.74q-.54-.11-.51-.66c.06-.95-.68-1.46-1.19-2.16q-1.46-2.01-3.05-3.86c-1.3-1.53-1.35-3.42-2.22-5.19q-.22-.45-.65-.68-2.32-1.26-4.76-1.63-1.04-.15-.4.68.86 1.11.81 2.41-.02.65.42 1.14 1.3 1.45 3.44 1.3.5-.03.94.24t.38.77q-.05.48-.51.61-.98.28-1.59-.23-.53-.44-.55.25-.03.93-.47 1.14M152.07 91.89q-3.07-3.5-4.02-8.8-.09-.48-.35-.9-.78-1.23.07-2.76M153.77 79.23q.79 2.36 2.96 3.11.55.19.4-.37-.27-.95-1.45-1.35-.87-.31-.69-1.38M156.29 79.14l.74-.03M161.03 79.04q-.06.92-2.62.88-.79-.02-.6.75l.49 2a1.5 1.49-85.7 0 0 .88 1.03l4.62 1.94a1.35 1.34 48.7 0 0 .9.06l2.4-.67q.11-.03.18.06l.2.28q.18.25-.11.37l-.95.4q-.65.28-.04.62 3.44 1.93 6.08 3.46.14.08 1.94 1.43.95.72 2.22 1.18.42.15.04-.09-4.07-2.59-7-6.51-1.2-1.6-1.93-3.73-.68-1.99-1.23-4.07M168.16 78.33l4.88 4.24a1.71 1.71 0 0 0 1.51.37l1.31-.31q1.03-.24.1-.76l-6.61-3.68M170.96 77.89q3.59 1.92 6.16 3.48 2.88 1.73.75-.86-.7-.85-1.41-3.46M177.59 76.9q.45 2.68 2.44 4.37.41.34.93.27l2.46-.37a.49.49 0 0 0 .28-.82l-3.63-3.87" vector-effect="non-scaling-stroke"/><path d="M201.61 140.67q-.68-1.27-2.15-1.44a1.34 1.31-57.6 0 0-.89.21q-1.58 1.03-3.35.23-.17-.08-.33.01-.39.24-.06.56l2.45 2.37M195.1 142.4q-1.19-1.67-2.07-1.92-.53-.15-.92.22-.41.38-.96.4-.57.01-.07-.25l1.09-.58a.83.83 0 0 0 .07-1.42l-5.08-3.51q-.91-.62.18-.47c1.77.24 4.34 2.73 5.62 4.09q.5.54.48-.2-.04-1.02-.53-1.89-.26-.48-.29-1.03l-.06-1.53q-.02-.42-.44-.41l-3.53.04q-.63.01-.96-.52-.28-.46-.78-.44-.38.02-.5.37l-.12.32q-.16.44-.63.37-.37-.05-.57-.37-.24-.38-.07-.8.33-.83.02-1.75-.38-1.15.71-.62 2 .99 4.91.14.52-.15.36-.66-.11-.34-.1-.68.01-.61-.6-.6l-7.23.21q-1.08.03-.1.5l.23.11q.48.22.53.75l.24 2.54q.06.66-.47.27-.65-.47-1-.74-.46-.33-.35-.89.14-.65-.35-1.14-.46-.47-.74-1.1-2.03-4.57-4.47-7.96c-1.35-1.88-1.87-3.94-3.95-5.2q-.65-.39.08-.6.14-.04.18-.21.09-.37-.24-.56l-4.25-2.43a1.1 1.1 0 0 1-.55-.84q-.18-1.86-2.7-1.57M216.04 78.07q-1.08 2.25-3.21 3.24-.67.32-.26.94.22.33.58.56.63.41 1.06-.21.08-.12.21-.14.65-.09.51.55l-.44 2.02q-.07.33.27.41l.25.06q.23.05.3-.17l.64-2q.18-.55.74-.42l3.86.83q.75.16.39.83l-2.4 4.45q-.62 1.16-.42 1.96.05.18.15.33.55.8 1.18.06l5.28-6.2q1.09-1.28-.57-1.59l-.73-.14q-.69-.13-.53-.82l.43-1.88" vector-effect="non-scaling-stroke"/><path d="M231.47 85.52q-3.15.06-4.88-1.94-.53-.61-.46.2l.08.92q.04.55.56.71l3.52 1.12a.63.63 0 0 1 .36.88l-3.54 6.9q-.33.63-.99.37c-.94-.39-1.8-.74-2.84-.77q-1.86-.08-3.13-1-1.06-.77-.56.44.24.6.9.54.62-.05 1.19.21 1.86.85 3.83 1.4.7.2.26.78l-2.65 3.45q-.11.15-.02.31l.98 1.82q.09.17.21.02l3.59-4.99q.27-.38.72-.25l1.68.47q.63.18.27.74l-5 7.82q-.01.03.01.06l.19.19a.57.57 0 0 0 .88-.1l4.91-7.61q.25-.38.68-.22 1.75.65 3.58 1.51.06.03.1-.03l.12-.22q.28-.51-.24-.76l-3.11-1.48q-.47-.22-.27-.71l3.24-7.75M242.39 94.75l-5.4 4.73q-.09.08-.1.2-.02.12-.02.25 0 .38-.25.67-3.69 4.42-6.68 9.37-.25.42-.74.46-.06 0-.11-.01-.75-.22-.69.54.07.98.02 1.9-.01.21.08.39.08.14.2.24.38.31.67-.09l.84-1.16a.62.62 0 0 1 1.02.02l.26.39q.48.72-.13 1.32-1.01 1-1.75 2.22-.1.15-.04.32.05.14.18.21.29.18.52-.07l2.57-2.77q.33-.35.8-.29.65.09 1.12.57.32.32.16.74-1.26 3.29-3.7 5.31-.2.16-.2.42.01.79.72.44c1.94-.97 3.38-2.98 4.63-4.71q.56-.77 1.51-.85.49-.04.48-.5 0-.44.25-.79l6.31-8.69q.89-1.22 2-.19.17.16.35.32 1.22 1.07.42 2.47c-1.09 1.9-2.05 3.88-4 5q-1.94 1.1-3.79 2.32-.45.29-.65.77-.37.92-1.29 1.26-.19.07-.11.26l.01.01q.08.19.26.09.8-.4 1.59-.77 3.13-1.47 1.01 1.27-3.08 3.98-6.78 7.33-.42.37-.97.42-.3.03-.51.25a.54.53 46.3 0 0-.01.72q.65.74.53 1.75-.09.74.49.27 2.12-1.77 4.93-2.51.68-.18.21.34-1.31 1.45-3.05 2.26-.44.2-.6.66-.35 1.06-1.5.69a.3.3 0 0 0-.22.55q2.29 1.11 1.52 3.09-.1.26.15.36.35.13.62-.09.48-.41 1-1.5.24-.51-.16-.9-.28-.27-.36-.62-.15-.6.3-1.02l4.24-3.98a.22.22 0 0 1 .37.19l-.02.3q-.06.85.4.14.11-.17.02-.37a.48.48 0 0 1 .18-.6q1.48-.95 2.93-1.49.88-.33.65.58-.49 1.92-.82 3.75-.02.11.07.17.16.11.42.01.13-.05.17-.18l1.39-4.11a1.54 1.53.7 0 1 1.02-.99q2.74-.82 5.44-1.34.23-.05.4.12.27.26-.11.31l-1.03.13q-.38.05-.57.39c-.22.39-.3.65-.64.98q-3.43 3.28-6.54 6.63-.39.42-.62.96-.28.67.18 1.28.96 1.27.99-.33c.03-2.82 1.81-3.54 3.28-4.9q1.4-1.31 3.17-2.39M240.65 137.02q-3.71-.28-5.93 2.98M234.24 140.26q-.53-.04-.98.4M230.28 141.68q-2.14-.26-3.69 1.11M224.17 143.25l-.35-3.23q-.06-.53-.46-.17-1.79 1.61-2.73 4.01M150.04 92.54l-10.8-1.85a.34.34 0 0 0-.4.38q.5 3.54 2.74 5.91M139.99 97.4q-.82-1.21-2.14-1.82-.47-.22-.76.21l-2.42 3.48M133.22 99.77l-3.38-7.24a2.23 2.22-15.9 0 0-2.28-1.27l-5.76.67q-1.55.18-1.23 1.7.46 2.12.8 4.41.14.92 1.02.95.5.03.73-.42.41-.77 1.01-1.45.59-.68.29.17-.29.81-.71 1.59-.32.57.32.71.69.16 1.25.6.82.65-.21.46-1.47-.26-3.03-.52-1.43-.24-2.83-.73-3.29-1.17-7.12-1.19a.47.47 0 0 0-.46.55l.82 4.33M111.24 103.41l-1.14-3.42a.99.86-56.9 0 1-.05-.36q.08-1.41-1.61-2.31M109.42 94.51q2.69-.2 4.64-2.65.32-.41.26-.92-.22-1.96-2.25-2.95M112.87 87.01l4.1.56q.48.07.67-.38l1.75-4.2" vector-effect="non-scaling-stroke"/><path d="M121.19 82.09q-.79 2.79-2.48 5.04a.51.51 0 0 0 .31.81q3.36.62 6.54 1.61c.89.28 1.53.02 2.27.24q1.94.56 1.1-1.3-.99-2.19-.26-3.84.32-.72.29.06-.12 2.42 1.07 4.62.28.53.87.44 1.81-.26 3.34-.22a1.03 1.03 0 0 0 .84-1.68q-1.89-2.37-4.27-3.79-.21-.13-.1-.35l.26-.52q.15-.31.41-.09l4.32 3.57a.82.75-19.2 0 0 .4.17q1.03.12.83 1.18a1.16 1.16 0 0 0 .98 1.37l10.2 1.47q2.05.29.28-.78-3.22-1.96-6.95-3.96-.56-.31-.64.33-.09.74-.55 1.5-.71 1.17-.64-.19.06-1.03.22-1.92.1-.49-.37-.7-3.47-1.55-6.99-2.8-1.73-.61-2.72.54-.29.34-.72.21-.81-.25-1.13-.91-.34-.71.43-.52l.49.13a1.35 1.31-53.4 0 0 1.04-.17q1.52-.97 2.8-.41 3.65 1.6 7.13 2.89.55.21.7-.36l.68-2.6q.09-.32.42-.24l.28.06q.36.09.26.45l-.76 2.79q-.16.6.38.91l6.31 3.58q.57.33.44-.32l-1.86-9.23M201.61 140.67q-1.03.16-1.63.85-.33.39-.78.13-.24-.15-.45-.42-.29-.37-.64-.05l-.24.22q-.26.24-.03.51l.7.82M182.24 137.76q-.23-.5-.69-.54M180.95 136.83q.94-2.66-3.45-2.08M175.98 133.32q2.63-.36 5.15.53.48.17.8-.23.26-.33.19-.8-.11-.72-.53-.12l-.22.31q-.32.45-.75.09-.88-.74-1.49-1.63-.43-.64.34-.59.48.03.89.23.56.26.34-.32-1.05-2.85-3.2-3.84a1.01.98 7.9 0 1-.56-.72q-.34-1.92-1.68-2.3-3.65-1.04-7.26-2.26M167.37 120.2l5.9-.71q.45-.06.26-.47c-.98-2.16-5.35-3-7.54-3.78M165.84 114.15q1.71.43 3.12 1.09 2.77 1.3.6-.86-1.04-1.04-4.06-1.66M165.5 112.72q.21-.86-.07-1.39M243.32 95.29q-.27 3.05-2.36 5.15a.15.15 0 0 0 .02.23l.23.17q.35.26.65-.07 1.61-1.77 2.49-4.04M245.34 97.32l-2.25 3.94a.3.29-78.5 0 0 .29.44q2.56-.28 4-2.73M249.24 100.45q-2.06.75-3.12 2.5-.66 1.08.45 1.68l1.38.75a.97.97 0 0 0 1.33-.43l1.4-2.95a.35.35 0 0 1 .44-.17l.37.14a.31.31 0 0 1 .15.46q-1 1.57-1.53 3.39-.31 1.08.33.16l2.35-3.41M253.62 102.94l-2.14 3.47q-.77 1.25.56 1.86l.34.16a1.11 1.11 0 0 0 1.44-.47l2.15-3.87" vector-effect="non-scaling-stroke"/><path d="m256.8 104.33-1.64 3.1q-.03.06-.04.13-.02.16.07.28.28.34.64.07.39-.3.85-.3.41 0 .06.22l-4.15 2.63q-.59.37-.92-.24l-.94-1.74a.35.34 40.9 0 0-.63.04q-.4 1.08.72 1.42a.36.36 0 0 1-.03.69c-2.86.6-3 3.41-4.96 5q-.07.06-.16.03-.12-.05-.19-.18-.03-.04 0-.09.67-1.02 1.04-2.22.25-.78-.34-.21-1.17 1.13-2 2.62-.81 1.46-1.83 2.65-3.79 4.45-7.53 7.98-1 .95.29.45 2.57-.99 5.15-1.97c2.28-.87 2.88-3.53 3.58-5.6q.34-1.04 1.33-1.59.63-.36.47.35l-.1.46q-.14.63.49.53.42-.06.68-.42 1.77-2.49 3.58-4.59.41-.47 1-.65 1.78-.54 2.82-2.14a1.93 1.89 3.4 0 1 .77-.67q1.84-.86 3.29-2.27.09-.09.21-.13.17-.05.34-.01.52.12.96-.18l3.91-2.67" vector-effect="non-scaling-stroke"/><path d="m265.94 105.29-.18 1.37q-.06.51-.58.57-2.36.25-5.06.84c-1.53.33-2.26 1.43-3.43 2.33a1.24 1.24 0 0 0 .14 2.06q2.15 1.22 3.88 3.1.27.3-.17.59a.52.51-40.5 0 1-.64-.05l-3.57-3.47q-1.11-1.08-2.24-.03-3.53 3.29-5.47 7.22a1.46 1.46 0 0 0 1.5 2.09c2.94-.39 5.6-1.11 8-2.9q5.1-3.78 10.96-6.91.6-.32.13-.81l-3.17-3.22q-.13-.13-.01-.28l.18-.23q.22-.28.48-.04l3.43 3.2q.37.34.85.19 2.68-.85 3.75-3.11.28-.59-.37-.6l-6.76-.21a.55.55 0 0 1-.39-.92q.43-.46 1.77-.35" vector-effect="non-scaling-stroke"/><path d="M274.91 105.91q.92.22 1.54.73.63.52-.14.77-.56.18-1.06.57-.36.28.01.55l.22.16a.29.28 37.5 0 0 .39-.05l1.12-1.35q.35-.42.89-.45 2.66-.13 5.37-2.36M285.17 105.25l1.93 1.25q.44.28.9.03.29-.15.51-.4M289.55 106.23q-.28.41-.31.79-.04.42.31.67l4.5 3.12a.53.53 0 0 0 .81-.28q.35-1.21 1.36-2.19" vector-effect="non-scaling-stroke"/><path d="M296.66 108.72q-.47 2.93-3.17 2.93-.55.01-.92-.39-1.75-1.89-4.31-2.93a.48.47 31 0 0-.54.13l-.32.38a.41.4-61 0 0 .18.65q2.4.72 4.39 1.84.24.14.11.37-.26.51-.79.29l-4.51-1.82q-.39-.15-.72.11-2.06 1.68-3.22 3.92-.25.49-.77.67-.77.26-1.6.28-.8.01-.16-.47 2.57-1.91 4.43-4.79a.38.38 0 0 0-.22-.57l-4.79-1.2a1.02 1 42.4 0 0-.59.02q-2.18.69-4.06 1.91c-1.48.95-.77 2.41-1.78 3.44-.61.62-1.58.48-2.09-.17q-.23-.28-.53-.47-.45-.28-.91-.02-5.44 2.98-11.03 6.91-.73.51.15.39l3.76-.53q.49-.06.2-.46-.11-.15-.21-.33-.07-.13-.01-.27.13-.25.4-.28.27-.02.49.16c3.35 2.82 6.93-2.58 9.72-1.11q.28.14.18.44-.04.13-.16.18-.81.32.03.56 1.17.33 1.71-.65.27-.5.72-.15c.53.42 1.28.55 1.94.55q6.47.01 12.78.23a1.04 1.04 0 0 0 .94-.53l1.79-3.12a.81.8-72.6 0 0-.62-1.2q-.49-.05-.91-.28-.51-.28.06-.35l4.92-.58q.7-.09 1.12-.65.57-.77 1.3-.61.7.15.07.47-.28.14-.48.35-.72.78.33.98l4.9.92" vector-effect="non-scaling-stroke"/><path d="m303.65 114.47-5.99-.58a.22.22 0 0 0-.16.39l2.81 2.41q.36.3.98.26.69-.05 2.37-1.11M303.64 118.33q-.53.91-2.14.67-.32-.05-.36.27-.02.21.08.37.19.29.5.14 1.09-.53 2.03 0M303.71 120.77q-1.41.11-1.69 1-.25.76 1.02.96M302.62 125.3q-.59.73-.55 1.88M300.75 127.57q-.12-2.17.24-4.16.03-.19-.03-.37-.07-.18-.24-.23-.47-.13-.18-.52.34-.44.49-.98.18-.65-.49-.68c-1.41-.08-2.78-.65-4.12.1q-1.88 1.05-3.82 2.17a.85.84 61.9 0 1-1.17-.36q-.6-1.23-.1-2.2.35-.67-.33-.34l-.9.43q-.48.24-.46-.3.01-.23-.19-.46a.56.55 72.2 0 0-.38-.2q-5.05-.37-9.01-.11-1.84.12-3.65.04-1.93-.08-3.65.26-.52.1-.55.63-.06 1.04-.68 1.81-.46.59-.5-.16-.04-.92.17-1.79.16-.66-.51-.56l-4.77.72q-.85.13-.18.67 1.51 1.23 2.49 2.88.12.19-.03.36l-.17.2q-.21.25-.43 0l-2.28-2.55q-.45-.49-.99-.12l-5.73 3.9M257.44 125.68c1.35-2.21 4.2-3.25 6.21-4.88q.62-.5-.18-.51-.36-.01-.7.19-.47.28-1.01.31-4.11.19-7.5 2.04-.29.16-.47.42-.15.22-.18.48-.05.52-.56.62-.92.18-1.34.89M217.24 78.46l-.84 2.75a.51.51 0 0 0 .38.65l4.15.94q.66.15.89-.48l.67-1.88M110.65 91.02q-.22 1.04.78 1.18a.54.53 4.9 0 0 .61-.51q.01-.39-.34-.62-.41-.26-1.05-.05M131.65 99.96l-.55-1.32q-.2-.48-.19-.99l.02-.72q.02-.84-.21-.03-.53 1.95.49 3.41M123.99 81.02l1.57.73q.48.23.54.76.18 1.62.81 3.14.03.09.13.07v-.01q.15-.04.12-.19-.35-1.76-.23-3.42.03-.5-.4-.76-.96-.57-2.1-.77M169.49 125.76q.58-.04.35-.41-.26-.43-.62-.04" vector-effect="non-scaling-stroke"/><path d="M294.09 124.05q2.15-.49 3.96.4.66.33 1.13-.24l.39-.48q.47-.57-.25-.68-3.28-.54-6.12.75M290.03 123.61q-.75-.34-1.29-1.2-.27-.43-.7-.17-.85.5-1.53 1.48M142.46 79.14l-1.19.1M281.77 104.29q-1.05 1.4-2.73.49M205.33 77l-2.1 2.68q-.35.44.21.53l1.16.16q.58.09.8-.45.67-1.57.42-2.8-.12-.59-.49-.12M170.64 84.7q-.02.2-.03.4-.02.46.23.83 3.02 4.52 7.83 6.36 3.35 1.29 1.01-1.43-4.57-5.29-11.06-10.73a.29.29 0 0 0-.47.25q.3 2.67 2.22 3.8.31.17.27.52M202.81 81.3a4.19 4.16-83.9 0 0-2.51 2.04q-1.62 3.04-3.65 6.11a.43.43 0 0 0 .32.66c2.51.22 3.3-1.77 5.09-2.91q.41-.26.62-.7l1.91-4.09q.56-1.2-.77-1.23-.53-.01-1.01.12M182.93 83.35q1.53.78 3.36.79a.41.41 0 0 0 .36-.6c-1.04-1.97-3.24-1.67-4.93-.98q-.78.32.05.43.62.09 1.16.36M184.49 91.42q1.13-.61 2.5-.62 1.14-.01.28-.75-4.31-3.73-9.33-6.94-.56-.36-1.08.05-.6.48-1.36.57-.98.13-.3.85l5.97 6.24q.4.41.96.49.27.04.5.17a.43.43 0 0 1 .2.51q-.44 1.41 1.05 1.83 2.98.84 6.4.03.85-.2.23-.81l-1.11-1.09q-.44-.43-1.04-.32-1.91.35-3.74.32-1.05-.02-.13-.53M181.15 83.42q-.05-.18-.21-.28-.17-.11-.38-.08-.14.02-.16.23-.03.25.17.39 4.14 2.85 7.98 6.16c.82.7 1.91.74 2.91.51q.8-.19.28-.82l-3.35-4.02a1 .99-21.6 0 0-.82-.35q-2.95.16-5.92-1.16-.38-.17-.5-.58M163.99 91.34q-.51-.29-1.08-.31-.95-.04-.34.69l3.03 3.62q.35.43.89.29.79-.2 1.61-.27.59-.05.12.31-.25.2-.53.37-.74.43-.1 1 3.67 3.31 7.57 4.74 1.04.38.35-.49-4.59-5.75-11.23-11.7c-1.35-1.22-2.89-2.08-4.03-3.51q-.92-1.15-.54.27.44 1.68 1.56 2.92.34.38.84.5 1.29.32 2.09 1.32.51.65-.21.25M171.64 94.63q-.54-1.22-1.19-2.44a.05.05 0 0 1 .07-.07q1.25.76 2.48.88 2.14.21.36-.98-5.29-3.54-11.1-5.71-.08-.03-.02.03 1.97 2.01 4.24 3.76 2.21 1.72 4.01 3.78 3.9 4.5 7.74 9.01.15.18.38.21 1.12.14 7.38.11.13 0 .05-.1-4.49-6.43-11.67-8.32c-.87-.23-1.58.03-2.44.03q-.21 0-.29-.19M191.17 91.34q-.17-.02-.32.02-.51.13-.08.44.47.35.72.86.28.59.93.54.64-.04 1.09-.42.45-.39.07-.84-.87-1.03-1.96-.66-.22.08-.45.06M195.41 91.44a.2.2 0 0 0-.03.32q.46.39 1-.06.32-.28-.09-.39-.47-.12-.88.13" vector-effect="non-scaling-stroke"/><path d="M180.92 93.4q.22.27.57.25a.21.21 0 0 0 .17-.32q-.17-.27-.5-.34a.25.25 0 0 0-.24.41M183.46 98.14q-.23.29.02.57 2.09 2.31 4.28 4.08 1.41 1.13.69-.53-.65-1.5-2.11-2.34-.4-.23-.51-.68-.72-3.14-2.93-4.13-2-.89-4.42-1.47-1.45-.35-.33.63 2.64 2.32 5.1 3.17.6.21.21.7M194.01 95.09l4.43 5.32q.12.15.28.04l.23-.18q.19-.14.05-.34l-3.9-5.84a.39.37 60.8 0 0-.46-.14l-.38.16a.63.62-30.8 0 0-.25.98M192.07 96.23l.18-.72a.55.55 0 0 0-.57-.68l-6.26.47q-.39.03-.21.37 1.5 2.82 4.23 4.82a.55.54 28.2 0 0 .83-.25q.42-1.1 1.24-2.05.65-.75.6.24-.02.67-.48 1.22a1.41 1.41 0 0 0 .21 2.03q2.94 2.27 6.14.17a.3.29 53.4 0 0 .06-.44l-4.08-4.85q-.46-.54-.98-.06-.1.09-.21.18-1.01.82-.7-.45M190.53 102.6q-.13.29.17.42.37.16.62-.16a.37.37 0 0 0-.3-.6q-.35 0-.49.34" vector-effect="non-scaling-stroke"/><path d="M197.52 104.95q1.3.68 1.81-.54a.45.44 12.5 0 0-.4-.62q-2.85-.08-2.31.92a.4.39-86.1 0 1-.58.51q-1.84-1.35-4.02-.42-.31.14-.31.48.01 1.28 1.17 1.49 2.56.43 3.89-1.63.29-.44.75-.19M187.97 106.99l.18-1.05q.15-.9-.75-.85-3.7.19-7.19-.62-1.32-.31-.51.78l1.05 1.42q.92 1.22 2.45 1.2l3.82-.06q.81-.02.95-.82M190.19 105.17l-1.01 2.35q-.11.25.15.35.14.06.27-.01.18-.09.28-.27.56-.95.84-2.09.03-.13-.08-.21l-.21-.18q-.16-.13-.24.06M202.31 107.64q-.32-1.32-1.67-1.74-.34-.11-.49.2-.25.51.26.76.81.39 1.46 1.03t.44-.25M193.54 108.46l1.63 3.17a.99.99 0 0 0 1.83-.15l1.27-4.02a.48.48 0 0 0-.59-.61l-3.92 1.11a.35.35 0 0 0-.22.5" vector-effect="non-scaling-stroke"/><path d="M198.42 112.79q-.36.35-.93.31-2.63-.16-.41 1.24 1.1.7 2.22 1.26 4.47 2.21 9.07 4.93.18.11.29-.07h.01q.06-.09-.03-.16-2.5-1.96-5.21-3.64c-.99-.62-2.06-.66-3.15-.91q-.19-.05-.18-.24l.02-.33q.03-.38.4-.44l2.57-.41q.76-.13.05-.44-2.14-.93-3.11.63-.15.25-.4.08l-.22-.17a.41.41 0 0 1 .1-.72q.76-.28 1.5-.62.17-.09.28-.25.08-.12.08-.25 0-.45-.46-.48l-1.51-.1q-.21-.01-.3-.2-.2-.41.39-.7a.6.57 47.9 0 1 .57.04q1.97 1.31 4.11.41a.5.5 0 0 0 .09-.88l-4.39-2.99q-.54-.37-.74.26l-1.28 4.07q-.06.2.09.35.12.11.27.06.81-.24.21.36M193.74 112.52q-1.36-1.56-2.34-3.11a1.87 1.86 48.3 0 0-3.02-.18q-.74.91-.25 1.79.29.54.94.7 2.3.58 4.27 1.7.84.49.62-.46-.05-.25-.22-.44M192.35 108.67q-.08.15-.01.27.21.36.33-.05.04-.15-.1-.27a.15.15 0 0 0-.22.05" vector-effect="non-scaling-stroke"/><path d="M205.23 114.53q-.21.11-.1.33.18.34.54.37a.33.33 0 0 0 .28-.53q-.32-.4-.72-.17M211.3 115.93l-2.77-1.27a.42.42 0 0 0-.57.52q.22.6.86.68c1.37.17 2.05.73 3.48.18q.71-.27-.04-.21-.17.01-.3.09-.33.16-.66.01M216.78 115.85q.38-.78-.33-.29-.83.56-1.52 1.29-.23.25.02.48l.23.22q.25.23.47-.02.66-.75 1.13-1.68M194.383 123.872a3.14.51 24.7 0 0-2.64-1.775 3.14.51 24.7 0 0-3.066-.85 3.14.51 24.7 0 0 2.64 1.776 3.14.51 24.7 0 0 3.066.85M209.62 123.112a.46.46 0 0 0-.589-.276l-7.203 2.608a.46.46 0 0 0-.275.589l.027.075a.46.46 0 0 0 .589.276l7.202-2.608a.46.46 0 0 0 .276-.589l-.027-.075M203.13 131.14a.23.23 0 0 0 .44.14q1-2.69-1.06-3.65-.32-.15-.45.18-.08.21.04.4.17.29.45.49 1.02.73.58 2.44M215.31 129.14q.5-.05.55-.51a.31.31 0 0 0-.55-.22q-.21.26-.19.57.01.17.19.16M209.95 132.83q1.24.35 1.91-.67.29-.43-.05-.84-.27-.32-.6-.05l-.3.23q-.48.4-1.05.13-.9-.41-1.91-.29-.67.08-1.07-.47-.53-.72-1.32-1.19a.4.4 0 0 0-.61.28q-.04.26.05.5.2.49.73.56l.81.12q.66.1.87.74c.66 2.04 3.38 2.53 4.72 4.44q.1.14.26.21.25.11.52-.11a.4.39 60.5 0 0 .12-.46q-.91-2.14-3.18-2.03-.37.02-.49-.32-.05-.13-.05-.27-.02-.69.64-.51M213.36 129.91q.04.11.15.1.1-.01.11-.11.01-.2-.17-.14-.12.04-.09.15M195.25 130.27a.45.45 0 0 0-.01.87q1.02.3 2.06-.04.61-.19.05-.51-1.07-.59-2.1-.32M199.3 130.95l1.75.3q.51.09.31-.38-.22-.55-.92-.67-.67-.12-1.22.14-.92.43.08.61M215.43 134.3q.13.14.24-.01.09-.12-.01-.22l-.31-.29q-.34-.32-.18.12.09.23.26.4M216.41 135.86a.18.18 0 0 0 .1-.29q-.47-.58-1.18-.52-.59.06-.18.48.51.52 1.26.33M198.22 137.08c-.92-.66-1.8-1.76-2.94-1.77q-.83-.01-.21.55 1.22 1.11 3 1.55.93.23.15-.33M207.29 135.97q.42-.09.5-.54.11-.58-.41-.32-1.07.52-1.96 1.56-.6.71.33.65.26-.01.51-.08.17-.05.28-.19.1-.13.11-.3.03-.64.64-.78M209.58 137.1q.81-.11.06-.45-.64-.29-1.41-.22-.03 0-.05.02-.09.1-.12.23-.08.42.34.45.61.05 1.18-.03M199.78 80.35q-.52-.1-.98.17a.21.21 0 0 0 .07.39q.61.12 1-.22.31-.27-.09-.34M218.23 106.18q2.29-1.83 4.35-4.43.07-.08.02-.18l-.17-.35q-.18-.37-.45-.07-1.99 2.19-4.54 4.47-.87.78-1.95.46a.35.35 0 0 0-.45.37q.07.63.51 1.03.43.38 1.09.35 1.25-.06 2.43.24a.52.52 0 0 1 .31.79q-1.48 2.23-1.49 4.88a.39.38-21.3 0 0 .65.28l4.43-4.14q.37-.35.85-.2l1.88.59q1.14.35.36-.55-.48-.55-1.14-.74-.97-.29-.29-1.02.44-.48.39-1.07-.07-.72-.54-.17c-.79.93-1.52 1.89-2.91 1.14q-.55-.3-.26-.84l1.86-3.49q.14-.26-.12-.41l-.28-.15a.34.34 0 0 0-.47.14l-2.01 3.64q-.3.55-.92.39l-1-.26q-.76-.2-.14-.7M213.87 106.16q-.7-.6-1.53-.19a.23.23 0 0 0-.02.4q.7.42 1.48.15a.21.21 0 0 0 .07-.36M225.03 122.46q.05.93-.84 1.63-.4.31-.38.81 0 .19.08.36.39.88-.44.39-.25-.16-.42-.43a.59.56 76.2 0 0-.42-.27q-.21-.03-.37.02a.49.48 74.9 0 0-.33.58q.88 3.53 1.73 6.84.56 2.2.16 3.94-.33 1.42.54.26.53-.7.78-1.94.1-.46.47-.74l5.88-4.42q.53-.4.38-1.05l-.86-3.69q-.17-.72-.91-.74-.41-.01-.78-.23a.43.43 0 0 1 0-.73q.64-.39.81-1.13a.33.33 0 0 0-.49-.35q-.65.41-1.2.98c-.42.42-1.11.59-1.64.31q-.46-.23-.42-.74.19-2.17 1.98-3.55.28-.21.43-.52.33-.65-.35-.97-.45-.21-.39-.7.09-.7-.5-1.11-.41-.28-.2-.72.16-.33.2-.7.13-1.28-.73-.33l-4.87 5.39q-.32.36-.8.33-.21-.01-.43-.08-1.06-.32-.48.63l1.67 2.7q.18.29-.04.55-.12.15-.35.19-.35.07-.41.42-.03.16.01.32.09.43.48.23l3.45-1.74" vector-effect="non-scaling-stroke"/><path d="M225.03 122.46q.86-.66.46-.85-.42.27-.46.85M232.92 121.08q-1.64 1.07-.89 3.13.28.76.53 0c.72-2.14 3.04-3.62 4.28-5.57q1.01-1.57-.38-.33c-1.18 1.05-2.06 1.81-3.54 2.77M240.91 128.67c-.44 1.75-1.45 3.05-1.79 5.01a.32.31-22.9 0 0 .57.23q.72-1.05 1-2.37.09-.46.29-.9.44-.96.28-1.96-.13-.88-.35-.01M231.64 135.38l1.03-.26q.66-.17.48-.82l-.98-3.67q-.16-.61-.62-.18-2.32 2.17-3.82 4.68-.24.41-.67.62-1.25.6-2.06 1.85-.3.45.19.68 1.44.66 2.62 1.76a.91.91 0 0 0 .98.18l.43-.18a.47.46 56.6 0 0 .15-.75c-.63-.66-1.7-1.38-1.78-2.34q-.09-1.21.7-.29l1 1.14q.5.58.56-.18.06-.67-.39-1.22-.31-.38.03-.73.11-.12.31-.12.45-.01.57.42l.71 2.52a.53.53 0 0 0 .61.38q2.2-.39 1.67-2.74-.11-.5-.6-.38-.53.14-1.09.06-1.1-.15-.03-.43M240.73 134.55q-1.49.58-.98.97.55-.49.98-.97M240.73 134.55q1-.17 1.52-1.11.45-.8-.27-.48-.54.24-1.25 1.59M235.78 137.04l2.01-1.5q.24-.18.04-.4l-.2-.21q-.13-.12-.27-.02l-2.25 1.61q-.1.07-.04.17l.16.25q.22.35.55.1M223.05 138.43a.64.64 0 0 0-.68-1l-1.8.5a.64.64 0 0 0-.26.14l-2.12 1.93a.64.64 0 0 0 .1 1.02l1.41.84a.64.64 0 0 0 .84-.16l2.51-3.27M226.67 140.45q-.46-.66-1.28-1-.65-.27-.53.43l.26 1.66q.11.62.71.42.44-.15.76-.54.42-.49.08-.97M215.46 81.08q.13.07.26-.04.11-.09-.02-.12-.17-.05-.26.08-.04.05.02.08M219.61 89.74q1.82-2.32 3.82-4.5.45-.5-.08-.91l-.24-.18a.64.64 0 0 0-.97.23q-1.27 2.63-2.83 5.18-.08.13.05.21l.01.01q.13.09.24-.04M114.16 88.8c.16.4.37.79.53 1.18q.27.63.76.14.38-.38.62-.95.23-.54-.3-.78-.54-.24-1.16-.25-.72 0-.45.66M116.07 92.12l1.7-.07a1.51 1.5 83.6 0 0 1.42-1.79q-.26-1.36-1.32-1.47-.46-.05-.55.4-.39 1.78-2.12 2.82-1.03.62.18.56.21-.01.32-.22a.44.44 0 0 1 .37-.23M119.31 89.63q.43.51.45 1.24a.51.51 0 0 0 .62.49l3.69-.79q.67-.14.02-.37-2.23-.77-4.57-.97a.25.24 72.7 0 0-.21.4M133.53 92.41a.34.34 0 0 0 .44-.17l.57-1.19a.34.34 0 0 0-.32-.49l-3.22.12a.34.34 0 0 0-.12.66l2.65 1.07M137.572 92.006a.9.9 0 0 0-.578-1.134l-.438-.143a.9.9 0 0 0-1.134.578l-.334 1.027a.9.9 0 0 0 .578 1.134l.438.143a.9.9 0 0 0 1.134-.578l.334-1.027M132.92 95.17l.29-1.28q.13-.62-.46-.82l-1.21-.4q-1.24-.42-.63.74l2.48 4.64q.4.76.88.05l1.58-2.38q.6-.89-.38-1.34l-.61-.28a.58.57-70.7 0 0-.8.39q-.16.66-.7 1-.6.38-.44-.32M118.31 96.05q-.13.04-.18-.09-.7-1.76-2.06-2.26a.37.37 0 0 0-.46.52q.38.75 1.27 1.11.26.1.09.32l-.23.31q-.13.16-.32.09-.82-.28-1.41-.82-.46-.44-.88.04l-1.03 1.18q-.4.47.18.66 3.1 1.03 5.57-.08.52-.24.85.23.34.49.41 1.12.04.45.45.25l.38-.19a.39.38 68.8 0 0 .19-.45l-1.34-4.64a.69.68-12.9 0 0-.77-.48l-.74.13q-.75.13-.34.77l1 1.57q.28.44-.21.59l-.42.12M138.85 93.79q0-.52-.48-.31-.44.2-.38 1.08a.39.39 0 0 0 .75.13q.11-.27.11-.9" vector-effect="non-scaling-stroke"/><path d="M111.146 96.97a1.24.58 133.5 0 0 1.275-.5 1.24.58 133.5 0 0 .433-1.3 1.24.58 133.5 0 0-1.275.5 1.24.58 133.5 0 0-.433 1.3M138.04 80.74q-.23.6.03 1.22.24.54.48 0 .31-.68-.11-1.27a.23.23 0 0 0-.4.05M136.36 85.04q-.18.3-.03.68a.3.3 0 0 0 .56.01q.15-.34-.08-.7a.26.26 0 0 0-.45.01M166.13 101.96a1.38.58 19.5 0 0-1.106-1.007 1.38.58 19.5 0 0-1.495.086 1.38.58 19.5 0 0 1.107 1.008 1.38.58 19.5 0 0 1.495-.086M169.93 103.183a1.57.51 18.3 0 0-1.33-.977 1.57.51 18.3 0 0-1.65-.009 1.57.51 18.3 0 0 1.33.977 1.57.51 18.3 0 0 1.65.009M166.79 104.61q.05.12.11.24.17.35.54.47 4.58 1.5 9.11 2.72.18.05.27-.11.09-.15.02-.36-.03-.1-.13-.14l-10.31-4.06q-2.02-.8-.34.57.3.23.59.47.09.08.14.2M173.17 104.36l-1.76-1.09q-.57-.36-.7.3-.04.18-.01.36.05.36.37.53.9.47 1.96.43.91-.04.14-.53M177.03 109.924a3.21.56-.1 0 0-3.211-.554 3.21.56-.1 0 0-3.209.566 3.21.56-.1 0 0 3.211.554 3.21.56-.1 0 0 3.209-.566M178.77 110.18a.43.43 0 0 0-.43-.43.43.43 0 0 0-.43.43.43.43 0 0 0 .43.43.43.43 0 0 0 .43-.43M184.49 120.41q-2.09-.49-3.94-1.15-4.43-1.6-2.5 2.7l1.94 4.29q.75 1.65 2.55 1.62l6.24-.09q1.83-.02.93-1.62-1.23-2.17-2.39-4.28-.25-.47-.72-.71-.65-.33-.53-1.07.09-.57-.22-1.06l-2.3-3.52a1.18 1.18 0 0 0-.99-.54l-3.01.02a.57.57 0 0 0-.57.56q-.02.85-.57 1.51a.92.92 0 0 0 .64 1.5q3.03.21 5.82.95.1.03.08.12l-.07.5q-.05.34-.39.27M174.17 115.62a.11.11 0 0 0-.09.2q.31.18.68.01.05-.03.04-.08 0-.06-.03-.12-.07-.11-.19-.05-.19.09-.41.04" vector-effect="non-scaling-stroke"/><path d="M177.67 117.89q.29-.29.4-.7a.59.58 18.8 0 0-.34-.68q-.75-.32-1.62-.14a.72.72 0 0 0-.4 1.18q.53.59.74 1.35.19.66.52.06l.31-.56q.16-.29.39-.51M191.53 131.55q-1.01.01-1.14 1.05-.05.39.32.49.63.16 1.07-.35.36-.44.14-.94a.43.42-11.6 0 0-.39-.25M201.69 138.46a.37.37 0 0 0 .34.48q.33.01.44-.27a.37.36 13.4 0 0-.31-.49q-.38-.03-.47.28M229.01 94.14q.8-.76 1.41-1.66.3-.44.69-.8l2.82-2.58a.8.8 0 0 0-.24-1.33l-1.2-.48q-.57-.24-.85.32l-3.1 6.17q-.77 1.54.47.36M229.44 95.07q-.45.51.14.83.57.31 1.17.25.61-.05.85-.61l1.62-3.8q.49-1.17-.4-.27-1.63 1.63-3.38 3.6M224.71 99.12q-.18.25.11.19.44-.09.68-.56.43-.84-.27-.21-.29.25-.52.58M241.3 98.4q.39-.33.44-.84.08-.79-.5-.26l-2.33 2.13a.35.35 0 0 0 .11.58q1.63.62 1.98-1.11a.89.86-15 0 1 .3-.5M239.47 101.86q.14-.58-.4-.8-1.24-.51-2.17.6-2.81 3.34-4.83 6.69-1.02 1.71.46.39 2.08-1.85 4.39-3.32 1.97-1.25 2.55-3.56M240.46 102.23q-.37.27-.27.67a.22.22 0 0 0 .3.14q.41-.19.36-.63-.04-.44-.39-.18M244.67 102.77q.22.1.46.11.99.05.14-.46-.26-.15-.55-.09-.73.14-.05.44M237.52 110.85c-.33.59-.72 1.69-.78 2.4q-.1 1.38.82.35 3.51-3.93 6.49-8.82.56-.92-.5-1.11l-.54-.1q-1.34-.24-1.99.96-1.75 3.3-3.5 6.32M235.42 113.21a.13.13 0 0 0 .16-.06l3.67-7.41a.13.13 0 0 0-.1-.18l-.18-.02a.13.13 0 0 0-.11.06l-4.82 6.85a.13.13 0 0 0 .06.19l1.32.57M281.49 107.11q-.5.3.06.45l3.96 1.03q.62.16.99-.36l.15-.23q.41-.6-.27-.84l-2.55-.89q-.58-.2-1.1.11l-1.24.73M232.16 110q-.85.38-.62 1.32a.96.96 0 0 0 1.69.36l3.13-4.04q.15-.18-.02-.35l-.18-.18q-.04-.04-.08 0-1.45 1.28-3.04 2.39-.42.3-.88.5M246.98 111.24q-.04.07-.1.13 0 .01-.01 0-.07-.06.01-.1 1.36-.7 1.7-1.86.54-1.84-.45-.21-.68 1.12-1.15 2.04M272.98 111.68q.1-.64-.52-.46-.64.18-.73.89-.08.61.4.93.58.4.69-.3l.16-1.06M294.38 114.52q.02.1.11.14.31.15.2-.17-.03-.1-.12-.13-.24-.09-.19.16M243.55 114.74q.39-.48-.18-.25-.97.38-1.69 1.08-.1.1-.11.25 0 .21.17.32.45.28.78-.13l1.03-1.27M298.15 118.61q1.28-.5.33-1.5l-1.76-1.86a1.24 1.23-48.5 0 0-1.89.12l-1.84 2.49q-.5.69.32.88 2.79.67 4.84-.13M247.64 119.31q.04-.06-.03-.09-.04-.02-.09-.05-.1-.07-.12.06-.07.58.24.08M299.65 119.07q-.26.08-.43.3-.37.48.22.34.26-.06.44-.28.48-.57-.23-.36M244.462 120.67a.37.33 103.8 0 0 .409-.281.37.33 103.8 0 0-.233-.438.37.33 103.8 0 0-.409.28.37.33 103.8 0 0 .233.438M294.06 119.82q-1.81-.17-1.93 1.76a.34.34 0 0 0 .52.31l2.05-1.25a.35.35 0 0 0 .01-.59q-.3-.19-.65-.23M246.27 120.66c-.66.78-1.56 1.4-2.24 2.27q-.65.83.38.62 1.86-.38 2.25-2.71.13-.79-.39-.18M247.19 122.26q.03.61.72.64a.54.54 0 0 0 .54-.37q.29-.93-.7-.88a.59.58 88 0 0-.56.61M109.32 100.71q-.52.47-.45 1.16.05.44.45.25.71-.34.9-1.13a.41.41 0 0 0-.48-.5q-.24.05-.42.22M219.3 111.15q-.51 1.2.47.33l1.94-1.73q.52-.46-.1-.76l-.61-.29q-.22-.11-.36.09-.81 1.11-1.34 2.36M284.36 114.46q2.05-.02 4.18-.66 2-.6-.09-.66-2.36-.07-4.21.76-1.31.58.12.56M274.12 115.41q-.59-.57-1.39-.58-.25 0-.44.15-.15.12-.21.27-.2.52.34.68 3.39 1.04 6.63-.27 1.17-.47-.08-.55-1.75-.12-3.45.58a1.3 1.3 0 0 1-1.4-.28M279.56 116.28a.49.48-67.9 0 0 .33.79q.5.05.78-.38a.47.47 0 0 0-.24-.7q-.51-.17-.87.29M173.66 120.41l-2.67.18q-2.52.18-.13 1 2.29.79 4.76 1.32 1.02.22.37-.59l-1.11-1.37q-.47-.59-1.22-.54M182.44 136.9q-.08.63.35.16.58-.65.21-1.4-.34-.7-.43.07l-.13 1.17M192.05 135.51q-.07-.41-.51-.42a.33.32 84.3 0 0-.32.4q.1.47.58.38a.32.31-10.4 0 0 .25-.36M223.12 119.04a.61.61 0 0 0 .11.91l.79.53q.55.37.98-.14 1.78-2.09 2.07-4.82.11-.96-.54-.25l-3.41 3.77M225.68 128.53q.11.48.48.8.33.29.3-.16-.03-.53-.5-.84-.39-.26-.28.2M278.11 121.72q.68 1.54 1.83 2.33 1.15.8.52-.45-.91-1.82-2.27-3.46-.61-.73-1.11.07l-1.77 2.84q-.29.48.25.63l.47.14q.07.02.1-.05.52-1.27 1.26-2.15.44-.52.72.1M271.15 123.26q.04.13.03.25-.02.29.11.03.1-.2-.07-.33a.05.05 0 0 0-.07.05M172.85 125.28l.27.26q.62.59.84-.24l.14-.5q.25-.94-.72-.88-1.33.07-2.39.51-.85.36.07.45l1.11.09q.4.04.68.31" vector-effect="non-scaling-stroke"/></g><path d="M195.89 76.04q.7 2.32-1.45 3.79-.4.28-.9.3-1.74.06-3.19.7-.81.36.05.53 1.16.22 2.44-.29.18-.07.31.08.09.09.1.22a.36.34 69.5 0 1-.12.29q-1.75 1.53-3.81 2.26-.81.28-1.37-.36l-.8-.94a.59.59 0 0 1 .36-.97q.68-.1 1.29-.41.9-.45-.11-.54-1.19-.1-2.29.17-.5.13-.87-.24l-4.08-4.1z"/><path fill="#fff" d="M197.28 76.05q-1.15 1.79-1.19 3.47-.02.52.43.78.47.28 1 .38 1.06.21-.02.32l-1.95.19q-.58.06-.98.49-1.93 2.02-4.63 3.05-.66.24-.22.79l3.5 4.24a1.22 1.22 0 0 0 1.95-.08l9.03-13.01q.33-.48.92-.5l.92-.04q.36.03.52-.08.62.66-.06 3.9-.12.6.49.61 1.79.03 3.54.59.23.07.23.3 0 .47-.46.42l-3.51-.35q-.52-.06-.75.41-2.2 4.46-5.27 7.67-.56.59.25.53 1.53-.12 3.06.46.78.3-.05.41c-3 .43-5.21-.4-7.76 2q-.39.38-.09.83l3.57 5.41q.21.32.15.71l-.05.38q-.1.66.46.3.89-.57 1.36-1.43 1.83-3.38 3.83-7.14.36-.69.56.06.17.64-.15 1.25-1.28 2.5-2.72 5.03-.6 1.04.42.4 2.07-1.32 3.69-3.07.29-.32.6-.01l.22.21a.36.35 45.6 0 1 0 .51q-2.36 2.23-5.29 4.21-.78.53-.99 1.46-.09.43.07.77.41.81 1.22.41 3.36-1.63 6.88-4.41.2-.16.27.09l.1.34q.05.16-.07.29-2.25 2.33-5 3.61-1.06.49.08.74l3.88.83q.72.15 1.08-.5 1.63-3.03 3.24-6.08.69-1.32 1.84-2.47.15-.15 0-.3l-.19-.19q-.03-.02-.05.01-1.64 1.91-3.76 3.63-.25.2-.47-.03l-.22-.24q-.07-.07 0-.14 2.29-2.48 4.54-4.86a.53.53 0 0 0-.31-.89l-2.6-.37a1.32 1.31-69.3 0 0-1.29.59q-.65 1.02-1.48 1.95-.1.12-.25.17-.17.05-.32-.05-.45-.3-.14-.74l1.24-1.75q.32-.45-.22-.53l-3.2-.47a.53.53 0 0 1-.34-.84l5.35-7.02a.24.24 0 0 1 .32-.06l.22.15q.25.16.08.4l-4.23 5.87q-.46.64.32.73l2.07.23q.89.1 1.3-.7l1.88-3.6q.12-.24.37-.14l.23.1q.16.06.12.22-.51 2.15-1.77 3.91-.39.54.26.67 2.12.44 3.93.34a1.19 1.19 0 0 1 1.04 1.87q-2.61 3.7-5.31 7.99c-.64 1.03-.92 2.2-1.21 3.36a1.78 1.75 80.8 0 1-.72 1.02q-1.43.99-1.37.27.05-.62-.56-.71l-5.16-.77a.37.36-9.5 0 0-.38.53l2.08 3.9q.28.52.79.81.68.39 1.15 1.04.5.68.59-.16.17-1.62 1.46-2.53.79-.56.42.34-.27.68-.63 1.33-1.37 2.42.98.93l4.59-2.9q.08-.05.16-.01l.25.13q.28.14.05.36-2.06 2.02-4.84 3.39a.48.48 0 0 0 .09.9q1.91.5 3.23 2.27a1.01 1.01 0 0 0 1.43.19l1.38-1.07a.58.58 0 0 1 .89.25c1.51 3.9-2.52 5.37-5.05 6.71a1.31 1.3-51.7 0 1-.92.11q-.16-.04-.31-.12-.75-.42-.53.41.15.57.61.91 2.51 1.85 5.69 3.61.07.04.11-.03l.13-.23q.04-.07-.02-.12l-4.05-3.07q-.49-.38.04-.69l4.61-2.71q.49-.29.83.18c1.93 2.64 2.54 6.45 3.46 9.64q.26.89-.56.45-1.18-.62-2.01-1.63-.41-.48.12-.84.6-.4.95-1.02.37-.66-.33-.38-1.42.59-2.65 1.57-.55.44.11.68c2.34.86 6.96 4.73 4.9 7.77q-.38.57-.99.24-1.19-.67-2.53-1.05-.75-.22-.19.32.72.69 1.62.97 1.5.46.14 1.23l-2.94 1.67q-.32.18-.65.02l-.29-.14q-.74-.37-.67.46.09.87-.27 1.64-.31.66.37.4.17-.06.29-.2a1.18 1.16 47.7 0 1 1.81.1q1.15 1.54 1.18 2.25l-12.05.15q-.88-.6-1.44.23l-5.58-1.2 1.45-2.13q.88.25 1.26.62 1.44 1.4.58-.42-.44-.93-.33-1.96.24-2.28-1.73-1.2-.87.48-1.88.05-.55-.24-.87.28-.29.49-.88.63c-1.02.25-1.84-.51-2.8-.68q-.54-.09-.67-.62l-1.29-5.16q-.14-.58.34-.92l.28-.2a.45.45 0 0 0-.13-.8q-.35-.1-.97.11-.24.08-.32-.16l-.55-1.52q-.06-.17.12-.2l7.51-1.27a.71.66 47.3 0 1 .38.03l.32.12q.69.24.44-.44-.12-.33-.38-.54-1.88-1.54-4.62-2.29-.8-.22-.14.28l2.38 1.81q.35.27-.09.34l-5.62.88a.9.87 72.4 0 1-.93-.5q-.96-2.02-1.94-4.16-.98-2.11-2.28-4.08-1.98-3-3.64-6.32-.71-1.41-2.2-1.74-.35-.07-.29-.43l.06-.35q.09-.57.66-.53 1.05.06 1.97.61a1.51 1.48-37.8 0 0 1.19.14q.44-.13.89-.06.73.11.21.64-.59.6-1.47.26-.95-.38-.45.52l1.79 3.17a1.22 1.21-16.2 0 0 1.14.62l7.62-.47a.26.26 0 0 0 .24-.29l-.03-.37q-.02-.18-.19-.16-3.49.48-6.35-1.63a.4.39 22.3 0 0-.63.26l-.17 1.32q-.06.49-.52.32l-.24-.09a.35.35 0 0 1-.23-.37l.32-2.58q.06-.49.34-.9.21-.33.33-.73.23-.85-.65-.77-2.51.24-4.9.22-1.98-.01-3.17-1.31-1.5-1.63-3.34-3.2-.04-.04-.01-.08l.21-.25q.18-.22.39-.02l3.19 2.95q1.18 1.1.5-.37-1.2-2.63-3.98-3.69-4.07-1.54-8.67-5.3c-.47-.39-1.15-.62-1.75-.74q-.54-.11-.51-.66c.06-.95-.68-1.46-1.19-2.16q-1.46-2.01-3.05-3.86c-1.3-1.53-1.35-3.42-2.22-5.19q-.22-.45-.65-.68-2.32-1.26-4.76-1.63-1.04-.15-.4.68.86 1.11.81 2.41-.02.65.42 1.14 1.3 1.45 3.44 1.3.5-.03.94.24t.38.77q-.05.48-.51.61-.98.28-1.59-.23-.53-.44-.55.25-.03.93-.47 1.14l-2.99.78q-3.07-3.5-4.02-8.8-.09-.48-.35-.9-.78-1.23.07-2.76l6-.2q.79 2.36 2.96 3.11.55.19.4-.37-.27-.95-1.45-1.35-.87-.31-.69-1.38l1.3-.1.74-.03 4-.07q-.06.92-2.62.88-.79-.02-.6.75l.49 2a1.5 1.49-85.7 0 0 .88 1.03l4.62 1.94a1.35 1.34 48.7 0 0 .9.06l2.4-.67q.11-.03.18.06l.2.28q.18.25-.11.37l-.95.4q-.65.28-.04.62 3.44 1.93 6.08 3.46.14.08 1.94 1.43.95.72 2.22 1.18.42.15.04-.09-4.07-2.59-7-6.51-1.2-1.6-1.93-3.73-.68-1.99-1.23-4.07.86-.6 1.66-.1l4.88 4.24a1.71 1.71 0 0 0 1.51.37l1.31-.31q1.03-.24.1-.76l-6.61-3.68q.87-.32 1.61-.3 3.59 1.92 6.16 3.48 2.88 1.73.75-.86-.7-.85-1.41-3.46l1.13-.15q.45 2.68 2.44 4.37.41.34.93.27l2.46-.37a.49.49 0 0 0 .28-.82l-3.63-3.87q.87-.2 1.38.05l4.08 4.1q.37.37.87.24 1.1-.27 2.29-.17 1.01.09.11.54-.61.31-1.29.41a.59.59 0 0 0-.36.97l.8.94q.56.64 1.37.36 2.06-.73 3.81-2.26a.36.34 69.5 0 0 .12-.29q-.01-.13-.1-.22-.13-.15-.31-.08-1.28.51-2.44.29-.86-.17-.05-.53 1.45-.64 3.19-.7.5-.02.9-.3 2.15-1.47 1.45-3.79zm8.05.95-2.1 2.68q-.35.44.21.53l1.16.16q.58.09.8-.45.67-1.57.42-2.8-.12-.59-.49-.12m-34.69 7.7q-.02.2-.03.4-.02.46.23.83 3.02 4.52 7.83 6.36 3.35 1.29 1.01-1.43-4.57-5.29-11.06-10.73a.29.29 0 0 0-.47.25q.3 2.67 2.22 3.8.31.17.27.52m32.17-3.4a4.19 4.16-83.9 0 0-2.51 2.04q-1.62 3.04-3.65 6.11a.43.43 0 0 0 .32.66c2.51.22 3.3-1.77 5.09-2.91q.41-.26.62-.7l1.91-4.09q.56-1.2-.77-1.23-.53-.01-1.01.12m-19.88 2.05q1.53.78 3.36.79a.41.41 0 0 0 .36-.6c-1.04-1.97-3.24-1.67-4.93-.98q-.78.32.05.43.62.09 1.16.36m1.56 8.07q1.13-.61 2.5-.62 1.14-.01.28-.75-4.31-3.73-9.33-6.94-.56-.36-1.08.05-.6.48-1.36.57-.98.13-.3.85l5.97 6.24q.4.41.96.49.27.04.5.17a.43.43 0 0 1 .2.51q-.44 1.41 1.05 1.83 2.98.84 6.4.03.85-.2.23-.81l-1.11-1.09q-.44-.43-1.04-.32-1.91.35-3.74.32-1.05-.02-.13-.53m-3.34-8q-.05-.18-.21-.28-.17-.11-.38-.08-.14.02-.16.23-.03.25.17.39 4.14 2.85 7.98 6.16c.82.7 1.91.74 2.91.51q.8-.19.28-.82l-3.35-4.02a1 .99-21.6 0 0-.82-.35q-2.95.16-5.92-1.16-.38-.17-.5-.58m-17.16 7.92q-.51-.29-1.08-.31-.95-.04-.34.69l3.03 3.62q.35.43.89.29.79-.2 1.61-.27.59-.05.12.31-.25.2-.53.37-.74.43-.1 1 3.67 3.31 7.57 4.74 1.04.38.35-.49-4.59-5.75-11.23-11.7c-1.35-1.22-2.89-2.08-4.03-3.51q-.92-1.15-.54.27.44 1.68 1.56 2.92.34.38.84.5 1.29.32 2.09 1.32.51.65-.21.25m7.65 3.29q-.54-1.22-1.19-2.44a.05.05 0 0 1 .07-.07q1.25.76 2.48.88 2.14.21.36-.98-5.29-3.54-11.1-5.71-.08-.03-.02.03 1.97 2.01 4.24 3.76 2.21 1.72 4.01 3.78 3.9 4.5 7.74 9.01.15.18.38.21 1.12.14 7.38.11.13 0 .05-.1-4.49-6.43-11.67-8.32c-.87-.23-1.58.03-2.44.03q-.21 0-.29-.19m19.53-3.29q-.17-.02-.32.02-.51.13-.08.44.47.35.72.86.28.59.93.54.64-.04 1.09-.42.45-.39.07-.84-.87-1.03-1.96-.66-.22.08-.45.06m4.24.1a.2.2 0 0 0-.03.32q.46.39 1-.06.32-.28-.09-.39-.47-.12-.88.13m-14.49 1.96q.22.27.57.25a.21.21 0 0 0 .17-.32q-.17-.27-.5-.34a.25.25 0 0 0-.24.41m2.54 4.74q-.23.29.02.57 2.09 2.31 4.28 4.08 1.41 1.13.69-.53-.65-1.5-2.11-2.34-.4-.23-.51-.68-.72-3.14-2.93-4.13-2-.89-4.42-1.47-1.45-.35-.33.63 2.64 2.32 5.1 3.17.6.21.21.7m10.55-3.05 4.43 5.32q.12.15.28.04l.23-.18q.19-.14.05-.34l-3.9-5.84a.39.37 60.8 0 0-.46-.14l-.38.16a.63.62-30.8 0 0-.25.98m-1.94 1.14.18-.72a.55.55 0 0 0-.57-.68l-6.26.47q-.39.03-.21.37 1.5 2.82 4.23 4.82a.55.54 28.2 0 0 .83-.25q.42-1.1 1.24-2.05.65-.75.6.24-.02.67-.48 1.22a1.41 1.41 0 0 0 .21 2.03q2.94 2.27 6.14.17a.3.29 53.4 0 0 .06-.44l-4.08-4.85q-.46-.54-.98-.06-.1.09-.21.18-1.01.82-.7-.45m-1.54 6.37q-.13.29.17.42.37.16.62-.16a.37.37 0 0 0-.3-.6q-.35 0-.49.34m6.99 2.35q1.3.68 1.81-.54a.45.44 12.5 0 0-.4-.62q-2.85-.08-2.31.92a.4.39-86.1 0 1-.58.51q-1.84-1.35-4.02-.42-.31.14-.31.48.01 1.28 1.17 1.49 2.56.43 3.89-1.63.29-.44.75-.19m-9.55 2.04.18-1.05q.15-.9-.75-.85-3.7.19-7.19-.62-1.32-.31-.51.78l1.05 1.42q.92 1.22 2.45 1.2l3.82-.06q.81-.02.95-.82m2.22-1.82-1.01 2.35q-.11.25.15.35.14.06.27-.01.18-.09.28-.27.56-.95.84-2.09.03-.13-.08-.21l-.21-.18q-.16-.13-.24.06m12.12 2.47q-.32-1.32-1.67-1.74-.34-.11-.49.2-.25.51.26.76.81.39 1.46 1.03t.44-.25m-8.77.82 1.63 3.17a.99.99 0 0 0 1.83-.15l1.27-4.02a.48.48 0 0 0-.59-.61l-3.92 1.11a.35.35 0 0 0-.22.5m4.88 4.33q-.36.35-.93.31-2.63-.16-.41 1.24 1.1.7 2.22 1.26 4.47 2.21 9.07 4.93.18.11.29-.07h.01q.06-.09-.03-.16-2.5-1.96-5.21-3.64c-.99-.62-2.06-.66-3.15-.91q-.19-.05-.18-.24l.02-.33q.03-.38.4-.44l2.57-.41q.76-.13.05-.44-2.14-.93-3.11.63-.15.25-.4.08l-.22-.17a.41.41 0 0 1 .1-.72q.76-.28 1.5-.62.17-.09.28-.25.08-.12.08-.25 0-.45-.46-.48l-1.51-.1q-.21-.01-.3-.2-.2-.41.39-.7a.6.57 47.9 0 1 .57.04q1.97 1.31 4.11.41a.5.5 0 0 0 .09-.88l-4.39-2.99q-.54-.37-.74.26l-1.28 4.07q-.06.2.09.35.12.11.27.06.81-.24.21.36m-4.68-.27q-1.36-1.56-2.34-3.11a1.87 1.86 48.3 0 0-3.02-.18q-.74.91-.25 1.79.29.54.94.7 2.3.58 4.27 1.7.84.49.62-.46-.05-.25-.22-.44m-1.39-3.85q-.08.15-.01.27.21.36.33-.05.04-.15-.1-.27a.15.15 0 0 0-.22.05m12.88 5.86q-.21.11-.1.33.18.34.54.37a.33.33 0 0 0 .28-.53q-.32-.4-.72-.17m6.07 1.4-2.77-1.27a.42.42 0 0 0-.57.52q.22.6.86.68c1.37.17 2.05.73 3.48.18q.71-.27-.04-.21-.17.01-.3.09-.33.16-.66.01m5.48-.08q.38-.78-.33-.29-.83.56-1.52 1.29-.23.25.02.48l.23.22q.25.23.47-.02.66-.75 1.13-1.68m-22.397 8.022a3.14.51 24.7 0 0-2.64-1.775 3.14.51 24.7 0 0-3.066-.85 3.14.51 24.7 0 0 2.64 1.776 3.14.51 24.7 0 0 3.066.85m15.237-.76a.46.46 0 0 0-.589-.276l-7.203 2.608a.46.46 0 0 0-.275.589l.027.075a.46.46 0 0 0 .589.276l7.202-2.608a.46.46 0 0 0 .276-.589zm-6.49 8.028a.23.23 0 0 0 .44.14q1-2.69-1.06-3.65-.32-.15-.45.18-.08.21.04.4.17.29.45.49 1.02.73.58 2.44m12.18-2q.5-.05.55-.51a.31.31 0 0 0-.55-.22q-.21.26-.19.57.01.17.19.16m-5.36 3.69q1.24.35 1.91-.67.29-.43-.05-.84-.27-.32-.6-.05l-.3.23q-.48.4-1.05.13-.9-.41-1.91-.29-.67.08-1.07-.47-.53-.72-1.32-1.19a.4.4 0 0 0-.61.28q-.04.26.05.5.2.49.73.56l.81.12q.66.1.87.74c.66 2.04 3.38 2.53 4.72 4.44q.1.14.26.21.25.11.52-.11a.4.39 60.5 0 0 .12-.46q-.91-2.14-3.18-2.03-.37.02-.49-.32-.05-.13-.05-.27-.02-.69.64-.51m3.41-2.92q.04.11.15.1.1-.01.11-.11.01-.2-.17-.14-.12.04-.09.15m-18.11.36a.45.45 0 0 0-.01.87q1.02.3 2.06-.04.61-.19.05-.51-1.07-.59-2.1-.32m4.05.68 1.75.3q.51.09.31-.38-.22-.55-.92-.67-.67-.12-1.22.14-.92.43.08.61m16.13 3.35q.13.14.24-.01.09-.12-.01-.22l-.31-.29q-.34-.32-.18.12.09.23.26.4m.98 1.56a.18.18 0 0 0 .1-.29q-.47-.58-1.18-.52-.59.06-.18.48.51.52 1.26.33m-18.19 1.22c-.92-.66-1.8-1.76-2.94-1.77q-.83-.01-.21.55 1.22 1.11 3 1.55.93.23.15-.33m9.07-1.11q.42-.09.5-.54.11-.58-.41-.32-1.07.52-1.96 1.56-.6.71.33.65.26-.01.51-.08.17-.05.28-.19.1-.13.11-.3.03-.64.64-.78m2.29 1.13q.81-.11.06-.45-.64-.29-1.41-.22-.03 0-.05.02-.09.1-.12.23-.08.42.34.45.61.05 1.18-.03"/><path d="m206.04 76.13-.92.04q-.59.02-.92.5l-9.03 13.01a1.22 1.22 0 0 1-1.95.08l-3.5-4.24q-.44-.55.22-.79 2.7-1.03 4.63-3.05.4-.43.98-.49l1.95-.19q1.08-.11.02-.32-.53-.1-1-.38-.45-.26-.43-.78.04-1.68 1.19-3.47zm-6.26 4.22q-.52-.1-.98.17a.21.21 0 0 0 .07.39q.61.12 1-.22.31-.27-.09-.34M216.04 78.07q-1.08 2.25-3.21 3.24-.67.32-.26.94.22.33.58.56.63.41 1.06-.21.08-.12.21-.14.65-.09.51.55l-.44 2.02q-.07.33.27.41l.25.06q.23.05.3-.17l.64-2q.18-.55.74-.42l3.86.83q.75.16.39.83l-2.4 4.45q-.62 1.16-.42 1.96.05.18.15.33.55.8 1.18.06l5.28-6.2q1.09-1.28-.57-1.59l-.73-.14q-.69-.13-.53-.82l.43-1.88 8.14 4.78q-3.15.06-4.88-1.94-.53-.61-.46.2l.08.92q.04.55.56.71l3.52 1.12a.63.63 0 0 1 .36.88l-3.54 6.9q-.33.63-.99.37c-.94-.39-1.8-.74-2.84-.77q-1.86-.08-3.13-1-1.06-.77-.56.44.24.6.9.54.62-.05 1.19.21 1.86.85 3.83 1.4.7.2.26.78l-2.65 3.45q-.11.15-.02.31l.98 1.82q.09.17.21.02l3.59-4.99q.27-.38.72-.25l1.68.47q.63.18.27.74l-5 7.82q-.01.03.01.06l.19.19a.57.57 0 0 0 .88-.1l4.91-7.61q.25-.38.68-.22 1.75.65 3.58 1.51.06.03.1-.03l.12-.22q.28-.51-.24-.76l-3.11-1.48q-.47-.22-.27-.71l3.24-7.75 6.75 6.2-5.4 4.73q-.09.08-.1.2-.02.12-.02.25 0 .38-.25.67-3.69 4.42-6.68 9.37-.25.42-.74.46-.06 0-.11-.01-.75-.22-.69.54.07.98.02 1.9-.01.21.08.39.08.14.2.24.38.31.67-.09l.84-1.16a.62.62 0 0 1 1.02.02l.26.39q.48.72-.13 1.32-1.01 1-1.75 2.22-.1.15-.04.32.05.14.18.21.29.18.52-.07l2.57-2.77q.33-.35.8-.29.65.09 1.12.57.32.32.16.74-1.26 3.29-3.7 5.31-.2.16-.2.42.01.79.72.44c1.94-.97 3.38-2.98 4.63-4.71q.56-.77 1.51-.85.49-.04.48-.5 0-.44.25-.79l6.31-8.69q.89-1.22 2-.19.17.16.35.32 1.22 1.07.42 2.47c-1.09 1.9-2.05 3.88-4 5q-1.94 1.1-3.79 2.32-.45.29-.65.77-.37.92-1.29 1.26-.19.07-.11.26l.01.01q.08.19.26.09.8-.4 1.59-.77 3.13-1.47 1.01 1.27-3.08 3.98-6.78 7.33-.42.37-.97.42-.3.03-.51.25a.54.53 46.3 0 0-.01.72q.65.74.53 1.75-.09.74.49.27 2.12-1.77 4.93-2.51.68-.18.21.34-1.31 1.45-3.05 2.26-.44.2-.6.66-.35 1.06-1.5.69a.3.3 0 0 0-.22.55q2.29 1.11 1.52 3.09-.1.26.15.36.35.13.62-.09.48-.41 1-1.5.24-.51-.16-.9-.28-.27-.36-.62-.15-.6.3-1.02l4.24-3.98a.22.22 0 0 1 .37.19l-.02.3q-.06.85.4.14.11-.17.02-.37a.48.48 0 0 1 .18-.6q1.48-.95 2.93-1.49.88-.33.65.58-.49 1.92-.82 3.75-.02.11.07.17.16.11.42.01.13-.05.17-.18l1.39-4.11a1.54 1.53.7 0 1 1.02-.99q2.74-.82 5.44-1.34.23-.05.4.12.27.26-.11.31l-1.03.13q-.38.05-.57.39c-.22.39-.3.65-.64.98q-3.43 3.28-6.54 6.63-.39.42-.62.96-.28.67.18 1.28.96 1.27.99-.33c.03-2.82 1.81-3.54 3.28-4.9q1.4-1.31 3.17-2.39-2.81 8.18-10.63 11.37-3.71-.28-5.93 2.98-.1.12-.48.26-.53-.04-.98.4-1.81 1.2-2.98 1.02-2.14-.26-3.69 1.11l-2.42.46-.35-3.23q-.06-.53-.46-.17-1.79 1.61-2.73 4.01-.74.07-1.4-.24-.03-.71-1.18-2.25a1.18 1.16 47.7 0 0-1.81-.1q-.12.14-.29.2-.68.26-.37-.4.36-.77.27-1.64-.07-.83.67-.46l.29.14q.33.16.65-.02l2.94-1.67q1.36-.77-.14-1.23-.9-.28-1.62-.97-.56-.54.19-.32 1.34.38 2.53 1.05.61.33.99-.24c2.06-3.04-2.56-6.91-4.9-7.77q-.66-.24-.11-.68 1.23-.98 2.65-1.57.7-.28.33.38-.35.62-.95 1.02-.53.36-.12.84.83 1.01 2.01 1.63.82.44.56-.45c-.92-3.19-1.53-7-3.46-9.64q-.34-.47-.83-.18l-4.61 2.71q-.53.31-.04.69l4.05 3.07q.06.05.02.12l-.13.23q-.04.07-.11.03-3.18-1.76-5.69-3.61-.46-.34-.61-.91-.22-.83.53-.41.15.08.31.12a1.31 1.3-51.7 0 0 .92-.11c2.53-1.34 6.56-2.81 5.05-6.71a.58.58 0 0 0-.89-.25l-1.38 1.07a1.01 1.01 0 0 1-1.43-.19q-1.32-1.77-3.23-2.27a.48.48 0 0 1-.09-.9q2.78-1.37 4.84-3.39.23-.22-.05-.36l-.25-.13q-.08-.04-.16.01l-4.59 2.9q-2.35 1.49-.98-.93.36-.65.63-1.33.37-.9-.42-.34-1.29.91-1.46 2.53-.09.84-.59.16-.47-.65-1.15-1.04-.51-.29-.79-.81l-2.08-3.9a.37.36-9.5 0 1 .38-.53l5.16.77q.61.09.56.71-.06.72 1.37-.27a1.78 1.75 80.8 0 0 .72-1.02c.29-1.16.57-2.33 1.21-3.36q2.7-4.29 5.31-7.99a1.19 1.19 0 0 0-1.04-1.87q-1.81.1-3.93-.34-.65-.13-.26-.67 1.26-1.76 1.77-3.91.04-.16-.12-.22l-.23-.1q-.25-.1-.37.14l-1.88 3.6q-.41.8-1.3.7l-2.07-.23q-.78-.09-.32-.73l4.23-5.87q.17-.24-.08-.4l-.22-.15a.24.24 0 0 0-.32.06l-5.35 7.02a.53.53 0 0 0 .34.84l3.2.47q.54.08.22.53l-1.24 1.75q-.31.44.14.74.15.1.32.05.15-.05.25-.17.83-.93 1.48-1.95a1.32 1.31-69.3 0 1 1.29-.59l2.6.37a.53.53 0 0 1 .31.89q-2.25 2.38-4.54 4.86-.07.07 0 .14l.22.24q.22.23.47.03 2.12-1.72 3.76-3.63.02-.03.05-.01l.19.19q.15.15 0 .3-1.15 1.15-1.84 2.47-1.61 3.05-3.24 6.08-.36.65-1.08.5l-3.88-.83q-1.14-.25-.08-.74 2.75-1.28 5-3.61.12-.13.07-.29l-.1-.34q-.07-.25-.27-.09-3.52 2.78-6.88 4.41-.81.4-1.22-.41-.16-.34-.07-.77.21-.93.99-1.46 2.93-1.98 5.29-4.21a.36.35 45.6 0 0 0-.51l-.22-.21q-.31-.31-.6.01-1.62 1.75-3.69 3.07-1.02.64-.42-.4 1.44-2.53 2.72-5.03.32-.61.15-1.25-.2-.75-.56-.06-2 3.76-3.83 7.14-.47.86-1.36 1.43-.56.36-.46-.3l.05-.38q.06-.39-.15-.71l-3.57-5.41q-.3-.45.09-.83c2.55-2.4 4.76-1.57 7.76-2q.83-.11.05-.41-1.53-.58-3.06-.46-.81.06-.25-.53 3.07-3.21 5.27-7.67.23-.47.75-.41l3.51.35q.46.05.46-.42 0-.23-.23-.3-1.75-.56-3.54-.59-.61-.01-.49-.61.68-3.24.06-3.9zm2.19 28.11q2.29-1.83 4.35-4.43.07-.08.02-.18l-.17-.35q-.18-.37-.45-.07-1.99 2.19-4.54 4.47-.87.78-1.95.46a.35.35 0 0 0-.45.37q.07.63.51 1.03.43.38 1.09.35 1.25-.06 2.43.24a.52.52 0 0 1 .31.79q-1.48 2.23-1.49 4.88a.39.38-21.3 0 0 .65.28l4.43-4.14q.37-.35.85-.2l1.88.59q1.14.35.36-.55-.48-.55-1.14-.74-.97-.29-.29-1.02.44-.48.39-1.07-.07-.72-.54-.17c-.79.93-1.52 1.89-2.91 1.14q-.55-.3-.26-.84l1.86-3.49q.14-.26-.12-.41l-.28-.15a.34.34 0 0 0-.47.14l-2.01 3.64q-.3.55-.92.39l-1-.26q-.76-.2-.14-.7m-4.36-.02q-.7-.6-1.53-.19a.23.23 0 0 0-.02.4q.7.42 1.48.15a.21.21 0 0 0 .07-.36m11.16 16.3q.05.93-.84 1.63-.4.31-.38.81 0 .19.08.36.39.88-.44.39-.25-.16-.42-.43a.59.56 76.2 0 0-.42-.27q-.21-.03-.37.02a.49.48 74.9 0 0-.33.58q.88 3.53 1.73 6.84.56 2.2.16 3.94-.33 1.42.54.26.53-.7.78-1.94.1-.46.47-.74l5.88-4.42q.53-.4.38-1.05l-.86-3.69q-.17-.72-.91-.74-.41-.01-.78-.23a.43.43 0 0 1 0-.73q.64-.39.81-1.13a.33.33 0 0 0-.49-.35q-.65.41-1.2.98c-.42.42-1.11.59-1.64.31q-.46-.23-.42-.74.19-2.17 1.98-3.55.28-.21.43-.52.33-.65-.35-.97-.45-.21-.39-.7.09-.7-.5-1.11-.41-.28-.2-.72.16-.33.2-.7.13-1.28-.73-.33l-4.87 5.39q-.32.36-.8.33-.21-.01-.43-.08-1.06-.32-.48.63l1.67 2.7q.18.29-.04.55-.12.15-.35.19-.35.07-.41.42-.03.16.01.32.09.43.48.23zm7.89-1.38q-1.64 1.07-.89 3.13.28.76.53 0c.72-2.14 3.04-3.62 4.28-5.57q1.01-1.57-.38-.33c-1.18 1.05-2.06 1.81-3.54 2.77m7.99 7.59c-.44 1.75-1.45 3.05-1.79 5.01a.32.31-22.9 0 0 .57.23q.72-1.05 1-2.37.09-.46.29-.9.44-.96.28-1.96-.13-.88-.35-.01m-9.27 6.71 1.03-.26q.66-.17.48-.82l-.98-3.67q-.16-.61-.62-.18-2.32 2.17-3.82 4.68-.24.41-.67.62-1.25.6-2.06 1.85-.3.45.19.68 1.44.66 2.62 1.76a.91.91 0 0 0 .98.18l.43-.18a.47.46 56.6 0 0 .15-.75c-.63-.66-1.7-1.38-1.78-2.34q-.09-1.21.7-.29l1 1.14q.5.58.56-.18.06-.67-.39-1.22-.31-.38.03-.73.11-.12.31-.12.45-.01.57.42l.71 2.52a.53.53 0 0 0 .61.38q2.2-.39 1.67-2.74-.11-.5-.6-.38-.53.14-1.09.06-1.1-.15-.03-.43m9.09-.83q-1.49.58-.98.97.55-.49.98-.97 1-.17 1.52-1.11.45-.8-.27-.48-.54.24-1.25 1.59m-4.95 2.49 2.01-1.5q.24-.18.04-.4l-.2-.21q-.13-.12-.27-.02l-2.25 1.61q-.1.07-.04.17l.16.25q.22.35.55.1m-12.73 1.39a.64.64 0 0 0-.68-1l-1.8.5a.64.64 0 0 0-.26.14l-2.12 1.93a.64.64 0 0 0 .1 1.02l1.41.84a.64.64 0 0 0 .84-.16zm3.62 2.02q-.46-.66-1.28-1-.65-.27-.53.43l.26 1.66q.11.62.71.42.44-.15.76-.54.42-.49.08-.97M180.07 76.48l3.63 3.87a.49.49 0 0 1-.28.82l-2.46.37q-.52.07-.93-.27-1.99-1.69-2.44-4.37z"/><path d="M205.33 77q.37-.47.49.12.25 1.23-.42 2.8-.22.54-.8.45l-1.16-.16q-.56-.09-.21-.53zM176.46 77.05q.71 2.61 1.41 3.46 2.13 2.59-.75.86-2.57-1.56-6.16-3.48zM169.35 78.19l6.61 3.68q.93.52-.1.76l-1.31.31a1.71 1.71 0 0 1-1.51-.37l-4.88-4.24q.88-.38 1.19-.14"/><path fill="#fff" d="m217.24 78.46-.84 2.75a.51.51 0 0 0 .38.65l4.15.94q.66.15.89-.48l.67-1.88.84.3-.43 1.88q-.16.69.53.82l.73.14q1.66.31.57 1.59l-5.28 6.2q-.63.74-1.18-.06-.1-.15-.15-.33-.2-.8.42-1.96l2.4-4.45q.36-.67-.39-.83l-3.86-.83q-.56-.13-.74.42l-.64 2q-.07.22-.3.17l-.25-.06q-.34-.08-.27-.41l.44-2.02q.14-.64-.51-.55-.13.02-.21.14-.43.62-1.06.21-.36-.23-.58-.56-.41-.62.26-.94 2.13-.99 3.21-3.24 1.33-.17 1.2.39m-1.78 2.62q.13.07.26-.04.11-.09-.02-.12-.17-.05-.26.08-.04.05.02.08m4.15 8.66q1.82-2.32 3.82-4.5.45-.5-.08-.91l-.24-.18a.64.64 0 0 0-.97.23q-1.27 2.63-2.83 5.18-.08.13.05.21l.01.01q.13.09.24-.04"/><path d="M166.5 78.43q.55 2.08 1.23 4.07.73 2.13 1.93 3.73 2.93 3.92 7 6.51.38.24-.04.09-1.27-.46-2.22-1.18-1.8-1.35-1.94-1.43-2.64-1.53-6.08-3.46-.61-.34.04-.62l.95-.4q.29-.12.11-.37l-.2-.28q-.07-.09-.18-.06l-2.4.67a1.35 1.34 48.7 0 1-.9-.06l-4.62-1.94a1.5 1.49-85.7 0 1-.88-1.03l-.49-2q-.19-.77.6-.75 2.56.04 2.62-.88zM222.49 80.44l-.67 1.88q-.23.63-.89.48l-4.15-.94a.51.51 0 0 1-.38-.65l.84-2.75zM142.46 79.14l-1.19.1q.53-.24 1.19-.1M147.77 79.43q-.85 1.53-.07 2.76.26.42.35.9.95 5.3 4.02 8.8-1.6.84-2.03.65l-10.8-1.85a.34.34 0 0 0-.4.38q.5 3.54 2.74 5.91-.6.01-1.59.42-.82-1.21-2.14-1.82-.47-.22-.76.21l-2.42 3.48q-.55.5-1.45.5l-3.38-7.24a2.23 2.22-15.9 0 0-2.28-1.27l-5.76.67q-1.55.18-1.23 1.7.46 2.12.8 4.41.14.92 1.02.95.5.03.73-.42.41-.77 1.01-1.45.59-.68.29.17-.29.81-.71 1.59-.32.57.32.71.69.16 1.25.6.82.65-.21.46-1.47-.26-3.03-.52-1.43-.24-2.83-.73-3.29-1.17-7.12-1.19a.47.47 0 0 0-.46.55l.82 4.33q-.49.35-1.21.32l-1.14-3.42a.99.86-56.9 0 1-.05-.36q.08-1.41-1.61-2.31l.98-2.81q2.69-.2 4.64-2.65.32-.41.26-.92-.22-1.96-2.25-2.95.03-.69.8-.98l4.1.56q.48.07.67-.38l1.75-4.2q.68-1.02 1.8-.9-.79 2.79-2.48 5.04a.51.51 0 0 0 .31.81q3.36.62 6.54 1.61c.89.28 1.53.02 2.27.24q1.94.56 1.1-1.3-.99-2.19-.26-3.84.32-.72.29.06-.12 2.42 1.07 4.62.28.53.87.44 1.81-.26 3.34-.22a1.03 1.03 0 0 0 .84-1.68q-1.89-2.37-4.27-3.79-.21-.13-.1-.35l.26-.52q.15-.31.41-.09l4.32 3.57a.82.75-19.2 0 0 .4.17q1.03.12.83 1.18a1.16 1.16 0 0 0 .98 1.37l10.2 1.47q2.05.29.28-.78-3.22-1.96-6.95-3.96-.56-.31-.64.33-.09.74-.55 1.5-.71 1.17-.64-.19.06-1.03.22-1.92.1-.49-.37-.7-3.47-1.55-6.99-2.8-1.73-.61-2.72.54-.29.34-.72.21-.81-.25-1.13-.91-.34-.71.43-.52l.49.13a1.35 1.31-53.4 0 0 1.04-.17q1.52-.97 2.8-.41 3.65 1.6 7.13 2.89.55.21.7-.36l.68-2.6q.09-.32.42-.24l.28.06q.36.09.26.45l-.76 2.79q-.16.6.38.91l6.31 3.58q.57.33.44-.32l-1.86-9.23q.48-.07 1.13.27m-33.61 9.37c.16.4.37.79.53 1.18q.27.63.76.14.38-.38.62-.95.23-.54-.3-.78-.54-.24-1.16-.25-.72 0-.45.66m1.91 3.32 1.7-.07a1.51 1.5 83.6 0 0 1.42-1.79q-.26-1.36-1.32-1.47-.46-.05-.55.4-.39 1.78-2.12 2.82-1.03.62.18.56.21-.01.32-.22a.44.44 0 0 1 .37-.23m3.24-2.49q.43.51.45 1.24a.51.51 0 0 0 .62.49l3.69-.79q.67-.14.02-.37-2.23-.77-4.57-.97a.25.24 72.7 0 0-.21.4m14.22 2.78a.34.34 0 0 0 .44-.17l.57-1.19a.34.34 0 0 0-.32-.49l-3.22.12a.34.34 0 0 0-.12.66zm4.042-.404a.9.9 0 0 0-.578-1.134l-.438-.143a.9.9 0 0 0-1.134.578l-.334 1.027a.9.9 0 0 0 .578 1.134l.438.143a.9.9 0 0 0 1.134-.578zm-4.652 3.164.29-1.28q.13-.62-.46-.82l-1.21-.4q-1.24-.42-.63.74l2.48 4.64q.4.76.88.05l1.58-2.38q.6-.89-.38-1.34l-.61-.28a.58.57-70.7 0 0-.8.39q-.16.66-.7 1-.6.38-.44-.32m-14.61.88q-.13.04-.18-.09-.7-1.76-2.06-2.26a.37.37 0 0 0-.46.52q.38.75 1.27 1.11.26.1.09.32l-.23.31q-.13.16-.32.09-.82-.28-1.41-.82-.46-.44-.88.04l-1.03 1.18q-.4.47.18.66 3.1 1.03 5.57-.08.52-.24.85.23.34.49.41 1.12.04.45.45.25l.38-.19a.39.38 68.8 0 0 .19-.45l-1.34-4.64a.69.68-12.9 0 0-.77-.48l-.74.13q-.75.13-.34.77l1 1.57q.28.44-.21.59zm20.54-2.26q0-.52-.48-.31-.44.2-.38 1.08a.39.39 0 0 0 .75.13q.11-.27.11-.9m-27.704 3.18a1.24.58 133.5 0 0 1.275-.5 1.24.58 133.5 0 0 .433-1.3 1.24.58 133.5 0 0-1.275.5 1.24.58 133.5 0 0-.433 1.3M154.99 79.24q-.18 1.07.69 1.38 1.18.4 1.45 1.35.15.56-.4.37-2.17-.75-2.96-3.11.72-.29 1.22.01M157.03 79.11l-.74.03z"/><path fill="#fff" d="m141.27 79.24 1.19-.1 4.18.02 1.86 9.23q.13.65-.44.32l-6.31-3.58q-.54-.31-.38-.91l.76-2.79q.1-.36-.26-.45l-.28-.06q-.33-.08-.42.24l-.68 2.6q-.15.57-.7.36-3.48-1.29-7.13-2.89-1.28-.56-2.8.41a1.35 1.31-53.4 0 1-1.04.17l-.49-.13q-.77-.19-.43.52.32.66 1.13.91.43.13.72-.21.99-1.15 2.72-.54 3.52 1.25 6.99 2.8.47.21.37.7-.16.89-.22 1.92-.07 1.36.64.19.46-.76.55-1.5.08-.64.64-.33 3.73 2 6.95 3.96 1.77 1.07-.28.78l-10.2-1.47a1.16 1.16 0 0 1-.98-1.37q.2-1.06-.83-1.18a.82.75-19.2 0 1-.4-.17l-4.32-3.57q-.26-.22-.41.09l-.26.52q-.11.22.1.35 2.38 1.42 4.27 3.79a1.03 1.03 0 0 1-.84 1.68q-1.53-.04-3.34.22-.59.09-.87-.44-1.19-2.2-1.07-4.62.03-.78-.29-.06-.73 1.65.26 3.84.84 1.86-1.1 1.3c-.74-.22-1.38.04-2.27-.24q-3.18-.99-6.54-1.61a.51.51 0 0 1-.31-.81q1.69-2.25 2.48-5.04l2.8-1.07 1.57.73q.48.23.54.76.18 1.62.81 3.14.03.09.13.07v-.01q.15-.04.12-.19-.35-1.76-.23-3.42.03-.5-.4-.76-.96-.57-2.1-.77-.02-.42.32-.44c2.48-.15 5.39.01 8.32-.37q4.09-.55 8.2-.52m-3.23 1.5q-.23.6.03 1.22.24.54.48 0 .31-.68-.11-1.27a.23.23 0 0 0-.4.05m-1.68 4.3q-.18.3-.03.68a.3.3 0 0 0 .56.01q.15-.34-.08-.7a.26.26 0 0 0-.45.01"/><path d="M170.37 84.18q-1.92-1.13-2.22-3.8a.29.29 0 0 1 .47-.25q6.49 5.44 11.06 10.73 2.34 2.72-1.01 1.43-4.81-1.84-7.83-6.36-.25-.37-.23-.83.01-.2.03-.4.04-.35-.27-.52"/><path fill="#fff" d="M199.78 80.35q.4.07.09.34-.39.34-1 .22a.21.21 0 0 1-.07-.39q.46-.27.98-.17"/><path d="M124.43 80.57q1.14.2 2.1.77.43.26.4.76-.12 1.66.23 3.42.03.15-.12.19v.01q-.1.02-.13-.07-.63-1.52-.81-3.14-.06-.53-.54-.76l-1.57-.73q.23-.33.44-.45M138.04 80.74a.23.23 0 0 1 .4-.05q.42.59.11 1.27-.24.54-.48 0-.26-.62-.03-1.22M215.44 81q.09-.13.26-.08.13.03.02.12-.13.11-.26.04-.06-.03-.02-.08M202.81 81.3q.48-.13 1.01-.12 1.33.03.77 1.23l-1.91 4.09q-.21.44-.62.7c-1.79 1.14-2.58 3.13-5.09 2.91a.43.43 0 0 1-.32-.66q2.03-3.07 3.65-6.11a4.19 4.16-83.9 0 1 2.51-2.04M182.93 83.35q-.54-.27-1.16-.36-.83-.11-.05-.43c1.69-.69 3.89-.99 4.93.98a.41.41 0 0 1-.36.6q-1.83-.01-3.36-.79M201.61 140.67q-.68-1.27-2.15-1.44a1.34 1.31-57.6 0 0-.89.21q-1.58 1.03-3.35.23-.17-.08-.33.01-.39.24-.06.56l2.45 2.37-2.18-.21q-1.19-1.67-2.07-1.92-.53-.15-.92.22-.41.38-.96.4-.57.01-.07-.25l1.09-.58a.83.83 0 0 0 .07-1.42l-5.08-3.51q-.91-.62.18-.47c1.77.24 4.34 2.73 5.62 4.09q.5.54.48-.2-.04-1.02-.53-1.89-.26-.48-.29-1.03l-.06-1.53q-.02-.42-.44-.41l-3.53.04q-.63.01-.96-.52-.28-.46-.78-.44-.38.02-.5.37l-.12.32q-.16.44-.63.37-.37-.05-.57-.37-.24-.38-.07-.8.33-.83.02-1.75-.38-1.15.71-.62 2 .99 4.91.14.52-.15.36-.66-.11-.34-.1-.68.01-.61-.6-.6l-7.23.21q-1.08.03-.1.5l.23.11q.48.22.53.75l.24 2.54q.06.66-.47.27-.65-.47-1-.74-.46-.33-.35-.89.14-.65-.35-1.14-.46-.47-.74-1.1-2.03-4.57-4.47-7.96c-1.35-1.88-1.87-3.94-3.95-5.2q-.65-.39.08-.6.14-.04.18-.21.09-.37-.24-.56l-4.25-2.43a1.1 1.1 0 0 1-.55-.84q-.18-1.86-2.7-1.57-1.07-2.66-1.08-5.27c0-.71-.11-1.04-.52-1.59q-.33-.44-.37-.99c-.38-4.81-2.45-10.41-8.09-10.88q.44-.21.47-1.14.02-.69.55-.25.61.51 1.59.23.46-.13.51-.61.06-.5-.38-.77t-.94-.24q-2.14.15-3.44-1.3-.44-.49-.42-1.14.05-1.3-.81-2.41-.64-.83.4-.68 2.44.37 4.76 1.63.43.23.65.68c.87 1.77.92 3.66 2.22 5.19q1.59 1.85 3.05 3.86c.51.7 1.25 1.21 1.19 2.16q-.03.55.51.66c.6.12 1.28.35 1.75.74q4.6 3.76 8.67 5.3 2.78 1.06 3.98 3.69.68 1.47-.5.37l-3.19-2.95q-.21-.2-.39.02l-.21.25q-.03.04.01.08 1.84 1.57 3.34 3.2 1.19 1.3 3.17 1.31 2.39.02 4.9-.22.88-.08.65.77-.12.4-.33.73-.28.41-.34.9l-.32 2.58a.35.35 0 0 0 .23.37l.24.09q.46.17.52-.32l.17-1.32a.4.39 22.3 0 1 .63-.26q2.86 2.11 6.35 1.63.17-.02.19.16l.03.37a.26.26 0 0 1-.24.29l-7.62.47a1.22 1.21-16.2 0 1-1.14-.62l-1.79-3.17q-.5-.9.45-.52.88.34 1.47-.26.52-.53-.21-.64-.45-.07-.89.06a1.51 1.48-37.8 0 1-1.19-.14q-.92-.55-1.97-.61-.57-.04-.66.53l-.06.35q-.06.36.29.43 1.49.33 2.2 1.74 1.66 3.32 3.64 6.32 1.3 1.97 2.28 4.08.98 2.14 1.94 4.16a.9.87 72.4 0 0 .93.5l5.62-.88q.44-.07.09-.34l-2.38-1.81q-.66-.5.14-.28 2.74.75 4.62 2.29.26.21.38.54.25.68-.44.44l-.32-.12a.71.66 47.3 0 0-.38-.03l-7.51 1.27q-.18.03-.12.2l.55 1.52q.08.24.32.16.62-.21.97-.11a.45.45 0 0 1 .13.8l-.28.2q-.48.34-.34.92l1.29 5.16q.13.53.67.62c.96.17 1.78.93 2.8.68q.59-.14.88-.63.32-.52.87-.28 1.01.43 1.88-.05 1.97-1.08 1.73 1.2-.11 1.03.33 1.96.86 1.82-.58.42-.38-.37-1.26-.62m-35.48-38.71a1.38.58 19.5 0 0-1.106-1.007 1.38.58 19.5 0 0-1.495.086 1.38.58 19.5 0 0 1.107 1.008 1.38.58 19.5 0 0 1.495-.086m3.8 1.223a1.57.51 18.3 0 0-1.33-.977 1.57.51 18.3 0 0-1.65-.009 1.57.51 18.3 0 0 1.33.977 1.57.51 18.3 0 0 1.65.009m-3.14 1.427q.05.12.11.24.17.35.54.47 4.58 1.5 9.11 2.72.18.05.27-.11.09-.15.02-.36-.03-.1-.13-.14l-10.31-4.06q-2.02-.8-.34.57.3.23.59.47.09.08.14.2m6.38-.25-1.76-1.09q-.57-.36-.7.3-.04.18-.01.36.05.36.37.53.9.47 1.96.43.91-.04.14-.53m3.86 5.564a3.21.56-.1 0 0-3.211-.554 3.21.56-.1 0 0-3.209.566 3.21.56-.1 0 0 3.211.554 3.21.56-.1 0 0 3.209-.566m1.74.256a.43.43 0 0 0-.43-.43.43.43 0 0 0-.43.43.43.43 0 0 0 .43.43.43.43 0 0 0 .43-.43m5.72 10.23q-2.09-.49-3.94-1.15-4.43-1.6-2.5 2.7l1.94 4.29q.75 1.65 2.55 1.62l6.24-.09q1.83-.02.93-1.62-1.23-2.17-2.39-4.28-.25-.47-.72-.71-.65-.33-.53-1.07.09-.57-.22-1.06l-2.3-3.52a1.18 1.18 0 0 0-.99-.54l-3.01.02a.57.57 0 0 0-.57.56q-.02.85-.57 1.51a.92.92 0 0 0 .64 1.5q3.03.21 5.82.95.1.03.08.12l-.07.5q-.05.34-.39.27m-10.32-4.79a.11.11 0 0 0-.09.2q.31.18.68.01.05-.03.04-.08 0-.06-.03-.12-.07-.11-.19-.05-.19.09-.41.04m3.5 2.27q.29-.29.4-.7a.59.58 18.8 0 0-.34-.68q-.75-.32-1.62-.14a.72.72 0 0 0-.4 1.18q.53.59.74 1.35.19.66.52.06l.31-.56q.16-.29.39-.51m13.86 13.66q-1.01.01-1.14 1.05-.05.39.32.49.63.16 1.07-.35.36-.44.14-.94a.43.42-11.6 0 0-.39-.25m10.16 6.91a.37.37 0 0 0 .34.48q.33.01.44-.27a.37.36 13.4 0 0-.31-.49q-.38-.03-.47.28"/><path fill="#fff" d="m119.39 82.99-1.75 4.2q-.19.45-.67.38l-4.1-.56q2.73-2.81 6.52-4.02"/><path d="M184.62 91.95q1.83.03 3.74-.32.6-.11 1.04.32l1.11 1.09q.62.61-.23.81-3.42.81-6.4-.03-1.49-.42-1.05-1.83a.43.43 0 0 0-.2-.51q-.23-.13-.5-.17-.56-.08-.96-.49l-5.97-6.24q-.68-.72.3-.85.76-.09 1.36-.57.52-.41 1.08-.05 5.02 3.21 9.33 6.94.86.74-.28.75-1.37.01-2.5.62-.92.51.13.53M181.65 84q2.97 1.32 5.92 1.16a1 .99-21.6 0 1 .82.35l3.35 4.02q.52.63-.28.82c-1 .23-2.09.19-2.91-.51q-3.84-3.31-7.98-6.16-.2-.14-.17-.39.02-.21.16-.23.21-.03.38.08.16.1.21.28.12.41.5.58"/><path fill="#fff" d="m231.47 85.52 4.17 3.03-3.24 7.75q-.2.49.27.71l3.11 1.48q.52.25.24.76l-.12.22q-.04.06-.1.03-1.83-.86-3.58-1.51-.43-.16-.68.22l-4.91 7.61a.57.57 0 0 1-.88.1l-.19-.19q-.02-.03-.01-.06l5-7.82q.36-.56-.27-.74l-1.68-.47q-.45-.13-.72.25l-3.59 4.99q-.12.15-.21-.02l-.98-1.82q-.09-.16.02-.31l2.65-3.45q.44-.58-.26-.78-1.97-.55-3.83-1.4-.57-.26-1.19-.21-.66.06-.9-.54-.5-1.21.56-.44 1.27.92 3.13 1c1.04.03 1.9.38 2.84.77q.66.26.99-.37l3.54-6.9a.63.63 0 0 0-.36-.88l-3.52-1.12q-.52-.16-.56-.71l-.08-.92q-.07-.81.46-.2 1.73 2 4.88 1.94m-2.46 8.62q.8-.76 1.41-1.66.3-.44.69-.8l2.82-2.58a.8.8 0 0 0-.24-1.33l-1.2-.48q-.57-.24-.85.32l-3.1 6.17q-.77 1.54.47.36m.43.93q-.45.51.14.83.57.31 1.17.25.61-.05.85-.61l1.62-3.8q.49-1.17-.4-.27-1.63 1.63-3.38 3.6m-4.73 4.05q-.18.25.11.19.44-.09.68-.56.43-.84-.27-.21-.29.25-.52.58"/><path d="M219.61 89.74q-.11.13-.24.04l-.01-.01q-.13-.08-.05-.21 1.56-2.55 2.83-5.18a.64.64 0 0 1 .97-.23l.24.18q.53.41.08.91-2 2.18-3.82 4.5M136.36 85.04a.26.26 0 0 1 .45-.01q.23.36.08.7a.3.3 0 0 1-.56-.01q-.15-.38.03-.68M164.2 91.09q-.8-1-2.09-1.32-.5-.12-.84-.5-1.12-1.24-1.56-2.92-.38-1.42.54-.27c1.14 1.43 2.68 2.29 4.03 3.51q6.64 5.95 11.23 11.7.69.87-.35.49-3.9-1.43-7.57-4.74-.64-.57.1-1 .28-.17.53-.37.47-.36-.12-.31-.82.07-1.61.27-.54.14-.89-.29l-3.03-3.62q-.61-.73.34-.69.57.02 1.08.31.72.4.21-.25M171.93 94.82c.86 0 1.57-.26 2.44-.03q7.18 1.89 11.67 8.32.08.1-.05.1-6.26.03-7.38-.11-.23-.03-.38-.21-3.84-4.51-7.74-9.01-1.8-2.06-4.01-3.78-2.27-1.75-4.24-3.76-.06-.06.02-.03 5.81 2.17 11.1 5.71 1.78 1.19-.36.98-1.23-.12-2.48-.88a.05.05 0 0 0-.07.07q.65 1.22 1.19 2.44.08.19.29.19M228.54 93.78l3.1-6.17q.28-.56.85-.32l1.2.48a.8.8 0 0 1 .24 1.33l-2.82 2.58q-.39.36-.69.8-.61.9-1.41 1.66-1.24 1.18-.47-.36"/><path fill="#fff" d="m109.42 94.51 1.23-3.49q-.22 1.04.78 1.18a.54.53 4.9 0 0 .61-.51q.01-.39-.34-.62-.41-.26-1.05-.05l1.42-3.03q2.03.99 2.25 2.95.06.51-.26.92-1.95 2.45-4.64 2.65M114.69 89.98c-.16-.39-.37-.78-.53-1.18q-.27-.66.45-.66.62.01 1.16.25.53.24.3.78-.24.57-.62.95-.49.49-.76-.14M115.7 92.35q-.11.21-.32.22-1.21.06-.18-.56 1.73-1.04 2.12-2.82.09-.45.55-.4 1.06.11 1.32 1.47a1.51 1.5 83.6 0 1-1.42 1.79l-1.7.07a.44.44 0 0 0-.37.23"/><path fill="#fff" d="M119.31 89.63a.25.24 72.7 0 1 .21-.4q2.34.2 4.57.97.65.23-.02.37l-3.69.79a.51.51 0 0 1-.62-.49q-.02-.73-.45-1.24M133.53 92.41l-2.65-1.07a.34.34 0 0 1 .12-.66l3.22-.12a.34.34 0 0 1 .32.49l-.57 1.19a.34.34 0 0 1-.44.17"/><rect width="2.26" height="2.88" x="-1.13" y="-1.44" fill="#fff" rx=".9" transform="rotate(18 -222.804 476.462)"/><path fill="#fff" d="m150.04 92.54-8.46 4.44q-2.24-2.37-2.74-5.91a.34.34 0 0 1 .4-.38z"/><path d="M110.65 91.02q.64-.21 1.05.05.35.23.34.62a.54.53 4.9 0 1-.61.51q-1-.14-.78-1.18M191.62 91.28q1.09-.37 1.96.66.38.45-.07.84-.45.38-1.09.42-.65.05-.93-.54-.25-.51-.72-.86-.43-.31.08-.44.15-.04.32-.02.23.02.45-.06"/><path fill="#fff" d="M133.22 99.77q-.83.25-1.57.19l-.55-1.32q-.2-.48-.19-.99l.02-.72q.02-.84-.21-.03-.53 1.95.49 3.41l-18.76 2.78-.82-4.33a.47.47 0 0 1 .46-.55q3.83.02 7.12 1.19 1.4.49 2.83.73 1.56.26 3.03.52 1.03.19.21-.46-.56-.44-1.25-.6-.64-.14-.32-.71.42-.78.71-1.59.3-.85-.29-.17-.6.68-1.01 1.45-.23.45-.73.42-.88-.03-1.02-.95-.34-2.29-.8-4.41-.32-1.52 1.23-1.7l5.76-.67a2.23 2.22-15.9 0 1 2.28 1.27z"/><path d="M195.41 91.44q.41-.25.88-.13.41.11.09.39-.54.45-1 .06a.2.2 0 0 1 .03-.32M229.44 95.07q1.75-1.97 3.38-3.6.89-.9.4.27l-1.62 3.8q-.24.56-.85.61-.6.06-1.17-.25-.59-.32-.14-.83"/><path fill="#fff" d="M133.36 95.49q.54-.34.7-1a.58.57-70.7 0 1 .8-.39l.61.28q.98.45.38 1.34l-1.58 2.38q-.48.71-.88-.05l-2.48-4.64q-.61-1.16.63-.74l1.21.4q.59.2.46.82l-.29 1.28q-.16.7.44.32M118.94 95.34l-1-1.57q-.41-.64.34-.77l.74-.13a.69.68-12.9 0 1 .77.48l1.34 4.64a.39.38 68.8 0 1-.19.45l-.38.19q-.41.2-.45-.25-.07-.63-.41-1.12-.33-.47-.85-.23-2.47 1.11-5.57.08-.58-.19-.18-.66l1.03-1.18q.42-.48.88-.04.59.54 1.41.82.19.07.32-.09l.23-.31q.17-.22-.09-.32-.89-.36-1.27-1.11a.37.37 0 0 1 .46-.52q1.36.5 2.06 2.26.05.13.18.09l.42-.12q.49-.15.21-.59"/><path d="M180.92 93.4a.25.25 0 0 1 .24-.41q.33.07.5.34a.21.21 0 0 1-.17.32q-.35.02-.57-.25"/><path fill="#fff" d="M138.85 93.79q0 .63-.11.9a.39.39 0 0 1-.75-.13q-.06-.88.38-1.08.48-.21.48.31"/><path d="M183.25 97.44q-2.46-.85-5.1-3.17-1.12-.98.33-.63 2.42.58 4.42 1.47 2.21.99 2.93 4.13.11.45.51.68 1.46.84 2.11 2.34.72 1.66-.69.53-2.19-1.77-4.28-4.08-.25-.28-.02-.57.39-.49-.21-.7M194.01 95.09a.63.62-30.8 0 1 .25-.98l.38-.16a.39.37 60.8 0 1 .46.14l3.9 5.84q.14.2-.05.34l-.23.18q-.16.11-.28-.04zM192.77 96.68q.11-.09.21-.18.52-.48.98.06l4.08 4.85a.3.29 53.4 0 1-.06.44q-3.2 2.1-6.14-.17a1.41 1.41 0 0 1-.21-2.03q.46-.55.48-1.22.05-.99-.6-.24-.82.95-1.24 2.05a.55.54 28.2 0 1-.83.25q-2.73-2-4.23-4.82-.18-.34.21-.37l6.26-.47a.55.55 0 0 1 .57.68l-.18.72q-.31 1.27.7.45"/><path fill="#fff" d="M243.32 95.29q-.27 3.05-2.36 5.15a.15.15 0 0 0 .02.23l.23.17q.35.26.65-.07 1.61-1.77 2.49-4.04l.99.59-2.25 3.94a.3.29-78.5 0 0 .29.44q2.56-.28 4-2.73 1.09.43 1.86 1.48-2.06.75-3.12 2.5-.66 1.08.45 1.68l1.38.75a.97.97 0 0 0 1.33-.43l1.4-2.95a.35.35 0 0 1 .44-.17l.37.14a.31.31 0 0 1 .15.46q-1 1.57-1.53 3.39-.31 1.08.33.16l2.35-3.41.83.37-2.14 3.47q-.77 1.25.56 1.86l.34.16a1.11 1.11 0 0 0 1.44-.47l2.15-3.87q.48.06.83.24l-1.64 3.1q-.03.06-.04.13-.02.16.07.28.28.34.64.07.39-.3.85-.3.41 0 .06.22l-4.15 2.63q-.59.37-.92-.24l-.94-1.74a.35.34 40.9 0 0-.63.04q-.4 1.08.72 1.42a.36.36 0 0 1-.03.69c-2.86.6-3 3.41-4.96 5q-.07.06-.16.03-.12-.05-.19-.18-.03-.04 0-.09.67-1.02 1.04-2.22.25-.78-.34-.21-1.17 1.13-2 2.62-.81 1.46-1.83 2.65-3.79 4.45-7.53 7.98-1 .95.29.45 2.57-.99 5.15-1.97c2.28-.87 2.88-3.53 3.58-5.6q.34-1.04 1.33-1.59.63-.36.47.35l-.1.46q-.14.63.49.53.42-.06.68-.42 1.77-2.49 3.58-4.59.41-.47 1-.65 1.78-.54 2.82-2.14a1.93 1.89 3.4 0 1 .77-.67q1.84-.86 3.29-2.27.09-.09.21-.13.17-.05.34-.01.52.12.96-.18l3.91-2.67 2.35.18-.18 1.37q-.06.51-.58.57-2.36.25-5.06.84c-1.53.33-2.26 1.43-3.43 2.33a1.24 1.24 0 0 0 .14 2.06q2.15 1.22 3.88 3.1.27.3-.17.59a.52.51-40.5 0 1-.64-.05l-3.57-3.47q-1.11-1.08-2.24-.03-3.53 3.29-5.47 7.22a1.46 1.46 0 0 0 1.5 2.09c2.94-.39 5.6-1.11 8-2.9q5.1-3.78 10.96-6.91.6-.32.13-.81l-3.17-3.22q-.13-.13-.01-.28l.18-.23q.22-.28.48-.04l3.43 3.2q.37.34.85.19 2.68-.85 3.75-3.11.28-.59-.37-.6l-6.76-.21a.55.55 0 0 1-.39-.92q.43-.46 1.77-.35l5.94.19q.92.22 1.54.73.63.52-.14.77-.56.18-1.06.57-.36.28.01.55l.22.16a.29.28 37.5 0 0 .39-.05l1.12-1.35q.35-.42.89-.45 2.66-.13 5.37-2.36l1.92.77 1.93 1.25q.44.28.9.03.29-.15.51-.4.53-.1 1.04.1-.28.41-.31.79-.04.42.31.67l4.5 3.12a.53.53 0 0 0 .81-.28q.35-1.21 1.36-2.19.85.27.44.38-.47 2.93-3.17 2.93-.55.01-.92-.39-1.75-1.89-4.31-2.93a.48.47 31 0 0-.54.13l-.32.38a.41.4-61 0 0 .18.65q2.4.72 4.39 1.84.24.14.11.37-.26.51-.79.29l-4.51-1.82q-.39-.15-.72.11-2.06 1.68-3.22 3.92-.25.49-.77.67-.77.26-1.6.28-.8.01-.16-.47 2.57-1.91 4.43-4.79a.38.38 0 0 0-.22-.57l-4.79-1.2a1.02 1 42.4 0 0-.59.02q-2.18.69-4.06 1.91c-1.48.95-.77 2.41-1.78 3.44-.61.62-1.58.48-2.09-.17q-.23-.28-.53-.47-.45-.28-.91-.02-5.44 2.98-11.03 6.91-.73.51.15.39l3.76-.53q.49-.06.2-.46-.11-.15-.21-.33-.07-.13-.01-.27.13-.25.4-.28.27-.02.49.16c3.35 2.82 6.93-2.58 9.72-1.11q.28.14.18.44-.04.13-.16.18-.81.32.03.56 1.17.33 1.71-.65.27-.5.72-.15c.53.42 1.28.55 1.94.55q6.47.01 12.78.23a1.04 1.04 0 0 0 .94-.53l1.79-3.12a.81.8-72.6 0 0-.62-1.2q-.49-.05-.91-.28-.51-.28.06-.35l4.92-.58q.7-.09 1.12-.65.57-.77 1.3-.61.7.15.07.47-.28.14-.48.35-.72.78.33.98l4.9.92q-.1.3-.21.6l-5.99-.58a.22.22 0 0 0-.16.39l2.81 2.41q.36.3.98.26.69-.05 2.37-1.11.3 1.33-.02 2.49-.53.91-2.14.67-.32-.05-.36.27-.02.21.08.37.19.29.5.14 1.09-.53 2.03 0l-.04.99q-1.41.11-1.69 1-.25.76 1.02.96.05 1.48-.42 2.57-.59.73-.55 1.88-.26.82-1.32.39-.12-2.17.24-4.16.03-.19-.03-.37-.07-.18-.24-.23-.47-.13-.18-.52.34-.44.49-.98.18-.65-.49-.68c-1.41-.08-2.78-.65-4.12.1q-1.88 1.05-3.82 2.17a.85.84 61.9 0 1-1.17-.36q-.6-1.23-.1-2.2.35-.67-.33-.34l-.9.43q-.48.24-.46-.3.01-.23-.19-.46a.56.55 72.2 0 0-.38-.2q-5.05-.37-9.01-.11-1.84.12-3.65.04-1.93-.08-3.65.26-.52.1-.55.63-.06 1.04-.68 1.81-.46.59-.5-.16-.04-.92.17-1.79.16-.66-.51-.56l-4.77.72q-.85.13-.18.67 1.51 1.23 2.49 2.88.12.19-.03.36l-.17.2q-.21.25-.43 0l-2.28-2.55q-.45-.49-.99-.12l-5.73 3.9q-.33.15-1.16.03c1.35-2.21 4.2-3.25 6.21-4.88q.62-.5-.18-.51-.36-.01-.7.19-.47.28-1.01.31-4.11.19-7.5 2.04-.29.16-.47.42-.15.22-.18.48-.05.52-.56.62-.92.18-1.34.89-.43.33-.43.41-1.77 1.08-3.17 2.39c-1.47 1.36-3.25 2.08-3.28 4.9q-.03 1.6-.99.33-.46-.61-.18-1.28.23-.54.62-.96 3.11-3.35 6.54-6.63c.34-.33.42-.59.64-.98q.19-.34.57-.39l1.03-.13q.38-.05.11-.31-.17-.17-.4-.12-2.7.52-5.44 1.34a1.54 1.53.7 0 0-1.02.99l-1.39 4.11q-.04.13-.17.18-.26.1-.42-.01-.09-.06-.07-.17.33-1.83.82-3.75.23-.91-.65-.58-1.45.54-2.93 1.49a.48.48 0 0 0-.18.6q.09.2-.02.37-.46.71-.4-.14l.02-.3a.22.22 0 0 0-.37-.19l-4.24 3.98q-.45.42-.3 1.02.08.35.36.62.4.39.16.9-.52 1.09-1 1.5-.27.22-.62.09-.25-.1-.15-.36.77-1.98-1.52-3.09a.3.3 0 0 1 .22-.55q1.15.37 1.5-.69.16-.46.6-.66 1.74-.81 3.05-2.26.47-.52-.21-.34-2.81.74-4.93 2.51-.58.47-.49-.27.12-1.01-.53-1.75a.54.53 46.3 0 1 .01-.72q.21-.22.51-.25.55-.05.97-.42 3.7-3.35 6.78-7.33 2.12-2.74-1.01-1.27-.79.37-1.59.77-.18.1-.26-.09l-.01-.01q-.08-.19.11-.26.92-.34 1.29-1.26.2-.48.65-.77 1.85-1.22 3.79-2.32c1.95-1.12 2.91-3.1 4-5q.8-1.4-.42-2.47-.18-.16-.35-.32-1.11-1.03-2 .19l-6.31 8.69q-.25.35-.25.79.01.46-.48.5-.95.08-1.51.85c-1.25 1.73-2.69 3.74-4.63 4.71q-.71.35-.72-.44 0-.26.2-.42 2.44-2.02 3.7-5.31.16-.42-.16-.74-.47-.48-1.12-.57-.47-.06-.8.29l-2.57 2.77q-.23.25-.52.07-.13-.07-.18-.21-.06-.17.04-.32.74-1.22 1.75-2.22.61-.6.13-1.32l-.26-.39a.62.62 0 0 0-1.02-.02l-.84 1.16q-.29.4-.67.09-.12-.1-.2-.24-.09-.18-.08-.39.05-.92-.02-1.9-.06-.76.69-.54.05.01.11.01.49-.04.74-.46 2.99-4.95 6.68-9.37.25-.29.25-.67 0-.13.02-.25.01-.12.1-.2l5.4-4.73zm-2.02 3.11q.39-.33.44-.84.08-.79-.5-.26l-2.33 2.13a.35.35 0 0 0 .11.58q1.63.62 1.98-1.11a.89.86-15 0 1 .3-.5m-1.83 3.46q.14-.58-.4-.8-1.24-.51-2.17.6-2.81 3.34-4.83 6.69-1.02 1.71.46.39 2.08-1.85 4.39-3.32 1.97-1.25 2.55-3.56m.99.37q-.37.27-.27.67a.22.22 0 0 0 .3.14q.41-.19.36-.63-.04-.44-.39-.18m4.21.54q.22.1.46.11.99.05.14-.46-.26-.15-.55-.09-.73.14-.05.44m-7.15 8.08c-.33.59-.72 1.69-.78 2.4q-.1 1.38.82.35 3.51-3.93 6.49-8.82.56-.92-.5-1.11l-.54-.1q-1.34-.24-1.99.96-1.75 3.3-3.5 6.32m-2.1 2.36a.13.13 0 0 0 .16-.06l3.67-7.41a.13.13 0 0 0-.1-.18l-.18-.02a.13.13 0 0 0-.11.06l-4.82 6.85a.13.13 0 0 0 .06.19zm46.07-6.1q-.5.3.06.45l3.96 1.03q.62.16.99-.36l.15-.23q.41-.6-.27-.84l-2.55-.89q-.58-.2-1.1.11zM232.16 110q-.85.38-.62 1.32a.96.96 0 0 0 1.69.36l3.13-4.04q.15-.18-.02-.35l-.18-.18q-.04-.04-.08 0-1.45 1.28-3.04 2.39-.42.3-.88.5m14.82 1.24q-.04.07-.1.13 0 .01-.01 0-.07-.06.01-.1 1.36-.7 1.7-1.86.54-1.84-.45-.21-.68 1.12-1.15 2.04m26 .44q.1-.64-.52-.46-.64.18-.73.89-.08.61.4.93.58.4.69-.3zm21.4 2.84q.02.1.11.14.31.15.2-.17-.03-.1-.12-.13-.24-.09-.19.16m-50.83.22q.39-.48-.18-.25-.97.38-1.69 1.08-.1.1-.11.25 0 .21.17.32.45.28.78-.13zm54.6 3.87q1.28-.5.33-1.5l-1.76-1.86a1.24 1.23-48.5 0 0-1.89.12l-1.84 2.49q-.5.69.32.88 2.79.67 4.84-.13m-50.51.7q.04-.06-.03-.09-.04-.02-.09-.05-.1-.07-.12.06-.07.58.24.08m52.01-.24q-.26.08-.43.3-.37.48.22.34.26-.06.44-.28.48-.57-.23-.36m-55.188 1.6a.37.33 103.8 0 0 .409-.281.37.33 103.8 0 0-.233-.438.37.33 103.8 0 0-.409.28.37.33 103.8 0 0 .233.438m49.598-.85q-1.81-.17-1.93 1.76a.34.34 0 0 0 .52.31l2.05-1.25a.35.35 0 0 0 .01-.59q-.3-.19-.65-.23m-47.79.84c-.66.78-1.56 1.4-2.24 2.27q-.65.83.38.62 1.86-.38 2.25-2.71.13-.79-.39-.18m.92 1.6q.03.61.72.64a.54.54 0 0 0 .54-.37q.29-.93-.7-.88a.59.58 88 0 0-.56.61"/><ellipse fill="#fff" rx="1.24" ry=".58" transform="rotate(133.5 35.363 72.094)"/><path fill="#fff" d="m139.99 97.4-5.32 1.87 2.42-3.48q.29-.43.76-.21 1.32.61 2.14 1.82"/><path d="M244.35 96.73q-.88 2.27-2.49 4.04-.3.33-.65.07l-.23-.17a.15.15 0 0 1-.02-.23q2.09-2.1 2.36-5.15.61.59 1.03 1.44M131.65 99.96q-.34.14-.44.35-1.02-1.46-.49-3.41.23-.81.21.03l-.02.72q-.01.51.19.99z"/><path fill="#fff" d="M108.44 97.32q1.69.9 1.61 2.31a.99.86-56.9 0 0 .05.36l1.14 3.42-3.71.06q-.54.01-.42-.52zm.88 3.39q-.52.47-.45 1.16.05.44.45.25.71-.34.9-1.13a.41.41 0 0 0-.48-.5q-.24.05-.42.22"/><path d="M241 98.9q-.35 1.73-1.98 1.11a.35.35 0 0 1-.11-.58l2.33-2.13q.58-.53.5.26-.05.51-.44.84a.89.86-15 0 0-.3.5M247.38 98.97q-1.44 2.45-4 2.73a.3.29-78.5 0 1-.29-.44l2.25-3.94zM224.71 99.12q.23-.33.52-.58.7-.63.27.21-.24.47-.68.56-.29.06-.11-.19M109.32 100.71q.18-.17.42-.22a.41.41 0 0 1 .48.5q-.19.79-.9 1.13-.4.19-.45-.25-.07-.69.45-1.16M249.24 100.45q2.27.83 3.55 2.12l-2.35 3.41q-.64.92-.33-.16.53-1.82 1.53-3.39a.31.31 0 0 0-.15-.46l-.37-.14a.35.35 0 0 0-.44.17l-1.4 2.95a.97.97 0 0 1-1.33.43l-1.38-.75q-1.11-.6-.45-1.68 1.06-1.75 3.12-2.5"/><ellipse fill="#fff" rx="1.38" ry=".58" transform="rotate(19.5 -212.933 530.377)"/><path d="M239.47 101.86q-.58 2.31-2.55 3.56-2.31 1.47-4.39 3.32-1.48 1.32-.46-.39 2.02-3.35 4.83-6.69.93-1.11 2.17-.6.54.22.4.8"/><path fill="#fff" d="M218.23 106.18q-.62.5.14.7l1 .26q.62.16.92-.39l2.01-3.64a.34.34 0 0 1 .47-.14l.28.15q.26.15.12.41l-1.86 3.49q-.29.54.26.84c1.39.75 2.12-.21 2.91-1.14q.47-.55.54.17.05.59-.39 1.07-.68.73.29 1.02.66.19 1.14.74.78.9-.36.55l-1.88-.59q-.48-.15-.85.2l-4.43 4.14a.39.38-21.3 0 1-.65-.28q.01-2.65 1.49-4.88a.52.52 0 0 0-.31-.79q-1.18-.3-2.43-.24-.66.03-1.09-.35-.44-.4-.51-1.03a.35.35 0 0 1 .45-.37q1.08.32 1.95-.46 2.55-2.28 4.54-4.47.27-.3.45.07l.17.35q.05.1-.02.18-2.06 2.6-4.35 4.43m1.07 4.97q-.51 1.2.47.33l1.94-1.73q.52-.46-.1-.76l-.61-.29q-.22-.11-.36.09-.81 1.11-1.34 2.36"/><ellipse fill="#fff" rx="1.57" ry=".51" transform="rotate(18.3 -234.556 574.226)"/><path d="M240.46 102.23q.35-.26.39.18.05.44-.36.63a.22.22 0 0 1-.3-.14q-.1-.4.27-.67M190.53 102.6q.14-.34.49-.34a.37.37 0 0 1 .3.6q-.25.32-.62.16-.3-.13-.17-.42M244.72 102.33q.29-.06.55.09.85.51-.14.46-.24-.01-.46-.11-.68-.3.05-.44M255.97 104.09l-2.15 3.87a1.11 1.11 0 0 1-1.44.47l-.34-.16q-1.33-.61-.56-1.86l2.14-3.47z"/><path fill="#fff" d="M166.65 104.41q-.29-.24-.59-.47-1.68-1.37.34-.57l10.31 4.06q.1.04.13.14.07.21-.02.36-.09.16-.27.11-4.53-1.22-9.11-2.72-.37-.12-.54-.47-.06-.12-.11-.24t-.14-.2M173.17 104.36q.77.49-.14.53-1.06.04-1.96-.43-.32-.17-.37-.53-.03-.18.01-.36.13-.66.7-.3z"/><path d="M236.74 113.25c.06-.71.45-1.81.78-2.4q1.75-3.02 3.5-6.32.65-1.2 1.99-.96l.54.1q1.06.19.5 1.11-2.98 4.89-6.49 8.82-.92 1.03-.82-.35M196.77 105.14q-1.33 2.06-3.89 1.63-1.16-.21-1.17-1.49 0-.34.31-.48 2.18-.93 4.02.42a.4.39-86.1 0 0 .58-.51q-.54-1 2.31-.92a.45.44 12.5 0 1 .4.62q-.51 1.22-1.81.54-.46-.25-.75.19"/><path fill="#fff" d="M281.77 104.29q-1.05 1.4-2.73.49 1.06-1.11 2.73-.49"/><path d="m187.02 107.81-3.82.06q-1.53.02-2.45-1.2l-1.05-1.42q-.81-1.09.51-.78 3.49.81 7.19.62.9-.05.75.85l-.18 1.05q-.14.8-.95.82M263.59 105.11l-3.91 2.67q-.44.3-.96.18-.17-.04-.34.01-.12.04-.21.13-1.45 1.41-3.29 2.27a1.93 1.89 3.4 0 0-.77.67q-1.04 1.6-2.82 2.14-.59.18-1 .65-1.81 2.1-3.58 4.59-.26.36-.68.42-.63.1-.49-.53l.1-.46q.16-.71-.47-.35-.99.55-1.33 1.59c-.7 2.07-1.3 4.73-3.58 5.6q-2.58.98-5.15 1.97-1.29.5-.29-.45 3.74-3.53 7.53-7.98 1.02-1.19 1.83-2.65.83-1.49 2-2.62.59-.57.34.21-.37 1.2-1.04 2.22-.03.05 0 .09.07.13.19.18.09.03.16-.03c1.96-1.59 2.1-4.4 4.96-5a.36.36 0 0 0 .03-.69q-1.12-.34-.72-1.42a.35.34 40.9 0 1 .63-.04l.94 1.74q.33.61.92.24l4.15-2.63q.35-.22-.06-.22-.46 0-.85.3-.36.27-.64-.07-.09-.12-.07-.28.01-.07.04-.13l1.64-3.1zM283.25 104.48q-2.71 2.23-5.37 2.36-.54.03-.89.45l-1.12 1.35a.29.28 37.5 0 1-.39.05l-.22-.16q-.37-.27-.01-.55.5-.39 1.06-.57.77-.25.14-.77-.62-.51-1.54-.73l4.13-1.13q1.68.91 2.73-.49.84-.1 1.48.19M189.18 107.52l1.01-2.35q.08-.19.24-.06l.21.18q.11.08.08.21-.28 1.14-.84 2.09-.1.18-.28.27-.13.07-.27.01-.26-.1-.15-.35"/><path d="M268.97 105.72q-1.34-.11-1.77.35a.55.55 0 0 0 .39.92l6.76.21q.65.01.37.6-1.07 2.26-3.75 3.11-.48.15-.85-.19l-3.43-3.2q-.26-.24-.48.04l-.18.23q-.12.15.01.28l3.17 3.22q.47.49-.13.81-5.86 3.13-10.96 6.91c-2.4 1.79-5.06 2.51-8 2.9a1.46 1.46 0 0 1-1.5-2.09q1.94-3.93 5.47-7.22 1.13-1.05 2.24.03l3.57 3.47a.52.51-40.5 0 0 .64.05q.44-.29.17-.59-1.73-1.88-3.88-3.1a1.24 1.24 0 0 1-.14-2.06c1.17-.9 1.9-2 3.43-2.33q2.7-.59 5.06-.84.52-.06.58-.57l.18-1.37zM288.51 106.13q-.22.25-.51.4-.46.25-.9-.03l-1.93-1.25q1.57-.14 3.34.88M235.42 113.21l-1.32-.57a.13.13 0 0 1-.06-.19l4.82-6.85a.13.13 0 0 1 .11-.06l.18.02a.13.13 0 0 1 .1.18l-3.67 7.41a.13.13 0 0 1-.16.06M201.87 107.89q-.65-.64-1.46-1.03-.51-.25-.26-.76.15-.31.49-.2 1.35.42 1.67 1.74.21.89-.44.25"/><path fill="#fff" d="M213.87 106.16a.21.21 0 0 1-.07.36q-.78.27-1.48-.15a.23.23 0 0 1 .02-.4q.83-.41 1.53.19"/><path d="m281.49 107.11 1.24-.73q.52-.31 1.1-.11l2.55.89q.68.24.27.84l-.15.23q-.37.52-.99.36l-3.96-1.03q-.56-.15-.06-.45M296.22 108.34q-1.01.98-1.36 2.19a.53.53 0 0 1-.81.28l-4.5-3.12q-.35-.25-.31-.67.03-.38.31-.79zM193.54 108.46a.35.35 0 0 1 .22-.5l3.92-1.11a.48.48 0 0 1 .59.61l-1.27 4.02a.99.99 0 0 1-1.83.15zM233.04 109.5q1.59-1.11 3.04-2.39.04-.04.08 0l.18.18q.17.17.02.35l-3.13 4.04a.96.96 0 0 1-1.69-.36q-.23-.94.62-1.32.46-.2.88-.5"/><path d="M198.21 112.43q-.15.05-.27-.06-.15-.15-.09-.35l1.28-4.07q.2-.63.74-.26l4.39 2.99a.5.5 0 0 1-.09.88q-2.14.9-4.11-.41a.6.57 47.9 0 0-.57-.04q-.59.29-.39.7.09.19.3.2l1.51.1q.46.03.46.48 0 .13-.08.25-.11.16-.28.25-.74.34-1.5.62a.41.41 0 0 0-.1.72l.22.17q.25.17.4-.08.97-1.56 3.11-.63.71.31-.05.44l-2.57.41q-.37.06-.4.44l-.02.33q-.01.19.18.24c1.09.25 2.16.29 3.15.91q2.71 1.68 5.21 3.64.09.07.03.16h-.01q-.11.18-.29.07-4.6-2.72-9.07-4.93-1.12-.56-2.22-1.26-2.22-1.4.41-1.24.57.04.93-.31.6-.6-.21-.36M296.66 108.72q5.57 1.43 7.2 5.15l-4.9-.92q-1.05-.2-.33-.98.2-.21.48-.35.63-.32-.07-.47-.73-.16-1.3.61-.42.56-1.12.65l-4.92.58q-.57.07-.06.35.42.23.91.28a.81.8-72.6 0 1 .62 1.2l-1.79 3.12a1.04 1.04 0 0 1-.94.53q-6.31-.22-12.78-.23c-.66 0-1.41-.13-1.94-.55q-.45-.35-.72.15-.54.98-1.71.65-.84-.24-.03-.56.12-.05.16-.18.1-.3-.18-.44c-2.79-1.47-6.37 3.93-9.72 1.11q-.22-.18-.49-.16-.27.03-.4.28-.06.14.01.27.1.18.21.33.29.4-.2.46l-3.76.53q-.88.12-.15-.39 5.59-3.93 11.03-6.91.46-.26.91.02.3.19.53.47c.51.65 1.48.79 2.09.17 1.01-1.03.3-2.49 1.78-3.44q1.88-1.22 4.06-1.91a1.02 1 42.4 0 1 .59-.02l4.79 1.2a.38.38 0 0 1 .22.57q-1.86 2.88-4.43 4.79-.64.48.16.47.83-.02 1.6-.28.52-.18.77-.67 1.16-2.24 3.22-3.92.33-.26.72-.11l4.51 1.82q.53.22.79-.29.13-.23-.11-.37-1.99-1.12-4.39-1.84a.41.4-61 0 1-.18-.65l.32-.38a.48.47 31 0 1 .54-.13q2.56 1.04 4.31 2.93.37.4.92.39 2.7 0 3.17-2.93m-12.3 5.74q2.05-.02 4.18-.66 2-.6-.09-.66-2.36-.07-4.21.76-1.31.58.12.56m-10.24.95q-.59-.57-1.39-.58-.25 0-.44.15-.15.12-.21.27-.2.52.34.68 3.39 1.04 6.63-.27 1.17-.47-.08-.55-1.75-.12-3.45.58a1.3 1.3 0 0 1-1.4-.28m5.44.87a.49.48-67.9 0 0 .33.79q.5.05.78-.38a.47.47 0 0 0-.24-.7q-.51-.17-.87.29M193.74 112.52q.17.19.22.44.22.95-.62.46-1.97-1.12-4.27-1.7-.65-.16-.94-.7-.49-.88.25-1.79a1.87 1.86 48.3 0 1 3.02.18q.98 1.55 2.34 3.11M192.35 108.67a.15.15 0 0 1 .22-.05q.14.12.1.27-.12.41-.33.05-.07-.12.01-.27M246.98 111.24q.47-.92 1.15-2.04.99-1.63.45.21-.34 1.16-1.7 1.86-.08.04-.01.1.01.01.01 0 .06-.06.1-.13M219.3 111.15q.53-1.25 1.34-2.36.14-.2.36-.09l.61.29q.62.3.1.76l-1.94 1.73q-.98.87-.47-.33"/><ellipse fill="#fff" rx="3.21" ry=".56" transform="rotate(-.1 63072.144 -99536.534)"/><path fill="#fff" d="M195.1 142.4c-1.9-.52-3.6-.41-5.36-1.17-2.05-.87-6.11-1.8-7.5-3.47q-.23-.5-.69-.54-.25-.31-.6-.39.94-2.66-3.45-2.08-.86-.51-1.52-1.43 2.63-.36 5.15.53.48.17.8-.23.26-.33.19-.8-.11-.72-.53-.12l-.22.31q-.32.45-.75.09-.88-.74-1.49-1.63-.43-.64.34-.59.48.03.89.23.56.26.34-.32-1.05-2.85-3.2-3.84a1.01.98 7.9 0 1-.56-.72q-.34-1.92-1.68-2.3-3.65-1.04-7.26-2.26-.84-.64-.63-1.47l5.9-.71q.45-.06.26-.47c-.98-2.16-5.35-3-7.54-3.78l-.15-1.09q1.71.43 3.12 1.09 2.77 1.3.6-.86-1.04-1.04-4.06-1.66.21-.86-.07-1.39-.53-.73-.31-1.49 2.52-.29 2.7 1.57a1.1 1.1 0 0 0 .55.84l4.25 2.43q.33.19.24.56-.04.17-.18.21-.73.21-.08.6c2.08 1.26 2.6 3.32 3.95 5.2q2.44 3.39 4.47 7.96.28.63.74 1.1.49.49.35 1.14-.11.56.35.89.35.27 1 .74.53.39.47-.27l-.24-2.54q-.05-.53-.53-.75l-.23-.11q-.98-.47.1-.5l7.23-.21q.61-.01.6.6-.01.34.1.68.16.51-.36.66-2.91.85-4.91-.14-1.09-.53-.71.62.31.92-.02 1.75-.17.42.07.8.2.32.57.37.47.07.63-.37l.12-.32q.12-.35.5-.37.5-.02.78.44.33.53.96.52l3.53-.04q.42-.01.44.41l.06 1.53q.03.55.29 1.03.49.87.53 1.89.02.74-.48.2c-1.28-1.36-3.85-3.85-5.62-4.09q-1.09-.15-.18.47l5.08 3.51a.83.83 0 0 1-.07 1.42l-1.09.58q-.5.26.07.25.55-.02.96-.4.39-.37.92-.22.88.25 2.07 1.92m-21.44-21.99-2.67.18q-2.52.18-.13 1 2.29.79 4.76 1.32 1.02.22.37-.59l-1.11-1.37q-.47-.59-1.22-.54m8.78 16.49q-.08.63.35.16.58-.65.21-1.4-.34-.7-.43.07zm9.61-1.39q-.07-.41-.51-.42a.33.32 84.3 0 0-.32.4q.1.47.58.38a.32.31-10.4 0 0 .25-.36"/><circle cx="178.34" cy="110.18" r=".43" fill="#fff"/><path d="M165.5 112.72q-.36-.67-.07-1.39.28.53.07 1.39M272.98 111.68l-.16 1.06q-.11.7-.69.3-.48-.32-.4-.93.09-.71.73-.89.62-.18.52.46M165.84 114.15l-.34-1.43q3.02.62 4.06 1.66 2.17 2.16-.6.86-1.41-.66-3.12-1.09"/><path fill="#fff" d="M225.03 122.46q.86-.66.46-.85-.42.27-.46.85l-3.45 1.74q-.39.2-.48-.23-.04-.16-.01-.32.06-.35.41-.42.23-.04.35-.19.22-.26.04-.55l-1.67-2.7q-.58-.95.48-.63.22.07.43.08.48.03.8-.33l4.87-5.39q.86-.95.73.33-.04.37-.2.7-.21.44.2.72.59.41.5 1.11-.06.49.39.7.68.32.35.97-.15.31-.43.52-1.79 1.38-1.98 3.55-.04.51.42.74c.53.28 1.22.11 1.64-.31q.55-.57 1.2-.98a.33.33 0 0 1 .49.35q-.17.74-.81 1.13a.43.43 0 0 0 0 .73q.37.22.78.23.74.02.91.74l.86 3.69q.15.65-.38 1.05l-5.88 4.42q-.37.28-.47.74-.25 1.24-.78 1.94-.87 1.16-.54-.26.4-1.74-.16-3.94-.85-3.31-1.73-6.84a.49.48 74.9 0 1 .33-.58q.16-.05.37-.02a.59.56 76.2 0 1 .42.27q.17.27.42.43.83.49.44-.39-.08-.17-.08-.36-.02-.5.38-.81.89-.7.84-1.63m-1.91-3.42a.61.61 0 0 0 .11.91l.79.53q.55.37.98-.14 1.78-2.09 2.07-4.82.11-.96-.54-.25zm2.56 9.49q.11.48.48.8.33.29.3-.16-.03-.53-.5-.84-.39-.26-.28.2M284.36 114.46q-1.43.02-.12-.56 1.85-.83 4.21-.76 2.09.06.09.66-2.13.64-4.18.66"/><path d="m303.65 114.47.01 1.37q-1.68 1.06-2.37 1.11-.62.04-.98-.26l-2.81-2.41a.22.22 0 0 1 .16-.39zM205.23 114.53q.4-.23.72.17a.33.33 0 0 1-.28.53q-.36-.03-.54-.37-.11-.22.1-.33M294.38 114.52q-.05-.25.19-.16.09.03.12.13.11.32-.2.17-.09-.04-.11-.14M243.55 114.74l-1.03 1.27q-.33.41-.78.13-.17-.11-.17-.32.01-.15.11-.25.72-.7 1.69-1.08.57-.23.18.25M211.96 115.92q.13-.08.3-.09.75-.06.04.21c-1.43.55-2.11-.01-3.48-.18q-.64-.08-.86-.68a.42.42 0 0 1 .57-.52l2.77 1.27q.33.15.66-.01"/><path fill="#fff" d="M274.12 115.41a1.3 1.3 0 0 0 1.4.28q1.7-.7 3.45-.58 1.25.08.08.55-3.24 1.31-6.63.27-.54-.16-.34-.68.06-.15.21-.27.19-.15.44-.15.8.01 1.39.58M184.49 120.41q.34.07.39-.27l.07-.5q.02-.09-.08-.12-2.79-.74-5.82-.95a.92.92 0 0 1-.64-1.5q.55-.66.57-1.51a.57.57 0 0 1 .57-.56l3.01-.02a1.18 1.18 0 0 1 .99.54l2.3 3.52q.31.49.22 1.06-.12.74.53 1.07.47.24.72.71 1.16 2.11 2.39 4.28.9 1.6-.93 1.62l-6.24.09q-1.8.03-2.55-1.62l-1.94-4.29q-1.93-4.3 2.5-2.7 1.85.66 3.94 1.15"/><path d="m223.12 119.04 3.41-3.77q.65-.71.54.25-.29 2.73-2.07 4.82-.43.51-.98.14l-.79-.53a.61.61 0 0 1-.11-.91M298.15 118.61q-2.05.8-4.84.13-.82-.19-.32-.88l1.84-2.49a1.24 1.23-48.5 0 1 1.89-.12l1.76 1.86q.95 1-.33 1.5M167.37 120.2q-1.17-2.47-1.38-4.96c2.19.78 6.56 1.62 7.54 3.78q.19.41-.26.47zM216.78 115.85q-.47.93-1.13 1.68-.22.25-.47.02l-.23-.22q-.25-.23-.02-.48.69-.73 1.52-1.29.71-.49.33.29"/><path fill="#fff" d="M174.17 115.62q.22.05.41-.04.12-.06.19.05.03.06.03.12.01.05-.04.08-.37.17-.68-.01a.11.11 0 0 1 .09-.2M279.56 116.28q.36-.46.87-.29a.47.47 0 0 1 .24.7q-.28.43-.78.38a.49.48-67.9 0 1-.33-.79M177.28 118.4l-.31.56q-.33.6-.52-.06-.21-.76-.74-1.35a.72.72 0 0 1 .4-1.18q.87-.18 1.62.14a.59.58 18.8 0 1 .34.68q-.11.41-.4.7-.23.22-.39.51M232.92 121.08c1.48-.96 2.36-1.72 3.54-2.77q1.39-1.24.38.33c-1.24 1.95-3.56 3.43-4.28 5.57q-.25.76-.53 0-.75-2.06.89-3.13"/><path d="m303.64 118.33.11 1.45q-.94-.53-2.03 0-.31.15-.5-.14-.1-.16-.08-.37.04-.32.36-.27 1.61.24 2.14-.67M247.64 119.31q-.31.5-.24-.08.02-.13.12-.06.05.03.09.05.07.03.03.09M299.88 119.43q-.18.22-.44.28-.59.14-.22-.34.17-.22.43-.3.71-.21.23.36M300.75 127.57l-6.66-3.52q2.15-.49 3.96.4.66.33 1.13-.24l.39-.48q.47-.57-.25-.68-3.28-.54-6.12.75-1.48.48-3.17-.19-.75-.34-1.29-1.2-.27-.43-.7-.17-.85.5-1.53 1.48-5.81.65-11.56 1.27-1.29.14-4.81.86c-3.82.78-6.81.33-11.54-.2l5.73-3.9q.54-.37.99.12l2.28 2.55q.22.25.43 0l.17-.2q.15-.17.03-.36-.98-1.65-2.49-2.88-.67-.54.18-.67l4.77-.72q.67-.1.51.56-.21.87-.17 1.79.04.75.5.16.62-.77.68-1.81.03-.53.55-.63 1.72-.34 3.65-.26 1.81.08 3.65-.04 3.96-.26 9.01.11a.56.55 72.2 0 1 .38.2q.2.23.19.46-.02.54.46.3l.9-.43q.68-.33.33.34-.5.97.1 2.2a.85.84 61.9 0 0 1.17.36q1.94-1.12 3.82-2.17c1.34-.75 2.71-.18 4.12-.1q.67.03.49.68-.15.54-.49.98-.29.39.18.52.17.05.24.23.06.18.03.37-.36 1.99-.24 4.16m-22.64-5.85q.68 1.54 1.83 2.33 1.15.8.52-.45-.91-1.82-2.27-3.46-.61-.73-1.11.07l-1.77 2.84q-.29.48.25.63l.47.14q.07.02.1-.05.52-1.27 1.26-2.15.44-.52.72.1m-6.96 1.54q.04.13.03.25-.02.29.11.03.1-.2-.07-.33a.05.05 0 0 0-.07.05"/><ellipse rx=".37" ry=".33" transform="rotate(103.8 75.107 156.03)"/><path d="M294.06 119.82q.35.04.65.23a.35.35 0 0 1-.01.59l-2.05 1.25a.34.34 0 0 1-.52-.31q.12-1.93 1.93-1.76"/><path fill="#fff" d="M277.39 121.62q-.74.88-1.26 2.15-.03.07-.1.05l-.47-.14q-.54-.15-.25-.63l1.77-2.84q.5-.8 1.11-.07 1.36 1.64 2.27 3.46.63 1.25-.52.45-1.15-.79-1.83-2.33-.28-.62-.72-.1"/><path d="M173.66 120.41q.75-.05 1.22.54l1.11 1.37q.65.81-.37.59-2.47-.53-4.76-1.32-2.39-.82.13-1zM244.03 122.93c.68-.87 1.58-1.49 2.24-2.27q.52-.61.39.18-.39 2.33-2.25 2.71-1.03.21-.38-.62M257.44 125.68l-5.73-.44q.42-.71 1.34-.89.51-.1.56-.62.03-.26.18-.48.18-.26.47-.42 3.39-1.85 7.5-2.04.54-.03 1.01-.31.34-.2.7-.19.8.01.18.51c-2.01 1.63-4.86 2.67-6.21 4.88M303.71 120.77l-.67 1.96q-1.27-.2-1.02-.96.28-.89 1.69-1"/><ellipse rx="3.14" ry=".51" transform="rotate(24.7 -184.117 498.664)"/><path d="M225.03 122.46q.04-.58.46-.85.4.19-.46.85M175.98 133.32q-3.94-3.05-6.49-7.56.58-.04.35-.41-.26-.43-.62-.04l-1.22-3.64q3.61 1.22 7.26 2.26 1.34.38 1.68 2.3a1.01.98 7.9 0 0 .56.72q2.15.99 3.2 3.84.22.58-.34.32-.41-.2-.89-.23-.77-.05-.34.59.61.89 1.49 1.63.43.36.75-.09l.22-.31q.42-.6.53.12.07.47-.19.8-.32.4-.8.23-2.52-.89-5.15-.53m-3.13-8.04.27.26q.62.59.84-.24l.14-.5q.25-.94-.72-.88-1.33.07-2.39.51-.85.36.07.45l1.11.09q.4.04.68.31M247.19 122.26a.59.58 88 0 1 .56-.61q.99-.05.7.88a.54.54 0 0 1-.54.37q-.69-.03-.72-.64"/><path fill="#fff" d="m290.03 123.61-3.52.11q.68-.98 1.53-1.48.43-.26.7.17.54.86 1.29 1.2"/><rect width="8.58" height="1" x="-4.29" y="-.5" rx=".46" transform="rotate(-19.9 457.961 -523.693)"/><path fill="#fff" d="M271.15 123.26a.05.05 0 0 1 .07-.05q.17.13.07.33-.13.26-.11-.03.01-.12-.03-.25M294.09 124.05q-.58.02-.89-.25 2.84-1.29 6.12-.75.72.11.25.68l-.39.48q-.47.57-1.13.24-1.81-.89-3.96-.4M172.17 124.97l-1.11-.09q-.92-.09-.07-.45 1.06-.44 2.39-.51.97-.06.72.88l-.14.5q-.22.83-.84.24l-.27-.26q-.28-.27-.68-.31M169.49 125.76q-.2-.2-.27-.45.36-.39.62.04.23.37-.35.41"/><path d="M302.62 125.3q.08 1.04-.55 1.88-.04-1.15.55-1.88M203.13 131.14q.44-1.71-.58-2.44-.28-.2-.45-.49-.12-.19-.04-.4.13-.33.45-.18 2.06.96 1.06 3.65a.23.23 0 0 1-.44-.14M215.31 129.14q-.18.01-.19-.16-.02-.31.19-.57a.31.31 0 0 1 .55.22q-.05.46-.55.51M225.68 128.53q-.11-.46.28-.2.47.31.5.84.03.45-.3.16-.37-.32-.48-.8"/><path fill="#fff" d="M239.12 133.68c.34-1.96 1.35-3.26 1.79-5.01q.22-.87.35.01.16 1-.28 1.96-.2.44-.29.9-.28 1.32-1 2.37a.32.31-22.9 0 1-.57-.23"/><path d="M209.31 133.34q0 .14.05.27.12.34.49.32 2.27-.11 3.18 2.03a.4.39 60.5 0 1-.12.46q-.27.22-.52.11-.16-.07-.26-.21c-1.34-1.91-4.06-2.4-4.72-4.44q-.21-.64-.87-.74l-.81-.12q-.53-.07-.73-.56-.09-.24-.05-.5a.4.4 0 0 1 .61-.28q.79.47 1.32 1.19.4.55 1.07.47 1.01-.12 1.91.29.57.27 1.05-.13l.3-.23q.33-.27.6.05.34.41.05.84-.67 1.02-1.91.67-.66-.18-.64.51M213.36 129.91q-.03-.11.09-.15.18-.06.17.14-.01.1-.11.11-.11.01-.15-.1"/><path fill="#fff" d="M231.67 135.81q.56.08 1.09-.06.49-.12.6.38.53 2.35-1.67 2.74a.53.53 0 0 1-.61-.38l-.71-2.52q-.12-.43-.57-.42-.2 0-.31.12-.34.35-.03.73.45.55.39 1.22-.06.76-.56.18l-1-1.14q-.79-.92-.7.29c.08.96 1.15 1.68 1.78 2.34a.47.46 56.6 0 1-.15.75l-.43.18a.91.91 0 0 1-.98-.18q-1.18-1.1-2.62-1.76-.49-.23-.19-.68.81-1.25 2.06-1.85.43-.21.67-.62 1.5-2.51 3.82-4.68.46-.43.62.18l.98 3.67q.18.65-.48.82l-1.03.26q-1.07.28.03.43"/><path d="M195.25 130.27q1.03-.27 2.1.32.56.32-.05.51-1.04.34-2.06.04a.45.45 0 0 1 .01-.87M201.05 131.25l-1.75-.3q-1-.18-.08-.61.55-.26 1.22-.14.7.12.92.67.2.47-.31.38"/><path fill="#fff" d="M191.53 131.55a.43.42-11.6 0 1 .39.25q.22.5-.14.94-.44.51-1.07.35-.37-.1-.32-.49.13-1.04 1.14-1.05M240.73 134.55q.71-1.35 1.25-1.59.72-.32.27.48-.52.94-1.52 1.11"/><path d="M215.43 134.3q-.17-.17-.26-.4-.16-.44.18-.12l.31.29q.1.1.01.22-.11.15-.24.01M180.95 136.83l-3.45-2.08q4.39-.58 3.45 2.08"/><path fill="#fff" d="M240.73 134.55q-.43.48-.98.97-.51-.39.98-.97"/><path d="M216.41 135.86q-.75.19-1.26-.33-.41-.42.18-.48.71-.06 1.18.52a.18.18 0 0 1-.1.29M195.28 135.31c1.14.01 2.02 1.11 2.94 1.77q.78.56-.15.33-1.78-.44-3-1.55-.62-.56.21-.55M206.65 136.75q-.01.17-.11.3-.11.14-.28.19-.25.07-.51.08-.93.06-.33-.65.89-1.04 1.96-1.56.52-.26.41.32-.08.45-.5.54-.61.14-.64.78"/><path fill="#fff" d="M235.78 137.04q-.33.25-.55-.1l-.16-.25q-.06-.1.04-.17l2.25-1.61q.14-.1.27.02l.2.21q.2.22-.04.4z"/><path d="m182.44 136.9.13-1.17q.09-.77.43-.07.37.75-.21 1.4-.43.47-.35-.16M192.05 135.51a.32.31-10.4 0 1-.25.36q-.48.09-.58-.38a.33.32 84.3 0 1 .32-.4q.44.01.51.42M209.58 137.1q-.57.08-1.18.03-.42-.03-.34-.45.03-.13.12-.23.02-.02.05-.02.77-.07 1.41.22.75.34-.06.45"/><path fill="#fff" d="M240.65 137.02Q238 139 234.72 140q2.22-3.26 5.93-2.98"/><path d="M182.24 137.76q-.48-.12-.69-.54.46.04.69.54"/><path fill="#fff" d="m223.05 138.43-2.51 3.27a.64.64 0 0 1-.84.16l-1.41-.84a.64.64 0 0 1-.1-1.02l2.12-1.93a.64.64 0 0 1 .26-.14l1.8-.5a.64.64 0 0 1 .68 1M201.69 138.46q.09-.31.47-.28a.37.36 13.4 0 1 .31.49q-.11.28-.44.27a.37.37 0 0 1-.34-.48M201.61 140.67q-1.03.16-1.63.85-.33.39-.78.13-.24-.15-.45-.42-.29-.37-.64-.05l-.24.22q-.26.24-.03.51l.7.82-1.26-.12-2.45-2.37q-.33-.32.06-.56.16-.09.33-.01 1.77.8 3.35-.23a1.34 1.31-57.6 0 1 .89-.21q1.47.17 2.15 1.44M226.59 141.42q-.32.39-.76.54-.6.2-.71-.42l-.26-1.66q-.12-.7.53-.43.82.34 1.28 1 .34.48-.08.97M224.17 143.25l-3.54.61q.94-2.4 2.73-4.01.4-.36.46.17zM234.24 140.26q-.42.59-.98.4.45-.44.98-.4"/><path d="m201.61 140.67-1.45 2.13q-.82.34-1.62-.07l-.7-.82q-.23-.27.03-.51l.24-.22q.35-.32.64.05.21.27.45.42.45.26.78-.13.6-.69 1.63-.85"/><path fill="#fff" d="m230.28 141.68-3.69 1.11q1.55-1.37 3.69-1.11"/><path d="M207.18 143.77q-.49.2-1.44.23.56-.83 1.44-.23"/></svg>