<svg xmlns="http://www.w3.org/2000/svg" viewBox="0 0 382 382"><g fill="none" stroke-width="2"><path stroke="gray" d="M184.02 76.25q-.9-.37-1.11.25-1.52 4.5-3.7 9.04-.2.43-.68.44l-1.45.04q-.47.01-.76.38-3.87 4.95-8.39 9.21c-2.1 1.98-2.79 4.55-4.28 7M163.3 101.26l1.25-2.5q.16-.34-.16-.15-.18.1-.29.28a.83.81 19.5 0 1-.84.39q-.32-.06-.7-.27M162.47 98.76q2.39-1.66 4.16-3.5.06-.07.09-.15.05-.13-.07-.24-.13-.12-.07-.28l6.4-17.23" vector-effect="non-scaling-stroke"/><path stroke="gray" d="m174.27 77.25-.59 3.62q-.09.55-.59.79l-.79.4q-.45.23-.6.7-.99 3.14-2.1 6.4c-.5 1.46-1.6 2.59-1.65 4.15q-.02.48-.35.83l-.45.48q-.1.1.01.2.15.13.28 0 4.28-4.29 8.4-9.33.32-.39.29-.89-.11-1.75-.88-3.45-.22-.47-.07-.96l.91-3.15M188.17 76.07q1.31 2.48 2.86 4.75.12.18.01.38t-.55.1q-.24-.05-.37-.25l-2.63-3.86a.48.48 0 0 0-.84.07c-1.66 3.56-2.25 7.7-4.46 10.92a.44.44 0 0 0 .28.68c1.44.25 2.49-.8 3.78-1.26q.87-.31.22.34-.77.79-1.77 1.42-.47.3-.58.85-.24 1.1-.49 1.43-4.15 5.39-9.4 10.41-1.2 1.15-2.62 1.53c-2.05.55-3.6 1.33-5.12 2.93q-.17.18 0 .36l.22.23q.06.06.13.01 1.86-1.24 3.64-2.19.13-.07.24.03.04.04.04.1 0 .2-.16.32-1.85 1.37-3.64 2.87-.7.6-1.03-.26-.31-.79-1.25-.16" vector-effect="non-scaling-stroke"/><path stroke="gray" d="m184.02 76.25-3.36 11.15q-.07.21.12.32l.3.18q.3.19.43-.15l4.34-11.52M158.07 91.87q-.34-.07-.04-.66.13-.23.39-.46 6.24-5.41 10.6-11.34.37-.5.86-.12.2.15.28.39a.39.39 0 0 0 .73.03l.88-1.93M199.42 76.07q1.81 1.14 2.76 2.94a2.22 2.22 0 0 1-1.06 3.05q-3.24 1.45-6.94 1.82-.48.05-.77.44-.46.62-1.21.77-.6.12-.33-.42 1.21-2.41 2.05-5.59.57-2.15-.62-.27-1.38 2.16-2.67 5.86c-.33.94-1.04 1.39-1.77 1.99a.31.31 0 0 0 .17.55q.49.04.93.32.41.27.7-.14l.6-.88q.32-.45.87-.52 1.05-.14 1.97-.66a1.25 1.23-43.9 0 1 1.22.01l2.78 1.63q.65.38.24 1.02-2.42 3.75-4.89 7.36c-1.14 1.66-3.22 2.56-4.98 3.39q-1.12.54-.81-.67.31-1.19 1.35-1.1.75.06 1.4-.33.69-.42.52-1.17-.18-.83-.66-.14l-.65.95a1.3 1.29-75.7 0 1-.89.53q-1.15.15-1.99.98-.31.29-.54-.06l-.17-.27q-.09-.14.04-.24l2.59-2.12a.6.6 0 0 0-.01-.93q-1.33-1.05-.34-2.5.8-1.18 1.27-2.52.09-.26-.18-.32l-.45-.09q-.16-.04-.24.11l-1.39 2.66q-.23.43-.7.45l-1.47.05q-.55.03-.89.46-4.23 5.51-9.57 10.47-.61.57.22.64 1.42.13 2.32 1.36a.48.48 0 0 0 .84-.11q.51-1.43 2.05-2.04.73-.29.19.28-1 1.03-2.23 1.92-.04.03-.06.06-.09.14-.09.29.02.41-.32.63-3.33 2.21-6.1 5.36-.23.26-.44-.01l-.27-.35q-.2-.26.04-.48l5.08-4.68q1.06-.97-.36-1.22l-.75-.13a3.1 3.08-59 0 0-2.45.62l-7.28 5.7M156.52 91.54q3.1-5.91 4.72-12.5M162.31 78.97l-2.98 9q-.29.9.42.27 4.69-4.11 8.58-9.84M202.05 76.09q.32.72.78.94.42.2.83-.16.33-.3.56-.77M205.56 76.15q-.16.3-.17.58-.03.55.52.58 1.72.08 3.36-.72M210.84 76.93q-2.31 1.6-5.17 1.35a.88.87 12.6 0 0-.9.57l-.57 1.54a.66.65-84.1 0 0 .71.88l5.8-.9a.23.22-11.5 0 1 .25.16l.08.28q.03.1-.06.14-2.43.97-5.37 1.16-.72.05-.39.69l.4.78q.38.72-.35.36-.63-.31-1.09-.85a.75.75 0 0 0-1.28.23q-.31.88-1.19.8a.39.39 0 0 0-.42.28q-.11.44.33.72.13.08.22-.05.09-.14.22-.09.55.21.2.68-.27.36-.32.82a.61.61 0 0 0 .55.67l3.63.31q.62.06.34-.49l-.78-1.5q-.17-.32.1-.55.13-.12.32-.11.33.02.51.29l.76 1.25a1.91 1.91 0 0 0 3.35-.18l2.01-4.24q.11-.24.03-.49l-.17-.5q-.18-.53.33-.77 1.09-.51.82-1.71-.1-.48.32-.72.19-.1.41-.14M215.49 77.94q-.57.82-.44 1.38.12.55.68.53l5.23-.16M222.49 80.24l-4.02 3.9q-.34.33-.15.75l1.06 2.39q.9 2.01 1.81.01l2.82-6.24M224.89 81.7l-8.34 16.79q-.81 1.62.98 1.39l.79-.1q1.65-.21 2.31-1.75.93-2.2 1.67-4.77.32-1.11-.62-1.71-.74-.46.13-.42.81.03 1.61-.27a.46.45-4.8 0 1 .61.51q-.33 1.64 1.02 2.9a.45.45 0 0 0 .69-.1q2.35-4.02 4.67-8.34.13-.23.35-.39.25-.16.44-.22" vector-effect="non-scaling-stroke"/><path stroke="#d7d6d1" d="m232.02 85.96.05.49q.05.45.5.51l.74.1" vector-effect="non-scaling-stroke"/><path stroke="gray" d="m233.31 87.06-5.11 12.06q-.09.22-.32.18l-.36-.05a.35.34 85.5 0 0-.37.44q.09.27.33.41.35.2.51-.17.15-.37.53-.47.81-.19.47.56-.51 1.11-.11 2.44.24.79-.59.78l-2.77-.05q-.3 0-.37.29l-.06.26q-.08.31.24.31l3.09-.03q.53 0 .64.51l1.1 5.01q.03.13.15.11l.34-.05q.27-.03.23-.3l-1.16-8.28a.99.99 0 0 1 .32-.87q1.33-1.19 3.2-1.46.52-.08.45.45l-.09.66q-.15 1.06.35.12l4.63-8.69" vector-effect="non-scaling-stroke"/><path stroke="gray" d="m240.06 92.48-.63 2.92q-.14.62-.75.43l-.49-.16a.27.26 25.8 0 0-.3.1q-.13.16-.09.35a.5.5 0 0 0 .6.38q.6-.15 1.2-.01.64.15.43.77l-.28.84q-.21.63.44.74c3.48.61 4.16 3.83 2.65 6.47q-.86 1.51-1.38 3.15-.74 2.33-1.54 4.39-.2.52-.73.36-1.06-.32-2.39-.67-.07-.02-.1.05l-.17.43q-.13.33.21.44l1.98.63q.64.21.47.86l-.6 2.29q-.21.84-.87.28-2.27-1.9-4.42-1.9-.58-.01-.73-.57l-.64-2.39q-.18-.66.5-.59.9.09 1.54.74.51.51 1.14.22.47-.21.3-.69-.93-2.57-.94-5.84 0-.2-.2-.24l-.44-.1a.27.27 0 0 0-.32.28l.29 4.34q.05.64-.59.54-.91-.13-1.7-.63-.49-.31-.55.27-.21 2.26.23 3.53 1.87 5.51 4.32 10.51 1.01 2.07-.91.8-2.84-1.87-6.36-2.32a.3.3 0 0 0-.34.27l-.14 1.29q-.03.27.24.31 5.25.79 7.27 5.66.37.88-.39.3l-3.57-2.74q-.25-.2-.39.08l-.17.34a.36.36 0 0 0 .1.44l4.19 3.34q1.32 1.04.06 2.16l-1.42 1.26q-.97.86-1.84-.11-2.04-2.31-4.85-2.43-1.21-.06-2.32-.3c-2.28-.48-5.27 1.11-6.9 2.54q-.48.42-.62-.2-.57-2.5.49-4.1.28-.41-.21-.45-.2-.01-.33.14-.19.22-.21.52c-.24 2.73-1.16 4.85.29 7.52q.31.58-.33.64-.29.02-.5.3-.07.1-.11.22-.07.22-.01.42.17.52.67.3 1.14-.5 1.93.4.31.35.78.32.44-.03.42-.47a.66.65 0 0 1 .69-.68l3.88.2q.34.02.31-.33l-.03-.27q-.02-.18-.19-.21-2.67-.53-5.31-.33a1.06 1.05-25.5 0 1-.78-.27q-.81-.73-.8-1.89.01-.52.42-.83 9.3-6.9 15.75 3.45" vector-effect="non-scaling-stroke"/><path stroke="gray" d="M229.26 141.97q.57-1.14 1.76-1.94.49-.33.48-.76-.03-.71-.49-.17-1.65 1.94-3.95 1.94-.61-.01-.4.56.15.43.68.9M222.2 143.43q-.52-.66-2.21.21M210.39 143.85q1.51-1.21 3.51-1.77.17-.05.23.11l.1.26q.32.82.65.01.29-.7.24-1.59-.04-.65-.62-.35l-5.11 2.67a.29.28-27.4 0 1-.39-.12q-1.65-3.37-1.76-6.43-.14-3.69-1.58-.29-.98 2.32-1.1 4.8-.03.62-.58.33l-3.67-1.92q-.3-.15-.46.14l-.14.25q-.17.32.15.49c1.56.81 3.97 1.65 4.59 3.32M185.45 139.59l.74-4.4q.15-.83.88-.41.98.56 2.05.31.51-.12.86.27 1.76 1.95 3.93 1.79 1.51-.12.1-.68l-6.76-2.69a.67.67 0 0 1-.17-1.15q2.03-1.63 3.87-3.57 1.07-1.12-.16-.17-4.76 3.69-9.75 8.22M178.33 135.12c.92-1.19.4-3.16 2.71-3.3" vector-effect="non-scaling-stroke"/><path stroke="gray" d="m181.04 131.82.52.26a.02.02 0 0 0 .02-.04q-.2-.14-.54-.22M181.04 131.82q-.25-1.35.34-1.94 3.63-3.62 7.11-7.39.85-.91 2.12-1.36a.31.31 0 0 1 .42.27q.02.31.35.39.51.12.52-.41 0-.27-.13-.5a.81.8 43.6 0 1-.02-.77q.49-1 1.44-.79.46.1.81-.22 2.39-2.22 5.55-3.39.91-.34.33.43l-4.83 6.38q-.15.2.04.37l.21.19q.06.04.1-.01 3.1-3.08 6.03-7.52.34-.51-.26-.61-1.47-.24-2.8.06-.48.1-.68.55-.07.16-.25.15a.28.28 0 0 1-.17-.51q.39-.3.49-.74.14-.7-.45-.29-2.66 1.83-3.88 4.78-.09.21-.26.07l-.4-.34q-.31-.27-.63-.02-5.32 4.03-9.73 8.8c-.98 1.06-1.24 2.56-2.55 3.33q-1.06.63-1.99-.18-.32-.27-.52-.67a1.73 1.71 57.4 0 1 .46-2.13q2.16-1.74 4.58-4.45.16-.17-.01-.33l-.18-.18q-.02-.02-.04 0-1.75 1.72-3.71 2.99-.47.3-.76.78-1.65 2.77-5.25 3.31M168.04 121.77q4.42 3.96 9.99 1.77.74-.29.35.38-.1.16-.06.36.11.46.41.09l3.09-3.91a.4.4 0 0 0-.03-.53l-.21-.2a.61.6-50.4 0 0-.92.09q-3.17 4.69-9.59 3.09-2.32-.58-.4-2.01l.41-.31q.83-.62-.2-.74-1.7-.2-2.84 1.92M166.3 116.86l4-4.37q.24-.27-.08-.43l-.39-.2a.27.27 0 0 0-.32.06l-3.44 3.83M145.02 95.06q1.34-1.6 1.02-2.69-.16-.58-.51-.09-1.02 1.4-1.4 3.06M131.83 99.87l5.17-3.35q.14-.09.1-.24l-.09-.36a.28.28 0 0 0-.41-.18l-4.86 2.74q-.4.23-.65.62l-.88 1.41M129.23 100.74q.77-2.29 2.55-4.14.11-.11.06-.26l-.15-.42q-.09-.28-.33-.12l-2.73 1.79q-.82.53-.53-.4.34-1.15 1.66-1.32.27-.04.26-.31l-.01-.31a.29.28-7.6 0 0-.35-.26l-3.13.73a.6.6 0 0 0-.4.86q1 1.89.55 4.21M125.76 101.05q.24-.87.06-1.42-.16-.48-.63-.3l-5.95 2.24a.29.29 0 0 1-.38-.18l-.09-.26q-.11-.36.24-.5l5.83-2.27q.65-.25.44-.91l-.27-.81q-.16-.5-.68-.43l-7.87 1.01q-.55.08-.39.61.36 1.15.31 2.48-.01.08-.08.09l-.28.05q-.28.04-.36-.24l-.63-2.41q-.15-.53-.7-.55l-5.53-.19M109.23 96.01l4.45.25q.58.03.56-.54-.03-1.24-.79-2.34-.05-.08.03-.11l.25-.12q.22-.11.31.12.59 1.39 1.44 2.54.35.47.94.4l7.33-.89q.99-.12.65-1.06l-.36-1.02a.92.92 0 0 1 .15-.88q.46-.56 1.21-.54.71.03.25.57-.49.58-.53 1.36a.82.82 0 0 0 .67.85q.89.17 1.8-.08a.72.72 0 0 0 .18-1.3l-.9-.55q-1.53-.94.07-1.76 4.37-2.23 7.45-4.87.15-.13.06-.3l-.15-.28q-.18-.34-.48-.1-3.37 2.65-7.24 4.53-.68.33-.64-.42c.19-3.73 8.76-7.36 11.93-8.63q.18-.07.16-.26l-.05-.47a.3.29-16.4 0 0-.43-.23q-1.81.89-3.53 1.49-.7.25-.2-.31.1-.11.06-.29-.08-.29-.32-.12l-4.24 2.98q-.91.64-.46-.37l1.37-3.15" vector-effect="non-scaling-stroke"/><path stroke="gray" d="M137.93 79.52q.78.11.98.5.2.38-.11.69-2.33 2.24-3.73 3.99-.97 1.19.37.43 2.6-1.47 4.41-4.75.21-.37-.14-1.06M207.93 143.85l-1.52-5.25q-.15-.51-.38-.02-1.59 3.43 1.25 5.18M225.85 82.14l-2.11 7.46q-.07.25.18.3l.3.06q.19.04.25-.15l2.03-7.27" vector-effect="non-scaling-stroke"/><path stroke="#575651" d="M232.21 86.14q-.12.34.32.6.36.21.62-.04M233.55 86.84l-.24.22" vector-effect="non-scaling-stroke"/><path stroke="gray" d="M242.3 94.77q-.79.11-1.09.38a.48.47 39.8 0 0 .07.74q1.61 1.04 3.2.8" vector-effect="non-scaling-stroke"/><path stroke="#575651" d="M245.18 97.21q-.16.45.51.46" vector-effect="non-scaling-stroke"/><path stroke="gray" d="m247.32 98.75-1.23 2.16q-.37.63.18 1.1l2.59 2.22q.72.62.51-.31l-.94-4.16M250.27 101.03q-.59 3.32 1.66 5.7.59.63 1.18 0 2.17-2.35.05-3.82" vector-effect="non-scaling-stroke"/><path stroke="gray" d="M255.43 103.77q.36.61 1.26 1.04.17.08.24.24.12.27-.09.47-.4.37-.61-.12-.1-.24-.27-.41-.48-.49-.78.12l-1.21 2.41a.64.63-59.8 0 0 .21.82l6.79 4.57q.17.12.07.3l-.21.35q-.15.24-.39.09-3.84-2.32-6.93-4.94-.4-.34-.53.17-.93 3.45 1.38 6.6 1.57 2.15 2.9 4.61.24.45.75.54 1.65.31 2.48-1.09a.27.27 0 0 1 .49.04q.24.67-.35 1.06-.52.35-1.14.32-1.68-.06-1.61 1.62.05 1.19-.62.2c-1.74-2.53-3.1-5.79-5.22-7.97a.74.73-58.1 0 0-1.23.29l-.96 2.94q-.24.71.36 1.17l3.55 2.74q.7.54 0 1.07l-3.55 2.71a.34.34 0 0 1-.47-.49q1.13-1.35 2.94-2.07a.42.42 0 0 0 .1-.72l-3.05-2.39a.42.42 0 0 0-.67.26l-2.17 12.61M245.46 133.98q.58-2.56.18-4.84-.03-.19.13-.27.12-.05.23-.17.13-.13.17-.31l1.13-5.11q.11-.46-.23-.81-1.57-1.59-1.58-4.11 0-.08.06-.13.12-.1.26-.12.3-.03.39.26l.98 3.18q.34 1.11.61-.02l.47-1.97q.12-.52-.36-.75-.81-.36-1.35-1.09-.42-.55.28-.48.72.09 1.31.51.57.42.8-.25l1.15-3.46a1.22 1.21-65.3 0 0-.52-1.43l-6.51-3.9q-.46-.27-.64.23l-1.53 4.16q-.18.48.2.83l1.03.92q.59.53-.21.48-.56-.04-1.05-.25-.62-.26-.79.39l-.63 2.49q-.13.51.24.9l1.58 1.61q.2.21-.03.39l-.2.16q-.25.2-.48-.01l-.88-.77q-.59-.51-.88.22-2.1 5.45 1.39 9.72.4.49.92.14l2.69-1.78q.3-.21.5.11l.21.35q.07.11-.04.19l-2.69 1.99q-.51.37-.2.92l1.89 3.33M241.14 136.96q-1.89-1.91-4.1-2.57-.45-.14-.47.33l-.25 4.5M177.47 134.54l1.18-.73q.51-.32.31-.89-.27-.77-1.07-1.22-.5-.28-.84.19l-1.12 1.57M175.27 132.7q.45-.41.61-.94t-.37-.65q-.94-.22-1.95-.06M184.49 139.04l.51-3.43q.11-.7-.41-.22l-2.55 2.35M109.98 93.08q1.41-1.45 2.92-1.32.96.08.35-.65-.32-.38-.11-1.02a1.11.75-33.9 0 1 .09-.22l1.07-1.79q.57-.95-.43-.48-.53.24-.78.74-.57 1.11-1.61.62M113.98 85.85q4.8.41 9.56-.73.49-.11.54-.62.17-1.82-.7-3.36M153.05 79.17c-.48 2.14-2.71 3.81-4.18 5.34a.02.02 0 0 1-.03-.02l1.54-4.1a.13.13 0 0 1 .05-.08q.35-.3.65-.16a.39.39 0 0 0 .52-.19q.12-.28.09-.62M140.96 79.19l-.96-.06M117.56 102.45q.71-2.01-1.79-.75-.77.39-1.6.48-2.43.28-4.77 1.25M109.27 103.43l-1.71-2.73M258.03 104.56q1.03 1.05.85 2.54-.07.58.37.95 1.58 1.35 1.94 3.34.23 1.27.73.08.33-.79-.29-1.5a1.87 1.82 17.7 0 1-.4-.75q-.61-2.41-2.07-4.39M261 105.12q.21 1.38.8 2.46a1.06 1.06 0 0 0 1.72.2l2.4-2.68M270.75 105.56l.74 2.46q.23.75-.42.3-.82-.57-1.48.12-.48.5-.94-.02l-1.36-1.55q-.38-.44-.67.07l-2.86 5.05a1.03 1.02 42.3 0 0 .06 1.11q.76 1.04 1.31.27 1.4-1.94 2.41-3.85.22-.42.55-.08l.2.22a.49.48 39.8 0 1 .06.6l-2.62 4.16a1.27 1.27 0 0 0 .07 1.45l3.19 4.11a.48.47 38.7 0 1 .06.49l-.16.37q-.23.52-.58.08-2.48-3.03-4.32-6.24-.48-.83-1.52-1.02-.27-.05-.33.22l-.09.36q-.1.4.27.56 1.79.78 2.55 2.36a1.07 1.06 50.2 0 1-.09 1.06q-.59.86-1.57.88-.27.01-.11.22.09.11.23.11.12 0 .22-.07 1.62-1.17 3.15.38a2.42 2.41 40.2 0 1 .26 3.05l-2.44 3.52M260.94 125.88q-.97-1.02-1.49-2.48-.28-.78-.59-.01-.43 1.07.38 1.94.27.29-.08.48-.19.09-.37.05" vector-effect="non-scaling-stroke"/><path stroke="gray" d="M257.1 125.65q-.7-1.37-1.87-2.49-.42-.4-.54.17-.24 1.03 1.4 2.23" vector-effect="non-scaling-stroke"/><path stroke="#d7d6d1" d="M110.89 90.78q.3.2.42-.3.14-.55-.25-.49" vector-effect="non-scaling-stroke"/><path stroke="gray" d="M128.93 80.11q-.61 3.14-2.7 4.38a.81.81 0 0 1-1.23-.7q.01-1.9-.49-3.18M120.33 82.51q1.12.09 1.67-.7" vector-effect="non-scaling-stroke"/><path stroke="#d7d6d1" d="M107.51 103.29q0-.38-.28-.56" vector-effect="non-scaling-stroke"/><path stroke="gray" d="m116.03 102.88-.75-.02M278.69 104.74q.47 1.83 1.91 3.19.51.49-.06.89l-.27.2a.65.65 0 0 0 0 1.07q.51.36.29.91-.17.45-.63.27l-3.4-1.4q-.23-.09-.31.14l-.14.37q-.11.3.19.41l.96.33q.58.2.2.69-.69.89-.47 2.05a.56.56 0 0 0 .78.42q.75-.34 1.58-.36.55-.02.5-.57-.02-.15-.07-.29-.3-.88.56-.38l1.15.68a.65.64-38.6 0 0 .55.06q.51-.18.82.2.38.44-.2.5l-.7.06q-.61.05-.41.64l.32.91a.47.47 0 0 0 .88.02q.64-1.62 1.68-2.96 1.37-1.77-.43-3.4-1.35-1.23-2.26.4a.25.25 0 0 1-.26.12q-.19-.04-.27-.19-.25-.47.26-.61l.47-.14q.51-.14.61-.65.45-2.2 2.58-3.16M290.25 106.41q-.68 2.64.71 4.89a.33.32-38.9 0 0 .52.05l3.21-3.52M295.95 108.44q.32 2.01 1.86 3.2.38.29.78.03l1.19-.77a.46.46 0 0 1 .7.28l.39 1.63q.08.36.42.5.16.07.33.06.4-.02.51-.41l.35-1.23M303.72 115.08q-.71-.71-1.15-.71a.42.41-6.8 0 0-.4.5q.3 1.37-.97 1.99a1.07 1.06-82.4 0 0-.36.28l-4.26 5.2q-.95 1.16.54 1.01 1.6-.16 3.94.11.39.04.74.64M301.8 124.1l-5.49.98M290.04 123.64l-4.59-1.97q-.5-.22-.67.3-.27.83.21 1.97" vector-effect="non-scaling-stroke"/><path stroke="#575651" d="M281.97 124.42q-.56-.48-1.28.09" vector-effect="non-scaling-stroke"/><path stroke="gray" d="M278.05 124.65q.62-.63.5-1.45-.08-.51-.56-.72l-6.51-2.81a.82.81-69.7 0 0-1.1.51l-.58 1.89q-.2.67.43.96.71.33.79 1.16.07.66-.53.36-.75-.36-1-1.17-.13-.41-.32-.03-.09.18.03.32.28.33.05.7l-.96 1.59M267.38 126.02q.39-1.06.4-1.93.02-.64-.37-.12l-1.64 2.23M273.42 106.15q.68 1 .12 2.31-.19.44.16.75l.3.26q.68.61.69-.3l.07-3.1M303.1 123.71l-1.3.39M302.77 124.86l-.97-.76M283.9 104.72q-.62.45-1.03 1.67a1.12 1.12 0 0 1-1.91.36l-1.79-2.11M219.71 80.8l-3.18.05q-.89.01-.41.76l.87 1.35q.44.69 1.05.14l1.9-1.72q.65-.6-.23-.58M216.27 84.42a.34.34 0 0 0 .14-.48l-1.63-2.68a.34.34 0 0 0-.6.02l-2.29 4.62a.34.34 0 0 0 .45.46l3.93-1.94M200.03 82.96q-1.51.89-3.19 1.34-.73.2-.13.65 1.07.83 2.16.99.78.11 1.02-.64.27-.82.84-1.55a.54.54 0 0 0-.7-.79M210.38 91.62l4.43 5.7q.72.92 1.28-.1l3.63-6.66q.52-.94-.08-1.83l-2.18-3.26q-.39-.59-.97-.19-2.26 1.53-4.67 2.23-.64.18-.95.76-3.87 7.02-8.39 13.29-1.07 1.49.67.92 4.93-1.6 10.86-2.34a.79.79 0 0 0 .56-1.22l-4.59-6.88q-.1-.16.06-.28l.28-.2q.01-.01.06.06M200.34 86.24q-.06.15.06.27.15.17.25-.03.08-.18-.03-.3-.18-.19-.28.06M231.15 88.64a.28.28 0 0 0 .5.04q.29-.51.31-1.09.03-.72-.5-.24-.59.53-.31 1.29M198.14 92.26q1.18-1.92 1.63-3.86.33-1.4-.43-.18c-1.88 3-3.78 6.03-6.04 8.8q-.34.42.05.8l.92.91a.37.37 0 0 0 .58-.09l2.53-4.7q.22-.4.57-.12l.26.2q.14.12.05.28l-2.22 4.23q-.26.48.02.95.27.46.69.79a.9.89 46.4 0 1-.03 1.43q-4 2.86-7.47 6.73-.07.08-.14 0-.03-.04.01-.07.02-.02.05-.02c2.09-.69 2.64-2.31 4.54-3.23q.46-.23.7-.68.75-1.42 2.37-1.46.53-.02.91-.39 1.32-1.27 2.73-.05.32.28.62-.03.13-.14.11-.31-.01-.26.13-.48l6.75-10.38a1.86 1.86 0 0 0-1.4-2.87l-4.94-.42q-.58-.05-.79.5-.84 2.26-1.95 4.24-.17.3-.51.22-.66-.16-.3-.74M208.96 88.5a.26.26 0 0 0 .12.44q.43.12.69-.18a.22.22 0 0 0-.07-.34q-.43-.2-.74.08M230.983 90.312a.66.66 0 0 0-.288-.888l-.107-.054a.66.66 0 0 0-.888.288l-3.123 6.13a.66.66 0 0 0 .288.888l.107.054a.66.66 0 0 0 .888-.288l3.123-6.13M224.4 95.35q-.15-.6-.57-1.1-.56-.68-.83.16-.38 1.16-.78 2.18-.64 1.64.62.41.41-.4.96-.58.79-.26.6-1.07M225.12 98.29l-.33 1.04q-.34 1.06.68.61.99-.43 1.38-1.44.28-.74-.48-.94-2.59-.66-4.63 1.74-.54.62.29.61 1.79-.04 2.09-1.63.09-.47.55-.35l.3.08q.22.06.15.28M238.22 98.07q-.74-.26-1.33.14-.58.39.07.65.72.28 1.33-.1.69-.42-.07-.69M185.49 101.32q-1.38 2.65-3.57 5.26-.22.27.05.49l.26.22a.41.4-53.3 0 0 .59-.09l4.32-6.42q.33-.49-.15-.84l-1.77-1.3q-.41-.3-.69.12-1.02 1.49-2.31 2.77-.24.23-.34.52-.09.29-.27.52-.68.91.25.26 1.46-1.03 2.9-2.12 1.74-1.33.73.61M221.49 103.92l1.43-2.29a.42.42 0 0 0-.14-.58l-.13-.08a1.76 1.58 31.9 0 0-2.33.41l-.2.32a1.76 1.58 31.9 0 0 .66 2.27l.13.09a.42.42 0 0 0 .58-.14M218.51 101.17q-.3.18-.42.5a.33.33 0 0 0 .39.44q.53-.14.54-.65a.33.33 0 0 0-.51-.29M224.95 101.47a.5.5 0 0 0-.5-.5.5.5 0 0 0-.5.5.5.5 0 0 0 .5.5.5.5 0 0 0 .5-.5M215.48 101.98q.89.41-.05.68-2.55.71-4.06 3.63-.48.94.38.33.96-.68 2.15-.66.58.02 1.09-.28 1.11-.64 2.39-.86a.93.93 0 0 0 .74-.7q.13-.56-.06-1.11-.15-.43-.6-.55-.85-.23-1.45-.83-.43-.42-1.01-.28l-.77.18q-.87.21.06.2.65-.01 1.19.25" vector-effect="non-scaling-stroke"/><path stroke="gray" d="m213.24 101.25-10.04 1.92a.15.15 0 0 0-.12.18l.01.05a4.85 1.19-10.8 0 0 4.99.26l.8-.15a4.85 1.19-10.8 0 0 4.55-2.08l-.02-.06a.15.15 0 0 0-.17-.12M234.55 103.55q-.12-.46-.26-.91-.26-.86-.29.04-.03.59.02 1.21.04.53.5.8 2.22 1.34 5.2 2.03.85.2.18-.36c-1.17-.95-3.03-1.32-4.43-1.81q-.72-.26-.92-1M223.36 103.67a.21.21 0 0 0 .32-.18q0-.28-.29-.32-.11-.02-.16.09-.12.26.13.41M219.64 103.92q-.11.37.29.24.3-.1.06-.31-.25-.23-.35.07M203.14 111.16l-1.84 2.39q-.39.51.26.49 2.04-.05 3.82-1.13.62-.37-.1-.37-.97-.01-1.92.4-.22.09-.12-.12 1.94-4.31 4.88-4.76a1.83 1.82-75.5 0 0 1.18-.7l2.08-2.72q.49-.64-.31-.5-3.15.57-6.64.68-1.04.03-.31.78l.44.44a1.62 1.62 0 0 1-.18 2.44l-6.24 4.64q-.3.22-.05.5l.17.21q.07.08.17.02l4.44-2.97q.99-.66.27.28M231.31 104.49q.29.16.62.07.37-.1.06-.32-.26-.19-.56-.19-.97-.02-.12.44M196.465 104.323a1.01.45-25 0 0-1.105.02 1.01.45-25 0 0-.725.834 1.01.45-25 0 0 1.105-.02 1.01.45-25 0 0 .725-.834M179.51 105.64q-.03.19.12.31.26.21.44-.06.08-.13.05-.27a.31.31 0 0 0-.61.02M189 114.18q-2.16 2.37-4.04 4.85-.63.83.16.14c1.84-1.61 4.64-4.1 5.77-6.38q.44-.88 1.24-1.55.46-.39.62-.98.51-1.87 2.25-2.92.22-.13.07-.34l-.14-.2q-.05-.08-.12-.02-1.91 1.48-3.09 3.59-1.2 2.13-2.72 3.81M176.21 107.8q-.41.24-.55.59.36-.03.61-.45" vector-effect="non-scaling-stroke"/><path stroke="#d7d6d1" d="M176.27 107.94q.45-.07.45-.43-.29-.22-.51.29" vector-effect="non-scaling-stroke"/><path stroke="#575651" d="m176.27 107.94-.06-.14" vector-effect="non-scaling-stroke"/><path stroke="gray" d="M210.65 110.88q-1.93.21-3.72 1.16-.09.04-.15.13-.07.12.01.26.19.36.59.26l3.77-.98q.54-.14 1.03.14 1.94 1.09 2.8 2.98.27.6.87.38a.53.52-39.6 0 0 .09-.94q-1.51-.92-2.36-2.29-.36-.58.31-.66l5.37-.67q.1-.02.09-.12v-.42q-.01-.35-.35-.32l-6.01.52a1.01 1-22.9 0 1-.83-.33l-1.61-1.86q-.17-.2-.39-.05l-.23.15q-.15.11-.08.28.38.98 1.05 1.65.65.64-.25.73M176.64 114.05a.14.14 0 0 0 .24.15q2.45-3.57 4.74-5.46.2-.17.02-.36l-.19-.2a.26.26 0 0 0-.38 0q-2.58 2.75-4.43 5.87M182.09 118.95l.54.22q.05.02.08-.03 3.2-5.13.21-10.02-.07-.12-.2-.06l-.24.12q-.25.12-.14.37 1.96 4.66-.46 8.77-.26.44.21.63M175.46 110.11q-1.11 1.13-1.99 2.55-.45.74.18.14 1.24-1.18 2-2.55.42-.76-.19-.14M229.77 111.39l.08-.68a.19.19 0 0 0-.17-.21l-1.93-.22a6.12.44 6.5 0 0-6.13-.26l-.02.18a6.12.44 6.5 0 0 6.03 1.13l1.93.22a.19.19 0 0 0 .21-.16M186.12 112.28q.13-.09.22-.15-.17-.01-.29.09-.82.67.07.06" vector-effect="non-scaling-stroke"/><path stroke="gray" d="M170.185 118.032a2.55.48 123.7 0 0 1.814-1.856 2.55.48 123.7 0 0 1.016-2.388 2.55.48 123.7 0 0-1.814 1.856 2.55.48 123.7 0 0-1.016 2.387M234.85 114.28a.05.05 0 0 0-.04.05q.02.15.14.2.28.1.16-.17-.07-.14-.26-.08M228.83 114.99l.02-.43q.01-.1-.09-.12-4.83-.86-9.44 1.18a.32.31 75.4 0 0-.19.33l.03.35q.03.28.29.18 4.47-1.64 9.09-1.25.27.03.29-.24M230.65 114.9q.13.06.26-.01a.16.16 0 0 0 .02-.28q-.13-.09-.28-.02-.35.16 0 .31M214.65 118.59q-1.3 1.31.28.37l2.91-1.72a.63.62 71 0 0 .3-.63l-.1-.57q-.12-.74-.65-.21l-2.74 2.76" vector-effect="non-scaling-stroke"/><path stroke="gray" d="M175.283 116.036a2.3.44-41.5 0 0-2.015 1.195 2.3.44-41.5 0 0-1.43 1.853 2.3.44-41.5 0 0 2.014-1.195 2.3.44-41.5 0 0 1.43-1.853M220.94 120.007a1.49.49 44.1 0 0-.729-1.389 1.49.49 44.1 0 0-1.411-.685 1.49.49 44.1 0 0 .729 1.389 1.49.49 44.1 0 0 1.411.685M223.87 124.47q-4.05 1.26-6.46 4.92-.22.32.16.4l.52.11a.15.15 0 0 0 .15-.05c1.85-2.58 4.95-5.04 8.23-4.36a.23.23 0 0 0 .27-.28q-.2-.77.11-1.48a.41.4 9.3 0 0-.41-.57q-.73.07-1.5-.16-.47-.14-.78-.52-.67-.8-1.63-1.24-.81-.38-.32.37l.64.99q.38.6-.32.7-8.97 1.3-14.3 8.2-.29.38.09.67l.2.16q.1.08.19-.01 2.86-3.43 6.41-5.56c.62-.37.75-.72 1.19-1.21q.35-.39.86-.31c1.92.28 4.52-1.01 6.64-1.11q1.32-.06.06.34M190.12 123.24q-.27.06-.39.33-.15.33.21.39.29.05.49-.13.91-.86-.31-.59M193.49 124.91q.35.16.56-.11a.28.27 34.2 0 0-.08-.41q-.32-.19-.57.09t.09.43M188.19 127.21q.81-.91 1.08-1.82.21-.71-.3-.18-.7.7-1.14 1.78-.46 1.14.36.22M209.29 125.01q-.13-.07-.22.04-2.92 3.5-2.87 7.93 0 .11.1.15l.35.16q.38.17.42-.24.42-4.17 2.47-7.82.03-.06-.02-.09l-.23-.13M229.993 128.06a1.78.5 39 0 0-1.068-1.509 1.78.5 39 0 0-1.698-.731 1.78.5 39 0 0 1.068 1.509 1.78.5 39 0 0 1.698.731" vector-effect="non-scaling-stroke"/><path stroke="gray" d="M186.437 130.678a1.38.33 133.7 0 0 1.192-.77 1.38.33 133.7 0 0 .714-1.226 1.38.33 133.7 0 0-1.192.77 1.38.33 133.7 0 0-.714 1.226" vector-effect="non-scaling-stroke"/><path stroke="gray" d="M182.28 132.25a.15.15 0 0 0-.16.21q.31.68 1.12.71.37.01.67-.21.59-.43-.14-.52l-1.49-.19M197.11 138.56l1.23.83q.26.18.39-.12l.12-.28q.07-.15-.09-.23-1.54-.78-3.18-.87-.91-.05-.07.29.26.11.55.09.57-.03 1.05.29M174.16 82.16q-.05.46.42.54a.28.27 11.1 0 0 .33-.22q.06-.31-.18-.53a.34.34 0 0 0-.57.21M147.74 87.85q-1.16 1.43-.84 2.62.23.89.6.05l2.05-4.76q.43-1.01-.49-.42-1.5.96-2.99 2.29a.4.39-67.4 0 0 .28.69q.64-.04.85-.71.11-.38.47-.27.06.01.09.06.17.23-.02.45" vector-effect="non-scaling-stroke"/><path stroke="gray" d="M145.58 89.008a5.1.57-40.8 0 0-4.232 2.9 5.1.57-40.8 0 0-3.489 3.764 5.1.57-40.8 0 0 4.233-2.9 5.1.57-40.8 0 0 3.489-3.764M126.395 85.56a.57.26-31.7 0 0-.622.079.57.26-31.7 0 0-.348.52.57.26-31.7 0 0 .622-.078.57.26-31.7 0 0 .348-.52M118.88 89.23l.31.27q.39.35.85.09 1.78-1.01 3.52-1.85.68-.33.75-1.03.06-.59-.52-.51l-8.04 1.05a.33.33 0 0 0-.23.5l.53.83a.86.82-14 0 0 .68.39l1.7.07q.26.01.45.19M124.66 88.38a.08.07 80.7 0 0-.11-.08l-3.12 1.68q-1.23.66.14.95 2.47.51 3.09-2.55M242.78 97.507a.82.33 2.6 0 0-.805-.367.82.33 2.6 0 0-.834.293.82.33 2.6 0 0 .804.367.82.33 2.6 0 0 .834-.293M243.64 99.48q-.07-.06-.15-.03-.07.03-.03.08.07.1.2.12.21.03-.02-.17M245.43 99.15l-.75.64a.35.35 0 0 0 .35.59q.83-.3.84-1.01a.27.27 0 0 0-.44-.22M244.61 106.76q-.01.72.16 1.36.12.46.55.68 2.9 1.5 4.98 3.63.95.97.83-.38-.15-1.76-.67-3.8-.37-1.45-1.45-2.47l-3.66-3.47q-.45-.43-.47.19-.04 1.28-.63 2.48-.25.49.08.93.28.37.28.85M243.1 106.49q-.14.55.16 1.03a.23.23 0 0 0 .42-.1q.07-.59-.37-1a.13.13 0 0 0-.21.07M252.09 108.74l.18-.43q.12-.3-.19-.41-.15-.05-.29-.11-.83-.38-.46.45l.23.5q.27.6.53 0M235.72 119.51l-1.31-2.67q-.09-.19-.3-.23l-.65-.14q-.48-.11-.31.35l1.35 3.68q.19.52.68.26l.32-.17q.17-.09.32.02.13.09.17.23.18.52-.37.51h-.26a.31.31 0 0 0-.3.42q.51 1.38 1.28 2.62.48.76.61-.12.19-1.25-.62-2.18-.28-.32.14-.28.18.02.29.16.54.69.7-.17.19-1.05.46-2.01.22-.76-.38-1.28-.43-.38-.95-.59a.45.44 4.9 0 0-.61.51q.11.5.11.99-.02.81-.37.09M231.86 125.91c1.01.73 2.69 1.7 3.23 2.8q.82 1.68.85-.18c.03-1.94-2.31-2.69-3.91-3.01q-.95-.19-.17.39M237.64 129.24a.29.29 0 0 0-.54.07q-.39 1.73-.08 3.22.17.86.83.28l.68-.6q.49-.44.18-1.01l-1.07-1.96M240.655 135.214a1.4.8 47 0 0-.37-1.57 1.4.8 47 0 0-1.54-.478 1.4.8 47 0 0 .37 1.57 1.4.8 47 0 0 1.54.478M241.5 133.79q.2.08.16-.13-.05-.24-.21-.08-.13.12.05.21M234.26 139.3a.36.36 0 0 0 .59-.19l.56-2.33q.15-.63-.43-.36l-1.42.63q-.4.18-.32.6.16.88 1.02 1.65M262.73 109.33q-.31-.11-.53.2-.19.29.15.33.27.03.46-.19.2-.24-.08-.34M286.89 108.03q-.83.05-1.34.67-.38.47.22.45.87-.04 1.34-.73.27-.41-.22-.39M288.19 109.57q-.18 1.22.95 1.73a.31.3 14.3 0 0 .43-.25q.07-.95-.67-1.71-.59-.61-.71.23M293.81 114.04q-.76-.1-1.46-.44-.42-.2-.36.27l.3 2.33q.32 2.5 1.74.42 1.3-1.88 2.86-3.45a1.21 1.21 0 0 0-.02-1.72l-1.67-1.62q-.53-.52-1.03.05l-1.29 1.48q-.48.55.24.64.89.11 1.81-.12.44-.11.8.16.85.64-.25 1.53a2.24 2.21-60.4 0 1-1.67.47M269.96 117.04q-.37.37-.55.85-.25.68.28.2c2.24-2.02.88-5-.27-7.44q-.05-.11-.17-.07l-.32.11a.3.3 0 0 0-.2.38l1.48 4.98q.17.57-.25.99M287.51 112.52a.41.4-1.7 0 0 .47-.49l-.14-.54q-.12-.5-.59-.29-.38.16-.57.53-.29.57.34.69l.49.1" vector-effect="non-scaling-stroke"/><path stroke="gray" d="M288.86 115.34q-.81.45-.24-.28.74-.95.71-1.91-.02-.84-.57-.2-.84.98-2.09.51a1 1 0 0 0-1.25.48l-2.08 3.97a1.22 1.22 0 0 0 .18 1.38l.31.35q.52.57 1-.03l2.22-2.8q.15-.18.33-.03l.21.19q.25.21.06.47l-1.84 2.66q-.35.5.22.73l3.26 1.31a.97.97 0 0 0 .95-.12q.7-.51.91-1.31.11-.45-.17-.81l-2.83-3.61q-.06-.08.02-.14l.23-.16q.2-.14.35.06 1.03 1.45 2.19 2.38 2.04 1.61 1.22-.85c-.48-1.45-.17-2.19-1.42-3.34a.58.57-53 0 0-.89.13q-.37.63-.99.97M298.5 113.08q-.38.31.08.49.5.19 1.02-.17.4-.27-.04-.48-.55-.25-1.06.16M275.62 114.35l-.03-.33q-.03-.37-.36-.2l-.6.31q-.91.46.19.71.46.11.7.51 1.33 2.27 3 4.39.69.87.43-.21-.77-3.11-3.3-5.12-.03-.02-.03-.06M280.19 117.06q.95.69.77-.47-.11-.76-.47-1.4-.34-.6-.99-.38l-.51.17q-.66.23-.2.76.67.78 1.4 1.32" vector-effect="non-scaling-stroke"/><path stroke="gray" d="m294.58 120.11.58 1.18q.29.58.73.11l5.1-5.29q1.47-1.53-.65-1.45l-1.52.06q-1.8.07-3.02 1.4-2.18 2.4-4.6 6.74a.34.34 0 0 0 .31.51l2.47-.1q1.6-.07.32-1.03-.29-.22-.6-.4-.47-.27-.42-.8.04-.6.45-1.05a.52.51 52.8 0 1 .85.12M277.77 120.48q-.84-1.39-1.9-2.62c-.55-.64-.82-1.43-1.69-1.78q-.62-.25-1.08.24l-1.35 1.45q-.6.64.21 1l5.28 2.31q1.2.53.53-.6" vector-effect="non-scaling-stroke"/><path stroke="#575651" d="M279.92 118.58q-.07.48.29.86a.36.35-67.9 0 0 .61-.26q-.01-.47-.4-.8a.31.31 0 0 0-.5.2" vector-effect="non-scaling-stroke"/><path stroke="gray" d="M279.62 120.33a.17.17 0 0 0-.26-.12q-.41.29-.38.81a.21.21 0 0 0 .37.12q.31-.35.27-.81M283.11 120.82a.35.35 0 0 0-.32-.37q-1.09-.09-1.41.87-.4 1.18.89 1.62.69.24.74-.49l.1-1.63M245.187 114.3a1.78.45 73.8 0 0-.065-1.835 1.78.45 73.8 0 0-.929-1.584 1.78.45 73.8 0 0 .065 1.835 1.78.45 73.8 0 0 .929 1.583" vector-effect="non-scaling-stroke"/><path stroke="gray" d="M245.92 116.8q-.55-1.82-2.61-1.48-.55.09-.12.46 1.01.87 2.39 1.34a.26.26 0 0 0 .34-.32M241.92 121.71l-.21.14q-.16.11-.06.28 1.16 2.04 2.85 3.79 1.06 1.09.42-.29-.95-2.06-2.3-3.81a.51.51 0 0 0-.7-.11M176.38 129.42q.13.16.31.06a.19.19 0 0 0 0-.34q-.13-.06-.25 0-.2.1-.06.28" vector-effect="non-scaling-stroke"/></g><path d="M184.02 76.25q-.9-.37-1.11.25-1.52 4.5-3.7 9.04-.2.43-.68.44l-1.45.04q-.47.01-.76.38-3.87 4.95-8.39 9.21c-2.1 1.98-2.79 4.55-4.28 7q-.57-.77-.35-1.35l1.25-2.5q.16-.34-.16-.15-.18.1-.29.28a.83.81 19.5 0 1-.84.39q-.32-.06-.7-.27.05-.79-.09-.25 2.39-1.66 4.16-3.5.06-.07.09-.15.05-.13-.07-.24-.13-.12-.07-.28l6.4-17.23 1.29-.11-.59 3.62q-.09.55-.59.79l-.79.4q-.45.23-.6.7-.99 3.14-2.1 6.4c-.5 1.46-1.6 2.59-1.65 4.15q-.02.48-.35.83l-.45.48q-.1.1.01.2.15.13.28 0 4.28-4.29 8.4-9.33.32-.39.29-.89-.11-1.75-.88-3.45-.22-.47-.07-.96l.91-3.15z"/><path fill="#fff" d="M188.17 76.07q1.31 2.48 2.86 4.75.12.18.01.38t-.55.1q-.24-.05-.37-.25l-2.63-3.86a.48.48 0 0 0-.84.07c-1.66 3.56-2.25 7.7-4.46 10.92a.44.44 0 0 0 .28.68c1.44.25 2.49-.8 3.78-1.26q.87-.31.22.34-.77.79-1.77 1.42-.47.3-.58.85-.24 1.1-.49 1.43-4.15 5.39-9.4 10.41-1.2 1.15-2.62 1.53c-2.05.55-3.6 1.33-5.12 2.93q-.17.18 0 .36l.22.23q.06.06.13.01 1.86-1.24 3.64-2.19.13-.07.24.03.04.04.04.1 0 .2-.16.32-1.85 1.37-3.64 2.87-.7.6-1.03-.26-.31-.79-1.25-.16l-1.03-5.21c1.49-2.45 2.18-5.02 4.28-7q4.52-4.26 8.39-9.21.29-.37.76-.38l1.45-.04q.48-.01.68-.44 2.18-4.54 3.7-9.04.21-.62 1.11-.25l-3.36 11.15q-.07.21.12.32l.3.18q.3.19.43-.15l4.34-11.52z"/><path d="M199.42 76.07q1.81 1.14 2.76 2.94a2.22 2.22 0 0 1-1.06 3.05q-3.24 1.45-6.94 1.82-.48.05-.77.44-.46.62-1.21.77-.6.12-.33-.42 1.21-2.41 2.05-5.59.57-2.15-.62-.27-1.38 2.16-2.67 5.86c-.33.94-1.04 1.39-1.77 1.99a.31.31 0 0 0 .17.55q.49.04.93.32.41.27.7-.14l.6-.88q.32-.45.87-.52 1.05-.14 1.97-.66a1.25 1.23-43.9 0 1 1.22.01l2.78 1.63q.65.38.24 1.02-2.42 3.75-4.89 7.36c-1.14 1.66-3.22 2.56-4.98 3.39q-1.12.54-.81-.67.31-1.19 1.35-1.1.75.06 1.4-.33.69-.42.52-1.17-.18-.83-.66-.14l-.65.95a1.3 1.29-75.7 0 1-.89.53q-1.15.15-1.99.98-.31.29-.54-.06l-.17-.27q-.09-.14.04-.24l2.59-2.12a.6.6 0 0 0-.01-.93q-1.33-1.05-.34-2.5.8-1.18 1.27-2.52.09-.26-.18-.32l-.45-.09q-.16-.04-.24.11l-1.39 2.66q-.23.43-.7.45l-1.47.05q-.55.03-.89.46-4.23 5.51-9.57 10.47-.61.57.22.64 1.42.13 2.32 1.36a.48.48 0 0 0 .84-.11q.51-1.43 2.05-2.04.73-.29.19.28-1 1.03-2.23 1.92-.04.03-.06.06-.09.14-.09.29.02.41-.32.63-3.33 2.21-6.1 5.36-.23.26-.44-.01l-.27-.35q-.2-.26.04-.48l5.08-4.68q1.06-.97-.36-1.22l-.75-.13a3.1 3.08-59 0 0-2.45.62l-7.28 5.7-.4-2.96q.94-.63 1.25.16.33.86 1.03.26 1.79-1.5 3.64-2.87.16-.12.16-.32 0-.06-.04-.1-.11-.1-.24-.03-1.78.95-3.64 2.19-.07.05-.13-.01l-.22-.23q-.17-.18 0-.36c1.52-1.6 3.07-2.38 5.12-2.93q1.42-.38 2.62-1.53 5.25-5.02 9.4-10.41.25-.33.49-1.43.11-.55.58-.85 1-.63 1.77-1.42.65-.65-.22-.34c-1.29.46-2.34 1.51-3.78 1.26a.44.44 0 0 1-.28-.68c2.21-3.22 2.8-7.36 4.46-10.92a.48.48 0 0 1 .84-.07l2.63 3.86q.13.2.37.25.44.1.55-.1t-.01-.38q-1.55-2.27-2.86-4.75z"/><path fill="#fff" d="M202.05 76.09q.32.72.78.94.42.2.83-.16.33-.3.56-.77.71-.11 1.34.05-.16.3-.17.58-.03.55.52.58 1.72.08 3.36-.72.88-.23 1.57.34-2.31 1.6-5.17 1.35a.88.87 12.6 0 0-.9.57l-.57 1.54a.66.65-84.1 0 0 .71.88l5.8-.9a.23.22-11.5 0 1 .25.16l.08.28q.03.1-.06.14-2.43.97-5.37 1.16-.72.05-.39.69l.4.78q.38.72-.35.36-.63-.31-1.09-.85a.75.75 0 0 0-1.28.23q-.31.88-1.19.8a.39.39 0 0 0-.42.28q-.11.44.33.72.13.08.22-.05.09-.14.22-.09.55.21.2.68-.27.36-.32.82a.61.61 0 0 0 .55.67l3.63.31q.62.06.34-.49l-.78-1.5q-.17-.32.1-.55.13-.12.32-.11.33.02.51.29l.76 1.25a1.91 1.91 0 0 0 3.35-.18l2.01-4.24q.11-.24.03-.49l-.17-.5q-.18-.53.33-.77 1.09-.51.82-1.71-.1-.48.32-.72.19-.1.41-.14.51.48 1.02.34-.57.82-.44 1.38.12.55.68.53l5.23-.16 1.53.55-4.02 3.9q-.34.33-.15.75l1.06 2.39q.9 2.01 1.81.01l2.82-6.24q.7.28.88.65l-8.34 16.79q-.81 1.62.98 1.39l.79-.1q1.65-.21 2.31-1.75.93-2.2 1.67-4.77.32-1.11-.62-1.71-.74-.46.13-.42.81.03 1.61-.27a.46.45-4.8 0 1 .61.51q-.33 1.64 1.02 2.9a.45.45 0 0 0 .69-.1q2.35-4.02 4.67-8.34.13-.23.35-.39.25-.16.44-.22.52.28.82.74l.05.49q.05.45.5.51l.74.1-5.11 12.06q-.09.22-.32.18l-.36-.05a.35.34 85.5 0 0-.37.44q.09.27.33.41.35.2.51-.17.15-.37.53-.47.81-.19.47.56-.51 1.11-.11 2.44.24.79-.59.78l-2.77-.05q-.3 0-.37.29l-.06.26q-.08.31.24.31l3.09-.03q.53 0 .64.51l1.1 5.01q.03.13.15.11l.34-.05q.27-.03.23-.3l-1.16-8.28a.99.99 0 0 1 .32-.87q1.33-1.19 3.2-1.46.52-.08.45.45l-.09.66q-.15 1.06.35.12l4.63-8.69q.92.38 1.48 1.25l-.63 2.92q-.14.62-.75.43l-.49-.16a.27.26 25.8 0 0-.3.1q-.13.16-.09.35a.5.5 0 0 0 .6.38q.6-.15 1.2-.01.64.15.43.77l-.28.84q-.21.63.44.74c3.48.61 4.16 3.83 2.65 6.47q-.86 1.51-1.38 3.15-.74 2.33-1.54 4.39-.2.52-.73.36-1.06-.32-2.39-.67-.07-.02-.1.05l-.17.43q-.13.33.21.44l1.98.63q.64.21.47.86l-.6 2.29q-.21.84-.87.28-2.27-1.9-4.42-1.9-.58-.01-.73-.57l-.64-2.39q-.18-.66.5-.59.9.09 1.54.74.51.51 1.14.22.47-.21.3-.69-.93-2.57-.94-5.84 0-.2-.2-.24l-.44-.1a.27.27 0 0 0-.32.28l.29 4.34q.05.64-.59.54-.91-.13-1.7-.63-.49-.31-.55.27-.21 2.26.23 3.53 1.87 5.51 4.32 10.51 1.01 2.07-.91.8-2.84-1.87-6.36-2.32a.3.3 0 0 0-.34.27l-.14 1.29q-.03.27.24.31 5.25.79 7.27 5.66.37.88-.39.3l-3.57-2.74q-.25-.2-.39.08l-.17.34a.36.36 0 0 0 .1.44l4.19 3.34q1.32 1.04.06 2.16l-1.42 1.26q-.97.86-1.84-.11-2.04-2.31-4.85-2.43-1.21-.06-2.32-.3c-2.28-.48-5.27 1.11-6.9 2.54q-.48.42-.62-.2-.57-2.5.49-4.1.28-.41-.21-.45-.2-.01-.33.14-.19.22-.21.52c-.24 2.73-1.16 4.85.29 7.52q.31.58-.33.64-.29.02-.5.3-.07.1-.11.22-.07.22-.01.42.17.52.67.3 1.14-.5 1.93.4.31.35.78.32.44-.03.42-.47a.66.65 0 0 1 .69-.68l3.88.2q.34.02.31-.33l-.03-.27q-.02-.18-.19-.21-2.67-.53-5.31-.33a1.06 1.05-25.5 0 1-.78-.27q-.81-.73-.8-1.89.01-.52.42-.83 9.3-6.9 15.75 3.45l-4.71 1.68q.57-1.14 1.76-1.94.49-.33.48-.76-.03-.71-.49-.17-1.65 1.94-3.95 1.94-.61-.01-.4.56.15.43.68.9l-5.14.93q-.52-.66-2.21.21l-9.6.21q1.51-1.21 3.51-1.77.17-.05.23.11l.1.26q.32.82.65.01.29-.7.24-1.59-.04-.65-.62-.35l-5.11 2.67a.29.28-27.4 0 1-.39-.12q-1.65-3.37-1.76-6.43-.14-3.69-1.58-.29-.98 2.32-1.1 4.8-.03.62-.58.33l-3.67-1.92q-.3-.15-.46.14l-.14.25q-.17.32.15.49c1.56.81 3.97 1.65 4.59 3.32q-2.31-.74-6.45-1.02-6.03-.39-12.55-3.15l.74-4.4q.15-.83.88-.41.98.56 2.05.31.51-.12.86.27 1.76 1.95 3.93 1.79 1.51-.12.1-.68l-6.76-2.69a.67.67 0 0 1-.17-1.15q2.03-1.63 3.87-3.57 1.07-1.12-.16-.17-4.76 3.69-9.75 8.22-1.55-.79-2.71-1.99c.92-1.19.4-3.16 2.71-3.3l.52.26a.02.02 0 0 0 .02-.04q-.2-.14-.54-.22-.25-1.35.34-1.94 3.63-3.62 7.11-7.39.85-.91 2.12-1.36a.31.31 0 0 1 .42.27q.02.31.35.39.51.12.52-.41 0-.27-.13-.5a.81.8 43.6 0 1-.02-.77q.49-1 1.44-.79.46.1.81-.22 2.39-2.22 5.55-3.39.91-.34.33.43l-4.83 6.38q-.15.2.04.37l.21.19q.06.04.1-.01 3.1-3.08 6.03-7.52.34-.51-.26-.61-1.47-.24-2.8.06-.48.1-.68.55-.07.16-.25.15a.28.28 0 0 1-.17-.51q.39-.3.49-.74.14-.7-.45-.29-2.66 1.83-3.88 4.78-.09.21-.26.07l-.4-.34q-.31-.27-.63-.02-5.32 4.03-9.73 8.8c-.98 1.06-1.24 2.56-2.55 3.33q-1.06.63-1.99-.18-.32-.27-.52-.67a1.73 1.71 57.4 0 1 .46-2.13q2.16-1.74 4.58-4.45.16-.17-.01-.33l-.18-.18q-.02-.02-.04 0-1.75 1.72-3.71 2.99-.47.3-.76.78-1.65 2.77-5.25 3.31c-1.27-1.5-4.61-6.06-4.4-8.15q4.42 3.96 9.99 1.77.74-.29.35.38-.1.16-.06.36.11.46.41.09l3.09-3.91a.4.4 0 0 0-.03-.53l-.21-.2a.61.6-50.4 0 0-.92.09q-3.17 4.69-9.59 3.09-2.32-.58-.4-2.01l.41-.31q.83-.62-.2-.74-1.7-.2-2.84 1.92-1.28-2.35-1.74-4.91l4-4.37q.24-.27-.08-.43l-.39-.2a.27.27 0 0 0-.32.06l-3.44 3.83-.99-4.97 7.28-5.7a3.1 3.08-59 0 1 2.45-.62l.75.13q1.42.25.36 1.22l-5.08 4.68q-.24.22-.04.48l.27.35q.21.27.44.01 2.77-3.15 6.1-5.36.34-.22.32-.63 0-.15.09-.29.02-.03.06-.06 1.23-.89 2.23-1.92.54-.57-.19-.28-1.54.61-2.05 2.04a.48.48 0 0 1-.84.11q-.9-1.23-2.32-1.36-.83-.07-.22-.64 5.34-4.96 9.57-10.47.34-.43.89-.46l1.47-.05q.47-.02.7-.45l1.39-2.66q.08-.15.24-.11l.45.09q.27.06.18.32-.47 1.34-1.27 2.52-.99 1.45.34 2.5a.6.6 0 0 1 .01.93l-2.59 2.12q-.13.1-.04.24l.17.27q.23.35.54.06.84-.83 1.99-.98a1.3 1.29-75.7 0 0 .89-.53l.65-.95q.48-.69.66.14.17.75-.52 1.17-.65.39-1.4.33-1.04-.09-1.35 1.1-.31 1.21.81.67c1.76-.83 3.84-1.73 4.98-3.39q2.47-3.61 4.89-7.36.41-.64-.24-1.02l-2.78-1.63a1.25 1.23-43.9 0 0-1.22-.01q-.92.52-1.97.66-.55.07-.87.52l-.6.88q-.29.41-.7.14-.44-.28-.93-.32a.31.31 0 0 1-.17-.55c.73-.6 1.44-1.05 1.77-1.99q1.29-3.7 2.67-5.86 1.19-1.88.62.27-.84 3.18-2.05 5.59-.27.54.33.42.75-.15 1.21-.77.29-.39.77-.44 3.7-.37 6.94-1.82a2.22 2.22 0 0 0 1.06-3.05q-.95-1.8-2.76-2.94zm17.66 4.71-3.18.05q-.89.01-.41.76l.87 1.35q.44.69 1.05.14l1.9-1.72q.65-.6-.23-.58m-3.44 3.62a.34.34 0 0 0 .14-.48l-1.63-2.68a.34.34 0 0 0-.6.02l-2.29 4.62a.34.34 0 0 0 .45.46zm-16.24-1.46q-1.51.89-3.19 1.34-.73.2-.13.65 1.07.83 2.16.99.78.11 1.02-.64.27-.82.84-1.55a.54.54 0 0 0-.7-.79m10.35 8.66 4.43 5.7q.72.92 1.28-.1l3.63-6.66q.52-.94-.08-1.83l-2.18-3.26q-.39-.59-.97-.19-2.26 1.53-4.67 2.23-.64.18-.95.76-3.87 7.02-8.39 13.29-1.07 1.49.67.92 4.93-1.6 10.86-2.34a.79.79 0 0 0 .56-1.22l-4.59-6.88q-.1-.16.06-.28l.28-.2q.01-.01.06.06m-10.04-5.38q-.06.15.06.27.15.17.25-.03.08-.18-.03-.3-.18-.19-.28.06m30.81 2.4a.28.28 0 0 0 .5.04q.29-.51.31-1.09.03-.72-.5-.24-.59.53-.31 1.29m-33.01 3.62q1.18-1.92 1.63-3.86.33-1.4-.43-.18c-1.88 3-3.78 6.03-6.04 8.8q-.34.42.05.8l.92.91a.37.37 0 0 0 .58-.09l2.53-4.7q.22-.4.57-.12l.26.2q.14.12.05.28l-2.22 4.23q-.26.48.02.95.27.46.69.79a.9.89 46.4 0 1-.03 1.43q-4 2.86-7.47 6.73-.07.08-.14 0-.03-.04.01-.07.02-.02.05-.02c2.09-.69 2.64-2.31 4.54-3.23q.46-.23.7-.68.75-1.42 2.37-1.46.53-.02.91-.39 1.32-1.27 2.73-.05.32.28.62-.03.13-.14.11-.31-.01-.26.13-.48l6.75-10.38a1.86 1.86 0 0 0-1.4-2.87l-4.94-.42q-.58-.05-.79.5-.84 2.26-1.95 4.24-.17.3-.51.22-.66-.16-.3-.74m10.82-3.76a.26.26 0 0 0 .12.44q.43.12.69-.18a.22.22 0 0 0-.07-.34q-.43-.2-.74.08m22.023 1.812a.66.66 0 0 0-.288-.888l-.107-.054a.66.66 0 0 0-.888.288l-3.123 6.13a.66.66 0 0 0 .288.888l.107.054a.66.66 0 0 0 .888-.288zM224.4 95.35q-.15-.6-.57-1.1-.56-.68-.83.16-.38 1.16-.78 2.18-.64 1.64.62.41.41-.4.96-.58.79-.26.6-1.07m.72 2.94-.33 1.04q-.34 1.06.68.61.99-.43 1.38-1.44.28-.74-.48-.94-2.59-.66-4.63 1.74-.54.62.29.61 1.79-.04 2.09-1.63.09-.47.55-.35l.3.08q.22.06.15.28m13.1-.22q-.74-.26-1.33.14-.58.39.07.65.72.28 1.33-.1.69-.42-.07-.69m-52.73 3.25q-1.38 2.65-3.57 5.26-.22.27.05.49l.26.22a.41.4-53.3 0 0 .59-.09l4.32-6.42q.33-.49-.15-.84l-1.77-1.3q-.41-.3-.69.12-1.02 1.49-2.31 2.77-.24.23-.34.52-.09.29-.27.52-.68.91.25.26 1.46-1.03 2.9-2.12 1.74-1.33.73.61m36 2.6 1.43-2.29a.42.42 0 0 0-.14-.58l-.13-.08a1.76 1.58 31.9 0 0-2.33.41l-.2.32a1.76 1.58 31.9 0 0 .66 2.27l.13.09a.42.42 0 0 0 .58-.14m-2.98-2.75q-.3.18-.42.5a.33.33 0 0 0 .39.44q.53-.14.54-.65a.33.33 0 0 0-.51-.29m6.44.3a.5.5 0 0 0-.5-.5.5.5 0 0 0-.5.5.5.5 0 0 0 .5.5.5.5 0 0 0 .5-.5m-9.47.51q.89.41-.05.68-2.55.71-4.06 3.63-.48.94.38.33.96-.68 2.15-.66.58.02 1.09-.28 1.11-.64 2.39-.86a.93.93 0 0 0 .74-.7q.13-.56-.06-1.11-.15-.43-.6-.55-.85-.23-1.45-.83-.43-.42-1.01-.28l-.77.18q-.87.21.06.2.65-.01 1.19.25m-2.24-.73-10.04 1.92a.15.15 0 0 0-.12.18l.01.05a4.85 1.19-10.8 0 0 4.99.26l.8-.15a4.85 1.19-10.8 0 0 4.55-2.08l-.02-.06a.15.15 0 0 0-.17-.12m21.31 2.3q-.12-.46-.26-.91-.26-.86-.29.04-.03.59.02 1.21.04.53.5.8 2.22 1.34 5.2 2.03.85.2.18-.36c-1.17-.95-3.03-1.32-4.43-1.81q-.72-.26-.92-1m-11.19.12a.21.21 0 0 0 .32-.18q0-.28-.29-.32-.11-.02-.16.09-.12.26.13.41m-3.72.25q-.11.37.29.24.3-.1.06-.31-.25-.23-.35.07m-16.5 7.24-1.84 2.39q-.39.51.26.49 2.04-.05 3.82-1.13.62-.37-.1-.37-.97-.01-1.92.4-.22.09-.12-.12 1.94-4.31 4.88-4.76a1.83 1.82-75.5 0 0 1.18-.7l2.08-2.72q.49-.64-.31-.5-3.15.57-6.64.68-1.04.03-.31.78l.44.44a1.62 1.62 0 0 1-.18 2.44l-6.24 4.64q-.3.22-.05.5l.17.21q.07.08.17.02l4.44-2.97q.99-.66.27.28m28.17-6.67q.29.16.62.07.37-.1.06-.32-.26-.19-.56-.19-.97-.02-.12.44m-34.845-.167a1.01.45-25 0 0-1.105.02 1.01.45-25 0 0-.725.834 1.01.45-25 0 0 1.105-.02 1.01.45-25 0 0 .725-.834m-16.955 1.317q-.03.19.12.31.26.21.44-.06.08-.13.05-.27a.31.31 0 0 0-.61.02m9.49 8.54q-2.16 2.37-4.04 4.85-.63.83.16.14c1.84-1.61 4.64-4.1 5.77-6.38q.44-.88 1.24-1.55.46-.39.62-.98.51-1.87 2.25-2.92.22-.13.07-.34l-.14-.2q-.05-.08-.12-.02-1.91 1.48-3.09 3.59-1.2 2.13-2.72 3.81m-12.79-6.38q-.41.24-.55.59.36-.03.61-.45.45-.07.45-.43-.29-.22-.51.29m34.44 3.08q-1.93.21-3.72 1.16-.09.04-.15.13-.07.12.01.26.19.36.59.26l3.77-.98q.54-.14 1.03.14 1.94 1.09 2.8 2.98.27.6.87.38a.53.52-39.6 0 0 .09-.94q-1.51-.92-2.36-2.29-.36-.58.31-.66l5.37-.67q.1-.02.09-.12v-.42q-.01-.35-.35-.32l-6.01.52a1.01 1-22.9 0 1-.83-.33l-1.61-1.86q-.17-.2-.39-.05l-.23.15q-.15.11-.08.28.38.98 1.05 1.65.65.64-.25.73m-34.01 3.17a.14.14 0 0 0 .24.15q2.45-3.57 4.74-5.46.2-.17.02-.36l-.19-.2a.26.26 0 0 0-.38 0q-2.58 2.75-4.43 5.87m5.45 4.9.54.22q.05.02.08-.03 3.2-5.13.21-10.02-.07-.12-.2-.06l-.24.12q-.25.12-.14.37 1.96 4.66-.46 8.77-.26.44.21.63m-6.63-8.84q-1.11 1.13-1.99 2.55-.45.74.18.14 1.24-1.18 2-2.55.42-.76-.19-.14m54.31 1.28.08-.68a.19.19 0 0 0-.17-.21l-1.93-.22a6.12.44 6.5 0 0-6.13-.26l-.02.18a6.12.44 6.5 0 0 6.03 1.13l1.93.22a.19.19 0 0 0 .21-.16m-43.65.89q.13-.09.22-.15-.17-.01-.29.09-.82.67.07.06m-15.935 5.751a2.55.48 123.7 0 0 1.814-1.855 2.55.48 123.7 0 0 1.016-2.388 2.55.48 123.7 0 0-1.814 1.856 2.55.48 123.7 0 0-1.016 2.387m64.665-3.751a.05.05 0 0 0-.04.05q.02.15.14.2.28.1.16-.17-.07-.14-.26-.08m-6.02.71.02-.43q.01-.1-.09-.12-4.83-.86-9.44 1.18a.32.31 75.4 0 0-.19.33l.03.35q.03.28.29.18 4.47-1.64 9.09-1.25.27.03.29-.24m1.82-.09q.13.06.26-.01a.16.16 0 0 0 .02-.28q-.13-.09-.28-.02-.35.16 0 .31m-16 3.69q-1.3 1.31.28.37l2.91-1.72a.63.62 71 0 0 .3-.63l-.1-.57q-.12-.74-.65-.21zm-39.367-2.554a2.3.44-41.5 0 0-2.015 1.195 2.3.44-41.5 0 0-1.43 1.853 2.3.44-41.5 0 0 2.014-1.195 2.3.44-41.5 0 0 1.43-1.853m45.657 3.97a1.49.49 44.1 0 0-.729-1.388 1.49.49 44.1 0 0-1.411-.685 1.49.49 44.1 0 0 .729 1.389 1.49.49 44.1 0 0 1.411.685m2.93 4.464q-4.05 1.26-6.46 4.92-.22.32.16.4l.52.11a.15.15 0 0 0 .15-.05c1.85-2.58 4.95-5.04 8.23-4.36a.23.23 0 0 0 .27-.28q-.2-.77.11-1.48a.41.4 9.3 0 0-.41-.57q-.73.07-1.5-.16-.47-.14-.78-.52-.67-.8-1.63-1.24-.81-.38-.32.37l.64.99q.38.6-.32.7-8.97 1.3-14.3 8.2-.29.38.09.67l.2.16q.1.08.19-.01 2.86-3.43 6.41-5.56c.62-.37.75-.72 1.19-1.21q.35-.39.86-.31c1.92.28 4.52-1.01 6.64-1.11q1.32-.06.06.34m-33.75-1.23q-.27.06-.39.33-.15.33.21.39.29.05.49-.13.91-.86-.31-.59m3.37 1.67q.35.16.56-.11a.28.27 34.2 0 0-.08-.41q-.32-.19-.57.09t.09.43m-5.3 2.3q.81-.91 1.08-1.82.21-.71-.3-.18-.7.7-1.14 1.78-.46 1.14.36.22m21.1-2.2q-.13-.07-.22.04-2.92 3.5-2.87 7.93 0 .11.1.15l.35.16q.38.17.42-.24.42-4.17 2.47-7.82.03-.06-.02-.09zm20.703 3.05a1.78.5 39 0 0-1.068-1.509 1.78.5 39 0 0-1.698-.731 1.78.5 39 0 0 1.068 1.509 1.78.5 39 0 0 1.698.731m-43.556 2.618a1.38.33 133.7 0 0 1.192-.77 1.38.33 133.7 0 0 .714-1.226 1.38.33 133.7 0 0-1.192.77 1.38.33 133.7 0 0-.714 1.226m-4.157 1.572a.15.15 0 0 0-.16.21q.31.68 1.12.71.37.01.67-.21.59-.43-.14-.52zm14.83 6.31 1.23.83q.26.18.39-.12l.12-.28q.07-.15-.09-.23-1.54-.78-3.18-.87-.91-.05-.07.29.26.11.55.09.57-.03 1.05.29"/><path d="M204.22 76.1q-.23.47-.56.77-.41.36-.83.16-.46-.22-.78-.94zM209.27 76.59q-1.64.8-3.36.72-.55-.03-.52-.58.01-.28.17-.58 1.83-.12 3.71.44M185.85 76.23l-4.34 11.52q-.13.34-.43.15l-.3-.18q-.19-.11-.12-.32l3.36-11.15q.78-.21 1.83-.02M214.47 77.6q-.22.04-.41.14-.42.24-.32.72.27 1.2-.82 1.71-.51.24-.33.77l.17.5q.08.25-.03.49l-2.01 4.24a1.91 1.91 0 0 1-3.35.18l-.76-1.25q-.18-.27-.51-.29-.19-.01-.32.11-.27.23-.1.55l.78 1.5q.28.55-.34.49l-3.63-.31a.61.61 0 0 1-.55-.67q.05-.46.32-.82.35-.47-.2-.68-.13-.05-.22.09-.09.13-.22.05-.44-.28-.33-.72a.39.39 0 0 1 .42-.28q.88.08 1.19-.8a.75.75 0 0 1 1.28-.23q.46.54 1.09.85.73.36.35-.36l-.4-.78q-.33-.64.39-.69 2.94-.19 5.37-1.16.09-.04.06-.14l-.08-.28a.23.22-11.5 0 0-.25-.16l-5.8.9a.66.65-84.1 0 1-.71-.88l.57-1.54a.88.87 12.6 0 1 .9-.57q2.86.25 5.17-1.35 1.99.03 3.63.67"/><path fill="#fff" d="m176.09 77.04-.91 3.15q-.15.49.07.96.77 1.7.88 3.45.03.5-.29.89-4.12 5.04-8.4 9.33-.13.13-.28 0-.11-.1-.01-.2l.45-.48q.33-.35.35-.83c.05-1.56 1.15-2.69 1.65-4.15q1.11-3.26 2.1-6.4.15-.47.6-.7l.79-.4q.5-.24.59-.79l.59-3.62zm-1.93 5.12q-.05.46.42.54a.28.27 11.1 0 0 .33-.22q.06-.31-.18-.53a.34.34 0 0 0-.57.21M172.98 77.36l-6.4 17.23q-.06.16.07.28.12.11.07.24-.03.08-.09.15-1.77 1.84-4.16 3.5-.99-4.97-4.4-6.89-.34-.07-.04-.66.13-.23.39-.46 6.24-5.41 10.6-11.34.37-.5.86-.12.2.15.28.39a.39.39 0 0 0 .73.03l.88-1.93q.57-.38 1.21-.42"/><path d="m171.77 77.78-.88 1.93a.39.39 0 0 1-.73-.03q-.08-.24-.28-.39-.49-.38-.86.12-4.36 5.93-10.6 11.34-.26.23-.39.46-.3.59.04.66-1.05.17-1.55-.33 3.1-5.91 4.72-12.5l1.07-.07-2.98 9q-.29.9.42.27 4.69-4.11 8.58-9.84 1.03-.51 3.44-.62M220.96 79.69l-5.23.16q-.56.02-.68-.53-.13-.56.44-1.38z"/><path fill="#fff" d="M168.33 78.4q-3.89 5.73-8.58 9.84-.71.63-.42-.27l2.98-9z"/><path d="m140.96 79.19-.96-.06q.51-.07.96.06M153.05 79.17c-.48 2.14-2.71 3.81-4.18 5.34a.02.02 0 0 1-.03-.02l1.54-4.1a.13.13 0 0 1 .05-.08q.35-.3.65-.16a.39.39 0 0 0 .52-.19q.12-.28.09-.62.59-.29 1.36-.17"/><path fill="#fff" d="M161.24 79.04q-1.62 6.59-4.72 12.5c-2.67-1.32-9.05 1.99-11.5 3.52q1.34-1.6 1.02-2.69-.16-.58-.51-.09-1.02 1.4-1.4 3.06-5.59 3.23-12.3 4.53l5.17-3.35q.14-.09.1-.24l-.09-.36a.28.28 0 0 0-.41-.18l-4.86 2.74q-.4.23-.65.62l-.88 1.41q-.42.19-.98.23.77-2.29 2.55-4.14.11-.11.06-.26l-.15-.42q-.09-.28-.33-.12l-2.73 1.79q-.82.53-.53-.4.34-1.15 1.66-1.32.27-.04.26-.31l-.01-.31a.29.28-7.6 0 0-.35-.26l-3.13.73a.6.6 0 0 0-.4.86q1 1.89.55 4.21l-.92.26q.24-.87.06-1.42-.16-.48-.63-.3l-5.95 2.24a.29.29 0 0 1-.38-.18l-.09-.26q-.11-.36.24-.5l5.83-2.27q.65-.25.44-.91l-.27-.81q-.16-.5-.68-.43l-7.87 1.01q-.55.08-.39.61.36 1.15.31 2.48-.01.08-.08.09l-.28.05q-.28.04-.36-.24l-.63-2.41q-.15-.53-.7-.55l-5.53-.19q.1-.69.43-1.05l4.45.25q.58.03.56-.54-.03-1.24-.79-2.34-.05-.08.03-.11l.25-.12q.22-.11.31.12.59 1.39 1.44 2.54.35.47.94.4l7.33-.89q.99-.12.65-1.06l-.36-1.02a.92.92 0 0 1 .15-.88q.46-.56 1.21-.54.71.03.25.57-.49.58-.53 1.36a.82.82 0 0 0 .67.85q.89.17 1.8-.08a.72.72 0 0 0 .18-1.3l-.9-.55q-1.53-.94.07-1.76 4.37-2.23 7.45-4.87.15-.13.06-.3l-.15-.28q-.18-.34-.48-.1-3.37 2.65-7.24 4.53-.68.33-.64-.42c.19-3.73 8.76-7.36 11.93-8.63q.18-.07.16-.26l-.05-.47a.3.29-16.4 0 0-.43-.23q-1.81.89-3.53 1.49-.7.25-.2-.31.1-.11.06-.29-.08-.29-.32-.12l-4.24 2.98q-.91.64-.46-.37l1.37-3.15 7.7-.59q.78.11.98.5.2.38-.11.69-2.33 2.24-3.73 3.99-.97 1.19.37.43 2.6-1.47 4.41-4.75.21-.37-.14-1.06.15-.09.29-.19l.96.06 10.73.15q.03.34-.09.62a.39.39 0 0 1-.52.19q-.3-.14-.65.16a.13.13 0 0 0-.05.08l-1.54 4.1a.02.02 0 0 0 .03.02c1.47-1.53 3.7-3.2 4.18-5.34zm-13.5 8.81q-1.16 1.43-.84 2.62.23.89.6.05l2.05-4.76q.43-1.01-.49-.42-1.5.96-2.99 2.29a.4.39-67.4 0 0 .28.69q.64-.04.85-.71.11-.38.47-.27.06.01.09.06.17.23-.02.45m-2.16 1.158a5.1.57-40.8 0 0-4.232 2.9 5.1.57-40.8 0 0-3.489 3.764 5.1.57-40.8 0 0 4.233-2.9 5.1.57-40.8 0 0 3.489-3.764"/><path d="M139.71 79.32q.35.69.14 1.06-1.81 3.28-4.41 4.75-1.34.76-.37-.43 1.4-1.75 3.73-3.99.31-.31.11-.69-.2-.39-.98-.5.67-.37 1.78-.2"/><path fill="#fff" d="M128.93 80.11q-.61 3.14-2.7 4.38a.81.81 0 0 1-1.23-.7q.01-1.9-.49-3.18z"/><path d="m130.23 80.11-1.37 3.15q-.45 1.01.46.37l4.24-2.98q.24-.17.32.12.04.18-.06.29-.5.56.2.31 1.72-.6 3.53-1.49a.3.29-16.4 0 1 .43.23l.05.47q.02.19-.16.26c-3.17 1.27-11.74 4.9-11.93 8.63q-.04.75.64.42 3.87-1.88 7.24-4.53.3-.24.48.1l.15.28q.09.17-.06.3-3.08 2.64-7.45 4.87-1.6.82-.07 1.76l.9.55a.72.72 0 0 1-.18 1.3q-.91.25-1.8.08a.82.82 0 0 1-.67-.85q.04-.78.53-1.36.46-.54-.25-.57-.75-.02-1.21.54a.92.92 0 0 0-.15.88l.36 1.02q.34.94-.65 1.06l-7.33.89q-.59.07-.94-.4-.85-1.15-1.44-2.54-.09-.23-.31-.12l-.25.12q-.08.03-.03.11.76 1.1.79 2.34.02.57-.56.54l-4.45-.25q-.04-1.81.75-2.93 1.41-1.45 2.92-1.32.96.08.35-.65-.32-.38-.11-1.02a1.11.75-33.9 0 1 .09-.22l1.07-1.79q.57-.95-.43-.48-.53.24-.78.74-.57 1.11-1.61.62l2.5-3.11q4.8.41 9.56-.73.49-.11.54-.62.17-1.82-.7-3.36l1.13-.53q.5 1.28.49 3.18a.81.81 0 0 0 1.23.7q2.09-1.24 2.7-4.38.71-.16 1.3 0m-3.835 5.45a.57.26-31.7 0 0-.622.079.57.26-31.7 0 0-.348.52.57.26-31.7 0 0 .622-.078.57.26-31.7 0 0 .348-.52m-7.515 3.67.31.27q.39.35.85.09 1.78-1.01 3.52-1.85.68-.33.75-1.03.06-.59-.52-.51l-8.04 1.05a.33.33 0 0 0-.23.5l.53.83a.86.82-14 0 0 .68.39l1.7.07q.26.01.45.19m5.78-.85a.08.07 80.7 0 0-.11-.08l-3.12 1.68q-1.23.66.14.95 2.47.51 3.09-2.55M224.01 81.05l-2.82 6.24q-.91 2-1.81-.01l-1.06-2.39q-.19-.42.15-.75l4.02-3.9zM219.94 81.38l-1.9 1.72q-.61.55-1.05-.14l-.87-1.35q-.48-.75.41-.76l3.18-.05q.88-.02.23.58M216.27 84.42l-3.93 1.94a.34.34 0 0 1-.45-.46l2.29-4.62a.34.34 0 0 1 .6-.02l1.63 2.68a.34.34 0 0 1-.14.48"/><path fill="#fff" d="M123.38 81.14q.87 1.54.7 3.36-.05.51-.54.62-4.76 1.14-9.56.73l6.35-3.34q1.12.09 1.67-.7z"/><path d="M122 81.81q-.55.79-1.67.7.68-.62 1.67-.7M174.16 82.16a.34.34 0 0 1 .57-.21q.24.22.18.53a.28.27 11.1 0 1-.33.22q-.47-.08-.42-.54M225.85 82.14l-2.11 7.46q-.07.25.18.3l.3.06q.19.04.25-.15l2.03-7.27 4.7 2.68q-.19.06-.44.22-.22.16-.35.39-2.32 4.32-4.67 8.34a.45.45 0 0 1-.69.1q-1.35-1.26-1.02-2.9a.46.45-4.8 0 0-.61-.51q-.8.3-1.61.27-.87-.04-.13.42.94.6.62 1.71-.74 2.57-1.67 4.77-.66 1.54-2.31 1.75l-.79.1q-1.79.23-.98-1.39l8.34-16.79z"/><path fill="#fff" d="M225.85 82.14q.53.11.65.4l-2.03 7.27q-.06.19-.25.15l-.3-.06q-.25-.05-.18-.3z"/><path d="M200.73 83.75q-.57.73-.84 1.55-.24.75-1.02.64-1.09-.16-2.16-.99-.6-.45.13-.65 1.68-.45 3.19-1.34a.54.54 0 0 1 .7.79M147.76 87.4q-.03-.05-.09-.06-.36-.11-.47.27-.21.67-.85.71a.4.39-67.4 0 1-.28-.69q1.49-1.33 2.99-2.29.92-.59.49.42l-2.05 4.76q-.37.84-.6-.05-.32-1.19.84-2.62.19-.22.02-.45M210.38 91.62q-.05-.07-.06-.06l-.28.2q-.16.12-.06.28l4.59 6.88a.79.79 0 0 1-.56 1.22q-5.93.74-10.86 2.34-1.74.57-.67-.92 4.52-6.27 8.39-13.29.31-.58.95-.76 2.41-.7 4.67-2.23.58-.4.97.19l2.18 3.26q.6.89.08 1.83l-3.63 6.66q-.56 1.02-1.28.1z"/><ellipse fill="#fff" rx=".57" ry=".26" transform="rotate(-31.7 214.163 -178.81)"/><path fill="#fff" d="m118.43 89.04-1.7-.07a.86.82-14 0 1-.68-.39l-.53-.83a.33.33 0 0 1 .23-.5l8.04-1.05q.58-.08.52.51-.07.7-.75 1.03-1.74.84-3.52 1.85-.46.26-.85-.09l-.31-.27q-.19-.18-.45-.19"/><path d="M200.34 86.24q.1-.25.28-.06.11.12.03.3-.1.2-.25.03-.12-.12-.06-.27"/><path fill="#afaca2" fill-opacity=".996" d="M232.21 86.14q-.12.34.32.6.36.21.62-.04.2.13.4.14l-.24.22-.74-.1q-.45-.06-.5-.51l-.05-.49q.1.09.19.18"/><path d="M233.15 86.7q-.26.25-.62.04-.44-.26-.32-.6.6-.01.94.56M231.15 88.64q-.28-.76.31-1.29.53-.48.5.24-.02.58-.31 1.09a.28.28 0 0 1-.5-.04M233.55 86.84l5.03 4.39-4.63 8.69q-.5.94-.35-.12l.09-.66q.07-.53-.45-.45-1.87.27-3.2 1.46a.99.99 0 0 0-.32.87l1.16 8.28q.04.27-.23.3l-.34.05q-.12.02-.15-.11l-1.1-5.01q-.11-.51-.64-.51l-3.09.03q-.32 0-.24-.31l.06-.26q.07-.29.37-.29l2.77.05q.83.01.59-.78-.4-1.33.11-2.44.34-.75-.47-.56-.38.1-.53.47-.16.37-.51.17-.24-.14-.33-.41a.35.34 85.5 0 1 .37-.44l.36.05q.23.04.32-.18l5.11-12.06z"/><path fill="#fff" d="M109.98 93.08q.15-1.4.91-2.3.3.2.42-.3.14-.55-.25-.49.07-.59.42-1.03 1.04.49 1.61-.62.25-.5.78-.74 1-.47.43.48l-1.07 1.79a1.11.75-33.9 0 0-.09.22q-.21.64.11 1.02.61.73-.35.65-1.51-.13-2.92 1.32"/><path d="M198.44 93q.34.08.51-.22 1.11-1.98 1.95-4.24.21-.55.79-.5l4.94.42a1.86 1.86 0 0 1 1.4 2.87l-6.75 10.38q-.14.22-.13.48.02.17-.11.31-.3.31-.62.03-1.41-1.22-2.73.05-.38.37-.91.39-1.62.04-2.37 1.46-.24.45-.7.68c-1.9.92-2.45 2.54-4.54 3.23q-.03 0-.05.02-.04.03-.01.07.07.08.14 0 3.47-3.87 7.47-6.73a.9.89 46.4 0 0 .03-1.43q-.42-.33-.69-.79-.28-.47-.02-.95l2.22-4.23q.09-.16-.05-.28l-.26-.2q-.35-.28-.57.12l-2.53 4.7a.37.37 0 0 1-.58.09l-.92-.91q-.39-.38-.05-.8c2.26-2.77 4.16-5.8 6.04-8.8q.76-1.22.43.18-.45 1.94-1.63 3.86-.36.58.3.74"/><path fill="#fff" d="M124.66 88.38q-.62 3.06-3.09 2.55-1.37-.29-.14-.95l3.12-1.68a.08.07 80.7 0 1 .11.08"/><path d="M208.96 88.5q.31-.28.74-.08a.22.22 0 0 1 .07.34q-.26.3-.69.18a.26.26 0 0 1-.12-.44"/><ellipse rx="5.1" ry=".57" transform="rotate(-40.8 195.007 -144.367)"/><rect width="1.44" height="8.2" x="-.72" y="-4.1" rx=".66" transform="rotate(27 -79.4 522.994)"/><path fill="#afaca2" fill-opacity=".996" d="M110.89 90.78q-.1-.44.17-.79.39-.06.25.49-.12.5-.42.3"/><path d="M145.02 95.06q-.32.31-.89.28.38-1.66 1.4-3.06.35-.49.51.09.32 1.09-1.02 2.69M242.3 94.77q-.79.11-1.09.38a.48.47 39.8 0 0 .07.74q1.61 1.04 3.2.8.45.14.7.52-.16.45.51.46.93.34 1.63 1.08l-1.23 2.16q-.37.63.18 1.1l2.59 2.22q.72.62.51-.31l-.94-4.16q.99.07 1.84 1.27-.59 3.32 1.66 5.7.59.63 1.18 0 2.17-2.35.05-3.82 1.52-.05 2.27.86.36.61 1.26 1.04.17.08.24.24.12.27-.09.47-.4.37-.61-.12-.1-.24-.27-.41-.48-.49-.78.12l-1.21 2.41a.64.63-59.8 0 0 .21.82l6.79 4.57q.17.12.07.3l-.21.35q-.15.24-.39.09-3.84-2.32-6.93-4.94-.4-.34-.53.17-.93 3.45 1.38 6.6 1.57 2.15 2.9 4.61.24.45.75.54 1.65.31 2.48-1.09a.27.27 0 0 1 .49.04q.24.67-.35 1.06-.52.35-1.14.32-1.68-.06-1.61 1.62.05 1.19-.62.2c-1.74-2.53-3.1-5.79-5.22-7.97a.74.73-58.1 0 0-1.23.29l-.96 2.94q-.24.71.36 1.17l3.55 2.74q.7.54 0 1.07l-3.55 2.71a.34.34 0 0 1-.47-.49q1.13-1.35 2.94-2.07a.42.42 0 0 0 .1-.72l-3.05-2.39a.42.42 0 0 0-.67.26l-2.17 12.61q.11.64-1.43 1.05.58-2.56.18-4.84-.03-.19.13-.27.12-.05.23-.17.13-.13.17-.31l1.13-5.11q.11-.46-.23-.81-1.57-1.59-1.58-4.11 0-.08.06-.13.12-.1.26-.12.3-.03.39.26l.98 3.18q.34 1.11.61-.02l.47-1.97q.12-.52-.36-.75-.81-.36-1.35-1.09-.42-.55.28-.48.72.09 1.31.51.57.42.8-.25l1.15-3.46a1.22 1.21-65.3 0 0-.52-1.43l-6.51-3.9q-.46-.27-.64.23l-1.53 4.16q-.18.48.2.83l1.03.92q.59.53-.21.48-.56-.04-1.05-.25-.62-.26-.79.39l-.63 2.49q-.13.51.24.9l1.58 1.61q.2.21-.03.39l-.2.16q-.25.2-.48-.01l-.88-.77q-.59-.51-.88.22-2.1 5.45 1.39 9.72.4.49.92.14l2.69-1.78q.3-.21.5.11l.21.35q.07.11-.04.19l-2.69 1.99q-.51.37-.2.92l1.89 3.33-2.32 1.53q-1.89-1.91-4.1-2.57-.45-.14-.47.33l-.25 4.5q-1.07.94-2.35 1.07-6.45-10.35-15.75-3.45-.41.31-.42.83-.01 1.16.8 1.89a1.06 1.05-25.5 0 0 .78.27q2.64-.2 5.31.33.17.03.19.21l.03.27q.03.35-.31.33l-3.88-.2a.66.65 0 0 0-.69.68q.02.44-.42.47-.47.03-.78-.32-.79-.9-1.93-.4-.5.22-.67-.3-.06-.2.01-.42.04-.12.11-.22.21-.28.5-.3.64-.06.33-.64c-1.45-2.67-.53-4.79-.29-7.52q.02-.3.21-.52.13-.15.33-.14.49.04.21.45-1.06 1.6-.49 4.1.14.62.62.2c1.63-1.43 4.62-3.02 6.9-2.54q1.11.24 2.32.3 2.81.12 4.85 2.43.87.97 1.84.11l1.42-1.26q1.26-1.12-.06-2.16l-4.19-3.34a.36.36 0 0 1-.1-.44l.17-.34q.14-.28.39-.08l3.57 2.74q.76.58.39-.3-2.02-4.87-7.27-5.66-.27-.04-.24-.31l.14-1.29a.3.3 0 0 1 .34-.27q3.52.45 6.36 2.32 1.92 1.27.91-.8-2.45-5-4.32-10.51-.44-1.27-.23-3.53.06-.58.55-.27.79.5 1.7.63.64.1.59-.54l-.29-4.34a.27.27 0 0 1 .32-.28l.44.1q.2.04.2.24.01 3.27.94 5.84.17.48-.3.69-.63.29-1.14-.22-.64-.65-1.54-.74-.68-.07-.5.59l.64 2.39q.15.56.73.57 2.15 0 4.42 1.9.66.56.87-.28l.6-2.29q.17-.65-.47-.86l-1.98-.63q-.34-.11-.21-.44l.17-.43q.03-.07.1-.05 1.33.35 2.39.67.53.16.73-.36.8-2.06 1.54-4.39.52-1.64 1.38-3.15c1.51-2.64.83-5.86-2.65-6.47q-.65-.11-.44-.74l.28-.84q.21-.62-.43-.77-.6-.14-1.2.01a.5.5 0 0 1-.6-.38q-.04-.19.09-.35a.27.26 25.8 0 1 .3-.1l.49.16q.61.19.75-.43l.63-2.92zm.48 2.737a.82.33 2.6 0 0-.805-.367.82.33 2.6 0 0-.834.293.82.33 2.6 0 0 .804.367.82.33 2.6 0 0 .834-.293m.86 1.973q-.07-.06-.15-.03-.07.03-.03.08.07.1.2.12.21.03-.02-.17m1.79-.33-.75.64a.35.35 0 0 0 .35.59q.83-.3.84-1.01a.27.27 0 0 0-.44-.22m-.82 7.61q-.01.72.16 1.36.12.46.55.68 2.9 1.5 4.98 3.63.95.97.83-.38-.15-1.76-.67-3.8-.37-1.45-1.45-2.47l-3.66-3.47q-.45-.43-.47.19-.04 1.28-.63 2.48-.25.49.08.93.28.37.28.85m-1.51-.27q-.14.55.16 1.03a.23.23 0 0 0 .42-.1q.07-.59-.37-1a.13.13 0 0 0-.21.07m8.99 2.25.18-.43q.12-.3-.19-.41-.15-.05-.29-.11-.83-.38-.46.45l.23.5q.27.6.53 0m-16.37 10.77-1.31-2.67q-.09-.19-.3-.23l-.65-.14q-.48-.11-.31.35l1.35 3.68q.19.52.68.26l.32-.17q.17-.09.32.02.13.09.17.23.18.52-.37.51h-.26a.31.31 0 0 0-.3.42q.51 1.38 1.28 2.62.48.76.61-.12.19-1.25-.62-2.18-.28-.32.14-.28.18.02.29.16.54.69.7-.17.19-1.05.46-2.01.22-.76-.38-1.28-.43-.38-.95-.59a.45.44 4.9 0 0-.61.51q.11.5.11.99-.02.81-.37.09m-3.86 6.4c1.01.73 2.69 1.7 3.23 2.8q.82 1.68.85-.18c.03-1.94-2.31-2.69-3.91-3.01q-.95-.19-.17.39m5.78 3.33a.29.29 0 0 0-.54.07q-.39 1.73-.08 3.22.17.86.83.28l.68-.6q.49-.44.18-1.01zm3.015 5.974a1.4.8 47 0 0-.37-1.57 1.4.8 47 0 0-1.54-.478 1.4.8 47 0 0 .37 1.57 1.4.8 47 0 0 1.54.478m.845-1.424q.2.08.16-.13-.05-.24-.21-.08-.13.12.05.21m-7.24 5.51a.36.36 0 0 0 .59-.19l.56-2.33q.15-.63-.43-.36l-1.42.63q-.4.18-.32.6.16.88 1.02 1.65M223.8 96.42q-.55.18-.96.58-1.26 1.23-.62-.41.4-1.02.78-2.18.27-.84.83-.16.42.5.57 1.1.19.81-.6 1.07"/><path fill="#fff" d="m242.3 94.77 2.18 1.92q-1.59.24-3.2-.8a.48.47 39.8 0 1-.07-.74q.3-.27 1.09-.38"/><path d="M129.23 100.74q-.98.33-2.55.05.45-2.32-.55-4.21a.6.6 0 0 1 .4-.86l3.13-.73a.29.28-7.6 0 1 .35.26l.01.31q.01.27-.26.31-1.32.17-1.66 1.32-.29.93.53.4l2.73-1.79q.24-.16.33.12l.15.42q.05.15-.06.26-1.78 1.85-2.55 4.14M131.83 99.87l-1.62.64.88-1.41q.25-.39.65-.62l4.86-2.74a.28.28 0 0 1 .41.18l.09.36q.04.15-.1.24zM125.76 101.05l-8.2 1.4q.71-2.01-1.79-.75-.77.39-1.6.48-2.43.28-4.77 1.25h-.13l-1.71-2.73 1.24-3.64 5.53.19q.55.02.7.55l.63 2.41q.08.28.36.24l.28-.05q.07-.01.08-.09.05-1.33-.31-2.48-.16-.53.39-.61l7.87-1.01q.52-.07.68.43l.27.81q.21.66-.44.91l-5.83 2.27q-.35.14-.24.5l.09.26a.29.29 0 0 0 .38.18l5.95-2.24q.47-.18.63.3.18.55-.06 1.42M225.12 98.29q.07-.22-.15-.28l-.3-.08q-.46-.12-.55.35-.3 1.59-2.09 1.63-.83.01-.29-.61 2.04-2.4 4.63-1.74.76.2.48.94-.39 1.01-1.38 1.44-1.02.45-.68-.61z"/><ellipse fill="#fff" rx=".82" ry=".33" transform="rotate(2.6 -2026.582 5379.853)"/><path fill="#afaca2" fill-opacity=".996" d="M245.18 97.21q.39.11.51.46-.67-.01-.51-.46"/><path d="M238.29 98.76q-.61.38-1.33.1-.65-.26-.07-.65.59-.4 1.33-.14.76.27.07.69"/><path fill="#fff" d="m163.3 101.26-.74-2.25q.38.21.7.27a.83.81 19.5 0 0 .84-.39q.11-.18.29-.28.32-.19.16.15z"/><path d="M185.49 101.32q1.01-1.94-.73-.61-1.44 1.09-2.9 2.12-.93.65-.25-.26.18-.23.27-.52.1-.29.34-.52 1.29-1.28 2.31-2.77.28-.42.69-.12l1.77 1.3q.48.35.15.84l-4.32 6.42a.41.4-53.3 0 1-.59.09l-.26-.22q-.27-.22-.05-.49 2.19-2.61 3.57-5.26"/><path fill="#fff" d="m248.43 99.76.94 4.16q.21.93-.51.31l-2.59-2.22q-.55-.47-.18-1.1l1.23-2.16q.65.3 1.11 1.01M243.66 99.65q-.13-.02-.2-.12-.04-.05.03-.08.08-.03.15.03.23.2.02.17M245.43 99.15a.27.27 0 0 1 .44.22q-.01.71-.84 1.01a.35.35 0 0 1-.35-.59zM109.27 103.43q-.96.29-1.76-.14 0-.38-.28-.56-.22-1.13.33-2.03z"/><path d="M221.49 103.92a.42.42 0 0 1-.58.14l-.13-.09a1.76 1.58 31.9 0 1-.66-2.27l.2-.32a1.76 1.58 31.9 0 1 2.33-.41l.13.08a.42.42 0 0 1 .14.58zM218.51 101.17a.33.33 0 0 1 .51.29q-.01.51-.54.65a.33.33 0 0 1-.39-.44q.12-.32.42-.5"/><circle cx="224.45" cy="101.47" r=".5"/><path fill="#fff" d="M253.16 102.91q2.12 1.47-.05 3.82-.59.63-1.18 0-2.25-2.38-1.66-5.7zM117.56 102.45l-1.53.43-.75-.02-5.88.57q2.34-.97 4.77-1.25.83-.09 1.6-.48 2.5-1.26 1.79.75"/><path d="M215.48 101.98q-.54-.26-1.19-.25-.93.01-.06-.2l.77-.18q.58-.14 1.01.28.6.6 1.45.83.45.12.6.55.19.55.06 1.11a.93.93 0 0 1-.74.7q-1.28.22-2.39.86-.51.3-1.09.28-1.19-.02-2.15.66-.86.61-.38-.33 1.51-2.92 4.06-3.63.94-.27.05-.68"/><path d="M213.24 101.25a.15.15 0 0 1 .17.12l.02.06a4.85 1.19-10.8 0 1-4.55 2.08l-.8.15a4.85 1.19-10.8 0 1-4.99-.26l-.01-.05a.15.15 0 0 1 .12-.18z"/><path fill="#fff" d="M244.61 106.76q0-.48-.28-.85-.33-.44-.08-.93.59-1.2.63-2.48.02-.62.47-.19l3.66 3.47q1.08 1.02 1.45 2.47.52 2.04.67 3.8.12 1.35-.83.38-2.08-2.13-4.98-3.63-.43-.22-.55-.68-.17-.64-.16-1.36"/><path d="M235.47 104.55c1.4.49 3.26.86 4.43 1.81q.67.56-.18.36-2.98-.69-5.2-2.03-.46-.27-.5-.8-.05-.62-.02-1.21.03-.9.29-.04.14.45.26.91.2.74.92 1"/><path fill="#afaca2" fill-opacity=".996" d="M107.23 102.73q.28.18.28.56-.25.18-.42-.09-.23-.36.14-.47"/><path d="m116.03 102.88-.75-.02zM223.36 103.67q-.25-.15-.13-.41.05-.11.16-.09.29.04.29.32a.21.21 0 0 1-.32.18M219.64 103.92q.1-.3.35-.07.24.21-.06.31-.4.13-.29-.24"/><path fill="#fff" d="m255.43 103.77 2.6.79q1.03 1.05.85 2.54-.07.58.37.95 1.58 1.35 1.94 3.34.23 1.27.73.08.33-.79-.29-1.5a1.87 1.82 17.7 0 1-.4-.75q-.61-2.41-2.07-4.39.96-.05 1.84.29.21 1.38.8 2.46a1.06 1.06 0 0 0 1.72.2l2.4-2.68 4.83.46.74 2.46q.23.75-.42.3-.82-.57-1.48.12-.48.5-.94-.02l-1.36-1.55q-.38-.44-.67.07l-2.86 5.05a1.03 1.02 42.3 0 0 .06 1.11q.76 1.04 1.31.27 1.4-1.94 2.41-3.85.22-.42.55-.08l.2.22a.49.48 39.8 0 1 .06.6l-2.62 4.16a1.27 1.27 0 0 0 .07 1.45l3.19 4.11a.48.47 38.7 0 1 .06.49l-.16.37q-.23.52-.58.08-2.48-3.03-4.32-6.24-.48-.83-1.52-1.02-.27-.05-.33.22l-.09.36q-.1.4.27.56 1.79.78 2.55 2.36a1.07 1.06 50.2 0 1-.09 1.06q-.59.86-1.57.88-.27.01-.11.22.09.11.23.11.12 0 .22-.07 1.62-1.17 3.15.38a2.42 2.41 40.2 0 1 .26 3.05l-2.44 3.52-3.58-.43q-.97-1.02-1.49-2.48-.28-.78-.59-.01-.43 1.07.38 1.94.27.29-.08.48-.19.09-.37.05l-1.69-.21q-.7-1.37-1.87-2.49-.42-.4-.54.17-.24 1.03 1.4 2.23-2.51-.65-4.55.04a.81.8-8.5 0 0-.55.73l-.04.97q-.02.46-.31.83l-3.75 4.8 2.17-12.61a.42.42 0 0 1 .67-.26l3.05 2.39a.42.42 0 0 1-.1.72q-1.81.72-2.94 2.07a.34.34 0 0 0 .47.49l3.55-2.71q.7-.53 0-1.07l-3.55-2.74q-.6-.46-.36-1.17l.96-2.94a.74.73-58.1 0 1 1.23-.29c2.12 2.18 3.48 5.44 5.22 7.97q.67.99.62-.2-.07-1.68 1.61-1.62.62.03 1.14-.32.59-.39.35-1.06a.27.27 0 0 0-.49-.04q-.83 1.4-2.48 1.09-.51-.09-.75-.54-1.33-2.46-2.9-4.61-2.31-3.15-1.38-6.6.13-.51.53-.17 3.09 2.62 6.93 4.94.24.15.39-.09l.21-.35q.1-.18-.07-.3l-6.79-4.57a.64.63-59.8 0 1-.21-.82l1.21-2.41q.3-.61.78-.12.17.17.27.41.21.49.61.12.21-.2.09-.47-.07-.16-.24-.24-.9-.43-1.26-1.04m7.3 5.56q-.31-.11-.53.2-.19.29.15.33.27.03.46-.19.2-.24-.08-.34"/><path d="m202.87 110.88-4.44 2.97q-.1.06-.17-.02l-.17-.21q-.25-.28.05-.5l6.24-4.64a1.62 1.62 0 0 0 .18-2.44l-.44-.44q-.73-.75.31-.78 3.49-.11 6.64-.68.8-.14.31.5l-2.08 2.72a1.83 1.82-75.5 0 1-1.18.7q-2.94.45-4.88 4.76-.1.21.12.12.95-.41 1.92-.4.72 0 .1.37-1.78 1.08-3.82 1.13-.65.02-.26-.49l1.84-2.39q.72-.94-.27-.28M231.43 104.05q.3 0 .56.19.31.22-.06.32-.33.09-.62-.07-.85-.46.12-.44M283.9 104.72q-.62.45-1.03 1.67a1.12 1.12 0 0 1-1.91.36l-1.79-2.11q2.31-1.1 4.73.08"/><ellipse rx="1.01" ry=".45" transform="rotate(-25 334.023 -388.66)"/><path d="M259.16 104.83q1.46 1.98 2.07 4.39a1.87 1.82 17.7 0 0 .4.75q.62.71.29 1.5-.5 1.19-.73-.08-.36-1.99-1.94-3.34-.44-.37-.37-.95.18-1.49-.85-2.54.72.05 1.13.27M278.69 104.74q.47 1.83 1.91 3.19.51.49-.06.89l-.27.2a.65.65 0 0 0 0 1.07q.51.36.29.91-.17.45-.63.27l-3.4-1.4q-.23-.09-.31.14l-.14.37q-.11.3.19.41l.96.33q.58.2.2.69-.69.89-.47 2.05a.56.56 0 0 0 .78.42q.75-.34 1.58-.36.55-.02.5-.57-.02-.15-.07-.29-.3-.88.56-.38l1.15.68a.65.64-38.6 0 0 .55.06q.51-.18.82.2.38.44-.2.5l-.7.06q-.61.05-.41.64l.32.91a.47.47 0 0 0 .88.02q.64-1.62 1.68-2.96 1.37-1.77-.43-3.4-1.35-1.23-2.26.4a.25.25 0 0 1-.26.12q-.19-.04-.27-.19-.25-.47.26-.61l.47-.14q.51-.14.61-.65.45-2.2 2.58-3.16l5.15 1.25q-.68 2.64.71 4.89a.33.32-38.9 0 0 .52.05l3.21-3.52q.9.15 1.26.61.32 2.01 1.86 3.2.38.29.78.03l1.19-.77a.46.46 0 0 1 .7.28l.39 1.63q.08.36.42.5.16.07.33.06.4-.02.51-.41l.35-1.23q1.82 1.31 1.24 3.35-.71-.71-1.15-.71a.42.41-6.8 0 0-.4.5q.3 1.37-.97 1.99a1.07 1.06-82.4 0 0-.36.28l-4.26 5.2q-.95 1.16.54 1.01 1.6-.16 3.94.11.39.04.74.64l-5.49.98-6.27-1.44-4.59-1.97q-.5-.22-.67.3-.27.83.21 1.97-1.61-.02-3.02.48-.56-.48-1.28.09-1.41.54-2.64.14.62-.63.5-1.45-.08-.51-.56-.72l-6.51-2.81a.82.81-69.7 0 0-1.1.51l-.58 1.89q-.2.67.43.96.71.33.79 1.16.07.66-.53.36-.75-.36-1-1.17-.13-.41-.32-.03-.09.18.03.32.28.33.05.7l-.96 1.59-.91.06q.39-1.06.4-1.93.02-.64-.37-.12l-1.64 2.23-1.25.11 2.44-3.52a2.42 2.41 40.2 0 0-.26-3.05q-1.53-1.55-3.15-.38-.1.07-.22.07-.14 0-.23-.11-.16-.21.11-.22.98-.02 1.57-.88a1.07 1.06 50.2 0 0 .09-1.06q-.76-1.58-2.55-2.36-.37-.16-.27-.56l.09-.36q.06-.27.33-.22 1.04.19 1.52 1.02 1.84 3.21 4.32 6.24.35.44.58-.08l.16-.37a.48.47 38.7 0 0-.06-.49l-3.19-4.11a1.27 1.27 0 0 1-.07-1.45l2.62-4.16a.49.48 39.8 0 0-.06-.6l-.2-.22q-.33-.34-.55.08-1.01 1.91-2.41 3.85-.55.77-1.31-.27a1.03 1.02 42.3 0 1-.06-1.11l2.86-5.05q.29-.51.67-.07l1.36 1.55q.46.52.94.02.66-.69 1.48-.12.65.45.42-.3l-.74-2.46q1.29 0 2.67.59.68 1 .12 2.31-.19.44.16.75l.3.26q.68.61.69-.3l.07-3.1zm8.2 3.29q-.83.05-1.34.67-.38.47.22.45.87-.04 1.34-.73.27-.41-.22-.39m1.3 1.54q-.18 1.22.95 1.73a.31.3 14.3 0 0 .43-.25q.07-.95-.67-1.71-.59-.61-.71.23m5.62 4.47q-.76-.1-1.46-.44-.42-.2-.36.27l.3 2.33q.32 2.5 1.74.42 1.3-1.88 2.86-3.45a1.21 1.21 0 0 0-.02-1.72l-1.67-1.62q-.53-.52-1.03.05l-1.29 1.48q-.48.55.24.64.89.11 1.81-.12.44-.11.8.16.85.64-.25 1.53a2.24 2.21-60.4 0 1-1.67.47m-23.85 3q-.37.37-.55.85-.25.68.28.2c2.24-2.02.88-5-.27-7.44q-.05-.11-.17-.07l-.32.11a.3.3 0 0 0-.2.38l1.48 4.98q.17.57-.25.99m17.55-4.52a.41.4-1.7 0 0 .47-.49l-.14-.54q-.12-.5-.59-.29-.38.16-.57.53-.29.57.34.69zm1.35 2.82q-.81.45-.24-.28.74-.95.71-1.91-.02-.84-.57-.2-.84.98-2.09.51a1 1 0 0 0-1.25.48l-2.08 3.97a1.22 1.22 0 0 0 .18 1.38l.31.35q.52.57 1-.03l2.22-2.8q.15-.18.33-.03l.21.19q.25.21.06.47l-1.84 2.66q-.35.5.22.73l3.26 1.31a.97.97 0 0 0 .95-.12q.7-.51.91-1.31.11-.45-.17-.81l-2.83-3.61q-.06-.08.02-.14l.23-.16q.2-.14.35.06 1.03 1.45 2.19 2.38 2.04 1.61 1.22-.85c-.48-1.45-.17-2.19-1.42-3.34a.58.57-53 0 0-.89.13q-.37.63-.99.97m9.64-2.26q-.38.31.08.49.5.19 1.02-.17.4-.27-.04-.48-.55-.25-1.06.16m-22.88 1.27-.03-.33q-.03-.37-.36-.2l-.6.31q-.91.46.19.71.46.11.7.51 1.33 2.27 3 4.39.69.87.43-.21-.77-3.11-3.3-5.12-.03-.02-.03-.06m4.57 2.71q.95.69.77-.47-.11-.76-.47-1.4-.34-.6-.99-.38l-.51.17q-.66.23-.2.76.67.78 1.4 1.32m14.39 3.05.58 1.18q.29.58.73.11l5.1-5.29q1.47-1.53-.65-1.45l-1.52.06q-1.8.07-3.02 1.4-2.18 2.4-4.6 6.74a.34.34 0 0 0 .31.51l2.47-.1q1.6-.07.32-1.03-.29-.22-.6-.4-.47-.27-.42-.8.04-.6.45-1.05a.52.51 52.8 0 1 .85.12m-16.81.37q-.84-1.39-1.9-2.62c-.55-.64-.82-1.43-1.69-1.78q-.62-.25-1.08.24l-1.35 1.45q-.6.64.21 1l5.28 2.31q1.2.53.53-.6m2.15-1.9q-.07.48.29.86a.36.35-67.9 0 0 .61-.26q-.01-.47-.4-.8a.31.31 0 0 0-.5.2m-.3 1.75a.17.17 0 0 0-.26-.12q-.41.29-.38.81a.21.21 0 0 0 .37.12q.31-.35.27-.81m3.49.49a.35.35 0 0 0-.32-.37q-1.09-.09-1.41.87-.4 1.18.89 1.62.69.24.74-.49z"/><path fill="#fff" d="m279.17 104.64 1.79 2.11a1.12 1.12 0 0 0 1.91-.36q.41-1.22 1.03-1.67.64.07 1.2.44-2.13.96-2.58 3.16-.1.51-.61.65l-.47.14q-.51.14-.26.61.08.15.27.19a.25.25 0 0 0 .26-.12q.91-1.63 2.26-.4 1.8 1.63.43 3.4-1.04 1.34-1.68 2.96a.47.47 0 0 1-.88-.02l-.32-.91q-.2-.59.41-.64l.7-.06q.58-.06.2-.5-.31-.38-.82-.2a.65.64-38.6 0 1-.55-.06l-1.15-.68q-.86-.5-.56.38.05.14.07.29.05.55-.5.57-.83.02-1.58.36a.56.56 0 0 1-.78-.42q-.22-1.16.47-2.05.38-.49-.2-.69l-.96-.33q-.3-.11-.19-.41l.14-.37q.08-.23.31-.14l3.4 1.4q.46.18.63-.27.22-.55-.29-.91a.65.65 0 0 1 0-1.07l.27-.2q.57-.4.06-.89-1.44-1.36-1.91-3.19z"/><path d="m265.92 105.1-2.4 2.68a1.06 1.06 0 0 1-1.72-.2q-.59-1.08-.8-2.46zM179.51 105.64a.31.31 0 0 1 .61-.02q.03.14-.05.27-.18.27-.44.06-.15-.12-.12-.31"/><path fill="#fff" d="m274.76 106.07-.07 3.1q-.01.91-.69.3l-.3-.26q-.35-.31-.16-.75.56-1.31-.12-2.31.74-.18 1.34-.08M243.1 106.49a.13.13 0 0 1 .21-.07q.44.41.37 1a.23.23 0 0 1-.42.1q-.3-.48-.16-1.03M294.69 107.83l-3.21 3.52a.33.32-38.9 0 1-.52-.05q-1.39-2.25-.71-4.89z"/><path d="M191.72 110.37q1.18-2.11 3.09-3.59.07-.06.12.02l.14.2q.15.21-.07.34-1.74 1.05-2.25 2.92-.16.59-.62.98-.8.67-1.24 1.55c-1.13 2.28-3.93 4.77-5.77 6.38q-.79.69-.16-.14 1.88-2.48 4.04-4.85 1.52-1.68 2.72-3.81"/><path fill="#afaca2" fill-opacity=".996" d="m176.27 107.94-.06-.14q.22-.51.51-.29 0 .36-.45.43"/><path d="m176.21 107.8.06.14q-.25.42-.61.45.14-.35.55-.59"/><path fill="#fff" d="m251.56 108.74-.23-.5q-.37-.83.46-.45.14.06.29.11.31.11.19.41l-.18.43q-.26.6-.53 0"/><path d="M210.9 110.15q-.67-.67-1.05-1.65-.07-.17.08-.28l.23-.15q.22-.15.39.05l1.61 1.86a1.01 1-22.9 0 0 .83.33l6.01-.52q.34-.03.35.32v.42q.01.1-.09.12l-5.37.67q-.67.08-.31.66.85 1.37 2.36 2.29a.53.52-39.6 0 1-.09.94q-.6.22-.87-.38-.86-1.89-2.8-2.98-.49-.28-1.03-.14l-3.77.98q-.4.1-.59-.26-.08-.14-.01-.26.06-.09.15-.13 1.79-.95 3.72-1.16.9-.09.25-.73"/><path fill="#fff" d="M286.89 108.03q.49-.02.22.39-.47.69-1.34.73-.6.02-.22-.45.51-.62 1.34-.67"/><path d="M176.64 114.05q1.85-3.12 4.43-5.87a.26.26 0 0 1 .38 0l.19.2q.18.19-.02.36-2.29 1.89-4.74 5.46a.14.14 0 0 1-.24-.15"/><path fill="#fff" d="m245.46 133.98-2 1.45-1.89-3.33q-.31-.55.2-.92l2.69-1.99q.11-.08.04-.19l-.21-.35q-.2-.32-.5-.11l-2.69 1.78q-.52.35-.92-.14-3.49-4.27-1.39-9.72.29-.73.88-.22l.88.77q.23.21.48.01l.2-.16q.23-.18.03-.39l-1.58-1.61q-.37-.39-.24-.9l.63-2.49q.17-.65.79-.39.49.21 1.05.25.8.05.21-.48l-1.03-.92q-.38-.35-.2-.83l1.53-4.16q.18-.5.64-.23l6.51 3.9a1.22 1.21-65.3 0 1 .52 1.43l-1.15 3.46q-.23.67-.8.25-.59-.42-1.31-.51-.7-.07-.28.48.54.73 1.35 1.09.48.23.36.75l-.47 1.97q-.27 1.13-.61.02l-.98-3.18q-.09-.29-.39-.26-.14.02-.26.12-.06.05-.06.13.01 2.52 1.58 4.11.34.35.23.81l-1.13 5.11q-.04.18-.17.31-.11.12-.23.17-.16.08-.13.27.4 2.28-.18 4.84m-.273-19.68a1.78.45 73.8 0 0-.065-1.835 1.78.45 73.8 0 0-.929-1.584 1.78.45 73.8 0 0 .065 1.835 1.78.45 73.8 0 0 .929 1.583m.733 2.5q-.55-1.82-2.61-1.48-.55.09-.12.46 1.01.87 2.39 1.34a.26.26 0 0 0 .34-.32m-4 4.91-.21.14q-.16.11-.06.28 1.16 2.04 2.85 3.79 1.06 1.09.42-.29-.95-2.06-2.3-3.81a.51.51 0 0 0-.7-.11M302.48 111.73l-.35 1.23q-.11.39-.51.41-.17.01-.33-.06-.34-.14-.42-.5l-.39-1.63a.46.46 0 0 0-.7-.28l-1.19.77q-.4.26-.78-.03-1.54-1.19-1.86-3.2 3.66 1.07 6.53 3.29"/><path d="M181.88 118.32q2.42-4.11.46-8.77-.11-.25.14-.37l.24-.12q.13-.06.2.06 2.99 4.89-.21 10.02-.03.05-.08.03l-.54-.22q-.47-.19-.21-.63"/><path fill="#fff" d="M288.9 109.34q.74.76.67 1.71a.31.3 14.3 0 1-.43.25q-1.13-.51-.95-1.73.12-.84.71-.23"/><path d="M262.81 109.67q-.19.22-.46.19-.34-.04-.15-.33.22-.31.53-.2.28.1.08.34"/><path fill="#fff" d="M293.81 114.04a2.24 2.21-60.4 0 0 1.67-.47q1.1-.89.25-1.53-.36-.27-.8-.16-.92.23-1.81.12-.72-.09-.24-.64l1.29-1.48q.5-.57 1.03-.05l1.67 1.62a1.21 1.21 0 0 1 .02 1.72q-1.56 1.57-2.86 3.45-1.42 2.08-1.74-.42l-.3-2.33q-.06-.47.36-.27.7.34 1.46.44"/><path d="M175.65 110.25q-.76 1.37-2 2.55-.63.6-.18-.14.88-1.42 1.99-2.55.61-.62.19.14M229.77 111.39a.19.19 0 0 1-.21.16l-1.93-.22a6.12.44 6.5 0 1-6.03-1.13l.02-.18a6.12.44 6.5 0 1 6.13.26l1.93.22a.19.19 0 0 1 .17.21z"/><path fill="#fff" d="m270.21 116.05-1.48-4.98a.3.3 0 0 1 .2-.38l.32-.11q.12-.04.17.07c1.15 2.44 2.51 5.42.27 7.44q-.53.48-.28-.2.18-.48.55-.85.42-.42.25-.99"/><ellipse rx="1.78" ry=".45" transform="rotate(73.8 47.367 219.243)"/><path fill="#fff" d="m287.51 112.52-.49-.1q-.63-.12-.34-.69.19-.37.57-.53.47-.21.59.29l.14.54a.41.4-1.7 0 1-.47.49"/><path d="M166.3 116.86q-.33-.64-.23-1.11l3.44-3.83a.27.27 0 0 1 .32-.06l.39.2q.32.16.08.43zM186.05 112.22q.12-.1.29-.09-.09.06-.22.15-.89.61-.07-.06"/><path fill="#fff" d="M288.86 115.34q.62-.34.99-.97a.58.57-53 0 1 .89-.13c1.25 1.15.94 1.89 1.42 3.34q.82 2.46-1.22.85-1.16-.93-2.19-2.38-.15-.2-.35-.06l-.23.16q-.08.06-.02.14l2.83 3.61q.28.36.17.81-.21.8-.91 1.31a.97.97 0 0 1-.95.12l-3.26-1.31q-.57-.23-.22-.73l1.84-2.66q.19-.26-.06-.47l-.21-.19q-.18-.15-.33.03l-2.22 2.8q-.48.6-1 .03l-.31-.35a1.22 1.22 0 0 1-.18-1.38l2.08-3.97a1 1 0 0 1 1.25-.48q1.25.47 2.09-.51.55-.64.57.2.03.96-.71 1.91-.57.73.24.28M298.5 113.08q.51-.41 1.06-.16.44.21.04.48-.52.36-1.02.17-.46-.18-.08-.49"/><ellipse rx="2.55" ry=".48" transform="rotate(123.7 54.79 103.864)"/><path fill="#fff" d="M275.65 114.41q2.53 2.01 3.3 5.12.26 1.08-.43.21-1.67-2.12-3-4.39-.24-.4-.7-.51-1.1-.25-.19-.71l.6-.31q.33-.17.36.2l.03.33q0 .04.03.06"/><path d="M181.04 131.82c-2.31.14-1.79 2.11-2.71 3.3q-.56-.17-.86-.58l1.18-.73q.51-.32.31-.89-.27-.77-1.07-1.22-.5-.28-.84.19l-1.12 1.57q-.41-.32-.66-.76.45-.41.61-.94t-.37-.65q-.94-.22-1.95-.06-.56-.31-1.12-1.13 3.6-.54 5.25-3.31.29-.48.76-.78 1.96-1.27 3.71-2.99.02-.02.04 0l.18.18q.17.16.01.33-2.42 2.71-4.58 4.45a1.73 1.71 57.4 0 0-.46 2.13q.2.4.52.67.93.81 1.99.18c1.31-.77 1.57-2.27 2.55-3.33q4.41-4.77 9.73-8.8.32-.25.63.02l.4.34q.17.14.26-.07 1.22-2.95 3.88-4.78.59-.41.45.29-.1.44-.49.74a.28.28 0 0 0 .17.51q.18.01.25-.15.2-.45.68-.55 1.33-.3 2.8-.06.6.1.26.61-2.93 4.44-6.03 7.52-.04.05-.1.01l-.21-.19q-.19-.17-.04-.37l4.83-6.38q.58-.77-.33-.43-3.16 1.17-5.55 3.39-.35.32-.81.22-.95-.21-1.44.79a.81.8 43.6 0 0 .02.77q.13.23.13.5-.01.53-.52.41-.33-.08-.35-.39a.31.31 0 0 0-.42-.27q-1.27.45-2.12 1.36-3.48 3.77-7.11 7.39-.59.59-.34 1.94m-4.66-2.4q.13.16.31.06a.19.19 0 0 0 0-.34q-.13-.06-.25 0-.2.1-.06.28M234.85 114.28q.19-.06.26.08.12.27-.16.17-.12-.05-.14-.2a.05.05 0 0 1 .04-.05M228.54 115.23q-4.62-.39-9.09 1.25-.26.1-.29-.18l-.03-.35a.32.31 75.4 0 1 .19-.33q4.61-2.04 9.44-1.18.1.02.09.12l-.02.43q-.02.27-.29.24"/><path fill="#fff" d="m303.72 115.08-.62 8.63-1.3.39q-.35-.6-.74-.64-2.34-.27-3.94-.11-1.49.15-.54-1.01l4.26-5.2a1.07 1.06-82.4 0 1 .36-.28q1.27-.62.97-1.99a.42.41-6.8 0 1 .4-.5q.44 0 1.15.71"/><path d="M230.65 114.59q.15-.07.28.02a.16.16 0 0 1-.02.28q-.13.07-.26.01-.35-.15 0-.31"/><path fill="#fff" d="M280.19 117.06q-.73-.54-1.4-1.32-.46-.53.2-.76l.51-.17q.65-.22.99.38.36.64.47 1.4.18 1.16-.77.47M293.73 119.99q-.41.45-.45 1.05-.05.53.42.8.31.18.6.4 1.28.96-.32 1.03l-2.47.1a.34.34 0 0 1-.31-.51q2.42-4.34 4.6-6.74 1.22-1.33 3.02-1.4l1.52-.06q2.12-.08.65 1.45l-5.1 5.29q-.44.47-.73-.11l-.58-1.18a.52.51 52.8 0 0-.85-.12"/><path d="M245.58 117.12q-1.38-.47-2.39-1.34-.43-.37.12-.46 2.06-.34 2.61 1.48a.26.26 0 0 1-.34.32M214.65 118.59l2.74-2.76q.53-.53.65.21l.1.57a.63.62 71 0 1-.3.63l-2.91 1.72q-1.58.94-.28-.37"/><ellipse rx="2.3" ry=".44" transform="rotate(-41.5 241.927 -170.272)"/><path fill="#fff" d="m277.24 121.08-5.28-2.31q-.81-.36-.21-1l1.35-1.45q.46-.49 1.08-.24c.87.35 1.14 1.14 1.69 1.78q1.06 1.23 1.9 2.62.67 1.13-.53.6M236.09 119.42q0-.49-.11-.99a.45.44 4.9 0 1 .61-.51q.52.21.95.59.6.52.38 1.28-.27.96-.46 2.01-.16.86-.7.17-.11-.14-.29-.16-.42-.04-.14.28.81.93.62 2.18-.13.88-.61.12-.77-1.24-1.28-2.62a.31.31 0 0 1 .3-.42h.26q.55.01.37-.51-.04-.14-.17-.23-.15-.11-.32-.02l-.32.17q-.49.26-.68-.26l-1.35-3.68q-.17-.46.31-.35l.65.14q.21.04.3.23l1.31 2.67q.35.72.37-.09"/><ellipse rx="1.49" ry=".49" transform="rotate(44.1 -36.926 330.901)"/><path fill="#afaca2" fill-opacity=".996" d="M279.92 118.58a.31.31 0 0 1 .5-.2q.39.33.4.8a.36.35-67.9 0 1-.61.26q-.36-.38-.29-.86"/><path d="M168.04 121.77q1.14-2.12 2.84-1.92 1.03.12.2.74l-.41.31q-1.92 1.43.4 2.01 6.42 1.6 9.59-3.09a.61.6-50.4 0 1 .92-.09l.21.2a.4.4 0 0 1 .03.53l-3.09 3.91q-.3.37-.41-.09-.04-.2.06-.36.39-.67-.35-.38-5.57 2.19-9.99-1.77"/><path fill="#fff" d="m278.05 124.65-9.76 1.31.96-1.59q.23-.37-.05-.7-.12-.14-.03-.32.19-.38.32.03.25.81 1 1.17.6.3.53-.36-.08-.83-.79-1.16-.63-.29-.43-.96l.58-1.89a.82.81-69.7 0 1 1.1-.51l6.51 2.81q.48.21.56.72.12.82-.5 1.45M279.62 120.33q.04.46-.27.81a.21.21 0 0 1-.37-.12q-.03-.52.38-.81a.17.17 0 0 1 .26.12M283.11 120.82l-.1 1.63q-.05.73-.74.49-1.29-.44-.89-1.62.32-.96 1.41-.87a.35.35 0 0 1 .32.37"/><path d="M223.81 124.13c-2.12.1-4.72 1.39-6.64 1.11q-.51-.08-.86.31c-.44.49-.57.84-1.19 1.21q-3.55 2.13-6.41 5.56-.09.09-.19.01l-.2-.16q-.38-.29-.09-.67 5.33-6.9 14.3-8.2.7-.1.32-.7l-.64-.99q-.49-.75.32-.37.96.44 1.63 1.24.31.38.78.52.77.23 1.5.16a.41.4 9.3 0 1 .41.57q-.31.71-.11 1.48a.23.23 0 0 1-.27.28c-3.28-.68-6.38 1.78-8.23 4.36a.15.15 0 0 1-.15.05l-.52-.11q-.38-.08-.16-.4 2.41-3.66 6.46-4.92 1.26-.4-.06-.34M242.62 121.82q1.35 1.75 2.3 3.81.64 1.38-.42.29-1.69-1.75-2.85-3.79-.1-.17.06-.28l.21-.14a.51.51 0 0 1 .7.11"/><path fill="#fff" d="m290.04 123.64-5.05.3q-.48-1.14-.21-1.97.17-.52.67-.3z"/><path d="M257.1 125.65q-.74.09-1.01-.09-1.64-1.2-1.4-2.23.12-.57.54-.17 1.17 1.12 1.87 2.49M190.12 123.24q1.22-.27.31.59-.2.18-.49.13-.36-.06-.21-.39.12-.27.39-.33M260.94 125.88q-1.04.2-2.15-.02.18.04.37-.05.35-.19.08-.48-.81-.87-.38-1.94.31-.77.59.01.52 1.46 1.49 2.48"/><path fill="#fff" d="m267.38 126.02-1.61.18 1.64-2.23q.39-.52.37.12-.01.87-.4 1.93"/><path d="m303.1 123.71-.33 1.15-.97-.76z"/><path fill="#fff" d="m301.8 124.1.97.76-.48 2.13a1.11 1.11 0 0 1-1.65.71l-4.33-2.62z"/><path d="M193.49 124.91q-.34-.15-.09-.43t.57-.09a.28.27 34.2 0 1 .08.41q-.21.27-.56.11"/><path fill="#afaca2" fill-opacity=".996" d="M281.97 124.42q-.61.33-1.28.09.72-.57 1.28-.09"/><path d="M187.83 126.99q.44-1.08 1.14-1.78.51-.53.3.18-.27.91-1.08 1.82-.82.92-.36-.22M209.54 125.23q-2.05 3.65-2.47 7.82-.04.41-.42.24l-.35-.16q-.1-.04-.1-.15-.05-4.43 2.87-7.93.09-.11.22-.04l.23.13q.05.03.02.09"/><path fill="#fff" d="M235.09 128.71c-.54-1.1-2.22-2.07-3.23-2.8q-.78-.58.17-.39c1.6.32 3.94 1.07 3.91 3.01q-.03 1.86-.85.18"/><ellipse rx="1.78" ry=".5" transform="rotate(39 -64.929 386.257)"/><path d="m185.45 139.59-.96-.55.51-3.43q.11-.7-.41-.22l-2.55 2.35q-.65-.01-1-.63 4.99-4.53 9.75-8.22 1.23-.95.16.17-1.84 1.94-3.87 3.57a.67.67 0 0 0 .17 1.15l6.76 2.69q1.41.56-.1.68-2.17.16-3.93-1.79-.35-.39-.86-.27-1.07.25-2.05-.31-.73-.42-.88.41z"/><ellipse rx="1.38" ry=".33" transform="rotate(133.7 65.971 104.901)"/><path fill="#fff" d="M176.44 129.14q.12-.06.25 0a.19.19 0 0 1 0 .34q-.18.1-.31-.06-.14-.18.06-.28M237.64 129.24l1.07 1.96q.31.57-.18 1.01l-.68.6q-.66.58-.83-.28-.31-1.49.08-3.22a.29.29 0 0 1 .54-.07M175.27 132.7l-1.71-1.65q1.01-.16 1.95.06.53.12.37.65t-.61.94M177.47 134.54l-1.54-1.08 1.12-1.57q.34-.47.84-.19.8.45 1.07 1.22.2.57-.31.89z"/><path d="M181.04 131.82q.34.08.54.22a.02.02 0 0 1-.02.04zM182.28 132.25l1.49.19q.73.09.14.52-.3.22-.67.21-.81-.03-1.12-.71a.15.15 0 0 1 .16-.21"/><ellipse fill="#fff" rx="1.4" ry=".8" transform="rotate(47 -34.458 342.731)"/><path fill="#fff" d="M241.5 133.79q-.18-.09-.05-.21.16-.16.21.08.04.21-.16.13M241.14 136.96l-4.82 2.26.25-4.5q.02-.47.47-.33 2.21.66 4.1 2.57"/><path d="M210.39 143.85q-1.33.26-2.46 0l-1.52-5.25q-.15-.51-.38-.02-1.59 3.43 1.25 5.18-1.49.45-2.83 0c-.62-1.67-3.03-2.51-4.59-3.32q-.32-.17-.15-.49l.14-.25q.16-.29.46-.14l3.67 1.92q.55.29.58-.33.12-2.48 1.1-4.8 1.44-3.4 1.58.29.11 3.06 1.76 6.43a.29.28-27.4 0 0 .39.12l5.11-2.67q.58-.3.62.35.05.89-.24 1.59-.33.81-.65-.01l-.1-.26q-.06-.16-.23-.11-2 .56-3.51 1.77"/><path fill="#fff" d="m184.49 139.04-2.45-1.3 2.55-2.35q.52-.48.41.22zM234.26 139.3q-.86-.77-1.02-1.65-.08-.42.32-.6l1.42-.63q.58-.27.43.36l-.56 2.33a.36.36 0 0 1-.59.19"/><path d="M196.06 138.27q-.29.02-.55-.09-.84-.34.07-.29 1.64.09 3.18.87.16.08.09.23l-.12.28q-.13.3-.39.12l-1.23-.83q-.48-.32-1.05-.29"/><path fill="#fff" d="M207.93 143.85q-.95.08-.65-.09-2.84-1.75-1.25-5.18.23-.49.38.02z"/><path d="M229.26 141.97q-1.07.94-1.92.53-.53-.47-.68-.9-.21-.57.4-.56 2.3 0 3.95-1.94.46-.54.49.17.01.43-.48.76-1.19.8-1.76 1.94M222.2 143.43q-.66.49-2.21.21 1.69-.87 2.21-.21"/></svg>