<svg xmlns="http://www.w3.org/2000/svg" viewBox="0 0 382 382"><g fill="none" stroke-width="2"><path stroke="#8f8596" d="M272.09 382q.61-12.49-8.53-19.08c-15.2-10.97-34.91.64-33.99 19.08M189.81 382q4.6-9.78-2.55-15.49c-3.79-3.02-9.58-3.56-13.49-.75q-8.53 6.15-3.23 16.24M140.29 307.26l9.51 19.05a.26.26 0 0 0 .46 0l23.4-46.78M195.26 295.66q-8.17 6.08-8.45 14.96-.28 8.55 5.39 14.43c14.14 14.71 38.35.37 32.46-19.18M230.74 302.51l.06 40.46q0 .49.49.49h59.39q.65 0 .65-.64v-59.33q0-.54-.55-.55l-32.26-.04" vector-effect="non-scaling-stroke"/><path stroke="#492959" d="M258.52 282.9q-.2-.19-.48-.06" vector-effect="non-scaling-stroke"/><path stroke="#b9a4c1" d="m141.58 305.58 8.08 16.09q.36.71.71 0l20.2-40.33M258.52 282.9q-.35.1-.79.04" vector-effect="non-scaling-stroke"/><path stroke="#fbfabd" d="m232.68 301.2-.01 39.67a.6.6 0 0 0 .6.6l55.58-.04a.48.48 0 0 0 .48-.48l.02-55.22a.86.86 0 0 0-.86-.86q-15.45.01-31.3 0-.74 0-1.13-.63" vector-effect="non-scaling-stroke"/><path stroke="#c991a9" d="M194.91 298.22q-5.73 5.23-6.11 12.03c-.94 16.96 19.66 25.47 30.74 12.49q5.43-6.36 3.46-16.21" vector-effect="non-scaling-stroke"/><path stroke="#abf1a5" d="M270.11 382q.24-11.26-7.31-17.04c-13.52-10.34-32.66-.19-31.16 17.04" vector-effect="non-scaling-stroke"/><path stroke="#edb1b7" d="M187.14 382q4.64-5.94 1.27-11.34c-7.11-11.36-24.12-.43-15.28 11.34" vector-effect="non-scaling-stroke"/></g><path fill="#1f0a2e" d="M354.86 382h-82.77q.61-12.49-8.53-19.08c-15.2-10.97-34.91.64-33.99 19.08h-39.76q4.6-9.78-2.55-15.49c-3.79-3.02-9.58-3.56-13.49-.75q-8.53 6.15-3.23 16.24h-60.78q1.74-4.7 3.67-9.3 6.66-15.92 8.94-30.31 1.3-8.24 3.26-13.68c2.69-7.48 9.56-15.87 14.66-21.45l9.51 19.05a.26.26 0 0 0 .46 0l23.4-46.78q1.46-1.16 3.56-2.05c7.99-3.37 13.44-5.46 18.85-10.36 2.67-2.42 4.78.99 4.8 3.39q.17 13.69-5.61 25.15-8.17 6.08-8.45 14.96-.28 8.55 5.39 14.43c14.14 14.71 38.35.37 32.46-19.18l6.08-3.36.06 40.46q0 .49.49.49h59.39q.65 0 .65-.64v-59.33q0-.54-.55-.55l-32.26-.04q-.2-.19-.48-.06 12.27-11.42 20.54-16.02 6.64-3.69 9.11-4.4 2.31-.66 6.16-.09.48.07.82.42 4.12 4.17 5.82 9.41 1.42 4.38 4.9 8.27 16.84 18.82 33.1 37.55 11.2 12.91 14.93 28.64 1.31 5.52 1.36 15.38.05 10 .08 20"/><path fill="#fffffe" d="m173.66 279.53-23.4 46.78a.26.26 0 0 1-.46 0l-9.51-19.05 1.29-1.68 8.08 16.09q.36.71.71 0l20.2-40.33q1.18-1.26 3.09-1.81"/><path fill="#724883" d="m170.57 281.34-20.2 40.33q-.35.71-.71 0l-8.08-16.09q13.18-13.31 28.99-24.24M258.04 282.84q.28-.13.48.06-.35.1-.79.04.2-.17.31-.1"/><path fill="#fffffe" d="m230.74 302.51 1.94-1.31-.01 39.67a.6.6 0 0 0 .6.6l55.58-.04a.48.48 0 0 0 .48-.48l.02-55.22a.86.86 0 0 0-.86-.86q-15.45.01-31.3 0-.74 0-1.13-.63l1.67-1.3q.44.06.79-.04l32.26.04q.55.01.55.55v59.33q0 .64-.65.64h-59.39q-.49 0-.49-.49z"/><path fill="#f7f47b" d="M256.06 284.24q.39.63 1.13.63 15.85.01 31.3 0a.86.86 0 0 1 .86.86l-.02 55.22a.48.48 0 0 1-.48.48l-55.58.04a.6.6 0 0 1-.6-.6l.01-39.67q12.4-7.4 23.38-16.96"/><path fill="#fffffe" d="m195.26 295.66-.35 2.56q-5.73 5.23-6.11 12.03c-.94 16.96 19.66 25.47 30.74 12.49q5.43-6.36 3.46-16.21.79-.53 1.66-.66c5.89 19.55-18.32 33.89-32.46 19.18q-5.67-5.88-5.39-14.43.28-8.88 8.45-14.96"/><path fill="#922253" d="M194.91 298.22q-2.11 6.66.24 12.66c1.5 3.85 6.95 2.79 10.08 2.04q9.37-2.24 17.77-6.39 1.97 9.85-3.46 16.21c-11.08 12.98-31.68 4.47-30.74-12.49q.38-6.8 6.11-12.03"/><path fill="#fffffe" d="M272.09 382h-1.98q.24-11.26-7.31-17.04c-13.52-10.34-32.66-.19-31.16 17.04h-2.07c-.92-18.44 18.79-30.05 33.99-19.08q9.14 6.59 8.53 19.08"/><path fill="#56e24c" d="M270.11 382h-38.47c-1.5-17.23 17.64-27.38 31.16-17.04q7.55 5.78 7.31 17.04"/><path fill="#fffffe" d="M189.81 382h-2.67q4.64-5.94 1.27-11.34c-7.11-11.36-24.12-.43-15.28 11.34h-2.59q-5.3-10.09 3.23-16.24c3.91-2.81 9.7-2.27 13.49.75q7.15 5.71 2.55 15.49"/><path fill="#db636f" d="M187.14 382h-14.01c-8.84-11.77 8.17-22.7 15.28-11.34q3.37 5.4-1.27 11.34"/></svg>