<svg xmlns="http://www.w3.org/2000/svg" viewBox="0 0 382 382"><g fill="none" stroke-width="2"><path stroke="#9e89ae" d="m341.25 321.28-29.92.01a.23.23 0 0 0-.2.33l23.99 47.96a.33.33 0 0 0 .59 0l15.33-30.66M223.94 382l-.14-10.53q0-.55-.55-.55l-8.18.02a.62.61-90 0 1-.61-.62l.01-22.48q0-.63-.63-.63l-59.64-.01q-.6 0-.6.61l-.03 34.19M174.24 279c-1.14 11.94 8.96 20.48 20.59 18.48M308.46 350.64a.3.3 0 0 0-.3-.3h-21.18a.3.3 0 0 0-.3.3v21.18a.3.3 0 0 0 .3.3h21.18a.3.3 0 0 0 .3-.3v-21.18" vector-effect="non-scaling-stroke"/><path stroke="#a79da6" d="M200.73 268.9q-2.49-.45-4.04-2.63M195.49 295.74q0-.23-.31-.33-.19-.07-.38-.02c-9.74 2.24-18.88-4.89-18.58-14.94q.04-1.3-.16-2.64" vector-effect="non-scaling-stroke"/><path stroke="#da99c5" d="M342.51 322.75q-.71.57-2.03.55-9.98-.17-25.63.07-.59.01-.33.54l20.62 41.24a.3.3 0 0 0 .54.01q6.94-13.85 13.78-27.63.14-.29.45-.38.38-.1.78.15" vector-effect="non-scaling-stroke"/><path stroke="#d8b8e7" d="m221.81 382-.02-8.54q0-.53-.53-.53h-56.02q-.53 0-.53.53l.01 8.54" vector-effect="non-scaling-stroke"/><path stroke="#efb588" d="m162.59 382 .01-10.71q0-.35.35-.35h49.29a.21.21 0 0 0 .21-.21v-21.16a.37.37 0 0 0-.37-.37H156.2q-.62 0-.62.62l-.01 32.18" vector-effect="non-scaling-stroke"/><path stroke="#8dc7f9" d="M306.445 352.755a.41.41 0 0 0-.41-.41l-16.96.03a.41.41 0 0 0-.41.41l.03 16.96a.41.41 0 0 0 .41.41l16.96-.03a.41.41 0 0 0 .41-.41l-.03-16.96" vector-effect="non-scaling-stroke"/></g><path fill="#3c145d" d="m341.25 321.28-29.92.01a.23.23 0 0 0-.2.33l23.99 47.96a.33.33 0 0 0 .59 0l15.33-30.66q3.65 9.83 3.69 15.33.09 13.88.12 27.75H223.94l-.14-10.53q0-.55-.55-.55l-8.18.02a.62.61-90 0 1-.61-.62l.01-22.48q0-.63-.63-.63l-59.64-.01q-.6 0-.6.61l-.03 34.19h-44.02q6.87-14.9 10.96-30.52c2.49-9.52 2.55-19.71 7.8-28.36 10.92-17.94 28.44-32.43 45.93-44.12-1.14 11.94 8.96 20.48 20.59 18.48-1.29 4.6-2.11 14.96 3.51 16.18q2.32.51 5.85-.25 8.64-1.83 16.05-5.44 19.43-9.46 31.27-19.75 10.57-9.19 18.07-15.15 9.06-7.19 18.2-10.59 1.65-.62 5.89-.24.61.06 1.02.5 3.76 3.97 4.92 7.34 2.29 6.63 6.52 11.29 17.84 19.69 35.12 39.91m-32.79 29.36a.3.3 0 0 0-.3-.3h-21.18a.3.3 0 0 0-.3.3v21.18a.3.3 0 0 0 .3.3h21.18a.3.3 0 0 0 .3-.3z"/><path fill="#fffeff" d="M200.73 268.9q-2.49-.45-4.04-2.63 3.25-.67 4.04 2.63"/><path fill="#4f3c4d" d="M196.69 266.27q1.55 2.18 4.04 2.63.03.11.04.23.79 14.01-5.28 26.61 0-.23-.31-.33-.19-.07-.38-.02c-9.74 2.24-18.88-4.89-18.58-14.94q.04-1.3-.16-2.64 7.86-3.34 12.1-5.39 4.47-2.16 8.53-6.15"/><path fill="#fffeff" d="M176.06 277.81q.2 1.34.16 2.64c-.3 10.05 8.84 17.18 18.58 14.94q.19-.05.38.02.31.1.31.33l-.66 1.74c-11.63 2-21.73-6.54-20.59-18.48q.52-.61 1.82-1.19M341.25 321.28l1.26 1.47q-.71.57-2.03.55-9.98-.17-25.63.07-.59.01-.33.54l20.62 41.24a.3.3 0 0 0 .54.01q6.94-13.85 13.78-27.63.14-.29.45-.38.38-.1.78.15l.35 1.62-15.33 30.66a.33.33 0 0 1-.59 0l-23.99-47.96a.23.23 0 0 1 .2-.33z"/><path fill="#b4338b" d="M350.69 337.3q-.4-.25-.78-.15-.31.09-.45.38-6.84 13.78-13.78 27.63a.3.3 0 0 1-.54-.01l-20.62-41.24q-.26-.53.33-.54 15.65-.24 25.63-.07 1.32.02 2.03-.55 4.96 6.73 8.18 14.55"/><path fill="#fffeff" d="M223.94 382h-2.13l-.02-8.54q0-.53-.53-.53h-56.02q-.53 0-.53.53l.01 8.54h-2.13l.01-10.71q0-.35.35-.35h49.29a.21.21 0 0 0 .21-.21v-21.16a.37.37 0 0 0-.37-.37H156.2q-.62 0-.62.62l-.01 32.18h-2l.03-34.19q0-.61.6-.61l59.64.01q.63 0 .63.63l-.01 22.48a.62.61 90 0 0 .61.62l8.18-.02q.55 0 .55.55z"/><path fill="#df6c11" d="M162.59 382h-7.02l.01-32.18q0-.62.62-.62h55.88a.37.37 0 0 1 .37.37v21.16a.21.21 0 0 1-.21.21h-49.29q-.35 0-.35.35z"/><path fill="#fffeff" d="M308.46 371.82a.3.3 0 0 1-.3.3h-21.18a.3.3 0 0 1-.3-.3v-21.18a.3.3 0 0 1 .3-.3h21.18a.3.3 0 0 1 .3.3zm-2.015-19.065a.41.41 0 0 0-.41-.41l-16.96.03a.41.41 0 0 0-.41.41l.03 16.96a.41.41 0 0 0 .41.41l16.96-.03a.41.41 0 0 0 .41-.41z"/><rect width="17.78" height="17.78" x="-8.89" y="-8.89" fill="#1a90f3" rx=".41" transform="rotate(-.1 207129.736 -170314.383)"/><path fill="#b072cf" d="M221.81 382h-57.09l-.01-8.54q0-.53.53-.53h56.02q.53 0 .53.53z"/></svg>