<svg xmlns="http://www.w3.org/2000/svg" viewBox="0 0 382 382"><g fill="none" stroke-width="2"><path stroke="#b0ac83" d="M336.15 382c.14-12.19-17.29-12.12-17.04 0M164.3 286.13q2.49.19 5.07-.27 13.05-2.32 19.84-13.67M194.76 297.7h-25.72a.22.22 0 0 0-.2.32l26.22 52.43a6.8 6.8 0 0 1 .72 3.05l-.01 25.34q0 .56.57.56h44.42a.41.41 0 0 0 .41-.41l.01-44.4q0-.6-.59-.6h-28.88q-1.11 0-.62-.99l13.48-27M164.47 354.28a19.51 19.51 0 0 0-19.51-19.51 19.51 19.51 0 0 0-19.51 19.51 19.51 19.51 0 0 0 19.51 19.51 19.51 19.51 0 0 0 19.51-19.51M311.18 341.14a.33.33 0 0 0-.29-.48h-15.16a.33.33 0 0 0-.29.48l7.57 15.16a.33.33 0 0 0 .6 0l7.57-15.16" vector-effect="non-scaling-stroke"/><path stroke="#df99b4" d="M166.54 284.27q12.29-1.25 19.77-10.97" vector-effect="non-scaling-stroke"/><path stroke="#f0f4fe" d="m194.39 299.99-21.83-.4a.44.43 77 0 0-.39.63l22.54 45.08q1.13 2.27 1.11-.27l-.08-10.34q0-.66.66-.66l11.39-.09a1.09 1.09 0 0 0 .98-.61q5.52-11.04 11.17-22.38 1-2 1.07-3.44" vector-effect="non-scaling-stroke"/><path stroke="#c28ef8" d="M239.16 336.33a.33.33 0 0 0-.33-.33h-40.72a.33.33 0 0 0-.33.33v40.72a.33.33 0 0 0 .33.33h40.72a.33.33 0 0 0 .33-.33v-40.72" vector-effect="non-scaling-stroke"/><path stroke="#ad8fad" d="M162.47 354.28a17.51 17.51 0 0 0-17.51-17.51 17.51 17.51 0 0 0-17.51 17.51 17.51 17.51 0 0 0 17.51 17.51 17.51 17.51 0 0 0 17.51-17.51" vector-effect="non-scaling-stroke"/><path stroke="#df99b4" d="M307.94 343.12a.32.32 0 0 0-.28-.46l-8.69.01a.32.32 0 0 0-.28.46l4.35 8.7a.32.32 0 0 0 .58 0l4.32-8.71" vector-effect="non-scaling-stroke"/><path stroke="#ad8fad" d="M334.08 382c.5-9.63-13.64-9.34-12.91 0" vector-effect="non-scaling-stroke"/></g><path fill="#605906" d="M354.86 382h-18.71c.14-12.19-17.29-12.12-17.04 0H109.76c4.7-12.08 10.01-24.61 12.03-36.49 1.47-8.61 2.7-16.71 7.55-24.11 9.12-13.93 21.54-25.57 34.96-35.27q2.49.19 5.07-.27 13.05-2.32 19.84-13.67 3.23-1.98 6.31-4.61c2.72-2.33 5.11-.87 5.18 2.39.18 8.14-1.02 15.33-4 22.42q-1.11 2.65-1.94 5.31h-25.72a.22.22 0 0 0-.2.32l26.22 52.43a6.8 6.8 0 0 1 .72 3.05l-.01 25.34q0 .56.57.56h44.42a.41.41 0 0 0 .41-.41l.01-44.4q0-.6-.59-.6h-28.88q-1.11 0-.62-.99l13.48-27q16.44-8.82 24.76-15.91 15.48-13.2 19.68-16.57 9.37-7.54 18.71-11.01 1.71-.63 5.99-.25.38.03.66.29 4.22 3.91 5.48 8.19 1.63 5.51 7.76 12.3 24.29 26.87 33.41 38.15 9.12 11.27 12.35 25.23 1.35 5.84 1.4 15.8.06 9.89.09 19.78m-190.39-27.72a19.51 19.51 0 0 0-19.51-19.51 19.51 19.51 0 0 0-19.51 19.51 19.51 19.51 0 0 0 19.51 19.51 19.51 19.51 0 0 0 19.51-19.51m146.71-13.14a.33.33 0 0 0-.29-.48h-15.16a.33.33 0 0 0-.29.48l7.57 15.16a.33.33 0 0 0 .6 0z"/><path fill="#fff" d="M189.21 272.19q-6.79 11.35-19.84 13.67-2.58.46-5.07.27.82-1.06 2.24-1.86 12.29-1.25 19.77-10.97z"/><path fill="#bf3369" d="M186.31 273.3q-7.48 9.72-19.77 10.97 5.93-4.73 8.89-6.1 5.46-2.52 10.88-4.87"/><path fill="#fff" d="M194.76 297.7q.16 1.29-.37 2.29l-21.83-.4a.44.43 77 0 0-.39.63l22.54 45.08q1.13 2.27 1.11-.27l-.08-10.34q0-.66.66-.66l11.39-.09a1.09 1.09 0 0 0 .98-.61q5.52-11.04 11.17-22.38 1-2 1.07-3.44 1.57-1.03 3.56-1.51l-13.48 27q-.49.99.62.99h28.88q.59 0 .59.6l-.01 44.4a.41.41 0 0 1-.41.41h-44.42q-.57 0-.57-.56l.01-25.34a6.8 6.8 0 0 0-.72-3.05l-26.22-52.43a.22.22 0 0 1 .2-.32zm44.4 38.63a.33.33 0 0 0-.33-.33h-40.72a.33.33 0 0 0-.33.33v40.72a.33.33 0 0 0 .33.33h40.72a.33.33 0 0 0 .33-.33z"/><path fill="#e1e9fd" d="M194.39 299.99q-1.13 5.44.61 10.52c1.54 4.52 7.83 3.17 11.29 2.27q7.53-1.95 14.72-5.27-.07 1.44-1.07 3.44-5.65 11.34-11.17 22.38a1.09 1.09 0 0 1-.98.61l-11.39.09q-.66 0-.66.66l.08 10.34q.02 2.54-1.11.27l-22.54-45.08a.44.43 77 0 1 .39-.63z"/><path fill="#fff" d="M164.47 354.28a19.51 19.51 0 0 1-19.51 19.51 19.51 19.51 0 0 1-19.51-19.51 19.51 19.51 0 0 1 19.51-19.51 19.51 19.51 0 0 1 19.51 19.51m-2 0a17.51 17.51 0 0 0-17.51-17.51 17.51 17.51 0 0 0-17.51 17.51 17.51 17.51 0 0 0 17.51 17.51 17.51 17.51 0 0 0 17.51-17.51"/><rect width="41.38" height="41.38" x="197.78" y="336" fill="#851cf1" rx=".33"/><circle cx="144.96" cy="354.28" r="17.51" fill="#5b1e5a"/><path fill="#fff" d="m311.18 341.14-7.57 15.16a.33.33 0 0 1-.6 0l-7.57-15.16a.33.33 0 0 1 .29-.48h15.16a.33.33 0 0 1 .29.48m-3.24 1.98a.32.32 0 0 0-.28-.46l-8.69.01a.32.32 0 0 0-.28.46l4.35 8.7a.32.32 0 0 0 .58 0z"/><path fill="#bf3369" d="m307.94 343.12-4.32 8.71a.32.32 0 0 1-.58 0l-4.35-8.7a.32.32 0 0 1 .28-.46l8.69-.01a.32.32 0 0 1 .28.46"/><path fill="#fff" d="M336.15 382h-2.07c.5-9.63-13.64-9.34-12.91 0h-2.06c-.25-12.12 17.18-12.19 17.04 0"/><path fill="#5b1e5a" d="M334.08 382h-12.91c-.73-9.34 13.41-9.63 12.91 0"/></svg>