<svg xmlns="http://www.w3.org/2000/svg" viewBox="0 0 382 382"><g fill="none" stroke-width="2"><path stroke="#b48d80" d="M295.95 263.9q2.08 9.37-4.33 15.48c-7.82 7.46-19.41 4.42-24-4.92" vector-effect="non-scaling-stroke"/><path stroke="#c1c7c7" d="M298.63 267.9q-.26 7.02-4.26 11.66-3.8 4.41-10.17 5.61-11.18 2.1-18.2-9.34M200.22 279.29l-26.53-.04M347.37 330.73q-7.55-1.54-12.05 4.14a.75.75 0 0 1-.82.25c-14.7-4.75-27.65 5.77-26.81 21.05q.02.5-.48.5h-34.67q-.51 0-.51.51l-.04 24.82M161.97 382q.47-1.45 1.16-2.86c7.08-14.37-.11-31.27-14.33-37.73q-12.48-5.68-26.43 1.82M136.53 311.62l9.68.19q.47 0 .47.48l.01 26.7a.29.29 0 0 0 .29.29l59.27.01q.42 0 .42-.42v-26.06" vector-effect="non-scaling-stroke"/><path stroke="#90c7ba" d="m200.01 281.24-29.3-.02M204.73 313.05l-.07 23.77a.46.46 0 0 1-.46.46h-54.96q-.55 0-.55-.54v-24.47q0-.54.54-.54h11.3q.6 0 .6-.6l-.01-22.75" vector-effect="non-scaling-stroke"/><path stroke="#b59897" d="m137.94 309.72 20.7-.06q.51 0 .51-.51l.03-19.41" vector-effect="non-scaling-stroke"/><path stroke="#8090ac" d="M349.09 333.91q-7.16-3.8-11.75 1.86-.39.48.14.79 6.72 3.94 9.16 11.38.19.59.74.31 3.58-1.79 4.99-5.88" vector-effect="non-scaling-stroke"/><path stroke="#c1c7c7" d="M353.1 345.5q-1.85 3.19-5.2 4.77-.45.21-.43.7.76 18.33-16.79 22.72-.51.12-.51.65l.02 7.66" vector-effect="non-scaling-stroke"/><path stroke="#85a7f8" d="m328 382-.01-23.06q0-.27-.27-.27h-53.17q-.5 0-.5.5V382" vector-effect="non-scaling-stroke"/><path stroke="#fc9f95" d="m330.02 357.28.03 13.77q0 .74.73.57 8.12-1.95 11.96-8.18c8.64-14.01-4.17-31.31-20.14-26.79-8.48 2.39-13.46 10.18-12.95 19.03q.06.99 1.05.99l18.71-.01q.61 0 .61.62" vector-effect="non-scaling-stroke"/><path stroke="#c3c3cf" d="M159.34 382q6.44-10.18 3.76-20.8c-3.18-12.62-14.69-21.07-27.51-20.1q-7.21.55-13.94 4.91M115.7 382l-3.47-6.65" vector-effect="non-scaling-stroke"/><path stroke="#c1c7c7" d="m113.11 382-1.86-4.08" vector-effect="non-scaling-stroke"/></g><path fill="#681b00" d="M295.95 263.9q2.08 9.37-4.33 15.48c-7.82 7.46-19.41 4.42-24-4.92q8.03-6.73 17.56-11.17 2.89-1.35 5.34-1.41 4.14-.12 5.43 2.02"/><path fill="#fff" d="M295.95 263.9q2.17 2.42 2.68 4-.26 7.02-4.26 11.66-3.8 4.41-10.17 5.61-11.18 2.1-18.2-9.34l1.62-1.37c4.59 9.34 16.18 12.38 24 4.92q6.41-6.11 4.33-15.48"/><path fill="#838f8e" d="m200.22 279.29-26.53-.04c7.58-3.73 16-6.33 22.23-12 2.93-2.67 4.93.85 4.89 3.5q-.08 4.29-.59 8.54M347.37 330.73q-7.55-1.54-12.05 4.14a.75.75 0 0 1-.82.25c-14.7-4.75-27.65 5.77-26.81 21.05q.02.5-.48.5h-34.67q-.51 0-.51.51l-.04 24.82H161.97q.47-1.45 1.16-2.86c7.08-14.37-.11-31.27-14.33-37.73q-12.48-5.68-26.43 1.82 1-10.56 4.79-18.08 3.03-6 9.37-13.53l9.68.19q.47 0 .47.48l.01 26.7a.29.29 0 0 0 .29.29l59.27.01q.42 0 .42-.42v-26.06q8.2-2.25 12.4-4.22 16.62-7.8 29.81-18.21 6.58-5.19 17.12-14.55 7.02 11.44 18.2 9.34 6.37-1.2 10.17-5.61 4-4.64 4.26-11.66.67 1.18 1.97 4.99 1.13 3.29 5.18 7.83 16.82 18.83 33.32 37.94 4.73 5.48 8.27 12.07"/><path fill="#fff" d="m173.69 279.25 26.53.04-.21 1.95-29.3-.02z"/><path fill="#218e75" d="m170.71 281.22 29.3.02q-.32 3.75-1.67 7.38-1.41 3.8-2.88 7.74-2.6 7-.25 14.07 1.06 3.22 4.56 3.18 2.73-.04 4.96-.56l-.07 23.77a.46.46 0 0 1-.46.46h-54.96q-.55 0-.55-.54v-24.47q0-.54.54-.54h11.3q.6 0 .6-.6l-.01-22.75z"/><path fill="#fff" d="m161.12 288.38.01 22.75q0 .6-.6.6h-11.3q-.54 0-.54.54v24.47q0 .54.55.54h54.96a.46.46 0 0 0 .46-.46l.07-23.77 1.94-.24v26.06q0 .42-.42.42l-59.27-.01a.29.29 0 0 1-.29-.29l-.01-26.7q0-.48-.47-.48l-9.68-.19q.49-1.18 1.41-1.9l20.7-.06q.51 0 .51-.51l.03-19.41q.65-.73 1.94-1.36"/><path fill="#6b312f" d="m159.18 289.74-.03 19.41q0 .51-.51.51l-20.7.06q9.62-11.1 21.24-19.98"/><path fill="#fff" d="M347.37 330.73q1.15 1.27 1.72 3.18-7.16-3.8-11.75 1.86-.39.48.14.79 6.72 3.94 9.16 11.38.19.59.74.31 3.58-1.79 4.99-5.88.71 1.42.73 3.13-1.85 3.19-5.2 4.77-.45.21-.43.7.76 18.33-16.79 22.72-.51.12-.51.65l.02 7.66H328l-.01-23.06q0-.27-.27-.27h-53.17q-.5 0-.5.5V382h-2.06l.04-24.82q0-.51.51-.51h34.67q.5 0 .48-.5c-.84-15.28 12.11-25.8 26.81-21.05a.75.75 0 0 0 .82-.25q4.5-5.68 12.05-4.14m-17.35 26.55.03 13.77q0 .74.73.57 8.12-1.95 11.96-8.18c8.64-14.01-4.17-31.31-20.14-26.79-8.48 2.39-13.46 10.18-12.95 19.03q.06.99 1.05.99l18.71-.01q.61 0 .61.62"/><path fill="#012058" d="m349.09 333.91 3.28 8.46q-1.41 4.09-4.99 5.88-.55.28-.74-.31-2.44-7.44-9.16-11.38-.53-.31-.14-.79 4.59-5.66 11.75-1.86"/><path fill="#f83e2b" d="m329.41 356.66-18.71.01q-.99 0-1.05-.99c-.51-8.85 4.47-16.64 12.95-19.03 15.97-4.52 28.78 12.78 20.14 26.79q-3.84 6.23-11.96 8.18-.73.17-.73-.57l-.03-13.77q0-.62-.61-.62"/><path fill="#fff" d="M161.97 382h-2.63q6.44-10.18 3.76-20.8c-3.18-12.62-14.69-21.07-27.51-20.1q-7.21.55-13.94 4.91.28-2.02.72-2.78 13.95-7.5 26.43-1.82c14.22 6.46 21.41 23.36 14.33 37.73q-.69 1.41-1.16 2.86"/><path fill="#87879e" d="M159.34 382H115.7l-3.47-6.65q6.18-14.57 9.42-29.34 6.73-4.36 13.94-4.91c12.82-.97 24.33 7.48 27.51 20.1q2.68 10.62-3.76 20.8"/><path fill="#838f8e" d="M354.86 382h-24.67l-.02-7.66q0-.53.51-.65 17.55-4.39 16.79-22.72-.02-.49.43-.7 3.35-1.58 5.2-4.77 1.61 6.45 1.62 8.75.09 13.88.14 27.75"/><path fill="#0a4ff1" d="M328 382h-53.95v-22.83q0-.5.5-.5h53.17q.27 0 .27.27z"/><path fill="#fff" d="m112.23 375.35 3.47 6.65h-2.59l-1.86-4.08z"/><path fill="#838f8e" d="m111.25 377.92 1.86 4.08h-3.35z"/></svg>