<svg xmlns="http://www.w3.org/2000/svg" viewBox="0 0 382 382"><g fill="none" stroke-width="2"><path stroke="#a0eef7" d="m306.23 281.17-17.54.1q-.51 0-.52-.5l-.45-18.61" vector-effect="non-scaling-stroke"/><path stroke="#aaf096" d="m307.81 283.28-21.22-.01q-.52 0-.52-.52l.01-19.66M347.73 331.38q-17.19-.29-24.27 14.96-.04.09-.04 0 .32-9.69.02-18.95-.02-.59-.62-.59l-33.74-.01q-.63 0-.63.63l-.01 33.85a.58.58 0 0 0 .58.58l33.41-.01a.66.65 80.7 0 1 .62.45q2.2 6.82 7.96 11.37 8.55 6.77 19.77 4.26 2.06-.46 4.1-.95M209.74 361.37a.31.31 0 0 0-.28-.45h-14.82a.31.31 0 0 0-.28.45l7.41 14.83a.31.31 0 0 0 .56 0l7.41-14.83" vector-effect="non-scaling-stroke"/><path stroke="#c4af9f" d="M348.96 333.49q-7.86-.7-13.96 2.7c-13.98 7.8-14.77 27.12-1.98 36.46q9.31 6.79 21.92 2.08" vector-effect="non-scaling-stroke"/><path stroke="#d383ef" d="M321.54 329.17a.38.38 0 0 0-.38-.38h-30.32a.38.38 0 0 0-.38.38v30.32a.38.38 0 0 0 .38.38h30.32a.38.38 0 0 0 .38-.38v-30.32" vector-effect="non-scaling-stroke"/><path stroke="#c4af9f" d="M206.52 363.37a.31.31 0 0 0-.28-.45h-8.38a.31.31 0 0 0-.28.45l4.19 8.38a.31.31 0 0 0 .56 0l4.19-8.38" vector-effect="non-scaling-stroke"/></g><path fill="#40dcef" d="m306.23 281.17-17.54.1q-.51 0-.52-.5l-.45-18.61 6.04-.05q.51-.01.86.35 4.36 4.42 4.96 6.73 1.68 6.46 6.65 11.98"/><path fill="#fffffe" d="m287.72 262.16.45 18.61q.01.5.52.5l17.54-.1q.81.51 1.58 2.11l-21.22-.01q-.52 0-.52-.52l.01-19.66z"/><path fill="#54e12e" d="m286.08 263.09-.01 19.66q0 .52.52.52l21.22.01q18.84 20.61 33.6 38.32 3.32 3.99 6.32 9.78-17.19-.29-24.27 14.96-.04.09-.04 0 .32-9.69.02-18.95-.02-.59-.62-.59l-33.74-.01q-.63 0-.63.63l-.01 33.85a.58.58 0 0 0 .58.58l33.41-.01a.66.65 80.7 0 1 .62.45q2.2 6.82 7.96 11.37 8.55 6.77 19.77 4.26 2.06-.46 4.1-.95l-.1 5.03H109.73q2.48-6.28 4.96-12.53 6.07-15.28 8.62-32.16 1.54-10.21 8.64-19.81c10.73-14.5 23.99-25.84 39.51-36.63 4.78-3.33 9.91-5.19 15.12-7.51q4.99-2.22 9.37-6.14c2.31-2.06 4.67-.05 4.73 2.48q.3 13.25-3.91 22.54c-2.5 5.52-3.46 10.66-2.38 16.71.99 5.6 5.74 5.35 9.99 4.39 6.63-1.49 14.12-4.13 19.9-7.27q17.2-9.35 25.3-16.27 11.32-9.65 19.72-16.5 7.36-6 16.78-10.21m-76.34 98.28a.31.31 0 0 0-.28-.45h-14.82a.31.31 0 0 0-.28.45l7.41 14.83a.31.31 0 0 0 .56 0z"/><path fill="#fffffe" d="M347.73 331.38q.67.6 1.23 2.11-7.86-.7-13.96 2.7c-13.98 7.8-14.77 27.12-1.98 36.46q9.31 6.79 21.92 2.08l-.06 2.24q-2.04.49-4.1.95-11.22 2.51-19.77-4.26-5.76-4.55-7.96-11.37a.66.65 80.7 0 0-.62-.45l-33.41.01a.58.58 0 0 1-.58-.58l.01-33.85q0-.63.63-.63l33.74.01q.6 0 .62.59.3 9.26-.02 18.95 0 .09.04 0 7.08-15.25 24.27-14.96m-26.19-2.21a.38.38 0 0 0-.38-.38h-30.32a.38.38 0 0 0-.38.38v30.32a.38.38 0 0 0 .38.38h30.32a.38.38 0 0 0 .38-.38z"/><rect width="31.08" height="31.08" x="290.46" y="328.79" fill="#a706df" rx=".38"/><path fill="#895e3f" d="M354.94 374.73q-12.61 4.71-21.92-2.08c-12.79-9.34-12-28.66 1.98-36.46q6.1-3.4 13.96-2.7 3.33 6.9 4.94 14.69 1.04 5.02 1.04 13.24z"/><path fill="#fffffe" d="m209.74 361.37-7.41 14.83a.31.31 0 0 1-.56 0l-7.41-14.83a.31.31 0 0 1 .28-.45h14.82a.31.31 0 0 1 .28.45m-3.22 2a.31.31 0 0 0-.28-.45h-8.38a.31.31 0 0 0-.28.45l4.19 8.38a.31.31 0 0 0 .56 0z"/><path fill="#895e3f" d="m206.52 363.37-4.19 8.38a.31.31 0 0 1-.56 0l-4.19-8.38a.31.31 0 0 1 .28-.45h8.38a.31.31 0 0 1 .28.45"/></svg>