<svg xmlns="http://www.w3.org/2000/svg" viewBox="0 0 382 382"><g fill="none" stroke-width="2"><path stroke="#c5b28c" d="M345.74 327.76q-.39.2-.62.61-4 7.31-3.07 15.65 1.47 13.13 12.64 20.13M144.46 357.6h-5.98q-.67 0-.67.67v22.26a.72.71 89.6 0 0 .72.72l22.02-.08a.88.88 0 0 0 .88-.89l-.03-8.53q0-.62.6-.45c8.95 2.51 11.35-11.2 2.02-11.89-.71-.06-1.52.19-2.23.29q-.48.07-.43-.41l.11-1.07q.06-.62-.56-.62l-9.15.01q-.24 0-.13-.22l15.58-31.16a.26.25 13.4 0 0-.23-.37h-37.51q-.64 0-.35.57l15.49 30.94q.11.23-.15.23" vector-effect="non-scaling-stroke"/><path stroke="#a0f8ff" d="M146.82 357.33a.37.37 0 0 0 .31.2l1.87.12a.37.37 0 0 0 .35-.2l14.55-29.08a.37.37 0 0 0-.33-.54l-30.9.01a.37.37 0 0 0-.33.54l14.48 28.95" vector-effect="non-scaling-stroke"/><path stroke="#fbd4ac" d="M159.42 360.04a.43.43 0 0 0-.43-.43h-18.76a.43.43 0 0 0-.43.43v18.76a.43.43 0 0 0 .43.43h18.76a.43.43 0 0 0 .43-.43v-18.76" vector-effect="non-scaling-stroke"/><path stroke="#8dffae" d="m161.45 362.9-.02 5.24a1.46 1.46 0 0 0 1.45 1.47l1.03.01a4.09 3.98.3 0 0 4.11-3.96v-.2a4.09 3.98.3 0 0-4.07-4l-1.03-.01a1.46 1.46 0 0 0-1.47 1.45" vector-effect="non-scaling-stroke"/><path stroke="#918ce9" d="M346.71 329.29c-5.97 12.98-2.69 24.33 8.27 32.89" vector-effect="non-scaling-stroke"/></g><path fill="#8b6519" d="M345.74 327.76q-.39.2-.62.61-4 7.31-3.07 15.65 1.47 13.13 12.64 20.13l.12 17.85H109.74q2.71-6.81 5.36-13.61 5.83-14.95 8.05-30.28 1.59-10.95 8.94-20.81c11.04-14.83 24.68-26.03 39.67-36.69 7.71-5.48 17.17-6.69 24.33-13.56a2.49 2.49 0 0 1 3.55.09q1 1.07 1.03 2.54.31 13.16-3.77 22.21c-2.61 5.81-3.71 11.2-2.43 17.46 1.02 4.96 5.51 4.96 9.42 4.11q9.37-2.06 17.17-5.86 17.72-8.64 30.37-19.36 8.74-7.41 18.16-15.11 8.78-7.19 18.07-10.55 2.24-.81 6.03-.3a1.86 1.85 71.8 0 1 1.06.54q3.58 3.7 4.83 7.23 2.34 6.61 6.56 11.29 16.7 18.52 32.58 36.94 3.86 4.48 7.02 9.48M144.46 357.6h-5.98q-.67 0-.67.67v22.26a.72.71 89.6 0 0 .72.72l22.02-.08a.88.88 0 0 0 .88-.89l-.03-8.53q0-.62.6-.45c8.95 2.51 11.35-11.2 2.02-11.89-.71-.06-1.52.19-2.23.29q-.48.07-.43-.41l.11-1.07q.06-.62-.56-.62l-9.15.01q-.24 0-.13-.22l15.58-31.16a.26.25 13.4 0 0-.23-.37h-37.51q-.64 0-.35.57l15.49 30.94q.11.23-.15.23"/><path fill="#fffffe" d="M144.46 357.6q.26 0 .15-.23l-15.49-30.94q-.29-.57.35-.57h37.51a.26.25 13.4 0 1 .23.37l-15.58 31.16q-.11.22.13.22l9.15-.01q.62 0 .56.62l-.11 1.07q-.05.48.43.41c.71-.1 1.52-.35 2.23-.29 9.33.69 6.93 14.4-2.02 11.89q-.6-.17-.6.45l.03 8.53a.88.88 0 0 1-.88.89l-22.02.08a.72.71 89.6 0 1-.72-.72v-22.26q0-.67.67-.67zm2.36-.27a.37.37 0 0 0 .31.2l1.87.12a.37.37 0 0 0 .35-.2l14.55-29.08a.37.37 0 0 0-.33-.54l-30.9.01a.37.37 0 0 0-.33.54zm12.6 2.71a.43.43 0 0 0-.43-.43h-18.76a.43.43 0 0 0-.43.43v18.76a.43.43 0 0 0 .43.43h18.76a.43.43 0 0 0 .43-.43zm2.03 2.86-.02 5.24a1.46 1.46 0 0 0 1.45 1.47l1.03.01a4.09 3.98.3 0 0 4.11-3.96v-.2a4.09 3.98.3 0 0-4.07-4l-1.03-.01a1.46 1.46 0 0 0-1.47 1.45"/><path fill="#41f0ff" d="m146.82 357.33-14.48-28.95a.37.37 0 0 1 .33-.54l30.9-.01a.37.37 0 0 1 .33.54l-14.55 29.08a.37.37 0 0 1-.35.2l-1.87-.12a.37.37 0 0 1-.31-.2"/><path fill="#fffffe" d="M345.74 327.76q.67.69.97 1.53c-5.97 12.98-2.69 24.33 8.27 32.89q.04.91-.29 1.97-11.17-7-12.64-20.13-.93-8.34 3.07-15.65.23-.41.62-.61"/><path fill="#2218d4" d="M354.98 362.18c-10.96-8.56-14.24-19.91-8.27-32.89q8.9 15.27 8.27 32.89"/><rect width="19.62" height="19.62" x="139.8" y="359.61" fill="#f6a959" rx=".43"/><path fill="#1aff5d" d="M161.45 362.9a1.46 1.46 0 0 1 1.47-1.45l1.03.01a4.09 3.98.3 0 1 4.07 4v.2a4.09 3.98.3 0 1-4.11 3.96l-1.03-.01a1.46 1.46 0 0 1-1.45-1.47z"/></svg>