<svg xmlns="http://www.w3.org/2000/svg" viewBox="0 0 382 382"><g fill="none" stroke-width="2"><path stroke="#abbbef" d="m341.6 321.7-3.33.04q-.58 0-.32.52l16.43 32.86q.06.14.15.15l.25.02M354.78 358.08q-12.99 8.28-13.63 23.92M128.93 382l19.28-38.74q.26-.52.85-.52l9.05-.02q.58 0 .58-.58v-11.2q0-.5-.5-.5h-2.95q-.64 0-.35-.56l2.19-4.36q.35-.7-.43-.7l-29.37-.04M148.83 298.82l9.63 19.27q.35.7.7 0l14.58-29.14a.43.42 13.5 0 0-.38-.61l-11.88-.04M230.23 302.79l7.48 14.99a.2.2 0 0 0 .36 0l13.43-26.83q.24-.46-.24-.68-.75-.34-1.75-.27" vector-effect="non-scaling-stroke"/><path stroke="#f4b792" d="m150.34 297.23 8.19 16.45a.34.34 0 0 0 .61 0l11.4-22.85a.31.31 0 0 0-.27-.45l-11.77.02" vector-effect="non-scaling-stroke"/><path stroke="#f1fab2" d="m231.94 301.7 5.67 11.49a.3.3 0 0 0 .54 0l9.9-19.84q.23-.47-.03-.92l-.65-1.09" vector-effect="non-scaling-stroke"/><path stroke="#abbbef" d="M343.28 323.97q-1.11-.49-1.76-.27-.52.19-.27.68l12.7 25.13M126.68 382l-9.51-19.06" vector-effect="non-scaling-stroke"/><path stroke="#b0d391" d="m117.81 360.45 9.71 18.76a.27.26 44.7 0 0 .47 0l17.6-35.21q.8-1.59.8-3.38l.01-9.59q0-.58.57-.58l4.55.01q.84 0 1.22-.75l1.1-2.2q.37-.72-.44-.72l-27.22-.05" vector-effect="non-scaling-stroke"/><path stroke="#edd2ef" d="M156.674 332.903a.46.46 0 0 0-.461-.46l-7.36.013a.46.46 0 0 0-.46.461l.013 7.36a.46.46 0 0 0 .461.46l7.36-.013a.46.46 0 0 0 .46-.461l-.013-7.36" vector-effect="non-scaling-stroke"/><path stroke="#e68a91" d="M354.91 360.36q-11.31 7.85-11.68 21.64" vector-effect="non-scaling-stroke"/></g><path fill="#5777df" d="m341.6 321.7-3.33.04q-.58 0-.32.52l16.43 32.86q.06.14.15.15l.25.02v2.79q-12.99 8.28-13.63 23.92H128.93l19.28-38.74q.26-.52.85-.52l9.05-.02q.58 0 .58-.58v-11.2q0-.5-.5-.5h-2.95q-.64 0-.35-.56l2.19-4.36q.35-.7-.43-.7l-29.37-.04q8.72-14.58 21.55-25.96l9.63 19.27q.35.7.7 0l14.58-29.14a.43.42 13.5 0 0-.38-.61l-11.88-.04c5.96-4.89 12.36-9.68 19.56-12.52 5.22-2.06 10.35-4.39 14.49-8.28 2.67-2.5 5.16-.47 5.18 2.6q.11 12.9-3.68 21.46c-2.77 6.26-4.21 12.53-2.12 19.14 2.92 9.25 30.51-5 35.32-7.91l7.48 14.99a.2.2 0 0 0 .36 0l13.43-26.83q.24-.46-.24-.68-.75-.34-1.75-.27 14.18-12.27 20.07-16.93 8.95-7.09 18.12-10.56 1.81-.69 5.98-.25a1.79 1.78-18.6 0 1 1.1.54q3.72 3.94 4.84 7.28 2.17 6.48 6.4 11.15 18.02 19.9 35.58 40.47"/><path fill="#fffffe" d="m161.48 288.3 11.88.04a.43.42 13.5 0 1 .38.61l-14.58 29.14q-.35.7-.7 0l-9.63-19.27q.42-.84 1.51-1.59l8.19 16.45a.34.34 0 0 0 .61 0l11.4-22.85a.31.31 0 0 0-.27-.45l-11.77.02q1.32-1.42 2.98-2.1M249.51 290q1-.07 1.75.27.48.22.24.68l-13.43 26.83a.2.2 0 0 1-.36 0l-7.48-14.99 1.71-1.09 5.67 11.49a.3.3 0 0 0 .54 0l9.9-19.84q.23-.47-.03-.92l-.65-1.09q1-.92 2.14-1.34"/><path fill="#e96e25" d="m150.34 297.23 8.16-6.83 11.77-.02a.31.31 0 0 1 .27.45l-11.4 22.85a.34.34 0 0 1-.61 0z"/><path fill="#e2f565" d="m247.37 291.34.65 1.09q.26.45.03.92l-9.9 19.84a.3.3 0 0 1-.54 0l-5.67-11.49z"/><path fill="#fffffe" d="M341.6 321.7q.95.84 1.68 2.27-1.11-.49-1.76-.27-.52.19-.27.68l12.7 25.13q1.17 2.49.83 5.78l-.25-.02q-.09-.01-.15-.15l-16.43-32.86q-.26-.52.32-.52z"/><path fill="#5777df" d="M343.28 323.97q8.4 11.25 10.67 25.54l-12.7-25.13q-.25-.49.27-.68.65-.22 1.76.27"/><path fill="#fffffe" d="M128.93 382h-2.25l-9.51-19.06q-.13-1.21.64-2.49l9.71 18.76a.27.26 44.7 0 0 .47 0l17.6-35.21q.8-1.59.8-3.38l.01-9.59q0-.58.57-.58l4.55.01q.84 0 1.22-.75l1.1-2.2q.37-.72-.44-.72l-27.22-.05 1.1-1.96 29.37.04q.78 0 .43.7l-2.19 4.36q-.29.56.35.56h2.95q.5 0 .5.5v11.2q0 .58-.58.58l-9.05.02q-.59 0-.85.52zm27.744-49.097a.46.46 0 0 0-.461-.46l-7.36.013a.46.46 0 0 0-.46.461l.013 7.36a.46.46 0 0 0 .461.46l7.36-.013a.46.46 0 0 0 .46-.461z"/><path fill="#60a723" d="m126.18 326.74 27.22.05q.81 0 .44.72l-1.1 2.2q-.38.75-1.22.75l-4.55-.01q-.57 0-.57.58l-.01 9.59q0 1.79-.8 3.38l-17.6 35.21a.27.26 44.7 0 1-.47 0l-9.71-18.76c1.52-4.97 2.97-9.97 3.88-15.07q.97-5.45 2-10.7c.54-2.72 1.55-5.35 2.49-7.94"/><rect width="8.28" height="8.28" x="-4.14" y="-4.14" fill="#dba4df" rx=".46" transform="rotate(-.1 192928.085 -87230.665)"/><path fill="#fffffe" d="m354.78 358.08.13 2.28q-11.31 7.85-11.68 21.64h-2.08q.64-15.64 13.63-23.92"/><path fill="#cc1423" d="m354.91 360.36.08 21.64h-11.76q.37-13.79 11.68-21.64"/><path fill="#5777df" d="M126.68 382h-17.01l7.5-19.06z"/></svg>