<?xml version="1.0" encoding="UTF-8" standalone="no"?>
<!DOCTYPE svg PUBLIC "-//W3C//DTD SVG 1.1//EN" "http://www.w3.org/Graphics/SVG/1.1/DTD/svg11.dtd">
<svg xmlns="http://www.w3.org/2000/svg" version="1.1" viewBox="0.00 0.00 1592.00 1592.00" width="1592.00" height="1592.00">
<g stroke-width="2.00" fill="none" stroke-linecap="butt">
<path stroke="#3c1177" vector-effect="non-scaling-stroke" d="
  M 578.08 1286.98
  Q 579.41 1288.07 578.97 1289.82
  Q 578.55 1291.52 580.30 1291.53
  L 585.91 1291.56
  Q 587.50 1291.57 587.49 1289.92
  L 587.47 1279.51
  Q 587.47 1278.91 588.02 1278.92
  L 590.91 1279.00
  Q 591.56 1279.01 591.57 1279.65
  L 591.57 1282.52
  Q 591.57 1283.23 592.27 1283.22
  L 595.12 1283.20
  A 0.66 0.64 89.7 0 1 595.76 1283.86
  L 595.81 1295.24
  Q 595.81 1295.69 596.24 1295.69
  L 599.29 1295.70
  A 0.61 0.61 0.0 0 1 599.89 1296.28
  L 600.05 1299.52
  Q 600.08 1300.08 600.66 1300.02
  Q 602.28 1299.84 603.45 1300.13
  A 0.70 0.66 -84.6 0 1 603.95 1300.78
  L 604.17 1307.26
  Q 604.20 1308.18 605.09 1308.17
  L 611.61 1308.12
  Q 612.19 1308.12 612.33 1307.56
  Q 612.61 1306.32 612.41 1304.81
  Q 612.33 1304.21 611.73 1304.16
  L 608.93 1303.91
  Q 608.05 1303.83 608.10 1303.05
  L 608.21 1300.96
  Q 608.25 1300.17 609.08 1300.10
  L 611.81 1299.85
  A 0.68 0.67 89.0 0 0 612.43 1299.21
  L 612.58 1296.47
  Q 612.61 1295.90 613.16 1295.87
  L 619.76 1295.56
  Q 620.24 1295.53 620.45 1295.10
  Q 621.04 1293.87 620.30 1292.34
  Q 620.06 1291.84 619.48 1291.75
  L 617.31 1291.40
  A 0.83 0.78 -3.7 0 1 616.66 1290.87
  Q 616.17 1289.36 616.82 1288.11
  Q 617.06 1287.65 617.59 1287.62
  L 624.19 1287.36
  A 0.71 0.68 -4.8 0 1 624.92 1287.95
  L 625.29 1290.72
  Q 625.37 1291.32 625.96 1291.39
  Q 627.55 1291.58 628.46 1291.36
  A 0.68 0.67 83.0 0 0 628.97 1290.70
  L 628.96 1279.50
  Q 628.96 1278.95 629.50 1278.95
  L 637.02 1278.96
  Q 637.50 1278.96 637.50 1278.48
  L 637.46 1263.00
  Q 637.46 1262.55 636.98 1262.55
  L 633.76 1262.54
  Q 633.32 1262.53 633.32 1263.01
  L 633.36 1269.76
  Q 633.37 1270.87 632.27 1270.86
  L 626.16 1270.81
  Q 624.92 1270.80 624.94 1269.67
  L 624.99 1267.16
  Q 625.00 1266.59 624.40 1266.59
  L 617.35 1266.56
  Q 616.40 1266.56 616.40 1265.62
  L 616.42 1263.35
  Q 616.43 1262.43 617.35 1262.41
  L 620.16 1262.35
  Q 620.68 1262.34 620.68 1261.82
  L 620.81 1250.65
  Q 620.81 1250.18 620.27 1250.16
  L 614.19 1249.90"
/>
<path stroke="#3c1177" vector-effect="non-scaling-stroke" d="
  M 645.77 1222.15
  L 645.82 1228.51
  Q 645.82 1229.01 646.32 1229.01
  L 653.32 1229.00
  A 0.77 0.77 0.0 0 0 654.08 1228.19
  L 653.96 1225.76
  A 0.72 0.72 0.0 0 0 653.26 1225.08
  L 650.60 1225.02
  Q 649.94 1225.00 649.94 1224.35
  L 649.98 1221.35
  Q 649.99 1220.68 650.65 1220.68
  L 662.03 1220.76
  Q 662.58 1220.76 662.56 1221.28
  L 662.43 1224.14
  Q 662.39 1225.01 663.37 1225.01
  L 669.78 1225.02
  Q 670.79 1225.03 670.78 1224.00
  L 670.78 1213.02
  Q 670.78 1212.56 671.22 1212.56
  L 674.46 1212.53
  Q 674.96 1212.53 674.97 1212.05
  L 675.04 1208.69
  Q 675.05 1208.21 675.53 1208.22
  L 678.47 1208.27
  Q 678.98 1208.28 678.98 1207.77
  L 679.02 1204.50
  Q 679.02 1203.99 678.51 1204.00
  L 675.50 1204.03
  Q 674.96 1204.04 674.97 1203.50
  L 675.05 1200.32
  Q 675.06 1199.90 675.48 1199.90
  L 682.29 1199.97
  Q 683.28 1199.98 683.28 1201.03
  L 683.27 1207.41
  Q 683.27 1208.36 682.39 1208.31
  L 679.86 1208.15
  Q 678.99 1208.09 678.99 1209.04
  L 678.97 1215.65
  Q 678.97 1216.51 679.87 1216.52
  L 682.77 1216.54
  Q 683.24 1216.55 683.24 1217.00
  L 683.23 1220.11
  Q 683.23 1220.78 683.87 1220.76
  L 686.52 1220.68
  Q 687.56 1220.65 687.55 1221.77
  L 687.51 1228.21
  Q 687.50 1228.91 686.80 1228.93
  L 679.65 1229.06
  Q 679.13 1229.07 679.09 1229.59
  L 678.86 1232.71
  Q 678.82 1233.26 678.28 1233.26
  L 675.64 1233.26
  Q 675.08 1233.26 675.07 1233.84
  L 674.85 1240.84
  Q 674.83 1241.53 674.14 1241.52
  L 671.76 1241.49
  Q 670.88 1241.48 670.87 1242.41
  L 670.77 1248.91
  Q 670.76 1249.87 671.66 1249.95
  L 674.35 1250.18
  Q 674.95 1250.23 674.97 1250.90
  L 675.04 1253.41
  Q 675.06 1253.94 674.53 1253.96
  L 671.21 1254.05
  Q 670.74 1254.06 670.75 1254.53
  L 670.80 1257.76
  Q 670.81 1258.22 671.26 1258.22
  L 678.48 1258.25
  Q 678.95 1258.25 678.96 1258.73
  L 679.02 1262.00
  Q 679.03 1262.49 679.51 1262.49
  L 682.74 1262.48
  Q 683.25 1262.48 683.26 1262.99
  L 683.30 1265.99
  Q 683.30 1266.55 682.76 1266.54
  L 679.64 1266.49
  Q 679.02 1266.47 679.02 1267.09
  L 679.03 1270.11
  Q 679.04 1270.73 679.64 1270.72
  L 686.97 1270.71
  Q 687.43 1270.71 687.42 1270.26
  L 687.38 1263.13
  Q 687.37 1262.38 688.11 1262.39
  L 690.77 1262.45
  Q 691.51 1262.46 691.55 1263.21
  Q 691.64 1265.00 691.59 1265.52
  Q 691.46 1266.81 694.78 1266.40
  Q 695.75 1266.28 695.79 1267.27
  L 695.88 1269.88
  Q 695.92 1270.83 694.98 1270.82
  L 692.25 1270.79
  Q 691.54 1270.78 691.54 1271.51
  L 691.51 1274.04
  Q 691.50 1274.78 692.24 1274.84
  L 695.01 1275.06
  Q 695.59 1275.11 695.67 1275.69
  Q 696.09 1278.66 695.43 1282.58
  Q 695.34 1283.13 694.79 1283.23
  L 692.53 1283.64
  A 0.92 0.92 0.0 0 0 691.82 1284.27
  L 691.21 1286.14
  Q 691.06 1286.60 690.60 1286.72
  L 684.25 1288.40
  A 1.00 0.94 -0.2 0 0 683.56 1289.06
  Q 682.91 1291.32 680.33 1291.66
  A 0.82 0.82 0.0 0 0 679.64 1292.31
  Q 678.57 1297.45 679.17 1303.21
  Q 679.23 1303.77 679.79 1303.86
  L 682.58 1304.32
  A 0.74 0.73 -88.7 0 1 683.19 1304.96
  L 683.51 1307.73
  Q 683.56 1308.15 683.97 1308.18
  L 686.71 1308.32
  A 0.73 0.69 -0.7 0 1 687.40 1308.96
  L 687.96 1315.49
  Q 688.04 1316.43 689.01 1316.43
  L 690.28 1316.44
  Q 691.24 1316.44 691.27 1315.49
  L 691.37 1313.10
  Q 691.39 1312.47 692.03 1312.47
  L 699.06 1312.45
  Q 699.84 1312.44 699.89 1313.27
  L 700.01 1315.41
  Q 700.07 1316.44 699.07 1316.51
  L 696.45 1316.69
  Q 695.82 1316.73 695.82 1317.35
  L 695.77 1324.18
  Q 695.77 1324.79 696.39 1324.84
  L 698.82 1325.05
  Q 700.00 1325.16 700.03 1326.35
  L 700.06 1327.79
  A 1.16 1.13 -0.9 0 1 698.91 1328.95
  L 688.23 1329.07
  Q 687.66 1329.07 687.67 1329.66
  Q 687.75 1333.27 686.96 1336.81
  Q 686.84 1337.34 686.32 1337.45
  Q 683.93 1337.96 683.07 1340.25
  Q 682.88 1340.73 682.36 1340.94
  L 679.94 1341.89
  A 1.03 0.99 -0.4 0 0 679.37 1342.45
  Q 678.86 1343.69 679.23 1345.00
  A 0.73 0.73 0.0 0 0 679.97 1345.53
  Q 683.40 1345.34 683.57 1348.77
  Q 683.61 1349.47 684.33 1349.69
  L 686.84 1350.44
  A 0.85 0.82 4.2 0 1 687.44 1351.10
  L 687.76 1353.07
  Q 687.84 1353.56 688.32 1353.70
  L 690.62 1354.33
  Q 691.14 1354.48 691.21 1355.01
  L 691.96 1361.27
  Q 692.10 1362.44 693.33 1362.35
  Q 695.43 1362.20 695.67 1363.44
  Q 695.98 1365.09 696.04 1365.57
  Q 696.15 1366.41 696.99 1366.46
  L 699.01 1366.57
  A 0.88 0.86 -87.5 0 0 699.92 1365.72
  L 700.10 1359.59
  A 1.43 1.36 89.2 0 1 701.37 1358.20
  L 702.92 1358.11
  Q 703.53 1358.07 703.64 1357.49
  L 704.18 1354.76
  Q 704.30 1354.19 704.85 1354.08
  Q 706.31 1353.80 707.71 1354.20
  Q 708.23 1354.35 708.23 1354.93
  L 708.21 1361.75
  Q 708.20 1362.47 707.49 1362.51
  L 704.74 1362.64
  Q 704.03 1362.68 704.01 1363.38
  L 703.96 1365.69
  Q 703.94 1366.47 704.70 1366.46
  L 707.53 1366.46
  Q 708.16 1366.46 708.18 1367.08
  L 708.25 1369.96
  Q 708.27 1370.58 708.87 1370.61
  L 711.64 1370.76
  Q 712.14 1370.78 712.28 1371.27
  Q 712.67 1372.68 712.57 1374.23
  Q 712.53 1374.84 711.89 1374.87
  L 704.57 1375.17
  Q 704.07 1375.19 704.04 1375.69
  L 703.91 1378.35
  Q 703.88 1378.90 703.34 1378.93
  L 700.69 1379.06
  Q 700.17 1379.08 700.18 1379.65
  Q 700.24 1383.43 699.38 1386.48
  A 0.90 0.90 0.0 0 1 698.74 1387.10
  Q 696.42 1387.71 695.53 1389.69
  C 695.00 1390.88 693.85 1391.71 692.98 1392.32
  Q 692.55 1392.61 692.45 1393.12
  Q 690.67 1401.64 692.15 1411.08
  A 1.73 1.73 0.0 0 0 693.48 1412.50
  Q 695.42 1412.93 695.97 1414.98
  Q 696.10 1415.47 696.53 1415.74
  Q 697.57 1416.39 698.94 1416.03
  Q 699.39 1415.91 699.58 1415.43
  L 700.37 1413.39
  Q 700.57 1412.89 701.02 1412.87
  L 707.16 1412.64
  A 1.18 1.18 0.0 0 1 708.38 1413.73
  Q 708.46 1414.93 708.94 1415.66
  A 1.28 1.28 0.0 0 0 709.71 1416.21
  C 712.50 1416.90 711.77 1418.18 713.35 1419.82
  Q 713.70 1420.19 714.20 1420.31
  Q 716.66 1420.92 716.89 1423.47
  A 1.17 1.17 0.0 0 0 717.90 1424.52
  Q 723.40 1425.27 728.38 1424.93
  Q 729.03 1424.88 729.01 1424.21
  L 728.95 1421.55
  A 0.69 0.67 1.2 0 0 728.31 1420.89
  L 725.47 1420.72
  Q 724.96 1420.68 724.96 1420.20
  L 725.05 1408.84
  Q 725.05 1408.25 725.63 1408.24
  L 728.51 1408.21
  Q 728.95 1408.21 728.95 1407.75
  L 728.98 1396.27
  Q 728.98 1395.62 729.63 1395.62
  L 732.63 1395.61
  A 0.75 0.71 90.0 0 1 733.34 1396.36
  L 733.31 1407.62
  Q 733.31 1408.19 733.88 1408.21
  L 737.02 1408.30
  Q 737.49 1408.31 737.49 1408.77
  L 737.50 1411.27
  A 1.27 1.23 -0.3 0 0 738.79 1412.50
  L 744.74 1412.47
  A 1.02 0.99 0.4 0 1 745.77 1413.48
  L 745.73 1415.37
  Q 745.71 1416.50 744.61 1416.57
  L 742.22 1416.72
  Q 741.67 1416.76 741.67 1417.29
  L 741.72 1428.23
  Q 741.72 1428.85 742.33 1428.90
  L 744.83 1429.10
  Q 745.84 1429.18 745.81 1430.23
  L 745.75 1432.27
  Q 745.72 1433.24 744.75 1433.25
  L 742.20 1433.29
  Q 741.66 1433.30 741.67 1433.82
  L 741.78 1440.60
  Q 741.79 1441.18 742.37 1441.25
  L 744.84 1441.51
  Q 745.66 1441.60 745.69 1442.45
  L 745.90 1448.89
  A 0.98 0.97 -2.4 0 1 744.96 1449.89
  L 738.30 1450.22
  Q 737.71 1450.25 737.59 1450.82
  Q 737.38 1451.79 737.54 1452.98
  Q 737.62 1453.56 738.16 1453.70
  L 740.67 1454.35
  Q 741.22 1454.49 741.34 1455.07
  L 741.86 1457.39
  A 0.80 0.75 87.0 0 0 742.50 1458.00
  L 744.72 1458.30
  A 1.18 1.16 89.8 0 1 745.72 1459.31
  Q 745.89 1460.60 745.63 1461.61
  Q 745.51 1462.06 745.07 1462.21
  L 742.74 1462.99
  Q 742.12 1463.19 741.90 1463.71
  Q 740.97 1465.89 738.71 1467.00
  A 1.19 1.19 0.0 0 0 738.09 1467.77
  Q 737.32 1470.67 737.87 1473.97
  A 0.90 0.82 6.1 0 0 738.45 1474.63
  L 740.79 1475.45
  Q 741.35 1475.64 741.42 1476.20
  L 741.68 1478.09
  A 0.76 0.72 1.0 0 0 742.31 1478.71
  L 745.21 1479.16
  Q 745.67 1479.23 745.72 1479.71
  L 745.97 1482.23
  Q 746.06 1483.14 746.99 1483.17
  L 748.97 1483.23
  Q 749.94 1483.27 749.95 1482.27
  L 750.00 1476.27
  Q 750.01 1475.07 751.34 1475.03
  L 752.68 1475.00
  Q 754.00 1474.97 754.00 1476.25
  L 753.92 1495.23
  A 0.64 0.64 0.0 0 1 753.27 1495.87
  L 750.77 1495.80
  Q 750.08 1495.78 750.07 1496.48
  L 750.06 1498.95
  A 0.79 0.77 -85.7 0 0 750.71 1499.73
  L 753.14 1500.09
  A 0.86 0.82 -87.4 0 1 753.84 1500.89
  L 754.15 1507.32
  Q 754.20 1508.22 755.10 1508.20
  L 760.98 1508.09
  Q 762.16 1508.06 762.21 1506.88
  Q 762.42 1502.03 763.53 1496.70
  Q 763.65 1496.15 764.17 1495.96
  Q 766.13 1495.22 766.54 1492.87
  Q 766.63 1492.35 767.21 1492.02
  L 769.23 1490.87
  Q 769.73 1490.58 769.88 1490.13
  Q 770.76 1487.51 770.87 1484.82
  Q 770.93 1483.48 771.46 1483.29
  Q 772.18 1483.05 773.47 1483.20
  Q 774.82 1483.36 774.95 1481.98
  L 775.10 1480.48
  Q 775.23 1479.05 773.75 1479.04
  L 767.27 1478.99
  A 0.91 0.90 -87.9 0 1 766.38 1478.02
  L 766.51 1476.05
  Q 766.56 1475.14 767.45 1475.06
  L 769.99 1474.82
  A 0.74 0.73 -87.6 0 0 770.65 1474.21
  Q 770.88 1472.84 770.48 1471.66
  Q 770.31 1471.13 769.75 1471.06
  L 767.07 1470.71
  Q 766.57 1470.65 766.47 1470.15
  Q 766.17 1468.66 766.64 1467.25
  Q 766.81 1466.74 767.34 1466.68
  Q 772.93 1466.01 778.23 1466.23
  A 0.66 0.62 -85.9 0 0 778.88 1465.63
  L 779.12 1463.17
  Q 779.17 1462.70 779.67 1462.67
  L 786.74 1462.34
  A 0.71 0.70 88.7 0 0 787.41 1461.63
  L 787.43 1451.31
  Q 787.43 1450.71 786.91 1450.45
  Q 785.64 1449.83 784.13 1450.10
  A 0.85 0.85 0.0 0 1 783.14 1449.24
  L 783.19 1446.47
  A 0.81 0.80 0.6 0 1 784.00 1445.68
  L 795.22 1445.74
  Q 795.71 1445.74 795.73 1446.22
  L 795.84 1448.84
  Q 795.89 1450.04 797.12 1450.04
  L 798.74 1450.05
  Q 799.84 1450.05 799.90 1448.97
  L 800.08 1446.22
  Q 800.12 1445.59 800.76 1445.61
  L 803.10 1445.69
  Q 803.75 1445.71 803.81 1446.35
  L 804.08 1449.05
  Q 804.19 1450.14 805.30 1450.09
  L 807.27 1450.01
  A 1.04 1.04 0.0 0 0 808.27 1448.95
  L 807.96 1438.19
  A 0.69 0.63 0.1 0 0 807.29 1437.58
  L 804.74 1437.52
  Q 804.16 1437.50 804.15 1436.98
  L 803.92 1429.98
  A 0.97 0.94 0.3 0 0 802.99 1429.06
  L 800.95 1428.98
  Q 799.96 1428.94 799.98 1427.95
  L 800.04 1425.86
  Q 800.07 1424.98 800.95 1424.97
  L 803.24 1424.96
  A 0.63 0.62 -86.9 0 0 803.85 1424.40
  L 804.20 1421.37
  Q 804.27 1420.74 804.86 1420.72
  L 807.38 1420.61
  Q 807.93 1420.59 808.06 1420.06
  Q 808.29 1419.13 807.87 1417.38
  Q 807.75 1416.88 807.24 1416.83
  L 804.72 1416.58
  Q 804.14 1416.53 804.11 1415.91
  L 803.80 1408.98
  A 0.59 0.59 0.0 0 0 803.23 1408.42
  L 800.70 1408.32
  Q 800.11 1408.30 800.08 1407.71
  L 799.91 1404.92
  Q 799.85 1404.01 798.92 1404.02
  L 796.58 1404.04
  Q 795.87 1404.04 795.87 1404.74
  L 795.82 1415.49
  A 1.07 1.06 -0.3 0 1 794.76 1416.54
  L 792.59 1416.58
  Q 791.58 1416.59 791.49 1415.62
  L 791.27 1413.30
  Q 791.23 1412.82 790.75 1412.66
  Q 790.40 1412.53 789.79 1412.56
  Q 788.47 1412.60 788.29 1412.69
  Q 787.34 1413.14 787.59 1415.57
  Q 787.70 1416.54 786.67 1416.56
  L 784.27 1416.60
  A 1.03 1.00 86.9 0 1 783.25 1415.66
  Q 782.95 1412.29 783.31 1408.91
  A 0.75 0.75 0.0 0 1 783.99 1408.24
  L 786.19 1408.06
  Q 787.43 1407.96 787.60 1406.68
  Q 788.00 1403.60 784.99 1404.00
  Q 783.07 1404.25 783.12 1402.44
  L 783.17 1400.76
  Q 783.19 1400.18 782.56 1400.14
  L 779.95 1400.00
  Q 778.99 1399.95 778.99 1398.96
  L 779.00 1392.53
  Q 779.00 1391.54 779.95 1391.51
  L 786.36 1391.31
  A 1.10 1.07 89.1 0 0 787.40 1390.22
  L 787.35 1371.34
  Q 787.34 1370.77 787.92 1370.77
  L 790.73 1370.78
  Q 791.50 1370.79 791.54 1371.51
  L 791.67 1373.73
  A 1.14 1.14 0.0 0 0 792.67 1374.79
  L 795.07 1375.09
  Q 795.67 1375.16 795.73 1375.82
  L 795.91 1377.85
  A 1.24 1.23 89.3 0 0 797.05 1378.97
  L 798.91 1379.10
  A 1.08 1.05 1.9 0 0 800.05 1378.04
  L 799.99 1355.26
  Q 799.98 1353.98 801.25 1354.01
  L 802.40 1354.03
  Q 803.81 1354.06 803.90 1355.46
  L 804.27 1361.75
  A 0.66 0.65 0.5 0 0 804.88 1362.36
  L 807.20 1362.54
  Q 807.81 1362.58 807.97 1363.21
  L 808.58 1365.69
  Q 808.70 1366.17 809.16 1366.28
  Q 810.50 1366.61 811.64 1366.29
  Q 812.15 1366.15 812.21 1365.57
  L 812.94 1358.95
  A 0.67 0.65 88.8 0 1 813.48 1358.36
  L 814.92 1358.13
  A 1.52 1.38 88.2 0 0 816.09 1356.76
  L 816.54 1350.97
  Q 816.59 1350.24 817.47 1350.10
  L 819.91 1349.72
  Q 820.51 1349.62 820.61 1348.69
  Q 820.97 1345.50 818.21 1345.78
  A 1.60 1.60 0.0 0 1 816.45 1344.18
  Q 816.47 1341.67 814.24 1341.54
  A 1.75 1.75 0.0 0 1 812.70 1339.21
  Q 813.26 1337.64 814.98 1337.17
  Q 815.48 1337.04 815.71 1336.58
  Q 816.53 1334.96 816.54 1333.24
  Q 816.54 1333.00 816.79 1333.02
  L 820.31 1333.32
  Q 820.58 1333.34 820.65 1333.64
  L 821.35 1336.70
  A 0.77 0.76 -4.9 0 0 822.06 1337.29
  L 824.07 1337.38
  Q 824.65 1337.41 824.77 1338.03
  L 825.34 1340.84
  Q 825.43 1341.32 825.92 1341.35
  L 828.23 1341.46
  Q 828.72 1341.48 828.79 1341.98
  L 829.20 1344.90
  Q 829.28 1345.50 829.89 1345.51
  L 836.80 1345.65
  A 0.90 0.89 -89.4 0 1 837.67 1346.55
  L 837.67 1353.37
  Q 837.67 1354.07 838.37 1354.07
  L 840.65 1354.06
  Q 841.35 1354.06 841.36 1353.36
  L 841.68 1333.77
  A 0.56 0.55 0.3 0 1 842.24 1333.23
  L 845.02 1333.21
  A 0.72 0.70 -0.2 0 0 845.73 1332.51
  L 845.73 1329.80
  A 0.66 0.65 -88.7 0 0 845.12 1329.13
  L 842.01 1328.99
  A 0.69 0.66 -88.1 0 1 841.38 1328.29
  L 841.43 1325.73
  Q 841.45 1324.96 842.24 1324.96
  L 849.46 1324.97
  Q 849.93 1324.97 849.93 1324.49
  L 849.95 1305.89"
/>
<path stroke="#3c1177" vector-effect="non-scaling-stroke" d="
  M 883.43 1296.73
  L 883.26 1299.46
  Q 883.22 1300.00 882.69 1300.00
  L 879.73 1299.99
  Q 878.97 1299.98 878.98 1300.72
  L 879.02 1303.29
  Q 879.03 1304.03 879.76 1304.03
  L 882.62 1304.02
  Q 883.19 1304.02 883.21 1304.61
  L 883.27 1307.50
  Q 883.28 1308.23 884.01 1308.23
  L 886.73 1308.22
  Q 887.43 1308.22 887.43 1307.51
  L 887.44 1300.54
  A 0.53 0.53 0.0 0 1 887.97 1300.01
  L 894.79 1299.99
  Q 895.79 1299.99 895.76 1298.99
  L 895.69 1296.54
  Q 895.66 1295.57 894.74 1295.74
  Q 891.22 1296.41 891.14 1294.08"
/>
<path stroke="#3c1177" vector-effect="non-scaling-stroke" d="
  M 899.60 1290.90
  L 900.09 1299.25
  A 0.74 0.71 -89.9 0 0 900.75 1299.94
  L 903.22 1300.11
  A 0.68 0.67 -0.5 0 1 903.85 1300.73
  L 904.06 1303.06
  Q 904.13 1303.96 905.07 1303.97
  L 911.57 1304.03
  Q 912.40 1304.03 912.43 1303.20
  L 912.54 1300.51
  Q 912.56 1300.05 913.01 1300.04
  L 915.82 1299.98
  A 0.74 0.69 89.2 0 0 916.50 1299.23
  L 916.48 1296.37
  Q 916.48 1295.75 915.86 1295.76
  L 913.03 1295.80
  A 0.56 0.56 0.0 0 1 912.46 1295.24
  L 912.37 1285.63"
/>
<path stroke="#3c1177" vector-effect="non-scaling-stroke" d="
  M 836.17 1145.71
  L 833.69 1145.81
  Q 833.17 1145.83 833.17 1146.31
  L 833.29 1157.75
  Q 833.30 1158.28 832.75 1158.28
  L 825.39 1158.25
  Q 825.02 1158.24 825.02 1158.62
  L 825.01 1166.18
  A 0.32 0.31 89.9 0 0 825.32 1166.50
  L 834.22 1166.45"
/>
<path stroke="#3c1177" vector-effect="non-scaling-stroke" d="
  M 841.12 1307.49
  Q 846.32 1309.79 845.76 1306.71"
/>
<path stroke="#3c1177" vector-effect="non-scaling-stroke" d="
  M 599.9550 1300.7396
  A 0.72 0.72 0.0 0 0 599.2489 1300.0059
  L 596.5894 1299.9548
  A 0.72 0.72 0.0 0 0 595.8557 1300.6609
  L 595.8050 1303.3004
  A 0.72 0.72 0.0 0 0 596.5111 1304.0341
  L 599.1706 1304.0852
  A 0.72 0.72 0.0 0 0 599.9043 1303.3791
  L 599.9550 1300.7396"
/>
<path stroke="#3c1177" vector-effect="non-scaling-stroke" d="
  M 670.7422 1208.6248
  A 0.36 0.36 0.0 0 0 670.3847 1208.2623
  L 666.8848 1208.2378
  A 0.36 0.36 0.0 0 0 666.5223 1208.5953
  L 666.4978 1212.0952
  A 0.36 0.36 0.0 0 0 666.8553 1212.4577
  L 670.3552 1212.4822
  A 0.36 0.36 0.0 0 0 670.7177 1212.1247
  L 670.7422 1208.6248"
/>
<path stroke="#3c1177" vector-effect="non-scaling-stroke" d="
  M 841.5089 1308.8718
  A 0.65 0.65 0.0 0 0 840.8498 1308.2309
  L 838.0901 1308.2695
  A 0.65 0.65 0.0 0 0 837.4493 1308.9285
  L 837.4911 1311.9282
  A 0.65 0.65 0.0 0 0 838.1502 1312.5691
  L 840.9099 1312.5305
  A 0.65 0.65 0.0 0 0 841.5507 1311.8715
  L 841.5089 1308.8718"
/>
<path stroke="#3c1177" vector-effect="non-scaling-stroke" d="
  M 716.1083 1416.1237
  A 2.23 1.97 43.1 0 0 715.8260 1413.1616
  A 2.23 1.97 43.1 0 0 712.8517 1413.0763
  A 2.23 1.97 43.1 0 0 713.1340 1416.0384
  A 2.23 1.97 43.1 0 0 716.1083 1416.1237"
/>
</g>
<path fill="#7821ed" d="
  M 578.08 1286.98
  Q 579.41 1288.07 578.97 1289.82
  Q 578.55 1291.52 580.30 1291.53
  L 585.91 1291.56
  Q 587.50 1291.57 587.49 1289.92
  L 587.47 1279.51
  Q 587.47 1278.91 588.02 1278.92
  L 590.91 1279.00
  Q 591.56 1279.01 591.57 1279.65
  L 591.57 1282.52
  Q 591.57 1283.23 592.27 1283.22
  L 595.12 1283.20
  A 0.66 0.64 89.7 0 1 595.76 1283.86
  L 595.81 1295.24
  Q 595.81 1295.69 596.24 1295.69
  L 599.29 1295.70
  A 0.61 0.61 0.0 0 1 599.89 1296.28
  L 600.05 1299.52
  Q 600.08 1300.08 600.66 1300.02
  Q 602.28 1299.84 603.45 1300.13
  A 0.70 0.66 -84.6 0 1 603.95 1300.78
  L 604.17 1307.26
  Q 604.20 1308.18 605.09 1308.17
  L 611.61 1308.12
  Q 612.19 1308.12 612.33 1307.56
  Q 612.61 1306.32 612.41 1304.81
  Q 612.33 1304.21 611.73 1304.16
  L 608.93 1303.91
  Q 608.05 1303.83 608.10 1303.05
  L 608.21 1300.96
  Q 608.25 1300.17 609.08 1300.10
  L 611.81 1299.85
  A 0.68 0.67 89.0 0 0 612.43 1299.21
  L 612.58 1296.47
  Q 612.61 1295.90 613.16 1295.87
  L 619.76 1295.56
  Q 620.24 1295.53 620.45 1295.10
  Q 621.04 1293.87 620.30 1292.34
  Q 620.06 1291.84 619.48 1291.75
  L 617.31 1291.40
  A 0.83 0.78 -3.7 0 1 616.66 1290.87
  Q 616.17 1289.36 616.82 1288.11
  Q 617.06 1287.65 617.59 1287.62
  L 624.19 1287.36
  A 0.71 0.68 -4.8 0 1 624.92 1287.95
  L 625.29 1290.72
  Q 625.37 1291.32 625.96 1291.39
  Q 627.55 1291.58 628.46 1291.36
  A 0.68 0.67 83.0 0 0 628.97 1290.70
  L 628.96 1279.50
  Q 628.96 1278.95 629.50 1278.95
  L 637.02 1278.96
  Q 637.50 1278.96 637.50 1278.48
  L 637.46 1263.00
  Q 637.46 1262.55 636.98 1262.55
  L 633.76 1262.54
  Q 633.32 1262.53 633.32 1263.01
  L 633.36 1269.76
  Q 633.37 1270.87 632.27 1270.86
  L 626.16 1270.81
  Q 624.92 1270.80 624.94 1269.67
  L 624.99 1267.16
  Q 625.00 1266.59 624.40 1266.59
  L 617.35 1266.56
  Q 616.40 1266.56 616.40 1265.62
  L 616.42 1263.35
  Q 616.43 1262.43 617.35 1262.41
  L 620.16 1262.35
  Q 620.68 1262.34 620.68 1261.82
  L 620.81 1250.65
  Q 620.81 1250.18 620.27 1250.16
  L 614.19 1249.90
  L 645.77 1222.15
  L 645.82 1228.51
  Q 645.82 1229.01 646.32 1229.01
  L 653.32 1229.00
  A 0.77 0.77 0.0 0 0 654.08 1228.19
  L 653.96 1225.76
  A 0.72 0.72 0.0 0 0 653.26 1225.08
  L 650.60 1225.02
  Q 649.94 1225.00 649.94 1224.35
  L 649.98 1221.35
  Q 649.99 1220.68 650.65 1220.68
  L 662.03 1220.76
  Q 662.58 1220.76 662.56 1221.28
  L 662.43 1224.14
  Q 662.39 1225.01 663.37 1225.01
  L 669.78 1225.02
  Q 670.79 1225.03 670.78 1224.00
  L 670.78 1213.02
  Q 670.78 1212.56 671.22 1212.56
  L 674.46 1212.53
  Q 674.96 1212.53 674.97 1212.05
  L 675.04 1208.69
  Q 675.05 1208.21 675.53 1208.22
  L 678.47 1208.27
  Q 678.98 1208.28 678.98 1207.77
  L 679.02 1204.50
  Q 679.02 1203.99 678.51 1204.00
  L 675.50 1204.03
  Q 674.96 1204.04 674.97 1203.50
  L 675.05 1200.32
  Q 675.06 1199.90 675.48 1199.90
  L 682.29 1199.97
  Q 683.28 1199.98 683.28 1201.03
  L 683.27 1207.41
  Q 683.27 1208.36 682.39 1208.31
  L 679.86 1208.15
  Q 678.99 1208.09 678.99 1209.04
  L 678.97 1215.65
  Q 678.97 1216.51 679.87 1216.52
  L 682.77 1216.54
  Q 683.24 1216.55 683.24 1217.00
  L 683.23 1220.11
  Q 683.23 1220.78 683.87 1220.76
  L 686.52 1220.68
  Q 687.56 1220.65 687.55 1221.77
  L 687.51 1228.21
  Q 687.50 1228.91 686.80 1228.93
  L 679.65 1229.06
  Q 679.13 1229.07 679.09 1229.59
  L 678.86 1232.71
  Q 678.82 1233.26 678.28 1233.26
  L 675.64 1233.26
  Q 675.08 1233.26 675.07 1233.84
  L 674.85 1240.84
  Q 674.83 1241.53 674.14 1241.52
  L 671.76 1241.49
  Q 670.88 1241.48 670.87 1242.41
  L 670.77 1248.91
  Q 670.76 1249.87 671.66 1249.95
  L 674.35 1250.18
  Q 674.95 1250.23 674.97 1250.90
  L 675.04 1253.41
  Q 675.06 1253.94 674.53 1253.96
  L 671.21 1254.05
  Q 670.74 1254.06 670.75 1254.53
  L 670.80 1257.76
  Q 670.81 1258.22 671.26 1258.22
  L 678.48 1258.25
  Q 678.95 1258.25 678.96 1258.73
  L 679.02 1262.00
  Q 679.03 1262.49 679.51 1262.49
  L 682.74 1262.48
  Q 683.25 1262.48 683.26 1262.99
  L 683.30 1265.99
  Q 683.30 1266.55 682.76 1266.54
  L 679.64 1266.49
  Q 679.02 1266.47 679.02 1267.09
  L 679.03 1270.11
  Q 679.04 1270.73 679.64 1270.72
  L 686.97 1270.71
  Q 687.43 1270.71 687.42 1270.26
  L 687.38 1263.13
  Q 687.37 1262.38 688.11 1262.39
  L 690.77 1262.45
  Q 691.51 1262.46 691.55 1263.21
  Q 691.64 1265.00 691.59 1265.52
  Q 691.46 1266.81 694.78 1266.40
  Q 695.75 1266.28 695.79 1267.27
  L 695.88 1269.88
  Q 695.92 1270.83 694.98 1270.82
  L 692.25 1270.79
  Q 691.54 1270.78 691.54 1271.51
  L 691.51 1274.04
  Q 691.50 1274.78 692.24 1274.84
  L 695.01 1275.06
  Q 695.59 1275.11 695.67 1275.69
  Q 696.09 1278.66 695.43 1282.58
  Q 695.34 1283.13 694.79 1283.23
  L 692.53 1283.64
  A 0.92 0.92 0.0 0 0 691.82 1284.27
  L 691.21 1286.14
  Q 691.06 1286.60 690.60 1286.72
  L 684.25 1288.40
  A 1.00 0.94 -0.2 0 0 683.56 1289.06
  Q 682.91 1291.32 680.33 1291.66
  A 0.82 0.82 0.0 0 0 679.64 1292.31
  Q 678.57 1297.45 679.17 1303.21
  Q 679.23 1303.77 679.79 1303.86
  L 682.58 1304.32
  A 0.74 0.73 -88.7 0 1 683.19 1304.96
  L 683.51 1307.73
  Q 683.56 1308.15 683.97 1308.18
  L 686.71 1308.32
  A 0.73 0.69 -0.7 0 1 687.40 1308.96
  L 687.96 1315.49
  Q 688.04 1316.43 689.01 1316.43
  L 690.28 1316.44
  Q 691.24 1316.44 691.27 1315.49
  L 691.37 1313.10
  Q 691.39 1312.47 692.03 1312.47
  L 699.06 1312.45
  Q 699.84 1312.44 699.89 1313.27
  L 700.01 1315.41
  Q 700.07 1316.44 699.07 1316.51
  L 696.45 1316.69
  Q 695.82 1316.73 695.82 1317.35
  L 695.77 1324.18
  Q 695.77 1324.79 696.39 1324.84
  L 698.82 1325.05
  Q 700.00 1325.16 700.03 1326.35
  L 700.06 1327.79
  A 1.16 1.13 -0.9 0 1 698.91 1328.95
  L 688.23 1329.07
  Q 687.66 1329.07 687.67 1329.66
  Q 687.75 1333.27 686.96 1336.81
  Q 686.84 1337.34 686.32 1337.45
  Q 683.93 1337.96 683.07 1340.25
  Q 682.88 1340.73 682.36 1340.94
  L 679.94 1341.89
  A 1.03 0.99 -0.4 0 0 679.37 1342.45
  Q 678.86 1343.69 679.23 1345.00
  A 0.73 0.73 0.0 0 0 679.97 1345.53
  Q 683.40 1345.34 683.57 1348.77
  Q 683.61 1349.47 684.33 1349.69
  L 686.84 1350.44
  A 0.85 0.82 4.2 0 1 687.44 1351.10
  L 687.76 1353.07
  Q 687.84 1353.56 688.32 1353.70
  L 690.62 1354.33
  Q 691.14 1354.48 691.21 1355.01
  L 691.96 1361.27
  Q 692.10 1362.44 693.33 1362.35
  Q 695.43 1362.20 695.67 1363.44
  Q 695.98 1365.09 696.04 1365.57
  Q 696.15 1366.41 696.99 1366.46
  L 699.01 1366.57
  A 0.88 0.86 -87.5 0 0 699.92 1365.72
  L 700.10 1359.59
  A 1.43 1.36 89.2 0 1 701.37 1358.20
  L 702.92 1358.11
  Q 703.53 1358.07 703.64 1357.49
  L 704.18 1354.76
  Q 704.30 1354.19 704.85 1354.08
  Q 706.31 1353.80 707.71 1354.20
  Q 708.23 1354.35 708.23 1354.93
  L 708.21 1361.75
  Q 708.20 1362.47 707.49 1362.51
  L 704.74 1362.64
  Q 704.03 1362.68 704.01 1363.38
  L 703.96 1365.69
  Q 703.94 1366.47 704.70 1366.46
  L 707.53 1366.46
  Q 708.16 1366.46 708.18 1367.08
  L 708.25 1369.96
  Q 708.27 1370.58 708.87 1370.61
  L 711.64 1370.76
  Q 712.14 1370.78 712.28 1371.27
  Q 712.67 1372.68 712.57 1374.23
  Q 712.53 1374.84 711.89 1374.87
  L 704.57 1375.17
  Q 704.07 1375.19 704.04 1375.69
  L 703.91 1378.35
  Q 703.88 1378.90 703.34 1378.93
  L 700.69 1379.06
  Q 700.17 1379.08 700.18 1379.65
  Q 700.24 1383.43 699.38 1386.48
  A 0.90 0.90 0.0 0 1 698.74 1387.10
  Q 696.42 1387.71 695.53 1389.69
  C 695.00 1390.88 693.85 1391.71 692.98 1392.32
  Q 692.55 1392.61 692.45 1393.12
  Q 690.67 1401.64 692.15 1411.08
  A 1.73 1.73 0.0 0 0 693.48 1412.50
  Q 695.42 1412.93 695.97 1414.98
  Q 696.10 1415.47 696.53 1415.74
  Q 697.57 1416.39 698.94 1416.03
  Q 699.39 1415.91 699.58 1415.43
  L 700.37 1413.39
  Q 700.57 1412.89 701.02 1412.87
  L 707.16 1412.64
  A 1.18 1.18 0.0 0 1 708.38 1413.73
  Q 708.46 1414.93 708.94 1415.66
  A 1.28 1.28 0.0 0 0 709.71 1416.21
  C 712.50 1416.90 711.77 1418.18 713.35 1419.82
  Q 713.70 1420.19 714.20 1420.31
  Q 716.66 1420.92 716.89 1423.47
  A 1.17 1.17 0.0 0 0 717.90 1424.52
  Q 723.40 1425.27 728.38 1424.93
  Q 729.03 1424.88 729.01 1424.21
  L 728.95 1421.55
  A 0.69 0.67 1.2 0 0 728.31 1420.89
  L 725.47 1420.72
  Q 724.96 1420.68 724.96 1420.20
  L 725.05 1408.84
  Q 725.05 1408.25 725.63 1408.24
  L 728.51 1408.21
  Q 728.95 1408.21 728.95 1407.75
  L 728.98 1396.27
  Q 728.98 1395.62 729.63 1395.62
  L 732.63 1395.61
  A 0.75 0.71 90.0 0 1 733.34 1396.36
  L 733.31 1407.62
  Q 733.31 1408.19 733.88 1408.21
  L 737.02 1408.30
  Q 737.49 1408.31 737.49 1408.77
  L 737.50 1411.27
  A 1.27 1.23 -0.3 0 0 738.79 1412.50
  L 744.74 1412.47
  A 1.02 0.99 0.4 0 1 745.77 1413.48
  L 745.73 1415.37
  Q 745.71 1416.50 744.61 1416.57
  L 742.22 1416.72
  Q 741.67 1416.76 741.67 1417.29
  L 741.72 1428.23
  Q 741.72 1428.85 742.33 1428.90
  L 744.83 1429.10
  Q 745.84 1429.18 745.81 1430.23
  L 745.75 1432.27
  Q 745.72 1433.24 744.75 1433.25
  L 742.20 1433.29
  Q 741.66 1433.30 741.67 1433.82
  L 741.78 1440.60
  Q 741.79 1441.18 742.37 1441.25
  L 744.84 1441.51
  Q 745.66 1441.60 745.69 1442.45
  L 745.90 1448.89
  A 0.98 0.97 -2.4 0 1 744.96 1449.89
  L 738.30 1450.22
  Q 737.71 1450.25 737.59 1450.82
  Q 737.38 1451.79 737.54 1452.98
  Q 737.62 1453.56 738.16 1453.70
  L 740.67 1454.35
  Q 741.22 1454.49 741.34 1455.07
  L 741.86 1457.39
  A 0.80 0.75 87.0 0 0 742.50 1458.00
  L 744.72 1458.30
  A 1.18 1.16 89.8 0 1 745.72 1459.31
  Q 745.89 1460.60 745.63 1461.61
  Q 745.51 1462.06 745.07 1462.21
  L 742.74 1462.99
  Q 742.12 1463.19 741.90 1463.71
  Q 740.97 1465.89 738.71 1467.00
  A 1.19 1.19 0.0 0 0 738.09 1467.77
  Q 737.32 1470.67 737.87 1473.97
  A 0.90 0.82 6.1 0 0 738.45 1474.63
  L 740.79 1475.45
  Q 741.35 1475.64 741.42 1476.20
  L 741.68 1478.09
  A 0.76 0.72 1.0 0 0 742.31 1478.71
  L 745.21 1479.16
  Q 745.67 1479.23 745.72 1479.71
  L 745.97 1482.23
  Q 746.06 1483.14 746.99 1483.17
  L 748.97 1483.23
  Q 749.94 1483.27 749.95 1482.27
  L 750.00 1476.27
  Q 750.01 1475.07 751.34 1475.03
  L 752.68 1475.00
  Q 754.00 1474.97 754.00 1476.25
  L 753.92 1495.23
  A 0.64 0.64 0.0 0 1 753.27 1495.87
  L 750.77 1495.80
  Q 750.08 1495.78 750.07 1496.48
  L 750.06 1498.95
  A 0.79 0.77 -85.7 0 0 750.71 1499.73
  L 753.14 1500.09
  A 0.86 0.82 -87.4 0 1 753.84 1500.89
  L 754.15 1507.32
  Q 754.20 1508.22 755.10 1508.20
  L 760.98 1508.09
  Q 762.16 1508.06 762.21 1506.88
  Q 762.42 1502.03 763.53 1496.70
  Q 763.65 1496.15 764.17 1495.96
  Q 766.13 1495.22 766.54 1492.87
  Q 766.63 1492.35 767.21 1492.02
  L 769.23 1490.87
  Q 769.73 1490.58 769.88 1490.13
  Q 770.76 1487.51 770.87 1484.82
  Q 770.93 1483.48 771.46 1483.29
  Q 772.18 1483.05 773.47 1483.20
  Q 774.82 1483.36 774.95 1481.98
  L 775.10 1480.48
  Q 775.23 1479.05 773.75 1479.04
  L 767.27 1478.99
  A 0.91 0.90 -87.9 0 1 766.38 1478.02
  L 766.51 1476.05
  Q 766.56 1475.14 767.45 1475.06
  L 769.99 1474.82
  A 0.74 0.73 -87.6 0 0 770.65 1474.21
  Q 770.88 1472.84 770.48 1471.66
  Q 770.31 1471.13 769.75 1471.06
  L 767.07 1470.71
  Q 766.57 1470.65 766.47 1470.15
  Q 766.17 1468.66 766.64 1467.25
  Q 766.81 1466.74 767.34 1466.68
  Q 772.93 1466.01 778.23 1466.23
  A 0.66 0.62 -85.9 0 0 778.88 1465.63
  L 779.12 1463.17
  Q 779.17 1462.70 779.67 1462.67
  L 786.74 1462.34
  A 0.71 0.70 88.7 0 0 787.41 1461.63
  L 787.43 1451.31
  Q 787.43 1450.71 786.91 1450.45
  Q 785.64 1449.83 784.13 1450.10
  A 0.85 0.85 0.0 0 1 783.14 1449.24
  L 783.19 1446.47
  A 0.81 0.80 0.6 0 1 784.00 1445.68
  L 795.22 1445.74
  Q 795.71 1445.74 795.73 1446.22
  L 795.84 1448.84
  Q 795.89 1450.04 797.12 1450.04
  L 798.74 1450.05
  Q 799.84 1450.05 799.90 1448.97
  L 800.08 1446.22
  Q 800.12 1445.59 800.76 1445.61
  L 803.10 1445.69
  Q 803.75 1445.71 803.81 1446.35
  L 804.08 1449.05
  Q 804.19 1450.14 805.30 1450.09
  L 807.27 1450.01
  A 1.04 1.04 0.0 0 0 808.27 1448.95
  L 807.96 1438.19
  A 0.69 0.63 0.1 0 0 807.29 1437.58
  L 804.74 1437.52
  Q 804.16 1437.50 804.15 1436.98
  L 803.92 1429.98
  A 0.97 0.94 0.3 0 0 802.99 1429.06
  L 800.95 1428.98
  Q 799.96 1428.94 799.98 1427.95
  L 800.04 1425.86
  Q 800.07 1424.98 800.95 1424.97
  L 803.24 1424.96
  A 0.63 0.62 -86.9 0 0 803.85 1424.40
  L 804.20 1421.37
  Q 804.27 1420.74 804.86 1420.72
  L 807.38 1420.61
  Q 807.93 1420.59 808.06 1420.06
  Q 808.29 1419.13 807.87 1417.38
  Q 807.75 1416.88 807.24 1416.83
  L 804.72 1416.58
  Q 804.14 1416.53 804.11 1415.91
  L 803.80 1408.98
  A 0.59 0.59 0.0 0 0 803.23 1408.42
  L 800.70 1408.32
  Q 800.11 1408.30 800.08 1407.71
  L 799.91 1404.92
  Q 799.85 1404.01 798.92 1404.02
  L 796.58 1404.04
  Q 795.87 1404.04 795.87 1404.74
  L 795.82 1415.49
  A 1.07 1.06 -0.3 0 1 794.76 1416.54
  L 792.59 1416.58
  Q 791.58 1416.59 791.49 1415.62
  L 791.27 1413.30
  Q 791.23 1412.82 790.75 1412.66
  Q 790.40 1412.53 789.79 1412.56
  Q 788.47 1412.60 788.29 1412.69
  Q 787.34 1413.14 787.59 1415.57
  Q 787.70 1416.54 786.67 1416.56
  L 784.27 1416.60
  A 1.03 1.00 86.9 0 1 783.25 1415.66
  Q 782.95 1412.29 783.31 1408.91
  A 0.75 0.75 0.0 0 1 783.99 1408.24
  L 786.19 1408.06
  Q 787.43 1407.96 787.60 1406.68
  Q 788.00 1403.60 784.99 1404.00
  Q 783.07 1404.25 783.12 1402.44
  L 783.17 1400.76
  Q 783.19 1400.18 782.56 1400.14
  L 779.95 1400.00
  Q 778.99 1399.95 778.99 1398.96
  L 779.00 1392.53
  Q 779.00 1391.54 779.95 1391.51
  L 786.36 1391.31
  A 1.10 1.07 89.1 0 0 787.40 1390.22
  L 787.35 1371.34
  Q 787.34 1370.77 787.92 1370.77
  L 790.73 1370.78
  Q 791.50 1370.79 791.54 1371.51
  L 791.67 1373.73
  A 1.14 1.14 0.0 0 0 792.67 1374.79
  L 795.07 1375.09
  Q 795.67 1375.16 795.73 1375.82
  L 795.91 1377.85
  A 1.24 1.23 89.3 0 0 797.05 1378.97
  L 798.91 1379.10
  A 1.08 1.05 1.9 0 0 800.05 1378.04
  L 799.99 1355.26
  Q 799.98 1353.98 801.25 1354.01
  L 802.40 1354.03
  Q 803.81 1354.06 803.90 1355.46
  L 804.27 1361.75
  A 0.66 0.65 0.5 0 0 804.88 1362.36
  L 807.20 1362.54
  Q 807.81 1362.58 807.97 1363.21
  L 808.58 1365.69
  Q 808.70 1366.17 809.16 1366.28
  Q 810.50 1366.61 811.64 1366.29
  Q 812.15 1366.15 812.21 1365.57
  L 812.94 1358.95
  A 0.67 0.65 88.8 0 1 813.48 1358.36
  L 814.92 1358.13
  A 1.52 1.38 88.2 0 0 816.09 1356.76
  L 816.54 1350.97
  Q 816.59 1350.24 817.47 1350.10
  L 819.91 1349.72
  Q 820.51 1349.62 820.61 1348.69
  Q 820.97 1345.50 818.21 1345.78
  A 1.60 1.60 0.0 0 1 816.45 1344.18
  Q 816.47 1341.67 814.24 1341.54
  A 1.75 1.75 0.0 0 1 812.70 1339.21
  Q 813.26 1337.64 814.98 1337.17
  Q 815.48 1337.04 815.71 1336.58
  Q 816.53 1334.96 816.54 1333.24
  Q 816.54 1333.00 816.79 1333.02
  L 820.31 1333.32
  Q 820.58 1333.34 820.65 1333.64
  L 821.35 1336.70
  A 0.77 0.76 -4.9 0 0 822.06 1337.29
  L 824.07 1337.38
  Q 824.65 1337.41 824.77 1338.03
  L 825.34 1340.84
  Q 825.43 1341.32 825.92 1341.35
  L 828.23 1341.46
  Q 828.72 1341.48 828.79 1341.98
  L 829.20 1344.90
  Q 829.28 1345.50 829.89 1345.51
  L 836.80 1345.65
  A 0.90 0.89 -89.4 0 1 837.67 1346.55
  L 837.67 1353.37
  Q 837.67 1354.07 838.37 1354.07
  L 840.65 1354.06
  Q 841.35 1354.06 841.36 1353.36
  L 841.68 1333.77
  A 0.56 0.55 0.3 0 1 842.24 1333.23
  L 845.02 1333.21
  A 0.72 0.70 -0.2 0 0 845.73 1332.51
  L 845.73 1329.80
  A 0.66 0.65 -88.7 0 0 845.12 1329.13
  L 842.01 1328.99
  A 0.69 0.66 -88.1 0 1 841.38 1328.29
  L 841.43 1325.73
  Q 841.45 1324.96 842.24 1324.96
  L 849.46 1324.97
  Q 849.93 1324.97 849.93 1324.49
  L 849.95 1305.89
  Q 866.86 1302.20 883.43 1296.73
  L 883.26 1299.46
  Q 883.22 1300.00 882.69 1300.00
  L 879.73 1299.99
  Q 878.97 1299.98 878.98 1300.72
  L 879.02 1303.29
  Q 879.03 1304.03 879.76 1304.03
  L 882.62 1304.02
  Q 883.19 1304.02 883.21 1304.61
  L 883.27 1307.50
  Q 883.28 1308.23 884.01 1308.23
  L 886.73 1308.22
  Q 887.43 1308.22 887.43 1307.51
  L 887.44 1300.54
  A 0.53 0.53 0.0 0 1 887.97 1300.01
  L 894.79 1299.99
  Q 895.79 1299.99 895.76 1298.99
  L 895.69 1296.54
  Q 895.66 1295.57 894.74 1295.74
  Q 891.22 1296.41 891.14 1294.08
  L 899.60 1290.90
  L 900.09 1299.25
  A 0.74 0.71 -89.9 0 0 900.75 1299.94
  L 903.22 1300.11
  A 0.68 0.67 -0.5 0 1 903.85 1300.73
  L 904.06 1303.06
  Q 904.13 1303.96 905.07 1303.97
  L 911.57 1304.03
  Q 912.40 1304.03 912.43 1303.20
  L 912.54 1300.51
  Q 912.56 1300.05 913.01 1300.04
  L 915.82 1299.98
  A 0.74 0.69 89.2 0 0 916.50 1299.23
  L 916.48 1296.37
  Q 916.48 1295.75 915.86 1295.76
  L 913.03 1295.80
  A 0.56 0.56 0.0 0 1 912.46 1295.24
  L 912.37 1285.63
  Q 932.85 1276.60 949.54 1267.30
  Q 991.35 1244.02 1033.00 1213.01
  Q 1038.79 1208.69 1060.95 1190.05
  Q 1065.75 1186.01 1076.09 1176.98
  Q 1101.75 1154.55 1118.63 1141.14
  C 1143.30 1121.54 1168.84 1105.15 1198.06 1093.54
  Q 1200.91 1092.41 1203.67 1092.45
  Q 1212.65 1092.56 1225.38 1092.47
  A 1.19 1.18 -21.6 0 1 1226.26 1092.85
  C 1235.19 1102.47 1242.69 1111.00 1247.36 1121.04
  Q 1248.38 1123.24 1250.34 1129.73
  Q 1254.80 1144.49 1264.17 1157.45
  Q 1271.30 1167.31 1279.75 1176.62
  Q 1345.54 1249.11 1411.92 1326.64
  Q 1420.54 1336.70 1424.64 1342.10
  Q 1469.69 1401.30 1478.34 1476.98
  Q 1478.76 1480.71 1478.36 1508.51
  Q 1477.85 1544.29 1478.90 1585.35
  Q 1478.97 1588.09 1478.48 1591.11
  A 0.75 0.75 0.0 0 1 1477.75 1591.74
  L 457.23 1591.74
  A 0.42 0.42 0.0 0 1 456.84 1591.15
  Q 469.79 1561.48 481.02 1531.53
  C 494.02 1496.87 504.66 1460.73 510.31 1424.61
  Q 513.20 1406.11 515.83 1393.92
  Q 522.32 1363.85 540.50 1336.51
  Q 559.42 1308.06 578.08 1286.98
  Z
  M 599.9550 1300.7396
  A 0.72 0.72 0.0 0 0 599.2489 1300.0059
  L 596.5894 1299.9548
  A 0.72 0.72 0.0 0 0 595.8557 1300.6609
  L 595.8050 1303.3004
  A 0.72 0.72 0.0 0 0 596.5111 1304.0341
  L 599.1706 1304.0852
  A 0.72 0.72 0.0 0 0 599.9043 1303.3791
  L 599.9550 1300.7396
  Z"
/>
<path fill="#000000" d="
  M 836.17 1145.71
  L 833.69 1145.81
  Q 833.17 1145.83 833.17 1146.31
  L 833.29 1157.75
  Q 833.30 1158.28 832.75 1158.28
  L 825.39 1158.25
  Q 825.02 1158.24 825.02 1158.62
  L 825.01 1166.18
  A 0.32 0.31 89.9 0 0 825.32 1166.50
  L 834.22 1166.45
  Q 830.64 1195.49 817.28 1224.26
  Q 807.12 1246.15 808.31 1272.29
  Q 808.58 1278.23 809.02 1281.81
  C 810.31 1292.22 813.60 1303.61 825.18 1306.56
  Q 831.27 1308.11 835.50 1307.75
  Q 839.95 1307.38 841.12 1307.49
  Q 846.32 1309.79 845.76 1306.71
  L 849.95 1305.89
  L 849.93 1324.49
  Q 849.93 1324.97 849.46 1324.97
  L 842.24 1324.96
  Q 841.45 1324.96 841.43 1325.73
  L 841.38 1328.29
  A 0.69 0.66 -88.1 0 0 842.01 1328.99
  L 845.12 1329.13
  A 0.66 0.65 -88.7 0 1 845.73 1329.80
  L 845.73 1332.51
  A 0.72 0.70 -0.2 0 1 845.02 1333.21
  L 842.24 1333.23
  A 0.56 0.55 0.3 0 0 841.68 1333.77
  L 841.36 1353.36
  Q 841.35 1354.06 840.65 1354.06
  L 838.37 1354.07
  Q 837.67 1354.07 837.67 1353.37
  L 837.67 1346.55
  A 0.90 0.89 -89.4 0 0 836.80 1345.65
  L 829.89 1345.51
  Q 829.28 1345.50 829.20 1344.90
  L 828.79 1341.98
  Q 828.72 1341.48 828.23 1341.46
  L 825.92 1341.35
  Q 825.43 1341.32 825.34 1340.84
  L 824.77 1338.03
  Q 824.65 1337.41 824.07 1337.38
  L 822.06 1337.29
  A 0.77 0.76 -4.9 0 1 821.35 1336.70
  L 820.65 1333.64
  Q 820.58 1333.34 820.31 1333.32
  L 816.79 1333.02
  Q 816.54 1333.00 816.54 1333.24
  Q 816.53 1334.96 815.71 1336.58
  Q 815.48 1337.04 814.98 1337.17
  Q 813.26 1337.64 812.70 1339.21
  A 1.75 1.75 0.0 0 0 814.24 1341.54
  Q 816.47 1341.67 816.45 1344.18
  A 1.60 1.60 0.0 0 0 818.21 1345.78
  Q 820.97 1345.50 820.61 1348.69
  Q 820.51 1349.62 819.91 1349.72
  L 817.47 1350.10
  Q 816.59 1350.24 816.54 1350.97
  L 816.09 1356.76
  A 1.52 1.38 88.2 0 1 814.92 1358.13
  L 813.48 1358.36
  A 0.67 0.65 88.8 0 0 812.94 1358.95
  L 812.21 1365.57
  Q 812.15 1366.15 811.64 1366.29
  Q 810.50 1366.61 809.16 1366.28
  Q 808.70 1366.17 808.58 1365.69
  L 807.97 1363.21
  Q 807.81 1362.58 807.20 1362.54
  L 804.88 1362.36
  A 0.66 0.65 0.5 0 1 804.27 1361.75
  L 803.90 1355.46
  Q 803.81 1354.06 802.40 1354.03
  L 801.25 1354.01
  Q 799.98 1353.98 799.99 1355.26
  L 800.05 1378.04
  A 1.08 1.05 1.9 0 1 798.91 1379.10
  L 797.05 1378.97
  A 1.24 1.23 89.3 0 1 795.91 1377.85
  L 795.73 1375.82
  Q 795.67 1375.16 795.07 1375.09
  L 792.67 1374.79
  A 1.14 1.14 0.0 0 1 791.67 1373.73
  L 791.54 1371.51
  Q 791.50 1370.79 790.73 1370.78
  L 787.92 1370.77
  Q 787.34 1370.77 787.35 1371.34
  L 787.40 1390.22
  A 1.10 1.07 89.1 0 1 786.36 1391.31
  L 779.95 1391.51
  Q 779.00 1391.54 779.00 1392.53
  L 778.99 1398.96
  Q 778.99 1399.95 779.95 1400.00
  L 782.56 1400.14
  Q 783.19 1400.18 783.17 1400.76
  L 783.12 1402.44
  Q 783.07 1404.25 784.99 1404.00
  Q 788.00 1403.60 787.60 1406.68
  Q 787.43 1407.96 786.19 1408.06
  L 783.99 1408.24
  A 0.75 0.75 0.0 0 0 783.31 1408.91
  Q 782.95 1412.29 783.25 1415.66
  A 1.03 1.00 86.9 0 0 784.27 1416.60
  L 786.67 1416.56
  Q 787.70 1416.54 787.59 1415.57
  Q 787.34 1413.14 788.29 1412.69
  Q 788.47 1412.60 789.79 1412.56
  Q 790.40 1412.53 790.75 1412.66
  Q 791.23 1412.82 791.27 1413.30
  L 791.49 1415.62
  Q 791.58 1416.59 792.59 1416.58
  L 794.76 1416.54
  A 1.07 1.06 -0.3 0 0 795.82 1415.49
  L 795.87 1404.74
  Q 795.87 1404.04 796.58 1404.04
  L 798.92 1404.02
  Q 799.85 1404.01 799.91 1404.92
  L 800.08 1407.71
  Q 800.11 1408.30 800.70 1408.32
  L 803.23 1408.42
  A 0.59 0.59 0.0 0 1 803.80 1408.98
  L 804.11 1415.91
  Q 804.14 1416.53 804.72 1416.58
  L 807.24 1416.83
  Q 807.75 1416.88 807.87 1417.38
  Q 808.29 1419.13 808.06 1420.06
  Q 807.93 1420.59 807.38 1420.61
  L 804.86 1420.72
  Q 804.27 1420.74 804.20 1421.37
  L 803.85 1424.40
  A 0.63 0.62 -86.9 0 1 803.24 1424.96
  L 800.95 1424.97
  Q 800.07 1424.98 800.04 1425.86
  L 799.98 1427.95
  Q 799.96 1428.94 800.95 1428.98
  L 802.99 1429.06
  A 0.97 0.94 0.3 0 1 803.92 1429.98
  L 804.15 1436.98
  Q 804.16 1437.50 804.74 1437.52
  L 807.29 1437.58
  A 0.69 0.63 0.1 0 1 807.96 1438.19
  L 808.27 1448.95
  A 1.04 1.04 0.0 0 1 807.27 1450.01
  L 805.30 1450.09
  Q 804.19 1450.14 804.08 1449.05
  L 803.81 1446.35
  Q 803.75 1445.71 803.10 1445.69
  L 800.76 1445.61
  Q 800.12 1445.59 800.08 1446.22
  L 799.90 1448.97
  Q 799.84 1450.05 798.74 1450.05
  L 797.12 1450.04
  Q 795.89 1450.04 795.84 1448.84
  L 795.73 1446.22
  Q 795.71 1445.74 795.22 1445.74
  L 784.00 1445.68
  A 0.81 0.80 0.6 0 0 783.19 1446.47
  L 783.14 1449.24
  A 0.85 0.85 0.0 0 0 784.13 1450.10
  Q 785.64 1449.83 786.91 1450.45
  Q 787.43 1450.71 787.43 1451.31
  L 787.41 1461.63
  A 0.71 0.70 88.7 0 1 786.74 1462.34
  L 779.67 1462.67
  Q 779.17 1462.70 779.12 1463.17
  L 778.88 1465.63
  A 0.66 0.62 -85.9 0 1 778.23 1466.23
  Q 772.93 1466.01 767.34 1466.68
  Q 766.81 1466.74 766.64 1467.25
  Q 766.17 1468.66 766.47 1470.15
  Q 766.57 1470.65 767.07 1470.71
  L 769.75 1471.06
  Q 770.31 1471.13 770.48 1471.66
  Q 770.88 1472.84 770.65 1474.21
  A 0.74 0.73 -87.6 0 1 769.99 1474.82
  L 767.45 1475.06
  Q 766.56 1475.14 766.51 1476.05
  L 766.38 1478.02
  A 0.91 0.90 -87.9 0 0 767.27 1478.99
  L 773.75 1479.04
  Q 775.23 1479.05 775.10 1480.48
  L 774.95 1481.98
  Q 774.82 1483.36 773.47 1483.20
  Q 772.18 1483.05 771.46 1483.29
  Q 770.93 1483.48 770.87 1484.82
  Q 770.76 1487.51 769.88 1490.13
  Q 769.73 1490.58 769.23 1490.87
  L 767.21 1492.02
  Q 766.63 1492.35 766.54 1492.87
  Q 766.13 1495.22 764.17 1495.96
  Q 763.65 1496.15 763.53 1496.70
  Q 762.42 1502.03 762.21 1506.88
  Q 762.16 1508.06 760.98 1508.09
  L 755.10 1508.20
  Q 754.20 1508.22 754.15 1507.32
  L 753.84 1500.89
  A 0.86 0.82 -87.4 0 0 753.14 1500.09
  L 750.71 1499.73
  A 0.79 0.77 -85.7 0 1 750.06 1498.95
  L 750.07 1496.48
  Q 750.08 1495.78 750.77 1495.80
  L 753.27 1495.87
  A 0.64 0.64 0.0 0 0 753.92 1495.23
  L 754.00 1476.25
  Q 754.00 1474.97 752.68 1475.00
  L 751.34 1475.03
  Q 750.01 1475.07 750.00 1476.27
  L 749.95 1482.27
  Q 749.94 1483.27 748.97 1483.23
  L 746.99 1483.17
  Q 746.06 1483.14 745.97 1482.23
  L 745.72 1479.71
  Q 745.67 1479.23 745.21 1479.16
  L 742.31 1478.71
  A 0.76 0.72 1.0 0 1 741.68 1478.09
  L 741.42 1476.20
  Q 741.35 1475.64 740.79 1475.45
  L 738.45 1474.63
  A 0.90 0.82 6.1 0 1 737.87 1473.97
  Q 737.32 1470.67 738.09 1467.77
  A 1.19 1.19 0.0 0 1 738.71 1467.00
  Q 740.97 1465.89 741.90 1463.71
  Q 742.12 1463.19 742.74 1462.99
  L 745.07 1462.21
  Q 745.51 1462.06 745.63 1461.61
  Q 745.89 1460.60 745.72 1459.31
  A 1.18 1.16 89.8 0 0 744.72 1458.30
  L 742.50 1458.00
  A 0.80 0.75 87.0 0 1 741.86 1457.39
  L 741.34 1455.07
  Q 741.22 1454.49 740.67 1454.35
  L 738.16 1453.70
  Q 737.62 1453.56 737.54 1452.98
  Q 737.38 1451.79 737.59 1450.82
  Q 737.71 1450.25 738.30 1450.22
  L 744.96 1449.89
  A 0.98 0.97 -2.4 0 0 745.90 1448.89
  L 745.69 1442.45
  Q 745.66 1441.60 744.84 1441.51
  L 742.37 1441.25
  Q 741.79 1441.18 741.78 1440.60
  L 741.67 1433.82
  Q 741.66 1433.30 742.20 1433.29
  L 744.75 1433.25
  Q 745.72 1433.24 745.75 1432.27
  L 745.81 1430.23
  Q 745.84 1429.18 744.83 1429.10
  L 742.33 1428.90
  Q 741.72 1428.85 741.72 1428.23
  L 741.67 1417.29
  Q 741.67 1416.76 742.22 1416.72
  L 744.61 1416.57
  Q 745.71 1416.50 745.73 1415.37
  L 745.77 1413.48
  A 1.02 0.99 0.4 0 0 744.74 1412.47
  L 738.79 1412.50
  A 1.27 1.23 -0.3 0 1 737.50 1411.27
  L 737.49 1408.77
  Q 737.49 1408.31 737.02 1408.30
  L 733.88 1408.21
  Q 733.31 1408.19 733.31 1407.62
  L 733.34 1396.36
  A 0.75 0.71 90.0 0 0 732.63 1395.61
  L 729.63 1395.62
  Q 728.98 1395.62 728.98 1396.27
  L 728.95 1407.75
  Q 728.95 1408.21 728.51 1408.21
  L 725.63 1408.24
  Q 725.05 1408.25 725.05 1408.84
  L 724.96 1420.20
  Q 724.96 1420.68 725.47 1420.72
  L 728.31 1420.89
  A 0.69 0.67 1.2 0 1 728.95 1421.55
  L 729.01 1424.21
  Q 729.03 1424.88 728.38 1424.93
  Q 723.40 1425.27 717.90 1424.52
  A 1.17 1.17 0.0 0 1 716.89 1423.47
  Q 716.66 1420.92 714.20 1420.31
  Q 713.70 1420.19 713.35 1419.82
  C 711.77 1418.18 712.50 1416.90 709.71 1416.21
  A 1.28 1.28 0.0 0 1 708.94 1415.66
  Q 708.46 1414.93 708.38 1413.73
  A 1.18 1.18 0.0 0 0 707.16 1412.64
  L 701.02 1412.87
  Q 700.57 1412.89 700.37 1413.39
  L 699.58 1415.43
  Q 699.39 1415.91 698.94 1416.03
  Q 697.57 1416.39 696.53 1415.74
  Q 696.10 1415.47 695.97 1414.98
  Q 695.42 1412.93 693.48 1412.50
  A 1.73 1.73 0.0 0 1 692.15 1411.08
  Q 690.67 1401.64 692.45 1393.12
  Q 692.55 1392.61 692.98 1392.32
  C 693.85 1391.71 695.00 1390.88 695.53 1389.69
  Q 696.42 1387.71 698.74 1387.10
  A 0.90 0.90 0.0 0 0 699.38 1386.48
  Q 700.24 1383.43 700.18 1379.65
  Q 700.17 1379.08 700.69 1379.06
  L 703.34 1378.93
  Q 703.88 1378.90 703.91 1378.35
  L 704.04 1375.69
  Q 704.07 1375.19 704.57 1375.17
  L 711.89 1374.87
  Q 712.53 1374.84 712.57 1374.23
  Q 712.67 1372.68 712.28 1371.27
  Q 712.14 1370.78 711.64 1370.76
  L 708.87 1370.61
  Q 708.27 1370.58 708.25 1369.96
  L 708.18 1367.08
  Q 708.16 1366.46 707.53 1366.46
  L 704.70 1366.46
  Q 703.94 1366.47 703.96 1365.69
  L 704.01 1363.38
  Q 704.03 1362.68 704.74 1362.64
  L 707.49 1362.51
  Q 708.20 1362.47 708.21 1361.75
  L 708.23 1354.93
  Q 708.23 1354.35 707.71 1354.20
  Q 706.31 1353.80 704.85 1354.08
  Q 704.30 1354.19 704.18 1354.76
  L 703.64 1357.49
  Q 703.53 1358.07 702.92 1358.11
  L 701.37 1358.20
  A 1.43 1.36 89.2 0 0 700.10 1359.59
  L 699.92 1365.72
  A 0.88 0.86 -87.5 0 1 699.01 1366.57
  L 696.99 1366.46
  Q 696.15 1366.41 696.04 1365.57
  Q 695.98 1365.09 695.67 1363.44
  Q 695.43 1362.20 693.33 1362.35
  Q 692.10 1362.44 691.96 1361.27
  L 691.21 1355.01
  Q 691.14 1354.48 690.62 1354.33
  L 688.32 1353.70
  Q 687.84 1353.56 687.76 1353.07
  L 687.44 1351.10
  A 0.85 0.82 4.2 0 0 686.84 1350.44
  L 684.33 1349.69
  Q 683.61 1349.47 683.57 1348.77
  Q 683.40 1345.34 679.97 1345.53
  A 0.73 0.73 0.0 0 1 679.23 1345.00
  Q 678.86 1343.69 679.37 1342.45
  A 1.03 0.99 -0.4 0 1 679.94 1341.89
  L 682.36 1340.94
  Q 682.88 1340.73 683.07 1340.25
  Q 683.93 1337.96 686.32 1337.45
  Q 686.84 1337.34 686.96 1336.81
  Q 687.75 1333.27 687.67 1329.66
  Q 687.66 1329.07 688.23 1329.07
  L 698.91 1328.95
  A 1.16 1.13 -0.9 0 0 700.06 1327.79
  L 700.03 1326.35
  Q 700.00 1325.16 698.82 1325.05
  L 696.39 1324.84
  Q 695.77 1324.79 695.77 1324.18
  L 695.82 1317.35
  Q 695.82 1316.73 696.45 1316.69
  L 699.07 1316.51
  Q 700.07 1316.44 700.01 1315.41
  L 699.89 1313.27
  Q 699.84 1312.44 699.06 1312.45
  L 692.03 1312.47
  Q 691.39 1312.47 691.37 1313.10
  L 691.27 1315.49
  Q 691.24 1316.44 690.28 1316.44
  L 689.01 1316.43
  Q 688.04 1316.43 687.96 1315.49
  L 687.40 1308.96
  A 0.73 0.69 -0.7 0 0 686.71 1308.32
  L 683.97 1308.18
  Q 683.56 1308.15 683.51 1307.73
  L 683.19 1304.96
  A 0.74 0.73 -88.7 0 0 682.58 1304.32
  L 679.79 1303.86
  Q 679.23 1303.77 679.17 1303.21
  Q 678.57 1297.45 679.64 1292.31
  A 0.82 0.82 0.0 0 1 680.33 1291.66
  Q 682.91 1291.32 683.56 1289.06
  A 1.00 0.94 -0.2 0 1 684.25 1288.40
  L 690.60 1286.72
  Q 691.06 1286.60 691.21 1286.14
  L 691.82 1284.27
  A 0.92 0.92 0.0 0 1 692.53 1283.64
  L 694.79 1283.23
  Q 695.34 1283.13 695.43 1282.58
  Q 696.09 1278.66 695.67 1275.69
  Q 695.59 1275.11 695.01 1275.06
  L 692.24 1274.84
  Q 691.50 1274.78 691.51 1274.04
  L 691.54 1271.51
  Q 691.54 1270.78 692.25 1270.79
  L 694.98 1270.82
  Q 695.92 1270.83 695.88 1269.88
  L 695.79 1267.27
  Q 695.75 1266.28 694.78 1266.40
  Q 691.46 1266.81 691.59 1265.52
  Q 691.64 1265.00 691.55 1263.21
  Q 691.51 1262.46 690.77 1262.45
  L 688.11 1262.39
  Q 687.37 1262.38 687.38 1263.13
  L 687.42 1270.26
  Q 687.43 1270.71 686.97 1270.71
  L 679.64 1270.72
  Q 679.04 1270.73 679.03 1270.11
  L 679.02 1267.09
  Q 679.02 1266.47 679.64 1266.49
  L 682.76 1266.54
  Q 683.30 1266.55 683.30 1265.99
  L 683.26 1262.99
  Q 683.25 1262.48 682.74 1262.48
  L 679.51 1262.49
  Q 679.03 1262.49 679.02 1262.00
  L 678.96 1258.73
  Q 678.95 1258.25 678.48 1258.25
  L 671.26 1258.22
  Q 670.81 1258.22 670.80 1257.76
  L 670.75 1254.53
  Q 670.74 1254.06 671.21 1254.05
  L 674.53 1253.96
  Q 675.06 1253.94 675.04 1253.41
  L 674.97 1250.90
  Q 674.95 1250.23 674.35 1250.18
  L 671.66 1249.95
  Q 670.76 1249.87 670.77 1248.91
  L 670.87 1242.41
  Q 670.88 1241.48 671.76 1241.49
  L 674.14 1241.52
  Q 674.83 1241.53 674.85 1240.84
  L 675.07 1233.84
  Q 675.08 1233.26 675.64 1233.26
  L 678.28 1233.26
  Q 678.82 1233.26 678.86 1232.71
  L 679.09 1229.59
  Q 679.13 1229.07 679.65 1229.06
  L 686.80 1228.93
  Q 687.50 1228.91 687.51 1228.21
  L 687.55 1221.77
  Q 687.56 1220.65 686.52 1220.68
  L 683.87 1220.76
  Q 683.23 1220.78 683.23 1220.11
  L 683.24 1217.00
  Q 683.24 1216.55 682.77 1216.54
  L 679.87 1216.52
  Q 678.97 1216.51 678.97 1215.65
  L 678.99 1209.04
  Q 678.99 1208.09 679.86 1208.15
  L 682.39 1208.31
  Q 683.27 1208.36 683.27 1207.41
  L 683.28 1201.03
  Q 683.28 1199.98 682.29 1199.97
  L 675.48 1199.90
  Q 675.06 1199.90 675.05 1200.32
  L 674.97 1203.50
  Q 674.96 1204.04 675.50 1204.03
  L 678.51 1204.00
  Q 679.02 1203.99 679.02 1204.50
  L 678.98 1207.77
  Q 678.98 1208.28 678.47 1208.27
  L 675.53 1208.22
  Q 675.05 1208.21 675.04 1208.69
  L 674.97 1212.05
  Q 674.96 1212.53 674.46 1212.53
  L 671.22 1212.56
  Q 670.78 1212.56 670.78 1213.02
  L 670.78 1224.00
  Q 670.79 1225.03 669.78 1225.02
  L 663.37 1225.01
  Q 662.39 1225.01 662.43 1224.14
  L 662.56 1221.28
  Q 662.58 1220.76 662.03 1220.76
  L 650.65 1220.68
  Q 649.99 1220.68 649.98 1221.35
  L 649.94 1224.35
  Q 649.94 1225.00 650.60 1225.02
  L 653.26 1225.08
  A 0.72 0.72 0.0 0 1 653.96 1225.76
  L 654.08 1228.19
  A 0.77 0.77 0.0 0 1 653.32 1229.00
  L 646.32 1229.01
  Q 645.82 1229.01 645.82 1228.51
  L 645.77 1222.15
  Q 674.35 1198.76 704.36 1177.07
  Q 716.86 1168.03 720.70 1165.55
  Q 731.35 1158.68 743.34 1153.58
  Q 771.73 1141.53 775.78 1139.71
  C 789.28 1133.66 802.53 1126.05 812.65 1116.39
  Q 817.04 1112.19 819.10 1111.16
  Q 828.17 1106.59 833.68 1114.87
  C 836.53 1119.17 837.00 1126.11 836.75 1131.46
  Q 836.60 1134.52 836.50 1138.58
  Q 836.42 1142.15 836.17 1145.71
  Z
  M 670.7422 1208.6248
  A 0.36 0.36 0.0 0 0 670.3847 1208.2623
  L 666.8848 1208.2378
  A 0.36 0.36 0.0 0 0 666.5223 1208.5953
  L 666.4978 1212.0952
  A 0.36 0.36 0.0 0 0 666.8553 1212.4577
  L 670.3552 1212.4822
  A 0.36 0.36 0.0 0 0 670.7177 1212.1247
  L 670.7422 1208.6248
  Z
  M 841.5089 1308.8718
  A 0.65 0.65 0.0 0 0 840.8498 1308.2309
  L 838.0901 1308.2695
  A 0.65 0.65 0.0 0 0 837.4493 1308.9285
  L 837.4911 1311.9282
  A 0.65 0.65 0.0 0 0 838.1502 1312.5691
  L 840.9099 1312.5305
  A 0.65 0.65 0.0 0 0 841.5507 1311.8715
  L 841.5089 1308.8718
  Z
  M 716.1083 1416.1237
  A 2.23 1.97 43.1 0 0 715.8260 1413.1616
  A 2.23 1.97 43.1 0 0 712.8517 1413.0763
  A 2.23 1.97 43.1 0 0 713.1340 1416.0384
  A 2.23 1.97 43.1 0 0 716.1083 1416.1237
  Z"
/>
<path fill="#7821ed" d="
  M 836.17 1145.71
  L 834.22 1166.45
  L 825.32 1166.50
  A 0.32 0.31 89.9 0 1 825.01 1166.18
  L 825.02 1158.62
  Q 825.02 1158.24 825.39 1158.25
  L 832.75 1158.28
  Q 833.30 1158.28 833.29 1157.75
  L 833.17 1146.31
  Q 833.17 1145.83 833.69 1145.81
  L 836.17 1145.71
  Z"
/>
<rect fill="#7821ed" x="-2.11" y="-2.11" transform="translate(668.62,1210.36) rotate(0.4)" width="4.22" height="4.22" rx="0.36"/>
<path fill="#000000" d="
  M 614.19 1249.90
  L 620.27 1250.16
  Q 620.81 1250.18 620.81 1250.65
  L 620.68 1261.82
  Q 620.68 1262.34 620.16 1262.35
  L 617.35 1262.41
  Q 616.43 1262.43 616.42 1263.35
  L 616.40 1265.62
  Q 616.40 1266.56 617.35 1266.56
  L 624.40 1266.59
  Q 625.00 1266.59 624.99 1267.16
  L 624.94 1269.67
  Q 624.92 1270.80 626.16 1270.81
  L 632.27 1270.86
  Q 633.37 1270.87 633.36 1269.76
  L 633.32 1263.01
  Q 633.32 1262.53 633.76 1262.54
  L 636.98 1262.55
  Q 637.46 1262.55 637.46 1263.00
  L 637.50 1278.48
  Q 637.50 1278.96 637.02 1278.96
  L 629.50 1278.95
  Q 628.96 1278.95 628.96 1279.50
  L 628.97 1290.70
  A 0.68 0.67 83.0 0 1 628.46 1291.36
  Q 627.55 1291.58 625.96 1291.39
  Q 625.37 1291.32 625.29 1290.72
  L 624.92 1287.95
  A 0.71 0.68 -4.8 0 0 624.19 1287.36
  L 617.59 1287.62
  Q 617.06 1287.65 616.82 1288.11
  Q 616.17 1289.36 616.66 1290.87
  A 0.83 0.78 -3.7 0 0 617.31 1291.40
  L 619.48 1291.75
  Q 620.06 1291.84 620.30 1292.34
  Q 621.04 1293.87 620.45 1295.10
  Q 620.24 1295.53 619.76 1295.56
  L 613.16 1295.87
  Q 612.61 1295.90 612.58 1296.47
  L 612.43 1299.21
  A 0.68 0.67 89.0 0 1 611.81 1299.85
  L 609.08 1300.10
  Q 608.25 1300.17 608.21 1300.96
  L 608.10 1303.05
  Q 608.05 1303.83 608.93 1303.91
  L 611.73 1304.16
  Q 612.33 1304.21 612.41 1304.81
  Q 612.61 1306.32 612.33 1307.56
  Q 612.19 1308.12 611.61 1308.12
  L 605.09 1308.17
  Q 604.20 1308.18 604.17 1307.26
  L 603.95 1300.78
  A 0.70 0.66 -84.6 0 0 603.45 1300.13
  Q 602.28 1299.84 600.66 1300.02
  Q 600.08 1300.08 600.05 1299.52
  L 599.89 1296.28
  A 0.61 0.61 0.0 0 0 599.29 1295.70
  L 596.24 1295.69
  Q 595.81 1295.69 595.81 1295.24
  L 595.76 1283.86
  A 0.66 0.64 89.7 0 0 595.12 1283.20
  L 592.27 1283.22
  Q 591.57 1283.23 591.57 1282.52
  L 591.57 1279.65
  Q 591.56 1279.01 590.91 1279.00
  L 588.02 1278.92
  Q 587.47 1278.91 587.47 1279.51
  L 587.49 1289.92
  Q 587.50 1291.57 585.91 1291.56
  L 580.30 1291.53
  Q 578.55 1291.52 578.97 1289.82
  Q 579.41 1288.07 578.08 1286.98
  Q 595.21 1267.51 614.19 1249.90
  Z"
/>
<path fill="#000000" d="
  M 912.37 1285.63
  L 912.46 1295.24
  A 0.56 0.56 0.0 0 0 913.03 1295.80
  L 915.86 1295.76
  Q 916.48 1295.75 916.48 1296.37
  L 916.50 1299.23
  A 0.74 0.69 89.2 0 1 915.82 1299.98
  L 913.01 1300.04
  Q 912.56 1300.05 912.54 1300.51
  L 912.43 1303.20
  Q 912.40 1304.03 911.57 1304.03
  L 905.07 1303.97
  Q 904.13 1303.96 904.06 1303.06
  L 903.85 1300.73
  A 0.68 0.67 -0.5 0 0 903.22 1300.11
  L 900.75 1299.94
  A 0.74 0.71 -89.9 0 1 900.09 1299.25
  L 899.60 1290.90
  L 912.37 1285.63
  Z"
/>
<path fill="#000000" d="
  M 891.14 1294.08
  Q 891.22 1296.41 894.74 1295.74
  Q 895.66 1295.57 895.69 1296.54
  L 895.76 1298.99
  Q 895.79 1299.99 894.79 1299.99
  L 887.97 1300.01
  A 0.53 0.53 0.0 0 0 887.44 1300.54
  L 887.43 1307.51
  Q 887.43 1308.22 886.73 1308.22
  L 884.01 1308.23
  Q 883.28 1308.23 883.27 1307.50
  L 883.21 1304.61
  Q 883.19 1304.02 882.62 1304.02
  L 879.76 1304.03
  Q 879.03 1304.03 879.02 1303.29
  L 878.98 1300.72
  Q 878.97 1299.98 879.73 1299.99
  L 882.69 1300.00
  Q 883.22 1300.00 883.26 1299.46
  L 883.43 1296.73
  L 891.14 1294.08
  Z"
/>
<rect fill="#000000" x="-2.05" y="-2.04" transform="translate(597.88,1302.02) rotate(1.1)" width="4.10" height="4.08" rx="0.72"/>
<path fill="#7821ed" d="
  M 845.76 1306.71
  Q 846.32 1309.79 841.12 1307.49
  L 845.76 1306.71
  Z"
/>
<rect fill="#7821ed" x="-2.03" y="-2.15" transform="translate(839.50,1310.40) rotate(-0.8)" width="4.06" height="4.30" rx="0.65"/>
<ellipse fill="#7821ed" cx="0.00" cy="0.00" transform="translate(714.48,1414.60) rotate(43.1)" rx="2.23" ry="1.97"/>
</svg>
