<svg xmlns="http://www.w3.org/2000/svg" viewBox="0 0 382 382"><g fill="none" stroke-width="2"><path stroke="#e9f9a7" d="M310.92 286.51q-.69 1.74-.28 3.55a.62.61 83.9 0 1-.6.75l-41.09.01a.35.35 0 0 1-.35-.35l.02-16.71" vector-effect="non-scaling-stroke"/><path stroke="#9cace8" d="m266.59 275.41.09 16.84q0 .56.56.56h44.77a.67.67 0 0 0 .66-.78q-.33-1.91.04-3.34M195.21 382q.25-1.74.72-3.5c3.59-13.47-7.46-26.44-21.23-25.81q-.67.03-.67-.65l-.01-22.63a.61.6 0 0 0-.61-.6l-28.61-.01q-.64 0-.64.65v28.59q0 .63.63.63h15.26q.61 0 .21.46-8.67 10-4.07 22.87M253.41 369.22a8.17 8.17 0 0 0-8.17-8.17 8.17 8.17 0 0 0-8.17 8.17 8.17 8.17 0 0 0 8.17 8.17 8.17 8.17 0 0 0 8.17-8.17" vector-effect="non-scaling-stroke"/><path stroke="#82c3c2" d="M192.7 382c6.09-13.83-3.42-27.32-17.99-27.45q-.69-.01-.7.69l-.02 2.85q0 .58-.58.58h-8.64a2.87 2.87 0 0 0-2.03.84q-9.62 9.64-4.25 22.49" vector-effect="non-scaling-stroke"/><path stroke="#d5fd94" d="M171.98 331.19a.38.38 0 0 0-.38-.38h-25.06a.38.38 0 0 0-.38.38v25.08a.38.38 0 0 0 .38.38h25.06a.38.38 0 0 0 .38-.38v-25.08" vector-effect="non-scaling-stroke"/><path stroke="#9bd3ae" d="M251.41 369.2a6.17 6.17 0 0 0-6.17-6.17 6.17 6.17 0 0 0-6.17 6.17 6.17 6.17 0 0 0 6.17 6.17 6.17 6.17 0 0 0 6.17-6.17" vector-effect="non-scaling-stroke"/></g><path fill="#d4f34f" d="M310.92 286.51q-.69 1.74-.28 3.55a.62.61 83.9 0 1-.6.75l-41.09.01a.35.35 0 0 1-.35-.35l.02-16.71q8.01-6.77 17.57-10.88c2.73-1.17 4.8-.81 7.54-.81q.51 0 .86.37 4.33 4.5 5.5 8.33c1.97 6.37 6.62 10.95 10.83 15.74"/><path fill="#3a59d1" d="m266.59 275.41.09 16.84q0 .56.56.56h44.77a.67.67 0 0 0 .66-.78q-.33-1.91.04-3.34 10.01 11.11 26.22 29.88 10.75 12.46 14.42 27.9 1.37 5.77 1.42 15.7.06 9.91.07 19.83H195.21q.25-1.74.72-3.5c3.59-13.47-7.46-26.44-21.23-25.81q-.67.03-.67-.65l-.01-22.63a.61.6 0 0 0-.61-.6l-28.61-.01q-.64 0-.64.65v28.59q0 .63.63.63h15.26q.61 0 .21.46-8.67 10-4.07 22.87h-46.47q2.58-6.47 5.12-12.89 6.13-15.56 8.41-31.55 1.48-10.32 8.93-20.36c11.06-14.9 24.88-26.47 41.14-37.6q1.85-1.27 3.85-2.1c6.59-2.73 13.41-5.36 18.79-10.3 2.41-2.21 4.67.16 4.73 2.73q.29 12.29-3.51 21.27c-2.72 6.45-4.15 11.54-2.7 18.12q1.16 5.27 6.95 4.45 10.06-1.42 20.84-6.78 15.41-7.65 27.18-17.04 4.19-3.35 17.14-14.54m-13.18 93.81a8.17 8.17 0 0 0-8.17-8.17 8.17 8.17 0 0 0-8.17 8.17 8.17 8.17 0 0 0 8.17 8.17 8.17 8.17 0 0 0 8.17-8.17"/><path fill="#fefffe" d="m268.62 273.76-.02 16.71a.35.35 0 0 0 .35.35l41.09-.01a.62.61 83.9 0 0 .6-.75q-.41-1.81.28-3.55 1.26 1.04 1.79 2.18-.37 1.43-.04 3.34a.67.67 0 0 1-.66.78h-44.77q-.56 0-.56-.56l-.09-16.84q.73-.96 2.03-1.65M195.21 382h-2.51c6.09-13.83-3.42-27.32-17.99-27.45q-.69-.01-.7.69l-.02 2.85q0 .58-.58.58h-8.64a2.87 2.87 0 0 0-2.03.84q-9.62 9.64-4.25 22.49h-2.3q-4.6-12.87 4.07-22.87.4-.46-.21-.46h-15.26q-.63 0-.63-.63v-28.59q0-.65.64-.65l28.61.01a.61.6 0 0 1 .61.6l.01 22.63q0 .68.67.65c13.77-.63 24.82 12.34 21.23 25.81q-.47 1.76-.72 3.5m-23.23-50.81a.38.38 0 0 0-.38-.38h-25.06a.38.38 0 0 0-.38.38v25.08a.38.38 0 0 0 .38.38h25.06a.38.38 0 0 0 .38-.38z"/><rect width="25.82" height="25.84" x="146.16" y="330.81" fill="#acfa29" rx=".38"/><path fill="#068786" d="M192.7 382h-34.21q-5.37-12.85 4.25-22.49a2.87 2.87 0 0 1 2.03-.84h8.64q.58 0 .58-.58l.02-2.85q.01-.7.7-.69c14.57.13 24.08 13.62 17.99 27.45"/><path fill="#fefffe" d="M253.41 369.22a8.17 8.17 0 0 1-8.17 8.17 8.17 8.17 0 0 1-8.17-8.17 8.17 8.17 0 0 1 8.17-8.17 8.17 8.17 0 0 1 8.17 8.17m-2-.02a6.17 6.17 0 0 0-6.17-6.17 6.17 6.17 0 0 0-6.17 6.17 6.17 6.17 0 0 0 6.17 6.17 6.17 6.17 0 0 0 6.17-6.17"/><circle cx="245.24" cy="369.2" r="6.17" fill="#37a65d"/></svg>