<svg xmlns="http://www.w3.org/2000/svg" viewBox="0 0 382 382"><g fill="none" stroke-width="2"><path stroke="#adebca" d="M316.24 292.67c-11.72 20.93 8.5 44.57 30.88 37.53M146.17 382l-.03-13.04a.35.35 0 0 0-.35-.35l-15.61.01q-.57 0-.57.57l-.04 12.81M193.96 302.25c-7-.13-11.61 6.46-8.54 12.73 3.5 7.16 13.32 6.07 16.14-1.12M285.69 296.09a12.88 12.88 0 0 0-12.88-12.88 12.88 12.88 0 0 0-12.88 12.88 12.88 12.88 0 0 0 12.88 12.88 12.88 12.88 0 0 0 12.88-12.88M238.79 325.47a.33.33 0 0 0-.29-.48h-22.68a.33.33 0 0 0-.29.48l11.33 22.68a.33.33 0 0 0 .6 0l11.33-22.68M293.41 332.37a.32.32 0 0 0-.28-.47h-19.36a.32.32 0 0 0-.28.47l9.67 19.35a.32.32 0 0 0 .58 0l9.67-19.35M151.85 349.41a13.13 13.13 0 0 0-13.13-13.13 13.13 13.13 0 0 0-13.13 13.13 13.13 13.13 0 0 0 13.13 13.13 13.13 13.13 0 0 0 13.13-13.13" vector-effect="non-scaling-stroke"/><path stroke="#8cde87" d="M283.71 296.1a10.89 10.89 0 0 0-10.89-10.89 10.89 10.89 0 0 0-10.89 10.89 10.89 10.89 0 0 0 10.89 10.89 10.89 10.89 0 0 0 10.89-10.89" vector-effect="non-scaling-stroke"/><path stroke="#c7819f" d="M317.64 293.96q-6.52 13.96 1.75 25.39 9.61 13.27 26.95 9.19" vector-effect="non-scaling-stroke"/><path stroke="#adebca" d="M193.92 304.31q-6.18.11-7.24 5.35c-.68 3.32 1.09 6.83 4.35 7.83q5.63 1.72 8.53-3.93" vector-effect="non-scaling-stroke"/><path stroke="#b2b3db" d="M235.55 327.48a.33.33 0 0 0-.29-.47h-16.2a.33.33 0 0 0-.29.47l8.09 16.2a.33.33 0 0 0 .6 0l8.09-16.2" vector-effect="non-scaling-stroke"/><path stroke="#ddb89d" d="M290.15 334.36a.31.31 0 0 0-.27-.44l-12.89.02a.31.31 0 0 0-.28.45l6.47 12.88a.31.31 0 0 0 .55 0l6.42-12.91" vector-effect="non-scaling-stroke"/><path stroke="#ab93a9" d="M149.88 349.4a11.14 11.14 0 0 0-11.14-11.14 11.14 11.14 0 0 0-11.14 11.14 11.14 11.14 0 0 0 11.14 11.14 11.14 11.14 0 0 0 11.14-11.14" vector-effect="non-scaling-stroke"/><path stroke="#a585f6" d="m144.11 382-.02-10.83q0-.57-.57-.57H132.2q-.64 0-.64.63V382" vector-effect="non-scaling-stroke"/></g><path fill="#5cd694" d="M316.24 292.67c-11.72 20.93 8.5 44.57 30.88 37.53q4.19 7.69 6.21 16.19 1.38 5.83 1.45 15.86.06 9.87.06 19.75H146.17l-.03-13.04a.35.35 0 0 0-.35-.35l-15.61.01q-.57 0-.57.57l-.04 12.81H109.7c4.7-11.56 9.86-24.08 11.89-35.36 1.44-8.05 2.39-16.32 6.73-23.53 10.41-17.28 26.88-31.16 43.79-42.63 7.77-5.27 16.64-6.77 23.77-13.21 2.72-2.46 4.77.3 4.85 2.98q.39 12.53-4.99 24.49-1.38 3.07-1.78 7.51c-7-.13-11.61 6.46-8.54 12.73 3.5 7.16 13.32 6.07 16.14-1.12q10.38-1.89 18.18-5.59 17.99-8.54 31.87-20.19c11.35-9.54 22.13-20.13 35.95-25.49q2.09-.81 6.13-.34.37.04.65.29 4.1 3.58 6.36 10.16 1.45 4.26 5.68 8.92 5.08 5.6 9.86 11.05m-30.55 3.42a12.88 12.88 0 0 0-12.88-12.88 12.88 12.88 0 0 0-12.88 12.88 12.88 12.88 0 0 0 12.88 12.88 12.88 12.88 0 0 0 12.88-12.88m-46.9 29.38a.33.33 0 0 0-.29-.48h-22.68a.33.33 0 0 0-.29.48l11.33 22.68a.33.33 0 0 0 .6 0zm54.62 6.9a.32.32 0 0 0-.28-.47h-19.36a.32.32 0 0 0-.28.47l9.67 19.35a.32.32 0 0 0 .58 0zm-141.56 17.04a13.13 13.13 0 0 0-13.13-13.13 13.13 13.13 0 0 0-13.13 13.13 13.13 13.13 0 0 0 13.13 13.13 13.13 13.13 0 0 0 13.13-13.13"/><path fill="#feffff" d="M285.69 296.09a12.88 12.88 0 0 1-12.88 12.88 12.88 12.88 0 0 1-12.88-12.88 12.88 12.88 0 0 1 12.88-12.88 12.88 12.88 0 0 1 12.88 12.88m-1.98.01a10.89 10.89 0 0 0-10.89-10.89 10.89 10.89 0 0 0-10.89 10.89 10.89 10.89 0 0 0 10.89 10.89 10.89 10.89 0 0 0 10.89-10.89"/><circle cx="272.82" cy="296.1" r="10.89" fill="#19bd0e"/><path fill="#feffff" d="m316.24 292.67 1.4 1.29q-6.52 13.96 1.75 25.39 9.61 13.27 26.95 9.19.61.51.78 1.66c-22.38 7.04-42.6-16.6-30.88-37.53"/><path fill="#90033f" d="M317.64 293.96q11.06 12.38 21.68 24.73 3.83 4.46 7.02 9.85-17.34 4.08-26.95-9.19-8.27-11.43-1.75-25.39"/><path fill="#feffff" d="m193.96 302.25-.04 2.06q-6.18.11-7.24 5.35c-.68 3.32 1.09 6.83 4.35 7.83q5.63 1.72 8.53-3.93l2 .3c-2.82 7.19-12.64 8.28-16.14 1.12-3.07-6.27 1.54-12.86 8.54-12.73"/><path fill="#5cd694" d="M193.92 304.31q.19 3.86 1.14 6.38 1.1 2.93 4.5 2.87-2.9 5.65-8.53 3.93c-3.26-1-5.03-4.51-4.35-7.83q1.06-5.24 7.24-5.35"/><path fill="#feffff" d="m238.79 325.47-11.33 22.68a.33.33 0 0 1-.6 0l-11.33-22.68a.33.33 0 0 1 .29-.48h22.68a.33.33 0 0 1 .29.48m-3.24 2.01a.33.33 0 0 0-.29-.47h-16.2a.33.33 0 0 0-.29.47l8.09 16.2a.33.33 0 0 0 .6 0z"/><path fill="#6666b7" d="m235.55 327.48-8.09 16.2a.33.33 0 0 1-.6 0l-8.09-16.2a.33.33 0 0 1 .29-.47h16.2a.33.33 0 0 1 .29.47"/><path fill="#feffff" d="m293.41 332.37-9.67 19.35a.32.32 0 0 1-.58 0l-9.67-19.35a.32.32 0 0 1 .28-.47h19.36a.32.32 0 0 1 .28.47m-3.26 1.99a.31.31 0 0 0-.27-.44l-12.89.02a.31.31 0 0 0-.28.45l6.47 12.88a.31.31 0 0 0 .55 0z"/><path fill="#bc713b" d="m290.15 334.36-6.42 12.91a.31.31 0 0 1-.55 0l-6.47-12.88a.31.31 0 0 1 .28-.45l12.89-.02a.31.31 0 0 1 .27.44"/><path fill="#feffff" d="M151.85 349.41a13.13 13.13 0 0 1-13.13 13.13 13.13 13.13 0 0 1-13.13-13.13 13.13 13.13 0 0 1 13.13-13.13 13.13 13.13 0 0 1 13.13 13.13m-1.97-.01a11.14 11.14 0 0 0-11.14-11.14 11.14 11.14 0 0 0-11.14 11.14 11.14 11.14 0 0 0 11.14 11.14 11.14 11.14 0 0 0 11.14-11.14"/><circle cx="138.74" cy="349.4" r="11.14" fill="#572752"/><path fill="#feffff" d="M146.17 382h-2.06l-.02-10.83q0-.57-.57-.57H132.2q-.64 0-.64.63V382h-1.99l.04-12.81q0-.57.57-.57l15.61-.01a.35.35 0 0 1 .35.35z"/><path fill="#4c0bed" d="M144.11 382h-12.55v-10.77q0-.63.64-.63h11.32q.57 0 .57.57z"/></svg>