<svg xmlns="http://www.w3.org/2000/svg" viewBox="0 0 382 382"><g fill="none" stroke-width="2"><path stroke="#b2db86" d="m306.59 281.88-30.11.01q-.6 0-.6.61v33.26a.39.38 0 0 0 .39.38l33.46-.01q.4 0 .4-.39l.03-29.91M348.67 333.18l-12.48-.02a.33.33 0 0 1-.29-.48l4.27-8.53q.34-.69-.43-.69h-46.79a.24.24 0 0 0-.22.34l23.47 46.92a.39.39 0 0 0 .7 0l5.27-10.64q.74-1.49.74.18l.05 21.74M157.37 291.54l-.02 45.01q0 1.13 1.13 1.13h54.75a.46.46 0 0 0 .46-.46l.01-26.63M199.92 281.3l-29.24-.03" vector-effect="non-scaling-stroke"/><path stroke="#90a1f1" d="m199.84 283.33-32.13.03" vector-effect="non-scaling-stroke"/><path stroke="#88b4d1" d="M308.14 284.39a.48.48 0 0 0-.48-.48h-29.3a.48.48 0 0 0-.48.48v29.28a.48.48 0 0 0 .48.48h29.3a.48.48 0 0 0 .48-.48v-29.28" vector-effect="non-scaling-stroke"/><path stroke="#90a1f1" d="m211.77 311.09-.06 24.17a.41.4 0 0 1-.41.4l-51.55.04a.32.32 0 0 1-.32-.32l.03-45.77" vector-effect="non-scaling-stroke"/><path stroke="#cbbcf6" d="m349.74 335.16-14.69.01a.65.64-76.3 0 0-.57.35l-9.09 18.18a4.08 4.06-31.8 0 0-.43 1.82l-.01 25.05a.87.87 0 0 0 .87.87l11.92-.09q.71-.01.86-.7.13-.6-.01-1.16-.16-.67.54-.67l15.82-.03" vector-effect="non-scaling-stroke"/><path stroke="#e1c78b" d="m354.92 380.97-13.53-.05a.8.78 22.1 0 0-.56.23q-.41.41-.08.85M337.06 325.9a.31.31 0 0 0-.28-.45H296.3a.31.31 0 0 0-.28.45l20.24 40.49a.31.31 0 0 0 .56 0l20.24-40.49" vector-effect="non-scaling-stroke"/></g><path fill="#64b70d" d="m306.59 281.88-30.11.01q-.6 0-.6.61v33.26a.39.38 0 0 0 .39.38l33.46-.01q.4 0 .4-.39l.03-29.91q14.92 16.56 29.23 33.28 5.57 6.51 9.28 14.07l-12.48-.02a.33.33 0 0 1-.29-.48l4.27-8.53q.34-.69-.43-.69h-46.79a.24.24 0 0 0-.22.34l23.47 46.92a.39.39 0 0 0 .7 0l5.27-10.64q.74-1.49.74.18l.05 21.74H109.73l5.11-12.89q5.75-14.55 8.36-31.38 1.75-11.26 8.96-20.79 10.82-14.3 25.21-25.4l-.02 45.01q0 1.13 1.13 1.13h54.75a.46.46 0 0 0 .46-.46l.01-26.63q2.79-.99 5.47-2.23 18.19-8.42 30.54-18.75 9.64-8.05 19.32-16.03 9.21-7.58 18.48-10.97 2.07-.75 6.16-.36.55.05.92.45 4.22 4.56 4.7 6.27 2 7.13 7.3 12.91M199.92 281.3l-29.24-.03q5.68-3.62 15.46-7.6 4.49-1.83 10.29-6.86.39-.34.9-.37 3.18-.2 3.31 3.34.23 5.76-.72 11.52"/><path fill="#fffffe" d="m170.68 281.27 29.24.03-.08 2.03-32.13.03zM306.59 281.88q2.3 1.74 3.57 3.95l-.03 29.91q0 .39-.4.39l-33.46.01a.39.38 0 0 1-.39-.38V282.5q0-.61.6-.61zm1.55 2.51a.48.48 0 0 0-.48-.48h-29.3a.48.48 0 0 0-.48.48v29.28a.48.48 0 0 0 .48.48h29.3a.48.48 0 0 0 .48-.48z"/><path fill="#2142e3" d="M199.84 283.33q-1.13 4.51-2.81 8.89-2.57 6.68-2.88 8.8-.73 5 .81 9.5 1.19 3.48 5.54 3.08 6-.56 11.27-2.51l-.06 24.17a.41.4 0 0 1-.41.4l-51.55.04a.32.32 0 0 1-.32-.32l.03-45.77 8.25-6.25z"/><rect width="30.26" height="30.24" x="277.88" y="283.91" fill="#1169a3" rx=".48"/><path fill="#fffffe" d="m159.46 289.61-.03 45.77a.32.32 0 0 0 .32.32l51.55-.04a.41.4 0 0 0 .41-.4l.06-24.17 1.93-.5-.01 26.63a.46.46 0 0 1-.46.46h-54.75q-1.13 0-1.13-1.13l.02-45.01q.87-1.27 2.09-1.93M348.67 333.18q.81 1.04 1.07 1.98l-14.69.01a.65.64-76.3 0 0-.57.35l-9.09 18.18a4.08 4.06-31.8 0 0-.43 1.82l-.01 25.05a.87.87 0 0 0 .87.87l11.92-.09q.71-.01.86-.7.13-.6-.01-1.16-.16-.67.54-.67l15.82-.03-.03 2.18-13.53-.05a.8.78 22.1 0 0-.56.23q-.41.41-.08.85h-17.79l-.05-21.74q0-1.67-.74-.18l-5.27 10.64a.39.39 0 0 1-.7 0l-23.47-46.92a.24.24 0 0 1 .22-.34h46.79q.77 0 .43.69l-4.27 8.53a.33.33 0 0 0 .29.48zm-11.61-7.28a.31.31 0 0 0-.28-.45H296.3a.31.31 0 0 0-.28.45l20.24 40.49a.31.31 0 0 0 .56 0z"/><path fill="#c28e17" d="m337.06 325.9-20.24 40.49a.31.31 0 0 1-.56 0l-20.24-40.49a.31.31 0 0 1 .28-.45h40.48a.31.31 0 0 1 .28.45"/><path fill="#9678ee" d="M349.74 335.16q2.74 6.29 4.14 12.92 1.05 4.99 1.05 13.43l.02 17.28-15.82.03q-.7 0-.54.67.14.56.01 1.16-.15.69-.86.7l-11.92.09a.87.87 0 0 1-.87-.87l.01-25.05a4.08 4.06-31.8 0 1 .43-1.82l9.09-18.18a.65.64-76.3 0 1 .57-.35z"/><path fill="#c28e17" d="m354.92 380.97.12 1.03h-14.29q-.33-.44.08-.85a.8.78 22.1 0 1 .56-.23z"/></svg>