<svg xmlns="http://www.w3.org/2000/svg" viewBox="0 0 382 382"><g fill="none" stroke-width="2"><path stroke="#87f5fd" d="M298.75 267.94q-.8 3.33-.44 6.65.05.51.56.59 1.57.23 2.71-.32M266.64 275.38q4.43 4.37 9.36 3.16 10.84-2.66 7.73-14.36M263.73 374.88a.43.43 0 0 1 .43.41l.06 1.24a.43.43 0 0 0 .43.41l27.67-.04a.43.43 0 0 0 .41-.31l.4-1.42a.43.43 0 0 1 .41-.31l19.49-.03a.43.43 0 0 0 .43-.43l.01-53.31a.43.43 0 0 0-.43-.43h-53.3a.43.43 0 0 0-.43.43l-.01 53.34a.43.43 0 0 0 .43.43l4 .02M192.87 337a.31.31 0 0 0-.27-.45l-15.76-.03a.31.31 0 0 0-.28.45l7.85 15.77a.31.31 0 0 0 .56 0l7.9-15.74" vector-effect="non-scaling-stroke"/><path stroke="#faabeb" d="M268.23 274.01c6.31 6.96 17.17-.41 13.46-9.02" vector-effect="non-scaling-stroke"/><path stroke="#bad393" d="M292.5 348.28a.4.4 0 0 1 .4.4v23.78a.4.4 0 0 0 .4.4l17.74-.03a.4.4 0 0 0 .4-.4v-49.37a.4.4 0 0 0-.4-.4l-49.32.01a.4.4 0 0 0-.4.4l.01 49.36a.4.4 0 0 0 .4.4l2.12.02a.4.4 0 0 0 .4-.4l-.01-23.76a.4.4 0 0 1 .4-.4l27.86-.01" vector-effect="non-scaling-stroke"/><path stroke="#84f0ad" d="M290.87 350.809a.57.57 0 0 0-.572-.57l-23.52.042a.57.57 0 0 0-.569.57l.041 23.52a.57.57 0 0 0 .572.57l23.52-.041a.57.57 0 0 0 .569-.571l-.041-23.52" vector-effect="non-scaling-stroke"/><path stroke="#8194fc" d="M189.64 338.98a.31.31 0 0 0-.28-.45h-9.32a.31.31 0 0 0-.28.45l4.66 9.31a.31.31 0 0 0 .56 0l4.66-9.31" vector-effect="non-scaling-stroke"/></g><path fill="#0eecfc" d="M298.75 267.94q-.8 3.33-.44 6.65.05.51.56.59 1.57.23 2.71-.32 1.91 3.43 4.62 6.45 16.05 17.86 32.75 37.23 10.68 12.39 14.4 27.88 1.37 5.73 1.43 15.79.05 9.89.05 19.79H109.74q2.47-6.28 4.95-12.53 6-15.09 8.64-32.16 1.62-10.45 8.79-20.06c11.15-14.94 25.22-26.58 40.21-36.99 7.53-5.23 16.4-6.38 23.2-12.75 2.77-2.6 5.15-.38 5.19 2.69q.11 8.56-1.84 16.13c-1.11 4.34-3.4 8.14-4.38 12.46q-1.03 4.59-.17 9.89c1.16 7.14 8.21 5.3 13.02 3.95q7.85-2.19 12.97-4.67 17.07-8.26 29.28-18.12 3.54-2.85 17.04-14.46 4.43 4.37 9.36 3.16 10.84-2.66 7.73-14.36 4.67-2.75 10.17-1.86.5.08.82.48zm-35.02 106.94a.43.43 0 0 1 .43.41l.06 1.24a.43.43 0 0 0 .43.41l27.67-.04a.43.43 0 0 0 .41-.31l.4-1.42a.43.43 0 0 1 .41-.31l19.49-.03a.43.43 0 0 0 .43-.43l.01-53.31a.43.43 0 0 0-.43-.43h-53.3a.43.43 0 0 0-.43.43l-.01 53.34a.43.43 0 0 0 .43.43zM192.87 337a.31.31 0 0 0-.27-.45l-15.76-.03a.31.31 0 0 0-.28.45l7.85 15.77a.31.31 0 0 0 .56 0z"/><path fill="#fffefe" d="M283.73 264.18q3.11 11.7-7.73 14.36-4.93 1.21-9.36-3.16.67-.88 1.59-1.37c6.31 6.96 17.17-.41 13.46-9.02q.87-.66 2.04-.81"/><path fill="#f458d7" d="M281.69 264.99c3.71 8.61-7.15 15.98-13.46 9.02q6.29-5.2 13.46-9.02"/><path fill="#fffefe" d="m298.75 267.94 2.83 6.92q-1.14.55-2.71.32-.51-.08-.56-.59-.36-3.32.44-6.65M263.73 374.88l-4-.02a.43.43 0 0 1-.43-.43l.01-53.34a.43.43 0 0 1 .43-.43h53.3a.43.43 0 0 1 .43.43l-.01 53.31a.43.43 0 0 1-.43.43l-19.49.03a.43.43 0 0 0-.41.31l-.4 1.42a.43.43 0 0 1-.41.31l-27.67.04a.43.43 0 0 1-.43-.41l-.06-1.24a.43.43 0 0 0-.43-.41m28.77-26.6a.4.4 0 0 1 .4.4v23.78a.4.4 0 0 0 .4.4l17.74-.03a.4.4 0 0 0 .4-.4v-49.37a.4.4 0 0 0-.4-.4l-49.32.01a.4.4 0 0 0-.4.4l.01 49.36a.4.4 0 0 0 .4.4l2.12.02a.4.4 0 0 0 .4-.4l-.01-23.76a.4.4 0 0 1 .4-.4zm-1.63 2.529a.57.57 0 0 0-.572-.57l-23.52.042a.57.57 0 0 0-.569.57l.041 23.52a.57.57 0 0 0 .572.57l23.52-.041a.57.57 0 0 0 .569-.571z"/><path fill="#74a827" d="m292.5 348.28-27.86.01a.4.4 0 0 0-.4.4l.01 23.76a.4.4 0 0 1-.4.4l-2.12-.02a.4.4 0 0 1-.4-.4l-.01-49.36a.4.4 0 0 1 .4-.4l49.32-.01a.4.4 0 0 1 .4.4v49.37a.4.4 0 0 1-.4.4l-17.74.03a.4.4 0 0 1-.4-.4v-23.78a.4.4 0 0 0-.4-.4"/><path fill="#fffefe" d="m192.87 337-7.9 15.74a.31.31 0 0 1-.56 0l-7.85-15.77a.31.31 0 0 1 .28-.45l15.76.03a.31.31 0 0 1 .27.45m-3.23 1.98a.31.31 0 0 0-.28-.45h-9.32a.31.31 0 0 0-.28.45l4.66 9.31a.31.31 0 0 0 .56 0z"/><path fill="#0229f9" d="m189.64 338.98-4.66 9.31a.31.31 0 0 1-.56 0l-4.66-9.31a.31.31 0 0 1 .28-.45h9.32a.31.31 0 0 1 .28.45"/><rect width="24.66" height="24.66" x="-12.33" y="-12.33" fill="#09e25b" rx=".57" transform="rotate(-.1 207887.994 -159421.788)"/></svg>