<svg xmlns="http://www.w3.org/2000/svg" viewBox="0 0 382 382"><g fill="none" stroke-width="2"><path stroke="#259971" d="M86.76 140.13q.07.24-.01.6-.14.69.47.33.51-.31 1.14-.18a1.01.98 76.6 0 1 .64.41q.74 1.06 1.75 1.08 1.14.02 1.23-1.38M92.81 141.14q.27.72 1.1.71.13 0 .2-.12.06-.1.05-.24M96.51 142.19q.36.66.36 1.22 0 .62-.61.55-.55-.07-.93.34-.54.57.24.57h.87q.87.01.5.79-.09.2-.28.29-.75.37-.56 1.17.09.38-.18.65-.43.45.02.86l.86.78" vector-effect="non-scaling-stroke"/><path stroke="#207e72" d="M96.14 150.79q-.41.02-.92-.13" vector-effect="non-scaling-stroke"/><path stroke="#368a94" d="M95.22 150.66q-.73-.67-.02-1.85.23-.38-.1-.67-.14-.13-.19-.32-.08-.33.01-.67.49-1.79-1.21-2.87-2.36-1.5-5.07-1.02-.58.1-.97.55-.53.6-.7 1.36-.1.48-.49.78l-1.38 1.08" vector-effect="non-scaling-stroke"/><path stroke="#259971" d="M84.89 145.21q.08-.63-.29-.98" vector-effect="non-scaling-stroke"/><path stroke="#1f956d" d="M100.7 143.62q-.45.5-.98.71-.46.18-.84-.15-.62-.56-1.35-.09-.44.29-.1.7l1.37 1.67q.08.1.03.22-.12.27-.42.23-.36-.05-.48-.39-.05-.15-.18-.25-.37-.3-.55.14-.29.7.12 1.55" vector-effect="non-scaling-stroke"/><path stroke="#442092" d="M95.22 150.66q-1.12-.25-2.02.02M92.48 150.62q-1.28-.23-1.5.65-.27 1.06.82 1.07M91.28 153.57q-3.19 1.38-2.72 2.85" vector-effect="non-scaling-stroke"/><path stroke="#4c20ab" d="M88.56 156.42q-1.07.24-1.3.73-.24.54.31.73 1.67.57 2.74-1.64" vector-effect="non-scaling-stroke"/><path stroke="#442092" d="M90.31 156.24q-.53-.2.26.49" vector-effect="non-scaling-stroke"/><path stroke="#3a1c75" d="M90.03 158.69q-.87.03-1.68 1.88M85.92 156.94q.08-.57.78-1.03.42-.28.25-.75-.08-.22-.28-.35-.26-.16-.8-.03-.39.1-.81.17" vector-effect="non-scaling-stroke"/><path stroke="#1b7b6d" d="M111.01 147.18q1.24 2.53 3.34 1.22" vector-effect="non-scaling-stroke"/><path stroke="#237b86" d="M116.59 148.59q1.22 1.01.18 3.05-.6 1.18-.69-.14-.03-.45-.24-.77-.73-1.05-.87.24-.02.24.1.97" vector-effect="non-scaling-stroke"/><path stroke="#1b7b6d" d="M113.98 157.97q-1.15 1.47-2.43.33a.23.23 0 0 0-.35.06l-.14.27q-.01.03.01.05l1.7 1.53q.41.36-.05.65-.51.31-1.51.21" vector-effect="non-scaling-stroke"/><path stroke="#237b86" d="M104.73 157.83q-.8-.98-1.59-.07a.7.69-40.8 0 1-1.11-.08q-1.26-1.97-5.01-2.34" vector-effect="non-scaling-stroke"/><path stroke="#237b86" d="M97.1 153.46q2.02 3.74 2.1-1.91.01-.44.4-.62l.3-.13q.56-.26.29-.82-1-2.11-2.44-2.02" vector-effect="non-scaling-stroke"/><path stroke="#361588" d="M90.31 156.24q-1.06-.11-1.75.18" vector-effect="non-scaling-stroke"/><path stroke="#287f8b" d="M119.34 148.88q-.55 2.13-1.54 3.39-.52.67-1.84.67" vector-effect="non-scaling-stroke"/><path stroke="#2e7695" d="M103.81 160.67q-.99-.82-2.05-.78-1.03.04-.91-.98.23-2.01-1.09-1.97-.75.01-1.63.96" vector-effect="non-scaling-stroke"/><path stroke="#361588" d="m98.13 157.9-1.04.02" vector-effect="non-scaling-stroke"/><path stroke="#287f8b" d="m120.49 149.89-1.49 1.55q-.14.15.01.29l.21.19q.25.22.45-.05.32-.45.85-.64.73-.25.63.51l-.23 1.65q-.08.51-.58.63-1.09.26-2.22.02-1.91-.4-.74 1.16.4.55.66 1.17.16.39.54.55.45.2.91.01a.87.87 0 0 0 .53-.68q.2-1.35 1.47-2.16.38-.24.47-.67.1-.48-.01-.98-.13-.6.46-.77.27-.08.62.11M125.78 152.04q1.54.65.85 1.99M125.72 154.47q-.97-.45-1.72-1.23-.25-.27-.51 0-.43.45.05.82.42.32.34.85-.16 1.01-1.18 1.16-.24.04-.43-.11-.13-.09-.18-.23-.2-.53.35-.66.45-.1.65-.49.1-.19-.04-.35l-.2-.23q-.32-.36-.58.05l-1.22 1.9a.59.59 0 0 0 .43.9q1.16.13 3.12-.81" vector-effect="non-scaling-stroke"/><path stroke="#207e72" d="M123.41 158.46q-.28-.41-.69-.34-.5.07-.71.53-.17.39-.6.31-.11-.02-.2-.09-.13-.11-.16-.26-.16-.72-.81-.38-.7.37-.96.98-.42 1.01.48.39 1.16-.8 1.72.56.15.35-.22.45l-1.77.44a.5.49-32.2 0 0-.2.86q.77.63 1.23 1.62.26.55.55.02.11-.2.03-.54-.17-.76.87-.7" vector-effect="non-scaling-stroke"/><path stroke="#167b55" d="M120.72 166.61q-.95-2.16-2.24-1.62M117.78 163.6q.31-2.39-1.58-5.08" vector-effect="non-scaling-stroke"/><path stroke="#26767c" d="M100.68 167.55c.37-1.05 1.25-1.86 1.39-2.86q.12-.8-.67-.85-.84-.05-.58-.85t1.22-1.05q1.15-.3.09-.83l-1.14-.58a.74.74 0 0 0-1.07.72l.23 2.47q.02.3-.22.48-.13.1-.28.09-.49-.03-.57-.51l-.95-5.88" vector-effect="non-scaling-stroke"/><path stroke="#5664a4" d="m131.86 155.01-.75.16q-.56.11-.36.65.22.61 1.11.96" vector-effect="non-scaling-stroke"/><path stroke="#2e7695" d="M128.91 157.38q1.2-2.81-1.74-2.36" vector-effect="non-scaling-stroke"/><path stroke="#361588" d="M126.53 151.41q.52.55-.75.63" vector-effect="non-scaling-stroke"/><path stroke="#207e72" d="M125.78 152.04q-1.74.28-2.75-.26" vector-effect="non-scaling-stroke"/><path stroke="#361588" d="M123.03 151.78q.18-.58.02-.95a.18.17-32.7 0 0-.28-.05q-.13.12-.28.05-.26-.11-.43-.41-.52-.91-1.57-.53" vector-effect="non-scaling-stroke"/><path stroke="#207e72" d="M120.49 149.89q.02-.34-.21-.93" vector-effect="non-scaling-stroke"/><path stroke="#26767c" d="M123.26 158.8q-.53.15-.84.49-.25.26-.17.54.09.3.49.44" vector-effect="non-scaling-stroke"/><path stroke="#237b86" d="M145 146.49q.2 1.46-1.03 1.86-.5.16-.63.67-.17.73-.92.85-.48.07-.41.54.08.52.49.63 1.51.42.98.81" vector-effect="non-scaling-stroke"/><path stroke="#117750" d="M143.48 151.85q-1.25.5-2.6.71-.95.15-.11.34.36.09 1.03.01" vector-effect="non-scaling-stroke"/><path stroke="#237b86" d="M141.27 154.2q-.85-.14-1.08-.74-.11-.28-.21-.38-.19-.17-.43-.12-.6.11-.53.71.1.91.74 1.58.26.27 0 .54l-.2.21q-.41.43-.03.89.4.47 1.06.82" vector-effect="non-scaling-stroke"/><path stroke="#66c260" d="M140.17 159.08q-.96.13-1.41 1.35" vector-effect="non-scaling-stroke"/><path stroke="#237b86" d="M138.76 160.43q-.6.02-.9-.93" vector-effect="non-scaling-stroke"/><path stroke="#117750" d="M137.86 159.5q-.72-.97-1.02-2.18-.04-.14-.17-.17-.18-.05-.34.02-.23.1-.22.35.04 1.76-1.79 1.97" vector-effect="non-scaling-stroke"/><path stroke="#237b86" d="M131.95 154.05q-1.27.47-1.73-.33-.28-.48.2-.76.75-.46.46-1.37-.19-.59-.7-.24-.34.23-.3.59a1.1 1.09-71.3 0 1-1.85.92l-1.5-1.45" vector-effect="non-scaling-stroke"/><path stroke="#1b7b6d" d="m126.53 151.41 5.16-3.1" vector-effect="non-scaling-stroke"/><path stroke="#117750" d="M138.03 147.14q.37.16.74-.01M139.71 149.03q-.76.07-1.41-.34-.25-.16-.43.08-.07.09-.09.25-.02.24.15.44.67.82 2.36.3" vector-effect="non-scaling-stroke"/><path stroke="#2e7695" d="M139.81 163.23q-2.41-.78-3.17.44" vector-effect="non-scaling-stroke"/><path stroke="#4c20ab" d="M135.99 162.41q.37-.35.05-.86-.36-.56-.78-.34" vector-effect="non-scaling-stroke"/><path stroke="#2c116b" d="M137.86 159.5q-.5 1.45-2.36.53-.56-.27-.8.18" vector-effect="non-scaling-stroke"/><path stroke="#117750" d="M144.21 146.39h-.74" vector-effect="non-scaling-stroke"/><path stroke="#318690" d="M141.77 146.6q.69 4.15-1.48 3.16" vector-effect="non-scaling-stroke"/><path stroke="#3a1c75" d="m140.29 149.76-.58-.73" vector-effect="non-scaling-stroke"/><path stroke="#318690" d="M139.71 149.03q.96-.65-.55-1.91" vector-effect="non-scaling-stroke"/><path stroke="#2c116b" d="M145.7 146.39q-.26.1-.7.1" vector-effect="non-scaling-stroke"/><path stroke="#117750" d="m145 146.49-.28-.06" vector-effect="non-scaling-stroke"/><path stroke="#825c7b" d="M139.9 161.81q-.78-.03-1.14-1.38" vector-effect="non-scaling-stroke"/><path stroke="#3b2f88" d="M149.97 147.58q-.04.09-.08.17" vector-effect="non-scaling-stroke"/><path stroke="#825c7b" d="M149.89 147.75q-.35-.08-.68 0-.54.14-.47.69.15 1.13 1.06 1.67" vector-effect="non-scaling-stroke"/><path stroke="#237b86" d="M149.8 150.11q.07.75.39 1.25.28.44.75.23.15-.08.31-.16.96-.48.18.26-.98.94-.44 3.18" vector-effect="non-scaling-stroke"/><path stroke="#825c7b" d="M149.14 152.48q-.7-.63-.39-1.61.11-.36-.13-.66-.12-.15-.29-.24-.71-.36-.38-1.08t-.25-1.2q-.36-.3-.67.04-1.06 1.13-.91 2.43.06.49.47.76.78.5 1.27 1.45.33.64 1.11.61" vector-effect="non-scaling-stroke"/><path stroke="#2c116b" d="M142.98 153.04q.58.06.86-.1a.59.58 63 0 0 .23-.73q-.14-.34-.59-.36" vector-effect="non-scaling-stroke"/><path stroke="#2b907b" d="M139.69 163.98q-.53.1-.37.75.09.35.4.29" vector-effect="non-scaling-stroke"/><path stroke="#1f956d" d="M152.51 148.68q.07.48-.49.44-.47-.03-.9.18l-.87.43" vector-effect="non-scaling-stroke"/><path stroke="#7e7662" d="m150.25 149.73-.36-1.98" vector-effect="non-scaling-stroke"/><path stroke="#237b86" d="M161.94 151.52q.08 1.37-.91 1.13" vector-effect="non-scaling-stroke"/><path stroke="#318690" d="M161.03 152.65q-1.1-.22-2.38 1.28" vector-effect="non-scaling-stroke"/><path stroke="#1b7b6d" d="M152.31 161.31q.87-.36 1.36-1.1.28-.43.06-.9-.8-1.71-2.44-2.61" vector-effect="non-scaling-stroke"/><path stroke="#66c260" d="M150.25 149.73q-.18.23-.45.38" vector-effect="non-scaling-stroke"/><path stroke="#2e7695" d="M163.06 152.19q.12 1.24-.69 1.84-.5.36-.46.97l.07 1.56q.03.45-.42.41l-.38-.03q-.2-.02-.15-.21.37-1.74-.29-3.12" vector-effect="non-scaling-stroke"/><path stroke="#4c20ab" d="M160.74 153.61q.55-.39.29-.96" vector-effect="non-scaling-stroke"/><path stroke="#361588" d="M152.11 160.17q.33.12.4.02a1.04 1.04 0 0 0-.08-1.26q-.28-.31-.64-.09" vector-effect="non-scaling-stroke"/><path stroke="#26767c" d="M166.01 153.73q-.94.19-1.87.22-.44.02-.62.35a.43.42-68.3 0 0 .26.61l.85.25q.65.19.13.63l-.55.47q-.39.33-.28.83.23 1.11-1.25 2.29-1.35 1.08.34.8.51-.09 1.35.44M159.48 155.5l-.18-.69" vector-effect="non-scaling-stroke"/><path stroke="#3c819e" d="M159.09 154.33q.75-.14 1.65-.72" vector-effect="non-scaling-stroke"/><path stroke="#361588" d="m168.24 154.58-.35 2.14a.45.45 0 0 0 .41.51q1.46.11 1.9.68" vector-effect="non-scaling-stroke"/><path stroke="#4e648b" d="M170.2 157.91q.33.61-.09.85-1.21.69-2.39.38-.71-.19-.85.53-.14.78.54 1.26a1.12 1.07-21.8 0 0 .47.19q.95.14 1.51.87a.61.61 0 0 1-.2.92q-.13.06-.26.11-.7.24-.28.85.84 1.22 2.1 1.75" vector-effect="non-scaling-stroke"/><path stroke="#361588" d="M167.51 164.79c.84-.78.35-2.21-.83-2.25" vector-effect="non-scaling-stroke"/><path stroke="#4e648b" d="M166.14 157.4q.97-.04 1-.92.04-1.02-.81-1.12-.55-.07-.67.48-.1.48.06 1.13" vector-effect="non-scaling-stroke"/><path stroke="#287f8b" d="M173.79 156.24q.08.76.48 1.27.24.3.62.35 1.2.19 1.46 1.4.12.58.59.22.87-.67 1.89-.32a.99.98 34.7 0 0 .91-.16q.32-.25.48-.75" vector-effect="non-scaling-stroke"/><path stroke="#237b86" d="M182.3 158.69q-.91 1.61-2.65 2.97" vector-effect="non-scaling-stroke"/><path stroke="#287f8b" d="M179.65 161.66q.17.24-.22.21-.25-.01-.38-.23-.45-.73-1.38-.72-.41.01-.67-.25-.15-.15-.08-.35a.42.42 0 0 0-.32-.55q-.31-.06-.57.14-.41.31-.86.05-.87-.49-1.38-.11" vector-effect="non-scaling-stroke"/><path stroke="#5664a4" d="M171.09 163.73q-.75-.38-.74-.91 0-.24.2-.35l.24-.13q.47-.25.32-.76-.22-.79-1.08-.75-.97.06-.49-.79.68-1.18 1.76-1.12.7.05.43-.59-.74-1.71-1.53-.42" vector-effect="non-scaling-stroke"/><path stroke="#1b7b6d" d="M190.74 159.27q1.17.76.77 1.95-.15.47.31.63.22.08.44-.02.39-.17.61-.55.35-.6.54-1.23.24-.8.45.01.51 1.92 2.1 3.3" vector-effect="non-scaling-stroke"/><path stroke="#318690" d="M195.03 166.26q-1.62 1.05-3.56 1.04-.53 0-.63.52-.34 1.84 1.27 2.24.89.21.25.86-.11.11-.25.12-.66.05-.58.7.12.96-.58 1.29" vector-effect="non-scaling-stroke"/><path stroke="#1f956d" d="M187.7 162.26q1.44-.6.81-.97-.44.32-.81.97" vector-effect="non-scaling-stroke"/><path stroke="#318690" d="M182.81 167.15q1.41-.86 1.47-2.48.03-.5-.47-.55-1.57-.15-2.8-1.17" vector-effect="non-scaling-stroke"/><path stroke="#0de570" d="M180.54 162.7q-.16-.49-.89-1.04" vector-effect="non-scaling-stroke"/><path stroke="#259971" d="M179.95 163.06q-.44.41-.05.94" vector-effect="non-scaling-stroke"/><path stroke="#207e72" d="M179.89 166.47q-.33.24-.49.51-.28.49.11.9l.4.4" vector-effect="non-scaling-stroke"/><path stroke="#287f8b" d="M176.52 167.5q.57-.53.28-1.33-.19-.52.2-.91l.26-.25q.53-.52-.02-1.02-.24-.22-.12-.52.18-.46.67-.48.4-.01.74-.19.84-.46-.1-.63-.99-.17-1.36-.94-.29-.6-.71-.09l-.5.6q-.37.46-.82.08l-.75-.61" vector-effect="non-scaling-stroke"/><path stroke="#207e72" d="M200.72 159.21q-1.38.62-1.35 1.65.07 2.38-1.4.5-.45-.57-.8-1.17-.33-.57-.84-.16-.6.49-.79 1.16-.14.48.27.77.47.34.43.66" vector-effect="non-scaling-stroke"/><path stroke="#40ce8e" d="M204.24 159.92q-.98-.18-1.08.57-.23 1.73.66 1.82" vector-effect="non-scaling-stroke"/><path stroke="#259971" d="m202.98 164.29-.44.04q-.46.04-.47.5-.03 1.26-1.46 1.96-1.31.63-1.63-.79-.26-1.16-1.71-2.26" vector-effect="non-scaling-stroke"/><path stroke="#2b907b" d="m201.3 168.75-.03-.39q-.05-.52-.58-.44-1.69.26-2.6-.92M200.86 169.19q-.29-.19-.54.12-.8 1-.1 1.69" vector-effect="non-scaling-stroke"/><path stroke="#287f8b" d="M85.67 143.29q1.16.57 1.9-.62.3-.48-.2-.73-1.55-.76-3.03.17-1.07.68.17.91c.45.08.73.05 1.16.27" vector-effect="non-scaling-stroke"/><path stroke="#4c20ab" d="M91.224 146.122a.89.55 28.3 0 0-.523-.906.89.55 28.3 0 0-1.045.062.89.55 28.3 0 0 .523.906.89.55 28.3 0 0 1.045-.062" vector-effect="non-scaling-stroke"/><path stroke="#3a1c75" d="M89.443 152.3a1.33.82 90.3 0 0 .827-1.326 1.33.82 90.3 0 0-.813-1.334 1.33.82 90.3 0 0-.827 1.326 1.33.82 90.3 0 0 .813 1.334" vector-effect="non-scaling-stroke"/><path stroke="#4c20ab" d="M86.454 153.012a.7.6 98.7 0 0 .7-.601.7.6 98.7 0 0-.488-.783.7.6 98.7 0 0-.7.601.7.6 98.7 0 0 .488.783" vector-effect="non-scaling-stroke"/><path stroke="#237b86" d="M99.94 148.8q.11.24.38.26.33.02.55-.21a.37.37 0 0 0 .01-.49q-.19-.22-.5-.23a.47.47 0 0 0-.44.67" vector-effect="non-scaling-stroke"/><path stroke="#1b7b6d" d="M102.57 149.57q.1-.32-.21-.2-1.49.55-2.27 1.93-.38.67.39.68l.78.01q.56.01.73-.53l.58-1.89" vector-effect="non-scaling-stroke"/><path stroke="#1f956d" d="M111.25 150.63q.18.37.54-.01.29-.3-.12-.36-.65-.1-.42.37" vector-effect="non-scaling-stroke"/><path stroke="#4c20ab" d="M147.17 154.51a.62.62 0 0 0-.62-.62.62.62 0 0 0-.62.62.62.62 0 0 0 .62.62.62.62 0 0 0 .62-.62" vector-effect="non-scaling-stroke"/><path stroke="#117750" d="M151.782 154.882a1.2.73 129.8 0 0 1.329-.455 1.2.73 129.8 0 0 .207-1.389 1.2.73 129.8 0 0-1.329.455 1.2.73 129.8 0 0-.207 1.389" vector-effect="non-scaling-stroke"/><path stroke="#5664a4" d="M130.346 158.007a.59.47 114.4 0 0 .672-.343.59.47 114.4 0 0-.184-.731.59.47 114.4 0 0-.672.343.59.47 114.4 0 0 .184.731" vector-effect="non-scaling-stroke"/><path stroke="#3bca89" d="M192.88 163.41q-.27-.21-.57-.06-.32.15-.02.36.35.24.62-.07a.16.16 0 0 0-.03-.23" vector-effect="non-scaling-stroke"/></g><path fill="#12e874" d="M86.76 140.13q.07.24-.01.6-.14.69.47.33.51-.31 1.14-.18a1.01.98 76.6 0 1 .64.41q.74 1.06 1.75 1.08 1.14.02 1.23-1.38l.83.15q.27.72 1.1.71.13 0 .2-.12.06-.1.05-.24l2.35.7q.36.66.36 1.22 0 .62-.61.55-.55-.07-.93.34-.54.57.24.57h.87q.87.01.5.79-.09.2-.28.29-.75.37-.56 1.17.09.38-.18.65-.43.45.02.86l.86.78-.66 1.38q-.41.02-.92-.13-.73-.67-.02-1.85.23-.38-.1-.67-.14-.13-.19-.32-.08-.33.01-.67.49-1.79-1.21-2.87-2.36-1.5-5.07-1.02-.58.1-.97.55-.53.6-.7 1.36-.1.48-.49.78l-1.38 1.08q-.34-.82-.21-1.82.08-.63-.29-.98l-3.21-1.55a.61.6 19.4 0 1-.33-.68c.51-2.2 3.62-2.05 5.7-1.87m-1.09 3.16q1.16.57 1.9-.62.3-.48-.2-.73-1.55-.76-3.03.17-1.07.68.17.91c.45.08.73.05 1.16.27"/><path fill="#37496e" d="M91.98 140.99q-.09 1.4-1.23 1.38-1.01-.02-1.75-1.08a1.01.98 76.6 0 0-.64-.41q-.63-.13-1.14.18-.61.36-.47-.33.08-.36.01-.6 2.67-.15 5.22.86M94.16 141.49q.01.14-.05.24-.07.12-.2.12-.83.01-1.1-.71.77-.21 1.35.35"/><path fill="#3e15a1" d="M85.67 143.29c-.43-.22-.71-.19-1.16-.27q-1.24-.23-.17-.91 1.48-.93 3.03-.17.5.25.2.73-.74 1.19-1.9.62"/><path fill="#37496e" d="M100.7 143.62q-.45.5-.98.71-.46.18-.84-.15-.62-.56-1.35-.09-.44.29-.1.7l1.37 1.67q.08.1.03.22-.12.27-.42.23-.36-.05-.48-.39-.05-.15-.18-.25-.37-.3-.55.14-.29.7.12 1.55l-.52 1.45-.86-.78q-.45-.41-.02-.86.27-.27.18-.65-.19-.8.56-1.17.19-.09.28-.29.37-.78-.5-.79h-.87q-.78 0-.24-.57.38-.41.93-.34.61.07.61-.55 0-.56-.36-1.22z"/><path fill="#5a2bb4" d="M95.22 150.66q-1.12-.25-2.02.02-.31-.11-.72-.06-1.28-.23-1.5.65-.27 1.06.82 1.07l-.52 1.23q-3.19 1.38-2.72 2.85-1.07.24-1.3.73-.24.54.31.73 1.67.57 2.74-1.64-.53-.2.26.49l-.54 1.96q-.87.03-1.68 1.88-1.75-1.34-2.43-3.63.08-.57.78-1.03.42-.28.25-.75-.08-.22-.28-.35-.26-.16-.8-.03-.39.1-.81.17-1.49-3.6.04-7.92l1.38-1.08q.39-.3.49-.78.17-.76.7-1.36.39-.45.97-.55 2.71-.48 5.07 1.02 1.7 1.08 1.21 2.87-.09.34-.01.67.05.19.19.32.33.29.1.67-.71 1.18.02 1.85m-3.996-4.538a.89.55 28.3 0 0-.523-.906.89.55 28.3 0 0-1.045.062.89.55 28.3 0 0 .523.906.89.55 28.3 0 0 1.045-.062m-1.781 6.178a1.33.82 90.3 0 0 .827-1.326 1.33.82 90.3 0 0-.813-1.334 1.33.82 90.3 0 0-.827 1.326 1.33.82 90.3 0 0 .813 1.334m-2.989.712a.7.6 98.7 0 0 .7-.601.7.6 98.7 0 0-.488-.783.7.6 98.7 0 0-.7.601.7.6 98.7 0 0 .488.783"/><path fill="#07e16b" d="m100.7 143.62 10.31 3.56q1.24 2.53 3.34 1.22.94-.11 2.24.19 1.22 1.01.18 3.05-.6 1.18-.69-.14-.03-.45-.24-.77-.73-1.05-.87.24-.02.24.1.97 0 3.23-1.09 6.03-1.15 1.47-2.43.33a.23.23 0 0 0-.35.06l-.14.27q-.01.03.01.05l1.7 1.53q.41.36-.05.65-.51.31-1.51.21-3.01-4.2-3.26-8.53-.15-2.5-1.15-.2-1.01 2.3-2.07 5.49-.8-.98-1.59-.07a.7.69-40.8 0 1-1.11-.08q-1.26-1.97-5.01-2.34l.08-1.88q2.02 3.74 2.1-1.91.01-.44.4-.62l.3-.13q.56-.26.29-.82-1-2.11-2.44-2.02h-.43q-.41-.85-.12-1.55.18-.44.55-.14.13.1.18.25.12.34.48.39.3.04.42-.23.05-.12-.03-.22l-1.37-1.67q-.34-.41.1-.7.73-.47 1.35.09.38.33.84.15.53-.21.98-.71m-.76 5.18q.11.24.38.26.33.02.55-.21a.37.37 0 0 0 .01-.49q-.19-.22-.5-.23a.47.47 0 0 0-.44.67m2.63.77q.1-.32-.21-.2-1.49.55-2.27 1.93-.38.67.39.68l.78.01q.56.01.73-.53zm8.68 1.06q.18.37.54-.01.29-.3-.12-.36-.65-.1-.42.37"/><path fill="#37496e" d="m84.89 145.21-.29-.98q.37.35.29.98"/><ellipse fill="#3e15a1" rx=".89" ry=".55" transform="rotate(28.3 -243.74 252.216)"/><path fill="#1a0d35" d="M144.21 146.39h-.74zM145.7 146.39q-.26.1-.7.1l-.28-.06q.55-.15.98-.04"/><path fill="#5a2bb4" d="M141.77 146.6q.69 4.15-1.48 3.16l-.58-.73q.96-.65-.55-1.91z"/><path fill="#07e16b" d="M143.47 146.39h.74l.51.04.28.06q.2 1.46-1.03 1.86-.5.16-.63.67-.17.73-.92.85-.48.07-.41.54.08.52.49.63 1.51.42.98.81-1.25.5-2.6.71-.95.15-.11.34.36.09 1.03.01-.14.78-.53 1.29-.85-.14-1.08-.74-.11-.28-.21-.38-.19-.17-.43-.12-.6.11-.53.71.1.91.74 1.58.26.27 0 .54l-.2.21q-.41.43-.03.89.4.47 1.06.82l-.42 1.37q-.96.13-1.41 1.35-.6.02-.9-.93-.72-.97-1.02-2.18-.04-.14-.17-.17-.18-.05-.34.02-.23.1-.22.35.04 1.76-1.79 1.97l-1.65-6.35q-.14-.54-.47-.1-.22.28-.25 1.01-1.27.47-1.73-.33-.28-.48.2-.76.75-.46.46-1.37-.19-.59-.7-.24-.34.23-.3.59a1.1 1.09-71.3 0 1-1.85.92l-1.5-1.45 5.16-3.1 6.34-1.17q.37.16.74-.01.24-.05.39-.01 1.51 1.26.55 1.91-.76.07-1.41-.34-.25-.16-.43.08-.07.09-.09.25-.02.24.15.44.67.82 2.36.3 2.17.99 1.48-3.16z"/><path fill="#3e15a1" d="m145.7 146.39 4.27 1.19q-.04.09-.08.17-.35-.08-.68 0-.54.14-.47.69.15 1.13 1.06 1.67.07.75.39 1.25.28.44.75.23.15-.08.31-.16.96-.48.18.26-.98.94-.44 3.18-.81-1.85-1.85-2.39-.7-.63-.39-1.61.11-.36-.13-.66-.12-.15-.29-.24-.71-.36-.38-1.08t-.25-1.2q-.36-.3-.67.04-1.06 1.13-.91 2.43.06.49.47.76.78.5 1.27 1.45.33.64 1.11.61-.19 2.75-1.35 5.04a1.04 1.04 0 0 1-1.64.28q-2.33-2.21-3-5.26.58.06.86-.1a.59.58 63 0 0 .23-.73q-.14-.34-.59-.36.53-.39-.98-.81-.41-.11-.49-.63-.07-.47.41-.54.75-.12.92-.85.13-.51.63-.67 1.23-.4 1.03-1.86.44 0 .7-.1m1.47 8.12a.62.62 0 0 0-.62-.62.62.62 0 0 0-.62.62.62.62 0 0 0 .62.62.62.62 0 0 0 .62-.62"/><path fill="#1a0d35" d="M138.77 147.13q-.37.17-.74.01z"/><path fill="#2e146f" d="M114.35 148.4q-2.1 1.31-3.34-1.22z"/><path fill="#c5a355" d="M149.14 152.48q-.18.28-.17.5-.78.03-1.11-.61-.49-.95-1.27-1.45-.41-.27-.47-.76-.15-1.3.91-2.43.31-.34.67-.04.58.48.25 1.2t.38 1.08q.17.09.29.24.24.3.13.66-.31.98.39 1.61"/><path fill="#37496e" d="M152.51 148.68q.07.48-.49.44-.47-.03-.9.18l-.87.43-.36-1.98q.04-.08.08-.17z"/><path fill="#c5a355" d="m149.89 147.75.36 1.98q-.18.23-.45.38-.91-.54-1.06-1.67-.07-.55.47-.69.33-.08.68 0"/><path fill="#3e15a1" d="m97.1 153.46.65-5.5q1.44-.09 2.44 2.02.27.56-.29.82l-.3.13q-.39.18-.4.62-.08 5.65-2.1 1.91M99.94 148.8a.47.47 0 0 1 .44-.67q.31.01.5.23a.37.37 0 0 1-.01.49q-.22.23-.55.21-.27-.02-.38-.26"/><path fill="#2e146f" d="m131.69 148.31-5.16 3.1q.52.55-.75.63-1.74.28-2.75-.26.18-.58.02-.95a.18.17-32.7 0 0-.28-.05q-.13.12-.28.05-.26-.11-.43-.41-.52-.91-1.57-.53.02-.34-.21-.93z"/><path fill="#3e15a1" d="M119.34 148.88q-.55 2.13-1.54 3.39-.52.67-1.84.67-.34-1.03-.89-1-.12-.73-.1-.97.14-1.29.87-.24.21.32.24.77.09 1.32.69.14 1.04-2.04-.18-3.05z"/><path fill="#1a0d35" d="m139.71 149.03.58.73q-1.69.52-2.36-.3-.17-.2-.15-.44.02-.16.09-.25.18-.24.43-.08.65.41 1.41.34"/><path fill="#07e16b" d="M161.94 151.52q.08 1.37-.91 1.13-1.1-.22-2.38 1.28-1.95 3.94-2.73 7.22-.45 1.84-2.03 1.85-.69 0-1.1-.47-.43-.5-.48-1.22.87-.36 1.36-1.1.28-.43.06-.9-.8-1.71-2.44-2.61-.34-.9-.3-1.83-.54-2.24.44-3.18.78-.74-.18-.26-.16.08-.31.16-.47.21-.75-.23-.32-.5-.39-1.25.27-.15.45-.38l.87-.43q.43-.21.9-.18.56.04.49-.44zm-10.158 3.362a1.2.73 129.8 0 0 1.329-.455 1.2.73 129.8 0 0 .207-1.389 1.2.73 129.8 0 0-1.329.455 1.2.73 129.8 0 0-.207 1.389"/><path fill="#12e874" d="M119.34 148.88q.66.14.94.08.23.59.21.93l-1.49 1.55q-.14.15.01.29l.21.19q.25.22.45-.05.32-.45.85-.64.73-.25.63.51l-.23 1.65q-.08.51-.58.63-1.09.26-2.22.02-1.91-.4-.74 1.16.4.55.66 1.17.16.39.54.55.45.2.91.01a.87.87 0 0 0 .53-.68q.2-1.35 1.47-2.16.38-.24.47-.67.1-.48-.01-.98-.13-.6.46-.77.27-.08.62.11 1.01.54 2.75.26 1.54.65.85 1.99l-.91.44q-.97-.45-1.72-1.23-.25-.27-.51 0-.43.45.05.82.42.32.34.85-.16 1.01-1.18 1.16-.24.04-.43-.11-.13-.09-.18-.23-.2-.53.35-.66.45-.1.65-.49.1-.19-.04-.35l-.2-.23q-.32-.36-.58.05l-1.22 1.9a.59.59 0 0 0 .43.9q1.16.13 3.12-.81l-1.19 2.42q-.28-.41-.69-.34-.5.07-.71.53-.17.39-.6.31-.11-.02-.2-.09-.13-.11-.16-.26-.16-.72-.81-.38-.7.37-.96.98-.42 1.01.48.39 1.16-.8 1.72.56.15.35-.22.45l-1.77.44a.5.49-32.2 0 0-.2.86q.77.63 1.23 1.62.26.55.55.02.11-.2.03-.54-.17-.76.87-.7.08 2.42-1.25 4.3-.95-2.16-2.24-1.62-.52-.51-.7-1.39.31-2.39-1.58-5.08l-.24-5.58q1.32 0 1.84-.67.99-1.26 1.54-3.39"/><path fill="#2e146f" d="m102.57 149.57-.58 1.89q-.17.54-.73.53l-.78-.01q-.77-.01-.39-.68.78-1.38 2.27-1.93.31-.12.21.2"/><ellipse fill="#1a0d35" rx="1.33" ry=".82" transform="rotate(90.3 -30.366 119.976)"/><path fill="#3e15a1" d="M123.03 151.78q-.35-.19-.62-.11-.59.17-.46.77.11.5.01.98-.09.43-.47.67-1.27.81-1.47 2.16a.87.87 0 0 1-.53.68q-.46.19-.91-.01-.38-.16-.54-.55-.26-.62-.66-1.17-1.17-1.56.74-1.16 1.13.24 2.22-.02.5-.12.58-.63l.23-1.65q.1-.76-.63-.51-.53.19-.85.64-.2.27-.45.05l-.21-.19q-.15-.14-.01-.29l1.49-1.55q1.05-.38 1.57.53.17.3.43.41.15.07.28-.05a.18.17-32.7 0 1 .28.05q.16.37-.02.95"/><path fill="#37496e" d="M111.25 150.63q-.23-.47.42-.37.41.06.12.36-.36.38-.54.01"/><path fill="#2e146f" d="m92.48 150.62-.68 1.72q-1.09-.01-.82-1.07.22-.88 1.5-.65M95.22 150.66q.51.15.92.13-.1 1.21-.21 1.5-.98 2.53-2.05.03-.15-.33-.68-1.64.9-.27 2.02-.02"/><path fill="#3e15a1" d="m131.95 154.05-.09.96-.75.16q-.56.11-.36.65.22.61 1.11.96-.04 1.18-.89 1.74-.43.28-.9.05-.94-.46-1.16-1.19 1.2-2.81-1.74-2.36l-.54-.99q.69-1.34-.85-1.99 1.27-.08.75-.63l1.5 1.45a1.1 1.09-71.3 0 0 1.85-.92q-.04-.36.3-.59.51-.35.7.24.29.91-.46 1.37-.48.28-.2.76.46.8 1.73.33m-1.604 3.957a.59.47 114.4 0 0 .672-.343.59.47 114.4 0 0-.184-.731.59.47 114.4 0 0-.672.343.59.47 114.4 0 0 .184.731"/><ellipse fill="#3e15a1" rx=".7" ry=".6" transform="rotate(98.7 -22.112 113.321)"/><path fill="#3e15a1" d="M163.06 152.19q.12 1.24-.69 1.84-.5.36-.46.97l.07 1.56q.03.45-.42.41l-.38-.03q-.2-.02-.15-.21.37-1.74-.29-3.12.55-.39.29-.96.99.24.91-1.13.43.44 1.12.67"/><path fill="#1a0d35" d="M143.48 151.85q.45.02.59.36a.59.58 63 0 1-.23.73q-.28.16-.86.1-.48-.55-1.18-.13-.67.08-1.03-.01-.84-.19.11-.34 1.35-.21 2.6-.71"/><path fill="#1ed788" d="M166.01 153.73q-.94.19-1.87.22-.44.02-.62.35a.43.42-68.3 0 0 .26.61l.85.25q.65.19.13.63l-.55.47q-.39.33-.28.83.23 1.11-1.25 2.29-1.35 1.08.34.8.51-.09 1.35.44-.32 1.05-.59 1.34a1.34 1.22-34.1 0 1-2.17-.31l-2.13-6.15-.18-.69q-.17-.25-.21-.48.75-.14 1.65-.72.66 1.38.29 3.12-.05.19.15.21l.38.03q.45.04.42-.41l-.07-1.56q-.04-.61.46-.97.81-.6.69-1.84z"/><path fill="#5a2bb4" d="M161.03 152.65q.26.57-.29.96-.9.58-1.65.72-.06-.24-.44-.4 1.28-1.5 2.38-1.28"/><path fill="#3e15a1" d="m141.27 154.2-.68 3.51q-.66-.35-1.06-.82-.38-.46.03-.89l.2-.21q.26-.27 0-.54-.64-.67-.74-1.58-.07-.6.53-.71.24-.05.43.12.1.1.21.38.23.6 1.08.74"/><ellipse fill="#1a0d35" rx="1.2" ry=".73" transform="rotate(129.8 40.215 112.71)"/><path fill="#3e15a1" d="m125.72 154.47-1.12 1.57q-1.96.94-3.12.81a.59.59 0 0 1-.43-.9l1.22-1.9q.26-.41.58-.05l.2.23q.14.16.04.35-.2.39-.65.49-.55.13-.35.66.05.14.18.23.19.15.43.11 1.02-.15 1.18-1.16.08-.53-.34-.85-.48-.37-.05-.82.26-.27.51 0 .75.78 1.72 1.23"/><path fill="#2e146f" d="m91.28 153.57-.71 3.16q-.79-.69-.26-.49-1.06-.11-1.75.18-.47-1.47 2.72-2.85M166.01 153.73q1.21.24 2.23.85l-.35 2.14a.45.45 0 0 0 .41.51q1.46.11 1.9.68.33.61-.09.85-1.21.69-2.39.38-.71-.19-.85.53-.14.78.54 1.26a1.12 1.07-21.8 0 0 .47.19q.95.14 1.51.87a.61.61 0 0 1-.2.92q-.13.06-.26.11-.7.24-.28.85.84 1.22 2.1 1.75.03.72-.27 1.41-.22.49-.7.27-1.5-.66-2.27-2.51c.84-.78.35-2.21-.83-2.25q-.87-2.19-.54-5.14.97-.04 1-.92.04-1.02-.81-1.12-.55-.07-.67.48-.1.48.06 1.13-.92 1.4-1.35 3.65-.84-.53-1.35-.44-1.69.28-.34-.8 1.48-1.18 1.25-2.29-.11-.5.28-.83l.55-.47q.52-.44-.13-.63l-.85-.25a.43.42-68.3 0 1-.26-.61q.18-.33.62-.35.93-.03 1.87-.22"/><circle cx="146.55" cy="154.51" r=".62" fill="#5a2bb4"/><path fill="#3e15a1" d="M173.79 156.24q.08.76.48 1.27.24.3.62.35 1.2.19 1.46 1.4.12.58.59.22.87-.67 1.89-.32a.99.98 34.7 0 0 .91-.16q.32-.25.48-.75l2.08.44q-.91 1.61-2.65 2.97.17.24-.22.21-.25-.01-.38-.23-.45-.73-1.38-.72-.41.01-.67-.25-.15-.15-.08-.35a.42.42 0 0 0-.32-.55q-.31-.06-.57.14-.41.31-.86.05-.87-.49-1.38-.11-.9-.6-1.29.34-.74 1.78-1.41 3.54-.75-.38-.74-.91 0-.24.2-.35l.24-.13q.47-.25.32-.76-.22-.79-1.08-.75-.97.06-.49-.79.68-1.18 1.76-1.12.7.05.43-.59-.74-1.71-1.53-.42-.44-.57-1.9-.68a.45.45 0 0 1-.41-.51l.35-2.14z"/><path fill="#1a0d35" d="M85.92 156.94q-.73-.86-.86-1.99.42-.07.81-.17.54-.13.8.03.2.13.28.35.17.47-.25.75-.7.46-.78 1.03"/><path fill="#1ed788" d="M128.91 157.38q-1.12-.93-1.74-2.36 2.94-.45 1.74 2.36"/><path fill="#2e146f" d="M159.48 155.5q-.26-.16-.18-.69z"/><path fill="#6eb3a7" d="M131.86 155.01q.23.77 0 1.77-.89-.35-1.11-.96-.2-.54.36-.65z"/><path fill="#3e15a1" d="m104.73 157.83-.92 2.84q-.99-.82-2.05-.78-1.03.04-.91-.98.23-2.01-1.09-1.97-.75.01-1.63.96l-1.04.02-.07-2.58q3.75.37 5.01 2.34a.7.69-40.8 0 0 1.11.08q.79-.91 1.59.07"/><path fill="#6eb3a7" d="M166.14 157.4q-.12.12-.42-.43-.16-.65-.06-1.13.12-.55.67-.48.85.1.81 1.12-.03.88-1 .92"/><path fill="#3e15a1" d="M90.31 156.24q-1.07 2.21-2.74 1.64-.55-.19-.31-.73.23-.49 1.3-.73.69-.29 1.75-.18"/><path fill="#12e874" d="M180.22 158.25q-.16.5-.48.75a.99.98 34.7 0 1-.91.16q-1.02-.35-1.89.32-.47.36-.59-.22-.26-1.21-1.46-1.4-.38-.05-.62-.35-.4-.51-.48-1.27z"/><path fill="#2e146f" d="M152.31 161.31q-.31-.56-.2-1.14.33.12.4.02a1.04 1.04 0 0 0-.08-1.26q-.28-.31-.64-.09-.62-.92-.5-2.14 1.64.9 2.44 2.61.22.47-.06.9-.49.74-1.36 1.1"/><path fill="#1ed788" d="M103.81 160.67q-1.03 2.92-.98 5.89a1.28 1.27-75.7 0 1-1.9 1.14q-.12-.07-.25-.15c.37-1.05 1.25-1.86 1.39-2.86q.12-.8-.67-.85-.84-.05-.58-.85t1.22-1.05q1.15-.3.09-.83l-1.14-.58a.74.74 0 0 0-1.07.72l.23 2.47q.02.3-.22.48-.13.1-.28.09-.49-.03-.57-.51l-.95-5.88q.88-.95 1.63-.96 1.32-.04 1.09 1.97-.12 1.02.91.98 1.06-.04 2.05.78"/><ellipse fill="#6eb3a7" rx=".59" ry=".47" transform="rotate(114.4 14.554 120.815)"/><path fill="#1a0d35" d="M137.86 159.5q-.5 1.45-2.36.53-.56-.27-.8.18l-.38-.72q1.83-.21 1.79-1.97-.01-.25.22-.35.16-.07.34-.02.13.03.17.17.3 1.21 1.02 2.18"/><path fill="#6eb3a7" d="m171.09 163.73-.34 1.89q-1.26-.53-2.1-1.75-.42-.61.28-.85.13-.05.26-.11a.61.61 0 0 0 .2-.92q-.56-.73-1.51-.87a1.12 1.07-21.8 0 1-.47-.19q-.68-.48-.54-1.26.14-.72.85-.53 1.18.31 2.39-.38.42-.24.09-.85.79-1.29 1.53.42.27.64-.43.59-1.08-.06-1.76 1.12-.48.85.49.79.86-.04 1.08.75.15.51-.32.76l-.24.13q-.2.11-.2.35-.01.53.74.91"/><path fill="#2e146f" d="m98.13 157.9.95 5.88q.08.48.57.51.15.01.28-.09.24-.18.22-.48l-.23-2.47a.74.74 0 0 1 1.07-.72l1.14.58q1.06.53-.09.83-.96.25-1.22 1.05t.58.85q.79.05.67.85c-.14 1-1.02 1.81-1.39 2.86q-3.25-3.92-3.59-9.63zM113.98 157.97l-.1 4.06a.84.84 0 0 1-1.36.64q-.68-.54-1.31-1.6 1 .1 1.51-.21.46-.29.05-.65l-1.7-1.53q-.02-.02-.01-.05l.14-.27a.23.23 0 0 1 .35-.06q1.28 1.14 2.43-.33M123.41 158.46l-.15.34q-.53.15-.84.49-.25.26-.17.54.09.3.49.44l-.77 2.04q-1.04-.06-.87.7.08.34-.03.54-.29.53-.55-.02-.46-.99-1.23-1.62a.5.49-32.2 0 1 .2-.86l1.77-.44q.37-.1.22-.45-.56-1.36-1.72-.56-.9.62-.48-.39.26-.61.96-.98.65-.34.81.38.03.15.16.26.09.07.2.09.43.08.6-.31.21-.46.71-.53.41-.07.69.34"/><path fill="#1a0d35" d="M117.78 163.6q-1.32-2.34-1.58-5.08 1.89 2.69 1.58 5.08M90.03 158.69l-.12 1.51q-.04.52-.53.73-.54.23-1.03-.36.81-1.85 1.68-1.88"/><path fill="#1ed788" d="m123.26 158.8-.52 1.47q-.4-.14-.49-.44-.08-.28.17-.54.31-.34.84-.49"/><path fill="#3e15a1" d="M152.11 160.17q-.33-.63-.32-1.33.36-.22.64.09a1.04 1.04 0 0 1 .08 1.26q-.07.1-.4-.02"/><path fill="#07e16b" d="m182.3 158.69 8.44.58q1.17.76.77 1.95-.15.47.31.63.22.08.44-.02.39-.17.61-.55.35-.6.54-1.23.24-.8.45.01.51 1.92 2.1 3.3-.05 1.51-.93 2.9-1.62 1.05-3.56 1.04-.53 0-.63.52-.34 1.84 1.27 2.24.89.21.25.86-.11.11-.25.12-.66.05-.58.7.12.96-.58 1.29l-3.25-10.77q1.44-.6.81-.97-.44.32-.81.97c-1.78 1.62-2.05 5.08-1.99 7.28a.42.41 16.8 0 1-.66.35q-1.65-1.16-2.24-2.74 1.41-.86 1.47-2.48.03-.5-.47-.55-1.57-.15-2.8-1.17l-.47-.25q-.16-.49-.89-1.04 1.74-1.36 2.65-2.97m10.58 4.72q-.27-.21-.57-.06-.32.15-.02.36.35.24.62-.07a.16.16 0 0 0-.03-.23"/><path fill="#c5a355" d="m140.17 159.08-.27 2.73q-.78-.03-1.14-1.38.45-1.22 1.41-1.35"/><path fill="#2e146f" d="M200.72 159.21q-1.38.62-1.35 1.65.07 2.38-1.4.5-.45-.57-.8-1.17-.33-.57-.84-.16-.6.49-.79 1.16-.14.48.27.77.47.34.43.66l-.28.74q-1.59-1.38-2.1-3.3-.21-.81-.45-.01-.19.63-.54 1.23-.22.38-.61.55-.22.1-.44.02-.46-.16-.31-.63.4-1.19-.77-1.95z"/><path fill="#12e874" d="M204.24 159.92q-.98-.18-1.08.57-.23 1.73.66 1.82-.17.95-.84 1.98l-.44.04q-.46.04-.47.5-.03 1.26-1.46 1.96-1.31.63-1.63-.79-.26-1.16-1.71-2.26-.22-.76-1.03-1.12.04-.32-.43-.66-.41-.29-.27-.77.19-.67.79-1.16.51-.41.84.16.35.6.8 1.17 1.47 1.88 1.4-.5-.03-1.03 1.35-1.65 3.23-.69 3.52.71"/><path fill="#3e15a1" d="M138.76 160.43q.36 1.35 1.14 1.38l-.09 1.42q-2.41-.78-3.17.44-.48-.46-.65-1.26.37-.35.05-.86-.36-.56-.78-.34l-.56-1q.24-.45.8-.18 1.86.92 2.36-.53.3.95.9.93"/><path fill="#12e874" d="M179.65 161.66q.73.55.89 1.04l-.59.36q-.44.41-.05.94l-.01 2.47q-.33.24-.49.51-.28.49.11.9l.4.4-.03 1.93a.82.82 0 0 1-1.38.59q-1.4-1.32-1.98-3.3.57-.53.28-1.33-.19-.52.2-.91l.26-.25q.53-.52-.02-1.02-.24-.22-.12-.52.18-.46.67-.48.4-.01.74-.19.84-.46-.1-.63-.99-.17-1.36-.94-.29-.6-.71-.09l-.5.6q-.37.46-.82.08l-.75-.61-.5-1.36q.51-.38 1.38.11.45.26.86-.05.26-.2.57-.14a.42.42 0 0 1 .32.55q-.07.2.08.35.26.26.67.25.93-.01 1.38.72.13.22.38.23.39.03.22-.21"/><path fill="#6eb3a7" d="M204.24 159.92q.42 1.01-.42 2.39-.89-.09-.66-1.82.1-.75 1.08-.57"/><path fill="#3e15a1" d="m176.52 167.5-2.23-6.29.75.61q.45.38.82-.08l.5-.6q.42-.51.71.09.37.77 1.36.94.94.17.1.63-.34.18-.74.19-.49.02-.67.48-.12.3.12.52.55.5.02 1.02l-.26.25q-.39.39-.2.91.29.8-.28 1.33"/><path fill="#5a2bb4" d="M135.99 162.41q-.65-.25-.73-1.2.42-.22.78.34.32.51-.05.86"/><path fill="#37496e" d="M187.7 162.26q.37-.65.81-.97.63.37-.81.97"/><path fill="#3e15a1" d="m167.51 164.79-.83-2.25c1.18.04 1.67 1.47.83 2.25"/><path fill="#1ed788" d="m139.81 163.23-.12.75q-.53.1-.37.75.09.35.4.29-.04.14-.13.25-.09.12-.24.1-1.69-.22-2.71-1.7.76-1.22 3.17-.44"/><path fill="#37496e" d="M179.95 163.06q.1.47-.05.94-.39-.53.05-.94"/><path fill="#5a2bb4" d="M182.81 167.15q-1.32-2.01-1.8-4.2 1.23 1.02 2.8 1.17.5.05.47.55-.06 1.62-1.47 2.48"/><path fill="#6eb3a7" d="M192.88 163.41a.16.16 0 0 1 .03.23q-.27.31-.62.07-.3-.21.02-.36.3-.15.57.06"/><path fill="#37496e" d="m202.98 164.29-1.68 4.46-.03-.39q-.05-.52-.58-.44-1.69.26-2.6-.92-.7-1.55-.82-3.26 1.45 1.1 1.71 2.26.32 1.42 1.63.79 1.43-.7 1.46-1.96.01-.46.47-.5zM139.69 163.98q.32.49.03 1.04-.31.06-.4-.29-.16-.65.37-.75"/><path fill="#1a0d35" d="M120.72 166.61q-1.2.87-2.24-1.62 1.29-.54 2.24 1.62"/><path fill="#5a2bb4" d="m195.03 166.26-2.18 8.54q-.14.54-.64.32-1.1-.48-1.26-2.09.7-.33.58-1.29-.08-.65.58-.7.14-.01.25-.12.64-.65-.25-.86-1.61-.4-1.27-2.24.1-.52.63-.52 1.94.01 3.56-1.04"/><path fill="#2e146f" d="m179.89 166.47.02 1.81-.4-.4q-.39-.41-.11-.9.16-.27.49-.51"/><path fill="#1ed788" d="M201.3 168.75q-.19.29-.44.44-.29-.19-.54.12-.8 1-.1 1.69-.01.53-.4.83a.36.36 0 0 1-.54-.12q-1.15-2.19-1.19-4.71.91 1.18 2.6.92.53-.08.58.44z"/><path fill="#37496e" d="M200.86 169.19q.28 1.36-.64 1.81-.7-.69.1-1.69.25-.31.54-.12"/></svg>