<svg xmlns="http://www.w3.org/2000/svg" viewBox="0 0 382 382"><g fill="none" stroke="#f65605" stroke-width="2"><path d="M230.7 288q-.52.06-.92-.04M229.75 288.37q.39.34 1.18.34" vector-effect="non-scaling-stroke"/></g><path fill="#f4a507" d="M282.36 106.63c1.6-1.2 1.3-3.79.99-5.45q-.12-.66-.7-.95a.71.7-67.2 0 0-.99.41c-.67 2.02-.73 4.27.7 5.99a3.37 2.07 88.3 0 1-1.03-.48 3.41 2.13 89.9 0 1-.93-4.02 3.41 2.14 89.7 0 1 1.52-2.23 3.4 2.12 89.9 0 1 1.99.9 3.42 2.13 89.9 0 1 .33 4.19 3.42 2.14 89.8 0 1-1.88 1.64"/><path fill="#f80702" d="M292.43 112.6q.29-2.42-.29-4.51-.25-.92.61-.5.23.12.36.34.18.34.16.7-.12 2.13.19 4.47.09.67-.57.58-.15-.02-.3.01-.88.19-.39-.56.08-.11.14-.23.07-.14.09-.3"/><path fill="#f4a507" d="M295.68 129.8q.8 1.46 1.88 2.36 1.12.95-.3.59l-.85-.21q-.55-.14-.54.42l.08 4.17q0 .25-.24.24l-.6-.03q-.31-.02-.24-.32.45-1.98.12-4.04-.09-.52-.6-.39-.13.03-.26-.01-.64-.23-.05-.57.96-.54 1.05-1.61.04-.47-.35-.74-.43-.29-.72-.71-.44-.67.3-.37 2.27.91 3.71-1.29.4-.61-.15-1.09-.62-.54-1.01-1.22-.36-.63.32-.4 1.34.44 1.86 2 .16.48-.27.76l-.31.19q-.51.32-.72.9-.48 1.33-1.8.98-.61-.16-.31.39M286.55 137.44a.27.27 0 0 1-.2-.45q.38-.44.99-.31.46.09.12.41-.39.36-.91.35M285.49 136.91q.86 2.14 2.46 3.71.55.53-.22.55-.61.02-1-.41-.74-.81-2.33-3.61a.25.24-31.1 0 1 .09-.34l.24-.16a.53.52 63.7 0 1 .76.26"/><path fill="#f80702" d="M297.87 143.69a.84.84 0 0 0 1.43.34q.67-.75.52-1.81-.06-.44.38-.37.15.03.22.16a1.82 1.71-37.4 0 1-.34 2.08c-.71.73-2.16.77-2.72-.13q-1.46-2.34.05-5.5.02-.05.08-.04l.44.07q.25.04.16.28-.89 2.48-.22 4.92"/><path fill="#f4a507" d="M284.36 140.29a.32.31-16.2 0 1 .5.27q-.02.38-.37.58a.28.28 0 0 1-.42-.21q-.06-.39.29-.64M296.054 154.58a3.32 2.15 90.1 0 1-2.144-3.324 3.32 2.15 90.1 0 1 2.156-3.316 3.32 2.15 90.1 0 1 2.144 3.324 3.32 2.15 90.1 0 1-2.156 3.316m-.036-.33a3.03 1.21 90.8 0 0 1.252-3.013 3.03 1.21 90.8 0 0-1.168-3.047 3.03 1.21 90.8 0 0-1.252 3.013 3.03 1.21 90.8 0 0 1.168 3.047"/><rect width=".92" height="6.66" x="-.46" y="-3.33" fill="#f4a507" rx=".26" transform="rotate(-1 9327.256 -16631.484)"/><path fill="#f4a507" d="M279.83 169.01q.4-.31.9-.46 1.01-.31.28.45l-.79.81q-.51.53-.06 1.11l1.26 1.59q.29.37-.16.51l-1.77.56q-.63.2-.93-.38l-1.57-3.01q-.17-.31-.52-.32h-.32a.07.06 21.3 0 1-.05-.1q1.54-1.86 3.05-.75.34.25.68-.01m-1 1.57q-.12-.96-1.08-1.18-.75-.18-.16.32 1.21 1.02 1.59 2.64a.58.57-89.3 0 0 .4.42q.16.05.32-.02.37-.2.16-.56-.37-.63-.94-1.09-.25-.21-.29-.53M274.46 175.01q-1-.53-1.62-1.39-.39-.53-.12-1.13l.59-1.31a1.51 1.5-46.4 0 1 2.71-.07q.38.75.97 1.23.35.29.18.71-.85 2.14-2.49 3.39a1.11 1.09-58 0 1-.84.2l-.31-.06a.05.05 0 0 1-.01-.09l.87-.33q1.31-.5.07-1.15m-.11-3.72q-1.28 1.25.63 2.87.4.34.58-.16.37-1 .16-2.26-.25-1.54-1.37-.45M285.95 179.6q.56 1.53 1.64 2.54 1.03.96-.33.62l-.43-.11q-.54-.14-.74-.66-.7-1.85-2.04-3.17-.46-.46.19-.45 1.27.01 1.71 1.23M286.42 179.38a.26.26 0 0 1-.16-.48l.89-.48a.28.28 0 0 1 .33.44q-.45.43-1.06.52"/><path fill="#f80702" d="M281.57 180.06q.54-.66 1.5-.06a1.11 1.1 32.2 0 1 .35 1.52l-2.24 3.56q-.29.46-.58.01l-2.21-3.34a1.21 1.17 34.5 0 1-.18-.88q.13-.73.71-1 .56-.28 1.06.11l.3.22q.71.55 1.29-.14"/><circle cx="284.48" cy="182.26" r=".46" fill="#f4a507"/><path fill="#f80702" d="M285.44 190.6q-.07-1.4-.21-1.67-1.41-2.65-1.87.31-.3 2.03-.81 4.29a1.77 1.66-50 0 0 .05.91q.34.99-.38 1.79-.28.31.03.59l.26.25q.17.15-.02.28-.38.26-.85.31-.6.07-.5-.53.39-2.33-.18-5.01-.09-.47.25-.8 1-.98 1.32-2.46a1.69 1.69 0 0 1 2.92-.76c1.67 1.88.64 7.2-1.55 8.55q-.78.49-.25-.26 1.27-1.78 1.13-4.55-.02-.33-.25-.56l-.26-.26q-.25-.25-.08-.56.07-.13.21-.17.4-.11.64.23.09.13.23.2.18.08.17-.12"/><path fill="#f80702" d="M283.58 193.3q.13.44-.27.22-.04-.02-.06-.07-.06-.15.08-.24a.17.16-24.3 0 1 .25.09"/><path fill="#f4a507" d="M267.61 200.26c.01.26.16.55.35.72a.24.23 67.8 0 1-.17.41l-.74-.04q-.48-.02-.42-.5.33-2.77-.15-5.5a.3.3 0 0 1 .16-.32l.55-.27q.42-.21.4.26-.08 2.73.02 5.24"/><path fill="#f80702" d="M273.62 204.58q.13-.56-.14-1.05-.22-.42.13-.74.25-.23.6-.2.58.05.12.4l-.34.27q-.35.27.01.51l.37.24a1 .99 16.4 0 1 .45.81l.11 5.21q.01.51-.49.58l-.26.04q-.5.07-.35-.41.91-2.83-1.32-4.97a1.4 1.4 0 0 1-.39-.67q-.2-.83-.86-1.42-.97-.88.3-.58l.32.07a.8.79-5.1 0 1 .55.45l.68 1.51q.33.73.51-.05"/><path fill="#f4a507" d="M272.12 205.53q.14-.06.1.09-.21.94-1 1.46-.45.31-.28-.21.31-.96 1.18-1.34"/><rect width=".96" height="5.56" x="-.48" y="-2.78" fill="#f80702" rx=".27" transform="rotate(-33.3 497.785 -370.818)"/><path fill="#f80702" d="M286.57 210.28q.45-.11.26.31-.24.51-.82.59-.43.06-.23-.32.24-.46.79-.58M258.914 217.26a3.38 2.13 89.6 0 1-2.154-3.365 3.38 2.13 89.6 0 1 2.106-3.395 3.38 2.13 89.6 0 1 2.154 3.365 3.38 2.13 89.6 0 1-2.106 3.395m-.05-.32a3.09 1.19 90.3 0 0 1.206-3.084 3.09 1.19 90.3 0 0-1.174-3.096 3.09 1.19 90.3 0 0-1.206 3.084 3.09 1.19 90.3 0 0 1.174 3.096M203.67 214.76q.06.22.24.36.46.35-.11.47-.3.06-.48-.19-1.28-1.81-.73-4.22a.3.3 0 0 1 .35-.23l.28.06q.31.07.26.38-.29 1.69.19 3.37M205.47 214.56q.32-1.34.18-2.77a.4.4 0 0 1 .25-.4q.35-.14.57.08.09.1.12.24.28 1.68-.46 3.25-.27.57-.92.66-.62.08-.21-.39.15-.19.31-.36.12-.14.16-.31M211.72 213.29q-.75-1.42-.74.19.02 2.51.23 5.2.06.76-.62.41-.11-.06-.23 0-.55.29-.4-.33.48-1.98.31-4.08-.04-.49-.44-.77l-.54-.39a.07.06 42.1 0 1-.01-.1l1.45-1.4a.74.74 0 0 1 .99-.03l1.34 1.13q.86.73-.27.78-.73.04-1.07-.61M284.33 213.59a.12.12 0 0 1 .13.15q-.2.66-.95.9-.45.14-.25-.28.32-.67 1.07-.77M273.384 222.41a3.43 2.12 89.6 0 1-2.144-3.415 3.43 2.12 89.6 0 1 2.096-3.445 3.43 2.12 89.6 0 1 2.144 3.415 3.43 2.12 89.6 0 1-2.096 3.445m-.035-.2a3.21 1.17 90.2 0 0 1.181-3.206 3.21 1.17 90.2 0 0-1.159-3.214 3.21 1.17 90.2 0 0-1.181 3.206 3.21 1.17 90.2 0 0 1.159 3.214"/><path fill="#f4a507" d="m246.03 224.88-.33-.07a.17.17 0 0 1-.13-.23l2.76-6.29a.17.17 0 0 1 .31 0l2.85 6.33a.17.17 0 0 1-.17.24l-1.05-.15a.17.17 0 0 1-.13-.11l-1.67-4.85a.17.17 0 0 0-.32 0l-1.93 5.03a.17.17 0 0 1-.19.1"/><rect width=".9" height="5.68" x="-.45" y="-2.84" fill="#f4a507" rx=".31" transform="rotate(-33.7 487.481 -231.76)"/><path fill="#f4a507" d="M211.71 229.32a.25.25 0 0 1 .33.33q-.26.65-.96.79a.21.21 0 0 1-.23-.3q.27-.54.86-.82M209.68 232.85q-.23.48-.69.76-.41.25-.28-.22.17-.66.74-.82.43-.12.23.28"/><path fill="#f80702" d="M278.81 245.83a.05.05 0 0 1-.05.05l-.15.01a.86.32-1.7 0 1-.87-.3l-.18-6.03a.86.32-1.7 0 1 .85-.35h.15a.05.05 0 0 1 .05.05z"/><path fill="#f4a507" d="M214.4 251.24q.62-2.79-.11-5.39-.22-.81.57-.63.15.03.3-.02.24-.06.25.19l.11 5.94a.31.31 0 0 1-.3.31l-.49.01q-.43.01-.33-.41M260.64 256.31q.38-2.8-.01-5.54a.39.39 0 0 1 .4-.45l.33.02a.33.33 0 0 1 .31.36q-.31 2.82.23 5.72.06.34-.29.37l-.47.04q-.58.05-.5-.52M216.118 261.45a3.42 2.12 90.2 0 1-2.108-3.427 3.42 2.12 90.2 0 1 2.132-3.413 3.42 2.12 90.2 0 1 2.108 3.427 3.42 2.12 90.2 0 1-2.132 3.413m-.047-.3a3.14 1.2 90.9 0 0 1.249-3.121 3.14 1.2 90.9 0 0-1.15-3.159 3.14 1.2 90.9 0 0-1.25 3.121 3.14 1.2 90.9 0 0 1.15 3.159"/><path fill="#f80702" d="M250.14 255.2a.34.34 0 0 0-.47.47l2.05 3.09q.17.26-.1.41l-.41.22q-.16.09-.26-.07l-2.81-4.23q-.16-.25.13-.25l3.18.02q.52.01.09.31-.7.49-1.4.03"/><path fill="#f4a507" d="M266.21 256.24a.17.17 0 0 1 .24.04l2.89 4.21a.35.28-34.5 0 1-.13.43l-.19.14a.35.28-34.5 0 1-.45-.03l-2.9-4.21a.17.17 0 0 1 .05-.24z"/><rect width=".9" height="6.68" x="-.45" y="-3.34" fill="#f4a507" rx=".27" transform="rotate(-1.6 9435.907 -8992.348)"/><ellipse fill="#f4a507" rx=".69" ry=".35" transform="rotate(-45.1 443.763 -194.831)"/><path fill="#f80702" d="M248.03 259.17q.16-.54.59-.89.37-.3.34.17-.04.78-.69.96-.34.1-.24-.24M231.91 264.92a.72.72 0 0 0 1.26-.19c.48-1.42.96-4.78-.54-5.85q-.57-.4.11-.26c2.3.47 1.97 4.42 1.14 6a1.57 1.57 0 0 1-2.65.2c-1.18-1.6-1.36-4.61.47-5.99q.54-.42.24.2c-.68 1.4-1.09 4.4-.03 5.89"/><path fill="#f4a507" d="M266.45 259.62q.49-.25.3.27-.25.7-1 .96-.48.16-.25-.3.32-.61.95-.93M250.89 262.07q-.15.22-.4.35-.34.18-.27-.19.08-.47.58-.5a.6.59 87.5 0 0 .55-.61q-.02-.63.38-1.05.51-.54.58.19.13 1.56.04 3.22-.04.65.61.59.75-.06.13.37-.98.67-.69 1.84.11.47-.36.46h-.28q-.13 0-.13-.13l-.05-1.14q-.03-.58-.61-.6l-1.72-.03q-.95-.02-.29-.73.11-.13.18-.29.32-.74.77-.07.35.52 1.01.47.52-.05.65-.56.18-.7.03-1.44a.39.39 0 0 0-.71-.15"/><path fill="#f80702" d="M226.178 264.688a1.88 1.88 0 0 1-1.85 1.91l-.32.004a1.88 1.88 0 0 1-1.91-1.85l-.036-2.36a1.88 1.88 0 0 1 1.85-1.91l.32-.004a1.88 1.88 0 0 1 1.91 1.85zm-.955-2.836a1.05 1.05 0 0 0-1.048-1.052h-.1a1.05 1.05 0 0 0-1.052 1.048l-.006 3.34a1.05 1.05 0 0 0 1.048 1.052h.1a1.05 1.05 0 0 0 1.052-1.048z"/><path fill="#f4a507" d="M279.75 263.29c.57 1.24 1.46 2.46 2.31 3.48q.23.28-.08.46l-.39.23q-.06.04-.1-.02-.67-.98-1.43-1.61-.41-.34-.53-.86-.29-1.17-1.22-1.81-.69-.48.15-.55.94-.09 1.29.68M281.49 262.63a.26.26 0 0 1 .15.46q-.38.34-.91.31a.26.26 0 0 1-.17-.45q.38-.37.93-.32"/><path fill="#f80702" d="M266.44 272.26q.44-3.08-.19-5.71-.06-.22.16-.3l.62-.24a.28.28 0 0 1 .38.26l-.1 6.12q0 .27-.27.25l-.3-.02q-.35-.02-.3-.36"/><path fill="#f4a507" d="M278.56 266.33q.4-.16.41.27.01.32-.24.55a.35.35 0 0 1-.59-.29q.03-.38.42-.53"/><path fill="#f80702" d="M238.23 268.39q-.91 2.75.42 5.12a.24.24 0 0 1-.11.33l-.28.13q-.05.03-.09-.02-1.99-2.68-.76-5.5a1.72 1.72 0 0 1 2.97-.33q1.96 2.67-.55 5.9-.06.08-.14.03l-.27-.16q-.17-.1-.06-.27 1.57-2.38.46-5.27a.85.85 0 0 0-1.59.04"/><path fill="#f4a507" d="M245.171 275.14a3.37 2.13 89.3 0 1-2.17-3.344 3.37 2.13 89.3 0 1 2.088-3.396 3.37 2.13 89.3 0 1 2.17 3.344 3.37 2.13 89.3 0 1-2.088 3.396m-.013-.33a3.07 1.2 89.3 0 0 1.162-3.085 3.07 1.2 89.3 0 0-1.237-3.055 3.07 1.2 89.3 0 0-1.163 3.085 3.07 1.2 89.3 0 0 1.238 3.055M209.42 269.65q1.98 2.02 3.15 4.44.14.28-.18.32l-.43.06q-.14.02-.22-.1l-2.78-4.19q-.13-.19.06-.34l.27-.2q.07-.05.13.01M212.23 270.22q-.14.32-.46.45a.34.33 9.6 0 1-.38-.53q.25-.27.6-.28a.26.25-79.1 0 1 .24.36M226.8 271.55q.32 1.51 1.49 2.79.17.18-.03.34l-.34.27q-.18.14-.3-.05l-2.91-4.35q-.14-.2.08-.32l.38-.22q.21-.12.31.11.46 1.05 1.32 1.43"/><path fill="#f4a507" d="M226.8 271.55q.23-1.04.96-1.18.46-.08.28.35-.28.68-1.24.83"/><path fill="#f80702" d="M231.708 278.57a3.38 2.13 90.2 0 1-2.118-3.387 3.38 2.13 90.2 0 1 2.142-3.373 3.38 2.13 90.2 0 1 2.118 3.387 3.38 2.13 90.2 0 1-2.142 3.373m-.016-.27a3.17 1.17 90.5 0 0 1.198-3.16 3.17 1.17 90.5 0 0-1.142-3.18 3.17 1.17 90.5 0 0-1.198 3.16 3.17 1.17 90.5 0 0 1.142 3.18"/><path fill="#f4a507" d="M209.62 273.8q-.05.2-.17.37-.66.92-.53-.2.02-.23.17-.42.84-1.11.53.25"/><path fill="#f80702" d="M267.73 274.45q-.1.12-.26.11-.14-.01-.13-.15.04-.69.69-.96.55-.23.26.29-.09.18-.22.32-.16.19-.34.39"/><path fill="#f4a507" d="M225.5 273.55q.25-.15.22.14-.07.74-.84 1.01-.58.19-.24-.31.36-.53.86-.84"/><path fill="#f80702" d="M265.35 273.4q1.68 1.73 3.29 3.98.41.57-.29.5l-.27-.03q-.47-.05-.72-.44l-2.32-3.59q-.09-.14.04-.25l.19-.17q.05-.03.08 0M258.54 281.82q.39-2.81-.06-5.65-.07-.45.38-.47l.29-.01a.46.46 0 0 1 .47.51q-.34 2.84.18 5.71.06.37-.32.37h-.54q-.46 0-.4-.46M265.54 276.79a.26.26 0 0 1 .38.26q-.05.61-.71.77a.28.28 0 0 1-.32-.38q.19-.43.65-.65"/><path fill="#f4a507" d="M213.97 286.32a.18.18 0 0 1-.25-.05l-.06-.08a5.46.38 55 0 1-2.82-4.69l.23-.16a5.46.38 55 0 1 3.44 4.25l.06.09a.18.18 0 0 1-.05.25z"/><path fill="#f4a507" d="M214.07 281.92q-.26.65-.91.7a.27.27 0 0 1-.26-.4q.28-.51.84-.67.54-.15.33.37M229 284.45q.49-1.15 1.89-1.05c2.5.18 1.93 4.41 1.14 6.01q-.19.38-.6.3l-3.39-.72q-.38-.08-.13-.37 1.16-1.41.03-3.49-.43-.77.43-.56.14.04.27.07.26.05.36-.19m1.7 3.55q-.52.06-.92-.04-.46-.2-.72.02a.22.22 0 0 0 .15.39h.54q.39.34 1.18.34.53.02.73-.98.36-1.87-.2-3.27a.76.75-18.8 0 0-.91-.44q-.58.17-.8.78a.23.22-88.2 0 0 .27.3q.21-.07.41 0 .64.22 0 .44-.29.1-.41.35-.15.32.05.62.51.77.63 1.49M211.7 284.99q-.1.69-.67 1.09-.42.29-.34-.21.1-.66.61-1.1.49-.42.4.22"/><path fill="#f80702" d="M220.89 293.76q.93-3.11.01-6.01-.17-.53.39-.46l.29.04q.43.05.45.49l.17 5.55q.01.47-.45.48l-.77.03a.09.09 0 0 1-.09-.12M230.7 288l.23.71q-.79 0-1.18-.34.16-.21.03-.41.4.1.92.04"/><path fill="#f4a507" d="M225.41 300.8q-.13 2.78.37 5.41.15.79-.59.47-.1-.04-.19-.01-.67.19-.5-.53.64-2.69-.09-5.21-.13-.46.32-.61.71-.25 1.18-.82a1.15 1.11 64.5 0 0 .25-.74l-.22-5.38q-.02-.43.4-.31l.36.11q.14.04.15.19l.16 6q.02.55-.52.49-.26-.02-.5.09-.55.25-.58.85M209.2 302.19q.69-2.02.14-4.5-.13-.61-.63-.93-.81-.53.13-.3c2.16.54 1.83 4.23 1.14 5.64a1.67 1.67 0 0 1-2.85.25c-.98-1.33-1.41-4.97.66-5.89q.55-.24.23.26-1.52 2.36-.28 5.5a.78.78 0 0 0 1.46-.03"/><path fill="#f80702" d="M211.9 308.48a.2.2 0 0 1-.2-.2l-.15-5.85a.55.52 88.6 0 1 .51-.56.55.52 88.6 0 1 .53.54l.15 5.85a.2.2 0 0 1-.2.2z"/></svg>