<svg xmlns="http://www.w3.org/2000/svg" viewBox="0 0 382 382"><path fill="#070709" fill-opacity=".996" d="M294.91 113.67q.66 1.49 1.81 2.55.49.44-.16.55-.86.15-1.17-.42-1.02-1.92-2.26-3.57-.67-.88.35-.46l1.01.4q.47.19.92-.01l.67-.29q.6-.26.3.33-.41.8-1.24.62-.4-.08-.23.3"/><ellipse fill="#070709" fill-opacity=".996" rx=".68" ry=".35" transform="rotate(135.4 122.9 118.283)"/><path fill="#070709" fill-opacity=".996" d="M288.69 126.14q.31-.62.97-.85.5-.17.21.27-.28.45-.74.72-.62.36-.3 1 .55 1.15 1.45 2.02.34.34-.12.46l-.52.13q-.15.04-.22-.08-1.07-1.76-2.18-3.28-.22-.29-.13-.68.09-.45.5-.22.28.17.39.47.31.83.69.04M294.15 131.79a.75.75 0 0 0 1.17-.35q1.19-3.5-.66-5.8-.08-.1.02-.18l.2-.16q.05-.03.09.01 2.78 2.43 1.16 5.98a1.68 1.67 35.6 0 1-2.75.45c-1.27-1.36-1.4-4.96.61-6.13q.49-.29.19.19c-.98 1.62-.73 3.01-.62 4.84q.04.72.59 1.15"/><ellipse fill="#070709" fill-opacity=".996" rx=".5" ry=".28" transform="rotate(-42.5 309.38 -304.784)"/><path fill="#070709" fill-opacity=".996" d="M295.87 140.14q.14.12.29.22.62.42-.11.26-1.07-.24-1.44-1.3-.93-2.7.73-5 .04-.06.12-.02l.28.14q.13.06.07.2-1.03 2.27-.34 4.87.1.37.4.63"/><path fill="#070709" fill-opacity=".996" d="M296.94 140.29q1.25-2.81-.07-5.49-.18-.37.22-.45.18-.03.31.05.31.19.35.55.24 2.06.43 3.9.12 1.19-.98 1.7-.47.21-.26-.26M289.53 144.2l-2.22-3.5q-.23-.36.2-.34.54.02 1.03.28a1.3 1.25-83.1 0 1 .64.85q.36 1.6 1.62 2.59.76.6-.18.82-.14.03-.23.13-.33.36-.32.72l.14 5.45q.01.28-.26.21l-.56-.14q-.26-.07-.22-.33.41-2.79-.09-5.34-.07-.35.15-.62l.27-.33q.18-.21.03-.45"/><ellipse fill="#070709" fill-opacity=".996" rx=".73" ry=".32" transform="rotate(-34.4 372.569 -398.081)"/><path fill="#070709" fill-opacity=".996" d="M287.79 143.84q.44-.04.27.37-.12.31-.39.54a.32.32 0 0 1-.53-.24q-.01-.6.65-.67M284.045 155.1a3.33 2.15 89.4 0 1-2.185-3.308 3.33 2.15 89.4 0 1 2.115-3.352 3.33 2.15 89.4 0 1 2.185 3.308 3.33 2.15 89.4 0 1-2.115 3.352m-.03-.29a3.01 1.2 89.9 0 0 1.195-3.012 3.01 1.2 89.9 0 0-1.205-3.008 3.01 1.2 89.9 0 0-1.195 3.012 3.01 1.2 89.9 0 0 1.205 3.008"/><path fill="#3e0045" fill-opacity=".996" d="M277.15 163.18a.23.23 0 0 1 .45.03q.05.32.22.59.36.57-.32.54-.11 0-.21.01-.82.11-.4-.59.17-.26.26-.58"/><rect width=".94" height="6.66" x="-.47" y="-3.33" fill="#082b0a" fill-opacity=".996" rx=".26" transform="rotate(-1.5 6737.037 -11045.65)"/><path fill="#082b0a" fill-opacity=".996" d="M274.2 171.58a1.19 1.19 0 0 0-.09 1.69l1.14 1.23q.25.27-.05.49l-.3.21q-.16.12-.29-.03l-1.62-1.86q-.35-.41-.04-.85.61-.87 1.32-1.72.18-.22.46-.18.13.01.24.12.12.12 0 .23z"/><path fill="#82008a" fill-opacity=".996" d="M274.6 177.22a1.26 1.26 0 0 1 1.1.85q.32.95 1.06 1.59a.84.83 26.7 0 1 .28.82q-.38 1.68.11 2.84 1.21 2.87 2.1-.15.35-1.19-.17-3.61a.83.82-82 0 0-.41-.55q-.77-.41-1.29.38a.17.17 0 0 1-.31-.12q.12-1.08 1.46-.83a1.5 1.48 76.6 0 1 .88.55q1.34 1.79.54 4.67a1.79 1.79 0 0 1-2.46 1.15q-.84-.39-1.2-1.32-.18-.48-.69-.41-.48.07-.89.37a1.44 1.44 0 0 1-2.2-.63c-.72-1.87-1.04-5.85 2.09-5.6m.67 1.33a1.01 1.01 0 0 0-.992-1.028l-.16-.003a1.01 1.01 0 0 0-1.027.992l-.062 3.52a1.01 1.01 0 0 0 .993 1.027l.16.003a1.01 1.01 0 0 0 1.027-.992z"/><path fill="#082b0a" fill-opacity=".996" d="M272.49 188.08q-.1-.19-.11-.41 0-.29.25-.43.19-.11.4-.14.69-.1.58.58-.42 2.91.17 5.53.18.76-.53.43-.13-.06-.28-.04-.64.13-.51-.51.47-2.32.18-4.55-.04-.24-.15-.46M287.07 196.51l-1.99.09q-.45.02-.68-.37-1.78-3.12.43-5.88.04-.05.09-.02l.29.14q.22.12.1.34-1.32 2.45-.4 4.95a.86.85-8 0 0 .74.55q.37.02.67-.22.29-.24.33-.62c.16-1.44.73-3.73-.61-4.7q-.57-.41.13-.37.83.05 1.15.83.98 2.41.76 5.29c-.16 2.21 1.51 3.39 1.47 5.72a1.41 1.38-24.8 0 1-.33.87q-2.06 2.47-.88 4.84 1 2.02 1.69-.12.65-1.98-.08-4.36-.07-.22.14-.31l.24-.1q.18-.07.27.11 1.29 2.65.03 5.15a1.55 1.55 0 0 1-2.35.51q-1.49-1.19-1.18-3.39.07-.49-.36-.75-2.14-1.32-1.33-4.61.33-1.33 1.27-1.65.39-.13.53-.52.21-.62.05-1.26a.2.19-7.7 0 0-.19-.14m.11 3.04v-.54q0-.83-.4-.11-.98 1.73-.57 3.85.47 2.41 1.74.31 1.29-2.14-.39-2.91-.38-.17-.38-.6"/><rect width=".94" height="6.64" x="-.47" y="-3.32" fill="#3e0045" fill-opacity=".996" rx=".27" transform="rotate(-2.5 4711.215 -6577.487)"/><path fill="#070709" fill-opacity=".996" d="M263.52 207.64c-1.18.75-.88 2.7-.87 3.92q0 1.07.79 1.82.49.46-.16.26c-2.05-.65-1.87-4.05-1.07-5.42a1.83 1.83 0 0 1 3.28.23q1.11 2.7-.73 5.31-.04.05-.09.02l-.32-.13q-.23-.1-.12-.33 1.37-2.73.2-5.4a.63.63 0 0 0-.91-.28M251.09 209.89c-.41.98-.31 2.33.18 3.23q.25.44-.25.55l-.41.08q-.24.05-.27-.2l-.57-4.52a.63.63 0 0 1 1.03-.57q.67.53.29 1.43"/><rect width=".96" height="6.58" x="-.48" y="-3.29" fill="#070709" fill-opacity=".996" rx=".27" transform="rotate(-1.1 11175.427 -14594.679)"/><path fill="#070709" fill-opacity=".996" d="M199.63 211.05a.2.2 0 0 1-.19.27l-1.1-.01q-.55-.01-.31-.51.14-.29.42-.36.85-.24 1.18.61M212.27 212.2l.09 5.07q0 .21-.21.21h-.44q-.25 0-.25-.26l-.01-5.08a.24.23-2.4 0 1 .23-.24h.27q.32-.01.32.3M217.04 219.31q1.2-2.93-.29-5.65-.04-.08.03-.13l.24-.15q.12-.07.2.04 2.19 2.71.66 5.67a1.66 1.65 42.5 0 1-2.87.12q-1.72-2.72.34-5.75.08-.11.2-.05l.26.13q.18.09.09.27-1.44 2.59-.11 5.52a.68.68 0 0 0 1.25-.02"/><rect width=".88" height="6.56" x="-.44" y="-3.28" fill="#3e0045" fill-opacity=".996" rx=".27" transform="rotate(-1.5 8572.246 -9762.12)"/><path fill="#082b0a" fill-opacity=".996" d="M250.24 223.34q-.96 1.03-1.36 2.26a.37.37 0 0 1-.39.26l-.41-.05q-.64-.07-.25-.58l1.99-2.58q.44-.57-.27-.7-.88-.16-1.74.3-.06.03-.08-.03l-.07-.26q-.04-.12.08-.15 1.48-.41 2.87-.48.52-.02.96.25.66.42 1.45.13.76-.27.27.37-.48.61-1.29.22-.85-.41-.32.37l2.11 3.13q.08.13-.02.24l-.21.23q-.07.07-.15.02-1.75-1.08-2.24-2.73-.28-.91-.93-.22"/><path fill="#070709" fill-opacity=".996" d="M265.52 222.7a.58.58 0 0 0-.87.4q-.45 2.67.24 5.38.22.89-.59.45-.3-.16-.6.01-.68.4-.47-.36.67-2.45.25-5.4-.08-.59-.66-.48-.54.1-.97.5-.82.74-.55-.33.14-.51.68-.49 2.03.09 3.95-.01.45-.03.78.26.15.13.16.35.02.57-.47.27z"/><path fill="#082b0a" fill-opacity=".996" d="M249.82 225.58q.5-.19.83-.56.32-.36.62.02.2.25-.01.5-.58.69-1.38.59-1.13-.15-.06-.55"/><ellipse fill="#070709" fill-opacity=".996" rx="1.41" ry=".48" transform="rotate(-9.6 1484.755 -1501.766)"/><path fill="#070709" fill-opacity=".996" d="M270.77 232.15a1.11 1.11 0 0 0 1.13-1.17q-.08-1.88-2.3-2.3-.35-.06-.31-.41l.04-.28q.04-.37.4-.29 1.89.42 2.63 1.75a2.02 2.01 55.1 0 1-.44 2.51q-1.02.88-2.73.71a.2.2 0 0 1-.18-.24l.06-.34a.27.27 0 0 1 .36-.2q.67.25 1.34.26M224.17 238.45q-.26-.4-.55-.8-.44-.61-.74.08-.38.87-1.29.97-.74.08-.27-.49 1.49-1.81.13-3.51-.21-.26.08-.42.87-.49.27-1.32-.32-.45 0-.91.15-.2.39-.27.59-.18.58.45-.09 3.03 2.03 5.82.38.5-.14.83-.13.09-.14.29 0 .14.07.26l2.54 3.93a.3.3 0 0 1-.1.42l-.32.19q-.18.11-.29-.07l-2.96-4.44q-.26-.38.16-.57.15-.06.31-.05.53.05.24-.39"/><ellipse fill="#082b0a" fill-opacity=".996" rx=".62" ry=".28" transform="rotate(-26.1 618.222 -366.57)"/><path fill="#070709" fill-opacity=".996" d="M249.84 243.32q1.65-3.13-.15-6.11-.13-.21.08-.35l.21-.14q.05-.03.09.02 2.82 3.23.26 6.83-.08.11-.2.05l-.23-.12q-.12-.06-.06-.18"/><path fill="#070709" fill-opacity=".996" d="M248.92 243.04q.15.11.31.19.59.3-.08.33-.76.02-1.18-.77-1.61-3 .32-5.28 1.1-1.31.44.27-.89 2.15-.21 4.66.1.37.4.6"/><rect width=".9" height="6.6" x="-.45" y="-3.3" fill="#082b0a" fill-opacity=".996" rx=".26" transform="rotate(-.5 27746.475 -27066.125)"/><ellipse fill="#070709" fill-opacity=".996" rx=".59" ry=".33" transform="rotate(-33 517.787 -262.24)"/><path fill="#070709" fill-opacity=".996" d="M223.59 243.67q-.53.18-.29-.32.27-.6.98-.73.52-.09.23.35-.33.51-.92.7M286.22 248.36q1.01-2.76-.46-5.25-.35-.6.25-.26c2.08 1.18 1.48 4.21.58 6.06q-.26.53-.85.57c-3.06.22-2.79-4.67-1.43-6.11q1.07-1.14.46.3-1.03 2.42-.11 4.71.81 2.03 1.56-.02"/><rect width=".96" height="5.62" x="-.48" y="-2.81" fill="#070709" fill-opacity=".996" rx=".27" transform="rotate(-33.6 525.656 -261.395)"/><ellipse fill="#070709" fill-opacity=".996" rx=".54" ry=".35" transform="rotate(139.4 71.377 165.893)"/><rect width=".94" height="6.6" x="-.47" y="-3.3" fill="#082b0a" fill-opacity=".996" rx=".27" transform="rotate(-1.3 11073.664 -11390.926)"/><ellipse fill="#070709" fill-opacity=".996" rx=".64" ry=".37" transform="rotate(128.2 55.028 180.532)"/><path fill="#070709" fill-opacity=".996" d="M281.1 255.38a3.4 2.13 90 0 1-2.13-3.4 3.4 2.13 90 0 1 2.13-3.4 3.4 2.13 90 0 1 2.13 3.4 3.4 2.13 90 0 1-2.13 3.4m.02-.32a3.11 1.19 89.8 0 0 1.18-3.114 3.11 1.19 89.8 0 0-1.2-3.106 3.11 1.19 89.8 0 0-1.18 3.114 3.11 1.19 89.8 0 0 1.2 3.106M252.32 253.3q-1.05-.66-1.38.05-.83 1.82.37 2.82 1.06.88-.3.64-1.08-.2-1.2-1.42-.13-1.45.9-2.32a1.74 1.74 0 0 1 2.72.66q1.58 3.78-2.61 5.84-.11.06-.18-.05l-.14-.21q-.02-.02 0-.03 2.79-1.34 2.35-5.12a1.17 1.16-77 0 0-.53-.86"/><rect width=".92" height="5.72" x="-.46" y="-2.86" fill="#082b0a" fill-opacity=".996" rx=".26" transform="rotate(-33.9 543.867 -276.308)"/><path fill="#082b0a" fill-opacity=".996" d="M247.13 254.64q0-.45.49-.46a.36.36 0 0 1 .3.57q-.13.17-.34.23-.46.13-.45-.34"/><path fill="#070709" fill-opacity=".996" d="M245.2 257.53a.23.23 0 0 1 .31.26q-.11.54-.64.78a.26.26 0 0 1-.36-.31q.15-.51.69-.73M204.44 266.18q-.11-.05-.24-.05-.62-.01-.07-.29.72-.36.71-1.07-.01-.56.21-1.04.73-1.68 1.64-3.14.47-.76.52.13.09 1.38-1.05 2.3-.4.32-.37.83l.36 6.25a1.9 1.9 0 0 1-1.76 2q-2.17.15-2.01-2.24.01-.09.09-.12l.27-.11q.07-.02.07.05.02 1.57 1.11 2a.75.74-72.4 0 0 1-.52q.38-1.59.23-3.11-.06-.55-.62-.57l-.57-.01a.42.41 7.2 0 1-.4-.51l.08-.31a.26.25 20.8 0 1 .36-.16q.18.1.37.08.78-.06.07-.39"/><rect width=".96" height="6.62" x="-.48" y="-3.31" fill="#070709" fill-opacity=".996" rx=".27" transform="rotate(-1.2 12755.778 -12023.083)"/><rect width=".92" height="5.74" x="-.46" y="-2.87" fill="#070709" fill-opacity=".996" rx=".29" transform="rotate(-35 539.413 -218.276)"/><ellipse fill="#070709" fill-opacity=".996" rx=".61" ry=".36" transform="rotate(-31.6 585.628 -261.28)"/><path fill="#3e0045" fill-opacity=".996" d="M236.11 273.86q.39-2.68-.18-5.2-.18-.79.58-.5.15.06.28.14a.64.62 19 0 1 .3.6q-.4 4.26.76 7.71.89 2.67-.82 4.29a1.58 1.58 0 0 1-2.55-.53q-1.68-3.95 1.15-5.77.41-.26.48-.74m-.14 7.23a3.2 1.17 90.9 0 0 1.22-3.182 3.2 1.17 90.9 0 0-1.12-3.218 3.2 1.17 90.9 0 0-1.22 3.182 3.2 1.17 90.9 0 0 1.12 3.218"/><path fill="#070709" fill-opacity=".996" d="M281.29 271.29q-.57-.39-.55-1.07.03-.77.65-.32 1.18.88 1.7 2.19.19.47-.23.76-.47.32-1.07.44-.77.17-.65-.61.04-.23.21-.38.62-.54-.06-1.01M283.55 270.78q-.33-.16-.19-.56.15-.41.46-.12.28.26.1.56-.13.23-.37.12M221.54 271.03a.1.09 71 0 1 .14.07q.08.68-.48 1.17-.37.32-.32-.17.07-.72.66-1.07M272.21 278.71c1.05-.98.71-3.81.42-5.03q-.1-.43-.48-.65-.29-.17-.6-.29a.1.1 0 0 1 .04-.19c2.84.11 2.51 4.34 1.56 5.97a1.59 1.58-50 0 1-2.57.23c-1.26-1.48-1.45-4.81.49-6.02q.43-.27.2.18-1.16 2.26-.36 5.41a.79.79 0 0 0 1.3.39"/><rect width="1" height="6.48" x="-.5" y="-3.24" fill="#082b0a" fill-opacity=".996" rx=".27" transform="rotate(-.7 23087.932 -19633.865)"/><path fill="#082b0a" fill-opacity=".996" d="M228.62 282.17q-1.12-1.04-2.02-2.58-.33-.57.32-.5l3.78.42q.77.08.17.57-.5.41-1.09.2-1.14-.41-.39.55.9 1.16 1.84 2.43.71.94-.41.58-2.01-.64-4.3-.44a.18.18 0 0 1-.19-.2l.04-.27q0-.07.08-.08l2.04-.26q.5-.07.13-.42M265 284.01q.1-.25.34-.09.17.11.07.32-.45.93-1.33 1.52-.54.36-.18-.19 1.02-1.5-.69-2.53-.69-.42.12-.49 1.29-.11 1.59 1.45a.04.04 0 0 0 .08.01"/><ellipse fill="#082b0a" fill-opacity=".996" rx=".63" ry=".3" transform="rotate(-42.2 499.629 -203.133)"/><rect width=".94" height="5.72" x="-.47" y="-2.86" fill="#082b0a" fill-opacity=".996" rx=".26" transform="rotate(-34 573.882 -190.396)"/><ellipse fill="#082b0a" fill-opacity=".996" rx=".65" ry=".35" transform="rotate(141.1 52.19 179.6)"/><path fill="#070709" fill-opacity=".996" d="M217.81 294.8a.2.2 0 0 1-.2-.19l-.01-.18a6.12.57 88.4 0 1 .4-6.14h.06a6.12.57 88.4 0 1 .74 6.1v.18a.2.2 0 0 1-.19.21zM203.09 289.6a.27.27 0 0 1 .42.24q-.03.56-.59.76a.29.29 0 0 1-.36-.41q.19-.36.53-.59"/><ellipse fill="#082b0a" fill-opacity=".996" rx=".68" ry=".52" transform="rotate(25.4 -527.31 704.89)"/><rect width=".96" height="5.7" x="-.48" y="-2.85" fill="#070709" fill-opacity=".996" rx=".27" transform="rotate(-33.8 604.027 -223.928)"/><ellipse fill="#070709" fill-opacity=".996" rx=".62" ry=".37" transform="rotate(-48.2 445.171 -106.2)"/><path fill="#070709" fill-opacity=".996" d="M244.81 299q.1.23-.1.27-.08.01-.1-.06-.04-.14.1-.24a.07.07 0 0 1 .1.03M224.98 299.66q.81-.81.53.3-.1.4-.48.6a.25.25 0 0 1-.36-.23q.02-.38.31-.67"/><path fill="#082b0a" fill-opacity=".996" d="m229.35 305.06.7 1.18q.35.6-.33.5-.64-.08-.93-.71-.66-1.41-1.71-2.55-.62-.67.22-.29 1.38.62 2.69.23 1.02-.3.2.38-.24.2-.53.33a.65.65 0 0 0-.31.93"/><path fill="#070709" fill-opacity=".996" d="M227.51 306.56a.27.26 77.2 0 1 .39.25q-.04.53-.55.78a.29.29 0 0 1-.41-.34q.13-.45.57-.69M206.4 308.99q-.43-.78-1.14-1.28-.58-.4.12-.5.6-.09 1.18.21c.83.43 1.31 2.59 2.33 3.55q.58.55-.22.58-.23.01-.46-.05-.31-.08-.48-.33-.71-1.04-1.33-2.18M208.42 307.22q.38-.07.2.27-.25.47-.83.57a.19.19 0 0 1-.19-.29q.29-.44.82-.55"/><ellipse fill="#070709" fill-opacity=".996" rx=".65" ry=".34" transform="rotate(-49.9 437.09 -65.47)"/></svg>