<svg xmlns="http://www.w3.org/2000/svg" viewBox="0 0 382 382"><g fill="none" stroke="#e56763" stroke-width="2"><path d="M282.01 203.79q-.15-.05-.31-.09-.32-.09-.46-.39-.87-1.89-2.38-3.2M279.71 245.14q.16-.1.31-.19" vector-effect="non-scaling-stroke"/></g><path fill="#eecac2" fill-opacity=".996" d="M281.15 102.1q-.13-.06-.28-.05-.08 0-.07-.07.23-1.35.55-2.59.2-.79.38.01.26 1.1.25 2.15 0 .9-.83.55M299.17 115.44c-.5 1.8-.49 3.51-.01 5.28q.26.92-.39.22c-1.42-1.54-1.17-4.27.05-5.69q.59-.7.35.19M289.03 131.04q.25.39.62.67c1.57 1.23 1.09 4.28.19 5.71q-.17.27-.49.28-.14 0-.23-.12-.06-.09-.01-.18 1.21-2.59.11-5.35a.72.72 0 0 0-1.34-.01q-1.07 2.67.15 5.33.11.23-.13.32l-.33.13q-.09.03-.13-.05-1.59-2.66-.69-5.64a.67.64-8.8 0 1 .27-.35l.45-.28a1.21 1.17 79.9 0 0 .52-.77q.44-2.27-.36-4.34-.06-.17.09-.26t.24.03q1.25 1.65.86 3.9a1.36 1.35 33.2 0 0 .21.98M297.64 148.4c-.19 0-.47.03-.64.11a.05.05 0 0 1-.07-.05q.42-3.11-.07-6.29-.05-.34.3-.35l.52-.01q.27-.01.25.26-.27 3.32.25 6.25a.16.16 0 0 1-.24.16q-.14-.09-.3-.08M292.97 150.85q-.73-1.69-1.83-2.76-.75-.73.28-.56.31.05.61.16.39.14.56.53.86 1.9 2.17 3.24.41.42-.17.44-1.16.03-1.62-1.05"/><ellipse fill="#eecac2" fill-opacity=".996" rx=".68" ry=".33" transform="rotate(-26.6 459.92 -547.525)"/><path fill="#eecac2" fill-opacity=".996" d="M281.09 150.74q.4.77 1.05 1.43.25.26-.05.46l-.4.26q-.05.04-.09 0-2.41-2.32-.23-4.74.15-.17.31-.02l.2.17q.2.18-.04.3-1.48.78-.75 2.14M291.61 150.83a.29.28 84.4 0 1 .37.31q-.06.48-.59.65-.41.12-.34-.3.07-.49.56-.66"/><path fill="#dd0505" d="M281.94 173.74q.19-2.51-.26-5.29-.08-.47.39-.35l.44.12q.12.03.12.15l.34 6.21a.2.2 0 0 1-.19.21q-.27 0-.53.05-.9.18-.46-.62.13-.23.15-.48"/><path fill="#eecac2" fill-opacity=".996" d="M290.22 172.48c-.24-.61-.57-.98-1.07-1.4q-.68-.58.21-.51.3.02.59.13.42.16.61.56.86 1.79 2.23 3.25.19.19-.01.38l-.34.33q-.12.12-.25.01-1.35-1.18-1.97-2.75"/><ellipse fill="#eecac2" fill-opacity=".996" rx=".67" ry=".33" transform="rotate(-27.9 490.131 -501.977)"/><ellipse fill="#eecac2" fill-opacity=".996" rx=".8" ry=".33" transform="rotate(128 102.175 157.827)"/><path fill="#dd0505" d="M294.68 180.88q1.07.84 1.45-.47.95-3.21-.48-5.23-.43-.61.22-.24c1.99 1.14 1.84 4.04.87 5.75a1.66 1.66 0 0 1-2.84.08q-1.82-2.85.64-5.97.04-.04.09-.01l.24.12q.22.12.08.32c-1.12 1.61-.77 3.08-.66 4.9q.02.47.39.75M291.03 185.76q.78-.82.85-1.84.04-.53.54-.72.3-.12.6.01.51.21.09.57-2.91 2.49-2.03 5.23.31.97-.67.63-.08-.03-.17-.01-.86.13-.48-.66c.83-1.7-1.05-4.09-2.18-5.32q-.47-.51.22-.61.49-.07.94.12c.71.28.66 1.95 1.58 2.66q.38.29.71-.06"/><path fill="#eecac2" fill-opacity=".996" d="M297.24 185.21c-.98 1.68-1.09 3.89-.29 5.79q.37.87-.3.2c-1.56-1.55-1.68-4.81.32-6.24q.72-.5.27.25M273.35 189.87q.45 1.27 1.48 2.24.49.46-.18.51-.79.05-1.2-.63-1.07-1.8-2.2-3.35-.62-.85.32-.39 1.27.63 2.47.21 1.13-.4.2.36-.23.19-.51.28a.6.6 0 0 0-.38.77"/><ellipse fill="#eecac2" fill-opacity=".996" rx=".72" ry=".31" transform="rotate(127.1 88.01 163.57)"/><path fill="#eecac2" fill-opacity=".996" d="M266.06 194.13q.07.16.09.34.03.44-.4.44l-.48.01q-.57.01-.41-.54l.43-1.44q.2-.66.43-.01c.14.4.16.81.34 1.2"/><path fill="#dd0505" d="M282.01 203.79q-.15-.05-.31-.09-.32-.09-.46-.39-.87-1.89-2.38-3.2l-.46-.54q-.6-.7.32-.6l.81.08q.65.07.3.62-.1.16-.1.36 0 .32.32.4.41.1.8.29 1.2.59.75 1.77-.17.44.09.83zM281.42 199.57q-.04-.03-.07-.06-.16-.12.03-.09.09.02.15.08.39.45-.11.07"/><path fill="#eecac2" fill-opacity=".996" d="m282.01 203.79.19 1.13q.16.94-.54.3-.99-.91-1.71-2.28-.98-1.84-.8.23.04.58.22 1.19.12.38-.05.71a.28.28 0 0 1-.53-.13l.07-4.83q1.51 1.31 2.38 3.2.14.3.46.39.16.04.31.09"/><path fill="#dd0505" d="M267.11 207.72q.23-.38.66-.58.29-.13.39.17l.08.26q.01.02-.09.08l-.85.53q-.66.42-.22 1.06l1.34 1.97a.29.28 57.4 0 1-.08.4l-.27.16q-.23.14-.38-.09l-2.78-4.14q-.38-.58.3-.47.62.09 1 .67.46.72.9-.02"/><rect width=".92" height="5.64" x="-.46" y="-2.82" fill="#eecac2" fill-opacity=".996" rx=".26" transform="rotate(-33.9 480.598 -343.677)"/><ellipse fill="#eecac2" fill-opacity=".996" rx=".69" ry=".34" transform="rotate(-41.9 408.728 -254.38)"/><path fill="#eecac2" fill-opacity=".996" d="M244.85 207.5q.71-.15 1.21.54.4.54-.28.59-.64.05-1.13-.46a.4.4 0 0 1 .2-.67"/><path fill="#dd0505" d="M194.59 209.56q.3-.3.64 0a.34.34 0 0 1 .01.49q-.22.23-.54.09a.36.35-56.3 0 1-.11-.58M239.65 209.54q.14-.02.28-.02.67-.02.45.61-.27.75.15 1.53.29.54-.33.56l-.46.02q-.76.02-.34-.61.46-.7-.06-1.36-.49-.64.31-.73"/><path fill="#eecac2" fill-opacity=".996" d="M237.83 211.25q-.06.28-.31.4a.33.33 0 0 1-.43-.45q.42-.85 1.1-1.37.37-.29.34.18-.04.47-.4.74-.25.19-.3.5M234.97 210.79a.26.26 0 0 1 .37-.32q.5.27.79.77.23.42-.24.33-.68-.13-.92-.78"/><path fill="#dd0505" d="M265.39 210.5a.23.23 0 0 1 .32.28q-.19.55-.74.88a.26.26 0 0 1-.38-.31q.21-.57.8-.85"/><path fill="#eecac2" fill-opacity=".996" d="M272.44 210.54q.36-.14.24.23-.23.72-1.02.97-.59.19-.26-.34.38-.59 1.04-.86M281.96 221.63a3.33 2.16 90 0 1-2.16-3.33 3.33 2.16 90 0 1 2.16-3.33 3.33 2.16 90 0 1 2.16 3.33 3.33 2.16 90 0 1-2.16 3.33m-.036-.38a3 1.22 90.3 0 0 1.236-2.994 3 1.22 90.3 0 0-1.204-3.006 3 1.22 90.3 0 0-1.236 2.994 3 1.22 90.3 0 0 1.204 3.006M212.85 218.27q.48 1.08 1.28 1.87.38.38-.05.71l-.22.16q-.15.12-.26-.04l-2.86-4.18q-.71-1.05.42-.48 1.06.54 1.69 1.96"/><ellipse fill="#eecac2" fill-opacity=".996" rx=".74" ry=".36" transform="rotate(136.9 63.89 150.584)"/><path fill="#eecac2" fill-opacity=".996" d="M211.39 219.54q.37-.21.27.2-.13.6-.75.89-.85.4-.31-.37.31-.43.79-.72"/><rect width=".92" height="5.6" x="-.46" y="-2.8" fill="#eecac2" fill-opacity=".996" rx=".26" transform="rotate(-33.8 510.756 -360.032)"/><path fill="#eecac2" fill-opacity=".996" d="M287.7 221.1a.3.3 0 0 1 .46.25q.01.32-.61.66a.29.29 0 0 1-.43-.3q.04-.28.58-.61M285.27 224.36a.19.19 0 0 1 .3.12q.16.72-.6 1.03-.5.21-.33-.31t.63-.84M208.81 232.29c.54-1.72.62-2.99-.73-4.44a.21.21 0 0 1 .07-.33l.25-.11q.17-.08.32.04 2.91 2.57.76 5.19-1.26 1.55-.67-.35"/><path fill="#dd0505" d="M284.625 236.17a3.36 2.13 89.4 0 1-2.165-3.338 3.36 2.13 89.4 0 1 2.095-3.382 3.36 2.13 89.4 0 1 2.165 3.338 3.36 2.13 89.4 0 1-2.095 3.382m-.035-.27a3.1 1.18 90 0 0 1.18-3.1 3.1 1.18 90 0 0-1.18-3.1 3.1 1.18 90 0 0-1.18 3.1 3.1 1.18 90 0 0 1.18 3.1"/><path fill="#eecac2" fill-opacity=".996" d="M279.23 231.65q.36 1.45 1.53 2.51.52.47-.18.55-.91.11-1.29-.73-.86-1.93-2.14-3.26-.58-.6.25-.51 1.5.14 1.83 1.44"/><path fill="#dd0505" d="M279.26 230.84q.49-.4 1.07-.51.51-.1.19.32-.5.66-1.17.54-.41-.08-.09-.35"/><path fill="#eecac2" fill-opacity=".996" d="M243.94 233.33q-.2.14-.45.11a.26.26 0 0 1-.17-.42q.35-.43.95-.4a.22.22 0 0 1 .21.24q-.02.23-.2.3t-.34.17M242.87 234.1q.93 1.38 2.02 2.5.51.52-.23.57-.54.03-.9-.3-.83-.78-1.29-1.82-.4-.92-1.03-1.57-.98-1.01.4-.8.66.1.76.73.06.38.27.69M239.11 237.45l-2.51-3.92q-.22-.34.16-.48l.41-.15q.14-.05.21.07 1.46 2.25 2.68 4.2.09.15-.05.25l-.21.16a.49.48 55.4 0 1-.69-.13M239.61 233.12q.46-.14.25.29-.2.42-.7.56-.4.11-.22-.27.2-.44.67-.58"/><path fill="#dd0505" d="M277.71 233.61a.21.21 0 0 1 .31.19q-.02.66-.62.92a.32.32 0 0 1-.38-.48q.31-.4.69-.63"/><path fill="#eecac2" fill-opacity=".996" d="M218.93 241.38a.01.01 0 0 1-.01.01l-.55.01a.4.23-.9 0 1-.4-.22l-.1-6.2a.4.23-.9 0 1 .4-.24l.55-.01a.01.01 0 0 1 .01.01zM240.79 237.02l.81-.98q.51-.6.39.18-.12.91-1.1 1a.12.12 0 0 1-.1-.2M236.93 236.58q.41-.14.41.29 0 .45-.85.69a.28.28 0 0 1-.31-.41q.21-.38.75-.57M266.5 244.23q.5-2.76-.04-5.48a.31.3 81.6 0 1 .27-.37l.4-.05a.33.33 0 0 1 .37.32l.15 5.89q.01.3-.3.29l-.4-.03q-.55-.03-.45-.57M279.71 245.14q.16-.1.31-.19-.61.56-1.01.63-.34.06-.34-.28l-.1-5.96q0-.37.36-.46l.26-.06q.38-.09.39.31zM250.15 244.12c-.48-1.13-1.12-2.37-2.04-3.23q-.83-.77.28-.54l.37.08q.65.13.89.75.68 1.75 2.05 3.12.62.62-.25.51-.43-.05-.83-.22-.33-.14-.47-.47M251.5 240.74q-.38.43-.94.64a.28.28 0 0 1-.3-.45q.46-.46 1.07-.52a.2.2 0 0 1 .17.33M248.7 243.72q.25-.09.26.17.05.75-.7.96a.27.27 0 0 1-.33-.35q.2-.58.77-.78"/><path fill="#dd0505" d="M280.02 244.95q-.15.09-.31.19.36-.56.82-.7.5-.15.95.15.86.57 1.77-.1.64-.47.29.24-.26.53-.86.58-.61.04-.36.61.6 1.37 1.61 2.35.49.47-.18.56-.29.03-.55-.11t-.41-.39q-1.29-2.25-2.77-3.38M238.652 251.18a3.37 2.14 89.8 0 1-2.152-3.363 3.37 2.14 89.8 0 1 2.128-3.377 3.37 2.14 89.8 0 1 2.152 3.363 3.37 2.14 89.8 0 1-2.128 3.377m-.033-.27a3.08 1.18 90.2 0 0 1.191-3.076 3.08 1.18 90.2 0 0-1.17-3.084 3.08 1.18 90.2 0 0-1.19 3.076 3.08 1.18 90.2 0 0 1.17 3.084"/><path fill="#eecac2" fill-opacity=".996" d="M255.031 251.66a3.19 2.18 89.8 0 1-2.191-3.182 3.19 2.18 89.8 0 1 2.169-3.198 3.19 2.18 89.8 0 1 2.191 3.182 3.19 2.18 89.8 0 1-2.169 3.198m1.113-4.75a1.05 1.05 0 0 0-1.041-1.06h-.12a1.05 1.05 0 0 0-1.06 1.04l-.027 3.18a1.05 1.05 0 0 0 1.041 1.06h.12a1.05 1.05 0 0 0 1.06-1.04zM227.13 252.69a.01.01 0 0 1-.01.01l-.69.01a.28.23-1.2 0 1-.29-.22l-.12-6.18a.28.23-1.2 0 1 .27-.23l.69-.02a.01.01 0 0 1 .01.01z"/><path fill="#dd0505" d="M280.86 247.77q.41-.09.27.3-.21.59-.79.63-.45.03-.22-.36.26-.45.74-.57"/><rect width=".9" height="6.58" x="-.45" y="-3.29" fill="#eecac2" fill-opacity=".996" rx=".26" transform="rotate(-1.8 8131.358 -6955.504)"/><path fill="#eecac2" fill-opacity=".996" d="M256.92 253.02q-.11-.1-.23-.18-.52-.32.08-.2c2.62.54 2.53 5.75.28 6.77q-.61.28-.21-.26 1.8-2.41.48-5.57-.13-.33-.4-.56"/><path fill="#eecac2" fill-opacity=".996" d="M256.1 259.04q.07.16-.09.22l-.3.12q-.06.02-.09-.03-2.22-3.5-.07-6.24.13-.17.33-.24.49-.18.26.29-1.4 2.84-.04 5.88"/><rect width=".9" height="5.68" x="-.45" y="-2.84" fill="#eecac2" fill-opacity=".996" rx=".35" transform="rotate(-32.8 573.265 -313.937)"/><path fill="#eecac2" fill-opacity=".996" d="M262.64 258.24a.18.18 0 0 1 .24.11q.2.64-.54.8-.5.1-.28-.35.19-.38.58-.56M280.47 260.19a.01.01 0 0 1 .01-.01l.05-.04a1.13.92 56.2 0 1 1.4.43l1.93 2.89a1.13.92 56.2 0 1-.13 1.45l-.06.04a.01.01 0 0 1-.01-.01zM283.55 260.14q.42-.09.38.34-.02.26-.25.36-.4.16-.49-.26-.07-.35.36-.44M260.35 261.49a.18.18 0 0 1 .26.19q-.11.69-.89.96-.53.19-.27-.31.28-.55.9-.84"/><path fill="#dd0505" d="M280.92 263.54a.26.26 0 0 1 .36.19q.08.48-.32.77a.33.32-17 0 1-.52-.27q.02-.48.48-.69M202.36 274.47l.22-4.23q.06-1.11.52-.1 1 2.2-.22 4.47-.59 1.08-.52-.14"/><path fill="#eecac2" fill-opacity=".996" d="M204.73 280.91a.19.19 0 0 1-.19-.19l-.03-5.77a.54.49 89.7 0 1 .48-.54.54.49 89.7 0 1 .5.54l.03 5.77a.19.19 0 0 1-.19.19zM205.91 282.49q-1.52 3.15.11 5.85a.43.43 0 0 0 .74 0q1.73-2.84-.06-5.84-.3-.5-.79-.01 1.07-.54 1.62.22 2.25 3.14-.3 6.39-.42.52-.02 1.06l1.28 1.72q.2.27-.12.36l-.47.15q-.22.07-.34-.13c-.97-1.61-3.01-3.79-3.22-5.55-.18-1.46-.1-3.66 1.57-4.22M215.06 284.87a.16.16 0 0 1 .22.04l2.79 4.15a.58.4 56.1 0 1-.01.7l-.08.06a.58.4 56.1 0 1-.66-.26l-2.78-4.15a.16.16 0 0 1 .04-.22zM216.93 285.79q.27-.39.72-.51.44-.12.28.3-.22.57-.79.6-.5.03-.21-.39M214.46 289.33q.25-.51.78-.77.42-.21.29.24-.2.66-.81.84-.49.14-.26-.31M205.66 290.84q-.03.77-.56 1.26-.6.54-.41-.24.16-.68.68-1.15.3-.27.29.13"/><path fill="#dd0505" d="M256.62 291.43q-.26.48-.81.25-.67-.27.03-.46.4-.11.75.12a.07.07 0 0 1 .03.09"/><path fill="#eecac2" fill-opacity=".996" d="M245.59 291.78a.72.72 0 0 0-.85.47q-1.07 3.08.49 5.68.09.14-.05.22l-.21.14q-.07.04-.12-.02-2.58-2.88-.78-6.02a1.66 1.65 44.9 0 1 2.87 0c.87 1.52 1.14 4.95-.96 5.82q-.57.23-.21-.27c1.25-1.72.82-3.02.65-5.01q-.06-.84-.83-1.01"/><path fill="#dd0505" d="M216.33 296.76c-.68-.85-.93-1.74-1.71-2.52q-.36-.35.12-.51.6-.19.94.32 1.26 1.88 2.57 3.9.19.28-.11.44l-.38.21q-.05.02-.08-.02-.7-1.02-1.35-1.82M217.17 294.08q.13-.24.39-.3.45-.11.37.35-.1.51-.56.4a.31.3 21.3 0 1-.2-.45"/><rect width=".9" height="5.74" x="-.45" y="-2.87" fill="#eecac2" fill-opacity=".996" rx=".26" transform="rotate(-34.5 594.128 -215.655)"/><path fill="#eecac2" fill-opacity=".996" d="M227.93 296.35q.26-.06.2.2-.14.65-.76.9-.45.17-.31-.29.2-.64.87-.81"/><path fill="#dd0505" d="M214.91 297.33q.38-.15.43.26.04.42-.28.69-.45.39-.57-.19-.1-.54.42-.76"/><ellipse fill="#eecac2" fill-opacity=".996" rx=".86" ry=".32" transform="rotate(-45 474.974 -121.81)"/><rect width=".92" height="6.52" x="-.46" y="-3.26" fill="#dd0505" rx=".26" transform="rotate(-1.4 12780.137 -7994.99)"/></svg>