<svg xmlns="http://www.w3.org/2000/svg" viewBox="0 0 382 382"><path fill="none" stroke="#fa6e6f" stroke-width="2" d="M283.09 271.74q.32-1.55.1-3.19" vector-effect="non-scaling-stroke"/><path fill="#f4dddf" fill-opacity=".996" d="M283.36 102.28a.9.89 14.4 0 0-1.28.75l-.2 3.55q-.01.13-.14.14l-.27.02q-.21.01-.26-.19-.66-2.36.54-4.07a1.62 1.62 0 0 1 2.69.06q1.33 2.09.31 4.88-.08.24-.33.32-.2.06-.37-.06-.16-.11-.12-.31.4-1.82.22-3.93-.08-.82-.79-1.16"/><path fill="#f2d80c" fill-opacity=".996" d="M289.09 106.93q.2-.17.46-.2.71-.1.16.35-.73.59-1.53.13-1.06-.61-1.3-1.93-.04-.22.18-.24l.28-.03q.12-.01.15.11.29 1.05.89 1.76.33.38.71.05"/><path fill="#f4dddf" fill-opacity=".996" d="M293.31 134.36q-.1-.33-.39-.51-.69-.44.12-.36.19.02.37.09.19.08.3.26 1.67 2.64.18 5.37a1.63 1.62-46.4 0 1-2.81.07q-1.75-2.83.49-5.92.06-.08.16-.03l.26.13q.23.11.11.33-1.67 2.96-.27 5.6a.74.74 0 0 0 1.36-.12q.81-2.5.12-4.91M283.57 142.41q.57-1.99.15-4.41a.35.34 81.1 0 1 .29-.4q.14-.02.27.02t.17.16q1.13 3.22-.65 5.19-.52.57-1.27.35-.51-.14.01-.25l.42-.09a.83.81-87.4 0 0 .61-.57M287.2 143.02a.62.62 0 0 0-1.12 0q-1.49 3.16.37 6.08.04.05-.01.09l-.22.15q-.07.05-.13-.01-2.65-2.6-.92-5.99a1.62 1.61 42.1 0 1 2.79-.14q1.83 2.81-.41 5.95-.04.05-.09.01l-.22-.12q-.22-.13-.11-.36 1.37-2.87.07-5.66"/><path fill="#f4dddf" fill-opacity=".996" d="M294.882 152.42a3.43 2.13 90.3 0 1-2.112-3.441 3.43 2.13 90.3 0 1 2.148-3.419 3.43 2.13 90.3 0 1 2.112 3.441 3.43 2.13 90.3 0 1-2.148 3.419m-.009-.27a3.16 1.19 90.3 0 0 1.207-3.154 3.16 1.19 90.3 0 0-1.173-3.166 3.16 1.19 90.3 0 0-1.207 3.154 3.16 1.19 90.3 0 0 1.173 3.166M289.65 160.33l-.11-5.61q-.01-.4.38-.36l.29.03q.24.02.24.26l.02 5.28q.01.43.36.67.2.13.19.35a.21.21 0 0 1-.27.19q-.54-.15-1.08.01-.61.17-.43-.43.06-.2.28-.23.14-.02.13-.16M281.85 162.41q.54 1.38 1.68 2.26.64.5.06 1.07a.69.69 0 0 1-1.11-.21q-.87-1.97-2.44-3.85-.48-.56.25-.47.6.08 1.07.45a.62.62 0 0 0 .8-.02q.56-.51 1.28-.51a.61.6-85.1 0 1 .59.71q-.07.45.33.63.36.17.51-.2.26-.67.95-.96a.25.25 0 0 1 .32.35q-.28.5-.81.75-.63.29-.33.92.52 1.1 1.34 1.95.27.27-.03.5l-.31.24q-.18.14-.3-.04l-2.34-3.44a.23.22 79.6 0 0-.14-.1l-1.22-.21q-.23-.04-.15.18M280.79 164.46q.11-.05.12.07 0 .79-.68 1.18a.19.19 0 0 1-.28-.2q.17-.78.84-1.05"/><path fill="#f2d80c" fill-opacity=".996" d="M275.17 167.16q-.19-.15-.39-.29-.33-.24.05-.38.19-.07.33.06 3.03 2.59.7 6.4-.03.05-.09.04l-.36-.01q-.25-.01-.15-.23 1.05-2.45.25-5.11-.09-.29-.34-.48"/><path fill="#f4dddf" fill-opacity=".996" d="M281.9 174.22a3.37 2.14 90 0 1-2.14-3.37 3.37 2.14 90 0 1 2.14-3.37 3.37 2.14 90 0 1 2.14 3.37 3.37 2.14 90 0 1-2.14 3.37m-.027-.3a3.07 1.2 90.5 0 0 1.227-3.06 3.07 1.2 90.5 0 0-1.173-3.08 3.07 1.2 90.5 0 0-1.227 3.06 3.07 1.2 90.5 0 0 1.173 3.08"/><path fill="#f2d80c" fill-opacity=".996" d="M273.58 170.47c.11.73.22 1.42.35 2.15q.17.89-.39.17-.79-1.02-.34-2.35.26-.79.38.03"/><path fill="#f4dddf" fill-opacity=".996" d="M293.39 176.74q-.34-.1-.27-.45.58-2.85-.15-5.65-.15-.6.46-.52.15.01.3.08.33.15.34.51l.16 6.62q.01.55-.35.96l-1.64 1.85q-.32.35-.04.74l2.08 2.83q.38.53-.27.5l-.58-.03q-.43-.02-.61-.4-1.67-3.42-4.06-5.97-.38-.42.18-.36l1.33.14q.46.05.44.51-.07 1.08.75 1.55.53.3.88-.19l1.34-1.89a.54.54 0 0 0-.29-.83"/><path fill="#f2d80c" fill-opacity=".996" d="M274.39 177.59q.29-1.9-.1-3.41-.1-.4.31-.36l.35.03a.31.31 0 0 1 .29.3l.2 3.6q.03.46-.43.51l-2.47.22a.52.52 0 0 1-.55-.65l.87-3.46a.07.06-79 0 1 .11.03q-.36 1.42-.09 2.76.15.72.84.88.58.14.67-.45"/><path fill="#f4dddf" fill-opacity=".996" d="M290.55 181.56q.05-.08.12-.01l.21.17q.16.14.01.3-.94.96-1.54 2.3-.1.23-.32.1l-.25-.16q-.41-.24-.05-.55 1.04-.89 1.82-2.15M295.01 199.4q-.12-.8-.99-1.77-.38-.43-.2-.98.24-.7-.39-1.06a.76.74 18.6 0 1-.38-.74q.33-2.99-.35-5.41a.36.35-8.2 0 1 .34-.44l.48-.01a.27.27 0 0 1 .28.26l.26 6.87q.02.55.44.9 1.17 1.01 1.64 2.45.23.7-.45.43-.37-.14-.68-.5M263.02 195.7q.61-.39.97.25.3.55-.32.58-.23.01-.46.04-.71.08-.43-.58.07-.18.24-.29"/><circle cx="296.25" cy="197.15" r=".25" fill="#f2d80c" fill-opacity=".996"/><path fill="#f2d80c" fill-opacity=".996" d="M295.01 199.4q-.67 1.62-1.35 1.7-.41.05-.19-.3.63-1.01 1.54-1.4"/><path fill="#f4dddf" fill-opacity=".996" d="m238.93 211.01 1.5 2.07q.08.12 0 .23l-.2.27a.36.35-43.8 0 1-.58-.01l-2.01-2.97q-.41-.6.33-.58.8.02 1.49-.49.55-.41.24.2-.17.33-.51.45-.68.25-.26.83"/><ellipse fill="#f2d80c" fill-opacity=".996" rx="1.77" ry=".43" transform="rotate(88.9 -7.82 208.218)"/><ellipse fill="#f2d80c" fill-opacity=".996" rx="1.12" ry=".47" transform="rotate(45.1 -149.962 361.97)"/><path fill="#f2d80c" fill-opacity=".996" d="m209.14 213.16.72-.94q.33-.43.37.11.03.39-.17.7-.27.41-.76.43-.41.02-.16-.3"/><path fill="#f4dddf" fill-opacity=".996" d="M237.23 212.42a.25.24-17 0 1 .39.2q-.01.45-.39.67-.76.43-.51-.4.05-.14.51-.47"/><path fill="#f2d80c" fill-opacity=".996" d="M247.153 218.69a3.24 2.17 90.3 0 1-2.153-3.251 3.24 2.17 90.3 0 1 2.187-3.229 3.24 2.17 90.3 0 1 2.153 3.251 3.24 2.17 90.3 0 1-2.187 3.229m.001-.27a2.97 1.21 90.5 0 0 1.236-2.96 2.97 1.21 90.5 0 0-1.184-2.98 2.97 1.21 90.5 0 0-1.236 2.96 2.97 1.21 90.5 0 0 1.184 2.98"/><path fill="#f2d80c" fill-opacity=".996" d="M256.4 220.61q.04.03.09.03.09.01.12-.07.34-.86 1.27-.98.72-.1.18.38l-.72.63q-.43.38-.18.91.49 1.06 1.37 1.74.47.37-.08.59-.42.16-.74-.12-1.36-1.2-1.69-2.58-.14-.57-.72-.65l-2.01-.25a1.68 1.67-85.5 0 1-1.46-1.72q.07-2.3-.42-4.57-.13-.62.45-.35.34.16.68 0 .62-.31.44.36-.76 2.82.02 5.26a.87.87 0 0 0 .87.61q.91-.03 1.78-.53.44-.25.5-.76.3-2.35-.05-4.49-.11-.66.56-.52.07.01.13.01.57-.02.24.45-.36.52-.34 1.15.1 2.66-.41 5.13-.04.21.12.34"/><rect width=".92" height="5.64" x="-.46" y="-2.82" fill="#f2d80c" fill-opacity=".996" rx=".26" transform="rotate(-33.3 508.424 -369.603)"/><path fill="#f2d80c" fill-opacity=".996" d="M286.99 216.59q.47-.41.79-.34a.26.25-64.7 0 1 .14.4q-.31.42-.76.42a.27.27 0 0 1-.17-.48M285.56 219.88q-.42.54-1.04.78a.24.24 0 0 1-.29-.36q.45-.63 1.13-.75a.21.21 0 0 1 .2.33"/><path fill="#f4dddf" fill-opacity=".996" d="M255.59 222.64a.26.26 0 0 1 .39.26q-.12.72-.82.87-.56.12-.28-.38.25-.47.71-.75M225.098 230.14a3.36 2.14 89.7 0 1-2.158-3.349 3.36 2.14 89.7 0 1 2.122-3.371 3.36 2.14 89.7 0 1 2.158 3.349 3.36 2.14 89.7 0 1-2.122 3.371m1.036-5.14a1.03 1.03 0 0 0-1.039-1.02h-.1a1.03 1.03 0 0 0-1.02 1.04l.03 3.62a1.03 1.03 0 0 0 1.04 1.02h.1a1.03 1.03 0 0 0 1.02-1.04z"/><rect width=".92" height="6.54" x="-.46" y="-3.27" fill="#f4dddf" fill-opacity=".996" rx=".26" transform="rotate(-1.5 8790.926 -9483.06)"/><path fill="#f2d80c" fill-opacity=".996" d="M273.93 237.43q-.02.47.3.81a.32.32 0 0 1-.18.53l-.52.1q-.7.13-.59-.57.52-3.11-.13-5.85-.07-.33.27-.32l.49.03q.26.01.27.27.15 2.63.09 5M253.66 245.75a.01.01 0 0 1-.01.01l-.22.01a.71.58-.7 0 1-.72-.57l-.06-5.56a.71.58-.7 0 1 .7-.59l.22-.01a.01.01 0 0 1 .01.01zM278.95 246.79q.2 1.01.53.03.86-2.54-.85-4.74-.46-.58.21-.27c2.39 1.12 2.18 4.85.54 6.32q-.27.24-.35.6-.37 1.67.05 3.35.18.7-.5.45-.17-.06-.33.04-.69.42-.43-.35 1.19-3.44-1.63-5.62-.4-.3-.26-.77.78-2.82.23-5.55-.07-.38.22-.61.21-.16.47-.17a.53.53 0 0 1 .49.75q-.37.79.06 1.55.3.53.26 1.14l-.11 2.09a.72.71-79.4 0 0 .49.72q.76.25.91 1.04"/><path fill="#f4dddf" fill-opacity=".996" d="M267.116 247.53a3.38 2.13 90.4 0 1-2.106-3.395 3.38 2.13 90.4 0 1 2.154-3.365 3.38 2.13 90.4 0 1 2.106 3.395 3.38 2.13 90.4 0 1-2.154 3.365m-.056-.31a3.08 1.2 91.3 0 0 1.27-3.053 3.08 1.2 91.3 0 0-1.13-3.106 3.08 1.2 91.3 0 0-1.27 3.052 3.08 1.2 91.3 0 0 1.13 3.106"/><path fill="#f2d80c" fill-opacity=".996" d="m223.34 245.53-3.06-4.32q-.14-.2.09-.29l.59-.25q.17-.06.27.09l2.8 4.31q.13.2-.07.34l-.26.18q-.21.15-.36-.06M222.79 241.02q.42-.26.89-.01.39.22 0 .43-.43.23-.87.02-.42-.19-.02-.44"/><path fill="#f4dddf" fill-opacity=".996" d="M255.59 248.39q.36-2.91-.02-5.65a.41.41 0 0 1 .49-.46l.32.06a.32.31 9.2 0 1 .25.34q-.3 2.83.2 5.75.07.38-.32.39l-.52.01q-.46.01-.4-.44"/><path fill="#f2d80c" fill-opacity=".996" d="M219.89 245.3q.18-.88 1.07-1.23.89-.34.43.49l-.6 1.06q-.25.44.04.87l2.27 3.4q.13.18-.05.31l-.23.17q-.13.1-.23-.02-.73-.83-1.57-1.35-.38-.24-.63-.62l-2.35-3.66q-.48-.74.35-.45.83.3 1.23 1.07.19.37.27-.04"/><path fill="#f2d80c" fill-opacity=".996" d="M221.72 246.26q.11-.54.6-.57a.26.25 8 0 1 .26.34q-.12.32-.38.53a.3.3 0 0 1-.48-.3M218.77 248.36q-.18.44-.62.18-.42-.24-.05-.56l.23-.2q.35-.3.46.15.06.22-.02.43M265.89 255.4q.62-2.95-.13-5.95-.1-.41.32-.35l.44.07a.37.36-86.2 0 1 .3.35l.2 6q.01.26-.25.28l-.48.05q-.51.06-.4-.45M219.67 249.59a.29.28-48.6 0 1 .03.52q-.3.16-.43-.15-.03-.09 0-.18.1-.3.4-.19M246.07 252.04q.06-.7.79-.87.46-.1.26.33-.29.6-.91.77-.7.18-.3.79l1.49 2.29q.13.2-.05.34l-.24.18q-.21.17-.37-.05l-2.86-4.14q-.52-.75.39-.6.58.09.82.7.17.45.62.54.33.06.36-.28M215.164 260.11a3.36 2.13 89.6 0 1-2.154-3.345 3.36 2.13 89.6 0 1 2.107-3.375 3.36 2.13 89.6 0 1 2.153 3.345 3.36 2.13 89.6 0 1-2.107 3.375m-.002-.31a3.06 1.21 89.4 0 0 1.178-3.073 3.06 1.21 89.4 0 0-1.242-3.047 3.06 1.21 89.4 0 0-1.178 3.073 3.06 1.21 89.4 0 0 1.242 3.047"/><rect width=".92" height="6.52" x="-.46" y="-3.26" fill="#f4dddf" fill-opacity=".996" rx=".26" transform="rotate(-1.2 12410.537 -13070.99)"/><path fill="#f2d80c" fill-opacity=".996" d="M244.47 254.39a.17.16-16.2 0 1 .26.14q-.02.73-.81 1.02-.47.18-.24-.27.27-.53.79-.89"/><path fill="#f4dddf" fill-opacity=".996" d="M229.018 261.4a3.4 2.14 90.2 0 1-2.128-3.407 3.4 2.14 90.2 0 1 2.152-3.393 3.4 2.14 90.2 0 1 2.128 3.407 3.4 2.14 90.2 0 1-2.152 3.393m1.108-5.276a1.03 1.03 0 0 0-1.026-1.034h-.12a1.03 1.03 0 0 0-1.034 1.026l-.012 3.74a1.03 1.03 0 0 0 1.026 1.034h.12a1.03 1.03 0 0 0 1.033-1.026z"/><rect width=".92" height="6.42" x="-.46" y="-3.21" fill="#f4dddf" fill-opacity=".996" rx=".26" transform="rotate(-1.4 11063.05 -8423.218)"/><path fill="#f4dddf" fill-opacity=".996" d="M283.09 271.74q.32-1.55.1-3.19.2-.91-.26-1.82-.25-.49.26-.69.21-.08.46-.01.47.13.45.63l-.21 5.57a.43.43 0 0 1-.32.4q-.2.05-.38-.03-.25-.1-.22-.37.01-.19.12-.49M244.62 272.54q.18-2.59-.25-4.94-.08-.43.36-.42l.49.01q.31 0 .28.32-.36 3.1.25 5.77.16.7-.49.39-.22-.1-.45-.04-.96.28-.43-.56.09-.13.16-.27.07-.12.08-.26"/><path fill="red" d="M283.19 268.55q.22 1.64-.1 3.19l-1.53 1.79q-.47.54-.86-.06l-2.08-3.17a.99.98 53.5 0 1 .19-1.3q1.02-.85 2 .07.39.37.81.05.74-.57 1.57-.57"/><path fill="#f2d80c" fill-opacity=".996" d="m227.11 277.26-.26-4.81q-.06-1.15 1.02-1.58l.36-.14a1.91 1.91 0 0 1 2.56 1.36q1.19 5.21-3.2 5.59-.46.04-.48-.42m2.874-5.294a.87.87 0 0 0-.864-.876h-.08a.87.87 0 0 0-.876.864l-.028 4.02a.87.87 0 0 0 .864.876h.08a.87.87 0 0 0 .876-.864zM284.83 271.33q.32-.39.74-.24a.38.38 0 0 1 .09.67q-.36.25-.73.07a.33.33 0 0 1-.1-.5M202.93 277.93q.6 1.53 1.89 2.48.17.12.05.3l-.2.3q-.04.07-.12.04-2.67-1.11-2.32-3.68.08-.64.73-.59.5.04.98-.12.81-.28.25.36-.39.44-.99.48-.42.03-.27.43M232.29 284.18a.53.53 0 0 0-.44.69q.83 2.51-.38 4.4a1.65 1.65 0 0 1-2.85-.12c-.85-1.61-1.19-5.33 1.24-5.68q.44-.06.79.14.67.38-.1.34-.56-.02-1.06.19-.42.18-.47.64c-.13 1.2-.41 3.76.64 4.68a.81.8-65.9 0 0 1.33-.51q.27-2.21.15-4.11-.02-.38.21-.69.11-.15.28-.23.36-.15.4-.54.32-2.64-.24-5.26-.09-.41.32-.49l.32-.07q.43-.09.43.35l.11 5.9q.01.28-.28.32zM259.94 284.45a3.38 2.14 90 0 1-2.14-3.38 3.38 2.14 90 0 1 2.14-3.38 3.38 2.14 90 0 1 2.14 3.38 3.38 2.14 90 0 1-2.14 3.38m-.01-.27a3.13 1.2 90 0 0 1.2-3.13 3.13 1.2 90 0 0-1.2-3.13 3.13 1.2 90 0 0-1.2 3.13 3.13 1.2 90 0 0 1.2 3.13"/><circle cx="201.58" cy="285.24" r=".23" fill="#f2d80c" fill-opacity=".996"/><path fill="#f4dddf" fill-opacity=".996" d="m211.49 293.02 2.47 3.75q.21.33.03.46l-.23.17q-.07.05-.13-.01l-1.67-1.69q-.34-.34-.45-.8-.24-.99-1.05-1.65-.75-.61.21-.55.13.01.27.01a.68.67-15.1 0 1 .55.31M213.65 293.14q-.37.33-.81.16-.38-.14-.07-.4.38-.32.8-.16.38.14.08.4M197.97 300.9a.71.7-67.3 0 0 1.07-.44q.6-2.71-.1-5-.44-1.41.44-.23 1.78 2.42.18 5.48-.31.59-.98.62l-1.26.04q-.54.02-.36-.49.07-.18.24-.28a.3.29-42.6 0 1 .31.01z"/><ellipse fill="#f4dddf" fill-opacity=".996" rx=".68" ry=".32" transform="rotate(133.7 41.9 193.386)"/><path fill="#f4dddf" fill-opacity=".996" d="M231.95 300.95q-.03-.16-.11-.3-.29-.5.27-.65.12-.04.25-.03.44.02.49.46.29 2.69-.14 4.71-.27 1.29-.45-.02c-.18-1.32.01-2.79-.31-4.17M214.13 302.84a.54.54 0 0 0 .95-.37q-.03-1.44.76-2.09.46-.38.24.18-1.02 2.61-1.99 4.95-.54 1.3-1.98 1.43-.13.02-.15-.12l-.03-.27q-.01-.14.12-.18 1.23-.33 1.79-1.16a.9.9 0 0 0 .05-.89l-1.75-3.52q-.22-.44.27-.45h.37q.48-.01.51.47.08 1.17.84 2.02M241.42 300.61l.5-.16q.89-.29.13.26-1.8 1.33-3.02.13-.64-.64.25-.47.53.09 1.11.26a1.75 1.73 43.5 0 0 1.03-.02"/><rect width=".92" height="5.54" x="-.46" y="-2.77" fill="#f2d80c" fill-opacity=".996" rx=".26" transform="rotate(-33.3 615.289 -197.376)"/><ellipse fill="#f2d80c" fill-opacity=".996" rx=".63" ry=".31" transform="rotate(-34.8 589.786 -183.834)"/><rect width=".92" height="6.64" x="-.46" y="-3.32" fill="#f4dddf" fill-opacity=".996" rx=".26" transform="rotate(-.5 35321.706 -25110.2)"/><path fill="#f2d80c" fill-opacity=".996" d="M207.68 307.71a.23.23 0 0 1-.33-.26q.17-.67.89-.96a.2.2 0 0 1 .26.23q-.15.67-.82.99M208.55 312.11l-.15-.38q-.14-.36.21-.53l.48-.24a.31.31 0 0 1 .45.26q.11 1.62-.18 2.97-.18.83-.47.04-.31-.82-.27-1.76a.98.9-58.5 0 0-.07-.36"/></svg>