<svg xmlns="http://www.w3.org/2000/svg" viewBox="0 0 382 382"><g fill="none" stroke-width="2"><path stroke="#dfb964" d="M272.03 215.14q-.44.29-.48.72" vector-effect="non-scaling-stroke"/><path stroke="#f1c854" d="M244.24 243.84q.71-.28.92-1.93M245.19 240.79l-.15-.55M241.22 243.29q.91-.9.21-1.94" vector-effect="non-scaling-stroke"/><path stroke="#e46661" d="m219.61 307.83.18-.72" vector-effect="non-scaling-stroke"/></g><path fill="#cccdc2" fill-opacity=".996" d="M290.72 110.38q.16.18-.01.35l-.18.17q-.02.03-.05.01-2.15-1.75-3.51-4.36-.12-.23.11-.34l.41-.2q.05-.03.08.02 1.51 2.46 3.15 4.35M289.24 106.62a.4.4 0 0 1 .63.37q-.04.34-.4.44-.39.11-.47-.28-.06-.32.24-.53"/><path fill="#f2a506" d="M292.29 107.73q.27-.05.18.21-.23.6-.87.74-.49.1-.22-.33.34-.51.91-.62M294.2 108.57q-.3-.27.08-.39.37-.11.68.09.3.19-.01.37-.4.24-.75-.07M290.82 116.11q.48.16.85.59.33.37-.15.49-.23.06-.48.05-.41-.01-.55-.38-.05-.16-.11-.32-.21-.65.44-.43"/><rect width=".96" height="6.58" x="-.48" y="-3.29" fill="#cccdc2" fill-opacity=".996" rx=".27" transform="rotate(-1.7 4502.42 -9746.71)"/><path fill="#f2a506" d="M290.336 155.53a3.41 2.13 89.9 0 1-2.136-3.406 3.41 2.13 89.9 0 1 2.124-3.414 3.41 2.13 89.9 0 1 2.136 3.406 3.41 2.13 89.9 0 1-2.124 3.414m.005-.27a3.16 1.18 89.8 0 0 1.169-3.164 3.16 1.18 89.8 0 0-1.191-3.156 3.16 1.18 89.8 0 0-1.169 3.164 3.16 1.18 89.8 0 0 1.191 3.156"/><path fill="#cccdc2" fill-opacity=".996" d="M300.09 153.42q.2.07.34.24.57.74-.3.41-.18-.07-.32-.22-.68-.76.28-.43M300.23 156.87q.32-.1.25.23-.1.51-.67.56-.45.04-.19-.33.24-.34.61-.46"/><path fill="#f2a506" d="M277.84 162.42q.57.12.97.53a.42.42 0 0 1-.24.72q-.91.12-1.18-.76a.39.38 87.7 0 1 .45-.49"/><path fill="#cccdc2" fill-opacity=".996" d="m282.99 170.23 1.45 2.12q.16.23-.06.38l-.26.19q-.23.17-.39-.07l-2.73-4.07q-.5-.73.36-.49.63.19.94.83.38.83.67-.04.2-.62.91-.74.48-.07.22.34-.33.5-.87.74-.62.26-.24.81"/><rect width=".94" height="6.7" x="-.47" y="-3.35" fill="#cccdc2" fill-opacity=".996" rx=".26" transform="rotate(-1.3 7774.042 -12946.388)"/><path fill="#cccdc2" fill-opacity=".996" d="M281.51 171.53a.22.22 0 0 1 .34.22q-.15.75-.88 1-.47.16-.25-.29.29-.57.79-.93M280.25 178.91q-.25-1.04-.17-2.2a1.63 1.44-51.1 0 0-.02-.43q-.49-2.38-1.76-1.41a.83.81 76 0 0-.31.53q-.31 2.09-.01 3.95.1.6.71.56.44-.03.87.13.58.23-.03.36-.56.13-1.18.02a1.29 1.29 0 0 1-.94-.73q-1.1-2.37.04-4.74a1.27 1.24-83.4 0 1 .82-.67q1.2-.31 2.1.48.35.32.44.78l.7 3.75q.09.47.01.93-.36 2.04.56 4.02.11.23-.12.34l-.28.12q-.06.03-.1-.02-1.14-1.51-1.09-3.43.03-1.17-.24-2.34M283.64 183.16q.17-1.69.03-3.44a1.03 1.03 0 0 0-.6-.85l-.3-.13q-.64-.3.06-.42.67-.11 1.04.43 1.64 2.39.11 5.44-.14.28-.44.37-.13.03-.28.02-.45-.05-.12-.36.44-.44.5-1.06M294.76 192.58q.04.34.19.62.45.8-.47.65-.16-.03-.32.01-.61.13-.51-.48.46-2.81-.01-5.81a.22.21 77.8 0 1 .15-.24l.44-.12q.43-.12.43.33-.07 3.6.1 5.04M274.95 200.76a.01.01 0 0 1-.01.01l-.44.02a.55.23-2.1 0 1-.55-.21l-.23-6.28a.55.23-2.1 0 1 .54-.25l.44-.02a.01.01 0 0 1 .01.01zM288.13 202.09q.5 1.03 1.29 1.84.66.67-.27.73-.18.01-.35-.05-.29-.11-.44-.39-1.03-1.85-2.35-3.57-.54-.71.33-.53.48.1.8.49a.68.68 0 0 0 .96.1q.41-.33.96-.45.51-.1.21.32-.3.4-.76.58-.7.26-.38.93M286.59 203.42a.17.16 72.9 0 1 .26.14q-.02.79-.73 1.1-.48.2-.28-.28.27-.61.75-.96"/><path fill="#f2a506" d="M274.25 212.1a3.34 2.13 88.8 0 1-2.2-3.295 3.34 2.13 88.8 0 1 2.06-3.384 3.34 2.13 88.8 0 1 2.2 3.294 3.34 2.13 88.8 0 1-2.06 3.384m-.043-.29a3.06 1.2 89.3 0 0 1.163-3.075 3.06 1.2 89.3 0 0-1.237-3.045 3.06 1.2 89.3 0 0-1.163 3.075 3.06 1.2 89.3 0 0 1.237 3.045"/><path fill="#f2a506" d="M272.03 215.14q-.44.29-.48.72-1.05-.11-1.36-.83-.85-1.95-2.16-3.44-.49-.56.25-.44.45.07.8.36.43.37.95.13.44-.19.9-.32.83-.23.18.34l-.54.46q-.4.35-.28.87.39 1.57 1.74 2.15"/><path fill="#cccdc2" fill-opacity=".996" d="M221.58 213.19q.43 1.02 1.18 1.78.31.32-.01.62l-.21.2q-.12.12-.22-.02l-2.34-3.02q-.66-.84.43-.71.15.02.29 0a.71.7 86.1 0 1 .8.7q-.01.23.08.45M205.93 214.05q.35 1.6 1.52 3.01.23.27-.11.36l-.39.11q-.17.04-.28-.11l-2.84-4.21q-.3-.44.23-.37.7.08 1.07.78.26.49.8.43"/><path fill="#cccdc2" fill-opacity=".996" d="M205.93 214.05q.21-1.05.68-1.17 1.16-.3.37.61-.38.45-1.05.56"/><path fill="#f2a506" d="M268.5 214.47a.19.19 0 0 1 .31.13q.06.73-.59 1.07-.52.28-.34-.28.18-.55.62-.92"/><path fill="#cccdc2" fill-opacity=".996" d="M219.74 214.55a.23.23 0 0 1 .33.21q-.02.53-.52.87a.32.32 0 0 1-.47-.39q.2-.46.66-.69M271.55 215.86q.04-.43.48-.72l3.13 4.3a.3.3 0 0 1-.22.47q-.76.06-1.19-.63-1.1-1.73-2.2-3.42"/><ellipse fill="#cccdc2" fill-opacity=".996" rx=".58" ry=".34" transform="rotate(-26.5 595.587 -474.463)"/><path fill="#cccdc2" fill-opacity=".996" d="M204.12 216.45a.24.24 0 0 1 .37.09q.12.26-.05.47-.22.28-.41-.02-.19-.32.09-.54M221.83 217.11q-1.64 2.39-.54 5.19.78 2.01 1.58.01 1.07-2.7-.34-5.09-.13-.22.1-.31l.33-.13q.06-.03.1.03 1.93 2.97.63 5.64a1.77 1.76-46.2 0 1-3.14.07q-1.07-1.98-.2-4.3.34-.93 1.26-1.37.58-.28.22.26"/><ellipse fill="#cccdc2" fill-opacity=".996" rx=".85" ry=".31" transform="rotate(-35.4 479.337 -316.278)"/><path fill="#cccdc2" fill-opacity=".996" d="m256.74 219.47-.24-.19a.1.1 0 0 1 .06-.17q.76-.03 1.11.6 1.55 2.84-.18 5.52-.2.32-.57.38-.97.16-.17-.4.44-.31.51-.84.26-1.88.08-3.79a1.61 1.59 17 0 0-.6-1.11"/><path fill="#cccdc2" fill-opacity=".996" d="M255.39 220.21q-.81 2.77.39 5.06.25.49-.25.27-.15-.07-.29-.14-.1-.05-.17-.15c-.85-1.18-1.6-5.1.35-5.91q.94-.39.26.36-.2.23-.29.51"/><path fill="#f2a506" d="M279.98 227.34a.18.18 0 0 1-.18-.18l-.03-5.98a.56.36 89.7 0 1 .35-.56h.24a.56.36 89.7 0 1 .37.56l.03 5.98a.18.18 0 0 1-.18.18z"/><rect width=".9" height="5.78" x="-.45" y="-2.89" fill="#cccdc2" fill-opacity=".996" rx=".38" transform="rotate(-33.5 494.908 -299.362)"/><path fill="#cccdc2" fill-opacity=".996" d="M248.05 221.6q.27-.26.61-.33a.29.29 0 0 1 .31.44q-.28.43-.73.4a.3.3 0 0 1-.19-.51"/><ellipse fill="#cccdc2" fill-opacity=".996" rx=".84" ry=".31" transform="rotate(130.8 71.512 168.84)"/><path fill="#cccdc2" fill-opacity=".996" d="M254.77 238.48q-1.39.62-2.03-.72-1.28-2.65.4-5.51a.27.27 0 0 1 .35-.1l.24.12q.23.11.12.34-1.36 2.76-.17 5.44.2.46.7.49.21.02.39-.06M254.77 238.48q1.27-2.5.41-5.27-.09-.3-.32-.53-.13-.12-.28-.2-.4-.21.06-.22.86-.01 1.23.79 1.28 2.78-.22 5.09-.39.6-.88.34M217.81 241.33q1.12-2.99.38-5.49-.44-1.45-1.47-.34-1.31 1.4-.3 4.76.29.95 1.39 1.07a3.42 2.13-89.9 0 1-1.9-.74 3.42 2.13-89.9 0 1 .24-5.44 3.42 2.13-89.8 0 1 2.58.32 3.42 2.12-89.9 0 1-.92 5.86"/><rect width=".9" height="5.76" x="-.45" y="-2.88" fill="#cccdc2" fill-opacity=".996" rx=".3" transform="rotate(-34.5 520.251 -323.092)"/><path fill="#cccdc2" fill-opacity=".996" d="M275.83 235.57q.58 0 .18.44l-.48.52q-.5.54-.5-.19 0-.77.8-.77M279.81 238.94q-1.19 2.68.28 5.24.37.64-.27.27c-1.94-1.1-1.6-4.43-.6-5.88a1.64 1.63 48.5 0 1 2.8.17q1.59 3.04-.75 5.93-.04.04-.09.01l-.23-.12q-.13-.07-.06-.2 1.42-2.59.45-5.36-.69-1.94-1.53-.06"/><path fill="#f0eca2" fill-opacity=".996" d="M244.24 243.84q.71-.28.92-1.93.34-.55.03-1.12l-.15-.55q.34-1.4-.54-1.84-.49-.25-.74.24-.7 1.34-.73 2.74-.03 1.15-.51 2.28-.65 1.54-1.05 2.97-.55 1.95.66 3.62.55.76-.33.42-.2-.08-.4-.18-.24-.13-.36-.38c-1.44-2.89.11-4.25.18-6.82q.91-.9.21-1.94l1.27-2.5a1.61 1.61 0 0 1 2.63-.35c1.55 1.71 1.15 4.73-.41 6.35q-.4.41-.32.99.37 2.54-.86 4.86-.03.06-.1.04l-.33-.12q-.24-.08-.16-.31.97-2.76.02-5.39-.22-.62 0-.86.29-.3 1.07-.22"/><path fill="#cccdc2" fill-opacity=".996" d="M273.61 238.83q.01.82-.64 1.28-.46.32-.34-.22.14-.67.67-1.18a.18.18 0 0 1 .31.12M253 241.15q.06-.59.57-.87.17-.1.36-.04.58.17.11.54l-.89.71q-.44.35-.12.82l1.43 2.13q.16.25-.12.31l-.39.09q-.19.04-.3-.12l-2.81-4.05a.4.4 0 0 1 .49-.6q.62.26.82.91.1.34.45.4.15.02.28-.05.11-.06.12-.18"/><path fill="#f2a506" d="m245.04 240.24.15.55q-.15.62-.03 1.12-.21 1.65-.92 1.93l-.05-3.07q-.01-.47.46-.55.18-.03.39.02M241.43 241.35q.7 1.04-.21 1.94-.33-.9.21-1.94"/><path fill="#cccdc2" fill-opacity=".996" d="M251.51 243.45a.18.18 0 0 1 .29.18q-.15.73-.82.99-.59.24-.26-.31.31-.51.79-.86"/><path fill="#f2a506" d="M242.34 245.8q-.05-.3.23-.02.09.09-.03.12-.05.01-.1 0-.08-.02-.1-.1M239.04 255.19q1.13-2.88-.3-5.37-.39-.69.28-.26c1.75 1.11 1.65 3.81.87 5.46a1.71 1.71 0 0 1-2.96.23c-.82-1.23-1.34-5.33.93-5.75q.96-.18.11.29-.18.1-.33.24-.22.21-.28.51-.49 2.5.17 4.6a.8.8 0 0 0 1.51.05M280.89 257.71q.81.35 1.77.26.93-.09 1.03.83.02.18-.05.35-.2.53-.56.08-.88-1.13-2.43-.48-.65.26-.21.81.79.98 2.21.46.19-.07.24.13.06.24-.17.32-1.49.57-3-.35-.42-.25-.14-.66 1.07-1.56.3-3.71-.2-.54.16-1 1.13-1.44 3.09-.55.45.2.38.69-.17 1.12-.76 1.75-.51.55-.36-.18.26-1.28-.4-2.17-.43-.59-.89-.03-.77.95-.14 2.1a.52.5 40.6 0 1 .04.41l-.21.71q-.05.17.1.23"/><path fill="#cccdc2" fill-opacity=".996" d="M269.32 256.4a.24.23 76.1 0 1 .36.22q-.05.46-.51.64a.33.32-71.8 0 1-.29-.58z"/><path fill="#f2a506" d="M235.51 261.98q.07.14.2.25.44.37-.13.5-.56.12-1.1.06-.39-.05-.26-.42.85-2.53.05-5.48a.34.33-13.5 0 1 .26-.42l.44-.08q.41-.08.42.34.07 2.25-.02 4.53-.02.38.14.72"/><path fill="#cccdc2" fill-opacity=".996" d="m269.29 259.57.74.68q.67.62-.24.65-.89.02-1.25-.78-.83-1.81-2.15-3.26-.19-.2.03-.38l.39-.31q.1-.09.21 0 1.26 1.15 1.76 2.61.16.46.51.79"/><rect width=".9" height="6.64" x="-.45" y="-3.32" fill="#f2a506" rx=".26" transform="rotate(-1.5 10128.515 -8415.007)"/><path fill="#cccdc2" fill-opacity=".996" d="M267.36 259.62a.15.15 0 0 1 .17.22q-.34.68-1.1.91-.55.16-.25-.33.4-.63 1.18-.8M267.03 273.79a.01.01 0 0 1-.01.01l-.42.01a.55.23-1.5 0 1-.56-.22l-.16-6.34a.55.23-1.5 0 1 .54-.24l.42-.01a.01.01 0 0 1 .01.01zM205.16 270.6a.71.71 0 0 0-1.29.04q-1.14 2.61.12 5.61.26.61-.29.23c-1.75-1.21-1.49-4.39-.51-5.79a1.7 1.7 0 0 1 2.94.26q1.37 3.01-.72 5.71-.04.05-.1.03l-.27-.13q-.23-.11-.11-.33 1.59-2.95.23-5.63"/><path fill="#f2a506" d="M272.39 272.8q.38.17.66-.04a.35.32 69.2 0 0 .12-.3q-.07-.6.42-.95.54-.38.28.23-.65 1.55.33 3.25.2.35.03.72-.64 1.43-.69 3.28 0 .13-.13.13h-.27q-.23 0-.23-.23l.05-3.29a.64.64 0 0 0-1.08-.48q-.49.44-1.1.59-.64.15-.18-.32l1.1-1.14q.44-.46.05-.96l-1.05-1.35q-.53-.69.33-.54.88.14 1.07 1.04a.49.48-84.5 0 0 .29.36"/><path fill="#f0eca2" fill-opacity=".996" d="M241.89 277.56q.06.42.26.79.35.66-.41.65-.3 0-.52-.2-.25-.24-.28-.6l-.31-3.87q-.06-.79-.81-.54-.36.11-.59-.21-.61-.87.45-.97l2.58-.23q.83-.07.29.56-1.51 1.78.4 3.25.72.56-.19.68l-.38.04q-.58.08-.49.65"/><path fill="#f2a506" d="M236.4 273.4a.04.04 0 0 1 .01-.06l.13-.08a1.35.85 55.7 0 1 1.46.64l1.68 2.46a1.35.85 55.7 0 1 .06 1.59l-.13.09a.04.04 0 0 1-.05-.01zM236.24 277.41q.37-.59.99-.83.52-.19.26.3-.35.65-1.03.83a.2.2 0 0 1-.22-.3"/><path fill="#cccdc2" fill-opacity=".996" d="M205.28 299.16a3.36 2.14 89.5 0 1-2.17-3.341 3.36 2.14 89.5 0 1 2.11-3.379 3.36 2.14 89.5 0 1 2.17 3.341 3.36 2.14 89.5 0 1-2.11 3.379m-.04-.24a3.12 1.19 90.2 0 0 1.2-3.116 3.12 1.19 90.2 0 0-1.18-3.124 3.12 1.19 90.2 0 0-1.2 3.116 3.12 1.19 90.2 0 0 1.18 3.124M245.33 296.38q1.37.2 1.43 1.58.03.72-.47.2l-1.22-1.28q-.61-.63.26-.5"/><path fill="#cccdc2" fill-opacity=".996" d="M248.12 296.47q.32-.07.18.23-.33.7-1.14.86-.49.1-.21-.31.42-.61 1.17-.78M226.25 301.66q.42-.37.98-.36.61.02.1.35l-.72.48q-.51.34-.24.9.52 1.09 1.38 1.96.22.23-.04.42l-.43.3q-.2.14-.36-.03-.52-.58-.71-1.27-.15-.52-.67-.66-.41-.11-.38-.51.04-.58-.38-.98l-.74-.71q-.61-.58.22-.47.72.09 1.26.58.36.33.73 0"/><path fill="#fb0000" d="m219.61 307.83.18-.72q-.32-1.08-1.86-3.04-.83-1.07-.01-2.25.41-.58 1.07-.33.57.21 1.06.61.45.36.72-.15.43-.84 1.35-.37a1.29 1.28-59.4 0 1 .48 1.88z"/><path fill="#f2a506" d="M207.11 308.88c-.92-1.7-1.29-4.9.68-5.96q.68-.36.26.29-.89 1.35-.76 3.48.26 4.51 2.63 6.49.53.44-.15.55-.45.07-.83-.16-.32-.19-.47-.51-.82-1.76-2.16-3.1-.6-.6.26-.59h.26a.33.33 0 0 0 .28-.49"/><path fill="#f2a506" d="M208.96 303.27q-.11-.14-.25-.25-.51-.41.12-.26.75.18 1.1.89 1.66 3.34-.97 6.65-.18.23-.42.05l-.23-.17q-.19-.14-.03-.32 2.19-2.44.94-6.15-.08-.24-.26-.44"/><path fill="#cccdc2" fill-opacity=".996" d="m219.79 307.11-.18.72q-2.05-1.73-3.63-4.4-.29-.48.26-.59.57-.12.94.51 1.47 2.57 2.61 3.76"/><path fill="#f2a506" d="M197.35 303.59q-.16.48-.53.85-.4.39-.37-.17.03-.67.63-.92.41-.17.27.24"/><path fill="#cccdc2" fill-opacity=".996" d="M223.91 305.45q.19-.61.64-1.1.53-.59.36.18-.15.7-.76 1.1-.37.24-.24-.18"/><path fill="#f2a506" d="m196.73 306.16 1.25 1.3a.21.2-23.2 0 1-.14.34q-1.72.12-1.72-1.4 0-.87.61-.24"/><ellipse fill="#cccdc2" fill-opacity=".996" rx=".69" ry=".31" transform="rotate(113.8 8.12 223.926)"/><ellipse fill="#f2a506" rx=".7" ry=".34" transform="rotate(-43.2 498.796 -104.377)"/></svg>