<svg xmlns="http://www.w3.org/2000/svg" viewBox="0 0 382 382"><g fill="none" stroke="#7e8509" stroke-width="2"><path d="m261.26 204.45-.04.35M259.8 205.93q.61-1.33.1-1.83M222.44 219.65q-.43 1.04-.3 2.09M230.43 241.26q-.67-.08-.65-1.24M222.66 262.19q-.54.73-.38 1.74M252.42 268.31l-.71.03" vector-effect="non-scaling-stroke"/></g><path fill="#086407" fill-opacity=".996" d="M294.23 117.65a.01.01 0 0 1-.01.01l-.33.01a.6.58-1.5 0 1-.62-.57l-.14-5.54a.6.58-1.5 0 1 .58-.59l.33-.01a.01.01 0 0 1 .01.01z"/><path fill="#f4a60a" d="M284.26 140.57q.59-2.18.2-4.53-.06-.4.34-.36.25.02.35.26c.62 1.56.77 4.59-1.14 5.39q-.67.28-.15-.22l.21-.2q.14-.14.19-.34"/><path fill="#086407" fill-opacity=".996" d="M282.6 140.98q.05.02.1.03.45.08-.01.06-.06 0-.11-.03-.36-.19.02-.06"/><path fill="#f4a60a" d="M280.008 173.27a3.38 2.15 89.7 0 1-2.168-3.369 3.38 2.15 89.7 0 1 2.132-3.391 3.38 2.15 89.7 0 1 2.168 3.369 3.38 2.15 89.7 0 1-2.132 3.391m-.054-.32a3.05 1.21 90.3 0 0 1.226-3.044 3.05 1.21 90.3 0 0-1.194-3.056 3.05 1.21 90.3 0 0-1.226 3.044 3.05 1.21 90.3 0 0 1.194 3.056"/><path fill="#086407" fill-opacity=".996" d="M274.7 186.29a.77.77 0 0 0-.87-.46q-.85.17-.92 1.09c-.11 1.79-.35 2.83.52 4.53q.12.22-.1.34l-.24.12q-.09.05-.15-.04-2.02-2.91-.54-5.55a1.76 1.76 0 0 1 3.1.05q1.37 2.63-.54 5.5-.03.05-.08.03l-.33-.14q-.23-.09-.12-.32 1.28-2.65.27-5.15"/><path fill="#f4a60a" d="M272.892 200.57a3.35 2.14 89.8 0 1-2.152-3.343 3.35 2.14 89.8 0 1 2.128-3.357 3.35 2.14 89.8 0 1 2.152 3.343 3.35 2.14 89.8 0 1-2.128 3.357m-.006-.32a3.05 1.2 89.7 0 0 1.184-3.056 3.05 1.2 89.7 0 0-1.216-3.044 3.05 1.2 89.7 0 0-1.184 3.056 3.05 1.2 89.7 0 0 1.216 3.044"/><path fill="#086407" fill-opacity=".996" d="m261.26 204.45-.04.35q-.9.4-.51 1.69a.5.5 0 0 1-.17.54q-.12.09-.25.12-.42.1-.35-.32.07-.48-.14-.9.61-1.33.1-1.83l-.31-2.93a.54.53 18 0 1 .89-.45q.33.29.21 1.03-.37 2.12.57 2.7"/><path fill="#f4a60a" d="M259.8 205.93q-.63 2.33.45 4.46.13.25-.12.39l-.22.12q-.2.11-.32-.09-2.11-3.57.31-6.71.51.5-.1 1.83M261.22 204.8l.04-.35q2.92 2.07.81 5.85-.17.32-.43.37-.59.1-.33-.44 1.29-2.69-.09-5.43M200.62 213.51a.21.2-46.4 0 1-.39.01q-.59-1.61.66-2.58.65-.51.42.28zM202.93 211.15a.15.15 0 0 1 .14-.15l.11-.01a2.41.88 88.1 0 1 .96 2.38l.02.36a2.41.88 88.1 0 1-.8 2.44h-.11a.15.15 0 0 1-.16-.14zM211.19 219.13q-.65-1.37-1.21.04-1.15 2.89.6 4.64.05.06-.01.11l-.2.16q-.16.13-.3-.02-2.96-3.11-.44-6.25.36-.46-.05-.87l-.51-.5q-.59-.58.24-.62.63-.02.86.54.16.39.52.61 3.96 2.55.92 6.87-.06.08-.16.03l-.25-.13q-.14-.07-.07-.2 1.14-2.14.06-4.41M211.84 215.81a.34.33 83 0 1 .46.36q-.05.36-.45.5-.35.12-.4-.24-.06-.42.39-.62"/><path fill="#086407" fill-opacity=".996" d="m269.41 217.4-.06.39q-.1.59-.36.05-.53-1.11.59-1.39.28-.08.15.19l-.21.39q-.08.18-.11.37M270.74 217.04q-.15-.55.42-.58l.29-.01a.29.29 0 0 1 .3.27l.36 3.74q.03.31-.28.27l-.43-.05a.33.32-86.3 0 1-.29-.34q.07-1.68-.37-3.3"/><path fill="#f4a60a" d="M222.44 219.65q-.43 1.04-.3 2.09-.6 1 .12 1.68.73.69-.27.61l-.7-.06q-.68-.05-.51-.71l.52-2.06q.15-.56-.08-1.1-.36-.87-.39-1.77-.03-.6.54-.8.42-.14.82.06.74.38.01.78-.12.06-.24.14-.11.08-.08.22.14.59.56.92"/><path fill="#086407" fill-opacity=".996" d="M269.42 218.88c-.13.66.26 1.33.89 1.57q.6.22-.04.29-.52.05-1.01-.05-.33-.08-.46-.38-.39-.86.33-1.59.41-.42.29.16M223.13 219.14q.29-.32.69-.43.46-.12.3.32-.22.59-.77.6a.29.29 0 0 1-.22-.49"/><path fill="#f4a60a" d="M228.988 226.26a3.38 2.14 89.7 0 1-2.158-3.369 3.38 2.14 89.7 0 1 2.122-3.391 3.38 2.14 89.7 0 1 2.158 3.369 3.38 2.14 89.7 0 1-2.122 3.391m1.052-5.25a1.03 1.03 0 0 0-1.03-1.03h-.1a1.03 1.03 0 0 0-1.03 1.03v3.76a1.03 1.03 0 0 0 1.03 1.03h.1a1.03 1.03 0 0 0 1.03-1.03z"/><path fill="#086407" fill-opacity=".996" d="M222.14 221.74q-.13-1.05.3-2.09l1.85 3.13q.51.85-.41.47-.84-.35-1.07-1.3-.07-.28-.36-.32-.19-.03-.31.11"/><path fill="#f4a60a" d="M260.972 230.18a3.37 2.15 89.8 0 1-2.162-3.363 3.37 2.15 89.8 0 1 2.138-3.377 3.37 2.15 89.8 0 1 2.162 3.363 3.37 2.15 89.8 0 1-2.138 3.377m-.048-.28a3.06 1.21 90.3 0 0 1.226-3.054 3.06 1.21 90.3 0 0-1.194-3.066 3.06 1.21 90.3 0 0-1.226 3.054 3.06 1.21 90.3 0 0 1.194 3.066"/><path fill="#f4a60a" d="M267.206 231.48a3.42 2.13 89.9 0 1-2.136-3.416 3.42 2.13 89.9 0 1 2.124-3.424 3.42 2.13 89.9 0 1 2.136 3.416 3.42 2.13 89.9 0 1-2.124 3.424m-.06-.29a3.16 1.18 90.8 0 0 1.224-3.143 3.16 1.18 90.8 0 0-1.136-3.177 3.16 1.18 90.8 0 0-1.224 3.143 3.16 1.18 90.8 0 0 1.136 3.177M210.89 232.05q.56-3.04-.09-5.7a.38.38 0 0 1 .27-.46l.37-.1q.47-.13.47.37l.01 5.99q0 .18-.18.21l-.46.08q-.47.09-.39-.39M224.41 228.97q-.77-.09-1.29.59-.24.33-.45-.02l-.18-.29q-.03-.05.01-.09 1.15-1.04 2.7-.54.54.17.51.75-.11 1.63.44 3.09a.28.28 0 0 1-.18.36l-.39.14q-.11.03-.17-.07-.79-1.58-.5-3.24.11-.61-.5-.68"/><rect width=".92" height="5.82" x="-.46" y="-2.91" fill="#086407" fill-opacity=".996" rx=".43" transform="rotate(-34.2 500.065 -290.009)"/><ellipse fill="#086407" fill-opacity=".996" rx=".6" ry=".37" transform="rotate(132.3 74.668 169.949)"/><path fill="#f4a60a" d="m223.71 231.97.26.13q.29.14.16.43-.07.17-.25.24a1.01.94 45.3 0 1-.79-.03q-.85-.38-.67-1.22.12-.58.54-.16l.26.25q.21.22.49.36M256.68 231.67a.72.72 0 0 0-1.16.24q-1.09 2.66.18 5.31.11.23-.11.35l-.23.14q-.07.03-.11-.03-2.04-2.9-.57-5.54a1.79 1.78 45.9 0 1 3.15.05q1.03 2 .05 4.41-.3.74-1.03.92-.69.17-.19-.34c.97-1.01.65-2.47.71-3.75q.04-1.05-.69-1.76"/><ellipse fill="#086407" fill-opacity=".996" rx=".5" ry=".34" transform="rotate(105.3 35.153 211.031)"/><rect width=".9" height="6.7" x="-.45" y="-3.35" fill="#086407" fill-opacity=".996" rx=".26" transform="rotate(-1.1 12641.31 -11562.496)"/><path fill="#f4a60a" d="M230.43 241.26q-.67-.08-.65-1.24.47-1.8 2.25-1.57.63.08.95.64 1.39 2.46.09 5.04-.51 1-1.58.93-.65-.04-.04-.27 1.19-.44 1.2-1.83c.01-1.36.2-2.55-.38-3.86q-.24-.54-.8-.33-1.05.39-1.04 2.49M243.21 241.76q-.6-1.61-1.75-2.64-.92-.82.3-.62l.41.07a1.05 1.05 0 0 1 .82.68q.65 1.86 2.03 3.12.5.46-.18.5-1.2.07-1.63-1.11M244.55 239.13q-.05.07-.14.1-.85.31-.43-.49.14-.28.42-.17.45.18.15.56"/><path fill="#086407" fill-opacity=".996" d="M227.91 240.67q-1.52 2.78.16 5.54.13.21-.07.36l-.21.15q-.05.04-.09-.01-2.3-2.55-.85-5.67.39-.86 1.27-.99.7-.11.13.31l-.1.06q-.16.09-.24.25M229.78 240.02q-.02 1.16.65 1.24 1.18 3.33-1.13 5.12-.95.74-.31-.28c1.22-1.92-.65-4.75.79-6.08"/><path fill="#f4a60a" d="M241.4 242.78q-.43.1-.24-.3.28-.56.94-.7.54-.12.23.34-.35.52-.93.66M214.257 248.68a3.36 2.14 90.4 0 1-2.117-3.375 3.36 2.14 90.4 0 1 2.164-3.345 3.36 2.14 90.4 0 1 2.116 3.375 3.36 2.14 90.4 0 1-2.163 3.345m.007-.22a3.14 1.19 90.3 0 0 1.206-3.134 3.14 1.19 90.3 0 0-1.174-3.146 3.14 1.19 90.3 0 0-1.206 3.134 3.14 1.19 90.3 0 0 1.174 3.146M255.19 252.47a3.41 2.13 90 0 1-2.13-3.41 3.41 2.13 90 0 1 2.13-3.41 3.41 2.13 90 0 1 2.13 3.41 3.41 2.13 90 0 1-2.13 3.41m-.054-.28a3.14 1.19 90.8 0 0 1.234-3.123 3.14 1.19 90.8 0 0-1.146-3.157 3.14 1.19 90.8 0 0-1.234 3.123 3.14 1.19 90.8 0 0 1.146 3.157M210.12 254.78q.14-.31.39-.08.34.3-.09.42a.25.25 0 0 1-.3-.34M233.18 255.7q.19-.41.66-.54.39-.11.27.28-.16.53-.66.76-.87.41-.33 1.21l1.28 1.91q.17.25-.1.41l-.26.14q-.18.11-.3-.06l-2.87-4.16q-.31-.46.24-.55.66-.1.94.57.53 1.31 1.13.03M222.66 262.19q-.54.73-.38 1.74l-.39.17q-.41.19-.55-.24-1.03-3.15-2.43-5.65-.44-.78.41-.51.17.06.34-.02.49-.21.59.31.42 2.13 1.7 3.91.33.47.51-.07.31-.95.3-1.93 0-.4.38-.52.99-.31.57-1.31-.28-.68.43-.47l.35.11q.35.11.21.45-.37.85-.99 1.52-.34.37-.34.88 0 .85-.71 1.63M231.42 258.48q.43-.26.31.23-.17.66-.83.9-.48.17-.25-.28.27-.54.77-.85"/><path fill="#086407" fill-opacity=".996" d="M223.47 263.76q2.1-1.04.8-3.08-.15-.24.08-.39l.25-.19q.2-.14.36.05c1.11 1.32.55 3.88-1.42 3.91q-.7.01-.07-.3M265.74 266.54q-.61.12-1.17.01-.47-.1-.7-.52-1.59-2.88.42-5.65.07-.11.19-.04l.25.13q.17.1.09.28-1.43 2.86-.15 5.31.33.62 1.07.48"/><path fill="#086407" fill-opacity=".996" d="M265.74 266.54q1.55-2.86.02-5.81-.1-.17.07-.28l.26-.16q.13-.09.23.04 1.97 2.74.46 5.65-.41.78-1.04.56M222.66 262.19q.36 1.94-.38 1.74-.16-1.01.38-1.74M255.49 268.72q.3.21.2.53a.51.5 22.1 0 1-.7.29q-.9-.42-.65-1.37.68-2.64-.57-4.77-.38-.66.26-.26c1.67 1.02 1.59 3.42 1.26 5.1a.47.46-68.1 0 0 .2.48M252.42 268.31l-.71.03q-1.01-2.5.41-4.96a.27.26 27.1 0 1 .35-.11l.28.13q.23.1.12.33-1.12 2.24-.45 4.58"/><path fill="#f4a60a" d="M271.54 268.75q-.63 1.78.09 3.38.32.72-.45.55-.35-.08-.67 0-.65.17-.38-.44.63-1.4.2-2.98a2.84 2.82-30.9 0 1 .69-2.7q1.2-1.26 2.41-.35.83.62-.18.42l-1.09-.22a.72.72 0 0 0-.84.57q-.12.59.18 1.16.15.3.04.61M207.676 274.12a3.39 2.14 89.9 0 1-2.146-3.386 3.39 2.14 89.9 0 1 2.134-3.394 3.39 2.14 89.9 0 1 2.146 3.386 3.39 2.14 89.9 0 1-2.134 3.394m-.016-.29a3.11 1.18 90 0 0 1.18-3.11 3.11 1.18 90 0 0-1.18-3.11 3.11 1.18 90 0 0-1.18 3.11 3.11 1.18 90 0 0 1.18 3.11M252.42 268.31l.97.45a1.15 1.14 85.9 0 1 .48.42l2.38 3.75q.11.18-.06.3l-.22.16q-.2.15-.35-.05l-3.91-5z"/><path fill="#f4a60a" d="M214.03 273.56a.18.18 0 0 1-.25-.05l-1.23-1.83a3.21.23 55.9 0 1-1.61-2.79l.44-.3a3.21.23 55.9 0 1 1.99 2.53l1.24 1.83a.18.18 0 0 1-.05.25z"/><path fill="#f4a60a" d="M213.68 268.86a.32.31-27.2 0 1 .47.15q.17.43-.32.7a.3.3 0 0 1-.45-.21q-.07-.38.3-.64"/><path fill="#086407" fill-opacity=".996" d="M253.41 272.05q-.62 2.63-.13 5.79.06.36-.31.38l-.46.02q-.55.03-.44-.51.63-3.09-.34-5.91-.27-.77.41-.32.42.27.86.15.55-.15.41.4M250.57 272.09c-.95 1.17-1 2.99.78 3.28q.33.06.19.36l-.2.45q-.02.06-.08.05-2.28-.37-2.09-2.54.12-1.3 1.21-1.85.67-.33.19.25"/><path fill="#f4a60a" d="M211.27 273.37q-.32.37-.38-.12-.07-.6.45-1.01.37-.29.33.18-.05.55-.4.95"/><ellipse fill="#f4a60a" rx="1.49" ry=".26" transform="rotate(104.6 -4.868 215.73)"/><path fill="#086407" fill-opacity=".996" d="M223.15 276.3q.04-.63.71-.68.61-.04.18.4l-.94.94q-.41.41-.06.88l1.38 1.81q.23.29-.08.51l-.27.2q-.23.16-.39-.08l-2.81-4.23q-.48-.72.35-.47.67.21.84.91.09.33.43.37.62.06.66-.56M221.63 278.94q-.01.63-.45 1.08-.57.59-.44-.22.09-.62.59-1.01.31-.24.3.15M268.01 282c-.63-.79-.64-1.48-1.51-2.3q-.82-.77.29-.59 1.89.3 2.08 2.54a.49.48-67 0 1-.86.35M269.73 279.57q-.04.29-.34.26a.3.3 0 0 1-.12-.55q.56-.34.46.29"/><path fill="#f4a60a" d="M202.82 282.07q1.01 1.35 1.94 2.61.55.73-.34.5-.11-.03-.23-.04-.15-.01-.26-.11-1.61-1.51-2.26-3.6-.07-.22.04-.41.12-.22.37-.23.37-.01.46.35.04.16.05.33.03.33.23.6M204.36 281.15q-.23.34-.67.34a.27.27 0 0 1-.26-.35q.13-.39.57-.5a.33.33 0 0 1 .36.51M247.89 282.77q.06-1.09.87-1.31.46-.12.33.33-.18.62-1.2.98"/><path fill="#f4a60a" d="M247.89 282.77q.08 1.38 1.37 2.48.56.47-.14.69-.16.05-.31.02-.56-.13-.81-.63-.82-1.71-2.12-3.24-.47-.55.24-.68.15-.03.29.02.19.06.26.25.5 1.31 1.22 1.09"/><path fill="#086407" fill-opacity=".996" d="M266.76 282.58a.27.26-11.5 0 1 .38.25q-.03.56-.65.62-.41.04-.25-.34.16-.35.52-.53"/><ellipse fill="#f4a60a" rx=".57" ry=".28" transform="rotate(104.7 -8.963 220.091)"/><path fill="#f4a60a" d="M245.57 285.64q.24-.63.82-.95.53-.28.36.3-.26.89-1.09.79-.14-.01-.09-.14M219.22 290.49l-2.66-3.85q-.46-.65.33-.53 1.08.17 1.48 1.21.64 1.67 1.9 3 .04.04 0 .08l-.24.2a.56.55-36.9 0 1-.81-.11M218.9 286.55q.32-.41.83-.32a.23.22-59.7 0 1 .1.39q-.29.25-.68.33a.25.25 0 0 1-.25-.4M216.36 290.53q-.33 0-.21-.31.2-.5.78-.61.52-.11.28.37-.28.55-.85.55M240.95 299.56l-1.11-1.47q-.1-.13 0-.26l.17-.23q.08-.12.2-.03 1.27.95 2.06 2.48.4.78-.44.55-.09-.03-.18-.02-.43.02-.72.32-.42.44-.82.83-.41.4-.21-.13.24-.62.81-.92.77-.42.24-1.12M242.23 298.03q.22-.2.49-.27.54-.15.35.38-.17.44-.62.44a.32.32 0 0 1-.22-.55M206.06 306.86c-2.26 0-2.65-2.77-1.15-3.91a1.91 1.9-25.6 0 1 3 1.05q.96 3.84-3.15 5.43-.06.03-.09-.03v-.01q-.06-.1.04-.17.94-.58 1.75-1.37a.58.58 0 0 0-.4-.99m.437-.214a1.91 1.16 77.7 0 0 .726-2.113 1.91 1.16 77.7 0 0-1.54-1.62 1.91 1.16 77.7 0 0-.726 2.114 1.91 1.16 77.7 0 0 1.54 1.62M228.13 304.32a.74.74 0 0 0-1.38-.03q-.78 1.9-.44 3.99.06.35-.28.42l-.28.06q-.2.04-.25-.15-.72-2.7.75-4.52a1.51 1.51 0 0 1 2.38.03q1.1 1.45.7 3.03-.04.15-.21.19-.56.15-.56-.43 0-1.39-.43-2.59M213.43 305.37q-.84-2.52-1.76-.06c-.49 1.33-.58 4.09.72 5.05q.61.45-.13.29c-2.38-.49-1.98-4.46-1.09-5.95a1.6 1.6 0 0 1 2.77.02q1.44 2.53.02 5.21-.08.16-.27.14-.15-.02-.26-.11t-.07-.22q.7-2.47.07-4.37M215.51 312.21q-.19.17-.41.31a.54.53 60.1 0 1-.76-.21l-.38-.74q-.31-.6.35-.45 1.79.41 3.7.17.23-.02.24.21v.01q.01.22-.22.21-1.02-.03-1.98.19-.31.08-.54.3"/></svg>