<svg xmlns="http://www.w3.org/2000/svg" viewBox="0 0 382 382"><path fill="none" stroke="#b66d43" stroke-opacity=".996" stroke-width="2" d="m263.75 254.21.12 1.05" vector-effect="non-scaling-stroke"/><rect width=".9" height="5.6" x="-.45" y="-2.8" fill="#f4da0c" fill-opacity=".996" rx=".26" transform="rotate(-34 356.23 -417.76)"/><path fill="#f4da0c" fill-opacity=".996" d="M295.68 125.51a.28.27.3 0 1 .36.36q-.24.56-.79.73-.45.15-.3-.31.18-.56.73-.78M293.43 128.58q.36-.29.29.16-.12.81-.81 1.33a.23.23 0 0 1-.35-.27q.26-.71.87-1.22M293.36 165.81q.28-2.67-.32-5.02-.07-.28.21-.34l.5-.1q.46-.1.46.38l-.02 4.71q0 .45.4.66.15.08.25.22.35.54-.29.55l-.67.02a.5.49 72.8 0 0-.4.76l1.6 2.54q.15.25-.08.41l-.22.16q-.14.1-.24-.04-1.48-2.02-3.09-4.05-.5-.62.29-.52l1.01.14a.54.54 0 0 0 .61-.48M284.13 161.85a.85.84 17.4 0 0-1.14.59q-.42 1.77-.22 3.8.09.89.8 1.35.7.44-.11.31c-2.23-.37-1.8-4.35-1.12-5.58a1.78 1.78 0 0 1 3.21.19q1.16 2.85-.77 5.5-.03.05-.09.02l-.27-.12q-.23-.11-.1-.32.77-1.31.71-2.69-.04-.92-.1-1.88-.05-.87-.8-1.17M291.27 169.98q.33-.38.8-.47a.24.23 9.6 0 1 .25.34q-.25.44-.73.61a.3.3 0 0 1-.32-.48"/><ellipse fill="#770079" fill-opacity=".996" rx="1.27" ry=".54" transform="rotate(98.1 74.462 215.82)"/><path fill="#770079" fill-opacity=".996" d="M280.11 175.24q.61-1.23-.06-2.56-.21-.42.05-.82.2-.3.56-.34.53-.05.55.48.05 1.27-.13 2.52-.15 1.01.17 1.96.57 1.71 1.64 2.79.52.52-.21.43-1.16-.14-1.44-1.26-.19-.76-.72-.18-.36.4-.55.92-.15.43-.6.5-.15.02-.25-.11-.09-.11.01-.22 1.77-1.96.24-3.5-.66-.67.26-.53.13.02.26.03.15.03.22-.11"/><path fill="#770079" fill-opacity=".996" d="M282.52 175.66q-.17.4-.59.49a.31.31 0 0 1-.33-.47q.19-.33.55-.43a.3.3 0 0 1 .37.41"/><path fill="#f4da0c" fill-opacity=".996" d="m283.33 192.53.41-1.65q.14-.58.09-1.18-.16-1.66.5-3.17a1.69 1.69 0 0 1 2.16-.9q1.61.62 1.51 2.47c-.11 2.04.33 5.26-.94 6.93q-.7.92-1.87 1.47-1.73.82-2.34-.99-.51-1.54-1.55-2.51-.64-.61.24-.48.53.07.9.34.69.51.89-.33m1.82-3.05-.55 5.9q-.06.64.55.43.64-.22 1.1-.74.51-.59.32-1.34-.65-2.59.14-4.63.16-.4.02-.81-.26-.75-.13-1.5.06-.41-.21-.71-.1-.12-.25-.18-.49-.2-.77.25-1.06 1.72-.22 3.33"/><path fill="#f4da0c" fill-opacity=".996" d="M285.15 189.48q.55-.16.7-.11v.01q-.21-.03-.7.1"/><path fill="#770079" fill-opacity=".996" d="M290.82 200.24q1.39-2.72.38-5.71-.07-.19-.2-.32t-.28-.25q-.73-.63.17-.31.09.03.2.06.17.06.28.21 2.35 2.98.27 5.96-.33.47-.82.36"/><path fill="#770079" fill-opacity=".996" d="M290.82 200.24q-.77.79-1.53-.29-2.05-2.95.03-5.86.22-.31.61-.33.74-.04.1.33-.27.15-.36.44c-.41 1.34-1.03 5.48 1.15 5.71"/><path fill="#f4da0c" fill-opacity=".996" d="M281.82 195.84q.47-.12.3.34-.19.51-.74.66a.24.23 89.4 0 1-.29-.29q.15-.56.73-.71"/><path fill="#770079" fill-opacity=".996" d="M272.92 201.03q.97 1.37 1.85 2.72.14.21-.09.32l-.43.22q-.21.1-.34-.1l-2.71-4.13q-.37-.56.3-.51.71.05.96.64.19.45.46.84M274.14 199.62a.33.31-17.1 0 1 .31.15q.15.27-.64.64a.38.38 0 0 1-.53-.28q-.07-.39.86-.51"/><path fill="#f4da0c" fill-opacity=".996" d="M295.09 201.69a.25.25 0 0 1 .18-.37q.22-.03.36.13a.27.27 0 0 1-.24.44q-.2-.02-.3-.2"/><ellipse fill="#770079" fill-opacity=".996" rx=".75" ry=".34" transform="rotate(122.9 80.338 175.62)"/><path fill="#f4da0c" fill-opacity=".996" d="M242.7 210.42q-.86-.7-.8-1.67.05-.86.58-.18 1.27 1.63 2.52 3.73.53.89-.43.5-.93-.38-1.19-1.34-.17-.63-.68-1.04M244.52 208.33q.41-.08.25.31-.17.43-.64.58-.43.14-.32-.31.13-.48.71-.58M280.58 210.95q-.41-.95-1.18-1.67-.67-.62.24-.47.14.02.28 0 .44-.06.68.32l2.42 3.78q.48.74-.31.34-1.44-.72-2.13-2.3M281.72 208.99q.34-.33.87-.18.48.13.11.46-.44.38-.93.09a.24.23 38.2 0 1-.05-.37"/><rect width=".92" height="5.68" x="-.46" y="-2.84" fill="#770079" fill-opacity=".996" rx=".26" transform="rotate(-33.7 483.444 -331.911)"/><path fill="#770079" fill-opacity=".996" d="M266.64 210.28q.39-.09.27.29-.13.38-.5.56-.92.42-.37-.43.2-.32.6-.42M292.9 210.69l.38-.18q.49-.24.21.23-.18.28-.37.58-.31.46-.14.98.64 2.05-.59 4a1.42 1.42 0 0 1-1.78.55c-2.24-.98-1.92-4.34-.83-6.07q.32-.51.92-.51.7.01 1.29.37.44.27.91.05m-2.35 4.19-.49.48q-.48.48.11.8l.47.25a.93.91 43.6 0 0 .92-.01q.83-.5.53-1.51-.5-1.7-.89-3.41a.44.44 0 0 0-.79-.15q-1.07 1.54.15 2.92.29.32-.01.63"/><path fill="#f4da0c" fill-opacity=".996" d="M233.41 211.33q-.21.09-.2-.14.02-.29.28-.27.09.01.11.1.02.21-.19.31M232.17 211.26l2.01 3.1q.43.66-.34.52-.65-.11-.92-.72-.63-1.44-1.81-2.65a.11.11 0 0 1 .01-.15l.24-.21a.54.54 0 0 1 .81.11M242.16 211.61q.61-.2.29.36-.32.55-1.01.72-.48.11-.24-.32.32-.55.96-.76"/><path fill="#770079" fill-opacity=".996" d="M222.26 212.99q-.38-.38-.48-.88-.02-.11 0-.12l.25-.17a.24.24 0 0 1 .32.05q.46.55.47 1.26.01.58.57.73l1.21.3a1.34 1.34 0 0 1 .33 2.46q-1.36.77-3 .3-.57-.17-.43-.75.03-.15.15-.26.19-.16.38 0 1.59 1.36 2.66.14.76-.87-.36-1.18-1.19-.34-2.07.43-.54.47-.46-.23.06-.65.48-1.12.45-.49-.02-.96"/><ellipse fill="#770079" fill-opacity=".996" rx=".67" ry=".41" transform="rotate(109.2 36.915 186.032)"/><path fill="#f4da0c" fill-opacity=".996" d="M279.64 212.4a.31.31 0 0 1 .47.36q-.16.43-.64.54a.28.28 0 0 1-.29-.42q.18-.28.46-.48M231.59 213.51q.18-.08.15.11-.14.83-.99 1.14-.55.2-.23-.3.42-.65 1.07-.95"/><ellipse fill="#770079" fill-opacity=".996" rx=".84" ry=".32" transform="rotate(-41.1 417.587 -244.976)"/><path fill="#f4da0c" fill-opacity=".996" d="M253.794 221.39a3.42 2.13 90.1 0 1-2.124-3.424 3.42 2.13 90.1 0 1 2.136-3.416 3.42 2.13 90.1 0 1 2.124 3.424 3.42 2.13 90.1 0 1-2.136 3.416m-.005-.25a3.17 1.19 90.2 0 0 1.201-3.166 3.17 1.19 90.2 0 0-1.179-3.174 3.17 1.19 90.2 0 0-1.201 3.166 3.17 1.19 90.2 0 0 1.179 3.174M286.73 222.75q2.48-2.82.78-5.83-.89-1.58-1.5.13-.69 1.99-.06 4.69.06.27-.15.45-.05.04-.12.04-.19.01-.27-.16-1.3-2.6-.09-5.26a1.52 1.52 0 0 1 2.35-.56c1.91 1.55 1.88 5.81-.94 6.5"/><rect width=".92" height="6.52" x="-.46" y="-3.26" fill="#770079" fill-opacity=".996" rx=".26" transform="rotate(-1.4 9140.541 -10999.079)"/><path fill="#f4da0c" fill-opacity=".996" d="M243.086 227.54a3.38 2.13 90.4 0 1-2.106-3.395 3.38 2.13 90.4 0 1 2.154-3.365 3.38 2.13 90.4 0 1 2.106 3.395 3.38 2.13 90.4 0 1-2.154 3.365m-.06-.29a3.1 1.19 91.2 0 0 1.254-3.075 3.1 1.19 91.2 0 0-1.125-3.124 3.1 1.19 91.2 0 0-1.255 3.074 3.1 1.19 91.2 0 0 1.125 3.124M285.63 229.37c-3.23.11-3.04-5.06-1.11-6.49q.57-.42.26.21c-.82 1.67-1.45 5.37.85 6.28M286.73 222.75q-.01.51.53 2.26.92 2.98-1.63 4.36 1.19-2.96.54-6.28-.07-.33.26-.4.13-.03.3.06"/><path fill="#770079" fill-opacity=".996" d="M251.96 223.63q-.27-.42.19-.22c2.01.89 1.83 3.97 1.09 5.57a1.73 1.73 0 0 1-1.81.98q-1.14-.16-1.57-1.32-.99-2.68.86-5.32.04-.06.11-.03l.29.14q.23.1.12.32-1.53 2.91-.27 5.54a.75.74 42.6 0 0 1.37-.05q1.2-3.16-.38-5.61"/><path fill="#f4da0c" fill-opacity=".996" d="M219.59 239.31a3.42 2.12 90 0 1-2.12-3.42 3.42 2.12 90 0 1 2.12-3.42 3.42 2.12 90 0 1 2.12 3.42 3.42 2.12 90 0 1-2.12 3.42m-.031-.26a3.17 1.18 90.2 0 0 1.191-3.166 3.17 1.18 90.2 0 0-1.169-3.174 3.17 1.18 90.2 0 0-1.191 3.166 3.17 1.18 90.2 0 0 1.169 3.174M265.68 235.76q-.79.17-.86 1c-.14 1.78-.43 2.93.5 4.58q.09.16-.07.25l-.24.14q-.13.08-.22-.04-1.88-2.56-.57-5.36a1.76 1.76 0 0 1 3.13-.12q1.43 2.56-.43 5.46-.08.13-.22.06l-.25-.13q-.22-.11-.11-.33 1.1-2.2.4-4.85a.91.91 0 0 0-1.06-.66M259.07 240.09a.21.21 0 0 1 .21.2l.08 6.14a.43.27-.7 0 1-.43.28h-.34a.43.27-.7 0 1-.43-.26l-.08-6.14a.21.21 0 0 1 .21-.21zM260.91 240.26q.72-.04 1.38.39.43.29-.08.34-.77.09-1.4-.44-.31-.27.1-.29M260.73 242.8q.23-.12.51-.22a.26.25 2.4 0 1 .32.34l-.2.43a.4.4 0 0 1-.53.21l-.52-.22q-.31-.13-.06-.34.15-.12.3-.14.1-.01.18-.06M255.79 250.33q.84-3.11-.09-5.85-.15-.46.33-.51l.48-.05a.31.3 86.5 0 1 .33.3l.16 6.2q.01.18-.17.19l-.76.06q-.38.03-.28-.34M277.78 255.35q.66-3.11-.09-5.93a.36.36 0 0 1 .33-.45l.46-.02q.27-.01.28.25l.2 6.14q.01.26-.25.28l-.65.06q-.36.03-.28-.33"/><rect width=".9" height="5.78" x="-.45" y="-2.89" fill="#f4da0c" fill-opacity=".996" rx=".4" transform="rotate(-34.4 543.65 -315.829)"/><path fill="#f4da0c" fill-opacity=".996" d="M274.35 250.78a.16.15-19.7 0 1-.26-.12l.03-.61q.02-.2.21-.26.15-.04.28-.1.8-.3.33.41-.25.37-.59.68"/><ellipse fill="#f4da0c" fill-opacity=".996" rx=".8" ry=".39" transform="rotate(21.2 -541.599 835.074)"/><path fill="#f4da0c" fill-opacity=".996" d="m263.75 254.21.12 1.05.21 3.04q.04.59-.56.61-.12 0-.25-.03-.52-.14-.36-.64.58-1.81-.13-3.45-.19-.43.08-.81.35-.48.5-1.03.28-.98.45.02.1.6-.06 1.24M272.58 253l-.31 1.04q-.11.37-.47.23-.16-.06-.26-.2-.02-.03-.01-.06.28-.62.77-1.16.48-.54.28.15"/><path fill="#770079" fill-opacity=".996" d="m263.87 255.26-.12-1.05.58.1q.39.06.07.29-.33.24-.53.66"/><path fill="#f4da0c" fill-opacity=".996" d="M232.86 260.43q.5-.57.47-1.4c-.06-1.6.33-2.98-.87-4.29q-.36-.39.14-.21c2.25.79 1.98 4.47.98 5.93a1.7 1.69 49.8 0 1-2.93-.25q-1.45-3.11.83-5.84.03-.05.08-.02l.25.13q.22.12.08.33-1.51 2.22-.46 5.33.47 1.38 1.43.29M244.34 260.76q.36-.35.43-.89.35-2.47-.24-4.27-.1-.29-.35-.47-.15-.11-.32-.2-.55-.29.07-.2c2.45.38 2.09 4.34 1.27 5.84a1.66 1.66 0 0 1-2.86.08q-1.8-2.89.71-6.13.04-.04.09-.01l.22.12q.22.12.09.33-1.5 2.25-.52 5.43.41 1.34 1.41.37M286.63 261.51q.09-.84.25 0l.3 1.61q.05.28-.24.28h-.26q-.25.01-.23-.25zM218.43 270.58q.43-2.79.04-5.77-.06-.47.42-.46l.31.01a.35.34 4.7 0 1 .33.38q-.32 3.13.22 5.87.07.34-.28.34l-.71.01q-.39 0-.33-.38M230.886 277.53a3.38 2.13 89.9 0 1-2.136-3.376 3.38 2.13 89.9 0 1 2.124-3.384 3.38 2.13 89.9 0 1 2.136 3.376 3.38 2.13 89.9 0 1-2.124 3.384m-.01-.31a3.08 1.2 89.9 0 0 1.194-3.082 3.08 1.2 89.9 0 0-1.205-3.078 3.08 1.2 89.9 0 0-1.195 3.082 3.08 1.2 89.9 0 0 1.205 3.078"/><path fill="#770079" fill-opacity=".996" d="M278.14 275.52a.34.33 31.1 0 1-.61.15q-.43-.64-.5-1.47-.06-.64.59-.59l.35.02q.36.03.33.39z"/><rect width=".94" height="6.62" x="-.47" y="-3.31" fill="#770079" fill-opacity=".996" rx=".26" transform="rotate(-.6 27063.655 -24707.927)"/><path fill="#f4da0c" fill-opacity=".996" d="M218.31 283.55q.39-.31.92-.33.67-.03.12.36l-1 .71a.63.62-35 0 0-.16.86l1.38 2.06q.14.21-.07.35l-.34.23q-.22.16-.37-.07l-2.71-4.17q-.38-.58.31-.45.44.1.78.41.55.51 1.14.04"/><path fill="#770079" fill-opacity=".996" d="M207.12 291.18q.77-2.72-.03-5.45-.14-.48.34-.62.21-.06.43-.02.44.09.4.53-.22 2.62.13 5.51.08.67-.58.49-.09-.03-.18.01-.72.29-.51-.45"/><path fill="#f4da0c" fill-opacity=".996" d="M216.61 286.38a.15.15 0 0 1 .24.11q0 .74-.62 1.12-.69.42-.35-.32.26-.57.73-.91M248.91 289.79q.43-.32.95-.5.59-.21.26.32-.28.46-.79.69-.66.29-.25.89l1.41 2.01q.26.37-.18.45l-.41.08q-.16.02-.24-.11l-2.67-4.05q-.41-.62.31-.46.49.1.74.51.34.58.87.17M246.74 293.52q.11-.68.74-1.01.5-.27.29.26-.24.63-.77.93a.18.17-9.9 0 1-.26-.18M235.06 299.77a3.21 2.18 90 0 1-2.18-3.21 3.21 2.18 90 0 1 2.18-3.21 3.21 2.18 90 0 1 2.18 3.21 3.21 2.18 90 0 1-2.18 3.21m1.104-4.84a1.04 1.04 0 0 0-1.03-1.05h-.1a1.04 1.04 0 0 0-1.05 1.03l-.028 3.3a1.04 1.04 0 0 0 1.03 1.05h.1a1.04 1.04 0 0 0 1.05-1.03z"/><path fill="#770079" fill-opacity=".996" d="M210.16 296.78q-.18-.32.15-.49l.25-.13q.05-.03.09.02 2.26 3.32.09 6.55-.12.17-.3.06l-.26-.14q-.16-.1-.07-.26 1.58-2.86.05-5.61M208.72 297.5q-.7 2.24.4 4.7.11.23-.12.34l-.24.13q-.06.04-.11-.02-1.93-2.5-.48-5.59.25-.53.82-.59.69-.07.16.38-.31.27-.43.65"/><path fill="#f4da0c" fill-opacity=".996" d="M246.6 297.94c-.45.31-.71.51-1.11.9q-.7.68-.28-.2.4-.85 1.27-1 .77-.14.12.3"/><path fill="#770079" fill-opacity=".996" d="M231.88 304.69q.26.69-.13 1.18-.44.56-.57-.14-.25-1.38-.35-2.61-.03-.33.25-.52.15-.12.35-.08.22.05.33.25.26.5.09 1.06a1.37 1.32-48 0 0 .03.86"/><path fill="#f4da0c" fill-opacity=".996" d="M200.56 308.61q.25-2.36-.22-4.8-.14-.7.56-.61.18.02.33.11a.54.53-71.1 0 1 .26.54q-.35 2.7.26 5.48.11.52-.4.36-.37-.12-.77-.08-.72.09-.27-.49.08-.1.14-.2.09-.14.11-.31M196.93 305.02q.11.3-.14.52a.25.25 0 0 1-.41-.19q0-.37.37-.44.13-.02.18.11M215.53 307.59a.77.77 0 0 0-1.42.06q-.7 1.96-.23 4.37.43 2.14-.63.24-1.07-1.92.1-4.53a1.6 1.6 0 0 1 2.71-.34q1.55 1.96.55 4.63a.29.29 0 0 1-.37.17l-.24-.1a.26.26 0 0 1-.16-.3q.52-2.39-.31-4.2M221.88 308.14q-.82-1.01-1.42.14-.54 1.03-.49 2.33.01.27-.26.3l-.26.02q-.35.04-.36-.32-.08-2.99 2.17-3.27.54-.06.96.28.84.68.95 1.87.02.26-.25.26h-.39q-.28-.01-.25-.29.08-.72-.4-1.32M196.63 308.32q.53.38.51 1.18-.01.7-.55.24-.52-.45-.5-1.15.02-.63.54-.27"/></svg>