<svg xmlns="http://www.w3.org/2000/svg" viewBox="0 0 382 382"><path fill="#eeccc9" fill-opacity=".996" d="M286.32 108.26q.23.16-.04.2-.32.05-.57-.1-.62-.38.1-.29.28.03.51.19M292.34 153.32q-.48.14-.81-.34-2.04-2.9.2-5.98.13-.18.38-.22.18-.03.35.03.4.13-.01.23-.16.04-.26.16c-1.14 1.4-.6 4.66.15 6.12"/><path fill="#eeccc9" fill-opacity=".996" d="M292.34 153.32q.94-.07 1.3-1.34.56-1.98-.01-3.62-1.22-3.56.71-.33c.88 1.48.65 5.96-2 5.29M285.36 151.81q.73.11 1.06-.28.29-.36.24.1-.05.52-.71.77a1.51 1.5 61.8 0 1-1.77-.54l-2.44-3.49q-.14-.21.04-.38l.21-.21q.06-.05.12-.01 1.72 1.24 2.52 3.45a.92.92 0 0 0 .73.59M284.85 148.48q-.11.08-.2.17-.3.32-.61.01-.25-.26.31-.58.23-.13.49-.13h1.05q.75 0 1.14.64l2.3 3.76q.1.15-.07.23l-.3.15a.33.33 0 0 1-.42-.11l-2.64-3.92a.78.78 0 0 0-1.05-.22M288.8 148.14q.1-.02.15.08.23.54-.35.83a.3.3 0 0 1-.43-.32q.09-.49.63-.59M281.92 152.49a.19.19 0 0 1-.27-.14q-.07-.51.41-.88.4-.31.38.2-.02.57-.52.82M285.21 159.53c-.4-.62-.81-1.39-.37-2.12q.23-.38.6-.62.58-.39.32.26-.72 1.76.64 3.32.64.73-.33.76l-1.01.03q-.75.03-.23-.5l.29-.3q.37-.38.09-.83M288.12 157.89q-.1.58-.38 1.07t-.45-.05q-.24-.85-.21-1.67a.63.63 0 0 1 .85-.57q.36.14.32.44-.05.38-.13.78"/><path fill="#eeccc9" fill-opacity=".996" d="M285.26 163.04q-.88-.36-.82.59.17 2.58-1.73 3.45-.23.11-.42-.09-.03-.04-.05-.09-.03-.1.07-.12.19-.03.38-.09.38-.13.48-.51.79-2.97.27-4.22-1.16-2.78-2.08.09-.66 2.02.54 4.45.09.18-.08.28l-.26.15q-.06.04-.1-.02-2.17-2.98-.35-6.07.28-.48.82-.38l1.81.31q.38.07.46.45.33 1.74 2.75 1.41 1.99-.26.55-1.63-.05-.04-.05-.11-.01-.88.63-.27c.51.48.62 1.28.11 1.79q-1.3 1.29-2.93.63"/><path fill="#eeccc9" fill-opacity=".996" d="M280.19 170.33q-.71-2.36-2.23-4a1.65 1.57 22.4 0 1-.41-.92q-.2-2 .37-3.7.31-.92.39.05.07.84.04 1.74-.02.57.23 1.09l3.08 6.46q.37.77-.44.47-.28-.1-.58-.01-.83.25-.48-.53.04-.1.06-.2.04-.23-.03-.45M275.28 173.83a.03.03 0 0 1-.03.03l-.24.01a.77.22-1 0 1-.78-.21l-.1-6.14a.77.22-1 0 1 .76-.23l.24-.01a.03.03 0 0 1 .03.03zM276.86 170.84l.12.39q.18.6-.4.37-.18-.08-.28-.25-.14-.23-.06-.48l1.04-3.18q.27-.82.33.04.07 1.28-.62 2.29a.94.92-36.3 0 0-.13.82"/><path fill="#eeccc9" fill-opacity=".996" d="M278.99 169.33q-.26.17-.55.01.27-.05.55-.01M287.38 182.2a.19.19 0 0 1-.2-.18l-.08-5.84a.55.38 89.2 0 1 .37-.56h.26a.55.38 89.2 0 1 .39.54l.08 5.84a.19.19 0 0 1-.18.2zM271.63 185.7q.06.39-.34.41l-.58.04q-.4.02-.35-.38c.19-1.25.09-3.78.72-4.87q.51-.9.39.12-.24 2.19.16 4.68M274.904 194.19a3.37 2.14 90.1 0 1-2.134-3.374 3.37 2.14 90.1 0 1 2.146-3.366 3.37 2.14 90.1 0 1 2.134 3.374 3.37 2.14 90.1 0 1-2.146 3.366m1.072-5.206a1.02 1.02 0 0 0-1.016-1.024h-.1a1.02 1.02 0 0 0-1.024 1.016l-.012 3.72a1.02 1.02 0 0 0 1.016 1.024h.1a1.02 1.02 0 0 0 1.024-1.016zM287.23 193.84q.64 1.27 1.55 2.16.4.39-.15.47-.86.12-1.25-.6-.99-1.83-2.36-3.33-.5-.55.23-.45.58.08 1.05.4.42.29.9.12l.95-.33q.75-.26.22.32-.35.38-.83.53-.58.17-.31.71M285.23 196.52q-.45.23-.29-.25.19-.56.63-.89.42-.3.33.21-.11.64-.67.93M294.91 206.45a.01.01 0 0 1-.01.01l-.37.01a.58.23-.7 0 1-.58-.22l-.08-6.28a.58.23-.7 0 1 .58-.24l.37-.01a.01.01 0 0 1 .01.01zM276.89 209.49q.52-3.01-.11-5.89a.3.3 0 0 1 .32-.36l.45.05q.23.02.24.25l.23 6.02q.02.31-.29.33l-.45.03q-.47.04-.39-.43M269.6 204.22a.02.02 0 0 1 .01-.03 1.66 1.04 55.6 0 1 1.8.78l1.42 2.08a1.66 1.04 55.6 0 1 .08 1.96.02.02 0 0 1-.03-.01z"/><ellipse fill="#eeccc9" fill-opacity=".996" rx=".68" ry=".35" transform="rotate(-40.9 410.68 -263.24)"/><path fill="#eeccc9" fill-opacity=".996" d="m249.01 209.31.16-3.84q.01-.11.12-.11h.26q.42.01.37.42-.22 1.8.18 3.42.11.45-.35.47l-.37.02q-.39.01-.37-.38M240.79 215.02q.99-2.28.57-4.41-.32-1.64 1.06-2.23.83-.36.63.53-.36 1.65.52 2.85a.88.87 28.4 0 0 1.58-.47l.22-3.98a.32.32 0 0 1 .39-.29q.19.04.26.25c.51 1.67.39 5.85-2.42 5.09q-.57-.16-.62-.74-.01-.17-.12-.31-.22-.28-.3.07-.25 1.08-.57 2.35-.28 1.16-1.2 1.29M270.33 207.44a.25.24 86.8 0 1 .33.3q-.17.56-.72.8-.43.18-.31-.27.16-.59.7-.83M240.79 215.02q-.59.58-1.32-.05-1.38-1.18-1.28-3.69.02-.56-.51-.69l-.43-.11q-.98-.25.01-.46l1.64-.35q.63-.14.49.49c-.33 1.42-.71 4.54 1.4 4.86M199.31 212.03q-.64-.14-1.13-.45-.62-.39.07-.64 2.24-.8 3.72.26.49.36-.1.5-.91.23-1.73-.52a.47.46 48.2 0 0-.58-.04q-.45.31-.25.89M199.31 212.03q.67.06 1.04.6.25.36.17.68-.11.45-.43.12-.57-.6-.78-1.4M232.96 221.1a.17.17 0 0 1-.24-.05l-2.44-3.55a1.26.32 55.5 0 1-.45-1.22l.25-.17a1.26.32 55.5 0 1 .98.86l2.44 3.55a.17.17 0 0 1-.05.24zM232.87 216.35a.23.22 88.8 0 1 .29.28q-.22.65-.85.9-.46.18-.3-.28.21-.66.86-.9M214.52 219.77q-.23.44-.76.46-.43.01-.19-.35.26-.39.68-.47.51-.1.27.36M213.04 220.31c.32 1.19.77 2.1 1.78 2.85q.78.57-.18.61-1.12.05-1.55-1.02-.69-1.69-1.85-2.85-.52-.52.21-.47.54.03 1.03.24.44.18.56.64M229.6 220.54q.34-.62.98-.94a.2.2 0 0 1 .28.26q-.3.72-1.05.94a.18.18 0 0 1-.21-.26M275.69 228.04q-.37-.01-.54-.47-.11-.31-.03-.65.6-2.44-.16-4.53a.73.73 0 0 0-1.35-.03q-1.57 3.71.9 6.41.32.35-.09.11-3.4-1.92-1.82-6.12a1.69 1.68-66.8 0 1 2.31-.93c2.04.98 1.44 4.57.78 6.21M211.77 222.75a.23.23 0 0 1 .31.25q-.1.52-.62.78a.29.28 87.5 0 1-.39-.36q.18-.46.7-.67M259.06 230.37a3.41 2.13 90 0 1-2.13-3.41 3.41 2.13 90 0 1 2.13-3.41 3.41 2.13 90 0 1 2.13 3.41 3.41 2.13 90 0 1-2.13 3.41m-.042-.35a3.08 1.2 90.6 0 0 1.232-3.067 3.08 1.2 90.6 0 0-1.168-3.093 3.08 1.2 90.6 0 0-1.232 3.067 3.08 1.2 90.6 0 0 1.168 3.093M213.34 234.06l.15 4.72q.01.34-.33.4-.22.05-.44-.01-.47-.11-.37-.58.73-3.65-.49-6.92-.92-2.46.42-4.41a1.68 1.68 0 0 1 2.97.37q1.5 4.19-1.51 5.76-.41.21-.4.67m.265-1.26a3.02 1.18 90.1 0 0 1.185-3.018 3.02 1.18 90.1 0 0-1.175-3.022 3.02 1.18 90.1 0 0-1.185 3.018 3.02 1.18 90.1 0 0 1.175 3.022M275.69 228.04q.59.24.54.95-.18 2.71.16 5.72.07.65-.55.43-.1-.04-.2.01-.67.31-.5-.4.6-2.46.12-4.87-.1-.47.21-.85.34-.42.22-.99"/><path fill="#eeccc9" fill-opacity=".996" d="M210.61 233.3q-1.08 2.43 1.08 3.16.71.24 0 .47-.43.14-.88.08-.52-.06-.8-.5-1.4-2.18.74-3.91.34-.27.32.17-.01.27-.24.34a.36.33-83.4 0 0-.22.19M240.2 245.5q.9-1.3 1.51-2.67.65-1.47-.47-1.99-.44-.21-.87.04l-.51.3q-.77.45-.3-.31.29-.46.64-.86.31-.35.1-.76-1.39-2.73.02-5a1.68 1.67 46.5 0 1 2.89.08q1.48 2.69-.06 4.87-1.16 1.64-.59-.28.74-2.53.15-3.84-1.35-3.02-1.99.32-.33 1.77.17 3.91a.7.7 0 0 0 .47.51c1.16.39 1.81 1.5 1.32 2.71q-.73 1.79-2.48 2.97"/><rect width=".92" height="6.56" x="-.46" y="-3.28" fill="#eeccc9" fill-opacity=".996" rx=".26" transform="rotate(-.8 17114.96 -20437.474)"/><path fill="#eeccc9" fill-opacity=".996" d="M223.59 241.62q.21-2.44-.29-4.88-.09-.46.34-.63.23-.09.48-.05.43.07.38.5-.31 2.73.17 5.5.15.91-.71.59-.13-.04-.27-.02-.79.16-.35-.53.08-.14.17-.27.07-.1.08-.21M275.27 237.77a.49.48 74.6 0 1 .33-.59l.3-.09a.36.35-8.4 0 1 .45.33l.18 5.68q.01.48-.46.44-.16-.01-.31-.01a.38.38 0 0 1-.37-.46q.6-2.72-.12-5.3M283.44 243.71a.04.04 0 0 1-.03.04l-.44.01a.56.22-.8 0 1-.57-.21l-.08-6.06a.56.22-.8 0 1 .55-.23l.44-.01a.04.04 0 0 1 .05.04zM272.29 244.67q.14.21-.06.35l-.23.16q-.04.04-.09-.01-2.86-3.02-.36-6.74.05-.08.14-.04l.27.13q.23.11.11.33-1.68 3.03.22 5.82M272.88 238.93q-.2-.07-.23-.31-.04-.34.27-.2 1.54.68 1.64 2.45.23 3.8.15 8-.01.59-.6.6-.12 0-.25-.02-.35-.08-.24-.42.8-2.39-.25-4.6-.23-.48-.06-.98.62-1.77.13-3.87-.11-.47-.56-.65M240.2 245.5q-.02.51.55.5 1.07-.03 2.19-.23.2-.03.24.16l.06.29q.01.06-.04.08-1.67.7-3.57.44-.58-.08-.28-.59.21-.36.85-.65M220.94 249.78q.48-.61 1.11-.01c1.64 1.56 1.96 5.09-.18 6.47q-.52.34-.22-.2 1-1.76.58-4.53-.22-1.52-1.29-1.73"/><path fill="#eeccc9" fill-opacity=".996" d="M220.94 249.78c-.94 1.36-1.44 4.72.01 6.21q.48.48-.19.32-.49-.13-.77-.55c-.89-1.35-1.49-5.03.42-5.95q.37-.18.53-.03M272.27 258.68a.01.01 0 0 1-.01.01l-.36.01a.61.22-1.1 0 1-.61-.21l-.12-6.16a.61.22-1.1 0 1 .61-.23l.36-.01a.01.01 0 0 1 .01.01zM241.15 252.89q-1.52 3.13-.09 6.15.31.66-.27.22-.86-.66-1.16-1.77-.7-2.57 1.15-4.83.04-.04.09-.02l.24.13q.08.04.04.12"/><path fill="#eeccc9" fill-opacity=".996" d="M242.19 258.77q1.26-3.14-.31-5.95-.03-.06.02-.09l.26-.16q.05-.03.09.01 2.53 2.92.74 6.04-.34.6-1 .79-.8.23-.12-.24.22-.15.32-.4M274.84 262.57q1.72-3.84.64-8.15-.07-.28.2-.39l.52-.22q.37-.16.38.25c.06 2.97.66 7.29-1.74 8.51M215.66 262.62q1.64-3.1.11-5.97-.09-.17.07-.27l.25-.15q.05-.03.09.02 2.54 3.26 0 6.61-.11.14-.26.05l-.23-.15q-.08-.05-.03-.14M231.56 262.37a1.33 1.22 73.2 0 0-.78 1.63q.48 1.52-.55 2.29-.68.52-.46-.31c.36-1.3.13-2.61.39-3.95q.11-.56-.28-1-.24-.27-.11-.6l1.55-4.07q.01-.05.06-.03l.3.09q.32.09.19.4-1 2.39-.18 5.02.06.17.02.36-.02.13-.15.17"/><path fill="#eeccc9" fill-opacity=".996" d="M233.31 261.77q.94-2.59-.4-5.12-.12-.22.11-.32l.34-.16q.06-.02.09.03 2 2.71.63 5.65-.35.76-1.19.85-.79.08-.12-.35.14-.08.26-.19.19-.16.28-.39M266.63 261.57l-.13-4.92q0-.17.16-.2l.35-.07a.43.42 89.1 0 1 .5.49q-.47 2.85.28 5.82.13.49-.33.28-.43-.2-.89-.06-.83.25-.27-.41.15-.18.23-.39.1-.26.1-.54M214.74 256.72q-1.3 2.91-.01 5.63.13.28-.18.27h-.26q-.08.01-.12-.06-2.05-2.97.07-6.12.05-.08.14-.04l.29.13q.13.06.07.19M274.84 262.57q.44 1.48 1.45 2.85.15.2-.06.34l-.23.15q-.2.13-.33-.06l-2.97-4.33q-.14-.21.07-.35l.36-.25q.21-.14.34.08.6 1 1.37 1.57M266.6 270.75a.78.78 0 0 0 .89-.53q.89-2.76-.08-5.35-.06-.17.1-.23l.26-.1q.06-.02.09.03 1.87 3.02.32 5.72a1.62 1.62 0 0 1-2.72.14q-2-2.76.32-5.69 1.22-1.54.4.24-1.15 2.52-.12 5.43a.42.4-88.8 0 0 .23.25q.16.05.31.09"/><ellipse fill="#eeccc9" fill-opacity=".996" rx=".84" ry=".3" transform="rotate(134.1 80.444 190.363)"/><path fill="#eeccc9" fill-opacity=".996" d="M216.72 272.31a.79.78-29 0 0 1.14.32q.54-.35.46-1.01-.31-2.31-.44-4.62a1.88 1.88 0 0 1 .98-1.76q1.88-1.01 2.71.65 1.31 2.6-.43 5.32-.04.06-.11.04l-.28-.11q-.11-.04-.08-.16.81-2.58.26-4.95-.23-1.01-1.22-.7l-.3.09a.74.74 0 0 0-.51.82l.68 4.38a1.59 1.56 60.1 0 1-.32 1.23q-1.42 1.78-2.77.89c-1.96-1.3-1.3-4.64-.09-6.23q.14-.18.33-.06l.21.14q.05.03.02.07-1.55 2.86-.24 5.65M202.34 270.14q-.06-.12-.04-.25.05-.46.2-.02.11.3.07.58-.04.37-.14.01-.02-.05-.02-.1-.01-.12-.07-.22"/><rect width=".94" height="6.52" x="-.47" y="-3.26" fill="#eeccc9" fill-opacity=".996" rx=".26" transform="rotate(-1.1 14413.583 -11904.906)"/><path fill="#eeccc9" fill-opacity=".996" d="m220.29 277.16-1.34.04q-1.77.06-.64-1.3 1.34-1.61 2.33-3.33.75-1.32.79.2l.06 2.51q.01.44.26.81.78 1.15-.34 2.49a.46.46 0 0 1-.73-.04q-.24-.35-.01-.74.41-.67-.38-.64m.51-2.57q-.01-.8-.64-.31-.78.59-1.33 1.45-.23.37.11.65.26.22.61.25.77.05 1.03-.7.22-.66.22-1.34M211.76 274.4q-.14-.57.45-.6l.4-.02q.26-.01.26.24l.07 6.16q0 .08-.08.09l-.72.13q-.37.06-.29-.3.65-2.86-.09-5.7M268.24 282.09l-.49-.8q-.43-.71.38-.58l.29.04q.22.03.35.19.45.54-.1 1.18a.27.26-40.6 0 1-.43-.03M224.93 290.67q-.56-1.5-1.61-2.53-.88-.86.33-.64.3.05.56.18.41.19.58.62.72 1.84 2.14 3.22a.18.18 0 0 1-.11.31q-1.4.14-1.89-1.16"/><ellipse fill="#eeccc9" fill-opacity=".996" rx=".76" ry=".32" transform="rotate(-26.2 731.588 -341.344)"/><path fill="#eeccc9" fill-opacity=".996" d="M202.348 297.16a3.38 2.14 89.7 0 1-2.158-3.369 3.38 2.14 89.7 0 1 2.122-3.391 3.38 2.14 89.7 0 1 2.158 3.369 3.38 2.14 89.7 0 1-2.122 3.391m-.044-.26a3.12 1.19 90.3 0 0 1.206-3.114 3.12 1.19 90.3 0 0-1.174-3.126 3.12 1.19 90.3 0 0-1.206 3.114 3.12 1.19 90.3 0 0 1.174 3.126M223.65 290.8a.26.26 0 0 1 .37.25q-.05.6-.67.77a.26.26 0 0 1-.32-.33q.15-.46.62-.69M231.85 301.22l.05 4.54q.01.32-.31.29l-.26-.03q-.29-.03-.26-.32.26-2.25-.35-4.21a.43.43 0 0 1 .26-.53l.32-.12q.55-.21.55.38M215.902 308.656a1.88 1.88 0 0 1-1.877 1.884h-.32a1.88 1.88 0 0 1-1.883-1.876l-.004-2.4a1.88 1.88 0 0 1 1.877-1.884h.32a1.88 1.88 0 0 1 1.883 1.876zm-.974-2.844a1.04 1.04 0 0 0-1.047-1.032h-.1a1.04 1.04 0 0 0-1.033 1.048l.024 3.36a1.04 1.04 0 0 0 1.047 1.032h.1a1.04 1.04 0 0 0 1.033-1.048z"/></svg>