<svg xmlns="http://www.w3.org/2000/svg" viewBox="0 0 382 382"><path fill="#4c0112" fill-opacity=".996" d="M293.18 110.1q.88-.34.8-1.37-.03-.45.42-.41l.28.02q.2.02.15.22-.56 2.62-2.77 1.82-.55-.2-.78-.74-.44-1.04-.5-2.09-.02-.37.35-.32l.36.06a.29.29 0 0 1 .25.32q-.11 1.15.32 2.04.35.74 1.12.45M298.07 115.4a.2.19-20.2 0 0-.14.3q1.05 1.65 1.42 2.46a.44.44 0 0 1-.78.39q-.92-1.72-2.24-3.46-1.21-1.6.51-.57.94.57 1.87-.04.68-.44.32.28-.28.56-.96.64"/><ellipse fill="#4c0112" fill-opacity=".996" rx=".84" ry=".32" transform="rotate(125.7 117.908 135.033)"/><path fill="#4c0112" fill-opacity=".996" d="M295.5 131.68q.41-.04.22.32-.22.41-.62.46a.23.23 0 0 1-.24-.32q.18-.42.64-.46M294.75 133.82q.4.99 1.28 1.67.45.35-.04.64l-.31.19q-.06.03-.09-.02-.71-.92-1.55-1.64a1.18 1.14 13.9 0 1-.37-.59q-.29-1.17-1.21-1.9-.24-.18-.03-.41l.29-.31q.05-.05.11-.01 1.32.88 1.92 2.38"/><ellipse fill="#4c0112" fill-opacity=".996" rx=".52" ry=".32" transform="rotate(-36.9 349.682 -370.646)"/><path fill="#4c0112" fill-opacity=".996" d="m285.05 138.06 1.49 2.09q.21.3-.15.39l-.5.12q-.22.05-.31-.16-.57-1.27-1.48-2.12-.62-.58.07-1.07l1.78-1.28q.1-.07.14.05l.08.25.01.01q.14.52-.56.54a.75.74 71 0 0-.57 1.18M283.97 140.59q2.46 2.35.73 5.79a1.5 1.49-58 0 1-2.24.52q-1.96-1.49-.45-4.35.32-.61.19.06-.42 2.09.43 3.63.8 1.45 1.38-.1.88-2.3-.1-4.99a.77.76-79.7 0 0-.24-.35q-.26-.22-.61-.16-.29.05-.25-.25.05-.34.24-.65.43-.73.61.1l.08.34q.05.24.23.41M284.71 165.12c.55-1.23.13-4.35-.02-5.72q-.03-.25.22-.27l.48-.04q.41-.03.36.37-.34 2.82.25 5.68.16.77-.61.57-.11-.03-.23-.01-.77.13-.45-.58"/><rect width=".92" height="6.56" x="-.46" y="-3.28" fill="#ea0102" fill-opacity=".996" rx=".26" transform="rotate(-.8 11945.247 -21355.95)"/><path fill="#ea0102" fill-opacity=".996" d="M296.28 169.93q-.31 1.15.34 1.91.43.49-.21.6-.36.06-.67-.06-.53-.2-.41-.75.6-2.76-.24-4.95-.21-.57.4-.56.2 0 .35.12a.56.54 36.1 0 0 .77-.11q.52-.72 1.26-1.17.58-.35.24.24-1.35 2.33-.4 5.23.26.8-.44.32-.45-.32-.65-.84-.19-.53-.34.02M275.67 173.33q1.02 1.06 1.45-.35.95-3.08-.57-5.33-.09-.13.04-.22l.22-.15q.07-.05.12.02 2.5 2.64.87 5.82a1.69 1.68 42.1 0 1-2.91.14c-.87-1.34-1.25-4.96.84-5.74q.67-.25.19.28c-1.1 1.22-.7 2.65-.75 4.13q-.02.85.5 1.4"/><path fill="#4c0112" fill-opacity=".996" d="M298.96 171.37q-.13.11-.29.17-.55.2-.15-.22.14-.15.34-.17.42-.06.1.22"/><path fill="#ea0102" fill-opacity=".996" d="M292.47 180.6q-1.19-.38-2.27-.05a.07.05-13.3 0 1-.08-.04l-.05-.26q-.03-.13.09-.19 1.44-.72 2.46.3a.15.14-13.6 0 1-.15.24"/><path fill="#4c0112" fill-opacity=".996" d="M288.82 182.75c-3.33 1.19-1.52 4.07.15 5.51q.64.55-.19.46l-1.31-.14a.56.55-82.9 0 1-.48-.63q.03-.22.01-.44-.02-.25-.16-.47-1.53-2.39-3.21-4.35-.51-.59.27-.57l.79.01a.78.78 0 0 1 .76.8q-.04.98.72 1.39.64.34.76-.37.28-1.59 1.75-1.75.61-.07.8-.65l.13-.41q.35-1.06.6.02c.4 1.67-.29 3.22.33 4.82q.3.77-.52.65-.14-.02-.27.03-.69.25-.52-.45.34-1.43.19-3.09-.06-.57-.6-.37M283.34 188.17c.89-.43 1.36-1.09 1.69-2.02q.02-.08.1-.03l.22.15q.22.15.03.33-.56.56-.7 1.38-.09.54-.62.7-.31.09-.64.03-.9-.14-.08-.54"/><path fill="#ea0102" fill-opacity=".996" d="M278.77 199.23a.75.74 11.3 0 0 .92-.61q.41-2.73-.09-5.04-.06-.28.23-.3l.61-.02q.21-.01.21.2l.01 4.13a.84.82-80.8 0 0 .56.79l.76.26a1.17 1.16.6 0 1 .72.73q.76 2.2-.1 4.32a1.34 1.32-86.3 0 1-.89.79q-1.33.35-2.23-.54a1.39 1.36-72.7 0 1-.4-.78q-.33-2.33-1.77-3.85-.55-.58.23-.39zm1.81 3.84q-.36.28-.16.69a.55.54 65.4 0 0 .71.27q.82-.36.91-1.38.14-1.66-.05-3.06-.1-.77-.73-.3l-1.01.76q-.81.6-.26 1.44l.68 1.04a.41.41 0 0 1-.09.54"/><ellipse fill="#4c0112" fill-opacity=".996" rx=".84" ry=".54" transform="rotate(17.6 -513.594 940.507)"/><path fill="#ea0102" fill-opacity=".996" d="M277.23 202.93q.28-.37.65-.29a.24.24 0 0 1 .18.3q-.1.38-.46.5a.33.33 0 0 1-.37-.51M290.54 210.23q.66-.32.76-1.07c.25-1.89.5-3.21-.64-4.9q-.14-.21.08-.32l.25-.13q.06-.03.1.02 2.28 2.82.81 5.77a1.73 1.73 0 0 1-3.05.09q-1.5-2.61.51-5.73.03-.05.09-.03l.3.13q.23.1.12.32-1.32 2.59-.25 5.48a.67.67 0 0 0 .92.37"/><path fill="#4c0112" fill-opacity=".996" d="m251.12 206.37 1.37 1.94a.27.27 0 0 1-.16.42l-.37.08q-.17.04-.27-.1l-1.9-2.71q-.4-.56.27-.68.82-.15 1.52-.73.65-.53.26.21-.18.35-.51.55-.64.4-.21 1.02"/><path fill="#ea0102" fill-opacity=".996" d="M261.176 209.692a1.87 1.87 0 0 1-1.843 1.895l-.32.005a1.87 1.87 0 0 1-1.896-1.844l-.033-2.38a1.87 1.87 0 0 1 1.843-1.895l.32-.005a1.87 1.87 0 0 1 1.896 1.844zm-.95-2.878a1.03 1.03 0 0 0-1.026-1.034h-.12a1.03 1.03 0 0 0-1.034 1.026l-.012 3.44a1.03 1.03 0 0 0 1.026 1.034h.12a1.03 1.03 0 0 0 1.034-1.026zM271.4 206.14a.19.19 0 0 1 .19.19l.17 6.01a.4.27-1.6 0 1-.39.29h-.24a.4.27-1.6 0 1-.41-.26l-.16-6.01a.19.19 0 0 1 .18-.2z"/><path fill="#4c0112" fill-opacity=".996" d="M249.41 207.54a.23.23 0 0 1 .31.27q-.16.59-.77.8-.42.15-.27-.27.2-.56.73-.8"/><path fill="#ea0102" fill-opacity=".996" d="M283.3 215.82q-.54-.07-.99.22-.53.33-.31-.25.98-2.58.13-5.74a.35.35 0 0 1 .24-.43l.58-.16q.27-.08.28.2l.16 6.09a.08.07 3.6 0 1-.09.07M235.68 211.84q.52-.55.51-1.37 0-.38.39-.36l.25.02q.14.01.13.14c-.16 2.54-3.21 3.17-3.95.88q-.02-.06.03-.09l.23-.11q.29-.13.46.14.36.62 1 .93.54.26.95-.18"/><rect width=".94" height="6.46" x="-.47" y="-3.23" fill="#ea0102" fill-opacity=".996" rx=".27" transform="rotate(-1.4 9140.53 -11400.19)"/><path fill="#4c0112" fill-opacity=".996" d="M246.38 222.78a.86.86 0 0 0 1.62-.07q.96-3.13-.47-4.96-.36-.46.2-.29c2.16.66 1.63 4.41.77 5.69q-.33.48-.91.52c-3.11.2-2.93-3.72-1.98-5.49q.26-.5.81-.71.73-.28.29.38-1.46 2.17-.33 4.93M263.09 220.94q.44 1.24 1.44 2.06.45.37-.08.6-.18.08-.37.06-.37-.03-.58-.35l-2.44-3.67q-.43-.64.32-.44.51.14.87.52.34.37.75.08.46-.33 1-.44.67-.13.22.38-.34.41-.84.59-.45.17-.29.61"/><path fill="#ea0102" fill-opacity=".996" d="M270.73 226.07a.01.01 0 0 1 0 .01l-.22.15a.69.61-34.2 0 1-.91-.12l-2.57-3.78a.69.61-34.2 0 1 .22-.9l.22-.14a.01.01 0 0 1 .01 0zM269.46 222.57a.35.35 0 0 1-.33-.59q.36-.38.88-.23.46.14.11.46-.3.28-.66.36"/><path fill="#4c0112" fill-opacity=".996" d="M261.81 224.2q.3.13.45.42.41.76-.3.27-.11-.08-.25-.09-.17-.01-.27-.16-.63-1.04.1-2.05.29-.4.27.09-.02.44-.24.83-.26.48.24.69"/><path fill="#ea0102" fill-opacity=".996" d="M262.52 227.84q.16.07.27.21.25.32-.15.26l-.89-.14q-.6-.09-.64.51-.13 1.66.46 3.09a.64.64 0 0 0 1.01.24q.66-.57.74-1.54.18-2.23-.37-4.23-.23-.86.32-.15 2.02 2.59.42 5.46a1.68 1.68 0 0 1-3.05-.25q-.36-1.03-.54-2.09-.3-1.85-1.44-.36l-.59.76a1.63 1.63 0 0 1-2.8-.38q-1.09-2.67.08-4.79a1.73 1.73 0 0 1 3.1.15q.58 1.36.75 2.85.03.28.31.27l.29-.01q.56-.02.59-.57.11-1.58-1.12-2.41-.33-.22-.1-.54l.15-.22q.08-.11.2-.04 2.01 1.22 2.49 3.3.1.44.51.62m-5.677 2.09a3.07 1.19 90.5 0 0 1.217-3.06 3.07 1.19 90.5 0 0-1.163-3.08 3.07 1.19 90.5 0 0-1.217 3.06 3.07 1.19 90.5 0 0 1.163 3.08"/><ellipse fill="#4c0112" fill-opacity=".996" rx=".84" ry=".32" transform="rotate(112.1 57.667 202.787)"/><rect width=".94" height="6.54" x="-.47" y="-3.27" fill="#ea0102" fill-opacity=".996" rx=".26" transform="rotate(-1.9 7007.663 -6530.422)"/><path fill="#ea0102" fill-opacity=".996" d="M251.47 236.65q.43-2.45-.29-4.77-.24-.77.54-.6.06.02.12.01.64-.06.58.58-.29 2.65.1 5.15.1.6-.51.58l-.52-.01q-.65-.01-.26-.53.08-.11.16-.23.06-.08.08-.18"/><rect width=".92" height="5.58" x="-.46" y="-2.79" fill="#ea0102" fill-opacity=".996" rx=".29" transform="rotate(-33.9 513.887 -288.833)"/><ellipse fill="#ea0102" fill-opacity=".996" rx=".69" ry=".37" transform="rotate(-41.2 438.431 -213.744)"/><path fill="#4c0112" fill-opacity=".996" d="M266.49 243.53q-.04 1.17-.76 2.19a1.51 1.5-44.3 0 1-2.49-.03q-2.03-3.08.56-6.16.07-.08.16-.02l.23.14q.07.04.03.11-1.59 2.78-.5 5.47.75 1.84 1.51 0 1.02-2.46-.25-5.2-.32-.69.29-.24.31.22.5.54.86 1.46 1.02-.23.1-1.13 1-1.66.63-.37.33.29-1.09 2.42-.18 5.18.21.63-.38.32-.49-.26-.76-.77-.28-.53-.31.07M268.78 244.41c1.47-1.01 1.42-4.63.25-5.81q-.17-.18.02-.34l.21-.17q.08-.07.16.01 2.45 2.7.74 5.75-.52.94-1.75.72a.14.14 0 0 1-.07-.25q.18-.17.29.05.06.11.15.04M247.4 238.55q.41-.18.27.24-.23.69-.96.94-.57.19-.27-.33.34-.58.96-.85"/><rect width=".94" height="6.54" x="-.47" y="-3.27" fill="#4c0112" fill-opacity=".996" rx=".27" transform="rotate(-1.5 9779.931 -9976.666)"/><rect width=".88" height="6.54" x="-.44" y="-3.27" fill="#ea0102" fill-opacity=".996" rx=".26" transform="rotate(-2.2 6726.044 -7255.75)"/><rect width=".9" height="5.7" x="-.45" y="-2.85" fill="#4c0112" fill-opacity=".996" rx=".26" transform="rotate(-34.8 514.984 -223.64)"/><path fill="#4c0112" fill-opacity=".996" d="M220.85 251.65q.42-.08.29.33-.15.5-.65.6-.38.08-.3-.3.12-.52.66-.63M270.65 253.76c1.69 2.85 4.47 4.78 2.71 8.6a1.74 1.73 17 0 1-1.85.98c-1.99-.33-2.01-3.54-1.59-4.92q.13-.45-.03-.88-.13-.34-.51-.41-.4-.06-.19-.4l.18-.31q.1-.16.25-.06 1.5 1.02 1.12 2.57-.5 2.09.43 3.62.71 1.16 1.25-.09.6-1.35.54-3.27-.04-1.43-1.06-1.99-.42-.23-.66-.66-.95-1.76-2.08-3.16-.43-.53.25-.53h2.66q.6 0 .13.37-.5.4-1.16.1-.9-.41-.39.44"/><path fill="#ea0102" fill-opacity=".996" d="M235.13 256.07q.53 1.21 1.43 2.05.56.53-.21.55l-.28.02q-.33.05-.51-.23l-2.67-4.06a.16.16 0 0 1 .22-.23q1.46.9 2.83.32 1.01-.42.23.35-.31.3-.7.44-.59.21-.34.79M210.48 258.98a.38.37-7.6 0 1-.33.42l-.4.05q-.32.03-.34-.29-.09-2.17.49-4.45.04-.15.18-.13l.27.03q.06.01.06.07-.28 2.11.07 4.3"/><path fill="#4c0112" fill-opacity=".996" d="M218.17 256.18q-.28.33-.33-.11-.08-.74.53-1.2.45-.33.33.22-.12.62-.53 1.09"/><path fill="#ea0102" fill-opacity=".996" d="M243.3 261.5c.55-1.46.28-3.99.01-5.46q-.05-.29.23-.38l.43-.16q.46-.16.43.33-.22 2.92.13 5.8.06.5-.44.51-.14 0-.28.01-.78.08-.51-.65"/><path fill="#4c0112" fill-opacity=".996" d="M233.86 257.95q-.01.45-.46.68-.4.2-.38-.24.02-.47.43-.69a.28.28 0 0 1 .41.25"/><path fill="#ea0102" fill-opacity=".996" d="M279.01 265.52q-2.07.5-2.61-1.46-.65-2.35.7-4.55.09-.15.26-.14l.42.01q.14 0 .08.12-1.19 2.39-.43 5.19a.86.86 0 0 0 1.12.58q.8-.28.83-1.22c.06-1.68.29-2.86-.58-4.38q-.08-.15.07-.23l.25-.13q.09-.05.16.03 1.85 2.37.72 5.31a1.44 1.44 0 0 1-.99.87"/><path fill="#4c0112" fill-opacity=".996" d="M284.19 268.81q-.96 1.58-.73 3.67.02.19-.14.28l-.28.15q-.46.25-.51-.26-.32-2.73 1.39-4.07a.18.18 0 0 1 .27.23M285.18 269.05q-.3-.09-.38-.34-.1-.3.19-.18 1.58.67 1.62 2.6 0 .31-.31.29l-.26-.01q-.31-.01-.34-.32l-.16-1.62a.5.5 0 0 0-.36-.42M236.89 270.42q-.29-.64-.83-1.12-.55-.47.17-.54.47-.05.74.26.84.94 2.69 3.89.2.32-.17.39l-.55.1q-.22.04-.3-.16-.41-1-1.06-1.73-.42-.47-.69-1.09M238.47 268.94l.44-.18a.31.31 0 0 1 .34.5q-.34.35-.75.25a.3.3 0 0 1-.03-.57"/><path fill="#ea0102" fill-opacity=".996" d="M217.79 277.1q.19.34-.17.51l-.24.12q-.06.03-.09-.02-2.08-3.23.05-6.3.09-.14.24-.06l.23.12q.15.08.07.22-1.44 2.84-.09 5.41M219.29 272.52q-.14-.44-.48-.72-.47-.39.14-.41.2 0 .39.05.14.05.22.17 1.99 2.88-.14 6.12-.09.14-.24.06l-.27-.15q-.22-.12-.1-.34 1.26-2.27.48-4.78"/><path fill="#4c0112" fill-opacity=".996" d="M236.5 272.09a.16.16 0 0 1 .26.14q-.07.66-.47 1.21a.24.24 0 0 1-.43-.16q.07-.75.64-1.19"/><path fill="#ea0102" fill-opacity=".996" d="M213.14 279.53q.07.43-.37.48l-.49.04q-.41.04-.35-.36.39-2.9-.11-5.87-.06-.39.33-.44l.25-.04a.44.44 0 0 1 .5.47q-.24 2.96.24 5.72M270.05 275.38q-1.05 2.23-.03 5.18.36 1.02-.36.21-1.88-2.16-.49-5.29a1.6 1.6 0 0 1 2.6-.48q1.79 1.81.59 4.78-.04.1-.15.08l-.3-.07q-.27-.05-.21-.32.54-2.41-.36-4.11-.67-1.29-1.29.02"/><path fill="#4c0112" fill-opacity=".996" d="M241.111 281.62a3.28 2.16 90.5 0 1-2.13-3.299 3.28 2.16 90.5 0 1 2.188-3.26 3.28 2.16 90.5 0 1 2.13 3.298 3.28 2.16 90.5 0 1-2.188 3.26m.008-.31a2.99 1.21 90.6 0 0 1.24-2.977 2.99 1.21 90.6 0 0-1.178-3.003 2.99 1.21 90.6 0 0-1.24 2.977 2.99 1.21 90.6 0 0 1.178 3.003"/><path fill="#ea0102" fill-opacity=".996" d="M239.943 297.04a3.32 2.15 89.6 0 1-2.173-3.305 3.32 2.15 89.6 0 1 2.127-3.335 3.32 2.15 89.6 0 1 2.173 3.305 3.32 2.15 89.6 0 1-2.127 3.335m-.028-.31a3 1.21 90.1 0 0 1.215-2.998 3 1.21 90.1 0 0-1.205-3.002 3 1.21 90.1 0 0-1.215 2.998 3 1.21 90.1 0 0 1.205 3.002"/><path fill="#4c0112" fill-opacity=".996" d="M212.85 290.91c2.01.52 1.54 2.78 3.58 3.81q.22.11.35.33.29.48-.52.75a.74.73 62.7 0 1-.84-.27l-2.9-4.13q-.5-.71.33-.49"/><path fill="#ea0102" fill-opacity=".996" d="M218.21 293.32q.51 1.11 1.49 1.85.31.23.05.51l-.32.33q-.04.05-.09.01-1.73-1.25-2.33-3.14-.18-.55-.7-.82l-.93-.48q-.91-.46.11-.49.86-.03 1.56.51.43.33.94.16l1.11-.35q1.19-.37.19.36l-.83.61q-.51.37-.25.94"/><path fill="#4c0112" fill-opacity=".996" d="M212.56 294.58a.53.46-56.9 0 1 .25-.07q.86.03.04.88a.38.37-33.6 0 1-.62-.12q-.16-.39.33-.69M228.11 298.82q.46 1.31 1.43 2.14.93.8-.3.71-.16-.01-.31-.05-.38-.11-.58-.47-1.12-1.99-2.29-3.46-.38-.48.23-.49.25 0 .44.15 1.1.84 2.32.12.69-.41.28.28-.31.51-.91.58-.46.05-.31.49"/><path fill="#ea0102" fill-opacity=".996" d="M245.26 298.02q-.26-.22-.01-.44.5-.46 1.15-.31a.45.45 0 0 1 .27.7q-.54.79-1.41.05"/><path fill="#4c0112" fill-opacity=".996" d="M199.76 303.82q1.3-2.77-.08-5.24-.41-.73.31-.29c1.61.99 1.42 3.72.83 5.18a1.79 1.79 0 0 1-3.15.31c-.89-1.37-1.13-4.97 1.06-5.68q.57-.18.18.28-1.7 1.98-.53 5.37a.75.74-42 0 0 1.38.07M226.71 300.56q.27-.11.26.18-.02.65-.62.96-.43.23-.34-.25.11-.67.7-.89"/></svg>