<svg xmlns="http://www.w3.org/2000/svg" viewBox="0 0 382 382"><path fill="none" stroke="#f26e06" stroke-width="2" d="m225.31 273.99-.51 1.78" vector-effect="non-scaling-stroke"/><path fill="#ee0503" fill-opacity=".996" d="M288.01 128.18q-.17-.39-.54-.63a.13.13 0 0 1 .05-.23q.15-.02.3 0 .11.01.2.09 2.94 2.97.14 6.78-.06.08-.14.03l-.23-.12q-.11-.06-.05-.16 1.48-2.82.27-5.76M286.29 132.47l.48 1.07q.22.5-.28.3-.19-.08-.32-.23-.44-.49-.21-1.13.15-.42.33-.01"/><ellipse fill="#f6d608" rx=".82" ry=".4" transform="rotate(22.6 -183.154 811.627)"/><path fill="#f6d608" d="M297.52 135.56a.28.28 0 0 1 .39.31q-.07.44-.48.62-.38.18-.36-.24.02-.5.45-.69"/><rect width=".86" height="6.78" x="-.43" y="-3.39" fill="#ee0503" fill-opacity=".996" rx=".26" transform="rotate(-1.3 6803.627 -12650.619)"/><path fill="#f6d608" d="m284.02 148.78 2.6 3.86q.22.32-.12.5l-.32.18a.31.3 60.8 0 1-.41-.12q-1.29-2.29-2.88-4.32-.04-.05.01-.09l.2-.15a.63.62-36.2 0 1 .92.14M286.4 149.12q-.45.49-1.07.19-.4-.18 0-.36.43-.18.93-.17.44.01.14.34M283.3 153.26a.25.24-13.6 0 1-.4-.24q.11-.5.5-.85.42-.4.38.18-.03.54-.48.91"/><path fill="#ee0503" fill-opacity=".996" d="M299.95 154.27q.7.39.68 1.18a.25.24-68.7 0 1-.4.18q-.49-.43-.64-1.09a.25.25 0 0 1 .36-.27M282.49 158.84q-.13-.51.38-.63l.36-.09a.37.37 0 0 1 .46.41q-.36 2.69.16 5.59.08.44-.36.52-.25.05-.51-.02-.45-.12-.37-.58.51-2.77-.12-5.2M299.54 164.6q-.01-.06 0-.11v-.01q.12.01.11.13-.04.51-.11-.01M277.29 173.12a.05.05 0 0 1-.05.05l-.4.01a.59.32-.9 0 1-.59-.31l-.1-5.94a.59.32-.9 0 1 .59-.33l.4-.01a.05.05 0 0 1 .05.05z"/><rect width=".9" height="5.64" x="-.45" y="-2.82" fill="#f6d608" rx=".26" transform="rotate(-33.6 426.107 -385.29)"/><path fill="#f6d608" d="M284.96 169.81q.18-.31.5-.44.83-.33.42.46-.21.41-.68.41-.49-.01-.24-.43"/><rect width=".9" height="6.58" x="-.45" y="-3.29" fill="#ee0503" fill-opacity=".996" rx=".26" transform="rotate(-.7 14317.8 -24260.574)"/><path fill="#f6d608" d="M283.31 172.56q.48-.28.29.24-.23.67-.96.85-.44.11-.19-.27.32-.5.86-.82"/><path fill="#ee0503" fill-opacity=".996" d="M274.02 182.75q.41-.38.95-.56.59-.2.25.32-.34.51-.89.73-.64.25-.26.83l1.4 2.11q.17.26-.12.36l-.41.14q-.19.07-.3-.1l-2.61-3.99q-.44-.67.34-.48.46.11.71.51a.63.62 52.5 0 0 .94.13M283.08 188.15q1 .3 1.3-.69.91-3.01-.55-5.14-.14-.21.08-.32l.29-.14q.06-.03.09.02 2.28 2.94.79 5.8a1.77 1.77 0 0 1-3.16-.05q-1.39-2.87.77-5.69.04-.05.09-.02l.27.15q.22.12.09.33c-1.03 1.63-.96 3.66-.43 5.41q.08.25.37.34M272.52 185.43a.14.14 0 0 1 .21.1q.05.74-.66 1.07-.47.23-.29-.27.21-.56.74-.9"/><rect width=".92" height="5.78" x="-.46" y="-2.89" fill="#f6d608" rx=".26" transform="rotate(-33.8 455.436 -344.447)"/><path fill="#f6d608" d="M269.73 192.82a.27.26 70.2 0 1 .39.19q.09.5-.46.78-.45.24-.4-.27.04-.47.47-.7M267.11 197.47a.3.3 0 0 1-.49-.29q.11-.5.56-.81.36-.25.36.19.01.55-.43.91M284.79 203.15q.22-.93-.28-1.27a.05.05 0 0 1 .01-.09q.91-.32 1.6-1.01a1.04 1.04 0 0 1 .82-.3c3.06.29 2.81 5.58.37 6.6q-.3.13-.38.44-.39 1.46-2.03 1.2-1.51-.25-2.97-.23a.38.38 0 0 1-.31-.6l3.08-4.38zm1.63-.52q-1.14 1.93.1 4.05.28.48.71.12c1.26-1.06 1.11-4.05.59-5.43q-.12-.33-.45-.43-.38-.11-.73.06-.31.16-.29.51 0 .16.08.29.23.42-.01.83m-1.24 2.84q-.07-.14-.19-.26-.26-.24-.46.05l-1.51 2.22q-.38.57.28.73 1.27.31 2.52.07.66-.13.53-.78-.15-.75-.93-1.63-.15-.17-.24-.4M283.57 202.18q-.55.34-1.03.73-.54.45-.33-.21l.14-.44q.17-.52.71-.5.18.01.35-.02 1.17-.19.16.44M265.84 210.37q.24 1.63 1.48 3.01.17.19-.03.34l-.27.2q-.21.16-.35-.05l-3.03-4.44q-.15-.23.11-.31l.33-.09q.17-.05.28.09.65.85 1.48 1.25"/><path fill="#f6d608" d="M265.84 210.37q.22-.86.67-1.05.85-.37.41.45-.23.42-1.08.6M264.43 212.48q.26-.12.22.17-.11.69-.82.93-.54.18-.26-.32.31-.54.86-.78M251.29 216.68l1.44 2.38a.28.27 56 0 1-.07.37l-.3.22q-.19.14-.33-.06-1.25-1.84-2.72-3.98-.63-.91.36-.42 1.28.64 2.68.16.57-.19.15.24-.33.34-.78.34-.89-.01-.43.75M206.03 220.03l-2.78-3.99q-.48-.68.33-.46.16.04.33.09.36.11.52.43.9 1.77 2.3 3.3.26.28-.05.51l-.26.18q-.22.17-.39-.06M206.29 216.04q-.39.31-.83.38a.26.26 0 0 1-.24-.42q.4-.46.95-.38.54.07.12.42"/><path fill="#ee0503" fill-opacity=".996" d="m256.08 216.85-.26-.26a.13.13 0 0 1 .1-.22q.89.02 1.28.98 1.18 2.89-.74 5.37-.04.05-.1.02l-.28-.14q-.14-.06-.07-.2 1.12-2.31.4-4.97-.09-.34-.33-.58M255.04 216.67q-1.39 2.75-.14 5.51.12.25-.12.39l-.23.13q-.05.03-.09-.02-2.25-3.09.08-6.3.08-.11.19-.05l.24.12q.15.07.07.22"/><ellipse fill="#f6d608" rx=".76" ry=".31" transform="rotate(123.6 66.073 176.371)"/><path fill="#ee0503" fill-opacity=".996" d="M274.35 224.55q-.31-.84-1.01-1.47-.72-.65.23-.47.14.03.28.02a.63.62 71 0 1 .55.27l2.47 3.75q.49.74-.32.38-1.53-.69-2.2-2.48"/><ellipse fill="#ee0503" fill-opacity=".996" rx=".64" ry=".36" transform="rotate(-24.9 643.004 -513.66)"/><path fill="#f6d608" d="M232.51 231.86q.06.15.18.27.25.24-.1.25-1.55.02-1.28-1.53.45-2.64-.11-4.75-.07-.25.19-.31l.51-.11q.47-.1.46.38-.08 2.71.02 5.28.01.28.13.52"/><path fill="#ee0503" fill-opacity=".996" d="M273.63 226.15q.29-.08.29.21.01.46-.38.74-.38.28-.44-.19-.07-.58.53-.76"/><rect width=".94" height="5.58" x="-.47" y="-2.79" fill="#ee0503" fill-opacity=".996" rx=".26" transform="rotate(-33.3 516.298 -334.299)"/><path fill="#ee0503" fill-opacity=".996" d="M269.73 226.39q.37.02.2.34-.24.43-.7.58a.28.28 0 0 1-.34-.38q.25-.56.84-.54M243.77 234.83q.11.07.17.19.15.24.04.51-.18.47-.68.57-.53.1-.76-.39c-1-2.17-1.97-5.07.13-6.82a1.46 1.45-36.4 0 1 2.15.32q1.8 2.74-.06 5.67-.06.1-.15.04l-.24-.13q-.21-.11-.12-.32 1.12-2.75-.07-5.23a.33.32 66.9 0 0-.4-.17l-.26.09q-.38.14-.26.53.62 2.02.14 4.26-.13.57.37.88m-1.16-3.36q-.14-.3-.2.03-.15.91.17 1.72.28.72.34-.05.07-.93-.31-1.7M267.6 229.9q-.4.63-1.09.78-.51.12-.2-.3.42-.56 1.04-.79.57-.2.25.31M231.26 233.38q.66.43 1.13 1.12.24.36-.19.41l-.61.06a.19.18-19.1 0 1-.17-.08l-2.5-3.82q-.73-1.11.45-.5 1.55.81 1.61 2.31.01.33.28.5"/><rect width=".94" height="6.44" x="-.47" y="-3.22" fill="#f6d608" rx=".27" transform="rotate(-1.3 10552.493 -11258.876)"/><path fill="#f6d608" d="M268.66 233.71q-.71.03-.77.41c-.27 1.74-.66 3.67.48 5.18q.12.16-.05.28l-.23.15q-.14.09-.24-.04-2.15-2.82-.5-5.77.22-.39.66-.51 2.01-.53 2.61 1.3.92 2.79-.97 4.97-.08.08-.17.03l-.23-.14q-.22-.12-.07-.33 1.24-1.72.58-4.69a1.08 1.07-7.3 0 0-1.1-.84"/><path fill="#ee0503" fill-opacity=".996" d="M228.38 234.58q.52-.7 1.3-1.12a.2.19-89 0 1 .26.27q-.53.92-1.43 1.07-.33.05-.13-.22"/><path fill="#f6d608" d="M239.46 235.5a1.02 1.01-70.1 0 0-1.57.74q-.24 2.42.22 5.04.13.71-.58.57-.15-.03-.3 0-.68.14-.55-.53.51-2.8.03-5.51-.12-.63.52-.61l3.41.12a.3.3 0 0 1 .28.37l-.08.33q-.09.34-.37.14zM231.9 237.51q.12-.72.86-1 .72-.28.27.35-.38.53-.86.95-.53.46-.08.99l1.33 1.6q.21.26-.05.47l-.3.25q-.24.2-.41-.06l-2.81-4.23q-.44-.66.32-.44.69.21.88.89.07.27.32.42.15.09.33.04.17-.05.2-.23"/><path fill="#ee0503" fill-opacity=".996" d="M218.23 243.49q.88-2.77.03-5.77-.12-.41.3-.46.27-.03.54.05.41.12.39.55-.12 2.12-.1 4.45 0 .48.33.8.37.36-.14.48-.58.14-1.23.08a.14.14 0 0 1-.12-.18"/><path fill="#f6d608" d="M239.11 238.19q.23-.06.37-.25.46-.62.5.14.01.21.08.43.26.82-.54.49-.23-.09-.47-.2-.85-.39.06-.61M230.52 239.61a.21.21 0 0 1 .3.19q-.03.78-.81.99-.59.15-.3-.38.3-.53.81-.8"/><path fill="#ee0503" fill-opacity=".996" d="M274.71 244.85a.39.39 0 0 1-.54.1l-.23-.15q-.19-.13-.07-.32l2.75-4.11a.37.36-53 0 1 .54-.08l.22.17a.25.25 0 0 1 .05.33zM275.26 240.55q.56.11.05.37t-1.1.25a.26.26 0 0 1-.09-.5q.57-.23 1.14-.12M281.02 248.51a.01.01 0 0 1-.01.01l-.37.01a.62.23-1.4 0 1-.62-.22l-.16-6.2a.62.23-1.4 0 1 .62-.24l.37-.01a.01.01 0 0 1 .01.01zM277.5 243.89a.2.18 73.8 0 1 .2.12q.08.22-.1.36-.33.28-.78.3a.29.29 0 0 1-.24-.46q.19-.25.92-.32M265.108 251.44a3.42 2.13 89.7 0 1-2.148-3.409 3.42 2.13 89.7 0 1 2.112-3.431 3.42 2.13 89.7 0 1 2.148 3.409 3.42 2.13 89.7 0 1-2.112 3.431m-.039-.33a3.11 1.2 90.2 0 0 1.211-3.106 3.11 1.2 90.2 0 0-1.19-3.114 3.11 1.2 90.2 0 0-1.21 3.106 3.11 1.2 90.2 0 0 1.19 3.114"/><path fill="#f6d608" d="M215.77 253.61a3.36 2.14 90 0 1-2.14-3.36 3.36 2.14 90 0 1 2.14-3.36 3.36 2.14 90 0 1 2.14 3.36 3.36 2.14 90 0 1-2.14 3.36m.012-.27a3.1 1.2 89.6 0 0 1.178-3.108 3.1 1.2 89.6 0 0-1.222-3.092 3.1 1.2 89.6 0 0-1.178 3.108 3.1 1.2 89.6 0 0 1.222 3.092M274.81 255.05q.67-2.72-.1-5.69-.1-.39.27-.56l.35-.17q.49-.23.49.31l.06 5.98q.01.24-.22.29l-.59.11q-.35.08-.26-.27"/><path fill="#ee0503" fill-opacity=".996" d="M213.63 261.32q.17-2.43-.36-4.83-.04-.18.13-.25l.74-.29q.23-.09.24.16l.06 6.09q.01.36-.35.4-.41.05-.79-.1a.2.2 0 0 1-.06-.33c.2-.18.37-.59.39-.85"/><path fill="#f6d608" d="M209.053 266.11a3.34 2.15 89.6 0 1-2.173-3.325 3.34 2.15 89.6 0 1 2.127-3.355 3.34 2.15 89.6 0 1 2.173 3.325 3.34 2.15 89.6 0 1-2.127 3.355m-.027-.29a3.01 1.2 89.7 0 0 1.184-3.016 3.01 1.2 89.7 0 0-1.216-3.004 3.01 1.2 89.7 0 0-1.184 3.016 3.01 1.2 89.7 0 0 1.216 3.004"/><path fill="#ee0503" fill-opacity=".996" d="M255.76 272.3q.43-2.7-.07-5.76a.31.31 0 0 1 .33-.36l.48.03q.28.02.25.29-.27 3.08.32 5.86.09.41-.33.44l-.48.04q-.59.05-.5-.54"/><path fill="#f6d608" d="m225.31 273.99-.51 1.78-.85-.13q-.5-.08-.37-.57.67-2.5-.07-5.48-.1-.4.32-.45 1.7-.18 3.08.37a1.59 1.58 32.7 0 1 .56 2.56q-.63.66-1.48.55-.74-.09-.05-.37.79-.33.91-1.12.05-.39-.17-.71-.46-.67-1.2-.93-.45-.16-.56.31-.59 2.68.39 4.19"/><path fill="#ee0503" fill-opacity=".996" d="M279 275.32a.01.01 0 0 1-.01.01l-.25.01a.66.42-1.2 0 1-.67-.41l-.1-4.92a.66.42-1.2 0 1 .65-.43l.25-.01a.01.01 0 0 1 .01.01z"/><path fill="#f6d608" d="M209.39 277.97q-.1-.09-.23-.13-.23-.06-.21-.3.3-3.07-.2-6.04-.06-.37.31-.32l.5.08q.21.03.21.24-.02 2.86.67 5.72.45 1.86-.58 3.59-.4.68-.44-.11-.04-.75.24-1.56a1.14 1.11-58.8 0 0-.27-1.17"/><rect width=".9" height="5.88" x="-.45" y="-2.94" fill="#ee0503" fill-opacity=".996" rx=".26" transform="rotate(-33.8 568.035 -239.95)"/><path fill="#ee0503" fill-opacity=".996" d="M229.92 273.93q.18-.38.57-.56.92-.43.46.48-.23.44-.72.51-.57.08-.31-.43M224.8 275.77l.51-1.78.79 6.21a.37.37 0 0 1-.5.39q-.16-.06-.31.02-.71.35-.55-.45.41-2.13.06-4.39M206.4 280.65q.1 1.56.11 3.35 0 .19-.18.24l-.37.11q-.32.1-.32-.24l.03-4.36q0-.53-.41-.84-.12-.09-.15-.23-.09-.36.28-.39.34-.02.6-.24.3-.26.36-.64.22-1.52 1.26-2.43.64-.56.31.22-1.05 2.5-.28 5.2.21.74-.49.41-.2-.1-.31-.29-.52-.95-.44.13"/><path fill="#f6d608" d="m216.02 281.31.27.16q.53.33-.09.27-1.17-.12-1.57-1.33-.94-2.83.69-4.84.12-.15.31-.18.39-.08.22.28-1.05 2.26-.37 4.9.12.48.54.74M218.54 281.78c1.01 1.11 1.34 2.61 2.56 3.48q.36.25.01.53l-.37.29q-.21.17-.35-.06l-2.76-4.17q-.29-.45-.24-.98c.13-1.4.55-4.29-.7-5.26a.06.06 0 0 1-.01-.09l.17-.19q.18-.19.37-.02c1.61 1.49 1.45 3.31 1 5.28q-.16.68.32 1.19"/><path fill="#ee0503" fill-opacity=".996" d="M228.39 276.56q.45-.22.29.25-.21.67-.88.9-.71.24-.29-.38.33-.5.88-.77"/><path fill="#f6d608" d="M208.25 282.59q1.23 1.43 2.38 3.32.19.3-.16.38l-.5.11q-.16.04-.24-.09l-2.37-3.67q-.37-.57.3-.72.26-.05.5-.21.95-.62.35.34-.03.05-.08.06-.52.08-.18.48"/><ellipse fill="#ee0503" fill-opacity=".996" rx=".63" ry=".35" transform="rotate(-31.9 603.47 -244.568)"/><path fill="#ee0503" fill-opacity=".996" d="M252.093 287.82a3.24 2.16 89.6 0 1-2.183-3.225 3.24 2.16 89.6 0 1 2.137-3.255 3.24 2.16 89.6 0 1 2.183 3.225 3.24 2.16 89.6 0 1-2.137 3.255m-.028-.39a2.87 1.21 90.1 0 0 1.215-2.868 2.87 1.21 90.1 0 0-1.205-2.872 2.87 1.21 90.1 0 0-1.215 2.868 2.87 1.21 90.1 0 0 1.205 2.872"/><ellipse fill="#ee0503" fill-opacity=".996" rx="1.62" ry=".25" transform="rotate(92.3 -35.405 238.588)"/><path fill="#f6d608" d="M210.01 281.78a.14.14 0 0 1 .21.11q.01.55-.5.88a.22.22 0 0 1-.32-.27q.19-.43.61-.72"/><circle cx="267.34" cy="282.57" r=".58" fill="#f6d608"/><path fill="#ee0503" fill-opacity=".996" d="M217.3 285.48q.51-.7 1.22-.89.53-.14.22.31-.43.65-1.18.92a.22.22 0 0 1-.26-.34"/><path fill="#f6d608" d="M206.86 286.28q.09-.58.37-1.07.29-.52.37.07.11.8-.45 1.18-.35.23-.29-.18"/><path fill="#ee0503" fill-opacity=".996" d="M207.68 295.16a3.36 2.14 90 0 1-2.14-3.36 3.36 2.14 90 0 1 2.14-3.36 3.36 2.14 90 0 1 2.14 3.36 3.36 2.14 90 0 1-2.14 3.36m-.026-.28a3.08 1.18 90.3 0 0 1.196-3.074 3.08 1.18 90.3 0 0-1.164-3.086 3.08 1.18 90.3 0 0-1.196 3.074 3.08 1.18 90.3 0 0 1.164 3.086M231.02 292.44q-1.47 3.11-.13 5.9.14.29-.17.24-.16-.02-.31-.08-.13-.05-.2-.17-1.84-2.81.15-5.82.11-.16.31-.14l.33.04q.03.01.02.03M232 298.32q1.35-2.87-.09-5.63-.12-.22.09-.35l.22-.14q.05-.03.09.02 2.51 2.97.18 6.45-.06.09-.15.04l-.24-.1q-.19-.09-.1-.29M241.46 296.37c-2.16.73-2.1 2.62-1.62 4.67q.41 1.76-.78.41-.81-.92-.66-2.06.57-4.28 5.27-3.12.57.14.6.74.04.79-.49.2c-.63-.71-1.38-1.15-2.32-.84M211.05 301.23q-.43 1.18.45 1.94.55.48-.18.51-1.75.04-1.63 1.72.02.24-.22.26l-.46.05q-.38.04-.18-.29 2.06-3.48 1.05-7.72-.19-.79.59-.54.18.05.32.22.23.26.17.61-.2 1.19.81 1.58.47.19.68.65l2.14 4.9q.23.53-.34.5l-.47-.03q-.5-.03-.59-.53-.35-2.15-1.44-3.91a.39.39 0 0 0-.7.08"/><ellipse fill="#ee0503" fill-opacity=".996" rx=".79" ry=".39" transform="rotate(-3.8 4636.775 -3523.799)"/></svg>