<svg xmlns="http://www.w3.org/2000/svg" viewBox="0 0 382 382"><g fill="none" stroke-width="2"><path stroke="#56443b" d="M85.49 140.17q1.12 1.27 3.81.58.76-.2 1.18.47l1.39 2.24a.44.44 0 0 1-.41.67l-.39-.04q-.54-.04-.79-.52-.33-.64-.79-1.07-.67-.63-.56.29l.21 1.66q.09.68-.59.57l-.81-.14a.8.8 0 0 1-.66-.74q-.04-.7.37-1.3a.53.52 30.5 0 0-.2-.75q-.21-.1-.43-.04-.4.13-.51.52-.45 1.65-2.02 1.35" vector-effect="non-scaling-stroke"/><path stroke="#56443b" d="M84.29 143.92q.35-.57.41-1.11.04-.42-.36-1.03-.49-.74-.8-1.55M92.61 141.14q-.74.2-.55.9.53 1.89 1.17.03.02-.06-.26-.77" vector-effect="non-scaling-stroke"/><path stroke="#4a2c31" d="M93.89 141.3q-1.05 1.62-.88 3.17.02.25.24.36.15.08.34-.04.33-.2.38-.58.2-1.36 1.68-1.16a.45.44 29.7 0 1 .22.79l-1.54 1.2q-.56.43-.41 1.11l.53 2.35q.12.53.39.06.35-.62 1.09-.58.13 0 .17.12l.12.33q.23.64-.43.51-1.08-.2-.89.8.13.66-.43 1.04l-.75.53" vector-effect="non-scaling-stroke"/><path stroke="#56443b" d="M92.79 150.43q1.04-.69.45-1.53-.28-.4-.3-.9l-.09-2.51q-.03-.81-.61-.24l-.4.39a.6.58 67 0 0-.17.44l.23 3.59a.31.31 0 0 1-.32.33l-.39-.02q-.4-.02-.34-.41.29-1.74-.61-3.09-.18-.26.07-.45l.25-.2q.52-.42-.07-.71-.16-.08-.35-.08-.65-.02-1.04.51-.45.63-1.25.6-.64-.03-.61.61.05.85.96 1.06 1.12.24.3 1.03-.1.09-.19.19-.42.48.15.76l1.06.53q.56.29.54.92-.02.47-.38.81-.74.68.26.81.33.05.66-.13a.81.8 80.1 0 0 .4-.58l.18-1.03q.09-.55.64-.45l.69.12" vector-effect="non-scaling-stroke"/><path stroke="#56443b" d="M91.06 154.4q-1.85.11-2.64-1.83-.14-.35.23-.42.14-.03.2-.15.23-.51-.26-.77-.8-.42-1.58-.78-2.68-1.23-.87 1.1.99 1.29 1.8 3.35.04.12.04.24 0 .16-.2.21-.44.12-.78-.2t-.78-.1q-.68.33-.01.68 1.61.85 1.98 2.54.11.54.66.4.23-.06.34-.27a.54.53-67.3 0 1 .64-.27q.22.07.31.33M89.98 159.09q-1.14-.03-1.47 1.61" vector-effect="non-scaling-stroke"/><path stroke="#4a2c31" d="M84.8 153.73q.16.16.31.24.17.09.33.02.3-.14.26-.46a.41.41 0 0 0-.54-.34q-.28.1-.36.54" vector-effect="non-scaling-stroke"/><path stroke="#56443b" d="M84.89 146.89q.86.35.94-.8.03-.44-.2-.71-.3-.35-.78-.32" vector-effect="non-scaling-stroke"/><path stroke="#4a2c31" d="M111.06 147.17q1.77 4.3 4.08 1.32" vector-effect="non-scaling-stroke"/><path stroke="#9e6d69" d="M118.24 148.77q-.68 1.56.29 1.68" vector-effect="non-scaling-stroke"/><path stroke="#4a2c31" d="M118.53 150.45q.47.97.19 1.94-.17.56-.63.2l-.21-.15a.48.47 44 0 0-.61.01q-.15.13-.18.33-.04.36.25.6.62.53 1.37.42.48-.08.64-.53.48-1.3 1.77-1.02.53.11.68.63.45 1.46 2 1.32.47-.04.15-.39-.36-.4-.54-.91-.22-.58.35-.85 1.4-.65 2.93-1.38.2-.1.15-.32-.03-.18-.21-.22a.3.3 0 0 0-.25.06l-.34.27q-.42.32-.86.04-.82-.5-1-1.36M138.86 146.98q.1.71.61 1.31" vector-effect="non-scaling-stroke"/><path stroke="#9e6d69" d="M139.47 148.29q-4.49.05-3.87 1.58" vector-effect="non-scaling-stroke"/><path stroke="#4a2c31" d="M135.6 149.87q-1.13.5-1.37 1.45-.14.53.39.65 1.4.31 2.71-.47" vector-effect="non-scaling-stroke"/><path stroke="#9e6d69" d="M137.33 151.5q-.05.8.31 1.47" vector-effect="non-scaling-stroke"/><path stroke="#4a2c31" d="M137.64 152.97q-.93-.21.01 1.27.47.74-.4.79l-.89.05q-.49.02-.43.51.02.16.18.18.4.06.58.42.95 1.94-.35 3.29-1.18 1.23-1.28-.47-.02-.3-.97-.25" vector-effect="non-scaling-stroke"/><path stroke="#4a2c31" d="M133.91 157.75q-.15-.69.07-1.22.18-.42.63-.49.31-.05.48-.18.5-.39-.08-.64-.94-.4-1.96-.46M129.26 157.79q.49-.36.7-.84.21-.5-.28-.75-.86-.45-1.91-.25M126.31 154.05q-.53.03-.55.39M123.99 157.16q-1.22.96-2.29.35-.57-.33-.69.33-.3 1.66-2.37 2.41-.48.18-.6-.32-.23-1 .14-1.97.2-.53.69-.24.16.09.3.2.59.45.76-.28.25-1.04-.49-1.56-.96-.68-3.38-1.39M115.81 152.38q.32-1.05.86-1.68a.48.48 0 0 0-.44-.79l-.44.07q-.62.1-.71.73-.1.78-.52 1.46-.33.57.02 1.12.12.19.03.39-.29.57-.91.43-1.66-.39-2.51 1.23a.39.39 0 0 0 .22.55l.33.11q.32.11.42-.21.38-1.11 1.56-1a.48.47-84.5 0 1 .42.52l-.02.26q-.04.58-.63.51-1.13-.14-2 .75-.39.39-.4.94-.03 1.29-.53 2.36M107.81 151.44l-.05-.94a.34.33-23 0 0-.56-.22q-.37.33-.1 1.15M103.48 161.73q-.64-.18-1.22.33-.35.31-.04.66.33.4.81.3M102.89 164.02q-.25 0-.43.07-.5.2-.17.62.23.3.62.54M102.81 166.87q-1.82.43-2.43-1.17-.2-.54.3-.82.57-.32.47-.94-.11-.68-.78-.83-.66-.15-1.26.07-.7.26-.06.63.43.25.73.69.27.39-.19.49-.24.06-.66-.01M97.09 157.71q1.69-.79 2.67-2.38" vector-effect="non-scaling-stroke"/><path stroke="#9e6d69" d="M99.76 155.33q1.16-1.09.92-2.1-.09-.37-.38-.47-.34-.11-.68.28" vector-effect="non-scaling-stroke"/><path stroke="#4a2c31" d="m99.62 153.04-.61-.75q-.29-.35-.74-.48-1.1-.32-.87-1.6M98.06 148.26q.34-.19.48-.47.6-1.27-.38-.48-.22.17-.32.72M97.23 148.63l-.51.26q-.44.22-.39.72.03.24.15.49M96.01 151.14l-2.28.92" vector-effect="non-scaling-stroke"/><path stroke="#56443b" d="M90.44 155.72q-.68.17-1 .53-.4.47.12.79l.76.46M82.95 140.29q-.51 1.15-.08 2.86M121.68 164.26l-1.32-1.09q-.42-.35-.81.04l-1.38 1.37" vector-effect="non-scaling-stroke"/><path stroke="#2b4f4a" d="M137.6 164.56q.67-1.31-.84-2.09-.66-.34-.83.23" vector-effect="non-scaling-stroke"/><path stroke="#56443b" d="M99.62 153.04q.02.15.03.26.01.3-.29.29-1.77-.06-2.11-1.37" vector-effect="non-scaling-stroke"/><path stroke="#56443b" d="M99.76 155.33q-1.22-1.77-2.68-.28M97.09 153.46l.04-.67M122.92 149.08q.16.85-.05 1.35t-.79.53q-1.95.13-2.94-.98-.34-.37-.55.08-.08.18-.06.39M141.49 153.8q-1.82-.24-1.68.95.24 1.98.57 3.95M139.85 160.16q-.15-.01-.4-.17-.18-.11-.25-.3-.94-2.27-.15-4.19.21-.52-.14-.95l-1.27-1.58M137.33 151.5q.77.39 1.3.39.62-.01.35-.57-.72-1.47-3.38-1.45M139.47 148.29q.29.49.89.7.56.2.59-.4.03-.73-.87-1.47M114.22 157.04q-.63-.24-1.13-.19t-.54.56l-.4 4.83M120.95 165.95q-.82.03-1.59.37" vector-effect="non-scaling-stroke"/><path stroke="#2b4f4a" d="M146.25 148.75q-.33.25-.38.52" vector-effect="non-scaling-stroke"/><path stroke="#56443b" d="M143.24 149.26q-1.61-.33-1.32-2.4.02-.14-.11-.21-.13-.06-.29-.02" vector-effect="non-scaling-stroke"/><path stroke="#4a2c31" d="m161.05 151.36-2.27 2.59M157.87 155.24q-.46-.17-.63.29-.18.5.25.66M154.01 162.87q-.09-.6-.52-.85-.4-.24-1.01.04M151.42 157.98q-.26-1.36.32-2.39.24-.43-.25-.46-.19-.02-.45.09" vector-effect="non-scaling-stroke"/><path stroke="#9e6d69" d="M144.04 155.66q1.66-.05 2.2 1.43.12.33.45.25.19-.05.31-.21.28-.4-.08-.72-.85-.74-1.25-1.83a.6.6 0 0 0-.65-.38q-.58.07-.88 1.54" vector-effect="non-scaling-stroke"/><path stroke="#4a2c31" d="M143.94 155.23q.24-1.76-1.08-2.56" vector-effect="non-scaling-stroke"/><path stroke="#9e6d69" d="M142.48 152.48q1.29-.18 1.73-1.14.27-.59-.08-1.16-.31-.5-.89-.92" vector-effect="non-scaling-stroke"/><path stroke="#4a2c31" d="M143.24 149.26q.55-.14.81-.55.21-.35.5-.06.55.56 1.32.62" vector-effect="non-scaling-stroke"/><path stroke="#737978" d="M145.87 149.27q.01.96.83.61.24-.1.32-.34.05-.12.04-.25-.03-.3-.29-.43-.22-.11-.52-.11" vector-effect="non-scaling-stroke"/><path stroke="#4a2c31" d="M146.25 148.75q-.53-1.09-1.65-1.67-.65-.34-.54.4.02.11-.12.24-.37.36-.67-.06-.36-.51-.54-1.18M162.48 151.88q-.5.76-1.77 1.05-.55.13-.74.72-.12.36.24.45l.51.13q.2.05.09.23-.09.13-.23.19-.39.17-.61-.18-.08-.12-.09-.26-.01-.27-.28-.24-.23.02-.58.3M172 155.71q-.05.59.15.85a.48.47 50.1 0 0 .7.07q.36-.33.89-.45" vector-effect="non-scaling-stroke"/><path stroke="#9e6d69" d="M180.04 158.16q.15 1.65.89 1.79" vector-effect="non-scaling-stroke"/><path stroke="#4a2c31" d="M180.93 159.95q-.83-.11-1.53.86-.29.42-.06.87l.78 1.53M179.86 165.73q-.1.37-.53.41-.42.04-.78.25-.29.18-.2.51.2.76-.59.69l-1.27-.1M174.57 162.05q.67-.57 1.1-1.29.3-.48-.24-.67-.66-.24-1.3.67M173.77 159.73q-.26-1.14-1.05-1.55-.5-.26-.63.29-.2.86.24 1.77M170.61 166.28l-1.4.76M166.17 160.43l-.07-.88M165.59 157.12q-.86-.31-1.31.15-.63.64.6 1.49M164.64 159.9q-2.51-1.11-4.23-.97" vector-effect="non-scaling-stroke"/><path stroke="#56443b" d="M182.23 158.75q-.52 1.94-1.3 1.2" vector-effect="non-scaling-stroke"/><path stroke="#4a2c31" d="m179.82 170.12-1.79.05" vector-effect="non-scaling-stroke"/><path stroke="#56443b" d="M161.99 161.87q.95-.28 1.16-1.12.14-.54-.38-.72-.9-.32-1.6.66M183.47 158.87q-.85 2.17-2.6 4.08M185.94 159.15q-2.95 1.98-4.71 4.59M187.53 159.11q-1.31 1.62-2.92 2.08a.44.44 0 0 0-.13.78l2.15 1.54" vector-effect="non-scaling-stroke"/><path stroke="#4a2c31" d="M186.37 164.16q-1.04-.2-1.53-.84a.37.28 79.1 0 0-.09-.08q-.28-.2-.51.05-.12.12-.03.28.76 1.39 1.91 1.26" vector-effect="non-scaling-stroke"/><path stroke="#56443b" d="M185.69 168.11q-1.64-2.03-2.74-.67" vector-effect="non-scaling-stroke"/><path stroke="#2b4f4a" d="m200.88 159.15 1.88.93q.42.21.39.68-.11 1.26.76 1.29" vector-effect="non-scaling-stroke"/><path stroke="#56443b" d="m203 164.24-1.15.48q-.59.25-.94-.28-.54-.79-.29-1.77.13-.52-.39-.64-.7-.17-1.35.04-.49.16-.34.66l1.05 3.67q.13.43-.14.79-.42.55.18.97.44.3.11.72-.39.49-.57 1.08-.17.55.33.84l.7.41" vector-effect="non-scaling-stroke"/><path stroke="#2b4f4a" d="M195.23 165.76q-.11-.47-.29-.55-.56-.22-.74.35-.57 1.85.55 1.86" vector-effect="non-scaling-stroke"/><path stroke="#56443b" d="M193.1 174.06q-.84.24-1.26.67M187.11 162.71q.08-.78.98-.04.47.38.86-.08.12-.14.29-.2.51-.2.79.27.49.84 1.44 1.33a.44.43-54.7 0 1 .11.68l-.27.29q-.66.7.14 1.25l.66.44q.94.64.86-.5l-.08-1.37q-.06-.98.89-.87.54.07 1.01-.2 1.88-1.08 2.26-3.45.1-.64-.55-.61-1.01.05-1.92.35-1.17.38-.16 1.07.6.41.58 1.13-.01.57-.51.79-.41.18-.88.19-.85.02-.54-.77.08-.22.23-.39.38-.43.16-.95l-.77-1.8" vector-effect="non-scaling-stroke"/><path stroke="#4a2c31" d="M198.23 159.61q-.32.3-.27.63.08.56.61.36.64-.23.67-.86.01-.19-.18-.26-.15-.06-.26-.08" vector-effect="non-scaling-stroke"/><path stroke="#9e6d69" d="M201.9 166.76q-.73.03-.98.96-.08.29.04.43.15.2.52.07" vector-effect="non-scaling-stroke"/><path stroke="#2b4f4a" d="M203.01 159.08q.1.92 1.3 1.81" vector-effect="non-scaling-stroke"/><path stroke="#4a2c31" d="M87.09 148.46a.41.41 0 0 0-.41-.41.41.41 0 0 0-.41.41.41.41 0 0 0 .41.41.41.41 0 0 0 .41-.41M133.893 149.613a.95.51 13.6 0 0-.803-.719.95.51 13.6 0 0-1.043.273.95.51 13.6 0 0 .803.719.95.51 13.6 0 0 1.043-.273M113.08 151.38a.51.51 0 0 0-.51-.51.51.51 0 0 0-.51.51.51.51 0 0 0 .51.51.51.51 0 0 0 .51-.51M102.705 160.04a.43.37 56.9 0 0 .075-.562.43.37 56.9 0 0-.545-.158.43.37 56.9 0 0-.075.562.43.37 56.9 0 0 .545.158M153.75 157.75l-.28.25q-.27.24-.27.6-.01 1.07.97 1.52.58.26.85-.33.14-.31-.06-.59-.17-.23-.24-.51-.13-.5.21-.89 1.16-1.35 1.08-2.97-.02-.43.33-.69l1.74-1.29q.35-.26.08-.61l-.19-.23q-.11-.14-.25-.04-2.23 1.59-2.88 4.24-.08.33-.38.49-.44.24-.59-.27-.17-.56-.58-.15-.2.21-.18.53.01.15.1.28.11.16.32.17.73.04.22.49" vector-effect="non-scaling-stroke"/><path stroke="#56443b" d="M143 150.55a.52.52 0 0 0-.52-.52.52.52 0 0 0-.52.52.52.52 0 0 0 .52.52.52.52 0 0 0 .52-.52" vector-effect="non-scaling-stroke"/><path stroke="#4a2c31" d="m162.84 154.32-.24-.26q-.61-.66-.62.24l-.02 1.14a.57.56 88.6 0 0 .6.58q1.78-.11 2.31-1.53.44-1.19-.58-.43l-.47.35q-.53.39-.98-.09M162.336 158.225a.71.52 96.8 0 0 .6-.643.71.52 96.8 0 0-.432-.767.71.52 96.8 0 0-.6.643.71.52 96.8 0 0 .432.767" vector-effect="non-scaling-stroke"/><path stroke="#2b4f4a" d="M138.742 161.81a1.5.75 32.7 0 0-.857-1.441 1.5.75 32.7 0 0-1.667-.18 1.5.75 32.7 0 0 .857 1.442 1.5.75 32.7 0 0 1.667.18" vector-effect="non-scaling-stroke"/><path stroke="#56443b" d="M118.51 162.92a1 .46 90 0 0 .46-1 1 .46 90 0 0-.46-1 1 .46 90 0 0-.46 1 1 .46 90 0 0 .46 1" vector-effect="non-scaling-stroke"/><path stroke="#4a2c31" d="M120.63 161.58q-.06.05-.08.13-.03.15.09.06.07-.05.08-.13.04-.17-.09-.06M180.85 161.48a.39.39 0 0 0-.39-.39.39.39 0 0 0-.39.39.39.39 0 0 0 .39.39.39.39 0 0 0 .39-.39" vector-effect="non-scaling-stroke"/><path stroke="#56443b" d="M183.71 165.3q-.32-.44-.53.19-.17.52.35.38.49-.14.18-.57" vector-effect="non-scaling-stroke"/><path stroke="#2b4f4a" d="M190.76 169.92q-.34.61.15 1.18a.52.52 0 0 0 .91-.26q.42-2.4-1.04-3.71-1.03-.92-.48.34.32.75.55 1.5a1.22 1.18 51.2 0 1-.09.95" vector-effect="non-scaling-stroke"/><path stroke="#56443b" d="M192.07 162.57a.51.51 0 0 0-.51-.51.51.51 0 0 0-.51.51.51.51 0 0 0 .51.51.51.51 0 0 0 .51-.51" vector-effect="non-scaling-stroke"/></g><path fill="#aa8573" d="M85.49 140.17q1.12 1.27 3.81.58.76-.2 1.18.47l1.39 2.24a.44.44 0 0 1-.41.67l-.39-.04q-.54-.04-.79-.52-.33-.64-.79-1.07-.67-.63-.56.29l.21 1.66q.09.68-.59.57l-.81-.14a.8.8 0 0 1-.66-.74q-.04-.7.37-1.3a.53.52 30.5 0 0-.2-.75q-.21-.1-.43-.04-.4.13-.51.52-.45 1.65-2.02 1.35.35-.57.41-1.11.04-.42-.36-1.03-.49-.74-.8-1.55 1.08-.25 1.95-.06"/><path fill="#020202" d="M92.61 141.14q-.74.2-.55.9.53 1.89 1.17.03.02-.06-.26-.77.28-.18.92 0-1.05 1.62-.88 3.17.02.25.24.36.15.08.34-.04.33-.2.38-.58.2-1.36 1.68-1.16a.45.44 29.7 0 1 .22.79l-1.54 1.2q-.56.43-.41 1.11l.53 2.35q.12.53.39.06.35-.62 1.09-.58.13 0 .17.12l.12.33q.23.64-.43.51-1.08-.2-.89.8.13.66-.43 1.04l-.75.53q-.37-.65-.93-.88 1.04-.69.45-1.53-.28-.4-.3-.9l-.09-2.51q-.03-.81-.61-.24l-.4.39a.6.58 67 0 0-.17.44l.23 3.59a.31.31 0 0 1-.32.33l-.39-.02q-.4-.02-.34-.41.29-1.74-.61-3.09-.18-.26.07-.45l.25-.2q.52-.42-.07-.71-.16-.08-.35-.08-.65-.02-1.04.51-.45.63-1.25.6-.64-.03-.61.61.05.85.96 1.06 1.12.24.3 1.03-.1.09-.19.19-.42.48.15.76l1.06.53q.56.29.54.92-.02.47-.38.81-.74.68.26.81.33.05.66-.13a.81.8 80.1 0 0 .4-.58l.18-1.03q.09-.55.64-.45l.69.12-1.45 3.6q-1.85.11-2.64-1.83-.14-.35.23-.42.14-.03.2-.15.23-.51-.26-.77-.8-.42-1.58-.78-2.68-1.23-.87 1.1.99 1.29 1.8 3.35.04.12.04.24 0 .16-.2.21-.44.12-.78-.2t-.78-.1q-.68.33-.01.68 1.61.85 1.98 2.54.11.54.66.4.23-.06.34-.27a.54.53-67.3 0 1 .64-.27q.22.07.31.33l-.16.63q-1.14-.03-1.47 1.61-3-2.67-3.71-6.97.16.16.31.24.17.09.33.02.3-.14.26-.46a.41.41 0 0 0-.54-.34q-.28.1-.36.54-.61-.51-.52-1.23.34-2.93.61-5.61.86.35.94-.8.03-.44-.2-.71-.3-.35-.78-.32l-.56-1.14q1.57.3 2.02-1.35.11-.39.51-.52.22-.06.43.04a.53.52 30.5 0 1 .2.75q-.41.6-.37 1.3a.8.8 0 0 0 .66.74l.81.14q.68.11.59-.57l-.21-1.66q-.11-.92.56-.29.46.43.79 1.07.25.48.79.52l.39.04a.44.44 0 0 0 .41-.67l-1.39-2.24q-.42-.67-1.18-.47-2.69.69-3.81-.58 3.67-.34 7.12.97m-5.52 7.32a.41.41 0 0 0-.41-.41.41.41 0 0 0-.41.41.41.41 0 0 0 .41.41.41.41 0 0 0 .41-.41"/><path fill="#aa8573" d="M82.95 140.29q-.51 1.15-.08 2.86-.94-.12-1.54-.56-.43-.31-.22-.79.5-1.14 1.84-1.51"/><path fill="#020202" d="M83.54 140.23q.31.81.8 1.55.4.61.36 1.03-.06.54-.41 1.11l-1.42-.77q-.43-1.71.08-2.86z"/><path fill="#aa8573" d="M92.97 141.3q.28.71.26.77-.64 1.86-1.17-.03-.19-.7.55-.9.24-.05.36.16"/><path fill="#91555f" d="M111.06 147.17q1.77 4.3 4.08 1.32l3.1.28q-.68 1.56.29 1.68.47.97.19 1.94-.17.56-.63.2l-.21-.15a.48.47 44 0 0-.61.01q-.15.13-.18.33-.04.36.25.6.62.53 1.37.42.48-.08.64-.53.48-1.3 1.77-1.02.53.11.68.63.45 1.46 2 1.32.47-.04.15-.39-.36-.4-.54-.91-.22-.58.35-.85 1.4-.65 2.93-1.38.2-.1.15-.32-.03-.18-.21-.22a.3.3 0 0 0-.25.06l-.34.27q-.42.32-.86.04-.82-.5-1-1.36l14.68-2.16q.1.71.61 1.31-4.49.05-3.87 1.58-1.13.5-1.37 1.45-.14.53.39.65 1.4.31 2.71-.47-.05.8.31 1.47-.93-.21.01 1.27.47.74-.4.79l-.89.05q-.49.02-.43.51.02.16.18.18.4.06.58.42.95 1.94-.35 3.29-1.18 1.23-1.28-.47-.02-.3-.97-.25l-.18-1.01q-.15-.69.07-1.22.18-.42.63-.49.31-.05.48-.18.5-.39-.08-.64-.94-.4-1.96-.46-.1-.81-.48-1.33-.51-.7-.48.16.04 1.66-.29 3.72a1.83 1.61-84.9 0 1-1.63 1.55q-.42 0-.91-1.07.49-.36.7-.84.21-.5-.28-.75-.86-.45-1.91-.25l-1.46-1.9q-.53.03-.55.39l-1.77 2.72q-1.22.96-2.29.35-.57-.33-.69.33-.3 1.66-2.37 2.41-.48.18-.6-.32-.23-1 .14-1.97.2-.53.69-.24.16.09.3.2.59.45.76-.28.25-1.04-.49-1.56-.96-.68-3.38-1.39l-.25-2.31q.32-1.05.86-1.68a.48.48 0 0 0-.44-.79l-.44.07q-.62.1-.71.73-.1.78-.52 1.46-.33.57.02 1.12.12.19.03.39-.29.57-.91.43-1.66-.39-2.51 1.23a.39.39 0 0 0 .22.55l.33.11q.32.11.42-.21.38-1.11 1.56-1a.48.47-84.5 0 1 .42.52l-.02.26q-.04.58-.63.51-1.13-.14-2 .75-.39.39-.4.94-.03 1.29-.53 2.36-2.39-4-2.75-8.69l-.05-.94a.34.33-23 0 0-.56-.22q-.37.33-.1 1.15l-3.62 10.3q-.64-.18-1.22.33-.35.31-.04.66.33.4.81.3l-.14 1q-.25 0-.43.07-.5.2-.17.62.23.3.62.54l-.1 1.62q-1.82.43-2.43-1.17-.2-.54.3-.82.57-.32.47-.94-.11-.68-.78-.83-.66-.15-1.26.07-.7.26-.06.63.43.25.73.69.27.39-.19.49-.24.06-.66-.01-1.58-3.35-1.84-7.27 1.69-.79 2.67-2.38 1.16-1.09.92-2.1-.09-.37-.38-.47-.34-.11-.68.28l-.61-.75q-.29-.35-.74-.48-1.1-.32-.87-1.6.13-1.02.66-1.95.34-.19.48-.47.6-1.27-.38-.48-.22.17-.32.72l-.61.6-.51.26q-.44.22-.39.72.03.24.15.49-.15.69-.47 1.04l-2.28.92-.01-.75.75-.53q.56-.38.43-1.04-.19-1 .89-.8.66.13.43-.51l-.12-.33q-.04-.12-.17-.12-.74-.04-1.09.58-.27.47-.39-.06l-.53-2.35q-.15-.68.41-1.11l1.54-1.2a.45.44 29.7 0 0-.22-.79q-1.48-.2-1.68 1.16-.05.38-.38.58-.19.12-.34.04-.22-.11-.24-.36-.17-1.55.88-3.17zm22.833 2.443a.95.51 13.6 0 0-.803-.719.95.51 13.6 0 0-1.043.273.95.51 13.6 0 0 .803.719.95.51 13.6 0 0 1.043-.273m-20.813 1.767a.51.51 0 0 0-.51-.51.51.51 0 0 0-.51.51.51.51 0 0 0 .51.51.51.51 0 0 0 .51-.51m-10.375 8.66a.43.37 56.9 0 0 .075-.562.43.37 56.9 0 0-.545-.158.43.37 56.9 0 0-.075.562.43.37 56.9 0 0 .545.158"/><path fill="#aa8573" d="m84.89 146.89-.04-1.83q.48-.03.78.32.23.27.2.71-.08 1.15-.94.8M92.79 150.43q-.1.21-.28.37l-.69-.12q-.55-.1-.64.45l-.18 1.03a.81.8 80.1 0 1-.4.58q-.33.18-.66.13-1-.13-.26-.81.36-.34.38-.81.02-.63-.54-.92l-1.06-.53q-.57-.28-.15-.76.09-.1.19-.19.82-.79-.3-1.03-.91-.21-.96-1.06-.03-.64.61-.61.8.03 1.25-.6.39-.53 1.04-.51.19 0 .35.08.59.29.07.71l-.25.2q-.25.19-.07.45.9 1.35.61 3.09-.06.39.34.41l.39.02a.31.31 0 0 0 .32-.33l-.23-3.59a.6.58 67 0 1 .17-.44l.4-.39q.58-.57.61.24l.09 2.51q.02.5.3.9.59.84-.45 1.53"/><path fill="#91555f" d="m161.05 151.36-2.27 2.59-.91 1.29q-.46-.17-.63.29-.18.5.25.66-1.28 4.27-1.94 5.85-.48 1.14-1.54.83-.09-.6-.52-.85-.4-.24-1.01.04l-1.06-4.08q-.26-1.36.32-2.39.24-.43-.25-.46-.19-.02-.45.09l-1.2-2.18q-.7-1.29-.85.17-.21 2.02-1.36 4.88a.76.75 21.9 0 1-1 .42q-1.73-.72-2.59-2.85 1.66-.05 2.2 1.43.12.33.45.25.19-.05.31-.21.28-.4-.08-.72-.85-.74-1.25-1.83a.6.6 0 0 0-.65-.38q-.58.07-.88 1.54-.1-.26-.2-.51.24-1.76-1.08-2.56-.05.12-.38-.19 1.29-.18 1.73-1.14.27-.59-.08-1.16-.31-.5-.89-.92.55-.14.81-.55.21-.35.5-.06.55.56 1.32.62.01.96.83.61.24-.1.32-.34.05-.12.04-.25-.03-.3-.29-.43-.22-.11-.52-.11-.53-1.09-1.65-1.67-.65-.34-.54.4.02.11-.12.24-.37.36-.67-.06-.36-.51-.54-1.18 3.69-.47 6.34.68 7.18 3.14 11.98 4.2m-7.3 6.39-.28.25q-.27.24-.27.6-.01 1.07.97 1.52.58.26.85-.33.14-.31-.06-.59-.17-.23-.24-.51-.13-.5.21-.89 1.16-1.35 1.08-2.97-.02-.43.33-.69l1.74-1.29q.35-.26.08-.61l-.19-.23q-.11-.14-.25-.04-2.23 1.59-2.88 4.24-.08.33-.38.49-.44.24-.59-.27-.17-.56-.58-.15-.2.21-.18.53.01.15.1.28.11.16.32.17.73.04.22.49"/><path fill="#020202" d="M142.73 146.48q.18.67.54 1.18.3.42.67.06.14-.13.12-.24-.11-.74.54-.4 1.12.58 1.65 1.67-.33.25-.38.52-.77-.06-1.32-.62-.29-.29-.5.06-.26.41-.81.55-1.61-.33-1.32-2.4.02-.14-.11-.21-.13-.06-.29-.02z"/><path fill="#aa8573" d="M141.52 146.63q.16-.04.29.02.13.07.11.21-.29 2.07 1.32 2.4.58.42.89.92.35.57.08 1.16-.44.96-1.73 1.14-.55.22-.99 1.32-1.82-.24-1.68.95.24 1.98.57 3.95l-.53 1.46q-.15-.01-.4-.17-.18-.11-.25-.3-.94-2.27-.15-4.19.21-.52-.14-.95l-1.27-1.58q-.36-.67-.31-1.47.77.39 1.3.39.62-.01.35-.57-.72-1.47-3.38-1.45-.62-1.53 3.87-1.58.29.49.89.7.56.2.59-.4.03-.73-.87-1.47.7-.43 1.44-.49m1.48 3.92a.52.52 0 0 0-.52-.52.52.52 0 0 0-.52.52.52.52 0 0 0 .52.52.52.52 0 0 0 .52-.52"/><path fill="#020202" d="M140.08 147.12q.9.74.87 1.47-.03.6-.59.4-.6-.21-.89-.7-.51-.6-.61-1.31zM98.06 148.26q-.18-.08-.22-.23.1-.55.32-.72.98-.79.38.48-.14.28-.48.47M115.14 148.49q-2.31 2.98-4.08-1.32z"/><circle cx="86.68" cy="148.46" r=".41" fill="#91555f"/><path fill="#020202" d="M97.23 148.63q-.23.81-.75 1.47-.12-.25-.15-.49-.05-.5.39-.72z"/><path fill="#aa8573" d="M122.92 149.08q.16.85-.05 1.35t-.79.53q-1.95.13-2.94-.98-.34-.37-.55.08-.08.18-.06.39-.97-.12-.29-1.68z"/><path fill="#549c91" d="M145.87 149.27q.05-.27.38-.52.3 0 .52.11.26.13.29.43.01.13-.04.25-.08.24-.32.34-.82.35-.83-.61"/><path fill="#020202" d="M124.18 149.14q.18.86 1 1.36.44.28.86-.04l.34-.27a.3.3 0 0 1 .25-.06q.18.04.21.22.05.22-.15.32-1.53.73-2.93 1.38-.57.27-.35.85.18.51.54.91.32.35-.15.39-1.55.14-2-1.32-.15-.52-.68-.63-1.29-.28-1.77 1.02-.16.45-.64.53-.75.11-1.37-.42-.29-.24-.25-.6.03-.2.18-.33a.48.47 44 0 1 .61-.01l.21.15q.46.36.63-.2.28-.97-.19-1.94-.02-.21.06-.39.21-.45.55-.08.99 1.11 2.94.98.58-.03.79-.53t.05-1.35q.79-.15 1.26.06"/><ellipse fill="#020202" rx=".95" ry=".51" transform="rotate(13.6 -559.926 632.255)"/><path fill="#020202" d="M137.33 151.5q-1.31.78-2.71.47-.53-.12-.39-.65.24-.95 1.37-1.45 2.66-.02 3.38 1.45.27.56-.35.57-.53 0-1.3-.39"/><path fill="#aa8573" d="m91.06 154.4-.62 1.32q-.68.17-1 .53-.4.47.12.79l.76.46-.18.96q-.09-.26-.31-.33a.54.53-67.3 0 0-.64.27q-.11.21-.34.27-.55.14-.66-.4-.37-1.69-1.98-2.54-.67-.35.01-.68.44-.22.78.1t.78.2q.2-.05.2-.21 0-.12-.04-.24-.81-2.06-1.8-3.35-1.81-2.33.87-1.1.78.36 1.58.78.49.26.26.77-.06.12-.2.15-.37.07-.23.42.79 1.94 2.64 1.83"/><path fill="#020202" d="m107.81 151.44-.71-.01q-.27-.82.1-1.15a.34.33-23 0 1 .56.22zM115.81 152.38q-.31-.07-.48-.02-.16.05-.17.36-.09 2.25-.94 4.32-.63-.24-1.13-.19t-.54.56l-.4 4.83-1.59-2.11q.5-1.07.53-2.36.01-.55.4-.94.87-.89 2-.75.59.07.63-.51l.02-.26a.48.47-84.5 0 0-.42-.52q-1.18-.11-1.56 1-.1.32-.42.21l-.33-.11a.39.39 0 0 1-.22-.55q.85-1.62 2.51-1.23.62.14.91-.43.09-.2-.03-.39-.35-.55-.02-1.12.42-.68.52-1.46.09-.63.71-.73l.44-.07a.48.48 0 0 1 .44.79q-.54.63-.86 1.68"/><circle cx="142.48" cy="150.55" r=".52" fill="#020202"/><path fill="#020202" d="M97.4 150.21q-.23 1.28.87 1.6.45.13.74.48l.61.75q.02.15.03.26.01.3-.29.29-1.77-.06-2.11-1.37z"/><circle cx="112.57" cy="151.38" r=".51" fill="#020202"/><path fill="#020202" d="M96.01 151.14q-.14 1.02-.54 1.8-.25.48-.78.35-.68-.17-.96-1.23zM162.48 151.88q-.5.76-1.77 1.05-.55.13-.74.72-.12.36.24.45l.51.13q.2.05.09.23-.09.13-.23.19-.39.17-.61-.18-.08-.12-.09-.26-.01-.27-.28-.24-.23.02-.58.3.22-.03-.24-.32l2.27-2.59q.52-.09 1.43.52M153.53 157.26q-.21-.01-.32-.17-.09-.13-.1-.28-.02-.32.18-.53.41-.41.58.15.15.51.59.27.3-.16.38-.49.65-2.65 2.88-4.24.14-.1.25.04l.19.23q.27.35-.08.61l-1.74 1.29q-.35.26-.33.69.08 1.62-1.08 2.97-.34.39-.21.89.07.28.24.51.2.28.06.59-.27.59-.85.33-.98-.45-.97-1.52 0-.36.27-.6l.28-.25q.51-.45-.22-.49"/><path fill="#91555f" d="m162.48 151.88 9.52 3.83q-.05.59.15.85a.48.47 50.1 0 0 .7.07q.36-.33.89-.45l6.3 1.98q.15 1.65.89 1.79-.83-.11-1.53.86-.29.42-.06.87l.78 1.53-.26 2.52q-.1.37-.53.41-.42.04-.78.25-.29.18-.2.51.2.76-.59.69l-1.27-.1-1.92-5.44q.67-.57 1.1-1.29.3-.48-.24-.67-.66-.24-1.3.67l-.36-1.03q-.26-1.14-1.05-1.55-.5-.26-.63.29-.2.86.24 1.77l-1.72 6.04-1.4.76q-2.56-2.48-3.04-6.61l-.07-.88q.21-1.8-.51-2.43-.86-.31-1.31.15-.63.64.6 1.49l-.24 1.14q-2.51-1.11-4.23-.97l-1.39-4.66q.35-.28.58-.3.27-.03.28.24.01.14.09.26.22.35.61.18.14-.06.23-.19.11-.18-.09-.23l-.51-.13q-.36-.09-.24-.45.19-.59.74-.72 1.27-.29 1.77-1.05m.36 2.44-.24-.26q-.61-.66-.62.24l-.02 1.14a.57.56 88.6 0 0 .6.58q1.78-.11 2.31-1.53.44-1.19-.58-.43l-.47.35q-.53.39-.98-.09m-.504 3.905a.71.52 96.8 0 0 .6-.643.71.52 96.8 0 0-.432-.767.71.52 96.8 0 0-.6.643.71.52 96.8 0 0 .432.767"/><path fill="#aa8573" d="M99.62 153.04q.34-.39.68-.28.29.1.38.47.24 1.01-.92 2.1-1.22-1.77-2.68-.28l.01-1.59.04-.67.12-.57q.34 1.31 2.11 1.37.3.01.29-.29-.01-.11-.03-.26"/><path fill="#020202" d="m97.13 152.79-.04.67zM143.94 155.23q-1.08-.87-1.08-2.56 1.32.8 1.08 2.56M137.64 152.97l1.27 1.58q.35.43.14.95-.79 1.92.15 4.19.07.19.25.3.25.16.4.17.79 7.31-2.25 4.4.67-1.31-.84-2.09-.66-.34-.83.23l-1.84-3.94q.95-.05.97.25.1 1.7 1.28.47 1.3-1.35.35-3.29-.18-.36-.58-.42-.16-.02-.18-.18-.06-.49.43-.51l.89-.05q.87-.05.4-.79-.94-1.48-.01-1.27m1.102 8.84a1.5.75 32.7 0 0-.857-1.441 1.5.75 32.7 0 0-1.667-.18 1.5.75 32.7 0 0 .857 1.442 1.5.75 32.7 0 0 1.667.18"/><path fill="#91555f" d="M84.8 153.73q.08-.44.36-.54a.41.41 0 0 1 .54.34q.04.32-.26.46-.16.07-.33-.02-.15-.08-.31-.24"/><path fill="#020202" d="m141.49 153.8-1.11 4.9q-.33-1.97-.57-3.95-.14-1.19 1.68-.95M163.82 154.41l.47-.35q1.02-.76.58.43-.53 1.42-2.31 1.53a.57.56 88.6 0 1-.6-.58l.02-1.14q.01-.9.62-.24l.24.26q.45.48.98.09M126.31 154.05q-.34.39-.55.39.02-.36.55-.39M99.76 155.33q-.98 1.59-2.67 2.38l-.01-2.66q1.46-1.49 2.68.28"/><path fill="#aa8573" d="m144.04 155.66.1.08q.3-1.47.88-1.54a.6.6 0 0 1 .65.38q.4 1.09 1.25 1.83.36.32.08.72-.12.16-.31.21-.33.08-.45-.25-.54-1.48-2.2-1.43"/><path fill="#020202" d="m123.99 157.16-2.31 7.1-1.32-1.09q-.42-.35-.81.04l-1.38 1.37q-2.51-4.53-2.11-9.89 2.42.71 3.38 1.39.74.52.49 1.56-.17.73-.76.28-.14-.11-.3-.2-.49-.29-.69.24-.37.97-.14 1.97.12.5.6.32 2.07-.75 2.37-2.41.12-.66.69-.33 1.07.61 2.29-.35m-5.48 5.76a1 .46 90 0 0 .46-1 1 .46 90 0 0-.46-1 1 .46 90 0 0-.46 1 1 .46 90 0 0 .46 1m2.12-1.34q-.06.05-.08.13-.03.15.09.06.07-.05.08-.13.04-.17-.09-.06M133.91 157.75l-.86-2.99q1.02.06 1.96.46.58.25.08.64-.17.13-.48.18-.45.07-.63.49-.22.53-.07 1.22M151.42 157.98l-.38-2.76q.26-.11.45-.09.49.03.25.46-.58 1.03-.32 2.39M157.87 155.24q.14.64-.38.95-.43-.16-.25-.66.17-.46.63-.29M90.44 155.72q.3 1.07-.12 1.78l-.76-.46q-.52-.32-.12-.79.32-.36 1-.53M129.26 157.79q-.96-.59-1.49-1.84 1.05-.2 1.91.25.49.25.28.75-.21.48-.7.84M173.74 156.18q-.53.12-.89.45a.48.47 50.1 0 1-.7-.07q-.2-.26-.15-.85z"/><ellipse fill="#020202" rx=".71" ry=".52" transform="rotate(96.8 11.284 150.862)"/><path fill="#aa8573" d="m114.22 157.04-.32 4.92a.89.89 0 0 1-1.55.54q-.1-.12-.2-.26l.4-4.83q.04-.51.54-.56t1.13.19"/><path fill="#020202" d="M165.59 157.12q-.63.62-.71 1.64-1.23-.85-.6-1.49.45-.46 1.31-.15M173.77 159.73q-.83-.35-1.44.51-.44-.91-.24-1.77.13-.55.63-.29.79.41 1.05 1.55"/><path fill="#aa8573" d="m180.04 158.16 2.19.59q-.52 1.94-1.3 1.2-.74-.14-.89-1.79"/><path fill="#020202" d="M164.64 159.9q-.3 1.49-.99 2.26-.68.75-1.66-.29.95-.28 1.16-1.12.14-.54-.38-.72-.9-.32-1.6.66l-.76-1.76q1.72-.14 4.23.97M183.47 158.87q-.85 2.17-2.6 4.08-.5-.27-.75.26l-.78-1.53q-.23-.45.06-.87.7-.97 1.53-.86.78.74 1.3-1.2zm-2.62 2.61a.39.39 0 0 0-.39-.39.39.39 0 0 0-.39.39.39.39 0 0 0 .39.39.39.39 0 0 0 .39-.39"/><path fill="#aa8573" d="M185.94 159.15q-2.95 1.98-4.71 4.59l-.36-.79q1.75-1.91 2.6-4.08zM89.98 159.09q-.14 2.41-1.47 1.61.33-1.64 1.47-1.61"/><path fill="#020202" d="M187.53 159.11q-1.31 1.62-2.92 2.08a.44.44 0 0 0-.13.78l2.15 1.54-.26.65q-1.04-.2-1.53-.84a.37.28 79.1 0 0-.09-.08q-.28-.2-.51.05-.12.12-.03.28.76 1.39 1.91 1.26l-.43 3.28q-1.64-2.03-2.74-.67l-1.72-3.7q1.76-2.61 4.71-4.59zm-3.82 6.19q-.32-.44-.53.19-.17.52.35.38.49-.14.18-.57M200.88 159.15l1.88.93q.42.21.39.68-.11 1.26.76 1.29-.17 1.17-.91 2.19l-1.15.48q-.59.25-.94-.28-.54-.79-.29-1.77.13-.52-.39-.64-.7-.17-1.35.04-.49.16-.34.66l1.05 3.67q.13.43-.14.79-.42.55.18.97.44.3.11.72-.39.49-.57 1.08-.17.55.33.84l.7.41q-.16.36-.49.48a.6.6 0 0 1-.78-.42l-1.81-7.47q-.38-1.56-1.01-.08l-.88 2.04q-.11-.47-.29-.55-.56-.22-.74.35-.57 1.85.55 1.86l-1.65 6.64q-.84.24-1.26.67-.4-.01-.51-.32-2.06-5.82-3.72-11.77-.07-.26-.5.07.08-.78.98-.04.47.38.86-.08.12-.14.29-.2.51-.2.79.27.49.84 1.44 1.33a.44.43-54.7 0 1 .11.68l-.27.29q-.66.7.14 1.25l.66.44q.94.64.86-.5l-.08-1.37q-.06-.98.89-.87.54.07 1.01-.2 1.88-1.08 2.26-3.45.1-.64-.55-.61-1.01.05-1.92.35-1.17.38-.16 1.07.6.41.58 1.13-.01.57-.51.79-.41.18-.88.19-.85.02-.54-.77.08-.22.23-.39.38-.43.16-.95l-.77-1.8 5.54.34q-.32.3-.27.63.08.56.61.36.64-.23.67-.86.01-.19-.18-.26-.15-.06-.26-.08 1.2-.31 2.08-.25m-10.12 10.77q-.34.61.15 1.18a.52.52 0 0 0 .91-.26q.42-2.4-1.04-3.71-1.03-.92-.48.34.32.75.55 1.5a1.22 1.18 51.2 0 1-.09.95"/><path fill="#549c91" d="M203.01 159.08q.1.92 1.3 1.81l-.4 1.16q-.87-.03-.76-1.29.03-.47-.39-.68l-1.88-.93z"/><path fill="#020202" d="M204.31 160.89q-1.2-.89-1.3-1.81.77-.11 1.15.51.43.7.15 1.3"/><ellipse fill="#020202" rx=".43" ry=".37" transform="rotate(56.9 -96.118 174.4)"/><path fill="#aa8573" d="m187.53 159.11 5.16.16.77 1.8q.22.52-.16.95-.15.17-.23.39-.31.79.54.77.47-.01.88-.19.5-.22.51-.79.02-.72-.58-1.13-1.01-.69.16-1.07.91-.3 1.92-.35.65-.03.55.61-.38 2.37-2.26 3.45-.47.27-1.01.2-.95-.11-.89.87l.08 1.37q.08 1.14-.86.5l-.66-.44q-.8-.55-.14-1.25l.27-.29a.44.43-54.7 0 0-.11-.68q-.95-.49-1.44-1.33-.28-.47-.79-.27-.17.06-.29.2-.39.46-.86.08-.9-.74-.98.04l-.48.8-2.15-1.54a.44.44 0 0 1 .13-.78q1.61-.46 2.92-2.08m4.54 3.46a.51.51 0 0 0-.51-.51.51.51 0 0 0-.51.51.51.51 0 0 0 .51.51.51.51 0 0 0 .51-.51"/><path fill="#020202" d="m166.17 160.43-.07-.88z"/><path fill="#91555f" d="M198.8 159.4q.11.02.26.08.19.07.18.26-.03.63-.67.86-.53.2-.61-.36-.05-.33.27-.63.23-.25.57-.21"/><ellipse fill="#549c91" rx="1.5" ry=".75" transform="rotate(32.7 -205.66 314.813)"/><path fill="#aa8573" d="M161.99 161.87q-.62-.41-.82-1.18.7-.98 1.6-.66.52.18.38.72-.21.84-1.16 1.12"/><path fill="#020202" d="M174.57 162.05q-.58-.66-.44-1.29.64-.91 1.3-.67.54.19.24.67-.43.72-1.1 1.29"/><ellipse fill="#aa8573" rx="1" ry=".46" transform="rotate(90 -21.705 140.215)"/><circle cx="180.46" cy="161.48" r=".39" fill="#91555f"/><path fill="#91555f" d="M120.72 161.64q-.01.08-.08.13-.12.09-.09-.06.02-.08.08-.13.13-.11.09.06"/><path fill="#020202" d="M103.48 161.73q-.1.71-.45 1.29-.48.1-.81-.3-.31-.35.04-.66.58-.51 1.22-.33M154.01 162.87q-1.03.36-1.53-.81.61-.28 1.01-.04.43.25.52.85"/><circle cx="191.56" cy="162.57" r=".51" fill="#020202"/><path fill="#aa8573" d="M203 164.24q-.21 1.48-1.1 2.52-.73.03-.98.96-.08.29.04.43.15.2.52.07-.42 1.74-1.28 2.99l-.7-.41q-.5-.29-.33-.84.18-.59.57-1.08.33-.42-.11-.72-.6-.42-.18-.97.27-.36.14-.79l-1.05-3.67q-.15-.5.34-.66.65-.21 1.35-.04.52.12.39.64-.25.98.29 1.77.35.53.94.28z"/><path fill="#549c91" d="M137.6 164.56q-1.14-.79-1.67-1.86.17-.57.83-.23 1.51.78.84 2.09"/><path fill="#020202" d="M102.81 166.87q-1.35 2.97-3.88-1.89.42.07.66.01.46-.1.19-.49-.3-.44-.73-.69-.64-.37.06-.63.6-.22 1.26-.07.67.15.78.83.1.62-.47.94-.5.28-.3.82.61 1.6 2.43 1.17"/><path fill="#aa8573" d="M121.68 164.26q.21 1.11-.73 1.69-.82.03-1.59.37-.8-.75-1.19-1.74l1.38-1.37q.39-.39.81-.04z"/><path fill="#91555f" d="m186.37 164.16-.25.67q-1.15.13-1.91-1.26-.09-.16.03-.28.23-.25.51-.05a.37.28 79.1 0 1 .09.08q.49.64 1.53.84"/><path fill="#020202" d="M102.89 164.02q.13.52.02 1.23-.39-.24-.62-.54-.33-.42.17-.62.18-.07.43-.07"/><path fill="#aa8573" d="M183.71 165.3q.31.43-.18.57-.52.14-.35-.38.21-.63.53-.19"/><path fill="#549c91" d="m195.23 165.76-.48 1.66q-1.12-.01-.55-1.86.18-.57.74-.35.18.08.29.55"/><path fill="#020202" d="m179.86 165.73-.04 4.39-1.79.05q-.95-.85-1.54-2.68l1.27.1q.79.07.59-.69-.09-.33.2-.51.36-.21.78-.25.43-.04.53-.41M120.95 165.95q-.02.42-.34.65-.78.57-1.25-.28.77-.34 1.59-.37M170.61 166.28q.05.42-.08.74-.23.58-.78.3l-.54-.28z"/><path fill="#549c91" d="M190.85 168.97q-.23-.75-.55-1.5-.55-1.26.48-.34 1.46 1.31 1.04 3.71a.52.52 0 0 1-.91.26q-.49-.57-.15-1.18a1.22 1.18 51.2 0 0 .09-.95"/><path fill="#91555f" d="M201.9 166.76q.2.82-.42 1.46-.37.13-.52-.07-.12-.14-.04-.43.25-.93.98-.96"/><path fill="#aa8573" d="M185.69 168.11q.3.71.09 1.25-.2.52-.72.32-1.36-.52-2.11-2.24 1.1-1.36 2.74.67"/><path fill="#91555f" d="M179.82 170.12q-.08.5-.49.69-.82.38-1.3-.64z"/><path fill="#aa8573" d="m193.1 174.06-.31.96q-.17.53-.59.17-.18-.15-.36-.46.42-.43 1.26-.67"/></svg>