<svg xmlns="http://www.w3.org/2000/svg" viewBox="0 0 382 382"><g fill="none" stroke="#7f807f" stroke-width="2"><path d="M87.68 140.19q-1.2 1.06-2.57 0M91.8 140.81q-.22.78-.09 1.44.11.55.58.24.75-.5.75-1.16M94.2 141.62q-.51.17-.45.65a.86.85 73.8 0 0 1.21.67q.61-.29.48-.89M98.02 142.77l-4.14 1.34q-.44.14-.74.49-.89 1.02-2.26 1.57a.27.26-44.2 0 0-.01.49l.7.31a.81.8-47 0 0 .71-.03l3.07-1.61a.37.36-16.4 0 1 .54.29l.05.52q.01.13-.11.19l-2.82 1.24q-.55.24-.41.82.15.64.81.69a.49.49 0 0 1 .42.67q-.07.17-.2.3a.89.88-56.2 0 1-.91.18q-1.92-.68-3.02.48-.2.21-.38-.02c-1.24-1.69-2.82-.31-4.05.46q-.26.16-.52-.02-.15-.11-.19-.27-.08-.28.1-.49.88-1 .03-1.8M84.68 145.13l4.32.88a.59.59 0 0 0 .7-.49l.47-3.2q.1-.69-.6-.74-1.23-.08-1.62.91-.2.52.24.86.55.42.94 1.02.11.16.12.35 0 .18-.16.26-.4.21-.73-.11-.77-.74-1.78-.53-.66.14-.66-.53l-.01-.55q0-.86-.81-.57l-1.78.62M81.54 141.09q1.42 1.3 3.17.67a.72.7-12.8 0 0 .46-.71l-.06-.86M99.25 143.1q-2.29 1.84-2.91 4.7-.06.3.24.38.14.03.27-.01c.76-.24 1.32-1.3 2.21-1.7q.54-.25.93.19.26.29.31.7.09.87.73.27.75-.72.84-1.96.05-.58-.5-.54-.52.03-.65-.47-.14-.55.05-1.11M108.28 146.18q-.15.61-.04 1.02.18.59.74.34.41-.18.7-.69M112.93 148.04l-4.43.62q-.5.07-.64.56-.08.3.11.56.24.33.65.33 1.41 0 2.45-.44.92-.4.33.41l-3.34 4.6M107.67 151.37q.09-.99-.62-1.29a.74.73-61.5 0 0-.89.27l-.61.9q-.31.46.06.87.45.51.18 1.13-.16.39-.58.31l-.48-.08q-.62-.1-.6.53.01.23.14.41.29.37.72.18.5-.22.71.11M104.54 158.68q-1.82-1.41-3.7-.03-.19.13-.29-.07v-.01q-.11-.2.1-.3 1.5-.76 1.63-2.6M102.28 155.67q1.01.15.97-.28a.33.32 81.1 0 0-.4-.3q-.54.13-.57.58" vector-effect="non-scaling-stroke"/><path d="M102.28 155.67q-.87.47-1.88.44-.08 0-.12-.08l-.14-.32q-.27-.61.39-.56 2.09.15 3.04-2.1.35-.84-.44-.4l-3.25 1.82q-.38.21-.8.1-1.01-.27-2.02-.94M96 151.03q-.16-.55-1.41.43-.31.25.09.22.78-.05.88 1.3M92.14 151.27q-3.34.64-4.84 3.06-.3.47.2.71 1.35.67 3.64-.87M85.99 157.1q2.04 1 3.45.84a.41.41 0 0 0 .21-.73q-1.55-1.2-4.51-.86M103.24 162.64l-4.18 2.68M98.82 164.82q2.52-1.92 3.7-4.44a.67.67 0 0 0-.83-.92q-2.25.77-4.61.29M97.09 158.9q.57-.84 1.87-.76a.69.69 0 0 0 .61-1.08q-1.03-1.48-2.52-.82M90.97 154.05l-.23.99M115.27 148.28q-.09.38-.28.67a.94.93 14.5 0 1-.76.44q-1.27.03-1.63.71-1.6 3.08-3.81 5.62" vector-effect="non-scaling-stroke"/><path d="M98.05 162.28q.5.92 1.2.87a.58.58 0 0 0 .4-.96q-.94-1.11-2.07-.9M123.27 149.14l-4.04 7.23q-.24.45-.74.55l-2.41.47M116.18 154.99q.37.19.47-.28.33-1.53-.56-1.93M115.84 152.19q1.41-1.08 1.75-2.78a.39.39 0 0 0-.15-.39q-.17-.13-.38-.06-.26.09-.37.33-.59 1.29-1.64 2.27-.19.18-.19.44-.01.29.25.45M114.98 153.04q-.35.06-.64.38-.28.29-.37.71-.61 2.95-3.15 2.92-.38 0-.49.36-.12.4.29.47.63.11 1.21-.03.82-.2.18.35-.84.72-2.04.77M123.41 158.43q-1.94-.28-3.4-.04-3.33.56-.17 1.76.13.06 1.57-.27.22-.05.28.17 0 .01.01.01.07.55-1.26.73a.54.54 0 0 0-.41.8q.43.8.7 1.73.25.83-.46.34c-1.39-.97-1.73-2.43-3.69-2.76" vector-effect="non-scaling-stroke"/><path d="m116.34 160 .94-.69q.5-.36-.09-.55-.39-.12-.87-.02M113.98 157.98q-1.2.25-1.11 1.67.03.43.46.46.2.02.36.14a.17.17 0 0 1-.16.29q-1.18-.43-2.26.69M119.07 166.04q.71-.17.62-.82-.05-.42-.36-.13-.27.26-.41.75M143.84 146.42q.41.84.97 1.19.49.32.78-.19l.64-1.16M149.07 147.29q-.38.63-.39 1.25-.01.55.55.61l5.59.6M162.1 151.81l2.11 3.94q.43.8.73-.06l.51-1.5q.16-.45.59-.25l.31.14a.43.43 0 0 1 .22.51l-.87 2.7M164.84 158.82q-.9-.88-1.81-.74-.53.09-.55.62-.07 2.05 1.46 2.86M161.4 161.24q.8-1.82-.3-3.83-.46-.85-1.2-.46M159.2 154.99q1.35.36 1.68-1.54.25-1.42-1.19-1.48l-2.71-.11q-.45-.02-.29.4l.18.47a.38.37 83.3 0 0 .3.24l1.49.22q.55.08.52.64-.02.34-.24.62M157.59 156.3q-2.16.08-1.49 3.5M152.37 162.19l2.01-.61q.49-.15.48-.66l-.07-3.31q0-.41-.39-.56-.17-.07-.34-.12-.88-.27-.05-.66.48-.23.85-.58a.6.6 0 0 0-.04-.9q-1.19-.97.15-1.89.63-.44.45-1.2-.09-.41-.96-.24a.75.74-8.5 0 0-.6.8q.05.43.3.72a.46.45 53.6 0 1-.1.69q-1.08.67-1.34 1.88a.2.2 0 0 1-.39.02q-.59-1.93-2.32-2.52M149.09 152.87l-3.07-.86q-.5-.14-.8.3l-1.69 2.51M142.81 152.68q.8-.54.82-1.1.01-.67-.62-.47-.93.3-1.91.27-.66-.01-.9.59-.41 1.01-1.21 1.77-.96.91-.76-.39c.53-3.39-3.79-4.31-6.34-4.25q-.21 0-.38.14-.2.17-.17.46.05.43.44.23.21-.11.35-.29a.66.66 0 0 1 .82-.17q.38.21.52.62.14.4.01.82-.26.84-.54 1.72-.26.81.59.78l.49-.01a.82.82 0 0 1 .81.57q.16.52.56.89.58.54.5-.25-.1-1.05-.84-1.86-.11-.13.02-.24l.28-.24q.2-.17.36.02c1.9 2.08 2.42 3.86 5.06 5.91M140.28 159.46q-.36-.03-.57-.23-.2-.2.05-.34.13-.08.1-.21-.06-.22-.22-.38-.99-.95-2.24-1.25-.54-.13-.86.32l-1.96 2.75M134.08 158.45q1.07.14 1-.69-.09-1.14-1.61-.78M131.87 154.74q-.64.48-1.05 1.39-.21.46-.65.71l-1.44.8M124.08 157.12l-3.18-.45q-.57-.08-.25-.56l4.58-6.98M134.41 147.85q3.5-.18 5.81 1.39.5.34.89-.12l.23-.27q.3-.36-.09-.6l-1.82-1.11M148.46 155.6q-1.54-1-2.63-.55-.46.19-.42.69.09.99-.67 1.04M139.9 161.33q-.35.95-.75-.49-.18-.66-.64-.16l-.54.59q-.39.42-.89.15-.9-.49-1.81-.23M167.7 154.49q-.53 1.65 2.75 1.48a.81.81 0 0 1 .86.79q.07 2.07.89 3.55M171.91 161.06l-5.61-2.58" vector-effect="non-scaling-stroke"/><path d="M152.28 161.04q.88.39 1.56.19a.46.46 0 0 0 .13-.81q-.81-.55-1.87-.27M171.86 162.2l-2.88-.04q-.53-.01-.6.53-.13 1.07.55 1.66 1.39 1.24 1.71 2.31M167.92 165.69q.2-1.88-.94-2.58M172.27 155.68q-.25 2.77.98 3.99M176.16 157.09q-.1 1.45.6 2.93.22.46-.12.82l-.32.35q-.79.85.35.68l.82-.12q.54-.08.47.46-.1.84-.72 1.36-.4.33-.91.28l-1.34-.14M177.02 157.16q.17 1.66.9 2.65a1.54 1.54 0 0 0 1.91.47l3.33-1.62M185.05 159.07q-1.97 3.24-.92 5.65.77 1.77-.85.72-1.43-.93-.98-3.58.17-1-.79-.67-2.2.76-1.21 1.25M179.94 167.41q-1.88-1.27-4.45-1.97M179.77 170.56q-.26.13-.48.36M193.78 159.46q-.13.73.03 1.11.26.59.72.14.55-.53.67-1.4" vector-effect="non-scaling-stroke"/><path d="m195.96 159.68-.18 1q-.11.66-.73.93-.75.34-1.29 1.01-.53.67-.8-.14-.31-.91-1.32-1.3-.1-.03-.17.04l-.34.31q-.26.26.03.49l2.05 1.6q.44.35.87-.02 3-2.57 7.16-1.65.4.09.8.01l1.27-.27q.64-.13.36-.72l-.15-.33q-.2-.43-.63-.2l-1.42.77q-.65.35-.7-.39-.05-.65.6-1.59M203.23 163.95q-1.56-.02-2.85-.89a.49.48-53.6 0 0-.65.1l-.18.22a.34.33-53.1 0 0 .06.48l.91.66a.76.74-54 0 1 .16 1.06q-.29.4-.38.89-.11.59.49.58h.41a.7.7 0 0 0 .69-.58q.24-1.32.91-1.31M200.48 171.01l-1.45-.08" vector-effect="non-scaling-stroke"/><path d="m198.26 167.37.47.71q.28.43.76.25.35-.13.44-.53.05-.25-.03-.48t-.32-.3q-.59-.17-.33-.72.1-.22.31-.35.58-.37-.07-.59-.7-.25-1.78.72M194.69 167.69q-1.91-.9-2.12-2.49-.33-2.41-1.65-.37-.46.71-2.32 1.22M188.14 164.73q.05-.37-.03-.71M185.69 168.02l-.65-.69q-.38-.42-.83-.07-.4.32-.6 1.13" vector-effect="non-scaling-stroke"/><path d="m193.77 171.79-2.06-6.06q-.21-.61-.64-.13l-.25.28a.91.91 0 0 0-.16.94l1.85 4.53a.5.5 0 0 1-.62.66l-1.65-.55M192.96 173.92q-1.12-.07-1.86-.4M86.32 148.02l1.27-.15q.72-.09.11-.48-.35-.22-.77-.2-.5.03-.84.39-.5.53.23.44M94.38 148.59q-.17.12-.04.28.17.19.36.02.16-.13.01-.28-.15-.14-.33-.02M102.4 150.19q1 1.41 2.22.31 1.69-1.52-.58-1.42-1.31.06-2.57.43a.19.19 0 0 0-.04.34q.15.09.33.06.4-.05.64.28M98.15 150.62q.24.08.34-.13a.24.23-78.7 0 0-.22-.34q-.19.01-.26.18-.07.22.14.29M102.533 151.118a2.2.54-22.5 0 0-2.24.343 2.2.54-22.5 0 0-1.826 1.34 2.2.54-22.5 0 0 2.24-.342 2.2.54-22.5 0 0 1.826-1.34M143.84 148.67q.08-.04.09-.12.04-.22-.16-.17-.23.06-.34.28a.24.24 0 0 0 .25.35q.16-.02.1-.18-.04-.11.06-.16M150.29 151.14q1 .71 2.05.66.72-.03.11-.42-1.5-.93-3.31-1.14-1.23-.14-1.5-1.29-.16-.68-.84-.62l-.39.03q-.7.06-.4.69.69 1.45 2.09 2.31.35.23.76.11.23-.06.4-.24a.8.78 39.6 0 1 1.03-.09M124.35 151.15q-.42.62-.17 1.27.24.63.63.08.45-.64.2-1.28a.38.37-38.8 0 0-.66-.07M129.07 153.83q.29-.06.11-.29-.24-.32-.61-.25-.25.05-.11.26.23.35.61.28M162.87 155.55a.27.27 0 0 0-.48.08q-.15.54.14 1.03.16.3.51.31.26 0 .52-.06.79-.18.1-.6-.47-.29-.79-.76M179.27 163.88q.11-.17.09-.38-.05-.5-.44-.18l-1.03.86a.42.41-58.5 0 0 .17.73q1.01.23 1.12-.79.02-.13.09-.24M167.55 161.06q.7.27.8.26 1.28-.13.15-.74-.77-.42-1.54-.11-.58.24-.03.54.29.16.62.05M190.677 163.181a.69.3-26.6 0 0-.751.04.69.3-26.6 0 0-.483.578.69.3-26.6 0 0 .751-.04.69.3-26.6 0 0 .483-.578M197.87 163.76q.39.29.82.18.91-.23.04-.57-.35-.13-.78-.01-.45.12-.08.4" vector-effect="non-scaling-stroke"/></g><path fill="#000100" d="M87.68 140.19q-1.2 1.06-2.57 0 1.28-.32 2.57 0"/><path fill="#fefefe" d="M91.8 140.81q-.22.78-.09 1.44.11.55.58.24.75-.5.75-1.16.65-.13 1.16.29-.51.17-.45.65a.86.85 73.8 0 0 1.21.67q.61-.29.48-.89 1.85-.22 2.58.72l-4.14 1.34q-.44.14-.74.49-.89 1.02-2.26 1.57a.27.26-44.2 0 0-.01.49l.7.31a.81.8-47 0 0 .71-.03l3.07-1.61a.37.36-16.4 0 1 .54.29l.05.52q.01.13-.11.19l-2.82 1.24q-.55.24-.41.82.15.64.81.69a.49.49 0 0 1 .42.67q-.07.17-.2.3a.89.88-56.2 0 1-.91.18q-1.92-.68-3.02.48-.2.21-.38-.02c-1.24-1.69-2.82-.31-4.05.46q-.26.16-.52-.02-.15-.11-.19-.27-.08-.28.1-.49.88-1 .03-1.8.34-1.58-.01-3.44l4.32.88a.59.59 0 0 0 .7-.49l.47-3.2q.1-.69-.6-.74-1.23-.08-1.62.91-.2.52.24.86.55.42.94 1.02.11.16.12.35 0 .18-.16.26-.4.21-.73-.11-.77-.74-1.78-.53-.66.14-.66-.53l-.01-.55q0-.86-.81-.57l-1.78.62-1.9-.56q-.53-.15-.45-.69.07-.45.57-.97 1.42 1.3 3.17.67a.72.7-12.8 0 0 .46-.71l-.06-.86q1.37 1.06 2.57 0 2.45-.39 4.12.62m-5.48 7.21 1.27-.15q.72-.09.11-.48-.35-.22-.77-.2-.5.03-.84.39-.5.53.23.44"/><path fill="#000100" d="m85.11 140.19.06.86a.72.7-12.8 0 1-.46.71q-1.75.63-3.17-.67 1.1-.94 3.57-.9M93.04 141.33q0 .66-.75 1.16-.47.31-.58-.24-.13-.66.09-1.44zM84.68 145.13q-.46-1.4-1.36-1.82l1.78-.62q.81-.29.81.57l.01.55q0 .67.66.53 1.01-.21 1.78.53.33.32.73.11.16-.08.16-.26-.01-.19-.12-.35-.39-.6-.94-1.02-.44-.34-.24-.86.39-.99 1.62-.91.7.05.6.74l-.47 3.2a.59.59 0 0 1-.7.49zM95.44 142.05q.13.6-.48.89a.86.85 73.8 0 1-1.21-.67q-.06-.48.45-.65.9 0 1.24.43M99.25 143.1q-2.29 1.84-2.91 4.7-.06.3.24.38.14.03.27-.01c.76-.24 1.32-1.3 2.21-1.7q.54-.25.93.19.26.29.31.7.09.87.73.27.75-.72.84-1.96.05-.58-.5-.54-.52.03-.65-.47-.14-.55.05-1.11.68.45 1.62.52.48.03.93.2l4.96 1.91q-.15.61-.04 1.02.18.59.74.34.41-.18.7-.69 2.21-.01 3.25 1.19l-4.43.62q-.5.07-.64.56-.08.3.11.56.24.33.65.33 1.41 0 2.45-.44.92-.4.33.41l-3.34 4.6q.24-1.63-.39-3.31.09-.99-.62-1.29a.74.73-61.5 0 0-.89.27l-.61.9q-.31.46.06.87.45.51.18 1.13-.16.39-.58.31l-.48-.08q-.62-.1-.6.53.01.23.14.41.29.37.72.18.5-.22.71.11l-1.16 3.97q-1.82-1.41-3.7-.03-.19.13-.29-.07v-.01q-.11-.2.1-.3 1.5-.76 1.63-2.6 1.01.15.97-.28a.33.32 81.1 0 0-.4-.3q-.54.13-.57.58-.87.47-1.88.44-.08 0-.12-.08l-.14-.32q-.27-.61.39-.56 2.09.15 3.04-2.1.35-.84-.44-.4l-3.25 1.82q-.38.21-.8.1-1.01-.27-2.02-.94l.24-2.72q.04-.55-.5-.46-.37.06-.8.58-.16-.55-1.41.43-.31.25.09.22.78-.05.88 1.3-.22.21-.49.27-.52.11-.76-.36-1.25-2.42-2.17-1.62-3.34.64-4.84 3.06-.3.47.2.71 1.35.67 3.64-.87l-1.15 6.23a.86.86 0 0 1-1.42.49q-2.33-2.08-2.58-3.79 2.04 1 3.45.84a.41.41 0 0 0 .21-.73q-1.55-1.2-4.51-.86-.12-1.67-.66-3.27-.44-1.28-.3-2.24.17-1.17.51-2.27.85.8-.03 1.8-.18.21-.1.49.04.16.19.27.26.18.52.02c1.23-.77 2.81-2.15 4.05-.46q.18.23.38.02 1.1-1.16 3.02-.48a.89.88-56.2 0 0 .91-.18q.13-.13.2-.3a.49.49 0 0 0-.42-.67q-.66-.05-.81-.69-.14-.58.41-.82l2.82-1.24q.12-.06.11-.19l-.05-.52a.37.36-16.4 0 0-.54-.29l-3.07 1.61a.81.8-47 0 1-.71.03l-.7-.31a.27.26-44.2 0 1 .01-.49q1.37-.55 2.26-1.57.3-.35.74-.49l4.14-1.34zm-1.94 6.04a.51.25 101.3 0 0 .345-.451.51.25 101.3 0 0-.145-.55.51.25 101.3 0 0-.345.452.51.25 101.3 0 0 .145.55m-2.93-.55q-.17.12-.04.28.17.19.36.02.16-.13.01-.28-.15-.14-.33-.02m8.02 1.6q1 1.41 2.22.31 1.69-1.52-.58-1.42-1.31.06-2.57.43a.19.19 0 0 0-.04.34q.15.09.33.06.4-.05.64.28m-4.25.43q.24.08.34-.13a.24.23-78.7 0 0-.22-.34q-.19.01-.26.18-.07.22.14.29m4.382.498a2.2.54-22.5 0 0-2.239.343 2.2.54-22.5 0 0-1.826 1.34 2.2.54-22.5 0 0 2.24-.342 2.2.54-22.5 0 0 1.826-1.34"/><path fill="#fefefe" d="M100.77 143.55q-.19.56-.05 1.11.13.5.65.47.55-.04.5.54-.09 1.24-.84 1.96-.64.6-.73-.27-.05-.41-.31-.7-.39-.44-.93-.19c-.89.4-1.45 1.46-2.21 1.7q-.13.04-.27.01-.3-.08-.24-.38.62-2.86 2.91-4.7.94-.07 1.52.45M109.68 146.85q-.29.51-.7.69-.56.25-.74-.34-.11-.41.04-1.02.97.02 1.4.67"/><path fill="#000100" d="M143.84 146.42q.41.84.97 1.19.49.32.78-.19l.64-1.16 2.84 1.03q-.38.63-.39 1.25-.01.55.55.61l5.59.6c1.9.43 3.77 1.15 5.76 1.24q1.28.05 1.52.82l2.11 3.94q.43.8.73-.06l.51-1.5q.16-.45.59-.25l.31.14a.43.43 0 0 1 .22.51l-.87 2.7q-.65 0-.86 1.53-.9-.88-1.81-.74-.53.09-.55.62-.07 2.05 1.46 2.86-.4 1.28-1.41.88-.81-.31-1.13-1.2.8-1.82-.3-3.83-.46-.85-1.2-.46-.66-.97-.7-1.96 1.35.36 1.68-1.54.25-1.42-1.19-1.48l-2.71-.11q-.45-.02-.29.4l.18.47a.38.37 83.3 0 0 .3.24l1.49.22q.55.08.52.64-.02.34-.24.62-.11-.11-.24-.13-.36-.05-.48.28l-.63 1.7q-2.16.08-1.49 3.5-.15 4.83-3.73 2.39l2.01-.61q.49-.15.48-.66l-.07-3.31q0-.41-.39-.56-.17-.07-.34-.12-.88-.27-.05-.66.48-.23.85-.58a.6.6 0 0 0-.04-.9q-1.19-.97.15-1.89.63-.44.45-1.2-.09-.41-.96-.24a.75.74-8.5 0 0-.6.8q.05.43.3.72a.46.45 53.6 0 1-.1.69q-1.08.67-1.34 1.88a.2.2 0 0 1-.39.02q-.59-1.93-2.32-2.52-.43-.38-.92-.18l-3.07-.86q-.5-.14-.8.3l-1.69 2.51q-.65-.64-.72-2.14.8-.54.82-1.1.01-.67-.62-.47-.93.3-1.91.27-.66-.01-.9.59-.41 1.01-1.21 1.77-.96.91-.76-.39c.53-3.39-3.79-4.31-6.34-4.25q-.21 0-.38.14-.2.17-.17.46.05.43.44.23.21-.11.35-.29a.66.66 0 0 1 .82-.17q.38.21.52.62.14.4.01.82-.26.84-.54 1.72-.26.81.59.78l.49-.01a.82.82 0 0 1 .81.57q.16.52.56.89.58.54.5-.25-.1-1.05-.84-1.86-.11-.13.02-.24l.28-.24q.2-.17.36.02c1.9 2.08 2.42 3.86 5.06 5.91l-.49 1.26q-.36-.03-.57-.23-.2-.2.05-.34.13-.08.1-.21-.06-.22-.22-.38-.99-.95-2.24-1.25-.54-.13-.86.32l-1.96 2.75q-.43-.66-.5-1.67 1.07.14 1-.69-.09-1.14-1.61-.78l-.56-3.28q-.04-.23-.26-.3-.14-.05-.3.01-.11.04-.14.15l-.34 1.18q-.64.48-1.05 1.39-.21.46-.65.71l-1.44.8-2.01-3.03q-.26-.4-.61-.08-1.2 1.06-2.03 2.59l-3.18-.45q-.57-.08-.25-.56l4.58-6.98 9.18-1.28q3.5-.18 5.81 1.39.5.34.89-.12l.23-.27q.3-.36-.09-.6l-1.82-1.11q2.15-.83 4.41-.72m0 2.25q.08-.04.09-.12.04-.22-.16-.17-.23.06-.34.28a.24.24 0 0 0 .25.35q.16-.02.1-.18-.04-.11.06-.16m6.45 2.47q1 .71 2.05.66.72-.03.11-.42-1.5-.93-3.31-1.14-1.23-.14-1.5-1.29-.16-.68-.84-.62l-.39.03q-.7.06-.4.69.69 1.45 2.09 2.31.35.23.76.11.23-.06.4-.24a.8.78 39.6 0 1 1.03-.09m-25.94.01q-.42.62-.17 1.27.24.63.63.08.45-.64.2-1.28a.38.37-38.8 0 0-.66-.07m4.72 2.68q.29-.06.11-.29-.24-.32-.61-.25-.25.05-.11.26.23.35.61.28m33.8 1.72a.27.27 0 0 0-.48.08q-.15.54.14 1.03.16.3.51.31.26 0 .52-.06.79-.18.1-.6-.47-.29-.79-.76"/><path fill="#fefefe" d="m146.23 146.26-.64 1.16q-.29.51-.78.19-.56-.35-.97-1.19zM139.43 147.14l1.82 1.11q.39.24.09.6l-.23.27q-.39.46-.89.12-2.31-1.57-5.81-1.39 2.09-1.21 5.02-.71"/><path fill="#000100" d="M86.09 147.58q.34-.36.84-.39.42-.02.77.2.61.39-.11.48l-1.27.15q-.73.09-.23-.44"/><path fill="#fefefe" d="m154.82 149.75-5.59-.6q-.56-.06-.55-.61.01-.62.39-1.25zM115.27 148.28q-.09.38-.28.67a.94.93 14.5 0 1-.76.44q-1.27.03-1.63.71-1.6 3.08-3.81 5.62-.62-.3-.73-1.04l3.34-4.6q.59-.81-.33-.41-1.04.44-2.45.44-.41 0-.65-.33-.19-.26-.11-.56.14-.49.64-.56l4.43-.62z"/><path fill="#000100" d="m123.27 149.14-4.04 7.23q-.24.45-.74.55l-2.41.47q-.23-1.18.1-2.4.37.19.47-.28.33-1.53-.56-1.93l-.25-.59q1.41-1.08 1.75-2.78a.39.39 0 0 0-.15-.39q-.17-.13-.38-.06-.26.09-.37.33-.59 1.29-1.64 2.27-.19.18-.19.44-.01.29.25.45-.02.31-.13.59-.35.06-.64.38-.28.29-.37.71-.61 2.95-3.15 2.92-.38 0-.49.36-.12.4.29.47.63.11 1.21-.03.82-.2.18.35-.84.72-2.04.77-.83-1.39-1.18-3.25 2.21-2.54 3.81-5.62.36-.68 1.63-.71a.94.93 14.5 0 0 .76-.44q.19-.29.28-.67z"/><path fill="#fefefe" d="M143.78 148.83q.06.16-.1.18a.24.24 0 0 1-.25-.35q.11-.22.34-.28.2-.05.16.17-.01.08-.09.12-.1.05-.06.16M149.26 151.23q-.17.18-.4.24-.41.12-.76-.11-1.4-.86-2.09-2.31-.3-.63.4-.69l.39-.03q.68-.06.84.62.27 1.15 1.5 1.29 1.81.21 3.31 1.14.61.39-.11.42-1.05.05-2.05-.66a.8.78 39.6 0 0-1.03.09M94.38 148.59q.18-.12.33.02.15.15-.01.28-.19.17-.36-.02-.13-.16.04-.28M101.76 149.91q-.18.03-.33-.06a.19.19 0 0 1 .04-.34q1.26-.37 2.57-.43 2.27-.1.58 1.42-1.22 1.1-2.22-.31-.24-.33-.64-.28M115.84 152.19q-.34.24-.73.26-.26-.16-.25-.45 0-.26.19-.44 1.05-.98 1.64-2.27.11-.24.37-.33.21-.07.38.06a.39.39 0 0 1 .15.39q-.34 1.7-1.75 2.78M125.23 149.13l-4.58 6.98q-.32.48.25.56l3.18.45q-.19.97-.67 1.31-1.94-.28-3.4-.04-3.33.56-.17 1.76.13.06 1.57-.27.22-.05.28.17 0 .01.01.01.07.55-1.26.73a.54.54 0 0 0-.41.8q.43.8.7 1.73.25.83-.46.34c-1.39-.97-1.73-2.43-3.69-2.76q-.45-.2-.24-.9l.94-.69q.5-.36-.09-.55-.39-.12-.87-.02-.26-.55-.24-1.35l2.41-.47q.5-.1.74-.55l4.04-7.23q1.3-.23 1.96-.01M142.81 152.68q-.4-.38-.73-.29-.25.06-.4.49-.88 2.54-.91 5.32c-2.64-2.05-3.16-3.83-5.06-5.91q-.16-.19-.36-.02l-.28.24q-.13.11-.02.24.74.81.84 1.86.08.79-.5.25-.4-.37-.56-.89a.82.82 0 0 0-.81-.57l-.49.01q-.85.03-.59-.78.28-.88.54-1.72.13-.42-.01-.82-.14-.41-.52-.62a.66.66 0 0 0-.82.17q-.14.18-.35.29-.39.2-.44-.23-.03-.29.17-.46.17-.14.38-.14c2.55-.06 6.87.86 6.34 4.25q-.2 1.3.76.39.8-.76 1.21-1.77.24-.6.9-.59.98.03 1.91-.27.63-.2.62.47-.02.56-.82 1.1M107.67 151.37l-1.97 3.34q-.21-.33-.71-.11-.43.19-.72-.18-.13-.18-.14-.41-.02-.63.6-.53l.48.08q.42.08.58-.31.27-.62-.18-1.13-.37-.41-.06-.87l.61-.9a.74.73-61.5 0 1 .89-.27q.71.3.62 1.29M98.01 150.33q.07-.17.26-.18a.24.23-78.7 0 1 .22.34q-.1.21-.34.13-.21-.07-.14-.29M96 151.03q.1 1.28-.44 1.95-.1-1.35-.88-1.3-.4.03-.09-.22 1.25-.98 1.41-.43"/><ellipse fill="#fefefe" rx="2.2" ry=".54" transform="rotate(-22.5 432.227 -176.644)"/><path fill="#fefefe" d="M124.35 151.15a.38.37-38.8 0 1 .66.07q.25.64-.2 1.28-.39.55-.63-.08-.25-.65.17-1.27M92.14 151.27q-.31 1.58-1.17 2.78l-.23.99q.2-.44.4-.87-2.29 1.54-3.64.87-.5-.24-.2-.71 1.5-2.42 4.84-3.06M152.37 162.19q.13-.54-.09-1.15.88.39 1.56.19a.46.46 0 0 0 .13-.81q-.81-.55-1.87-.27l-2.09-7.1q1.73.59 2.32 2.52a.2.2 0 0 0 .39-.02q.26-1.21 1.34-1.88a.46.45 53.6 0 0 .1-.69q-.25-.29-.3-.72a.75.74-8.5 0 1 .6-.8q.87-.17.96.24.18.76-.45 1.2-1.34.92-.15 1.89a.6.6 0 0 1 .04.9q-.37.35-.85.58-.83.39.05.66.17.05.34.12.39.15.39.56l.07 3.31q.01.51-.48.66zM149.09 152.87q-.05 1.53-.63 2.73-1.54-1-2.63-.55-.46.19-.42.69.09.99-.67 1.04l-1.21-1.96 1.69-2.51q.3-.44.8-.3zM159.2 154.99l-.26-.54q.22-.28.24-.62.03-.56-.52-.64l-1.49-.22a.38.37 83.3 0 1-.3-.24l-.18-.47q-.16-.42.29-.4l2.71.11q1.44.06 1.19 1.48-.33 1.9-1.68 1.54M167.7 154.49q-.53 1.65 2.75 1.48a.81.81 0 0 1 .86.79q.07 2.07.89 3.55.01.22-.29.75l-5.61-2.58-.6-1.19.87-2.7a.43.43 0 0 0-.22-.51l-.31-.14q-.43-.2-.59.25l-.51 1.5q-.3.86-.73.06l-2.11-3.94zM102.28 155.67q-.13 1.84-1.63 2.6-.21.1-.1.3v.01q.1.2.29.07 1.88-1.38 3.7.03l-1.3 3.96-4.18 2.68-.24-.5q2.52-1.92 3.7-4.44a.67.67 0 0 0-.83-.92q-2.25.77-4.61.29l.01-.85q.57-.84 1.87-.76a.69.69 0 0 0 .61-1.08q-1.03-1.48-2.52-.82l.01-2.61q1.01.67 2.02.94.42.11.8-.1l3.25-1.82q.79-.44.44.4-.95 2.25-3.04 2.1-.66-.05-.39.56l.14.32q.04.08.12.08 1.01.03 1.88-.44M116.18 154.99q-.41-1.18-.09-2.21.89.4.56 1.93-.1.47-.47.28M114.98 153.04q.12 2.67-1 4.94-1.2.25-1.11 1.67.03.43.46.46.2.02.36.14a.17.17 0 0 1-.16.29q-1.18-.43-2.26.69l-1.3-2.26q1.2-.05 2.04-.77.64-.55-.18-.35-.58.14-1.21.03-.41-.07-.29-.47.11-.36.49-.36 2.54.03 3.15-2.92.09-.42.37-.71.29-.32.64-.38M129.07 153.83q-.38.07-.61-.28-.14-.21.11-.26.37-.07.61.25.18.23-.11.29"/><path fill="#000100" d="m90.97 154.05-.23.99zM172.27 155.68q-.25 2.77.98 3.99-.51.2-1.05.64-.82-1.48-.89-3.55a.81.81 0 0 0-.86-.79q-3.28.17-2.75-1.48z"/><path fill="#fefefe" d="M131.87 154.74q.46 2.25-.43 3.53-.58.83-1.37.55-.7-.25-1.34-1.18l1.44-.8q.44-.25.65-.71.41-.91 1.05-1.39M102.28 155.67q.03-.45.57-.58a.33.32 81.1 0 1 .4.3q.04.43-.97.28"/><path fill="#000100" d="m148.46 155.6-.75 2.43q-.16.51-.7.52-1.36.03-2.27-1.77.76-.05.67-1.04-.04-.5.42-.69 1.09-.45 2.63.55"/><path fill="#fefefe" d="M162.87 155.55q.32.47.79.76.69.42-.1.6-.26.06-.52.06-.35-.01-.51-.31-.29-.49-.14-1.03a.27.27 0 0 1 .48-.08M176.16 157.09q-.1 1.45.6 2.93.22.46-.12.82l-.32.35q-.79.85.35.68l.82-.12q.54-.08.47.46-.1.84-.72 1.36-.4.33-.91.28l-1.34-.14q-.54-2.55-1.74-4.04-1.23-1.22-.98-3.99c1.34.97 2.54.09 3.89 1.41"/><path fill="#000100" d="m97.09 158.9-.04-2.66q1.49-.66 2.52.82a.69.69 0 0 1-.61 1.08q-1.3-.08-1.87.76"/><path fill="#fefefe" d="M85.99 157.1q-.43-.21-.85-.75 2.96-.34 4.51.86a.41.41 0 0 1-.21.73q-1.41.16-3.45-.84M157.59 156.3l-1.49 3.5q-.67-3.42 1.49-3.5M161.4 161.24l-1.5-4.29q.74-.39 1.2.46 1.1 2.01.3 3.83M134.08 158.45l-.61-1.47q1.52-.36 1.61.78.07.83-1 .69M140.28 159.46l-.38 1.87q-.35.95-.75-.49-.18-.66-.64-.16l-.54.59q-.39.42-.89.15-.9-.49-1.81-.23l-.69-1.07 1.96-2.75q.32-.45.86-.32 1.25.3 2.24 1.25.16.16.22.38.03.13-.1.21-.25.14-.05.34.21.2.57.23"/><path fill="#000100" d="M177.02 157.16q.17 1.66.9 2.65a1.54 1.54 0 0 0 1.91.47l3.33-1.62q.62-.03 1.89.41-1.97 3.24-.92 5.65.77 1.77-.85.72-1.43-.93-.98-3.58.17-1-.79-.67-2.2.76-1.21 1.25l-.36 4.97q-1.88-1.27-4.45-1.97-.5-.54-.5-1.73l1.34.14q.51.05.91-.28.62-.52.72-1.36.07-.54-.47-.46l-.82.12q-1.14.17-.35-.68l.32-.35q.34-.36.12-.82-.7-1.48-.6-2.93zm2.25 6.72q.11-.17.09-.38-.05-.5-.44-.18l-1.03.86a.42.41-58.5 0 0 .17.73q1.01.23 1.12-.79.02-.13.09-.24"/><path fill="#fefefe" d="m183.16 158.66-3.33 1.62a1.54 1.54 0 0 1-1.91-.47q-.73-.99-.9-2.65z"/><path fill="#000100" d="m113.98 157.98-.11 4.15a.81.81 0 0 1-1.3.62q-.89-.69-1.3-1.52 1.08-1.12 2.26-.69a.17.17 0 0 0 .16-.29q-.16-.12-.36-.14-.43-.03-.46-.46-.09-1.42 1.11-1.67"/><path fill="#fefefe" d="m164.84 158.82-.9 2.74q-1.53-.81-1.46-2.86.02-.53.55-.62.91-.14 1.81.74"/><path fill="#000100" d="m123.41 158.43-1.34 3.97q-.16.49-.12 1 .17 1.76-.93 3.13-.37.46-.94.45-.72-.02-1.01-.94.71-.17.62-.82-.05-.42-.36-.13-.27.26-.41.75l-2.34-4.94c1.96.33 2.3 1.79 3.69 2.76q.71.49.46-.34-.27-.93-.7-1.73a.54.54 0 0 1 .41-.8q1.33-.18 1.26-.73-.01 0-.01-.01-.06-.22-.28-.17-1.44.33-1.57.27-3.16-1.2.17-1.76 1.46-.24 3.4.04M171.91 161.06q.15.45-.05 1.14l-2.88-.04q-.53-.01-.6.53-.13 1.07.55 1.66 1.39 1.24 1.71 2.31-.08 2.49-2.72-.97.2-1.88-.94-2.58-1.46-1.59-.68-4.63zm-4.36 0q.7.27.8.26 1.28-.13.15-.74-.77-.42-1.54-.11-.58.24-.03.54.29.16.62.05"/><path fill="#000100" d="m116.34 160-.02-1.26q.48-.1.87.02.59.19.09.55z"/><path fill="#fefefe" d="M193.78 159.46q-.13.73.03 1.11.26.59.72.14.55-.53.67-1.4.58.03.76.37l-.18 1q-.11.66-.73.93-.75.34-1.29 1.01-.53.67-.8-.14-.31-.91-1.32-1.3-.1-.03-.17.04l-.34.31q-.26.26.03.49l2.05 1.6q.44.35.87-.02 3-2.57 7.16-1.65.4.09.8.01l1.27-.27q.64-.13.36-.72l-.15-.33q-.2-.43-.63-.2l-1.42.77q-.65.35-.7-.39-.05-.65.6-1.59 1.59-.52 2.41.02.74.48.49 1.83-.3 1.57-1.04 2.87-1.56-.02-2.85-.89a.49.48-53.6 0 0-.65.1l-.18.22a.34.33-53.1 0 0 .06.48l.91.66a.76.74-54 0 1 .16 1.06q-.29.4-.38.89-.11.59.49.58h.41a.7.7 0 0 0 .69-.58q.24-1.32.91-1.31l-2.32 5.85-1.45-.08q-1.08-1.82-.77-3.56l.47.71q.28.43.76.25.35-.13.44-.53.05-.25-.03-.48t-.32-.3q-.59-.17-.33-.72.1-.22.31-.35.58-.37-.07-.59-.7-.25-1.78.72-.78-1.14-.46-2.6a.46.46 0 0 0-.35-.54l-.31-.08q-.34-.08-.44.25l-1.46 4.58q-1.91-.9-2.12-2.49-.33-2.41-1.65-.37-.46.71-2.32 1.22-.46-.58-.46-1.32.05-.37-.03-.71.01-2.06-1.12-1.49a.52.5 82.9 0 0-.26.35l-1.04 5.14-.65-.69q-.38-.42-.83-.07-.4.32-.6 1.13l-3.31-5.95q-.99-.49 1.21-1.25.96-.33.79.67-.45 2.65.98 3.58 1.62 1.05.85-.72-1.05-2.41.92-5.65l5.11.38q.49.04.95-.09 1.53-.4 2.67.1m-3.103 3.721a.69.3-26.6 0 0-.751.04.69.3-26.6 0 0-.483.578.69.3-26.6 0 0 .751-.04.69.3-26.6 0 0 .483-.578m7.193.579q.39.29.82.18.91-.23.04-.57-.35-.13-.78-.01-.45.12-.08.4"/><path fill="#000100" d="M195.2 159.31q-.12.87-.67 1.4-.46.45-.72-.14-.16-.38-.03-1.11 1.09-.63 1.42-.15"/><path fill="#000100" d="M201.37 159.23q-.65.94-.6 1.59.05.74.7.39l1.42-.77q.43-.23.63.2l.15.33q.28.59-.36.72l-1.27.27q-.4.08-.8-.01-4.16-.92-7.16 1.65-.43.37-.87.02l-2.05-1.6q-.29-.23-.03-.49l.34-.31q.07-.07.17-.04 1.01.39 1.32 1.3.27.81.8.14.54-.67 1.29-1.01.62-.27.73-.93l.18-1zM98.82 164.82q-.92-.79-.77-2.54.5.92 1.2.87a.58.58 0 0 0 .4-.96q-.94-1.11-2.07-.9-.71-.31-.5-1.54 2.36.48 4.61-.29a.67.67 0 0 1 .83.92q-1.18 2.52-3.7 4.44M152.28 161.04q-.39-.41-.18-.89 1.06-.28 1.87.27a.46.46 0 0 1-.13.81q-.68.2-1.56-.19M139.9 161.33l-.22 3.72a.54.54 0 0 1-.84.41q-2.57-1.73-3.57-4.27.91-.26 1.81.23.5.27.89-.15l.54-.59q.46-.5.64.16.4 1.44.75.49"/><path fill="#fefefe" d="M167.55 161.06q-.33.11-.62-.05-.55-.3.03-.54.77-.31 1.54.11 1.13.61-.15.74-.1.01-.8-.26M98.05 162.28q-.35-.38-.47-.99 1.13-.21 2.07.9a.58.58 0 0 1-.4.96q-.7.05-1.2-.87M171.86 162.2q-1.11 2.1-1.22 4.46-.32-1.07-1.71-2.31-.68-.59-.55-1.66.07-.54.6-.53z"/><path fill="#000100" d="m103.24 162.64-.85 4.59q-.1.53-.64.45-1.87-.29-2.69-2.36z"/><path fill="#fefefe" d="M167.92 165.69q-.95-.9-.94-2.58 1.14.7.94 2.58M179.18 164.12q-.11 1.02-1.12.79a.42.41-58.5 0 1-.17-.73l1.03-.86q.39-.32.44.18.02.21-.09.38-.07.11-.09.24"/><ellipse fill="#000100" rx=".69" ry=".3" transform="rotate(-26.6 440.836 -320.26)"/><path fill="#000100" d="M197.87 163.76q-.37-.28.08-.4.43-.12.78.01.87.34-.04.57-.43.11-.82-.18"/><path fill="#000100" d="m203.23 163.95-.43 1.21q-.67-.01-.91 1.31a.7.7 0 0 1-.69.58h-.41q-.6.01-.49-.58.09-.49.38-.89a.76.74-54 0 0-.16-1.06l-.91-.66a.34.33-53.1 0 1-.06-.48l.18-.22a.49.48-53.6 0 1 .65-.1q1.29.87 2.85.89M188.14 164.73l-.03-.71q.08.34.03.71M194.69 167.69l-.92 4.1-2.06-6.06q-.21-.61-.64-.13l-.25.28a.91.91 0 0 0-.16.94l1.85 4.53a.5.5 0 0 1-.62.66l-1.65-.55-1.64-5.41q1.86-.51 2.32-1.22 1.32-2.04 1.65.37.21 1.59 2.12 2.49"/><path fill="#fefefe" d="M119.07 166.04q-.08-.1-.15-.2.14-.49.41-.75.31-.29.36.13.09.65-.62.82M179.94 167.41l-.17 3.15q-.26.13-.48.36c-1.91-.29-2.92-3.86-3.8-5.48q2.57.7 4.45 1.97"/><path fill="#000100" d="m198.26 167.37-.55-1.29q1.08-.97 1.78-.72.65.22.07.59-.21.13-.31.35-.26.55.33.72.24.07.32.3t.03.48q-.09.4-.44.53-.48.18-.76-.25z"/><path fill="#fefefe" d="M193.77 171.79q.09 1.27-.81 2.13-1.12-.07-1.86-.4l-.86-2.06 1.65.55a.5.5 0 0 0 .62-.66l-1.85-4.53a.91.91 0 0 1 .16-.94l.25-.28q.43-.48.64.13z"/><path fill="#000100" d="M185.69 168.02q.28.75.21 1.44a.63.63 0 0 1-.86.52q-.94-.37-1.43-1.59.2-.81.6-1.13.45-.35.83.07zM179.77 170.56q-.13.33-.48.36.22-.23.48-.36M200.48 171.01q-.2.59-.51.81a.56.56 0 0 1-.73-.05q-.37-.38-.21-.84zM192.96 173.92q.09.62-.08 1-.24.53-.77.29-1.05-.5-1.01-1.69.74.33 1.86.4"/></svg>