<svg xmlns="http://www.w3.org/2000/svg" viewBox="0 0 382 382"><g fill="none" stroke="gray" stroke-width="2"><path d="M87.34 140.14q2.48 1.68 5.63 1.08M95.12 141.71q.06.18.03.32-.05.31-.37.29-1.88-.09-3.5.56-.54.22-1.09 0-1.29-.52-2.67-.87-.11-.02-.21-.02-.27.02-.32.2-.11.37.24.52.78.35 1.15 1.1.26.53-.31.39l-.71-.17a.71.71 0 0 0-.7 1.17q1.25 1.36 3.01 2.38.89.51.33-.36l-1.26-1.96q-.18-.28.11-.45l.27-.17q.03-.01.14.13l3.03 3.94a1.04 1.04 0 0 0 .59.37l3.85.86M96.01 151.01l-2.51-.65M92.33 150.67l-5.77-4.16q-.18-.13-.14.09l.59 3.36q.04.27.29.39l4.36 2.12a.08.06-38 0 0 .07 0q.1-.06.18-.18" vector-effect="non-scaling-stroke"/><path d="m91.41 153.14-3.77-1.47q-.71-.28-.46.44l.73 2.12q.16.47-.29.69-.41.21-.89.08-.58-.15-.63-.76l-.18-2.44q-.04-.51-.41-.88-.62-.6-.39-1.47.28-1.11-.2-1.38M83.44 143.29q-1.79-1.54-1.32-2.67M90.04 158.82l-1.42-2.24q-.26-.41-.73-.31l-2.07.46M99.44 143.36q-1.48.6-2.96-.3a.03.03 0 0 0-.05.01l-.1.25q-.13.34.23.41 2.37.46 4.17 1.94.49.4.76-.16l.61-1.25M110.18 147.06l-6.3 2.71q-.61.26-.83-.35-.37-1-1.01-1.81-.61-.76-.4.19l.33 1.5q.13.62-.48.76-2.04.44-3.89-.2M97.15 147.81q-.16-1.51-.69-2.61-.25-.51-.27.06-.1 2.07.78 4.26M89.85 160.54q-1.56-2.12-2.58-1.08" vector-effect="non-scaling-stroke"/><path d="M113 148.19q.65 1.94.58 2.35-.49 2.94-1.58.17-.41-1.04-.7-2.07a.75.75 0 0 0-1.11-.45q-2.9 1.73-6.06 2.49a.77.77 0 0 0-.54 1.03q.29.74.08 1.46a.21.21 0 0 1-.39.03q-.32-.69-.26-1.43.05-.66-.6-.67l-4.89-.09M115.83 148.62q-.05.95.3 1.44.39.55.65-.07.23-.55 0-1.46M122.52 149.09q-2.06 2.9-4.9 4.69a.33.33 0 0 1-.51-.28q.01-2.93-1.35-1.65M114.72 155.59l-4.95 2.8M104.08 159.83q-.81-.92-.14-2.42.01-.02-.02-.03-.02 0-.04-.01-.08-.02-.08.06-.05.94-.77 1.35a.77.77 0 0 1-.92-.14q-.6-.61-1.34-1.01-1.06-.58-.27.33l1.34 1.54a.39.39 0 0 1-.29.65l-3.12.06q-.78.01-.79-.77l-.01-1.48q-.01-.64.63-.65.14-.01.27-.01.66-.03.22-.52l-1.61-1.81M113.88 158.7q-1.33-.82-3.59.58M103.79 161.5q-5.12-1.28-5.73.97M113.89 159.82q-1.5 1.32-.17 2.52M140.19 159.12l-3.54 4.51M134.1 158.21q1.09-2.67-.41-5.25a.39.39 0 0 0-.49-.17q-.16.07-.19.25M124.51 156.58l-.48-.13q-.62-.16-.7.48-.06.51.47.81M120.49 166.86q-.9-.31-1.46-.89M118.35 165.17q.44-.13.54-.41.12-.34-.23-.23-.18.06-.42.06M116.22 155.84l1.56 3q.57 1.1.38-.13l-.44-2.85q-.09-.58.34-.99l6.01-5.7M131.81 148.35l.74 2.58q.22.78.67.1.45-.69.49-1.51.03-.59.57-.84.72-.32.76-.92M135.63 147.48q.38 1.38 1.57 1 1.54-.49 2.83-1.4M102.71 164.97l-1.14 2.87M139.92 161.17l-2.58 3.06M143.49 146.57q-.07 3.06 1.4 5.34.28.43.05.9l-1.19 2.43M142.8 152.55l-.93-5.77M148.39 155.5q-.17-.87-.58-1.19-.49-.37-.64.22-.36 1.35.82 2.29M147.65 147.01q1.66 2.48 4.42 3.68.5.22.63-.32.14-.61-.04-1.55M154.05 149.47c-.64 2.92 1.58 3.96 3.9 4.56M157.95 154.03q.24.16.34.43M156.77 158.2q-1.61.87-1.6 4.08M152.23 161.09l1.74-4.31q.27-.68.87-.26.14.1.23.24a.23.21 57 0 0 .29.07q.78-.48 1.18-1.26.34-.69-.32-1.08l-1.54-.89a.41.4 12.8 0 0-.61.38q.12 1.28-.67 1.67-.56.27-.95-.22l-2.19-2.7" vector-effect="non-scaling-stroke"/><path d="M149.98 152.53q.14-.22.34-.37.46-.35.93-.01.51.37.73 1.03.51 1.48.88-.04.19-.75-.37-1.11-.46-.29-.98-.38-2.24-.36-3.89-2.54a.34.33-61.5 0 0-.6.18l-.15 1.92q-.04.44-.48.36l-.93-.17q-.61-.11-.45-.71l.48-1.81q.15-.56-.03-1.1l-.43-1.29M169.01 154.97q-1.15 1.24-1.5 2.63-.3 1.2.5.26l1.31-1.57q.25-.29.31.09.04.24-.07.46-.43.8.4.44 1.05-.45 1.33-1.69M184.27 158.95q-.29 2.41-1.8 4.47-.15.2.05.35l.33.23a.26.25-54 0 0 .35-.06q1.64-2.29 2.3-4.86M189.07 159.37q-.02 1.47-1.16 3.12M185.9 165.72l-2.47-1.3q-.28-.14-.52.06-.14.11-.19.28-.16.6.46.68.96.12 1.72.76.74.63-.16.99l-1.55.62M181.03 163.49q.51 0 .46-.43a.21.21 0 0 0-.27-.19q-.17.06-.19.37M180.29 162.71q.84-.6.04-1.55-2.12-2.49-2.89-3.29-.13-.13-.31-.07l-.56.18a.26.26 0 0 0-.11.43q2.18 2.39 3.29 5.23M179.86 167.26q-1.58-.39-3.46.12M173.84 159.99q1.18-.23 1.13-1.64-.02-.63-.52-.25-.63.47-.61 1.89M172.24 159.41l.1-.38q.15-.54-.39-.42-.91.2-1.23.88-1.3 2.82-2.89 5.51M164.76 159.34q-.61.21-.32.87M161.39 161.25q.31-.46-.11-.72M158.8 154.48q.29-.25.76-.22.67.04.56-.62-.1-.54.4-1.04.66-.69-.19-.25-.92.47-1.33 1.42a.56.55 16.1 0 1-.6.33l-.45-.07M159.35 151.1l-1.4 2.93M185.68 168.79q-.46.45-1.07.53M179.73 168.23l-2.75-.05M172.24 159.41l-3.64 6.68M195.04 159.14q4.73 2.26 9.05 2.59M202.29 166.13l-1.74-.52q-.75-.22-.42.49.18.38.49.69.4.41.36.98-.13 2.02-2.3 2.59M198 166.72q1.09-.77 1.38-2.11.08-.39.43-.58.2-.1.37-.25.73-.63-.12-.18-1.38.74-2.84-.6M196.73 162.76q-.36-.85-1.1-1.22-.51-.25-.57.32-.04.4.08.67.2.47.83.41M194.1 169.77q-2.15-.94-4.57-.77M189.34 168.71q.97-1.35 2.47-2.22.44-.25.36-.74-.08-.45-.29-.74a.77.77 0 0 0-1.34.17q-.54 1.37-1.37 2.09M187.98 163.16q2.13-1.08 2.11-3.99M191.05 173.05l1.82-1.29q.41-.3.16-.74-.81-1.4-2.93-.75M203.85 159.17q-2.28 1.74-4.67.32" vector-effect="non-scaling-stroke"/><path d="M190.61 171.88q.47.18.92-.07.3-.16.24-.38a.37.36 74.9 0 0-.43-.26q-.8.18-.73.71M83.29 141.49q.04.15.22.2.29.08.29-.21 0-.21-.17-.29-.51-.22-.34.3M84.87 142.77q.01.08.08.1.25.07.18-.18-.02-.05-.07-.07-.23-.09-.19.15M119.18 162.97c-.11-1.06-.72-1.12-1.03-1.86q-.29-.65-.21.06.13 1.16.85 1.97.47.53.39-.17M112.83 152.92q-.11 1.14.51 1.89a.4.4 0 0 0 .71-.22q.1-1.13-.53-1.88a.39.39 0 0 0-.69.21M163.85 154.42q-.1-.49-.25-.01-.32 1.1-.01 2.23.21.78.33-.02.16-1.12-.07-2.2M167.47 161.56a.27.27 0 0 0-.27-.27.27.27 0 0 0-.27.27.27.27 0 0 0 .27.27.27.27 0 0 0 .27-.27M192.45 163.82q1.32-1.39 1.83-3.17a.4.4 0 0 0-.26-.49l-.31-.11q-.39-.13-.47.27-.33 1.63-1.57 2.73-.3.26-.03.56l.19.21a.43.43 0 0 0 .62 0" vector-effect="non-scaling-stroke"/></g><path d="M87.34 140.14q2.48 1.68 5.63 1.08 1.04-.31 2.15.49.06.18.03.32-.05.31-.37.29-1.88-.09-3.5.56-.54.22-1.09 0-1.29-.52-2.67-.87-.11-.02-.21-.02-.27.02-.32.2-.11.37.24.52.78.35 1.15 1.1.26.53-.31.39l-.71-.17a.71.71 0 0 0-.7 1.17q1.25 1.36 3.01 2.38.89.51.33-.36l-1.26-1.96q-.18-.28.11-.45l.27-.17q.03-.01.14.13l3.03 3.94a1.04 1.04 0 0 0 .59.37l3.85.86q.45.33-.72 1.07l-2.51-.65q-.56-.02-1.17.31l-5.77-4.16q-.18-.13-.14.09l.59 3.36q.04.27.29.39l4.36 2.12a.08.06-38 0 0 .07 0q.1-.06.18-.18-.04.59-.5.85l-3.77-1.47q-.71-.28-.46.44l.73 2.12q.16.47-.29.69-.41.21-.89.08-.58-.15-.63-.76l-.18-2.44q-.04-.51-.41-.88-.62-.6-.39-1.47.28-1.11-.2-1.38.18-3.47-1.48-4.78-1.79-1.54-1.32-2.67 2.3-.91 5.22-.48m-4.05 1.35q.04.15.22.2.29.08.29-.21 0-.21-.17-.29-.51-.22-.34.3m1.58 1.28q.01.08.08.1.25.07.18-.18-.02-.05-.07-.07-.23-.09-.19.15"/><path fill="#fff" d="M92.97 141.22q-3.15.6-5.63-1.08zM83.44 143.29l-1.91-.5q-.53-.13-.45-.68.11-.75 1.04-1.49-.47 1.13 1.32 2.67M83.29 141.49q-.17-.52.34-.3.17.08.17.29 0 .29-.29.21-.18-.05-.22-.2M99.44 143.36q-1.48.6-2.96-.3a.03.03 0 0 0-.05.01l-.1.25q-.13.34.23.41 2.37.46 4.17 1.94.49.4.76-.16l.61-1.25 8.08 2.8-6.3 2.71q-.61.26-.83-.35-.37-1-1.01-1.81-.61-.76-.4.19l.33 1.5q.13.62-.48.76-2.04.44-3.89-.2.46-1.41-.45-2.05-.16-1.51-.69-2.61-.25-.51-.27.06-.1 2.07.78 4.26-.18.19-.24.42l-3.85-.86a1.04 1.04 0 0 1-.59-.37l-3.03-3.94q-.11-.14-.14-.13l-.27.17q-.29.17-.11.45l1.26 1.96q.56.87-.33.36-1.76-1.02-3.01-2.38a.71.71 0 0 1 .7-1.17l.71.17q.57.14.31-.39-.37-.75-1.15-1.1-.35-.15-.24-.52.05-.18.32-.2.1 0 .21.02 1.38.35 2.67.87.55.22 1.09 0 1.62-.65 3.5-.56.32.02.37-.29.03-.14-.03-.32zM84.87 142.77q-.04-.24.19-.15.05.02.07.07.07.25-.18.18-.07-.02-.08-.1"/><path d="M99.44 143.36q1.15-.23 2.66.9l-.61 1.25q-.27.56-.76.16-1.8-1.48-4.17-1.94-.36-.07-.23-.41l.1-.25a.03.03 0 0 1 .05-.01q1.48.9 2.96.3M97.15 147.81l-.18 1.71q-.88-2.19-.78-4.26.02-.57.27-.06.53 1.1.69 2.61"/><path fill="#fff" d="m92.33 150.67-.42 1.62q-.08.12-.18.18a.08.06-38 0 1-.07 0l-4.36-2.12q-.25-.12-.29-.39l-.59-3.36q-.04-.22.14-.09z"/><path d="M143.49 146.57q-.07 3.06 1.4 5.34.28.43.05.9l-1.19 2.43q-.96-.8-.95-2.69l-.93-5.77q.39-.77 1.62-.21"/><path d="M147.65 147.01q1.66 2.48 4.42 3.68.5.22.63-.32.14-.61-.04-1.55.96.11 1.39.65c-.64 2.92 1.58 3.96 3.9 4.56q.24.16.34.43l-1.52 3.74q-1.61.87-1.6 4.08-.18.97-1.67.69-1.55-.3-1.27-1.88l1.74-4.31q.27-.68.87-.26.14.1.23.24a.23.21 57 0 0 .29.07q.78-.48 1.18-1.26.34-.69-.32-1.08l-1.54-.89a.41.4 12.8 0 0-.61.38q.12 1.28-.67 1.67-.56.27-.95-.22l-2.19-2.7q.11.35-.28-.2.14-.22.34-.37.46-.35.93-.01.51.37.73 1.03.51 1.48.88-.04.19-.75-.37-1.11-.46-.29-.98-.38-2.24-.36-3.89-2.54a.34.33-61.5 0 0-.6.18l-.15 1.92q-.04.44-.48.36l-.93-.17q-.61-.11-.45-.71l.48-1.81q.15-.56-.03-1.1l-.43-1.29q1.49-.59 2.62.52"/><path fill="#fff" d="m145.03 146.49.43 1.29q.18.54.03 1.1l-.48 1.81q-.16.6.45.71l.93.17q.44.08.48-.36l.15-1.92a.34.33-61.5 0 1 .6-.18q1.65 2.18 3.89 2.54.52.09.98.38.56.36.37 1.11-.37 1.52-.88.04-.22-.66-.73-1.03-.47-.34-.93.01-.2.15-.34.37-.43-.22-.74.21-.55.79-.85 2.76-.17-.87-.58-1.19-.49-.37-.64.22-.36 1.35.82 2.29-.11.68-.4 1.13a1.06 1.05-46.8 0 1-1.71.06l-2.13-2.77 1.19-2.43q.23-.47-.05-.9-1.47-2.28-1.4-5.34zM141.87 146.78l.93 5.77q-1.06-.95-1.38.69-.59 3.06-1.23 5.88l-3.54 4.51q-1.89-2.83-2.55-5.42 1.09-2.67-.41-5.25a.39.39 0 0 0-.49-.17q-.16.07-.19.25-.37-.21-.57.49-.62 2.14-.92 4.4a1.07 1.07 0 0 1-1.83.6q-1.83-1.89-3.19-4.27a.46.46 0 0 0-.81.01l-1.18 2.31-.48-.13q-.62-.16-.7.48-.06.51.47.81-1.73 3.22-1.72 4.32.03 2.86-1.59 4.8-.9-.31-1.46-.89l-.68-.8q.44-.13.54-.41.12-.34-.23-.23-.18.06-.42.06-2.25-3.93-2.02-8.75l1.56 3q.57 1.1.38-.13l-.44-2.85q-.09-.58.34-.99l6.01-5.7 7.74-.82.74 2.58q.22.78.67.1.45-.69.49-1.51.03-.59.57-.84.72-.32.76-.92.33-.1.59-.28.38 1.38 1.57 1 1.54-.49 2.83-1.4.9-.32 1.84-.3m-22.69 16.19c-.11-1.06-.72-1.12-1.03-1.86q-.29-.65-.21.06.13 1.16.85 1.97.47.53.39-.17"/><path d="M113 148.19q.65 1.94.58 2.35-.49 2.94-1.58.17-.41-1.04-.7-2.07a.75.75 0 0 0-1.11-.45q-2.9 1.73-6.06 2.49a.77.77 0 0 0-.54 1.03q.29.74.08 1.46a.21.21 0 0 1-.39.03q-.32-.69-.26-1.43.05-.66-.6-.67l-4.89-.09-.3-.49q-.18-.3.07-.54.13-.12.3-.12 1.85.64 3.89.2.61-.14.48-.76l-.33-1.5q-.21-.95.4-.19.64.81 1.01 1.81.22.61.83.35l6.3-2.71q1.7-.1 2.82 1.13M140.03 147.08q-1.29.91-2.83 1.4-1.19.38-1.57-1 2.01-.61 4.4-.4"/><path fill="#fff" d="M152.66 148.82q.18.94.04 1.55-.13.54-.63.32-2.76-1.2-4.42-3.68 2.85.49 5.01 1.81"/><path d="M135.04 147.76q-.04.6-.76.92-.54.25-.57.84-.04.82-.49 1.51-.45.68-.67-.1l-.74-2.58z"/><path fill="#fff" d="M84.92 148.07q.48.27.2 1.38-.23.87.39 1.47.37.37.41.88l.18 2.44q.05.61.63.76.48.13.89-.08.45-.22.29-.69l-.73-2.12q-.25-.72.46-.44l3.77 1.47-1.37 5.68-1.42-2.24q-.26-.41-.73-.31l-2.07.46q-2.17-4.34-.9-8.66M113 148.19l2.83.43q-.05.95.3 1.44.39.55.65-.07.23-.55 0-1.46l5.74.56q-2.06 2.9-4.9 4.69a.33.33 0 0 1-.51-.28q.01-2.93-1.35-1.65-1.14 1.6-1.04 3.74l-4.95 2.8q-1.49-3.28-1.76-5.53-.3-2.55-1.37-.22-1.49 3.27-2.56 7.19-.81-.92-.14-2.42.01-.02-.02-.03-.02 0-.04-.01-.08-.02-.08.06-.05.94-.77 1.35a.77.77 0 0 1-.92-.14q-.6-.61-1.34-1.01-1.06-.58-.27.33l1.34 1.54a.39.39 0 0 1-.29.65l-3.12.06q-.78.01-.79-.77l-.01-1.48q-.01-.64.63-.65.14-.01.27-.01.66-.03.22-.52l-1.61-1.81q-.4-2.2.39-3.96l4.89.09q.65.01.6.67-.06.74.26 1.43a.21.21 0 0 0 .39-.03q.21-.72-.08-1.46a.77.77 0 0 1 .54-1.03q3.16-.76 6.06-2.49a.75.75 0 0 1 1.11.45q.29 1.03.7 2.07 1.09 2.77 1.58-.17.07-.41-.58-2.35m-.17 4.73q-.11 1.14.51 1.89a.4.4 0 0 0 .71-.22q.1-1.13-.53-1.88a.39.39 0 0 0-.69.21"/><path d="M116.78 148.53q.23.91 0 1.46-.26.62-.65.07-.35-.49-.3-1.44.43-.2.95-.09M124.07 149.17l-6.01 5.7q-.43.41-.34.99l.44 2.85q.19 1.23-.38.13l-1.56-3-.46-3.99q1.36-1.28 1.35 1.65a.33.33 0 0 0 .51.28q2.84-1.79 4.9-4.69z"/><path fill="#fff" d="m159.35 151.1-1.4 2.93c-2.32-.6-4.54-1.64-3.9-4.56zM96.01 151.01l-.48 2.02a.65.65 0 0 1-1.21.14q-.7-1.39-.82-2.81z"/><path d="M169.01 154.97q-1.15 1.24-1.5 2.63-.3 1.2.5.26l1.31-1.57q.25-.29.31.09.04.24-.07.46-.43.8.4.44 1.05-.45 1.33-1.69 5.11 1.05 10.01 2.95c1.06.41 1.89.13 2.97.41q-.29 2.41-1.8 4.47-.15.2.05.35l.33.23a.26.25-54 0 0 .35-.06q1.64-2.29 2.3-4.86l3.57.29q-.02 1.47-1.16 3.12-.18-.07-.36-.07-.45-.01-.6.42l-1.05 2.88-2.47-1.3q-.28-.14-.52.06-.14.11-.19.28-.16.6.46.68.96.12 1.72.76.74.63-.16.99l-1.55.62-2.16-4.32q.51 0 .46-.43a.21.21 0 0 0-.27-.19q-.17.06-.19.37l-.74-.53q.84-.6.04-1.55-2.12-2.49-2.89-3.29-.13-.13-.31-.07l-.56.18a.26.26 0 0 0-.11.43q2.18 2.39 3.29 5.23.47 1.57.11 3.62-1.58-.39-3.46.12l-2.56-7.39q1.18-.23 1.13-1.64-.02-.63-.52-.25-.63.47-.61 1.89l-1.6-.58.1-.38q.15-.54-.39-.42-.91.2-1.23.88-1.3 2.82-2.89 5.51-2.16-3.29-1.74-7.33a.42.41-80.7 0 0-.32-.45l-.28-.06q-.29-.07-.35.22l-.38 1.96q-.61.21-.32.87-.04 1.18-.72 1.8-.56.5-1.26.24-.68-.26-1.07-1 .31-.46-.11-.72c-.48-.44-.75-.77-.86-1.47q-.35-2.42-1.62-4.58.29-.25.76-.22.67.04.56-.62-.1-.54.4-1.04.66-.69-.19-.25-.92.47-1.33 1.42a.56.55 16.1 0 1-.6.33l-.45-.07 1.4-2.93q2.43.03 5.4 1.98.83.55 4.26 1.89m-5.16-.55q-.1-.49-.25-.01-.32 1.1-.01 2.23.21.78.33-.02.16-1.12-.07-2.2m3.62 7.14a.27.27 0 0 0-.27-.27.27.27 0 0 0-.27.27.27.27 0 0 0 .27.27.27.27 0 0 0 .27-.27"/><path fill="#fff" d="m158.8 154.48-.51-.02q-.1-.27-.34-.43l.45.07a.56.55 16.1 0 0 .6-.33q.41-.95 1.33-1.42.85-.44.19.25-.5.5-.4 1.04.11.66-.56.62-.47-.03-.76.22"/><path d="M112.83 152.92a.39.39 0 0 1 .69-.21q.63.75.53 1.88a.4.4 0 0 1-.71.22q-.62-.75-.51-1.89M134.1 158.21q-1.56-2.35-1.09-5.17.03-.18.19-.25a.39.39 0 0 1 .49.17q1.5 2.58.41 5.25"/><path fill="#fff" d="m152.23 161.09-1.97-8.36 2.19 2.7q.39.49.95.22.79-.39.67-1.67a.41.4 12.8 0 1 .61-.38l1.54.89q.66.39.32 1.08-.4.78-1.18 1.26a.23.21 57 0 1-.29-.07q-.09-.14-.23-.24-.6-.42-.87.26z"/><path d="M148.39 155.5q.11.8-.4 1.32-1.18-.94-.82-2.29.15-.59.64-.22.41.32.58 1.19"/><path fill="#fff" d="M163.85 154.42q.23 1.08.07 2.2-.12.8-.33.02-.31-1.13.01-2.23.15-.48.25.01"/><path d="m104.08 159.83-.29 1.67q-5.12-1.28-5.73.97-1.38-2.94-.92-7.5l1.61 1.81q.44.49-.22.52-.13 0-.27.01-.64.01-.63.65l.01 1.48q.01.78.79.77l3.12-.06a.39.39 0 0 0 .29-.65l-1.34-1.54q-.79-.91.27-.33.74.4 1.34 1.01a.77.77 0 0 0 .92.14q.72-.41.77-1.35 0-.08.08-.06.02.01.04.01.03.01.02.03-.67 1.5.14 2.42"/><path fill="#fff" d="M169.01 154.97q1.24-.01 2.28.62-.28 1.24-1.33 1.69-.83.36-.4-.44.11-.22.07-.46-.06-.38-.31-.09l-1.31 1.57q-.8.94-.5-.26.35-1.39 1.5-2.63"/><path d="M114.72 155.59q-.09 1.75-.84 3.11-1.33-.82-3.59.58-.45-.49-.52-.89zM90.04 158.82l-.19 1.72q-1.56-2.12-2.58-1.08-1.02-1.08-1.45-2.73l2.07-.46q.47-.1.73.31zM124.51 156.58l-.71 1.16q-.53-.3-.47-.81.08-.64.7-.48z"/><path fill="#fff" d="M173.84 159.99q-.02-1.42.61-1.89.5-.38.52.25.05 1.41-1.13 1.64M180.29 162.71l-.54.93q-1.11-2.84-3.29-5.23a.26.26 0 0 1 .11-.43l.56-.18q.18-.06.31.07.77.8 2.89 3.29.8.95-.04 1.55M113.88 158.7q.12.61.01 1.12-1.5 1.32-.17 2.52-.02.24-.14.37-.33.36-.7.04-1.71-1.43-2.59-3.47 2.26-1.4 3.59-.58M156.77 158.2q-.42 2.11-1.6 4.08-.01-3.21 1.6-4.08M172.24 159.41l-3.64 6.68q-.83-.31-.77-1.09 1.59-2.69 2.89-5.51.32-.68 1.23-.88.54-.12.39.42zM89.85 160.54q-.86 1.22-2.58-1.08 1.02-1.04 2.58 1.08M185.5 159.08q-.66 2.57-2.3 4.86a.26.25-54 0 1-.35.06l-.33-.23q-.2-.15-.05-.35 1.51-2.06 1.8-4.47z"/><path d="M195.04 159.14q4.73 2.26 9.05 2.59l-1.8 4.4-1.74-.52q-.75-.22-.42.49.18.38.49.69.4.41.36.98-.13 2.02-2.3 2.59l-.68-3.64q1.09-.77 1.38-2.11.08-.39.43-.58.2-.1.37-.25.73-.63-.12-.18-1.38.74-2.84-.6l-.49-.24q-.36-.85-1.1-1.22-.51-.25-.57.32-.04.4.08.67.2.47.83.41l-1.87 6.83q-2.15-.94-4.57-.77l-.19-.29q.97-1.35 2.47-2.22.44-.25.36-.74-.08-.45-.29-.74a.77.77 0 0 0-1.34.17q-.54 1.37-1.37 2.09l-1.19-4.11q2.13-1.08 2.11-3.99zm-2.59 4.68q1.32-1.39 1.83-3.17a.4.4 0 0 0-.26-.49l-.31-.11q-.39-.13-.47.27-.33 1.63-1.57 2.73-.3.26-.03.56l.19.21a.43.43 0 0 0 .62 0M203.85 159.17q-2.28 1.74-4.67.32 2.27-.7 4.67-.32M140.19 159.12l-.27 2.05-2.58 3.06q-.36-.43-.69-.6z"/><path fill="#fff" d="M164.76 159.34q-.01.56-.32.87-.29-.66.32-.87M190.09 159.17q.02 2.91-2.11 3.99.08-.72-.07-.67 1.14-1.65 1.16-3.12zM195.04 159.14l4.14.35q2.39 1.42 4.67-.32 1.11 1.2.24 2.56-4.32-.33-9.05-2.59"/><path d="m172.24 159.41-1.85 7.47q-.13.52-.62.31-.78-.33-1.17-1.1zM113.89 159.82q.24 1.26-.17 2.52-1.33-1.2.17-2.52"/><path fill="#fff" d="M192.45 163.82a.43.43 0 0 1-.62 0l-.19-.21q-.27-.3.03-.56 1.24-1.1 1.57-2.73.08-.4.47-.27l.31.11a.4.4 0 0 1 .26.49q-.51 1.78-1.83 3.17M161.39 161.25q-.19-.35-.11-.72.42.26.11.72"/><path d="M118.15 161.11c.31.74.92.8 1.03 1.86q.08.7-.39.17-.72-.81-.85-1.97-.08-.71.21-.06"/><path fill="#fff" d="m103.79 161.5-1.08 3.47-1.14 2.87q-2.68-1.69-3.51-5.37.61-2.25 5.73-.97M139.92 161.17l-.29 3.52q-.04.52-.57.46-1.13-.13-1.72-.92z"/><circle cx="167.2" cy="161.56" r=".27" fill="#fff"/><path fill="#fff" d="m196.73 162.76-.76.18q-.63.06-.83-.41-.12-.27-.08-.67.06-.57.57-.32.74.37 1.1 1.22M181.03 163.49v-.25q.02-.31.19-.37a.21.21 0 0 1 .27.19q.05.43-.46.43M198 166.72l-.78-3.72q1.46 1.34 2.84.6.85-.45.12.18-.17.15-.37.25-.35.19-.43.58-.29 1.34-1.38 2.11"/><path d="M118.35 165.17q-.01-.35-.11-.58.24 0 .42-.06.35-.11.23.23-.1.28-.54.41"/><path fill="#fff" d="m185.9 165.72-.22 3.07q-.46.45-1.07.53-1.46-.53-1.42-1.51l1.55-.62q.9-.36.16-.99-.76-.64-1.72-.76-.62-.08-.46-.68.05-.17.19-.28.24-.2.52-.06zM189.34 168.71q-.34-.81-.17-1.44.83-.72 1.37-2.09a.77.77 0 0 1 1.34-.17q.21.29.29.74.08.49-.36.74-1.5.87-2.47 2.22"/><path d="M102.71 164.97q.63 3.02-1.14 2.87z"/><path fill="#fff" d="m202.29 166.13-1.97 5.33a.67.67 0 0 1-1.27-.01l-.37-1.09q2.17-.57 2.3-2.59.04-.57-.36-.98-.31-.31-.49-.69-.33-.71.42-.49z"/><path d="M120.49 166.86q-1.16.34-1.46-.89.56.58 1.46.89"/><path fill="#fff" d="M179.86 167.26q.12.62-.13.97l-2.75-.05q-.51-.16-.58-.8 1.88-.51 3.46-.12"/><path d="M179.73 168.23q.2 1.03-.06 1.97-.15.52-.67.42-1.79-.35-2.02-2.44zM185.68 168.79q.1.38 0 .64-.13.3-.47.25-.32-.05-.6-.36.61-.08 1.07-.53"/><path fill="#fff" d="M194.1 169.77q-.16 2.9-1.37 5.25-.24.47-.66.15-1.03-.78-1.02-2.12l1.82-1.29q.41-.3.16-.74-.81-1.4-2.93-.75l-.57-1.27q2.42-.17 4.57.77"/><path d="M191.05 173.05q-.49-.61-.44-1.17.47.18.92-.07.3-.16.24-.38a.37.36 74.9 0 0-.43-.26q-.8.18-.73.71-.67-.13-.51-1.61 2.12-.65 2.93.75.25.44-.16.74z"/><path fill="#fff" d="M190.61 171.88q-.07-.53.73-.71a.37.36 74.9 0 1 .43.26q.06.22-.24.38-.45.25-.92.07"/></svg>