<svg xmlns="http://www.w3.org/2000/svg" viewBox="0 0 382 382"><g fill="none" stroke="#7f7f7f" stroke-width="2"><path d="M85.81 140.2q-.31.07-.14.23.08.08.19.08.38.03.28-.43M91.44 140.68l-1.63 2.2a.36.36 0 0 0 .13.54l.27.13q.09.05.16-.03 1.42-1.76 3.74-1.87M94.96 141.71q-.15.04-.29.08-.25.08-.25.34c.02 1.16-.8 2.17-1.69 2.81q-.17.12-.05.29v.01q.12.17.3.06 1.91-1.17 2.74-3.24M97.41 142.5l-.63.27q-.45.19-.64.64-1.63 3.99-4.93 6.45c-.8.6-.89 1.27-1.28 2.1-.78 1.64-2.91 3.41-4.16 4.86M84.54 153.43l2.3-1.5q.41-.27.9-.26 1.55.01 1.77-1.8a.74.73-81.9 0 0-.61-.82q-2.05-.34-4.15.42M84.57 148.46q3.24-1.39 4.01-3.14 1.33-3.02-.9-.58-.96 1.05-2.57 2.5M84.98 146.1q1.98-4.3-.42-1.96" vector-effect="non-scaling-stroke"/><path d="M97.09 142.55q2.04 3.13 5.96 4.17" vector-effect="non-scaling-stroke"/><path d="M103.05 146.72q.35.44.21.85-.18.55-.75.4-1.74-.48-3.28.25-.66.31-.31-.33.26-.48.74-.78a.47.46 45.2 0 0 0-.79l-2.13-1.38q-.63-.4-1.05.21l-3.59 5.3M91.53 152.64l-5.26 4.85M84.55 152.29q.81-.45 1.09-1.09.24-.53-.32-.71-.44-.15-.83.22M102.32 144.17q-.11 1.49.73 2.55M112.32 147.78q-1.47.49-3.11.47-.29 0-.28.29v.25a.29.28 86.3 0 0 .31.28q1.51-.13 2.47 1.22a1.02 1.01-61.6 0 1 .19.65q-.04.63.66.73a.59.59 0 0 1 .47.8q-.3.74-.7.48-.26-.16-.27-.46-.02-.48-.21-.91-.24-.53-.78-.35-1.31.44-1.59-1-.09-.44-.45-.7l-2.22-1.61a.4.4 0 0 0-.64.33l.01 1.02q0 .59-.58.46-.17-.04-.29.07-.6.55.16.82.9.33.93 1.22.03.73-.7.67-.84-.08-1.15-.82-.25-.61-.54-.02-1.42 2.9-1.65 5.89-.02.32.3.34l.27.01q.28.01.34-.26l.83-4.06q.15-.69.82-.47.55.19 1.12.69M103.66 161.07l-.68-1.41q-.24-.49-.78-.39-.78.13-1.55-.2-.45-.19-.28.27.04.13.1.25.15.3.43.46c1.65.97.89 2.76.53 4.16q-.13.49-.59.68-1.12.48-.81 1.57M97.89 162.03q.59-.84.54-1.63-.03-.55-.59-.52-.53.03-.72.38" vector-effect="non-scaling-stroke"/><path d="M97.11 156.98q.31.54.99.65.51.08.67-.4l1.34-3.96q.2-.59.79-.39.63.21 1.23-.05.69-.3.02-.62-.35-.17-.74-.22-.58-.09-.44-.65.29-1.17 1.32-1.47a1.37 1.36 53.1 0 1 1.11.16q.45.29.79-.07a.54.54 0 0 0-.37-.91l-5.85-.29M96.62 149.99q-.43-.84-.93-.85-.54-.02-.17.37.67.71.57 1.25" vector-effect="non-scaling-stroke"/><path d="M96.09 150.76q-1.37-.07-1.67.53-.36.72 1.2 1.44M105.75 145.31q.23.86.14 1.72a.78.78 0 0 1-1.36.45q-.53-.59-1.48-.76M115.73 148.27q.23 1.31 1.4 1.1.33-.06.78-.69M119.73 149.03l-1.08 1.18q-.35.37-.16.85l.38.93q.21.54.77.4 3.14-.8 3.99-3.25M140.7 155.96l-2.37-.3q-.7-.09-.65.61l.1 1.26q.04.53-.41.83-.13.1-.29.16-.23.1-.03.24.21.15.41-.03 1.19-1.05 3.04-.97M140.42 158.79q-.73.11-1.23.49-.42.33-.31.85.11.48-.3.71-.52.28-.52.86l.01 1.53q0 .65.64.57.58-.08 1.21-.56M136.75 163.78q.29-1.15-.05-2.23-.1-.33.14-.57.15-.14.37-.07.18.05.2-.14.01-.05-.01-.1-.1-.23-.37-.14-.9.33-1.81.7M134.87 160.42l1.12-1.25q.46-.52-.22-.64-.59-.1-1.51.49M134.03 157.94q.14-1.04-.8-1.89M133.09 155.14q.96.89 1.53.71a.61.61 0 0 0 .18-1.07q-.73-.55-1.76-.8M131.9 155.23q-2.29-.9-5.06-.45M122 162.25l-.52-.42q-.39-.32-.36-.81.07-1.41-1.36-1.77-.44-.12-.45.33l-.04 1.36a.64.64 0 0 0 .67.65l.58-.03a.37.37 0 0 1 .37.48q-.81 2.53.59 3.16M116.92 161.28q.31-.36.31-.72 0-.41-.41-.39-.14.01-.29.11M116.46 160.04q.49-.97 1.28-1.71.33-.3-.06-.52l-1.58-.91M116.13 153.1q2.13.76-.15-2.85-.27-.42-.47.03-2.13 4.83-6.39 6.99M108.69 155.65q.32-.29.46-.63.2-.53-.26-.85-.28-.19-.64-.23M108.04 152.01q.89.1 1.62.82a.24.24 0 0 0 .4-.09l.1-.25a.28.28 0 0 0-.12-.34q-1.23-.7-2.19-1.84-.3-.36-.75-.25-.17.05-.28.18-.26.31-.07.66.23.43.23.8M97.12 156.26q2.12-1.14 1.84-3.62-.05-.43-.43-.21-.52.31-1.22-.13M97.35 150.78l1.47.74q.74.37 1-.41.11-.35.33-.61.51-.6-.27-.63l-2.41-.09M101.53 167.71q.45-.81.35-1.37t-.65-.45q-.66.12-1.2.57" vector-effect="non-scaling-stroke"/><path d="M114.83 154.33q-1.4.38-1.31 1.74.03.53.56.48.18-.01.38-.12M113.71 162.35c-1.27-1.29-.3-3.18-.05-4.72q.07-.37-.3-.26l-.61.19a.62.6 86.3 0 0-.42.49l-.58 3.46M140.93 155.5q-2.25-.48-3.92-1.61a1.29 1.25 59.5 0 0-.76-.21l-1.03.04q-.71.03-.87-.67-.09-.35-.36-.58-.4-.34-.93-.3-4.85.39-5.29-3.13M135.03 147.86q-.09.5.29.78a.23.23 0 0 0 .36-.13q.14-.53-.48-.82M149.23 147.19q-1.11 1.92-1.44 4.24-.09.66-.74.81l-1.04.24a.5.49 55.3 0 0-.16.89q.63.43.69 1.12.04.58-.45.88l-1.82 1.09M144.27 156.46q.31-.94-.21-.98M144.28 155.15q-.31-3.13-4.2-6.41a.62.62 0 0 0-.98.26l-.56 1.48a.46.45-65.3 0 0 .21.57q.22.12.47.08.61-.09.44.5-.1.32-.44.24-.55-.12-.92.31-1.14 1.33-2.39-.27a.84.84 0 0 1 .11-1.16q.43-.37.92-.36.57.01.77-.52l1.07-2.81M150.96 148.11q-1.72 1.36-2.02 3.88-.06.49-.41.84-1.7 1.75-.07 3.87M146.21 146.66l-.6 1.61q-.22.57.35.36l.39-.13q.66-.24.54.45-.18 1.04-1.14 1.9a1.41 1.4-44.2 0 1-1.91-.02l-3.95-3.73M159.17 151.09q2.28 2.36 4.93 1.97M166.31 153.85q-1.34 1.31-3.49 1.75-.48.1-.94-.1-1.09-.46-2.75.06M158.76 154.62l.98-.59q.78-.46-.05-.84-.29-.14-.62-.16-.42-.03-.62-.41-.25-.48.16-.88.28-.26.02-.54-.1-.11-.23-.17a.73.72 32.6 0 0-.84.18q-.64.73-1.48.74M156.08 151.95q-.33-.52-.94-.24-.46.22-.93.04-.72-.28-1.49-.49-.21-.05-.4.06-.13.08-.1.29.03.22.24.31.99.39 1.61 1.22.12.15-.02.29l-.17.19a.59.58 39.4 0 1-.77.07q-1.47-1.04-3.41-.77" vector-effect="non-scaling-stroke"/><path d="M142.9 146.32q.18.86-.14 1.48-.27.54-.71.14t-.3-1.07M169.85 155.22q-1.14.27-1.52.75-.36.46.18.69 3.65 1.58 7.59.23M176.23 157.1q.11.4.52.34.2-.02.13-.2-.03-.08-.09-.16M177.52 157.28q.18.53.09.9-.12.5-.64.51-1.77.03-2.92 1.4M172.02 161.58q-.67-.4-1.34.08-.39.29-.87.19-.57-.11-1.05-.43-.3-.2-.61.01-.36.24-.21.65a.62.61-21.4 0 1-.34.77q-.25.11-.62.11M166.82 162.02q.23-.4-.23-.56M166.26 159.49q.4.04.47-.48.14-1.04-.43-1.11M163.42 162.39q-.43-.75-.11-1.53.21-.51-.19-.9-.8-.75-1.87-1.08a.86.85 2.9 0 1-.59-.65l-.1-.49q-.06-.31-.32-.13-.22.16.05.52M156.08 151.95q-1.04-.28-1.16.3-.3 1.45.76 2.24a.33.33 0 0 1-.05.56q-.58.3-1.18.06-1.9-.74-3.97-1.21" vector-effect="non-scaling-stroke"/><path d="m158.05 154.71-.43-1.17q-.17-.46-.58-.19-.16.11-.22.31a.32.32 0 0 1-.63-.07l-.11-1.64M157.18 156.59q-2.45-.59-5.97.29M187.03 159.12q.26 1.06-.2 1.89-.27.48-.76.23-.61-.3-1.25.2-.04.04-.03.1l.1.42q.07.3.36.22.53-.14.99-.46.49-.32.85.13.32.41.09.77M185.96 165.35q-1.12.02-2.02-1.16-.09-.11-.23-.14-.17-.03-.32 0-.39.09-.24.46.81 1.99 2.62 2.26M185.62 167.37q-1.49-.3-2.66.06M181.26 163.96q1.23-.67 1.78-1.82.38-.79-.37-.34-1.05.62-1.99.18-.62-.28-.06-.67 1.09-.75 2.25-.11.27.14.56.05.39-.14.51-.54a.43.43 0 0 0-.37-.55c-1.23-.11-2.7-.13-3.71.66q-1.21.97-2.87 1.07a.51.5-17.8 0 0-.4.77q.5.8-.09 1.56-.33.42-.17.93.38 1.26-.05 2.31M170.5 165.88q-1.39.25-2.5-.18M168 165.7q-.44-1.6 1.1-2 .2-.05.14-.25t-.25-.12q-.92.4-1.89.67M156.28 159.66l-3.92 2.6M188.22 159.34q.69.42 1.83.53.53.05.67.56.59 2.18 3.43 1.97.58-.05.78-.59.49-1.31 1.66-2.67M197.01 159.35q-.31 1.38-.98 2.7-.13.26-.09.44.05.26.34.36M195.85 163.96q-.61-1.11-.46 1.26M194.58 167.87q-.86-.49-1.7.08-.12.09-.27.11-.2.03-.33-.16-.23-.34-.03-.71.35-.63-.11-1.18-.39-.45-.21-1.01l.13-.42a.81.81 0 0 0-.4-.96q-1.61-.83-2.48-2.29-.36-.59-.72 0-.43.69-.45 1.67" vector-effect="non-scaling-stroke"/><path d="M179.84 163.03q-1.58-.17-1.73.56-.75 3.72 1.76 3.9M155.59 162.01q-1.42-.05-2.55.78M198.77 159.62l.95 1.97q.25.52-.21.85-.34.24-.73.36a1.68 1.58-71.1 0 0-.55.29q-.33.25 0 .71a.61.58-14.6 0 0 .45.25q.81.06 1.56.32.76.27.61 1.05-.11.52-.6.79a.33.33 0 0 0 .02.58l1.43.7M200.27 171.55l-1.25-.57M198.8 170.51l.48-.5q.36-.37.28-.88-.47-2.86-2-3.51M194.13 169.21q-1.14-.33-1.95.34-.43.36-.06.79.52.58 1.65.02M193.7 171.21q-.71-.04-1.2.44-.47.47-.28 1.08.19.63.83.98M190.49 171.38q2.14-5.45-1.81-5.53M204.14 161.42q-1.41.3-2.35 1.16-.37.33.02.66.65.55.96 1.39M204.38 160.72q-.6-.65-2.43.54a1.02 1.01-37.9 0 1-1.3-.16q-.57-.61-.67-1.75M85.73 141.11a.12.11 40.9 0 0-.18.01q-.2.28.06.57.19.21.25-.06.07-.3-.13-.52M89.37 147.51q-.23.29-.1.61a.15.15 0 0 0 .23.06q.25-.19.29-.49.1-.82-.42-.18M140.14 150.37q-.21.1-.03.25.15.13.33.01.21-.14-.02-.26-.13-.08-.28 0M141.762 152.645a.67.34 13.4 0 0-.573-.486.67.34 13.4 0 0-.73.176.67.34 13.4 0 0 .572.486.67.34 13.4 0 0 .73-.176M112.37 149.68q.32.6.92.97.65.41.35-.3-.3-.7-1.04-.95-.46-.15-.23.28M123.96 152.22q.1-.22.08-.47-.06-.64-.6-.29l-2.15 1.38q-.64.41.03.76.45.24.4.75a.7.69 1.4 0 0 .73.76q1.24-.08 2.07-.93.46-.48-.04-.91l-.34-.29q-.37-.32-.18-.76M125.66 152.26q.06-.17-.09-.32-.26-.27-.36.1-.13.54.15.98.03.03.3-.76M128.36 152.95q.23.01.43-.14.47-.36-.08-.57-.57-.22-1.13-.21-.64.01-.85.61l-.28.82q-.33.97.5.36.37-.27.71-.6.29-.28.7-.27M118.7 156.19l.26.42q.4.64.89.05.45-.55 1.03-.87.66-.38.01-.79-1.83-1.13-3.47.68-.7.77.33.62.33-.05.58-.2a.28.27-31 0 1 .37.09M136.586 156.956a.82.61 84 0 0 .52-.88.82.61 84 0 0-.692-.751.82.61 84 0 0-.52.879.82.61 84 0 0 .692.751M120.56 157.73q.19.5.56.81.38.31.77-.01.46-.39.7-.92.32-.72-.46-.82-.92-.12-1.47.46a.46.46 0 0 0-.1.48" vector-effect="non-scaling-stroke"/><path d="M123.44 153.17q-.64-.15-1.2.13-.65.32.02.59.76.31 1.32-.16a.33.32 31.3 0 0-.14-.56M170.937 159.236a1.58.82 14.9 0 0-1.316-1.198 1.58.82 14.9 0 0-1.738.386 1.58.82 14.9 0 0 1.316 1.198 1.58.82 14.9 0 0 1.738-.386M178.418 159.396a1.12.41-41.6 0 0-1.11.437 1.12.41-41.6 0 0-.565 1.05 1.12.41-41.6 0 0 1.11-.436 1.12.41-41.6 0 0 .564-1.05M193.855 163.59a.55.44-25.9 0 0-.687-.156.55.44-25.9 0 0-.303.636.55.44-25.9 0 0 .687.156.55.44-25.9 0 0 .303-.636" vector-effect="non-scaling-stroke"/></g><path fill="#010101" d="M85.81 140.2q-.31.07-.14.23.08.08.19.08.38.03.28-.43l5.3.6-1.63 2.2a.36.36 0 0 0 .13.54l.27.13q.09.05.16-.03 1.42-1.76 3.74-1.87.25-.49.85.06-.15.04-.29.08-.25.08-.25.34c.02 1.16-.8 2.17-1.69 2.81q-.17.12-.05.29v.01q.12.17.3.06 1.91-1.17 2.74-3.24.76-.07 1.69.44l-.63.27q-.45.19-.64.64-1.63 3.99-4.93 6.45c-.8.6-.89 1.27-1.28 2.1-.78 1.64-2.91 3.41-4.16 4.86l-1.23-3.39 2.3-1.5q.41-.27.9-.26 1.55.01 1.77-1.8a.74.73-81.9 0 0-.61-.82q-2.05-.34-4.15.42-.35-.57-.18-1.01 3.24-1.39 4.01-3.14 1.33-3.02-.9-.58-.96 1.05-2.57 2.5-.37-.87-.13-1.14 1.98-4.3-.42-1.96-1.3-1.17-2.92-1.28a.77.76 17.9 0 1-.6-1.16q1.46-2.36 4.77-1.5m-.08.91a.12.11 40.9 0 0-.18.01q-.2.28.06.57.19.21.25-.06.07-.3-.13-.52m3.64 6.4q-.23.29-.1.61a.15.15 0 0 0 .23.06q.25-.19.29-.49.1-.82-.42-.18"/><path fill="#fdfdfc" d="M86.14 140.08q.1.46-.28.43-.11 0-.19-.08-.17-.16.14-.23-.15-.15.33-.12M91.44 140.68q1.61.28 2.67.97-2.32.11-3.74 1.87-.07.08-.16.03l-.27-.13a.36.36 0 0 1-.13-.54zM85.73 141.11q.2.22.13.52-.06.27-.25.06-.26-.29-.06-.57a.12.11 40.9 0 1 .18-.01M94.96 141.71l.76.35q-.83 2.07-2.74 3.24-.18.11-.3-.06v-.01q-.12-.17.05-.29c.89-.64 1.71-1.65 1.69-2.81q0-.26.25-.34.14-.04.29-.08M97.09 142.55q2.04 3.13 5.96 4.17.35.44.21.85-.18.55-.75.4-1.74-.48-3.28.25-.66.31-.31-.33.26-.48.74-.78a.47.46 45.2 0 0 0-.79l-2.13-1.38q-.63-.4-1.05.21l-3.59 5.3-1.36 2.19-5.26 4.85q-.29-.73-.5-.67c1.25-1.45 3.38-3.22 4.16-4.86.39-.83.48-1.5 1.28-2.1q3.3-2.46 4.93-6.45.19-.45.64-.64l.63-.27q-.16.03-.32.05"/><path fill="#010101" d="M102.32 144.17q-.11 1.49.73 2.55-3.92-1.04-5.96-4.17z"/><path fill="#fdfdfc" d="m84.98 146.1-.42-1.96q2.4-2.34.42 1.96M84.57 148.46q.02-.69.54-1.22 1.61-1.45 2.57-2.5 2.23-2.44.9.58-.77 1.75-4.01 3.14M105.75 145.31q.23.86.14 1.72a.78.78 0 0 1-1.36.45q-.53-.59-1.48-.76-.84-1.06-.73-2.55z"/><path fill="#010101" d="M103.05 146.72q.95.17 1.48.76a.78.78 0 0 0 1.36-.45q.09-.86-.14-1.72l6.57 2.47q-1.47.49-3.11.47-.29 0-.28.29v.25a.29.28 86.3 0 0 .31.28q1.51-.13 2.47 1.22a1.02 1.01-61.6 0 1 .19.65q-.04.63.66.73a.59.59 0 0 1 .47.8q-.3.74-.7.48-.26-.16-.27-.46-.02-.48-.21-.91-.24-.53-.78-.35-1.31.44-1.59-1-.09-.44-.45-.7l-2.22-1.61a.4.4 0 0 0-.64.33l.01 1.02q0 .59-.58.46-.17-.04-.29.07-.6.55.16.82.9.33.93 1.22.03.73-.7.67-.84-.08-1.15-.82-.25-.61-.54-.02-1.42 2.9-1.65 5.89-.02.32.3.34l.27.01q.28.01.34-.26l.83-4.06q.15-.69.82-.47.55.19 1.12.69l-2.38 7.26-.68-1.41q-.24-.49-.78-.39-.78.13-1.55-.2-.45-.19-.28.27.04.13.1.25.15.3.43.46c1.65.97.89 2.76.53 4.16q-.13.49-.59.68-1.12.48-.81 1.57-1.88-2.03-2.14-4.43.59-.84.54-1.63-.03-.55-.59-.52-.53.03-.72.38l-.01-3.28q.31.54.99.65.51.08.67-.4l1.34-3.96q.2-.59.79-.39.63.21 1.23-.05.69-.3.02-.62-.35-.17-.74-.22-.58-.09-.44-.65.29-1.17 1.32-1.47a1.37 1.36 53.1 0 1 1.11.16q.45.29.79-.07a.54.54 0 0 0-.37-.91l-5.85-.29q-.17-2.37-1.35 1.23-.43-.84-.93-.85-.54-.02-.17.37.67.71.57 1.25-1.37-.07-1.67.53-.36.72 1.2 1.44-1.23 2.15-2.73-2.28l3.59-5.3q.42-.61 1.05-.21l2.13 1.38a.47.46 45.2 0 1 0 .79q-.48.3-.74.78-.35.64.31.33 1.54-.73 3.28-.25.57.15.75-.4.14-.41-.21-.85"/><path fill="#fdfdfc" d="M142.9 146.32q.18.86-.14 1.48-.27.54-.71.14t-.3-1.07q.59-.59 1.15-.55"/><path fill="#010101" d="m146.21 146.66-.6 1.61q-.22.57.35.36l.39-.13q.66-.24.54.45-.18 1.04-1.14 1.9a1.41 1.4-44.2 0 1-1.91-.02l-3.95-3.73q1.01-.38 1.86-.23-.14.67.3 1.07t.71-.14q.32-.62.14-1.48 1.77-.19 3.31.34"/><path fill="#fdfdfc" d="m146.21 146.66 3.02.53q-1.11 1.92-1.44 4.24-.09.66-.74.81l-1.04.24a.5.49 55.3 0 0-.16.89q.63.43.69 1.12.04.58-.45.88l-1.82 1.09q.31-.94-.21-.98.11-.17.22-.33-.31-3.13-4.2-6.41a.62.62 0 0 0-.98.26l-.56 1.48a.46.45-65.3 0 0 .21.57q.22.12.47.08.61-.09.44.5-.1.32-.44.24-.55-.12-.92.31-1.14 1.33-2.39-.27a.84.84 0 0 1 .11-1.16q.43-.37.92-.36.57.01.77-.52l1.07-2.81 1.11.04 3.95 3.73a1.41 1.4-44.2 0 0 1.91.02q.96-.86 1.14-1.9.12-.69-.54-.45l-.39.13q-.57.21-.35-.36z"/><path fill="#010101" d="m138.78 147.06-1.07 2.81q-.2.53-.77.52-.49-.01-.92.36a.84.84 0 0 0-.11 1.16q1.25 1.6 2.39.27.37-.43.92-.31.34.08.44-.24.17-.59-.44-.5-.25.04-.47-.08a.46.45-65.3 0 1-.21-.57l.56-1.48a.62.62 0 0 1 .98-.26q3.89 3.28 4.2 6.41-1.04-.62-1.53-2.05a.48.47-44.1 0 0-.89-.01l-.93 2.41q-2.25-.48-3.92-1.61a1.29 1.25 59.5 0 0-.76-.21l-1.03.04q-.71.03-.87-.67-.09-.35-.36-.58-.4-.34-.93-.3-4.85.39-5.29-3.13l7.26-1.18q-.09.5.29.78a.23.23 0 0 0 .36-.13q.14-.53-.48-.82 1.78-.61 3.58-.63m1.36 3.31q-.21.1-.03.25.15.13.33.01.21-.14-.02-.26-.13-.08-.28 0m1.622 2.275a.67.34 13.4 0 0-.573-.486.67.34 13.4 0 0-.73.176.67.34 13.4 0 0 .572.486.67.34 13.4 0 0 .73-.176"/><path fill="#fdfdfc" d="M89.79 147.69q-.04.3-.29.49a.15.15 0 0 1-.23-.06q-.13-.32.1-.61.52-.64.42.18"/><path fill="#010101" d="M150.96 148.11q-1.72 1.36-2.02 3.88-.06.49-.41.84-1.7 1.75-.07 3.87l-1.2 1.53q-.33.43-.82.22-1.41-.61-2.17-1.99l1.82-1.09q.49-.3.45-.88-.06-.69-.69-1.12a.5.49 55.3 0 1 .16-.89l1.04-.24q.65-.15.74-.81.33-2.32 1.44-4.24 1.17.15 1.73.92"/><path fill="#fdfdfc" d="M115.73 148.27q.23 1.31 1.4 1.1.33-.06.78-.69.97.02 1.82.35l-1.08 1.18q-.35.37-.16.85l.38.93q.21.54.77.4 3.14-.8 3.99-3.25l4.14-.1q.44 3.52 5.29 3.13.53-.04.93.3.27.23.36.58.16.7.87.67l1.03-.04a1.29 1.25 59.5 0 1 .76.21q1.67 1.13 3.92 1.61-.11.23-.23.46l-2.37-.3q-.7-.09-.65.61l.1 1.26q.04.53-.41.83-.13.1-.29.16-.23.1-.03.24.21.15.41-.03 1.19-1.05 3.04-.97l-.08 1.03q-.73.11-1.23.49-.42.33-.31.85.11.48-.3.71-.52.28-.52.86l.01 1.53q0 .65.64.57.58-.08 1.21-.56.16 1.12-.08 1.91-.15.51-.67.39-1.73-.38-2.42-1.76.29-1.15-.05-2.23-.1-.33.14-.57.15-.14.37-.07.18.05.2-.14.01-.05-.01-.1-.1-.23-.37-.14-.9.33-1.81.7l-.35-.81 1.12-1.25q.46-.52-.22-.64-.59-.1-1.51.49l-.23-1.08q.14-1.04-.8-1.89-.16-.37-.14-.91.96.89 1.53.71a.61.61 0 0 0 .18-1.07q-.73-.55-1.76-.8-1.27-1.72-1.14 1.25-2.29-.9-5.06-.45-.46-1.13-1.79 1.22-1.7 3.02-3.05 6.25l-.52-.42q-.39-.32-.36-.81.07-1.41-1.36-1.77-.44-.12-.45.33l-.04 1.36a.64.64 0 0 0 .67.65l.58-.03a.37.37 0 0 1 .37.48q-.81 2.53.59 3.16-.34 1.31-1.05 1.62-.49.21-.87-.16-2.22-2.17-2.64-5.38.31-.36.31-.72 0-.41-.41-.39-.14.01-.29.11-.03-.12-.07-.24.49-.97 1.28-1.71.33-.3-.06-.52l-1.58-.91.03-3.8q2.13.76-.15-2.85-.27-.42-.47.03-2.13 4.83-6.39 6.99l-.43-1.62q.32-.29.46-.63.2-.53-.26-.85-.28-.19-.64-.23-.3-.96-.21-1.93.89.1 1.62.82a.24.24 0 0 0 .4-.09l.1-.25a.28.28 0 0 0-.12-.34q-1.23-.7-2.19-1.84-.3-.36-.75-.25-.17.05-.28.18-.26.31-.07.66.23.43.23.8-.65.81-.94 2.11-.57-.5-1.12-.69-.67-.22-.82.47l-.83 4.06q-.06.27-.34.26l-.27-.01q-.32-.02-.3-.34.23-2.99 1.65-5.89.29-.59.54.02.31.74 1.15.82.73.06.7-.67-.03-.89-.93-1.22-.76-.27-.16-.82.12-.11.29-.07.58.13.58-.46l-.01-1.02a.4.4 0 0 1 .64-.33l2.22 1.61q.36.26.45.7.28 1.44 1.59 1 .54-.18.78.35.19.43.21.91.01.3.27.46.4.26.7-.48a.59.59 0 0 0-.47-.8q-.7-.1-.66-.73a1.02 1.01-61.6 0 0-.19-.65q-.96-1.35-2.47-1.22a.29.28 86.3 0 1-.31-.28v-.25q-.01-.29.28-.29 1.64.02 3.11-.47zm-3.36 1.41q.32.6.92.97.65.41.35-.3-.3-.7-1.04-.95-.46-.15-.23.28m11.59 2.54q.1-.22.08-.47-.06-.64-.6-.29l-2.15 1.38q-.64.41.03.76.45.24.4.75a.7.69 1.4 0 0 .73.76q1.24-.08 2.07-.93.46-.48-.04-.91l-.34-.29q-.37-.32-.18-.76m1.7.04q.06-.17-.09-.32-.26-.27-.36.1-.13.54.15.98.03.03.3-.76m2.7.69q.23.01.43-.14.47-.36-.08-.57-.57-.22-1.13-.21-.64.01-.85.61l-.28.82q-.33.97.5.36.37-.27.71-.6.29-.28.7-.27m-9.66 3.24.26.42q.4.64.89.05.45-.55 1.03-.87.66-.38.01-.79-1.83-1.13-3.47.68-.7.77.33.62.33-.05.58-.2a.28.27-31 0 1 .37.09m17.886.766a.82.61 84 0 0 .52-.88.82.61 84 0 0-.692-.751.82.61 84 0 0-.52.879.82.61 84 0 0 .692.751m-16.026.774q.19.5.56.81.38.31.77-.01.46-.39.7-.92.32-.72-.46-.82-.92-.12-1.47.46a.46.46 0 0 0-.1.48M135.2 147.69q.62.29.48.82a.23.23 0 0 1-.36.13q-.38-.28-.29-.78z"/><path fill="#010101" d="M117.91 148.68q-.45.63-.78.69-1.17.21-1.4-1.1z"/><path fill="#fdfdfc" d="M150.96 148.11c1.53.83 3.04.68 4.37 1.64q.41.29.9.34 1.66.17 2.94 1 2.28 2.36 4.93 1.97 1.73-.35 2.21.79-1.34 1.31-3.49 1.75-.48.1-.94-.1-1.09-.46-2.75.06.24-.41-.37-.94l.98-.59q.78-.46-.05-.84-.29-.14-.62-.16-.42-.03-.62-.41-.25-.48.16-.88.28-.26.02-.54-.1-.11-.23-.17a.73.72 32.6 0 0-.84.18q-.64.73-1.48.74-.33-.52-.94-.24-.46.22-.93.04-.72-.28-1.49-.49-.21-.05-.4.06-.13.08-.1.29.03.22.24.31.99.39 1.61 1.22.12.15-.02.29l-.17.19a.59.58 39.4 0 1-.77.07q-1.47-1.04-3.41-.77-.89-.29-1.24 3.78-1.63-2.12.07-3.87.35-.35.41-.84.3-2.52 2.02-3.88M97.11 156.98l.01-.72q2.12-1.14 1.84-3.62-.05-.43-.43-.21-.52.31-1.22-.13l.04-1.52 1.47.74q.74.37 1-.41.11-.35.33-.61.51-.6-.27-.63l-2.41-.09.5-1.02 5.85.29a.54.54 0 0 1 .37.91q-.34.36-.79.07a1.37 1.36 53.1 0 0-1.11-.16q-1.03.3-1.32 1.47-.14.56.44.65.39.05.74.22.67.32-.02.62-.6.26-1.23.05-.59-.2-.79.39l-1.34 3.96q-.16.48-.67.4-.68-.11-.99-.65M84.54 153.43l.01-1.14q.81-.45 1.09-1.09.24-.53-.32-.71-.44-.15-.83.22l.26-1.24q2.1-.76 4.15-.42a.74.73-81.9 0 1 .61.82q-.22 1.81-1.77 1.8-.49-.01-.9.26zM96.62 149.99l-.53.77q.1-.54-.57-1.25-.37-.39.17-.37.5.01.93.85"/><path fill="#010101" d="M123.63 149.14q-.85 2.45-3.99 3.25-.56.14-.77-.4l-.38-.93q-.19-.48.16-.85l1.08-1.18zM112.37 149.68q-.23-.43.23-.28.74.25 1.04.95.3.71-.35.3-.6-.37-.92-.97M97.47 149.78l2.41.09q.78.03.27.63-.22.26-.33.61-.26.78-1 .41l-1.47-.74q-.49-.86.12-1M116.13 153.1q-.05-.29-.2-.47-.42-.51-.61.12l-.49 1.58q-1.4.38-1.31 1.74.03.53.56.48.18-.01.38-.12l-.75 5.92c-1.27-1.29-.3-3.18-.05-4.72q.07-.37-.3-.26l-.61.19a.62.6 86.3 0 0-.42.49l-.58 3.46q-1.73-1.74-2.63-4.24 4.26-2.16 6.39-6.99.2-.45.47-.03 2.28 3.61.15 2.85M108.04 152.01q-.46-.72-1.06-.31 0-.37-.23-.8-.19-.35.07-.66.11-.13.28-.18.45-.11.75.25.96 1.14 2.19 1.84a.28.28 0 0 1 .12.34l-.1.25a.24.24 0 0 1-.4.09q-.73-.72-1.62-.82"/><path fill="#fdfdfc" d="M140.14 150.37q.15-.08.28 0 .23.12.02.26-.18.12-.33-.01-.18-.15.03-.25"/><path fill="#010101" d="M84.55 152.29q-.21-.78-.06-1.58.39-.37.83-.22.56.18.32.71-.28.64-1.09 1.09"/><path fill="#fdfdfc" d="M96.09 150.76q-.05 1-.47 1.97-1.56-.72-1.2-1.44.3-.6 1.67-.53"/><path fill="#010101" d="m158.76 154.62-.71.09-.43-1.17q-.17-.46-.58-.19-.16.11-.22.31a.32.32 0 0 1-.63-.07l-.11-1.64q.84-.01 1.48-.74a.73.72 32.6 0 1 .84-.18q.13.06.23.17.26.28-.02.54-.41.4-.16.88.2.38.62.41.33.02.62.16.83.38.05.84zM164.1 153.06q-2.65.39-4.93-1.97 2.71-.37 4.93 1.97M124.14 152.98l.34.29q.5.43.04.91-.83.85-2.07.93a.7.69 1.4 0 1-.73-.76q.05-.51-.4-.75-.67-.35-.03-.76l2.15-1.38q.54-.35.6.29.02.25-.08.47-.19.44.18.76m-.7.19q-.64-.15-1.2.13-.65.32.02.59.76.31 1.32-.16a.33.32 31.3 0 0-.14-.56"/><path fill="#010101" d="M156.08 151.95q-1.04-.28-1.16.3-.3 1.45.76 2.24a.33.33 0 0 1-.05.56q-.58.3-1.18.06-1.9-.74-3.97-1.21l-.78-.98q1.94-.27 3.41.77a.59.58 39.4 0 0 .77-.07l.17-.19q.14-.14.02-.29-.62-.83-1.61-1.22-.21-.09-.24-.31-.03-.21.1-.29.19-.11.4-.06.77.21 1.49.49.47.18.93-.04.61-.28.94.24M125.36 153.02q-.28-.44-.15-.98.1-.37.36-.1.15.15.09.32-.27.79-.3.76M97.12 156.26l.19-3.96q.7.44 1.22.13.38-.22.43.21.28 2.48-1.84 3.62M127.66 153.22q-.34.33-.71.6-.83.61-.5-.36l.28-.82q.21-.6.85-.61.56-.01 1.13.21.55.21.08.57-.2.15-.43.14-.41-.01-.7.27"/><path fill="#fdfdfc" d="m156.08 151.95.11 1.64a.32.32 0 0 0 .63.07q.06-.2.22-.31.41-.27.58.19l.43 1.17q-.06 1.54-.87 1.88-2.45-.59-5.97.29-.03-1.58-.73-2.98 2.07.47 3.97 1.21.6.24 1.18-.06a.33.33 0 0 0 .05-.56q-1.06-.79-.76-2.24.12-.58 1.16-.3"/><ellipse fill="#fdfdfc" rx=".67" ry=".34" transform="rotate(13.4 -578.488 676.851)"/><path fill="#010101" d="m91.53 152.64-1.64 7.72a.85.84-67.3 0 1-1.29.53q-1.98-1.3-2.33-3.4z"/><path fill="#fdfdfc" d="M123.44 153.17a.33.32 31.3 0 1 .14.56q-.56.47-1.32.16-.67-.27-.02-.59.56-.28 1.2-.13"/><path fill="#010101" d="M169.85 155.22q-1.14.27-1.52.75-.36.46.18.69 3.65 1.58 7.59.23.07.1.13.21.11.4.52.34.2-.02.13-.2-.03-.08-.09-.16.43 0 .73.2.18.53.09.9-.12.5-.64.51-1.77.03-2.92 1.4-.81-.42-1.55.1-.65.46-.48 1.39-.67-.4-1.34.08-.39.29-.87.19-.57-.11-1.05-.43-.3-.2-.61.01-.36.24-.21.65a.62.61-21.4 0 1-.34.77q-.25.11-.62.11-.3-.4-.16-.94.23-.4-.23-.56-.97-.91-.33-1.97.4.04.47-.48.14-1.04-.43-1.11-.34-.44-.65-.52-.55-.14-.57.43-.1 2.56-1.66 4.58-.43-.75-.11-1.53.21-.51-.19-.9-.8-.75-1.87-1.08a.86.85 2.9 0 1-.59-.65l-.1-.49q-.06-.31-.32-.13-.22.16.05.52l-1.16-2.57q1.66-.52 2.75-.06.46.2.94.1 2.15-.44 3.49-1.75 1.77.18 3.54 1.37m1.087 4.016a1.58.82 14.9 0 0-1.316-1.198 1.58.82 14.9 0 0-1.738.386 1.58.82 14.9 0 0 1.316 1.198 1.58.82 14.9 0 0 1.738-.386M108.69 155.65l-.44-1.71q.36.04.64.23.46.32.26.85-.14.34-.46.63M133.09 155.14q-.11-.49-.05-1.16 1.03.25 1.76.8a.61.61 0 0 1-.18 1.07q-.57.18-1.53-.71"/><path fill="#fdfdfc" d="M114.83 154.33q-.03 1.27-.37 2.1-.2.11-.38.12-.53.05-.56-.48-.09-1.36 1.31-1.74"/><path fill="#010101" d="M118.33 156.1q-.25.15-.58.2-1.03.15-.33-.62 1.64-1.81 3.47-.68.65.41-.01.79-.58.32-1.03.87-.49.59-.89-.05l-.26-.42a.28.27-31 0 0-.37-.09M131.9 155.23q.12 1.39-.34 2.91a1.05 1.05 0 0 1-1.7.49q-1.71-1.52-3.02-3.85 2.77-.45 5.06.45"/><ellipse fill="#010101" rx=".82" ry=".61" transform="rotate(84 -18.456 153.87)"/><path fill="#fdfdfc" d="m169.85 155.22 6.25 1.67q-3.94 1.35-7.59-.23-.54-.23-.18-.69.38-.48 1.52-.75"/><path fill="#010101" d="m140.7 155.96-.2 1.8q-1.85-.08-3.04.97-.2.18-.41.03-.2-.14.03-.24.16-.06.29-.16.45-.3.41-.83l-.1-1.26q-.05-.7.65-.61zM144.27 156.46q-.4-.31-.21-.98.52.04.21.98M134.03 157.94q-.95-.88-.8-1.89.94.85.8 1.89M157.18 156.59q-.17 2.04-.9 3.07l-3.92 2.6-1.15-5.38q3.52-.88 5.97-.29M120.56 157.73a.46.46 0 0 1 .1-.48q.55-.58 1.47-.46.78.1.46.82-.24.53-.7.92-.39.32-.77.01-.37-.31-.56-.81M116.46 160.04q-.46-1.53-.36-3.14l1.58.91q.39.22.06.52-.79.74-1.28 1.71"/><path fill="#fdfdfc" d="M176.79 157.08q.06.08.09.16.07.18-.13.2-.41.06-.52-.34.28-.11.56-.02M113.71 162.35q-.96 1.37-1.96-.84l.58-3.46a.62.6 86.3 0 1 .42-.49l.61-.19q.37-.11.3.26c-.25 1.54-1.22 3.43.05 4.72M187.03 159.12q.26 1.06-.2 1.89-.27.48-.76.23-.61-.3-1.25.2-.04.04-.03.1l.1.42q.07.3.36.22.53-.14.99-.46.49-.32.85.13.32.41.09.77-.88.94-1.22 2.73-1.12.02-2.02-1.16-.09-.11-.23-.14-.17-.03-.32 0-.39.09-.24.46.81 1.99 2.62 2.26 0 .2-.15.6-1.49-.3-2.66.06l-1.7-3.47q1.23-.67 1.78-1.82.38-.79-.37-.34-1.05.62-1.99.18-.62-.28-.06-.67 1.09-.75 2.25-.11.27.14.56.05.39-.14.51-.54a.43.43 0 0 0-.37-.55c-1.23-.11-2.7-.13-3.71.66q-1.21.97-2.87 1.07a.51.5-17.8 0 0-.4.77q.5.8-.09 1.56-.33.42-.17.93.38 1.26-.05 2.31-.46-2.03-1.77-4.71-.51-1.04-.46-2.66 1.15-1.37 2.92-1.4.52-.01.64-.51.09-.37-.09-.9zm-8.613.276a1.12.41-41.6 0 0-1.11.437 1.12.41-41.6 0 0-.564 1.05 1.12.41-41.6 0 0 1.11-.436 1.12.41-41.6 0 0 .564-1.05M163.42 162.39q-2.22-.11-3.13-4.26-.27-.36-.05-.52.26-.18.32.13l.1.49a.86.85 2.9 0 0 .59.65q1.07.33 1.87 1.08.4.39.19.9-.32.78.11 1.53M166.26 159.49q-.17-.85.04-1.59.57.07.43 1.11-.07.52-.47.48"/><ellipse fill="#fdfdfc" rx="1.58" ry=".82" transform="rotate(14.9 -522.607 727.181)"/><path fill="#010101" d="m134.87 160.42-.61-1.4q.92-.59 1.51-.49.68.12.22.64zM140.42 158.79l-.5 4.45q-.63.48-1.21.56-.64.08-.64-.57l-.01-1.53q0-.58.52-.86.41-.23.3-.71-.11-.52.31-.85.5-.38 1.23-.49"/><path fill="#fdfdfc" d="M103.66 161.07q-.87 2.99-.94 6.01a.88.88 0 0 1-.61.81q-.18.06-.58-.18.45-.81.35-1.37t-.65-.45q-.66.12-1.2.57-.31-1.09.81-1.57.46-.19.59-.68c.36-1.4 1.12-3.19-.53-4.16q-.28-.16-.43-.46-.06-.12-.1-.25-.17-.46.28-.27.77.33 1.55.2.54-.1.78.39z"/><path fill="#010101" d="M188.22 159.34q.69.42 1.83.53.53.05.67.56.59 2.18 3.43 1.97.58-.05.78-.59.49-1.31 1.66-2.67-.42.23.42.21-.31 1.38-.98 2.7-.13.26-.09.44.05.26.34.36-.34.45-.43 1.11-.61-1.11-.46 1.26l-.81 2.65q-.86-.49-1.7.08-.12.09-.27.11-.2.03-.33-.16-.23-.34-.03-.71.35-.63-.11-1.18-.39-.45-.21-1.01l.13-.42a.81.81 0 0 0-.4-.96q-1.61-.83-2.48-2.29-.36-.59-.72 0-.43.69-.45 1.67l-.83-.38q.23-.36-.09-.77-.36-.45-.85-.13-.46.32-.99.46-.29.08-.36-.22l-.1-.42q-.01-.06.03-.1.64-.5 1.25-.2.49.25.76-.23.46-.83.2-1.89.89-.18 1.19.22m5.635 4.25a.55.44-25.9 0 0-.687-.156.55.44-25.9 0 0-.303.636.55.44-25.9 0 0 .687.156.55.44-25.9 0 0 .303-.636"/><path fill="#fdfdfc" d="M196.59 159.14q-1.17 1.36-1.66 2.67-.2.54-.78.59-2.84.21-3.43-1.97-.14-.51-.67-.56-1.14-.11-1.83-.53zM204.38 160.72q-.6-.65-2.43.54a1.02 1.01-37.9 0 1-1.3-.16q-.57-.61-.67-1.75l3.3-.29q.53-.04.83.39.37.52.27 1.27"/><path fill="#010101" d="M122 162.25q-.02 1.58-.52 2.95-1.4-.63-.59-3.16a.37.37 0 0 0-.37-.48l-.58.03a.64.64 0 0 1-.67-.65l.04-1.36q.01-.45.45-.33 1.43.36 1.36 1.77-.03.49.36.81z"/><ellipse fill="#010101" rx="1.12" ry=".41" transform="rotate(-41.6 299.576 -153.671)"/><path fill="#fdfdfc" d="m198.77 159.62.95 1.97q.25.52-.21.85-.34.24-.73.36a1.68 1.58-71.1 0 0-.55.29q-.33.25 0 .71a.61.58-14.6 0 0 .45.25q.81.06 1.56.32.76.27.61 1.05-.11.52-.6.79a.33.33 0 0 0 .02.58l1.43.7-1.43 4.06-1.25-.57-.22-.47.48-.5q.36-.37.28-.88-.47-2.86-2-3.51-.5-.76-.58-2.11-.02-.34-.15-.48-.2-.19-.55-.18-.29-.1-.34-.36-.04-.18.09-.44.67-1.32.98-2.7z"/><path fill="#010101" d="M199.98 159.35q.1 1.14.67 1.75a1.02 1.01-37.9 0 0 1.3.16q1.83-1.19 2.43-.54l-.24.7q-1.41.3-2.35 1.16-.37.33.02.66.65.55.96 1.39-.26 1.44-1.07 2.86l-1.43-.7a.33.33 0 0 1-.02-.58q.49-.27.6-.79.15-.78-.61-1.05-.75-.26-1.56-.32a.61.58-14.6 0 1-.45-.25q-.33-.46 0-.71a1.68 1.58-71.1 0 1 .55-.29q.39-.12.73-.36.46-.33.21-.85l-.95-1.97q.79-.66 1.21-.27"/><path fill="#fdfdfc" d="m156.28 159.66-.69 2.35q-1.42-.05-2.55.78-.38-.15-.68-.53zM97.89 162.03q-.55-.79-.77-1.77.19-.35.72-.38.56-.03.59.52.05.79-.54 1.63"/><path fill="#010101" d="M181.26 163.96q-.54-1.59-1.42-.93-1.58-.17-1.73.56-.75 3.72 1.76 3.9l-.01 2.82q0 .55-.55.58-1.14.04-1.8-1.15-.63-1.15-1.23-2.28.43-1.05.05-2.31-.16-.51.17-.93.59-.76.09-1.56a.51.5-17.8 0 1 .4-.77q1.66-.1 2.87-1.07c1.01-.79 2.48-.77 3.71-.66a.43.43 0 0 1 .37.55q-.12.4-.51.54-.29.09-.56-.05-1.16-.64-2.25.11-.56.39.06.67.94.44 1.99-.18.75-.45.37.34-.55 1.15-1.78 1.82M116.92 161.28q-.29-.46-.39-1 .15-.1.29-.11.41-.02.41.39 0 .36-.31.72M136.75 163.78q-1.08-1.16-1.53-2.55.91-.37 1.81-.7.27-.09.37.14.02.05.01.1-.02.19-.2.14-.22-.07-.37.07-.24.24-.14.57.34 1.08.05 2.23"/><path fill="#fdfdfc" d="m194.58 167.87-.45 1.34q-1.14-.33-1.95.34-.43.36-.06.79.52.58 1.65.02l-.07.85q-.71-.04-1.2.44-.47.47-.28 1.08.19.63.83.98.06.88-.19 1.38-.26.51-.67.1-1.65-1.68-1.7-3.81 2.14-5.45-1.81-5.53l-.67-2.85q.02-.98.45-1.67.36-.59.72 0 .87 1.46 2.48 2.29a.81.81 0 0 1 .4.96l-.13.42q-.18.56.21 1.01.46.55.11 1.18-.2.37.03.71.13.19.33.16.15-.02.27-.11.84-.57 1.7-.08M172.02 161.58l-1.52 4.3q-1.39.25-2.5-.18-.44-1.6 1.1-2 .2-.05.14-.25t-.25-.12q-.92.4-1.89.67l-.12-1.04q.37 0 .62-.11a.62.61-21.4 0 0 .34-.77q-.15-.41.21-.65.31-.21.61-.01.48.32 1.05.43.48.1.87-.19.67-.48 1.34-.08M204.14 161.42l-1.37 3.21q-.31-.84-.96-1.39-.39-.33-.02-.66.94-.86 2.35-1.16M166.82 162.02q-.2-.22-.23-.56.46.16.23.56"/><path fill="#010101" d="M155.59 162.01q-.89 1.56-2.55.78 1.13-.83 2.55-.78"/><path fill="#fdfdfc" d="m179.84 163.03.03 4.46q-2.51-.18-1.76-3.9.15-.73 1.73-.56"/><path fill="#010101" d="M168 165.7q-.97-.84-.9-1.7.97-.27 1.89-.67.19-.08.25.12t-.14.25q-1.54.4-1.1 2"/><ellipse fill="#fdfdfc" rx=".55" ry=".44" transform="rotate(-25.9 452.91 -338.526)"/><path fill="#fdfdfc" d="m195.85 163.96-.46 1.26q-.15-2.37.46-1.26"/><path fill="#010101" d="m185.96 165.35-.19 1.42q-1.81-.27-2.62-2.26-.15-.37.24-.46.15-.03.32 0 .14.03.23.14.9 1.18 2.02 1.16M101.53 167.71q-1.12-.16-1.5-1.25.54-.45 1.2-.57.55-.11.65.45t-.35 1.37M170.5 165.88q.28.53.19 1.06a.68.68 0 0 1-.88.53q-1.17-.39-1.81-1.77 1.11.43 2.5.18M190.49 171.38l-1.81-5.53q3.95.08 1.81 5.53M198.8 170.51l-1.24-4.89q1.53.65 2 3.51.08.51-.28.88zM185.62 167.37q.5 1.54-.03 2.18-.35.43-.82.14-1.15-.71-1.81-2.26 1.17-.36 2.66-.06M194.13 169.21q.08.87-.36 1.15-1.13.56-1.65-.02-.37-.43.06-.79.81-.67 1.95-.34M193.7 171.21q.29 1.43-.65 2.5-.64-.35-.83-.98-.19-.61.28-1.08.49-.48 1.2-.44M200.27 171.55q-.48.45-.89.26-.49-.23-.36-.83z"/></svg>