<svg xmlns="http://www.w3.org/2000/svg" viewBox="0 0 382 382"><g fill="none" stroke="#7f7f7f" stroke-width="2"><path d="m84.41 140.16-.54.76a.82.8-66.9 0 1-.8.33q-.52-.09-1.03-.48M86.79 140.27q-.07.59-1.39.32-.78-.16-.52.59.33.97 1.44 1.04.6.04.84.59.78 1.77.22 3.19-.17.43.1.81 1.15 1.62 1.35 4.06.05.6-.48.3-.93-.55-1.89-.02-.67.37.04.64.89.34 1.79-.18.46-.27.71.21.59 1.17.62 2.33.02.61-.54.88-1.27.63-1.87 1.86-.21.44.19.16.29-.2.52-.48.32-.4.83-.51l2.2-.46" vector-effect="non-scaling-stroke"/><path d="M84.88 147.74q.5.43 1.14-.11a.42.42 0 0 0-.11-.72q-.15-.06-.24-.19-.48-.66-.73.13-.09.28-.14.57M87.75 140.05q.97.97.63 1.97-.25.74-.01 1.21.26.53.68.12l2.57-2.49M92.19 141.08q-.19.56-.79.8-.47.18-.52.68-.15 1.51-1.67 1.42a.69.69 0 0 0-.63.34q-.11.19-.08.41.1.73.76.41l4.98-2.43q.82-.41-.07-.62l-.69-.16q-.4-.1-.41-.51-.01-.15.14-.28M96.96 142.44q-.17.7.64 2.19 1.29 2.35-1.16 3.52-.38.18-.65.49-.88 1.04-1.98 1.84-.63.47-.3-.25.53-1.18 1.43-2.22.45-.51-.12-.89-1.36-.91-2.74-1.54a2.07 2.06-84.8 0 0-2.86 2.38l.57 2.28q.15.63.79.76l1.45.28M91.82 152.07q-.94-.17-1.49.44-.4.45.12.76.33.19.89.21M98.46 142.97q-.14-.05-.23.06a.15.14-50.4 0 0 .01.21q.43.36.7.85.27.47.68.11.26-.22.33-.77M102.28 144.26q-3.12 1.54-2.06 7 .09.46.52.66.46.2.35.7a1.02 1.02 0 0 0 .31.98q.57.52.58 1.28a1.4 1.39-70.9 0 0 .51 1.06q1.21.99 1.93 2.27M103.1 162.85q-.84.16-.98.64-.08.3.18.59.21.23.53.41M102.73 166.51q-1.56-.59-2.74.01M97.99 162.28l2.85-.24q1.36-.11.09-.62-2.31-.92-3.3.78M97.17 152.44q1.62-.3 1.84-1.72.09-.58-.35-.97-.56-.52.11-.88.48-.25.26-.74-.1-.25-.38-.36a.44.42 36 0 0-.4.05l-.56.43M96 151.07q-1.24.2-2.4.9" vector-effect="non-scaling-stroke"/><path d="M97.61 150.74q.82-.8.6-1.47M95.9 152.25q-1.08-.28-1.84.06M102.25 167.58q-.88-.51-1.55-.07M102.93 144.39q-1.9 2.53-.76 5.02.29.64-.38.81-.73.19-.96.93-.21.7.46.42 3.48-1.46 5.84-3.17 1.25-.9.4.39l-.72 1.09q-.38.59.29.8 2.67.85.92 1.25M106.73 152.04q-.66.32-1.06 1.01a1.03 1.01-79.6 0 1-.71.5q-1.19.22-1.08 1.48c.06.66.55 1.06 1.12 1.28" vector-effect="non-scaling-stroke"/><path d="m104.27 144.98.1 3.35q.01.25.26.25h.43q.25 0 .26-.25l.17-3.02M108.95 146.19q-.25.04-.35.35-.07.21-.02.43 1.29 5.25 3.75 9.98.2.37-.08.68-.15.17-.35.13-.69-.17-.67.55.05 1.29-.31 2.36" vector-effect="non-scaling-stroke"/><path d="m109.04 157.06.81.09q.7.08.43-.57-.39-.94-1.48-.85M109.75 146.7l.85 3.48a.99.98-89.6 0 0 .7.72q.83.21.49.95-.26.55-.1 1.13c.4 1.47 1.18 3.68 2.89 3.55M113.92 159.35q-1.63.73-2.68 2M122.47 148.97l4.49 4.91M122.78 159.88q-.91-.71-1.99-.49-.62.13-.04.4.87.4 2.03.09M120.53 166.92q-1.07-2.53-2.28-2.21M116.15 155.21q0 .49.44.21a.73.73 0 0 0 .24-.99q-.32-.53-.76-.37M116.05 152.99q2-1.22 2.42-3.5.05-.26-.17-.4-.17-.11-.38-.13a.61.61 0 0 0-.6.33l-.26.52q-.15.28-.46.29-.67.02-.9-.63a.46.46 0 0 0-.88.03q-.3 1.09-1.5 1.06-.81-.03-.36.64.67.98 2.24.79M139.88 163.99q-1.38.16-2.23-.35-.43-.26-.49-.75-.13-1.07-1.63-1.18M134.71 160.04q1.33-.46 1.35-1.81.01-.66-.65-.61-.43.03-.72-.22-.35-.31-.31-.78.18-2.03-1.42-2.94M131.93 153.93q-1.02.38-1.47 1.27-.3.57.3.81.56.23.49.76t-.61.57q-.32.02-.6-.12M130.04 157.22q-.87-1.9-3.16-3.05M130.04 157.22q-.72.03-1.02.53M130.74 148.31q.06 1.35.88 2.6a.88.87 41.3 0 1 .06.87l-1.43 2.97a.46.46 0 0 1-.71.15q-3.01-2.51-4.95-5.85" vector-effect="non-scaling-stroke"/><path d="M131.88 157.39q-.46-.25-1.12.76-.34.52-.61-.05-.13-.29-.11-.88M146.5 146.49q-.59 1.55-1.43 2.23-.38.31-.46.8-.15.87.63 1.41a.51.5 22 0 0 .79-.33q.08-.52.48-.86.42-.36.39.19-.04.6-.45 1.02-.37.38-.09.84.93 1.52 2.49 2.39M148.78 155.06q-.78.21-1.01-.11-1.94-2.65-4.87-1.88M141.72 154.03q-.54.09-.68.92M140.22 159.66c-1.73-1.08-2.48-2.9-3.92-4.23q-2.62-2.43-3.81-5.88-.27-.77-1.43-1.36" vector-effect="non-scaling-stroke"/><path d="M132.8 148.07q-.02 1.98 1.37 3.28.42.39.71-.1.15-.26.04-.52-.78-1.72-.91-2.69M134.81 147.8q.12 1.89 1.48 2.11 1.77.29 2.86 1.89.34.5-.25.37-1.12-.26-1.72.85-.2.37-.01.75l1.24 2.5q.25.49.68.15l.25-.21q.6-.48.14-1.11-.55-.75-1.32-1.15-.3-.15-.09-.41l.19-.25a.45.44-59.3 0 1 .51-.14q1.49.57 2.75.01.67-.3.19-.85l-2.3-2.7q-.31-.37-.78-.47-1.21-.26-1.9-1.6M148.28 146.98l-.86 1.39q-.32.52.03 1.02.47.68.59 1.46.11.69.77.46 2.1-.72 3.16-2.77M155 149.65l-2.23 5.98a.78.78 0 0 1-.91.49q-.47-.11-.73-.67M150.76 154.22q.11-.81-.5-.99M147.94 156.92l-1.95 1.12M145.99 158.04l-.18-.93q-.09-.46-.52-.28-.15.07-.28.24M144.53 156.44q.37-.37.4-.86.03-.56-.53-.47-.18.03-.39.14M156.73 150.26l-5.09 8.09M167.65 154.53q.7 2.05 2.47 3.36.45.34.62-.2l.68-2.1" vector-effect="non-scaling-stroke"/><path d="m175.47 156.6-.8.17q-.75.15-.4.84l.34.65q.15.3-.12.49l-.21.14q-.34.24-.54-.12l-1.02-1.81q-.47-.84-.62.11l-.36 2.3a.88.87 8.1 0 1-.98.73q-.61-.09-.95-.67-1.14-1.89-2.76-2.98-.75-.51-.31.28.72 1.29 2.04 2.48a.61.6 23.4 0 1 .19.46q-.02.57-.53.65a.58.58 0 0 1-.57-.27l-.16-.26q-.31-.52-.7-.06-.77.89-.88.25" vector-effect="non-scaling-stroke"/><path d="M166.27 158.92q.29.05.33-.19.1-.54-.34-.57M164.76 160.01q-2.32.66-1.49 2.2" vector-effect="non-scaling-stroke"/><path d="M161.71 161.5q1.29-1.36 1.3-2.76 0-.63-.58-.38-.47.2-.41.71.06.46-.21.76-.26.29-.78.2M160.77 159.63l2.09-5.59q.18-.48-.05-.93-.2-.38-.59-.66-.72-.5-.81.37l-.07.78q-.03.27-.29.33l-.26.05a.39.39 0 0 1-.47-.33q-.17-1.35-1.51-2.03a1.41 1.41 0 0 0-1.85.54l-3.45 5.8a.81.81 0 0 0 .41 1.17l2.49.93M155.92 160.81l-1.49.15q-.53.06-.47.58l.16 1.42M180.23 158.22q-.57 2.71-3.44 2.71a.86.86 0 0 0-.84 1.02q.17.89.91 1.43a.26.26 0 0 1-.13.46q-1.3.12-1.55 1.03M171.54 162.32q-.49-.94-1.27-1.17-.52-.15-.93.18-.47.38-.51.99-.03.54-.57.54-.38 0-.53-.33-.59-1.33-1.49-1.08M170.65 166.31q-.93-1.39-2.17-.15M167.76 165q.03-.58-.38-.55" vector-effect="non-scaling-stroke"/><path d="m181.82 158.25-4.09 4.32a.44.44 0 0 0 .17.71l2.02.76M179.94 165.02q-1.81-.23-2.45.72-.21.33.16.42.21.05.36.2.45.44-.14.67-.24.1-.38.33-.23.37-.03.75.22.44.65.46.5.02.79-.38l1.01-1.39" vector-effect="non-scaling-stroke"/><path d="M176.28 167.29q.81-.39.97-.95.15-.54-.38-.7l-1.43-.44M184.75 159.06l.17 2.42q.01.24.19.41.21.19.47-.03.31-.24.32-.62l.05-2.06M187.79 159.13q-.15 1.74 1 2.97.66.72-.32.72-.28 0-.49-.18-.45-.39-.96-.07-2.32 1.44-4.14 4.8M181.76 164.91q1.4-.08 2-.82.57-.72-.32-.51l-.65.16q-.64.15-.8-.49-.21-.8-.08-1.65a.53.53 0 0 1 .78-.38q.23.12.46.27.84.51.35-.34-.24-.44-.72-.63-.49-.21-.83.2-.84.99-1.12 2.19M203.31 159.06q.08.81-.8 1.29-.38.21-.15.58l.15.23q.21.33.52.1.87-.62 1.16-1.63M202.18 166.19q-.56-.36-1.35.39-1.25 1.22-2.57 2.49M198.21 167.19q.42-.08.66-.32.4-.41-.06-.76-.55-.42-1.33-.64M196.16 162.39l-2.03-.47q-1.49-.35-.12.34l.67.33a1.17 1.16 6.6 0 1 .59.74l.37 1.39M193.38 173.2h-2.37M190.34 171.7q.45-.66 1.03-1.3.45-.49.23-.93-.26-.51-.63-.06l-.83 1M189.35 167.94q1.46-.45 2.55-.67 3.11-.63.55-2.5-.45-.33-.78-.8-.37-.53-.89-.14l-2.3 1.7M185.76 167.3l-.89.05q-.73.04-.03.28.44.15.92.17M201.8 167.44l-3.14 3.1M192.46 159.02q-.23 2.21-1.36 2.9-.44.26-.4-.25l.2-2.15M88.35 153.935a1.9.53 24.4 0 0-1.511-1.268 1.9.53 24.4 0 0-1.95-.302 1.9.53 24.4 0 0 1.512 1.268 1.9.53 24.4 0 0 1.95.302M96.33 145.78q-.04-.97-.38-1.73-.26-.61-.9-.47l-1.48.33q-.53.12-.17.52 1.02 1.11 2.41 1.72a.38.37-79.9 0 0 .52-.37M89.57 141.11q.04-.27-.22-.18-.24.08-.07.27.24.28.29-.09M101.01 156.78l-2.54 2.56q-.78.78.19.24c.89-.49 1.41-1.24 2.13-1.92q.33-.32.46-.74.16-.54-.24-.14M103.44 152.08q-.58.35-.75.83-.47 1.37.38.2.26-.36.6-.76.69-.82-.23-.27M136.6 151.29a.22.22 0 0 0 .17.37q.18 0 .34-.1.27-.2-.02-.36-.28-.16-.49.09M135.33 152.58q.14.12.27.01.14-.13 0-.24-.27-.21-.31.12-.01.07.04.11M118.85 149.68q-.23.57.12.98a.45.44 23.9 0 0 .78-.3q-.01-.47-.29-.78-.39-.42-.61.1M117.33 156.39a.21.2 5.1 0 0-.14-.16q-.14-.04-.06.08.25.43.2.08M117.65 160.18q-.24.03-.37.24-.19.3.17.31 1.03.05 1.39-.95.17-.48-.29-.26-.36.16-.61.49-.11.14-.29.17M119.33 161.27q.38.59 1.02.76.47.12.22-.3-.37-.62-1.06-.73-.4-.07-.18.27M152.363 153.653a1.49.43 68.2 0 0-.154-1.543 1.49.43 68.2 0 0-.952-1.223 1.49.43 68.2 0 0 .154 1.543 1.49.43 68.2 0 0 .952 1.223M136.64 160.16q-.37.37.03.7.64.55 1.48.62 1.27.1.68-1.03-.84-1.62-2.19-.29M158.8 152.54q-.08-.11-.2-.19a.26.25 5.3 0 0-.38.31q.14.31.45.23.34-.08.13-.35M145.48 154.71q0-.01.05-.12.36-.93-.07-.05-.03.07-.04.15-.01.19.06.02M147.47 155.8q.05-.04.09-.1.07-.1-.06-.08-.09.02-.13.11-.08.19.1.07M195.34 160.85q.28.24.45-.08.32-.61-.16-.99a.28.28 0 0 0-.43.1q-.28.59.14.97" vector-effect="non-scaling-stroke"/></g><path fill="#fefefe" d="m84.41 140.16-.54.76a.82.8-66.9 0 1-.8.33q-.52-.09-1.03-.48.8-1 2.37-.61"/><path d="M86.79 140.27q-.07.59-1.39.32-.78-.16-.52.59.33.97 1.44 1.04.6.04.84.59.78 1.77.22 3.19-.17.43.1.81 1.15 1.62 1.35 4.06.05.6-.48.3-.93-.55-1.89-.02-.67.37.04.64.89.34 1.79-.18.46-.27.71.21.59 1.17.62 2.33.02.61-.54.88-1.27.63-1.87 1.86-.21.44.19.16.29-.2.52-.48.32-.4.83-.51l2.2-.46-1.22 4.66a.68.68 0 0 1-1.06.38q-2.44-1.79-3.32-4.75-.54-1.79-1.17-3.54-.16-.43-.07-.87l.77-3.74q.5.43 1.14-.11a.42.42 0 0 0-.11-.72q-.15-.06-.24-.19-.48-.66-.73.13-.09.28-.14.57.68-3.97-3.09-4.73-.53-.11-.51-.64.02-.61.84-1.28.51.39 1.03.48a.82.8-66.9 0 0 .8-.33l.54-.76q1.13-.15 2.38.11m1.56 13.665a1.9.53 24.4 0 0-1.511-1.268 1.9.53 24.4 0 0-1.95-.302 1.9.53 24.4 0 0 1.512 1.268 1.9.53 24.4 0 0 1.95.302"/><path fill="#fefefe" d="M87.75 140.05q.97.97.63 1.97-.25.74-.01 1.21.26.53.68.12l2.57-2.49.57.22q-.19.56-.79.8-.47.18-.52.68-.15 1.51-1.67 1.42a.69.69 0 0 0-.63.34q-.11.19-.08.41.1.73.76.41l4.98-2.43q.82-.41-.07-.62l-.69-.16q-.4-.1-.41-.51-.01-.15.14-.28 2.03.3 3.75 1.3-.17.7.64 2.19 1.29 2.35-1.16 3.52-.38.18-.65.49-.88 1.04-1.98 1.84-.63.47-.3-.25.53-1.18 1.43-2.22.45-.51-.12-.89-1.36-.91-2.74-1.54a2.07 2.06-84.8 0 0-2.86 2.38l.57 2.28q.15.63.79.76l1.45.28-.21.79q-.94-.17-1.49.44-.4.45.12.76.33.19.89.21-.54.94-.39 2.12l-2.2.46q-.51.11-.83.51-.23.28-.52.48-.4.28-.19-.16.6-1.23 1.87-1.86.56-.27.54-.88-.03-1.16-.62-2.33-.25-.48-.71-.21-.9.52-1.79.18-.71-.27-.04-.64.96-.53 1.89.02.53.3.48-.3-.2-2.44-1.35-4.06-.27-.38-.1-.81.56-1.42-.22-3.19-.24-.55-.84-.59-1.11-.07-1.44-1.04-.26-.75.52-.59 1.32.27 1.39-.32zm8.58 5.73q-.04-.97-.38-1.73-.26-.61-.9-.47l-1.48.33q-.53.12-.17.52 1.02 1.11 2.41 1.72a.38.37-79.9 0 0 .52-.37"/><path d="m91.62 140.86-2.57 2.49q-.42.41-.68-.12-.24-.47.01-1.21.34-1-.63-1.97zm-2.05.25q.04-.27-.22-.18-.24.08-.07.27.24.28.29-.09"/><path fill="#fefefe" d="M89.57 141.11q-.05.37-.29.09-.17-.19.07-.27.26-.09.22.18"/><path d="M93.21 141.14q-.15.13-.14.28.01.41.41.51l.69.16q.89.21.07.62l-4.98 2.43q-.66.32-.76-.41-.03-.22.08-.41a.69.69 0 0 1 .63-.34q1.52.09 1.67-1.42.05-.5.52-.68.6-.24.79-.8zM98.46 142.97q-.14-.05-.23.06a.15.14-50.4 0 0 .01.21q.43.36.7.85.27.47.68.11.26-.22.33-.77 1.41.27 2.33.83-3.12 1.54-2.06 7 .09.46.52.66.46.2.35.7a1.02 1.02 0 0 0 .31.98q.57.52.58 1.28a1.4 1.39-70.9 0 0 .51 1.06q1.21.99 1.93 2.27-.29 2.75-1.32 4.64-.84.16-.98.64-.08.3.18.59.21.23.53.41l-.1 2.02q-1.56-.59-2.74.01-1.81-1.81-2-4.24l2.85-.24q1.36-.11.09-.62-2.31-.92-3.3.78l-.46-9.76q1.62-.3 1.84-1.72.09-.58-.35-.97-.56-.52.11-.88.48-.25.26-.74-.1-.25-.38-.36a.44.42 36 0 0-.4.05l-.56.43-1.69 2.82q-1.24.2-2.4.9-.16-1-.56-1.49-.4-.47-.66.08l-.35.72-1.45-.28q-.64-.13-.79-.76l-.57-2.28a2.07 2.06-84.8 0 1 2.86-2.38q1.38.63 2.74 1.54.57.38.12.89-.9 1.04-1.43 2.22-.33.72.3.25 1.1-.8 1.98-1.84.27-.31.65-.49 2.45-1.17 1.16-3.52-.81-1.49-.64-2.19.82.09 1.5.53m2.55 13.81-2.54 2.56q-.78.78.19.24c.89-.49 1.41-1.24 2.13-1.92q.33-.32.46-.74.16-.54-.24-.14"/><path fill="#fefefe" d="m98.46 142.97 1.49.46q-.07.55-.33.77-.41.36-.68-.11-.27-.49-.7-.85a.15.14-50.4 0 1-.01-.21q.09-.11.23-.06"/><path d="M96.33 145.78a.38.37-79.9 0 1-.52.37q-1.39-.61-2.41-1.72-.36-.4.17-.52l1.48-.33q.64-.14.9.47.34.76.38 1.73"/><path fill="#fefefe" d="M102.28 144.26q.32.07.65.13-1.9 2.53-.76 5.02.29.64-.38.81-.73.19-.96.93-.21.7.46.42 3.48-1.46 5.84-3.17 1.25-.9.4.39l-.72 1.09q-.38.59.29.8 2.67.85.92 1.25-.85-.57-1.29.11-.66.32-1.06 1.01a1.03 1.01-79.6 0 1-.71.5q-1.19.22-1.08 1.48c.06.66.55 1.06 1.12 1.28q.17 1.45-.58 1.9-.72-1.28-1.93-2.27a1.4 1.39-70.9 0 1-.51-1.06q-.01-.76-.58-1.28a1.02 1.02 0 0 1-.31-.98q.11-.5-.35-.7-.43-.2-.52-.66-1.06-5.46 2.06-7m1.16 7.82q-.58.35-.75.83-.47 1.37.38.2.26-.36.6-.76.69-.82-.23-.27"/><path d="m104.27 144.98.1 3.35q.01.25.26.25h.43q.25 0 .26-.25l.17-3.02 3.46.88q-.25.04-.35.35-.07.21-.02.43 1.29 5.25 3.75 9.98.2.37-.08.68-.15.17-.35.13-.69-.17-.67.55.05 1.29-.31 2.36l-1.88-3.61.81.09q.7.08.43-.57-.39-.94-1.48-.85-.74-1.69-.78-3.8 1.75-.4-.92-1.25-.67-.21-.29-.8l.72-1.09q.85-1.29-.4-.39-2.36 1.71-5.84 3.17-.67.28-.46-.42.23-.74.96-.93.67-.17.38-.81-1.14-2.49.76-5.02z"/><path fill="#fefefe" d="m105.49 145.31-.17 3.02q-.01.25-.26.25h-.43q-.25 0-.26-.25l-.1-3.35q.68.07 1.22.33M84.88 147.74l-.08-.32q.05-.29.14-.57.25-.79.73-.13.09.13.24.19a.42.42 0 0 1 .11.72q-.64.54-1.14.11M108.95 146.19l.8.51.85 3.48a.99.98-89.6 0 0 .7.72q.83.21.49.95-.26.55-.1 1.13c.4 1.47 1.18 3.68 2.89 3.55q-.76 1.07-.66 2.82-1.63.73-2.68 2-.26-.31-.32-.68.36-1.07.31-2.36-.02-.72.67-.55.2.04.35-.13.28-.31.08-.68-2.46-4.73-3.75-9.98-.05-.22.02-.43.1-.31.35-.35"/><path d="M146.5 146.49q-.59 1.55-1.43 2.23-.38.31-.46.8-.15.87.63 1.41a.51.5 22 0 0 .79-.33q.08-.52.48-.86.42-.36.39.19-.04.6-.45 1.02-.37.38-.09.84.93 1.52 2.49 2.39.17.27-.07.88-.78.21-1.01-.11-1.94-2.65-4.87-1.88l-.27-.14q-.33-.17-.49.17l-.42.93q-.54.09-.68.92l-.82 4.71c-1.73-1.08-2.48-2.9-3.92-4.23q-2.62-2.43-3.81-5.88-.27-.77-1.43-1.36l1.74-.12q-.02 1.98 1.37 3.28.42.39.71-.1.15-.26.04-.52-.78-1.72-.91-2.69l.8-.24q.12 1.89 1.48 2.11 1.77.29 2.86 1.89.34.5-.25.37-1.12-.26-1.72.85-.2.37-.01.75l1.24 2.5q.25.49.68.15l.25-.21q.6-.48.14-1.11-.55-.75-1.32-1.15-.3-.15-.09-.41l.19-.25a.45.44-59.3 0 1 .51-.14q1.49.57 2.75.01.67-.3.19-.85l-2.3-2.7q-.31-.37-.78-.47-1.21-.26-1.9-1.6 5.32-1.52 9.77-1.05m-9.9 4.8a.22.22 0 0 0 .17.37q.18 0 .34-.1.27-.2-.02-.36-.28-.16-.49.09m-1.27 1.29q.14.12.27.01.14-.13 0-.24-.27-.21-.31.12-.01.07.04.11M122.47 148.97l4.49 4.91q-.86.24-1.27.82-2.01 2.86-2.91 5.18-.91-.71-1.99-.49-.62.13-.04.4.87.4 2.03.09l-2.25 7.04q-1.07-2.53-2.28-2.21-2.62-4.29-2.1-9.5 0 .49.44.21a.73.73 0 0 0 .24-.99q-.32-.53-.76-.37l-.02-1.07q2-1.22 2.42-3.5.05-.26-.17-.4-.17-.11-.38-.13a.61.61 0 0 0-.6.33l-.26.52q-.15.28-.46.29-.67.02-.9-.63a.46.46 0 0 0-.88.03q-.3 1.09-1.5 1.06-.81-.03-.36.64.67.98 2.24.79l-.62 4.54c-1.71.13-2.49-2.08-2.89-3.55q-.16-.58.1-1.13.34-.74-.49-.95a.99.98-89.6 0 1-.7-.72l-.85-3.48q5.95 2.5 12.72 2.27m-3.62.71q-.23.57.12.98a.45.44 23.9 0 0 .78-.3q-.01-.47-.29-.78-.39-.42-.61.1m-1.52 6.71a.21.2 5.1 0 0-.14-.16q-.14-.04-.06.08.25.43.2.08m.32 3.79q-.24.03-.37.24-.19.3.17.31 1.03.05 1.39-.95.17-.48-.29-.26-.36.16-.61.49-.11.14-.29.17m1.68 1.09q.38.59 1.02.76.47.12.22-.3-.37-.62-1.06-.73-.4-.07-.18.27"/><path fill="#fefefe" d="M146.5 146.49q1.07.51 1.78.49l-.86 1.39q-.32.52.03 1.02.47.68.59 1.46.11.69.77.46 2.1-.72 3.16-2.77 1.87.38 3.03 1.11l-2.23 5.98a.78.78 0 0 1-.91.49q-.47-.11-.73-.67l-.37-1.23q.11-.81-.5-.99-.25-.38-.6-.44-.36-.06-.55.28-.22.38-.26 1.11-1.56-.87-2.49-2.39-.28-.46.09-.84.41-.42.45-1.02.03-.55-.39-.19-.4.34-.48.86a.51.5 22 0 1-.79.33q-.78-.54-.63-1.41.08-.49.46-.8.84-.68 1.43-2.23m5.863 7.163a1.49.43 68.2 0 0-.154-1.543 1.49.43 68.2 0 0-.952-1.223 1.49.43 68.2 0 0 .154 1.543 1.49.43 68.2 0 0 .952 1.223"/><path d="M151.97 148.54q-1.06 2.05-3.16 2.77-.66.23-.77-.46-.12-.78-.59-1.46-.35-.5-.03-1.02l.86-1.39z"/><path fill="#fefefe" d="M136.73 147.54q.69 1.34 1.9 1.6.47.1.78.47l2.3 2.7q.48.55-.19.85-1.26.56-2.75-.01a.45.44-59.3 0 0-.51.14l-.19.25q-.21.26.09.41.77.4 1.32 1.15.46.63-.14 1.11l-.25.21q-.43.34-.68-.15l-1.24-2.5q-.19-.38.01-.75.6-1.11 1.72-.85.59.13.25-.37-1.09-1.6-2.86-1.89-1.36-.22-1.48-2.11.66-.65 1.92-.26M97.17 152.44q-.2-.9.44-1.7.82-.8.6-1.47l-.52-1.02.56-.43a.44.42 36 0 1 .4-.05q.28.11.38.36.22.49-.26.74-.67.36-.11.88.44.39.35.97-.22 1.42-1.84 1.72M134.01 148.04q.13.97.91 2.69.11.26-.04.52-.29.49-.71.1-1.39-1.3-1.37-3.28z"/><path d="M130.74 148.31q.06 1.35.88 2.6a.88.87 41.3 0 1 .06.87l-1.43 2.97a.46.46 0 0 1-.71.15q-3.01-2.51-4.95-5.85 3.22.23 6.15-.74"/><path fill="#fefefe" d="M131.06 148.19q1.16.59 1.43 1.36 1.19 3.45 3.81 5.88c1.44 1.33 2.19 3.15 3.92 4.23l-.34 4.33q-1.38.16-2.23-.35-.43-.26-.49-.75-.13-1.07-1.63-1.18-.61-.69-.82-1.67 1.33-.46 1.35-1.81.01-.66-.65-.61-.43.03-.72-.22-.35-.31-.31-.78.18-2.03-1.42-2.94.11-.57-.08-.82-.27-.38-.55-.01-.34.47-.4 1.08-1.02.38-1.47 1.27-.3.57.3.81.56.23.49.76t-.61.57q-.32.02-.6-.12-.87-1.9-3.16-3.05-.19-.37.08-.29l-4.49-4.91 2.12.08q1.94 3.34 4.95 5.85a.46.46 0 0 0 .71-.15l1.43-2.97a.88.87 41.3 0 0-.06-.87q-.82-1.25-.88-2.6zm5.58 11.97q-.37.37.03.7.64.55 1.48.62 1.27.1.68-1.03-.84-1.62-2.19-.29M116.05 152.99q.05-.33-.01-.59-.09-.37-.47-.4-.15-.01-.37-.01-1.57.19-2.24-.79-.45-.67.36-.64 1.2.03 1.5-1.06a.46.46 0 0 1 .88-.03q.23.65.9.63.31-.01.46-.29l.26-.52a.61.61 0 0 1 .6-.33q.21.02.38.13.22.14.17.4-.42 2.28-2.42 3.5"/><path d="M97.61 150.74q.01-.83.6-1.47.22.67-.6 1.47"/><path fill="#fefefe" d="M118.85 149.68q.22-.52.61-.1.28.31.29.78a.45.44 23.9 0 1-.78.3q-.35-.41-.12-.98"/><path d="m156.73 150.26-5.09 8.09q-.87-1.33-.51-2.9.26.56.73.67a.78.78 0 0 0 .91-.49l2.23-5.98q.85.56 1.73.61"/><path fill="#fefefe" d="M167.65 154.53q.7 2.05 2.47 3.36.45.34.62-.2l.68-2.1 4.05 1.01-.8.17q-.75.15-.4.84l.34.65q.15.3-.12.49l-.21.14q-.34.24-.54-.12l-1.02-1.81q-.47-.84-.62.11l-.36 2.3a.88.87 8.1 0 1-.98.73q-.61-.09-.95-.67-1.14-1.89-2.76-2.98-.75-.51-.31.28.72 1.29 2.04 2.48a.61.6 23.4 0 1 .19.46q-.02.57-.53.65a.58.58 0 0 1-.57-.27l-.16-.26q-.31-.52-.7-.06-.77.89-.88.25-.05-.59.14-1.06.29.05.33-.19.1-.54-.34-.57-1.18-2.16-1.5 1.85-2.32.66-1.49 2.2-.97.37-1.56-.71 1.29-1.36 1.3-2.76 0-.63-.58-.38-.47.2-.41.71.06.46-.21.76-.26.29-.78.2-.18-.38-.26-.4l2.09-5.59q.18-.48-.05-.93-.2-.38-.59-.66-.72-.5-.81.37l-.07.78q-.03.27-.29.33l-.26.05a.39.39 0 0 1-.47-.33q-.17-1.35-1.51-2.03a1.41 1.41 0 0 0-1.85.54l-3.45 5.8a.81.81 0 0 0 .41 1.17l2.49.93q-.36.04-.49.75l-1.49.15q-.53.06-.47.58l.16 1.42q-1.53.21-1.86-.96-.24-.84-.62-3.65l5.09-8.09q6.02 1 10.92 4.27M96 151.07l-.1 1.18q-1.08-.28-1.84.06-.14-.2-.46-.34 1.16-.7 2.4-.9M136.6 151.29q.21-.25.49-.09.29.16.02.36-.16.1-.34.1a.22.22 0 0 1-.17-.37"/><ellipse rx="1.49" ry=".43" transform="rotate(68.2 -36.546 188.246)"/><path d="M160.77 159.63q-1.12-2.23-1.25-3.69-.31-3.42-1.87-.36-.7 1.37-1.24 4.48l-2.49-.93a.81.81 0 0 1-.41-1.17l3.45-5.8a1.41 1.41 0 0 1 1.85-.54q1.34.68 1.51 2.03a.39.39 0 0 0 .47.33l.26-.05q.26-.06.29-.33l.07-.78q.09-.87.81-.37.39.28.59.66.23.45.05.93zm-1.97-7.09q-.08-.11-.2-.19a.26.25 5.3 0 0-.38.31q.14.31.45.23.34-.08.13-.35M103.67 152.35q-.34.4-.6.76-.85 1.17-.38-.2.17-.48.75-.83.92-.55.23.27"/><ellipse fill="#fefefe" rx="1.9" ry=".53" transform="rotate(24.4 -310.863 276.892)"/><path d="M91.82 152.07q.1.75-.48 1.41-.56-.02-.89-.21-.52-.31-.12-.76.55-.61 1.49-.44M95.9 152.25q.18.47-.18.8a1.04 1.04 0 0 1-1.26.1q-.36-.23-.4-.84.76-.34 1.84-.06M106.73 152.04q-.44 2.28-1.73 4.27c-.57-.22-1.06-.62-1.12-1.28q-.11-1.26 1.08-1.48a1.03 1.01-79.6 0 0 .71-.5q.4-.69 1.06-1.01"/><path fill="#fefefe" d="M135.29 152.47q.04-.33.31-.12.14.11 0 .24-.13.11-.27-.01-.05-.04-.04-.11M158.8 152.54q.21.27-.13.35-.31.08-.45-.23a.26.25 5.3 0 1 .38-.31q.12.08.2.19M148.78 155.06q-.27 1.05-.84 1.86l-1.95 1.12-.18-.93q-.09-.46-.52-.28-.15.07-.28.24-.4-.29-.48-.63.37-.37.4-.86.03-.56-.53-.47-.18.03-.39.14-1.07-.4-1.11-2.18 2.93-.77 4.87 1.88.23.32 1.01.11m-3.3-.35q0-.01.05-.12.36-.93-.07-.05-.03.07-.04.15-.01.19.06.02m1.99 1.09q.05-.04.09-.1.07-.1-.06-.08-.09.02-.13.11-.08.19.1.07"/><path d="M150.76 154.22q-.54-.32-.5-.99.61.18.5.99M134.71 160.04l-1.75-6.36q1.6.91 1.42 2.94-.04.47.31.78.29.25.72.22.66-.05.65.61-.02 1.35-1.35 1.81"/><path fill="#fefefe" d="m116.15 155.21-.08-1.15q.44-.16.76.37a.73.73 0 0 1-.24.99q-.44.28-.44-.21"/><path d="m131.93 153.93-.05 3.46q-.46-.25-1.12.76-.34.52-.61-.05-.13-.29-.11-.88.28.14.6.12.54-.04.61-.57t-.49-.76q-.6-.24-.3-.81.45-.89 1.47-1.27"/><path fill="#fefefe" d="M141.72 154.03q-.18.69-.68.92.14-.83.68-.92"/><path d="M130.04 157.22q-.72.03-1.02.53-1.65-1.55-2.14-3.58 2.29 1.15 3.16 3.05M145.42 154.69q.01-.08.04-.15.43-.88.07.05-.05.11-.05.12-.07.17-.06-.02M171.42 155.59l-.68 2.1q-.17.54-.62.2-1.77-1.31-2.47-3.36zM144.53 156.44q-.5-.47-.52-1.19.21-.11.39-.14.56-.09.53.47-.03.49-.4.86"/><path fill="#fefefe" d="m109.04 157.06-.24-1.33q1.09-.09 1.48.85.27.65-.43.57z"/><path d="M147.37 155.73q.04-.09.13-.11.13-.02.06.08-.04.06-.09.1-.18.12-.1-.07"/><path fill="#fefefe" d="M117.33 156.39q.05.35-.2-.08-.08-.12.06-.08a.21.2 5.1 0 1 .14.16"/><path d="m175.47 156.6 4.76 1.62q-.57 2.71-3.44 2.71a.86.86 0 0 0-.84 1.02q.17.89.91 1.43a.26.26 0 0 1-.13.46q-1.3.12-1.55 1.03l-1.45-5.1a.63.63 0 0 0-1.19-.06l-1 2.61q-.49-.94-1.27-1.17-.52-.15-.93.18-.47.38-.51.99-.03.54-.57.54-.38 0-.53-.33-.59-1.33-1.49-1.08-.23-.7-.11-1.47.11.64.88-.25.39-.46.7.06l.16.26a.58.58 0 0 0 .57.27q.51-.08.53-.65a.61.6 23.4 0 0-.19-.46q-1.32-1.19-2.04-2.48-.44-.79.31-.28 1.62 1.09 2.76 2.98.34.58.95.67a.88.87 8.1 0 0 .98-.73l.36-2.3q.15-.95.62-.11l1.02 1.81q.2.36.54.12l.21-.14q.27-.19.12-.49l-.34-.65q-.35-.69.4-.84z"/><path fill="#fefefe" d="M101.01 156.78q.4-.4.24.14-.13.42-.46.74c-.72.68-1.24 1.43-2.13 1.92q-.97.54-.19-.24z"/><path d="M145.99 158.04q-.9-.35-.98-.97.13-.17.28-.24.43-.18.52.28zM147.94 156.92q.14.72-.38 1.14-.86.69-1.57-.02z"/><path fill="#fefefe" d="M130.04 157.22q-.02.59.11.88.27.57.61.05.66-1.01 1.12-.76-.43.94-.78 1.2-1.08.8-2.08-.84.3-.5 1.02-.53"/><path d="M166.27 158.92q-.2-.4-.01-.76.44.03.34.57-.04.24-.33.19M161.71 161.5q-.69-.18-.68-1.47.52.09.78-.2.27-.3.21-.76-.06-.51.41-.71.58-.25.58.38-.01 1.4-1.3 2.76"/><path fill="#fefefe" d="m180.23 158.22 1.59.03-4.09 4.32a.44.44 0 0 0 .17.71l2.02.76.02.98q-1.81-.23-2.45.72-.21.33.16.42.21.05.36.2.45.44-.14.67-.24.1-.38.33-.23.37-.03.75.22.44.65.46.5.02.79-.38l1.01-1.39-.02 3.6q0 .51-.52.51c-1.96 0-2.49-2.21-3.09-3.62q.81-.39.97-.95.15-.54-.38-.7l-1.43-.44q-.07-.25-.26-.33.25-.91 1.55-1.03a.26.26 0 0 0 .13-.46q-.74-.54-.91-1.43a.86.86 0 0 1 .84-1.02q2.87 0 3.44-2.71"/><path d="m184.75 159.06.17 2.42q.01.24.19.41.21.19.47-.03.31-.24.32-.62l.05-2.06 1.84-.05q-.15 1.74 1 2.97.66.72-.32.72-.28 0-.49-.18-.45-.39-.96-.07-2.32 1.44-4.14 4.8l-1.12-2.46q1.4-.08 2-.82.57-.72-.32-.51l-.65.16q-.64.15-.8-.49-.21-.8-.08-1.65a.53.53 0 0 1 .78-.38q.23.12.46.27.84.51.35-.34-.24-.44-.72-.63-.49-.21-.83.2-.84.99-1.12 2.19-1.1.09-.91 1.13l-2.02-.76a.44.44 0 0 1-.17-.71l4.09-4.32z"/><path fill="#fefefe" d="m185.95 159.18-.05 2.06q-.01.38-.32.62-.26.22-.47.03-.18-.17-.19-.41l-.17-2.42q.84-.17 1.2.12"/><path d="M192.46 159.02q-.23 2.21-1.36 2.9-.44.26-.4-.25l.2-2.15q.23-.46 1.56-.5"/><path fill="#fefefe" d="M203.31 159.06q.08.81-.8 1.29-.38.21-.15.58l.15.23q.21.33.52.1.87-.62 1.16-1.63.64.47.49.87-.55 1.54-2.5 5.69-.56-.36-1.35.39-1.25 1.22-2.57 2.49l-.05-1.88q.42-.08.66-.32.4-.41-.06-.76-.55-.42-1.33-.64-.25-2.15-1.32-3.08l-2.03-.47q-1.49-.35-.12.34l.67.33a1.17 1.16 6.6 0 1 .59.74l.37 1.39-2.26 8.48h-2.37q-.6-.71-.67-1.5.45-.66 1.03-1.3.45-.49.23-.93-.26-.51-.63-.06l-.83 1-.79-2.47q1.46-.45 2.55-.67 3.11-.63.55-2.5-.45-.33-.78-.8-.37-.53-.89-.14l-2.3 1.7q-.59-1.22-.58-1.98.03-1.97-.96-.27-.95 1.62-1.18 4.02l-.89.05q-.73.04-.03.28.44.15.92.17.07.74.06.86-.22 2.19-1.6.48-.82-1.01-1.34-1.77 1.82-3.36 4.14-4.8.51-.32.96.07.21.18.49.18.98 0 .32-.72-1.15-1.23-1-2.97l3.11.39-.2 2.15q-.04.51.4.25 1.13-.69 1.36-2.9 3.69.98 6.45.31c1.7-.41 2.82-.36 4.4-.27m-7.97 1.79q.28.24.45-.08.32-.61-.16-.99a.28.28 0 0 0-.43.1q-.28.59.14.97"/><path d="M204.19 159.63q-.29 1.01-1.16 1.63-.31.23-.52-.1l-.15-.23q-.23-.37.15-.58.88-.48.8-1.29.75-.06.88.57M113.92 159.35q.12.88.04 1.81-.1 1.22-.83 1.4-.83.21-1.89-1.21 1.05-1.27 2.68-2"/><path fill="#fefefe" d="M117.94 160.01q.25-.33.61-.49.46-.22.29.26-.36 1-1.39.95-.36-.01-.17-.31.13-.21.37-.24.18-.03.29-.17M122.78 159.88q-1.16.31-2.03-.09-.58-.27.04-.4 1.08-.22 1.99.49"/><path d="M136.64 160.16q1.35-1.33 2.19.29.59 1.13-.68 1.03-.84-.07-1.48-.62-.4-.33-.03-.7M195.34 160.85q-.42-.38-.14-.97a.28.28 0 0 1 .43-.1q.48.38.16.99-.17.32-.45.08M164.76 160.01q-.41 1.58-1.49 2.2-.83-1.54 1.49-2.2"/><path fill="#fefefe" d="M181.76 164.91q-.65-.6-.93-2 .28-1.2 1.12-2.19.34-.41.83-.2.48.19.72.63.49.85-.35.34-.23-.15-.46-.27a.53.53 0 0 0-.78.38q-.13.85.08 1.65.16.64.8.49l.65-.16q.89-.21.32.51-.6.74-2 .82M97.99 162.28l-.36-.08q.99-1.7 3.3-.78 1.27.51-.09.62z"/><path d="M155.92 160.81q-.1 1.98-1.8 2.15l-.16-1.42q-.06-.52.47-.58z"/><path fill="#fefefe" d="M119.33 161.27q-.22-.34.18-.27.69.11 1.06.73.25.42-.22.3-.64-.17-1.02-.76M171.54 162.32l-.89 3.99q-.93-1.39-2.17-.15-.52-.54-.72-1.16.03-.58-.38-.55l-1.14-3q.9-.25 1.49 1.08.15.33.53.33.54 0 .57-.54.04-.61.51-.99.41-.33.93-.18.78.23 1.27 1.17"/><path d="m139.88 163.99-.21.72q-.16.56-.74.45-2.54-.46-3.4-3.45 1.5.11 1.63 1.18.06.49.49.75.85.51 2.23.35M196.16 162.39l-.52 2.33-.37-1.39a1.17 1.16 6.6 0 0-.59-.74l-.67-.33q-1.37-.69.12-.34z"/><path fill="#fefefe" d="m103.1 162.85-.27 1.64q-.32-.18-.53-.41-.26-.29-.18-.59.14-.48.98-.64"/><path d="m189.35 167.94-.87-2.41 2.3-1.7q.52-.39.89.14.33.47.78.8 2.56 1.87-.55 2.5-1.09.22-2.55.67"/><path fill="#fefefe" d="M120.53 166.92q-1.53.11-2.28-2.21 1.21-.32 2.28 2.21"/><path d="M167.76 165q-.44-.16-.38-.55.41-.03.38.55M179.94 165.02l-.03 1.78-1.01 1.39q-.29.4-.79.38-.43-.02-.65-.46-.2-.38.03-.75.14-.23.38-.33.59-.23.14-.67-.15-.15-.36-.2-.37-.09-.16-.42.64-.95 2.45-.72"/><path d="m176.28 167.29-.84-2.09 1.43.44q.53.16.38.7-.16.56-.97.95M170.65 166.31q.07 2.31-2.17-.15 1.24-1.24 2.17.15M198.21 167.19l-.73-1.72q.78.22 1.33.64.46.35.06.76-.24.24-.66.32M202.18 166.19q-.07.98-.38 1.25l-3.14 3.1q-.96-.74-.4-1.47 1.32-1.27 2.57-2.49.79-.75 1.35-.39"/><path fill="#fefefe" d="M102.73 166.51q.12.57-.48 1.07-.88-.51-1.55-.07-.49-.14-.71-.99 1.18-.6 2.74-.01"/><path d="M102.25 167.58q-.91.52-1.55-.07.67-.44 1.55.07M185.76 167.3q.08.25 0 .5-.48-.02-.92-.17-.7-.24.03-.28z"/><path fill="#fefefe" d="m201.8 167.44-1.08 3.59a1.01 1-44.6 0 1-1.93-.01l-.13-.48z"/><path d="m190.34 171.7-.2-1.29.83-1q.37-.45.63.06.22.44-.23.93-.58.64-1.03 1.3M193.38 173.2l-.47 1.6q-.15.52-.68.38-1.29-.33-1.22-1.98z"/></svg>