<?xml version="1.0" encoding="UTF-8" standalone="no"?>
<!DOCTYPE svg PUBLIC "-//W3C//DTD SVG 1.1//EN" "http://www.w3.org/Graphics/SVG/1.1/DTD/svg11.dtd">
<svg xmlns="http://www.w3.org/2000/svg" version="1.1" viewBox="0.00 0.00 1592.00 1592.00" width="1592.00" height="1592.00">
<g stroke-width="2.00" fill="none" stroke-linecap="butt">
<path stroke="#4b7d75" vector-effect="non-scaling-stroke" d="
  M 1375.12 1284.04
  L 1325.08 1264.80
  Q 1324.46 1264.57 1324.34 1263.91
  L 1322.10 1252.28
  A 1.47 1.46 -80.8 0 0 1321.38 1251.28
  L 1122.23 1138.37"
/>
<path stroke="#4b7d75" vector-effect="non-scaling-stroke" d="
  M 834.77 1162.02
  L 753.74 1149.24"
/>
<path stroke="#4b7d75" vector-effect="non-scaling-stroke" d="
  M 1452.63 1387.41
  L 1396.60 1592.00"
/>
</g>
<path fill="#370f74" d="
  M 1375.12 1284.04
  L 1325.08 1264.80
  Q 1324.46 1264.57 1324.34 1263.91
  L 1322.10 1252.28
  A 1.47 1.46 -80.8 0 0 1321.38 1251.28
  L 1122.23 1138.37
  C 1145.43 1120.09 1170.66 1104.29 1198.03 1093.57
  Q 1200.91 1092.44 1203.72 1092.44
  Q 1219.04 1092.45 1225.35 1092.49
  Q 1225.96 1092.50 1226.37 1092.94
  Q 1231.98 1098.93 1238.94 1107.58
  Q 1246.29 1116.70 1249.67 1127.33
  Q 1252.35 1135.74 1252.37 1135.79
  C 1258.14 1150.53 1267.48 1162.88 1278.00 1174.50
  Q 1326.99 1228.59 1375.12 1284.04
  Z"
/>
<path fill="#370f74" d="
  M 834.77 1162.02
  L 753.74 1149.24
  Q 765.16 1144.31 775.89 1139.58
  Q 787.95 1134.26 797.60 1128.10
  Q 807.50 1121.79 816.25 1113.00
  Q 817.53 1111.72 821.46 1110.18
  Q 825.46 1108.60 829.56 1110.76
  C 834.32 1113.26 836.59 1120.65 836.68 1125.76
  Q 836.97 1143.29 834.77 1162.02
  Z"
/>
<path fill="#5eeb76" d="
  M 1122.23 1138.37
  L 1321.38 1251.28
  A 1.47 1.46 -80.8 0 1 1322.10 1252.28
  L 1324.34 1263.91
  Q 1324.46 1264.57 1325.08 1264.80
  L 1375.12 1284.04
  Q 1403.09 1316.03 1418.08 1333.91
  Q 1438.57 1358.35 1452.63 1387.41
  L 1396.60 1592.00
  L 456.71 1592.00
  Q 461.94 1579.12 467.32 1566.32
  Q 482.50 1530.17 494.02 1493.51
  Q 502.75 1465.72 508.54 1435.36
  Q 509.25 1431.62 511.74 1415.66
  Q 515.00 1394.69 520.31 1377.64
  Q 526.08 1359.12 537.14 1341.66
  C 561.14 1303.76 590.21 1271.08 623.69 1241.19
  Q 645.18 1222.01 666.83 1205.34
  Q 704.62 1176.25 717.98 1167.21
  Q 733.07 1157.02 753.74 1149.24
  L 834.77 1162.02
  Q 831.78 1191.19 820.22 1217.86
  Q 815.09 1229.71 814.53 1231.19
  Q 808.93 1246.13 808.31 1261.06
  Q 807.78 1273.76 809.39 1284.57
  C 810.34 1290.96 812.56 1298.01 817.50 1302.53
  C 822.33 1306.96 830.15 1308.11 836.69 1307.65
  Q 844.78 1307.08 852.76 1305.26
  Q 881.72 1298.67 909.22 1286.95
  Q 932.55 1277.01 953.23 1265.21
  Q 989.95 1244.24 1021.05 1221.78
  Q 1041.30 1207.15 1061.13 1189.88
  Q 1066.51 1185.19 1097.27 1158.77
  Q 1109.68 1148.11 1122.23 1138.37
  Z"
/>
<path fill="#370f74" d="
  M 1452.63 1387.41
  Q 1471.01 1425.67 1477.10 1467.20
  Q 1478.64 1477.68 1478.59 1487.18
  Q 1478.55 1496.19 1478.37 1508.31
  Q 1477.83 1545.76 1478.92 1584.25
  Q 1479.03 1588.18 1478.14 1592.00
  L 1396.60 1592.00
  L 1452.63 1387.41
  Z"
/>
</svg>
