<?xml version="1.0" encoding="UTF-8" standalone="no"?>
<!DOCTYPE svg PUBLIC "-//W3C//DTD SVG 1.1//EN" "http://www.w3.org/Graphics/SVG/1.1/DTD/svg11.dtd">
<svg xmlns="http://www.w3.org/2000/svg" version="1.1" viewBox="0.00 0.00 1592.00 1592.00" width="1592.00" height="1592.00">
<g stroke-width="2.00" fill="none" stroke-linecap="butt">
<path stroke="#76a066" vector-effect="non-scaling-stroke" d="
  M 1207.34 1092.54
  L 1208.78 1102.25
  Q 1208.85 1102.72 1208.37 1102.75
  L 1173.50 1104.80"
/>
<path stroke="#76a066" vector-effect="non-scaling-stroke" d="
  M 1292.25 1190.43
  L 1300.51 1592.00"
/>
<path stroke="#76a066" vector-effect="non-scaling-stroke" d="
  M 986.08 1592.00
  L 842.89 1397.39
  Q 842.61 1397.00 842.17 1396.82
  L 817.14 1386.53
  Q 816.56 1386.29 816.74 1385.69
  L 841.25 1307.25"
/>
<path stroke="#76a066" vector-effect="non-scaling-stroke" d="
  M 836.70 1128.41
  L 810.86 1144.07
  A 0.87 0.81 73.9 0 0 810.47 1144.84
  L 810.63 1148.15
  Q 810.65 1148.64 810.40 1149.11
  L 794.45 1178.63
  Q 794.13 1179.23 793.68 1178.72
  L 764.05 1144.80"
/>
<path stroke="#76a066" vector-effect="non-scaling-stroke" d="
  M 824.30 1207.90
  L 794.17 1180.31
  Q 793.62 1179.81 793.70 1180.55
  L 793.78 1181.41
  Q 793.85 1182.09 793.26 1182.38
  L 721.43 1217.70
  Q 720.70 1218.05 720.44 1217.29
  L 706.29 1175.77"
/>
<path stroke="#76a066" vector-effect="non-scaling-stroke" d="
  M 780.28 1592.00
  L 777.73 1396.89
  A 0.57 0.57 0.0 0 0 777.27 1396.34
  L 717.09 1384.44
  Q 716.68 1384.36 716.63 1383.96
  Q 712.65 1355.62 708.03 1322.25
  Q 707.80 1320.56 707.15 1320.10
  Q 705.85 1319.17 704.50 1317.89
  Q 704.13 1317.54 704.09 1317.04
  Q 703.96 1315.80 704.09 1313.04
  Q 706.04 1271.13 708.28 1225.31
  A 0.67 0.67 0.0 0 0 707.86 1224.66
  L 664.53 1207.12"
/>
</g>
<path fill="#82bac5" d="
  M 1207.34 1092.54
  L 1208.78 1102.25
  Q 1208.85 1102.72 1208.37 1102.75
  L 1173.50 1104.80
  Q 1185.93 1098.22 1198.51 1093.41
  Q 1200.71 1092.57 1202.85 1092.50
  Q 1205.05 1092.44 1207.34 1092.54
  Z"
/>
<path fill="#6a8506" d="
  M 1292.25 1190.43
  L 1300.51 1592.00
  L 986.08 1592.00
  L 842.89 1397.39
  Q 842.61 1397.00 842.17 1396.82
  L 817.14 1386.53
  Q 816.56 1386.29 816.74 1385.69
  L 841.25 1307.25
  Q 850.08 1306.06 858.86 1303.86
  C 896.16 1294.48 931.16 1278.60 964.19 1258.91
  Q 999.53 1237.84 1028.71 1216.18
  Q 1042.28 1206.11 1061.66 1189.40
  Q 1097.46 1158.53 1106.74 1150.74
  Q 1118.54 1140.83 1133.53 1129.78
  Q 1152.87 1115.53 1173.50 1104.80
  L 1208.37 1102.75
  Q 1208.85 1102.72 1208.78 1102.25
  L 1207.34 1092.54
  L 1225.48 1092.55
  Q 1225.98 1092.55 1226.32 1092.92
  Q 1234.29 1101.49 1240.46 1109.56
  Q 1246.57 1117.58 1249.60 1127.18
  Q 1252.08 1135.07 1252.73 1136.70
  C 1257.78 1149.36 1265.76 1160.57 1274.71 1170.80
  Q 1283.44 1180.78 1292.25 1190.43
  Z"
/>
<path fill="#82bac5" d="
  M 836.70 1128.41
  L 810.86 1144.07
  A 0.87 0.81 73.9 0 0 810.47 1144.84
  L 810.63 1148.15
  Q 810.65 1148.64 810.40 1149.11
  L 794.45 1178.63
  Q 794.13 1179.23 793.68 1178.72
  L 764.05 1144.80
  C 781.44 1137.70 799.19 1129.15 812.65 1116.39
  Q 816.94 1112.32 819.18 1111.24
  Q 828.76 1106.61 833.69 1114.84
  Q 837.14 1120.59 836.70 1128.41
  Z"
/>
<path fill="#6a8506" d="
  M 836.70 1128.41
  Q 836.70 1137.63 835.75 1151.75
  Q 833.78 1180.89 824.30 1207.90
  L 794.17 1180.31
  Q 793.62 1179.81 793.70 1180.55
  L 793.78 1181.41
  Q 793.85 1182.09 793.26 1182.38
  L 721.43 1217.70
  Q 720.70 1218.05 720.44 1217.29
  L 706.29 1175.77
  Q 721.61 1163.62 738.16 1155.92
  Q 748.08 1151.30 764.05 1144.80
  L 793.68 1178.72
  Q 794.13 1179.23 794.45 1178.63
  L 810.40 1149.11
  Q 810.65 1148.64 810.63 1148.15
  L 810.47 1144.84
  A 0.87 0.81 73.9 0 1 810.86 1144.07
  L 836.70 1128.41
  Z"
/>
<path fill="#82bac5" d="
  M 706.29 1175.77
  L 720.44 1217.29
  Q 720.70 1218.05 721.43 1217.70
  L 793.26 1182.38
  Q 793.85 1182.09 793.78 1181.41
  L 793.70 1180.55
  Q 793.62 1179.81 794.17 1180.31
  L 824.30 1207.90
  Q 822.49 1212.58 817.28 1224.26
  Q 806.24 1249.01 808.49 1277.14
  C 809.42 1288.78 811.95 1303.25 825.39 1306.57
  Q 833.10 1308.47 841.25 1307.25
  L 816.74 1385.69
  Q 816.56 1386.29 817.14 1386.53
  L 842.17 1396.82
  Q 842.61 1397.00 842.89 1397.39
  L 986.08 1592.00
  L 780.28 1592.00
  L 777.73 1396.89
  A 0.57 0.57 0.0 0 0 777.27 1396.34
  L 717.09 1384.44
  Q 716.68 1384.36 716.63 1383.96
  Q 712.65 1355.62 708.03 1322.25
  Q 707.80 1320.56 707.15 1320.10
  Q 705.85 1319.17 704.50 1317.89
  Q 704.13 1317.54 704.09 1317.04
  Q 703.96 1315.80 704.09 1313.04
  Q 706.04 1271.13 708.28 1225.31
  A 0.67 0.67 0.0 0 0 707.86 1224.66
  L 664.53 1207.12
  L 706.29 1175.77
  Z"
/>
<path fill="#82bac5" d="
  M 1478.14 1592.00
  L 1300.51 1592.00
  L 1292.25 1190.43
  Q 1353.11 1257.91 1412.09 1326.83
  Q 1420.96 1337.20 1424.82 1342.30
  Q 1467.37 1398.42 1477.35 1469.08
  Q 1478.68 1478.54 1478.57 1488.63
  Q 1478.37 1507.66 1478.36 1508.25
  Q 1477.85 1547.87 1478.96 1586.00
  Q 1479.02 1588.01 1478.14 1592.00
  Z"
/>
<path fill="#6a8506" d="
  M 664.53 1207.12
  L 707.86 1224.66
  A 0.67 0.67 0.0 0 1 708.28 1225.31
  Q 706.04 1271.13 704.09 1313.04
  Q 703.96 1315.80 704.09 1317.04
  Q 704.13 1317.54 704.50 1317.89
  Q 705.85 1319.17 707.15 1320.10
  Q 707.80 1320.56 708.03 1322.25
  Q 712.65 1355.62 716.63 1383.96
  Q 716.68 1384.36 717.09 1384.44
  L 777.27 1396.34
  A 0.57 0.57 0.0 0 1 777.73 1396.89
  L 780.28 1592.00
  L 456.52 1592.00
  Q 473.99 1552.14 488.22 1511.26
  Q 503.91 1466.20 511.19 1419.82
  Q 513.63 1404.24 514.51 1400.11
  Q 517.46 1386.26 521.57 1373.83
  Q 525.81 1361.00 533.29 1348.27
  Q 552.84 1314.98 580.84 1283.84
  Q 593.91 1269.31 607.66 1256.16
  Q 635.31 1229.72 664.53 1207.12
  Z"
/>
</svg>
