<?xml version="1.0" encoding="UTF-8" standalone="no"?>
<!DOCTYPE svg PUBLIC "-//W3C//DTD SVG 1.1//EN" "http://www.w3.org/Graphics/SVG/1.1/DTD/svg11.dtd">
<svg xmlns="http://www.w3.org/2000/svg" version="1.1" viewBox="0.00 0.00 1592.00 1592.00" width="1592.00" height="1592.00">
<g stroke-width="2.00" fill="none" stroke-linecap="butt">
<path stroke="#2aef8c" vector-effect="non-scaling-stroke" d="
  M 1254.78 1141.78
  L 1160.80 1122.36
  A 0.32 0.31 13.7 0 0 1160.43 1122.58
  L 1150.61 1157.61
  A 1.30 1.30 0.0 0 1 1149.85 1158.46
  Q 1118.74 1171.34 1091.67 1182.62
  Q 1090.23 1183.22 1088.74 1183.11
  Q 1087.28 1183.00 1085.72 1182.78
  Q 1085.19 1182.70 1084.83 1183.09
  L 925.05 1350.97
  Q 924.63 1351.42 924.93 1351.97
  L 928.92 1359.26
  Q 929.59 1360.47 929.68 1359.08
  L 929.82 1357.05
  A 0.44 0.43 -74.3 0 1 930.45 1356.69
  L 1112.00 1452.76
  A 1.01 1.01 0.0 0 1 1112.52 1453.84
  Q 1101.37 1512.07 1090.15 1570.37
  Q 1089.39 1574.30 1089.59 1578.56
  Q 1089.90 1585.31 1089.99 1592.00"
/>
<path stroke="#2aef8c" vector-effect="non-scaling-stroke" d="
  M 907.30 1592.00
  L 870.89 1516.99
  Q 870.63 1516.45 871.01 1515.98
  L 871.91 1514.84
  Q 872.34 1514.30 871.64 1514.12
  L 674.16 1462.20
  A 1.58 1.53 -1.1 0 1 673.07 1461.19
  L 668.65 1447.54
  Q 668.40 1446.78 668.24 1447.56
  Q 668.16 1447.94 667.97 1448.20
  Q 667.77 1448.46 666.93 1448.68
  Q 580.70 1471.35 493.96 1494.08"
/>
</g>
<path fill="#08e3c0" d="
  M 1254.78 1141.78
  L 1160.80 1122.36
  A 0.32 0.31 13.7 0 0 1160.43 1122.58
  L 1150.61 1157.61
  A 1.30 1.30 0.0 0 1 1149.85 1158.46
  Q 1118.74 1171.34 1091.67 1182.62
  Q 1090.23 1183.22 1088.74 1183.11
  Q 1087.28 1183.00 1085.72 1182.78
  Q 1085.19 1182.70 1084.83 1183.09
  L 925.05 1350.97
  Q 924.63 1351.42 924.93 1351.97
  L 928.92 1359.26
  Q 929.59 1360.47 929.68 1359.08
  L 929.82 1357.05
  A 0.44 0.43 -74.3 0 1 930.45 1356.69
  L 1112.00 1452.76
  A 1.01 1.01 0.0 0 1 1112.52 1453.84
  Q 1101.37 1512.07 1090.15 1570.37
  Q 1089.39 1574.30 1089.59 1578.56
  Q 1089.90 1585.31 1089.99 1592.00
  L 907.30 1592.00
  L 870.89 1516.99
  Q 870.63 1516.45 871.01 1515.98
  L 871.91 1514.84
  Q 872.34 1514.30 871.64 1514.12
  L 674.16 1462.20
  A 1.58 1.53 -1.1 0 1 673.07 1461.19
  L 668.65 1447.54
  Q 668.40 1446.78 668.24 1447.56
  Q 668.16 1447.94 667.97 1448.20
  Q 667.77 1448.46 666.93 1448.68
  Q 580.70 1471.35 493.96 1494.08
  Q 505.37 1456.74 509.79 1428.50
  Q 512.92 1408.50 514.39 1400.91
  Q 518.86 1377.69 527.99 1358.02
  Q 531.93 1349.53 540.65 1336.18
  C 552.12 1318.61 565.04 1301.52 579.11 1285.75
  Q 609.35 1251.88 647.78 1220.52
  Q 677.23 1196.48 709.86 1173.09
  Q 721.45 1164.77 726.21 1162.13
  C 740.49 1154.21 753.06 1149.34 770.37 1142.13
  Q 777.37 1139.21 787.47 1133.97
  Q 801.74 1126.57 812.52 1116.52
  Q 817.46 1111.92 819.11 1111.12
  Q 828.71 1106.50 833.91 1115.38
  Q 836.94 1120.55 836.75 1129.26
  Q 836.50 1140.58 836.13 1146.89
  C 834.72 1171.10 830.42 1194.16 821.02 1215.84
  Q 814.40 1231.10 813.70 1233.17
  Q 806.47 1254.64 808.60 1277.89
  C 809.31 1285.62 810.36 1292.45 814.21 1298.60
  C 818.69 1305.78 826.62 1307.84 834.74 1307.71
  Q 843.61 1307.57 857.82 1304.08
  C 895.85 1294.72 931.61 1278.46 964.95 1258.44
  Q 1001.84 1236.29 1028.55 1216.28
  Q 1043.28 1205.25 1059.92 1190.90
  Q 1086.91 1167.63 1103.62 1153.36
  Q 1132.84 1128.41 1162.06 1111.05
  Q 1177.77 1101.71 1198.16 1093.49
  Q 1200.76 1092.44 1203.59 1092.46
  Q 1215.88 1092.55 1225.38 1092.48
  A 1.19 1.19 0.0 0 1 1226.27 1092.86
  C 1235.55 1102.91 1242.54 1111.06 1247.35 1121.02
  Q 1248.21 1122.81 1250.18 1129.23
  Q 1252.08 1135.43 1254.78 1141.78
  Z"
/>
<path fill="#4bfb57" d="
  M 1254.78 1141.78
  Q 1263.32 1158.34 1274.86 1171.14
  Q 1355.84 1260.92 1411.99 1326.66
  Q 1420.44 1336.55 1424.69 1342.14
  Q 1466.73 1397.42 1477.09 1467.28
  Q 1478.66 1477.93 1478.59 1487.20
  Q 1478.51 1496.59 1478.37 1507.79
  Q 1477.85 1547.38 1478.96 1586.00
  Q 1479.02 1588.08 1478.13 1592.00
  L 1089.99 1592.00
  Q 1089.90 1585.31 1089.59 1578.56
  Q 1089.39 1574.30 1090.15 1570.37
  Q 1101.37 1512.07 1112.52 1453.84
  A 1.01 1.01 0.0 0 0 1112.00 1452.76
  L 930.45 1356.69
  A 0.44 0.43 -74.3 0 0 929.82 1357.05
  L 929.68 1359.08
  Q 929.59 1360.47 928.92 1359.26
  L 924.93 1351.97
  Q 924.63 1351.42 925.05 1350.97
  L 1084.83 1183.09
  Q 1085.19 1182.70 1085.72 1182.78
  Q 1087.28 1183.00 1088.74 1183.11
  Q 1090.23 1183.22 1091.67 1182.62
  Q 1118.74 1171.34 1149.85 1158.46
  A 1.30 1.30 0.0 0 0 1150.61 1157.61
  L 1160.43 1122.58
  A 0.32 0.31 13.7 0 1 1160.80 1122.36
  L 1254.78 1141.78
  Z"
/>
<path fill="#4bfb57" d="
  M 907.30 1592.00
  L 456.49 1592.00
  Q 477.80 1543.70 493.96 1494.08
  Q 580.70 1471.35 666.93 1448.68
  Q 667.77 1448.46 667.97 1448.20
  Q 668.16 1447.94 668.24 1447.56
  Q 668.40 1446.78 668.65 1447.54
  L 673.07 1461.19
  A 1.58 1.53 -1.1 0 0 674.16 1462.20
  L 871.64 1514.12
  Q 872.34 1514.30 871.91 1514.84
  L 871.01 1515.98
  Q 870.63 1516.45 870.89 1516.99
  L 907.30 1592.00
  Z"
/>
</svg>
