<svg xmlns="http://www.w3.org/2000/svg" viewBox="0 0 382 382"><g fill="none" stroke-width="2"><path stroke="#c7fba0" d="m334.11 312.96-.05 7.93q-.01.53.52.53l6.7-.03M195.58 267.47l.04 18.22q0 .55.56.56l2.79.01M232.32 334.42a10.37 10.37 0 0 0-10.37-10.37 10.37 10.37 0 0 0-10.37 10.37 10.37 10.37 0 0 0 10.37 10.37 10.37 10.37 0 0 0 10.37-10.37M166.78 335.26a.32.32 0 0 0-.28-.46h-20.88a.32.32 0 0 0-.28.46l10.43 20.87a.32.32 0 0 0 .58 0l10.43-20.87" vector-effect="non-scaling-stroke"/><path stroke="#ead7f4" d="M199.53 284.6q-1.95-.04-1.96-2.1-.01-8.12.1-16.42" vector-effect="non-scaling-stroke"/><path stroke="#d4e19d" d="m336.22 315.35-.22 3.33q-.03.54.49.66 1.56.36 3.21-.07" vector-effect="non-scaling-stroke"/><path stroke="#d89a9f" d="M230.34 334.41a8.38 8.38 0 0 0-8.38-8.38 8.38 8.38 0 0 0-8.38 8.38 8.38 8.38 0 0 0 8.38 8.38 8.38 8.38 0 0 0 8.38-8.38" vector-effect="non-scaling-stroke"/><path stroke="#d4e19d" d="M163.54 337.29a.35.35 0 0 0-.31-.51h-14.36a.35.35 0 0 0-.31.51l7.18 14.34a.35.35 0 0 0 .62 0l7.18-14.34" vector-effect="non-scaling-stroke"/></g><path fill="#8ef740" d="m334.11 312.96-.05 7.93q-.01.53.52.53l6.7-.03q8.77 11.25 12.03 24.9 1.41 5.89 1.47 16.05.06 9.83.05 19.66H109.75q1.71-4.59 3.61-9.1 7.14-16.97 9.94-35.5 1.55-10.31 8.69-19.96c10.94-14.8 24.57-25.95 39.52-36.69 5.09-3.66 11.62-5.69 16.95-8.28q3.61-1.76 7.12-5l.04 18.22q0 .55.56.56l2.79.01c-1.45 4.47-3.95 9.37-4.64 13.37-.84 4.87-1.39 14.9 6.35 14.16q8.44-.8 18.31-5.28 17.68-8.02 31.66-19.65 9.02-7.51 17.81-14.85 9.46-7.91 19.07-11.4 2.2-.8 6.05-.37a1.81 1.8-18.5 0 1 1.13.56q3.86 4.03 4.79 6.96 2.06 6.5 6.79 11.71 11.64 12.83 27.82 31.49m-101.79 21.46a10.37 10.37 0 0 0-10.37-10.37 10.37 10.37 0 0 0-10.37 10.37 10.37 10.37 0 0 0 10.37 10.37 10.37 10.37 0 0 0 10.37-10.37m-65.54.84a.32.32 0 0 0-.28-.46h-20.88a.32.32 0 0 0-.28.46l10.43 20.87a.32.32 0 0 0 .58 0z"/><path fill="#d5b0e8" d="M199.53 284.6q-1.95-.04-1.96-2.1-.01-8.12.1-16.42 2.91.22 3.19 3.17.58 6.17-1.33 15.35"/><path fill="#fffeff" d="M197.67 266.08q-.11 8.3-.1 16.42.01 2.06 1.96 2.1l-.56 1.66-2.79-.01q-.56-.01-.56-.56l-.04-18.22q.52-.92 2.09-1.39M336.22 315.35l-.22 3.33q-.03.54.49.66 1.56.36 3.21-.07l1.58 2.12-6.7.03q-.53 0-.52-.53l.05-7.93q1.51 1.09 2.11 2.39"/><path fill="#a9c33b" d="M339.7 319.27q-1.65.43-3.21.07-.52-.12-.49-.66l.22-3.33z"/><path fill="#fffeff" d="M232.32 334.42a10.37 10.37 0 0 1-10.37 10.37 10.37 10.37 0 0 1-10.37-10.37 10.37 10.37 0 0 1 10.37-10.37 10.37 10.37 0 0 1 10.37 10.37m-1.98-.01a8.38 8.38 0 0 0-8.38-8.38 8.38 8.38 0 0 0-8.38 8.38 8.38 8.38 0 0 0 8.38 8.38 8.38 8.38 0 0 0 8.38-8.38"/><circle cx="221.96" cy="334.41" r="8.38" fill="#b1353f"/><path fill="#fffeff" d="m166.78 335.26-10.43 20.87a.32.32 0 0 1-.58 0l-10.43-20.87a.32.32 0 0 1 .28-.46h20.88a.32.32 0 0 1 .28.46m-3.24 2.03a.35.35 0 0 0-.31-.51h-14.36a.35.35 0 0 0-.31.51l7.18 14.34a.35.35 0 0 0 .62 0z"/><path fill="#a9c33b" d="m163.54 337.29-7.18 14.34a.35.35 0 0 1-.62 0l-7.18-14.34a.35.35 0 0 1 .31-.51h14.36a.35.35 0 0 1 .31.51"/></svg>