<svg xmlns="http://www.w3.org/2000/svg" viewBox="0 0 382 382"><g fill="none" stroke-width="2"><path stroke="#99f2de" d="m294.13 262.23-.05 4.59q-.01.54.53.6 1.8.22 3.67-.17M300.46 272.44l-3.12-.06a.31.3-12.8 0 0-.28.44l13.78 27.55q.36.72.73-.01l4.14-8.35M354.73 367.36c-12.25-7.58-26.18.52-26.57 14.64M141.75 382q.01-1.75-2-1.76-14.51-.06-29.45-.13M254.36 352.42a.16.16 0 0 1 .21.08l3.31 6.66a.16.16 0 0 0 .28 0l12.74-25.47a.16.16 0 0 0-.14-.23l-25.47.01a.16.16 0 0 0-.14.23l4.06 8.14a.16.16 0 0 1-.14.23l-11.28.01a.16.16 0 0 0-.16.16v16.27a.16.16 0 0 0 .16.16l16.33.01a.16.16 0 0 0 .16-.16l-.11-5.9a.16.16 0 0 1 .1-.15l.09-.05" vector-effect="non-scaling-stroke"/><path stroke="#a48680" d="M296.27 264.58q-.13.46.3.86.38.34.59.11M301.13 273.71q-.42.37-.63.79-.2.38-.01.76l10.45 20.86a.27.27 0 0 0 .48 0l2.95-5.88" vector-effect="non-scaling-stroke"/><path stroke="#adbceb" d="M254.3 342.81c-.03 1.99-.29 3.97.6 5.82q1.37 2.85 2.77 5.68.34.7.69 0l9.07-18.16q.35-.69-.43-.69l-17.97.01q-.72 0-.4.64l2.57 5.27q.34.69 1.11.69l1.25-.01q.75 0 .74.75" vector-effect="non-scaling-stroke"/><path stroke="#dea49a" d="M252.26 344.42a.35.35 0 0 0-.35-.35h-11.92a.35.35 0 0 0-.35.35v11.9a.35.35 0 0 0 .35.35h11.92a.35.35 0 0 0 .35-.35v-11.9" vector-effect="non-scaling-stroke"/><path stroke="#dff6f1" d="M354.94 368.96q-.56.77-1.2.34c-4.59-3.07-9.31-3.77-14.48-1.55q-8.79 3.77-8.88 14.25" vector-effect="non-scaling-stroke"/></g><path fill="#33e5bd" d="m294.13 262.23-.05 4.59q-.01.54.53.6 1.8.22 3.67-.17 1.46 2.25 2.18 5.19l-3.12-.06a.31.3-12.8 0 0-.28.44l13.78 27.55q.36.72.73-.01l4.14-8.35q11.94 13.38 23.58 26.96 12.22 14.25 15.04 32.62c.76 4.93.46 10.47.4 15.77-12.25-7.58-26.18.52-26.57 14.64H141.75q.01-1.75-2-1.76-14.51-.06-29.45-.13 9.47-20.4 13.11-43.23 1.59-10 8.59-19.46c11-14.85 24.76-26.17 39.8-36.83q2.85-2.03 5.8-3.26c6.6-2.76 13.31-5.34 18.47-10.27a2.53 2.52-38.3 0 1 3.87.45q.7 1.08.74 2.4.28 8.66-1.89 16.71c-1.21 4.5-3.68 8.56-4.49 13.17q-.77 4.43.09 9.2c1.03 5.68 5.99 5.29 10.25 4.29q8.96-2.11 15.07-5.05 19.19-9.24 31.11-19.48 8.77-7.52 18.63-15.54 7.37-5.99 16.47-10.07c2.72-1.22 5.31-1.06 8.21-.91m-39.77 90.19a.16.16 0 0 1 .21.08l3.31 6.66a.16.16 0 0 0 .28 0l12.74-25.47a.16.16 0 0 0-.14-.23l-25.47.01a.16.16 0 0 0-.14.23l4.06 8.14a.16.16 0 0 1-.14.23l-11.28.01a.16.16 0 0 0-.16.16v16.27a.16.16 0 0 0 .16.16l16.33.01a.16.16 0 0 0 .16-.16l-.11-5.9a.16.16 0 0 1 .1-.15z"/><path fill="#feffff" d="M296.27 264.58q-.13.46.3.86.38.34.59.11.74.58 1.12 1.7-1.87.39-3.67.17-.54-.06-.53-.6l.05-4.59q1.34.56 2.14 2.35"/><path fill="#490c01" d="M297.16 265.55q-.21.23-.59-.11-.43-.4-.3-.86.56.2.89.97"/><path fill="#feffff" d="M300.46 272.44q.43.51.67 1.27-.42.37-.63.79-.2.38-.01.76l10.45 20.86a.27.27 0 0 0 .48 0l2.95-5.88 1.34 1.77-4.14 8.35q-.37.73-.73.01l-13.78-27.55a.31.3-12.8 0 1 .28-.44z"/><path fill="#490c01" d="m314.37 290.24-2.95 5.88a.27.27 0 0 1-.48 0l-10.45-20.86q-.19-.38.01-.76.21-.42.63-.79c3.06 6.09 8.62 11.54 13.24 16.53"/><path fill="#feffff" d="m254.36 352.42-.09.05a.16.16 0 0 0-.1.15l.11 5.9a.16.16 0 0 1-.16.16l-16.33-.01a.16.16 0 0 1-.16-.16v-16.27a.16.16 0 0 1 .16-.16l11.28-.01a.16.16 0 0 0 .14-.23l-4.06-8.14a.16.16 0 0 1 .14-.23l25.47-.01a.16.16 0 0 1 .14.23l-12.74 25.47a.16.16 0 0 1-.28 0l-3.31-6.66a.16.16 0 0 0-.21-.08m-.06-9.61c-.03 1.99-.29 3.97.6 5.82q1.37 2.85 2.77 5.68.34.7.69 0l9.07-18.16q.35-.69-.43-.69l-17.97.01q-.72 0-.4.64l2.57 5.27q.34.69 1.11.69l1.25-.01q.75 0 .74.75m-2.04 1.61a.35.35 0 0 0-.35-.35h-11.92a.35.35 0 0 0-.35.35v11.9a.35.35 0 0 0 .35.35h11.92a.35.35 0 0 0 .35-.35z"/><path fill="#5c78d7" d="m253.56 342.06-1.25.01q-.77 0-1.11-.69l-2.57-5.27q-.32-.64.4-.64l17.97-.01q.78 0 .43.69l-9.07 18.16q-.35.7-.69 0-1.4-2.83-2.77-5.68c-.89-1.85-.63-3.83-.6-5.82q.01-.75-.74-.75"/><rect width="12.62" height="12.6" x="239.64" y="344.07" fill="#be4935" rx=".35"/><path fill="#feffff" d="M354.73 367.36q.25.54.21 1.6-.56.77-1.2.34c-4.59-3.07-9.31-3.77-14.48-1.55q-8.79 3.77-8.88 14.25h-2.22c.39-14.12 14.32-22.22 26.57-14.64"/><path fill="#bfede3" d="M354.94 368.96 355 382h-24.62q.09-10.48 8.88-14.25c5.17-2.22 9.89-1.52 14.48 1.55q.64.43 1.2-.34"/><path fill="#feffff" d="M110.3 380.11q14.94.07 29.45.13 2.01.01 2 1.76h-32.24z"/></svg>