<svg xmlns="http://www.w3.org/2000/svg" viewBox="0 0 382 382"><g fill="none" stroke-width="2"><path stroke="#bdcc8d" d="M253.99 382q6.29-15.5-5.54-26.53-.47-.44-.64-1.07c-5.23-19.48-32.77-20.57-38.75-1.15q-3.06 9.93 3.52 18.71a2.24 2.18-67.4 0 1 .42 1.06q.5 4.69 2.36 8.98M128.05 323.44l6.7.05q.53 0 .53-.53l.08-8.72" vector-effect="non-scaling-stroke"/><path stroke="#9bb342" d="M135.36 314.24q.2-.57 0-1.25" vector-effect="non-scaling-stroke"/><path stroke="#bdcc8d" d="M180.52 351.88a7.26 7.26 0 0 0-7.26-7.26 7.26 7.26 0 0 0-7.26 7.26 7.26 7.26 0 0 0 7.26 7.26 7.26 7.26 0 0 0 7.26-7.26" vector-effect="non-scaling-stroke"/><path stroke="#dde6b3" d="M135.36 314.24q-.17-.34-.57-.6" vector-effect="non-scaling-stroke"/><path stroke="#ddd1b0" d="m129.16 321.51 3.67-.08q.53-.01.53-.54l.04-5.62" vector-effect="non-scaling-stroke"/><path stroke="#9fdef9" d="M251.61 382q5.18-9.88.57-18.64c-4.67-8.89-14.96-13.12-24.34-9.52-11.63 4.45-15.94 17.3-10.1 28.16" vector-effect="non-scaling-stroke"/><path stroke="#dde6b3" d="M245.22 352.76q-3.9-8.79-12.42-11c-16.16-4.19-27.98 12.92-20.04 27.07q.39.7.56-.08c3.1-14.74 17.73-22.65 31.5-15.62q.73.38.4-.37" vector-effect="non-scaling-stroke"/><path stroke="#ddd1b0" d="M178.52 351.87a5.26 5.26 0 0 0-5.26-5.26 5.26 5.26 0 0 0-5.26 5.26 5.26 5.26 0 0 0 5.26 5.26 5.26 5.26 0 0 0 5.26-5.26" vector-effect="non-scaling-stroke"/></g><path fill="#7b991c" d="M354.86 382H253.99q6.29-15.5-5.54-26.53-.47-.44-.64-1.07c-5.23-19.48-32.77-20.57-38.75-1.15q-3.06 9.93 3.52 18.71a2.24 2.18-67.4 0 1 .42 1.06q.5 4.69 2.36 8.98H109.73q2.36-6.02 4.73-11.99 6.04-15.2 7.3-23.77c1.25-8.46 2.42-15.68 6.29-22.8l6.7.05q.53 0 .53-.53l.08-8.72q.2-.57 0-1.25c10.27-12.57 23-22.98 36.18-32.2q2.87-2.01 5.48-3.17c6.68-2.98 13.26-5.29 18.94-10.43 2.39-2.16 4.71.17 4.75 2.7q.18 13.16-3.85 22.09c-2.6 5.74-3.64 11.12-2.39 17.3 1.1 5.51 6.36 4.97 10.51 3.95q8.45-2.08 14.51-4.91 17.74-8.27 30.69-19.05 9.75-8.12 18.62-15.52 9.23-7.7 18.8-11.16 1.93-.7 6.08-.35.47.04.8.37 4.15 4.1 5.36 7.96 1.79 5.72 6.05 10.45 15.69 17.44 32.88 37.3 10.9 12.61 14.61 28.2 1.34 5.62 1.4 15.58.05 9.95.08 19.9m-174.34-30.12a7.26 7.26 0 0 0-7.26-7.26 7.26 7.26 0 0 0-7.26 7.26 7.26 7.26 0 0 0 7.26 7.26 7.26 7.26 0 0 0 7.26-7.26"/><path fill="#bbcc67" d="M135.36 312.99q.2.68 0 1.25-.17-.34-.57-.6.42-.29.57-.65"/><path fill="#fffffe" d="M134.79 313.64q.4.26.57.6l-.08 8.72q0 .53-.53.53l-6.7-.05q.41-1.07 1.11-1.93l3.67-.08q.53-.01.53-.54l.04-5.62z"/><path fill="#bba261" d="m133.4 315.27-.04 5.62q0 .53-.53.54l-3.67.08z"/><path fill="#fffffe" d="M253.99 382h-2.38q5.18-9.88.57-18.64c-4.67-8.89-14.96-13.12-24.34-9.52-11.63 4.45-15.94 17.3-10.1 28.16h-2.38q-1.86-4.29-2.36-8.98a2.24 2.18-67.4 0 0-.42-1.06q-6.58-8.78-3.52-18.71c5.98-19.42 33.52-18.33 38.75 1.15q.17.63.64 1.07 11.83 11.03 5.54 26.53m-8.77-29.24q-3.9-8.79-12.42-11c-16.16-4.19-27.98 12.92-20.04 27.07q.39.7.56-.08c3.1-14.74 17.73-22.65 31.5-15.62q.73.38.4-.37"/><path fill="#bbcc67" d="M244.82 353.13c-13.77-7.03-28.4.88-31.5 15.62q-.17.78-.56.08c-7.94-14.15 3.88-31.26 20.04-27.07q8.52 2.21 12.42 11 .33.75-.4.37"/><path fill="#fffffe" d="M180.52 351.88a7.26 7.26 0 0 1-7.26 7.26 7.26 7.26 0 0 1-7.26-7.26 7.26 7.26 0 0 1 7.26-7.26 7.26 7.26 0 0 1 7.26 7.26m-2-.01a5.26 5.26 0 0 0-5.26-5.26 5.26 5.26 0 0 0-5.26 5.26 5.26 5.26 0 0 0 5.26 5.26 5.26 5.26 0 0 0 5.26-5.26"/><circle cx="173.26" cy="351.87" r="5.26" fill="#bba261"/><path fill="#3fbdf4" d="M251.61 382h-33.87c-5.84-10.86-1.53-23.71 10.1-28.16 9.38-3.6 19.67.63 24.34 9.52q4.61 8.76-.57 18.64"/></svg>