<svg xmlns="http://www.w3.org/2000/svg" viewBox="0 0 382 382"><g fill="none" stroke-width="2"><path stroke="#90f388" d="M312.78 288.67q.68 2.93 2.44 5.28.34.44.71.03.33-.36.58-1.07M155.49 382l-.03-38.69q0-.65-.65-.65h-9.82q-.61 0-.34-.55l17.84-35.65a.32.32 0 0 0-.28-.46l-19.71-.04" vector-effect="non-scaling-stroke"/><path stroke="#7dd13e" d="M142.5 305.96q-.01-.27-.61-.5" vector-effect="non-scaling-stroke"/><path stroke="#90f388" d="M286.46 323.67a.32.32 0 0 0-.29-.46h-40.94a.32.32 0 0 0-.29.46l20.47 40.94a.32.32 0 0 0 .58 0l20.47-40.94" vector-effect="non-scaling-stroke"/><path stroke="#ebddb5" d="M142.5 305.96q-.44.07-.95-.05" vector-effect="non-scaling-stroke"/><path stroke="#99e1cd" d="m153.45 382-.05-36.7q0-.51-.51-.51l-30.91-.08" vector-effect="non-scaling-stroke"/><path stroke="#ebddb5" d="M122.37 341.55q9.03 1.89 19.2 1.14a1.02 1-78.4 0 0 .83-.56l16.84-33.66a.33.33 0 0 0-.29-.48l-19.43-.05" vector-effect="non-scaling-stroke"/><path stroke="#eff195" d="M283.22 325.67a.32.32 0 0 0-.29-.47h-34.48a.32.32 0 0 0-.29.47l17.24 34.5a.32.32 0 0 0 .58 0l17.24-34.5" vector-effect="non-scaling-stroke"/></g><path fill="#21e610" d="M312.78 288.67q.68 2.93 2.44 5.28.34.44.71.03.33-.36.58-1.07 7.47 8.37 22.41 25.67 10.75 12.44 14.42 27.85 1.38 5.8 1.44 15.78.05 9.89.06 19.79H155.49l-.03-38.69q0-.65-.65-.65h-9.82q-.61 0-.34-.55l17.84-35.65a.32.32 0 0 0-.28-.46l-19.71-.04q-.01-.27-.61-.5 13.49-13.56 29.29-24.33 4.52-3.09 8.22-4.62c6.04-2.5 11.8-4.87 16.71-9.47a2.5 2.49 48.4 0 1 3.62.22c2.5 3 .06 15.6-.93 19.35-1.13 4.3-3.46 8.12-4.36 12.45q-.85 4.05-.24 8.93c.82 6.57 5.65 6.47 10.62 5.26 6.38-1.54 13.03-3.85 18.82-6.86q15.57-8.07 26.47-17.1 9.49-7.85 18.39-15.31 8.87-7.43 18.55-11.22 2.66-1.04 6.57-.5.61.09 1.05.53 4.07 4.15 5.15 7.73c2.05 6.82 7.28 12.23 12.96 18.15m-26.32 35a.32.32 0 0 0-.29-.46h-40.94a.32.32 0 0 0-.29.46l20.47 40.94a.32.32 0 0 0 .58 0z"/><path fill="#feffff" d="M316.51 292.91q-.25.71-.58 1.07-.37.41-.71-.03-1.76-2.35-2.44-5.28z"/><path fill="#d8bb6b" d="M141.89 305.46q.6.23.61.5-.44.07-.95-.05.58-.42.34-.45"/><path fill="#feffff" d="M141.55 305.91q.51.12.95.05l19.71.04a.32.32 0 0 1 .28.46l-17.84 35.65q-.27.55.34.55h9.82q.65 0 .65.65l.03 38.69h-2.04l-.05-36.7q0-.51-.51-.51l-30.91-.08.39-3.16q9.03 1.89 19.2 1.14a1.02 1-78.4 0 0 .83-.56l16.84-33.66a.33.33 0 0 0-.29-.48l-19.43-.05z"/><path fill="#d8bb6b" d="m139.52 307.94 19.43.05a.33.33 0 0 1 .29.48l-16.84 33.66a1.02 1-78.4 0 1-.83.56q-10.17.75-19.2-1.14 1.43-9.97 4.07-15.35 4.39-8.91 13.08-18.26"/><path fill="#feffff" d="m286.46 323.67-20.47 40.94a.32.32 0 0 1-.58 0l-20.47-40.94a.32.32 0 0 1 .29-.46h40.94a.32.32 0 0 1 .29.46m-3.24 2a.32.32 0 0 0-.29-.47h-34.48a.32.32 0 0 0-.29.47l17.24 34.5a.32.32 0 0 0 .58 0z"/><path fill="#dfe32b" d="m283.22 325.67-17.24 34.5a.32.32 0 0 1-.58 0l-17.24-34.5a.32.32 0 0 1 .29-.47h34.48a.32.32 0 0 1 .29.47"/><path fill="#34c39b" d="M153.45 382H109.4q8.32-18.19 12.58-37.29l30.91.08q.51 0 .51.51z"/></svg>