<svg xmlns="http://www.w3.org/2000/svg" viewBox="0 0 382 382"><g fill="none" stroke-width="2"><path stroke="#a595a1" d="M122.69 340.35q2.05 5.04 6.24 9.09.45.44-.12.7-5.15 2.39-5.07 7.92c.15 10.62 17.19 10.37 16.14-1.56q-.05-.58.52-.45 16.71 3.94 28.1-8.01c11.06-11.6 9.07-29.71-2.57-39.92q-.43-.38.14-.38l11.06-.02q.6 0 .6-.6l.01-13.27q0-.65-.64-.65h-13.31q-.6 0-.6.6l.01 11.66q0 .54-.46.27-7.85-4.66-17.09-4.05" vector-effect="non-scaling-stroke"/><path stroke="#d8a0e7" d="M123.19 337.19c1.13 1.89 1.89 3.83 3.06 5.7q5.7 9.13 16.07 11.49c24.18 5.51 41.35-22.96 25.21-41.83q-3.35-3.92-7.98-6.26c-5.25-2.65-10.2-2.67-16.12-2.56" vector-effect="non-scaling-stroke"/><path stroke="#edc582" d="M175.757 295.618a.41.41 0 0 0-.409-.411l-9.72-.034a.41.41 0 0 0-.411.409l-.034 9.72a.41.41 0 0 0 .409.411l9.72.034a.41.41 0 0 0 .411-.409l.034-9.72" vector-effect="non-scaling-stroke"/><path stroke="#99e79f" d="M132.72 352.37q-1.47-1.03-2.97-.45c-6.75 2.6-4.33 12.73 2.65 11.88q4.68-.57 5.55-5.44c.66-3.74-2.91-4.37-5.23-5.99" vector-effect="non-scaling-stroke"/></g><path fill="#4a2b43" d="M354.83 382H109.68c5.78-13.34 10.99-27.25 13.01-41.65q2.05 5.04 6.24 9.09.45.44-.12.7-5.15 2.39-5.07 7.92c.15 10.62 17.19 10.37 16.14-1.56q-.05-.58.52-.45 16.71 3.94 28.1-8.01c11.06-11.6 9.07-29.71-2.57-39.92q-.43-.38.14-.38l11.06-.02q.6 0 .6-.6l.01-13.27q0-.65-.64-.65h-13.31q-.6 0-.6.6l.01 11.66q0 .54-.46.27-7.85-4.66-17.09-4.05 11.82-11.05 25.04-20.25 4.63-3.22 8.54-4.85c6.17-2.57 11.69-4.84 16.75-9.38 2.41-2.15 4.69.16 4.73 2.66q.13 8.79-1.77 16.26c-1.13 4.48-3.51 8.34-4.47 12.84q-.95 4.46-.2 9.47c.87 5.77 5.13 5.98 9.62 5.01q8.43-1.82 15.53-5.1 17.47-8.08 30.34-18.76 9.68-8.03 18.95-15.75 9.17-7.63 18.73-11.18 2.49-.93 6.23-.38.61.09 1.04.53 3.82 3.9 5.01 7.51 2.01 6.12 6.48 11.09 24.57 27.29 34.94 39.95 8.96 10.95 12.21 24.98 1.38 5.92 1.43 15.97.05 9.85.05 19.7"/><path fill="#fff" d="m122.69 340.35.5-3.16c1.13 1.89 1.89 3.83 3.06 5.7q5.7 9.13 16.07 11.49c24.18 5.51 41.35-22.96 25.21-41.83q-3.35-3.92-7.98-6.26c-5.25-2.65-10.2-2.67-16.12-2.56l2.22-2.05q9.24-.61 17.09 4.05.46.27.46-.27l-.01-11.66q0-.6.6-.6h13.31q.64 0 .64.65l-.01 13.27q0 .6-.6.6l-11.06.02q-.57 0-.14.38c11.64 10.21 13.63 28.32 2.57 39.92q-11.39 11.95-28.1 8.01-.57-.13-.52.45c1.05 11.93-15.99 12.18-16.14 1.56q-.08-5.53 5.07-7.92.57-.26.12-.7-4.19-4.05-6.24-9.09m53.067-44.732a.41.41 0 0 0-.409-.411l-9.72-.034a.41.41 0 0 0-.411.409l-.034 9.72a.41.41 0 0 0 .409.411l9.72.034a.41.41 0 0 0 .411-.409zM132.72 352.37q-1.47-1.03-2.97-.45c-6.75 2.6-4.33 12.73 2.65 11.88q4.68-.57 5.55-5.44c.66-3.74-2.91-4.37-5.23-5.99"/><rect width="10.54" height="10.54" x="-5.27" y="-5.27" fill="#da8b05" rx=".41" transform="rotate(.2 -85990.127 48986.238)"/><path fill="#b140cf" d="M123.19 337.19q1.78-10.66 8.9-20.09 6.17-8.16 11.34-13.37c5.92-.11 10.87-.09 16.12 2.56q4.63 2.34 7.98 6.26c16.14 18.87-1.03 47.34-25.21 41.83q-10.37-2.36-16.07-11.49c-1.17-1.87-1.93-3.81-3.06-5.7"/><path fill="#32ce3f" d="M132.72 352.37c2.32 1.62 5.89 2.25 5.23 5.99q-.87 4.87-5.55 5.44c-6.98.85-9.4-9.28-2.65-11.88q1.5-.58 2.97.45"/></svg>