<svg xmlns="http://www.w3.org/2000/svg" viewBox="0 0 382 382"><g fill="none" stroke-width="2"><path stroke="#fabfa6" d="M304.96 279.6q-14.35-2.55-18.31-17.02" vector-effect="non-scaling-stroke"/><path stroke="#d6efa6" d="M306.09 281.1q-.4.26-.3.66" vector-effect="non-scaling-stroke"/><path stroke="#9dd68f" d="M305.79 281.76q-16.6-2.49-20.85-18.26" vector-effect="non-scaling-stroke"/><path stroke="#73c637" d="M305.79 281.76q.28.08.63-.1" vector-effect="non-scaling-stroke"/><path stroke="#9dd68f" d="M182.9 382q5.92-19.32-9.08-30.83-5.42-4.16-14.05-4.9-.5-.04-.54-.53-1.21-15.91-15.02-21.24-7.51-2.91-16.97.48" vector-effect="non-scaling-stroke"/><path stroke="#fabfa6" d="M180.55 382q3.42-8.28 1.31-15.78c-6.04-21.46-34.63-24.42-44.79-4.64q-4.95 9.64-.38 20.42" vector-effect="non-scaling-stroke"/><path stroke="#9dd68f" d="M134.45 382q-2.37-6.46-1.66-13.27.05-.5-.44-.6-8.72-1.86-13.99-8.86" vector-effect="non-scaling-stroke"/><path stroke="#d6efa6" d="M118.36 359.27q.24-.52.08-1M118.93 356.9q5.43 7.55 13.77 9.19.52.1.67-.39 5.4-17.05 23.28-19.44.53-.07.5-.6-.45-8.61-5.07-13.5-10.92-11.6-26.34-4.12" vector-effect="non-scaling-stroke"/><path stroke="#73c637" d="M118.36 359.27q0-.01.01-.02" vector-effect="non-scaling-stroke"/></g><path fill="#f47e4d" d="M304.96 279.6q-14.35-2.55-18.31-17.02 3.32-.84 7.02-.53.49.04.85.38 4.19 3.96 6.25 10.28 1.05 3.2 4.19 6.89"/><path fill="#fffffe" d="M286.65 262.58q3.96 14.47 18.31 17.02l1.13 1.5q-.4.26-.3.66-16.6-2.49-20.85-18.26z"/><path fill="#3aad20" d="M284.94 263.5q4.25 15.77 20.85 18.26.28.08.63-.1 25.63 28.3 34.92 39.76 8.75 10.79 12.02 24.93 1.36 5.91 1.42 15.92.05 9.87.07 19.73H182.9q5.92-19.32-9.08-30.83-5.42-4.16-14.05-4.9-.5-.04-.54-.53-1.21-15.91-15.02-21.24-7.51-2.91-16.97.48c10.53-18.02 26.47-31.78 43.59-43.65q3.79-2.62 6.59-3.89c6.58-3 12.96-5.16 18.56-10.25 2.31-2.1 4.64.08 4.71 2.55.22 7.68-.83 15.85-4.01 22.75-2.29 4.97-3.15 9.56-2.52 15.25.89 8.15 7.88 6.36 13.22 4.89q7.22-1.98 11.99-4.25 18.55-8.85 30.2-18.6 8.73-7.31 19.43-16.29 6.4-5.38 15.94-9.99"/><path fill="#acde4d" d="M306.42 281.66q-.35.18-.63.1-.1-.4.3-.66.35.27.33.56"/><path fill="#fffffe" d="M182.9 382h-2.35q3.42-8.28 1.31-15.78c-6.04-21.46-34.63-24.42-44.79-4.64q-4.95 9.64-.38 20.42h-2.24q-2.37-6.46-1.66-13.27.05-.5-.44-.6-8.72-1.86-13.99-8.86.24-.52.08-1l.49-1.37q5.43 7.55 13.77 9.19.52.1.67-.39 5.4-17.05 23.28-19.44.53-.07.5-.6-.45-8.61-5.07-13.5-10.92-11.6-26.34-4.12.64-2.07 1.5-3.06 9.46-3.39 16.97-.48 13.81 5.33 15.02 21.24.04.49.54.53 8.63.74 14.05 4.9 15 11.51 9.08 30.83"/><path fill="#acde4d" d="M118.93 356.9q2.32-8.12 4.18-19.58.69-4.3 2.63-9.28 15.42-7.48 26.34 4.12 4.62 4.89 5.07 13.5.03.53-.5.6-17.88 2.39-23.28 19.44-.15.49-.67.39-8.34-1.64-13.77-9.19"/><path fill="#f47e4d" d="M180.55 382h-43.86q-4.57-10.78.38-20.42c10.16-19.78 38.75-16.82 44.79 4.64q2.11 7.5-1.31 15.78"/><path fill="#acde4d" d="M118.44 358.27q.16.48-.08 1 0-.01.01-.02-.22-.48.07-.98"/><path fill="#3aad20" d="M118.36 359.27q5.27 7 13.99 8.86.49.1.44.6-.71 6.81 1.66 13.27h-24.81l8.73-22.75q-.01.01-.01.02"/></svg>