<svg xmlns="http://www.w3.org/2000/svg" viewBox="0 0 382 382"><g fill="none" stroke-width="2"><path stroke="#aeb5af" d="M301.77 275.08q-12.8.31-19.41-10.35" vector-effect="non-scaling-stroke"/><path stroke="#88ebdd" d="M302.78 276.96q-14.57.97-22.19-11.25M163.35 382q.48-1.9 1.17-3.78c3.18-8.75.5-18.33-5.75-24.71-7.45-7.6-19.16-9.3-28.52-4.28-9.78 5.25-14.64 16.09-12.11 26.94.47 2.02 1.31 3.84 1.89 5.83M132.51 316.96q13.09-4.61 17.68-17.64.47-1.33-.15-1.66M161.36 288.38l.01 26.32a.37.36 0 0 0 .37.36l26.13.01a.41.41 0 0 0 .41-.41l.01-26.15a.33.33 0 0 0-.33-.33l-26.15-.04" vector-effect="non-scaling-stroke"/><path stroke="#88ebdd" d="M174.07 279.18q10.26 9.35 24.81 7.14" vector-effect="non-scaling-stroke"/><path stroke="#faea84" d="M199.64 284.05q-13.53 2.86-23.89-5.99" vector-effect="non-scaling-stroke"/><path stroke="#c88aa0" d="M186.28 290.6a.4.4 0 0 0-.4-.4H163.8a.4.4 0 0 0-.4.4v22.08a.4.4 0 0 0 .4.4h22.08a.4.4 0 0 0 .4-.4V290.6" vector-effect="non-scaling-stroke"/><path stroke="#aeb5af" d="M134.66 313.92q9.59-4.52 13.19-14.4" vector-effect="non-scaling-stroke"/><path stroke="#a8ffa3" d="M160.78 382q5.08-9.41 1.5-19.18c-6.95-19.02-33.95-19.18-41.23-.56q-3.89 9.92 1.46 19.74" vector-effect="non-scaling-stroke"/></g><path fill="#5d6a5e" d="M301.77 275.08q-12.8.31-19.41-10.35 5.32-3.51 11.62-2.57.49.08.83.44 4.16 4.47 4.78 6.57.89 2.97 2.18 5.91"/><path fill="#feffff" d="M282.36 264.73q6.61 10.66 19.41 10.35.63.66 1.01 1.88-14.57.97-22.19-11.25.81-.68 1.77-.98"/><path fill="#11d7ba" d="M280.59 265.71q7.62 12.22 22.19 11.25 1.11 1.47 2.61 3.17 15.27 17.23 33.54 38.41 10.72 12.42 14.45 27.97 1.34 5.58 1.4 15.6.05 9.95.06 19.89H163.35q.48-1.9 1.17-3.78c3.18-8.75.5-18.33-5.75-24.71-7.45-7.6-19.16-9.3-28.52-4.28-9.78 5.25-14.64 16.09-12.11 26.94.47 2.02 1.31 3.84 1.89 5.83h-10.37q4.92-11.61 7.13-17.99 3.98-11.47 6.54-27.16 1.78-10.89 9.18-19.89 13.09-4.61 17.68-17.64.47-1.33-.15-1.66l11.32-9.28.01 26.32a.37.36 0 0 0 .37.36l26.13.01a.41.41 0 0 0 .41-.41l.01-26.15a.33.33 0 0 0-.33-.33l-26.15-.04 12.26-8.96q10.26 9.35 24.81 7.14c-1.4 4.58-3.95 9.49-4.61 13.55-.53 3.32-.92 10.88 2.39 13.05 4.55 2.98 18.99-2.74 23.04-4.69q19.69-9.49 31.59-19.85 11.56-10.07 18.69-15.65 4.27-3.34 10.61-7.02"/><path fill="#f5d409" d="M199.64 284.05q-13.53 2.86-23.89-5.99c7.15-3.37 14.62-5.76 20.3-11.14 2.74-2.59 4.89 1.15 4.89 3.57q0 6.98-1.3 13.56"/><path fill="#feffff" d="M175.75 278.06q10.36 8.85 23.89 5.99-.25 1.5-.76 2.27-14.55 2.21-24.81-7.14 1.1-1.16 1.68-1.12"/><path fill="#feffff" d="m161.81 288.14 26.15.04a.33.33 0 0 1 .33.33l-.01 26.15a.41.41 0 0 1-.41.41l-26.13-.01a.37.36 0 0 1-.37-.36l-.01-26.32zm24.47 2.46a.4.4 0 0 0-.4-.4H163.8a.4.4 0 0 0-.4.4v22.08a.4.4 0 0 0 .4.4h22.08a.4.4 0 0 0 .4-.4z"/><rect width="22.88" height="22.88" x="163.4" y="290.2" fill="#911541" rx=".4"/><path fill="#feffff" d="M150.04 297.66q.62.33.15 1.66-4.59 13.03-17.68 17.64.7-2.18 2.15-3.04 9.59-4.52 13.19-14.4z"/><path fill="#5d6a5e" d="M147.85 299.52q-3.6 9.88-13.19 14.4 5.87-7.91 13.19-14.4"/><path fill="#feffff" d="M163.35 382h-2.57q5.08-9.41 1.5-19.18c-6.95-19.02-33.95-19.18-41.23-.56q-3.89 9.92 1.46 19.74h-2.48c-.58-1.99-1.42-3.81-1.89-5.83-2.53-10.85 2.33-21.69 12.11-26.94 9.36-5.02 21.07-3.32 28.52 4.28 6.25 6.38 8.93 15.96 5.75 24.71q-.69 1.88-1.17 3.78"/><path fill="#52fe46" d="M160.78 382h-38.27q-5.35-9.82-1.46-19.74c7.28-18.62 34.28-18.46 41.23.56q3.58 9.77-1.5 19.18"/></svg>