<svg xmlns="http://www.w3.org/2000/svg" viewBox="0 0 382 382"><g fill="none" stroke-width="2"><path stroke="#8bff90" d="m315.88 292.28-13.55.04a.32.32 0 0 0-.28.46l19.6 39.23a.3.29-44.7 0 0 .53 0l10.37-20.77M306.22 382q.11-1.8-2.22-1.81-19.88-.06-39.75-.01-2.62.01-2.38 1.82M197.83 289.85h-5.74q-.67 0-.36.6 1.49 2.85 2.86 5.61.1.19.3.26t.36-.05M203.33 313.51l19.37 38.76a.22.21 45.4 0 0 .39.01l30.89-61.78q.31-.63-.39-.68l-3.55-.26" vector-effect="non-scaling-stroke"/><path stroke="#8e8df0" d="m205.28 313.06 17.35 34.74a.26.26 0 0 0 .46 0l27.59-55.18q.26-.51-.29-.67-1.31-.39-2.98-.1" vector-effect="non-scaling-stroke"/><path stroke="#c2b2ee" d="M247.41 291.85q.11-.13-.2-.33" vector-effect="non-scaling-stroke"/><path stroke="#8e8df0" d="M196.96 291.98q-.79-.22-1.45-.11-.53.08-.41.61.22 1 .84 1.92" vector-effect="non-scaling-stroke"/><path stroke="#5141df" d="M247.41 291.85q-.63.5-.88.14" vector-effect="non-scaling-stroke"/><path stroke="#c2b2ee" d="m317.87 294.29-12.19.07a.38.38 0 0 0-.34.55l16.27 32.55q.24.49.5.01 4.54-8.58 8.5-16.84.38-.8 1.08-.67" vector-effect="non-scaling-stroke"/></g><path fill="#17ff20" d="m315.88 292.28-13.55.04a.32.32 0 0 0-.28.46l19.6 39.23a.3.29-44.7 0 0 .53 0l10.37-20.77q7.27 8.03 9.97 11.75 7.84 10.79 10.84 23.51 1.36 5.73 1.41 15.64.05 9.93.09 19.86h-48.64q.11-1.8-2.22-1.81-19.88-.06-39.75-.01-2.62.01-2.38 1.82H109.72q2.74-6.81 5.39-13.62 5.88-15.12 8.23-31.21 1.46-9.98 8.74-19.83c10.98-14.86 25.13-26.56 40.16-37.03q2.81-1.96 5.71-3.15c6.48-2.67 13.2-5.31 18.2-10.16a2.39 2.39 0 0 1 3.36.04q1.26 1.27 1.29 3.2.18 10.06-2.97 19.61h-5.74q-.67 0-.36.6 1.49 2.85 2.86 5.61.1.19.3.26t.36-.05c-1.51 4.35-2.85 15.32 2.5 17.25q2.17.78 5.58-.01l19.37 38.76a.22.21 45.4 0 0 .39.01l30.89-61.78q.31-.63-.39-.68l-3.55-.26q12.05-10.46 19.68-16.6 8.56-6.88 17.76-10.34 2.45-.91 6.23-.37.38.06.66.31 4.12 3.64 6.18 9.8 1.49 4.45 5.72 9.12 4.71 5.22 9.61 10.8"/><path fill="#fefeff" d="m250.04 289.56 3.55.26q.7.05.39.68l-30.89 61.78a.22.21 45.4 0 1-.39-.01l-19.37-38.76q.9-.39 1.95-.45l17.35 34.74a.26.26 0 0 0 .46 0l27.59-55.18q.26-.51-.29-.67-1.31-.39-2.98-.1.11-.13-.2-.33 1.27-1.25 2.83-1.96M197.83 289.85q-.1 1.19-.87 2.13-.79-.22-1.45-.11-.53.08-.41.61.22 1 .84 1.92-.13 1.1-.69 1.87-.16.12-.36.05t-.3-.26q-1.37-2.76-2.86-5.61-.31-.6.36-.6z"/><path fill="#8565dd" d="M247.21 291.52q.31.2.2.33-.63.5-.88.14z"/><path fill="#1d1ce1" d="M196.96 291.98q-.2 1.24-1.02 2.42-.62-.92-.84-1.92-.12-.53.41-.61.66-.11 1.45.11M205.28 313.06c15.27-3.95 28.47-11.73 41.25-21.07q.25.36.88-.14 1.67-.29 2.98.1.55.16.29.67l-27.59 55.18a.26.26 0 0 1-.46 0z"/><path fill="#fefeff" d="M315.88 292.28q.95.52 1.99 2.01l-12.19.07a.38.38 0 0 0-.34.55l16.27 32.55q.24.49.5.01 4.54-8.58 8.5-16.84.38-.8 1.08-.67.53.54.86 1.28l-10.37 20.77a.3.29-44.7 0 1-.53 0l-19.6-39.23a.32.32 0 0 1 .28-.46z"/><path fill="#8565dd" d="M331.69 309.96q-.7-.13-1.08.67-3.96 8.26-8.5 16.84-.26.48-.5-.01l-16.27-32.55a.38.38 0 0 1 .34-.55l12.19-.07z"/><path fill="#fefeff" d="M306.22 382h-44.35q-.24-1.81 2.38-1.82 19.87-.05 39.75.01 2.33.01 2.22 1.81"/></svg>