<?xml version="1.0" encoding="UTF-8" standalone="no"?>
<!DOCTYPE svg PUBLIC "-//W3C//DTD SVG 1.1//EN" "http://www.w3.org/Graphics/SVG/1.1/DTD/svg11.dtd">
<svg xmlns="http://www.w3.org/2000/svg" version="1.1" viewBox="0.00 0.00 1592.00 1592.00" width="1592.00" height="1592.00">
<g stroke-width="2.00" fill="none" stroke-linecap="butt">
<path stroke="#904eb6" vector-effect="non-scaling-stroke" d="
  M 1271.85 1167.89
  Q 1296.98 1231.00 1322.14 1293.34
  Q 1322.91 1295.24 1323.22 1296.79
  Q 1324.97 1305.52 1334.71 1353.87
  A 1.02 1.02 0.0 0 1 1334.35 1354.86
  L 1289.93 1391.17
  A 0.40 0.39 30.6 0 0 1290.12 1391.86
  L 1292.04 1392.26
  A 0.57 0.57 0.0 0 1 1292.47 1392.98
  L 1231.26 1592.00"
/>
<path stroke="#904eb6" vector-effect="non-scaling-stroke" d="
  M 555.09 1592.00
  L 546.35 1456.12
  Q 546.30 1455.38 545.58 1455.20
  L 506.60 1445.35"
/>
<path stroke="#904eb6" vector-effect="non-scaling-stroke" d="
  M 770.04 1142.42
  L 703.46 1284.78
  Q 703.26 1285.21 703.74 1285.22
  C 704.68 1285.24 705.52 1285.27 706.50 1285.62
  Q 794.18 1317.85 875.48 1347.72
  Q 876.64 1348.15 876.79 1348.63
  Q 877.06 1349.51 877.04 1350.42
  A 0.33 0.33 0.0 0 0 877.53 1350.72
  L 932.54 1319.98
  A 1.48 1.48 0.0 0 1 933.52 1319.82
  L 1141.27 1355.98
  A 0.52 0.52 0.0 0 0 1141.88 1355.41
  L 1119.47 1140.58"
/>
</g>
<path fill="#9b06e8" d="
  M 1271.85 1167.89
  Q 1296.98 1231.00 1322.14 1293.34
  Q 1322.91 1295.24 1323.22 1296.79
  Q 1324.97 1305.52 1334.71 1353.87
  A 1.02 1.02 0.0 0 1 1334.35 1354.86
  L 1289.93 1391.17
  A 0.40 0.39 30.6 0 0 1290.12 1391.86
  L 1292.04 1392.26
  A 0.57 0.57 0.0 0 1 1292.47 1392.98
  L 1231.26 1592.00
  L 555.09 1592.00
  L 546.35 1456.12
  Q 546.30 1455.38 545.58 1455.20
  L 506.60 1445.35
  Q 507.93 1438.32 509.12 1430.99
  Q 511.59 1415.83 514.05 1402.76
  Q 516.47 1389.92 520.34 1377.62
  Q 526.36 1358.50 537.39 1341.18
  Q 561.73 1303.01 593.00 1270.75
  Q 607.95 1255.32 622.24 1242.48
  Q 644.45 1222.53 668.92 1203.67
  Q 697.62 1181.55 717.42 1167.67
  Q 725.34 1162.13 736.48 1156.73
  Q 748.87 1150.73 770.04 1142.42
  L 703.46 1284.78
  Q 703.26 1285.21 703.74 1285.22
  C 704.68 1285.24 705.52 1285.27 706.50 1285.62
  Q 794.18 1317.85 875.48 1347.72
  Q 876.64 1348.15 876.79 1348.63
  Q 877.06 1349.51 877.04 1350.42
  A 0.33 0.33 0.0 0 0 877.53 1350.72
  L 932.54 1319.98
  A 1.48 1.48 0.0 0 1 933.52 1319.82
  L 1141.27 1355.98
  A 0.52 0.52 0.0 0 0 1141.88 1355.41
  L 1119.47 1140.58
  Q 1139.69 1124.24 1162.04 1111.04
  Q 1178.36 1101.40 1198.08 1093.56
  Q 1200.88 1092.44 1203.68 1092.47
  Q 1206.65 1092.50 1225.40 1092.50
  A 1.22 1.21 -21.4 0 1 1226.29 1092.89
  Q 1237.37 1104.80 1243.24 1113.55
  C 1246.25 1118.05 1248.43 1123.15 1250.33 1129.49
  Q 1252.59 1137.06 1253.84 1139.62
  Q 1261.42 1155.03 1271.85 1167.89
  Z"
/>
<path fill="#859584" d="
  M 1119.47 1140.58
  L 1141.88 1355.41
  A 0.52 0.52 0.0 0 1 1141.27 1355.98
  L 933.52 1319.82
  A 1.48 1.48 0.0 0 0 932.54 1319.98
  L 877.53 1350.72
  A 0.33 0.33 0.0 0 1 877.04 1350.42
  Q 877.06 1349.51 876.79 1348.63
  Q 876.64 1348.15 875.48 1347.72
  Q 794.18 1317.85 706.50 1285.62
  C 705.52 1285.27 704.68 1285.24 703.74 1285.22
  Q 703.26 1285.21 703.46 1284.78
  L 770.04 1142.42
  Q 776.56 1139.39 783.86 1135.89
  Q 801.66 1127.34 816.01 1113.27
  Q 817.85 1111.47 821.29 1110.23
  Q 825.77 1108.62 829.49 1110.71
  C 834.32 1113.43 836.53 1120.29 836.64 1125.57
  Q 836.85 1135.19 836.14 1146.72
  Q 835.52 1156.83 834.26 1166.61
  Q 830.93 1192.50 820.86 1216.19
  Q 814.43 1231.31 813.66 1233.58
  Q 808.86 1247.83 808.34 1260.25
  Q 807.97 1269.25 808.54 1277.28
  C 809.13 1285.65 810.76 1295.49 816.49 1301.54
  C 821.54 1306.89 830.09 1308.26 836.97 1307.65
  Q 844.98 1306.95 849.96 1305.87
  Q 887.23 1297.78 923.72 1280.46
  C 955.33 1265.46 985.97 1246.36 1014.63 1226.37
  Q 1038.27 1209.88 1062.74 1188.48
  Q 1063.08 1188.18 1097.66 1158.42
  Q 1107.80 1149.69 1119.47 1140.58
  Z"
/>
<path fill="#859584" d="
  M 1478.14 1592.00
  L 1231.26 1592.00
  L 1292.47 1392.98
  A 0.57 0.57 0.0 0 0 1292.04 1392.26
  L 1290.12 1391.86
  A 0.40 0.39 30.6 0 1 1289.93 1391.17
  L 1334.35 1354.86
  A 1.02 1.02 0.0 0 0 1334.71 1353.87
  Q 1324.97 1305.52 1323.22 1296.79
  Q 1322.91 1295.24 1322.14 1293.34
  Q 1296.98 1231.00 1271.85 1167.89
  Q 1274.76 1170.82 1277.19 1173.60
  Q 1281.53 1178.56 1281.60 1178.63
  Q 1347.98 1251.93 1412.03 1326.75
  Q 1420.44 1336.57 1424.75 1342.24
  Q 1469.73 1401.43 1478.33 1476.96
  Q 1478.66 1479.90 1478.46 1498.26
  Q 1478.28 1515.04 1478.26 1518.25
  Q 1478.14 1536.14 1478.37 1560.11
  Q 1478.45 1568.38 1478.91 1584.00
  Q 1479.03 1588.07 1478.14 1592.00
  Z"
/>
<path fill="#859584" d="
  M 555.09 1592.00
  L 456.49 1592.00
  Q 474.75 1550.40 488.53 1510.54
  Q 499.23 1479.58 506.60 1445.35
  L 545.58 1455.20
  Q 546.30 1455.38 546.35 1456.12
  L 555.09 1592.00
  Z"
/>
</svg>
