
      <svg xmlns="http://www.w3.org/2000/svg" viewBox="0 0 382 382">
        <defs>
          <clipPath id="clip-path-4">
            <path d="M288.24,262.21h5.96c2.29,2.62,4.81,5.14,5.75,8.59,1.45,5.34,4.94,9.16,8.54,13.14,10.53,11.63,20.89,23.43,31.09,35.36,8.73,10.19,13.72,22.12,15.23,35.48,0,8.28-.19,16.56.09,24.83.11,3.31-.51,4.14-4.01,4.13-45.79-.16-91.59-.1-137.38-.1-33.39,0-66.79.02-100.18-.06-1.29,0-3.07,1.12-3.97-.93,5.77-13.39,11.08-26.9,13.27-41.47.93-6.2,2.24-12.39,5.56-17.9,10.83-18,26.86-30.67,43.55-42.68,7.38-5.31,17.01-6.37,23.77-13.05,2.6-2.57,5.29-.89,5.27,3.17-.04,7.64-.98,15.2-4.28,22.23-1.65,3.51-2.6,7.08-2.58,11,.06,9.18,2.54,11.27,11.43,9.19,14.11-3.3,26.3-10.6,38.05-18.68,15.16-10.43,26.94-25.58,44.83-32.22Z" />
          </clipPath>
        </defs>
        <g clip-path="url(#clip-path-4)">
          <svg xmlns="http://www.w3.org/2000/svg" width="382" height="382" style="shape-rendering: geometricPrecision;"><path d="M138.69873592720222,120.93056215427296L129.94872961111062,117.99484809750243L104.01862084233468,62.048407230435416L203.6642280343841,20.61912211398981L214.63505520609763,55.977435749537335L138.69873592720222,120.93056215427296Z" fill="#226ec1" stroke="#226ec1" stroke-width="1" /><path d="M170.84181542613342,175.1022321896613L171.20336181623549,190.89399123671146L75.88581944183505,163.08043412471585L77.12906591793508,146.03702067036076L129.94872961111062,117.99484809750243L138.69873592720222,120.93056215427296L170.84181542613342,175.1022321896613Z" fill="#fe9fb2" stroke="#fe9fb2" stroke-width="1" /><path d="M261.1602298183588,182.48257025975715L246.44593098219218,89.67330696915296L296.8036464818085,96.98543845282009L313.43307573282493,126.97401233386739L262.56432215221,182.22340999818476L261.1602298183588,182.48257025975715Z" fill="#fe9fb2" stroke="#fe9fb2" stroke-width="1" /><path d="M313.43307573282493,126.97401233386739L296.8036464818085,96.98543845282009L328.28557862091714,62.6112080988144L382,107.45031420349667L382,150.08863887701793L338.60005516575217,150.371646024178L313.43307573282493,126.97401233386739Z" fill="#226ec1" stroke="#226ec1" stroke-width="1" /><path d="M231.44131467138803,185.75263735306817L171.93979912290757,193.15432887785488L171.20336181623549,190.89399123671146L170.84181542613342,175.1022321896613L235.71821059255294,94.38571546571603L231.44131467138803,185.75263735306817Z" fill="#fe9fb2" stroke="#fe9fb2" stroke-width="1" /><path d="M0,382L0,297.52703062534124L76.3976762500553,267.6801712405113L84.92934244406509,282.00815627909674L32.93266607591421,382L0,382Z" fill="#226ec1" stroke="#226ec1" stroke-width="1" /><path d="M121.52151472461811,295.1745394692404L140.09500524967444,370.85058602151776L135.83482119582996,378.06631936332315L133.262618488192,382L106.47620136354483,382L87.8916504990409,285.54987568321854L121.52151472461811,295.1745394692404Z" fill="#226ec1" stroke="#226ec1" stroke-width="1" /><path d="M171.93979912290757,193.15432887785488L165.83943339609655,220.54716368864052L83.65471474232778,243.8675381846376L62.62080124561118,209.285467212277L63.05458591558259,186.88047087018865L75.88581944183505,163.08043412471585L171.20336181623549,190.89399123671146L171.93979912290757,193.15432887785488Z" fill="#fe9fb2" stroke="#fe9fb2" stroke-width="1" /><path d="M0,98.54360981225962L4.9498334871713325,99.79377311070081L23.20496926026819,169.27386335358386L0,178.26231615874354L0,98.54360981225962Z" fill="#226ec1" stroke="#226ec1" stroke-width="1" /><path d="M327.52305181355786,267.53417775121756L360.8670663912726,290.36528700677735L274.82726399413303,382L257.69003461673424,382L241.81171159325882,355.62476350770777L214.49521322132279,303.3222901588289L296.185271394482,265.953326270059L327.52305181355786,267.53417775121756Z" fill="#fe9fb2" stroke="#fe9fb2" stroke-width="1" /><path d="M205.69784729232373,0L203.6642280343841,20.61912211398981L104.01862084233468,62.048407230435416L82.9830448989486,55.008468659641245L65.42245910920576,0L205.69784729232373,0Z" fill="#226ec1" stroke="#226ec1" stroke-width="1" /><path d="M32.93266607591421,382L84.92934244406509,282.00815627909674L87.8916504990409,285.54987568321854L106.47620136354483,382L32.93266607591421,382Z" fill="#fe9fb2" stroke="#fe9fb2" stroke-width="1" /><path d="M355.066117932356,0L322.5486575026829,31.523923195192324L304.51361315356144,0L355.066117932356,0Z" fill="#fe9fb2" stroke="#fe9fb2" stroke-width="1" /><path d="M75.88581944183505,163.08043412471585L63.05458591558259,186.88047087018865L23.20496926026819,169.27386335358386L4.9498334871713325,99.79377311070081L39.97579232990489,99.36872086477311L77.12906591793508,146.03702067036076L75.88581944183505,163.08043412471585Z" fill="#fe9fb2" stroke="#fe9fb2" stroke-width="1" /><path d="M261.1602298183588,182.48257025975715L262.56432215221,182.22340999818476L319.0261685600502,202.73219257123228L327.52305181355786,267.53417775121756L296.185271394482,265.953326270059L256.8012115641585,224.50935714550837L249.95549029374334,190.05869742400532L261.1602298183588,182.48257025975715Z" fill="#fe9fb2" stroke="#fe9fb2" stroke-width="1" /><path d="M382,0L382,41.77366611570906L332.27103275073125,55.402673401435734L322.5486575026829,31.523923195192324L355.066117932356,0L382,0Z" fill="#226ec1" stroke="#226ec1" stroke-width="1" /><path d="M256.8012115641585,224.50935714550837L296.185271394482,265.953326270059L214.49521322132279,303.3222901588289L196.37000089801904,296.4835426376631L195.36534851527324,294.9278056508058L183.32294011600192,250.241094523191L256.8012115641585,224.50935714550837Z" fill="#226ec1" stroke="#226ec1" stroke-width="1" /><path d="M62.62080124561118,209.285467212277L0,219.39025047211848L0,178.26231615874354L23.20496926026819,169.27386335358386L63.05458591558259,186.88047087018865L62.62080124561118,209.285467212277Z" fill="#fe9fb2" stroke="#fe9fb2" stroke-width="1" /><path d="M262.56432215221,182.22340999818476L313.43307573282493,126.97401233386739L338.60005516575217,150.371646024178L319.0261685600502,202.73219257123228L262.56432215221,182.22340999818476Z" fill="#fe9fb2" stroke="#fe9fb2" stroke-width="1" /><path d="M214.49521322132279,303.3222901588289L241.81171159325882,355.62476350770777L135.83482119582996,378.06631936332315L140.09500524967444,370.85058602151776L196.37000089801904,296.4835426376631L214.49521322132279,303.3222901588289Z" fill="#fe9fb2" stroke="#fe9fb2" stroke-width="1" /><path d="M133.262618488192,382L135.83482119582996,378.06631936332315L241.81171159325882,355.62476350770777L257.69003461673424,382L133.262618488192,382Z" fill="#226ec1" stroke="#226ec1" stroke-width="1" /><path d="M231.44131467138803,185.75263735306817L235.71821059255294,94.38571546571603L239.56420448424498,87.26030873467296L246.44593098219218,89.67330696915296L261.1602298183588,182.48257025975715L249.95549029374334,190.05869742400532L231.44131467138803,185.75263735306817Z" fill="#226ec1" stroke="#226ec1" stroke-width="1" /><path d="M121.52151472461811,295.1745394692404L195.36534851527324,294.9278056508058L196.37000089801904,296.4835426376631L140.09500524967444,370.85058602151776L121.52151472461811,295.1745394692404Z" fill="#fe9fb2" stroke="#fe9fb2" stroke-width="1" /><path d="M129.94872961111062,117.99484809750243L77.12906591793508,146.03702067036076L39.97579232990489,99.36872086477311L82.9830448989486,55.008468659641245L104.01862084233468,62.048407230435416L129.94872961111062,117.99484809750243Z" fill="#fe9fb2" stroke="#fe9fb2" stroke-width="1" /><path d="M0,219.39025047211848L62.62080124561118,209.285467212277L83.65471474232778,243.8675381846376L76.3976762500553,267.6801712405113L0,297.52703062534124L0,219.39025047211848Z" fill="#fe9fb2" stroke="#fe9fb2" stroke-width="1" /><path d="M382,382L274.82726399413303,382L360.8670663912726,290.36528700677735L382,293.10172599766844L382,382Z" fill="#fe9fb2" stroke="#fe9fb2" stroke-width="1" /><path d="M231.44131467138803,185.75263735306817L249.95549029374334,190.05869742400532L256.8012115641585,224.50935714550837L183.32294011600192,250.241094523191L165.83943339609655,220.54716368864052L171.93979912290757,193.15432887785488L231.44131467138803,185.75263735306817Z" fill="#226ec1" stroke="#226ec1" stroke-width="1" /><path d="M183.32294011600192,250.241094523191L195.36534851527324,294.9278056508058L121.52151472461811,295.1745394692404L87.8916504990409,285.54987568321854L84.92934244406509,282.00815627909674L76.3976762500553,267.6801712405113L83.65471474232778,243.8675381846376L165.83943339609655,220.54716368864052L183.32294011600192,250.241094523191Z" fill="#fe9fb2" stroke="#fe9fb2" stroke-width="1" /><path d="M239.56420448424498,87.26030873467296L214.63505520609763,55.977435749537335L203.6642280343841,20.61912211398981L205.69784729232373,0L304.51361315356144,0L322.5486575026829,31.523923195192324L332.27103275073125,55.402673401435734L328.28557862091714,62.6112080988144L296.8036464818085,96.98543845282009L246.44593098219218,89.67330696915296L239.56420448424498,87.26030873467296Z" fill="#226ec1" stroke="#226ec1" stroke-width="1" /><path d="M0,0L65.42245910920576,0L82.9830448989486,55.008468659641245L39.97579232990489,99.36872086477311L4.9498334871713325,99.79377311070081L0,98.54360981225962L0,0Z" fill="#fe9fb2" stroke="#fe9fb2" stroke-width="1" /><path d="M382,107.45031420349667L328.28557862091714,62.6112080988144L332.27103275073125,55.402673401435734L382,41.77366611570906L382,107.45031420349667Z" fill="#fe9fb2" stroke="#fe9fb2" stroke-width="1" /><path d="M235.71821059255294,94.38571546571603L170.84181542613342,175.1022321896613L138.69873592720222,120.93056215427296L214.63505520609763,55.977435749537335L239.56420448424498,87.26030873467296L235.71821059255294,94.38571546571603Z" fill="#fe9fb2" stroke="#fe9fb2" stroke-width="1" /><path d="M382,293.10172599766844L360.8670663912726,290.36528700677735L327.52305181355786,267.53417775121756L319.0261685600502,202.73219257123228L338.60005516575217,150.371646024178L382,150.08863887701793L382,293.10172599766844Z" fill="#fe9fb2" stroke="#fe9fb2" stroke-width="1" /></svg>
        </g>
      </svg>
    