<svg xmlns="http://www.w3.org/2000/svg" viewBox="0 0 382 382"><g fill="none" stroke-width="2"><path stroke="#8ff78d" d="m323.53 300.8-22.86-.02q-.5 0-.28.45l21.62 43.25a.35.35 0 0 0 .63 0l12.45-24.93a.31.31 0 0 1 .55.01l14.7 29.5a.31.31 0 0 0 .55.01l2.12-3.86M245.11 382l-.19-7.95q-.02-.59-.61-.59h-44.88q-.6 0-.61.6l-.13 7.94M183.99 327.99a11.4 11.4 0 0 0-11.4-11.4 11.4 11.4 0 0 0-11.4 11.4 11.4 11.4 0 0 0 11.4 11.4 11.4 11.4 0 0 0 11.4-11.4" vector-effect="non-scaling-stroke"/><path stroke="#a0bdf4" d="m325.45 302.87-21.45.02q-.54 0-.3.48l18.38 36.76a.28.27 44.7 0 0 .49 0l12.51-25.04q.24-.48-.09-.89l-4.25-5.19M336.33 315.69l13.89 28.65q.54 1.1.74-.11.25-1.48 1.71-.97" vector-effect="non-scaling-stroke"/><path stroke="#e3ccdb" d="M181.99 328a9.4 9.4 0 0 0-9.4-9.4 9.4 9.4 0 0 0-9.4 9.4 9.4 9.4 0 0 0 9.4 9.4 9.4 9.4 0 0 0 9.4-9.4" vector-effect="non-scaling-stroke"/><path stroke="#86da87" d="m242.87 382-.03-5.99q0-.55-.54-.55h-40.89q-.62 0-.61.62l.04 5.92" vector-effect="non-scaling-stroke"/></g><path fill="#20ef1c" d="m323.53 300.8-22.86-.02q-.5 0-.28.45l21.62 43.25a.35.35 0 0 0 .63 0l12.45-24.93a.31.31 0 0 1 .55.01l14.7 29.5a.31.31 0 0 0 .55.01l2.12-3.86q1.7 6.57 1.71 9.04.1 13.88.13 27.75H245.11l-.19-7.95q-.02-.59-.61-.59h-44.88q-.6 0-.61.6l-.13 7.94H109.7q2.73-6.72 5.34-13.44 5.78-14.81 8.3-31.31 1.57-10.29 8.66-19.81c10.88-14.62 23.98-25.78 39.81-36.86 7.63-5.34 16.84-6.69 24.07-13.32 2.59-2.37 4.85.26 4.86 2.88q.05 13.56-4.16 22.61c-2.41 5.18-3.48 11.37-2.01 16.89q1.32 4.91 6.7 4.15 9.43-1.34 18.96-5.81 18.09-8.5 32.74-21.01 8.77-7.49 17.03-14.16 8.8-7.1 17.67-10.21 2.29-.81 6-.33.59.07 1.01.5 3.84 3.95 4.95 7.35 1.96 5.99 5.85 10.39 8.92 10.09 18.05 20.29m-139.54 27.19a11.4 11.4 0 0 0-11.4-11.4 11.4 11.4 0 0 0-11.4 11.4 11.4 11.4 0 0 0 11.4 11.4 11.4 11.4 0 0 0 11.4-11.4"/><path fill="#fefefe" d="M323.53 300.8q1.1.74 1.92 2.07l-21.45.02q-.54 0-.3.48l18.38 36.76a.28.27 44.7 0 0 .49 0l12.51-25.04q.24-.48-.09-.89l-4.25-5.19 5.59 6.68 13.89 28.65q.54 1.1.74-.11.25-1.48 1.71-.97.37.9.34 1.95l-2.12 3.86a.31.31 0 0 1-.55-.01l-14.7-29.5a.31.31 0 0 0-.55-.01l-12.45 24.93a.35.35 0 0 1-.63 0l-21.62-43.25q-.22-.45.28-.45z"/><path fill="#417be9" d="m325.45 302.87 5.29 6.14 4.25 5.19q.33.41.09.89l-12.51 25.04a.28.27 44.7 0 1-.49 0l-18.38-36.76q-.24-.48.3-.48zM352.67 343.26q-1.46-.51-1.71.97-.2 1.21-.74.11l-13.89-28.65q11.85 11.85 16.34 27.57"/><path fill="#fefefe" d="M183.99 327.99a11.4 11.4 0 0 1-11.4 11.4 11.4 11.4 0 0 1-11.4-11.4 11.4 11.4 0 0 1 11.4-11.4 11.4 11.4 0 0 1 11.4 11.4m-2 .01a9.4 9.4 0 0 0-9.4-9.4 9.4 9.4 0 0 0-9.4 9.4 9.4 9.4 0 0 0 9.4 9.4 9.4 9.4 0 0 0 9.4-9.4"/><circle cx="172.59" cy="328" r="9.4" fill="#c79ab7"/><path fill="#fefefe" d="M245.11 382h-2.24l-.03-5.99q0-.55-.54-.55h-40.89q-.62 0-.61.62l.04 5.92h-2.15l.13-7.94q.01-.6.61-.6h44.88q.59 0 .61.59z"/><path fill="#0db60f" d="M242.87 382h-42.03l-.04-5.92q-.01-.62.61-.62h40.89q.54 0 .54.55z"/></svg>