<?xml version="1.0" encoding="UTF-8" standalone="no"?>
<!DOCTYPE svg PUBLIC "-//W3C//DTD SVG 1.1//EN" "http://www.w3.org/Graphics/SVG/1.1/DTD/svg11.dtd">
<svg xmlns="http://www.w3.org/2000/svg" version="1.1" viewBox="0.00 0.00 1592.00 1592.00" width="1592.00" height="1592.00">
<g stroke-width="2.00" fill="none" stroke-linecap="butt">
<path stroke="#606c92" vector-effect="non-scaling-stroke" d="
  M 507.75 1440.18
  L 573.43 1380.79
  Q 573.77 1380.47 574.24 1380.50
  Q 785.02 1390.87 790.80 1391.00
  Q 792.36 1391.04 793.49 1391.84
  A 0.27 0.27 0.0 0 0 793.91 1391.61
  L 786.73 1294.05
  A 0.49 0.48 -5.0 0 1 787.16 1293.53
  L 810.79 1291.17"
/>
<path stroke="#606c92" vector-effect="non-scaling-stroke" d="
  M 925.08 1279.93
  L 991.63 1273.58
  Q 992.48 1273.50 991.87 1272.90
  L 972.53 1253.92"
/>
<path stroke="#606c92" vector-effect="non-scaling-stroke" d="
  M 1056.50 1193.94
  L 1114.70 1246.58
  A 0.23 0.23 0.0 0 0 1115.04 1246.53
  L 1203.11 1116.92
  A 2.01 2.01 0.0 0 0 1203.40 1115.32
  L 1198.16 1093.28"
/>
<path stroke="#606c92" vector-effect="non-scaling-stroke" d="
  M 1162.62 1514.23
  Q 1162.62 1514.50 1162.62 1514.62
  Q 1162.62 1514.63 1162.63 1514.63
  Q 1163.03 1513.57 1163.26 1512.52
  Q 1183.37 1420.51 1186.74 1405.12
  A 0.43 0.43 0.0 0 0 1186.31 1404.59
  C 1184.70 1404.61 1183.89 1404.22 1182.86 1402.72
  Q 1128.09 1323.15 1097.41 1278.61
  Q 1097.17 1278.26 1097.15 1277.89
  Q 1097.11 1277.27 1097.30 1277.04
  Q 1098.17 1275.94 1096.86 1276.32
  L 1028.19 1296.16
  A 1.74 1.74 0.0 0 0 1027.27 1296.80
  L 890.82 1484.28
  A 1.01 1.01 0.0 0 0 891.05 1485.70
  C 892.27 1486.57 892.87 1487.30 892.76 1489.01
  Q 892.37 1495.05 892.09 1502.17
  Q 892.08 1502.38 892.29 1502.39
  L 1161.64 1513.21
  A 1.02 1.02 0.0 0 1 1162.62 1514.23"
/>
<path stroke="#606c92" vector-effect="non-scaling-stroke" d="
  M 759.25 1146.83
  L 766.69 1152.96
  A 0.90 0.89 56.0 0 0 767.52 1153.12
  L 807.56 1140.50
  Q 807.82 1140.42 807.63 1140.22
  Q 807.16 1139.70 806.57 1139.39
  A 1.07 1.07 0.0 0 1 806.09 1138.00
  L 817.77 1112.15"
/>
</g>
<path fill="#8d562f" d="
  M 1478.13 1592.00
  L 456.64 1592.00
  Q 466.73 1568.37 478.45 1538.23
  Q 497.47 1489.29 507.75 1440.18
  L 573.43 1380.79
  Q 573.77 1380.47 574.24 1380.50
  Q 785.02 1390.87 790.80 1391.00
  Q 792.36 1391.04 793.49 1391.84
  A 0.27 0.27 0.0 0 0 793.91 1391.61
  L 786.73 1294.05
  A 0.49 0.48 -5.0 0 1 787.16 1293.53
  L 810.79 1291.17
  Q 813.90 1302.37 823.26 1306.01
  C 828.57 1308.08 835.22 1308.00 842.03 1307.13
  Q 846.70 1306.54 850.92 1305.63
  Q 874.99 1300.43 898.17 1291.38
  Q 912.06 1285.96 925.08 1279.93
  L 991.63 1273.58
  Q 992.48 1273.50 991.87 1272.90
  L 972.53 1253.92
  Q 987.63 1244.62 1002.18 1234.95
  Q 1021.66 1222.01 1039.90 1207.39
  Q 1048.20 1200.73 1056.50 1193.94
  L 1114.70 1246.58
  A 0.23 0.23 0.0 0 0 1115.04 1246.53
  L 1203.11 1116.92
  A 2.01 2.01 0.0 0 0 1203.40 1115.32
  L 1198.16 1093.28
  Q 1211.68 1091.91 1225.48 1092.52
  Q 1225.97 1092.55 1226.31 1092.91
  Q 1234.12 1101.28 1240.33 1109.41
  Q 1246.66 1117.70 1249.58 1127.09
  Q 1252.02 1134.94 1252.75 1136.78
  C 1258.47 1151.15 1268.33 1163.97 1278.79 1175.51
  Q 1346.25 1249.95 1411.89 1326.59
  Q 1420.72 1336.90 1424.59 1341.99
  Q 1466.78 1397.48 1477.09 1467.29
  Q 1478.66 1477.93 1478.59 1487.21
  Q 1478.51 1497.49 1478.37 1508.03
  Q 1477.86 1547.27 1478.97 1586.00
  Q 1479.03 1588.05 1478.13 1592.00
  Z
  M 1162.62 1514.23
  Q 1162.62 1514.50 1162.62 1514.62
  Q 1162.62 1514.63 1162.63 1514.63
  Q 1163.03 1513.57 1163.26 1512.52
  Q 1183.37 1420.51 1186.74 1405.12
  A 0.43 0.43 0.0 0 0 1186.31 1404.59
  C 1184.70 1404.61 1183.89 1404.22 1182.86 1402.72
  Q 1128.09 1323.15 1097.41 1278.61
  Q 1097.17 1278.26 1097.15 1277.89
  Q 1097.11 1277.27 1097.30 1277.04
  Q 1098.17 1275.94 1096.86 1276.32
  L 1028.19 1296.16
  A 1.74 1.74 0.0 0 0 1027.27 1296.80
  L 890.82 1484.28
  A 1.01 1.01 0.0 0 0 891.05 1485.70
  C 892.27 1486.57 892.87 1487.30 892.76 1489.01
  Q 892.37 1495.05 892.09 1502.17
  Q 892.08 1502.38 892.29 1502.39
  L 1161.64 1513.21
  A 1.02 1.02 0.0 0 1 1162.62 1514.23
  Z"
/>
<path fill="#3281f4" d="
  M 1198.16 1093.28
  L 1203.40 1115.32
  A 2.01 2.01 0.0 0 1 1203.11 1116.92
  L 1115.04 1246.53
  A 0.23 0.23 0.0 0 1 1114.70 1246.58
  L 1056.50 1193.94
  Q 1081.08 1172.45 1106.06 1151.30
  Q 1132.87 1128.60 1159.51 1112.50
  Q 1176.11 1102.46 1198.16 1093.28
  Z"
/>
<path fill="#3281f4" d="
  M 810.79 1291.17
  L 787.16 1293.53
  A 0.49 0.48 -5.0 0 0 786.73 1294.05
  L 793.91 1391.61
  A 0.27 0.27 0.0 0 1 793.49 1391.84
  Q 792.36 1391.04 790.80 1391.00
  Q 785.02 1390.87 574.24 1380.50
  Q 573.77 1380.47 573.43 1380.79
  L 507.75 1440.18
  Q 510.47 1423.72 513.05 1408.26
  C 516.00 1390.63 520.74 1372.96 528.58 1356.86
  Q 532.22 1349.38 538.51 1339.52
  Q 558.32 1308.51 583.10 1281.34
  C 609.83 1252.02 639.78 1225.97 671.16 1201.91
  Q 698.38 1181.05 717.44 1167.69
  Q 726.06 1161.65 737.51 1156.28
  Q 748.49 1151.13 759.25 1146.83
  L 766.69 1152.96
  A 0.90 0.89 56.0 0 0 767.52 1153.12
  L 807.56 1140.50
  Q 807.82 1140.42 807.63 1140.22
  Q 807.16 1139.70 806.57 1139.39
  A 1.07 1.07 0.0 0 1 806.09 1138.00
  L 817.77 1112.15
  Q 824.79 1107.23 830.38 1111.36
  Q 834.26 1114.23 835.70 1119.76
  Q 836.84 1124.15 836.76 1129.86
  Q 836.43 1151.80 833.74 1170.25
  Q 830.23 1194.24 820.99 1215.85
  Q 814.55 1230.92 813.77 1233.20
  Q 804.16 1261.32 810.79 1291.17
  Z"
/>
<path fill="#8d562f" d="
  M 817.77 1112.15
  L 806.09 1138.00
  A 1.07 1.07 0.0 0 0 806.57 1139.39
  Q 807.16 1139.70 807.63 1140.22
  Q 807.82 1140.42 807.56 1140.50
  L 767.52 1153.12
  A 0.90 0.89 56.0 0 1 766.69 1152.96
  L 759.25 1146.83
  Q 769.28 1142.67 778.63 1138.35
  C 792.64 1131.87 805.32 1124.01 816.24 1112.99
  Q 816.50 1112.73 817.77 1112.15
  Z"
/>
<path fill="#3281f4" d="
  M 972.53 1253.92
  L 991.87 1272.90
  Q 992.48 1273.50 991.63 1273.58
  L 925.08 1279.93
  Q 938.79 1273.19 951.60 1266.07
  Q 962.30 1260.12 972.53 1253.92
  Z"
/>
<path fill="#3281f4" d="
  M 1162.62 1514.23
  A 1.02 1.02 0.0 0 0 1161.64 1513.21
  L 892.29 1502.39
  Q 892.08 1502.38 892.09 1502.17
  Q 892.37 1495.05 892.76 1489.01
  C 892.87 1487.30 892.27 1486.57 891.05 1485.70
  A 1.01 1.01 0.0 0 1 890.82 1484.28
  L 1027.27 1296.80
  A 1.74 1.74 0.0 0 1 1028.19 1296.16
  L 1096.86 1276.32
  Q 1098.17 1275.94 1097.30 1277.04
  Q 1097.11 1277.27 1097.15 1277.89
  Q 1097.17 1278.26 1097.41 1278.61
  Q 1128.09 1323.15 1182.86 1402.72
  C 1183.89 1404.22 1184.70 1404.61 1186.31 1404.59
  A 0.43 0.43 0.0 0 1 1186.74 1405.12
  Q 1183.37 1420.51 1163.26 1512.52
  Q 1163.03 1513.57 1162.63 1514.63
  Q 1162.62 1514.63 1162.62 1514.62
  Q 1162.62 1514.50 1162.62 1514.23
  Z"
/>
</svg>
