<?xml version="1.0" encoding="UTF-8" standalone="no"?>
<!DOCTYPE svg PUBLIC "-//W3C//DTD SVG 1.1//EN" "http://www.w3.org/Graphics/SVG/1.1/DTD/svg11.dtd">
<svg xmlns="http://www.w3.org/2000/svg" version="1.1" viewBox="0.00 0.00 1592.00 1592.00" width="1592.00" height="1592.00">
<g stroke-width="2.00" fill="none" stroke-linecap="butt">
<path stroke="#b8bf35" vector-effect="non-scaling-stroke" d="
  M 1235.79 1103.89
  L 1221.92 1096.54
  A 0.70 0.70 0.0 0 0 1220.94 1096.91
  Q 1212.72 1118.76 1205.00 1139.23
  Q 1203.36 1143.58 1200.28 1148.46
  Q 1172.00 1193.33 1044.24 1396.31
  Q 1043.96 1396.75 1044.48 1396.67
  Q 1200.75 1371.11 1312.47 1352.84
  C 1314.29 1352.55 1316.61 1352.50 1318.10 1353.16
  Q 1354.33 1369.22 1410.33 1394.00
  A 3.03 3.03 0.0 0 1 1412.12 1396.43
  Q 1421.50 1480.66 1433.01 1583.70
  C 1433.32 1586.45 1433.31 1589.23 1433.38 1592.00"
/>
<path stroke="#b8bf35" vector-effect="non-scaling-stroke" d="
  M 925.88 1592.00
  Q 926.16 1585.07 928.57 1581.07
  Q 976.46 1501.70 1038.18 1399.41
  C 1039.47 1397.28 1040.27 1397.21 1042.34 1397.02
  Q 1043.43 1396.91 1043.09 1395.87
  L 992.96 1240.91"
/>
<path stroke="#b8bf35" vector-effect="non-scaling-stroke" d="
  M 897.62 1592.00
  L 567.12 1299.96"
/>
<path stroke="#b8bf35" vector-effect="non-scaling-stroke" d="
  M 470.02 1592.00
  L 471.60 1556.18"
/>
</g>
<path fill="#accb2e" d="
  M 1235.79 1103.89
  L 1221.92 1096.54
  A 0.70 0.70 0.0 0 0 1220.94 1096.91
  Q 1212.72 1118.76 1205.00 1139.23
  Q 1203.36 1143.58 1200.28 1148.46
  Q 1172.00 1193.33 1044.24 1396.31
  Q 1043.96 1396.75 1044.48 1396.67
  Q 1200.75 1371.11 1312.47 1352.84
  C 1314.29 1352.55 1316.61 1352.50 1318.10 1353.16
  Q 1354.33 1369.22 1410.33 1394.00
  A 3.03 3.03 0.0 0 1 1412.12 1396.43
  Q 1421.50 1480.66 1433.01 1583.70
  C 1433.32 1586.45 1433.31 1589.23 1433.38 1592.00
  L 925.88 1592.00
  Q 926.16 1585.07 928.57 1581.07
  Q 976.46 1501.70 1038.18 1399.41
  C 1039.47 1397.28 1040.27 1397.21 1042.34 1397.02
  Q 1043.43 1396.91 1043.09 1395.87
  L 992.96 1240.91
  Q 1026.13 1219.77 1055.99 1194.24
  Q 1075.41 1177.63 1091.98 1163.23
  Q 1112.24 1145.62 1132.84 1130.35
  C 1152.82 1115.53 1174.67 1102.79 1198.08 1093.54
  Q 1200.87 1092.44 1203.67 1092.46
  Q 1216.04 1092.53 1225.49 1092.49
  A 1.10 1.10 0.0 0 1 1226.33 1092.87
  L 1235.79 1103.89
  Z"
/>
<path fill="#c4b23b" d="
  M 1235.79 1103.89
  Q 1245.26 1114.00 1249.64 1127.15
  Q 1253.17 1137.76 1253.18 1137.79
  C 1259.03 1151.91 1268.58 1164.25 1278.79 1175.52
  Q 1346.45 1250.17 1411.92 1326.64
  Q 1420.82 1337.04 1424.62 1342.03
  Q 1467.34 1398.27 1477.32 1468.96
  Q 1478.69 1478.66 1478.59 1488.70
  Q 1478.51 1497.68 1478.37 1508.50
  Q 1477.87 1547.22 1478.92 1584.25
  Q 1479.04 1588.18 1478.14 1592.00
  L 1433.38 1592.00
  C 1433.31 1589.23 1433.32 1586.45 1433.01 1583.70
  Q 1421.50 1480.66 1412.12 1396.43
  A 3.03 3.03 0.0 0 0 1410.33 1394.00
  Q 1354.33 1369.22 1318.10 1353.16
  C 1316.61 1352.50 1314.29 1352.55 1312.47 1352.84
  Q 1200.75 1371.11 1044.48 1396.67
  Q 1043.96 1396.75 1044.24 1396.31
  Q 1172.00 1193.33 1200.28 1148.46
  Q 1203.36 1143.58 1205.00 1139.23
  Q 1212.72 1118.76 1220.94 1096.91
  A 0.70 0.70 0.0 0 1 1221.92 1096.54
  L 1235.79 1103.89
  Z"
/>
<path fill="#c4b23b" d="
  M 992.96 1240.91
  L 1043.09 1395.87
  Q 1043.43 1396.91 1042.34 1397.02
  C 1040.27 1397.21 1039.47 1397.28 1038.18 1399.41
  Q 976.46 1501.70 928.57 1581.07
  Q 926.16 1585.07 925.88 1592.00
  L 897.62 1592.00
  L 567.12 1299.96
  Q 573.79 1291.70 580.85 1283.85
  Q 600.79 1261.68 623.17 1241.66
  Q 646.14 1221.12 668.91 1203.66
  Q 703.46 1177.17 717.76 1167.49
  Q 731.09 1158.47 748.23 1151.44
  Q 760.23 1146.51 777.61 1138.87
  Q 799.90 1129.06 816.29 1113.08
  Q 818.22 1111.20 821.81 1110.04
  C 826.93 1108.39 831.83 1111.03 834.11 1115.66
  C 836.92 1121.40 836.78 1126.06 836.67 1133.54
  Q 836.37 1153.39 833.28 1173.02
  Q 829.78 1195.26 821.04 1215.92
  Q 813.96 1232.65 813.79 1233.15
  Q 804.31 1260.61 810.58 1290.37
  Q 811.31 1293.82 814.12 1298.43
  C 818.92 1306.30 828.14 1308.28 836.74 1307.66
  Q 846.22 1306.97 858.04 1304.04
  C 893.59 1295.22 927.02 1280.49 958.50 1262.27
  Q 976.07 1252.11 992.96 1240.91
  Z"
/>
<path fill="#accb2e" d="
  M 567.12 1299.96
  L 897.62 1592.00
  L 470.02 1592.00
  L 471.60 1556.18
  Q 480.24 1534.30 488.26 1511.27
  Q 505.45 1461.87 512.59 1410.34
  Q 514.03 1399.93 518.72 1383.00
  Q 523.70 1365.02 532.74 1349.00
  Q 545.60 1326.19 567.12 1299.96
  Z"
/>
<path fill="#c4b23b" d="
  M 471.60 1556.18
  L 470.02 1592.00
  L 456.64 1592.00
  L 471.60 1556.18
  Z"
/>
</svg>
