<svg xmlns="http://www.w3.org/2000/svg" viewBox="0 0 382 382"><g fill="none" stroke-width="2"><path stroke="#90e3ea" d="m310.07 382-.09-.52q-.09-.53.15-1.01l26.83-53.71a.25.24 13 0 0-.23-.35l-54.99.02a.27.26-13.1 0 0-.24.38L309.04 382M284.6 346.98a13.32 13.32 0 0 0-13.32-13.32 13.32 13.32 0 0 0-13.32 13.32 13.32 13.32 0 0 0 13.32 13.32 13.32 13.32 0 0 0 13.32-13.32M351.66 367.57a.34.34 0 0 0-.3-.49H337.7a.34.34 0 0 0-.3.49l6.83 13.67a.34.34 0 0 0 .6 0l6.83-13.67" vector-effect="non-scaling-stroke"/><path stroke="#f88cf8" d="M333.69 328.85a.31.31 0 0 0-.28-.45h-48.38a.31.31 0 0 0-.28.45l24.19 48.38a.31.31 0 0 0 .56 0l24.19-48.38" vector-effect="non-scaling-stroke"/><path stroke="#f89999" d="M282.6 346.98a11.32 11.32 0 0 0-11.32-11.32 11.32 11.32 0 0 0-11.32 11.32 11.32 11.32 0 0 0 11.32 11.32 11.32 11.32 0 0 0 11.32-11.32" vector-effect="non-scaling-stroke"/><path stroke="#d5e1af" d="M348.46 369.54a.33.33 0 0 0-.3-.48h-7.26a.33.33 0 0 0-.3.48l3.64 7.23a.33.33 0 0 0 .58 0l3.64-7.23" vector-effect="non-scaling-stroke"/></g><path fill="#22c6d5" d="M354.86 382h-44.79l-.09-.52q-.09-.53.15-1.01l26.83-53.71a.25.24 13 0 0-.23-.35l-54.99.02a.27.26-13.1 0 0-.24.38L309.04 382H109.73l4.97-12.53q6.01-15.14 8.62-32.17 1.58-10.31 8.72-19.93c10.81-14.58 24.28-25.77 39.03-36.26 4.77-3.39 10.17-5.38 15.44-7.73q5.13-2.29 9.51-6.21c2.49-2.22 4.67.37 4.7 2.86.1 7.98-.94 15.84-4.2 22.84-2.61 5.61-3.51 12.3-1.53 17.97 1.25 3.61 6.03 3.26 8.99 2.58q9.38-2.15 15.6-5.13 19.54-9.36 31.88-20.05 11.17-9.68 18.26-15.28 9.09-7.18 17.87-10.41 1.91-.7 6.15-.31a1.29 1.28 70.4 0 1 .83.4c2.37 2.54 4.25 4.91 5.43 8.33q2.03 5.85 6.25 10.53 16.73 18.57 32.48 36.77 10.97 12.67 14.68 28.35 1.31 5.54 1.36 15.38.05 10 .09 20m-70.26-35.02a13.32 13.32 0 0 0-13.32-13.32 13.32 13.32 0 0 0-13.32 13.32 13.32 13.32 0 0 0 13.32 13.32 13.32 13.32 0 0 0 13.32-13.32m67.06 20.59a.34.34 0 0 0-.3-.49H337.7a.34.34 0 0 0-.3.49l6.83 13.67a.34.34 0 0 0 .6 0z"/><path fill="#feffff" d="M310.07 382h-1.03l-27.54-55.19a.27.26-13.1 0 1 .24-.38l54.99-.02a.25.24 13 0 1 .23.35l-26.83 53.71q-.24.48-.15 1.01zm23.62-53.15a.31.31 0 0 0-.28-.45h-48.38a.31.31 0 0 0-.28.45l24.19 48.38a.31.31 0 0 0 .56 0z"/><path fill="#f218f1" d="m333.69 328.85-24.19 48.38a.31.31 0 0 1-.56 0l-24.19-48.38a.31.31 0 0 1 .28-.45h48.38a.31.31 0 0 1 .28.45"/><path fill="#feffff" d="M284.6 346.98a13.32 13.32 0 0 1-13.32 13.32 13.32 13.32 0 0 1-13.32-13.32 13.32 13.32 0 0 1 13.32-13.32 13.32 13.32 0 0 1 13.32 13.32m-2 0a11.32 11.32 0 0 0-11.32-11.32 11.32 11.32 0 0 0-11.32 11.32 11.32 11.32 0 0 0 11.32 11.32 11.32 11.32 0 0 0 11.32-11.32"/><circle cx="271.28" cy="346.98" r="11.32" fill="#f13333"/><path fill="#feffff" d="m351.66 367.57-6.83 13.67a.34.34 0 0 1-.6 0l-6.83-13.67a.34.34 0 0 1 .3-.49h13.66a.34.34 0 0 1 .3.49m-3.2 1.97a.33.33 0 0 0-.3-.48h-7.26a.33.33 0 0 0-.3.48l3.64 7.23a.33.33 0 0 0 .58 0z"/><path fill="#acc25f" d="m348.46 369.54-3.64 7.23a.33.33 0 0 1-.58 0l-3.64-7.23a.33.33 0 0 1 .3-.48h7.26a.33.33 0 0 1 .3.48"/></svg>