<?xml version="1.0" encoding="UTF-8" standalone="no"?>
<!DOCTYPE svg PUBLIC "-//W3C//DTD SVG 1.1//EN" "http://www.w3.org/Graphics/SVG/1.1/DTD/svg11.dtd">
<svg xmlns="http://www.w3.org/2000/svg" version="1.1" viewBox="0.00 0.00 1592.00 1592.00" width="1592.00" height="1592.00">
<g stroke-width="2.00" fill="none" stroke-linecap="butt">
<path stroke="#c272a8" vector-effect="non-scaling-stroke" d="
  M 1450.49 1383.00
  L 1416.52 1421.20
  A 12.04 11.88 -85.6 0 1 1414.20 1423.21
  L 1162.47 1590.64
  A 0.77 0.77 0.0 0 1 1161.34 1590.30
  L 1126.40 1509.13
  A 4.27 4.27 0.0 0 1 1126.10 1506.83
  L 1152.10 1329.38
  Q 1152.28 1328.20 1151.52 1329.12
  Q 1151.18 1329.54 1150.92 1330.03
  A 0.64 0.64 0.0 0 1 1149.88 1330.16
  L 1038.33 1208.87"
/>
<path stroke="#c272a8" vector-effect="non-scaling-stroke" d="
  M 818.47 1221.69
  L 777.68 1138.91"
/>
<path stroke="#c272a8" vector-effect="non-scaling-stroke" d="
  M 839.12 1307.52
  L 828.48 1374.17
  Q 828.39 1374.70 827.89 1374.86
  L 787.87 1387.42
  Q 787.38 1387.58 786.88 1387.48
  L 785.51 1387.20
  Q 784.89 1387.08 784.79 1387.70
  L 751.54 1592.00"
/>
</g>
<path fill="#9ad292" d="
  M 1450.49 1383.00
  L 1416.52 1421.20
  A 12.04 11.88 -85.6 0 1 1414.20 1423.21
  L 1162.47 1590.64
  A 0.77 0.77 0.0 0 1 1161.34 1590.30
  L 1126.40 1509.13
  A 4.27 4.27 0.0 0 1 1126.10 1506.83
  L 1152.10 1329.38
  Q 1152.28 1328.20 1151.52 1329.12
  Q 1151.18 1329.54 1150.92 1330.03
  A 0.64 0.64 0.0 0 1 1149.88 1330.16
  L 1038.33 1208.87
  Q 1061.66 1189.79 1084.49 1169.74
  C 1109.81 1147.50 1136.32 1125.75 1165.39 1109.15
  Q 1180.55 1100.49 1198.15 1093.51
  Q 1200.67 1092.51 1203.62 1092.51
  Q 1224.44 1092.50 1225.29 1092.49
  Q 1225.83 1092.49 1226.15 1092.82
  Q 1237.54 1104.66 1244.48 1115.53
  Q 1245.73 1117.49 1247.69 1121.85
  Q 1248.78 1124.28 1249.98 1128.50
  C 1255.22 1146.94 1266.41 1161.77 1279.33 1176.09
  Q 1361.93 1267.61 1418.10 1333.89
  Q 1436.31 1355.38 1450.49 1383.00
  Z"
/>
<path fill="#ea12bd" d="
  M 818.47 1221.69
  L 777.68 1138.91
  C 792.39 1132.00 804.70 1124.46 816.25 1113.01
  Q 817.46 1111.82 820.72 1110.45
  Q 825.08 1108.62 828.91 1110.41
  Q 832.04 1111.87 834.11 1115.77
  Q 836.57 1120.38 836.63 1125.34
  Q 836.93 1148.50 833.78 1170.50
  Q 830.07 1196.47 818.47 1221.69
  Z"
/>
<path fill="#9ad292" d="
  M 777.68 1138.91
  L 818.47 1221.69
  Q 806.28 1246.92 808.48 1275.92
  C 809.39 1287.98 811.46 1303.24 825.55 1306.71
  Q 831.86 1308.27 839.12 1307.52
  L 828.48 1374.17
  Q 828.39 1374.70 827.89 1374.86
  L 787.87 1387.42
  Q 787.38 1387.58 786.88 1387.48
  L 785.51 1387.20
  Q 784.89 1387.08 784.79 1387.70
  L 751.54 1592.00
  L 456.49 1592.00
  Q 476.12 1547.43 490.59 1504.36
  Q 504.25 1463.71 511.16 1419.82
  Q 513.53 1404.76 514.52 1400.13
  Q 517.82 1384.65 521.56 1373.85
  Q 527.45 1356.90 537.41 1341.19
  Q 561.33 1303.49 593.00 1270.75
  Q 608.19 1255.05 622.76 1242.02
  Q 646.16 1221.09 670.61 1202.35
  Q 700.03 1179.78 717.89 1167.38
  Q 727.66 1160.59 741.85 1154.41
  Q 759.86 1146.57 777.68 1138.91
  Z"
/>
<path fill="#ea12bd" d="
  M 1038.33 1208.87
  L 1149.88 1330.16
  A 0.64 0.64 0.0 0 0 1150.92 1330.03
  Q 1151.18 1329.54 1151.52 1329.12
  Q 1152.28 1328.20 1152.10 1329.38
  L 1126.10 1506.83
  A 4.27 4.27 0.0 0 0 1126.40 1509.13
  L 1161.34 1590.30
  A 0.77 0.77 0.0 0 0 1162.47 1590.64
  L 1414.20 1423.21
  A 12.04 11.88 -85.6 0 0 1416.52 1421.20
  L 1450.49 1383.00
  Q 1470.70 1423.26 1477.09 1467.40
  Q 1478.67 1478.28 1478.60 1487.37
  Q 1478.53 1496.74 1478.37 1508.55
  Q 1477.84 1547.32 1478.97 1586.00
  Q 1479.03 1588.04 1478.13 1592.00
  L 751.54 1592.00
  L 784.79 1387.70
  Q 784.89 1387.08 785.51 1387.20
  L 786.88 1387.48
  Q 787.38 1387.58 787.87 1387.42
  L 827.89 1374.86
  Q 828.39 1374.70 828.48 1374.17
  L 839.12 1307.52
  Q 851.80 1305.92 865.58 1302.09
  Q 893.13 1294.45 917.56 1283.30
  Q 943.13 1271.64 967.16 1257.14
  Q 974.51 1252.70 984.18 1246.63
  Q 1012.08 1229.09 1038.33 1208.87
  Z"
/>
</svg>
