<svg xmlns="http://www.w3.org/2000/svg" viewBox="0 0 382 382"><g fill="none" stroke-width="2"><path stroke="#ad9cdf" d="m216.47 382-.04-5.25q0-.48-.48-.48h-48.78q-.6 0-.6.6l-.01 5.13M161.71 339.93l14.75-.01a.37.37 0 0 0 .37-.37l-.01-31.01q0-.54-.54-.54h-30.81q-.59 0-.59.59l.01 18.87a.93.93 0 0 1-.38.75q-.72.53-1.36 1.11c-5.85 5.33-4.78 15.1 2.64 18.2 6.52 2.72 12.74-.15 15.13-7.02q.2-.56.79-.57" vector-effect="non-scaling-stroke"/><path stroke="#f69ac1" d="M174.82 310.4a.41.41 0 0 0-.41-.41h-27.12a.41.41 0 0 0-.41.41v27.12a.41.41 0 0 0 .41.41h27.12a.41.41 0 0 0 .41-.41V310.4" vector-effect="non-scaling-stroke"/><path stroke="#fbedcf" d="m144.89 339.61-.01-8.34a.43.43 0 0 0-.75-.28c-4.09 4.54-3.7 11.09 1.63 14.3 5.02 3.04 11.02.51 13.08-4.83a.38.38 0 0 0-.35-.52l-13.25.01a.35.34 0 0 1-.35-.34" vector-effect="non-scaling-stroke"/><path stroke="#ad9cdf" d="m214.47 382-.03-3.13q-.01-.6-.61-.6h-44.66q-.6 0-.6.6V382" vector-effect="non-scaling-stroke"/></g><path fill="#5b39bf" d="M354.84 382H216.47l-.04-5.25q0-.48-.48-.48h-48.78q-.6 0-.6.6l-.01 5.13h-56.94q5.93-13.46 9.42-24.98 2.58-8.53 4.19-19.36 1.54-10.4 8.72-20.15c10.81-14.68 24.06-25.86 40.01-37.01 7.77-5.44 16.94-6.65 24.15-13.47a2.48 2.47-42.5 0 1 3.55.15c2.6 2.95.1 15.82-.77 19.17-1.1 4.25-3.41 8.09-4.35 12.37q-1.51 6.85.53 12.32c2.51 6.74 21.44-1.23 25.01-2.97q18.36-8.97 29.63-18.42 9.64-8.1 19.32-16.09 9.12-7.53 18.6-10.95 2.35-.84 6.02-.32.67.1 1.14.59 3.7 3.84 4.82 7.2 2.09 6.3 6.42 11.09 14.38 15.94 32.68 37.08 10.94 12.65 14.64 28.02 1.37 5.72 1.42 15.83.05 9.95.07 19.9m-193.13-42.07 14.75-.01a.37.37 0 0 0 .37-.37l-.01-31.01q0-.54-.54-.54h-30.81q-.59 0-.59.59l.01 18.87a.93.93 0 0 1-.38.75q-.72.53-1.36 1.11c-5.85 5.33-4.78 15.1 2.64 18.2 6.52 2.72 12.74-.15 15.13-7.02q.2-.56.79-.57"/><path fill="#fff" d="M160.92 340.5c-2.39 6.87-8.61 9.74-15.13 7.02-7.42-3.1-8.49-12.87-2.64-18.2q.64-.58 1.36-1.11a.93.93 0 0 0 .38-.75l-.01-18.87q0-.59.59-.59h30.81q.54 0 .54.54l.01 31.01a.37.37 0 0 1-.37.37l-14.75.01q-.59.01-.79.57m13.9-30.1a.41.41 0 0 0-.41-.41h-27.12a.41.41 0 0 0-.41.41v27.12a.41.41 0 0 0 .41.41h27.12a.41.41 0 0 0 .41-.41zm-29.93 29.21-.01-8.34a.43.43 0 0 0-.75-.28c-4.09 4.54-3.7 11.09 1.63 14.3 5.02 3.04 11.02.51 13.08-4.83a.38.38 0 0 0-.35-.52l-13.25.01a.35.34 0 0 1-.35-.34"/><rect width="27.94" height="27.94" x="146.88" y="309.99" fill="#ed3583" rx=".41"/><path fill="#f7db9f" d="M144.89 339.61a.35.34 0 0 0 .35.34l13.25-.01a.38.38 0 0 1 .35.52c-2.06 5.34-8.06 7.87-13.08 4.83-5.33-3.21-5.72-9.76-1.63-14.3a.43.43 0 0 1 .75.28z"/><path fill="#fff" d="M216.47 382h-2l-.03-3.13q-.01-.6-.61-.6h-44.66q-.6 0-.6.6V382h-2.01l.01-5.13q0-.6.6-.6h48.78q.48 0 .48.48z"/><path fill="#5b39bf" d="M214.47 382h-45.9v-3.13q0-.6.6-.6h44.66q.6 0 .61.6z"/></svg>