<svg xmlns="http://www.w3.org/2000/svg" viewBox="0 0 382 382"><g fill="none" stroke-width="2"><path stroke="#b2b8cc" d="M280.4 382q15.79-7.5 14.02-24.95-.06-.59.53-.59h12.68a.59.59 0 0 0 .59-.59v-50.38q0-.48-.48-.48L257.4 305q-.59 0-.59.6v39.16a2.08 2.03-24.6 0 1-.53 1.37c-8.02 9.1-7.78 21.97.63 30.62q.43.43-.18.44l-4.03.01q-.64 0-.64.63l-.04 4.17M123.1 338.46l3.35.09q.55.01.55-.54l-.13-12.34" vector-effect="non-scaling-stroke"/><path stroke="#cfe3a8" d="M264.08 382q-3.95-3.5-9.33-2.78-.5.07-.62.57-.25 1.04.14 2.21" vector-effect="non-scaling-stroke"/><path stroke="#d1c6f1" d="M259.15 343.5q14.12-9.03 26.7.06 4.85 3.5 7.7 10.42a.76.75-10.9 0 0 .7.47h11.26q.71 0 .71-.71l.01-46.25q0-.49-.49-.49H259.4a.6.59 90 0 0-.59.6l-.01 35.71q0 .41.35.19" vector-effect="non-scaling-stroke"/><path stroke="#cfe3a8" d="M292.61 361.14a20.09 20.09 0 0 0-20.09-20.09 20.09 20.09 0 0 0-20.09 20.09 20.09 20.09 0 0 0 20.09 20.09 20.09 20.09 0 0 0 20.09-20.09" vector-effect="non-scaling-stroke"/><path stroke="#b2b8cc" d="M123.11 336.95q.87 0 1.45-.37.45-.29.44-.83l-.17-5" vector-effect="non-scaling-stroke"/></g><path fill="#647199" d="M354.86 382H280.4q15.79-7.5 14.02-24.95-.06-.59.53-.59h12.68a.59.59 0 0 0 .59-.59v-50.38q0-.48-.48-.48L257.4 305q-.59 0-.59.6v39.16a2.08 2.03-24.6 0 1-.53 1.37c-8.02 9.1-7.78 21.97.63 30.62q.43.43-.18.44l-4.03.01q-.64 0-.64.63l-.04 4.17H109.78q1.19-3.25 3.92-9.8 6.66-15.99 9.4-33.74l3.35.09q.55.01.55-.54l-.13-12.34c10.07-18.6 27.62-32.74 44.57-44.84 7.65-5.46 17.17-6.75 24.11-13.34 2.87-2.73 5.16-.13 5.19 2.86q.08 8.67-1.96 16.37c-1.01 3.83-3.01 7.2-3.99 10.99q-1.9 7.37.24 13.21c1.3 3.57 6.03 3.15 9.04 2.46q9.47-2.16 15.24-4.95 18.92-9.17 30.13-18.56 9.15-7.66 19.62-16.29 9.4-7.75 18.51-10.98 2.33-.82 6.11-.35.53.07.9.44 3.92 3.92 5.21 7.81 1.96 5.92 6.04 10.45 16.36 18.17 33.3 37.82 10.53 12.22 14.25 27.74 1.34 5.59 1.39 15.6.06 9.94.09 19.89"/><path fill="#fff" d="M280.4 382h-16.32q-3.95-3.5-9.33-2.78-.5.07-.62.57-.25 1.04.14 2.21h-2.25l.04-4.17q0-.63.64-.63l4.03-.01q.61-.01.18-.44c-8.41-8.65-8.65-21.52-.63-30.62a2.08 2.03-24.6 0 0 .53-1.37V305.6q0-.6.59-.6l50.34.01q.48 0 .48.48v50.38a.59.59 0 0 1-.59.59h-12.68q-.59 0-.53.59 1.77 17.45-14.02 24.95m-21.25-38.5q14.12-9.03 26.7.06 4.85 3.5 7.7 10.42a.76.75-10.9 0 0 .7.47h11.26q.71 0 .71-.71l.01-46.25q0-.49-.49-.49H259.4a.6.59 90 0 0-.59.6l-.01 35.71q0 .41.35.19m33.46 17.64a20.09 20.09 0 0 0-20.09-20.09 20.09 20.09 0 0 0-20.09 20.09 20.09 20.09 0 0 0 20.09 20.09 20.09 20.09 0 0 0 20.09-20.09"/><path fill="#a28de3" d="M259.15 343.5q-.35.22-.35-.19l.01-35.71a.6.59 90 0 1 .59-.6h46.34q.49 0 .49.49l-.01 46.25q0 .71-.71.71h-11.26a.76.75-10.9 0 1-.7-.47q-2.85-6.92-7.7-10.42-12.58-9.09-26.7-.06"/><path fill="#fff" d="m123.1 338.46.01-1.51q.87 0 1.45-.37.45-.29.44-.83l-.17-5q.47-2.61 2.04-5.08l.13 12.34q0 .55-.55.54z"/><path fill="#647199" d="m124.83 330.75.17 5q.01.54-.44.83-.58.37-1.45.37z"/><circle cx="272.52" cy="361.14" r="20.09" fill="#9ec751"/><path fill="#9ec751" d="M264.08 382h-9.81q-.39-1.17-.14-2.21.12-.5.62-.57 5.38-.72 9.33 2.78"/></svg>