<svg xmlns="http://www.w3.org/2000/svg" viewBox="0 0 382 382"><defs><clipPath id="a"><path d="M382 382H0V0h382z"/></clipPath></defs><g clip-path="url(#a)"><svg xmlns="http://www.w3.org/2000/svg" width="382" height="382" style="shape-rendering:geometricPrecision"><path fill="#da915e" stroke="#da915e" d="m0 295.891 35.772-4.312 8.323 14.306-13.812 39.896L0 364.565zM78.238 127.357l10.248 7.077 32.266 46.953-17.076 9.354-23.158-3.001-9.177-12.133-13.22-39.198z"/><path fill="#22f243" stroke="#22f243" d="m58.12 136.409 13.221 39.198-35.258-2.722-.547-37.596 4.662-4.508z"/><path fill="#22f243" stroke="#22f243" d="m0 79.544 28.562 13.042 11.636 38.195-4.662 4.508-30.793 14.624-4.743.899z"/><path fill="#da915e" stroke="#da915e" d="M148.92 245.627 183.9 225.79l8.625 24.148-10.626 20.86-9.651 13.16-29.419-17.539zM269.241 123.028l15.563-19.514 3.104-.911 30.003 39.172-.415 7.038-7.276 12.443z"/><path fill="#da915e" stroke="#da915e" d="m182.54 212.89.8 1.051.559 11.85-34.979 19.836-49.823 11.963 67.514-54.929z"/><path fill="#da915e" stroke="#da915e" d="m136.977 177.677 29.634 24.984-67.514 54.93-.388.157 4.967-67.007 17.076-9.354zM218.215 319.989l37.48-33.485 16.466 39.556-28.641 8.33z"/><path fill="#22f243" stroke="#22f243" d="m218.215 319.989 25.305 14.401L223.089 382h-21.96l-13.881-34.382 4.922-15.258 21.593-12.65z"/><path fill="#da915e" stroke="#da915e" d="m192.524 249.938 34.91 15.312-.741 2.243-20.376 31.967-24.419-28.662z"/><path fill="#22f243" stroke="#22f243" d="m131.435 112.578-18.478-9.525-6.56-54.544 5.865-3.066 39.95 9.676 6.092 5.366-1.119 33.864z"/><path fill="#da915e" stroke="#da915e" d="m36.083 172.885-6.514 7.149-24.826-30.121 30.793-14.624z"/><path fill="#22f243" stroke="#22f243" d="m103.58 274.385 39.248-7.966 29.419 17.54-3.152 6.793-28.775 10.983-31.318-6.348zM202.4 163.44l41.971-9.177 1.694.354 16.43 38.267-79.156 21.057-.8-1.052z"/><path fill="#22f243" stroke="#22f243" d="m202.4 163.44-13.138-35.642 2.824-7.86 2.306-.855 49.98 35.18zM229.613 65.604l-.388-1.332 36.046-26.346 31.012 24.366-44.05 12.735zM260.273 382l16.005-53.522 4.003.177 29.014 10.986L351.579 382z"/><path fill="#da915e" stroke="#da915e" d="m248.707 120.478-20.755-47.844 1.66-7.03 22.62 9.423 32.572 28.487-15.563 19.514-12.76 5.83zM64.985 247.904 40.974 271.74l-20.263-12.01 17.696-37.098z"/><path fill="#22f243" stroke="#22f243" d="m130.633 126.112-42.147 8.322-10.248-7.077 9.487-19.498 25.232-4.806 18.478 9.525zM296.283 62.292 265.27 37.926 280.778 0h36.595l-6.454 63.472-3.247 2.306z"/><path fill="#da915e" stroke="#da915e" d="m280.778 0-15.507 37.926-36.046 26.346-17.372-16.058L210.648 0z"/><path fill="#22f243" stroke="#22f243" d="m0 207.356 20.696 2.377 16.908 10.179.803 2.72L20.71 259.73 0 273.763z"/><path fill="#da915e" stroke="#da915e" d="m202.4 163.44-19.86 49.45-15.929-10.229-29.634-24.984 1.672-6.09 50.613-43.79z"/><path fill="#22f243" stroke="#22f243" d="M187.248 347.618 201.128 382h-59.075l-3.639-29.663 12.386-7.805zM183.34 213.941l79.155-21.057 15.01 7.71 3.426 25.514-16.21 33.64-10.379 8.6-26.908-3.098-34.91-15.312-8.625-24.148z"/><path fill="#da915e" stroke="#da915e" d="m44.31 283.478-8.538 8.101L0 295.891v-22.128l20.711-14.033 20.263 12.01z"/><path fill="#22f243" stroke="#22f243" d="m121.124 349.76.227 32.24H92.7l-1.233-10.865 7.28-28.12z"/><path fill="#da915e" stroke="#da915e" d="m227.434 265.25 26.908 3.097 1.352 18.157-37.479 33.485-4.452-.279-.024-.772 12.954-51.445z"/><path fill="#22f243" stroke="#22f243" d="m310.22 161.256 7.276-12.443L382 143.53v60.15l-75.587-22.736z"/><path fill="#da915e" stroke="#da915e" d="m148.92 245.627-6.092 20.792-39.248 7.966-6.04-13.21-.291-.858 1.46-2.57.388-.157z"/><path fill="#22f243" stroke="#22f243" d="M65.597 72.973 28.562 92.586 0 79.544v-19.62l23.097-21.84 48.35 23.781zM103.58 274.385l5.422 21.002-18.253 31.32-2.465-.06L61.26 303.07l-1.934-7.688 38.214-34.206z"/><path fill="#22f243" stroke="#22f243" d="m39.167 0-16.07 38.084L0 59.924V0z"/><path fill="#da915e" stroke="#da915e" d="m272.161 326.06 4.117 2.418L260.273 382h-37.184l20.43-47.61z"/><path fill="#22f243" stroke="#22f243" d="M144.085 0 112.79 39.946 106.436 0z"/><path fill="#da915e" stroke="#da915e" d="m246.065 154.617 10.416-25.76 12.76-5.829 40.979 38.228-3.807 19.687-28.909 19.65-15.009-7.71z"/><path fill="#22f243" stroke="#22f243" d="m298.612 93.159 9.06-27.38 3.247-2.307 36.051 9.2.869.68 7.007 24.125-25.6 11.416z"/><path fill="#da915e" stroke="#da915e" d="M144.085 0h18.46l-10.332 55.119-39.95-9.676.526-5.497zM136.977 177.677l-16.225 3.71-32.266-46.953 42.147-8.322 8.016 45.476z"/><path fill="#22f243" stroke="#22f243" d="m71.448 61.865-48.351-23.78L39.167 0H52.06l29.693 50.804zM321.081 285.48l.822-39.82L382 232.41v18.842l-38.32 39.885-18.312-1.97z"/><path fill="#da915e" stroke="#da915e" d="m351.499 0-4.529 72.673-36.051-9.2L317.373 0z"/><path fill="#22f243" stroke="#22f243" d="M64.985 247.904 86.546 258.2l-36.153 26.122-6.082-.844-3.337-11.738zM206.317 299.46l20.376-31.967-12.954 51.445zM321.391 135.767l55-20.986 5.609 3.358v25.39l-64.504 5.284.415-7.038z"/><path fill="#da915e" stroke="#da915e" d="m50.393 284.322 8.933 11.06 1.934 7.688-17.165 2.815-8.323-14.306 8.539-8.1z"/><path fill="#22f243" stroke="#22f243" d="M382 0v54.354l-34.161 18.998-.869-.68L351.499 0z"/><path fill="#da915e" stroke="#da915e" d="m189.262 127.798-50.613 43.79-8.016-45.476.802-13.534 25.75-18.229 34.9 25.589z"/><path fill="#22f243" stroke="#22f243" d="M138.414 352.337 142.053 382H121.35l-.227-32.24zM321.391 135.767l-3.48 6.008-30.003-39.172 10.704-9.444 30.635 15.734z"/><path fill="#da915e" stroke="#da915e" d="m181.898 270.798 24.42 28.662 7.42 19.478.025.772-21.593 12.65-23.075-41.608 3.152-6.794zM321.391 135.767l7.856-26.874 25.6-11.416 21.544 17.304z"/><path fill="#da915e" stroke="#da915e" d="m382 118.139-5.61-3.358-21.544-17.304-7.007-24.125L382 54.354zM321.081 285.48l4.287 3.686-16.073 50.475-29.014-10.986 22.985-43.14zM78.238 127.357 58.12 136.41l-17.923-5.628-11.636-38.195 37.035-19.613 22.128 34.886zM140.32 301.735l28.775-10.983 23.075 41.608-4.922 15.258-36.448-3.086zM158.304 60.485l-6.091-5.366L162.544 0h48.104l1.205 48.214z"/><path fill="#22f243" stroke="#22f243" d="m248.707 120.478-54.077-1.612 33.322-46.232z"/><path fill="#22f243" stroke="#22f243" d="m244.371 154.263-49.98-35.18.24-.217 54.076 1.612 7.774 8.38-10.416 25.76z"/><path fill="#da915e" stroke="#da915e" d="m98.71 257.748-1.461 2.569-10.703-2.117-21.561-10.296-26.578-25.272-.803-2.72 42.914-32.172 23.158 3zM382 368.572l-38.32-77.436L382 251.25z"/><path fill="#22f243" stroke="#22f243" d="m90.749 326.708 8 16.307-7.28 28.12L0 364.689v-.124l30.283-18.784 58.001-19.134zM106.398 48.51l-24.645 2.294L52.06 0h54.376l6.353 39.946-.527 5.497z"/><path fill="#da915e" stroke="#da915e" d="m277.504 200.594 28.909-19.651L382 203.68v28.729l-60.097 13.252-40.972-19.553zM97.249 260.317l.291.859-38.214 34.206-8.933-11.06L86.546 258.2z"/><path fill="#22f243" stroke="#22f243" d="m140.32 301.735 10.48 42.797-12.386 7.805-17.29-2.577-22.376-6.745-8-16.307 18.254-31.32zM0 382v-17.311l91.468 6.446L92.701 382zM192.086 119.938l-34.9-25.589 1.118-33.864 53.549-12.27 17.372 16.057.388 1.332-1.66 7.03-33.323 46.232-.238.217z"/><path fill="#da915e" stroke="#da915e" d="m112.957 103.053-25.232 4.806-22.128-34.886 5.85-11.108 10.306-11.061 24.645-2.295zM80.518 187.74l-42.914 32.172-16.908-10.179 8.873-29.699 6.514-7.149 35.258 2.722zM44.095 305.885l17.165-2.815 27.024 23.577-58 19.134z"/><path fill="#22f243" stroke="#22f243" d="m0 150.812 4.743-.899 24.826 30.121-8.873 29.7L0 207.355z"/><path fill="#da915e" stroke="#da915e" d="m325.368 289.166 18.312 1.97L382 368.572V382h-30.42l-42.285-42.36z"/><path fill="#22f243" stroke="#22f243" d="m264.72 259.749 38.546 25.765-22.985 43.141-4.003-.177-4.117-2.418-16.467-39.556-1.352-18.157zM284.804 103.514l-32.571-28.487 44.05-12.735 11.389 3.486-9.06 27.381-10.704 9.444zM280.93 226.108l40.973 19.553-.822 39.819-17.815.034-38.545-25.765z"/></svg></g></svg>