<svg xmlns="http://www.w3.org/2000/svg" viewBox="0 0 1592 1592"><path fill="none" stroke="#ff00e7" stroke-opacity=".933" stroke-width="2" d="M1590.89 0q.38.25.38 1.25.07 794.61.06 1589.3a.61.61 0 0 1-.61.61L0 1591.17" vector-effect="non-scaling-stroke"/><path fill="#ff00e4" d="M1590.89 0q.38.25.38 1.25.07 794.61.06 1589.3a.61.61 0 0 1-.61.61L0 1591.17V0z"/><path fill="#ff00eb" fill-opacity=".867" d="M1592 0v1592H0v-.83l1590.72-.01a.61.61 0 0 0 .61-.61q.01-794.69-.06-1589.3 0-1-.38-1.25z"/></svg>