<svg xmlns="http://www.w3.org/2000/svg" viewBox="0 0 382 382"><defs><clipPath id="a"><path d="M382 382H0V0h382z"/></clipPath></defs><g clip-path="url(#a)"><svg xmlns="http://www.w3.org/2000/svg" width="382" height="382" style="shape-rendering:geometricPrecision"><path fill="#e66d30" stroke="#e66d30" d="m123.371 382 4.427-22.294 15.071-11.575 3.208 1.992L161.603 382zM32.326 122.855 0 113.522V72.564l57.556 31.957z"/><path fill="#213f7e" stroke="#213f7e" d="m247.823 282.46 5.693 2.087 28.744 59.325L262.955 382h-31.682l14.76-96.605z"/><path fill="#e66d30" stroke="#e66d30" d="m128.356 173.133 21.005 30.925-15.942 28.2-43.966-7.732-15.524-15.641 30.524-35.785 20.9-1.786zM57.556 104.52 0 72.565V61.879l39.67-5.127 43.128 39.155zM247.672 54.535 236.555 0h43.45l2.047 17.264-9.588 40.84z"/><path fill="#213f7e" stroke="#213f7e" d="m382 144.177-40.084-1.167 9.251-34.644L382 103.338z"/><path fill="#e66d30" stroke="#e66d30" d="m344.991 51.514-2.577-35.763 26.087-3.936 2.84 2.575-17.506 31.877zM248.746 219.883l26.742-10.154 25.813 38.156-23.899 33.804-23.886 2.858-5.693-2.086-4.293-6.31z"/><path fill="#213f7e" stroke="#213f7e" d="m169.641 310.9 37.958 11.237-11.088 32.435-3.642-1.525-26.278-37.66zM270.001 118.487l14.143-28.853L328.1 78.637l23.068 29.729-9.25 34.644-6.862 7.055-36.433-15.003z"/><path fill="#213f7e" stroke="#213f7e" d="M196.51 354.572 210.357 382h-48.753l-15.526-31.877 46.792 2.924zM301.301 247.885l26.339-22.35 8.668 4.188-21.258 59.316-37.648-7.35zM149.361 204.058l34.696-6.928 8.45 70.538-18.81 4.848-31.581-10.864-8.697-29.394z"/><path fill="#e66d30" stroke="#e66d30" d="m382 70.658-37.76-17.286.751-1.858 8.844-5.247L382 32.98zM182.171 106.291l-16.956-44.187 2.562-3.631 45.07-6.398.732.73 3.688 22.087zM53.07 296.276l5.006 22.728-12.424 17.24-17.496-15.53-2.953-12.325 6.773-14.684 10.345-3.965z"/><path fill="#e66d30" stroke="#e66d30" d="m343.296 54.058.944-.686L382 70.658v32.68l-30.833 5.028-23.068-29.73zM49.257 264.762l31.273-3.791 23.975 33.537-51.436 1.768-10.748-6.536zM212.848 52.075 218.342 0h18.213l11.117 54.535-34.093-1.73zM382 32.98l-28.165 13.287 17.506-31.877L382 20.06zM142.116 261.652l31.58 10.864-4.055 38.384-3.05 4.488-24.246 14.671-34.115-32.57-.124-.957z"/><path fill="#e66d30" stroke="#e66d30" d="m217.267 74.892-3.688-22.088 34.093 1.73 24.792 3.57 11.68 31.53-14.143 28.853-9.325 5.394-6.989 1.882zM104.453 173.1 73.93 208.885l-17.635-2.95-4.805-28.797 40.28-19.264zM89.78 329.419l-2.533 17.856L54.85 382h-.967l-8.231-45.756 12.424-17.24z"/><path fill="#213f7e" stroke="#213f7e" d="m98.24 0 1.173 16.907-50.11 5.123L40.866 0zM297.635 200.842l.987-65.78 36.433 15.003 1.307 12.49-29.083 39.124z"/><path fill="#e66d30" stroke="#e66d30" d="m307.279 201.679 29.083-39.124L382 198.882v30.51l-6.312 2.397-39.38-2.066-8.668-4.188z"/><path fill="#213f7e" stroke="#213f7e" d="M0 382v-25.223l28.156-36.062 17.496 15.529L53.882 382z"/><path fill="#e66d30" stroke="#e66d30" d="m91.769 157.874-40.28 19.264-6.882-18.513 1.219-3.493 35.636-19.64z"/><path fill="#213f7e" stroke="#213f7e" d="M44.607 158.625 0 163.917v-50.395l32.326 9.333 13.5 32.277z"/><path fill="#e66d30" stroke="#e66d30" d="m89.453 224.526 43.966 7.732 8.697 29.394-34.01 34.88-3.601-2.024-23.975-33.537zM182.475 128.615l-57.033-12.993-14.15-13.92 39.11-34.892 14.813-4.706 16.956 44.187z"/><path fill="#213f7e" stroke="#213f7e" d="M382 0v20.06l-10.66-5.67-2.839-2.575L370.858 0zM82.798 95.907 39.67 56.752 50.48 42.14l46.573-5.347-4.611 61.02zM150.402 66.81l-44.809-37.483 54.452-7.77 7.732 36.916-2.562 3.631z"/><path fill="#e66d30" stroke="#e66d30" d="m182.475 128.615-.304-22.324 35.096-31.399 36.42 50.87-38.24 27.458-30.09-20.874z"/><path fill="#213f7e" stroke="#213f7e" d="m73.93 208.885 15.523 15.64-8.923 36.446-31.273 3.79-22.303-41.626 29.34-17.2zM272.464 58.104l9.588-40.84 61.244 36.794L328.1 78.637l-43.955 10.997z"/><path fill="#e66d30" stroke="#e66d30" d="m207.6 322.137 38.433-36.742L231.273 382h-20.917l-13.845-27.428zM215.446 153.22l38.241-27.457 6.989-1.882 31.944 77.17-17.132 8.678-26.742 10.154-35.622-43.182z"/><path fill="#213f7e" stroke="#213f7e" d="m128.356 173.133 57.001-40.787 30.09 20.874-2.323 23.481-29.067 20.43-34.696 6.927zM343.296 54.058l-61.244-36.794L280.005 0h53.926l8.483 15.751 2.577 35.763-.751 1.858z"/><path fill="#e66d30" stroke="#e66d30" d="m128.356 173.133-3.004-1.819.09-55.692 57.033 12.993 2.882 3.731zM97.053 36.793 50.48 42.14l-1.178-20.11 50.111-5.123 2.622 11.566zM335.055 150.065l6.861-7.055L382 144.177v54.705l-45.638-36.327z"/><path fill="#213f7e" stroke="#213f7e" d="m102.035 28.473-2.622-11.566L98.24 0h69.104l-7.298 21.557-54.452 7.77zM108.23 297.49l34.115 32.57.524 18.07-15.071 11.576-40.55-12.43 2.532-17.857z"/><path fill="#e66d30" stroke="#e66d30" d="m93.35 98.673-.908-.86 4.61-61.02 4.983-8.32 3.558.854 44.81 37.483-39.111 34.892z"/><path fill="#e66d30" stroke="#e66d30" d="m81.462 135.492-35.636 19.64-13.5-32.277 25.23-18.334 25.242-8.614 9.644 1.906.909.86z"/><path fill="#213f7e" stroke="#213f7e" d="m0 273.775 31.976 19.93-6.773 14.684L0 314.815zM166.59 315.388l26.28 37.66-46.793-2.925-3.208-1.992-.524-18.072z"/><path fill="#e66d30" stroke="#e66d30" d="M32.252 0 0 48.38V0zM382 310.548l-30.089-30.125 23.777-48.634 6.312-2.397z"/><path fill="#213f7e" stroke="#213f7e" d="m108.106 296.532.124.958-18.45 31.929-31.704-10.415-5.007-22.728 51.436-1.768z"/><path fill="#e66d30" stroke="#e66d30" d="M39.67 56.752 0 61.879v-13.5L32.252 0h8.615l8.435 22.03 1.178 20.11z"/><path fill="#213f7e" stroke="#213f7e" d="m125.352 171.314-20.899 1.786-12.684-15.226-10.307-22.382L93.35 98.673l17.94 3.03 14.15 13.92zM262.955 382l19.305-38.128 55.847.67L382 379.53V382zM277.402 281.689l37.648 7.35 4.785 3.154 18.272 52.349-55.847-.67-28.744-59.325z"/><path fill="#e66d30" stroke="#e66d30" d="m297.635 200.842-5.015.209-31.944-77.17 9.325-5.394 28.62 16.575zM54.85 382l32.397-34.725 40.55 12.43L123.372 382zM167.777 58.473l-7.732-36.916L167.343 0h50.999l-5.494 52.075zM56.294 205.936l-29.34 17.199L0 223.252v-59.335l44.607-5.292 6.882 18.513z"/><path fill="#213f7e" stroke="#213f7e" d="m0 314.815 25.203-6.426 2.953 12.326L0 356.777zM370.858 0 368.5 11.815l-26.087 3.936L333.93 0z"/><path fill="#e66d30" stroke="#e66d30" d="m192.507 267.668-8.45-70.538 29.067-20.429 35.622 43.182-5.216 56.268zM297.635 200.842l9.644.837 20.361 23.856-26.339 22.35-25.813-38.156 17.132-8.678z"/><path fill="#213f7e" stroke="#213f7e" d="m192.507 267.668 51.023 8.483 4.293 6.31-1.79 2.934-38.434 36.742-37.958-11.237 4.055-38.384z"/><path fill="#e66d30" stroke="#e66d30" d="m336.308 229.723 39.38 2.066-23.777 48.634-32.076 11.77-4.785-3.154z"/><path fill="#e66d30" stroke="#e66d30" d="m319.835 292.193 32.076-11.77L382 310.548v68.982l-43.893-34.988zM49.257 264.762l-6.936 24.978-10.345 3.965L0 273.775v-50.523l26.954-.117z"/></svg></g></svg>