
      <svg xmlns="http://www.w3.org/2000/svg" viewBox="0 0 382 382">
        <defs>
          <clipPath id="clip-path-0">
            <path d="M382,382H0V0h382v382Z" />
          </clipPath>
        </defs>
        <g clip-path="url(#clip-path-0)">
          <svg xmlns="http://www.w3.org/2000/svg" width="382" height="382" style="shape-rendering: geometricPrecision;"><path d="M68.33295226036259,278.8277249542493L73.11029687920643,312.8901576509541L48.24483730028267,328.3749006206876L0,331.0282223693575L0,321.5400507861623L25.215626876531623,298.9405872316042L62.98816514450119,276.0608376613078L68.33295226036259,278.8277249542493Z" fill="#85714b" stroke="#85714b" stroke-width="1" /><path d="M133.17955382309725,186.97890332982453L144.15476041537568,227.94246667854878L136.3534989340606,227.86959020028434L99.84178619854522,203.342183171185L133.17955382309725,186.97890332982453Z" fill="#df9010" stroke="#df9010" stroke-width="1" /><path d="M78.42480560786481,230.0012507589882L95.95867596753953,265.73549834224366L70.25223396902472,278.8830001293843L68.33295226036259,278.8277249542493L62.98816514450119,276.0608376613078L50.75141825521611,203.7926898086293L78.42480560786481,230.0012507589882Z" fill="#df9010" stroke="#df9010" stroke-width="1" /><path d="M172.453838237272,192.78134977576718L215.94709508770794,224.32842382908834L207.07624550234073,234.19278399077493L156.5246527791776,238.48253650327229L150.20396295361635,228.8385893263869L172.453838237272,192.78134977576718Z" fill="#85714b" stroke="#85714b" stroke-width="1" /><path d="M319.0329404077757,66.54480254669002L264.1383246524763,31.93488821979819L261.02125095279314,12.863868764825554L315.22959418783114,32.63976537442817L325.8599707796927,62.105399421013104L319.0329404077757,66.54480254669002Z" fill="#85714b" stroke="#85714b" stroke-width="1" /><path d="M0,331.0282223693575L48.24483730028267,328.3749006206876L89.74640334451952,350.88434936830055L0,357.17937045430494L0,331.0282223693575Z" fill="#df9010" stroke="#df9010" stroke-width="1" /><path d="M172.453838237272,192.78134977576718L150.20396295361635,228.8385893263869L144.15476041537568,227.94246667854878L133.17955382309725,186.97890332982453L140.41447664749558,177.6159585678421L167.4098327772503,172.85704574328318L172.56532460225392,183.6996740234203L172.453838237272,192.78134977576718Z" fill="#df9010" stroke="#df9010" stroke-width="1" /><path d="M222.25425420574936,382L234.14223346000423,364.2825493622418L236.00689998862066,364.10508870736464L236.60509876018162,382L222.25425420574936,382Z" fill="#df9010" stroke="#df9010" stroke-width="1" /><path d="M320.890859593714,141.08337172685845L306.07595332794006,89.77871645289306L319.0329404077757,66.54480254669002L325.8599707796927,62.105399421013104L350.89108359167943,60.638866172656705L382,101.4696413291645L382,160.11234559425628L333.9587044474039,146.31138716829517L320.890859593714,141.08337172685845Z" fill="#85714b" stroke="#85714b" stroke-width="1" /><path d="M255.16173734607654,0L255.13141462656185,0.272767616411727L201.80346577956917,35.84381844690775L132.59002979738094,22.788067843357688L132.26307884613587,0L255.16173734607654,0Z" fill="#df9010" stroke="#df9010" stroke-width="1" /><path d="M319.07871721390234,295.22374899125646L334.8254502712334,302.9049262877969L332.1820198011435,357.00791522869605L320.5302485998123,382L309.52130469817484,382L284.6404690659836,333.46613533767766L319.07871721390234,295.22374899125646Z" fill="#df9010" stroke="#df9010" stroke-width="1" /><path d="M117.9020864822112,265.4810449318354L123.20656859125678,287.75839588359673L107.14290598056904,285.91046035137816L107.20553142561587,265.7535216717546L111.98862057439665,262.0631569222468L117.9020864822112,265.4810449318354Z" fill="#85714b" stroke="#85714b" stroke-width="1" /><path d="M278.2829899856531,259.08170413810444L293.1551145423972,209.85079909448513L376.18947342977185,205.5887917102887L328.4767155486633,243.57062990620113L301.02571388556754,261.5650498610162L278.2829899856531,259.08170413810444Z" fill="#85714b" stroke="#85714b" stroke-width="1" /><path d="M307.2722773049137,142.59789482854595L255.0447965888682,113.39996960285949L250.77721989427644,84.59720841009704L261.0305537373761,71.21330364916254L306.07595332794006,89.77871645289306L320.890859593714,141.08337172685845L307.2722773049137,142.59789482854595Z" fill="#df9010" stroke="#df9010" stroke-width="1" /><path d="M277.41495471913527,163.84551079328594L228.5942056843617,148.48602073997893L231.35937931907705,135.1374633311143L255.0447965888682,113.39996960285949L307.2722773049137,142.59789482854595L277.41495471913527,163.84551079328594Z" fill="#85714b" stroke="#85714b" stroke-width="1" /><path d="M382,382L320.5302485998123,382L332.1820198011435,357.00791522869605L382,318.13241394430855L382,382Z" fill="#df9010" stroke="#df9010" stroke-width="1" /><path d="M156.5246527791776,238.48253650327229L158.99060795204554,253.67955147654897L128.89110443015468,268.97091522932226L117.9020864822112,265.4810449318354L111.98862057439665,262.0631569222468L114.26456769628447,250.72701619911274L136.3534989340606,227.86959020028434L144.15476041537568,227.94246667854878L150.20396295361635,228.8385893263869L156.5246527791776,238.48253650327229Z" fill="#df9010" stroke="#df9010" stroke-width="1" /><path d="M158.99060795204554,253.67955147654897L175.66240504772873,286.97491536024614L150.04683740099358,308.2262445149604L137.5451082948335,294.8152630933746L128.89110443015468,268.97091522932226L158.99060795204554,253.67955147654897Z" fill="#df9010" stroke="#df9010" stroke-width="1" /><path d="M217.98872286508413,179.0204416641033L172.56532460225392,183.6996740234203L167.4098327772503,172.85704574328318L168.9627889352007,145.78556913378162L226.96608823890895,150.36851410320068L225.01367251711108,170.83396400950159L217.98872286508413,179.0204416641033Z" fill="#85714b" stroke="#85714b" stroke-width="1" /><path d="M278.2829899856531,259.08170413810444L301.02571388556754,261.5650498610162L319.07871721390234,295.22374899125646L284.6404690659836,333.46613533767766L276.02876383770774,327.3117563454101L244.7352185440145,297.07669317149805L267.8698862282684,260.74820761906807L278.2829899856531,259.08170413810444Z" fill="#85714b" stroke="#85714b" stroke-width="1" /><path d="M120.00815701122326,167.4897702593801L52.97796348969966,174.61148679568566L78.8341766681639,116.55894745816721L136.67339501782578,143.63850603039424L120.00815701122326,167.4897702593801Z" fill="#85714b" stroke="#85714b" stroke-width="1" /><path d="M207.07624550234073,234.19278399077493L198.09749438329604,288.6422802555791L175.66240504772873,286.97491536024614L158.99060795204554,253.67955147654897L156.5246527791776,238.48253650327229L207.07624550234073,234.19278399077493Z" fill="#df9010" stroke="#df9010" stroke-width="1" /><path d="M78.42480560786481,230.0012507589882L114.26456769628447,250.72701619911274L111.98862057439665,262.0631569222468L107.20553142561587,265.7535216717546L95.95867596753953,265.73549834224366L78.42480560786481,230.0012507589882Z" fill="#df9010" stroke="#df9010" stroke-width="1" /><path d="M259.8198075368342,208.0470941703049L273.35576433287923,170.2363899724116L275.54260601495076,167.86548836629902L286.8076579254387,202.9120182826257L259.8198075368342,208.0470941703049Z" fill="#df9010" stroke="#df9010" stroke-width="1" /><path d="M107.14290598056904,285.91046035137816L99.6682732951371,296.5720932035245L70.25223396902472,278.8830001293843L95.95867596753953,265.73549834224366L107.20553142561587,265.7535216717546L107.14290598056904,285.91046035137816Z" fill="#85714b" stroke="#85714b" stroke-width="1" /><path d="M255.13141462656185,0.272767616411727L255.16173734607654,0L337.30528075249873,0L336.9947629885139,20.29597816436482L315.22959418783114,32.63976537442817L261.02125095279314,12.863868764825554L255.13141462656185,0.272767616411727Z" fill="#85714b" stroke="#85714b" stroke-width="1" /><path d="M128.89110443015468,268.97091522932226L137.5451082948335,294.8152630933746L123.20656859125678,287.75839588359673L117.9020864822112,265.4810449318354L128.89110443015468,268.97091522932226Z" fill="#85714b" stroke="#85714b" stroke-width="1" /><path d="M99.6682732951371,296.5720932035245L105.32883650705116,323.00023548929994L73.11029687920643,312.8901576509541L68.33295226036259,278.8277249542493L70.25223396902472,278.8830001293843L99.6682732951371,296.5720932035245Z" fill="#df9010" stroke="#df9010" stroke-width="1" /><path d="M244.7352185440145,297.07669317149805L276.02876383770774,327.3117563454101L243.4415982235209,358.11718141285263L232.0540533613477,301.1759006179518L244.7352185440145,297.07669317149805Z" fill="#85714b" stroke="#85714b" stroke-width="1" /><path d="M168.9627889352007,145.78556913378162L167.4098327772503,172.85704574328318L140.41447664749558,177.6159585678421L120.00815701122326,167.4897702593801L136.67339501782578,143.63850603039424L167.5998920148662,142.60588796978354L168.9627889352007,145.78556913378162Z" fill="#85714b" stroke="#85714b" stroke-width="1" /><path d="M325.8599707796927,62.105399421013104L315.22959418783114,32.63976537442817L336.9947629885139,20.29597816436482L354.74885017112473,42.82746235232806L353.8274115074624,48.050788674745746L350.89108359167943,60.638866172656705L325.8599707796927,62.105399421013104Z" fill="#df9010" stroke="#df9010" stroke-width="1" /><path d="M198.09749438329604,288.6422802555791L222.97159525918846,302.286125268137L206.09105884805314,339.603424415705L176.31352768942506,357.98049068952577L146.14373482379483,316.2149123708137L150.04683740099358,308.2262445149604L175.66240504772873,286.97491536024614L198.09749438329604,288.6422802555791Z" fill="#df9010" stroke="#df9010" stroke-width="1" /><path d="M306.07595332794006,89.77871645289306L261.0305537373761,71.21330364916254L264.1383246524763,31.93488821979819L319.0329404077757,66.54480254669002L306.07595332794006,89.77871645289306Z" fill="#df9010" stroke="#df9010" stroke-width="1" /><path d="M231.35937931907705,135.1374633311143L209.5470282630106,114.4672080328416L217.83415209674826,83.62077023270196L250.77721989427644,84.59720841009704L255.0447965888682,113.39996960285949L231.35937931907705,135.1374633311143Z" fill="#85714b" stroke="#85714b" stroke-width="1" /><path d="M0,186.3175004790004L40.60534899869356,186.56220030572706L25.215626876531623,298.9405872316042L0,321.5400507861623L0,186.3175004790004Z" fill="#df9010" stroke="#df9010" stroke-width="1" /><path d="M206.09105884805314,339.603424415705L211.23199604305316,346.56503307998713L209.2364652294446,382L170.83587221000352,382L176.31352768942506,357.98049068952577L206.09105884805314,339.603424415705Z" fill="#85714b" stroke="#85714b" stroke-width="1" /><path d="M150.04683740099358,308.2262445149604L146.14373482379483,316.2149123708137L112.68031125379872,331.99173673374423L105.32883650705116,323.00023548929994L99.6682732951371,296.5720932035245L107.14290598056904,285.91046035137816L123.20656859125678,287.75839588359673L137.5451082948335,294.8152630933746L150.04683740099358,308.2262445149604Z" fill="#85714b" stroke="#85714b" stroke-width="1" /><path d="M277.41495471913527,163.84551079328594L307.2722773049137,142.59789482854595L320.890859593714,141.08337172685845L333.9587044474039,146.31138716829517L287.83155761199333,203.38589672056705L286.8076579254387,202.9120182826257L275.54260601495076,167.86548836629902L277.41495471913527,163.84551079328594Z" fill="#85714b" stroke="#85714b" stroke-width="1" /><path d="M221.84409375737533,222.7311982916134L245.3091612308333,227.6785829475235L267.8698862282684,260.74820761906807L244.7352185440145,297.07669317149805L232.0540533613477,301.1759006179518L222.97159525918846,302.286125268137L198.09749438329604,288.6422802555791L207.07624550234073,234.19278399077493L215.94709508770794,224.32842382908834L221.84409375737533,222.7311982916134Z" fill="#df9010" stroke="#df9010" stroke-width="1" /><path d="M301.02571388556754,261.5650498610162L328.4767155486633,243.57062990620113L349.9791285233858,298.5134810026548L334.8254502712334,302.9049262877969L319.07871721390234,295.22374899125646L301.02571388556754,261.5650498610162Z" fill="#85714b" stroke="#85714b" stroke-width="1" /><path d="M222.25425420574936,382L213.48273935434304,382L218.84898745223248,354.47837338528717L234.14223346000423,364.2825493622418L222.25425420574936,382Z" fill="#df9010" stroke="#df9010" stroke-width="1" /><path d="M0,357.17937045430494L89.74640334451952,350.88434936830055L103.678357347886,357.14387522811285L104.19875059432053,382L0,382L0,357.17937045430494Z" fill="#df9010" stroke="#df9010" stroke-width="1" /><path d="M243.15332621149736,182.66607414011546L273.35576433287923,170.2363899724116L259.8198075368342,208.0470941703049L251.10682866762815,215.516777944152L243.15332621149736,182.66607414011546Z" fill="#85714b" stroke="#85714b" stroke-width="1" /><path d="M99.84178619854522,203.342183171185L136.3534989340606,227.86959020028434L114.26456769628447,250.72701619911274L78.42480560786481,230.0012507589882L50.75141825521611,203.7926898086293L43.05289097687382,186.37366936149888L45.52142668781431,184.76724100220116L99.84178619854522,203.342183171185Z" fill="#85714b" stroke="#85714b" stroke-width="1" /><path d="M209.2364652294446,382L211.23199604305316,346.56503307998713L218.84898745223248,354.47837338528717L213.48273935434304,382L209.2364652294446,382Z" fill="#85714b" stroke="#85714b" stroke-width="1" /><path d="M225.01367251711108,170.83396400950159L226.96608823890895,150.36851410320068L228.5942056843617,148.48602073997893L277.41495471913527,163.84551079328594L275.54260601495076,167.86548836629902L273.35576433287923,170.2363899724116L243.15332621149736,182.66607414011546L225.01367251711108,170.83396400950159Z" fill="#85714b" stroke="#85714b" stroke-width="1" /><path d="M209.5470282630106,114.4672080328416L169.15508824519617,122.77092934124913L158.9740390415269,96.28404202211019L204.0503505316326,73.78172894712554L217.83415209674826,83.62077023270196L209.5470282630106,114.4672080328416Z" fill="#df9010" stroke="#df9010" stroke-width="1" /><path d="M0,0.45182005848315043L61.06579300323154,62.45756396721944L0,100.75261607843012L0,0.45182005848315043Z" fill="#df9010" stroke="#df9010" stroke-width="1" /><path d="M349.9791285233858,298.5134810026548L382,293.555216310572L382,318.13241394430855L332.1820198011435,357.00791522869605L334.8254502712334,302.9049262877969L349.9791285233858,298.5134810026548Z" fill="#df9010" stroke="#df9010" stroke-width="1" /><path d="M167.5998920148662,142.60588796978354L136.67339501782578,143.63850603039424L78.8341766681639,116.55894745816721L85.33059448897137,74.08921812899675L111.03049064335688,61.724284240743046L158.9740390415269,96.28404202211019L169.15508824519617,122.77092934124913L167.5998920148662,142.60588796978354Z" fill="#df9010" stroke="#df9010" stroke-width="1" /><path d="M133.17955382309725,186.97890332982453L99.84178619854522,203.342183171185L45.52142668781431,184.76724100220116L52.97796348969966,174.61148679568566L120.00815701122326,167.4897702593801L140.41447664749558,177.6159585678421L133.17955382309725,186.97890332982453Z" fill="#df9010" stroke="#df9010" stroke-width="1" /><path d="M287.83155761199333,203.38589672056705L333.9587044474039,146.31138716829517L382,160.11234559425628L382,202.32224714391805L376.18947342977185,205.5887917102887L293.1551145423972,209.85079909448513L287.83155761199333,203.38589672056705Z" fill="#85714b" stroke="#85714b" stroke-width="1" /><path d="M217.83415209674826,83.62077023270196L204.0503505316326,73.78172894712554L201.80346577956917,35.84381844690775L255.13141462656185,0.272767616411727L261.02125095279314,12.863868764825554L264.1383246524763,31.93488821979819L261.0305537373761,71.21330364916254L250.77721989427644,84.59720841009704L217.83415209674826,83.62077023270196Z" fill="#df9010" stroke="#df9010" stroke-width="1" /><path d="M217.98872286508413,179.0204416641033L225.01367251711108,170.83396400950159L243.15332621149736,182.66607414011546L251.10682866762815,215.516777944152L245.3091612308333,227.6785829475235L221.84409375737533,222.7311982916134L217.98872286508413,179.0204416641033Z" fill="#85714b" stroke="#85714b" stroke-width="1" /><path d="M382,48.36121290983382L353.8274115074624,48.050788674745746L354.74885017112473,42.82746235232806L382,20.867124418299817L382,48.36121290983382Z" fill="#85714b" stroke="#85714b" stroke-width="1" /><path d="M43.05289097687382,186.37366936149888L50.75141825521611,203.7926898086293L62.98816514450119,276.0608376613078L25.215626876531623,298.9405872316042L40.60534899869356,186.56220030572706L43.05289097687382,186.37366936149888Z" fill="#85714b" stroke="#85714b" stroke-width="1" /><path d="M382,0L382,20.867124418299817L354.74885017112473,42.82746235232806L336.9947629885139,20.29597816436482L337.30528075249873,0L382,0Z" fill="#85714b" stroke="#85714b" stroke-width="1" /><path d="M284.6404690659836,333.46613533767766L309.52130469817484,382L270.7599004110481,382L242.8086156359024,362.90459308435265L243.4415982235209,358.11718141285263L276.02876383770774,327.3117563454101L284.6404690659836,333.46613533767766Z" fill="#85714b" stroke="#85714b" stroke-width="1" /><path d="M43.05289097687382,186.37366936149888L40.60534899869356,186.56220030572706L0,186.3175004790004L0,100.75261607843012L61.06579300323154,62.45756396721944L85.33059448897137,74.08921812899675L78.8341766681639,116.55894745816721L52.97796348969966,174.61148679568566L45.52142668781431,184.76724100220116L43.05289097687382,186.37366936149888Z" fill="#85714b" stroke="#85714b" stroke-width="1" /><path d="M112.68031125379872,331.99173673374423L103.678357347886,357.14387522811285L89.74640334451952,350.88434936830055L48.24483730028267,328.3749006206876L73.11029687920643,312.8901576509541L105.32883650705116,323.00023548929994L112.68031125379872,331.99173673374423Z" fill="#85714b" stroke="#85714b" stroke-width="1" /><path d="M158.9740390415269,96.28404202211019L111.03049064335688,61.724284240743046L132.59002979738094,22.788067843357688L201.80346577956917,35.84381844690775L204.0503505316326,73.78172894712554L158.9740390415269,96.28404202211019Z" fill="#df9010" stroke="#df9010" stroke-width="1" /><path d="M0,0L132.26307884613587,0L132.59002979738094,22.788067843357688L111.03049064335688,61.724284240743046L85.33059448897137,74.08921812899675L61.06579300323154,62.45756396721944L0,0.45182005848315043L0,0Z" fill="#85714b" stroke="#85714b" stroke-width="1" /><path d="M146.14373482379483,316.2149123708137L176.31352768942506,357.98049068952577L170.83587221000352,382L104.19875059432053,382L103.678357347886,357.14387522811285L112.68031125379872,331.99173673374423L146.14373482379483,316.2149123708137Z" fill="#85714b" stroke="#85714b" stroke-width="1" /><path d="M259.8198075368342,208.0470941703049L286.8076579254387,202.9120182826257L287.83155761199333,203.38589672056705L293.1551145423972,209.85079909448513L278.2829899856531,259.08170413810444L267.8698862282684,260.74820761906807L245.3091612308333,227.6785829475235L251.10682866762815,215.516777944152L259.8198075368342,208.0470941703049Z" fill="#df9010" stroke="#df9010" stroke-width="1" /><path d="M232.0540533613477,301.1759006179518L243.4415982235209,358.11718141285263L242.8086156359024,362.90459308435265L236.00689998862066,364.10508870736464L234.14223346000423,364.2825493622418L218.84898745223248,354.47837338528717L211.23199604305316,346.56503307998713L206.09105884805314,339.603424415705L222.97159525918846,302.286125268137L232.0540533613477,301.1759006179518Z" fill="#85714b" stroke="#85714b" stroke-width="1" /><path d="M236.60509876018162,382L236.00689998862066,364.10508870736464L242.8086156359024,362.90459308435265L270.7599004110481,382L236.60509876018162,382Z" fill="#df9010" stroke="#df9010" stroke-width="1" /><path d="M226.96608823890895,150.36851410320068L168.9627889352007,145.78556913378162L167.5998920148662,142.60588796978354L169.15508824519617,122.77092934124913L209.5470282630106,114.4672080328416L231.35937931907705,135.1374633311143L228.5942056843617,148.48602073997893L226.96608823890895,150.36851410320068Z" fill="#85714b" stroke="#85714b" stroke-width="1" /><path d="M217.98872286508413,179.0204416641033L221.84409375737533,222.7311982916134L215.94709508770794,224.32842382908834L172.453838237272,192.78134977576718L172.56532460225392,183.6996740234203L217.98872286508413,179.0204416641033Z" fill="#85714b" stroke="#85714b" stroke-width="1" /><path d="M382,202.32224714391805L382,293.555216310572L349.9791285233858,298.5134810026548L328.4767155486633,243.57062990620113L376.18947342977185,205.5887917102887L382,202.32224714391805Z" fill="#85714b" stroke="#85714b" stroke-width="1" /><path d="M382,101.4696413291645L350.89108359167943,60.638866172656705L353.8274115074624,48.050788674745746L382,48.36121290983382L382,101.4696413291645Z" fill="#85714b" stroke="#85714b" stroke-width="1" /></svg>
        </g>
      </svg>
    