<svg xmlns="http://www.w3.org/2000/svg" viewBox="0 0 382 382"><g fill="none" stroke-opacity=".996" stroke-width="2"><path stroke="#7d5381" d="M53.34 8.2q-.57.69-.68.56" vector-effect="non-scaling-stroke"/><path stroke="#f9b368" d="M68.76 13.78q-1.45-.01-.85.44" vector-effect="non-scaling-stroke"/><path stroke="#7d61e3" d="M75.44 6.23q-.28.11-.78.06" vector-effect="non-scaling-stroke"/><path stroke="#f9b368" d="M113.15 27.21q-.45.23-.7.65" vector-effect="non-scaling-stroke"/><path stroke="#7d5381" d="m104.52 16.35-1.02-1.26" vector-effect="non-scaling-stroke"/><path stroke="#f9b368" d="M112.09 8.49q-.08.7-.58.84M114.14 12.22q-.41-.09-.94-.03" vector-effect="non-scaling-stroke"/><path stroke="#7d61e3" d="M85.21 20.51q-1.14 1.39-.1 1.95M92.96 33.78q.84 1.1 1.8.74M104.54 48.84q-.83.07-1.15.28M103.39 49.12l-.81-1.38M95.16 36.82q-.13-.48-1.28-1.46" vector-effect="non-scaling-stroke"/><path stroke="#f9b368" d="m85.07 35.9-.82-.62M79.68 29.68q-.51-.5-.2-1.18M83.93 20.77q-.23-.96-.65-1.33" vector-effect="non-scaling-stroke"/><path stroke="#7d5381" d="M62.88 22.05q.06.3-.63.7" vector-effect="non-scaling-stroke"/><path stroke="#7d61e3" d="M123.88 25.83q-.02.2-.97.17" vector-effect="non-scaling-stroke"/><path stroke="#f9b368" d="M114.14 29.22q-.52-.17-.96.01" vector-effect="non-scaling-stroke"/><path stroke="#7d5381" d="m113.18 44.22.03 1.33" vector-effect="non-scaling-stroke"/><path stroke="#7d61e3" d="M113.21 45.55q-.06-.01-.09.29" vector-effect="non-scaling-stroke"/><path stroke="#f9b368" d="M88.48 41.95q-.51.72-1.03.97M77.26 29.29l-.97-.77" vector-effect="non-scaling-stroke"/><path stroke="#7d61e3" d="M133.52 39.73q-1.11.31-.95-1.19" vector-effect="non-scaling-stroke"/><path stroke="#f9b368" d="M61.69 31.9q.19.54-.01.68" vector-effect="non-scaling-stroke"/><path stroke="#7d61e3" d="M133.48 56.94q-.47.04-.66.28" vector-effect="non-scaling-stroke"/><path stroke="#f9b368" d="m114.16 45.56-.95-.01" vector-effect="non-scaling-stroke"/><path stroke="#7d5381" d="m94.9 69.03-1.03.09" vector-effect="non-scaling-stroke"/><path stroke="#7d61e3" d="M93.81 52.06q.23-.94-.12-2M89.65 44.06q-1.53-.5-1.15-1.83" vector-effect="non-scaling-stroke"/><path stroke="#f9b368" d="M151.82 66.61q.1.63-.35 1.24" vector-effect="non-scaling-stroke"/><path stroke="#7d61e3" d="m114.19 63.11-1.03.1M113.15 63.11l.02-1.65" vector-effect="non-scaling-stroke"/><path stroke="#7d5381" d="m104.44 65.79-.97.11" vector-effect="non-scaling-stroke"/><path stroke="#7d61e3" d="M127.01 64.59q-.16.56-.46.63M152.83 68.3q-.54.12-1.01-.01" vector-effect="non-scaling-stroke"/><path stroke="#7d5381" d="M143.19 71.08q-.67.9-.98.6" vector-effect="non-scaling-stroke"/><path stroke="#7d61e3" d="M88.28 76.5q-.17.4-.5.5M114.15 80.28l-1.04-.2" vector-effect="non-scaling-stroke"/><path stroke="#7d5381" d="M113.11 80.08q-.16-1.11-.02-1.7M171.21 95q.17.83.01 1.79M152.81 85.24q-1.12.55-.97-1.6M104.29 82.72q-.41.39-.59.73" vector-effect="non-scaling-stroke"/><path stroke="#f9b368" d="m103.7 83.45-.48.09M102.7 83.2q.23-2.03-.07-1.1" vector-effect="non-scaling-stroke"/><path stroke="#7d5381" d="M152.82 102.72q-.71-.15-.97.07" vector-effect="non-scaling-stroke"/><path stroke="#f9b368" d="M172.11 96.79q-.49-.23-.89 0" vector-effect="non-scaling-stroke"/><path stroke="#7d61e3" d="M114.18 113.41q-.8-.11-.99-.84M113.17 97.41l-.02-1.81M104.45 84.76q-.64-.27-.75-1.31M104.91 100.58q-.33.46-.97.71" vector-effect="non-scaling-stroke"/><path stroke="#f9b368" d="M11.94 101.75q-.01.34-.71.73M181.8 110.61l-.9.25" vector-effect="non-scaling-stroke"/><path stroke="#7d5381" d="M28.03 108.21q-.38.73-.79.4-.49-.38-1.11-1.38" vector-effect="non-scaling-stroke"/><path stroke="#f9b368" d="M172.15 113.64q-.22.36-.63.29M60.07 120.89q-.47.46-.82.45" vector-effect="non-scaling-stroke"/><path stroke="#7d5381" d="M114.47 114.77q-.37.11-.22.96" vector-effect="non-scaling-stroke"/><path stroke="#7d61e3" d="M114.24 131.6q-.32.21-.72.19" vector-effect="non-scaling-stroke"/><path stroke="#f9b368" d="M28.3 108.57q-.8.89-.78.49" vector-effect="non-scaling-stroke"/><path stroke="#7d5381" d="m152.82 119.59-.95.21" vector-effect="non-scaling-stroke"/><path stroke="#f9b368" d="M130.73 121.49q-.49.13-.65.59" vector-effect="non-scaling-stroke"/><path stroke="#7d61e3" d="M165.86 121.4q-.32.18-.43.76" vector-effect="non-scaling-stroke"/><path stroke="#7d5381" d="m191.53 125.22-1.04-.5" vector-effect="non-scaling-stroke"/><path stroke="#7d61e3" d="M190.49 124.72q-.27-1.21.02-1.4" vector-effect="non-scaling-stroke"/><path stroke="#f9b368" d="m67.76 133.86.46 1.36" vector-effect="non-scaling-stroke"/><path stroke="#7d61e3" d="M77.5 148.11q.67 1.24 1.77.85" vector-effect="non-scaling-stroke"/><path stroke="#f9b368" d="m88.72 162.83-.79.49" vector-effect="non-scaling-stroke"/><path stroke="#7d61e3" d="M52.54 129.41q-.3-.71-1.14-.74" vector-effect="non-scaling-stroke"/><path stroke="#f9b368" d="m190.49 124.72-.14.04" vector-effect="non-scaling-stroke"/><path stroke="#7d5381" d="m75.89 126.78-.72.7M146.31 127.19q.08.39-.35.9" vector-effect="non-scaling-stroke"/><path stroke="#f9b368" d="m182.33 128.48-.34 1.36" vector-effect="non-scaling-stroke"/><path stroke="#7d5381" d="M181.88 144.85q-.26.07-.6.45" vector-effect="non-scaling-stroke"/><path stroke="#f9b368" d="M179.71 127.74q.21-.47.21-.93" vector-effect="non-scaling-stroke"/><path stroke="#7d5381" d="M91.82 133.46q-.21.35-.61.37" vector-effect="non-scaling-stroke"/><path stroke="#f9b368" d="M162.56 133.78q-.86 1.03-.2 1.59" vector-effect="non-scaling-stroke"/><path stroke="#7d5381" d="m162.44 143.65-.79-.43M69.54 134.68q-.81.33-.72.75" vector-effect="non-scaling-stroke"/><path stroke="#7d61e3" d="M140.06 135.14q-.01.5-.14.81" vector-effect="non-scaling-stroke"/><path stroke="#7d5381" d="M191.51 158.8q-.84-.24-1.1-1.41" vector-effect="non-scaling-stroke"/><path stroke="#f9b368" d="m189.92 141.41.5-1.07M107.7 139.2q-.11.48-.42.56" vector-effect="non-scaling-stroke"/><path stroke="#7d5381" d="M36.78 132.26q-.05.47-.13.57" vector-effect="non-scaling-stroke"/><path stroke="#7d61e3" d="M133.33 159.53q-.59.61-.62 1.17" vector-effect="non-scaling-stroke"/><path stroke="#f9b368" d="M132.71 160.7q-.24-.12-.3-.24M131.5 159.96q.36-1.28.04-1.32M123.98 147.62q-.1-.53-1.01-.93M122 145.79q.13-.7-.11-1.07" vector-effect="non-scaling-stroke"/><path stroke="#7d5381" d="M127.24 167.45q-.42.62-.99.8" vector-effect="non-scaling-stroke"/><path stroke="#7d61e3" d="M181.84 162.01q-.78.36-1.54.33" vector-effect="non-scaling-stroke"/><path stroke="#f9b368" d="M180.02 162.18q.28-.53-.16-1.23M172.19 157.03q-.43.11-1.01 0" vector-effect="non-scaling-stroke"/><path stroke="#7d61e3" d="M171.02 148.26q-.56-1.38-.9-1.53" vector-effect="non-scaling-stroke"/><path stroke="#7d5381" d="M162.43 144.99q-.31.34-1.07-.32M157.15 143.05l-3.43-1.36M139.06 145.15q.07.51-.12.69" vector-effect="non-scaling-stroke"/><path stroke="#f9b368" d="M172.13 159.66q-.13-.43-.94-.16" vector-effect="non-scaling-stroke"/><path stroke="#7d5381" d="M166.77 157q-.74-.33-1.61-.39M191.5 193.23q-1.05-.02-.98-1.37M181.92 179.29q-.37-.13-1.04.11" vector-effect="non-scaling-stroke"/><path stroke="#7d61e3" d="M171.19 163.47v1.77M143.07 173.77q-.19.83-.86.84" vector-effect="non-scaling-stroke"/><path stroke="#7d5381" d="M133.57 171.2q-.56.03-1.25-.43M132.39 175.32q-.01 1.2 1.13 1.25M133.49 180.21q.23-.37-.59-.11M132.49 169.38l1.13.47M133.54 161.79q-.43-.34-.83-1.09" vector-effect="non-scaling-stroke"/><path stroke="#7d61e3" d="M172.16 165.23q-.51-.08-.97.01" vector-effect="non-scaling-stroke"/><path stroke="#f9b368" d="M137.51 181.93q-.21.5.44 1.22M142.16 189.35l1.03.21M146.29 195.48l-.86.92" vector-effect="non-scaling-stroke"/><path stroke="#7d5381" d="m133.59 183.33-.96.22M127.14 184.81l-.98.25M128.63 188.79q.66 1.62 1.88.94M132.6 192.42q-.06.1.19.3M133.01 193.03q.03.4.44.69" vector-effect="non-scaling-stroke"/><path stroke="#f9b368" d="M140.13 203.59q-.63.36-1.36.21" vector-effect="non-scaling-stroke"/><path stroke="#7d5381" d="M92.19 192.47q.08-.36-.45-.6M86.95 183.96q-.19-.93.08-.97M103.79 179.09q.23 1.54 1.87.8M110.19 178.97q.77-.13 1.04-.42M125.31 183.98l1.01-.28M132.65 182.24q.43.18.87-.2.36-.31-.04-.57-.3-.2-.95-.01M121.84 176.94l-3.34-1.27M110.43 177.42l-.99.39M104.12 170.12l-1.29-.61M172.15 182.14q-.39.19-.63.13" vector-effect="non-scaling-stroke"/><path stroke="#7d61e3" d="M87.84 172.93q.11.2.12.87M71.06 176.74q-.12.63-.05 1.06M54.38 181.33q.12-.29.04-.75M162.34 202.02q-.22.62-.7 1.21" vector-effect="non-scaling-stroke"/><path stroke="#f9b368" d="M161.64 203.23q-.06-.14-.11-.29M157.24 210.37l-.07.93M161.93 218.3q.34.08.49.32M165.78 223.9l-1.1.69M154.48 211.06q-.79-1.06-1.91-1.09M145.53 211.85q-.47-.02-1.04.23M143.12 210.15q-.19-.65-.93-.98" vector-effect="non-scaling-stroke"/><path stroke="#7d61e3" d="M142.19 209.17q.33-.14.15-.44-.24-.38-.6-.24M141.73 208.24q.27-.22.07-.51-.2-.28-.52-.42M151.72 205.3q.34-.74.17-1.51M147.42 197.32q-.67-.41-1.45-.34" vector-effect="non-scaling-stroke"/><path stroke="#f9b368" d="M165.5 189.62q-.23.35-.78.47" vector-effect="non-scaling-stroke"/><path stroke="#7d5381" d="M191.5 227.55q-.65-.5-1.08-1.53" vector-effect="non-scaling-stroke"/><path stroke="#f9b368" d="m190.2 210.14.11-1.42M181.96 196.49q-1.48 1.09-1.04.44" vector-effect="non-scaling-stroke"/><path stroke="#7d61e3" d="M127.04 201.76q-.08.28-.64.74M181.86 213.43q-.35.48-.82.66M172.04 216.23q-.8.93 0 1.77" vector-effect="non-scaling-stroke"/><path stroke="#7d5381" d="M172.12 226.51q-.15-.23-.81-.37M171.12 217.05q-.33-1.08-.84-1.61M162.58 204.22q-.53-.23-.94-.99M139.16 213.68q.14.33-.05.81" vector-effect="non-scaling-stroke"/><path stroke="#f9b368" d="M152.7 239.68q-.46-.04-.9.08" vector-effect="non-scaling-stroke"/><path stroke="#f9b368" d="M151.58 239.49q.33.35.29-1.35M151.82 222.72q.62-.45.08-1.68M146.57 213.2l-1.09.22M143.23 225.48q-.2.24-.85.5" vector-effect="non-scaling-stroke"/><path stroke="#7d61e3" d="M191.51 244.69q-1.33-.13-.98-1.41" vector-effect="non-scaling-stroke"/><path stroke="#f9b368" d="M181.26 229.76q-.8.28-1.36-.19M190.36 243.15q.14 1.25-.28 1.35M181.92 232.58q-.71-.2-.96-.95" vector-effect="non-scaling-stroke"/><path stroke="#7d5381" d="M172.14 227.81q-.28-.43-1.09-.53M171.06 232l-.17 1.51M172.16 234.01q-.43-.15-1.01-.13" vector-effect="non-scaling-stroke"/><path stroke="#7d61e3" d="M191.48 278.99q-.69-.12-1.23 0M189.91 278.45q.65-.61.51-1.06" vector-effect="non-scaling-stroke"/><path stroke="#f9b368" d="m172.2 250.85-.53.88M114.45 251.88q-.13.55-.47.89" vector-effect="non-scaling-stroke"/><path stroke="#7d61e3" d="M152.83 240.27q-.6-.06-.84.06M162.41 270.65q-.24.57-.84.42-.29-.07-.42-.36" vector-effect="non-scaling-stroke"/><path stroke="#7d5381" d="m161.15 270.71-.65-.97" vector-effect="non-scaling-stroke"/><path stroke="#7d61e3" d="m130.6 258.44-.69.58" vector-effect="non-scaling-stroke"/><path stroke="#f9b368" d="M165.71 258.43q-.2.39-.78.49M146.1 264.11q-.95.16-.74.65" vector-effect="non-scaling-stroke"/><path stroke="#7d61e3" d="M181.86 264.94q-1.06.07-.81.5.37.66.82 1.24M190.53 294.71q-.13 1.04.98 1.31" vector-effect="non-scaling-stroke"/><path stroke="#f9b368" d="M191.5 313.56q-.79.16-1.05-.05" vector-effect="non-scaling-stroke"/><path stroke="#7d61e3" d="M189.83 312.68q.36-.34.59-.97" vector-effect="non-scaling-stroke"/><path stroke="#f9b368" d="M180.74 265.24q-.71-.92-.7-1.25" vector-effect="non-scaling-stroke"/><path stroke="#7d61e3" d="M140.05 272.26q-.06.36-.34.64" vector-effect="non-scaling-stroke"/><path stroke="#f9b368" d="M161.15 270.71q-.15.24-.13.37" vector-effect="non-scaling-stroke"/><path stroke="#7d61e3" d="m181.76 299-.48.42q-.39.33-.15.79l.28.51" vector-effect="non-scaling-stroke"/><path stroke="#f9b368" d="m181.41 300.72-.55-.26" vector-effect="non-scaling-stroke"/><path stroke="#7d61e3" d="M172.15 302.35q-.53-.28-.94-.04M171.21 302.31l-.06-1.85M166.89 294.22q-.61-.57-1.8-.77" vector-effect="non-scaling-stroke"/><path stroke="#f9b368" d="M164.64 293.09q.91-.19 1.19-.58M170.49 285.2l-.23-1.17M162.45 280.85q-.27-.38-.95-.29M154.81 277.98q-.21.71-.94.69" vector-effect="non-scaling-stroke"/><path stroke="#7d5381" d="M181.91 301.1q-.08.3-.5-.38" vector-effect="non-scaling-stroke"/><path stroke="#f9b368" d="M181.92 316.47q-.18.15-1.02.09" vector-effect="non-scaling-stroke"/><path stroke="#7d5381" d="M172.18 319.35q-.3.19-.64.18M179.83 332.27l1.02 1.28" vector-effect="non-scaling-stroke"/><path stroke="#7d61e3" d="M180.85 333.55q.01.22.01.43" vector-effect="non-scaling-stroke"/><path stroke="#f9b368" d="M191.5 329.24q-.76.22-1.01-.23M191.5 364.54l-1.16.11" vector-effect="non-scaling-stroke"/><path stroke="#7d61e3" d="M190.34 364.65q-.27-.95.15-1.43M181.88 350.64q-.33.28-.95.28" vector-effect="non-scaling-stroke"/><path stroke="#f9b368" d="m180.85 333.55.68-.55" vector-effect="non-scaling-stroke"/></g><path fill="#f9a406" fill-opacity=".996" d="M35.5 0q.86.37 1.54 1.17.39.46.96.68L50.68 6.8q.54.22.22-.27L46.55 0h1.17l5.62 8.2q-.57.69-.68.56-7.42-3.1-15.15-6.01Q35.79 2.1 34.97 0z"/><path fill="#f8c1ca" fill-opacity=".996" d="m59.36 0 9.4 13.78q-1.45-.01-.85.44L58.48 0q.44-.01.88 0"/><path fill="#0101fb" fill-opacity=".996" d="m75.39 0 .05 6.23q-.28.11-.78.06L74.62 0z"/><path fill="#f9a406" fill-opacity=".996" d="m82.82 0 5.19 7.5q.34.49.91.71l13.11 5.12q.65.25.25-.33L93.98.86q-.22-.32.1-.54l.27-.19a.23.23 0 0 1 .32.06l18.48 27.02q-.45.23-.7.65l-7.93-11.51-1.02-1.26q-6.51-2.67-13.21-5.3-2.13-.84-3.45-2.45-2.77-3.4-4.98-7.34z"/><path fill="#f8c1ca" fill-opacity=".996" d="m106.24 0 5.85 8.49q-.08.7-.58.84L105.16 0z"/><path fill="#f9a406" fill-opacity=".996" d="m114.03 0 .11 12.22q-.41-.09-.94-.03l-1.69-2.86q.5-.14.58-.84l.68 1.01q.38.56.38-.11l.01-9.39z"/><path fill="#f8c1ca" fill-opacity=".996" d="m75.44 6.23 9.77 14.28q-1.14 1.39-.1 1.95l.01 7.52a1.01 1.01 0 0 0 .63.92l7.21 2.88q.84 1.1 1.8.74l9.78 14.32q-.83.07-1.15.28l-.81-1.38-7.42-10.92q-.13-.48-1.28-1.46l-8.05-3.37q-.48-.2-.52.32l-.24 3.59-.82-.62-.13-3.35q-.02-.52-.51-.72l-3.93-1.53q-.51-.5-.2-1.18l4.09 1.48q.5.18.49-.35l-.13-8.86q-.23-.96-.65-1.33L74.66 6.29q.5.05.78-.06"/><path fill="#0101fb" fill-opacity=".996" d="M62.88 22.05q.06.3-.63.7L52.66 8.76q.11.13.68-.56zM123.88 25.83q-.02.2-.97.17l.02-17.03a.24.24 0 0 1 .27-.24l.34.03q.28.03.28.32z"/><path fill="#f8c1ca" fill-opacity=".996" d="M114.14 12.22v17q-.52-.17-.96.01-.25-.78-.73-1.37.25-.42.7-.65l.05-15.02q.53-.06.94.03"/><path fill="#f9a406" fill-opacity=".996" d="m68.76 13.78 14.52 5.66q.42.37.65 1.33l-16.02-6.55q-.6-.45.85-.44"/><path fill="#0101fb" fill-opacity=".996" d="m104.52 16.35.08 14.79q0 .51.28.93l8.3 12.15.03 1.33q-.06-.01-.09.29l-9.22-13.53q-.28-.42-.29-.93l-.11-16.29zM85.21 20.51l9.55 14.01q-.96.36-1.8-.74l-7.85-11.32q-1.04-.56.1-1.95"/><path fill="#f9a406" fill-opacity=".996" d="M79.48 28.5q-.31.68.2 1.18l4.25 6.11q.34.49.33-.11l-.01-.4.82.62q.56 3.02 3.41 6.05-.51.72-1.03.97-4.29-6.39-8.56-12.81-.64-.96-1.63-.82l-.97-.77-14.04-5.77q.69-.4.63-.7z"/><path fill="#0101fb" fill-opacity=".996" d="M133.52 39.73q-1.11.31-.95-1.19l-.05-15.31a.3.29-89.1 0 1 .3-.3h.32q.28 0 .29.28z"/><path fill="#f9a406" fill-opacity=".996" d="M61.69 31.9q.19.54-.01.68l-15.8-5.83a.46.46 0 0 1-.27-.6l.11-.28a.19.18-68 0 1 .25-.11z"/><path fill="#f8c1ca" fill-opacity=".996" d="m123.88 25.83 8.69 12.71q-.16 1.5.95 1.19l-.04 17.21q-.47.04-.66.28l-.31-16.06a3.26 3.2 28 0 0-.56-1.78L122.91 26q.95.03.97-.17M76.29 28.52l.97.77-15.58 3.29q.2-.14.01-.68z"/><path fill="#f9a406" fill-opacity=".996" d="m114.14 29.22.02 16.34-.95-.01-.03-1.33V29.23q.44-.18.96-.01"/><path fill="#0101fb" fill-opacity=".996" d="M95.16 36.82q-.6.39-.31.69-.04 3.34.05 6.8.01.51.48.68l7.2 2.75.81 1.38-7.77-2.95q-.7-.27-.7.48l-.02 22.38-1.03.09-.06-17.06q.23-.94-.12-2 .44-2.08.08-4.11-.09-.51-.58-.68l-3.54-1.21q-1.53-.5-1.15-1.83l4.76 1.87q.51.2.52-.35l.1-8.39q1.15.98 1.28 1.46"/><path fill="#f9a406" fill-opacity=".996" d="M151.82 66.61q.1.63-.35 1.24l-8.76-12.87a3.17 3.11-62.6 0 1-.55-1.78l-.01-15.81q0-.29.29-.29h.37q.36-.01.36.36v15.76a2.45 2.4 28.4 0 0 .42 1.36z"/><path fill="#f8c1ca" fill-opacity=".996" d="M88.5 42.23q-.38 1.33 1.15 1.83l4.04 6q.35 1.06.12 2l-6.36-9.14q.52-.25 1.03-.97-.29-.07.02.28M113.21 45.55l.95.01.03 17.55-1.03.1q-.01-.05-.01-.1l.02-1.65-.05-15.62q.03-.3.09-.29"/><path fill="#0101fb" fill-opacity=".996" d="m104.54 48.84 8.63 12.62-.02 1.65-8.29-12.12a.24.24 0 0 0-.44.14l.02 14.66-.97.11-.08-16.78q.32-.21 1.15-.28"/><path fill="#f8c1ca" fill-opacity=".996" d="M127.01 64.59q-.16.56-.46.63-.13-.02-.26-.05-.09-.01-.15-.09l-9.29-13.58q-.28-.41.17-.62l.23-.11a.29.29 0 0 1 .37.1zM152.83 68.3q-.54.12-1.01-.01l-.35-.44q.45-.61.35-1.24l.01-15.22a.27.27 0 0 1 .26-.27l.28-.01q.45-.01.45.44z"/><path fill="#0101fb" fill-opacity=".996" d="m133.48 56.94 9.71 14.14q-.67.9-.98.6l-15.66-6.46q.3-.07.46-.63l13.65 5.29q.48.18.2-.25l-8.04-12.41q.19-.24.66-.28M88.28 76.5q-.17.4-.5.5l-9.57-13.54a.31.31 0 0 1 .06-.42l.22-.18q.32-.26.55.08zM114.19 63.11l-.04 17.17-1.04-.2q-.16-1.11-.02-1.7l.07-15.17zM171.21 95q.17.83.01 1.79l-9.36-13.71a2 1.99-62.3 0 1-.35-1.13l.02-16.44q0-.27.27-.26l.43.02q.24.01.24.25l.01 16.18q0 .61.34 1.1z"/><path fill="#f9a406" fill-opacity=".996" d="m104.44 65.79 8.65 12.59q-.14.59.02 1.7l-9.64-14.18z"/><path fill="#0101fb" fill-opacity=".996" d="m152.83 68.3-.02 16.94q-1.12.55-.97-1.6l-.02-15.35q.47.13 1.01.01"/><path fill="#f9a406" fill-opacity=".996" d="m94.9 69.03 9.39 13.69q-.41.39-.59.73l-.48.09q-.28-.35-.52-.34.23-2.03-.07-1.1l-8.76-12.98zM143.19 71.08l8.65 12.56q-.15 2.15.97 1.6l.01 17.48q-.71-.15-.97.07-4.55-6.75-9.16-13.49-.7-1.02-.61-3.03c.2-4.82.05-9.69.13-14.59q.31.3.98-.6m8.16 29.27a.31.31 0 0 0 .56-.18l-.09-14.46a.3.3 0 0 0-.05-.17L143.7 73.6a.31.31 0 0 0-.56.17l.08 14.43a.3.3 0 0 0 .05.17z"/><path fill="#f8c1ca" fill-opacity=".996" d="m88.28 76.5 14.35 5.6q.3-.93.07 1.1L87.78 77q.33-.1.5-.5"/><path fill="#f9a406" fill-opacity=".996" d="M172.11 96.79q-.49-.23-.89 0 .16-.96-.01-1.79l-.03-15.38q0-.19.19-.19h.29q.45 0 .45.45z"/><path fill="#f8c1ca" fill-opacity=".996" d="m114.15 80.28.03 33.13q-.8-.11-.99-.84l-.02-15.16-.02-1.81-.04-15.52z"/><path fill="#0101fb" fill-opacity=".996" d="m113.15 95.6.02 1.81-8.72-12.65q-.64-.27-.75-1.31.18-.34.59-.73z"/><path fill="#f8c1ca" fill-opacity=".996" d="M103.7 83.45q.11 1.04.75 1.31.08 7.73.08 15.21 0 .39.38.61-.33.46-.97.71l-.72-17.75zM11.94 101.75q-.01.34-.71.73L1.76 88.56q-.12-.18.06-.3l.4-.28q.2-.13.33.06z"/><path fill="#f9a406" fill-opacity=".996" d="m181.8 110.61-.9.25.02-17.06q0-.35.35-.29l.31.06q.2.03.2.24z"/><path fill="#0101fb" fill-opacity=".996" d="M28.03 108.21q-.38.73-.79.4-.49-.38-1.11-1.38l-8.38-12.28a.37.37 0 0 1 .09-.52l.26-.18q.25-.18.42.07z"/><path fill="#f8c1ca" fill-opacity=".996" d="m172.11 96.79.04 16.85q-.22.36-.63.29l-.3-17.14q.4-.23.89 0M60.07 120.89q-.47.46-.82.45l-15.01-5.89a3.65 3.63-6.3 0 1-1.67-1.33l-8.91-13.07q-.22-.33.1-.57l.25-.19q.22-.17.38.06l9.17 13.42q.31.45.81.65l12.93 5.03q.87.33.34-.43l-8-11.7q-.25-.36.13-.59l.24-.14q.18-.11.31.07z"/><path fill="#0101fb" fill-opacity=".996" d="M113.19 112.57q.19.73.99.84l.29 1.36q-.37.11-.22.96l-.01 15.87q-.32.21-.72.19l-.42-16.57q-.01-.49-.29-.9l-8.87-13.03q.64-.25.97-.71z"/><path fill="#f9a406" fill-opacity=".996" d="M26.13 107.23q.62 1 1.11 1.38.41.33.79-.4-.09.39.27.36-.8.89-.78.49l-16.29-6.58q.7-.39.71-.73z"/><path fill="#0101fb" fill-opacity=".996" d="M152.82 102.72v16.87l-.95.21-.02-17.01q.26-.22.97-.07"/><path fill="#f9a406" fill-opacity=".996" d="M130.73 121.49q-.49.13-.65.59l-15.83-6.35q-.15-.85.22-.96l13.62 5.36q.69.28.28-.34l-8.12-11.92a.32.32 0 0 1 .08-.44l.26-.17a.33.32 55.4 0 1 .46.09z"/><path fill="#0101fb" fill-opacity=".996" d="M165.86 121.4q-.32.18-.43.76-.2-.31-.51-.5-.28-.17-.47-.44l-8.97-13.18a.39.38-28.1 0 1 .18-.58l.32-.13q.22-.08.35.12zM191.53 125.22l-1.04-.5q-.27-1.21.02-1.4l.06-15.36q0-.24.24-.23l.39.03q.26.02.27.29z"/><path fill="#f8c1ca" fill-opacity=".996" d="m28.3 108.57 9.05 13.13q.28.42.75.6l29.66 11.56.46 1.36-12.96-5.02q-.6-.24-.24.29L62.89 142q.34.49.89.71l13.72 5.4q.67 1.24 1.77.85l9.45 13.87-.79.49-9.07-13.27q-.32-.46-.83-.66l-14.77-5.79a2.56 2.52 83 0 1-1.15-.91q-4.23-6.17-8.7-12.72-.16-.23-.38-.34-.28-.15-.49-.22-.3-.71-1.14-.74l-13.31-5.23a3.95 3.93-6.2 0 1-1.85-1.48l-8.72-12.9q-.02.4.78-.49M181.8 110.61l8.71 12.71q-.29.19-.02 1.4l-.14.04-9.45-13.9z"/><path fill="#f9a406" fill-opacity=".996" d="m75.89 126.78-.72.7-9.61-14.03q-.14-.19.06-.33l.35-.26q.24-.17.4.07z"/><path fill="#0101fb" fill-opacity=".996" d="M146.31 127.19q.08.39-.35.9l-9.69-13.94q-.27-.38.11-.64l.24-.17q.16-.1.27.05z"/><path fill="#f9a406" fill-opacity=".996" d="m172.15 113.64 10.18 14.84-.34 1.36-.11 15.01q-.26.07-.6.45-.42-.22-.43-.59-.1-4.76.04-15.4 0-.63-.28-.96-.34-.4-.9-.61.21-.47.21-.93l-8.4-12.88q.41.07.63-.29"/><path fill="#0101fb" fill-opacity=".996" d="M91.82 133.46q-.21.35-.61.37l-16.04-6.35.72-.7 13.68 5.28q.52.19.21-.26l-8.16-11.95q-.14-.2.01-.4l.21-.29q.25-.34.49.01z"/><path fill="#f9a406" fill-opacity=".996" d="m152.82 119.59 9.74 14.19q-.86 1.03-.2 1.59l.08 8.28-.79-.43-.12-8.02a1.52 1.52 0 0 0-.97-1.39l-14.6-5.72q.43-.51.35-.9l13.74 5.29q.48.18.19-.24l-8.37-12.44zM60.07 120.89l9.47 13.79q-.81.33-.72.75-.36-.02-.6-.21l-.46-1.36-8.51-12.52q.35.01.82-.45"/><path fill="#f8c1ca" fill-opacity=".996" d="m130.73 121.49 9.33 13.65q-.01.5-.14.81l-9.84-13.87q.16-.46.65-.59M165.86 121.4l14.06 5.41q0 .46-.21.93l-14.28-5.58q.11-.58.43-.76"/><path fill="#f9a406" fill-opacity=".996" d="m190.49 124.72 1.04.5-.02 33.58q-.84-.24-1.1-1.41.2-7.46.01-14.69c-.01-.54-.22-.87-.5-1.29l.5-1.07-.07-15.58z"/><path fill="#f8c1ca" fill-opacity=".996" d="M107.7 139.2q-.11.48-.42.56l-9.72-13.72a.43.42 62.3 0 1 .2-.65l.24-.09q.17-.06.27.09z"/><path fill="#f9a406" fill-opacity=".996" d="M36.78 132.26q-.05.47-.13.57l-16.08-5.91a.4.39 27.6 0 1-.19-.59l.15-.24q.09-.14.24-.08z"/><path fill="#f8c1ca" fill-opacity=".996" d="m190.42 140.34-.5 1.07-7.93-11.57.34-1.36z"/><path fill="#0101fb" fill-opacity=".996" d="M51.4 128.67q.84.03 1.14.74l-15.89 3.42q.08-.1.13-.57z"/><path fill="#f8c1ca" fill-opacity=".996" d="m114.24 131.6 19.09 27.93q-.59.61-.62 1.17-.24-.12-.3-.24-.48-.38-.91-.5.36-1.28.04-1.32l-7.56-11.02q-.1-.53-1.01-.93-.21-.59-.97-.9.13-.7-.11-1.07l-8.37-12.93q.4.02.72-.19"/><path fill="#f9a406" fill-opacity=".996" d="M122.97 146.69q.91.4 1.01.93l-.11 7.51q-.01.53.49.72l7.18 2.79q.32.04-.04 1.32l-7.01-2.75q-.7-.27-.67.47.06 1.57-.03 3.16-.09 1.49 1.24 3.44 1.09 1.62 2.21 3.17-.42.62-.99.8l-8.7-13a1.65 1.64 66.6 0 0-1.73-.69l-14.29 3.27a4.1 4.05 49.2 0 1-2.41-.19l-14.82-5.85q-.15-.06-.09-.22l.1-.27a.49.49 0 0 1 .64-.28l15.1 5.86q.46.18.95.07l13.34-3.11q1.05-.24.05-.63l-12.82-5.02a2.76 2.76 0 0 1-1.27-1.01l-9.09-13.35q.4-.02.61-.37l9.43 13.26q.27.38.7.55l20.11 7.85q.82.32.83-.56zm-.5 14.13q.43.64.42-.12l-.05-3.46q-.01-.66-.62-.92l-3.03-1.29q-.84-.36-.33.4z"/><path fill="#f8c1ca" fill-opacity=".996" d="M181.84 162.01q-.78.36-1.54.33l-.28-.16q.28-.53-.16-1.23l-7.32-10.63q-.31-.46-.31.09l-.04 6.62q-.43.11-1.01 0l-.16-8.77q-.56-1.38-.9-1.53l-7.76-11.36q-.66-.56.2-1.59z"/><path fill="#0101fb" fill-opacity=".996" d="m69.54 134.68 9.73 14.28q-1.1.39-1.77-.85l-8.68-12.68q-.09-.42.72-.75M161.65 143.22l.79.43 7.68 3.08q.34.15.9 1.53l-8.59-3.27q-.31.34-1.07-.32-1.97-1.16-4.21-1.62l-3.43-1.36-13.8-5.74q.13-.31.14-.81zM139.06 145.15q.07.51-.12.69l-15.73-5.88q-.34-.12-.21-.46l.11-.28q.1-.27.37-.16z"/><path fill="#f9a406" fill-opacity=".996" d="M121.89 144.72q.24.37.11 1.07l-14.72-6.03q.31-.08.42-.56zM153.72 141.69l3.43 1.36 4 5.52q.36.5.34-.12l-.13-3.78q.76.66 1.07.32c.08 2.33-.36 4.96.92 6.86q.92 1.38 1.87 2.73c1.23 1.74 3.7 2.07 5.52 2.99q.34.17.42-.2.03-.15.02-.34.58.11 1.01 0-.07.41.08.73.12.26.51.43 3.37 1.51 7.08 2.76.44.7.16 1.23-3.71-1.39-7.34-2.92-.26-.11-.38-.02-.15.1-.17.42-.13-.43-.94-.16-.09-.7-.58-.94-1.28-.64-3.84-1.56-.74-.33-1.61-.39l-9.05-13.46a1.4 1.4 0 0 0-1.46-.59l-15.71 3.28q.19-.18.12-.69z"/><path fill="#0101fb" fill-opacity=".996" d="m181.88 144.85 8.53 12.54q.26 1.17 1.1 1.41l-.01 34.43q-1.05-.02-.98-1.37l.03-14.7q0-.51-.29-.93l-8.06-11.82q-.31-.45-.31.1l.03 14.78q-.37-.13-1.04.11-.12-8.2.01-16.13.01-.78-.59-.93.76.03 1.54-.33l8.12 11.91q.56.82.56-.17l-.01-13.57q0-.81-.45-1.5l-8.78-13.38q.34-.38.6-.45M166.77 157l4.42 6.47v1.77l-6.03-8.63q.87.06 1.61.39M143.07 173.77q-.19.83-.86.84l-8.64-3.41q-.56.03-1.25-.43-1.73-1.1-3.57-1.44-.5-.09-.22.33l3.86 5.66q-.01 1.2 1.13 1.25l-.03 3.64q.23-.37-.59-.11l-.49-2.58q-.09-.48-.37-.88l-5.79-8.39q.57-.18.99-.8l5.25 1.93 1.13.47 6.89 2.93q.54.23.21-.26l-7.18-10.73q-.43-.34-.83-1.09.03-.56.62-1.17z"/><path fill="#f8c1ca" fill-opacity=".996" d="m172.13 159.66.03 5.57q-.51-.08-.97.01v-5.74q.81-.27.94.16"/><path fill="#f9a406" fill-opacity=".996" d="M132.71 160.7q.4.75.83 1.09l.08 8.06-1.13-.47-.08-8.92q.06.12.3.24M88.72 162.83l44.18 17.27q.82-.26.59.11l4.02 1.72q-.21.5.44 1.22l4.21 6.2 1.03.21q-.18.82.12 1.35.69 1.18 2.98 4.57l-.86.92-8.71-13.05a1.16 1.15-12.2 0 0-.78-.5q-1.05-.17-2.35.48l-.96.22-5.49 1.26-.98.25q-1.79.05-3.51.76-.53.22 0 .44l5.98 2.53q.66 1.62 1.88.94l2.09 2.69q-.06.1.19.3.07.2.22.31.03.4.44.69l6.68 9.87q-.63.36-1.36.21l-8.24-12.34q-.68-1.03-1.83-1.48l-24.08-9.4a1.2 1.19 32.2 0 0-1.3.29l-11.13 11.6q.08-.36-.45-.6l9.97-10.88q.34-.37-.16-.26l-14.6 3.23q-.19-.93.08-.97l16.76-3.9q.23 1.54 1.87.8l6.38 2.43q.58.23.23-.29l-2.08-3.06q.77-.13 1.04-.42c1.25 2.06 2.59 4.56 4.91 5.28q1.14.36 2.28.86c2.04.91 4.88.01 6.89-.71l1.01-.28 6.33-1.46q.43.18.87-.2.36-.31-.04-.57-.3-.2-.95-.01l-10.69-4.52-3.34-1.27-12-4.64q-.52-.2-.21.26l4.14 6.13-.99.39-5.32-7.69-1.29-.61-14.9-6.19z"/><path fill="#0101fb" fill-opacity=".996" d="m172.16 165.23-.01 16.91q-.39.19-.63.13l-.33-17.03q.46-.09.97-.01"/><path fill="#f8c1ca" fill-opacity=".996" d="M87.84 172.93q.11.2.12.87-.08-.19-.48-.14-.3.05-.58-.06l-15-5.87q-.46-.18-.17-.58l.2-.26q.08-.11.21-.06z"/><path fill="#0101fb" fill-opacity=".996" d="m104.12 170.12-16.16 3.68q-.01-.67-.12-.87l14.99-3.42z"/><path fill="#f8c1ca" fill-opacity=".996" d="M71.06 176.74q-.12.63-.05 1.06l-16.63 3.53q.12-.29.04-.75l14.09-3.33q.73-.17.03-.44l-13.28-5.21a.3.29 16.2 0 1-.18-.32l.05-.32q.06-.37.41-.23z"/><path fill="#f9a406" fill-opacity=".996" d="m133.57 171.2-.05 5.37q-1.14-.05-1.13-1.25l-.07-4.55q.69.46 1.25.43"/><path fill="#f8c1ca" fill-opacity=".996" d="M162.34 202.02q-.22.62-.7 1.21-.06-.14-.11-.29l-7.64-3.21q-1.03-.43-1.03.68l-.03 7.37a1.36 1.36 0 0 0 .88 1.27l3.53 1.32-.07.93 4.76 7q.34.08.49.32l3.36 5.28-1.1.69q-4.38-6.53-8.73-13.09-.58-.89-1.47-.44-.79-1.06-1.91-1.09l-10.84-4.7q-.72-.31-.29.35l4.09 6.23q-.47-.02-1.04.23-.49-1.26-1.37-1.93-.19-.65-.93-.98.33-.14.15-.44-.24-.38-.6-.24-.01-.12-.01-.25.27-.22.07-.51-.2-.28-.52-.42l-2.51-3.51q.73.15 1.36-.21l11.16 4.41q.49.19.56-.32.16-1.22-.13-2.38.34-.74.17-1.51l-.12-4.24q-.02-.52-.51-.72l-3.84-1.51q-.67-.41-1.45-.34l-.54-.58.86-.92q2.21 1.43 4.93 2.08.6.14.6-.48l.02-7.78a.99.98 11.2 0 0-.63-.93l-7.43-2.93q-.51-.2-.52.35l-.07 3.77-1.03-.21-.03-3.87a.81.8 11.7 0 0-.49-.74l-3.69-1.59q-.65-.72-.44-1.22l4.23 1.65q.43.17.43-.29l.04-8.68q.67-.01.86-.84zm-11.73-15.44-6.93-10.08q-.51-.75-.51.16v6.87a.88.88 0 0 0 .56.82l6.62 2.55q.66.26.26-.32m9.86 14.48-7.23-10.61q-.39-.57-.38.12v7.12a.88.88 0 0 0 .56.82l6.9 2.73q.37.15.15-.18"/><path fill="#0101fb" fill-opacity=".996" d="M54.42 180.58q.08.46-.04.75-.11.06-.25.1-.16.05-.32-.01l-15.3-5.96a.37.37 0 0 1-.2-.49l.1-.23q.13-.32.45-.19zM118.5 175.67l3.34 1.27 4.48 6.76-1.01.28-4.56-6.63a1.71 1.7 65.7 0 0-1.81-.69l-7.71 1.89q-.27.29-1.04.42-2.21-.15-4.53.92-1.64.74-1.87-.8l5.65-1.28.99-.39z"/><path fill="#f8c1ca" fill-opacity=".996" d="M165.5 189.62q-.23.35-.78.47l-9.19-13.48q-.2-.29.12-.45l.33-.17q.2-.1.32.08z"/><path fill="#0101fb" fill-opacity=".996" d="M87.03 182.99q-.27.04-.08.97l-15.94-6.16q-.07-.43.05-1.06z"/><path fill="#f9a406" fill-opacity=".996" d="m181.92 179.29 8.6 12.57q-.07 1.35.98 1.37v34.32q-.65-.5-1.08-1.53l-.22-15.88.11-1.42.22.14q.03.01.03-.02-.13-7.46-.11-14.75.01-.54-.3-.99l-9.27-13.7q.67-.24 1.04-.11"/><path fill="#0101fb" fill-opacity=".996" d="m132.65 182.24-.12-.78q.65-.19.95.01.4.26.04.57-.44.38-.87.2"/><path fill="#f9a406" fill-opacity=".996" d="m172.15 182.14 9.81 14.35q-1.48 1.09-1.04.44l-16.2-6.84q.55-.12.78-.47l13.86 5.4q.48.19.19-.25-3.89-5.82-7.83-11.48-.19-.27-.2-1.02.24.06.63-.13"/><path fill="#0101fb" fill-opacity=".996" d="M133.59 183.33q-.2 4.54.04 9.17.02.43-.84.22-.25-.2-.19-.3l.03-8.87zM127.14 184.81l3.37 4.92q-1.22.68-1.88-.94l-2.47-3.73z"/><path fill="#f8c1ca" fill-opacity=".996" d="M127.04 201.76q-.08.28-.64.74l-9.52-13.86q-.23-.33.1-.55l.23-.16a.32.31 55.8 0 1 .44.09z"/><path fill="#0101fb" fill-opacity=".996" d="M91.74 191.87q.53.24.45.6l-16.44 4.05q-.19.05-.24-.14l-.07-.29q-.1-.47.36-.57zM133.45 193.72q-.41-.29-.44-.69.06-.04.13-.08.14-.08.24.02.4.39.07.75"/><path fill="#f8c1ca" fill-opacity=".996" d="m181.96 196.49 8.35 12.23-.11 1.42-8.03-11.55q-.28-.4-.28.09l-.03 14.75q-.35.48-.82.66l-.12-17.16q-.44.65 1.04-.44"/><path fill="#0101fb" fill-opacity=".996" d="m147.42 197.32 4.47 6.47q.17.77-.17 1.51l-5.75-8.32q.78-.07 1.45.34M141.28 207.31q.32.14.52.42.2.29-.07.51l-15.33-5.74q.56-.46.64-.74zM172.04 216.23q-.8.93 0 1.77l.08 8.51q-.15-.23-.81-.37l-.19-9.09q-.33-1.08-.84-1.61l-7.7-11.22q-.53-.23-.94-.99.48-.59.7-1.21z"/><path fill="#f9a406" fill-opacity=".996" d="M161.64 203.23q.41.76.94.99l.04 7.59q.01.52.49.72l7.17 2.91q.51.53.84 1.61l-8.1-3.14q-.48-.19-.49.33l-.11 4.38q-.15-.24-.49-.32-.65-2.26-.4-4.44a.91.91 0 0 0-.54-.94l-3.82-1.62.07-.93 3.85 1.55a.28.28 0 0 0 .39-.26l.05-8.72q.05.15.11.29"/><path fill="#0101fb" fill-opacity=".996" d="M139.16 213.68q.14.33-.05.81-.11.06-.23.12-.03.02-.07 0-7.76-2.99-15.48-6.01-.34-.14-.21-.48l.1-.24a.36.36 0 0 1 .47-.21zM142.19 209.17q-.3-.25-.45-.68.36-.14.6.24.18.3-.15.44"/><path fill="#f9a406" fill-opacity=".996" d="M143.12 210.15q-.06 1.27.25 2.22a.54.53 65.6 0 0 .78.3q.4-.24.34-.59.57-.25 1.04-.23 3.34.24 7.04-1.88 1.12.03 1.91 1.09-.78.15-1.27.57-.35.29-.35.73-.03 13.52.01 27.02 0 .12-.09.21-.04.05-.08.09-.46-.04-.9.08l-.22-.27q.33.35.29-1.35l-.05-15.42q.62-.45.08-1.68l-.08-8.56q0-.5-.5-.47-2.42.19-4.75 1.19l-1.09.22q-1.2-.2-1.92.4-.4.32-.4.84l.07 10.82q-.2.24-.85.5l-.24-11.38q-.01-.47-.49-.42l-2.54.31q.19-.48.05-.81l2.44-.68q.49-.14.51-.65l.08-3.18q.74.33.93.98"/><path fill="#f8c1ca" fill-opacity=".996" d="m146.57 213.2 5.33 7.84q.54 1.23-.08 1.68l-6.34-9.3z"/><path fill="#0101fb" fill-opacity=".996" d="m181.86 213.43 8.56 12.59q.43 1.03 1.08 1.53l.01 17.14q-1.33-.13-.98-1.41l-.08-14.37a3.69 3.65-62.6 0 0-.65-2.09l-8.76-12.73q.47-.18.82-.66"/><path fill="#f8c1ca" fill-opacity=".996" d="m172.04 216.23 9.22 13.53q-.8.28-1.36-.19L172.04 218q-.8-.84 0-1.77"/><path fill="#f9a406" fill-opacity=".996" d="m165.78 223.9 5.53 2.24q.66.14.81.37l7.78 3.06q.56.47 1.36.19l9.1 13.39q.14 1.25-.28 1.35l-8.16-11.92q-.71-.2-.96-.95-3.36-2.31-8.82-3.82-.28-.43-1.09-.53l-3.52-1.32q-.6-.22-.25.31l3.78 5.73-.17 1.51-6.21-8.92z"/><path fill="#f8c1ca" fill-opacity=".996" d="m143.23 225.48 8.64 12.66q.04 1.7-.29 1.35l-9.2-13.51q.65-.26.85-.5"/><path fill="#0101fb" fill-opacity=".996" d="m172.14 227.81.02 6.2q-.43-.15-1.01-.13-.13-.18-.26-.37l.17-1.51-.01-4.72q.81.1 1.09.53"/><path fill="#f8c1ca" fill-opacity=".996" d="M180.96 231.63q.25.75.96.95l-.06 14.59q0 .61.35 1.12l7.89 11.59q.44.65.44-.14-.02-7.37-.03-14.09 0-.34-.15-.65-.14-.29-.28-.5.42-.1.28-1.35l.17.13q-.35 1.28.98 1.41l-.03 34.3q-.69-.12-1.23 0-.15-.35-.34-.54.65-.61.51-1.06.18-6.29.05-12.39-.05-2.65-.57-3.43-4.35-6.59-8.74-13.14-.28-.42-.28-.93z"/><path fill="#f9a406" fill-opacity=".996" d="m172.16 234.01.04 16.84-.53.88c-.26-.47-.47-.73-.48-1.31q-.04-8.27-.04-16.54.58-.02 1.01.13M114.45 251.88q-.13.55-.47.89l-9.65-13.96a.47.47 0 0 1 .12-.66l.25-.17q.16-.11.27.05z"/><path fill="#f8c1ca" fill-opacity=".996" d="M152.7 239.68q-.04.77.13.59-.6-.06-.84.06-.24-.22-.19-.57.44-.12.9-.08"/><path fill="#0101fb" fill-opacity=".996" d="m152.83 240.27.2 16.22q.01.5.29.91l9.09 13.25q-.24.57-.84.42-.29-.07-.42-.36l-.65-.97-7.86-11.33a3.84 3.84 0 0 1-.68-2.15l-.18-15.41q0-.14.07-.27.07-.12.14-.25.24-.12.84-.06"/><path fill="#f8c1ca" fill-opacity=".996" d="m130.6 258.44-.69.58-15.93-6.25q.34-.34.47-.89l13.67 5.27q.56.21.22-.28l-8.17-12.03q-.11-.15.05-.26l.25-.18q.35-.24.59.1zM165.71 258.43q-.2.39-.78.49l-9.42-13.84q-.15-.22.07-.36l.34-.2q.2-.13.33.07zM146.1 264.11q-.95.16-.74.65l-9.21-13.69q-.13-.2.06-.35l.27-.2q.26-.2.45.07zM181.86 264.94q-1.06.07-.81.5.37.66.82 1.24l.09 14.82q0 .51.28.93l8.29 12.28q-.13 1.04.98 1.31l-.01 17.54q-.79.16-1.05-.05l-.62-.83q.36-.34.59-.97l-.02-14.94q0-.46-.26-.85l-8.98-13.15q-.27-.39-.27-.86l-.15-16.67q-.71-.92-.7-1.25l-8.37-12.26.53-.88z"/><path fill="#0101fb" fill-opacity=".996" d="m130.6 258.44 9.45 13.82q-.06.36-.34.64l-9.8-13.88z"/><path fill="#f9a406" fill-opacity=".996" d="m165.71 258.43 14.33 5.56q-.01.33.7 1.25l-15.81-6.32q.58-.1.78-.49M146.1 264.11l14.4 5.63.65.97q-.15.24-.13.37l-15.66-6.32q-.21-.49.74-.65"/><path fill="#0101fb" fill-opacity=".996" d="m181.86 264.94 8.56 12.45q.14.45-.51 1.06l-8.04-11.77q-.45-.58-.82-1.24-.25-.43.81-.5"/><path fill="#f8c1ca" fill-opacity=".996" d="M162.41 270.65 181.76 299l-.48.42q-.39.33-.15.79l.28.51-.55-.26q.05-.33-.09-.61-.1-.23-.43-.36-3.92-1.6-7.8-3.15-.4-.15-.4.27l.01 5.74q-.53-.28-.94-.04l-.06-1.85-.02-3.99q0-.54-.5-.74l-3.74-1.51q-.61-.57-1.8-.77-.32-.56-.45-.36.91-.19 1.19-.58l4.77 1.98q.63.25.61-.42-.09-4.1-.05-8.02 0-.3-.19-.53-.22-.28-.48-.32l-.23-1.17-7.53-11.13a.18.17-62.1 0 0-.32.1l.04 7.85q-.27-.38-.95-.29.1-4.39-.07-8.54-.01-.29-.12-.49-.13-.22-.29-.45-.02-.13.13-.37.13.29.42.36.6.15.84-.42m16.76 27.28a.31.31 0 0 0 .37-.47l-6.87-10a.31.31 0 0 0-.57.18l.11 7.28a.31.31 0 0 0 .19.29zM154.81 277.98q-.21.71-.94.69l-14.16-5.77q.28-.28.34-.64z"/><path fill="#f9a406" fill-opacity=".996" d="M153.87 278.67q.73.02.94-.69l6.69 2.58q.68-.09.95.29l7.81 3.18.23 1.17-7.49-2.85q-.64-.24-.58.44.12 1.46.03 3c-.15 2.43 1.93 4.82 3.38 6.72q-.28.39-1.19.58l-8.52-12.83q-.52-.78-1.44-.57l-14.72 3.36a3.24 3.17-39.8 0 1-1.9-.15l-14.84-5.82a.36.36 0 0 1-.21-.47l.11-.31a.29.29 0 0 1 .38-.16l15.03 5.85q.48.18.99.07zm3.89 1.54q-.75-.3-.3.36l3.5 5.14q.54.79.54-.16v-3.08q0-.77-.71-1.06z"/><path fill="#0101fb" fill-opacity=".996" d="m191.48 278.99.03 17.03q-1.11-.27-.98-1.31l-.28-15.72q.54-.12 1.23 0M166.89 294.22l4.26 6.24.06 1.85-6.12-8.86q1.19.2 1.8.77M181.76 299l8.66 12.71q-.23.63-.59.97l-7.92-11.58q-.08.3-.5-.38l-.28-.51q-.24-.46.15-.79z"/><path fill="#f9a406" fill-opacity=".996" d="M181.41 300.72q.42.68.5.38l.01 15.37q-.18.15-1.02.09l-.04-16.1z"/><path fill="#0101fb" fill-opacity=".996" d="m172.15 302.35.03 17q-.3.19-.64.18l-.33-17.22q.41-.24.94.04M179.83 332.27l1.02 1.28q.01.22.01.43l-14.76-5.84a3.84 3.82 83.5 0 1-1.74-1.39l-8.82-12.96q-.22-.31.1-.53l.24-.17q.27-.18.45.08l8.92 13.1q.46.66 1.21.94z"/><path fill="#f9a406" fill-opacity=".996" d="M191.5 313.56v15.68q-.76.22-1.01-.23l-.04-15.5q.26.21 1.05.05"/><path fill="#f8c1ca" fill-opacity=".996" d="m181.92 316.47 8.57 12.54q.25.45 1.01.23v35.3l-1.16.11q-.27-.95.15-1.43v-14.75a1.83 1.77-63.1 0 0-.32-1.03l-7.96-11.65q-.32-.47-.32.09l-.01 14.76q-.33.28-.95.28l-.07-16.94q0-.21-.01-.43l.68-.55 8.66 12.55q.34.49.34-.1l-.03-14.18a2.04 1.97 28.5 0 0-.36-1.14l-9.24-13.57q.84.06 1.02-.09"/><path fill="#f9a406" fill-opacity=".996" d="m172.18 319.35 9.35 13.65-.68.55-1.02-1.28-8.29-12.74q.34.01.64-.18"/><path fill="#0101fb" fill-opacity=".996" d="m181.88 350.64 8.61 12.58q-.42.48-.15 1.43l-9.41-13.73q.62 0 .95-.28"/><path fill="#f9a406" fill-opacity=".996" d="M191.5 364.54V382h-1.06l-.1-17.35z"/></svg>