<svg xmlns="http://www.w3.org/2000/svg" viewBox="0 0 382 382"><g fill="none" stroke="#7e0000" stroke-width="2"><path d="M30.84 1.74q-.79 1.02-1.35.5M35 .64l-.78.53M33.99 1.89l.73 1.2M34.89 3.8l-1.19.49M19.47 18.34q-.5.76-.05 1.69M20.43 28.75q.37.52.4 1.14M24.53 27.45l-.14-1.03M43.87 20.83q.97.18 1.42-.09M58.37 24.98q.89 1.23 1.42 2.98M60.7 28.79q.53.55 1.48.67M80.27 37.36q.78.15 1.4.67M84.96 40q.01.62-.52 1.02M80.31 39.25l-1.19.69M68.57 51.06q.24 1 1.19 1.54M79.01 76.75q-.29.59.12 1.67.21.53.61.13.59-.61.43-1.6M88.93 63.02q.45 1 .27 2.04M89.62 68.89q.47 1.2-.22 2.3M80.28 88.68q-.85.89-1.17.91M61.24 69.61q.64.15 1.04-.47M57.18 60.55q-.54.54-1.05.72M55.37 59.97l.94-.75M52.98 53.52q-.55.03-1.19.37M49.05 53.78q-.54-.58-.91-1.87M51.19 51.94q.72-.19 1.41 0M58.67 45.73q-.14-.83-1.61-.93M52.73 42.46q-.44-.65-1.45-.8M20.85 33.46q-.85.3-1.86.11M18.44 36.28q-.31.92-.77 1.18M13.54 35.41q.78-.17-.22-2.49M15.41 32.21q.83.45 1.55.18M18.46 32.18q.3.02.58-.18M19.17 30.97q.04-.38-.09-.74M17.17 16.07q.78-1.31.37-2.25-.22-.49-.69-.22-.98.55-1.59 1.29M1.7 15.54q-.6-.19-1.41.18M15 13.09q.98.57 1.26-.08M31.64 3.18q-.37-.13-.59-.02M10.28 2.1l-1.43-.65M10.02.56q.56.59 1.1.7M51.21 40.4q.23.52 1.37.53M36.95 1.6q-.1.42-.91.6M57.25 20.97q-1.06-.03-1.31.15M51.01 12.81l.33-1.44M75.23 1.84l-1.53.32M73.04 2.33q1.34.97 3 1.49M76.94 3.89q.64-.56 1.72-.15M81 4.84q-.01.18.23.53M82.05 5.16l-.41-1.08M80.79 3.1q.03-.75-.39-1.27M81.76 2.05q.17.95.77 1.06M83.46 4.29q-.11.71.32.97M89.54 5.07q.04.33.88.43M95.73 4.48q.01-.5-.72-.59M93.02 2.69l.03-1.42M99.06 2.52q-.17.41-.58.46-.33.04-.58-.21M97.73 2.87q2.05 1.96 3.73 2.44M106.79 7.84q.37.9.93 1.09.61.21.39-.4-.31-.82-1-1.51M105.28 3.83q-.14-.86-.76-1.12M104.08 1.88 104.01 0M105.22.23q-.52.3-.35.62.2.34.62.39M106.03 2.09q.2.98.61 1.03M113.7 2.51l.13 1.07M111.93 11.35q-.37.3 1.02 2.04M117.45 20.2q-.18.88.51 1.7M121.27 27.54l-2.9-1.64M115.99 22.02q.06-1.19-1.01-1.87M108.81 10.6l-1.79-.33M103.05 18.23q.24.74-.28.91M90.13 23.52q-.72-.37-.91-.85M57.96 22.11q-.53-.03-1.2.26M49.7 22.51q-.03-.7.12-.94M130.5.41q2.25 1.57 1.06 1.25M134.67 7.36q.75.97-.18 2.11M175.72 3.97q.35-1.21.14-2.39M190.09 7.91q.44.44.19 1.15M190.67 14.87q-.46.94-.77.91M190.21 23.27q.58-.4.65.91.04.58.44.17.48-.5.54-1.59M191.35 13.02q-.14-1.3.75-1.34M195.03 16.31q.27.35.96.68M195.99 16.99l.18 1.2M201.46 27.97q-.34.2-.69.25M191.65 25.88q-.48.58-1.37.57M190.32 35.92q.62-.37.06 1.33M186.61 39.62q-.6 1.1-1.77-.9M184.38 38.71q-.51 1.17.02 2.31M190.07 53.94q.17.97-.02 1.83M184.16 46.17q-.3-1.1-.97-.98M182.97 39.89q.3-1 0-1.72-.2-.52-.76-.44l-2.1.31M183.33 55.9l.89-.11M190.53 61.35q1.16.27-.66 2.25-.32.34-.03.72.39.5.4 1.24M190.3 66.04q.26.63.26 1.36 0 .53.53.57.3.02.6-.14M200.66 75.72q.48 1.09-.05 1.27M191.78 70.08l-.32-1.38q-.13-.58-.62-.25l-.37.25M190.57 84.74q.43-.25.94.07M191.97 91.25l-.37 1.07M194.6 97.3q.35-.05.54-.79M200.65 87.29l.07-.54q.06-.48.31-.07.31.5.81.86M210.72 107.91q.94 2.92.22 4.29M210.98 121.25q-.04.61 1.03.23M221.3 113.17q.14-.22.78-.19M222.24 116.61l-.7 1.35a.69.68-50.5 0 0 .06.73q.28.36.84.32M231.52 153.28q-.07.77.17 1.53.14.44.58.29.27-.09.33-.63M238.75 151.23l1.35-.63M259.44 129.21q.6-.13.95.04M266.76 136.65q.5-1.12.9-1.36M277.04 119.92l.85.38M239.83 152.37q-.78.24-1.13.59M216.35 182.6q-.52.57-.52.87M215.19 182.19l.8-1.06M212.02 150.03q-1.42-.81-2.09-1.89M207.44 144q-.26-.63.52-.97M201.71 127.47q-1.43-.7.25-2.45M202.2 122.68q-.53-.59.01-.98M195.89 97.65l-.75 1.07M191.69 104.96q-.29.53-1.42.48M173.1 95.6l.66-.72M164.22 71q-.57-.47-.42-.94.13-.41.68-.42M169.72 54.3l3.14 1.05q.6.2.24-.31-.48-.69-1.15-1.03M159.8 32.81q.2-.67-.97-.93M153.48 28.97l.51-.71M161.51 31.88q.47.52.88.58.61.09.39-.48l-.17-.44M162.6 25.34l.05-1.15M163.74 24.27l.02.96M163.77 31.58q.13.52.01 1.13M177.31 36.85q1.25.31 2.46-.34M176.22 24.54q.09-.66-.5-1.04M148.34 19.45l-.39-2.17M144.03 11.7q-.05.6-.95.49M136.28 10.49q-.5 1-.37 1.99M144.58 25.08q.34 2.92 1.44 3.52M156.51 45.95q-.36 1.42-1.99.6M143.02 40.48q-.47-.33-.91-.45M138 37.73q.39-.34.54-1.1M142.88 38.77l.75.43M146.18 32.02q.2-1.11-1.13-1.58M143.54 29.31q-.46-.54-.94-.61M127.97 20.96q.09-.54-.31-1.47M143.02 27.34q.7.18.67-.04M134.96 12.81q.44.01-.12-1.04M200.37 4q.09.95-.1 1.68" vector-effect="non-scaling-stroke"/><path d="M196.14 15.76q-.37.9-.15 1.23M211.08 11.48q.31-.8.91-.69M212.22 17.2q-.72 1.65-.04 1.9M215.09 23.56q.18-.65.55-.88M221.13 13.74q.6.68 1.16.72M222.24 14.93q-1.03.6-1.11 1.48M216.61 24l-.79 1.05M213.7 28.7q-1.28 1.27-1.39 2.53M211.96 32.21q-1 .5-1.15 1.55M208.88 37.13l-.58.91M210.52 41.97l.17.38q.08.2 0 .4l-.11.28M204.75 43.87q-.94 1.15-.79 1.35M201.69 48.69q-.8-.86-1.05-1.66M200.84 46.53q.83-.64 1.13-1.5M202.37 42.99q-.13-.21-.11-.52M204.01 41.27q.7-.3.81-.96M207.16 36.34q.71-.76 1.04-1.55M210.53 30.55q.5-.07.78-.28.43-.33.17-.81l-.72-1.28M202.07 13.94q-1.23-.93-1.64-.24M196.83 16.72q0 .65-.84.27M228.88 0q.2.72-.38 1.2M227.05 3.81q-.05.09-.09.18M226.12 5.26l-.1.28M224.06 8.79q-.07.1-.15.2M223.07 10.22q-.61.9-1.61 1.48M229.04 22.79q-.36-1.39-.66-1.47M250.43.83q.69.83 1.54 1.58.45.4.61.15.16-.24-.03-1M253.01 22.72l-.86-.01M280.56 16.33q-.5.07-.7-.17M242.8 5.94q-.53.35-.72-.7M260.48 17.88l-1.19-.09M242.91 25.66q-.03.27-.76.35M298.1 26.87q-.29.21-.65.1M127.16 40.67q-.03-.87-.38-.89M120.87 28.83q-.44-1.05-1.38-.88M147.71 20.78q.25-.6.15-.96-.16-.61-.64-.19-1.4 1.24-.83 3.38M11.7 33.85q.21-.04.36-.14.39-.25.08-.6-.25-.3-.57-.44M222.42 31.26q-.25-.08-.78.35M222.15 34.03l-.85.03M221.33 43.29q.03.49-.33 1.4M261.13 38.49q-.34.31-.92.52M252.93 42.74l.23-1.21M259.29 23.91l-.32-1.24M242.84 42q.27.61.07.88M242.82 57.31l-1 1.43M241.79 43.67q.23-.46-.15-1.16M84.82 32.45q-.9-.14-.86-1.45M240.12 74.73l.08 2M232.6 96.27l-.98 1.78M231.01 102.66q.45.41.43 1.13M231.51 114.9q-.11 1.25 1.08 1.14M200.68 85.32q.77-.66.06-1.44M197.74 63.79q-.1-.67-.42-1.29M194.54 60.61q-.5.35-.33 1.35M190.53 48.9q.78-2.02 1.55 2.39M192.31 51.59q.45.56.64 1.14M193.51 53.54q.69.73.68 1.43M194.5 55.18l.69.75q.45.48.72-.12.17-.36-.03-1M194.67 43.79q-.32.28-.1-.21.07-.17-.07-.29-.2-.19-.44-.25M192.21 43.1q-.27.1-.27.4t.29.4" vector-effect="non-scaling-stroke"/><path d="M191.69 47.85q-1.15.92-1.17-1.88M188.07 42.32l-2.21-1.24M195.85 42.84q-.2.24.22.93M207.22 62.38l1.53 2.33M212.87 66.85q1.31-.32 1.15-1.53M221.14 53.86l1.25.08M231.32 48.26q.17-.65.82-.85M235.26 69.72q.76-.65 1.02-1.76M196.78 57.07q-1.24.77-.15 1.41M200.21 64.16l.42 1.26M202.01 70.9l.01 1.86M202.17 76.53q-.36.52.1 1.23M203.65 78.48q.4-.33-.01-1.21M203.68 70.65q-.09-.47.48-.71M204.9 77.99q.33.38-.03.97M210.94 82.24l-.06-1.11M210.87 70.78l-.83-1.56M207.21 64.65l-1.6-2.81M192.23 57.67q-.44.4-.28 1.33M192.25 60.87l1.09-1.65M237.02 69.53q-.61.32-.68.87M232.58 76.58q-.43.23-1.02.33M231.55 95.55l.93-1.3M238.63 74.02q.26-.82.21-1.72M89.01 39.31q-.42.47-1.44.2M84.17 34.06q-.16-.42-.07-1.16.07-.52-.45-.54-.23 0-.47.08M288.16 83.29l-.95.26M281.33 60.95l-.82-.51M281.07 59.44q.33.45.86.47M113.16 34.36q-.25.41-.62.66M90.46 62.78l-1.18-11.31q-.05-.48-.41-.8-.39-.35-.64-.77M88.82 41.21l1.15-.15M102.25 40.05q.81-.34 1.33-1.15M200.62 43.53q.14 0 .25-.1a.3.29 57.6 0 0 .07-.34l-.24-.52M41.16 71.3q-.6-.39-1.24-.55M31.22 44.81q1.13-.61.31-1.56M19.65 36.91q-.63-.42-.49 1.37M16.45 44.04q-.92 1-.63 1.43M13.3 50.8l-1.25.1M13.71 45.65q.65-.06.99-.51.47-.62.07-1.03M117.09 40.39q.19.15.15.5-.03.24.19.34.14.07.32.04M136.29 57.09q-.87.29-1.54.08M116 41.35q-.04-.46-.38-.86M91.04 71.41l-.58.83M80.41 90.97q-.82.27-1.27.77M79.11 96.37q.18.97-.18 2.19M204.77 50.2l-.91.14M125.41 54.86q-.2.53-.66.51M139.62 58.3q-.34-.41-.21-1.28M120.13 58.22q.27.69-.11 1.57M127.24 57.83l-1.09.15M135.91 58.7q-.54-.13-1.06.15M128.14 59.08l-1.18.01M315.84 77.39l-.87-.29M162.56 70.87q.13-.17.25-.47.06-.16.03-.29-.06-.22-.23-.23M136.06 77.95l.04 1.99M145.16 107.02l.69 1.13q.3.48-.13.84-.24.2-.61.17M118.1 121.81l-.65.71M97.69 84.13q.46-.54.52-.83M278.01 86.38q-.24.28-.81.41M160.77 69.79q.03.43-.24.75M191.67 79.21q-.37.33.07 1.23M190.18 79.57q.11.08.29 0a.29.28 76.1 0 0 .17-.29q-.04-.39-.19-.66M10.49 83.94l-1.2-1.41M242.69 78.95q-.4.92-.89.73M305.55 94.4q-.43-.07-.54-.16-.15-.11-.16-.52M153.99 107.55q.05.41-.54.8M171.94 133.54q.29.43 1.54.6M190.37 143.02q.45 1.32.16 1.69M156.03 126.3q.21-.68-.92-.6M145.95 114.86l-.81-.46M21.24 97.7q-.84.08-.96.37M8.92 83.81q.06-.18.04-.35-.03-.44-.48-.49l-1.36-.13M242.7 99.25l-.94-.35M288.13 93.96q-.17.65.14 1.29M288.19 102.42q-.12.25-.43.55-.19.18-.38.17-.19-.02-.42-.16M286.96 102.98l.19-1.89M287.15 95.98l-.06-1.05M80.43 98.96q-.43.53-1.39.48M37.91 107.77q-.13.91-.27 1.01M23.4 111.58q-.44.69-.11 1.5M2.95 113.7l-.25-.89M5.04 103.37q-.19-.37-.8-.51M79.04 117.97q.4.28.54 1.55M59.54 120.46q.39-.49-.04-.72-.5-.28-1.45-.14M56.47 118.69l-1.47-.67M41.27 110.76q.52-.51-.47-1.65M174.46 113.25q-.11.33-.51.62M201.75 132.84l-1.07.05M206.44 142.46q.36-.02.55-.96M211.97 169.99l-.68-.19M201.9 165.71l-1.34 3.5M195.89 176.97q-.34 1-.57.84M200.2 206.89q1.11-.38.73 1.36M201.8 212.18q-.61.01-.92.35M195.99 216.7q-.6.54-.57 1M194.31 219.66l-.59.8M191.59 249.16q.27 1.48.15 2M191.65 261.07q-.51 1.28-.1 2.16M195.25 294.36q-.04.67-.75 1.1M191.93 299.99l-.55 1.96q-.13.47-.56.25-.35-.19-.37-.54M173.25 254.34q.67-.28.68-.7M190.46 223.96q1.54-.38 1.14-2.98M191.62 217.09q-.07-1.02.32-1.41M194.3 216.67q.53-.28.77-1.61M191.45 203.55q-.48-.39-.88.18M184.22 196.29q-.2-.08-.45-.13-.15-.04-.29.02-.19.07-.25.16M173.67 213.55q-.28.82-2.18.35M155.94 205.76l.54-1.2M146.05 187.06q-1.05-.38-1.15-1.14M136.13 159.4q-.53-.4.07-1.81M183.25 195.13l.93-.11M190.16 183.92q.26-.33-.03-1.24M173.74 174.14q-.16.34-.46.59M190.39 135.89q.48-.85-.15-2.38M190.37 122.72q.55-.2-.03-1.2M183.99 118.02l-.8-.32M182.2 117.23q-1-.17-1.7-1.1M195.17 122.05l-1.16.13M191.69 122.3q-.48.16.01.99M194.84 123.23l1.15-.12M200.7 122.78q.23-.14.05-.96M191.65 135.71q-.6.4.14 2.3M192.8 139.72l.58-.92M191.63 169.96q-.32.84-.19 1.67M194.54 176.57l.62-.85M177.3 115.82q1.16.47 1.92 1.2M80.36 109.84q-.62.88.29 1.97M90.53 135.67q-.44.04-.89.43M78.97 110.91q.44-.75.02-1.61M126.9 138.33l1.14-.08M134.84 137.9l1.11-.09M146.34 187.77q-.47.59-1.31.7M142.91 197.66l.93.39M154.02 203.38l2.26.87M135.91 217.04l-1.02.23M134.88 228.66q-.37.93 1.09 2.08M146.59 267.74l-.44.12q-.35.1-.31.46.02.25-.1.43M135.32 250.92q.09-1.06-.56-1.02M119.91 217.89q.32-.3.16-.94M134.93 215.96l.88-.05M143.13 198.94q-.07-.31-.88-.46M120.94 187.32q-.34.3-1.17-.77M108.17 180.59q.27-.81-.07-1.18M108.06 169.09q-.68-.11-.98-.46M96.29 161.59q.75.56 1.74.63M107.05 166.98l.95.39M108.47 167.18l-1.26-1.48M99.71 153.35q-.57-1.78-1.09-2.2M62.49 145.18l1-.9M65.05 134.85l-2.04.27M57.91 135.18q-.32-.25-.32-.84M40.57 121.63l-1.18-.09M184.21 119.47l-1.08-.49M135.84 131.64q-.55-.04-.7-.3-.22-.37.06-.55M184.25 123.67l-.77.12M34.21 135.72q-.55.24-.28.97M32.32 139.57q-.64-.47-.57-.77M32.42 136.89q.29-.25.47-.97M135.95 136.68q-.35.17-1.07.07M127.27 137.17l-.94.08M8.24 127.12q-.04.7-.21.89M48.74 145.06q.22.21.45.77M15.96 150.95q.02-.72-.13-.91M56.19 135.3q.28-.86-.35-.94M239.74 163.9q-.83-.19-1.1-.63M218.83 186.47q-.36.02-.91.36M210.71 189.42q1.03-.88.15-2.39M212.34 176.27q-.42.6-.22 1.26M217.16 185.66q.58.04.97-.4M202.07 172.63l-1.4.06M118.23 201.2q-.34.31-.43.63M90.96 229.39q-.95-.96-1.21-1.58M87.77 209.81q.43-.4.14-1.18M102.57 198.53q1.3-.63 1.5-1.14M3.27 175.93l-.32.78M31.53 202.01l-.56.99M13.69 193.78q-.21-.54-.86-.79M212.06 229.03l-.49-.95M184.24 202.95q-.19.24-.91.27M134.76 210.93l.43-.8M48.6 210.96q-.29.69-.7.96M190.43 213.05l-.16 1.71M52.45 222.03q-.1-.27-.56-.42M40.91 229.86q-.54-.21-.75-.55M207.18 220.81l.74 1.11M212 249.47l-.96-.26M205.22 226.41q-.5-.34-1.07-.39M201.53 226.4l-.7.3M205.03 225.01q.33.29.69.38M207.11 223.1q.27-.37-.45-.87M239.44 242.95q-.46.06-.63-.31M98.42 241.97q-.39.18-.73.74M82.69 247.08q-.14-.31-.56-.48M201.92 246.04q-.71-.39-1.26-.25M201.79 285.97q-1.34-.1 0-2.16M200.86 252.03q.5-.27.9-.26M195.86 295.95l-.46 1.03M191.47 322.29q-.45.1-.94 0M173.27 294.03q.71-.95-1.13-1.9M162.66 276.39l.98.02M191.56 342.5q-.9-.05-1.13.12M172.98 333.33q.36-.41.78-.58" vector-effect="non-scaling-stroke"/></g><path d="m27.62 0 3.22 1.74q-.79 1.02-1.35.5-2.61-1.22-3.3-2.24z"/><path fill="#fc0101" fill-opacity=".996" d="m34.41 0 .59.64-.78.53q-.42-.15-.69-.07a.4.39-31.8 0 0-.16.67q.2.18.62.12l.73 1.2q-.09 1.1.17.71l-1.19.49q-.56-.13-.85.06-4.19 2.69-13.63 9.41-.41.3-.42.8-.01 2.12.67 3.78-.5.76-.05 1.69l1.01 8.72q.37.52.4 1.14-.18 1.21.11 1.91.2.47.71.45 3.44-.12 6.3-.48 1.03-.13 1.67-.92.34-.43-.14-.7l-4.95-2.7-.14-1.03 6.17 3.13q.45.22.87-.06l12.44-8.66q.97.18 1.42-.09l13.23 6.98a.31.31 0 0 0 .44-.34l-.59-2.4q.89 1.23 1.42 2.98.25.67.91.83.53.55 1.48.67l4.02 2.18q.68.37.87-.38.07-.29.36-.3.55-.02 1.07.26 5.79 3.19 11.77 6.14.78.15 1.4.67L84.96 40q.01.62-.52 1.02l-4.13-1.77-1.19.69-18.88-9.93q-.57-.3-.56.34.06 6.34 0 13.07c-.02 2.58 2.22 5.13 3.45 7.31q.26.46.79.44l4.65-.11q.24 1 1.19 1.54-2.27.22-3.88 1.78a.53.52 52.3 0 0-.08.65l13.21 21.72q-.29.59.12 1.67.21.53.61.13.59-.61.43-1.6l8.76-13.93q.45 1 .27 2.04-.84.76-.97 1.44-.1.48.27.81.55.49 1.12 1.58.47 1.2-.22 2.3-.42-1.62-1.5-3.21-.35-.52-.67.02-2.89 4.8-5.9 9.75-.93 1.52-.93 3.75.01 3.64-.12 7.18-.85.89-1.17.91L79.07 80q0-.5-.45-.74-8-4.2-16-8.37-.61-.32-1.38-1.28.64.15 1.04-.47l15.14 7.95q.75.39.31-.33L65 55.74q-.28-.46-.72-.16l-7.1 4.97q-.54.54-1.05.72-3.23 1.54-3.72 2.66-3.78 8.57-7.72 17.21-.18.39-.58.22l-.36-.16q-.42-.18-.23-.59 3.47-7.71 7.14-16.03c.99-2.24 2.75-3.31 4.71-4.61l.94-.75 6.85-4.64q2.09-1.41-.43-1.57-4.78-.3-9.75.51-.55.03-1.19.37-1.04-.4-2.74-.11-.54-.58-.91-1.87 1.49.62 3.05.03.72-.19 1.41 0l9.12-.47q.6-.03.28-.54l-3.33-5.2q-.14-.83-1.61-.93l-4.33-2.34q-.44-.65-1.45-.8l-19.8-10.35q-.44-.23-.83.09c-2.77 2.23-6.52 1.56-9.8 2.06q-.85.3-1.86.11-2.22-.29-4.07.48-.48.19-.06.5 1.57 1.16 3.58 1.73-.31.92-.77 1.18l-4.13-2.05q.78-.17-.22-2.49 1.34-.26 2.09-.71.83.45 1.55.18.79.39 1.5-.21.3.02.58-.18.27.08.34-.25.1-.47-.21-.78.04-.38-.09-.74 0-2.98-.47-5.92c-.36-2.3-.43-5.6-1.44-8.24q.78-1.31.37-2.25-.22-.49-.69-.22-.98.55-1.59 1.29l-13.56.65q-.6-.19-1.41.18-.02-.5-.29-.72v-.63l15-1.28q.98.57 1.26-.08 1.26.33 2.21-.33 6.49-4.52 12.99-9.04.11-.08.16-.18.06-.17.02-.28-.37-.13-.59-.02-7.43.56-14.89.91-1.65.07-3.05-.55-1.46-.65-2.83-1.42l-1.43-.65L7.44.61q-.45-.27.07-.33 1.18-.14 2.51.28.56.59 1.1.7c1.57 1.06 2.82 1.9 4.83 1.83q6.48-.2 13.54-.85.56.52 1.35-.5.42.32.91.3.87-.02.33-.7L31.66.8q-.4-.49.22-.63l.77-.17zm16.8 40.4q.23.52 1.37.53l5.81 3.22a.22.22 0 0 0 .33-.19l-.01-14.3q0-.65-.58-.96l-12.72-6.67a1.31 1.3 41 0 0-1.36.09l-11.51 7.96q-.44.31.04.56zm24.16-3.88q.05.01.1 0 .2-.03 0-.04h-.08q-.36-.03-.02.04m1.91.97q.09.02.1.02.39.09.06-.08-.07-.04-.16-.02-.18.04 0 .08"/><path d="M38.27 0q1.01.45-1.32 1.6-.1.42-.91.6l-1.32.89-.73-1.2q.34-.15.23-.72L35 .64q.76.19 1.18-.64zM52.28 0q.2 5.2.15 10.44-.02 2.13.97 3.92 1.77 3.2 3.85 6.61-1.06-.03-1.31.15l-4.93-8.31.33-1.44L51.39 0z"/><path fill="#fc0101" fill-opacity=".996" d="m71.88 0 3.35 1.84-1.53.32q-1.32-1.12-2.19-.83-.51.18-.04.45.65.37 1.57.55 1.34.97 3 1.49.76.77 1.78 1.13.17.07.35.01.14-.04.17-.19.07-.32-.21-.48-.51-.3-1.19-.4.64-.56 1.72-.15 1.39.36 2.34 1.1-.01.18.23.53l-2.24-.19q-1.02-.09-.11.38l4.66 2.37q.83.42.37-.39-.68-1.2-1.86-2.38l-.41-1.08-.85-.98q.03-.75-.39-1.27Q79.41.58 79.43 0h.82l1.51 2.05q.17.95.77 1.06-.05.97.93 1.18-.11.71.32.97 1.45 4.19 5.19 5.48.48.17.49-.34l.08-5.33q.04.33.88.43l.08 5.35q.01.71.64 1.04l2.8 1.48q.75.4 1.19-.33l3.81-6.26q.28-.46-.11-.82-1.33-1.22-3.1-1.48.01-.5-.72-.59l-1.99-1.2.03-1.42 2.72 1.26q.11.05.2-.03l.22-.19q.3-.28-.07-.46Q94.9 1.26 94.89 0h.78q.32.51.83.5.53 0 .76-.5h.16l1.64 2.52q-.17.41-.58.46-.33.04-.58-.21.04-.66-.51-.9a.32.32 0 0 0-.44.37q.15.57.78.63 2.05 1.96 3.73 2.44 2.91 2.08 5.33 2.53.37.9.93 1.09.61.21.39-.4-.31-.82-1-1.51l-1.83-3.19q-.14-.86-.76-1.12l-.44-.83-.07-1.88h1.23l-.02.23q-.52.3-.35.62.2.34.62.39l.54.85q.2.98.61 1.03l1.51 2.53q.29.48.75.16l4.8-3.3.13 1.07-4.35 3.17q-.4.3-.19.75.98 2.18 2.64 3.85-.37.3 1.02 2.04l4.5 6.81q-.18.88.51 1.7l3.31 5.64-2.9-1.64-2.38-3.88q.06-1.19-1.01-1.87l-6.17-9.55-1.79-.33c-.62-.6-1.42-.98-2.18-.42q-3.38 2.48-6.47 4.48-.21.13-.35-.07l-.15-.23q-.23-.35.11-.58l5.9-4.09q.77-.53-.05-.97l-2.39-1.29q-1.16-.62-1.83.5l-3.49 5.75q-.61 1 .43 1.54l6.5 3.34q.24.74-.28.91l-7.11-3.8q-.45-.24-.71.2l-4.82 7.98q-.72-.37-.91-.85l.25-8.82a3.22 3.21-16.6 0 0-5.05-2.73l-13.93 9.64a3.96 3.95-64.1 0 1-1.99.69l-10.54.66q-.53-.03-1.2.26l-7.06.14q-.03-.7.12-.94l6.12-.45q.25-.18 1.31-.15 4.82.06 10.09-.49 2.24-.23 3.82-1.36 6.18-4.39 12.15-8.44.66-.45 1.03-1.11.24-.42-.24-.5-.79-.11-1.47-.47Q74.95 4.55 67.22.57q-.92-.47.11-.48 1.21 0 2.36.6.46.24.89-.06l.91-.63zm19.07 20.01 2.79-4.7a.78.78 0 0 0-.32-1.1l-2.24-1.14q-.68-.35-.69.42l-.06 6.37q0 1.02.52.15"/><path d="M88.66 0c1.43 1.73 2.42 1.11 4.39 1.27l-.03 1.42q-1.22-.12-2.32.21-.31.08-.22.39.04.14.15.24.21.19.48.18 1.64-.06 3.26.26a.26.26 0 0 1 .21.27l-.02.26q-.02.23-.25.22-1.31-.04-2.55-.05-1.25-.01-1.34.83-.84-.1-.88-.43l-5.76.19q-.43-.26-.32-.97l5.63-.39a.33.33 0 0 0 .31-.27l.05-.29q.08-.44-.37-.42l-6.55.19q-.6-.11-.77-1.06l5.98-.52q.46-.04.34-.49-.16-.62.15-1.04zM100.43 0q.48.56.48 1.66 0 .51.5.41 1.32-.28 1.94-2.07h.66l.07 1.88q-1.93.47-2.61 1.65-.3.5.28.45 1.44-.12 2.77-1.27.62.26.76 1.12l-3.82 1.48q-1.68-.48-3.73-2.44.11.03.17-.1.25.25.58.21.41-.05.58-.46.3.46.64.41a.42.42 0 0 0 .31-.61Q99.37 1.1 100 0zM111.14 0q.4.4.14.49-2.68.97-4.64 2.63-.41-.05-.61-1.03L109.9 0zM129.72 0q.25.34.78.41 2.25 1.57 1.06 1.25.72 3.02 3.11 5.7.75.97-.18 2.11L130.47 3a.89.87 71.8 0 0-.79-.41l-15.85.99-.13-1.07 14.73-1.03q.45-.03.56-.47l.24-1.01z"/><path fill="#fc0101" fill-opacity=".996" d="m131.74 0 2.13 1.08q.47.24.73-.21l.51-.87h1.59l2.38 3.45a1.44 1.43-2.9 0 0 .48.43l11.71 6.18q.53.28 1.13.25l15.06-.92q1.95-.12.22-1.03L153.24.76a.3.29-63 0 1-.12-.39l.22-.4q.04-.08.13-.04 6.87 3.24 13.13 6.82.72.41.31-.31L163.18 0h1.01q1.8 2.57 3.42 5.34c2.12 3.6 3.67 4.43 7.66 3.44q.61-.15.58-.77l-.13-4.04q.35-1.21.14-2.39l.13-1.58h.92l.1 8.17a.45.44-1.8 0 0 .48.44l6.85-.5q.66-.05.32-.61L180.22 0h1.11l4.62 7.5q.27.44.8.44l3.34-.03q.44.44.19 1.15l-2.66.2q-.58.05-.26.54l3.31 5.07q-.46.94-.77.91l-3.45-5.56q-.47-.76-1.37-.71l-7.34.45q-.77.04-.77.81v5.95q0 .53.47.78l12.4 6.5a.38.37-83.6 0 0 .53-.43q-.03-.14-.16-.3.58-.4.65.91.04.58.44.17.48-.5.54-1.59l2.37-3.78a1.53 1.5-46 0 0-.01-1.65l-2.85-4.31q-.14-1.3.75-1.34 1.11 2.81 2.93 4.63.27.35.96.68l.18 1.2 5.29 9.78q-.34.2-.69.25l-5.08-8.61a.3.29-40.1 0 0-.48-.04q-2.48 2.91-3.56 6.31-.48.58-1.37.57.09-.46-.08-.86-.14-.35-.48-.52-5.89-3.06-12.02-6.34-.53-.28-.62.31-.62 3.82.49 5.77 2.45 4.28 5.24 8.75.38.6.38-.11l.02-8.65a.24.23-1.3 0 1 .23-.23l.29-.01q.46-.01.46.45v10.3a1.03 1.03 0 0 0 .97 1.03q3.12.2 5.16-.42.62-.37.06 1.33-7.53-.5-3.77 2.37-.6 1.1-1.77-.9.11-.44-.18-.45-.18-.01-.26.13-.07.13-.02.31-.51 1.17.02 2.31-.36 2.75.19 3.72 2.65 4.67 5.48 9.2.17.97-.02 1.83l-5.89-9.6q-.3-1.1-.97-.98l-.22-5.3q.3-1 0-1.72-.2-.52-.76-.44l-2.1.31-8.63.25a2.02 1.98 57.4 0 1-.95-.22l-6.24-3.31q-.7-.37-.65.42c.12 1.63-.33 2.79.61 4.32q4.6 7.51 8.91 14.76.3.51.82.78l12.4 6.53q.39.2.17-.17l-3.22-5.5.89-.11 3.9 6.31q.27.43.78.48 1.01.1 1.63-1.23 1.16.27-.66 2.25-.32.34-.03.72.39.5.4 1.24-.02.23.06.48.26.63.26 1.36 0 .53.53.57.3.02.6-.14.76 1.64 1.76 3.18.94 1.42 2.64 2.33 2.31 1.24 4.57 2.38.48 1.09-.05 1.27-3.13-1.89-6.37-3.49-1.09-.53-2.46-3.42l-.32-1.38q-.13-.58-.62-.25l-.37.25q-.53-2.01-1.93-3.76-.31-.39-.73-.1l-5.75 3.94q-1.27.87-2.8.96l-12.83.79q-.91.06-.1.48l13.65 7.15a4.5 4.49-1.8 0 1 1.76 1.65l8.15 13.49q.68 1.13.68-.19v-8.37q.43-.25.94.07-.3 3.52.46 6.44l-.37 1.07.22 9.08q.01.61.32.08l2.46-4.18q.35-.05.54-.79l5.51-9.22.07-.54q.06-.48.31-.07.31.5.81.86-.11 1.87-.06 3.73.04 1.79 1.03 3.46 3.87 6.58 7.91 13.18.94 2.92.22 4.29l-5.45 9.03a.25.24 13.5 0 0 .23.37l5.26-.35q-.04.61 1.03.23l6.8 11.24q2.19 3.61 2.24-.61l.25-18.94q.14-.22.78-.19l.16 3.63-.7 1.35a.69.68-50.5 0 0 .06.73q.28.36.84.32l-.17 18.16q-.01.93.47 1.72l8.78 14.39q-.07.77.17 1.53.14.44.58.29.27-.09.33-.63l6.15-3.24 1.35-.63 8.57-4.53a3.5 3.49 1.7 0 0 1.35-1.27l9.42-15.59q.6-.13.95.04l-9.06 15.21q-.45.75.32.34l15.11-8.15q.5-1.12.9-1.36l9.38-15.37.85.38-9.66 15.96q-.29.48.26.51l17.83 1.07q.57.04 1.08-.23l16.39-8.61a1.4 1.35 1.1 0 0 .55-.51l9.77-16.16a.44.43 31.1 0 1 .59-.14l.25.15q.24.14.09.38l-9.6 15.9a4.09 4.07-88.2 0 1-1.6 1.51l-15.69 8.2q-1.05.55-2.23.48-8.07-.44-16.61-1.04-1.85-.13-3.87.92-12.99 6.68-25.61 13.68-.78.24-1.13.59-2.37 1.11-4.68 2.32-1.77.93-2.84 2.7-7.5 12.32-14.83 24.62-.52.57-.52.87l-2.18 3.55q-.19.33-.53.14l-.29-.16q-.21-.12-.1-.34l2.46-4.47.8-1.06 15.09-24.99a.85.83 45.6 0 0 0-.85l-10.87-18.09a.25.25 0 0 0-.43-.01l-7.76 12.84q-1.42-.81-2.09-1.89l-2.49-4.14q-.26-.63.52-.97l3.25 5.6a.26.26 0 0 0 .45.01l7.48-12.32a1.09 1.08-45.4 0 0 0-1.11l-7.61-12.57q-.29-.49-.86-.45l-5.39.37q-.55.04-.84.51l-2.73 4.4q-1.43-.7.25-2.45.72-.89.99-1.75.16-.49-.34-.58-.17-.03-.41-.01-.53-.59.01-.98 1.53.31 2.12-.65 3.18-5.11 6.32-10.39a.93.92-45.8 0 0-.01-.95q-4.7-7.74-9.23-15.28-1.15-1.92-.65-3.86.47-1.84-.57-.25-2.23 3.39-4.3 7.33l-.75 1.07-3.45 6.24q-.29.53-1.42.48.02-.78-.44-1.03-8.35-4.35-16.73-8.81l.66-.72 16.08 8.39a.33.33 0 0 0 .48-.31c-.13-2.77.57-6.13-.97-8.62q-4.6-7.44-8.7-14.37-.32-.55-.89-.84L164.22 71q-.57-.47-.42-.94.13-.41.68-.42l15.51-.98a1.96 1.93 25.8 0 0 1-.34l5.98-4.14a.42.42 0 0 0-.04-.72l-17.21-9.16 3.14 1.05q.6.2.24-.31-.48-.69-1.15-1.03-4.57-7.34-8.99-14.76-.62-1.04-.27-4.35a1.21 1.18 28.2 0 0-.28-.89q-.94-1.11-2.61-1.2.2-.67-.97-.93l-5.35-2.91.51-.71 7.52 3.62q.47.52.88.58.61.09.39-.48l-.17-.44-.01-6.2.05-1.15.08-5.08q.01-.38.35-.22l.45.2q.14.07.14.21l.07 4.97.02.96.01 6.35q.13.52.01 1.13.08.73.52.96 3.37 1.76 6.76 3.48.45.23.96.19l5.29-.49q1.25.31 2.46-.34 1.3.48 2.67.2a.71.7-21.2 0 0 .47-1.05l-6.69-11.12q.09-.66-.5-1.04l-.03-5.26q-.01-.53-.49-.74c-2.75-1.22-3.92-4-5.33-6.46a1.45 1.43 72.9 0 0-1.34-.72l-16.1 1a.85.85 0 0 0-.73.51l-3.36 7.62-.39-2.17 2.48-5.44q.28-.6-.31-.91l-8.89-4.71q-.58-.31-.25.26l3.05 5.22q-.05.6-.95.49c-1.88-3.27-4.16-7.86-6.48-8.34q-.54-.11-.53.44l.21 6.2q-.5 1-.37 1.99 3.85 6.36 7.73 12.65.27.44.94-.05.34 2.92 1.44 3.52l10.49 17.35q-.36 1.42-1.99.6l-11.5-6.07q-.47-.33-.91-.45l-4.11-2.3q.39-.34.54-1.1l4.34 2.14.75.43 9.59 5.07q.48.25.2-.21l-7.24-12.04q.2-1.11-1.13-1.58-.6-.89-1.51-1.13-.46-.54-.94-.61l-14.63-7.74q.09-.54-.31-1.47l15.36 7.85q.7.18.67-.04l-8.73-14.49q.44.01-.12-1.04 0-1.3-.35-2.3.93-1.14.18-2.11c.45-3.33.65-4.97-3.11-5.7q1.19.32-1.06-1.25.67-.11.63-.41zm4.37 1.58q.08.53.58.8.49.27.48-.28-.01-.67-.6-.89a.34.34 0 0 0-.46.37m39.73 8.73a.33.33 0 0 0-.35-.33l-4.4.2a.33.33 0 0 0-.27.5l2.85 4.74a.3.3 0 0 0 .1.11l1.51.98a.33.33 0 0 0 .51-.27z"/><path d="M174.49 0q.81 2.11 1.37 1.58.21 1.18-.14 2.39L173.41 0zM192.01 0l8.03 4.33q.18.1.3-.07.07-.09.03-.26.09.95-.1 1.68l-7.89-4.11q-.62-.32-.57.37.16 2.24 0 4.69-.12 1.85 1.13 4.01 1.52 2.63 3.2 5.12-.37.9-.15 1.23-.69-.33-.96-.68-.89-2.69-2.93-4.63-.89.04-.75 1.34l.49 9.74q-.06 1.09-.54 1.59-.4.41-.44-.17-.07-1.31-.65-.91l-.31-7.49q.31.03.77-.91l-.39-5.81q.25-.71-.19-1.15l-.1-7.91z"/><path fill="#fc0101" fill-opacity=".996" d="M201.96 0c-.05 2.69-.4 5.31 1.09 7.67q3.82 6.06 7.28 12.04.61 1.07.63-.16l.12-8.07q.31-.8.91-.69l.23 6.41q-.72 1.65-.04 1.9l-.09 8.34q-.01 1.59.76.19l2.24-4.07q.18-.65.55-.88l5.49-8.94q.6.68 1.16.72-.07.27-.05.47-1.03.6-1.11 1.48L216.61 24l-.79 1.05-2.12 3.65q-1.28 1.27-1.39 2.53l-.35.98q-1 .5-1.15 1.55l-1.93 3.37-.58.91q-1.51 1.63-2.3 3.75-.17.46.31.43l4.21-.25.17.38q.08.2 0 .4l-.11.28q-4.01-.32-5.83.84-.94 1.15-.79 1.35l-2.27 3.47q-.8-.86-1.05-1.66.18-.07.2-.5.83-.64 1.13-1.5 1.06-1.05.4-2.04-.13-.21-.11-.52 1.14.09 1.75-1.2.7-.3.81-.96l2.34-3.97q.71-.76 1.04-1.55 1.61-2.01 2.33-4.24.5-.07.78-.28.43-.33.17-.81l-.72-1.28c.41-2.38.72-4.91-.61-7.02q-3.84-6.1-7.45-12.36-.35-.6-.49.08-.49 2.46-.14 5.06-1.23-.93-1.64-.24l.03-2.57q.01-.63-.31-.08l-3.32 5.67q0 .65-.84.27-.22-.33.15-1.23c1.82-3.02 4.69-6.38 4.13-10.08q.19-.73.1-1.68l.02-4z"/><path d="m211.88 0 .11 10.79q-.6-.11-.91.69L211.32 0z"/><path fill="#fc0101" fill-opacity=".996" d="M228.88 0q.2.72-.38 1.2l-1.45 2.61q-.05.09-.09.18-.78.37-.84 1.27l-.1.28q-1.38 1.45-1.96 3.25-.07.1-.15.2-.7.42-.84 1.23-.61.9-1.61 1.48l-.02-.31q-.01-.18.08-.34L228.17 0z"/><path d="m230.94 0-8.65 14.46q-.56-.04-1.16-.72-.02-.97.33-2.04 1-.58 1.61-1.48.88-.23.84-1.23.08-.1.15-.2 1.4-1.43 1.96-3.25l.1-.28q.89-.43.84-1.27.04-.09.09-.18.94-1.05 1.67-2.22.09-.15.05-.25-.05-.13-.27-.14.58-.48.38-1.2z"/><path fill="#fc0101" fill-opacity=".996" d="M239.54 0q1.21 3.43.09 5.64-2.36 4.7-10.59 17.15-.36-1.39-.66-1.47 4.82-7.53 9.21-15.36c1.16-2.07 1.05-3.7 1.25-5.96zM247.13 0l3.3.83q.69.83 1.54 1.58.45.4.61.15.16-.24-.03-1Q253.14.49 254 0q.23.01.46 0-.6 1.26-1.04 2.48-.41 1.15-.4 2.6.09 8.82-.01 17.64l-.86-.01-.06-19.19a.85.83-75.3 0 0-.42-.73L246.77 0q.18.01.36 0"/><path d="m280.86 0-.3 16.33q-.5.07-.7-.17L279.92 0zM11.12 1.26q-.54-.11-1.1-.7 1.1-.62 1.94-.3.53.2.04.49zM105.49 1.24q-.42-.05-.62-.39-.17-.32.35-.62.32-.07.5.27.22.44-.23.74M242.8 5.94q-.53.35-.72-.7l2.99-4.99q.1-.16.29-.12l.46.11q.28.06.14.31zM252.55 1.56q.19.76.03 1-.16.25-.61-.15-.85-.75-1.54-1.58.51-.42.9-.43.48 0 .54.47.08.6.68.69M10.28 2.1l-3.9 2.71q-.48.34.04.6Q9.53 7 12.53 8.53c1.87.95 2.88 2.64 3.73 4.48q-.28.65-1.26.08-.64-2.43-2.46-3.39-3.5-1.84-6.85-3.57a1.53 1.52 37.8 0 0-1.71.21Q2.62 7.55.84 7.84q-1.2.19-.24-.56L3.4 5.1q.43-.33-.1-.42Q1.63 4.39.2 3.13q-.21-.18-.04-.4l.18-.23q.15-.2.38-.09l3.2 1.69q.62.33 1.2-.07l3.73-2.58z"/><path fill="#fc0101" fill-opacity=".996" d="m51.34 11.37-.33 1.44q-.8-1.42-1.65-2.73-.83-1.29-2.28-2.07Q41.6 5.05 36.04 2.2q.81-.18.91-.6 6.01 3.02 11.64 6.07 1.13.61 2.75 3.7"/><path d="M80.4 1.83q.42.52.39 1.27-1.45.1-2.13.64-1.08-.41-1.72.15l-.9-.07q-1.66-.52-3-1.49.38 0 .66-.17l1.53-.32q2.53.58 5.17-.01M260.48 17.88l-1.19-.09.07-15.25q0-.35.35-.35h.31q.35.01.35.35zM31.64 3.18q-.32-.07-.59-.02.22-.11.59.02M95.73 4.48q-.48.34-.84-.23-.16-.25.12-.36.73.09.72.59M34.89 3.8q4.32 7.05 8.65 14.16.94 1.53 6.28 3.61-.15.24-.12.94l-4.41-1.77q-.45.27-1.42.09c-.67-.97-1.15-1.74-2.19-2.3q-4.71-2.49-9.66-5.03-.21-.11-.09-.32l.3-.49q.12-.19.31-.08l8.26 4.36q.82.44.34-.36L33.7 4.29zM82.05 5.16q-.41.23-.82.21-.24-.35-.23-.53.54-.35.64-.76z"/><path fill="#fc0101" fill-opacity=".996" d="m242.8 5.94.11 19.72q-.03.27-.76.35 0-.28-.18-.57a1.02.97-62.1 0 1-.15-.53l.26-19.67q.19 1.05.72.7"/><path d="M106.79 7.84q.03-.62.32-.82.69.69 1 1.51.22.61-.39.4-.56-.19-.93-1.09"/><path fill="#fc0101" fill-opacity=".996" d="M298.1 26.87q-.29.21-.65.1l-10-16.59q-.15-.25.1-.39l.36-.2q.23-.12.35.1z"/><path d="M108.81 10.6q-.71.25-.72.67-.03 4.4-.04 9.02-.01.51.5.46l6.43-.6q1.07.68 1.01 1.87-2.27-.45-4.37.23-.54.18-.03.42l6.78 3.23 2.9 1.64 12.34 6.45a1.52 1.51 41.2 0 0 1.59-.1l7.4-5.19q.48.07.94.61l-7.14 5.17q-.42.3-.09.69.77.91 2.23 1.46-.15.76-.54 1.1l-3.28-1.55q-.45-.22-.87.06l-6.69 4.43q-.03-.87-.38-.89l6.08-4.08a.33.33 0 0 0-.03-.57l-11.96-6.3q-.44-1.05-1.38-.88l-10.97-5.78a.31.3 14.6 0 0-.45.26c-.04 1.49-.27 3.09.56 4.41q1.65 2.63 3.24 5.41.08.14-.03.27l-.26.29q-.27.3-.49-.04-1.77-2.79-3.45-5.68c-.9-1.55-.61-3.4-.59-5.13q.01-.53-.45-.77l-3.83-2.05q.52-.17.28-.91l3.41 1.58q.5.23.5-.32l.06-9.22zM143.08 12.19q.9.11.95-.49 1.85 2.3 2.86 5.07.19.54-.25.9t-.62.94q-.15.45.32.38l.3-.04q.19-.03.21-.22.14-1.13 1.1-1.45l.39 2.17q2.85 2.5 6.59 4.37 1.77.88 3.78.76 1.99-.12 3.94-.39l-.05 1.15q-2.04.13-4.08.21c-3.04.12-4.74-1.35-7.21-2.64q-.7-.37-.3.31l2.98 5.04-.51.71-5.77-8.19q.25-.6.15-.96-.16-.61-.64-.19-1.4 1.24-.83 3.38l-.37 5.59q-1.1-.6-1.44-3.52.9-2.25.4-5-.08-.51-.53-.75-1.83-.99-3.87-1.95c-2.09-.98-2.87-2.68-3.89-4.58q-.36-.68-.78-.32-.13-.99.37-1.99c1.37 2.09 2.47 4.9 4.68 5.98q1.78.86 3.33 1.72.52.28.73-.27c.7-1.87-1.02-4.15-1.94-5.73"/><path d="M134.84 11.77q.56 1.05.12 1.04-11.67 1.82-22.01.58-1.39-1.74-1.02-2.04l3.38 1.69a1.31 1.24 55 0 0 .69.14zM202.07 13.94l8.69 14.24.72 1.28q.26.48-.17.81-.28.21-.78.28l-10.1-16.85q.41-.69 1.64.24M17.17 16.07q-.57-.77-1.49-.12-4.26 2.99-8.53 5.92a.51.5 57.4 0 0-.15.69l6.32 10.36q1 2.32.22 2.49L0 44.7v-.99l5.96-4.61q.63-.49-.16-.44l-5.8.38v-.84c2.63-.4 6.71.02 8.76-1.42q1.63-1.14 3.26-2.27.34-.23.06-.53-.13-.14-.38-.13.21-.04.36-.14.39-.25.08-.6-.25-.3-.57-.44l-5.62-9.18a.6.59 57.2 0 0-.85-.19L.51 26.38a.22.21-36.2 0 1-.28-.04l-.18-.22q-.12-.16.02-.3 2.08-1.98 4.55-3.29.46-.25.27-.74-1.17-3.02-4.28-4.88-.62-.37-.32-1.19.81-.37 1.41-.18.42.95 1.59 1.55.46.24.73.68l1.81 2.93a.68.68 0 0 0 .97.19l8.46-6q.61-.74 1.59-1.29.47-.27.69.22.41.94-.37 2.25M222.24 14.93l.04 8.96a.4.39-14 0 0 .58.34l5.52-2.91q.3.08.66 1.47l-6.27 3.25q-.48.25-.46.79l.11 4.43q-.25-.08-.78.35-.47-.87-.17-3.41.15-1.38-1.22-1.23-.47.05-1.03 1.02-.25.43.06.83 1.91 2.41 2.87 5.21l-.85.03-2.81-4.77a1.15 1.15 0 0 0-1.61-.38q-1.1.71-2.39 1.22-1.02.4-.45 1.33 3.71 6.07 6.99 11.63.05.08.19.14.06.02.11.06.03.49-.33 1.4l-8.08-13.41q-.13-.21-.36-.14l-.25.09q.11-1.26 1.39-2.53 1.73-.33 2.81-1.36a.84.83 59.4 0 0 .22-.86q-.22-.72-.91-1.43l.79-1.05q.44 1.25 1.23 2.25.35.44.84.16l2.09-1.21q.48-.28.48-.84l-.12-7.95q.08-.88 1.11-1.48"/><path fill="#fc0101" fill-opacity=".996" d="m280.56 16.33-9.36 16.02a4.92 4.84-88.4 0 1-1.95 1.87l-8.12 4.27q-.34.31-.92.52l-7.28 3.73.23-1.21 15.42-8.1a4.91 4.84 1.5 0 0 1.9-1.78l9.38-15.49q.2.24.7.17"/><path d="M196.83 16.72q.06.63.25.93 5.24 8.52 10.42 17.07.13.21.28.25.25.07.42-.18-.33.79-1.04 1.55-.73-1.96-2.02-3.25-.39-.39-.39.16l.07 7.06q-.11.66-.81.96c-.76-1.59-.29-6.4-.28-8.36q0-2.26-.99-4.13-2.9-5.45-6.57-10.59l-.18-1.2q.84.38.84-.27M175.72 23.5q.59.38.5 1.04l-6.72.34a.29.29 0 0 0-.23.45q1.91 2.98 3.82 6.4.94 1.69 2.86 2.8 1.83 1.06 3.82 1.98-1.21.65-2.46.34-5.47-3.35-7.34-4.1-2.44-.98-6.19-.04.12-.61-.01-1.13l4.91-.29q.52-.04 1 .2l2.28 1.15q.9.46.37-.41l-4.13-6.73q-.27-.44-.8-.42l-3.64.15-.02-.96 2.95-.22a.38.37 72.6 0 0 .29-.57l-3.34-5.66q-.11-.19.07-.32l.25-.19q.34-.26.56.11l3.61 6.02q.27.46.81.43zM215.64 22.68q-.37.23-.55.88l-2.91-4.46q-.68-.25.04-1.9z"/><path fill="#fc0101" fill-opacity=".996" d="m260.48 17.88-.16 19.41a.26.26 0 0 1-.26.25l-.25-.01q-.48 0-.48-.48l-.04-13.14-.32-1.24.32-4.88z"/><path d="m19.47 18.34 4.92 8.08.14 1.03q-2.19.81-3.7 2.44-.03-.62-.4-1.14 1.5-.82 2.41-1.86.35-.39.09-.84l-3.51-6.02q-.45-.93.05-1.69M127.66 19.49q.4.93.31 1.47l-10.01.94q-.69-.82-.51-1.7z"/><path fill="#fc0101" fill-opacity=".996" d="m147.71 20.78-1.32 2.23q-.57-2.14.83-3.38.48-.42.64.19.1.36-.15.96"/><path d="M19.08 30.23q.13.36.09.74-.45.39-.13 1.03-.28.2-.58.18-1.11-.56-1.5.21-.72.27-1.55-.18 1.28-.57 1.63-1.28.2-.4-.03-.78L11.3 20.7a.26.26 0 0 1 .12-.37l.3-.14a.42.42 0 0 1 .54.17q2.53 4.17 5.02 8.35.64 1.09 1.8 1.52M57.96 22.11l4.22 7.35q-.95-.12-1.48-.67-.14-.94-.91-.83-.53-1.75-1.42-2.98-1-1.06-1.61-2.61.67-.29 1.2-.26"/><path fill="#fc0101" fill-opacity=".996" d="M242.84 42q.27.61.07.88l-.09 14.43-1 1.43-.03-15.07q.23-.46-.15-1.16c.31-1.26.32-2.65-.38-3.8q-4.78-7.82-9.51-15.73a.36.36 0 0 1 .14-.51l.3-.15q.23-.12.36.1 4.8 7.93 9.63 15.89.78 1.29.66 3.69"/><path d="M89.22 22.67q.19.48.91.85l-5.31 8.93q-.9-.14-.86-1.45zM253.01 22.72l.07 7.74q.01 1.8.95.26l4.94-8.05.32 1.24q-2.52 3.98-4.81 7.91-1.34 2.3-1.43 4.68-.1 2.48.11 5.03l-.23 1.21q-5.89 9.62-11.6 19.37-1.32 2.25-1.45 4.6-.22 4.03.24 8.02l.08 2q-.11-.15-.24-.09-.14.06-.14.21l.04 6.1a4.53 4.52 60.5 0 1-.66 2.39l-6.6 10.93-.98 1.78c-1.48 1.31-1.47 3.02-3.67 4.15q-4.5 2.31-8.46 4.45a.97.97 0 0 0-.13 1.62q2.68 2.07 5.53 3.29.53.22.83-.27l5.29-8.63q.45.41.43 1.13l-4.65 8.05q-.27.47.21.72l4.51 2.34q-.11 1.25 1.08 1.14l.01 38.43q-.06.54-.33.63-.44.15-.58-.29-.24-.76-.17-1.53l-.03-36.47q0-.59-.51-.86l-4.61-2.46q-.57-.3-.9.26l-3.03 5.26q-.56.04-.84-.32a.69.68-50.5 0 1-.06-.73l.7-1.35q1.51-1.47 2.26-3.43.22-.56-.31-.84l-2.44-1.25q-.66-.34-.36.34l.69 1.55q-.64-.03-.78.19-1.47-3.11-4.02-4.49-.76-.42-1.55-.04l-2.81 1.34q-.85.4-.86 1.34l-.05 10.16q-1.07.38-1.03-.23l-.04-9.05q.72-1.37-.22-4.29.35-2.02.31-3.96-.05-1.79-1.2-3.67-3.83-6.25-7.52-12.57-.15-.26-.47-.17-.5-.36-.81-.86-.25-.41-.31.07l-.07.54.03-1.97q.77-.66.06-1.44l-.13-6.89q.53-.18.05-1.27.1-3.54.11-7.22 0-2.16-3.03-4.71-.1-.67-.42-1.29-.35-1.61-1.47-2.58-.41-.35-.83 0-.28.22-.48.69-.5.35-.33 1.35-.57-.11-.76.26c-1 2-2.46 2.92-1.76 5.61q-.3.16-.6.14-.53-.04-.53-.57 0-.73-.26-1.36.14.07.27.02.16-.04.15-.21-.01-.33-.48-.29-.01-.74-.4-1.24-.29-.38.03-.72 1.82-1.98.66-2.25l-.48-5.58q.19-.86.02-1.83.41.34.85.41.52.09.47-.43-.02-.17.02-.33a.21.21 0 0 0-.25-.26q-.2.05-.35-.08-.3-.24-.33-.71-.14-1.77.05-3.64.78-2.02 1.55 2.39-.2.57.23.86.36.25.18-.15l-.18-.41q.45.56.64 1.14-.4.28.19.88.38.39.37-.07.69.73.68 1.43-.1 1.24.31.21l.69.75q.45.48.72-.12.17-.36-.03-1 1.76-1.88 2.67-4.28.18-.46-.09-.88l-3.79-5.86q-.32.28-.1-.21.07-.17-.07-.29-.2-.19-.44-.25l-2.2-4.04q-.52-.95-.46.13l.18 3.4q.02.34.34.47.15.06.29.1-.27.1-.27.4t.29.4q-.16-.05-.3-.04-.37.02-.36.39l.12 3.6q-1.15.92-1.17-1.88.48-2.96-2.45-3.65l-2.21-1.24q-1.82-.85-1.46-.06-.53-1.14-.02-2.31.26.4.46.01 1.17 2 1.77.9 1.28 1.68 3.29 2.35.51.17.51-.37l-.03-4.35q.56-1.7-.06-1.33l-.04-9.47q.89.01 1.37-.57.18 4.07.1 8.08-.06 2.88.85 4.4 1.35 2.23 2.65 4.25.12.18.34.2.13.01.26.03-.2.24.22.93l2.93 4.98q.28.48.7.11.66-.61.94-1.83.25.8 1.05 1.66-.9 1.08-1.07 2.26-.07.51.2.94l6.4 10.49 1.53 2.33 2.22 4.26q.24.45.65.15 1.18-.87 1.25-2.27 1.31-.32 1.15-1.53l5-8.16a1.34 1.33-44.8 0 0 .01-1.38q-3.64-6.09-7.45-12.34-.35-.57-1-.41l.11-.28q.08-.2 0-.4l-.17-.38-2.22-3.93.58-.91 1.33 2.22q.29.48.44-.06.7-2.62.16-5.53.15-1.05 1.15-1.55l.12 9.69q.01.45.24.83l7.19 11.86q.25.41.71.28.57-.15.92-1.01l1.25.08q-.47 3.51.54 6.65.16.53-.23.9-.12.11-.23.22-.29.28-.27.68.01.08.08.14.65.56.56-.31-.07-.77.49-1.22.5-.39.85-.95 3.66-5.88 7.14-11.79.17-.65.82-.85l9.5-4.9q.38.7.15 1.16-3.93 1.85-7.7 3.93-1.92 1.05-2.86 2.69-3.37 5.85-6.84 11.36-.31.49-.01.98l7.05 11.71a.6.6 0 0 0 1.02 0l2.81-4.62q.76-.65 1.02-1.76l5.54-9.22 1-1.43 8.84-14.53q.29-.47 0-.94l-1.33-2.17q-.29-.48-.79-.22l-6.63 3.43q.2-.27-.07-.88l6.15-3.4a.65.64 59.9 0 0 .23-.89l-7.07-11.7q.73-.08.76-.35l6.66 10.86a.54.53-44.8 0 0 .91 0c.84-1.34 1.65-2.45 1.6-4.15q-.12-4.85.07-9.66zm-1.437 17.029a1.56.59 87.7 0 0 .526-1.583 1.56.59 87.7 0 0-.652-1.535 1.56.59 87.7 0 0-.526 1.583 1.56.59 87.7 0 0 .652 1.535M196.78 57.07q-1.24.77-.15 1.41 1.18 3.43 3.58 5.68l.42 1.26q1.27 2.52 1.38 5.48l.01 1.86q-.31 1.95.15 3.77-.36.52.1 1.23-.35.22-.36.74-.03 2.96.07 5.93c.03.89.46 1.38.82 2.12q.95 1.97.93-.22l-.08-7.85q.4-.33-.01-1.21l.04-6.62q-.09-.47.48-.71.64.26.61.81-.24 3.74.13 7.24.33.38-.03.97-.34 4.24-.09 8.64.13 2.32 1.2 3.92 2.34 3.5 4.11 6.85.85 1.6.85-.21V82.24l-.06-1.11-.01-10.35-.83-1.56-2.83-4.57-1.6-2.81-5.71-9.27q-.28-.46-.55.01zm-4.55.6q-.44.4-.28 1.33-.07-.16-.16-.23-.25-.17-.31.13-.37 2.12.77 1.97l1.09-1.65c.93-.51 1.14-1.82.56-2.68q-.58-.87-.99-1.78-.14-.3-.44-.45-.34-.16-.63-.01-.49.26-.34.8zm28.95 7.05a.95.95 0 0 0 .13-.52l-.2-5.2a.95.95 0 0 0-1.76-.46l-4.26 7.06a.95.95 0 0 0 .38 1.34l2.61 1.32a.95.95 0 0 0 1.25-.37zm-30.47-1.74q-.22.12-.23.37-.01.17.1.03.45-.58.13-.4m32.23 1.07c-.25 1.25-1.95 3.62-2.63 4.79a.46.45-61 0 0 .18.64l9.26 4.84q.8.41.34-.36-3.28-5.42-6.37-10.31-.16-.26-.45-.42-.72-.44-.39.34.11.24.06.48m14.08 5.48q-.61.32-.68.87l-3.76 6.18q-.43.23-1.02.33l-11.82-6.24q-.44-.22-.69.2l-6.7 11.05a2 1.96 60.7 0 0-.29 1.07q.05 5.21-.06 10.85-.05 2.12.95 3.72 2.47 3.99 5.02 8.21a.53.52 60.1 0 0 .7.19q3.85-2.12 8.27-4.33c2.4-1.21 3.58-3.7 4.61-6.08l.93-1.3q2.62-4.02 5.04-8.19 1.24-2.12 1.32-4.45.14-3.84-.21-7.59.26-.82.21-1.72l-.04-5.11q-.01-.67-.35-.09zm-24.92.99a.3.3 0 0 0-.05.17l-.04 8.18a.32.32 0 0 0 .6.17l5.36-8.99a.32.32 0 0 0-.12-.44l-3.55-1.96a.32.32 0 0 0-.42.11zm5.18 36.29-4.64-8.13a.12.12 0 0 0-.16-.04l-.05.03a4.02 1.8 60.3 0 0 .42 4.38l.78 1.36a4.02 1.8 60.3 0 0 3.55 2.6l.05-.03a.12.12 0 0 0 .05-.17m-4.04-1.18q-.24-.42-.39-.9-.33-1.08-.58.03-.38 1.68-.18 3.94.06.78.73.37l1.72-1.05q.64-.4.08-.91l-.7-.64q-.41-.37-.68-.84"/><path fill="#fc0101" fill-opacity=".996" d="M83.96 31q-.04 1.31.86 1.45l4.19 6.86q-.42.47-1.44.2l-3.4-5.45q-.16-.42-.07-1.16.07-.52-.45-.54-.23 0-.47.08l-3.85-6.58q-.24-.41.19-.59l.24-.1a.66.66 0 0 1 .83.27z"/><path d="m298.1 26.87.28 19.51a1.92 1.85 61.1 0 1-.26.96l-9.64 15.92q-.28.46-.28.98l-.04 19.05-.95.26-.09-18.99q-.01-.51-.46-.75l-5.33-2.86-.82-.51-9.55-5.01a4.74 4.71 87.9 0 1-1.87-1.75l-8.88-14.67q.58-.21.92-.52 4.08 6.96 8.27 13.69 1.13 1.82 2.99 2.83 4.27 2.33 8.68 4.43.33.45.86.47l5.1 2.71a.61.6-60 0 0 .79-.22l9.37-15.46a1.6 1.57-29.9 0 0 .23-.82l.03-19.15q.36.11.65-.1M143.69 27.3q.03.22-.67.04.03-.1.67-.04"/><path fill="#fc0101" fill-opacity=".996" d="m120.87 28.83-7.71 5.53q-.25.41-.62.66l-21 14.06a1.94 1.93 73.9 0 0-.87 1.58l-.21 12.12-1.18-11.31q-.05-.48-.41-.8-.39-.35-.64-.77c1.92-1.42 1.03-6.94.59-8.69l1.15-.15c1.14 2.03.63 4.17.77 6.37q.03.52.45.23l11.06-7.61q.81-.34 1.33-1.15l15.91-10.95q.94-.17 1.38.88"/><path d="m201.46 27.97.33 13.86q.01.28.23.45l.24.19q-.02.31.11.52-.88 1.15-.4 2.04-.3.86-1.13 1.5l-.22-3q.14 0 .25-.1a.3.29 57.6 0 0 .07-.34l-.24-.52.07-14.35q.35-.05.69-.25"/><path fill="#fc0101" fill-opacity=".996" d="M11.57 32.67q.32.14.57.44.31.35-.08.6-.15.1-.36.14c-4.04.77-8.34-2.43-11.7-4.28v-.89q4.21 1.91 8.17 4.18 1.04.59 3.4-.19"/><path d="M146.18 32.02q.35 3.99-2.55 7.18l-.75-.43c1.04-1.65 2.09-2.87 2.22-4.88q.1-1.69-.05-3.45 1.33.47 1.13 1.58"/><path fill="#fc0101" fill-opacity=".996" d="m222.42 31.26 9.72 16.15q-.65.2-.82.85l-9.68-16.65q.53-.43.78-.35"/><path d="m162.61 31.54.17.44q.22.57-.39.48-.41-.06-.88-.58.89.26 1.1-.34M159.8 32.81l-9.82.54a.45.44-1.9 0 1-.47-.43l-.01-.35q0-.18.17-.19l9.16-.5q1.17.26.97.93M84.17 34.06q-1.75 1.46-2.5 3.97-.62-.52-1.4-.67l2.91-4.92q.24-.08.47-.08.52.02.45.54-.09.74.07 1.16M52.58 40.93q-1.14-.01-1.37-.53l-.03-6.79a.59.58 6 0 1 .71-.57l.39.08q.3.07.3.38zM20.85 33.46q.13 2.7 1.53 3.43 8.35 4.39 16.77 8.79.44.23.95.2l10.42-.65q.52-.04.56-.56l.2-3.01q1.01.15 1.45.8l-.06 2.04q-.01.56.55.53l3.84-.23q1.47.1 1.61.93l-5.44.45q-.52.04-.53.56l-.1 5.2q-.69-.19-1.41 0l-.05-5.13q-.01-.59-.6-.56-4.79.24-9.61.61c-1.09.08-1.83-.24-2.8-.64q-.09-.03-.13.06-.02.04-.01.1.01.11.12.16 4.99 2.72 10.03 5.37.37 1.29.91 1.87L41.16 71.3q-.6-.39-1.24-.55l7.47-16.8q.2-.46-.24-.7l-15.93-8.44q1.13-.61.31-1.56.69.46 1.05.52 1.12.16-.21-.52-5.05-2.6-9.94-5.24c-.8-.43-1.34-1.2-1.86-1.94q-.3-.44-.63-.01-.19.26-.29.85-.63-.42-.49 1.37l-2.71 5.76q-.92 1-.63 1.43L13.3 50.8l-1.25.1 2.04-5.03q.07-.18-.11-.25-.12-.05-.27.03.65-.06.99-.51.47-.62.07-1.03l2.9-6.65q.46-.26.77-1.18.81-1.11.55-2.71 1.01.19 1.86-.11m14.051 11.349a.63.27 32.5 0 0-.386-.567.63.27 32.5 0 0-.676-.11.63.27 32.5 0 0 .386.566.63.27 32.5 0 0 .676.11m2.018 1.035a.67.29 31.9 0 0-.416-.6.67.29 31.9 0 0-.722-.108.67.29 31.9 0 0 .416.6.67.29 31.9 0 0 .722.108"/><path fill="#fc0101" fill-opacity=".996" d="m222.15 34.03.24 19.91-1.25-.08-.14-9.17q.36-.91.33-1.4l-.03-9.23z"/><path d="m113.16 34.36 3.93 6.03q.19.15.15.5-.03.24.19.34.14.07.32.04-.1 1.1 1.06 1.69 8.09 4.18 16.11 8.37a.31.3-60.3 0 0 .4-.11l6.79-11.19q.44.12.91.45l-6.9 11.37q-.26.43-.26.93 0 1.98.08 3.97.01.33.35.34-.87.29-1.54.08l-.02-4.26q0-.53-.47-.78-7.91-4.18-15.86-8.29-1.08-.56-2.4-2.49-.04-.46-.38-.86l-3.08-5.47q.37-.25.62-.66"/><path fill="#fc0101" fill-opacity=".996" d="m19.65 36.91 11.88 6.34q.82.95-.31 1.56l-15.4.66q-.29-.43.63-1.43l11.2-.86q.58-.04.07-.31l-8.56-4.59q-.14-1.79.49-1.37"/><path d="m182.97 39.89-2.86-1.85 2.1-.31q.56-.08.76.44.3.72 0 1.72M103.58 38.9q-.52.81-1.33 1.15l-12.28 1.01-1.15.15-4.38-.19q.53-.4.52-1.02 1.44-.04 2.61-.49 1.02.27 1.44-.2l.25.12q.24.13.52.12zM80.31 39.25l-.03 10.26q-.01.52.51.51l7.44-.12q.25.42.64.77.36.32.41.8l1.18 11.31.58 8.63-.58.83q-3.36 7.48-6.7 14.77c-.85 1.85-1.93 2.62-3.35 3.96q-.82.27-1.27.77-.93.22-1.74.97-.38.35-.23.85.49 1.67 1.94 2.81.18.97-.18 2.19l-2.69-4.37q-.29-.47-.74-.16L66.8 100q-.31.21-.57-.06l-.23-.23q-.42-.44.08-.79l8.73-6.02a.62.62 0 0 0 .18-.83l-5.61-9.26a1.97 1.93 87.8 0 0-.75-.71l-16.65-8.73q-.29-.16-.12-.43l.21-.32q.15-.25.42-.12 7.33 3.87 15.58 8.13 1.73.9 2.68 2.48 2.47 4.11 5.04 8.38.27.44.72.2 1.64-.89 2.6-2.1.32-.02 1.17-.91 1.16 0 1.58-.82 2.27-4.32 7.54-16.67.69-1.1.22-2.3l-.42-3.83q.18-1.04-.27-2.04L87.87 52.1a.58.58 0 0 0-.61-.53l-6.52.42q-.53.04-.53.56l-.04 24.4q.16.99-.43 1.6-.4.4-.61-.13-.41-1.08-.12-1.67l.18-24.2q0-.54-.54-.51l-8.89.56q-.95-.54-1.19-1.54l10.04-.86q.53-.05.53-.58l-.02-9.68z"/><path fill="#fc0101" fill-opacity=".996" d="M126.78 39.78q.35.02.38.89l-9.41.6q-.18.03-.32-.04-.22-.1-.19-.34.04-.35-.15-.5zM115.62 40.49q.34.4.38.86l-8.51.52q-.25.01-.27-.24l-.02-.36q-.01-.26.24-.27zM188.07 42.32l2.45 3.65q.02 2.8 1.17 1.88l4.19 6.96q.2.64.03 1-.27.6-.72.12l-.69-.75q-.12-.14-.31-.21.01-.7-.68-1.43-.21-.46-.56-.81-.19-.58-.64-1.14-.12-.15-.23-.3-.77-4.41-1.55-2.39l-4.67-7.82zM200.7 42.57l.24.52a.3.29 57.6 0 1-.07.34q-.11.1-.25.1l-4.55.24q-.42-.69-.22-.93zM194.06 43.04q.24.06.44.25.14.12.07.29-.22.49.1.21-1.39.47-2.44.11-.29-.1-.29-.4t.27-.4zM14.77 44.11q.4.41-.07 1.03-.34.45-.99.51-1.99-.19-2.98.52Q5.47 49.92 0 53.48V52.4q4.03-3.36 8.6-6.32 3.41-2.21 6.17-1.97"/><path d="m204.75 43.87.02 6.33-.91.14.1-5.12q-.15-.2.79-1.35M184.16 46.17l.06 9.62-.89.11-.14-10.71q.67-.12.97.98"/><path fill="#fc0101" fill-opacity=".996" d="M125.41 54.86q-.2.53-.66.51l-16.89-8.86q-.43-.22-.2-.64l.13-.27a.21.2-60.8 0 1 .27-.08z"/><path d="M171.95 54.01q.67.34 1.15 1.03.36.51-.24.31l-3.14-1.05-12.71-6.56a1.85 1.83 41.6 0 0-1.85.1L139.62 58.3q-.34-.41-.21-1.28l15.11-10.47q1.63.82 1.99-.6zM120.13 58.22q.27.69-.11 1.57l-17.55-9.14q-.5-.26-.39-.83l.09-.42q.11-.5.55-.26z"/><path fill="#fc0101" fill-opacity=".996" d="M281.93 59.91q-.53-.02-.86-.47l6.1-10.01q.12-.2.35-.14l.31.09a.35.35 0 0 1 .21.51zM204.77 50.2l4.63 7.64a.4.4 0 0 0 .71-.06q.33-.79 1.04-1.32.58-.43.55.29-.03.85-.67 1.38a1.4 1.39 54.3 0 0-.29 1.8l3.28 5.39q.16 1.21-1.15 1.53l-4.12-2.14-1.53-2.33q1.27-1.36 1.64-2.84.12-.5-.14-.94l-4.86-8.26zm5.29 10.51a.33.33 0 0 0-.57 0l-.99 1.77a.72.72 0 0 0 .28.98l3.53 1.97q.85.48.35-.36zM13.3 50.8q-.79 1.36-1.27 1.73Q8.44 55.21 0 60.73v-1.18l12.05-8.65z"/><path d="m52.98 53.52 3.33 5.7-.94.75-3.58-6.08q.64-.34 1.19-.37M125.41 54.86q1.16 1.26 1.83 2.97l-1.09.15-1.4-2.61q.46.02.66-.51"/><path fill="#fc0101" fill-opacity=".996" d="M139.41 57.02q-.13.87.21 1.28l-3.71.4q-.54-.13-1.06.15l-6.71.23-1.18.01-6.94.7q.38-.88.11-1.57l6.02-.24 1.09-.15 7.51-.66q.67.21 1.54-.08zM196.78 57.07l8.83 4.77 1.6 2.81q-.78.95-1.07 1.84-.16.5.3.76l3.6 1.97.83 1.56-4.96-2.6q-.45-.24-.84.09-.76.66-.91 1.67-.57.24-.48.71l-1.66 2.11-.01-1.86 1.95-2.95q.32-.48-.18-.76l-3.15-1.77-.42-1.26 3.97 2.03q.66.34 1.04-.3l1.03-1.7a.63.63 0 0 0-.25-.89l-9.37-4.82q-1.09-.64.15-1.41"/><path d="m315.84 77.39-.87-.29.04-19.56q0-.31.31-.31l.38.01q.27 0 .27.28z"/><path fill="#fc0101" fill-opacity=".996" d="m192.23 57.67 1.11 1.55-1.09 1.65q.6-1.03-.3-1.87-.16-.93.28-1.33"/><path d="M164.48 69.64q-.55.01-.68.42-.15.47.42.94-.14-.07-.28-.03-.22.06-.22.29.04 2.48-.05 5.11-.07 1.77 1.6 4.52 4.27 7.04 8.49 13.99l-.66.72q-5.06-8.15-9.88-16.32c-1.06-1.81-.49-6.16-.66-8.41q.13-.17.25-.47.06-.16.03-.29-.06-.22-.23-.23l.01-11.16q0-.25.25-.26h.26q.49-.01.5.48.08 5.01.06 10.06 0 .68.79.64M135.91 58.7l.15 19.25.04 1.99q-.26 4.97-.11 9.91.06 2.21 1.09 3.88 3.92 6.4 7.89 12.92.11.2-.05.39-.06.08.04.11.12.03.2-.13l.69 1.13q.3.48-.13.84-.24.2-.61.17-7.59-4.26-15.46-8.15-2.03-1.01-3.89-.86-8.5.66-17 1.05-.53.02-.63.54-.55 2.69.28 4.04 4.85 7.92 9.69 16.03l-.65.71-9.78-16.19a4.5 4.39-61.1 0 1-.63-2.29V89.78a1.28 1.28 0 0 0-.68-1.13l-8.67-4.52q.46-.54.52-.83l8.15 4.29q.79.42.69-.47-.07-.56.06-1.15a.47.39 73.7 0 1 .07-.16q.49-.76.82-.25.07.11.07.23l-.03 2.11q-.01.6.53.88l6.68 3.49a1.82 1.77 55.9 0 0 .97.2l17.91-1.09q.64-.04.63-.68-.06-8.18.01-16.62.02-1.91-1.09-3.82-3.25-5.6-6.72-11.17l1.18-.01 6.36 10.47a.2.2 0 0 0 .37-.1l-.02-10.6q.52-.28 1.06-.15m-27.86 41.27a.33.33 0 0 0 .35.33l19.67-1.24a.33.33 0 0 1 .17.03l15.06 7.89a.33.33 0 0 0 .44-.47l-8.58-14.01a.33.33 0 0 0-.3-.16l-19.32 1.16a.33.33 0 0 1-.17-.03l-6.83-3.6a.33.33 0 0 0-.48.3z"/><path fill="#fc0101" fill-opacity=".996" d="M194.54 60.61q.85 1.23 2.78 1.89.32.62.42 1.29l-3.53-1.83q-.17-1 .33-1.35M280.51 60.44l.82.51q-1.17 1.92-2.27 3.77-1.05 1.78-1.09 3.85-.18 9.02.04 17.81-.24.28-.81.41.06-.23-.09-.51-.19-.37-.19-.78V67.69a4.81 4.76 60.9 0 1 .69-2.48z"/><path d="m57.18 60.55 5.1 8.59q-.4.62-1.04.47l-5.11-8.34q.51-.18 1.05-.72M160.77 69.79q.03.43-.24.75l-17.28-8.85a.35.34-60.1 0 1-.13-.5l.18-.28a.28.27-58.8 0 1 .36-.09z"/><path fill="#fc0101" fill-opacity=".996" d="M236.28 67.96q-.26 1.11-1.02 1.76.28-.82.01-1.24-1.78-2.83-3.38-5.71-.24-.42.19-.66l.25-.14q.17-.09.28.07z"/><path d="m191.78 70.08-.11 9.13q-.37.33.07 1.23l-.23 4.37q-.51-.32-.94-.07l-.39-5.17q.11.08.29 0a.29.28 76.1 0 0 .17-.29q-.04-.39-.19-.66l.02-9.92.37-.25q.49-.33.62.25z"/><path fill="#fc0101" fill-opacity=".996" d="m237.02 69.53 1.82 2.77q.05.9-.21 1.72l-2.29-3.62q.07-.55.68-.87M162.61 69.88q.17.01.23.23.03.13-.03.29-.12.3-.25.47-1.38.13-2.03-.33.27-.32.24-.75zM39.92 70.75q.64.16 1.24.55-7.29 5.36-14.84 10.39-1.79 1.19-3.92 1.39-5.78.52-11.91.86l-1.2-1.41 13.5-.6q1.05-.04 1.92-.64zM91.04 71.41l7.17 11.89q-.06.29-.52.83l-7.23-11.89zM240.12 74.73l2.57 4.22q-.4.92-.89.73-.46-1.54-1.6-2.95zM190.45 78.62q.15.27.19.66a.29.28 76.1 0 1-.17.29q-.18.08-.29 0l-6.54-3.4q-.28-.14-.07-.38l.22-.24a.48.46-54.9 0 1 .57-.11zM202.17 76.53q.61.48 1.47.74.41.88.01 1.21-.71-.52-1.38-.72-.46-.71-.1-1.23M232.58 76.58l-.1 17.67-.93 1.3.01-18.64q.59-.1 1.02-.33M314.97 77.1l.87.29-10.29 17.01q-.43-.07-.54-.16-.15-.11-.16-.52zM153.99 107.55q.05.41-.54.8l-6.59-10.9q-.69-1.13-.7.19-.06 4.34-.07 9.01 0 1.75.96 3.3 4.59 7.38 9.09 15.01.25.43.69.66l15.11 7.92q.29.43 1.54.6l16.89 8.88q.45 1.32.16 1.69l-34.5-18.41q.21-.68-.92-.6l-8.6-14.14q-.25-.42-.3.07l-.26 3.23-.81-.46-.03-5.24q.37.03.61-.17.43-.36.13-.84l-.69-1.13q.05-4.88-.11-9.78-.07-2.24-1.16-4.19-3.68-6.6-7.79-13.11l-.04-1.99zM210.88 81.13l.06 1.11-6.07-3.28q.36-.59.03-.97z"/><path d="m9.29 82.53 1.2 1.41L21.24 97.7q-.84.08-.96.37L8.92 83.81q.06-.18.04-.35-.03-.44-.48-.49l-1.36-.13q.01-.15.01-.26 0-.08-.15-.14L.37 80.07q-.16-.06-.17-.23l-.02-.53q-.01-.37.33-.24zM242.7 99.25l-.94-.35.04-19.22q.49.19.89-.73z"/><path fill="#fc0101" fill-opacity=".996" d="m191.67 79.21 9.07 4.67q.71.78-.06 1.44l-8.94-4.88q-.44-.9-.07-1.23M7.12 82.84l1.36.13q.45.05.48.49.02.17-.04.35l-4.34.25q-.46.03-.47-.42 0-.17.1-.32a.29.29 0 0 1 .21-.14zM288.16 83.29l-.03 10.67q-.17.65.14 1.29l-.08 7.17q-.12.25-.43.55-.19.18-.38.17-.19-.02-.42-.16l.19-1.89v-5.11l-.06-1.05.12-11.38z"/><path d="m287.09 94.93.06 1.05q-1.18.29-1.96 1.02-.39.37-.1.83l2.06 3.26-.19 1.89-2.94-4.77q-.34-.54-.91-.23c-2.45 1.38-4.91 1.9-6.49 4.59q-4.4 7.52-8.7 14.42-.31.5-.31 1.09l.05 17.21q-.4.24-.9 1.36-.24-9.22-.04-17.63.05-2.09.99-3.62 4.58-7.43 8.88-14.6c.89-1.49 4.57-2.86 6.07-3.71q.52-.29.21-.79l-5.67-9.51q.57-.13.81-.41l5.84 9.3q.28.44.76.25z"/><path fill="#fc0101" fill-opacity=".996" d="m80.41 90.97.02 7.99q-.43.53-1.39.48.06-.44-.11-.88.36-1.22.18-2.19l.03-4.63q.45-.5 1.27-.77"/><path d="M288.27 95.25q-.31-.64-.14-1.29l6.28-3.04q.33-.16.5.17l.14.26q.14.26-.12.4zM191.97 91.25l3.17 5.26q-.19.74-.54.79l-3-4.98z"/><path fill="#fc0101" fill-opacity=".996" d="M20.28 98.07q.12-.29.96-.37l1.44 10.32q.07.5.58.47l14.65-.72q-.13.91-.27 1.01l-14.2.86q-.54.04-.57.58-.03.61.53 1.36-.44.69-.11 1.5l.6 4.45q.05.34-.3.36l-.35.03q-.32.02-.36-.31l-.59-4.54a.59.59 0 0 0-.62-.51L2.95 113.7l-.25-.89q8.48-.66 17.04-1.15 1.41-.08 2.16-1.44.26-.48-.27-.61-.2-.05-.39 0-.58.14-.52.74.07.67-.58.71-.42.02-.81-.18-7.15-3.86-14.29-7.51-.19-.37-.8-.51L0 95.93v-2.41l5.35 8.54q.28.45.75.7 5.53 2.91 10.42 5.45 2 1.04 4.66.33.51-.13.44-.65zM79.04 117.97q.4.28.54 1.55l-20.04.94q.39-.49-.04-.72-.5-.28-1.45-.14l-1.58-.91-1.47-.67-13.73-7.26q.52-.51-.47-1.65l-8.97-14.84q-.12-.2.07-.32l.25-.15q.4-.24.65.16l9.42 15.57a2.34 2.22-.2 0 0 .88.83l16.09 8.6q.45.24.96.21z"/><path d="M304.85 93.72q.01.41.16.52.11.09.54.16l-17.03 8.95a1.76 1.71.9 0 0-.69.65l-9.94 16.3-.85-.38 9.92-16.94q.23.14.42.16.19.01.38-.17.31-.3.43-.55z"/><path fill="#fc0101" fill-opacity=".996" d="m232.6 96.27-.1 17.12q0 .51.27.08l8.99-14.57.94.35-10.11 16.79q-1.19.11-1.08-1.14l-.07-11.11q.02-.72-.43-1.13.71-1.93.61-4.61z"/><path d="M174.46 113.25q-.11.33-.51.62.25-.11-.21-.2-.18-.04-.28-.2l-9.8-16.25a.38.36-21.4 0 1 .25-.55l.33-.06q.15-.04.23.1zM195.89 97.65l5.17 8.42a4.96 4.91-61 0 1 .72 2.57v12.46q0 .26.2.42l.23.18q-.54.39-.01.98-.63 1.11-.24 2.34-1.68 1.75-.25 2.45l-1.16 2.34q-.23.45.02.89l1.18 2.14-1.07.05q-.3-.72-.76-1.22-.36-.4-.64.06l-3.04 5.03a.96.95 44 0 0 .02 1.03c1.36 2.01 2.25 4.64 4.48 5.81q1.72.9 3.29 1.77.47.26.83-.13 1.11-1.17 1.58-2.78.36-.02.55-.96l.27-.15q.2-.1.32-.29l3.23-5.41a.47.47 0 0 1 .61-.18l.24.12a.59.58 28.4 0 1 .25.82l-3.95 6.62q-.78.34-.52.97-.77.81-1.13 1.77-.18.47.22.79 1.47 1.13 3.4 1.58.67 1.08 2.09 1.89l-.05 19.96-.68-.19-.27-19.08q-.01-.52-.46-.77l-4.67-2.55q-.48-.26-.75.2-1.11 1.89-2.33 3.75-.89 1.36-.85 4.03.07 5.26-.06 10.33l-1.34 3.5-4.67 7.76q-.34 1-.57.84-1.29 1.83-2.39 3.73-1.27 2.18-1.21 4.18.12 3.75 0 7.73-.06 1.98 1.03 3.76 3.25 5.27 6.32 10.4.29.48.69.09.27-.25.44-.81 1.11-.38.73 1.36l-.36 1q-.17.45.07.88l1.16 2.05q-.61.01-.92.35-.39-.95-.95-1.45-.4-.35-.66.11l-3.28 5.51q-.6.54-.57 1-.74.92-1.11 1.96l-.59.8q-2.23 2.89-2.23 4.29-.02 12.37.1 24.41.27 1.48.15 2l-.09 9.91q-.51 1.28-.1 2.16-.05 11.15-.05 22.3 0 2.68 1.08 4.69 1.15 2.12 2.67 4.14-.04.67-.75 1.1l-2.66-4.29q-.53-.85-.45.15.33 4.39.02 8.72-.03.45.31.15l.21-.2-.55 1.96q-.13.47-.56.25-.35-.19-.37-.54l.03-37.74q0-.64-.57-.94l-16.66-8.64q.67-.28.68-.7l15.97 8.29a.4.4 0 0 0 .58-.35l-.02-37.62q1.54-.38 1.14-2.98 1.97-1.88.02-3.89-.07-1.02.32-1.41l1.21 1.84q.37.55.69-.02l.46-.83q.53-.28.77-1.61l3.42-5.6q.27-.43 0-.87l-6.62-10.99a.22.21 29.5 0 0-.4.11l-.02 5.84q-.48-.39-.88.18l-.1-7.44a.38.37-2.1 0 0-.41-.37l-5.84.37q-.2-.08-.45-.13-.15-.04-.29.02-.19.07-.25.16l-10.58.54a5.35 5.25-32.2 0 1-2.76-.6l-5.58-2.92q-.5-.26-.59.3-.45 2.78.33 4.07 4.79 7.94 9.62 15.82-.28.82-2.18.35l-15.55-8.14.54-1.2 14.64 7.7q.84.44.34-.37-4.04-6.61-7.96-13.16c-1.14-1.9-.8-3.64-.87-5.68q-.02-.57-.52-.84c-3.18-1.7-8.11-3.39-10.05-6.56q-2.75-4.5-5.07-8.63-.86-1.53-.87.22l-.07 9.82q-1.05-.38-1.15-1.14.17.12.18-.44.09-4.45.07-8.96-.01-2.06-1.03-3.84-3.82-6.66-7.99-13.28-.53-.4.07-1.81l17.44 28.75q.29.48.79.74l7.71 4.01a.37.36 13.9 0 0 .54-.32v-13.05q0-.37.36-.36l.28.01a.36.35-89.2 0 1 .34.36l.03 13.51a1.13 1.11-76.7 0 0 .61 1q2.62 1.31 5.32 2.82 1.44.81 3.66.72 5.06-.2 9.97-.65l.93-.11 5.46-.29q.53-.03.53-.56l-.01-10.25q.26-.33-.03-1.24.18-2.73.1-5.43-.07-2.35-1.12-4.03-4.61-7.39-8.52-14.02a2.05 2.05 0 0 0-.84-.81l-15.53-8.11q-.67-.35-.61.4.17 2.31-.02 4.71-.14 1.75 1.15 3.9 4.49 7.48 9 14.85-.16.34-.46.59l-10.08-16.14a3.48 3.47-61 0 1-.52-1.83v-18.54q0-.38.38-.38l.28-.01q.33 0 .33.33l.01 10.35a.71.7 14.2 0 0 .37.62l16.05 8.37q.97.51 1.54 1.45l8.15 13.49q.7 1.15.7-.19l.04-27.54q.29-.37-.16-1.69l.02-7.13q.48-.85-.15-2.38.89.68.33-1.19-.18-.6-.15-1.15.21-4.25-.05-8.45.55-.2-.03-1.2.39-2.2-.04-4.44-.1-.5-.6-.5-2.87-.03-4.81.3-.67.12-.9 1.14l-.8-.32q-.49-.91-.99-.47-1-.17-1.7-1.1l2.13-.21a.61.6 87.4 0 0 .55-.61l.01-11.06a.35.35 0 0 1 .35-.35h.31q.35 0 .35.35l-.01 11.28q0 .33.34.31l5.43-.33q.28-.02.28-.3l.03-9.77q1.13.05 1.42-.48.01 4.61.13 9.1.06 2.18 1.16 4.1 1.08 1.9 2.19 3.89l-1.16.13q-.81-2.1-2.19-3.71-.39-.45-.36.14l.23 3.69q-.48.16.01.99-1.38 6.87 3.24 11.96.4.44.71-.07l2.86-4.76q.34-.56 0-1.13l-3.67-6.06 1.15-.12 3.21 5.15q.28.46.59.02 1.56-2.25.91-5.5.23-.14.05-.96.08-6.17-.02-12.44-.04-2.07-1.08-3.76-2.05-3.35-4.03-6.66-.03-.05-.05-.09-.05-.18-.43-.15zm-4.24 38.06q-.6.4.14 2.3-.42 1.64-.31 3.18.04.55.41.14.61-.68.91-1.61l.58-.92c2-1.89-.18-4.56-1.67-6.29q-.31-.35-.28.11zm2.87 4.04q-.25.47.19.75.97.63 2.13 1.05.79.29.35-.42l-1.41-2.29q-.4-.65-.77.02zm-2.89 30.21q-.32.84-.19 1.67l.37 9.02q.02.61.33.08l2.4-4.16.62-.85q2.36-3.43 4.3-6.97 1.1-2 1.03-3.91-.28-7.58.32-15.32.14-1.84-.66-3.43c-1.52-3-3.5-3.36-5.96-4.81q-.54-.31-.85.22c-1.01 1.76-1.75 2.34-1.78 4.66q-.17 12.01.07 23.8m9.19-24.76c1.01 1.75.95 2.43.93 4.42q-.01.9.48.14l1.62-2.55q.38-.6-.24-.94l-2.49-1.38q-.7-.39-.3.31"/><path d="M177.3 115.82q1.16.47 1.92 1.2c-3.18.48-7.44 1.18-10.31-.46q-2.38-1.35-4.55-2.53-.51-.28-.61.3-.48 2.86.18 3.94 4.8 7.77 9.55 15.87-1.25-.17-1.54-.6-4.04-6.96-8.24-13.53c-1.32-2.06-.9-3.9-1.06-6.22a1.17 1.16 11.7 0 0-.62-.94l-8.57-4.5q.59-.39.54-.8l8.12 4.13q.58.29.58-.36l-.03-12.7q0-.29.29-.29l.34-.01q.38 0 .38.38l.01 13.26q0 .62.55.92l6.61 3.5q.42.23.89.2 2.65-.13 5.27-.23.4-.01.3-.53M80.43 98.96l-.07 10.88q-.62.88.29 1.97-.18 2.57-.1 5.07.07 2.26 1.34 4.41 4.27 7.21 8.64 14.38-.44.04-.89.43l-10.06-16.58q-.14-1.27-.54-1.55l-.07-7.06q.44-.75.02-1.61l.05-9.86q.96.05 1.39-.48M4.24 102.86q.61.14.8.51L0 106.74v-.98z"/><path fill="#fc0101" fill-opacity=".996" d="M78.99 109.3q.42.86-.02 1.61l-6.46-3.4q-.51-.27-.3-.79l.11-.27q.17-.42.58-.22z"/><path d="M40.8 109.11q.99 1.14.47 1.65l-3.63-1.98q.14-.1.27-1.01 1.73 1.3 2.89 1.34"/><path fill="#fc0101" fill-opacity=".996" d="M80.36 109.84q4.04 2.39 8.33 4.73 1.95 1.07 2.93 2.7 4.56 7.62 9.02 14.98.29.48.29 1.04v18.74a1.95 1.94 29.4 0 0 .29 1.02q4.67 7.71 8.99 14.8 1.31 2.16 4.05 3.27 1.8.73 3.86.58 8.41-.6 16.29-1.06a.39.38-1.6 0 0 .37-.38l-.01-18a3.47 3.43 29.8 0 0-.49-1.77l-7.38-12.16 1.14-.08 6.46 10.72q.36.6.36-.1l-.02-10.97 1.11-.09.25 19.78q-.6 1.41-.07 1.81-.28 4.79-.1 9.45.09 2.3 1.27 4.36 3.68 6.43 7.6 12.71.1.76 1.15 1.14-.05.3.29.71-.47.59-1.31.7l-16.08-8.43a3.19 3.18 57.5 0 0-1.57-.35l-8.9.33q-.79.03-.39.72l3.1 5.19q.26.45.73.69l20.99 11.04.93.39 10.18 5.33 2.26.87.2.31-.54 1.2q-7.79 5.49-15.65 10.79-.98.66-4.38.49l-1.02.23-6.02.5q-.54.04-.26.51l6.27 10.38q-.37.93 1.09 2.08-.13 8.95.09 17.79.05 2.1 1.14 3.92 4.6 7.7 9.39 15.29l-.44.12q-.35.1-.31.46.02.25-.1.43-.42-.98-.8-1.18-8.22-4.37-16.27-8.57-.68-.36-1.44-.31l-18.56 1.14a.41.41 0 0 1-.44-.43l.02-.32q.01-.21.22-.22 8.73-.53 17.7-1.14 1.89-.13 3.68.78 6.93 3.5 13.68 7.27.85.48.34-.36l-8.45-13.96q-.07-.13-.08-.28l-.02-.25q.09-1.06-.56-1.02.09-8.77-.04-17.44-.02-2.1-.98-3.67-3.25-5.3-6.31-10.37a1.31 1.31 0 0 0-1.14-.63l-6.38.1q.32-.3.16-.94l5.57-.5q.51-.04.31-.52-.74-1.72-2.17-2.46-8.03-4.22-16.4-8.64-.22-.11-.07-.31l.16-.23a.5.49-58.2 0 1 .62-.15q7.43 3.84 15.73 8.17c1.45.75 2.53 1.98 3.17 3.44a.85.84-12.9 0 0 .82.51l7.12-.3.88-.05q2.62.24 3.85-.5 3.74-2.24 14.42-10.03.42-.31-.04-.56l-10.91-5.88q-.07-.31-.88-.46l-21.31-11.16q-.34.3-1.17-.77l-3.25-5.52a1.64 1.63-16.6 0 0-1.49-.8l-6.86.36q.27-.81-.07-1.18l6.58-.47q.5-.04.26-.48c-1.58-2.8-4.1-8.15-6.88-9.37q-.68-.11-.98-.46l-13.83-7.44q-.45-.23-.95-.2l-18.77 1.15q-.37.02-.38-.35l-.01-.31q-.01-.31.3-.33 9-.54 18.08-1.13c1.84-.12 3.21.71 4.77 1.57q.75.56 1.74.63l9.02 4.76.95.39q.2.39.49.43.59.09.27-.38-.09-.13-.29-.24l-1.26-1.48-7.5-12.35q-.57-1.78-1.09-2.2l-8.98-15.05q.45-.39.89-.43l8.69 14.37q.37.62.36-.1l-.03-15.73a4.43 4.4 29.7 0 0-.63-2.27q-4.13-6.79-8.24-13.7-1.03-1.72-2.99-2.8-3.43-1.89-7.04-3.63-.91-1.09-.29-1.97m32.66 61.67q-.96-.7-.35.31l4.07 6.72q.26.44.78.4l9.88-.85q.52-.04.97.19l14.86 7.74q.85.44.35-.37l-8.21-13.58q-.31-.52-.92-.48-11.57.88-17.99 1.08-1.77.05-3.44-1.16"/><path d="M260.39 129.25q-.35-.17-.95-.04v-19.34q0-.28.28-.28h.31q.27 0 .28.28zM55 118.02l1.47.67 8.62 14.57a2.48 2.41-.9 0 0 1.01.95l32.52 16.94q.52.42 1.09 2.2l-6.09.57q-.5.05-.24.49l4.65 7.81q-.99-.07-1.74-.63l-4.18-7.25a1.02 1-16.6 0 0-.94-.5l-9.95.67a3.22 3.14 56.3 0 1-1.69-.36l-17.04-8.97 1-.9q7.55 3.91 15.13 7.89 1.99 1.05 3.59.99 4.29-.16 8.38-.49a.32.32 0 0 0 .25-.49l-3.12-5.11a2.58 2.53 87.5 0 0-1.03-.96l-21.64-11.26-2.04.27-5.1.06q-.32-.25-.32-.84l6.11-.29a.4.4 0 0 0 .32-.61l-7.31-12.14q-.35-.58-1.02-.54l-15.12.87-1.18-.09-16.1-8.46q-.33-.81.11-1.5l16.89 8.95q.48.25 1.02.22l13.53-.84q.55-.04.57-.59.03-.54-.41-1.3m41.75 34.21q.23.15.44-.01a.37.37 0 0 0-.05-.62l-7.21-3.8q-.82-.43-.34.36l2.26 3.78q.27.46.81.44 2.07-.06 4.09-.15M2.7 112.81l.25.89q-1.5 1.34-2.95 1.74v-.83z"/><path fill="#fc0101" fill-opacity=".996" d="m174.46 113.25 6.04 2.88q.7.93 1.7 1.1.35.48.99.47l.8.32 6.35 3.5q.58 1 .03 1.2l-6.16-3.25-1.08-.49-3.91-1.96q-.76-.73-1.92-1.2l-3.35-1.95q.4-.29.51-.62"/><path d="m145.14 114.4.81.46-10.11 16.78q-.55-.04-.7-.3-.22-.37.06-.55zM184.21 119.47l.04 4.2-.77.12-.35-4.81zM59.54 120.46q-.54.22-1.08.14-.46-.07-.44-.54.01-.23.03-.46.95-.14 1.45.14.43.23.04.72"/><path fill="#fc0101" fill-opacity=".996" d="m40.57 121.63-6.36 14.09q-.55.24-.28.97l-1.61 2.88q-.64-.47-.57-.77l.67-1.91q.29-.25.47-.97l6.5-14.38zM135.2 130.79q-.28.18-.06.55.15.26.7.3l.11 5.04q-.35.17-1.07.07l-.16-4.59q-.02-.51-.47-.75l-16.8-8.89.65-.71zM200.75 121.82q.18.82-.05.96l-4.71.33-1.15.12-3.14.06q-.49-.83-.01-.99l2.32-.12 1.16-.13zM184.25 123.67l5.99 9.84q.63 1.53.15 2.38l-6.91-12.1zM127.27 137.17l-.94.08c-.74-1.23-1.31-2.45-2.63-3.13q-8.12-4.23-16.28-8.58-.14-.07-.08-.22l.09-.28a.44.43-66.3 0 1 .61-.24q8.34 4.32 16.68 8.72 1.43.76 2.55 3.65"/><path d="M156.03 126.3q-7.92 5.48-15.83 10.85-.89.61-4.25.66l-1.11.09-6.8.35-1.14.08c-3.04.26-6.51.86-9.29-.64q-7.64-4.12-15.32-8.11-.24-.12-.11-.36l.21-.41q.11-.2.3-.1 7.68 3.9 15.21 8 1.77.97 3.99.88t4.44-.34l.94-.08 7.61-.42q.72.1 1.07-.07c1.72.09 3.01.12 4.53-.91q7.38-5.03 14.63-10.07 1.13-.08.92.6"/><path fill="#fc0101" fill-opacity=".996" d="M8.24 127.12q-.04.7-.21.89l-8.03.41v-.79z"/><path d="M32.89 135.92q-.18.72-.47.97l-5.92.31q-.55.03-.8.52-1.12 2.19-1.84 4.13-1.1 2.96 1.61 1.35t6.28-4.4q-.07.3.57.77l-6.35 4.44a.36.36 0 0 0 .02.61c1.56.95 2.81 1.69 4.79 1.57q9.04-.57 17.96-1.13.22.21.45.77-.32.02-.64.14-.35.14-.6.16-8.59.52-17.21 1.06c-2.26.14-3.74-.77-5.5-1.89q-.47-.3-.95-.01-2.78 1.62-3.5 3.31-1.3 3.04-2.7 5.92a3.32 3.28 86 0 1-1.09 1.27L.92 166.81q-.21.14-.41-.02l-.27-.21a.37.36-42.5 0 1 .03-.59q7.54-5.01 15.8-10.82c1.79-1.26 2.42-4.09 3.4-5.99q.42-.82-.34-.31l-3.17 2.08q.02-.72-.13-.91c2.12-1.62 5.46-3.22 5.78-6.15q.05-.44-.34-.65l-9.72-5.08q-.28-.14-.14-.43l.16-.32a.31.31 0 0 1 .42-.14l9.98 5.2a.41.4 25.4 0 0 .56-.19l2.26-5.04q.15-.32-.16-.49l-16.6-8.74q.17-.19.21-.89 7.78 3.95 15.42 8.02 1.83.98 3.91.92 2.59-.07 5.32-.14m-9.57 8.69q.2-.45-.27-.34-.54.12-.6.73-.05.42.32.21.38-.22.55-.6"/><path fill="#fc0101" fill-opacity=".996" d="M57.59 134.34q0 .59.32.84l1.17 1.88q.28.45.72.16l3.21-2.1 2.04-.27-4.56 3.26q-.41.29-.15.72l3.15 5.45-1 .9-3.24-5.29a.8.8 0 0 0-1.14-.24l-8.92 6.18q-.23-.56-.45-.77l8.88-6.28q.42-.29.28-.78-.42-1.54-1.71-2.7.28-.86-.35-.94l-3.62-6.05q-.27-.45.23-.64l.26-.1a.69.67-26 0 1 .82.27zM201.75 132.84l5.24 8.66q-.19.94-.55.96l-5.76-9.57z"/><path d="m56.19 135.3-22.26 1.39q-.27-.73.28-.97l21.63-1.36q.63.08.35.94"/><path fill="#fc0101" fill-opacity=".996" d="m191.65 135.71 1.73 3.09-.58.92-1.01-1.71q-.74-1.9-.14-2.3"/><path d="m240.1 150.6-1.35.63.04-7.52q0-.51.5-.44l.39.04q.29.04.29.34z"/><path fill="#fc0101" fill-opacity=".996" d="M15.83 150.04q.15.19.13.91L0 151.99v-.94z"/><path d="m239.83 152.37-.09 11.53q-.83-.19-1.1-.63l.06-10.31q.35-.35 1.13-.59"/><path fill="#fc0101" fill-opacity=".996" d="m239.74 163.9-9.69 15.96a4.32 4.28 1.5 0 1-1.69 1.59l-9.53 5.02q-.36.02-.91.36c-2.13 1.24-5.47 2.34-6.79 4.55q-5.03 8.44-10.2 16.87.38-1.74-.73-1.36.39-.82.41-1.65.1-8.01.16-16.11.02-2.14-1.01-3.96-2.05-3.6-4.44-7.36.23.16.57-.84l5.5 9.05a2.78 2.7 30.1 0 1 .4 1.42l-.01 15.87q0 .79.41.12l8.52-14.01q1.03-.88.15-2.39l.43-17.23.68.19.37 6.28q-.42.6-.22 1.26l-.07 8.9a1.27 1.27 0 0 0 1.92 1.11l3.19-1.88q.58.04.97-.4 4.43-2.15 8.68-4.54 1.84-1.04 2.96-2.88 4.44-7.26 8.87-14.57.27.44 1.1.63"/><path d="M108.47 167.18q-.41-.03-.47.19l-.95-.39q-.04-.84.16-1.28z"/><path fill="#fc0101" fill-opacity=".996" d="m201.9 165.71.17 6.92-1.4.06-.11-3.48z"/><path d="m108.06 169.09.04 10.32q.34.37.07 1.18c-.24 1.65-.38 3.56.58 5.05q1.72 2.67 3.26 5.47.27.48.72.17l7.04-4.73q.83 1.07 1.17.77l-7.29 5.14q-.42.29-.15.74l4.73 8q-.34.31-.43.63l-5.29-7.97q-.32-.48-.81-.15l-22.41 15.24a1.26 1.24-20.7 0 0-.54 1.18l2.21 19.26q-.95-.96-1.21-1.58l-1.98-18q.43-.4.14-1.18l14.66-10.1q1.3-.63 1.5-1.14l7.06-4.89a.55.55 0 0 0 .16-.73l-3.44-5.75a5.48 5.39 30 0 1-.79-2.85l.02-14.54q.3.35.98.46"/><path fill="#fc0101" fill-opacity=".996" d="m191.63 169.96 3.53 5.76-.62.85-3.1-4.94q-.13-.83.19-1.67"/><path d="m202.07 172.63 8.79 14.4q.88 1.51-.15 2.39l-10.04-16.73zM3.27 175.93l-.32.78L0 175v-.87q1.74.41 3.27 1.8"/><path fill="#fc0101" fill-opacity=".996" d="m173.74 174.14 16.39 8.54q.29.91.03 1.24l-16.88-9.19q.3-.25.46-.59M3.27 175.93l10.15 16.2q.46.73 1.22 1.13l16.89 8.75-.56.99-18.57 1.06a3.9 3.9 0 0 0-1.92.66L0 211.87v-.95l10.27-7.17a3.93 3.89-64.1 0 1 1.99-.7l15.27-.93q1.79-.11.2-.95l-14.04-7.39q-.21-.54-.86-.79l-9.88-16.28z"/><path d="M212.12 177.53q-.2-.66.22-1.26.28.88-.22 1.26M215.99 181.13l-.8 1.06q-1.25-1.51-1.75-3.46-.06-.25.19-.31l.26-.06a.16.15-12.8 0 1 .19.11q.41 1.81 1.91 2.66M216.35 182.6l1.78 2.66q-.39.44-.97.4l-1.33-2.19q0-.3.52-.87"/><path fill="#fc0101" fill-opacity=".996" d="m184.18 195.02-.93.11-.01-11.67q0-.27.27-.26l.44.02q.24.02.24.25z"/><path d="M218.83 186.47c1.06 1.84 3.48 4.87 3.48 6.92q-.02 9.2-.02 18.07a2.65 2.61-29.8 0 1-.38 1.36l-9.85 16.21-.49-.95 9.46-15.68a1.77 1.73 61.4 0 0 .26-.92l.01-18.5q0-.49-.25-.92l-3.13-5.23q.55-.34.91-.36M156.28 204.25l-2.26-.87-7.35-12.17q-.68-1.13-.58.18c.11 1.51.17 2.46-.74 3.81q-.89 1.34-1.51 2.85l-.93-.39 1.97-3.61q.23-.44.22-.93l-.07-4.65q.84-.11 1.31-.7z"/><path fill="#fc0101" fill-opacity=".996" d="M104.07 197.39q-.2.51-1.5 1.14l-16.59 1.01a4.99 4.96-32.7 0 1-2.6-.56l-16.26-8.54q-.3-.16-.08-.43l.21-.25a.41.4-56.7 0 1 .5-.11l16.57 8.68a2.11 2.05-32.1 0 0 1.07.23z"/><path d="M13.69 193.78 0 203.15v-1.13l12.83-9.03q.65.25.86.79"/><path fill="#fc0101" fill-opacity=".996" d="m184.22 196.29.02 6.66q-.19.24-.91.27l-.1-6.88q.06-.09.25-.16.14-.06.29-.02.25.05.45.13"/><path d="M143.13 198.94q-3.24 5.2-6.53 10.46c-1.09 1.75-.7 4.51-.79 6.51l-.88.05-.17-5.03.43-.8 7.06-11.65q.81.15.88.46"/><path fill="#fc0101" fill-opacity=".996" d="m118.23 201.2 16.96 8.93-.43.8-16.96-9.1q.09-.32.43-.63"/><path d="M48.6 210.96q-.29.69-.7.96L30.97 203l.56-.99zM190.43 213.05l-.16 1.71-6.94-11.54q.72-.03.91-.27z"/><path fill="#fc0101" fill-opacity=".996" d="M191.45 203.55q-.04 1.92.09 3.81.14 1.88 1.07 3.59 1.14 2.06 2.46 4.11-.24 1.33-.77 1.61-.6-2.8-2.58-4.92-.45-.48-.35.16l.57 3.77q-.39.39-.32 1.41-.38 2.13-.02 3.89.4 2.6-1.14 2.98l-18.97-10.06q1.9.47 2.18-.35l16.4 8.57a.25.25 0 0 0 .37-.23l-.17-7.13.16-1.71.14-9.32q.4-.57.88-.18"/><path d="M120.07 216.95q.16.64-.16.94l-17.69-8.88a.42.41 20.4 0 1-.22-.47l.08-.3q.17-.65.77-.34z"/><path fill="#fc0101" fill-opacity=".996" d="M87.91 208.63q.29.78-.14 1.18l-19 1.24q-.5.03-.91.32l-15.41 10.66q-.1-.27-.56-.42l13.86-9.93q.96-.68-.22-.61l-16.01.96a1.08 1.07-79.3 0 0-.91.63l-7.7 17.2q-.54-.21-.75-.55l7.74-17.39q.41-.27.7-.96zM201.8 212.18l5.38 8.63.74 1.11 3.65 6.16.49.95-.06 20.44-.96-.26-.05-19.22a1 .99-76.1 0 0-.53-.88l-5.24-2.7q-.5-.34-1.07-.39l-2.9-1.74q-.45-.27-.3.23l.58 1.89-.7.3c-1.8-3.63-3.2-4.66-7.11-6.24l.59-.8 2.52 1.32q.44.23.29-.24-.49-1.58-1.7-3.04-.03-.46.57-1 1.66 2.72 3.36 5.21.85 1.25 5.68 3.1.33.29.69.38l3.5 2.02q.47.27.29-.25-.75-2.19-2.4-4.06.27-.37-.45-.87l-5.78-9.7q.31-.34.92-.35"/><path d="m207.92 221.92-.74-1.11q.28.06.4.03.12-.02.17-.14 1.33-2.97 3.31-5.69.07-.1.18-.07l.4.1a.27.27 0 0 1 .16.4zM135.91 217.04l.06 13.7q-1.46-1.15-1.09-2.08l.01-11.39z"/><path fill="#fc0101" fill-opacity=".996" d="M173.93 253.64q-.01.42-.68.7-4.73-7.56-9.4-15.36-1.22-2.02-1.21-3.96.07-8.79.03-17.48 0-.43.43-.43h.31q.28.01.28.28l-.01 18.82q0 .52.26.96z"/><path d="M51.89 221.61q.46.15.56.42l-7.83 17.52q-.19.41-.6.22l-.27-.12q-.21-.09-.12-.3 3.92-8.84 7.91-17.66.03-.06.09-.06zM207.11 223.1l-1.39 2.29q-.36-.09-.69-.38l1.63-2.78q.72.5.45.87"/><path fill="#fc0101" fill-opacity=".996" d="M239.44 242.95q-.46.06-.63-.31l.07-19.48a.38.38 0 0 1 .48-.36l.35.11q.14.04.14.19l-.01 19.32q0 .18-.13.31-.15.15-.27.22M89.75 227.81q.26.62 1.21 1.58l7.46 12.58q-.39.18-.73.74l-7.05-11.68a.27.27 0 0 0-.48.03l-7.47 16.02q-.14-.31-.56-.48l7.27-16.21q.31-.69-.07-1.34l-1.72-2.97q-.26-.45.23-.61.14-.05.29-.02.14.03.27.18.8.96 1.35 2.18"/><path d="M205.22 226.41q-1.17 1.82-2.2 3.69-1.02 1.83-1.05 4.05-.08 5.94-.05 11.89-.71-.39-1.26-.25l.17-19.09.7-.3.33 2.99q.06.52.31.07l1.98-3.44q.57.05 1.07.39M40.16 229.31q.21.34.75.55-.25.02-.42.32-.15.25-.4.42l-14.9 10.31a3.56 3.48 25.5 0 1-1.78.61l-18.62 1.14q-.36.02-.39-.34l-.02-.35q-.02-.28.27-.3l18.44-1.14q.98-.06 1.78-.61zM134.76 249.9q.65-.04.56 1.02l-18.58 1.1a4.31 4.26-32.6 0 1-2.24-.48l-16.81-8.83q.34-.56.73-.74 7.66 4.17 15.45 8.12 1.88.95 3.98.84 8.52-.46 16.91-1.03M239.44 242.95l-9.61 16.33a2.92 2.91-88.4 0 1-1.19 1.13l-16.26 8.5a2.04 1.93.3 0 0-.77.72l-9.82 16.34q-1.34-.1 0-2.16l8.85-14.63a.82.81 45.6 0 0 0-.85l-9.78-16.3q.5-.27.9-.26l8.65 14.32q.57.95.57-.15l.06-16.73.96.26v18.17a.21.21 0 0 0 .31.19l15.74-8.24a2.82 2.81-88.3 0 0 1.12-1.06l9.64-15.89q.17.37.63.31"/><path fill="#fc0101" fill-opacity=".996" d="m201.92 246.04-.16 5.73q-.4-.01-.9.26-.29-1.87.1-3.38.04-.14-.05-.27-.08-.11-.27-.05-.17.05-.26.21l-4.2 6.97q-.31.52 0 1.04l5 8.25a4.37 4.31-60.8 0 1 .62 2.24l-.01 16.77q-1.34 2.06 0 2.16l-5.93 9.98-.46 1.03q-1.64 2.11-2.83 4.4-1.09 2.1-1.08 4.98.02 7.97-.02 15.93-.45.1-.94 0l.03-18.52a1.05 1.03-76.3 0 0-.55-.92l-16.74-8.82q.71-.95-1.13-1.9l-9.48-15.74.98.02 9.38 15.5a4.12 4.08-1.6 0 0 1.6 1.5l15.83 8.25q.02.35.37.54.43.22.56-.25l.55-1.96 2.57-4.53q.71-.43.75-1.1 2.33-3.66 4.44-7.29 1.12-1.93 1.11-3.76-.08-8.35.01-16.52 0-.59-.3-1.1l-4.98-8.32a.27.26 45.3 0 0-.45-.01l-3.53 5.87q-.41-.88.1-2.16l2.63-4.34a1.32 1.32 0 0 0 0-1.36l-2.54-4.21q.12-.52-.15-2l3.45 5.45a.27.27 0 0 0 .46-.01l5.16-8.81q.55-.14 1.26.25"/><path d="M82.13 246.6q.42.17.56.48 0 .1-.02.26-.02.08-.08.13-7.8 5.45-15.82 10.95a.29.29 0 0 1-.41-.07l-.22-.31q-.17-.24.07-.41zM163.64 276.41l-.98-.02.05-19.3q0-.28.28-.28h.35q.29 0 .29.28zM146.59 267.74q4.4 7.17 8.76 14.38 1.05 1.75 2.82 2.73 6.9 3.83 13.97 7.28 1.84.95 1.13 1.9l-16.63-8.81a1.24 1.23-48.3 0 0-1.28.08l-14.66 10.14q-.91.63-2.02.7l-17.89 1.1a3.72 3.71-33 0 1-1.98-.42l-16.48-8.62q-.29-.16-.16-.46l.16-.34q.12-.26.37-.13l16.67 8.71q.58.31 1.25.27l18.35-1.13q.48-.03.88-.3l14.73-10.19q.54-.38.2-.94l-9.04-14.94q.12-.18.1-.43-.04-.36.31-.46zM195.86 295.95l5.48 8.9a3.01 2.98 29.5 0 1 .44 1.56v17.6a5.37 5.3-29.9 0 1-.76 2.74l-9.46 15.75q-.9-.05-1.13.12l-17.45-9.29q.36-.41.78-.58l16.21 8.48q.57.29.57-.34l-.01-18.6q.49.1.94 0l-.03 17.35q0 1.05.54.15l8.4-13.91a2.67 2.67 0 0 0 .39-1.39v-17.95q0-.88-.46-1.62-2.17-3.46-4.34-7.2.02-.82-.57-.74z"/><path fill="#fc0101" fill-opacity=".996" d="M173.76 332.75q-.42.17-.78.58-4.72-7.68-9.17-15.24-1.16-1.97-1.16-3.74.04-8.91.04-17.51 0-.47.46-.46h.3q.22 0 .22.22l.01 18.91q0 .52.27.96zM191.56 342.5l-.01 39.5h-1.11l-.01-39.38q.23-.17 1.13-.12"/></svg>