<svg xmlns="http://www.w3.org/2000/svg" viewBox="0 0 382 382"><g fill="none" stroke="#f8c903" stroke-opacity=".996" stroke-width="2"><path d="m103.17 68.71-.97.26M92.5 64.65q-.36.43-.79.63M70.53 57.29l-.17 1.13M73.67 62.23l-.66 1.04M74.62 67.47q.4-.09.96.01M79.23 68.2q.39.25.57 1.1M75.39 69.25q-.09.1-.44.12M74.1 69.21q-.34.32-.85.42M70.83 73.65q-.45.89-.92.81M72.77 78.36q.52.76.26 1.07M46.23 8.03q.36-.33.34-.72a.24.24 0 0 0-.36-.19q-.28.17-.36.7M53.29 8q-.09.13-.24.14-.2.01-.05.15.1.09.29.15M53.73 24.49q-.11-.13-.23-.17a.17.17 0 0 0-.22.12q-.03.16.2.35M85.7 48.49q.14-.26-.37-.3-.07-.01-.11.06-.07.11.07.22M90.37 54.48q-.03.14.01.24.03.08.14.13.42.19.45-.08M41.24 59.88q.09-.32.54-.27v.01l-.55-.03M124.26 66.3q.06.04.11.07.09-.46-.06-.83M124.24 58.2q.24-.36.09-.63M125.2 74.33q-.66.59.04.96M175.28 137.45q.09 1.01-.22 1.56M178.2 142.58l.31.44q.19.29-.08.51-.09.08-.24.16M174.99 144.72q-.91.36-1.36-.98M173.07 143.63q-.27.16-.43.42M169.81 163.99q-.56.77-.43 1.13M169.46 168.72q-.59-.16-1.18.03M167.61 169.18q.24 1.46 1.71 1.57M169.42 172.45q-.54.13-.91.5M160.33 164.06q-.53-.29-1.08-.36M158.32 163.85q-.47.03-.85-.13M154.21 163.36l-.75.67M149.34 166.15q-.09.6-.88.95M148.09 167.5q-.23.37-.64.65M125.3 180.97q-.69.61-1.58.67M124.24 185.79q.45-.15 1.04-.02M128.96 186.4q-.04.99.36 1.06M128.21 191.94q.05 1.05-.34 1.27M125.41 202.88l-.19 1.06M129.06 204.2q.56-.37 1.02.62M133.28 207.28q.52-.34 1.01-.43M135.35 205.08l1.18.18M137.01 204.8q.85-.32 1.52-1.02M135.92 199.34q-.75.14-1.46-.07-.52-.16-.57-.7-.03-.3.09-.65M135.27 197.72q.86-.2 1.03.2M139.7 197.86q.64.02 1.12-.21M163.65 207.32q.48-.67.5-.86M174.01 206.53l.97.5M175.38 203.8q-.01-.58.4-.98M172.55 176.39l2.2.21M179.05 176.21q-.23-1.25-.48-1.37M175.28 171.33q.16-.07.24-1.17M186.06 181.49q-.14.65-.99.7M187 198.72l-.55.83M190.52 210.41q.11.6.99.63M191.47 259l-.82-.31M190.55 259.05q.31.82.94.84M173.22 339.01q.34-.49.26-.89-.12-.56-.4-.07-.14.25-.13.78M145.76 298.67q.38-1-.25-1.28M151.09 280.78q-.19.7 0 1 .6.95.6-.18-.01-.25-.15-.79M76.07 192.95q-.65-.1-1.11.13M75.04 193.32q.94-.08 1.03-.37M99.22 179.85q.54-.27-.43-.21M79.4 92.55q-.11-.78.38-.91M77.57 85.42q-.45-.39-.62-.89M78.38 83.44q-.12-.48.88-.76M80.07 80.62l1.21.12M81.93 80.54q.56-.37.81-1M85.59 75.58l1.13-.91M102.17 91.25q.38.7-.26 1.09M97.62 87.86q-.16.49-.88.13M102.04 100.65l1.12-.19M112.81 88.98q-.26-.73-.06-1.04M128.72 94.83q0 .72.3 1M129.53 95.99v-.94M124.29 74.41q.21-.6 0-.88M96.71 120.37q.41.3.94.35M97.76 120.49q-.5-.62-1.01-.44M96.21 119.5l-.21-.24q-.13-.16-.28-.02l-.22.21M90.77 119.72q.25-.18-.24-.18a.06.06 0 0 0-.03.11q.2.11.27.07M117.54 174.88l-.05.86M117.78 176.22l.77-.1a.24.24 0 0 0 .14-.41q-.12-.12-.39-.25M122.99 188.05q.81.21 1.16 0a.37.37 0 0 0-.08-.67q-.88-.28-1.21.46M112.36 185.25q-.19.18.08.26.19.06.13-.19a.13.13 0 0 0-.21-.07M140.3 205.14q-.24.02-.19.24.05.2.07.22.07.07.27.03M107.4 209.21q-.1-.16-.25-.24-.15-.07-.31-.01-.12.05-.18.18-.06.15.08.23.1.06.25.09M151.13 216.98q-.1.23-.01.36.09.14.25.04.07-.04.13-.09M156.7 222.21q-.15.2.17.48M156.93 222.68q.08-.2.03-.36M130.93 221.24q-.12-.21-.32-.37-.79-.62-.35.38.12.28.46.39M134.92 230.6l.27.01q.17 0 .23-.16.05-.17-.11-.24M148.56 227.61l-1.98-.47q-.42-.1-.21.27.17.3.67.43M162.01 229.19q.19.31.5.12.21-.13.3-.37a.44.43-5.4 0 0-.63-.52q-.47.29-.17.77M149.31 233.05l-1.03-.04M179.5 277.28l.93.01M180.25 274.18q-.37-.68-.91-.72M173.2 273.54a.11.1-15 0 0 .09.05q.24.01.23-.15-.02-.3-.3-.17-.14.06-.02.27M156.58 286.79q-.07.99.58 1.4.4.25.44-.22.03-.47-.44-.97M169.39 316.46q-.62.48.05.84M168.31 316.3q.37.48.57.16.23-.35-.39-.5" vector-effect="non-scaling-stroke"/></g><path fill="#f7df03" fill-opacity=".996" d="M44.64 0q.81.4 1.51 0h1.26l10.42 11.19a.1.09 24.3 0 0 .17-.06l.05-6.1q0-.29-.2-.51L53.7 0h1.07l2.64 2.59q.37.36.47-.14.24-1.17.09-2.45h1.04l-.03 36.28a1.1 1.1 0 0 0 .3.76l2.37 2.64q.4.45 1 .49l5.42.39q.68.05.21-.45l-4.03-4.31q-.13-.15-.04-.32l.17-.3a.38.38 0 0 1 .61-.07l10.38 11.16a1.43 1.42 70.3 0 0 .93.44l8.69.59a.61.6-87.8 0 0 .64-.6v-3.34a.56.56 0 0 0-.52-.56l-6.64-.5q-.63-.04-1.06-.5l-5.08-5.46a.28.28 0 0 1 .09-.45l.38-.18q.17-.08.31.06l4.74 5.06a1.76 1.75-20.8 0 0 1.23.55q3.87.08 5.26.52a.34.33-15.3 0 0 .33-.57q-4.71-4.12-4.65-6.26.08-3.02.04-6.11a1.19 1.18-66.8 0 0-.32-.81q-1.96-2.16-4.21-4.51c-1.5-1.57-.99-5.83-.92-7.99a.95.94 2.8 0 0-.89-.97l-6.13-.43q-.79-.06-1.32-.63l-4.9-5.25q-.24-.26.01-.51l.2-.2q.23-.23.44.01l4.6 4.88q.64.68 1.57.75l4.87.35q.82.06.26-.53L69.5 8.99q-.4-.42-.4-1L69.07 0h.84l.19 7.53q.01.67.47 1.16l9.36 10.04a.09.09 0 0 0 .16-.06l.01-6.1q0-.24-.16-.41l-4.93-5.37q-.38-.41-.38-.97L74.64 0h.8l.11 5.21a2 1.96 23.2 0 0 .53 1.29l3.65 3.95q.4.43.39-.16l-.04-5.84q0-.31.3-.36l.28-.05q.43-.07.43.37v31.32a1.19 1.16-67.5 0 0 .33.82l20.63 22.17a.09.09 0 0 0 .16-.06l-.04-6.14q0-.28-.19-.49l-4.9-5.3a1.6 1.6 0 0 1-.43-1.09l.01-6.43a.76.76 0 0 0-.7-.77l-6.58-.51a1.55 1.53 70.9 0 1-1.01-.5l-4.92-5.36a.45.45 0 0 1 .01-.61l.22-.22q.17-.16.33.01l4.8 5.13q.54.57 1.32.63l5.37.42a.17.17 0 0 0 .14-.29l-4.12-4.49a1.58 1.56-66.7 0 1-.42-1.07l.03-6.9q.01-.49-.32-.84l-4.71-5.1q-.49-.53-.49-1.26v-7.17q0-.47.46-.36l.4.09q.16.03.16.19l-.02 6.98q-.01.58.39 1.01l3.56 3.86q.57.61.57-.23l-.01-5.55a.41.4-6.3 0 1 .32-.39l.32-.07a.31.31 0 0 1 .38.3l-.01 15.08a1.67 1.64 23.8 0 0 .45 1.13l9.41 10.11a.1.1 0 0 0 .17-.07l-.01-6.11q0-.27-.19-.47l-4.67-5.01q-.65-.7-.65-1.66l.01-6.99q0-.32.32-.32h.35q.35 0 .35.34l-.01 6.9a1.67 1.66-66.7 0 0 .45 1.14l3.71 3.94q.34.36.34-.13l.02-6q0-.28.28-.28l.29.01q.42.01.42.43v40.53l-.97.26q.07-.56-.27-.89-2.56-2.55-4.93-5.33-.33-.38-.33-.89l-.01-6.42q-.01-.72-.72-.78l-3.4-.24q-.58-.05-.55.54l.51 9.69q-.36.43-.79.63c-1.06-2.07-.59-5.76-.61-8.14q-.01-.5-.35-.87l-6.83-7.33a.71.7-40.6 0 0-.95-.07l-5.18 4.08q-.45.36-1.02.31l-7.33-.54a.33.33 0 0 1-.3-.29l-.03-.36q-.04-.37.33-.34l6.57.46a2.96 2.92-62.1 0 0 2.04-.64l3.61-2.9q.64-.51-.18-.58l-5.68-.46q-.63-.05-1.06-.52l-4.37-4.74q-.66-.72-1.63-.77-2.72-.16-5.72-.4c-1.57-.13-2.6-1.07-3.3-2.33q-.62-1.11-.63.15l-.08 5.35q-.01.54.36.93l11.16 12.01-.17 1.13q-.5 1.57-.22 3.12.1.51.62.54l2.91.15-.66 1.04-2.28-.17q-.71-.05-.7.66l.03 2.96q.01.91.92.97l3.25.2q.19.02.27-.16l.12-.26q.4-.09.96.01-.12.22.05.39.1.1.32.12 1.54.13 3.28.21.39.25.57 1.1l-4.41-.05q-.09.1-.44.12-.44-.46-.85-.16-.34.32-.85.42l-.21-.3a.55.55 0 0 0-.77-.11c-1.46 1.09-3.54 2.38-1.44 4.43q-.45.89-.92.81-2.81-.84-6.4-.59-.2.01-.06.15l3.81 3.93a.78.78 0 0 0 .54.24l4.97.17q.52.76.26 1.07l-5.53-.38q-.69-.05-1.16-.55c-1.92-2.06-4.1-5.51-7.36-5.04q-.48.07-.55.55l-.97 6.52q-.08.57-.53.93l-5.87 4.69q-.18.14-.33-.04l-.26-.29a.33.33 0 0 1 .05-.47l5.51-4.48q.47-.39.55-.98l.81-5.41q.08-.53-.34-.19l-4.6 3.69q-.43.35-.99.31l-6.99-.46q-.57-.04-1.02.31c-1.74 1.36-4.88 4.69-7.17 4.58q-3.29-.14-6.77-.49-.29-.03-.25-.31l.05-.32q.05-.34.39-.32l6.61.46q.97.07 1.73-.55l3.83-3.11q.53-.43-.15-.47l-5.74-.41q-.38-.02-.35-.41l.02-.27a.35.35 0 0 1 .38-.32l15.13 1.07q.54.04.95-.3l6.85-5.55a.48.48 0 0 0 .06-.68l-2.25-2.58a.58.57-39.8 0 0-.79-.07l-5.51 4.32a1.14 1.12 27.2 0 1-.78.24l-7.29-.55q-.38-.03-.35-.4l.02-.31a.3.29-85.3 0 1 .32-.28l6.49.5q.99.08 1.77-.54l3.85-3.08q.78-.63-.22-.63-6.12-.03-7.05-1.13-2.05-2.39-4.46-4.85a1.25 1.23-20.4 0 0-.8-.36l-6.88-.48q-.64-.05-1.08-.52l-4.43-4.83a.7.69-40.6 0 0-.95-.07l-5.1 4.1a1.77 1.75 27.2 0 1-1.24.39l-7.34-.54q-.37-.02-.26-.37l.14-.43q.07-.22.31-.2l6.45.48q1.11.08 1.98-.61l3.66-2.91q.71-.56-.19-.63l-5.73-.44a1.28 1.28 0 0 1-.84-.41l-4.79-5.17a1.26 1.24-18.7 0 0-.82-.4l-6.98-.51q-.7-.05-1.18-.57l-4.93-5.34q-.21-.24.04-.44l.23-.19q.3-.24.56.04l4.63 5a1.82 1.82 0 0 0 1.21.58l5.31.36a.23.23 0 0 0 .19-.39L9.85 42.1q-.19-.19-.01-.4l.23-.26q.21-.25.44-.01l10.48 11.21q.34.37.85.41l13.42.94q.78.05.25-.52l-3.63-3.85q-.41-.43-1.01-.48l-6.45-.47a2.75 2.72-19 0 1-1.81-.87L18 42.79a.46.45-42.7 0 1 .03-.64l.22-.21q.15-.14.29.01l4.78 5.08a2.3 2.26-19.3 0 0 1.51.71l4.86.32q.82.06.26-.54l-3.94-4.21a.33.33 0 0 1 .04-.48l.26-.2q.25-.2.46.03l21.38 22.99q.36.38.89.42l19.25 1.37q.58.05.72-.52.38-1.54-.87-2.67-3.35-3.02-6.19-6.77-.35-.46-.81-.11c-2.12 1.59-4.78 4.72-7.55 4.49q-3.01-.24-6.19-.45-.18-.01-.2-.19l-.05-.42q-.05-.42.37-.38l6.8.52a1.77 1.75 27.2 0 0 1.24-.39l4.28-3.49q.35-.28-.1-.32l-5.95-.41q-.63-.04-1.05-.51l-4.58-4.93q-.48-.51-1.17-.57c-2.18-.19-6.84.1-8.34-1.49q-2.41-2.55-4.61-5.1-.09-.1-.01-.22l.18-.29q.24-.38.55-.05l4.77 5.09q.52.56 1.28.61l5.18.4q.7.05.22-.47l-4.01-4.35q-.27-.29.06-.51l.28-.19q.18-.12.32.03l10.42 11.16q.37.4.92.44l8.68.62q.67.05.67-.63l-.04-3.24q0-.63-.63-.68l-6.37-.46a1.65 1.63 68.6 0 1-1.02-.45q-2.85-2.71-5.26-5.67-.11-.13.02-.24l.22-.19q.31-.26.58.03l5.03 5.4a.35.34-19.5 0 0 .22.1l6.23.5a.15.14 69 0 0 .11-.25q-4.8-4.48-4.71-6.4.16-3.42 0-6.05-.03-.46-.33-.8l-4.77-5.46a1.44 1.39-66.7 0 1-.36-.95l.01-6.59a.56.55-87.8 0 0-.51-.56l-6.61-.51q-.69-.06-1.16-.57l-5.02-5.45q-.16-.18.02-.34l.25-.22q.26-.24.5.02l4.55 4.87q.67.72 1.65.79l4.86.34q.73.05.23-.49l-3.86-4.21q-.32-.36-.34-.84c-.08-2.57.57-6.65-.81-8.77q.36-.33.34-.72a.24.24 0 0 0-.36-.19q-.28.17-.36.7l-5.91-6.47a.68.68 0 0 0-.93-.07l-5.13 4.05a2.17 2.16-61.8 0 1-1.52.46l-6.9-.51q-.44-.03-.4-.47l.03-.3a.28.28 0 0 1 .31-.25l6.92.51a1.61 1.59-62.2 0 0 1.14-.36l3.7-2.99q.71-.58-.21-.6-1.69-.06-3.31-.2-.23-.01-.06-.16.07-.07.17-.05.05.01.1.01 2.33.01 4.54-.42zm-2.56 1.3q-.55.1-.18.51l3.95 4.32a.57.57 0 0 0 .99-.35l.22-3.9q.03-.55-.52-.63-2.24-.33-4.46.05m8.98 4.82q.7.04.22-.48L48.64 2.8q-.6-.66-.62.23l-.05 2.28q-.01.6.59.64zm1.39 1.44a.32.32 0 0 0-.3-.31l-3.85-.32a.32.32 0 0 0-.35.32l.02 9.41a.32.32 0 0 0 .08.21l9.47 10.27a.32.32 0 0 0 .56-.22l-.07-5.82a.32.32 0 0 0-.08-.21l-5.27-5.65a.32.32 0 0 1-.08-.21zm.84.88.1 5.14a2.58 2.57 23.1 0 0 .69 1.7l3.43 3.68a.29.29 0 0 0 .5-.2l.04-5.1a1.75 1.75 0 0 0-.5-1.25L53.29 8q-.09.13-.24.14-.2.01-.05.15.1.09.29.15m26.33 18.13a.32.32 0 0 0 .55-.22l-.11-5.88a.32.32 0 0 0-.08-.21l-3.97-4.32a.32.32 0 0 0-.55.22l.13 5.86a.32.32 0 0 0 .08.21zm-26.14-1.78L53.45 30a1.83 1.82-66.6 0 0 .51 1.29l3.52 3.76q.5.54.5-.2l.03-5.13q0-.67-.46-1.15l-3.82-4.08q-.11-.13-.23-.17a.17.17 0 0 0-.22.12q-.03.16.2.35m48.72 25.46-.04-5.36a1.99 1.98-66.5 0 0-.53-1.35l-3.53-3.8q-.47-.51-.47.18l.03 5.26a1.82 1.81-66.5 0 0 .48 1.23l3.7 3.98q.36.4.36-.14m-12.58-3.41-2.46-2.66q-.58-.62-.57.22v2.11q.01 1.14 1.15 1.02.73-.07 1.42.1 1.56.38.46-.79m-4.33 1.63q.03.34.21.41.19.08.21-.12.02-.13-.01-.27.14-.26-.37-.3-.07-.01-.11.06-.07.11.07.22m5.84 4.02v-3.16q0-.56-.56-.61l-3.11-.26a.87.87 0 0 0-.8 1.34q1.23 1.88 3.05 3.37a.87.87 0 0 0 1.42-.68m1.01-2.23.03 2.47q0 .59.59.64l2.45.23q.73.07.24-.47l-2.81-3.06q-.5-.55-.5.19m-24.46 6.09q.71.06.22-.46l-2.92-3.1q-.49-.51-.47.2l.06 2.46q.01.64.64.69zm22.69-1.87q-.03.14.01.24.03.08.14.13.42.19.45-.08.12-.24-.11-.36-.39-.2-.49.07m-49.13 5.4q.09-.32.54-.27v.01l-.55-.03-3.6-3.84q-.59-.63-1.45-.69l-5.01-.37q-.81-.06-.25.53l3.5 3.75q.37.39.91.44zm60.93 6.95-.01-6.33q0-.14-.09-.25l-4.28-4.6a.12.12 0 0 0-.21.08l.1 6.21q0 .22.16.39l4.22 4.54a.06.06 0 0 0 .11-.04M63.9 57.71q.16-.38-.27-.32-.4.06-.11.34.28.25.38-.02m1.16-.51a.63.63 0 0 0-.6.92q1.23 2.37 3.54 3.9a.64.64 0 0 0 1-.52l.08-3.15q.02-.89-.87-.95zm-2.59 11.5a.34.34 0 0 0-.16-.62l-3.94-.41a.34.34 0 0 0-.29.57l1.79 1.94a.34.34 0 0 0 .45.05zm7.93-.3q.23.68.47.01.02-.08-.02-.15-.23-.37-.43.01-.04.06-.02.13m-4.11.54q.53.73 1.12 1.17.21.15.35.36.3.42.69.41.6-.01.58-.6l-.05-1.36a.53.52.6 0 0-.5-.5l-1.83-.12q-.87-.06-.36.64m-5.15 2.1a.43.43 0 0 0 .1.73q2.99 1.29 5.77.47a.47.46-29.1 0 0 .22-.75l-2.35-2.64a.68.68 0 0 0-.93-.08zm-1.16 1.28q-.14.05-.1.2.03.13.15.07.06-.03.09-.11.11-.24-.14-.16"/><path fill="#f8b202" fill-opacity=".996" d="M46.23 8.03q-.2-.03-.38-.21.08-.53.36-.7a.24.24 0 0 1 .36.19q.02.39-.34.72M53.29 8q-.23.43 0 .44-.19-.06-.29-.15-.15-.14.05-.15.15-.01.24-.14M53.73 24.49q-.31.1-.25.3-.23-.19-.2-.35a.17.17 0 0 1 .22-.12q.12.04.23.17"/><path fill="#f7df03" fill-opacity=".996" d="M124.26 66.3q.06.04.11.07.09-.46-.06-.83l-.05-5.07a1.79 1.74-67.4 0 0-.46-1.17l-4.68-5.08a1.5 1.5 0 0 1-.39-1.01v-7.5q0-.47.44-.29l.38.16q.17.07.17.25l.02 7.04q0 .5.34.87l4.16 4.46q.24-.36.09-.63l.08-5.95q0-.22.22-.23l.3-.01q.26-.01.26.25l.01 22.7q-.66.59.04.96l.1 7.93q.01.56.4.98l20.18 21.69q.45.49.45-.18l-.06-5.06q-.01-.97-.67-1.68l-4.25-4.59a2.12 2.1 23.6 0 1-.57-1.44l.04-6.16a.87.86-87.9 0 0-.8-.87l-6.43-.48q-.63-.05-1.05-.51l-4.99-5.36a.38.37 50.3 0 1 .05-.56l.25-.19a.31.31 0 0 1 .41.03l4.99 5.38q.16.17.39.19 3.13.27 6.31.44a.04.04 0 0 0 .03-.07q-2.25-2.26-4.07-4.43-.74-.89-.68-2.3.15-3.06 0-5.96a1.47 1.44 22.1 0 0-.4-.92l-4.66-5q-.41-.44-.41-1.03v-7.47q0-.35.35-.32l.3.02q.3.03.3.33l.04 6.99q0 .64.44 1.1l3.56 3.81q.53.56.53-.21l.01-5.76q0-.48.46-.38l.35.08q.14.03.14.18l.02 15.24q0 .55.37.95 4.72 5.13 9.63 10.36.05.05.08-.01.05-.11-.08-6.34 0-.2-.14-.35l-4.9-5.36a1.64 1.62 24.1 0 1-.43-1.1v-7.42q0-.26.26-.25l.44.02a.27.27 0 0 1 .26.27l.04 6.81q0 .8.54 1.4l3.63 3.96q.37.41.37-.15l-.02-6.01a.32.32 0 0 1 .33-.32l.37.02q.29.01.29.3l.01 55.49q0 .54.35.96l2.26 2.64q.36.42.91.46l5.37.43q.82.07.27-.54l-3.89-4.23q-.24-.26.05-.47l.31-.22q.19-.14.36.04 4.91 5.23 9.71 10.41c1.31 1.4 2 1.14 3.69 1.26q3.2.24 6.75.43a.43.42 1.3 0 0 .45-.42l-.02-3.44q0-.59-.59-.64l-6.58-.47a1.52 1.52 0 0 1-1.01-.48l-4.97-5.31q-.21-.22-.03-.48l.17-.22q.25-.35.54-.03l4.95 5.32q.21.23.53.26 3.12.24 6.18.35a.07.07 0 0 0 .05-.12q-4.66-4.33-4.72-5.87-.13-3.16-.02-6.55.02-.64-.42-1.11l-4.36-4.67a2.78 2.75 23.6 0 1-.75-1.89l.01-6.13a.65.65 0 0 0-.6-.65l-6.24-.44a2.51 2.5 70.3 0 1-1.64-.78l-4.75-5.11q-.2-.22.01-.43l.2-.19a.43.43 0 0 1 .62.02l4.87 5.24q.16.17.39.19 3.28.28 6.48.45a.03.03 0 0 0 .02-.05q-2.65-2.43-4.57-4.9-.32-.42-.32-.94l-.01-6.81q0-.54-.36-.93l-4.67-5.02q-.46-.5-.46-1.19v-7.29q0-.43.42-.37l.27.04a.34.34 0 0 1 .29.34l.01 6.88q.01.72.5 1.24l3.48 3.72q.54.58.54-.22l-.03-5.72q0-.25.26-.27l.37-.02q.4-.03.4.38v15.07q0 .58.4 1l9.53 10.17a.1.1 0 0 0 .17-.07l-.1-6.16a.75.74-67.2 0 0-.19-.47l-4.57-4.95q-.73-.79-.73-1.87l.03-6.92q0-.17.16-.18l.64-.02q.19-.01.18.17l-.02 7.01q0 .67.46 1.16l3.75 4q.34.36.33-.13l-.03-5.96q0-.31.31-.31h.43q.29 0 .29.3l.01 31.25q0 .51.34.89l5.51 6.01q.09 1.01-.22 1.56l-.04 2.73q-.01.55.53.6l2.65.24.31.44q.19.29-.08.51-.09.08-.24.16-4-.93-3.2 1.03-.91.36-1.36-.98.2-.24.01-.41-.28-.26-.57.3-.27.16-.43.42-.44-.28-.83-.36-.34-.08-.62.14l-4.98 4.02q-.5.4-1.13.35l-7.52-.64q-.22-.01-.2-.24l.02-.3q.03-.34.37-.32l6.94.45q.72.04 1.28-.41l4.01-3.18q.62-.5-.18-.56l-5.55-.41a1.46 1.46 0 0 1-.91-.41q-2.15-2.06-4.32-4.6c-.82-.97-1.82-1.16-3.02-1.18q-2.57-.05-5.64-.41a1.44 1.39 72.4 0 1-.93-.5l-1.57-1.9q-.52-.62-.52.19v5.49q0 .58.4 1.01l22.07 23.71q-.56.77-.43 1.13l.08 3.6q-.59-.16-1.18.03l.05-3.78q.01-.52-.49-.65-1.82-.47-3.31-.32a.93.93 0 0 0-.55 1.58l3.63 3.6q.24 1.46 1.71 1.57.2 1.02.1 1.7-.54.13-.91.5-.22-1.06-.56-1.39-3.52-3.44-6.71-7.18-.24-.29-.62-.31l-.29-.01q-.53-.29-1.08-.36-.24-.46-.93.15-.47.03-.85-.13-1.41-.71-3.26-.36l-.75.67q-.67-.89-1.56-.13-1.32 1.12-2.56 2.25-.09.6-.88.95-.29.11-.37.4-.23.37-.64.65-.79.48-.9 1.72-.25 2.96-.92 5.79-.12.51-.53.84l-5.64 4.52q-.22.17-.41-.03l-.17-.19a.39.38-41.6 0 1 .04-.57l5.42-4.39q.46-.37.55-.95l.8-5.38q.1-.62-.39-.23l-4.59 3.62a1.6 1.6 0 0 1-1.09.34l-6.88-.51q-.55-.04-.99.31l-4.99 4.06q-.4.32-.89.42-1.42.28-2.92-.01-.89-.17-.29.5l2.64 2.96q-.69.61-1.58.67l-3.18-.31a.88.88 0 0 0-.79 1.4q1.38 1.86 2.85 3.15.95.84 1.64-.09.45-.15 1.04-.02.01.19.11.32.08.11.27.14 1.5.22 3.3.17-.04.99.36 1.06l-3.51-.11q-.67-.02-.65.66l.09 3.05a.72.7 1.9 0 0 .65.68l2.31.2q.05 1.05-.34 1.27-1.33.5-2.36 1.88-.31.41-.29.93l.19 6.86-.19 1.06q0 1.21.68 2.06.32.41.78.16 1.36-.73 2.38-1.96.56-.37 1.02.62l-2.29 1.98q-1.06.92.29 1.32 2.71.79 4.97.23.29-.07.42-.35.16-.34-.19-.72.52-.34 1.01-.43.87.53 1.06-1.77l1.18.18q.2.45.48-.46.85-.32 1.52-1.02l1.74.16a.5.49 3.1 0 0 .55-.49v-3.49q0-.53-.52-.54l-4.38-.08q-.75.14-1.46-.07-.52-.16-.57-.7-.03-.3.09-.65 1.02.28 1.29-.2.86-.2 1.03.2 1.52.47 3.47.31.2-.02.13-.2-.05-.12-.2-.17.64.02 1.12-.21l49.37 53.08q.38.4.37-.15l-.08-5.69q-.01-.48-.34-.84l-4.54-4.9q-.57-.62-.57-1.46l-.01-6.31a.75.74-88 0 0-.69-.75l-6.52-.49q-.65-.05-1.09-.52l-4.98-5.34a.34.34 0 0 1 .02-.48l.23-.21q.24-.23.46.01l4.81 5.08a1.42 1.39 70.2 0 0 .93.45l5.41.46q.89.08.25-.54c-1.77-1.7-4.62-4.06-4.47-6.63q.17-2.87.03-5.57-.03-.54-.4-.93l-6.88-7.29a.6.59 49 0 0-.81-.06l-5.09 4.11a1.62 1.59-61.7 0 1-1.13.35l-7.51-.59q-.58-.04-.26-.53l.17-.25q.09-.14.26-.13l7 .44q.73.05 1.3-.42l3.83-3.11q.73-.6-.21-.67l-6.03-.45q.48-.67.5-.86 4.79.29 9.42.58.25.02.34-.1.11-.14.1-.41l.97.5 2.97.36q.64.07.22-.41l-2.79-3.18q-.01-.58.4-.98l14.27 15.39q.47.51.47-.19v-5.22q0-.56-.35-1-1.94-2.45-4.3-4.7-.84-.8-.86-1.93-.06-3.09-.06-6.36a.64.64 0 0 0-.59-.64l-6.64-.49q-.63-.05-1.06-.52l-4.93-5.37q-.12-.13-.04-.29l.13-.26q.25-.5.63-.09l4.53 4.85q.69.74 1.69.81l4.71.33q.98.07.3-.64l-3.76-3.92q-.41-.43-.41-1.01l-.04-6.32a3.5 3.47 23.8 0 0-.91-2.32l-6.01-6.54 2.2.21q1.35 2.92 3.95 4.1.71.33.72-.46l.05-3.47q0-.29-.21-.49-.49-.45-.21-.07-.23-1.25-.48-1.37l-3.29-3.51q.16-.07.24-1.17l10.54 11.33q-.14.65-.99.7-2.1-.51-4.09-.29-.52.06-.52.58l-.03 8.51a1.58 1.57-66.2 0 0 .41 1.06l6.16 6.67-.55.83q.12-.35-.26 0-.11.12-.12.28l-.06 5.38q0 .49.33.85l4.18 4.35q.11.6.99.63l-.04 47.96-.82-.31-.09-5.21a2.2 2.19 23.4 0 0-.58-1.46l-3.39-3.71q-.51-.57-.52.2l-.06 5.22q-.01.59.41 1.02l4.13 4.3q.31.82.94.84L191.48 382h-.76l-.33-7.48q-.02-.55-.39-.96l-4.61-5.03q-.41-.45-.42-1.06l-.01-6.45a.77.76 2.5 0 0-.7-.76l-6.42-.46a1.83 1.81 70.9 0 1-1.18-.58l-4.87-5.26a.42.41-50.3 0 1-.04-.5l.16-.24q.22-.34.5-.04l4.67 5.01a2.08 2.05-18.9 0 0 1.37.66l5.16.37q.69.05.22-.45l-3.87-4.14q-.51-.54-.51-1.29l-.01-6.76q0-.53-.35-.93l-5.87-6.64q.34-.49.26-.89-.12-.56-.4-.07-.14.25-.13.78-.4-.43-.8-.61-.5-.24-.94.11l-4.78 3.86a2.08 2.04-62 0 1-1.45.46l-7.35-.52q-.35-.03-.26-.37l.09-.31q.07-.27.34-.25l6.59.44q1 .06 1.79-.56l3.8-3.01q.7-.55-.19-.6l-5.5-.37a1.55 1.55 0 0 1-.99-.45q-2.2-2.14-4.24-4.55-.96-1.12-2.43-1.17-3.14-.12-6.06-.42-.72-.08-1.21-.61l-4.77-5.21q-.27-.3.03-.56l.23-.21a.25.25 0 0 1 .36.02l4.6 4.94q.69.73 1.69.79l4.71.26q.95.06.28-.62l-3.84-3.95a.42.42 0 0 1 .01-.6l.31-.29q.15-.15.3.01l10.31 11.12a1.61 1.6-19.3 0 0 1.03.49l8.72.67a.52.52 0 0 0 .57-.51l.04-3.38q.01-.6-.58-.64l-6.67-.54q-.64-.05-1.08-.53l-4.92-5.37q-.11-.13-.03-.29l.15-.27q.25-.47.62-.08l4.53 4.89q.63.68 1.55.74l4.85.35q.91.07.28-.59l-3.79-4a1.6 1.57 23.9 0 1-.43-1.08l-.02-6.94q0-.52-.35-.91-2.18-2.44-4.5-4.94c-.59-.62-.67-1.14-.67-1.96q-.01-.57-.58-.62l-4.72-.42q-.12-.01-.12-.13l-.01-.27q0-.55.55-.52l4.53.32q.37.02.37-.35v-4.15q0-.38-.39-.41l-6.89-.54q-.56-.05-.93-.46-1.91-2.08-3.96-4.16-1.33-1.36-3.29-1.06-.53.08-.63.6-.54 2.73-.86 5.79-.13 1.19-.84 1.79-2.73 2.26-5.67 4.52-.19.14-.35-.03l-.22-.24q-.23-.26.03-.47l5.47-4.41q.41-.33.49-.85l.9-5.97q.38-1-.25-1.28l1.62-1.21q.65-.48.09-1.08l-2.06-2.21q-.48-.51-1.03-.07l-5.21 4.13q-.41.32-.93.28l-7.48-.56q-.16-.02-.19-.17l-.06-.36q-.08-.43.35-.4l6.9.46a1.92 1.9-62.3 0 0 1.29-.41l3.87-3.09q.73-.59-.2-.64c-3.39-.2-5.88.26-8.19-2.66q-1.52-1.93-3.34-3.48-.26-.21-.59-.25-2.8-.32-6.09-.45c-2.2-.09-4.82-3.74-6.22-5.28q-.53-.59-1.16-.1l-5.19 4.08q-.41.32-.92.29l-7.27-.5q-.35-.03-.37-.37l-.02-.31q-.03-.4.36-.37l6.82.51q.7.05 1.24-.39l4.03-3.21q.54-.43-.14-.52c-2.11-.3-5.89.13-7.36-1.59q-2.1-2.45-4.11-4.45-.39-.39-.94-.43l-6.8-.49q-.65-.05-1.09-.52l-5.11-5.51q-.14-.15-.01-.31l.2-.27q.27-.34.56-.03l4.73 5.01q.57.6 1.4.66l5.11.35q.66.05.21-.44l-4.12-4.4a.24.24 0 0 1-.02-.29l.14-.22a.43.43 0 0 1 .68-.06l10.29 11.03a1.76 1.75 70.3 0 0 1.15.55l13.2.96q.81.06.26-.53l-3.45-3.7q-.52-.54-1.26-.62-3.04-.3-6.15-.39-.99-.02-1.69-.74-2.54-2.59-5.04-5.38-.14-.15 0-.3l.24-.25q.29-.3.57 0l4.82 5.13a1.45 1.45 0 0 0 .96.46l5.15.36q.91.06.28-.61l-3.76-3.99q-.34-.36.02-.7l.19-.18q.18-.17.35.01l21.41 23.02a1.42 1.41-19.2 0 0 .94.45l19.37 1.42q.56.04.67-.51.3-1.44-.83-2.52-3.25-3.1-6.23-6.75a.82.82 0 0 0-1.15-.12l-5.07 4.05q-.48.38-1.08.33l-7.47-.57q-.2-.02-.24-.21l-.08-.36q-.09-.43.35-.4l6.85.48a2.42 2.41 27.2 0 0 1.67-.53l3.83-3.16q.52-.43-.16-.47l-5.77-.39a1.38 1.35-19.1 0 1-.89-.42l-4.75-5.15q-.36-.39-.89-.43l-7.03-.51q-.59-.04-.98-.47l-5.06-5.48q-.31-.33.09-.53l.26-.14q.23-.12.41.07l4.85 5.19q.31.34.78.37l5.56.41q.68.05.21-.44l-4.02-4.26q-.14-.14-.05-.32l.2-.38q.2-.38.5-.06l10.28 11.07a1.43 1.38 70.6 0 0 .9.45l8.69.88q-.19.7 0 1 .6.95.6-.18-.01-.25-.15-.79.54-1.93.29-4.15-.06-.53-.59-.58l-6.7-.54a1.46 1.45-18.7 0 1-.94-.46l-5.01-5.46q-.26-.28.07-.48l.35-.2q.17-.1.3.05l4.49 4.81q.75.8 1.84.86l4.51.26q1.06.07.32-.69l-3.68-3.75a1.5 1.5 0 0 1-.43-1.03l-.05-7.02a1.14 1.11 24.8 0 0-.28-.74l-4.56-5.24a2.66 2.65 24.6 0 1-.65-1.74l.02-6.01q.01-.65-.64-.7l-6.11-.46a2.81 2.77 70.4 0 1-1.84-.89l-4.46-4.85q-.34-.38-.72-.03-.74.69-1.75.68-3.53-.04-7.47-.49-.27-.03-.26-.29l.01-.33q.01-.32.33-.3l6.61.47q.97.07 1.74-.53l3.92-3.06q.67-.53-.18-.58l-5.74-.36a.31.3-85.4 0 1-.28-.34l.04-.46q.02-.25.26-.23l9.96.7q1.46.11 1.14-1.32-.11-.48-.32-1.46-.38-1.66-2.07-1.8l-2.51-.2a.3.3 0 0 1-.27-.33l.03-.27a.42.41 4.3 0 1 .44-.37l.97.05q.74.03.26-.53l-3.74-4.41a.73.73 0 0 0-1.01-.09l-5.18 4.15a1.43 1.43 0 0 1-1.03.32l-7.45-.55a.26.26 0 0 1-.24-.28l.03-.32q.04-.42.46-.39l6.72.49q.78.06 1.4-.43l4.14-3.32q.49-.39-.14-.43l-5.61-.34q-.65-.04-1.13-.48-2.17-2-4.26-4.48-1.44-1.7-3.49-.71-.45.22-.95.18l-6.16-.39a2.14 2.13 74.5 0 0-1.89 3.35l2.94 4.22q.37.53.32 1.17-.25 3.8-1.08 7.61-.02.09-.11.11l-.36.07q-.46.1-.39-.37l.9-6.59a2.79 2.78-58.3 0 0-.46-1.96l-2.56-3.73q-.54-.79-.69.15l-.73 4.94a2.89 2.87 75.1 0 1-1.04 1.81l-4.92 3.94a1.63 1.63 0 0 0-.58 1l-1.05 6.94q-.08.54-.5.88l-5.85 4.7q-.17.14-.33-.02l-.23-.23q-.33-.32.02-.6l5.3-4.3q.61-.49.72-1.26l.71-5.03q.1-.69-.44-.25l-4.56 3.65q-.14.11-.28 0l-.24-.2q-.43-.34 0-.68l11.72-9.38q.45-.36.53-.94l1.23-8.73q.08-.54-.47-.59l-3.18-.29a.8.78 6.6 0 0-.85.66l-1 6.54q-.1.64-.6 1.04l-5.74 4.56q-.16.13-.3-.02l-.29-.29q-.25-.26.03-.49l5.42-4.38q.53-.42.62-1.09l.81-5.44q.06-.43-.29-.16L89.86 223q-.45.36-1.03.32l-6.99-.51q-.5-.03-.88.28l-5.37 4.34q-.47.37-1.06.33l-6.78-.43a.6.6 0 0 0-.63.51l-.94 6.48q-.11.76-.72 1.24l-5.69 4.51q-.3.25-.52-.08l-.14-.23q-.16-.24.06-.42l5.36-4.31q.61-.5.72-1.28l.71-5.24q.07-.56-.36-.2l-4.45 3.63a1.71 1.69 27 0 1-1.17.37l-6.84-.48q-.59-.04-1.05.33l-5.35 4.27a1.68 1.65 27.4 0 1-1.17.36l-7.39-.54q-.31-.02-.22-.31l.13-.45a.27.26 10.5 0 1 .28-.19l6.65.47q.87.07 1.54-.48l3.94-3.18q.61-.49-.17-.54l-5.81-.38q-.26-.01-.24-.27l.02-.29a.43.43 0 0 1 .46-.39l15.05 1.03q.55.03.98-.31l10.43-8.4q.54-.43-.15-.49l-4.95-.41q-.91-.07-1.63.5l-5.06 4.08q-.55.44-1.26.39l-7.36-.5q-.43-.03-.28-.44l.12-.31a.38.36-77.1 0 1 .37-.24l6.98.48q.58.04 1.04-.33l4.16-3.32q.59-.47-.17-.53l-5.77-.41q-.25-.02-.3-.26l-.07-.34q-.08-.42.35-.39l31.3 2.26q.55.04.98-.31l10.4-8.37a1.3 1.3 0 0 0 .31-.36q.27-.47.23-.93-.06-.76.66-.48l.34.13q.44.18.8-.13l2.35-1.98q.44-.38.13-.87-.87-1.4-2.36-1.34-4.47.16-8.75-.67a1.15 1.15 0 0 0-1.35.97l-.78 5.71q-.14 1.07-.97 1.76-2.77 2.28-5.62 4.4-.13.1-.23-.03l-.22-.28q-.25-.31.06-.56l5.68-4.6q.09-.08.12-.19.33-1.41 1.01-6.33a.09.09 0 0 0-.15-.08q-5.75 4.98-6.45 4.2-3.22-.28-6.42-.41-.54-.02-.96.32l-5.38 4.28q-.49.38-1.1.33l-7.39-.56a.3.3 0 0 1-.28-.33l.03-.35q.03-.28.32-.26l7 .49q.64.04 1.14-.36l4.09-3.31q.85-.69-.24-.64-2.82.13-5.72-.36-.3-.05-.3-.34l-.01-.38q-.01-.23.22-.21l14.95 1.07a2.23 2.2 27.5 0 0 1.53-.47l6.89-5.48q.21-.17.03-.37l-2.56-2.83q-.28-.32-.62-.06l-5.4 4.29q-.43.34-.98.3l-7.36-.53q-.15-.01-.21-.14l-.14-.32a.38.37-9.7 0 1 .37-.52l6.58.48a2.51 2.48 27.4 0 0 1.74-.54l3.85-3.1q.57-.46-.16-.52l-5.84-.46q-.54-.04-.91-.44l-4.44-4.83q-.34-.37-.84-.43l-7.39-.83q-.48-.05-.82-.41l-4.3-4.54a1.12 1.11 48.9 0 0-1.51-.11l-4.79 3.86q-.48.39-1.09.35l-7.37-.52q-.3-.02-.31-.32l-.02-.35q-.02-.37.35-.34l7.48.55q.22.02.4-.13 3.66-2.98 4.85-4.08a.04.04 0 0 0-.03-.07q-6.57-.06-7.23-.74-2.44-2.51-4.81-5.17a1.45 1.45 0 0 0-1.09-.47q-5.05.06-9.91-.79a.53.53 0 0 0-.6.43c-.37 2.21-.43 6.8-2.18 8.26q-2.48 2.06-5.08 4.03-.39.29-.69-.1l-.16-.22q-.05-.06.01-.12l5.58-4.62q.47-.4.56-1.01l.7-4.76q.17-1.11-.72-.42l-4.28 3.38a1.07 1.05 27.7 0 1-.73.22l-7.04-.51q-.57-.04-1.02.32l-5.42 4.33q-.49.39-1.11.34l-7.39-.55q-.27-.02-.24-.3l.03-.33q.04-.34.39-.32l6.88.5q.63.05 1.13-.35l4.18-3.32q.89-.7-.25-.66-2.58.11-5.69-.27-.29-.04-.31-.33l-.03-.34q-.03-.38.35-.35l14.83 1.12a2.09 2.07-61.9 0 0 1.45-.45l6.36-5.12a.81.81 0 0 1 .85-.11q.24.11.5.21.43.18.13-.18-.09-.11-.25-.07-.08.01-.18-.1l-2.96-3.23a.67.66 49.3 0 0-.9-.07l-5.12 4.14q-.47.38-1.08.34l-7.43-.55a.33.32-1 0 1-.3-.28l-.05-.36q-.04-.37.33-.34l7.11.48q.63.05 1.13-.35l4.24-3.42q.45-.35-.12-.39l-5.95-.42q-.54-.04-.91-.44l-4.52-4.86q-.63-.67-1.54-.74l-6.32-.44a2.17 2.15-19.1 0 1-1.44-.69l-4.48-4.83a.43.43 0 0 0-.58-.04q-2.34 1.93-4.8 3.84c-1.16.89-2.16.96-3.49.56v-.88q1.01-.08 1.58.07a1.06 1.05-56.2 0 0 .93-.19l4.41-3.49a.21.21 0 0 0-.11-.38L0 161.26v-1.16c.78.19 1.2.56 2.03.61q6.6.44 12.49.94.99.08.32-.66l-3.08-3.38a2.73 2.68 70.2 0 0-1.82-.88l-6.42-.45q-.48-.03-.8-.38L0 152.99v-1.05l2.88 2.86a1.83 1.78 68.6 0 0 1.17.53l5.44.36q.55.04.17-.36l-4.16-4.41a.27.27 0 0 1 .02-.38l.21-.2a.44.44 0 0 1 .61.03l21.22 22.79a1.77 1.74-18.9 0 0 1.17.56l29.92 2.12a.08.08 0 0 0 .06-.13q-3.27-3.68-4.41-4.61-.09-.08-.22-.09l-7.24-.54q-.58-.04-.98-.47l-4.51-4.88a.64.63-40.6 0 0-.87-.06L35.63 169q-.77.62-1.74.55l-7.18-.52q-.3-.02-.24-.32l.09-.42q.05-.26.32-.25l6.89.48a1.95 1.92-61.8 0 0 1.36-.42l4.07-3.3a.26.26 0 0 0-.15-.47l-5.67-.35q-.72-.05-1.21-.58l-4.28-4.63a2.63 2.58-18.7 0 0-1.72-.83l-6.58-.51q-.54-.04-.9-.44l-5.05-5.45q-.22-.24.02-.46l.22-.21q.25-.24.48.02l4.61 4.96q.54.58 1.32.63l5.17.38a.3.29 70.4 0 0 .23-.5l-3.96-4.22a.23.23 0 0 1-.04-.27l.18-.35q.22-.42.54-.08l10.34 11.09a1.52 1.49 70.4 0 0 1.01.49l13.2.9q.94.07.29-.62-3.27-3.46-3.3-3.49-.67-.71-1.61-.75-3.34-.13-6.63-.57-.63-.09-1.06-.55l-4.82-5.2a.38.38 0 0 1 .02-.53l.23-.21q.21-.19.4.01l4.66 5q.6.64 1.47.69l4.9.3q.81.05.25-.54l-3.87-4.1a.39.38 42 0 1-.03-.5l.2-.25q.21-.27.45-.01l37.56 40.35q-.65-.1-1.11.13l-3.6-3.73q-.61-.63-1.48-.67l-4.84-.25q-.76-.04-.24.52l3.38 3.67a1.28 1.28 0 0 0 .89.41l5.97.29q.94-.08 1.03-.37 1.6 1.14 3.85 1.14 1.85 0 3.06-1.11 1.45-1.33 2.92-2.42.8-.6-.19-.67l-5.72-.42q-.25-.02-.23-.27l.02-.37q.02-.39.41-.36l15.07 1.12q.58.05 1.03-.32l6.96-5.68q.26-.21.03-.46l-2.6-2.92q-.15-.16-.32-.02l-5.53 4.4a1.6 1.54 26.5 0 1-1.09.34l-7.21-.5q-.35-.03-.33-.38l.02-.3q.02-.32.34-.31 2.68.1 5.26.38c1.49.16 2.17.25 3.44-.82q1.93-1.64 3.96-3.15.54-.27-.43-.21l-6.14-.4q-.53-.04-.9-.43l-4.58-4.94a1.53 1.51-16.7 0 0-.89-.47c-2.68-.39-7 .21-8.93-1.89q-1.88-2.04-3.55-4.04a.68.67 50.5 0 0-.94-.1l-5.24 4.17q-.5.4-1.13.35l-7.22-.53q-.37-.02-.34-.4l.02-.3a.3.29-84.2 0 1 .32-.27l6.78.49a1.98 1.94-61.8 0 0 1.38-.43l4.21-3.33a.23.23 0 0 0-.13-.41l-5.96-.41q-.56-.04-.95-.46l-4.65-5.06q-.39-.43-.97-.47l-6.98-.53a1.52 1.51-19.2 0 1-1.02-.49l-5.03-5.44q-.37-.4.1-.68l.22-.13q.12-.07.21.03l4.91 5.18q.49.52 1.21.57l5.17.38q.7.05.22-.47l-3.91-4.22q-.26-.28.02-.54l.24-.23a.27.27 0 0 1 .39.01l10.35 11.13a1.45 1.45 0 0 0 .96.46l13.45.94q.73.05.22-.47l-3.55-3.74q-.61-.64-1.5-.67-6.81-.22-7.56-1-2.54-2.64-4.95-5.35a.5.49 48.8 0 1 .04-.69l.2-.18q.1-.09.2.01l5.11 5.32a1.45 1.45 0 0 0 .96.46l5.3.39q.66.05.21-.43l-4.08-4.47q-.1-.1-.02-.22l.19-.31q.26-.41.59-.05l21.46 23.05q.38.41.94.45l19.26 1.35q.57.04.72-.51.39-1.43-.65-2.39-3.47-3.17-6.37-6.92a.76.75 51.9 0 0-1.07-.13l-5.18 4.1q-.51.41-1.16.36l-7.24-.54a.38.37 5.2 0 1-.35-.41l.04-.34q.03-.26.29-.24l6.61.45q1.02.07 1.82-.56l3.73-2.95a.36.36 0 0 0-.23-.64q-5.95.15-7.46-1.71-1.97-2.44-4.1-4.34-.39-.35-.92-.39l-6.37-.43a2.24 2.22 70.2 0 1-1.47-.7l-4.82-5.18q-.22-.24-.02-.5l.16-.22q.22-.29.47-.03l5.11 5.42a.56.54-17.9 0 0 .35.17q3.19.29 6.35.48a.04.04 0 0 0 .03-.07q-2.42-2.44-4.51-4.92-.14-.16.02-.31l.18-.18q.33-.31.63.02l10.38 11.15a1.25 1.24 70.3 0 0 .84.4l8.88.58q.49.03.48-.45v-3.32q0-.69-.69-.74l-6.5-.46q-.6-.04-1.02-.49l-4.96-5.34q-.26-.28.02-.53l.22-.19a.35.35 0 0 1 .48.02l4.8 5.17a1.32 1.28 69.7 0 0 .88.42l5.36.36q.8.05.24-.53c-1.77-1.83-4.53-3.82-4.41-6.64q.11-2.74.05-5.61-.01-.5-.35-.87c-1.53-1.61-4.14-3.88-5.06-5.86-.4-.87-1.43-1.1-2.1-1.8q-2.33-2.44-4.63-5.03-.24-.27.01-.52l.18-.18q.2-.2.4 0l5.01 5.25q1.04 1.08 1.04-.42l.02-3.99a.75.73 3 0 0-.67-.73l-6.39-.67q-.89-.09-1.49-.74l-4.74-5.08q-.2-.22.02-.42l.2-.19q.25-.23.48.01 2.71 2.79 5.13 5.34.13.14.38.18.51.07 6.36.42a.02.02 0 0 0 .02-.04q-2.32-2.27-3.65-3.74c-1.98-2.21-1.04-6.21-1.21-8.96q-.02-.38-.28-.66l-7.06-7.64a.43.43 0 0 0-.58-.04l-5.38 4.24q-.45.36-1.01.31l-7.39-.53q-.34-.03-.3-.36l.03-.3q.04-.37.41-.35l6.47.47q1.09.08 1.94-.6l3.72-2.98q.74-.59-.21-.6-5.94-.04-6.89-1.11-2.21-2.48-4.52-4.83-.37-.39-.9-.43l-6.67-.47q-.48-.04-.85-.34-3.04-2.56-5.42-5.85-.13-.17.01-.33l.17-.2q.2-.23.41 0l4.81 5.14q.47.51 1.16.56l5.39.43q.57.04.18-.37l-4.15-4.51q-.16-.19.01-.36l.23-.22q.3-.29.58.01l10.28 11.09q.41.44 1.02.49l8.56.61q.73.05.73-.69v-3.13a.7.7 0 0 0-.65-.7l-6.56-.49q-.57-.04-.96-.47l-5.1-5.5q-.18-.2.03-.37l.25-.21q.26-.23.5.02l4.76 5.09q.37.4.92.44l5.4.41q.79.06.24-.52c-1.62-1.71-4.46-3.76-4.39-6.37q.07-2.89.08-5.81 0-.47-.31-.82l-.42-.48q-.11-.78.38-.91.15.11.27 0 .06-.06.06-.14l-.05-6.25q0-.59-.59-.6-.92 0-1.9.77-.45-.39-.62-.89 1.23-.29 1.43-1.09-.12-.48.88-.76.19.21.36.18.13-.02.21-.22.33-.83.24-2.02l1.21.12q.36.39.65-.2.56-.37.81-1l2.25.17q.54.04.55-.5l.05-3.63 1.13-.91 15.45 16.58q.38.7-.26 1.09l-4.29-4.48q-.16.49-.88.13.08-.16-.01-.43-.15-.42-.59-.45l-3.43-.26q-.63-.05-.62.58l.06 8.57a1.95 1.94-67.2 0 0 .53 1.31l9.06 9.72q.39.42.38-.15l-.08-6.23 1.12-.19-.05 39.66q0 .79.54 1.38l5.48 5.91q.46.5 1.15.55l13.4.96q.72.05.22-.47l-3.81-3.99a1.29 1.26 69.5 0 0-.85-.4l-6.88-.48q-.66-.05-1.11-.53l-5.05-5.47q-.15-.17 0-.34l.23-.25q.26-.29.53-.01l4.68 4.97q.6.65 1.49.71l4.89.33q.85.06.27-.56l-3.91-4.13q-.22-.23-.01-.46l.2-.22q.25-.29.52-.01l21.35 22.92a1.47 1.44-19 0 0 .97.46l19.39 1.39q.54.04.61-.5.21-1.59-.97-2.7-3.24-3.06-6.27-6.73-.42-.5-.92-.09c-1.71 1.38-4.55 4.42-6.75 4.46q-1.47.03-6.91-.54-.31-.03-.25-.33l.05-.28a.36.34-82.4 0 1 .36-.29l6.83.44a2.27 2.25-62.7 0 0 1.55-.5l3.82-3.15q.55-.46-.17-.51l-5.59-.36q-.63-.04-1.06-.5l-4.78-5.06q-.42-.43-1.02-.48l-6.86-.51q-.61-.04-1.02-.49l-4.99-5.44q-.22-.24.02-.44l.3-.26q.17-.14.31.02l4.56 4.83q.71.76 1.76.84l5 .37q.56.04.17-.38l-4.04-4.33q-.21-.23 0-.45l.23-.25a.35.34 44.5 0 1 .51 0l10.18 10.95a1.79 1.77 70.4 0 0 1.18.57l8.67.67q.56.05.56-.52l-.01-3.41a.61.61 0 0 0-.56-.61l-6.79-.55q-.54-.04-.91-.45l-4.94-5.37a.42.42 0 0 1 .02-.58l.25-.25q.17-.15.32.01l4.71 5.07q.53.58 1.31.64l5.27.4q.57.05.18-.37l-3.97-4.31q-.4-.43-.4-1.02l-.01-6.6a1.7 1.7 0 0 0-.41-1.11l-4.74-5.44q-.38-.45-.38-1.03l.01-6.22a.92.92 0 0 0-.84-.92l-6.48-.55q-.57-.05-.96-.47l-4.95-5.38q-.2-.22-.01-.43l.2-.22q.26-.28.51-.01l4.95 5.31q.21.23.52.26l6.13.53a.09.09 0 0 0 .07-.15l-4.25-4.64q-.39-.43-.39-1.02l.01-6.46a2.37 2.35-66.8 0 0-.64-1.62l-6.68-7.12q-.41-.43-.87-.07c-1.74 1.38-4.64 4.53-6.95 4.39q-3.16-.2-6.59-.48-.34-.03-.31-.36l.03-.33q.03-.32.34-.29l6.91.47q.71.05 1.26-.39l4.01-3.26q.66-.53-.19-.57c-2.02-.08-5.75.21-7.21-1.4q-2.15-2.36-4.36-4.67-.33-.34-1.27-.41-.26-.73-.06-1.04l-4.29-4.67a.26.24 40.7 0 1-.03-.29l.15-.27q.27-.46.64-.07l10.15 10.93a2.03 2.03 0 0 0 1.33.64l8.02.62q0 .72.3 1 .51 1.04.51.16v-.94l.25-3.96a.8.79-86.3 0 0-.73-.84l-6.48-.52q-.69-.06-1.16-.57l-4.84-5.3q-.19-.21-.01-.42l.19-.21a.36.36 0 0 1 .53-.01l4.57 4.94q.57.61 1.41.67l5.03.36q.8.05.25-.53l-3.94-4.22q-.36-.38-.36-.91l-.01-6.97q0-.59-.4-1.02l-4.67-5.04q-.42-.45-.42-1.06l-.02-6.46a.81.81 0 0 0-.75-.81l-6.48-.51q-.65-.05-1.09-.53l-4.88-5.36q-.13-.14-.06-.32l.15-.33q.19-.44.52-.09l5.09 5.44q.2.21.49.24 3.09.28 6.22.4a.04.04 0 0 0 .03-.07q-2.62-2.63-3.91-4.16c-1.53-1.8-.7-6.27-.94-8.67q-.05-.5-.39-.86l-4.53-4.89a1.85 1.84 23.7 0 1-.49-1.25v-7.33q0-.31.31-.27l.34.04q.32.04.32.36l.01 7.01q0 .56.37.96l3.62 3.87q.79.85.66-.31-.33-2.81.04-5.74.02-.22.24-.23l.25-.01q.33-.01.33.32l.02 15.1a1.32 1.3 23.5 0 0 .36.9zm.03 8.11q.21-.6 0-.88l-.07-5.19q-.01-.53-.37-.92l-3.99-4.28a.05.05 0 0 0-.08.04l-.04 6.25q0 .2.13.34zm-37.67 2.76-.01 1.81q-.01.87.87.92l2.03.11q.84.05.27-.57l-2.4-2.56q-.75-.81-.76.29m-1.07 3.98q-.12-.33-.39-.11a.12.12 0 0 0 .01.19q.54.33.38-.08m5.26 4.6q.53-1.88.24-3.97a.76.75-1.4 0 0-.69-.65l-2.95-.23a.83.82-14.7 0 0-.75 1.28q1.43 2.14 3.52 3.78.46.36.63-.21M84 96.1l4.91 5.2a1.75 1.72-19 0 0 1.14.54l5.21.36q.67.05.22-.44l-3.98-4.31q-.39-.43-.39-1.01l.02-6.61a1.88 1.86-66.4 0 0-.51-1.31l-6.73-7.16q-.33-.34-.75-.15-2.07.96-2.06 2.34.04 8.41 0 17.03a1.19 1.15 24.5 0 0 .31.79l20.44 21.93q.34.37.34-.14l-.01-5.77a.83.82 23.3 0 0-.23-.57q-2.23-2.41-4.44-4.75c-1.39-1.47-.85-6.09-.85-8.06q.01-.66-.66-.72l-6.57-.5q-.59-.05-.99-.48l-5.01-5.42q-.08-.08-.06-.2l.04-.38a.36.35-63.8 0 1 .61-.21m11.17-10.13q.75.05.24-.5l-2.64-2.86q-.58-.63-.6.22l-.03 2.37q-.01.56.55.6zm47.16 1.28a.32.32 0 0 0-.55.22l.11 5.83a.32.32 0 0 0 .08.21l3.91 4.35a.32.32 0 0 0 .56-.22l-.13-5.87a.32.32 0 0 0-.08-.21zm-8.12 7.57-2.85-3.1q-.55-.59-.55.21l-.01 2.29q-.01.68.67.73l2.58.21q.52.04.16-.34m.29 6.19q.73.51.75-.38l.09-3.86a.59.58-88 0 0-.55-.6l-3.27-.22a.81.81 0 0 0-.74 1.26q1.48 2.25 3.72 3.8m4.67-.93-2.23-2.4q-.62-.67-.62.24v2.17q0 .73.73.77l1.7.11q1.32.09.42-.89m-2.96 2.24.12 8.65q.02.85.59 1.46l9.35 10.01a.07.07 0 0 0 .12-.05l-.08-6.38a.21.19 24.2 0 0-.06-.14l-4.75-5.17a2.57 2.54-66.6 0 1-.67-1.73v-6.43q0-.39-.39-.42l-3.76-.24q-.47-.03-.47.44m6.09 1.04a.32.32 0 0 0-.56.22l.12 5.87a.32.32 0 0 0 .08.21l3.9 4.33a.32.32 0 0 0 .55-.22l-.1-5.84a.32.32 0 0 0-.08-.21zm-40.13 11.65v-5.25q0-.79-.54-1.38l-3.53-3.8q-.44-.47-.44.18v5.29q0 .69.46 1.19l3.65 3.93q.4.42.4-.16m-12.14-2.9-2.87-3.08q-.55-.59-.55.21l-.01 2.3q0 .7.69.76l2.53.22q.64.06.21-.41m74.42-1.08a.34.34 0 0 0-.59.24l.11 5.73a.34.34 0 0 0 .09.22l3.84 4.24a.34.34 0 0 0 .59-.24l-.12-5.74a.34.34 0 0 0-.09-.22zm-78.82 2.49q.04-.04.03-.09-.02-.05-.06-.08-.05-.05-.11-.07-.16-.06-.06.08.06.08.12.15.04.05.08.01m1.84 2.27c.98.88 1.53 2.18 2.99 2.34q.66.07.67-.6l.01-3.27q.01-.64-.63-.69l-3.27-.29q-.61-.05-.63.57-.04 1.12.86 1.94m4.66-1.06.03 2.85q0 .77.78.71 1.13-.08 2.2.25 1.1.33.33-.53l-3.07-3.38a.16.15 24.3 0 0-.27.1m3.37 4.72q-1.52-.28-2.92-.09-.48.07-.48.55l.04 8.82a1.25 1.23 23.6 0 0 .34.85l9.52 9.9a.12.12 0 0 0 .2-.08l-.03-5.83q0-.27-.18-.47l-4.9-5.33q-.35-.38-.36-.9l-.02-6.5q.41.3.94.35l.1 5.81q.01.54.38.93l3.62 3.89q.44.47.44-.18l-.02-5.26a1.9 1.88 23.2 0 0-.53-1.31l-3.88-4.11q-.5-.62-1.01-.44l-.54-.55-.21-.24q-.13-.16-.28-.02zm50.32 10.61a.32.32 0 0 0 .56-.22l-.09-5.74a.32.32 0 0 0-.08-.21l-3.91-4.26a.32.32 0 0 0-.55.22l.12 5.8a.32.32 0 0 0 .08.21zm-55.05-10.34q.25-.18-.24-.18a.06.06 0 0 0-.03.11q.2.11.27.07m6.83 17.66q.02 1.6.06 3.34.02.73.75.81l3.12.34q.79.09.28-.52-1.9-2.27-4.03-4.5-.05-.05-.12-.07-.13-.04-.26.04-.12.08 0 .17.2.15.2.39m4.31 10.37q.27.28.27-.1l-.01-3.97q0-.81-.81-.87l-3.32-.26q-1.05-.08-.33.69zm8.15 1.14c-1.82-.3-4.55-3.97-6.1-5.62q-.77-.82-.77.31l-.02 8.88q0 .55.55.59l6.42.46q.88.06 1.56-.49l3.8-3.06q.86-.7-.25-.69-2.86.02-5.19-.38m45.78 1.56-2.51-2.73q-.44-.48-.44.17l-.03 2.44q-.01.71.7.76l1.91.14q1.17.09.37-.78m-30.45-.28a.3.3 0 0 0-.19-.09l-5.88-.5a.3.3 0 0 0-.24.5l4.06 4.24a.3.3 0 0 0 .19.09l5.86.48a.3.3 0 0 0 .24-.5zm-1.32 21.15q.05-.2.25-.19l14.93 1.05a2.11 2.06 26.8 0 0 1.48-.47l6.65-5.46q.3-.24.04-.53l-2.5-2.76q-.23-.25-.5-.04l-4.98 3.97a3.05 3.03 27.8 0 1-2.12.65l-6.82-.5q-.27-.02-.26-.29v-.46a.26.26 0 0 1 .28-.25l6.77.48a2.43 2.42-62.7 0 0 1.72-.55l3.82-3.13q.71-.57-.2-.56c-2.07.01-5.88.18-7.28-1.41q-2.13-2.43-4.21-4.53a1.46 1.44-20.1 0 0-.92-.42l-6.91-.47q-.52-.04-.87-.42l-4.61-4.99a.55.55 0 0 0-.75-.05q-2.57 2.12-4.94 3.88c-1.67 1.24-6.24.25-8.4.16q-.49-.02-.58.46-.42 2.26 1 3.77 7.48 7.98 15.84 17.04c1.15 1.24 2.59 1.35 4.19 1.43 2.18.11 4.26-2.43 6.03-3.66q.72-.51-.16-.56l-5.76-.39q-.43-.02-.32-.44zm32.54-18.95-3.07-.3a.76.76 0 0 0-.72 1.15q1.31 2.1 3.33 3.65a.76.76 0 0 0 1.23-.61l-.01-3.06q-.01-.75-.76-.83m-5.29.09q.12.29.38.14.08-.05.08-.14 0-.25-.24-.29a.21.21 0 0 0-.22.29m7.06 3.85q0 .6.59.65l2.32.22q.86.08.28-.56l-2.66-2.94q-.52-.57-.52.21zm4.47 6.18.07-3.74q.01-.48-.47-.51l-3.42-.18q-.96-.06-.78.88.24 1.28.11 2.62-.1 1.1 1.01 1.04 1.44-.08 2.85.35a.49.49 0 0 0 .63-.46m4.2.66q.65.06.21-.42l-2.73-2.96q-.61-.67-.61.24l-.01 2.25a.68.67 2.8 0 0 .61.67zm-152.73 3.89a.3.3 0 0 0 .19.09l5.89.5a.3.3 0 0 0 .24-.5l-4.04-4.3a.3.3 0 0 0-.19-.09l-5.85-.48a.3.3 0 0 0-.25.51zm132-4.44q-.55-.05-.16.34l1.92 1.91a.76.76 0 0 0 1.01.06l1.6-1.25q.8-.62-.21-.71zm-99.66 6.75a.34.34 0 0 0 .22.1l5.78.51a.34.34 0 0 0 .28-.57l-4.03-4.18a.34.34 0 0 0-.22-.1l-5.79-.52a.34.34 0 0 0-.28.58zm62.5-4.28a.27.26-66.1 0 0-.46.18l-.01 2.43q0 .74.74.79l2.21.15q.86.06.28-.57zm-30.11 6.66a.3.3 0 0 0 .19.09l5.8.47a.3.3 0 0 0 .24-.51l-4.02-4.23a.3.3 0 0 0-.19-.09l-5.8-.47a.3.3 0 0 0-.24.51zm28.3-2.16q.03.24.25.14.17-.08.11-.28-.06-.19-.25-.16-.15.02-.11.3m5.85.67a.5.5 0 0 0-.46-.5l-3.26-.28a.82.81-12.7 0 0-.78 1.22q1.26 2.18 3.38 3.59a.72.71-73.1 0 0 1.11-.6zm4.34 4.64-.05.86q-1.44-.5-2.82-.27-.52.08-.51.61l.05 3.24q.02.59.61.63l3.31.19q.68.03.64-.64l-.07-1.51q-.03-.53-.51-.74-.57-.25-.41-1.03l.77-.1a.24.24 0 0 0 .14-.41q-.12-.12-.39-.25l-3.46-4.24q-.6-.73-.61.21l-.02 2.16a.8.8 0 0 0 .84.81q1.44-.07 2.49.48m-79.81 1.09 1.53 1.7a.69.69 0 0 0 .95.07l2.09-1.76q.39-.33-.12-.36l-4.15-.26q-.91-.06-.3.61m74.91-.45q.03.11.11.13.19.03.13-.15-.03-.06-.09-.1-.23-.13-.15.12m-66.95.92 1.64 1.76q.44.48.94.06l1.82-1.53q.57-.48-.17-.53l-4.01-.24q-.7-.04-.22.48m1.47 3.74q.19.4.31.43a.21.2-81.7 0 0 .26-.2q-.01-.24-.57-.23-1.02-2.06-2.93-3.8-.44-.4-.89-.02l-2.44 2.06a.88.88 0 0 0 .53 1.55zm12.78-3.1a.34.34 0 0 0-.22-.1l-5.75-.51a.34.34 0 0 0-.28.57l4.02 4.17a.34.34 0 0 0 .22.1l5.78.53a.34.34 0 0 0 .27-.58zm-2.46 5.22a.32.32 0 0 1-.2-.1l-5.06-5.35a.32.32 0 0 0-.43-.03l-3.09 2.37a.32.32 0 0 0-.04.48l6.5 6.88a.32.32 0 0 0 .2.1l13.9 1.07a.32.32 0 0 0 .25-.55l-4.05-4.16a.32.32 0 0 0-.2-.1zm123.37-4.96q-.46-.48-.45.19l.04 2.42a.8.8 0 0 0 .76.79l2.26.13q.8.04.24-.54zm-57.88 3.2a.26.26 0 0 0 .21-.44l-2.65-2.63q-.66-.65-.71.28l-.1 1.69a.81.8 4.5 0 0 .72.84zm-18.09 1.82 1.85-1.55q.59-.49-.17-.53l-4-.22q-.82-.04-.25.54l1.64 1.71q.44.46.93.05m5.45-1.76q-.51-.04-.15.33l1.89 1.96q.71.73.98-.25.13-.44.2-.96a.82.82 0 0 0-.76-.94zm-4.81 2.51a.73.73 0 0 0 .29 1.28l2.98.72a.7.7 0 0 0 .34 0l1.67-.38a.73.73 0 0 0 .38-1.2l-2.14-2.38a.73.73 0 0 0-1-.08zm9.21-1.36a.3.3 0 0 0 .06-.53q-.4-.26-.58-.1-.17.15-.09.35.16.45.61.28m3.76-.34q.02.05.03.11a.05.04-21.2 0 0 .07.03q.19-.11.05-.23-.23-.21-.15.09m4.5 6.64q.81.21 1.16 0a.37.37 0 0 0-.08-.67q-.88-.28-1.21.46l-5.59-6.02q-.68-.73-1.38-.03l-1.58 1.56q-.83.82-.04 1.67l5.25 5.75q.54.59 1.34.65l2.69.19q.68.05.76-.64.18-1.74-1.32-2.92m56.36-6.2q-.09-.17-.28-.22-.25-.06-.17.19.04.16.18.26.61.45.27-.23m-75.36 2.51q-.07.49.31.17.23-.2-.05-.32a.19.19 0 0 0-.26.15m8.37.89q-.19.18.08.26.19.06.13-.19a.13.13 0 0 0-.21-.07m-17.62 12.81a.3.3 0 0 1 .01-.46l5.27-4.28q.62-.5.74-1.29l.76-5.32q.06-.46-.3-.17l-4.8 3.83a1.04 1.02-61.6 0 1-.75.23l-6.9-.51q-.7-.05-1.25.39-2.49 2.01-5.16 4.16-1.04.84-3.73.25-.87-.19-.26.46l3.64 3.93q.41.44 1.01.48l37 2.66q1.62.12.36-.91-1.44-1.18-1.62-2.86-.1-.85-.94-.91l-4.32-.34q-.16-.02-.17-.18l-.02-.38q-.02-.36.34-.34l4.44.25q.61.03.62-.59l.03-3.27q.01-.99-.98-1.07l-6.08-.44q-.62-.04-1.06-.48-2.12-2.11-4.13-4.35-1-1.12-3.29-.87-.5.05-.58.55l-.95 6.52a1.58 1.54-15.9 0 1-.55.96l-5.76 4.64q-.16.12-.31-.01zm16.8-7.74a.33.33 0 0 0 .21.1l5.34.33a.33.33 0 0 0 .25-.57l-3.76-3.75a.33.33 0 0 0-.21-.1l-5.36-.33a.33.33 0 0 0-.26.56zm9.93 2.73 1.81 1.91a.45.45 0 0 0 .77-.23l.24-1.44q.1-.6-.5-.64l-2.06-.15q-.84-.06-.26.55m-1.76 3.45a.44.44 0 0 0 .4.45q1.25.12 2.1-.73.45-.44.02-.9l-1.94-2.06q-.49-.52-.5.2zm5.73-3a.08.08 0 0 0 .12.03q.15-.15.06-.29-.07-.12-.15-.01-.1.11-.03.27m-4.69 4.32q-.83-.01-1.05.8-.17.6.28 1.04l3.51 3.38q.69.67.7-.29l.04-5.49q0-.73-.66-.44l-1.81.79q-.48.22-1.01.21m21.04 3.52q.16.88-.03 1.73a.79.79 0 0 0 .71.96l2.31.18q.77.06.25-.52l-2.49-2.72q-1.02-1.12-.75.37m-49.91.49 1.77 1.86a.71.7-40.6 0 0 .95.07l2.08-1.62q.45-.36-.13-.4l-4.48-.32q-.63-.05-.19.41m12.67 1.02a.34.34 0 0 0-.2-.6l-3.95-.21a.34.34 0 0 0-.26.58l1.88 1.9a.34.34 0 0 0 .46.03zm-2.92 3.18-2.75-3.55q-.41-.53-.94-.11l-2.44 1.92a1 1 0 0 0 .63 1.79q3.25-.04 5.9.28.46.06.08-.21-.11-.07-.26-.04-.13.02-.22-.08m8.38-.96a.34.34 0 0 0 .45.04l2.09-1.62q.71-.54-.18-.61l-3.93-.3q-.87-.07-.27.57zm-4.37 3.38a.47.47 0 0 0 .64.05l2.78-2.23a.47.47 0 0 0 .05-.68l-2.39-2.64a.47.47 0 0 0-.64-.05l-2.79 2.23a.47.47 0 0 0-.05.68zm15.02-4.34a.34.34 0 0 0-.17-.61l-3.91-.35a.34.34 0 0 0-.28.57l1.8 1.95a.34.34 0 0 0 .45.04zm-3.45 3.1q.69-.1.24-.63L115 203.7q-.43-.51-.96-.1l-2.76 2.19a.6.6 0 0 0 .2 1.05q2.69.82 5.73.37m2.41.15 1.92 1.99q.66.68 1.36.04c1.83-1.66 1.83-3.5-.04-5.14q-.44-.39-.89-.01l-2.3 1.96q-.65.55-.05 1.16m16.86 1.63 5.44 5.8a1.07 1.05-18.2 0 0 .67.33l3.06.27q.6.05.67-.55.2-1.72-1.06-2.87-3.1-2.83-5.88-6.38-.64-.8-1.36-.08l-1.5 1.49q-.99.98-.04 1.99m3.97-3.36q.4.07.24-.36-.1-.24-.39-.13-.24.02-.19.24.05.2.07.22.07.07.27.03m5.9.34a.57.57 0 0 0-.51-.57l-3.35-.35a.7.7 0 0 0-.7 1.02q1.12 2.17 3.37 3.82a.76.76 0 0 0 1.21-.61zm.77.44c.39.71.27 2.13.2 2.86q-.05.65.6.7l2.39.18q.78.06.26-.52-1.4-1.54-2.92-3.22-.1-.11-.24-.1-.13.01-.27.06-.03.01-.02.04m-37.12.82q-.07.05-.08.1-.01.08.07.05.11-.04.13-.1.08-.2-.12-.05m16.14 1.05q-.21.07-.11.2.09.11.21.05.11-.05-.01-.22a.09.07 58.3 0 0-.09-.03m-8.38 4.85a1.06 1.06 0 0 0 .76-.25l2.11-1.81a1.06 1.06 0 0 0-.59-1.86l-10.53-.97a1.06 1.06 0 0 0-1.15 1.15l.21 2.2a1.06 1.06 0 0 0 .98.95zm16.84-4.55q.09.01.2-.07.12-.09-.02-.16-.12-.06-.21.01-.22.17.03.22m38.64-.18a.21.2 5.7 0 0 .24.29q.2-.06.23-.17.06-.17-.11-.23-.26-.09-.36.11m5.61.08-3.3-.26a.72.72 0 0 0-.69 1.06q1.27 2.33 3.52 3.75a.7.7 0 0 0 1.07-.59l-.02-3.33q0-.58-.58-.63m-71.86.98q.08.18.19.24.33.2.35-.2 0-.15-.13-.29-.1-.16-.25-.24-.15-.07-.31-.01-.12.05-.18.18-.06.15.08.23.1.06.25.09m28.38 11.4.02-.31a.36.35-87.7 0 1 .37-.35l4.26.27q.79.05.79-.74l.03-3.25a.91.91 0 0 0-.86-.92c-2.02-.13-6.78.09-8.07-1.61q-1.84-2.41-4.38-4.34a1.47 1.47 0 0 0-2.35.95q-.34 2.25 1.21 3.82c3.56 3.62 6.95 7.43 10.47 11.1q.37.38.91.41l4.47.25q1.46.09.33-.84-1.75-1.43-1.74-3.16.01-.58-.57-.62l-4.6-.34a.31.31 0 0 1-.29-.32m45.02-11.08.08 2.64q.02.68.7.74l2.41.2q.76.07.24-.49l-3.05-3.24q-.4-.43-.38.15m-44.71.4a.33.33 0 0 0-.21-.1l-5.24-.29a.33.33 0 0 0-.26.56l3.57 3.71a.33.33 0 0 0 .22.1l5.46.34a.33.33 0 0 0 .26-.56zm-12.36.44q-.04.21.05.41a.33.33 0 0 0 .59 0q.18-.4-.15-.62-.4-.26-.49.21m-16.8 1.91a.44.44 0 0 0 .47-.41q.06-1.03-.96-1.63a.72.72 0 0 0-.85.09l-1.23 1.15q-.59.56.22.62zm40.83-.49.01 2.73q0 .67.67.74l3.42.33q.35.04.36-.31l.08-3.88q.01-.27-.26-.32-2.39-.45-4.8-.15-.32.04-.09.27.12.12.3.17.31.09.31.42m-27.57 1.82q1.12-.56 2.51-.12a.65.65 0 0 0 .85-.64q-.05-.98-.96-1.44a.86.85 34.5 0 0-1 .18l-1.8 1.96a.76.74 45.6 0 0 0 1l1.81 2.05a.82.82 0 0 0 1.4-.3l.32-1.07a.71.71 0 0 0-.76-.91q-1.22.15-2.33-.18-.68-.21-.04-.53m33.08-1.08-.02 2.31q-.01.77.76.82l2.36.15q.7.04.22-.47l-2.81-3q-.51-.54-.51.19m-45.79 1.52q.24.04.4-.12.26-.28-.12-.35l-3.83-.67q-1.06-.19-.35.62l1.75 2.02a.65.65 0 0 0 1.04-.07l.85-1.31q.1-.14.26-.12m8.44.52a.34.34 0 0 0-.19-.61l-3.81-.25a.34.34 0 0 0-.26.58l1.79 1.83a.34.34 0 0 0 .45.03zm-18.2 2.16q-.53.41.15.46l2.53.14q.68.05.77-.64l.26-2.17q.09-.75-.5-.28zm9.46.36 4.77.28q1.32.08.42-.89l-1.89-2.02q-.53-.58-1.11-.04l-2.35 2.23q-.44.41.16.44m78.32 4.93a.32.32 0 0 1-.08-.21l-.08-7.33a.32.32 0 0 0-.3-.32l-3.81-.22a.32.32 0 0 0-.34.32l-.02 9.43a.32.32 0 0 0 .09.22l9.55 10.28a.32.32 0 0 0 .55-.23l-.18-5.83a.32.32 0 0 0-.08-.21zm-82.97-4.11 1.79-.92q.7-.36.15-.93l-1.47-1.48q-.54-.54-.6.22l-.2 2.89q-.03.4.33.22m77.43-3.46q.1.04.19-.01.18-.09-.01-.16-.08-.03-.17-.01-.37.06-.01.18m-56.76 3.34a.26.26 0 0 0 .19.4l5.07.48q.89.08.28-.58l-3.23-3.44a.65.65 0 0 0-1.1.29q-.37 1.56-1.21 2.85m-5.82 2.61a.51.51 0 0 0 .7.04l2.6-2.13a.51.51 0 0 0 .04-.75l-2.7-2.85a.51.51 0 0 0-.7-.04l-2.6 2.13a.51.51 0 0 0-.04.75zm69.56-4.89a.32.32 0 0 0-.56.21l.08 5.83a.32.32 0 0 0 .08.21l3.89 4.35a.32.32 0 0 0 .56-.22l-.1-5.86a.32.32 0 0 0-.08-.21zm-41.22 2.91q.52.54.71-.18l.31-1.1a.84.84 0 0 0-.73-1.06l-1.83-.18q-.92-.08-.28.59zm2.57-1.65q.33-.95-.26-.42-.32.29.06.5a.15.14-65.1 0 0 .2-.08m-5.66-.11a.21.21 0 0 0-.36.15l-.03 2.99a.71.71 0 0 0 .97.67l1.26-.51q.97-.39.24-1.15zm8.91.07q-.1.23-.01.36.09.14.25.04.07-.04.13-.09.02-.65-.37-.31m-3.82 8.69a1 1 0 0 0 .95 1.01l8.41.45a1 1 0 0 0 .8-1.66l-7.09-8a1 1 0 0 0-1.45-.05l-1.25 1.23a1 1 0 0 0-.29.7zm9.39-3.46q-.15.2.17.48.2.64.51.6-.1-.36-.45-.61.08-.2.03-.36.78-2.18.26-4.63-.1-.5-.61-.54l-3.03-.21a.93.93 0 0 0-.71 1.59zm1.97-3.88q-.37-.39-.35.15l.09 2.7q.03.67.69.7l2.19.1q.93.05.29-.62zm-37.18.81a.27.25 44.8 0 0-.33-.01l-2.7 2.1a.56.56 0 0 0-.13.74q1.12 1.81 2.17 1.88 4.4.26 8.79.56.49.04.5-.46l.03-2.66a.56.56 0 0 0-.51-.57c-2.64-.26-5.65.19-7.82-1.58m20.15 3.3c1.34 2.12 2.45 3.09 4.18 4.14q.37.23.41-.2.32-2.95-.15-5.66-.05-.26-.3-.17l-3.99 1.46a.3.29-26.5 0 0-.15.43m-10.92-.8.09 2.32q.03.77.79.7.94-.09 1.88.2 1.04.31.31-.49l-2.86-3.13q-.12-.21-.32-.37-.79-.62-.35.38.12.28.46.39m-62.19 4.28a.32.32 0 0 0 .18.57l5.85.29a.32.32 0 0 0 .21-.06l4.65-3.6a.32.32 0 0 0-.18-.57l-5.86-.28a.32.32 0 0 0-.21.06zm90.38-3.08a.48.48 0 0 0-.51.47l-.04 3.57a.48.48 0 0 0 .45.48l3.56.27a.48.48 0 0 0 .51-.47l.04-3.57a.48.48 0 0 0-.45-.48zm4.98 2.14q.24.93-.02 1.92-.22.85.66.91l2.26.15q.93.06.3-.61l-2.54-2.73q-1.02-1.09-.66.36m-34.5.74q.02.24.16-.11a.06.06 0 0 0-.07-.08q-.29.09-.24.08.14-.03.15.11m5.53 4.88.27.01q.17 0 .23-.16.05-.17-.11-.24l-.09-3.74q-.01-.54-.55-.59l-3.2-.27a.76.75-13.2 0 0-.71 1.14q1.89 3.12 4.16 3.85m3.17-3.44 1.91 2.04q.48.51 1 .05l1.88-1.66q.49-.43-.16-.46l-4.5-.25q-.41-.02-.13.28m.78 2.29-1.97-2.14q-.59-.65-.59.23v2.4a.65.65 0 0 0 .63.65l1.39.04q1.65.04.54-1.18m8.17-1.61.99 1.8q.39.71 1.02.19l1.8-1.48q.65-.52-.19-.58l-2.1-.16-1.98-.47q-.42-.1-.21.27.17.3.67.43m-2.32 5.42c2.13-1.27 2.18-3.92.08-5.23a.76.75 40.2 0 0-.9.07l-2.36 2.02q-.52.45-.02.92l2.26 2.12q.43.41.94.1m12.73-4.01a.63.63 0 0 0-.33-.82q-.99-.43-2.27-.37-.81.03-.26.62l1.59 1.71q.55.58.85-.15zm-1.96 2.91q.71-.09.24-.63l-2.58-2.96q-.44-.51-.95-.08l-2.45 2.05a.73.72 32.5 0 0 .28 1.26q2.65.71 5.46.36m3.49-3.77q-.42-.02-.76.33a.22.22 0 0 0 .15.38q.51.01.74-.49.1-.2-.13-.22m3.03.8q.19.31.5.12.21-.13.3-.37a.44.43-5.4 0 0-.63-.52q-.47.29-.17.77m6.4.68a.84.84 0 0 0-.78-.84l-2.93-.23a.84.84 0 0 0-.79 1.26q1.23 2.13 3.34 3.52a.76.75 16.6 0 0 1.17-.63zm-6.57-.1q-.99-1.27-2.15-.17l-.76.72q-1.39 1.32-.08 2.72l5.1 5.43q.4.43 1 .47l2.92.15q.56.03.61-.53.14-1.58-1.02-2.68-3.21-3.02-5.62-6.11m8.06.62q-.52-.55-.51.21l.03 2.32q.01.75.76.79l2.22.14q.84.06.26-.55zm-29.62 1.52-3.81.29a.42.42 0 0 0-.39.45l.22 2.98a1.67 1.61-4.3 0 0 1.79 1.48l1.32-.1a1.67 1.61-4.3 0 0 1.54-1.73l-.22-2.98a.42.42 0 0 0-.45-.39m49.93 10.81a.32.32 0 0 0 .56-.24l-.36-6.09a.32.32 0 0 0-.08-.19l-3.82-4.29a.32.32 0 0 0-.56.21l.02 5.8a.32.32 0 0 0 .08.21zm-33.87-10.12q.12.17.25.13.68-.2.03-.49-.31-.14-.34.12-.02.13.06.24m-14.47.99-.03 1.14q-.03.71.6.38t.59-1.02q-.03-.54-.51-.84-.63-.4-.65.34m7.44-.54-1.03-.04q-.91.02-.92 1.49-.02 12.33-.02 24.68c-.01 2.47 1.07 3.77 2.86 5.18q.46.36 1.03.4l4.98.38q.85.06.27-.56l-3.81-4.06q-.25-.27.02-.52l.21-.19q.28-.25.53.02l10.22 10.98a1.54 1.49 69.5 0 0 .99.47l8.56.66q.71.06.72-.65l.05-3.17a.72.72 0 0 0-.66-.73l-6.7-.58q-.6-.06-1.01-.5l-4.86-5.28q-.26-.28-.01-.56l.24-.26q.16-.18.32-.01l4.82 5.16a1.87 1.85-19.2 0 0 1.24.59l5.29.39q.58.05.19-.38l-3.97-4.32q-.45-.48-.45-1.14l.02-6.75q0-.58-.39-1.02-2.14-2.38-4.32-4.72c-.53-.57-.87-1.34-.85-2.13q.01-.6-.6-.65l-4.49-.33q-.34-.03-.32-.37l.01-.36a.29.29 0 0 1 .31-.27l4.41.32q.7.05.7-.65l.05-3.27q.01-.92-.9-1l-6.5-.56q-.58-.06-.99-.46zm12.3 4.85-3.48-3.62q-.4-.42-.99-.45l-4.83-.19q-.62-.02-.2.43l2.96 3.24a2.13 2.11-19.9 0 0 1.5.69l4.91.19q.43.02.13-.29m-16.18-3.69q-.36.43 0 .7a.36.35 29.3 0 0 .55-.15q.14-.35-.16-.59a.28.28 0 0 0-.39.04m22.72.62q-.02-.07-.14-.12-.11-.04-.04.06.08.11.18.2.05.06 0-.14m5.77.53a.41.41 0 0 0-.39-.41l-3.69-.21a.41.41 0 0 0-.43.41l.01 3.68a.41.41 0 0 0 .39.41l3.68.21a.41.41 0 0 0 .43-.4zm-30.64 5.42a.87.87 0 0 0 1.3-.36q.82-1.86.51-4.09-.17-1.28-1.38-.84c-2.45.89-2.49 3.85-.43 5.29m35.08-1.33-2.74-2.99q-.59-.65-.61.23l-.04 2.3q-.01.62.61.67l2.57.2a.25.24-18.5 0 0 .21-.41m-42.41 3.08q-.97-1.03-.59-4.09.08-.61-.52-.71c-3.37-.56-3.82 1.04-6.25 2.65q-.5.33-.1.77l4.57 4.91q.42.45 1.04.49l5.37.35a.25.25 0 0 0 .2-.42q-1.89-1.99-3.72-3.95m4.96-3.37-.09-.85q-.05-.52-.57-.43-1.66.28-3.25-.04-.54-.1-.66.44-.78 3.61 2.81 6.01.41.27.78-.04l2.33-1.95q.47-.39.12-.88l-1.31-1.81a.93.88-66.1 0 1-.16-.45m5.19 4.73a.17.17 0 0 0 .29-.12l-.13-3.78q-.02-.62-.34-.09l-1.13 1.8q-.3.49.1.92zm22.1-1.96q.89-2.07-1.9-2.06-1.32 0-.42.97l1.21 1.28q.7.75 1.11-.19m.97-1.21q-.1.19.12.24.57.13.82-.41a.2.2 0 0 0-.17-.29q-.54-.05-.77.46m4.17-.25q.02.19.17.22.17.02.19-.15.02-.2-.16-.24-.23-.06-.2.17m-8.96.12q-.47-.55-.48.18l-.03 2.92a.79.78-88.1 0 0 .73.79q1.09.09 1.76-.73.37-.46-.02-.91zm8.1 15.4 4.56 4.9q.63.68 1.56.74l4.74.28q1.02.06.31-.67-1.56-1.6-3.16-3.23c-1.71-1.73-.97-6.55-1.12-8.89a1.03.96-70.8 0 0-.27-.61l-6.66-7.19a1.06 1.06 0 0 0-1.31-.19c-1.03.62-1.72 1.4-1.72 2.67v16.09a2.3 2.3 0 0 0 .61 1.56l20.13 21.64q.38.4.38-.15l-.02-5.4a1.8 1.76-67 0 0-.48-1.22l-4.54-4.86q-.44-.46-.45-1.1l-.11-6.86a.49.48 2 0 0-.44-.47l-6.72-.49q-.61-.05-1.02-.49l-4.99-5.35a.36.36 0 0 1 0-.48l.21-.23q.25-.27.51 0m2.33-14.69q1.21 2.97 3.78 4.19a.59.59 0 0 0 .85-.53l.03-3.11a.94.94 0 0 0-.86-.95l-3.31-.27a.49.49 0 0 0-.49.67m6.07.79q-.43-.48-.43.17l-.01 2.45a.85.85 0 0 0 .77.85l2.28.21q.77.07.25-.51zm-34.51 9.47-.03-5.2q-.01-.75-.51-1.3l-1.86-2.06q-.38-.41-.81-.07l-2.74 2.18q-.42.33-.05.71l5.55 5.92q.45.48.45-.18m21.9-7.04q-.03-.78-.66-.32-1.64 1.18-3.08 1.19a.83.83 0 0 0-.61 1.39l4.03 4.38q.59.65.56-.23zm16.65 7.79q.11-2.57.05-4.94a.53.53 0 0 0-.49-.52l-3.52-.27q-.5-.04-.5.46v8.94q0 .53.36.91l9.18 9.83q.52.55.52-.2l-.01-5.25q0-.58-.38-1.01c-2.01-2.27-5.34-4.62-5.21-7.95m-39.08 7.36a.32.32 0 0 0 .55-.23l-.12-5.76a.32.32 0 0 0-.08-.21l-3.86-4.15a.32.32 0 0 0-.55.22l.04 5.75a.32.32 0 0 0 .09.22zm26.61 28.76q2.55 2.57 4.97 5.37.03.04.08.05 3.23.43 6.6.51a.15.15 0 0 0 .1-.26q-5.2-4.22-4.85-7.09.06-.5.09-1.07.1-2.12-.04-4.22-.04-.57-.42-.99l-6.9-7.38a.56.56 0 0 0-.78-.04q-2.16 1.89-4.22 3.54c-1.97 1.58-6.89.69-9.42.4q-.25-.03-.22-.28l.03-.39q.02-.24.26-.22l6.79.44a2.4 2.38 27.6 0 0 1.64-.51l4.02-3.23a.25.24-62.2 0 0-.13-.44l-5.83-.37q-.61-.04-1.03-.49l-4.35-4.65a2.89 2.88-19.2 0 0-1.87-.9l-6.48-.5q-.65-.05-1.07-.53l-1.61-1.81q-.39-.44-.41.15-.05 2.26-.11 4.55-.03 1.46 1.6 3.21 20.6 21.97 41.26 44.26.45.49.44-.17l-.09-5.58q-.01-.52-.36-.89-1.81-1.96-3.95-4.29c-1.98-2.15-1.16-5.72-1.21-8.44q-.02-.68-.7-.73l-5.96-.42a3.02 3.02 0 0 1-2.01-.98l-4.63-5.06q-.15-.16.01-.33l.2-.22q.28-.29.56 0m18.25-14.31q-.33-2.02-.18-4.51a1.8 1.8 0 0 0-.47-1.34l-3.29-3.63q-.65-.71-.69.25c-.08 1.99-.61 5.3.81 6.71q1.5 1.49 2.86 2.98 1.27 1.4.96-.46m-15.24-2.08 2.72.3a.24.24 0 0 0 .2-.4l-3.03-3.33q-.44-.48-.44.17l.03 2.68q.01.52.52.58m4.04 5.24.93.01q-.06.2-.02.37.07.3.38.32l2.56.17q.78.06.24-.51l-3.34-3.46q-.37-.68-.91-.72l-3.8-.37a.72.72 0 0 0-.69 1.09q1.41 2.33 3.45 3.67.43.28.86.01.35-.2.34-.58m-6.3-3.74a.11.1-15 0 0 .09.05q.24.01.23-.15-.02-.3-.3-.17-.14.06-.02.27m-16.83 7.09-2.92-3.1q-.58-.62-.58.23v2.3q0 .69.69.73l2.66.16a.19.19 0 0 0 .15-.32m28.79 6.61a.32.32 0 0 1-.08-.21l-.11-7.48a.32.32 0 0 0-.3-.32l-3.89-.2a.32.32 0 0 0-.34.32l.02 9.4a.32.32 0 0 0 .08.21l9.53 10.31a.32.32 0 0 0 .55-.23l-.14-5.83a.32.32 0 0 0-.08-.21zm-59.75-7.42a.3.3 0 0 0-.2-.09l-5.81-.51a.31.31 0 0 0-.25.52l4.03 4.24a.3.3 0 0 0 .2.09l5.84.52a.31.31 0 0 0 .25-.53zm54.03-.35q.05.06.11.11t.12-.01q.03-.04.04-.09.01-.13-.11-.16-.05-.02-.11-.01-.18.04-.05.16m10.61 11.73a.31.31 0 0 0 .54-.21l-.09-5.85a.3.3 0 0 0-.08-.21l-3.92-4.31a.31.31 0 0 0-.54.21l.08 5.83a.3.3 0 0 0 .08.21zm-33.47-4.41q-.07.99.58 1.4.4.25.44-.22.03-.47-.44-.97.43-2.23.1-4.47-.08-.51-.59-.54l-3.09-.23a.84.84 0 0 0-.75 1.32q1.69 2.38 3.75 3.71m2.28-3.46q-.5-.53-.5.19l.02 2.38q0 .77.77.82l2.11.11q.95.05.3-.65zm4.06 5.14a.53.53 0 0 0-.49-.54l-3.46-.26a.53.53 0 0 0-.57.53l-.03 3.46a.53.53 0 0 0 .49.54l3.46.26a.53.53 0 0 0 .57-.53zm1.01 3.79a.34.34 0 0 0 .3.32l2.74.31a.34.34 0 0 0 .29-.57l-2.83-3.05a.34.34 0 0 0-.59.24zm-12.69.71a.18.18 0 0 0-.1-.32l-4.35-.32q-.95-.07-.29.61l1.55 1.61q.42.44.92.08zm5.67 2.26q.88-.87.36-1.7-.3-.48-.87-.52l-1.89-.13q-.48-.03-.16.33l1.77 1.99a.55.55 0 0 0 .79.03m-4.52-2.03-2.62 2.11a.81.8-57.4 0 0 .31 1.41q2.66.66 5.23.34a.45.45 0 0 0 .29-.73l-2.46-3.05q-.34-.42-.75-.08m5.74.4a.26.25 21.5 0 0 .19.43q.53 0 .8-.51a.23.23 0 0 0-.25-.33q-.42.08-.74.41m4.14-.16q-.06.22.17.25.2.03.21-.18.01-.16-.16-.21-.17-.04-.22.14m1.77 9.99a1.1 1.1 0 0 0 .79.36l2.77.05a1.1 1.1 0 0 0 .83-1.84l-6.96-7.76a1.1 1.1 0 0 0-1.66.02l-1.38 1.61a1.1 1.1 0 0 0 .02 1.46zm3.48-9.62-2.8-.2a.86.86 0 0 0-.8 1.29q1.18 2.04 3.22 3.45a.81.8 17.2 0 0 1.26-.66l.01-2.92q0-.89-.89-.96m2.37 1.3q-.46-.5-.46.18l-.02 2.51a.72.71 2.6 0 0 .65.71l2.36.21q.76.07.25-.5zm-21.62 1.29q.15.33.46.12.27-.18-.03-.32-.18-.09-.36-.01a.16.15 65.8 0 0-.07.21m41.76 11.03a.32.32 0 0 0 .56-.22l-.13-5.87a.32.32 0 0 0-.08-.21l-3.86-4.35a.32.32 0 0 0-.56.22l.11 5.84a.32.32 0 0 0 .08.21zm-33.69-9.9q.14.06.22-.03.42-.5-.14-.18-.05.03-.09.07-.11.09.01.14m-4.12.87a.3.3 0 0 0-.23.51l3.62 3.72a.3.3 0 0 0 .2.09l5.48.31a.3.3 0 0 0 .23-.52l-3.77-3.76a.3.3 0 0 0-.2-.09zm15.99 1.29q-.07-.1-.19-.1a.07.07 0 0 0-.06.11q.05.09.12.12.3.16.13-.13m5.69.56a.47.47 0 0 0-.44-.46l-3.56-.24a.47.47 0 0 0-.5.48l.04 3.57a.47.47 0 0 0 .44.46l3.56.24a.47.47 0 0 0 .5-.48zm4.23 3.78-2.51-2.72q-.58-.63-.6.22l-.06 2.44q-.01.53.51.56l2.36.14q.94.05.3-.64m-12.67 1.28q.99.7 1.65 1.66.39.59.88.07.57-.61.36-1.42-.19-.73-.96-.76-.89-.04-1.77-.06-.92-.02-.16.51m8.06.18v-.1q-.02-.54-.08-.01-.01.07.03.13.05.09.05-.02m-4.24.13q-.02.32.26.18.27-.12.32-.41a.14.14 0 0 0-.12-.16q-.44-.06-.46.39m-4.82-.03q-.57-.61-.56.23l.01 2.69q0 .6.59.74 1.34.31 1.94-.84.23-.45-.11-.82zm15 4.08.03-2.89q.01-.97-.96-1.06l-3.03-.27a.61.6 81.6 0 0-.61.83q1.1 2.79 3.6 3.99.95.46.97-.6m-10.07 6.79q-.62.48.05.84l.08 7.92q0 .52.35.89l20.11 21.63q.55.59.55-.21l-.01-4.95q0-.93-.64-1.6l-3.99-4.23a3.36 3.35-66.8 0 1-.92-2.31v-5.78q0-.71-.7-.79c-2.28-.25-6.44.2-8.1-1.59l-4.42-4.78q-.21-.23.02-.45l.24-.22q.26-.24.49.02l4.91 5.32q.19.2.46.22l6.34.48a.04.03 65.8 0 0 .02-.06q-2.35-2.42-4.39-4.77-.35-.4-.35-.93l-.05-6.92a1.88 1.87-69.9 0 0-.64-1.39q-3.28-2.83-5.93-6.4a1.39 1.39 0 0 0-2.09-.16l-.96.94q-.4.39-.4.94zm14.33-6.41-2.85-3.05q-.48-.53-.47.19l.05 2.57q.01.59.6.64l2.4.2q.84.07.27-.55m-15.41 6.25q.37.48.57.16.23-.35-.39-.5l-.23-6.59a.44.44 0 0 0-.74-.3q-1.24 1.16-2.98 1.17a.81.8 68.7 0 0-.59 1.35zm11.23-4.83q-.94-.12-.09.37.29.17.26-.16-.02-.19-.17-.21m6.72 9.48c-2.06-2.13-1.2-5.94-1.32-8.66q-.03-.6-.62-.65l-3.01-.23q-.85-.07-.86.79l-.01 8.53q0 .54.37.94l9.31 10q.43.47.43-.17l-.05-5.46q0-.55-.37-.96-1.88-2.07-3.87-4.13m.29-7.8a.32.32 0 0 0-.55.22l.07 5.69a.32.32 0 0 0 .08.21l3.86 4.24a.32.32 0 0 0 .56-.22l-.09-5.79a.32.32 0 0 0-.08-.21zm3.45 26.62a.35.35 0 0 0 .61-.24l-.14-5.79a.35.35 0 0 0-.09-.23l-3.76-4.24a.35.35 0 0 0-.61.23l.05 5.74a.35.35 0 0 0 .09.23zm-12.03-2.72q.78.05.25-.52l-2.65-2.82q-.6-.64-.6.23l-.02 2.23q0 .72.72.76zm.51 5.93.16.22q.42.55.56-.13.41-1.92.22-4.23-.05-.66-.71-.71l-2.94-.2a.91.91 0 0 0-.79 1.45q1.42 1.94 3.31 3.39.09.07.19.21m5.29-.54-2.88-2.93q-.5-.52-.48.2l.06 2.41q.02.72.74.75l2.33.09q.77.03.23-.52m6.67 15.55a.32.32 0 0 0-.08-.21l-5.18-5.68a.32.32 0 0 1-.08-.21l-.13-7.57a.32.32 0 0 0-.31-.31l-3.86-.16a.32.32 0 0 0-.33.32l-.01 9.39a.32.32 0 0 0 .09.22l9.51 10.29a.32.32 0 0 0 .56-.22zm-.43-2.02a.31.31 0 0 0 .54-.21l-.06-5.84a.3.3 0 0 0-.08-.21l-3.91-4.26a.31.31 0 0 0-.53.21l.04 5.79a.3.3 0 0 0 .08.21zm.02 16.26a.3.3 0 0 0 .52-.2l-.04-5.87a.3.3 0 0 0-.08-.19l-3.91-4.32a.3.3 0 0 0-.53.2l.04 5.84a.3.3 0 0 0 .08.19z"/><path fill="#f8b202" fill-opacity=".996" d="M85.7 48.49q-.21-.07-.41-.02-.14-.11-.07-.22.04-.07.11-.06.51.04.37.3M90.97 54.77q-.03.27-.45.08-.11-.05-.14-.13-.04-.1-.01-.24.16.27.6.29M86.72 74.67l-1.13.91q-1.83-.7-4.03-.55-.5.03-.5.53 0 1.51-.05 2.95-.04 1.31 1.73 1.03-.25.63-.81 1 .1-.23.02-.37-.12-.19-.32-.08-.31.18-.35.65l-1.21-.12q-1.09-.57-2.48-.43-.54.06-.24.51.7 1.09 1.91 1.98-1 .28-.88.76l-2.58-2.89a.14.14 0 0 0-.24.1l.04 3.56q0 .29.26.46.27.19 1.09-.14.17.5.62.89l-1.32.22a.93.93 0 0 0-.54 1.54l4.07 4.46q-.49.13-.38.91l-4.42-4.84a1.45 1.38-71.1 0 1-.35-.76l-.09-.73q-.09-.72-.81-.77l-4.31-.31a.32.32 0 0 1-.3-.34l.03-.35q.02-.34.37-.31l4.49.34q.59.05.56-.55-.07-1.44.05-3.15.04-.65-.42-1-.41-.3-1.17-.35.26-.31-.26-1.07.27.12.44.09.38-.05.12-.33l-3.42-3.66q.47.08.92-.81l4.7 4.97q.41.43 1 .48l2.89.25q.52.04.61-.46.33-1.85-.94-2.98-3.67-3.27-5.84-6.28.51-.1.85-.42.09.23.25.33.14.1.32.04t.28-.21q.35-.02.44-.12.97 3.23 3.78 4.66.46.23.62-.26.71-2.16.01-4.35-.18-.85-.57-1.1l-3.17-3.43q-.44-.46-.45.17l-.03 2.54q-.56-.1-.96-.01l-.01-3.23q0-.5-.44-.75-.43-.25-1.16-.22l.66-1.04-3.31-3.81.17-1.13zm-2.26-.92-2.72-3q-.57-.62-.58.22l-.05 2.3a.67.67 0 0 0 .62.68l2.51.23q.67.06.22-.43M124.24 58.2q.15-.39.09-.63.15.27-.09.63M41.24 59.88q-.01-.14-.01-.29l.55.03v-.01q-.45-.05-.54.27M91.71 65.28q.43-.2.79-.63l9.29 9.88q.35.37.36-.14l.05-5.42.97-.26q.01 6.64.01 13.3-.01 2.2.89 3.27c1.12 1.33 1.89 2.32 3.84 2.45q2.34.17 4.84.21-.2.31.06 1.04-2.76-.05-5.5-.31c-1.75-.17-2.56-.99-3.52-2.3q-.59-.8-.59.19l-.04 13.9-1.12.19-4.85-5.21q-.35-.37-.36-.88l-.09-6.57q.72.36.88-.13l-.03 6.35q0 .21.14.36l4.27 4.6a.09.09 0 0 0 .15-.07l-.24-6.76q.64-.39.26-1.09l-.11-5.96q-.01-.52-.36-.92l-4.56-5.21q-.49-.56-.49-1.3l.01-6.19a.8.8 0 0 0-.74-.81l-6.31-.47q-.78-.05-1.31-.63l-4.99-5.4q-.22-.24.06-.39l.42-.22q.18-.1.33.05l4.74 5.04q.52.56 1.28.61l5.13.32q.81.05.25-.54zm9.87 17.21a.35.35 0 0 0 .61-.25l-.07-5.66a.35.35 0 0 0-.09-.23l-3.84-4.15a.35.35 0 0 0-.61.24l.06 5.66a.35.35 0 0 0 .09.24zM124.26 66.3q.15-.4.05-.76.15.37.06.83-.05-.03-.11-.07M124.29 74.41v-.88q.21.28 0 .88M125.2 74.33l.04.96q-.7-.37-.04-.96M129.53 95.05v.94q-.24-.13-.51-.16-.3-.28-.3-1 .11.35.81.22M191.51 211.04q-.88-.03-.99-.63l-.12-5.89q-.02-.51-.36-.9l-3.59-4.07.55-.83 2.99 3.07q.55.55.54-.22l-.01-5.12q0-.64-.43-1.11l-4.56-4.88a1.26 1.2-68.1 0 1-.33-.82l-.13-7.45q.85-.05.99-.7l3.93 4.27q.5.54.49-.2l-.01-5.28q0-.72-.49-1.25-1.79-1.96-3.74-3.97c-1.98-2.05-1.24-5.97-1.26-8.58a.72.72 0 0 0-.68-.71l-6.5-.47a1.62 1.61 70.1 0 1-1.08-.51l-4.94-5.33q-.22-.24 0-.48l.2-.23q.26-.29.52-.01l5 5.45a.28.26-16.8 0 0 .18.09q3.37.35 6.4.39a.07.07 0 0 0 .05-.12q-3.04-2.93-4.41-4.91a1.45 1.38-63.5 0 1-.25-.81l-.04-6.86q0-.55-.38-.96l-6.41-6.96q.16-.26.43-.42.31.15.56.11.45 1.34 1.36.98 1.17 1.97 3.16 3.45a.82.82 0 0 0 1.31-.66l-.01-2.95q0-.58-.52-.84-.33-.16-.74-.03.15-.08.24-.16.27-.22.08-.51l-.31-.44q.25.02.27-.17a.22.21-65.7 0 0-.05-.14l-3.14-3.41q0-.01-.01 0-.1.07-.21.15.31-.55.22-1.56l14.82 15.95q.45.48.45-.18l-.04-5.28q0-.73-.5-1.27l-4.25-4.62a2.93 2.92-66.5 0 1-.78-1.99l-.01-6.09a.6.6 0 0 0-.57-.6c-2.19-.12-6.97.06-8.32-1.65-1.32-1.67-2.9-3.1-4.31-4.83q-.15-.19.01-.39l.18-.21q.21-.25.44-.01l4.75 5.07q.47.5 1.16.55l5.39.42q.56.05.18-.37l-4.08-4.4a1.37 1.31-67.1 0 1-.35-.91v-6.86q0-.61-.4-1.06-2.01-2.28-4.25-4.53-.75-.76-.8-1.72-.16-3.41-.05-7.3.01-.35.36-.33l.3.01q.34.02.34.36v6.62q0 .96.66 1.67l3.44 3.66q.43.47.43-.17l-.06-5.8q0-.4.39-.39l.33.01q.35.01.35.35l-.04 14.67q0 .97.66 1.68l9.3 9.96a.08.08 0 0 0 .14-.06l-.11-6.19q-.01-.3-.22-.53l-4.95-5.33a.97.96-67.1 0 1-.27-.67l-.04-7.6q0-.35.35-.33l.41.01q.27.01.27.28l.02 7.02q0 .63.43 1.09l3.63 3.84q.44.46.44-.18l-.01-5.89q0-.15.14-.21l.25-.1q.64-.24.64.44zM190 145.26a.3.3 0 0 0 .52-.2l-.07-5.86a.3.3 0 0 0-.08-.19l-3.89-4.32a.3.3 0 0 0-.52.2l.05 5.84a.3.3 0 0 0 .08.19zm-6.41 2.6-2.72-2.95q-.46-.51-.45.18l.04 2.67q.01.53.54.58l2.28.17q.98.08.31-.65m1.36 7.66q.09-2.76 0-5.33-.03-.64-.66-.67l-3.18-.17q-.66-.03-.66.63v8.6a1.6 1.6 0 0 0 .43 1.09l9.58 10.25a.08.08 0 0 0 .14-.05l-.14-6.35q-.01-.16-.11-.28c-1.78-2.04-5.5-4.83-5.4-7.72m5.05 5.94a.35.35 0 0 0 .61-.25l-.13-5.75a.35.35 0 0 0-.09-.23l-3.84-4.24a.35.35 0 0 0-.61.25l.12 5.75a.35.35 0 0 0 .09.23zm.06 16.23a.3.3 0 0 0 .52-.21l-.12-5.87a.3.3 0 0 0-.08-.19l-3.84-4.25a.3.3 0 0 0-.53.2l.04 5.79a.3.3 0 0 0 .08.2zm-.09 16.22a.32.32 0 0 0 .56-.22l-.06-5.85a.32.32 0 0 0-.08-.21l-3.83-4.21a.32.32 0 0 0-.56.21l.03 5.71a.32.32 0 0 0 .08.21zM96.21 119.5q-.39-.13-.71-.05l.22-.21q.15-.14.28.02zM90.77 119.72q-.07.04-.27-.07a.06.06 0 0 1 .03-.11q.49 0 .24.18M97.76 120.49q-.32.29-.11.23-.53-.05-.94-.35.04-.11.04-.32.51-.18 1.01.44"/><path fill="#f8b202" fill-opacity=".996" d="m154.21 163.36 2.13 2.21q.41.42.7-.09.39-.67.43-1.76.38.16.85.13 0 .15.05.26.14.3.43.15.38-.18.45-.56.55.07 1.08.36l-1.55 1.66a1.76 1.76 0 0 0 0 2.4l5.06 5.44q.45.48 1.1.52l2.81.17q.6.03.67-.57l.09-.73q.37-.37.91-.5-.13.82.08 1.51.17.53.73.49 1.83-.14 3.26.49.33.15.34-.21l.13-4.26q0-.14-.13-.17-4.39-1.05-4.51.45-1.47-.11-1.71-1.57.31.05.67-.43.59-.19 1.18-.03 1.52.42 2.94.26.56-.06.18-.46l-3.2-3.4q-.13-.36.43-1.13l5.71 6.17q-.08 1.1-.24 1.17-.53 1.31-.33 2.9.07.5.57.59 1.5.26 3.05.02.25.12.48 1.37-3.74-.96-4.3.39l-2.2-.21q-1.25-.75-2.47.84-.65.85-.65 2.23-.03 7.99.03 16.08 0 .5.34.86l5.98 6.42q-.41.4-.4.98.09-.17-.14-.18-.2-.02-.2.18l-.06 3.23-.97-.5-.15-3.37q-.03-.6-.62-.64l-5.97-.41a2.96 2.95-19.1 0 1-1.99-.96l-4.57-4.99q-.14-.14-.05-.32l.21-.42q.17-.34.43-.06l4.74 5.08q.55.59 1.36.65l5.1.41q.73.06.23-.48l-3.94-4.26a1.48 1.46-66.8 0 1-.39-1l-.01-6.98q0-.53-.36-.9-2.42-2.5-4.65-5.12c-.39-.46-.52-1.06-.47-1.65a.65.65 0 0 0-.6-.71l-4.6-.33q-.3-.02-.31-.32l-.02-.27a.37.36-89.3 0 1 .39-.39l4.45.31a.63.62-87.8 0 0 .66-.62l.05-3.3q.01-.96-.95-1.03l-5.65-.42a3.28 3.24-18.5 0 1-2.18-1.07c-1.97-2.19-3.38-4.56-6.7-4.81q.41-.28.64-.65.28.11.37-.4.79-.35.88-.95.17.68.92.87 2.16.56 4.76.33a.61.61 0 0 0 .42-1l-1.98-2.32zm2.61 4.1a.24.24 0 0 0-.24-.24.24.24 0 0 0-.24.24.24.24 0 0 0 .24.24.24.24 0 0 0 .24-.24m4.28 4.91q-1.34-1.09-2.53-2.46c-1.43-1.67-4.1-.87-6.1-1.16q-.94-.13-.3.56l3.05 3.28q.46.51 1.15.54l4.37.18q1.6.07.36-.94m4.62 2.72q-.67-.06-.22.44l1.62 1.8q.62.69.99-.16l.4-.92q.38-.88-.57-.96zm3.53.7a.23.22-72.2 0 0 .18.36q.43-.01.64-.42.16-.32-.2-.29-.39.03-.62.35m-5.36 3.21q-.01.65.64.64 1.03-.01 1.82-.67.51-.42.06-.91l-1.87-2.06q-.59-.65-.6.23zm.39 1.57a.44.43 87.3 0 0-.4.45q.01.21.04.5.04.33.24.58 1.78 2.18 3.88 4.24.44.44.43-.19l-.11-5.72q-.03-1.64-1.37-.69-1.06.74-2.71.83M118.3 175.46q.27.13.39.25a.24.24 0 0 1-.14.41l-.77.1-.29-.48.05-.86q.2.55.76.58M99.22 179.85q-.25-.06-.43-.21.97-.06.43.21M125.3 180.97l15.52 16.68q-.48.23-1.12.21l-2.88-3.02q-.38-.41-.41.15l-.11 2.93q-.17-.4-1.03-.2l-.07-3.64q-.01-.54-.55-.59l-3.29-.34a.71.71 0 0 0-.69 1.06q1.25 2.18 3.31 3.71-.12.35-.09.65.05.54.57.7.71.21 1.46.07l.57 3.74q.08.51.59.56l1.45.14q-.67.7-1.52 1.02.03-.14-.01-.22-.07-.17-.25.03-.26.27-.22.65l-1.18-.18q-.67-.92-2.82-.79a.29.29 0 0 0-.19.48l1.95 2.08q-.49.09-1.01.43-1.72-2.02-2.28-2.49-.42-.36-.92.03-.46-.99-1.02-.62l-3.84-.26.19-1.06 9.29.6q.5.04.57-.46c.18-1.19-.05-1.96-.99-2.83q-3.4-3.16-6.41-6.98.39-.22.34-1.27.6.15 1.05.07.53-.09.56-.63.16-2.41-.5-3.92-.4-.07-.36-1.06l-3.13-3.4q-.41-.44-.44.16l-.11 2.61q-.59-.13-1.04.02.06-2.69-.05-3.75-.03-.32-.47-.4.89-.06 1.58-.67m5.5 8-.02 2.61q0 .57.57.61l2.48.18q.73.05.23-.49l-2.83-3.08q-.43-.47-.43.17m-1.4 4.74q.17.12.38-.03a.21.21 0 0 0 .03-.32q-.18-.19-.37-.1-.41.19-.04.45M112.36 185.25a.13.13 0 0 1 .21.07q.06.25-.13.19-.27-.08-.08-.26"/><path fill="#f8b202" fill-opacity=".996" d="M122.99 188.05q-.07-.11-.13-.21.33-.74 1.21-.46a.37.37 0 0 1 .08.67q-.35.21-1.16 0M76.07 192.95q-.09.29-1.03.37l-.08-.24q.46-.23 1.11-.13M164.15 206.46q-.02.19-.5.86l-5.29-5.46q-.34-.35-.83-.41c-1.95-.23-6.83-.02-8.21-1.36q-2.44-2.36-4.82-5.27-.09-.11.01-.21l.25-.22a.42.42 0 0 1 .59.03l4.54 4.88q.53.57 1.31.63l5.39.4q.46.04.15-.3l-4.13-4.46a.35.34 49.8 0 1 .04-.51l.23-.17q.27-.2.5.04zM140.3 205.14q-.16.22.15.49-.2.04-.27-.03-.02-.02-.07-.22-.05-.22.19-.24M107.4 209.21q-.25-.05-.41.25-.15-.03-.25-.09-.14-.08-.08-.23.06-.13.18-.18.16-.06.31.01.15.08.25.24M151.5 217.29q-.06.05-.13.09-.16.1-.25-.04-.09-.13.01-.36-.03.25.37.31M130.93 221.24q-.17.18-.21.4-.34-.11-.46-.39-.44-1 .35-.38.2.16.32.37M156.96 222.32q.05.16-.03.36-.03.01-.06.01-.32-.28-.17-.48-.21.07.26.11M148.56 227.61l-1.52.23q-.5-.13-.67-.43-.21-.37.21-.27zM162.01 229.19q-.3-.48.17-.77a.44.43-5.4 0 1 .63.52q-.09.24-.3.37-.31.19-.5-.12M134.92 230.6l.39-.39q.16.07.11.24-.06.16-.23.16zM149.31 233.05q-.58.25-1.03-.04zM191.47 259q.19.45.02.89-.63-.02-.94-.84.27-.46.1-.36zM173.2 273.54q-.12-.21.02-.27.28-.13.3.17.01.16-.23.15a.11.1-15 0 1-.09-.05M180.25 274.18q.35 1.61.18 3.11l-.93-.01-.16-3.82q.54.04.91.72M151.54 280.81q.14.54.15.79 0 1.13-.6.18-.19-.3 0-1 .13-.08.45.03M157.16 287q.47.5.44.97-.04.47-.44.22-.65-.41-.58-1.4.33.03.58.21M145.51 297.39q.63.28.25 1.28c-1.69 1.2-4.66 4.31-6.72 4.17q-3.12-.21-6.23-.44-.56-.05-.99.3l-5.33 4.26q-.58.46-1.33.41l-7.2-.52q-.44-.03-.38-.47l.04-.25a.34.33-83.3 0 1 .35-.28l7 .51q.65.05 1.16-.36l4.21-3.45q.45-.37-.13-.4l-5.94-.33q-.28-.01-.27-.29v-.41q.01-.38.38-.35l14.97 1.1q.52.04.92-.29zM168.31 316.3q.46-.42.18-.34.62.15.39.5-.2.32-.57-.16M169.39 316.46l.05.84q-.67-.36-.05-.84M173.22 339.01q-.18-.07-.27-.18-.01-.53.13-.78.28-.49.4.07.08.4-.26.89"/></svg>