<svg xmlns="http://www.w3.org/2000/svg" viewBox="0 0 382 382"><path fill="#fb0202" fill-opacity=".996" d="M39.53 0c2.56 2.04 5.16 4.96 8.29 5.72q2.95.73 5.74 1.55 1.58.48.31-.58-3-2.49-6.25-5.31Q46.96.8 46.9 0h.61l16.52 13.99q.83.7.37-.29-1.22-2.63-2.47-5.51-.86-1.99-3.03-3.87Q56.45 2.2 53.93 0h1.48l3.58 3.05q.52.44.26-.19L58.09 0h.65q.61.34.7.53 5.52 11.99 10.8 23.35.25.52.8.68l4.77 1.32q1.12.31.23-.44l-6.39-5.41q-.26-.22-.01-.45l.32-.31q.14-.12.27 0 8.13 6.72 16.45 13.91 1.79 1.54 4.05 2.1 6.13 1.51 12.6 3.46.84.26.47-.54l-1.54-3.41q-.33-.72-1.09-.94-4.4-1.25-8.51-2.28-2.28-.58-4.01-2.08-3.73-3.23-7.3-6.24a.4.4 0 0 1-.09-.52l.2-.31q.11-.19.29-.05 3.68 2.9 7.2 6.08c2.67 2.41 6.89 2.83 10.2 3.81q.93.27.22-.38c-2.53-2.31-6.16-4.42-7.63-7.57q-1.61-3.48-3.12-6.93c-1.43-3.28-5.32-5.83-8.07-8.04-2.9-2.32-4.21-5.94-5.62-9.34h.85c1.6 2.65 2.45 6.03 4.72 7.94q2.6 2.2 5.22 4.35.89.72.38-.31-1.43-2.93-2.86-6.12C82.15 3.44 79.57 1.89 77.6 0h1.13l1.81 1.18q.37.24.32-.19-.06-.52.12-.99h.63l7.31 15.75q.22.46.72.58.18.04.39.02.46-.05.81.25 3.42 2.94 6.78 5.82c2.36 2.02 6.26 2.55 9.3 3.31q1.6.39.31-.64c-2.08-1.66-5.88-4.21-7.04-6.76q-1.74-3.8-3.48-7.67-.88-1.94-2.72-3.41Q90.14 4.16 86.27.7q-.14-.12-.03-.27l.16-.2a.51.51 0 0 1 .74-.08l6.85 5.89q.84.72.38-.29L91.75 0h1.02l8.32 17.94a5.86 5.81 7.9 0 0 1.52 1.99l10.8 9.15q.76.64.76-.35l.02-3.49q0-.86-.66-1.41-3.56-3-7.26-6.13c-1.49-1.26-2.24-3-2.91-4.76-.87-2.27-2.8-3.53-4.58-4.99q-.17-.13-.19-.33-.04-.45.75-.43a.6.58 64.7 0 1 .39.15l1 .9q.48.43.32-.2-.25-.98-.9-1.89-.14-.19.03-.44.53-.74.92.08c1.08 2.25 1.69 4.38 3.76 6.02q1.84 1.47 3.44 2.78.42.35.96.3.72-.06.34-.67c-.31-.53-.5-1.32-.49-1.93q.12-6.19-.25-12.29h1.19l.03 9.65a.72.72 0 0 0 .48.68q.74.27 1.35.77 8.02 6.64 15.47 13.09 1.67 1.45 3.72 2 6.89 1.81 13.48 3.66a.06.06 0 0 0 .07-.06q0-.35-1.93-4.46a.46.42-2.2 0 0-.28-.24q-4.26-1.34-8.76-2.41-2.52-.59-4.32-2.16-3.69-3.21-7.37-6.26a.33.33 0 0 1-.04-.47l.17-.2a.41.4 40.4 0 1 .57-.04q3.77 3.1 7.18 6.1c2.44 2.15 6.34 2.55 9.36 3.49q1.9.58.38-.7c-2.59-2.19-5.92-4.23-7.37-7.51q-1.43-3.22-2.92-6.53-.87-1.96-2.89-3.68-2.65-2.27-5.33-4.72h1.31q2.12 1.66 3.54 2.99 1.75 1.63.55-.44-.49-.85-.97-2.55h.8q1.27 2.25 2.88 6.06.43 1.04 1.57 1.31.5.13.9.45 3.2 2.59 6.03 5.14c2.81 2.54 6.62 2.91 10.09 3.92q1.45.42.3-.56-2.11-1.8-4.46-3.69-1.82-1.46-3.14-4.22-2-4.18-3.88-8.41h.99q1.95 3.94 3.79 8.03 1.05 2.33 2.75 3.71 5.22 4.24 10.03 8.47.71.62.71-.32l.01-3.58q0-.85-.64-1.42-3-2.64-6.37-5.34c-3-2.41-3.81-5.66-5.47-8.93q-.16-.31.17-.43l.48-.18q.11-.04.17.06c1.57 2.85 2.36 6.29 4.94 8.38q2.55 2.06 4.95 4.17.65.57.33-.23-1.45-3.57-3.26-7.09-.84-1.63-.28-5.3h.75l.22 1.9q.06.53.48.87 3.28 2.62 6.58 5.62c2.91 2.65 6.94 3.03 10.47 4.08q.94.28.22-.38-2.73-2.52-5.68-4.82-.95-.74-1.36-1.63-1.27-2.79-2.55-5.64.35-.03.69 0 1.22 1.74 2.2 3.76 1.06 2.2 2.48 3.38 4.95 4.13 10.07 8.5.78.67.77-.35l-.03-3.39a2.24 2.23-70.6 0 0-.81-1.7q-4.03-3.33-8.16-6.94-.66-.58-1.57-3.26h.94c.63 1.05.94 2.19 1.88 3.01q3.03 2.66 5.71 4.89 1.16.96.52-.41L170.42.47q-.13-.28.18-.32l.55-.05q.22-.03.31.17l18.32 39.47q.79 1.71.75-.17c-.05-3.19.56-6.97-.89-9.95-1.66-3.4-4.38-7.77-4.27-11.61q.12-4.53.01-8.84a1.2 1.18 20.1 0 0-.42-.88L176.33.98q-.27-.23-.32-.58-.03-.21-.05-.4h.58l6.65 5.5q1.3 1.08.6-.46L181.53 0h.96l7.18 15.45q.95 2.04.88-.2-.08-2.45.02-5.36.07-2.13-1.2-4.88-1.15-2.5-2.31-5.01.33-.04.66 0l2.59 3.88q.22.33.24-.07l.1-3.81h.84l.01 382h-.87q-.14-4.75-.15-9.54-.01-2.69-.95-4.65c-1.62-3.35-4.25-7.52-4.16-11.27q.11-4.56.01-8.91-.01-.49-.37-.81-3.17-2.87-6.77-5.74-2.02-1.61-2.94-3.72-1.87-4.29-4.03-8.7a.33.32-23.7 0 1 .18-.45l.3-.11a.35.35 0 0 1 .44.17q1.85 3.69 3.64 7.93c1.57 3.71 5.04 5.56 7.8 8.1q.86.78.4-.29c-1.42-3.27-3.84-6.81-3.76-10.44.08-3.49.71-8.37-.83-11.63q-3.94-8.31-7.89-16.95-.26-.58-.86-.76-4.05-1.25-8.24-2.22-2.55-.6-4.39-2.18-3.76-3.23-7.41-6.32-.3-.25.01-.5l.3-.25q.14-.11.29 0 3.55 2.87 7.12 6.04c2.68 2.37 6.66 2.72 10.01 3.74q1 .31.23-.4c-2.72-2.51-6.25-4.53-7.77-7.99-1.3-2.95-2.86-7.8-5.39-9.92-2.78-2.33-7.27-5.24-8.77-8.55q-2.05-4.53-4.03-8.88-.07-.15.05-.26l.2-.2q.35-.34.57.1 2.05 4.01 3.85 8.29c1.4 3.33 4.92 5.44 7.58 7.75q.97.85.43-.32l-3.41-7.4q-.22-.47.26-.69l.24-.11q.12-.05.18.07 4.67 9.73 9.14 19.69.94 2.1 2.64 3.49 5.18 4.26 10.04 8.46.85.73.84-.39l-.03-3.31q-.01-1-.77-1.65l-6.85-5.76q-1.68-1.4-2.67-3.68-1.95-4.5-3.88-8.42a.27.27 0 0 1 .1-.35l.26-.15q.35-.21.53.16 2.05 4.03 4.01 8.58c1.34 3.09 4.96 5.23 7.46 7.46q.86.76.4-.3c-1.35-3.12-3.74-6.67-3.71-10.14q.04-3.99.07-7.74c.04-5.47-5.22-9.82-5.15-15.23q.05-4.16.05-8.87c0-1.17-.76-1.95-1.9-2.12q-2.82-.41-4.6-1.89-3.73-3.1-7.84-6.62a.4.4 0 0 1-.04-.56l.2-.24q.16-.19.35-.03l9.59 7.96q.26.22.45-.05l.2-.28q.04-.05-.01-.09c-2.19-2.14-5.2-3.74-6.46-6.64q-1.91-4.42-4.09-8.81-.27-.53.31-.65l.26-.06q.15-.03.22.11 2.14 4.13 3.88 8.33c1.41 3.41 4.94 5.37 7.58 7.8q.99.91.43-.31-2.86-6.24-5.72-12.52-.98-2.14-2.75-3.61-7.52-6.23-14.25-12.02a1.25 1.22-28.2 0 0-.98-.28q-4.43.64-8.89 1.5-2.31.45-4.48-.16-4.56-1.28-9.37-2.65-.3-.08-.22-.38l.07-.27q.08-.27.35-.21 4.09.94 8.77 2.38c3.39 1.04 7.02-.14 10.33-.68q1.78-.3.05-.78c-3.16-.89-7.1-1.34-9.68-3.6q-3.07-2.69-6.2-5.32-1.37-1.16-3.32-1.67c-3.53-.93-8.51-1.56-11.31-3.98q-3.8-3.31-7.26-6.17a.39.39 0 0 1-.01-.59l.23-.2q.18-.16.36-.01 3.68 2.99 7.16 6.07c2.58 2.28 6.75 2.74 9.97 3.67q1.16.33.24-.44l-6.44-5.45q-.22-.19-.02-.4l.22-.23q.25-.27.54-.03 8.19 6.86 16.52 13.98 1.66 1.42 3.79 1.97 6.5 1.67 13.29 3.59a.08.07 87.7 0 0 .09-.1q-1.05-2.77-2.15-4.56-.09-.16-.26-.21l-10.36-2.84a4.1 4.1 0 0 1-1.59-.84l-8.39-7.12q-.19-.16-.03-.34l.19-.23q.25-.29.55-.06 3.25 2.54 6.73 5.69c2.89 2.63 6.78 2.93 10.29 4q1.08.33.24-.44c-2.56-2.33-6.11-4.45-7.6-7.72q-1.5-3.31-3.04-6.75c-2.32-5.21-8.98-6.83-11.25-11.97q-1.61-3.65-3.65-7.96a2.12 2.09 84.5 0 0-1.35-1.13l-9.71-2.66q-.91-.25-1.63-.86l-8.37-7.11q-.13-.11-.07-.26l.08-.26a.38.38 0 0 1 .59-.17q3.46 2.67 6.89 5.81c2.8 2.57 6.87 2.92 10.38 4q1.11.34.24-.43c-2.32-2.05-6.31-4.55-7.56-7.38q-1.79-4.05-3.34-7.41c-2.31-5.02-9.01-6.7-11.24-11.93q-1.78-4.2-3.92-8.45-.19-.37.21-.49l.41-.14q.21-.06.31.14 2.01 4.18 3.85 8.44c1.39 3.24 5.07 5.41 7.69 7.79q.82.74.36-.26l-3.54-7.69a.34.34 0 0 1 .17-.45l.23-.11a.36.36 0 0 1 .47.17q4.47 9.41 9.1 19.64.81 1.77 2.31 3.03 7.08 5.91 14.34 12.1.86.73.38-.29c-1.34-2.87-2.62-7.11-5.16-9.16-2.85-2.3-7.17-5.17-8.7-8.57q-2.01-4.45-4-8.77-.06-.14.04-.25l.2-.22q.32-.34.53.07 2.2 4.19 4.05 8.56c1.34 3.15 4.78 5.27 7.27 7.4q1.16.99.52-.39l-3.4-7.38q-.12-.27.16-.36l.31-.09a.43.42 68.5 0 1 .52.23l15.6 33.62a.83.82 80 0 0 .65.46q.8.09 1.39.56 3 2.41 6.13 5.25c2.66 2.41 6.27 2.78 9.54 3.77q2.27.68.42-.79c-2.82-2.24-6.07-4.51-7.48-7.87-1.24-2.94-2.66-7.36-5.09-9.41q-3.3-2.81-6.81-5.71-.98-.81-1.5-1.93-2.25-4.78-4.52-9.71-.13-.28.16-.42l.25-.11a.35.34 63.1 0 1 .46.16q1.84 3.57 3.61 7.83 1.08 2.59 2.95 4.09 2.58 2.08 4.88 4.01.9.76.4-.31l-3.52-7.51a.29.29 0 0 1 .12-.37l.33-.18q.3-.16.44.14 4.49 9.48 9 19.42.92 2.03 2.58 3.44 5.38 4.55 10.38 8.76.53.44.53-.25v-3.99q0-.62-.46-1.02-3.38-2.95-6.9-5.79-1.88-1.52-2.82-3.7-1.94-4.46-3.97-8.64-.13-.27.15-.4l.24-.11q.35-.16.52.18 2.09 4.15 3.83 8.28c1.34 3.2 4.88 5.34 7.51 7.61q.9.78.43-.32-1.19-2.74-2.65-5.66c-2.56-5.13.56-11.28-1.93-16.46q-3.23-6.73-6.1-13.04-.33-.72.45-.58 1.04.19 1.18 1.72.01.07.07.06l.27-.05q.12-.01.11-.13l-.17-8.22q-.01-.54-.43-.9-3.25-2.8-6.72-5.6-1.91-1.54-2.87-3.68-2.08-4.61-4.03-8.82-.14-.3.16-.44l.24-.12q.3-.14.44.15 2.08 4.23 3.96 8.56c1.35 3.13 5.05 5.38 7.62 7.62q.71.62.34-.25-1.21-2.84-2.71-5.79c-2.61-5.18.57-11.35-1.94-16.48q-2.27-4.64-4.36-9.31-.25-.58-.88-.48c-2.2.36-4.26 1.03-6.49.4q-4.97-1.39-9.82-2.69-.33-.09-.22-.41l.12-.36a.32.31-72.5 0 1 .37-.2q4.84 1.29 9.73 2.69c1.95.56 3.91.02 5.82-.39q.63-.13.37-.71l-.6-1.33a1.01.99-7.3 0 0-.78-.59c-3.91-.54-5.91-3.04-8.64-5.33-2.12-1.77-4.38-1.54-6.33-3.62q-.39-.42-.94-.59c-3.21-.99-7.34-1.39-9.93-3.62q-3.79-3.27-7.46-6.38-.27-.23 0-.45l.33-.28q.17-.14.33 0 3.78 3.15 7.42 6.32c1.99 1.72 4.13 1.89 6.48 2.59q.93.28.27-.42-1.47-1.56-3.29-2.81-.54-.37-.17-.91.38-.54.36-1.27a.38.38 0 0 1 .62-.3q5.22 4.5 10.58 8.91 1.95 1.61 6.01 2.05.82.09.19-.44c-2.52-2.08-6.08-4.26-7.44-7.31-1.34-3.01-3.02-8.15-5.53-10.27q-3.26-2.76-6.5-5.45-1.53-1.28-2.39-3.27-1.67-3.89-3.59-7.77-.25-.51-.8-.66l-4.94-1.36q-.13-.04-.12-.18l.02-.35a.4.39 9.6 0 1 .5-.35l12.22 3.27q.08.02.1-.06l.07-.24q.12-.4-.28-.54c-2.92-1.01-5.99-1.2-8.44-3.33q-3.68-3.2-7.42-6.31-.23-.19-.02-.4l.23-.22q.23-.22.49-.03 3.4 2.64 6.82 5.77c2.78 2.53 6.7 2.93 10.19 3.95q1.27.36.27-.49-5.24-4.45-10.34-8.86-1.76-1.52-3.85-2.07-9.73-2.6-18.15-4.96a1.35 1.34-53.9 0 0-1.12.18q-3.67 2.44-7.12 4.96-2.07 1.51-4.66 1.91-4.75.73-9.34 1.5-.33.06-.38-.27l-.04-.26q-.05-.31.27-.37 4.9-.95 9.3-1.6c3.32-.49 6.2-3.21 8.9-5.01q1.46-.97-.27-.66c-3.68.67-7.3 1.84-11.08.72q-3.39-1.01-6.95-2.02-1.88-.53-4.09-.13c-3.6.64-8.47 2.14-12 1.09q-4.56-1.36-9.11-2.52-.51-.13-.19-.56l.22-.3q.08-.11.21-.08 4.6 1.12 8.98 2.45 2.3.7 4.79.21 2.74-.54 5.29-1.02 1.55-.3.02-.71l-7.38-2.01q-.32-.09-.23-.41l.09-.31q.09-.31.4-.23 10.23 2.73 20.8 5.71 2.06.58 4.19.21 6.61-1.16 13.34-2.35a.27.27 0 0 0 .13-.48l-3.28-2.72a.88.86-28.4 0 0-.7-.2q-4.3.62-9.01 1.53-2.34.45-4.8-.26-4.88-1.39-9.03-2.52-.31-.09-.22-.4l.07-.25q.09-.34.43-.26 4.26 1.02 8.66 2.39 2.32.72 4.66.32 3.11-.54 5.9-1.11 1.38-.29.01-.65c-3.56-.94-7.33-1.36-10.23-3.93q-2.71-2.42-5.62-4.85c-4.13-3.45-10.73-2.2-14.9-5.86q-3.43-3.01-6.92-5.9-.39-.32-.88-.24-4.58.68-8.76 1.51-2.33.46-4.45-.13-4.89-1.37-9.49-2.62-.43-.12-.23-.52l.13-.27q.1-.2.32-.15 4.51 1.12 8.89 2.46 2.35.71 4.91.21 2.89-.57 5.51-1.08 1.3-.25.02-.6c-3.47-.94-7.34-1.36-10.15-3.83q-2.76-2.43-5.46-4.75-1.65-1.43-3.97-2.06-4.5-1.23-8.99-2.42Q3.11 24.18 0 21v-1.15c1.95 1.51 3.56 3.42 5.92 4.07q3.28.89 6.62 1.73 1 .26.21-.41l-6.31-5.36q-.31-.27-.05-.59l.21-.25q.13-.15.29-.02 8.42 6.94 16.52 13.97 1.76 1.53 4.06 2.13 8.52 2.23 17.44 4.74 1.37.39.28-.53-2.34-1.95-4.6-3.95c-4.14-3.67-10.81-2.39-15.03-5.96q-3.82-3.22-7.46-6.39a.44.43-50 0 1-.05-.59l.16-.2q.12-.14.26-.03 3.6 2.74 7.01 5.89 1.89 1.74 4.15 2.33 3.12.82 6.1 1.59 1.25.33.26-.5l-6.23-5.23a.24.24 0 0 1-.07-.29l.15-.31q.22-.47.62-.14 14.02 11.86 28.3 23.93.52.44 1.12.12.5-.27 1.05-.12 3.95 1.09 8.13 2.3 2.06.59 4.58.21 2.42-.36 4.77-.86 3.48-.75-.04-1.25c-2.88-.41-6.46-1.18-8.76-3.18q-3.37-2.93-6.8-5.8a4.15 4.09 72.7 0 0-1.48-.79q-4.28-1.24-8.56-2.29-2.22-.54-3.89-1.98-3.75-3.26-7.45-6.36a.35.35 0 0 1-.04-.5l.17-.2a.33.32-49.5 0 1 .45-.04q3.66 2.92 7.01 5.92c2.64 2.36 6.23 2.66 9.48 3.69q2.04.64.41-.74l-5.94-5.05q-.2-.16-.03-.35l.24-.26q.25-.28.55-.04l17.65 14.92a3.08 3.05-16.8 0 0 1.13.6l14.24 3.86q.78.21.45-.53l-1.49-3.31q-.34-.75-1.13-.97l-9.61-2.63a5.57 5.52-16.9 0 1-2.19-1.16l-8.07-6.88q-.17-.14-.06-.33l.18-.29a.36.36 0 0 1 .53-.09q3.58 2.91 7.04 6c2.57 2.3 6.54 2.81 9.76 3.62q1.35.35.29-.56c-2.78-2.37-6.04-4.29-7.59-7.83-1.46-3.31-2.84-7.78-5.68-10.09q-5.73-4.68-11.22-9.48-.14-.13-.05-.29l.13-.22q.24-.4.61-.1l1.32 1.1q.81.67.37-.29l-3.4-7.3q-.22-.48-.73-.63-4.03-1.2-8.27-2.21-2.31-.55-4.52-2.3Q40.78 2.44 38.29 0zM172.2 38.15q1.96 4.12 4.02 8.74c1.31 2.94 5.01 5.2 7.41 7.31q.87.77.4-.3-1.29-2.87-2.72-5.76c-2.49-5.04.55-11.13-1.79-16.09q-3.89-8.24-8.01-17.22a1.29 1.28 85.3 0 0-.82-.7q-4.32-1.27-8.89-2.42c-3.47-.87-7.12-4.88-9.87-7.2q-1.54-1.29-.69.53l38.35 82.64q1.26 2.72 1.01-.27c-.25-2.98.5-6.33-.84-9.13-1.59-3.33-4.41-7.9-4.37-11.53q.05-4.81.02-9.05a1.37 1.37 0 0 0-.46-1q-3.4-3.04-6.97-5.93-1.8-1.46-2.73-3.6-1.98-4.51-3.96-8.58-.14-.3.15-.44l.29-.15a.34.34 0 0 1 .47.15m-13.49.01a.29.29 0 0 1-.4.04l-3.84-3.15q-.64-.52-.4.27.65 2.17 1.88 2.87 1.68.97 3.26-.03a.7.7 0 0 0 .27-.9l-8.37-18.02q-.23-.49-.75-.64-4.51-1.28-8.65-2.29-2.4-.58-4.45-2.42-3.27-2.91-6.53-5.58-.62-.5-.28.21c1.37 2.91 2.57 7.08 5.07 9.18q12.02 10.12 23.32 19.75.27.23.04.49zM61.2 16.56c.6 1.37 1.19 2.68 2.33 3.67q2.02 1.76 4.04 3.28 1.8 1.35.98-.75-.8-2.03-1.83-4.23c-1.35-2.86-4.98-5.15-7.38-7.2q-.8-.68-.36.28 1.16 2.54 2.22 4.95m54.7.14q1.77.54.36-.66l-5.6-4.72q-.66-.57-.64.31c.13 4.54 2.56 4.05 5.88 5.07m74.09 11.47a.3.3 0 0 0 .58-.13l-.09-8.48a.3.3 0 0 0-.03-.12l-3.52-7.71a.3.3 0 0 0-.57.12l.06 8.46a.3.3 0 0 0 .03.12zm-80.91-12.29c-1.49-.33-2.79-1.56-3.93-2.53q-.68-.58-.41.27c.97 3.12 5.04 5.69 7.43 7.79q1.15 1.02.51-.38l-1.87-4.07a1.46 1.44 2.3 0 0-.62-.66q-.51-.29-1.11-.42m69.51 3.21q.76.41.39-.36l-2.21-4.62q-.36-.75-.52.06-.67 3.27 2.34 4.92m-3.87.21q.24.47.37-.04.52-2.02-1.3-2.84-.65-.29-.33.34zm-46.94 6.49q-3.18-2.62-6.38-5.46c-2.68-2.38-5.97-2.62-9.16-3.62a.26.26 0 0 0-.31.36l4.61 9.85q.33.7 1.09.88 4.08.93 8.27 2.28c3.67 1.17 7.44-.21 11.06-.68q1.18-.15.05-.52-3.34-1.09-6.8-1.89a6.09 6.03 71 0 1-2.43-1.2m-9.17 21.03a.08.08 0 0 0 .13-.05q.1-.31-.04-.62-4.18-9.11-8.2-17.76a1.52 1.5 85.4 0 0-.95-.82q-4.41-1.28-8.67-2.35c-3.73-.94-7.46-5.13-10.39-7.59q-1.18-.98-.53.41l3.02 6.48a4.75 4.74 7.6 0 0 1.28 1.67zm39.56-24.66q-.99-1.58-1.55-3.33-.3-.92-.56.01-.77 2.73 1.32 4.1 2.16 1.42.79-.78m18.71-3.17a.49.49 0 0 0-.8.42l.37 4.12a.5.5 0 0 0 .15.31l2.94 2.83a.49.49 0 0 0 .83-.36l-.09-4.23a.5.5 0 0 0-.18-.36zm-23.05 2.09q-.71-.58-.48.31.36 1.38 1.13 2.67.4.67.5-.1.24-1.74-1.15-2.88m5.47 10.08q.65.42.66-.36l.03-3.66q0-.75-.56-1.23l-2.74-2.39q-.57-.49-.72.24-.95 4.67 3.33 7.4M181.26 25q-.34 3.66 2.54 5.15.61.32.32-.3l-2.33-4.95q-.43-.92-.53.1M90.53 36.26c-3.73-.85-7.1-4.54-9.95-7.05-2.56-2.25-5.63-2.47-8.7-3.42q-.85-.26-.48.55l4.45 9.64a1.43 1.41 84.1 0 0 .95.78q4.34 1 8.8 2.39c3.31 1.03 7.04-.26 10.32-.74q1.64-.24.05-.72-2.66-.8-5.44-1.43m58.69-5.19q.66.01.15-.41l-4.01-3.36q-.63-.53-.44.27.8 3.43 4.3 3.5m-33.5-3.65q-.19-.43-.34.02-1.15 3.44 2.19 5.1.56.28.31-.29zm64.61 2.79q.25-1.92-1.45-2.83-.61-.32-.34.31.6 1.41 1.4 2.62.32.47.39-.1m-29.18 12.12q.3-.15.47.15 2.11 3.82 3.82 8.04c1.49 3.67 5.02 5.64 7.78 8.16q.99.91.42-.3-2.79-5.97-5.73-12.51-.94-2.08-2.75-3.6-7.52-6.33-14.39-12.14a1.11 1.1 60.4 0 0-.89-.25q-4.53.71-9.01 1.56-2.34.44-4.77-.3-4.33-1.31-8.22-2.26a.25.25 0 0 0-.29.35q16.18 34.84 32.33 69.66a3.14 2.56 20.8 0 0 .3.52q.23.33.57.13.42-.23.79.07 3.06 2.49 6.2 5.34 2.28 2.07 4.86 2.67 2.97.7 5.63 1.49 1.17.35.26-.47c-2.58-2.32-6.14-4.43-7.62-7.73-1.43-3.18-2.93-8.03-5.64-10.23q-3.28-2.67-6.7-5.61a5.6 5.6 0 0 1-1.46-1.92l-4.44-9.61q-.15-.32.18-.47l.32-.14q.19-.08.28.1 1.98 3.82 3.66 7.85 1.2 2.87 3.06 4.3 2.5 1.93 4.85 4.13.96.89.41-.3l-3.58-7.76q-.21-.45.29-.5l.37-.03q.13-.01.19.1 4.58 9.6 9.12 19.64.91 2.03 2.56 3.37 5.16 4.2 10.07 8.5a.47.47 0 0 0 .78-.35v-3.36a2.18 2.16 20.8 0 0-.74-1.63q-3.1-2.72-6.39-5.33-1.92-1.53-2.9-3.65-2.12-4.61-4.07-8.94-.06-.15.05-.27l.22-.23a.35.34 53.8 0 1 .56.09q2.01 4.1 3.87 8.37c1.45 3.35 4.94 5.39 7.59 7.82q.97.89.42-.3c-1.45-3.18-3.84-7.01-3.75-10.49q.09-3.5.11-7.28c.02-5.75-5.3-10.03-5.18-15.78q.09-4.53.03-8.81a1.66 1.66 0 0 0-1.17-1.57c-1.8-.54-3.66-.76-5.16-2.01q-4.16-3.45-8.17-6.98-.23-.2-.01-.4l.2-.19q.25-.23.52-.01l9.55 7.96q.18.16.33-.03l.22-.29q.19-.23-.05-.41c-2.74-2.07-5.28-3.87-6.74-7.26q-1.93-4.46-3.77-8.32-.07-.15.09-.23zm12.63-7.85-2.18-4.99a.13.13 0 0 0-.24 0q-.43 1.01-.44 2.17 0 .72.5 1.24.95.98 2.12 1.78.47.32.24-.2m-50.96-4.62q-.42-.25-.31.23.28 1.26 1.08 2.55.45.72.56-.12.21-1.71-1.33-2.66m68.4.51q.24 6.71.05 13.03-.06 2.1.91 4.19 3.84 8.25 7.5 16.07 1.11 2.37.9-.24c-.25-3.09.53-6.45-.83-9.33-1.6-3.41-4.45-7.93-4.37-11.8q.09-4.69.01-8.76-.01-.75-.58-1.22l-2.8-2.32a.48.48 0 0 0-.79.38m-37.55.31q-.69-.09-.18.37l2.25 2.02q.69.62.45-.28-.5-1.86-2.52-2.11m3.41 1.43q1.24 4.86 6.12 5.37.75.08.44-.61l-1.5-3.38a1.45 1.44-4.4 0 0-.94-.8l-3.71-.99q-.55-.14-.41.41m11.96 2.06q.04.35.24.62.51.68.66-.15.29-1.63-.96-2.6-.73-.56-.57.34c.11.63.56 1.19.63 1.79m-43.28-1.76a.44.44 0 0 0-.72.38l.36 4.21a.44.44 0 0 0 .13.29l3.05 2.86a.44.44 0 0 0 .74-.33l-.1-4.33a.44.44 0 0 0-.15-.33zm45.91 2a.4.4 0 0 0-.66.3l-.03 4.32a.4.4 0 0 0 .14.3l3.25 2.84a.4.4 0 0 0 .66-.3l.03-4.32a.4.4 0 0 0-.14-.3zm28.31 17.9a.31.31 0 0 0 .59-.13l-.11-8.49a.3.3 0 0 0-.03-.13l-3.5-7.7a.31.31 0 0 0-.6.13l.09 8.46a.3.3 0 0 0 .03.13zm-85.83-15.92q.65 3.43 4.05 3.55.8.03.19-.5l-3.86-3.27q-.51-.43-.38.22m6.37 23.59 9.5 7.94q.18.15.38.04l.33-.19q.19-.11.04-.26c-2.24-2.17-5.04-3.55-6.42-6.57q-2.06-4.54-4.09-8.93a.44.44 0 0 1 .22-.58l.24-.1q.19-.09.28.1 2.06 4.16 3.73 8.05 1.18 2.74 3 4.17 2.44 1.9 4.7 3.94.94.85.42-.31-2.7-6.07-5.72-12.57-.99-2.12-2.94-3.73-7.08-5.84-14.01-11.81-.41-.36-.96-.28-4.42.62-8.81 1.49c-3.83.77-8.72-1.36-12.49-2.34q-1.7-.44-.36.69l46.4 39.24a.26.26 0 0 0 .43-.2l-.04-6.73q0-.99-.93-1.3c-2.11-.72-4.02-.92-5.83-2.47q-3.83-3.27-7.63-6.53a.36.36 0 0 1-.05-.5l.17-.22q.2-.25.44-.04m10.76-17.55q.58.57 1.19 1.01.91.66.45-.37l-2.01-4.47q-.55-1.22-.59.11-.03 1.03-.1 2.08-.06.84.65 1.3.23.15.41.34m32.03-3.96q-.24-.18-.54-.25a.25.25 0 0 0-.24.43l2.36 2.19q.87.8.51-.33-.45-1.43-1.77-1.88-.18-.06-.32-.16m-107.28 6.9a.3.3 0 0 0 .11.06l8.11 2.3a.31.31 0 0 0 .28-.53l-6.45-5.4a.3.3 0 0 0-.11-.06l-8.08-2.29a.31.31 0 0 0-.29.53zm113.23-5.27c-.89-.13-1.49-.28-2.32-.59q-1-.37-.57.61l2.9 6.62q.37.85.51-.07.39-2.66.13-5.88-.05-.6-.65-.69m-53.78 1.76q-.44-1.92-2.39-2.2-.89-.13-.22.47l2.2 1.97q.58.51.41-.24m63.32 3.21c-.85-1.3-1.45-2.83-1.95-4.49q-.28-.93-.57-.01-1.09 3.4 2.19 4.89.83.38.33-.39m-62.36-3.87q1.21 4.82 6.23 5.28.58.05.35-.47l-1.5-3.43a1.64 1.64 0 0 0-1.09-.93l-3.51-.92q-.65-.17-.48.47m11.41-.44q-.42-.23-.3.24.34 1.3 1.15 2.58.42.66.5-.12.17-1.83-1.35-2.7m43.71.85a.31.31 0 0 0-.59.13l.05 8.41a.3.3 0 0 0 .03.13l1.69 3.71a.3.3 0 0 0 .08.1l6.36 5.54a.31.31 0 0 0 .49-.37zm2.21 2.55c.26.51.3 1.09.65 1.56q.5.67.61-.15.23-1.68-1.07-2.67-.59-.44-.49.29.06.51.3.97m-43.07-.88a.31.31 0 0 0-.5.24l.1 4.59a.31.31 0 0 0 .11.23l3.49 2.82a.31.31 0 0 0 .51-.25l-.1-4.48a.31.31 0 0 0-.11-.23zm-6.94.68q-.38-.33-.32.17.44 3.34 3.87 3.58.87.06.21-.51zm52.92 1.34a.39.39 0 0 0-.65.32l.19 4.32a.4.4 0 0 0 .13.27l3.13 2.95a.39.39 0 0 0 .66-.28l-.01-4.4a.4.4 0 0 0-.13-.3zm-54.77 2.41 2.3 2.09q.86.78.48-.32-.66-1.87-2.62-2.12-.63-.09-.16.35m-24.1.97q-.36-.3-.27.16.63 3.57 4.26 3.83.72.05.17-.42zm31.37.92a.34.34 0 0 0-.24-.31l-3.03-.9a.34.34 0 0 0-.41.47l3.26 7.1a.34.34 0 0 0 .65-.16zm6.24-.19q-.8 3.46 2.34 5.04.65.33.34-.33l-2.27-4.75q-.27-.58-.41.04m-5.33 1.35c.61 4.72-1.05 9.77 3.24 13.37q2.86 2.4 5.26 4.43.89.76.4-.31l-8.39-18.04a.34.33-26.9 0 0-.47-.15q-.3.16-.13.45a.5.47-66.5 0 1 .09.25M98.3 64.26 83.66 51.88q-.54-.46-1.24-.35-4.38.72-9.02 1.54c-3.65.64-8.99-1.61-12.56-2.53q-1.09-.28-.23.45c2.72 2.33 5.21 5.22 8.87 6.19q15.31 4.08 28.45 7.77 1.77.49.37-.69m75.39-8.38-1.89-4.35q-.3-.69-.52.03-.93 3.07 1.94 4.73.87.5.47-.41m-49.91-1.35a.27.27 0 0 0 .51-.08q.27-1.8-1.28-2.63-.84-.44-.41.4zm-35.31.2q.71.66.44-.27-.53-1.86-2.46-2.32-1.01-.24-.25.47zm8.12 4.05-1.76-3.74q-.25-.53-.81-.68l-3.66-.98q-.66-.18-.5.48 1.24 5.02 6.53 5.21a.21.2-11.3 0 0 .2-.29m73.51-2.1q.31-1.89-1.2-2.87-.59-.39-.4.3.39 1.43 1.16 2.66.34.55.44-.09m-44.75-1.27q-.46 4.63 3.63 6.61.44.22.44-.27l.02-3.8q0-.54-.37-.92-1.45-1.5-3.36-2.65-.57-.34-.61.33-.02.4.25.7m-28.53 1.47.99 2.25a1.23 1.22-3.6 0 0 .79.69l2.69.77a.16.16 0 0 0 .15-.27l-4.24-3.71q-.82-.72-.38.27m77.87 7.22a.34.34 0 0 0 .56-.27l-.06-4.44a.34.34 0 0 0-.12-.26l-3.4-2.86a.34.34 0 0 0-.56.27l.04 4.46a.34.34 0 0 0 .12.26zM168 60.69q.3.1.61.05a.21.21 0 0 0 .1-.37l-3.9-3.26q-.64-.53-.47.28c.52 2.52 1.61 2.61 3.66 3.3m18.33-.75c.18 3.63-.59 7.58.99 10.86q1.27 2.65 2.52 5.21.83 1.68.73-.19c-.18-3.29.55-6.82-.93-9.88q-1.31-2.72-2.67-5.65-.16-.35-.53-.44a.09.09 0 0 0-.11.09m-89.25 1.95q.24.26.52.47.76.53.51-.36-.55-1.87-2.51-1.87-.63 0-.18.44.38.37.86.66.45.27.8.66m36.03 2.97-2.21-4.47q-.35-.72-.48.07c-.44 2.78.4 3.43 2.17 4.83q1.19.94.52-.43m-32.27.72a.4.4 0 0 0 .25.21l4.18 1.14a.39.39 0 0 0 .46-.55l-1.86-3.92a.4.4 0 0 0-.25-.21l-4.17-1.14a.39.39 0 0 0-.46.55zM86.4 63.41a.27.26-24.7 0 0 .14-.36q-.18-.38-.58-.45-2.09-.39-4.12-1.14-.8-.29-.34.43 1.77 2.76 4.9 1.52m80.44-2q-.75-.2-.42.51l3.12 6.76q.65 1.41.64-.15l-.05-5.52q-.01-.73-.71-.92zm11.51 5.87q.89.52.47-.43l-1.95-4.36q-.32-.71-.54.04-.88 3.08 2.02 4.75m-48.84-2.51q-.27-1.19-1.27-1.89-.47-.34-.39.23.31 2.17 2.02 2.64.58.16.58.76l-.02 3.04q-.01.56.42.92l3.13 2.63a.35.35 0 0 0 .57-.27l-.02-3.74q0-.53-.32-.95-1.75-2.3-4.27-2.93-.35-.09-.43-.44m42.9 22.12q1.92 4.09 3.76 8.24c1.34 3 4.85 5.12 7.27 7.29q1.07.95.49-.36c-1.4-3.18-3.69-6.58-3.65-10.15.04-3.67.72-8.4-.86-11.74q-3.86-8.15-7.72-16.55-.56-1.22-.56.12l.01 21.94q0 .39.32.6.15.1.33.13a.88.85-6 0 1 .61.48m-83.8-19.05a.5.5 0 0 0 .34.09l4-.4a.49.49 0 0 0 .27-.86l-3.15-2.7a.49.49 0 0 0-.4-.11l-4.09.67a.49.49 0 0 0-.21.88zm22.02.15-4-3.45q-.66-.57-.47.28.74 3.47 4.37 3.44.41-.01.1-.27m-17.2-3.27q-.71-.19-.29.41 1.97 2.77 5.18 1.41.71-.29-.03-.49zm76.2 16.36a.3.3 0 0 0 .57-.12l-.06-8.5a.3.3 0 0 0-.03-.12l-3.49-7.69a.3.3 0 0 0-.57.13l.05 8.47a.3.3 0 0 0 .03.12zm5.01-13.49q.27.6.44-.03.45-1.81-1.18-2.83-.8-.51-.41.35zm-92.67-1.86 2.03.75q1.35.5.41-.59-.91-1.06-2.36-.89-1.53.19-.08.73m45.58 3.26q-1.8-1.49-3.5-3.07-.62-.58-.46.25.66 3.31 3.91 3.55.23.01.44-.08.14-.07.2-.23a.22.21 9.8 0 0-.21-.29q-.22 0-.38-.13m-26.78-1.12q-.31-.67-1.04-.54l-2.43.45a.46.46 0 0 0-.21.81l5.64 4.74q.97.81.43-.33zm76.01-.57a.44.44 0 0 0-.72.38l.38 4.22a.44.44 0 0 0 .14.28l3.03 2.85a.44.44 0 0 0 .75-.33l-.07-4.33a.44.44 0 0 0-.16-.33zm-60.2 13.49q.22.18.51.13.72-.13.16-.6l-14.51-12.34q-1.72-1.47-.63.51c2.1 3.82 3.09 8.82 7.87 10.28q2.73.84 5.6 1.52.55.14 1 .5M96.564 69.475a1.95.5 21.5 0 0-1.63-1.18 1.95.5 21.5 0 0-1.998-.25 1.95.5 21.5 0 0 1.63 1.18 1.95.5 21.5 0 0 1.998.25m7.986-1.255 2.42 2.09q.55.48.39-.23-.47-2.09-2.67-2.21-.57-.03-.14.35m5.62 4.98a.4.4 0 0 0 .21.18l4.05 1.48a.39.39 0 0 0 .49-.52l-1.8-4.06a.39.39 0 0 0-.26-.22l-4.3-1.17a.39.39 0 0 0-.45.57zm18.78 4.73a.34.34 0 0 0 .65-.15l-.22-6.22a.34.34 0 0 0-.25-.32l-3.03-.89a.34.34 0 0 0-.41.47zm8.91-1.57q.84.49.41-.38l-2.34-4.73q-.26-.53-.39.05-.74 3.28 2.32 5.06m-22.61-3.84c.47 2.2 1.83 3.46 4.09 3.44q.74 0 .18-.48l-3.84-3.21q-.58-.49-.43.25m15.15.84.06 9.59q.01.52.4.86l8.05 6.78q.72.6.33-.25-3.94-8.51-8.05-17.3-.33-.72-.99-1-.35-.15-.22.21.06.18.17.33.25.35.25.78m53.41 5.09q.63.34.32-.3l-2.31-4.8q-.35-.72-.52.06-.72 3.28 2.51 5.04m-58.45-4.49v4.56q0 .55.4.92 1.32 1.26 2.73 2.32 1.48 1.11.78-.6-1.47-3.59-3.32-7.34-.59-1.21-.59.14m9.455 2.843a1.79.48 58.9 0 0-.514-1.78 1.79.48 58.9 0 0-1.336-1.286 1.79.48 58.9 0 0 .514 1.78 1.79.48 58.9 0 0 1.336 1.286m45.475 1.307q.01-1.59-1.28-2.39-.65-.41-.42.32.38 1.23 1.17 2.25.53.69.53-.18m-65.68-2.31q-1.52-.39-.34.65l1.83 1.6q.57.5.43-.24-.29-1.6-1.92-2.01m21.66.59a.49.49 0 0 0-.81.41l.3 4.07a.5.5 0 0 0 .15.32l2.9 2.79a.49.49 0 0 0 .83-.36l-.03-4.17a.5.5 0 0 0-.17-.37zm-13.95 1.66a.3.3 0 0 0-.19-.17l-4.37-1.19a.3.3 0 0 0-.35.41l1.88 4.11a.3.3 0 0 0 .19.17l4.39 1.21a.3.3 0 0 0 .35-.42zm59.58.26q-.61-.49-.61.3l.06 14.62a3.98 3.9-58.1 0 0 .37 1.67l7.94 17.12q1.07 2.3.92-.23c-.18-3.24.51-6.6-.93-9.6-1.64-3.42-4.38-7.79-4.28-11.51q.11-4.47.02-8.8-.01-.77-.61-1.26zm-66.38 2.97-3.59-.95q-.79-.2-.3.45 1.84 2.5 3.98 1.5 1.35-.62-.09-1m13.21 1.98-2.81-2.32a.35.35 0 0 0-.58.28l.03.85a1.08 1.07-77 0 0 .55.89q1.23.67 2.57.84 1.06.14.24-.54m11.83-.47q-.35 3.17 2.48 4.61.63.32.33-.32l-2.09-4.41q-.57-1.21-.72.12m-22.53.15-2.32.38a.44.44 0 0 0-.22.77l5.79 4.95q.93.79.41-.32l-2.41-5.13q-.38-.79-1.25-.65m11.47 18.8q-.08-3.48-.04-7.09c.02-2.32-1.77-5.51-3.57-7.05q-2.54-2.17-5.09-4.33-.97-.82-.43.33l8.53 18.28q.63 1.36.6-.14m-17.85-11.98q.32-.15.47.17l9.23 19.94a.09.03 73.2 0 1 .02.03q.32.37.66.26.45-.15.82.16 4.04 3.41 7.87 6.68 1.26 1.07 3.35 1.38.47.06.52-.41.13-1.13-.61-1.79-3.13-2.8-6.52-5.49-2.06-1.64-3.08-3.94-1.98-4.46-4.01-8.7-.13-.29.17-.37l.42-.11q.2-.06.29.12 2.17 4.28 3.95 8.49c1.34 3.17 5.09 5.4 7.58 7.68q.96.88.41-.3l-4.53-9.74a4.7 4.69 7.8 0 0-1.25-1.64q-3.28-2.8-6.59-5.5-1.93-1.56-2.87-3.75-1.75-4.05-3.7-8.07a1.75 1.74-20.5 0 0-2.04-.92q-3.97 1.12-7.93-.42-.93-.36-.49.54 1.44 2.97 2.82 6.25c1.41 3.34 4.72 5.24 7.32 7.58q1.36 1.23.58-.43l-3.31-7.1a.35.35 0 0 1 .17-.46zm14.342-3.766a1.85.49 44.4 0 0-.98-1.644 1.85.49 44.4 0 0-1.664-.944 1.85.49 44.4 0 0 .98 1.644 1.85.49 44.4 0 0 1.664.944m60.338-1.774c.21 3.64-.56 7.5 1.03 10.89q1.27 2.71 2.5 5.13.81 1.58.73-.2c-.16-3.3.55-7.13-1.02-10.12q-1.21-2.32-2.29-4.9-.25-.59-.83-.88a.08.08 0 0 0-.12.08m-56.89 2.16q-.02-1.2-1.17-1.54l-1.02-.3q-.73-.21-.5.51.53 1.69 1.48 3.1 1.27 1.88 1.23-.38zm10.378 1.514a1.9.47 61.8 0 0-.484-1.896 1.9.47 61.8 0 0-1.312-1.453 1.9.47 61.8 0 0 .484 1.897 1.9.47 61.8 0 0 1.312 1.453m-6.748 2.516a.36.36 0 0 0 .43-.51l-2.24-4.29a.36.36 0 0 0-.68.14l-.24 3.5a.36.36 0 0 0 .25.37zm-13.6 3.21c1.01 2.07 5.05 4.82 6.88 6.33q1.07.87.43-.35c-1.66-3.16-2.6-7.03-5.52-9.33q-2.38-1.87-4.6-3.82-.85-.74-.39.29 1.51 3.42 3.2 6.88m24.6 1.36a.39.39 0 0 0 .65-.29l-.03-4.33a.4.4 0 0 0-.13-.3l-3.27-2.81a.39.39 0 0 0-.65.3l.01 4.32a.39.39 0 0 0 .14.3zm46.58 41.74c-.45-1.27-.13-4.55-.09-6.09q.06-2.42-1.19-4.91-1.88-3.75-3.55-7.58a4.75 4.7 33.4 0 1-.4-1.9l-.01-10.27q0-.55-.41-.91-3.22-2.84-6.8-5.73c-3.18-2.55-4.83-8.04-6.53-11.65q-.51-1.08-.51.12 0 3.01-.07 6.1-.05 2.31 1.13 4.81 8.77 18.66 17.64 37.96.12.27.39.41.64.3.4-.36m-56.43-48.77q-.43-.37-.35.2.5 3.37 3.9 3.44.8.02.19-.5zm.75 5.25q-.54-1.49-2.05-1.91-1.14-.31-.35.57.83.93 1.89 1.72.88.65.51-.38m-4.08 1.71q2.26 3.44 4.19 8.4c1.41 3.64 5.08 5.82 7.89 8.22q.88.74.38-.29-2.92-6.08-5.74-12.47c-1.4-3.17-4.12-4.53-6.4-6.81q-.61-.6-.78.23-.32 1.52.46 2.72m8.84-1.04a.64.64 0 0 0-.45-.67l-2.82-.88a.42.42 0 0 0-.51.57q1.41 3.27 3.02 6.41 1.11 2.17.76-.24-.31-2.16 0-5.19m8.86 4.51-2.38-5.13q-.27-.59-.41.04-.85 3.73 2.68 5.21.21.09.11-.12m-7.95-3.76c-.04 3.86-.78 9.3 2.02 12.28q2.2 2.33 6.32 5.5.76.58.36-.29l-8.16-17.6q-.53-1.13-.54.11m3.75 4.1q.61.83.5-.19-.14-1.37-.89-2.53a.45.45 0 0 0-.8.38q.38 1.21 1.19 2.34m-13.94 3.65q.01 1.07.82 1.77 4.34 3.79 9.29 7.69.17.14.3-.03l.19-.23q.15-.19-.04-.35c-2.6-2.18-5.3-3.92-6.73-7.27q-1.64-3.82-3.39-7.42-.52-1.06-.5.12zm19.38 3.38-.03-3.97q0-.64-.49-1.05l-3.03-2.57a.24.24 0 0 0-.39.13q-1.23 5.23 3.57 7.69a.26.25-76.6 0 0 .37-.23m22.28 28.97q2 3.95 3.78 8.21c1.47 3.54 4.98 5.47 7.75 8.06q.79.74.37-.26c-1.24-3.02-3.79-6.88-3.73-10.18.07-3.5.72-8.7-.81-11.94q-4.09-8.62-7.83-16.82-.37-.81-1.22-1.05-4.22-1.21-8.51-2.31c-3.74-.95-7.59-5.25-10.55-7.68q-.94-.77-.43.33l38.83 83.67q.74 1.59.74-.16c0-3.45.59-7.04-1.04-10.29-1.59-3.2-4.17-7.5-4.09-11.15q.11-4.35.01-8.82a1.41 1.37 20.7 0 0-.48-1.02q-3.32-2.92-6.67-5.6-1.96-1.56-2.93-3.74-2.03-4.57-3.99-8.67a.44.43 62.2 0 1 .17-.56l.24-.13q.25-.15.39.11m-18.5-25.53-2.25-4.83q-.33-.7-.48.05-.74 3.5 2.48 5.02.46.22.25-.24m-8.9 12.1-.02-6.5q-.01-.86-.81-1.16c-2.09-.76-3.96-.88-5.79-2.41q-3.45-2.9-6.75-5.72-1.43-1.22-.6.46c1.47 2.99 2.49 6.67 5.17 8.83q4.22 3.42 8.12 6.81.68.6.68-.31m4.78-11.43q.33.49.41-.09.29-1.96-1.29-3.09-.6-.44-.41.28.44 1.59 1.29 2.9m36.85-.61q.13 2.75.03 5.34c-.13 3.34 2.03 6.85 3.5 9.86q.8 1.64.72-.18-.14-3.04-.04-6.01c.09-3.15-2.11-6.32-3.4-9.2q-.91-2.05-.81.19m-72.554 1.48a1.58.24 39.7 0 0-1.063-1.195 1.58.24 39.7 0 0-1.369-.824 1.58.24 39.7 0 0 1.063 1.194 1.58.24 39.7 0 0 1.369.824m40.544 6.24a.34.34 0 0 0 .56-.26v-4.43a.34.34 0 0 0-.12-.26l-3.38-2.86a.34.34 0 0 0-.56.26l.01 4.44a.34.34 0 0 0 .12.26zm-10.28-6.8q.65 3.32 3.94 3.38.8.02.19-.49l-3.73-3.12q-.53-.45-.4.23m35.04 5.52-2.42-5.16a.03.03 0 0 0-.04-.02l-.06.03a2.72 1.32 64.9 0 0-.04 3.03l.13.29a2.72 1.32 64.9 0 0 2.35 1.9l.07-.03a.03.03 0 0 0 .01-.04m-50.3.88.01-.01q.08-.12-.04-.2-3.51-2.55-6.59-5.4-.16-.14-.3.02h-.01q-.1.11.01.21 3.21 3.04 6.57 5.44.21.14.35-.06m-14.49-4.99q-.07.33.21.35.23.02.25-.21.03-.27-.3-.26a.17.16 6.7 0 0-.16.12m.86.74q.69.69 1.47 1.06.56.28.15-.19-.64-.72-1.48-1.07-.59-.25-.14.2m58.7.73a.23.23 0 0 0-.35.26q.44 1.47 1.19 2.64.39.61.49-.1.25-1.8-1.33-2.8m-27.4 1.12a.34.33-2.9 0 0-.41.45q1.48 3.53 3.39 7.25.39.78.39-.1l-.02-5.93q0-.6-.57-.79zm12.11 5.76-1.94-4.32q-.42-.92-.66.06-.73 2.96 2.24 4.59.67.37.36-.33m21.76 2.88-.02-3.78q-.01-.53-.42-.87l-3.05-2.5q-.5-.41-.62.23-.86 4.8 3.39 7.33.72.43.72-.41m-40.05-3.09-4.5-3.85a.05.05 0 0 0-.07.01l-.03.03a2.83 1.26 40.5 0 0 1.33 2.8l.28.23a2.83 1.26 40.5 0 0 2.97.88l.03-.03a.05.05 0 0 0-.01-.07m10.55-3.02v10.05a1.27 1.27 0 0 0 .44.96l7.61 6.48q1.14.97.51-.39l-7.96-17.23q-.6-1.3-.6.13m-4.92 6.47c1.21.9 2.15 2.05 3.46 2.7q.96.47.51-.5l-3.8-8.18a.17.17 0 0 0-.33.07l-.07 5.45a.58.57-72.1 0 0 .23.46m-16.61-5.58q.16.24.4.11a.23.23 0 0 0 .02-.4q-.18-.11-.35-.01-.2.11-.07.3m25.63 3.317a1.86.51 68.2 0 0-.216-1.916 1.86.51 68.2 0 0-1.165-1.538 1.86.51 68.2 0 0 .218 1.916 1.86.51 68.2 0 0 1.164 1.538m-23.21 1.423-.98-1.9q-.26-.5-.81-.65l-4.12-1.14q-1.2-.32-.32.55c1.51 1.5 3.76 3.64 5.91 3.67q.6 0 .32-.53m-.25-3.69-.42-.2q-1.09-.53-.23.33 1.47 1.46 3.3 2.6.57.35.58-.32.04-1.83-2.03-2.06-.63-.07-1.2-.35m24.48 1.97q-.82 4.84 3.4 7.19.59.33.6-.35l.04-3.57q.01-.81-.61-1.33l-2.65-2.23q-.64-.55-.78.29m-17.88 3.38-1.66-3.58a.43.43 0 0 0-.81.08q-.59 2.45 1.91 3.99 1.09.67.56-.49m4.57-2.1a.31.31 0 0 0-.2-.17l-4.36-1.18a.31.31 0 0 0-.36.44l1.93 4.09a.31.31 0 0 0 .2.17l4.36 1.17a.31.31 0 0 0 .36-.44zm38.68 1.44q-.4.73.15 1.35.86.98 1.86 1.88 1.21 1.08.55-.4l-1.95-4.4q-.35-.78-.59.03-.16.53.02 1.01a.7.68-41.5 0 1-.04.53m-48.26-.88q.32.79.89 1.49a.25.25 0 0 0 .44-.21q-.18-.94-1.02-1.53-.57-.4-.31.25m45.84 1.59q-.39-.22-.28.22.35 1.42 1.21 2.64.34.49.42-.1.26-1.84-1.35-2.76m-32.75.73a.29.28 21.3 0 0-.46.2q-.21 2.55 3.12 2.63.92.03.2-.55zm-9.13.31-1.22.46q-.59.23.01.43.84.29 1.48-.53.5-.65-.27-.36m-2.47.42q-.21.21.09.19l.36-.03q.34-.03.06-.21-.29-.19-.51.05m27.23.52a.18.17 50.9 0 0-.33-.04q-1.56 3.66 1.97 5.24.72.32.31-.36-1.4-2.31-1.95-4.84m19.47.71q.17 7.2.03 13.44-.06 2.16.92 4.23 3.95 8.34 7.6 16.22.82 1.79.75-.18c-.11-3.42.55-6.98-1.04-10.22-1.52-3.11-4.18-7.49-4.13-10.83q.08-4.63.01-9.33-.01-.62-.49-1l-3.2-2.55q-.46-.36-.45.22m-42.09 5.61q.46.26.46-.26l-.01-4a1.24 1.24 0 0 0-1.44-1.22l-1.87.31q-1.18.19-.72 1.3 1.01 2.44 3.58 3.87m10.09 13.46q.6 1.3.58-.13-.04-3.37-.03-7.17c0-2.31-1.89-5.83-3.74-7.28q-2.52-1.97-4.87-4.09-1.02-.92-.44.33zm-5.65-17.93 2.01 1.81q.98.88.53-.36-.59-1.62-2.25-2.02-1.27-.31-.29.57m5.57 1.02c-.54-.15-1.02-.43-1.55-.58a.41.41 0 0 0-.51.49q.55 2.2 2.05 3.93a.38.38 0 0 0 .66-.25l-.01-2.77q-.01-.65-.64-.82m9.21.01q.34 1.36.98 2.56.38.71.53-.08.36-1.8-1.09-2.77-.59-.41-.42.29m-4.85 5.31a.31.31 0 0 0 .34-.45l-2.38-4.48a.31.31 0 0 0-.58.13l-.18 3.9a.31.31 0 0 0 .24.32zm-9.96 1.45-2.64-5.3a.04.04 0 0 0-.06-.01l-.04.02a2.81 1.29 63.5 0 0 .1 3.09l.17.34a2.81 1.29 63.5 0 0 2.41 1.94l.04-.03a.04.04 0 0 0 .02-.05m20.81 3.17a.4.4 0 0 0 .66-.3l.03-4.28a.4.4 0 0 0-.14-.31l-3.26-2.8a.4.4 0 0 0-.66.3l-.03 4.29a.4.4 0 0 0 .14.31zm-6.07-3.82-3.66-3.19q-.68-.59-.49.3.69 3.13 3.92 3.43.96.09.23-.54m31.66 14.02a.31.31 0 0 0 .59-.13l-.09-8.49a.3.3 0 0 0-.03-.13l-3.5-7.69a.31.31 0 0 0-.59.13l.07 8.44a.3.3 0 0 0 .03.13zm-50.12-12.942a1.78.49 60.4 0 0-.454-1.79 1.78.49 60.4 0 0-1.305-1.306 1.78.49 60.4 0 0 .453 1.79 1.78.49 60.4 0 0 1.305 1.306m12.96-.408 2.2 1.86q.66.56.41-.27-.68-2.16-2.46-2.04-.64.05-.15.45m-8.16 12.05q.13-4.48.01-8.58-.02-.7-.55-1.15l-2.63-2.2a.51.5 20.3 0 0-.83.38q-.02 6.68-.06 13.23-.02 2.05 1.03 4.25 4.08 8.63 7.72 16.44.6 1.29.53-.13c-.16-3.19.56-7.39-.87-10.36-1.67-3.46-4.46-7.9-4.35-11.88m7.94-6.85q1.64 3.44 3.09 6.85c1.34 3.15 4.87 5.25 7.33 7.48q1.21 1.1.52-.38-2.84-6.1-5.58-12.26c-1.36-3.06-4.07-4.57-6.41-6.7q-.55-.49-.71.23-.42 1.94.58 3.03.7.76 1.18 1.75m3.68-4.11 3 6.52q.47 1.02.57-.1.23-2.63.14-5.52a.81.81 0 0 0-.6-.77l-2.62-.71a.42.42 0 0 0-.49.58m12.51 5.21-2.1-4.93q-.17-.41-.32.01-1.25 3.65 2.21 5.12.36.15.21-.2m-5.34 9.25c1.86 1.61 3.99 3.23 5.62 5.12q.39.44.56-.12.07-.25-.04-.48-4.17-8.88-7.9-17.19-.52-1.14-.59.11c-.23 3.68-.93 9.71 2.35 12.56m-.05-11.33 1 2.45q.4.99.57-.06.28-1.74-1.15-2.73-.77-.54-.42.34m-12.02.74q-.53-1.11-.54.12l-.03 6.07q0 .51.39.83l9.72 8.11q.27.22.49-.05l.19-.23q.04-.05 0-.09c-2.32-2.25-5.26-3.82-6.62-6.91q-1.74-3.95-3.6-7.85m-2.13 17.22q.6 1.36.58-.13-.02-2.98.04-6.05c.08-3.38-2.22-6.87-3.62-9.88q-.55-1.19-.53.12c.06 3.44-.61 7.43 1 10.62q1.35 2.67 2.53 5.32m16.86-15.42q-.85 4.88 3.49 7.33.56.32.56-.33v-3.79q0-.67-.5-1.09l-2.83-2.38q-.58-.49-.72.26m7.88 10.54-2.26-4.78q-.35-.74-.52.06-.73 3.51 2.53 4.97.47.21.25-.25m-21.82 24.28q.31-.29.49.09l9.72 20.89a4.45 4.35 8.1 0 0 1.16 1.51l10.99 9.28q.69.59.7-.32l.01-3.5q.01-.84-.62-1.4-3.16-2.78-6.58-5.53-1.99-1.6-3.06-4-1.91-4.31-3.91-8.66-.07-.15.05-.25l.19-.17a.41.4 56.1 0 1 .63.13q2.09 4.14 3.92 8.47c1.34 3.16 4.88 5.32 7.36 7.51q1.05.93.5-.36c-1.39-3.25-3.68-6.58-3.62-10.25.07-3.61.72-8.38-.88-11.68q-1.87-3.86-3.67-7.85a5.52 5.33-58.1 0 1-.48-2.24l.01-10.12a1.5 1.5 0 0 0-1.07-1.44c-1.92-.59-3.88-.84-5.47-2.2q-3.61-3.08-7.25-6.15a.28.28 0 0 0-.46.22l-.01 32.5q0 .58.45.96l3.3 2.79q1.28 1.09.58-.44l-3.31-7.19q-.09-.2.06-.35zm17.95-24.32q.16-1.62-1.31-2.43-.77-.42-.4.37l1.02 2.18q.56 1.2.69-.12m4.61 7.91a.33.33 0 0 0 .54-.26l-.07-4.52a.33.33 0 0 0-.12-.25l-3.44-2.9a.33.33 0 0 0-.54.26l.06 4.52a.33.33 0 0 0 .12.25zm-10.06-7.31q-.42-.38-.34.18.52 3.5 4.04 3.81.83.07.21-.49zm22.29 3.27a.31.31 0 0 0-.6.13l.09 8.45a.3.3 0 0 0 .03.13l3.51 7.69a.31.31 0 0 0 .59-.13l-.09-8.46a.3.3 0 0 0-.03-.13zm-20.56 1.77 3.16 6.84q.63 1.36.62-.14l-.04-5.61q0-.73-.71-.9l-2.63-.67q-.7-.18-.4.48m9.81.8q-.52 3.26 2.44 4.74.7.35.36-.36l-2.18-4.47q-.45-.94-.62.09m-3.82 24.2q1.94 3.97 3.52 7.73c1.45 3.45 5.07 5.59 7.76 7.97q.82.73.38-.28c-1.32-3.04-3.8-6.75-3.75-10.1.06-3.92.73-8.74-1.02-12.4q-4.03-8.44-7.66-16.39-.5-1.08-.49.11.06 11.02 0 22.09 0 .36.21.63.11.13.27.13.54.02.78.51m-2.77-5.84a.3.3 0 0 0 .57-.12l-.04-8.49a.3.3 0 0 0-.03-.12l-3.49-7.73a.3.3 0 0 0-.57.13l.04 8.47a.3.3 0 0 0 .03.12zm5.51-13.44q.47-2.02-1.34-2.85-.64-.29-.33.34l1.24 2.56q.28.58.43-.05m2.31.22q-1.3-1.05-1.35.62-.15 4.5 3.68 6.53.62.32.61-.37l-.04-3.6q-.01-.83-.66-1.36zm-28.69 6.72q-1.2-2.77-2.55-5.35-.52-.99-.49.13.07 2.97-.03 6.2c-.08 2.82 1.63 5.95 3.02 8.29q.87 1.46 1.01-.23.23-2.68.11-5.93c-.04-1.27-.6-2.02-1.07-3.11m35.5 3.9-2.59-5.52a.03.03 0 0 0-.04-.01l-.05.02a2.89 1.27 64.9 0 0 .07 3.16l.16.34a2.89 1.27 64.9 0 0 2.38 2.08l.06-.03a.03.03 0 0 0 .01-.04m-5.38-2.72q-.7-.33-.33.35l1.28 2.42q.46.87.54-.11.15-1.87-1.49-2.66m2.36 2.96q.23 6.7.06 13.08-.06 2.08 1.08 4.52 3.85 8.28 7.33 15.77 1.05 2.26.89-.22c-.19-3.03.51-6.62-.85-9.46-1.61-3.35-4.43-7.91-4.35-11.6q.09-4.51.02-8.76a1.89 1.89 0 0 0-.69-1.44l-2.72-2.27a.47.47 0 0 0-.77.38m8.79 22.01a.3.3 0 0 0 .57-.13l-.1-8.48a.3.3 0 0 0-.03-.12l-3.52-7.68a.3.3 0 0 0-.58.13l.08 8.46a.3.3 0 0 0 .03.12zm-70.94-7.91a8.68 8.63 7.8 0 0 2.25 2.95l5.12 4.36q.89.75.38-.3c-1.55-3.18-2.64-7.19-5.48-9.45q-2.4-1.92-4.68-3.87-.9-.76-.4.3zm44.62 11.77c-2.81-2.32-4.34-7.13-5.82-10.48-1.29-2.93-4.32-4.69-6.59-6.74a.28.28 0 0 0-.47.2l.02 10.81q0 .63.48 1.03 3.49 2.9 6.94 5.95c2.67 2.35 6.42 2.77 9.71 3.6q1.46.36.3-.6-2.22-1.83-4.57-3.77m8.12-16.68q-.56-1.22-.61.12-.09 2.79-.11 5.82-.02 2.29 1.33 5.21 9.04 19.51 17.17 36.98 1.24 2.67.99-.26c-.23-2.72.48-6.13-.63-8.59-1.66-3.7-4.74-8.5-4.6-12.55q.16-4.58.01-8.78a1.17 1.13 20 0 0-.4-.82q-3.29-2.87-6.78-5.71c-3.13-2.55-4.73-7.8-6.37-11.42m0 46.74q.2-.09.29.1 2.06 4.14 3.97 8.57c1.36 3.14 4.8 5.19 7.31 7.42q1.11.98.51-.37c-1.4-3.19-3.72-6.63-3.62-10.22.1-3.36.69-8.31-.77-11.4q-4.17-8.81-7.98-17.21-.24-.54-.8-.7l-10.4-2.88a3.53 3.47 72.8 0 1-1.36-.73l-7.28-6.25q-1.34-1.15-.6.45l38.7 83.41q.79 1.69.76-.18-.05-2.84.02-5.79c.11-5.43-5.27-9.86-5.18-15.3q.08-4.75.02-9.29-.01-.5-.38-.83-3.22-2.84-6.75-5.67-1.97-1.58-2.95-3.74-2.06-4.55-3.97-8.71-.18-.4.22-.58zm-29.69-21.51c-4.1-1-7.72-4.97-10.8-7.7q-1.36-1.21-.6.45l3.16 6.82a2.71 2.68 7.8 0 0 .7.91l24.4 20.65q1.02.86.46-.35l-8.27-17.84a1.42 1.41 85.6 0 0-.88-.76q-3.9-1.15-8.17-2.18m44.17-4.81q.2 3.29.08 6.49c-.13 3.23 2.12 6.79 3.5 9.6q.78 1.59.7-.19-.13-2.87-.03-5.84c.11-3.29-2.25-6.77-3.56-9.71q-.16-.35-.53-.47a.12.12 0 0 0-.16.12m-9.76 5.83c.5.49 1.37 1.21 1.94 1.62q.89.65.44-.35l-2.09-4.66q-.46-1.01-.54.09-.1 1.48.01 2.78.02.31.24.52m-2.5-.95q-.91-.6-.47.39l.97 2.14q.47 1.05.63-.09.21-1.54-1.13-2.44m-15.34 6.94-2.3-5.02a.05.05 0 0 0-.07-.03l-.04.03a2.66 1.3 65.4 0 0-.08 2.96l.13.27a2.66 1.3 65.4 0 0 2.29 1.88l.04-.03a.05.05 0 0 0 .03-.06m18.02-4.52a.39.39 0 0 0-.63.33l.36 4.32a.4.4 0 0 0 .12.25l3.13 2.92a.39.39 0 0 0 .65-.29l-.04-4.43a.39.39 0 0 0-.14-.3zm-22.27 4.99q.39.83.53-.07.27-1.68-1.18-2.68-.96-.65-.47.4zm5.31 7.25q1.57-5.12-3.19-7.5-.54-.27-.63.32-.78 4.88 3.59 7.27a.16.16 0 0 0 .23-.09m21.58-3.61q0 .58.45.95l1.66 1.36q1.13.93.5-.39l-2.01-4.26q-.58-1.22-.59.13zm-36.5-.16q.8 3.47 4.19 3.68.73.05.18-.43l-4-3.47q-.53-.45-.37.22m34.9 2.74q.3.61.46-.05.43-1.73-1.15-2.63-.89-.52-.44.4zm-15.82 4.28q-1.4-2.16-2.11-4.82-.2-.73-.46-.02-1.34 3.57 2.36 5.08a.17.17 0 0 0 .21-.24m17.36-4.52.09 15.08q0 .83.35 1.58l7.96 17.15q.96 2.08.89-.21c-.11-3.39.53-6.77-1.05-9.97-1.57-3.18-4.22-7.52-4.14-11.09q.1-4.52.03-9.17-.01-.31-.23-.52-1.86-1.8-3.71-2.95a.12.12 0 0 0-.19.1m-37.67 1.33 2.15 1.82q.74.63.48-.31-.51-1.85-2.41-2.03-.94-.09-.22.52m5.38 4.8a.44.44 0 0 0 .24.21l4 1.35a.44.44 0 0 0 .54-.61l-1.84-3.88a.44.44 0 0 0-.28-.23l-4.13-1.16a.44.44 0 0 0-.51.63zm10.34-1.32q.38.87.58-.06.39-1.77-1.23-2.62-.67-.36-.37.34zm5.07 7.5a.4.4 0 0 0 .66-.3l.01-4.33a.4.4 0 0 0-.14-.3l-3.26-2.86a.4.4 0 0 0-.66.3l-.02 4.33a.4.4 0 0 0 .14.3zm-6.4-3.48q.78.03.2-.49l-3.6-3.19a.27.27 0 0 0-.44.24q.53 3.31 3.84 3.44m32.02 13.65a.31.31 0 0 0 .59-.13l-.12-8.48a.3.3 0 0 0-.03-.13l-3.53-7.68a.31.31 0 0 0-.59.13l.11 8.46a.3.3 0 0 0 .03.13zm-34.59-11.6q-.5-2.1-2.54-2.28-.73-.07-.18.41l2.4 2.07q.47.41.32-.2m3.61-.64-2.24-.59q-.83-.21-.48.57l2.94 6.47q.64 1.41.66-.13l.1-5.03a1.31 1.31 0 0 0-.98-1.29m7.22.53c-.83 2.27.35 3.85 2.21 4.89q.62.34.33-.31l-2.06-4.59q-.26-.58-.48.01m-4.72.93a.31.31 0 0 0-.59.14l.05 8.36a.3.3 0 0 0 .03.13l1.74 3.78a.3.3 0 0 0 .08.1l6.32 5.49a.31.31 0 0 0 .49-.37zm1.84 1.67 1.04 2.49q.33.82.54-.04.48-1.95-1.27-2.75-.54-.25-.31.3m3.34 2.08a.44.44 0 0 0-.73.36l.27 4.24a.44.44 0 0 0 .13.29l3.04 2.92a.44.44 0 0 0 .74-.32l-.04-4.31a.44.44 0 0 0-.15-.33zm7.22 10.87-2.27-4.76q-.29-.62-.45.05-.78 3.44 2.41 5.01.58.28.31-.3m-4.33.64a.24.24 0 0 0 .44-.03q.57-1.94-1.13-2.86-.77-.41-.42.39zm2.14-.59a.39.39 0 0 0-.65.3l.07 4.4a.4.4 0 0 0 .13.28l3.32 2.89a.39.39 0 0 0 .65-.3l-.08-4.41a.4.4 0 0 0-.13-.28zm-3.09 4.1-4.06-3.48a.11.11 0 0 0-.15.02l-.02.02a2.63 1.28 40.6 0 0 1.16 2.68l.23.2a2.63 1.28 40.6 0 0 2.83.74l.02-.03a.11.11 0 0 0-.01-.15m18.04-.29q-.42-.72-.37.11c.2 3.6-.57 7.48 1.08 10.82q1.24 2.5 2.44 5 .82 1.71.73-.18-.13-2.44-.01-5.15c.16-3.65-2.11-7.56-3.87-10.6m-16.51 8.27-.05-5.13a1.22 1.21 6.4 0 0-.94-1.17l-2.32-.55q-.71-.17-.41.49l2.98 6.52q.76 1.67.74-.16m6-4.34q-.14 1.75 2.22 3.37.93.64.47-.38l-2.01-4.44q-.32-.69-.63 0-.21.46-.08 1.04.04.2.03.41m-3.9 22.75q1.88 3.72 3.67 7.98c1.42 3.39 5.03 5.48 7.68 7.92q.95.88.41-.3l-3.2-6.98a5.67 5.58-58.1 0 1-.52-2.32q-.02-4.15.07-8.37.05-2.43-1.09-4.82-3.79-7.89-7.68-16.39-.48-1.05-.48.1l.01 22.13q0 .23.07.44.13.34.34.28.49-.13.72.33m-2.65-5.63a.3.3 0 0 0 .57-.12l-.06-8.48a.3.3 0 0 0-.03-.12l-3.47-7.83a.3.3 0 0 0-.58.13l.03 8.51a.3.3 0 0 0 .03.12zm3.79-16.11 1.24 2.64q.33.69.49-.05.42-1.99-1.47-2.85a.2.19-.4 0 0-.26.26m2.77 2.68q-.74 4.87 3.58 7.27.57.32.57-.34l-.04-3.73q-.01-.73-.57-1.2l-2.8-2.29q-.62-.51-.74.29m5.11 7.31q-.03.13-.09.25a.86.85 37.2 0 0 .12.87q1.07 1.36 2.38 2.43.76.62.37-.28l-2.19-4.95q-.43-.96-.54.09-.07.65-.01 1.27a.93.83-41.4 0 1-.04.32m-1.05 3.55q.31-1.78-1.23-2.77-.59-.38-.39.29.41 1.41 1.29 2.56.26.34.33-.08m.99-.47q.2 7.24.03 13.57-.06 2.28.89 4.31 3.89 8.27 7.53 16.11.98 2.1.87-.22c-.13-2.91.52-6.56-.75-9.27-1.62-3.43-4.54-8.1-4.43-11.85q.11-4.24-.03-9.4-.01-.26-.21-.42l-3.75-2.91q-.16-.13-.15.08m8.73 22.61a.31.31 0 0 0 .59-.13l-.1-8.49a.3.3 0 0 0-.03-.13l-3.49-7.71a.31.31 0 0 0-.6.14l.08 8.44a.3.3 0 0 0 .03.13zm-18.2-12.74q-.67-1.41-.63.15.07 2.79-.05 5.69-.09 2.35 1.01 4.69 9.03 19.23 17.67 37.95.72 1.57.73-.15c.01-3.2.57-6.94-.85-9.93-1.51-3.14-4.32-7.66-4.26-11.02q.08-4.68-.02-9.44-.01-.5-.38-.83-3.28-2.91-6.76-5.68c-3.15-2.5-4.71-7.79-6.46-11.43m18.22 36.96a.31.31 0 0 0 .59-.14l-.1-8.46a.3.3 0 0 0-.03-.13l-3.5-7.72a.31.31 0 0 0-.6.13l.08 8.45a.3.3 0 0 0 .03.13zm-10.91-9.3-2.29-4.73q-.36-.74-.53.06-.73 3.42 2.58 4.92.47.22.24-.25m-3.91.22q.34-1.9-1.38-2.71-.64-.31-.33.33l1.18 2.45q.37.76.53-.07m1.64-.17a.44.44 0 0 0-.72.38l.36 4.23a.44.44 0 0 0 .13.29l3.03 2.87a.44.44 0 0 0 .74-.32l-.05-4.34a.44.44 0 0 0-.16-.33zm6.83 11.09q.83.49.41-.38l-2.23-4.64q-.4-.82-.55.08-.56 3.22 2.37 4.94m-5.24-2.53 1.42 2.64q.46.85.54-.11.18-1.96-1.74-2.77a.17.17 0 0 0-.22.24m3.72 2.58q-.91-.75-.87.43.18 6.37.02 12.9-.05 2.06.97 4.28 3.92 8.51 7.58 16.23.86 1.83.76-.19c-.17-3.16.53-6.83-.87-9.75-1.6-3.37-4.4-7.84-4.34-11.56q.07-4.22.06-8.54-.01-1.08-.85-1.78zm4.24 6.27c.08 3.34-.53 7.26.95 10.28q1.29 2.64 2.54 5.23.67 1.4.67-.15l.01-7.19a3.47 3.4 33.2 0 0-.33-1.51l-3.18-6.82q-.69-1.49-.66.16m-.02 23.76c.14 3.55-.59 7.5 1.03 10.78q1.3 2.63 2.48 5.07.82 1.69.71-.19c-.2-3.39.52-6.8-.92-9.99q-1.44-3.2-2.95-5.77-.38-.65-.35.1"/></svg>