<svg xmlns="http://www.w3.org/2000/svg" viewBox="0 0 382 382"><g fill="none" stroke="#ba7dbc" stroke-opacity=".996" stroke-width="2"><path d="M35.98 8.51q-.17.53.02.82.33.51.85.4M41.75 15.42q-.02.8.69.85M44.85 19.18q-.22.77-1.38.01M41.54 16.93q.08-.21.06-.43-.04-.38-.41-.44l-.4-.06M23 16.76q-.08-.57-.26-.92M59.02 2.05q.67-.04 1.12.22M67.59 4.17q1.7 1.62.89 1.47M60.25 12.5q-.44.37-1.07-.27M60.21.79q-.68.4-1.34.26M79.08 16.16l-1.13.53M74.16 24.5l-1.27.61M60.2 16.95q-.51.09-1.03.51M56.94 18.97l-.54-.1q-.35-.06-.52.25-.07.13-.08.28M57.78 21.73q.67.73 2.22.4M69.18 33.14q-.44 1.08-1.65.22M46.41 21.02q-.38.34-1.33-.02M36.26 19.93q1.48-.79.75-1.63M55.09 18.3l.6.04q.17.02.22-.15.03-.12.12-.25M59.12 15.93q.67.42 1.13-.48M60.27 14.05q-.57-.76-1.17-.45M51.14 12.17q-.74-.25-1.15.16M107.94 4.91q-.32-.37-.83-.2M130.05 3.79q-.33.24-.5.82M144.21 5.71q-.95.37-1.8.07M152.64 1.54q.34.55.11 1.47M162.33 8.73l.96.12M163.23 1.18q-.73-.44-.74-1.18M172.79 10.85q-.79.28-1.08.64M163.23 10.07h-.78M171.78 19.89l1.03.17M180.31 21.37q.67.82 1.9.59M190.37 18.61l.06-1.38M190.38 3.85l.01-1.07M191.49 33.29q-.64.62-1.01.14M182.12 23.45q-.47-.72-1.02-.89M172.7 21.15l-.97-.13M168.83 20.51q-.79-.65-1.94-.36M157.91 9.32q-1.21-.6-1.93-.48M154.06 10.01q-.05.28-.19.53-.13.24-.36.28-.24.03-.5-.06M149.9 12.72q-.23.26-.99.39M144.7 8.37l-1.16-1.21M153.96 11.71q-.64.14-1 .57M150.69 13.71q-.57.03-.77.59M144.5 20.91q-.1-.25-.82-.19M153.98 32.28q-.48.55-.97.25M107.06 49.29q-.63.94-1.95-.64M97.8 39.97l-1.97-2.34M88.37 28.81q-.25-.41-1.07-.96M78.96 30.82q-.46.34-.98.27M10.75 24.23q-.18-.71.21-.87M172.72 25.76q-.55-.26-.96.01M77.87 34.61q.47.22 1.11.17M83.03 35.52q-.28.95 1.4 1.52M87.44 40.35l.62.56M92.81 46.61q-.56.93 1.07 1.57M96.67 51.42q-.11.97 1.07 1.57M101.99 57.71q.2.76-.34 1.14M106.55 77.5q-.35 1.33.94 1.36M112.27 84.47q-.02.72-.99.56M107.1 87.2q-.83-.51-1.08-.3M82.42 65.17q.68-.19 1.37.23M96.4 67.47q.81-.65.29-1.45M94.31 63.3l-.88.6M90.72 65.31q-.59.45-1.21.28-.51-.14-.31-.58M92.58 62.89q.38-.08.85-.56M88.57 56.56q-1.63-.51-2.94-.48M79.08 59.72q-.06.5-1.06.68M65.6 58.41q-.13.38-.73.59M61.98 60.62q-.49.19-.89.02-.38-.16-.4-.57M64.02 58.01l1.01-.62M60.2 51.73q-.81-.45-1.33.17M51.28 55.93q-.58.36-.8.7M47.75 58.05q-1.07.08-1.21.81M48.78 67.58q-.65.3-.71 1.17M54.07 75.14l.77-.24M61.12 71.18q1.32-.2 1.38-1.25M69.98 65.13q.21-.18.97-.3M74.88 62.51q.31 1.58-1.04 1.92M71.82 65.74l-.95.47M63.99 70.29q-.9.32-1.19 1.22M55.7 75.7q-.24.34-.97.52M49.86 78.64q-2.01-.68-3.99-.86-.42-.04-.71.11-.32.16-.61.44M29.72 79.51q-.7.48-.89 1.46M24.43 93.43l-.88-.55M29.75 75.15q.03-.51.32-1.07M22.79 72.79q-.75-.03-1.31.93M20.05 74.44q1.19-.77.69-1.73M33.53 65.16l.69 1.02M31.23 74.38q-.23.11-.25.72M33.95 75.76q.6-.05.84-.73M34.95 66.01q.22-.54.39-.57M42.18 61.37q.33-.47 1.08-.26" vector-effect="non-scaling-stroke"/><path d="M45.13 59.7q1.46-.76.83-1.94M49.75 55.45q.35-.67.71-.47M45.82 49.27q-.95-.49-2.93-.45M36.28 52.61q-.3.58-1.01.48M25.05 53.9l-1.51-.1M19.25 53.1q-1.34.21-1.58-.33M3.05 51.52q-.13-.54-.06-.97M15.98 43.19q.21 1.15 1.11 1.33M28.44 46.39q.48.17.86.05.29-.08.4-.38.11-.25.09-.56M71.45 52.53q-.05.56 1.77.22M77.91 45.57q.37-.13.96-.11M82.6 36.73q-.59-.55-1.32-.39M79.03 35.98l-1.04-.25M69.94 34.41q-.52-.25-1.38.3M191.49 47.73q-.86-.31-.99.25M172.75 39.9q-.19.21-.89.28M116.33 60.26q-.69 1.08.03 1.66M123.86 70.74q1.21 1.82 1.96.79M144.37 93.46q-.32.82-.82.99M135.24 93q-.11-.17-.3-.28-.2-.1-.39-.01-.27.12-.37.41M134.24 95.99l-.04 1.44M116.48 83.33q-.46.08-.94.74M113.18 85.59q-.48.4-1.04.35M107.22 88.36q-.44-.29-1.16-.32M115.45 82.57q.29.43.82-.58M116.58 80.27q-.18-.37-.58-.33-.34.03-.49.25M115.55 78.82q.05.27.93.32M124.84 80.56q.49.62 1.07.2M125.82 73.19l-.98-.95M116.45 75.32q-.64-.14-.91.06M124.98 84.79q.01.36.21.71.11.22.36.19.14-.02.27-.1M134.19 91.58l.4.4a.28.28 0 0 0 .37.03l.24-.18M135.14 84.13q-.6-.73-.97-.72M125.77 82.24q-.07-.34-.33-.47a.4.4 0 0 0-.34 0q-.15.06-.23.15M163.24 57.67l-.83.89M148.87 56.13q.12-.48.02-.92M70.32 43.78q-.09-.51-.32-.8M69.73 42.8l-1.09-.24M190.46 60.82l-.11 1.25M182.17 52.64q-.62-.8-1.09-1.03M134.71 52.98q-.57.14-.69.72M69.64 44.04q-.8-.06-1.06-.41M191.5 76.97q-.56-.1-.96.02M190.29 76.62l.17-1.19M36.91 53.56l-.89.56M33.42 55.81l-1.68.68M17.88 54.15q.21-.55-1.38.56M5.06 61.28q.13-.79-.15-.95M182.18 65.63l-.78.45M158.04 66.18q.41 1.29 1.23 1.25M162.29 68.05l1.01.01M171.67 69.95q.44-.09 1.13.67M180.34 79.46q.51.67 1.92.69M190.32 89.71q.49.95.19 1.85M182.21 94.73q-.2.23-.72.26M172.75 97.97l-.97.34M171.65 83.62q.52-.93.07-1.53M168.71 78.63q-.99-.56-1.99-.62M145.51 74.48q-.06-.18-.22-.28-.22-.13-.15-.37.05-.15.17-.27M42.31 59.91l-.91.54M80.16 61.05q-.52-.23-.9-.02-.27.16-.13.41M80.87 63.57q.9.86 1.48.24M87.18 83.69q-.76 1.02-2.03-.37M73.17 81.39l-1.9-.03M61.49 82.53l-.74.7M59.86 82.28q1.13-.15 1.14-.66M172.55 68.7l-1.25.62M171.3 69.32l-.27-.85M163.39 66.72q-.06.21-.22.3-.13.07-.33.02-.23-.07-.42-.17M8.91 80.44q-.06-.27-.4-.47M59.41 80.15l-.63.88M191.5 134.96q-1.21-.71-1.04-1.51M190.53 120.68q.61.27-.05-1.79M110.71 97.1q.12.96-.36 1.56M103 102.94q-.58.37-.92.44M105.04 106.85q1.34.64.8 1.18M97.71 106.73l-1 .08M96.72 109.73q-.04.85.98 1.31M97.74 114.02q-.85-.28-1.02-.11M89.58 103.17q.63.07 1.46-.35M96.64 104.31q.64.57 1.24.11M101.51 102.26q.2-.18.72-.29M97.67 96.55q-.43.04-.97.49M88.29 95.57q-.52.12-.97.08M84.41 94.99q-.26-.17-1.54-.15M70.24 101.64q.05-.38-.08-.64M87.41 94.33l.85.08M88.29 87.13l-1.36-1.99q-.26-.38-.71-.46l-5.99-.97M78.88 83.59q-3.5-1.53-5.58-.24M116.46 98.18l-.96-.27M139.33 102.1l-.26 1.23M135.04 110.93q-1.77.27-2.24-.28M128.3 109.72q-.34.13-.94.14-.29.01-.4-.15-.14-.2-.05-.51M117.53 105.22l-2.02 1.22M114.01 107.36q-1.59.27-2.74 1.48M110.35 111.35l-.33 1.02M107.06 111.51l-1.1.42M99.87 115.39l-.18-.87M106.11 110.57q.71-.26 1.19-.7.5-.47-.07-.83l-.54-.34q-.45-.27-.16-.71.15-.24.53-.47M115.59 104.93q1.06 0 1.22-.64M123.47 100.44q.54.34.96-.03.21-.18.28-.78M7.39 114q-.62-.25-.99-.21M166.98 107.22q.55-.32.64-.74M180.24 108.52q.91 1.16 2.03.69M191.5 149.78q-.58.2-.92.1M182.21 152.88l-.74.24M172.71 137.41l-.97-.19M171.87 140.33q-.35.92.86 1.63M190.54 177.22q-.1.86.97 1.06M191.5 179.21l-.96.25M190.51 191.69q.3 1.29-.13 1.36M181.05 167.88q-.31-.73-.88-1.33M153.98 127.78l-1.1.72M150.72 129.79l-.99.48M152.79 147.08q.22.63.14 1.7M129.64 121.01l.5-.82M142.51 122.17l1.27.83M143.78 123q.25.96.8 1.36M148.93 129.39q.35-.37.8-.47M153.13 126.87q.5-.02.92-.42M153.97 124.96q-.48-.04-.85-.32M145.05 123.21l-1.27-.21M143.78 123q-.24-.61.29-1.09M152.98 123.37l1.05.21M158.01 124.29q.43 1.5 1.41 1.46M162.32 126.23q.59-.26 1.04.12M171.89 136.04l.9.21M172.85 128.75l-1.84-2.11M163.35 125.09q.54-.51-.95-.03M162.38 116.69q-.19-.81-.94-1.42M154.17 106.61l-1.95-2.18M144.58 102.83q-.19.17-.98-.04M116.49 99.25q-.52-.64-1.07-.03M115.47 102.69q.44.82 1.05 1.26M152.79 119.52q.57-.5-.05-1.61M149.73 114.4q-1.05-.78-1.57-.15M143.78 106.93q.4.71.88 1.11M144.58 104.13q-.68-.27-1.02-.14M116.47 118.74q-.99-.33-1.08-1.42M111.25 112.32l-.38 1.15M107.23 122.14q-.33.32-.85.54M99.01 126.99q-1.06-.09-.95.45M97.26 126.77q.45-.05.79-.6M86.07 112.2q-.01.7-.24.81M97.72 115.22l-1.01-.22M116.45 133.52q-.7.61-.93.07M115.41 146.38q.78 1.59-.02 1.59M107.17 138.22q-.32-.63-1.09-1.02M163.25 173.94q-.65.41-.04 1.7M148.9 172.36q.31-.4.01-.89M120.29 166.54q-.36.26-.54.71M116.42 176.61l-.95-.1M110.14 156.34q.54-.34 1.11-.47M107.12 151.06l-1 .05M134.62 169.23l-.51.74M38.06 172.7l1.19 1.3M48.98 184.06q.21.44-.43.9M68.4 177.97l-.39.99M82.67 180.36l.06.82M143.87 180.06q.09.3-.35.96M106.31 193.77q.03.56-.28.68M96.21 183.4q-.65-.95-.82-.98M181.88 195.97q-.17 1.24.23 2.17M182.17 210.9q-.2.29-.96.34M181.09 196.95q-.37-.84-.95-1.37M172.92 186.96l-1.19-1.02M163.34 184.46l-1.09-.12M159.46 183.8q-.94-.51-1.41.04M145.22 190.42q.05-.19-.04-.59M111.27 185.14q.08.33-.06.9M135.24 198.92q-.54.63-1.04.71M125.94 198.21l-1.14-.19M121.81 197.46q-1.16-.39-.84-1.2M124.92 196.93q.56-.1 1.01.12M125.95 189.58l-1.87-2.24M96.46 211.17q-.25.15-.63.71M62.99 187.72q1.01-.14 1.44.04M77.19 189.93q.25-.35-1.1-1.24M191.5 236.73l-1.02.23M182.12 227.06q-.47-.98-1.06-1.05M163.26 232.1q-.78.78-1.69-.43M154.13 230.41l-1.11-.33M144.62 220.35q-.39-.52-1.08-.05M140.67 219.86q-1-.81-1.52-.22M135.04 227.42q-.96-.23-.99-1.07M131.98 224.04q-1.39-.1-1.03.64M132.77 226.78q.71.54.5 1.15M121.43 226.13l-1.47-.17M112.67 224.57q-.27-.72-1.27.51M100.14 231.61q-.18-.87-.41-.89M115.73 220.89q1 .14 1.06-.34M123.27 216.75q.45-.14 1.39.4M117.42 221.5l-.75.62M118.44 224.19q.27.3.76.52.36.15.63-.12.11-.1.18-.25M130.12 223.49q.55.34.89-.51M126.16 217.17q-1.14-.16-1.21-1.19M133.99 213.56q.46-.44.1-1.32M131.03 208.58q-.99-.76-1.55-.26M108.23 204.38q0-.64-.4-.83M143.58 219.04q.62-.12 1.04.14M144.58 211.61q-.57-.23-1.05-.86M172.34 242.82q-.32 1.31-1.54-.14M163.38 240.97q-.04.17-.14.27-.16.17-.37.06l-.52-.27M154.03 231.54l-1.25-.35M149.81 230.77l-1.37.03M152.93 236q.56-.09 1.07.04M158.02 240.61q-.74.96 1.45 1.39M162.28 242.48l1.09.14M167.75 251.62l-1.05.82M157.88 241.84l-1.66-.51M153.98 242.78q-.27.42-.95.26M149.69 245.12q-.07.83 1.08 1.13M152.9 244.87q.1-.33.36-.64.17-.2.42-.1l.26.09M153.94 250.54l-.96-.01M149.67 246.6q.1-.35-.29-.75-.22-.23-.43-.05M145.76 247.68q-.07.43.38.89M152.85 263.28q.01 1.66 1.1 1.77M154.02 279.3q-.01.3-.52.51M143.67 239.84q.71-.64-1.21-1.49M72.96 236.58q-.47-.86-.17-.92M130.18 236.51l-.05.9M191.51 265.97q-.57.12-.98.05M182.15 269.01q-.24.23-.95.33M181.12 255.15l.98-.74M172.73 253.7q-.3-.1-.34-.5-.02-.2.1-.35.14-.18.3-.26M172.77 245.04l-1.05-.98M172.74 258.02q-.86.1-1.02-1.68M171.75 253.49q.66-.99-.01-1.14M172.77 272.52q-.24.19-.96.2M191.5 323.96q-.63-.07-1.07.04M182.1 314.12q-.9-1.42-1.95-2.22M172.81 303.21q-.24-.1-.41-.27-.38-.4-.04-.83l.45-.57M190.52 309.48q.31-.8-.07-1.69M182.19 298.03q-.35-.03-.71.26M181.11 284.07q.66.22 1-.59M132.7 284.78l.94 1.24M134.75 285.62q-.44.36-.97.35M161.51 289.75q1.08.94.64 1.24M163.47 290.46q-.51.07-.5.54.01.55.34.92M163.31 299.51l-1.19-.12M158.03 298.72q.09.84-.08 1.19M182.17 327.15q-.18.22-.66.42M190.47 338.47v-1.48M191.49 367.98q-.61.13-.87-.07M181.19 356.23l.95-.16M182.14 343.26q-.39-.7-1.03-1M162.55 303.68q-.02.04.38.3M163.15 300.68l-.73.09" vector-effect="non-scaling-stroke"/></g><path fill="#f9f8fa" fill-opacity=".996" d="m16.27 0 4.88 5.61q.33.38.83.47l14 2.43q-.17.53.02.82.33.51.85.4l4.9 5.69q-.02.8.69.85l2.41 2.91q-.22.77-1.38.01l-1.93-2.26q.08-.21.06-.43-.04-.38-.41-.44l-.4-.06-5.02-5.92a.83.83 0 0 0-1.05-.18L23 16.76q-.08-.57-.26-.92l10.62-6.23q.67-.4-.1-.53L21.69 7.07q-.82-.14-1.36-.79L15.09 0zM53.42 0q1.76 2.97 5.2 2.76.36-.02.4-.38.02-.16 0-.33.67-.04 1.12.22-.13.25-.1.42.02.16.28.24 3.48 1.09 7.27 1.24 1.7 1.62.89 1.47L60.6 4.23a.35.35 0 0 0-.41.35l.06 7.92q-.44.37-1.07-.27l-.07-3.16q-.01-.5-.34-.89L51.7 0zm5.8 6.74-.03-2.02q-.01-.74-.74-.88l-1.68-.32q-.75-.14-.27.44l2.39 2.9q.34.41.33-.12M59.46 0q.65.35.75.79-.68.4-1.34.26.07-.54.39-1.05z"/><path fill="#7a017d" fill-opacity=".996" d="M65.39 0c.8 1.04 1.59 2.13 2.97 2.34q1.97.31 3.88.7.53.11.99-.17L78.05 0h1.72l-6.29 3.91a1.42 1.39 33.4 0 1-.98.19l-3.33-.58q-.81-.15-.28.48l10.19 12.16-1.13.53-7.69-1.33q-.51-.09-.63.42-.62 2.57.67 4.39.79 1.11 3.86 4.33l-1.27.61-8.02-9.78a1.41 1.41 0 0 0-1.89-.27l-2.78 1.89q-.51.09-1.03.51-1.64.41-2.23 1.51l-.54-.1q-.35-.06-.52.25-.07.13-.08.28-1.11.4-1.92 1.03-.46.36.11.48l3.79.82q.67.73 2.22.4l9.18 11.01q-.44 1.08-1.65.22l-8.44-9.98a1.37 1.33-14.9 0 0-.82-.46l-11.86-1.9q-.38.34-1.33-.02l-6.55-1.53a1.04 1.04 0 0 0-1.22.67l-4.02 11.57a3.3 3.29 84.5 0 1-1.44 1.75L20.6 40.1a.37.37 0 0 1-.51-.13l-.15-.26q-.17-.29.12-.45l11.29-6.67a2.19 2.16-6.1 0 0 .96-1.17l3.95-11.49q1.48-.79.75-1.63l3.78-2.3.4.06q.37.06.41.44.02.22-.06.43l-2.1 1.27q-.59.36.1.46l3.93.53q1.16.76 1.38-.01 4.15 1.31 6.4 1.18 1.97-.12 3.84-2.06l.6.04q.17.02.22-.15.03-.12.12-.25 1.74-.76 3.09-2.01.67.42 1.13-.48l1.35-.71q.48-.25.1-.64-.63-.64-1.43-.05-.57-.76-1.17-.45l-7.96-1.43q-.74-.25-1.15.16-.12-.08-.27-.13-.2-.06-.38.04l-6.9 4.03q-.71-.05-.69-.85l5.92-3.46q.51-.3-.07-.39L36.85 9.73q-.52.11-.85-.4-.19-.29-.02-.82l23.2 3.72q.63.64 1.07.27l7.64 1.33q.53.09.54-.45l.05-7.74q.81.15-.89-1.47-2.69-2.19-7.45-1.9-.45-.26-1.12-.22-.43-.48-.15-1 .66.14 1.34-.26l5.07 1.09q.13.03.17-.1.06-.15.04-.28-.01-.07-.07-.09Q64.04.86 64.75 0zm10.97 15.37a.31.31 0 0 0 .29-.5L70.1 7.12a.31.31 0 0 0-.55.2v6.64a.31.31 0 0 0 .26.31zm-10.18-.74q-.81-.16-.28.48l2.1 2.52q.61.73.61-.22v-1.43q0-.87-.86-1.04zM109.59 0q-.35 2.46-1.65 4.91-.32-.37-.83-.2L108.74 0zM126.72 0l3.33 3.79q-.33.24-.5.82L125.6 0zM139.39 0l4.82 5.71q-.95.37-1.8.07L137.69 0zM151.42 0q.47.98 1.22 1.54.34.55.11 1.47-1.62-1.24-2.48-3.01z"/><path fill="#f9f8fa" fill-opacity=".996" d="m154.01 0 .1 6.83q.01.52.52.6l7.7 1.3.96.12 7.07 1.22q.55.1.19-.33l-7.32-8.56q-.73-.44-.74-1.18h1.15l9.15 10.85q-.79.28-1.08.64l-8.48-1.42h-.78q-1.14-.72-2.52-.61-.53.05-.18.45l7.68 8.79q.33.38.82.48l3.53.71 1.03.17 7.5 1.31q.67.82 1.9.59l7.95 9.44q.31.38.31-.11l-.1-12.68.06-1.38-.05-13.38.01-1.07.26-2.78h.81l.03 33.29q-.64.62-1.01.14l-8.36-9.98q-.47-.72-1.02-.89l-8.4-1.41-.97-.13-2.9-.51q-.79-.65-1.94-.36l-8.98-10.83q-1.21-.6-1.93-.48-.54-.3-1.05-.38-.55-.1-.76.42-.18.44-.11 1.13-.05.28-.19.53-.13.24-.36.28-.24.03-.5-.06l-.05-1.91q-.01-.66-.66-.77l-6.54-1.09q-.9-.15-.31.54l4.45 5.19q-.23.26-.99.39l-4.21-4.74-1.16-1.21-13.99-2.55q.17-.58.5-.82l12.36 1.99q.85.3 1.8-.07l8.05 1.28q.51.08.61-.42.36-1.8-.12-3.56.23-.92-.11-1.47l.49-1.54z"/><path fill="#7a017d" fill-opacity=".996" d="M162.49 0q.01.74.74 1.18l.06 7.67-.96-.12-.19-8.73zM182.1 0l.18 6.96q.01.5.33.89l7.82 9.38-.06 1.38q-3.79-4.35-7.34-8.66-1.57-1.9-1.84-3.97-.36-2.9.02-5.98zM187.92 0q1.51 1.12 2.47 2.78l-.01 1.07q-2.09-1.74-3.32-3.85z"/><path fill="#f9f8fa" fill-opacity=".996" d="M107.11 4.71q.51-.17.83.2-.03.18-.14.39-.08.17-.27.29-5.92 3.55-11.84 7.02-.42.25-.66-.17l-.13-.22q-.13-.21.09-.34z"/><path fill="#7a017d" fill-opacity=".996" d="m144.7 8.37.1 6.47q.01.55.54.38 2.01-.63 3.57-2.11.76-.13.99-.39l3.11-1.96q.26.09.5.06.23-.04.36-.28.14-.25.19-.53 1.27-.08 1.92-1.17.72-.12 1.93.48-2.63 1.07-3.95 2.39-.64.14-1 .57-1.55.35-2.27 1.43-.57.03-.77.59-.23-.04-.56-.02-.3.02-.54.2-1.72 1.29-3.67 1.83-.48.14-.5.64l-.15 3.96q-.1-.25-.82-.19l-.15-4.05q-.02-.52-.53-.61L131.26 14a.23.23 0 0 1-.19-.23l-.01-.42q0-.35.34-.29l11.85 1.96a.3.3 0 0 0 .35-.3l-.06-7.56zM163.23 10.07l.13 2.31q.03.38-.35.46-.13.03-.28-.01-.19-.05-.24-.24-.31-1.27-.04-2.52zM172.79 10.85l9.42 11.11q-1.23.23-1.9-.59l-7-8.3q-.38-.46-.39.14l-.11 6.85-1.03-.17-.07-8.4q.29-.36 1.08-.64"/><path fill="#f9f8fa" fill-opacity=".996" d="m153.96 11.71.02 20.57q-.48.55-.97.25-4.59-5.27-9.03-10.75-.17-.21-.3-1.06.72-.06.82.19l7.74 9.29q.71.85.71-.25l.04-10.73q0-1.19-.76-2.11l-2.31-2.81q.2-.56.77-.59l1.46 1.88q.74.94.76-.25l.05-3.06q.36-.43 1-.57M51.14 12.17l4.89 5.77q-.09.13-.12.25-.05.17-.22.15l-.6-.04-5.1-5.97q.41-.41 1.15-.16"/><path fill="#7a017d" fill-opacity=".996" d="M22.74 15.84q.18.35.26.92L8.62 14.32q-.15-.02-.11-.17l.09-.32a.46.46 0 0 1 .52-.33z"/><path fill="#f9f8fa" fill-opacity=".996" d="M60.27 14.05q-.27.8-.02 1.4-.46.9-1.13.48l-.02-2.33q.6-.31 1.17.45M79.08 16.16l27.98 33.13q-.63.94-1.95-.64l-7.31-8.68-1.97-2.34-7.46-8.82q-.25-.41-1.07-.96l-7.73-1.29q-.54-.09-.55.46l-.06 3.8q-.46.34-.98.27l-5.09-5.98 1.27-.61 3.2.41q.54.07.54-.48l.05-7.74zm6.66 10.3a.31.31 0 0 0 .29-.51l-6.52-7.68a.31.31 0 0 0-.54.2l-.01 6.61a.31.31 0 0 0 .26.3zm-10.54-.33 2.2 2.62q.51.62.52-.18l.02-1.89a.64.63-85.2 0 0-.52-.63l-1.97-.34q-.7-.13-.25.42M60.2 16.95l-.2 5.18q-1.55.33-2.22-.4L55.8 19.4q.01-.15.08-.28.17-.31.52-.25l.54.1q.72 1.16 1.68 1.9.46.35.47-.23l.08-3.18q.52-.42 1.03-.51M37.01 18.3q.73.84-.75 1.63L26 26.07a2.82 2.81 34 0 1-1.92.37l-13.33-2.21q-.18-.71.21-.87l12.97 2.11a2.55 2.54-55.8 0 0 1.72-.33z"/><path fill="#7a017d" fill-opacity=".996" d="M168.83 20.51q1.05 1.72 2.51 2.93.44.37.43-.2l-.04-2.22.97.13.02 4.61q-.55-.26-.96.01l-4.87-5.62q1.15-.29 1.94.36"/><path fill="#f9f8fa" fill-opacity=".996" d="m46.41 21.02 8.49 9.93q.32.39.82.47l11.81 1.94q1.21.86 1.65-.22l8.69 1.47q.47.22 1.11.17l4.05.74q-.28.95 1.4 1.52l3.01 3.31.62.56 4.75 5.7q-.56.93 1.07 1.57l2.79 3.24q-.11.97 1.07 1.57l.03 3.44q0 .54.53.63l3.69.65q.2.76-.34 1.14l-3.43 2.05a1.05 1.03 75 0 0-.51.9l-.01 4.64q0 .59.38 1.04l8.47 10.02q-.35 1.33.94 1.36l4.78 5.61q-.02.72-.99.56l-3.69-4.37q-.38-.46-.39.14l-.1 6.4q-.83-.51-1.08-.3l.04-7.32a.67.66 5.6 0 0-.55-.66L92.59 76.7q-.59-.1-.97-.56l-9.2-10.97q.68-.19 1.37.23l8.51 10.11a.72.71 75.4 0 0 .4.24q6.1 1.06 12.29 1.91a.04.03 69.1 0 0 .02-.06L96.4 67.47q.81-.65.29-1.45l.02-3.51q0-.52-.51-.39-1.07.29-1.89 1.18l-.88.6q-1.4.41-2.71 1.41-.59.45-1.21.28-.51-.14-.31-.58l3.38-2.12q.38-.08.85-.56l2.76-1.47a1.68 1.67 35.6 0 0-.52-3.13l-7.1-1.17q-1.63-.51-2.94-.48l-6.09-1q-.55-.09-.54.47l.08 4.17q-.06.5-1.06.68l-4.93-5.79q-.34-.4-.79-.13l-6.7 3.93q-.13.38-.73.59-1.42.33-2.89 1.62-.49.19-.89.02-.38-.16-.4-.57l3.33-2.06 1.01-.62 5.7-3.47q.51-.31-.08-.41L60.2 51.73q-.81-.45-1.33.17-.12-.07-.23-.13-.11-.07-.22 0l-7.14 4.16q-.58.36-.8.7-1.53.38-2.73 1.42-1.07.08-1.21.81-.66 1.48-1.26 2.77-.59 1.26.5 2.35 1.05 1.04 3 3.6-.65.3-.71 1.17l-6.42 3.9q-.54.32-.16.82 1.02 1.31 2.22 2.45c1.17 1.1 2.99.87 4.48 1.29 2.23.64 4.41-.4 5.88-2.07l.77-.24 6.28-3.72q1.32-.2 1.38-1.25l7.48-4.8q.21-.18.97-.3l3.93-2.32q.31 1.58-1.04 1.92-1.27.46-2.02 1.31l-.95.47-6.88 4.08q-.9.32-1.19 1.22l-7.1 4.19q-.24.34-.97.52l-4.87 2.42q-2.01-.68-3.99-.86-.42-.04-.71.11-.32.16-.61.44c-2.47-1.58-5.49-1.68-8.33-2.24q-.49-.1-.93.16l-5.57 3.26q-.7.48-.89 1.46l-4.4 12.46-.88-.55 6.2-17.73q.03-.51.32-1.07l2.32-6.43q.2-.55-.3-.26l-9.3 5.4q-.75-.03-1.31.93l-4.31 12.3a3.43 3.38-5.9 0 1-1.47 1.78L4.4 94.45q-.37.21-.54-.17l-.12-.27q-.11-.25.12-.38l11.39-6.75q.65-.38.89-1.08l3.91-11.36q1.19-.77.69-1.73l12.79-7.55.69 1.02-2.99 8.2q-.23.11-.25.72l-.88 2.4q-.24.65.36.3l3.49-2.04q.6-.05.84-.73l3.99-2.28q.46-.27.15-.69c-1.41-1.88-3.68-3.67-3.98-6.05q.22-.54.39-.57l6.52 1.12q.5.08.81-.32 2.15-2.85-.49-4.87.33-.47 1.08-.26.8.88 1.26.39.29-.3.61-1.8 1.46-.76.83-1.94l3.79-2.31q.35-.67.71-.47l5.95-3.42q.53-.31-.07-.41l-10.52-1.88q-.95-.49-2.93-.45l-11.02-1.88q-.54-.09-.18.33l4.59 5.34q-.3.58-1.01.48l-4.76-5.69q-.57-.68-1.33-.23l-5.9 3.43q-.76.44-.17 1.1l1.94 2.2-1.51-.1q-.63-1.02-1.42-1.66a.99.97 56.4 0 0-.89-.19q-1.02.29-1.98 1.15-1.34.21-1.58-.33l2.59-1.53q.81-.48.2-1.2l-4.29-4.99q-.67-.78-1.56-.26L3.05 51.52q-.13-.54-.06-.97l10.57-6.31q.42-.26-.06-.36L0 41.11v-1.98q1.43 1.69 3.46 1.96 3.48.47 12.52 2.1.21 1.15 1.11 1.33l4.56 5.23q.34.39.79.13l6-3.49q.48.17.86.05.29-.08.4-.38.11-.25.09-.56l41.66 7.03q-.05.56 1.77.22l4.01.73q.56.1.57-.47l.11-7.44q.37-.13.96-.11l.11 7.86a.63.63 0 0 0 .52.61l16.51 2.81q.51.09.63-.42.62-2.7-1.16-4.68-3.39-3.77-6.64-7.58c-1.45-1.7-3.86-5.11-6.24-7.33q-.59-.55-1.32-.39-1.1-.46-2.25-.36l-1.04-.25-8.05-1.32q-.52-.25-1.38.3l-12.81-2.22a3.36 3.36 0 0 1-2-1.15L45.08 21q.95.36 1.33.02m28.67 33.09q-.7-.16-.24.39l2.43 2.94q.62.75.64-.22l.04-1.84q.01-.63-.6-.76zm23.13 5.65c.43-.33.76-.52 1.23-.78q.71-.4-.04-.73-.43-.19-.92-.13-.46.05-.64.46-.17.37-.25.8a.39.39 0 0 0 .62.38M45 64.59a.37.37 0 0 0-.63.12l-.56 1.77a.37.37 0 0 0 .28.48l2.41.44a.37.37 0 0 0 .35-.61zm-5.03 7a.59.59 0 0 0 1-.18l1.1-3q.27-.72-.49-.85l-5.19-.88q-.73-.12-.25.44zm6.15-3.48-2.42-.04q-.51-.01-.68.48l-.52 1.54q-.25.75.46.39 1.85-.93 3.27-2.02.44-.34-.11-.35m-4.17 7.98q.64.11.21-.38l-1.48-1.68q-.46-.52-1.06-.17l-1.73 1.01q-.78.45.11.59z"/><path fill="#7a017d" fill-opacity=".996" d="M10.96 23.36q-.39.16-.21.87L0 30.43v-1.11l8.36-4.91a.3.3 0 0 0-.1-.56L0 22.43v-.85zM182.12 23.45l-.05 12.58a.74.73-64.9 0 0 .16.46q4.06 4.9 8.27 9.73a.04.04 0 0 0 .07-.03l-.09-12.76q.37.48 1.01-.14v14.44q-.86-.31-.99.25l-8.45-10.06a4.21 4.2-65.1 0 1-.98-2.7l.03-12.66q.55.17 1.02.89"/><path fill="#f9f8fa" fill-opacity=".996" d="m172.72 25.76.03 14.14q-.19.21-.89.28l-.1-14.41q.41-.27.96-.01"/><path fill="#7a017d" fill-opacity=".996" d="m88.37 28.81.09 6.96q0 .54.53.63l6.84 1.23 1.97 2.34.02 6.93q0 .53.53.62l6.76 1.13q1.32 1.58 1.95.64l9.27 10.97q-.69 1.08.03 1.66l.03 7.26a.52.52 0 0 0 .44.51l7.03 1.05q1.21 1.82 1.96.79l18.55 21.93q-.32.82-.82.99L135.24 93q-.11-.17-.3-.28-.2-.1-.39-.01-.27.12-.37.41-.9-.85-2.38-.89-.56-.01-.21.43l2.65 3.33-.04 1.44-13.42-15.83q-.34-.4-.8-.15l-3.5 1.88q-.46.08-.94.74-1.84.46-2.36 1.52-.48.4-1.04.35l-4.92 2.42q-.44-.29-1.16-.32l-12.43-2.2a.25.24-80.7 0 1-.2-.29l.06-.33q.07-.38.45-.32l12.08 2q.25-.21 1.08.3 2.21-.33 4.18-2.17.97.16.99-.56 1.95-.67 3.18-1.9.29.43.82-.58 1.23-.02 1.86-.97.34-.52-.28-.59l-1.27-.16q-.18-.37-.58-.33-.34.03-.49.25l-8.02-1.33q-1.29-.03-.94-1.36l9 1.32q.05.27.93.32l8.36 1.42q.49.62 1.07.2l6.73 1.06q.59.09.21-.36l-7.03-8.27-.98-.95-7.8-1.36q-.51-.09-.52.43l-.07 4.01q-.64-.14-.91.06l-13.89-16.53q.54-.38.34-1.14l3.07.64q1 .2 1.01-.82l.02-6.62q0-.95-.94-1.11l-6.79-1.17q-.59-.1-.59.5l-.03 3.86q-1.18-.6-1.07-1.57.24-1.16 0-2.48-.09-.5-.57-.67-1.09-.38-2.22-.09-1.63-.64-1.07-1.57l3.3.67a.47.47 0 0 0 .56-.46l.05-7.11a.97.97 0 0 0-.81-.97l-6.74-1.17q-.97-.16-.82.81.15 1-.29 2.53l-.62-.56-.19-2.37a.93.91 12.3 0 0-.48-.73q-1.15-.6-2.34-.21-1.68-.57-1.4-1.52l3.9.64a.33.32 4.5 0 0 .38-.32l-.01-7.99q.82.55 1.07.96m25.52 30.94a.31.31 0 0 0 .28-.5l-6.55-7.73a.31.31 0 0 0-.54.2l.01 6.63a.31.31 0 0 0 .26.3zm-10.2-.62a.3.3 0 0 0-.26.49l2.16 2.42a.3.3 0 0 0 .52-.2l-.01-2.16a.3.3 0 0 0-.26-.3zm11.25 10.33a.45.45 0 0 0 .53-.44l-.04-7.57a.45.45 0 0 0-.37-.44l-7.44-1.34a.45.45 0 0 0-.53.44l-.03 3.26a.45.45 0 0 0 .11.3l4.26 5.09a.45.45 0 0 0 .27.16zm.55 3.63q.62-3.06-2.45-2.94-.67.03-.23.53l2.18 2.54q.38.44.5-.13m9.49 11.7q.01.36.21.71.11.22.36.19.14-.02.27-.1 1.59 2.29 3.53 4.38.95 1.01 2.2 1.28 1.29.28 2.64.33l.4.4a.28.28 0 0 0 .37.03l.24-.18 6.84 1.13q.55.09.2-.34l-7.1-8.49q-.6-.73-.97-.72l-8.18-1.43q-.04-.01-.07.02-.11.09-.15.24-.07-.34-.33-.47a.4.4 0 0 0-.34 0q-.15.06-.23.15-.97-.76-2.28-.72-.53.02-.27.48.98 1.75 2.66 3.11M78.96 30.82l.02 3.96q-.64.05-1.11-.17l.11-3.52q.52.07.98-.27M153.98 32.28l.14 14.08a1.37 1.36-65.3 0 0 .32.88l8.8 10.43-.83.89-13.54-2.43q.12-.48.02-.92l11.98 1.92q.74.12.26-.45l-7.38-8.69q-.77-.9-.77-2.08l.03-13.38q.49.3.97-.25M69.94 34.41l4.63 5.35q.34.39.78.13l2.1-1.22q.46-.26.47-.78l.07-2.16 1.04.25q-.17.64-.06 1.17.12.57.61.26l1.7-1.07q.73-.16 1.32.39l-3.12 1.98a.95.94 74.9 0 0-.45.79l-.16 5.96q-.59-.02-.96.11l-3-3.51q-.34-.4-.81-.16l-3.78 1.88q-.09-.51-.32-.8l3.28-1.94q.59-.35.16-.88l-3.22-3.92q-.56-.69-.55.2l.06 6.36-1.09-.24-.08-7.85q.86-.55 1.38-.3m7.31 8.85a.37.37 0 0 0 .67-.21l-.02-2.98a.37.37 0 0 0-.59-.29l-1.35 1.03a.37.37 0 0 0-.08.51zM171.86 40.18q.7-.07.89-.28l17.71 20.92-.11 1.25-8.18-9.43q-.62-.8-1.09-1.03l-13.04-2.21a2.67 2.64 74.3 0 1-1.58-.9l-8.66-10.25q-.22-.26 0-.53l.21-.23q.23-.28.46 0l8.77 10.38q.33.4.84.48l11.38 1.92q1.05.18.36-.64zM134.71 52.98q-.57.14-.69.72l-13.63-2.38a2.14 2.11-15 0 1-1.27-.72l-8.79-10.41a.36.35-47.3 0 1-.01-.44l.21-.27q.25-.32.52 0l8.91 10.57q.16.19.4.23 10.84 1.88 12.51 2.15a.03.03 0 0 0 .03-.05q-4.17-4.86-8.18-9.72-.23-.27.04-.5l.2-.17q.27-.24.51.04z"/><path fill="#f9f8fa" fill-opacity=".996" d="m68.64 42.56 1.09.24.27.18q.23.29.32.8-.15-.12-.68.26-.8-.06-1.06-.41l-12.28-2.1q-.29-.05-.24-.35l.04-.28q.06-.45.51-.37z"/><path fill="#7a017d" fill-opacity=".996" d="M29.79 45.5q.02.31-.09.56-.11.3-.4.38-.38.12-.86-.05.07-.05.11-.11.1-.12-.08-.14-5.47-.57-10.85-1.75-.29-.06-.53.13-.9-.18-1.11-1.33zM69.64 44.04l-.06 3.9a1.35 1.35 0 0 0 .32.9l3.32 3.91q-1.82.34-1.77-.22-.97-1.29-1.78-2.35-.95-1.24-1.06-2.64-.14-1.87-.03-3.91.26.35 1.06.41"/><path fill="#f9f8fa" fill-opacity=".996" d="M148.89 55.21q.1.44-.02.92-.83-.27-1.35-.9-4.36-5.19-8.67-10.37-.13-.15.02-.27l.23-.19a.47.46-40.3 0 1 .66.05zM191.49 47.73l.01 29.24q-.56-.1-.96.02l-.25-.37.17-1.19-.11-13.36.11-1.25.04-12.84q.13-.56.99-.25"/><path fill="#7a017d" fill-opacity=".996" d="M42.89 48.82q1.98-.04 2.93.45l4.64 5.71q-.36-.2-.71.47l-4.9-5.72a.91.9 54.2 0 0-1.16-.19l-6.78 4.02-.89.56q-1.51.49-2.6 1.69l-1.68.68-13.86-2.34q.21-.55-1.38.56L5.06 61.28q.13-.79-.15-.95l12.76-7.56q.24.54 1.58.33 2.07.79 4.29.7l1.51.1q4.96 1.22 6.45 1.22 1.69 0 3.77-2.03.71.1 1.01-.48zM2.99 50.55q-.07.43.06.97L0 50.98v-.89zM60.2 51.73l4.83 5.66-1.01.62-5.15-6.11q.52-.62 1.33-.17"/><path fill="#f9f8fa" fill-opacity=".996" d="m182.17 52.64.01 12.99-.78.45-.32-14.47q.47.23 1.09 1.03M134.71 52.98l8.7 10.29a2.06 2.05 74.2 0 0 1.23.69l13.4 2.22q.41 1.29 1.23 1.25l2.68 3.22q.42.5.4-.15l-.06-2.45 1.01.01.1 3.5q.01.53.35.93 1.47 1.8 3.04 3.81c1.11 1.41 2.73 1.39 4.33 1.63q.6.09.59-.52l-.04-7.46q.44-.09 1.13.67l.05 7.02q0 .52.52.61l6.97 1.21q.51.67 1.92.69l8.06 9.56q.49.95.19 1.85l-7.94-9.29q-.36-.41-.36.14v12.32q-.2.23-.72.26-.43-.61-.42-1.52.04-6.46.05-12.55 0-.27-.27-.32l-7.84-1.35a.21.21 0 0 0-.24.21l-.02 18.51-.97.34-.13-14.69q.52-.93.07-1.53l-.03-2.45q0-.56-.56-.65l-2.42-.36q-.99-.56-1.99-.62l-8.05-9.79a1.53 1.52-34.8 0 0-1.94-.34l-11.22 6.6q-.06-.18-.22-.28-.22-.13-.15-.37.05-.15.17-.27l10.52-6.26q.62-.37-.09-.49l-11.43-1.95a2.79 2.77-15.1 0 1-1.68-.96l-8.61-10.2q.12-.58.69-.72M36.91 53.56l5.4 6.35-.91.54c-1.05-1.59-1.77-2.67-3.77-3.05q-2.89-.56-5.89-.91l1.68-.68 3.96.49q.48.06.24-.36-.59-1.01-1.6-1.82zM17.88 54.15l-4.34 12.23a3.23 3.23 0 0 1-1.46 1.75L0 75.09q.02-.41 0-.83l11.77-7.12q.43-.26.6-.73l4.13-11.7q1.59-1.11 1.38-.56"/><path fill="#7a017d" fill-opacity=".996" d="m51.28 55.93 2.22 2.57q.33.38.83.47l6.36 1.1q.02.41.4.57.4.17.89-.02l4.02.48q.54.06.21-.37L64.87 59q.6-.21.73-.59l5.35 6.42q-.76.12-.97.3-1.5-2.54-3.29-2.81-10.08-1.54-20.15-3.46.14-.73 1.21-.81l3.95.76q.81.16.27-.46l-1.49-1.72q.22-.34.8-.7M88.57 56.56l4.86 5.77q-.47.48-.85.56l-4.97-5.9a.82.81-34.9 0 0-1.04-.18q-3.07 1.79-6.27 3.76-.29.18-.14.48-.52-.23-.9-.02-.27.16-.13.41-.45 2.84 1.74 2.13.9.86 1.48.24l6.85 1.2q-.2.44.31.58.62.17 1.21-.28l3.76.64q.54.09.31-.4-.41-.91-1.36-1.65l.88-.6 2.38 2.72q.52.8-.29 1.45L83.79 65.4q-.69-.42-1.37-.23-1.34-.65-2.91-.7-.55-.02-.55.53l-.01 7.96q0 1.02.66 1.79l7.57 8.94q-.76 1.02-2.03-.37l-7.77-9.34q-.32-.39-.83-.47l-4.02-.7q-.57-.1-.75.45l-.98 2.97q-.13.41-.46.67-.56.46-.11 1.11 1.33 1.91 2.94 3.38l-1.9-.03-2.38-2.59q-.35-.39-.8-.12l-6.6 3.88-.74.7q-1.33.32-2.52 1.29-.18.14-.37.03l-.39-.23q-.31-.19-.01-.4l2.4-1.64q1.13-.15 1.14-.66l6.34-3.82q.46-.27.12-.68l-4.66-5.61q.29-.9 1.19-1.22l6.53 1.14q.49.09.8-.31 2.04-2.69-.45-4.91l.95-.47q.06.28.18.46.33.5.79.12.82-.67 1.05-1.89 1.35-.34 1.04-1.92 1.97-.9 3.14-2.11 1-.18 1.06-.68.08.03.15.07.15.08.29 0 3.09-1.69 6.11-3.71 1.31-.03 2.94.48m-10.85 6.38q.26-.32-.05-.76a.42.42 0 0 0-.51-.13q-.82.36.1.96a.36.34 35.2 0 0 .46-.07m-.39 9.43a.34.34 0 0 0 .61-.22l-.01-7.69a.34.34 0 0 0-.29-.34l-2.24-.3a.34.34 0 0 0-.37.22l-1.26 3.64a.34.34 0 0 0 .06.33zm-3.68-2.97a.32.32 0 0 0-.54.09l-.67 1.83a.32.32 0 0 0 .22.42l2.79.66a.32.32 0 0 0 .32-.51zm-2.79 3.55a.37.37 0 0 0-.29-.49l-5.32-.9q-.67-.11-.23.4l3.71 4.37q.65.77.99-.18z"/><path fill="#7a017d" fill-opacity=".996" d="M45.96 57.76q.63 1.18-.83 1.94-1.74.41-1.87 1.41-.75-.21-1.08.26l-6.84 4.07q-.17.03-.39.57-.42.55-.73.17l-.69-1.02 7.87-4.71.91-.54z"/><path fill="#f9f8fa" fill-opacity=".996" d="m163.24 57.67 9.31 11.03-1.25.62-.27-.85-7.21-8.5q-.36-.41-.36.13l-.07 6.62q-.06.21-.22.3-.13.07-.33.02-.23-.07-.42-.17l-.01-8.31zM4.91 60.33q.28.16.15.95L0 60.43v-.73zM125.82 71.53q-.75 1.03-1.96-.79l-7.5-8.82q-.72-.58-.03-1.66zM80.16 61.05l2.19 2.76q-.58.62-1.48-.24l-1.74-2.13q-.14-.25.13-.41.38-.21.9.02"/><path fill="#7a017d" fill-opacity=".996" d="m182.18 65.63 8.28 9.8-.17 1.19-8.89-10.54zM162.42 66.87q.19.1.42.17.2.05.33-.02.16-.09.22-.3l7.64 1.75.27.85-8-1.26-1.01-.01-3.02-.62q-.82.04-1.23-1.25zM62.5 69.93q-.06 1.05-1.38 1.25l-13.05-2.43q.06-.87.71-1.17zM172.55 68.7l9.71 11.45q-1.41-.02-1.92-.69l-7.54-8.84q-.69-.76-1.13-.67l-.37-.63zM54.84 74.9l-.77.24-4.26-4.86q-.12-.14-.01-.27l.19-.23a.3.3 0 0 1 .46-.01zM145.31 73.56q-.12.12-.17.27-.07.24.15.37.16.1.22.28l-14.2-2.39a.3.3 0 0 1-.24-.36l.08-.31a.28.27-78.7 0 1 .31-.21z"/><path fill="#f9f8fa" fill-opacity=".996" d="m125.82 73.19.09 7.57q-.58.42-1.07-.2v-8.32z"/><path fill="#7a017d" fill-opacity=".996" d="M20.74 72.71q.5.96-.69 1.73l-10.3 5.93a.94.91-54.9 0 1-.57.11q-.13-.01-.27-.04-.06-.27-.4-.47zM22.79 72.79l7.28 1.29q-.29.56-.32 1.07l-8.27-1.43q.56-.96 1.31-.93M31.23 74.38l3.56.65q-.24.68-.84.73l-2.97-.66q.02-.61.25-.72"/><path fill="#f9f8fa" fill-opacity=".996" d="m116.45 75.32.03 3.82q-.88-.05-.93-.32l-.01-3.44q.27-.2.91-.06"/><path fill="#7a017d" fill-opacity=".996" d="m55.7 75.7 3.71 4.45-.63.88-14.23-2.7q.29-.28.61-.44.29-.15.71-.11 1.98.18 3.99.86l7.27.94q.56.08.19-.35l-2.59-3.01q.73-.18.97-.52M191.5 76.97v57.99q-1.21-.71-1.04-1.51l.07-12.77q.61.27-.05-1.79l.04-11.82a2.69 2.62 26.3 0 0-.6-1.7l-8.43-10.38q.52-.03.72-.26l7.9 9.29q.39.45.39-.14l.01-12.32q.3-.9-.19-1.85.16.08.25-.01.05-.05.05-.12l-.08-12.59q.4-.12.96-.02M168.71 78.63l3.01 3.46q.45.6-.07 1.53l-4.93-5.61q1 .06 1.99.62"/><path fill="#f9f8fa" fill-opacity=".996" d="M8.51 79.97q.34.2.4.47-.01.37-.38.35-4.35-.33-8.53-1.36v-.78z"/><path fill="#7a017d" fill-opacity=".996" d="m29.72 79.51 4.57 12.8a2.24 2.21-45.7 0 1 .01 1.49l-4.55 12.92a.37.37 0 0 1-.54.19l-.28-.17q-.17-.1-.11-.29l4.42-12.75a2.07 2.07 0 0 0-.03-1.41l-4.38-11.32q.19-.98.89-1.46"/><path fill="#f9f8fa" fill-opacity=".996" d="m116.58 80.27-.31 1.72q-.53 1.01-.82.58l.06-2.38q.15-.22.49-.25.4-.04.58.33M61 81.62q-.01.51-1.14.66l-1.08-1.25.63-.88q.65 1.05 1.59 1.47M73.17 81.39l11.98 1.93q1.27 1.39 2.03.37l9.21 10.86q.32.39.82.47l11.11 1.82q.9.15.3-.54-.89-1.03-1.78-2.14c-1.21-1.49-.8-4.24-.78-6.12q.72.03 1.16.32-.24 1.52-.14 3.11.09 1.49 1.09 2.77 1.2 1.52 2.54 2.86.12.96-.36 1.56l-7.35 4.28q-.58.37-.92.44l-3.5 1.9q-.64.35.08.47l6.38 1.1q1.34.64.8 1.18l-8.13-1.3-1 .08q-1.16-.81-2.37-.82-.6-.01-.23.46l2.61 3.28q-.04.85.98 1.31l.04 2.98q-.85-.28-1.02-.11c.07-1.23.12-2.34-.66-3.34q-2.39-3.09-5.04-5.78-.35-.35-.84-.43l-6.48-1.14q-.24-.04-.14-.27l.21-.48q.08-.18.26-.15l5.55.85q.63.07 1.46-.35 1.86 1.45 5.6 1.49.64.57 1.24.11 2.27-.82 3.63-2.16.2-.18.72-.29l6.23-3.64q.49-.29-.07-.39-4.86-.88-9.9-1.71-.45-.07-.82.32-.43.04-.97.49l-8.41-1.47q-.52.12-.97.08-1.07-.71-2.91-.66-.26-.17-1.54-.15-5.66 3.21-11.58 6.72-.35.2-1.05.08.05-.38-.08-.64l10.66-6.3q.55-.33-.08-.44l-11.36-1.9a2.96 2.9-14.8 0 1-1.76-1l-6.87-8.13.74-.7 7.02 8.25q.32.38.82.47l18.08 3.08.85.08 6.65 1.08q.58.09.2-.36l-6.82-8-1.36-1.99q-.26-.38-.71-.46l-5.99-.97q-.79-.19-1.35-.12-3.5-1.53-5.58-.24-.99-.64-2.03-1.99zM125.77 82.24l.05 3.35q-.13.08-.27.1-.25.03-.36-.19-.2-.35-.21-.71l-.11-2.87q.08-.09.23-.15a.4.4 0 0 1 .34 0q.26.13.33.47"/><path fill="#7a017d" fill-opacity=".996" d="M78.88 83.59q.95.4 1.35.12l5.99.97q.45.08.71.46l1.36 1.99-.03 7.28-.85-.08-.08-7.57a1.13 1.13 0 0 0-.94-1.1L73.3 83.35q2.08-1.29 5.58.24"/><path fill="#f9f8fa" fill-opacity=".996" d="m116.48 83.33-.02 14.85-.96-.27q.01-3.19-.1-6.18-.06-1.82-1.06-3.15-.96-1.29-2.2-2.64.56.05 1.04-.35l1.91 2.22q.35.42.36-.13l.09-3.61q.48-.66.94-.74M135.14 84.13l.06 7.7-.24.18a.28.28 0 0 1-.37-.03l-.4-.4-.02-8.17q.37-.01.97.72M135.24 93l.04 7.77q0 .54.53.65l3.52.68-.26 1.23-3.23 1.94q-.44.26-.48.78l-.32 4.88q-1.77.27-2.24-.28-.64-1.33-1.69-2.1-.44-.31-.89-.03l-1.92 1.2q-.34.13-.94.14-.29.01-.4-.15-.14-.2-.05-.51l2.51-1.32a.79.79 0 0 0 .23-1.21l-4.41-5.21q-.57-.66-1.31-.2l-6.4 3.96-2.02 1.22q-.78.26-1.5.92-1.59.27-2.74 1.48-.86.23-1.49.83-.4.38-.06.83l.63.85-.33 1.02-1.25-1.26q-.36-.37-.87-.25-.52.13-.84.65l-1.1.42-6.09 3.46-.18-.87 6.42-3.95q.71-.26 1.19-.7.5-.47-.07-.83l-.54-.34q-.45-.27-.16-.71.15-.24.53-.47l1.23 1.26q.38.38.84.1l6.46-3.95q1.06 0 1.22-.64l6.66-3.85q.54.34.96-.03.21-.18.28-.78l8.89 1.41q.53.09.54-.45l.06-3.16.04-1.44-.06-2.87q.1-.29.37-.41.19-.09.39.01.19.11.3.28m-1.01 9.59a.31.31 0 0 0-.26-.32l-7.11-1.28a.31.31 0 0 0-.29.51l4.36 5.13a.31.31 0 0 0 .39.07l2.66-1.57a.31.31 0 0 0 .15-.26zm3.03.56a.23.22-58 0 0-.09-.41l-1.55-.17q-.73-.08-.54.62l.15.53q.18.67.76.28zm-3 3.52a.32.32 0 0 0-.48-.28l-1.66.96a.32.32 0 0 0-.09.48l1.6 2.04a.32.32 0 0 0 .57-.2z"/><path fill="#7a017d" fill-opacity=".996" d="m23.55 92.88.88.55-11.98 7.16q-.43.26-.6.73L7.39 114q-.62-.25-.99-.21l4.04-11.66q.16-.44-.25-.21L0 107.62v-.78z"/><path fill="#f9f8fa" fill-opacity=".996" d="M166.98 107.22q.55-.32.64-.74l12.62 2.04q.91 1.16 2.03.69l8.21 9.68q.66 2.06.05 1.79l-8.15-9.65q-.24-.29-.24.09v12q0 .57.37 1l7.95 9.33q-.17.8 1.04 1.51v14.82q-.58.2-.92.1l-8-9.44q-.36-.43-.36.13l-.01 12.31-.74.24-.35-13.86a.57.56 4.4 0 0-.47-.54l-7.94-1.31-.97-.19-2.52-.45q-.59-.11-.19.34l2.84 3.22q-.35.92.86 1.63l-.02 13.37a2.23 2.22-65 0 0 .52 1.43l17.31 20.46q-.1.86.97 1.06l-.01.93-.96.25q.03-.67-.24-.98-4.03-4.65-8.04-9.64a.06.05 27.1 0 0-.1.03q-.01 6.41.01 12.78.01.21.14.37l8.2 9.67q.3 1.29-.13 1.36l-8.6-10.18q-.73-.87-.73-2v-12.99q-.31-.73-.88-1.33l-8.17-9.86a1.12 1.1 25.4 0 1-.26-.71v-12.65a3.5 3.46-65.4 0 0-.82-2.25l-12.52-14.81a1.27 1.27 0 0 0-1.64-.25l-2.78 1.76-1.1.72q-1.16.42-2.16 1.29l-.99.48-4.56 2.33q-.56.29-.56.91l-.02 3.26q0 .61.4 1.09l7.8 9.22q.22.63.14 1.7l-8.97-10.62q-.32-.38-.33-.88l-.04-4.36a.61.61 0 0 0-.51-.59l-11.61-1.97q-.36-.06-.3-.41l.04-.25q.06-.39.45-.32l11.28 1.91q.66.12.66-.55l.01-6.49a.96.95 5 0 0-.79-.94l-13.18-2.3.5-.82 12.37 1.98 1.27.83q.25.96.8 1.36l.03 6.95a.39.39 0 0 0 .59.34l3.73-2.26q.35-.37.8-.47 2.01-.73 3.4-2.05.5-.02.92-.42.93-.13 1.51-.79.37-.42-.11-.71-.8-.5-1.48.01-.48-.04-.85-.32l-8.07-1.43-1.27-.21q-.24-.61.29-1.09l8.91 1.46 1.05.21 3.98.71q.43 1.5 1.41 1.46l2.62 3q.42.48.39-.16l-.11-2.36q.59-.26 1.04.12l.01 3.19q.01.54.32.96 1.42 1.88 3.08 3.86c1.26 1.5 3.28 1.69 5.12 1.68l.9.21 6.85 1.13q.55.09.19-.35l-6.98-8.28-1.84-2.11-7.28-8.71q-.35-.42-.36.13l-.02 7.03q.54-.51-.95-.03l-.02-8.37q-.19-.81-.94-1.42l-7.27-8.66-1.95-2.18-7.27-8.54q-.35-.4-.35.12l-.02 6.82q-.19.17-.98-.04l-.05-8.34q.5-.17.82-.99l45.64 54.01q.48.57.48-.18l.01-11.57a1.67 1.66-65 0 0-.38-1.06l-8.67-10.28a1.45 1.41 25.8 0 1-.33-.91l-.01-13.26a.65.65 0 0 0-.54-.64z"/><path fill="#7a017d" fill-opacity=".996" d="M84.41 94.99 86.96 98q.44.52.43-.17l-.07-2.18q.45.04.97-.08c.02 1.78-.28 3.2.78 4.75q.85 1.26 1.97 2.5-.83.42-1.46.35l-6.71-8.33q1.28-.02 1.54.15M167.62 106.48q-.09.42-.64.74l-9.21-10.94q-.18-.21.03-.38l.28-.23a.29.28-39.9 0 1 .4.03zM97.67 96.55l4.56 5.42q-.52.11-.72.29l-3.35-3.77q-.44-.5-.43.17l.15 5.76q-.6.46-1.24-.11l.06-7.27q.54-.45.97-.49M115.5 97.91l.96.27 8.25 1.45q-.07.6-.28.78-.42.37-.96.03l-6.98-1.19q-.52-.64-1.07-.03l-2.54-.62q-.63-.16-.24.36l2.83 3.73q.44.82 1.05 1.26l.29.34q-.16.64-1.22.64l-5.24-6.27q.48-.6.36-1.56 2.59.87 4.79.81M172.75 97.97l9.52 11.24q-1.12.47-2.03-.69l-8.46-10.21zM70.16 101q.13.26.08.64L56.46 99.7q-.51-.07-.35-.55l.07-.25q.08-.26.35-.21z"/><path fill="#f9f8fa" fill-opacity=".996" d="m116.49 99.25.03 4.7q-.61-.44-1.05-1.26l-.05-3.47q.55-.61 1.07.03"/><path fill="#7a017d" fill-opacity=".996" d="M143.6 102.79q.79.21.98.04l7.64 1.6 1.95 2.18-.16 6.9q-.01.54.52.63l6.91 1.13q.75.61.94 1.42l-7.76-1.3q-.54-.09-.54.46l-.05 7.73-1.05-.21-.19-3.85q.57-.5-.05-1.61.37-1.18.24-2.35-.07-.53-.59-.64l-2.66-.52q-1.05-.78-1.57-.15l-9.09-10.92.26-1.23zm.18 4.14q.4.71.88 1.11l3.98 4.74q.38.45.96.57l2.5.48q.85.17.85-.69l.06-6.69q.01-1.04-1.02-1.19l-7.41-1.13q-.68-.27-1.02-.14l-2.48-.56a.23.23 0 0 0-.22.39zM103 102.94l4.06 4.58q-.38.23-.53.47-.29.44.16.71l.54.34q.57.36.07.83-.48.44-1.19.7.13-1.58-.27-2.54.54-.54-.8-1.18l-2.96-3.47q.34-.07.92-.44"/><path fill="#f9f8fa" fill-opacity=".996" d="m144.58 104.13.08 3.91q-.48-.4-.88-1.11l-.22-2.94q.34-.13 1.02.14"/><path fill="#7a017d" fill-opacity=".996" d="M117.53 105.22c.98 1.49 1.85 2.69 3.69 3.16q2.8.72 5.69.82-.09.31.05.51.11.16.4.15.6-.01.94-.14l4.5.93q.47.55 2.24.28l9.03 10.98q-.53.48-.29 1.09l-1.27-.83-8.44-9.97q-.4-.48-1.03-.58L122 109.87q-.6-.09-.21.37l8.35 9.95-.5.82q-4.66-5.11-8.92-10.49c-1.15-1.45-2-1.46-3.65-1.6q-.61-.06-.61.56l.01 9.26q-.99-.33-1.08-1.42l.01-7.91q0-.62-.59-.82l-1.21-.41q-.55-.18-.84.31-1.06 1.75-1.51 3.83l-.38 1.15q-1.38 3.55-2.61 7.28-.21.62-1.03 1.39-.33.32-.85.54l-7.37 4.31q-1.06-.09-.95.45l-2.46 1.42q-.35.21-.63-.09-.15-.17-.08-.33.09-.22.31-.37.99-.67 2.06-1.3.45-.05.79-.6l7.4-4.29q.45-.26.45-.78l.06-9.17 1.1-.42.03 6.95q.02 2.85.9.14l2.03-6.23.33-1.02.92-2.51q1.15-1.21 2.74-1.48.8.23 1.88-.3.5-.24.72.27.26.59.92.68.81.11.45-.62-.61-1.22-2.47-.95zM97.71 106.73l-.01 4.31q-1.02-.46-.98-1.31l-.01-2.92z"/><path fill="#f9f8fa" fill-opacity=".996" d="M86.07 112.2q-.01.7-.24.81l-11.71 6.88a3.23 3.2 34.5 0 1-2.17.39L58.74 118q-.21-.04-.18-.25l.04-.4q.05-.37.42-.31l13.69 2.32q.16.03.3-.05 5.15-2.97 11.08-6.49a.05.04 32.3 0 0-.02-.08q-6.27-.98-12.64-2.07-.29-.05-.3-.35v-.27q0-.35.34-.29z"/><path fill="#7a017d" fill-opacity=".996" d="M96.72 113.91q.17-.17 1.02.11l1.95.5.18.87-2.15-.17-1.01-.22-10.88-1.99q.23-.11.24-.81z"/><path fill="#f9f8fa" fill-opacity=".996" d="m111.25 112.32 4.14 5q.09 1.09 1.08 1.42l-.02 14.78q-.7.61-.93.07l-9.14-10.91q.52-.22.85-.54l7.27 8.77q.95 1.15.95-.34v-10.09q0-1.56-1-2.75l-3.58-4.26zM7.39 114q-3.22 2.97-7.39 4.49v-.75l6.4-3.95q.37-.04.99.21M149.73 114.4l3.01 3.51q.62 1.11.05 1.61l-4.63-5.27q.52-.63 1.57.15M97.72 115.22l.33 10.95q-.34.55-.79.6c-1.09-2.25-.61-7.73-.55-11.77z"/><path fill="#f9f8fa" fill-opacity=".996" d="M98.06 127.44q-.11-.54.95-.45l16.4 19.39q.78 1.59-.02 1.59l-8.22-9.75q-.32-.63-1.09-1.02l-13.05-2.25a2.92 2.9 74.8 0 1-1.75-1.01l-8.64-10.28q-.15-.18.03-.33l.22-.19q.35-.29.64.06l8.54 10.09q.49.58 1.24.71l11.24 1.84q.74.12.25-.45z"/><path fill="#7a017d" fill-opacity=".996" d="m145.05 123.21 4.68 5.71q-.45.1-.8.47l-4.35-5.03q-.55-.4-.8-1.36zM162.4 125.06q1.49-.48.95.03l7.66 1.55 1.84 2.11-.06 7.5-.9-.21-.11-7.49a.95.94 4.4 0 0-.79-.92l-7.63-1.28q-.45-.38-1.04-.12-1.59-.69-2.9-.48-.98.04-1.41-1.46zM153.97 124.96l.08 1.49q-.42.4-.92.42-.33-1.09-.01-2.23.37.28.85.32M153.98 127.78v34.43a2.21 2.19 25 0 0 .53 1.43l8.74 10.3q-.65.41-.04 1.7l.05 7.24a.25.25 0 0 1-.32.24l-.39-.1q-.19-.05-.19-.24l-.01-7.07a1.25 1.25 0 0 0-1.04-1.23l-12.41-2.12q.31-.4.01-.89l12.06 1.92q.59.1.2-.36l-7.21-8.51a4.34 4.29 25.2 0 1-1.02-2.78l-.01-12.96q.08-1.07-.14-1.7l.08-12.3q0-.51-.31-.9l-2.83-3.61.99-.48q.65 1.3 1.65 2.17.46.4.47-.22l.04-3.24zM116.45 133.52v27.36q0 1.27.83 2.23l3.01 3.43q-.36.26-.54.71-1.71-1.26-2.7-2.88-.65-1.05-.65.19l.02 12.05-.95-.1-.12-13.03q0-.5-.31-.9l-4.9-6.24q.54-.34 1.11-.47 2 2.06 3.76 4.37.15.19.38.31.36.18.35-.21l-.35-12.37q.8 0 .02-1.59l.11-12.79q.23.54.93-.07M107.17 138.22l-.05 12.84-1 .05-.04-13.91q.77.39 1.09 1.02M172.71 137.41l.02 4.55q-1.21-.71-.86-1.63l-.13-3.11zM191.5 149.78l.01 28.5q-1.07-.2-.97-1.06l-.07-12.48a1.41 1.39 25.6 0 0-.32-.89l-8.68-10.73.74-.24 7.85 9.26q.49.57.49-.18l.03-12.08q.34.1.92-.1"/><path fill="#f9f8fa" fill-opacity=".996" d="m107.12 151.06 4.13 4.81q-.57.13-1.11.47l-4.02-5.23z"/><path fill="#7a017d" fill-opacity=".996" d="M180.17 166.55q.57.6.88 1.33l-12.83-2.17a3.13 3.1-14.9 0 1-1.89-1.08l-8.53-10.11q-.24-.29.05-.53l.25-.22q.22-.19.41.04l8.68 10.29q.32.38.81.45z"/><path fill="#f9f8fa" fill-opacity=".996" d="m134.62 169.23-.51.74-14.36-2.72q.18-.45.54-.71l11.92 1.96q.65.11.22-.4l-7.79-9.23q-.15-.18.03-.34l.24-.21q.25-.23.47.03zM38.06 172.7l1.19 1.3-13.57-2.36a2.53 2.52 74.9 0 1-1.49-.86l-8.79-10.42q-.19-.22.06-.37l.35-.2a.39.39 0 0 1 .49.09l8.62 10.21q.35.4.87.49zM148.91 171.47q.3.49-.01.89-.64-.09-.89-.39-4.56-5.35-9.08-10.68a.38.37 52.8 0 1 .07-.55l.23-.17q.25-.17.44.06z"/><path fill="#7a017d" fill-opacity=".996" d="M48.98 184.06q.21.44-.43.9L39.25 174l-1.19-1.3-8.3-9.86q-.15-.19.03-.35l.2-.16q.37-.32.68.05z"/><path fill="#f9f8fa" fill-opacity=".996" d="m68.4 177.97-.39.99-13.36-2.37a3.31 3.3 74.9 0 1-1.94-1.12l-8.47-10.03q-.29-.34.05-.63l.2-.17a.3.28-39.4 0 1 .41.03l8.71 10.3q.37.44.94.54l11.47 1.94q.75.12.26-.46l-7.8-9.24q-.25-.3.06-.54l.22-.17q.23-.18.42.04zM82.67 180.36l.06.82-9.97-11.15q-.16-.18.02-.33l.22-.18q.28-.23.51.04z"/><path fill="#7a017d" fill-opacity=".996" d="M143.87 180.06q.09.3-.35.96l-9.41-11.05.51-.74z"/><path fill="#f9f8fa" fill-opacity=".996" d="M106.31 193.77q.03.56-.28.68l-9.82-11.05q-.65-.95-.82-.98l-8.3-9.88q-.09-.1-.03-.23l.14-.25q.29-.55.69-.08zM163.25 173.94l18.63 22.03q-.17 1.24.23 2.17l.06 12.76q-.2.29-.96.34l-.12-14.29q-.37-.84-.95-1.37l-7.22-8.62-1.19-1.02-8.39-1.48-1.09-.12q-1.34-.5-2.79-.54-.94-.51-1.41.04l-.43.05q-.33.03-.62.2-8.13 4.87-10.64 6.27-.45.25-1.14.06.05-.19-.04-.59l10.55-6.27q.47-.28-.07-.37l-12.14-2.17q.44-.66.35-.96l26.37 4.38q.53.08.18-.32l-7.21-8.48q-.61-1.29.04-1.7M111.27 185.14q.08.33-.06.9l-.57-.35q-.41-.27-.73-.64l-8.34-9.9q-.33-.39.05-.71l.21-.18q.15-.12.27.02zM116.42 176.61l18.82 22.31q-.54.63-1.04.71l-8.26-1.42-1.14-.19-2.99-.56q-1.16-.39-.84-1.2l3.95.67q.56-.1 1.01.12l6.75 1.15q.56.1.19-.34l-6.92-8.28-1.87-2.24-8.61-10.83z"/><path fill="#7a017d" fill-opacity=".996" d="M96.46 211.17q-.25.15-.63.71l-8.88-10.5a1.46 1.45-15.1 0 0-.86-.49l-12.85-2.2a3.2 3.2 0 0 1-1.89-1.08l-8.36-9.89q1.01-.14 1.44.04l7.97 9.42q.34.4.85.49l11.67 1.97q.54.09.19-.32l-7.92-9.39q.25-.35-1.1-1.24l-8.08-9.73.39-.99zM191.5 179.21v57.52l-1.02.23-8.36-9.9q-.47-.98-1.06-1.05l-13.63-2.48a1.5 1.45 73.9 0 1-.87-.5l-8.73-10.35q-.24-.28.04-.52l.26-.21q.22-.19.41.03l8.68 10.31a1.34 1.34 0 0 0 .81.46l11.5 1.93q.82.13.29-.5l-7.56-8.94a2.36 2.34-65.1 0 1-.54-1.5V200.8a1.99 1.97-65.1 0 0-.46-1.27l-13.21-15.69q.47-.55 1.41-.04 1.05 1.84 2.58 3.03.46.37.41-.22l-.2-2.27 1.09.12.04 3.31q.01.53.34.95 1.56 1.99 3.23 3.95c1.15 1.36 2.54 1.21 4.09 1.54q.64.15.64-.51l.05-7.76 1.19 1.02-.08 6.89q0 .55.53.64l6.77 1.09q.58.53.95 1.37l-7.79-1.36q-.51-.09-.51.43l-.07 17.7q0 .52.33.91l16.98 20.07q.47.55.47-.18l-.03-11.74a1.43 1.41-65.1 0 0-.32-.9l-8.94-10.64q.76-.05.96-.34l7.97 9.44q.36.43.36-.13l-.02-11.94q0-.54-.36-.95-3.93-4.55-7.66-9.18-.08-.09-.19-.07-.06.02-.16.07-.4-.93-.23-2.17l8.23 9.55q.36.42.36-.13l-.09-12.34q.43-.07.13-1.36l.03-12.23zm-20.46 15.97c-.61-.09-1.24-.27-1.82-.36q-.78-.11-.26.49l2.34 2.69q.54.63.51-.2l-.09-1.86q-.03-.66-.68-.76M95.39 182.42q.17.03.82.98l-13.48-2.22-.06-.82z"/><path fill="#f9f8fa" fill-opacity=".996" d="M76.09 188.69q1.35.89 1.1 1.24l-12.76-2.17q-.43-.18-1.44-.04l-11.32 6.64a2.97 2.97 0 0 1-1.99.36l-13.3-2.26q-.17-.03-.16-.2l.02-.41q.02-.41.42-.35l13.58 2.3q.2.04.38-.06 2.22-1.2 11.01-6.48a.06.06 0 0 0-.02-.11l-13.06-2.19q.64-.46.43-.9z"/><path fill="#7a017d" fill-opacity=".996" d="m124.08 187.34 1.87 2.24-.02 7.47q-.45-.22-1.01-.12l-.05-7.68a1.08 1.08 0 0 0-.9-1.05l-12.76-2.16q.14-.57.06-.9zM145.18 189.83q.09.4.04.59l-13.82-1.92q-.36-.05-.3-.41l.04-.26a.36.36 0 0 1 .42-.3zM120.97 196.26q-.32.81.84 1.2l2.56 2.97q.46.53.45-.17l-.02-2.24 1.14.19c-.24 1.78-.41 3.69.88 5.08q1.3 1.39 2.4 2.87c1.09 1.48 2.62 1.5 4.25 1.78q.68.12.69-.58l.04-7.73q.5-.08 1.04-.71l28.02 33.18q-.78.78-1.69-.43l-6.99-8.18q-.4-.47-.41.15l-.04 6.77-1.11-.33-.02-7.7q0-.59-.58-.69l-7.8-1.34q-.39-.52-1.08-.05-1.57-.64-2.87-.44-1-.81-1.52-.22l-3.34 2q-.45.27-.48.79l-.29 4.99q-.96-.23-.99-1.07l.12-3.2q.02-.56-.52-.38-1.06.35-1.67 1.27-1.39-.1-1.03.64-1.21.07-2 .84-.42.41.16.53l3.66.73q.71.54.5 1.15l-11.84-1.8-1.47-.17-7.29-1.39q-.27-.72-1.27.51l-11.26 6.53q-.18-.87-.41-.89l15.9-9.42q.08-.05.09-.14l.01-.27q1 .14 1.06-.34l6.48-3.8q.45-.14 1.39.4l-7.24 4.35-.75.62q-1.26.2-2.27 1.22-.41.41.17.47l3.87.38q.27.3.76.52.36.15.63-.12.11-.1.18-.25 4.39 1.23 6.49 1.12 1.44-.08 3.62-1.97.55.34.89-.51c1.89-.67 3.62-1.37 3.16-3.79q-.11-.61-.72-.72l-7.29-1.3q-1.14-.16-1.21-1.19l8.56 1.37q.5.08.59-.42.3-1.7-.11-3.37.46-.44.1-1.32l.12-2.46a.74.73 12.9 0 0-.46-.72q-1.29-.52-2.72-.48-.99-.76-1.55-.26l-8.3-10.05a1.54 1.53-34.8 0 0-1.96-.35l-10.99 6.46q0-.64-.4-.83l10.27-6.07q.84-.5-.12-.68l-11.95-2.35q.31-.12.28-.68zm21.04 13.1a.31.31 0 0 0 .29-.5l-6.52-7.74a.31.31 0 0 0-.54.2l-.01 6.62a.31.31 0 0 0 .26.3zm1.57 9.68q.62-.12 1.04.14l6.95 1.25q.56.1.19-.33l-7.18-8.49q-.57-.23-1.05-.86l-8.04-1.47q-.26-.04-.26.21l.03 7.8q0 .34.33.4zm-8.14 1.45 1.66-.89q.79-.43-.1-.54l-1.4-.16q-.38-.05-.44.33-.1.61.05 1.17.06.19.23.09"/><path fill="#f9f8fa" fill-opacity=".996" d="M107.83 203.55q.4.19.4.83-.03-.18-.33.01-.21.14-.45.09l-13.59-2.25q-.57-.1-.3-.61l.13-.26q.07-.13.21-.11zM131.03 208.58l3.06 3.66q.36.88-.1 1.32l-4.51-5.24q.56-.5 1.55.26M144.58 211.61l.04 7.57q-.42-.26-1.04-.14l-.05-8.29q.48.63 1.05.86M96.46 211.17l28.49 4.81q.07 1.03 1.21 1.19l4.85 5.81q-.34.85-.89.51l-5.46-6.34q-.94-.54-1.39-.4l-10.74-1.85q-.57-.1-.2.34l4.46 5.31q-.06.48-1.06.34l-4.75-5.61q-.53-.62-1.23-.21l-11.13 6.58a1.7 1.67 34.3 0 1-1.12.2l-13.72-2.33q-.24-.04-.22-.29l.03-.26q.05-.48.53-.4l13.12 2.23q.67.11 1.25-.23l9.79-5.77q.79-.47-.12-.64l-12.33-2.28q.38-.56.63-.71M140.67 219.86l2.5 2.93q.42.5.41-.16l-.04-2.33q.69-.47 1.08.05v3.4q0 .54.35.96 1.39 1.66 2.85 3.5c1.3 1.64 3.22 1.94 5.2 1.87l1.11.33 7.44 1.26q.91 1.21 1.69.43l9.08 10.72q-.32 1.31-1.54-.14l-6.95-8.21q-.36-.43-.37.13l-.1 6.37q-.04.17-.14.27-.16.17-.37.06l-.52-.27-.08-7.55q-.01-.52-.52-.61l-7.72-1.33-1.25-.35-2.97-.42-1.37.03-9.29-11.16q.52-.59 1.52.22"/><path fill="#f9f8fa" fill-opacity=".996" d="m117.42 221.5 2.59 2.84q-.07.15-.18.25-.27.27-.63.12-.49-.22-.76-.52l-1.77-2.07zM131.98 224.04q.82 1.37 2.07 2.31.03.84.99 1.07l8.73 10.37q.38.45.96.55l7.39 1.28q.57.1.7-.46.35-1.52.11-3.16.56-.09 1.07.04l.08 3.28q.01.54.54.64l3.4.65q-.74.96 1.45 1.39l2.42 3.03q.68.86.59-.23l-.2-2.32 1.09.14c-.11 1.93-.35 3.3.88 4.92q1.61 2.12 3.5 4.08l-1.05.82-8.82-10.6-1.66-.51q-.71-.31-1.34-.33-.53-.02-.74.46-.23.5-.16 1.32-.27.42-.95.26l-.1-1.75q-.03-.54-.56-.63l-6.92-1.16q-.68-.12-.23.41l4.47 5.21q-.07.83 1.08 1.13l1.35 1.89q.83 1.17.81-.26l-.03-3.01q.1-.33.36-.64.17-.2.42-.1l.26.09v6.32l-.96-.01-3.31-3.93q.1-.35-.29-.75-.22-.23-.43-.05l-3.85-4.57q-.52-.62-.51.19l.03 6.07q0 .5.5.55.29.02.64-.36-.07.43.38.89-.68-.01-1.13.26-.4.23-.41.69l-.01 3.49q-.01.54.34.95l7.92 9.32q.01 1.66 1.1 1.77l.07 14.25q-.01.3-.52.51-.53-.62-.52-2.07.01-6.03-.03-12.16a1.47 1.43 25.3 0 0-.35-.94l-8.61-10.19q-.34-.4-.35-.93l-.07-4.27q0-.58-.58-.68l-11.59-1.96q-.36-.06-.3-.42l.05-.32q.05-.29.33-.24l11.47 1.92q.58.09.59-.49l.13-7.22q.71-.64-1.21-1.49l-9.19-10.42q.21-.61-.5-1.15-.7-1.19-1.82-2.1-.36-.74 1.03-.64M112.67 224.57l-4.59 12.7a2.47 2.43-5.6 0 1-1.07 1.28l-11.44 6.61q-.3.18-.47-.12l-.14-.24q-.13-.22.09-.36 5.53-3.43 11.14-6.55a2.3 2.3 0 0 0 1.05-1.24l4.16-11.57q1-1.23 1.27-.51M99.73 230.72q.23.02.41.89l-13.85-2.14a2.02 1.99 34.3 0 0-1.31.24l-12.02 6.87q-.47-.86-.17-.92l10.53-6.26q.57-.34-.09-.45l-11.85-2.05a.37.36 8.9 0 1-.3-.41l.04-.31q.04-.31.35-.26zM121.43 226.13l8.75 10.38-.05.9q-.99-.5-1.58-1.21-4.19-4.98-8.59-10.24zM182.12 227.06l-.01 12.52a.74.73-64.9 0 0 .16.46q4.08 4.93 8.31 9.81a.03.03 0 0 0 .06-.02l-.16-12.87 1.02-.23.01 29.24q-.57.12-.98.05l-7.93-9.39q-.45-.54-.45.16v12.22q-.24.23-.95.33l-.08-14.19.98-.74 8.02 9.43q.38.45.38-.14V252a1.73 1.71 25.4 0 0-.4-1.1l-8.34-9.88a2.88 2.82 25.5 0 1-.67-1.83l-.03-13.18q.59.07 1.06 1.05"/><path fill="#7a017d" fill-opacity=".996" d="m149.81 230.77 2.43 2.87q.33.4.56-.07.46-.96-.02-2.38l1.25.35-.03 4.5q-.51-.13-1.07-.04l-4.49-5.2zM72.79 235.66q-.3.06.17.92l-14.24-2.39q-.29-.05-.15-.31l.22-.39q.09-.17.29-.14zM142.46 238.35q1.92.85 1.21 1.49l-13.54-2.43.05-.9zM162.35 241.03l.52.27q.21.11.37-.06.1-.1.14-.27.03.24.19.42.13.15.38.2 3.3.62 6.85 1.09 1.22 1.45 1.54.14l9.76 11.59-.98.74-8.39-1.45q-.3-.1-.34-.5-.02-.2.1-.35.14-.18.3-.26l6.6 1.11q1.02.17.34-.61l-6.96-8.05-1.05-.98-8.35-1.44-1.09-.14q-1.2-.63-2.81-.48-2.19-.43-1.45-1.39 1.96.31 3.97.63.25.04.36-.21"/><path fill="#7a017d" fill-opacity=".996" d="m157.88 241.84-3.94 2.38-.26-.09q-.25-.1-.42.1-.26.31-.36.64-1-.06-2.13 1.38-1.15-.3-1.08-1.13 2.34-.63 3.34-2.08.68.16.95-.26l2.24-1.45z"/><path fill="#f9f8fa" fill-opacity=".996" d="m172.77 245.04.02 7.55q-.16.08-.3.26-.12.15-.1.35.04.4.34.5l.01 4.32q-.86.1-1.02-1.68l.03-2.85q.66-.99-.01-1.14l-.02-8.29z"/><path fill="#7a017d" fill-opacity=".996" d="m149.67 246.6-3.53 1.97q-.45-.46-.38-.89l3.19-1.88q.21-.18.43.05.39.4.29.75M153.94 250.54l.01 14.51q-1.09-.11-1.1-1.77l.13-12.75zM167.75 251.62l3.99.73q.67.15.01 1.14-1.21-.48-2.43-.35-.59.06-.18.5l2.58 2.7q.16 1.78 1.02 1.68l.03 14.5q-.24.19-.96.2l-.11-13.96a1.37 1.36 24.6 0 0-.32-.85l-4.68-5.47zM191.51 265.97l-.01 57.99q-.63-.07-1.07.04l-8.33-9.88q-.9-1.42-1.95-2.22l-7.34-8.69q-.24-.1-.41-.27-.38-.4-.04-.83l.45-.57 17.21 20.37q.5.59.5-.18v-12.25q.31-.8-.07-1.69l-.03-12.35q0-.55-.35-.97l-7.35-8.73q-.44-.53-.45.16l-.08 12.13q-.35-.03-.71.26l-.37-14.22q.66.22 1-.59l8.3 9.93a.04.03 24.2 0 0 .06-.02q.07-6.44-.03-12.81 0-.28-.18-.49l-9.06-10.75q.71-.1.95-.33l7.97 9.43a.23.23 0 0 0 .41-.15v-12.27q.41.07.98-.05"/><path fill="#f9f8fa" fill-opacity=".996" d="M171.81 272.72q.72-.01.96-.2l9.34 10.96q-.34.81-1 .59l-13.78-2.46a1.39 1.38-14.7 0 1-.81-.47l-8.72-10.37q-.27-.32.05-.59l.21-.18a.29.28 49.8 0 1 .41.04l8.48 10.04a2.64 2.62-15.2 0 0 1.57.89l10.97 1.83a.35.35 0 0 0 .33-.57z"/><path fill="#7a017d" fill-opacity=".996" d="m132.7 284.78.94 1.24-13.48-2.28a1.79 1.77 74.7 0 1-1.06-.61l-8.81-10.46a.33.33 0 0 1 .02-.46l.23-.22a.35.34-41.1 0 1 .5.03l8.69 10.28q.39.47 1 .57z"/><path fill="#f9f8fa" fill-opacity=".996" d="M134.75 285.62q-.44.36-.97.35-.07.03-.14.05l-.94-1.24-8.11-9.6a.25.25 0 0 1 .03-.35l.37-.33q.19-.17.35.02zM161.51 289.75q1.08.94.64 1.24l-12.9-2.23a2.74 2.68 74.1 0 1-1.63-.93l-8.6-10.2a.37.37 0 0 1 .04-.52l.25-.21a.31.3 49.6 0 1 .43.04l8.61 10.19a2.09 2.07 74.2 0 0 1.26.71z"/><path fill="#7a017d" fill-opacity=".996" d="M163.47 290.46q-.51.07-.5.54.01.55.34.92v7.59l-1.19-.12.03-8.4q.44-.3-.64-1.24l-8.01-9.94q.51-.21.52-.51zM134.75 285.62l8.71 10.22q.32.38.82.47l13.75 2.41q.09.84-.08 1.19l-11.02 6.47q-1.32.77-2.83.52l-12.69-2.15q-.29-.05-.25-.34l.06-.43q.03-.26.29-.21l13.29 2.22q.56.1 1.05-.19l10.18-6.02a.21.21 0 0 0-.08-.39L144 297.38a1.74 1.71 73.8 0 1-1.02-.57l-9.2-10.84q.53.01.97-.35"/><path fill="#f9f8fa" fill-opacity=".996" d="m163.47 290.46 9.34 11.08-.45.57q-.34.43.04.83.17.17.41.27l.02 6.91q0 .54.53.63l6.79 1.15q1.05.8 1.95 2.22l.07 13.03q-.18.22-.66.42-.13-.23-.27-.49-.15-.26-.15-.57.06-6.51-.05-13a.44.43-86 0 0-.36-.42l-7.44-1.23q-.47-.08-.47.4l-.04 17.62q0 .64.42 1.13l17 20.13a.19.19 0 0 0 .33-.13l-.01-12.54v-1.48l-.04-12.99q.44-.11 1.07-.04l-.01 44.02q-.61.13-.87-.07l-9.43-11.68.95-.16 7.92 9.37q.43.5.43-.15v-11.56q0-.57-.37-1l-7.98-9.47q-.39-.7-1.03-1l-13.02-2.25a3.1 3.1 0 0 1-1.85-1.06l-8.47-10.08q-.33-.39.11-.65l.26-.15q.16-.1.28.05l8.71 10.3q.45.54 1.15.66l11.25 1.85q.83.13.29-.5l-7.74-9.11q-.33-.38-.33-.89l-.01-13.13a2.83 2.77 25.4 0 0-.67-1.81l-13.12-15.58q.17-.35.08-1.19l4.09.67 1.19.12 6.9 1.18q.56.09.19-.34l-7.09-8.43q-.33-.37-.34-.92-.01-.47.5-.54m-.92 13.22q-.02.04.38.3l4.42 5.33q.49.59 1.25.72l2.05.35q1.1.19 1.1-.93l-.02-6.47q-.01-.97-.96-1.12l-7.62-1.18-.73.09q-1.19-.81-2.39-.64-.59.09-.19.54zm9.3 10.54-.11-2.21q-.01-.33-.33-.41l-2.41-.59a.17.17 0 0 0-.17.27l2.53 3.13q.54.66.49-.19M182.19 298.03l8.26 9.76q.38.89.07 1.69l-9.04-11.19q.36-.29.71-.26"/><path fill="#7a017d" fill-opacity=".996" d="M163.15 300.68q.7 2.53-.22 3.3-.4-.26-.38-.3l-.13-2.91zM182.17 327.15l8.3 9.84v1.48l-8.96-10.9q.48-.2.66-.42M182.14 343.26v12.81l-.95.16-.08-13.97q.64.3 1.03 1M191.49 367.98l-.07 14.02h-.77l-.03-14.09q.26.2.87.07"/></svg>