<svg xmlns="http://www.w3.org/2000/svg" viewBox="0 0 382 382"><path fill="#0102fd" fill-opacity=".996" d="M106.26 0q1.08.85 1.77 0h.87q1.68 4.68 3.45 9.33.83 2.19 2.12 3.53 1.67 1.73 3.1 3.56c1.27 1.63 3.28 2.43 5.04 3.46q.11.07.22 0 .04-.03.05-.08.03-.19-.11-.31c-3.05-2.7-3.81-4.86-4.99-8.42-1.45-4.37-6.04-6.64-6.95-11.07h.83q1.35 3.12 3.64 5.38.8.79.37-.25l-1.47-3.57a.34.32-27.1 0 1 .14-.41l.34-.19q.31-.17.44.16 2.43 6.19 4.38 11.88c1.36 3.97 4.78 6.72 7.21 9.87q.48.62.45-.16l-.05-1.43a2.24 2.23-69.5 0 0-.69-1.52q-5.3-5.08-6.91-12.38-.06-.24.18-.31l.3-.09q.25-.07.34.17 1.02 2.76 2.05 5.6c.71 1.94 2.06 3.13 3.28 4.69q.08.1.19.04.04-.02.07-.07.11-.15.04-.33-2.16-4.92-1.85-6.35 1.2-5.66-1.88-10.73h1.41q1 .54 2.45.29.46-.08.64.36 1.94 4.98 3.71 10.19.98 2.88 2.83 4.85 2.38 2.53 4.46 5.18.5.63.46-.18l-.09-1.54q-.05-.78-.61-1.32-5.26-4.97-6.97-12.37-.06-.27.2-.34l.34-.09q.22-.06.29.15 1.12 3.1 2.27 6.14c.48 1.27 1.43 2.14 2.28 3.16q2 2.41.62-.4c-2.19-4.43.19-9.38-2.16-13.37a.37.37 0 0 1 .34-.56l1.15.05q.64.03.63.67c0 1.08-.14 2.17.26 3.19q1.26 3.2 2.45 6.38c.53 1.41 1.76 2.57 2.75 3.71q1.17 1.34.43-.28c-.85-1.85-1.49-3.48-1.4-5.58q.19-4.23-.63-8.29h1.55c.02 4.1-.55 8.98 1.02 12.69q1.77 4.18 3.1 8.7a.88.84-89.6 0 1-1.06 1.09q-.11-.03-.16-.51.22-.77-.13-1.09-.21.64.13 1.09-.68 3.77 1.38 6.94.44.66.42-.13-.05-2.35-.58-4.79-.12-.53.03-1.04c1.06-3.6.18-7.12-1.34-10.48-1.52-3.35-1.02-7.02-1.02-10.52q0-.37.36-.34l.27.02a.31.31 0 0 1 .3.29q.18 3.1.01 6.04c-.1 1.84.8 3.66 1.5 5.33q.41.98.37-.08l-.11-3.68q-.01-.33.31-.37l.36-.05q.37-.05.37.31.05 11.11 0 21.76c-.01 2.89 1.63 5.83 2.61 8.6.66 1.87 2.2 3.04 3.21 4.71q.12.2.32.09l.22-.12q.02-.01.01-.03-.67-1.39-1.23-2.79c-1.49-3.7.23-7.83-1.25-11.47q-.81-1.97-1.42-3.83-1.27-3.88-.5-9.77a.26.25 10.5 0 1 .31-.21l.3.08q.15.03.15.18.03 3.33.08 6.88c.02 1.56.77 3.01 1.15 4.57q.29 1.14.43-.02.22-1.77.12-3.74-.02-.41.38-.37l.4.04q.21.03.21.24.07 6.91-.03 12.98-.04 2.67.83 4.75 1.82 4.34 3.25 8.85.13.39-.11.82-.75 1.36-.93-.18-.04-.3-.13-.59-.15-.51-.13.02c.13 3.07-.3 4.89 1.59 7.96q.47.76.38-.13l-.57-5.57q-.05-.48.07-.94c1.59-6.13-2.62-9.42-2.5-14.94q.07-2.77.03-5.44-.01-.46.45-.44l.29.01q.32.01.31.33-.1 3.83.02 7.02.07 1.93 1.54 4.29.55.89.35-.13-.39-1.9-.15-3.79.04-.29.32-.28l.31.01q.32.01.32.33.05 11.13.01 21.94-.01 1.86.78 3.67c.99 2.27 1.5 4.89 3.01 6.82q1.06 1.36 2.15 2.65.1.11.21.04.04-.03.07-.07.08-.19-.02-.38c-1.87-3.35-1.71-6.43-1.67-10.1.03-4.01-2.59-7.01-2.76-10.98q-.14-3.28.12-6.38.01-.14.15-.16l.28-.06q.43-.1.43.35 0 3.2.02 6.38c.01 1.47.53 2.92.99 4.31q.59 1.76.67-.1l.14-3.1q.01-.29.3-.27l.27.01q.35.01.35.36.06 6.4-.03 12.83-.03 2.81 1.05 5.33 1.75 4.12 2.99 8.24a1.15 1.15 0 0 1-.62 1.38q-.07.03-.15 0-.2-.08-.25-.29-.08-.31-.04-.63 0-.06-.03-.1-.07-.11-.12-.24a.03.03 0 0 0-.06.01c.22 3.06-.21 4.99 1.64 8.04q.42.68.34-.12l-.55-5.67q-.04-.51.1-1.01c1.64-5.81-2.64-9.56-2.54-14.99q.05-2.61.03-5.26 0-.38.37-.38h.3q.33 0 .33.33c-.01 3.87-.53 7.91 1.63 11.37q.26.42.24-.07l-.12-3.99q-.01-.27.26-.26l.38.01q.33.01.34.35.12 9.7 0 21.02c-.04 3.41 1.62 6.56 2.79 9.7.59 1.57 2.01 2.8 3.08 4.11q.07.1.2.11.05.01.09-.02.19-.15.07-.35-1.43-2.5-1.6-5.23c-.18-3.06.39-6.05-.84-8.97-.92-2.19-1.95-4.51-1.99-6.92q-.06-2.93.01-6.02.01-.33.33-.33h.38q.38 0 .34.37-.63 5.7.82 10.33.61 1.96.75-.09l.22-3.02q.01-.26.27-.27l.31-.01q.29-.01.29.27.07 6.66-.04 12.72c-.08 4.57 2.66 9.33 4 13.67q.21.68-.22 1.26-.54.73-.73-.16-.04-.21-.13-.39-.17-.4-.11.03c.24 1.62-.32 3.08.22 4.57q.58 1.61 1.24 2.91.34.68.39-.08.14-2.55-.51-4.85-.33-1.16.26-2.13.25-.42.25-.9-.02-1.31-.08-2.63c-.19-3.79-2.85-6.83-2.8-10.73q.03-2.97.03-5.68a.29.29 0 0 1 .3-.29l.29.01q.45.01.44.46c-.09 4.09-.52 7.56 1.56 11.22q.28.5.27-.07l-.1-3.98q-.01-.27.26-.27h.38q.32 0 .32.32.13 10.6 0 21.13-.03 2.5.88 4.68 1.01 2.45 1.88 4.87c.59 1.61 1.94 2.83 3.03 4.14q.76.91.33-.19c-.73-1.86-1.51-3.51-1.52-5.59-.02-2.75.38-5.9-.75-8.4-1.97-4.38-2.49-8.16-1.87-13.39q.01-.09.1-.12l.28-.11q.4-.15.41.28.04 3.28.02 6.35c-.01 1.65.71 3.08.99 4.7q.21 1.17.47.02.38-1.7.41-3.65 0-.13.13-.16l.43-.13q.29-.08.3.23.08 6.45-.03 12.69c-.09 4.59 2.49 9.16 3.94 13.56q.29.9-.28 1.6-.38.47-.61-.08-.25-.6-.08-1.17.03-.11.04-.1.01.05-.04.05-.07 0-.03.06.03.05.06.08.08.06.06.15-.92 4.38 1.45 8.44.38.66.3-.09l-.64-6.17q-.05-.53.09-1.04c.93-3.43-.02-6.65-1.44-9.81-1.51-3.37-1-7.01-1.01-10.52a.31.3-4.4 0 1 .26-.3l.31-.06a.35.34-5.1 0 1 .4.33q.1 2.89 0 6.44-.04 1.37.5 2.58.65 1.46 1.27 2.96.03.08.12.06l.24-.06q.06-.02.05-.08-.62-2.1-.37-4.35.03-.26.29-.27l.37-.01q.37-.01.37.36L191.51 382h-.84q-.19-2.89-.22-5.85c-.03-2.69-.9-4.8-1.91-7.17-1.11-2.58-.84-5.61-.76-8.34.04-1.27-.51-2.53-1.44-3.42q-4.83-4.63-6.25-11.78-.04-.22.18-.28l.26-.07q.18-.05.25.12 1.3 3.26 2.43 6.34c.52 1.4 1.67 2.55 2.68 3.63q1.36 1.46.47-.33-1.68-3.41-1.35-7.35c.21-2.49 0-4.27-.99-6.7q-2.03-4.94-3.11-8.46c-.56-1.81-1.29-3.04-3.07-3.82q-5.95-2.62-9.83-8.87-.06-.1.01-.19l.18-.2q.19-.22.38-.01 2.24 2.41 4.32 4.91c1.21 1.48 3.07 2.11 4.61 3.23q.06.04.12-.01.1-.1.18-.19.06-.06 0-.13c-1.46-1.47-2.9-3-3.65-4.95-1.07-2.82-1.66-5.53-3.82-7.83q-1.54-1.65-2.75-3.31-2.04-2.83-3.34-8.31-.06-.24.19-.3l.28-.06q.21-.05.29.15 1.13 2.93 2.15 5.86c.66 1.87 2.04 3.07 3.25 4.53q.14.18.32.04l.01-.01q.17-.12.06-.3-1.05-1.66-1.34-3.72-.04-.29.17-.49.15-.14.32-.1.12.03.16.14 2.44 6.15 4.46 12.02c1.34 3.93 4.58 6.56 7.07 9.71q.51.64.6-.18c.27-2.49-2.68-4.81-4.04-6.59q-2.2-2.87-3.65-8.64-.06-.21.15-.28l.24-.08q.25-.09.35.15 1.15 2.75 2.16 5.67c.63 1.83 1.96 3.17 3.17 4.63q.78.95.37-.21c-.56-1.59-1.35-3.07-1.45-4.84q-.14-2.52-.07-5.05c.1-4.01-2.67-7.05-2.77-10.91q-.06-2.05.08-4.27c.23-3.53-2.4-4-4.26-6.06q-2.39-2.63-4.43-5.18-.17-.21.02-.41l.2-.22q.29-.32.54.03.88 1.24 1.75 2.12.72.74.36-.22l-2.04-5.51q-.08-.21.14-.29l.3-.09q.36-.12.5.23c1.56 3.75 2.21 7.74 5.83 10.2q1.15.78.2-.23c-1.73-1.86-2.2-4.77-3.02-7.1q-.87-2.46-2.53-4.32-3.52-3.94-7.15-8.25a3.16 3.15-15.3 0 0-1.9-1.08q-2.11-.34-4.27-.61c-3.28-.42-6.19-2.62-9.05-4.13q-.31-.17-.1-.45l.26-.36q.17-.24.42-.08c3.17 1.99 6.72 4.22 10.24 4.24q1.15.01.12-.51c-1.47-.73-2.95-1.38-4.07-2.62-1.92-2.12-3.54-4.74-6.09-6.12q-1.67-.9-3.54-1.93c-2.82-1.55-4.66-4.41-6.76-6.8a.48.48 0 0 1 .04-.68l.22-.19q.11-.1.22.01 1.92 2 3.69 4.26c1.43 1.83 3.22 2.49 5.04 3.74q.21.15.35-.07l.18-.28q.04-.06-.02-.11-1.91-1.32-2.23-2.03-1.51-3.35.92-.58 3.78 4.33 7.21 8.46 2.06 2.48 4.43 3.69 3.11 1.59 5.93 3.14 1.02.56.46-.45c-.76-1.39-1.87-2.38-3.31-3.03q-5.6-2.57-9.3-8.46a.28.27 56 0 1 .07-.37l.22-.17a.28.27-37.7 0 1 .37.04c2.71 3.07 4.41 5.92 8.49 7.75q.89.41.25-.34c-1.05-1.22-2.38-2.38-3.01-3.87q-.95-2.26-1.73-4.68c-.85-2.63-3.07-4.67-4.83-6.74-1.77-2.09-2.44-4.88-3.38-7.41a3.63 3.62 5.4 0 0-1.51-1.82c-2.26-1.4-4.99-2.38-6.75-4.38q-2.09-2.38-4.11-4.79-.29-.35.11-.54l.28-.13a.37.35-31.7 0 1 .42.09c2.6 3.06 4.55 5.98 8.43 7.71q.9.4.26-.35c-1.2-1.41-2.59-2.6-3.26-4.36-1.04-2.74-1.69-5.97-3.84-8.06q-4.62-4.49-6.2-11.61-.04-.21.15-.28l.27-.09q.29-.11.4.18c1.41 3.7 2.14 7.25 5.28 10.08q.66.59.32-.23l-1.36-3.29a.47.47 0 0 1 .14-.54l.22-.17q.33-.26.48.12 2.38 5.89 4.63 12.43.76 2.21 2.38 3.97 2.69 2.94 5.27 6.03.37.44.09.94l-.15.27q-.26.46-.11.98 1.03 3.73 3.96 6.49.51.48.31-.19-1.13-3.76-3.5-6.16-.38-.38-.3-.91.04-.25.32-.3a.53.53 0 0 0 .42-.66q-.86-3.26-2.92-5.25-4.25-4.1-5.95-11.18a.53.51 54.7 0 1 .06-.39q.24-.38.51-.14.2.18.3.43c1.53 3.74 2.19 7.11 5.35 10.02q.5.46.25-.17l-1.46-3.65a.46.45-18.8 0 1 .31-.61l.26-.07q.25-.06.34.18 3.83 9.98 7.57 20.43.69 1.93 2.13 3.42 1.81 1.86 3.24 3.72c1.23 1.59 3.27 2.17 4.86 3.31q.07.05.15.01.15-.09.13-.23-.01-.08-.06-.13c-1.37-1.33-2.83-2.67-3.52-4.47q-.87-2.29-1.72-4.64c-.81-2.26-2.51-4-4.12-5.74-2.36-2.54-3.2-6.17-4.39-9.3q-.12-.34.22-.44l.29-.09a.26.26 0 0 1 .32.15q1.27 2.87 2.48 6.37.49 1.44 2.97 3.93.72.73.33-.22l-1.44-3.5q-.13-.32.19-.45l.31-.13q.33-.14.46.2 2.14 5.5 4.61 12.48c1.17 3.33 4.67 6.25 6.85 9.04q.55.7.51-.19l-.06-1.34a2.3 2.29-70.3 0 0-.73-1.56q-5.14-4.85-6.84-12.22-.06-.26.2-.33l.33-.09q.21-.06.29.15 1.1 2.89 2.12 5.76c.66 1.83 2.16 3.1 3.3 4.65q.14.18.33.05h.01q.12-.09.05-.22-1.17-2.23-1.71-4.52-.48-2.1-.1-4.21.49-2.71-.62-5.37-2.03-4.84-3.59-9.78a.41.4 72.7 0 1 .26-.51l.41-.13q.48-.15.51.35l.06.82q.06.75.59.22.29-.28.23-.69-.23-1.5-.59-2.96c-.45-1.81-2.46-3.7-3.7-5.08-2.09-2.3-3.07-6.17-4.07-9.04q-.11-.31.23-.35l.31-.04q.2-.02.28.15 1.12 2.43 2.08 5.36c.61 1.84 1.77 3.29 3.11 4.66q1.48 1.5.42-.32c-1.49-2.59-1.47-6.38-1.34-9.36q.1-2.31-.99-4.89-1.55-3.64-2.85-7.68-.22-.69-.93-.77-4.91-.52-10.29-4.64a.21.2 35.7 0 1-.05-.28l.16-.22q.16-.22.39-.09c2.83 1.59 5.84 3.76 9.08 4.07q1.5.14.28-.74-2.59-1.85-5.32-3.62c-2.87-1.85-4.08-4.73-6.8-6.31-3.1-1.79-5.18-4.65-7.31-7.34q-.16-.2.04-.36l.24-.18q.28-.21.51.06l4.88 5.66a.7.61-3.7 0 0 .26.2l4.02 1.78q.08.04.09.02l.14-.21q.03-.05-.03-.08-2.16-1.1-2.62-2.21-1.24-2.93.87-.53 2.66 3.04 5.46 6.35.35.41.7 0l.54-.62q.64-.75-.23-.29-.18.09-.36.15-.45.15-.62-.3c-.91-2.49-1.52-5.25-3.19-7.36-1.66-2.08-3.83-3.97-4.81-6.44q-1.22-3.06-2.09-6.16-.04-.14.1-.19l.33-.13q.21-.08.3.13 1.16 2.66 2.07 5.47c.65 2.01 2.04 3.49 3.45 5q.16.17.33.08.05-.02.07-.06.08-.12.01-.23-1.07-1.76-1.39-3.8-.06-.39.32-.5.14-.04.27.01.11.05.15.15 1.98 5.18 3.8 10.19c.62 1.72 2.08 2.56 3.03 3.82q.18.23.13.72-1.59.82-1.66 1.32-.11.76.63.06.62-.58 1.03-1.38.15-.06.29-.2.25-.25.09-.55-1.91-3.66-3-7.56-.06-.22.16-.3l.32-.11q.19-.07.27.12 1.28 2.88 2.37 6.01c.51 1.47 1.69 2.41 2.45 3.76q.38.68-.4.74l-.3.02q-.31.02-.24.33.07.26.31.32.19.05.3-.11l.6-.87q.35-.5.12-1.07-.93-2.31-1.62-4.73c-.7-2.44-2.77-4.43-4.46-6.34-1.99-2.26-2.64-4.97-3.62-7.7q-.59-1.65-2.29-2.23-5.07-1.74-9.52-4.72-.35-.23-.03-.5l.31-.25q.13-.11.27-.02l2.52 1.52q1.14.69.27-.32l-4.02-4.63q-.1-.11.01-.2l.21-.2q.36-.33.69.03c2.47 2.69 5.23 7.06 9.22 7.61q.95.13.08-.28c-3.76-1.75-5.16-6.63-9.13-8.74q-5.37-2.85-10.36-5.72a1.83 1.82-39.1 0 0-1.49-.15q-6.84 2.32-14.31.15-.31-.09-.17-.37l.16-.36a.36.35 18.6 0 1 .4-.19c3.64.82 7.77 1.78 11.02.28q.67-.31-.07-.36c-1.86-.12-3.64-.39-5.3-1.28-2.24-1.22-4.57-2.99-7.15-3.35q-2.09-.29-4.12-.58c-3.23-.47-6.03-2.56-8.83-4.17a.36.36 0 0 1-.16-.43l.11-.33q.09-.26.34-.13 2.61 1.39 5.09 2.86c1.87 1.1 3.96 1.2 6.02 1.64q.1.02.19-.01.14-.05.05-.24-.04-.09-.12-.13l-3.65-1.91a.39.38-63.8 0 1-.17-.51l.12-.24q.15-.32.47-.15 5.47 2.89 11.08 6.17c3.56 2.08 7.73 2.02 11.63 2.76q.9.17.34-.56c-1.99-2.63-7.35-1.69-10.41-3.38q-2.68-1.48-5.27-2.92-.32-.18-.13-.5l.13-.21a.45.44-57.9 0 1 .62-.15c3.24 2.05 6.75 4.17 10.33 4.23q1.17.02.1-.46c-3.59-1.6-5.05-3.65-7.49-6.52-1.74-2.05-4.38-3.12-6.66-4.45-2.49-1.45-4.14-3.93-6.02-6.08q-.36-.4-.88-.56c-2.96-.87-6.19-.64-8.88-2.1q-2.81-1.53-5.44-3.11a.28.28 0 0 1-.07-.41l.19-.25a.3.3 0 0 1 .37-.08q2.84 1.42 5.35 2.98c1.28.79 2.78 1.01 4.25 1.12q2.35.17.19-.78c-3.17-1.4-4.45-3.66-6.62-6.03-2.61-2.86-6.52-3.57-9.05-6.33q-2.21-2.41-4.2-5.03-.12-.16.03-.29l.28-.24q.16-.13.3.02 2.09 2.2 4.05 4.62c1.35 1.67 3.28 2.31 4.95 3.57a.03.03 0 0 0 .05-.01l.15-.2q.14-.18-.04-.32-1.59-1.29-2.03-2.14-1.78-3.39.82-.57 3.73 4.05 7.04 8.22 1.91 2.41 4.25 3.67 4.21 2.25 8.37 4.48 1.1.58.31-.37c-1.95-2.36-4.56-4.04-7.36-5.4-3.11-1.51-5-4.57-7.22-7.1a.32.32 0 0 1-.02-.4l.15-.2q.29-.38.61-.02c1.72 1.95 3.83 5.13 6.11 6.37q1.26.69 2.48 1.41.08.04.16.01.17-.06.21-.2.03-.11-.06-.19-1.59-1.42-2.71-2.95-.18-.24.05-.42l.25-.2q.24-.2.44.04 7.21 8.2 14.12 16.42c1.93 2.3 4.81 3.24 7.36 4.75 1.68 1 3.55 1.1 5.46 1.46q1.17.23.14-.38c-1.64-.96-3.35-1.53-4.65-3.05-1.83-2.15-3.35-4.45-5.85-5.91-2.18-1.27-4.84-2.26-6.47-4.22q-1.99-2.39-3.9-4.62-.19-.22.03-.41l.29-.25q.24-.2.44.04 2.1 2.49 4.1 4.81c1.19 1.37 2.95 2.15 4.56 2.92q.81.39.19-.27l-2.74-2.94a.28.27-45.8 0 1 0-.37l.24-.25q.3-.33.6.01 4.25 4.77 8.36 9.81 1.71 2.1 3.95 3.17 2.97 1.4 5.72 3.17.66.42.55-.36c-.27-2-3.4-3.35-5.09-4.2-3.07-1.54-5.11-4.54-7.31-7.13q-.26-.31.06-.55l.28-.2q.17-.12.3.03 2.06 2.3 4.05 4.68c1.39 1.66 3.32 2.3 5.08 3.38q.1.06.17-.04l.01-.01q.1-.14-.04-.25-1.98-1.7-3.25-3.69-1.26-1.98-1.77-4.38-.52-2.42-2.23-4.3-4.46-4.9-6.87-8.06-.41-.54.26-.62.38-.05.53.31.21.53.64.15.3-.28.14-.58-.71-1.32-1.32-2.7a1.66 1.64-85.6 0 0-.62-.73c-2.51-1.61-5.35-2.54-7.39-4.8q-2.09-2.33-3.89-4.66-.13-.16-.01-.33l.22-.3q.21-.28.44-.02 2.17 2.47 4.26 4.94c1.17 1.38 2.65 1.79 4.08 2.76q1.53 1.04.35-.39c-1.03-1.24-2.21-2.16-2.86-3.71-1.14-2.74-1.93-6.21-3.94-8.39q-3.55-3.87-6.66-7.74c-.83-1.03-1.85-1.98-3.25-2.04q-6.58-.28-12.79-4.83a.24.24 0 0 1-.03-.37l.22-.22q.15-.16.35-.06 2.61 1.4 5.25 2.88c1.66.92 3.56 1.08 5.43 1.36q1.13.16.1-.34c-1.8-.89-3.67-1.77-4.97-3.38-1.59-1.98-3.17-4.19-5.39-5.49-2.15-1.27-4.78-2.26-6.41-4.1q-2.09-2.35-4.14-4.85a.34.34 0 0 1 .06-.49l.23-.17q.18-.13.34.03 2 2.03 3.72 4.28c1.31 1.74 3.15 2.47 4.97 3.49q.96.53.24-.3-1.34-1.53-2.71-2.86-.17-.16-.01-.32l.34-.38q.23-.24.46.01 4.38 4.77 8.45 9.82 1.67 2.07 3.93 3.18 2.7 1.33 5.3 2.88.46.28.98.34l1.34.17a.01.01 0 0 0 0-.02l-.74-.27q-.47-.17-.63-.64c-.63-1.82-3.41-3.04-5.05-3.83-2.95-1.41-5.32-4.69-7.32-7.19a.36.35 51.3 0 1 .05-.5l.25-.22q.12-.11.24.01 2.13 2.16 4.07 4.67c1.12 1.45 2.8 2.18 4.37 2.99q1.69.87.3-.43-1.24-1.14-2.16-2.46c-2.04-2.92-2.06-6.7-4.56-9.47q-1.29-1.44-2.53-2.89c-2.09-2.46-2.62-5.57-3.92-8.45q-.2-.44-.6-.69-1.92-1.26-4.03-2.28c-3.1-1.51-5.21-4.68-7.32-7.22q-.19-.23.05-.43l.23-.2q.2-.16.38.03 2.16 2.27 4.02 4.67c1.12 1.43 2.81 2.04 4.31 2.98q1.42.9.34-.39c-1.06-1.26-2.34-2.39-2.97-3.93q-.91-2.23-1.72-4.61c-.78-2.26-2.46-4.04-4.06-5.75-2.37-2.55-3.48-6.29-4.48-9.57q-.08-.26.17-.35l.35-.13q.24-.08.33.15 1.08 2.89 2.15 5.83c.66 1.79 2.08 3.13 3.24 4.62q.11.14.26.06.05-.03.08-.07.12-.14.03-.3-.98-1.71-1.39-3.83-.03-.15.09-.25l.27-.21q.26-.2.38.1 2.36 5.97 4.67 12.63c1.29 3.71 5.2 6.88 7.59 10.08q2.14 2.86.83-.46c-.45-1.14-.63-2.08-1.43-3.05-1.91-2.31-4.02-4.21-5.24-7.08q-1.19-2.77-2.02-5.7-.08-.26.18-.35l.25-.08a.38.37-18.2 0 1 .46.23q1.05 2.9 2.15 5.84c.64 1.71 1.97 2.98 3.13 4.36q.06.07.15.09.18.03.28-.08.09-.09.03-.2-1.03-1.72-1.55-3.85a.35.35 0 0 1 .39-.43l.33.05q.16.02.21.17l7.74 20.89a7.01 6.96-77.1 0 0 1.49 2.39q1.65 1.76 3.03 3.54c1.45 1.86 3.21 2.88 5.27 3.81q1.5.67.24-.37c-2.64-2.19-3.69-4.84-4.69-7.96-1-3.17-3.43-5.56-5.62-8.09q-1.21-1.4-3.15-7.94-.06-.22.15-.3l.27-.09q.33-.12.44.2c1.38 3.91 2.34 7.23 5.41 10.35q.65.67.3-.19l-1.5-3.71q-.2-.5.32-.6l.3-.05q.18-.04.25.14 2.4 5.96 4.59 12.27.86 2.47 2.8 4.54 3.09 3.3 5.84 6.9.65.85.38-.18c-.81-3.04-2.55-5.42-4.8-7.76-2.4-2.49-3.34-6.1-4.45-9.32q-.14-.42.3-.51l.28-.06q.2-.04.28.15 1.14 2.97 2.2 5.87c.64 1.78 2.07 3.06 3.18 4.57q.14.19.34.06v-.01q.19-.12.08-.31-1.01-1.8-1.45-3.84-.04-.16.09-.25l.25-.17a.34.34 0 0 1 .51.16q3.77 9.92 7.55 20.42.69 1.91 2.15 3.44 1.74 1.81 3.39 3.83c1.18 1.43 2.87 1.92 4.27 3.05q.23.18.41-.04l.16-.19q.05-.06-.01-.11-2.88-2.57-3.49-4.34c-1.01-2.93-1.81-6.28-4.14-8.55q-4.41-4.3-5.92-11.33a.25.24 76.9 0 1 .17-.28l.27-.07q.26-.08.36.19 1.12 3.04 2.23 5.97c.62 1.64 1.96 2.87 3.06 4.21q.1.12.25.07.05-.02.08-.05.15-.17.05-.35-.95-1.71-1.42-3.53-.05-.18.11-.29l.29-.19q.3-.21.44.13 2.43 6.09 4.57 12.31.81 2.37 2.6 4.32 2.4 2.63 4.72 5.28.81.93.34 1.93-.22.46-.07.95 1.04 3.6 3.9 6.33.5.48.3-.18-1.08-3.71-3.49-6.2-.35-.37-.18-.85.05-.15.2-.24.52-.32.36-.91c-.72-2.7-2.25-4.69-4.21-6.67-2.55-2.56-3.61-6.43-4.7-9.69q-.09-.27.18-.39l.22-.11a.38.38 0 0 1 .51.21c1.43 3.89 2.19 7.19 5.44 10.28q.43.42.21-.14l-1.45-3.7q-.13-.34.2-.49l.32-.15a.31.31 0 0 1 .42.17q3.74 9.9 7.63 20.63c.99 2.71 3.51 4.56 5.24 6.86 1.21 1.62 3.29 2.25 4.91 3.38q.1.07.2 0 .14-.1.11-.23-.01-.07-.06-.12c-1.47-1.4-2.97-2.77-3.7-4.74-1.05-2.87-1.71-5.64-3.78-7.97-1.49-1.68-3.21-3.33-4.07-5.43q-1.31-3.2-2.22-6.13-.08-.25.17-.33l.26-.08q.33-.11.46.21 1.14 2.81 2.14 5.76c.65 1.91 2.11 2.95 3.14 4.59a.15.14-33.2 0 0 .21.04l.21-.16a.26.25-36 0 0 .06-.35q-1.18-1.66-1.37-3.66-.01-.19.16-.24l.36-.11q.41-.13.44.3.09 1.87 1.69 2.15.48.09.8.46c2.33 2.71 3.93 5.22 7.4 6.64q1.52.62.14-.28-1.3-.84-2.05-2.72-.14-.36.23-.48.19-.06.39.12a.47.47 0 0 0 .76-.48q-1.01-3.81-2.45-7.4c-.84-2.09-.57-4.46-.55-6.7q.01-.67-.53-1.06-3.99-2.9-6.89-7.44-.03-.04.01-.06l.23-.17a.42.42 0 0 1 .55.06l5.95 6.61q.05.05.11.01l.21-.18a.49.48 49.4 0 0 .05-.7q-2.26-2.6-4-4.87-1.78-2.33-2.82-6.45-.67-2.65-1.86-5.13-1.36-2.83-2.17-5.83-.08-.3.21-.4l.31-.11q.29-.1.38.19c.99 3.11 2.01 6.8 4.33 9.1q.37.36.18.84-.05.15-.19.24-.35.23-.27.63 1.05 4.77 4.06 8.12 1.35 1.49.51-.34c-1.28-2.78-1.34-4.81-3.66-7.17q-.46-.46-.21-1.07.09-.23.27-.4.39-.38.18-.89l-.94-2.32q-.18-.46.19-.79.15-.12.34-.07.2.06.3.25.96 1.94 1.39 4.01.66 3.28.97-.05.26-2.74-1.07-5.8-1.69-3.87-2.9-7.83c-.51-1.66-1.16-2.97-2.81-3.79-2.27-1.12-4.75-2.32-6.4-4.28q-1.88-2.24-3.67-4.35-.29-.35.05-.64l.21-.18q.1-.09.2.01 2.09 2.14 4.1 4.69c1.23 1.54 2.93 2.19 4.52 3.26q.92.62.31-.3c-.95-1.43-2.31-2.46-2.99-4.06q-.92-2.14-1.67-4.4c-.81-2.46-2.61-4.46-4.37-6.3-2.36-2.47-3.11-6.1-4.32-9.22q-.13-.35.22-.48l.3-.11q.21-.08.29.12 1.11 2.58 2.02 5.38c.6 1.82 1.76 3.26 3.09 4.54q1.42 1.37.43-.33-.97-1.69-.98-2.58-.03-2.56.93-.19 2.22 5.49 4.1 11.08c1.33 3.99 4.69 6.77 7.19 9.91q.58.72.57-.2-.02-2.29-1.67-3.85-4.54-4.27-5.99-11.39-.08-.36.26-.49.13-.04.27.01.06.02.09.08c1.59 3.76 2.12 7.2 5.4 10.3q.72.68.33-.23c-.57-1.31-1.24-2.68-1.36-4.11q-.25-2.87-.15-5.79c.12-3.86-2.55-6.84-2.74-10.62-.14-2.84.9-6.3-1.69-8.36q-3.97-3.15-6.94-7.38-.17-.24.06-.42l.2-.17q.24-.19.44.05l1.89 2.25q.08.1.2.08.16-.01.22-.15.04-.1-.01-.19-1.3-2.76-2.13-5.58-.11-.35.26-.36h.35q.19 0 .26.16c1.77 4.12 2.24 7.97 6.36 10.62q.09.06.16-.03v-.01q.14-.19-.07-.3c-.6-.28-1.05-.74-1.31-1.36-1.44-3.53-1.98-7.3-4.64-10.29q-3.72-4.18-7.08-8.24a3.29 3.25-15.1 0 0-2.03-1.15c-2.64-.4-5.6-.5-7.95-1.79q-2.63-1.43-5.21-2.9-.32-.19-.14-.51l.14-.23a.33.33 0 0 1 .45-.13c3.29 1.8 6.44 4.18 10.4 4.1q.79-.02.09-.39c-1.39-.72-2.95-1.31-4.03-2.48-1.85-2.01-3.48-4.65-5.87-6.06-2.68-1.58-5.39-2.66-7.43-5.1q-1.73-2.08-3.44-4.19-.11-.15.03-.27l.23-.19q.27-.24.52.03 2.03 2.18 3.89 4.48c1.34 1.66 3.4 2.45 5.14 3.63q.02 0 .02-.01l.15-.21q.06-.07-.01-.14-1.58-1.63-2.86-3.16-.34-.41.1-.73l.24-.17q.05-.04.09.01 4.34 4.73 8.5 9.84c2.59 3.18 6.7 4.61 10.13 6.66q.3.18.56-.05.24-.21.02-.42-.59-.58-.96-1.29a1.89 1.84 3.6 0 0-.67-.74c-2.43-1.53-5.3-2.6-7.18-4.68q-2.13-2.36-4-4.76-.15-.2.04-.36l.28-.22q.17-.14.32.02 1.99 1.99 3.7 4.22c1.25 1.64 3.08 2.6 4.87 3.5q1.05.53.24-.34c-2.48-2.66-3.42-4.57-4.49-8.03-.91-2.96-3.41-5.39-5.45-7.72q-1.57-1.8-2.66-6.37zm4.464 8.147a4.1.68 58.8 0 0-1.542-3.86 4.1.68 58.8 0 0-2.706-3.154 4.1.68 58.8 0 0 1.542 3.86 4.1.68 58.8 0 0 2.706 3.154M125.12 1.68q.69.79.96 1.83a.14.14 0 0 0 .17.11l.25-.05q.44-.1.19-.47-.7-1.03-1.14-2.13-.02-.06-.08-.03l-.23.11q-.46.24-.12.63m.45 2.68q-.64 4.56.22 6.31 2.35 4.82 7.64 7.08 1.11.47.22-.35c-1.38-1.28-2.86-2.73-3.49-4.54-.74-2.12-1.52-5.13-2.94-6.84q-.69-.84-1.17-1.74-.37-.7-.48.08m10.81 1.86v-.1q.06 0 .06.06-.33 4.03.26 5.59 4.08 10.71 8.67 23.35.87 2.4 1.06-.15c.17-2.28-1.05-5.01-1.93-7.14-1.17-2.8-.87-5.84-.83-8.83a3.58 3.57-66.2 0 0-.96-2.49c-1.8-1.96-4.01-4.16-4.88-6.75q-.59-1.75-1.43-3.44-.02-.05-.02-.1m6.96 46.21q-.05.76.23 1.57.24.7.58.04.27-.53.12-1.11c-.45-1.78-.53-3.45-1.82-4.94-1.67-1.92-3.62-3.81-4.51-6.21q-1.09-2.92-2.07-5.64a.3.3 0 0 1 .29-.4h.56q.14 0 .18.15 1.66 6.57 5.27 10.34 1.04 1.08.36-.26-1.71-3.39-1.6-5.91c.12-2.93.23-5.83-.91-8.62q-1.96-4.77-3.54-9.6c-.74-2.23-4.23-3.64-6.2-4.69-1.92-1.02-2.9-2.75-4.36-4.27q-.85-.89-.43.26l20.49 55.3q.51 1.36.54-.09c.04-2.02-.1-4.05-.93-5.91q-2.16-4.84-3.4-9.77a.34.34 0 0 1 .24-.41l.53-.14q.4-.12.38.31m-14.89-19.38q.17-.03.32-.1.47-.22.09-.57-.55-.51-.8-1.22-1.37-3.83-2.81-7.82a3.15 3.14-85.4 0 0-1.42-1.67l-4.62-2.58c-1.95-1.08-3.16-2.93-4.47-4.68q-.06-.08-.14-.12-.14-.06-.29-.05a.22.22 0 0 0-.16.32c.82 1.56 1 3.28 2.18 4.65q5.62 6.49 11.34 13.12.28.33.23.76l-.1.94q-.06.56.35.17.39-.39.17-.9-.09-.2.13-.25m10.62-11.03q0 .37.24.64a.24.24 0 0 0 .42-.19q-.05-.37-.3-.61a.21.21 0 0 0-.36.16m-10.98 2q-.05.39.22.65a.24.24 0 0 0 .41-.19q-.02-.38-.32-.59a.2.19 21.9 0 0-.31.13m13 4.8q.1-2.5-1.25-4.18-.65-.81-.64.24.03 2.2 1.73 4 .15.15.16-.06m-11.034 2.026a2.44.6 68.2 0 0-.349-2.489 2.44.6 68.2 0 0-1.463-2.043 2.44.6 68.2 0 0 .349 2.489 2.44.6 68.2 0 0 1.463 2.043m-7.486-2.686q.02.06.07.09.1.06.04-.04-.02-.04-.05-.08-.16-.3-.06.03m-1 1.39q.03.11.16.11.2-.01.14-.2-.03-.08-.11-.11-.3-.1-.19.2m20.58.62q.52.5.52.06-.01-.13-.08-.22-.12-.17-.33-.15a.18.18 0 0 0-.11.31m-16.168 3.145a2.2.59 48 0 0-1.034-2.03 2.2.59 48 0 0-1.91-1.24 2.2.59 48 0 0 1.034 2.03 2.2.59 48 0 0 1.91 1.24m5.188-1.035q-.07.25.2.3a.25.25 0 0 0 .28-.32q-.27-.79-.48.02m14.98 21.02a.13.13 0 0 0 .26-.03q.1-1.46.03-2.95c-.2-4.04-2.95-7.12-2.8-11.29.07-1.83.4-5.5-.9-6.71q-.7-.65-.73.3-.09 3.13-.17 6.4-.08 2.81 1.07 5.45 1.75 4.03 3.24 8.83M132.7 38.03q.12.23.32.36.42.29.28-.2-.55-1.8-1.32-3.49-.7-1.52-.97.13-.24 1.55 1.21 2.63.3.23.48.57m14.25-.71a1.3 1.28 18.4 0 1 .53 1.04q-.08 9.93-.03 19.64 0 .3.28.46.46.27.66.76 2.27 5.71 4.15 11.3c1.33 3.93 4.63 6.61 7.11 9.75q.56.71.58-.19.04-2.17-1.4-3.53-4.8-4.53-6.29-11.76-.05-.26.21-.35l.24-.08q.25-.08.34.17c1.37 3.93 2.23 7.33 5.25 10.21q.79.75.35-.25c-.64-1.47-1.32-2.89-1.41-4.51q-.16-2.73-.09-5.37c.12-4.06-2.8-7.25-2.76-11.34.02-2.18.58-5.58-1.15-7.24q-4.32-4.13-6.03-9.98-.15-.5-.64-.34-.51.17-.43.72.09.57.53.89m-18.88-.82c.79.73 1.16 2.55 1.4 3.62q.22.97.49.01.66-2.4-1.11-4.01-.31-.27-.68-.14-.48.18-.1.52m17.36 1.55q-.19-.43-.31-.86-.27-.96-.4.03-.55 4.26 1.44 7.65.34.59.37-.09.13-3.87-1.1-6.73m-13.34 2.85q.26-.61.14-1.23t-.48-.1c-1.86 2.74-.3 5.93 1.68 8.14q.09.09.2.13.16.05.29-.07.32-.26.16-.64l-1.99-4.86q-.28-.68 0-1.37m2.18-.89q.05-.14-.11-.23-.18-.08-.22.1-.07.3.14.49a.14.14 0 0 0 .23-.05q.02-.05-.01-.09-.08-.11-.03-.22m-.63 1.53c.11 2.14.94 3.48 2.69 4.94q.66.54.29-.23-.26-.56-.75-.91-.39-.29-.43-.78-.11-1.73-1.28-3.21-.57-.73-.52.19m.93 7.28q.15-.03.25-.15.16-.19-.05-.33-.11-.07-.24-.14-.14-.07-.22.06l-.78 1.31q-.29.49.2.21.45-.25.6-.75.06-.18.24-.21m3.525 4.027a2.27.62 70.3 0 0-.181-2.346 2.27.62 70.3 0 0-1.35-1.928 2.27.62 70.3 0 0 .182 2.346 2.27.62 70.3 0 0 1.35 1.928m-4.205-1.997q-.14 1.76.81 2.73.57.59.69-.22.19-1.3-1.19-2.63-.28-.27-.31.12m5.16 2.93q-.06.49.25.82.29.31.37-.1.11-.5-.22-.85a.23.23 0 0 0-.4.13m-2.58 3.13c-.04 3.64-.68 8.42.71 11.84q1.04 2.54 1.9 4.86c.65 1.78 2.23 3.05 3.21 4.7q.03.06.09.02l.21-.14a.26.25 58.6 0 0 .08-.34q-1.9-3.26-1.75-7.02c.11-2.65.18-4.95-.83-7.46q-1.77-4.41-3.35-8.82a.61.61 0 0 0-1.04-.18q-.43.53.28 1.28.5.53.49 1.26m11.67 6.21.25-.24a.56.56 0 0 0 .13-.61q-.65-1.5-1.76-2.69-.35-.38-.35-.91-.01-2.16-.71-4.18a.47.47 0 0 0-.65-.27q-.35.17-.36.57c-.05 2.03.49 4.11 1.87 5.6q.72.77 1.27 1.65.27.42.11.89-.73 2.16-.62 5.03.08 2.09 1.29 3.69 2.86 3.81 6.49 5.54.98.47.28-.37c-1.32-1.59-2.73-3.01-3.43-5.07q-.75-2.19-1.55-4.32c-.58-1.51-1.92-2.46-2.36-3.92q-.07-.23.1-.39m-12.79-.038a4.25.67 79 0 0-.152-4.3 4.25.67 79 0 0-1.469-4.044 4.25.67 79 0 0 .153 4.3 4.25.67 79 0 0 1.469 4.044m5.709-2.614a2.52.59 66.9 0 0-.446-2.55 2.52.59 66.9 0 0-1.532-2.086 2.52.59 66.9 0 0 .446 2.55 2.52.59 66.9 0 0 1.532 2.086m-.659 1.282q-.06.17.11.23.19.08.29-.11.11-.21-.12-.27-.2-.05-.28.15m1.71.15q0 .22.17.33.37.26.36-.19 0-.21-.17-.33a.23.23 0 0 0-.36.19m3.97 22.66q.11.31-.04.58-.27.45.2.21.23-.12.24-.35c.25-4.14-.91-6.61-2.24-10.33-1.03-2.9-.38-6.13-.76-9.14q-.12-.93-.82-1.53-.67-.57-.68.31c-.04 3.86-.62 8.15.86 11.76q1.66 4.04 3.24 8.49m22.36 11.07q-.08.95.63 1.4.41.27.41.76-.04 9.18 0 18.3.01.38-.09.76-.15.59.35.98.46.35.67.89 2.26 5.82 4.26 11.62c1.27 3.7 4.77 6.5 7.11 9.59q.51.67.46-.17l-.11-1.5a2.37 2.36 19.8 0 0-.74-1.57q-5.15-4.89-6.81-12.26-.08-.34.27-.35l.34-.01q.19 0 .25.18 1.06 3.01 2.17 5.9c.67 1.74 1.99 2.83 3.06 4.28q.09.12.23.07.13-.05.19-.25.02-.1-.02-.19c-1.79-3.38-1.81-6.17-1.63-9.89.12-2.37-.96-4.73-1.84-6.88-1.2-2.93-.97-6.28-.85-9.33q.02-.51-.26-.93c-1.65-2.52-4.3-4.64-5.38-7.37q-.73-1.83-1.62-3.74-.22-.48-.63-.81-.64-.51-.48-1.41.11-.61-.05-1.2c-.89-3.16-2.72-6.31-2.66-9.61q.04-2.4.03-4.82 0-.66-.4-1.18-1.58-2.07-3.48-4.21c-1.64-1.83-2.24-4.14-3.09-6.39q-.44-1.18-.42.08c.05 1.94 0 3.73.68 5.56q4.36 11.64 8.75 23.61.06.16.22.14.12-.02.2-.14.32-.48.28.09m-22.015-18.542a4.3.64 78.8 0 0-.207-4.342 4.3.64 78.8 0 0-1.463-4.094 4.3.64 78.8 0 0 .207 4.342 4.3.64 78.8 0 0 1.463 4.094m-9.735-6.978q-.36-1-.34.07c.03 1.95-.12 3.77.6 5.69q4.62 12.33 9.16 24.69.35.96.37-.06c.04-2.18.02-4.04-.81-6.15-.89-2.28-2.06-4.74-2.02-7.18q.03-2.68 0-5.21a1.74 1.68 28.2 0 0-.32-.99q-1.44-2.06-3.29-4.01c-1.87-1.97-2.46-4.42-3.35-6.85m22.5 50.1q2.28 5.75 4.42 11.97c1.33 3.85 4.77 6.59 7.15 9.71q.48.63.44-.16l-.06-1.43a2.34 2.32-69.9 0 0-.74-1.61q-5.12-4.83-6.84-12.21-.06-.26.2-.34l.33-.09q.22-.06.3.15 1.07 2.85 2.11 5.73c.64 1.81 2.06 3.03 3.2 4.51q.07.1.19.06.05-.02.08-.07.13-.18.03-.37-1.04-2.09-1.54-4.27-.46-2-.05-4.48.4-2.4-.52-4.62-2.01-4.86-3.68-10.02-.12-.35.18-.58.17-.12.4-.12.64-.01.6.63-.02.19.04.39.08.29.36.38.34.11.43-.44.05-.33-.02-.66-.27-1.3-.53-2.48c-.46-2.01-2.51-3.77-3.84-5.34-2-2.34-2.86-5.81-3.86-8.62q-.16-.45.29-.61l.28-.1q.06-.03.09.04 1.3 2.94 2.34 5.96c.64 1.87 2.06 3.23 3.36 4.71q.05.05.11.08.14.05.24-.12.05-.1-.01-.19c-1.91-3.36-1.74-6.48-1.7-10.18q.02-2.26-.83-4.26-1.93-4.52-3.49-9.46-.7-2.22-2.82-3.12-5.01-2.12-7.89-6.3-.52-.77-.52.16l.02 34.49q0 .57.51.81l.52.25a1.19 1.16-88.3 0 1 .59.64q3.71 9.79 7.26 19.69.77 2.15 2.21 3.6 1.69 1.71 3.08 3.53c1.29 1.68 3.34 2.4 5.1 3.48q.06.03.12.01.05-.02.09-.07.1-.16-.04-.29c-1.5-1.39-2.95-2.74-3.67-4.73-.9-2.45-1.59-5.24-3.29-7.3-1.83-2.23-3.9-4.08-4.91-6.87q-1-2.76-1.92-5.31-.11-.32.22-.37l.44-.07q.16-.03.23.13 1.16 2.87 2.12 5.74c.65 1.95 2.19 3.18 3.36 4.78q.08.11.22.08.05-.01.09-.05.15-.14.06-.32-.9-1.77-1.51-3.67-.11-.33.21-.46l.3-.11q.26-.1.36.16M88.02 76.58q-1.2-1.32-.64.37 1.12 3.35 3.89 6.21.59.61.34-.2-1.11-3.65-3.59-6.38m73.21 5.77a.14.13 51 0 0 .24.03q.36-.58-.08-1.1-.3-.37-.32.11-.01.51.16.96m1.757 5.64a2.39.61 66.4 0 0-.398-2.434 2.39.61 66.4 0 0-1.516-1.946 2.39.61 66.4 0 0 .398 2.434 2.39.61 66.4 0 0 1.516 1.946M144.62 85.4q-.2 4.25 1.67 7.28.45.73.36-.12l-.65-5.89a.92.87 14.4 0 0-.42-.67q-.38-.25-.48-.65-.41-1.52-.48.05m-5.05.25q-.03-.15-.13-.26-.44-.5-.35.16.02.14.1.26.57.88.38-.16m1.44 6.368a2.38.61 66.2 0 0-.402-2.424 2.38.61 66.2 0 0-1.518-1.932 2.38.61 66.2 0 0 .402 2.424 2.38.61 66.2 0 0 1.518 1.932m-27.18 22.012q0 .39-.22.73-.3.46-.14.98 1.1 3.53 3.86 6.09.46.44.29-.18-1.03-3.68-3.23-5.81-.41-.4-.18-.92l.27-.65q.2-.47.05-.96-.87-2.79-1.84-3.81c-3.74-3.93-5.32-6.58-6.67-11.29a2.35 2.34-81.4 0 0-.94-1.28q-2.57-1.71-5.45-3.22-2.28-1.2-4.3-4.93-.03-.06-.09-.03l-.23.1q-.23.1-.14.33c.72 1.89 1.16 3.66 2.52 5.24q8.07 9.34 16.11 18.7.33.39.33.91m50.72-24.21q.02.02.02-.25a.09.08 58.8 0 0-.16-.04q-.08.14.06.23.04.02.08.06m3.56 23.35q-.11.23.09.13.15-.08.17-.25.39-2.4-.08-4.5c-.7-3.16-2.66-6.37-2.63-9.72.01-1.93.47-5.12-.65-6.72q-.99-1.4-1.03.32c-.08 4.02-.53 8.11 1.1 11.9q1.76 4.11 3.05 8.48.06.18-.02.36M142.6 93.66q-.01-.14-.15-.21a.07.06-65.3 0 0-.09.04q-.09.23.12.27.13.03.12-.1m.52 8.84q1.35-3.43-.13-6.46-.74-1.51-.93.16-.46 4.11.05 8.02.61 4.69 3.83 8.88.11.14.28.12.16-.01.23-.13.1-.18.03-.39l-3.36-8.94q-.24-.63 0-1.26m23.64-5.48q-.5 4.15 1.56 7.63.28.47.29-.07.09-4.19-1.37-7.63-.37-.87-.48.07m-58.82 3.15q.88 4.13 4.06 7.03.57.52.29-.2-1.32-3.46-3.26-6.28-.25-.36-.68-.37-.27-.01-.41-.18.14-.29-.12-.59a.22.21 16.1 0 0-.37.2q.05.17.49.39m38.51 6.54q.13-2.87-1.39-5.8-.39-.75-.4.09c-.09 4.85 1.39 6.3 3.37 9.85q2.24 4.03.7-.31-.58-1.62-1.9-2.89a1.26 1.24 23.6 0 1-.38-.94m-43.73-2.21q.08.02.15.04-.07-.02-.15-.04m3.88 3.11q-.6-1.51-2.12-2.59-.64-.47-.49.31.57 2.86 3.48 2.79.99-.02.04-.29-.26-.07-.52-.02a.34.33 71.9 0 1-.39-.2m1.87 1.55a.11.11 0 0 0 .21.01q.06-.18-.07-.31-.34-.35-.14.3m-.83 1.44q.08.06.17.01.19-.09.03-.23-.1-.08-.2-.01-.15.11 0 .23m12.7 18.43q-.42-1.18-.93-2.43c-.85-2.08-2.8-4.06-4.29-5.71-2.13-2.35-2.54-5.38-3.85-8.12q-.55-1.15-1.75-1.81-.84-.46-.49.43c1.43 3.69 2.26 7.97 5 10.91q2.93 3.14 5.92 6.94.84 1.06.39-.21m30.83-9.16q.81-.79.4-1.83-1.26-3.23-3.36-5.1-1.53-1.37-.84.56.16.43.25.88.11.51.44.91l2.56 3a1.03 1.02 24.9 0 1 .25.67q0 .42-.19.79-.24.48-.09 1 1.06 3.63 3.92 6.36.48.45.3-.18-1.13-3.9-3.63-6.33a.52.5 45 0 1-.01-.73m-20.42 17.83q1.83 1.81 3.85 4.37c1.38 1.74 3.22 2.48 5.04 3.57q.1.05.19-.01.05-.02.05-.08.04-.25-.15-.42c-2.69-2.42-3.77-5.05-4.76-8.34-.88-2.89-3.18-4.82-5.02-7.12-1.9-2.38-2.41-5.46-3.73-8.12q-.23-.48-.69-.75c-2.44-1.45-5.36-2.62-7.3-4.8q-1.32-1.49-2.58-3.09-.03-.04-.08-.04-.18-.02-.24.11-.12.24.06.43.09.09.18.17.16.15.24.36 3.55 9.49 7.06 19.12c.38 1.05 1.52 1.19 2.25 2.05q3.58 4.17 7.16 8.49c2.5 3.02 6.05 4.28 9.4 6.17q2.4 1.36.7-.82c-2.07-2.66-5.64-3.23-8.02-5.7q-2.52-2.61-4.18-5.08a.37.37 0 0 1 .57-.47m39.65-15.11.28-.27q.1-.09.03-.22l-1.97-3.6q-.23-.42-.27-.91-.15-1.84-.8-3.52-.63-1.64-.85.1c-.24 1.83.24 3.94 1.54 5.27q1.33 1.37 1.64 3.02.08.44.4.13m-24.77-7.98q-.02.06 0 .12.09.2.21.02.16-.22.07-.48-.05-.18-.21-.08-.14.08-.08.22.05.1.01.2m-.95 1.41v.13q.04.53.11 0 .01-.07-.02-.14-.08-.17-.09.01m1.59.89q1.25.55 1.22 1.85-.13 5.95-.01 12.08a2.04 2.01 24.7 0 0 .49 1.29q2.98 3.48 6.31 7.51c2.61 3.16 6.66 4.53 10.06 6.61q.34.21.63-.08.13-.13.04-.3-.71-1.24-1.67-1.99c-2.24-1.75-5.14-2.53-7.09-4.73q-2.1-2.38-4.02-4.7-.23-.27.05-.5l.2-.15q.27-.23.51.04 2.05 2.39 4.03 4.65c1.37 1.57 3.09 2.17 4.72 3.34q.12.09.17-.05.09-.25-.16-.58-.1-.13-.22-.24c-2.44-2.24-3.54-4.74-4.43-7.82-1.15-4-4.7-5.95-6.44-9.58-1.12-2.32-1.36-5.89-4.02-7.07q-.17-.08-.26.08l-.14.23q-.04.07.03.11m.023 7.487a3.66.73 79.4 0 0 .044-3.731 3.66.73 79.4 0 0-1.39-3.463 3.66.73 79.4 0 0-.044 3.731 3.66.73 79.4 0 0 1.39 3.463m23.197-.517q-.19 2.18-.06 4.34.1 1.64 1.7 3.62 2.6 3.22 6.28 4.98 1.4.67.27-.4c-1.41-1.33-2.82-2.69-3.48-4.57q-.92-2.61-1.92-5.14c-.47-1.2-1.31-2-2-3.03q-.69-1.04-.79.2m19.53 33.1q-.22-.46-.05-1.04.04-.14-.08-.07h-.01q-.06.02-.02.07.03.04.07.07t.03.08q-.89 4.49 1.48 8.28.36.58.29-.1l-.66-6.16q-.05-.48.09-.95c1.04-3.5-.16-7.03-1.58-10.25-1.2-2.73-.84-5.89-.83-8.78a4.03 4.02-68.2 0 0-1.26-2.95q-4.14-3.89-5.58-9.03-.15-.51-.46-.95-.08-.1-.09.03c-.08 2.46.05 4.67.96 7.07q5.52 14.55 8.57 23.19.28.79-.25 1.54-.35.49-.62-.05m-50.38-28.96c1.56 3.95 2.71 9.51 5.64 12.62q2.32 2.46 4.37 5.09.66.84.55-.23c-.1-1.07-.03-2.02-.86-2.87q-2.02-2.05-3.49-4.19c-2.43-3.54-2.49-7.8-6-11.03q-.1-.1-.24-.12-.16-.02-.31.04-.44.17-.03.4l.25.15q.08.05.12.14m-15.826 7.932a3.44.67 57.2 0 0-1.3-3.255 3.44.67 57.2 0 0-2.427-2.529 3.44.67 57.2 0 0 1.3 3.255 3.44.67 57.2 0 0 2.427 2.529M189.7 188.64q-.8.26-.76-.29.08-1.01-.06 0-.57 3.92 1.43 7.59.33.61.33-.08-.02-2.95-.62-5.61-.11-.52.06-1.02 1.28-3.83-.6-8.14-2.38-5.46-1.7-11.05a2.89 2.88-60.9 0 0-.61-2.16c-1.8-2.25-4.19-4.4-5.19-7.12q-1.01-2.74-1.99-5.48-.11-.31.19-.42l.25-.1q.28-.11.4.17 1.17 2.82 2.15 5.65c.66 1.94 2.22 3.31 3.41 4.94q.13.17.3.06l.01-.01q.19-.13.08-.33-.83-1.48-1.32-3.02c-1.15-3.67.39-7.53-1.16-11.17q-1.96-4.64-3.6-9.79c-.85-2.67-4.2-3.91-6.45-5.13-1.82-.99-2.9-2.71-4.25-4.21q-.91-1.03-.43.26l20.56 55.55a.71.7 70.6 0 1-.43.91m-46.35-56.3q-.16-.1-.11.08 1.2 4.71 4.16 7.58 1 .97.4-.29-1.22-2.54-1.42-4.98a.72.71-76.1 0 0-.32-.54zm28.93 18.31-2.97-8.3a3.03 3 4.9 0 0-1.36-1.6q-2.25-1.26-4.54-2.54c-2.14-1.2-3.39-3.1-4.81-4.96q-.08-.1-.2-.11-.15-.02-.21.22-.04.14.02.27c.8 1.54 1.02 3.27 2.17 4.59q5.76 6.62 11.76 13.66a.51.5 55.3 0 0 .63.12q.19-.11.32-.3.16-.21-.05-.35-.12-.09-.25-.15-.37-.16-.51-.55m-17.99-9.53c-2.09-2.51-3.43-4.47-6.44-5.99a.38.38 0 0 0-.52.47l1.7 4.69a1.09 1.08 10.1 0 0 .33.47q4.27 3.56 8.85 3.98 2.19.19.18-.7c-1.61-.72-2.96-1.56-4.1-2.92m-28.36-3.176a1.46.35 46.2 0 0-.757-1.296 1.46.35 46.2 0 0-1.264-.812 1.46.35 46.2 0 0 .758 1.296 1.46.35 46.2 0 0 1.263.812m24.05 17.776q.32.36.8.35.03 0 .17-.21.17-.23-.03-.44-.63-.68-.84-1.28-1.35-3.83-2.83-7.88a2.93 2.91-85.4 0 0-1.31-1.55c-2.32-1.31-5.43-2.6-7.15-4.71q-1.14-1.4-2.2-2.75-.07-.1-.19-.11-.15-.02-.23.21-.05.14.02.27c.83 1.63 1.03 3.23 2.29 4.69q5.64 6.5 11.5 13.41m-23.96-16.7q-.24-.22-.56-.13a.37.37 0 0 0-.24.49c.78 1.92 1.22 4.87 2.97 6.07q4.34 2.97 8.21 3.29 1.71.14.18-.64c-1.38-.7-2.72-1.27-3.79-2.47q-1.72-1.93-3.44-4.05c-1.02-1.25-2.21-1.57-3.33-2.56m57.01 2q.05.38.33.62a.21.2-70 0 0 .34-.16q0-.39-.27-.66a.24.23-71 0 0-.4.2m-69.981 7.068a4.56.63 39.3 0 0-3.13-3.375 4.56.63 39.3 0 0-3.928-2.401 4.56.63 39.3 0 0 3.13 3.375 4.56.63 39.3 0 0 3.928 2.401m55.741 12.662 1.72 2.03q.93 1.1.42-.24l-2-5.31q-.07-.18.08-.3l.22-.2a.37.37 0 0 1 .58.13c1.71 4.09 2.23 7.74 6.11 10.55q.13.09.23-.03v-.01q.09-.11-.01-.21c-1.96-1.89-2.46-4.92-3.3-7.42q-.74-2.22-2.47-4.14-3.77-4.18-6.78-7.9c-.71-.88-1.98-1.64-3.13-1.67q-5.55-.15-9.96-3.2-.72-.49-.42.33 8.28 22.08 17.41 46.94c.99 2.69 3.54 4.81 5.34 7.06 1.21 1.51 2.96 2.09 4.5 3.2q.09.06.2.06.13 0 .24-.09a.19.19 0 0 0 .01-.29c-1.5-1.46-2.88-2.93-3.64-4.94q-.74-1.98-1.41-3.89c-1.35-3.86-5.13-5.86-6.54-9.57q-1.09-2.84-1.97-5.77-.1-.34.22-.46l.26-.09q.2-.08.27.12 1.15 2.95 2.19 5.89c.65 1.81 2 3.14 3.24 4.57q.15.16.32.03l.2-.16q.03-.02.01-.05-1.51-2.06-1.32-3.88.13-1.31.61-.09 2.3 5.94 4.2 11.36 1.11 3.18 3.01 5.22 2.27 2.45 4.3 4.9.58.71.59-.21.02-2.07-1.62-3.64-4.65-4.46-6.08-11.55-.06-.3.22-.42a.44.43-19.8 0 1 .58.27c1.27 3.82 2.32 7.41 5.3 10.23q.71.66.31-.22c-1.56-3.47-1.67-5.88-1.56-9.65.13-4.27-2.75-7.37-2.76-11.51 0-2.46.72-5.98-1.45-7.68q-4.05-3.19-7.16-7.6-.13-.18.04-.33l.23-.2q.23-.19.42.03m3.23-17.74q.04.41.36.63a.21.2-71.2 0 0 .32-.16q.01-.4-.26-.66a.25.24 19.9 0 0-.42.19m12.87 4.562a2.27.62 69.9 0 0-.198-2.345 2.27.62 69.9 0 0-1.362-1.919 2.27.62 69.9 0 0 .198 2.345 2.27.62 69.9 0 0 1.362 1.919m-10.979 1.975a2.33.62 69.1 0 0-.252-2.398 2.33.62 69.1 0 0-1.41-1.956 2.33.62 69.1 0 0 .252 2.398 2.33.62 69.1 0 0 1.41 1.956M147.49 160.71q.31-.04.41.25c1.37 3.88 2.27 7.7 5.83 10.25q.89.64.24-.25-.11-.15-.27-.23-.43-.2-.62-.65c-1.45-3.42-2.06-7.44-4.57-10.31q-3.9-4.44-7.38-8.55a3.49 3.48 70.4 0 0-2.6-1.24q-5.73-.13-9.76-3.14-.21-.16-.46-.09-.12.04-.21.16-.09.13.01.25 13.4 15.45 24.93 29.05 1.16 1.37 2.54 2.36a1.42 1.35 8.2 0 1 .51.65q.12.3.02.61-.23.75.44.34.34-.21.36-.56.03-.52-.42-.76c-2.54-1.36-1.03-4.3-3.45-6.21q-3.8-3-6.91-7.33a.47.47 0 0 1 .12-.66l.26-.16q.03-.02.14.11l1.98 2.32q.77.89.35-.21l-2.09-5.54q-.14-.38.26-.43zm2.55-13.63q-.01.34.22.56a.3.29 21 0 0 .5-.22q-.02-.34-.26-.55-.44-.37-.46.21m16.61-.16q-.35-.17 0 .52.11.22.21-.01.13-.35-.21-.51m-.82 1.77q.04-.32-.26-.26-.19.03-.03.13.29.19.29.13m20.42.3q-.14.34.11.53.29.21.46-.11.15-.3-.12-.53-.3-.25-.45.11m-16.142 3.424a2.26.59 47.8 0 0-1.08-2.07 2.26.59 47.8 0 0-1.956-1.278 2.26.59 47.8 0 0 1.08 2.07 2.26.59 47.8 0 0 1.956 1.278m-18.068 1.156q.18-2.59-1.49-4.18-.63-.6-.51.26.3 2.06 1.62 4.02.33.51.38-.1m-7.62-2.5q.06.31.33.36a.13.13 0 0 0 .14-.18q-.19-.45-.33-.48-.2-.06-.14.3m30.91.06q-.02.23.11.41a.11.1-40.2 0 0 .16.01q.22-.24.03-.51-.27-.36-.3.09m14.2 21.75q-.89 0-.7-.97.01-.06.08-.07.06-.01.07.05 0 .05-.01.1-.87 4.13 1.29 7.93.37.64.37-.1.01-2.91-.65-5.41-.1-.41.03-.81c1.36-3.93-.09-7.68-1.61-11.3-1-2.38-.74-5.23-.64-7.79.04-.95-.16-1.92-.64-2.75q-.92-1.58-1.03.24c-.24 3.79-.61 8.01.95 11.68q1.83 4.31 3.05 8.44a.59.59 0 0 1-.56.76m-51.42-8.23-6.9-8.1q-.47-.56-1.19-.65-3.22-.4-6.34-1.08c-1.96-.42-3.48-1.58-5.14-2.59q-1.26-.77-.31.35c1.17 1.38 2.2 2.83 3.82 3.71q7.61 4.12 15.73 8.76 1.29.74.33-.4m5.75-12.05q-.05-.18-.24-.19-.2-.01-.04.1.33.24.28.09m28.33.32q.09-.25-.08-.44a.21.2 31.8 0 0-.35.08q-.08.28.12.45.22.19.31-.09m-24.104 3.414a2.25.59 47.3 0 0-1.092-2.054 2.25.59 47.3 0 0-1.96-1.254 2.25.59 47.3 0 0 1.092 2.054 2.25.59 47.3 0 0 1.96 1.254m26.934-2.504c-.28 1.42.83 2.24 1.77 3.26q.66.72.4-.22-.48-1.8-1.18-3.18t-.99.14m-21.66 1.51q.03.04.04.09.03.14.13.03.18-.2-.01-.44-.16-.21-.29.02-.15.25.06.26.05.01.07.04m19.37 1.11.6 2.41q.22.85.49.01.8-2.44-1.01-3.74-.27-.2-.6-.13-.47.12-.14.47l.3.33q.26.28.36.65m-39.32.7q-.24.31.13.18.7-.26 1.01-.98.19-.43-.19-.15-.55.42-.95.95m16.31-.75q-.17.33.1.58.29.27.46-.09.12-.28-.04-.52a.31.3 41.4 0 0-.52.03m4.9 4.49q.1.17.26.31.64.56.39-.26-.63-2.04-1.38-3.43-.52-.99-.86.07-.49 1.52 1.32 3.01.16.13.27.3m23.15 7.25q-.43 0-.25.4.26.58.46-.02.1-.27.32-.44.4-.31.22-.79l-2.34-6.01q-.2-.5-.09-1.03.17-.82.1-1.64-.08-.97-.51-.09-2.17 4.4 2.43 8.77a.49.49 0 0 1-.34.85m-42.36-9.06q.71 1.77 2.2 2.79.92.63.57-.43-.66-2.05-2.86-2.94-.48-.19-.24.27.11.22.33.31m42.63-.32q-.24.2 0 .51.23.3.33-.06.12-.43-.1-.5-.13-.04-.23.05m-27.34 1.62q.41 1.31.78 2.7.22.86.45 0 .71-2.71-1.21-4.03-.18-.12-.39-.11-.15.01-.28.09-.28.19-.03.42t.45.48q.16.21.23.45m28.73 2.59q-.28-1.4-1.26-2.67-.42-.55-.43.14-.02 2.93 2.36 4.75.93.72.31-.28l-.59-.95q-.28-.46-.39-.99m-48.74-.24q.19.13.43.11.58-.05.11-.39-.17-.13-.4-.14-.81-.04-.14.42m24.97 9.49q-.16.08-.09.29.2.56.42.01.13-.32.39-.52.39-.3.19-.76c-1.01-2.3-3.15-6.19-2.18-8.49a.32.31-71.5 0 0-.21-.43l-.3-.07q-.08-.02-.12.05-2.27 4.48 2.11 8.73a.75.73-35.8 0 1-.21 1.19m.39-9.46q.1.62.29.22.13-.28-.16-.34a.11.11 0 0 0-.13.12m-20.566 3.227a2.03.63 29.1 0 0-1.468-1.537 2.03.63 29.1 0 0-2.08-.437 2.03.63 29.1 0 0 1.468 1.537 2.03.63 29.1 0 0 2.08.437m21.986 1.303q-.21-1.59-1.31-2.98-.55-.68-.51.19.1 2.94 2.65 4.86.56.42.26-.21-.23-.49-.61-.87a1.69 1.67-71.2 0 1-.48-.99m-14.28-.25q-.55-1.33-2.05-2.15-.63-.35-.43.35.84 2.93 3.95 2.87.35-.01.03-.16-.21-.1-.44-.12-.76-.08-1.06-.79m-5.36-.29q0 .11.1.06.28-.14.24-.47-.04-.32-.21-.04-.12.2-.13.45m44.301 5.11a2.25.61 70.5 0 0-.176-2.324 2.25.61 70.5 0 0-1.326-1.917 2.25.61 70.5 0 0 .176 2.325 2.25.61 70.5 0 0 1.326 1.917M142.1 170.1q-.59.66-.75-.2-.35-1.92-2.12-2.15-.75-.1-.26.48l2.16 2.54q.31.37.74.14.51-.28.87-.71.63-.73-.27-.36-.22.08-.37.26m37.76 2.34-.26.64q-.18.45.15.8.82.87.79 2.01-.12 4.08-.06 8.3c.04 2.8 1.6 5.4 2.46 8.03.62 1.88 2.14 3.29 3.3 4.86q.08.11.21.1.12-.01.23-.15.07-.09.02-.19c-2.86-4.82-.5-9.56-2.5-14.3q-1.7-4.05-2.96-7.81c-.28-.83-.94-1.52-1.38-2.29q-.4-1.52-1.59-2.55-.66-.57-.43.28l.55 2.09q.21.78.93.43zm-31.39 4.14-5.09-5.77a.12.12 0 0 0-.17-.01l-.03.02a3.79 1.34 48.6 0 0 1.5 3.73l.24.27a3.79 1.34 48.6 0 0 3.51 1.96l.03-.03a.12.12 0 0 0 .01-.17m.73-2.54q.94.1 1.52.95a.09.09 0 0 0 .15-.09c-.34-.65-1.16-1.08-1.85-1.25q-.49-.12-.69-.59-.62-1.44-2.02-2.21-.59-.32-.43.33.66 2.59 3.32 2.86m10.915 1.788a2.28.62 70.4 0 0-.18-2.356 2.28.62 70.4 0 0-1.35-1.94 2.28.62 70.4 0 0 .18 2.356 2.28.62 70.4 0 0 1.35 1.94m22.975-3.098q-.08.43.21.71a.23.23 0 0 0 .39-.16q-.01-.41-.31-.65a.18.18 0 0 0-.29.1m-27.26 1.34q.21 1.38.87 2.7.39.8.66-.05.48-1.53-1.05-2.9-.6-.54-.48.25m22.42.84q-.13-.28-.18-.59-.19-1.12-.31.01-.46 4.26 1.54 7.67.4.67.37-.11-.14-3.44-.84-6.48-.04-.15-.19-.19-.05-.01-.1-.03-.19-.09-.29-.28m4.35.16 1.86 4.2a.15.15 0 0 0 .2.08l.04-.01a2.31 1.05 66.2 0 0 .02-2.54l-.11-.26a2.31 1.05 66.2 0 0-1.89-1.69l-.04.02a.15.15 0 0 0-.08.2m-21.52 1.61q-.15.46.19.87.26.31.35-.08.11-.5-.2-.86a.2.2 0 0 0-.34.07m-7.151 3.353a2.18.61 46.2 0 0-1.069-1.995 2.18.61 46.2 0 0-1.949-1.151 2.18.61 46.2 0 0 1.069 1.995 2.18.61 46.2 0 0 1.949 1.151m4.511-.873q-.46 3.65 2.85 6.55.57.5.8-.21l.15-.43q.11-.33-.23-.26-.2.04-.37-.06-.23-.16-.34-.42-1.15-2.74-1.99-5.57-.15-.52-.54-.9-.34-.33-.52-.79-.17-.4-.46-.08l-.27.31a.31.3-52.1 0 0 .05.45l.36.25q.6.43.51 1.16m-9.81-1.06a.15.15 0 0 0-.24.03q-.07.14-.03.31.06.27.31.19.35-.11-.04-.53m14.387 5.174a2.44.59 66.9 0 0-.414-2.476 2.44.59 66.9 0 0-1.5-2.012 2.44.59 66.9 0 0 .414 2.476 2.44.59 66.9 0 0 1.5 2.012M151.5 181.51q-.43-1.57-1.85-1.71-.69-.07-.27.47l1.7 2.23q.56.73.75-.17.11-.53-.33-.82m34.93-.33q0 .07.04.12.15.23.21-.08.07-.36-.17-.6a.1.1 0 0 0-.17.04q-.06.17.04.32.05.09.05.2m-29.04 10.94q.16-4.71-2.86-8.33-.32-.38-.37-.89l-.04-.48q-.08-.81-.59-.17-.53.66-.22 1.42 1.53 3.77 2.88 7.77c.52 1.52 1.75 2.57 2.65 3.87q.32.46.17 1l-.25.84q-.12.42.03.83c.63 1.67 1.21 3.3 2.42 4.66q2.18 2.44 4.39 4.96.39.44.9.74.61.35.7 1.12.11.88.7.21.23-.27.17-.57-.07-.35-.41-.43-1.55-.38-1.65-2.02-.22-3.27-2.95-5.14c-1.58-1.07-2.62-2.51-3.89-3.89q-.6-.66.23-.97.43-.16.39-.63c-.12-1.19-1.21-2.25-1.58-3.51q-.05-.17-.22-.15l-.28.05q-.34.05-.32-.29m31.67 12.47q-.06-.11-.09-.24-.07-.31-.11.01-.53 3.96 1.52 7.54.42.73.33-.11l-.59-5.95q-.05-.48.07-.95c1.03-3.9-.28-7.1-1.72-10.64-1.06-2.62-.83-5.69-.72-8.47.03-.72-.18-1.43-.53-2.06q-1.15-2.05-1.21.3c-.11 3.85-.51 7.86 1.09 11.55q1.6 3.72 2.88 7.83.1.31-.02.62-.13.35-.41.62t-.49-.05m-30.127-18.757a2.02.35 46 0 0-1.151-1.696 2.02.35 46 0 0-1.655-1.21 2.02.35 46 0 0 1.151 1.696 2.02.35 46 0 0 1.655 1.21m-4.283 4.712a4.14.69 60 0 0-1.472-3.93 4.14.69 60 0 0-2.668-3.24 4.14.69 60 0 0 1.472 3.93 4.14.69 60 0 0 2.668 3.24m9.83-5.845q-.04-.04-.09 0-.12.11-.03.27.08.16.16 0 .07-.15-.04-.27m-4.21 1.84.34-.06zm1.53.93q.07.16.2-.06.38-.64-.28-.33-.06.03-.04.1.01.05.12.29m3.12-.18q-.57-1.22-.83.1-.37 1.9 1.79 3.54.61.46.37-.26-.57-1.74-1.33-3.38m-6.02 1.12a.15.15 0 0 0-.26.03q-.37.87-.01 1.73 1.18 2.81 2.22 5.88c.7 2.07 2.22 3.73 3.97 4.88q.24.17.54.2.41.04.08-.21c-1.33-1-1.97-1.92-2.36-3.55q-1.12-4.78-4.18-8.96m30.3 32.12q-.09-.1-.13-.22-.16-.47-.23.03-.54 4 1.57 7.46.4.66.32-.11l-.67-6.23q-.05-.48.1-.93.78-2.39.31-4.54-.56-2.6-1.83-5.54c-1.22-2.81-.98-5.95-.86-8.85a3.16 3.13-63.8 0 0-.7-2.09q-1.6-1.98-3.33-3.94c-1.7-1.92-2.09-4.32-3.13-6.57q-.38-.81-.34.09c.09 2.07.06 4.06.8 6.02q4.4 11.69 8.93 24.11.32.88-.67 1.34-.08.04-.14-.03m-26.83-28.31q.37 1.09.61-.03.38-1.83-1.02-3.49-.05-.06-.12-.03l-.4.15q-.22.09-.14.32zm4.55 9.34-.04.48q-.07.72.25.08c1.32-2.61-3.12-6.15-1.76-9.55q.09-.21-.1-.34l-.23-.15q-.15-.1-.24.06c-1.7 2.94-.59 5.86 1.63 8.04a1.72 1.7-64.9 0 1 .49 1.38m.25-9.19q.02.07.08.11.19.15.09-.07-.02-.06-.06-.11-.24-.25-.11.07m1.66 6.26.26.54q.13.27.31.03.1-.14.09-.3-.01-.32-.25-.52-.82-.68-.87-1.75c-.06-1.13-.6-1.8-1.26-2.65q-.43-.56-.43.15.01 2.81 1.76 4.04a1.28 1.24-86.3 0 1 .39.46m11.25 19.59.23-.1a.44.44 0 0 1 .59.26q1.26 3.76 2.55 6.64.85 1.91 2.8 3.54.75.63.29-.23c-1.67-3.17-1.64-6.24-1.5-9.65q.09-2.29-.85-4.51-2.03-4.8-3.71-9.97-.49-1.5-1.79-2.11-6.06-2.81-8.98-7.1-.83-1.22-.32.17l20.69 55.92a.7.7 0 0 1-.09.67q-.71.97-.99.55-.2-.3-.1-.64.06-.17-.01-.34-.31-.84-.15.09c.27 1.66-.34 3.23.21 4.78q.59 1.71 1.4 3.28.29.58.3-.07.01-3-.66-5.66-.12-.48.04-.96c1.2-3.46.14-7.18-1.34-10.44-1.35-2.94-.95-6.28-.9-9.39a1.76 1.68-62.2 0 0-.28-.98q-1.37-2.13-3.08-3.85c-2.38-2.38-3.48-6.44-4.47-9.65q-.05-.18.12-.25m-29.2-17.72q-.45-.67-1.1-1.02-.76-.42-.21.25 1.1 1.35 2.23 2.76.14.17.34.12.49-.12.21-.54-.37-.57-.9-.97-.34-.25-.57-.6m5.03.4q-.19.37-.03.69a.32.31-46.7 0 0 .57-.02q.16-.39-.06-.7a.29.28 41 0 0-.48.03m15.151 4.495a2.15.61 70.4 0 0-.146-2.23 2.15.61 70.4 0 0-1.296-1.82 2.15.61 70.4 0 0 .146 2.23 2.15.61 70.4 0 0 1.296 1.82m-16.141-2.335q.25-.16.03-.36-.27-.24-.49.03-.19.21.04.38.18.12.42-.05m4.77-.15q-.23-.05-.04.1t.42.25q.57.25.08-.14-.2-.15-.46-.21m-.57 1.85c-.68-.44-1.7-1.16-2.48-1.33q-.72-.16-.19.35l3.21 3.1q.55.53.53-.23-.04-1.21-1.07-1.89m9.26 2.25q.08.68.64 1.13.43.34.45.88l.07 2.5q.01.51.31.91l2.23 3.06q.45.62.86-.03.18-.3.38-.59.48-.7-.25-.27-.2.12-.38 0-.32-.2-.45-.58-1.49-4.53-2.84-7.15-.37-.72-1.02.14.51-2.31-.96-3.14-.5-.28-.47.29.09 1.86 1.43 2.85m-6.173-1.755a1.02.23 46.1 0 0-.541-.894 1.02.23 46.1 0 0-.873-.576 1.02.23 46.1 0 0 .541.894 1.02.23 46.1 0 0 .873.576m21.313-.285q.18-.55-.23-.91-.3-.26-.3.14 0 .39.19.79.2.44.34-.02m-11.47 1.45q-.09.37.18.68.25.29.29-.09.04-.39-.04-.61-.25-.74-.43.02m-7.096 3.458a2.23.63 46.9 0 0-1.064-2.058 2.23.63 46.9 0 0-1.984-1.198 2.23.63 46.9 0 0 1.064 2.058 2.23.63 46.9 0 0 1.984 1.198m17.956-2.738q.56 2.12 1.53 3.63.4.63.51-.1.34-2.4-1.62-3.82-.62-.46-.42.29m-10.6 1.61a.3.3 0 0 0-.5.31l1.6 3.92a.3.3 0 0 0 .58-.13l-.1-2.18a.3.3 0 0 0-.07-.19zm-9.32 6.251a2.46.59 66.8 0 0-.428-2.493 2.46.59 66.8 0 0-1.511-2.03 2.46.59 66.8 0 0 .427 2.494 2.46.59 66.8 0 0 1.511 2.03m4.86-3.361q.03-.09 0-.17-.07-.22-.15-.01-.03.08-.02.16.03.5.17.02m-4.13.3 4.2 10.66a.14.14 0 0 0 .18.08l.06-.03a5.68 1.41 68.5 0 0-.77-5.8l-.14-.35a5.68 1.41 68.5 0 0-3.39-4.77l-.06.02a.14.14 0 0 0-.08.19m22.69.64q.02.14.09.26.03.03.11-.16.04-.1-.02-.18-.24-.3-.18.08m-18.84.05q-.42-.38-.23.16.55 1.53 1.97 2.57.7.51.27-.24-.81-1.39-2.01-2.49m8.08 2.03q.01-.09-.03-.16-.04-.08-.14-.07l-.15.03q.08.1.15.23.13.22.17-.03m13.38 21.73q-.06-.12-.07-.25-.06-.4-.11 0-.58 4.07 1.55 7.52.41.67.33-.11l-.66-6.12q-.05-.49.11-.96c1.15-3.53-.35-7.19-1.71-10.57-1.02-2.56-.88-5.53-.77-8.22q.06-1.44-.29-2.1-1.4-2.6-1.44.41c-.05 3.55-.43 7.42.91 10.7q1.75 4.3 3.08 8.4a1.26 1.22-42.3 0 1-.06.91q-.15.31-.42.5a.31.31 0 0 1-.45-.11m-24.71-20.16q-.19.2-.01.41.35.41.38-.12.01-.17-.13-.29a.18.18 0 0 0-.24 0m6.74.35q-.75.6-1.21 1.27a.01.01 0 0 0 .02.01q1.08-.52 1.45-1.03.8-1.11-.26-.25m4.72-.08a.2.2 0 0 0-.34-.05c-1.24 1.42.22 3.18 1.32 4.17q.58.53.39-.23-.5-1.98-1.37-3.89m-2.92 1.13q.17-.26.32-.53.46-.89-.26-.2-.26.25-.28.66-.02.44.22.07m-4.4 21.94c.31-3.63-.61-6.32-1.96-9.5-1.13-2.68-.88-5.64-.79-8.56.02-.6-.13-1.41-.41-1.95q-1.38-2.59-1.37.34c0 3.59-.43 7.66 1 10.96q1.86 4.3 3.05 8.76.36 1.33.48-.05m8.76-8.52q-2.41-.9-3.02-3.57-1.25-5.44-3.89-8.35-1.63-1.79-.75.46 1.42 3.66 2.83 7.43.92 2.49 4.53 4.14.3.13.51.36.05.05.09.12.41.86.69-.05.11-.36.19-.74.1-.52-.12-1c-.97-2.09-2.82-5.36-1.91-7.64q.12-.3-.19-.38l-.31-.08q-.11-.03-.16.08-2.09 4.77 2.1 8.42.11.1.15.24.06.29-.16.47-.26.2-.58.09m-3.82-8.63q.19.68.4 0 .76-2.45-.82-3.71-.8-.64-.52.35zm-4.01.55q-.06-.35-.26-.62-.37-.52-.64.05-.31.65.21 1.17 1.04 1.04 1.37 2.36.07.3.38.24l.26-.06q.29-.06.22-.34-.25-1.07-1.01-1.8-.43-.41-.53-1m8.98-.57q.06-.11-.04-.19-.18-.14-.14.08.01.05.03.1.06.18.15.01m-11.43.79q-.04-.08-.05-.16-.01 0 0 0 .06.02.05.08-.95 4.5 1.38 8.53.32.57.33-.08.02-4.6-1.71-8.37m12.62 3.67q-.24-1.71-1.37-3.04-.41-.48-.45.15-.14 2.52 1.74 3.82.48.33.57.96.1.65.32.03.2-.6-.28-.99-.45-.36-.53-.93m-4.91 24.27.34-.14q.36-.15.47.22c1.25 3.88 2.3 7.25 5.32 10.2q.54.53.28-.18c-.48-1.37-1.33-2.67-1.45-4.15q-.26-3.05-.17-6.14c.11-3.95-2.8-7.14-2.73-11.1q.05-2.83-.08-5.9a.37.32 24.9 0 0-.09-.2l-6.98-6.9a.07.07 0 0 0-.12.05q.02 7.86.06 15.92 0 .46-.11.91-.2.75.46 1.14a1.09 1.05 5.9 0 1 .44.52q2.34 5.91 4.32 11.74.9 2.64 2.65 4.49 2.35 2.47 4.46 5.13.54.7.5-.19l-.08-1.49a1.9 1.88 20.4 0 0-.59-1.27q-5.3-4.96-6.99-12.49-.03-.12.09-.17m7.437-16.011a2.15.59 69.1 0 0-.216-2.22 2.15.59 69.1 0 0-1.318-1.798 2.15.59 69.1 0 0 .216 2.22 2.15.59 69.1 0 0 1.318 1.798m-1.367 2.501q-.92-1.38-1.37-2.82-.27-.84-1.1-1.28-.61-.33-.42.34.72 2.44 2.33 4.25.37.42.36.97-.07 3.92-.09 7.8 0 2.41.89 4.56 1.03 2.48 1.89 4.9c.52 1.49 1.69 2.41 2.65 3.65q1.52 1.95.52-.31-.49-1.11-.91-2.32c-1.31-3.75.4-7.56-1.28-11.43q-1.65-3.79-2.85-7.6-.08-.27-.32-.41-.18-.12-.3-.3m2.87-.95a.47.27 60.6 0 0 .005-.542.47.27 60.6 0 0-.466-.277.47.27 60.6 0 0-.004.542.47.27 60.6 0 0 .466.276m-4.245 8.804a4.15.68 79.8 0 0-.066-4.204 4.15.68 79.8 0 0-1.404-3.964 4.15.68 79.8 0 0 .066 4.204 4.15.68 79.8 0 0 1.404 3.964m5.518-2.647a2.25.62 71 0 0-.147-2.329 2.25.62 71 0 0-1.319-1.925 2.25.62 71 0 0 .147 2.329 2.25.62 71 0 0 1.319 1.925m-14.553 6.813q.11-.04.16-.14.23-.46.02-.93-.65-1.44-1.67-2.68-.34-.41-.36-.95-.09-2.19-.73-4.01-.5-1.39-.84.05c-.87 3.62 1.58 4.8 2.93 7.5q.21.43.09.89-.58 2.28-.56 5.08.02 2.01 1.44 3.85 2.79 3.64 6.18 5.22 1.52.7.34-.49c-1.4-1.4-2.83-2.86-3.35-4.85q-1.28-4.81-3.88-7.74-.51-.58.23-.8m15.84-5.37q.05.25.24.38a.31.31 0 0 0 .48-.29q-.04-.45-.46-.43a.28.28 0 0 0-.26.34m2.74 23.64q-.02-.46-.04-.99 0-.08.07-.08.06-.01.06.04t-.01.1q-.95 4.31 1.37 8.42.46.81.37-.11l-.61-6.01q-.05-.5.08-.99c.93-3.47-.06-6.8-1.48-9.98-1.46-3.26-.83-6.28-1.03-9.64q-.08-1.3-.9-2.31-.55-.67-.62.2-.28 3.14-.23 6.76c.06 4.63 2.74 9.13 4.01 13.55q.23.83-.45 1.32-.56.4-.59-.28m.25 15.98q-.21-.22-.19-.51.08-1.02-.09-.01-.68 4.12 1.58 7.99.37.63.29-.1l-.65-6.18q-.05-.51.09-1c1.64-5.81-2.51-9.27-2.45-14.64.02-2.39.66-5.5-1.3-7.36q-3.95-3.73-5.48-8.88-.66-2.25-.59.09c.05 1.86.08 3.52.73 5.26q4.52 12.11 8.75 23.58.31.84-.05 1.66-.24.53-.64.1m1.11 31.55q.22-.21.25-.51.28-2.81-.41-5.12c-.9-3.05-2.53-5.73-2.35-9.03q.13-2.55-.12-4.96-.05-.53-.38-.94c-1.9-2.35-4.12-4.34-5.29-7.23q-1.07-2.64-1.97-5.53-.08-.28.21-.36l.3-.07q.17-.05.25.11 1.06 2.18 1.85 4.7c.68 2.13 1.91 3.82 3.39 5.43q1.56 1.68.47-.33c-2.6-4.8-.33-9.52-2.41-14.37q-1.94-4.52-3.54-9.56-.41-1.3-1.59-1.97-2.49-1.4-4.96-2.86c-1.8-1.05-2.69-2.66-4.05-4.11q-.8-.86-.39.25l20.63 55.71a.64.64 0 0 1-.41.84q-.83.25-.8-.31.06-.83-.06-.01-.61 4.15 1.54 7.74.47.79.35-.12l-.8-6.56q-.06-.49.29-.83m-17.19-37.22q-1.1-1-1.54-2.53-1.07-3.61-2.48-6.93-.23-.53-.72-.82-2.21-1.32-4.51-2.53c-2.27-1.19-3.7-3.18-5.19-5.16q-.08-.12-.22-.12-.15 0-.22.22-.04.14.03.26c.85 1.63 1.09 3.35 2.33 4.77q6.03 6.88 11.71 13.58.2.23.45.05l.32-.23q.37-.26.04-.56m9.97-10.36q-.06.43.3.73.31.27.37-.13.07-.45-.32-.75-.3-.23-.35.15m-.21 2.27q.5 2.21 1.67 4.2.34.58.42-.09.35-2.62-1.76-4.32-.46-.37-.33.21m-10.78-.14q.04.39.29.66a.23.23 0 0 0 .4-.15q-.01-.41-.28-.7a.24.24 0 0 0-.41.19m-.48 2.12 1.92 4.55a.14.14 0 0 0 .18.07l.03-.01a2.44 1.03 67.1 0 0 0-2.65l-.13-.31a2.44 1.03 67.1 0 0-1.9-1.85l-.03.01a.14.14 0 0 0-.07.19m-4.69 1.95q-.08-.28-.29-.47-.64-.54-.28.22.1.22.24.41.56.77.33-.16m-1.05 1.4q-.07-.12-.21-.12-.1 0-.08.09.02.16.17.2.26.06.12-.17m20.54.31q-.32.18-.08.6a.32.32 0 0 0 .56-.03q.09-.17.02-.37a.35.34 66.5 0 0-.5-.2m-16.242 3.555a2.26.59 47.1 0 0-1.106-2.057 2.26.59 47.1 0 0-1.97-1.253 2.26.59 47.1 0 0 1.106 2.057 2.26.59 47.1 0 0 1.97 1.253m5.482-1.195q0-.09-.06-.17-.14-.19-.12.04.01.07.03.13.21.64.15 0m13.62 21.64q-.15-.14-.16-.35-.04-1.16-.21.06-.55 4 1.52 7.64.47.83.36-.12l-.66-6.04q-.05-.48.09-.94c1.73-5.8-2.53-9.38-2.47-14.76q.03-2.48.03-5.03 0-.87-.59-1.5-1.17-1.28-1.16.45c.02 3.44-.5 7.54.79 10.7q1.69 4.11 3.15 8.49.26.77-.25 1.38-.21.25-.44.02m-17.23-20.06q-.03-.16-.2-.1-.23.08-.04.23.33.26.24-.13m1.1.58q-.05-.02-.1-.03-.13-.05-.12.1.02.09.09.15.08.06.07-.04-.05-.27.06-.18m2.88.25q-.63-1.25-.88.12-.33 1.78 1.75 3.45.55.44.37-.25-.48-1.81-1.24-3.32m-3.2 2.92.58 2.41q.21.87.47.01.87-2.97-1.36-3.91-.56-.23-.36.34.11.33.36.58a1.27 1.22-74.8 0 1 .31.57m5.59 10.37-2.23-5.76q-.2-.53-.06-1.08.19-.75.13-1.5-.06-.78-.44-.09c-1.77 3.21-.24 6.22 2.04 8.57q.27.27.28.64 0 .4-.37.58-.17.08-.21.27-.02.05-.01.1.07.56.38.1.62-.93 1.36-1.68a.09.09 0 0 0-.11-.13q-.13.09-.27.16-.35.18-.49-.18m-.03-7.94q.02-.06 0-.12a.07.06-42.6 0 0-.12 0q-.07.13-.03.27.05.26.15-.15m1.21 4.51q-.33-1.7-1.37-3.28-.38-.57-.41.11-.16 3.02 2.52 5.07.44.34.25-.18-.15-.4-.44-.69-.44-.43-.55-1.03m1 4.2q-.3 2.25 1.26 4.05.42.5.46-.15.14-2.4-1.51-3.97-.18-.18-.21.07m-.67 4.88-.32.63q-.24.48.18.81.8.66.79 1.63-.05 3.93-.07 7.93c-.01 3.18 1.64 6.35 2.75 9.28.62 1.64 2.07 2.78 3.03 4.24q.12.18.31.07l.22-.14v-.01q-1.51-2.64-1.67-5.36c-.18-3.26.37-6.21-.98-9.37q-1.59-3.74-2.84-7.44c-.28-.82-.91-1.57-1.4-2.27q-.38-1.59-1.55-2.58-.7-.59-.46.3l.6 2.17q.18.65.82.46.31-.09.59-.35m3.19.33q-.07.42.31.59.46.2.29-.27-.45-1.24-.6-.32m-5.27 2.2q-.49 3.49 1.53 6.96.33.58.32-.1-.04-2.86-.65-5.87c-.18-.91-.83-1.34-1.19-2.19q-.01-.05-.01-.1.01-.06-.05-.08-.17-.04-.11.14c.15.46.24.73.16 1.24m5.2-.22q-.21-.14-.16.1.43 2.04 1.46 3.85.52.91.67-.13.33-2.24-1.97-3.82m3.49 6.36q0 .06.05.1.17.16.24-.06.09-.25-.03-.53a.21.21 0 0 0-.4.05q-.02.15.07.27.06.07.07.17m2.63 23.4q-.13-.15-.14-.35-.01-.7-.11 0-.56 4.29 1.55 7.63.45.71.35-.12c-.23-1.9-.31-3.55-.77-5.45q-.25-1.09.32-1.99.3-.48.26-1.04c-.08-1.67.04-3.13-.52-4.77q-.79-2.29-1.67-4.53c-.97-2.5-.73-5.5-.62-8.16.03-.75-.24-1.65-.63-2.31q-1.06-1.81-1.12.29c-.11 3.9-.54 8 1.09 11.76q1.62 3.75 2.87 7.83.23.76-.49 1.25a.29.28 50.8 0 1-.37-.04m.08 15.83q-.07-.13-.1-.27-.15-.75-.26.01-.58 4.11 1.62 7.72.4.66.31-.11l-.77-6.73a.63.61 54.1 0 1 .05-.36q.96-2.27.34-4.84c-.76-3.11-2.68-6.52-2.66-9.75q.01-2.32.06-4.62a2.98 2.94-64 0 0-.64-1.9q-1.63-2.05-3.4-4.04c-1.63-1.84-2.12-4.23-3.07-6.42q-.53-1.2-.41.11c.18 2.03.05 3.87.81 5.87q4.7 12.38 8.96 24.2.33.92-.61 1.23-.16.05-.23-.1m-6.08-16.19.08.63q.07.55.31.05.22-.44-.11-.81-.34-.38-.28.13m-.25 2.71q.57 2.14 1.57 3.84.4.69.51-.09.4-2.63-1.81-3.95a.18.18 0 0 0-.27.2m3.81 5.31a.25.24 40.5 0 0-.42.03q-.12.25.04.45.19.24.42.06.22-.17-.04-.54m2.52 24.2q-.14-.08-.16-.22-.07-.69-.18-.01-.61 3.82 1.55 7.46.38.64.31-.1l-.63-6.2q-.05-.47.09-.93c1.13-3.79-.39-7.29-1.79-10.77-.99-2.45-.7-5.28-.61-7.86.03-.9-.16-1.79-.64-2.59q-1.06-1.76-1.12.29c-.11 3.59-.52 7.76.86 11.12q1.69 4.1 3.09 8.45.29.9-.54 1.36-.11.06-.23 0"/></svg>