<svg xmlns="http://www.w3.org/2000/svg" viewBox="0 0 382 382"><g fill="none" stroke="#423644" stroke-opacity=".996" stroke-width="2"><path d="M224.18 152.78q-.2-.31-.88.21M219.99 158.92q-.38.07-.75.34M217.63 161.76q.09.39.36.73M222.73 164.51q.25-.51 1.03-.88M227.15 158.49q-.35.04-.13-1.12M248.68 167.21q-.47-.09-.94 0M240.72 183.5l-1.05 1.12M224.1 193.93q.29.36.42 1.21M231.15 198.38q.47.36 1.03.12M237.95 202.69l1.05.14M258.89 185.3q.72.35 1.77-1.01M266.89 181.65q-.12-.58.12-.94M269.04 199.69q.22-.36-.06-.67-.19-.21-.46-.12M264.83 192.68q-.35-.39-.46-.91M252.65 197.03q-.96.87-1.07 1.77M216.91 222.04q-.6-.72-.44-1.03M223.06 180.36q.84.04.86-1.32M224.13 171.03q-.28-.21-.89-.17M218.53 171.7l-.79.44M182.52 188.85q.37-.57.88-.6M183.35 175.35q.17.88-1.02-.71M190.97 154.41q.23.79-.61 1.44M183.5 158.37q-.17.58-.74.66M175.44 160.4q-1.5-1.24-1.46-4.27M172.44 154.12q-.06-.57.27-1.06M267.64 201.05l-.41 1.07M249.69 171.28q-.78-1.17-.41 1.28M254 177.95q.7-.12 1.15.05M258.97 173.25q.52-.11.91-.04M174.16 213.94l.93-.35M178.69 214q.29.37.63.46M181.28 217.18l2 .93M198.79 205.15q.74-.64.78-1.61M214.57 208.81q.81 1.07.3 1.65M207.92 234.09q0 .52-.45.88-.42.32-.61 0M191.61 244.27q-.21 1.03-.52.83-.66-.42-.78-.91M182.27 235.21l.59-.26a.31.3-29.1 0 1 .37.1q.08.11.04.26M190.28 259.26q.21.47-.15 1.52M182.16 248.85q-.42-1.06-.82-1.46M159.04 229.31q.22-.33.43-.67M129.46 198.95q.09-.47-.79-.93M116.43 192.58l.1-.53q.08-.42-.2-.74-.22-.26-.51-.35M175.36 175.88l-.79.57M158.88 195.6q-1.19-.5-.81-1.47M151.65 171.33q1.21-.88 1.37-.18M157.45 170.62q.57.04.65-.37.08-.36-.33-.81M152.1 170.12l-1.06-.13M143.05 169.46q.07-.73-.59-1.21M137.77 162.77q-.23-.42-.33-1.13M158.77 210.2l-2.04-.85M149.33 198.11q.13-1.19-.77-1.37M140.64 185.11q-.48-.53.25-.5.39.01.23-.35-.12-.29-.73-.32M134.03 173.73q-.21.53.96-.11M134.18 170.96l-.26-.22a.29.28-23.3 0 0-.19-.07q-.28 0-.39.23-.21.42-.22-.05-.01-.21.06-.28M167.45 224.24q.71.05-.55.72M172.94 234.67q.57.26 1.02.15.33-.08.38-.36.06-.29-.23-.57M173.96 220.63q.86-.61 1.13-1.55M175 216.45l-.83.01M170.59 213.75q.42.54-1.34-.29M217.52 282.29q-.2.54.01 1.07M208.86 295.09l-.58 1.36M207.49 297.01q-.66-.19-.79-.42M192.23 290.57q-.68-.41-.44-1.25M183.33 277.05q-.73.01-1.08.4-.09.11-.02.23.09.16.09.33.01.38-.37.32-.54-.08-.68-.88.06.15.17.25.24.23.44-.04.18-.26.43-.38M181.84 270.76q-.2-.38-.67-.61M191.03 290.05q.33.35.39.21.28-.68-.11-.74M175.21 281.55q-.48.05-1.02-.07M167 282.22l-1.13-.59M182.36 307.23q1.11.88.14 2.25M190.97 305.26q.16.26.33.28.17.01.26-.2.13-.35-.23-.59M191.79 304.37q.16.63.06 1.58M198.69 307.78q1.03-.04 1.01-.51" vector-effect="non-scaling-stroke"/></g><path fill="#7c0282" fill-opacity=".996" d="M191.4 153.26q-.77.18-.79-.53-.15-5.78-.09-11.54a.43.43 0 0 1 .42-.43h.27q.22-.01.22.21zM190.97 154.41q.23.79-.61 1.44l-6.74-10.24q-.31-.47-.3.1l.18 12.66q-.17.58-.74.66-2.03-1.56-4.45-2.08-.52-.11-.81.33l-2.06 3.12q-1.5-1.24-1.46-4.27.21-1.73-1.54-2.01-.06-.57.27-1.06.43.32.88.44.58.17.58-.44l-.06-7.08a.69.67 73.1 0 1 .29-.56q.58-.4.86.06 2.04 3.33 3.93 6.19.34.52.68 0 .92-1.41 1.87-2.88c.93-1.43.64-3.35.52-4.97q-.03-.35.2-.63.4-.46 1.08.08a1.02.69 12.3 0 1 .21.22zm-15.9-6.43.12 5.51q.01.5.39.83.7.59 1.14.66a1.77 1.73 77.1 0 0 1.67-2.73q-1.33-2.02-2.78-4.42-.56-.92-.54.15m6.79 2.35-1.39 2.22q-.33.52 0 1.05l1.43 2.31q.45.72.45-.13l-.01-5.31q0-.91-.48-.14m-1.4 6.33q.79.38.42-.42-.42-.91-1.08-1.76-.44-.57-.74.08l-.32.68q-.23.49.26.72zm-5.05 1.85c.46-.51.87-1.22 1.3-1.8q.44-.58-.26-.78-.37-.1-.62-.41-.54-.68-.64.18l-.31 2.57q-.11.96.53.24"/><path fill="#086a05" fill-opacity=".996" d="M224.18 152.78q-.2-.31-.88.21.04-.27-.01-.43-.12-.38-.34-.05-1.26 1.85-2.4 3.76-1.07 1.78-.56 2.65-.38.07-.75.34-.71-.34-1 .25-.5 1.04-1.08 2.06-.17.32.19.3.13-.01.28-.11.09.39.36.73l-1.22.48q-.5.2-.63.73-.85 3.6 1.19 6.11.36.44.9.29 4.39-1.21 4.5-5.59.25-.51 1.03-.88 2.16-2.25 3.39-5.14-.35.04-.13-1.12 2.77-1.33 4.16-4.5a.56.56 0 0 1 .92-.16q.45.47.33 1.12-.72 4.06 2.7 7.63a.18.18 0 0 0 .28-.02q1.92-2.86 3.81-5.96.2-.32.55-.45.18-.06.33-.02.47.15.47.64l-.06 7.08q0 .68.61.4 1.39-.64 2.91-1.27c1.79-.73 2.5-2.49 3.41-4.03q.24-.42.73-.49.19-.02.32.12.23.26.23.61l-.04 9.14q-.47-.09-.94 0l-.03-7.27q-.01-.6-.33-.1l-6.48 10.06q-.35.54-.35 1.19.02 6.18-.07 12.24 0 .13.13.15l.11.02-1.05 1.12q-.17-6.46-.14-12.31c.01-2.46-1.11-3.88-2.46-5.66q-.29-.38-.75-.22-2.35.84-4.27 2.25-2.17 1.58.48 1.98l3.09.47q.4.06.33.46l-.04.27q-.06.36-.41.3l-4.74-.69a.88.88 0 0 0-.88.4l-5.41 8.46q-.29.44-.29.96l-.08 12.64q.29.36.42 1.21-.57 5.99-.25 12.59.02.34.17.62.22.42.47.01l6.24-9.98q.47.36 1.03.12l-6.96 10.76q-.21.32.14.16 5.46-2.45 10.98-4.99c.78-.36 1.23-1.03 1.61-1.74l1.05.14q-.24 0-.25.19a.18.18 0 0 0 .26.17l10-4.43q1.65-.73 2.92-2.64 3.58-5.4 6.96-10.82.72.35 1.77-1.01l6.23-2.64q-.12-.58.12-.94 2.54.28 4.95-1.47.25-.18.5-.2.36-.02.57.08a.62.62 0 0 1 .24.89l-6.7 10.36q-.35.55.24.28l11.23-5.07q.38-.17.56.2l.14.3q.1.21-.12.31l-10.42 4.73q-1.52.7.13.94l11.14 1.66a.57.55-6.7 0 1 .42.32q.14.29.02.58-.08.17-.33.29l-10.54 4.78q.22-.36-.06-.67-.19-.21-.46-.12l8.86-3.95q.87-.39-.07-.52l-12.48-1.75q-.35-.39-.46-.91l6.95-10.66q.33-.51-.23-.26l-10.96 4.97a1.62 1.55 2.7 0 0-.69.6l-6.79 10.61q-.96.87-1.07 1.77l-11.63 5.14q-.71.31.06.43l12 1.8a.47.47 0 0 1 .4.45l.01.33q.01.27-.26.23l-14.14-2.1q-.52-.08-1.01.14l-12.19 5.54q-.87.4-1.4 1.21l-6.51 10.07q-.6-.72-.44-1.03l6.41-10.06q.27-.43.27-.94l.04-13.67q0-.56-.31-1.03l-7.62-11.84q-.24-.37.18-.52l.27-.1q.29-.1.45.15l6.31 9.82q.59.92.59-.18v-12.28q.84.04.86-1.32l4.73-7.28q.37-.56-.3-.66l-3.7-.56a.4.38 18.6 0 0-.4.19q-.09.17-.12.3-.28-.21-.89-.17-.25-1.07-1.68-.73-1.41.34-2.76.92-.22.1-.27.24-.06.17 0 .41l-.79.44q-.1-.13-.26-.2-.26-.11-.51 0l-8.81 3.99q-.5.23-.8.69l-6.24 9.69q-.6.93.41.48l10.93-4.94q.29-.13.41.16l.13.28q.15.34-.2.5l-12.39 5.61a3.5 3.5 0 0 0-1.51 1.31l-7.14 11.13q-.3.47-.31 1.03l-.01 11.47q0 .28-.29.27l-.34-.03q-.26-.01-.27-.28v-11.35q0-.51-.28-.94l-7.74-12.16q.37-.57.88-.6 3.23 5.12 6.54 10.07.09.15.21.17.16.03.32-.04l.31.85q.22.6.59.07 3.24-4.67 6.54-9.88.85-1.34.81-2.99-.14-5.19-.02-10.5.02-1.03-.54-.17-2.71 4.22-5.55 8.52-1.02 1.55-1.06 3.9-.1 5.33-.17 10-.01.68-.91.2-.02-4.86-.03-9.74-.01-2.28-1.05-4.16-2.57-4.64-6.04-9.2.17.88-1.02-.71-.1-.71.06-1.2a.59.59 0 0 1 1.06-.14l6.4 9.98q.7 1.09.7-.2v-11.31q0-.52-.28-.97l-7.51-11.77q.57-.08.74-.66l7.22 10.73q.29.43.59.02 3.29-4.44 6.29-9.28 1.21-1.95 1.15-3.91-.17-5.22-.01-10.27.03-1.01-.52-.16l-6.52 10.23a1.14 1.12-29 0 0-.18.61l.02 11.7q0 .32-.33.32h-.4q-.32 0-.32-.31l-.13-12.2q.84-.65.61-1.44.84-.75.43-1.15.4.39.74-.13 3.03-4.59 5.69-8.87 1.88-3.01 1.89.54c.01 1.22-.33 2.49.34 3.59q1.05 1.74 2.16 3.39a.34.33 43.8 0 0 .56-.01l3.4-5.33q1.74-2.72 1.72.51l-.05 6.44a.24.24 0 0 0 .34.22q1.52-.7 3.11-1.36c2.03-.84 2.8-3.99 3.93-4.35q.24-.07.47.04a.75.75 0 0 1 .4.83q-.83 4 2.4 7.61.42.47.77-.06l3.65-5.63q.98-1.51 1.24.27.08.53.02 1.82m-17.54 1.54a.32.32 0 0 0 .19-.29l.07-5.89a.32.32 0 0 0-.59-.17l-3.1 5.01a.32.32 0 0 0 .01.35l1.15 1.69a.32.32 0 0 0 .39.12zm-7.01 1.71q0 .24.18.08 3.2-2.79.34-5.79-.48-.5-.48.19zm13.24 6.8q1.93 2.98 2.04-.57.17-5.23.11-11.62-.01-1-.55-.16l-4.37 6.82q-.41.63 0 1.25zm-3.29-6.52 1.57-2.4q.49-.73-.31-.37l-2.17.98q-.65.3-.44.99.1.33.24.68.45 1.12 1.11.12m-6.8-2.01q-.06-.1-.15-.04-1.08.69-1.47 2-.23.75.47.39l1.21-.62q.71-.37.32-1.07zm28.28.77-6.95 11.15q-1.18 1.9.86.98l5.73-2.55q.66-.3.66-1.03l-.01-8.46q0-.57-.29-.09m-14.42.18a.32.32 0 0 0-.6.16l.04 4.97a.32.32 0 0 0 .6.16l1.39-2.5a.32.32 0 0 0 0-.32zm-9.79.56a.26.25 75.4 0 0-.35-.21l-.85.35q-.6.25-.22.78l1.19 1.69q.66.92.52-.2zM191 183.82q-.45.12-.32.57.04.15.22.19.2.05.31-.11 3.61-5.04 6.58-10.01 1.89-3.16 1.88.52v10.93q0 .81.44.13l6.46-9.99q.29-.45.29-1v-9.99q0-.6-.55-.84l-4.34-1.93q-.36-.16-.19-.51l.14-.28q.13-.27.4-.15l4.01 1.82q.69.32.64-.44-.2-2.97-2.65-5.61-.41-.44-.95-.2c-1.74.76-3.5 1.15-4.6 2.84q-3.61 5.52-7.01 10.96a1.99 1.97 61.3 0 0-.3 1.05v11.47q0 .47-.46.58m48.56-26.11q0-.85-.47-.13-1.5 2.31-2.74 4.31a1.84 1.77-77.3 0 0 1.69 2.79q.49-.06 1.18-.78.35-.37.35-.89zm-31.7 5.76a.51.51 0 0 0 .3.47l4.35 2a.51.51 0 0 0 .64-.74l-3.59-5.72a.51.51 0 0 0-.86-.01l-.76 1.16a.5.5 0 0 0-.09.28zm26.18-.4a.55.54-26.2 0 0 .28-.81l-1.56-2.36q-.52-.79-.48.15l.13 3.2q.03.81.68.32.43-.32.95-.5m9.87.35q.49-.77-.32-.36l-2.55 1.28a.81.8-13 0 0-.44.7l-.02 2.23q-.01 1.28.69.21zm-10.53 2.94q-.29.42.17.21l2.17-.98a.62.61 58.9 0 0 .23-.95l-.28-.34q-.46-.58-.88.03zm-21.22.96a.33.33 0 0 0-.14-.48l-3.72-1.76a.33.33 0 0 0-.47.3l-.02 7.61a.33.33 0 0 0 .61.17zm20.589-1.587a.4.28 13.5 0 0-.324-.365.4.28 13.5 0 0-.454.179.4.28 13.5 0 0 .324.365.4.28 13.5 0 0 .454-.179m6.801 1.347.14-1.36q.1-.89-.72-.53l-.72.31q-.59.25-.24.79.75 1.17 1.72 2.18.3.31.44-.1.03-.07.07-.12.46-.5-.21-.54-.13-.01-.25-.09-.27-.2-.23-.54m-8.01-.59a.6.6 0 0 0-.8-.78l-5.98 2.72a.6.6 0 0 0 .17 1.14l4.6.6a.6.6 0 0 0 .63-.36zm-15.25 4.64q.53-.24.28-.76-.89-1.84-2.51-2.63-.71-.35-1.15.32l-3.73 5.71q-.56.85.37.43zM172.71 153.06q-.33.49-.27 1.06-.66-.47-1.32-.66-.52-.14-.31.36 1.29 3.1 3.17 2.31-.04 3.03 1.46 4.27-.46 1.24-.28 2.35.11.61.68.35l3.76-1.71q.35-.16.52.18l.11.25q.15.31-.16.46l-4.24 1.93q-.52.24-.51.81l.04 10.86-.79.57-9.6-4.42q-.44-.21-.71.2l-5.13 7.95q-.3.47-.3 1.03l.01 11.25q0 1.39.76.22l6.29-9.76a.28.27-65.9 0 1 .3-.12l.25.07a.45.44 24 0 1 .26.67l-7.82 12.06q-1.19-.5-.81-1.47l-.21-12.21a3.34 3.33 28.1 0 0-.55-1.8l-5.66-8.79q1.21-.88 1.37-.18l4.52 7.16q.68 1.07.51-.18-.46-3.36-.19-7.13.02-.32-.41-.38.57.04.65-.37.08-.36-.33-.81.17-.21.09-.46-.07-.22-.27-.33-3.18-1.66-6.35-2.95a.48.48 0 0 0-.66.51q.26 2.07 1.52 3.91l-1.06-.13q-1.95-2.64-5.43-3.51-.48-.12-.76.3l-1.8 2.68q.07-.73-.59-1.21.9-.78 1.4-1.87.23-.49-.13-.88-.31-.34-.84-.47-.61-.14-.54.49l.18 1.69a.39.39 0 0 1-.24.4l-.33.13q-.42.17-.44-.28l-.09-2.32q-.03-.56-.53-.82l-3.13-1.55q-.23-.42-.33-1.13l3.55 1.42q.51.21.5-.34l-.02-5.64q-.02-3.6 1.93-.58l2.98 4.63q.32.49.73.07 3.21-3.38 2.47-7.81a.7.69 88.7 0 1 .77-.81q.37.05.54.41 1.94 4.14 6.48 5.31.54.14.52-.43-.12-3.24-.03-7.3.01-.37.45-.49a.48.47-23 0 1 .51.2l3.94 6.04q.32.5.72.07 3.19-3.41 2.44-7.54-.12-.69.52-.97.43-.19 1.03.72a1.19.68 29.9 0 1 .07.12q1.59 3.37 5.17 4.34m-5.12-2.59a.3.3 0 0 0-.55.16l-.05 12.14a.3.3 0 0 0 .04.15l.72 1.24a.3.3 0 0 0 .51.01l3.91-6.03a.3.3 0 0 0 0-.32zm-8.28 2.26a.31.31 0 0 0-.58.17l.12 5.91a.31.31 0 0 0 .18.28l1.9.87a.31.31 0 0 0 .39-.12l1.1-1.76a.31.31 0 0 0 0-.32zm-1.44 13.71q-.65-1.62-1.07-2.23-3.25-4.67-5.72-9.09-.45-.79-.45.12v8.48a.85.84-78.4 0 0 .51.78l6.53 2.95a.36.36 0 0 0 .48-.19q.15-.36-.08-.56-.13-.1-.2-.26m7.45-5.89a.32.32 0 0 0 .6-.16l.03-4.94a.32.32 0 0 0-.6-.16l-1.39 2.47a.32.32 0 0 0 0 .31zm-22.93-2.99q.03 2.69.07 5.28a1.8 1.76 71.1 0 0 2.85 1.43q.41-.32.63-1.25.12-.53-.16-.98l-2.93-4.62q-.47-.74-.46.14m15.68 5.37-.31-2.86q-.04-.41-.41-.58l-2.6-1.24q-.49-.23-.19.22l3.02 4.63q.61.93.49-.17m6-1.55q.14.11.31.2.7.36.3-.33l-1-1.73q-.35-.6-.81-.09l-.49.54a.5.5 0 0 0 .18.8l1.47.59zm9.57-1.68a.61.61 0 0 0-1.11-.22l-3.64 5.58a.61.61 0 0 0 .77.89l4.29-2.03a.61.61 0 0 0 .34-.66zm-24.05 3.39.12-3.1q.02-.64-.35-.12l-1.49 2.05q-.59.81.31 1.25l.71.34q.67.32.7-.42m9.35-.57a.29.29 0 0 0 .41.24q.84-.37.91-1.26.03-.45-.35-.75-.21-.18-.43-.34-.81-.59-.71.4zm6.27.43c-1.06-.3-2.14-.85-3.13-1.33a.66.66 0 0 0-.85.24l-1.94 2.97q-.28.43-.1.9 1.33 3.48 4.41 4.45.62.2 1.02-.3c1.78-2.16 1.24-3.47 1.29-6.06q.02-.68-.7-.87m-17.11 3.38q.12.07.25.12.24.09.13-.14-.52-1.16-1.37-1.97-.31-.3-.7-.1-.15.09-.26.23-.39.54.12.97.73.61 1.6.79.13.03.23.1m26.06-.88a.33.33 0 0 0-.47-.3l-3.67 1.74a.33.33 0 0 0-.14.48l3.67 5.72a.33.33 0 0 0 .61-.18zm-24.44.05q.16-.49-.36.09-.22.24.09.31.2.05.22-.16.01-.12.05-.24m15.81 4.63q-.43.69.31 1.03l6.89 3.17q.63.29.25-.3l-3.93-6.05a.85.85 0 0 0-1.14-.27q-1.36.79-2.38 2.42m-2.1 1.53a.37.37 0 0 0-.1-.52q-1.64-1.13-3.77-1.03a.77.77 0 0 0-.74.77l.02 6.2q.01 1.73.94.28z"/><path fill="#7c0282" fill-opacity=".996" d="m224.18 152.78.07 5.18q.01.53.5.33l2.27-.92q-.22 1.16.13 1.12-1.51.41-2.36 1.03a1.23 1.19 77.3 0 0-.48.79l-.55 3.32q-.78.37-1.03.88l-2.03-2.56q-.32-.41-.81-.22l-1.9.76q-.27-.34-.36-.73l1.72-.99q.46-.27.31-.77-.11-.33-.42-.74.37-.27.75-.34.55 1.16 1.84.86a1.74 1.73 84.4 0 0 1.34-1.64l.13-5.15q.68-.52.88-.21m-1.09 9.68.15-1.58a.54.54 0 0 0-.96-.4q-1.18 1.43.27 2.26a.37.36 17.2 0 0 .54-.28M137.44 161.64q.1.71.33 1.13l4.11 5.83q.29.42.47-.06l.11-.29q.66.48.59 1.21-.5.81-.52 1.31-.22 6.11-.06 12.65.06 2.16 1.13 3.71 2.77 4.02 5.53 8.46.51.82.51-.14l-.02-11.01q-.01-3.19 1.74-.53l6.71 10.22q-.38.97.81 1.47l-.11 14.6-2.04-.85-7.4-11.24q.13-1.19-.77-1.37-3.64-6.67-7.92-11.63-.48-.53.25-.5.39.01.23-.35-.12-.29-.73-.32l-6.36-10.21q-.21.53.96-.11l6.09 9.43q.39.6.39-.12l-.07-11.9a2.76 2.74 28.5 0 0-.43-1.44l-6.39-9.88q-.46-.71-.46.13l.06 11.12-.26-.22a.29.28-23.3 0 0-.19-.07q-.28 0-.39.23-.21.42-.22-.05-.01-.21.06-.28.32-5.71.03-11.07-.06-1.02-.02-1.14.72-2.25 1.65-.07.83 1.94 2.6 3.35m20.42 46.58q-.09-5.58-.03-10.75.03-1.87-1.16-3.6-2.99-4.33-5.52-8.56-.54-.9-.54.15l.03 11.83a1.96 1.93 28.7 0 0 .3 1l6.49 10.06q.44.68.43-.13"/><path fill="#086a05" fill-opacity=".996" d="M133.18 170.57q-.07.07-.06.28.01.47.22.05.11-.23.39-.23a.29.28-23.3 0 1 .19.07l.26.22q-.01 1.51.81 2.66-1.17.64-.96.11l-12.07-5.87q-.75-.37-.28.32 2.87 4.27 5.59 8.72.93 1.53 3.01 2.54 4.9 2.36 10.11 4.5.61.03.73.32.16.36-.23.35-.73-.03-.25.5-5.68-2.28-10.69-4.63c-2.46-1.15-3.85-.51-6.2-.16q-.63.1-.62.73c.02 2.25-.36 3.97 1.01 6.03q3.29 4.95 6.73 10.27.34.52.9.78l10.67 4.78q.78.35.31-.36l-6.71-10.36a.41.41 0 0 1 .51-.6l12.01 5.15q.9.18.77 1.37l-10.87-4.77q-.74-.33-.28.34 2.9 4.26 5.6 8.72.9 1.49 3.03 2.5 4.89 2.3 9.92 4.45l2.04.85 6.45 10.27q.71 1.14.72-.21l.04-11.78q0-.32.32-.4.46-.12.75.26c1.14 1.51 1.59 3.12 3.42 4.06q1.8.92 3.69 1.54l.93-.35q1.48 3.28 3.6.41.29.37.63.46-1.58 1.81 1.96 2.72l2 .93 7.46 11.43q.34.51.67 0l7.01-10.66a1.6 1.53 62.9 0 0 .26-.87l.11-12.86q.74-.64.78-1.61l.12 4.38a.93.9 29 0 0 .13.43l2.42 3.86a.26.25 45.3 0 0 .43.01l3.91-6.12q.24-.38.69-.36.22.02.39.16.22.19.23.48.02 3.7-.13 6.94-.02.59.55.45 4.49-1.07 6.26-4.96.81 1.07.3 1.65l-6.77 10.33q-.28.42-.27.92l.09 12.38q0 .52-.45.88-.42.32-.61 0-.02-5.93-.01-11.85c.01-2.54-1.17-3.99-2.51-5.86q-.29-.4-.74-.19c-2.25 1.06-3.99 1.49-5.46 3.86q-3.17 5.11-6.24 9.77-.33.5-.34 1.09-.08 5.8-.02 11.21.01.27-.12.51-.14.28-.4.46-.74.52.14.37l.45-.07q-.21 1.03-.52.83-.66-.42-.78-.91.34-5.53.16-10.91-.07-2.21-.99-3.59-3.18-4.76-6.24-9.62c-1.01-1.62-3.08-2.13-4.69-2.97a.78.77 30.2 0 0-1.01.26c-1.09 1.71-2.5 3.36-2.45 5.56q.15 6.43.05 12.16-.01.75.4 1.38l6.26 9.71q.45.68.45-.13l.02-10.83.59-.26a.31.3-29.1 0 1 .37.1q.08.11.04.26.05 5.63.13 11.15.04 2.07 1.08 3.8 2.76 4.59 5.8 9 .21.47-.15 1.52l-7.97-11.93q-.42-1.06-.82-1.46l-6.88-10.64q-.25-.39-.68-.59l-12-5.43q-.96-.43-2.01-.27l-13.31 1.98q-.33.05-.36-.28l-.04-.34q-.02-.25.23-.3l12.75-2.21q.22-.33.43-.67l-6.28-9.87q-1.78-2.79 1.24-1.42l10.12 4.59q.62.28.25-.29l-6.55-10.1a1.74 1.7 85.2 0 0-.75-.65l-12.73-5.79a.98.89 51.1 0 0-.53-.08l-14.36 2.13q-.19.03-.22-.16l-.05-.31a.47.46-8.6 0 1 .4-.53l11.99-1.8q.73-.11.06-.42-5.31-2.48-10.63-4.84-.75-.34-1.97-.15.09-.47-.79-.93l-12.24-5.44.1-.53q.08-.42-.2-.74-.22-.26-.51-.35l-6.43-10.01q-1.89-2.94 1.23-1.37c1.3.65 2.52 1.44 4.06 1.14q1.55-.32 2.99-.46.92-.09.42-.87l-3.35-5.19q-1.57-2.43 1.06-1.24l5.69 2.58q.5.23.59-.31.78-4.73-2.01-7.69a.87.86 30.1 0 1-.21-.76q.19-.92.56-.74 6.04 2.81 11.26 5.1.76.33.31-.37l-6.57-10.17q-.2-.3.11-.49l.27-.17q.29-.18.48.11zm-10.06 2.9q-.07 1.08.09 2.29.07.56.59.8l2.41 1.11q.8.36.31-.37l-3.07-4.57q-.34-.52-.46.09-.08.36.13.65m-4.28 5.38q.94 1.59 2.51.85a1.71 1.71 0 0 0 .01-3.1l-4.86-2.31q-.84-.4-.31.38 1.37 2.03 2.65 4.18m4.41-1.35a.21.21 0 0 0-.28.23l.16 1.01q.12.75.86.56l1.26-.32q1.28-.32.04-.76zm-5.85 14.01a.3.3 0 0 0 .13.11l11.18 5.17a.3.3 0 0 0 .37-.44l-6.76-10.31a.3.3 0 0 0-.13-.11L111 180.76a.3.3 0 0 0-.37.44zm4.83-8.71-.08-1.75q-.02-.47-.49-.45l-.87.02q-.5.01-.34.49.4 1.16 1.25 1.94.56.52.53-.25m-6.29-.76 4.43 1.93q.72.31.43-.42-1.38-3.47-4.86-2.03-.61.25 0 .52m90.69 32.58a.31.31 0 0 0 .18-.28l.09-5.9a.31.31 0 0 0-.57-.17l-3.12 5.03a.31.31 0 0 0 .01.34l1.17 1.68a.31.31 0 0 0 .37.11zm-5.03-1.68-1.39-2.15q-.54-.83-.54.16v5.03q0 .87.47.14l1.46-2.24a.87.87 0 0 0 0-.94m-34.15 11.3q.71.05-.55.72l-.49-.75q-.34-.52-.9-.77l-10.81-4.89q-.71-.32-.29.33l6.41 9.91q.38.58 1.01.86l11.11 5.02q.57.26 1.02.15.33-.08.38-.36.06-.29-.23-.57l-.15-13.26q.86-.61 1.13-1.55l1.54-2.12q.32-.45-.12-.78-1.14-.89-1.51.27l-.83.01.01-.78q0-.54-.5-.73l-3.09-1.2q.42.54-1.34-.29l-1.82-2.62q-.37-.53-.35.11zm43.58-10.52-2.59 1.26q-.57.28-.57.91l.02 2.15q.01 1.21.65.19l2.7-4.27a.17.16-86.8 0 0-.21-.24m-9.85 2.59q-.69 1.04.49.65 1.87-.61 1.41-1.96-.34-1.01-.93-.13zm5.85 2.45-.15-2.35q-.04-.68-.69-.47l-.46.14q-.68.22-.31.82l1.21 1.98q.45.75.4-.12"/><path fill="#7c0282" fill-opacity=".996" d="M249.69 171.28q-.78-1.17-.41 1.28l-7.38 10.88q-.53.79.33.39 5.23-2.41 10.71-4.87.45-.2 1.06-1.01.7-.12 1.15.05 1.86-.6 3.23-1.66.4-.3.43-.79l.16-2.3q.52-.11.91-.04l.02 1.99q0 .61.56.36l6.71-2.98a.46.44-39.2 0 1 .45.04q.51.35.27.7-2.16 3.22-4.04 6.23-.33.54.29.65l2.87.51q-.24.36-.12.94-1.84-.59-3.41-.49-.51.04-.82.45l-2 2.68q-1.05 1.36-1.77 1.01l-.02-4.22q-.01-.65-.65-.77c-2.12-.4-4.1-.86-6.19.14q-5.61 2.68-10.53 4.78a3.65 3.61 4.9 0 0-1.61 1.34q-2.99 4.52-6.01 9.31-.23.36-.71.37-.37 0-.18.31.09.15.25.17.3.03.57-.1 5.35-2.49 10.72-4.85 2.38-1.05.96 1.13l-6.49 9.92-1.05-.14 5.77-9.13q.29-.46-.21-.23l-11.33 5.17q-.56.24-1.03-.12l.22-12.97q.01-.55-.3-.09l-6.55 9.82q-.13-.85-.42-1.21l6.62-10.16q1.67-2.57 1.66.49l-.03 11.26q0 .9.47.14l6.85-11.04 1.05-1.12 6.48-10.09a3.22 3.2-28.7 0 0 .52-1.75l.02-4.45q.47-.09.94 0-.15 1.42.13 2.74.14.66.51.1l6.5-10.03q.15-.22.37-.09l.31.19q.24.15.08.39zm16.18 3.25q.37-.59-.26-.29l-4.99 2.41a1.68 1.68 0 0 0 .12 3.08q.57.22 1.27.13a1.13 1.12 12 0 0 .81-.52zm-9.19 3.63q-1.21.41.02.75l1.74.49q.46.13.45-.35l-.02-1.04q-.02-.57-.56-.39zm3.94 4.71.83-1.36a.49.49 0 0 0-.24-.71l-.5-.2q-.57-.23-.76.36-.25.83-.03 1.79a.39.38 54.5 0 0 .7.12"/><path fill="#086a05" fill-opacity=".996" d="M259.88 173.21q-.39-.07-.91.04.17-.31.1-.57-.14-.52-.43-.07l-3.49 5.39q-.45-.17-1.15-.05l6.2-9.64q.49-.76-.34-.39l-10.58 4.64q-.37-2.45.41-1.28 5.89-2.22 11.33-5.03.94-.49 1.19.37a.56.56 0 0 1-.05.42c-1.37 2.39-2.52 3.11-2.28 6.17"/><path fill="#7c0282" fill-opacity=".996" d="M157.77 169.44q.41.45.33.81-.08.41-.65.37l-4.43.53q-.16-.7-1.37.18l-5.35.81q-.24.04-.25-.21l-.02-.47q0-.26.25-.29l4.73-.64a.21.21 0 0 0 .16-.32l-.13-.22 1.06.13zM224.13 171.03l-.21 8.01q-.02 1.36-.86 1.32l-5.32-8.22.79-.44 4.02 6.16q.59.91.61-.18l.08-6.82q.61-.04.89.17M183.35 175.35l.05 12.9q-.51.03-.88.6l-13.3-6.07q-.46-.21-.18-.63l.17-.28q.11-.16.29-.08l11.09 5.04q.65.3.27-.31l-6.29-10.07.79-.57 6.71 10.06q.29.44.29-.09l-.03-11.21q1.19 1.59 1.02.71M115.82 190.96q.29.09.51.35.28.32.2.74l-.1.53-11.71 1.92q-.67.1-.06.38l10.66 4.82a2.19 2.12-36.1 0 0 1.2.17l12.15-1.85q.88.46.79.93l-12.8 1.92q-.53.08-.92.43l-10.67 9.35q-.16.14-.29-.02l-.22-.24q-.27-.31.04-.58l9.42-8.33q.45-.39-.14-.53-.36-.08-.57.17-.22.27-.57.33l-11.25 1.67q-.34.05-.38-.28l-.04-.28q-.05-.35.29-.4l11.18-1.66q1.69-.25.13-.96l-9.42-4.27q-2.77-1.26.24-1.71l10.31-1.53q1.56-.23.12-.88l-10.38-4.7q-.3-.13-.22-.45l.06-.29q.07-.31.36-.18zM264.37 191.77q.11.52.46.91l-10.88 4.93a.29.29 0 0 0 .08.55q5.46.8 11.22 1.68 1.36.2 3.27-.94.27-.09.46.12.28.31.06.67-.29.1-.37.28-.19.39.25.46l11.83 1.76q.25.04.22.29l-.03.41q-.03.26-.28.22l-13.02-2.06-.41 1.07c-.69-.6-1.15-1.06-2.11-1.21q-6.61-1.05-13.54-2.11.11-.9 1.07-1.77z"/><path fill="#086a05" fill-opacity=".996" d="m267.64 201.05 9.86 8.8q.25.22.03.48l-.24.29q-.17.19-.36.02l-9.7-8.52z"/><path fill="#7c0282" fill-opacity=".996" d="M199.57 203.54q-.04.97-.78 1.61l-6.96 10.75a1.86 1.8-29.2 0 0-.3 1l-.02 11.25q0 .41-.41.41h-.3a.3.3 0 0 1-.3-.3l-.01-11.51q0-.51-.28-.94l-6.63-10.33q-.38-.59-.38.11l.08 12.52-2-.93q-.91-1.91-1.96-2.72-.34-.09-.63-.46c.12-.4.09-.91-.16-1.27q-1.51-2.27-2.81-4.3-.59-.93-.6.17l-.03 4.99-.93.35q-.03-3.83-.06-7.26-.01-.58.23-.79.23-.2.57-.16.33.05.51.33l3.75 5.92q.4.63.77-.02.82-1.46 1.75-2.81c1.01-1.48.47-3.02.64-4.64q.27-2.65 1.61-.35 3.11 5.36 6.72 10.22.37.5.74-.01 3.74-5.24 7.1-10.89.13-.22.38-.28.41-.1.7.34m-19.13 9.37a.98.96-46.1 0 0 .01 1.06l1.39 2.05q.5.75.5-.15l.02-5.11q0-.91-.48-.14z"/><path fill="#7c0282" fill-opacity=".996" d="M216.47 221.01q-.16.31.44 1.03 5.67-2.21 10.39-4.63 3.56-1.83 1.38 1.53l-5.79 8.91q-.54.83.36.43 5.82-2.61 10.96-4.95.37-.17.54.19l.12.26a.34.34 0 0 1-.17.45l-10.86 4.88q-1.11.5.1.67l11.83 1.76q.22.04.18.25l-.08.45q-.05.25-.3.21l-13.56-2.02a2.94 2.91-52.6 0 0-1.6.22l-12.15 5.5q-.52.23-.83.71l-6.49 10.02q-.44.67.29.34l11.31-5.12a.22.22 0 0 1 .3.11l.1.25a.53.52 66.2 0 1-.26.69L200 248.89q-.54.24-.85.73l-7.05 10.94a3.62 3.6 61.8 0 0-.59 1.98v11.26q0 .33-.32.32l-.4-.01q-.31 0-.32-.32l-.34-13.01q.36-1.05.15-1.52.95.75 1.59-.15 2.84-3.95 6.53-10.18.26-.44.26-.94l.02-12.01q0-.68-.36-.11l-6.48 10.07q-.33.52-.33 1.13l.03 11.57q0 .41-.41.41h-.33a.31.3 89.1 0 1-.31-.31l.01-11.69q0-.5-.27-.92l-6.96-10.82q.04-.15-.04-.26a.31.3-29.1 0 0-.37-.1l-.59.26q-.19-1.82.77-1.82a.52.51-16.2 0 1 .43.23l6.84 10.57q.12.49.78.91.31.2.52-.83l6.85-10.67a.64.64 0 0 1 1.05-.04q.21.28.21.62 0 5.88-.1 11.49-.02 1.4.74.22 2.97-4.57 5.95-9.09.57-.86.55-1.83.19.32.61 0 .45-.36.45-.88 3.13-4.53 5.91-9.04 1.12-1.81 1.15-3.93.08-5.13-.11-10.66.51-.58-.3-1.65.4-.64.85-.71.55-.08.56.48l.12 11.92q.01.47.37.51m-7.35 13.17a.32.32 0 0 0 .4.46l11.16-5.15a.3.3 0 0 0 .13-.12l6.72-10.31a.32.32 0 0 0-.4-.46l-11.18 5.17a.3.3 0 0 0-.13.12zm13.513-5.194a.27.21 100 0 0 .254-.23.27.21 100 0 0-.16-.302.27.21 100 0 0-.254.23.27.21 100 0 0 .16.302M170.59 213.75l3.1 4.55q.35.51.38-.11l.1-1.73.83-.01.09 2.63q-.27.94-1.13 1.55l-4.71-7.17q1.76.83 1.34.29M159.47 228.64q-.21.34-.43.67l-11.8-5.12a.35.35 0 0 1-.14-.54l.22-.27q.1-.13.24-.06zM167.45 224.24q3.57 5.04 6.35 9.56.06.1.19.1.06-.01.12-.01.29.28.23.57-.05.28-.38.36-.45.11-1.02-.15l-6.04-9.71q1.26-.67.55-.72M181.34 247.39q.4.4.82 1.46l-12.92-5.75q-.5-.23-.2-.68l.18-.26q.11-.17.3-.09z"/><path fill="#086a05" fill-opacity=".996" d="M217.52 282.29q-.2.54.01 1.07-1.36.47-1.6.82-3.66 5.22-7.07 10.91l-.58 1.36q-.43.21-.79.56-.66-.19-.79-.42.24-6.51.18-13.29c-.02-2.46-1.24-3.81-2.44-5.68q-.3-.45-.79-.23c-2.19.97-3.75 1.26-5.2 3.53q-3.1 4.84-6.22 9.65-.68-.41-.44-1.25l6.63-10.35a1.7 1.7 0 0 0 .27-.92l-.04-11.87q0-.65-.35-.11l-6.63 10.28a1.2 1.14-29.4 0 0-.2.65l-.01 11.61q0 .37-.37.37h-.33q-.19 0-.19-.19-.07-5.03.02-10.08.04-2.06-1.09-3.74-3.05-4.54-5.65-8.76-.47-.76-.48.14l-.04 10.7q-.73.01-1.08.4-.09.11-.02.23.09.16.09.33.01.38-.37.32-.54-.08-.68-.88.06.15.17.25.24.23.44-.04.18-.26.43-.38l.07-6.54a.22.22 0 0 0-.31-.21q-.12.06-.23.23-.2-.38-.67-.61c1.55-1.4 1.13-3.3 1.13-5.07q0-3.07 1.66-.49l6.06 9.42a1.18 1.18 0 0 0 1.99-.01l6.46-10.11q.24-.37.68-.29.34.07.53.38.21.33.12.7-.92 3.83 2.36 7.55.41.47.75-.05l3.76-5.9q.25-.4.72-.27.2.05.33.22.19.22.19.53-.07 3.51-.08 6.86 0 .57.55.42c3.62-.97 4.59-2.44 6.46-5.14q1.11-1.61 1.12.35l.03 11.2q0 1.61.87.26l6.26-9.7q.35-.54.69 0l.15.23q.09.14 0 .28l-6.85 10.56q-.14.22.11.28.16.04.3-.07m-14.32-8.14q.62.54.9 1.25a.67.67 0 0 0 .95.35l1.32-.74q.48-.27.48-.82l.01-5.64q0-.72-.39-.11l-3.33 5.25a.37.36-53.2 0 0 .06.46m-2.86 3.18q1.42.15 2.7-.8.41-.3.17-.74l-.26-.48q-.46-.84-.89.01-.63 1.25-1.72 2.01-.6-.87-.17-1.11 1.44-.8 1.31-2.64-.09-1.24-1.39-2.67-.58-.63-.52.22.2 2.59.02 5.4-.02.31.22.52.18.16.53.28m14.68 6.16a.3.3 0 0 0 .05-.16l-.03-12.13a.3.3 0 0 0-.55-.17l-6.57 10.22a.3.3 0 0 0-.05.16l.03 12.13a.3.3 0 0 0 .55.17zm-4.92-8.97q-3.27.68-1.98 4.12a.23.23 0 0 0 .42.03q1.21-2.14 2.69-4.27.1-.14.04-.3-.04-.13-.12-.25a.08.08 0 0 0-.13-.01q-.4.57-.92.68m-3.66 1.67q-.56-.01-.93.32-.38.33-.11.75l1.29 2.02q.48.76.4-.13l-.25-2.59a.4.4 0 0 0-.4-.37"/><path fill="#7c0282" fill-opacity=".996" d="M181.17 270.15q.47.23.67.61l-1.36 2.59q-.22.43.02.84l1.81 3.09q-.25.12-.43.38-.2.27-.44.04-.11-.1-.17-.25-.58-1.28-1.6-2.32a.47.47 0 0 0-.81.26q-.25 1.74 2.41 2.06.14.8.68.88.38.06.37-.32 0-.17-.09-.33-.07-.12.02-.23.35-.39 1.08-.4-.17 1.26.54 2.38 2.88 4.54 5.78 9.08.27.42.68.71.44.3.7.83.33.35.39.21.28-.68-.11-.74.08-.22.48-.2-.24.84.44 1.25c-1.25 1.81-.75 7.96-.71 12.98q0 .31-.32.32h-.39q-.31.01-.31-.31v-10.79q0-1.11-.61-2.04-3.26-5.02-6.68-10.42c-1.02-1.61-3.04-2.08-4.69-2.92q-.53-.27-.85.24l-2.46 3.92q-.48.05-1.02-.07l-6.78-10.5a.2.2 0 0 0-.37.11l-.04 11.13-1.13-.59.08-12.64a.68.68 0 0 1 1.31-.25q1.69 4.24 6.33 5.31.59.13.58-.47l-.06-6.07q-.04-3.23 1.69-.5l3.23 5.09q.3.46.72.11.89-.74 1.42-2.06m-2.87 4.95a1.48 1.48 0 0 0 .29-1.91l-2.8-4.43q-.65-1.02-.65.19l.01 5.15q.01.55.41.92 1.36 1.26 2.74.08m-7-1.08a.33.33 0 0 0-.42.47l2.68 4.18a.33.33 0 0 0 .61-.19l-.08-2.9a.33.33 0 0 0-.18-.29zm4.15 1.98a.28.27-86.2 0 0-.3.27l-.11 2.95q-.01.42.23.08l1.46-2.06q.19-.27 0-.54-.45-.61-1.28-.7"/><path fill="#086a05" fill-opacity=".996" d="m165.87 281.63 1.13.59c-.08.67-.09 1.25.29 1.84q3.26 4.98 6.33 9.77.51.79.51-.15l.06-12.2q.54.12 1.02.07-.1 6.18-.03 12.36.02 2.11 1.09 3.88 2.9 4.81 6.09 9.44 1.11.88.14 2.25l-13.32-6.1q-.28-.12-.16-.41l.15-.36q.11-.27.38-.15l10.55 4.73q1.33.6.54-.63l-6.05-9.38a1.62 1.55-2.7 0 0-.69-.6l-11.79-5.39a4.57 4.53 52.8 0 0-2.56-.36l-13.08 1.93a.29.29 0 0 1-.33-.25l-.06-.41q-.04-.23.2-.27l11.27-1.67q1.77-.26.14-1l-10.24-4.58a.42.42 0 0 1-.21-.56l.11-.24a.29.29 0 0 1 .38-.14l11.06 4.93q.85.38.34-.4l-6.11-9.34q-1.68-2.57 1.11-1.3l9.88 4.48q1.15.52.47-.54l-6.32-9.8q-.26-.41.16-.67l.24-.15q.21-.13.35.08zm.29 2.54a.33.33 0 0 0-.14-.12l-11.07-5.12a.33.33 0 0 0-.42.49l6.7 10.18a.33.33 0 0 0 .14.12l11.08 5.13a.33.33 0 0 0 .41-.48z"/><path fill="#7c0282" fill-opacity=".996" d="m208.28 296.45.58-1.36q5.08-2.18 9.95-4.48 2.16-1.02 3.11-2.58 2.67-4.39 5.56-8.64.47-.7-.29-.35l-9.66 4.32q-.21-.53-.01-1.07l11.38-5.06a.5.5 0 0 1 .63.73l-6.38 9.9a1.46 1.46 0 0 0 1.01 2.24l11.54 1.7q.41.06.29.46l-.11.33q-.07.23-.31.2l-13.71-2.03q-.69-.1-1.33.19z"/><rect width="12.42" height="1" x="-6.21" y="-.5" fill="#7c0282" fill-opacity=".996" rx=".48" transform="rotate(-24.1 785.574 -393.663)"/><path fill="#086a05" fill-opacity=".996" d="m191.03 290.05.28-.53q.39.06.11.74-.06.14-.39-.21"/><path fill="#7c0282" fill-opacity=".996" d="M190.97 305.26q.16.26.33.28.17.01.26-.2.13-.35-.23-.59.07-.38.46-.38.16.63.06 1.58l-.33 12.82a.32.32 0 0 0 .59.18q3-4.59 6.14-9.46.38-.57.44-1.71 1.03-.04 1.01-.51l7-10.68q.13.23.79.42l-6.35 9.84q-.76 1.18.51.6l10.69-4.87q.34-.15.47.2l.09.24q.1.25-.14.36l-12.61 5.68q-.58.26-.92.8l-7.61 11.84a1.39 1.33 62.2 0 0-.21.73l.02 12.11q-.34-.1-.81.02-.01-5.1-.07-10.19-.02-2.14-1.09-3.94-3.28-5.57-6.96-10.95.97-1.37-.14-2.25l-.06-11.42q-.02-4.16 2.05-.55 2.66 4.63 6.62 10m-.46 13.21v-10.38a4.52 4.5-61.4 0 0-.71-2.43l-5.97-9.26q-.6-.92-.56.18.16 4.9-.01 10.02-.06 2.03 1 3.72 3.38 5.34 6.42 9.67.12.17.32.16.19-.01.29-.17a.39.39 0 0 0-.04-.49l-.55-.55a.69.67 23.9 0 1-.19-.47"/><path fill="#086a05" fill-opacity=".996" d="M199.7 307.27q.02.47-1.01.51l-.03-11.09a.31.31 0 0 0-.56-.17l-6.25 9.43q.1-.95-.06-1.58l5.87-9.08q2.08-3.21 2.07.61zM190.97 305.26l.36-.51q.36.24.23.59-.09.21-.26.2-.17-.02-.33-.28"/><path fill="#7c0282" fill-opacity=".996" d="M190.62 334.56q0 .23.09.39.23.41.58.1.22-.18.14-.51l6.31-9.16q1.96-2.86 1.94.61l-.06 10.81q0 .74.41.12l6.81-10.5q.08-.12.21-.08l.25.08q.59.18.25.7l-6.42 9.96q-.61.96.42.49l10.79-4.89a.41.41 0 0 1 .57.29l.06.27q.05.24-.17.34l-12.45 5.62a3.37 3.37 0 0 0-1.45 1.25l-6.94 10.79a3.07 2.96 62.5 0 0-.47 1.59l-.06 11.7q-.9.14-.91-.79-.06-5.54-.03-11.13.01-.63-.33-1.15l-7.26-11.34a2.12 2.06-3.2 0 0-.9-.78l-12.77-5.79q-.22-.09-.18-.33l.05-.26q.09-.53.58-.3l10.7 4.86q1.1.49.45-.52l-6.38-9.94q-.3-.48.24-.65l.24-.07q.19-.06.3.11l6.73 10.42q.48.76.47-.14-.11-6.34-.11-12.14 0-.27.22-.43.19-.14.41-.16.41-.03.64.32l6.26 9.76q.17.25.46.36zm-.16 13.64.06-10.64q.01-.56-.29-1.04l-6.61-10.39a.24.23-61.4 0 0-.43.13q.02 5.23.02 10.65 0 1.93 1.08 3.63 3.09 4.84 6.28 9.5.19.28.53.25.14-.01.24-.11.46-.44-.11-.75-.37-.2-.6-.6a1.26 1.23-60.7 0 1-.17-.63m8.18-9.15a.35.35 0 0 0 .05-.19l.04-12.1a.35.35 0 0 0-.65-.19l-6.49 10.19a.35.35 0 0 0-.05.19l-.02 12.04a.35.35 0 0 0 .65.19z"/><path fill="#086a05" fill-opacity=".996" d="M191.43 364.53q.42.08.63-.23 1.35-1.96 6.4-9.9.25-.4.66-.15l.22.15q.23.14.08.36l-7.63 11.9q-.3.47-.3 1.02l-.1 14.32h-.75l-.16-13.88q-.01-1.09-.6-2.01l-7.34-11.4q-.15-.23.1-.36l.25-.13a.45.44 58.6 0 1 .58.15l7.16 10.88q.36.55.65-.04.15-.31.15-.68"/></svg>