<svg xmlns="http://www.w3.org/2000/svg" viewBox="0 0 382 382"><path fill="#fd0101" d="M75.85 0c3.58.93 7.7 1.23 10.68 3.31q3.33 2.34 6.71 4.61.44.29.96.2c4.29-.71 8.73-2.27 13.09-1.43q4.51.86 8.41 1.84.51.13.81.58l5.5 8.4a1.3 1.3 0 0 0 .78.55q3.57.87 7.47 1.55c4.16.73 8.32 4.19 11.79 6.67q.63.45 1.38.29 4.6-.98 8.76-1.67 2.42-.41 6.02.71.56.18.84-.34.74-1.35-.13-2.6-2.2-3.17-3.91-6.1c-2-3.41-6.88-6.03-10.2-8.3q-.42-.28-.52-.78L142.83 0h.76l1.46 6.82q.1.48.51.76c3.47 2.37 8.14 4.87 10.26 8.4q1.94 3.24 4.03 6.31c.6.89.64 1.99.22 2.96a.54.54 0 0 0 .38.75l3.68.79q.51.11.95-.17c3.42-2.15 7.39-5.59 11.18-6.31q4.52-.85 8.78-1.57a1.7 1.7 0 0 1 1.23.27l6.26 4.3a.41.4-71.1 0 0 .63-.31c.28-4.23 4.62-9.04 7.13-12.52a1.94 1.94 0 0 1 1.27-.79l9.74-1.64q.56-.1.89-.56L217.62 0h1.03l-5.43 7.84a2.9 2.9 0 0 1-1.91 1.21l-9.34 1.58q-.52.09-.84.5-2.87 3.8-5.55 7.75c-.98 1.44-1.17 3.06-1.55 4.68a1.09 1.09 0 0 0 1.23 1.33c4-.61 9.28-2.48 13.2-1.51 3.56.88 7.3.97 10.51 2.99q3.67 2.3 7.14 4.97.51.39.58-.24c.5-4.33 3.89-8.43 6.24-12.12q.58-.9 1.61-1.14l9.53-2.2q.45-.11.71-.5 2.2-3.38 4.35-6.77 1.46-2.29 3.65-3.86 3.14-2.24 6.27-4.51h1.2q.83.32 1.64 0h2.97c3.15.64 6.26.91 8.97 2.63q3.39 2.15 6.84 4.31.45.29.99.19c4.12-.84 8.68-2.69 12.91-1.98q4.32.72 8.38 1.53.48.1.79.49 1.79 2.2 3.66 4.8.85 1.18 3.48 3.23c2.45 1.91 5.98 1.86 8.93 2.43 1.85.35 3.2 1.33 4.72 2.34 2.15 1.43 4.48 1.21 6.87 2.43 2.29 1.16 4.51.42 6.76-.27a.76.75 76.9 0 0 .52-.85l-.35-2.1q-.11-.63-.63-1c-3.44-2.38-7.07-5.85-11.12-6.66q-4.03-.81-7.92-1.82a1.98 1.95-8.2 0 1-1.17-.86L311.99 0h.95l5.43 8.27q.28.43.79.56c4.18 1.08 8.76 1.33 12.46 3.82q3.15 2.12 6.44 4.57c1.29.96 1.49 2.31 1.5 3.78a.53.52-89.4 0 0 .5.52q5.85.23 11.82 1.68a1.65 1.64 34.4 0 0 1.31-.24q3.32-2.2 6.48-4.6c3.34-2.55 8.5-2.92 12.46-3.88q1.14-.28 2.14.35l7.73 4.85v.71q-.13.05-.23.13-.12.09-.26.01l-7.66-4.86a2.03 1.99-36.1 0 0-1.62-.24q-3.79 1.03-7.61 1.72-2.14.39-4.12 1.86-3.43 2.54-7.09 5-.43.29-.95.2L341.7 22.4q-1.91-.32-1.56 1.58l.84 4.7q.09.53.53.83 3.29 2.29 6.69 4.68 1.48 1.05 3.18 3.35 1.84 2.49 4.84 4.4.43.28.59-.21l2.35-7.2a1.3 1.28-4 0 1 .68-.77q3.95-1.88 7.36-3.82c3.58-2.03 8.81-1.7 12.84-2.11a1.32 1.31 20.1 0 0 .82-.38q.57-.56 1.14-.78v1.52q-4.73 1.07-9.91 1.44-2.61.18-4.39 1.18-3.48 1.94-6.88 3.6a1.93 1.91-4.2 0 0-.99 1.14l-2.25 7.16q-.16.53.23.91l3.97 3.94q.4.39.95.39 3.92-.01 7.79-.16c3.84-.15 7.88 1.92 11.48 3.45v.97q-3.17-1.1-6.25-2.36-2.71-1.12-4.72-1.06-4.27.12-8.6.16-.65 0-1.12-.45l-3.36-3.25q-1.34-1.31-1.15.56.45 4.46 1.2 8.68c.67 3.71-1.17 9.01-2.05 12.66a1.35 1.32 36.3 0 0 .17 1.02l5.78 9.32q.36.59.81.06 2.18-2.58 4.21-5.06c2.55-3.1 7.73-5.01 11.34-6.81q.56-.28.75-.88l2.43-7.66q.17-.51.36-.01l.2.53v1.22l-2.18 6.44a2.09 2.08 85 0 1-.97 1.16q-3.54 1.91-7.11 3.55-2.22 1.01-4.09 3.2-2.51 2.95-4.98 5.88-.44.52-.32 1.19l1.24 7.27a3.12 3.09 58.1 0 1-.53 2.33q-1.75 2.45-3.44 4.85c-.85 1.21-.63 2.68-.38 4.04a.52.51 73.8 0 0 .69.38c2.58-1 4.67-2.42 7.61-2.47q3.93-.07 7.69-.15c2.4-.05 4.6.94 6.77 1.92v.92q-1.71-.57-3.39-1.19-1.73-.64-3.51-.62-4.42.05-8.86.11-1.31.02-5.55 2.46-.47.27-.17.72l3.01 4.48a2.04 2.01-11.7 0 0 1.34.87q4.75.79 9.49 1.96c.99.25 1.75.81 2.65 1.23q.45.21.9-.01 1.94-.98 4.09-.82v.81l-3.21.51q-.97.16-.16.72l3.37 2.36v.97l-4.36-2.69q-.44-.27-.89 0l-6.82 4.13a2.47 2.46 36 0 1-1.84.29l-9.35-2.22q-.62-.14-.74.48c-.45 2.38.28 3.91 2.18 5.54q3.68 3.15 7.1 6.03.43.37.49.93l.57 6.14q.06.63.68.71 4.79.61 10.59 1.87 1.83.39 2.39 2.11v.66l-.18.26q-.32.47-.51-.06-.31-.87-.85-1.51a1.52 1.51-14.5 0 0-.89-.52l-10.08-1.88q-.66-.12-.83.52-.54 2.06.46 2.89 3.42 2.86 6.7 5.64c1.89 1.6 3.9 2.01 6.18 2.72v.92q-4.59-.94-5.87-2.03-3.49-2.95-7.16-6.12c-1.34-1.16-1.53-2.25-1.42-3.9a.23.22 85 0 0-.27-.23l-3.06.62a.41.4-6.3 0 0-.32.39c-.02 2.78.3 4.94 2.9 6.69 3.08 2.08 6.51 5.25 10.05 6.12q2.51.61 4.82 1.43a.3.3 0 0 1 .2.33l-.06.42q-.05.36-.4.25l-5.94-1.84q-.76-.23-.33.44l4.32 6.74a2.16 2.14-55.6 0 1 .3 1.63q-.91 4.38-2.02 8.97c-.36 1.5.18 2.49 1.17 3.46q.36.35.7-.02 1.06-1.14 2.39-1.64v.88q-1.23.76-1.88 1.84a.84.84 0 0 0 0 .88l1.88 3.02v.75q-.42.65-.3 1.83.05.5-.45.4-1.27-.27-2.36-.98-.19-.13-.32.06v.01q-.13.18.05.32 2.08 1.57 3.38 3.86v1q-.07.19-.16.31-.26.33-.42-.06-1.22-3.07-4.01-4.62-.5-.28-1.02-.02c-3.03 1.49-8.11 3.2-9.81 5.98q-.25.42.23.42l8.52-.05a2.49 2.45-22.2 0 1 1.75.72l4.92 4.92v1.62q-3.91-1.04-7.82-1.93-2.92-.67-5.55-.21-8.32 1.46-16.8 1.63c-3.56.08-6.95 2.57-10.09 3.91-3.22 1.37-5.58 4.81-7.94 7.5q-2.11 2.41-2.83 4.76-1.13 3.68-2.36 7.15a2.92 2.92 0 0 1-1.45 1.65l-6.01 2.97q-.69.34-.63 1.11l.49 6.71q.05.66.7.58l6.1-.72q.7-.08 1.24-.53 1.2-1 2.79-.73 5.16.9 10.38 1.92.51.1.96-.17c2.59-1.56 5.18-3.19 8.3-3.46q3.72-.32 7.73-.92a1.43 1.42 15.4 0 0 .9-.51q2.4-2.9 4.73-6.07c2.09-2.84 5.02-4.15 8.02-5.7q2.1-1.08 3.73-3.24 2.72-3.6 5.41-7.46v1.61l-4.35 6.52q-.3.44.2.62 2.1.74 4.15-1.13v1.16q-.66.63-.43 1.54.24.9-.59.48-.17-.09-.26-.25a.82.8 51.3 0 0-1.29-.16q-1.22 1.32-2.14 2.96-.24.42-.13.9c.64 2.94 1.32 5.53.63 8.7-.57 2.6-1.23 8.55-3.41 10.08q-.41.28-.12.68 2.93 4.05 5.66 8.17.61.91 2.08.89v.69q-.5.54-1.54.1-.71-.29-1.15-.92-2.94-4.18-5.84-8.4-.36-.53-.9-.19l-5.72 3.59a2.15 2.12-10.2 0 0-.95 1.35q-.82 3.87-1.66 7.7c-.75 3.39-3.35 6.34-5.39 9.26-.76 1.07-.52 2.14-1.37 3.23q-2.99 3.83-5.96 7.74-.44.57-.5 1.3-.46 5.75.07 11.75.06.65.54 1.09 3.4 3.11 6.73 6.3c1.16 1.1 1.64 2.39 2.26 3.8q.26.59.77.2c1.53-1.14 2.92-1.84 3.99-3.55q2.58-4.13 5-7.95a1.29 1.27 9.3 0 1 .8-.57l10.82-2.58v.94l-9.92 2.35a1.96 1.95 8.9 0 0-1.2.87q-2.71 4.44-5.32 8.48-.63.96-3.58 2.79-.46.28-.41.82c.31 3.09 3.52 3.81 6.1 3.4a1.47 1.46 16.4 0 0 .87-.47q3.08-3.5 6.28-6.99c1.3-1.41 3.1-1.9 4.73-2.81q.45-.25.62-.72.69-1.84 1.83-2.76v1.12q-.54.82 0 1.49-.02.08 0 .16-1.92 3.27-3.44 6.74-1.02 2.34-2.69 4.05-2.08 2.13-4.07 4.3a.42.41 39.8 0 0 .06.62c2.79 2.03 4.76 3.96 6.27 7.31q1.8 4.03 3.87 7.97v.38q-.77.51-1.57-1.13-2.13-4.37-4.11-8.88-.51-1.15-5.12-4.96-.4-.32-.78.01c-1.84 1.58-5.53 2.7-7.88 3.79a3.89 3.88 64.8 0 0-1.88 5.22q1.68 3.48 3.16 7.02c1.27 3.06 1 5.73 1.07 8.85q.01.69.69.54c1.49-.34 2.6-.39 3.97-1.26q3.45-2.18 6.85-4.48c1.96-1.33 3.54-1.09 5.6-.38v.92l-3.22-.5q-.52-.08-.95.22-3.97 2.69-7.9 5.19c-1.11.71-2.35.92-3.64 1.12a1.82 1.81-28.1 0 0-.95 3.12q3.43 3.2 6.56 6.2c1.52 1.46 2.22 3.02 3.01 4.88a.4.39-28 0 0 .58.17l6.51-4.32v.98l-5.85 4.05q-.6.41-.31 1.08l1.75 4.11q.21.5.72.7l3.69 1.41v.76q-2.58-.22-4.79-1.78-.43-.31-.62-.81l-.83-2.24q-.41-1.12-.65.05l-1.43 6.87q-.14.66.54.55l7.15-1.19q.34-.06.4.28l.06.28q.08.38-.31.45l-7.86 1.28q-.49.08-.77.5l-5.38 8.11a2.07 2.05 10.8 0 1-1.31.88l-5.25 1.07a.62.61-8.6 0 0-.5.67q.27 2.41.62 5.05c.46 3.52-1.04 7.5-2.22 10.85h-1.28q-2-1.47-3.42-4.88-.2-.51-.72-.67l-2.69-.84q-.59-.19-1.1.17l-5.01 3.5q-.55.38-.15.92.65.88.57 1.8h-.76q-.27-.8-.72-1.32-.35-.41-.81-.12l-2.23 1.44h-2.65l-7.77-1.6q-1.62-.33-2.99-1.25l-7.63-5.07a1.07 1.06 32 0 0-1.52.35q-1.67 2.93-4.52 4.51a.87.86-15.7 0 0-.45.79l.08 2.27h-.81l-.43-1.39q-.16-.52-.62-.22l-2.45 1.61h-1.47l4.31-3.39q.41-.32.09-.74c-1.78-2.31-3.57-1.72-5.82-2.18q-4.26-.88-8.22-1.63-.96-.18-1.51-.99l-5.44-8.1a1.42 1.42 0 0 0-.9-.59l-8.44-1.63a2.75 2.75 0 0 0-3.22 2.19l-2.05 10.95q-.1.56-.57.89l-4.31 3.07q-.48.34-.44.93.01.13.06.26.32.8-.54.71-1.06-.12-1.55.25h-1.45l-.3-.14q-.47-.23-.03-.51l.35-.23q.49-.31.15-.79l-2.01-2.86q-.35-.49-.95-.6l-9.33-1.64q-.62-.1-.54.52l.75 6.25h-.84l-1.22-6.94q-.09-.53-.55-.82l-7.62-4.85a2.84 2.82-80.3 0 1-1.22-1.74q-.74-3.3-1.52-6.71-.26-1.1-.84-.16-.15.24-.45.28a.03.03 0 0 0 0 .06l.3.14q.13.05.08.18l-3.41 9.79a.39.39 0 0 0 .26.5q4.9 1.4 9.85 3.11.64.23 1.59 1.83 1.54 2.6 2.82 5.33h-.97l-3.16-5.78q-.26-.47-.77-.63l-9.02-2.77q-.67-.2-.63.49l.49 8.69h-.84l-.62-9.1a1.72 1.72 0 0 0-.61-1.2l-8.13-6.69q-.4-.33-.92-.39-.71-.08-1.25-.44-3.26-2.1-7.93-5.29-.51-.34-1.11-.22l-10.53 2.09q-.54.1-.54.65l.05 4.55q.01.64.63.76l8.5 1.74a2.45 2.44-11.1 0 1 1.55 1.04q2.37 3.57 4.77 7.16c.6.89 1.31 1.13 2.16 1.67q.72.45 1.53 1.35 1.06 1.18 2.61 2.32h-2.45q-2.75-3.05-4.62-3.83c-3.23-1.34-6.62-2.19-9.17-4.73-2.25-2.25-4.18-4.51-6.85-6.18q-4.63-2.91-8.98-5.94a.33.33 0 0 0-.5.14q-1.38 3.41-2.94 7.21-.94 2.29-.91 4.82.07 4.28-.03 8.51h-.85q-.09-4.24-.07-8.5.02-2.9 1.11-5.62 1.3-3.25 2.6-6.33a3.77 3.76-61.9 0 0-1.39-4.59q-2.43-1.61-4.8-3.19-2.3-1.53-3.85-3.78-1.8-2.61-3.63-5.37a.52.52 0 0 0-.67-.17c-3.4 1.77-6.98 2.73-9.66 5.82q-2.38 2.76-5.01 5.65-.64.69-1.57.79c-4.11.43-9.18-.17-12.85 1.75q-2.76 1.44-5.45 2.58c-3.43 1.46-6.72 6.16-9.31 9.06q-.34.37-.37.88-.33 5 .82 6.75 1.36 2.06 2.38 4.27h-.83c-2.23-2.7-2.65-4.8-3.41-7.67q-.12-.43-.29-.02l-3.26 7.69h-1.81q-3.24-2.57-3.87-3.9-2.26-4.8-4.37-9.68a1.32 1.29 44.4 0 1-.02-.96l3.48-9.35a1.83 1.78 43.3 0 0-.06-1.39c-1.75-3.73-4.5-8.39-4.53-12.44q-.02-2.74-.1-5.66-.15-5.22-2.19-.41c-1.49 3.52-3.59 7.89-3.35 11.73q.23 3.82.28 7.48a2.13 2.12 65.2 0 1-.52 1.42q-2.63 3.04-5.54 5.88-1.73 1.69-2.67 4.18-1.34 3.57-2.54 6.86c-.76 2.1-.37 4.06-.43 6.24h-.78c-1.14-4.98 1.12-8.95 2.82-13.33q.99-2.54 2.85-4.52 2.76-2.95 5.32-5.64a2.01 1.96 66.2 0 0 .54-1.44c-.2-4.15-.9-9.24.64-13.05q1.46-3.61 2.81-7.19.57-1.51 2.03-1.76a1.52 1.51 4.5 0 0 1.19-1.01q1.13-3.36 2.49-6.89c1.51-3.93 5.45-7.22 8.24-10.29q.32-.35.3-.81-.11-4.14-.37-8.36c-.24-3.81 2.46-9.04 3.76-12.64q.18-.51.67-.75l3-1.51q.53-.26.64-.84l1.16-6.21q.11-.6-.2-1.12c-2.04-3.36-5.53-7.11-6.36-10.9q-.69-3.16-1.32-6.6-.34-1.81-1.23-.2c-.78 1.41-1.61 2.39-3.34 2.6q-3.99.48-7.57.79-2.39.21-4.49 1.48c-3.02 1.82-6.69 3.15-8.94 5.85q-1.94 2.34-3.94 4.88-1.82 2.3-2.67 5.37-.97 3.45-1.92 6.65a3.34 3.33-6.2 0 1-1.59 1.97l-8.1 4.43q-.48.26-.65.79-1.19 3.61-2.34 7.71-.76 2.68-.37 5.61.51 3.88.86 7.45a1.87 1.86-29.8 0 1-.36 1.32q-2.37 3.13-4.98 6.16c-2.38 2.75-3.12 7-4.1 10.5q-.73 2.63-.41 5.37.31 2.68.64 5.44.32 2.78 1.68 5.26 1.8 3.28 3.69 6.71a2.2 2.19-51.3 0 1 .18 1.68l-2.75 9.49q-.14.5.11.96l3.54 6.59h-.93l-3.66-6.57a1.27 1.25-52 0 1-.11-.95l2.72-9.35a2.43 2.41-52 0 0-.22-1.86c-2.12-3.74-4.98-7.78-5.34-12.21-.3-3.64-1.2-7.16-.2-10.66q.87-3.05 1.8-6.15c1.21-4.02 4.69-7.39 7.35-10.71q.44-.55.36-1.26c-.47-4.04-1.67-9.27-.46-13.14q1.16-3.69 2.2-7.42a2.67 2.65-6.7 0 1 1.29-1.62l8.4-4.65a1.44 1.38 85.9 0 0 .66-.79c1.26-3.79 1.96-9.11 4.48-12.14 2.33-2.8 4.46-6.49 7.64-8.23q2.76-1.51 5.62-3.22c3.53-2.11 9.16-2.13 13.38-2.57q.62-.06.97-.58l3.87-5.63q.31-.46-.23-.57l-9.88-2.19q-.98-.21-1.8.36-3.06 2.14-6.46 4.2c-3.67 2.23-8.97 2.4-13.11 3.15a1.43 1.42-24.6 0 1-1.36-.5q-.89-1.12-2.48-.82l-6.99 1.28c-3.86.71-8.72-1.01-12.7-1.78a1.53 1.52-54.9 0 0-1.07.19c-3.6 2.23-7.52 5.67-11.67 6.33q-3.96.62-7.88 1.36a2.2 2.15-32.5 0 1-1.64-.34l-8.09-5.61q-.42-.29-.91-.2l-9.57 1.71a5.66 5.56 45.5 0 1-2.2-.04l-9.67-2.08q-.54-.11-.84-.57-2.38-3.5-4.58-6.93c-2.5-3.9-2.63-8.61-3.53-12.97a1.27 1.26 12 0 0-.51-.78c-3.4-2.46-8.07-4.71-10.3-8.27q-2.37-3.77-4.5-7.07a1.6 1.57-56.2 0 1-.22-1.18l2.06-9.83q.11-.5-.16-.93L0 213.8v-1.35q2.14 2.54 3.48 5.4.54 1.12.36 1.9-1.07 4.59-1.95 9.27-.1.49.17.91 2.06 3.16 4.26 6.53 1.47 2.24 3.7 3.78 3.09 2.13 6.46 4.45a2.1 2.1 0 0 1 .87 1.34c.77 3.98 1.05 9.36 3.34 12.67q2.33 3.36 4.2 6.42a1.72 1.72 0 0 0 1.15.79q3.72.71 7.78 1.67 2.66.63 5.48-.01 3.51-.8 7.04-1.35a3.07 3.07 0 0 1 2.2.51l7.77 5.39q.44.3.97.2 3.81-.74 7.92-1.39 2.18-.34 4.62-1.9 3.15-2.02 6.24-4.09a3.1 3.09-56.2 0 1 2.33-.47q3.61.69 7.48 1.66c3.31.82 7.32-.37 10.74-1.06q1-.2.16-.79l-4.6-3.19a1.16 1.14 57 0 0-.85-.19q-3.82.63-7.63 1.4c-3.78.75-7.79-.56-11.55-1.41q-3.06-.7-5.17-2.32c-3.14-2.39-6.52-3.97-8.72-7.59q-1.96-3.25-4.14-6.51-.27-.41-.76-.51-4.17-.83-8.45-1.87-2.54-.62-4.71-2.31-2.93-2.27-6.32-4.41a1.03 1 11.3 0 1-.47-.68l-1.87-10.39q-.1-.56-.56-.87-3.34-2.28-6.42-4.45-2.37-1.68-3.92-4.14-2.13-3.36-4.07-6.48-.27-.43-.76-.54-4.09-1-8.31-1.93c-3.07-.68-5.02-2.42-7.49-4.17v-1.01q1.96 1.05 3.73 2.37 1.83 1.36 3.73 1.79 4.32.96 8.46 1.9a2.35 2.32-9.1 0 1 1.46 1.04c2.19 3.49 4.43 8.18 7.81 10.41q3.21 2.12 6.32 4.36a2.64 2.61 13.3 0 1 1.05 1.68l1.66 9.52q.11.63.64.98 3.22 2.16 6.46 4.57c3.28 2.44 8.37 2.71 12.29 3.69a2.34 2.3 79.2 0 1 1.34.93q2.2 3.16 4.21 6.61c1.95 3.34 5.57 5.03 8.55 7.29q1.85 1.39 4.96 2.1 2.72.61 5.46 1.21 2.6.57 5.28.1 4.03-.7 8.11-1.35.56-.09 1.02.23l5.95 4.14a1.21 1.2 46 0 0 1.35.03q3.2-2.03 6.56-4.24 2.36-1.55 3.97-3.86 2.24-3.2 4.29-6.17.61-.89 1.67-1.09l9.52-1.75q.54-.1.87-.56c2.39-3.35 5.96-7.45 6.67-11.4q.69-3.82 1.62-7.63a2.18 2.14 81.1 0 1 .93-1.3q3.25-2.11 6.57-4.29 2.27-1.49 3.83-3.72c1.71-2.45 3.45-5.79 5.8-7.38q.49-.33.15-.81-1.95-2.78-3.8-5.65-1.54-2.38-2.11-5.28-.7-3.49-1.39-7.01c-.59-3.02 1.41-5.45-3.11-6.53q-3.04-.72-6.16-1.45-2.81-.66-5.08-2.24-3.28-2.28-6.8-4.95-.47-.35-.57-.93l-1.66-9.93q-.08-.47-.46-.76c-3.26-2.48-8.06-5.01-10.05-8.35q-1.65-2.75-3.46-5.52c-2-3.06-2.25-7.25-2.82-10.88q-.46-2.85.2-5.74.86-3.75 1.72-7.43.11-.47-.13-.9-1.82-3.27-4.56-7.33-1.1-1.63-1.31-2.99-.76-4.82-1.56-9.3-.19-1.03.42-1.88l5.69-8.03q.32-.45.23-1c-.71-4.18-2.19-9.24-1.21-13.2q1-4.05 1.95-8a1.92 1.89-8.8 0 1 .88-1.18q3.04-1.79 6.3-4c3.83-2.59 8.99-2.71 13.42-3.48a1.15 1.14-76.5 0 0 .71-.44q2.35-3.11 4.42-6.29c2.43-3.72 7.29-5.86 10.89-8.16a2.43 2.42-54.8 0 1 1.83-.32l9.64 2.17q.51.11.95-.16l8.07-5.07q.49-.31.4-.89c-.23-1.46-.27-2.38-1.14-3.7q-2.59-3.97-4.91-7.62a2.93 2.93 0 0 1-.39-2.18l1.34-6.21q.14-.67-.53-.8c-2.36-.43-4.01-1.11-6.58-.56q-4 .87-8.09 1.58a2.83 2.77 57.2 0 1-2.1-.48c-3.16-2.25-7.31-5.78-11.09-6.42q-3.93-.66-7.86-1.62a1.87 1.86 79.9 0 1-1.14-.8l-5.43-8.28q-.32-.48-.88-.59-3.7-.77-7.9-1.71c-3.71-.84-8.74.77-12.61 1.48a2.56 2.55-32.9 0 1-1.91-.41Q89.69 6.7 86.46 4.5q-2.64-1.8-5.21-2.29Q77.48 1.49 74 .83a2.37 2.37 0 0 0-1.78.38q-2.99 2.05-6.19 3.98c-3.33 2.01-5.85 6.93-8.17 10.22a2.02 1.99 11.9 0 1-1.29.83l-9.72 1.84q-.48.09-.77.49-2.36 3.24-4.75 6.79c-2.34 3.47-2.52 8.32-3.54 12.35a2.27 2.26-10.3 0 1-.9 1.29q-3.2 2.24-6.55 4.24c-3.22 1.93-4.83 5.46-7.01 8.39-2.34 3.14-2.58 7.38-3.43 11.13-.86 3.75.95 8.96 1.53 12.86a1.58 1.53-32.6 0 1-.26 1.11l-5.69 8.3a1.48 1.44-34.4 0 0-.22 1.1q.77 3.85 1.45 7.97.41 2.45 2.12 4.93 2.17 3.14 4.23 6.51.27.43.17.93-.75 4.03-1.62 8.09-.56 2.59-.1 5.12.7 3.82 1.42 7.63a2.78 2.76-33.7 0 1-.41 2.02c-2.12 3.2-5.74 7.24-6.42 10.96q-.69 3.78-1.63 7.95a2.43 2.41 80.1 0 1-1.03 1.48l-8.18 5.31q-.54.35-.66.99-.71 3.75-1.64 7.74c-.87 3.71.75 8.81 1.46 12.7a2.41 2.38-32.6 0 1-.42 1.85l-4 5.53v-1.47l3.21-4.71q.28-.41.2-.91c-.69-4.16-2.29-9.07-1.42-13.2q.82-3.92 1.71-7.84a2.48 2.45-10.4 0 1 1.07-1.53l8.21-5.38q.43-.28.54-.78l1.94-9.27a6.3 6.22 68.6 0 1 .97-2.26l5.35-7.79a1.43 1.4 56.7 0 0 .22-1.13c-.91-4.16-2.38-9.39-1.34-13.63q.91-3.69 1.55-7.25.09-.47-.16-.88c-2.16-3.56-5.46-7.4-6.23-11.2q-.95-4.69-1.53-8.77-.1-.71.31-1.29l5.54-8.1q.36-.53.25-1.15-.72-4.04-1.4-7.39-.54-2.72-.02-5.35.55-2.79 1.08-5.44.58-2.88 1.95-5.14 1.82-2.99 3.99-5.98c2.43-3.34 6.75-5.37 10.26-7.8q.54-.37.68-1c.91-4.07 1.24-9.19 3.72-12.63q2.41-3.35 4.7-6.78a1.46 1.44 11.4 0 1 .95-.62l9.56-1.81a2.54 2.53 11.1 0 0 1.66-1.11q2.05-3.12 4.15-6.09 1.61-2.29 4.07-3.9Q68.97 2.14 72.18 0zm193.37 21.84 9.58-.1q.81-.01 1.39-.57 2.79-2.75 5.39-5.56c2.64-2.84 7.36-4.22 11.03-5.81 2.59-1.12 6.64 1.34 9.17 2.3q.64.24.24-.31l-2.65-3.62q-.42-.57-1.12-.68-3.53-.57-7.43-1.25-2.59-.45-5.12.11-4.05.9-7.96 1.78a2.06 2.02 54.9 0 1-1.57-.29q-3.2-2.07-6.48-4.16-2.46-1.55-5.31-2-3.72-.59-7.42-1.11-.66-.09-1.2.29-3.03 2.08-6.4 4.39c-3.44 2.35-5.46 7.11-7.81 10.54a2.15 2.14-78.7 0 1-1.3.87l-9.5 2.12a1.38 1.38 0 0 0-.87.6c-2.59 3.97-6.35 8.39-6.19 13.12q.02.54.32 1l4.75 7.24a1.3 1.3 0 0 0 .88.59q5.01.91 10.11 2.16c.75.19 1.29.72 1.99 1.06q.5.24 1.01.02l8.31-3.57q1-.43 1.36-1.47 1.27-3.62 2.88-7.27c1.7-3.83 5.49-6.62 8.29-9.7a2.26 2.26 0 0 1 1.63-.72m16.12 56.13c2.88 1.91 6.62 3.78 8.53 6.61a.88.86 67.5 0 0 .87.37c3.11-.56 6.54-1.73 9.69-1.1q4.56.9 9.12 1.95.54.13.8.62c.61 1.15 1.28 1.82 2.63 2.06 3.54.65 7.95 1.06 10.9 3.09q3.45 2.36 6.94 4.62.42.27.92.19 3.75-.68 7.43-1.48c3.09-.67 5.69-.24 8.55.61a.86.85-73.2 0 0 1.06-.57l2.51-7.82q.14-.44-.06-.86c-1.95-3.93-4.89-8.01-5.21-12.35q-.31-4.19-.6-8.25a1.63 1.62-27.3 0 1 .38-1.17l6.4-7.55q.41-.48.36-1.11-.36-4.21-.84-8.11c-.32-2.62-2.17-4.9-3.68-7.09q-.3-.45-.8-.65l-7.47-3a2.34 2.34 0 0 1-1.27-1.24l-3.85-8.93q-.24-.56-.8-.78l-4.29-1.68a.96.95 43.3 0 0-.75.02c-2.41 1.1-3.79-.54-5.64-1.53-2.32-1.24-6.82-.6-9.51-.57a2.28 2.26 66.3 0 1-1.59-.63l-3.86-3.73a2.7 2.66-15.1 0 0-1.15-.65q-2.05-.53-3.14-2.72-.28-.57-.88-.81l-8.15-3.31q-.6-.24-1.18.02-3.59 1.59-7.34 3.07c-3.71 1.47-6.91 5.92-9.83 8.68a1.96 1.92-66.4 0 1-1.29.52l-9.75.12q-.81.01-1.37.6c-2.74 2.91-6.54 5.82-8.03 9.47q-1.54 3.77-2.95 7.44a2.62 2.6 89.3 0 1-1.42 1.47l-8.23 3.5a.28.27 51.3 0 0-.05.48l5.37 3.62a2.43 2.41-78.6 0 1 1.02 1.55l1.81 9.47a1.83 1.81 11.6 0 0 .8 1.2q3.15 2.06 6.41 4.35 2.25 1.59 3.82 3.98l4.21 6.38q.29.44.78.6c3.82 1.26 6.13.72 9.61-.15q1.67-.42 4.06 1.18M313.79 18l2.81 2.8q.52.53 1.26.51l5.65-.11q.77-.01.2-.53c-2.44-2.23-6.48-2.59-9.73-3.04a.22.22 0 0 0-.19.37M166.9 26.72c-2.34 1.52-3.99.98-6.35.26a.71.7 14.2 0 0-.89.52l-1.37 6.29a1.8 1.76-56.2 0 0 .25 1.36c2.04 3.12 5.86 7.76 6.06 11.36q.04.72.75.6l9.46-1.59q.58-.1.92-.57 2.11-2.95 4.31-6.06 1.74-2.47 4.15-4.04 3.29-2.14 6.62-4.1.63-.37.79-1.09l.99-4.36q.15-.63-.39-1l-6.3-4.32q-.53-.37-1.17-.24-4.07.86-8.03 1.45-2.18.33-4.55 1.98-2.63 1.83-5.25 3.55m162.67-4.14q-.24-.3-.63-.28-.5.02-.08.29.74.49 1.42 1.08.18.16.41.17.29.01.46-.13.39-.35-.11-.48l-.77-.2q-.42-.12-.7-.45m9.71 3.13a.16.16 0 0 0 .22-.18l-.5-1.95a.66.65-15.3 0 0-.81-.46l-1.89.55q-.81.23-.05.59zm-145.41-.17a.24.23 15.5 0 0-.3.16l-1.18 4.78a1.26 1.25-9.6 0 1-.54.75c-3.54 2.29-8.63 4.5-10.96 8.09q-2.19 3.36-4.6 6.53-.37.49-.97.59l-9.81 1.65q-.52.08-.43.6l1.02 5.75a1.34 1.32-77.2 0 0 .54.87q3.24 2.27 6.59 4.53c3.48 2.34 5.62 6.95 7.85 10.42a1.8 1.8 0 0 0 1.13.79c4.02.92 8.92 1.31 12.23 3.56q3.74 2.56 7.01 4.94a2.17 2.15 14.3 0 1 .89 1.48q.68 5.17 2.13 10.73.04.17.22.17h.47q.35-.01.27-.35l-.87-3.9q-.12-.55.18-1.02l5.43-8.53q.31-.49.19-1.06c-.77-3.82-2.56-8.67-1.96-12.52q.66-4.3 1.42-7.93c.62-2.93 3.24-6.2 4.9-8.87 2.26-3.65 6.7-5.94 10.09-8.38a1.75 1.75 0 0 0 .71-1.16l.73-4.64q.14-.86-.57-1.37-3.26-2.32-6.6-4.54-2.24-1.48-4.94-2.05c-3.55-.76-7.11-2.01-10.67-1.23-2.67.59-7.26 1.91-9.6 1.16m156.87 12.83c-.53-.74-.71-1.51-1.48-2.08q-3.45-2.55-7.18-5.25-.72-.51-.37.29l1.56 3.67a2.31 2.3-.2 0 0 1.25 1.23l5.99 2.43a.19.19 0 0 0 .23-.29m-125.12 1.66-7.82 5.53a5.67 5.63 88.1 0 0-1.57 1.69q-1.76 2.91-3.77 5.87-1.48 2.17-1.97 4.92c-.65 3.67-1.81 7.74-.85 11.41q.98 3.75 1.69 7.39a2.55 2.53-34.8 0 1-.34 1.85l-5.18 8.18q-.34.54-.19 1.17l1.04 4.44a1.28 1.26-78.9 0 0 .47.71q2.04 1.48 4.27 2.94c2.99 1.97 4.65 5.75 6.65 8.65q.36.51.88.15c2.92-2.04 4.74-3.52 8.37-4.31q.58-.12.33-.66c-.93-2.04-2.03-4-2.12-6.34q-.17-4.91-.07-9.7a1.55 1.53-22.6 0 1 .44-1.05l7.04-7.22q.36-.38.37-.9c.06-4.1-.71-9.13.76-12.9 1.48-3.78 2.65-7.82 5.56-10.77q2.47-2.5 5.24-5.19a.52.51-48.7 0 0-.05-.78q-.74-.55-1.59-.75-4.72-1.09-10.09-2.13a1.58 1.56-10.5 0 1-1.02-.69l-4.33-6.61q-.55-.83-.72.15l-.65 3.72q-.13.77-.78 1.23m128.69 2.17 1.04 1.79q.27.47.56.01.15-.24.01-.51-.48-.93-1.33-1.54-.73-.52-.28.25m-82.52 35.95a2.42 2.41 78.4 0 1-1.54-1.02c-2.27-3.36-4.51-8.02-7.92-10.36q-3.02-2.07-6.11-4.08a3.72 3.72 0 0 1-1.61-2.4l-1.75-9.17q-.1-.5-.52-.79l-5.88-4.03q-.43-.29-.8.09-2.7 2.84-5.4 5.55-1.81 1.81-2.76 4.13c-1.4 3.44-3.43 7.2-3.33 10.68q.1 3.75.17 7.64a2.95 2.95 0 0 1-.84 2.11l-6.7 6.82q-.42.43-.42 1.02.02 4.41.06 8.89c.02 2.3 1.23 4.45 2.17 6.54q.25.56.84.43l5.15-1.06a1.55 1.52 10.8 0 0 .93-.62c2.39-3.39 4.44-7.93 7.98-10.36q3.26-2.24 6.67-4.48a2.79 2.78 33.6 0 1 2.05-.41l9.49 1.8q.51.09.95-.2 3.85-2.58 7.63-5.17c.7-.47 1.61-.55 2.36-.98q.52-.3-.07-.41zm-144.88-11q-3.88.66-7.84 1.35-2.86.5-4.82 1.84-3.19 2.18-6.48 4.11a1.46 1.46 0 0 0-.68.93q-.93 4.09-1.86 8.06-.59 2.51-.11 4.69.88 3.94 1.37 8.3a1.58 1.55 60.7 0 1-.29 1.08l-5.72 7.99a1.8 1.8 0 0 0-.3 1.3q.58 3.55 1.25 7.45.48 2.76 1.96 5.14 2 3.22 3.96 6.35.62 1 .35 2.14-.82 3.46-1.57 6.64-.73 3.1-.31 6.01.43 3.06 1.02 6.01.53 2.68 2.05 5.09c1.97 3.13 3.53 6.45 6.65 8.5q3.21 2.11 6.09 4.29a2.64 2.6 14.3 0 1 .99 1.64l1.55 9.47q.1.6.59.96 3.35 2.47 6.57 4.76 2.13 1.53 4.8 2.08 3.79.79 7.56 1.72.56.14.91.59l.54.7q.59.76.7-.19.64-5.64 2.13-8.01 2.28-3.62 4.88-7.22a1.54 1.51 59 0 0 .28-1.17q-.67-4.17-1.56-8.3c-.83-3.81.95-9.19 1.71-12.96a1.86 1.85-11.1 0 1 .81-1.2l8.13-5.41q.57-.38.73-1.04c1.02-4.17 1.17-8.81 3.57-12.58q2.41-3.78 4.82-7.04.38-.52 1.02-.64 3.91-.75 7.83-1.62c3.99-.88 8.82.67 12.92 1.52a2.32 2.31-55.8 0 0 1.76-.34q3.31-2.23 6.6-4.41c2.51-1.67 5.04-2.05 7.84-2.42 2.76-.36 4.1-3.01 3.94-5.45q-.03-.5-.33-.91-3.04-4.17-5.66-8.19c-.83-1.27-.6-5.25-2.75-6.16q-.46-.19-.74-.61-.82-1.22-1.06-2.76-.67-4.28-1.44-8.18-.1-.48-.49-.76c-3.33-2.4-7.25-5.87-11.36-6.69q-3.89-.77-7.93-1.79a1.86 1.83-9 0 1-1.09-.78c-2.23-3.5-4.47-8.28-8.09-10.63q-3.32-2.14-6.57-4.58-.44-.34-.54-.88l-.99-5.46q-.15-.82-.86-.38l-7.52 4.7a2.44 2.44 0 0 1-1.85.31l-9.02-2.1q-1.03-.24-1.92.33-3.08 1.98-6.3 3.95-2.16 1.32-3.61 3.36-2.34 3.31-4.58 6.47a2.56 2.56 0 0 1-1.64 1.03m228.05.01 2-8.91q.22-.97-.42-.21l-5.82 6.95q-.35.42-.31.96c.3 3.97.11 9.44 2.06 12.92q1.81 3.23 3.56 6.84a2.65 2.63 41 0 1 .14 1.93l-2.41 7.55q-.19.61.44.73l2.33.45a1.19 1.19 0 0 0 1.41-1.27c-.23-2.5-.51-4.54.33-7q1.36-3.97 2.61-7.9a3.82 3.82 0 0 0-.4-3.21l-5.25-8.31q-.45-.71-.27-1.52m-75.23 11.25q7.08 3.12 11.84 7.3a.54.53 33.5 0 0 .83-.16l.21-.42q.43-.87-.38-1.4l-9.16-6.01q-.08-.05-.17-.06-1.46-.07-3.17.64a.06.06 0 0 0 0 .11m12.18 8.09a1.32 1.31 55.7 0 1-1.02-.2q-3.6-2.45-7.04-4.86c-2.29-1.61-5.79-2.44-8.53-2.3-4.17.22-8.33 4.12-11.88 6.41q-1.03.67-2.23.44l-9.23-1.77q-.51-.09-.95.18-3.37 2.11-6.69 4.43-2.3 1.61-3.9 4.08-1.76 2.73-3.57 5.45c-1.62 2.46-4.68 2.23-7.26 2.84a.26.25-15.2 0 0-.19.33l.69 2.13a.33.32 79.1 0 0 .32.22q4.61-.06 9.12-.23c4.04-.15 8.64 2.21 12.45 3.77a2.03 2.02 44.2 0 0 1.57-.02q3.35-1.48 6.87-3.03 2.48-1.08 5.05-1.2 2.84-.13 5.31-.13.5 0 .86-.36c.76-.78 1-1.62 1.98-2.3q4.28-2.94 8.46-5.67a1.96 1.95 33.9 0 1 1.46-.28l9.49 1.9q.58.12 1.11-.16 2.25-1.23 4.53-2.97.42-.32-.09-.46c-.25-.07-.61-.39-.76-.6q-1.96-2.87-3.86-5.62a.78.78 0 0 0-.8-.31zm67.49 6.85 2.92-4.2a1.87 1.85-32.4 0 0 .31-1.36l-.9-5.27q-.17-.98-.51-.04-1.32 3.71-2.44 7.36c-.34 1.12-.03 2.24.1 3.37q.08.76.52.14m-60.67-1.65a1.26 1.26 0 0 0 1.8.29c3.31-2.51 8.72-2.97 12.77-3.69q.61-.11.69-.73.03-.33-.21-.55-.32-.29-.78-.38-4.09-.87-8.09-1.69-2.77-.57-4.84-.05-2.21.55-4.71.9a.37.36 68.7 0 0-.25.57zm20.54 3.95-4.08-6.15a.96.95-22 0 0-.98-.41q-5.56 1.1-10.84 2.21-.68.14-1.34.98-.35.44.21.54c3.73.63 7.02.82 10.39 3.03q3.24 2.14 6.45 4.28a2.3 2.27 11.4 0 1 .96 1.42l1.61 7.81a.68.67 87.5 0 0 .57.53c4.65.58 7-2.95 10.44-6.74q.75-.82 1.71-1.38.48-.28.06-.65-2.63-2.33-3.96-2.62-5.25-1.13-10.1-2.11a1.74 1.72 78.5 0 1-1.1-.74m14.91 1.38q-3.31-2.2-6.45-4.4c-3-2.1-7.22-2.38-10.76-3.25q-.74-.18-.33.46l3.26 4.99a1.46 1.41 78.7 0 0 .91.63q4.09.88 8.45 1.73c2.51.49 4.39 2.05 6.48 3.45q.43.29.9.07 3.75-1.73 6.67-2.97c2.15-.92 6.43 1.34 8.54 2.24q.29.12.3-.19l.05-2.84q0-.33-.31-.41c-2.61-.72-5.39-1.37-8.08-.76q-3.94.88-7.94 1.6a2.36 2.33 56.3 0 1-1.69-.35m-41.05.34-9.69-1.94a1.2 1.14 32.8 0 0-.89.17l-9.41 6.28a.54.54 0 0 0 .15.96c1.08.31 1.93.58 2.8 1.41q3.17 3.03 6.18 5.95a2.24 2.23-23.7 0 0 1.63.63q4.1-.14 8.26-.2c2.75-.05 4.81 1.02 7.22 1.97 1.94.77 3.89.35 5.89-.02a1.92 1.86 49.7 0 1 1.04.1q1.57.64 2.8.06c2.5-1.19 5.35-2.74 8.08-2.67q1.52.03 2.94-.07.67-.04.53-.7l-1.59-7.48q-.13-.6-.65-.94-3.37-2.17-6.39-4.27c-2.99-2.08-7.63-2.49-11.34-3.01q-.53-.07-.97.22l-4.92 3.23q-.77.5-1.67.32m-78.76 10.33q.13.23.35.07l2.52-1.75a.37.37 0 0 0 .09-.52q-1.79-2.58-3.4-5.28c-1.49-2.52-3.98-3.8-6.24-5.48q-.62-.46-.5.31.43 2.7 1.37 3.99 3.37 4.56 5.81 8.66m142.2-7.72q-.32-1.08-.2-2.18.04-.46-.41-.53l-2.5-.42a.42.41-87.9 0 0-.48.45l.22 2.27q.12 1.12 1.22 1.37l1.04.23a.95.94 88.1 0 0 1.11-1.19m.96-1.82a.23.23 0 0 0-.44.13l.26 1.36q.02.08.08.13.15.13.3.11.48-.07.3-.51zm-6.64 15.22q.44-.07.34-.51-.6-2.84 1.12-4.53.54-.53.48-1.28l-.47-5.19a1.12 1.11-81.9 0 0-.7-.94l-6.29-2.47q-.63-.24-1.25.03l-6.59 2.85a.32.31-43.3 0 0-.02.57c4.32 2.25 6.82 7.7 9.48 11.61q.33.47.89.37zm7.74-10.54q-.59.7-.34 1.56 1.24 4.11.3 7.34-.17.61.44.75l8.88 2.12q1.03.24 1.94-.31l5.73-3.51q1.26-.78-.16-1.19-5.32-1.53-10.64-2.34a2.88 2.85 76.6 0 1-1.93-1.2l-3.28-4.69q-.41-.59-.82 0-.17.24-.03.47.32.53-.09 1m-137.98 5.8 8.39-4.15a.55.55 0 0 0 .25-.73l-.63-1.28a5.04 1.97-26.3 0 0-5.39.47l-.34.17a5.04 1.97-26.3 0 0-3.65 4l.63 1.27a.55.55 0 0 0 .74.25m134.5-6.49q-.63-.04-1.21-.32a.36.36 0 0 0-.51.35l.24 3.72q.05.77.63.25 1.85-1.7 2.77-3.66.39-.84-.53-.7-.22.04-.41.15-.46.24-.98.21m-16.35 6.06q2.67 1.84 5.18 3.75 1.81 1.39.51-.48-1.72-2.46-3.43-5.19c-1.11-1.75-2.92-2.84-4.61-3.92a1.47 1.46-52 0 0-1.84.23l-5.38 5.63q-.69.72.28.53c2.14-.42 7.32-1.92 9.29-.55m-86.51.29c-3.85-1.32-8.45-3.94-12.45-3.88q-4.11.07-8.36.29-.45.02-.61.45-2.01 5.29-3.78 9.65-.38.94-.49 2.28a.55.55 0 0 0 .66.59l5.62-1.15c3.86-.79 9.1.88 13.08 1.63q.47.09.87-.17c3.48-2.29 7.48-5.87 11.67-6.54q3.79-.6 7.61-1.39.57-.12.89-.59l3.39-4.96q.35-.52-.28-.55-5.96-.33-7.4.31-4.48 2.01-9.13 3.98a1.84 1.8 42.1 0 1-1.29.05m-34.6 128.35a.23.22 13.6 0 0 .25-.15q1.11-2.98 1.92-6.05c.92-3.46 4.03-6.46 6.31-9.17q1.85-2.18 4.44-3.58 3.36-1.83 7.04-3.82.44-.24.57-.72 1.07-3.98 2.46-7.85 1.02-2.83 3.13-5.33 2.42-2.85 4.66-5.51.36-.43.91-.49l1.51-.17q.7-.07 1.15-.62c2.29-2.76 4.9-6.89 7.94-8.53q2.03-1.1 3.94-2.1 1.09-.57 1.35-1.64c.97-4.1 1.38-8.24 3.99-11.59q2.32-2.98 4.4-5.95.31-.43.24-.97-.5-3.93-1.25-7.78c-.8-4.11 1.13-9.09 2.06-13.06a2.73 2.7-9.3 0 1 1.21-1.67l8.26-5.11q.46-.29.59-.82c.94-3.89 1.61-9.47 4.02-12.54q2.38-3.02 4.8-6.61.34-.5.9-.63 1.76-.4 3.57-.68 1.22-.19.05-.6c-1.93-.69-3.43-1.5-5.52-1.48q-4.64.05-9.09.17a2.28 2.27-23.5 0 1-1.63-.64l-7.03-6.73a2.17 2.17 0 0 0-3.3.35l-3.63 5.33q-.65.96-1.81 1.17c-3.97.7-9.23 1.11-12.48 3.46q-2.94 2.13-6.16 4.21-.87.56-1.88.38-3.72-.67-7.41-1.56c-3.46-.83-7.37.36-10.9 1.17q-.61.14-.6.76l.12 6.17c.05 2.5-3.4 4.88-4.92 6.64q-.38.43-.08.92c1.48 2.47 3.41 4.72 3.92 7.48q.79 4.36 1.55 8.74a2.37 2.35-33 0 1-.38 1.75l-5.55 7.98q-.33.47-.23 1.04.63 3.83 1.45 7.85c.81 3.98-.92 9.06-1.81 13.07a2.64 2.61-10.4 0 1-1.15 1.65c-3.48 2.21-7.37 5.45-11.29 6.15q-4.22.75-8.15 1.48a1.2 1.19 11.9 0 0-.77.5q-2.73 4.04-5.51 7.94c-.7 1-1.62 1.67-2.67 2.27q-.52.3-.41.9.57 3.05 1.37 6.49.64 2.75 2.37 5.06 2.25 2.99 4.39 6.17a1.86 1.85 33.4 0 1 .28 1.35l-1.23 6.94a.74.74 0 0 0 .46.81q4.13 1.62 8.23 3.22c1.14.45 1.92 1.14 2.21 2.38a1.08 1.07-1.6 0 0 .87.82zm138.88-131.76q-.59.72-1.46 1.79-.18.22-.39.39-.44.38-.66.89-.18.44.05.85l1.61 3.02a.91.91 0 0 0 1.59.02c1.36-2.44.42-4.12.33-6.59q-.05-1.6-1.07-.37m-135.68 4.21q-.84.37-.67 1.27c.63 3.53.11 5.96 3.98 7.67q1.46.65 1.43-.95-.03-1.1.32-2.03 1.57-4.24 3.7-9.32a.25.24 89.6 0 0-.32-.32zm-2.42-2.02q-.18-.56-.71-.31-3.1 1.5-4.02 4.68a.61.6 12.7 0 0 .49.76c2.65.43 3.01-.64 4.48-2.57q.41-.53.2-1.17zm104.39 4.39q0-.36-.34-.27-.53.15-.08.46c3.47 2.32 8.34 4.72 10.59 8.1q2.1 3.15 4.32 6.42a2.41 2.4 77.8 0 0 1.61 1.04q3.74.63 7.55 1.38c3.66.72 6.23 2.98 9.21 4.87a.45.45 0 0 0 .67-.24l.43-1.39q.2-.63-.34-1.01l-7.37-5.11a2.41 2.37 12.4 0 1-.98-1.51l-1.68-8.82a1.92 1.91 12.6 0 0-.77-1.21l-7.71-5.58q-.43-.31-.95-.25c-3.45.4-7.75.78-10.9 2.21q-1.43.65-2.76 1.23a.35.35 0 0 1-.5-.32m31.74 1.19a.25.24 73.7 0 0 .19-.35l-.99-2.06q-1.12-2.33-1.61.21-.2 1.08.01 2.22a.27.26 80 0 0 .3.22zm-38.19 2.16q.22.05.41-.07l3.31-1.98q2.53-1.52-.39-1.96-4.56-.71-9.48 2.48a.1.1 0 0 0 .04.18zm-96.44-.17-.59-3.33q-.1-.57-.5-.16l-1.59 1.63q-.47.47.09.83l2.08 1.37q.65.42.51-.34m117.04 12.66q-2.24-2.97-4.47-6.52c-2.12-3.38-6.61-5.67-9.97-7.8q-.47-.29-.94 0l-3.84 2.35a2.74 2.71 34.2 0 1-1.95.36q-3.14-.59-6.27-1.5c-1.37-.41-2.56.28-3.78.84q-1.11.52-2.23.04-3.68-1.57-8.58.09-.47.16-.76.56-2.19 3.08-4.49 6.11c-2.5 3.27-2.92 8.17-3.9 12.13q-.3 1.19-1.34 1.83l-8.07 4.94q-.6.36-.75 1.05-.81 3.58-1.83 7.44c-1 3.8.4 8.76 1.03 12.73a2.92 2.91-31.7 0 1-.52 2.17q-2.07 2.83-4.25 5.82-1.71 2.35-2.4 5.04-.75 2.94-1.37 5.78-.15.68.44.32l.8-.5q.57-.35.75-.99 1.09-3.69 2.15-7.26.81-2.73 2.57-4.93 2.37-2.96 5.2-6.35a1.93 1.91 16.6 0 1 1.29-.69l9.76-1.01a1.72 1.69-72.9 0 0 1.15-.62q2.36-2.9 4.87-5.98 1.76-2.16 4.2-3.49c3.13-1.71 6.6-4.1 10.02-4.44 4.22-.43 8.36-1.37 12.55-.02q3.54 1.14 7.15 2.16a.95.93 38 0 0 .72-.08c3.85-2.07 7.82-5.01 12.39-5.5q4.3-.46 8.27-.75.51-.04.9.28l1.31 1.07q.5.41.71-.21l2.09-6.39q.17-.53-.27-.85c-2.92-2.15-6.18-4.66-9.89-5.18q-3.66-.51-7.43-1.39-.63-.14-1.02-.66m-123.75-12.041a1.39.56 121.2 0 0 1.199-.899 1.39.56 121.2 0 0 .241-1.479 1.39.56 121.2 0 0-1.199.899 1.39.56 121.2 0 0-.241 1.479m92.924-1.816a1.34.47-15 0 0-1.416-.107 1.34.47-15 0 0-1.172.8 1.34.47-15 0 0 1.416.108 1.34.47-15 0 0 1.172-.8m50.226 7.797c-1-1.68-.42-3.32.1-5.04a1.96 1.96 0 0 0-1.16-2.4q-1.19-.47-2.5.13-.55.26-.49.87c.3 2.73.08 5.11 1.22 7.79q2.62 6.14 6.73 11.01 2.27 2.69 1.97-.82c-.34-4.06-3.82-8.12-5.87-11.54m-147.89-4.77a.34.34 0 0 0 .26-.14l1.44-1.88a.34.34 0 0 0-.34-.54l-6.2 1.31a.3.3 0 0 0-.11.04l-1.32.78a.34.34 0 0 0 .19.63zm3.75-2.43q-.01-.44-.35-.17-1.08.83-1.51 2.28-.26.89.58.51 1.31-.6 1.28-2.62m6.17 14.52q1.1-4.84 2-9.35c.63-3.18-1.99-3.22-3.69-4.91a.67.67 0 0 0-.96.02l-2.87 3.01q-.52.55-.35 1.28l2.27 10.22a2.41 2.4 55 0 1-.31 1.79q-2.01 3.17-4.09 6.46-1.43 2.25-1.92 4.87-.53 2.87-1.05 5.62a.24.24 0 0 0 .33.26l5.38-2.35q.47-.2.67-.68 1.84-4.33 3.52-8.63c.5-1.27 1.31-2.2 2.23-3.06q.63-.59.09-1.27-1.56-1.94-1.25-3.28m136.36-.14q1.05.72.44-.39-1.22-2.26-2.43-4.72c-1.32-2.7-1.27-5.74-1.41-8.58q-.03-.66-.68-.54l-2.67.47q-.7.12-.57.81l1.62 8.56q.1.54.56.86zm-179.7 60.54q-.52.13-.84.08-.43-.07-.57.34-.48 1.46-.57 2.83-.05.92.57.24 1.25-1.37 1.41-3.49c.59-.24 1.1-.4 1.47-1 1.25-2.06 2.37-3.87 4.5-5.31q3.46-2.35 7.03-4.83.4-.28.52-.76.8-3.37 1.41-7.39c.63-4.13 3.63-7.8 5.99-11.21q.9-1.3.57-2.86-.73-3.45-1.39-6.79-.55-2.76-.03-5.54.71-3.77 1.46-7.67a2.36 2.35 78.6 0 1 .98-1.48l8.21-5.6a1.2 1.19 78.1 0 0 .5-.77l1.82-9.52a.63.63 0 0 0-.64-.75l-5.52.15q-.53.01-.89.4-2.72 2.88-5.58 5.75-1.8 1.8-2.68 4.16-1.39 3.74-2.91 7.5a2.2 2.18 89.1 0 1-1.13 1.18q-3.64 1.64-7 3.03-2.69 1.11-4.4 2.96-2.81 3.03-5.45 5.72a1.68 1.66-23.8 0 0-.49 1.25q.16 3.92.15 8.13 0 2.41 1.3 5.15 1.71 3.55 3.11 7.2.19.49-.01.98l-3.08 7.77a1.65 1.64 34.5 0 0 .32 1.72q.91.98 1.3 2.26.16.52-.02 1.03c-.69 2.02.59 3.28.58 5.14m29.25-39.71 1.42-.59q.68-.28.77-1.01.38-2.91 1-6.1c.81-4.14 3.9-7.89 6.17-11.52q.32-.53.17-1.13-1.42-5.48-2.32-10.95-.08-.5-.58-.52-.73-.03-1.32.25-.44.21-.53.69l-1.84 9.63a2.14 2.1-12.3 0 1-.89 1.36l-8.26 5.6q-.5.33-.59.93-.62 4-1.53 7.94-.54 2.35.05 4.64.88 3.42 1.43 6.89.13.84.81.32 1.32-1 2.68-1.95c1.37-.96 1.45-2.57 2.46-3.81q.37-.45.9-.67m20.76-30.17c-1.14.1-2.17-.17-2.91-1.1q-.56-.7-.69.19-.7 4.98-2 9.98c-.31 1.2.29 2.26.99 3.16q.39.49.83.04l4.09-4.2q.37-.38.36-.91l-.1-6.64q-.01-.57-.57-.52m141.17 6.65c-2.81-2.26-6.63-4.96-8.61-7.93q-.37-.56-.57.09c-.35 1.15-.43 2 .26 3.07q2.24 3.49 4.42 7.05c1.1 1.8 1.4 3.57 1.57 5.61a.51.51 0 0 0 .61.46l2.84-.59q.61-.13.56-.75l-.51-5.92q-.05-.67-.57-1.09m-200.82 36.88q1.11 3.9 1.92 8.17c.58 3.04 2.42 4.83 4.02 7.26q.46.7.77-.08l2.86-7.14q.18-.47-.03-.93c-1.77-3.85-4.44-8.49-4.43-12.62q.01-4.01-.09-7.77a2.53 2.52 66 0 1 .69-1.81l6.35-6.6a7.4 7.32 9.9 0 1 2.32-1.61l8.37-3.68q.5-.21.71-.71 1.48-3.41 2.7-6.84c1.43-4.01 4.71-6.95 7.76-9.63q.16-.15.02-.32-.1-.12-.23-.03-2.37 1.66-4.59 2.9-.47.26-1 .17c-4.07-.69-9.04-2.52-13.17-1.61q-3.92.87-7.6 1.55-.61.12-.95.64c-2.27 3.49-5.72 7.27-6.43 11.4q-.63 3.71-1.46 7.37a3.14 3.1-10.8 0 1-1.33 1.93l-7.85 5.2q-.46.3-.57.83-.82 3.85-1.54 7.62-.52 2.73.03 5.52.75 3.82 1.47 7.52a1.96 1.96 0 0 1-.27 1.45c-2.23 3.46-5.64 7.29-6.45 11.16q-.59 2.82-.99 5.39-.08.5.15.95 1.16 2.28 2.58 4.42 1.43 2.16 3.92 3.92 2.46 1.74 4.98 3.53.59.42.99-.19l2.55-3.88q.34-.52.94-.64l8.69-1.82q.66-.13.76-.8l1.03-6.47a1.96 1.96 0 0 0-.23-1.28q-1.45-2.56-1.77-5.39-.06-.54-.38-.99c-1.53-2.15-3.26-4-3.96-6.72q-1.25-4.82-2.13-9.21-.05-.24.19-.31l.26-.06q.33-.09.42.24m191.89-29.48q-.31.64-.12 1.23.25.75 1.05.78l.95.03a.48.47-16.1 0 0 .41-.74l-1.68-2.51q-.18-.25-.26.04-.06.2-.08.31-.07.45-.27.86m-151.02 18.1c-1.45 1.2-3.18 1.82-4.03 3.67q-2.41 5.26-2.37 6.73.1 4.54.02 9.95a1.58 1.57 66.2 0 1-.41 1.06l-1.84 2.04a.95.95 0 0 0-.22.83l.71 3.34q.11.53-.17.99c-2.14 3.43-5.77 7.86-6.29 11.71q-.55 4.01-1.46 8.15-.15.65.47.41 1.46-.55 2.3-1.78 2.84-4.14 5.52-7.97.49-.7 1.32-.88c4.1-.9 9.15-1 12.81-3.38q3.41-2.21 6.55-4.43.41-.29.52-.78.86-3.76 1.66-7.66.54-2.64.04-5.36-.66-3.59-1.31-7.24a2.97 2.96 57.2 0 1 .48-2.22l5.45-7.83q.33-.48.22-1.06-.84-4.24-1.5-8.39c-.42-2.66-2.24-4.81-3.76-7.07q-.28-.43-.72-.17-1.29.77-1.69 1.78-1.93 4.95-3.86 9.64a1.98 1.95-89.8 0 1-1.04 1.05l-5.88 2.53q-.55.23-.71.81l-.13.46q-.17.64-.68 1.07m155.82-15.52q-.29.81.26 1.43.39.43.51-.14.17-.76-.16-1.34a.34.34 0 0 0-.61.05m-5.22-.04a.31.31 0 0 0-.41.19l-2.09 6.42a1.13 1.13 0 0 0 .35 1.22l4.71 3.9a2.02 2.01-64.2 0 0 3.26-1.14l1-4.76a.85.84 35.4 0 0-.11-.62l-2.72-4.54q-.31-.51-.89-.39-1.54.33-3.1-.28m-28.07 12.24c-3.77-1.05-8.49-3.24-12.53-2.85q-3.13.31-6.37.68c-3.65.41-6.85 2.76-10.15 4.43q-2.26 1.14-3.77 3.15-2.24 2.98-4.59 5.77a3.62 3.6 16.8 0 1-2.41 1.28l-9.09.95q-.56.06-.94.47-2.72 3-5.45 6.55c-2.44 3.16-2.98 7.63-4.28 11.43-.54 1.57-1.92 2.17-3.26 2.87a.64.64 0 0 0-.33.72l.35 1.48q.1.44.47.19 3.3-2.2 7.85-4.56 2.7-1.39 6.15-1.88 4.02-.56 7.86-.51 3.34.04 10.6 2.93a1.3 1.27 41.1 0 0 1.08-.06l7.95-4.22a8.83 8.74-61.6 0 1 3.27-.99l9.08-.87q.96-.1 1.69.51l7.49 6.18a1.66 1.66 0 0 0 2.61-.69l1-2.62q.24-.61.82-.91l8.82-4.47q.48-.24.67-.74 2.15-5.94 2.61-7.78.51-2.02 1.55-3.27 3.03-3.61 6.24-7.22a1.45 1.43-26.7 0 0 .35-1.04l-.58-7.59a3.89 3.88 84.2 0 0-4.35-3.56c-3.55.43-8.44.27-11.64 2.12q-3.56 2.05-7.34 3.97-.68.35-1.43.15m36.31-5.79q-.47-.33-.59.24l-.89 4.27q-.14.64.51.57l6.36-.63q.82-.09.15-.56zm-3.73 6.34c-2 .89-4.91-2.18-6.26-3.34q-.6-.52-.54.27l.57 7.76q.04.54-.31.95-2.72 3.22-5.47 6.31-1.76 1.98-2.44 4.2-1.21 3.95-2.5 7.71a2.46 2.43 85.5 0 1-1.13 1.34q-3.91 2.14-8.09 4.04c-1.46.67-1.72 2.03-2.15 3.41q-.18.57.43.56 3.58-.1 6.75-1.46.5-.22 1.04-.11 6.02 1.22 11.68 3.2.47.17.91-.07c3.32-1.84 7.1-4.42 10.88-4.59q4.24-.18 8.43-.95a1.24 1.24 0 0 0 .62-2.13c-2.09-1.92-3.82-1.6-4.32-5.04q-.44-3.11-1.17-6.52c-.87-4.11-4.3-8.09-6.52-11.62q-.28-.44-.18-.96l.5-2.38q.21-1-.73-.58m15.48 20.42a2.34 2.33-54.5 0 1-.29-1.74l2.18-9.62q.11-.48-.15-.91l-4.99-7.87a2.58 2.58 0 0 0-2.41-1.19l-7.18.65q-.57.05-.76.58c-.41 1.1-.89 2.71-.18 3.82 2.21 3.46 5.09 6.76 6.06 10.95q.88 3.77 1.54 8.14.08.56.55.87l3.54 2.36q.5.33.88-.13l2.32-2.83q.44-.54.08-1.14zm-172.91-17.23q1.16-.65 2.15-1.52.6-.51-.19-.39-1.48.24-2.29 1.56-.5.82.33.35m-5.06 9.64q0-1.79 2.13-5.93a.18.18 0 0 0-.26-.23l-2.35 1.63q-.56.38-.71 1.04-2.05 8.6-1.92 10.93.05.96 1.25 4.31.17.48.6.2 1.29-.82 1.29-1.7-.01-5.12-.03-10.25m-2.98.19q.46-2.2-.7-.28c-1.56 2.57-3.65 5.09-4.14 8.03q-.67 3.97-1.49 7.99a2.3 2.3 0 0 1-.92 1.42q-4.01 2.81-8.21 5.6-1.31.86-4.12 6.09-.22.41.12.74l7.7 7.42q.46.44.49 1.08l.15 3.97q.01.44.39.21l1.28-.78q.48-.29.47-.85-.05-4.35-.2-8.74-.08-2.49 1.14-5.58c1.2-3.04 2.34-7.02 4.53-9.32q1.57-1.66 3.22-3.2a1.37 1.36 62.6 0 0 .41-1.3c-.58-2.57-1.39-4.97-.99-7.6q.39-2.6.87-4.9m182.04 14.63c1.19-.03 2 .54 3.09.72q.78.13.38-.55l-1.96-3.29q-.42-.71-.96-.08l-2.15 2.53q-.61.72.33.7.57-.01 1.27-.03m-47.05 6.87c-1.16-.29-1.57-.18-2.58-1.03q-3.56-3.01-6.98-5.8a1.4 1.4 0 0 0-1.06-.32q-3.87.42-7.61.67c-3.94.26-8.27 3.21-11.92 5.17q-.96.51-2 .21-3.6-1.07-7.12-2.31c-3.37-1.2-7.6-.35-11.22.04q-2.72.3-5.24 1.62-3.47 1.82-6.98 3.65a3.28 3.26 72.7 0 0-1.73 3.32q.24 1.81.61 4.06.33 2 1.41 3.77 2.16 3.55 4.34 7.11a2.54 2.49 36.5 0 1 .3 1.89l-2.27 9.48q-.13.56.16 1.05 2.71 4.48 5.48 8.91.43.69 2.48 1.35.57.19.78-.38c.29-.82.86-1.42 1.66-1.75q4.39-1.79 8.76-3.68.66-.28.92-.94 1.34-3.31 2.73-6.69 1.16-2.83 3.21-4.95 2.16-2.23 4.31-4.35c2.56-2.53 5.75-3.47 9.01-4.84 1.4-.59 1.77-1.86 3.42-2.09q4.57-.66 9.38-1.36.63-.09 1.02-.61c2.23-2.96 6-7 7.08-10.57q.15-.5-.35-.63m-134.46-2.55c1.12-1.77.48-2.2.21-3.91q-.1-.68-.61-.22-3.88 3.48-4.31 4.56c-1.49 3.79-4.08 8.43-3.98 12.28q.1 4.13.17 8.25a.3.3 0 0 0 .29.3l.33.02q.47.01.55-.46.76-4.82 1.67-10.29c.59-3.56 3.66-7.34 5.68-10.53m157.65 3.93q2.39 2.01 3.75 2.64a.26.24 46.6 0 0 .18.01c2.66-.9 6.33-2.05 8.13-4.37 1.3-1.67 2.86-2.21 4.64-3.15q1.08-.57-.13-.42-2.94.37-5.93.57c-3.85.25-7.16 2.91-10.61 4.49a.14.14 0 0 0-.03.23m-180.46-.632a1.46.33 63.6 0 0-.354-1.455 1.46.33 63.6 0 0-.945-1.16 1.46.33 63.6 0 0 .353 1.454 1.46.33 63.6 0 0 .945 1.16m170.96.932q4.29 1.59 8.69 3.55c1.05.46 1.96.25 2.84-.42q.39-.29 0-.59l-2.65-2q-.46-.34-1.02-.24l-.5.1a1.93 1.86-41 0 1-.92-.05q-4.36-1.34-8.9-2.78c-3.07-.98-6.6 1.73-9.19 3.2-1.93 1.1-2.62 3.02-2.29 5.13a.31.31 0 0 0 .53.16c2.84-3.06 7.91-4.41 11.72-6.02a2.29 2.24 43.1 0 1 1.69-.04m-8.6-2.11q.2-.12-.03-.14-1.86-.14-3.54.77a.65.65 0 0 0-.33.49l-.06.64q-.07.63.48.31zm13.29.56q-.52-.38-1.13-.18-.52.16.01.29l3.14.75q.57.14.13-.25-.52-.47-1.28-.38a1.27 1.26-30 0 1-.87-.23m-84.59.59q-.1-.41-.47-.21c-2.43 1.28-5.01 2.29-6.72 4.48q-2.11 2.71-4.51 5.58a.04.04 0 0 0 .04.07q3.42-.3 6.81-.69.2-.02.33-.18l4.54-5.44a1.17 1.16-22.5 0 0 .28-.67q.11-1.36-.3-2.94m97.62 5.62q3.63-.52 7.36-1.18 2.81-.5 10.99 2.04a.12.12 0 0 0 .12-.2l-4.72-4.6a.56.54-22 0 0-.39-.16l-9.71.06a1.79 1.77 19.8 0 0-1.36.63l-2.53 2.97q-.45.54.24.44m-9.14.55c1.62-.32 2.99-.11 4.55-.17q.57-.02.96-.44.5-.54 1.18-.35.66.19 1.11-.32l1.67-1.85q.53-.59-.24-.39-2.37.63-3.41 2.11-.24.35-.66.27-1.7-.33-3.12.47a2.04 2.03 41.3 0 1-1.8.11l-8.69-3.61a2.09 2.06 44.6 0 0-1.59 0q-4.43 1.82-8.63 3.6-1.99.85-3.4 3.19-.26.44-.22.95l.44 6.05a2 1.99 63 0 1-.46 1.43q-2.39 2.81-4.94 5.7-2.18 2.49-2.84 4.69-.94 3.12-2.02 6.32a.1.1 0 0 0 .14.13l5.93-2.98q.13-.07.18-.2 1.43-3.59 2.47-7.15c1.23-4.23 4.19-6.69 6.82-9.87 2.72-3.31 7.47-4.82 11.14-6.72 1.69-.87 3.6-.61 5.43-.97m-77.98 34.32q-2.39-3.69-4.84-7.79-.66-1.1-.42-2.24.86-4 2.26-9.23.19-.71-.21-1.34-2.17-3.4-4.36-7c-1.48-2.43-1.75-5.02-2.09-7.76q-.12-1.03-.72-.18-1.86 2.65-4.19 4.9-.39.37-.92.42l-7.24.7a.92.9-84.7 0 0-.78.66q-1.07 3.79-2.37 7.79c-1.25 3.82-.09 8.94.32 13a2.48 2.46-28.7 0 1-.54 1.82l-6.03 7.39q-.49.59-.41 1.36.45 4.61.91 9.03c.18 1.78 1.18 3.08 1.94 4.62a1.13 1.12 50.7 0 0 1.9.19q2.19-2.81 4.57-5.87 1.94-2.5 4.57-4.04c3.26-1.93 6.53-4.22 10.2-4.69q4.27-.54 7.98-.79 1.04-.07.47-.95m50.03-29.74c-1.45 1.93-3.3 1.41-5.35 1.51q-1.48.07-.05.44 2.33.59 5.08.2.51-.08.88-.45l3.48-3.5q.44-.45.42-1.08l-.05-2.29q-.02-.71-.44-.14-1.85 2.49-3.97 5.31m-167.63 7.75a.89.88 37.2 0 0-.18-1.29q-3.12-2.19-6.31-4.48c-1.79-1.28-2.89-3.2-3.97-5.12q-1.76-3.13-1.19.42.53 3.37 1.32 7.11.67 3.16 2.26 5.4 1.85 2.6 3.66 5.33 1.28 1.93 1.54-.37.47-4.09 2.87-7m16.55-8.9-.5.36q-.57.41-.17.98 2.49 3.57 5.23 7.3 1.25 1.69 4.48 2.97.61.24.6-.42l-.08-4.47q-.01-.58-.42-.98l-7.42-7.16q-.5-.48-.85.11-.09.15-.14.31-.2.62-.73 1m128.49 24.36-9.97 5.98q-.03.02-.02.06l.13.26q.13.28.41.14c1.36-.69 2.37-1.58 3.94-1.81q5.2-.78 10.3-1.18.57-.04 1.02.3l5.91 4.6a.47.46-61 0 0 .72-.21l2.03-5.64q.19-.53.69-.77l1.4-.67q.48-.22.67-.72c1.34-3.7 2.08-8.3 4.64-11.26q2.77-3.19 5.56-6.41a1.13 1.12-27.3 0 0 .27-.83l-.43-5.18q-.08-1.05-.77-.25c-1.69 1.99-3.09 3.85-6.05 3.74q-4.09-.16-8.32-.03a4.46 4.45 17.9 0 0-3.41 1.74c-2.15 2.82-4.9 5.68-5.68 9.06q-.88 3.77-1.9 7.58a2.53 2.52 82.4 0 1-1.14 1.5m-141.67-9.07a.54.54 0 0 0 .36.41c.33.1.92.04 1.22-.15q4.4-2.81 8.62-5.6c1.51-1 5.57.34 7.25.74q.68.17.27-.4l-6.32-8.69q-.32-.44-.85-.33l-8.44 1.74q-.55.11-.86.58l-2.31 3.59q-.25.39-.17.85zm77.14 6.16q-3.63 2.02-7.66 4.06c-2.93 1.47-5.1 5.06-7.25 7.56q-1.65 1.92-2.37 4.24-.9 2.92-1.76 5.77-.16.49.15.91l5.96 8.3q.36.5.97.59l5.33.74q.57.08.95-.35c1.09-1.24 2.63-3.96 4.12-4.36 2.44-.65 5.25-.61 7.7-1.02q.69-.12.3-.7c-.99-1.49-1.77-2.96-1.97-4.78q-.51-4.59-.96-9.53-.05-.56.31-1l6.26-7.73q.51-.63.43-1.42c-.39-4.12-1.56-9.13-.34-12.96l1.71-5.36q1.79-5.66-2.06-1.14-1.71 2.01-4.01 4.82-1.74 2.14-2.58 4.82-1.18 3.77-2.33 7.43a1.96 1.94-6.2 0 1-.9 1.11m52.59 6.17-8.57 3.55q-3.18 1.31.13 2.24l3.63 1.02q.49.14.96-.06 2.86-1.2 4.55-3.44 1.46-1.94 2.81-2.75 3.88-2.32 7.75-4.55a2.01 2-8.5 0 0 .93-1.25q.9-3.72 1.95-7.78c.82-3.15 2.96-5.43 4.96-7.88q.35-.42-.17-.26-5.28 1.69-6.26 2.71-2.83 2.93-5.6 5.7-1.86 1.86-2.85 4.26-1.54 3.71-3.04 7.31a2.14 2.14 0 0 1-1.18 1.18m-99.62-12.44q-.48-2.98-1.42-6.06a.37.37 0 0 0-.67-.07l-.21.36a1.13 1.11 50.8 0 0-.08.86q.84 2.62 2.05 5.02.51 1.01.33-.11m-32.14-5.55a.38.38 0 0 0-.7-.13l-1.7 2.79a.4.4 0 0 0-.04.12l-.83 3.9a.38.38 0 0 0 .44.45l3.64-.71a.38.38 0 0 0 .3-.44zm28.66 21.34c-.51-1.15-.4-2.24.22-3.34q.3-.52.06-1.08c-1.7-3.98-4.1-7.95-4.05-12.37q0-.51-.39-.84-.86-.72-2.02-.98-4.43-.99-8.56-1.9a1.4 1.35 32.5 0 0-1.07.22q-4.89 3.51-9.49 5.96-1.75.93-.71 2.62l5.57 8.95a2.68 2.67 35.7 0 1 .33 1.99l-2.18 9.38q-.13.57.17 1.06 2.1 3.45 4.21 6.87 1.38 2.23 3.65 3.76c2.31 1.57 5.79 3.44 7.28 5.98a1.35 1.34 82.9 0 0 .78.61c2.52.72 7.25 1.54 9.15 3.33q.41.37.91.13c2.13-1.02 5.26-3.31 7.61-1.68a.41.41 0 0 0 .64-.34l-.11-10.29a1.89 1.86 21.9 0 0-.6-1.37c-2.98-2.8-7.09-6.08-8.63-9.99q-1.27-3.26-2.77-6.68m1.46-14.55q.77 1.98 1.08 4.47.03.31.24.08.39-.44.68-1.18a1.55 1.53 44.8 0 0-.01-1.18l-3.3-7.78q-.27-.65-.86-.27l-1.7 1.12a.86.86 0 0 0 .02 1.45c1.47.9 3.2 1.64 3.85 3.29m-1.39 7.3q.34.71.69 1.37.28.55.56-.01c1.22-2.45.02-5.38-.56-7.82q-.36-1.52-1.79-2.15-.01-.01-.79-.35-1.43-.62-1.05.89 1.01 3.99 2.94 8.07m189.57-7.64q-1.04.72-.67 1.51a.59.59 0 0 0 1.06.02l.41-.82a.55.55 0 0 0-.8-.71m-1.58 1.29q.11-.12.04-.24-.25-.41-.67-.16-2.76 1.65-5.48 3.01c-3.49 1.74-6.16 6.51-8.7 9.57a2.55 2.54-73 0 1-1.68.9q-4.47.52-8.97 1.1c-2.3.3-4.08 1.92-6.17 2.85q-.73.33-.05.76l6.96 4.45q.49.32 1.06.2 4.24-.89 8.45-1.83c2.73-.62 4.75.64 7.33-1.37q1.03-.8 1.34-2 .97-3.76 1.9-7.3c.68-2.6 2.49-4.68 4.22-6.73.72-.86.82-1.77.35-2.77q-.11-.25.07-.44m-222.02 6.68q-1.38 1.45-1.55 3.96-.08 1.2.83 2.5c2.02 2.92 4.06 7.11 7.05 8.97q3.18 1.97 5.95 4.17.02.01.03-.01l.16-.19q.07-.08 0-.15c-1.33-1.32-2.12-2.81-1.62-4.75q1.14-4.46 2.03-8.8a1.3 1.29 34.8 0 0-.18-.97q-2.72-4.26-5.25-8.51c-.44-.73-.7-1.67-.68-2.53a.65.65 0 0 0-.77-.65l-3.42.64a1.39 1.38 86.1 0 0-1.13 1.3c-.07 1.65-.26 3.77-1.45 5.02m.71-5.48q.08.16.24.1a.09.09 0 0 0 .05-.13q-.18-.31-.27-.16-.06.09-.02.19m-31.62 46.39 9.95 2.24a1.68 1.66 22.8 0 0 1.76-.71l3.11-4.68a1.29 1.25 57.2 0 0 .19-.95q-.74-3.85-1.66-7.9c-.81-3.58.42-7.62 1.12-11.29.69-3.63 2.91-6.31 4.88-9.28q1.77-2.67 4.14-4.42 2.51-1.86 5.17-3.53.46-.29.57-.83l.6-2.88q.95-4.59-1.72-.74-1.68 2.43-3.84 5.51-1.57 2.25-3.84 3.75-3.29 2.16-6.71 4.36-.43.27-.54.76-.84 3.75-1.65 7.45-.63 2.89-2.19 5.25-2.29 3.48-4.61 6.67a2.43 2.39 12.6 0 1-1.54.96l-9.18 1.62a2.26 2.22-77.5 0 0-1.48.96c-2.25 3.34-4.72 7.94-8.02 9.96q-3.26 1.99-6.57 4.23-.83.56-.02 1.16.32.23.72.15 4-.78 8.37-1.4 2.43-.34 4.67-1.84 3.18-2.11 6.72-4.31a2.11 2.09 35.1 0 1 1.6-.27m68.42-42.05q-.48 2.44.96 4.46l4.46 6.25q.44.61.57-.13l.96-5.51q.16-.9-.41-1.62-2.43-3.08-4.29-6.19-1.29-2.15-1.77.31-.38 1.9-.48 2.43m184.22-.98-1.21 1.68q-.32.44-.69.84-.86.91-1.08 1.75-1.26 4.72-2.57 9.43c-.31 1.13-1.07 1.68-2.08 2.12q-1.14.51.09.76c1.89.39 4.61 1.43 6.25-.13q.77-.74 1.08-2.11.92-4.01 1.81-8.02.31-1.43-.03-3-.31-1.46-.49-3.04-.18-1.54-1.08-.28m-221.66.3q-.27-.26-.41.1-.08.21.02.36.16.26.39.05.28-.25 0-.51m36.06 3.5q-.83.84-.15 1.71 1.8 2.3 4.22 4.16.11.09.19-.02h.01q.15-.17-.02-.33-2.7-2.45-3.7-5.4-.18-.5-.55-.12m-20.11 32.17a.12.12 0 0 0 .09-.2q-.75-.95-.99-2.01-1.07-4.66-1.93-9.68a1.77 1.77 0 0 0-.67-1.1q-2.99-2.27-6.01-4.08c-3.9-2.34-5.97-6.72-8.43-10.37-.86-1.28-.81-2.82-.16-4.18q.42-.89-.42-.38-2.19 1.34-4.43 2.81c-2.84 1.87-4.58 5.54-6.56 8.36q-1.57 2.24-1.92 4.44-.52 3.22-1.22 6.43-.54 2.44.04 4.91.94 3.96 1.75 8.21a1.21 1.2-34.2 0 1-.18.91l-2.04 3.1q-.63.95.36.39l8.01-4.49a2.2 2.19-51.5 0 1 1.7-.2l9.59 2.73q.43.12.83-.09 4.14-2.24 8.25-4.51c1.42-.78 2.76-.96 4.34-1m149.79-23.57q.54-.05.51-.59l-.47-6.79a.43.43 0 0 0-.61-.36q-.67.29-.95.97-1.13 2.83-2 5.77a.97.97 0 0 0 1.02 1.24zm-118.84 14.52.08 10.34a1.29 1.28-80 0 0 .83 1.19l5.53 2.1q.6.22 1.17-.05l5.04-2.37q.54-.25.41-.83l-1.06-4.73q-.12-.52-.57-.81-3.36-2.1-6.89-4.39-2.26-1.45-3.83-3.72-2.07-2.98-4.11-5.83c-.85-1.18-.81-1.94-.67-3.31q.07-.63-.39-1.06-2.44-2.35-5.18-5.1-4.23-4.28-1.99 1.3 1.25 3.1 2.46 5.98.99 2.37 2.91 4.19 2.9 2.74 5.58 5.46a2.38 2.36-67.8 0 1 .68 1.64m104.09 1.22 8.81-1.87a.74.74 0 0 0 .58-.78q-.36-4.78-.57-9.16c-.06-1.33.58-2.41.78-3.72q.08-.53-.35-.87l-5.93-4.61q-.43-.34-.97-.28-3.82.42-6.77.76-4.02.46-6.38 1.9-4.37 2.64-6.78 7.15c-1.32 2.47-.34 6.08.07 8.75q.31 2.07 1.72 4.33 2.09 3.36 4.1 6.35.36.53.95.27l4.97-2.22c2.1-.93 3.07-3.13 4.33-5.02a2.33 2.32 10.6 0 1 1.44-.98m-57.88-1.45a.33.32-23.1 0 0-.18.43c.91 2.29 1.89 3.52 4.08 4.87 3.3 2.05 6.31 4.58 10.42 4.71 4.28.12 8.01-3.56 12.36-4.06a2.65 2.64 86.9 0 0 2.35-2.63c0-3.81-.62-9.11.85-12.48q.98-2.26 2.01-4.63.18-.43-.17-.74-1.85-1.61-3.35-1.43-4.04.47-8.14.99-2.59.33-4.87 1.63-2.51 1.43-5.08 2.89-2.36 1.35-4.04 3.47c-1.47 1.87-4.12 6.14-6.24 6.98M341 228.68a.26.26 0 0 0-.07-.49l-10.19-1.79a.26.26 0 0 0-.24.08l-.4.46a.26.26 0 0 0 .12.42l8.41 2.34a.26.26 0 0 0 .18-.01zm-52.86-.15c-1.99.78-4.04-.06-5.76-.48q-1.68-.4-.31.66l3.66 2.82q.42.32.67-.15.68-1.32 1.95-2.52.74-.7-.21-.33m33.16 2.39a.42.42 0 0 0 .65.32l4.21-2.8q.69-.46-.14-.37l-4.11.42q-.76.08-.71.85zm37.18 5.85c.62-2.39 3.27-2.83 4.94-4.28q.93-.81-.27-.55l-10.45 2.27a3.58 3.57-34.6 0 1-2.71-.49l-6.81-4.42a1.42 1.41-48.8 0 0-1.7.12c-1.36 1.19-2.65 1.42-4.48.9q-4-1.14-7.83-2.26-.52-.16-.97.15l-5.8 3.96a.51.51 0 0 0-.17.66l3.76 7.41a2.46 2.46 0 0 1 .14 1.88l-2.99 8.99a2.79 2.79 0 0 0 2.8 3.67q3.39-.19 6.83-.28 2.55-.07 5.85 1.25c2.4.97 4.94 1.7 7.13 3.02q.82.49 2.03.31 3.97-.6 8.17-1.43a1.42 1.4 81 0 0 1.12-1.56q-.42-3.41-.85-6.92-.33-2.67.36-5.28.96-3.57 1.9-7.12m-42.18-7.97q-.12-.12-.27-.19-.5-.24-.75.26c-1.25 2.47-.55 6.84-.17 11.2q.07.86.54.13l4.51-7.01q.44-.69.32-1.5l-.36-2.42q-.07-.53-.6-.46l-2.25.31q-.56.07-.97-.32m-35.3.39q-1.33-.97-1.87.59c-.85 2.5-2.33 4.58-2.27 7.36q.08 4.06.02 8.34c-.01.86-.4 1.44-.72 2.21q-.19.47.31.46l6.91-.13q.57-.01.46-.57-.85-4.3-.14-6.77.77-2.69 1.4-5.9.46-2.28-1.43-3.65zm-69.43 14.2-2.63-6.06a1.34 1.34 0 0 0-.56-.65l-10.02-6.1a.48.46-40.2 0 0-.42-.03q-1.08.46.01 1.99 2.07 2.92 4.27 5.99 1.55 2.19 3.84 3.63 3.24 2.05 6.49 4.14c1.42.91 1.77 4.66 2.18 6.31q.14.54.6.21l2.41-1.72q.63-.44.55-1.21L218 247q-.06-.58-.6-.79l-4.81-1.84q-.72-.27-1.02-.98m-8.86-11.42q2.27 1.7 4.95 3.07.24.12.3-.13l.14-.6a.3.29-70.9 0 0-.16-.34q-2.68-1.24-5.32-2.12-.25-.08-.02.04.05.04.11.08M365 238.61c.48-1.98 3.94-3.38 5.59-4.64q.59-.45-.15-.54c-2.14-.25-4.5-1.17-6.51.07q-1.81 1.11-3.58 2.12a1.72 1.7-8.3 0 0-.83 1.1q-.85 3.66-2 7.16-.78 2.41-.43 4.93.39 2.71.81 5.38.19 1.17.83.18c1.72-2.64 3.98-4.96 4.61-8.18q.74-3.81 1.66-7.58m-42.78 14.13a1.85 1.85 0 0 1-.16-1.53l3.16-9.5q.15-.46-.07-.9l-3.41-6.78q-.49-.98-1.02-.02-3.86 6.92-8.98 12.53-.64.7.3.6c1.74-.19 3.28-.33 4.71.99q2.81 2.59 5.38 5.22.65.67.29-.19-.09-.21-.2-.42m-104.91-14.71a.33.33 0 0 0-.28-.3l-6.8-1.17a.33.33 0 0 0-.35.46l2.68 6.11a.33.33 0 0 0 .17.17l4.6 1.9a.33.33 0 0 0 .45-.33zm73.51 12.9q.59.24.28-.32c-1.45-2.59-4.28-6.14-4.74-8.98q-.27-1.67-.59-3.29-.19-.97-.51-.04-1.67 4.88-.3 9.85.16.56.7.77zm-66.16-4.34q-2.97-3.86-5.54-7.61-.96-1.4-.81.29l.5 5.73q.05.57.55.85 2.69 1.52 5.45 1.53.68 0 .28-.55-.16-.21-.43-.24m-56.09-5.81-.27.08a.28.28 0 0 0-.19.32q.86 3.9 1.6 7.76c.14.71.56 1.25.98 1.74q.35.42.9.38l7.7-.58q.42-.03.08-.27-4.56-3.16-8.58-6.23-1.24-.96-1.96-3.06-.07-.19-.26-.14m65.32 5.93a.32.32 0 0 0 .12.49l2.03.92a.32.32 0 0 0 .21.01l10.5-2.48a.32.32 0 0 0 .21-.47l-1.5-2.7a.32.32 0 0 0-.31-.16l-8.55 1.01a.32.32 0 0 0-.21.13zm68.54.81a.08.08 0 0 0 .07.12l6.49-.55a2.46 2.43 18.1 0 0 1.64-.82l2.6-2.91q.64-.71-.3-.51l-8.22 1.77q-.24.05-.39.26zm-65.8 1.47a.17.17 0 0 0-.08.28c2.25 2.28 5.27 5.81 8.29 6.77q.58.18.75-.4l2.39-7.92a.83.83 0 0 0-.98-1.05zm-17.65 1.87q-.06.11-.08.24-.04.36.33.34l9.51-.39a1.12 1.12 0 0 0 .85-.44l1.51-2.01a.26.25-72.2 0 0-.21-.41c-3.65.13-7.66.71-11.08-1.04q-.84-.43-.72.51.2 1.44-.01 2.94-.02.14-.1.26m27.65 4.85q-.25.85.57 1.18l4.97 1.99q.52.2.89.62l.41.47q.47.54.97.02l5.92-6.21q.53-.55-.22-.71c-1.79-.36-3.25-.6-4.87-1.6q-2.69-1.66-4.77-3.18-1.35-.99-1.83.61zm78.37 7.38a1.67 1.66-18.3 0 0 1.21-2.39c-1.21-2.44-1.94-4.28-4.15-6.23q-3.17-2.81-6.24-5.83-.35-.36-.84-.46-5.95-1.22-7.85 4.48-.93 2.78-1.91 5.66-.19.55.28.88l7.79 5.52q.45.32.99.22zm-20.53-5.52c.91-2.89 1.68-6.61 3.99-8.7q.59-.53-.2-.62c-7.6-.9-10.1 4.66-10.82 10.94q-.06.51.45.44c1.64-.2 3.3-.65 5.01-.79q1.2-.1 1.57-1.27m-60.05-.64c-3.42-1.49-5.83-4.29-8.44-6.81-2.23-2.16-3.93-2-5.36.85q-.28.56.32.74 4.72 1.39 8.64 3.21c1.88.87 3.24 2.56 4.79 3.91q.6.52.66-.27l.04-.56q.06-.77-.65-1.07m20.13-4.3q.32.17 3.91.8.32.06.56-.18l3.37-3.35q1.35-1.35-.4-.6-3.81 1.61-7.44 3.25a.04.04 0 0 0 0 .08m4.83 1.84 5.22 7.24q.38.53.96.25 4.96-2.35 8.05-6.4c1.41-1.86 1-3.92.32-5.91q-.22-.67-.93-.65l-7.71.2q-.84.03-1.42.62l-4.49 4.57a.07.07 0 0 0 0 .08m15.71-4.12c1 3.65.44 4.43-1.89 7.17q-.49.59.25.76l6.71 1.5q.6.13.75-.47l1.4-5.9q.19-.78-.55-1.06l-6.23-2.39a.33.33 0 0 0-.44.39m11.41 8.6c.37-2.8.68-5.63 2.7-7.86q.8-.88-.29-.4l-4.98 2.2a1.18 1.16-5.9 0 0-.66.8l-1.41 5.88q-.24 1.03.81.9l2.63-.33q1.06-.13 1.2-1.19m-114.96 3.2-1.67-9.2q-.3-1.64-1.96-1.48l-5.67.57q-.55.05-.26.52 1.59 2.59 3.35 5.1c1.26 1.78-.07 5.15-.42 7.21q-.11.69.58.66l2.71-.12a1.25 1.25 0 0 0 .86-.39l2.38-2.54a.37.36-28.8 0 0 .1-.33M156 257.98l-9.21-2.66a1.98 1.98 0 0 0-1.49.17l-7.18 3.91q-.04.02-.04.06-.03.17.08.29.12.14.31.1l4.93-.89q.8-.15 1.49.29 3.55 2.28 6.68 4.68 1.81 1.39 4.61 2.02 3.16.7 6.13 1.33c1.43.3 2.45-.12 3.67-.77 2.02-1.08 5-.82 7.22-.93a.69.69 0 0 0 .64-.55l1.1-5.42q.11-.54-.19-1l-3.14-4.73a3.59 3.58-32 0 0-4.82-1.11q-4.8 2.85-9.61 5.12-.57.27-1.18.09m26.93 2.79c2.07-1.87 3.17-3.72 5.97-4.8q2.02-.77-.06-1.39l-7.26-2.14q-.77-.22-.64.57l1.22 7.5q.14.83.77.26m38.06 3.05.09.42q.11.55.62.32c1.68-.74 3.99-1.56 4.49-3.54q1.12-4.5 2.39-8.38a.39.39 0 0 0-.38-.52q-3.88.1-8.28.26c-3.15.11-5.36 2.87-3.76 5.89q1.68 3.16 4.14 4.58.57.33.69.97m4.82-.28-3.23 1.82q-.53.3-.24.83l3.22 5.8q.28.5.83.65l5.26 1.49q.65.19.89-.44c.65-1.72 1.01-3.18 2.32-4.59q3.08-3.34 6.23-6.63c.94-.98 1.66-.99 2.92-.94q1.66.06.51-1.13c-2.2-2.29-4.51-4.6-7.61-5.6q-3.52-1.13-6.95-2.57a.28.27 18.2 0 0-.37.18l-2.79 9.88q-.23.83-.99 1.25m-23.52-3.45a.35.35 0 0 0 .28-.49c-1.18-2.62-1.38-5.29-4.73-5.94-1.81-.35-3.66 1.14-5.34 1.72q-.77.27-.13.77l5.22 4.12q.45.35 1.01.28zm61.29 3.65a.41.4-65.2 0 0 .55-.21l3.59-8.58q.3-.73-.48-.82l-4.45-.55q-.78-.1-1.33.48l-6.06 6.37q-2.15 2.26.95 1.9 3.58-.42 7.23 1.41M207 257.05l-4.55-1.78q-.72-.28-.43.44l1.54 3.77a.71.7-16.9 0 0 .81.43q3.16-.67 6.16-.14.41.07.59-.3 1.17-2.28 3.2-4.32.04-.04.01-.09l-.2-.29q-.24-.33-.61-.16l-5.26 2.41q-.62.28-1.26.03m58.49 7.25c2.07 1.2 6.39.15 8.3-1.06a.51.5 56.4 0 0 .14-.72l-4.88-6.81q-.37-.52-.61.07l-3.21 7.77q-.19.48.26.75m69.52-7.15q4 .87 7.88 1.77.2.05.26-.15.07-.23-.15-.3-2.78-.94-5.47-2.11c-3.35-1.46-8.07-.73-11.81-.71q-.97 0-.54.87l2 4.02q.41.84 1.18.3 5.61-3.91 6.65-3.69m-131.74 4.23a.56.55 74 0 0-.57-.32l-4.35.52q-.67.08-1.2-.34l-5.81-4.61q-.52-.41-1.14-.18-4.09 1.53-6.83 5.58-.31.44 0 .89 1.81 2.66 3.43 5.5 1.09 1.9 3.49 3.61c2.31 1.64 6.39 5.27 9.17 5.48a.53.51 88.6 0 0 .55-.59c-.49-3.88 2.41-9.53 4.02-12.95q.23-.49 0-.99zm11.5-4.31q.07-.18-.16-.34a.26.26 0 0 0-.36.04l-2.12 2.62a.51.51 0 0 0 .24.81l4.14 1.29a.33.33 0 0 0 .34-.54q-1.31-1.46-2.08-3.48-.07-.2 0-.4m31.7.68q-.49-.16-.56.36c-.29 2.36.8 3.57 3.18 3.24q1.34-.19 2.66-.19 2.31 0 .27-1.1-2.53-1.36-5.55-2.31m90.06 12.12.83 10.8q.19 2.56 2.41 1.27l7.4-4.28q.41-.25.53-.72l1.81-7.14a1.55 1.55 0 0 0-.09-1.01l-3.44-7.65q-.24-.52-.8-.65l-10.01-2.31q-.61-.14-1.14.2l-5.28 3.38q-.54.34-.05.77l7.28 6.24a1.64 1.62 18.7 0 1 .55 1.1m13.14-2.9a.31.31 0 0 0 .53.06l6.05-7.94a.31.31 0 0 0-.3-.49l-8.84 1.66a.31.31 0 0 0-.22.43zm-67.01-7.92a.52.51 26 0 0-.51.17l-2.86 3.47q-1.33 1.61.44 2.73l4.5 2.84a1.88 1.73 88.6 0 1 .6.62q.6 1.03.76 2.33.1.73.61.19 1.52-1.61 3.49-2.68a1.46 1.46 0 0 0 .71-1.65q-.77-2.83-.06-5.66a.47.47 0 0 0-.35-.57zm13.71 5.3a.09.09 0 0 0 .12.1q3.27-1.36 6.42-3.06.32-.18.47-.51t.1-.67q-.06-.53-.59-.43l-5.38.97a.46.46 0 0 0-.37.35zm-155.21 21.46-1.11 5.76q-.12.61.44.34l4.21-2.02a1.63 1.6-3.5 0 0 .82-.91q1.44-4.03 2.91-7.88c1.32-3.47 4.94-6.4 7.42-9.25 1.41-1.61 3.69-2.37 5.63-3.19q.91-.38-.05-.58-2.91-.59-5.82-1.2c-3.73-.8-7.74-4.42-11.05-6.74q-.41-.29-.91-.2l-6.51 1.13a4.97 4.96 78.4 0 0-3.98 6.04c.82 3.44 1.04 7.47 3.12 10.33q2.51 3.43 4.6 6.84.44.71.28 1.53m162.34-23.59c-3.45 1.73-8.95 3.74-11.37 6.68q-.33.4-.26.92l.66 4.72q.08.55-.25 1.01l-1.88 2.58q-.34.47.12.83l6.71 5.36q.46.37 1.04.31 3.94-.4 8.18-.91 2.76-.33 5.98.69c3.09.98 6.99 1.48 9.38 3.7a1.02 1.01-34.9 0 0 1.09.19q1.15-.49 2.29-1c2.25-1.02 6.51-.7 9.03-.81q.5-.03.91-.33 1.19-.89 2.01-2.22.26-.42.08-.89c-1.51-3.89-1.3-8.68-1.7-12.85q-.05-.51-.44-.85l-7.31-6.32q-.49-.42-1.01-.05c-.99.73-1.87 1.13-3.11 1.34q-3.85.66-7.99 1.4c-1.93.34-2.75.04-4.19-1.04q-3.06-2.26-6.27-4.49-.5-.36-.6.25-.23 1.34-1.1 1.78m-99.14-.71c.7.94.92 1.9.45 3.03-1.45 3.47-4.53 9.04-3.7 12.7q.11.49.61.43l6.58-.79q.75-.09 1.21-.69l2.7-3.47a1.62 1.59-32 0 0 .31-1.29q-1.01-4.88-1.14-9.66a1.1 1.1 0 0 0-.88-1.04q-2.65-.54-5.92.18-.58.13-.22.6m73.63 2.11c.23-1 .51-1.46 1.05-2.3q.48-.74-.25-.24l-2.18 1.48a.63.62 49.8 0 0-.08.96q.42.42.89.49.47.08.57-.39m14.29-2.36q-.87-.16-1.08.7-.55 2.2.13 4.88.13.52.56.21l3.16-2.22q.41-.29.5-.79l.38-2.17q.18-1.06-.86-.76-1.4.41-2.79.15m-78.56 9.38c1.89-2.36 3.03-3.21 5.68-4.6q.58-.31.29-.89c-1.42-2.81-4.36-2.98-6.92-3.76a.34.34 0 0 0-.44.35l.77 8.72q.08.87.62.18m35.4-8.32q-.17-.07-.31.07-.19.21.1.21l3.95-.09q.29 0 .23-.28l-.06-.3q-.01-.06-.07-.04-1.69.61-3.56.49-.14-.01-.28-.06m-15.52 11.24q-.62 1.17.69 1.37 2.07.3 3.69 1.72a1.54 1.53-49.9 0 0 2.19-.19l5.45-6.68q.39-.48.33-1.09l-.57-5.51q-.06-.53-.58-.64-2.05-.43-2.87.47-3.21 3.54-6.43 6.77c-1.17 1.17-1.19 2.42-1.9 3.78m13.32-5.25c.17 2.05-3.25 5.52-5.41 7.98q-.54.61.28.64l2.79.08a1.82 1.8 22.3 0 0 1.39-.57q2.86-3.02 6.05-6.14c1.02-.99 2.19-1.57 3.41-2.27q.43-.25.23-.7l-1.37-3.06a1.51 1.51 0 0 0-1.76-.85q-3.25.86-5.66-.61-.74-.45-.59.4.41 2.34.64 5.1m-53.01 10.19q1.5 1.34 3.26.2.53-.34 0-.68-3.42-2.24-7.41-5.09-2.45-1.75-4.06-4.42-1.72-2.84-3.12-5.11a.42.41-43.1 0 0-.7-.02q-1.07 1.57-2.62 2.69-.42.3-.94.32l-3.04.13a.84.84 0 0 0-.76.56c-1.25 3.44.19 7.42.83 10.75q.12.62.73.77c2.6.6 4.84 1.39 7.58.93q4.34-.73 8.62-1.49a1.92 1.92 0 0 1 1.63.46m69.08-13.55a.33.33 0 0 0-.03-.62l-3.53-1.05a.3.3 0 0 0-.1-.02l-3.85.1a.33.33 0 0 0-.29.46l1.56 3.46a.33.33 0 0 0 .43.16zm10.42-.47c-1.05.67-2.2.95-3.44.99q-.81.02-.12.45c1.64 1.04 3.61 6.23 4.45 8.36a1.7 1.69-12.5 0 0 1.67 1.06l2.98-.19q.71-.04.59-.73-.56-3.21-.94-6.42-.24-2.07-1.48-3.1-1.9-1.58-3.71-.42m-8.86 1.03q.19-.12.22-.04.04.08.02-.01-.02-.05-.07-.06-.11-.04-.18.05-.05.07-.04.16 0 .02.02 0l.02-.02q.02-.02.01-.03v-.01q-.01-.03 0-.04m1.45 18.08a.39.37 21.5 0 0 .16.34q.41.28.76-.09 3.27-3.5 6.69-7.52.4-.47.14-1.02l-3.57-7.7a1.49 1.46 2.3 0 0-.61-.65c-2.61-1.46-4.77-.46-7.4-.04q-.68.11-1.06.69l-1.83 2.73a.83.82-51.8 0 0 .12 1.05q2.81 2.65 5.8 5.56c1.36 1.33.97 4.78.8 6.65m-93.01-12.87c-.19-1.22.22-2.34.4-3.52q.08-.56-.49-.58c-2.47-.1-5.22-.09-7.35 1.24q-.48.3-.17.78 2.42 3.78 4.87 7.63c.91 1.44 2.12 1.72 3.68 1.79q.54.02.41-.51-.81-3.34-1.35-6.83m44.52 15.58 2.72-1.15a.85.83 73.6 0 0 .49-.93c-.43-2.41-1.33-4.67-.88-7.2q.82-4.55 1.57-9.38a.8.8 0 0 0-1.01-.89q-3.81 1.08-6.09 5.03-.25.44-.01.88 1.5 2.79 2.91 5.45 1.18 2.21.78 3.72-.58 2.19-1.13 3.87-.34 1.03.65.6m61.88-19.45.96 6.88q.21 1.53 1.74 1.33.79-.1 1.43-.4 1.67-.8 1.25-2.6l-.5-2.1q-.13-.55-.61-.85l-3.92-2.48q-.41-.26-.35.22m-19.7.92q.11-.28-.18-.22-.89.17-1.9.85-.4.27-.16.68l.17.3a.65.65 0 0 0 .83.26q.55-.24 1.24-1.87m-34.9 4.84-2.04-3.6q-.4-.7-.53.09-.65 3.88-1.42 8.03c-.41 2.24.35 4.23.84 6.4a.58.57-18.8 0 0 .8.39l6.94-3.12q.49-.22.69-.72l1.66-4.26q.23-.61-.4-.78l-5.26-1.43q-.85-.23-1.28-1m-80.05 18.41q-1.65.84-3.49 1.56-2.14.84-1.93 3.13.18 1.99.52 4.21.29 1.84 1.86.86 2.47-1.55 4.92-2.98c3.38-1.99 8.83-2.02 12.75-2.46a1.61 1.6 15.6 0 0 1.07-.6c2.42-3.13 5.25-7.78 8.65-9.55q2.35-1.23 4.7-2.72 1.59-1.02.9-2.65a1.21 1.2-5 0 0-.82-.68l-2.94-.69q-.56-.13-.87-.62l-5.51-8.65a.67.66-24.5 0 0-.76-.28q-5.4 1.69-6.38 2.77-2.73 2.99-5.51 5.98-1.83 1.96-2.77 4.46l-2.22 5.9q-.89 2.37-2.17 3.01m95.56-11.94q-1.05.19-1.76-.56a1.47 1.46-16.9 0 0-.83-.44q-1.67-.26-3.14 0-1.6.29-.13.98 2.53 1.16 5.86.02 1.53.21 2.69 1.42a2.31 2.31 0 0 0 2.89.36q3.52-2.2 7.28-4.61c1.85-1.19 2.72-2.82 3.85-4.56a1.64 1.64 0 0 0-1.73-2.5q-.7.16-1.27.68-3.45 3.16-6.63 6.61c-1.74 1.9-4.08 1.61-6.38 1.51q-.91-.04-.7 1.09m45.98-5.04 2.95-3.26q.54-.6-.21-.32-2.45.91-3.09 3.4-.21.8.35.18m2.59 3.82q3.83-2.38 1.99-6.7-.27-.62-.71-.1l-3.05 3.63q-.38.45-.37 1.04.01.88.36 1.61a1.25 1.25 0 0 0 1.78.52m-24.16 5.73a.36.36 0 0 0 .45-.36l-.08-4.44q-.01-.55-.4-.93l-5.95-5.8q-.44-.43-.78.09c-1.23 1.83-2.27 3.63-4.16 4.9q-3.97 2.64-7.72 4.75-1.71.97.24.71 3.69-.5 7.4-.9c4.07-.44 7.31 1.02 11 1.98M210.02 277c-1.27 1.26-3.45 1.05-5.13 1.17q-1.07.08-.06.45 1.54.57 3.06.92a1.3 1.3 0 0 1 .82.58l3.73 5.91a1.88 1.88 0 0 0 3.39-.44l1.4-4.51q.16-.49-.08-.95l-3.56-6.72a.42.41-42.4 0 0-.72-.03q-1.37 2.15-2.85 3.62m137.55 1.6-8.3 4.78a.63.63 0 0 0-.23.85c1.83 3.31 4.37 9.92 9.35 9.8q5.51-.14 10.06-.58a1.43 1.43 0 0 0 1.24-1.81c-.4-1.43-1.13-2.91-2.27-3.94q-3.5-3.17-6.7-6.23-.45-.43-.51-1.04-.35-3.15-.4-6.43 0-.17-.17-.19h-.01q-.29-.03-.33.26-.28 1.67-.76 3.31a2.12 2.1-6.9 0 1-.97 1.22m-113.25-1.51 1.71-.51q1.43-.43-.06-.52l-2.65-.17q-.63-.04-.83.56l-.86 2.53q-.34 1.01.39.24.74-.77 1.41-1.55.36-.42.89-.58m51.84.06-.66-1.2a.44.44 0 0 0-.6-.18l-.13.08a2.31 1.09-28.9 0 0-1.5 2.07l.04.07a2.31 1.09-28.9 0 0 2.55-.17l.13-.07a.44.44 0 0 0 .17-.6m-5.35-.56a1.2 1.19 69.6 0 0-.91-.42l-3.77-.03q-.99 0-.12.47 2.26 1.24 4.68 1.7a.52.51-87.1 0 0 .61-.56q-.07-.67-.49-1.16m1.33-.44q-.24.15-.21.43.02.3.44.3.34-.01.51-.34a.36.36 0 0 0-.35-.52q-.21.02-.39.13m-6.95 1.25q-.11-.11-.24-.2-.48-.31-.85.12l-5.07 5.71q-1.08 1.22.32.38 4.01-2.41 7.93-4.28 2-.96-.21-1.03-.66-.02-1.27-.29-.34-.15-.61-.41m-96.17 3.76q4.42 1.26 8.45 2.34.6.17 1.15-.13l5.04-2.78q.54-.29.24-.83-.47-.85-1.49-.69-4.12.64-8.53 1.45c-2.51.47-4.99-.25-7.4-.81q-.74-.17-.69.59.02.3.25.48.39.32.89.24 1.06-.16 2.09.14m18.01-1.47a.51.51 0 0 0-.12.9l2.35 1.62a.51.51 0 0 0 .8-.43l-.05-2.44a.51.51 0 0 0-.69-.47zm14.16 6.28-3-4.83a1.8 1.8 0 0 0-1.12-.81l-5.03-1.19q-1.02-.24-1.01.81l.01 2.84a1.71 1.71 0 0 0 1.34 1.67l8.51 1.92q.64.15.3-.41m75.92-6.52q-1.74-.47-3.08-.34-.99.09-.1.53l2.18 1.08q.47.23.76-.2l.42-.6q.24-.36-.18-.47m9.81 5.85q-3.78-3.05-7.56-5.83a.24.24 0 0 0-.34.05l-.22.31a.53.53 0 0 0 .15.74q3.86 2.51 7.92 5.08.05.04.09-.01v-.01q.15-.19-.04-.33m-24.8 8.63 5.19-.38q.55-.04.61-.58.66-6.45 2.28-12.71.12-.46-.34-.53-1.42-.21-2.32.29-4.74 2.62-9.42 5.11a3.17 3.16-36.9 0 0-.73 5.06l3.29 3.22a1.84 1.83-25.1 0 0 1.44.52M238 281.04a.27.27 0 0 0-.2-.34l-3.01-.68a1.12 1.1 35.3 0 0-.82.13q-5.19 3.05-6.92 5.18-1.28 1.59-2.56 5.84-.15.51.38.48 5.75-.31 9.86-2.29a2.34 2.32 85.8 0 0 1.21-1.41zm40.83 11.18a1.07 1.07 0 0 0 1.13 1.26l2.08-.15a1.07 1.07 0 0 0 .96-.8l2.03-7.84a1.07 1.07 0 0 0-.13-.83l-2.01-3.28a1.07 1.07 0 0 0-1.96.37zm-91.59-7.71-8.89-2.51a3.2 3.19 25.2 0 0-3.51 1.26l-4.76 6.9q-.37.54-.25 1.18l1.2 6.21q.12.62.7.36l6.94-3.13a3.1 3.09-46.8 0 1 2.39-.08l9.02 3.41a1.51 1.51 0 0 0 2.04-1.55c-.16-1.85-.12-3.33 1.31-4.76q3.17-3.17 6.39-6.48a1.03 1.03 0 0 0-.14-1.56l-3.65-2.6a1.19 1.19 0 0 0-1.26-.07l-5.76 3.21a2.34 2.33 38.1 0 1-1.77.21m57.15-1.5q-1.77-1.32-4.46-1.87a.93.92-75.6 0 0-1.06.63l-2.5 7.89q-.11.36.21.55 3.54 2.04 7.07 4.81 1.99 1.57 4.05 2.02 3.6.78 6.9 1.52.67.15 1.28-.15l6.57-3.21a1.27 1.27 0 0 0 .57-.57q2.25-4.64 2.2-9.22a.75.75 0 0 0-.54-.72c-3.53-1.05-7.22-2.68-10.99-2.09q-3.86.59-7.82.85-.82.06-1.48-.44m40.29-1.53q.07.7.58 1.19a.4.4 0 0 0 .67-.34q-.11-.92-.87-1.16a.3.29-83.6 0 0-.38.31m17.49 5.86q.59-.13 0-.23-1.39-.22-2.88-.15c-3.3.16-8.1-3.83-10.87-5.46a.41.41 0 0 0-.5.65q3.05 2.96 5.82 5.39.59.52 1.38.53 3.54.06 7.05-.73M224.03 285q2.23-.91 3.75-2.12.92-.74-.16-.25l-3.99 1.79q-.13.06-.07.19l.13.26a.27.27 0 0 0 .34.13m70.54 3.97a2.17 2.16-23.3 0 1-1.44-.57l-4.67-4.35q-2.59-2.4-2.22 1.11.44 4.31 1.29 8.7.11.58.66.77l5.84 2.05q.61.22 1.19-.07 3.64-1.78 7.3-3.55c2.35-1.13 4.32-1.35 6.79-1.29a.43.43 0 0 0 .34-.71c-1.5-1.78-3.85-2.6-6.22-2.41q-4.58.36-8.86.32m-134.9 7.3q-3.64.53-7.59.87c-3.68.32-7.15 2.85-10.42 4.65q-1.18.66-.98 2 .46 3.06 2.11 5.45.9 1.31 2.34.63c2.19-1.03 4.13-2.21 6.6-2.33q4.61-.23 9.15-.3.58-.01.98-.44l6.64-7.05a2.09 1.98-77.6 0 1 .69-.47q1.08-.42.87-1.46-.66-3.38-1.28-6.66-.12-.59.22-1.09l3.44-5.16q.43-.65-.26-.3c-2.25 1.12-4.53 2.29-6.05 4.4q-2.6 3.6-5.18 6.56a2.09 2.08-73.6 0 1-1.28.7m148.48-8.51q2.54 2.22 6.61 3.18a5.63 5.59 36.4 0 0 4.09-.6q.41-.23 1.21-.69 1.92-1.1-.17-1.84-4.03-1.4-8.36-2.65c-3.9-1.12-7.81-.01-11.79.19q-1.56.08-.05.48 3.5.93 7.55 1.51.52.07.91.42m30.14-.93q.58.48 1.15.92.77.59.29-.25l-1.3-2.34q-.26-.46-.73-.2-.65.37-.9 1-.3.72.46.58.56-.1 1.03.29m-135.11 6.74q3.88-.08 7.23-.13 2.06-.03 3.59-2.41.31-.49-.04-.94l-1.63-2.13a.87.86-11.8 0 0-.5-.32l-10.13-2.35q-.43-.1-.73.21l-7.54 7.81a1.04 1.02 67.9 0 0-.3.73l-.04 2.66a.28.28 0 0 0 .4.26c3.11-1.51 6.27-3.33 9.69-3.39m19.56-7.69q.03-.23.16-.4.41-.51-.14-.16-.51.31-.38.95.53 2.57.39 4.38-.01.14.12.18.12.05.27.05.31.01.43-.29l1.84-4.47q.33-.82-.5-.51l-1.71.63q-.53.2-.48-.36m-5.66 3.37a.39.39 0 0 0 .17.66l3.52.82a1.03 1.02 88.9 0 0 1.22-1.27l-.59-2.2a1.01 1.01 0 0 0-1.66-.48zm.31-1.71a.3.29-87 0 0-.37-.42q-.6.25-.77.83-.37 1.3.67.43.07-.05.47-.84m113.07 5.51-.99.13q-.77.1-.39.78l2.17 3.81q.34.59 1.01.58l4.7-.02q2.04-.01 2.69-1.95l1.57-4.76q.2-.6-.26-1.03l-2.65-2.5q-1.8-1.68-3.31.26l-2.95 3.8a2.39 2.38-74.4 0 1-1.59.9m-2.82-5.34q-1.81.03-3.72 1.35-.51.35-.02.73l2.94 2.25q.46.36 1.04.3l2.07-.22q.99-.11 1.6-.91l2.34-3.09q.54-.71-.35-.65-2.83.2-5.9.24m40.77 10.2 2.41 2.07a.29.29 0 0 0 .41-.03l2.73-3.19a10.53 1.84-49.4 0 0 5.46-9.2l-.06-.05a10.53 1.84-49.4 0 0-8.25 6.8l-2.74 3.19a.29.29 0 0 0 .04.41m-153.49-8.57a.97.48 63.7 0 0 0-1.083.97.48 63.7 0 0-.86-.657.97.48 63.7 0 0 0 1.083.97.48 63.7 0 0 .86.657m71.55 4.16-.85-5.18q-.19-1.14-.49-.02l-1.15 4.3a.66.66 0 0 0 .44.8l1.59.5a.36.36 0 0 0 .46-.4m-20.99-2.82c-.5 1.87-1.06 4.65-2.95 5.59q-2.86 1.41-5.41 2.69-.29.15-.11.42l1.78 2.64a.28.27-41.7 0 0 .44.02c1.29-1.52 2.29-2.9 4.19-3.81q3.41-1.63 6.72-3.24a.39.38 53.7 0 0 .09-.63l-4.03-3.88q-.53-.52-.72.2m59.87 2a.32.32 0 0 0 .14-.58l-3.13-2.2a.32.32 0 0 0-.32-.03l-4.44 2.02a.32.32 0 0 0-.08.54l1.4 1.15a.32.32 0 0 0 .25.07zm-14.63-1.89q1.11 1.19 1.19 1.2 1.28.21.33-.67-.57-.53-1.45-.67-.23-.04-.07.14m-90.93.7-3.3-.7a1.15 1.15 0 0 0-1.38 1.22l.5 5.73a.44.44 0 0 0 .77.26q2.13-2.4 3.86-5.52.45-.8-.45-.99m32.77 7.55c-2.35-.5-6.38-.94-8.13-2.23q-3.74-2.73-7.74-5.56-.64-.44-1.39-.26-4.44 1.09-8.38 3.79-.56.38-.73 1.03c-.98 3.7-3.09 8.22-2.63 12.05q.42 3.45.73 6.51.06.58.5.95l4.34 3.65a3.09 3.08-72.3 0 1 1.07 2.08l.51 6.06a.4.4 0 0 0 .66.27q.4-.36.58-.85c1.47-3.97 2.42-8.95 5.42-12.14q2.69-2.85 5.27-5.82a2.08 2.08 0 0 1 1.76-.7q1.51.15 2.68-1.26 2.76-3.32 5.81-6.47.83-.85-.33-1.1M222 291.75l-3.06 4.46a.19.19 0 0 0 .05.26l.06.04a2.73 1.34-55.6 0 0 2.65-1.5l.18-.26a2.73 1.34-55.6 0 0 .44-3.01l-.06-.04a.19.19 0 0 0-.26.05m.86 22.24q.27.27.26-.11c-.18-3.58-1.1-7.27-.11-10.79q1.04-3.74 2.22-7.4.43-1.36 1.49-2.02 1.13-.71 2.43-1.09.04-.01.03-.05l-.07-.24q-.06-.19-.24-.16l-4.48.61q-.5.07-.76.5c-.67 1.1-.78 2.3-1.73 3.09q-1.22 1.02-2.91 1.45-2.56.65-1.78 3.17c1.51 4.84 1.81 9.37 5.65 13.04m121.01-20.85-1.23-.91q-.45-.33-.62.2l-1 3.02q-.28.83.42.3l2.44-1.87q.49-.37-.01-.74m-31.01-.65q-.16-.06-.3.03-.33.2-.16.54 1.18 2.47 3.43 4.4.48.41.86-.1l1.58-2.1q.36-.48-.03-.93-1.96-2.28-5.07-1.81-.16.03-.31-.03m-102.03 1.85q-3.58.13-7.16.25-2.75.1-5.14 1.16-2.43 1.08-4.87 2.24-.51.25-.51.82c-.01 3.03-.23 5.28 1.11 8.34q1.55 3.55 3.04 7.05a2.4 2.4 0 0 1 .02 1.81c-1.38 3.55-4.12 8.57-3.97 12.26q.13 3.46.09 6.68a.08.08 0 0 0 .14.06l4.81-4.85a.4.37 71.4 0 0 .11-.25q.11-4.13-.04-8.17c-.14-3.67 1.9-7.47 3.33-10.91q1.21-2.91 3.14-4.76c2.85-2.72 5.23-6.03 9.09-7.26a.93.92 78.3 0 0 .63-.97l-.43-4.58q-.08-.76-.59-.2c-.83.91-1.51 1.24-2.8 1.28m82.57 11.7-1.65 6.91a1.23 1.21-61.6 0 0 .34 1.16l4.61 4.4a3.08 3.06 51.6 0 0 3.65.43l8.88-5.14a1.06 1.06 0 0 0 .48-.61q1.16-3.94 2.21-8.26c.57-2.35 1.96-4.12 3.48-5.88q.45-.53-.11-.93l-.87-.61a3.26 3.1 1 0 1-.72-.71l-2.58-3.6a1.15 1.13 72.6 0 0-.88-.47q-4.38-.15-6.23.77-3.88 1.92-7.88 3.75c-2.28 1.05-5.16-.56-7.3-1.36q-.88-.33-.39.46l4.61 7.49q.63 1.03.35 2.2m30.8-7.73q.66.6 1.56.54l3.78-.25q.96-.07.5-.91l-1.71-3.11a1.97 1.95-17.9 0 0-1.97-1l-5.69.76a.36.36 0 0 0-.19.63zm35.79-4.62q-.8.85.08 1.28a.57.56 20.6 0 0 .79-.35q.25-.89-.33-1.07a.53.52-58.9 0 0-.54.14m-228.34 23.92q-2.74 3.05-5.45 5.84c-2.55 2.63-3.42 6.69-4.8 10.03q-.28.69.4.38l5.22-2.34q.73-.33 1.02-1.07 1.42-3.7 2.84-7.58c.94-2.56 2.64-4.2 4.52-5.98q.41-.39.41-.96c-.01-1.18-.19-1.9.09-3.15q1.23-5.55 3.2-10.94.22-.61.01-1.23-1.07-3.12-.6-6.15.09-.54-.44-.4-2.22.63-2.79 2.23-1.39 3.87-2.76 7.41-.83 2.17-.64 4.28.37 4.12.33 8.19-.01.82-.56 1.44m148.68-18.73a.33.33 0 0 0 .16.22l1.95 1.02a.33.33 0 0 0 .49-.32l-.55-5.2a.33.33 0 0 0-.35-.3l-2.31.15a.33.33 0 0 0-.3.41zm7.04-2.34q-1.33-2.16-3.39-2.15-.52 0-.54.51-.14 3.94 1.28 6.32c2.02 3.37 3.25 7.21 5.07 10.7q.82 1.55 1.22-.16l1.21-5.09q.4-1.69-.52-3.16-2.09-3.35-4.33-6.97m-14.59-1.74a.32.32 0 0 0-.19.56l1.65 1.42a.3.3 0 0 0 .09.05l4.42 1.79a.32.32 0 0 0 .43-.37l-.78-3.43a.32.32 0 0 0-.33-.25zm85.94.2a.68.67-46.3 0 0-.75.02c-.99.7-1.98 1.46-3.25 1.23q-4.68-.83-9.12-1.4-1.24-.16-2.22.62l-3.09 2.45q-1.53 1.21.32 1.86l5.45 1.91q.69.24 1.34-.08 4.4-2.15 8.92-4.32 1.41-.67 5.01-.33a.37.37 0 0 0 .41-.33l.04-.31q.01-.11-.1-.14-1.64-.36-2.96-1.18m-180.73 16.66q-.71 4.09-1.71 8.47-.54 2.37 0 4.72.67 2.89 1.24 5.9.52 2.69 1.99 4.88 1.85 2.76 3.62 5.36 1.4 2.08 3.1 2.7 1.86.68 3.65 1.34a.47.47 0 0 0 .63-.44l.04-6.02q0-.54.38-.93l1.13-1.16q.37-.39.39-.93.13-3.79-.08-7.5c-.21-3.58 2.57-8.72 3.95-12.19a1.94 1.94 0 0 0-.02-1.49q-1.63-3.78-3.27-7.59c-1-2.33-.97-4.89-.81-7.36q.04-.6-.56-.48c-.93.18-1.41.35-2.36-.03q-4.42-1.74-8.96-3.38-.5-.18-.98.04l-6.75 3.05q-2.12.96-.84 2.9l5.98 9a1.63 1.6-57.3 0 1 .24 1.14m141.09-15.83-1.43 1.95q-.35.48.15.8l6.1 3.8q.48.3 1.03.17l6.34-1.5a.57.57 0 0 0 .17-1.04q-.31-.19-.66-.33-.32-.13-.7-.11-2.6.18-5.08.24-.9.02-5.05-4.05a.58.58 0 0 0-.87.07m-44.89 29.37q.24.76.45-.01c.71-2.54 1.16-4.96.51-7.56q-.52-2.06-.88-4.01a2.49 2.46-34.3 0 1 .35-1.79q2.41-3.82 4.83-7.51c.89-1.34.7-2.39.16-3.77q-.18-.47-.63-.69-1.76-.89-3.64-1.54c-1.58-.54-2.42-1.43-3.69-2.42q-.42-.33-.9-.09-3.31 1.63-6.88 3.24c-1.75.8-2.75 2.36-3.96 3.75q-.38.44-.08.94c1.55 2.5 2.47 4.7 5.08 6.5q3.27 2.27 6.49 4.64a3.13 3.1 15.9 0 1 1.26 2.24q.35 4.18 1.53 8.08m74.06-19.14q5.32-.12 10.37-.2 1.73-.04 2.34-1.66l1.81-4.89q.59-1.59-1.1-1.53c-2.29.08-4.17.02-6.36 1.09q-3.83 1.88-7.56 3.66a2.71 2.66-47.5 0 1-2.05.11l-5.83-2.04q-.95-.33-.92.67l.07 2.73q.02.87.85 1.13l5.98 1.89q.54.17.94-.23.72-.71 1.46-.73m15.51-7.81c.22 1.51-1.02 4.27-1.66 5.65q-.4.87.48.48l7.16-3.14a.4.39 60.7 0 0 .16-.59q-1.95-2.84-5.6-3-.63-.03-.54.6m-26.94 7.05c-2.4-.17-3.1-.99-4.14-2.89q-.3-.56-.93-.42l-6.48 1.5a2.83 2.83 0 0 1-2.13-.36l-6.12-3.87a.49.49 0 0 0-.65.11c-1.43 1.78-2.78 3.33-3.41 5.66q-1.11 4.12-2.21 8.33-.23.87-1 1.31l-6.6 3.78q-1.23.71.19.67c2.39-.07 4.45.22 6.76-.78q4.06-1.76 8.04-3.52a2.1 2.09-46 0 1 1.61-.03l9.26 3.64q.48.19.95 0c3.21-1.25 6.73-2.31 8.58-5.53a1.14 1.1-33.2 0 0 .15-.66l-.43-5.51q-.1-1.34-1.44-1.43m-3.54-5.95q-.5-.13-.79.23-.43.53.22.74 1.57.51 3.15-.67.53-.38-.12-.43-.9-.07-1.74.14-.36.08-.72-.01m-133.81 30.4a2.14 2.13 68.4 0 1-.61 1.42l-4.82 4.84a1.36 1.35 56.3 0 0-.29 1.48l2.65 6.27a.5.5 0 0 0 .69.25c2.72-1.4 5.19-3 8.37-3.07q4.63-.11 8.62-.54a.69.69 0 0 0 .51-1.06c-.9-1.37-1.56-2.79-1.1-4.49q.95-3.5 2.24-7.42c1.21-3.71 4.43-6.75 6.87-9.82q.38-.47.04-.97c-1.61-2.4-3.59-4.57-4.52-7.31-.98-2.91-3.51-5.97-3.03-9.1q.11-.67-.56-.52-2.27.51-3.03 1.28-2.84 2.88-5.91 5.9-2.13 2.09-2.93 4.35c-1.18 3.34-3.32 6.67-3.2 10.31q.14 4.26.01 8.2M180 342.32q.82.62 2.24.27.66-.17.28-.73c-2.26-3.29-5.4-7.14-6.03-10.89q-.49-2.91-1.18-5.99c-.85-3.73.84-9.1 1.74-13q.11-.49-.17-.92-2.55-3.9-5.2-7.75-1.02-1.49-1.15-3.25a.4.4 0 0 0-.69-.25l-7.2 7.62a2.4 2.38-69.3 0 1-1.64.75q-4.2.16-8.76.31-2.2.08-3.75.9-1.72.91-3.58 1.64a.56.56 0 0 0-.24.87c1.68 2.16 2.29 4.07 4.85 5.65q3.47 2.13 6.95 4.54a2.36 2.36 0 0 1 .97 1.47l1.91 9.42a1.79 1.78 10.3 0 0 .82 1.18q3.33 2.08 6.51 4.33c3.27 2.3 8.57 2.48 12.43 3.41q.49.11.89.42m74.23-35.03q.31-.02.53-.26l2.97-3.3q.37-.42.18-.95-.53-1.43-1.1-2.12a2.08 2.07-43.9 0 0-3.16-.05l-6.04 6.87a.11.11 0 0 0 .08.18q1.2-.05 6.54-.37m83.29-7.34c-1.17.47-2.08 1.2-3.4 1.5q-.73.16-.42.84.82 1.8 3.72 2.27.77.12.66-.65-.24-1.65.13-3.39.19-.93-.69-.57m-56.71 4.06-5.32 8.3q-.24.38-.21.84.14 2.05.98 4.16.41 1.03.49-.07c.08-1.09.71-2.44 1.37-3.32q2.64-3.52 5.43-7.19.33-.43.24-.96l-.63-3.93a1 1 0 0 0-.69-.81l-1.03-.33q-.8-.25-.62.57l.27 1.15a2.12 2.08 55.6 0 1-.28 1.59m-64.245-.4a1.1.36 88.2 0 0 .325-1.111 1.1.36 88.2 0 0-.395-1.089 1.1.36 88.2 0 0-.325 1.111 1.1.36 88.2 0 0 .395 1.089m67.565-.55a.07.06 68.7 0 0-.03.09q1.4 2.48.02 4.4-2.36 3.29-5.27 7.03-1.68 2.18-1.86 6.23-.1 2.18 1.91 5.03 2.5 3.54 4.82 7 .35.53.98.68l8.35 1.95q.53.12.53-.42-.02-3.06-.92-5.59-.95-2.69-1.39-5.36c-.44-2.7-1.43-6.38-1.04-9.08q.2-1.45-1.06-2.37-.5-.36-.74-.92l-3.7-8.65q-.1-.23-.34-.13zm-145.02 1.46-2.61 9.55a.59.58 26.9 0 0 .2.61q.52.41.86-.06 1.86-2.5 4.77-3.53a.47.46 59.4 0 0 .19-.75q-2.09-2.41-2.69-5.79-.29-1.61-.72-.03m126.13 26.95 7.41-4.34q.56-.33.45-.96l-1.56-9.4q-.08-.48-.46-.78-2.99-2.38-6.18-4.52c-2.79-1.86-4.19-4.1-5.66-6.84a.59.59 0 0 0-.96-.11l-2.79 3.24q-.41.47-1.04.51l-7.16.42a1.45 1.44 7.1 0 0-1.29 1q-1.23 3.77-2.65 7.69-.89 2.42-.65 4.51.48 4.32.58 8.69.01.6-.38 1.04l-4.11 4.66a1.08 1.08 0 0 0 .49 1.75l10.45 3.25a1.92 1.92 0 0 1 1.09.89q1.99 3.61 3.73 7.09c1.62 3.24 3.92 4.56 6.45 6.69q.45.38.89-.01 1.29-1.16 1.07-2.71-.56-3.94-1.12-7.78c-.56-3.78 1.44-8.79 2.41-12.67a2.14 2.12-8.1 0 1 .99-1.31m73.89-17.6q-.23.23-.47.54-.05.07 0 .14.15.19.45.17a.13.1-65.2 0 0 .09-.05l6.03-6.15q.54-.55-.21-.77l-5.2-1.52q-.62-.18-.57.46l.44 5.69q.06.87-.56 1.49m14.7-.35a1.91 1.9-74 0 1 .7 1.27l1.14 9.91q.07.61.55.98l2.79 2.19q.52.41 1.16.29l3.1-.58q.61-.11.62-.74.04-2.55-.11-5.05c-.2-3.57-2.66-7.55-4.11-10.9-.51-1.17-.6-2.37.09-3.49q.38-.62-.35-.6l-10.17.25q-3.45.08-.75 2.23zM231.8 328.29q-1.37.69-.74 2.21c.69 1.69 4.36 4.11 5.82 5.36a.75.75 0 0 0 1.06-.08l4.09-4.7q.37-.42.32-.98-.29-3.75-.53-7.8-.16-2.79.73-5.47.94-2.82 1.88-5.6 1.62-4.84-1.85-1.1-2.25 2.44-4.51 5.02-1.83 2.08-2.75 4.76-1.29 3.77-2.57 7.32a1.91 1.9-3.3 0 1-.95 1.06m106.17 14.17q.33.65.1 1.35l-3.1 9.4q-.46 1.41.73 2.3l1.64 1.21q1.33.98 1.66-.63l2.23-10.74a2.13 2.06 80 0 1 .9-1.33l7.78-5.11a6.58 6.53-1 0 0 2.01-2.07q2.65-4.28 5.8-8.19.34-.41-.12-.69c-1.56-.96-2.89-1.97-3.07-3.99q-.39-4.52-1-8.9-.07-.55-.5-.89l-6.23-4.99q-.46-.37-.86.06c-2.3 2.41-4.5 5.14-7.37 6.62q-3.19 1.65-5.89 5.83-.32.48-.27 1.05.26 3.61.54 7.24.21 2.81 1.43 5.3 1.77 3.63 3.59 7.17m-200.12-18.45q.13 1.03-.51 1.84l-6.02 7.64a1.46 1.45-30 0 0-.29 1.08q.49 3.6.88 7.69c.39 3.97 3.51 8.19 5.49 11.75a2.63 2.6-51.3 0 1 .21 2.02c-.96 3.14-3.44 9.77-2.47 12.62q.21.61.65.14c2.71-2.83 5.12-6.53 8.58-8.32q3.11-1.61 6.22-3.03c3.91-1.78 8.41-1.32 12.61-1.65a2.25 2.22 17.8 0 0 1.53-.77q2.46-2.83 4.99-5.67c2.7-3.04 6.51-4.14 9.95-5.99a.23.23 0 0 0-.06-.43q-4.41-.9-8.93-1.69c-3.8-.66-8.23-4.4-11.36-6.5a2.13 2.12 11.4 0 1-.9-1.35l-1.96-9.6q-.11-.53-.55-.83-3.43-2.38-7.12-4.75c-2.52-1.61-3.47-3.67-5.05-5.98q-.38-.54-.98-.29-3.21 1.33-5.42 4.36-.38.52-.3 1.16zm160.97-3.39a.34.34 0 0 0-.29-.55l-1.41.08a.34.34 0 0 1-.26-.09l-5.36-5.11a.34.34 0 0 0-.57.29l1.86 12.2a.34.34 0 0 0 .61.16zm29.19-1.47q-4.03-1.62-8.34-3.35a1.72 1.7-46.3 0 0-1.37.04q-3.58 1.64-7.1 3.14c-3.25 1.38-6.53 1.18-9.97 1.12q-.76-.02-1.23.59l-5.81 7.55q-.35.46-.07.96 1.52 2.65 3.02 5.21 1.33 2.26 3.58 3.82 2.98 2.06 6.24 4.48a2.54 2.53 13.8 0 1 1 1.65l1.12 7.14a.7.7 0 0 0 .56.57q3.74.73 8.27 1.94c3.65.97 8.77-.55 12.58-1.15 1.23-.19 1.86.22 2.82.84q.38.26.53-.18l3.22-9.81q.16-.49-.08-.96-1.76-3.45-3.59-7.19-1.24-2.53-1.45-5.35-.27-3.67-.55-7.74-.04-.5.2-.94.84-1.53 2.14-2.77 1.88-1.79-.48-.73c-1.8.81-3.14 1.97-5.24 1.12m-102.2 1.7-1.72 9.91a.12.12 0 0 0 .18.13l5.34-2.67q.25-.13.22-.41l-.65-6.96q-.06-.6-.52-.98l-4.38-3.61q-.73-.6-.29.24.62 1.15 1.38 2.27a2.91 2.88-57.2 0 1 .44 2.08m-98.22 11.54-6.22 2.76a1.24 1.23 76.9 0 0-.73 1.19q.17 3.93.3 7.87.09 2.71 1.2 5.16 1.56 3.43 3.15 6.86a3.06 3.05-47.2 0 1 .09 2.36l-3.32 8.87q-.19.49.02.97 1.87 4.26 3.92 8.64c.7 1.49 2.07 2.48 3.22 3.59a1.16 1.15 32.5 0 0 1.88-.41q1.62-4.29 2.92-8.47c.7-2.25-.55-4.93.2-7.58q1.2-4.3 2.39-8.37a2 1.98 38.7 0 0-.18-1.55q-2.08-3.57-3.74-6.6-1.39-2.52-1.74-5.42-.49-4-.89-7.58a2.57 2.55-29.5 0 1 .53-1.87l5.99-7.65q.36-.46.29-1.03l-.69-5.64q-.09-.67-.62-.26-2.57 2.02-3.48 4.42-1.65 4.35-3.3 8.49a2.28 2.27 88.7 0 1-1.19 1.25m95.7-14.1q-2.12 2.82-4.29 5.23c-2.62 2.9-3.59 8.38-4.71 12.23q-.34 1.14.91 2.62.38.46.78.01c1.84-2.04 4.21-5.33 6.64-6.82q.43-.26.51-.76.7-4.85 1.68-9.87c.21-1.07-.28-2.17-1.21-2.71a.24.24 0 0 0-.31.07m51.76 8.33q-.21.58.29.93l6.34 4.51q.83.59.24-.25l-4.84-6.86q-.24-.34-.28-.75-.03-.22-.13-.42-.33-.65-.58.04zm-11.24 28.01-.5 1.19q-.29.69.44.54l5.94-1.19a1.22 1.21 56.2 0 1 .89.18l8.36 5.52q.51.34.84-.18l3.15-4.83a1.26 1.21-35 0 0 .18-.92q-.71-3.69-1.73-7.9c-.91-3.79.52-8.53 1.27-12.37a.94.94 0 0 0-.38-.94l-8.08-5.8q-.42-.3-.87-.04l-7.4 4.34q-.55.32-.72.93-1.04 3.81-2.07 7.73-.69 2.63-.23 5.24.69 3.93 1.07 7.43.06.56-.16 1.07m101.24-22.37c-.93-.87-1.16-1.87-1.06-3.11q.07-.82-.74-.63l-1.99.48q-.88.21-.12.71c4.42 2.86 6.22 7.58 8.61 12a2.4 2.37 39.2 0 1 .19 1.79l-2.52 8.76q-.14.48.34.59l4.33 1.02a.48.47-78.8 0 0 .58-.39q.58-3.45 1.42-7.09c1.4-6.07-5.31-10.68-9.04-14.13m-130.14 7.99q-.08-1.24 1.45-2.79.4-.41-.03-.77-2.44-2.03-5.18-4.28-1.07-.88-1.12-2.1-.04-1.18-1.1-.65l-3.63 1.82q-1.04.52-.77 1.66.8 3.33 1.48 6.59c.73 3.51 4.17 7.2 6.23 10.25q1 1.48 3.97 3.03.85.44.35-.37l-.54-.89q-.29-.47-.33-1.02-.43-5.2-.78-10.48m125.68 11.71a2.33 2.33 0 0 1 1.78-.33l3.16.7q.78.18 1-.59l2.46-8.56q.17-.6-.14-1.14-2.1-3.78-4.34-7.69c-1.21-2.11-3.02-3.22-4.85-4.64a1.34 1.34 0 0 0-1.92.31l-5.3 7.79a7.26 7.12-.1 0 1-2 1.97l-7.64 5q-.46.3-.59.84-.99 4.38-1.8 8.78-.31 1.68-1.2 2.92-.3.43.09.79c.72.66 1.53 1.19 2.56.99q3.4-.64 6.93-1.08c4.13-.51 8.35-3.8 11.8-6.06m-61.81-13.98q-1.86-1.32-3.92-5.85-.38-.82-.44.08c-.28 4.57 2.58 7.66 4.76 11.31q1.35 2.27 3.18 3.43 2.76 1.77 5.51 3.95a.03.03 0 0 0 .05-.03q-.47-3.36-1.02-6.75a.56.54 15 0 0-.22-.37q-4.18-3.16-7.9-5.77m-70.45 16.43.85 8.29q.07.69.75.55l8.78-1.85a1.5 1.5 0 0 0 1.1-1.99q-.61-1.62-1.52-3.12c-1.59-2.6-5.21-3.37-6.61-5.35q-2.24-3.15-4.52-6.4-1.68-2.38-2.29-5.19-.68-3.14-1.34-6.36a.61.61 0 0 0-1.05-.28l-6.04 6.66q-.41.44-.13.97 1.05 1.99 2.04 3.9c1.62 3.12 6.19 5.97 9.03 8.36a2.73 2.71-72.9 0 1 .95 1.81m63.34 10.23 5.31 7.86a1.42 1.39 78.2 0 0 .91.61q4.57.88 9.44 1.79.18.04.27-.11.09-.13.03-.32t-.23-.29q-4.22-2.61-4.95-3.88-2.35-4.08-4.91-8.57a3 3 0 0 1-.29-2.26l2.49-9.21a1.35 1.35 0 0 0-.14-1.04q-2.32-4.01-4.64-8.03c-.73-1.26-.86-2.48-1.07-3.9q-.09-.61-.69-.75l-8.94-2.1q-.57-.13-.66.45-.63 3.88-1.42 7.31-.5 2.2.15 4.65 1.19 4.48 1.82 8.44a1.16 1.12 57.9 0 1-.16.77l-3.22 4.97q-.33.52.27.64l8.67 1.67a3.06 3.05 78.5 0 1 1.96 1.3m-100.14-19.42a.79.79 0 0 0 1.06.73l2.38-.88a.79.79 0 0 0 .46-1.05l-2.41-5.82a.79.79 0 0 0-1.52.3zm51 12.28q.04.19.17.34.37.43.84.11l3.2-2.17a2.64 2.62-56.2 0 1 2.03-.41q4.73.97 9.23 1.74 4.08.7.75-1.76c-1.97-1.45-3.7-2.89-4.86-5.19q-1.84-3.68-3.79-7.23a1.78 1.76 83.3 0 0-1.08-.86c-3.65-1.03-8.07-2.04-10.79-3.69a1.52 1.52 0 0 0-2.3 1.39q.32 5.54.67 10.73.08 1.19 1.77 3.46c.99 1.33 2.45 1.84 3.72 2.83q.35.27.44.71m80.14 9.36 4.8-.96q3.97-.8.01-1.64-3.57-.75-7.23-1.75c-4-1.1-7.62-4.56-11.05-7.01q-.47-.33-.59-.9l-.39-1.8q-.11-.53-.55-.85c-2.96-2.17-7.54-4.69-9.27-7.81q-1.27-2.29-2.78-4.62-.07-.11-.19-.04l-.24.14q-.02 0 .05.12l5.06 8.69a3.2 3.18-52.6 0 1 .32 2.44l-2.49 9.18q-.13.44.1.85 1.93 3.4 3.87 6.81 1.31 2.29 3.19 3.8 1.97 1.57 4.06 3.02.42.29.91.18l6.73-1.42q.57-.12.9-.61l3.27-4.81a2.42 2.42 0 0 1 1.51-1.01m-103.76-8.68 8.33 5.47q1.08.71.95-.57l-.8-8.21q-.12-1.19-1.06-1.91-3.05-2.37-6.11-4.9c-2.14-1.77-3.24-4.13-4.38-6.56q-.23-.48-.76-.39-4.44.81-9.19.81c-2.78 0-5.49 1.33-7.9 2.71q-1.49.86-.33 2.14 3.35 3.71 6.93 6.95c1.58 1.43 1.65 3.36 1.42 5.34a.62.61 87.3 0 0 .73.67l9.94-1.99a2.99 2.96-33.6 0 1 2.23.44m-26.35-3.56q-1.51-2.86-2.13-5.91-.1-.5-.49-.84-3.33-2.8-6.88-4.15-2.53-.96-1.03 1.29 1.51 2.24 2.89 4.44c1.79 2.85 4.82 4.15 7.44 6.01q.64.45.42-.3-.09-.28-.22-.54m1.31-4.61 1.31 6.64a1.41 1.39 89.9 0 0 1.1 1.11l8.12 1.57q.69.14.68-.57l-.05-2.68a1.53 1.52 19.6 0 0-.55-1.15q-5.18-4.33-8.4-8.85-.37-.51-.88-.15-1.43.98-3.21.95-.72-.02-.33.59.34.53.97.86 1.02.54 1.24 1.68m-.35 3.31q-.03-.83-.34-1.72-.13-.4-.15-.81-.06-1.29-1.25-1.73-.58-.22-.34.36l1.65 3.99q.47 1.13.43-.09m146.6 6.57-1.26-.83q-.49-.34-.87.13-1.73 2.12-2.46 4.06a2.02 2.01 31 0 0 .57 2.25q3.14 2.69 6.31 5.52c1.89 1.68 4.32 2.22 6.7 2.98a.62.62 0 0 0 .7-.24q2.33-3.39 4.51-6.83c.97-1.53 2.52-1.88 4.21-2.02q.55-.05.58-.6l.13-1.93q.03-.48.33-.87l6-7.6q.43-.55-.25-.68l-3.19-.59q-.53-.1-.98.19-3.06 1.97-6.46 4.06-2.55 1.57-5.53 2.06-4.13.67-7.82 1.22-.67.1-1.22-.28m-10.26 4.44q1.04 1.43 2.65.51c2.57-1.46 1.6-5.74 1.4-8.18a3.11 3.1 82.4 0 0-3.66-2.81q-4 .75-8.73 1.43c-2.79.41-6.87-1.1-9.6-1.71q-5.19-1.17-.92 1.99 2.85 2.1 5.86 4.27 1.96 1.42 4.17 1.85 4.14.81 7.91 1.99.57.18.92.66m31.68-.14q1.24-.13 2.44-.26 2.15-.23 3.36-2.04l4.54-6.8a.15.14 23.3 0 0-.09-.22l-4.5-1.1q-.2-.04-.33.1-3.43 3.96-6.54 8.41-1.53 2.19 1.12 1.91M239.74 357q.49 1.23 1.37 2.22.25.28.57.07.13-.08.2-.25.16-.34 0-.67-.64-1.28-2.19-1.93-.49-.2-.24.26.1.2.29.3m3.48 2.93 1.71 7.61q.13.6.65.92l7.48 4.74q.57.37.75-.29.96-3.45 1.81-7.06c.65-2.74 2.27-4.89 4.08-6.94q.5-.57-.26-.66-5.07-.58-10.74-1.9-.76-.18-1.41.26l-3.77 2.58a.72.71-23.1 0 0-.3.74m20.76-1.5a2.55 2.53 19.5 0 1 .73 1.51q.44 3.98.75 8.15.17 2.42 1.37 4.55 1.59 2.86 3.19 5.98.32.62.89.22l3.6-2.53a1.99 1.96 77.1 0 0 .81-1.31q.75-4.88 1.7-9.32c.27-1.26.98-2.07 1.53-3.19q.24-.49-.21-.79l-7.89-5.26q-.47-.32-1.02-.21l-5.49 1.1q-.89.18-.25.82zm71.36-1.94q-.43-.21-.41.27l.22 3.76q.05.87.54.15l1.36-1.95a.8.79-49.1 0 0-.07-1q-.72-.77-1.64-1.23m-70.87 19.36c1.8.31 3.03 2.85 4.1 4.2q.13.16.33.12.14-.03.26-.11.3-.23.13-.57c-1.76-3.51-4.51-7.43-4.82-11.38q-.3-3.9-.71-7.69c-.13-1.12-.85-2.03-1.96-2.21q-.57-.09-.85.41c-1.42 2.47-3.56 4.16-4.25 7.05q-.9 3.81-2.02 7.82-.17.63.47.75 4.1.71 9.32 1.61m-59.74-9.65a.33.33 0 0 0 .52-.29l-.24-5.16a.33.33 0 0 0-.26-.31l-8.61-1.73a.33.33 0 0 0-.38.41l.31 1.06a.33.33 0 0 0 .13.18zm35.22-4.54q-4.43 1.92-10.06 2.45a.39.39 0 0 0-.22.69l7.14 5.86q.51.42.68-.22 1.16-4.46 2.87-8.37.31-.72-.41-.41m102.98 17.22a.36.35-43.3 0 0 .41.01l5.23-3.53a.4.39 31.9 0 0-.17-.72q-3.27-.45-5.35-1.97-4.8-3.5-8.53-7.61-.37-.41-.7.03-.7.95-1.98.97-.7.01-.36.62 1.39 2.44 2.79 4.8 1.33 2.23 3.63 3.8 2.58 1.76 5.03 3.6m10.37-3.54c1.96.56 2.86 3.28 3.67 5q.83 1.74 1.41-.09.72-2.25 1.37-4.49.74-2.6.35-4.59-.47-2.4-.54-4.75-.02-.61-.64-.57c-1.53.11-3 .38-3.88 1.79q-2.09 3.33-4.17 6.31a.51.51 0 0 0 .28.78q1.08.3 2.15.61m-34.11-2.44q3.98 2.24 7.47 4.79c3.16 2.32 8.89 2.79 12.71 3.43q1.14.2 2.41-1.26.33-.38-.08-.68-2.4-1.72-4.88-3.52-2.12-1.55-3.51-3.92-1.4-2.38-2.91-4.79a.88.87-20.9 0 0-.89-.39l-6.56 1.22q-.57.1-.9.58l-2.92 4.28a.18.18 0 0 0 .06.26m-98.92 3.58-4.21-6.28q-.44-.66-1.22-.82l-6.55-1.33q-.98-.2-.24.47 2.3 2.09 4.54 4.44c2.03 2.12 4.85 2.7 7.44 3.81a.2.2 0 0 0 .24-.29m92.06.77q.04.11.04.23-.02.77.68.45 2.2-.99 3.31-2.91.38-.65-.36-.5l-4.55.93q-.59.12-.2.57.36.42.78.8.21.18.3.43"/></svg>