<svg xmlns="http://www.w3.org/2000/svg" viewBox="0 0 382 382"><path d="m14.11 0 1.9.4q.65.13-.01.22L0 2.67q-.01-.43 0-.86L10.98 0zM24.14 0q1.08.4 2.38.32.71-.04.7.67-.01.39.25.68.41.45 1 .35L40.2 0h6.97c.09 1.55.77 3.08 2.25 3.74q10.05 4.44 19.93 8.98c2.54 1.17 5.68.27 8.29-.02a.56.56 0 0 0 .39-.89Q75.99 8.97 74.25 6q-.89-1.52-2.94-2.58Q68.09 1.76 64.53 0h3.69q8.45 4.24 10.76 5.08 1.07.39 2.34-.46.42-.28.14-.7L78.92 0h.93l2.77 3.84q.33.45.88.39l5.01-.57q.87-.1.39-.83L87.08 0h1.57l1.65 2.41q.41.59 1.12.62 1.58.06 3.34-.36.73-.17.08-.54L91.05 0h2.83l1.17.71q.51.31.9-.13l.51-.58h2.01q1.73 5.86 6.06 11.35.35.45.89.24 5.38-2.08 9.72-6.77.33-.37.08-.79L112.82 0h1.45l2.54 3.85a.5.49-44.8 0 0 .83 0L120.21 0h1.02l-2.6 4.39q-.24.4.18.58l13.92 6.23a.32.32 0 0 0 .45-.29L133.16 0h1.37c.19 2.13-.34 5.04.83 6.9q2.01 3.2 4.15 6.43a4.58 4.55 85.2 0 0 1.93 1.64l10.9 4.92a1.16 1.12 52 0 0 .64.09l15.88-2.46q1.13-.18.08-.63c-4.46-1.91-8.8-4.13-13.21-5.84q-2.17-.84-3.75-3.27-2.53-3.86-5.07-7.78h1.06l5.84 8.74a1.78 1.68-3.1 0 0 .73.62l14.02 6.32q1.01.45.41-.48-3.32-5.12-6.56-10.14-.93-1.45-.39-5.06h.93c-.06 1.94-.28 3.7.83 5.4q3.74 5.7 7.22 11.09.45.69 1.25.52l3.22-.71q.6-.13.58-.74c-.09-2.06.25-3.08-.98-5.02q-3.38-5.35-7-10.54h2.12l5.12 2.4q.47.22.58-.29.23-.99.06-2.11h1.04l.12 2.79q.02.54.54.69 2.76.85 3.83 2.57 2.52 4.08 5.26 8 .33.47.89.38l1.92-.29q.58-.09.58-.67v-6a.93.92 12.5 0 0-.54-.84l-5.64-2.57q-.36-.17-.2-.53l.1-.23a.32.32 0 0 1 .42-.16l5.27 2.34q.53.24.53-.34l.06-5.14h1.69l-.02 5.11q-.01 1.38 1.24 1.94l6.82 3.07q1.28.58 1.26-.83L200.96 0h1.45l.04 9.99a6.28 6.26-61.6 0 0 .99 3.35l7.75 12q.66 1.03.66-.2V0h.97q.02 9.58-.03 19.19-.01 2.57 1.04 4.01 1.26 1.71 2.25 3.56.38.7.8.03l15.1-24.1q.28-.44.13-.94l-.5-1.75h3.06q.71.42 1.06 0h2.94q.32.58 1.07.45.69-.13.48-.45h1.2l.39 1.42q.14.51.62.73l5.05 2.28q.58.26.92-.26l1.3-1.96q.28-.41.03-.85L248.94 0h.69q.89.88 1.62 0h.79q.26.59-.33 1.1-.54.47-.15 1.08l2.94 4.59a.5.5 0 0 0 .84 0L259.72 0h1.02l-5.04 8.17q-.27.43-.27.93v28.99q0 1.05.52.14 1.9-3.29 4.14-6.46 1.39-1.96 1.5-4.39c.23-5.76.04-11.57.13-17.29q.01-.3.3-.3h.32q.35 0 .35.35l.01 32.91a.35.35 0 0 0 .5.32l8.78-3.95q.5-.23.8-.69l9.9-15.31q.28-.44.28-.96l.02-18.71q0-.45.44-.38l.32.06q.25.04.25.29l.01 18.77a2.43 2.41 61.8 0 1-.39 1.32l-9.91 15.35q-.54.85-1.47 1.26l-8.88 3.98a1.28 1.28 0 0 0-.55 1.86l10.05 15.56q.32.49.85.73l9.66 4.32q.51.23.81-.24l6.01-9.24a.41.41 0 0 1 .6-.1l.24.19q.17.14.05.33L285 67.24q-.19.29.12.43l5.2 2.33q.24.11.38-.11l9.86-15.23q.33-.51.33-1.13V35.41q0-.62-.33-1.14L290.47 18.7q-.29-.46.24-.58l.28-.07q.22-.06.34.13l9.9 15.3a4.14 4.11-61.6 0 1 .66 2.24V53a4.88 4.86 61.5 0 1-.77 2.63l-9.59 14.83q-.3.46-.3 1l-.01 29.45a.28.27 77.6 0 0 .39.25l5.89-2.68q.25-.12.37.14l.14.29q.17.38-.2.55l-5.96 2.69a.97.96-11.6 0 0-.56.84l-.18 5.69q-.02.64.56.38l16.13-7.26a1.79 1.72-84.5 0 0 .77-.66l9.93-15.37q.3-.46.3-1V66.13q0-.34.33-.29l.38.06a.34.33 4 0 1 .29.33v18a4.68 4.67-28.6 0 1-.75 2.54l-9.65 14.92a2.77 2.76 4.2 0 1-1.22 1.05l-16.46 7.38a2.43 2.37 3.8 0 0-1.02.87l-20.25 31.3a.24.23 20.1 0 0 .17.36l17.69 2.66q.52.08 1-.13l16.68-7.52a1.41 1.39-85.3 0 0 .62-.53l10.19-15.77q.13-.2.33-.07l.29.19q.35.22.12.57l-9.99 15.48a3.15 3.13 4.1 0 1-1.34 1.15l-16.43 7.37a3.29 3.19 36.2 0 1-1.81.25l-17.99-2.75q-.54-.08-1.03.15L242.14 156q-.54.25-.54.86v9.6a3.85 3.84 61.7 0 1-.63 2.11l-10.06 15.52a1.73 1.69 3.5 0 1-.73.63l-9.84 4.47q-.51.23-.2.7l2.98 4.59a2.07 2.02 29.1 0 1 .33 1.11v18.83q0 .58-.31 1.06l-9.99 15.44q-.33.5-.33 1.1l.01 37.24q0 .52.48.3l15.9-7.16a2.38 2.31 3.7 0 0 1.04-.89l9.82-15.2q.3-.45.3-.99v-18.55a.38.38 0 0 1 .38-.38h.33q.28 0 .28.27l.01 18.61a2.98 2.97-28.6 0 1-.48 1.62l-9.8 15.16a3.57 3.56-85.8 0 1-1.49 1.29l-16.51 7.41q-.54.25-.85.74l-15.94 25.04q-.29.46 0 .91l5.51 8.52a2.15 2.15 0 0 1 .34 1.16v18.69q0 .61-.33 1.13l-9.77 15.12q-.54.84-.54 1.84l-.04 38.1h-.93l-.06-38.51a.69.69 0 0 0-.41-.63l-16.86-7.58q-.44-.2-.71-.6l-9.96-15.42a3.7 3.69-61.6 0 1-.6-2.02l.01-18.32q0-.38.38-.34l.25.03q.37.03.37.4v18.22a2.81 2.8-61.8 0 0 .46 1.54l9.68 14.98q.35.54.94.81l15.83 7.08q.63.28.63-.41v-36.55q0-.66-.6-.93l-34.07-15.6q-.46-.21-.83.13l-13.07 11.58a5.48 5.44-69.8 0 1-2.8 1.31l-17.62 2.62q-.49.08-.94-.13l-17.32-7.83a.28.27 17.7 0 1-.16-.3l.05-.28q.1-.51.57-.29l17.1 7.68q.46.21.96.13l17.89-2.73q.67-.1 1.18-.55l13.1-11.62q.52-.46.14-1.03l-9.85-15.25a1.66 1.64-4.4 0 0-.73-.62l-16.35-7.37q-.48-.22-1-.14l-18.48 2.8q-.31.05-.35-.25l-.05-.35q-.05-.32.27-.36l17.77-2.75q1.45-.22 2.8.38l14.3 6.44q.8.35.32-.38l-8.71-13.47q-.33-.51-.93-.42l-17.25 2.59a4.91 4.9 52.9 0 1-2.73-.38l-16.4-7.43a1.72 1.65 84.2 0 1-.74-.63l-1.47-2.28q-.5-.78-.75.11-1.21 4.31-2.26 8.19-.4 1.49-1.61 2.56-7.88 6.95-13.42 11.84a.27.27 0 0 1-.38-.02l-.22-.23a.4.39 48.5 0 1 .03-.56l13.89-12.31a1.77 1.76-13.1 0 0 .54-.86l2.64-9.47a2.61 2.59 36.6 0 0-.32-2.12l-6.93-10.69q-.14-.21.05-.38l.23-.21a.39.39 0 0 1 .59.08l6.76 10.45a.25.25 0 0 0 .45-.07l1.44-5.25q.14-.49-.01-.98l-5.3-16.99a.61.59-12.5 0 0-.66-.41l-17.79 2.64a2.67 2.65-70 0 0-1.34.63l-13.3 11.78q-.45.4-.61.98l-4.99 17.97q-.06.2-.26.14l-.29-.08q-.47-.13-.34-.59l4.86-17.49q.31-1.1 1.17-1.86L68.51 223q.5-.45-.16-.35l-16.1 2.43q-.61.09-.78.7l-4.95 17.67a1.81 1.78 77.1 0 1-.53.86l-13.74 12.17a3.44 3.43-69.8 0 1-1.73.8l-18.32 2.79q-.26.04-.31-.22l-.06-.35q-.06-.35.29-.41l18.39-2.84q.59-.09 1.03-.48l13.55-12.01q.43-.38.58-.93l4.77-17.08q.16-.59-.39-.84l-16.52-7.44a1.73 1.71 52.5 0 0-1.02-.14l-17.78 2.69q-.45.07-.79.37L0 232.51v-1.16l13.34-11.82a1.84 1.81 19.7 0 1 .93-.43l16.38-2.52q.97-.15.07-.55l-14.64-6.59q-.45-.2-.83.12L0 222.66q-.01-.47 0-.93l14.34-12.74a.74.74 0 0 0 .13-.95l-9.72-15.05q-.28-.44-.75-.65l-4-1.81v-.92q1.95.55 3.7 1.49 1.7.91 2.71 2.53 4.65 7.42 9.24 14.32a1.37 1.35-5.2 0 0 .62.51l35.05 15.52q.48.21 1 .13l37.16-5.92q.64-.1 1.13-.54l11.95-10.58q.56-.49-.17-.38l-16.2 2.44a3.11 3.1 52.7 0 1-1.75-.24l-16.93-7.62q-.26-.11-.14-.37l.11-.26q.18-.4.57-.22l16.96 7.62q.49.22 1.02.14l17.7-2.75a1.83 1.81 19.6 0 0 .96-.45l5.44-4.84q.45-.4.14-.91-2.07-3.38-4.43-6.82-.99-1.44-1-3.06-.01-7.29.03-13.47.01-.54-.48-.77l-12.84-6.02q-.65-.31-1.37-.2l-18.4 2.77q-.5.08-.44-.42l.03-.32q.02-.2.22-.23 8.94-1.37 17.92-2.73c2-.3 3.11.49 4.76 1.29q1.07.53.42-.47l-3.92-6.05a2.01 2.01 0 0 0-2.07-.88q-4.02.78-8.41 1.35-1.84.24-3.63-.59-6.98-3.26-14.67-6.62c-2.43-1.05-3.65-3.91-5.02-6.02q-.35-.54-.84-.11l-7.53 6.71a3.37 3.31-69.7 0 1-1.68.79q-8.89 1.38-17.89 2.71c-1.15.17-2.1-.25-3.02-.88q-.49-.34-.96.04-2.28 1.83-4.23 3.75c-1.94 1.91-1.08 5.02-3.5 7.1q-5.09 4.39-10.19 9.02a1.55 1.51 68.7 0 0-.49 1.15q.01.89-.73.69-.6-.15-1.1.21-2.18 1.55-4.81 1.3v-.84q2.86-.04 4.68-1.64 1.28-1.12 2.13-4.08 1.25-4.36 2.48-8.91a.3.3 0 0 0-.33-.37L0 167.99v-.98l8.01-1.31a3.1 3.1 0 0 0 2.46-3.99l-5.42-17.36a2.45 2.43 78.2 0 0-2.58-1.7L0 142.9v-.66q.6-.75 1.31-.49 1.4.53.39-.58-.6-.66-1.7-1.43v-1.26q2.11 2.27 4.46 2.73 2.74.54 3.34.8 6.63 2.92 13.56 6.11 2.33 1.08 4.14.78 3.84-.66 7.21-1.2a.99.98-86.7 0 0 .79-.71l3.67-13.13q.18-.66-.44-.94l-16.34-7.37q-.57-.25-1.19-.16l-17.46 2.63q-.46.07-.49.54-.08 1.42 1.08 2.38 7.85 6.46 14.1 11.74a.45.45 0 0 1-.02.7q-.32.24-.73-.06Q7.82 137.43 0 129.41v-3.37q.25-.41.86.62.28.47.82.39l16.04-2.46a.19.19 0 0 0 .05-.36L2.86 117.5q-.45-.21-.85.09L0 119.1v-1q.6-.53.94-1.15.25-.47.04-.95-.31-.69-.98-1.24v-2.22l2.59 3.49q.29.4.75.6l10.23 4.56a3.4 3.38-37 0 0 1.9.26q8.97-1.32 16.81-2.57 2-.32 3.83.84 2.45 1.53.85-.94l-8.39-13.02q-.19-.28.13-.41l.34-.13a.37.36-27 0 1 .44.14l7.62 11.78q1.04 1.61.47-.22l-2.5-8.04q-.18-.57-.64-.95l-7.81-6.52q-.43-.36-.98-.26-7.08 1.24-13.56 2.01-.28.03-.31-.25l-.04-.33q-.05-.53.48-.62l11.8-1.93q.89-.15.17-.69c-1.68-1.26-3.26-3.28-5.41-3.55q-9.36-1.18-16.99-2.06-.53-.06-.6.47Q.59 98.29 0 96.23V91.1q.37-2.62 1.04 1.13a.56.55-.6 0 0 .47.45q7.87 1.02 16.7 1.96c3.04.33 5.33 2.9 7.58 4.76q.48.4 1.09.25c2.21-.56 3.67-.11 5.6-1.87q5.86-5.32 12.06-10.72a3.72 3.64 77.9 0 0 1.13-1.79l4.54-16.35q.2-.69-.46-.99l-15.41-6.97a4.4 4.4 0 0 0-2.46-.34l-10.39 1.54q-.47.07-.55.54-.68 4.39-2.91 6.36-6.13 5.38-12.92 11.38a.66.65-42.1 0 1-.91-.04l-.19-.21a.38.38 0 0 1 .03-.54q6.62-5.84 13.63-12.07c1.38-1.23 1.22-2.85 1.84-4.43q.28-.7-.47-.58c-2.6.43-4.08.01-6.33 2.02Q6.47 70.17 0 75.81v-1.59q5.85-5.41 11.93-10.62 1.82-1.55 3.53-1.84 1.96-.34 4.02-.68.58-.1.74-.66l1.33-4.71q.15-.53-.35-.76l-5.05-2.32a1.01 1.01 0 0 0-1.09.17Q8.17 59.07 1.09 65.1q-.42.36-1.09.28v-.53l13.56-12.43q1.37-1.25.11-2.62-.6-.64-1.05-1.13-1.27-1.37-2.81-.31-2.8 1.93-4.2 3.24-.37.34-.87.43l-4.74.8V52q1.51-.51 3.16-.68c1.95-.21 2.44-.87 3.71-2.03q.53-.49-.14-.74L0 46.01v-.95l6.17-5.2q.47-.4.17-.94c-.95-1.77-1.33-2.93-3.37-3.88Q1.5 34.36 0 33.76v-2.17l12.85-1.7a.38.38 0 0 0 .27-.59L8.5 22.25a.84.84 0 0 0-1.36-.06Q4.46 25.63 0 25.8v-1.27q1.12-.54 2.65-.49.53.02.92-.33l2.08-1.89q.55-.48-.12-.78L0 18.55v-.98l6.54 2.8q.46.2.84-.12l1.99-1.68q.41-.35-.08-.57L0 13.93v-1.07l10.17 4.4a.78.77-54.2 0 0 .82-.14l6.52-5.84a.53.53 0 0 0-.15-.88c-1.95-.8-3.22-1.68-5.56-1.28q-5.89 1-11.8 1.8v-1.8q4.86-.77 9.74-1.48c2.87-.42 5.37.45 8.2-.6q.44-.17.68-.57Q20.43 3.43 20 0zm-.32 1.93a.35.35 0 0 0 .01-.48q-.53-.6-1.29-.41-.38.09-.53.45-.13.3-.15.62-.04.64.6.54.78-.14 1.36-.72m11.14 11.58a.65.64 36.4 0 0 .69-.1L46.36 3.9q.39-.35.13-.8l-.95-1.64Q45.16.8 44.41.92q-6.64 1.01-14.2 2.17-2.74.41-4.32-.77-.52-.39-1.02.04l-1.28 1.08q-.46.4-.1.9c1.63 2.22 2.76 5.39 5.45 6.53q3.12 1.32 6.02 2.64M175.4 9.25q.57.89.58-.16l.05-4.6q.01-.66-.59-.93l-4.42-2q-.8-.36-.32.38zm52.86 17.83q1.4-.56 2.31-2.01 1.84-2.92 9.15-14.13.34-.52.34-1.15V3.27a1.92 1.91-2.7 0 0-2.1-1.9c-2.25.23-3.97 1.24-5.14 3.11q-3.88 6.21-8 12.37c-2.16 3.23-1.34 7.98-1.38 11.7q-.01.71.64.42c1.4-.62 2.76-1.32 4.18-1.89M21.61 3.05q-.27.2-.33.54-.07.41.3.24.38-.18.39-.59 0-.46-.36-.19m212.46 24.94q8.45 12.32 10.36 15.84.68 1.26.38 3.86-.08.7.55.41l5.71-2.61a1.39 1.39 0 0 0 .59-2.02l-7.51-11.64q-.34-.53-.34-1.16 0-8.15-.04-17.61c-.01-2.64 2.11-4.83 3.42-6.97q.31-.51-.23-.76l-4.7-2.16q-.52-.24-.52.34v5.66a4.57 4.51 61.9 0 1-.74 2.49q-4.39 6.7-8.73 13.62-1.35 2.15-3.08 2.99-2.37 1.15-4.78 2.09a1.47 1.46 79.7 0 0-.92 1.33c-.04 2.25-.5 4.92.84 6.96q4.68 7.14 9.14 14.09a.76.76 0 0 0 .96.28l8.7-3.92q.71-.32.72-1.1c0-1.75.15-3.05-.87-4.62q-4.79-7.41-9.63-14.91-.15-.22.07-.37l.28-.18q.22-.15.37.07m18.74-21.08q.83.4.34-.37l-2.18-3.39a.43.43 0 0 0-.72 0l-1 1.58q-.23.37.16.55zM97.57 4.11a.31.31 0 0 0-.34-.31l-5.09.62a.31.31 0 0 0-.23.48l5.15 7.87a.31.31 0 0 0 .57-.17zm79.48 11.7a.3.3 0 0 0 .35.29l8.09-1.29a.3.3 0 0 0 .21-.46l-5.64-8.63a.3.3 0 0 0-.13-.11l-2.46-1.18a.3.3 0 0 0-.43.27zM19.53 10q-.02.32.27.45l8.28 3.75q.89.4.36-.41l-5.75-8.93q-.29-.45-.7-.11Q19.7 6.64 19.53 10m17.79 3.87a.47.47 0 0 0 .11.78l7.24 3.26q.53.24.83.72l1.75 2.81q.47.76.47-.14l.02-16.01q0-.58-.44-.2zm43.96 6.11q.66-.14.56-.28-.31.08-.56.28-.52.27-.86.12-7.82-3.47-15.72-7.07a.6.57-78.7 0 1-.34-.54q.01-.59.3-.57.55.05.05-.19-7.69-3.53-15.52-6.99a.34.33 11.4 0 0-.47.31l.03 17.72q0 .65.35 1.2l6.35 9.8a.79.78 68.8 0 0 .78.35l12-1.82a1.78 1.74-69.5 0 0 .87-.41l11.59-10.26q.39-.35.47-.88zM78.07 6.24l-2.86-1.2q-.64-.27-.26.32l4.2 6.46q.33.5.92.41l5.49-.84q.68-.11.3-.68L83.05 6.4a1.11 1.1 68.4 0 0-1.12-.49l-2.69.46q-.61.11-1.17-.13m13.29 4.67q1.47.37 2.91 1.11.85.44.32-.36l-3.98-6.11q-.62-.94-1.72-.72l-4.21.86q-.78.16-.35.83l2.63 4.06q.3.46.86.47c1.28.01 2.28-.45 3.54-.14m24.93-5.62-2.31 1.95q-.6.5.16.33 1.76-.4 2.42-2.09.24-.62-.27-.19m-17.76.22.1 7.89a.79.78 77.8 0 0 1.09.71l3.21-1.41q.58-.25.23-.77l-4.32-6.52a.17.17 0 0 0-.31.1m30.84 7.25a.22.22 0 0 0 .17-.29q-.67-1.82-2.29-2.57-4.46-2.1-8.88-4-.64-.27-1.04.29l-.88 1.22a2.02 2.01-83.5 0 1-.85.68c-3.53 1.5-6.35 2.95-9.06 5.95q-.15.16-.04.36 1.56 2.55 3.22 4.86.14.2.3.02 3.93-4.19 5.63-4.43 6.91-.98 13.72-2.09m115.78-1.67a2.18 2.16-28.8 0 0-.35 1.18v18.22a1.77 1.76-61.3 0 0 .27.94l7.14 11.07q.27.42.66.09 1.52-1.3 1.53-3.34.08-14.72.02-29.8-.01-.78-.72-1.11l-4.67-2.1q-.59-.26-.94.28zM138.39 13.3 135 8.31q-.45-.67-.43.14l.08 2.89q.01.63.59.87l3.01 1.27a.12.12 0 0 0 .14-.18m53.95-5.52a.35.35 0 0 0-.5.32l-.04 6.48a.35.35 0 0 0 .05.19l3.4 5.51a.35.35 0 0 0 .59.01l5.25-7.94a.35.35 0 0 0-.15-.51zm-176.05.53q-.66.09-.07.39l1.21.62q.65.34.82-.38.05-.21.01-.43-.09-.44-.54-.38zm115.004 3.615a.66.31 29.5 0 0-.421-.595.66.31 29.5 0 0-.727-.055.66.31 29.5 0 0 .421.595.66.31 29.5 0 0 .727.055M29.55 16.68a.33.33 0 0 0 .09-.62l-10.1-4.65a.33.33 0 0 0-.36.06l-6.95 6.35a.33.33 0 0 0 .1.55l1.57.6a.33.33 0 0 0 .17.02zm-.83-4.89q-.49-.22-.19.22l2.57 3.93q.54.83 1.31.2l1.45-1.17q.64-.52-.11-.87zm37.72.89q.25.05.08-.15-.28-.33-.76-.44-.93-.2-.11.29.35.22.79.3m21.51 5.83q0 .57.55.48 3.01-.44 6.18-.88c1.28-.17 2.15-1.25 2.53-2.41q.17-.51-.29-.8-2.56-1.57-5.45-2.67-1.45-.55-3.04.05-.48.18-.48.69zm17.98-5.77q.29.3.48-.08a.21.21 0 0 0-.18-.3q-.19-.01-.31.15-.09.12.01.23m27.173 2.935a1.85.49 68 0 0-.239-1.899 1.85.49 68 0 0-1.147-1.531 1.85.49 68 0 0 .239 1.899 1.85.49 68 0 0 1.147 1.531M86.95 13.3a.6.6 0 0 0-.67-.59l-5.18.59a.6.6 0 0 0-.43.93l3.21 4.85a.6.6 0 0 0 .5.26l1.94.03a.6.6 0 0 0 .61-.6zm-18.45.14q-.11-.03-.22 0-.22.06.01.1.1.02.21-.05.07-.03 0-.05m32.88 1.54c.97 1.11 2.68.61 2.87-.87q.09-.72-.61-.51l-2.05.63q-.68.21-.21.75m33.24-1.21c.07 2.1-.38 4.11.91 6.01q1.6 2.34 3 4.73c1.15 1.96 3.04 2.3 4.86 3.28q.62.33.64-.37c.05-2.21.42-4.51-.87-6.52q-1.21-1.87-2.43-3.78c-1.3-2.05-3.67-2.71-5.77-3.59a.25.25 0 0 0-.34.24m-60.13 1.2 6.68 3.04q1.19.55.47-.55l-2.04-3.08a1.02 1.01 75.1 0 0-.79-.46q-3.15-.21-5.9 1.17-1.02.51.12.45.33-.02.53-.31.35-.53.93-.26m36.79 4.87 2.82 1.33q.46.22.97.15l17.55-2.71q.87-.13.39-.87l-2.16-3.36q-.46-.72-1.29-.59-5.9.91-12.67 1.84c-2.51.34-3.95 2.28-5.67 3.81a.25.24 36.9 0 0 .06.4m91.01-5.49c.14 1.96-.17 3.6.99 5.39q4.14 6.36 8.03 12.34.61.93.49-.17c-.21-2.12.17-3.65-1.12-5.6q-4.1-6.21-7.9-12.13-.57-.9-.49.17m-131.88.2q.08.09.2.04a.06.06 0 0 0 .02-.1q-.05-.07-.13-.09-.31-.09-.09.15m131.55 5.98c-1.18-1.72-.99-3.16-1.04-5.07q-.03-1.17-.66-.18l-3.77 5.95q-.3.48.01.95l11.48 17.79q.07.11.15.01 2.41-3.13 3.11-5.1.02-.06-.01-.11-4.68-7.51-9.27-14.24M36.25 15.2a.44.42 36.1 0 0-.45.06l-2.74 2.31a.75.74-36.3 0 0-.15.97l7.56 11.68a4.36 4.33-5.1 0 0 2.01 1.67q2.73 1.11 5.51 2.55c1.96 1.02 3.6.42 5.56.14q.73-.11.34-.73l-9.11-14.43q-.31-.48-.84-.72zm152.48.49q-1.06-.07-.49.82l1.73 2.69q.5.79.51-.14v-2.85a.66.66 0 0 0-.87-.63q-.43.14-.88.11m-84.21.14q-.3.17-.25.51a.36.36 0 0 0 .48.29q.37-.14.4-.53.03-.33-.3-.35-.18-.01-.33.08m-6.94 1.47q-.1.37.28.31l2.59-.39q1.22-.19.15-.82-2.41-1.4-3.02.9m79.9.06a.46.46 0 0 0-.39.44l-.07 3.49q-.01.57.51.81l12.13 5.46q.68.31.62-.43c-.21-2.6.6-5.09-1.09-7.4q-1.08-1.5-2.07-3.14-.34-.57-.99-.47zm-102.3-.75q.09-.03.07-.11-.02-.1-.11-.11-.21-.02-.12.16.05.1.16.06m76.11 5.38a1.22 1.22 0 0 0-.67-1.43l-8.41-3.79q-.57-.25-.23.28l6.91 10.8q.54.84.8-.12zm-45.03-4.78q.02.2.21.27.33.13.22-.21-.05-.17-.22-.23a.16.16 0 0 0-.21.17m-29.2.23q-.29.09 0 .18.09.02.19.02.64 0 .22-.19-.2-.08-.41-.01M9.04 21.65q2.62 3.2 4.86 7.04.28.48.84.48c1.75.03 3.25.08 4.64-1.19q5.61-5.14 10.67-9.5 1.23-1.06-.38-.82L14.7 19.91q-1.38.2-3.03-.78-.63-.37-1.17.12l-1.38 1.24q-.59.54-.08 1.16m91.05-3.42q-1.64.22-3.23.62-.51.13-.79.58l-2.26 3.58q-.34.54.24.8l6.52 2.92q.6.28 1.1-.17l2.76-2.51q.43-.4.43-.98l-.01-4.16q0-.45-.37-.71-1.18-.84-2.43-.49-1.84.5-1.96.52m91.95-.31q-.62-.99-.56.18l.34 7.69q.03.69.41.12l2.1-3.17q.37-.57.01-1.14zm-19.61.12a.34.34 0 0 0-.24.55l1.3 1.67a.34.34 0 0 0 .12.09l1.9.92a.34.34 0 0 0 .49-.3l-.01-2.84a.34.34 0 0 0-.37-.34zm-92.79.55q-.11-.18-.31-.17a.06.06 0 0 0-.02.12q.41.17.33.05m83.13 5.24q.18 0 .18.18l.01 8.25q0 .81.8.7l3.31-.46q.8-.11.36-.79l-3.35-5.2q-.18-.28.12-.44l.27-.15a.37.36 59.9 0 1 .47.13l3.68 5.63q.32.5.91.41l5.91-.88a.67.66-4.6 0 0 .56-.65l-.01-7.54a.9.9 0 0 0-.7-.88q-2.68-.6-3.75-2.97a1.41 1.4 73.4 0 0-1.49-.81l-16.82 2.57q-.64.1-.82.73l-2.02 7.25a2.01 2.01 0 0 0 1.06 2.35q2.22 1.08 4.48 2.13c2.06.96 3.33.11 5.33.03q.68-.03.68-.71l.01-8.53q0-.37.37-.36zM31.66 28.14a.24.24 0 0 1-.11-.34l.25-.44a.24.24 0 0 1 .31-.1l6.19 2.8a.24.24 0 0 0 .3-.35l-6.88-10.6a.24.24 0 0 0-.36-.05L19.32 29.72a.24.24 0 0 0-.07.25l2.84 8.98a.24.24 0 0 0 .13.14l6.69 3.04a.24.24 0 0 0 .26-.04l10.95-9.73a.24.24 0 0 0-.06-.39zm63.18-8.55a.32.32 0 0 0-.31-.49l-5.73.84q-1.94.29-.25 1.29 1.53.9 3.41 1.59.59.22.94-.3zm11.6 2.66 1.66-1.38q.44-.37.02-.76-.75-.7-1.55-1.08-.71-.32-.72.45l-.03 2.47q-.01.82.62.3m23.43 5.72c4.14 1.95 8.32 3.69 12.47 5.71q.79.38.31-.35l-8.7-13.32q-.35-.53-.97-.43-8.01 1.28-17.54 2.64-1.62.23-3.13-.79-2.34-1.57-.74.75 1.73 2.5 3.45 5.38a1.18 1.18 0 0 0 1.03.57c3.4-.07 6.48-1.32 9.94-1.24q1.66.03 3.88 1.08m92.74-7.27q.07-.01.04-.07-.04-.09-.1-.01-2.57 3.61-4.9 7.45-.32.52.02 1.03l1.01 1.52q.39.59 1.04.29l2.24-1.05q.5-.23.5-.77.01-4.12 0-8.19 0-.16.15-.2M77.56 35.02l3.13 4.8q.43.65.85 0l5.1-7.9a1.98 1.92 62.1 0 0 .31-1.06l-.01-7.46a2.7 2.69 69.1 0 0-4.48-2.01L69.98 32.45a3.65 3.63-70 0 1-1.88.88l-11.39 1.76q-.73.12-.24.68c1.41 1.61 1.72 3.48 3.84 4.48q3.81 1.79 7.29 2.99 4.26 1.46 8.39 3.66a.87.87 0 0 0 1.14-.28l2.77-4.22a1.25 1.24 45.5 0 0 .01-1.35l-3.54-5.51q-.21-.32.14-.48l.47-.21q.36-.16.58.17m28.31-5.97a.37.37 0 0 0 .4.37l7.03-.58a.37.37 0 0 0 .28-.57l-4.23-6.59a.37.37 0 0 0-.55-.08l-2.79 2.44a.37.37 0 0 0-.13.28zm-14.1-4.77a.31.31 0 0 0-.13-.45l-3.24-1.51a.31.31 0 0 0-.44.28l-.03 6.66a.31.31 0 0 0 .58.16zm91.76 5.9.43-.01q.31-.02.31.3l-.03 10.96q0 .44.43.37l5.11-.8q.46-.07.46-.54V29.59q0-.64-.58-.9l-11.92-5.4q-.69-.32-.68.44.05 2.77-.07 5.79-.08 1.9 1.14 3.68 2.32 3.38 4.46 6.74.68 1.07.68-.2l-.02-9.28q0-.27.28-.28m14.27 19.17 2.48-.38q.87-.14.87-1.01l-.01-15.3q0-.56-.3-1.04l-5.07-7.93q-.4-.62-.83-.02c-1.7 2.38-3.36 4.25-3.25 7.56q.17 5.01.06 9.59-.01.71.37 1.3l4.24 6.57q.51.8 1.44.66m15.65-24.94a.33.33 0 0 0-.61.19l.14 7.16a.33.33 0 0 0 .61.17l2.23-3.63a.33.33 0 0 0 0-.35zm-65.11 5.51a.3.3 0 0 0 .38-.44l-3.07-4.88a.3.3 0 0 0-.56.16l-.08 3.45a.3.3 0 0 0 .18.28zm-48.24-1.6-.09-.28q-.18-.56-.72-.8l-5.8-2.56q-.64-.28-1.01.31L82.24 41.23q-.32.52.01 1.03l5.15 7.97q.33.51.93.42l15.35-2.38q.57-.09 1-.47l5.34-4.8q.5-.45.14-1.01-2.23-3.43-4.49-6.91-1.22-1.87-.77-4.09a1.3 1.3 0 0 0-.51-1.3q-2.03-1.51-3.84-1.1-.35.08-.45-.27m2.54-.51c.38.23 1.08.34 1.55.59q.71.38.69-.42l-.05-2.24q-.02-.83-.59-.24l-1.68 1.72q-.34.34.08.59m38.3-.18q-.14-.09-.28-.16-.86-.43-.35.39l3.02 4.87q.27.44.46-.04 1.44-3.75-1.99-4.68-.46-.12-.86-.38m-24.03 2.07a.24.24 0 0 0-.13.36c1.25 2.05 2.61 5.04 4.9 6.04q9.92 4.34 17.88 8.05.97.45 1.75-.28l2.35-2.21q.39-.37.39-.91l.01-3.96a1.22 1.21-78.1 0 0-.72-1.11l-16.53-7.48q-.48-.21-.99-.08c-1.26.32-2.31.8-3.66.79q-2.68-.04-5.25.79m28.11 4.67a.4.4 0 0 0 .05.19l1.33 2.4a.4.4 0 0 0 .73-.08l1.49-5.33a.4.4 0 0 0-.22-.47l-2.78-1.3a.4.4 0 0 0-.57.36zM215.23 33l2.29-1.16q.66-.34.22-.93l-.65-.84q-.45-.6-.84.04l-1.47 2.41q-.63 1.03.45.48m-104.85-2.37q-.8.15-.06.49l6.25 2.8q.71.32.32-.35l-1.82-3.15q-.38-.65-1.12-.51zm-4.12-.2a.33.33 0 0 0-.47.31l.08 2.68a.33.33 0 0 0 .05.17l5.2 8.09a.33.33 0 0 0 .5.06l6.16-5.7a.33.33 0 0 0-.09-.54zm-99 2.86q.13-.37.48-.23a1.01.25 16.7 0 1 .61.36l1.51 2.32a.54.53 52.6 0 0 .8.11l3.74-3.3q.45-.4.17-.92-.5-.96-1.65-.59c-3.29 1.07-6.68.83-10.24 1.89q-.86.26 0 .53 3.08.96 4.39 4.16.4.97 1.21.31l.44-.35q.73-.6.22-1.39L7.3 33.62a.36.34 40 0 1-.04-.33m12.86 4.76v.04q0 .06.05.07.04.01.05-.02.01-.05.01-.1-.6-3.16-2.01-6.68a.54.53 56.3 0 0-.88-.18l-.65.67a.77.77 0 0 0-.11.93q1.51 2.63 3.51 5.17.03.05.03.1m241.56-6.29q.01-.63-.34-.1-2.35 3.59-4.76 7.25c-1.53 2.33-1.15 4.59-1.14 7.16q0 .8.73.47l4.81-2.18q.69-.31.69-1.06zm-39.99 0q-.42.28-.91.28-1.2-.01-.55 1l1.78 2.74q.47.74.43-.13-.08-1.71.14-3.33.17-1.26-.89-.56m-73.38 8.09c.53.68.91 1.4 1.43 2.03q.38.46.96.37l10.54-1.54q.86-.12.07-.49-3.11-1.45-6.11-2.8c-2.33-1.04-3.13-2.61-4.31-4.62q-1.14-1.94-1.69.24-.63 2.49-1.28 4.81-.32 1.11.39 2m32.97 2.43q1.45-.26.65-1.49l-5.5-8.52q-.13-.18-.35-.15l-6.23.95a.2.19 69.3 0 0-.13.3l5.06 7.87a3.56 3.55-21.4 0 0 3.62 1.57zm-170.27-5.3a.42.42 0 0 0-.07.54l3.08 4.74a.42.42 0 0 0 .64.08l4.13-3.74a.42.42 0 0 0 .07-.54l-3.1-4.73a.42.42 0 0 0-.63-.08zm37.56 6.27a.29.29 0 0 1 .32.28l.05 7.4a.29.29 0 0 0 .17.26l5.42 2.49a.29.29 0 0 0 .41-.26l.04-14.14a.29.29 0 0 0-.17-.27l-13.55-6.07a.29.29 0 0 0-.31.04l-10.57 9.38a.29.29 0 0 0 .07.48l16.69 7.49a.29.29 0 0 0 .41-.27l.04-6.44a.29.29 0 0 1 .26-.29zm109.47-8.43c-1.88.13-3.42-.97-5.09-1.71q-.76-.34-.42.42.87 1.92 2.37 2.65 2.91 1.41 6.76 2.99a.22.21 10.7 0 0 .3-.2l-.03-4q-.01-.89-.87-.65-1.43.39-3.02.5m55.91.35a.37.36-29.3 0 0-.15.53l8.16 12.55q.5.77.49-.15-.02-3.85.05-7.92c.06-2.78-2.08-4.81-3.35-7.07a.35.34 62.2 0 0-.44-.14zm-50.99 4.59q0 .24.24.26 2.28.11 4.48-.36c1.84-.38 3.39.47 4.95 1.29q1.17.62.45-.5l-4.22-6.56q-.38-.58-1.06-.49l-4.62.64q-.24.03-.24.28zm39.58 8.67c2.83-2.61 2.08-6.8 2.07-10.31-.01-1.7-.89-3.01-1.79-4.37q-.66-.99-.66.2l-.02 14.31q-.01.54.4.17M54.85 35.67a.32.32 0 0 0-.37-.28l-2.95.43a.32.32 0 0 0-.08.61l3.15 1.36a.32.32 0 0 0 .44-.33zm158.49 1.13q-.52-.82-.52.15l.02 10.07q.01.49.27.9l6.78 10.48q1.67 2.59 2.11-.46.39-2.64.27-5.64-.09-2.04-1.57-4.24-3.99-5.97-7.36-11.26m-74.21 8.57-18.65-8.42a1.27 1.27 0 0 0-1.35.2l-6.33 5.52q-.68.59-.18 1.34l3.43 5.25q.32.49.84.72c2.74 1.23 6.45 3.49 9.34 2.98 2.54-.45 5.32-.29 7.34-2.22q2.78-2.66 5.61-4.98.29-.24-.05-.39m72.49.19a.13.13 0 0 0 .23-.07l-.01-7.55q0-.73-.41-.12l-2.14 3.27q-.31.46 0 .93zM56.21 37.79q-.08.5.25.89.44.53.64-.13.16-.51-.21-.94a.39.39 0 0 0-.68.18m-45.724.738a.76.76 0 0 0-1.05-.232l-.64.408a.76.76 0 0 0-.233 1.05l2.751 4.318a.76.76 0 0 0 1.05.232l.64-.408a.76.76 0 0 0 .233-1.05zM145.69 41.05q-1.26 2.15-2.8 3.75-.55.57.17.89l9.43 4.21q.79.35.31-.37-2.33-3.49-4.67-7.14-.69-1.07-1.66-1.95-.51-.46-.49-1.15.01-.5-.3-.85a.31.31 0 0 0-.54.2q-.03.82.46 1.4.4.48.09 1.01m60.29-2.29q-.35-.37-.36.14l-.13 4.55q-.02.46.32.15 2.52-2.35.17-4.84M21.99 45.47a.61.61 0 0 0 .49-.8l-1.78-5.24a.61.61 0 0 0-.99-.25l-4.46 4.01a.61.61 0 0 0-.1.79l1.26 1.9a.61.61 0 0 0 .59.27zm210.8 8.84a.75.73-45.6 0 0 0-.79l-8.87-13.72q-.47-.73-.49.13c-.12 7.05.6 14.53.01 21.74q-.19 2.3 1.23 4.14a.42.41 43 0 0 .68-.02zM76.3 49.26a.51.51 0 0 0-.3-.47l-19.3-8.86a.51.51 0 0 0-.72.47v13.96a.5.5 0 0 0 .08.28l6.74 10.41a.51.51 0 0 0 .51.22l12.56-2.12a.51.51 0 0 0 .43-.5zM1.87 44.97a.31.31 0 0 0 .09.52l5.52 2.33a.31.31 0 0 0 .27-.02l2.92-1.75a.31.31 0 0 0 .1-.43l-3.28-5.13a.31.31 0 0 0-.46-.06zm20.77-4.09 1.16 3.59q.26.8 1.08.61 1.53-.37 2.75-1.59.59-.58-.17-.93l-4.46-2q-.54-.24-.36.32m146.82-.34a.35.35 0 0 0-.18-.03l-2.63.27a.35.35 0 0 0-.11.67l4.94 2.23a.35.35 0 0 0 .18.03l2.63-.26a.35.35 0 0 0 .11-.67zM156.4 51.62l14.34 6.4q.84.37.33-.39-3.89-5.87-8.23-12.7-.75-1.18-.97-2.87a.46.45-8 0 0-.52-.39l-10.02 1.5a.5.49 69.3 0 0-.34.76l4.45 6.87a2.25 2.25 0 0 0 .96.82m26.57 11.77.48.4q.84.69.49-.34-.12-.34-.28-.66-.33-.63-.34-1.34l-.22-14.13q0-.48-.44-.67l-5.59-2.49a2 1.99-42 0 0-1.43-.07c-4.63 1.49-7.45-.94-11.52-2.58q-1.11-.45-1.15.75-.03.92.52 1.78 4.75 7.47 9.05 14.1a4.2 4.2 0 0 0 1.92 1.6q2.83 1.19 5.86 2.52.43.19.79.48.42.35.99.34.49 0 .87.31m4.45-16.07a.36.36 0 0 0 .13.12l2.48 1.28a.36.36 0 0 0 .52-.33l-.08-6.01a.36.36 0 0 0-.42-.35l-5.03.75a.36.36 0 0 0-.25.55zm67.08-2.45c0-.57-.1-1.04-.02-1.63q.13-.9-.5-.25-.32.33-.49.73a.91.9-50.6 0 0 .08.87l.31.46q.61.89.62-.18m-43.81 2.53a.51.51 0 0 0 .37-.77l-2.23-3.6a.51.51 0 0 0-.88.01l-2.42 4.22a.51.51 0 0 0 .5.76zm-30.63-3.42 2.15 1.11q.93.48.88-.56l-.03-.78q-.04-.78-.81-.65l-2.11.38q-.78.13-.08.5m-98.62-.55a.4.4 0 0 0-.67 0l-2.54 3.89a.4.4 0 0 0 .17.58l7.15 3.22a.4.4 0 0 0 .5-.58zm110.51.24q-.48-.74-.47.14l.01 4.65a1.48 1.48 0 0 0 1.56 1.48l1.98-.11q.84-.05.39-.76zM24.74 47.11q.34 2.05-.53 3.86-.3.6.31.87l11.36 5.1a1.58 1.55-36.7 0 0 .88.12l10.1-1.61q.69-.11.69-.81l.01-2.33q0-.69-.62-.97l-16.98-7.62a1.31 1.3-56.5 0 0-1.5.31q-1.49 1.67-3.64 2.01-.29.04-.4.32-.1.25.15.45a.51.5 15.9 0 1 .17.3m80.98 5.79 6.52 2.89q.35.16.64-.11.1-.11.14-.25.14-.56.72-.65l7.71-1.11q.99-.14.08-.56c-2.29-1.05-5.47-1.82-6.88-4.07q-1.53-2.44-2.91-4.74a.39.39 0 0 0-.59-.1L91.17 61.64q-.38.33-.23.8 2.46 8.03 5.18 16.54c1.09 3.43-2.28 6.94-1.13 9.8.61 1.51 1.77 3.2 3.37 3.84q3.01 1.2 5.81 2.57.71.35.69-.45l-.04-1.87q-.01-.34.33-.35h.39q.26 0 .27.25l.07 2.53q.01.6.56.85l7.6 3.48a2.11 2.07 52.3 0 0 1.16.16l17.43-2.66q.53-.09.53-.62l-.02-18.38q0-.6-.32-1.1l-5.59-8.59a1.04 1.03-13.4 0 0-.77-.47c-2.62-.26-4.44 1.18-6.95.02q-7.77-3.59-16.06-7.27-.45-.2-.41-.68l.05-.52q.05-.55.55-.33 8 3.53 16.05 7.22c2.04.94 3.61.7 5.6.09q.6-.19.26-.71c-1.19-1.8-2.01-3.84-4.12-4.77q-8.01-3.54-16.06-7.23-.19-.08-.15-.29l.07-.38q.08-.38.43-.22m-90.66-6.42q.47-.19.14-.57-.28-.35-.44-.77-.27-.68-.99-.55-.65.12-.93.64a1.06 1.05-78.5 0 0 1.02 1.55q.59-.06 1.2-.3m169.24-1.1q.15.36.46.59.75.56.35-.29-.19-.39-.56-.55-.42-.17-.25.25m67.73.33c-1.23 1.53-5.01 2.76-6.7 3.48a.87.86 78.9 0 0-.53.8v11.56q0 .82.44.13l8.72-13.46a1.18 1.17 43 0 0-.05-1.35l-.89-1.15q-.49-.63-.99-.01m10.64 69.5v17.99a5.21 5.14-29 0 1-.82 2.79l-8.52 13.17q-.5.77.33.39l14.89-6.73a.64.63 77.8 0 0 .37-.58V124.5a4.42 4.39-28.8 0 1 .7-2.38l9.68-14.97a2.61 2.6 4.4 0 1 1.17-1l5.15-2.28a.41.41 0 0 0 .17-.6l-5.81-8.96a2.6 2.6 0 0 1-.41-1.4q.03-8.35-.04-16.84c-.03-3.3 1.94-5.08 3.49-7.64a.52.51 27.7 0 0-.23-.73l-9.6-4.27q-.48-.22-.79-.66-5.76-8.33-10.86-16.95-.32-.55-.89-.25c-2.13 1.14-4.78 1.57-6.16 3.66q-6.58 10.02-12.3 19.35c-1.36 2.21-.78 5.38-.84 7.85-.06 2.3 1.58 4.41 2.84 6.2a3.33 3.3-62.9 0 1 .61 1.92v17.43a5.04 5.04 0 0 1-.81 2.74l-9.52 14.75a2.1 2.03-29.2 0 0-.34 1.13l-.03 37.33q0 .16.15.1l5.63-2.44a.4.4 0 0 0 .25-.37v-6.83q0-.53.53-.57l.41-.03a.5.49 87.9 0 1 .53.5l-.01 5.76q0 .74.67.44l8.35-3.77q.74-.33 1.17-1.01l9.63-14.88q.26-.41.26-.89v-18.71q0-.31.31-.33l.34-.02a.33.32 87.6 0 1 .35.33M133.48 51.98c-1.77 1.56-4.34 1.55-6.56 1.86q-1.07.15-.09.59l6.46 2.89a.58.57 27.6 0 0 .72-.22q3.35-5.26 6.86-10.54.07-.1.06-.22-.01-.16-.15-.25-.24-.15-.46.03-3.44 2.87-6.84 5.86m-110.43-1.6c-.03-1.44.78-1.93-.02-3.53q-.25-.5-.8-.42l-4.31.64q-.77.11-.31.75c1.42 1.96 2.61 2.02 4.66 3.05q.8.4.78-.49m111.31 9.43q.01 2.41.04 4.71.01.68.67.57 1.78-.29 3.77-.68 1.49-.3 2.61-1.29 6.79-6.03 12.02-10.67a.4.39-53.3 0 0-.09-.66l-10.86-4.9a.72.71-60.9 0 0-.9.26q-2.74 4.23-5.51 8.52-1.76 2.73-1.75 4.14M14.67 47.51q-.94.21-.47 1.05c1.72 3.12 4.43 3.92 7.53 5.09q.31.11.45-.18.43-.89-.41-1.76a1.47 1.45 74.5 0 0-.66-.38q-3.24-.85-4.49-3.21-.49-.94-1.52-.71zm175.75 9.32c.44-3.14-2.42-6.68-4.47-8.86a.93.93 0 0 0-1.6.6q-.01.32.05.66.11.55.39 1.02 2.37 4.01 5.16 8.14.47.69.55-.14.03-.24-.04-.54-.1-.44-.04-.88m22.13 4.71-1.41 2.15a.75.73 44.3 0 0 .02.84q1.42 2 2.46 4.01.8 1.56 1.75.09l4.16-6.39q.82-1.28 0-2.56l-7.15-11.05q-.31-.47-.87-.39l-5.29.82q-.61.09-.61.7c-.04 2.6-.6 5.59 1.05 7.92q1.74 2.45 3.17 4.82.49.83.97-.01l.86-1.51q.12-.21.35-.15l.3.07a.42.42 0 0 1 .24.64M85.12 52.36l-7.01-3.14q-.81-.37-.81.53v12.98a.39.39 0 0 0 .5.37q4.14-1.22 8.54-1.34a.55.55 0 0 0 .54-.55l.01-8.28q.01-.41-.3-.69-.29-.27-.66.02t-.81.1m104.13-2.49q.66 1.19.77 1.26 1.25.78.55-.51-.35-.64-1.04-1.03-.64-.36-.28.28m15.43 6.42a.34.34 0 0 1-.05-.18l-.12-6.35a.34.34 0 0 0-.62-.18l-3.37 5.15a.34.34 0 0 0 0 .37l7.15 11.1a.34.34 0 0 0 .55.02l1.37-1.81a.34.34 0 0 0 .01-.39zM89.85 61.1l11.94-10.54q.88-.78-.28-.6l-13.04 2.02q-.48.08-.48.56l.01 7.73a1.11 1.11 0 0 0 1.85.83M198.2 50.28a.48.48 0 0 0-.34.74l1.19 1.86a.48.48 0 0 0 .82 0l1.34-2.18a.48.48 0 0 0-.47-.73zm35.66 16.83a.25.25 0 0 1 .33.08l3.46 5.32a.25.25 0 0 0 .42 0l5.7-8.88a.25.25 0 0 0 .04-.13l-.02-13.2a.25.25 0 0 0-.35-.23l-9.41 4.22a.25.25 0 0 0-.11.09l-8.19 12.71a.25.25 0 0 0 0 .27l7.53 11.84a.25.25 0 0 0 .42.01l3.48-5.27a.25.25 0 0 0 0-.28l-3.81-5.97a.25.25 0 0 1 .09-.35zm-37.95-8.19 2.51-3.88q.43-.67 0-1.33l-1.67-2.56a1.03 1.02-22.9 0 0-1.09-.44q-1.75.38-3.58.07-.57-.09-.6.48c-.15 2.96 2.08 5.16 3.41 7.62q.48.88 1.02.04m-5.3 7.21c-.36-2.42.31-4.47-1.15-6.68q-2.45-3.71-4.86-7.49-.51-.81-.45.15.24 3.88.03 7.97c-.19 3.77 2.57 5.58 5.94 6.49q.58.15.49-.44M49.3 52.42a.28.27 11.9 0 0-.39.25l-.01 1.82q0 .59.59.52l3.19-.39q1.26-.15.1-.66zm-.73 13.18q1 .44.28-.37c-1.89-2.15-1.25-5.5-1.29-8.07q-.01-.75-.76-.64l-10.28 1.52a1.77 1.7 51.9 0 1-.99-.14l-11.01-4.98a.64.63 21.8 0 0-.85.36l-.15.44q-.25.69.42.99zm135.69 43.44.01 11.02q0 .28.27.24l5.23-.79a.55.55 0 0 0 .47-.54v-10.9q0-.63-.58-.89l-15.95-7.2q-.97-.43-1.55-1.33-4.74-7.35-9.46-14.61c-.64-.98-.79-2.05-.75-3.19q.02-.67-.59-.94L146.06 73a.47.46-65.6 0 1-.23-.62l.11-.26q.1-.22.32-.12l15.16 6.82q.52.23.52-.34l.01-15q0-.36.36-.36h.27q.37 0 .37.37v11.26q0 .65.6.9c2.55 1.07 6.39 3.5 9.21 3q5.14-.92 9.54-1.49a1.82 1.77 20.1 0 0 .96-.43l5.32-4.7q.56-.5.14-1.12c-1.15-1.73-2.21-4.09-4.13-4.95Q169.92 59.35 156 52.99a1.07 1.06-54.1 0 0-1.16.19q-6.54 5.95-13.36 11.77c-1.9 1.62-4.35.75-6.63 1.74q-.48.21-.48.74-.01 6.61.21 12.99c.07 1.95-.18 3.56.94 5.28q8.49 12.99 17.78 27.51.83 1.3 2.31 1.89 3.05 1.2 5.56 2.44.77.38.77-.48l.01-14.39q0-.4.4-.38l.31.02a.31.31 0 0 1 .29.31v15.14q0 .6.56.83 3.6 1.52 7.15 3.26c1.34.65 2.29.1 3.66.12q.75.01.34-.61l-10.53-16.26a.45.44 54.2 0 1 .09-.59l.28-.22q.16-.14.28.04 5.16 7.84 10.03 15.46c1.56 2.43 5.43 1.21 7.76.81q.69-.12.69-.81l.03-10.93q0-.2.19-.21l.34-.02a.42.41 87.4 0 1 .44.41m-57.6-43.32q.24.38.69.38 2.77-.01 5.61-.99.45-.15.44-.62l-.01-5.36q-.01-.63-.58-.89-3.59-1.66-7.37-3.33c-2.71-1.2-8.46.44-11.38.9q-1.33.21-.11.77 3.91 1.79 7.94 3.53c2.3.99 3.5 3.57 4.77 5.61m-72.05-10.4-5.11.73q-.59.09-.58.68.03 2.26-.04 4.84c-.06 1.98 1.24 2.97 2.06 4.58q.47.92 1.49.76l8.44-1.3q1-.16.45-1.01l-5.71-8.83q-.35-.55-1-.45m-31.28.58a.34.34 0 0 0-.46.21l-1.25 4.11a.34.34 0 0 0 .37.43l8.08-1.06a.34.34 0 0 0 .1-.65zm174.99 8.14a.4.4 0 0 0 .17.15l8.23 3.72a.39.39 0 0 0 .49-.57l-7.09-11.04a.39.39 0 0 0-.66.01l-2.83 4.61a.39.39 0 0 0 0 .41zm-6.93-6.88c.27 2.04-.03 3.53 1.18 5.33q.61.91 1.16-.03l.2-.34a1.94 1.94 0 0 0-.06-2.04l-2.03-3.09q-.6-.91-.45.17m30.77 2.94q-.48.69-.04 1.44.34.57.33-.1l-.02-1.26q-.01-.46-.27-.08m-3.32 13.14q1.26.62 1.95-.61c.8-1.42 1.72-2.23 1.7-4.03-.02-2.09.19-4.41-1.12-6.12q-.46-.6-.87.04l-4.92 7.67q-.7 1.1.46 1.67zM86.5 75.81l6.61 10.18q.42.64.62-.1l1.3-4.72q.17-.62-.02-1.22l-5.17-16.56q-.15-.49-.66-.55-.5-.06-.9.26-.32.26-.32.67.02 2.98.08 5.95.04 1.83-1.3 3.84-4.55 6.81-8.77 13.48a3.2 3.15-29.4 0 0-.5 1.74l.09 20.66q.01.7.53.24l11.47-10.15a2 1.95 77.9 0 0 .59-.94l2.83-10q.18-.65-.19-1.22L85.7 76.39q-.11-.17.04-.32l.28-.3a.31.3-39.9 0 1 .48.04m109.28-12.83q-.28-.46-.52.02-.37.72-1.01 1.27a.63.63 0 0 0 .04.99l.57.43q.55.4 1.03-.08l.56-.56q.34-.34.1-.76zM76.89 84.67q-.28.34-.13.69.27.64.64.06l9.18-14.13q.31-.49.31-1.07v-6.77a.48.47 79.8 0 0-.64-.45q-3.23 1.19-7.19 1.07a1.7 1.7 0 0 0-1.76 1.7l.01 17.73q0 .66-.42 1.17m114.47-20.98c.06.73-.11.99-.19 1.65q-.07.49.28.14.63-.64.64-1.45 0-.31-.21-.56-.59-.71-.52.22m-116 20.8a.51.51 0 0 0 .94-.28V65.35a.51.51 0 0 0-.56-.51l-4.35.46a.5.5 0 0 0-.27.12L66.2 69.5a.51.51 0 0 0-.1.67zm138.35-14.16-2.85-4.44q-.5-.77-1.04-.04l-.8 1.06a1.29 1.28 36.2 0 0 .29 1.82q1.83 1.3 4.01 2.09.91.33.39-.49m-15.55-3.55q-.13-.28-.07-.59.16-.96-.67-.46-.4.24-.64.6-.59.83.41.62.28-.06.48.15 1.13 1.15.49-.32m7.61 1.78-6.33-2.85q-.95-.43-.43.48c1.66 2.89 3.25 2.64 5.89 4.09q.85.47 1.31-.6a.86.86 0 0 0-.44-1.12M64.17 66.5a.32.32 0 0 0-.19.5l1.05 1.4a.32.32 0 0 0 .46.05l2.49-2.12a.32.32 0 0 0-.27-.56zM192 68.95q1.48-1.03 2.17-2.32.37-.69-.41-.65-.52.03-.77.54-.09.17-.21.3-.71.76-1.19 1.79-.41.91.41.34m31.39-.8q.13.49.37.05.39-.7.1-1.49-.3-.78-.49.04-.16.72.02 1.4M64.19 69.6a.31.31 0 0 0 .06-.4l-1.5-2.31a.31.31 0 0 0-.31-.14l-9.65 1.39a.31.31 0 0 0-.21.48l4.51 6.87a.31.31 0 0 0 .47.06zm69.16-2.52a.3.3 0 0 0-.34-.29l-4.66.67a.3.3 0 0 0-.21.46l4.76 7.51a.3.3 0 0 0 .56-.17zm67.22 13.9q.44.19.45-.29l.17-8.92q.01-.6-.34-1.1-1.62-2.33-5.08-3.18-.57-.14-.97.3c-1.06 1.18-2.94 2.13-3.24 3.71-.39 2.08 1.81 4.83 2.93 6.5a1.97 1.94-4.5 0 0 .82.69zm-12.65-12.97 1.74 2.4q.25.35.51 0l.25-.34a.37.36 62.2 0 0 .08-.28q-.21-2.06-2.44-2.06-.35 0-.14.28m37.5.81q-.44-.66-.84.02l-3 5.04a.45.44-62.9 0 0 .2.63l9.8 4.38a.18.18 0 0 0 .23-.27zm59.31-.2a.66.66 0 0 0-.83.25l-3.21 5.02a.66.66 0 0 0-.1.35l-.01 18.96a.66.66 0 0 0 .11.36l5.98 9.23a.66.66 0 0 0 .83.24l2.34-1.1a.66.66 0 0 0 .38-.6V71.49a.66.66 0 0 0-.39-.6zM55.66 77.4q.29-.27.37-.64.07-.37-.14-.68l-4.32-6.58a.1.1 0 0 0-.18.03L47.91 82.1q-.1.36.27.43 2.4.4 4.74 1.74a.4.4 0 0 0 .59-.24q.84-2.96 1.7-5.92.11-.41.45-.71m153.19-7.19q-1.58-1.64-2.04.31-.23 1.01 3.19 2.12 1.09.35.41-.57-.72-.99-1.56-1.86m-4.16 1.57a.36.35 28.4 0 0-.16-.52l-2.13-.94q-.6-.27-.49.38.37 2.03.19 4.02-.13 1.36.6.21zM59.94 79.29c4.86 2.25 9.82 4.41 14.65 6.59q.71.32.29-.34l-9.22-14.21q-.52-.81-1.24-.16l-5.88 5.25q-.62.56-.19 1.26.73 1.22 1.59 1.61m151.09-8.01 1.1 1.61a.42.42 0 0 0 .61.1q.12-.1.19-.25.11-.27-.03-.56-.53-1.1-1.71-1.19-.38-.03-.16.29m29.18.55q-2.3 2-.35 3.98.51.52.52-.21l.01-3.69q0-.24-.18-.08m-34.67 4.12.07 7.11q0 .2.19.28l5.89 2.65q.17.08.17-.12l-.06-10.35a1.39 1.38-77.7 0 0-.8-1.26l-4.66-2.16q-.49-.22-.79.22c-1.1 1.65-3.42 4.56-3.28 6.59q.08 1.11.01 2.22-.05.62.52.88l1.31.58q.47.21.47-.3l.01-6.28q0-.19.18-.23l.42-.1q.35-.09.35.27m-21.24 5.72 5.78 2.54a.34.34 0 0 0 .48-.31l-.23-10.87a.57.56-21.3 0 0-.94-.41c-2.38 2.13-5.08 5.39-8.4 5.8q-4.07.5-7.6 1.01-.91.13-.08.53c2.2 1.05 6.77 2.47 8.09 4.48q4.28 6.59 8.55 13.24.48.74.48-.14l.09-11.25a1.15 1.14 12.6 0 0-.68-1.06l-6.05-2.72q-.3-.14-.14-.42l.14-.25q.17-.32.51-.17m28.62-7.54a.3.3 0 0 0-.07.19l-.07 9.61a.31.31 0 0 0 .57.17l5.74-8.93a.31.31 0 0 0-.12-.44l-4.47-2.2a.31.31 0 0 0-.38.08zm21.86 23.36 5.29-8.18q.29-.45.29-.98.01-3.76-.01-7.84-.01-2.75-2.01-4.89-.49-.53-.84.1c-1.4 2.52-3.5 4.36-3.44 7.5q.15 7.5.01 14.07-.03 1.38.71.22m-39.33-17.62c-1.82-.73-2.58-2.4-3.45-4q-.59-1.08-.54.15.14 3.48-.04 7.3-.07 1.53 1.19 2.08 3.95 1.72 8.09 3.62.35.16.34-.22l-.01-6.28a.32.3 15 0 0-.17-.27q-2.6-1.25-5.41-2.38m37.12.94L221 75.6q-.48-.21-.76.23l-7 10.81q-.29.46-.29 1v11.88q0 .77.41 1.41l5.51 8.46a.75.75 0 0 0 .95.27q4.31-2.01 8.97-4.05c1.62-.7 2.45-2.66 3.41-4.07q.88-1.29.89-3.53.05-8.39.02-16.36a.92.91-78.2 0 0-.54-.84m-69.26-4.21q-.29-.13-.3.19l-.09 2.4a.69.68 87.1 0 0 .77.7l4.29-.57q1.1-.14.08-.6zM58.14 79.48l-.9-1.2a.45.45 0 0 0-.79.15l-1.65 5.85a.85.85 0 0 0 .47 1.01l10.17 4.58a3.72 3.71 85.6 0 1 1.61 1.38l8.63 13.35q.42.64.42-.12l-.02-15.78a1.09 1.09 0 0 0-.64-.99l-16.06-7.23q-.75-.34-1.24-1m105.58 1.42a1.09 1.09 0 0 0-.76 1.67l10.18 15.77a1.75 1.74-4.4 0 0 .75.64l15.69 7.04a.53.52-80.7 0 0 .73-.53c-.24-2.92.53-4.83-1.33-7.6q-4.46-6.65-8.54-13.18-.35-.56-.95-.83l-8.32-3.75q-.48-.22-1-.15zm76.63 9.89q-2.9 4.34-5.66 8.73a3.81 3.79-29.2 0 0-.57 2v15.52q0 1.13.61.18l8.74-13.52q.29-.45.29-.98.09-9.45-.03-18.47-.01-1.22-1.96-3.39-.47-.53-.46.18c.04 2.95.72 7.25-.96 9.75M50.1 96.26l2.77-9.85q.28-.99-.66-1.4l-3.81-1.68q-.92-.4-1.08.59c-.24 1.49-.55 2.92-1.72 3.94q-6.22 5.43-12.6 11.2c-1.25 1.13-2.8 1.65-4.45 1.72q-1.09.05-.25.75c2.52 2.09 7.2 5.03 8.15 8.26q1.55 5.34 3.24 10.45a2.3 2.28-86.7 0 0 1.22 1.38l15.97 7.37q.47.21.99.13l17.34-2.69a.98.98 0 0 0 .83-.97l.01-5.64q0-.54-.49-.76l-5.82-2.58a.69.69 0 0 1-.37-.86l.08-.24a.41.4 21.1 0 1 .55-.24l5.46 2.43q.54.24.54-.35l-.02-9.91a1.47 1.43 29.5 0 0-.23-.78l-9.62-14.86a2.17 2.14-4 0 0-.91-.78l-10.35-4.67q-.53-.24-.68.31l-2.74 9.92a.62.62 0 0 1-.7.45l-.27-.05q-.52-.08-.38-.59m152.91-13.11q-.7-.41-.7.41c0 3.31-.71 6.51 1.84 9.24q.43.47.43-.18l-.01-7.59a1.69 1.69 0 0 0-.84-1.46zm8.65 19.6-.01-15.41a.35.35 0 0 0-.21-.32l-5.73-2.56q-.17-.07-.16.11c.14 3.49-.85 9.38 1.18 12.16q2.28 3.13 3.99 6.26.94 1.72.94-.24m-20.1-9.05a.34.34 0 0 0 .05.18l3.42 5.34a.34.34 0 0 0 .57.01l5.49-8.49a.34.34 0 0 0-.15-.49l-9.02-4.1a.34.34 0 0 0-.48.32zm-47.53 17.21q-.01-3.86.07-7.92.04-2.11-1.33-4.23-3.92-6.07-7.71-11.96-.44-.68-.44.13l.01 10.16a1.85 1.85 0 0 0 .3 1.01l8.42 13.01q.68 1.06.68-.2m-40.44 27.03q8.05 3.49 16.26 7.33c1.85.86 3.68.22 5.54-.05q.67-.09.31-.66c-1.13-1.8-2.15-4.09-4.21-5.01q-8.28-3.71-16.03-7.18-.26-.12-.17-.4l.09-.29q.13-.39.5-.22 8.26 3.69 16.45 7.39c1.97.88 3.37 3.91 4.58 5.63q.36.51.98.41l4.73-.78q.78-.13.78-.91v-5.49q0-.72-.65-1.02l-16.56-7.44q-.52-.24-.83-.71l-9.96-15.4a3.37 3.35 28.6 0 1-.55-1.84l-.01-14.08a1.04 1.03-78.3 0 0-.62-.95q-3.47-1.49-6.89-3.12c-1.38-.65-2.14-1.89-2.8-3.2a.31.31 0 0 0-.57.06l-2.41 8.54a4.52 4.49-13 0 1-1.38 2.19L78.25 111.3a1.85 1.84 69.2 0 0-.62 1.38l.02 5.02q0 .87.8 1.23l7.99 3.58a5.2 5.15 85.2 0 1 2.24 1.91l9.57 14.79a3.71 3.65 28.8 0 1 .6 2.01v18.03q0 .54.3.99l9.88 15.25a1.7 1.68-3.2 0 0 .7.62l4.36 2.06q.47.22.97.15l17.56-2.7q.53-.09.53-.62v-18.38a1.92 1.87 29.3 0 0-.3-1.02l-5.88-9.09q-.33-.51-.92-.41c-2.4.4-4.5 1.09-6.87-.01q-8.04-3.75-15.94-7.25-.23-.1-.15-.33l.12-.4q.1-.29.38-.17m107.96-27.48c-.06-1.88.16-3.83-.92-5.46q-4.17-6.27-8.04-12.56-.43-.7-.56.12-.52 3.41 1.24 6.09 3.73 5.68 7.74 11.98.57.9.54-.17M201.26 97.3a.33.33 0 0 1-.05-.17l-.07-3.61a.33.33 0 0 0-.61-.17l-4.49 7.07a.33.33 0 0 0 0 .36l6.05 9.37a.33.33 0 0 1 .05.18l.02 16.82a.33.33 0 0 0 .61.18l8.8-13.58a.33.33 0 0 0 .01-.36zm-9.93-1.32q.49 4.31.38 8.36-.02.94.49.15l2.23-3.47a.82.79-45.2 0 0 .01-.85l-2.74-4.32a.2.2 0 0 0-.37.13m-84.06 12.65q-.04-.29.25-.33l18.22-2.81a3.54 3.5 52.2 0 1 1.97.26l14.85 6.69q.65.3.26-.3l-9-13.9a.43.41 68.5 0 0-.41-.19q-8.77 1.33-17.48 2.6c-2.7.39-6.99-2.25-9.42-3.38q-.66-.31-.66.41v13.84q0 .48.26.89l9.91 15.32a1.98 1.96 85.5 0 0 .86.74l16.41 7.35q.43.19.68-.21 4.47-6.91 9.24-14.17c1.33-2.02.79-4.33.84-6.57q.01-.64-.58-.91l-16.27-7.34q-.54-.24-1.12-.15l-18.34 2.78q-.37.06-.42-.31zm88.32-6.69a.34.34 0 0 0-.58 0c-1.28 2.09-3.31 4.24-3.28 6.82q.07 5.59.03 10.61-.01.69.37 1.27l4.42 6.85q.33.51.94.42l3.03-.46a.74.73-4.6 0 0 .62-.72l.02-15.73q0-.48-.27-.89zm33.47 4.62q-4.03 1.87-8.66 3.88a.63.62 65.2 0 0-.31.85q1.65 3.4 6.28 4.56.53.13.82-.33 2.55-3.97 5.23-8.08 1.15-1.76.62-4.59-.14-.75-.52-.08c-.9 1.61-1.68 2.96-3.46 3.79m-84.01-2.89q.09 3.81-.07 7.86-.08 1.94 1.24 3.88 4.58 6.74 9.04 13.96.41.65 1.11.97l14.41 6.49q.97.44.39-.46l-8.93-13.83a1.92 1.83 30 0 1-.31-1.06l.04-1.9q.01-.62-.56-.87l-7.66-3.41a1.37 1.35 84.8 0 1-.58-.49l-7.36-11.38q-.79-1.22-.76.24m68.01-.5c-.69 3.41.76 4.56 2.3 7.08q.67 1.09 1.92.79.16-.04.27-.16.63-.66.14-1.43l-4.09-6.38q-.39-.62-.54.1m77.2 4.35-.07-3.83q-.02-.87-.79-.47l-1.15.58q-.72.37-.28 1.04l1.85 2.82q.46.7.44-.14m-.29 2.75a.47.45-45.8 0 0 0-.51l-2.94-4.58q-.42-.66-1.13-.34-1.8.82-3.77 1.58-1.78.69-3.09 2.83-4.36 7.15-8.74 13.6-.37.55-.37 1.21l-.01 16q0 1.23.67.2zm-62.07 6.02a.31.31 0 0 0 .14.45l4.63 2.09a.31.31 0 0 0 .44-.28l.05-9.41a.31.31 0 0 0-.58-.17zm-14.12-6.82q-.49-.88-.65.11-.2 1.18-.16 2.38.02 1.1.85.38.27-.22.6-.31.68-.19.34-.81zm5.973 3.36a1.22.47 37.9 0 0-.674-1.12 1.22.47 37.9 0 0-1.252-.38 1.22.47 37.9 0 0 .674 1.12 1.22.47 37.9 0 0 1.252.38m2.467 23.37c-.17-6.09.12-12.09.28-18.12.09-3.08-3.12-4.32-5.45-5.14q-1.67-.59-3.59.65-.51.33-.51.94v11.22a1.48 1.46-61.6 0 0 .23.79l7.2 11.13q.3.48.8.22 1.07-.53 1.04-1.69m-11.23-19.67-6.18 9.52q-.51.78.42.64l5.77-.89q.67-.11.66-.78l-.01-8.29q0-1.21-.66-.2m12.96 3.97 1.93-2.91q.35-.53-.22-.81l-2.09-1.02q-.7-.34-.47.4.58 1.95.34 4.15-.13 1.15.51.19m-79.51.71q-4.03 6.5-9.12 14.07c-1.51 2.24-.89 5.35-.94 7.88q-.02.73.69.59c2.32-.44 4.63-.21 6.52-1.91q6.46-5.8 12.38-10.97.49-.43.13-.98l-8.56-13.25q-.4-.63-.46.12c-.12 1.63.31 2.92-.64 4.45m88.68 34.83-.01-35.3q0-.6-.54-.84l-4.84-2.18q-.66-.3-1.03.33c-1.35 2.36-3.1 3.89-3.04 6.9q.18 8.49-.24 16.08a3.04 3.02-60.2 0 0 .48 1.8l8.65 13.38q.57.88.57-.17m-69.76-36.46a.21.2 20.9 0 0-.28.12q-.51 1.54.35 2.87 4.39 6.76 9.49 14.7.32.48.84.72l16.01 7.2q.52.23.62-.33.73-4.19-1.07-7.06-2.46-3.94-4.98-7.67-1.2-1.78-1.17-4.29.01-.56-.49-.81-2.34-1.18-4.83-2.12c-2.64-1-5.07 1.11-7.95-.29q-3.18-1.55-6.54-3.04m-122.07 7.07-.29.08q-.32.08-.43-.23l-1.21-3.71a1.45 1.44 3 0 0-.78-.86q-1.66-.75-3.28-1.58-1.44-.74-2.98-.48-8.21 1.35-15.27 2.36-.81.11-.06.44L38 131.99q.53.23 1.09.15l13.1-2.04a.47.46-19.3 0 0 .34-.69c-1.13-1.99-2.91-2.33-4.85-3.23q-3.33-1.55-6.59-2.98-.59-.26-.4.35l.83 2.67q.1.34-.23.43m56.08 30.91v.06999999999999999-.01q-.02-.04-.02-.09.04-8.32-.01-16.79 0-.53-.29-.97L87.3 124.7q-.31-.48-.83-.71l-8.27-3.71q-.69-.31-.63.45.2 2.11.01 4.32-.16 1.89 1.15 3.93 9.6 14.95 18.61 28.48.03.05.03.1m92.59-30.39a.41.41 0 0 0 .58-.39l-.1-5.9a.41.41 0 0 0-.48-.39l-5.34.85a.41.41 0 0 0-.34.42l.05 2.62a.41.41 0 0 0 .24.37zm-7.12-3.18a.31.31 0 0 0 .44-.29l-.04-1.34q-.02-.87-.88-.72l-2.41.42q-1.04.19-.07.61zm8.54-1.32q.22 2.27.12 4.41-.05 1.08 1.02 1.26 1.25.2 2.61-.11.61-.14.27-.67l-3.3-5.14q-.87-1.36-.72.25m-.93 14.04.02-7.54q.01-.64-.58-.91l-3.41-1.55q-3.75-1.71-1.74 1.89 2.21 3.96 5.22 8.26.48.69.49-.15m22.22 2.63a.29.29 0 0 1 .17.44l-4.02 6.36a.29.29 0 0 0 0 .32l3.27 5.03a.29.29 0 0 0 .48 0l7.66-11.87a.29.29 0 0 0 0-.32l-8.06-12.51a.29.29 0 0 0-.29-.13l-8.34 1.4a.29.29 0 0 0-.21.14l-2.85 5.08a.29.29 0 0 0 .01.3l7.18 11.07a.29.29 0 0 0 .48 0l3.48-5.36a.29.29 0 0 1 .31-.12zm-150.1 3.87a.4.4 0 0 0 .16.14l32.85 14.75a.38.38 0 0 0 .47-.55l-19.24-29.73a.38.38 0 0 0-.37-.16l-21.27 3.09a.38.38 0 0 0-.27.59zm-8.25-13.4q.13.2.29.29t.32 0q.13-.07.18-.19.13-.35-.19-.54l-1.24-.72q-.54-.31-.29.26.17.38.54.56.24.12.39.34m144.8 1.82a.5.5 0 0 0 .88-.03l1.21-2.43a.5.5 0 0 0-.51-.72l-2.45.3a.5.5 0 0 0-.37.74zm-3.24-2.41c-1.32.06-2.39.45-3.73 0q-.77-.26-.71.54c.09 1.4-.2 2.58.57 3.9q1.22 2.1 2.65 4.31.53.83 1.07 0l2.77-4.26q.41-.63.02-1.28l-1.65-2.69q-.34-.55-.99-.52m-146.2 9.43a.28.28 0 0 1 .13-.41l.63-.25a.28.28 0 0 1 .34.11l4.02 6.05a.28.28 0 0 0 .28.12l5.95-.88a.28.28 0 0 0 .19-.43l-7.63-11.84a.28.28 0 0 0-.28-.12l-14.74 2.18a.28.28 0 0 0-.23.2l-3.81 13.66a.28.28 0 0 0 .31.36l18.19-2.76a.28.28 0 0 0 .2-.42zm113 2.97q.26.02.26.29l.01 11.37q0 .56.51.79l15.86 7.12a4.93 4.92-4.3 0 1 2.16 1.85l8.5 13.16q.49.77.49-.15l.03-28.36q0-.67-.6-.94l-34.04-15.58q-.43-.19-.79.11-6.19 5.24-11.8 10.49c-2.55 2.39-5.09 2.74-8.38 3a.63.62 87.1 0 0-.57.64l.33 16.59a3.39 3.34 28.2 0 0 .55 1.77q9.21 13.92 17.88 27.67c1.46 2.33 5.77 3.48 8.25 4.66q.61.29.61-.39l.01-14.52q0-.37.36-.36l.31.01q.33.01.33.34v15.06q0 .55.49.77l7.73 3.53q.48.22 1 .15l10.37-1.54a.87.86-4.3 0 0 .74-.85l-.02-10.76q-.01-.33.32-.33l.36-.01q.32 0 .32.32l.01 11.04q0 .29.28.25l5.37-.82a.4.38 85.8 0 0 .32-.39l-.01-10.91q0-.76-.69-1.07l-16.33-7.34q-.44-.2-.7-.6l-9.82-15.18a4.7 4.63 28.9 0 1-.75-2.53l.01-18.05q0-.38.38-.34zm43.87 5.52c.66-.47.66-1.28.26-1.92q-3.37-5.33-6.94-10.74a.2.2 0 0 0-.34 0l-3.36 5.25q-.18.28.01.56 1.66 2.47 3.13 4.9c1.35 2.23 3.29 2.57 5.36 3.64q.43.23.8-.09.5-.42.71-1.1a.96.91 83 0 1 .37-.5m-15.19-11.48c.33 2.23-.03 3.72 1.48 5.68q.33.43.7.04 1.15-1.23.71-2.35-.37-.95-2.44-3.56-.59-.75-.45.19m31.04 3.04a.06.06 0 0 0-.09-.05q-.73.44-.34 1.37.29.7.38-.05.08-.63.05-1.27m-1.26 2.17a.3.3 0 0 0-.5 0l-7.76 11.97a.3.3 0 0 0-.05.16l-.02 25.41a.3.3 0 0 0 .05.16l3.5 5.52a.3.3 0 0 0 .5.01l15.97-24.69a.3.3 0 0 0 0-.32zm-22.9 4.33-2.39-3.64q-.31-.47-.75-.11-1.11.93-.74 2.21.16.54.68.78l2.75 1.28q1.14.53.45-.52m-6.86-3.4.06 1.85q.02.77.46.14.31-.44.31-.94 0-.66-.52-1.18-.32-.31-.31.13m-180.57 9.51 10.21 4.56q.21.09.27-.14l1.57-5.64q.05-.19-.13-.28l-16.78-7.54q-1.79-.8-.56.75.45.57.68 1.27 2.73 8.62 5.17 16.59c.36 1.18.25 2.56-.24 3.69q-.31.74.48.62l6.22-.96a1.43 1.42 8.8 0 0 1.07-.78q1.28-2.57 2.01-5.9.14-.63-.44-.89l-9.97-4.46q-.11-.05-.1-.17l.03-.42q.04-.51.51-.3m183.41-6.52q-.08-.18-.24-.31-.42-.36-.8.05-1.73 1.9-1.71 3.94.11 11.12-.05 20.78-.04 2.81.98 4.42 1.31 2.08 2.68 4.05a.34.34 0 0 0 .56-.01l5.03-7.85a2.4 2.34-29.9 0 0 .37-1.3q-.15-8.56.14-17.23c.12-3.73-3.47-4.6-6.13-5.76q-.56-.24-.83-.78m-138.22.4a.32.31 74.2 0 0-.24.44q.38.86.96 1.49.43.45.9.05l2.46-2.1q.7-.6-.21-.47zm32.76 15.41a.39.39 0 0 0 .27-.6l-3.16-4.83q-.3-.45-.8-.67l-22.01-9.91a1.06 1.04-52.8 0 0-1.11.16l-3.8 3.33q-.62.53-.14 1.2c1.45 2.02 2.43 4.64 4.87 5.69q8.04 3.46 15.37 6.91.57.27 1.2.17zm44.16-6.73q.47.72.47-.14l.01-7.96q0-.76-.76-.65l-4.2.63q-.7.1-.32.7zm-100.79-.94q-2.79 2.4-5.46 4.79-.56.5.13.79c.89.39 1.17.8 2.26.62q9.21-1.52 17.79-2.77.54-.08.94-.44l7.83-6.92q.43-.38.12-.86l-1.38-2.12a.97.97 0 0 0-.97-.44l-18.67 2.87a.99.98 3.2 0 0-.79.7c-.44 1.51-.5 2.66-1.8 3.78m174.74-3.83a.52.51-60.8 0 0 .21.75l3.12 1.47q.79.36.32-.36l-2.04-3.2q-.36-.57-.72-.01zm-180.2 7.38c1.57-1.6 3.31-3.05 5.01-4.49.91-.76.82-1.51 1.17-2.53q.26-.78-.55-.66l-7.78 1.19q-.64.09-.81.71l-1.37 5.01q-.14.51.27.83 2.28 1.76 4.06-.06m177.89-6.42a.21.2 26 0 0-.1-.28l-2.41-1.05q-.75-.32-.38.4.74 1.46.43 3.2-.36 2.06.85.36.85-1.19 1.61-2.63m1.97.63a.67.66 28.3 0 0-.85.25c-1.45 2.36-3.37 4.2-3.32 7.22q.11 8.48-.1 16.52a1.89 1.84 29.9 0 0 .31 1.09l9.12 14.03a.09.09 0 0 0 .16-.05l-.04-36.17a.67.67 0 0 0-.39-.61zm-16.23 33.59c-.05-2.79.54-5.04-1.18-7.63q-4.69-7.04-8.88-13.63a1.86 1.84-3.9 0 0-.82-.71l-15.86-7.12q-.62-.28-.58.4c.16 2.66-.57 4.8 1.05 7.26q4.62 7.03 8.96 13.81.36.55.95.82l15.86 7.13a.36.35 11.3 0 0 .5-.33m-95.09-25.26-7.28-3.22q-.66-.29-.26.31l2.35 3.59q.3.46.84.45 2.42-.02 4.68-.66.3-.09.52-.3.24-.23.47-.47.2-.21-.07-.09-.19.08-.34.23-.4.39-.91.16m122.56 27.28q.51.67.93 1.37.37.63 1.04.33l9.18-4.15a3.11 3.06-85.1 0 0 1.33-1.14l9.59-14.83a1.83 1.79-29 0 0 .29-.98v-9.21q0-.83-.75-.48c-2.99 1.44-5.09 1.62-7.15 4.85q-7.03 11.08-14.34 22.2-.77 1.17-.12 2.04M21.34 161.11l2.47-2.17q.53-.47-.11-.76l-1.2-.53a.62.61-70.4 0 0-.85.41l-.74 2.79q-.21.82.43.26m83.61 11.15q-2.99-5.9-7.15-11.42-.14-.19-.38-.16-3.61.32-6.12.95a.05.04 68.8 0 0-.03.07q2.1 3.04 3.94 6.18 1.14 1.96 2.98 2.92 3.19 1.67 5.82 2.55 1.81.62.94-1.09m30.13-7.14a.35.35 0 0 0-.65.2l.1 10.34a.35.35 0 0 0 .05.18l8.75 13.75a.35.35 0 0 0 .65-.19l-.12-10.35a.35.35 0 0 0-.05-.18zm-116.53-.04-7.4 1.18a1.01 1 2.7 0 0-.8.72l-2.71 9.67q-.25.87.43.26 4.42-3.95 8.86-7.87c1.11-.97 1.41-2.46 1.75-3.82a.11.11 0 0 0-.13-.14m183.23 11.91c-.94-1.43-.78-3.06-.78-4.69q0-1.15-.61-.18l-4.13 6.46q-.33.51 0 1.02l5.62 8.74q.29.45.29.98l-.05 16.49q0 .75.41.12l8.42-12.97a1.7 1.68 45.2 0 0 0-1.83q-4.67-7.27-9.17-14.14m-95.03-2.77q-.11-.33-.45-.29-.22.03-.14.24.09.27.4.3.29.02.19-.25m85.41.85q-.71-1.11-.66.21l.3 7.51q.03.74.43.12l2.11-3.22a1.07 1.06-44.8 0 0 .01-1.16zm-85 12.69q-.19-.33-.08-.64.24-.61.88-.68l5.49-.62a.32.32 0 0 0 .23-.48q-2.74-4.48-5.36-8.22-.73-1.04-1.96-1.09-.51-.02-.51.5v13.45a1.83 1.79 29 0 0 .29.98l4.69 7.23q.54.83 1.29.17l5.24-4.63q1.14-1.01.31-2.3l-2.25-3.51a2.09 2.07-21.1 0 0-2.1-.92l-5.66.99q-.33.05-.5-.23m9.04-8.62q-2.23.34-5-1.12-.62-.33-.24.26l3.83 6.03q.71 1.11 2.01.9l8.63-1.35a4.48 4.41 52.2 0 1 2.53.34l14.57 6.55q.55.25.22-.26l-8.8-13.54a.83.83 0 0 0-.82-.37q-8.23 1.25-16.93 2.56m83.72 30.67c.53-.86 1.23-1.35 1.23-2.49q-.01-8.8.01-17.56a2.41 2.33-62.5 0 0-.39-1.31l-5-7.78q-.44-.68-.88 0c-1.62 2.5-3.33 4.2-3.2 7.55q.19 5.08.06 9.58-.03.71.36 1.31l6.92 10.71q.45.71.89-.01m13.26-28.87q-.36-.56-.36.11l.02 7.27q.01 1.88 1.06.32l1.84-2.74a.88.86-45.1 0 0 .01-.97zm-50.33 20.99c-.73-1.15-.99-2.36-.91-3.7a1.12 1.11-76.6 0 0-.66-1.08l-7.01-3.13q-.94-.42-1.49-1.28l-7.08-11.02q-.61-.95-.61.18l-.06 9.29q0 .6.32 1.1l10.08 15.59q.36.55.96.82l14.5 6.47q.77.34.3-.36-4.05-6.08-8.34-12.88m-21.39-10.21q-6.79-3.04-14.08-6.37-.61-.28-1.28-.18l-9.1 1.3q-.67.1-.31.67c1.17 1.8 2.64 5.08 4.7 5.99q10.39 4.57 19.49 8.82.75.35 1.2-.35l1.74-2.67q.25-.38.25-.84l-.02-4.35a1.03 1.02 17.1 0 0-.44-.82q-1.01-.7-2.15-1.2m75.31-5.17a.26.25 40.8 0 0-.44.03q-.81 1.65-1.91 2.96-1.31 1.55.51.66l2.64-1.28a.59.59 0 0 0 .23-.87zm-4.25 31.54a.25.25 0 0 1 .07.34l-3.87 6.04a.25.25 0 0 0 0 .26l3.38 5.31a.25.25 0 0 0 .42 0l9.91-15.31a.25.25 0 0 0 .04-.13l-.01-19.2a.25.25 0 0 0-.04-.13l-3.38-5.27a.25.25 0 0 0-.32-.09l-5.91 2.62a.25.25 0 0 0-.11.09l-12.26 19.09a.25.25 0 0 0 0 .28l7.34 11.37a.25.25 0 0 0 .42 0l3.57-5.45a.25.25 0 0 1 .34-.08zm-100.24-18.07a.33.31 53 0 0-.05.42q1.57 2.26 3.14 4.85.89 1.48 2.85 2.33 7.86 3.4 15 6.68.5.23.8-.23l6.84-10.55a.42.42 0 0 0-.18-.61l-20.29-9.17a1.22 1.21-53.4 0 0-1.3.2zm40.77 6.85-7.56-11.64q-.33-.5-.38.09c-.22 2.69.13 4.32-2.08 6.46a.72.71-55 0 0 .2 1.17l9.55 4.25q.69.31.27-.33m20.7 9.56 16.15 7.2q.6.27.64-.39.3-4.52-1.06-6.72-2.37-3.81-5.07-7.73c-1.68-2.45-1.13-5.3-1.11-8.06q0-.72-.72-.61l-9.89 1.51a3.99 3.98-37 0 1-2.3-.32l-6.69-3.07q-.5-.23-.65.3-.38 1.29.28 2.34 4.64 7.31 9.68 14.92.28.42.74.63m16.81-1.23q-.15-7.47-.03-15.69.01-.55-.54-.47l-5 .73q-.75.11-.73.87c.04 2.68-.58 5.37 1.1 7.77q2.46 3.53 4.61 7.07.05.09.13.15.18.13.37.07.17-.05.13-.23-.04-.13-.04-.27m8.11-3.48q.2-.32 0-.63l-6.78-10.5q-.47-.72-.44.14.11 4.22-.01 8.59c-.08 3.06 2.1 5.2 3.54 7.6a.23.22-44.1 0 0 .38 0zm-92.92-1.81q7.91 3.53 16.22 7.25c2.34 1.05 3.45 3.65 4.78 5.68q.32.48.88.39l5.04-.8q.74-.11.73-.86l-.01-5.45q-.01-.59-.54-.84-7.13-3.33-15.05-6.76-2.24-.97-3.19-2.54-1.46-2.4-3.04-4.8a.37.37 0 0 0-.55-.08l-19.96 17.44q-.46.4-.28.99 2.68 8.56 5.26 16.91c.62 1.99-.98 5.78-1.47 7.8q-.13.58.15 1.1c1.02 1.9 1.68 3.44 3.86 4.37q7.95 3.4 15.54 6.98a1.58 1.53 52.3 0 0 .89.13l17.62-2.69q.53-.08.53-.62l-.01-18.36q0-.6-.33-1.11l-5.72-8.81q-.32-.49-.91-.42l-4.58.56q-.74.09-1.42-.21l-16.78-7.57q-.49-.22-.32-.72l.09-.28a.41.41 0 0 1 .56-.25q8.68 3.8 17.01 7.63 1.09.51 4.61-.39.63-.16.27-.7c-1.33-2-2.12-4-4.49-5.02q-7.85-3.38-15.81-7.13-.14-.06-.11-.22l.05-.34q.07-.44.48-.26m29.33 4.28c-1.14 1.73-.7 5.23-.69 7.34q0 .68.67.59 1.84-.25 3.69-.58 1.62-.29 3.18-1.69 5.95-5.35 11.69-10.4a.48.48 0 0 0-.12-.79l-10.99-4.93a.57.57 0 0 0-.71.2q-2.77 4.26-6.72 10.26m27.56 5.88q.31 0 .31.32v18.62q0 .56.3 1.02l9.89 15.3a1.72 1.71-4.2 0 0 .76.65l16.15 7.25a.31.31 0 0 0 .44-.28v-36.64a1.13 1.12-77.7 0 0-.65-1.02l-33.8-15.35q-.69-.31-1.25.19-6.54 5.88-13.14 11.63c-1.74 1.52-4.51 1.13-6.71 1.73q-.54.15-.54.71l.3 30.18q.01.45.25.83l20.64 31.49a1.68 1.67-4.6 0 0 .72.61l14.47 6.52q.97.44.39-.45l-8.93-13.84q-.3-.46-.3-1.02l.01-18.82q0-.37.37-.36h.3a.33.32 0 0 1 .33.32v18.61q0 .55.3 1.01l9.71 15.01q.3.48.82.71l15.99 7.19q.71.32.71-.46l.01-36.53a.99.98 12 0 0-.59-.9l-16.15-7.3a3.67 3.64-4 0 1-1.6-1.38l-9.58-14.8a3.95 3.88 29.1 0 1-.62-2.11v-18.27q0-.37.36-.37zm33.5-1.61q-.13.2.01.39 1.68 2.3 3.16 4.81c1.24 2.11 3.34 2.75 5.43 3.61q.73.31 1.16-.35l1.06-1.6q.46-.69.01-1.39l-7.05-10.89a.18.18 0 0 0-.3 0zm-4.72-4.26c.22 2.12-.05 3.7 1.29 5.48q.51.68.97-.05l.3-.47a1.84 1.82-45.2 0 0 0-1.93l-2.02-3.21q-.67-1.08-.54.18m4.29 5.57q-.16-.25-.33 0l-1.14 1.59a.86.85 31.2 0 0 .31 1.26l3.4 1.69q.93.47.38-.41zm-4.32.78-.01 1.52q0 .58.35.12l.33-.44q.33-.43.01-.86l-.32-.45q-.35-.49-.36.11m3.41 3.17a2.02 2.02 0 0 0-3.23 1.59q-.12 11.36-.08 23.02.01 2.71 1.09 4.19 1.21 1.67 2.25 3.46.43.74.9.02l5.02-7.72q.31-.47.3-1.03-.09-8.88.14-18.23c.08-3.1-4.52-3.9-6.39-5.3m-61.44.33a.3.3 0 0 0-.34-.3l-4.72.63a.3.3 0 0 0-.22.46l4.82 7.59a.3.3 0 0 0 .56-.16zm77.31 5.48-2.19-3.25q-.46-.67-.95-.03l-.68.9a.83.82 30.9 0 0 .32 1.25l3.24 1.44a.21.21 0 0 0 .26-.31m-8.79-1.83c.35 1.33.32 2.69.18 4.06q-.13 1.34.6.21l1.85-2.87q.41-.64-.28-.96l-1.86-.84q-.67-.31-.49.4m4.28 1.31a.4.4 0 0 0-.51.15c-1.48 2.39-3.46 4.37-3.4 7.43q.15 8.59-.15 16.29a2.79 2.74-60.6 0 0 .44 1.63l8.93 13.79q.37.56.37-.1l-.02-35.67a1.39 1.38 12.3 0 0-.81-1.26zm-5.03 24.01.05-2.73q.01-.91-.48-.15l-4.51 7.03a.8.8 0 0 0 0 .88q2.45 3.74 5.05 7.72 1 1.53.97 3.44-.11 7.82-.05 15.11 0 1.03.56.17l8.68-13.47a.91.89-45.5 0 0 0-.97l-9.68-14.99a3.69 3.57 29.8 0 1-.59-2.04m-9.68-.07.07 8.83q0 .83.45.12l2.41-3.83q.32-.51 0-1.01l-2.68-4.18a.14.13 29 0 0-.25.07m.06 13.2c-.06 7.72 0 15.45-.03 23.18q0 .53.29.98l3.05 4.85q.39.6.78 0l5.18-7.96q.34-.52.34-1.15l.05-17.78a2.37 2.35-61.4 0 0-.37-1.27l-5.04-7.82q-.46-.71-.92 0c-1.38 2.18-3.31 4.22-3.33 6.97m-.07 26.01.08 8.54q0 .8.43.13l2.29-3.59q.39-.62-.01-1.23l-2.57-3.92a.12.12 0 0 0-.22.07m.67 48.03q4.13-6.57 8.11-12.54 1-1.5.98-3.29-.1-9.1-.05-16.97a2.01 1.99-61.2 0 0-.32-1.12l-5.03-7.79q-.4-.62-.79.02-1.14 1.88-2.49 3.81-1.04 1.49-1.03 4.11.05 16.89-.04 33.58 0 1.25.66.19"/></svg>