<svg xmlns="http://www.w3.org/2000/svg" viewBox="0 0 382 382"><path fill="#f7a502" fill-opacity=".996" d="m78.08 0 2.09 3.15a1.73 1.65 86.5 0 0 .55.51l11.24 6.41q.19.11.19-.11V5.75a.5.48 16.5 0 0-.25-.44Q87.83 2.92 83.69.56q-.22-.12-.06-.56h1.13l5.89 3.17q.47.25.21-.21L89.17 0h1.08l17.23 29.7q.35.62.33-.09-.14-3.29-.12-6.63c0-2.2-2.96-6.34-4.1-8.21-1.79-2.94-1.03-7.86-1.04-11.23a1.55 1.54-76.5 0 0-.84-1.38L98.7.57a.25.24 20.5 0 1-.13-.27l.06-.3h.86l2.59.38q.49.07.74.51l4.52 7.99q.42.74.38-.11L107.34 0h1.41q-.06 19.77-.02 39.54c.01 1.99.34 4.64 2.19 5.75q3.01 1.82 5.83 3.5.8.47.34-.34l-3.53-6.23q-.2-.37.17-.55l.27-.13q.23-.11.36.11l20.09 34.74q.36.63.99.99l22.64 13.04q1.8 1.04.76-.76l-7.61-13.14a1.94 1.93-14.6 0 0-1.66-.97c-3.4-.04-7.78.69-10.78-1q-3.59-2.01-6.99-4.11a.3.29-58.5 0 1-.09-.4l.15-.26a.31.31 0 0 1 .41-.11q3.29 1.67 6.74 3.88c2.61 1.66 6.33.92 9.32 1.04q1.14.04.15-.51l-5.77-3.24a4.21 4.17 88.9 0 1-1.57-1.53q-1.83-3.12-3.53-6.23c-2.41-4.42-8.84-4.42-11.2-8.82q-1.89-3.53-3.92-6.84-.23-.37.16-.57l.28-.14q.24-.12.38.11 2.01 3.32 3.93 6.88c1.47 2.72 5.22 3.88 7.69 5.6q.79.56.31-.28l-3.81-6.49q-.15-.25.1-.4l.3-.17a.38.38 0 0 1 .52.14l9.78 16.89q.27.49.76.76l11.22 6.42a.13.12-73.7 0 0 .19-.11q.16-2.83-.2-4.55-.02-.09-.09-.14-3.21-1.94-6.59-3.77-2.02-1.1-3.07-3.01-1.93-3.48-3.93-6.91-.18-.3.13-.47l.31-.18q.2-.11.32.09 2.02 3.21 3.86 6.69c1.47 2.76 4.85 3.93 7.4 5.44q1.1.65.43-.43c-1.36-2.18-3.82-5.53-3.79-8.19q.05-4.04 0-7.82-.01-.55-.28-1.03l-5.55-9.61q-.27-.48.13-.86l.18-.17q.36-.34.36-.83l.03-6.75a1.02 1.01 16.2 0 0-.48-.86c-2.79-1.74-7.73-3.67-9.38-6.55q-2.21-3.86-4.13-7.3-.12-.19.06-.34l.22-.19a.29.28-35.4 0 1 .42.07q2.14 3.22 4.04 6.86c1.43 2.75 5.1 4.08 7.67 5.58q.94.54.35-.37c-1.49-2.32-4.03-5.61-3.99-8.47q.03-3.24.09-6.54c.04-2.26-1.2-3.96-2.26-5.82q-.33-.59-.92-.25l-1.8 1.01q-.54.31-1.16.31l-9.52.05q-.36 0-.4-.36l-.03-.32q-.02-.22.2-.23 4.51-.2 9.05-.1 1.47.03 3.17-1.25.32-.24.18-.63-.91-2.56-3.41-2.32a1.2 1.13-30.8 0 1-.68-.15l-6.77-3.94a5.99 5.98 60.1 0 0-2.95-.8q-4.57-.01-8.94-.05-.23 0-.22-.22V.37q.01-.22.23-.2 4.98.46 9.94-.17h1.2l8.97 4.56a.43.43 0 0 0 .56-.61L130.93 0h.64q1.16 1.18 2.08 0h1.78q1.09 1 1.84 0h.98l2.02 3.8q.32.59 1 .62l3.46.14q.61.02.32-.52l-1.53-2.81a1.59 1.57-20.2 0 0-1.72-.78q-1.06.23-2.12.12-.83-.09-.03-.33c1.11-.34 1.95.47 3.01-.24h2.3q1.66 1.37 3.59 2.1.45.17.5-.32l.16-1.78h.76l.19 2.54q.04.62.58.94l7.98 4.62q.76.44.33-.32L154.66 0h1.37q1.26 1.62 3.03 2.22.86.29.49-.53l-.26-.57q-.12-.26-.05-.54.06-.24.27-.24.24 0 .47.1.89.41 1.27-.44h.74l28.05 48.54q.63 1.09.55-.17c-.2-3.09.55-6.4-1.08-9.17-1.45-2.48-4.23-6.1-4.2-9q.04-3.71-.01-7.41a1.67 1.66-74.6 0 0-.79-1.4c-2.91-1.81-7.09-3.34-8.92-6.25q-2.39-3.79-4.11-7.32-.08-.17.06-.3l.21-.2q.27-.26.46.06 2.12 3.47 4.04 7.02c1.39 2.59 5.04 3.75 7.41 5.39q.88.6.36-.32c-1.29-2.32-4.09-6.06-3.87-8.72q.51-6.2-1-10.75h1.84l.2 12q.01.52.27.97l8.64 14.92q.55.95.47-.14c-.2-2.91.58-6.47-.98-9.08q-2.09-3.48-3.99-6.98-.37-.69-.28-1.45.82-6.34-1.19-10.24h1.72l3.96 6.81q.7 1.22.71-.19l.03-6.62h.96l.01 382h-.84q-.19-3.96-.24-7.98-.02-2.47-.97-4.07c-1.48-2.52-4.18-6-4.16-8.97q.03-3.71 0-7.5 0-.83-.73-1.25l-7.16-4.15q-.95-.55-1.5-1.5l-4.42-7.69q-.2-.34.15-.53l.3-.17q.16-.09.26.06 2.06 3.25 3.9 6.74c1.46 2.77 4.98 3.96 7.55 5.54q.76.47.32-.31c-1.51-2.71-3.88-5.68-3.86-8.89q.02-3.8.05-7.65a1.41 1.36 31.3 0 0-.18-.68l-8.17-14.14a1.58 1.58 0 0 0-1.35-.79c-3.4-.06-8.24.74-11.23-1.06q-3.49-2.12-6.87-4.04-.36-.21-.11-.55l.19-.24q.08-.1.2-.04 3.7 1.81 6.86 3.84 1.97 1.27 3.96 1.16 2.5-.15 5.34-.06 1.06.04.15-.51c-2.57-1.55-6.24-2.89-7.72-5.64q-1.79-3.34-3.82-6.66a1.93 1.85.7 0 0-.64-.63q-3.39-2.05-6.83-3.96c-2.94-1.64-5.06-6.86-6.76-9.75q-.2-.35.15-.55l.25-.15q.19-.11.31.08 2.08 3.25 3.94 6.8c1.47 2.83 5.13 3.92 7.6 5.68q.96.69.37-.34l-3.76-6.54a.34.33 70.1 0 1 .23-.5l.35-.07q.16-.03.25.11 4.76 7.96 9.18 15.92.95 1.7 2.67 2.65 5.23 2.87 9.91 5.71a.11.1-69.6 0 0 .16-.08q.32-2.14.13-4.33a.37.35-78.4 0 0-.17-.27q-3.27-2.14-6.64-3.88-1.91-.98-2.97-2.84-2.11-3.69-4.12-7.31-.08-.15.03-.26l.2-.23a.29.29 0 0 1 .46.04q2.16 3.22 4.03 6.85c1.45 2.8 5.07 3.97 7.61 5.56q.89.56.36-.35-1.43-2.41-2.98-4.94c-2.53-4.12.6-9.55-1.95-13.86q-2.05-3.45-3.94-6.78a1.64 1.6-60.3 0 1-.21-.8l-.02-7.73q-.01-.58-.58-.66c-1.52-.19-2.8-.1-4.18-.89q-3.88-2.22-7.6-4.49-.15-.09-.06-.24l.14-.24q.2-.35.56-.15 4.05 2.19 7.96 4.51c.76.45 1.63.42 2.48.49q1.95.15.28-.87-3.05-1.86-6-3.5-1.92-1.07-2.82-2.7-1.99-3.61-4.05-7.13a.37.37 0 0 1 .2-.54l.26-.09q.25-.09.38.13 1.97 3.25 3.94 6.9c1.4 2.6 5.1 3.86 7.47 5.39q.64.42.26-.25l-5.88-10.27a1.83 1.76.6 0 0-.66-.65l-13.98-8.09a1.42 1.42 0 0 0-1.42 0c-2.86 1.69-6.87 4.79-10.21 4.73q-4.06-.07-8.05-.08-.12 0-.16-.1l-.16-.36q-.2-.44.28-.46 3.66-.15 7.48.02c3.46.16 6.33-2.36 9.23-3.91q.78-.42-.1-.4l-6.59.12a5 4.95 59.1 0 1-2.53-.65c-2.91-1.65-6.73-4.69-10.17-4.59q-3.41.09-6.79.06a5 5 0 0 1-2.48-.68l-7.7-4.49q-.25-.14-.08-.37l.17-.24q.17-.22.42-.1 3.46 1.69 6.75 3.83 1.72 1.12 3.7 1.08 2.9-.05 5.61-.07 1 0 .13-.49l-6.24-3.53q-.23-.14-.1-.37l.19-.36q.18-.31.48-.13l17.03 9.8a2.24 2.21-29.9 0 0 1.1.29l12.29-.12q.7 0 .35-.61l-1.54-2.65q-.45-.77-1.35-.79c-3.4-.06-8.25.74-11.18-1.06q-3.55-2.16-6.96-4.05-.31-.18-.12-.47l.17-.26q.15-.22.39-.1 3.47 1.77 6.84 3.9c2.64 1.66 6.23.96 9.22 1.07q1.2.04.15-.56l-6.14-3.5q-.44-.25-.7-.68-1.94-3.11-3.84-6.64c-1.58-2.96-6.21-4.85-9.11-6.49a4.29 4.26 89.6 0 1-1.58-1.57l-4.14-7.13a1.57 1.56-15.4 0 0-1.39-.78c-3.25.08-8.09.82-11.01-.94q-3.61-2.17-6.91-4.03-.33-.18-.16-.53l.11-.22q.14-.27.41-.13 3.44 1.79 6.73 3.87c2.76 1.75 6.2.97 9.29 1.03q1.02.02.13-.48l-5.88-3.37a3.23 3.13.1 0 1-1.13-1.1q-1.91-3.18-3.76-6.58c-2.32-4.25-8.66-4.35-11.07-8.64q-2.08-3.69-4.07-7.17-.1-.18.08-.29l.24-.13a.49.49 0 0 1 .66.18l4.57 7.92q.27.47.74.74l5.99 3.49q.75.44.33-.32l-3.53-6.22q-.17-.29.12-.45l.29-.18a.31.3-29.9 0 1 .42.11l9.78 16.94q.27.48.75.76l15.06 8.69q.66.38.27-.28c-1.38-2.32-2.74-5.96-5.16-7.37-2.57-1.48-7.14-3.37-8.56-5.97q-2.05-3.75-4.07-7.12a.33.33 0 0 1 .12-.46l.29-.16q.26-.14.42.11 2.06 3.36 4.01 6.97c1.43 2.64 5.17 3.75 7.63 5.51q.83.6.32-.28l-3.81-6.49q-.22-.39.19-.56l.27-.11q.26-.11.4.13l20.19 34.92a1.85 1.79.5 0 0 .7.69q11.37 6.52 23.46 13.5.21.12.29.35.21.56.27-.03.05-.57-.26-1.09-4.11-6.92-8.03-14a.93.92 76.7 0 0-.75-.47c-3.08-.14-8.32.63-10.98-.79q-3.82-2.03-7.64-4.55-.1-.06-.04-.16l.13-.22q.22-.38.61-.17 3.27 1.74 6.6 3.82c2.63 1.65 6.29.99 9.22 1.01q1.09.01.14-.53c-2.74-1.54-6.31-2.85-7.91-5.85-1.16-2.16-2.95-6.31-5.05-7.53-2.97-1.73-7.35-3.44-9.02-6.48q-1.9-3.47-3.87-6.84-.19-.33.17-.43l.41-.12q.15-.05.24.09 2.15 3.49 3.99 6.89c1.36 2.53 4.76 3.75 7.18 5.21q1.02.61.43-.42l-3.45-6.08q-.1-.17.05-.29l.2-.18q.4-.35.67.11 4.7 8.05 9.06 15.78.94 1.67 2.64 2.61 4.89 2.72 9.65 5.49.65.38.63-.38l-.08-3.21q-.02-.81-.71-1.23c-2.81-1.73-7.55-3.6-9.13-6.44q-1.99-3.56-3.97-6.97a.48.48 0 0 1 .2-.67l.25-.12q.12-.06.2.05 2.15 3.43 4.06 7.01c1.49 2.78 5.11 3.79 7.59 5.62q.75.55.33-.28c-1.33-2.64-3.9-5.59-3.94-8.51q-.06-3.97-.01-8.12a1.42 1.4-60.1 0 0-.18-.69l-5.34-9.18q-.27-.48-.15-1.01.89-3.99.38-8.46-.05-.48-.46-.73-3.25-1.95-6.5-3.71-1.66-.9-2.87-2.99-2.04-3.5-3.98-6.89-.12-.2.05-.37l.24-.24q.32-.31.55.08l4.64 8.03q.32.54.86.86l5.93 3.45q.66.39.31-.29-1.3-2.48-2.78-4.83c-1.81-2.86-.94-7.49-1.05-10.71q-.08-2.23-2.23-5.37-.32-.47-.84-.21l-2.16 1.09q-.54.27-1.14.27l-9.43-.01q-.2 0-.26-.19l-.08-.3q-.12-.42.32-.44 4.47-.12 8.99-.05c1.27.02 2.07-.66 3.16-1.15q.67-.3.26-.91l-1.13-1.71q-.31-.46-.86-.44c-4.52.1-7.89-5.26-12.36-5.16q-3.82.08-7.38.01a5.76 5.75-29.1 0 1-2.74-.78l-7.61-4.48q-.15-.09-.07-.23l.15-.25q.19-.34.54-.16 3.64 1.86 7.01 3.98c2.32 1.46 5.84.97 8.51.93q2.15-.03.19-.9-4.19-1.85-8.03-5.09-1.94-1.64.39-.62c2.84 1.23 7.1 4.78 10.09 4.6q2.44-.14 4.75.03 1.03.08.15-.47-2.22-1.39-4.49-3.01-1.98-1.42-3.13-3.64-1.14-2.19-2.46-4.46c-1.67-2.85-6.06-4.66-8.84-6.24-1.52-.86-2.28-2.39-3.01-3.91q-.22-.47-.72-.62-.85-.26-1.78-.08-.35.07-.39-.28l-.03-.35q-.04-.37.33-.42.38-.05.8.06.67.18.43-.47c-1.21-3.19-3.9-4.41-7.72-6.43q-.29-.16-.14-.46l.13-.24a.36.35-61.6 0 1 .48-.15q3.45 1.84 7.13 4.05c2.21 1.34 6.05.92 8.54.85q.52-.02.94-.32c1.37-.98 1.86.27 2.98.6a1.06 1.05 35.8 0 0 .89-.14l1.99-1.42a.18.18 0 0 0-.11-.32l-4.78.21q-.46.02-.61.47-.24.74-.96.38-5.04-2.54-9.8-5.68-.49-.32-1.08-.32l-16.52.01a1.03 1.03 0 0 0-.89.51l-4.19 7.35a4.5 4.5 0 0 1-1.63 1.63l-7.68 4.4q-.4.23-.57-.2l-.09-.25q-.08-.19.09-.29 3.18-2.04 6.75-3.91 1.86-.98 2.78-2.73 1.31-2.5 2.75-4.76.55-.86-.34-.38c-2.39 1.29-5.47 3.74-8.14 3.82q-3.11.08-6.4-.05c-5.2-.22-8.4 5.38-13.4 5.29q-4.05-.08-8.1-.07-.42.01-.42-.41v-.25q0-.2.21-.22 3.69-.24 7.78-.05c3.19.16 6.2-2.34 8.87-3.87q.77-.44-.11-.43l-7.49.07q-.35 0-.34-.34l.02-.48q0-.11.11-.12 9.15-.21 18.36-.02 2.13.05 3.79-.95 4.27-2.59 8.63-5.11a1.26 1.26 0 0 1 1.68.4q.15.23.43.27 1.11.18 1.73-.64.16-.21.41-.21.53-.02.97.25c1.19.73 3.33 1.1 4.61.27q.6-.39 1.28-.54.44-.09.73.26.51.6 1.31.6a1.12 1.1 20.3 0 0 .8-.36q.8-.9 1.84-.21 1.48.97 2.88 1.88.9.58.37-.34l-1.92-3.4a.87.87 0 0 0-1.19-.33q-.84.48-1.5 1.2a1.93 1.92 38.5 0 1-2.51.28l-3.61-2.48q-.54-.37-1.08 0l-3.69 2.54a1.69 1.67-44.8 0 1-1.91 0l-3.62-2.49q-.48-.34-.99-.03-2.93 1.76-5.72 3.48-2.58 1.6-5.58 1.47-3.92-.17-7.37-.01-.35.02-.32-.32l.04-.35q.02-.24.26-.27 3.54-.32 7.54-.04 2.34.17 4.02-.88 2.31-1.44 4.87-2.93.84-.49-.13-.44c-3.14.15-7.07.53-9.82-1.15q-2.58-1.58-5.31-3.15-1.53-.88-3.33-.88-3.59 0-6.91.07c-2.85.06-7.1-3.2-9.6-4.63a1.63 1.62 45.2 0 0-1.62-.01c-3.23 1.84-6.56 4.6-10.39 4.67q-4.04.08-7.87-.08-.27-.01-.26-.28l.01-.26q.01-.33.34-.35 3.76-.13 7.49.03c3.39.14 6.25-2.47 9.07-3.89q.84-.42-.11-.41l-6.66.06a5.16 5.09 59.8 0 1-2.65-.72c-2.76-1.64-6.5-4.54-9.85-4.49-3.04.05-7.31.68-10-.96q-3.45-2.1-6.94-4.04-.33-.18-.11-.49l.19-.27a.24.24 0 0 1 .31-.08q3.35 1.67 7.07 4.03 1.53.96 3.22.89 2.98-.14 5.89-.02 1.01.04.13-.46l-6.31-3.59q-.43-.25-.09-.6l.21-.23q.15-.16.35-.05 8.28 4.66 15.83 9.13 1.7 1.01 3.78.97 7.61-.17 15.71.01 1.03.03.14-.49-2.26-1.3-4.61-2.71c-4.26-2.55-9.72.57-13.87-1.92q-3.58-2.14-7.15-4.15a.31.3 25.2 0 1-.14-.38l.12-.34q.09-.25.33-.13 3.51 1.69 7.12 4.01 1.68 1.08 3.45.97 2.79-.16 5.71 0 1.1.06.14-.49l-6.42-3.67q-.23-.14-.11-.38l.15-.29a.41.41 0 0 1 .57-.16l34.49 19.86q.9.52 1.94.51l26.44-.05q1.37 0 .19-.69l-14.07-8.12a1.41 1.39 44.7 0 0-1.41 0c-2.98 1.75-6.82 4.77-10.3 4.71q-4.02-.06-7.89-.05-.27 0-.28-.27l-.02-.4q-.01-.26.25-.26 3.66-.12 7.72.02c3.19.11 5.97-2.35 8.71-3.77q.96-.51-.13-.51c-3.07-.01-6.99.7-9.77-1.03q-2.81-1.74-5.8-3.43a4.94 4.85-29.4 0 0-2.33-.63c-3.47-.05-8.21.73-11.19-1.11q-3.31-2.04-6.8-3.93-.27-.15-.11-.42l.22-.37q.1-.18.29-.09 3.19 1.59 6.64 3.77c2.83 1.79 6.36 1.07 9.51 1.14q.94.02.13-.45l-6.24-3.57a.43.42-61.3 0 1-.16-.57l.15-.26q.12-.22.34-.09 8.16 4.57 16.05 9.21 1.7 1.01 3.62.93 5.03-.2 10.84-.02.84.02.42-.71L87 110.06a1.33 1.33 0 0 0-1.17-.67l-8.3.02a3.82 3.75 59.3 0 1-1.93-.51l-7.97-4.59q-.38-.22-.1-.55l.19-.21q.12-.14.28-.06 3.46 1.68 7.03 3.98 1.73 1.12 3.67 1 2.84-.18 5.51-.03 1.04.06.15-.47c-2.51-1.49-6.24-2.86-7.72-5.45q-1.78-3.1-3.59-6.34a3.33 3.27 89.7 0 0-1.24-1.25l-8.78-5.05q-.48-.28-.66-.82-1.27-3.97-4.01-7.57a.96.96 0 0 0-.73-.36c-3.08-.02-8.45.73-11.1-.87q-3.64-2.19-7.13-4.16a.45.45 0 0 1-.17-.61l.13-.23q.08-.13.21-.07 3.52 1.68 6.87 3.87 1.95 1.27 3.94 1.16 2.64-.15 5.18-.08 1.14.04.17-.56c-2.75-1.67-6.11-2.88-7.73-5.88-1.37-2.53-2.96-6.39-5.6-7.82q-6.36-3.45-12.41-7.15a1.87 1.85-43.8 0 0-1.87-.03c-2.83 1.59-6.72 4.67-10.01 4.63q-4.19-.05-8.25.01-.32 0-.27-.32l.06-.33a.31.31 0 0 1 .29-.26q3.85-.26 7.6-.09c3.3.14 6.06-2.21 8.74-3.76q1.02-.6-.16-.54c-2.98.15-6.79.65-9.47-.96q-3.28-1.96-6.56-3.86a1.69 1.61-28.8 0 0-.83-.22L0 53.01v-.96l6.93-.07q.89-.01.12-.46l-6.4-3.76q-.13-.08-.1-.23l.06-.28a.39.38 20.9 0 1 .57-.25q7.74 4.35 15.95 9.18 1.63.96 3.53.96 5.68-.02 10.88-.09.94-.02.46-.82l-1.47-2.45a1.72 1.71-14.9 0 0-1.46-.84c-2.95-.03-8.12.67-10.69-.85q-3.75-2.23-7.35-4.27-.23-.13-.09-.37l.15-.25q.19-.31.52-.14 3.42 1.81 7.03 4.02c2.35 1.44 5.91.81 8.63.82q1.34 0 .17-.64c-2.78-1.54-6.19-2.85-7.78-5.89q-1.54-2.93-3.3-5.79a4.3 4.3 0 0 0-1.38-1.38q-3.26-1.98-6.39-3.68-1.6-.86-2.81-2.95-1.82-3.12-3.61-6.23-.52-.88-2.17-.57v-2.33l9.03 5.08q.88.49.31-.33-1.54-2.21-2.75-4.63C5.4 20.18 2.35 18.9 0 17.6v-1.01l3.65 1.83q.65.33.29-.3L.47 12q-.26-.46.25-.61l.24-.06q.2-.06.3.11 9.77 16.77 19.46 33.72.98 1.72 2.72 2.71 15.64 8.88 31.58 18.21.9.53.36-.37-1.34-2.24-2.61-4.6c-2.36-4.39-8.81-4.41-11.15-8.79q-1.72-3.21-3.61-6.25a1.47 1.47 0 0 0-1.26-.71c-3.26-.03-8.39.68-11.17-1.03q-3.35-2.07-6.82-4.01a.38.38 0 0 1-.16-.49l.13-.26a.32.31 27 0 1 .45-.14l8.09 4.63q.46.26.98.26h6.48q1.26 0 .18-.65c-2.54-1.51-5.88-2.69-7.39-5.39l-3.05-5.5c-2.32-4.19-8.67-4.34-11.04-8.58q-2.05-3.66-4.01-7.01a.35.34-36.3 0 1 .07-.43l.27-.25q.27-.24.45.07l4.45 7.68q.5.87 1.37 1.38l5.88 3.45q.58.35.24-.24l-3.75-6.46q-.18-.31.13-.49l.27-.16q.29-.16.45.12l9.85 17.05a1.75 1.64 1.8 0 0 .61.61l15.39 8.83q.77.44.25-.27c-1.51-2.12-2.95-6.05-5.11-7.3-2.72-1.59-7.33-3.46-8.89-6.25q-2.03-3.65-3.97-6.94-.21-.34.14-.53l.27-.15a.3.3 0 0 1 .39.1q2.02 3.3 3.92 6.84c1.39 2.59 4.99 3.87 7.47 5.34q.77.45.32-.32l-3.66-6.3q-.09-.17.05-.3l.19-.17q.43-.38.72.12l35 60.54a.93.93 0 0 0 .8.46l5.68.04q.85 0 .12-.42l-6.48-3.77a.18.18 0 0 1-.07-.25l.14-.24q.25-.46.71-.2l16.99 9.78a1.93 1.88 59.2 0 0 .94.25l12.82-.06a.17.17 0 0 0 .15-.26l-2.21-3.7q-.1-.18-.32-.19c-3.55-.06-8.84.78-11.86-1.06q-3.47-2.12-6.81-3.99-.29-.16-.13-.45l.17-.3a.27.27 0 0 1 .36-.1q3.26 1.64 6.62 3.8c2.69 1.72 6.58 1.06 9.56 1.11q.91.01.13-.44c-2.71-1.57-6.36-2.89-7.93-5.74-1.31-2.38-3.02-6.49-5.38-7.87-2.89-1.68-7.18-3.35-8.8-6.33q-1.76-3.23-3.64-6.37-.28-.46-.8-.46l-7.94-.02a6.75 6.66 59.9 0 1-3.4-.93l-7.3-4.32q-.13-.08-.06-.21l.14-.25q.18-.32.52-.16 3.45 1.7 6.82 3.87c2.48 1.6 6.15 1.08 8.98.92q1.18-.07.14-.63c-2.83-1.5-6.09-2.75-7.75-5.82q-1.77-3.27-3.61-6.31-.26-.42-.69-.67-3.33-1.96-6.67-3.77c-2.88-1.57-5.25-7.01-6.91-9.98q-.12-.22.1-.34l.27-.16a.42.41 59.6 0 1 .56.15l4.59 7.96a2.17 2.1.5 0 0 .76.75l5.94 3.44q.77.44.33-.33l-3.6-6.32q-.11-.2.06-.35l.22-.2a.38.37-35.9 0 1 .58.09l9.85 17.01q.28.48.76.76l15.13 8.75q.68.39.27-.28-1.43-2.3-2.73-4.75c-2.32-4.34-8.57-4.4-10.97-8.53q-2.1-3.6-4.17-7.32a.33.33 0 0 1 .13-.45l.22-.12q.26-.15.42.11 2.06 3.24 3.8 6.59c1.5 2.86 5.24 4.24 7.84 5.75q.62.36.26-.26l-3.68-6.3q-.2-.35.15-.55l.33-.2q.19-.11.3.09l20.2 34.95q.27.47.74.73l23.06 13.28q1.55.89.66-.65l-7.92-13.69a1.42 1.42 0 0 0-1.23-.71c-3.53-.03-8.45.73-11.51-1.19q-3.37-2.11-6.78-3.97-.28-.15-.1-.41l.18-.25a.42.42 0 0 1 .55-.12l8.14 4.64a2.21 2.09-28.8 0 0 1.07.28h6.5q1.38 0 .16-.66-2.33-1.27-4.68-2.6c-4.21-2.4-4.29-8.46-8.3-10.81-2.54-1.49-7.04-3.3-8.48-5.9q-2.08-3.74-4.18-7.24-.11-.2.05-.35l.25-.23a.38.38 0 0 1 .58.08l4.75 8.18a1.75 1.75 0 0 0 .62.62l6.06 3.5q.76.44.32-.32l-3.67-6.37a.3.3 0 0 1 .16-.43l.34-.13a.36.34 64.6 0 1 .42.16l9.83 16.98q.28.49.77.77l11.11 6.37a.18.18 0 0 0 .27-.15l.05-3.48q0-.17-.15-.25l-8.89-4.99q-.51-.28-.47-.86l.03-.41q.04-.53-.22-1l-4.35-7.53q-.11-.21.09-.32l.28-.16a.43.42 60.3 0 1 .57.16l4.7 8.07q.3.52.83.8 3.15 1.65 6.25 3.8.79.55.29-.27c-1.41-2.36-4.18-5.99-4.21-8.67-.03-2.98.69-7.76-.86-10.33q-1.94-3.24-3.88-6.86c-1.24-2.32-4.91-3.6-7.07-5.07a.34.34 0 0 1-.05-.52l.21-.22q.14-.14.3-.04l5.39 3.07q.81.45.81-.47l.01-6.29q0-1.04-.87-1.61c-3.15-2.04-7.3-3.45-9.31-6.8q-3.25-5.41-5.72-10.2-.13-.25.11-.41l.21-.13q.22-.14.37.07 2.23 3.11 4.1 6.64c1.56 2.94 4.63 3.95 7.27 5.51q.59.35.26-.25l-3.27-6.01q-.4-.74.43-.62.59.08.87.57.45.81.42-.12c-.09-3.03.59-6.59-1.19-9.38q-3.71-5.8-6.91-11.94a2.07 2.06 76.2 0 0-1.83-1.11c-3.31 0-8.12.74-10.97-1.02q-3.4-2.11-6.85-3.99a.35.34-58.8 0 1-.12-.5l.17-.26q.19-.28.48-.11l8 4.6a2.24 2.18-29.8 0 0 1.08.28h6.99q.71 0 .1-.37-3.1-1.88-6.18-3.5-1.42-.75-2.85-4.57zm85.26 4.72q.46.17.2-.24l-2.04-3.33a.53.52 41.7 0 0-.93.05l-.13.29a1.16 1.13-49.3 0 0 .07 1.09q.88 1.41 2.83 2.14m-30.19-3.44q-.22.56.35.91.39.24.38-.22-.02-.62-.6-.76a.12.11 14.6 0 0-.13.07m2.32.02a.59.59 0 0 0-.93.54l.23 2.2a.59.59 0 0 0 .59.53h2.96a.59.59 0 0 0 .34-1.08zm10.17.24a.09.09 0 0 0-.13.09q.32 2.19 2.35 3.08a.62.62 0 0 0 .78-.25l.17-.26a.54.53 31.8 0 0-.17-.72zm13.85 3.44q-.14-1.23-1.19-1.97-.62-.44-.35.27.42 1.09 1.14 1.88.47.52.4-.18m26.92-1.59c-.04 3.28-.74 6.92 1.1 9.84q1.44 2.29 2.6 4.4.53.97.48-.14-.13-2.75-.04-5.29c.11-3.2-2.44-6.13-3.82-8.88q-.31-.63-.32.07m-78.63 15.74c-.15-2.91.6-6.73-1.01-9.3q-1.59-2.54-2.88-4.95-.42-.78-.38.1c.13 2.82-.59 6.85.95 9.31q1.53 2.45 2.89 4.97.49.9.43-.13m53.14-14.58a.31.31 0 0 0-.47.27l.09 4.07a.31.31 0 0 0 .15.26l3.48 2.09a.31.31 0 0 0 .47-.27l-.08-4.07a.31.31 0 0 0-.15-.26zm-16.29.95q.62.79 1.61 1.48.66.45.31-.26-.56-1.15-1.7-1.54-.64-.22-.22.32m4.318 2.105a1.25.54 67.5 0 0 .02-1.362 1.25.54 67.5 0 0-.976-.948 1.25.54 67.5 0 0-.02 1.362 1.25.54 67.5 0 0 .976.948M138.4 6.75l.12-.54q.14-.59-.46-.6l-1.83-.04q-.68-.02-.34.58.54.95 2 .99a.52.51-82.2 0 0 .51-.39m11.6 1.4a1.31 1.31 0 0 0 .77 1.13q1.42.64 3.12.55.56-.03.33-.54-.94-2.09-2.31-3.55a1.02 1.02 0 0 0-1.73.42q-.25.84-.18 1.99m-.88 9.37-.05-6.46a1.93 1.92 19.1 0 0-.72-1.48q-2.54-2.01-5.76-3.62-.38-.19-.64.15a.41.4 49.4 0 0-.03.47l6.42 11.15q.8 1.39.78-.21m-6.45-7.68-1.85-3.02a.48.48 0 0 0-.85.05q-.26.6-.16 1.25.09.56.56.86l1.94 1.22q.96.61.36-.36m11.38-3.02q1.02 3.49 4.41 2.91.78-.14.1-.55l-4.27-2.55a.16.16 0 0 0-.24.19M93.31 7.85q-.36 1.2-.11 2.22.34 1.39 2.83 2.29.7.26.24-.33-1.58-2.02-2.45-4.21-.29-.71-.51.03m44.81 2.56q.11.38.38.67.4.43.45-.16.1-1.44-1.04-2.2-.68-.45-.43.33c.15.47.51.88.64 1.36m27.75-1.73q-.12-.21-.18.03-.87 3.69 2.64 4.99.63.24.29-.34zM140.04 10a.15.15 0 0 0-.22.13l-.08 12.88q0 .5.25.94l8.52 14.75q.59 1.02.6-.16v-6.75q0-.51-.27-.93-2.03-3.23-3.84-6.59c-1.84-3.4-1.01-8.08-1.06-11.83q-.01-.12-.1-.18zm-47.93 2.5q0-1.25-1.08-1.83-.82-.44-.36.36l.93 1.61q.52.9.51-.14m60.67 10.21q3.91 1.97 7.8 4.4c.93.58 1.85.53 2.88.54q1.58.02.22-.8c-2.74-1.64-7.34-3.5-8.88-6.21q-2.07-3.65-4.06-7.24a.32.31 52.7 0 1 .05-.38l.18-.19q.28-.28.49.05 2.07 3.26 4.12 7.14.9 1.7 2.5 2.48 2.61 1.28 4.94 2.89 1 .69.34-.32-2.94-4.47-4.91-8.58-.97-2.03-2.79-3.06-2.6-1.47-4.97-2.74-.59-.32-.59.36l.01 38.68q0 .69.58 1.03l4.87 2.88q.65.38.27-.27l-3.67-6.38q-.22-.39.16-.63l.22-.13q.25-.16.39.09l9.81 16.97a2.71 2.65.4 0 0 .99.98l10.34 5.93q.86.5.88-.5l.05-2.75q.02-.98-.82-1.47l-6.82-3.94a5.36 5.36 0 0 1-1.97-1.97l-4.41-7.67q-.1-.18.08-.29l.25-.14a.39.38-31.8 0 1 .52.12q2.03 3.06 3.81 6.52c1.54 2.98 5.23 4.19 7.91 5.88q.82.52.31-.31c-1.58-2.53-4.19-5.84-4.12-8.95.06-2.72.65-7.18-.72-9.58q-1.9-3.31-3.79-6.5-.6-1-.6-2.17l-.01-7.21a.61.6 89.1 0 0-.62-.61c-1.59.04-3.06-.13-4.46-.97q-3.59-2.16-7.18-4.22-.15-.08-.12-.25l.07-.28a.33.33 0 0 1 .47-.23m3.09-10.573a1.25.43 31.2 0 0-.847-1.015 1.25.43 31.2 0 0-1.292-.28 1.25.43 31.2 0 0 .846 1.016 1.25.43 31.2 0 0 1.292.28m3.65 2.573q-.25-1.42-.03-3.07a.78.78 0 0 0-.73-.87l-1.53-.1q-.84-.05-.52.73.59 1.45 2 3.63 1.17 1.78.81-.32m1.66-3.66a.39.39 0 0 0-.73.2l.05 6.4a.4.4 0 0 0 .05.19l2.8 4.81a.4.4 0 0 0 .14.14l5.55 3.23a.39.39 0 0 0 .53-.53zm3.14 3.16q.24.35.31-.07.26-1.56-1.15-2.05-.71-.25-.3.38zM96.8 18.98q.6.34.59-.35l-.07-3.49a1.31 1.31 0 0 0-.66-1.12l-2.93-1.71q-.54-.31-.62.31-.51 3.98 3.69 6.36m73.01.58-.01-2.9a1.72 1.72 0 0 0-.84-1.48l-2.72-1.61q-.52-.31-.58.29-.44 4.2 3.35 6.18.8.43.8-.48m-21.24 9.09a.31.31 0 0 0 .58-.15l-.04-7.27a.3.3 0 0 0-.04-.15l-3.54-6.31a.31.31 0 0 0-.58.16l.04 7.23a.3.3 0 0 0 .04.15zM101.29 21l-2.5-4.32q-.34-.6-.45.08-.55 3.37 2.62 4.63.72.28.33-.39m72.43 1.24-2.41-4.1q-.37-.63-.48.09-.52 3.31 2.6 4.36.62.21.29-.35m-77.57-2.5q-.08-.17-.28-.21-.34-.06-.21.27.34.87.92 1.41a.37.36 18.8 0 0 .61-.3q-.07-.73-.85-1-.13-.04-.19-.17m72.28 1.6.91 1.86q.43.89.53-.09.14-1.43-1.06-2.12-.76-.43-.38.35m-65.96 9.88q.1-3.48.07-6.88-.01-.89-.77-1.37l-2.63-1.62q-.82-.52-.8.45.09 4.79-.01 10.47-.04 1.97 1.02 3.79 3.85 6.65 7.42 12.74.69 1.18.83-.18c.35-3.37.34-5.89-1.61-8.93-1.52-2.38-3.6-5.57-3.52-8.47m72.02-2.08a.3.3 0 0 0 .46-.26l-.03-4.1a.3.3 0 0 0-.14-.26l-3.52-2.12a.3.3 0 0 0-.45.26l.05 4.12a.3.3 0 0 0 .14.26zm12.21-5.24a.24.23-60.9 0 0-.44.13c.22 3.24-.65 6.67 1.13 9.6q1.42 2.32 2.61 4.43.54.96.5-.15c-.13-3.19.68-6.55-1.18-9.47q-1.47-2.31-2.62-4.54m-17.76 3.73q.6-.1.08-.41L165 24.73q-.64-.4-.4.32 1.08 3.15 4.34 2.58m-65.11-2.21a.17.17 0 0 0-.33.09c.26 2.92-.66 6.79.92 9.29q1.55 2.46 2.96 4.87.54.91.46-.15c-.21-3.03.56-6.77-1.26-9.39q-1.55-2.24-2.75-4.71M14.36 36.68q.58.37.22-.21-1.51-2.4-2.83-4.94c-1.5-2.88-5.12-4.02-7.67-5.75q-.92-.63-.34.32 1.46 2.37 2.77 4.84c1.47 2.78 5.27 4.09 7.85 5.74m164.55-5.38-2.28-4.19q-.36-.68-.44.09l-.2 1.95a1.35 1.33 17.3 0 0 .71 1.33l1.99 1.04a.16.16 0 0 0 .22-.22m-12.12-2.31 2.69 4.56q.42.7.4-.11l-.11-4.14a.72.72 0 0 0-.73-.7l-2.04.01a.25.25 0 0 0-.21.38m5.49 19.79 4.72 8.18q.23.39.62.62l6.37 3.67q.67.39.25-.27c-1.7-2.66-4.24-6.01-4.15-9.24q.11-3.99.04-7.58-.01-.43-.23-.8l-8.16-14.1q-.9-1.55-.9.24l-.03 26.56q0 .52.25.96l19.03 32.88q.56.97.48-.15c-.19-2.87.57-6.46-.98-9.05q-1.89-3.18-3.73-6.45a4.2 4.14 30.8 0 1-.53-2.03l-.01-8.18a1.4 1.38-73.7 0 0-.63-1.17c-2.72-1.74-7.63-3.61-9.16-6.37q-1.94-3.53-4.03-7.07a.33.32 50.2 0 1 .03-.39l.27-.31q.27-.31.48.05m-2.77-4.56a.2.2 0 0 0 .38-.1q-.22-2.9-.04-5.71.14-2.2-1.1-4.16-1.36-2.15-2.64-4.48-.49-.89-.48.12.02 2.56-.05 5.52-.05 2.12 1.15 3.91 1.59 2.38 2.78 4.9m5.226-12.054a1.33.47 69.5 0 0-.026-1.41 1.33.47 69.5 0 0-.906-1.082 1.33.47 69.5 0 0 .026 1.41 1.33.47 69.5 0 0 .906 1.082m5.394 5.694.01-3.43a1.54 1.52-75 0 0-.75-1.32l-2.67-1.55q-.71-.41-.76.4-.27 4.46 3.85 6.11a.23.23 0 0 0 .32-.21m-31.54 11.09a.32.32 0 0 0 .6-.17l-.12-7.02a.3.3 0 0 0-.04-.15l-3.5-6.06a.32.32 0 0 0-.6.16l.11 7a.3.3 0 0 0 .04.15zm33.16-13.11q-.24-.59-.45.01-1.17 3.32 2.42 4.47.88.29.32-.45-1.35-1.76-2.29-4.03m-80.71 5.85-.53-.87a1.58 1.51.8 0 0-.54-.53l-5.96-3.52q-.72-.42-.24.27c.45.65.64 1.2 1.39 1.6q2.94 1.57 5.58 3.34.79.53.3-.29m79.05-.78q.15-1.48-1.1-2.18-.79-.44-.35.35l1.07 1.91q.32.57.38-.08m10.38 27.21c.07-2.83.53-5.85-1.09-8.52q-1.6-2.62-3.14-5.26c-1.65-2.83-.85-8.32-.97-11.54q-.01-.33-.3-.49l-3.72-2.14a.14.14 0 0 0-.21.13q.27 5.64.02 10.46-.14 2.83 1.04 4.76 3.89 6.33 7.36 12.84.97 1.8 1.01-.24m-4.09-23.19q-.02 2.83-.08 5.59c-.06 2.93 2.45 6.1 3.88 8.57q.41.7.38-.11c-.11-3.05.61-6.75-1.06-9.44q-1.46-2.36-2.72-4.71-.4-.73-.4.1m-77.69.11.03 4.68q0 .33.28.5l12.99 7.48q.99.57.36-.38c-1.56-2.35-2.88-6.1-5.47-7.4q-4.22-2.12-7.99-4.98-.2-.15-.2.1m-5.2 1.16q-.06-.08-.06.02l.16 6.28q.02.81.8 1.05 1.35.41 2.84.36.78-.02.45-.73-1.59-3.46-4.19-6.98m-63.73.2q-.66-.43-.25.24c1.61 2.59 2.94 6.42 5.69 7.83q2.54 1.3 4.78 2.75.85.54.32-.31-1.44-2.33-2.81-4.91c-1.44-2.71-5.24-4-7.73-5.6m69.23 4.98a.17.16-73.4 0 0-.25.14l-.04 1.68q-.02.62.6.64l3.02.08q1.09.03.15-.52zm43.54 12.65q.07-.06.15-.02 3.74 1.85 6.97 3.94c2.62 1.7 6.31 1.02 9.3 1.01q.95 0 .12-.48c-2.79-1.59-6.21-2.85-7.91-5.81q-1.4-2.45-2.76-5.02-1-1.9-2.75-2.85-2.53-1.39-4.89-2.86-.69-.43-.67.38.05 3.97-.02 7.98-.03 1.75 1.27 3.99 19.79 34.08 38.72 66.94.46.81.46-.13c-.03-3.6.61-6.81-1.52-10.14-1.31-2.05-3.68-5.32-3.67-7.83q.02-4.18-.04-8.04 0-.54-.46-.82c-2.83-1.71-7.82-3.71-9.4-6.6q-2-3.65-4.04-7.04-.19-.31.16-.43l.44-.15q.15-.05.23.08 2.1 3.36 3.96 6.86c1.35 2.55 4.71 3.76 7.11 5.17q1.44.85.52-.55c-1.94-2.95-3.89-5.68-3.73-9.38q.15-3.37.05-6.61-.02-.52-.28-.98l-8.12-14.06a1.23 1.21 74.4 0 0-1.07-.61c-3.81.03-8.52.76-11.98-1.41q-3.38-2.11-6.42-3.76a.32.32 0 0 1-.04-.53zM36.51 56.54l-3.95-2.33q-.54-.32-.37.28.92 3.31 4.25 2.49.57-.14.07-.44m71.36 3.96c-.24-1.64-.21-3.23-.15-4.9q.03-.82-.78-.73-1.12.13-2.2-.23-.98-.33-.47.56l3.14 5.45q.65 1.12.46-.15m16.7 16.63 8.3 4.72q.47.27 1.01.27l6.38-.01q1.44 0 .18-.7-2.32-1.28-4.76-2.69c-2.78-1.59-4.48-6.17-6.24-8.94a5.07 5.02 88.3 0 0-1.78-1.69c-2.96-1.66-7.45-3.5-9.07-6.65q-1.49-2.89-3.38-5.92-.39-.62-1.12-.63l-4.78-.03q-.58 0-.58.58l-.03 17.18a2.27 2.24 30.2 0 0 .31 1.14l4.64 7.96a.8.78-14.3 0 0 .66.38l5.58.04q1.07.01.15-.52l-6.11-3.51q-.35-.2-.16-.55l.15-.26q.13-.25.37-.11 7.95 4.51 16 9.22 1.68.98 3.67.92 4.99-.15 10.69-.14.86 0 .43-.74l-1.62-2.78q-.38-.65-1.13-.63c-3.06.08-8.23.83-11.03-.85q-3.57-2.13-7.16-4.2a.34.34 0 0 1-.13-.46l.15-.28a.3.3 0 0 1 .41-.12m-7.71-20.76c1.67 2.59 2.8 6.12 5.61 7.62q2.33 1.24 4.64 2.62 1.05.63.37-.39-1.43-2.12-2.59-4.43c-1.44-2.87-5.09-4.12-7.71-5.75q-.9-.56-.32.33m-84.35 2.76q.35.2.66.4.69.44.5-.36c-.22-.89-1.05-1.24-1.91-1.06q-.56.12-.16.53.21.21.51.31.21.07.4.18m6.06-1.02c-.87-.23-2.73-.09-3.68-.03a.43.43 0 0 0-.37.62q1.88 3.87 6.14 3.51.67-.05.34-.64-.75-1.32-1.5-2.71-.32-.59-.93-.75m7.23 4.07q.34-.09.04-.27l-4.46-2.63q-.42-.25-.29.22 1.04 3.57 4.71 2.68m-5.03 1.54 1.63 1.1q.74.49.33-.3-.5-.95-1.34-1.52-.11-.07-.23-.06-.22.01-.4.13-.48.33.01.65m3.19-.44q-.75.01-.38.66l6.13 10.62a2.1 2.1 0 0 0 .81.81L65.53 84q.99.57.34-.36c-1.6-2.33-2.8-5.88-5.29-7.3q-3.33-1.89-6.55-3.72a3.9 3.9 0 0 1-1.46-1.46l-4.16-7.18q-.43-.76-1.31-.74zm12.29 9.43q2.04 1.26 4.04 2.34.89.49.35-.37-1.32-2.04-2.51-4.37-1.07-2.11-3.14-3.17-2.31-1.18-4.43-2.57-.91-.59-.38.36 1.56 2.82 3.31 5.73c.67 1.11 1.72 1.41 2.76 2.05m130.06-7.01c.2 3.21-.66 6.46 1.08 9.34q1.47 2.41 2.74 4.57.6 1.01.48-.15c-.33-3.3.62-6.45-1.23-9.47q-1.35-2.22-2.56-4.43-.59-1.08-.51.14M75.75 67.06a.25.25 0 0 0-.35.34c1.69 2.54 2.92 6.34 5.73 7.78q2.42 1.23 4.61 2.69.96.65.37-.35-1.34-2.24-2.73-4.81c-1.51-2.79-5.1-3.86-7.63-5.65m101.02 1.73q-.43-.76-.63.09-.21.88-.13 1.82.06.64.61.98l2.1 1.32q.68.43.29-.26zm-3.32 2.71.76 1.53q.47.95.62-.1.19-1.37-1.12-1.74a.22.22 0 0 0-.26.31m6.69 6.88-.02-2.69q-.01-.78-.68-1.17l-2.8-1.66q-.52-.31-.61.29-.54 3.8 2.91 5.92 1.22.75 1.2-.69m-24.84-4.34q-.19.97-.05 1.85.25 1.6 2.92 2.62.69.26.25-.33-1.47-1.96-2.5-4.22-.42-.93-.62.08m-1.12 4.47q.05-1.13-.98-1.66-.61-.31-.37.33.32.85.9 1.49.42.47.45-.16m29.87 3.06-2.28-4.17q-.38-.7-.53.08-.21 1.11-.06 2.17.08.53.52.84l2.02 1.37q.77.53.33-.29m-28.88-2.92c-.13 3.08 1.14 4.87 3.6 6.3q.69.41.68-.4l-.05-3.44q-.01-.66-.58-.99l-3.05-1.8q-.57-.33-.6.33m24.87 3.31q-.08-1.05-.81-1.73-.58-.54-.51.25.1 1.07.88 1.71.48.39.44-.23m10.48 28.1c.02-2.35.45-6.15-.65-8.13-1.51-2.7-4.69-6.79-4.58-9.93q.13-3.71-.04-7.84 0-.06-.04-.1-.95-.99-3.96-2.5a.08.08 0 0 0-.12.07l.03 13.14a1.57 1.44 31.9 0 0 .21.76l9 15.5q.18.31.33-.02.09-.2-.02-.38-.16-.27-.16-.57M70.9 92.44c-1.65-2.59-2.8-5.97-5.61-7.46q-2.3-1.22-4.53-2.53-.93-.54-.34.37 1.39 2.14 2.58 4.39c1.49 2.79 4.98 3.97 7.6 5.54q.82.49.3-.31m89.96-9.8q-.35-.62-.47.09-.59 3.47 2.86 4.8.48.18.23-.26zm-9.91 64.59q-1.19.93-.82 2.92.1.51.55.78l2.19 1.3q.74.43.31-.31c-.87-1.51-2.28-2.83-2.23-4.69q.15-.05.28-.07.22-.03.32.16l38.44 66.48q.62 1.07.56-.17c-.15-3 .58-6.29-1.04-9.03-1.58-2.69-4.3-6.18-4.22-9.27q.09-3.58.03-7.04-.02-1.01-.87-1.54c-2.77-1.71-7.44-3.46-8.98-6.29q-2.03-3.74-4.05-7.04-.18-.29.13-.46l.38-.21q.2-.11.32.09 2.02 3.31 3.94 6.87c1.49 2.77 5.2 3.89 7.68 5.59q.92.62.33-.32c-1.51-2.46-4.15-5.85-4.09-8.8q.07-3.94.03-8.04a1.34 1.24-62.4 0 0-.16-.59l-8.24-14.24q-.38-.64-1.11-.64l-8.37-.01a4.29 4.21-29 0 1-2.13-.59l-8.04-4.71a.24.23 38.9 0 1-.04-.37l.24-.24a.29.28-53.7 0 1 .33-.06q3.55 1.76 7.27 4.1c2.45 1.55 6.21.74 9.06.95q1.02.08.16-.46c-2.1-1.34-6.05-2.89-7.35-4.99q-1.84-2.99-3.5-6.16-.85-1.62-2.5-2.58c-2.78-1.59-6.73-3.11-8.44-5.89q-2.35-3.82-4.18-7.31-.11-.21.09-.34l.22-.15q.34-.23.55.13l4.71 8.06q.29.49.77.76l5.83 3.36q.84.48.36-.35l-3.64-6.38q-.13-.24.12-.32l.41-.14a.35.35 0 0 1 .42.15l9.84 17.01q.28.48.76.76l10.55 6.04q.84.49.84-.49v-2.96a1.41 1.4 15.6 0 0-.68-1.2q-3.18-1.93-6.46-3.73-1.74-.95-2.69-2.68-2.02-3.65-4.11-7.16-.31-.51.28-.58l.33-.04q.1-.01.16.08 2.18 3.42 4.02 6.93c1.44 2.74 5.07 3.83 7.55 5.58q.86.62.35-.31c-1.38-2.5-3.97-5.77-3.96-8.68.02-2.72.67-7.4-.73-9.8q-2.07-3.58-4.15-7.26-.24-.43-.24-.92l-.03-7.74a.63.62.5 0 0-.62-.62c-1.48-.02-2.72.06-4.05-.74q-3.67-2.22-7.53-4.36-.31-.17-.12-.46l.17-.27q.19-.3.5-.12l8.36 4.79a.82.76 59.8 0 0 .36.11l1.35.06q2.13.08.3-1.01c-2.67-1.59-7.07-3.37-8.59-6.09q-2.03-3.67-4.01-7.09-.11-.18.03-.35l.17-.2q.29-.35.55.04 2.18 3.37 4.18 7.2.83 1.59 2.37 2.33 2.5 1.19 4.73 2.77.93.66.37-.33l-5.69-10.09a1.93 1.89 1 0 0-.69-.7l-13.74-7.91a1.95 1.95 0 0 0-1.96 0c-2.72 1.59-6.72 4.68-10.02 4.58q-4.08-.12-8.05-.07-.26.01-.26-.25v-.32q0-.32.33-.34 3.71-.22 7.46-.02c3.34.17 6.22-2.26 8.89-3.78q.98-.55-.15-.53-2.73.04-5.69.1c-4.92.09-8.18-5.47-13.13-5.24q-2.68.13-5.19.05-.8-.02-.4.67l36.24 62.7q.28.48-.13.74m-1.21-60.4-4.28-2.59q-.41-.25-.28.22.97 3.5 4.49 2.77.54-.11.07-.4m-33.06 2.24-2.06-3.72q-.4-.72-.63.08-.8 2.79 2.37 4.02.68.26.32-.38m42.82-1.48q-.15-1.4-1.37-1.87-.84-.34-.3.39l1.22 1.65q.54.73.45-.17m30.56 12.61q.39.72.4-.11l.06-5.72c.03-2.87-2.39-5.58-3.64-8.14q-.53-1.07-.53.12 0 2.39-.09 5.08c-.1 3.26 2.3 6.03 3.8 8.77m-29.15-12.97a.31.31 0 0 0-.47.27l.08 4.09a.31.31 0 0 0 .15.26l3.49 2.13a.31.31 0 0 0 .47-.27l-.07-4.09a.31.31 0 0 0-.15-.26zm-48.07 3.005a1.36.46 65.2 0 0-.152-1.428 1.36.46 65.2 0 0-.989-1.042 1.36.46 65.2 0 0 .153 1.428 1.36.46 65.2 0 0 .989 1.042m33.03-.855q.24.32.58.48.67.32.38-.37-.57-1.37-1.93-1.38-.8-.01-.2.51.28.25.64.38.32.11.53.38m6.32-.83a.56.56 0 0 0-.47-.26l-3.65-.06a.56.56 0 0 0-.43.93l2.21 2.53a.56.56 0 0 0 .32.19l3.33.62a.56.56 0 0 0 .58-.84zm-38.31 1.3c-.34 2.67 1.04 5.02 3.48 6.11q.66.3.67-.42l.02-3.4q0-.63-.54-.93l-3-1.68q-.55-.31-.63.32m44.64 2.53q.54-.1.08-.39l-3.96-2.47q-.64-.4-.41.32 1.03 3.2 4.29 2.54m7-.33q.29.89.16 1.94a1.08 1.08 0 0 0 .49 1.05l1.98 1.3q.71.47.34-.29-1.05-2.19-2.48-4.22-1.02-1.45-.49.22m-9.83 3q.62.32.27-.28-.75-1.3-2.17-1.57-.76-.14-.19.38.96.88 2.09 1.47m2.91-1.62-1.56-.04q-.8-.03-.41.67l2.32 4.05q.57.99.54-.15l-.09-3.73q-.02-.77-.8-.8m2.41.07a.33.33 0 0 0-.61.17l.1 6.69a.33.33 0 0 0 .04.16l2.85 4.86a.3.3 0 0 0 .11.11l5.77 3.37a.33.33 0 0 0 .45-.45zm-39.1 4.43c-.89-1.3-1.6-2.58-2.21-4.02q-.32-.74-.46.05-.19 1.04-.24 2.15-.02.5.33.85.92.89 2.27 1.38.8.29.31-.41m-10.34 18.64q3.4 1.82 7.22 4.09 1.73 1.02 3.57.78 1.08-.14.14-.69l-7.78-4.48a1.3 1.23.8 0 1-.47-.46l-4.89-8.43q-.19-.32.13-.49l.28-.15a.33.32 60.9 0 1 .43.13q2.15 3.59 4.01 6.97c1.31 2.39 4.8 3.71 7.2 5.06q1.65.92.39-.49c-2.3-2.58-4.03-6.73-5.8-9.82a1.44 1.44 0 0 0-.56-.56l-13.84-8.01a1.84 1.84 0 0 0-1.81-.02c-2.86 1.57-6.62 4.57-9.95 4.6q-4.11.03-8.14-.04a.33.33 0 0 1-.32-.34l.01-.26q.01-.31.31-.32 3.54-.14 7.22.02 2.55.11 4.48-1.09 2.29-1.42 4.65-2.71.88-.49-.12-.48l-6.59.03q-1.14.01-2.12-.55-2.93-1.67-5.62-3.35c-3.04-1.9-6.51-1.12-9.81-1.31q-.82-.05-.4.65 1.97 3.3 3.89 6.82.9 1.64 2.61 2.61 21.4 12.2 42.76 24.58.55.32.55-.31l.05-5.54q0-.63-.62-.6c-1.3.06-2.62.1-3.8-.57q-3.92-2.24-7.79-4.51-.22-.13-.1-.35l.14-.26q.17-.33.49-.15m52.72-19.78a.21.2 34 0 0 .37-.07q.17-.75-.33-1.38-.29-.38-.74-.5-.74-.21-.31.43zm-55.97 1.58q.86.02.12-.41l-4.5-2.64q-.65-.38-.26.26l1.35 2.24q.28.45.8.47zm57.34-1.8q-.4 4.47 3.59 6.26.56.26.56-.36l-.01-3.34q0-.76-.66-1.14l-2.92-1.71q-.51-.29-.56.29m-47.774 2.48a1.35.43 65.7 0 0-.164-1.407 1.35.43 65.7 0 0-.947-1.053 1.35.43 65.7 0 0 .163 1.407 1.35.43 65.7 0 0 .947 1.053m4.854 5.97a.31.31 0 0 0 .47-.27l-.04-4.08a.31.31 0 0 0-.15-.27l-3.51-2.07a.31.31 0 0 0-.47.27l.03 4.08a.31.31 0 0 0 .15.27zm-17.232-4.227a1.42.41 35.4 0 0-.92-1.157 1.42.41 35.4 0 0-1.395-.489 1.42.41 35.4 0 0 .92 1.157 1.42.41 35.4 0 0 1.394.489m.742-.763q1.9 3.84 6.22 3.53.61-.04.3-.57l-1.75-3.04a1.13 1.12 75.4 0 0-.96-.57l-3.35-.08q-.82-.01-.46.73m64.63.16v-.06q0-.01-.01-.01v.01q-.05.01-.05.07.08 1.44.01 2.88a.97.96-72.6 0 0 .45.87l2.04 1.29q.84.53.36-.35-1.41-2.58-2.77-4.6-.03-.04-.03-.1m-53.36 3.4q.68.04.09-.31l-4.92-2.94q-.54-.32-.22.22l1.47 2.45q.25.41.72.43zm6.74-.48q-.16.87-.07 1.68.17 1.6 2.77 2.62.79.31.29-.37-1.46-1.96-2.32-4-.45-1.08-.67.07m45.25 2.94q.27.35.36-.08.29-1.41-.98-2.27-.6-.41-.4.3.33 1.13 1.02 2.05m-57.13-1.2 1.52 1.28q.8.68.45-.31-.45-1.25-1.75-1.45-.98-.15-.22.48m4.56-.25q-.68-.23-1.39-.1-.6.11-.3.64l2.26 4.05q.52.91.52-.14v-3.97a.55.55 0 0 0-.49-.55q-.31-.04-.6.07m2.72.05a.31.31 0 0 0-.58.16l.02 6.64a.3.3 0 0 0 .04.15l2.88 4.95a.3.3 0 0 0 .11.11l5.77 3.31a.31.31 0 0 0 .42-.42zm54.77 7.16a.34.34 0 0 0 .51-.29l.01-4a.34.34 0 0 0-.17-.29l-3.43-2.05a.34.34 0 0 0-.51.29l-.01 4.01a.34.34 0 0 0 .17.29zm-51.28-3.85q.14-1.58-1.22-2.32-.75-.41-.3.31l1.26 2.07q.22.37.26-.06m63.18-1.03c.05 2.96-.64 6.8 1.05 9.45q1.48 2.32 2.74 4.74a.27.26 29 0 0 .5-.14c-.25-3.1.57-6.74-1.13-9.44q-1.46-2.34-2.75-4.72-.42-.76-.41.11M127.59 114a.53.53 0 0 0 .87-.42l-.14-3.83a.53.53 0 0 0-.25-.43l-3.26-1.98a.53.53 0 0 0-.8.56l.71 3.48a.53.53 0 0 0 .18.3zm36.87-6.22c.91 1.89 1.82 3.01 4.36 2.49q.65-.14.08-.48l-4.04-2.38q-.81-.48-.4.37m14.62 6.35-2.37-4.07q-.4-.69-.55.09-.19 1-.14 2 .04.57.53.85l2.34 1.33a.14.14 0 0 0 .19-.2m-85.7-.65q.41-.11.04-.33l-4.5-2.56q-.55-.32-.33.28 1.31 3.54 4.79 2.61m73.8-1.16 2.3 3.98q.41.72.39-.11l-.09-4.12q-.02-.66-.68-.69l-1.33-.05q-1.19-.05-.59.99m-35.89 3.66c.38.17.57.43.89.6q.64.35.28-.29l-2.5-4.39q-.39-.68-.55.09-.61 2.87 1.88 3.99m41.05 15.6 4.57 7.95q.29.5.78.79l6.13 3.54q.54.32.24-.23c-1.14-2.12-3.79-5.64-3.86-7.97q-.14-4.32-.03-8.51.01-.6-.29-1.12l-7.87-13.58q-1.18-2.03-1.18.32l-.01 25.71a3.04 2.97-60.7 0 0 .41 1.52l18.88 32.63q.72 1.24.53-.18c-.34-2.54.5-6.15-.78-8.47-1.51-2.74-4.72-6.87-4.58-10.07q.15-3.64-.03-7.31a1.33 1.32-75.1 0 0-.61-1.06q-2.88-1.82-5.99-3.47c-3.32-1.75-5.48-7-7.23-10.14q-.16-.29.17-.36l.5-.1q.16-.03.25.11m-2.43-4.87c-.28-3.06.6-6.74-1.04-9.49q-1.44-2.44-2.82-4.76-.52-.86-.48.14c.12 3.07-.56 6.72 1.18 9.41q1.59 2.44 2.77 4.81a.21.21 0 0 0 .39-.11m4.38-12.2q.41.86.58-.08.22-1.3-.93-1.89-.81-.41-.41.4zm5.87 5.9-.03-3.41q-.01-.69-.6-1.06l-2.9-1.78q-.53-.32-.59.3-.49 4.48 3.59 6.3.54.24.53-.35m-90.14-4.15q.52.4.33-.23-.46-1.52-2.08-1.64-.81-.05-.16.43zm-29.22 2.5q.95.03.11-.41c-2.58-1.36-5.55-3.91-8.57-3.81q-2.83.09-5.5.05-1.08-.02-.11.46 2.3 1.16 4.57 2.63c2.7 1.76 6.47.98 9.5 1.08m36.68-.04a.32.32 0 0 0 .26-.48l-1.82-3.1a1.19 1.18 74.9 0 0-1-.58l-3.42-.06q-.63-.01-.38.57 1.74 3.98 6.36 3.65m29.37-4.12q-.5-.17-.2.26l1.38 2.01q.44.64.38-.13-.14-1.66-1.56-2.14m-24.67 4.09q.79.03.11-.38l-4.61-2.75q-.55-.33-.23.22l1.42 2.44q.21.36.63.37zm30.92 4.32a.33.33 0 0 0 .51-.29l-.11-4.09a.33.33 0 0 0-.15-.27l-3.46-2.12a.33.33 0 0 0-.51.28l.1 4.07a.33.33 0 0 0 .15.27zm-5.83-2.24-3.5-2.08q-.81-.49-.49.4.97 2.69 3.84 2.38 1.13-.12.15-.7m56.7 2.53q.82.5.27-.29-1.4-2.01-2.4-4.29-.34-.76-.52.05-.22 1-.21 2.15.01.64.55.97zm-84.55-2.04q-.51-1.48-2.15-1.57-.77-.04-.13.39l2.04 1.37q.39.27.24-.19m5.23-1.37a.33.33 0 0 0-.28-.16l-4.07-.09a.33.33 0 0 0-.3.5l2.05 3.53a.33.33 0 0 0 .28.16l4.07.08a.33.33 0 0 0 .3-.5zm32.65 4.88q-1.14-2.19-2.36-4.14-.43-.69-.4.12l.08 2.5q.02.68.65.92.83.33 1.55.98 1.29 1.17.48-.38m-30.45-3.96q-.25-.15-.19.13.7 3.65 4.36 2.92.62-.12.08-.45zm72.39 2.22q.07.25.28.43.44.37.49-.2.1-1.19-.95-1.72-.57-.29-.41.33c.11.42.47.74.59 1.16m-53.53.27 2.25 3.9q.49.85.48-.14l-.08-3.8a.83.82 5.8 0 0-.65-.79q-1.36-.3-2.68.28-.1.05.01.09l.26.1q.27.11.41.36m12.51 14.52a.3.3 0 0 0 .41-.41l-8.67-15a.3.3 0 0 0-.56.15l.02 9.99a.3.3 0 0 0 .15.26zm52.36 13.99c-.24-3.34.59-6.38-1.22-9.49q-1.7-2.92-3.36-5.76a5 5 0 0 1-.67-2.5l-.01-8.03a1.35 1.33-74.6 0 0-.64-1.15l-2.93-1.77q-.63-.39-.63.35l.04 12.49q0 .56.28 1.05l8.65 14.95q.56.98.49-.14m-66.4-22.63a.92.9-75.3 0 0 .45.79l3.36 1.96q.48.28.49-.28c.04-2.35-2.51-5.93-3.66-8.04q-.54-1-.55.13zm7.94-5.01 1.01 1.47q.44.64.52-.14a1.67 1.67 0 0 0-1.23-1.76q-.74-.21-.3.43m-41.46 1.11q.54-.47-.18-.46l-4.95.07q-.57.01-.15.39 2.6 2.37 5.28 0m5.08-.43q-.52-.01-.14.34 2.58 2.38 4.87.32.66-.59-.22-.61zm13.51 0a.3.29 78.6 0 0-.27.41q1.68 4.02 6.02 3.75.87-.05.43-.81l-1.57-2.67q-.37-.65-1.13-.65zm2.05 9.25a.34.34 0 0 0 .17.05h6.62a.34.34 0 0 0 .17-.63l-14.72-8.51a.34.34 0 0 0-.47.47l3.3 5.72a.34.34 0 0 0 .13.13zm-4.71-9.09q-.88.05-.13.51l1.6.99q.66.41.38-.31-.49-1.27-1.85-1.19m28.05.52q-.51 4.36 3.56 6.35a.4.4 0 0 0 .57-.36l-.02-3.27q0-.86-.74-1.29l-2.84-1.69q-.46-.27-.53.26m-14.46 2.8q-2.19-.75-3.99-2.14-.76-.59-.5.34.99 3.55 4.49 2.13a.18.17-46 0 0 0-.33m66.65-.66q-.5-.93-.47.12c.08 2.97-.63 6.54 1.01 9.27q1.33 2.23 2.73 4.56.61 1.03.52-.16-.18-2.48-.04-5.03c.17-3.19-2.3-6.03-3.75-8.76m-46.67 1.98q-.18-.29-.27.04-.94 3.39 2.37 4.54.71.24.33-.4zm-24.74.5q-.78.17-.11.6.76.48 1.63.66.66.13.31-.45-.63-1.06-1.83-.81m7.08.12a.45.45 0 0 0-.39-.23l-3.69-.08a.45.45 0 0 0-.4.67l1.78 3.23a.45.45 0 0 0 .39.23l3.7.07a.45.45 0 0 0 .4-.67zm2.24 1.26q.47 1.14 1.23 2.13.49.66 1.3.51.43-.07.8-.28a.4.39 46.4 0 0 .01-.68l-3.09-1.9q-.46-.28-.25.22m12.62 1.42 1.04 2.04q.41.79.49-.09.14-1.54-1.21-2.26-.67-.36-.32.31m2.91 1.23a.32.32 0 0 0-.48.27l.01 4.05a.32.32 0 0 0 .16.27l3.47 2.06a.32.32 0 0 0 .48-.27v-4.06a.32.32 0 0 0-.16-.27zm-15.14 2.16q.15.2.38.28.43.16.33-.29-.28-1.2-1.71-1.21-.74-.01-.18.47.27.23.61.34.34.12.57.41m3.53 1.01q-.12-1.18-.63-2.15-.2-.37-.57-.16l-.32.18a.45.45 0 0 0-.11.68l1.35 1.57q.33.4.28-.12m1.58-2.44q-.66-.29-.76.43-.24 1.68.14 3.23a.5.49-89.2 0 0 .33.35q1.72.5 3.54.44.06-.01.05-.07-.96-3.36-3.3-4.38m-8.98 1.34 6.66 11.57q.49.85.49-.13.02-3.44-.04-6.77c-.05-2.42-4.71-4.39-6.56-5.27q-1.23-.59-.55.6m1.05 4.4q.61.36.25-.24l-2.25-3.73q-.34-.56-.91-.25l-1.44.77q-.76.4-.02.85zm11.58-3.29q1.03 2.6 3.92 1.97.63-.14.08-.47l-4.05-2.46q-.68-.41-.42.33.14.39.47.63m-19.46.22-10.36-.02a.02.02 0 0 0-.02.02v.04a3.48 1.82.1 0 0 3.48 1.83h3.44a3.48 1.82.1 0 0 3.48-1.81v-.04a.02.02 0 0 0-.02-.02m2.42 1.39c1.75 2.83 3 6.5 6.1 8.06q2.32 1.17 4.28 2.5.94.64.35-.33-1.32-2.2-2.62-4.61c-1.58-2.92-5.2-4.17-7.88-5.84q-.58-.36-.23.22m31 3.93-2.25-3.93q-.5-.87-.56.13l-.11 2.05a.81.8 16.7 0 0 .41.75l2.23 1.29q.66.38.28-.29m-14.26 18.07q.02-1.13-.95-1.72c-2.69-1.66-7.26-3.41-8.9-6.26q-4.22-7.35-7.96-13.82-.25-.43-.7-.21l-2.83 1.42q-.45.22-.2.66l9.41 16.27q.24.42.66.65l10.72 6.12q.71.4.72-.41zm1.21-18.8a.21.21 0 0 0 .38-.15q-.17-1.43-1.77-1.92-.25-.07-.47.05-.59.31.03.56 1.11.44 1.83 1.46m-24.13-1.63a.24.22 72.3 0 0-.19-.11l-3.95-.06q-1-.01-.41.8c.82 1.12 1.02 2.32 2.33 2.99q2.99 1.53 5.74 3.4.73.49.3-.27zm19.54 1.8a.22.22 0 0 1 .33.03q2.31 3.24 4.13 6.9.97 1.95 2.93 2.98 2.39 1.24 4.78 2.6 1.05.6.33-.37-2.91-3.89-4.88-8.26c-1.32-2.92-5.17-4.51-7.79-5.86q-.74-.38-.7.45c.14 3.45-.69 8.19 1.2 11.29q1.85 3.01 3.5 6.09c1.55 2.9 6.48 4.7 9.25 6.51q.59.39.6-.32l.06-5.58q0-.73-.71-.61c-1.27.2-2.49.1-3.63-.52q-3.95-2.15-7.82-4.62a.34.34 0 0 1-.06-.53l.24-.24q.08-.08.19-.02 4.05 2.29 7.95 4.55c.72.41 1.47.47 2.28.43q1.75-.1.25-1c-2.98-1.79-6.73-3.12-8.63-6.24q-2.36-3.89-4.06-7.18-.09-.17.06-.3zm8.16 2.82q.46.79.44-.12l-.06-3.86q-.02-.77-.8-.8l-1.54-.06q-.89-.03-.44.74zm2.04-4.52a.32.32 0 0 0-.59.16l.08 6.7a.3.3 0 0 0 .04.16l2.84 4.78a.3.3 0 0 0 .11.11l5.8 3.3a.32.32 0 0 0 .43-.44zm2.1 1.15q.34 1.02.94 1.89.43.61.49-.13.1-1.42-1.12-2.03-.48-.24-.31.27m6.59 7.46v-3.18a1.36 1.34 15.8 0 0-.67-1.18l-2.88-1.7q-.54-.32-.59.3-.36 4.45 3.45 6.2.69.32.69-.44m-17.54 8.15q.89.54.35-.34c-1.54-2.49-2.7-5.65-5.48-7.05q-2.09-1.06-4-2.25-.95-.6-.37.36 1.27 2.11 2.46 4.2c1.46 2.57 4.63 3.61 7.04 5.08m58.91 4.72c-.01-3.3.68-6.79-1.24-9.74q-1.34-2.06-2.39-4.15-.5-1-.49.12c.02 3.06-.66 6.69 1.09 9.46q1.37 2.16 2.56 4.43.48.9.47-.12m-42.8-11.14c.13.39.53 1.05.76 1.41q.46.73.57-.13.14-1.05-.87-1.65-.72-.43-.46.37m29.12.19a.22.22 0 0 0-.4-.03q-1.52 3 2.07 4.32.94.34.35-.46-1.34-1.79-2.02-3.83m-22.99 7.6a.34.34 0 0 0 .51-.3l-.11-4.07a.34.34 0 0 0-.16-.29l-3.48-2.08a.34.34 0 0 0-.51.3l.11 4.06a.34.34 0 0 0 .16.29zm20.921-2.64a1.28.48 68.4 0 0-.025-1.367 1.28.48 68.4 0 0-.917-1.013 1.28.48 68.4 0 0 .025 1.367 1.28.48 68.4 0 0 .917 1.013m-26.991.95a.34.34 0 0 0 .16-.64l-3.55-1.95a.34.34 0 0 0-.45.48l1.23 1.97a.34.34 0 0 0 .29.16zm28.28-1.21c-.47 2.58 1.09 5.31 3.61 6.16q.51.18.51-.36l.01-3.38q0-.7-.6-1.04l-2.92-1.67q-.51-.29-.61.29m-20.18.74q-.53-.96-.52.13l.01 2.44q0 .29.24.45l2.69 1.84q.46.31.19-.18zm-9.55 2.31 2.31 3.98q.56.96.55-.15l-.06-3.76q-.02-1.01-1.01-.84-.6.1-1.21-.03a.54.54 0 0 0-.58.8m12.67 14.72a.3.3 0 0 0 .41-.41l-8.7-14.95a.3.3 0 0 0-.56.15l.05 9.99a.3.3 0 0 0 .15.25zm-13.41-14.08a.31.31 0 0 0-.58.15l-.04 5.67a.31.31 0 0 0 .15.27l3.62 2.12a.31.31 0 0 0 .46-.29l-.1-1.66a.3.3 0 0 0-.04-.13zm8.496 1.674a1.1.45 55.3 0 0-.256-1.16 1.1.45 55.3 0 0-.996-.648 1.1.45 55.3 0 0 .256 1.16 1.1.45 55.3 0 0 .996.648m27.574-1.414q-.21-.38-.33.04-1.03 3.58 2.55 4.56.4.11.2-.25zm-22.78 7.81q.71.35.67-.44l-.14-3.28q-.03-.77-.7-1.17l-2.91-1.74q-.54-.31-.58.31-.3 4.35 3.66 6.32m-23.82-5.59q-.49-.91-.5.12-.02 1.32.37 2.41a.85.85 0 0 0 .62.54l.59.12q.7.15.36-.49zm5.57 2.11-4.05-2.22q-.51-.28-.32.27 1.07 3.1 4.24 2.65 1.12-.15.13-.7m39.503.94a1.41.4 61.5 0 0-.321-1.43 1.41.4 61.5 0 0-1.025-1.05 1.41.4 61.5 0 0 .322 1.43 1.41.4 61.5 0 0 1.024 1.05m-58.153-.82 9.06 5.2q3.5 2.01 1.47-1.48-.71-1.22-1.41-2.46c-1.19-2.1-2.45-1.6-4.38-1.67q-2.37-.09-4.61-.08-.98 0-.13.49m68.61 28.66q-.1-2.43.01-4.9c.22-5.04-5.33-8.34-5.25-13.19q.08-4.12-.05-8.18 0-.11-.1-.17l-3.88-2.25q-.19-.11-.19.11.13 6.01.03 11.6-.03 1.85 1.01 3.63 3.88 6.6 7.86 13.51.61 1.06.56-.16m-30.18-27.82.12 2.71q.03.58.5.92l2.23 1.57q.61.43.25-.23l-2.77-5.07a.18.17-61 0 0-.33.1m-25.8 2.28q.16.92.08 1.88a.68.67-88.1 0 0 .68.73l3.38-.06a.33.33 0 0 0 .26-.52q-1.72-2.3-4.52-2.71-.52-.08-.91-.43l-.7-.64q-.69-.63-.37.24.32.86.9 1.46.1.11.23.05.13-.05.2-.16.59-.91.77.16m5.99 2.36a.33.33 0 0 0 .28.17l3.97.09a.33.33 0 0 0 .3-.49l-1.91-3.48a.33.33 0 0 0-.28-.17l-3.96-.07a.33.33 0 0 0-.3.49zm-3.14-3.2q.17.17.2.05.05-.16-.07-.25-.15-.12-.35-.13-.33-.03-.25.29.09.32.44.04.02-.01.03 0m8.4 1.61q.88 2.25 2.95 1.76a.47.47 0 0 0 .14-.86l-2.95-1.77q-.99-.6-.39.39.15.23.25.48m12.57.28q-.64-.42-.42.31.29.97 1.17 1.55.65.43.43-.32-.28-.96-1.18-1.54m27.95.66c.1 3.03-.62 6.51.99 9.18q1.47 2.46 2.77 4.71.51.88.47-.13-.1-2.61.01-5.29c.14-3.05-2.37-6.01-3.78-8.6q-.5-.91-.46.13m-25.45.86a.3.3 0 0 0-.45.27l.12 4.11a.3.3 0 0 0 .14.24l3.51 2.12a.3.3 0 0 0 .46-.27l-.11-4.1a.3.3 0 0 0-.14-.25zm-10.18.88q-.55-.11-.56.45l-.07 2.42q-.03 1.21 1.18 1.3l2 .14q1.32.1.66-1.06l-1.32-2.27q-.41-.7-1.21-.85zm-14.78.75c.56 1.08 2.09 1.14 2.76.15q.41-.62-.33-.66l-2.02-.11q-.75-.05-.41.62m9.08.12 1.13.67q.39.23.38-.22-.02-.6-.6-.88-.45-.22-.86-.06-.54.2-.05.49m4.07.97.03-1.29q.01-.33-.32-.39-.27-.05-.52.04-.7.24-.32.88l.56.91q.55.89.57-.15m.06 10.51-.05-6.7q-.01-.85-.65-1.4-2.86-2.41-5.93-3.66-1.18-.49-.54.62l6.51 11.32q.67 1.15.66-.18m-8.38-11.08a.34.33 49.9 0 0-.54-.05q-1.01 1.19.13 2.22.89.8 2.11 1.48.8.45.33-.34zm17.47 2.34-3.63-2.25q-.56-.34-.39.29.79 3.1 3.89 2.61.95-.15.13-.65m10.32 4.25-2.54-4.41q-.29-.51-.39.06-.66 3.62 2.7 4.65.49.15.23-.3m-30.75-3.5q.24.6.66 1.03.67.67.42-.24-.24-.86-.5-1.72-.12-.41-.52-.28-.25.08-.45.23-.15.11-.08.28.06.17.2.3.18.17.27.4m2.23.2a.13.13 0 0 0-.19.11q-.02 5.33-.11 11.54-.02 1.97 1 3.68 4.06 6.77 7.85 13.51.58 1.03.55-.15c-.08-2.98.62-6.54-1.06-9.2q-1.92-3.04-3.56-6.09-.57-1.06-.57-2.27l-.01-8.53q0-.28-.24-.42zm10.95 2.78q.29-.17.47.11 2.13 3.33 3.98 6.87c1.34 2.57 4.67 3.85 7.12 5.16q1.46.78.49-.56-2.4-3.28-4.11-7.01-1.22-2.67-3.07-3.75-2.56-1.49-5.09-2.88-.66-.36-.66.4v38.54q0 .81.71 1.22l4.7 2.7q.72.42.3-.3l-3.72-6.35q-.1-.17.04-.31l.27-.26q.31-.3.53.07 4.36 7.35 9.3 16.06.87 1.54 2.48 2.42 5.28 2.91 9.97 5.69a.12.12 0 0 0 .18-.09q.31-3.31-.09-4.62-.01-.05-.06-.07-3.42-2.02-6.8-3.89-1.91-1.06-2.92-2.95-1.98-3.69-3.95-6.89a.28.28 0 0 1 .1-.39l.28-.16q.36-.21.57.15l4.61 7.97q.28.47.75.74l5.77 3.34q1.05.61.44-.43c-1.64-2.77-3.9-5.53-3.83-8.99.06-2.79.67-6.76-.76-9.23q-2.1-3.63-4.09-7.09-.25-.43-.25-.92l-.01-7.76a.61.6-90 0 0-.6-.61c-1.52 0-2.77-.09-4.14-.86q-3.78-2.12-7.45-4.34-.24-.15-.18-.42l.08-.32q.06-.28.32-.14 3.9 2.03 7.86 4.44c1.02.63 1.93.67 3.1.53q1.26-.14.16-.76-3.04-1.7-6.39-3.6-1.71-.97-2.85-3.01-2.05-3.67-3.89-7.14-.05-.09.04-.15zm3.76-.98.48.48q.64.64.51-.25-.14-.93-1.02-1.27-.44-.18-.87-.06-.89.24-.04.6l.54.23a1.11 1.1 78.9 0 1 .4.27m3.83-1.09-1.41.03q-.87.03-.43.78l2.33 4.01q.47.81.44-.13l-.1-3.9q-.02-.82-.83-.79m10.11 16.01q-1.5-.51-2.86-1.4-2.29-1.49-.76.77.3.45.64.84.72.87 1.85.74.81-.09 1.42-.55 1.07-.81.4-1.97l-7.58-13.06q-1.47-2.54-1.39.4c.06 2.01-.26 4.27.65 6.13 1.01 2.06 1.97 4.13 4.16 5.21q2.02 1 3.85 2.2.21.13.16.38-.09.46-.54.31m-4.43-12.65q.41.51.43-.14.04-1.22-1.04-1.88-.65-.39-.37.32.34.89.98 1.7m1.43-.04q-.32 4.31 3.52 6.11.58.27.59-.37l.06-3.3a1.32 1.3-75.1 0 0-.66-1.16l-2.84-1.63q-.62-.36-.67.35m-17.1 14.58a.31.31 0 0 0 .58-.16l-.03-7.22a.3.3 0 0 0-.04-.15l-3.55-6.27a.31.31 0 0 0-.58.16l.03 7.2a.3.3 0 0 0 .04.15zm25.26-6.54q-1.42-1.56-2.44-3.94-.37-.87-.54.06-.67 3.53 2.68 4.37.96.24.3-.49m-5-.02q.16.6.6 1.14.46.58.47-.16.03-1.44-1.17-2.1-.62-.34-.4.33.16.48.5.79m5.5 7.04a.4.4 0 0 0 .6-.34l.03-3.86a.4.4 0 0 0-.19-.35l-3.31-2.01a.4.4 0 0 0-.6.34l-.03 3.87a.4.4 0 0 0 .19.35zm12.48-4.94q-.39-.8-.4.09c-.03 3.09-.71 6.77 1.01 9.55q1.41 2.26 2.72 4.48.54.92.47-.15-.16-2.49-.06-5.28c.12-3.14-2.39-5.96-3.74-8.69m-10.07 3.29q-.34-.6-.56.05-.38 1.14-.05 2.37.07.26.3.4 1.41.83 2.67 1.58a.08.08 0 0 0 .11-.11zm-6.91 6.25-.04-4.31a.78.78 0 0 0-.76-.77l-1.46-.03q-1.02-.02-.52.86l2.47 4.33q.32.56.31-.08m2.5 15.2q1.9 3.2 3.86 6.76c1.44 2.61 4.97 3.93 7.43 5.36q.91.53.35-.36c-1.51-2.46-3.94-5.79-3.87-8.76.06-2.76.67-7.29-.8-9.7q-4.05-6.58-7.3-12.56-1.17-2.14-1.17.3-.01 12.39-.03 24.92 0 1.83.99 3.53 9.09 15.51 18.23 31.46.51.89.5-.14c-.06-3.47.63-6.67-1.4-9.86-1.8-2.83-3.94-5.66-3.83-9.13q.12-3.65-.02-7.01-.02-.52-.47-.79-3.19-1.9-6.65-3.84-1.81-1.01-2.87-2.96-1.84-3.42-3.82-6.73-.18-.31.15-.44l.39-.16q.21-.08.33.11m-6.94-19.17c.55 1.64.3 5.06.22 6.97q-.02.56.26 1.04l3.56 6.13q.48.83.43-.13c-.16-3.14.57-6.57-1.09-9.4q-1.39-2.36-2.78-4.69-.11-.18-.33-.22-.39-.08-.27.3m8.42 1.1q.16.52.48 1 .43.66.57-.12.13-.71-.29-1.3-.29-.43-.8-.5-.56-.09-.33.43.13.29.37.49m3.04.75a.67.67 0 0 0-1.02.7l.65 3.2a.67.67 0 0 0 .21.37l2.4 2.09a.67.67 0 0 0 1.11-.53l-.13-3.44a.67.67 0 0 0-.31-.54zM145 201.21c.06 2.93-.62 6.27 1.05 8.85q1.33 2.06 2.52 4.25.5.91.51-.13.04-2.39.08-5.1c.04-2.95-2.19-5.55-3.59-8.03q-.6-1.06-.57.16m36.79.23q-.38-.71-.53.08-.26 1.3-.03 2.59a.42.42 0 0 0 .17.27l2.76 1.87a.1.09 3.8 0 0 .14-.12zm-1.901 4.882a1.2.45 64.4 0 0-.113-1.276 1.2.45 64.4 0 0-.925-.888 1.2.45 64.4 0 0 .113 1.276 1.2.45 64.4 0 0 .924.888m10.651 27.818c-.06-2.45.48-6.08-.73-8.25-1.53-2.77-4.67-6.74-4.53-9.94q.15-3.68-.05-7.84a.32.3-77.8 0 0-.15-.25l-3.8-2.29a.15.14 13.9 0 0-.22.13q.18 5.4.05 11.58-.04 1.93 1 3.68 4.18 7.05 8.22 14.08.19.33.36-.01.08-.17-.01-.34-.14-.25-.14-.55m-.07-10.08q.01-2.56.07-5.3c.06-3.12-2.35-5.88-3.75-8.56q-.45-.86-.44.11c.02 3.1-.67 6.75 1.09 9.5q1.36 2.15 2.53 4.37.49.92.5-.12m-38.23 5.66q.05-.46.47-.26 3.58 1.76 7.39 4.18 1.36.86 3.12.81 3.01-.09 5.85-.05.93.01.13-.45-2.49-1.42-5.13-2.86c-2.6-1.41-4.31-5.43-5.66-7.98-1.51-2.83-5.14-4.23-7.74-5.78q-.68-.41-.64.38.17 3.75.02 7.76-.07 1.88 1.09 3.88 18.78 32.39 38.96 67.38.68 1.17.52-.17c-.3-2.53.49-6.25-.72-8.43q-1.68-3.04-3.61-6.22c-1.75-2.88-.84-8.02-1.06-11.35a1.21 1.2 14.8 0 0-.55-.93q-3.14-1.96-6.4-3.72c-2.97-1.6-5.08-6.81-6.73-9.66a.5.5 0 0 1 .19-.7l.22-.12q.18-.1.29.08l4.74 8.19q.27.49.77.74 3.14 1.63 5.99 3.6.92.63.37-.33c-1.44-2.51-3.99-5.81-4-8.71q0-3.52.08-6.95.04-1.64-.96-3.22-3.9-6.21-7.19-12.44a1.84 1.83-13.5 0 0-1.61-.98c-3.23-.02-8.21.69-10.94-.96q-3.73-2.24-7.23-4.26-.09-.05-.07-.15zm-25.12 2.4q.82.51.34-.32-1.38-2.39-2.78-4.92c-1.4-2.54-5-3.84-7.42-5.34q-.86-.53-.33.34c1.49 2.43 2.8 6.12 5.46 7.52q2.38 1.26 4.73 2.72m59.19-.91c.15 3.07-.63 6.44 1.04 9.17q1.43 2.34 2.71 4.6.56.97.5-.15c-.14-3.1.62-6.65-1.16-9.43q-1.36-2.12-2.57-4.34-.58-1.07-.52.15m-10.35 4.55a1.45 1.43-73 0 0 .71 1.36l1.88 1.08q.7.4.3-.3l-2.14-3.84q-.37-.67-.53.09-.16.78-.22 1.61m-1.65 2.83q.32.67.52-.04.35-1.27-.87-1.92-.78-.41-.4.39zm2.2-.43a.28.28 0 0 0-.42.19q-.67 4.4 3.31 6.38.75.37.75-.46l-.02-2.98q0-.92-.78-1.4zm-18.46 5.24-2.27-4.19q-.27-.49-.41.05-.87 3.24 2.38 4.48.61.23.3-.34m-3.944.806a1.25.41 59.4 0 0-.283-1.285 1.25.41 59.4 0 0-.99-.867 1.25.41 59.4 0 0 .284 1.285 1.25.41 59.4 0 0 .99.867m27.964-.946q-.08-.3-.24-.55-.52-.84-.59.14l-.14 2.13q-.04.59.47.9l2.35 1.43q.8.49.3-.3l-1.74-2.78q-.28-.45-.41-.97m-26.46.38a.46.46 0 0 0-.68.52l1.06 4a.46.46 0 0 0 .17.25l2.62 1.98a.46.46 0 0 0 .73-.39l-.18-3.91a.46.46 0 0 0-.22-.38zm23.31 2.85c.2.29.33.59.51.88q.46.76.58-.12.14-1.06-.92-1.65-.61-.35-.42.33.08.3.25.56m11.61 28.71c-.15-3.06.59-5.88-1.14-8.77q-1.7-2.85-3.35-5.72-.72-1.23-.72-2.66v-8.06q0-.67-.57-1.02l-3.12-1.85q-.55-.33-.53.31.12 5.62-.03 11.1-.05 1.96 1.1 3.88 3.98 6.65 7.86 13.59.34.61.46-.08.06-.36.04-.72m-29.83-27.43q-.17-.3-.24.04-.78 3.75 2.48 4.83.65.22.31-.38zm-10.75 4.52-4.28-2.45q-.66-.37-.4.34 1.21 3.33 4.65 2.38.33-.09.03-.27m8.45-1.18q-.73-.64-.41.28.38 1.07 1.1 1.91.53.61.42-.19-.15-1.14-1.11-2m32.23 14.23c-.3-2.97.55-6.3-1.12-8.99q-1.42-2.28-2.62-4.63-.52-1.02-.5.12c.05 2.89-.64 6.46.8 8.92q1.39 2.39 2.82 4.79.78 1.3.62-.21m-26.48-6.01a.32.32 0 0 0 .48-.28l-.05-4.01a.32.32 0 0 0-.15-.27l-3.49-2.06a.32.32 0 0 0-.48.28l.08 4.03a.32.32 0 0 0 .15.27zm-17.164-4.213a1.36.4 31.8 0 0-.945-1.057 1.36.4 31.8 0 0-1.367-.377 1.36.4 31.8 0 0 .945 1.057 1.36.4 31.8 0 0 1.367.377m7.024 2.803q.51-.04.26-.48l-1.76-3.08a1.32 1.32 0 0 0-1.11-.66l-3.31-.08a.48.48 0 0 0-.44.69q1.95 3.97 6.36 3.61m4.49-.12q.67-.17.07-.52l-4.07-2.35q-.69-.4-.39.34 1.31 3.31 4.39 2.53m10.16 3.74-2.59-4.37q-.36-.62-.48.09-.58 3.6 2.93 4.46.29.07.14-.18m-9.57 2.11q.39.64.38-.11l-.05-4.03q0-.66-.66-.66l-1.66.01q-.91.01-.44.78zm-3.258-3.432a1.25.44 29.1 0 0-.878-.993 1.25.44 29.1 0 0-1.306-.223 1.25.44 29.1 0 0 .878.993 1.25.44 29.1 0 0 1.306.223m5.358-.968a.39.39 0 0 0-.73.2l.1 6.42a.4.4 0 0 0 .05.19l2.77 4.76a.4.4 0 0 0 .14.14l5.58 3.25a.39.39 0 0 0 .53-.53zm1.82 1.1 1.21 1.76q.54.8.47-.16-.11-1.4-1.38-1.96-.78-.34-.3.36m3.37 1.41a.57.57 0 0 0-.85.59l.63 3.39a.57.57 0 0 0 .19.33l2.54 2.16a.57.57 0 0 0 .94-.44l-.05-3.64a.57.57 0 0 0-.27-.47zm4.54 4.4q-.83 3.49 2.58 4.56.53.17.25-.31l-2.51-4.3q-.22-.37-.32.05m-2.68 3.08 1.14 2q.25.44.54.03.14-.2.07-.46-.38-1.5-1.56-1.82a.17.17 0 0 0-.19.25m6.13 7.96a.4.4 0 0 0 .61-.35l-.06-3.88a.4.4 0 0 0-.19-.33l-3.3-2.01a.4.4 0 0 0-.61.35l.06 3.88a.4.4 0 0 0 .19.33zm16.11 8.93q.01-2.62.05-5.44c.04-3.01-2.37-5.9-3.8-8.51q-.39-.72-.38.1c.05 3.21-.69 6.74 1.07 9.53q1.36 2.17 2.56 4.45.5.94.5-.13m-21.55-10.4q.47-.12.06-.38l-3.85-2.45q-.65-.41-.43.32.99 3.31 4.22 2.51m9.91 3.6-2.07-3.83q-.3-.55-.54.03c-1.12 2.76.71 2.82 2.26 4.09q.92.76.35-.29m-11.8-2.54a.26.26 0 0 0-.22.39l2.62 4.43q.44.74.42-.12l-.08-4.02a.79.79 0 0 0-.82-.77zm4.9 20.04q.19-.12.3.07 2.04 3.32 3.9 6.79c1.53 2.85 5.14 3.93 7.72 5.63q.86.57.32-.31c-1.34-2.19-4.04-5.75-4.04-8.28v-8.07a2.84 2.82-60 0 0-.37-1.4l-7.73-13.34q-1.2-2.07-1.21.33l-.03 25.99a1.78 1.67 31.4 0 0 .24.87l19 32.83q.51.88.48-.14-.07-2.51.03-5.25c.17-4.92-5.35-8.18-5.26-13.16q.07-3.65.03-7.25a1.38 1.38 0 0 0-.63-1.14c-2.55-1.65-7.58-3.63-9.07-6.26q-2.01-3.56-4.16-7.24a.31.31 0 0 1 .1-.41zm-6.33-18.93q.1 2.74-.02 5.55-.08 2.08 1.01 3.81 1.49 2.37 2.82 4.85.44.81.41-.11-.06-2.75.05-5.61.08-1.95-.96-3.64-1.61-2.61-2.91-4.96-.43-.76-.4.11m8 .24q.04 1.1.72 1.87.48.54.54-.19.08-1.14-.85-1.88a.25.25 0 0 0-.41.2m2.42 1.77c-.54 2.57 1.04 5.2 3.52 6.16q.58.22.58-.4v-3.23a1.35 1.35 0 0 0-.68-1.17l-2.81-1.64q-.5-.29-.61.28m5.08 4.69q-.37 3.05 2.63 3.88.73.21.28-.41-1.24-1.71-2.03-3.6-.67-1.61-.88.13m-1.12 4.464a1.31.42 63.7 0 0-.204-1.36 1.31.42 63.7 0 0-.956-.988 1.31.42 63.7 0 0 .203 1.36 1.31.42 63.7 0 0 .957.988m5.31 9.676q.1-4.02-.04-8.02-.01-.13-.12-.19l-3.88-2.23a.12.12 0 0 0-.18.11q.16 5.92.02 11.51-.05 1.92.96 3.62 4.07 6.89 7.94 13.71.51.9.5-.14-.02-2.65.06-5.08c.16-5.04-5.38-8.3-5.26-13.29m4.64 8.04q.6 1.11.56-.15c-.08-2.82.6-6.4-.93-8.92q-1.43-2.35-2.78-4.71-.55-.95-.5.14.09 2.61-.02 5.3c-.12 2.98 2.28 5.75 3.67 8.34m.43 21.27q.33.55.27-.1c-.3-3.02.55-6.79-1.09-9.49q-1.42-2.36-2.67-4.76-.5-.97-.51.12c-.03 3.05-.65 6.62 1.06 9.41q1.46 2.38 2.94 4.82m-13.52-11.18q-.39-.88-.67.03-.33 1.1-.11 2.39.04.24.26.36l2.77 1.63a.1.09-1 0 0 .13-.13q-1.45-2.17-2.38-4.28m-3.21 3.18c.35.32.42.89.7 1.28q.4.56.53-.11.26-1.36-1.11-1.91a.26.26 0 0 0-.36.28q.04.28.24.46m6.53 6.95-.07-3.43a.98.96 15.7 0 0-.46-.8l-2.94-1.79a.47.47 0 0 0-.71.37q-.37 4.37 3.53 6.08.67.3.65-.43m1.66-1.4q-.41-.77-.59.09-.22 1.12-.02 2.33.07.37.38.58l2.57 1.7a.1.09 3.9 0 0 .14-.12zm-1.919 4.747a1.21.44 62.9 0 0-.16-1.277 1.21.44 62.9 0 0-.942-.877 1.21.44 62.9 0 0 .16 1.277 1.21.44 62.9 0 0 .942.877m1.769-.467q-.56-.33-.56.32l.05 12.59q0 .53.27 1l8.74 15.04q.59 1.01.45-.15c-.31-2.58.5-6.29-.81-8.69-1.56-2.86-4.68-6.74-4.55-10.05q.15-3.69 0-7.27-.03-.71-.64-1.07zm4.58 4.62c.28 3.2-.63 6.44 1.13 9.32q1.48 2.43 2.73 4.56.57.97.47-.15c-.29-3.21.6-6.41-1.14-9.35q-1.44-2.42-2.69-4.54-.61-1.03-.5.16m.02 20.67c.1 2.98-.61 6.59 1.07 9.2q1.49 2.34 2.68 4.68a.28.27 29.9 0 0 .52-.14c-.2-3.08.6-6.62-1.07-9.34q-1.43-2.34-2.67-4.55-.56-1.01-.53.15"/></svg>