<svg xmlns="http://www.w3.org/2000/svg" viewBox="0 0 382 382"><g fill="none" stroke-opacity=".996" stroke-width="2"><path stroke="#fafa7f" d="m198.48 163.25-.18 1.69M198.48 170.79l-1.26 2.08M184.93 161.68q.11-.8-1.09-.95" vector-effect="non-scaling-stroke"/><path stroke="#7e7e03" d="M208.99 165.47q.55.41.35.97a.63.6 86.4 0 1-.28.33l-1.18.64M205.74 168.96q-.58.01-.85.57" vector-effect="non-scaling-stroke"/><path stroke="#fafa7f" d="M204.89 169.53q-.67-.08-1.08.98M203.74 172.61l-.06 1.89M203.72 174.78q.39.37 1.13.49" vector-effect="non-scaling-stroke"/><path stroke="#7e7e03" d="M209.18 178.23q.25.61-.17 1.15M205.05 186.43q-.35 1.29-1 1.75" vector-effect="non-scaling-stroke"/><path stroke="#fafa7f" d="m192.3 184.32-.97-.47" vector-effect="non-scaling-stroke"/><path stroke="#7e7e03" d="M184.86 172.56q-.68-.06-.91-1.48M183.85 165.32q.18-1.14-.17-2.54" vector-effect="non-scaling-stroke"/><path stroke="#7d7d7c" d="m191.51 186.03-.99-.03" vector-effect="non-scaling-stroke"/><path stroke="#7e7e03" d="M210.82 162.6q.05 1.23-.26 2.2M210.39 177.07q1.87 1.75-.22 3.21M206.08 187.36l-1.33 2.14" vector-effect="non-scaling-stroke"/><path stroke="#7d7d7c" d="m197.98 201.99-.91-.53" vector-effect="non-scaling-stroke"/><path stroke="#7e7e03" d="M197.15 201q.74-.75 1.02-1.9" vector-effect="non-scaling-stroke"/><path stroke="#7d7d7c" d="M205.13 174.59q-.34-1.21-.07-2.28M205.07 170.47q-.16-.39-.18-.94" vector-effect="non-scaling-stroke"/><path stroke="#fafa7f" d="M204.94 167.92q.4-.46-.95-.06M203.58 163.45l-.16-1.5" vector-effect="non-scaling-stroke"/><path stroke="#7d7d7c" d="M184.83 173.34q-.44.21-.71.76" vector-effect="non-scaling-stroke"/><path stroke="#7e7e03" d="M182.61 173.23q-.33-.51-.71-.72M178.11 174.29q-.31-1.01-.05-1.8M177.95 170.25l-.7-.73" vector-effect="non-scaling-stroke"/><path stroke="#7d7d7c" d="M177.25 169.52q-.44-.62-1.14-.35M173.83 167.26l-.86-.65" vector-effect="non-scaling-stroke"/><path stroke="#7e7e03" d="M172.97 166.61q-.25-.54.07-1.16M177.04 167.9q.46.38 1.03.54M178.07 163.21q-.34-1.14-.98-1.53M177.98 188.31q-.89-.82-.92-1.82M173.06 179.39l-.53-1.14M183.97 199q.16 1.38.88 1.8" vector-effect="non-scaling-stroke"/><path stroke="#7d7d7c" d="M185.04 201.65q-1.72-.21-2.36-1.95" vector-effect="non-scaling-stroke"/><path stroke="#7e7e03" d="m198.1 187.67-.93 1.91" vector-effect="non-scaling-stroke"/><path stroke="#7d7d7c" d="M191.5 200.04q-.46-.24-.98-.01" vector-effect="non-scaling-stroke"/><path stroke="#7e7e03" d="M184.16 186.3q-.25 2.26.66 3.2M211.83 166.27l.02 2.43M213.27 171.24q.62-.11.87-.97" vector-effect="non-scaling-stroke"/><path stroke="#fafa7f" d="M218.23 166.22q-.55 0-.97.52" vector-effect="non-scaling-stroke"/><path stroke="#7e7e03" d="M214.71 171.55q-.88.7-.71 1.44M212.76 175.18q-.83.67-.9 1.8M211.68 177.3q-.11.33-.04.73" vector-effect="non-scaling-stroke"/><path stroke="#fafa7f" d="M215.62 181.25q.22.42.23 1M217.32 189.02q.08.92.49.85M223.25 181.55q.52.11 1.11-.03" vector-effect="non-scaling-stroke"/><path stroke="#7e7e03" d="M218.36 192.74q-.63.32-1.05.03" vector-effect="non-scaling-stroke"/><path stroke="#7d7d7c" d="M191.16 225.73q-.25.12-.41.18-.32.13-.41-.19-.04-.16.01-.32" vector-effect="non-scaling-stroke"/><path stroke="#fafa7f" d="M177.25 169.52q-.17.73-.53 1.22M176.54 172.3q.8.87-.07 1.71M172.79 178.16q.39-.25-.26.09" vector-effect="non-scaling-stroke"/><path stroke="#7d7d7c" d="M172.53 178.25q-.81-.56-.34-1.46" vector-effect="non-scaling-stroke"/><path stroke="#fafa7f" d="m172.97 166.61-.38.44" vector-effect="non-scaling-stroke"/><path stroke="#7e7e03" d="M171.54 176.8q-1.74-.04.45 3.22M169.76 183.34q-.37-.38-.94-.57" vector-effect="non-scaling-stroke"/><path stroke="#fafa7f" d="m169.64 176.52-.41-1.3M167.43 173.23q.53.01.14-.83-.17-.35-.48-.19M164.56 166.55l-.79-.78" vector-effect="non-scaling-stroke"/><path stroke="#7e7e03" d="m166.32 181.11-.6.87M168.26 183.96q.49-.14.94.4M164.83 204.17q-.25.86.07 2.05M164.76 206.56q-.57.39-1.07.36" vector-effect="non-scaling-stroke"/><path stroke="#fafa7f" d="M158.15 196.59q.32-.1.35-1.39" vector-effect="non-scaling-stroke"/><path stroke="#7e7e03" d="m218.43 204.36-.32 2.33" vector-effect="non-scaling-stroke"/><path stroke="#7d7d7c" d="M224.99 169.41q-.54.16-1.14-.47" vector-effect="non-scaling-stroke"/><path stroke="#fafa7f" d="m224.03 175.72 1.15-.71" vector-effect="non-scaling-stroke"/><path stroke="#7d7d7c" d="M226.26 174.07q.77-.08 1.06-.6M227.62 173.51l.74.92M228.22 174.5q-1.4.43-2.32 1.52M224.97 177.2q-.06 2.38-.89 1.78M224.11 180.13l1.35.04M229.26 179.9q.31-.02.57.11.27.13.32.4.05.28-.13.58M217.09 178.04q.27-1.46.03-2.98M217.36 173.5q.54-.75 1.08-.47M221.22 170.82l1.55-.96q.55-.34.07-.78l-.32-.3M218.27 171.48q-.4.57-.97.45" vector-effect="non-scaling-stroke"/><path stroke="#7e7e03" d="M190.62 227.73q-.07.15-.13.31" vector-effect="non-scaling-stroke"/><path stroke="#7d7d7c" d="M184.95 229.7q-1.43-.16-2.34-1.94M181.09 225.51q-.3-.44-.37-1.13M178.08 219.41q-.34-1.69-1.03-1.47" vector-effect="non-scaling-stroke"/><path stroke="#7e7e03" d="M181.44 223q0 .62.58.78M183.76 220.96q.35-1.36-.01-2.13" vector-effect="non-scaling-stroke"/><path stroke="#fafa7f" d="M248.49 180.2q-.59.44-.8.91M247.59 184.52l.95-.36" vector-effect="non-scaling-stroke"/><path stroke="#7d7d7c" d="M255.09 181.27q-1.23.45-1.89 1.2M248.64 186.73q-.09.34-.41.48-.36.15-.74-.31M245.27 187.55q-1.03.38-1.66 1.15" vector-effect="non-scaling-stroke"/><path stroke="#fafa7f" d="m247.62 192.57.28.21" vector-effect="non-scaling-stroke"/><path stroke="#7d7d7c" d="m247.9 192.78.49.74" vector-effect="non-scaling-stroke"/><path stroke="#fafa7f" d="M242.95 203.61q-.79.76-1.3 2.18M222.95 226.29l-1.38.46" vector-effect="non-scaling-stroke"/><path stroke="#7d7d7c" d="m211.47 233.26-.94-.37M204.93 231.26q-1.04.15-.99-.5.09-1.17.04-2.29M203.04 226.8q-.68.19-1.28.67M197.97 230.01q-.51-.2-.88-.56" vector-effect="non-scaling-stroke"/><path stroke="#fafa7f" d="M191.63 227.79q-.73.24-1.01-.06" vector-effect="non-scaling-stroke"/><path stroke="#7d7d7c" d="M190.62 227.73q-.02-1.09.3-1.94M198.28 218.92q-.33 1.27 0 2.35" vector-effect="non-scaling-stroke"/><path stroke="#fafa7f" d="M198.3 227.06q.23-.56.22.76" vector-effect="non-scaling-stroke"/><path stroke="#7d7d7c" d="M201.3 226.34q.41.04.62-.36" vector-effect="non-scaling-stroke"/><path stroke="#fafa7f" d="M203.94 219.02q.31-1.07.96-.99" vector-effect="non-scaling-stroke"/><path stroke="#7d7d7c" d="m217.36 206.92.75-.23" vector-effect="non-scaling-stroke"/><path stroke="#fafa7f" d="M218.11 206.69q.06.15.15.22" vector-effect="non-scaling-stroke"/><path stroke="#7d7d7c" d="M218.34 218.03q-.48 1.04-.55 2.06a.36.35 73.2 0 0 .57.31q.68-.53.75-1.19M224.79 208.67q-.43-.1-.83-.37" vector-effect="non-scaling-stroke"/><path stroke="#fafa7f" d="M224.01 207.32q1.03-.11 1.23-1.6" vector-effect="non-scaling-stroke"/><path stroke="#7e7e03" d="M200.98 224.71q-.13.15-.11.31M200.06 223.89q.35-.35.36-.81" vector-effect="non-scaling-stroke"/><path stroke="#fafa7f" d="M165.17 177.6q-.73-.05-.88-.92M160.76 170.75l-1.76-.44M158 174.78q-.71.16-1.21-.07M156.75 172.03l-.01-2.06" vector-effect="non-scaling-stroke"/><path stroke="#7d7d7c" d="m170.34 230.59.75 1.62" vector-effect="non-scaling-stroke"/><path stroke="#7e7e03" d="M171.09 232.21q.13.44-.15.71-.32.3-.59.14M170.01 232.82q-.16-.8-.67-1.55" vector-effect="non-scaling-stroke"/><path stroke="#7d7d7c" d="M163.84 221.01q1.19-.21-.23-2.7M171.31 218.65l.1 2.38" vector-effect="non-scaling-stroke"/><path stroke="#fafa7f" d="M171.36 232.52q-.08-.16-.27-.31M190.83 240.28l.67 1.69" vector-effect="non-scaling-stroke"/><path stroke="#7d7d7c" d="M191.04 253.62q-.17.18-.32.22-.22.07-.3-.14-.1-.28-.06-.29" vector-effect="non-scaling-stroke"/><path stroke="#fafa7f" d="M180.11 227.4q-.51-.3-1.12-.2M178.22 228.86q-.18.83.02 1.96" vector-effect="non-scaling-stroke"/><path stroke="#7d7d7c" d="M184.67 243.18q-1.12.81.2 2.45" vector-effect="non-scaling-stroke"/><path stroke="#fafa7f" d="m184.99 257.79-.94.24M183.02 257.25q.27-1.16-.24-1.41M164.65 237.78q-.89-.59-1.15-.98M164.26 235.89q.48.33 1.25.13M175.96 243.39q.17.17.45.26.45.14.66-.28.17-.35-.16-.74" vector-effect="non-scaling-stroke"/><path stroke="#7d7d7c" d="M176.94 230.82q.34-1.37.03-2.18M174.09 223.46q-.61-.61-1.42-.48M172.51 222.73q.11-.72.46-1.23" vector-effect="non-scaling-stroke"/><path stroke="#fafa7f" d="M151.51 168.18q-.49 1.3-.19 1.93M152.78 176.37q.16.85-.55.88M151.08 179.8l1.48.02M153.71 178.37q.2-.6.63-.92M156.11 178.48q.61 1.51.59-1.01M156.98 177.01q.34-.2.62-.08.36.14.49.53M163.6 180.81l.75.44q.52.31 0 .63-.24.14-.58.19M164.15 191.21l-.48 1.5" vector-effect="non-scaling-stroke"/><path stroke="#7d7d7c" d="m151.32 195.83-1.11.28M150.21 196.11q-.28-1.1-.96-1.85" vector-effect="non-scaling-stroke"/><path stroke="#fafa7f" d="M143.72 184.05q.44-.35.91-.52M150.01 181.39l.14-2.01M147.09 173.98q.13-.37.12-.94" vector-effect="non-scaling-stroke"/><path stroke="#7d7d7c" d="M158.01 207.34q-.85.04-1.17-1.72M231.92 174.99q-.31.64.1.98" vector-effect="non-scaling-stroke"/><path stroke="#7e7e03" d="M232.12 179.25q-.5 1.56-.25 2.46" vector-effect="non-scaling-stroke"/><path stroke="#7d7d7c" d="M231.92 193.37q-.12.94-1.17 2.2M228.47 178.24q.18-.39-.51-.63M226.18 178.51q-.92.73-.34 1.35M229.22 176.55q-.17.44.04.71.15.2.47.06M230.32 176.91q.27-.17.5-.46a.47.45-46.8 0 0-.01-.56q-.09-.11-.24-.15" vector-effect="non-scaling-stroke"/><path stroke="#7e7e03" d="M225.09 172.28q-.14-1.66-.97-2.27M191.73 239.29l.33 1.49" vector-effect="non-scaling-stroke"/><path stroke="#7d7d7c" d="M215.97 237.06q-.14.57.38.98M204.59 245.7q-.45-.21-.7-.68" vector-effect="non-scaling-stroke"/><path stroke="#fafa7f" d="M239.41 182.04q-.05.81.18 1.1M238.19 184.26q-.4-.37-1.04-.36" vector-effect="non-scaling-stroke"/><path stroke="#7e7e03" d="M255.76 196.8q-1.08.2-1.87 1.31" vector-effect="non-scaling-stroke"/><path stroke="#fafa7f" d="m255.45 203.65-.07 1.13M217.74 236q-.49.55-1.77 1.06" vector-effect="non-scaling-stroke"/><path stroke="#7e7e03" d="M259.26 185.24q-.34 1.15-1.01 1.9M247.9 192.78q.11-1.21.69-1.6M248.56 188.63q-.33-.28-1-.03" vector-effect="non-scaling-stroke"/><path stroke="#fafa7f" d="M162.53 220.04q0-.73.19-1.08" vector-effect="non-scaling-stroke"/><path stroke="#7d7d7c" d="m190.98 253.97-.54 2M157.98 208q-.66.1-.99.46" vector-effect="non-scaling-stroke"/><path stroke="#7e7e03" d="M156.49 208.13q-.23-.98-.7-1.62M143.49 183.86q-.27-1.33-.99-2.02M134.42 188.54q-.58-.54-1.12-.02M132 188.47q-.55-.62-1.26-.12" vector-effect="non-scaling-stroke"/><path stroke="#7d7d7c" d="M127.37 188.18q-.94-.5-1.93-.1M125.01 187.8l.21-1.1" vector-effect="non-scaling-stroke"/><path stroke="#7e7e03" d="M130.08 186.88q.56.39 1.06-.01M133.43 187.05q.57.44.85-.1M136.84 187.68l1.48.81q.4.22.46-.24l.07-.58q.02-.13-.09-.18-.91-.41-1.42-1.03M134.46 181.15l-1.09-1.95" vector-effect="non-scaling-stroke"/><path stroke="#fafa7f" d="M234.97 173.98q.11-.5-.06-1.01" vector-effect="non-scaling-stroke"/><path stroke="#7d7d7c" d="M218.51 236.73q-.93.38-1.66 1.22M198.15 243.54l-1.1 2.37" vector-effect="non-scaling-stroke"/><path stroke="#fafa7f" d="M192.1 266.75q-.08.96.42 1.24" vector-effect="non-scaling-stroke"/><path stroke="#7d7d7c" d="M191.52 270.09q-.53-.19-1.03.03" vector-effect="non-scaling-stroke"/><path stroke="#fafa7f" d="M189.69 268.34q.68-.56.53-1.04" vector-effect="non-scaling-stroke"/><path stroke="#7d7d7c" d="m198.22 255.24-.24 1.36" vector-effect="non-scaling-stroke"/><path stroke="#7e7e03" d="M197.98 256.6q-.39.79-.87.85" vector-effect="non-scaling-stroke"/><path stroke="#fafa7f" d="M198.94 256.07q.29-.58-.96.53" vector-effect="non-scaling-stroke"/><path stroke="#7e7e03" d="M238.55 181.22q-.28 1.25-1.1 2.29M237.31 171.61q.22-1.32-.25-1.42" vector-effect="non-scaling-stroke"/><path stroke="#7d7d7c" d="m267.54 196.94-2.65.54M258.29 204.6l-2.2.46" vector-effect="non-scaling-stroke"/><path stroke="#7e7e03" d="M152.92 212.69q-.41.29-1.13.4" vector-effect="non-scaling-stroke"/><path stroke="#7d7d7c" d="M151.79 213.09q-.91-.26-1.41-.81" vector-effect="non-scaling-stroke"/><path stroke="#7e7e03" d="M147.04 202.06q-1.57-.51-1.26-1.95M141.04 204.96l-.66.82M140.33 205.8q-1.06-.92-1.98-1.21M126.96 203.76l.01 1.02" vector-effect="non-scaling-stroke"/><path stroke="#fafa7f" d="m126.05 205.08-1.7-.31M126.44 196.77q.39-.22 1.35-.28M132.5 191.54q.03.61.44 1.27M151.79 213.09l-.06.3" vector-effect="non-scaling-stroke"/><path stroke="#7d7d7c" d="m122.63 185.24 1.08 1.95" vector-effect="non-scaling-stroke"/><path stroke="#7e7e03" d="m128.86 196.88-1.07-.39" vector-effect="non-scaling-stroke"/><path stroke="#7d7d7c" d="m127.79 196.49-.5-.47" vector-effect="non-scaling-stroke"/><path stroke="#fafa7f" d="M198.16 272.53q-.31.82-1.01 1.19" vector-effect="non-scaling-stroke"/><path stroke="#7d7d7c" d="M191.84 283.32q-.6-.61.05-2.19" vector-effect="non-scaling-stroke"/><path stroke="#7e7e03" d="M184.28 270.73q-.47 1.92.58 2.94" vector-effect="non-scaling-stroke"/><path stroke="#fafa7f" d="M184.76 283.85q-.6-.81-.84-.67" vector-effect="non-scaling-stroke"/><path stroke="#7e7e03" d="M183.8 277.36q.24-1.05-.06-2.39" vector-effect="non-scaling-stroke"/><path stroke="#7d7d7c" d="M191.57 283.8q-.46-.03-1.1.22" vector-effect="non-scaling-stroke"/><path stroke="#7e7e03" d="M198.3 274.98q-.35 1.25-.04 2.26M200.08 279.95q.38-.36.41-.85M204.92 279.98q-.66 1.27-.97.73M201.02 280.68l-.47.77M199.07 283.98q-.18.83-.87 1.81" vector-effect="non-scaling-stroke"/><path stroke="#fafa7f" d="M191.95 296.91q-.05-.83-.29-1.35" vector-effect="non-scaling-stroke"/><path stroke="#7d7d7c" d="m178.09 273.11-.99.1M177.1 273.21l1.08 2.18" vector-effect="non-scaling-stroke"/><path stroke="#7e7e03" d="M178.07 280.68q-.79-.07-1.02-.67" vector-effect="non-scaling-stroke"/><path stroke="#7d7d7c" d="M181.38 279.01q.22.48.6.77M184.88 285.45q-.37.37-.89.57" vector-effect="non-scaling-stroke"/><path stroke="#fafa7f" d="m182.75 285.09.02-1.28" vector-effect="non-scaling-stroke"/><path stroke="#7d7d7c" d="M181.35 281.44q.03-.54-.55-1.02" vector-effect="non-scaling-stroke"/><path stroke="#7e7e03" d="M179.97 281.98q.42.49.75.46M180.22 283.46l-1.2-.49M178.07 282.04l-1.03-.37M176.86 284.83q.35 1.26.23 2.64M176.82 298.8q.2.96 1.27 1.69M178.1 300.93q-.28.67-.83.76M165.56 294.13q.57-.18.19-1.29" vector-effect="non-scaling-stroke"/><path stroke="#fafa7f" d="M165.75 292.84q.01-.05.03-.1" vector-effect="non-scaling-stroke"/><path stroke="#7e7e03" d="M170.29 289.11q.4.09.63-.12.21-.17.15-.54-.13-.78-.71-1.34" vector-effect="non-scaling-stroke"/><path stroke="#7d7d7c" d="M212.78 287.18q-.72.31-1.01 1.91" vector-effect="non-scaling-stroke"/><path stroke="#fafa7f" d="M206.2 299.55q.09.76-.25 1.07" vector-effect="non-scaling-stroke"/><path stroke="#7d7d7c" d="M199.24 312q-1.17 2.48-2.11 1.56" vector-effect="non-scaling-stroke"/><path stroke="#fafa7f" d="M197.19 301.62q.52-.59 1.04-.6" vector-effect="non-scaling-stroke"/><path stroke="#7d7d7c" d="M204.05 300.66q.92-1.13 1-1.73M209.95 277.79q-.13.21-.29.23-.14.02-.27-.14-.16-.18-.29-.44M170.04 288.95q-.16-.95-.91-1.81M209.32 279.2q.07-.13.02-.25-.05-.13-.18-.08-.73.27-1.23.94" vector-effect="non-scaling-stroke"/><path stroke="#7e7e03" d="M204.94 281.8q-.91.09-1.09.94M204.08 284.7q-.24 3.13.75 2.8" vector-effect="non-scaling-stroke"/><path stroke="#fafa7f" d="M205.34 286.5q-.36-.88-.14-1.69" vector-effect="non-scaling-stroke"/><path stroke="#7d7d7c" d="m165.75 292.84-1.48-.78M223.09 281.99l-1.79 1.12M217.75 291.97l-1.79 1.08M190.77 295.94q-.55.26-.35-.65M190.98 296.22l-.63 1.47M164.84 294.08q.02-.82-1.43-1.19M218.6 292.9q-1.23.25-1.68 1.2" vector-effect="non-scaling-stroke"/><path stroke="#7e7e03" d="m216.46 294.04-.61-.77" vector-effect="non-scaling-stroke"/><path stroke="#7d7d7c" d="M190.76 309.82q-.69-.81-.46-.2" vector-effect="non-scaling-stroke"/><path stroke="#7e7e03" d="M184.18 298.74q-.15 2.19.61 2.92M184.79 313.09q-.68-.37-.96-1.88M191.58 311.98q-.46-.07-.91-.3-.5-.25-.22-.74.21-.36.68-.63" vector-effect="non-scaling-stroke"/><path stroke="#7d7d7c" d="M191.54 326.15q-1.12-.71-1.43-2.93M184.95 313.78q-.37.02-.65-.1" vector-effect="non-scaling-stroke"/><path stroke="#7e7e03" d="M184.3 313.68q-1.24-.53-1.46-1.66" vector-effect="non-scaling-stroke"/><path stroke="#fafa7f" d="m184.3 313.68-.32.38" vector-effect="non-scaling-stroke"/><path stroke="#7d7d7c" d="M191.62 337.62q-.03.23-.23.4" vector-effect="non-scaling-stroke"/><path stroke="#fafa7f" d="m190.59 338.02-.58.85M184.87 329.81q-.49-.74-1.07-1.13M198.2 339.15l-.9 1.74" vector-effect="non-scaling-stroke"/><path stroke="#7e7e03" d="M197.15 329.8q1.36-1.48.13-2.38" vector-effect="non-scaling-stroke"/><path stroke="#7d7d7c" d="m191.68 339.6-.59-1.27" vector-effect="non-scaling-stroke"/><path stroke="#fafa7f" d="m184.8 341.21-1.07-1.86" vector-effect="non-scaling-stroke"/><path stroke="#7e7e03" d="M184.93 341.69q-.5.49-.95.42" vector-effect="non-scaling-stroke"/><path stroke="#7d7d7c" d="m199.14 340.01-.96 1.94M191.56 368.1l-1.07.07M190.35 353.82q.23-.89.71-1.54M190.77 352.03q-.33-.12-.47-.44" vector-effect="non-scaling-stroke"/></g><rect width="1.02" height="11.32" x="190.5" y="157.5" fill="#fbfb06" fill-opacity=".996" rx=".49"/><path fill="#f9f9f8" fill-opacity=".996" d="m198.48 163.25-.18 1.69-.18 5.59q0 .13.1.2.11.08.26.06l-1.26 2.08-.11-10.6q0-.85-.4-.1c-1.8 3.41-5.4 8.32-5.27 12.21q.14 4.2 0 7.85a.46.46 0 0 1-.46.44l-.3-.01q-.12 0-.13-.12-.11-4.22.01-8.35.05-2.03-1.18-4.43-2.08-4.04-4.45-8.08.11-.8-1.09-.95-.08-.8-.06-.86.41-1.73 1.27-.16 2.86 5.25 5.56 10.06.3.54.64.01 2.86-4.51 5.17-9.14 1.79-3.61 1.66.42-.01.28.4 2.19"/><path fill="#fbfb06" fill-opacity=".996" d="m184.93 161.68-.07 10.88q-.68-.06-.91-1.48l-.1-5.76q.18-1.14-.17-2.54l.16-2.05q1.2.15 1.09.95"/><path fill-opacity=".996" d="M183.68 162.78q.35 1.4.17 2.54-1.1.99-1.6 2.19-.19.47-.01.94.58 1.5 1.71 2.63.23 1.42.91 1.48l-.03.78q-.44.21-.71.76-.82-.88-1.51-.87-.33-.51-.71-.72-.57-.54-1.2-.8-.47-.2-.74.24l-1.42 2.32q-.07.11-.2.11-.14.01-.23-.09-.31-1.01-.05-1.8 1.35-.27.73-1.98-.1-.27-.3-.38-.32-.16-.54.12l-.7-.73q-.44-.62-1.14-.35-.65-1.3-2.28-1.91l-.86-.65q-.25-.54.07-1.16l4 2.45q.46.38 1.03.54 1.26 2.23 2.46.11a1 .99-44.7 0 0 .01-.96l-2.47-4.38q-.34-1.14-.98-1.53-.04-.59.58-.74a.56.54 67.9 0 1 .61.27l2.8 5.19a.48.48 0 0 0 .85-.02zm-1.41 8.67.23.34q.12.17.14-.04.02-.16-.04-.3-.35-.79-.66-1.54-.38-.93-.76 0-.39.93.47 1.12.4.09.62.42"/><path fill="#f9f9f8" fill-opacity=".996" d="M204.94 167.92q.4-.46-.95-.06l-.09-4.46q0-.1-.08-.04-.11.08-.24.09l-.16-1.5q.15-.67.53-.94a.62.61-17.6 0 1 .97.5z"/><path fill="#fbfb06" fill-opacity=".996" d="M178.07 163.21v5.23q-.57-.16-1.03-.54l.05-6.22q.64.39.98 1.53M203.42 161.95l.16 1.5q-.9 1.99-2.04 3.85-.68 1.09.35 2.06.38.36.86.16 1.15-.47 1.24-1.66 1.35-.4.95.06l4.05-2.45q.55.41.35.97a.63.6 86.4 0 1-.28.33l-1.18.64q-1.3.65-2.14 1.55-.58.01-.85.57-.67-.08-1.08.98-.07-.22-.28-.25-.38-.05-.46.33-.24 1.32.67 2.02l-.06 1.89-1.65-2.6q-.37-.59-.89-.12-.18.16-.42.24-.92.27-.11.78l3.11 1.98q.39.37 1.13.49l4.33 2.96q.25.61-.17 1.15l-3.49-2.12q-.48-.29-.48.28l.01 8.89q-.35 1.29-1 1.75l-.13-11.43q-.01-.56-.47-.87l-3.45-2.3q-1.34-.9-2.12.52l-5.58 10.22-.97-.47q-.19-.66.54-1.2.4-.3.63-.74l4.72-9.04 1.26-2.08 1.23-2.3q.25-.46 0-.93l-1.41-2.62.18-1.69 1.75 3.34a.31.31 0 0 0 .55.01zm-3.06 9.05.29-.08q.74-.19.44-.9-.07-.14-.16-.3-.56-.86-.82.14-.23.92-.89 1.52-.11.11-.15.27-.03.15.03.29.14.35.35.04l.49-.69q.16-.22.42-.29M173.04 165.45q-.32.62-.07 1.16l-.38.44q-.27-1.01-.82-1.81-.28-.41-.28.09l.05 11.47q-1.74-.04.45 3.22-1.49 1.54-2.23 3.32-.37-.38-.94-.57 2.69-3.78.82-6.25l-.41-1.3q-.01-1.86-1.8-1.99.53.01.14-.83-.17-.35-.48-.19c.14-.55.19-1.02-.11-1.55q-1.06-1.83-1.93-3.75-.14-.31-.49-.36l-.79-.78q-.15-.75-.12-.89.4-1.6 1.21-.16 1.43 2.51 2.71 4.94.32.61.73.06 2.24-2.98 2.04-6.05a.77.7 53.8 0 1 .03-.27q.27-.98.76-.86.32.09.48.37zm-2.9 7.31.02-3.35q0-.76-.45-.14-1.55 2.13-.39 3.75.81 1.12.82-.26"/><path fill-opacity=".996" d="M210.82 162.6q.05 1.23-.26 2.2l-3.37 6.3q-.24.46.03.9l3.17 5.07q1.87 1.75-.22 3.21l-4.09 7.08-1.33 2.14-5.12 9.66q-.36.67.28.25l9-5.83q.4-.26.63.16l.13.26a.29.28 60.1 0 1-.1.38l-11.59 7.61-.91-.53q.07-.19.08-.46.74-.75 1.02-1.9l5.88-10.92q.65-.46 1-1.75l3.96-7.05q.42-.54.17-1.15-.9-2.83-2.62-5.09-.3-.39-.56.03l-.87 1.42q-.34-1.21-.07-2.28 1.36-.9.01-1.84-.16-.39-.18-.94.27-.56.85-.57.03.54.16.83.25.58.66.09.88-1.04 1.32-2.47l1.18-.64a.63.6 86.4 0 0 .28-.33q.2-.56-.35-.97z"/><path fill="#fbfb06" fill-opacity=".996" d="m211.83 166.27.02 2.43.1 4.19q.02.63.52.26.66-.48.8-1.91.62-.11.87-.97l3.37-5.87q.32-.56.66-.01.34.53.06 1.83-.55 0-.97.52l-2.55 4.81q-.88.7-.71 1.44-.97.81-1.24 2.19-.83.67-.9 1.8l-.18.32q-.11.33-.04.73-.21 2.42 1.29 4.34.33.42.77.13l1.92-1.25q.22.42.23 1l-1.63 1.21q-.53.39-.22.96l2.82 5.24q.17.32.43.05.17-.19.07-.69.08.92.49.85-.04.36.02.55.15.47.39.04l5.03-8.91q.52.11 1.11-.03l-6 11.22q-.63.32-1.05.03l-4.3-7.91q-.25-.46-.69-.18l-7.57 4.82 1.33-2.14 5.51-3.58q.44-.28.35-.79-.23-1.37-1.77-2.71 2.09-1.46.22-3.21l.17-12.27q.31-.97.26-2.2.83.16.81.4-.12 1.72.2 3.27"/><path fill="#f9f9f8" fill-opacity=".996" d="M164.56 166.55q.17 2.45.11 4.96-.03 1.46 1.72 1.48a.62.62 0 0 0 .6-.43l.1-.35q.31-.16.48.19.39.84-.14.83-.07.86 1.8 1.99l.41 1.3-2.39-1.34q-.47-.26-.74.2l-1.34 2.22q-.73-.05-.88-.92-.23-1.57-.62-2.95c-.46-1.6-1.56-2.21-2.91-2.98l-1.76-.44q-.13-.74-.47-1.13-.43-.51-.44.15l-.09 5.45q-.71.16-1.21-.07.36-1.33-.04-2.68l-.01-2.06.29-3.63a.37.37 0 0 1 .27-.33q.16-.05.33-.03a.68.67-7.5 0 1 .54.41q1.29 3.04 5.01 4.73.51.23.52-.33l.07-5.02zm.69 7.14a.27.27 0 0 0-.45.11q-.23.72.41 1.27.23.2.5.06a.4.4 0 0 0 .18-.54q-.25-.5-.64-.9M224.99 169.41q-.54.16-1.14-.47l-5.1 9.83q-.3.59.26.22l5.02-3.27 1.15-.71q.78-.17 1.08-.94.77-.08 1.06-.6l.3.04.74.92q-.07.03-.14.07-1.4.43-2.32 1.52-.95-.08-.93 1.18-.06 2.38-.89 1.78.11-.73-.08-1.26-.23-.6-.75-.24l-4.1 2.78q-.82.55.16.43l4.8-.56 1.35.04 3.8-.27q.31-.02.57.11.27.13.32.4.05.28-.13.58l-5.66.53q-.59.14-1.11.03l-4.36.3q-.52.03-.53.56-.04 3.24-.06 6.33 0 .62-.49 1.13-.41.07-.49-.85l-.11-6.57q-.01-.55-.56-.49-.36.03-.8.29-.01-.58-.23-1 1.32-1.63 1.47-3.21.27-1.46.03-2.98.25-.76.24-1.56.54-.75 1.08-.47l-.45 2.83q-.11.75.26.09l2.97-5.13 1.55-.96q.55-.34.07-.78l-.32-.3q.74-1.38 1.08-1.93 1.51-2.35 1.35.44-.04.58.04 2.12"/><path fill-opacity=".996" d="M214.14 170.27q-.25.86-.87.97l-1.42-2.54-.02-2.43z"/><path fill="#f9f9f8" fill-opacity=".996" d="m218.23 166.22.04 5.26q-.4.57-.97.45l-.04-5.19q.42-.52.97-.52M172.97 166.61l.86.65 1.61 2.62q.42.69.57-.11l.1-.6q.7-.27 1.14.35-.17.73-.53 1.22-.24-.2-.36.06-.51 1.1.18 1.5.8.87-.07 1.71-.23-.59-.49-.89-.41-.47-.69.09l-2.5 4.95q.39-.25-.26.09-.81-.56-.34-1.46l2.52-4.66q.25-.45.01-.91l-2.13-4.17zM151.51 168.18q-.49 1.3-.19 1.93-.29 3.54.04 5.27.16.81 1.42.99.16.85-.55.88-.54-.48-.78-.03-.83 1.56-.37 2.58l1.48.02 3.28.36q.71.08.11-.32l-2.24-1.49q.2-.6.63-.92.79 1.07 1.77 1.03.61 1.51.59-1.01.19-.15.28-.46.34-.2.62-.08.36.14.49.53-.33 1.31-.03 2.31.16.5.68.55l4.86.49.75.44q.52.31 0 .63-.24.14-.58.19-2.14-.62-4.38-.49-.53.03-.27.5l5.03 9.13-.48 1.5-5.69-10.55a1.21 1.2 83.8 0 0-.72-.58q-2.6-.74-4.7-.59-1.29.09-1.29 1.38l.05 13.46-1.11.28q-.28-1.1-.96-1.85l-5.53-10.21q.44-.35.91-.52l5.12 9.34q.49.88.47-.12l-.21-11.36.14-2.01.03-2.67q.01-.54-.42-.84l-2.67-1.89q.13-.37.12-.94l2.67 1.61q.56.33.51-.32-.19-2.8-.21-5.81-.01-.9.87-.74.32.06.37.16.04.08.09.24"/><path fill-opacity=".996" d="M231.92 174.99q-.31.64.1.98-.51 1.76.1 3.28-.5 1.56-.25 2.46l.05 11.66q-.12.94-1.17 2.2-.02-6.49-.09-12.85c0-.73-.27-1.15-.64-1.73q.18-.3.13-.58-.05-.27-.32-.4-.26-.13-.57-.11.29-.85-.79-1.66.18-.39-.51-.63.15-.63-.02-1.06-.22-.54-.65-.13-.91.89-1.11 2.09-.92.73-.34 1.35-.23.07-.38.31l-1.35-.04-.03-1.15q.83.6.89-1.78 1.18.47.93-1.18.92-1.09 2.32-1.52-.15 1.19 1 2.05-.17.44.04.71.15.2.47.06.13.94.65 1.49.41.43.53-.16.23-1.09-.59-1.74.27-.17.5-.46a.47.45-46.8 0 0-.01-.56q-.09-.11-.24-.15l.19-4.97q.03-.74-.33-.09l-2.07 3.75-.74-.92 2.87-5.42q.19-.37.61-.37.16 0 .31.07.44.2.44.68z"/><path fill="#fbfb06" fill-opacity=".996" d="m156.74 169.97.01 2.06c-1.05.96-.57 2.39-1.1 2.9q-.69.67.19.28.48-.21.95-.5.5.23 1.21.07-.09.4.02.78a1.19 1.15-85.1 0 0 .6.74q1.96.98 3.33 2.1 2.55 2.09.98-.81l-3.93-7.28 1.76.44 3.53 5.93q.15.87.88.92-.57 1.46 1.15 3.51l-.6.87q-.37-.07-.63-.03-.44.07-.44.52l.04 6.51q.01 1.58.76.19l2.81-5.21q.49-.14.94.4-1.63 2.9-3.15 5.74-1.23 2.31-1.34 4.8-.19 4.57.12 9.27-.25.86.07 2.05l-.14.34q-.57.39-1.07.36l-5.54-10.33q.32-.1.35-1.39l4.99 9.02q.34.61.33-.09l-.15-11.42.48-1.5-.38-9.14q.34-.05.58-.19.52-.32 0-.63l-.75-.44q-2.5-1.82-4.97-3.49-.16-.1-.28-.08-.17.04-.26.22-.13-.39-.49-.53-.28-.12-.62.08.05-.43-.23-.76-.55-.63-.66.6a.58.58 0 0 0 .12.43q.22.27.49.19.02 2.52-.59 1.01.31-.6-.27-.87-.84-.38-1.05-.87-.62-1.43-.78.12-.02.2.33.59-.43.32-.63.92-.76-.68-1.15 1.45l-1.48-.02q.98-1.22 1.15-2.55.71-.03.55-.88.65-.25.91-.8.21-.45-.04-1.12-.83-2.25-2.33-4.34-.3-.63.19-1.93l2.74 4.87q.28.51.58.01z"/><path fill-opacity=".996" d="m222.52 168.78.32.3q.48.44-.07.78l-1.55.96-2.78 2.21q-.54-.28-1.08.47-.76.19-1.08.94-.22.52.29.76.32.15.55-.14.24 1.52-.03 2.98l-1.52-2.66a.7.7 0 0 0-1-.23l-2.71 1.83q.07-1.13.9-1.8 1.05-.6 1.91-1.63a1.47 1.46-76.5 0 1 .81-.5q1.17-.27 1.82-1.12.57.12.97-.45z"/><path fill="#fbfb06" fill-opacity=".996" d="M147.21 173.04q.01.57-.12.94l3.06 5.4-.14 2.01-5.11-9.1q-.28-.48-.28.08l.01 11.16q-.47.17-.91.52-.14-.05-.23-.19-.27-1.33-.99-2.02l-5.46-10.15q-.25-.48.28-.54l.33-.04q.15-.02.22.11l5.29 9.62q.42.75.42-.11l-.03-10.16q0-.37.09-.72.23-.87.7-.56.15.1.23.26 1 2.1 2.64 3.49"/><path fill-opacity=".996" d="m224.99 169.41 2.33 4.06q-.29.52-1.06.6-.41-2.02-1.17-1.79-.14-1.66-.97-2.27.07-.43-.27-1.07.6.63 1.14.47M238.55 181.22q-.28 1.25-1.1 2.29.05-5.93.08-11.78 0-.11-.11-.12h-.11q.22-1.32-.25-1.42.15-.68.5-.9a.56.56 0 0 1 .85.47z"/><path fill="#fbfb06" fill-opacity=".996" d="m177.95 170.25.11 2.24q-.26.79.05 1.8-.03.17.02.31.13.33.42.14l3.35-2.23q.38.21.71.72l-4.05 2.79q-.42.29-.43.8l-.15 11.49q-.89-.82-.92-1.82l.03-9.16a.29.29 0 0 0-.45-.25l-3.58 2.31-.53-1.14q.65-.34.26-.09l3.85-2.35q.49-.3.26-.83l-.43-.97q.87-.84.07-1.71.52-.64.18-1.56.36-.49.53-1.22z"/><path fill="#f9f9f8" fill-opacity=".996" d="M204.89 169.53q.02.55.18.94-.22.92-.01 1.84-.27 1.07.07 2.28l-.28.68q-.74-.12-1.13-.49l-.04-.28.06-1.89q.57-.91.07-2.1.41-1.06 1.08-.98"/><path fill="#fbfb06" fill-opacity=".996" d="m225.09 172.28.09 2.73-1.15.71.09-5.71q.83.61.97 2.27M237.31 171.61l-5.44 10.1q-.25-.9.25-2.46l2.85-5.27q.11-.5-.06-1.01 1.36-1.09 2.15-2.78.47.1.25 1.42M239.41 182.04q-.05.81.18 1.1-.8.42-1.4 1.12-.4-.37-1.04-.36.17-.61.3-.39.82-1.04 1.1-2.29l5.51-9.81a.51.51 0 0 1 .69-.2l.22.12q.22.12.1.35z"/><path fill-opacity=".996" d="M214.71 171.55q.29.53.32 1.02.03.61-.57.56-.22-.02-.46-.14-.17-.74.71-1.44"/><path fill="#f9f9f8" fill-opacity=".996" d="M234.91 172.97q.17.51.06 1.01l-2.95 1.99q-.41-.34-.1-.98zM184.83 173.34l5.91 10.67a.2.17 80.1 0 0 .11.09q.34.12.48-.25l.97.47-.79 1.71-.99-.03-6.4-11.9q.27-.55.71-.76"/><path fill-opacity=".996" d="M142.5 181.84q.72.69.99 2.02l-8.85-5.72q-.92-.6-.38.36 2.05 3.67 4 7.47.91 1.78 2.99 3.19 3.88 2.62 8 5.1.68.75.96 1.85-5.31-3.38-10.52-6.77-1.48-.97-5.27-.8-.58-.54-1.12-.02-.79-.77-1.3-.05-.55-.62-1.26-.12-1.69-.55-3.37-.17-.94-.5-1.93-.1l-.43-.28.21-1.1 4.86.18q.56.39 1.06-.01 1.41.84 2.29.18.57.44.85-.1 1.23.92 2.56.73l1.48.81q.4.22.46-.24l.07-.58q.02-.13-.09-.18-.91-.41-1.42-1.03l-2.88-5.31-1.09-1.95-1.34-2.65q-.24-.48.21-.76.13-.09.3-.11.2-.03.42.12 4.63 3.09 9.54 6.04"/><path fill="#f9f9f8" fill-opacity=".996" d="M230.57 175.74q.15.04.24.15a.47.45-46.8 0 1 .01.56q-.23.29-.5.46l-.59.41q-.32.14-.47-.06-.21-.27-.04-.71zM248.49 180.2q-.59.44-.8.91l-2.98 4.95q-.29.49.23.27 1.47-.62 2.65-1.81l.95-.36q3.02-2.05 6.07-3.68.31-.16.48.79-1.23.45-1.89 1.2-2.19 1.15-4.01 2.56-.45.35-.55.73-.11.46 0 .97-.09.34-.41.48-.36.15-.74-.31.32-.33.33-.5.01-.2-.36-.12-1.21.26-2.19 1.27-1.03.38-1.66 1.15-5.1 2.97-10.03 6.36-2.34 1.62-3.31 3.52-1.9 3.75-3.86 7.28-.53.95.38.36 4.33-2.79 8.86-5.83.18-.12.39-.11.25.02.4.19.35.39.09.86l-5.07 9.19q-.54.99.4.37 3.36-2.22 6.88-4.34 1.85-1.12 3.21-3.44 3.04-5.18 5.67-10.54l.28.21.49.74-5.44 10.09q-.79.76-1.3 2.18l-9.7 6.19q-.49.32.09.27l11.22-.83q.43-.03.4.39l-.02.32q-.02.23-.26.25-5.9.49-11.65.87-2.01.13-3.45 1.1-4.33 2.92-8.5 5.51-1.63 1.01-2.52 2.7-2.14 4.06-4.2 7.84-.56 1.03.43.39l8.8-5.75a.58.58 0 0 1 .89.53q-.03.31-.23.72l-1.38.46-10.1 6.51-.94-.37.08-11.24q.01-.89-.41-.11l-5.27 9.72q-1.04.15-.99-.5.09-1.17.04-2.29.09-3.43-.94-1.67-.68.19-1.28.67l-3.79 2.54q-.51-.2-.88-.56l-.05-11.01q0-.6-.29-.07l-5.12 9.42q-.73.24-1.01-.06-.02-1.09.3-1.94 1.04-.78 1.32-1.31 2.46-4.62 4.67-8.6 1.13-2.02 1.24.29l.13 2.75q-.33 1.27 0 2.35l.02 5.79q.23-.56.22.76-.09.14.03.25.07.06.16.03 1.41-.48 2.59-1.76.41.04.62-.36 1-.3 1.65-1.02.34-.38.34-.89l.03-5.05q.31-1.07.96-.99l-.01 5.67q0 .32.29.2 3.98-1.7 5.17-4.83.13-.35.51-.38.43-.04.69.29.21.27.19.65-.24 5.53-.11 11.17 0 .07.03.12.06.11.22.1.07-.01.04-.08-.1-.29.04-.57 1.92-3.84 4.35-7.94 1-1.68 1-4.06-.01-5.68.05-11.45l.75-.23q.06.15.15.22l.08 11.12q-.48 1.04-.55 2.06a.36.35 73.2 0 0 .57.31q.68-.53.75-1.19 3.83-2.56 7.75-5.08 2.4-1.54 3.3-3.24 2.18-4.1 4.43-8.11.4-.7-.29-.26l-9.51 6.15q-.43-.1-.83-.37l.05-.98q1.03-.11 1.23-1.6l5.51-10.15q1.05-1.26 1.17-2.2l5.23-9.47q.64-.01 1.04.36l-5.01 9.38q-.43.8.32.28 3.48-2.41 7.21-4.65 2.07-1.24 3.15-3.42 1.91-3.86 4.05-7.51.46-.78-.3-.29l-8.02 5.09q-.23-.29-.18-1.1l9.72-6.22q.45-.28.79.12.32.37.04.82-1.19 1.94-1.47 3.44m-42.96 47.95 2.03-3.79q.34-.65-.34-.4-3.04 1.1-2.2 4.13.18.68.51.06"/><path fill-opacity=".996" d="m171.54 176.8.65-.01q-.47.9.34 1.46l.53 1.14 4 7.1q.03 1 .92 1.82l5.58 10.5q.04.09.14.12l.27.07q.16 1.38.88 1.8-.06.61.19.85-1.72-.21-2.36-1.95-1.99-4.06-4.18-7.89-1.32-2.3-3.46-3.77-2.81-1.93-5.84-3.68-.45-.54-.94-.4-1.03-1.22-2.54-1.98l.6-.87 2.5 1.66q.57.19.94.57l5.5 3.57q.98.64.4-.38l-3.67-6.51q-2.19-3.26-.45-3.22M211.68 177.3l-.04.73q-.07-.4.04-.73"/><path fill="#f9f9f8" fill-opacity=".996" d="M227.96 177.61q.69.24.51.63l-2.63 1.62q-.58-.62.34-1.35.93-.65 1.78-.9"/><path fill="#fbfb06" fill-opacity=".996" d="M134.46 181.15q-.95 3.97 2.88 5.31.51.62 1.42 1.03.11.05.09.18l-.07.58q-.06.46-.46.24l-1.48-.81q-.86-.89-1.83-1.34-.45-.21-.64.25-.07.15-.09.36-.28.54-.85.1l-.1-1.31a1.05 1.04-75.7 0 0-.46-.79l-3.53-2.33q-.69-.46-.3.27l2.1 3.98q-.5.4-1.06.01-1.48-2.63-3.03-5.29a1.14 1.08 49.6 0 1 .07-1.25q.13-.18.48.04 2.78 1.71 5.47 3.51a.25.24 15.8 0 0 .38-.21l-.08-4.48zM248.49 180.2l.05 3.96-.95.36.1-3.41q.21-.47.8-.91"/><path fill-opacity=".996" d="m255.09 181.27-2.82 5.26q-.24.47.28.51 3.83.3 6.71-1.8-.34 1.15-1.01 1.9l-9.86 6.38-.49-.74q.11-1.21.69-1.6 2.11-3.88-.03-2.55-.33-.28-1-.03l-3.95.1q.63-.77 1.66-1.15 1.18.57 2.22-.65.38.46.74.31.32-.14.41-.48.41.74 1.27.55.53-.11.97-.71 1.33-1.86 2.32-4.1.66-.75 1.89-1.2m-.65 7.12q.38-.24-.07-.32-3.54-.65-4.31 2.54-.15.65.41.3zM122.63 185.24l1.08 1.95 5.15 9.69-1.07-.39-.5-.47-5.5-10.13a.51.51 0 0 1 .21-.7q.51-.27.63.05"/><path fill="#fbfb06" fill-opacity=".996" d="M255.76 196.8q-1.08.2-1.87 1.31l-9.5 6.09q-.52.33.1.29l10.96-.84-.07 1.13-13.73 1.01q.51-1.42 1.3-2.18l9.27-5.94a2.35 2.3 88.2 0 0 .81-.88l5.22-9.65q.67-.75 1.01-1.9.46-.17.59-.09a.7.67 31.8 0 1 .23.89l-4.99 9.19q-.56 1.03.42.4l8.95-5.8q.29-.19.45.13l.12.26q.18.35-.16.57z"/><path fill="#f9f9f8" fill-opacity=".996" d="m122.63 185.24 2.59 1.46-.21 1.1q-.57-.59-1.3-.61z"/><path fill-opacity=".996" d="m191.51 186.03-.01 10.26q0 .28-.27.28l-.46-.01a.29.28 0 0 1-.29-.28l.04-10.28z"/><path fill="#fbfb06" fill-opacity=".996" d="M184.16 186.3q-.25 2.26.66 3.2l.03 11.3q-.72-.42-.88-1.8z"/><path fill-opacity=".996" d="m198.1 187.67-.93 1.91-5.67 10.46q-.46-.24-.98-.01l-5.7-10.53q-.91-.94-.66-3.2l6.22 10.78q.71 1.22 1.41 0 3-5.27 5.32-9.67a.53.53 0 0 1 .86-.11q.07.08.13.37"/><path fill="#fbfb06" fill-opacity=".996" d="M198.17 199.1q-.28 1.15-1.02 1.9l.02-11.42.93-1.91z"/><path fill="#f9f9f8" fill-opacity=".996" d="m127.37 188.18 5.13 3.36q.03.61.44 1.27l-7.5-4.73q.99-.4 1.93.1"/><path fill="#fbfb06" fill-opacity=".996" d="m132 188.47 1.1 1.74q.36.57.31-.1l-.11-1.59q.54-.52 1.12.02c-.1 2.31-.12 3.97 1 6.12q2.72 5.19 5.62 10.3l-.66.82q-.02.01-.05.02-1.06-.92-1.98-1.21-3.87-2.64-7.65-5.05-2.31-1.48-4.28-1.57-4.41-.21-8.72-.7-.93-.1-.15.41l9.41 6.08.01 1.02-.92.3-1.7-.31-11.42-.98q-.17-.02-.21-.18l-.12-.48q-.1-.42.33-.39l10.05.74q.59.05 1.1.36.26.16.58.22.49.1.09-.21-4.68-3.48-9.61-6.3-.44-.25-.42-.77 0-.17.07-.32.22-.45.72-.42l10.93.73q.39-.22 1.35-.28l1.07.39 9.46 6.21q.54.35.23-.21l-5.61-10.07q-.41-.66-.44-1.27l-1.76-3.19q.71-.5 1.26.12M248.56 188.63l.03 2.55q-.58.39-.69 1.6l-.28-.21-.06-3.97q.67-.25 1 .03"/><path fill="#f9f9f8" fill-opacity=".996" d="m127.29 196.02.5.47q-.96.06-1.35.28l-9.39-6.14a.27.27 0 0 1-.08-.37l.15-.22q.23-.35.58-.12z"/><path fill-opacity=".996" d="M218.36 192.74q-.08 4.78.01 9.47.01.52-.22 1.02-.74 1.64.28 1.13l-.32 2.33-.75.23-6.59-12.23a.26.24 51.2 0 1 .02-.29l.23-.29q.37-.47.66.06l4.72 8.75q.82 1.5.83-.21l.08-9.94q.42.29 1.05-.03"/><path fill="#f9f9f8" fill-opacity=".996" d="M182.68 199.7q.64 1.74 2.36 1.95l5.69 10.04q.27.48.54 0l5.8-10.23.91.53q-2.95 5.16-5.57 10.38-.93 1.83-.88 4.02.09 4.75-.37 9.34-.25.12-.41.18-.32.13-.41-.19-.04-.16.01-.32.24-4.58.15-9.07-.06-2.77-1.14-4.65-2.2-3.85-4.32-7.95-1.06-2.07-3.06-3.29-4.9-3-9.52-6.16-.15-.1-.08-.28l.12-.28q.18-.42.56-.17zM158.5 195.2q-.03 1.29-.35 1.39l-.14 10.75q-.85.04-1.17-1.72.19-6.09.16-10.81-.01-1.89 1.13-.39.18.23.37.78"/><path fill="#fbfb06" fill-opacity=".996" d="M225.24 205.72q-.2 1.49-1.23 1.6l-.04-10.07q0-.93-.44-.11l-5.27 9.77q-.09-.07-.15-.22l.32-2.33 4.8-8.81q1.92-3.53 1.78.49-.14 3.8.23 9.68"/><path fill-opacity=".996" d="M164.9 206.22q-.32-1.19-.07-2.05l5.41-9.86a.36.36 0 0 1 .49-.15l.24.13a.29.28-62.6 0 1 .12.39zM151.32 195.83l5.52 9.79q.32 1.76 1.17 1.72-.08.24-.03.66-.66.1-.99.46-.32-.13-.5-.33-.23-.98-.7-1.62l-5.58-10.4zM267.54 196.94l-2.65.54-11 .63q.79-1.11 1.87-1.31 5.21.05 9.98-.62.88-.12.99-.07.36.18.81.83"/><path fill="#f9f9f8" fill-opacity=".996" d="m267.54 196.94-9.89 6.54q-.78.51.14.36 5.32-.9 11.37-1.01.29 0 .25.28l-.04.33q-.04.28-.32.3l-10.76.86-2.2.46q-.22-.15-.71-.28l.07-1.13 9.44-6.17zM191.5 200.04l-.01 10.41q0 .32-.32.28l-.38-.03q-.28-.03-.28-.32l.01-10.35q.52-.23.98.01"/><path fill="#fbfb06" fill-opacity=".996" d="M155.79 206.51q.47.64.7 1.62l-9.45-6.07q-1.57-.51-1.26-1.95z"/><path fill-opacity=".996" d="M145.78 200.11q-.31 1.44 1.26 1.95l5.88 10.63q-.41.29-1.13.4-.91-.26-1.41-.81l-10-6.5.66-.82 8.97 5.77q1.02.66.44-.4l-4.9-8.89a.97.96-47.2 0 1-.03-.88q.1-.21.26-.45M138.35 204.59q.92.29 1.98 1.21l-13.36-1.02-.01-1.02zM258.29 204.6l9.78 4.88a.26.25 19.5 0 1 .14.28l-.06.28q-.1.48-.54.27l-11.52-5.25z"/><path fill="#f9f9f8" fill-opacity=".996" d="m126.05 205.08-11.8 5.29q-.23.1-.31-.14l-.16-.43q-.06-.19.12-.28l10.45-4.75z"/><path fill-opacity=".996" d="M164.76 206.56q-.2 5.72-.04 11.41.08 2.54 1.23 4.77 2.05 3.97 4.39 7.85l.75 1.62q.13.44-.15.71-.32.3-.59.14-.1.12-.34-.24-.16-.8-.67-1.55l-5.5-10.26q1.19-.21-.23-2.7l.08-11.39q.5.03 1.07-.36"/><path fill="#f9f9f8" fill-opacity=".996" d="m157.98 208 5.63 10.31q1.42 2.49.23 2.7l-1.31-.97q0-.73.19-1.08l-5.73-10.5q.33-.36.99-.46"/><path fill-opacity=".996" d="M223.96 208.3q.4.27.83.37-2.41 4.63-4.95 9.19-.51.92-1.16.27z"/><path fill="#f9f9f8" fill-opacity=".996" d="M150.38 212.28q.5.55 1.41.81l-.06.3-12.91-.99q-.43-.03-.4-.46l.02-.28a.22.22 0 0 1 .24-.2z"/><path fill="#fbfb06" fill-opacity=".996" d="m152.92 212.69 9.8 6.27q-.19.35-.19 1.08l-10.8-6.65.06-.3q.72-.11 1.13-.4"/><path fill-opacity=".996" d="M190.35 225.4q-.05.16-.01.32.09.32.41.19.16-.06.41-.18l-.24.06q-.32.85-.3 1.94-.07.15-.13.31l-5.25-9.6q-.29-.53-.29.08v11.18q-1.43-.16-2.34-1.94-.36-2.04-1.52-2.25-.3-.44-.37-1.13l-2.64-4.97q-.34-1.69-1.03-1.47-.03-.39.08-.57a.72.72 0 0 1 1.26.06q1.39 2.81 3.05 5.57 0 .62.58.78.33 1.56 1.4 2.72.38.42.38-.15l-.04-5.39q.35-1.36-.01-2.13-.04-1.72.08-2.59.31-2.16 1.36-.25z"/><path fill="#fbfb06" fill-opacity=".996" d="M204.9 218.03q-.65-.08-.96.99l-2.96 5.69q-.13.15-.11.31-.5.57-1.38 2.23-.3.56-.97.57.01-1.32-.22-.76l1.76-3.17q.35-.35.36-.81 1.94-2.89 3.24-5.73a.71.71 0 0 1 1.26-.05q.11.22-.02.73"/><path fill="#f9f9f8" fill-opacity=".996" d="M178.08 219.41q.02 2.37 0 4.54c-.01.9.47 1.39 1.25 1.66q.53.18.82-.29l.57-.94q.07.69.37 1.13-.26.22-.29.49-.03.21.19.46.64.75 1.62 1.3.91 1.78 2.34 1.94l5.88 10.58.67 1.69-.46 11.65q-.17.18-.32.22-.22.07-.3-.14-.1-.28-.06-.29.28-4.92.09-9.54-.11-2.47-1.13-4.24-2.37-4.11-4.46-8.17c-1.01-1.95-2.85-3.05-4.75-4.06q-.51-.3-1.12-.2.09-.43.02-.71-.14-.54-.53-.15-1 1-.26 2.52-.18.83.02 1.96-.27 5.8-.15 11.77.06 2.81 1.13 4.68 2.13 3.71 3.96 7.12.61 1.14.61-.15v-10.37q0-.63.62-.55.12.01.26-.14-1.12.81.2 2.45l.12 12.16-.94.24-1.03-.78q.27-1.16-.24-1.41-2.23-4.24-4.46-8.3-1.13-2.04-3.03-3.32-5.4-3.62-10.64-6.44-.89-.59-1.15-.98l-9.44-6.22a.35.35 0 0 1-.1-.48l.13-.21a.44.44 0 0 1 .6-.13l9.57 6.13q.48.33 1.25.13.43.87.65 1.03 4.65 3.29 9.8 6.34.17.17.45.26.45.14.66-.28.17-.35-.16-.74l.03-11.81q.34-1.37.03-2.18l.04-2.78q.01-.53-.44-.82l-2.48-1.58q-.61-.61-1.42-.48-.04-.15-.16-.25.11-.72.46-1.23l3.6 2.25q.46.29.46-.26l.02-5.55q.69-.22 1.03 1.47"/><path fill-opacity=".996" d="M218.68 218.13q.4.51.43 1.08-.07.66-.75 1.19a.36.35 73.2 0 1-.57-.31q.07-1.02.55-2.06.26.16.34.1"/><path fill="#f9f9f8" fill-opacity=".996" d="m171.31 218.65.1 2.38-.05 11.49q-.08-.16-.27-.31l-.75-1.62q.09-5.6-.03-11.08-.02-.86 1-.86"/><path fill-opacity=".996" d="M172.97 221.5q-.35.51-.46 1.23-.39-1.03-1.1-1.7l-.1-2.38z"/><path fill="#fbfb06" fill-opacity=".996" d="M183.75 218.83q.36.77.01 2.13l-1.74 2.82q-.58-.16-.58-.78z"/><path fill-opacity=".996" d="M200.42 223.08q-.01.46-.36.81-1.06-.92-1.42-2.42-.02-.08-.11-.11-.12-.03-.25-.09-.33-1.08 0-2.35zM174.09 223.46l2.88 5.18q.31.81-.03 2.18l-4.27-7.84q.81-.13 1.42.48M200.98 224.71q.98.06.94 1.27-.21.4-.62.36-.33-.6-.43-1.32-.02-.16.11-.31"/><path fill="#fbfb06" fill-opacity=".996" d="M169.34 231.27q.51.75.67 1.55l-8.73-5.65q-.91-.59-.39.37l4.62 8.48q-.77.2-1.25-.13l-5.34-10.39a.43.43 0 0 1 .62-.56zM222.95 226.29l-5.21 9.71q-.49.55-1.77 1.06l5.6-10.31z"/><path fill-opacity=".996" d="M203.04 226.8q-.25 1.45.94 1.67.05 1.12-.04 2.29-.05.65.99.5l.03 10.57a.31.3 59.5 0 0 .57.15l5-9.09.94.37-5.22 9.43q-.65 1.19.48.44l9.24-6.07q-.14.57.38.98l-11.76 7.66q-.45-.21-.7-.68.07-5.89 0-11.82c-.03-2.38-.91-3.84-2.13-5.73q.6-.48 1.28-.67"/><path fill="#fbfb06" fill-opacity=".996" d="m180.11 227.4-1.87 3.42q-.2-1.13-.02-1.96.68-.67.77-1.66.61-.1 1.12.2M191.63 227.79l.1 11.5.33 1.49-.56 1.19-.67-1.69-.34-12.24q.06-.16.13-.31.28.3 1.01.06"/><path fill-opacity=".996" d="M197.09 229.45q.37.36.88.56l-5.91 10.77-.33-1.49z"/><path fill="#f9f9f8" fill-opacity=".996" d="M218.51 236.73q-.93.38-1.66 1.22-.18-.05-.5.09-.52-.41-.38-.98 1.28-.51 1.77-1.06l9.72-6.28q.2-.13.33.07l.26.42q.12.2-.08.33z"/><path fill="#fbfb06" fill-opacity=".996" d="m171.36 232.52 5.55 10.11q.33.39.16.74-.21.42-.66.28-.28-.09-.45-.26l-5.61-10.33q.27.16.59-.14.28-.27.15-.71.19.15.27.31M163.5 236.8q.26.39 1.15.98l-12.5-.8q-.36-.02-.32-.37l.04-.31q.03-.34.37-.31z"/><path fill-opacity=".996" d="M216.85 237.95q.73-.84 1.66-1.22l11.39-.66q.3-.02.29.29l-.01.36a.26.26 0 0 1-.25.25zM190.36 253.41q-.04.01.06.29.08.21.3.14.15-.04.32-.22l-.06.35-.54 2-5.57-10.34q-1.32-1.64-.2-2.45z"/><path fill="#f9f9f8" fill-opacity=".996" d="m198.15 243.54-1.1 2.37q-2.45 4.1-4.48 8.08-1.19 2.35-1.13 4.35.14 4.12.02 8.48-.01.42.38.3.2-.06.26-.37-.08.96.42 1.24l-1 2.1q-.53-.19-1.03.03l-.8-1.78q.68-.56.53-1.04l.25-.04.27.76q.07.2.28.17.16-.03.26-.12a.33.33 0 0 0-.03-.51q-.29-.22-.78-.3l-.03-11.29.54-2c.43-.71.96-.93 1.37-1.69q2.33-4.31 4.77-8.75a.65.64 22.8 0 1 .75-.3q.06.01.28.31"/><path fill-opacity=".996" d="m198.22 255.24-.24 1.36q-.39.79-.87.85l-.06-11.54 1.1-2.37z"/><path fill="#f9f9f8" fill-opacity=".996" d="M203.89 245.02q.25.47.7.68l-5.65 10.37q.29-.58-.96.53l.24-1.36z"/><path fill="#fbfb06" fill-opacity=".996" d="M182.78 255.84q.51.25.24 1.41l-10.38-6.74q-.41-.26-.14-.67l.14-.21q.14-.21.35-.07zM192.52 267.99q-.5-.28-.42-1.24l5.01-9.3q.48-.06.87-.85 1.25-1.11.96-.53l9.85-6.42a.52.52 0 0 1 .72.14l.16.23q.16.24-.08.39l-10.42 6.77a5.44 5.41-2.3 0 0-1.78 1.92zM184.99 257.79l5.23 9.51q.15.48-.53 1.04l-5.64-10.31z"/><path fill-opacity=".996" d="m191.52 270.09-.01 10.4q0 .27-.27.27l-.47.01q-.3.01-.3-.29l.02-10.36q.5-.22 1.03-.03"/><path fill="#f9f9f8" fill-opacity=".996" d="M198.16 272.53q-.31.82-1.01 1.19l-5.31 9.6q-.6-.61.05-2.19l5.24-9.61a.56.56 0 0 1 1 .03q.13.31.03.98"/><path fill="#fbfb06" fill-opacity=".996" d="M184.28 270.73q-.47 1.92.58 2.94l-.1 10.18q-.6-.81-.84-.67l-.12-5.82q.24-1.05-.06-2.39-.17-1.92.54-4.24"/><path fill-opacity=".996" d="M191.89 281.13q-.65 1.58-.05 2.19-.06.27-.27.48-.46-.03-1.1.22l-5.61-10.35q-1.05-1.02-.58-2.94 3.16 5.37 5.63 10.04.71 1.35 1.98.36"/><path fill="#fbfb06" fill-opacity=".996" d="m198.16 272.53.14 2.45q-.35 1.25-.04 2.26l-.04 5.08q-.01 1.61.67.15l1.19-2.52q.38-.36.41-.85 1.68-2.56 2.5-4.3 1.94-4.11 1.93.44v4.74q-.66 1.27-.97.73l-.07-4.29q-.02-1.36-.64-.14l-2.22 4.4-.47.77-1.48 2.53q-.18.83-.87 1.81l-6.25 11.12q-.05-.83-.29-1.35 2.3-4.04 4.41-8.13 1.06-2.06 1.09-4.41.06-4.59-.01-9.3.7-.37 1.01-1.19"/><path fill-opacity=".996" d="m178.09 273.11-.99.1q.43-.13.99-.1"/><path fill-opacity=".996" d="m177.1 273.21 1.08 2.18-.11 5.29q-.79-.07-1.02-.67z"/><path fill="#f9f9f8" fill-opacity=".996" d="m178.09 273.11 3.29 5.9q.22.48.6.77.57 2.29 1.94 3.4.24-.14.84.67l.12 1.6q-.37.37-.89.57l-1.24-.93.02-1.28-1.42-2.37q.03-.54-.55-1.02l-2.62-5.03-1.08-2.18z"/><path fill="#fbfb06" fill-opacity=".996" d="M177.05 280.01q.23.6 1.02.67.63.86 1.9 1.3.42.49.75.46.91.99 2.05 1.37l-.02 1.28-2.53-1.63-1.2-.49-.95-.93-1.03-.37q-.98-1.09-2.36-1.71-.52-.24-.25.26l2.43 4.61q.35 1.26.23 2.64l-5.34-9.7q-.43-.78-.41.11.08 4.46 0 9.02-.03 1.87 1.3 4.25 2.14 3.82 4.18 7.65.2.96 1.27 1.69-.07.19.01.44-.28.67-.83.76l-11.71-7.56q.57-.18.19-1.29.01-.05.03-.1l9.57 6.34q.51.34.22-.2l-5.28-9.77q.4.09.63-.12.21-.17.15-.54-.13-.78-.71-1.34l-.04-11.61q0-.42.38-.59.15-.07.32-.08.39-.03.55.33 1.54 3.41 5.48 4.85"/><path fill="#f9f9f8" fill-opacity=".996" d="M212.78 287.18q-.72.31-1.01 1.91-2.98 4.89-5.69 10.24-.05.09.03.16.04.03.09.06.09.76-.25 1.07-3.68 4.7-6.71 11.38-1.17 2.48-2.11 1.56l.06-11.94q.52-.59 1.04-.6l.21 9.59q.01.6.29.07l5.32-10.02q.92-1.13 1-1.73 2.15-3.82 4.15-7.46 1.42-2.58 1.43-4.59.01-4.65-.03-9.25-.01-.68-.42-.13l-.23.29q-.13.21-.29.23-.14.02-.27-.14-.16-.18-.29-.44l1.24-2.24q.25-.45.75-.36.16.03.29.11.32.2.31.57-.11 5.71-.06 11.25 0 .15.1.26.18.18.16-.07-.03-.4.16-.76 2.43-4.57 5.32-9.65a.23.23 0 0 1 .31-.09l.3.17q.34.19.16.54z"/><path fill-opacity=".996" d="M183.74 274.97q.3 1.34.06 2.39l-1.82 2.42q-.38-.29-.6-.77l.24.08q.06.02.09-.04zM200.18 279.16q-.48.32-.79.18-.22-.1-.3-.58-.19-1.04-.83-1.52-.31-1.01.04-2.26 1.37 2.06 1.88 4.18M170.36 287.11q.58.56.71 1.34.06.37-.15.54-.23.21-.63.12-.12-.08-.25-.16-.16-.95-.91-1.81l-5.36-10.08q-.11-.22.1-.34l.22-.13q.43-.25.67.19zM209.1 277.44q.13.26.29.44.13.16.27.14.16-.02.29-.23-.12.85-.63 1.41.07-.13.02-.25-.05-.13-.18-.08-.73.27-1.23.94-2 .66-2.99 1.99-.91.09-1.09.94-.08-.13-.15-.22-.21-.24-.36.05-.83 1.66.74 2.13-.24 3.13.75 2.8l.22 11.43q-.08.6-1 1.73-.23-5.85-.13-11.5c.03-2.18-.86-3.3-1.77-5.06q-.29-.54-.81-.23l-3.14 1.92q.69-.98.87-1.81 1.05-.4 1.78-1.16.37-.38.24-.89-.12-.47-.54-.48l.47-.77 1.08.9q.39.32.78 0l1.07-.87q.31.54.97-.73 2.22-.84 4.18-2.54"/><path fill="#f9f9f8" fill-opacity=".996" d="m209.32 279.2-3.98 7.3q-.36-.88-.14-1.69l2.73-5q.5-.67 1.23-.94.13-.05.18.08.05.12-.02.25"/><path fill-opacity=".996" d="M200.49 279.1q-.03.49-.41.85-.22-.54.1-.79.05-.06.31-.06M181.35 281.44q-.41.42-.63 1-.33.03-.75-.46.21-.83.83-1.56.58.48.55 1.02"/><path fill="#f9f9f8" fill-opacity=".996" d="M169.13 287.14q.75.86.91 1.81l-8.81-5.72q-.8-.52-.35.32l4.9 9.19q-.02.05-.03.1l-1.48-.78-5.34-10.01a.59.53-58.5 0 1-.06-.33q.13-1.18 1.15-.47 4.35 3 9.11 5.89"/><path fill-opacity=".996" d="m223.09 281.99-1.79 1.12-9.53 5.98q.29-1.6 1.01-1.91l9.56-6.14a.51.51 0 0 1 .78.47zM178.07 282.04q-.13 1.13.14 2.12.14.53.55.16.34-.32.26-1.35l1.2.49q-.76 1.33-1.43 2.66-.66 1.33-.67 2.9-.05 5.73-.03 11.47-1.07-.73-1.27-1.69l.12-.04q.11-.03.11-.15.04-5.57.04-11.14.12-1.38-.23-2.64l.18-3.16z"/><path fill="#fbfb06" fill-opacity=".996" d="m204.94 281.8.26 3.01q-.22.81.14 1.69l-.51 1q-.99.33-.75-2.8l-.23-1.96q.18-.85 1.09-.94"/><path fill="#f9f9f8" fill-opacity=".996" d="m223.09 281.99-5.34 9.98-1.79 1.08 5.34-9.94zM191.57 283.8q-.07 5.47-.18 10.96-.01.61-.62 1.18-.55.26-.35-.65l.05-11.27q.64-.25 1.1-.22"/><path fill-opacity=".996" d="M190.42 295.29q-.2.91.35.65l.21.28-.63 1.47-6.36-11.67q.52-.2.89-.57 2.6 4.92 5.31 9.8.04.08.13.06zM164.27 292.06l1.48.78q.38 1.11-.19 1.29l-.72-.05q.02-.82-1.43-1.19l-9.35-6.2a.38.38 0 0 1-.12-.49l.15-.28q.15-.29.43-.11zM218.6 292.9q-1.23.25-1.68 1.2-.42.09-.46-.06l-.61-.77q-.1-.05.11-.22l1.79-1.08 9.74-6.16a.3.3 0 0 1 .42.11l.15.29q.16.29-.12.48z"/><path fill="#f9f9f8" fill-opacity=".996" d="M163.41 292.89q1.45.37 1.43 1.19l-12.77-.97q-.35-.03-.26-.37l.09-.39a.33.33 0 0 1 .34-.24zM216.92 294.1q.45-.95 1.68-1.2l11.17-.78q.27-.02.33.24l.09.38a.31.31 0 0 1-.27.38z"/><path fill="#fbfb06" fill-opacity=".996" d="m215.85 293.27.61.77-10.51 6.58q.34-.31.25-1.07z"/><path fill="#f9f9f8" fill-opacity=".996" d="M191.66 295.56q.24.52.29 1.35-.72 5.31-.49 11.47.02.65-.7 1.44-.69-.81-.46-.2l.05-11.93.63-1.47q.31-.46.68-.66"/><path fill="#fbfb06" fill-opacity=".996" d="M184.18 298.74q-.15 2.19.61 2.92v11.43q-.68-.37-.96-1.88zM198.23 301.02q-.52.01-1.04.6l-5.61 10.36q-.46-.07-.91-.3-.5-.25-.22-.74.21-.36.68-.63l5.8-10.42q.81-1.48 1.29.11.02.08.01 1.02"/><path fill-opacity=".996" d="m184.18 298.74 6.12 10.88q-.23-.61.46.2.08.29.37.49-.47.27-.68.63-.28.49.22.74.45.23.91.3l-.03 10.03q0 1.81.86.22l4.72-8.67q.94.92 2.11-1.56l9.78-6.34a.38.38 0 0 1 .58.25l.07.34q.03.14-.09.22-4.77 3.21-9.63 6.21-1.72 1.08-3.01 3.37-2.83 5.03-5.4 10.1-1.12-.71-1.43-2.93l.79.59q.08.06.17.02.15-.06.22-.16.19-.25-.11-.35-.62-.19-.64-.85-.14-3.98.01-7.98.07-1.91-1-4.06-2.19-4.44-4.76-8.77-.76-.73-.61-2.92M183.83 311.21q.28 1.51.96 1.88l.16.69q-.37.02-.65-.1-1.24-.53-1.46-1.66l-5.57-10.33q.55-.09.83-.76z"/><path fill="#fbfb06" fill-opacity=".996" d="M182.84 312.02q.22 1.13 1.46 1.66l-.32.38-11.54-7.49a.29.27 24.1 0 1-.12-.29l.07-.37a.37.37 0 0 1 .57-.24z"/><path fill="#f9f9f8" fill-opacity=".996" d="m184.95 313.78 5.16 9.44q.31 2.22 1.43 2.93l.08 11.47q-.03.23-.23.4-.11-.29-.43-.48-.46-.28-.46-.83l-.01-9.47q0-1.2-.57-2.25l-5.94-10.93.32-.38q.28.12.65.1"/><path fill="#fbfb06" fill-opacity=".996" d="m190.59 338.02-.58.85-5.14-9.06q-.49-.74-1.07-1.13-.06-.73.09-1.09a.53.53 0 0 1 .96-.05zM198.2 339.15l-.9 1.74-.15-11.09q1.36-1.48.13-2.38.94-.6.93.83-.03 5.4-.01 10.9"/><path fill-opacity=".996" d="M197.28 327.42q1.23.9-.13 2.38l-5.47 9.8-.59-1.27.3-.31q.2-.17.23-.4z"/><path fill="#f9f9f8" fill-opacity=".996" d="m184.87 329.81-.07 11.4-1.07-1.86.07-10.67q.58.39 1.07 1.13"/><path fill="#fbfb06" fill-opacity=".996" d="m183.73 339.35 1.07 1.86.13.48q-.5.49-.95.42l-11.33-7.4q-.41-.28-.14-.7l.14-.22q.12-.19.31-.07l9.29 5.99q.69.44.3-.27l-5.29-9.72q-.1-.18.08-.28l.25-.14q.43-.23.67.2z"/><path fill="#f9f9f8" fill-opacity=".996" d="m199.14 340.01-.96 1.94q-2.85 4.93-5.5 10.02-1.28 2.44-1.23 4.47.07 3.82.07 7.52 0 1.97.95.24l4.72-8.59a.42.42 0 0 1 .68-.07l.19.22q.11.12.04.26l-6.54 12.08-1.07.07-6.59-12.18q-.08-.15.04-.26l.2-.2a.43.42-36 0 1 .67.1q1.75 3.39 4.8 8.45.54.9 1.21 1.95.34.53.45-.09.1-.52-.32-.73-.5-.25-.5-.8l-.1-10.59q.23-.89.71-1.54l6.24-11.39.9-1.74 5.67-9.87a.24.24 0 0 1 .32-.09l.25.14q.39.21.18.61z"/><path fill-opacity=".996" d="m198.18 341.95.96-1.94 9.81-6.29a.41.41 0 0 1 .61.21l.11.31q.07.21-.11.32z"/><path fill="#f9f9f8" fill-opacity=".996" d="m191.09 338.33.59 1.27q-.22 5.43-.23 11.15 0 .71-.68 1.28-.33-.12-.47-.44.61-6.83-.29-12.72l.58-.85z"/><path fill-opacity=".996" d="m184.93 341.69 5.37 9.9q.14.32.47.44l.29.25q-.48.65-.71 1.54l-6.37-11.71q.45.07.95-.42M191.56 368.1l-.16 13.9h-.78l-.13-13.83z"/></svg>