<svg xmlns="http://www.w3.org/2000/svg" viewBox="0 0 382 382"><g fill="none" stroke-width="2"><path stroke="#3e003e" d="M99.81 17.56q.19.38-.16.92M106.42 12.1q-.28.4-.8.43" vector-effect="non-scaling-stroke"/><path stroke="#bb7f40" stroke-opacity=".996" d="M114.83 9.72q-.01.37-.93.31" vector-effect="non-scaling-stroke"/><path stroke="#3e003e" d="M123.35 27.48q-1.69-.49-1.12-2.63" vector-effect="non-scaling-stroke"/><path stroke="#7d7e01" d="M146.53 19.88q-.84.03-1.52-.25" vector-effect="non-scaling-stroke"/><path stroke="#3e003e" d="m156.41 9.84 1.06.68M157.69 3q.19-1.62-.61-3M183.1 52.86l-.93.52M174.47 74.08l-.93.34" vector-effect="non-scaling-stroke"/><path stroke="#bb7f40" stroke-opacity=".996" d="M173.43 54.73q.29-.04.46-.14.43-.24.09-.61-.56-.6-.45-1.27M168.55 42.5q-.82-1.06-1.86-1.44M158.38 23.71q.34.35.69-.98" vector-effect="non-scaling-stroke"/><path stroke="#3e003e" d="M164.97 27.32q-.09.33.99.73M166.17 20.34q.05-.61-1.14-1.97M157.3 11.99l-.89-.54" vector-effect="non-scaling-stroke"/><path stroke="#bb7f40" stroke-opacity=".996" d="M151.52 7.42q-.72-.82-1.57-1.04" vector-effect="non-scaling-stroke"/><path stroke="#3e003e" d="M164.83 34.69q.02.95 1.12 1.65M166.09 29.74q.11-.45-1.11-.77" vector-effect="non-scaling-stroke"/><path stroke="#7d7e01" d="M181.07 12.01q.65 1.91 1.91 1.69M190.5 12.01h1.01M191.54 31.28q-.83-.11-1.06.22" vector-effect="non-scaling-stroke"/><path stroke="#3e003e" d="M183.02 33.13q-.3-.08-.73 0" vector-effect="non-scaling-stroke"/><path stroke="#bb7f40" stroke-opacity=".996" d="m139.06.49 1.27 2.72M143.76 10.68q-.66-.18-1.28.06" vector-effect="non-scaling-stroke"/><path stroke="#3e003e" d="M24.85 19.19q.04.28-.84.55" vector-effect="non-scaling-stroke"/><path stroke="#7d7e01" d="M156.31 17.06q-.21 1.02.47 2 .19.28.15.41-.07.21-.47.26" vector-effect="non-scaling-stroke"/><path stroke="#bb7f40" stroke-opacity=".996" d="M139.99 18.63q-.29.16-.46.58" vector-effect="non-scaling-stroke"/><path stroke="#3e003e" d="m123.35 61.66-1.03-.96" vector-effect="non-scaling-stroke"/><path stroke="#bb7f40" stroke-opacity=".996" d="M121.98 45.95q.41-.74.35-1.22" vector-effect="non-scaling-stroke"/><path stroke="#7d7e01" d="M156.45 20.71q.47.65.96.65M157.54 23.54q-.44-.46-1.2-.38M156.39 36.9q-.43 1.85 1.06 2.13M157.44 77.96l-1 .1M156.16 58.15q.53-.94.23-1.9M149.04 24.2q-.29-1.15-1.11-1.53M148.02 22.2q.21-.22.01-.48-.19-.24-.49-.29" vector-effect="non-scaling-stroke"/><path stroke="#bb7f40" stroke-opacity=".996" d="m114.94 29.51-.49-.02" vector-effect="non-scaling-stroke"/><path stroke="#3e003e" d="M114.45 29.49q-.45-.15-.93-.07" vector-effect="non-scaling-stroke"/><path stroke="#bb7f40" stroke-opacity=".996" d="M40.29 31.87q-.48.11-.86.38M38.24 30.84q.25-1.2-.42-1.68" vector-effect="non-scaling-stroke"/><path stroke="#3e003e" d="M55 42.71q-.26.08-.48.95" vector-effect="non-scaling-stroke"/><path stroke="#7d7e01" d="m114.45 29.49-.58 1M115.11 31.98q-.33-1.23-1.24-1.49" vector-effect="non-scaling-stroke"/><path stroke="#3e003e" d="M114.74 47.72q-.96-.45-.97-1.33" vector-effect="non-scaling-stroke"/><path stroke="#bb7f40" stroke-opacity=".996" d="m191.51 70.32-1.01.06" vector-effect="non-scaling-stroke"/><path stroke="#7d7e01" d="M189.89 69.15q.6-.23.45-1.15" vector-effect="non-scaling-stroke"/><path stroke="#bb7f40" stroke-opacity=".996" d="m190.2 49.82.21-1.39M48.13 48.1q-.33.2-.5.99" vector-effect="non-scaling-stroke"/><path stroke="#7d7e01" d="M70.6 55.24q-.74.18-.72.67" vector-effect="non-scaling-stroke"/><path stroke="#3e003e" d="m120.01 58.93-1.31.37" vector-effect="non-scaling-stroke"/><path stroke="#bb7f40" stroke-opacity=".996" d="m61.06 59.72 1.25 1.09M63.73 60.47q-.43.47-.92.59" vector-effect="non-scaling-stroke"/><path stroke="#3e003e" d="M101.25 79.29q-.58.17-.84.44M183.1 55.38l-1.04-1.74M182.98 72.02l-.92.32" vector-effect="non-scaling-stroke"/><path stroke="#7d7e01" d="M135.32 71.42q-.5.31-.87.38M134.08 71.5q-.25-1.19-.82-2M79.1 72.65q-.58.47-1.06.3" vector-effect="non-scaling-stroke"/><path stroke="#bb7f40" stroke-opacity=".996" d="m78.04 72.95-.89-1.92" vector-effect="non-scaling-stroke"/><path stroke="#3e003e" d="m123.33 85.77-.97.06M85.5 88.38q-.33.14.18 1.43" vector-effect="non-scaling-stroke"/><path stroke="#7d7e01" d="M167.54 79.34q-.28.37-.53.45" vector-effect="non-scaling-stroke"/><path stroke="#3e003e" d="M166.05 95.68q-.87-.18-1.12.54M191.49 89q-.25.07-.45.06-.54-.04-.56-.57l-.06-1.17" vector-effect="non-scaling-stroke"/><path stroke="#7d7e01" d="M158.98 100.68q-.53 1.27-2.7-.76M191.52 89.79l-1.02.08" vector-effect="non-scaling-stroke"/><path stroke="#3e003e" d="M126.58 131.48q-.08.85-.4 1.25M119.75 136.8q-1.3-.48-1.97-1.41M109.67 129.08l-5.06-1.17" vector-effect="non-scaling-stroke"/><path stroke="#7d7e01" d="m116.44 91.1-.43.51M182.95 91.61q-.57.47-.92.37" vector-effect="non-scaling-stroke"/><path stroke="#3e003e" d="m109.58 96.5-.78.49" vector-effect="non-scaling-stroke"/><path stroke="#bb7f40" stroke-opacity=".996" d="M139.89 96.52q-.09.47-.46.87" vector-effect="non-scaling-stroke"/><path stroke="#3e003e" d="M140.31 120.67q-1.58 1.35.08 2.99" vector-effect="non-scaling-stroke"/><path stroke="#bb7f40" stroke-opacity=".996" d="M140.34 131.27q-.32-.38-.89-.59" vector-effect="non-scaling-stroke"/><path stroke="#3e003e" d="M139.19 121.03q-.12-1.26-.91-2.17M132.06 106.14q.04-1.16-1.12-1.74" vector-effect="non-scaling-stroke"/><path stroke="#bb7f40" stroke-opacity=".996" d="M130.05 103.05q.3-.3-.1-1.25" vector-effect="non-scaling-stroke"/><path stroke="#3e003e" d="M129.95 101.8q.4-.88-.26-.87" vector-effect="non-scaling-stroke"/><path stroke="#7d7e01" d="m191.53 206.78-1.06.03M190.16 206.01q.26-.94.2-1.74M190.31 186.88l.09-1.84" vector-effect="non-scaling-stroke"/><path stroke="#bb7f40" stroke-opacity=".996" d="M181.98 150.08q.59-.15 1.02-.06M183.1 132.99q-.14-.79-1.06-1.29" vector-effect="non-scaling-stroke"/><path stroke="#7d7e01" d="M182.01 131.12q-.22-1.22-1.07-2.35M174.54 123.59l-1.12-.88M166.15 107.67l-1.01-.64M160.2 103.03l-1.77-1.42" vector-effect="non-scaling-stroke"/><path stroke="#bb7f40" stroke-opacity=".996" d="M164.93 105.31q.31.49 1.04.77M172.4 111.23q.35.68.71 1.44.22.43.49.43.32 0 .7-.43M189.92 127.5q.56-.44.47-1.03M183.13 111.49l-1.04-.09" vector-effect="non-scaling-stroke"/><path stroke="#7d7e01" d="M129.56 101.37q.18.29.39.43" vector-effect="non-scaling-stroke"/><path stroke="#bb7f40" stroke-opacity=".996" d="m105.93 104.46-.53.78" vector-effect="non-scaling-stroke"/><path stroke="#3e003e" d="M123.06 107.06q-.55.51-1.76-.06M160.08 103.27l-1.04-.22M165.05 107.98q.48.27.94.28M167.71 118.22l-1 .81" vector-effect="non-scaling-stroke"/><path stroke="#7d7e01" d="M121.99 107.86q2.51.96 4.1 3.1M130.88 120.74q.27.96 1.05 1.74M146.79 136.54q1.34 1.81 1.19 2.36" vector-effect="non-scaling-stroke"/><path stroke="#bb7f40" stroke-opacity=".996" d="M140.4 132.89q-.6-.16-1.07-.67M134.49 128.37q-.62-.64-1.6-1.05" vector-effect="non-scaling-stroke"/><path stroke="#7d7e01" d="m174.36 124.99-1.04-.87M173.39 130.5l-.26 1.57M157.36 155.74q-1 .49.04 2.47M163.86 171.55q.46 1.06 1.35 1.94" vector-effect="non-scaling-stroke"/><path stroke="#3e003e" d="M165.21 173.49q-.07.44-.28.74" vector-effect="non-scaling-stroke"/><path stroke="#7d7e01" d="M157.47 177.05q-.88-.29-.79-.41" vector-effect="non-scaling-stroke"/><path stroke="#3e003e" d="m149.7 162.01.99-.82M155.53 155.61q.64-.13-.23-1.61M148.98 141.08q-.5-1.14-1.08-1.32" vector-effect="non-scaling-stroke"/><path stroke="#7d7e01" d="M174.44 132.75q-.53-.07-.97.04" vector-effect="non-scaling-stroke"/><path stroke="#3e003e" d="M140.95 144.27q-.89-1.02-1.76-1.49M131.16 140.88l-1.18-.36" vector-effect="non-scaling-stroke"/><path stroke="#bb7f40" stroke-opacity=".996" d="M88.43 131.87q.44.42.08.8" vector-effect="non-scaling-stroke"/><path stroke="#3e003e" d="m122.51 139.1-.55.93" vector-effect="non-scaling-stroke"/><path stroke="#7d7e01" d="m174.46 152.01-.72.07" vector-effect="non-scaling-stroke"/><path stroke="#3e003e" d="M140.4 144.53q-.23-.18-.95-.28M131.93 142.55q-.74-.41-1.35-.44M133.38 147.62q.9.88.37 1.59" vector-effect="non-scaling-stroke"/><path stroke="#bb7f40" stroke-opacity=".996" d="m181.02 167.81.55 1.15" vector-effect="non-scaling-stroke"/><path stroke="#3e003e" d="m181.57 168.96-.32.3M135.3 149.4q-.72.04-.87.37M140.42 159.45l-1.05-1.84" vector-effect="non-scaling-stroke"/><path stroke="#7d7e01" d="M142.47 166.71q.75-.19 1.49.04" vector-effect="non-scaling-stroke"/><path stroke="#bb7f40" stroke-opacity=".996" d="M159.29 178.85q-1.44.69-3.12-1.08M148.25 175.98l-3.18-.45" vector-effect="non-scaling-stroke"/><path stroke="#7d7e01" d="M182.99 169.64q-.81.69-1.42-.68" vector-effect="non-scaling-stroke"/><path stroke="#bb7f40" stroke-opacity=".996" d="M165.87 173.27q-.26.31-.66.22" vector-effect="non-scaling-stroke"/><path stroke="#3e003e" d="M139.84 174.44q.21.44-.4.87M183.13 172.34l-1.08-1.38M183.03 189.14l-.97.16M174.38 190.71q-1.66 2.02.09 2.93M174.5 201.47l-.97-.71M166.1 185.48q-.08-.39-1.06-.58M160.12 180.97q-.27-.77-1.36-.77M157.41 218.04q-.1.46 0 .93M157.45 233.95l-1.06-.01M156.13 213.54q.43-1.13.26-1.31" vector-effect="non-scaling-stroke"/><path stroke="#bb7f40" stroke-opacity=".996" d="M155.78 193.81q.64-.19.64-1.07" vector-effect="non-scaling-stroke"/><path stroke="#3e003e" d="M149.5 177.42q-.22-.79-.7-.61-.25.09-.17.34" vector-effect="non-scaling-stroke"/><path stroke="#bb7f40" stroke-opacity=".996" d="M148.63 177.15q-.32-.36-1.32.03" vector-effect="non-scaling-stroke"/><path stroke="#3e003e" d="M164.91 183.27q.25.55 1.03.67M166.07 176.08q-.15-1.52-1.15-1.4" vector-effect="non-scaling-stroke"/><path stroke="#7d7e01" d="m148.98 177.47-.35-.32M148.94 196.82l-.93.27M183.09 208.71l-.97.47" vector-effect="non-scaling-stroke"/><path stroke="#3e003e" d="m174.42 202.96-1.1-.87M173.39 208.23l-.25 1.42" vector-effect="non-scaling-stroke"/><path stroke="#7d7e01" d="M135.37 227.48q-.76.19-.75.51" vector-effect="non-scaling-stroke"/><path stroke="#3e003e" d="M174.46 229.93q-.31.24-.99.25" vector-effect="non-scaling-stroke"/><path stroke="#7d7e01" d="M191.51 225.78q-1.35-.09-1.06-1.87M191.5 246.03q-.42.06-1.1-.1M190.2 244.98l.2-1.72M183.09 211.02q-.24-1.15-1.06-1.09M167.52 235.2q-.21.42-.55.49" vector-effect="non-scaling-stroke"/><path stroke="#3e003e" d="M150.31 238.84q-.22.38-.82.36" vector-effect="non-scaling-stroke"/><path stroke="#bb7f40" stroke-opacity=".996" d="M143.72 244.66q-.12.43-.8.53" vector-effect="non-scaling-stroke"/><path stroke="#3e003e" d="M191.5 285.29q-.78-.53-1.07-.96M189.76 283.01l.26-1.57M183.01 250.83l-.97-1.34M166.56 252.7l-.25 1.62M172.28 266.56l1.54 1.01" vector-effect="non-scaling-stroke"/><path stroke="#7d7e01" d="M183.09 286.66q-.88-.28-1.06.31" vector-effect="non-scaling-stroke"/><path stroke="#3e003e" d="M179.95 285.09q.02-.53-.24-1.24" vector-effect="non-scaling-stroke"/><path stroke="#7d7e01" d="M174.34 271.47q-.73-1.02-1.01-2.18M173.47 278.78q.37.52.79.75" vector-effect="non-scaling-stroke"/><path stroke="#3e003e" d="M174.26 279.53q-.01.56.52.4M175.17 280.2q-.21.39.25 1.34" vector-effect="non-scaling-stroke"/><path stroke="#7d7e01" d="M174.47 280.99q-.5-.72-1.14-.97M173.37 286.28l-.18 1.7" vector-effect="non-scaling-stroke"/><path stroke="#3e003e" d="M164.25 269.77q.53-.21.35-1.46M160.03 258.96l-1.13-.42M156.32 255.79l1.78.17" vector-effect="non-scaling-stroke"/><path stroke="#bb7f40" stroke-opacity=".996" d="M174.5 279.33q-.04.09-.24.2M174.42 288.81q-.38-.3-.89-.07M191.49 303.78q-.84-.94-1.19-2.29" vector-effect="non-scaling-stroke"/><path stroke="#7d7e01" d="M191.51 323.73q-.57.3-1.02.06" vector-effect="non-scaling-stroke"/><path stroke="#3e003e" d="m174.41 306.8-.14.5" vector-effect="non-scaling-stroke"/><path stroke="#bb7f40" stroke-opacity=".996" d="M174.27 307.3q-.28.1-.76-.02M180.84 323.47q.49 1.39 1.96 2.41" vector-effect="non-scaling-stroke"/><path stroke="#3e003e" d="M182.8 325.88q-.47.16-.76-.02" vector-effect="non-scaling-stroke"/><path stroke="#7d7e01" d="M174.39 307.71q-.01-.2-.12-.41" vector-effect="non-scaling-stroke"/><path stroke="#bb7f40" stroke-opacity=".996" d="M183.25 325.93q-.38.11-.45-.05" vector-effect="non-scaling-stroke"/><path stroke="#7d7e01" d="M191.54 343.03h-1.1" vector-effect="non-scaling-stroke"/><path stroke="#3e003e" d="M189.83 341.79q.3-.28.46-1.54M182.8 325.88l.57 2.53" vector-effect="non-scaling-stroke"/><path stroke="#7d7e01" d="m190.38 360.25-.11 1.77M191.49 362.73l-.97.01" vector-effect="non-scaling-stroke"/></g><path d="m90.71 0 9.1 17.56q.19.38-.16.92-.91-.5-1.38-1.49Q94.39 8.83 90.33.75q-.12-.24-.06-.5.02-.11.06-.25zM106.22 0l.2 12.1q-.28.4-.8.43.16.03-.02-.17-.09-.11-.09-.25L105.42 0z"/><path fill="#fafc03" fill-opacity=".996" d="m114.82 0 .01 9.72q-.01.37-.93.31V0z"/><path d="m119.48 0 2.19 4.45q.76 1.54.72-.18l-.08-3.83a.26.26 0 0 1 .23-.27l.44-.05q.34-.04.34.3l.03 27.06q-1.69-.49-1.12-2.63l.15-15.38a6 6 0 0 0-.57-2.59L118.52 0zM128.91 0q1.89 3.58 3.67 7.32.93 1.94 2.61 3.24 5.3 4.1 10.41 8.36.52.43.93.96-.84.03-1.52-.25-5.64-4.65-11.39-9.01-1.27-.97-2.15-2.93-1.72-3.84-3.56-7.69z"/><path fill="#7c017c" fill-opacity=".996" d="M148.77 0q.52 4.18 2.32 5.69 2.46 2.06 5.32 4.15l1.06.68 5.99 4.85q.48.39.21-.16L157.69 3q.19-1.62-.61-3h.34l25.68 52.86-.93.52-7.26-5.91q-.42-.34-.42.2l-.02 26.41-.93.34-.11-19.69q.29-.04.46-.14.43-.24.09-.61-.56-.6-.45-1.27l-.23-5.98q-.02-.52-.43-.83l-4.32-3.4q-.82-1.06-1.86-1.44l-8.31-17.35q.34.35.69-.98l5.9 4.59q-.09.33.99.73l6.01 4.77q.47.38.21-.17l-6.01-12.31q.05-.61-1.14-1.97l-7.73-6.38-.89-.54-4.89-4.03q-.72-.82-1.57-1.04L147.08 0zm16.06 34.69q.02.95 1.12 1.65c.64 1.7 1.35 3.74 2.77 4.88q1.98 1.6 4.18 3.29.58.45.57-.28l-.05-8.13q0-.56-.44-.9l-6.89-5.46q.11-.45-1.11-.77l-4.36-3.55q-.51-.42-.22.18zm15.92 15.59-6-12.34q-.38-.79-.37.09l.08 6.83a1.83 1.78-71.6 0 0 .66 1.36l5.33 4.29q.67.54.3-.23"/><path d="M157.08 0q.8 1.38.61 3l-.22 7.52-1.06-.68-.17-9.84zM166.74 0c.48.66.63 1.22 1.3 1.73q6.52 5.08 13.03 10.28.65 1.91 1.91 1.69l6.87 14.16q.64 1.32.64-.14l.01-15.71h1.01l.03 19.27q-.83-.11-1.06.22l-6.89-14.22q-.45-.94-.46.1l-.11 15.75q-.3-.08-.73 0L182 14.65a1.26 1.22-71.3 0 0-.45-.94q-7.06-5.73-14.39-11.37-.89-.68-1.26-2.34z"/><path fill="#fafc03" fill-opacity=".996" d="m176.23 0 6.75 13.7q-1.26.22-1.91-1.69L175.27 0zM185.8 0l4.34 8.78q.5 1 .49-.11L190.56 0h.89l.06 12.01h-1.01L184.73 0z"/><path fill="#7c017c" fill-opacity=".996" d="m139.06.49 1.27 2.72 3.43 7.47q-.66-.18-1.28.06L137.71.71q-.24-.5.32-.5.52 0 1.03.28"/><path fill="#fafc03" fill-opacity=".996" d="M140.33 3.21 139.06.49q1.9-1.41 1.27 2.72"/><path d="M24.85 19.19q.04.28-.84.55L15.34 2.18a.36.36 0 0 1 .12-.46l.27-.19a.35.34 59.2 0 1 .5.13z"/><path fill="#fafc03" fill-opacity=".996" d="m151.52 7.42 4.79 9.64q-.21 1.02.47 2 .19.28.15.41-.07.21-.47.26l-6.51-13.35q.85.22 1.57 1.04"/><path fill="#7c017c" fill-opacity=".996" d="M139.99 18.63q-.29.16-.46.58L124.17 7.48q-.38-.29-.09-.67l.19-.24q.12-.16.28-.03zM122.23 24.85q-.57 2.14 1.12 2.63v34.18l-1.03-.96-.34-14.75q.41-.74.35-1.22.14-7.69-.05-15.33-.05-2.31-1.12-4.42-3.75-7.37-7.26-14.95.92.06.93-.31z"/><path fill="#fafc03" fill-opacity=".996" d="m143.76 10.68 12.69 10.03q.47.65.96.65l1.66 1.37q-.35 1.33-.69.98l-.84-.17q-.44-.46-1.2-.38l-6.72-1.44q-.51-.11-.29.36l7.06 14.82q-.43 1.85 1.06 2.13l-.01 38.93-1 .1-.28-19.91q.53-.94.23-1.9l.06-15.63q0-1.21-.53-2.3l-6.88-14.12q-.29-1.15-1.11-1.53.13-.18.09-.47.21-.22.01-.48-.19-.24-.49-.29l-8.01-2.22q.17-.42.46-.58l5.02 1q.68.28 1.52.25.16.05.26-.05.12-.14.04-.3l-4.35-8.79q.62-.24 1.28-.06m3.28 3.95q-.91-.73-1.75-1.59t-.32.23l3.08 6.45a1.3 1.27 84 0 0 .82.68q3.15.87 6.43 1.41 1.24.2.24-.56-4.27-3.24-8.5-6.62"/><path d="m157.3 11.99.11 9.37q-.49 0-.96-.65l.01-.98q.4-.05.47-.26.04-.13-.15-.41-.68-.98-.47-2l.1-5.61z"/><path fill="#7c017c" fill-opacity=".996" d="m106.42 12.1 8.52 17.41-.49-.02q-.45-.15-.93-.07L99.65 18.48q.35-.54.16-.92l11.93 9.25q1.35 1.05.6-.48l-6.72-13.8q.52-.03.8-.43"/><path fill="#fafc03" fill-opacity=".996" d="M40.29 31.87q-.48.11-.86.38.1-.75-1.19-1.41.25-1.2-.42-1.68l-7.21-14.97a.31.31 0 0 1 .14-.42l.23-.12q.35-.17.52.18z"/><path d="m166.17 20.34-.21 7.71q-1.08-.4-.99-.73l.06-8.95q1.19 1.36 1.14 1.97"/><path fill="#7c017c" fill-opacity=".996" d="m24.85 19.19 12.97 9.97q.67.48.42 1.68l-14.23-11.1q.88-.27.84-.55"/><path d="M148.02 22.2q-.55-.27-.48-.77.3.05.49.29.2.26-.01.48M149.04 24.2q-.18 7.14-.06 14.16.05 2.64 1.14 5.04 2.96 6.47 6.27 12.85.3.96-.23 1.9l-7.71-15.83a4.94 4.78 32.8 0 1-.5-2.14l-.02-17.51q.82.38 1.11 1.53M157.54 23.54l-.09 15.49q-1.49-.28-1.06-2.13l-.05-13.74q.76-.08 1.2.38"/><path fill="#7c017c" fill-opacity=".996" d="M55 42.71q-.26.08-.48.95l-8.6-17.61q-.12-.25.14-.35l.31-.12a.34.34 0 0 1 .43.16z"/><path d="m166.09 29.74-.14 6.6q-1.1-.7-1.12-1.65l.15-5.72q1.22.32 1.11.77M114.45 29.49l-.58 1-.35-1.07q.48-.08.93.07"/><path fill="#fafc03" fill-opacity=".996" d="m114.94 29.51 7.39 15.22q.06.48-.35 1.22l-6.87-13.97q-.33-1.23-1.24-1.49l.58-1z"/><path d="m115.11 31.98-.37 15.74q-.96-.45-.97-1.33l.1-15.9q.91.26 1.24 1.49"/><path fill="#fafc03" fill-opacity=".996" d="m191.54 31.28-.03 39.04-1.01.06-.61-1.23q.6-.23.45-1.15l-.14-18.18.21-1.39.07-16.93q.23-.33 1.06-.22"/><path fill="#7c017c" fill-opacity=".996" d="m40.29 31.87 7.84 16.23q-.33.2-.5.99l-8.2-16.84q.38-.27.86-.38M183.02 33.13l7.39 15.3-.21 1.39-7.91-16.69q.43-.08.73 0"/><path d="M70.6 55.24q-.74.18-.72.67L54.52 43.66q.22-.87.48-.95l12.97 10.31q.76.61.33-.27l-7.03-14.48q-.12-.24.11-.38l.33-.21q.24-.14.36.11z"/><path fill="#fafc03" fill-opacity=".996" d="m168.55 42.5 4.98 10.21q-.11.67.45 1.27.34.37-.09.61-.17.1-.46.14l-6.74-13.67q1.04.38 1.86 1.44"/><path fill="#7c017c" fill-opacity=".996" d="M113.77 46.39q.01.88.97 1.33l5.27 11.21-1.31.37-8.01-16.95q-.12-.24.14-.33l.39-.13q.2-.07.29.12zM61.06 59.72l1.25 1.09q-.7.1-2.38-.27-6.81-1.5-13.67-2.99-2.38-.51-3.95-1.77-6.73-5.38-13.35-10.52a.42.41 38.6 0 1-.07-.58l.16-.21q.19-.24.43-.05 6.7 5.13 13.3 10.47 1.58 1.28 3.91 1.77 7.13 1.52 14.37 3.06"/><path fill="#fafc03" fill-opacity=".996" d="M63.73 60.47q-.43.47-.92.59-.3-.1-.5-.25l-1.25-1.09-13.43-10.63q.17-.79.5-.99z"/><path fill="#7c017c" fill-opacity=".996" d="M101.25 79.29q-.58.17-.84.44-6.74-5.3-13.55-10.7-1.99-1.59-2.9-3.49-3.79-7.9-7.35-15.2-.12-.24.1-.39l.24-.17q.37-.25.57.15l7.89 16.23q.39.82 1.11 1.38l12.39 9.73q.48.38.21-.17l-7.17-14.64a.41.41 0 0 1 .19-.55l.24-.12q.26-.13.38.13z"/><path d="M183.1 52.86 190.34 68q.15.92-.45 1.15l-6.79-13.77-1.04-1.74q.06-.13.11-.26z"/><path fill="#7c017c" fill-opacity=".996" d="m183.1 55.38-.12 16.64-.92.32v-18.7z"/><path fill="#fafc03" fill-opacity=".996" d="M135.32 71.42q-.5.31-.87.38-.45-.75-.37-.3-.25-1.19-.82-2L126 54.51a.3.29 65.5 0 1 .14-.4l.32-.16a.29.28-25.1 0 1 .37.13zM70.6 55.24l8.5 17.41q-.58.47-1.06.3l-.89-1.92-7.27-15.12q-.02-.49.72-.67"/><path d="M120.01 58.93q.82 1.53 2.31 1.77l1.03.96 9.91 7.84q.57.81.82 2-5.28-3.99-10.27-8.07-.24-.2-.52-.09-.3.12-.29.44l.33 21.99-.97.06q.03-8.19-.02-16.32-.02-2.91-1.11-5.29-1.15-2.51-2.53-4.92zm2.19 3.56q.01-.62-.5-.77-.32-.1-.33.24-.02.47.28.76a.33.32 22.2 0 0 .55-.23"/><path fill="#7c017c" fill-opacity=".996" d="m77.15 71.03.89 1.92-12.69-9.99q-.77-.61-.33.28 3.08 6.14 6.19 12.78.89 1.88 2.85 3.42 5.58 4.39 11.44 8.94-.33.14.18 1.43L72.33 79.29a5.57 5.42-84.7 0 1-1.51-1.87l-8.01-16.36q.49-.12.92-.59z"/><path fill="#fafc03" fill-opacity=".996" d="M167.54 79.34q-.28.37-.53.45l-8.62-17.09a.29.28-24.9 0 1 .15-.39l.39-.16q.21-.09.31.12z"/><path d="m156.44 78.06 1-.1 8.61 17.72q-.87-.18-1.12.54l-14.44-11.75q-.8-.65-1.25-1.58l-7.96-16.39q-.11-.23.11-.36l.32-.19q.32-.18.48.14 3.57 7.26 7.54 15.59.75 1.58 2.21 2.7 6.11 4.71 11.22 8.8 1 .8.44-.35z"/><path fill="#7c017c" fill-opacity=".996" d="M191.51 70.32 191.49 89q-.25.07-.45.06-.54-.04-.56-.57l-.06-1.17.08-16.94z"/><path d="M158.98 100.68q-.53 1.27-2.7-.76-5.69-4.51-11.17-8.91-2.02-1.63-3.19-3.91-3.9-7.57-7.47-15.3.37-.07.87-.38 3.68 7.62 7.43 15.19 1.04 2.11 2.89 3.58 6.59 5.24 13.34 10.49M182.98 72.02l7.44 15.3.06 1.17q.02.53.56.57.2.01.45-.06l.03.79-1.02.08-8.44-17.53zM126.58 131.48q-.08.85-.4 1.25l-8.92-2.2q-.55-.14-.3.37l2.79 5.9q-1.3-.48-1.97-1.41l-2.09-4.54q-.21-.47-.68-.67-2.49-1.1-5.34-1.1l-5.06-1.17-15.5-3.52q-1.1-.25-1.99-.95-6.5-5.07-13.05-10.28-1.4-1.11-3.27-1.51-7.67-1.66-15.73-3.4a6.43 6.39-19.8 0 1-2.63-1.23L38.4 95.98q-.12-.09-.09-.23l.08-.36a.34.34 0 0 1 .54-.2q6.52 4.99 13.46 10.57 1.63 1.32 3.71 1.74 7.61 1.53 13.96 3.05.93.22.18-.37L57.43 100.1q-.17-.14-.03-.31l.16-.21q.3-.38.68-.08 13.95 10.91 28.84 22.65 1.56 1.23 3.59 1.63 11.65 2.3 24.03 5.14a.08.07-3.7 0 0 .09-.1q-3.07-6.84-4.41-8.46-.03-.04-.09-.06-8.84-2.05-17.8-3.9a3.23 3.12-19.4 0 1-1.31-.6l-14.69-11.54q-.15-.12-.06-.3l.16-.27q.22-.4.58-.12 6.61 5.06 13.29 10.47 1.61 1.3 3.57 1.7 7.69 1.58 14.01 2.97.9.2.17-.37l-12.02-9.43a5.31 5.28 6 0 1-1.47-1.81q-3.75-7.72-7.63-15.69-.33-.68-1.41-1.6-.51-1.29-.18-1.43l-7.46-15.43q.48.17 1.06-.3 7.87 16.36 15.91 32.62 1.06 2.16 2.95 3.66 14.24 11.35 28.62 22.55m-3.54-.78q1.22.27.24-.5l-10.17-8.03q-.81-.64-.36.29l2.94 6.03a1.52 1.51-6.7 0 0 1.03.81zM116.44 91.1l-.43.51q-.18.06-.36-.07-.13-.08-.19-.21-4.11-8.48-8.24-16.97-.14-.29.14-.43l.29-.14q.32-.16.47.16zM174.47 74.08l8.48 17.53q-.57.47-.92.37l-15.02-12.19q.25-.08.53-.45l12.51 9.85q1.16.92.51-.41l-7.02-14.36zM101.25 79.29l8.33 17.21-.78.49-8.39-17.26q.26-.27.84-.44"/><path fill="#7c017c" fill-opacity=".996" d="M139.89 96.52q-.09.47-.46.87l-15.19-11.93a.38.37-42.6 0 1 .03-.61l.26-.17q.1-.06.19.01zM123.33 85.77l16.98 34.9q-1.58 1.35.08 2.99l-.05 7.61q-.32-.38-.89-.59l-.26-9.65q-.12-1.26-.91-2.17l-6.22-12.72q.04-1.16-1.12-1.74-.06-.62-.89-1.35.3-.3-.1-1.25.4-.88-.26-.87l-7.33-15.1z"/><path fill="#fafc03" fill-opacity=".996" d="m191.52 89.79.01 116.99-1.06.03-.31-.8q.26-.94.2-1.74l-.05-17.39.09-1.84.07-16.19a4.68 4.67 32.4 0 0-.45-2l-8.04-16.77q.59-.15 1.02-.06l7.44 15.16q.24.49.22-.06-.25-7.1-.11-14.45.05-2.11-1.07-4.42-3.2-6.6-6.38-13.26-.14-.79-1.06-1.29-.11-.34-.03-.58-.22-1.22-1.07-2.35l-6.15-12.74q-.26-.53-.26.06l.01 7.5-1.12-.88-.08-8.73q0-.51-.4-.83l-6.79-5.48-1.01-.64-4.94-4-1.77-1.42-19-4.22q.37-.4.46-.87l16.39 3.4q2.17 2.03 2.7.76l5.95 4.63q.31.49 1.04.77l6.43 5.15q.35.68.71 1.44.22.43.49.43.32 0 .7-.43 7.77 15.91 16.04 33.08.59 1.22.54-.13-.01-.18-.13-.34-.24-.33-.24-.74-.01-7.02.03-14.04.01-1.63-.62-3 .56-.44.47-1.03.28-7.14.2-14.24-.04-2.88-1.03-4.81-3.09-6.04-5.89-12.2-.55-1.2-.55.11l.01 16.16-1.04-.09-.06-19.42q.35.1.92-.37c2.52 4.96 4.71 10.61 7.69 15.25q.21.33.2-.06l-.34-16.93zM116.44 91.1l13.12 10.27q.18.29.39.43.4.95.1 1.25l-14.04-11.44z"/><path fill="#7c017c" fill-opacity=".996" d="m105.93 104.46-.53.78-15.17-11.92q-.22-.17-.05-.39l.18-.22a.34.34 0 0 1 .48-.06zM166.05 95.68l8.25 16.99q-.38.43-.7.43-.27 0-.49-.43-.36-.76-.71-1.44l-5.94-12.31q-.27-.56-.29.06l-.2 7.1q-.73-.28-1.04-.77v-9.09q.25-.72 1.12-.54M109.58 96.5l13.48 10.56q-.55.51-1.76-.06l-12.5-10.01z"/><path d="M129.95 101.8q-.21-.14-.39-.43.15-.33.13-.44.66-.01.26.87M160.2 103.03q-.12.13-.12.24l-1.04-.22-.61-1.44z"/><path fill="#7c017c" fill-opacity=".996" d="m160.08 103.27 4.13 8.37q.62 1.25.68-.14l.16-3.52q.48.27.94.28-.09 2.99 0 5.99.03 1.12 1.72 3.97l-1 .81-7.67-15.98z"/><path fill="#fafc03" fill-opacity=".996" d="M121.99 107.86q2.51.96 4.1 3.1l4.79 9.78q.27.96 1.05 1.74c1.4 4.08 3.61 5.41 7.52 8.2q.57.21.89.59l6.45 5.27q1.34 1.81 1.19 2.36l-7.58-6.01q-.6-.16-1.07-.67l-4.84-3.85q-.62-.64-1.6-1.05l-8.23-17.04a2.2 2.18 82.9 0 0-1.52-1.19l-17.74-3.85.53-.78z"/><path d="m132.06 106.14-.07 7.35q0 .52.41.84l5.88 4.53q.79.91.91 2.17l-6.92-5.47a.25.25 0 0 0-.41.2l.07 6.72q-.78-.78-1.05-1.74l-.13-5.77q-.01-.52-.43-.84l-4.23-3.17q-1.59-2.14-4.1-3.1.29-.25-.69-.86 1.21.57 1.76.06l7.31 5.73q.4.31.41-.19l.16-8.2q1.16.58 1.12 1.74M166.15 107.67l-.16.59q-.46-.01-.94-.28-.25-.49.09-.95z"/><path fill="#7c017c" fill-opacity=".996" d="m183.13 111.49 7.26 14.98q.09.59-.47 1.03l-7.83-16.1z"/><path d="m167.71 118.22 5.71 4.49 1.12.88 6.4 5.18q.85 1.13 1.07 2.35l-7.65-6.13-1.04-.87-4.07-3.09q-.47-.36-.22.18l4.36 9.29-.26 1.57-6.42-13.04zM157.36 155.74q-1 .49.04 2.47l.17 7.73q.01.51.41.83l5.88 4.78q.46 1.06 1.35 1.94-.07.44-.28.74l-7.03-5.9q-.43-.36-.43.19v8.53q-.88-.29-.79-.41l-6.98-14.63.99-.82 5.24 4.13q.42.33.44-.2.17-5.96-.03-8.36-.05-.58-.81-1.15.64-.13-.23-1.61l-6.32-12.92q-.5-1.14-1.08-1.32-.17-.77.08-.86.15-.55-1.19-2.36l-6.4-12.88q-1.66-1.64-.08-2.99zm-1.04 17.04q0 .01.01.04 0 .2.01 0 .19-2.9.02-5.04a1.97 1.94 17.2 0 0-.74-1.37l-3.42-2.64q-.71-.55-.33.26 2.03 4.28 4.44 8.72.01.01.01.03"/><path fill="#fafc03" fill-opacity=".996" d="m174.36 124.99.08 7.76q-.53-.07-.97.04l-.34-.72.26-1.57-.07-6.38z"/><path fill="#7c017c" fill-opacity=".996" d="m134.49 128.37 4.43 8.77q.51 1.01.49-.12l-.08-4.8q.47.51 1.07.67l.02 9.23q0 .23.17.36l7.25 5.71a.12.12 0 0 0 .19-.09l-.13-8.34q.58.18 1.08 1.32l.11 7.51q0 .52.41.84l5.8 4.57q.87 1.48.23 1.61l-6.1-4.79q-.55-.44-.55.26l.06 5.37c.02 1.72 1.01 3.2 1.75 4.74l-.99.82-8.75-17.74q-.89-1.02-1.76-1.49l-10.8-8.68q-.45-.36-.22.17l2.99 6.61-1.18-.36-3.8-7.79q.32-.4.4-1.25l11.93 9.4q1.6 1.26.71-.57l-6.33-12.99q.98.41 1.6 1.05m8.82 18.07 4.16 8.4q.43.86.42-.1l-.03-4.6q0-.7-.55-1.12l-3.67-2.85q-.75-.58-.33.27"/><path fill="#fafc03" fill-opacity=".996" d="M88.43 131.87q.44.42.08.8l-19.13-3.88q-.24-.05-.18-.29l.07-.34q.08-.37.45-.29z"/><path fill="#7c017c" fill-opacity=".996" d="m104.61 127.91 5.06 1.17 8.11 6.31q.67.93 1.97 1.41l2.76 2.3-.55.93-13.77-10.87a2.69 2.68-32.2 0 0-2.27-.51l-17.41 4.02q.36-.38-.08-.8zM183.1 132.99l-.1 17.03q-.43-.09-1.02.06l.06-18.38q.92.5 1.06 1.29"/><path d="m174.44 132.75.02 19.26-.72.07q-.11-.05-.23-.09-.02-.01-.02-.04l-.02-19.16q.44-.11.97-.04M129.98 140.52l1.18.36 8.03 1.9q.87.47 1.76 1.49-.32.02-.55.26-.23-.18-.95-.28l-7.52-1.7q-.74-.41-1.35-.44l-4.22-.95q-1.79-.4-.34.73l7.36 5.73q.9.88.37 1.59l-11.79-9.18.55-.93 7.29 1.73q.08.02.12-.05.09-.11.06-.26"/><path fill="#7c017c" fill-opacity=".996" d="m181.02 167.81.55 1.15-.32.3q-6.27-4.9-12.54-9.85-2.09-1.66-3.02-3.62-3.6-7.59-7.33-15.17-.16-.31.16-.47l.33-.15q.26-.13.38.13 3.67 7.43 7.37 15.25.84 1.77 2.73 3.25 5.83 4.56 11.69 9.18M131.93 142.55l3.37 6.85q-.72.04-.87.37l-.68-.56q.53-.71-.37-1.59l-2.8-5.51q.61.03 1.35.44M140.4 144.53l.02 14.92-1.05-1.84.08-13.36q.72.1.95.28"/><path fill="#fafc03" fill-opacity=".996" d="M142.47 166.71q.75-.19 1.49.04l12.72 9.89q-.09.12.79.41.49.99 1.82 1.8-1.44.69-3.12-1.08l-11.18-8.88q-.26-.21-.12.09l3.38 7-3.18-.45q-5.72-4.66-11.37-8.97-1.01-.77-1.68-2.15-4.3-8.94-7.71-15.96-.16-.32.15-.48l.24-.12q.31-.15.46.15 3.61 7.29 7.41 15.31.85 1.8 2.49 3.05 5.67 4.35 10.88 8.52 1.19.94.5-.41z"/><path d="m135.3 149.4 4.07 8.21 1.05 1.84 3.54 7.3q-.74-.23-1.49-.04l-8.04-16.94q.15-.33.87-.37"/><path fill="#fafc03" fill-opacity=".996" d="m174.46 152.01 8.53 17.63q-.81.69-1.42-.68l-.55-1.15-7.28-15.73zM165.87 173.27q-.26.31-.66.22-.89-.88-1.35-1.94l-6.46-13.34q-1.04-1.98-.04-2.47z"/><path d="M139.84 174.44q.21.44-.4.87l-15.15-11.9q-.26-.21-.03-.44l.23-.25q.16-.18.35-.03zM182.99 169.64l7.41 15.4-.09 1.84-7.18-14.54-1.08-1.38q-.02-.97-.8-1.7l.32-.3q.61 1.37 1.42.68"/><path fill="#7c017c" fill-opacity=".996" d="m183.13 172.34-.1 16.8-.97.16-.01-18.34zM174.38 190.71q-1.66 2.02.09 2.93l.03 7.83-.97-.71-.05-8.31a2.43 2.4 19.1 0 0-.92-1.87l-6.46-5.1q-.08-.39-1.06-.58l-4.92-3.93q-.27-.77-1.36-.77-.29-.44-.51-.59a.54.53 17.5 0 0-.84.43v38q-.1.46 0 .93l.04 14.98-1.06-.01-.26-20.4q.43-1.13.26-1.31.18-13.03.06-16.72-.01-.45-.67-1.7.64-.19.64-1.07l-.03-12.72q0-1.01-.98-1.24l-5.91-1.36q-.22-.79-.7-.61-.25.09-.17.34-.32-.36-1.32.03l-7.87-1.87q.61-.43.4-.87l5.23 1.09 3.18.45 7.92 1.79q1.68 1.77 3.12 1.08l5.62 4.42q.25.55 1.03.67l5.99 4.83q.46.37.2-.17l-6.06-12.52q-.15-1.52-1.15-1.4.05-.19.01-.45.21-.3.28-.74.4.09.66-.22z"/><path d="m166.07 176.08-.13 7.86q-.78-.12-1.03-.67l.01-8.59q1-.12 1.15 1.4M149.5 177.42q-.21-.02-.52.05l-.35-.32q-.08-.25.17-.34.48-.18.7.61"/><path fill="#fafc03" fill-opacity=".996" d="m148.63 177.15.35.32 7.44 15.27q0 .88-.64 1.07l-6.32-13.05q-.47-.97-.48.11l-.04 15.95-.93.27q-.17-9.07-.1-18.28c0-.65-.28-1.1-.6-1.63q1-.39 1.32-.03"/><path d="m160.12 180.97 4.17 8.65q.56 1.15.6-.12l.15-4.6q.98.19 1.06.58c-.34 3.73-.74 8.59 2.39 11.4q2.38 2.13 5.04 3.88l.97.71 5.82 4.67q.51.41.22-.18l-6.07-12.32q-1.75-.91-.09-2.93l8.71 18-.97.47-7.7-6.22-1.1-.87-4.05-3.1q-.51-.38-.23.19l4.35 9.05-.25 1.42-14.38-29.45q1.09 0 1.36.77M183.03 189.14l7.33 15.13q.06.8-.2 1.74l-8.1-16.71zM148.94 196.82l7.45 15.41q.17.18-.26 1.31l-8.12-16.45zM135.37 227.48q-.76.19-.75.51l-14.43-11.41a6.07 5.96 6.7 0 1-1.69-2.1l-7.83-16.12q-.11-.23.1-.37l.21-.14a.41.41 0 0 1 .6.16q3.62 7.3 7.18 14.88 1.01 2.16 2.89 3.58 5.44 4.14 10.99 8.58.82.66.36-.29l-7.07-14.43q-.08-.18.07-.3l.29-.23a.38.38 0 0 1 .58.14z"/><path fill="#7c017c" fill-opacity=".996" d="m174.42 202.96.04 26.97q-.31.24-.99.25l-.33-20.53.25-1.42-.07-6.14z"/><path d="m191.53 206.78-.02 19q-1.35-.09-1.06-1.87l.02-17.1z"/><path fill="#fafc03" fill-opacity=".996" d="m183.09 208.71 7.36 15.2q-.29 1.78 1.06 1.87l-.01 20.25q-.42.06-1.1-.1.08-.33-.2-.95l.2-1.72.08-16.14q0-.86-.37-1.63l-7.02-14.47q-.24-1.15-1.06-1.09l.09-.75z"/><path d="m183.09 211.02-.09 16.21a3.39 3.34 32.6 0 0 .33 1.45l7.07 14.58-.2 1.72q-3.74-7.23-7.06-14.63-1.08-2.4-1.13-5.04-.14-7.66.02-15.38.82-.06 1.06 1.09M157.41 218.04v.93q-.1-.47 0-.93"/><path fill="#fafc03" fill-opacity=".996" d="M167.52 235.2q-.21.42-.55.49l-8.58-17.1a.31.3-27 0 1 .14-.41l.31-.15q.27-.14.41.14z"/><path fill="#7c017c" fill-opacity=".996" d="M150.31 238.84q-.22.38-.82.36l-8.13-16.78a.38.38 0 0 1 .17-.51l.27-.13q.22-.1.33.12z"/><path fill="#fafc03" fill-opacity=".996" d="m135.37 227.48 8.35 17.18q-.12.43-.8.53l-8.3-17.2q-.01-.32.75-.51"/><path d="m174.46 229.93 15.45 31.75q.25.52.26-.06l.23-15.69q.68.16 1.1.1v39.26q-.78-.53-1.07-.96-.54-.64-.67-1.32l.26-1.57q.09.3.23.36.27.12.26-.17-.08-7.23.05-14.05.04-2.3-.96-4.28-3.29-6.58-6.15-12.69-.13-.28-.4-.12-.31.19-.04.34l-.97-1.34q.16-1.5-.5-2.02-7.12-5.65-14.28-11.23-.15-.12-.29-.55.34-.07.55-.49l12.68 9.97q1.04.82.45-.37l-7.18-14.62q.68-.01.99-.25M157.45 233.95l9.11 18.75-.25 1.62-.36 6.89q-.02.5.31.88 2.49 2.75 6.02 4.47l1.54 1.01 9.27 19.09q-.88-.28-1.06.31l-2.08-1.88q.02-.53-.24-1.24.31.34.57.36.54.04.3-.45l-6.24-12.29q-.73-1.02-1.01-2.18l-6.79-5.42q-.42-.33-.48.2-.56 5.29.06 6.81 1.38 3.38 2.38 4.1 2.55 1.85 4.97 3.8.37.52.79.75-.01.56.52.4l.39.27q-.21.39.25 1.34l-.95-.55q-.5-.72-1.14-.97l-4.11-3.28q-.78-.63-.34.28l4.49 9.26-.18 1.7-8.94-18.21q.53-.21.35-1.46.73-2.75.18-5.57-.09-.5-.51-.79l-4.24-2.99-1.13-.42q-.54-1.11-1.41-1.31-7.83-1.73-15.73-3.43-2.5-.53-4.15-1.86-6.68-5.37-13.43-10.57-.2-.16-.04-.37l.18-.23q.26-.33.59-.07 6.59 5.02 13.21 10.37 1.62 1.31 4.02 1.83 6.94 1.51 14.18 2.89l1.78.17 6.09 4.83q.73.57.73-.35l.05-7.61q.01-1.08-.82-1.76l-14.66-11.87q.6.02.82-.36l12.63 10.01q1.24.98.54-.44l-7.09-14.47z"/><path fill="#7c017c" fill-opacity=".996" d="m158.1 255.96-1.78-.17-13.4-10.6q.68-.1.8-.53zM183.01 250.83q-.1 6.73.04 13.55.05 2.6 1.15 4.97 2.85 6.11 5.82 12.09l-.26 1.57q-3.46-6.7-6.56-13.48-1.1-2.39-1.16-5.01-.18-7.46 0-15.03zM166.56 252.7l7.26 14.87-1.54-1.01-5.97-12.24zM160.03 258.96l4.57 9.35q.18 1.25-.35 1.46l-5.35-11.23z"/><path fill="#fafc03" fill-opacity=".996" d="m174.34 271.47.16 7.86q-.04.09-.24.2-.42-.23-.79-.75l-.14-9.49q.28 1.16 1.01 2.18"/><path fill="#7c017c" fill-opacity=".996" d="M174.78 279.93q-.53.16-.52-.4.2-.11.24-.2.27.15.28.6"/><path fill="#fafc03" fill-opacity=".996" d="m174.47 280.99-.05 7.82q-.38-.3-.89-.07l-.34-.76.18-1.7-.04-6.26q.64.25 1.14.97"/><path fill="#7c017c" fill-opacity=".996" d="m175.17 280.2 4.54 3.65q.26.71.24 1.24l-4.53-3.55q-.46-.95-.25-1.34M191.5 285.29l-.01 18.49q-.84-.94-1.19-2.29.92 1.67.29-1.17-.14-.59-.13-1.15.1-7.47-.03-14.84.29.43 1.07.96"/><path fill="#fafc03" fill-opacity=".996" d="m183.09 286.66 7.21 14.83q.35 1.35 1.19 2.29l.02 19.95q-.57.3-1.02.06-3.71-7.54-7.35-15.29-1.04-2.2-1.07-4.64-.11-8.44-.04-16.89.18-.59 1.06-.31m7.63 34.33q-.26-6.86-.1-14.27.04-2.22-.91-4.1-2.96-5.83-5.91-12.31-.72-1.57-.72.16 0 6.88-.11 13.32-.04 2.21.85 4.03 3.16 6.54 6.44 13.09.11.22.36.2.11-.01.1-.12"/><path fill="#7c017c" fill-opacity=".996" d="m174.42 288.81-.01 17.99-.14.5q-.28.1-.76-.02l.02-18.54q.51-.23.89.07M180.84 323.47q.49 1.39 1.96 2.41-.47.16-.76-.02l-14.23-11.2a5.64 5.59 6.3 0 1-1.56-1.93l-7.88-16.23q-.14-.28.14-.42l.32-.15q.3-.15.45.15 3.67 7.46 7.29 15.11.84 1.78 2.72 3.28 5.62 4.49 11.55 9"/><path d="M174.41 306.8q.13.4-.02.91-.01-.2-.12-.41z"/><path fill="#fafc03" fill-opacity=".996" d="M174.27 307.3q.11.21.12.41l8.86 18.22q-.38.11-.45-.05-1.47-1.02-1.96-2.41l-7.33-16.19q.48.12.76.02"/><path d="m191.51 323.73.03 19.3h-1.1q-.44-.63-.61-1.24.3-.28.46-1.54l.2-16.46q.45.24 1.02-.06M182.8 325.88l.57 2.53q-.12-.03-.25-.05-.04-.01-.04.03-.05 7.05-.11 14.22-.02 2.19 1.12 4.56 3.13 6.55 6.29 13.08l-.11 1.77q-3.74-7.24-7.09-14.62-1.11-2.45-1.16-5.16-.16-8.08.02-16.38.29.18.76.02"/><path fill="#7c017c" fill-opacity=".996" d="m183.25 325.93 7.04 14.32q-.16 1.26-.46 1.54l-6.46-13.38-.57-2.53q.07.16.45.05"/><path fill="#fafc03" fill-opacity=".996" d="m191.54 343.03-.05 19.7-.97.01-.25-.72.11-1.77.06-17.22z"/><path d="m191.49 362.73-.05 19.27h-.83l-.09-19.26z"/></svg>