<svg xmlns="http://www.w3.org/2000/svg" viewBox="0 0 382 382"><g fill="none" stroke-opacity=".996" stroke-width="2"><path stroke="#7e7e81" d="m14.46 10.83-.9.18M32.18 1.74q-.52-.57-.76-1.74M48.85 14.59l.7-.89M52.32 52.8l.07 1M102.26 122.61q.49.28.86.26M93.95 166.04l-.97-.08M22.14 58.47q-.33.11-.97.93M42.75 55.57q.15.77 2.05.42M47.46 54.87q.07-.16.01-.37-.03-.13-.15-.2-.15-.09-.25-.08M45.31 54.69l-1.09.25M23.84 37.08l.8-.42M32.89 34.11q-1.05-1.09-1.35-1.82M22.49 19.52q.66-.14 1.32.2M22.29 17.66q-1.5.26-2.02-.61M48.67 53.88q.05.56.57.72M50.8 54.15q.35-.28.25-.64-.09-.33-.16-.34M92.83 92.22q-.27-.28-1.04-.46M118.38 104.09q-.22.28-.95.09M125.33 113.72l-.45.54M123.93 113.25q.98-.89.71-.5M142.72 138.54q-.25-.48-.93-.21M142.82 144.14q-.18.93-.05 1.5M142.73 122.33q-.55-.24-.61-.65M151.79 109.33q-.55.01-.78-.1M152.05 104.91q-.28-1.22-1-.92M152.11 103.3q-.59.13-1.03 0M167.12 136.02l-.01.96M151.83 237.43q-.79.12-.92-.3M142.73 250.14l-.98-.2M69.39 0q.21.73.42.86M80.36 12.23q-.11.5-.36.77M79.56 16.96q.36.58-.02 1.14M84.47 4.76q-.41.58-.44.93M93.96 8q-.03.29-.95.24M103.21 9.29q-.71-.31-1.04-.27M96.04 8.65l-.07-1.16M166.19 2.88q-.4 1.05-.02 1.68M167.2 4.71q-.27.85-.13 1.5M170.02 16.26q.09.7.76.96M171.85 18.8q.14.76 1 1.5M191.74 14.64q-.65-.93-.07-1.48M199.75 14.02q.11-.65.03-1.14M197.9.99q-.07-.48-.65-.57M216.64 6.22q.55.69.94.45M221.02 1.79q-.41-.98-1.06-.84M220.98 0q1.11.49.48.41M228.56 26.96h-.9M216.88 7.63q-.27-.64-.93-.46M200.79 13.27q.15.33.05 1M200.75 48.26q-.51.66-.94.73M192.38 53.72l-.64-1.02M191.45 47.2q-.55 0-.93-.16M173.07 22.79q.01-.82-1-1.15M168.72 16.82q-.5-1.39-1.08-1.44M191.66 28.03q-.07.32-.26.47-.11.09.03.1.16.01.32.06M264.71 21.08l.16 1.28q.04.37.41.32.16-.02.3-.13.3-.24.2-.58M267.08 21.28q.54.01 1.13-.28M271.25 5.21l-.89-.35M265.95 3.25q-.15-.63.2-.89M271.12 3.9q.63.09.8.25M276.74 5.96q.24.87.71.89M289.08 4.66q.27.16.96.22M294.89 12.11q.01.38.43.95M277.64 19.54l-.04.91M277.55 21.94q-.78.21-1.32.12M268.14 22.6l-1.15.4M256.44 64.14l-1 .55M264.64 1.8l.04.92M296.14 10.56q.05 1.78.78.69M300.62 6.15l1.27-1.73M310.23 6.91l.09.9M268.15 51.56l-.86-.58M267.77 36.31q-.52-.19-1.04-.75M326.25 2.31q-.66-.53-.86-2.19M88.16 9.77q-.68.38-1.12.04M210.12 17.01q-.58 0-1.11.17M94 9.36q-.56-.17-1.02.36M89.02 10.93l-1.07.25M81.16 17.27l-.01 1.29M84.43 24.74q-.43.44-.45.98M49.09 12.63l-.83 1.04M93.94 38.07q-1.22.23-1.14-1.83M92.74 22.5q1.56-.14 1.37-2.17M20.83 18.84l-.94-.25M14.64 26.45l-1-.3M150.73 30.66l.21 1.07M151.69 29.69l-.61-.06M199.54 52.25l.44-1.1M208.87 38.86l.76-1.05q.28-.39-.07-.73-.19-.18-.55-.33M18.07 27.75q-.18.42-.1.99M15.71 28.26q-1.76-1.01-3.63-1.33M20.83 28.62q-.97.07-.96-.3M171.93 28.44q-.1.79 1.1.34M167.29 36.66q-.43.97-.17 1.52M167.1 43.91l-.56.89M165.99 44.59l.08-1.06M152.2 32q-.2-.57.07-.89M111.05 59.13q.34.66.43 1.57M112.81 64.19q-.97.5-1.52.24M22.72 35.77l1.37-.34M20.97 29.86q-.42-.31-1.01-.07M3 43.07q.08-.5-.41-1.12M15.13 38.04q1.69.12 2.37-.92M2.85 32.23q.11.4-.15.75-.16.2-.42.13M228.62 42.78q-1.09-.14-1-.66M184.97 34.76l-.42 1.78M151.94 39.11q-.81-.08-1.08-.37M111.55 80.59q.38-.09.32-.8-.05-.6-.66-.73M7.69 35.46q-.52-.6-1.73-.53M154.99 43.28q.09.32.37.56M155.44 45.87l-1.06-1.37M152.12 41.23q-.12-.39-1.05-1.27M185.94 37.01q-.23.74-.17 1.41M185.67 43.83q-.88-.03-1.02.27M259.26 64.1q-.27.11-.53.36-.38.35-.77.03-.3-.25-.24-.7M197.23 52.96q.88-.42.65-1.14M200.68 65.21l.32 1.07M200.94 81.78q-.92 0-1.47-1.04M199.21 65.68q.08-.48-.44-.99M193.2 61.15l-.64.46M191.73 63.04h-1.42M190.28 58.71q.49-.69-.13-2.03M189 54.72q-.8-.61-1.24-1.69M185.9 45.06q-.7.04-1.1.31M185.49 52.19q.42-.09 1.02 1.46M239.59 69.9l-.83.53M230.36 73.02q-.25.36-.63.56M228.74 73.75q-.99.41-.82 1.04M151.69 45.81q-.35-.36-.72-.32M188.93 57.39q.08-.98-.72-1.14M289.06 64.14q-.37-.17-.53-.32-.09-.09-.09-.24 0-.14.05-.25M176.24 89.19q-.38 1.29.51 1.34.88.04 1.24.38M175.5 91.62q.27-.42.04-.96M208.92 98.48q.31 1.38 1.19 1.45M218.44 97.07q.1-.16.74-.21M233.44 82.46l.87.07M219.27 97.98l-1.25.42M218.25 103.78q.65-.11 1.17.01M210.12 132.61q-.13-.14-.92-.17M198.74 117.03q-.56.43-.66.84M200.84 161.75q-.44.22-1.04.04M191.45 174.54q-.43.09-.91-.02M175.76 121.66q.45-.14.26-.85M190.4 125.73q.1.87.64.91.5.04.55-.46l.16-1.56M191.63 118.41l.07-2.58M197.36 116.64q.95-.72.62-1.17M199.67 99.6q.42-.92-.01-1.78-.98-1.95-2.48-3.59M196.79 93.79q-1.91-3.88-2.93-2.2M191.87 94.94q-1.26.02-1.6-1.1M190.02 90.08q.59-1.16.28-2.05-.1-.28-.54-.66-.9-.79.08-1.04M191.76 92.01q-.26.22-.43.39-.3.3.09.25.19-.03.28-.17M193.2 90.65q1.1-1.77-1.36-3.71-.38-.29-.23.16.42 1.22-.12 1.6M256.74 65.84q-.9-.1-1.46.37M240.56 71.08q-.69-.05-1.05.43M234.68 76.05q-.15.04-.23.28-.06.18.02.33.15.28.49.52M233.36 76.51q.19-.51-.1-.99M231.27 74.28q-.66-.08-.94.39M210.02 84.71l-.9.07M256.36 67.92l-.99-.16M76.18 70.7q-.57.26-1.12.3M247.21 80.78q-.4-.28-.48-.93M78.74 74.91l-.65.71M77.34 74.26q.62-.46.86-.99M76.94 72.09q-.43-.35-.98.2M247.17 96.79q-.36.05-.91-.08M237.96 99.69q-.16-.2-.7.39M188.02 88.14q-.05-.86-.57-1.16M261.97 107.48l-.44-.49M253.08 109.85l-.98.3M247.23 111.97q-.28.39-.14.96M181 90.15l-2-.57M190.32 116.3q.21-.39.07-1.06M185.79 108.95l-1.04.32M178.81 111.04l-.83.19M177.11 109.97q.47.14 1.06-.2M184.74 107.82q.21.11.51.08.36-.03.41-.33M286.56 121.25l-.96-.11M252.95 111.01l-1 .34M103.18 121.86l-1.21-.42M277.36 150.02l-.93-.02M26.14 136.58q-.39.36-1.58.47M243.09 197.74q.21-.46-.06-.94M276.36 159.76l-.06 1.06M276.27 164.45q-.11.68.02.98a.57.57 0 0 0 .69.32q.47-.15.47-.4M222.3 167.85q.33.19.89.26" vector-effect="non-scaling-stroke"/><path stroke="#0101fe" d="m227.69 162.59.94-.88" vector-effect="non-scaling-stroke"/><path stroke="#7e7e81" d="m228.6 186.53-.93.05M222.39 169.2l-.91-.33M210.13 176.42q-.94.43-1.14-.28M200.23 178.74l-.9 1.34M200.32 192.57q-.25 1.61-1.79-.47M193.25 188.73q-.91.29-.89.94M191.5 190.96l-1.33-1.38M189.99 185.77q.24-.99.47-.91M190.25 180.07q.16-.3.22-.85M191.68 179.54q-.12.43.21 1.22M197.13 180.71q.66-.23.66-1.28M227.39 162.22q.53-.67.1-1.61M41.31 150.13q-.09.47.85.95M41.2 152.16l-1.86-2.63M25.92 138.09l-1.66.49M14.68 143.11q-.33.19-.62.58M6.56 156.34q-.32.45-.07 1.13M6.26 162.47q-.24.6-.06 1.24M5.08 163.9q.27-.26-.1-.86M5.22 157.92q.12-.43.07-1.16M.77 158.03q-.33.39-.04 1.16M13.55 140.5q.72-.11 1.18-.41M33.17 180.31q-.54.7-1.19.37M277.37 159.15l.08 1.05M167.13 171.7q-.52.85-1.13.46M166 172.16l.07-.92M185.69 177.38q-.24-.14-.87-.16M118.31 217.45q-.34-.62-.96-1.09M78.25 186.73l-.1-.89M62.27 181.45q.17-.69-.87-1.32M219.34 189.07q-.16.44-.9.58M176.08 184.75q-.23.24-.42 1.03M22.92 193.56l-.48-.71M191.5 190.96l-1.02.01M204.77 194.16q-.47.38-.64.93M203.02 194.55q.02-.2.42-.64M233.27 200.05l1.61-.46M234.65 200.79l-1.43.48M228.25 202.95q-.73-.59-.62-2.28M190.29 221.57q.47.52 1.44.44M191.85 234.71q-.43.13-.12 1.43M194.49 248.36q-.09.35-.54.7M192.16 251.41q-.65.86.06 1.78M191.64 253.63q-.1-.22-1.07 1.07M160.82 244.78l.63-1.32M190.01 249.7q.43.11.53-.95M189.97 235.17q.35-.18.46-.43.18-.37-.17-.75M191.47 206.47q-.5-.13-.97-.01M210.05 227.5q-.52.21-.98 1.41M200.63 246.97q-.24.36-.69.59M195.22 249.53q-.22.31-.44.61M198.65 255.9q.27.78 1.19 1.59M219.35 247.22q-.35-.42-.91-.24M206.08 254.4q.07.71.56.78M209.63 259.3q.08.39-.03.66-.24.61-.7.15l-.85-.84M205.88 256.41q.07-.36-.63-1.11M200.5 289.38q-.34-.06-.69.14M191.53 286.52l-1.02-.06M199.84 257.49q.54-.26.82-.75M194.59 312.17l-.63.91M191.54 316.55q.46 1.07-1.05 1.44M200.5 305.1q-.37.06-.68-.16M195.2 313.38q-.17.4-.47.67M191.5 334.14l-1 .07M191.51 350.01l-1.01-.02" vector-effect="non-scaling-stroke"/></g><path fill="#0101fe" fill-opacity=".996" d="m6.77 0 7.69 10.83-.9.18q-.61-1.08-1.4-1.77-.39-.34-.88-.2L0 12.32v-.99l10.72-3.25q.69-.21.27-.79L5.77 0z"/><path fill="#0101fe" fill-opacity=".996" d="m14.34 0 8.84 3.58a3.24 3.21 83.1 0 1 1.39 1.1l7.42 10.39q.39.55.38-.12l-.19-13.21q-.52-.57-.76-1.74h2.75l-.22 26.3q0 .57.54.75l7.61 2.54a1.04 1 79.9 0 1 .48.35l7.61 10.57a.3.3 0 0 0 .49 0L53.17 37q.35-.48.34-1.07-.01-5.98.07-12.91.02-1.74-1.14-3.55-1.63-2.54-3.59-4.88l.7-.89 4.58 6.46q.33.46.32 1.02v15.25a1.68 1.66-27.3 0 1-.32.98l-2.75 3.83q-.36.5.01.98l.53.68q.29.39.29.87l.11 9.03.07 1c-.41 2.51-.51 4.89 1.05 7.05q8.62 11.91 16.86 23.53a1.36 1.36 0 0 1-.02 1.62L51.6 110.5a.5.49-44 0 0-.02.58l7.8 11.83a3.17 3.14 29.7 0 1 .52 1.86l-.29 7.27a.97.96-80.4 0 0 .67.95l11.09 3.56q.78.25.3-.42l-2.77-3.84q-.32-.44-.32-.98l.01-15.41q0-.24.24-.25l.33-.01q.38-.02.39.36.13 6.53-.01 13.88-.03 1.56.85 2.81 1.75 2.47 3.26 4.34a2.17 2.14 79.6 0 0 .97.68l5.93 2.02a.34.34 0 0 1 .22.4l-.08.35q-.14.67-.79.44l-4-1.4q-.79-.28-.3.41l2.78 3.88q.31.44.83.62l13.73 4.64q.37.13.6-.19l8.39-11.76a1.64 1.64 0 0 0 .31-.96l.02-13.55q.49.28.86.26l.07 13.61a1.91 1.87 63.3 0 1-.35 1.1l-8.55 11.96q-.31.43-.31.96l-.03 15.54-.97-.08-.07-15.35q0-.47-.44-.61l-13.66-4.67q-.53-.18-.89-.61-1.65-1.99-3.72-5.08-.59-.9-1.61-1.25-6.01-2.07-12.44-4.47a.51.51 0 0 0-.69.45c-.06 1.72.33 4.98-.73 6.38q-4.47 5.92-9.3 11.95-.09.12-.22.04l-.26-.15a.44.43-55.8 0 1-.12-.64L58 140.09q.34-.43.36-.98l.2-5.1q.02-.58-.53-.77l-7.01-2.42a.81.8-61.1 0 0-.9.27l-9.06 11.71a.38.37 41.7 0 1-.56.03l-.24-.24q-.16-.17-.02-.35l9.38-12.14q.46-.59 1.17-.35l7.23 2.39a.46.46 0 0 0 .6-.41l.29-7.14a1.72 1.66-61.5 0 0-.28-1l-7.75-11.74a.35.35 0 0 0-.57-.03l-8.77 11.35q-.28.37-.6.03l-.2-.21q-.19-.19-.02-.4l8.11-10.45q.46-.59-.26-.38l-27.52 8.23a.75.75 0 0 0-.54.69l-.53 14.68a.44.44 0 0 1-.46.42l-.36-.02q-.19-.01-.18-.2l.59-15.29a1.23 1.22-7.3 0 1 .88-1.13l28.83-8.66a2.66 2.59-78.8 0 0 1.32-.91l7.68-9.86a.29.29 0 0 0-.31-.45l-11.86 3.52q-.99.29-1.97-.05l-13.89-4.76a.35.34 18.2 0 1-.22-.43l.1-.3q.1-.33.43-.22l14.18 4.85a1.56 1.53 45.6 0 0 .94.02l13.72-4.12q.71-.22 1.16-.8l8.61-11.08a.71.7-43.9 0 0 .02-.85q-8.3-11.59-17.33-24.22c-1.28-1.79-4.24-2.22-6.2-3.04a.36.36 0 0 0-.49.33l.04 7.19a.4.4 0 0 1-.52.39l-.28-.08q-.2-.06-.2-.26l-.03-7.38q0-.61-.58-.81l-21.3-7.3q-.69-.24-1.14.34l-2.2 2.86q-.34.44-.11.96 1.21 2.6 3.29 4.45-.33.11-.97.93l-3.16-4.12a.5.49 44.7 0 0-.79 0l-4.93 6.43q-.23.3-.53.08l-.28-.22q-.22-.16-.05-.38l5.24-6.83q.34-.44.02-.89l-4.91-6.75a.68.67 49.4 0 1 .06-.86l.26-.27q.28-.28.52.04l4.92 6.85q.32.44.64.01l2.55-3.37a1.14 1.13-62.1 0 1 1.25-.39l20.77 6.84q.15.77 2.05.42 2.2 1.63 4.83 2.05.61.09.21-.38l-2.38-2.79q.07-.16.01-.37-.03-.13-.15-.2-.15-.09-.25-.08l-1.24-2.21q-.31-.55-.54.04-.43 1.08.02 2.64l-1.09.25-.04-4.32a.83.82 9.4 0 0-.56-.78l-13.55-4.65q-.5-.17-.81-.6l-5.42-7.51.8-.42 4.86 6.84a2.31 2.28 81.5 0 0 1.13.85l11.75 3.99q1.08.37.36-.52-.35-.44-.47-1.02-.21-.99.6-.39.9.67 1.04 1.72a.6.6 0 0 0 1.09.28l4.48-6.23q.34-.47 0-.95l-6.92-9.63q-.33-.47-.87-.66l-7.3-2.54q-.51-.18-.49.36.05 1.69 0 3.23-.06 1.73-1.01 2.12-1.05-1.09-1.35-1.82l-9.05-12.77q.66-.14 1.32.2l3.34 4.54q.3.41.79.58l3.54 1.19q.71.23.7-.51v-7.74q0-.73-.43-1.34L23.99 5.6q-.33-.46-.88-.65l-7.42-2.57q-.64-.22-.64.45c0 2.63-.52 3.92 1.31 6.37q3.07 4.12 5.93 8.46-1.5.26-2.02-.61L14.8 8.69a1.4 1.36-9.9 0 0-.88-.6q-.96-.19-.77-1.03.14-.62-.23-1.14L8.65 0zm-3.17.83a.34.34 0 0 0-.39.52l2.58 3.69a.34.34 0 0 0 .62-.19l.07-2.79a.34.34 0 0 0-.24-.34zM29.1 27.01l2.74 3.75q.26.37.35-.07.77-3.76-2.92-3.99a.2.19 73.8 0 0-.17.31m19.57 26.87q.05.56.57.72.16 1.41 1.08 2.01.47.31.62-.23.29-1.11-.14-2.23.35-.28.25-.64-.09-.33-.16-.34l.01-9.66q.01-1.6-.93-.3l-4.17 5.82q-.31.43-.08.92 1.07 2.31 2.95 3.93"/><path fill="#fafb03" fill-opacity=".996" d="M31.42 0q.24 1.17.76 1.74-3.02-.39-4.24-1.74zM48.98 0l1.29 1.51q.4.46.99.66l19.93 6.85q.5.17.27-.3-.94-1.98-2.43-3.55-1.3-1.38-.54-5.17h.9q.21.73.42.86c-.06 1.37-.24 2.69.58 3.85q1.72 2.42 3.48 4.8.33.44.84.63l5.65 2.09q-.11.5-.36.77l-4.02-1.3q-.45-.14-.23.28 1.42 2.72 3.81 4.98.36.58-.02 1.14-1.7-.57-2.04-1.11-1.94-3.14-4.36-5.99-.32-.38-.8-.54-10.81-3.7-21.59-7.4-1.76-.6-2.54-3.06z"/><path fill="#0101fe" fill-opacity=".996" d="M59.14 0q.43.26.52.53a.41.41 0 0 1-.41.54Q55.68.8 57.73 0zM70.86 0l13.61 4.76q-.41.58-.44.93L69.81.86Q69.6.73 69.39 0z"/><path fill="#fafb03" fill-opacity=".996" d="m93.93 0 .03 8q-.03.29-.95.24L92.99 0zM103.31 0l.22 4.67q.03.53.53.37l6.42-2.03q.51-.16.62.36l.08.36q.11.48-.37.62l-6.63 1.96q-.51.15-.6.68l-.37 2.3q-.71-.31-1.04-.27l-.08-1.58a.42.42 0 0 0-.54-.38l-5.51 1.59-.07-1.16 5.56-1.7q.49-.15.48-.66L102 0z"/><path fill="#0101fe" fill-opacity=".996" d="m163.75 0 2.44 2.88q-.4 1.05-.02 1.68L162.86 0z"/><path fill="#fafb03" fill-opacity=".996" d="m167.04 0 .16 4.71q-.27.85-.13 1.5l.08 4.72q.02 1.74.81 2.92.88 1.33 2.06 2.41.09.7.76.96.11 1.32 1.07 1.58.14.76 1 1.5l3.14 4.59q.3.44.81.62l13 4.44a.41.41 0 0 0 .54-.38l.19-11.83q.01-.57-.54-.76l-4.48-1.51a.64.62 14.7 0 1-.42-.7l.06-.29a.49.48 18.5 0 1 .7-.34q2.53 1.29 5.58 1.38.47.01.63.46l.12.32q.06.15.21.21t.28-.01q.26-.13.1-.36l-1.03-1.5q-.65-.93-.07-1.48c1.41 1.56 2.32 3.56 4.14 4.42q1.34.63 2.98.91a.77.77 0 0 0 .9-.75l.06-3.72q.11-.65.03-1.14l-.03-10.16q0-.51-.38-.86-.6-.56-1.47-.87-.07-.48-.65-.57 1.08-.14 1.02-.42h1.2c.43.4.81.85 1.39 1.04q5.19 1.7 10.02 3.44.82.3.33-.43L208.47 0h1.02q1.82 2.43 3.6 4.92.79 1.11 3.55 1.3.55.69.94.45l8.57 2.86q.52.18.2-.27l-5.33-7.47q-.41-.98-1.06-.84.05-.48.27-.95h.75q1.11.49.48.41l6.79 9.75a1.48 1.46-63 0 1 .27.85l.04 15.95h-.9l-.01-15.03a.9.9 0 0 0-.61-.85l-10.16-3.45q-.27-.64-.93-.46l-14.53-4.86q-.47-.16-.48.34l-.15 10.62q.15.33.05 1l-.46 5.29q-.05.52-.56.65-1.07.28-1.48 1.31-.19.5.16.9c1.33 1.55 2.2 2.7 2.26 4.91q.32 10.42-.01 20.93-.51.66-.94.73l-.03-5.03q-.01-.52-.31-.1l-7.09 9.86-.64-1.02 7.46-10.29q.34-.48.35-1.07c.04-2.65.72-6.77-.95-9.01q-1.9-2.57-3.59-4.97-.44-.63-.88.01-.81 1.17-1.65 2.29-.81 1.08-.75 3.28.21 7.18-.28 14.26-.55 0-.93-.16l-.25-15.31q-.01-.54-.52-.71l-13.54-4.65a1.66 1.61-8.5 0 1-.74-.53l-2.4-3.05q.01-.82-1-1.15l-3.35-4.82q-.5-1.39-1.08-1.44-2.42-4.15-1.47-10.82-.38-.63.02-1.68L166.18 0zm29.49 22.28a.69.66 50.3 0 0 .05-.66q-1.47-3.2-4.46-4.01-.51-.14-.61.38c-.51 2.81 1.21 4.43 2.62 6.49q.43.62.86 0zm.44-1.98q.15.25.42.4.54.29.48-.32-.1-1.01-1.28-1.21-.78-.14-.24.44c.22.24.43.4.62.69m-5.31 7.73q-.07.32-.26.47-.11.09.03.1.16.01.32.06l1.82-2.23q.39-.48.04-.99l-1.7-2.53q-.5-.75-.46.15zm3.77-2.47q-.22.31 0 .62l3.97 5.64q.51.73.46-.16-.14-2.13-.04-4.43c.08-1.8-1.2-2.86-2.11-4.22a.25.24 45.7 0 0-.4-.01z"/><path fill="#0101fe" fill-opacity=".996" d="m191.48 0 .19 13.16q-.58.55.07 1.48-.4.13-.69.11-.55-.03-.55-.58L190.54 0zM219.14 0q.49.33.39 1.37-.04.32.19.09.16-.15.24-.51.65-.14 1.06.84l-3.44 4.88q-.39.24-.94-.45 2.19-2.46 1.27-6.22zM221.59 0q-.07.2-.13.41.63.08-.48-.41z"/><path fill="#fafb03" fill-opacity=".996" d="m256.39 0 .14 9.05a1.61 1.6-63.2 0 0 .29.89l7.89 11.14.16 1.28q.04.37.41.32.16-.02.3-.13.3-.24.2-.58.76-.09 1.3-.69.54.01 1.13-.28l7.41-2.51q.53-.18.53-.74l.02-10.26q0-.56-.53-.74l-4.39-1.54-.89-.35-4.41-1.61q-.15-.63.2-.89l4.97 1.54q.63.09.8.25l4.82 1.81q.24.87.71.89l.03 10.3q0 .49.49.47 1.99-.11 3.01-1.6 3.92-5.75 8.1-11.36.27.16.96.22l-7.9 11.21q-.3.43.2.26l12.55-4.24q.01.38.43.95l-17.68 6.48-.04.91-.05 1.49q-.78.21-1.32.12l-.08-1.64q-.03-.57-.57-.38l-7.44 2.56-1.15.4q-1.19-.04-1.86.88-5.93 8.23-11.82 16.5-.32.45-.32.99l.03 4.95q0 .54.32.96c1.61 2.1 3.08 3.34 3.1 6.32q.05 5.27 0 10.54l-1 .55q.02-6.15-.02-11.73c0-1.44-.78-2.33-1.52-3.44q-.82-1.24-.85.25l-.1 6.59a.29.29 0 0 1-.28.28l-.31.01q-.33.02-.33-.32l-.02-8.73q0-.54-.31-.98l-.87-1.25a.65.65 0 0 0-1.06-.01l-2.51 3.44q-.19.26-.46.08l-.25-.16q-.28-.18-.09-.45l2.84-4.03a.89.88-45.4 0 0 0-1.03l-2.79-3.84a.39.39 0 0 1 .15-.58l.3-.14q.32-.14.48.17 1.25 2.38 3.13 3.85a1.14 1.13-70.9 0 1 .43.89l.01.9q0 .57.46.25.51-.35.43-1.02-.06-.53-.43-.87-.15-.13-.25-.29-.33-.49.02-.98l13.05-18.26q.36-.5 0-1.01l-8.28-11.55q-.3-.42-.31-.93l-.17-9.8z"/><path fill="#fafb03" fill-opacity=".996" d="M261.21 0q1.24 1.31 3.43 1.8l.04.92q-3.51-.5-4.32-2.72z"/><path fill="#0101fe" fill-opacity=".996" d="m265.58 0 .57 2.36q-.35.26-.2.89l-.17 18.72q.1.34-.2.58-.14.11-.3.13-.37.05-.41-.32l-.16-1.28-.03-18.36-.04-.92q.07-1.15.47-1.8zM274.76 0q-.98 2.18-2.84 4.15-.17-.16-.8-.25l2.71-3.9zM282.13 0l-4.68 6.85q-.47-.02-.71-.89L281.06 0zM290.04 0v4.88q-.69-.06-.96-.22L289.2 0z"/><path fill="#0101fe" fill-opacity=".996" d="m295.98 0 .16 10.56q.05 1.78.78.69 1.7-.21 3.14-1.01.45-.25.47-.77l.09-3.32 1.27-1.73.18 4.68q.02.53.53.36l7.63-2.55.09.9-7.82 2.8q-.55.2-.56.79l-.01 1.86q0 .59.56.76l7.6 2.32q.69.21 1.36-.03l12.95-4.45q.9-.31 1.46-1.09L333.5 0h1.54l-8.19 11.65q-.39.56-1.04.78-6.83 2.38-13.53 4.66c-2.58.88-7.24-1.25-9.84-2.05a.41.4-81.5 0 0-.52.39l.01 4.56q0 .5-.29.9l-8.75 12.25q-.34.47-.89.66l-13.91 4.75q-.92.32-1.49 1.12l-8.45 11.89-.86-.58 8.68-12.09a.76.74 45.5 0 0 0-.87l-2.33-3.27q-.31-.42-.8-.25l-5.07 1.81q-.52-.19-1.04-.75 2.17-1.48 5.07-2.32a.45.45 0 0 0 .24-.7l-4.61-6.5q-.33-.45-.35-1.01l-.09-2.03 1.15-.4.1 2.37q.02.51.31.92l4.44 6.28q.37.52.99.34l1.54-.45q.66-.2.66-.89l.05-9.11q.54.09 1.32-.12l.1 8.71q0 .63.61.44l4.17-1.3q.3-.09.39.2l.12.37a.48.47-19.4 0 1-.29.6l-4.41 1.59q-.62.23-.62.89l.01 3.8q0 .42.4.28l12.9-4.42a1.73 1.72-81.7 0 0 .84-.63q3.96-5.6 7.78-10.84c1.53-2.1 1.09-4.2 1.01-6.51q-.02-.57-.58-.73l-4.66-1.33q-.42-.57-.43-.95L294.9 0zm2.04 12.76c.7.29 1.45.33 2.19.6a.35.35 0 0 0 .47-.35l-.09-1.22q-.05-.57-.58-.36l-1.99.81q-.63.25 0 .52m-21.83 22.99.01-1.73a.58.58 0 0 0-.62-.59q-.6.04-.89.5-.19.32.03.64.48.69.97 1.35.49.65.5-.17"/><path fill="#fafb03" fill-opacity=".996" d="m304.78 0-2.89 4.42-1.27 1.73-3.7 5.1q-.73 1.09-.78-.69L303.75 0z"/><path fill="#0101fe" fill-opacity=".996" d="M326.36 0q.49.01.79.13.51.2.2.64l-1.1 1.54q-.66-.53-.86-2.19l-.08-.12z"/><path fill="#fafb03" fill-opacity=".996" d="M357.2 0q.67.75-.46 1.41-1.33.77-.79-.67.08-.22.79-.74zM326.25 2.31l-15.93 5.5-.09-.9 14.12-4.86q.5-.17.65-.67l.39-1.26q.2 1.66.86 2.19"/><rect width="16.06" height="1" x="-8.03" y="-.5" fill="#0101fe" fill-opacity=".996" rx=".48" transform="rotate(18.9 54.242 386.72)"/><path fill="#0101fe" fill-opacity=".996" d="M197.9.99q-.55 0-.65-.57.58.09.65.57"/><rect width="1" height="16.02" x="-.5" y="-8.01" fill="#0101fe" fill-opacity=".996" rx=".48" transform="rotate(-35.6 127.862 -358.812)"/><path fill="#fafb03" fill-opacity=".996" d="M382 1.95v1.03l-10.33 3.47a.23.23 0 0 1-.29-.13l-.12-.27q-.14-.33.2-.45z"/><path fill="#0101fe" fill-opacity=".996" d="M172.85 20.3q-.86-.74-1-1.5-.91-1.39-.32-2.02.32-.35.38-.82c.21-1.74.17-2.85-.9-4.34q-1.95-2.73-3.94-5.41-.14-.65.13-1.5 2.37 2.96 4.37 6.08 1.27 1.98 1.36 4.27.1 2.6-.08 5.24M271.25 5.21l-2.69 3.89q-.29.41-.29.91L268.21 21q-.59.29-1.13.28-.26-4.94-.06-9.88.08-1.94 1.11-3.49 1.04-1.55 2.23-3.05z"/><path fill="#fafb03" fill-opacity=".996" d="m84.47 4.76 3.69 5.01q-.68.38-1.12.04l-3.01-4.12q.03-.35.44-.93"/><path fill="#0101fe" fill-opacity=".996" d="m216.88 7.63-6.76 9.38q-.58 0-1.11.17l-8.17-2.91q.1-.67-.05-1l7.96 2.66q.62.21 1-.32l6.2-8.44q.66-.18.93.46M95.97 7.49l.07 1.16Q95 8.61 94 9.36q-.56-.17-1.02.36-2.16.2-3.96 1.21l-1.07.25-6.21 1.68q-.49.13-.64.61-.6 1.88.06 3.8l-.01 1.29q-.89 2.15-.4 4.31.11.5.59.68l3.09 1.19q-.43.44-.45.98l-2.82-1.05q-.68-.25-.7.48l-.08 3.17q-.01.33-.34.33h-.27q-.38 0-.37-.39l.17-3.55a.87.86 10.7 0 0-.59-.86l-9.72-3.29a.27.26 16.5 0 1-.17-.3l.07-.28q.12-.49.59-.33l9.3 3.17a.42.42 0 0 0 .56-.37l.2-3.91q0-.13-.08-.23l-.19-.21q.38-.56.02-1.14L80 13q.25-.27.36-.77l6.49-1.98q.14-.04.18-.18.04-.13.01-.26.44.34 1.12-.04 2.59-.36 4.85-1.53.92.05.95-.24.96.01 2.01-.51M49.09 12.63l-.83 1.04-3.72-5.29a.35.34-34.8 0 1 .09-.49l.27-.18q.28-.19.49.08zM103.21 9.29l-8.8 12.34a2.56 2.49 63.3 0 0-.46 1.46l-.01 14.98q-1.22.23-1.14-1.83l-.06-13.74q1.56-.14 1.37-2.17l8.06-11.31q.33-.04 1.04.27"/><path fill="#fafb03" fill-opacity=".996" d="m94 9.36.11 10.97q.19 2.03-1.37 2.17l-11.59-3.94.01-1.29 11.04 3.74q.48.16.63-.32.6-1.83-.15-2.86-2.33-3.21-4.73-6.65l1.07-.25 3.43 4.81q.35.48.36-.11l.17-5.91q.46-.53 1.02-.36M14.46 10.83l.26 3.95q.04.5.48.72 2.23 1.15 5.07 1.55.52.87 2.02.61 1.36.8 2.43 1.31 1.67.81-.18.93-.1.01-.73-.18-.66-.34-1.32-.2-.71-.7-1.66-.68l-.94-.25q-2.04-1.35-4.77-1.88-.5-.09-.49.41l.01 9.33-1-.3-.04-9.38q-.01-.59-.56-.8l-2.82-1.06q-.12-.05-.12-.17l-.02-.42q-.01-.38.35-.26l2.52.81q.7.23.68-.51l-.07-3.35zM382 28.13v.78l-15.8-4.44a1.67 1.63-10.2 0 1-.86-.58l-9.25-11.97a.5.49 52.7 0 1 .09-.7l.25-.19q.12-.1.21.03l9.33 11.99a1.62 1.61-10.2 0 0 .83.57z"/><path fill="#0101fe" fill-opacity=".996" d="M199.78 12.88q.08.49-.03 1.14l-5.22-1.8q-.41-.14-.15-.5l.17-.22a.35.35 0 0 1 .38-.12z"/><path fill="#fafb03" fill-opacity=".996" d="m49.55 13.7-.7.89-7.98 10.31q-.28.37-.58.01l-.22-.25q-.18-.21-.01-.43l8.2-10.56.83-1.04q.4-.57.74-.53a.39.39 0 0 1 .35.41q-.03.57-.63 1.19"/><path fill="#0101fe" fill-opacity=".996" d="M167.64 15.38q.58.05 1.08 1.44l-10.78-3.65q-.32-.11-.21-.43l.09-.27a.34.34 0 0 1 .43-.21z"/><path fill="#fafb03" fill-opacity=".996" d="m150.73 30.66.21 1.07-8.77-3.06q-.49-.17-.8-.59l-8.81-12.35q-.15-.22.04-.4l.24-.24a.36.36 0 0 1 .53.05l8.65 12.13q.31.43.8.6zM151.69 29.69l-.61-.06-9.15-12.79q-.12-.17.03-.32l.25-.22a.33.33 0 0 1 .49.04q6.86 9.43 8.95 12.52.19.28.04.83"/><path fill="#0101fe" fill-opacity=".996" d="M170.78 17.22q-.67-.26-.76-.96.57-.08.93.54.2.35-.17.42"/><path fill="#fafb03" fill-opacity=".996" d="m210.12 17.01.04 31.17q0 .55.32 1l8.6 12.05q.23.32-.09.55l-.27.19q-.2.14-.34-.06l-8.69-12.12q-.32-.45-.85-.29l-9.3 2.75.44-1.1 8.5-2.72a.72.71 81 0 0 .49-.68l-.1-8.89.76-1.05q.28-.39-.07-.73-.19-.18-.55-.33V17.18q.53-.17 1.11-.17M118.77 28.32q-.39-.57-.39.12l-.02 11.62q0 .42-.42.34l-.28-.05a.37.37 0 0 1-.3-.36l-.02-12.46a3.71 3.62 27.9 0 0-.68-2.12l-4.79-6.71q-.25-.35.1-.6l.25-.18q.22-.16.38.07c1.35 1.98 3.45 5.58 5.2 6.55q.4.22.55.66.81 2.4 2.74 4.66c.54.62.71 1.45.71 2.24q.05 7.04 0 14.56a.46.45-1.3 0 1-.44.45l-.28.02q-.26.01-.26-.26l.01-15.04q0-.55-.32-1.01z"/><path fill="#0101fe" fill-opacity=".996" d="m13.64 26.15 1 .3 3.43 1.3q-.18.42-.1.99-1.27-.7-2.26-.48-1.76-1.01-3.63-1.33l-8.61-3.02a.81.8-60.4 0 0-.89.25L0 27.38v-1.3l1.8-2.64q.3-.43.01-.87L0 19.9v-1.04q.1-.09.23-.12.2-.05.32.12l2.31 3.39q.3.44.79.6zM19.89 18.59l.94.25v9.78q-.97.07-.96-.3zM277.64 19.54l-.04.91z"/><path fill="#fafb03" fill-opacity=".996" d="M171.93 28.44q-.1.79 1.1.34L182 41.32q.14.2-.02.37l-.19.2a.37.37 0 0 1-.57-.04l-8.65-12.04q-.34-.48-.89-.31l-3.81 1.14q-.64.19-.63.86l.05 5.16q-.43.97-.17 1.52l-.02 5.73-.56.89-.55-.21.08-1.06-.1-11.76q0-.56-.54-.4-3.33.98-6.57 2c-2.27.72-4.59-.34-6.66-1.37q-.2-.57.07-.89l4.51 1.51q.46.16.92.02l7.69-2.29a.94.93-8.4 0 0 .67-.89l.08-8.5a.4.4 0 0 1 .39-.39h.28q.28 0 .29.28l.05 8.18q0 .7.68.52z"/><path fill="#0101fe" fill-opacity=".996" d="m173.07 22.79-.04 5.99q-1.2.45-1.1-.34l.14-6.8q1.01.33 1 1.15"/><path fill="#fafb03" fill-opacity=".996" d="M92.8 36.24q-.08 2.06 1.14 1.83l.06 8.57q.01.79.75 1.04l7.87 2.65a1.61 1.59-7.8 0 1 .8.6q2.51 3.49 4.98 6.9.57.8 2.65 1.3.34.66.43 1.57-.6-.54-.72-.56-1.21-.25-.34.62.79.79 1.74 1.49a1.28 1.24 15.1 0 1 .5.84l.15 1.1q-.97.5-1.52.24-1.12-1.96-2.52-3.82-1.28-1.69-2.88-2.22-4.57-1.5-8.71-2.94-.34-.12-.22-.46l.09-.25q.11-.33.44-.22l8.43 2.88q.72.24.28-.38l-3.4-4.75q-.43-.61-1.14-.86L94.74 49q-.72-.25-.73.51l-.05 4.3q0 .35-.35.36h-.3q-.37.01-.37-.36v-4.87q0-.53-.51-.7l-4.64-1.57a.51.51 0 0 1-.3-.7l.15-.33a.42.41 21.1 0 1 .51-.22l4.24 1.44q.55.18.55-.39l-.01-7.7a1.61 1.57-63.3 0 0-.29-.92l-8.66-12.13q.02-.54.45-.98zM15.71 28.26q2.73 3.86 5.42 7.62.47.66 1.59-.11l1.37-.34 6.24-1.82a.27.27 0 0 0 .02-.52l-9.38-3.23q-.42-.31-1.01-.07-.69-.72-1.99-1.05-.08-.57.1-.99l1.8.57q-.01.37.96.3l10.71 3.67q.3.73 1.35 1.82l-8.25 2.55-.8.42q-.81-.15-1.22.19-.42.34-.04.73.67.69 1.05 1.55a.48.48 0 0 1-.5.67c-2.75-.35-3.91-1.94-6.97-1Q9.76 41.19 3 43.07q.08-.5-.41-1.12l12.54-3.91q1.69.12 2.37-.92 1.4.09 2.33-.36.52-.26.18-.73l-5.72-8.02a.84.83 63.8 0 0-.93-.32Q8.4 29.24 2.88 30.85a.78.77-15.7 0 0-.54.95q.03.11.51.43.11.4-.15.75-.16.2-.42.13-.45-.91-1.39-1.34-.43-.21-.58-.66l-.31-1v-1.56l1.22 1.18q.36.34.83.2l10.03-3q1.87.32 3.63 1.33m5.24 9.89q-.55.25-.12.69a.39.39 0 0 0 .54.02q.46-.42-.02-.7a.44.43 45.7 0 0-.4-.01"/><path fill="#0101fe" fill-opacity=".996" d="m228.56 26.96.06 15.82q-1.09-.14-1-.66l.04-15.16zM191.66 28.03q-.03.29.09.63-.16-.05-.32-.06-.14-.01-.03-.1.19-.15.26-.47M184.97 34.76l-.42 1.78-5.4-7.69q-.17-.25.09-.4l.26-.14q.21-.12.37.07 2.34 2.91 4.3 5.94.24.37.8.44M20.97 29.86q-.29.96-.08 1.39 1.24 2.52 3.2 4.18l-1.37.34c-1.2-1.58-3.35-3.85-2.76-5.98q.59-.24 1.01.07M151.69 29.69l.58 1.42q-.27.32-.07.89l-.26 7.11q-.81-.08-1.08-.37l.08-7.01-.21-1.07q.36-.2.35-1.03zM111.55 80.59q.38-.09.32-.8-.05-.6-.66-.73l-.1-8.83q-.01-.59-.57-.79l-4.56-1.62q-.25-.08-.18-.34l.08-.29q.09-.34.43-.23l4.27 1.42q.48.16.51-.35l.2-3.6q.55.26 1.52-.24l.14 4.48q.02.51.5.68l5.4 1.88q.68.24.25-.33l-7.62-10.2q-.09-.91-.43-1.57l.09-14.88q.01-.56-.32-1.02l-8.65-12.12q-.12-.17-.01-.35l.2-.31q.25-.42.54-.02l8.51 11.87a4.15 4.12 27.5 0 1 .77 2.4l-.01 14.08q0 .56.32 1.02l17.89 25.03a.41.41 0 0 1-.09.57l-.29.21q-.19.13-.32-.06l-8.65-12.09q-.4-.56-1.05-.78l-6.45-2.19q-.58-.2-.59.41l-.51 20.69q-.01.36-.36.3l-.33-.05a.3.3 0 0 1-.25-.3zM17.5 37.12q-.68 1.04-2.37.92l-7.44-2.58q-.52-.6-1.73-.53.1-.26-.08-.31-2.08-.53-3.6-1.51.26.07.42-.13.26-.35.15-.75z"/><path fill="#fafb03" fill-opacity=".996" d="M150.86 38.74q.27.29 1.08.37l3.05 4.17q.09.32.37.56l5.78 8.21a.37.36 67.3 0 1-.23.57l-.38.06q-.16.03-.25-.11l-4.84-6.7-1.06-1.37-2.26-3.27q-.12-.39-1.05-1.27l-14.63-5.11a.35.34-59.2 0 1-.14-.56l.26-.28q.09-.1.22-.05zM185.94 37.01q-.23.74-.17 1.41l-.1 5.41q-.88-.03-1.02.27l-.1-7.56.42-1.78q.27-.22.49-.07.14.1.2.36.27.99.28 1.96M5.96 34.93q1.21-.07 1.73.53L0 37.71v-.92zM266.73 35.56q.52.56 1.04.75l-8.54 12.01q-.3.42-.3.94l.03 11.79q0 1.45.85.28l7.48-10.35.86.58-8.89 12.54q-.27.11-.53.36-.38.35-.77.03-.3-.25-.24-.7l-.04-14.29a3.74 3.73 62.6 0 1 .7-2.21z"/><rect width="1" height="6.7" x="-.5" y="-3.35" fill="#0101fe" fill-opacity=".996" rx=".47" transform="rotate(-1.7 1412.062 -5204.18)"/><path fill="#0101fe" fill-opacity=".996" d="M184.65 44.1q.14-.3 1.02-.27l1.76-.45a1.08 1.07-24.6 0 0 .62-1.65l-2.28-3.31q-.06-.67.17-1.41 2.55 2.6 3.71 6.01a.96.95 53.7 0 1-.13.87q-.34.46-.35 1-.11 4.1 0 8.22.02.41.42.53l.42.13q.46.14.46-.35l.05-6.38q.38.16.93.16l.29 5.5.64 1.02 1.79 2.63q.3.44.68.06 1.44-1.49 2.38-3.45.88-.42.65-1.14 1.56-1.08 1.93-2.83.43-.07.94-.73l8.26-11.51q.36.15.55.33.35.34.07.73l-.76 1.05-8.89 12.29-.44 1.1-3.91 5.05q-.34.43-.02.88l5.07 7.03.32 1.07-.06 15.5q-.92 0-1.47-1.04.02-7.04.3-14.22.01-.42-.56-.84.08-.48-.44-.99l-3.93-5.39q-.32-.44-.68-.04-.82.89-.96 1.89l-.64.46q-.58.65-.83 1.43h-1.42l-.03-4.33q.49-.69-.13-2.03.55-1.59-1.15-1.96-.8-.61-1.24-1.69.16-.02.26-.15.1-.14.1-.3.02-3.82.01-7.61 0-.56-.56-.53-.83.05-1.67.62-.7.04-1.1.31l-7.94 2.17q-2.98.82-.04 1.79l8.67 2.86q.42-.09 1.02 1.46l-10.41-3.57a1.76 1.75 80.5 0 1-.81-.58c-.83-1.09-1.27-2.06-2.67-2.6q-3.02-1.15-6.08-2.1l.56-.89 4.87 1.58q.49.16.19-.27l-5.04-7.04q-.26-.55.17-1.52l6.63 9.27a2.06 2.05 63.7 0 0 2.27.77zm7.73 11.44a.36.36 0 0 0-.66.22l.22 3.65a.36.36 0 0 0 .64.2l1.22-1.53a.36.36 0 0 0 .01-.43z"/><path fill="#fafb03" fill-opacity=".996" d="M227.62 42.12q-.09.52 1 .66l.09 11.22q.01.5.3.91l10.58 14.99-.83.53-9.72-13.55q-.29-.41-.31.09-.37 9.45-.05 13.02.09.97 1.68 3.03-.25.36-.63.56-.34-.36-.72-.56-.59-.3-.39.32l.12.41q-.99.41-.82 1.04-.52-1.15-.28-2.38.09-.49-.05-.96c-.77-2.6-3.81-6.02-5.42-8.31q-.37-.52-.37-1.15l.01-15.08q0-.3.3-.3h.29a.41.4 0 0 1 .41.4v14.64q0 .72.42 1.31l3.89 5.44q.49.69.49-.16l.01-24.68q0-.43-.4-.56l-14.01-4.77q-.29-.1-.19-.4l.1-.32q.09-.27.36-.18zM52.39 53.8l-.07-1q4.37-2.53 8.77-.59.69.31.25-.31l-7.73-10.82a.43.42 57 0 1 .12-.61l.25-.15q.21-.13.35.08l8.49 11.87q.33.46.85.64l14.35 5.16q.38.14.25.52l-.14.43q-.06.18-.25.12l-19.99-6.82q-.44-.15-.88-.01z"/><path fill="#0101fe" fill-opacity=".996" d="m152.12 41.23-.43 4.58q-.35-.36-.72-.32l.1-5.53q.93.88 1.05 1.27M2.59 41.95q.49.62.41 1.12-.32 7.38-.62 15.05-.09 2.1-2.38 3.47v-1.83q1.4-1.15 1.45-2.51.24-6.76.5-13.56a.66.64-81.8 0 0-.48-.66L0 42.63v-1.56q1.24.01 2.59.88M166.07 43.53l-.08 1.06-5.12-1.71a.5.5 0 0 1-.33-.62l.08-.24a.25.25 0 0 1 .32-.17zM155.36 43.84q-.28-.24-.37-.56.21-.16.42.03.29.26-.05.53M155.44 45.87l.1 5.74a1.59 1.58 26.9 0 0 .31.94l8.62 12.04q.28.39-.17.55l-.31.11q-.25.09-.4-.12l-8.57-12.02q-.52-.72-.53-1.6l-.11-7.01z"/><path fill="#fafb03" fill-opacity=".996" d="M185.9 45.06q-.41 2.27-.18 4.59c.14 1.49.99 2.43 2.04 3.38q.44 1.08 1.24 1.69.42 1.11 1.15 1.96.62 1.34.13 2.03-.39-1.19-1.35-1.32.08-.98-.72-1.14-.41-1.51-1.7-2.6-.6-1.55-1.02-1.46-1.38-2.88-.69-6.82.4-.27 1.1-.31M150.97 45.49q.37-.04.72.32l-8.68 12.5q-.3.43-.3.95l.02 14.77a.36.36 0 0 1-.39.36l-.3-.03q-.29-.02-.29-.31l-.04-15.03a1.84 1.81 62.9 0 1 .33-1.05z"/><path fill="#0101fe" fill-opacity=".996" d="m81.7 58.54 14.62 4.99a.25.25 0 0 1 .16.29l-.11.49a.25.25 0 0 1-.33.17l-14.95-5.1a.25.25 0 0 1-.13-.09l-9.2-12.81a.25.25 0 0 1 .07-.36l.43-.26a.25.25 0 0 1 .33.07l8.98 12.51a.25.25 0 0 0 .13.1"/><path fill="#fafb03" fill-opacity=".996" d="M289.06 64.14q-.37-.17-.53-.32-.09-.09-.09-.24 0-.14.05-.25l8.93-12.51a.34.33 35.6 0 1 .46-.07l.21.14q.27.19.07.46zM197.88 51.82q.23.72-.65 1.14l-2.44.68q-.27.07-.47-.13-.16-.17-.08-.32.1-.2.3-.31 1.55-.81 3.34-1.06"/><rect width="16.04" height="1" x="-8.02" y="-.5" fill="#fafb03" fill-opacity=".996" rx=".48" transform="rotate(18.9 -78.404 550.749)"/><path fill="#fafb03" fill-opacity=".996" d="M50.89 53.17q.07.01.16.34.1.36-.25.64-.81.08-1.56.45-.52-.16-.57-.72.86-.65 2.22-.71M47.07 54.22q.1-.01.25.08.12.07.15.2.06.21-.01.37-1.15.75-2.66 1.12-1.9.35-2.05-.42.59-.5 1.47-.63l1.09-.25z"/><path fill="#0101fe" fill-opacity=".996" d="M188.93 57.39q-.77.23-.72-1.14.8.16.72 1.14"/><path fill="#fafb03" fill-opacity=".996" d="m22.14 58.47 14.3 4.88a.34.34 0 0 1 .22.39l-.06.25q-.14.66-.78.45l-14.01-4.76q-.2-.07-.36-.21-.17-.16-.28-.07.64-.82.97-.93M176.24 89.19q-.38 1.29.51 1.34.88.04 1.24.38-1.03 1.23-2.49.71.27-.42.04-.96.1.25.33.01.16-.16.03-.35l-9.21-12.73a3.23 3.17 27.7 0 1-.6-1.86l.03-14.67q.01-.31.31-.38l.26-.05q.42-.1.42.34l.01 14.97q0 .53.3.95zM193.2 61.15c.79 1.03 1.24 1.77 2.49 2.29q1.5.63 3.08 1.25.52.51.44.99c-3.15-.86-5.44-1.23-6.65-4.07z"/><path fill="#fafb03" fill-opacity=".996" d="m191.73 63.04.2 16.68q.01.58.57.77l5.87 1.96q.61.2.92-.36.34-.61.18-1.35.55 1.04 1.47 1.04l.06 5.21q.01.51.31.92l7.61 10.57q.31 1.38 1.19 1.45l8.33-2.86q.1-.16.74-.21l4.78-1.72a1.61 1.55 6.8 0 0 .74-.56l8.74-12.12.87.07-8.85 12.8q-.29.41-.76.59l-5.43 2.06-1.25.42-7.41 2.53q-.55.19-.55.77l.02 10.2q0 .58.33 1.05l5.84 8.15q.29.41.7.11 1.43-1.05 1.43-2.96-.01-7.24-.13-14.47.65-.11 1.17.01-.09 7.34-.09 14.71c0 1.51-.65 2.46-1.58 3.53q-.42.47-.07.99l1.46 2.23q.11.15-.04.27l-.27.21q-.23.19-.42-.05l-1.36-1.69q-.35-.43-.67.02l-6.26 8.6q-.13-.14-.92-.17l6.61-9.33a.8.8 0 0 0 0-.94l-10.14-14.15a.45.44-45.7 0 0-.73.01l-6.2 9q-.56.43-.66.84l-2.5 3.5q-.28.4 0 .81l4.85 6.82a.44.44 0 0 1-.22.68l-.25.09q-.16.05-.26-.09l-4.72-6.63q-.37-.51-.7.03c-1.03 1.64-2.8 3.17-2.8 5.23q-.02 10.1.03 19.26a2.52 2.5-62.8 0 0 .46 1.45l8.87 12.73q-.44.22-1.04.04l-8.12-11.26q-.31-.43-.27.1.75 11.95.04 23.91-.43.09-.91-.02l-.33-15.18q-.01-.5-.48-.66l-13.71-4.74a.38.38 0 0 1-.16-.61l.23-.26q.1-.11.25-.07l13.4 4.6q.64.22.65-.45l.2-29.32q0-.55-.52-.74-8.48-3.06-12.56-4.36-1.21-.39-1.75-1.07.45-.14.26-.85l14.38 4.92q.1.87.64.91.5.04.55-.46l.16-1.56 1.81-2.7q.29-.43-.01-.85l-1.92-2.66.07-2.58q1.5.21 2.37.93.7.58-.2.61-.63.03-1.23-.14-.84-.24-.32.46l1.75 2.39q.38.52.76 0l2.53-3.44q.95-.72.62-1.17 1.8-1.81 1.9-3.18.31-4.14-.21-12.69.42-.92-.01-1.78-.98-1.95-2.48-3.59-.16-.36-.39-.44-1.91-3.88-2.93-2.2-1.74 1.65-1.99 3.35-1.26.02-1.6-1.1l-.25-3.76q.59-1.16.28-2.05-.1-.28-.54-.66-.9-.79.08-1.04.57-2.29.26-5.08-.06-.54-.57-.72l-4.15-1.46q-.64-.23-.2-.75l.18-.22q.07-.09.18-.06l3.92 1.33q.66.23.66-.47l.19-15.86zm.16 21.84a.3.3 0 0 0 .05.17l2.29 3.51a.31.31 0 0 0 .51.01l3.46-4.68a.31.31 0 0 0-.15-.48l-5.78-2a.31.31 0 0 0-.42.3zm8.56 4.16q-1.28-1.81-.74-4.5.18-.91-.43-.21-1.92 2.19-3.73 4.94-.32.48.01.95 2.23 3.16 4.65 6.54c.83 1.16.39 2.47 1.29 3.71q1.8 2.47 3.68 5.17.11.15.22 0l3.32-4.61q.16-.23 0-.45-4.39-6.02-8.27-11.54m-8.96-.34.27 3.31q-.26.22-.43.39-.3.3.09.25.19-.03.28-.17.95-.52 1.5-1.83 1.1-1.77-1.36-3.71-.38-.29-.23.16.42 1.22-.12 1.6m9.54 12.77q-.23-.31-.23.07l-.03 9.67q0 .96.56.18l2.97-4.2q.39-.54.01-1.08zm7.42 8.76a.34.34 0 0 0 .62-.2l-.02-6.69a.34.34 0 0 0-.62-.19l-2.32 3.35a.34.34 0 0 0 0 .39z"/><path fill="#0101fe" fill-opacity=".996" d="M288.49 63.33q-.05.11-.05.25 0 .15.09.24.16.15.53.32l-14.69 5.04a2.86 2.85 44 0 1-1.73.03q-6.89-2.03-13.41-4.12c-.97-.31-1.73.14-2.49.75q-.9-.1-1.46.37l-14.72 4.87q-.69-.05-1.05.43l-4.35 1.44q-.5.16-.62.67-.29 1.23.14 2.43-.15.04-.23.28-.06.18.02.33.15.28.49.52-.32-.15-.48.12-.09.14-.07.42.15 2.46-.1 4.81l-.87-.07-.08-5.95q.19-.51-.1-.99.3-.64.21-1.4-.06-.53-.59-.46-.88.11-1.61.62-.66-.08-.94.39-1.26.37-2.41.12-.17-.63.82-1.04.51.13.99-.17.38-.2.63-.56 1.46.34 2.66-.62.4-.31.4-.81l.07-4.8q0-.23.23-.22l.29.01a.44.44 0 0 1 .42.44l-.01 4.41q-.01.59.54.39l3.8-1.39.83-.53q.42.3.91.11 7.54-2.87 14.94-5.32l1-.55q.76.08 1.28-.35-.06.45.24.7.39.32.77-.03.26-.25.53-.36l14 4.13q.48.14.96-.02z"/><rect width="16" height="1" x="-8" y="-.5" fill="#0101fe" fill-opacity=".996" rx=".48" transform="rotate(-16.7 238.755 -17.991)"/><path fill="#fafb03" fill-opacity=".996" d="m210.02 84.71-.9.07V69.86a1.06 1.06 0 0 0-.71-1L201 66.28l-.32-1.07 8.34 2.84a1.49 1.48 9.3 0 1 1.02 1.41zM256.74 65.84l-.38 2.08-.99-.16q.17-.69-.09-1.55.56-.47 1.46-.37"/><path fill="#0101fe" fill-opacity=".996" d="M76.18 70.7q-.57.26-1.12.3l-2.92-4.25q-.12-.17.06-.28l.25-.14q.32-.19.55.11zM255.37 67.76l.99.16-9.15 12.86q-.4-.28-.48-.93z"/><path fill="#fafb03" fill-opacity=".996" d="M111.21 79.06q.61.13.66.73.06.71-.32.8l-28.56-9.76a1.4 1.39-62.1 0 0-1.57.49l-2.68 3.59-.65.71-5.49 6.99q-.31.41-.58-.03l-.19-.31a.74.73-41.8 0 1 .05-.83l5.46-7.18q.62-.46.86-.99.91-.78 1.38-1.76.24-.53-.3-.32l-2.34.9q-.43-.35-.98.2l-8.98 2.6a.46.46 0 0 1-.56-.3l-.08-.25a.68.67-17.4 0 1 .45-.85L75.06 71q.55-.04 1.12-.3l5.28-1.46q.49-.14.98.02z"/><rect width=".98" height="16.16" x="178.87" y="70.25" fill="#0101fe" fill-opacity=".996" rx=".47"/><path fill="#fafb03" fill-opacity=".996" d="M246.73 79.85q.08.65.48.93l-.04 16.01q-.36.05-.91-.08l-.07-15.01q-.01-.62-.58-.82l-3.87-1.4q-.46-.16-.78.21-1.16 1.38-2.25 2.95-.77 1.12-.79 3.1-.07 7.07.04 13.95-.16-.2-.7.39 0-.29-.15-.57-.21-.37-.21-.8l.01-14.63q0-.56.32-1.02l2.54-3.59q.35-.49-.22-.68l-4.59-1.61q-.34-.24-.49-.52-.08-.15-.02-.33.08-.24.23-.28l5.4 1.79q.56.19.99-.21.71-.65 1.08-1.53.21-.54-.12-1.01l-2.52-3.58q.36-.48 1.05-.43l2.28 3.22q.29.42.6.01l2.78-3.7q.08-.12.22-.08l.35.09q.45.12.18.5l-2.85 4.04q-.29.41-.01.82zm-4.21-1.13 1.98.67q.92.31.33-.47l-1.31-1.74q-.45-.59-.89.01l-.41.57q-.5.68.3.96"/><path fill="#0101fe" fill-opacity=".996" d="M76.94 72.09q.45.75 1.26 1.18-.24.53-.86.99l-1.38-1.97q.55-.55.98-.2M175.54 90.66q.23.54-.04.96l-14.68-5.02a2.01 1.92 80.4 0 1-.95-.71l-8.78-12.31a.32.31 61 0 1 .13-.47l.27-.13q.31-.13.51.14l8.28 11.62a3.56 3.52 81.6 0 0 1.73 1.3z"/><path fill="#fafb03" fill-opacity=".996" d="M231.27 74.28q.72.99 1.99 1.24.29.48.1.99-1.98-.2-3.03-1.84.28-.47.94-.39"/><path fill="#0101fe" fill-opacity=".996" d="M78.74 74.91q1.97 1.8 3.04 4.15.11.24-.05.46-.13.18-.3.14-.25-.07-.39-.27-1.38-1.96-2.95-3.77zM219.18 96.86q-.64.05-.74.21-.22-2.94-.08-5.77.11-2.12 1.16-3.56 4.14-5.67 8.1-11.25a.27.26-42 0 1 .44.02l.23.37q.11.2-.02.38l-8.62 12.09q-.27.37-.29.84zM189.84 86.33q-.98.25-.08 1.04.44.38.54.66.31.89-.28 2.05-1.11-2.01-2-1.94-.05-.86-.57-1.16-.01-.12-.02-.28t-.1-.3l-5.79-8.1a.34.33 52.6 0 1 .06-.46l.26-.22a.34.34 0 0 1 .49.06l5.92 8.32q.28.39.76.37zM261.97 107.48l-.44-.49 8.73-12.32q.31-.43.31-.95l-.01-14.87q0-.4.4-.38l.32.01q.27.01.27.29l.03 14.96a2.65 2.59 63.8 0 1-.51 1.56zM253.08 109.85l-.98.3-.17-7.23q-.03-1-.58-.17c-1.8 2.71-4.84 5.58-4.12 9.22q-.28.39-.14.96l-9.19 12.81a.26.26 0 0 1-.36.06l-.21-.15a.49.48-54 0 1-.1-.67l8.75-12.27q.88-1.24-.58-.83-.93.26-1.42 1.28a1.75 1.72 2.7 0 1-1.01.9l-14.44 4.88a.29.28-18.7 0 1-.37-.18l-.1-.3a.36.36 0 0 1 .23-.45l14.14-4.87a2.6 2.6 0 0 0 1.27-3.95l-6.44-9.11q.54-.59.7-.39 3.34 4.34 6.61 9.14.96 1.42 1.42-.23.07-.26.08-1.37.06-5.27.19-10.52.55.13.91.08l-.01 9.13q0 1.15.67.21l3.81-5.38q.38-.54.38-1.2l.02-14.8q0-.21.19-.26l.32-.1q.44-.13.44.33zM210.02 84.71l.09 15.22q-.88-.07-1.19-1.45l.2-13.7zM193.2 90.65q-.18-1.03-1.71-1.95.54-.38.12-1.6-.15-.45.23-.16 2.46 1.94 1.36 3.71"/><path fill="#fafb03" fill-opacity=".996" d="M187.45 86.98q.52.3.57 1.16L181 90.15l-2-.57zM92.83 92.22q-.27-.28-1.04-.46l14.06-4.23a.24.24 0 0 1 .3.13l.13.3q.13.27-.16.36zM118.38 104.09q-.22.28-.95.09l-.02-15.63q0-.34.34-.33h.28q.33 0 .33.34z"/><path fill="#0101fe" fill-opacity=".996" d="m179 89.58 2 .57q-.26-.02-.29.17-.05.29.23.39l9.33 3.13q.34 1.12 1.6 1.1-.1 5.03.04 10.02.06 2.06 1.18 3.75 2.29 3.47 4.89 6.76.33.45-.62 1.17l-5.54-7.78q-.37-.52-.35.11l.23 6.86-.07 2.58.12 6.21-.16 1.56q-.05.5-.55.46-.54-.04-.64-.91l-.08-9.43q.21-.39.07-1.06l.08-7.34q0-.56-.53-.38l-4.15 1.43-1.04.32-5.94 1.77-.83.19q-.68-.03-1.5.32-.39.16-.69-.15-.11-.11-.14-.27-.06-.37.3-.48.75-.22 1.16-.68.47.14 1.06-.2l6.57-1.95q.21.11.51.08.36-.03.41-.33l4.09-1.15q.51-.14.51-.68l-.02-10.04q0-.59-.56-.78l-11.69-4.01q-.36-.34-1.24-.38-.89-.05-.51-1.34 1.46.74 2.76.39M91.79 91.76q.77.18 1.04.46-.02.09.05.25.03.07.1.09l7.45 2.63q.23.08.14.31l-.12.31q-.14.37-.51.24l-14.56-5.01q-.3-.1-.19-.39l.11-.29q.12-.29.42-.21zM196.79 93.79q.06.32.39.44 1.5 1.64 2.48 3.59.43.86.01 1.78l-5.81-8.01q1.02-1.68 2.93 2.2M191.76 92.01q-.21-.03-.06.47-.09.14-.28.17-.39.05-.09-.25.17-.17.43-.39M176.02 120.81q.19.71-.26.85l-9.24-12.46q-.3-.41-.32-.92-.21-7.88 0-15.6.01-.08.07-.11l.34-.15a.36.36 0 0 1 .51.32l-.01 15.02q0 .52.3.94z"/><path fill="#fafb03" fill-opacity=".996" d="m125.33 113.72-.45.54-12.84 16.55q-.36.46-.04.95l8.19 12.44q.09.14-.04.23l-.3.19q-.39.26-.65-.13l-8.31-12.61a1.13 1.13 0 0 1 .04-1.29l13-17.34q.98-.89.71-.5l4.95-6.24a.66.65-43.8 0 0 .02-.79l-8.62-12.08a.48.48 0 0 1 .2-.72l.36-.16a.35.35 0 0 1 .43.11l8.71 12.11a1.52 1.51 46.1 0 1-.03 1.81z"/><path fill="#0101fe" fill-opacity=".996" d="M152.11 103.3q-.59.13-1.03 0l-.03-9.28q-.01-2.22 1.28-.41l8.55 11.97a.26.26 0 0 1-.06.36l-.24.17a.47.47 0 0 1-.65-.11l-7.25-10.26q-.35-.49-.37.11zM74.37 108.01l-8.95-12.53a.25.25 0 0 1 .05-.34l.38-.32a.25.25 0 0 1 .37.04l9.12 12.8a.25.25 0 0 1 .05.15l.01 15.8a.25.25 0 0 1-.27.25l-.49-.04a.25.25 0 0 1-.23-.25l.01-15.41a.25.25 0 0 0-.05-.15"/><rect width="15.98" height="1" x="-7.99" y="-.5" fill="#fafb03" fill-opacity=".996" rx=".48" transform="rotate(19.1 -248.548 340.057)"/><path fill="#0101fe" fill-opacity=".996" d="m219.27 97.98.15 5.81q-.52-.12-1.17-.01l.22-5.1q0-.21-.19-.27-.12-.04-.26-.01z"/><path fill="#fafb03" fill-opacity=".996" d="M185.66 107.57q-.05.3-.41.33-.3.03-.51-.08l-.04-8.96q0-.28.29-.28h.32q.28-.01.28.28zM178.17 109.77q-.59.34-1.06.2l-7.5-10.5q-.16-.23.1-.31l.59-.19q.13-.04.2.07zM152.11 103.3l8.9 12.43a.47.47 0 0 1-.1.65l-.23.17q-.16.11-.27-.04l-8.36-11.6q-.28-1.22-1-.92.07-.35.03-.69.44.13 1.03 0"/><path fill="#0101fe" fill-opacity=".996" d="m152.05 104.91-.26 4.42q-.55.01-.78-.1l.04-5.24q.72-.3 1 .92M118.38 104.09l6.26 8.66q.27-.39-.71.5l-6.5-9.07q.73.19.95-.09"/><path fill="#fafb03" fill-opacity=".996" d="m286.56 121.25-.96-.11.08-15.55q0-.34.34-.34l.28-.01q.28 0 .28.28zM261.53 106.99l.44.49-9.02 3.53-1 .34-4.86 1.58q-.14-.57.14-.96l4.87-1.82.98-.3z"/><path fill="#0101fe" fill-opacity=".996" d="m103.18 121.86-1.21-.42q.12-.11.19-.22.09-.17-.02-.32l-8.83-12.38q-.34-.48.22-.67l.25-.08q.17-.06.28.08 4.42 6.13 8.78 12.32.31.44.34 1.69"/><path fill="#fafb03" fill-opacity=".996" d="M185.79 108.95q-.39 2.37.07 4.31.12.5.61.66l3.92 1.32q.14.67-.07 1.06-5.19-1.65-10.19-3.43-1.58-.56-2.15-1.64l.83-.19 5.19 2.06q.52.21.56-.36l.19-3.47zM151.01 109.23q.23.11.78.1l-9.06 13q-.55-.24-.61-.65z"/><path fill="#0101fe" fill-opacity=".996" d="m252.95 111.01.1 4.42q.01.53.32.97l8.42 11.77a1.63 1.62-8 0 0 .79.59l13.59 4.64q.46.16.74-.23l8.69-12.03.96.11-8.92 12.8q-.29.42-.29.93l.01 15.04-.93-.02.01-14.77a.92.91-80.7 0 0-.62-.87l-13.81-4.76q-.55-.19-.88-.66l-8.74-12.23q-.32-.44-.33-.98l-.11-4.38z"/><rect width="16" height="1" x="-8" y="-.5" fill="#0101fe" fill-opacity=".996" rx=".48" transform="rotate(-16.7 398.272 -5.157)"/><path fill="#0101fe" fill-opacity=".996" d="M125.33 113.72c.97 1.51 1.42 2.62 3.24 3.27q6.77 2.44 13.55 4.69.06.41.61.65l-.01 16.21q-.25-.48-.93-.21l-.03-15.19q-.01-.5-.47-.66-6.82-2.35-13.61-4.65-1.96-.67-2.8-3.57zM198.74 117.03q1.26.82 1.62 2.28.06.28-.17.37-.35.14-.56-.17-.72-1.06-1.55-1.64.1-.41.66-.84"/><path fill="#fafb03" fill-opacity=".996" d="m101.97 121.44 1.21.42q1.39.23 2.12.93.46.43-.15.58-.83.2-2.03-.5-.37.02-.86-.26l-11.72-4.01q-.49-.16-.18-.57l.2-.26q.15-.19.37-.11zM167.12 136.02l-.01.96-.07 3.22q-.01.22-.22.21l-.32-.02a.41.41 0 0 1-.4-.41l.02-15.22q0-.33.32-.34l.31-.01a.35.35 0 0 1 .36.35z"/><path fill="#0101fe" fill-opacity=".996" d="M26.14 136.58q-.39.36-1.58.47l.56-9.1a.38.38 0 0 1 .41-.36l.34.03q.32.02.32.35z"/><rect width="16.14" height=".98" x="-8.07" y="-.49" fill="#fafb03" fill-opacity=".996" rx=".48" transform="rotate(18.9 -329.227 450.486)"/><path fill="#0101fe" fill-opacity=".996" d="M243.09 197.74q.21-.46-.06-.94l14.35-4.92q.45-.16.45-.64l-.01-14.67q0-.63.38-1.15 4.05-5.6 8.1-11.38c1.29-1.84 3.55-2.28 5.56-2.86a.55.55 0 0 0 .29-.85l-4.69-6.54q-.36-.52-.36-1.15l.02-15.12a.38.38 0 0 1 .36-.38l.26-.02q.36-.02.36.35v14.94q0 .56.33 1.01l4.74 6.62q.31.43.82.31l2.37-.59-.06 1.06q-.89-.01-1.47.34-.47.29-.17.75l1.61 2.54q-.11.68.02.98a.57.57 0 0 0 .69.32q.47-.15.47-.4l13.78-4.73q.49-.17.8-.6l8.27-11.54a2.63 2.61-27.5 0 0 .48-1.51l-.01-14.5q0-.39.38-.38l.32.01q.32.01.32.34v14.77a2.74 2.71 63.1 0 1-.51 1.59l-8.44 11.81a3.01 2.92 7.7 0 1-1.46 1.08l-13.66 4.66q-.51.18-.82.61l-8.64 12.07q-.21.29-.53.12l-.28-.14q-.29-.15-.1-.43l8.4-11.73a1.28 1.28 0 0 0 0-1.5l-2.17-3.01a.92.92 0 0 0-1-.34c-2.32.66-4.4.99-5.93 3.21q-3.79 5.53-7.49 10.55-.34.46-.34 1.03l.01 14.4a.69.69 0 0 0 .49.66l13.89 4.13q.49.14.98-.03l14-4.8q.38-.14.52.25l.11.32q.09.24-.15.32l-14.49 4.97q-.51.17-1.02.02l-14.28-4.3q-.49-.15-.98.01zM210.12 132.61l-.01 27.2q0 .56.33 1.02l2.51 3.54q.3.43.8.6l8.55 2.88q.33.19.89.26 1.85 1.06 3.92 1.34.49.07.5-.43l.08-6.43.94-.88-.03 24.82-.93.05.01-15a1 .99 8.8 0 0-.7-.95l-4.59-1.43-.91-.33q-3.58-1.48-7.18-2.6c-1.76-.56-2.55-1.63-3.38-3.18q-.81-1.54-.81.2l.02 13.13q-.94.43-1.14-.28l-.05-9.1q0-.58-.34-.11l-8.37 11.81-.9 1.34-3.68 5.1a.78.77-45.4 0 0 0 .91l4.67 6.48q-.25 1.61-1.79-.47l-3.59-5.08q-.34-.49-.65.02l-1.04 1.69q-.91.29-.89.94l-.86 1.29-1.33-1.38q.89-1.58-.18-3.81.24-.99.47-.91l-.21-4.79q.16-.3.22-.85l.07-4.7q.48.11.91.02l.23 5q-.12.43.21 1.22l2.1 3.18q.27.42.64.08 1.45-1.36 2.5-3.31.66-.23.66-1.28c1.29-.81 2.04-2.17 2.03-3.81q-.06-6.93-.02-13.83.6.18 1.04-.04l.02 13.39q0 .69.4.13l6.99-9.76a5.17 5.16 45.1 0 0 0-6.01l-4.68-6.54a1.76 1.73 28.2 0 1-.31-.99l.01-8.5a.93.93 0 0 0-.66-.89q-3.9-1.13-8.25-2.87-.1-.04-.06-.14l.07-.24q.16-.48.64-.32l7.65 2.59a.43.43 0 0 0 .57-.4l.06-4.55q.01-.28.29-.31l.29-.03q.34-.03.34.31v4.91q.01.57.55.76l3.81 1.34q.56.2.56-.4l.07-10.79q.79.03.92.17m-5.9 19.37a.33.33 0 0 0 .06.19l4.23 6.07a.33.33 0 0 0 .6-.2l-.11-12.93a.33.33 0 0 0-.22-.31l-4.1-1.49a.33.33 0 0 0-.44.31zm-12.58 32.03q-.34 1.66.44 3.34.12.25.29.03l1.32-1.72q.17-.23.03-.48-.79-1.36-1.92-2.55-.6-.61-.49.23.03.18.14.32.29.37.19.83"/><path fill="#0101fe" fill-opacity=".996" d="m228.63 161.71-.94.88q.36-.17-.3-.37.53-.67.1-1.61l.14-21.11a.81.79-81 0 0-.54-.76l-13.83-4.75q-.33-.11-.22-.45l.11-.32q.1-.29.39-.19l14.13 4.83q.94.32.95 1.32z"/><path fill="#fafb03" fill-opacity=".996" d="M41.31 150.13q-.09.47.85.95l6.8 10.97a.3.29-35.8 0 1-.07.39l-.26.2q-.32.26-.55-.09l-6.88-10.39-1.86-2.63-8.17-12.42a.89.89 0 0 0-1.01-.36l-4.24 1.34-1.66.49q-5.81 1.63-7.77 2.32-1.26.45-1.81 2.21-.33.19-.62.58-3.56 4.22-6.8 8.68c-.97 1.34-.89 2.43-.7 3.97q-.32.45-.07 1.13l-.23 5q-.24.6-.06 1.24l-.29 5q-.01.21-.22.23l-.4.03q-.33.02-.32-.31l.11-4.76q.27-.26-.1-.86l.24-5.12q.12-.43.07-1.16l.34-3.54a1.7 1.68-24.2 0 1 .35-.9l7.42-9.67q.94-1.22-.54-.79l-11.26 3.3q-.53.15-.54.71l-.29 12.16q-.33.39-.04 1.16l-.21 1.29q-.09.59-.28.02l-.24-.76v-2.15q.38-2.28 0-4.54v-8.49l13.55-4.06q.72-.11 1.18-.41l9.83-3.04q1.19-.11 1.58-.47l4.18-1.23a1.53 1.51 65.1 0 1 1.69.63z"/><path fill="#0101fe" fill-opacity=".996" d="m167.12 136.02 14.63 4.99q.18.06.12.25l-.1.28q-.15.45-.6.3l-14.06-4.86zM25.92 138.09l-.17 5.27a.56.56 0 0 1-.65.54l-.4-.06a.57.56-85.9 0 1-.48-.56l.04-4.7z"/><path fill="#fafb03" fill-opacity=".996" d="m142.72 138.54.1 5.6q-.18.93-.05 1.5l-.08 8.33q0 .26-.26.26l-.35.01q-.26.01-.26-.25l-.03-15.66q.68-.27.93.21"/><path fill="#0101fe" fill-opacity=".996" d="M14.73 140.09q-.46.3-1.18.41-.05-1.08.3-1.69.23-.39.55-.07t.33 1.35M42.16 151.08q-.94-.48-.85-.95l8.07-10.45a.41.41 0 0 1 .57-.07l.37.3q.29.23.06.52z"/><rect width=".98" height="16.1" x="236.91" y="141.53" fill="#0101fe" fill-opacity=".996" rx=".47"/><path fill="#0101fe" fill-opacity=".996" d="M14.68 143.11q.11.35-.17.64-.2.19-.45-.06.29-.39.62-.58M6.49 157.47q-.25-.68.07-1.13l6.48-1.96q.62-.19.61-.84-.07-3.97.01-8.33.01-.63.52-1 .48-.35.48.25l-.02 9.64a1.21 1.2-8.5 0 1-.86 1.15zM142.77 145.64q-.13-.57.05-1.5l9.03 12.96a1.56 1.52-62.7 0 1 .28.92l-.18 14.97q-.01.59-.36 1.06L142.83 186q-.25.34-.58.09l-.27-.2q-.16-.12-.04-.28l8.66-11.91q.34-.47.35-1.05l.18-14.38q.01-.64-.36-1.16z"/><rect width="15.98" height="1" x="-7.99" y="-.5" fill="#fafb03" fill-opacity=".996" rx=".48" transform="rotate(18.9 -412.893 305.42)"/><path fill="#0101fe" fill-opacity=".996" d="M41.2 152.16c-.49.28-.95 1.01-.98 1.61q-.24 5.2-.41 10.7a2.41 2.34-26.1 0 1-.5 1.39l-8.25 10.67a.74.74 0 0 0-.01.89l2.12 2.89q-.54.7-1.19.37l-8.66-12.27a1.65 1.59-7.5 0 0-.8-.59q-6.59-2.22-13.26-4.58c-1.07-.38-2.1-.04-3.06.47q-.18-.64.06-1.24c1-.29 2.01-.57 3.05-.22q7.17 2.39 13.95 4.81a1.73 1.72 81.7 0 1 .84.63l5.85 8.18a.22.22 0 0 0 .36.01l8.15-10.57q.34-.43.36-.98l.52-14.8z"/><path fill="#fafb03" fill-opacity=".996" d="m277.36 150.02.01 9.13.08 1.05v5.15q0 .25-.47.4a.57.57 0 0 1-.69-.32q-.13-.3-.02-.98l.03-3.63.06-1.06.07-9.76z"/><rect width="1" height="15.76" x="117.36" y="152.12" fill="#0101fe" fill-opacity=".996" rx=".31"/><path fill="#fafb03" fill-opacity=".996" d="M167.13 171.7q-.52.85-1.13.46l.07-.92v-14.5a.28.28 0 0 1 .27-.28l.5-.03q.27-.02.27.25z"/><path fill="#0101fe" fill-opacity=".996" d="M5.29 156.76q.05.73-.07 1.16l-4.49 1.27q-.29-.77.04-1.16zM277.45 160.2l-.08-1.05 5-1.5a.27.26 78.6 0 1 .34.23l.04.36q.02.23-.2.31z"/><path fill="#fafb03" fill-opacity=".996" d="m227.39 162.22-4.2 5.89q-.56-.07-.89-.26l5.19-7.24q.43.94-.1 1.61"/><path fill="#0101fe" fill-opacity=".996" d="M185.69 177.38q-.24-.14-.87-.16l-.07-14.63q0-.3.3-.27l.35.04a.31.3 3.2 0 1 .28.3zM4.98 163.04q.37.6.1.86L0 165.24q-.01-.32 0-.63z"/><path fill="#fafb03" fill-opacity=".996" d="m93.95 166.04.09 8.61q0 .56.53.74l7.98 2.77a1.75 1.74 81.5 0 1 .83.62l8.55 11.95a3.32 3.3 27.2 0 1 .63 1.94l-.01 14.31a1.8 1.8 0 0 0 .34 1.05l8.66 12.12q.14.2-.04.37l-.25.24q-.31.29-.57-.05l-2.38-3.26q-.34-.62-.96-1.09l-5.38-7.64q-.25-.37-.68-.24l-14.02 4.19a.35.34 73.4 0 1-.43-.24l-.08-.29q-.1-.34.23-.44l14-4.19q.55-.16.55-.74l-.01-14.25a1.97 1.95 27.7 0 0-.36-1.13l-8.38-11.74q-.32-.44-.83-.62l-7.3-2.56q-.63-.22-.65.45l-.08 4.44a1.07 1.07 0 0 1-.77 1l-14.91 4.37-.1-.89 14.25-4.32q.57-.17.57-.76v-4.31q0-.54-.51-.71l-4.62-1.54q-.45-.15-.2-.56l.16-.27a.27.27 0 0 1 .33-.11l4.38 1.5a.32.32 0 0 0 .42-.3l.05-8.5z"/><path fill="#0101fe" fill-opacity=".996" d="m78.15 185.84.1.89-15.98-5.28q.17-.69-.87-1.32l-7.75-11.45q-.2-.29.11-.46l.26-.15q.24-.13.39.09l8.49 11.87q.37.51.95.72z"/><rect width=".96" height="16.14" x="-.48" y="-8.07" fill="#fafb03" fill-opacity=".996" rx=".46" transform="rotate(.1 -100817.424 144765.626)"/><path fill="#fafb03" fill-opacity=".996" d="m222.39 169.2-2.64 3.91q-.28.42-.29.92l-.12 15.04q-.16.44-.9.58l-8.66-12.03a.74.74 0 0 0-.8-.28l-9.65 2.74.9-1.34 8.76-2.6q.2.71 1.14.28l7.62 10.58q.6.83.6-.19l-.01-12.82q-.01-.52.29-.95l2.85-4.17z"/><path fill="#0101fe" fill-opacity=".996" d="m166.07 171.24-.07.92q-3-.49-5.05-2.05-.43-.33.11-.28 2.39.2 5.01 1.41M167.13 171.7l8.45 2.88q.28.1.18.38l-.1.26q-.11.31-.42.2l-6.65-2.29q-1.06-.37-.41.55l7.9 11.07q-.23.24-.42 1.03L166 172.16q.61.39 1.13-.46"/><path fill="#fafb03" fill-opacity=".996" d="M184.82 177.22q.63.02.87.16l4.78 1.84q-.06.55-.22.85-1.69-.37-2.61-.86-1.9-.98-.66.76l3.48 4.89q-.23-.08-.47.91l-5.1-7.14q-.3-.42-.78-.58l-4.65-1.56q-.41-.14-.24-.54l.13-.3q.11-.27.39-.17zM61.4 180.13q1.04.63.87 1.32L58 179.93q-.48-.17-.96-.03l-11.76 3.51q-1.46.43-.02.92l17.46 5.99q.33.11.23.44l-.1.36q-.07.27-.34.17l-14-4.8a2.09 1.98 45 0 0-1.23-.03l-14.39 4.26a.38.38 0 0 1-.49-.34l-.03-.35q-.01-.16.15-.21l12.26-3.7q1.39-.42.01-.89l-11.35-3.87a.81.81 0 0 0-.9.26l-9.62 11.94-.48-.71 9.54-12.17q.65.33 1.19-.37l7.75 2.59a4.14 4.13-43.5 0 0 2.42.06q6.36-1.82 13.18-4.03 1.63-.53 4.88 1.2M191.68 179.54q2.65 1.55 6.11-.11 0 1.05-.66 1.28-2.81 1.26-5.24.05-.33-.79-.21-1.22M190.17 189.58l1.33 1.38-1.02.01-14.82-5.19q.19-.79.42-1.03z"/><path fill="#0101fe" fill-opacity=".996" d="M204.77 194.16q-.47.38-.64.93l-2.89 3.98q-.3.4-.3.91l-.1 15.02a.44.43 9.2 0 1-.58.41l-.37-.13q-.18-.06-.18-.25.04-6.81 0-13.82c-.01-2.69 1.69-4.64 3.31-6.66q.02-.2.42-.64l5.7-7.83a.26.24 26.1 0 1 .27-.08l.32.09a.51.51 0 0 1 .26.78z"/><path fill="#fafb03" fill-opacity=".996" d="m228.6 186.53.18 14.54q.01.55.52.37l3.97-1.39 1.61-.46 8.15-2.79q.27.48.06.94l-8.44 3.05-1.43.48-4.97 1.68q-.73-.59-.62-2.28l.04-14.09z"/><path fill="#0101fe" fill-opacity=".996" d="M190.29 221.57q.47.52 1.44.44l.12 12.7q-.43.13-.12 1.43-.33 3.04-.26 5.97c.06 2.63 1.52 4.26 3.02 6.25q-.09.35-.54.7l-2.15-2.53q-.33-.39-.34.12-.04 2.49.7 4.76-.65.86.06 1.78-.4.57-.58.44-.1-.22-1.07 1.07l-29.75-9.92.63-1.32 28.34 9.84q.49.17.62-.34.42-1.56-.4-3.26.43.11.53-.95-.1-5.93-.07-11.77 0-.02.14-.94.1-.7-.64-.87.35-.18.46-.43.18-.37-.17-.75v-10.57a1.03 1.03 0 0 0-.69-.97l-13.46-4.63q-.54-.18-.87-.64l-8.64-12.11a2.53 2.51-63.2 0 1-.48-1.48l.01-14.88q0-.42.42-.42h.33q.23-.01.23.22l.01 14.78q0 .81.47 1.47l8.3 11.61q.3.42.79.59z"/><path fill="#fafb03" fill-opacity=".996" d="M193.25 188.73q1.38 2.7 5.28 3.37 1.54 2.08 1.79.47l3.12 1.34q-.4.44-.42.64l-8.7-3.05q-.47-.17-.72-.61-.5-.87-1.24-1.22-.02-.65.89-.94"/><path fill="#0101fe" fill-opacity=".996" d="m141.69 202.18-8.99-12.61a.24.24 0 0 1 .06-.34l.4-.29a.24.24 0 0 1 .34.05l9.17 12.83a.24.24 0 0 1 .04.14v15.89a.24.24 0 0 1-.26.24l-.49-.03a.24.24 0 0 1-.22-.24l-.01-15.5a.24.24 0 0 0-.04-.14M227.63 200.67q-.11 1.69.62 2.28l-8.98 12.54q-.1.15-.25.04l-.23-.17q-.36-.26-.1-.62l8.47-11.86a.88.88 0 0 0 0-1.04l-8.72-12.19q.74-.14.9-.58zM191.5 190.96l-.03 15.51q-.5-.13-.97-.01l-.02-15.49zM22.44 192.85l.48.71-15.01 4.45q-.49.14-.97-.01L0 195.74v-1.01L7.06 197q.47.15.95.02zM234.88 199.59l-1.61.46-.04-5.44q0-.51.51-.5l.31.01a.66.65 89.1 0 1 .64.63z"/><path fill="#fafb03" fill-opacity=".996" d="m204.77 194.16 4.35 1.55a1.38 1.37 10.1 0 1 .91 1.29l.02 30.5q-.52.21-.98 1.41v-31.65a.66.65-80.7 0 0-.44-.62l-4.5-1.55q.17-.55.64-.93M81.81 197.93l-14.85 4.45a.25.25 0 0 1-.32-.18l-.13-.48a.25.25 0 0 1 .17-.3l15.15-4.54a.25.25 0 0 1 .16.01l14.94 5.12a.25.25 0 0 1 .15.31l-.15.47a.25.25 0 0 1-.32.16l-14.64-5.01a.25.25 0 0 0-.16-.01"/><path fill="#0101fe" fill-opacity=".996" d="m234.65 200.79.04 8.37q0 .85-.49 1.54l-8.82 12.36a2.97 2.94-81 0 1-1.5 1.1l-14.81 4.75q.46-1.2.98-1.41l13.86-4.7q.58-.2.94-.71l7.93-11.09q.32-.45.33-1l.11-8.73z"/><path fill="#fafb03" fill-opacity=".996" d="m191.47 206.47.1 5.39q0 .48.29.88l8.35 11.69a3.1 3.09-63 0 1 .57 1.76q.02 7.3.01 13.67 0 2.06-1.63 4.01a.69.67 48.2 0 0-.04.82l1.51 2.28q-.24.36-.69.59l-1.4-1.79q-.34-.44-.66.01l-2.66 3.75q-.22.31-.44.61-.92.73-1.4 1.88-.2.48.07.91 1.61 2.54 5.2 2.97.27.78 1.19 1.59-2.38-.75-4.62-1.65c-1.48-.59-1.97-1.53-3-2.65q-.71-.92-.06-1.78 1.39-1.06 1.79-2.35.45-.35.54-.7l2.7-3.49a.84.84 0 0 0 .02-1l-5.48-7.73q-.31-1.3.12-1.43l5.86 8.11q.31.42.73.12 1.3-.92 1.32-2.45.06-7.23-.01-14.48 0-.53-.31-.96l-7.68-10.76q-.42-.59-.38.13l.35 7.59q-.97.08-1.44-.44l.21-15.11q.47-.12.97.01M52.29 218.98l9.43-12.21a.25.25 0 0 1 .35-.05l.4.29a.25.25 0 0 1 .05.36l-9.64 12.47a.25.25 0 0 1-.13.08l-15.08 4.54a.25.25 0 0 1-.32-.18l-.13-.48a.25.25 0 0 1 .17-.3l14.77-4.44a.25.25 0 0 0 .13-.08"/><path fill="#0101fe" fill-opacity=".996" d="m118.31 217.45-.01 14.03a.3.3 0 0 1-.3.3l-.33-.01q-.3 0-.3-.3l-.02-15.11q.62.47.96 1.09"/><rect width="1" height="16.04" x="166.11" y="220.15" fill="#fafb03" fill-opacity=".996" rx=".48"/><path fill="#fafb03" fill-opacity=".996" d="M151.83 237.43q-.79.12-.92-.3l.12-15.61q0-.4.4-.41l.28-.01a.32.31-90 0 1 .32.33zM190.26 233.99q.35.38.17.75-.11.25-.46.43l-3.78 1.21q-.49.16-.5.68l-.03 4.32q-.01.52.29.94l4.59 6.43q-.1 1.06-.53.95-2.22-2.96-4.33-6.06c-1.46-2.15-1.07-4.03-.99-6.35q.02-.51-.48-.37l-8.19 2.38a.3.29-9.2 0 1-.38-.27l-.01-.4q-.01-.18.16-.23l8.26-2.53q.61-.18.61-.82l.02-8.57q0-.33.32-.34l.28-.01q.39-.01.39.38l-.01 8.2q0 .58.56.42z"/><path fill="#0101fe" fill-opacity=".996" d="M219.35 247.22q-.35-.42-.91-.24v-15.4q0-.26.26-.26l.32.01q.25 0 .25.25zM151.83 237.43l-9.1 12.71-.98-.2 9.16-12.81q.13.42.92.3"/><rect width="16.02" height="1" x="-8.01" y="-.5" fill="#fafb03" fill-opacity=".996" rx=".48" transform="rotate(-16.7 833.143 58.741)"/><path fill="#fafb03" fill-opacity=".996" d="m161.45 243.46-.63 1.32-9.28 12q-.15.19-.34.04l-.2-.15a.49.48-53 0 1-.09-.68q6.55-8.59 9.31-11.99.44-.54 1.23-.54"/><path fill="#0101fe" fill-opacity=".996" d="M206.08 254.4q.07.71.56.78l2.99 4.12q.08.39-.03.66-.24.61-.7.15l-.85-.84q-.8-2.03-2.17-2.86.07-.36-.63-1.11l-5.31-7.74q.45-.23.69-.59z"/><path fill="#fafb03" fill-opacity=".996" d="M218.44 246.98q.56-.18.91.24l-8.98 12.83q-.3.43-.3.95l-.01 30.85q0 .42-.41.35l-.33-.05a.32.3 5.8 0 1-.26-.3v-30.6q0-.6-.57-.79l-3.84-1.35a.87.87 0 0 0-1 .31l-2.33 3.25q-.32.43-.32.97l-.21 15.27a.3.3 0 0 1-.31.29l-.29-.01a.42.42 0 0 1-.41-.42v-3.06q0-.91-.52-.17l-3.72 5.25q-.3.43-.01.86 2.24 3.29 4.61 6.46.43.56.36 1.27-.34-.06-.69.14l-4.99-6.83q-.32-.44-.63.01l-2.66 3.82-1.02-.06.06-31.76q.97-1.29 1.07-1.07-.32 10.41-.09 20.69.04 1.93.79 2.94.93 1.26 1.84 2.61.36.54.75.01l4.31-6q.31-.43.32-.96l.28-15.43q.54-.26.82-.75l2.44.75q.52.16.83-.28l1.32-1.91q.7.75.63 1.11-.92.73-.93 1.28-.02.47.88.8 1.07.39 2.22.78l.85.84q.46.46.7-.15.11-.27.03-.66zm-17.68 13.95q-.03.88.47.15l1.4-2.02q.4-.59-.28-.8l-.92-.3a.47.47 0 0 0-.61.43zm-9.28 23.23a.18.18 0 0 0 .33.1l1.76-2.49q.38-.55 0-1.11l-1.63-2.32q-.43-.62-.43.13z"/><path fill="#0101fe" fill-opacity=".996" d="M200.66 256.74q-.28.49-.82.75-.92-.81-1.19-1.59l-3.87-5.76q.22-.3.44-.61z"/><path fill="#fafb03" fill-opacity=".996" d="m142.73 250.14-.02 31.45a.33.33 0 0 1-.34.33h-.27q-.38-.01-.38-.39l.03-31.59zM206.64 255.18q-.49-.07-.56-.78l2.9-4.14q.21-.29.5-.08l.22.15q.24.17.07.4z"/><rect width="1" height="16.04" x="-.5" y="-8.02" fill="#fafb03" fill-opacity=".996" rx=".48" transform="rotate(.1 -148960.168 95590.539)"/><path fill="#fafb03" fill-opacity=".996" d="m173.99 311.19-7.2-10.08a3.72 3.7-63 0 1-.7-2.17l.02-14.52q0-.31.3-.31h.34q.37 0 .37.37l-.01 14.88q0 .49.29.89l7.98 11.16q1.83 2.56-1.14 1.54l-12.7-4.36q-.53-.19-.88.26l-9.12 11.74a.28.28 0 0 1-.35.08l-.3-.17a.37.36 33.9 0 1-.11-.54l9.05-11.68q.36-.46.02-.93l-8.3-11.62a1.76 1.74-8.4 0 0-.87-.64l-14.17-4.86a.32.32 0 0 1-.17-.48l.16-.26a.35.35 0 0 1 .41-.14l14.34 4.84q.54.18.88.65l8.67 12.13q.33.45.86.63l11.98 4.06q.91.31.35-.47"/><path fill="#0101fe" fill-opacity=".996" d="M191.53 286.52q-.11 9.54-.03 19.12.02 2.07.87 3.51.92 1.55 2.22 3.02l-.63.91-2.22-2.83q-.32-.41-.31.11l.11 6.19q.46 1.07-1.05 1.44l.02-31.53zM200.5 305.1q-.37.06-.68-.16l-.01-15.42q.35-.2.69-.14l.21.13q.04.02.04.06.12 7.68.01 15.36 0 .04-.03.05z"/><path fill="#fafb03" fill-opacity=".996" d="m200.5 305.1-5.3 8.28q-.17.4-.47.67-1.22 1.32-2.22 2.89-.91 1.43-.93 3.39-.07 6.9-.08 13.81l-1 .07-.01-16.22q1.51-.37 1.05-1.44l2.42-3.47.63-.91 5.23-7.23q.31.22.68.16"/><path fill="#0101fe" fill-opacity=".996" d="m195.2 313.38 5.24 7.27q.15.2-.05.34l-.32.23q-.18.12-.31-.06l-5.03-7.11q.3-.27.47-.67"/><rect width="1" height="15.82" x="166.11" y="316.07" fill="#0101fe" fill-opacity=".996" rx=".34"/><rect width="16.04" height="1" x="-8.02" y="-.5" fill="#fafb03" fill-opacity=".996" rx=".48" transform="rotate(18.9 -904.48 546.296)"/><path fill="#0101fe" fill-opacity=".996" d="m191.5 334.14.01 15.87-1.01-.02v-15.78z"/><path fill="#fafb03" fill-opacity=".996" d="m191.51 350.01.09 31.99h-1.19l.09-32.01z"/></svg>