<?xml version="1.0" encoding="UTF-8" standalone="no"?>
<!DOCTYPE svg PUBLIC "-//W3C//DTD SVG 1.1//EN" "http://www.w3.org/Graphics/SVG/1.1/DTD/svg11.dtd">
<svg xmlns="http://www.w3.org/2000/svg" version="1.1" viewBox="0.00 0.00 1592.00 1592.00">
<g stroke-width="2.00" fill="none" stroke-linecap="butt">
<path stroke="#aa764a" vector-effect="non-scaling-stroke" d="
  M 111.77 0.00
  L 100.68 119.63
  Q 100.62 120.22 101.13 119.91
  L 227.86 41.96
  Q 228.22 41.73 228.33 41.32
  L 239.08 0.00"
/>
<path stroke="#aa764a" vector-effect="non-scaling-stroke" d="
  M 442.56 0.00
  L 377.74 219.64
  A 0.75 0.75 0.0 0 0 378.21 220.56
  L 506.47 266.44
  Q 506.94 266.60 507.38 266.38
  Q 508.28 265.93 508.87 265.18
  A 0.91 0.91 0.0 0 1 510.29 265.16
  L 571.48 338.80
  A 0.20 0.20 0.0 0 0 571.75 338.83
  L 656.23 282.24
  A 0.28 0.28 0.0 0 1 656.63 282.35
  L 706.04 379.24
  A 0.57 0.57 0.0 0 0 706.49 379.55
  L 772.78 385.73
  Q 773.35 385.79 773.44 385.22
  L 779.97 344.91
  Q 780.06 344.38 780.52 344.13
  L 902.95 277.18
  Q 903.47 276.89 903.95 277.25
  L 942.06 306.19
  Q 942.58 306.58 942.72 305.95
  L 943.14 304.05
  Q 943.25 303.53 943.81 303.54
  L 1132.64 305.26
  Q 1133.17 305.27 1133.13 305.79
  L 1129.29 358.51
  A 3.60 3.56 -52.9 0 0 1129.48 359.96
  L 1176.57 493.05
  A 0.59 0.59 0.0 0 1 1176.07 493.84
  L 955.44 513.29
  A 0.77 0.76 -8.0 0 1 954.62 512.68
  L 946.75 472.52
  A 1.24 1.24 0.0 0 0 946.29 471.78
  L 907.42 441.84
  Q 906.92 441.45 907.07 440.83
  L 907.53 438.94
  Q 907.68 438.31 906.96 438.26
  L 786.08 429.58
  Q 785.58 429.55 785.37 430.00
  L 743.47 519.52
  Q 743.18 520.14 742.50 520.06
  L 547.98 497.49
  A 2.40 2.39 -60.8 0 0 546.22 497.99
  L 531.74 509.42
  Q 531.36 509.72 530.88 509.60
  Q 504.18 502.66 482.08 497.03
  Q 478.49 496.11 474.89 494.09
  Q 437.60 473.16 214.85 348.11
  Q 214.36 347.84 213.97 348.23
  Q 212.59 349.56 210.92 350.50
  Q 209.54 351.27 206.69 350.94
  Q 61.30 334.17 38.49 331.54
  Q 37.89 331.47 38.05 330.86
  L 38.71 328.42
  Q 38.86 327.83 38.21 327.95
  L 0.00 335.21"
/>
<path stroke="#aa764a" vector-effect="non-scaling-stroke" d="
  M 733.23 0.00
  L 734.68 146.63
  Q 734.69 147.15 735.21 147.26
  L 891.23 178.58
  A 0.94 0.94 0.0 0 0 892.04 178.36
  L 973.27 106.51
  Q 973.66 106.16 973.68 105.63
  L 976.43 0.00"
/>
<path stroke="#aa764a" vector-effect="non-scaling-stroke" d="
  M 1297.93 0.00
  L 1299.60 80.98
  Q 1299.61 81.44 1300.05 81.56
  L 1543.07 151.30
  Q 1543.88 151.53 1543.41 152.23
  L 1477.84 248.03
  A 1.05 1.05 0.0 0 1 1476.99 248.49
  Q 1426.21 249.12 1340.89 250.14
  Q 1326.46 250.31 1320.87 250.20
  Q 1320.34 250.18 1320.56 250.66
  L 1416.30 454.23
  A 1.49 1.49 0.0 0 1 1416.22 455.64
  L 1359.76 547.22
  Q 1359.61 547.46 1359.84 547.64
  L 1549.79 695.31
  Q 1550.20 695.63 1550.69 695.83
  Q 1551.20 696.05 1551.77 696.11
  Q 1552.50 696.19 1552.02 696.75
  L 1354.81 926.91
  A 0.33 0.32 49.5 0 1 1354.29 926.86
  L 1353.89 926.22
  Q 1353.48 925.56 1352.94 925.17
  L 1149.22 779.18
  A 1.59 1.59 0.0 0 0 1147.94 778.92
  L 1049.50 800.88
  Q 1048.85 801.03 1048.53 801.62
  Q 1045.52 807.26 1042.82 812.22
  C 1041.92 813.87 1041.66 815.75 1041.43 817.59
  A 0.98 0.98 0.0 0 1 1040.88 818.35
  L 818.73 926.79
  A 1.05 1.05 0.0 0 1 817.78 926.77
  L 640.79 833.99
  A 6.06 6.06 0.0 0 1 638.98 832.54
  L 597.05 783.18
  A 1.10 1.09 70.4 0 0 596.24 782.79
  L 578.48 782.38
  Q 578.02 782.36 577.86 782.83
  L 499.84 1011.13
  A 0.36 0.23 -62.6 0 1 499.39 1011.38
  L 497.24 1009.11
  Q 496.44 1008.26 496.30 1009.20
  L 495.11 1016.94
  Q 495.02 1017.55 495.62 1017.41
  L 693.84 971.18
  Q 694.36 971.06 694.73 971.45
  L 750.13 1030.79
  A 1.53 1.52 -66.4 0 1 750.54 1031.84
  L 750.17 1088.62
  A 1.15 1.15 0.0 0 1 749.99 1089.24
  L 718.19 1137.75
  A 0.39 0.39 0.0 0 1 717.53 1137.74
  L 716.76 1136.51
  A 1.00 0.85 71.6 0 0 716.00 1136.05
  L 704.65 1135.98
  Q 703.61 1135.98 702.89 1136.70
  L 593.71 1245.16
  Q 593.27 1245.61 593.85 1245.86
  L 595.45 1246.55
  A 0.73 0.72 -78.8 0 1 595.89 1247.21
  L 597.44 1363.21
  Q 597.45 1363.79 597.05 1364.02
  L 596.71 1364.22
  Q 595.99 1364.64 596.86 1364.62
  Q 597.86 1364.60 599.13 1364.57
  Q 680.28 1362.33 771.38 1360.46
  Q 772.02 1360.45 772.13 1361.08
  L 786.73 1446.50
  A 0.69 0.69 0.0 0 1 786.46 1447.17
  L 587.41 1590.88
  A 3.60 3.60 0.0 0 1 585.31 1591.57
  L 460.12 1591.55
  Q 459.44 1591.55 459.54 1591.02
  L 459.69 1590.27
  A 0.83 0.71 16.7 0 0 459.15 1589.44
  L 206.17 1491.53
  A 0.66 0.66 0.0 0 0 205.33 1491.87
  L 159.13 1591.01
  A 0.96 0.95 12.3 0 1 158.26 1591.56
  L 139.47 1591.58
  A 2.08 2.00 69.8 0 1 137.88 1590.80
  L 0.00 1419.63"
/>
<path stroke="#aa764a" vector-effect="non-scaling-stroke" d="
  M 0.00 1382.11
  L 118.04 1344.35
  Q 118.52 1344.20 118.91 1344.51
  Q 120.33 1345.61 123.28 1348.47
  Q 152.75 1377.03 200.91 1423.81
  Q 201.93 1424.79 201.55 1423.43
  Q 201.39 1422.87 201.45 1422.38
  Q 201.51 1421.81 202.07 1421.67
  L 368.75 1380.64
  Q 369.24 1380.52 369.18 1380.01
  L 347.62 1196.85
  A 0.56 0.56 0.0 0 0 346.80 1196.42
  L 133.19 1305.94
  A 0.54 0.54 0.0 0 1 132.42 1305.60
  L 110.66 1221.54
  A 1.08 1.08 0.0 0 1 110.75 1220.76
  L 191.71 1068.51
  A 0.58 0.56 34.4 0 1 192.59 1068.36
  L 193.71 1069.31
  Q 194.57 1070.04 194.16 1069.00
  L 158.09 978.85
  A 0.50 0.49 -31.3 0 0 157.32 978.67
  L 156.40 979.45
  Q 155.95 979.83 155.41 979.77
  L 43.10 966.93
  Q 42.44 966.85 42.68 966.24
  L 43.54 964.01
  Q 43.91 963.06 42.90 963.15
  L 0.00 967.28"
/>
<path stroke="#aa764a" vector-effect="non-scaling-stroke" d="
  M 1456.96 0.00
  L 1590.86 92.19
  Q 1591.61 92.70 1591.61 91.80
  L 1591.61 0.00"
/>
<path stroke="#aa764a" vector-effect="non-scaling-stroke" d="
  M 1091.29 1214.43
  L 1030.08 883.77
  Q 1030.00 883.33 1029.73 883.70
  L 892.78 1073.25
  Q 892.45 1073.72 892.69 1074.24
  L 979.77 1258.67
  Q 979.97 1259.09 980.43 1259.16
  L 991.80 1260.96
  A 0.72 0.72 0.0 0 0 992.64 1260.30
  L 992.80 1258.02
  Q 992.83 1257.48 993.36 1257.38
  L 1081.11 1241.46
  Q 1081.59 1241.37 1082.04 1241.74
  L 1083.22 1242.68
  Q 1083.51 1242.92 1083.67 1242.48
  L 1094.33 1213.80
  Q 1094.66 1212.92 1093.87 1213.42
  L 1091.89 1214.70
  Q 1091.39 1215.01 1091.29 1214.43"
/>
<path stroke="#aa764a" vector-effect="non-scaling-stroke" d="
  M 1541.43 1312.18
  Q 1498.79 1308.57 1398.59 1300.43
  Q 1394.15 1300.06 1391.02 1299.12
  Q 1388.10 1298.24 1383.57 1296.91
  A 0.88 0.88 0.0 0 1 1382.95 1296.25
  L 1362.23 1198.91
  Q 1362.13 1198.43 1362.17 1198.18
  L 1362.28 1197.54
  Q 1362.41 1196.77 1361.71 1197.19
  L 1155.89 1318.39
  Q 1155.39 1318.68 1155.73 1319.16
  C 1156.31 1319.96 1156.93 1320.75 1157.35 1321.62
  Q 1210.90 1434.38 1244.54 1505.19
  A 8.27 8.18 28.4 0 1 1245.24 1507.52
  L 1257.53 1590.97
  A 0.69 0.69 0.0 0 0 1258.22 1591.56
  L 1590.65 1591.57
  Q 1591.62 1591.57 1591.62 1590.60
  L 1591.62 1288.46
  A 0.47 0.46 78.0 0 0 1590.97 1288.03
  L 1545.68 1308.41
  Q 1545.19 1308.63 1544.82 1309.05
  L 1542.44 1311.75
  Q 1542.02 1312.23 1541.43 1312.18"
/>
</g>
<path fill="#5a1a82" d="
  M 111.77 0.00
  L 100.68 119.63
  Q 100.62 120.22 101.13 119.91
  L 227.86 41.96
  Q 228.22 41.73 228.33 41.32
  L 239.08 0.00
  L 442.56 0.00
  L 377.74 219.64
  A 0.75 0.75 0.0 0 0 378.21 220.56
  L 506.47 266.44
  Q 506.94 266.60 507.38 266.38
  Q 508.28 265.93 508.87 265.18
  A 0.91 0.91 0.0 0 1 510.29 265.16
  L 571.48 338.80
  A 0.20 0.20 0.0 0 0 571.75 338.83
  L 656.23 282.24
  A 0.28 0.28 0.0 0 1 656.63 282.35
  L 706.04 379.24
  A 0.57 0.57 0.0 0 0 706.49 379.55
  L 772.78 385.73
  Q 773.35 385.79 773.44 385.22
  L 779.97 344.91
  Q 780.06 344.38 780.52 344.13
  L 902.95 277.18
  Q 903.47 276.89 903.95 277.25
  L 942.06 306.19
  Q 942.58 306.58 942.72 305.95
  L 943.14 304.05
  Q 943.25 303.53 943.81 303.54
  L 1132.64 305.26
  Q 1133.17 305.27 1133.13 305.79
  L 1129.29 358.51
  A 3.60 3.56 -52.9 0 0 1129.48 359.96
  L 1176.57 493.05
  A 0.59 0.59 0.0 0 1 1176.07 493.84
  L 955.44 513.29
  A 0.77 0.76 -8.0 0 1 954.62 512.68
  L 946.75 472.52
  A 1.24 1.24 0.0 0 0 946.29 471.78
  L 907.42 441.84
  Q 906.92 441.45 907.07 440.83
  L 907.53 438.94
  Q 907.68 438.31 906.96 438.26
  L 786.08 429.58
  Q 785.58 429.55 785.37 430.00
  L 743.47 519.52
  Q 743.18 520.14 742.50 520.06
  L 547.98 497.49
  A 2.40 2.39 -60.8 0 0 546.22 497.99
  L 531.74 509.42
  Q 531.36 509.72 530.88 509.60
  Q 504.18 502.66 482.08 497.03
  Q 478.49 496.11 474.89 494.09
  Q 437.60 473.16 214.85 348.11
  Q 214.36 347.84 213.97 348.23
  Q 212.59 349.56 210.92 350.50
  Q 209.54 351.27 206.69 350.94
  Q 61.30 334.17 38.49 331.54
  Q 37.89 331.47 38.05 330.86
  L 38.71 328.42
  Q 38.86 327.83 38.21 327.95
  L 0.00 335.21
  L 0.00 0.00
  L 111.77 0.00
  Z"
/>
<path fill="#fad111" d="
  M 239.08 0.00
  L 228.33 41.32
  Q 228.22 41.73 227.86 41.96
  L 101.13 119.91
  Q 100.62 120.22 100.68 119.63
  L 111.77 0.00
  L 239.08 0.00
  Z"
/>
<path fill="#fad111" d="
  M 733.23 0.00
  L 734.68 146.63
  Q 734.69 147.15 735.21 147.26
  L 891.23 178.58
  A 0.94 0.94 0.0 0 0 892.04 178.36
  L 973.27 106.51
  Q 973.66 106.16 973.68 105.63
  L 976.43 0.00
  L 1297.93 0.00
  L 1299.60 80.98
  Q 1299.61 81.44 1300.05 81.56
  L 1543.07 151.30
  Q 1543.88 151.53 1543.41 152.23
  L 1477.84 248.03
  A 1.05 1.05 0.0 0 1 1476.99 248.49
  Q 1426.21 249.12 1340.89 250.14
  Q 1326.46 250.31 1320.87 250.20
  Q 1320.34 250.18 1320.56 250.66
  L 1416.30 454.23
  A 1.49 1.49 0.0 0 1 1416.22 455.64
  L 1359.76 547.22
  Q 1359.61 547.46 1359.84 547.64
  L 1549.79 695.31
  Q 1550.20 695.63 1550.69 695.83
  Q 1551.20 696.05 1551.77 696.11
  Q 1552.50 696.19 1552.02 696.75
  L 1354.81 926.91
  A 0.33 0.32 49.5 0 1 1354.29 926.86
  L 1353.89 926.22
  Q 1353.48 925.56 1352.94 925.17
  L 1149.22 779.18
  A 1.59 1.59 0.0 0 0 1147.94 778.92
  L 1049.50 800.88
  Q 1048.85 801.03 1048.53 801.62
  Q 1045.52 807.26 1042.82 812.22
  C 1041.92 813.87 1041.66 815.75 1041.43 817.59
  A 0.98 0.98 0.0 0 1 1040.88 818.35
  L 818.73 926.79
  A 1.05 1.05 0.0 0 1 817.78 926.77
  L 640.79 833.99
  A 6.06 6.06 0.0 0 1 638.98 832.54
  L 597.05 783.18
  A 1.10 1.09 70.4 0 0 596.24 782.79
  L 578.48 782.38
  Q 578.02 782.36 577.86 782.83
  L 499.84 1011.13
  A 0.36 0.23 -62.6 0 1 499.39 1011.38
  L 497.24 1009.11
  Q 496.44 1008.26 496.30 1009.20
  L 495.11 1016.94
  Q 495.02 1017.55 495.62 1017.41
  L 693.84 971.18
  Q 694.36 971.06 694.73 971.45
  L 750.13 1030.79
  A 1.53 1.52 -66.4 0 1 750.54 1031.84
  L 750.17 1088.62
  A 1.15 1.15 0.0 0 1 749.99 1089.24
  L 718.19 1137.75
  A 0.39 0.39 0.0 0 1 717.53 1137.74
  L 716.76 1136.51
  A 1.00 0.85 71.6 0 0 716.00 1136.05
  L 704.65 1135.98
  Q 703.61 1135.98 702.89 1136.70
  L 593.71 1245.16
  Q 593.27 1245.61 593.85 1245.86
  L 595.45 1246.55
  A 0.73 0.72 -78.8 0 1 595.89 1247.21
  L 597.44 1363.21
  Q 597.45 1363.79 597.05 1364.02
  L 596.71 1364.22
  Q 595.99 1364.64 596.86 1364.62
  Q 597.86 1364.60 599.13 1364.57
  Q 680.28 1362.33 771.38 1360.46
  Q 772.02 1360.45 772.13 1361.08
  L 786.73 1446.50
  A 0.69 0.69 0.0 0 1 786.46 1447.17
  L 587.41 1590.88
  A 3.60 3.60 0.0 0 1 585.31 1591.57
  L 460.12 1591.55
  Q 459.44 1591.55 459.54 1591.02
  L 459.69 1590.27
  A 0.83 0.71 16.7 0 0 459.15 1589.44
  L 206.17 1491.53
  A 0.66 0.66 0.0 0 0 205.33 1491.87
  L 159.13 1591.01
  A 0.96 0.95 12.3 0 1 158.26 1591.56
  L 139.47 1591.58
  A 2.08 2.00 69.8 0 1 137.88 1590.80
  L 0.00 1419.63
  L 0.00 1382.11
  L 118.04 1344.35
  Q 118.52 1344.20 118.91 1344.51
  Q 120.33 1345.61 123.28 1348.47
  Q 152.75 1377.03 200.91 1423.81
  Q 201.93 1424.79 201.55 1423.43
  Q 201.39 1422.87 201.45 1422.38
  Q 201.51 1421.81 202.07 1421.67
  L 368.75 1380.64
  Q 369.24 1380.52 369.18 1380.01
  L 347.62 1196.85
  A 0.56 0.56 0.0 0 0 346.80 1196.42
  L 133.19 1305.94
  A 0.54 0.54 0.0 0 1 132.42 1305.60
  L 110.66 1221.54
  A 1.08 1.08 0.0 0 1 110.75 1220.76
  L 191.71 1068.51
  A 0.58 0.56 34.4 0 1 192.59 1068.36
  L 193.71 1069.31
  Q 194.57 1070.04 194.16 1069.00
  L 158.09 978.85
  A 0.50 0.49 -31.3 0 0 157.32 978.67
  L 156.40 979.45
  Q 155.95 979.83 155.41 979.77
  L 43.10 966.93
  Q 42.44 966.85 42.68 966.24
  L 43.54 964.01
  Q 43.91 963.06 42.90 963.15
  L 0.00 967.28
  L 0.00 335.21
  L 38.21 327.95
  Q 38.86 327.83 38.71 328.42
  L 38.05 330.86
  Q 37.89 331.47 38.49 331.54
  Q 61.30 334.17 206.69 350.94
  Q 209.54 351.27 210.92 350.50
  Q 212.59 349.56 213.97 348.23
  Q 214.36 347.84 214.85 348.11
  Q 437.60 473.16 474.89 494.09
  Q 478.49 496.11 482.08 497.03
  Q 504.18 502.66 530.88 509.60
  Q 531.36 509.72 531.74 509.42
  L 546.22 497.99
  A 2.40 2.39 -60.8 0 1 547.98 497.49
  L 742.50 520.06
  Q 743.18 520.14 743.47 519.52
  L 785.37 430.00
  Q 785.58 429.55 786.08 429.58
  L 906.96 438.26
  Q 907.68 438.31 907.53 438.94
  L 907.07 440.83
  Q 906.92 441.45 907.42 441.84
  L 946.29 471.78
  A 1.24 1.24 0.0 0 1 946.75 472.52
  L 954.62 512.68
  A 0.77 0.76 -8.0 0 0 955.44 513.29
  L 1176.07 493.84
  A 0.59 0.59 0.0 0 0 1176.57 493.05
  L 1129.48 359.96
  A 3.60 3.56 -52.9 0 1 1129.29 358.51
  L 1133.13 305.79
  Q 1133.17 305.27 1132.64 305.26
  L 943.81 303.54
  Q 943.25 303.53 943.14 304.05
  L 942.72 305.95
  Q 942.58 306.58 942.06 306.19
  L 903.95 277.25
  Q 903.47 276.89 902.95 277.18
  L 780.52 344.13
  Q 780.06 344.38 779.97 344.91
  L 773.44 385.22
  Q 773.35 385.79 772.78 385.73
  L 706.49 379.55
  A 0.57 0.57 0.0 0 1 706.04 379.24
  L 656.63 282.35
  A 0.28 0.28 0.0 0 0 656.23 282.24
  L 571.75 338.83
  A 0.20 0.20 0.0 0 1 571.48 338.80
  L 510.29 265.16
  A 0.91 0.91 0.0 0 0 508.87 265.18
  Q 508.28 265.93 507.38 266.38
  Q 506.94 266.60 506.47 266.44
  L 378.21 220.56
  A 0.75 0.75 0.0 0 1 377.74 219.64
  L 442.56 0.00
  L 733.23 0.00
  Z"
/>
<path fill="#5a1a82" d="
  M 976.43 0.00
  L 973.68 105.63
  Q 973.66 106.16 973.27 106.51
  L 892.04 178.36
  A 0.94 0.94 0.0 0 1 891.23 178.58
  L 735.21 147.26
  Q 734.69 147.15 734.68 146.63
  L 733.23 0.00
  L 976.43 0.00
  Z"
/>
<path fill="#5a1a82" d="
  M 1456.96 0.00
  L 1590.86 92.19
  Q 1591.61 92.70 1591.61 91.80
  L 1591.61 0.00
  L 1592.00 0.00
  L 1592.00 1592.00
  L 0.00 1592.00
  L 0.00 1419.63
  L 137.88 1590.80
  A 2.08 2.00 69.8 0 0 139.47 1591.58
  L 158.26 1591.56
  A 0.96 0.95 12.3 0 0 159.13 1591.01
  L 205.33 1491.87
  A 0.66 0.66 0.0 0 1 206.17 1491.53
  L 459.15 1589.44
  A 0.83 0.71 16.7 0 1 459.69 1590.27
  L 459.54 1591.02
  Q 459.44 1591.55 460.12 1591.55
  L 585.31 1591.57
  A 3.60 3.60 0.0 0 0 587.41 1590.88
  L 786.46 1447.17
  A 0.69 0.69 0.0 0 0 786.73 1446.50
  L 772.13 1361.08
  Q 772.02 1360.45 771.38 1360.46
  Q 680.28 1362.33 599.13 1364.57
  Q 597.86 1364.60 596.86 1364.62
  Q 595.99 1364.64 596.71 1364.22
  L 597.05 1364.02
  Q 597.45 1363.79 597.44 1363.21
  L 595.89 1247.21
  A 0.73 0.72 -78.8 0 0 595.45 1246.55
  L 593.85 1245.86
  Q 593.27 1245.61 593.71 1245.16
  L 702.89 1136.70
  Q 703.61 1135.98 704.65 1135.98
  L 716.00 1136.05
  A 1.00 0.85 71.6 0 1 716.76 1136.51
  L 717.53 1137.74
  A 0.39 0.39 0.0 0 0 718.19 1137.75
  L 749.99 1089.24
  A 1.15 1.15 0.0 0 0 750.17 1088.62
  L 750.54 1031.84
  A 1.53 1.52 -66.4 0 0 750.13 1030.79
  L 694.73 971.45
  Q 694.36 971.06 693.84 971.18
  L 495.62 1017.41
  Q 495.02 1017.55 495.11 1016.94
  L 496.30 1009.20
  Q 496.44 1008.26 497.24 1009.11
  L 499.39 1011.38
  A 0.36 0.23 -62.6 0 0 499.84 1011.13
  L 577.86 782.83
  Q 578.02 782.36 578.48 782.38
  L 596.24 782.79
  A 1.10 1.09 70.4 0 1 597.05 783.18
  L 638.98 832.54
  A 6.06 6.06 0.0 0 0 640.79 833.99
  L 817.78 926.77
  A 1.05 1.05 0.0 0 0 818.73 926.79
  L 1040.88 818.35
  A 0.98 0.98 0.0 0 0 1041.43 817.59
  C 1041.66 815.75 1041.92 813.87 1042.82 812.22
  Q 1045.52 807.26 1048.53 801.62
  Q 1048.85 801.03 1049.50 800.88
  L 1147.94 778.92
  A 1.59 1.59 0.0 0 1 1149.22 779.18
  L 1352.94 925.17
  Q 1353.48 925.56 1353.89 926.22
  L 1354.29 926.86
  A 0.33 0.32 49.5 0 0 1354.81 926.91
  L 1552.02 696.75
  Q 1552.50 696.19 1551.77 696.11
  Q 1551.20 696.05 1550.69 695.83
  Q 1550.20 695.63 1549.79 695.31
  L 1359.84 547.64
  Q 1359.61 547.46 1359.76 547.22
  L 1416.22 455.64
  A 1.49 1.49 0.0 0 0 1416.30 454.23
  L 1320.56 250.66
  Q 1320.34 250.18 1320.87 250.20
  Q 1326.46 250.31 1340.89 250.14
  Q 1426.21 249.12 1476.99 248.49
  A 1.05 1.05 0.0 0 0 1477.84 248.03
  L 1543.41 152.23
  Q 1543.88 151.53 1543.07 151.30
  L 1300.05 81.56
  Q 1299.61 81.44 1299.60 80.98
  L 1297.93 0.00
  L 1456.96 0.00
  Z
  M 1091.29 1214.43
  L 1030.08 883.77
  Q 1030.00 883.33 1029.73 883.70
  L 892.78 1073.25
  Q 892.45 1073.72 892.69 1074.24
  L 979.77 1258.67
  Q 979.97 1259.09 980.43 1259.16
  L 991.80 1260.96
  A 0.72 0.72 0.0 0 0 992.64 1260.30
  L 992.80 1258.02
  Q 992.83 1257.48 993.36 1257.38
  L 1081.11 1241.46
  Q 1081.59 1241.37 1082.04 1241.74
  L 1083.22 1242.68
  Q 1083.51 1242.92 1083.67 1242.48
  L 1094.33 1213.80
  Q 1094.66 1212.92 1093.87 1213.42
  L 1091.89 1214.70
  Q 1091.39 1215.01 1091.29 1214.43
  Z
  M 1541.43 1312.18
  Q 1498.79 1308.57 1398.59 1300.43
  Q 1394.15 1300.06 1391.02 1299.12
  Q 1388.10 1298.24 1383.57 1296.91
  A 0.88 0.88 0.0 0 1 1382.95 1296.25
  L 1362.23 1198.91
  Q 1362.13 1198.43 1362.17 1198.18
  L 1362.28 1197.54
  Q 1362.41 1196.77 1361.71 1197.19
  L 1155.89 1318.39
  Q 1155.39 1318.68 1155.73 1319.16
  C 1156.31 1319.96 1156.93 1320.75 1157.35 1321.62
  Q 1210.90 1434.38 1244.54 1505.19
  A 8.27 8.18 28.4 0 1 1245.24 1507.52
  L 1257.53 1590.97
  A 0.69 0.69 0.0 0 0 1258.22 1591.56
  L 1590.65 1591.57
  Q 1591.62 1591.57 1591.62 1590.60
  L 1591.62 1288.46
  A 0.47 0.46 78.0 0 0 1590.97 1288.03
  L 1545.68 1308.41
  Q 1545.19 1308.63 1544.82 1309.05
  L 1542.44 1311.75
  Q 1542.02 1312.23 1541.43 1312.18
  Z"
/>
<path fill="#fad111" d="
  M 1591.61 0.00
  L 1591.61 91.80
  Q 1591.61 92.70 1590.86 92.19
  L 1456.96 0.00
  L 1591.61 0.00
  Z"
/>
<path fill="#fad111" d="
  M 1091.89 1214.70
  L 1093.87 1213.42
  Q 1094.66 1212.92 1094.33 1213.80
  L 1083.67 1242.48
  Q 1083.51 1242.92 1083.22 1242.68
  L 1082.04 1241.74
  Q 1081.59 1241.37 1081.11 1241.46
  L 993.36 1257.38
  Q 992.83 1257.48 992.80 1258.02
  L 992.64 1260.30
  A 0.72 0.72 0.0 0 1 991.80 1260.96
  L 980.43 1259.16
  Q 979.97 1259.09 979.77 1258.67
  L 892.69 1074.24
  Q 892.45 1073.72 892.78 1073.25
  L 1029.73 883.70
  Q 1030.00 883.33 1030.08 883.77
  L 1091.29 1214.43
  Q 1091.39 1215.01 1091.89 1214.70
  Z"
/>
<path fill="#5a1a82" d="
  M 0.00 1382.11
  L 0.00 967.28
  L 42.90 963.15
  Q 43.91 963.06 43.54 964.01
  L 42.68 966.24
  Q 42.44 966.85 43.10 966.93
  L 155.41 979.77
  Q 155.95 979.83 156.40 979.45
  L 157.32 978.67
  A 0.50 0.49 -31.3 0 1 158.09 978.85
  L 194.16 1069.00
  Q 194.57 1070.04 193.71 1069.31
  L 192.59 1068.36
  A 0.58 0.56 34.4 0 0 191.71 1068.51
  L 110.75 1220.76
  A 1.08 1.08 0.0 0 0 110.66 1221.54
  L 132.42 1305.60
  A 0.54 0.54 0.0 0 0 133.19 1305.94
  L 346.80 1196.42
  A 0.56 0.56 0.0 0 1 347.62 1196.85
  L 369.18 1380.01
  Q 369.24 1380.52 368.75 1380.64
  L 202.07 1421.67
  Q 201.51 1421.81 201.45 1422.38
  Q 201.39 1422.87 201.55 1423.43
  Q 201.93 1424.79 200.91 1423.81
  Q 152.75 1377.03 123.28 1348.47
  Q 120.33 1345.61 118.91 1344.51
  Q 118.52 1344.20 118.04 1344.35
  L 0.00 1382.11
  Z"
/>
<path fill="#fad111" d="
  M 1542.44 1311.75
  L 1544.82 1309.05
  Q 1545.19 1308.63 1545.68 1308.41
  L 1590.97 1288.03
  A 0.47 0.46 78.0 0 1 1591.62 1288.46
  L 1591.62 1590.60
  Q 1591.62 1591.57 1590.65 1591.57
  L 1258.22 1591.56
  A 0.69 0.69 0.0 0 1 1257.53 1590.97
  L 1245.24 1507.52
  A 8.27 8.18 28.4 0 0 1244.54 1505.19
  Q 1210.90 1434.38 1157.35 1321.62
  C 1156.93 1320.75 1156.31 1319.96 1155.73 1319.16
  Q 1155.39 1318.68 1155.89 1318.39
  L 1361.71 1197.19
  Q 1362.41 1196.77 1362.28 1197.54
  L 1362.17 1198.18
  Q 1362.13 1198.43 1362.23 1198.91
  L 1382.95 1296.25
  A 0.88 0.88 0.0 0 0 1383.57 1296.91
  Q 1388.10 1298.24 1391.02 1299.12
  Q 1394.15 1300.06 1398.59 1300.43
  Q 1498.79 1308.57 1541.43 1312.18
  Q 1542.02 1312.23 1542.44 1311.75
  Z"
/>
</svg>
