<?xml version="1.0" encoding="UTF-8" standalone="no"?>
<!DOCTYPE svg PUBLIC "-//W3C//DTD SVG 1.1//EN" "http://www.w3.org/Graphics/SVG/1.1/DTD/svg11.dtd">
<svg xmlns="http://www.w3.org/2000/svg" version="1.1" viewBox="0.00 0.00 1592.00 1592.00">
<g stroke-width="2.00" fill="none" stroke-linecap="butt">
<path stroke="#786d60" vector-effect="non-scaling-stroke" d="
  M 236.30 0.00
  L 152.54 298.89
  A 1.73 1.73 0.0 0 1 151.99 299.75
  L 27.55 405.05
  Q 27.20 405.34 27.59 405.56
  L 358.63 592.31
  A 1.00 1.00 0.0 0 1 359.11 593.43
  L 322.93 737.43
  A 0.90 0.90 0.0 0 1 321.92 738.10
  L 0.00 690.66"
/>
<path stroke="#786d60" vector-effect="non-scaling-stroke" d="
  M 1592.00 609.38
  L 1591.84 595.03
  Q 1591.84 595.01 1591.68 594.87
  L 1591.68 594.87
  A 0.15 0.09 -78.7 0 0 1591.53 595.04
  Q 1591.37 610.57 1591.71 616.19
  Q 1592.12 622.91 1591.59 627.60
  Q 1591.53 628.10 1591.05 627.97
  L 1354.22 560.78
  A 0.33 0.33 0.0 0 1 1354.07 560.24
  Q 1355.40 558.79 1354.61 557.38
  Q 1350.48 550.07 1253.03 387.80
  A 1.00 0.99 46.5 0 0 1251.35 387.76
  Q 1251.11 388.12 1250.78 388.29
  Q 1250.15 388.64 1250.33 387.94
  L 1274.13 298.25
  A 0.36 0.36 0.0 0 0 1273.77 297.80
  L 948.05 307.85
  A 0.77 0.77 0.0 0 0 947.32 308.49
  L 915.25 495.47
  A 0.49 0.49 0.0 0 1 914.60 495.84
  L 711.86 418.81
  Q 711.33 418.60 711.10 418.09
  L 693.96 380.49
  A 1.76 1.76 0.0 0 1 693.82 379.49
  L 711.43 264.75
  A 0.58 0.48 -67.4 0 0 711.29 264.27
  L 553.53 117.54
  A 0.84 0.80 35.8 0 0 552.25 117.71
  L 439.59 329.31
  A 1.34 1.34 0.0 0 0 439.62 330.63
  L 458.38 362.12
  A 3.76 3.76 0.0 0 1 458.90 363.79
  L 471.05 538.56
  A 1.44 1.44 0.0 0 0 471.80 539.73
  L 585.59 601.28
  A 2.99 2.98 0.2 0 1 586.81 602.51
  L 658.10 736.65
  Q 658.35 737.13 657.81 737.11
  Q 657.21 737.08 656.33 737.34
  Q 654.28 737.97 377.34 842.93
  A 0.72 0.72 0.0 0 0 377.00 844.03
  Q 377.98 845.41 377.35 847.38
  Q 373.77 858.65 354.63 920.96
  Q 354.49 921.43 354.96 921.54
  L 629.52 985.45
  A 1.35 1.34 -89.2 0 1 630.53 986.49
  L 632.45 995.94
  A 1.74 1.73 -33.3 0 1 632.17 997.28
  L 591.46 1055.38
  Q 591.31 1055.59 591.56 1055.51
  Q 591.75 1055.45 591.83 1055.43
  Q 592.50 1055.28 592.92 1055.81
  L 686.70 1172.24
  A 0.80 0.80 0.0 0 1 686.47 1173.44
  L 480.00 1289.12
  A 0.33 0.33 0.0 0 1 479.51 1288.80
  Q 491.02 1184.34 495.72 1141.65
  Q 495.85 1140.51 496.28 1140.11
  Q 496.65 1139.77 497.49 1138.86
  A 1.10 1.10 0.0 0 0 497.56 1137.45
  L 344.66 937.10
  Q 344.30 936.63 343.89 937.06
  C 343.14 937.84 342.87 938.26 341.72 938.84
  Q 306.14 956.80 279.72 970.02
  C 278.67 970.54 277.71 970.35 276.69 970.02
  A 0.70 0.70 0.0 0 0 275.79 970.54
  L 261.60 1034.26
  A 1.54 1.54 0.0 0 1 260.79 1035.30
  Q 160.14 1085.91 66.12 1133.10
  Q 61.42 1135.46 60.51 1136.20
  Q 60.11 1136.53 60.31 1137.01
  Q 60.48 1137.41 60.92 1137.75
  Q 60.93 1137.76 60.92 1137.77
  Q 60.91 1137.77 60.91 1137.78
  Q 60.89 1137.79 60.87 1137.77
  L 0.00 1086.21"
/>
<path stroke="#786d60" vector-effect="non-scaling-stroke" d="
  M 1592.00 609.74
  L 1592.00 615.36"
/>
<path stroke="#786d60" vector-effect="non-scaling-stroke" d="
  M 1048.50 1592.00
  L 1050.10 1591.50
  Q 1050.61 1591.35 1050.48 1590.83
  L 1012.73 1448.96
  A 1.16 1.16 0.0 0 0 1011.29 1448.14
  C 1009.92 1448.54 1009.09 1448.41 1007.81 1447.45
  Q 980.59 1426.92 944.41 1399.55
  Q 943.55 1398.90 943.30 1399.95
  L 897.25 1591.07
  Q 897.14 1591.52 897.60 1591.57
  L 901.37 1592.00"
/>
<path stroke="#786d60" vector-effect="non-scaling-stroke" d="
  M 674.25 1592.00
  L 675.86 1591.42
  Q 676.33 1591.25 676.34 1590.75
  L 677.63 1484.03
  A 2.50 2.50 0.0 0 1 679.02 1481.82
  L 904.17 1370.63
  Q 904.74 1370.35 904.67 1370.99
  Q 904.40 1373.16 906.37 1374.14
  Q 906.72 1374.31 907.63 1374.89
  Q 924.53 1385.70 941.18 1396.32
  A 1.20 1.20 0.0 0 0 942.47 1396.32
  L 1144.10 1269.03
  A 1.50 1.50 0.0 0 0 1144.78 1268.00
  Q 1146.11 1259.81 1145.60 1252.27
  Q 1145.40 1249.20 1146.18 1245.76
  Q 1165.68 1160.35 1184.87 1076.45
  Q 1184.99 1075.91 1184.46 1076.06
  L 895.99 1156.32
  A 1.07 1.06 -31.1 0 1 894.97 1156.08
  L 860.41 1123.93
  A 1.20 1.19 53.6 0 0 859.08 1123.72
  L 770.36 1165.86
  A 3.70 3.70 0.0 0 0 768.88 1167.13
  L 603.17 1413.11
  A 0.90 0.90 0.0 0 1 601.95 1413.37
  L 469.85 1329.80
  A 2.08 2.08 0.0 0 0 467.83 1329.69
  L 186.49 1467.08
  Q 185.42 1467.60 184.72 1468.56
  L 95.95 1590.94
  A 0.51 0.51 0.0 0 0 96.39 1591.75
  Q 109.34 1591.10 122.36 1592.00"
/>
<path stroke="#786d60" vector-effect="non-scaling-stroke" d="
  M 863.56 697.21
  L 863.78 696.57
  Q 864.09 695.70 863.28 696.10
  L 761.34 745.80
  Q 760.40 746.25 761.49 746.72
  Q 761.65 746.79 762.07 747.12
  Q 762.25 747.26 762.37 747.56
  Q 864.62 1005.86 869.58 1018.44
  Q 869.94 1019.38 870.08 1019.85
  Q 870.44 1021.15 871.42 1020.21
  L 1057.22 840.92
  A 0.58 0.57 -48.9 0 0 1057.16 840.04
  L 863.93 698.46
  A 1.11 1.08 -62.3 0 1 863.56 697.21"
/>
<path stroke="#786d60" vector-effect="non-scaling-stroke" d="
  M 1405.76 1456.13
  Q 1406.19 1456.38 1406.25 1456.51
  Q 1407.01 1457.97 1407.20 1456.25
  L 1419.05 1349.55
  A 0.51 0.51 0.0 0 0 1418.34 1349.03
  Q 1417.67 1349.31 1416.30 1349.20
  Q 1320.15 1341.07 1291.82 1338.87
  Q 1291.33 1338.83 1291.03 1338.34
  L 1289.84 1336.38
  Q 1289.53 1335.87 1289.02 1336.14
  L 1194.57 1386.01
  A 0.91 0.86 -23.6 0 0 1194.12 1387.06
  L 1194.87 1389.25
  Q 1195.04 1389.74 1194.76 1390.21
  L 1183.20 1409.93
  A 1.17 1.14 -85.3 0 1 1182.64 1410.41
  L 1181.13 1411.04
  Q 1180.59 1411.26 1180.88 1411.78
  L 1228.92 1496.31
  A 0.84 0.83 70.7 0 0 1229.77 1496.72
  L 1380.48 1473.02
  A 2.27 2.26 9.0 0 0 1382.15 1471.81
  Q 1382.64 1470.85 1383.63 1469.16
  Q 1384.01 1468.51 1385.85 1467.39
  Q 1401.71 1457.73 1404.83 1456.10
  Q 1405.30 1455.86 1405.76 1456.13"
/>
</g>
<path fill="#0a98a4" d="
  M 236.30 0.00
  L 152.54 298.89
  A 1.73 1.73 0.0 0 1 151.99 299.75
  L 27.55 405.05
  Q 27.20 405.34 27.59 405.56
  L 358.63 592.31
  A 1.00 1.00 0.0 0 1 359.11 593.43
  L 322.93 737.43
  A 0.90 0.90 0.0 0 1 321.92 738.10
  L 0.00 690.66
  L 0.00 0.00
  L 236.30 0.00
  Z"
/>
<path fill="#e5421c" d="
  M 1592.00 0.00
  L 1592.00 609.38
  L 1591.84 595.03
  Q 1591.84 595.01 1591.68 594.87
  L 1591.68 594.87
  A 0.15 0.09 -78.7 0 0 1591.53 595.04
  Q 1591.37 610.57 1591.71 616.19
  Q 1592.12 622.91 1591.59 627.60
  Q 1591.53 628.10 1591.05 627.97
  L 1354.22 560.78
  A 0.33 0.33 0.0 0 1 1354.07 560.24
  Q 1355.40 558.79 1354.61 557.38
  Q 1350.48 550.07 1253.03 387.80
  A 1.00 0.99 46.5 0 0 1251.35 387.76
  Q 1251.11 388.12 1250.78 388.29
  Q 1250.15 388.64 1250.33 387.94
  L 1274.13 298.25
  A 0.36 0.36 0.0 0 0 1273.77 297.80
  L 948.05 307.85
  A 0.77 0.77 0.0 0 0 947.32 308.49
  L 915.25 495.47
  A 0.49 0.49 0.0 0 1 914.60 495.84
  L 711.86 418.81
  Q 711.33 418.60 711.10 418.09
  L 693.96 380.49
  A 1.76 1.76 0.0 0 1 693.82 379.49
  L 711.43 264.75
  A 0.58 0.48 -67.4 0 0 711.29 264.27
  L 553.53 117.54
  A 0.84 0.80 35.8 0 0 552.25 117.71
  L 439.59 329.31
  A 1.34 1.34 0.0 0 0 439.62 330.63
  L 458.38 362.12
  A 3.76 3.76 0.0 0 1 458.90 363.79
  L 471.05 538.56
  A 1.44 1.44 0.0 0 0 471.80 539.73
  L 585.59 601.28
  A 2.99 2.98 0.2 0 1 586.81 602.51
  L 658.10 736.65
  Q 658.35 737.13 657.81 737.11
  Q 657.21 737.08 656.33 737.34
  Q 654.28 737.97 377.34 842.93
  A 0.72 0.72 0.0 0 0 377.00 844.03
  Q 377.98 845.41 377.35 847.38
  Q 373.77 858.65 354.63 920.96
  Q 354.49 921.43 354.96 921.54
  L 629.52 985.45
  A 1.35 1.34 -89.2 0 1 630.53 986.49
  L 632.45 995.94
  A 1.74 1.73 -33.3 0 1 632.17 997.28
  L 591.46 1055.38
  Q 591.31 1055.59 591.56 1055.51
  Q 591.75 1055.45 591.83 1055.43
  Q 592.50 1055.28 592.92 1055.81
  L 686.70 1172.24
  A 0.80 0.80 0.0 0 1 686.47 1173.44
  L 480.00 1289.12
  A 0.33 0.33 0.0 0 1 479.51 1288.80
  Q 491.02 1184.34 495.72 1141.65
  Q 495.85 1140.51 496.28 1140.11
  Q 496.65 1139.77 497.49 1138.86
  A 1.10 1.10 0.0 0 0 497.56 1137.45
  L 344.66 937.10
  Q 344.30 936.63 343.89 937.06
  C 343.14 937.84 342.87 938.26 341.72 938.84
  Q 306.14 956.80 279.72 970.02
  C 278.67 970.54 277.71 970.35 276.69 970.02
  A 0.70 0.70 0.0 0 0 275.79 970.54
  L 261.60 1034.26
  A 1.54 1.54 0.0 0 1 260.79 1035.30
  Q 160.14 1085.91 66.12 1133.10
  Q 61.42 1135.46 60.51 1136.20
  Q 60.11 1136.53 60.31 1137.01
  Q 60.48 1137.41 60.92 1137.75
  Q 60.93 1137.76 60.92 1137.77
  Q 60.91 1137.77 60.91 1137.78
  Q 60.89 1137.79 60.87 1137.77
  L 0.00 1086.21
  L 0.00 690.66
  L 321.92 738.10
  A 0.90 0.90 0.0 0 0 322.93 737.43
  L 359.11 593.43
  A 1.00 1.00 0.0 0 0 358.63 592.31
  L 27.59 405.56
  Q 27.20 405.34 27.55 405.05
  L 151.99 299.75
  A 1.73 1.73 0.0 0 0 152.54 298.89
  L 236.30 0.00
  L 1592.00 0.00
  Z"
/>
<path fill="#0a98a4" d="
  M 1592.00 609.38
  Q 1592.00 609.56 1592.00 609.74
  L 1592.00 615.36
  L 1592.00 1592.00
  L 1048.50 1592.00
  L 1050.10 1591.50
  Q 1050.61 1591.35 1050.48 1590.83
  L 1012.73 1448.96
  A 1.16 1.16 0.0 0 0 1011.29 1448.14
  C 1009.92 1448.54 1009.09 1448.41 1007.81 1447.45
  Q 980.59 1426.92 944.41 1399.55
  Q 943.55 1398.90 943.30 1399.95
  L 897.25 1591.07
  Q 897.14 1591.52 897.60 1591.57
  L 901.37 1592.00
  L 674.25 1592.00
  L 675.86 1591.42
  Q 676.33 1591.25 676.34 1590.75
  L 677.63 1484.03
  A 2.50 2.50 0.0 0 1 679.02 1481.82
  L 904.17 1370.63
  Q 904.74 1370.35 904.67 1370.99
  Q 904.40 1373.16 906.37 1374.14
  Q 906.72 1374.31 907.63 1374.89
  Q 924.53 1385.70 941.18 1396.32
  A 1.20 1.20 0.0 0 0 942.47 1396.32
  L 1144.10 1269.03
  A 1.50 1.50 0.0 0 0 1144.78 1268.00
  Q 1146.11 1259.81 1145.60 1252.27
  Q 1145.40 1249.20 1146.18 1245.76
  Q 1165.68 1160.35 1184.87 1076.45
  Q 1184.99 1075.91 1184.46 1076.06
  L 895.99 1156.32
  A 1.07 1.06 -31.1 0 1 894.97 1156.08
  L 860.41 1123.93
  A 1.20 1.19 53.6 0 0 859.08 1123.72
  L 770.36 1165.86
  A 3.70 3.70 0.0 0 0 768.88 1167.13
  L 603.17 1413.11
  A 0.90 0.90 0.0 0 1 601.95 1413.37
  L 469.85 1329.80
  A 2.08 2.08 0.0 0 0 467.83 1329.69
  L 186.49 1467.08
  Q 185.42 1467.60 184.72 1468.56
  L 95.95 1590.94
  A 0.51 0.51 0.0 0 0 96.39 1591.75
  Q 109.34 1591.10 122.36 1592.00
  L 0.00 1592.00
  L 0.00 1086.21
  L 60.87 1137.77
  Q 60.89 1137.79 60.91 1137.78
  Q 60.91 1137.77 60.92 1137.77
  Q 60.93 1137.76 60.92 1137.75
  Q 60.48 1137.41 60.31 1137.01
  Q 60.11 1136.53 60.51 1136.20
  Q 61.42 1135.46 66.12 1133.10
  Q 160.14 1085.91 260.79 1035.30
  A 1.54 1.54 0.0 0 0 261.60 1034.26
  L 275.79 970.54
  A 0.70 0.70 0.0 0 1 276.69 970.02
  C 277.71 970.35 278.67 970.54 279.72 970.02
  Q 306.14 956.80 341.72 938.84
  C 342.87 938.26 343.14 937.84 343.89 937.06
  Q 344.30 936.63 344.66 937.10
  L 497.56 1137.45
  A 1.10 1.10 0.0 0 1 497.49 1138.86
  Q 496.65 1139.77 496.28 1140.11
  Q 495.85 1140.51 495.72 1141.65
  Q 491.02 1184.34 479.51 1288.80
  A 0.33 0.33 0.0 0 0 480.00 1289.12
  L 686.47 1173.44
  A 0.80 0.80 0.0 0 0 686.70 1172.24
  L 592.92 1055.81
  Q 592.50 1055.28 591.83 1055.43
  Q 591.75 1055.45 591.56 1055.51
  Q 591.31 1055.59 591.46 1055.38
  L 632.17 997.28
  A 1.74 1.73 -33.3 0 0 632.45 995.94
  L 630.53 986.49
  A 1.35 1.34 -89.2 0 0 629.52 985.45
  L 354.96 921.54
  Q 354.49 921.43 354.63 920.96
  Q 373.77 858.65 377.35 847.38
  Q 377.98 845.41 377.00 844.03
  A 0.72 0.72 0.0 0 1 377.34 842.93
  Q 654.28 737.97 656.33 737.34
  Q 657.21 737.08 657.81 737.11
  Q 658.35 737.13 658.10 736.65
  L 586.81 602.51
  A 2.99 2.98 0.2 0 0 585.59 601.28
  L 471.80 539.73
  A 1.44 1.44 0.0 0 1 471.05 538.56
  L 458.90 363.79
  A 3.76 3.76 0.0 0 0 458.38 362.12
  L 439.62 330.63
  A 1.34 1.34 0.0 0 1 439.59 329.31
  L 552.25 117.71
  A 0.84 0.80 35.8 0 1 553.53 117.54
  L 711.29 264.27
  A 0.58 0.48 -67.4 0 1 711.43 264.75
  L 693.82 379.49
  A 1.76 1.76 0.0 0 0 693.96 380.49
  L 711.10 418.09
  Q 711.33 418.60 711.86 418.81
  L 914.60 495.84
  A 0.49 0.49 0.0 0 0 915.25 495.47
  L 947.32 308.49
  A 0.77 0.77 0.0 0 1 948.05 307.85
  L 1273.77 297.80
  A 0.36 0.36 0.0 0 1 1274.13 298.25
  L 1250.33 387.94
  Q 1250.15 388.64 1250.78 388.29
  Q 1251.11 388.12 1251.35 387.76
  A 1.00 0.99 46.5 0 1 1253.03 387.80
  Q 1350.48 550.07 1354.61 557.38
  Q 1355.40 558.79 1354.07 560.24
  A 0.33 0.33 0.0 0 0 1354.22 560.78
  L 1591.05 627.97
  Q 1591.53 628.10 1591.59 627.60
  Q 1592.12 622.91 1591.71 616.19
  Q 1591.37 610.57 1591.53 595.04
  A 0.15 0.09 -78.7 0 1 1591.68 594.87
  L 1591.68 594.87
  Q 1591.84 595.01 1591.84 595.03
  L 1592.00 609.38
  Z
  M 863.56 697.21
  L 863.78 696.57
  Q 864.09 695.70 863.28 696.10
  L 761.34 745.80
  Q 760.40 746.25 761.49 746.72
  Q 761.65 746.79 762.07 747.12
  Q 762.25 747.26 762.37 747.56
  Q 864.62 1005.86 869.58 1018.44
  Q 869.94 1019.38 870.08 1019.85
  Q 870.44 1021.15 871.42 1020.21
  L 1057.22 840.92
  A 0.58 0.57 -48.9 0 0 1057.16 840.04
  L 863.93 698.46
  A 1.11 1.08 -62.3 0 1 863.56 697.21
  Z
  M 1405.76 1456.13
  Q 1406.19 1456.38 1406.25 1456.51
  Q 1407.01 1457.97 1407.20 1456.25
  L 1419.05 1349.55
  A 0.51 0.51 0.0 0 0 1418.34 1349.03
  Q 1417.67 1349.31 1416.30 1349.20
  Q 1320.15 1341.07 1291.82 1338.87
  Q 1291.33 1338.83 1291.03 1338.34
  L 1289.84 1336.38
  Q 1289.53 1335.87 1289.02 1336.14
  L 1194.57 1386.01
  A 0.91 0.86 -23.6 0 0 1194.12 1387.06
  L 1194.87 1389.25
  Q 1195.04 1389.74 1194.76 1390.21
  L 1183.20 1409.93
  A 1.17 1.14 -85.3 0 1 1182.64 1410.41
  L 1181.13 1411.04
  Q 1180.59 1411.26 1180.88 1411.78
  L 1228.92 1496.31
  A 0.84 0.83 70.7 0 0 1229.77 1496.72
  L 1380.48 1473.02
  A 2.27 2.26 9.0 0 0 1382.15 1471.81
  Q 1382.64 1470.85 1383.63 1469.16
  Q 1384.01 1468.51 1385.85 1467.39
  Q 1401.71 1457.73 1404.83 1456.10
  Q 1405.30 1455.86 1405.76 1456.13
  Z"
/>
<path fill="#e5421c" d="
  M 1592.00 609.74
  L 1592.00 615.36
  L 1592.00 609.74
  Z"
/>
<path fill="#e5421c" d="
  M 863.56 697.21
  A 1.11 1.08 -62.3 0 0 863.93 698.46
  L 1057.16 840.04
  A 0.58 0.57 -48.9 0 1 1057.22 840.92
  L 871.42 1020.21
  Q 870.44 1021.15 870.08 1019.85
  Q 869.94 1019.38 869.58 1018.44
  Q 864.62 1005.86 762.37 747.56
  Q 762.25 747.26 762.07 747.12
  Q 761.65 746.79 761.49 746.72
  Q 760.40 746.25 761.34 745.80
  L 863.28 696.10
  Q 864.09 695.70 863.78 696.57
  L 863.56 697.21
  Z"
/>
<path fill="#e5421c" d="
  M 674.25 1592.00
  L 122.36 1592.00
  Q 109.34 1591.10 96.39 1591.75
  A 0.51 0.51 0.0 0 1 95.95 1590.94
  L 184.72 1468.56
  Q 185.42 1467.60 186.49 1467.08
  L 467.83 1329.69
  A 2.08 2.08 0.0 0 1 469.85 1329.80
  L 601.95 1413.37
  A 0.90 0.90 0.0 0 0 603.17 1413.11
  L 768.88 1167.13
  A 3.70 3.70 0.0 0 1 770.36 1165.86
  L 859.08 1123.72
  A 1.20 1.19 53.6 0 1 860.41 1123.93
  L 894.97 1156.08
  A 1.07 1.06 -31.1 0 0 895.99 1156.32
  L 1184.46 1076.06
  Q 1184.99 1075.91 1184.87 1076.45
  Q 1165.68 1160.35 1146.18 1245.76
  Q 1145.40 1249.20 1145.60 1252.27
  Q 1146.11 1259.81 1144.78 1268.00
  A 1.50 1.50 0.0 0 1 1144.10 1269.03
  L 942.47 1396.32
  A 1.20 1.20 0.0 0 1 941.18 1396.32
  Q 924.53 1385.70 907.63 1374.89
  Q 906.72 1374.31 906.37 1374.14
  Q 904.40 1373.16 904.67 1370.99
  Q 904.74 1370.35 904.17 1370.63
  L 679.02 1481.82
  A 2.50 2.50 0.0 0 0 677.63 1484.03
  L 676.34 1590.75
  Q 676.33 1591.25 675.86 1591.42
  L 674.25 1592.00
  Z"
/>
<path fill="#e5421c" d="
  M 1404.83 1456.10
  Q 1401.71 1457.73 1385.85 1467.39
  Q 1384.01 1468.51 1383.63 1469.16
  Q 1382.64 1470.85 1382.15 1471.81
  A 2.27 2.26 9.0 0 1 1380.48 1473.02
  L 1229.77 1496.72
  A 0.84 0.83 70.7 0 1 1228.92 1496.31
  L 1180.88 1411.78
  Q 1180.59 1411.26 1181.13 1411.04
  L 1182.64 1410.41
  A 1.17 1.14 -85.3 0 0 1183.20 1409.93
  L 1194.76 1390.21
  Q 1195.04 1389.74 1194.87 1389.25
  L 1194.12 1387.06
  A 0.91 0.86 -23.6 0 1 1194.57 1386.01
  L 1289.02 1336.14
  Q 1289.53 1335.87 1289.84 1336.38
  L 1291.03 1338.34
  Q 1291.33 1338.83 1291.82 1338.87
  Q 1320.15 1341.07 1416.30 1349.20
  Q 1417.67 1349.31 1418.34 1349.03
  A 0.51 0.51 0.0 0 1 1419.05 1349.55
  L 1407.20 1456.25
  Q 1407.01 1457.97 1406.25 1456.51
  Q 1406.19 1456.38 1405.76 1456.13
  Q 1405.30 1455.86 1404.83 1456.10
  Z"
/>
<path fill="#e5421c" d="
  M 1048.50 1592.00
  L 901.37 1592.00
  L 897.60 1591.57
  Q 897.14 1591.52 897.25 1591.07
  L 943.30 1399.95
  Q 943.55 1398.90 944.41 1399.55
  Q 980.59 1426.92 1007.81 1447.45
  C 1009.09 1448.41 1009.92 1448.54 1011.29 1448.14
  A 1.16 1.16 0.0 0 1 1012.73 1448.96
  L 1050.48 1590.83
  Q 1050.61 1591.35 1050.10 1591.50
  L 1048.50 1592.00
  Z"
/>
</svg>
