<svg xmlns="http://www.w3.org/2000/svg" viewBox="0 0 382 382"><path d="M133.12 160.01q-.62.19-1.26-.13-6.67-3.28-13.26-6.55a2.37 2.36-34.1 0 0-1.27-.24l-17.06 1.67q-.58.05-1.05.41L85.2 165.89a.4.4 0 0 1-.63-.19l-.09-.28q-.06-.19.1-.31l12.6-9.64q.65-.49-.16-.41l-15.7 1.54q-.31.03-.38-.28l-.08-.35q-.08-.33.25-.36l14.82-1.44q1.78-.17.17-.96l-12.38-6.12q-2.83-1.39.31-1.69l13.51-1.28q2.05-.19.2-1.1l-13.15-6.5q-.16-.08-.12-.26l.07-.32q.11-.46.54-.25 7.53 3.57 14.21 7.07.81.42.33-.35l-8.13-13.07q-1.12-1.8.86-1.06 1.31.49 2.54 1.24c2.12 1.3 5.29.41 7.65.33q.87-.03.41-.77l-4.32-6.92q-1.63-2.63 1.14-1.25l7.4 3.67q.7.34.63-.43-.17-2.14-.04-4.28c.14-2.25-1.46-4.1-2.63-5.85a.88.87 51.7 0 1 .12-1.12q.13-.13.47.03 6.79 3.27 13.84 6.79 1.12.55.46-.5l-8.19-13.2q-.15-.24.09-.38l.28-.17a.39.39 0 0 1 .54.14l8.3 13.36q.45.72.46-.12.06-7.51-.02-15.43-.01-.42.3-.69a.58.58 0 0 1 .87.11c1.18 1.76 1.97 4.06 3.98 5q2.08.96 4.12 2.07.66.36.65-.4l-.08-9a.59.59 0 0 1 .29-.51q.33-.18.66-.09.26.07.42.33 2.41 4.09 4.61 7.53.42.66.81-.02 1.14-2.01 2.44-3.93c1.12-1.66.62-4.18.57-6.08q-.01-.42.32-.63.29-.18.61-.11a.77.75 80.7 0 1 .5.37c.93 1.69 1.85 3.83 3.63 4.72q2.15 1.08 4.2 2.12.71.36.71-.43l-.01-8.26q-.01-2.96 1.55-.45l4.49 7.25a.34.34 0 0 0 .58 0c1.22-2.06 3.46-4.72 3.29-7.23q-.09-1.31-.06-2.56.08-2.7 1.48-.4l2 3.27q.29.47.78.72l5.28 2.68q.39.2.38-.23-.08-4.78-.02-9.67 0-.39.43-.51a.46.46 0 0 1 .51.2l4.96 7.93q.37.58.74 0 1.28-2.02 2.53-4.11c1.05-1.77.62-4.01.61-6q0-.21.12-.37.14-.19.37-.26a.63.61-24.3 0 1 .72.26q3.9 6.26 7.71 12.43c.38.61.92.81 1.24 1.39q.38.72.57-.07.01-.05.03-.09.13-.46-.41-.49-.15-.01-.23-.11-.24-.33-.23-.73.01-7.39-.01-14.84a.41.41 0 0 1 .46-.41l.3.04q.28.03.28.32v15.04a.43.42-29.1 0 0 .79.22l7.44-11.99q1.5-2.41 1.64.43c.08 1.78-.4 3.53.59 5.18q1.29 2.13 2.56 4.15.37.59.75 0 2.04-3.18 4.09-6.63.46-.77 1.13-1.35a.42.42 0 0 1 .7.32l-.01 9.57q0 .66.57.33 2.05-1.18 4.29-2.21c1.8-.82 2.53-2.83 3.57-4.4q1.39-2.09 1.46.41c.04 1.76-.4 3.71.54 5.29q1.29 2.18 2.53 4.22.44.74.9.01l4.21-6.8q1.67-2.7 1.67.48l-.01 8.01q0 .59.55.41 6.24-2.02 7.82-6.6a.87.85-82.1 0 1 .75-.58q.25-.02.48.09a.66.65-75.6 0 1 .36.62c-.08 2.11-.55 4.51.74 6.39q1.35 1.97 2.46 3.94a.27.27 0 0 0 .47.01l3.92-6.33q2.41-3.88 2.23.68-.13 3.63-.08 7.15.01.71.64.37 2.22-1.18 4.37-2.21c1.63-.78 2.19-2.5 3.13-3.92q1.74-2.64 1.74.52v14.48q0 .93.49.14l8.38-13.47q.11-.18.29-.07l.22.13q.45.28.17.73l-8.06 12.98q-.65 1.05.45.5 6.71-3.32 13.49-6.7.34-.17.7-.08a.55.55 0 0 1 .35.81c-1.1 1.92-2.87 3.72-2.73 6.07q.12 2.18-.03 4.34-.05.74.62.42l8.33-4.12a.53.5-40.4 0 1 .51.03q.27.19.3.49.02.25-.12.47-2.55 4.01-4.8 7.57-.34.54.29.69 6.28 1.46 9.86-1.32c.33-.25.95-.37 1.34-.3a.47.46 21.5 0 1 .31.7l-8.46 13.6q-.41.66.29.31l14.25-7.07q.39-.19.49.23l.11.42q.04.16-.12.24l-13.18 6.51q-1.71.84.18 1.05 7.37.79 14.36 1.37c.18.02.47.17.59.31a.61.6-32.2 0 1-.21.91l-13.43 6.62q-1.43.71.15.86l15 1.46a.31.31 0 0 1 .27.39l-.08.32a.38.38 0 0 1-.4.28l-15.62-1.53q-.88-.09-.18.44l12.58 9.61q.41.31.01.63l-.24.19q-.17.13-.35 0l-14.09-10.77q-.46-.35-1.04-.41l-17.07-1.67q-.62-.06-1.18.21-6.71 3.29-13.38 6.61-.46.23-.99.17-.12-.01-.25-.06-.45-.18-.05.1.62.44 1.39.51 7.32.63 15.29 1.49a.32.31-84.6 0 1 .28.35l-.03.3q-.04.33-.37.3l-17.59-1.7q-.52-.05-1 .19l-15.5 7.64q-.51.25-.81.73l-8.15 13.13q-.42.67.29.32l13.08-6.48q3.01-1.49 1.24 1.35l-7.65 12.24q-.52.84.37.4l14.05-6.95q.14-.07.28.03l.26.2a.39.39 0 0 1-.07.65l-14.07 6.97q-.85.43.09.52l15.51 1.5q.32.03.29.35l-.02.26q-.05.42-.47.38l-17.34-1.7q-.66-.06-1.24.23-7.09 3.58-14.31 7.08-1.61.78-2.6 2.39-3.7 6.06-7.3 11.89-.47.75.33.36l14.02-6.94q.36-.18.55.18l.15.31a.24.24 0 0 1-.11.33l-15.97 7.92q-.51.25-.81.74l-8.72 14.05a4.37 4.37 0 0 0-.66 2.31l.01 14.35q0 .33-.33.32l-.4-.01a.31.31 0 0 1-.31-.31l.02-14.53a3.76 3.69-61.4 0 0-.56-1.97l-8.83-14.22q-.3-.48-.8-.73l-15.98-7.92q-.22-.12-.11-.34l.16-.31q.19-.35.54-.17l14.01 6.93q.85.42.35-.38-3.74-6.02-7.36-11.95-.92-1.51-2.42-2.24-7.82-3.82-14.52-7.16a2.07 2.01-33.7 0 0-1.13-.21l-17.38 1.7q-.4.04-.44-.37l-.03-.29q-.03-.3.27-.33l15.53-1.5q.94-.1.1-.51l-14.09-6.98a.38.38 0 0 1-.08-.63l.26-.22q.13-.11.29-.04l14.15 7q.79.39.32-.35l-7.73-12.4q-1.74-2.77 1.2-1.32l13.13 6.51q.73.36.3-.33l-8.14-13.12a1.92 1.88 86.7 0 0-.78-.71l-15.19-7.49a3.16 3.15-34.7 0 0-1.71-.31l-17.21 1.66a.35.35 0 0 1-.38-.31l-.03-.31a.31.31 0 0 1 .28-.34q7.71-.8 15.64-1.53.58-.06 1.06-.39a.1.1 0 0 0-.08-.18m57.67-42.24q-.31.03-.31-.28l.02-14.49q0-1.06-.56-1.96l-7.91-12.73q-.37-.6-.37.1l-.01 15.39q0 .68.36 1.25l8 12.87q.65 1.04 1.6.27.44-.34.73-.82 3.82-6.16 7.67-12.36.34-.55.34-1.2V88.37q0-.66-.35-.1l-7.87 12.66q-.62 1.01-.62 2.19l.01 14.31q0 .27-.27.3zM171.8 91.53v7.27a.98.98 0 0 0 .55.88l1.81.89q.58.28.92-.26l1.04-1.66q.36-.57 0-1.15l-3.78-6.13q-.54-.88-.54.16m35.91 9.16 1.96-.99q.54-.27.54-.88l-.01-7.51q0-.83-.44-.12l-3.88 6.35q-.35.58.01 1.15l1.14 1.81q.25.4.68.19m-29.65-2.03 2.06 3.37q.45.74.47-.13l.11-7.93q.01-.65-.35-.1l-2.27 3.5q-.42.64-.02 1.29m23.66-4.85q-.39-.66-.39.11l.05 8.37a.2.2 0 0 0 .38.1l2.13-3.64q.39-.67-.01-1.34zm17.78.41-5.44 8.79a1.32 1.32 0 0 0 0 1.4l4.48 7.24a.32.32 0 0 0 .51.04c1.24-1.38.91-2.68.93-4.39q.04-6.6.05-12.93 0-1-.53-.15m-56.97-.01a.32.32 0 0 0-.59.17l.09 15.77a.3.3 0 0 0 .04.15l.79 1.42a.32.32 0 0 0 .56.01l4.84-7.82a.32.32 0 0 0 0-.34zm-10.5 9q-.16 2.5 2.03 2.81a2.15 2.15 0 0 0 2.13-3.26l-3.58-5.83q-.57-.94-.55.16c.04 2.04.1 4.1-.03 6.12m77.7 1.92a.32.32 0 0 0 .17-.29l.05-7.74a.32.32 0 0 0-.59-.17l-4 6.64a.32.32 0 0 0 .01.34l1.48 2.34a.32.32 0 0 0 .41.12zm-63.69-7.02 2.14 3.35a1.08 1.08 0 0 0 1.88-.12q.71-1.5-.66-2.02c-1.09-.42-2.08-1.05-3.16-1.45q-.47-.18-.2.24m49.91.05q.37-.57-.24-.28l-3.52 1.69q-.66.32-.47 1.02.24.87.99 1.51.46.4.79-.12zm-37 3.9-1.49-2.44q-.38-.63-.76 0l-.53.88a.94.94 0 0 0 .51 1.37q.91.29 1.6.78 1.8 1.28.67-.59m-28.25 13.28a.22.21 20.1 0 0 .31-.14q.34-1.42-.51-2.72-4.3-6.59-7.62-12.51-.69-1.23-.69.18l.02 10.4a.96.94-76.9 0 0 .52.85zm55.3-13.87a.33.33 0 0 0 .13-.45l-.92-1.61a.33.33 0 0 0-.57 0l-1.92 3.21a.33.33 0 0 0 .44.46zm33.27-1.54-8.11 13.25q-1.83 3.01 1.39 1.59 3.14-1.37 6.79-3.46.46-.26.46-.79v-10.44q0-1.01-.53-.15m-79.08.14-1.9 3.15q-.29.48-.01.96l1.8 3.05q.55.92.64-.14.33-3.62.03-6.9-.09-.91-.56-.12m61.6-.12q-.43-.74-.51.11-.33 3.35.01 7.22.08.91.54.12l1.88-3.25q.27-.48-.01-.95zm-47.96 2.44q.28-.45-.1-.83-.56-.55-1.37-.72a.47.46-84.6 0 0-.56.47l.07 2.9q.03 1.35.73.19zm34.36-.72q-.28.25-.09.57l1.37 2.25q.63 1.05.66-.17l.07-3.05a.44.44 0 0 0-.58-.42q-.78.25-1.43.82m-71.43 8.17q.32-.5 0-1.01l-3.96-6.43q-.45-.72-.45.13l.03 7.41q0 .74.66 1.06l1.74.86q.56.28.89-.25zm53.73 26.22v-14.31a4.05 4.02 29.2 0 0-.61-2.13l-8.73-14.07q-.3-.48-.8-.73l-4.78-2.45q-.46-.24-.72.22-1.31 2.26-2.63 4.21c-.61.89-.34 1.63-.46 2.63q-.11.85.66.46l5.14-2.58q.36-.18.56.17l.16.28a.31.31 0 0 1-.14.43l-5.99 2.94a.62.61-13.3 0 0-.34.55v12.97q-.01 1.34.7 2.47l7.73 12.43q.39.64.39-.11l.01-14.94q.01-2.88 1.54-.44l8.27 13.14q.32.5.82.19.33-.2.35-.67.01-.11-.11-.11h-.46a.56.55 0 0 1-.56-.55m59.15-33.64q0-.69-.36-.1l-4.02 6.51q-.31.5-.01 1l1.11 1.84q.31.52.85.24l1.9-.98q.52-.27.52-.86zm-78.77 3.094a1.65.5 78.1 0 0 .15-1.717 1.65.5 78.1 0 0-.83-1.511 1.65.5 78.1 0 0-.15 1.717 1.65.5 78.1 0 0 .83 1.511m33.58 1.806 5.21 2.55q.47.23.54-.28c.38-2.48-1.8-4.92-3-6.85q-.35-.57-.94-.25c-2.03 1.12-4.66 1.78-5.95 3.9q-3.98 6.54-7.91 12.76-.95 1.51-.93 3.28.09 7.3.02 13.43a.45.45 0 0 0 .84.24l7.84-12.68a.7.68 26.5 0 1 .84-.27q.37.15.37.47-.06 7.87.01 15.78.01.81.43.11 3.45-5.68 7.2-11.53 1.15-1.81 1.16-3.57.03-6.07.01-12.47 0-.66-.59-.95l-5.73-2.85q-.18-.09-.11-.29l.13-.31a.42.41-65.8 0 1 .56-.22m6.4-2.25a.29.29 0 0 0 .49.26q1.12-1.15.6-2.57-.42-1.15-.65.05zm-64-.9 3.58 5.82q.63 1.03.63-.17v-3.42q0-.75-.67-1.08l-3.17-1.56q-.9-.45-.37.41m88.42-.16q.43-.7-.31-.33l-3.44 1.73q-.58.29-.58.94l-.01 3.37q0 1.29.69.19zm-104.22 31.03q.31.5.31-.09l-.03-15.68q0-.55-.29-1.02l-8.18-13.17q-.39-.64-.39.11l.03 15.4q0 .66.35 1.22zm9.8-29.91-2.07 3.37a.81.81 0 0 0 .35 1.16l1.31.62q.76.35.76-.49v-4.56q0-.69-.35-.1m102.33 4.32q.44-.24.18-.67l-2.15-3.58q-.39-.65-.4.11l-.02 4.51q0 .96.84.49zm15.85-4.13-8.02 12.9q-.36.57-.36 1.24l-.01 15.29q0 .82.43.12l8.14-13.09q.28-.46.28-1l.01-15.33q0-.9-.47-.13m-99.35 3-1.88-2.98q-.39-.62-.82-.02l-.66.93q-.42.59.21.94l2.78 1.52q.93.5.37-.39m4.26 4.56a.6.6 0 0 0 .79.85l5.74-2.9a.6.6 0 0 0 .32-.54l-.03-2.37a.6.6 0 0 0-.07-.27l-1.17-2.22a.6.6 0 0 0-1.05-.03zm47.27-2.65a.61.61 0 0 0 .33.55l5.73 2.9a.61.61 0 0 0 .79-.86l-4.54-7.45a.61.61 0 0 0-1.07.05l-1.14 2.3a.6.6 0 0 0-.06.26zm11.07-1.76q-.39.65.29.3l2.73-1.41q.8-.42.3-1.16l-.61-.9q-.43-.64-.83.03zm-68.27-1.33-1.36-.74q-.56-.3-.56.33l-.03 3.31q-.02 1.46.72.2l1.43-2.41q.26-.44-.2-.69m75.42 3.32q.56.91.54-.16l-.06-3.36q-.01-.7-.65-.4l-1.1.51q-.65.31-.27.92zm-70.54 8.43c1.97-2.1 2.61-5.05 1.87-7.93q-.15-.6-.7-.87l-4.08-2q-.56-.27-.89.25l-2.45 3.94q-.3.49-.11 1.03 1.64 4.54 5.77 5.74a.59.58-59.6 0 0 .59-.16m62.92-8.74a1.04 1.03-6 0 0-.54.66q-1.15 4.49 1.74 8.03.31.37.76.22 4.25-1.42 5.69-5.76.19-.56-.13-1.07l-2.41-3.88q-.32-.5-.86-.24zm-91.03 5.8a.31.31 0 0 0 .58-.16l-.01-3.8q0-.69-.61-1l-3.48-1.76q-1-.51-.4.44zm124.36-6.27q.55-.89-.39-.42l-3.49 1.76a.98.98 0 0 0-.54.75q-.26 1.98-.02 3.76.14 1.06.71.16zm-117.84 1.14-.56 1.03q-.43.77.36 1.15l1.94.95q1.95.94.53-.69-.89-1.04-1.42-2.38-.37-.93-.85-.06m106.59.02c-.59 1.25-1.13 1.95-1.95 3.02q-.54.7.28.39 1.43-.54 2.99-1.3.56-.27.24-.81l-.77-1.33q-.43-.74-.79.03m-102.836 2.287a1.24.48 57.6 0 0-.259-1.304 1.24.48 57.6 0 0-1.07-.79 1.24.48 57.6 0 0 .26 1.304 1.24.48 57.6 0 0 1.07.79m99.912-.133a1.16.49 125.5 0 0 1.073-.66 1.16.49 125.5 0 0 .275-1.228 1.16.49 125.5 0 0-1.073.66 1.16.49 125.5 0 0-.275 1.228M131.83 116.62a.23.23 0 0 0 .39.23l2.2-3.08q.48-.68-.24-1.08l-1.05-.57q-.91-.5-.78.53.28 2.16-.52 3.97m38.97 6.15v-10.1q0-.84-.76-.47l-4.59 2.23q-.63.31-.26.9l4.77 7.68q.84 1.37.84-.24m46.2-7.76a.32.32 0 0 0-.13-.46l-5.2-2.56a.32.32 0 0 0-.46.28l-.05 11.14a.32.32 0 0 0 .6.16zm32.63-.26.03-2.18q.01-.78-.69-.42l-1.11.59q-.72.37-.25 1.03l2.04 2.89q.45.64.45-.14 0-.45-.21-.82-.27-.44-.26-.95m-107.25-2.39q-.14-.06-.17.09-.53 3.01 1.29 5.32a1.23 1.22 68.9 0 0 1.04.47q2.73-.14 5.32-.49 2.72-.37.26-1.58zm97.44 1.64q-.04-.5.07-.99a.42.41-6.8 0 0-.59-.46l-6.89 3.4q-3.16 1.57.36 1.89l4.46.42q.67.06 1.15-.43 1.61-1.68 1.44-3.83m5.8 6.07-6.33-.57q-.63-.05-.97.49l-7.11 11.43q-.28.46-.28 1.01l.01 14.54q0 1.71.9.26 4.01-6.47 7.81-12.67.33-.54.83-.25a.71.69-75.4 0 1 .35.61l-.04 15.63q0 .9.48.14l8.02-12.91q.34-.55.34-1.2-.03-7.47.05-15.64c.02-2.73-1.62-4.82-3.05-6.92q-.32-.45-.83-.25c-2.04.8-5.33 2.09-6.23 4.12q-.26.58.37.64l5.92.58q.11.01.13.12l.06.37a.4.4 0 0 1-.43.47m-109.32-.99 5.73-.54q.63-.06.39-.64c-.85-2.04-4.24-3.32-6.16-4.13q-.52-.22-.85.24-3.12 4.35-3.1 5.73.08 8.21.05 16.87 0 .59.3 1.08l8 12.87q.52.83.53-.15.05-7.57-.04-15.48 0-.27.17-.47.18-.19.43-.2.42 0 .64.36l8.02 13.01q.65 1.04.65-.18 0-7 .03-14.02 0-1.65-.9-3.06-3.54-5.55-6.51-10.41a1.04 1.02-17.9 0 0-.98-.49l-6.27.61q-.36.03-.4-.32l-.04-.29q-.05-.36.31-.39m-14.69 2.82a.3.3 0 0 0-.13-.12l-14.05-7.03a.32.32 0 0 0-.41.46l8.35 13.3a.3.3 0 0 0 .13.12l14.03 7.01a.32.32 0 0 0 .41-.46zM252 135.28a.31.31 0 0 0 .4.45l14.05-7.03a.3.3 0 0 0 .13-.11l8.37-13.33a.31.31 0 0 0-.4-.45l-14.07 7.04a.3.3 0 0 0-.13.11zm-99.62-19.7q-.12.17.07.24.13.06.19-.07.03-.09-.02-.17-.12-.18-.24 0m17.03 9.02q.55.27.23-.25l-5.41-8.62q-.35-.57-.94-.25-2.33 1.26-3.35 3.73-.24.57.31.84zm43.54-.13 8.73-4.33q.59-.29.34-.91-1.05-2.59-3.24-3.76-.64-.34-1.02.28l-5.18 8.31q-.54.86.37.41m16.82-9.07a.18.17 58.9 0 0-.28-.07q-.35.29-.36.69a.23.23 0 0 0 .38.19q.44-.35.26-.81m-77.03 1.94q.14-.16.04-.31-.08.15-.04.31m-.27 1.07a.31.31 0 0 0-.34.31l-.14 10.34a.31.31 0 0 0 .58.17l5.42-8.78a.31.31 0 0 0-.12-.44l-2.36-1.27a.3.3 0 0 0-.11-.04zm77.11 10.98q.39.62.39-.11l-.07-10.08a.83.82 88 0 0-.87-.82q-2.49.13-4.77 1.62-.38.25-.14.64zM151.04 119a.31.31 0 0 0-.34-.31l-5.75.55a.31.31 0 0 0-.24.47l5.82 9.46a.31.31 0 0 0 .57-.17zm86.24.74a.33.33 0 0 0-.25-.5l-5.74-.53a.33.33 0 0 0-.36.33l-.01 9.86a.33.33 0 0 0 .61.18zm-124.03 8.4q-1.94-.26-3.84-1.29-.85-.47-.71.49.06.41-.03.82-.18.79.63.89 2.38.28 3.95-.91.24-.67-.03-1.11-1.96-3.25-4.04-6.47-.49-.75-.48.15l.02 3.82q.01.78.7 1.15 1.59.86 3.38 1.54.25.1.34.34.09.22.11.58m155.76-.63q1.88-.91 3.74-1.92.51-.28.52-.87l.02-4.01q.01-.99-.51-.15l-4.35 6.97q-.29.47.25.36.31-.07.33-.38m-48.07 39.66q.27 6.25.08 14.26-.04 1.91.97.29l7.64-12.29q.3-.49.3-1.05l-.01-17.26q0-.56-.29-1.03l-9.3-14.99q-.25-.41.18-.6l.32-.14q.17-.08.26.08l8.34 13.43q.5.81.5-.15v-15.24q0-.6-.32-1.11l-6.41-10.34a.52.52 0 0 0-.67-.19l-10.78 5.32q-.67.33-1.06.96l-8.18 13.14q-.29.45.2.22l14.39-7.08q.45-.22.53.27l.05.33a.28.27 72.1 0 1-.15.3l-15.59 7.69q-.73.37-1.16 1.06l-8.69 13.99a3.91 3.84 61.5 0 0-.59 2.06l.01 14.38q0 .32-.32.32h-.33q-.39-.01-.39-.4l.03-14.69a2.51 2.48-61.2 0 0-.37-1.31l-9.02-14.56q-.31-.48-.82-.74l-15.79-7.81a.29.29 0 0 1-.16-.29l.02-.27q.05-.59.59-.33l14.33 7.06q.65.32.25-.29-3.84-5.86-7.44-11.93-1.06-1.78-2.79-2.61-4.82-2.31-9.59-4.72a.78.77 28.9 0 0-1.01.29l-6.31 10.17a2.07 2.03 61.2 0 0-.3 1.07l-.02 15.28q0 .94.49.14l8.35-13.43q.1-.17.28-.09l.31.14q.42.2.18.6L152.41 150q-.31.51-.31 1.1-.06 7.22-.01 14.23c0 1.43-.32 3.21.45 4.41q3.91 6.13 7.57 12.22.8 1.34.8-.22l.02-14.24q0-2.83 1.56-.47c1.04 1.58 1.68 3.43 3.49 4.26q2.21 1.02 4.19 2.07.62.33.62-.37l.01-8.42q0-2.85 1.5-.43l4.41 7.11q.41.65.79-.01 1.18-2.01 2.46-4.07c1.15-1.87.51-3.87.72-5.9q.19-1.96 1.23-.29 4.2 6.71 7.84 12.55.24.39.62.66 1.03.72 1.69-.34l8.08-12.99q.88-1.42 1.14.24.22 1.44.05 2.93c-.28 2.47 1.95 5.26 3.22 7.24q.37.57.72-.01l4.44-7.13q1.49-2.4 1.49.42l-.01 8.45q0 .7.62.38 2.03-1.07 4.09-2.02c1.87-.85 2.67-2.83 3.75-4.54q1.19-1.91 1.29.35m-116.86-38.15q.33.54.95.49l2.03-.16q.67-.05.66-.71l-.02-2.07a1 .99-77.1 0 0-.54-.87l-6.73-3.39q-.76-.39-.31.34zm177.82-6.85-7.15 3.63q-.47.24-.47.77l.01 2.05q0 .71.7.76l2.07.14q.57.04.86-.44l4.13-6.74a.12.12 0 0 0-.15-.17m-91.41 32.29v-14.6a1.99 1.97-61.3 0 0-.3-1.05l-8.15-13.14q-.41-.66-.41.12l.02 14.67a4.85 4.83 29 0 0 .74 2.57l7.23 11.61q.25.41.66.66.45.29.58.81.08.28.28.07.11-.12.18-.26.14-.29-.11-.48l-.37-.28q-.35-.27-.35-.7m9.86-12.76a.3.3 0 0 0 .05-.16l.07-15.72a.31.31 0 0 0-.58-.17l-8.24 13.42a.3.3 0 0 0-.05.16l-.03 15.58a.31.31 0 0 0 .58.16zm72.9-14.65a.32.32 0 0 0-.45-.28l-3.28 1.51a.32.32 0 0 0 .12.61l3.33.23a.32.32 0 0 0 .34-.32zm-171.12 17 13.77 6.82q.79.39.33-.36l-8.14-13.07a1.86 1.81 86.5 0 0-.75-.68l-13.6-6.72q-.96-.48-.39.43l7.99 12.86q.29.47.79.72m24.67 1.21 12.5 6.18q1.03.51.43-.46l-7.9-12.74q-.32-.52-.86-.78-6.87-3.39-14.15-7.04c-2.42-1.22-4.95-.47-7.49-.31q-.62.04-.61.66c.05 2.66-.44 5.15 1.11 7.6q4.1 6.48 8.09 12.96.49.79 1.32 1.19l13.23 6.52q.99.49.41-.44l-7.4-11.89q-1.89-3.04 1.32-1.45m130.41.38-8.09 12.96q-.63 1.01.44.48l13.56-6.69a1.86 1.76-86.1 0 0 .75-.69q4.49-7.31 8.6-13.85c1.22-1.95.8-4.75.83-6.97a.74.73 3.9 0 0-.65-.74c-2.66-.32-5.21-.87-7.82.47q-7.11 3.65-13.82 6.88-.51.24-.82.73l-7.92 12.77q-.65 1.05.46.5l13.62-6.77q.38-.19.7.09.14.11.2.27.12.3-.04.56m15.64-6.56q-3.43 5.77-7.08 11.39-.6.92.38.42 6.14-3.13 12.4-6.11 1.88-.9 2.92-2.63 3.77-6.28 7.37-11.83.57-.88-.36-.4-5.57 2.86-12.11 5.95-2.24 1.06-3.52 3.21m-165.5-4.79q.36.58.37-.1l.02-3.2q0-.66-.66-.62l-1.54.09q-.56.04-.26.51zm169.36-3.33q.25-.42-.24-.47l-1.48-.14a.65.65 0 0 0-.71.63q-.06 1.51.03 3.01.06.94.54.13zM99 131.53l7.13 3.55q.71.35.29-.32l-2.18-3.52a1.07 1.06 71.2 0 0-1-.5l-4.16.38a.22.22 0 0 0-.08.41m177.1 3.46 6.79-3.35q.88-.43-.09-.52l-4.02-.39q-.66-.06-1.01.5l-2.07 3.33q-.55.9.4.43m-133.38 2.03a.31.31 0 0 0-.58.17l.06 15.71a.3.3 0 0 0 .05.16l8.25 13.34a.31.31 0 0 0 .58-.17l-.05-15.67a.3.3 0 0 0-.05-.16zm97.05 16.01a.3.3 0 0 0 .05-.16l.04-15.7a.31.31 0 0 0-.58-.16l-8.25 13.35a.3.3 0 0 0-.05.16l-.04 15.68a.31.31 0 0 0 .58.16zm-124.3-.74q.85-.08.09-.46-6.31-3.1-12.5-6.22-1.83-.92-3.7-.72-6.98.77-13.82 1.37-1.04.09-.1.55l13.68 6.76q.48.24 1.02.19zM297 146.34l-15.57-1.49a2.55 2.54-55.3 0 0-1.37.25l-13.65 6.76q-.76.37.09.45l15.33 1.47q.54.05 1.02-.19l14.19-7.02q.38-.19-.04-.23m-147.36 21.22a.21.21 0 0 0 .27-.3q-3.91-6.07-7.58-12.19-.93-1.55-2.67-2.38-6.5-3.08-12.5-6.15-.89-.46-.36.39l8.08 13q.29.46.78.71zm82.56-.38q-.45.71.31.34l13.81-6.83a1.86 1.81-86.5 0 0 .75-.68l8.11-13.04q.47-.76-.34-.36l-13.32 6.58q-.91.45-1.44 1.31zm-32.33-4.08-7.71 12.42a3.83 3.74 61.6 0 0-.58 2.02l.03 14.2q0 1.45.76.22l7.68-12.37a2.59 2.57 60.9 0 0 .38-1.35l-.02-14.99q0-1.03-.54-.15m-9.05 29.52a.31.31 0 0 1-.33-.31v-14.53a4 4 0 0 0-.6-2.11l-7.9-12.71q-.35-.57-.35.1l.03 15.65q0 .55.29 1.02l8.49 13.54a.56.56 0 0 0 .67.23q.36-.13.49-.48a.32.31-81 0 0-.31-.43zm18.88-26.58-3.88 6.26q-.31.51 0 1.01l1.18 1.9q.24.38.63.19l1.8-.86a1.35 1.34-13.1 0 0 .76-1.21l.03-7.14q0-.99-.52-.15m-37.9.07v7.02a2.12 2.12 0 0 0 3.46 1.65q1.7-1.38.21-3.75-1.64-2.62-3.28-5.04-.39-.57-.39.12m-1.57 32.13a.32.32 0 0 0 .6-.17l-.06-15.68a.3.3 0 0 0-.05-.17l-8.23-13.37a.32.32 0 0 0-.6.17l.07 15.7a.3.3 0 0 0 .05.17zm9.91-29.38-2.05 3.25a1.24 1.24 0 0 0-.01 1.32l2.01 3.22q.54.86.54-.16l.02-7.48q0-.96-.51-.15m21.8 8.16c.12-1.15 1.46-2.61 2.03-3.72q.28-.54-.03-1.05l-2.05-3.46q-.52-.88-.52.15 0 3.76-.03 7.83 0 .14.11.24.05.04.08.1.34.54.41-.09m18.05 7.87a.3.3 0 0 0 .05-.16l.06-15.71a.31.31 0 0 0-.58-.16l-8.24 13.38a.3.3 0 0 0-.05.16l-.05 15.69a.31.31 0 0 0 .58.16zM171 180.03l-.29-4.68q-.03-.62-.59-.9l-3.43-1.77q-1.02-.53-.41.44l4.38 7.02q.38.62.34-.11m40.27-4.63-.21 4.33q-.04.76.39.13 2.16-3.2 4.26-6.67.57-.95-.42-.45l-3.44 1.75q-.55.29-.58.91m-33.92-1.25a.27.27 0 0 0-.41-.05q-.57.53-.84 1.22a.91.9-64.3 0 0 .39 1.13q1.15.66 2.35 1.09.85.3.37-.45zm25.94 3.41 2.44-1.16q.7-.34.27-.98l-.72-1.09q-.39-.6-.77.02l-1.67 2.71q-.61 1.01.45.5m-29.25-.78a.33.33 0 0 0-.12-.46l-1.64-.91a.33.33 0 0 0-.49.3l.03 3.51a.33.33 0 0 0 .61.17zm36.2-1.02a.32.32 0 0 0-.47-.29l-1.61.84a.32.32 0 0 0-.13.44l1.58 2.76a.32.32 0 0 0 .6-.16zm-27.97 23.17 8.24 13.07q.11.18.32.25.27.09.39-.06.37-.46-.12-.77-.62-.4-.62-1.1.04-7.63-.03-14.52-.01-.59-.32-1.09-4.1-6.5-8.33-13.42c-1.33-2.18-3.95-3.06-6.09-4.13q-.53-.27-.85.23l-2.79 4.4q-.28.44-.28.96l.02 16.96a3.47 3.42-61.4 0 0 .53 1.84l7.7 12.41q.59.96.59-.17l.01-14.39q.01-3.05 1.63-.47m18.39-1.01q.23-.01.42.1.29.18.29.52l-.01 15.68q0 .79.41.12l8.07-13.09a2.25 2.19-30.1 0 0 .34-1.21q-.02-7.69.06-15.88.02-2.09-.97-3.5-1.1-1.56-2-3.16-.34-.6-.96-.3c-2.36 1.15-4.78 1.87-6.25 4.3q-4.26 7.01-8.3 13.41a1.54 1.51 62.2 0 0-.25.84l.01 14.49q0 1.89.99.28l7.6-12.27q.19-.31.55-.33m-31.27.87-8.12-13.07a1.84 1.83 87.5 0 0-.77-.71l-13.74-6.8q-.81-.41-.33.37l8.03 12.94q.34.54.92.83l13.7 6.79q.76.38.31-.35m66.37-20.53q.22-.35-.15-.17l-14.21 7.03a1.86 1.81-86.5 0 0-.75.68l-8.18 13.17q-.39.63.27.3l13.53-6.68a3.3 3.23 2.1 0 0 1.34-1.22zm-44.85 51.54q-.42 0-.42-.42-.03-6.65.05-13.4.02-1.9-.99-3.52-3.72-5.95-7.52-12.06-.39-.64-.39.11l.02 15.44q0 .55.28 1.02 4.1 6.79 8.3 13.26a.69.68-41.8 0 0 1.11.06q.03-.04.38-.21.31-.15.49-.44l7.84-12.61q.29-.46.29-1.02l.02-15.44q0-.81-.43-.12l-7.83 12.61a3.99 3.93 61.3 0 0-.6 2.1l.01 14.33q0 .32-.31.31z"/><path d="m203.06 327.14 14.02-6.95q.48-.24.6.28l.06.25q.06.24-.16.35l-15.87 7.85a1.99 1.98 2.8 0 0-.81.73l-8.61 13.89q-.78 1.25-.78 2.73l.01 14.04q0 .33-.33.32l-.4-.01q-.31-.01-.31-.32l.02-14.56a3.34 3.32-60.8 0 0-.49-1.74l-8.9-14.35q-.3-.48-.81-.73l-15.9-7.87a.37.36-56.1 0 1-.11-.57l.24-.27q.14-.15.31-.06l14.04 6.95q.89.44.37-.41-4.05-6.56-8.26-13.31-.14-.21.06-.38l.24-.2a.39.39 0 0 1 .59.1l8.4 13.56q.36.58.36-.1l.01-14.95q0-2.98 1.59-.46l8.26 13.13a.59.58 67.6 0 0 .61.26q.48-.1.31-.41-.03-.06-.05-.12-.08-.36-.45-.47-.42-.13-.42-.58l-.01-14.8q0-.54-.29-1.01l-8.84-14.26a3.77 3.74 86.8 0 0-1.53-1.38l-15.3-7.55a.48.47-63.7 0 1-.21-.64l.13-.28q.09-.19.28-.1l13.68 6.75q1.38.69.57-.62l-7.79-12.55a1.65 1.61-2.5 0 0-.64-.57l-15.55-7.7a2.07 2.01-33.7 0 0-1.13-.21l-17.39 1.68a.42.42 0 0 1-.46-.38l-.03-.27a.31.3 84.4 0 1 .27-.34l14.54-1.4q1.99-.19.19-1.08l-13.05-6.43a.39.38 25.9 0 1-.18-.51l.15-.29q.13-.28.41-.14l14 6.94q.89.44.37-.4l-8.3-13.35a.54.53 52.1 0 1 .08-.67q.35-.33.71-.15 7.17 3.62 14.39 7.12.17.08.35.01.47-.2.01-.42-.42-.2-.67-.61-3.97-6.46-7.96-12.82-.19-.31.14-.46l.34-.16q.26-.12.41.12l8 12.9q.75 1.2.75-.21v-14.27q0-2.61 1.53-.49c1.11 1.52 1.62 3.37 3.46 4.23q2.3 1.07 4.27 2.11.62.33.62-.37l-.02-7.99q0-3.32 1.74-.5l4.18 6.73q.39.63.78.01 1.35-2.16 2.61-4.37c.94-1.64.44-3.54.55-5.34q.14-2.46 1.42-.35 3.75 6.15 7.78 12.35.3.46.68.89.66.76 1.19-.1l8.33-13.31q.99-1.58 1.28.27c.28 1.87-.44 3.69.52 5.47q1.25 2.3 2.64 4.42.43.66.85-.01l4.24-6.85q1.64-2.64 1.63.46l-.02 8.35a.35.35 0 0 0 .52.31q2.1-1.16 4.23-2.08c1.87-.81 2.49-2.75 3.59-4.3q1.54-2.18 1.54.48v14.21q0 1.45.77.22l7.98-12.87q.16-.25.42-.12l.3.14a.36.35-61.1 0 1 .14.51l-8.01 12.9q-.15.24-.38.38l-.27.16q-.44.28.07.37.25.04.47-.07 7.07-3.4 14.18-7.01.36-.18.71.01a.53.53 0 0 1 .19.74l-8.32 13.39q-.52.83.36.4l14.03-6.95a.33.32-24.3 0 1 .44.16l.14.35q.12.27-.15.4l-13.16 6.49q-1.76.86.19 1.05l14.55 1.41q.34.03.3.36l-.03.33q-.03.34-.38.31l-17.51-1.7q-.55-.05-1.05.19l-15.03 7.43a3.7 3.7 0 0 0-1.51 1.37l-7.54 12.12q-.77 1.24.53.59l13.47-6.66q.48-.23.72.24l.11.23q.1.2-.1.29l-15.37 7.59a4.37 4.31-86.9 0 0-1.78 1.62l-8.72 14.05a2.13 2.08 61.6 0 0-.32 1.12v14.22q0 1.96 1.03.29l7.1-11.44q1.71-2.76 1.71.49l.01 14.63q0 .82.43.13l8.34-13.45a.39.39 0 0 1 .6-.08l.26.23q.15.14.04.31l-8.32 13.41q-.5.79.34.38m-3.28-89.27q-3.27 5.54-7.04 11.35-1.23 1.9-1.2 4.13.08 6.31.06 13.05-.01 1.53.8.22 3.4-5.52 6.9-11.05 1.14-1.82 1.14-3.71-.03-6.81-.03-13.82 0-1.23-.63-.17m-9.26 29.35-.05-15.25q0-.62-.32-1.15l-7.92-12.78q-.57-.92-.57.17l-.02 14.33q0 1.43.76 2.63l8.11 12.89a.4.38-10.4 0 0 .26.17q.69.09.65-.3-.02-.33-.31-.51-.14-.09-.29-.02a.2.2 0 0 1-.3-.18m-18.76-26.3q.11 3.09 0 6.08-.09 2.31 1.72 2.81a2.18 2.18 0 0 0 2.43-3.25l-3.62-5.8q-.57-.92-.53.16m37.93-.13-3.69 5.96a2.04 2.03 2.7 0 0 2.64 2.89l.97-.48q.59-.29.59-.95v-7.28q0-.96-.51-.14m-29.41 2.54-2.23 3.58q-.37.59 0 1.18l2.04 3.3q.52.84.53-.15l.03-7.8q.01-.71-.37-.11m21.64 8.11 2.01-3.3q.36-.6 0-1.2l-2.07-3.42q-.49-.82-.49.14l-.01 7.62q0 1.07.56.16m9.75 21.69q4.06-6.62 8.09-13.12.3-.48.3-1.05l.02-15.24q0-.98-.52-.15l-7.99 12.89q-.35.56-.35 1.23l-.03 15.38a.17.17 0 0 0 .15.17q.24.04.33-.11m-40.85-.43q-.06-7.01.03-13.71.02-1.96-1.2-3.86-3.77-5.91-7.16-11.47-.54-.89-.54.16.02 6.99-.05 13.94-.01 1.84 1.02 3.46 3.9 6.13 7.29 11.65.62 1.02.61-.17m.09-18.47-.17-4.12q-.02-.61-.55-.89l-3.85-2.04a.24.24 0 0 0-.31.34l4.36 6.87q.57.9.52-.16m44.88-6.44q.56-.9-.38-.41l-3.43 1.79q-.72.38-.75 1.19l-.11 3.88q-.04 1.05.52.16zm-36.32 4.5-1.94-3.15q-.32-.51-.72-.06l-.63.68q-.79.87.26 1.38l2.83 1.38q.5.24.2-.23m22.69.29q2.14-.44 3.95-1.86a.31.31 0 0 0 .04-.44l-1.14-1.4q-.13-.17-.26 0-1.02 1.31-1.89 3-.06.12-.2.17-.32.13-.59.33-.39.3.09.2m-28.14-1.01a.33.33 0 0 0-.11-.45l-1.64-1a.33.33 0 0 0-.5.29l.07 3.54a.33.33 0 0 0 .61.16zm36.14 2.72.05-3.84q.01-.41-.37-.23l-1.79.85a.3.29-29.7 0 0-.12.42l1.85 2.91q.37.57.38-.11m-19.68 31.26.01-14.24a4.37 4.37 0 0 0-.66-2.31q-4.04-6.48-7.73-12.57c-1.63-2.69-3.83-3.23-6.4-4.51q-.62-.31-.97.3c-1.17 2.07-3.02 3.97-2.98 6.52q.13 8.02.05 16.06-.01.6.31 1.11l8.01 12.9q.5.81.5-.14.04-8.01.02-15.63 0-.4.37-.58.43-.2.68.2l8.01 12.89q.22.36.61.53.27.12.41.38.37.69.56-.06.08-.29.42-.33a.64.64 0 0 0 .46-.3l8.16-13.12q.27-.43.71-.17.28.18.28.73l.06 15.54q.01.88.47.13l8.06-12.97q.29-.47.29-1.02-.03-7.85.05-16.14c.03-2.63-1.76-4.38-2.93-6.5q-.34-.62-.98-.32c-2.67 1.26-4.85 1.87-6.55 4.69q-3.65 6.08-7.66 12.46a4 3.97 61.2 0 0-.61 2.12l.01 14.35q0 .32-.32.32h-.4q-.32 0-.32-.32m-35.59-18.76a.3.3 0 0 0 .12.11l14.1 7.03a.3.3 0 0 0 .39-.42l-8.39-13.36a.3.3 0 0 0-.12-.11l-14.1-7.04a.3.3 0 0 0-.39.43zm80.62-13.33a.31.31 0 0 0-.4-.45l-14.07 7.03a.3.3 0 0 0-.13.11l-8.33 13.3a.31.31 0 0 0 .4.44l14.04-6.99a.3.3 0 0 0 .13-.11zm-45.02 50.85.01-15.04q0-.52-.28-.96l-8.17-13.17q-.42-.68-.42.12l.03 15.46q0 .49.25.91 3.91 6.58 7.93 12.66.32.49.73.92.65.68 1.16-.12l8.32-13.3q.29-.46.29-1.01l.03-15.53q0-.79-.42-.11l-7.9 12.73a3.61 3.54 61.6 0 0-.55 1.91l.03 14.52q0 .32-.33.32h-.4q-.32 0-.31-.31m9.42 8.09q-3.8 6.15-7.35 11.78-1.05 1.66-1.02 3.95.11 6.91.03 13.44-.02 1.02.53.15l7.92-12.73a2.83 2.77-29.7 0 0 .42-1.47v-14.97q0-1-.53-.15m-9.43 28.8q.02-7.48.01-13.59-.01-1.68-1.22-3.58-3.71-5.82-7.24-11.58-.4-.65-.4.11l.02 14.93a4.01 3.96-60.6 0 0 .56 2.04q3.15 5.3 7.47 11.85.48.73 1.13 1.32.37.35.42-.16.04-.43-.28-.58-.48-.23-.47-.76"/><path d="M191.41 382h-.81l-.11-17.53q-.01-1.02-.55-1.89l-9.01-14.53a.44.44 0 0 1 .14-.61l.29-.18q.16-.1.26.06 4.17 6.6 7.76 12.46.43.71 1.03 1.29.86.83 1.49-.18l8.33-13.35q.24-.39.62-.15l.28.18q.17.1.07.28l-9.14 14.72a3.77 3.74 61.3 0 0-.56 1.94z"/></svg>