<svg xmlns="http://www.w3.org/2000/svg" viewBox="0 0 382 382"><g fill="none" stroke="#7d7d7d" stroke-opacity=".996" stroke-width="2"><path d="M94.65 10.4q.43-.17.82.06.48.29.35.84-.15.59-1.19.33M76.6 11.52q-.13-1.06-1.56-1.13M134.85 9.87l1.09 1.1M149.29 5.22q.53.77.56 1.48M149.82 24.79q-.96.82-1.79-.2M82.55 25.14q-.73.55-1.01 1.01M176.48 5.29q.2.86.06 1.44M176.62 12.26q.47.81.98 1.1M190.46 6.72q-.17.72.21.97a.58.58 0 0 0 .86-.29q.14-.4.02-.81M219.18 12.98l-.89-.03M212.94 12.95l-1.06.2M206.2 13.18l-1.02.99M191.51 27.92q-.41.1-1.02-.02M163.65 19.85q-.25-.52.13-1.68M163.73 14.23q-.46-.22-1.04-.08M162.61 17.91q.34.95.09 1.76M162.73 12.94l.99-.08M163.77 1.09q-.31-.14-.72-.87M247.09 9.46l-.43.97q-.24.54.32.72.41.13.96-.46M265.9 10.61q.22 1.3 1.75 1.1M238.26 39.53q-.22-.51-.04-1.05M233.07 25.62q-.58-.19-.94-.71M232.14 6.73l.24-1.59M285.89 10.44q.89.45 1.52-.18M305.52 10.41q.37.42 1.44-.03M301.17 25.36q-.62-1.05-1.73-.29M219.31 19.69q-.47.2-1.06-.01M212.93 14.23q.87-.36 1.5-.12M218.1 14.1l1.27-.01M223.26 14.04q.44.02.96-.18.37-.15.32-.55-.01-.13-.07-.28M176.57 51.64q1.01.71.29 1.92M163.13 39.66q.36-1.62-.47-1.96M219.34 37.75q-.76.4-.47 1.89M205.37 72.91l-.99 1.09M191.57 105.05q-.2 1.83-1.02 1.63M176.83 92.91q-.28-.99-1.18-1.1M170.42 91.77q-.89.17-1.67.02M163.71 91.75q-.53.24-1 .09M190.43 67.17q.42-.99.02-1.52M190.44 47.52q.18-.87 0-1.64M205.39 33.45l-.99 1.11M204.38 52.76q.52-.23 1.03-1.02M209 87.51q-.43.51-.86.73M205.41 90.96q-1.22 1.7.03 1.95M233.28 95.44q-.35 1.25.06 1.79M236.02 99.73l.78-.76M252.23 103.23l.51 1.01M259.94 115.26q.57.79 1.98-.33M267.12 114.87q.8.15.99.95M247.1 147.75l.02.43q.01.57-.54.69l-.59.13M245.99 149l.1-1.72M246.13 129.67q-.32-1.82.31-1.81M236.49 118.31q-.73-.42-1.6.01M206.3 131.18l-1.04 1.05M191.57 164.18q-.39.83-.05 1.5M191.51 183.88q.19.41-.06.79a.53.53 0 0 1-.94-.09q-.15-.37-.05-.8M177.63 152.71q-.64-.1-.82-1.89M175.72 131.22q.16.42.68.64.53.22.74-.31.18-.46-.51-1.03M190.22 124.5q.2 1.47 1.35 1.69M204.39 113.35l.96-1.05M218.23 98.25l-.03-1.66M214.31 92.87q-.66-.08-1.32.12M209.71 88.3l-.64.7M211.52 91.84q.84.13 1.7-.07M226.91 108.82q-.02.1-.1.25-.08.17-.26.23-.31.1-.37.17M220.92 114.77q-.49.61-1.2 1.07M219.29 116.29q-.45.54-.56.93a.58.58 0 0 0 .76.7q.37-.15.56-.54M233.74 117.25l1.57-.13M245.82 109.57q.42-1.09.21-1.47M242.35 104.43q-.94-.51-1.62.04M233.2 104.5l-1.19-.74M232.65 115.95q.68-.94-.54-1.9M227.75 109.79q-.47.34-.63.65M222.67 114.85q-.79.5-.64 1.08M237.51 99.82l-.74.69M239.58 103.24q.63.22 1.39-.02M149.85 84.11l-.04 1.28M150 103.76q-1.2.87-2.08-.5M145.26 100.52l-.82-.76M135.98 103.16q-.55.22-1.03-.01M145.25 98.99l.76.74M148.63 97.2q.37-.74.12-1.72M169.04 92.99l-1.32.02M163.75 93.08l-1.06-.04M162.65 96.76q.34 1.81 1.08 1.53M136.06 147.62q.21 1.34-1.16 1.61M122.09 136.38q-.22-.47-.02-1.47M133.7 128.16l.33-.24M134.75 127.22l1.11-1.08M143.6 118.38q0-.9-1.25-.09M136.03 124.45q-.35.48-1.03.91M133.57 126.8l-.59.66M121.33 115.92q.26-.53-1.43-1.06M117.64 112.04l.61-.78M120.87 113.82q.39.1 1.16 1.77M129.03 104.04q.69-.1.71-.85M134.79 107.94l.27.69a.39.39 0 0 0 .69.07q.2-.31.24-.58M135.94 104.64q-.08-.09-.22-.18-.24-.15-.5-.04-.18.08-.29.2M148.74 115.12q.54-.09 1.03-1.1" vector-effect="non-scaling-stroke"/><path d="M149.82 105.19q-.35-.39-1.04-.69M108.13 121.34l.08-1.63M108.24 115.87l-.11-1.13M116.69 111.11l.64-.67M274.95 114.77q.01.62.23 1.01M278.88 115.74l.89-.9M288.26 107.12l-.51 1.45M274.88 121.43l-1 .04M268.93 114.76q.47.7 1.15 1.1M273.81 115.83l.05-1.06M108.07 140.42q-.85-.57-1.02-1.03M107.03 121.15l-.15-1.58M106.94 115.83l.13-1.08M135.94 168.4q-.65.71-1.97-.35M103.2 155.27q-.25.13-2.35-.95M107.34 141.28q-.46-.76-1.04-1.05M75.67 127.32q-.92-.21-1.83-.02M288.77 125.51q-.33 1.02-.98 1.06M308.32 154.03l-.22.32a.59.59 0 0 1-.68.22q-.49-.16-.86-.56M301.38 153.96l-1.16 1.08M305.43 167.98q-.23.55-.06 1.01M300.77 181.88q-.42.3.59 1.05M300.5 183.66q-.75-1.25-1.1-1.15M234.01 182.11q-.61.97-1.93.49M219.31 177.2q-.59-.33-1.03.01M205.39 209.26q-1 1.12-.18 1.75M190.51 224.77q.35-.25-.06-1.61M177.63 192.14q-.4-.24-.94-1.49M176.92 171.75q.63-1.28-.39-2.04M176.3 164.46q.3-.62.27-1.57M204.35 170.97q1.07.54 1.63-.12M208.95 167.89l.82-.87M218.28 158.46l.99-1.01M246.27 168.33q.58.95 1.61-.21M266.17 168.08q.75.08 1.46-.11M274.59 141.3q-.18-.62-.66-.73M273.92 140.32q.78-.31 1.01-.91M82.69 146.9q-.54.22-.96.89M78.96 150.65q-.71.17-.83.63M80.74 154q.45.02 1.11 1.09M94.64 167.9q.5-.15 1.08.13a.54.54 0 0 1 .07.93q-.43.3-.99.1M81.92 181.81q.18 1.11-.37 2.01M75.09 168.99q.56.05.79-.06 1.23-.57-.07-.95-.29-.08-.75-.08M77.24 150.41q.77-.1.74-.77M81.5 146.19q.64-.13 1.07-.96M86.58 141.26q.76-.06 1.06-.38.46-.45-.07-.73-.34-.17-1.04.02M82.67 136.36l-1.05-1.2M261.03 153.48q-.38.56-1.08 1.07M247.1 167.44l-.79.81M261.78 154.19q-.59.39-1.06 1.04M114.45 168.02q.6.19 1.32-.08M115.77 167.94l.19 1.22M204.77 151.02q.42 1.37-.4 1.75M205.49 162.87q-.15.78.01 1.36M208.14 167.01q.5-.19.89-.74M280.28 154.73l-1.37.52M163.76 177.08l-1.05.06M149.9 164.28q-.07-1.12.33-1.12M149.92 182.53q-.26.4-.79.65M130.91 183.13q-.72-.21-1.45-.06M163.78 196.46q-.51.23-1.05-1.13M239.86 195.88q-1.06.44-1.51.06M220.38 195.77q-.54.32-1.2 1.24M176.67 210.94q-.38-.68-1.13-1.26M162.83 197.01q-.23-.85-.95-.98M143.66 195.95q-.65.3-1.46-.04M143.66 197.02q-.85-.25-1.48.1M190.24 242.63q.29 1.25 1.26 1.84M204.37 231.5l1-1.12M205.48 241.68l.04 1.29M205.42 248.59q-.63.3-.68 1.02a.49.48 86.3 0 0 .57.51q.81-.15.81-.72M211.78 249.4l1.42-.14M218.27 249.24q.22-.08.93.01M224.43 249.27q-.14.8-1.08 1.12M219.52 250.35l-1.63.01M214.47 250.5q-.92-.41-1.55.05M191.53 264.07q-1.15-.14-1.09-1.5M177.67 249.73q-.49-.06-1.04-1.23M176.56 243.02q.13-.53-.04-1.31M204.56 269.29q.77 1.15-.2 1.71M204.37 288.78q.27.71.77 1.08M190.5 303.5q.14-.75-.1-1.65M177.7 289.15l-1.16-1.29M176.85 250.43l-1.11-.97M170.26 249.38q-.66.06-1.32-.13M163.61 249.25l-.77-.03M149.74 241.46l.18 1.55M162.64 273.96q.6.15.56.88-.03.55-.59.5-.6-.07-.81-.54M130.97 261.91q-.75-.19-1.6-.12M252.56 261.58l-1.42.27M238.19 274.79q.1 0 .26.21.21.26.01.53l-.2.27M218.29 255.98q.5.07 1.04-.06M232.17 243l.02-1.4M169.15 250.49q-.8-.17-1.59.02M163.93 250.37l-1.33-.02M162.97 254.69q-.35.79.78 1.25M143.71 275.8q-.43-.55-1.51.03" vector-effect="non-scaling-stroke"/><path d="M239.83 274.72q-.58-.08-.91.19-.41.33.01.65.35.26.9.22M190.25 321.51q.14 1.4.94 1.15.59-.18.57-1.16M205.4 309.43l-1 .82M204.36 328.51q.55.14 1.05-1.19M206.3 328.07l-1.07 1.09M191.45 362.65q-.94-.37-1.01-1.75M175.73 328.09q.82 1.25 1.97.47M177.69 310.33q-.71-.48-.79-1.26" vector-effect="non-scaling-stroke"/></g><path fill-opacity=".996" d="m66.16 0 9.98 9.99q.36.35.86.36l17.65.05q.43-.17.82.06.48.29.35.84-.15.59-1.19.33l-18.03-.11q-.13-1.06-1.56-1.13L64.86 0z"/><path fill="#f9f9fa" fill-opacity=".996" d="m85.78 0 9.96 10.04q.49.49 1.18.49l16.87.04q.65.01.19-.46L104.03 0h1.36l10.23 10.2q.36.36.88.36l16.97.05q.59 0 .18-.42L123.54 0h1.34l9.97 9.87 1.09 1.1 12.29 12.39q.61.62.61-.26-.04-8.54-.02-17.42 0-.19.13-.33.16-.18.34-.13.53.77.56 1.48l-.03 18.09q-.96.82-1.79-.2L135.6 12.05q-.37-.37-.88-.37l-18.21-.09a1.38 1.35-66.7 0 0-.95.39l-13.21 13.06q-.26.25-.51-.01l-.22-.22a.33.33 0 0 1 0-.46l12.39-12.27q.47-.46-.19-.47l-17.03-.08a1.1 1.09 22.9 0 0-.8.32L82.55 25.14q-.73.55-1.01 1.01L68.58 38.93a.39.39 0 0 1-.63-.13l-.12-.3q-.09-.22.08-.38l12.48-12.3q.47-.47-.19-.47l-17.49-.04a.65.65 0 0 1-.46-1.11l12.24-12.13q.66-.65-.27-.66l-17.3-.02q-.41 0-.33-.4l.07-.32a.3.28-83.7 0 1 .28-.24l18.1-.04q1.43.07 1.56 1.13l-12.38 12.3q-.51.5.21.5l16.6.04a1.99 1.94-66.7 0 0 1.41-.58l12.19-12.15q1.04.26 1.19-.33.13-.55-.35-.84-.39-.23-.82-.06L84.43 0z"/><path fill-opacity=".996" d="m135.93 0 .01 10.97-1.09-1.1.07-9.87zM164.24 0l8.42 8.36q.37.36.74 0l3.08-3.07q.2.86.06 1.44l-2.31 2.38q-.39.41.01.8l2.38 2.35q.47.81.98 1.1l12.37 12.41a.32.31 22.6 0 0 .54-.22l-.03-16.81q-.01-.54-.38-.93L182.46 0h1.31l6.69 6.72q-.17.72.21.97a.58.58 0 0 0 .86-.29q.14-.4.02-.81L198.22 0h1.29l-7.52 7.76q-.47.49-.47 1.16l-.01 16.53q0 .89.63.26 5.31-5.31 10.34-10.38c1.2-1.21 2.06-1.57 1.94-3.57q-.16-2.69-.01-11.76h.79l.27 4.74q.03.54.41.91l2.69 2.73q.39.4.79.01L217.74 0h1.44v12.98l-.89-.03.05-11.41a.28.27-22.7 0 0-.47-.19l-7.71 7.74q-.35.36-.02.73l2.8 3.13-1.06.2-2.51-2.49q-.39-.38-.76.01l-2.41 2.51-1.02.99-13.67 13.75q-.41.1-1.02-.02l-13.31-13.4q-.38-.38-.91-.38l-6.38.03q-.51 0-.88.36l-5.36 5.34q-.25-.52.13-1.68l3.31-3.52q.36-.38-.16-.48-1.57-.3-3.2.06-.46-.22-1.04-.08h-3.28q-.66 0-.19.46l3.39 3.3q.34.95.09 1.76L149.85 6.7q-.03-.71-.56-1.48.89.23 1.56.94 3.1 3.31 6.39 6.49.36.36.87.35l4.62-.06.99-.08q2.35.46 4.69.11.51-.07.87-.44l2.51-2.5q.46-.46 0-.92l-8.02-8.02q-.31-.14-.72-.87-.03-.11-.05-.22zm41.12 11.81q0 .59.43.18l1.99-1.92q.54-.53 0-1.06l-1.77-1.75q-.6-.59-.6.25zm-34.73.79a.31.31 0 0 0 .22.53l4.28.01a.31.31 0 0 0 .22-.53l-2.14-2.13a.31.31 0 0 0-.44 0z"/><path fill="#f9f9fa" fill-opacity=".996" d="m177.58 0 .02 13.36q-.51-.29-.98-1.1l-.08-5.53q.14-.58-.06-1.44L176.6 0zM191.42 0l.13 6.59q.12.41-.02.81a.58.58 0 0 1-.86.29q-.38-.25-.21-.97l.06-6.72zM247.04 0l.05 9.46-.43.97q-.24.54.32.72.41.13.96-.46l17.96-.08q.22 1.3 1.75 1.1l12.74 12.66a.32.31-45.6 0 1 0 .45l-.21.22q-.26.25-.51 0l-13.3-13.14a1.06 1.06 0 0 0-.75-.31l-18.3.09q-.53 0-.9.38l-12.04 12.08q-.49.5.2.49 8.48-.06 17.2-.07.23 0 .45.09l.39.18a.36.35 33.9 0 1 .12.58l-12.48 12.55a.32.31-67.5 0 0 .22.54l17.33-.09q.39 0 .38.4l-.02.34q-.01.26-.27.26l-17.42.06q-.77 0-.22.55l12.36 12.27a.37.37 0 0 1 0 .53l-.22.24q-.19.19-.37.01l-13.77-13.54q-.22-.51-.04-1.05l12.4-12.47q.36-.37-.16-.37l-17.39-.02q-.58-.19-.94-.71l.01-18.18.24-1.59q.68.13.68.5.05 8.88.2 17.64.01.58.41.17l11.91-12q.42-.42.42-1.01L246.01 0z"/><path fill-opacity=".996" d="M258 0q.35.3-.07.68-5.15 4.74-9.99 10.01-.55.59-.96.46-.56-.18-.32-.72l.43-.97q.38.26.61.01 4.59-4.9 9.44-9.47zM277.48 0q.43.4.16.55-.07.04-.12.09-4.87 4.62-9.55 9.47-.43.44.19.43l17.73-.1q.89.45 1.52-.18l.1.32q.06.23.3.22l17.71-.39q.37.42 1.44-.03l18.05-.01q.4 0 .39.39v.31q-.01.31-.32.32l-17.57.03a.27.26-22.3 0 0-.19.45l12.5 12.38a.6.6 0 0 1-.42 1.03l-18.23.08q-.62-1.05-1.73-.29l-13.21-13.06q-.46-.46-1.11-.45l-17.47.15q-1.53.2-1.75-1.1L276.6 0zm22.64 24.26a.3.3 0 0 0 .22.09l17.42-.02a.31.31 0 0 0 .21-.53l-12.4-12.23a.3.3 0 0 0-.22-.09l-17.43.01a.31.31 0 0 0-.22.53z"/><path fill="#f9f9fa" fill-opacity=".996" d="m297.52 0-10.11 10.26q-.63.63-1.52.18L296.26 0zM317.18 0l-10.22 10.38q-1.07.45-1.44.03L315.93 0zM163.05.22q.41.73.72.87l-.05 11.77-.99.08z"/><path fill-opacity=".996" d="m232.38 5.14-.24 1.59-12.83 12.96q-.47.2-1.06-.01l-5.32-5.45q.87-.36 1.5-.12l3.03 3.25q.63.68.8-.23.24-1.38-.16-3.03l1.27-.01-.12 3.35q-.03.63.42.18l3.59-3.58q.44.02.96-.18.37-.15.32-.55-.01-.13-.07-.28z"/><path fill="#f9f9fa" fill-opacity=".996" d="m211.88 13.15 1.06-.2h5.35l.89.03 5.29.05q.06.15.07.28.05.4-.32.55-.52.2-.96.18l-3.89.05-1.27.01-3.67.01q-.63-.24-1.5.12l-7.75-.06 1.02-.99zM163.73 14.23l.05 3.94q-.38 1.16-.13 1.68l.03 18.12a1.89 1.87-67.9 0 0 .56 1.34l12.33 12.33q1.01.71.29 1.92l-18.98-.1q-.49-.01-.49-.49v-.27q0-.22.23-.22l17.62.02q.56 0 .17-.39l-12.28-12.45q.36-1.62-.47-1.96l.04-18.03q.25-.81-.09-1.76l.08-3.76q.58-.14 1.04.08"/><path fill="#f9f9fa" fill-opacity=".996" d="m219.31 19.69.03 18.06q-.76.4-.47 1.89l-12.41 12.51a.22.22 0 0 0 .16.37l17.54-.06q.47 0 .47.47l-.01.34q0 .15-.15.15l-18.67.1q-.7.01-1.2.51l-12.66 12.72q-.43.43-.43 1.04l-.01 16.98a.29.29 0 0 0 .49.2l12.47-12.51a.36.35 47.1 0 1 .52.02l.39.43-.99 1.09-12.39 12.6q-.35.36-.35.86l-.07 17.59q-.2 1.83-1.02 1.63l-13.72-13.77q-.28-.99-1.18-1.1-1.02-1.49-2.26-2.34-.45-.31-.82.08l-2.15 2.22q-.89.17-1.67.02l3.14-3.17q.37-.38 0-.75l-7.98-8.03q-.23-.24-.23.09l.03 11.82q-.53.24-1 .09l.05-13.19a.57.56-67.3 0 1 .96-.4l8.9 8.91q.39.4.79 0l2.8-2.83q.42-.41.41-1l-.03-9.8q0-2.05 1.44-.6l11.78 11.83q.51.52.52-.21l.1-17.38q.42-.99.02-1.52l-.01-18.13q.18-.87 0-1.64l.05-17.98q.61.12 1.02.02l.05 17.44q0 .51.37.15 6.22-6 12.17-12.14.58-.59 1.29.08l-.99 1.11-12.48 12.52q-.4.39-.4.95l-.01 16.96q0 .6.42.18l12.45-12.41q.52-.23 1.03-1.02l12.31-12.36q.36-.36.36-.87l.17-18.83q.59.21 1.06.01m-29.35 84.93a.34.34 0 0 0 .59-.24l-.08-17.4a.34.34 0 0 0-.1-.24l-12.23-12.39a.34.34 0 0 0-.59.24l.09 17.43a.34.34 0 0 0 .1.24zm-13.87-13.99a.31.31 0 0 0 .52-.23l-.01-4.23a.31.31 0 0 0-.53-.22l-2.11 2.13a.31.31 0 0 0 0 .44z"/><path fill-opacity=".996" d="M148.03 24.59q.83 1.02 1.79.2l12.84 12.91q.83.34.47 1.96l-18.79-.12q-.62-.01-1.06.43l-13.21 13.02q-.15.14-.34.06l-.23-.1q-.54-.23-.13-.64l12.38-12.28q.56-.56-.23-.56l-17.4-.06q-.27 0-.28-.27l-.01-.34q-.01-.39.37-.38l17.11.07q.98.01.29-.68l-12.15-12.22a.62.62 0 0 1 .44-1.05zm1.17 1.16a.34.34 0 0 0-.24-.1l-17.36-.12a.34.34 0 0 0-.24.58l12.27 12.27a.34.34 0 0 0 .24.1l17.37.12a.34.34 0 0 0 .24-.58z"/><path fill="#f9f9fa" fill-opacity=".996" d="m301.17 25.36 13.01 12.82a.37.37 0 0 1-.11.6l-.29.13q-.21.09-.37-.07l-12.62-12.46a.19.19 0 0 0-.33.14l.17 17.62q0 .44-.43.44h-.33q-.26 0-.26-.25l-.17-19.26q1.11-.76 1.73.29"/><path fill-opacity=".996" d="M233.07 25.62 220.64 38.1q-.37.37.16.37l17.42.01q-.18.54.04 1.05l-19.39.11q-.29-1.49.47-1.89l12.79-12.84q.36.52.94.71M82.55 25.14l-.16 18.95q-.01.49-.5.49l-.26-.01q-.25 0-.25-.25l.16-18.17q.28-.46 1.01-1.01M190.44 45.88q.18.77 0 1.64L178.03 35.1q-.41-.41-.41.17V51.8q0 .99.7 1.7l12.13 12.15q.4.53-.02 1.52l-13.57-13.61q.72-1.21-.29-1.92l.03-17.44q0-2.13 1.51-.62zM205.39 33.45l.02 18.29q-.51.79-1.03 1.02l.02-18.2zM205.37 72.91q.1 4.7-.04 9.34c-.06 2.27 2.13 3.81 3.67 5.26q-.43.51-.86.73l-2.26-2.29q-.41-.42-.41.16l-.06 4.85q-1.22 1.7.03 1.95l-13.38 13.07a1.84 1.82 68.4 0 0-.57 1.33l.01 17q-.97-.16-.99-1.56-.09-7.92.04-16.07.82.2 1.02-1.63l12.44-12.55a1.27 1.25-23.3 0 0 .36-.88l.01-17.62z"/><path fill="#f9f9fa" fill-opacity=".996" d="M233.28 95.44q-.35 1.25.06 1.79l.09 4.47q.01.61.44.18l2.15-2.15.78-.76 8.63-8.61q1.67-1.66 1.67.7l-.01 11.68q0 .48.48.48l4.66.01.51 1.01-5.12 5.14q-.55.56-.55 1.34l.02 5.84q.01.69.7.67 4.17-.11 8.69 0c1.55.03 2.54-.81 3.46-1.97q.57.79 1.98-.33l5.2-.06q.8.15.99.95l-7.04.18q-.52.01-.89.38l-10.63 10.64q-.45.45-.01.91l3.07 3.12q.21.21 0 .44l-.22.23a.3.3 0 0 1-.44.01l-2.32-2.29q-2.52-2.48-2.52 1.05l-.01 17.26.02.43q.01.57-.54.69l-.59.13.1-1.72.04-17.61q-.32-1.82.31-1.81-2.89-5.53-7.67-9.14-.86-.65-2.28-.41-.73-.42-1.6.01l-15.41.12q-.51 0-.87.36l-12.31 12.38-1.04 1.05-13.31 13.38q-.36.36-.36.86l-.02 17.71q-.39.83-.05 1.5l-.01 18.2q.19.41-.06.79a.53.53 0 0 1-.94-.09q-.15-.37-.05-.8v-17.61a1.43 1.4-67.5 0 0-.4-.99l-12.43-12.47q-.64-.1-.82-1.89l12.45 12.46q1.22 1.23 1.23-.51l.01-16.22q.01-.61-.42-1.04l-12.73-12.82a1.44 1.42 67.3 0 0-1.01-.42l-18.67-.08q-.32 0-.3-.32l.02-.36a.36.36 0 0 1 .36-.34l17.97.05q.16.42.68.64.53.22.74-.31.18-.46-.51-1.03v-18.03a.65.65 0 0 1 1.11-.46l12.48 12.47q.2 1.47 1.35 1.69l.09 17.46q.01.63.45.18l11.85-11.89q.45-.45.45-1.07l-.02-17.52.96-1.05.09 17.64q.01.62.44.18l12.22-12.29a1.19 1.19 0 0 0-.86-2.03l-3.92.04q-.18 0-.19-.17l-.04-.55q-.02-.31.29-.31l4.33-.01q.55 0 .55-.56l-.03-15.99-.03-1.66.06-3.06q.01-.56-.55-.58l-3.4-.08q-.66-.08-1.32.12l-7.55-.08q-1.25-.25-.03-1.95l2.73-2.72q.43-.22.86-.73l9.17-9.19a.65.65 0 0 1 1.11.39q.01.13.01.29.03 6.26.02 12.48a.42.42 0 0 0 .43.42l3.99-.12q.73-.02 1.24-.54l6.71-6.73q1.49-1.49 1.51.62zm-23.57-7.14-.64.7-2.31 2.37q-.43.43.18.44l4.58.03q.84.13 1.7-.07h4.57q.51 0 .51-.51V80.45q0-.79-.55-.23zm17.2 20.52q-.02.1-.1.25-.08.17-.26.23-.31.1-.37.17l-6.62-6.62a.15.15 0 0 0-.26.11l.01 11.54q0 .19.3.35.3.17 1.31-.08-.49.61-1.2 1.07-.32.09-.43.45-.45.54-.56.93a.58.58 0 0 0 .76.7q.37-.15.56-.54l13.69-.13 1.57-.13c1.49.37 2.59.4 3.79-.74q3.48-3.32 6.72-6.81.42-1.09.21-1.47v-3.14q0-.56-.56-.56l-3.12.03q-.94-.51-1.62.04l-7.53.03-1.19-.74.12-17.67q0-.65-.45-.19l-11.62 11.73a3.05 3.05 0 0 0 0 4.3zm10.6-9-.74.69-2.37 2.39q-.4.41.17.41l5.01-.07q.63.22 1.39-.02l4.42.05q.67.01.67-.66l.02-10.8q0-.57-.4-.17zm-18.2-6.29-.08 2.73q-.02.78.52.23l3.07-3.07q.63-.63-.26-.61l-2.58.05q-.65.02-.67.67m27.77 14.03q-.01.78.53.22l2.75-2.84q.69-.72-.3-.67l-2.19.1q-.74.03-.75.77zm-.97 4.04a.33.33 0 0 0-.56-.23l-5.31 5.36a.33.33 0 0 0 .24.57l5.27-.1a.33.33 0 0 0 .32-.33zm-56.13 32.44a.34.34 0 0 0 .59-.24l-.1-17.41a.34.34 0 0 0-.1-.24l-12.23-12.36a.34.34 0 0 0-.59.24l.09 17.41a.34.34 0 0 0 .1.24zm50.4-25.78q-.64 0-.18.46l5.3 5.25q.56.56.56-.23l.01-4.73q0-.81-.81-.81zm6.72 7.06a.32.32 0 0 0 .07.21l.9 1.06a.32.32 0 0 0 .47.03l8.02-7.93a.32.32 0 0 0-.23-.55l-8.93.1a.32.32 0 0 0-.32.32zM149.85 84.11l-.04 1.28.19 18.37q-1.2.87-2.08-.5l-2.66-2.74-.82-.76-7.99-7.88q-.4-.39-.4.16l-.07 11.12q-.55.22-1.03-.01l-.01-12.08q0-2.38 1.69-.7l8.62 8.62.76.74 2.12 2.2q.42.43.43-.17l.07-4.56q.37-.74.12-1.72.07-5.42.16-10.93 0-.43.22-.52.26-.09.72.08"/><path fill-opacity=".996" d="M162.71 91.84q.47.15 1-.09l5.04.04q.78.15 1.67-.02l5.23.04q.9.11 1.18 1.1l-7.79.08-1.32.02q-1.96-.4-3.97.07l-1.06-.04q-1.65-.36-3.28-.14-.56.08-.16.48l3.4 3.38q.34 1.81 1.08 1.53l-.04 15.99q0 .53.54.53l4.25-.01a.38.38 0 0 1 .38.4l-.01.33q-.02.33-.35.33l-3.94-.07a1.06 1.06 0 0 0-.77 1.81l12.84 12.92q.69.57.51 1.03-.21.53-.74.31-.52-.22-.68-.64l-12.37-12.51q-.37-.37-.9-.37l-14.7-.07a1.47 1.47 0 0 0-1.04.43l-10.37 10.41q-.35.36-.35.86l.07 17.65q.21 1.34-1.16 1.61l-12.81-12.85q-.22-.47-.02-1.47l12.18 12.23q.69.7.69-.28-.05-8.02-.01-16.49c0-.95-.58-1.6-1.23-2.21l.33-.24q.5.01.78-.36.15-.19-.06-.34l1.11-1.08q0 .77.15 1.15.2.49.57.11l8.59-8.57q.37-.37-.12-.57-.46-.18-1.45.12 0-.9-1.25-.09l-5.87-.05q-.52 0-.51.51l.06 5.7q-.35.48-1.03.91l-.16-6.6q-.01-.56-.57-.56l-8.28-.01q-.98 0-.29.69l7.87 7.92-.59.66-11.65-11.54q.26-.53-1.43-1.06l-2.26-2.82.61-.78 2.62 2.56q.39.1 1.16 1.77 4.42 2.55 12.3 1.59.56-.07.57-.63l.04-5.84q.01-.55-.38-.95l-5.53-5.72q.69-.1.71-.85l5.21-.04q.48.23 1.03.01 1.73.33 3.45.16 1.54-.14 2.79-1.25 1.19-1.06 2.22-2.31l.82.76-2.37 2.43q-.42.43.19.42l4.84-.11q.88 1.37 2.08.5l4.62 4.64q.47.48.94 0l6.29-6.33a3.22 3.22 0 0 0 0-4.54l-12.04-12.14.04-1.28q3.46 3.3 6.73 6.81c1.18 1.26 4.49 1.03 6.13.92m-6.41 18.43 5.13 4.79a.74.74 0 0 0 1.24-.53l.05-11.43q0-.51-.36-.15l-6.08 6.16q-.58.59.02 1.16m-21.51-2.33.27.69a.39.39 0 0 0 .69.07q.2-.31.24-.58l3.31-3.21q.41-.39-.14-.5-1.78-.34-3.22.23-.08-.09-.22-.18-.24-.15-.5-.04-.18.08-.29.2-1.41-.55-3.07-.22-.55.11-.15.51zm13.95 7.18q.54-.09 1.03-1.1l4.01-4.09q.39-.4 0-.79l-3.96-3.95q-.35-.39-1.04-.69l-6.93.02q-.61 0-1.05.43l-4.21 4.18a.66.65 45.3 0 0 0 .93q2.83 2.81 6.16 6.25c1.9 1.96 4.6.91 5.99-1.19m2.39-.79a.33.33 0 0 0 .24.56l7.41-.06a.33.33 0 0 0 .23-.57l-3.74-3.7a.33.33 0 0 0-.47.01zm-9.71 2.96a.38.38 0 0 0 .27-.65l-5.16-5.22a.38.38 0 0 0-.65.27l.04 5.12a.38.38 0 0 0 .38.38zm20.47-.41q-.58-.08-.94-.58a1.15 1.15 0 0 0-.96-.49l-10.55.11a.28.26 16.8 0 0-.18.09l-.81.99q-.26.33.16.33 6.35-.06 12.91.02.25 0 .45-.15.37-.26-.08-.32M209.71 88.3l3.51 3.47q-.86.2-1.7.07.21-.19.01-.36-1.33-1.16-2.46-2.48zM214.31 92.87l3.89 3.72.03 1.66-5.24-5.26q.66-.2 1.32-.12"/><path fill="#f9f9fa" fill-opacity=".996" d="m163.75 93.08-.09 2.77q-.04 1.22.82.37l3.24-3.21 1.32-.02-5.31 5.3q-.74.28-1.08-1.53l.04-3.72zM129.74 103.19q-.02.75-.71.85l-6.53-6.76a.26.26 0 0 0-.45.18l-.02 18.13q-.77-1.67-1.16-1.77v-4.59q0-.68-.48-.19l-2.14 2.22-.61.78q-1.4.89-2.5 2.3-.33.43.21.44l4.55.08q1.69.53 1.43 1.06l-7.31.07a1.27 1.27 0 0 0-.86.36l-5.03 4.99.08-1.63 3.4-3.45q.44-.45-.19-.44l-3.18.05-.11-1.13q1.68.15 3.25.07 1.68-.09 2.91-1.13 1.35-1.14 2.4-2.57l.64-.67 3.34-3.24q.36-.35.35-.84-.03-5.04.03-10.55 0-.36.57-.43a.6.59 63.3 0 1 .5.17z"/><path fill-opacity=".996" d="M274.95 114.77q.01.62.23 1.01-.54 1.43-.26 3.14.1.59.52.17l3.44-3.35.89-.9q4-3.62 7.67-7.66.35-.39.82-.06l-.51 1.45-12.87 12.86-1 .04-5.77-5.65q-.19-.8-.99-.95-.82-1.5-2.23-2.46-.44-.31-.8.09l-2.17 2.43q-1.41 1.12-1.98.33l-.01-17.54q0-.88-.61-.24l-6.58 6.76-.51-1.01q3.78-3.77 7.68-7.56.3-.3.49-.3.6.01.6.6l-.01 10.35q-.01.64.45 1.09l2.62 2.61q.51.51 1.03 0l8.21-8.25q1.64-1.65 1.64.68zm-6.02-.01q.47.7 1.15 1.1l3.29 3.39q.46.47.46-.19l-.02-3.23.05-1.06v-11.42q0-.72-.5-.21l-7.73 7.78a.45.45 0 0 0 0 .64zm-7.3-5.88a.36.36 0 0 0-.62.25l.01 4.2a.36.36 0 0 0 .62.25l1.96-2.11a.36.36 0 0 0-.01-.49zM148.75 95.48q.25.98-.12 1.72l-2.62 2.53-.76-.74zM236.8 98.97l-.78.76-2.68-2.5q-.41-.54-.06-1.79zM237.51 99.82l3.46 3.4q-.76.24-1.39.02l-2.81-2.73zM117.33 110.44l-.64.67-8.09-8.07q-.49-.49-.49.2l.02 11.5.11 1.13q-.33 1.89-.03 3.84l-.08 1.63-.06 19.08q-.85-.57-1.02-1.03l-.02-18.24-.15-1.58q.48-1.76.06-3.74l.13-1.08.02-12.38q0-2.25 1.58-.65zM233.2 104.5q-.09 4.84.06 9.55c.04 1.57.86 2.29 2.05 3.07l-1.57.13-1.09-1.3q.68-.94-.54-1.9l-.07-7.96q-.01-.64-.46-.18l-3.83 3.88q-.47.34-.63.65l-4.45 4.41q-.79.5-.64 1.08-1.2.02-1.98 1.45-.19.39-.56.54a.58.58 0 0 1-.76-.7q.11-.39.56-.93.53.04.43-.45.71-.46 1.2-1.07l5.26-5.3q.06-.07.37-.17.18-.06.26-.23.08-.15.1-.25l5.1-5.06z"/><path fill="#f9f9fa" fill-opacity=".996" d="m135.94 104.64.05 3.48q-.04.27-.24.58a.39.39 0 0 1-.69-.07l-.27-.69.14-3.32q.11-.12.29-.2.26-.11.5.04.14.09.22.18"/><path fill-opacity=".996" d="m242.35 104.43 3.68 3.67q.21.38-.21 1.47l-5.09-5.1q.68-.55 1.62-.04"/><path fill="#f9f9fa" fill-opacity=".996" d="m149.82 105.19-.05 8.83q-.49 1.01-1.03 1.1l.04-10.62q.69.3 1.04.69M107.07 114.75l-.13 1.08-3.12-.01q-.61 0-.18.44l3.24 3.31.15 1.58-12.38-12.37q-.44-.44-.44.18V126q0 .53.37.91l12.47 12.48q.17.46 1.02 1.03l12.38 12.46a.31.31 0 0 0 .53-.22q.08-8.54.02-17.17 0-.79 1.07-.58-.2 1 .02 1.47l-.03 17.57q0 .58.41 1l11.88 11.93q.45.45.45-.18l.1-17.47q1.37-.27 1.16-1.61l12.62-12.66a.43.43 0 0 1 .6 0l.21.2a.3.29 45.7 0 1 0 .41l-13.15 13.2a1.14 1.12 67.7 0 0-.33.8l-.07 18.83q-.65.71-1.97-.35l-12.39-12.37q-.36-.36-.87-.36l-17.51-.05q-.25.13-2.35-.95l18.67-.25q.51-.01.15-.38l-12.33-12.41q-.46-.76-1.04-1.05l-12.42-12.42a1.27 1.25 66.7 0 0-.88-.36l-17.33-.13q-.92-.21-1.83-.02.23-1.01.67-1.01 8.73.07 17.44.04a.25.24 67.3 0 0 .17-.42l-12.38-12.42a.36.35-42.9 0 1 .02-.52l.22-.2q.25-.21.48.02l12.21 12.23q.56.56.55-.23l-.01-16.21q-.01-2.68 1.88-.78l6.52 6.57q.39.39.93.39zM288.77 125.51q-.33 1.02-.98 1.06l-.04-18 .51-1.45q.16-.08.28-.04.21.06.21.27zM227.75 109.79l4.36 4.26q1.22.96.54 1.9l-10.62-.02q-.15-.58.64-1.08l8.11.08q.78.01.23-.55l-3.89-3.94q.16-.31.63-.65"/><path fill-opacity=".996" d="m205.35 112.3-.96 1.05-12.82 12.84q-1.15-.22-1.35-1.69 1.04.19 1.28-.19.31.17.52-.03 6.12-6.11 12.22-12.24.39-.4 1.11.26M308.32 154.03l-.22.32a.59.59 0 0 1-.68.22q-.49-.16-.86-.56l-2.25-2.49q-.35-.39-.7 0l-2.23 2.44-1.16 1.08-12.54 12.6a.21.21 0 0 0 .15.36l17.6-.02q-.23.55-.06 1.01l-17.47.14q-.53.01-.15.37l13.02 12.38q-.42.3.59 1.05l12.72 12.67a.35.35 0 0 1 .04.45l-.19.3q-.2.29-.46.04l-12.97-12.73q-.75-1.25-1.1-1.15l-13.23-13.08q-.37-.37-.9-.37l-17.1.03q-.68.01-.2.48l12.42 12.28a.38.38 0 0 1 0 .52l-.24.24q-.21.22-.43 0l-13.08-12.95a1.91 1.88-22.4 0 0-1.33-.54l-17.86.06a1.6 1.6 0 0 0-1.12.48l-12.32 12.45q-.61.97-1.93.49l.01-17.64q0-.52-.38-.15l-12.4 12.39q-.59-.33-1.03.01l-5.19-5.2q-.39-.4-.94-.39l-6.49.09q-.62.01-1.05.45l-12.47 12.5q-.61.62-.62 1.49l-.02 16.7q0 .73.52.22l11.84-11.91q1.52-1.54 1.53.63v17.47q-1 1.12-.18 1.75l-13.01 13.04q-.67.68-.67 1.63l-.02 16.92q-.22.05-.43.03-.5-.04-.5-.54l-.07-17.32q.35-.25-.06-1.61l.03-17.58q0-.5-.36-.86l-12.49-12.58q-.4-.24-.94-1.49.94.03 1.04.14 5.85 5.81 12.4 12.39a.22.22 0 0 0 .37-.15l-.01-17.2q0-.47-.33-.8l-13.24-13.28q.63-1.28-.39-2.04.17-2.63 0-5.1-.01-.12-.12-.14-.05-.01-.11-.01.3-.62.27-1.57l.24-12.07q.18 1.79.82 1.89l-.01 17.31q0 .87.61 1.48l12.23 12.28q-.1.43.05.8a.53.53 0 0 0 .94.09q.25-.38.06-.79l12.84-12.91q1.07.54 1.63-.12l5.08-.32q.6-.03.16-.45l-2.27-2.19.82-.87 3.2 3.2q.36.37.89.37l3.86.01q.54 0 .54-.54l.02-11.6.99-1.01.04 12.46q0 .67.67.67l3.73.02a1.57 1.57 0 0 0 1.11-.46l7.3-7.29a.62.62 0 0 1 1.06.44l-.02 17.28q0 .93.66.27l12.45-12.51q.58.95 1.61-.21l18.29-.04q.75.08 1.46-.11l17.67-.03q.54 0 .91-.37l12.77-12.76q.38-.39.38-.93l.02-6.62q0-.59-.42-1l-4.73-4.68a1.21 1.2-22.8 0 0-.84-.34l-18.8.06q-.18-.62-.66-.73-.01-.13-.01-.25.78-.31 1.01-.91l12.86-12.84q.65-.04.98-1.06l12.67-12.65q.31-.32.63 0l.21.2q.21.21 0 .43l-12.41 12.44a.25.25 0 0 0 .18.42l16.41-.08q2.74-.01.8 1.93l-6.45 6.46q-.43.43-.43 1.03l-.01 3.98a.54.54 0 0 0 .55.54l11.63-.12q2.5-.02.73 1.75l-8.12 8.14q-.43.44 0 .88zm-2.06-26.24a.32.32 0 0 0-.23-.54l-17.42.11a.32.32 0 0 0-.22.09l-12.3 12.31a.32.32 0 0 0 .23.54l17.41-.11a.32.32 0 0 0 .22-.09zm-6.91 9.13a.31.31 0 0 0-.53-.22l-2.94 2.9a.31.31 0 0 0 .21.53l2.98.08a.31.31 0 0 0 .31-.32zm-.42 7.86q.48.47.46-.2l-.07-2.58q-.02-.8-.82-.82l-2.49-.04q-.79-.01-.23.54zm13.16-3.12a.33.33 0 0 0-.23-.56l-11.17.13a.33.33 0 0 0-.33.33l.06 4.53a.33.33 0 0 0 .09.22l3.19 3.22a.33.33 0 0 0 .46 0zm-11.25 6.44q-.49-.5-.49.2l.01 4.42q0 .73.51.21l1.87-1.92q.48-.5 0-.99zm-85.82 23.51a.31.31 0 0 0-.22.53l2.93 2.95a.31.31 0 0 0 .53-.22l.06-2.98a.31.31 0 0 0-.32-.32zm4.26.78c.08.93.17 2.06-.37 2.89q-.06.08.03.12.05.03.1.03.44.05.75-.26 1.56-1.59 3.16-3.06.57-.52-.21-.52l-2.75.02q-.77 0-.71.78m-27.66 32.53a.32.32 0 0 0-.09.22l-.07 17.41a.32.32 0 0 0 .55.23l12.27-12.35a.32.32 0 0 0 .09-.22l.06-17.41a.32.32 0 0 0-.55-.23z"/><path fill="#f9f9fa" fill-opacity=".996" d="m273.86 114.77-.05 1.06-3.73.03q-.68-.4-1.15-1.1zM279.77 114.84l-.89.9-3.7.04q-.22-.39-.23-1.01zM143.6 118.38l-7.74 7.76-1.11 1.08q-.43.23-.72.7l-.33.24-3.8 3.58q-.15.14-.3-.01l-.2-.21q-.17-.18 0-.37l3.58-3.69.59-.66 1.43-1.44q.68-.43 1.03-.91l6.32-6.16q1.25-.81 1.25.09"/><path fill-opacity=".996" d="m236.49 118.31 9.95 9.55q-.63-.01-.31 1.81l-11.24-11.35q.87-.43 1.6-.01"/><path fill="#f9f9fa" fill-opacity=".996" d="m274.88 121.43.05 17.98q-.23.6-1.01.91l-.04-18.85z"/><path fill-opacity=".996" d="m75.67 127.32-.15.2q0 .01.01.02 6.14 6.18 12.24 12.23.38.39.93.39l17.6.07q.58.29 1.04 1.05l-18.63.01q-.52 0-.88.37l-5.14 5.24q-.54.22-.96.89-1.86 1.16-2.77 2.86-.71.17-.83.63l-2.31 2.27q-.47.46.18.46l4.74-.01q.45.02 1.11 1.09l-17.36.09q-.65 0-.19.46l11.79 11.84q.37.37.89.37l17.66.05q.5-.15 1.08.13a.54.54 0 0 1 .07.93q-.43.3-.99.1l-17.7-.01q-.59 0-1.01.41l-12 11.87q-.42.42.17.42l17.66.06q.18 1.11-.37 2.01l-.25-.04q-.05 0-.09.03-6.25 6.33-12.65 12.59a.26.26 0 0 1-.32.03l-.29-.2q-.39-.27-.05-.59l12.11-11.92q.85-.84-.35-.84l-16.36-.06q-2.24 0-.64-1.58l12.43-12.25q.56.05.79-.06 1.23-.57-.07-.95-.29-.08-.75-.08-6.01-6.14-11.99-11.97-.66-.64-.84-1.26-.18-.67.51-.67l10.34.07q.51.01.87-.35l3.29-3.31q.77-.1.74-.77l3.52-3.45q.64-.13 1.07-.96l4.01-3.97q.76-.06 1.06-.38.46-.45-.07-.73-.34-.17-1.04.02l-3.86-3.81-1.05-1.2-7.78-7.86q.91-.19 1.83.02M206.3 131.18l17.91.02q.43 0 .44.42l.01.28q.01.26-.25.26l-19.15.07zM246.09 147.28l-.1 1.72-13.47-13.52q-.27-.27.08-.43l.41-.18q.15-.07.27.04z"/><path fill-opacity=".996" d="M261.03 153.48q-.38.56-1.08 1.07l-.11-17.45q0-.66-.47-.19l-11.92 11.99q-.38.37-.38.9l.03 17.64-.79.81-.32-19.25.59-.13q.55-.12.54-.69l-.02-.43 12.2-12.25q1.68-1.69 1.69.69z"/><path fill="#f9f9fa" fill-opacity=".996" d="m82.67 136.36.03 3.27q0 .54.55.54h3.28q.7-.19 1.04-.02.53.28.07.73-.3.32-1.06.38l-3.3-.05q-.54-.01-.56.53l-.15 3.49q-.43.83-1.07.96l.05-4.42q.01-.55-.55-.56l-10.98-.11q-.57 0-.17.4l8.13 8.14q.03.67-.74.77l-8.53-8.53q-1.8-1.81.75-1.79l11.75.12q.42 0 .42-.41l-.01-4.64zM273.93 140.57q.48.11.66.73l-12.81 12.89q-.59.39-1.06 1.04l-12.84 12.89q-1.03 1.16-1.61.21l.04-.08.79-.81 12.85-12.89q.7-.51 1.08-1.07zM82.69 146.9l.1 7.2a1.15 1.12-68.6 0 0 .33.78l12.78 12.77q.36.36.86.36l17.69.01q.6.19 1.32-.08l.19 1.22-13.62 13.47a.26.25-52.2 0 1-.31.04l-.23-.12q-.57-.31-.11-.76l12.26-12.13q.57-.57-.23-.57l-16.91-.03q-.59 0-1.01.42l-12.82 12.71a1.46 1.46 0 0 0-.44 1.02l-.15 18.66a.27.27 0 0 1-.25.26l-.33.01a.39.38-.7 0 1-.41-.39l.15-17.93q.55-.9.37-2.01l12.88-12.75q.56.2.99-.1a.54.54 0 0 0-.07-.93q-.58-.28-1.08-.13l-12.79-12.81q-.66-1.07-1.11-1.09l-2.61-2.72q.12-.46.83-.63l2.15 2.08q.42.41.44-.18l.18-4.76q.42-.67.96-.89"/><path fill-opacity=".996" d="M204.77 151.02q.42 1.37-.4 1.75l-12.85 12.91q-.34-.67.05-1.5z"/><path fill="#f9f9fa" fill-opacity=".996" d="M205.49 162.87q-.15.78.01 1.36l-.07 4.97q-.01.65.44.18l2.27-2.37q.5-.19.89-.74 6.57-6.67 9.26-9.16.48-.44.98.34l-.99 1.01-8.51 8.56-.82.87-2.97 2.96q-.56.66-1.63.12l.02-18.2q.82-.38.4-1.75.4.48.55.79.07.14.06.9-.05 5.15.11 10.16"/><path fill-opacity=".996" d="m280.28 154.73-1.37.52-18.19-.02q.47-.65 1.06-1.04 9.09.03 18.09-.03.35 0 .41.57"/><path fill="#f9f9fa" fill-opacity=".996" d="m301.38 153.96 5.18.05q.37.4.86.56a.59.59 0 0 0 .68-.22l.22-.32 10.95-.07a.54.54 0 0 1 .49.77q-.23.52-.64.92-5.82 5.86-11.68 11.69-.6.61.25.61l17.52-.05a.2.19 88.4 0 1 .19.19v.34a.46.46 0 0 1-.45.47l-17.44.05q-.65.01-.19.46l11.96 11.8q1.64 1.61-.66 1.63l-17.26.09q-1.01-.75-.59-1.05l17.04-.07q.52 0 .15-.37l-12.59-12.45q-.17-.46.06-1.01l12.44-12.51a.24.24 0 0 0-.17-.42l-17.48-.01zM280.28 154.73l-12.65 13.24q-.71.19-1.46.11l12.74-12.83z"/><path fill-opacity=".996" d="m103.2 155.27 12.57 12.67q-.72.27-1.32.08l-13.6-13.7q2.1 1.08 2.35.95"/><path fill="#f9f9fa" fill-opacity=".996" d="M176.57 162.89q.03.95-.27 1.57l-2.05 2.17q-.39.41.01.8l2.27 2.28q1.02.76.39 2.04l-7.29.04q-.51 0-.88.36l-4.99 4.93-1.05.06-12.81-12.86q-.07-1.12.33-1.12l6.89 6.89q.53.53 1.28.53l3.77.02a.52.52 0 0 0 .52-.52l.02-12.52a.66.66 0 0 1 1.12-.47l8.88 8.9a.46.45-44.1 0 0 .64 0zm-12.36-4.02a.32.32 0 0 0-.55.22l.06 11.21a.32.32 0 0 0 .32.32l4.54-.06a.32.32 0 0 0 .22-.09l3.29-3.18a.32.32 0 0 0 0-.45zm6.43 11.25a.31.31 0 0 0 .21.53l4.34.03a.31.31 0 0 0 .23-.53l-2.16-2.19a.31.31 0 0 0-.44 0zm-11.4 2.11 3.03 2.97q.89.88.6-.34-.3-1.27-.16-2.56.09-.85-.75-.72-1.15.18-2.33-.07-1.41-.28-.39.72m5.21 2.72 2.76-2.77q.87-.87-.34-.65-1.13.21-2.3.05-1.09-.16-.91.92.18 1 0 2.05-.23 1.43.79.4"/><path fill-opacity=".996" d="M150.23 163.16q-.4 0-.33 1.12l.02 18.25q-.26.4-.79.65l-18.22-.05q-.72-.21-1.45-.06l-.08-.5a.46.46 0 0 1 .45-.53l17.63.1q.66 0 .19-.47l-11.93-11.98q-.44-.44-1.07-.45l-18.69-.08-.19-1.22 18.2.11q1.32 1.06 1.97.35l12.64 12.69a.15.14 22.8 0 0 .25-.1l-.01-17.71a.5.5 0 0 1 .6-.49q.37.08.81.37M209.03 166.27q-.39.55-.89.74l-2.64-2.78q-.16-.58-.01-1.36z"/><path fill="#f9f9fa" fill-opacity=".996" d="M75.06 167.9q.46 0 .75.08 1.3.38.07.95-.23.11-.79.06l-18.11-.09q-.46 0-.38-.45l.06-.33a.31.3-84.2 0 1 .3-.25z"/><path fill-opacity=".996" d="m163.76 177.08.02 19.38q-.51.23-1.05-1.13l-.02-18.19z"/><path fill="#f9f9fa" fill-opacity=".996" d="m219.31 177.2.02 17.72a.19.19 0 0 0 .32.14l12.43-12.46q1.32.48 1.93-.49l17.99-.06q.64-.01.64.64-.01.4-.53.92-6.01 5.96-12.25 12.27-1.06.44-1.51.06l12.34-12.4a.29.29 0 0 0-.21-.49l-16.9.08a1.46 1.43 21.5 0 0-1 .42l-12.2 12.22q-.54.32-1.2 1.24l-12.42 12.36a.37.37 0 0 0 .26.63l17.35-.01q.4 0 .29.38l-.13.43q-.06.21-.28.21h-19.04q-.82-.63.18-1.75l12.57-12.64a1.2 1.17-23.6 0 0 .35-.86l-.03-18.55q.44-.34 1.03-.01M300.5 183.66l.12 18.08q0 .42-.42.4l-.32-.02q-.29-.01-.29-.3l-.19-19.31q.35-.1 1.1 1.15M149.92 182.53l12.81 12.8q.54 1.36 1.05 1.13l12.39 12.41a.26.26 0 0 0 .44-.18l.08-18.04q.54 1.25.94 1.49l.05 17.59q0 .51.36.87l12.41 12.56q.41 1.36.06 1.61l-13.84-13.83q-.38-.68-1.13-1.26l-12.71-12.67q-.23-.85-.95-.98l-12.75-12.85q.53-.25.79-.65M130.91 183.13l12.75 12.82q-.65.3-1.46-.04l-12.74-12.84q.73-.15 1.45.06"/><path fill-opacity=".996" d="m143.66 195.95 18.22.08q.72.13.95.98l-19.17.01q-.85-.25-1.48.1l-17.88-.17q-.56-.01-.47-.56l.05-.27q.04-.24.28-.24l18.04.03q.81.34 1.46.04M220.38 195.77q.09.09.17.18.07.07.16.07l17.64-.08q.45.38 1.51-.06l18.05-.01q.24 0 .27.25l.03.32a.42.42 0 0 1-.41.47l-17.25.12q-.83.01-.24.59l12.3 12.16q.35.34-.07.6l-.28.17q-.16.11-.3-.03l-13.35-13.17q-.35-.35-.85-.35l-18.58.01q.66-.92 1.2-1.24"/><path fill="#f9f9fa" fill-opacity=".996" d="m143.66 197.02-13.53 13.32q-.34.33-.67-.01l-.21-.22q-.13-.14.01-.28l12.92-12.71q.63-.35 1.48-.1"/><path fill-opacity=".996" d="m176.67 210.94-18.88.03a.41.4-1.5 0 1-.41-.38l-.02-.26q-.03-.35.32-.36l17.86-.29q.75.58 1.13 1.26"/><path fill="#f9f9fa" fill-opacity=".996" d="M190.24 242.63q.29 1.25 1.26 1.84l-.01 17.76q0 .45.31.13l12.15-12.23q.37-.37.37-.9l.05-17.73 1-1.12.11 11.3.04 1.29-.1 5.62q-.63.3-.68 1.02a.49.48 86.3 0 0 .57.51q.81-.15.81-.72h5.66l1.42-.14 5.07-.02q.22-.08.93.01l5.23.02q-.14.8-1.08 1.12l-3.83-.04-1.63.01-3.42.14q-.92-.41-1.55.05l-7.41.03q-.51 0-.87.36l-13.11 13.13q-1.15-.14-1.09-1.5v-17.71q0-.54-.38-.92l-11.94-12.04q-.42-.42-.42.17l-.03 17.66q-.49-.06-1.04-1.23l-.07-5.48q.13-.53-.04-1.31l.12-10.45q.02-2.22 1.58-.65z"/><path fill-opacity=".996" d="m205.37 230.38-1 1.12-12.87 12.97q-.97-.59-1.26-1.84l1.27-.03 12.77-12.45a.62.62 0 0 1 .87.01zM176.52 241.71q.17.78.04 1.31-1.37 1.04-2.24 2.31-.28.42-.02.85.84 1.36 2.33 2.32.55 1.17 1.04 1.23l12.77 12.84q-.06 1.36 1.09 1.5l-.01 17.66a.25.24-22.7 0 0 .42.17l12.62-12.61q.77 1.15-.2 1.71l-12.45 12.5q-.41.4-.41.98v16.76q0 .66.46.18l12.41-12.64q.27.71.77 1.08l-13.25 13.28q-.36.36-.36.87l-.02 17.08q0 .21-.21.2h-.33a.47.46 90 0 1-.46-.47l-.01-17.32q.14-.75-.1-1.65l.01-17.61q0-.57-.41-.98l-11.78-11.8q-.49-.49-.49.2l-.03 17.49-1.16-1.29.02-17.91a.61.6 72.9 0 1 .26-.5q.5-.34.75-.09 6.24 6.23 12.33 12.35.6.61.6-.25l-.01-16.78a1.33 1.29-68.2 0 0-.38-.93l-13.26-13.32-1.11-.97q-.98-1.44-2.35-2.43-.43-.31-.8.06l-2.33 2.29q-.66.06-1.32-.13l3.01-3a.57.57 0 0 0 0-.8l-7.68-7.7q-.65-.66-.65.27l-.01 11.23-.77-.03-.05-12.76a.68.68 0 0 1 1.16-.48l8.64 8.66q.36.37.74.02zM219.2 249.25q-.71-.09-.93-.01l.03-11.48a.22.22 0 0 0-.38-.16l-7.92 7.91a.42.42 0 0 0 0 .6l3.2 3.15-1.42.14-2.37-2.33q-.4-.4-.81-.01l-2.48 2.34q0 .57-.81.72a.49.48 86.3 0 1-.57-.51q.05-.72.68-1.02l2.35-2.4q.39-.4.01-.81l-2.26-2.41-.04-1.29 3.17 2.95q.41.39.81-.01 3.93-3.93 8.06-8.13.47-.47 1.04-.68a.57.57 0 0 1 .76.54zM149.74 241.46l.18 1.55-.09 17.61a1.3 1.3 0 0 0 .38.92l12.43 12.42q.6.15.56.88-.03.55-.59.5-.6-.07-.81-.54l-12.44-12.47q-.36-.36-.87-.36l-17.52-.06q-.75-.19-1.6-.12.11-.32.09-.4a.44.44 0 0 1 .42-.57l17.56.06q.69 0 .2-.48l-12.26-12.28a.52.52 0 0 1 0-.73l.19-.19q.17-.16.34 0l12.36 12.44a.33.33 0 0 0 .56-.23l.01-17.63a.35.35 0 0 1 .54-.29q.47.31.36-.03"/><path fill="#f9f9fa" fill-opacity=".996" d="m252.56 261.58-1.42.27-17.56.04a1.62 1.59 21.9 0 0-1.15.48l-12.1 12.15q-.3.3.12.3l17.74-.03q.1 0 .26.21.21.26.01.53l-.2.27-18.78.08q-.54.01-.93.39l-12.05 12.12q-.4.41.17.41l17.68-.1a.27.27 0 0 1 .27.27l-.01.28q0 .49-.49.49l-18.98.12q-.5-.37-.77-1.08l-.01-17.78q.97-.56.2-1.71.84.1.84 1 0 8.81.03 17.19a.24.24 0 0 0 .41.16l12.1-12.15q.37-.38.37-.92l-.02-18.59q.5.07 1.04-.06l.09 17.48q0 .58.41.17l11.96-12q.37-.38.37-.9l.01-17.67.02-1.4q1.08-.5 1.07.9-.06 8.14-.09 16.83 0 .88.62.25l12.31-12.36q.17-.17.34 0l.19.19a.51.51 0 0 1 0 .72l-12.26 12.28a.27.27 0 0 0 .19.46q8.27.02 17.36-.06a.89.85-13.2 0 1 .78.46q.04.08-.14.31M149.74 241.46l7.45 7.34q.37.36.89.37l4.76.05.77.03h5.33q.66.19 1.32.13l5.48.08 1.11.97-7.7.06q-.8-.17-1.59.02l-3.63-.14-1.33-.02-3.34-.08q-.52-.02-.16.36l3.87 4.06q-.35.79.78 1.25l.11 18.7q.01.51.36.87l12.32 12.35 1.16 1.29 12.7 12.7q.24.9.1 1.65l-13-13.04a2.19 2.17 67.3 0 0-1.54-.64l-18.35-.13q-.2-.01-.2-.21l-.01-.36q0-.42.42-.42l17.49.1a.25.25 0 0 0 .18-.43l-12.04-12.11a1.37 1.35 67.2 0 0-.96-.4l-18.78-.06q-.43-.55-1.51.03l-17.77-.07q-.53-.01-.56-.53l-.02-.32q-.02-.2.19-.2l17.58.03q.59 0 .17-.42l-12.42-12.53q.85-.07 1.6.12l12.36 12.44a1.52 1.5-22.1 0 0 1.07.44l17.4.01q.21.47.81.54.56.05.59-.5.04-.73-.56-.88l.03-17.56q0-.56-.39-.95l-12.36-12.44z"/><path fill-opacity=".996" d="m232.19 241.6-.02 1.4-12.84 12.92q-.54.13-1.04.06l-5.37-5.43q.63-.46 1.55-.05l3.13 3.1q.41.4.56-.15.5-1.73-.27-3.09l1.63-.01-.4 3.48q-.07.59.36.18l3.87-3.62q.94-.32 1.08-1.12zM163.93 250.37q-.51 1.62-.09 3.11.16.56.57.15l3.15-3.12q.79-.19 1.59-.02l-5.4 5.45q-1.13-.46-.78-1.25l-.37-4.34zM252.56 261.58l-12.73 13.14q-.58-.08-.91.19-.41.33.01.65.35.26.9.22l12.78 12.71q.45.44-.13.67l-.3.12q-.15.05-.27-.06l-13.65-13.42.2-.27q.2-.27-.01-.53-.16-.21-.26-.21l12.95-12.94z"/><path fill="#f9f9fa" fill-opacity=".996" d="m239.83 274.72 18.06.01q.25 0 .25.25v.26q0 .49-.49.49l-17.82.05q-.55.04-.9-.22-.42-.32-.01-.65.33-.27.91-.19"/><path fill-opacity=".996" d="m143.71 275.8-13.48 13.28a.52.51 37.8 0 1-.63.07l-.3-.17q-.23-.14-.04-.32l12.94-12.83q1.08-.58 1.51-.03"/><path fill="#f9f9fa" fill-opacity=".996" d="M190.25 321.51q.14 1.4.94 1.15.59-.18.57-1.16 6.26-6.36 12.66-12.58.4-.4.98.51l-1 .82-12.5 12.59q-.36.37-.36.89l.01 17.04a.25.25 0 0 0 .43.17l12.38-12.43q.55.14 1.05-1.19l12.76-12.68q.45-.45.72.13l.13.27q.08.17-.05.3l-12.67 12.73-1.07 1.09-13.29 13.3q-.44.44-.44 1.07l.01 16.74q0 .78.55.23l12.37-12.37q.16-.15.32 0l.19.2a.53.53 0 0 1 .01.75l-13.5 13.57q-.94-.37-1.01-1.75l.04-17.42a1.71 1.69 22.8 0 0-.5-1.2l-12.58-12.61a1.81 1.78 67.1 0 0-1.27-.53l-18.4-.01a.36.35 85.2 0 1-.35-.3l-.03-.26q-.07-.45.39-.45l17.99-.03q.82 1.25 1.97.47l12.37 12.39a.24.24 0 0 0 .42-.17v-17.03q.01-.54-.38-.93l-12.42-12.49q-.71-.48-.79-1.26.15-.28.37-.3.18-.02.38.17 6.4 6.19 12.6 12.57"/><path fill-opacity=".996" d="M176.9 309.07q.08.78.79 1.26l.01 18.23q-1.15.78-1.97-.47l-12.68-12.81q-.12-.12-.05-.27l.16-.33q.22-.5.61-.11l12.34 12.35a.29.29 0 0 0 .5-.2zM205.4 309.43l.01 17.89q-.5 1.33-1.05 1.19l.04-18.26zM191.76 321.5q.02.98-.57 1.16-.8.25-.94-1.15zM206.3 328.07l18.05.04a.3.3 0 0 1 .3.28l.02.26a.48.48 0 0 1-.48.51h-18.96zM190.44 360.9q.07 1.38 1.01 1.75l-.04 19.35h-.82l-.11-19.03a1.16 1.16 0 0 0-.34-.82l-13.07-13.14q-.35-.34 0-.69l.2-.2q.19-.18.37 0z"/></svg>