<svg xmlns="http://www.w3.org/2000/svg" viewBox="0 0 382 382"><path fill="#f9a502" fill-opacity=".996" d="m81.9 0 3.72 3.56q.35.33.74.04l2.26-1.74q.41-.31.49-.81.17-1.14 1.53-1.05h1.65q-.39.77-1.44 1.49-.47.33-.47.91l-.01 5.83q-.01.68.45 1.17l11.63 12.62a1.5 1.5 0 0 0 .96.47l15.84 1.31q.85.07.27-.56l-10.94-11.87a.67.67 0 0 1 .27-1.08q.26-.09.65-.06 8.01.65 15.7 1.28.85.07.27-.56L115.46 0h1.26l9.41 10.22q.69.76.7-.27l.05-9.95h.93l-.01 11.06a2.28 2.26-66.5 0 0 .6 1.54L139 24.12q.56.61.56-.22V7.81q0-.38-.25-.67L133.01 0h.86l4.6 4.75q1.45 1.5 1.11-.56-.27-1.61.14-4.19h.73q.38 2.54.07 4.33-.34 1.98 1.03.51L146.06 0h1.23l-6.36 7.11q-.35.38-.35.89l-.01 17.3q0 .5.33.87l10.83 11.76q.6.65.59-.23l-.02-15.48q0-2.47 1.67-.65l5.42 5.9a1.45 1.43-18.8 0 0 .91.44l4.19.35a.49.49 0 0 0 .54-.49V17.23q.01-2.44 1.66-.64l7.03 7.62q.46.5.92 0l2.72-2.9a1.6 1.57-23.9 0 0 .43-1.08l-.02-7.99q0-2.43 1.65-.64l10.36 11.26q.74.8.74-.28l-.02-15.6q0-.6-.39-1.04L184.77 0h1.06l3.55 3.64q1.38 1.41 1.09-.54-.17-1.12.14-3.1h.74q.4 2.03.15 3.36-.33 1.82.93.47l3.6-3.83h1.17l-5.24 5.85q-.46.5-.46 1.18l-.01 15.55q0 1.08.73.28l10.31-11.2q1.71-1.86 1.7.67l-.01 7.89q0 .63.42 1.08l2.78 2.98q.4.43.8 0l7.1-7.69q1.65-1.8 1.65.64v10.41a.62.61-2.6 0 0 .67.61l4.04-.34q.56-.04.94-.46l5.27-5.72q1.81-1.97 1.81.71l-.02 15.1q0 1.04.7.28l10.66-11.58q.4-.44.4-1.02L241.42 8q0-.51-.34-.9L234.67 0h1.13l4.48 4.69q1.46 1.53 1.18-.56-.21-1.57.02-4.13h.74l.18 4.74q.04 1.15.83.31L247.96 0h1.24l-6.41 7.1q-.35.39-.35.91v15.91q0 .81.55.21l10.84-11.77q.31-.34.31-.81L254.16 0h.93l.04 9.7q.01 1.28.87.33L265.24 0h1.27l-10.03 11.02q-.52.57.25.5 7.78-.66 16.11-1.31.58-.04.74.49a.73.71-32.4 0 1-.16.68l-10.9 11.83q-.62.66.29.59l15.78-1.31a1.48 1.48 0 0 0 .97-.48l11.62-12.6a1.83 1.78 71.6 0 0 .43-.89q.93-5.71-1.73-8.52h1.26q.71.37.83 0h.34q.99 2.41 3.47 3.59.46.21.81-.15L299.94 0H301l-3.56 4.19q-.41.47.08.86l3.14 2.48q.45.35 1.01.3l8.58-.72a.76.72-27.9 0 1 .53.15q.63.47.24.89-5.44 5.89-11.02 11.99-.6.65.28.58l16.22-1.34a.32.31-5.8 0 1 .34.27l.04.3q.06.41-.35.44l-16.11 1.33q-.97.08-.2.67l12.04 9.38q2.04 1.58-.53 1.79l-15.23 1.25q-.96.07-.2.67l12.67 9.88q.35.27.08.63l-.16.2q-.18.24-.42.05l-12.6-9.82q-.94-.73-.74.44l2.59 15.64a.39.39 0 0 1-.25.43l-.35.14q-.31.11-.36-.21l-2.91-17.58a1.31 1.27-76.2 0 0-.48-.82l-13.53-10.55a1.97 1.92-27.7 0 0-1.35-.4l-15.62 1.29q-.85.07-.18.6l12.95 10.12q.09.07.07.19l-.07.39a.37.37 0 0 1-.59.22l-14.04-10.95q-.48-.37-1.09-.32l-17.2 1.39q-.53.05-.89.44l-10.86 11.8a.29.29 0 0 0 .24.49l15.52-1.28q2.45-.21.78 1.61l-10.33 11.21q-.73.8.34.71l15.97-1.31q.35-.03.38.33l.02.26a.39.38-5.1 0 1-.36.42l-15.58 1.27q-1.41.12-.29.99l12.42 9.72q.17.14.11.35l-.08.28q-.16.53-.59.19l-14.03-10.94a1.4 1.4 0 0 0-1-.3l-17.23 1.42a1.42 1.41 19.2 0 0-.94.45L205.6 66.21q-.6.66.29.58l16.22-1.32q.39-.03.42.36l.03.33q.03.26-.23.29l-17.83 1.48a1.35 1.35 0 0 0-.89.43l-11.74 12.75q-.35.38-.35.89l-.02 15.74q0 1.1.74.29 4.96-5.4 10.48-11.34.44-.47.92-.61a.46.46 0 0 1 .59.44l.01 8.94q0 .52.35.91l2.75 3.02q.46.5.92.01 3.69-3.94 7.43-7.96.88-.95 1.25.31a1.11.9-57.6 0 1 .03.25l.02 10.86a.57.57 0 0 0 .62.57l4.15-.36q.52-.04.88-.43l5.35-5.85q1.72-1.89 1.72.67l-.01 7.84q0 .65.44 1.13l2.69 2.91q.46.5.93-.01l7.59-8.23a.54.53 57.8 0 1 .9.21q.26.83.25 1.78-.1 4.93-.05 9.75.01.59.6.54l3.97-.34q.68-.06 1.14-.56l6.04-6.51a.56.56 0 0 1 .97.38l.01 8.96q0 .56.37.97l2.81 3.1a.52.52 0 0 0 .76 0l7.13-7.72q1.67-1.82 1.67.65v10.71a.33.32 87.6 0 0 .35.33l4.36-.38q.57-.05.95-.47l5.24-5.7q1.83-2 1.83.71l-.02 15.23q0 .89.6.24l11.01-11.96q.29-.32.61-.02l.24.22q.18.16.02.34l-11.01 11.96q-.7.77.34.68l15.31-1.26q2.39-.2.76 1.57l-5.35 5.77q-.51.55-.52 1.3l-.01 3.91q0 .65.64.59l10.49-.86q2.37-.19.76 1.56l-7.06 7.64q-.5.54.07.99l3.01 2.38q.55.43 1.26.38l7.75-.65q2.59-.21.83 1.69l-10.41 11.27q-.59.64.28.57l16.29-1.31q.32-.03.32.29v.33q-.01.36-.37.39l-16.43 1.34q-.61.05-.13.42l12.31 9.6q2.06 1.6-.55 1.81l-15.13 1.22q-1.03.08-.21.72l12.68 9.89q.29.24.06.53l-.18.25q-.2.25-.45.06l-12.6-9.85q-.92-.72-.73.43l2.58 15.72q.07.42-.35.49l-.32.05q-.23.04-.27-.19l-2.89-17.46a1.69 1.64 15.4 0 0-.62-1.05l-13.58-10.6q-.4-.32-.92-.28l-16.01 1.29q-.76.06-.16.53l13.03 10.18q.15.12.06.3l-.16.31q-.21.41-.57.13l-14.05-10.95a1.28 1.24 60.7 0 0-.87-.26l-17.28 1.42q-.58.05-.97.48l-10.72 11.64q-.59.65.28.58l15.35-1.26q2.5-.2.8 1.65l-10.47 11.37q-.56.61.26.54l16.24-1.35q.34-.03.35.32l.02.33a.36.36 0 0 1-.34.37l-15.84 1.29q-1.2.1-.25.84l12.63 9.83q.25.2.04.45l-.19.23q-.25.29-.55.06l-13.85-10.8q-.49-.38-1.11-.33l-17.41 1.43a.81.79-70.1 0 0-.54.26l-10.85 11.8q-.63.69.3.61l16.39-1.34a.21.21 0 0 1 .23.19l.02.35q.04.44-.4.48l-17.63 1.45a1.42 1.4 18.4 0 0-.96.47l-11.65 12.66a1.61 1.6-23.9 0 0-.42 1.08l-.02 15.63q0 .19-.19.19h-.25q-.53 0-.53-.52l.01-15.23a1.72 1.69-67 0 0-.46-1.17l-11.62-12.63a1.51 1.47-18.1 0 0-.98-.48l-17.68-1.47a.33.33 0 0 1-.31-.31l-.03-.43q-.02-.29.27-.26l16.49 1.35q.83.07.26-.54l-10.8-11.73q-.36-.39-.89-.43l-17.27-1.42a1.42 1.42 0 0 0-.97.29l-13.91 10.85a.38.38 0 0 1-.53-.05l-.21-.24q-.22-.25.04-.45l12.72-9.9q.86-.67-.23-.76l-15.93-1.3q-.35-.02-.33-.38l.03-.34q.02-.32.35-.29l16.17 1.34q.86.07.28-.56l-10.53-11.43q-1.63-1.77.77-1.58l15.44 1.27q.89.07.29-.59l-10.72-11.63q-.39-.43-.98-.48l-17.12-1.41q-.63-.05-1.13.34l-13.93 10.86q-.34.26-.56-.11l-.14-.22q-.16-.27.09-.47l12.95-10.11q.62-.48-.17-.55l-15.94-1.27q-.56-.05-1 .3l-13.56 10.59q-.5.38-.6 1l-2.89 17.51q-.04.21-.25.19l-.33-.04a.42.41-82.4 0 1-.37-.49l2.61-15.85q.17-1.05-.67-.39l-12.69 9.91q-.25.19-.45-.06l-.19-.25a.38.38 0 0 1 .07-.53l12.68-9.89q.82-.64-.22-.72l-15.21-1.22q-2.54-.2-.53-1.76l12.37-9.64q.5-.39-.13-.44l-16.44-1.33q-.23-.02-.28-.25l-.08-.35q-.1-.45.36-.41l16.44 1.33q.69.05.22-.46l-10.54-11.42q-1.73-1.87.81-1.66l7.91.64a1.52 1.5-61.4 0 0 1.06-.32l3.2-2.52a.54.54 0 0 0 .06-.79l-7.55-8.18q-.41-.44-.03-.91.26-.33.68-.29 5.52.5 11.27.95a.33.33 0 0 0 .36-.34l-.01-4.3q0-.61-.42-1.06l-5.82-6.31a.75.74-63.1 0 1-.19-.59q.1-.67.62-.62 7.83.64 16.22 1.32.82.06.26-.54l-10.99-11.94q-.31-.34.03-.65l.21-.2q.19-.17.36.01l11.12 12.08q.6.65.6-.23l-.02-15.23q0-2.7 1.83-.72l5.25 5.71q.39.42.95.47l4.1.35q.62.06.62-.57l-.02-10.44q-.01-2.49 1.68-.66l7.12 7.74a.53.52-45.7 0 0 .77-.01l2.81-3.1q.38-.42.38-.98l-.01-8.08q-.01-2.36 1.59-.62l5.46 5.95q.4.44.99.48l4 .33q.7.05.7-.64-.02-5.1-.01-10.86 0-.47.35-.78a.55.55 0 0 1 .76.04l7.64 8.28q.4.44.81 0l2.88-3.13a1.22 1.18 66.8 0 0 .31-.81l-.01-8.01q-.01-2.55 1.71-.67l5.22 5.71q.49.54 1.23.6l3.8.32q.76.07.76-.69V92.47q.01-2.51 1.7-.67l7.04 7.64q.43.47.87 0l2.64-2.9a1.92 1.91-24 0 0 .5-1.29v-8.72a.46.46 0 0 1 .58-.44q.46.13.81.5 5.32 5.66 10.59 11.43.75.82.75-.29l-.01-15.72q0-.52-.36-.9L178.4 68.36q-.36-.39-.89-.44l-17.87-1.48q-.21-.02-.19-.22l.02-.28q.04-.5.54-.46l16.37 1.34a.26.26 0 0 0 .21-.43l-11.02-11.97a.98.98 0 0 0-.64-.31l-17.4-1.43q-.56-.05-1.01.3l-14.06 10.97q-.18.14-.32-.04l-.17-.22q-.3-.38.08-.68l12.62-9.88q.81-.63-.21-.71l-16.01-1.3a.37.37 0 0 1-.34-.37v-.35q0-.33.33-.3l16.12 1.32q.99.08.32-.65-4.97-5.47-10.13-10.95-.49-.53-.81-1.18a.57.57 0 0 1 .56-.82l16.08 1.33q.99.08.32-.65l-10.71-11.62q-.36-.39-.89-.43l-17.27-1.41q-.53-.04-.96.28l-13.9 10.85a.5.49-37.7 0 1-.7-.08l-.17-.22q-.14-.18.04-.32l12.88-10.07q.79-.61-.2-.7l-15.58-1.28q-.67-.05-1.2.36L88.7 34.42q-.44.35-.54.91l-2.89 17.53q-.05.32-.36.21l-.35-.13a.39.39 0 0 1-.25-.43l2.57-15.55q.21-1.27-.8-.48l-12.49 9.74q-.34.26-.58-.1l-.14-.22a.34.33-36.2 0 1 .08-.46l12.77-9.95q.77-.6-.2-.68l-15.25-1.25q-2.55-.21-.53-1.78l12.05-9.37q.79-.61-.21-.69l-16.16-1.34q-.27-.02-.24-.29l.03-.4a.32.32 0 0 1 .35-.3l16.12 1.32q.96.08.31-.63L71.51 8.71q-1.63-1.77.77-1.57l7.94.69q.69.06 1.23-.37l3.04-2.41q.5-.39.09-.88L80.96 0zm6.99 7.31a.3.3 0 0 0 .52-.2l-.05-3.97a.3.3 0 0 0-.49-.23l-2.05 1.65a.3.3 0 0 0-.04.44zm204.25-4.4a.3.3 0 0 0-.49.23l-.08 3.96a.3.3 0 0 0 .52.21l2.14-2.29a.3.3 0 0 0-.03-.44zM82.95 7.5a.31.31 0 0 0 .16.56l4.73.37a.31.31 0 0 0 .25-.52l-2.2-2.32a.31.31 0 0 0-.41-.04zm210.97.4a.31.31 0 0 0 .25.52l4.64-.36a.31.31 0 0 0 .17-.56l-2.49-1.94a.31.31 0 0 0-.41.04zM89.7 9.67a.3.3 0 0 0-.2-.1L73.14 8.23a.31.31 0 0 0-.25.52l11.13 12.06a.3.3 0 0 0 .2.1l16.35 1.34a.31.31 0 0 0 .25-.52zm219.39-.89a.33.33 0 0 0-.27-.55l-16.31 1.35a.33.33 0 0 0-.22.1L281.21 21.7a.33.33 0 0 0 .27.55l16.3-1.35a.33.33 0 0 0 .22-.1zM121.45 23.87a.34.34 0 0 0 .22.11l16.26 1.35a.34.34 0 0 0 .28-.57l-11.05-12a.34.34 0 0 0-.22-.11l-16.26-1.35a.34.34 0 0 0-.28.57zm150.17-12.02a.33.33 0 0 0-.27-.55l-16.31 1.38a.33.33 0 0 0-.22.1l-11.14 12.03a.33.33 0 0 0 .27.56l16.35-1.4a.33.33 0 0 0 .22-.1zm-68.49 17.94a.3.3 0 0 0 .08-.21l.03-16.42a.31.31 0 0 0-.54-.21l-11.12 12.08a.3.3 0 0 0-.08.21l-.02 16.39a.31.31 0 0 0 .54.22zm-23.79-16.81a.34.34 0 0 0-.59.23l.04 16.36a.34.34 0 0 0 .09.23l11.06 12.01a.34.34 0 0 0 .59-.23l-.03-16.34a.34.34 0 0 0-.09-.23zm-12.75 4.93a.31.31 0 0 0-.54.21v9.97a.31.31 0 0 0 .28.31l3.98.33a.31.31 0 0 0 .25-.1l2.75-2.92a.31.31 0 0 0 .01-.42zm49.07 10.49a.31.31 0 0 0 .28-.3l.04-10.01a.31.31 0 0 0-.54-.21l-6.75 7.4a.31.31 0 0 0 0 .42l2.74 2.94a.31.31 0 0 0 .25.1zM70.99 32.1a.3.3 0 0 0 .16.53l16.39 1.33a.3.3 0 0 0 .21-.06l12.94-10.12a.3.3 0 0 0-.16-.53l-16.36-1.33a.3.3 0 0 0-.21.06zm223.27 1.79a.33.33 0 0 0 .23.07l16.3-1.32a.33.33 0 0 0 .18-.59L298.06 22a.33.33 0 0 0-.23-.07l-16.29 1.32a.33.33 0 0 0-.17.59zM153.87 22.9a.32.32 0 0 0-.56.22v16.39a.32.32 0 0 0 .08.21l11.07 12.05a.32.32 0 0 0 .55-.22l.02-16.37a.32.32 0 0 0-.08-.21zm23.35 5.12a.31.31 0 0 0 .54-.21l.02-4.67a.31.31 0 0 0-.54-.22l-2.18 2.33a.31.31 0 0 0 0 .43zm27.55-5.1a.31.31 0 0 0-.54.21l-.02 4.67a.31.31 0 0 0 .53.21l2.22-2.32a.31.31 0 0 0 0-.42zm12.3 12.06a.33.33 0 0 0-.09.22l.01 16.32a.33.33 0 0 0 .57.23l11.04-12.03a.33.33 0 0 0 .09-.22l-.01-16.32a.33.33 0 0 0-.57-.23zm-40.6-5.73q.52.05.17-.34l-1.91-2.14q-.48-.53-.99-.02l-1.42 1.43q-.64.64.26.73zm33.02-.31a.38.37 66.7 0 0 .25-.63l-1.48-1.58q-.52-.55-1.01.03l-1.66 1.95q-.46.54.25.49zm-48.13.2q-.47.02-.14.36l3.23 3.39q.52.55.53-.21l.05-2.73q.02-.67-.65-.73-1.52-.13-3.02-.08m55.65 3.61a.31.31 0 0 0 .53.21l3.15-3.37a.31.31 0 0 0-.25-.52l-3.17.19a.31.31 0 0 0-.3.31zM166 32.73a.35.35 0 0 0 .61.24l2.56-2.81a.35.35 0 0 0-.24-.58l-2.47-.14a.35.35 0 0 0-.37.34zm46.92-2.5 2.53 2.77q.51.56.5-.2l-.02-2.78q0-.65-.66-.59l-2.12.2q-.72.07-.23.6m-33.7 18.75 10.33 11.18q.97 1.05.97-.39l-.02-15.36a1.32 1.3 23.5 0 0-.36-.9L178.4 30.79q-.39-.41-.95-.46l-5.97-.5q-.61-.05-1.02.4l-4.01 4.38q-.42.45-.42 1.07l.01 17.16q0 .62.42 1.08l10.63 11.54q.69.74.69-.27l-.01-15.65q0-2.13 1.45-.56m12.22 11.31a.37.37 0 0 0 .64.25l11.47-12.33a.37.37 0 0 1 .64.25l.03 16.81a.37.37 0 0 0 .64.25l11-11.95a.37.37 0 0 0 .1-.25l.01-18.11a.37.37 0 0 0-.1-.25l-4.62-5.02a.37.37 0 0 0-.3-.12l-6.82.55a.37.37 0 0 0-.24.12l-12.26 13.27a.37.37 0 0 0-.1.25zm-38.86-19.9a.3.3 0 0 0-.2-.1l-16.37-1.34a.31.31 0 0 0-.25.51l11.16 12.05a.3.3 0 0 0 .2.1l16.36 1.34a.31.31 0 0 0 .25-.51zm93.64-.93a.3.3 0 0 0-.25-.51l-16.38 1.36a.3.3 0 0 0-.2.1l-11.14 12.06a.3.3 0 0 0 .25.51l16.36-1.35a.3.3 0 0 0 .2-.1zm-54.74 39.68a.24.24 0 0 1-.24.24l-.47.01a.24.24 0 0 1-.24-.24l-.05-16.38a.24.24 0 0 0-.06-.16l-11.24-12.22a.24.24 0 0 0-.42.17l.03 16.67a.24.24 0 0 0 .06.16l11.97 12.95a.24.24 0 0 0 .36 0l11.97-12.94a.24.24 0 0 0 .06-.16l.05-16.7a.24.24 0 0 0-.42-.16l-11.25 12.23a.24.24 0 0 0-.06.16zm-12.21 8.94a.3.3 0 0 0-.52.2l.04 16.46a.3.3 0 0 0 .08.21L190 117.06a.3.3 0 0 0 .52-.2l-.03-16.45a.3.3 0 0 0-.08-.21zm23.87 16.86a.3.3 0 0 0 .08-.21l.01-16.43a.3.3 0 0 0-.52-.2l-11.12 12.09a.3.3 0 0 0-.08.21v16.41a.3.3 0 0 0 .52.2zm-36.55-11.9a.32.32 0 0 0-.56.22l.03 9.99a.32.32 0 0 0 .29.32l3.96.35a.32.32 0 0 0 .27-.1l2.71-2.93a.32.32 0 0 0 0-.43zm49.07 10.53a.32.32 0 0 0 .29-.31l.02-9.94a.32.32 0 0 0-.56-.22l-6.7 7.32a.32.32 0 0 0 0 .44l2.68 2.95a.32.32 0 0 0 .27.11zm-61.79-5.48a.32.32 0 0 0-.56.21v16.37a.32.32 0 0 0 .08.21l3.77 4.09a.32.32 0 0 0 .48 0l7.49-8.17a.32.32 0 0 0 0-.44zm23.33 5.13a.31.31 0 0 0 .54-.2l.06-4.75a.31.31 0 0 0-.54-.22l-2.18 2.35a.31.31 0 0 0 0 .42zm27.56-5.18a.31.31 0 0 0-.54.2l.01 4.8a.31.31 0 0 0 .54.21l2.14-2.41a.31.31 0 0 0 0-.41zm23.85 16.86a.3.3 0 0 0 .08-.21l.01-16.42a.31.31 0 0 0-.54-.21l-11.3 12.32a.31.31 0 0 0 0 .42l7.54 8.18a.31.31 0 0 0 .46 0zm-56.4-11.45a.35.35 0 0 0 .21.6l3.74.39a.35.35 0 0 0 .3-.58l-1.99-2.19a.35.35 0 0 0-.51-.01zm33.99.92 3.1-.27q.97-.08.3-.78l-1.37-1.43q-.48-.5-.95.03l-1.47 1.67q-.77.88.39.78m-65.1-1.34a.31.31 0 0 0-.54.21l.01 9.98a.31.31 0 0 0 .29.31l3.99.31a.31.31 0 0 0 .25-.1l2.75-2.93a.31.31 0 0 0 .01-.42zm100.04 10.49a.3.3 0 0 0 .28-.3l.02-10a.3.3 0 0 0-.52-.2l-6.76 7.38a.3.3 0 0 0 0 .4l2.74 2.95a.3.3 0 0 0 .25.1zm-24.11-5.6a.31.31 0 0 0 .54.21l3.12-3.45a.31.31 0 0 0-.26-.52l-3.15.29a.31.31 0 0 0-.28.31zm-55.41-3.73a.31.31 0 0 0-.26.52l3.09 3.43a.31.31 0 0 0 .54-.21l.05-3.15a.31.31 0 0 0-.28-.31zm4.38 4.05a.21.21 0 0 0 .37.15l2.66-2.91q.64-.7-.31-.75l-1.91-.1q-.72-.03-.74.69zm49.97-.2-.04-2.72q-.01-.82-.82-.73l-1.85.2q-.83.09-.27.71l2.49 2.73q.5.56.49-.19m-44.46 15.16.03.39q.03.28-.25.31l-4.58.43a.72.71-2.6 0 0-.65.71l-.04 2.89q0 .7.47 1.22l10.6 11.47q.66.72.67-.26.03-7.65.01-16.12 0-.79.91-.47a1.2 1.2 0 0 1 .48.32l10.47 11.36q.89.97.89-.35l-.02-15.51q0-.5-.34-.87l-11.65-12.65q-.49-.53-1.21-.59l-5.72-.47q-.73-.06-1.22.48l-3.84 4.27q-.48.52-.48 1.23v11.71q0 .66.66.6l4.49-.36q.29-.03.32.26m39.1-.28 4.69.39q.66.05.66-.61v-11.95q0-.5-.34-.87l-4.05-4.44a1.32 1.3-22.7 0 0-1.05-.42l-6.03.48q-.5.04-.85.41l-11.71 12.73a1.55 1.54-23.3 0 0-.43 1.07l-.01 15.56q0 1.13.77.3l10.34-11.21q1.63-1.77 1.63.63l-.01 15.24q-.01 1.16.79.3l10.49-11.38q.47-.52.47-1.22l-.02-2.87q0-.64-.65-.71l-4.59-.49q-.18-.02-.23-.2l-.12-.43a.25.24 84 0 1 .25-.31m-82.2-14.88a.35.35 0 0 0-.61.24l.08 16.61a.35.35 0 0 0 .32.35l10.99.93a.35.35 0 0 0 .38-.35v-5.48a.35.35 0 0 0-.09-.24zm23.38 5.1a.31.31 0 0 0 .53-.22l-.04-4.7a.31.31 0 0 0-.54-.2l-2.14 2.37a.31.31 0 0 0 .01.41zm78.46-5.1a.31.31 0 0 0-.54.2l-.05 4.65a.31.31 0 0 0 .53.22l2.22-2.3a.31.31 0 0 0 .01-.42zm23.57 17.21a.34.34 0 0 0 .31-.34l.06-16.64a.34.34 0 0 0-.59-.23l-11.09 12.07a.34.34 0 0 0-.09.23l.02 5.49a.34.34 0 0 0 .37.34zm-107.11-11.84a.35.35 0 0 0 .22.59l3.76.35a.35.35 0 0 0 .28-.59l-2.02-2.14a.35.35 0 0 0-.5-.01zm84.31.33a.35.35 0 0 0 .29.59l3.74-.34a.35.35 0 0 0 .21-.6l-1.72-1.75a.35.35 0 0 0-.5 0zm-115.34-.76a.35.35 0 0 0-.61.23l.05 9.93a.35.35 0 0 0 .32.34l3.92.3a.35.35 0 0 0 .28-.11l2.71-2.86a.35.35 0 0 0 0-.48zm49.04 10.48a.34.34 0 0 0 .31-.34l.01-9.88a.34.34 0 0 0-.59-.23l-6.17 6.76a.34.34 0 0 0 0 .46l3.14 3.4a.34.34 0 0 0 .28.1zM217.53 113a.33.33 0 0 0-.57.22l.01 9.94a.33.33 0 0 0 .31.33l3.08.2a.33.33 0 0 0 .27-.11l3.1-3.37a.33.33 0 0 0 0-.44zm49.02 10.48a.34.34 0 0 0 .31-.33l.1-9.96a.34.34 0 0 0-.59-.23l-6.73 7.35a.34.34 0 0 0 0 .46l2.69 2.91a.34.34 0 0 0 .27.11zm-130.48-9.36a.31.31 0 0 0-.25.52l3.25 3.48a.31.31 0 0 0 .53-.22l-.06-3.19a.31.31 0 0 0-.28-.31zm106.34 3.79a.31.31 0 0 0 .54.22l3.27-3.56a.31.31 0 0 0-.26-.52l-3.19.35a.31.31 0 0 0-.28.3zm-101.89-.08a.35.35 0 0 0 .61.24l2.62-2.8a.35.35 0 0 0-.24-.59l-2.55-.11a.35.35 0 0 0-.36.35zm98.06-3.1a.35.35 0 0 0-.23.58l2.53 2.8a.35.35 0 0 0 .61-.24l-.09-2.99a.35.35 0 0 0-.38-.34zm-92.59.21q-.56-.05-.94.37l-3.91 4.27a.6.59-46.1 0 0 .01.82q2.38 2.52 4.84 5.33c2.41 2.76 6.49.89 6.38-2.57q-.13-3.69-.06-6.89.02-.77-.75-.84zm90.04.01-5.75.46q-.58.05-.58.63.02 3.35-.05 7.31c-.07 3.52 4.08 4.93 6.35 2.38q2.6-2.92 4.91-5.37a.53.52-44.6 0 0 .01-.72l-3.96-4.32q-.37-.41-.93-.37m-82.11 1.98a.34.34 0 0 0-.59.22l-.02 5.63a.34.34 0 0 0 .59.23l2.54-2.81a.34.34 0 0 0 .01-.45zm74.16 6.05a.34.34 0 0 0 .59-.23l.02-5.55a.34.34 0 0 0-.59-.23l-2.56 2.76a.34.34 0 0 0 0 .46zm-114.54 23.85a.32.32 0 0 0 .56-.21l-.01-16.38a.32.32 0 0 0-.08-.21l-11.09-12.06a.32.32 0 0 0-.56.21l.02 16.38a.32.32 0 0 0 .08.21zm12.72-23.75a.31.31 0 0 0 .54-.2l.05-4.72a.31.31 0 0 0-.54-.22l-2.16 2.34a.31.31 0 0 0-.01.42zm129.44-5.13a.31.31 0 0 0-.54.21l.02 4.71a.31.31 0 0 0 .54.21l2.14-2.37a.31.31 0 0 0 0-.42zm12.3 12.07a.33.33 0 0 0-.09.22v16.35a.33.33 0 0 0 .57.23l11.06-12.04a.33.33 0 0 0 .09-.22v-16.34a.33.33 0 0 0-.57-.23zm-112.94-5.77 4.33-.32q.89-.06.29-.71l-1.77-1.89q-.55-.59-1.09 0l-2.08 2.25q-.68.74.32.67m67.11-.92a.33.33 0 0 0 .21.56l4.83.42a.33.33 0 0 0 .26-.56l-2.63-2.71a.33.33 0 0 0-.48.01zm-100.98.02a.35.35 0 0 0 .2.61l3.78.29a.35.35 0 0 0 .29-.58l-1.74-2.04a.35.35 0 0 0-.5-.04zm135.1.63a.2.2 0 0 0 .17.34l3.93-.38q.83-.08.25-.67l-1.46-1.5q-.49-.5-.95.02zm-111.59 2.66a.34.34 0 0 0 .28-.57l-3.82-4.19a.34.34 0 0 0-.59.22l-.02 3.86a.34.34 0 0 0 .31.34zm96.7-4.5a.34.34 0 0 0-.59-.22l-3.78 4.13a.34.34 0 0 0 .28.57l3.81-.31a.34.34 0 0 0 .32-.34zm-130.75 1.96a.31.31 0 0 0-.25.52l3.16 3.4a.31.31 0 0 0 .53-.21l.02-3.18a.31.31 0 0 0-.29-.31zm157.25 3.75a.31.31 0 0 0 .54.21l3.2-3.45a.31.31 0 0 0-.25-.52l-3.19.25a.31.31 0 0 0-.29.31zm-151.96-.17 2.17-2.31q.64-.68-.3-.73l-2.07-.12q-.71-.04-.63.67.13 1.06-.08 2.02-.41 1.87.91.47m48.44-.81q.41.45.52-.16l.23-1.36q.16-.94-.8-.86l-1.05.09q-.92.08-.3.76zm54.9-1.81a.28.27 26.8 0 0-.15-.45q-.83-.18-1.63-.02-.68.14-.59.83l.13 1.08q.1.91.72.24zm47.24 3.13a.24.24 0 0 0 .41-.17l-.06-2.99a.54.54 0 0 0-.59-.53l-2.08.17q-.88.08-.28.73zm-113.26-2.79a.34.34 0 0 0-.21.1l-1.16 1.13a.34.34 0 0 0 .2.58l11.4.96a.34.34 0 0 0 .28-.58l-2.52-2.65a.34.34 0 0 0-.27-.11zm76.58 1.82a.34.34 0 0 0 .21-.57l-1.06-1.13a.34.34 0 0 0-.22-.1l-7.69-.62a.34.34 0 0 0-.27.11l-2.6 2.69a.34.34 0 0 0 .27.57zM132.01 139l-.19-.26q-.17-.22.05-.4l3.91-3.11a.23.23 0 0 0 .03-.34l-8.34-9.03q-.39-.42-.96-.47l-6.01-.5q-.58-.05-.98.39l-4.03 4.45q-.39.43-.39 1.01l-.01 17.29a1.22 1.21 24.1 0 0 .32.82l10.76 11.69q.66.72.66-.26v-16.23a.5.5 0 0 1 .68-.47q.51.2.87.59 5.14 5.53 10.3 11.14.89.96.89-.35l-.01-15.46q0-.56-.38-.97l-2.08-2.22q-.44-.47-.94-.08l-3.63 2.83q-.29.23-.52-.06m117.47.07-3.63-2.83q-.49-.38-.93.07l-2.14 2.25q-.38.4-.37.95.06 7.62.01 15.27 0 .1-.05.19-.06.11-.15.21-.15.16 0 .33.14.16.32.2.35.07.59-.19l10.35-11.22q1.69-1.83 1.68.66v15.34q0 .96.65.25l10.7-11.61q.39-.42.39-.99v-17.22q0-.59-.39-1.02l-3.89-4.26q-.54-.59-1.33-.52l-5.82.46q-.56.04-.93.45l-8.12 8.8q-.41.45.07.83l3.6 2.81q.23.18.08.43l-.16.26a.36.35-55.4 0 1-.53.1m-70.18-13.42a.34.34 0 0 0-.59.23l.05 16.38a.34.34 0 0 0 .09.23l11.06 12.01a.34.34 0 0 0 .59-.23l-.03-16.34a.34.34 0 0 0-.09-.23zm23.85 16.87a.3.3 0 0 0 .08-.21l.05-16.45a.31.31 0 0 0-.54-.21l-11.14 12.1a.3.3 0 0 0-.08.21l-.01 16.4a.31.31 0 0 0 .54.21zm-63.57-15.04a.3.3 0 0 0-.28-.3l-9.22-.77a.3.3 0 0 0-.25.51l6.77 7.34a.3.3 0 0 0 .41.03l2.44-1.9a.3.3 0 0 0 .11-.24zm112.64-.54a.32.32 0 0 0-.27-.54l-9.21.78a.32.32 0 0 0-.29.31l-.01 4.65a.32.32 0 0 0 .12.26l2.42 1.88a.32.32 0 0 0 .43-.03zm-111.68 3.9a.33.33 0 0 0 .53.27l3.73-2.91a.33.33 0 0 0-.18-.59l-3.67-.29a.33.33 0 0 0-.36.32zm96.86-3.21a.33.33 0 0 0-.18.59l3.7 2.89a.33.33 0 0 0 .53-.26l-.04-3.23a.33.33 0 0 0-.37-.33zm-96.62 5.01a.4.4 0 0 0-.16.31l-.09 3.53a.4.4 0 0 0 .69.28l7.59-8.21a.4.4 0 0 0-.32-.67l-1.65.09a.4.4 0 0 0-.23.09zm100.08 4.2a.34.34 0 0 0 .59-.24l-.06-3.67a.34.34 0 0 0-.13-.26l-6.08-4.74a.34.34 0 0 0-.22-.07l-1.61.06a.34.34 0 0 0-.24.57zm-18.32 4.35q.04.41-.37.44l-17.65 1.47q-.55.04-.93.46l-11.67 12.65a1.56 1.54-23.8 0 0-.42 1.06l-.01 15.57a.45.45 0 0 1-.45.45l-.31.01a.22.22 0 0 1-.22-.22l-.01-15.81a1.56 1.54 23.8 0 0-.42-1.06l-11.66-12.65q-.38-.41-.94-.46l-17.84-1.49q-.22-.01-.21-.24l.03-.26a.5.5 0 0 1 .54-.46l15.96 1.3q1.07.09.35-.7l-10.63-11.51q-.39-.43-.98-.48l-13.59-1.11q-.55-.05-.92.36l-9.22 10.04q-.39.42-.39.99l-.02 15.48q0 1.26.85.33l10.87-11.76a.3.29-48.7 0 1 .4-.03l.21.18q.34.28.04.61l-11.96 12.98q-.39.42-.39 1l-.01 17.29a1.43 1.4 24.1 0 0 .38.96l10.89 11.81q.49.53.49-.19l-.03-15.71q0-2.39 1.62-.63l5.46 5.93q.4.44.99.49l3.93.31q.72.06.72-.66l.02-10.44q0-2.36 1.6-.62l7.03 7.65q.53.57 1.05 0l2.57-2.82q.49-.54.49-1.26v-8.5q0-.96.87-.57.48.21.85.62 5.02 5.57 9.96 10.83a2.13 2.13 0 0 0 3.12-.01l10.21-11.08q1.44-1.56 1.44.56l-.01 8.16a1.85 1.81-66.5 0 0 .47 1.23l2.58 2.83q.53.58 1.07 0l7.02-7.64q1.6-1.75 1.6.62l.02 10.45q0 .71.71.65l3.94-.32q.6-.04 1-.48l5.31-5.78q1.76-1.92 1.76.69l-.02 15.32q0 .89.6.24l10.76-11.67a1.48 1.46 66.8 0 0 .39-1l-.01-17.27q0-.57-.39-.99l-11.96-12.99q-.3-.33.05-.61l.21-.17q.21-.17.39.03l10.73 11.61q.99 1.07.98-.38l-.01-15.28q0-.57-.39-.99l-9.22-10.04q-.37-.41-.93-.36l-13.57 1.11q-.59.05-1 .48l-10.61 11.5q-.73.8.34.71l16.22-1.31q.24-.02.26.22zm19.81-4.63a.27.27 0 0 0 .39.26q.72-.35 1.27-.93.53-.54-.04-1.05l-.78-.69q-.66-.58-.71.3zm-140.66-1.08a.34.34 0 0 0-.22-.11l-16.28-1.35a.34.34 0 0 0-.28.57L96 146.57a.34.34 0 0 0 .22.11l16.27 1.35a.34.34 0 0 0 .28-.57zm37.54 1.29q.39.16.38-.26l-.03-1.94q-.01-.95-.78-.38l-.67.49q-.76.56-.12 1.26.52.56 1.22.83m157.88-2.23a.31.31 0 0 0-.25-.51l-16.36 1.34a.3.3 0 0 0-.2.1l-11.12 12.05a.31.31 0 0 0 .25.51l16.35-1.34a.3.3 0 0 0 .2-.1zm-203.3 11.94a.31.31 0 0 0 .25-.52l-3.15-3.42a.31.31 0 0 0-.54.21v3.17a.31.31 0 0 0 .28.3zm197.81-3.71a.31.31 0 0 0-.54-.21l-3.17 3.39a.31.31 0 0 0 .25.52l3.18-.2a.31.31 0 0 0 .29-.31zm-163.26 2.78a.32.32 0 0 0-.56.22l.04 16.43a.32.32 0 0 0 .08.21l11.1 12.08a.32.32 0 0 0 .56-.21l-.04-16.42a.32.32 0 0 0-.08-.21zm114.18 12.12a.32.32 0 0 0-.08.21l-.05 16.42a.32.32 0 0 0 .56.22l11.09-12.09a.32.32 0 0 0 .08-.21l.07-16.45a.32.32 0 0 0-.56-.22zM89.37 147.46a.32.32 0 0 0-.29-.32l-9.91-.85a.32.32 0 0 0-.26.54l6.75 7.29a.32.32 0 0 0 .43.04l3.16-2.45a.32.32 0 0 0 .12-.26zm213.74-.65a.33.33 0 0 0-.27-.55l-9.91.87a.33.33 0 0 0-.3.33l.01 3.99a.33.33 0 0 0 .13.26l3.14 2.45a.33.33 0 0 0 .45-.03zm-212.7 3.37a.35.35 0 0 0 .58.28l2.78-2.41a.35.35 0 0 0-.19-.61l-2.66-.27a.35.35 0 0 0-.39.34zm198.07-2.64a.35.35 0 0 0-.18.62l2.76 2.3a.35.35 0 0 0 .58-.28l-.12-2.67a.35.35 0 0 0-.4-.34zM109.5 160.56l15.7 1.3a.35.35 0 0 0 .28-.59l-10.74-11.67q-.38-.41-.93-.45l-17.27-1.41q-.55-.04-.98.3L91 151.61q-.62.5-.63 1.29l-.01 5.35q0 .99.67 1.72l11.38 12.36q.43.47 1.08.53l15.66 1.27a.37.37 0 0 0 .31-.62l-10.65-11.54q-1.46-1.59.69-1.41m164.07.7q-.04.31-.25.54-5.2 5.72-10.72 11.65-.71.76.33.67l15.6-1.27a1.63 1.61 18.8 0 0 1.07-.52l11.65-12.64q.39-.42.38-1v-5.9q0-.68-.53-1.1l-4.68-3.66q-.43-.33-.97-.29l-17.24 1.4q-.56.05-.94.46l-10.76 11.68a.34.34 0 0 0 .28.57l16.08-1.31a.65.65 0 0 1 .7.72m-184.68-3.55a.3.3 0 0 0 .52-.2l-.04-3.98a.3.3 0 0 0-.49-.23l-2.06 1.59a.3.3 0 0 0-.04.44zm204.25-4.51a.3.3 0 0 0-.49.23l-.08 4.06a.3.3 0 0 0 .52.21l2.12-2.35a.3.3 0 0 0-.03-.43zM83 157.85a.31.31 0 0 0 .17.55l4.63.37a.31.31 0 0 0 .25-.52l-2.14-2.34a.31.31 0 0 0-.42-.04zm210.89.4a.31.31 0 0 0 .25.52l4.68-.34a.31.31 0 0 0 .17-.55l-2.49-1.98a.31.31 0 0 0-.42.03zm-209.91 12.9a.33.33 0 0 0 .22.1l16.29 1.36a.33.33 0 0 0 .27-.55l-11.07-12.03a.33.33 0 0 0-.22-.1l-16.29-1.36a.33.33 0 0 0-.27.55zm197.24.93a.32.32 0 0 0 .26.53l16.33-1.36a.32.32 0 0 0 .2-.1l11.1-12.05a.32.32 0 0 0-.26-.53l-16.33 1.36a.32.32 0 0 0-.2.1zm-159.72 2.16a.3.3 0 0 0 .2.1l16.36 1.35a.31.31 0 0 0 .25-.51l-11.13-12.06a.3.3 0 0 0-.2-.1l-16.36-1.36a.31.31 0 0 0-.25.52zm122.22.9a.34.34 0 0 0 .27.57l16.31-1.38a.34.34 0 0 0 .22-.11l11.11-12.02a.34.34 0 0 0-.27-.57l-16.31 1.4a.34.34 0 0 0-.22.11zm-40.59 5a.3.3 0 0 0 .08-.21l.05-16.46a.31.31 0 0 0-.54-.21l-11.13 12.12a.3.3 0 0 0-.08.21l-.04 16.41a.31.31 0 0 0 .54.21zm-23.85-16.88a.31.31 0 0 0-.54.21l.06 16.47a.3.3 0 0 0 .08.21l11.14 12.13a.31.31 0 0 0 .54-.21l-.07-16.47a.3.3 0 0 0-.08-.21zm-12.69 4.97a.31.31 0 0 0-.54.2v10a.31.31 0 0 0 .28.31l3.98.34a.31.31 0 0 0 .25-.1l2.74-2.92a.31.31 0 0 0 0-.42zm49.09 10.5a.31.31 0 0 0 .28-.3l.01-9.99a.31.31 0 0 0-.54-.21l-6.72 7.39a.31.31 0 0 0 0 .42l2.73 2.94a.31.31 0 0 0 .25.1zm-144.7 3.68a.31.31 0 0 0 .16.56l16.34 1.35a.3.3 0 0 0 .22-.06l12.93-10.07a.31.31 0 0 0-.16-.56l-16.34-1.35a.3.3 0 0 0-.22.06zm227.17-10.05a.3.3 0 0 0-.22-.06l-16.36 1.33a.31.31 0 0 0-.16.55l12.93 10.08a.3.3 0 0 0 .22.06l16.36-1.33a.31.31 0 0 0 .16-.55zm-144.3.89a.31.31 0 0 0-.54.21v16.39a.3.3 0 0 0 .08.21l11.09 12.05a.31.31 0 0 0 .54-.2v-16.39a.3.3 0 0 0-.08-.21zm23.31 5.11a.31.31 0 0 0 .54-.2l.12-4.67a.31.31 0 0 0-.53-.23l-2.24 2.28a.31.31 0 0 0-.01.43zm27.58-5.12a.31.31 0 0 0-.54.21l.04 4.78a.31.31 0 0 0 .55.2l2.15-2.41a.31.31 0 0 0-.01-.41zm23.86 16.82a.33.33 0 0 0 .09-.22l.01-16.34a.33.33 0 0 0-.57-.23l-11.06 12.04a.33.33 0 0 0-.09.22v16.33a.33.33 0 0 0 .57.23zm-56.41-11.39a.35.35 0 0 0 .23.59l3.77.34a.35.35 0 0 0 .29-.58l-2.06-2.18a.35.35 0 0 0-.5 0zm33.26.45a.3.3 0 0 0 .25.5l3.93-.37a.3.3 0 0 0 .19-.5l-1.76-1.93a.3.3 0 0 0-.44 0zm-43.87.2a.31.31 0 0 0-.26.52l3.14 3.48a.31.31 0 0 0 .54-.2l.02-3.18a.31.31 0 0 0-.28-.31zm55.45 3.79a.31.31 0 0 0 .54.2l3.11-3.46a.31.31 0 0 0-.26-.51l-3.15.29a.31.31 0 0 0-.28.31zm-50.97.25a.21.21 0 0 0 .37.14l2.57-2.8q.62-.67-.29-.74l-2.06-.17q-.61-.05-.6.56zm49.41.02q.5.54.5-.2l-.03-2.87q-.01-.63-.63-.56l-2.03.22q-.87.09-.28.73zm-37.69 32.07-.01-15.43q-.01-2.28 1.54-.6l10.52 11.41q.69.75.69-.27l-.02-15.58a1.87 1.84-66.7 0 0-.49-1.26l-11.64-12.62q-.36-.39-.89-.43l-6.04-.48q-.57-.05-.95.37l-4.05 4.4a1.58 1.54-24.3 0 0-.41 1.05l.01 17q0 .81.56 1.41l10.43 11.32q.76.82.75-.29m26.19-16.2q.28.52.27 1.17-.08 7.16 0 15.06.01 1.04.72.28l10.6-11.48q.4-.44.4-1.04l.01-17.23a1.58 1.54 24.3 0 0-.41-1.05l-3.99-4.33q-.44-.49-1.1-.44l-5.95.49q-.53.04-.89.43l-11.64 12.63q-.5.53-.5 1.26l.01 15.51q0 .82.58.24 5.14-5.16 10.82-11.61.62-.7 1.07.11m-51.31-8.49a.3.3 0 0 0-.2-.1l-16.35-1.34a.31.31 0 0 0-.25.51l11.11 12.06a.3.3 0 0 0 .2.1l16.34 1.35a.31.31 0 0 0 .25-.51zm65.57 12.03a.35.35 0 0 0 .29.58l16.29-1.39a.35.35 0 0 0 .23-.11l11.1-11.99a.35.35 0 0 0-.29-.58l-16.28 1.38a.35.35 0 0 0-.23.11zm-15.1 14.94a.3.3 0 0 0 .08-.21l.03-16.42a.31.31 0 0 0-.54-.21l-11.11 12.08a.3.3 0 0 0-.08.21l-.03 16.4a.31.31 0 0 0 .54.21zm-23.81-16.81a.33.33 0 0 0-.57.23l.04 16.35a.33.33 0 0 0 .09.22l11.08 12.03a.33.33 0 0 0 .57-.23l-.03-16.35a.33.33 0 0 0-.09-.22z"/><path fill="#f9a502" fill-opacity=".996" d="M191.5 382h-.95l-.09-18.14a1.31 1.28-66.8 0 0-.34-.88L178 349.8q-.14-.16.02-.31l.19-.18q.36-.33.7.03l10.8 11.71q.83.89.83-.32l-.01-15.48q0-.63-.43-1.09l-11.83-12.85a.81.79 70.1 0 0-.54-.26l-17.77-1.47a.53.53 0 0 1-.49-.57l.02-.26q.02-.19.21-.18l16.29 1.31q1.06.09.33-.69l-10.9-11.8q-.37-.4.12-.64l.3-.15a.23.22 54.3 0 1 .27.05l10.95 11.86q.74.8.74-.29l-.01-15.24q0-2.46 1.66-.65l10.27 11.14q.81.89.81-.32l-.02-15.51a1.58 1.57-66.2 0 0-.41-1.06l-11.69-12.69q-.36-.39-.89-.44l-17.67-1.47a.4.4 0 0 1-.37-.43l.02-.34a.25.25 0 0 1 .27-.23l16.47 1.34q.78.07.25-.51l-10.8-11.74q-.38-.41-.94-.46l-17-1.39a2.02 1.98-61.3 0 0-1.42.43l-13.72 10.7q-.28.23-.51-.06l-.21-.26q-.19-.25.06-.45l12.76-9.92q.8-.62-.21-.71l-16-1.31a.4.4 0 0 1-.37-.42l.01-.31q.02-.31.33-.28l16.22 1.32q.9.08.28-.59l-10.34-11.2q-1.8-1.95.84-1.73l15.02 1.23q1.08.09.34-.71l-10.93-11.88a.39.38 51.4 0 1 .06-.58l.27-.18a.29.28 50.1 0 1 .36.04l11.21 12.16q.56.6.55-.22-.06-8.46.01-16.2 0-.41.33-.64a.59.58 50.9 0 1 .77.08l5.96 6.46q.38.41.94.46l4.12.33a.51.51 0 0 0 .56-.51l.01-10.46q0-2.51 1.7-.66l6.96 7.57q.48.51.95.01l2.7-2.89a1.63 1.59 67 0 0 .43-1.1v-8.21q0-2.18 1.47-.58l9.96 10.81a2.45 2.45 0 0 0 3.62-.02q5.26-5.8 10.04-10.86.37-.39.9-.49a.4.39 85.1 0 1 .46.39l.01 8.92a1.74 1.73-66.8 0 0 .47 1.19l2.59 2.77q.53.58 1.06 0l7.43-8.08a.6.59-62.6 0 1 .56-.18q.6.13.6.59.04 5.87.02 11.09 0 .73.73.68l3.8-.28q.69-.05 1.17-.57l5.84-6.34q.52-.56.97.06.2.28.2.61.04 7.98 0 16.07-.01.78.52.21l11.22-12.16a.28.28 0 0 1 .34-.05l.27.14a.39.39 0 0 1 .11.6l-10.97 11.91q-.73.79.35.71l15.2-1.26q2.47-.2.79 1.62l-10.48 11.35q-.6.65.28.58l16.21-1.33q.31-.03.32.28l.02.32a.39.39 0 0 1-.36.41l-16 1.32q-1 .08-.21.7l12.8 9.95a.34.33 38 0 1 .06.48l-.21.26q-.21.26-.47.06l-13.74-10.73a2.19 2.18-28.3 0 0-1.52-.45l-16.95 1.38q-.56.05-.93.46l-10.84 11.79a.28.28 0 0 0 .23.47l16.52-1.34q.26-.03.28.24l.02.28a.45.45 0 0 1-.41.48l-17.64 1.46q-.53.05-.88.43l-11.76 12.77q-.34.37-.34.88l-.02 15.6q-.01 1.17.8.32 4.65-4.96 9.95-10.81.59-.65 1.34-1.01a.45.45 0 0 1 .65.41v16.19q0 1.07.73.28l10.84-11.75a.43.43 0 0 1 .6-.03l.2.18q.23.21.01.45l-10.93 11.84q-.72.78.34.69l16.28-1.32q.2-.02.22.18l.03.35q.04.44-.4.48l-17.62 1.45a1.49 1.43 17.8 0 0-.96.47l-11.31 12.29q-.77.84-.77 1.98l-.01 14.97q0 1.19.81.32l10.99-11.9a.24.23 42.5 0 1 .34-.01l.24.22a.42.41 42.5 0 1 .03.58l-11.97 13q-.36.39-.36.9zm-.01-114.86a.24.24 0 0 1-.24.24l-.48-.01a.24.24 0 0 1-.24-.24l-.03-16.4a.24.24 0 0 0-.06-.16l-11.26-12.24a.24.24 0 0 0-.42.17l.04 16.67a.24.24 0 0 0 .06.16l11.97 12.94a.24.24 0 0 0 .36 0l11.96-12.94a.24.24 0 0 0 .06-.16l.04-16.68a.24.24 0 0 0-.42-.16l-11.26 12.25a.24.24 0 0 0-.06.16zm-24.9-23.74a.31.31 0 0 0-.54.21l-.01 9.99a.31.31 0 0 0 .28.3l3.99.35a.31.31 0 0 0 .25-.1l2.74-2.93a.31.31 0 0 0 0-.42zm49.08 10.52a.3.3 0 0 0 .28-.3l.03-10.02a.3.3 0 0 0-.52-.2l-6.76 7.41a.3.3 0 0 0 0 .41l2.75 2.93a.3.3 0 0 0 .24.09zm-61.82-5.5a.31.31 0 0 0-.54.21v16.4a.3.3 0 0 0 .08.21l11.08 12.06a.31.31 0 0 0 .54-.21l.02-16.39a.3.3 0 0 0-.08-.21zm23.35 5.1a.31.31 0 0 0 .54-.21l.05-4.64a.31.31 0 0 0-.53-.22l-2.24 2.3a.31.31 0 0 0 0 .43zm27.56-5.05a.31.31 0 0 0-.53.22l-.02 4.66a.31.31 0 0 0 .54.21l2.21-2.32a.31.31 0 0 0 0-.43zm23.85 16.77a.3.3 0 0 0 .08-.21l.01-16.4a.31.31 0 0 0-.54-.21l-11.1 12.07a.3.3 0 0 0-.08.21v16.41a.31.31 0 0 0 .54.21zm-56.46-11.3a.3.3 0 0 0 .19.5l3.95.35a.3.3 0 0 0 .25-.5l-2.14-2.31a.3.3 0 0 0-.44 0zm33.23.48a.19.19 0 0 0 .15.31l3.73-.23q1.07-.07.34-.86l-1.19-1.27q-.63-.67-1.24.02zm-43.78.12a.31.31 0 0 0-.25.52l3.12 3.42a.31.31 0 0 0 .54-.21l.03-3.16a.31.31 0 0 0-.28-.31zm55.43 3.74a.31.31 0 0 0 .54.2l3.09-3.4a.31.31 0 0 0-.26-.52l-3.16.23a.31.31 0 0 0-.29.31zm-50.97.03a.35.35 0 0 0 .62.22l2.49-2.92a.35.35 0 0 0-.26-.58l-2.53-.03a.35.35 0 0 0-.36.36zm47.01-3.34a.35.35 0 0 0-.27.58l2.57 2.97a.35.35 0 0 0 .62-.24l-.04-2.93a.35.35 0 0 0-.34-.34zm-34.21 19.13 10.81 11.73q.85.92.84-.33l-.02-15.48q0-.62-.42-1.07l-11.73-12.71q-.31-.34-.78-.38l-6.08-.5a1.24 1.23 23.2 0 0-.99.39l-4.06 4.41q-.39.42-.39 1v17.3q0 .5.34.86l10.72 11.67q.68.73.68-.26v-16.21a.62.62 0 0 1 1.08-.42m12.63 11.8a.32.32 0 0 0 .56.22l11.59-12.49a.32.32 0 0 1 .55.22l.06 17.02a.32.32 0 0 0 .55.22l11.09-12.02a.32.32 0 0 0 .08-.22l-.01-18.17a.32.32 0 0 0-.09-.22l-4.63-5.02a.32.32 0 0 0-.26-.1l-6.84.53a.32.32 0 0 0-.22.1l-12.33 13.36a.32.32 0 0 0-.08.21zm-38.89-19.99a.3.3 0 0 0-.2-.1l-16.37-1.36a.3.3 0 0 0-.25.51l11.13 12.08a.3.3 0 0 0 .2.1l16.36 1.36a.3.3 0 0 0 .25-.51zm65.65 12.06a.33.33 0 0 0 .27.55l16.32-1.37a.33.33 0 0 0 .22-.1L246.18 265a.33.33 0 0 0-.27-.55l-16.33 1.39a.33.33 0 0 0-.22.1zm-38.96-1.93a.31.31 0 0 0-.54.21l.03 16.43a.3.3 0 0 0 .08.21l11.12 12.06a.31.31 0 0 0 .54-.21l-.03-16.41a.3.3 0 0 0-.08-.21zm12.29 12.11a.3.3 0 0 0-.08.21l-.02 16.42a.3.3 0 0 0 .52.2l11.13-12.07a.3.3 0 0 0 .08-.21l.02-16.43a.3.3 0 0 0-.52-.2zm-.1 54a.24.24 0 0 1-.23.24l-.46.01a.24.24 0 0 1-.25-.24l-.05-16.25a.24.24 0 0 0-.06-.16l-11.25-12.24a.24.24 0 0 0-.42.17l.03 16.65a.24.24 0 0 0 .06.16l11.98 12.97a.24.24 0 0 0 .36 0l11.98-12.98a.24.24 0 0 0 .06-.16l.01-16.64a.24.24 0 0 0-.42-.17l-11.24 12.23a.24.24 0 0 0-.06.16z"/></svg>