<svg xmlns="http://www.w3.org/2000/svg" viewBox="0 0 382 382"><path fill="#017d01" fill-opacity=".996" d="M63.96 0q5.8 2.43 11.52 0h7.03q.36.53.98.49.63-.04.77-.49h.65c1.98 1.61 3.94 3.56 6.43 4.06q2.39.48 4.67 1.04.83.2.47-.58l-.84-1.84a1.17 1.15 85.9 0 0-.73-.64q-3.36-.99-6.8-1.3-.77-.08-.1-.45.34-.19.9-.29h2.24q1.26.71 2.34 0h3.45l6.59 5.21q2.31 1.82 1.33-.95-.74-2.13-3.31-4.26h2.44q.87.39 1.74 0h3.2l13.34 10.66q.4.32.55-.16.58-1.84.07-2.9-1.8-3.73-3.45-7.6.31-.02.62 0l2.17 2.05q.42.39.62-.15.3-.77.08-1.9h1.6l5.12 11.02q.15.31.48.37l.47.09q.21.04.14-.16-.5-1.59-.29-3.26c.39-3.04-1.59-5.83-4.23-7.19q-.54-.28-.48-.87h1q.88.64 1.49 0h.72q.22 1.33 1.21 2.39.13.14.29.05l.3-.19q.51-.3-.01-.57-.41-.21-.54-.63-.18-.59.42-.76l1.04-.29h1.09l4.23 3.32q.44.35.34-.2l-.18-1.04q-.08-.48-.51-.71-.7-.38-.61-1.37h.47l.55.54q.38.38.6-.11l.18-.43h1.13q.66.55 1.93.42a.73.72-15.7 0 1 .74.41l19.25 40.09q.23.47.72.66c.77.3.91.22 1.59.79q2.22 1.87 4.94 3.98 1.19.93 5.52 1.42.99.11.18-.46-1.38-.98-2.69-1.96c-3.52-2.62-3.3-7.78-6.82-10.39-2.44-1.82-5.16-3.55-6.42-6.48q-1.15-2.67-2.46-5.17a.44.43 56.4 0 1 .1-.53l.22-.17q.31-.25.49.1 1.41 2.8 2.75 5.64c1.1 2.36 2.9 3.5 4.9 4.98q.84.62.39-.32l-2.14-4.48a.3.3 0 0 1 .15-.4l.3-.13q.27-.12.4.14 3.11 6.13 6.29 13.11.92 1.99 2.94 3.63 3.18 2.56 6.26 4.96.7.55.73-.34l.07-1.55q.04-.91-.67-1.48c-2.5-2.04-5.73-3.9-7.11-6.97q-1.31-2.92-2.6-5.53a.42.41-27.2 0 1 .18-.55l.23-.13q.11-.05.17.05 1.65 2.66 2.82 5.47c.97 2.36 2.97 3.88 4.95 5.24q1.13.77.48-.42-.82-1.54-1.54-3.08c-1.82-3.92.44-8.29-1.58-12.13-1.41-2.67-3.01-5.26-2.93-8.32q.07-2.85.07-5.55 0-.6-.56-.8c-1.33-.48-2.6-.42-3.79-1.31q-3.03-2.28-5.98-4.9-.2-.18-.02-.39l.2-.23a.33.32 39.2 0 1 .45-.04l6.34 5.07q.15.12.27-.03l.18-.22a.06.06 0 0 0-.01-.09c-1.51-1.26-3.35-2.16-4.26-3.98q-1.66-3.35-3.11-6.6-.12-.25.14-.37l.27-.13q.34-.16.5.18 1.41 3.02 2.9 6.02 1.26 2.52 4.91 4.53.62.33.28-.28L164.5 0h1.68l1.13 2.53q.22.49.42-.01.44-1.11.2-2.52h4.28q.97.59 1.15 1.89.03.2.23.14l.29-.08q.24-.06.16-.3-.29-.86-.19-1.65h.63l15.15 31.54q1.02 2.12.93-.22c-.08-2.1.23-3.85-.76-5.84-1.38-2.75-3.2-5.69-3.11-8.81q.09-2.94.01-5.55-.01-.5-.4-.82-2.76-2.3-5.74-4.61-1.22-.96-2.9-5.69h1.09q1.58 5.11 6.21 7.8.82.48.38-.36c-1.37-2.65-2.43-4.32-2.37-7.44h.95c.14 1.13-.07 2.03.44 3.11q2.68 5.78 5.6 11.66.4.8.51-.09.46-4.02-.43-5.87-1.54-3.19-2.97-6.37-.58-1.3-.18-2.44h.69q.53 3.22 2.41 6 .3.43.37-.09.42-2.92-.14-5.91h1.28l.01 382h-.81q-.23-3.39-.29-6.86-.03-2.22-.87-3.8c-1.42-2.7-2.98-5.19-2.86-8.39q.1-2.7.05-5.3-.01-.53-.42-.86c-2.63-2.15-5.98-4.2-7.33-7.19q-1.26-2.81-2.52-5.45-.15-.3.16-.45l.26-.12q.27-.13.4.14 1.36 2.67 2.58 5.38c1.12 2.47 3.11 3.77 5.17 5.29q.92.69.37-.32-.87-1.59-1.65-3.23c-1.9-3.97.38-8.24-1.64-12.28q-2.83-5.65-5.42-11.21a1.3 1.28 84.2 0 0-.84-.7c-3.26-.85-7.01-1.05-9.7-3.24q-2.24-1.82-4.65-3.93-.28-.25-.05-.54l.16-.2q.12-.15.28-.04 3.08 2.2 5.65 4.38 1.66 1.41 5.95 1.92 1.16.14.22-.56c-1.65-1.24-3.71-2.45-4.67-4.35q-1.17-2.29-2.24-4.74c-1.12-2.56-3.62-4.06-5.74-5.76q-1.96-1.57-3.04-3.75-1.34-2.7-2.6-5.49-.12-.26.13-.38l.37-.17q.24-.12.36.12 1.4 2.86 2.73 5.68c1.07 2.29 2.92 3.48 4.85 4.91q.94.69.43-.36l-2.16-4.43q-.18-.37.22-.47l.36-.08q.19-.05.28.12 3.16 6.22 6.2 12.93 1.06 2.35 2.85 3.74 3.5 2.72 6.48 5.14.65.53.69-.31l.07-1.82q.03-.73-.53-1.2c-2.56-2.09-5.81-3.93-7.24-7.07q-1.31-2.89-2.65-5.59-.1-.21.09-.35l.22-.15a.35.35 0 0 1 .51.12q1.66 2.93 2.89 5.84c.88 2.08 3.03 3.42 4.74 4.79q.97.77.44-.35c-1-2.1-2.25-4.1-2.28-6.48q-.03-2.52.04-5.05c.13-4.46-4.01-7.45-3.86-12.04q.1-2.94.08-5.8 0-.6-.57-.75c-1.33-.34-2.63-.43-3.77-1.27q-3.15-2.34-6.05-5-.1-.09-.04-.21l.12-.23a.42.41-57.4 0 1 .63-.14l6.44 5.21q.24.19.32-.11l.08-.27q.01-.05-.03-.08c-1.77-1.19-3.43-2.36-4.44-4.34q-1.57-3.07-3-6.22-.13-.29.17-.41l.38-.15a.3.29 66.2 0 1 .37.15q1.44 3.12 2.91 6.1 1.24 2.5 4.95 4.44.57.3.25-.26-2.03-3.58-3.55-7.2-.86-2.06-2.69-3.48-4.99-3.87-9.79-7.79a1.31 1.27 58.9 0 0-1.03-.27c-3.29.62-6.45 1.99-9.88 1.27q-3.28-.68-6.22-1.54-.24-.07-.2-.31l.05-.27q.07-.39.46-.3 3.18.74 6.31 1.46c2.35.54 4.23-.07 6.39-.77q1.45-.47-.06-.69-1.69-.26-3.3-.63c-2.46-.57-4.75-2.94-6.73-4.51q-1.56-1.24-3.5-1.71c-3.05-.74-6.15-1.04-8.5-3.03q-2.37-2.01-4.72-3.9a.27.27 0 0 1 0-.42l.27-.21a.38.37 44.2 0 1 .47 0q2.54 1.96 4.98 4.01c1.78 1.49 4.12 1.77 6.37 2.19q1.26.23.25-.54l-3.8-2.9q-.27-.21-.06-.48l.2-.25a.4.4 0 0 1 .57-.06q6.26 5.04 12 9.61 1.53 1.22 4.25 1.68 4.05.68 7.24 1.76.61.21.37-.39l-.95-2.26q-.22-.53-.78-.65c-3.4-.71-7.45-1.18-10.05-3.48q-2.19-1.93-4.48-3.68-.21-.15-.04-.35l.18-.23q.27-.31.6-.06 2.52 1.89 5.07 4.04c1.76 1.48 4.28 1.81 6.48 2.12q.99.14.19-.45c-1.82-1.36-3.9-2.54-4.93-4.65q-1.14-2.31-2.12-4.54c-1.84-4.23-6.9-5.16-8.83-9.48q-1.14-2.56-2.32-4.97a1.2 1.2 0 0 0-.75-.64q-2.6-.74-5.23-1.2c-3.45-.6-6.78-3.89-9.32-6.11q-.19-.17-.03-.36l.17-.2q.22-.26.49-.06 2.5 1.78 4.81 3.83c1.89 1.66 4.36 2 6.74 2.46q1.11.21.2-.46-1.48-1.12-2.94-2.37c-2.01-1.73-2.84-4.36-3.96-6.72q-1.04-2.18-3.05-3.73c-2.04-1.58-4.46-3.1-5.56-5.4q-1.37-2.88-2.78-5.97-.15-.33.18-.47l.24-.11q.27-.12.4.14 1.39 2.77 2.6 5.45c1.15 2.59 3.16 3.59 5.09 5.32q.95.85.41-.3l-2.2-4.64q-.16-.34.18-.5l.24-.11q.28-.14.41.14 3.27 6.55 6.32 13.19.96 2.08 2.83 3.54 4.59 3.6 8.91 7.06 1.14.92.47-.38-.75-1.45-1.42-2.92c-1.06-2.31-3.65-3.87-5.62-5.45q-1.75-1.4-2.72-3.24-1.58-2.99-2.85-6.12-.08-.19.11-.28l.23-.1a.38.37-27.3 0 1 .48.15q1.46 2.63 2.73 5.63c.92 2.18 2.84 3.39 4.64 4.75q1.14.86.53-.43l-1.98-4.18a.34.34 0 0 1 .26-.48l.31-.04q.25-.03.37.2l11.2 23.33q.25.53.77.79 2.49 1.28 4.79 3.49c2.06 1.99 4.65 2.42 7.29 2.86q.98.16.19-.45-1.42-1.1-2.84-2.21c-3.36-2.61-3.18-7.53-6.56-10.14-2.41-1.86-5.17-3.48-6.41-6.36q-1.19-2.76-2.6-5.43a.36.36 0 0 1 .19-.5l.38-.14a.27.27 0 0 1 .35.14q1.44 2.95 2.81 5.93c.92 2 2.88 3.24 4.59 4.51q1.07.8.49-.4l-2.05-4.25a.32.32 0 0 1 .16-.43l.31-.12q.29-.12.43.16 2.95 6.08 6.26 13.01 1.17 2.46 2.86 3.73 3.27 2.46 6.4 5.1.58.49.62-.26l.09-1.98q.04-.67-.48-1.09c-2.43-2.01-5.82-4.02-7.11-6.82q-1.39-3-2.77-5.84a.35.35 0 0 1 .24-.49l.31-.07q.25-.05.36.17 1.43 3.04 2.95 6.12 1.05 2.11 4.65 4.45.77.51.37-.33c-1.03-2.15-2.42-4.19-2.35-6.68.08-3.02.53-6.13-.93-8.97q-2.2-4.27-4.13-8.48-.3-.65.38-.42l.41.13a.43.43 0 0 0 .57-.42l-.02-4.37q-.01-.57-.45-.94c-2.5-2.04-6.03-4.2-7.29-7.14q-1.15-2.66-2.57-5.46-.14-.27.12-.41l.39-.22q.23-.13.35.11 1.45 2.86 2.76 5.79c.95 2.12 3.01 3.51 4.84 4.8q1.12.78.43-.4-.94-1.61-1.66-3.33c-1.63-3.91.43-8.04-1.49-11.79q-1.41-2.77-2.59-5.4-.28-.61-.92-.44c-1.68.44-2.99.69-4.77.29q-3.28-.74-6.55-1.57-.28-.07-.25-.35l.04-.3q.04-.28.32-.24c2.69.41 7.19 2.23 9.66 1.5q3.31-.99.02-2.05c-.98-.32-2.21-.72-2.96-1.43q-4.92-4.69-11.59-5.91-2.32-.43-3.7-1.55-2.58-2.09-5.29-4.26-.32-.27-.02-.56l.19-.18a.4.4 0 0 1 .52-.02q2.76 2.27 5.26 4.23 1.64 1.3 4.4 1.63.83.09.18-.43l-2.51-2.06q-.48-.39-.02-.79l.51-.44q.4-.35.82-.02 3.28 2.65 6.71 5.4c1.21.97 2.53.79 3.87 1.34q.74.31.32-.37-.31-.51-.8-.84c-1.98-1.33-3.59-2.63-4.58-4.9q-.87-2.02-1.76-3.92c-1.13-2.44-3.79-4.02-5.87-5.63-2.42-1.87-3.45-4.99-4.8-7.74q-.23-.47-.74-.6l-3.02-.76q-.14-.03-.12-.17l.06-.41q.05-.27.33-.25 4.29.33 7.92 2.01.17.08.26-.09l.01-.01q.08-.15-.07-.25c-1.94-1.2-3.96-.92-5.72-2.31q-2.94-2.33-5.67-4.67-.12-.09-.02-.21l.17-.21a.5.5 0 0 1 .71-.07q2.89 2.4 5.45 4.32 1.98 1.49 6.07 1.88.82.07.17-.42c-3.09-2.34-6.83-6.32-10.57-7.09q-6.05-1.25-11.81-2.7a1.38 1.36-57.1 0 0-1.18.26c-2.37 1.86-5.16 4.69-8.02 5.35q-3.47.79-6.62 1.35-.26.04-.31-.22l-.04-.27a.35.35 0 0 1 .26-.4q3.24-.81 6.54-1.46c2.06-.4 3.7-2.04 5.29-3.34q1.23-1-.31-.63-1.59.39-3.33.75c-4.24.88-7.95-2.29-12.34-1.14-2.42.63-5.22 1.59-7.7 1.05q-3.38-.73-6.7-1.64-.15-.04-.16-.2l-.01-.27a.4.39 5.1 0 1 .48-.4q3.43.79 6.83 1.57c1.99.46 3.8-.44 5.79-.68q2.18-.27.04-.78l-4.45-1.06q-.23-.06-.22-.29l.01-.36q.01-.38.38-.3 7.32 1.65 14.57 3.39 1.9.45 4.28-.1 4-.93 7.93-1.75.88-.18.18-.75l-1.41-1.14q-.65-.51-1.46-.35c-2.9.58-6.32 1.94-9.23 1.31q-3.47-.74-6.59-1.61a.32.31-78.7 0 1-.23-.35l.05-.37q.04-.28.31-.21 3.23.76 6.64 1.55c2.18.5 4.27-.29 6.43-.72q1.12-.22.02-.52c-2.4-.67-4.55-.84-6.62-2.47-2.28-1.8-4.29-3.96-7.21-4.66-3-.71-6.03-1-8.33-2.9q-2.12-1.75-4.33-3.55a1.33 1.3 57.6 0 0-1.14-.27c-3.28.74-6.9 2.04-10.06 1.23q-3.02-.77-5.93-1.42-.34-.08-.25-.41l.07-.28q.07-.29.37-.23 3.15.59 6.18 1.4c2.21.59 4.68-.02 6.75-.83q1.18-.46-.08-.61-1.78-.2-3.63-.7c-2.46-.66-4.65-2.99-6.61-4.58-3.5-2.84-8.35-1.6-11.9-4.6q-2.29-1.94-4.61-3.8a.31.31 0 0 1-.05-.44l.19-.22q.23-.29.52-.06 2.98 2.31 5.77 4.61 1.17.96 5.76 1.56.81.1.16-.39l-3.9-3.03q-.31-.24-.1-.57l.18-.27a.27.26 34.9 0 1 .38-.06q5.63 4.36 11.51 9.21 1.81 1.5 4.15 1.99 5.59 1.15 11.03 2.54.7.17.21-.36-2.86-3.13-4.65-3.53c-3.34-.73-7.19-1.14-9.74-3.32q-2.29-1.96-4.64-3.8-.22-.17-.04-.38l.21-.24q.26-.3.57-.06 2.99 2.31 5.79 4.63 1.21 1 5.76 1.54.79.09.16-.4l-3.95-3.05q-.23-.18-.08-.43l.2-.34a.32.32 0 0 1 .47-.08l20.43 16.36q.39.31.89.22c1.65-.3 5.14.93 6.86 1.32 2.49.57 4.28-.26 6.59-.65a.34.34 0 0 0 .01-.67q-1.73-.35-3.47-.75c-2.45-.56-4.68-2.75-6.49-4.34-3.44-3.02-8.1-1.83-11.77-4.58q-2.66-1.99-5.21-4.23-.19-.17-.03-.36l.26-.32q.16-.19.36-.04 3.07 2.37 5.88 4.71 1.2 1 5.71 1.52.8.09.16-.4l-3.9-3.06q-.23-.17-.08-.41l.19-.3q.19-.29.46-.08 5.65 4.37 11.28 9.04c3 2.49 7.97 2.85 11.62 3.74a1.41 1.38-10.9 0 1 .8.53l1.34 1.84a.09.04 51.9 0 0 .09.05l.18-.18q.15-.14-.02-.27-1.42-1.09-1.62-2.87a2.55 2.55 0 0 0-2.02-2.21c-3.11-.64-6.7-1.09-9.18-3.19q-2.31-1.94-4.5-3.69a.42.42 0 0 1-.07-.59l.18-.24q.12-.15.28-.04 2.4 1.71 4.95 3.93c1.94 1.69 4.27 1.88 6.66 2.37q1.17.24.21-.47-1.36-1.01-2.79-2.18c-3.42-2.8-3.28-7.71-6.82-10.4q-3.7-2.8-7.42-5.83-.76-.62.22-.67.19-.01.39.02a.31.31 0 0 0 .33-.44c-.54-1.15-1.28-2.31-1.67-3.52q-.39-1.2-1.17-1.36c-3.25-.7-7.15-1.12-9.7-3.25q-2.47-2.06-4.75-3.94-.3-.25-.04-.53l.2-.2q.2-.22.43-.03 2.81 2.36 5.71 4.54 1.64 1.23 5.85 1.82.78.11.19-.42c-1.74-1.55-3.87-2.65-4.93-4.85-1.31-2.73-2.17-5.8-4.63-7.7q-4.86-3.76-9.72-7.75a1.5 1.48 58.2 0 0-1.23-.3q-2.56.53-4.99 1.18c-3.42.93-7.53-.49-10.93-1.41q-.27-.07-.21-.34l.08-.34q.07-.3.37-.24 3.54.76 7.2 1.63 1.74.42 5.75-1.04 1-.37-.05-.54c-2.16-.35-4.55-.61-6.32-2.03q-2.06-1.64-4.06-3.32c-3.44-2.89-8.41-1.54-12.01-4.68q-2.17-1.89-4.51-3.71-.28-.21-.06-.48l.19-.22q.19-.24.43-.06 2.6 1.93 5.11 4.06c1.83 1.57 4.24 1.76 6.48 2.15q1.03.18.19-.46l-3.85-2.94a.41.4-57.2 0 1-.11-.52l.17-.29q.17-.31.45-.09 5.81 4.56 11.64 9.35 1.69 1.39 3.74 1.77 4.3.81 8.35 2.06.46.14.29-.31l-.86-2.27q-.22-.58-.82-.71c-3.32-.76-7.35-1.17-9.94-3.41q-2.24-1.94-4.61-3.79-.17-.13-.06-.32l.15-.24q.24-.38.6-.11 2.48 1.84 5.01 3.99c1.71 1.46 3.84 1.76 5.96 2.13q1.92.34.31-.75-1.35-.91-2.64-2.01c-1.9-1.62-2.94-4.66-4.01-6.88q-.87-1.81-2.4-3.06c-2.44-1.98-5.04-3.52-6.31-6.3q-1.12-2.47-2.29-4.94a1.47 1.43-4.3 0 0-.93-.78c-3.21-.87-6.91-1-9.55-3.2q-2.4-2.01-4.85-4.02-.17-.14-.06-.33l.14-.26q.16-.28.42-.1 2.42 1.65 4.85 3.81c2.01 1.79 4.38 1.95 6.82 2.56q.9.22.22-.41-1.27-1.18-2.74-2.27c-3.53-2.61-3.33-7.8-6.97-10.49-2-1.48-4.63-3.13-5.71-5.35q-1.45-2.97-2.9-6.11-.18-.39.21-.56l.24-.1a.28.27 64.4 0 1 .35.13q1.46 2.85 2.87 5.99c.94 2.07 3.03 3.23 4.71 4.64q.97.82.43-.33l-2.21-4.67q-.09-.2.11-.29l.25-.12a.39.38-26.2 0 1 .51.17q3.34 6.44 6.42 13.25.94 2.09 2.89 3.57 4.45 3.38 8.93 7.12.62.51.37-.25-1.38-4.16-3.1-5.5-1.94-1.51-3.91-3.07c-2.87-2.26-4.19-6.07-5.62-9.37q-.11-.25.14-.35l.3-.11q.33-.13.48.19 1.41 2.92 2.82 5.83c1.07 2.21 2.78 3.24 4.6 4.62q.99.75.46-.38l-2-4.24q-.14-.3.17-.43l.34-.14q.25-.11.37.14l11.19 23.3q.25.52.76.8 2.61 1.41 5.02 3.7c1.96 1.86 4.5 2.24 7.01 2.68q.99.17.22-.47c-1.8-1.5-3.92-2.66-4.96-4.83q-.98-2.04-1.87-4.16c-1.8-4.31-6.84-5.15-8.73-9.29q-1.29-2.84-2.75-5.79-.16-.32.16-.47l.32-.15q.32-.15.46.17 1.44 3.19 2.96 6.15 1.17 2.27 4.65 4.33.66.39.33-.31l-2.24-4.64q-.05-.11.05-.16l.32-.16q.46-.23.68.23l6.94 14.45q.31.66.88 1.11l10.33 8.27q.55.44.32-.23-1.21-3.52-2.95-5.26-1.66-1.65-3.93-3.23c-3.09-2.14-4.18-6.23-5.83-9.41q-.18-.34.18-.48l.29-.12q.21-.08.32.11 1.62 2.89 2.87 5.84c.9 2.15 2.95 3.34 4.68 4.75q1.13.92.5-.39l-2.04-4.27q-.13-.29.15-.43l.24-.12q.37-.18.55.19 5.57 11.59 11.2 23.36.41.85 1.35 1.05.47.09.84.4 2.09 1.74 3.99 3.27c1.98 1.61 4.08 1.87 6.46 2.36q1.28.26.25-.54c-1.92-1.49-3.75-2.59-4.85-4.84-1.26-2.58-2.24-5.73-4.52-7.52-2.46-1.91-5.04-3.4-6.38-6.4q-1.25-2.76-2.51-5.42a.21.2 56 0 1 .04-.24l.37-.35q.21-.2.35.06 1.75 3.36 3.41 6.89.64 1.37 4.42 3.92.67.46.32-.27l-2.2-4.66q-.19-.39.24-.4l.49-.02q.09 0 .13.07 3.32 6.57 6.3 13.09 1 2.21 2.9 3.68 4.35 3.36 8.98 7.15.74.61.4-.29-1.54-4.11-2.98-5.25c-2.61-2.07-5.77-4.11-7.15-7.12q-1.3-2.85-2.53-5.51a.3.3 0 0 1 .13-.39l.24-.12q.22-.12.35.1 1.46 2.41 2.64 5.31c1.04 2.52 3.08 3.92 5.17 5.38q.82.58.39-.33l-2.13-4.4q-.12-.24.13-.35l.33-.15a.37.36 64.2 0 1 .48.17l11.11 23.12q.27.55.8.85 2.56 1.44 4.87 3.62c2.06 1.94 4.57 2.36 7.15 2.79q.94.16.21-.44-1.32-1.08-2.75-2.19c-2.07-1.62-3.08-4.53-4.08-6.86-1.81-4.22-6.78-5.13-8.68-9.2q-1.41-3.03-2.85-6.04-.16-.35.23-.39l.49-.05q.13-.02.19.1 1.51 3.01 2.84 5.93c.96 2.08 2.95 3.23 4.63 4.63q1.16.98.5-.39l-2.09-4.31a.36.35 64.5 0 1 .16-.47l.29-.14q.29-.14.43.14 3.03 6.19 6.14 12.86 1.18 2.51 2.85 3.78 3.48 2.66 6.59 5.22.6.49.61-.28l.02-2.01q.01-.72-.56-1.18l-5.81-4.65a1.94 1.94 0 0 1-.65-.94q-.91-2.83-3.4-4.24-.58-.32-.13-.8.13-.15.28-.1.69.23.52-.48-.18-.71-.58-1.37-.24-.4.22-.48l.39-.07a.3.3 0 0 1 .33.2q1.53 4.6 5.61 6.9.83.47.54-.44c-.19-.63-.55-1.09-.54-1.84.06-3.25.57-7.27-.99-10.13-1.41-2.56-2.84-4.96-2.77-8.05q.01-.4-.3-.64l-6.89-5.45q-.35-.28-.06-.62l.17-.21q.19-.23.42-.05l5.6 4.47q1.66 1.33 1.17-.75-.22-.91-.08-1.97a1.28 1.27-67 0 0-.45-1.13c-2.49-2.07-5.8-3.95-7.2-6.97q-2.79-6-5.71-11.98a.39.38-28 0 1 .16-.5l.26-.14q.28-.16.42.12 1.78 3.53 3.35 6.82.6 1.26 4.47 3.92.81.55.34-.3-1.01-1.86-1.9-3.87-1.04-2.36.83-.59.45.43.5 1.09.05.67.53 1.38.39.57.48-.11.57-4.39-.11-5.78-3.08-6.25-6.03-12.54a1.2 1.19 84.4 0 0-.78-.65c-3.15-.8-6.98-1.09-9.47-3.11q-2.65-2.14-5.02-4.13-.39-.32.06-.56l.31-.16q.1-.06.19.01 2.66 1.99 5.22 4.15c1.71 1.45 4.12 1.71 6.27 2.17q1.01.22.22-.46-1.33-1.14-2.71-2.21c-2.04-1.57-2.95-4.37-4.07-6.69q-1.08-2.21-2.95-3.74c-2.06-1.68-4.53-3.16-5.67-5.49q-1.46-3.01-2.82-6.06-.14-.32.18-.46l.24-.11q.27-.12.4.14 1.37 2.71 2.6 5.46c1.19 2.64 3.11 3.48 4.98 5.26q.82.79.42-.27-.81-2.14-2.14-4.62-.07-.13.03-.24l.31-.32q.31-.33.52.08 3.16 6.31 6.29 13.15.99 2.15 2.71 3.47 3.48 2.66 6.52 5.21a.43.43 0 0 0 .71-.32l.01-1.81q0-.86-.67-1.4-1.88-1.47-3.88-3.07-2-1.59-3.09-3.72-1.48-2.88-2.69-5.82-.07-.19.11-.27l.24-.11q.35-.16.53.17 1.67 3.19 3.33 6.78.5 1.1 4.4 3.88.75.53.36-.3-.71-1.52-1.55-3.12c-1.31-2.46-.9-5.9-.83-8.6.11-4.46-3.99-7.54-3.84-12.24q.09-2.6.07-5.37 0-.55-.47-.84-.46-.29-1.02-.3-.52 0-1.02-.18-2.48-.91-4.74-3.27-.41-.43-.94-.17-4.54 2.25-9.98 2.67-.3.02-.25-.28l.06-.34q.02-.14.15-.17l8.35-1.94a.86.85-21.5 0 0 .55-1.26q-.52-.91-1.54-1.08-3.62-.61-7.18-1.58c-4.4-1.21-8.34 2.2-13.06.91q-2.9-.79-5.58-1.32a.34.33 15.8 0 1-.25-.44l.1-.31a.41.4 16.3 0 1 .47-.25q3.48.86 6.5 1.52 2.47.55 6.23-.92.91-.35-.05-.55l-4.51-.93q-.37-.07-.3-.44l.07-.3q.06-.3.37-.24 7.88 1.71 15.51 3.56 1.44.35 3.6-.38.7-.23.42-.91l-.43-1.06q-.3-.73-1.06-.55c-2.36.53-5.93-.68-9.81-1.65q-.31-.07-.23-.38l.07-.31a.33.33 0 0 1 .39-.24l8.31 1.86a1.04 1.04 0 0 0 1.25-1.2q-.2-1.06-1.15-1.55c-2.4-1.22-4.73-3.42-6.85-5.11q-.9-.73-3.84-1.24c-2-.34-3.48.61-5.37.19Q81 6.52 77.43 5.67a.41.4-81 0 1-.31-.43l.04-.37q.03-.3.33-.23l7.82 1.86a.07.07 0 0 0 .06-.13L78.78 1.2a1.75 1.73 59.1 0 0-1.37-.35c-3.39.57-6.46 1.94-10.02 1.18q-3.1-.67-6.1-2.03zm110.82 11.45c-1.77-3.32-3.34-6.86-4.89-10.52q-.44-1.02-.66.07c-1.17 5.61.84 7.85 5.1 10.84q1.06.75.45-.39m-68.64-2.48.41-.57a.2.2 0 0 0-.04-.28l-.09-.06A12.37.55 36.2 0 0 96.11 1.2a12.37.55 36.2 0 0 9.66 7.75l.09.06a.2.2 0 0 0 .28-.04m1.05-6.32Q107.07.98 105.3.93a.37.37 0 0 0-.12.73q.9.28 1.55.79.97.76-.26.76h-.5q-.85.01-.34.68.74 1 1.8 1.84a.35.35 0 0 0 .57-.25q.1-1.19-.56-2.14-.22-.31-.25-.69m-17.73 3.1a.34.34 0 0 0 .33-.36q-.01-.33-.29-.54-.59-.44-1.37-.54-2.74-.37-4.66-2.09-.82-.73-2.05-.98-.75-.15-.23.41 3.93 4.26 8.27 4.1m21.017-2.823a1.18.44 37.4 0 0-.67-1.066 1.18.44 37.4 0 0-1.204-.368 1.18.44 37.4 0 0 .67 1.066 1.18.44 37.4 0 0 1.204.368m22.803.693q-.13-1.42-.98-2.25-.64-.63-.82.26-.34 1.7 1.5 2.24.33.1.3-.25m37.93-2.01q-.01.44.37.6a.27.27 0 0 0 .38-.25q0-.51-.45-.6a.26.25 4.8 0 0-.3.25m-46.38.56q-.1-.38-.36-.08c-.54.62-.4 1.57.33 2.02q.6.38.43-.31zm15.19-.32q-.11-.27-.53-.17a.48.47 2 0 0-.35.32q-1.04 3.49 2.59 4.7.26.09.27-.18.09-2.99-1.8-4.44-.12-.09-.18-.23m-54.06.72a.25.25 0 0 0 .33-.33q-.08-.16-.27-.03-.33.24-.06.36m50.467 2.167a1.53.37 44.2 0 0-.839-1.332 1.53.37 44.2 0 0-1.355-.802 1.53.37 44.2 0 0 .839 1.332 1.53.37 44.2 0 0 1.355.802M175.51 6.61q-.11-.54 0-1.04a1.43 1.42 26.2 0 0-.49-1.41l-1.48-1.21q-.68-.57-.76.32-.33 3.61 2.8 4.28.47.1.69.52.46.87 1.15 1.49.64.57.41-.25-.4-1.43-1.75-2.01-.46-.2-.57-.69m-53.33-2.7q.14.62.25.53.24-.19.1-.48-.07-.14-.18-.19a.12.12 0 0 0-.17.14m-24.15.34a.24.24 0 0 0-.37.24q.2 1.29 1.52 1.27 1.03-.02.18-.6zm13.35 2.83a.35.35 0 0 0 .22.18l2.53.6a.35.35 0 0 0 .39-.5L113.33 5a.35.35 0 0 0-.23-.19l-2.62-.6a.35.35 0 0 0-.39.5zm14.9 6.62q.49.24.49-.3l-.07-5.53q-.01-.94-.72-1.54l-1.14-.95q-.85-.71-.85.39l-.01 5.67q-.01 1.15 1.02 1.64zm7.61-8.15q.22.16.5.15.39-.02.11-.29-.19-.18-.44-.24-.98-.23-.17.38m-24.524 1.413a.86.37 104.4 0 0 .572-.741.86.37 104.4 0 0-.144-.925.86.37 104.4 0 0-.572.741.86.37 104.4 0 0 .144.925M140.33 17.67q-1.92-3.85-3.76-7.74c-.85-1.81-2.41-3.09-4.05-4.05q-1.98-1.15-.79.8 1.75 2.86 3.14 6.2c.98 2.36 3.1 3.71 5.02 5.21q.1.08.23.11.14.03.27.02.39-.01.12-.29-.11-.11-.18-.26m-3.01-8.35q.41.88.54-.08.18-1.27.18-2.57a.88.88 0 0 0-.48-.8q-.54-.29-1.2-.29-.76 0-.44.69zM95.51 7.7a1.57.63 35.4 0 0-.915-1.423 1.57.63 35.4 0 0-1.645-.397 1.57.63 35.4 0 0 .915 1.423 1.57.63 35.4 0 0 1.645.396m1.98-.83q.02-.38-.29-.53a.25.24 16.7 0 0-.35.18q-.05.34.27.54.34.21.37-.19m19.983 1.99a1.48.4 46.3 0 0-.734-1.346 1.48.4 46.3 0 0-1.312-.794 1.48.4 46.3 0 0 .734 1.346 1.48.4 46.3 0 0 1.311.794m26.057-.33q.64.55.58-.29-.06-.91-.88-1.39-.77-.46-.51.39.23.78.81 1.29m-40.792-.012a2 .74 16.5 0 0-1.708-1.278 2 .74 16.5 0 0-2.128.142 2 .74 16.5 0 0 1.708 1.277 2 .74 16.5 0 0 2.128-.141M139.86 7.21q0-.23-.23-.2-.34.06-.36.42c-.15 3.67-1.03 6.29 2.2 9.02q1.45 1.22 2.72 2.2 1.09.84.5-.4-2.4-4.99-4.43-9.32-.37-.78-.4-1.72m-32.54.75q.09-.01.16-.07a.05.05 0 0 0-.03-.08q-.33-.01-.3.08.04.08.17.07m33.88.64q.07.36.39.45.48.12.31-.34-.25-.67-.5-.54-.26.14-.2.43m-39.14 4.214a3.52.61 36.5 0 0-2.467-2.584A3.52.61 36.5 0 0 96.4 8.626a3.52.61 36.5 0 0 2.467 2.584 3.52.61 36.5 0 0 3.193 1.604m32.48 1.616q-1.19-2.33-2.21-4.59t-.86.22q.09 1.29.02 2.58-.02.6.45.98l6.39 5.13a.23.23 0 0 0 .32-.03l.17-.21q.04-.05 0-.09c-1.51-1.32-3.32-2.1-4.28-3.99m40.36-5.08.41.52q.34.43.34-.12-.01-.58-.56-.7-.51-.1-.19.3m-63.03 4.12q.42-3.53-2.07-4.5-.73-.28-.81.5c-.28 3.04.79 2.39 2.38 4.15q.42.47.5-.15m.72-4.26q-.32-.17-.16.15l2.77 5.79q.33.69 1.07.89l2.07.56q.49.13.34-.36-1.33-4.41-6.09-7.03m3.17.522a.5.27 16.5 0 0-.403-.4.5.27 16.5 0 0-.556.116.5.27 16.5 0 0 .402.4.5.27 16.5 0 0 .556-.116m-8.53.238q-.03-.09-.06-.17-.07-.24-.11 0-.01.05-.01.1.01.08.08.13.19.17.1-.06m38.27 3.44q.41-2.66-2.27-3.73-.46-.18-.51.31-.32 3.42 2.59 4.4.53.17.88.62.54.7 1.09 1.27.74.76.48-.26-.37-1.46-1.75-1.82-.61-.16-.51-.79m-25.4-2.85a.53.53 0 0 0-.3-.25l-2.13-.65a.53.53 0 0 0-.62.77l1.09 1.92a.53.53 0 0 0 .31.25l2.12.63a.53.53 0 0 0 .61-.77zm8.16-.44q-.47-.8-.48.13l-.04 4.33a.91.91 0 0 0 .33.72l1.02.86q2.04 1.72 1.4-.87-.59-2.39-2.23-5.17m-26.17.08q-.11-.2-.34-.12-.31.12-.03.3.57.34 1.28.51.43.1.13-.22-.32-.36-.84-.35-.14 0-.2-.12m2.7-.04a.28.28 0 0 0-.16.42q.4.65 1.17.47a.39.38 55.7 0 0 .13-.69q-.53-.37-1.14-.2m73.95 5.26a.3.3 0 0 0 .48-.24l.01-2.69a.3.3 0 0 0-.12-.24l-2.12-1.66a.3.3 0 0 0-.48.24v2.69a.3.3 0 0 0 .11.24zm-5.307-2.551a1 .46 37.5 0 0-.513-.974 1 .46 37.5 0 0-1.073-.244 1 .46 37.5 0 0 .513.974 1 .46 37.5 0 0 1.073.244m-50.923-.679q-.41.27-.43.74-.03.87.49.18.27-.35.23-.79a.19.18-19.9 0 0-.29-.13m-18.04.2q-.1-.05-.2-.03-.03 0-.02.03.08.11.18.13.54.12.04-.13m3.525 1.324a1.2.71 26.4 0 0-.76-1.17 1.2.71 26.4 0 0-1.39.102 1.2.71 26.4 0 0 .76 1.17 1.2.71 26.4 0 0 1.39-.102m82.455 9.796q.8-5.43-2.29-9.88-.28-.41-.35.08-.77 5.45 2.31 9.88.27.37.33-.08M113.4 13.7a.46.45 51.2 0 0-.49-.06q-.23.1-.21.35.06.69.68 1.13.61.44.58-.31-.02-.66-.56-1.11m8.07.4q.5 1.31.91 1.4.17.04.01.11h-.01q-.06.03-.06-.04.01-.95-.62-1.62a.14.14 0 0 0-.23.15m-16.93 1.03q.93-.59-.13-.87-.79-.21-1.59-.2-.88.01-.34.71.87 1.13 2.06.36m70.91 1.21q.43-1.75-1.61-2.28-.66-.17-.49.49.54 2.24 1.86 3.76.63.73.51-.23-.03-.27-.14-.51-.28-.59-.13-1.23m-53.78 1.67q-.65.43.06.75a.37.37 0 0 0 .47-.14q.61-.95-.15-1.86-1.02-1.21-2.46-2.1-.73-.46-.33.31l.93 1.79q.3.58.93.4.42-.13.66.2a.46.46 0 0 1-.11.65m19.39 2.47c-3.82-.5-6.25-3.26-9.02-5.49q-.54-.43-.55.26l-.02 2.05a1.54 1.52 20.1 0 0 .57 1.21l9.14 7.31a.35.34-71.2 0 0 .56-.28l-.03-4.32a.76.76 0 0 0-.65-.74m-16.25-2.71a.5.5 0 0 0 .3.28l2.25.7a.49.49 0 0 0 .6-.66l-.86-2.03a.49.49 0 0 0-.31-.28l-2.27-.72a.49.49 0 0 0-.59.67zm56.62-1.09c-.3-.43-.44-.95-.78-1.36q-.45-.56-.47.16-.04 1.26 1.04 1.99.56.38.43-.28-.05-.27-.22-.51m-73.63-1.04a.22.22 0 0 0-.33-.07q-.43.33-.37.65a.31.31 0 0 0 .53.15q.35-.4.17-.73m37.78.73q-.08-.18-.25-.32-.68-.56-.38.27.07.21.25.34.77.62.38-.29m30.62-.25q.08.34.23.47.48.39.44-.36-.02-.33-.38-.4a.25.24-89.4 0 0-.29.29m-69.256 2.16a1.73 1.39 26.8 0 0-.917-2.02 1.73 1.39 26.8 0 0-2.171.46 1.73 1.39 26.8 0 0 .917 2.02 1.73 1.39 26.8 0 0 2.171-.46m2.366-.4 1.16.01q.55.01.27-.47-.42-.68-1.05-1.21a.38.38 0 0 0-.62.27l-.08 1.05q-.02.34.32.35m3.9-1.08q.07-.01.13-.06.09-.09.02-.21-.12-.21-.3-.07-.53.43.15.34m62.28 10.04q.66-5.62-2.26-9.72-.34-.48-.42.11-.71 5.4 2.23 9.72.37.55.45-.11m3.07-9.6q.16.08.33.13.46.12.08-.16-.54-.39-1.93-.33a.18.13 19.8 0 0-.1.03q-.4.33-.4.86-.04 6.85-.07 13.4 0 .31.29.43l.24.09q.29.11.42.39 1.62 3.36 3.24 6.75.59 1.22 4.42 3.64.74.46.32-.31c-1.13-2.08-2.45-4.2-2.44-6.63.03-3.01.53-6.15-.9-8.94q-2.18-4.23-4.2-8.65a.53.53 0 0 1 .7-.7m-59.12 2.55q-.83-1.41-2.29-2.25-.81-.47-.5.41l.43 1.28q.19.53.75.53 1.42.01 2.75.89.91.6.24-.26-.23-.3-.62-.24a.75.74 70.1 0 1-.76-.36m29.15 2.35a.4.4 0 0 0 .65-.32l-.03-2.48a.4.4 0 0 0-.15-.31l-1.94-1.54a.4.4 0 0 0-.65.32l.03 2.48a.4.4 0 0 0 .15.31zm-33.03-3.167a.93.52 30.6 0 0-.535-.92.93.52 30.6 0 0-1.065-.026.93.52 30.6 0 0 .535.92.93.52 30.6 0 0 1.066.026m14.802.083a.89.48 43.8 0 0-.31-.962.89.48 43.8 0 0-.974-.27.89.48 43.8 0 0 .31.962.89.48 43.8 0 0 .974.27m12.418-.336q-.25-.28-.61-.38-.52-.13-.36.38.38 1.19 1.68 1.14a.3.3 0 0 0 .22-.5q-.25-.29-.6-.42a.87.84 77.8 0 1-.33-.22m37.86-.44a.34.34 0 0 0-.54.32l.33 2.61a.34.34 0 0 0 .09.2l1.84 1.85a.34.34 0 0 0 .58-.24l.03-2.78a.34.34 0 0 0-.13-.27zm-66.03 6.64q-.96-2.33-2.1-4.33c-.51-.88-1.77-.89-2.71-1.17q-.89-.28-.54.59c1.19 2.93 2.58 3.35 4.69 5.35q1.38 1.31.66-.44m10.24-3.51q.12.16.3.25.49.24.3-.28-.43-1.16-1.22-1.8a.48.48 0 0 0-.78.42q.09.9 1.04 1.18.22.06.36.23m-20.77.37a1.08.57 53.6 0 0-.181-1.208 1.08.57 53.6 0 0-1.1-.531 1.08.57 53.6 0 0 .182 1.207 1.08.57 53.6 0 0 1.1.531m1.4-1.39q.03-.06.01-.12a.04.04 0 0 0-.08-.01q-.03.04-.04.09-.05.32.11.04m4.22 4.46q1.31 1.12.55-.42l-1.96-4q-.31-.63-.87-.2l-1.11.85a.54.54 0 0 0-.03.84zm20.22 1.62q.55.46.56-.26l.05-2.51a.51.48 22.7 0 0-.16-.36q-1.96-1.75-4.22-3.34a.04.04 0 0 0-.07.04q1.08 4.15 3.84 6.43m-1.54-6.2q-.14.28.15.39.28.1.5-.14a.28.28 0 0 0-.17-.47q-.34-.05-.48.22m-13.75.35q-.05.16.2.19.22.03.08-.22a.15.15 0 0 0-.28.03m16.93.55c-.8 1.84 1.29 2.86 2.83 2.92q.44.02.35-.41-.41-2.1-2.15-2.91-.72-.33-1.03.4m13.92 1.52q.19-1.63-1.78-1.6-.55 0-.38.53.7 2.16 1.98 3.66.6.69.38-.2-.33-1.28-.2-2.39m-29.55-.99c.48.52.82.84 1.21 1.44q.28.42.49-.04.13-.3.02-.58-.39-.95-1.49-1.22-.79-.19-.23.4m5.09 2.39 4.84 3.89a.54.54 0 0 0 .87-.38l.1-1.38q.05-.8-.51-1.37-2.89-2.93-7.51-3.2-.54-.03-.32.47.49 1.09 1.56 1.45.53.17.97.52m30.384.32a1.38.44 63.1 0 0-.232-1.43 1.38.44 63.1 0 0-1.016-1.03 1.38.44 63.1 0 0 .232 1.43 1.38.44 63.1 0 0 1.016 1.03m-46.154-1.93q-.8-.5-.2.23 1.37 1.65 3.29 2.77.86.51.19-.23-1.44-1.6-3.28-2.77m47.04 11.66q-2.58-5.64-5.23-10.81-.86-1.66-.67.2.27 2.62.08 5.84a1.47 1.45-71.3 0 0 .62 1.27q2.53 1.75 4.76 3.82 1.03.96.44-.32M115.06 23.4q.11.19.33.23.41.06.26-.33-.19-.48-.65-.51-.31-.02.06.61m69.33-.2q-.56 1.08.35 1.89.66.58.49-.29l-.29-1.52q-.17-.82-.55-.08m-46.668 1.718a1.26.44 42.3 0 0-.636-1.173 1.26.44 42.3 0 0-1.228-.523 1.26.44 42.3 0 0 .636 1.173 1.26.44 42.3 0 0 1.228.523m10.428-1.098.37-.04q-.19-.1-.37.04m-4.96.01q-.19-.37-.29.03-.97 3.56 1.99 4.83.9.39.47-.49zm-24.61 5.15a.4.4 0 0 0 .65-.32l-.06-2.51a.4.4 0 0 0-.15-.31l-1.93-1.53a.4.4 0 0 0-.65.32l.05 2.47a.4.4 0 0 0 .15.31zm1.36-3.9 1.72 3.48q.23.46.73.55l2.84.52q1.38.25.29-.63l-5.24-4.19q-.79-.64-.34.27m15.83 3.21q.11.11.18.25.41.87.24-.08-.16-.91-.95-1.37c-1.07-.62-2.1-1.59-3.04-2.42q-.61-.53-.65.28l-.08 1.55q-.04.83.78.99l3.19.63q.19.03.33.17m46.59-3.03q.29.1.22-.2-.04-.2-.2-.28-.17-.09-.24.09-.1.28.22.39m-68.655 1.675a1.31.44 41.9 0 0-.681-1.202 1.31.44 41.9 0 0-1.269-.548 1.31.44 41.9 0 0 .681 1.203 1.31.44 41.9 0 0 1.269.547m21.175-1.395q.14.31.49.37.44.07.29-.35-.19-.51-.61-.4-.31.09-.17.38M152.4 30a.39.39 0 0 0 .64-.32l-.16-2.58a.4.4 0 0 0-.14-.27l-1.91-1.64a.39.39 0 0 0-.64.32l.14 2.55a.4.4 0 0 0 .14.28zm-11.36-.37q.12.11.18.24.38.77.33-.08-.19-3.75-3.95-3.85-.55-.02-.4.5.78 2.76 3.57 3.07.15.02.27.12m45.64 4.72q.03-2.56.1-5.29a2.14 2.12-69.2 0 0-.75-1.69l-1.15-.97q-.87-.74-.87.4c.02 3.85-.75 9.01 1 12.52q2.37 4.76 4.71 9.58.96 1.97.83-.22c-.11-2.03.29-3.87-.7-5.8-1.33-2.6-3.19-5.62-3.17-8.53m-57.496-6.48a.76.56-24.1 0 0-.923-.201.76.56-24.1 0 0-.465.821.76.56-24.1 0 0 .923.201.76.56-24.1 0 0 .465-.821M116 29.57q.58 1.14.55 2.68-.12 6.09-.06 11.76.01.53.3.97 1.78 2.71 3.06 5.94c.97 2.46 3.19 3.75 5.13 5.35q.88.73.4-.31c-1.05-2.28-2.52-4.35-2.45-6.98.08-2.78.51-5.93-.79-8.49q-2.36-4.67-4.31-9.05-1.19-2.69-4.09-3.48-.71-.2-.45.49.75 2 1.91 3.64.42.6.47-.13c.06-.77-.46-1.42-.22-2.33q.19-.76.55-.06m15.16-.44q-.23-.62-.83-.91-.45-.22-.19.21.31.52.82.87.35.23.2-.17m-9.814 2.147a1.4.44 64.8 0 0-.198-1.454 1.4.44 64.8 0 0-.994-1.08 1.4.44 64.8 0 0 .198 1.454 1.4.44 64.8 0 0 .994 1.08m14.144-2.167q-1.17-.17-2.05-.24-.65-.06-.16.37.86.72 1.83.75.64.02.62-.62-.01-.23-.24-.26m8.731.875a.86.46 37.6 0 0-.4-.89.86.46 37.6 0 0-.962-.16.86.46 37.6 0 0 .4.89.86.46 37.6 0 0 .962.16m10.679.075q-.22-.95-.55-.03-.47 1.3.54 2.16.62.54.44-.26zm-24.31 15.83c-.12-2.24.28-4.67-.76-6.71q-1.96-3.86-3.61-7.51-.39-.84-1.3-1.05l-1.69-.38q-.87-.2-.49.61 5.58 11.69 7.3 15.11.08.16.25.19.32.06.3-.26m-2.01-15.52a.3.3 0 0 0 .28.48q.24-.03.42-.18.31-.25-.04-.43-.39-.21-.66.13m9.81 2.86q1.83 1.86.88-.57-1.2-3.02-3.02-1.93a.5.5 0 0 0 .01.85q1.2.71 2.13 1.65m-22.93 7.2q.73-5.33-2.25-9.56-.33-.46-.41.09-.75 5.2 2.21 9.57.36.53.45-.1m2.87-9.56q.19.04.36-.09a.14.13-48.1 0 0-.01-.22q-.26-.17-.43-.08-.49.25.08.39m21.36-.02q-.43-.26-.21.2l5.19 10.78q1.05 2.17.84-.23c-.18-2.03.34-4.15-.8-6.09q-1.5-2.51-5.02-4.66m3.21.763a.52.29 39.8 0 0-.214-.556.52.29 39.8 0 0-.585-.11.52.29 39.8 0 0 .213.556.52.29 39.8 0 0 .585.11m2.523 2.005a1.47.58 67.5 0 0-.027-1.58 1.47.58 67.5 0 0-1.098-1.136 1.47.58 67.5 0 0 .026 1.58 1.47.58 67.5 0 0 1.099 1.136m44.527 7.212a.3.3 0 0 0 .57-.13l-.04-5.03a.3.3 0 0 0-.03-.13l-2.15-4.57a.3.3 0 0 0-.57.13l.04 5.03a.3.3 0 0 0 .03.13zm-57.42-5.98a.43.43 0 0 1 .55.22l6.62 13.73q.22.46.66.73 3.53 2.23 6.73 5.09a1.81 1.8 55.6 0 0 1.85.35q.36-.13.4-.66a.64.63-68.4 0 0-.23-.55q-2.63-2.18-5.27-4.27c-2.04-1.62-2.91-4.58-4.14-6.93-.62-1.19-.63-2.39-1.4-3.48-1.5-2.11-2.55-4.8-3.66-7.16q-.25-.53-.84-.56-.93-.05-1.87.29-.47.17-.47.66l.01 5.37q0 .62.49 1.02l2.26 1.81q.65.53.28-.23l-2.42-4.91q-.14-.27.14-.39zm19.7-2.74a.26.26 0 0 0 .47-.12q.02-.21-.07-.39-.25-.5-.46.02-.1.26.06.49m-22.35-.26-1.6-.42a.5.49-1.6 0 0-.6.63q.78 2.37 1.97 4.39.75 1.28.78-.2l.1-3.55q.01-.68-.65-.85m-7.5 4.99a.39.39 0 0 0 .65-.31l-.14-2.56a.4.4 0 0 0-.14-.28l-1.89-1.62a.39.39 0 0 0-.64.32l.12 2.5a.4.4 0 0 0 .13.28zm24.23-2.67q.24.77 1.16.8.67.03.49-.62-.35-1.25-1.05-2.03-.64-.73-.66.25-.01.38-.03.74a2.54 2.47-51.8 0 0 .09.86m-9.63-.81q-.67-.42-.41.33 1.74 5.1 6.37 7.85.52.3.34-.26-1.56-4.91-6.3-7.92m19.79 3.16q.25-2.14-2.04-3.37-.54-.29-.67.31-.74 3.47 2.73 4.43.81.22.28-.43-.36-.43-.3-.94m29.94 15.24q.01-3.02.03-5.91a1.14 1.14 0 0 0-.4-.89q-2.06-1.77-4.24-3.35c-2.55-1.86-3.71-5-4.91-7.75q-.75-1.73-.72.16c.04 2.34-.25 4.17.79 6.36q6.11 12.79 12.61 26.23.63 1.3.65-.15.01-1.73 0-3.5c-.03-3.95-3.84-6.89-3.81-11.2m-35.413-16.006a1.34.42 41.3 0 0-.73-1.2 1.34.42 41.3 0 0-1.284-.568 1.34.42 41.3 0 0 .73 1.2 1.34.42 41.3 0 0 1.284.568m-2.147.996a.19.19 0 0 0 .15-.24q-.08-.26-.34-.26-.65-.02-.27.35.2.19.46.15m-23.83 1.85-.47-1.71q-.26-.93-.57-.01-.41 1.23.58 2.02.7.56.46-.3m21.24-1.02q2.02 3.57 3.61 7.07 1.11 2.45 4.99 4.66.71.4.31-.31-1.91-3.34-3.46-7c-1-2.35-2.68-3.89-4.78-5.09q-1.55-.89-.67.67m5.82 3.27q.18.41.31-.02.48-1.5.29-3.08-.1-.75-.85-.84l-.84-.09q-.66-.08-.4.53zm6.72-1q-.01-1.09-.85-1.75-.64-.49-.48.3.22 1.05.98 1.63.35.27.35-.18m-36.91-1.35q-.2.32 0 .58a.3.3 0 0 0 .48-.03q.22-.35-.05-.6a.29.28-51.1 0 0-.43.05m32.06.22c-1.13 5.89.54 8.02 5.06 11.09q.72.49.36-.3l-5.05-10.83q-.25-.55-.37.04m2.09.87q-.12.29.13.53.24.23.4-.06.2-.35-.09-.58-.29-.24-.44.11m-29.68 2.1a.33.33 0 0 0-.12-.25l-1.98-1.58a.33.33 0 0 0-.54.25l-.04 5.38a.33.33 0 0 0 .12.25l2.15 1.82a.33.33 0 0 0 .54-.26zm5.99 6.18q3.2 2.48 6.53 5.19 1.7 1.39 4.21 1.55.9.05.2-.53c-1.7-1.42-3.58-2.43-4.64-4.54-1.08-2.16-2.34-5.98-4.3-7.46q-1.25-.94-2.45-1.96-.72-.62-.72.33l-.02 7.05q0 .29.29.33.24.03.47-.04a.49.47-33.3 0 1 .43.08m20.97 2.08q.28-.32-.07-.56c-1.67-1.12-3.26-2.21-4.17-4.12q-1.02-2.14-2.07-4.22-1.11-2.17-.85.25.14 1.27-.01 2.63-.07.58.4.93 3.29 2.41 6.52 5.29.05.04.09-.01zm-5.85.65q-1.22-2.43-2.36-4.91c-.91-1.96-3.05-3.26-4.71-4.56q-1-.78-.42.36 1.16 2.28 2.26 4.68c.96 2.09 3.03 3.4 4.82 4.77q.95.73.41-.34m13.37-4.64q.55.85 1.26 1.61.66.69.42-.23-.37-1.45-1.84-2.03-.58-.23-.48-.84.37-2.37-2.14-3.48-.53-.24-.59.35-.34 3.66 2.88 4.28.32.06.49.34m15.45 20.51.32-.16q.21-.11.31.1 1.51 2.83 2.74 5.69c1.01 2.35 3.17 3.59 5.04 5.18q.87.75.4-.3c-1.06-2.35-2.45-4.23-2.44-6.98q0-2.25.09-4.42.07-1.96-1.06-4.34-2.74-5.76-5.44-11.32a.88.88 0 0 0-.56-.45q-3.01-.74-5.86-1.32c-2.8-.57-5.11-2.94-7.36-4.74q-1.15-.93-.51.4l27.45 57.14q.87 1.82.85-.2c-.03-1.97.23-4.1-.71-5.94q-1.16-2.26-2.27-4.53c-1.33-2.74-.9-6.58-.83-9.62q.02-.79-.61-1.26c-2.71-2.03-5.88-4.1-7.28-7.24q-1.17-2.61-2.42-5.26-.13-.29.15-.43m-46.05-16.86q-1-2.34-2.25-4.94-.43-.88-.53.1-.2 2.03.11 3.44.44 2.05 3.1 2.07.29.01.47.23.91 1.15 2.56 1.27.74.05.18-.45-1.08-.96-2.17-1.58-.21-.11-.44-.02-.05.02-.08.05-.61.62-.95-.17m21.84.88q-2.45-1.91-4.89-3.93-.87-.72-.37.3c1.05 2.14 1.63 4.44 3.65 5.93q2.81 2.08 5.39 4.28a.36.36 0 0 0 .59-.27l-.02-4.17q-.01-.67-.65-.85c-1.27-.36-2.64-.47-3.7-1.29m-25.67 14.88q-.1-2.91.04-5.59a1.62 1.61-69.8 0 0-.63-1.38q-2.39-1.86-4.76-3.76c-2.29-1.85-2.95-4.96-4.44-7.41q-.51-.83-.47.14.05 1.68.01 3.36-.04 1.58.96 3.66 6.02 12.57 12.22 25.44.99 2.05.92-.23-.05-1.58-.07-3.13c-.04-2.21-1.76-4.79-2.71-6.79q-1-2.1-1.07-4.31m3.93-2.28c-.48-2.44.37-4.46-.93-6.87q-1.76-3.27-2.92-6.3-.6-1.57-2.12-2.49-.51-.3-.6.29-.34 2.39.41 4.02 2.76 5.93 5.49 11.36.1.18.27.28.5.27.4-.29m29.28-15.7q.18.54.75.77.37.15.21-.21-.22-.52-.72-.78a.18.17-86.8 0 0-.24.22m30.03 10.84a.3.3 0 0 0 .57-.13l-.03-5.06a.3.3 0 0 0-.03-.13l-2.14-4.63a.3.3 0 0 0-.57.13l.04 5.09a.3.3 0 0 0 .03.12zm-27.94-9.59a.3.3 0 0 0-.49.23v2.72a.3.3 0 0 0 .11.23l2.1 1.66a.3.3 0 0 0 .48-.23l.01-2.7a.3.3 0 0 0-.11-.24zm-5.13 1.43q.4.76 1.17.91.55.1.32-.42-.34-.77-1.14-.95-.67-.15-.35.46m24.53 2.192a1.41.43 63.5 0 0-.245-1.454 1.41.43 63.5 0 0-1.014-1.07 1.41.43 63.5 0 0 .244 1.454 1.41.43 63.5 0 0 1.014 1.07m-52.76-1.552q-.7-.37-.35.34l1.73 3.55q.4.82.53-.08.39-2.58-1.91-3.81m50.31 1.38q.6.1-.27-.59a.15.15 0 0 0-.24.17q.12.36.51.42m-18.49 2.09q.26-1.67-1.65-2.02-.6-.11-.46.48.5 2.17 1.81 3.69.83.98.5-.26l-.12-.45q-.19-.71-.08-1.44m-12.51 46.65q3.29 6.35 6.18 12.87c1.64 3.69 6.32 6.42 9.44 8.97q.52.44.61-.24.18-1.37-.1-2.55a1.1 1.07 14.3 0 0-.37-.6c-2.55-2.16-5.86-3.96-7.24-7.12q-1.26-2.86-2.61-5.56-.12-.23.11-.36l.22-.13q.35-.19.54.16 1.51 2.75 2.75 5.67c.95 2.24 3.13 3.61 4.99 4.97q.88.65.39-.33c-1.08-2.14-2.44-4.12-2.41-6.59.03-2.98.53-5.98-.85-8.8q-2.17-4.45-4.21-8.65-.22-.45.29-.43.17.01.32.08.69.34.7-.43l.02-4.47q.01-.55-.42-.89c-2.58-2.1-5.93-4.01-7.33-7.16q-1.3-2.93-2.53-5.46-.17-.33.19-.45l.3-.09q.25-.09.37.15 1.31 2.49 2.58 5.41c1.08 2.47 3.22 3.73 5.16 5.36q.6.5.33-.23-.56-1.52-1.4-3.02c-2.29-4.07.27-8.62-1.9-12.74q-1.4-2.66-2.48-5.19-.25-.59-.88-.47c-1.44.27-2.69.76-4.17.44q-3.47-.73-7.14-1.66-.35-.09-.27-.44l.06-.24a.38.37-76.5 0 1 .44-.28q3.9.87 7.61 1.77.84.2 2.98-.59.67-.24.3-.85c-.72-1.2-3.15-1.19-4.38-2.34q-5.22-4.88-12.06-5.88-.6-.08-.6.52v38.53q0 .63.48 1.03l3.21 2.63q1.13.92.5-.39l-2.02-4.19a.34.34 0 0 1 .16-.46l.29-.14q.31-.15.47.17l11.15 23.19q.25.53.76.82 2.73 1.54 5.21 3.85c1.85 1.73 4.39 2.13 6.8 2.53q.96.16.2-.45-1.52-1.23-2.95-2.38c-3.17-2.56-3.07-7.41-6.34-9.94q-1.66-1.29-3.38-2.59c-2.79-2.12-4.21-6.1-5.58-9.29q-.18-.41.24-.54l.27-.08q.21-.07.3.13 1.42 2.93 2.83 5.86c1.13 2.36 3.03 3.39 4.93 5.03q.08.06.25.11.11.02.24-.12.05-.04.01-.1-1.86-3.47-2.28-5.06a.39.39 0 0 1 .72-.28m33.07-47.71a.48.48 0 0 0-.81.38l.15 2.34a.48.48 0 0 0 .15.32l1.73 1.59a.48.48 0 0 0 .81-.39l-.17-2.36a.48.48 0 0 0-.15-.32zm-14.492 2.506a1.34.42 59.6 0 0-.316-1.368 1.34.42 59.6 0 0-1.04-.944 1.34.42 59.6 0 0 .316 1.368 1.34.42 59.6 0 0 1.04.944m-.058 10.584-1.64-.81q-.5-.25-.49.31.01.43.5.72 1.18.71 1.63-.22.67-.05.87-.34.16-.23.03-.5-2.52-5.01-4.7-9.82-.09-.2-.3-.3l-.4-.2q-.35-.17-.15-.5.17-.29-.06-.49-.28-.26-.27.12l.03 6.48a1.47 1.46 19.1 0 0 .56 1.15l4.47 3.51q.39.31.08.69zm-13.8-10.386a1.17.47 34 0 0-.707-1.044 1.17.47 34 0 0-1.233-.264 1.17.47 34 0 0 .707 1.044 1.17.47 34 0 0 1.233.264m5.09-.374q-.68 3.25 2.24 4.55.72.32.38-.39l-1.98-4.24q-.43-.92-.64.08m5.67-.1q1.02.1.15-.43-.19-.11-.42-.04-.27.09-.07.3.14.15.34.17m-19.73.44q-.18-.08-.38-.12-.87-.16-.23.46 1.57 1.53 3.39 2.46a.47.46 6 0 0 .66-.53q-.56-2.09-2.97-2.17-.24 0-.47-.1m4.46.98q.22.13.44.05a.33.33 0 0 0-.03-.63q-.33-.07-.49.18a.29.28-57.7 0 0 .08.4m17.45-.45a.34.34 0 0 0-.54.32l.35 2.63a.34.34 0 0 0 .09.19l1.83 1.85a.34.34 0 0 0 .58-.24l.02-2.79a.34.34 0 0 0-.13-.27zm-14.114 2.734a1.43.42 58.1 0 0-.4-1.436 1.43.42 58.1 0 0-1.112-.992 1.43.42 58.1 0 0 .4 1.436 1.43.42 58.1 0 0 1.112.992m1.114-1.984a.35.35 0 0 0-.41.5l1.21 2.39a.35.35 0 0 0 .22.18l2.6.73a.35.35 0 0 0 .41-.49l-1.22-2.41a.35.35 0 0 0-.22-.18zm32.67 2.42-.49-1.82a.23.23 0 0 0-.44-.02q-.51 1.36.43 2.16.76.64.5-.32m-36.91-.96q.11.31.4.04a.18.17 32.3 0 0-.07-.3q-.48-.14-.33.26m33.8.98q-.08.28.1.5.23.27.39-.04.15-.28.01-.52a.28.27-51.4 0 0-.5.06m-22.705 2.319a1.18.39 49.6 0 0-.468-1.152 1.18.39 49.6 0 0-1.062-.646 1.18.39 49.6 0 0 .468 1.152 1.18.39 49.6 0 0 1.062.646m-8.505-1.409q.01-.05-.03-.09-.08-.11-.17.01-.04.04-.06.08-.16.21.09.13.06-.01.12-.04.05-.03.05-.09m18.88.73q-.09-.39-.32-.06-.31.44-.37 1.02-.03.33.17.59.19.25.44.44.65.49.47-.3zm16.12.84-1-.94q-.93-.86-.93.4c-.03 3.77-.77 9.05.93 12.45q2.35 4.71 4.78 9.75.9 1.87.81-.2c-.08-2.06.22-4.02-.71-5.92q-1.1-2.23-2.26-4.6c-1.3-2.66-.91-6.05-.84-9.08q.03-1.11-.78-1.86M153 61.95a.45.45 0 0 0-.62-.43l-1.73.69a.45.45 0 0 0-.16.73l1.68 1.7a.45.45 0 0 0 .77-.31zm-24.78.12q-.31-.45-.39.09-.83 5.26 2.25 9.75.27.39.34-.08.86-5.23-2.2-9.76m26.44.59L160 73.7a.34.34 0 0 0 .64-.21c-.43-2.4.39-5.05-1.11-7.1q-1.47-2.01-4.37-4.15-1.1-.81-.5.42m2.49.01q.11.22.52.2a.24.23 72 0 0 .18-.36q-.11-.18-.32-.26a.31.3 87.4 0 0-.38.42m3.25 2.082a1.25.61 64.9 0 0 .022-1.39 1.25.61 64.9 0 0-1.082-.874 1.25.61 64.9 0 0-.022 1.39 1.25.61 64.9 0 0 1.082.874m7.02-1.772q-.31-.06-.25.22.05.22.25.12.13-.06.1-.24a.14.14 0 0 0-.1-.1m-5.9 1.74q-.23 1.25 1.15 1.46.95.15.54-.72l-.91-1.97a.47.46-55.1 0 0-.88.16q-.03.29.06.55t.04.52m-40.36 1q.53.49.43-.22-.16-1.08-.96-1.76-.71-.6-.48.3.26 1 1.01 1.68m48.76-1.28q-.03-.18-.2-.26-.38-.19-.52.21-1.15 3.47 2.34 4.68.33.12.36-.22.34-2.93-1.69-4.01-.24-.13-.29-.4m-15.02.55q.01-.22-.12-.41a.25.25 0 0 0-.44.03q-.63 1.36.69 2.13a.28.27 2.8 0 0 .39-.35l-.42-.92q-.11-.23-.1-.48m35.21 10.5q.21.3.27-.06.93-5.43-2.22-9.79-.29-.4-.36.09-.76 5.41 2.31 9.76M52.56 66.7q.81 1.69 1.68 3.32 1.21 2.25 4.66 4.41.56.35.35-.28-1.74-5.12-6.28-7.83-.82-.49-.41.38m100.17.09q.17-.38-.17-.61a.27.27 0 0 0-.42.2q-.04.38.29.53.2.09.3-.12m-31.84-.15a.39.39 0 0 0-.65.31l.11 2.57a.4.4 0 0 0 .13.27l1.89 1.75a.39.39 0 0 0 .65-.31l-.13-2.61a.4.4 0 0 0-.13-.27zm43.01 1.23q.18.31.48.45.42.2.19-.2-.31-.58-.85-.84-.25-.12-.19.15.03.15.2.26.1.07.17.18m-3.24 23.18c-.35-1.24-.1-2.81-.17-4.14-.11-2.29-1.78-4.82-2.8-6.92-1.43-2.95-1.03-6.43-.93-9.56q.03-.87-.62-1.46l-1.25-1.14q-.83-.75-.84.37-.04 4.04-.11 8.05-.04 2.15 1.22 4.76 2.37 4.91 4.85 10.04.06.11.15.16.12.07.26.1.33.07.24-.26m5.14-20.15a.34.34 0 0 0-.09-.12l-3.93-3.07a.34.34 0 0 0-.51.42l4.71 9.23a.34.34 0 0 0 .09.12l3.65 2.92a.34.34 0 0 0 .52-.42zm.1-2.3 1.37 3.25q.32.74.51-.04.4-1.61.1-3-.21-.95-1.17-.86l-.44.04q-.61.05-.37.61m6.88 1.01q.1.87.67 1.27.59.42.55-.31-.06-.84-.71-1.27-.59-.4-.51.31m-2.9.38q-.3-1.18-.57 0-.8 3.44.13 6.14c.74 2.14 2.86 3.49 4.61 4.85q1.3 1.01.56-.46c-1.66-3.32-3.86-7.18-4.73-10.53m1.74.91q.15-.43-.17-.22a.27.26-27.9 0 0-.1.31q.1.31.31.39.15.05.2-.12.03-.13-.16-.2-.12-.04-.08-.16m-2.79 9.98q-4.55-2.71-6.35-8.63-.16-.52-.62-.78-.44-.25-.42.26l.13 3.52q.02.62.52 1 3.15 2.39 6.28 5.05.18.15.33-.04l.16-.21a.12.11 35.5 0 0-.03-.17m-44.01-9.46a.11.11 0 0 0-.18-.08q-.9.79-.23 1.74.21.3.55.41.79.26.36-.46-.45-.73-.5-1.61m33 1.1q-.76 5.4 2.17 9.72.38.55.47-.11.72-5.28-2.28-9.7-.29-.43-.36.09m17.474 4.234a2.55 1.14 63.6 0 0-.113-2.79 2.55 1.14 63.6 0 0-2.155-1.778 2.55 1.14 63.6 0 0 .113 2.79 2.55 1.14 63.6 0 0 2.155 1.778M122.41 73.28q.01.05.01.11.06.52.13 0 .01-.1-.05-.16-.12-.12-.09.05m4.25 9.3q.05-2.52.1-5.23.01-.94-.68-1.58l-1.19-1.12q-.88-.81-.88.38.01 3.94-.07 8.19c-.07 3.48 2.75 7.79 4.33 10.95q.55 1.12 1.72 1.5.65.21.59-.47c-.12-1.36.03-2.36-.61-3.66-1.37-2.76-3.36-5.97-3.31-8.96m51.158-3.659a1.42.41 56.3 0 0-.447-1.409 1.42.41 56.3 0 0-1.129-.953 1.42.41 56.3 0 0 .447 1.409 1.42.41 56.3 0 0 1.129.953M162.66 97.2q.15-.07.23.08 3.34 6.51 6.4 13.26.88 1.93 2.85 3.53 3.33 2.7 6.47 5.22.55.44.58-.25l.09-2.01q.04-.67-.48-1.1-2.03-1.7-4.18-3.25c-2.78-2.02-4.29-6.33-5.72-9.42q-.07-.15.05-.26l.25-.23a.33.32 53.3 0 1 .51.08q1.6 2.88 2.84 5.78c.95 2.2 3.04 3.36 4.78 4.88q.81.72.42-.3-.64-1.66-1.46-3.19c-2.04-3.8.35-8.34-1.66-12.26q-.96-1.87-1.85-3.56c-1.65-3.1-1-7.09-1.06-10.48q-.01-.66-.66-.78c-1.52-.27-2.84-.49-4.09-1.5q-2.6-2.08-4.86-4.02-.6-.52-.6.27l-.03 22.3q0 .54.38.93.96.98 2.11 1.8.89.62.41-.35l-2.25-4.52q-.16-.32.16-.47zm13.02-17.94q.36.14.17-.19-.22-.4-.6-.63-.8-.47-.27.29.26.37.7.53m-45.18 9.03q.56-4.63-2.29-8.98-.31-.47-.39.08-.81 5.58 2.28 9.75.6.81.42-.18-.06-.34-.02-.67m-59.9-4.04c-2.69-.62-4.84-3.03-6.97-4.73q-1.04-.82-.5.39c.93 2.08 1.64 4.13 3.47 5.59q11.5 9.14 23.02 18.43.66.53.36-.26-1.56-4.13-2.9-5.21c-2.7-2.17-6.01-4.31-7.38-7.53q-1.08-2.51-2.26-4.74a1.02 1.01 82.1 0 0-.68-.52q-2.97-.69-6.16-1.42m108.06.42a.35.35 0 0 0 .57-.28l-.02-2.61a.35.35 0 0 0-.13-.27l-2.01-1.61a.35.35 0 0 0-.57.27l.01 2.6a.35.35 0 0 0 .13.27zm-5.138-1.936a1.26.39 49.9 0 0-.514-1.215 1.26.39 49.9 0 0-1.11-.713 1.26.39 49.9 0 0 .514 1.215 1.26.39 49.9 0 0 1.11.713M190.39 92.75q.9-5.13-2.13-9.68-.32-.48-.41.09-.84 5.24 2.24 9.65.23.33.3-.06m-14.9-7.43q.41-1.32-1.37-1.71-1.06-.23-.67.78.69 1.79 1.71 3.19.49.66.41-.16-.06-.64-.15-1.31-.05-.4.07-.79m-50.21 4.95q-1.58-3.84-5.6-6.19-.56-.33-.35.28c1.1 3.13 2.94 4.45 5.4 6.33q1.06.81.55-.42m55.84-3.6q.62.61.46-.24-.19-1.04-1.02-1.84a.3.29-75.3 0 0-.49.29q.26 1.01 1.05 1.79m-4.59-1.58a.05.05 0 0 0-.09.02l.09 14.71a1.47 1.46-62.5 0 0 .24.77q1.77 2.66 3.02 5.78c.96 2.42 3.12 4.02 5.19 5.41q.9.6.38-.35-.89-1.65-1.62-3.27c-1.85-4.07.39-8.23-1.72-12.34q-2.24-4.36-4.22-8.76c-.33-.72-.86-1.27-1.27-1.97m-1.05 10.92q.72-5.17-2.25-9.56-.31-.45-.38.09-.55 4.18.65 6.71.71 1.49 1.43 2.85.42.81.55-.09m2.9-9.69q.03-.01.07-.02.31-.05.01-.06-.05-.01-.1.02-.11.08.02.06m-94.01 8.62q.86.56 1.54 1.26.54.55.33-.19-1.51-5.22-6.44-8.22-.48-.29-.29.24 1.71 4.86 4.86 6.91m96.64-7.24a.48.48 0 0 0-.81.38l.17 2.39a.48.48 0 0 0 .15.32l1.73 1.65a.48.48 0 0 0 .81-.39l-.18-2.4a.48.48 0 0 0-.14-.32zm-23.23 2.25q-.7 5.71 2.31 9.45a.17.16-60.1 0 0 .29-.08q.83-5.19-2.17-9.48-.35-.5-.43.11m27.18 3.07q.02-.28-.09-.54-.22-.5-.46-.01-.21.39-.25.79-.07.8.78 1.23.65.34.43-.36-.12-.36-.31-.68-.11-.2-.1-.43M75.31 94.26q-.23-1.25-1.56-1.66-.87-.27-.25.39.73.76 1.35 1.49.63.72.46-.22m56.15 1.62a2.15 2.15 0 0 0 .81 1.72l6.85 5.48q.61.48.37-.25-1.15-3.55-2.96-5.22-2.03-1.86-4.45-3.65-.59-.43-.6.29zm51.18-1.25q-.23-.72-.39-.43-.06.12-.05.24.02.26.25.37a.14.14 0 0 0 .19-.18m-109.56.75q.17.31.42.31.68.01.18-.45-.16-.14-.42-.15-.35-.01-.18.29m4.99.86a.48.48 0 0 0-.28-.23l-2.23-.66a.48.48 0 0 0-.56.69l1.12 2.02a.48.48 0 0 0 .28.23l2.21.66a.48.48 0 0 0 .56-.69zm109.55 11.43c-1.39-2.81-.92-6.4-.86-9.39q.02-.91-.65-1.52l-1.22-1.12q-.81-.74-.84.36-.12 3.95-.04 8.11.06 2.69 1.09 4.74 2.45 4.86 4.73 9.62.59 1.23.7-.13.11-1.56-.01-3.56c-.13-2.34-1.86-4.98-2.9-7.11M128.1 96.64a.43.43 0 0 0-.37.63q.28.51.86.54a.42.42 0 0 0 .44-.46q-.07-.72-.93-.71m2.2 1.09q.14.64.79.69.52.04.21-.38-.32-.43-.79-.53a.18.18 0 0 0-.21.22m-49.58.41q-.81-.42-.4.39.52 1.01 1.52 1.19.83.14.27-.48-.62-.7-1.39-1.1m47.89 1a.8.8 0 0 0-.99.86q.33 3.31 2.41 6.38.41.6.46-.12c.14-2.27.56-6.5-1.88-7.12m3.49 17.75q.06-.06.13-.01 6.28 4.77 11.49 9.19c3.07 2.61 8.38 3.01 12.19 3.93q.9.21.54-.63l-.6-1.42q-.35-.82-1.2-1.04c-3.21-.84-6.85-1-9.5-3.22q-2.42-2.02-4.75-3.94-.49-.41.09-.69l.24-.12q.06-.02.11.01 2.58 1.86 4.97 3.96c1.92 1.69 4.25 1.88 6.63 2.47q.85.21.25-.43-1.09-1.14-2.49-2.08c-3.73-2.48-3.46-8.04-7.36-10.8q-1.65-1.17-3.34-2.53c-2.22-1.79-3.37-5.09-4.5-7.64-.58-1.31-1.63-1.84-3.03-1.75q-.51.04-.51.56.05 7.72-.05 15.8-.03 2.28.75 3.33 1.24 1.7 3.61 1.54.68-.05.12-.44-2.21-1.56-4.04-3.42-.17-.18 0-.36zm57.86-6.67a.3.3 0 0 0 .57-.13l-.04-5.08a.3.3 0 0 0-.03-.13l-2.15-4.61a.3.3 0 0 0-.57.13l.05 5.1a.3.3 0 0 0 .03.12zm-110.52-9.71q.13.36.53.41a.26.25 78.5 0 0 .25-.38q-.15-.26-.44-.36a.26.26 0 0 0-.34.33m8.13 6.75q-1.22-2.64-2.44-5.19-.35-.72-1.13-.87l-1.71-.34q-.93-.19-.5.66c1.75 3.46 3.24 8.48 6.32 10.86q4.5 3.47 9.06 7.18.91.75.39-.32-.78-1.56-1.55-3.19c-1.82-3.84-6.61-4.78-8.44-8.79m15.12 16.73 12.41 9.93a4.19 4.12 70.3 0 0 1.68.81l9.14 2.09q1.04.24.55-.71l-.72-1.39q-.46-.89-1.44-1.1c-3.05-.63-6.67-1.03-9.07-3.03q-2.51-2.08-4.93-4.07-.18-.14-.05-.32l.18-.25q.21-.3.51-.08 2.54 1.84 4.88 3.9c1.87 1.65 4.32 1.94 6.67 2.39q.89.17.21-.43-1.29-1.14-2.57-2.05c-3.61-2.54-3.34-7.81-6.89-10.42q-1.71-1.26-3.43-2.57c-2.7-2.06-3.75-5.84-5.31-8.79q-.22-.43-.69-.54-2.79-.68-5.59-1.35-2.24-.54-3.99-1.9-1.86-1.45-3.54-2.87-1.19-1.02-.51.39l12.21 25.47a1.08 1.07-5.7 0 0 .73.59l2.52.61q1.19.29.23-.48l-3.89-3.09q-.23-.18-.05-.41l.2-.26q.24-.32.55-.07m33.8-21.23q1.8 5.36 6.51 8.16.46.27.29-.23-1.77-5.35-6.54-8.14-.4-.24-.26.21m40.76 7.03c4.25 8.58 8.22 17.32 12.52 25.89q.85 1.68.78-.2c-.07-2.1.26-4.02-.72-6.01-1.39-2.84-3.32-5.75-3.15-9.04q.14-2.67.01-5.41a1.19 1.16 18.9 0 0-.44-.87q-2.15-1.74-4.5-3.54c-2.45-1.88-3.33-4.89-4.57-7.55q-.65-1.38-.68.15c-.05 2.23-.3 4.45.75 6.58m-15.76-6.8-.01 6.96q0 .51.41.81 3.12 2.34 6.17 4.85 1.01.83 5.55 1.49.9.13.18-.43-1.38-1.07-2.74-2.13c-3.34-2.6-3.23-7.33-6.38-9.95q-1.24-1.03-2.52-1.94-.66-.47-.66.34m-67.67 8.72q-1.59-5.41-6.51-8.25-.37-.21-.24.19 1.7 5.41 6.59 8.18.23.13.16-.12m12.7-2.13q1.7 5.3 6.38 8.1.55.33.36-.28-1.64-5.16-6.55-7.97-.3-.18-.19.15m70.81 26.34q1.39 2.64 2.67 5.52c.98 2.21 2.84 3.42 4.74 4.85q1.28.97.5-.43c-1.19-2.16-2.38-4.32-2.3-6.93.1-2.76.48-5.65-.83-8.26q-2.9-5.79-5.36-11.09-.34-.73-1.12-.91-2.89-.68-5.68-1.27c-2.84-.6-4.97-3-7.2-4.77q-1.15-.91-.52.41l27.58 57.42q.38.79.58-.06.79-3.44-.8-6.74c-1.21-2.5-2.9-5.08-2.88-7.84l.04-6a1.24 1.24 0 0 0-.43-.94q-2.07-1.74-4.15-3.25c-2.82-2.04-4.31-6.22-5.74-9.4q-.11-.23.12-.34l.24-.13q.35-.19.54.16m-10.21-.4v.08-.01q.34-.71.01-1.39-2.7-5.54-5.47-11.37-.24-.5-.78-.65-2.85-.74-5.85-1.35c-2.88-.59-5.26-3.13-7.46-4.95q-.67-.56-.38.27 1.48 4.17 3.53 5.81 7.91 6.34 16.13 12.99a.74.73-70.5 0 1 .27.57m20.74-17.94q-.88 5.38 2.18 9.81.31.46.39-.09.8-5.4-2.31-9.78-.21-.29-.26.06m-86.82 9.17q-1.64-5.02-6.13-7.69-.58-.34-.37.3 1.7 5.12 6.14 7.69.56.32.36-.3m80.66-5.41q-.41-1.12-1.08-2.07-.43-.61-.45.13-.03 1.51 1.27 2.18a.19.19 0 0 0 .26-.24m-48.96 2.03c-.76-2.48-2.68-1.84-4.09-3.39q-.1-.11-.17.01l-.15.23a.25.24-56.4 0 0 .06.32l3.92 3.12q.69.55.43-.29m46.25-1.73q.27.13.24-.17-.06-.49-.51-.7a.19.18-84.4 0 0-.26.22q.11.44.53.65m-42.24 20.21q.07.34.46.2a.32.31-22.6 0 0 .19-.44l-5.73-11.89a1.39 1.38 84.3 0 0-.91-.75q-2.63-.67-5.41-1.21c-3.12-.61-5.47-3.09-7.76-5.09q-.63-.56-.4.25 1.1 3.87 3.3 5.67 7.96 6.52 15.93 12.72.27.21.33.54m-3.19-19.18 3.06 6.35q.24.49.78.6 3.18.64 6.35 1.41c2.46.61 4.16-.07 6.44-.61q1.75-.41-.03-.73c-2.12-.38-4.41-.75-6.15-2.16q-2.09-1.69-4.21-3.41c-1.67-1.35-3.72-1.56-5.82-1.98a.38.38 0 0 0-.42.53m47.1-.43a.34.34 0 0 0-.55.3l.31 2.64a.34.34 0 0 0 .1.2l1.87 1.82a.34.34 0 0 0 .57-.24l.01-2.76a.34.34 0 0 0-.13-.27zm-14.126 2.673a1.38.42 59.8 0 0-.331-1.404 1.38.42 59.8 0 0-1.057-.982 1.38.42 59.8 0 0 .331 1.404 1.38.42 59.8 0 0 1.057.982m-2.914-.223q.13.14.32.19.3.07.23-.22-.06-.28-.37-.32-.58-.09-.18.35m3.91 5.96q.34.19.41-.18.66-3.12-1.94-4.66-.58-.35-.71.32-.54 2.9 2.24 4.52m17.49-3.07q0-.28-.1-.51-.21-.45-.46-.02-.59.96.1 1.85.91 1.2.7-.3-.01-.07-.19-.67-.04-.14-.05-.35m-2.74 1.69q.17.25.32-.01.2-.35-.05-.61a.2.19-48.5 0 0-.3.02q-.2.29.03.6m-74.51 7.31q3.26.59 6.29 1.39c1.89.5 4.05-.18 5.96-.67q1.92-.5-.03-.83c-2.24-.37-4.19-.72-6.04-2.19q-2.66-2.1-5.15-4.08-1.01-.81-4.87-1.11-.59-.05-.34.49l2.9 6.02a1.77 1.76 82.3 0 0 1.28.98m51.7-6.15q-.53-.88-1.54-1.32-.67-.29-.33.35.59 1.09 1.54 1.39.72.24.33-.42m-23.86.61q.25.39.63.6.42.22.32-.24-.19-.96-.82-1.77-.06-.08-.15-.12-.14-.06-.29.01-.36.18-.2.55.24.55.51.97m51.06 7.38q.02-2.66.11-5.4.03-1.04-.77-1.71l-1.12-.94q-.83-.7-.86.38-.08 3.75-.06 7.82.01 2.57 1.15 4.93 2.32 4.79 4.67 9.48.83 1.67.77-.2c-.08-2.25.26-3.98-.84-6.17-1.24-2.47-3.07-5.46-3.05-8.19m-16.84-7.99a.12.12 0 0 0-.2-.08q-.86.78-.26 1.72.22.34.61.49.76.3.37-.41-.45-.84-.52-1.72m-7.79 15.09q3.2 2.4 6.28 5.04.18.16.35-.03h.01q.15-.18-.02-.33c-1.53-1.38-3.37-2.53-4.28-4.4q-1.48-3.01-2.99-6.18-.14-.3.19-.35l.52-.09q.2-.03.29.15 1.4 2.94 2.78 5.83c.95 2.01 2.84 3.15 4.49 4.59q1.39 1.2.57-.44c-1.65-3.29-3.22-8.33-6.19-10.64q-5.11-3.97-9.75-7.73a1.06 1.05-32.1 0 0-.93-.21c-3.22.76-7.05 2.1-10.15 1.26q-2.53-.67-5.15-1.23a.33.33 0 0 0-.37.47q11.06 23.1 22.41 46.65.88 1.83 1.94 2.44c2.68 1.55 5.03 4.7 8.03 5.36q1.67.37 3.4.76.99.22.22-.45-1.29-1.12-2.74-2.24c-3.42-2.66-3.2-7.69-6.76-10.31q-1.92-1.41-3.71-2.86c-2.4-1.95-3.69-5.92-5.06-8.79q-.18-.39.23-.5l.31-.09q.19-.05.28.12 1.41 2.59 2.56 5.33c1.07 2.55 3.17 3.76 5.12 5.46q.78.69.39-.27-.99-2.41-2.11-4.53a.43.42 62.8 0 1 .18-.58l.23-.12q.28-.14.42.14 3.22 6.59 6.23 12.97 1.17 2.46 2.92 3.78 3.42 2.58 6.39 5.05.63.53.65-.3l.03-1.96q.01-.66-.5-1.09-1.98-1.69-4.13-3.25c-2.81-2.02-4.33-6.34-5.75-9.5q-.05-.12.05-.21l.22-.2a.4.4 0 0 1 .62.12q1.56 2.99 2.92 6.01c.9 1.98 2.99 3.27 4.69 4.57q1.05.81.44-.37c-1.06-2.02-2.34-4.13-2.37-6.47q-.02-2.41.06-4.88c.16-4.48-3.93-7.49-3.83-12.01q.06-3 .06-5.91 0-.6-.57-.77c-1.35-.42-2.66-.44-3.82-1.33q-3.02-2.33-5.9-4.8-.17-.14-.07-.34l.14-.23q.2-.36.53-.11m-28.27-14.05q.03.04.08.05.21.01.15-.19-.05-.22-.44-.29a.11.11 0 0 0-.13.11q-.01.24.15.23.12-.02.19.09m23.04.13q.14.38.46.43t.28-.27q-.04-.33-.33-.51a.29.29 0 0 0-.41.35m6.19 3.99q.25.03.23-.22-.26-3.42-3.96-3.47a.33.32-9.5 0 0-.31.43q1 2.83 4.04 3.26m4.48-3.42q-.32-.09-.27.24.04.28.28.37a.21.21 0 0 0 .29-.15q.06-.36-.3-.46m-31.6.36a.39.39 0 0 0-.65.3l.11 2.57a.4.4 0 0 0 .13.27l1.89 1.75a.39.39 0 0 0 .66-.3l-.12-2.59a.4.4 0 0 0-.13-.27zm33.77 1.03a.4.4 0 0 0-.66.31l.07 2.59a.4.4 0 0 0 .15.3l1.96 1.67a.4.4 0 0 0 .66-.32l-.07-2.58a.4.4 0 0 0-.14-.3zm-3.643 2.43a1.22.42 39.1 0 0-.682-1.096 1.22.42 39.1 0 0-1.212-.443 1.22.42 39.1 0 0 .682 1.095 1.22.42 39.1 0 0 1.212.443m23.943 8.8a.3.3 0 0 0 .57-.13l-.03-5.01a.3.3 0 0 0-.03-.13l-2.15-4.55a.3.3 0 0 0-.57.13l.04 5a.3.3 0 0 0 .03.13zm-61.56-7.64q.21.44.59.69.6.39.41-.3-.36-1.3-1.62-1.69-.64-.2-.36.4.12.25.4.36a1.05 1.04 87.7 0 1 .58.54m35.39-.03q.19.37.65.38.39 0 .15-.31-.26-.32-.63-.34a.19.18 77.5 0 0-.17.27m4.05 3.95q.16-.44.12-.96a2.2 2.06-43 0 1 .04-.58q.35-1.8-1.11-2.34a.65.64-89.8 0 0-.83.83q.54 1.47 1.07 3.04.34 1.03.71.01m-27.99-3.62q-.12-.47-.4-.07-.71 1.02.23 1.85.82.72.54-.33zm-8 15.04q.46-.08.85.25 3.13 2.58 5.83 4.81.05.05.09-.01l.15-.2q.09-.11-.03-.21c-2.02-1.66-3.89-3.16-4.95-5.63q-1.12-2.62-2.41-5.06a.3.3 0 0 1 .2-.43l.46-.09q.13-.03.2.09 1.46 2.66 2.57 5.32c1.04 2.47 3.27 4.11 5.45 5.49q.77.49.32-.3-2.04-3.54-3.71-7.43-.81-1.91-2.88-3.57-4.69-3.75-9.62-7.68-.43-.34-.97-.24-2.71.52-5.46 1.24c-2.98.78-6.26-.36-9.18-1.09q-1.29-.33-.25.5l32.36 25.91q.87.69.86-.42l-.01-3.38q-.01-1.07-1.05-1.29-4.12-.88-9-6.02-.43-.45.18-.56m-4.91-13.69q.25.18.53.03.34-.18.07-.45-.32-.32-.62-.06-.3.25.02.48m47.16 1.635a1.13.47 56.7 0 0-.227-1.203 1.13.47 56.7 0 0-1.013-.686 1.13.47 56.7 0 0 .227 1.202 1.13.47 56.7 0 0 1.013.687m-44.67-1.715a.39.39 0 0 0-.42.58l1.29 2.1a.4.4 0 0 0 .2.17l2.32.81a.39.39 0 0 0 .49-.53l-1.08-2.34a.39.39 0 0 0-.27-.21zm7.76.54q-.02.2.19.32.24.13.32-.13.06-.17-.03-.31-.41-.64-.48.12m32.9.67q-.04-.47-.23-.89-.31-.66-.48.04-.91 3.65.12 6.45c.8 2.16 3.01 3.5 4.72 4.94q1.18.99.51-.4l-4.37-9.13q-.23-.48-.27-1.01m-88.9.39q3.68 3.97 9.14 4.4.56.04.17-.37-3.82-3.98-9.18-4.31-.41-.03-.13.28m90.35.42q.32.11.39-.21.02-.09-.4-.33a.15.14 24.9 0 0-.2.07q-.14.35.21.47m-31.92-.35a.35.35 0 0 0-.58.27l-.01 2.72a.35.35 0 0 0 .15.29l2.2 1.59a.35.35 0 0 0 .55-.31l-.23-2.65a.35.35 0 0 0-.12-.23zm-5.28 1.49q.55.72 1.31 1.02a.31.31 0 0 0 .39-.42q-.41-.84-1.4-1.06-.79-.18-.3.46m41.29 3.86q-.31-.54-.1-1.25a1.68 1.68 0 0 0-.54-1.78l-1.35-1.12q-.85-.71-.92.39-.21 3.34 2.76 4.19.51.15.78.6.47.78 1.13 1.32.58.48.44-.26-.27-1.39-1.72-1.75-.33-.08-.48-.34m-40.924-1.262a1 .22 45.9 0 0-.538-.871 1 .22 45.9 0 0-.854-.565 1 .22 45.9 0 0 .538.871 1 .22 45.9 0 0 .854.565m1.274.352 1.31 3.17q.29.71.5-.03.6-2.1-.24-3.59a.87.86-14.9 0 0-.77-.44q-.28 0-.52.12-.5.25-.28.77m8.043 2.452a1.11.45 60.1 0 0-.163-1.186 1.11.45 60.1 0 0-.943-.738 1.11.45 60.1 0 0 .163 1.186 1.11.45 60.1 0 0 .943.738m-28.533-1.352q.54.82 1.37 1.12.85.31.38-.46-.51-.85-1.47-1.07-.66-.16-.28.41m29.15 10.77q-2.72-5.27-4.83-10.61-.39-.96-.58.06-.67 3.6.27 6.23c.76 2.14 2.85 3.33 4.58 4.77q1.39 1.16.56-.45m-3.06-9.23q.02.06.07.1.11.1.16-.04.12-.36-.09-.75a.2.2 0 0 0-.35.01q-.14.27.08.49.08.08.13.19m-35.7.94c-2.88.69-6.05-.21-8.92-1.09q-1.52-.47-.32.57c1.65 1.46 3.03 2.89 5.27 3.43q10.44 2.52 20.52 4.69.87.18.17-.37l-10.33-8.28q-.42-.34-.95-.22-2.74.63-5.44 1.27m69.847.21a.72.25 47.4 0 0-.303-.7.72.25 47.4 0 0-.671-.36.72.25 47.4 0 0 .303.7.72.25 47.4 0 0 .671.36m-57.537 2.31a.48.48 0 0 0 .27.22l2.25.75a.48.48 0 0 0 .57-.69l-1.13-2.07a.48.48 0 0 0-.27-.23l-2.26-.75a.48.48 0 0 0-.57.69zm25.32-2.66a.48.48 0 0 0-.8.4l.17 2.34a.48.48 0 0 0 .16.33l1.75 1.55a.48.48 0 0 0 .8-.4l-.18-2.37a.48.48 0 0 0-.17-.32zm35.08 5.66a.4.4 0 0 0 .66-.32l-.04-2.52a.4.4 0 0 0-.14-.31l-1.94-1.57a.4.4 0 0 0-.65.32l.04 2.51a.4.4 0 0 0 .14.31zm-4.99-2.41q-.43-.94-1.36-1.39-.65-.31-.38.36.43 1.05 1.38 1.42.66.26.36-.39m-49.25 1.2a1.36.42 41.4 0 0-.742-1.215 1.36.42 41.4 0 0-1.298-.584 1.36.42 41.4 0 0 .742 1.214 1.36.42 41.4 0 0 1.298.584m63.98-.46a.3.3 0 0 0-.57.13l.04 5.07a.3.3 0 0 0 .03.13l2.14 4.62a.3.3 0 0 0 .58-.13l-.06-5.1a.3.3 0 0 0-.03-.12zm-40.499 2.862a1.45.41 57.4 0 0-.436-1.443 1.45.41 57.4 0 0-1.126-1 1.45.41 57.4 0 0 .436 1.442 1.45.41 57.4 0 0 1.126 1m28.099-.632q.64.7.63 1.67-.07 6.32-.05 12.72 0 .58.31 1.06 1.87 2.88 3.18 6.17c.93 2.36 3.22 3.42 4.93 5.17q.82.82.41-.26c-.74-2.02-2.3-4.09-2.29-6.27 0-3.33.44-6.79-1.1-9.79q-2.29-4.48-4.08-8.52-1.01-2.27-3.29-3.37-1.71-.81-1.01.95.69 1.75 1.75 3.03.51.63.33-.16-.25-1.13-.24-2.21.01-.75.52-.19m-54.3-1.18a.2.2 0 0 0-.09.32q.12.13.29.15.12.02.22-.06.15-.11.16-.26.04-.36-.3-.24-.14.05-.28.09m5.32 1.2a.4.4 0 0 0-.26-.21l-2.46-.59a.4.4 0 0 0-.45.57l1.15 2.26a.4.4 0 0 0 .26.2l2.41.58a.4.4 0 0 0 .45-.56zm54.464 1.708a1.4.42 64 0 0-.237-1.442 1.4.42 64 0 0-.99-1.074 1.4.42 64 0 0 .236 1.442 1.4.42 64 0 0 .99 1.074m-67.744-.128q.81.09.22-.46-.88-.82-1.92-.95-.82-.1-.24.48.81.81 1.94.93m31.85-1.31q-.13-.21-.36-.29-.28-.11-.23.19.05.27.25.42.99.72.34-.32m29.96 10.67q.76-5.36-2.26-9.62-.3-.43-.38.09-.8 5.22 2.24 9.63.32.46.4-.1m3.64-9.59q-.53-.28-.76-.39-.16-.07-.24.07-.07.1.02.18.43.36.95.31.31-.03.03-.17m-60.065 2.124a2.48 1.15 14.1 0 0-2.125-1.72 2.48 1.15 14.1 0 0-2.685.512 2.48 1.15 14.1 0 0 2.125 1.72 2.48 1.15 14.1 0 0 2.685-.512m29.525 2.786a.4.4 0 0 0 .66-.31l-.04-2.52a.4.4 0 0 0-.14-.3l-1.92-1.59a.4.4 0 0 0-.65.31l.02 2.5a.4.4 0 0 0 .14.31zm-18.06-3.71c-.37-.23-.66-.59-1.07-.7q-.55-.16-.34.38.45 1.12 1.6 1.2.72.05.25-.5-.19-.22-.44-.38m-8.11.96q.76 2.32 3.28 3.47.78.35.31-.37-.65-.99-.88-2.06-.11-.51-.62-.61zq-.42-1.13-2.08-1.36-.6-.09-.25.41.62.88 2.33.95m19.73-1.11q-.37-.22-.26.2.32 1.15 1.39 1.77a.25.25 0 0 0 .36-.31q-.4-1.05-1.49-1.66m38.91.12a.48.48 0 0 0-.81.38l.13 2.36a.48.48 0 0 0 .15.32l1.73 1.61a.48.48 0 0 0 .81-.38l-.15-2.38a.48.48 0 0 0-.15-.32zm-69.1.68q.48.16.65.15a.22.22 0 0 0 .13-.39q-.51-.45-.85-.18a.24.24 0 0 0 .07.42m16.612 1.171a.45.21 66.1 0 0 .01-.496.45.21 66.1 0 0-.374-.326.45.21 66.1 0 0-.01.496.45.21 66.1 0 0 .374.326m7.388 7.469-9.52-7.69a.25.25 0 0 0-.38.31c1.18 2.27 1.89 5.06 4.31 6.35q2.16 1.15 5.39 1.51.92.1.2-.48m-14.97-7.03q-.2-.34-.51-.02-.31.33.13.43.71.15.38-.41m9.25.31c1.33 1.66 1.73 2.8 4.12 3.22q.47.09.4-.39-.58-3.68-4.37-3.2-.4.05-.15.37m22.09 13.49q-.03-.54-.24-.96-1.94-3.88-3.89-8.28-.69-1.54-1.59-2.4-1.13-1.07-2.57-1.82a.47.47 0 0 0-.66.57q.65 1.99 1.84 3.53.55.72.4-.17l-.3-1.81q-.07-.47.4-.55l.34-.06a.37.36-4.1 0 1 .42.36l.06 6.64a1.01 1-70.7 0 0 .37.78l5.21 4.28q.22.18.21-.11m-.794-10.164a1.36.42 60.7 0 0-.3-1.391 1.36.42 60.7 0 0-1.032-.981 1.36.42 60.7 0 0 .3 1.392 1.36.42 60.7 0 0 1.032.98m-13.996.595a1.29.4 48.8 0 0-.549-1.234 1.29.4 48.8 0 0-1.15-.708 1.29.4 48.8 0 0 .548 1.234 1.29.4 48.8 0 0 1.15.708m47.32-1.831a.24.23-37.8 0 0-.43-.05q-.67 1.19.31 1.94.73.56.51-.33zm-41.98.81q-.9 3.46 2.21 4.89.67.3.36-.37l-2.14-4.56q-.27-.58-.43.04m5.53-.05.17.02q-.08-.09-.17-.09-.68-.02 0 .07m33.85.91q-.18.49.15.67a.28.28 0 0 0 .41-.25q-.01-.32-.26-.51a.19.19 0 0 0-.3.09m-31.49.4a.39.39 0 0 0-.63.36l.32 2.49a.4.4 0 0 0 .11.22l1.73 1.84a.39.39 0 0 0 .67-.26l.04-2.69a.39.39 0 0 0-.15-.31zm-15.03.96q.37-.28-.07-.42-.44-.15-.31.3.1.35.38.12m4.73.56a.35.35 0 0 0-.23-.19l-2.51-.62a.35.35 0 0 0-.4.49l1.11 2.36a.35.35 0 0 0 .23.19l2.5.6a.35.35 0 0 0 .4-.49zm43.53.73q.14 2.99-.05 5.97-.21 3.16 1.08 5.87 2.47 5.16 4.96 10.08.67 1.31.59-.16c-.11-2.2.29-4.4-.76-6.47l-2.1-4.16c-1.47-2.93-.99-6.65-.98-9.95q0-.5-.32-.88-.44-.5-.94-.98-1.59-1.53-1.48.68m-47.7 3.71q1.28 1.64 3.04 2.77.64.41.3-.28l-1.3-2.67a1.03 1.02-8.1 0 0-.74-.55l-1.71-.3q-.48-.09-.75-.49-.46-.72-1.27-.8-.81-.09-.22.47.87.83 2.01 1.34.38.18.64.51m8.28-1.49-1.22-.8q-.72-.48-.47.35.32 1.12 1.56.99a.3.29 58.7 0 0 .13-.54m10.28.49a.3.29-39.6 0 0-.54-.05c-.36.65-.19 1.42.47 1.84q.79.49.51-.4zm-13.01.85q.04.41.45.39a.25.25 0 0 0 .17-.41q-.72-.8-.62.02m-2.3.11 5.1 10.66q1.23 2.57.9-.26c-.22-1.95.23-3.57-.55-5.5-.92-2.29-3.34-3.73-5.18-5.12q-.57-.43-.27.22m50.43 9.74a.3.3 0 0 0 .58-.13l-.06-5.05a.3.3 0 0 0-.03-.13l-2.15-4.6a.3.3 0 0 0-.58.13l.06 5.09a.3.3 0 0 0 .03.13zm-57.62-5.99.26-.11a.31.3-23.4 0 1 .39.15q3.47 7.1 6.75 14.04.39.81 1.26 1.03.49.13.89.44l5.61 4.48q.68.54 1.41.07l.29-.19q.49-.32.07-.73-2.22-2.17-4.93-4.12c-2.69-1.94-3.82-5.91-5.31-8.74a.98.94-51.7 0 1-.07-.72q.21-.77-.51-1.14-.35-.18-.52-.54l-3.35-6.96a1.04 1.03 66.3 0 0-1.3-.51q-2.55.99-5.19.06-.96-.34-.59.61.97 2.48 2.13 4.31 1.26 1.99 4.31 3.88.74.46.36-.33l-2.16-4.46q-.18-.37.2-.52m12.31-3.44q-.79-.31-.6.52.2.9.87 1.5.45.4.64-.17.44-1.33-.91-1.85m7.67.2q-.33.25.04.54.27.22.38-.12.08-.26-.13-.42-.14-.11-.29 0m-4.62 3.41q.66.27.52-.43-.27-1.35-1.08-2.45a.38.38 0 0 0-.68.16q-.37 2.07 1.24 2.72m-7.64 4.26q1.41 1.18 2.91 2.35.47.37.3-.21-1.61-5.24-6.49-8.19-.48-.29-.29.23 1.51 4.1 3.57 5.82m14.53-6.29a.35.35 0 0 0-.57.27l.03 2.67a.35.35 0 0 0 .12.26l2.06 1.71a.35.35 0 0 0 .58-.27l-.05-2.67a.35.35 0 0 0-.12-.26zm21.92 5.19q0 .63.27 1.19l12.87 26.8q1.03 2.13.92-.23-.05-1.26-.06-2.99c-.01-2.33-1.77-4.96-2.78-7.05-1.52-3.17-1.01-6.65-.98-9.95a1.51 1.5-71.3 0 0-.58-1.19q-2.87-2.18-5.47-4.42c-1.62-1.39-2.58-4.77-3.71-6.65q-.51-.87-.51.14zm-25.86-2.7q.64.24.31-.36-.46-.85-1.34-1.22-.83-.36-.39.42.46.82 1.42 1.16m-1.53 1.37q.2.18.49.09.34-.11.01-.25-.16-.07-.33-.13-.89-.32-.17.29m-1.43 2.54q1.23 2.59 2.47 5.24c.94 2 2.78 3.05 4.4 4.5q1.49 1.34.61-.46-1.77-3.61-3.64-7.62c-.88-1.9-2.66-3.09-4.32-4.28a.59.58 11.5 0 0-.91.6q.12.58.57.96.52.45.82 1.06m5.15 1.11q.15-.48.11-1.02a2.36 2.25-43.7 0 1 .03-.64q.33-1.73-.98-1.97-1.4-.26-.84 1.05l1.11 2.61q.32.75.57-.03m6.264-.596a1.14.47 56.8 0 0-.23-1.211 1.14.47 56.8 0 0-1.018-.697 1.14.47 56.8 0 0 .23 1.211 1.14.47 56.8 0 0 1.018.697m.196 10.096q1.11.94.48-.37l-4.54-9.46a1.67 1.58-59.7 0 1-.17-.73q-.01-.51-.23-.95-.35-.7-.52.07-.86 3.83.26 6.66c.81 2.05 3.03 3.34 4.72 4.78m-3.01-10.05q0 .2.16.32.48.38.43-.23-.01-.16-.12-.28-.47-.51-.47.19m-4.79 7.87c-1.98-1.38-3.22-4.6-4.19-6.84q-.82-1.9-.81.17l.03 2.85q0 .65.53 1.04 3.24 2.37 6.29 5.01.18.15.34-.02v-.01q.15-.16 0-.31-1-1.05-2.19-1.89m-3.78 2.57q-1.16-2.09-2.08-4.29c-.93-2.22-3.02-3.43-4.89-4.98q-.92-.77-.41.32l2.69 5.67q.65 1.36 4.2 3.73 1.16.77.49-.45m12.79-5.33q-.1-.68.03-1.37a1.59 1.59 0 0 0-.57-1.54l-1.47-1.19q-.68-.55-.77.32-.33 3.36 2.68 4.32.47.15.74.56.33.5.71.91 1.52 1.64.66-.42-.43-1.05-1.6-1.19-.36-.04-.41-.4m16.83 21.44q1.39 2.88 2.83 5.96c.94 2.02 2.97 3.31 4.71 4.59q.99.72.43-.37c-1.06-2.11-2.4-4.11-2.35-6.59.05-2.97.51-6.05-.9-8.83q-2.88-5.72-5.33-11.07-.26-.58-.88-.73-2.89-.75-6.02-1.41c-2.85-.61-5-3.17-7.24-4.83q-.94-.7-.43.36l27.56 57.38q.91 1.9.83-.2-.05-1.43-.04-3.04c.01-2.4-1.77-5.18-2.84-7.27-1.53-2.97-.87-6.77-.96-10.03a1.19 1.19 0 0 0-.46-.92l-5.24-4.18q-.93-.74-1.44-1.81l-3.16-6.62q-.14-.3.17-.4l.4-.14q.25-.08.36.15m-21.43-14.83c-3.49-.37-5.81-3.02-8.39-5.02q-.94-.73-.41.33c1.03 2.09 1.75 4.29 3.61 5.72q2.65 2.05 5.35 4.25.67.54.67-.32l-.02-4.06a.9.9 0 0 0-.81-.9m4.21-3.9q.11.22.37.27.29.06.17-.21-.16-.36-.46-.58-.57-.42-.08.52m28.2.6a.3.3 0 0 0-.57.14l.04 4.97a.3.3 0 0 0 .03.13l2.13 4.55a.3.3 0 0 0 .57-.13l-.02-5a.3.3 0 0 0-.03-.13zm-24.74 4.99a.4.4 0 0 0 .65-.31l-.03-2.5a.4.4 0 0 0-.15-.31l-1.92-1.54a.4.4 0 0 0-.65.32l.02 2.47a.4.4 0 0 0 .15.31zm-4.869-2.062a1.31.44 41.5 0 0-.69-1.197 1.31.44 41.5 0 0-1.272-.539 1.31.44 41.5 0 0 .69 1.197 1.31.44 41.5 0 0 1.272.539m21.419-1.028q.18.88.92 1.71.68.76.52-.24-.17-1.08-.99-1.74-.61-.48-.45.27m-1.55 1.2q-.17-.01-.17.17.02.24.27.27.57.06.15-.33-.1-.1-.25-.11m-17.6 2.51c1.08 1.89.45 4.58.51 6.76q.02.59.49.96l4.59 3.64q1.27 1.01.55-.45-2.21-4.47-4.22-8.89-1.01-2.23-3.09-3.34-2.19-1.16-1.17 1.1.71 1.59 1.71 2.88.15.2.36.06l.21-.14a.07.06-35.9 0 0 .02-.09q-.73-1.04-.52-2.39.14-.84.56-.1m19.94-1a.39.39 0 0 0-.66.3l.09 2.57a.4.4 0 0 0 .13.27l1.88 1.74a.39.39 0 0 0 .66-.3l-.09-2.56a.4.4 0 0 0-.13-.27zm-14.506 2.69a1.42.43 63.5 0 0-.25-1.462 1.42.43 63.5 0 0-1.018-1.079 1.42.43 63.5 0 0 .25 1.463 1.42.43 63.5 0 0 1.018 1.079m-13.731.631a1.39.43 47.3 0 0-.627-1.313 1.39.43 47.3 0 0-1.259-.73 1.39.43 47.3 0 0 .627 1.314 1.39.43 47.3 0 0 1.259.73m5.017-.131q-.29 2.81 2.35 3.77.69.25.37-.41l-2.14-4.35q-.53-1.06-.53.12 0 .43-.05.87m5.89-1.04q.29-.01-.34-.13-.2-.04-.05.1.08.07.18.06.11-.02.21-.03m-18.48.97c-.61-.1-1.17-.47-1.79-.47q-.63 0-.19.46 1.61 1.69 3.63 2.54a.34.34 0 0 0 .46-.36q-.25-1.87-2.11-2.17m3.46.47q-.02-.15-.11-.29-.51-.82-.31.13.03.13.09.26.46.93.33-.1m18.7 4.61a.48.48 0 0 0 .8-.4l-.19-2.38a.48.48 0 0 0-.15-.32l-1.72-1.56a.48.48 0 0 0-.8.39l.15 2.35a.48.48 0 0 0 .15.32zm-15.655-2.098a1.45.4 55.3 0 0-.496-1.42 1.45.4 55.3 0 0-1.155-.964 1.45.4 55.3 0 0 .497 1.42 1.45.4 55.3 0 0 1.154.964m1.005-1.882a.32.32 0 0 0-.29.44l.78 1.88a1.3 1.29-7.8 0 0 1.04.78q1 .11 1.9.56.5.24.44-.3-.37-3.36-3.87-3.36m32.36 1.13q.03-.15-.01-.27-.35-.91-.7.02-.43 1.16.65 1.76.75.41.44-.39-.12-.3-.29-.57-.16-.26-.09-.55m-2.76 1.14q-.18.43.24.55.29.08.21-.21-.24-.86-.45-.34m-22.864 1.68a.88.47 30.8 0 0-.515-.854.88.47 30.8 0 0-.997-.047.88.47 30.8 0 0 .515.855.88.47 30.8 0 0 .997.047m-8.676-.03q.12.01.28-.14a.08.08 0 0 0-.03-.13q-.25-.08-.33.14-.04.12.08.13m36 7.61q.05-2.53.09-5.05.02-.99-.73-1.65l-1.15-1.02q-.87-.77-.87.39.01 3.72-.08 7.81-.05 2.5 1.07 4.75 2.59 5.19 4.88 9.98.39.82.52-.07.57-3.89-.39-5.87c-1.5-3.09-3.4-6.13-3.34-9.27m-16.36-5.76-.45-1.71q-.24-.94-.57-.02-.44 1.23.54 2.04.72.58.48-.31m-17.37-1.1a.44.44 0 0 0-.61-.39l-1.67.72a.44.44 0 0 0-.14.72l1.74 1.74a.44.44 0 0 0 .75-.33zm3.8-.4q-.21-.15-.14.1.23.81.98 1.34.45.31.22-.19-.34-.73-1.06-1.25m-2.21.9 4.9 10.23q1.44 3.02 1.06-.3-.13-1.16-.05-2.39c.27-3.84-3.05-5.84-5.6-7.79q-.67-.51-.31.25m5.47 2.29q.66.59.61-.3-.06-1.03-.67-1.84a.48.48 0 0 0-.86.24q-.1 1 .92 1.9m7.18-1.83q-.11.37.16.61a.26.26 0 0 0 .44-.17q.03-.31-.21-.54-.28-.27-.39.1m-5.76 1.27q-.13 1.84 1.33 2.23.75.2.53-.55-.32-1.05-.86-1.93-.88-1.42-1 .25m9.53 1.26q-1.65-1.83-1.93-.53-.7 3.19 2.78 4.36.62.21.33-.38-.37-.74-.4-1.56a3.05 3.01 23 0 0-.78-1.89m-16.03-.34q0-.15-.03-.3-.12-.65-.49-.1c-.48.7-.3 1.51.4 1.99q.76.52.48-.36-.14-.46-.31-.94-.04-.14-.05-.29m11.476 2.18a1.51.4 45.1 0 0-.783-1.352 1.51.4 45.1 0 0-1.349-.788 1.51.4 45.1 0 0 .783 1.352 1.51.4 45.1 0 0 1.349.788m21.914-1.55a.3.3 0 0 0-.57.13l.05 5.08a.3.3 0 0 0 .03.12l2.14 4.6a.3.3 0 0 0 .57-.13l-.05-5.09a.3.3 0 0 0-.03-.13zm-36.12.77q-.16.17.04.3.13.08.2-.06.03-.06.03-.13 0-.42-.27-.11m4.49 9.65q.01-2.6.09-5.45.03-1.06-.76-1.77l-1.15-1.02q-.85-.75-.85.39 0 3.91-.1 8.01-.05 2.05 1.04 4.38 2.4 5.12 4.95 10.13.58 1.15.61-.14c.05-2.36.27-4.62-.92-6.82-1.22-2.26-2.91-5.09-2.91-7.71m7.23-8.06q.41.1.48-.07a.17.17 0 0 0-.14-.24q-.19-.02-.31-.02a.17.17 0 0 0-.03.33m6.41 12.17q-1.9-3.82-3.56-7.46c-.96-2.12-2.51-3.34-4.4-4.48q-1.67-1-.72.7 1.77 3.19 3.56 6.96c1.02 2.15 2.94 3.25 4.72 4.61q.91.69.4-.33m-2.94-8.17q.41.93.48-.08l.19-3.01a.64.63 5.8 0 0-.55-.67l-1.35-.2q-.56-.07-.33.44zm6.49-2.03q-.28-.47-.68-.71-.69-.4-.49.37.27.97 1.05 1.63.13.1.2-.04.33-.59-.08-1.25m-3.96.2q-.19-1.53-.61-.05c-1.48 5.29.79 8.24 5.12 11.06q.76.5.37-.32-2.21-4.6-4.4-9.08-.37-.76-.48-1.61m1.32.78q-.04.42.33.57a.25.24-75.4 0 0 .33-.2q.04-.37-.25-.56a.26.26 0 0 0-.41.19m-9.77 1.91c.27.69.04 1.56.03 2.31q-.02.55.42.9l6.4 5.1q.18.15.33-.03l.18-.21q.01-.02-.01-.03c-1.44-1.25-3.36-2.18-4.23-3.88q-1.2-2.37-2.45-5.2-.33-.76-.66.01-.22.52-.01 1.03m-1 9.28q.78-5.17-2.27-9.63-.41-.61-.43.12-.05 1.76-.01 3.47.08 2.71 2.18 6.15.41.66.53-.11m15.04-6.28q.46-2.55-2.24-3.69-.48-.2-.52.32-.31 3.53 2.76 4.37a1.34 1.31 83 0 1 .8.64q.39.73 1.02 1.28.73.64.46-.29-.43-1.46-1.81-1.87-.57-.17-.47-.76m-6.03 26.85c1.77 2.06 2.44 5.96 4.61 8.04q1.53 1.46 3.39 2.72.97.66.41-.37-.74-1.37-1.49-2.79c-2.14-4.06.3-8.65-1.77-12.58-1.36-2.59-3.11-5.46-2.99-8.34q.11-2.76.09-5.63 0-.65-.63-.8c-1.48-.35-2.65-.47-3.92-1.44q-2.76-2.08-5.32-4.26a.22.21 20.3 0 0-.36.16l-.03 22.67q0 .64.49 1.04l2.09 1.68q.83.66.36-.29l-2.36-4.78q-.13-.26.14-.38l.41-.18q.15-.06.22.08 3.32 6.21 6.34 13.02.97 2.19 3.02 3.85 3.25 2.63 6.34 5.03.67.52.7-.32l.05-1.7a1.72 1.71 21 0 0-.62-1.38c-2.52-2.05-5.9-4.01-7.22-7.05q-1.16-2.69-2.58-5.58a.38.38 0 0 1 .63-.42m5.39-24q.18.4.59.45.62.08.11-.28-.24-.17-.42-.36-.68-.69-.28.19m3.8 5.93a.35.35 0 0 0 .57-.28l-.02-2.6a.35.35 0 0 0-.13-.27l-2.03-1.59a.35.35 0 0 0-.57.28v2.58a.35.35 0 0 0 .13.28zm-5.063-2.386a1.13.46 36.6 0 0-.633-1.043 1.13.46 36.6 0 0-1.181-.305 1.13.46 36.6 0 0 .633 1.043 1.13.46 36.6 0 0 1.181.305m14.203.696q-.82 5.29 2.23 9.74.31.44.39-.09.8-5.12-2.23-9.74-.31-.46-.39.09m-12.48 3.07q.81-2.35-1.64-2.59a.36.36 0 0 0-.38.46q.59 2.04 1.91 3.79.45.59.52-.14.04-.42-.26-.75a.78.77-56.2 0 1-.15-.77m6.169.942a1.41.44 62.6 0 0-.258-1.454 1.41.44 62.6 0 0-1.04-1.05 1.41.44 62.6 0 0 .258 1.454 1.41.44 62.6 0 0 1.04 1.05m-5.209-1.522q-.07.44.3.67a.28.27-79.1 0 0 .41-.28q-.06-.36-.35-.55a.24.23-68.6 0 0-.36.16m-3.5 1.24q-.35 4.39.43 5.89.93 1.78 1.7 3.62.35.82.51-.05.9-5.01-2.13-9.59-.45-.68-.51.13m4.98-.33-.65.09q-.58.08-.58.66l-.07 13.3a.55.54-76.9 0 0 .3.49l.29.14q.28.14.41.42 1.31 2.79 2.58 5.43c1.08 2.26 3.04 3.51 4.99 4.95q.94.7.37-.32-.92-1.63-1.68-3.39c-1.11-2.57-.72-5.23-.74-8.02q-.02-2.16-.95-4.14c-1.36-2.86-3.67-6.56-4.27-9.61q.58.02 1.07.26.55.26.16-.21-.41-.5-1.23-.05m4.56 6.14a.39.39 0 0 0 .67-.29l-.04-2.65a.39.39 0 0 0-.15-.31l-2.08-1.63a.39.39 0 0 0-.63.36l.32 2.53a.4.4 0 0 0 .12.22zm-21.9 5.81q.63-4.19-2.19-8.47-.34-.53-.43.1-.76 5.66 2.25 9.43.37.47.49-.11.06-.27-.05-.48-.1-.22-.07-.47m24.88-4.01-.45-1.97a.25.25 0 0 0-.47-.04q-.57 1.37.46 2.29.66.58.46-.28m-2.93.43a.39.26 92.8 0 0 .28-.377.39.26 92.8 0 0-.24-.403.39.26 92.8 0 0-.28.377.39.26 92.8 0 0 .24.402m5.24 12.94c-1.3-2.64-1.01-6.4-.84-9.28q.07-1.06-.75-1.74l-1.11-.94q-.89-.75-.9.42-.02 3.78-.03 7.5-.01 2.55 1.02 4.81 2.41 5.26 4.8 9.9.83 1.63.75-.2c-.09-2.17.24-4.09-.76-6.08q-1.07-2.15-2.18-4.39m.7-7.31a.3.3 0 0 0-.57.13l.04 4.99a.3.3 0 0 0 .03.13l2.14 4.53a.3.3 0 0 0 .57-.13l-.03-5a.3.3 0 0 0-.03-.13zm-45.19 10.58q.31.18.21-.17-1.63-5.3-6.46-8.09-.48-.28-.3.25 1.79 5.32 6.55 8.01m30.31 6.25q.18.1.37.07a.26.26 0 0 0 .12-.46q-1.58-1.25-3.14-2.5c-3.1-2.45-3.05-7.18-6.11-9.74q-1.26-1.04-2.62-2.03a.37.37 0 0 0-.59.3l.04 7.06q0 .59.47.94c2.23 1.69 5.28 4.84 8.04 5.5.96.24 2.57.39 3.42.86m14.26 8.01c-1.51-3.04-.98-6.84-.94-10.06q0-.53-.4-.87-2.02-1.71-4.35-3.47c-2.73-2.05-3.43-4.92-4.93-7.76q-.69-1.31-.62.17c.1 2.36-.28 4.18.77 6.37q6.52 13.69 12.6 26.2.61 1.27.7-.14c.16-2.39.15-4.66-.99-6.84q-.92-1.77-1.84-3.6m-11.07 10.61.24-.11q.3-.14.45.15 1.39 2.64 2.59 5.43c1.03 2.41 3.17 3.69 5.08 5.27q.7.57.36-.27c-.92-2.28-2.36-4.13-2.39-6.72-.03-2.9.56-6.01-.78-8.71q-2.89-5.88-5.52-11.45a1.21 1.18 83.5 0 0-.81-.66q-3.16-.77-6.31-1.48c-2.58-.57-4.85-3.15-7.02-4.74q-.83-.6-.39.32l27.54 57.32q1.01 2.09.91-.23c-.09-2 .22-4-.75-5.82-1.37-2.61-3.26-5.77-3.14-8.73q.12-3.03-.01-5.73-.03-.53-.44-.87-2-1.64-4.12-3.2c-2.84-2.11-4.28-6.2-5.64-9.39q-.11-.26.15-.38m-9.82-.97q.06.16-.01.34-.17.42.26.29.35-.1.4-.4.03-.16-.04-.3-2.9-5.9-5.69-11.82a1.65 1.65 0 0 0-1.14-.9q-2.86-.62-5.69-1.27c-2.88-.66-4.97-3.02-7.19-4.81q-.94-.75-.47.36c.9 2.14 1.59 4.14 3.48 5.66q7.89 6.33 15.96 12.68.09.07.13.17m21.04-17.06q-.87 5.09 2.19 9.65.37.55.45-.11.68-5.24-2.2-9.63-.34-.51-.44.09m-6.34 3.29q-.19-1.04-.94-1.92a.29.28-66.6 0 0-.5.2q.05 1.13.99 1.97.6.54.45-.25m-3.1-.08q.07.28.31.42.78.46.41-.33-.12-.25-.5-.32-.29-.06-.22.23m-12.14 2.81c-.27-.37-.35-.85-.66-1.21q-.41-.46-.44.16-.06 1.29.99 2.05.68.5.45-.31-.11-.37-.34-.69m14.79-1.42a.48.48 0 0 0-.81.37l.12 2.37a.48.48 0 0 0 .15.32l1.71 1.62a.48.48 0 0 0 .81-.37l-.13-2.38a.48.48 0 0 0-.15-.32zm-17.15 2.62q.29.2.31-.16.02-.37-.33-.56-.66-.38-.34.31.12.25.36.41m1.82.67a.39.39 0 0 0-.63.36l.32 2.55a.4.4 0 0 0 .12.22l1.78 1.76a.39.39 0 0 0 .66-.28l-.03-2.65a.39.39 0 0 0-.14-.3zm19.5 2.94-.38-1.53a.27.26-40.4 0 0-.5-.04q-.54 1.22.37 1.91.74.56.51-.34m-3.1.22q-.05.41.27.58a.28.27-74.1 0 0 .41-.23q.02-.36-.29-.55a.26.26 0 0 0-.39.2m-22.75 1.88q.05-.31-.14-.55c-.37-.46-.81-1.01-1.41-1.13q-.81-.17-.25.43l1.31 1.4q.4.42.49-.15m10.63.4q.03-.29-.07-.58-.21-.58-.5-.04-.68 1.24.38 2.09.72.56.49-.32-.09-.34-.22-.66-.1-.23-.08-.49m14.87-.86q-.79-.72-.83.34-.13 4.01-.07 8.17.05 2.67 1.14 4.81 2.36 4.6 4.51 9.15 1.08 2.29.93-.24-.08-1.37-.06-2.81c.04-2.35-1.76-5.08-2.74-7.15q-1.17-2.47-1.09-4.52.1-2.48.06-5.3 0-.76-.56-1.27zm-27.78 1.66q.14.25.41.31a.29.29 0 0 0 .29-.46q-.28-.37-.55-.27-.32.13-.15.42m3.13 2.64a.48.48 0 0 0 .28.23l2.22.66a.48.48 0 0 0 .56-.69l-1.12-2.04a.48.48 0 0 0-.28-.23l-2.23-.67a.48.48 0 0 0-.56.69zm7.21-2.2q.06-.15-.02-.25-.11-.15-.2.01-.17.3.08.62a.15.15 0 0 0 .23.01q.2-.2-.07-.34-.03-.02-.02-.05m4.38 4.91q.23-2.38-2.15-3.62-.46-.23-.58.27-.87 3.59 2.78 4.45.19.05.22-.15.02-.21-.11-.38-.19-.25-.16-.57m-7.07-2.67q-.49-.3-.37.26.21.96 1.42 1.27.22.05.4-.07.41-.3-.02-.57zm23.05.41q-.75 5.31 2.24 9.69.33.49.41-.1.74-5.3-2.24-9.68-.33-.49-.41.09m-24.16 1.85q.13.18.35.23.24.05.19-.19-.09-.36-.44-.3-.28.05-.1.26m3.66 4.34q.27.62.45-.03.42-1.49.17-3a1 1 0 0 0-.88-.82l-.54-.05q-.89-.08-.54.73zm5.5-2.33q.04.87.67 1.38.61.5.53-.28-.09-.88-.74-1.35-.48-.35-.46.25m-3.16.03a.13.13 0 0 0-.25.02q-2.09 7.85 5.03 11.45.74.36.35-.36-2.97-5.59-5.13-11.11m1.72.99q-.07.4.15.79.19.33.34-.02.22-.53-.19-.87a.18.18 0 0 0-.3.1m4.15 5.09q.38-2.36-2.18-3.47a.44.44 0 0 0-.61.38q-.18 3.66 2.8 4.16.47.08.75.46.47.66.89 1.32.68 1.03.51-.19-.18-1.41-1.42-1.63-.88-.16-.74-1.03m-.39 3.25q.12.19.3.29.8.45.35-.35-.11-.2-.29-.31-1.02-.63-.36.37m1.95.98a.35.35 0 0 0-.57.27l.02 2.6a.35.35 0 0 0 .13.27l2.01 1.64a.35.35 0 0 0 .57-.27l-.02-2.62a.35.35 0 0 0-.13-.26zm-3.712 2.528a1.06.42 48.8 0 0-.382-1.075 1.06.42 48.8 0 0-1.014-.52 1.06.42 48.8 0 0 .382 1.074 1.06.42 48.8 0 0 1.014.52m17.062 10.312q.88-5.05-2.13-9.57-.37-.55-.47.11-.75 5.21 2.26 9.53.26.37.34-.07m-14.92-7.36q.29-1.62-1.59-1.83-.63-.06-.48.56.5 2.01 1.79 3.46.49.55.34-.17-.23-1.07-.06-2.02m6.075 1.534a1.39.42 60 0 0-.331-1.414 1.39.42 60 0 0-1.059-.994 1.39.42 60 0 0 .331 1.414 1.39.42 60 0 0 1.059.994m-5.035-1.284q.48.06.26-.37-.27-.54-.55-.11-.27.39.29.48m-3.79.95q.04 1.76.01 3.61c-.04 2.11 1.25 3.94 2.1 5.86q.44.98.6-.08.77-5.02-2.22-9.55-.51-.77-.49.16m5.41-.51q0 .35.35.33.23-.02.06-.18-.42-.42-.41-.15m-1.63.82-.05 12.93q-.01.76.6 1.21.28.21.43.53 1.34 2.72 2.57 5.4c.98 2.12 2.95 3.38 4.8 4.76q1.09.81.44-.38-1-1.85-1.79-3.69c-1.02-2.36-.43-5.68-.53-8.29q-.07-1.85-1.24-4.12-2.07-4.02-4.19-8.58-1.02-2.21-1.04.23m4.32.73a.39.39 0 0 0-.65.32l.17 2.52a.4.4 0 0 0 .12.25l1.84 1.79a.39.39 0 0 0 .66-.29l-.05-2.56a.4.4 0 0 0-.13-.28zm4.12 5.26q-.01-.14-.04-.28-.14-.72-.52-.09-.22.36-.26.83-.03.38.2.67.25.3.63.53.69.38.39-.34l-.35-.86a.53.02 86.1 0 1-.05-.46m-2.78 1.33q-.08.25.12.46t.32-.05q.11-.24-.02-.46-.27-.46-.42.05m5.77 14.2c-1.65-2.93-1.39-6.74-1.17-9.95q.08-1.09-.75-1.8l-1.16-.98q-.86-.74-.86.39c.01 3.72-.75 9.01.93 12.41q2.56 5.18 4.97 10.12.47.96.6-.1.4-3.5-.54-5.89-.83-2.12-2.02-4.2m.34-8.17a.3.3 0 0 0-.58.13l.06 5.08a.3.3 0 0 0 .03.13l2.16 4.61a.3.3 0 0 0 .57-.13l-.04-5.04a.3.3 0 0 0-.03-.13zm-11 3.18q-.98-2.23-.85.2c.12 2.06-.26 3.82.66 5.74q6.68 13.96 12.68 26.35.84 1.74.78-.19-.05-1.67-.07-3.33c-.02-2.31-1.8-5-2.8-7.1-1.54-3.22-.9-6.65-.99-10.02q-.01-.53-.41-.87-2-1.69-4.22-3.32c-2.5-1.84-3.59-4.77-4.78-7.46m10.51 14.24q-.78 5.34 2.24 9.74.31.45.39-.09.77-5.35-2.25-9.74-.3-.44-.38.09m-6.75 3.64q.65.45.47-.32-.2-.88-.92-1.69-.48-.54-.5.18-.04 1.13.95 1.83m-2.07.16q.32.14.23-.2-.11-.38-.47-.48a.17.16-1.8 0 0-.2.21q.11.32.44.47m1.69.82a.34.34 0 0 0-.55.31l.28 2.57a.34.34 0 0 0 .1.21l1.88 1.82a.34.34 0 0 0 .57-.24l.01-2.76a.34.34 0 0 0-.14-.27zm4.18 4.62q-.1-.46-.34-.05-.79 1.34.36 2.43.61.58.44-.25zm-2.75 1.94q-.05.26.13.43.23.24.39-.05.12-.22.01-.45a.28.28 0 0 0-.53.07m5.56 13.57c-1.37-2.68-1.07-6.59-.88-9.47q.07-.96-.67-1.58l-1.16-.97q-.93-.78-.94.44-.03 3.76-.04 7.5-.01 2.53 1.04 4.8 2.48 5.35 4.83 9.95.79 1.54.72-.19-.07-1.64-.05-3.2c.03-2.34-1.78-5.18-2.85-7.28m.12-7.26q-.71 5.2 2.25 9.55.35.52.43-.1.68-5.25-2.2-9.56-.39-.58-.48.11m2.64 26.77q.79-5.24-2.2-9.63-.32-.48-.4.09-.77 5.38 2.18 9.63.33.48.42-.09"/><ellipse fill="#017d01" fill-opacity=".996" rx="1.74" ry=".31" transform="rotate(1.1 32.333 6027.055)"/></svg>