<svg xmlns="http://www.w3.org/2000/svg" viewBox="0 0 382 382"><g fill="none" stroke-width="2"><path stroke="#7f8b03" stroke-opacity=".996" d="M237.98 10.72q0-.32-.11-.64" vector-effect="non-scaling-stroke"/><path stroke="#7c5101" d="M317.25 3.96q-.27.08-.49.66M329.42 3.69l-.12.88M341.42 7.81q-.37.38-.49.77M351.36 15.96l-.72.6" vector-effect="non-scaling-stroke"/><path stroke="#7f8b03" stroke-opacity=".996" d="M225.84 11.22q.12-.13.01-.81" vector-effect="non-scaling-stroke"/><path stroke="#7c5101" d="M216.57 19.5q-.38-.14-.72-.55" vector-effect="non-scaling-stroke"/><path stroke="#7f8b03" stroke-opacity=".996" d="M357.65 26.71q-.03.37-.7.73" vector-effect="non-scaling-stroke"/><path stroke="#7c5101" d="M210.53 30.43q-.1-.23-.43-.49" vector-effect="non-scaling-stroke"/><path stroke="#7f8b03" stroke-opacity=".996" d="m369.05 30.67-.07.99" vector-effect="non-scaling-stroke"/><path stroke="#7c5101" d="M199.18 35.28q-.5-.1-.47-.8" vector-effect="non-scaling-stroke"/><path stroke="#7f8b03" stroke-opacity=".996" d="M379.29 39.88q-.4-.04-.84-.32" vector-effect="non-scaling-stroke"/><path stroke="#7c5101" d="M153.55 44.53q.11-.41.04-.93" vector-effect="non-scaling-stroke"/><path stroke="#7f8b03" stroke-opacity=".996" d="m120.28 57.78-.26-.88" vector-effect="non-scaling-stroke"/><path stroke="#023a02" d="m258.27 55.02.46.8" vector-effect="non-scaling-stroke"/><path stroke="#7c5101" d="M216.34 66.37q-.38-.2-.89-.28" vector-effect="non-scaling-stroke"/><path stroke="#7f8b03" stroke-opacity=".996" d="M281.03 53.69q-.33.55-.09.84M302.37 64.04q-.03.74-.31.86M90.81 106.06q-.32-.08-.91 0" vector-effect="non-scaling-stroke"/><path stroke="#7c5101" d="M360.21 57.52q-.23.48.12.88M338.59 68.31q-.09-.61-.5-.71M371.65 62.89q0 .32-.11.6" vector-effect="non-scaling-stroke"/><path stroke="#7f8b03" stroke-opacity=".996" d="M325.59 66.43q-.22.7.12.94" vector-effect="non-scaling-stroke"/><path stroke="#7c5101" d="M203.93 70.01q-.81-.16-.61-.38M196.84 80.22q-.31-.2-.93-.26M193.67 92.35q-.76-.3-.86-.49M176.51 109.38q-.26-.4-.77-.41" vector-effect="non-scaling-stroke"/><path stroke="#7f8b03" stroke-opacity=".996" d="m86.38 142.05-.93.1" vector-effect="non-scaling-stroke"/><path stroke="#7c5101" d="M173.33 121.73q-.29.58-.91.25" vector-effect="non-scaling-stroke"/><path stroke="#023a02" d="m167.67 145.79-1.07-1.56" vector-effect="non-scaling-stroke"/><path stroke="#7f8b03" stroke-opacity=".996" d="m89.14 153.74-.95.15M168.79 156.66q-.34-.01-.86.22" vector-effect="non-scaling-stroke"/><path stroke="#7c5101" d="M372.77 146.93q-.11-.24-.09-.91M349.56 150.36q.23-.32-.23-.88M338.91 156.24q-.5-.15-.54-.77M94.63 176.8q-.41.44-.91.42M299.29 182.97q-.19-.3-.72-.53M171.34 180.01q-.25.19-.94-.02" vector-effect="non-scaling-stroke"/><path stroke="#7f8b03" stroke-opacity=".996" d="m367.95 206.48-.58-.34M368.74 196.6l-.57-.7" vector-effect="non-scaling-stroke"/><path stroke="#7c5101" d="m101.4 186.96-.78.57M165.52 202.98q-.19-.28-.83-.43" vector-effect="non-scaling-stroke"/><path stroke="#7f8b03" stroke-opacity=".996" d="M283.99 200.75q-.33-.19-.53-.46" vector-effect="non-scaling-stroke"/><path stroke="#7c5101" d="M121.42 217.23q-.59.34-.96.2" vector-effect="non-scaling-stroke"/><path stroke="#7f8b03" stroke-opacity=".996" d="m359.49 204.58-.54-.71M279.69 212.25l-.92-.06" vector-effect="non-scaling-stroke"/><path stroke="#7c5101" d="m149.1 234.24-.89-.11" vector-effect="non-scaling-stroke"/><path stroke="#7f8b03" stroke-opacity=".996" d="M347.28 204.88q-.43-.01-.6-.41-.05-.1.13-.53" vector-effect="non-scaling-stroke"/><path stroke="#023a02" d="m337.41 213.03-.79-.46" vector-effect="non-scaling-stroke"/><path stroke="#7f8b03" stroke-opacity=".996" d="m348.11 222.02-.04-.94M279.24 224.95q-.33-.15-.5-.46" vector-effect="non-scaling-stroke"/><path stroke="#7c5101" d="m331.37 223.94-.58-.71M122.71 241.86l-.95-.1" vector-effect="non-scaling-stroke"/><path stroke="#7f8b03" stroke-opacity=".996" d="M336.04 223.67q-.31-.2-.61-.61M328.06 232.59l-.78-.43" vector-effect="non-scaling-stroke"/><path stroke="#7c5101" d="M310.52 236.36q-.25.04-.88-.4" vector-effect="non-scaling-stroke"/><path stroke="#7f8b03" stroke-opacity=".996" d="M267.16 245.91q-.75-.11-.85-.29M323.37 244.39q-.75-.29-.75-.6" vector-effect="non-scaling-stroke"/><path stroke="#7c5101" d="m147.09 292.7-.95.18M308.68 248.94q-.24-.33-.86-.48" vector-effect="non-scaling-stroke"/><path stroke="#7f8b03" stroke-opacity=".996" d="m126.63 275.9-.82-.14M312.63 250.04l-.71-.62" vector-effect="non-scaling-stroke"/><path stroke="#7c5101" d="m247.48 261.49-.15-.61" vector-effect="non-scaling-stroke"/><path stroke="#7f8b03" stroke-opacity=".996" d="M311.31 261.04q-.66-.1-.98-.3M304.11 259.48q-.44.05-.94-.22M308.08 283.82q-1 .06-.72 1.1M303.46 295.08q-.16-.25-.84-.28" vector-effect="non-scaling-stroke"/><path stroke="#7c5101" d="M235.34 263.64q-.05-.34-.48-.77M227.35 272.98q-.45-.01-.75-.51M222.7 284.55q-.28-.35-.56-.39" vector-effect="non-scaling-stroke"/><path stroke="#7f8b03" stroke-opacity=".996" d="M125.18 287.79q-.28.1-.91-.02M314.53 295.51l-.87-.11" vector-effect="non-scaling-stroke"/><path stroke="#7c5101" d="m212 290.75-.6-.68M134.86 310.14q-.08.24-.57.75M204 300.03q-.23.09-.82-.41M144.07 304.74q-.33.21-.97.22M307.51 306.71q-.2.35-.61.6" vector-effect="non-scaling-stroke"/><path stroke="#7f8b03" stroke-opacity=".996" d="M312.92 306.93q-.34.12-.94-.03M191.46 333.78q-.36.1-.9.05" vector-effect="non-scaling-stroke"/><path stroke="#7c5101" d="M158.59 324.15q-.6.81-.78.6M313.42 313.78q.28.75.15 1.58" vector-effect="non-scaling-stroke"/><path stroke="#7f8b03" stroke-opacity=".996" d="M315.75 318.81q-.77.25-.89.69-.18.61.46 1.02" vector-effect="non-scaling-stroke"/><path stroke="#7c5101" d="M315.37 324.77q.05.36.3.43" vector-effect="non-scaling-stroke"/><path stroke="#7f8b03" stroke-opacity=".996" d="m315.67 325.2.11.61" vector-effect="non-scaling-stroke"/><path stroke="#7c5101" d="M319.52 340.8q-.21.16-.88.29M314.29 326.94l-.13-1.14M378.91 311.87l-.82-.56M147.92 329.77q-.07.23-.66.28M368.23 320.05l-.83.65" vector-effect="non-scaling-stroke"/><path stroke="#023a02" d="M367.4 320.7q-.55.39-.77.09" vector-effect="non-scaling-stroke"/><path stroke="#7c5101" d="M366.63 320.79q.09-.52-.11-1.04" vector-effect="non-scaling-stroke"/><path stroke="#023a02" d="M352.19 322.58q-.37.29-.65.77M349.92 325.08l-1.24-.27M350.12 322.72q.1.04.29-.03.07-.03.1-.1.11-.25.37-.48" vector-effect="non-scaling-stroke"/><path stroke="#7c5101" d="M380.21 317.96q-.06.65.04.9" vector-effect="non-scaling-stroke"/><path stroke="#7f8b03" stroke-opacity=".996" d="M367.65 321.18q-.16-.2-.25-.48M331.41 322.75l.07.85M365.79 321.01q.57-.52.84-.22" vector-effect="non-scaling-stroke"/><path stroke="#023a02" d="m348.38 325.96-.88-.13" vector-effect="non-scaling-stroke"/><path stroke="#7f8b03" stroke-opacity=".996" d="M331.94 336.7q-.38.23-.54.84" vector-effect="non-scaling-stroke"/><path stroke="#023a02" d="m326.44 341.08-.27-.99M315.67 325.2l.34-.89" vector-effect="non-scaling-stroke"/><path stroke="#7f8b03" stroke-opacity=".996" d="M343.55 318.93q.2.79.13 1.04M354.68 324.6q-.17-.85-.1-.99" vector-effect="non-scaling-stroke"/><path stroke="#7c5101" d="M160.06 337.02q-.23.3-.9.18M291.11 345.27l-.79-.55M341.9 339.6q-.3-.49-.64-.65M159.01 337.26q.29.44.76.55.41.1.68-.25M177.02 350.94l-.49.52M161.22 338.93q-.66-1.02-1.4-.4" vector-effect="non-scaling-stroke"/><path stroke="#7f8b03" stroke-opacity=".996" d="M191.46 345.98q-.45-.2-.92.03" vector-effect="non-scaling-stroke"/><path stroke="#7c5101" d="M344.77 356.56q.01.34-.4.86" vector-effect="non-scaling-stroke"/><path stroke="#7f8b03" stroke-opacity=".996" d="m330.85 345.32-.76-.54" vector-effect="non-scaling-stroke"/><path stroke="#023a02" d="M161.32 339.33q-.56.27-1.08.03" vector-effect="non-scaling-stroke"/><path stroke="#7f8b03" stroke-opacity=".996" d="M176.65 352.4q-.15.43-.15.95" vector-effect="non-scaling-stroke"/><path stroke="#023a02" d="m327.67 350.35-.4.95" vector-effect="non-scaling-stroke"/><path stroke="#7c5101" d="M313.88 343.57q.04-.41-.2-.8M278.31 348.75q-.09.29-.01.91M244.58 352.05q-.16-.69-.11-.93" vector-effect="non-scaling-stroke"/><path stroke="#7f8b03" stroke-opacity=".996" d="M302.88 349.8q-.31-.81.04-.88M290.78 346.73q.07.69-.02.94" vector-effect="non-scaling-stroke"/><path stroke="#7c5101" d="m281 353.29-.1-.99" vector-effect="non-scaling-stroke"/><path stroke="#023a02" d="M328.6 350.8q-.3.45-.38 1.05M325.72 368.99q-.92.07-.93-.32" vector-effect="non-scaling-stroke"/><path stroke="#7c5101" d="M195.73 358.69q-.47-.21-.78-.62M232.12 348.91q-.1.48.14.91" vector-effect="non-scaling-stroke"/><path stroke="#023a02" d="M213.13 361.27q-.22.06-.47.25-.32.26-.64-.01l-.37-.31" vector-effect="non-scaling-stroke"/><path stroke="#7c5101" d="M344.51 363.56q-.11.34.07.69M353.26 374.37q-.29.09-.53.81" vector-effect="non-scaling-stroke"/><path stroke="#023a02" d="M333.16 369.28q-.23-.35-.66-.65" vector-effect="non-scaling-stroke"/><path stroke="#7c5101" d="m179.5 352.55-1.98-.09" vector-effect="non-scaling-stroke"/><path stroke="#023a02" d="m222.05 359.33-.12-.88" vector-effect="non-scaling-stroke"/><path stroke="#7c5101" d="m189.22 353.04-.27.92M181.09 353.69q-.58-.18-1.75.03" vector-effect="non-scaling-stroke"/><path stroke="#023a02" d="m211.09 362.09-.1.83" vector-effect="non-scaling-stroke"/><path stroke="#7c5101" d="M195.15 359.86q-.27-.49-.78-.78M186.99 358.44q-.32.52-.56.5M368.29 374.36q-.88.32-1.51.18M366.47 374.67q-.31.04-.52.73M356.12 367.8q.32-.35.19-.86M190.18 370.81l1.31 1.51M196.65 380.25q.04.56-.4.89" vector-effect="non-scaling-stroke"/><path stroke="#7f8b03" stroke-opacity=".996" d="m196.25 381.14-.43-.11" vector-effect="non-scaling-stroke"/><path stroke="#7c5101" d="M191.42 374.44q-.29-.63-.86-1.13" vector-effect="non-scaling-stroke"/><path stroke="#023a02" d="M208.6 372.99q-.58-.28-.86-.28" vector-effect="non-scaling-stroke"/><path stroke="#7c5101" d="M191.41 369.79q-.29.08-.88-.09M318.12 377.19q-.88-.12-1.34.01" vector-effect="non-scaling-stroke"/><path stroke="#7f8b03" stroke-opacity=".996" d="M324.48 377.62q-.03-.61-.47-.84" vector-effect="non-scaling-stroke"/><path stroke="#023a02" d="M197.27 380.96q-.9.63-1.02.18" vector-effect="non-scaling-stroke"/><path stroke="#7f8b03" stroke-opacity=".996" d="M379.26 374.3q-.03.3-.23.66" vector-effect="non-scaling-stroke"/><path stroke="#7c5101" d="m369.73 375.5-1.07.27M365.27 376.41q-.27.66-.47.82M373.37 378.47q-.52.29-.6.54" vector-effect="non-scaling-stroke"/></g><path fill="#f9a202" fill-opacity=".996" d="M253.21 0q-1.88 1.13-3.69 1.88-2.15.89-3.46 2.1-4.85 4.47-7.43 6.65-.36.31-.65.09 0-.32-.11-.64 3.96-3.71 8.06-7.28c1.65-1.43 3.3-1.87 5.23-2.8zM280.94 0q2.71 1.42 4.09 0h1.9q-4.14 3.22-7.93 0zM312.41 0l4.84 3.96q-.27.08-.49.66L311.18 0z"/><path d="m329.42 3.69-.12.88-11.82.28q-.24.01-.43-.13-.15-.11-.29-.1.22-.58.49-.66z"/><path fill="#f9a202" fill-opacity=".996" d="M341.42 7.81q-.37.38-.49.77L329.3 4.57l.12-.88z"/><path d="m351.36 15.96-.72.6-9.71-7.98q.12-.39.49-.77z"/><path fill="#047404" fill-opacity=".996" d="M237.87 10.08q.11.32.11.64-.03.12-.07.24 0 .01-.02.01l-12.05.25q.12-.13.01-.81z"/><path fill="#f9a202" fill-opacity=".996" d="M225.85 10.41q.11.68-.01.81l-9.27 8.28q-.38-.14-.72-.55zM351.36 15.96l6.29 10.75q-.03.37-.7.73l-6.31-10.88z"/><path d="M215.85 18.95q.34.41.72.55l-6.04 10.93q-.1-.23-.43-.49z"/><path fill="#047404" fill-opacity=".996" d="m369.05 30.67-.07.99-12.03-4.22q.67-.36.7-.73z"/><path fill="#f9a202" fill-opacity=".996" d="M210.1 29.94q.33.26.43.49l-11.35 4.85q-.5-.1-.47-.8zM379.29 39.88q-.4-.04-.84-.32l-9.47-7.9.07-.99 9.9 8.17q.31.26.32.66z"/><path d="M198.71 34.48q-.03.7.47.8l-8.42 7.59a3.51 3.5-67.4 0 1-2.18.9c-4.53.21-9.98-.49-14.16 1.31q-4.15 1.78-8.15 3.23a2.68 2.66-45.2 0 1-1.78.01l-10.94-3.79q.11-.41.04-.93l10.95 3.78a2.22 2.17-45.6 0 0 1.48-.03c4.43-1.7 9.53-4.53 14.39-4.44q4.05.08 8.28-.15a2.38 2.34 21.8 0 0 1.44-.6z"/><path fill="#047404" fill-opacity=".996" d="M379.29 39.88c.82 3.95 1.15 8.16 2.36 12.01q.58 1.85-.6.32-.3-.38-.45-.94-1.49-5.66-2.15-11.71.44.28.84.32"/><path fill="#f9a202" fill-opacity=".996" d="M153.59 43.6q.07.52-.04.93-4.17 1.85-8.49 3.47-2.92 1.09-4.71 2.76-3.3 3.09-6.47 5.89c-1.24 1.1-2.45.89-4 .94q-4.81.15-9.6.19l-.26-.88 11.38-.29q1.11-.02 1.93-.77 2.78-2.5 5.67-5.26 2.09-1.98 5.64-3.48 4.4-1.86 8.95-3.5"/><path d="m258.27 55.02.46.8q-1.63.81-2.5.39-4.17-2.03-8.25-4.1-2.83-1.43-5.26-1.62-4.58-.34-8.78-.83a1.86 1.83-58.7 0 0-1.3.33q-3.6 2.55-7.36 5.05c-3.6 2.39-6.39 7.73-8.94 11.33q-.38-.2-.89-.28c2.65-4.09 5.63-9.45 9.59-12.1q3.91-2.61 7.35-5.04a1.78 1.73-58.7 0 1 1.23-.32q4.54.52 9.25.91c4.41.37 9.31 3.55 13.24 5.52.73.36 1.42.18 2.16-.04"/><path fill="#047404" fill-opacity=".996" d="M281.03 53.69q-.33.55-.09.84-3.91-.43-7.71-.83-3.6-.37-6.98.36-3.78.81-7.52 1.76l-.46-.8q3.94-1.17 7.93-1.99 3.57-.73 7.4-.32 3.72.4 7.43.98"/><path fill="#f9a202" fill-opacity=".996" d="M302.37 64.04q-.03.74-.31.86l-11.39-1.15a3 2.99-18.8 0 1-1.89-.93l-7.84-8.29q-.24-.29.09-.84l8.5 8.42a2.66 2.66 0 0 0 1.58.75z"/><path fill="#047404" fill-opacity=".996" d="m120.02 56.9.26.88-10.76 4.25a1.89 1.88-87.8 0 0-1 .93c-1.95 4.03-5.27 8.59-5.7 12.99q-.43 4.4-1.1 8.89a2.67 2.65 73.3 0 1-.85 1.59L93 93.5q-.61.55-.72 1.36l-1.47 11.2q-.32-.08-.91 0l1.47-11.59a2.6 2.6 0 0 1 .85-1.62l8.08-7.26q.39-.34.46-.85.66-4.39 1.1-8.96c.45-4.56 3.86-9.44 5.9-13.46q.31-.59.92-.84z"/><path d="M360.21 57.52q-.23.48.12.88-4.57 1.19-9.09 2.37-2.71.71-5.06 2.35-3.76 2.64-7.59 5.19-.09-.61-.5-.71 3.47-2.57 6.97-4.93 3.09-2.08 6.63-3.06 4.22-1.17 8.52-2.09"/><path fill="#f9a202" fill-opacity=".996" d="M371.65 62.89q0 .32-.11.6-.46.2-1.04-.08-5.17-2.52-10.17-5.01-.35-.4-.12-.88z"/><path d="M382 60.29v.8q-4.6 1.49-9.52 2.61-.31.07-.94-.21.11-.28.11-.6z"/><path fill="#047404" fill-opacity=".996" d="M325.59 66.43q-.22.7.12.94l-11.28 2.91q-.98.25-1.88-.19l-10.49-5.19q.28-.12.31-.86l10.38 5.1a2.42 2.37 50.3 0 0 1.65.17z"/><path fill="#f9a202" fill-opacity=".996" d="M215.45 66.09q.51.08.89.28-.52.55-.8.63-5.67 1.64-11.61 3.01-.81-.16-.61-.38zM338.09 67.6q.41.1.5.71l-12.88-.94q-.34-.24-.12-.94z"/><path d="M203.32 69.63q-.2.22.61.38l-7.09 10.21q-.31-.2-.93-.26z"/><path fill="#f9a202" fill-opacity=".996" d="M195.91 79.96q.62.06.93.26l-3.17 12.13q-.76-.3-.86-.49z"/><path d="M192.81 91.86q.1.19.86.49-3.96 2.85-7.84 5.55-2.31 1.62-3.93 3.93-2.65 3.78-5.39 7.55-.26-.4-.77-.41 2.46-3.8 5.09-7.39 2.08-2.82 5.05-4.93 3.39-2.41 6.93-4.79"/><path fill="#f9a202" fill-opacity=".996" d="m90.81 106.06 2.69 11.38a2.77 2.76-38.4 0 1-.22 1.9q-1.88 3.75-4.01 7.55-1.28 2.3-1.7 5.52-.64 4.83-1.19 9.64l-.93.1q.39-5.01 1.15-9.94.56-3.63 1.98-6.14 2.08-3.68 3.9-7.4.2-.42.1-.87l-2.68-11.74q.59-.08.91 0M176.51 109.38l-3.18 12.35q-.29.58-.91.25l3.32-13.01q.51.01.77.41"/><path d="m173.33 121.73 1.26 11.56a2.43 2.4 59.4 0 1-.41 1.64l-6.27 9.02a1.63 1.63 0 0 0-.29 1.02l.05.82-1.07-1.56 6.78-10.03q.28-.42.23-.92l-1.19-11.3q.62.33.91-.25"/><path fill="#047404" fill-opacity=".996" d="m86.38 142.05 2.76 11.69-.95.15-2.74-11.74zM167.67 145.79l1.12 10.87q-.34-.01-.86.22l-1.33-12.65z"/><path fill="#f9a202" fill-opacity=".996" d="M382 144.64v.85l-9.23 1.44q-.11-.24-.09-.91z"/><path d="M372.68 146.02q-.02.67.09.91l-10.03 5.5a3.04 3.02 36.3 0 1-2.08.31l-11.1-2.38q.23-.32-.23-.88l11.93 2.34a1.43 1.42-53.4 0 0 .95-.14z"/><path fill="#f9a202" fill-opacity=".996" d="M349.33 149.48q.46.56.23.88l-10.65 5.88q-.5-.15-.54-.77zM89.14 153.74l6.55 9.86q.48.71.37 1.57l-1.43 11.63q-.41.44-.91.42l1.37-12.25q.06-.49-.21-.9l-6.69-10.18z"/><path d="M338.37 155.47q.04.62.54.77l-7.51 8.68a2.97 2.92-74.2 0 1-1.72.98q-4.12.74-8.54 1.25c-4.14.47-7.59 3.2-11.22 5q-2.18 1.08-4.32 3.54-3.16 3.65-6.31 7.28-.19-.3-.72-.53 2.94-3.67 6.05-7.16 2.6-2.92 5.18-4.21c3.68-1.83 6.87-4.38 11.14-4.89q4.32-.52 8.81-1.31a1.49 1.45 14.9 0 0 .86-.48z"/><path fill="#f9a202" fill-opacity=".996" d="m168.79 156.66 5.33 10.87q.22.45.1.95l-2.88 11.53q-.25.19-.94-.02l2.78-11.49q.12-.5-.11-.96l-5.14-10.66q.52-.23.86-.22M382 169.79v1.94q-.51.99-.53 1.54-.12 5.86-.25 11.8-.02.57-.39.99l-6.07 6.75q-.6.67.25.36l4.26-1.58q.51-.19.82-.64l1.91-2.87v1.72q-2.38 3.63-8.19 4.97a1.95 1.94-84.7 0 0-1.35 1.13l-4.51 10.58-.58-.34 3.85-9.94q.21-.53-.33-.35l-2.15.75-.57-.7c1.84-.84 3.63-1.26 5.02-2.81q3.4-3.79 6.64-7.42.35-.4.37-.93.19-5.48.21-10.99 0-2.23 1.59-3.96"/><path d="m94.63 176.8 6.77 10.16-.78.57-6.9-10.31q.5.02.91-.42M171.34 180.01l1.24 11.41a3.16 3.15-30.9 0 1-.54 2.14l-6.52 9.42q-.19-.28-.83-.43l6.41-9.28a3 2.99 59.3 0 0 .52-2.06l-1.22-11.22q.69.21.94.02"/><path fill="#f9a202" fill-opacity=".996" d="M298.57 182.44q.53.23.72.53l-3.89 10.55a3.39 3.34-4.7 0 1-1.53 1.78l-9.88 5.45q-.33-.19-.53-.46.09-.11.13-.27.05-.18.2-.26l9.58-5.3a2.69 2.68 85.9 0 0 1.23-1.42zM101.4 186.96l9.28 6.68a2.95 2.9-79.4 0 1 1.11 1.65q1.11 4.36 2.04 8.75.49 2.3 2.29 4.98 2.77 4.11 5.3 8.21-.59.34-.96.2-2.55-3.89-5.18-7.83-1.9-2.86-2.45-5.41-.94-4.32-1.9-8.38a2.65 2.65 0 0 0-1.01-1.51l-9.3-6.77z"/><path fill="#047404" fill-opacity=".996" d="m368.17 195.9.57.7-9.25 7.98-.54-.71zM283.46 200.29q.2.27.53.46l-4.3 11.5-.92-.06z"/><path fill="#f9a202" fill-opacity=".996" d="m165.52 202.98-2.89 11.31a2.43 2.41 79.7 0 1-.97 1.41l-9.07 6.34a1.42 1.41 79.8 0 0-.56.81l-2.93 11.39-.89-.11 3.06-11.95a1.46 1.43 79.8 0 1 .57-.84l8.91-6.22a2.85 2.85 0 0 0 1.14-1.65l2.8-10.92q.64.15.83.43M358.95 203.87l.54.71q-.26.01-.53.15a1.32 1.19 28 0 1-.52.13l-11.16.02q-.43-.01-.6-.41-.05-.1.13-.53z"/><path fill="#047404" fill-opacity=".996" d="M346.81 203.94q-.18.43-.13.53.17.4.6.41l-9.87 8.15-.79-.46zM367.37 206.14l.58.34q-.4.43-.95.73-3.92 2.17-7.59 4.17-2.61 1.42-4.56 3.62l-5.57 6.26q-.26.3-1.17.76l-.04-.94q2.59-2.88 5.21-5.81 2.63-2.94 5.65-4.71 4.1-2.41 8.44-4.42"/><path fill="#f9a202" fill-opacity=".996" d="M279.69 212.25q.15 7.19-.05 12.12-.01.31-.4.58-.33-.15-.5-.46l.03-12.3z"/><path d="m336.62 212.57.79.46-6.04 10.91-.58-.71zM121.42 217.23q-.57 5.16-1.22 9.94-.35 2.56.3 5.1 1.18 4.67 2.21 9.59l-.95-.1q-1.11-4.4-2.12-8.85-.71-3.17-.35-6.39.51-4.53 1.17-9.09.37.14.96-.2"/><path fill="#f9a202" fill-opacity=".996" d="m348.07 221.08.04.94-12.07 1.65q-.31-.2-.61-.61z"/><path fill="#047404" fill-opacity=".996" d="M335.43 223.06q.3.41.61.61l-7.98 8.92-.78-.43z"/><path fill="#f9a202" fill-opacity=".996" d="m330.79 223.23.58.71q-4.55 1.86-9.11 3.53-2.58.95-4.6 2.72-3.54 3.09-7.14 6.17-.25.04-.88-.4l.1-.2q.04-.09.13-.16 3.23-2.67 6.32-5.55 2.17-2.02 5.19-3.28 4.64-1.92 9.41-3.54"/><path fill="#047404" fill-opacity=".996" d="M278.74 224.49q.17.31.5.46.08.28-.11.5-3 3.53-6.03 7.08-1.75 2.05-2.67 4.66-1.58 4.43-3.27 8.72-.75-.11-.85-.29 1.41-4.38 3.2-8.71 1.37-3.32 3.87-6.25 2.65-3.11 5.36-6.17"/><path fill="#f9a202" fill-opacity=".996" d="m327.28 232.16.78.43-4.69 11.8q-.75-.29-.75-.6z"/><path d="m149.1 234.24 1.24 12.01q.06.55-.24 1.01-2.18 3.33-5.12 7.29c-2.47 3.33-2.72 7.04-3.88 10.84-1.38 4.55-.24 8.69.09 13.19q.17 2.43 1.83 5.68 2.13 4.16 4.07 8.44l-.95.18q-2-4.17-4.11-8.38-1.58-3.14-1.78-5.53c-.35-4.22-1.54-8.9-.29-13.1 1.22-4.1 1.57-8.24 4.19-11.85q2.7-3.72 5.04-7.19.26-.38.21-.84l-1.19-11.86zM310.52 236.36l-1.84 12.58q-.24-.33-.86-.48l1.82-12.5q.63.44.88.4"/><path fill="#f9a202" fill-opacity=".996" d="m122.71 241.86-5.44 10.59a1.7 1.7 0 0 0-.13 1.19q1.06 4.2 1.96 8.46c.91 4.34 4.46 8.25 6.83 11.99q.26.41.41.89l.29.92-.82-.14q-2.63-3.99-5.33-8.1-1.84-2.82-2.4-5.45-.93-4.37-1.93-8.42a2.44 2.4 52.4 0 1 .21-1.71l5.4-10.32z"/><path fill="#047404" fill-opacity=".996" d="M322.62 243.79q0 .31.75.6l-10.74 5.65-.71-.62z"/><path fill="#f9a202" fill-opacity=".996" d="M266.31 245.62q.1.18.85.29c-4.28 3.17-9.83 4.56-13.18 8.68q-2.73 3.36-5.75 6.7-.11.13-.28.19-.29.1-.47.01l-.15-.61q2.75-3.3 5.61-6.51 2.49-2.81 5.6-4.6 3.76-2.17 7.77-4.15M307.82 248.46q.62.15.86.48l.71 2.26q.14.45.48.13l2.05-1.91.71.62q-1.54 1.27-2.49 2.87-.26.43-.17.93l1.34 7.2q-.66-.1-.98-.3l-1.43-5.91q-.13-.56-.51-.13l-4.28 4.78q-.44.05-.94-.22l5.07-6.11q.32-.39.24-.88z"/><path fill="#047404" fill-opacity=".996" d="m304.11 259.48-.31 13.18q0 .25.25.25l.26.01a.18.18 0 0 0 .19-.19q-.09-1.22.47-2.24 2.71-4.91 5.36-9.75.32.2.98.3l-5.64 10.49q-.23.44-.13.93l2.54 11.36q-1 .06-.72 1.1l-3.9 10.16q-.16-.25-.84-.28l4.09-10.39q.16-.42.05-.85-1.11-4.4-2.85-8.78-.93-2.33-.95-5.53-.04-4.86.21-9.99.5.27.94.22"/><path d="m247.33 260.88.15.61-12.14 2.15q-.05-.34-.48-.77z"/><path fill="#f9a202" fill-opacity=".996" d="M234.86 262.87q.43.43.48.77l-7.99 9.34q-.45-.01-.75-.51z"/><path d="M226.6 272.47q.3.5.75.51l-4.65 11.57q-.28-.35-.56-.39z"/><path fill="#047404" fill-opacity=".996" d="m126.63 275.9-1.45 11.89q-.28.1-.91-.02l1.54-12.01z"/><path fill="#f9a202" fill-opacity=".996" d="M308.08 283.82q2.96 4.8 6.15 9.68.4.6.3 2.01l-.87-.11-6.3-10.48q-.28-1.04.72-1.1M222.14 284.16q.28.04.56.39l-10.7 6.2-.6-.68zM125.18 287.79q1.01 4.45 2.12 8.88.81 3.2 2.61 5.99 2.42 3.74 4.95 7.48-.08.24-.57.75-2.6-3.61-5.04-7.35-2.03-3.08-2.93-6.56-1.18-4.57-2.05-9.21.63.12.91.02"/><path d="m211.4 290.07.6.68-8 9.28q-.23.09-.82-.41z"/><path fill="#f9a202" fill-opacity=".996" d="m147.09 292.7-3.02 12.04q-.33.21-.97.22l3.04-12.08zM302.62 294.8q.68.03.84.28l4.05 11.63q-.2.35-.61.6l-4.25-11.65q-.1-.26 0-.52.12-.31-.03-.34"/><path fill="#047404" fill-opacity=".996" d="m313.66 295.4.87.11-1.61 11.42q-.34.12-.94-.03z"/><path fill="#f9a202" fill-opacity=".996" d="M204 300.03q-1.69 4.54-3.39 9.08-1.09 2.9-1.01 5.19.14 4.45.06 8.91a3.07 3.02-24.4 0 1-.75 1.94l-7.45 8.63q-.36.1-.9.05.16-.18.22-.46.09-.44.39-.77l6.91-8.03a2.45 2.4-25 0 0 .6-1.59q.01-4.25-.07-8.48-.05-2.66 1.35-6.51 1.52-4.21 3.22-8.37.59.5.82.41"/><path d="M144.07 304.74q2.09 4.2 4.2 8.3 1.41 2.73 3.68 4.87l6.64 6.24q-.6.81-.78.6-3.33-3-6.59-6.16-2.44-2.35-4-5.37-2.08-4.03-4.12-8.26.64-.01.97-.22M313.42 313.78q.28.75.15 1.58l-6.67-8.05q.41-.25.61-.6z"/><path fill="#f9a202" fill-opacity=".996" d="m312.92 306.93 2.83 11.88q-.77.25-.89.69-.18.61.46 1.02l.05 4.25q.05.36.3.43l.11.61c-1.39 2.75 1.91 10.03 3.74 14.99q-.21.16-.88.29-2.3-5.81-4.02-11.87-.28-.99-.33-2.28l-.13-1.14q.9-5.5-.59-10.44.13-.83-.15-1.58l-1.44-6.88q.6.15.94.03M382 307.51v1l-3.09 3.36-.82-.56z"/><path d="M147.92 329.77q-.07.23-.66.28l-2.9-11.18a2.32 2.25 11.6 0 0-.87-1.28l-9.2-6.7q.49-.51.57-.75l9.75 7.29q.4.3.52.79zM378.09 311.31l.82.56q1.31.41 3.09.3v.87l-4.79-.06a1.52 1.47-63.3 0 0-.92.32l-8.14 6.45q-.02.02-.02.05-.02.12.1.25l-.83.65q-.55.39-.77.09.09-.52-.11-1.04l8.7-6.86q.65-.5-.16-.39-3.02.4-5.81.55-2.53.13-6 1.93-3.75 1.94-7.65 3.85-1.12.55-3.41 3.75-.37.29-.65.77-1.21.72-1.62 1.73l-1.24-.27q1.16-1.23 1.44-2.09.1.04.29-.03.07-.03.1-.1.11-.25.37-.48 1.23-1.11 2.52-2.5c2.33-2.53 6.16-3.79 9.21-5.47q2.74-1.5 6.46-2 4.43-.59 9.02-.83"/><path fill="#f9a202" fill-opacity=".996" d="M380.21 317.96q-.06.65.04.9l-12.6 2.32q-.16-.2-.25-.48l.83-.65z"/><path d="M382 318.27v.62q-.59.39-1.75-.03-.1-.25-.04-.9z"/><path fill="#047404" fill-opacity=".996" d="M315.75 318.81q.64 1.75 1.85 3.3.29.37.76.38l13.05.26.07.85-12.15-.43a.57.57 0 0 0-.51.87c1.43 2.33 2.73 4.9 4.93 6.47q2.88 2.04 5.84 4.38.53.41.92-.14c1.47-2.07 2.92-4 5.23-5.26q3.72-2.02 7.24-4.27c1.8-1.16 3.72-.75 5.7-.41l1.24.27q2.79.8 5.51 1.01 1.98.16 3.89-.95 3.1-1.79 6.12-3.86.61-.16.35-.27.57-.52.84-.22.22.3.77-.09.09.28.25.48l-10.17 5.94q-.43.26-.93.17l-8.17-1.33-.88-.13q-2.1-.88-3.01-.32-4.2 2.57-8.49 4.98c-2.16 1.22-3.06 2.92-4.64 4.63q-.36.39-.11.85.22.4.69.73-.38.23-.54.84-.72-1.43-1.53-.42-1.62 2.01-3.43 3.96l-.27-.99 2.79-3.69q.33-.44-.1-.78-2.46-1.99-5.32-4c-2.56-1.81-3.79-4.35-5.41-6.89q-.31-.49-.77-.13l-1.58 1.21-.11-.61.34-.89q.47-.22.75-.57.33-.41.13-.89-.57-1.34-1.57-2.33-.64-.41-.46-1.02.12-.44.89-.69"/><path fill="#f9a202" fill-opacity=".996" d="M343.55 318.93q.2.79.13 1.04l-12.2 3.63-.07-.85z"/><path fill="#047404" fill-opacity=".996" d="M350.88 322.11q-.26.23-.37.48-.03.07-.1.1-.19.07-.29.03l-6.44-2.75q.07-.25-.13-1.04z"/><path fill="#f9a202" fill-opacity=".996" d="M366.52 319.75q.2.52.11 1.04-.27-.3-.84.22-.66.15-.35.27l-10.76 3.32q-.17-.85-.1-.99z"/><path fill="#047404" fill-opacity=".996" d="M354.58 323.61q-.07.14.1.99l-3.14-1.25q.28-.48.65-.77z"/><path fill="#f9a202" fill-opacity=".996" d="m158.59 324.15 1.47 12.87q-.23.3-.9.18l-1.35-12.45q.18.21.78-.6"/><path d="m316.01 324.31-.34.89q-.25-.07-.3-.43.31.03.64-.46M314.16 325.8l.13 1.14q-4.43 3.94-5.97 4.41-5.16 1.56-10.35 3.25-.47.15-.73.58l-6.13 10.09-.79-.55 6.05-10.05a2.33 2.27-82.7 0 1 1.26-1q4.37-1.42 9.01-2.88c2.94-.92 5.12-3.06 7.52-4.99M348.38 325.96l-6.05 13.07q-.1.22-.31.32-.28.15-.12.25-.3-.49-.64-.65 2.24-5.27 4.49-10.7.29-.7 1.75-2.42z"/><path fill="#f9a202" fill-opacity=".996" d="m147.92 329.77 11.09 7.49q.29.44.76.55.41.1.68-.25l8.19 2.31a3.6 3.56 80.9 0 1 2.03 1.49l6.35 9.58-.49.52-6.86-9.8a1.38 1.33 79.7 0 0-.74-.53l-7.71-2.2q-.66-1.02-1.4-.4c-4.37-1.36-8.41-5.06-12.07-7.78q-.37-.27-.49-.7.59-.05.66-.28"/><path fill="#047404" fill-opacity=".996" d="M190.56 333.83q.54.05.9-.05v12.2q-.45-.2-.92.03z"/><path fill="#f9a202" fill-opacity=".996" d="m331.94 336.7 1.5 5.56q.12.46.56.25l7.26-3.56q.34.16.64.65l-7.58 3.92q-.57.3-.44.94l.81 3.82q.16.77.78 1.24l9.3 7.04q.01.34-.4.86-4.22-3-8.36-6.22c-2.48-1.94-2.65-3.35-2.97-6.15q-.07-.55-.6-.45-.82.14-1.59.72l-.76-.54 1.9-1.3q.43-.3.34-.81l-.93-5.13q.16-.61.54-.84"/><path d="M160.45 337.56q-.27.35-.68.25-.47-.11-.76-.55.07-.03.15-.06.67.12.9-.18.26.17.39.54M161.22 338.93q-.08.67.1.4-.56.27-1.08.03-.32-.36-.42-.83.74-.62 1.4.4"/><path fill="#047404" fill-opacity=".996" d="m161.32 339.33 4.04 7.88q.23.44.69.64l10.6 4.55q-.15.43-.15.95l-11.17-4.7q-.6-.25-.89-.83l-4.2-8.46q.52.24 1.08-.03"/><path d="m326.17 340.09.27.99-4.99.98a.36.35-25.3 0 0-.21.57l6.43 7.72-.4.95-7.2-8.3q-.33-.38-.83-.3l-5.36.87q.04-.41-.2-.8 2.05-.75 4.33-.97 1.06-.11.63-.71.67-.13.88-.29.46.48.73.46 3.15-.21 5.92-1.17M278.31 348.75q-.09.29-.01.91l-10.36-5.89q-.45-.26-.96-.15-4.22.86-8.88 1.56-2.23.33-4.7 1.83-4.38 2.64-8.82 5.04-.16-.69-.11-.93 3.94-2.34 7.96-4.72 3.07-1.81 5.62-2.22 4.43-.71 8.78-1.51a2.6 2.6 0 0 1 1.8.32z"/><path fill="#f9a202" fill-opacity=".996" d="M313.68 342.77q.24.39.2.8l-11 6.23q-.31-.81.04-.88zM290.32 344.72l.79.55-1.29 1.15q-.47.42.15.5.35.05.81-.19.07.69-.02.94c-4.03.28-6.69 3.46-9.76 5.62l-.1-.99 3.89-3.25q.35-.29-.11-.23l-6.38.84q-.08-.62.01-.91 7.47-.6 9.14-1.81 1.45-1.05 2.87-2.22"/><path fill="#047404" fill-opacity=".996" d="m330.09 344.78.76.54-2.25 5.48q-.3.45-.38 1.05c-1.02 2.16-2.06 4.23-2.12 6.63q-.11 5.06-.33 10.13-.01.13-.11.2-.27.19.06.18-.92.07-.93-.32.12-5.68.42-11.42.09-1.82 2.06-5.95l.4-.95z"/><path fill="#f9a202" fill-opacity=".996" d="M191.46 345.98q1.99 5.15 3.9 10.4.5 1.36.37 2.31-.47-.21-.78-.62l-4.41-12.06q.47-.23.92-.03"/><path fill="#047404" fill-opacity=".996" d="M302.92 348.92q-.35.07-.04.88l-12.12-2.13q.09-.25.02-.94z"/><path d="M232.12 348.91q-.1.48.14.91l-11.18 2.06a2.55 2.54-75.8 0 0-1.55.93l-6.63 8.33q-.08.1-.04.1.16-.02.27.03-.22.06-.47.25-.32.26-.64-.01l-.37-.31 7.52-9.36q.32-.39.82-.49z"/><path fill="#f9a202" fill-opacity=".996" d="M244.47 351.12q-.05.24.11.93l-12.32-2.23q-.24-.43-.14-.91z"/><path d="m328.6 350.8 8.55 4.89a3.28 3.26-84.7 0 1 1.46 1.77l2.32 6.63q.22.63.81.31 1.42-.77 2.77-.84-.11.34.07.69l-1.93.84a1.73 1.73 0 0 0-.17 3.09l10.78 6.19q-.29.09-.53.81l-10.75-6.19q-.47-.27-.66-.79l-.53-1.5q-.22-.61-.81-.36l-6.82 2.94q-.23-.35-.66-.65l7.04-3.13a.83.83 0 0 0 .45-1.04l-2.36-6.79q-.18-.5-.64-.77l-8.77-5.05q.08-.6.38-1.05M179.5 352.55l-1.98-.09-.99-1 .49-.52zM280.9 352.3l.1.99-11.72-.46a1.64 1.61 27.2 0 0-1.07.33q-3.18 2.42-6.13 4.93-2.49 2.12-5.69 3.3-7.23 2.67-9.33 2.97-2.18.3-10.04-.22-3.3-.22-6.3-1.57c-1.93-.87-6.71-3.35-8.67-3.24l-.12-.88c.54-.09 1.11-.16 1.64.05q4.27 1.69 8.49 3.57 2.46 1.09 5.1 1.08c3.88-.01 8.22.93 11.89-.38q3.33-1.2 6.69-2.19c4.24-1.24 8.33-5.49 11.8-8.17a2.65 2.64 27 0 1 1.7-.55z"/><path fill="#f9a202" fill-opacity=".996" d="m177.52 352.46 1.98.09 9.72.49-.27.92-7.86-.27q-.58-.18-1.75.03l-2.84-.37q0-.52.15-.95-.2.27.87.06"/><path d="M194.95 358.07q.31.41.78.62l2.51 2.47q.37.36.88.38l11.97.55-.1.83q-5.8 0-11.5-.23c-1.9-.08-2.89-1.82-4.34-2.83q-.27-.49-.78-.78l-5.42-5.12.27-.92zM181.09 353.69l5.9 4.75q-.32.52-.56.5l-7.09-5.22q1.17-.21 1.75-.03M368.29 374.36q-.88.32-1.51.18.02-.24-.12-.34-.14-.11-.31-.01-.25.16.12.48-.31.04-.52.73l-9.83-7.6q.32-.35.19-.86l5.39 4q1.43 1.06.47-.44l-5.8-9.11q-.28-.44-.78-.59l-11.22-3.38q.41-.52.4-.86l10.68 3.14q1.21.35 1.9 1.41 2.7 4.15 5.12 8.05c1.42 2.28 3.72 3.51 5.82 5.2m-2.61-.8q-.13-.61-.85-.7-.68-.1-.15.35l.65.56q.48.41.35-.21"/><path fill="#f9a202" fill-opacity=".996" d="m186.99 358.44 3.19 12.37 1.31 1.51 5.16 7.93q.04.56-.4.89l-.43-.11-4.4-6.59q-.29-.63-.86-1.13c-2.43-3.85-3.3-9.82-4.13-14.37q.24.02.56-.5"/><path fill="#047404" fill-opacity=".996" d="m221.93 358.45.12.88-9.12 3.04a1.68 1.67-89.6 0 0-1.05 1.04l-3.28 9.58q-.58-.28-.86-.28l3.25-9.79.1-.83q.37-.42.56-.89l.37.31q.32.27.64.01.25-.19.47-.25z"/><path fill="#f9a202" fill-opacity=".996" d="m195.15 359.86-3.74 9.93q-.29.08-.88-.09l3.84-10.62q.51.29.78.78M356.31 366.94q.13.51-.19.86l-11.54-3.55q-.18-.35-.07-.69.11-.05.22-.11.05-.02.1-.01z"/><path d="M324.79 368.67q.01.39.93.32l-7.6 8.2q-.88-.12-1.34.01z"/><path fill="#047404" fill-opacity=".996" d="M332.5 368.63q.43.3.66.65l-8.68 8.34q-.03-.61-.47-.84z"/><path d="m191.41 369.79.08 2.53-1.31-1.51q.71-.66.35-1.11.59.17.88.09M207.74 372.71q.28 0 .86.28-.45.73-1.2 1.17-4.3 2.56-8.64 5.07c-.78.44-1.08 1.01-1.49 1.73q-.9.63-1.02.18.44-.33.4-.89c.55-.68.61-1.21 1.42-1.69q4.86-2.93 9.67-5.85M191.42 374.44l-.01 7.56h-.72l-.13-8.69q.57.5.86 1.13"/><path fill="#f9a202" fill-opacity=".996" d="M379.26 374.3q-.03.3-.23.66l-9.3.54-1.07.27-2.71-.37q.21-.69.52-.73l.31-.13q.63.14 1.51-.18zM365.27 376.41q-.27.66-.47.82l-12.07-2.05q.24-.72.53-.81z"/><path fill="#047404" fill-opacity=".996" d="M382 375.19v.74l-2.97-.97q.2-.36.23-.66 1.52-.01 2.74.89"/><path d="M369.73 375.5q2.21 1.3 3.64 2.97-.52.29-.6.54l-4.11-3.24zM369.95 382h-.92l-4.23-4.77q.2-.16.47-.82z"/><path fill="#f9a202" fill-opacity=".996" d="M324.01 376.78q.44.23.47.84l-6.77.65q-.5.04-.7.5l-1.4 3.23h-.93l1.14-3.24q.18-.49-.34-.46l-3.2.2a1.56 1.56 0 0 0-.96.4l-3.42 3.1h-.9l3.81-3.95q.35-.36.86-.41l5.11-.44q.46-.13 1.34-.01zM373.37 378.47q.92 1.74.75 3.53h-.56q-.74-1.24-.79-2.99.08-.25.6-.54"/><path fill="#047404" fill-opacity=".996" d="m197.27 380.96-.25 1.04h-.9l-.3-.97.43.11q.12.45 1.02-.18"/></svg>