<svg xmlns="http://www.w3.org/2000/svg" viewBox="0 0 382 382"><g fill="none" stroke-opacity=".996" stroke-width="2"><path stroke="#f9e6e4" d="M200.88 331.62q-1.23.74-1 1.15M182.18 332.3q-.27-.38-.81-.19-.31.11-.33-.22 0-.15.16-.35" vector-effect="non-scaling-stroke"/><path stroke="#f9f67c" d="m127.21 9.48-.62.82M124.02 8.55q.11-.46.03-1.08M143.48 2.18q-.55-.33.46-.22M145.48 3.72l-.59.73M136.23 23.53q-.09.68-.55.76M118.84 17.04q-.11-.69-.55-.87M114.31 14.43l-1 .03M109.81 16.57l-1.06.03" vector-effect="non-scaling-stroke"/><path stroke="#f9ea6f" d="M155.25 3.81q2.3.92 1.8 2.32M153.96 16.95q-.42.73-.33 1.46M200.77 10.94l-.92.58M191.49 24.48q-.52-.19-.96.01M182.42 26.91q-.59.35-1.05.36M192.15 4.5q-.07.77.16 1.48M221.12 6.54q-.3.53-1.09.27M210.63 11.3l-.17 1.37M201.77 25.47q.19-.74-.27-.14-.11.15-.2-.01-.25-.48-.54-.2M218.11 1.54q-.03-.16-.14-.22-.14-.08-.24.05-.17.19.06.41M228.48 3.33q-.35.42.34.99M236.75 1.53q1.12-.06 1.32-.77" vector-effect="non-scaling-stroke"/><path stroke="#f9f67c" d="M238.73 2.44q.2.52 0 1.02" vector-effect="non-scaling-stroke"/><path stroke="#f9ea6f" d="m228.34 18.61-.98.12" vector-effect="non-scaling-stroke"/><path stroke="#f9f67c" d="M226.69 17.02q.68-.85.28-1.45M221.91 7.9q-.03.29-.76.57M257.13 7.53q-.17.78-.69 1.61M247.79 22.25q-.48.14-.49 1.28M246.53 23.98q-.53-.15-.75-.54M270.38 3.98l-1.05-.1M268.63 7.42q-.88.16-.82.76M267.7 12.99q.97-.51.77-.18M276.64 11.29q-.49-.23-.97-.1M271.88 17.01l.85.27M275.34 40.77q-.34-.57.09-.81M274.39 31.5q-.18-.46-.57-.73M269.27 23.64l.27-1.17M272.16 18.46l-1.16-.2M268.58 18.06q-.54.14-.91-.17M261.47 17.06l.01-1.02M114.14 22.72q-.94-.71-.7-.74M110.96 18.27q-.62.07-.96.42M105.98 19.55q-.95.01-1.1.57M108.18 30.74q-.5.56-.21.93" vector-effect="non-scaling-stroke"/><path stroke="#f9ea6f" d="M92.83 33.9q-.32.25-.56.67" vector-effect="non-scaling-stroke"/><path stroke="#f9f67c" d="M105.61 30.63q-.63-.76.29-1.08" vector-effect="non-scaling-stroke"/><path stroke="#f9ea6f" d="m268.28 24.34-.85-.41" vector-effect="non-scaling-stroke"/><path stroke="#f9f67c" d="M123.68 37.75q-.05.53-.35.84M106.79 40.8q.23-.53.2-1.01" vector-effect="non-scaling-stroke"/><path stroke="#f9ea6f" d="m237.67 35.89.12.36" vector-effect="non-scaling-stroke"/><path stroke="#f9e6e4" d="m238.57 36.54-.02 1.16" vector-effect="non-scaling-stroke"/><path stroke="#f9ea6f" d="M242.78 44.74q.66.57.52.92M228.41 52.41l-1.02-.81" vector-effect="non-scaling-stroke"/><path stroke="#f9f67c" d="m154.69 35.07-1.16.07M145.39 35.05q-.36-.04-.96-.54" vector-effect="non-scaling-stroke"/><path stroke="#f9ea6f" d="m145.47 37.65-.78.67" vector-effect="non-scaling-stroke"/><path stroke="#f9f67c" d="M139.17 44.72q-.39.26-.44.95M137.52 45.69q.07-.49-.96-.96" vector-effect="non-scaling-stroke"/><path stroke="#f9ea6f" d="M260.42 36.6q-.31-.15-1.06-.13" vector-effect="non-scaling-stroke"/><path stroke="#f9f67c" d="m252.19 32.26-1.09-.2" vector-effect="non-scaling-stroke"/><path stroke="#f9ea6f" d="M245.67 44.74q.91-.09-1.03.94M104.55 39.2q-.34.55-1.29.37M162.8 64.5q1.16 1.17.2 2.4M149.74 61.47q-.51-.13-1.05.12" vector-effect="non-scaling-stroke"/><path stroke="#f9f67c" d="M153.45 52.25q.57-.85.14-1.04-.66-.29-1.03-.53" vector-effect="non-scaling-stroke"/><path stroke="#f9ea6f" d="M152.56 50.68q1.26-.27.97-.58M200.78 44.87q-.82 1.23-.94.9M199.87 60.13l1.84-.64M201.69 59.71l-.68 1.33M191.4 76q-.17.24-.89.23M189.48 73.86q.45-.18.83-.85M182.28 45.69q-.11-.09-.21-.29-.1-.19-.21-.23-.27-.12-.67.04M201.22 50.14q-.08.78-.36 1.04M200.83 59.17q.46-.17.95.15" vector-effect="non-scaling-stroke"/><path stroke="#f9f67c" d="m175.98 59.24-.97-.16M173.23 61.67l.31 1.36" vector-effect="non-scaling-stroke"/><path stroke="#f9ea6f" d="M173.04 64.47q-.55-.11-1.04-.01M171.89 63.57v-1.8M167.66 55.01q-.39-.53-.26-.98M178.1 54.28q.31.45.67.73M181.22 51.19l-.52-.92M214.63 54.02q.11.92-.32 1.12M210.06 61.65q-.88.37-1-.86M207.13 59.16q-.53.11-1.19.01M205.11 57.89q.21.25.64.19.32-.05.4-.48M208.75 48.79q-.05 1.15-.75-.76M190.55 90.52q-.36.27-.64 1.03M190.5 92.71l.99.01M191.76 107.15q-.22.65.55 1.2M191.55 109.96l-1.01-.11M155.58 74.33q-.63-.27-.84-.71M219.21 64.28q-.08-1.26-.83.7M210.04 78.37q-.46 1.16-1.08.94M220.21 65.08q.23.39.03 1.19" vector-effect="non-scaling-stroke"/><path stroke="#f9f67c" d="M211.19 79.48q-.07.55.03 1.01" vector-effect="non-scaling-stroke"/><path stroke="#f9ea6f" d="m201.72 93.79-.84 1.43" vector-effect="non-scaling-stroke"/><path stroke="#f9f67c" d="M199.7 93.8q.85-.16 1-1.27M226.26 72.55l-1.1-.05" vector-effect="non-scaling-stroke"/><path stroke="#f9ea6f" d="M231.3 61.26q.06-.58.49-1.33" vector-effect="non-scaling-stroke"/><path stroke="#f9f67c" d="M200.73 79.1q-1.19 1.9-1.1 1.03" vector-effect="non-scaling-stroke"/><path stroke="#f9ea6f" d="M191.6 124.36q-.13.04-.28.49M203.74 122.2q-.11.55-.59.87M200.62 126.51q-.45.57-.86.79M191.6 126.46q-.74-.56-1.27-.2M191.3 141.99q.53-.11.65-.96M199.38 129.47l.72.71M191.47 143.83q-.39.14-.92.09M180.8 128.95q-.57-.44-.75-1.23M177.89 124.25q-.48-.09-.83-.32M173 123.89q-1.43-.5-.95.07M178.13 122.37q.35-.05.65.76M181.34 119.43q.18-.63-.35-1.42" vector-effect="non-scaling-stroke"/><path stroke="#f9f67c" d="M209.92 115.94q-.57.12-1.05.9M208.98 124.31l.98-.2M220.24 124.43q-.65.15-.52 1.03M219.43 132.36q-.25 1.46.35 2.26M219.03 139.1q-.57.1-1-.49-.3-.43-.73-.14-.38.26-.8.92M211 147.68q-.93 1.37-.94-.92M214.26 138.43q.42-.3.56-.73M215.69 136.19q.48-.32.68-.71M215.22 123.81q-.45.03-.89-.09M209.84 125.59l-.86.55M207.17 127.48l-.92.15" vector-effect="non-scaling-stroke"/><path stroke="#f9ea6f" d="M173.28 135.04q.08.4.33.74M173 148.06q-1.02-.04-1.1-1.21M171.57 136.76l-.11-.84M166 136.76l-.67-.76M163.96 133.05q-.68.32-1.22-.72M160.3 128.6l-.45-1.08M173.01 148.69l-.82.62M154.58 186.07q-1.15-.2-1.09.28M153.54 171.39q.41-.32.47-1.35M147.44 144.83q.47-.23 1.1-.15M154.01 152.92q.84-1.09.69-.67M157.44 142.59l.29-.93M162.74 139.94l1.06.39M165.58 139.38q-.53-1.85-1.98-2.97-.08-.06-.15.01-.1.09-.19.2-.27.3-.37-.1-.03-.12-.02-.27M157.79 132.72l-1.02-.45M154.55 131.21q-.75.21-.86-.1M149.67 128.95q-.08.23-.6.29-.41.05-.45.46-.02.16-.01.36M145.14 124.5q-.12.4-.84-.33M153.67 129.43q.51-.07.88.2M154.62 121.94q-.68-.05-.99-.47" vector-effect="non-scaling-stroke"/><path stroke="#f9f67c" d="M228.38 122.25q-.66.31-.98.02M227.34 130.06q.71.32 1-.63M244.93 127.02q.56.33.61.7M245.72 135.68q-.32-.15-.14 1.05M245.33 140.21l-.42 1.13" vector-effect="non-scaling-stroke"/><path stroke="#f9e6e4" d="m227.7 169.22-.3-.22" vector-effect="non-scaling-stroke"/><path stroke="#f9f67c" d="M191.47 192.03q.07.26-.01.51M181.89 164.26l.61-.77M190.65 161.42q-.38.37.92.27M199.75 149q.6-.72.95-.55" vector-effect="non-scaling-stroke"/><path stroke="#f9e6e4" d="M210.81 129.79q-.17.38-.01.88" vector-effect="non-scaling-stroke"/><path stroke="#f9f67c" d="M224.74 141.26q.1.65.56 1.17" vector-effect="non-scaling-stroke"/><path stroke="#f9e6e4" d="M227.17 152.16q.14-.23.45.29M228 151.77q-.02.06-.51.07" vector-effect="non-scaling-stroke"/><path stroke="#f9f67c" d="M226.17 142.47q1.1-1.09 1.95-.91M237.1 137.26q.31.14.72-.23M239.03 136.35l.99-.06" vector-effect="non-scaling-stroke"/><path stroke="#f9e6e4" d="M237.68 138.45q.03.15.06.25.08.2.29.13.26-.11.4-.29" vector-effect="non-scaling-stroke"/><path stroke="#f9f67c" d="M240.71 135.46q-.19-.65-.7-1.32" vector-effect="non-scaling-stroke"/><path stroke="#f9e6e4" d="M237.92 130.46q-.29-.93-.33-.28" vector-effect="non-scaling-stroke"/><path stroke="#f9f67c" d="m237.51 135.12-.86.35M226.32 140.42q-.24.66-1.21.35M228.33 130.96q-.8-.32-.92.31M227.27 135.09q.1.07.15.15" vector-effect="non-scaling-stroke"/><path stroke="#f9ea6f" d="m145.31 135.68-.91-.41M142.22 134.48q-.15-.1-.28-.12-.4-.06-.49.33l-.15.7M140.74 137.59q-.4.26-.57.73M136.01 159.05q-.31-.24-.65-.34-.47-.14-.48-.62-.01-.23.16-.41M127.03 130.39q.46-.24.36-1.53" vector-effect="non-scaling-stroke"/><path stroke="#f9f67c" d="m131.67 133.54.03.93M135.14 140.29l.81-.01M137.52 137.14q.73-.41.54-.83M139.74 132.93l.84-.49" vector-effect="non-scaling-stroke"/><path stroke="#f9ea6f" d="M254.48 129.26q.26.77.58.93M246.78 143.23q.01.31-.9.21M144.4 160.2l1 .28M145.6 174.27q-.26.61-.72.55M152.37 187.01q.76.51.4 1.31M123.43 174.92q.28-.36.18-.94M122.58 172.6q-1.27-.21-1.05.23M107.58 166.39q-2.7-.24-2.23.44M105.95 145.78q.26 1-.01.98M113.34 151.46q.43-.11.91.01M114.33 148.54h-.83M112.74 138.63q-.04.75-.35.94M126.09 145.8q-.68-2.86-1.25-1.87M256.11 143.49q.3-1.03-1 .58M145.76 142.09q.41-.24.6-.63M153.56 140.95q.56.35.86.09.27-.23.11-.64-.19-.47-.76-.84" vector-effect="non-scaling-stroke"/><path stroke="#f9f67c" d="M269.3 138.71q-.11 1.1.24.92M260.68 152.66q.8.46.85.74" vector-effect="non-scaling-stroke"/><path stroke="#f9ea6f" d="M238.64 172.77q-.77 1.36-2.08 1.07M236.49 159.02q-.18 1.35-.62-.9M245.93 159.15l.98-1.45M145.28 137.45q-.27-.06-.5.08M144.72 137.97q.23.12.6-.22" vector-effect="non-scaling-stroke"/><path stroke="#f9f67c" d="M276.91 166.78q-1.05.23-1.25 1.12M288.51 169.76q.53-.43.29-1.02M247.29 180.13q-.67-.1-1.17-.51" vector-effect="non-scaling-stroke"/><path stroke="#f9e6e4" d="M263.44 151.5q-.18.25-.19.51-.02.36.34.37.15.01.3-.11M264.49 152.19q-.7-.13-.71-.63" vector-effect="non-scaling-stroke"/><path stroke="#f9f67c" d="M182.15 147.91q-.36.01-.88-1M182.21 161.55q-.47-.24-.9-.78" vector-effect="non-scaling-stroke"/><path stroke="#f9ea6f" d="M179.55 162.71q-.1-1.42.5-.92M227.15 169.2q.49.69-.43 1.17M244.98 179.9q.04.49-.51.5-.17 0-.41-.12-.54-.27-.5.09M229.37 187.07l-.67 1.4M227.26 209.69q-1.12-.96-2.29.89M201.7 230.17q-.14-.01-.27.08-.26.17-.17.47.14.5-.14.63M161.07 201.18l-.09 1.01M171 215.65q1.56-.66.92-.69M171.82 199.63l.15-1.59M172.07 193.6l.97.59M175.09 195.06q.47-.2 1.02.23M180.29 197.12q.37-1.03-.19-1.26M176.8 194.09q-.51-.19-.7-.58M172.99 191.87q-.67.11-.91-.33M191.44 192.96q.41.61.28 1.26M191.04 210.43q.52-.69.6 1.07M191.67 226.56q-.13.26.21 1.38M199.85 216.75q.62-.45.89-.3" vector-effect="non-scaling-stroke"/><path stroke="#f9e6e4" d="M209.03 216.56q1.08-1.07 1.12-1.78" vector-effect="non-scaling-stroke"/><path stroke="#f9ea6f" d="M218.13 187.51q.5-.74-.23-1.56" vector-effect="non-scaling-stroke"/><path stroke="#f9f67c" d="M105.25 178.27q-.59-.18-1.34-.11M102.52 175.58q1.33.26 1.4-.45M92.86 170.03q1.23.07-.93.71M162.84 200.8q-.07-.51.98.58M200.7 181.41l-.96 1.62M213.66 190.64q.27.53.06 1.03M210.29 197.95l.3 1.15M200.33 197.97q-.57-.31-.67-.79M164.28 186.28q-.09.91-.38 1.17M227.16 277.73q-1.87.95-2.65.06M219.05 271.32q-.81-.09-.98-.36M209.99 282.99l-.13.6q-.08.37-.44.43-.47.09-.3.39M200.4 266.07q-.41-.26-.68-.72M191.66 262.59l-.58-1" vector-effect="non-scaling-stroke"/><path stroke="#f9e6e4" d="M200.88 255.76q.07-.31-.11-.36-.13-.04-.27.09-.3.28.11.45" vector-effect="non-scaling-stroke"/><path stroke="#f9f67c" d="M182.18 250.12q-.18.25-.97-.47M182.37 265.41l-.75.75M176.39 263.54q.25.28.83-.75M177.86 261.03q-1.19-.97-.63-.98M175.16 261.95q-.28.41-.62.65M172.98 265.02q-.52.66-.92.01M167.92 259.63l-.01-.95M178.2 258.84l.66.24M181.23 255.39q-.01-.4-.49-.66M164.36 254.41q.01 1.33-.42 1.39M171.93 283.15q.54.79 1.11.66M173.08 284.99q-.32.63-.82.67" vector-effect="non-scaling-stroke"/><path stroke="#f9ea6f" d="M191.46 280.68q-1.28.09-.83-.28" vector-effect="non-scaling-stroke"/><path stroke="#f9f67c" d="M201.47 298.44q-.09.89-.47 1.16M192.14 313.05q-.58-.46-1.2-.41M199.96 298.26q-.19-.4.74-1.2" vector-effect="non-scaling-stroke"/><path stroke="#f9ea6f" d="M191.29 295.25q1.12.76.64.82M182.87 285.05q-.12-1.14.42-1.17" vector-effect="non-scaling-stroke"/><path stroke="#f9f67c" d="M182.44 299.75q.7.12-.77.5M180.53 299.47l-.17-1.17M200.7 284.18q-1.2.85-.84-.07" vector-effect="non-scaling-stroke"/></g><path fill="#f9fa07" fill-opacity=".996" d="m121.01 0 4.12 6.28q.77 1.18.77-.23l.04-6.05H127l.21 9.48-.62.82q-.81-1.28-2.57-1.75.11-.46.03-1.08.26.29.49.26.33-.05.16-.34L120.14 0z"/><path fill="#f9f1f1" fill-opacity=".996" d="m131.89 0 2.72 3.69q.29.39.4-.08.41-1.66-.07-3.61h.82q.66.59 1.12 0h2.81q1.32 1.95 3.79 2.18-.55-.33.46-.22.37.22.83.07.48-.15.54.35l.17 1.34-.59.73-4.96-2.49q-.62-.31-.99.27-.98 1.5-2.01 3.15-.79 1.27-.8 3.82-.03 7.36.1 14.33-.09.68-.55.76-.46-.51-1.15-.83-7.11-3.29-14.27-6.48-.46-.2-1.42.06-.11-.69-.55-.87l-3.98-1.74-1 .03q-.01-.63-.45-.83-3.18-1.46-6.02-2.81-.93-.44-.38.44l3.35 5.31-1.06.03-4.45-6.95a.38.37 61 0 1 .15-.54q.49-.24 1.01-.01 3.74 1.73 7.41 3.41.69.31.62-.44-.2-2.04-.16-4.29c.03-1.65-1.18-2.85-2.02-4.15q-1.8-2.78 1.21-1.41l11.53 5.25q.08.62-.03 1.08l-11.13-5q-.64-.29-.26.3l7.46 11.58q.29.46.79.69l12.71 5.79q.66.3.27-.32l-7.27-11.29.62-.82 7.5 11.35q.45.67.45-.13V7.02a2.01 1.95 29.6 0 0-.31-1.06L131.02 0zm5.42.89q-.27-.18-.58-.28-.55-.18-.57.39l-.13 3.04q-.04.9.45.14l1.64-2.56q.33-.52-.26-.67-.28-.07-.55-.06m-23.13 7.67.26 4.12a.89.88-79.6 0 0 .52.76l2.84 1.29q.99.45.4-.46l-3.71-5.81a.17.17 0 0 0-.31.1"/><path fill="#f9fa07" fill-opacity=".996" d="M142.51 0q1.18 1.13 2.35 0h1.27l9.12 3.81q2.3.92 1.8 2.32-1.12-.1-2 .35-.47.24-.47.77l.03 8.21q0 .34-.33.25l-.35-.1a.44.44 0 0 1-.32-.42l-.01-7.94q0-.67-.66-.58l-4.41.59q-.64.08-.29.62l5.72 9.07q-.42.73-.33 1.46l-6.61-10.38q-.3-.47-.84-.39l-5.54.79q-.35.05-.42-.3l-.06-.32q-.06-.33.28-.38l5.06-.69q.54-.08.29-.55l-.9-1.74.59-.73 1.45 2.15q.32.46.88.43 3-.18 5.69-.92 1.11-.31.07-.8l-7-3.33a1.25 1.23-44.1 0 0-1.05-.01l-1.58.72q-1.01-.11-.46.22Q141.99.69 142.11 0q.2.01.4 0"/><path fill="#f8dad6" fill-opacity=".996" d="M154.91 0q.78 5.06 5.35 6.38.48.14.82-.23 2.07-2.24 1.8-5.32-.05-.51.46-.6l1.31-.23h1.26l.27 1.28q.1.51.58.29L170.15 0h2.91v11.91q0 .53.29.97l7.63 11.85q.38.59.37-.11-.09-7.14-.12-14.16 0-.59.61-.72a.6.58 66.2 0 1 .62.25l8.13 12.58q.4.62.81 0l8.16-12.6a.63.62 31.3 0 1 .84-.2q.64.38.37 1.17l-.92.58-8.36 12.96q-.52-.19-.96.01l-7.77-12.08q-.31-.47-.31.09l-.03 14.41q-.59.35-1.05.36l-14.95-6.8q-.36-.16-.2-.53l.12-.27a.3.3 0 0 1 .39-.15l12.69 5.74q1 .46.4-.47l-7.19-11.18q-.41-.64-1.1-.95l-9.79-4.47q-.54-.25-.87.26l-5.92 9.18q-.31.47-.31 1.03l.01 13.97q-.5.14-.79-.09-.23-.18-.23-.65-.06-6.68 0-13.48-.09-.73.33-1.46l6.02-9.07a.38.38 0 0 0-.16-.56l-2.77-1.19q.5-1.4-1.8-2.32-2-1.45-2.28-3.81zm17.12.9a.36.36 0 0 0-.5-.33l-4.36 1.91a.36.36 0 0 0-.16.52l4.38 6.92a.36.36 0 0 0 .67-.19zm-1.74 10.09a.32.32 0 0 0 .4-.47l-4.76-7.24a.32.32 0 0 0-.42-.11l-1.87 1.02a.3.3 0 0 0-.11.11l-1.59 2.47a.32.32 0 0 0 .14.46z"/><path fill="#f9fa07" fill-opacity=".996" d="m186.93 0 3.74 5.33q.26.37.58.06l.9-.89q-.07.77.16 1.48c-.35.7-.76 1.28-.76 2.1q0 6.61-.06 13.47a.25.25 0 0 1-.25.24h-.35q-.41 0-.41-.42l-.03-13.43q0-.57-.31-1.06L185.82 0z"/><path fill="#f9fa07" fill-opacity=".996" d="M191.36 0q.42 2.01.11 4.12a.5.5 0 0 1-.08.24q-.28.42-.6.23-.23-.14-.23-.41l.06-4.18z"/><path fill="#f8dad6" fill-opacity=".996" d="m196.14 0-3.83 5.98q-.23-.71-.16-1.48l2.97-4.5zM210.01 0q.49.36.65 0h1.24l3.27 1.48q.52.23.7-.3.19-.56.1-1.18h1.43q.67.34 1.1 0h.5c.33 1.44-.09 2.57.54 3.93q.62 1.33 1.58 2.61-.3.53-1.09.27-1.04-2.4-3.12-3.48a.87.87 0 0 0-1.12.29l-5.16 7.68-.17 1.37q-.8.47-1.29 1.25-3.45 5.41-7.4 11.55.19-.74-.27-.14-.11.15-.2-.01-.25-.48-.54-.2l7.78-12q.41-.63.41-1.38L208.93 0zm5.08 2.91a.31.31 0 0 0-.14-.45L210.39.5a.31.31 0 0 0-.43.28l-.03 9.09a.31.31 0 0 0 .57.17zm2.7-1.13q-.1.24.09.3.25.08.29-.18.02-.14-.06-.36-.03-.16-.14-.22-.14-.08-.24.05-.17.19.06.41"/><path fill="#f9fa07" fill-opacity=".996" d="M228.99 0q-.13 1.11-.65 2.18-.22.45-.64.71-.74.46-1.07 1.26-.21.52.19.13.43-.42.82-.9.48-.59.84-.05-.35.42.34.99-.59.52-.11 1.06a.69.67 71.1 0 0 .41.21l4.9.7q.5.07.85-.27 1.85-1.8 1.88-4.49 1.12-.06 1.32-.77.87-.56 1.44-.5.72.07.25.62-.66.76-1.49 1.12-.47.21 0 .4.19.08.46.04.2.52 0 1.02-1.9.82-2.51 2.72-.13.4.28.46l5.18.86a.43.42-39.8 0 1-.08.84q-2.3-.01-4.74-.65-1.45-.38-2.25.89l-6.27 10.03-.98.12q-.11-.82-.67-1.71.68-.85.28-1.45.18-.03.29-.1.14-.07.14-.22l-.03-7.56q-.01-2.06-2.01-1.6-2.51.57-3.45 1.81-.03.29-.76.57-.28-.56-.65-.39-5 2.33-10.04 4.59l.17-1.37q4.73-1.76 9.2-4.02.15-.07.19-.19.05-.14.01-.28.79.26 1.09-.27 5.07-1.09 5.96-6.54zm-1.03 15.55q-.42.28-.28.71.23.68.63.08l5.53-8.47q.34-.51-.27-.6l-4.59-.68q-.58-.09-.58.5l.01 7.61q0 .55-.45.85"/><path fill="#f8dad6" fill-opacity=".996" d="M237.16 0q.83.3.91.76-.2.71-1.32.77-.32-.5-.97-.22-3.51 1.47-6.96 3.01-.69-.57-.34-.99L235.93 0z"/><path fill="#f9f1f1" fill-opacity=".996" d="M242.92 0q.68.45 1.08 0h2.94l.03 3.5q0 .72.41.13L249.82 0h1.12l-3.82 6a1.62 1.61 61.8 0 0-.26.88l-.01 13.61q-.01 1.27.67.2 3.02-4.76 6.43-9.92 1.01-1.53 1.08-3.66.12-3.57-.03-7.11h1.01l.08 6.06q.02 1.37.76.22L260.87 0h.94l-4.68 7.53q-.17.78-.69 1.61l-8.65 13.11q-.48.14-.49 1.28l-.77.45q-.53-.15-.75-.54.11-7.19.07-14.58-.01-2.4-.86-3.7-.93-1.43-1.82-2.85-.37-.59-1.02-.31l-3.42 1.46q.2-.5 0-1.02 2.59-.77 3.54-2.44zm2.21.6q-.36.27-.8.32a.56.56 0 0 0-.4.87l1.61 2.4q.39.58.38-.12l-.07-3.12a.45.45 0 0 0-.72-.35"/><path fill="#f9fa07" fill-opacity=".996" d="m218.11 1.54-.32.24q-.23-.22-.06-.41.1-.13.24-.05.11.06.14.22M270.38 3.98l-1.05-.1q.15-.11.16-.24.05-.32-.25-.19l-12.8 5.69q.52-.83.69-1.61.11.35.36.23 6.34-2.9 12.65-5.88.48-.23.79-.07.19.09.3.25.28.41-.02.8z"/><path fill="#f9f1f1" fill-opacity=".996" d="m269.33 3.88 1.05.1q-1.31 1.78-1.75 3.44-.88.16-.82.76l-4.1 6.36q-.38.59.25.28l3.74-1.83q.97-.51.77-.18 4.35-1.88 7.9-3.6 1.97-.95 1.02 1.03-.1.2-.75 1.05-.49-.23-.97-.1.07-.13.04-.27-.05-.3-.32-.17-3.08 1.51-5.63 2.61a2.1 2-44.9 0 0-.1 3.79q.71.28 2.22-.14l.85.27c2.14.63 5.58 1.42 7.67.28q.91-.5 1.94-.92 2.59-1.07 1.08 1.28L276.29 29q-.54.83.36.42l12.84-5.88a.27.26 63.9 0 1 .35.13l.14.31q.18.38-.2.56l-12.6 5.71q-.98.45.08.6l12.95 1.88q2.9.42.23 1.64l-11.76 5.34q-1.09.49.09.66l13.66 2q.28.04.24.32l-.05.31q-.04.33-.37.3-7.06-.75-14.28-2.25-.95-.2-.22.45l11.06 9.66q.16.14.02.3l-.18.2q-.33.39-.72.05l-12.59-10.94q-.34-.57.09-.81l13.48-6.09q.49-.22-.04-.3l-14.48-2.07q-.18-.46-.57-.73l8.15-12.57q.31-.47-.2-.24l-12.5 5.68.27-1.17 6.68-3.01q.58-.26-.04-.36l-4.02-.64-1.16-.2q-1.13-.41-2.42-.2-.54.14-.91-.17l-6.2-.83.01-1.02zm-4.54 12.47 2.07.26q.9.11.79-.78-.04-.38.05-.76.22-.9-.62-.51l-2.39 1.11q-1.13.52.1.68"/><path fill="#f9fa07" fill-opacity=".996" d="m268.63 7.42-.16 5.39q.2-.33-.77.18l.11-4.81q-.06-.6.82-.76"/><path fill="#f9f1f1" fill-opacity=".996" d="m221.91 7.9 5.06 7.67q.4.6-.28 1.45l-5.54-8.55q.73-.28.76-.57"/><path fill="#f9fa07" fill-opacity=".996" d="m200.77 10.94-.01 14.18q.29-.28.54.2.09.16.2.01.46-.6.27.14l13.14-5.92a.6.59-27.3 0 1 .76.24l.14.22q.17.29-.13.43l-14.55 6.62q-.59.27-.94.81l-8.36 13.02a2.12 2.04 62.4 0 0-.33 1.13l-.04 13.56a.21.21 0 0 1-.21.21h-.33q-.38 0-.38-.39l-.03-13.36q-.01-.57-.31-1.05l-8.83-13.72q.46-.01 1.05-.36l8.31 12.63q.34.51.68 0l7.95-12.16q.27-.42.27-.91l.22-14.95zM275.67 11.19q.48-.13.97.1l-3.91 5.99-.85-.27zM114.31 14.43l.12 1.7q.04.55.59.48l3.27-.44q.44.18.55.87l-3.8.66q-.48.08-.53.57l-.37 4.45q-.94-.71-.7-.74l-.16-3.39q-.03-.53-.56-.6-.95-.11-1.76.28-.62.07-.96.42-.64-.36-1.48-.28-3.03.3-2.54 1.14-.95.01-1.1.57l-4.56-2.05q-.48-.22-.19.22l8.05 12.45q-.5.56-.21.93L92.83 33.9q-.32.25-.56.67-1.44-.3-1.72-1.04-.2-.52.35-.61l14.71-2.29q-.63-.76.29-1.08l-7.68-11.9a1.08 1.08 0 0 1-.14-.84q.25-1.03 1.04-.49 4.36 2.93 9.73 1.12.43-.14.16-.5l-.26-.34 1.06-.03q1.01 1.07 3.02.35.5-.18.49-.7l-.01-1.76zM261.48 16.04l-.01 1.02-14.17 6.47q.01-1.14.49-1.28zM268.58 18.06l.12 3.09q.02.57.34.09l1.96-2.98 1.16.2q-1.25 1.97-2.74 3.84-.08.09.02.13l.1.04-.27 1.17-.99.7-.85-.41.24-6.04q.37.31.91.17"/><path fill="#f9f1f1" fill-opacity=".996" d="m110.96 18.27 2.48 3.71q-.24.03.7.74l9.54 15.03q-.05.53-.35.84l-16.54 2.21q.23-.53.2-1.01l13.76-2.38.53-.33q.46-.27.17-.71l-7.59-11.8a1.74 1.7 85.2 0 0-.75-.65l-8.23-3.8q.15-.56 1.1-.57L111.7 22q.6.25.25-.29L110 18.69q.34-.35.96-.42"/><path fill="#f8dad6" fill-opacity=".996" d="M228.34 18.61q.11 6.52.06 12.81c0 .72-.3 1.07-.79 1.53q-.12.12-.04.27l.16.3q.23.44.5.02l7.86-12.13q1.54-2.37 1.55.45l.03 14.03.12.36q-.06.14-.01.25t.18.1l.61-.06-.02 1.16q-1.01.39-1.3.8-1.83 2.63-7.63 11.86-.27.44.2.22l12.96-5.84q.66.57.52.92l-14.89 6.75-1.02-.81-.02-15.89q0-.55-.3-1.02l-8.63-13.42a.34.34 0 0 1 .11-.47l.3-.18q.26-.15.42.1l7.45 11.58q.47.73.48-.14l.16-13.43zm8.33 4.38q0-.66-.35-.11l-7.59 11.79q-.3.47-.31 1.02l-.03 14.01q0 .66.36.11l7.59-11.79q.3-.46.3-1z"/><path fill="#f9f1f1" fill-opacity=".996" d="m154.65 32.63 8.09-11.92q.18-.26.45-.09l.24.15a.4.39 33.3 0 1 .12.55l-8.86 13.75-1.16.07-7.82-12.12q-.29-.44-.29.08l-.03 11.95q-.36-.04-.96-.54l-.04-13.45a.54.5-19.8 0 1 .21-.41q.61-.44 1.01.2 3.98 6.36 8.08 12.51.36.53.63-.04zM105.9 29.55q-.92.32-.29 1.08l-13.52-6.25q-.28-.13-.13-.39l.18-.31a.3.29-63.9 0 1 .37-.13z"/><path fill="#f9fa07" fill-opacity=".996" d="M245.78 23.44q.22.39.75.54-3.69 6.04-7.74 11.83-.37.52-1 .44l-.12-.36zM144.43 34.51q.6.5.96.54l.08 2.6-.78.67-13.15-6.03q-.53-.24-.21.24l7.84 12.19q-.39.26-.44.95l-1.21.02q.07-.49-.96-.96l-13.23-6.14q.3-.31.35-.84l12.67 5.75q.92.42.37-.44l-7.6-11.82a.6.6 0 0 1-.04-.58q.21-.47.69-.26 6.09 2.68 12.98 5.8.86.39.35-.4l-7.42-11.51q.46-.08.55-.76l7.98 12.03q.32.48.28-.09z"/><path fill="#f8dad6" fill-opacity=".996" d="m268.28 24.34-7.86 12.26q-.31-.15-1.06-.13l8.07-12.54z"/><path fill="#f9fa07" fill-opacity=".996" d="m191.49 24.48-.01 13.84q0 .26-.26.26l-.42.02q-.32.01-.32-.31l.05-13.8q.44-.2.96-.01"/><path fill="#f9f1f1" fill-opacity=".996" d="m252.19 32.26-1.09-.2-12.55 5.64.02-1.16 13.62-6.2a.52.52 0 0 1 .69.28q.31.76-.69 1.64M108.18 30.74q6.39 2.68 12.53 5.63.38.19.36.43-.01.26-.32.61l-12.78-5.74q-.29-.37.21-.93"/><path fill="#f9fa07" fill-opacity=".996" d="M273.82 30.77q.39.27.57.73l-12.62 5.73q-.12.05-.2-.04l-.41-.4q-.22-.22.07-.35z"/><path fill="#f9fa07" fill-opacity=".996" d="m252.19 32.26-6.86 10.71q-.6.93.41.48 6.11-2.75 12.34-5.67.44-.2.75-.59.3-.38.53-.72.75-.02 1.06.13-.2.25.64.84.4.28.95.37 6.51 1.11 13.42 2.15-.43.24-.09.81l-14.82-2.1a5.17 5.13-53.3 0 0-2.88.43l-11.97 5.64q.91-.09-1.03.94l-1.34-.02q.14-.35-.52-.92l8.32-12.68z"/><path fill="#f8dad6" fill-opacity=".996" d="m92.83 33.9 11.72 5.3q-.34.55-1.29.37l-10.99-5q.24-.42.56-.67"/><path fill="#f9fa07" fill-opacity=".996" d="M154.69 35.07 154.66 51a3.52 3.44-62.1 0 0 .56 1.9l7.58 11.6q1.16 1.17.2 2.4l-13.28-6.11q-.79-.36-.26.33l.28.35q-.51-.13-1.05.12-.72-.98-.84-1.26-.87-1.98 1.09-1.07 5.96 2.77 12.16 5.52.94.41.37-.44l-8.02-12.09q.57-.85.14-1.04-.66-.29-1.03-.53 1.26-.27.97-.58V35.14z"/><path fill="#f8dad6" fill-opacity=".996" d="m145.47 37.65 8.06 12.45q.29.31-.97.58l-7.87-12.36z"/><path fill="#f9fa07" fill-opacity=".996" d="M106.99 39.79q.03.48-.2 1.01L94.15 51.76a.56.55-43 0 1-.75-.02l-.19-.19q-.2-.18.01-.36l11.23-9.89q.12-.1.02-.23l-.17-.22a.13.1 50.4 0 0-.15-.04q-.87.59-1.88.74-6.25.93-12.64 1.81-.26.03-.29-.23l-.03-.33q-.04-.35.31-.4l14.17-2.09q.98-.14.06-.51l-.59-.23q.95.18 1.29-.37 1.24.72 2.44.59"/><path fill="#f8dad6" fill-opacity=".996" d="M200.78 44.87q-.82 1.23-.94.9-3.91 5.44-7.26 11.13-1.16 1.97-1.13 3.68.07 5.96.05 11.71 0 .24-.18.41-.11.1-.26.12-.51.07-.44.58.02.16.13.28.23.27.43-.03l8.69-13.52 1.84-.64-.02.22-.68 1.33L191.4 76q-.17.24-.89.23-.13-1.22-1.03-2.37.45-.18.83-.85.29-6.37.08-12.54-.08-2.21-1.23-4.12-3.23-5.38-6.88-10.66-.11-.09-.21-.29-.1-.19-.21-.23-.27-.12-.67.04l.01-.49q.01-.49.39-.8.58-.46.98.2 4.04 6.7 8.15 12.45.39.53.74-.02l8.02-12.36a.74.73-46.2 0 1 1.21-.03q.25.35.09.71"/><path fill="#f9f1f1" fill-opacity=".996" d="M136.56 44.73q1.03.47.96.96l-15.45 2.22q-.25.04-.28-.21l-.07-.49q-.03-.25.22-.28zM152.56 50.68q.37.24 1.03.53.43.19-.14 1.04l-14.72-6.58q.05-.69.44-.95z"/><path fill="#f9fa07" fill-opacity=".996" d="M200.78 44.87q-.37 3.16.44 5.27-.08.78-.36 1.04l-.03 7.99q.46-.17.95.15-.03.09-.07.17l-1.84.64-.03-14.36q.12.33.94-.9"/><path fill="#f8dad6" fill-opacity=".996" d="m245.67 44.74 14.35 2.2q.32.05.28.37l-.04.27q-.06.4-.46.34l-15.16-2.24q1.94-1.03 1.03-.94"/><path fill="#f9fa07" fill-opacity=".996" d="M182.28 45.69q-.13 6.41 0 12.58.05 2.23 1.16 4.13 3.17 5.38 6.87 10.61-.38.67-.83.85l-7.79-12.09a1.67 1.65 85.7 0 0-.69-.6l-4.64-2.12q-.09-.04-.19.01-.17.08-.19.18l-.97-.16q.02-1.11-1.45-1.23-.55-.04-.52.51l.19 3.31.31 1.36q-.4.62-.5 1.44-.55-.11-1.04-.01l-.11-.89v-1.8l.06-4.11q.01-.52-.45-.75l-3.84-1.9q-.39-.53-.26-.98l4.03 1.64q.57.24.59-.38.08-3.48-.01-7.46-.02-.6.19-1.12a.56.55-50.6 0 1 .98-.1l4.92 7.67q.31.45.67.73.59 1.77 1.87 3.01.43.41.44-.19l.14-6.64-.52-.92q.95-2.16.49-5.06.4-.16.67-.04.11.04.21.23.1.2.21.29m-9.18 10.49a.34.34 0 0 0 .18.3l2.2 1.13a.34.34 0 0 0 .45-.12l1.31-2.11a.34.34 0 0 0 0-.36l-3.58-5.97a.34.34 0 0 0-.63.18zm6.78 2.65c-.73-.73-.86-1.43-1.44-2.19q-.35-.47-.71 0l-.58.75a.56.55-50.6 0 0 .07.75q1.05.96 2.38 1.21.99.2.28-.52M214.63 54.02q.11.92-.32 1.12L210.47 57q-.47.23-.47.75l.06 3.9q-.88.37-1-.86l-.18-2.43q-.03-.51-.54-.46-1.32.12-1.21 1.26-.53.11-1.19.01l-4.93 1.87.68-1.33q2.12-.64 3.42-1.82.21.25.64.19.32-.05.4-.48 1.27-.2 2.41-1.06.41-.31.39-.83l-.2-6.92q-.05 1.15-.75-.76.33-.71.55-.97 1.36-1.64 1.38.48.04 3.61.04 7.75 0 .65.59.4z"/><path fill="#f8dad6" fill-opacity=".996" d="M208 48.03q.7 1.91.75.76l-3.71 5.77a1.06 1.04 52.5 0 0-.11.9q.32 1.02 1.22 2.14-.08.43-.4.48-.43.06-.64-.19-.35-.83-.79-1.24-.39-.37-.7.07l-1.84 2.6q-.49-.32-.95-.15l2.05-3.21a1.38 1.36-44.6 0 0 .02-1.46l-2.04-3.32q.28-.26.36-1.04l2.49 3.59q.29.41.56-.01zM167.4 54.03q-.13.45.26.98l4.23 6.76v1.8l-7.73-11.95q-.36-.57-.36.11v13.76a2.37 2.37 0 0 0 .36 1.22l7.32 11.35q.52.82.52-.15V64.46q.49-.1 1.04.01v15.56q0 .52.28.97l7.6 11.81q.37.58.37-.11l-.02-12.73q0-3.7 2.02-.6l7.26 11.15q-.36.27-.64 1.03l-7.22-11.11q-.39-.61-.39.11l-.01 13.71q-.01.7.37 1.28l7.75 11.96a.61.6-29.5 0 0 .77.21q.39-.18.03-.35-.7-.33-.7-1.1l-.01-13.55.99.01.02 14.13q0 .07.05.11.1.09.2.19-.22.65.55 1.2-.63.61-.76 1.61l-1.01-.11-8.93-14q-.3-.46-.79-.68l-14.4-6.56q-.39-.17-.22-.57l.12-.26q.11-.25.36-.14l12.63 5.69q1.07.48.43-.51l-7.16-11.15q-.28-.44-.75-.66-9.37-4.47-14.13-6.48-.84-.36-2.12-.2-.63-.27-.84-.71.24.4.27-.08.01-.25-.21-.35l-13.3-6.02a.25.24 26.5 0 1-.12-.34l.15-.28q.2-.38.58-.2l12.65 5.69q.7.31.29-.33l-6.36-10.12q.54-.25 1.05-.12l7.22 11.22q.32.5.87.75l12.44 5.68q.67.31.27-.31L163 66.9q.96-1.23-.2-2.4l.12-14.92a.59.59 0 0 1 1.12-.25q1.4 2.91 3.36 4.7M219.21 64.28q-.08-1.26-.83.7l-.3-13.12q-.02-.65-.37-.11l-7.41 11.52q-.28.44-.28.96l.02 14.14q-.46 1.16-1.08.94.03-6.67-.04-13.3-.02-2.04-.92-3.6-.86-1.5-2.06-3.24.66.1 1.19-.01l1.47 2.3q.3.46.38-.08l.08-.59q.12 1.23 1 .86l4.25-6.51q.43-.2.32-1.12 1.97-1.85 3.46-4.48.29-.52.69-.45a.4.39 4.2 0 1 .34.39zM180.7 50.27l.52.92-2.45 3.82q-.36-.28-.67-.73z"/><path fill="#f9fa07" fill-opacity=".996" d="m228.41 52.41-8.2 12.67q.23.39.03 1.19-1.24.51-1.53.96-3.81 6-7.73 11.94-.09.14-.04.21.06.08.25.1-.07.55.03 1.01-1.35.49-1.61.88-3.87 5.98-7.89 12.42l-.84 1.43-8.57 13.13q-.77-.55-.55-1.2 5.02-7.48 7.78-12.15.25-.44.16-1.2.85-.16 1-1.27-.09.36 0 .52.12.25.27.02 3.72-5.94 7.58-11.79.61-.92.41-1.97.62.22 1.08-.94 5.37-6.89 8.34-13.39.75-1.96.83-.7l8.18-12.68zM226.26 72.55l-1.1-.05 7.39-11.4q.21-.33-.17-.38-.32-.04-1.08.54.06-.58.49-1.33 1.17-.85 2.28-.88a.46.46 0 0 1 .39.71z"/><path fill="#f9f1f1" fill-opacity=".996" d="m175.01 59.08.97.16-2.44 3.79-.31-1.36z"/><path fill="#f8dad6" fill-opacity=".996" d="M231.79 59.93q-.43.75-.49 1.33l-11.06 5.01q.2-.8-.03-1.19z"/><path fill="#f9f1f1" fill-opacity=".996" d="M211.22 80.49q-.1-.46-.03-1.01 6.05-2.87 12.2-5.56 1.08-.48 1.77-1.42l1.1.05 13.65-6.24q.34-.16.51.19l.14.29q.15.31-.16.45L227.74 73q-.95.43.08.59l13.77 2.02q.31.05.28.36l-.03.33q-.03.35-.38.3l-15.68-2.28a2.7 2.7 0 0 0-1.48.21z"/><path fill="#f9fa07" fill-opacity=".996" d="M154.74 73.62q.21.44.84.71l-15.12 2.19q-.32.05-.33-.28v-.26q0-.23.23-.27zM191.4 76l.09 13.55q.01.27-.27.28h-.42q-.31 0-.31-.31l.02-13.29q.72.01.89-.23"/><path fill="#f9fa07" fill-opacity=".996" d="M200.73 79.1q-1.19 1.9-1.1 1.03l-8.14 12.59-.99-.01-.59-1.16q.28-.76.64-1.03.12.21.28.31.35.2.57-.14l8.21-12.58a.62.62 0 0 1 1.01-.05q.47.59.11 1.04"/><path fill="#f9f1f1" fill-opacity=".996" d="m200.73 79.1-.03 13.43q-.15 1.11-1 1.27l-.07-13.67q-.09.87 1.1-1.03"/><path fill="#f8dad6" fill-opacity=".996" d="m200.88 95.22.84-1.43 13.4-6.04q.41-.19.61.22l.12.28q.11.21-.11.31z"/><path fill="#f9fa07" fill-opacity=".996" d="m191.55 109.96.05 14.4q-.13.04-.28.49l-.58-.93q-.26-.43-.26-.93l.06-13.14z"/><path fill="#f8dad6" fill-opacity=".996" d="M191.32 124.85q.15-.45.28-.49 4.07-5.85 7.59-11.77.33-.56.69-.64.41-.09.72.2a.89.85-65.3 0 1 .26.75q-.23 1.59-.18 3.15c.07 2.07 2 4.33 3.06 6.15q-.11.55-.59.87l-2.06-3.18q-.31-.47-.32.1l-.15 6.52q-.45.57-.86.79l-.02-12.63q0-.9-.49-.14l-7.65 11.93q-.74-.56-1.27-.2l-7.57-11.63q-.48-.74-.48.14.01 6.62-.05 12.35-.01 1.81 1.02 3.4 3.87 6 7.52 11.5.1.17.29.11.21-.06.24-.14.53-.11.65-.96l7.43-11.56.72.71-8.63 13.65q-.39.14-.92.09l-9.75-14.97q-.57-.44-.75-1.23l-2.16-3.47q-.48-.09-.83-.32.33-.5.08-.96-1.18-2.21-3.66-5.67-.31-.42-.32.1l-.16 6.49q-1.43-.5-.95.07l.02-8.95a.35.35 0 0 1 .63-.2l5.43 7.56q.35-.05.65.76l2.16 3.64q.32.55.33-.09l.07-7.25q.18-.63-.35-1.42.55-2.55.15-5.29a.63.62 74.1 0 1 .35-.65q.18-.09.31-.11.5-.09.76.34 3.62 5.8 7.38 11.52.63.97 1.38 1.03"/><path fill="#f9fa07" fill-opacity=".996" d="M209.92 115.94q-.57.12-1.05.9l-3.84 5.89a1.97 1.89 8 0 0 2.23 2.83q.65-.18 1.72-1.25l.98-.2 5.03-2.34q.47-.22.75-.65l2.53-3.79q.59-.89.75.16c.42 2.65-.42 4.46 1.22 6.94q-.65.15-.52 1.03l-.18-.22q-.19-.24-.18.06l.07 7.06q-.25 1.46.35 2.26-.78.53-.66 1.61.16 1.45-.09 2.87-.57.1-1-.49-.3-.43-.73-.14-.38.26-.8.92l-5.5 8.29q-.93 1.37-.94-.92l4.81-7.17q.3-.45-.09-.83-.2-.2-.52-.33.42-.3.56-.73.41.23.71.25.59.06.55-.54-.06-.64-.39-1.22.48-.32.68-.71l.26.37q.33.49.68 0 .78-1.07.75-2.36-.14-6.69.16-13.59.03-.72-.36-.11l-2.64 4.02q-.45.03-.89-.09.31.17-.01-.13-.08-.07-.18-.05-2.3.61-4.3 2.05l-.86.55q-2.01-.27-1.81 1.34l-.92.15q-.07-.11-.15-.21-.11-.15-.29-.1-3.33.92-5.71 2.86l-.72-.71q.48-.99.38-2.17.41-.22.86-.79-.07.21-.06.4.02.5.35.13 1.64-1.85 2.24-3.97.48-.32.59-.87.1-.03.26-.05.15-.02.23-.14l4.6-7.18a.6.59 46.1 0 1 1.01.02q.22.38.08 1.09m-6.38 8.93q-.81 1.18-1.36 2.29-.34.7.37.38l1.97-.91q.77-.34.33-1.06l-.4-.67q-.43-.71-.91-.03"/><path fill="#f9f1f1" fill-opacity=".996" d="m209.92 115.94.04 8.17-.98.2-.11-7.47q.48-.78 1.05-.9"/><path fill="#f9fa07" fill-opacity=".996" d="M172.05 123.96q-.48-.57.95-.07.48 1.39 2.36 1.68.5.08.78-.33l.92-1.31q.35.23.83.32l-.74 1.51q-.25.52.27.76l2.63 1.2q.18.79.75 1.23l-4.13-1.56q-.48-.19-.77.24c-1.53 2.21-3.58 4.45-2.62 7.41q.08.4.33.74-.6.27-.55 1.47.09 2.48-.06 10.81-1.02-.04-1.1-1.21l.06-9.73q0-.15-.12-.25t-.27-.11l-.11-.84q1.67-3.08-.6-5.63-.34-.39-.63.05l-4.23 6.42-.67-.76 4.29-6.78q.33-.53-.01-1.04l-5.23-8.1q-.43-.66-.43.13l.01 12.84q-.68.32-1.22-.72l-.07-6.57q-.01-.6-.35-.11l-2.02 2.95-.45-1.08 2.74-4.55q.28-.48.25-1.03-.12-2.2.1-4.28.14-1.35.9-.21l2.53 3.83q.3.44.79.65zm-1.09 3.3.81-1.28q.4-.65-.29-.98l-3.06-1.45q-.87-.41-.35.4l2.14 3.31a.45.44 44.8 0 0 .75 0m2.71-1.34q-.62-.32-.63.38l-.07 3q-.02 1.13.57.18l1.32-2.12q.38-.62-.26-.95zm-2.54 3.55q.01.08.09.07.5-.1.58-.61.06-.42-.22-.71-.47-.5-.46.19zM180.99 118.01q.53.79.35 1.42l-2.56 3.7q-.3-.81-.65-.76z"/><path fill="#f8dad6" fill-opacity=".996" d="m159.85 127.52.45 1.08q.73 1.93 2.44 3.73.54 1.04 1.22.72-.21 1.77.97 3.03.07.07.16.05.15-.04.24-.13l.67.76q-.16.46-.07.81.14.54.66.33l4.87-1.98.11.84-4.15 2.02q-.47.23-.19.67l4.67 7.4q.08 1.17 1.1 1.21-.12.28.01.63l-.82.62-10.53-4.83q-.47-.21-.75.22l-6.01 9.32q-.3.47-.3 1.03v13.48q0 1.16.62.19l7.54-11.71q.14-.22.37-.08l.35.23q.25.16.09.4l-8.69 13.51q-.26.4-.26.88l-.04 14.12q-1.15-.2-1.09.28l.05-14.96q.41-.32.47-1.35.3-.65-.12-1.38-.28-.47-.28-1.01v-12.62q0-.52-.28-.96l-5.89-9.24q.47-.23 1.1-.15l5.47 8.24q.84-1.09.69-.67l5.13-7.82q.29-.44-.13-.76-.95-.73-2.26-1.08l.29-.93 2.52 1.07q.48.21.78-.23l1.71-2.56 1.06.39q-1.1 1.23-1.69 2.65-.21.5.29.73l7.96 3.61q.82.37.32-.38l-5.1-7.56q-.53-1.85-1.98-2.97-.08-.06-.15.01-.1.09-.19.2-.27.3-.37-.1-.03-.12-.02-.27.19-1.51-1.67-2.29-1.73-.73-3.41-1.24l-1.02-.45q-1-.83-2.22-1.06-.75.21-.86-.1-1.55-1.48-4.02-2.16-.08.23-.6.29-.41.05-.45.46-.02.16-.01.36l-3.47-5.56q-.12.4-.84-.33-.1-.51.04-.9a.75.75 0 0 1 1.34-.13c.91 1.5 1.59 3.17 3.16 4.13q2.27 1.39 4.83 2.16.51-.07.88.2 1.94 2.48 3.84.38a1.66 1.66 0 0 0 .16-2.02l-3.93-6.05q-.68-.05-.99-.47-.14-.77.04-1.14a.6.6 0 0 1 1.03-.09zm-1.15 3.58q-.11.13-.2.26a.34.34 0 0 0 .13.51l2.43 1.13q.75.35.37-.38-.64-1.21-1.52-2.38-.52-.7-.86.1l-.23.56q-.05.11-.12.2"/><path fill="#f9f1f1" fill-opacity=".996" d="M228.38 122.25q-.66.31-.98.02l-3.97 6.05a1.76 1.76 0 0 0 2.25 2.55l1.66-.81q.71.32 1-.63 5.66-1.22 7.94-6.18.22-.48.74-.43.2.01.38.12.52.31.38.9-1.08 4.52 2.79 8.8.4.44.72-.05l3.64-5.57q.56.33.61.7l-3.68 5.85a1.23 1.21 43.3 0 0 .05 1.36l.85 1.19q.37.52.98.3l1.98-.74q-.32-.15-.14 1.05-.8.24-1.33.67-.41.34-.14.79l1.22 2.02-.42 1.13-2.01-2.91q-.3-.43-.78-.2c-2.32 1.14-4.67 1.6-5.96 4.14q-.28.55.34.64l4.97.73q.36.05.32.41l-.05.35q-.03.28-.3.24l-5.63-.79q-.57-.08-.89.41l-6.18 9.6a1.8 1.78-28.2 0 0-.29.94q-.1 6.71-.04 13.35 0 .59-.71.97l-.3-.22-.02-14.02q0-.55-.29-1.01l-5.92-9.16q-.33-.52-.89-.27l-10 4.52q-.49.22-.78.68l-7.39 11.48q-.54.84.37.43l12.69-5.77q.34-.15.49.18l.15.32a.29.29 0 0 1-.14.38l-14.52 6.57q-.58.27-.93.8l-8.35 12.97a2.43 2.42 61.8 0 0-.38 1.27l-.02 13.66q.07.26-.01.51-.97.03-.96-.79.05-6.62-.02-12.97a3.94 3.93 28.4 0 0-.63-2.1l-7.96-12.42.61-.77q3.56 5.37 6.96 10.8.61.97 1.6 1.52.13.07.19-.06.01-.01.01-.02.06-.16-.26-.27a.7.69 9.7 0 1-.48-.67l.13-13.37q-.38.37.92.27l.1 13.04q.01.78.43.12l7.29-11.34a2.15 2.15 0 0 0 .34-1.16l.02-13.35q.6-.72.95-.55l.03 12.48q0 .61.34.09l7.56-11.76q.32-.5.32-1.09l-.01-11.45q0-.63-.58-.89l-5.09-2.34a.36.36 0 0 1-.17-.5l.13-.26q.11-.2.32-.11l4.8 2.1q.47.21.57-.29c.53-2.72-1.48-4.62-2.67-6.8l.92-.15 1.39 1.9q.38.52.39-.12l.03-3.12.86-.55q1.76 1.45.61 2.9-.32.4-.07.84.15.26.43.46-.17.38-.01.88-1.42 1.95-.68 4.48.14.48.59.69l4.11 1.86q-.14.43-.56.73l-3.89-1.74a.3.3 0 0 0-.42.28l.11 9.79q.01 2.29.94.92l8.53-3.97q.47-.22.32-.71-.68-2.33-3.35-3.61.42-.66.8-.92.43-.29.73.14.43.59 1 .49.65 1.84 1.93 3.43.33.41.8.18l2.98-1.45q.1.65.56 1.17-1.65.37-3 1.27-.42.29-.14.72l5.01 7.74q.14-.23.45.29.12.35.28.42.17.08.28-.08 2.86-4.19 5.61-8.54.36-.58-.31-.67l-4.48-.63q-.6-.09-.6.52-.06 3.79.03 7.52.02.48-.43.78-.02.06-.51.07-.2-5.74-.08-8.34.05-1.01-1.24-1.03 1.1-1.09 1.95-.91l5.86 1.08q.51.09.87-.28.8-.81 1.32-1.83c.49-.97.35-2.11.93-3.27q.31.14.72-.23.98.33 1.21-.68l.99-.06q-.5 1.51-2.34 2.16.03.15.06.25.08.2.29.13.26-.11.4-.29 1.69-.21 3.13-1.13.45-.29.29-.79-.23-.73-1.14-1.16-.19-.65-.7-1.32l-2.09-3.68q-.29-.93-.33-.28l-.08 4.94-.86.35-.09-10.02q-.01-.68-.37-.1-3.39 5.49-6.72 10.92-.5.82-.98 1.77-.68 1.38-2.17 2.38-.24.66-1.21.35l1.86-3.12q.28-.48-.03-.94l-2.32-3.55q-.31-.48-.84-.25l-4 1.71q-.6-.8-.35-2.26l2.06-3.16q.28-.43.01-.87l-1.78-2.87q-.13-.88.52-1.03l1.93 2.79q.37.54.71-.02 2.14-3.54 4.11-6.45 1.28-1.89 1.42.39.01.16-.03 1.11m-.05 8.71q-.8-.32-.92.31-.91.13-1.6.57-.45.27-.25.75.58 1.41 1.71 2.5.1.07.15.15.03.19.22.3.37.23.61-.13l3.95-6.03q.47-.72-.29-.32zm-5.67-.95a.25.25 0 0 0-.43-.02l-1.65 2.54q-.69 1.06.44.51l2.12-1.03q.51-.24.23-.74z"/><path fill="#f9fa07" fill-opacity=".996" d="m154.62 121.94-.07 7.69q-.37-.27-.88-.2l-.04-7.96q.31.42.99.47M228.38 122.25l-.04 7.18q-.29.95-1 .63l.06-7.79q.32.29.98-.02"/><path fill="#f9f1f1" fill-opacity=".996" d="M214.33 123.72q.44.12.89.09l-2.82 4.5q-.27.43 0 .86l3.97 6.31q-.2.39-.68.71l-4.53-6.73a1.21 1.21 0 0 1 .02-1.37z"/><path fill="#f9fa07" fill-opacity=".996" d="m145.14 124.5.17 11.18-.91-.41-.02-4.39q-.01-.51-.32-.11-1.13 1.43-2.01 3.01-.16.29.17.7-.15-.1-.28-.12-.4-.06-.49.33l-.15.7q-1.98 1.34-.56 2.2-.4.26-.57.73-.16-.17-.4-.2-.45-.07-.7.3-1.09 1.56-2.08 3.1-.87 1.34-.84 3.59.1 6.74-.14 13.94-.31-.24-.65-.34-.47-.14-.48-.62-.01-.23.16-.41.18-6.41.08-12.62-.03-2.07-1.09-3.84-3.26-5.43-7-10.83.46-.24.36-1.53 1.64 3.54 4.28 4.68l.03.93q-.23-.22-.42-.3-.65-.24-.26.35 1.91 2.95 3.67 5.85.09.14.25.12t.2-.2l.81-.01q-.15.38.01.54a.23.23 0 0 0 .35-.04l1.77-2.79q.23-.37-.1-.65-.16-.14-.46-.2.73-.41.54-.83.69.46 1.06.06 1.85-2 .62-3.44l.84-.49q.08.22.23.4.34.39.63-.04 1.16-1.72 2.29-3.59c.91-1.52.67-3.32.57-5.04q.72.73.84.33M254.48 129.26q.26.77.58.93l-8.28 13.04q.01.31-.9.21l-.97-2.1.42-1.13q.18.41.39.64.45.5.35-.16-.28-1.86-.2-3.69.01-.2-.29-.27-.18-1.2.14-1.05l.19-7.94q0-.13-.12-.09l-.25.07q-.05-.37-.61-.7.37-.78.44-.87 1.45-2.01 1.49.48.04 3.84-.05 7.81-.02.87.73.42 1.62-.98 3.39-1.67c1.76-.69 2.5-2.44 3.55-3.93m-3.99 5.21-3.09 1.47a.89.88-10.5 0 0-.51.73q-.14 1.62.07 3.22.1.81.54.12l3.31-5.18q.47-.73-.32-.36"/><path fill="#f9f1f1" fill-opacity=".996" d="m140.58 132.44-.84.49-3.19-4.89q-.41-.63-.41.13l.02 6.56q0 .5.4.81.66.52 1.5.77.19.42-.54.83-.45-.26-.81-.32-.51-.08-.55.43l-.21 3.03-.81.01-.11-3.72q-.01-.51-.48-.74l-2.85-1.36-.03-.93 2.91 1.15q.59.23.59-.41l-.06-7.32q-.02-3.18 1.68-.49z"/><path fill="#f9fa07" fill-opacity=".996" d="m191.6 126.46.04 14.41q0 .07.07.09.12.03.24.07-.12.85-.65.96-.86-1.06-.85-1.99.12-6.94-.12-13.74.53-.36 1.27.2"/><path fill="#f8dad6" fill-opacity=".996" d="M127.39 128.86q.1 1.29-.36 1.53-.15 6.4-.08 12.55.02 2.08 1.07 3.86 3.24 5.47 7.02 10.88-.17.18-.16.41.01.48.48.62.34.1.65.34l8.02 12.72q.29.45.29-.09l.08-11.48 1 .28.2 13.79q-.26.61-.72.55l-13.46-6.27q-.65-.3-.26.31l7.42 11.53a2.02 1.95 85 0 0 .85.74l12.94 5.88q.76.51.4 1.31L139 182.07a1.71 1.68-36.3 0 0-.9-.13l-15.85 2.28q-.5.08-.57-.42l-.03-.28q-.02-.16.14-.18l14.17-2.12q.66-.1.05-.39l-12.58-5.91q.28-.36.18-.94l12.58 5.71q1.07.48.43-.5l-7.45-11.57a.58.53-62.4 0 1-.09-.34q.08-.9 1.07-.45 6.06 2.72 12.27 5.55 1.11.51.45-.52l-7.19-11.18q-.35-.55-.95-.82-6.3-2.87-13.1-5.99c-2.24-1.03-4.32-.17-6.6.05q-.72.06-.68.79c.12 2.68-.49 4.32 1.13 6.85q3.53 5.5 7.1 11.04-1.27-.21-1.05.23l-7.71-12.02q-.3-.46-.8-.69l-12.51-5.66q-.62-.28-.26.3l7.33 11.63q-2.7-.24-2.23.44l-13.14-6.06a.38.38 0 0 1-.19-.51l.13-.29q.11-.25.36-.14l12.84 5.83q.88.4.35-.42l-7.23-11.17q-1.32-2.05.96-1.18c1.96.75 3.48 1.97 5.74 1.5q1.87-.4 3.61-.47a.34.34 0 0 0 .27-.53l-4.63-7.1a.68.68 0 0 1 .27-.98q.57-.27 1.26.47.26 1-.01.98l4.06 6.32q.31.48.89.41l1.84-.22q.63-.08.62-.72l-.01-1.09q.43-.11.91.01l.1 1.12q.03.41.45.35l3.29-.47q.43-.07.43-.5-.01-.91-.51-1.67-1.63-2.45-3.14-4.98-.41-.69-.43.11l-.11 3.11h-.83c-.29-1.97.05-3.98-.57-5.78q-.58-1.69-2.14-3.55a.63.62-52.2 0 1-.08-.68q.53-1.1 2.03.1-.04.75-.35.94l7.94 12.34q.24.37.65.56l12.54 5.72q.72.32.29-.34l-7.72-12.05q-.68-2.86-1.25-1.87l-7.96-12.48q-.09-.16.05-.27l.24-.19a.46.46 0 0 1 .66.11l7.57 11.8q.52.82.52-.15l.01-14.15q0-.47.47-.49.54-.02.99.75m-14.52 28.82q0 .07.03.12.49.83.49-.13 0-1.32-.05-2.8-.02-.61-.64-.56l-1 .09q-.9.08-.37.81.72 1 1.37 1.96.15.23.17.51m-6.97-2.53a.3.3 0 0 0-.1.57l5.93 2.74a.3.3 0 0 0 .37-.45l-2.18-3.06a.3.3 0 0 0-.27-.13zM256.11 143.49q.3-1.03-1 .58l-.05-13.88q-.32-.16-.58-.93.43-.95.93-1.1.55-.16.56.42z"/><path fill="#f9fa07" fill-opacity=".996" d="M149.67 128.95q1.9 3.41 4.24 6.52.11.15.27.04h.01q.16-.11.07-.27-1.05-1.93-.57-4.13.11.31.86.1l.1 2.9a.4.39-29.1 0 0 .72.2l1.4-2.04 1.02.45-2.58 4.02q-.28.44-.08.92.92 2.22 2.6 4l-.29.93q-1.36-.31-2.34.13-.48.22-.48.74l.08 8.79q.15-.42-.69.67l-.47-9.49q-.03-.55-.57-.48l-4.52.63q-.6.08-.32.62.14.27.41.48-.63-.08-1.1.15-.19-.46-.55-.72-.3-.22-.82-.14-2.68.39-5.45.75-.33.05-.38-.28l-.04-.27q-.05-.35.3-.41l4.99-.76q.36-.06.41-.42.03-.22-.14-.49.41-.24.6-.63l.7.86q.34.43.88.35l5.24-.78q.44-.07.41-.51l-.03-.43q.56.35.86.09.27-.23.11-.64-.19-.47-.76-.84l.8.21q.66.18.16-.29l-.46-.42q-.37-.35-.63-.78l-5.03-8.22q-.01-.2.01-.36.04-.41.45-.46.52-.06.6-.29m5.65 11.72q-.03.29.22.33.1.02.15-.07.13-.25-.13-.39-.21-.11-.24.13"/><path fill="#f8dad6" fill-opacity=".996" d="M210.8 130.67q-.16-.5.01-.88.46.38-.01.88M237.92 130.46l-.33-.28q.04-.65.33.28"/><path fill="#f9fa07" fill-opacity=".996" d="M228.33 130.96q.6 2.82-.91 4.28-.05-.08-.15-.15l.14-3.82q.12-.63.92-.31M269.3 138.71q-.11 1.1.24.92l-13.16 5.99a1.84 1.84 0 0 0-.77.66l-7.49 11.62q-.37.57.25.29l12.31-5.53q.8.46.85.74l-14.2 6.46a2.53 2.5 3.4 0 0-1.05.92l-7.64 11.99q-.77 1.36-2.08 1.07l-.07-14.82q-.18 1.35-.62-.9.15-.67.52-1a.77.76 69.3 0 1 1.27.58l-.05 13.33q-.01 1.42.74.21l7.58-12.09.98-1.45q5.75-8.57 7.91-12.12.38-.63.29-1.51 1.3-1.61 1-.58l8.14-12.41q.27-.4.6-.07l.23.23q.13.14.03.29l-7.67 11.91q-.55.86.38.44z"/><path fill="#f8dad6" fill-opacity=".996" d="M173.61 135.78q-.25-.34-.33-.74l5.12-2.41q.22-.1.35.11l.14.23a.31.31 0 0 1-.13.45z"/><path fill="#f9fa07" fill-opacity=".996" d="M240.01 134.14q.51.67.7 1.32l-.69.83-.99.06q-.49-.22-.89.05-.33.23-.32.63-.41.37-.72.23-5 1.23-8.98 4.3-.85-.18-1.95.91-.41.07-.87-.04-.46-.52-.56-1.17l.37-.49q.97.31 1.21-.35-.01.36-.2.62-.03.04.01.07.14.08.28.06.16-.01.2-.16c.56-1.71 2.2-1.5 3.57-2.07q3.02-1.26 5.81-2.69.47-.24.66-.78l.86-.35q1.6.47 2.5-.98"/><path fill="#f8dad6" fill-opacity=".996" d="M142.22 134.48q.73.72 2.18.79l.91.41 8.46 3.88q.57.37.76.84.16.41-.11.64-.3.26-.86-.09-3.78-2.15-7.93-3.61-.12-.04-.23.04-.06.04-.12.07-.27-.06-.5.08-.2.01-.4.05-.1.02-.17.11-.08.12-.1.26-.02.18.15.19.25.02.46-.17.23.12.6-.22-.06 2.14 1.04 3.71-.19.39-.6.63c-1.44-2.17-3.37-2.67-5.59-3.77q.17-.47.57-.73 1.03.57 1.97.73.55.09.25-.38l-1.66-2.55.15-.7q.09-.39.49-.33.13.02.28.12m1.8 2.02a.41.41 0 0 0-.41-.41.41.41 0 0 0-.41.41.41.41 0 0 0 .41.41.41.41 0 0 0 .41-.41"/><path fill="#f9fa07" fill-opacity=".996" d="M162.87 136.25q-.01.15.02.27.1.4.37.1.09-.11.19-.2.07-.07.15-.01 1.45 1.12 1.98 2.97l-1.78.95-1.06-.39zM145.28 137.45l.04.3q-.37.34-.6.22l.06-.44q.23-.14.5-.08"/><path fill="#f9f1f1" fill-opacity=".996" d="M276.91 166.78q-1.05.23-1.25 1.12-.84-.19-1.18-.05-6.64 2.82-12.78 5.87-.73.36.08.48l13.25 1.92a2.67 2.66 37 0 0 1.46-.2l12.43-5.65q.33-.15.06-.39-.15-.14-.47-.12.53-.43.29-1.02l1.51.36q2.29.55.15 1.54-5.63 2.6-12.68 5.82a.71.69-20 0 0-.39.81q.02.05.44.25l10.94 9.99q.12.11.04.25l-.12.24q-.24.46-.63.12l-11.68-10.19a3.7 3.66-20 0 0-1.85-.85l-14.23-2.14a4.24 4.16 36.5 0 0-2.35.33l-10.66 4.86q-.67-.1-1.17-.51l11.9-5.43a2.01 1.99-85.3 0 0 .85-.73q3.68-5.74 7.91-12.21c1.32-2.02.79-4.17.95-6.41q.05-.71-.66-.79l-5.54-.65q-.05-.28-.85-.74l8.86-13.03q-.35.18-.24-.92 1-.93 1.66-.66a.7.7 0 0 1 .26 1.1q-3.42 4.05-2.52 9.35.1.54.59.31l6.49-3q3.03-1.4 1.21 1.4l-3.96 6.09a.39.39 0 0 0 .27.6l4.76.63q.75.1 1.43-.25 1.53-.79 2.94-1.34 2.42-.95 1.02 1.24l-7.14 11.09q-.54.84.37.43l12.7-5.8q.34-.15.49.19l.12.28q.14.3-.17.44zm-13.47-15.28q-.18.25-.19.51-.02.36.34.37.15.01.3-.11 1.81.72 3.48.58a.36.35 86.6 0 0 .32-.37l-.07-1.47q-.01-.41-.39-.22l-2.74 1.4q-.7-.13-.71-.63 1.24-1.08 3.1-1.59a1.03 1.01 82.9 0 0 .75-.98l.04-3.57q.01-.57-.3-.09zm5.93-1.65q-.68.31-.7 1.05l-.06 1.69q-.02.63.61.7l1.89.22q.54.06.83-.39l3.76-5.75q.39-.59-.25-.3zm-.19 7.6 1.6-2.48a.39.39 0 0 0-.31-.6l-1.31-.07q-.5-.03-.51.48l-.09 3.19q-.01.07.02.15.07.26.24.27.32.01.3-.31l-.02-.31q-.01-.18.08-.32m-8.48 14.91a.3.3 0 0 0 .38.44l12.87-5.9a.3.3 0 0 0 .13-.11l7.73-11.87a.3.3 0 0 0-.38-.44l-12.87 5.89a.3.3 0 0 0-.13.11zm15.59-16.61q.85-.38-.08-.49l-3.43-.43q-.61-.08-.96.43l-1.89 2.72q-.61.88.37.44z"/><path fill="#f8dad6" fill-opacity=".996" d="M238.43 138.54q-.14.18-.4.29-.21.07-.29-.13-.03-.1-.06-.25.61-.04.75.09"/><path fill="#f9fa07" fill-opacity=".996" d="M124.84 143.93q.57-.99 1.25 1.87l-13.7-6.23q.31-.19.35-.94z"/><path fill="#f8dad6" fill-opacity=".996" d="m246.78 143.23.13 14.47-.98 1.45-.05-15.71q.91.1.9-.21"/><path fill="#f9fa07" fill-opacity=".996" d="m191.47 143.83.05 13.68q0 1.16.64.19 3.71-5.59 7.34-11.4.18-.29.52-.31.37-.02.62.25.18.2.18.57 0 .84-.12 1.64-.35-.17-.95.55.08-.3 0-.48-.2-.44-.46-.04-3.78 5.84-7.43 11.6-.23.35-.27.78-.04.45-.02.83-1.3.1-.92-.27l-8.5-13.51q-.36.01-.88-1-.17-.94.58-.9.43.01.67.38l7.76 12.03a.22.17 11.4 0 0 .06.07q1.03.66 1.01.02-.01-.17-.15-.25l-.25-.14q-.44-.24-.44-.74l.04-13.46q.53.05.92-.09M113.5 148.54h.83q-.12.91.5 1.15 1.75.66 3.35 1.72.26.17.06.4l-.22.25q-.18.21-.44.08l-2.48-1.32q-.48-.25-.69.25l-.16.4q-.48-.12-.91-.01.18-1.29-.99-1.8-3.02-1.32-6.41-2.9.27.02.01-.98 3.6 1.46 7.07 3.04.41.19.48-.28"/><path fill="#f9f1f1" fill-opacity=".996" d="m182.15 147.91.06 13.64q-.47-.24-.9-.78l-.04-13.86q.52 1.01.88 1"/><path fill="#f9fa07" fill-opacity=".996" d="m173.01 148.69 8.03 12.39q.17.27.3-.02.06-.13-.03-.29.43.54.9.78l.29 1.94-.61.77q-.87-1.04-2.34-1.55-.1-1.42.5-.92l-7.86-12.48z"/><path fill="#f8dad6" fill-opacity=".996" d="M263.78 151.56q.01.5.71.63l-.6.08q-.15.12-.3.11-.36-.01-.34-.37.01-.26.19-.51zM228 151.77l-.38.68q-.31-.52-.45-.29.72-.42.32-.32.49-.01.51-.07M180.05 161.79q-.6-.5-.5.92-6.68-2.96-13.14-6.16-.43-.21-.25-.51a.42.42 0 0 1 .53-.17z"/><path fill="#f9fa07" fill-opacity=".996" d="M154.01 170.04q-.06 1.03-.47 1.35l-7.73-12.17q-.31-.49-.49.06-.13.37.08 1.2l-1-.28-.16-2.4q-.03-.51.41-.76.34-.19.75 0 .28.13.55.57 3.8 6.32 8.06 12.43M227.15 169.2q.49.69-.43 1.17l-8.25-12.82q-.16-.24.09-.39l.24-.15a.44.44 0 0 1 .6.14z"/><path fill="#f8dad6" fill-opacity=".996" d="m236.49 159.02-7.8 12.06q-.28.44-.28.96l-.02 13.77q0 .74.4.11l7.77-12.08q1.31.29 2.08-1.07l13.53-6.11a.47.47 0 0 1 .6.68l-7.79 12.56q.04.49-.51.5-.17 0-.41-.12-.54-.27-.5.09l7.11-11.41q.39-.62-.27-.32l-12.37 5.62q-.55.25-.88.76l-7.78 12.05-.67 1.4-8.44 12.65q-.35.52.22.26l12.25-5.61q2.85-1.3 1.15 1.32l-7.23 11.16q-.3.47.13.82.35.27.48.62-1.12-.96-2.29.89l-14.61 6.63q-.46.21-.73.63l-7.93 12.33q-.14-.01-.27.08-.26.17-.17.47.14.5-.14.63l-8.97 13.52a4.02 4.01-28.3 0 0-.67 2.22l.03 13.45q-.29.15-.52.08-.44-.13-.44-.59l-.02-13.08a3.63 3.61-61.5 0 0-.57-1.95l-7.99-12.45a3.11 3.05-3.6 0 0-1.33-1.15l-14.3-6.55a.42.42 0 0 1-.21-.56l.13-.28q.1-.21.31-.11l12.98 5.9q.87.39.35-.4l-7.4-11.52q-.29-.45-.79-.67l-13.51-6.16a4.5 4.5 0 0 0-2.46-.35l-15.18 2.21q-.44.07-.43-.38l.01-.28q.01-.28.29-.33 6.55-.98 13.07-1.87 1.16-.15 1.21-.74.6-.16.76-.34.19-.22.03-.47l-7.38-11.39q-1.69-2.61 1.14-1.32l11.81 5.39-.09 1.01-10.99-5q-.8-.37-.32.37l7.45 11.57q.24.37.64.55l13.24 5.97q1.56-.66.92-.69l-.1-15.33.15-1.59.1-4.44.97.59.01 3.01q0 1.22.63.18l1.41-2.32q.47-.2 1.02.23l-2.77 4.48q-.28.46-.28.99l-.02 15.54q0 .54.29 1l7.44 11.56q.5.76.5-.15l-.02-12.71q-.01-3.72 1.91-.52 3.25 5.43 7.58 11.58.09.13.25.1.15-.03.27-.12.39-.29-.06-.47-.81-.32-.78-1.3.14-5.91.04-12.54a3.6 3.54-62 0 0-.56-1.89q-3.93-6.15-8.22-12.75-.37-.56-1.39-.97.37-1.03-.19-1.26l-1.57-2.65q-.29-.49-.77-.17-.5.34-.96 1.05-.51-.19-.7-.58.72-.85 1.02-1.78.16-.5-.13-.94l-3.36-5.26q-.43-.66-.45.13l-.19 6.21q-.67.11-.91-.33l-.03-7.11q-.01-3.21 1.73-.51l3.95 6.14a.38.37 44.7 0 0 .63 0q1.17-1.81 2.28-3.52c.93-1.41.63-3 .62-4.6q-.02-3.41 1.83-.55l7.46 11.5q.22.34.6.19l.29-.12q.41.61.28 1.26l-.3 15.07q0 .27-.28.24l-.41-.04q-.18-.02-.18-.19l-.02-13.51a3.48 3.46-61.3 0 0-.54-1.86l-7.39-11.49a.18.18 0 0 0-.34.1l.04 13.82q0 .51.28.93l8.46 13.14q.52-.69.6 1.07l.03 15.06q-.13.26.21 1.38l-.22 14.98q-.01.65.34.11l7.47-11.62q.34-.54.34-1.17l.04-13.49q.62-.45.89-.3l.06 12.46q0 .55.29.09l7.94-12.44q1.08-1.07 1.12-1.78 3.68-5.4 6.94-10.68 1.06-1.72 1.1-3.74.14-6.28-.06-12.85.5-.74-.23-1.56.18-.27.36-.4a.57.57 0 0 1 .91.46l-.02 13.7q0 1.37.74.22l7.16-11.13a1.91 1.87 62.2 0 0 .31-1.04q.13-12.75.02-16.01-.02-.39-.66-1.38.92-.48.43-1.17.12-.1.25-.2l.3.22q-.04.49.09.51a.91.89 19 0 0 .88-.42q3.74-5.95 7.2-11.19.44 2.25.62.9m-55.77 29.21-1.35 2.19q-.11.18-.26.33-.5.5-.17 1.08.91 1.6 1.98 3.17.56.82.47-.17-.29-3.31.01-6.37.16-1.58-.68-.23m51.64 9.43a.3.3 0 0 0-.38-.44l-12.9 5.92a.3.3 0 0 0-.13.11l-7.73 11.9a.3.3 0 0 0 .38.44l12.89-5.92a.3.3 0 0 0 .13-.11zm-41.8 45.83.37.64q.05.09.14.05.15-.06.23-.19.17-.32-.18-.39zl-.08-14.23a1.79 1.78 28.9 0 0-.28-.96l-7.49-11.68q-.46-.72-.46.13l.02 13.9q0 .5.27.93l7.46 11.63a.53.5 80 0 0 .3.22z"/><path fill="#f9fa07" fill-opacity=".996" d="m107.58 166.39 13.95 6.44q-.22-.44 1.05-.23l1.03 1.38q.1.58-.18.94-8.23.86-16.64 2.35-.55.1-1.54 1-.59-.18-1.34-.11.2-.08.23-.29.04-.27-.24-.23l-14.09 2.01q-.37.05-.42-.31l-.05-.33q-.04-.27.23-.31 6.42-1 12.71-1.83.99-.14 2 .13.51.13.14-.25-.75-.77-1.9-1.17 1.33.26 1.4-.45c1.09.6 2.16 1.16 3.45.97q6.52-.99 12.97-1.91 1.03-.15.08-.58l-12.43-5.64q-.48-.21-1-.13l-14.13 2.19q1.23.07-.93.71-.67-.05-1.18-.45a.65.64 59.8 0 1 .3-1.14l14.3-2.32q-.47-.68 2.23-.44M276.91 166.78l11.89 1.96q.24.59-.29 1.02l-12.85-1.86q.2-.89 1.25-1.12"/><path fill="#f9f1f1" fill-opacity=".996" d="M103.92 175.13q-.07.71-1.4.45l-10.59-4.84q2.16-.64.93-.71z"/><path fill="#f9fa07" fill-opacity=".996" d="m145.6 174.27 7.89 12.08q-.06-.48 1.09-.28l.08 1.78q.02.5.3.91l7.88 12.04q-.07-.51.98.58-.17.62.04.99 2.59 4.54 8.06 12.59.64.03-.92.69-5.84-9.53-7.88-12.28-.4-.54-2.14-1.18l.09-1.01q.14.27.41.21.37-.09.16-.42-3.82-5.86-7.41-11.46c-.33-.51-.98-.84-1.46-1.19q.36-.8-.4-1.31.02-.13.03-.26.01-.1-.04-.18l-7.48-11.75q.46.06.72-.55"/><path fill="#f9f1f1" fill-opacity=".996" d="M277.83 177.52q-.08-.42.01-.53a.79.78-66.6 0 1 .72-.29q6.86.92 13.81 2.02.3.05.28.36l-.02.29q-.02.27-.29.23zM103.91 178.16q.75-.07 1.34.11l-11.3 9.87q-.41.36-.64-.13l-.13-.27q-.07-.13.04-.22z"/><path fill="#f9fa07" fill-opacity=".996" d="M246.12 179.62q.5.41 1.17.51-.66.21-1.24.65-.45.35.11.43l13.94 2.05q.27.04.23.3l-.05.28q-.07.47-.54.4l-15.67-2.32q-.5-.08-.97.13l-14.4 6.42.67-1.4 14.19-6.7q-.04-.36.5-.09.24.12.41.12.55-.01.51-.5.63.15 1.14-.28M200.7 181.41l-.96 1.62.17-.74q.04-.17-.13-.15-.16.02-.24.14-3.61 5.73-7.82 11.94.13-.65-.28-1.26l.02-.42q.08-.25.01-.51.28.32.51-.02 3.88-5.9 7.66-11.8a.54.54 0 0 1 .9-.01q.3.44.16 1.21"/><path fill="#f9f1f1" fill-opacity=".996" d="M200.7 181.41c-.02 1.86-.27 3.65.74 5.26q1.13 1.81 2.28 3.47a.3.29 44.6 0 0 .49 0l4.05-6.27q1.68-2.6 1.69.5v7.39a.34.34 0 0 0 .48.31l3.23-1.43q.27.53.06 1.03l-3.22 1.49q-.45.21-.51.7-.27 2.07.3 4.09l.3 1.15q-.49.53-.5.9-.24 7.2.06 14.78-.04.71-1.12 1.78-.15-7.2-.08-14.23.03-2.24-.81-3.49-.99-1.49-1.97-3.01-.33-.51-.88-.25l-4.96 2.39q-.57-.31-.67-.79l.08-14.15zm6.33 12.27 1.46-.68q.49-.22.48-.75l-.03-6.71q-.01-.89-.48-.14l-3.47 5.47q-.41.65.01 1.29l.75 1.15q.48.75 1.28.37m-5.81-5.59q-.49-.79-.5.14l-.02 6.74q-.01 1.09.47.11.72-1.49 1.8-2.91a1.07 1.07 0 0 0 .05-1.21zm.99 7.9 2.63-1.35a.55.55 0 0 0 .14-.87l-.75-.78q-.41-.43-.72.08l-1.58 2.62a.21.21 0 0 0 .28.3m6.25 1.6q.53.84.51-.15l-.06-2.91q-.01-.81-.7-.38l-.81.49q-.57.36-.22.92zM164.28 186.28q-.09.91-.38 1.17l-.08 13.93q-1.05-1.09-.98-.58l.02-14.86q0-.62.62-.54.34.05.8.88"/><path fill="#f9fa07" fill-opacity=".996" d="M217.9 185.95q.73.82.23 1.56l-7.54 11.59-.3-1.15 3.99-6.07q.29-.43-.22-.3l-.34.09q.21-.5-.06-1.03c2.11-.75 2.82-2.37 4.24-4.69M172.08 191.54q.24.44.91.33.13 1.26 2.29 2.01.68.23.82-.37.19.39.7.58 1.24 1.36 3.3 1.77.56.23.19 1.26l-4.18-1.83q-.55-.43-1.02-.23-1.2-1.39-2.05-.87l-.97-.59-3.75-1.84q-.61-.3-.24.28l3.89 6-.15 1.59-7.92-12.18q.29-.26.38-1.17c1.03 1.63 1.91 3.49 3.76 4.23q1.74.7 3.55 1.58.28.14.43-.14.08-.15.06-.41M200.33 197.97l-8.69 13.53q-.08-1.76-.6-1.07l8.62-13.25q.1.48.67.79"/><path fill="#f9f1f1" fill-opacity=".996" d="m154.71 209.31-13.12-5.93q-.26-.12-.14-.37l.13-.27q.12-.25.37-.14 6.52 2.87 12.81 5.95.45.22-.05.76"/><rect width="14.66" height="1" x="-7.33" y="-.5" fill="#f8dad6" fill-opacity=".996" rx=".48" transform="rotate(-24.4 593.244 -437.791)"/><path fill="#f9fa07" fill-opacity=".996" d="m227.26 209.69 14.33 2.25q.27.04.28.31v.32q0 .43-.43.37l-16.47-2.36q1.17-1.85 2.29-.89M200.74 216.45q-.27-.15-.89.3.17-.28.08-.47-.13-.27-.3-.01l-7.75 11.67q-.34-1.12-.21-1.38 4.26-6.28 7.58-11.74 1.1-1.81 1.57.26.07.31-.08 1.37M201.12 231.35q.28-.13.14-.63-.09-.3.17-.47.13-.09.27-.08l13.55-6.17q.44-.2.54.27l.07.28q.05.22-.16.32z"/><path fill="#f9f1f1" fill-opacity=".996" d="M227.16 277.73q-1.87.95-2.65.06l7.71-12.08q.29-.46-.2-.24l-12.97 5.85q-.81-.09-.98-.36l-.01-14.61q0-.66-.36-.1l-7.43 11.53q-.28.43-.28.95v14.26l-.13.6q-.08.37-.44.43-.47.09-.3.39l-.17-15.54q0-.53-.28-.97l-2.47-3.9q-.3-.47-.82-.24l-4.98 2.31q-.41-.26-.68-.72l.05-14.43q0-.87-.47-.14l-7.64 11.81-.58-1 .43-1.05 7.75-11.59q1.28-1.92 1.45.38.1 1.4-.03 2.8c-.18 2.04 1.84 4.29 2.86 5.94q.41.66.83.01l3.91-6.06q1.69-2.62 1.69.49l-.01 7.26q0 .73.67.44 1.97-.84 3.96-1.87c1.74-.89 2.17-2.81 3.39-4.22q1.19-1.35 1.19.45l-.01 13.71q0 .91.5.15l7.75-12.01q.15-.24.39-.09l.21.13q.38.23.14.6l-7.64 11.92q-.51.79.34.4l11.59-5.3q3.15-1.44 1.26 1.47l-7.03 10.82q-.42.65.28.33l13.12-5.96q.3-.14.44.16l.12.3q.11.24-.13.36zm-21.31-16.06q.23.36.65.31 2.7-.35 2.53-2.87-.19-2.86-.05-5.32.06-1.15-.55-.18l-3.52 5.54q-.32.5 0 1zm-5.24-5.73.08 7.03q.01.82.45.13l1.85-2.88q.35-.55.01-1.1l-2.12-3.36q.07-.31-.11-.36-.13-.04-.27.09-.3.28.11.45m12.88 4.04-2.99 1.38q-.58.27-.56.91l.1 2.99q.04 1.09.63.17l3.19-5.02q.55-.85-.37-.43m-11.7 4.01q-.28.45.2.22l2.68-1.34q.81-.4.19-1.07l-.45-.48q-.57-.62-1.02.1zm5.61-1.22q-.59.34-.23.92l1.27 2.02q.53.84.52-.15l-.04-2.77q-.01-.9-.78-.45z"/><path fill="#f9fa07" fill-opacity=".996" d="m191.08 261.59.58 1-.12 14.67a.26.25 0 0 1-.26.25h-.25q-.48.01-.49-.47-.11-5.64 0-12.01.03-1.69-1.06-3.54-3.4-5.79-7.3-11.37-.18.25-.97-.47l.09-.98a.64.64 0 0 1 1.18-.29z"/><path fill="#f9f1f1" fill-opacity=".996" d="M182.18 250.12q-.17.23-.1.5.2.79.2.82-.05 7.05.09 13.97l-.75.75-5.23-2.62q.25.28.83-.75l2.44 1.17q.51.24.28-.27-.82-1.79-1.42-2.47-.36-.41-.66-.19-1.19-.97-.63-.98l-3.71-6.43q-.43-.74-.44.12l-.07 6.5q0 .52.45.77l1.7.94q-.28.41-.62.65l-.76-.4q-.57-.31-.61.34l-.19 2.48q-.52.66-.92.01l-.09-2.92q-.01-.53-.49-.76l-3.56-1.72-.01-.95 3.6 1.42q.54.21.54-.37l.02-6.97q0-3.35 1.83-.54l4.3 6.62.66.24q.3 2.19 2.01 3.74.4.36.4-.18l-.04-7.25q-.01-.4-.49-.66.82-2.12.47-5.08.79.72.97.47M164.36 254.41q.01 1.33-.42 1.39-.24 6.52-.06 12.86.06 2.1 1.18 3.91 3.28 5.27 6.87 10.58.54.79 1.11.66l.04 1.18q-.32.63-.82.67l-14.11-6.47a4.09 4.07-36.6 0 0-2.28-.33l-15.4 2.21q-.4.06-.36-.35l.03-.28a.36.36 0 0 1 .31-.32l13.62-2.07q1.19-.18.1-.68l-12.7-5.79a.37.36 30.5 0 1-.15-.55l.18-.23q.14-.2.36-.1l13.06 5.88q.79.35.32-.37l-6.92-10.67q-1.88-2.9 1.26-1.48l11.74 5.32a.2.2 0 0 0 .26-.29l-7.82-12.2a.2.19 47.9 0 1 .01-.23l.19-.22a.44.43-40.7 0 1 .69.05l7.52 11.65q.67 1.03.67-.2l-.01-13.95a.42.41 20.8 0 1 .69-.31zm-7.3 22.85a1.89 1.85-3.3 0 0 .78.68l12.62 5.75q.73.33.3-.35l-7.44-11.53q-.37-.58-.99-.86l-12.37-5.63q-.84-.38-.34.39z"/><path fill="#f9fa07" fill-opacity=".996" d="m167.91 258.68.01.95q.05-.28-.17-.14-.16.1-.06.26l3.9 5.98q.33.5.4-.1l.07-.6q.4.65.92-.01-.1.54.04.75.27.39.51-.01l1.31-2.09q.23-.36.01-.72-.12-.22-.31-.35.34-.24.62-.65.55.65 2.07-1.9-.56.01.63.98-1.57 1.31-.64 1.76-.58 1.03-.83.75-1.24 1.36-2.35 3.12-.98 1.55-.98 3.63l-.02 13.52q-.57.13-1.11-.66.23-6.49.07-12.78-.05-2.1-1.16-3.9-3.26-5.29-6.9-10.67.43-.06.42-1.39 1.44 3.09 3.55 4.27M180.74 254.73q.48.26.49.66l-2.37 3.69-.66-.24z"/><path fill="#f8dad6" fill-opacity=".996" d="M200.88 255.76q-.24.08-.27.18-.41-.17-.11-.45.14-.13.27-.09.18.05.11.36"/><path fill="#f9fa07" fill-opacity=".996" d="M199.72 265.35q.27.46.68.72l-8.94 14.61q-1.28.09-.83-.28l-9.01-14.24.75-.75 7.94 12.12q.79 1.22 1.58 0zM219.05 271.32l-7.71 12.08q-.29.46.21.23l12.96-5.84q.78.89 2.65-.06l14.43 2.32a.4.4 0 0 1 .33.47l-.06.31a.29.28-79.1 0 1-.32.22l-16.3-2.34a.67.64-51.4 0 0-.37.05l-14.59 6.62a1.68 1.64-85 0 0-.72.62l-8.09 12.44q-.09.89-.47 1.16l-8.86 13.45q-.58-.46-1.2-.41 5.46-7.31 9.02-14.38-.19-.4.74-1.2l.02.32q.02.48.27.08l8.13-13.05q-.17-.3.3-.39.36-.06.44-.43l.13-.6.25.02q.02 0 .03-.02l7.8-12.03q.17.27.98.36"/><path fill="#f8dad6" fill-opacity=".996" d="m191.46 280.68.04 13.38q0 .29-.27.4-.14.06-.26.15-.18.13-.18.35.01.3.16.55.13.23.24-.02.06-.14.1-.24 1.12.76.64.82-.67 6.98-.43 14.95 0 .19-.1.36-.18.29-.58.18a.46.45-82.6 0 1-.33-.44l.01-13.08a3.77 3.75-61.5 0 0-.6-2.04l-7.03-10.95q-.12-1.14.42-1.17l6.51 10.15q.68 1.04.69-.2l.14-13.43q-.45.37.83.28"/><path fill="#f9fa07" fill-opacity=".996" d="M183.29 283.88q-.54.03-.42 1.17l-.41-.59q-.39-.56-.37.12l.35 15.17q.7.12-.77.5l-1.14-.78-.17-1.17-8.1-12.64q.5-.04.82-.67l7.7 11.95q.52.8.52-.16l-.06-13.98a.6.6 0 0 1 .95-.49q.68.48 1.1 1.57M200.7 284.18q-1.2.85-.84-.07l-7.93 11.96q.48-.06-.64-.82l8.29-12.81a.62.61 51.2 0 1 1.09.12q.29.76.03 1.62"/><path fill="#f9f1f1" fill-opacity=".996" d="M200.7 284.18v12.88q-.93.8-.74 1.2l-.1-14.15q-.36.92.84.07M180.36 298.3l.17 1.17-14.17-6.47a.34.32 24.6 0 1-.17-.43l.14-.31a.26.26 0 0 1 .35-.13zM201 299.6q.38-.27.47-1.16l13.84-6.3q.36-.17.45.22l.09.36q.05.2-.14.28zM182.44 299.75l8.5 12.89q.62-.05 1.2.41-.6.89-.63 1.47-.13 3.28.01 13.84a.27.27 0 0 1-.29.27l-.43-.02q-.28-.02-.28-.3l-.02-13.77q0-.46-.25-.86l-8.58-13.43q1.47-.38.77-.5"/><path fill="#f8dad6" fill-opacity=".996" d="M200.88 331.62q-1.23.74-1 1.15l-.19-13.81q-.01-.64-.36-.1l-7.34 11.44a3.2 3.14-29.1 0 0-.51 1.72l.01 13.31q0 .29-.28.29l-.5.01q-.18 0-.18-.18l-.03-13.62a2.65 2.61-61.8 0 0-.42-1.43l-7.69-12q-.35-.55-.34.1l.13 13.8q-.27-.38-.81-.19-.31.11-.33-.22 0-.15.16-.35l.05-13.33q.01-3.33 1.83-.54l7.58 11.66q.34.53.69 0l7.6-11.67q1.87-2.87 1.82.56-.09 5.89-.03 12.8 0 .21.08.4.04.08.06.2"/><path fill="#f9f1f1" fill-opacity=".996" d="M181.2 331.54q-.16.2-.16.35.02.33.33.22.54-.19.81.19.05 1.05.6 1.94 3.83 6.14 7.94 12.12.3.43.57-.01l8.59-13.58q-.23-.41 1-1.15l7.98-12.34q.27-.43.62-.06l.24.26q.12.14.02.3l-7.73 11.95q-.46.71.31.37l13.1-5.92q.15-.06.21.08l.13.27q.21.47-.26.68l-14.25 6.46q-.69.31-1.1.95l-8.13 12.64q-.52.8-.52 1.75l-.03 13.31a.3.3 0 0 1-.29.3h-.37a.31.31 0 0 1-.32-.31l-.01-13.63a2.11 2-62.5 0 0-.32-1.11l-8.42-13.13q-.29-.46-.79-.69l-14.42-6.55q-.47-.21-.26-.68l.11-.23q.09-.2.29-.11l13.05 5.93q.75.35.3-.35l-7.73-12q-.15-.24.09-.38l.3-.18a.44.43-30.9 0 1 .58.14z"/><path fill="#f9f1f1" fill-opacity=".996" d="M191.39 382h-.75l-.1-15.72a3.9 3.84-61.8 0 0-.6-2.04l-8.38-13.04a.3.29-42.3 0 1 .02-.35l.21-.28q.28-.34.52.03l8.33 12.72q.37.57.74 0l8.32-12.72q.25-.37.52-.03l.19.24q.16.2.02.42l-8.67 13.51q-.29.45-.29.99z"/></svg>