<svg xmlns="http://www.w3.org/2000/svg" viewBox="0 0 382 382"><g fill="none" stroke-opacity=".996" stroke-width="2"><path stroke="#41353e" d="m191.73 141.45.05 1.53" vector-effect="non-scaling-stroke"/><path stroke="#b9543d" d="m181.68 132.39-.97-1.14M211.29 143.76q-.24.65-1.1.18M209.4 144.19l.26.84" vector-effect="non-scaling-stroke"/><path stroke="#7e8706" d="M208.5 145.3q-.25-.43-.69.01-.22.22.17.38" vector-effect="non-scaling-stroke"/><path stroke="#b9543d" d="M210.18 145.24q.89-.91 1.27-.53M211.18 148.14q-.24.79.19 1.75" vector-effect="non-scaling-stroke"/><path stroke="#7e8706" d="M211.14 150.44q-.65.06-.88-.03" vector-effect="non-scaling-stroke"/><path stroke="#b9543d" d="M206.77 145.86q.46-.48-.88-1.07M202.09 145.95l-.14.88" vector-effect="non-scaling-stroke"/><path stroke="#7e8706" d="M201.05 147.22q-.69-.15-.83-.45M200.31 132.36q1-.74.08-1.76M190.49 157.57q.4 1.18 1.16 1.55M201.19 163.7l-.85.51" vector-effect="non-scaling-stroke"/><path stroke="#b9543d" d="M190.98 189.31q-.4-.09-.52.07" vector-effect="non-scaling-stroke"/><path stroke="#7e8706" d="M181.73 164.26q-.43-.37-.98-.5M180.61 146.98l-.97-1.37M177.27 143.1q-.23-.29-.78-.49M171.83 135.74q-.43-.4-1.07-.52" vector-effect="non-scaling-stroke"/><path stroke="#b9543d" d="M177.67 141.42q.06-.42.72.46" vector-effect="non-scaling-stroke"/><path stroke="#7e8706" d="M180.46 139.16q-.09-.1-.18-.19" vector-effect="non-scaling-stroke"/><path stroke="#b9543d" d="M180.28 138.97q.21-.56-.13-.76" vector-effect="non-scaling-stroke"/><path stroke="#7e8706" d="M171.82 150.22q-.06-.11-.18-.2-.2-.15-.42-.02-.13.08-.32.1M170.66 149.89q.48-.47.13-1.65M167.1 144q-.69-.51-.7-1.25M164.95 157.51q-.68.04-.65.49" vector-effect="non-scaling-stroke"/><path stroke="#b9543d" d="m162.97 159.62-.23.92M161.55 161.06q-.65-.05-.68-.83M161.04 159.03q1.01.05 1.06-.59M163.21 156.97q1.03.17 1.02-.94" vector-effect="non-scaling-stroke"/><path stroke="#7e8706" d="M162.02 139.17q.45-1.18-1.05-1.53" vector-effect="non-scaling-stroke"/><path stroke="#b9543d" d="M221.21 144.47q-.68.4.07 1.73M223.28 149.34q.84-.04.9.75" vector-effect="non-scaling-stroke"/><path stroke="#41353e" d="M222.01 152.75q-.67.02-.8 1.25" vector-effect="non-scaling-stroke"/><path stroke="#b9543d" d="M221.19 160.24q-1.7.1-2.17-.8M218.77 159.51q.11.4.04.93M211.99 165.17q-.24.46-.76.8" vector-effect="non-scaling-stroke"/><path stroke="#41353e" d="M211.23 165.97q-1.15-.14.04-1.77M211.21 158.71l.15-.98M161.96 153.1q-.05-.08-.09-.16" vector-effect="non-scaling-stroke"/><path stroke="#7e8706" d="m161.87 152.94-1.18-1.29M158.73 148.85q-.35-.61-.84-.75" vector-effect="non-scaling-stroke"/><path stroke="#41353e" d="M180.28 138.97q-.39.46-.45.98" vector-effect="non-scaling-stroke"/><path stroke="#b9543d" d="M161.87 152.94q.18 1.03-.84 1.15M155.45 152.79q-.47.15-1.01-.14M152.04 152.04q-.63.02-1-.41" vector-effect="non-scaling-stroke"/><path stroke="#7e8706" d="m147.49 150.83-1.55.02" vector-effect="non-scaling-stroke"/><path stroke="#b9543d" d="m145.69 150.52.51-1.31M151.06 150.51q.71-.77.93-.63M155.8 151.08q.84.24.57.41M157.42 150.12q.07-.39-.45-.7M152.16 142.63q-.13-.68-1.1-.68" vector-effect="non-scaling-stroke"/><path stroke="#41353e" d="M242.81 153.75q-.84.08-.79.49M240.78 158.17q-.63-.26-.94.28M233.29 154.36l-1.15-.63M230.97 152.53l-.97.28" vector-effect="non-scaling-stroke"/><path stroke="#7e8706" d="M227.67 152.62q-.51-.31-.49-1.2M224.91 149q-.95.01-.83-.86" vector-effect="non-scaling-stroke"/><path stroke="#41353e" d="M142.18 157.84q-.4.45-.93-.06M139.17 155.26q-.3-.64-.96-.26" vector-effect="non-scaling-stroke"/><path stroke="#b9543d" d="M138.21 155q-.27-.34-.12-.06M229.86 155.29q.23.31.25.71.01.24-.14.47-.14.2-.32.37" vector-effect="non-scaling-stroke"/><path stroke="#7e8706" d="M226.43 152.84q-.12-.83-.9-1.14M138.21 155q.02.48-.25.71-.38.33-.59.04M132.27 149.2q.13-1.02-.97-1M250.75 157.47q.13.26.12.81M254.33 157.47q.26-.7.77-.98M260.44 150.48l-.91 2.29M250.57 164.27q.21.29-.89.17" vector-effect="non-scaling-stroke"/><path stroke="#b9543d" d="m249.68 164.34.08-2.2M249.53 158.72q-.4-.57-.1-1.05M249.52 149.51q-.17-.44-.61-.83" vector-effect="non-scaling-stroke"/><path stroke="#7e8706" d="M132.39 157.52q-.62.27-1.34-.13" vector-effect="non-scaling-stroke"/><path stroke="#b9543d" d="M240.54 160.94q.3-.47-.66-.75" vector-effect="non-scaling-stroke"/><path stroke="#41353e" d="M234.8 165.75q.19.44-.07.73-.18.21-.44.12" vector-effect="non-scaling-stroke"/><path stroke="#b9543d" d="M231.05 171.25q-.37.75.09 1.48M230.96 173.02q-1.18-.13-1.01-1.67M226 162.96l-.09-1.21M172.18 157.45l.17.74M171.9 165.8q-.83-.34-.97-1.45M170.76 158.73q-.16-.59.01-1.28" vector-effect="non-scaling-stroke"/><path stroke="#7e8706" d="M211.23 165.97q.16.68-.08.46M202.19 177.75q-.92.57-.7 1.16M201.24 178.93q-.06-.35-.84-.68" vector-effect="non-scaling-stroke"/><path stroke="#41353e" d="M200.37 177.7q.73-.21.93-.91M150.99 155.1l1.39 1.43" vector-effect="non-scaling-stroke"/><path stroke="#7e8706" d="m155.4 160.93-1.09.26M151.97 160.65l-1-.1M135.61 158.26q-.03.53.39.57.54.06.92-.16M138.04 156.71q-.04-.39.25-.67.27-.25.67-.04M141.16 158.27q.88-.44 1 .15" vector-effect="non-scaling-stroke"/><path stroke="#b9543d" d="m156.33 161.9-.35 1.03" vector-effect="non-scaling-stroke"/><path stroke="#7e8706" d="m154.85 163.24-1.05-1.01M152.05 162.25q-.63-.01-.94-.34M146.77 165.96q-.43.33-1 .44M136.01 159.53q-.56-.18-1.3-.17M132.54 158.72q-.66-.62-1.24-.27M131.35 162.21q.01 1.36 1.09 1.77" vector-effect="non-scaling-stroke"/><path stroke="#b9543d" d="M132.48 179.68q-.08.4-.76.58" vector-effect="non-scaling-stroke"/><path stroke="#7e8706" d="m111.23 179.18-.92.38M108.15 180.48l-.99.52" vector-effect="non-scaling-stroke"/><path stroke="#b9543d" d="m101.72 183.07.05-.92" vector-effect="non-scaling-stroke"/><path stroke="#7e8706" d="m106.28 179.99.83-.42M110.35 178.06q.14-.25.66-.16M114.95 176.18q1.09.05 1.72-.69M121.6 167.62q.16-.7.92-.62M122.56 152.85q-.19-.99-1.08-.92M260.46 165.68l-.51.61" vector-effect="non-scaling-stroke"/><path stroke="#41353e" d="M259.95 166.29h-.45" vector-effect="non-scaling-stroke"/><path stroke="#7e8706" d="M261.38 166.34q.28-.11-.13.57" vector-effect="non-scaling-stroke"/><path stroke="#b9543d" d="m261.25 166.91-.27.64M260.7 167.42q-1.02-.33-.75-1.13" vector-effect="non-scaling-stroke"/><path stroke="#41353e" d="M165.26 157.81q-.17.09-.34.19M171.91 165.98q-.64-.27-.87.56M159.3 163.8q-.18.31-1.04-.14" vector-effect="non-scaling-stroke"/><path stroke="#7e8706" d="m240.79 177.25-.19-.32q-.29-.46-.61-.02-.23.33-.17.79" vector-effect="non-scaling-stroke"/><path stroke="#b9543d" d="M230.93 188.97q-.35.21-.82-.01" vector-effect="non-scaling-stroke"/><path stroke="#7e8706" d="m230.11 188.96-.21-1.64M234.56 166.73q.29.05.54-.04t.29-.34q.04-.23-.06-.48M152.04 189.05q-.97-.08-1.12-1.97M150.86 172.52q.5-.66.06-1.21M147.49 166.94q-.54-.01-.75.42" vector-effect="non-scaling-stroke"/><path stroke="#b9543d" d="M285.78 180.83q-.11.69-.43 1.14M271.61 185.21q.28.08-.06-.36" vector-effect="non-scaling-stroke"/><path stroke="#41353e" d="M271.55 184.85q.74-.32 1.33-.86M274.66 181.14q-.47.1-.98-.29M271.73 183.06q-.62.93-.55 1.61" vector-effect="non-scaling-stroke"/><path stroke="#b9543d" d="M271.18 184.67q-.22-.19-.44-.12" vector-effect="non-scaling-stroke"/><path stroke="#41353e" d="m264.86 176.68-.17-.97M261.25 166.91q.58.01.98-.72M181.64 164.78l-.99-.37M201.32 164.18q-.37.26-.85.39" vector-effect="non-scaling-stroke"/><path stroke="#b9543d" d="M191.09 189.87q-.87.45-.62 1.31" vector-effect="non-scaling-stroke"/><path stroke="#41353e" d="M180.94 179.04q1.14-.75-.19-1.95M250.61 178.3q.36.5 1.1.46M241.73 191.38l-.67 1.16M240.66 192.64q-.47-.03-.84-.64" vector-effect="non-scaling-stroke"/><path stroke="#b9543d" d="M152.04 204.27q-1.1-.47-1.04-1.23M142.14 191.71l-.94-1.11" vector-effect="non-scaling-stroke"/><path stroke="#41353e" d="M230.11 188.96q-.08.08-.15.16" vector-effect="non-scaling-stroke"/><path stroke="#7e8706" d="M204.3 204.72q-.26 1.12-.76.84" vector-effect="non-scaling-stroke"/><path stroke="#b9543d" d="M201.33 208.82q-.5.35-.9.99M200.4 195.77l.04-.14q.05-.14-.08-.17-.38-.09-.65.27-.3.41.1.73M191.64 206.82q.41-.24-.68.01" vector-effect="non-scaling-stroke"/><path stroke="#7e8706" d="m190.96 206.83-.53-1.67M120.72 196.52l-1.19.51M119.56 196.79q.18-.36-.45-.46" vector-effect="non-scaling-stroke"/><path stroke="#41353e" d="m152.26 204.67-.83.63M135.7 201.64q-.23.13-.38-.37-.12-.36-.48-.27-.17.04-.3.17" vector-effect="non-scaling-stroke"/><path stroke="#b9543d" d="M120.96 197.92q.17-.4.1-1.01" vector-effect="non-scaling-stroke"/><path stroke="#41353e" d="M134.64 200.05q.5-.21 1.36.16M127.62 189.38q-.45-.47-1.42-.1" vector-effect="non-scaling-stroke"/><path stroke="#b9543d" d="M105.46 193.18q-.49.5-.33.99" vector-effect="non-scaling-stroke"/><path stroke="#41353e" d="m105.77 203.29-1.39.87" vector-effect="non-scaling-stroke"/><path stroke="#b9543d" d="M278.25 192.69q-1.25.7-1.38.08" vector-effect="non-scaling-stroke"/><path stroke="#7e8706" d="M271.55 184.85q-.18-.09-.37-.18M262.7 196.48q-.98.6-1.51.28" vector-effect="non-scaling-stroke"/><path stroke="#41353e" d="M247.33 200.06q-.2-.38-.89-.52M231.89 203.77l-1.95.7M289.8 199.01q-.43.45-1 .62M276.8 194.17q-.3-.48-.06-1.06M263.27 197.5q-.74.23-.86.81" vector-effect="non-scaling-stroke"/><path stroke="#7e8706" d="M247.5 201.19q-.94.07-1.52.38M235.96 212.98q-.01 1.01-1.24 1.37M212.02 228.88q-.34.43-.73.66" vector-effect="non-scaling-stroke"/><path stroke="#41353e" d="M211.29 229.54q-.52-.14-1.09-.04" vector-effect="non-scaling-stroke"/><path stroke="#7e8706" d="M210.17 213.99q.71-.64.03-1.76" vector-effect="non-scaling-stroke"/><path stroke="#41353e" d="M210.26 211.85q.65-.06.85.28M211.14 208.73q-.6.01-.81.2" vector-effect="non-scaling-stroke"/><path stroke="#7e8706" d="m207.79 209.22-.56-.89M205.14 205.91q-.12.02-.33.22-.29.29-.11.84" vector-effect="non-scaling-stroke"/><path stroke="#41353e" d="M204.45 206.75q.24-.54-.81-.96M190.96 206.83q-.32.29-.54.14M181.71 210.01q-.54-.24-.98.02" vector-effect="non-scaling-stroke"/><path stroke="#7e8706" d="m180.73 210.03-.98-.49" vector-effect="non-scaling-stroke"/><path stroke="#41353e" d="m179.5 209.07.62.07q.28.03.39-.23.06-.14.1-.3M180.36 203q-.66-.93-.25-.96" vector-effect="non-scaling-stroke"/><path stroke="#7e8706" d="M106.66 204.31q-.83-.46-.4-.99" vector-effect="non-scaling-stroke"/><path stroke="#b9543d" d="M176.19 208.51q-.73-.16-.99-.47M171.78 207.36q-.82-.42-.93-.17M276.17 203.41q-.05.37.45.71.66.44 1.03.03" vector-effect="non-scaling-stroke"/><path stroke="#7e8706" d="m290.95 199.55-1.46.42" vector-effect="non-scaling-stroke"/><path stroke="#b9543d" d="m166.58 206.45.36 1.04" vector-effect="non-scaling-stroke"/><path stroke="#41353e" d="M166.94 207.49q-.58-.21-1.23.04M161.98 216.03q-.49.23-1.09-.53M170.94 212.33q-.27 1.34.95 1.51" vector-effect="non-scaling-stroke"/><path stroke="#7e8706" d="M180.58 240.49q.52.86.37 2.27M156.09 226.54q.14-.45.12-.99M160.93 217.57q.53-.5-.83-1.26" vector-effect="non-scaling-stroke"/><path stroke="#b9543d" d="m205.94 208.64.78.98M191.54 223.15q-.8-.66-1.25-2.04M180.73 210.03q.17.36.93.15" vector-effect="non-scaling-stroke"/><path stroke="#7e8706" d="M191.02 237.08q-.41.03-.23.32.1.16.53-.03M191.58 252.96q-.08-.62-.55-.22" vector-effect="non-scaling-stroke"/><path stroke="#b9543d" d="M190.35 238.65q-.12-1.13.06-1.63M175.27 209.56q-.45.15-1.04-.3" vector-effect="non-scaling-stroke"/><path stroke="#7e8706" d="M171.69 208.79q-.06.03-.13.06" vector-effect="non-scaling-stroke"/><path stroke="#b9543d" d="M171.56 208.85q-.78.02-.75-.32" vector-effect="non-scaling-stroke"/><path stroke="#41353e" d="M171.56 208.85q-.06.41.14.59" vector-effect="non-scaling-stroke"/><path stroke="#b9543d" d="M154.12 226.19q.35-.03.59-.21.43-.29.03-.61l-.35-.28" vector-effect="non-scaling-stroke"/><path stroke="#7e8706" d="M227.58 225.11q-1.22.3-1.55 1.42" vector-effect="non-scaling-stroke"/><path stroke="#b9543d" d="M211.21 230.04q.18-.1.08-.5M181.81 226.28q-.94.31-.18 1.42" vector-effect="non-scaling-stroke"/><path stroke="#7e8706" d="M191.28 253.24q.28.85.23 1.72M191.51 254.96q-.52.12-1 .03" vector-effect="non-scaling-stroke"/><path stroke="#41353e" d="M200.96 227.73q.07.51-.54.73M202.37 241.21q-.93 1.48-2.03.72" vector-effect="non-scaling-stroke"/><path stroke="#7e8706" d="M191.48 268.75q.08 1.47-.79 1.61" vector-effect="non-scaling-stroke"/><path stroke="#41353e" d="m190.69 270.36-.22-1.44" vector-effect="non-scaling-stroke"/><path stroke="#b9543d" d="M190.69 270.36q-.28.05-.32.18" vector-effect="non-scaling-stroke"/><path stroke="#41353e" d="M181.71 259.65q-.71-.24-1.08-1.11" vector-effect="non-scaling-stroke"/><path stroke="#b9543d" d="M211.1 270.93q-.62.67-.92.29M209.46 271.55q.21.25-.04.91M210.18 272.54l-.02-.43" vector-effect="non-scaling-stroke"/><path stroke="#7e8706" d="M210.16 272.11q.74.13 1.07.05M211.16 275.8q-.04 2.14-.92 2.11" vector-effect="non-scaling-stroke"/><path stroke="#b9543d" d="m206.53 273.14.77-.27q.56-.2.09-.56-.51-.39-1.37.02M202.22 273.19l-.48 1.07" vector-effect="non-scaling-stroke"/><path stroke="#7e8706" d="M201.74 274.26q-1.12-.09-1.49-.37M191.59 284.75q-.45-.44-1.11-.42M180.46 274.16q.78-.09.93-.42.1-.23-.29-.67-.36-.41-.34-.74M178.29 269.3q-.48-.98-.7-.68M180.02 274.22q0-.66-.31-1.21M177.26 270.24q-.39-.35-.34-.7M171.81 262.99l-.98-.28M171.79 277.75q-.73-.42-.76-1.48" vector-effect="non-scaling-stroke"/><path stroke="#41353e" d="M167.5 271.05q-.04-.77-.75-.69-.3.03-.26.32" vector-effect="non-scaling-stroke"/><path stroke="#7e8706" d="m166.49 270.68-.28-.71" vector-effect="non-scaling-stroke"/><path stroke="#b9543d" d="M166.49 270.68q.23.27.5.42M180.65 290.44q.54.31 1.01.96M190.51 316.74q.69 1.05-.13 1.65" vector-effect="non-scaling-stroke"/><path stroke="#7e8706" d="M180.46 306.08q-.44-1.21-.9-1.46M170.77 293.71q-.76-.65-.9-1.22M160.83 281.14l-.94-1.43M222 279.92q-.11.55-.78 1.25M212.12 292.55q.04.6-.73.6-.56 0-.65-.55-.07-.42.52-.86M220 266.66l-.33-1.41" vector-effect="non-scaling-stroke"/><path stroke="#41353e" d="M202.29 304.85q-.29.1-.62.08-.57-.03-.51-.59.02-.21.17-.43M210.16 272.11q1.68-.39 1.12-1.12M206.02 272.33q.07.64-.49.17M147.56 278.37l-1.15.19" vector-effect="non-scaling-stroke"/><path stroke="#b9543d" d="M155.75 288.77q-.94.09-1.39-.06" vector-effect="non-scaling-stroke"/><path stroke="#7e8706" d="M156.11 289.21q.01.48-.18.97" vector-effect="non-scaling-stroke"/><path stroke="#b9543d" d="m155.51 290.32-1.35-.5M191.43 300.91q.12.67-.15 1.57" vector-effect="non-scaling-stroke"/><path stroke="#41353e" d="M191.28 302.48q-.34.24-.73.25" vector-effect="non-scaling-stroke"/><path stroke="#b9543d" d="M201.34 291.29q-.18-.04-.37-.08" vector-effect="non-scaling-stroke"/><path stroke="#7e8706" d="M200.97 291.21q-.58.51-.68.31M191.61 302.5q-.09.04-.33-.02" vector-effect="non-scaling-stroke"/><path stroke="#41353e" d="M200.97 291.21q.2.69-.56.99" vector-effect="non-scaling-stroke"/><path stroke="#b9543d" d="m202.22 336.81-1.08 1.32" vector-effect="non-scaling-stroke"/><path stroke="#41353e" d="M190.24 349.84q-.06-.69.37-1.39" vector-effect="non-scaling-stroke"/><path stroke="#b9543d" d="M190.34 334.17q.65-.47.18-1.47" vector-effect="non-scaling-stroke"/><path stroke="#41353e" d="m191.21 316.79.44-.22" vector-effect="non-scaling-stroke"/><path stroke="#7e8706" d="M181.78 323.43q-.45-.47-.78-.29" vector-effect="non-scaling-stroke"/><path stroke="#b9543d" d="m181 323.14-.34-.6" vector-effect="non-scaling-stroke"/><path stroke="#41353e" d="M181 323.14q-.33.95.61 1.05M181.63 336.03q.11 1.11-.26 1.47" vector-effect="non-scaling-stroke"/><path stroke="#b9543d" d="M181.37 337.5q.13-.79-.64-1.28" vector-effect="non-scaling-stroke"/><path stroke="#7e8706" d="M181.37 337.5q-.35.21-.56.5" vector-effect="non-scaling-stroke"/><path stroke="#b9543d" d="m180.55 337.97-.79-1.16M191.59 366.19q-.4-.43-1.18-.29" vector-effect="non-scaling-stroke"/><path stroke="#41353e" d="m190.01 365.6.53-1.33" vector-effect="non-scaling-stroke"/></g><path fill="#7b0275" fill-opacity=".996" d="m191.73 141.45.05 1.53-.3 13.79q0 .33-.34.32l-.39-.02q-.26-.02-.26-.28V144.2q0-.66-.41-1.18l-8.4-10.63-.97-1.14q.12-.39.18-.46.41-.54.84-.01 4.08 5.07 8.25 10.41.47.61.47-.16l.03-13.48a.29.28-85.5 0 1 .32-.28l.27.04a.63.62-87.4 0 1 .55.61z"/><path fill="#f6a604" fill-opacity=".996" d="M211.29 143.76q-.24.65-1.1.18l.05-8.06a.1.09-26.2 0 0-.17-.05l-4.76 6.09q-.15.2-.04.42 1.46 3.12 4.13 1.85l.26.84-1.16.27q-.25-.43-.69.01-.22.22.17.38.65 1.27 1.66 2.17.45.41.47-.2l.07-2.42q.89-.91 1.27-.53l-.27 3.43q-.24.79.19 1.75-.67.77-.23.55-.65.06-.88-.03l-3.49-4.55q.46-.48-.88-1.07l-1.01-1.25q-.37-.45-.74-.01l-2.05 2.42-.14.88-.9.39q-.69-.15-.83-.45l.09-14.41q1-.74.08-1.76.81-.63.83 1.36.01 2.01.1 4.03c.11 2.3 1.51 3.14 2.61 4.84q.42.64.9.04l4.75-6.04q1.59-2.02 1.62.55zm-9.47-4.13q-.45-.58-.45.15l-.01 4.69q0 .78.49.17l1.51-1.87a.96.94-45.1 0 0 .01-1.19z"/><path fill="#066707" fill-opacity=".996" d="M200.39 130.6q.92 1.02-.08 1.76l-8.53 10.62-.05-1.53z"/><path fill="#f6a604" fill-opacity=".996" d="m181.68 132.39.07 13.62q0 .5.32.9l8.42 10.66q.4 1.18 1.16 1.55l-.11 13.71q-.01.8.48.18l8.4-10.62a.44.44 0 0 1 .75.09q.26.59.02 1.22l-.85.51-8.46 10.71a1.53 1.5-26 0 0-.32.9q-.13 6.36-.04 12.68.01.48-.54.81-.4-.09-.52.07l-.05-13.53q0-.5-.31-.9l-8.37-10.69q-.43-.37-.98-.5-.26-.86.13-1.31a.48.47-44.7 0 1 .73 0q4.17 5.15 8.05 10.18.44.57 1.09.87.81.37.21-.28-.11-.13-.2-.26-.24-.33-.24-.73l-.01-12.15q0-.65-.41-1.15l-9.49-11.95-.97-1.37q-1.12-1.71-2.37-2.51-.23-.29-.78-.49.34.01.3-.39-.02-.17-.17-.38-2.31-3.13-4.79-6.1-.43-.4-1.07-.52l.05-.7a.59.59 0 0 1 1.05-.33l5.81 7.23q.06-.42.72.46.48 1.52 1.8 2.66.44.38.42-.19l-.15-5.19q-.09-.1-.18-.19.21-.56-.13-.76c.91-1.81.45-4.9.56-6.96z"/><path fill="#066707" fill-opacity=".996" d="m171.83 135.74.03 7.48a.85.85 0 0 0 .45.75q2.89 1.54 4.18-1.36.55.2.78.49l-.71 1.18q-.27.46.2.69 1.29.64 2.88.64l.97 1.37-4.87-.96q-.49-.1-.8.29l-3.12 3.91q-.06-.11-.18-.2-.2-.15-.42-.02-.13.08-.32.1-.12-.1-.24-.21.48-.47.13-1.65.24-1.56-.14-3-.13-.49-.61-.66-1.4-.53-2.94-.58-.69-.51-.7-1.25l3.75.77q.51.1.52-.42l.09-7.88q.64.12 1.07.52m.04 12.01a.32.32 0 0 0 .57.18l1.31-1.69q.49-.63-.27-.88l-1.01-.32q-.7-.23-.68.51z"/><path fill="#f6a604" fill-opacity=".996" d="M166.4 142.75q.01.74.7 1.25l3.69 4.24q.35 1.18-.13 1.65-3.17 3.19-5.65 6.96-.1.16-.1.33t.04.33q-.68.04-.65.49-1.14.6-1.33 1.62l-.23.92q-.64.15-1.19.52-.65-.05-.68-.83.21-.43.17-1.2 1.01.05 1.06-.59.9-.21 1.11-1.47 1.03.17 1.02-.94l5.13-6.52a.88.87-45.3 0 0 0-1.09l-7.34-9.25q.45-1.18-1.05-1.53.55-.96 1.38.27 1.84 2.73 4.05 4.84"/><path fill="#7b0275" fill-opacity=".996" d="M221.21 144.47q-.68.4.07 1.73-.27 2.52-.1 4.58.09 1.21.82.24l1.28-1.68q.84-.04.9.75-1.26.94-2.17 2.66-.67.02-.8 1.25l-.02 6.24q-1.7.1-2.17-.8 0-.87-1.43-1.29a.33.32-5.6 0 0-.38.46q.39.76 1.56.9.11.4.04.93l-2.02-.38q-.51-.1-.84.3l-3.96 4.81q-.24.46-.76.8-1.15-.14.04-1.77l3.43-4.17q.36-.44-.2-.57l-3.29-.75.15-.98 3.6.78q.41.09.78-.09.68-.3 1.13-1.01a.72.71-48.6 0 0-.05-.84l-5.45-6.68q-.43-.96-.19-1.75 2.03-1.55 3.29-3.62.3-.5-.27-.38l-2.75.57q-.38-.38-1.27.53-.07-.22-.52-.21l-.26-.84q.42-.01.79-.25.86.47 1.1-.18l4.25-1.13a1.6 1.6 0 0 0 .8-.51q1.63-1.91 3.12-3.89.49-.66.75-.74.9-.26.92.73zm-1.32 9.08a.33.33 0 0 0 .07-.2l.15-13.46a.33.33 0 0 0-.59-.2l-7.08 9.15a.33.33 0 0 0 0 .4l5.18 6.6a.33.33 0 0 0 .52-.01zm.05 4.55.18-2.09q.07-.89-.62-.33c-.84.69-.89 2.01.08 2.61q.33.2.36-.19"/><path fill="#066707" fill-opacity=".996" d="m162.02 139.17-.06 13.93q-.05-.08-.09-.16l-1.18-1.29q.56-2.64-.13-4.78-.17-.52-.47-.06l-1.36 2.04q-.35-.61-.84-.75 1.22-1.3 2.1-2.63.86-1.3.92-3.13.06-2.31.06-4.7 1.5.35 1.05 1.53"/><path fill="#7b0275" fill-opacity=".996" d="M180.15 138.21q.34.2.13.76-.39.46-.45.98l-1.44 1.93q-.66-.88-.72-.46z"/><path fill="#066707" fill-opacity=".996" d="M180.28 138.97q.09.09.18.19l-.63.79q.06-.52.45-.98"/><path fill="#f6a604" fill-opacity=".996" d="M157.89 148.1q.49.14.84.75.53 1.52 1.96 2.8l1.18 1.29q.18 1.03-.84 1.15l-5.58-1.3q-.47.15-1.01-.14-.82-.85-2.4-.61-.63.02-1-.41l-3.55-.8-1.55.02q.26-.06-.25-.33l.51-1.31 4.86 1.3q.71-.77.93-.63.33 1.91 3.81 1.2.84.24.57.41l2.75 1.04q.57.21.37-.37-.54-1.63-2.07-2.04.07-.39-.45-.7.18-.45.03-.66-1.3-1.83-4.84-6.13-.13-.68-1.1-.68-.03-.42-.01-.51a.77.77 0 0 1 1.37-.25q2.59 3.59 5.47 6.91"/><path fill="#066707" fill-opacity=".996" d="M242.81 153.75q-.84.08-.79.49l-.77-.9q-.41-.47-.41.15l-.06 4.68q-.63-.26-.94.28l-.02-11.63q0-1.07-.65-.22l-5.88 7.76-1.15-.63 1.82-2.35q.53-.67-.31-.46l-2.19.55q-.53.13-.51.67l.02.39-.97.28q.15-.99-.5-.91-1.31.15-1.83.72-.51-.31-.49-1.2l2.09-.48q.68-.16.67-.86l-.05-6.6q0-.86-.53-.18l-4.45 5.7q-.95.01-.83-.86l4.99-6.23q1.88-2.35 1.87.66l-.02 7.48q0 .51.5.4c1.93-.45 4.16-.66 5.46-2.4q1.36-1.81 2.72-3.64a.62.62 0 0 1 1.02.03q.3.47.27 1.04-.14 2.53-.08 5.1.02.51.32.91z"/><path fill="#7b0275" fill-opacity=".996" d="m152.16 142.63-.17 7.25q-.22-.14-.93.63v-8.56q.97 0 1.1.68M146.2 149.21l-.51 1.31-3.22-4.08q-.37-.47-.37.13l.08 11.27q-.4.45-.93-.06l-.06-4.26q-.01-.56-.38-.14l-1.64 1.88q-.3-.64-.96-.26-.27-.34-.12-.06l2.75-3.46q.39-.48.38-1.1l-.07-4.61q-.04-3.3 1.81-.57 1.22 1.79 3.24 4.01"/><path fill="#f6a604" fill-opacity=".996" d="m221.21 144.47 2.87 3.67q-.12.87.83.86.89 1.79 2.27 2.42-.02.89.49 1.2l2.19 2.67q.23.31.25.71.01.24-.14.47-.14.2-.32.37l-3.22-4q-.12-.83-.9-1.14-.27-1.01-1.35-1.61-.06-.79-.9-.75-.48-1.68-2-3.14-.75-1.33-.07-1.73"/><path fill="#7b0275" fill-opacity=".996" d="m206.77 145.86-4.82.97.14-.88 3.8-1.16q1.34.59.88 1.07"/><path fill="#066707" fill-opacity=".996" d="M208.5 145.3q-.18.26-.52.39-.39-.16-.17-.38.44-.44.69-.01M200.22 146.77q.14.3.83.45l-9.4 11.9q-.76-.37-1.16-1.55.8.32 1.26-.24 4.14-5.11 8.47-10.56"/><path fill="#f6a604" fill-opacity=".996" d="M138.09 154.94q-.15-.28.12.06.02.48-.25.71-.38.33-.59.04l-5.1-6.55q.13-1.02-.97-1 .41-.37.76-.43.33-.05.65.37 2.55 3.32 5.38 6.8M250.75 157.47q.13.26.12.81-.38 1.43-.2 2.97.06.53.46.18 1.86-1.62 3.2-3.96.26-.7.77-.98l5.34-6.01-.91 2.29-8.96 11.5q.21.29-.89.17v-.1l.08-2.2-.23-3.42q-.4-.57-.1-1.05l.09-8.16q-.17-.44-.61-.83.14-.29.27-.48a.88.88 0 0 1 1.61.49z"/><path fill="#066707" fill-opacity=".996" d="M131.3 148.2q1.1-.02.97 1l.12 8.32q-.62.27-1.34-.13.49-.19.46-1.14-.14-4.06-.21-8.05"/><path fill="#7b0275" fill-opacity=".996" d="M248.91 148.68q.44.39.61.83l-4.45 5.82q-.3.4-.14.88 1.03 2.99 4.5 1.46-.3.48.1 1.05l-1.77.26q-.5.08-.27.52.79 1.5 2.27 2.64l-.08 2.2q-1.41-2.56-3.46-4.4-.38-.35-.88-.22l-4.8 1.22q.3-.47-.66-.75.07-.31-.19-.44-.19-.09-.39-.04-3.9 1-7.64 1.8-.51.11-.64.62-.16.62-.1 1.26.05.55.56.79l3.32 1.57q.19.44-.07.73-.18.21-.44.12l-2.76-1.28q-.48-.22-.48.31v5.62q-.37.75.09 1.48-.09.14-.18.29-1.18-.13-1.01-1.67l-.07-5.98q-.01-.51-.41-.82-1.51-1.17-3.47-1.59l-.09-1.21 3.74-4.91q.18-.17.32-.37.15-.23.14-.47-.02-.4-.25-.71l.14-2.48.97-.28q-.14 1.02.04 1.91.13.63.52.11l.61-.82 1.15.63q-.7.94-1.42 1.85c-1.18 1.48-.94 1.98-.93 3.66q.01.85.83.64l8.07-2.06q.31-.54.94-.28 1.58-.52 2.08-2.09.14-.47-.14-.87l-.7-.97q-.05-.41.79-.49.28.52.69.8.45.31.78-.11zm-4.52 8.66q-.55-.63-1.07.02l-1.33 1.64q-.45.56.25.41l2.47-.51q.88-.18.29-.86zm-15.33 2.13c-.22.4-.62.71-.87 1.09q-.48.7.35.55l.89-.15q.55-.1.52-.66l-.04-.98q-.03-.6-.52-.24-.21.15-.33.39m-.6 2.37q-1.65-.25-.25.65.64.41 1.32.82.31.18.38-.17l.08-.46q.03-.16-.11-.25-.8-.5-1.42-.59M156.97 149.42q.52.31.45.7l-1.05 1.37q.27-.17-.57-.41.28-1.02 1.17-1.66"/><path fill="#f6a604" fill-opacity=".996" d="M171.82 150.22q-.05 3.43.01 6.89 0 .16.07.25.12.18.28.09l.17.74q-.42.02-.46.5-.22 2.85.01 7.11-.83-.34-.97-1.45l-.17-5.62q-.16-.59.01-1.28l.13-7.35q.19-.02.32-.1.22-.13.42.02.12.09.18.2"/><path fill="#066707" fill-opacity=".996" d="m211.14 150.44.22 7.29-.15.98.06 5.49q-1.19 1.63-.04 1.77.16.68-.08.46l-8.96 11.32q-.92.57-.7 1.16l-.25.02q-.06-.35-.84-.68l-.03-.55q.73-.21.93-.91l8.52-10.44q.34-.41.34-.93l.05-6.37q0-.69-.67-.85l-4.26-.98a.26.25-79.2 0 1-.19-.29l.07-.44q.05-.27.32-.21l4.07.97q.55.13.56-.43l.15-6.41q.23.09.88.03M147.49 150.83l3.5 4.27 1.39 1.43q.84 2.2 3.02 4.4l-1.09.26-1.6-1.94q-.38-.46-.6.09-.24.56-.14 1.31l-1-.1q.52-2.67-.19-3.57-2.42-3.06-4.84-6.13z"/><path fill="#f6a604" fill-opacity=".996" d="M131.05 157.39q.72.4 1.34.13 1.63.65 3.22.74-.03.53.39.57.54.06.92-.16l2.7.64q.69.17.24-.38l-1.82-2.22q-.04-.39.25-.67.27-.25.67-.04 1 1.66 2.2 2.27.88-.44 1 .15l8.81 2.13 1 .1q1.49.85 2.34.54l1.09-.26q.21.63.93.97l-.35 1.03-1.13.31-1.05-1.01q-.86-.34-1.75.02-.63-.01-.94-.34l-8.47-1.99q-.62-.14-.23.36l4.36 5.68q-.43.33-1 .44l-4.08-5.12q-.31-.39-.79-.51l-4.89-1.24q-.56-.18-1.3-.17l-2.17-.64q-.66-.62-1.24-.27l-3.02-.8q-.57-.15-.21.31l3.28 4.25q.01 1.36 1.09 1.77l.04 15.7q-.08.4-.76.58-6.4-1.67-13-3.15-2.14-.48-3.89.2-1.96.76-3.6 1.87l-.92.38q-1.46.21-2.16.92l-.99.52-4.25 2.08q-.45.22-.92.07l-.27-.08.05-.92 4.51-2.16.83-.42q1.82-.34 3.24-1.51.14-.25.66-.16l3.94-1.72q1.09.05 1.72-.69l13.06 3.15q.7.16.25-.4l-8.38-10.62q.16-.7.92-.62l8.64 11.03q.22.27.22-.08l-.03-13.43q0-.53-.33-.94l-8.46-10.73q-.19-.99-1.08-.92.03-.37.12-.5a.71.7 43.8 0 1 1.16-.02q1.73 2.36 3.53 4.43.35.4.86.54z"/><path fill="#066707" fill-opacity=".996" d="m260.46 165.68-.51.61h-.45l.03-13.52.91-2.29z"/><path fill="#7b0275" fill-opacity=".996" d="m152.04 152.04.01 2.68q0 .58.39.15l2-2.22q.54.29 1.01.14l-3.07 3.74-1.39-1.43.05-3.47q.37.43 1 .41"/><path fill="#066707" fill-opacity=".996" d="M225.53 151.7q.78.31.9 1.14l-5.22 1.16q.13-1.23.8-1.25zM122.56 152.85l-.04 14.15q-.76-.08-.92.62l-13.14-3.17q-.64-.15-.23.36l8.44 10.68q-.63.74-1.72.69l-2.92-.71q-.49-.12-.6.38l-.42 2.05q-.52-.09-.66.16l-.17-2.4q-.05-.65-.69-.81l-6.51-1.55q-.77-.19-.29.44l4.42 5.83-.83.42-4.98-6.37q-1.67-2.14.97-1.5l7.46 1.81a.46.46 0 0 0 .57-.44c.03-1.83.26-4.3-1.02-5.75q-1.41-1.6-2.63-3.29-1.22-1.7.81-1.21l12.6 3.02q.69.17.25-.39-4.32-5.41-8.41-10.66-.07-.09-.02-.19l.17-.31q.29-.51.65-.05l8.35 10.54q.49.61.48-.17l-.05-13.1q.89-.07 1.08.92m-8.4 22.04a.34.34 0 0 0 .34-.54l-2.71-3.34a.34.34 0 0 0-.6.23l.1 2.69a.34.34 0 0 0 .26.31z"/><path fill="#7b0275" fill-opacity=".996" d="M161.96 153.1q.73 1.58 2.27 2.93.01 1.11-1.02.94-.01-.74-.27-1.08-.38-.5-.7.04-.66 1.13-.14 2.51-.05.64-1.06.59l-.01-4.94q1.02-.12.84-1.15.04.08.09.16"/><path fill="#f6a604" fill-opacity=".996" d="M261.38 166.34q.28-.11-.13.57l-.27.64q-.14-.07-.28-.13-1.02-.33-.75-1.13l.51-.61 8.84-11.11a.27.27 0 0 1 .38-.04l.21.17q.42.33.09.74z"/><path fill="#066707" fill-opacity=".996" d="m139.17 155.26-.21.74q-.4-.21-.67.04-.29.28-.25.67-.96.97-1.12 1.96-.38.22-.92.16-.42-.04-.39-.57l1.76-2.51q.21.29.59-.04.27-.23.25-.71.66-.38.96.26"/><path fill="#7b0275" fill-opacity=".996" d="m172.35 158.19-.17-.74 4.2-1.09q.4-.1.49.29.04.17-.01.33-.07.19-.27.23z"/><path fill="#066707" fill-opacity=".996" d="M255.1 156.49q-.51.28-.77.98l-3.46.81q.01-.55-.12-.81zM164.95 157.51q.16.15.31.3-.17.09-.34.19-.37.08-.62 0-.03-.45.65-.49"/><path fill="#7b0275" fill-opacity=".996" d="M170.77 157.45q-.17.69-.01 1.28l-3.16.74q-.59.14-.2.61l3.53 4.27q.14 1.11.97 1.45.01.09.01.18-.64-.27-.87.56l-11.74-2.74q-.18.31-1.04-.14-.7-.72-2.28-.73l.35-1.03q3.03 1.56 4.54-1.67.03.78.68.83-.66.55-1.08 1.3-.27.47.26.6l8.49 2.04a.3.3 0 0 0 .3-.48l-3.4-4.19q-.33-.4-.85-.3l-2.53.51.23-.92q1.63-.13 1.95-1.62.17-.1.34-.19 1.51 1.57 5.51-.36"/><path fill="#066707" fill-opacity=".996" d="m142.18 157.84-.02.58q-.12-.59-1-.15.29-.4.09-.49.53.51.93.06M132.54 158.72l-.3 2.82q-.06.57.39.21 1.2-.94 2.08-2.39.74-.01 1.3.17l-3.57 4.45q-1.08-.41-1.09-1.77l-.05-3.76q.58-.35 1.24.27"/><path fill="#f6a604" fill-opacity=".996" d="M219.02 159.44q.47.9 2.17.8 1.53 3.3 4.72 1.51l.09 1.21q-1.13-.03-1.68.37-.44.32-.1.75l5.73 7.27q-.17 1.54 1.01 1.67v13.34q0 .96.59.21 3.81-4.81 7.97-10.15.24-.31.59-.29.49.02.57.5l.11.62-.19-.32q-.29-.46-.61-.02-.23.33-.17.79l-8.89 11.27q-.35.21-.82-.01l-.21-1.64v-13.55a2.2 2.19-64.4 0 0-.48-1.37l-6.55-8.26a.8.79-25.5 0 0-.8-.28l-10.92 2.57q.24.22.08-.46.52-.34.76-.8l9.2-2.27q.52-.13.28-.6-.87-1.75-2.66-1.86.07-.53-.04-.93.13-.04.25-.07"/><path fill="#f6a604" fill-opacity=".996" d="M239.88 160.19q.96.28.66.75l-3.96 5.14q-.35.44.17.67l3.61 1.61q.44.19.22.62l-.12.26q-.05.1-.16.05l-4.2-1.87q-.55-.25-.92.22l-4.04 5.09q-.46-.73-.09-1.48l3.51-4.52q.29.05.54-.04t.29-.34q.04-.23-.06-.48z"/><path fill="#066707" fill-opacity=".996" d="M152.05 162.25q-.12.39-.02.66a.58.57-22.6 0 0 .76.31q.69-.3 1.01-.99l1.05 1.01-2.26 1.21q-.51.28-.51.86l.02 5.25q0 .9.56.19l5.6-7.09q.86.45 1.04.14l-6.91 8.85q-.32.41-.32.93l.02 12.88q0 .84.52.19l8.32-10.5q.15-.19.34-.04l.2.17q.37.29.08.66l-9.51 12.11q-.97-.08-1.12-1.97l-.06-14.56q.5-.66.06-1.21l.1-5.61q.01-.56-.49-.31l-3.04 1.55q-.54-.01-.75.42l-4.99 2.06q-.18.07-.27-.1l-.13-.26a.48.48 0 0 1 .22-.65l4.2-2.01q.57-.11 1-.44l3.72-1.69a.89.88-10.5 0 0 .51-.73l.11-1.63q.31.33.94.34"/><path fill="#7b0275" fill-opacity=".996" d="M285.78 180.83q-.11.69-.43 1.14l-13.74 3.24q.28.08-.06-.36.74-.32 1.33-.86l4.84-1.21q.48-.12.1-.43-1.57-1.3-3.16-1.21-.47.1-.98-.29.42-.4-1.02-1.32a.61.61 0 0 0-.94.51l.01 3.02q-.62.93-.55 1.61-.22-.19-.44-.12l-.09-4.92q-.01-.5-.43-.79-2.52-1.71-5.36-2.16l-.17-.97q.21-.1.47-.22.33-.16.56-.44 3.91-4.88 7.9-9.96.47-.6-.27-.43l-12.37 2.89.27-.64q.58.01.98-.72l12.95-3.1a.47.47 0 0 1 .49.19q.25.37.04.65-1.36 1.9-2.88 3.71c-1.48 1.74-1.01 3.54-1.15 5.6q-.06.84.75.64l7.23-1.75q2.75-.67.99 1.55l-4.79 6.04q-.25.32.11.49l3.75 1.77a1.33 1.32 51 0 0 .85.09zm-18.03-5.88 2.35-.52q.68-.16.68-.86l.02-2.35q.01-.96-.6-.21l-2.76 3.43q-.58.71.31.51m11.71-1.27q.44-.56-.25-.39l-6.78 1.63q-.58.14-.66.72-.18 1.2.14 2.14a2.16 2.16 0 0 0 3.73.66zm-11.4 3 2.16.86q.96.39.59-.58-.15-.38-.12-.79.09-1.13-.94-.67-.75.34-1.52.4-1.79.13-.17.78"/><path fill="#066707" fill-opacity=".996" d="M181.73 164.26q-.32.62-.09.52l-.99-.37q-.18-.29.1-.65.55.13.98.5M201.19 163.7q.18.25.13.48-.37.26-.85.39-.06-.18-.13-.36z"/><path fill="#7b0275" fill-opacity=".996" d="m181.64 164.78.1 12.98q0 .5.31.9l8.41 10.72q.12-.16.52-.07-.24.33.11.56-.87.45-.62 1.31l-9.53-12.14q1.14-.75-.19-1.95l-.1-12.68zM201.32 164.18l-.02 12.61q-.2.7-.93.91l.1-13.13q.48-.13.85-.39"/><path fill="#066707" fill-opacity=".996" d="m250.57 164.27.04 14.03q.36.5 1.1.46l12.98-3.05.17.97-13.75 3.35q-.5.12-.81.52l-8.57 10.83-.67 1.16q-.28.19-.4.1-.47-.03-.84-.64v-14.3q-.06-.46.17-.79.32-.44.61.02l.19.32.03 12.42q0 1.05.65.22l7.9-9.99a1.55 1.5 64.7 0 0 .32-.94l-.01-14.52q1.1.12.89-.17M235.33 165.87q.1.25.06.48-.04.25-.29.34t-.54.04l-.27-.13q.26.09.44-.12.26-.29.07-.73zM171.91 165.98l8.84 11.11q1.33 1.2.19 1.95l-15.08-3.68q-.35-.08-.23-.42l.09-.27a.37.37 0 0 1 .43-.24l12.87 3.06q.79.19.29-.45l-8.27-10.5q.23-.83.87-.56"/><path fill="#7b0275" fill-opacity=".996" d="M259.95 166.29q-.27.8.75 1.13l-8.99 11.34q-.74.04-1.1-.46 6.22-7.76 8.68-11.05.23-.31.21-.96z"/><path fill="#066707" fill-opacity=".996" d="M262.23 166.19q-.4.73-.98.72.41-.68.13-.57.37.18.85-.15"/><path fill="#f6a604" fill-opacity=".996" d="m147.49 166.94 3.43 4.37q.44.55-.06 1.21l-4.12-5.16q.21-.43.75-.42M201.49 178.91q-.22-.59.7-1.16l13.54-3.3a.48.47 68 0 1 .53.23l.17.29q.15.26-.15.33zM150.92 187.08q.15 1.89 1.12 1.97v15.22q-1.1-.47-1.04-1.23l.05-13.62a1.55 1.5-64.7 0 0-.32-.94l-8.07-10.23q-.47-.6-.48.16l-.04 13.3-.94-1.11.02-13.29q.01-2.46 1.53-.53z"/><path fill="#066707" fill-opacity=".996" d="m229.9 187.32.21 1.64q-.08.08-.15.16l-9.65-12.29a.27.26 46.1 0 1 0-.33l.21-.28q.3-.41.61-.01z"/><path fill="#f6a604" fill-opacity=".996" d="M200.4 178.25q.78.33.84.68l-9.4 11.94a1.49 1.48 64.2 0 0-.31.91l-.01 12.98q0 .87.54.18 4.41-5.73 8.47-10.75.2-.25.63.16a.61.58 23 0 1 .19.43l.02 5.58q0 .52.32.94l2.61 3.42q-.26 1.12-.76.84l-1.82-2.23q-.37-.44-.37.13l-.02 5.36q-.5.35-.9.99l-.03-14.04.04-.14q.05-.14-.08-.17-.38-.09-.65.27-.3.41.1.73l-8.17 10.36q.41-.24-.68.01l-.53-1.67.04-13.98q-.25-.86.62-1.31z"/><path fill="#066707" fill-opacity=".996" d="m111.23 179.18.19 5.05q.02.51.33.91l8.97 11.38-1.19.51q.01-.12.03-.24.18-.36-.45-.46l-8.35-10.64a1.64 1.63-11.5 0 0-.84-.55q-2.97-.82-6.33-1.55-.23-.05-.19-.28.07-.36.43-.35 2.24.03 4.53.77 1.22.39.43-.63l-1.63-2.1.99-.52q.65 1.24 1.58 2.06.43.38.46-.2l.12-2.78z"/><path fill="#7b0275" fill-opacity=".996" d="m141.2 190.6.94 1.11 8.86 11.33q-.06.76 1.04 1.23.06.25.22.4l-.83.63-15.73-3.66q-.23.13-.38-.37-.12-.36-.48-.27-.17.04-.3.17l-13.58-3.25q.17-.4.1-1.01l13.58 3.14q.5-.21 1.36.16l13.5 3.41q.68.17.25-.38l-7.94-10.1q-.32-.41-.83-.53l-13.36-3.23q-.45-.47-1.42-.1-.16-.36-.18-.49a.59.59 0 0 1 .71-.69q6.48 1.49 12.82 3.08.78.2.29-.44l-8.12-10.48q.68-.18.76-.58zM101.77 182.15l-.05.92-4.46-1.01q-.75-.17-.27.44l8.47 10.68q-.49.5-.33.99l-12.07 5.71q-.49.23.04.35l12.67 3.06-1.39.87-13.36-3.23a.71.68 86.2 0 1-.47-.43q-.23-.63.12-.79 6.1-2.71 11.93-5.51.97-.47-.08-.72l-12.71-3.03q-.23-.06-.22-.3l.01-.31a.38.37 7 0 1 .46-.35l12.57 2.97q.32.07.49.35.13.21.39.12a.29.29 0 0 0 .13-.45l-8.24-10.41q-1.33-1.68.75-1.2z"/><path fill="#f6a604" fill-opacity=".996" d="M278.25 192.69q-1.25.7-1.38.08l8.48-10.8q.32-.45.43-1.14l.33-.08a.7.7 0 0 1 .71 1.11z"/><path fill="#066707" fill-opacity=".996" d="M273.68 180.85q.51.39.98.29l-1.78 2.85q-.59.54-1.33.86-.18-.09-.37-.18-.07-.68.55-1.61.02.05.04.11.05.11.13.02.93-1.12 1.78-2.34"/><path fill="#f6a604" fill-opacity=".996" d="M271.18 184.67q.19.09.37.18.34.44.06.36l-8.91 11.27q-.98.6-1.51.28l9.55-12.21q.22-.07.44.12"/><path fill="#7b0275" fill-opacity=".996" d="M247.33 200.06q-.2-.38-.89-.52l7.66-9.72a.21.21 0 0 0-.22-.34l-12.82 3.06.67-1.16 13.89-3.13a.43.43 0 0 1 .43.68zM230.93 188.97l.02 13.37q0 .87.54.19l8.33-10.53q.37.61.84.64l-8.77 11.13-1.95.7.02-15.35q.07-.08.15-.16.47.22.82.01"/><path fill="#066707" fill-opacity=".996" d="m127.62 189.38 8.38 10.83q-.86-.37-1.36-.16l-8.44-10.77q.97-.37 1.42.1"/><path fill="#7b0275" fill-opacity=".996" d="M289.8 199.01q-.43.45-1 .62l-12-5.46q-.3-.48-.06-1.06-.07-.12.13-.34.13.62 1.38-.08.27.56.6.1a.79.76 9.6 0 1 .48-.33l12.62-2.98a.37.37 0 0 1 .46.36v.31q0 .23-.23.29l-12.71 3.04q-1.08.25-.08.72z"/><path fill="#066707" fill-opacity=".996" d="M276.74 193.11q-.24.58.06 1.06l-13.53 3.33q-.74.23-.86.81-.67-.49-1.16-.39-4.99 1-13.75 3.27-.94.07-1.52.38l-14.78 3.52a1.62 1.6-77.4 0 0-.9.58l-8.01 10.15q-.36.46.21.32l13.46-3.16q-.01 1.01-1.24 1.37l-13.23 3.22q-.49.12-.81.52l-8.66 10.79q-.34.43-.73.66-.52-.14-1.09-.04l-.03-15.51q.71-.64.03-1.76.1-.24.06-.38.65-.06.85.28l3.39-4.13q.52-.63-.25-.36l-3.11 1.09q-.6.01-.81.2-1.18-.3-2.54.29l-.56-.89 2.4-.61q.54-.14.55-.7l.07-6.84q0-.75-.46-.16l-4.65 5.89q-.12.02-.33.22-.29.29-.11.84l-.25-.22q.24-.54-.81-.96-.05-.11-.1-.23.5.28.76-.84.2.28.43-.02 2.59-3.38 5.31-6.66.32-.4.48-.41a.63.63 0 0 1 .66.61q.11 4.26 0 8.45-.02.7.66.53c2.1-.51 4.12-.55 5.5-2.54q1.16-1.68 2.46-3.13 1.25-1.39 1.25.48v12.98q0 .76.47.16l8.42-10.7 1.95-.7q6.5-1.42 12.65-2.86 1.25-.29 1.9-1.37.69.14.89.52l13.86-3.3q.53.32 1.51-.28zm-65.41 20.76a.34.34 0 0 0-.07.21l-.13 13.37a.34.34 0 0 0 .61.21l8.22-10.52a.34.34 0 0 0 .07-.21l.11-13.35a.34.34 0 0 0-.61-.21z"/><path fill="#f6a604" fill-opacity=".996" d="m105.46 193.18 13.65 3.15q.63.1.45.46-.86.56-1.76.33-6.43-1.58-12.67-2.95-.16-.49.33-.99"/><path fill="#066707" fill-opacity=".996" d="m190.43 205.16.53 1.67q-.32.29-.54.14l-8.29-10.72q-.31-.39-.31.11l-.11 13.65q-.54-.24-.98.02l-.98-.49q-.05-.32-.25-.47l.62.07q.28.03.39-.23.06-.14.1-.3l.09-5.52q0-.09-.09-.11-.16-.02-.25.02-.66-.93-.25-.96.87-3.15.65-6.82-.14-2.15 1.22-.48z"/><path fill="#7b0275" fill-opacity=".996" d="M200.4 195.77q-.19.38-.59.69-.4-.32-.1-.73.27-.36.65-.27.13.03.08.17z"/><path fill="#f6a604" fill-opacity=".996" d="M120.72 196.52q.14.29.34.39.07.61-.1 1.01l-14.3 6.39q-.83-.46-.4-.99l13.27-6.29z"/><path fill="#7b0275" fill-opacity=".996" d="M180.11 202.04q-.41.03.25.96l-1.63 2.16q-.29.4-.12.87.55 1.45 2 2.58-.04.16-.1.3-.11.26-.39.23l-.62-.07-1.61-1.82q-.37-.42-.78-.04-.53.49-.92 1.3-.73-.16-.99-.47l1.36-1.84q.34-.45-.01-.89l-4.24-5.37q-.43-.53-.43.15l-.1 7.27q-.82-.42-.93-.17v-9.01q0-.78.71-.48.35.15.59.44 2.57 3.2 4.94 6.34.33.44.71.04zM263.27 197.5l12.9 5.91q-.05.37.45.71.66.44 1.03.03l12.73 5.98q.17.08.1.25l-.14.31q-.19.44-.64.24l-12.35-5.76q-.44-.2-.22.23l6.12 12.09q.2.41-.2.62l-.26.13q-.21.11-.32-.1l-6.77-13.31a1.52 1.46 0 0 0-.7-.67l-12.59-5.85q.12-.58.86-.81"/><path fill="#066707" fill-opacity=".996" d="m290.95 199.55-1.46.42q-.28-.23-.69-.34.57-.17 1-.62z"/><path fill="#f6a604" fill-opacity=".996" d="M290.95 199.55q.48.19.52.31a.8.8 0 0 1-.58 1.06q-6.71 1.46-13.24 3.23-.37.41-1.03-.03-.5-.34-.45-.71l13.32-3.44z"/><path fill="#066707" fill-opacity=".996" d="m135.7 201.64-13.69 6.42q-.23.11-.33-.13l-.1-.24a.51.51 0 0 1 .26-.67l12.7-5.85q.13-.13.3-.17.36-.09.48.27.15.5.38.37"/><path fill="#7b0275" fill-opacity=".996" d="m166.58 206.45.36 1.04q-.58-.21-1.23.04l-3.26-4.06q-.36-.44-.36.13l-.11 12.43q-.49.23-1.09-.53l.07-13.19q.01-2.55 1.46-.45 1.7 2.45 4.16 4.59"/><path fill="#f6a604" fill-opacity=".996" d="m247.5 201.19 12.69 5.84a.52.52 0 0 1 .26.68l-.1.25q-.09.24-.33.13l-14.04-6.52q.58-.31 1.52-.38"/><path fill="#066707" fill-opacity=".996" d="M106.26 203.32q-.43.53.4.99l-7.07 13.83a.27.26-63.4 0 1-.35.12l-.26-.13a.48.48 0 0 1-.21-.64l6.13-12.12q.2-.4-.21-.21l-12.37 5.77q-.45.21-.66-.25l-.12-.28q-.1-.23.13-.33l12.71-5.91 1.39-.87q.21.07.49.03M152.26 204.67l8.63 10.83q.6.76 1.09.53-.11.92.32 1.46 4.09 5.18 8 10.2.5.63.5-.17v-12.83a2.08 2.06 25.7 0 0-.46-1.3l-4.63-5.86q.65-.25 1.23-.04l4 4.84q-.27 1.34.95 1.51l.03 15.18q0 .5.32.9l8.34 10.57q.52.86.37 2.27l-15.18-3.7q-.25-.07-.18-.32l.06-.25q.13-.48.62-.36l12.76 3.03q.81.19.3-.46l-7.95-10.07q-.38-.49-.98-.63l-14.31-3.46q.14-.45.12-.99l12.98 2.99q.54.12.2-.31l-8.46-10.66q.53-.5-.83-1.26l-8.67-11.01z"/><path fill="#7b0275" fill-opacity=".996" d="M204.45 206.75q-1.24.97-1.79 2.28-.22.52.33.38l2.95-.77.78.98q-2 .17-3.87.74-1.73.52-3.07 2.19-4.23 5.24-8.24 10.6-.8-.66-1.25-2.04.13.05.26.08.17.04.17-.14l-.3-14.08q.22.15.54-.14 1.09-.25.68-.01l-.15 13.21q-.02 1.44.86.3l8.08-10.52q.4-.64.9-.99 1.53-1.37 2.31-3.03 1.05.42.81.96"/><path fill="#f6a604" fill-opacity=".996" d="m205.14 205.91 2.09 2.42.56.89 2.41 3.01q.68 1.12-.03 1.76l-3.45-4.37-.78-.98-1.24-1.67q-.18-.55.11-.84.21-.2.33-.22M170.85 207.19q.11-.25.93.17 1.66 1.07 3.42.68.26.31.99.47l3.56 1.03.98.49q.17.36.93.15l8.63 10.93q.45 1.38 1.25 2.04-.08 6.46.01 12.77c.01.53-.21.79-.53 1.16q-.41.03-.23.32.1.16.53-.03l8.89-11.19a.57.55 36.1 0 1 .76-.11q.97.67-.46 1.78l-8.64 10.69q-.31.38-.31.88l.02 13.54q-.08-.62-.55-.22-.26.01-.52.03l-.16-14.12q-.12-1.13.06-1.63v-13.54q0-.55-.34-.99l-8.78-11.12q-.32-.41-.82-.53l-5.2-1.28q-.45.15-1.04-.3-1.21-.53-2.54-.47-.06.03-.13.06-.78.02-.75-.32l-3.87-1.04-.36-1.04z"/><path fill="#7b0275" fill-opacity=".996" d="M171.56 208.85q-.06.41.14.59l.22 1.77q.08.67.52.16l1.79-2.11q.59.45 1.04.3l-3.38 4.28q-1.22-.17-.95-1.51l-.13-3.8q-.03.34.75.32"/><path fill="#066707" fill-opacity=".996" d="m171.69 208.79.01.65q-.2-.18-.14-.59.07-.03.13-.06"/><path fill="#7b0275" fill-opacity=".996" d="m211.14 208.73-.03 3.4q-.2-.34-.85-.28l.07-2.92q.21-.19.81-.2M181.71 210.01q-.03.09-.05.17-.76.21-.93-.15.44-.26.98-.02"/><path fill="#f6a604" fill-opacity=".996" d="M160.1 216.31q1.36.76.83 1.26l-12.94-2.94q-.52-.12-.19.3l8.41 10.62q.02.54-.12.99l-14.08 6.43q-.46.21-.69-.25l-.11-.24a.26.26 0 0 1 .12-.35l12.79-5.94q.35-.03.59-.21.43-.29.03-.61l-.35-.28q-4.06-5.37-8.21-10.27-.64-.74-.31-1.43.2-.45.68-.33zM235.96 212.98q.51.86-.01 1.5-4.18 5.15-8.37 10.63-1.22.3-1.55 1.42l-14.82 3.51q.18-.1.08-.5.39-.23.73-.66l13.39-3.32q.5-.12.81-.52l8.5-10.69q1.23-.36 1.24-1.37"/><path fill="#7b0275" fill-opacity=".996" d="m154.39 225.09.35.28q.4.32-.03.61-.24.18-.59.21l-13.49-3.3a.5.5 0 0 1-.37-.6l.06-.25q.06-.25.31-.19z"/><path fill="#066707" fill-opacity=".996" d="M226.03 226.53q.33-1.12 1.55-1.42l13.79-3.27q.25-.06.31.2l.06.31q.09.41-.31.5l-12.72 3.06q-.98.24-.06.66l11.8 5.46q.44.2.25.65l-.11.25q-.1.25-.34.14z"/><path fill="#f6a604" fill-opacity=".996" d="M181.81 226.28q-.94.31-.18 1.42l.07 13.79q0 .54.33.96l8.06 10.21q.1.12.26.17.6.19.16-.06l.35.55q.07.12.21.09.13-.02.21-.17.28.85.23 1.72-.52.12-1 .03l-9.56-12.23q.15-1.41-.37-2.27l.05-13.63a.97.97 0 0 1 .38-.77q.22-.16.8.19"/><path fill="#7b0275" fill-opacity=".996" d="M190.41 237.02q-.18.5-.06 1.63l-8.72-10.95q-.76-1.11.18-1.42z"/><path fill="#066707" fill-opacity=".996" d="M200.96 227.73q.07.51-.54.73.15-.26.09-.61z"/><path fill="#7b0275" fill-opacity=".996" d="M210.2 229.5q.57-.1 1.09.04.1.4-.08.5l-8.84 11.17q-.93 1.48-2.03.72l.08-13.47q.61-.22.54-.73.15-.02.26.04.14.06.14.22l-.01 12.06q0 .72.45.15z"/><path fill="#066707" fill-opacity=".996" d="M191.02 237.08q.07.14.3.29-.43.19-.53.03-.18-.29.23-.32M191.51 254.96q.05-.87-.23-1.72-.03-.32-.25-.5.47-.4.55.22l8.76-11.03q1.1.76 2.03-.72l13.5-3.12a.44.44 0 0 1 .53.37l.03.3q.03.2-.17.25l-14.5 3.49a1.7 1.7 0 0 0-.96.62zM191.51 254.96q.04 6.56-.01 13.04 0 .35-.77.96a.02.02 0 0 0 .02.04q.22-.1.49-.26a.03.03 0 0 1 .04.04q-.08.08-.22.19-.17.11 0 0 .21-.13.42-.22.08 1.47-.79 1.61l-.22-1.44.04-13.93q.48.09 1-.03"/><path fill="#7b0275" fill-opacity=".996" d="m190.47 268.92.22 1.44q-.28.05-.32.18l-8.66-10.89q-.71-.24-1.08-1.11.13-.36.28-.46a.69.68-36.7 0 1 .94.13q4.09 5.26 8.62 10.71"/><path fill="#f6a604" fill-opacity=".996" d="M211.1 270.93q-.62.67-.92.29l-.01-7.57q-.01-.59-.37-.13l-4.37 5.52q-.35.45.01.89l1.46 1.78q.35.44.9.29l1.66-.45q.21.25-.04.91-.6-.03-1.05.2-.55.28-.17.76l1.41 1.81q.49.63.51-.17l.06-2.52-.02-.43q.74.13 1.07.05l-.07 3.64q-.04 2.14-.92 2.11l-3.71-4.77.77-.27q.56-.2.09-.56-.51-.39-1.37.02l-1.15-1.54q-.36-.48-.73-.01l-1.92 2.41-.48 1.07q-1.12-.09-1.49-.37l.08-13.81q0-.54-.34-.12l-7.94 10.08a2.56 2.55-26.4 0 0-.55 1.61l.09 13.1q-.45-.44-1.11-.42l-.11-13.79q.04-.13.32-.18.87-.14.79-1.61l8.19-9.93q1.66-2.01 1.73.59.05 1.61-.09 3.25c-.19 2.39 1.36 3.79 2.66 5.47q.45.57.9 0l5.21-6.58q1.07-1.36 1.06.37zm-9.27-4.05q-.45-.59-.46.15l-.02 4.7q0 .89.54.19l1.55-1.99q.35-.46 0-.91z"/><path fill="#066707" fill-opacity=".996" d="M180.63 258.54q.37.87 1.08 1.11l.04 13.74a1.6 1.59 26.4 0 0 .33.97l8.07 10.21q.12.15.29.06.49-.27.04-.3.66-.02 1.11.42l8.66-10.86q.37.28 1.49.37l-9.62 11.65a2.89 2.86-25.5 0 0-.66 1.83v12.24q0 .19-.2.19h-.27a.45.44 90 0 1-.44-.45v-12.17a2.45 2.42 25.9 0 0-.52-1.47l-9.57-11.92q.78-.09.93-.42.1-.23-.29-.67-.36-.41-.34-.74l-.11-5.22q-.01-.55-.37-.14l-1.99 2.33q-.48-.98-.7-.68 1.23-1.37 2.1-2.67.9-1.33.94-3.15.05-2.13 0-4.26"/><path fill="#f6a604" fill-opacity=".996" d="M177.59 268.62q.22-.3.7.68.7 1.57 2.47 3.03-.02.33.34.74.39.44.29.67-.15.33-.93.42l-.44.06q0-.66-.31-1.21l-2.45-2.77q-.39-.35-.34-.7l-5.11-6.55-.98-.28q-.08-.78.1-1.26a.47.47 0 0 1 .8-.12z"/><path fill="#066707" fill-opacity=".996" d="m171.81 262.99.02 7.71q0 .74.74.77.81.03 1.52.33.71.31 1.2-.29l1.63-1.97q-.05.35.34.7l-.84 1.43q-.24.41.19.61 1.39.66 3.1.73.31.55.31 1.21l-4.07-.92q-.51-.11-.83.29l-3.33 4.16q-.73-.42-.76-1.48l-.23-3.53q-.04-.51-.52-.68l-2.78-1.01q-.04-.77-.75-.69-.3.03-.26.32l-.28-.71 4.22.87q.49.1.48-.41l-.08-7.72zm.04 11.69q.03 1.21.79.26l1.07-1.34q.54-.68-.29-.93l-1.1-.34q-.52-.16-.51.39z"/><path fill="#f6a604" fill-opacity=".996" d="m166.21 269.97.28.71q.23.27.5.42l4.04 5.17q.03 1.06.76 1.48l.06 15.03q0 .48.3.85l8.06 10.19q.44.56.44-.16v-13.22q.54.31 1.01.96l.08 13.61q.01.51.32.91l8.45 10.82q.69 1.05-.13 1.65l-9.92-12.31q-.44-1.21-.9-1.46l-8.79-10.91q-.76-.65-.9-1.22l-9.04-11.35-.94-1.43-8.44-10.69q-.29-.38.08-.68l.2-.16q.21-.16.37.04l8.26 10.47q.57.72.57-.2l.01-12.16q0-2.76 1.75-.63zm-3.76-2.94a.3.3 0 0 0-.54.19l.07 13.41a.3.3 0 0 0 .06.18l8.27 10.56a.3.3 0 0 0 .54-.19l-.07-13.4a.3.3 0 0 0-.06-.18zM222 279.92q-.11.55-.78 1.25l-9.1 11.38q.04.6-.73.6-.56 0-.65-.55-.07-.42.52-.86l8.34-10.6q.32-.4.32-.9l.08-13.58-.33-1.41.39-.32a.63.63 0 0 1 1.02.5l.01 13.07q0 .91.56.2l8.26-10.47q.17-.22.38-.05l.2.17a.5.49 38.8 0 1 .08.69z"/><path fill="#066707" fill-opacity=".996" d="m219.67 265.25.33 1.41-8.38 10.69q-.31.39-.31.89l-.05 13.5q-.59.44-.52.86.09.55.65.55.77 0 .73-.6l13.11-3.16q.59-.14.97-.62l7.98-10.08q.4-.5-.22-.36l-12.74 2.84q.67-.7.78-1.25l12.53-2.95q2.86-.67 1.03 1.63l-7.61 9.62q-.48.61.28.43l12.97-3.09q.45-.11.5.35l.04.31q.02.22-.19.27l-12.99 3.1q-.85.2-.06.57l12.16 5.63q.11.06.09.18l-.05.32q-.09.57-.62.33l-13.54-6.26a1.29 1.26 49.8 0 0-.82-.08l-13.95 3.35a2.33 2.33 0 0 0-1.29.83l-8.19 10.39q-.29.1-.62.08-.57-.03-.51-.59.02-.21.17-.43.09-.06.27-.07a.51.48-71.4 0 0 .32-.17l7.93-10.04q.3-.37.3-.85l.09-14.87q.88.03.92-2.11l3.29-4.11q.44-.55-.24-.36l-2.98.83q-.33.08-1.07-.05 1.68-.39 1.12-1.12l4.14-.99q.49-.11.81-.51z"/><path fill="#7b0275" fill-opacity=".996" d="M167.5 271.05q.21-.24-.51.05-.27-.15-.5-.42-.04-.29.26-.32.71-.08.75.69M211.1 270.93l.18.06q.56.73-1.12 1.12l.02.43-.76-.08q.25-.66.04-.91l.72-.33q.3.38.92-.29"/><path fill="#066707" fill-opacity=".996" d="M206.02 272.33q.07.64-.49.17z"/><path fill="#7b0275" fill-opacity=".996" d="m206.53 273.14-4.79 1.12.48-1.07 3.31-.69q.56.47.49-.17.86-.41 1.37-.02.47.36-.09.56z"/><path fill="#066707" fill-opacity=".996" d="m159.89 279.71.94 1.43-13.19-3.03q-.02 0-.03.02-.03.12-.05.24l-1.15.19-.56-.79a.64.64 0 0 1 .66-1z"/><path fill="#7b0275" fill-opacity=".996" d="m147.56 278.37 8.19 10.4q-.94.09-1.39-.06l-7.95-10.15z"/><path fill="#f6a604" fill-opacity=".996" d="M154.36 288.71q.45.15 1.39.06l.36.44q.01.48-.18.97l-.42.14-1.35-.5-13.67-3.34a.25.24-84.2 0 1-.19-.24l.01-.28q0-.54.53-.42z"/><path fill="#066707" fill-opacity=".996" d="M169.87 292.49q.14.57.9 1.22l-14.84-3.53q.19-.49.18-.97z"/><path fill="#7b0275" fill-opacity=".996" d="m155.51 290.32-13.62 6.29a.41.4-16.1 0 1-.57-.31l-.05-.29q-.02-.15.12-.21l12.77-5.98zM191.43 300.91q.12.67-.15 1.57-.34.24-.73.25l-8.89-11.33q-.47-.65-1.01-.96.09-.42.21-.54a.65.65 0 0 1 .96.08q3.8 4.95 7.71 9.67.53.65 1.21 1.25.2.18.45.1.11-.04.24-.09"/><path fill="#f6a604" fill-opacity=".996" d="M201.34 291.29q-.18-.04-.37-.08-.58.51-.68.31l-8.68 10.98q-.09.04-.33-.02.27-.9.15-1.57l8.69-10.91a.68.68 0 0 1 1.14.12q.2.42.08 1.17"/><path fill="#066707" fill-opacity=".996" d="M200.97 291.21q.2.69-.56.99.17-.41-.12-.68.1.2.68-.31"/><path fill="#7b0275" fill-opacity=".996" d="m201.34 291.29-.01 12.62q-.15.22-.17.43-.06.56.51.59.33.02.62-.08l13.59-3.17q.6-.14.55.48l-.02.3q-.01.17-.19.22l-14.41 3.46a1.91 1.9 12.6 0 0-1.05.66l-8.93 11.32a1.47 1.41-26.5 0 0-.32.9l-.03 12.78a.38.38 0 0 0 .68.23q3.84-4.97 8.06-10.24.2-.25.53-.29a.56.55-3.2 0 1 .62.55l-.01 13.42q0 .75.47.16l8.35-10.53a.41.4-47.2 0 1 .62-.03l.18.19q.17.19.01.4l-8.77 11.15-1.08 1.32-9.24 11.76q-.36.45-.37 1.02l-.3 13.37q-.09.08-.67-.05l-.32-14.39q-.06-.69.37-1.39.48.65 1.27-.26 1.96-2.27 8.08-10.23.39-.51.39-1.15l.02-12.79q0-.83-.51-.18l-7.95 10.07a1.84 1.82 64.5 0 0-.38 1.09l-.04 12.87q0 .43-.42.42h-.35a.27.26 88.9 0 1-.26-.26l-.12-13.86q.65-.47.18-1.47l.45-.03q.92-.06.06-.4-.14-.05-.28-.11-.23-.1-.23-.35l-.14-13.42q.82-.6.13-1.65.37-.04.7.05l.44-.22 8.24-10.38q.5-.63.5-1.45l.02-12.54q.76-.3.56-.99.19.04.37.08"/><path fill="#066707" fill-opacity=".996" d="M179.56 304.62q.46.25.9 1.46l-14.48-3.37a.48.48 0 0 1-.36-.58l.08-.29q.04-.19.23-.15zM191.61 302.5l.04 14.07-.44.22q.03-.28-.26-.49-.34-.26-.34-.68l-.06-12.89q.39-.01.73-.25.24.06.33.02"/><path fill="#f6a604" fill-opacity=".996" d="M190.52 332.7q.47 1-.18 1.47l-8.56-10.74q-.45-.47-.78-.29l-.34-.6q.03-.76.1-.82.62-.57 1.14.1z"/><path fill="#7b0275" fill-opacity=".996" d="m180.66 322.54.34.6q-.33.95.61 1.05l.02 11.84q.11 1.11-.26 1.47.13-.79-.64-1.28z"/><path fill="#066707" fill-opacity=".996" d="M181.78 323.43q-.37.67-.17.76-.94-.1-.61-1.05.33-.18.78.29"/><path fill="#f6a604" fill-opacity=".996" d="M180.73 336.22q.77.49.64 1.28-.35.21-.56.5-.13-.02-.26-.03l-.79-1.16-8.73-11.15a.3.29-46 0 1 0-.37l.2-.26a.38.38 0 0 1 .6-.01zM201.14 338.13l1.08-1.32 13.76-3.25a.24.23-23.9 0 1 .25.09l.15.22a.45.44 65.8 0 1-.26.69z"/><path fill="#7b0275" fill-opacity=".996" d="m179.76 336.81.79 1.16-14.81-3.54q-.18-.04-.17-.23l.03-.27q.04-.47.51-.36z"/><path fill="#066707" fill-opacity=".996" d="m181.63 336.03.04.99a1.63 1.56-66.9 0 0 .34.9l8.6 10.53q-.43.7-.37 1.39L180.81 338q.21-.29.56-.5.37-.36.26-1.47"/><path fill="#7b0275" fill-opacity=".996" d="M191.59 366.19q-.4-.43-1.18-.29-.15-.02-.4-.3l.53-1.33.02-.04.38.37a.13.13 0 0 0 .22-.06q.03-.13.07-.26.56.01.79-.29 4.09-5.16 8.18-10.38a.51.51 0 0 1 .71-.09l.21.16q.21.16.05.36z"/><path fill="#066707" fill-opacity=".996" d="m190.54 364.27-.53 1.33-9.12-11.57q-.15-.19.05-.35l.2-.16a.46.45-38.6 0 1 .63.07z"/><path fill="#f6a604" fill-opacity=".996" d="m191.59 366.19-.01 15.81h-1.12l-.05-16.1q.78-.14 1.18.29"/></svg>