<svg xmlns="http://www.w3.org/2000/svg" viewBox="0 0 382 382"><defs><clipPath id="a"><path d="M382 382H0V0h382z"/></clipPath></defs><g clip-path="url(#a)"><svg xmlns="http://www.w3.org/2000/svg" width="382" height="382" style="shape-rendering:geometricPrecision"><path fill="#8b59e7" stroke="#8b59e7" d="m190.364 165.35-34.635-8.55-10.85-9.891 23.9-26.84 6.96-3.894L209.4 138.23l9.256 14.565z"/><path fill="#be235e" stroke="#be235e" d="m128.748 279.028-12.962-14.39 34.244-24.571 14.568 33.015zM280.859 336.292l31.544 6.072L298.797 382h-23.398l-11.944-13.09.488-26.236z"/><path fill="#8b59e7" stroke="#8b59e7" d="m280.484 303.912 39.918 27.173 2.306 2.638-10.305 8.641-31.544-6.072-12.117-26.082 1.907-8.643zM155.73 156.8l27.212 39.182 6.463 15.607-27.753 11.028-31.122-40.6-8.949-22.226 2.833-5.465 20.465-7.417z"/><path fill="#be235e" stroke="#be235e" d="m121.581 159.791-15.992 9.679-97.657-5.29L0 159.125v-1.53l50.185-43.955 30.204-2.59 20.29 11.1 23.735 32.176zM304.695 204.32l38.04-87.492L382 93.49v89.084l-35.222 33.472-29.16-.467zM190.523 17.59 187.653 0h55.141l13.385 38.494-23.171 4.087z"/><path fill="#8b59e7" stroke="#8b59e7" d="m126.309 87.656-25.63 34.494-20.29-11.1 14.219-43.078z"/><path fill="#be235e" stroke="#be235e" d="m245.897 265.564 15.435 14.396 9.317 21.607-1.907 8.643-31.578 21.832-20.907-.583-.505-1.36z"/><path fill="#8b59e7" stroke="#8b59e7" d="m237.164 332.042 31.578-21.832 12.117 26.082-16.916 6.382zM237.63 242.995l4.927 7.623 3.34 14.946-30.145 64.535-27.274-18.103-13.99-29.941z"/><path fill="#be235e" stroke="#be235e" d="m190.364 165.35-7.422 30.632L155.73 156.8zM382 304.016l-13.63-14.612-21.592-73.358L382 182.574z"/><path fill="#8b59e7" stroke="#8b59e7" d="m303.252 204.149 1.443.172 12.923 11.258-9.704 36.84-65.357-1.801-4.927-7.623-1.331-9.197z"/><path fill="#be235e" stroke="#be235e" d="m316.42 266.478 51.95 22.926L382 304.016v13.62l-59.292 16.087-2.306-2.638-20.944-38.012-.956-10.41z"/><path fill="#8b59e7" stroke="#8b59e7" d="m236.911 169.1 12.87-7.039 45.795 32.606 7.676 9.482-66.953 29.649-11.11-17.44z"/><path fill="#be235e" stroke="#be235e" d="m189.405 211.589 35.785 4.769 11.109 17.44 1.33 9.197-63.142 39.06-4.772-1.997-5.117-6.976-14.568-33.015.067-.928 11.555-16.522zM0 382v-86.614l50.24 28.25L62.397 382zM237.164 332.042l26.779 10.632-.488 26.235-54.03-5.447 6.832-32.003z"/><path fill="#8b59e7" stroke="#8b59e7" d="m129.53 311.906 2.768 7.189-19.385 59.653-20.918-58.554 26.52-11.848 9.293 2.501z"/><path fill="#be235e" stroke="#be235e" d="m382 20.723-88.214 22.263-37.607-4.492L242.794 0H382z"/><path fill="#8b59e7" stroke="#8b59e7" d="M168.78 120.07 127.4 87.364l14.272-24.54 42.562 28.826-8.496 24.524zM128.748 279.028l35.85-5.946 5.117 6.976-40.186 31.848-1.72-1.059zM0 159.125l7.932 5.055 45.135 55.638 2.396 28.54L0 291.81z"/><path fill="#8b59e7" stroke="#8b59e7" d="M89.013 267.254 68.42 314.577l-18.18 9.059L0 295.386v-3.577l55.463-43.45 30.847 15.278zM242.557 250.618l65.357 1.8 8.505 14.06-17.917 16.184-37.17-2.702-15.435-14.396z"/><path fill="#be235e" stroke="#be235e" d="m130.53 182.016 31.122 40.601-11.555 16.522-34.733-13.78z"/><path fill="#8b59e7" stroke="#8b59e7" d="m130.53 182.016-15.166 43.342-7.03.254-17.321-19.151 14.576-36.991 15.992-9.679z"/><path fill="#be235e" stroke="#be235e" d="m150.097 239.139-.067.928-34.244 24.57-24.604 3.395-2.169-.778-2.703-3.617 22.024-38.025 7.03-.254zM215.752 330.1l.505 1.359-6.832 32.003L199.368 382h-34.399l-6.873-52.309 30.382-17.695z"/><path fill="#8b59e7" stroke="#8b59e7" d="m91.995 320.194 20.918 58.554-.231 3.252H62.398L50.24 323.636l18.181-9.06zM187.653 0l2.87 17.59L189 20.713 139.479 53.76 86.882 22.47 71.754 0z"/><path fill="#8b59e7" stroke="#8b59e7" d="m91.182 268.032 27.333 40.314-26.52 11.848-23.575-5.617 20.593-47.323z"/><path fill="#be235e" stroke="#be235e" d="m225.385 83.713-39.6 6.302 3.216-69.303 1.522-3.121 42.485 24.99zM0 0h38.9l11.285 113.64L0 157.596z"/><path fill="#8b59e7" stroke="#8b59e7" d="m132.298 319.095 25.798 10.596L164.97 382h-52.287l.231-3.252z"/><path fill="#be235e" stroke="#be235e" d="m225.385 83.713 7.623-41.132 23.17-4.087 37.608 4.492-46.892 54.985-2.045-.404z"/><path fill="#8b59e7" stroke="#8b59e7" d="M382 382h-83.203l13.606-39.636 10.305-8.641L382 317.636zM261.332 279.96l37.17 2.702.956 10.41-18.974 10.84-9.835-2.345zM174.487 282.055l13.99 29.94-30.38 17.696-25.8-10.596-2.768-7.189 40.186-31.848zM190.364 165.35l28.293-12.555 18.254 16.306-11.721 47.257-35.785-4.77-6.463-15.606z"/><path fill="#be235e" stroke="#be235e" d="m209.401 138.23-33.663-22.055 8.496-24.524 1.552-1.636 39.6-6.302 19.463 13.854z"/><path fill="#8b59e7" stroke="#8b59e7" d="m280.484 303.912 18.974-10.84 20.944 38.013zM105.59 169.47l-14.577 36.99-37.946 13.358L7.932 164.18z"/><path fill="#8b59e7" stroke="#8b59e7" d="M108.334 225.612 86.31 263.637l-30.847-15.278-2.396-28.541 37.946-13.357zM94.608 67.972l-14.22 43.078-30.203 2.59L38.9 0h32.853l15.128 22.469z"/><path fill="#be235e" stroke="#be235e" d="M126.309 87.656 94.608 67.972 86.882 22.47l52.597 31.291 2.193 9.065-14.272 24.54zM128.748 279.028l-.94 31.82-9.293-2.502-27.333-40.314 24.604-3.394z"/><path fill="#be235e" stroke="#be235e" d="m144.879 146.909-20.465 7.417-23.736-32.176 25.63-34.494 1.092-.291 41.38 32.704z"/><path fill="#8b59e7" stroke="#8b59e7" d="m184.234 91.65-42.562-28.825-2.193-9.065L189 20.712l-3.215 69.303z"/><path fill="#be235e" stroke="#be235e" d="m199.368 382 10.057-18.538 54.03 5.447L275.399 382z"/><path fill="#8b59e7" stroke="#8b59e7" d="m249.78 162.061 27.031-28.345 10.063-1.264 8.702 62.215z"/><path fill="#be235e" stroke="#be235e" d="m276.811 133.716-29.917-35.745 46.892-54.985L382 20.723V93.49l-39.264 23.338-55.862 15.624z"/><path fill="#8b59e7" stroke="#8b59e7" d="m317.618 215.579 29.16.467 21.592 73.358-51.95-22.926-8.506-14.06zM295.576 194.667l-8.702-62.215 55.862-15.624-38.041 87.493-1.443-.172z"/><path fill="#be235e" stroke="#be235e" d="m218.657 152.795-9.256-14.565 35.448-40.663 2.045.404 29.917 35.745-27.03 28.345-12.87 7.04z"/></svg></g></svg>