<svg xmlns="http://www.w3.org/2000/svg" viewBox="0 0 382 382"><defs><clipPath id="a"><path d="M382 382H0V0h382z"/></clipPath></defs><g clip-path="url(#a)"><svg xmlns="http://www.w3.org/2000/svg" width="382" height="382" style="shape-rendering:geometricPrecision"><path fill="#bb1b79" stroke="#bb1b79" d="m171.098 87.5-24.13 33.174-31.326.314-10.103-13.527 21.008-37.926 13.871-9.097 10.35 4.796z"/><path fill="#d59ab2" stroke="#d59ab2" d="m292.087 296.815 39.756-3.544 5.946 7.365-3.048 41.408-49.77-3.358-12.791-15.716zM76.35 225.423l-7.146 9.949L0 227.758v-39.02l70.21-8.799 7.377 4.59zM184.45 154.932l-11.912-1.657-25.57-32.6 24.13-33.174 10.998-1.537 31.696 52.852z"/><path fill="#bb1b79" stroke="#bb1b79" d="m172.538 153.275-24.441 26.016-22.469 1.862-30.201-7.444 20.215-52.72 31.326-.315z"/><path fill="#d59ab2" stroke="#d59ab2" d="m95.427 173.71-17.84 10.819-7.377-4.59-7.395-12.062-8.59-54.912 24.469-18.549 26.845 13.045 10.103 13.527zM382 64.246l-30.483 7.897-3.444-2.22L382 9.253z"/><path fill="#bb1b79" stroke="#bb1b79" d="M349.765 217.13 382 221.258v34.412l-50.215 10.314-9.098-20.014z"/><path fill="#d59ab2" stroke="#d59ab2" d="m59.912 382 7.13-21.562 23.624-15.485 32.757 34.489.418 2.558zM125.628 181.153l17.51 63.305-66.788-19.035 1.237-40.894 17.84-10.82z"/><path fill="#bb1b79" stroke="#bb1b79" d="m295.966 238.373 26.72 7.598 9.099 20.014.058 27.286-39.756 3.544-25.235-51.124 24.37-7.702zM168.242 330.215l2.895 40.23L168.45 382h-44.608l-.418-2.558 15.555-51.578zM382 382h-23.632l-23.627-39.956 3.048-41.408 5.19-.508L382 310.246zM184.45 154.932l29.342-16.116 23.081-.451 11.255 46.746-19.87 46.951-20.786-5.172zM0 133.338l62.815 34.539 7.395 12.062L0 188.737z"/><path fill="#d59ab2" stroke="#d59ab2" d="m150.769 65.234-10.35-4.796-16.665-57.864L124.798 0h42.43l18.097 23.197z"/><path fill="#bb1b79" stroke="#bb1b79" d="M295.966 238.373 327 183.395l7.011 1.641 15.755 32.093-27.078 28.842z"/><path fill="#d59ab2" stroke="#d59ab2" d="m228.259 232.062 7.288 9.287-7.674 41.258-33.732 32.06-1.266.015-43.003-54.895 1.506-10.699 25.108-16.717 30.986-5.48z"/><path fill="#bb1b79" stroke="#bb1b79" d="m244.958 0-2.373 28.565-3.563 5.823-19.55 12.21-34.147-23.4L167.227 0z"/><path fill="#d59ab2" stroke="#d59ab2" d="m282.047 178.7.285-42.548 1.196-.123 20.998 40.039z"/><path fill="#bb1b79" stroke="#bb1b79" d="m335.866 183.332 3.762-48.397 4.983-1.661 17.434 27.556-11.772 13.826z"/><path fill="#d59ab2" stroke="#d59ab2" d="m168.449 382 2.688-11.554 47.843-21.47.558.475L200.007 382z"/><path fill="#bb1b79" stroke="#bb1b79" d="M101.947 22.288 88.664 50.19 71.554 66.78l-2.734-1.363-3.15-3.163-6.934-44.74zM74.543 284.393l34.894 33.966-16.008 13.94-42.365-21.152 20.101-29.025zM68.82 65.417 0 90.15V79.204l45.929-27.856 19.74 10.906zM148.097 179.29l28.389 53.081-25.108 16.717-8.24-4.63-17.51-63.305z"/><path fill="#d59ab2" stroke="#d59ab2" d="m151.378 249.088-1.506 10.699-17.546 22.163-61.034-20.835-3.452-13.43 1.364-12.313 7.146-9.949 66.788 19.035z"/><path fill="#bb1b79" stroke="#bb1b79" d="m382 113.141-28.673 8.738-38.515-45.823 33.26-6.133 3.445 2.22L382 100.184z"/><path fill="#d59ab2" stroke="#d59ab2" d="m0 227.758 69.204 7.614-1.364 12.313L0 286.226zM311.802 77.418l2.142-1.48.868.118 38.515 45.823-8.716 11.395-4.983 1.661-23.639.85-10.076-7.926z"/><path fill="#bb1b79" stroke="#bb1b79" d="m227.873 282.607 38.286 39.777L230.545 353l-11.007-3.55-.558-.474-24.84-34.309z"/><path fill="#d59ab2" stroke="#d59ab2" d="m125.437 315.03 13.541 12.834-15.555 51.578-32.757-34.489 2.763-12.653 16.008-13.94zM126.547 69.535 88.664 50.191l13.283-27.903 21.807-19.714 16.664 57.864zM240.522 134.41l2.705-29.479 44.894-26.376-15.57 55.751z"/><path fill="#bb1b79" stroke="#bb1b79" d="M54.224 112.965 0 109.04V90.15l68.82-24.734 2.733 1.363 7.14 27.636z"/><path fill="#d59ab2" stroke="#d59ab2" d="m272.552 134.306 15.57-55.751.526-.43 23.154-.707-5.89 50.44-22.384 8.17-1.196.124z"/><path fill="#bb1b79" stroke="#bb1b79" d="m382 157.612-19.955 3.218-17.434-27.556 8.716-11.395L382 113.141z"/><path fill="#d59ab2" stroke="#d59ab2" d="m33.886 0 24.85 17.515 6.933 44.739-19.74-10.906L4.685 0z"/><path fill="#bb1b79" stroke="#bb1b79" d="m124.798 0-1.044 2.574-21.807 19.714-43.211-4.773L33.886 0z"/><path fill="#d59ab2" stroke="#d59ab2" d="m192.875 314.682 1.266-.015 24.84 34.309-47.844 21.47-2.895-40.231zM310.327 24.786 324.477 0H382v9.253l-33.927 60.67-33.26 6.133-.87-.118z"/><path fill="#bb1b79" stroke="#bb1b79" d="m282.047 178.7-6.411 3.492-27.508 2.919-11.255-46.746 3.649-3.956 32.03-.103 9.78 1.846z"/><path fill="#d59ab2" stroke="#d59ab2" d="m228.259 232.062 19.869-46.951 27.508-2.92 17.264 26.922-1.678 28.876-24.37 7.702-31.305-4.342zM382 310.246l-39.02-10.118 39.02-27.04z"/><path fill="#bb1b79" stroke="#bb1b79" d="m299.202 382-14.77-39.94.539-3.374 49.77 3.358L358.368 382zM335.866 183.332l14.407-8.676L382 191.146v30.113l-32.235-4.13-15.755-32.093zM171.098 87.5l-20.33-22.266 34.557-42.037 34.147 23.4-3.471 12.72-33.905 26.647zM331.785 265.985 382 255.67v17.417l-39.02 27.04-5.191.508-5.946-7.365zM382 100.184l-30.483-28.041L382 64.246zM184.45 154.932l23.022 71.958-30.986 5.481-28.389-53.08 24.44-26.016z"/><path fill="#d59ab2" stroke="#d59ab2" d="m282.047 178.7 22.479-2.632 12.264 2.169.134.13-24.024 30.746-17.264-26.921zM324.477 0l-14.15 24.786-67.742 3.78L244.958 0z"/><path fill="#bb1b79" stroke="#bb1b79" d="m316.79 178.237-.8-42.452 23.638-.85-3.762 48.397-1.856 1.704-7.01-1.64-10.076-5.03z"/><path fill="#d59ab2" stroke="#d59ab2" d="m129.667 289.39-4.23 25.64-16 3.33-34.894-33.967z"/><path fill="#d59ab2" stroke="#d59ab2" d="m71.292 261.115 61.034 20.835-2.659 7.44-55.124-4.997-3.378-2.27zM272.18 322.97l12.79 15.716-.539 3.373L259.36 382h-13.217l-15.597-29 35.614-30.616z"/><path fill="#d59ab2" stroke="#d59ab2" d="m235.547 241.35 31.305 4.341 25.235 51.124-19.907 26.155-6.021-.586-38.286-39.777zM4.685 0 45.93 51.348 0 79.204V0zM0 109.04l54.224 3.925 8.59 54.912L0 133.338zM0 382v-62.562l40.863-2.649 26.18 43.65L59.912 382zM105.539 107.461 78.694 94.416l-7.14-27.636 17.11-16.59 37.883 19.345z"/><path fill="#bb1b79" stroke="#bb1b79" d="m71.292 261.115-.127 21.007-20.1 29.025-10.202 5.642L0 319.438v-33.212l67.84-38.541z"/><path fill="#d59ab2" stroke="#d59ab2" d="m288.648 78.125-49.626-43.737 3.563-5.823 67.742-3.779 3.617 51.152-2.142 1.48zM213.792 138.816l-31.696-52.852 33.905-26.647 27.226 45.614-2.705 29.478-3.649 3.956zM259.359 382l25.072-39.94 14.77 39.94zM200.007 382l19.531-32.55 11.007 3.55 15.597 29z"/><path fill="#bb1b79" stroke="#bb1b79" d="M362.045 160.83 382 157.612v33.534l-31.727-16.49zM216.001 59.317l3.471-12.72 19.55-12.21 49.626 43.738-.527.43-44.894 26.376zM149.872 259.787l43.003 54.895-24.633 15.533-29.264-2.35-13.54-12.835 4.23-25.64 2.658-7.44zM93.429 332.3l-2.763 12.653-23.624 15.485-26.18-43.649 10.202-5.642z"/><path fill="#d59ab2" stroke="#d59ab2" d="m292.9 209.113 24.024-30.747 10.075 5.03-31.033 54.977-4.744-.384z"/><path fill="#bb1b79" stroke="#bb1b79" d="m283.528 136.029 22.385-8.17 10.076 7.926.8 42.452-12.263-2.17z"/></svg></g></svg>