<svg xmlns="http://www.w3.org/2000/svg" viewBox="0 0 382 382"><defs><clipPath id="a"><path d="M382 382H0V0h382z"/></clipPath></defs><g clip-path="url(#a)"><svg xmlns="http://www.w3.org/2000/svg" width="382" height="382" style="shape-rendering:geometricPrecision"><path fill="#da589d" stroke="#da589d" d="m123.104 267.139-1.007 1.068-9.314-1.25-10.182-3.228-49.32-22.825-18.024-13.985 23.847-39.91 45.608-36.996 30.006-3.153 16.74 33.325-19.45 68.21z"/><path fill="#94d210" stroke="#94d210" d="M43.446 135.505 0 155.761V80.226l33.898-1.47z"/><path fill="#da589d" stroke="#da589d" d="m322.7 144.875-70.047 19.434 40.782-45.48 28.602 8.86z"/><path fill="#94d210" stroke="#94d210" d="m322.7 144.875-.663-17.187 6.043-2.895 32.085 24.076-25.772 54.298-6.018 1.02zM240.077 75.883l-14.323-13.786 23.888-59.829 64.455 50.034 1.268 6.721-28.945 26.693zM0 382v-57.96l9.377-5.022 25.94 4.413 32.358 34.146L62.784 382z"/><path fill="#da589d" stroke="#da589d" d="m307.57 314.881 34.733 26.943L328.715 382H268.11l-10.898-41.452zM256.569 247.812l14.095-37.408 44.492.954 20.668 67.16.695 6.15-11.45 8.092-69.627-34.782zM202.863 0l-25.385 20.483-33.569-3.387L142.105 0z"/><path fill="#94d210" stroke="#94d210" d="m172.515 382 4.54-37.262 76.6-7.964 3.557 3.774L268.11 382z"/><path fill="#da589d" stroke="#da589d" d="m270.664 210.404-23.089-26.592 4.401-18.78.677-.723 70.046-19.434 5.676 59.312-13.22 7.17zM133.979 306.911l-10.08-19.133-1.802-19.57 1.007-1.07 120.652 28.9 9.899 40.736-76.6 7.964zM0 193.497l44.782-22.219 14.322 15.731-23.847 39.91L0 217.469z"/><path fill="#94d210" stroke="#94d210" d="m142.105 0 1.804 17.096-23.383 56.124-19.149-7.375L78.897 0z"/><path fill="#da589d" stroke="#da589d" d="m102.601 263.729-86.316 39.934.845-13.015 36.15-49.744z"/><path fill="#94d210" stroke="#94d210" d="m112.783 266.957-77.467 56.474-25.939-4.413 6.908-15.355 86.316-39.934zM53.28 240.904l-36.15 49.744L0 264.478v-47.01l35.257 9.45zM219.207 63.589l-41.73-43.106L202.864 0h46.643l.136 2.268-23.888 59.829z"/><path fill="#da589d" stroke="#da589d" d="m239.939 129.787-83.98-30.625 63.248-35.573 6.547-1.492 14.323 13.786zM78.897 0l22.48 65.845-52.173.585L26.867 0z"/><path fill="#94d210" stroke="#94d210" d="m26.867 0 22.337 66.43-15.306 12.327L0 80.226V0zM123.9 287.778l-56.225 69.8-32.359-34.147 77.467-56.474 9.314 1.25zM0 264.478l17.13 26.17-.845 13.015-6.908 15.355L0 324.04z"/><path fill="#da589d" stroke="#da589d" d="m247.575 183.812-96.117-3.627-16.74-33.325 5.668-41.78 15.573-5.918 83.98 30.625 12.037 35.245zM307.57 314.881l17.499-22.121 11.45-8.092L382 307.8v9.13l-39.697 24.895z"/><path fill="#94d210" stroke="#94d210" d="m382 307.8-45.48-23.132-.696-6.15L382 245.146zM293.435 118.829l-7.015-33.113 28.945-26.693 49.874 25.286-37.16 40.484-6.042 2.895zM382 382h-53.285l13.588-40.176L382 316.928z"/><path fill="#da589d" stroke="#da589d" d="m62.784 382 4.89-24.423 56.226-69.8 10.079 19.134L121.289 382z"/><path fill="#94d210" stroke="#94d210" d="m256.569 247.812-1.127 10.166-11.686 38.06-120.652-28.9 8.904-18.744zM251.976 165.032l-12.037-35.245.138-53.904 46.343 9.833 7.015 33.113-40.782 45.48z"/><path fill="#94d210" stroke="#94d210" d="m255.442 257.978 69.627 34.782-17.499 22.121-50.358 25.667-3.557-3.774-9.899-40.736zM382 245.146l-46.176 33.372-20.668-67.16 13.219-7.171 6.018-1.02L382 209.96zM340.545 0l-26.448 52.302-64.455-50.034L249.506 0z"/><path fill="#da589d" stroke="#da589d" d="M382 0v83.714l-16.76.595-49.875-25.286-1.268-6.721L340.545 0z"/><path fill="#94d210" stroke="#94d210" d="M44.782 171.278 0 193.497V155.76l43.446-20.256 1.586.743z"/><path fill="#da589d" stroke="#da589d" d="m121.289 382 12.69-75.089 43.075 37.827L172.515 382z"/><path fill="#94d210" stroke="#94d210" d="M104.712 150.013 59.104 187.01l-14.322-15.731.25-35.03zM382 209.959l-47.607-6.792 25.772-54.298L382 135.242z"/><path fill="#94d210" stroke="#94d210" d="m382 135.242-21.835 13.627-32.085-24.076 37.16-40.484 16.76-.595z"/><path fill="#da589d" stroke="#da589d" d="m155.959 99.162-15.573 5.918-19.86-31.86 23.383-56.124 33.569 3.387 41.73 43.106z"/><path fill="#94d210" stroke="#94d210" d="m256.569 247.812-124.561.582 19.45-68.21 96.117 3.628 23.09 26.592z"/><path fill="#da589d" stroke="#da589d" d="m104.712 150.013-59.68-13.765-1.586-.743-9.548-56.748L49.204 66.43l52.173-.585 19.149 7.375 19.86 31.86-5.668 41.78z"/></svg></g></svg>