<svg xmlns="http://www.w3.org/2000/svg" viewBox="0 0 382 382"><defs><clipPath id="a"><path d="M382 382H0V0h382z"/></clipPath></defs><g clip-path="url(#a)"><svg xmlns="http://www.w3.org/2000/svg" width="382" height="382" style="shape-rendering:geometricPrecision"><path fill="#9f2bdc" stroke="#9f2bdc" d="m254.146 278.897 13.948 8.93 8.561 13.807-13.163 39.407-36.683 2.426-1.775-5.518zM225.675 120.71l4.486-6.05 76.295-5.731 5.606 28.361-27.533 30.793-57.129-42.14z"/><path fill="#8bdab0" stroke="#8bdab0" d="m276.655 301.634 27.649 6.484 4.433 23.507-17.097 43.258-28.148-33.842zM256.872 0l-17.926 41.047-25.51-3.544-24.203-31.356L190.27 0z"/><path fill="#9f2bdc" stroke="#9f2bdc" d="m230.161 114.66 16-27.7 64.902-12.003-4.607 33.972zM286.274 191.218l3.018-5.888 39.239 8.889 9.709 8.28 24.439 58.891-12.794 4.782-28.505-8.388-31.923-37.592z"/><path fill="#8bdab0" stroke="#8bdab0" d="m382 132.036-5.97 1.706-29.53-2.143-31.777-60.032 16.998-22.539L374.23 0H382z"/><path fill="#9f2bdc" stroke="#9f2bdc" d="m246.16 86.96-1.528-29.343 8.903-2.816 78.186-5.773-16.998 22.539-3.66 3.39z"/><path fill="#9f2bdc" stroke="#9f2bdc" d="m190.837 101.018-17.246-30.003 39.846-33.512 25.509 3.544 5.686 16.57 1.528 29.342-15.999 27.701-4.486 6.05-19.277-7.707zM133.701 224.461l-4.902-6.93 40.667-18.038 11.396 6.098-18.592 25.912zM382 382h-87.98l-2.38-7.117 17.097-43.258 37.615 8.329L382 377.7zM159.05 345.04l50.024-28.538 15.96 21.447 1.775 5.518-5.04 7.964-60.034 13.369zM53.865 269.486 79.41 300.74l6.972 19.672-2.254 2.263-38.815 14.866-17.997-5.64 4.046-59.381zM89.251 144.131l-12.873 25.165L0 172.883v-64.607l24.216-3.927 40.956 4.913 25.813 26.16z"/><path fill="#8bdab0" stroke="#8bdab0" d="m328.53 194.219 47.5-60.477 5.97-1.706v39.693l-18.971 22.693-24.789 8.077z"/><path fill="#9f2bdc" stroke="#9f2bdc" d="m133.701 224.461 28.569 7.042 11.703 23.51-38.95 30.338-5.547-8.99z"/><path fill="#8bdab0" stroke="#8bdab0" d="m164.061 64.064-6.397-23.304 10.549-13.105 21.02-21.508 24.204 31.356-39.846 33.512zM112.407 155.61l33.304 28.442-23.576 27.848-34.835-8.31-10.922-34.294 12.873-25.165z"/><path fill="#8bdab0" stroke="#8bdab0" d="m154.335 0 13.878 27.655-10.549 13.105-38.773-24.283L115.74 0zM297.298 266.436l24.082-8.652 28.505 8.388-21.735 30.876-23.846 11.07-27.649-6.484-8.561-13.808z"/><path fill="#9f2bdc" stroke="#9f2bdc" d="m188.052 298.725 18.126 7.334 2.896 10.443-50.023 28.538-12.132-34.51zM180.862 205.59l23.264-3.708 18.207 22.994-1.268 20.485-28.955 11.334-18.137-1.683-11.703-23.51z"/><path fill="#8bdab0" stroke="#8bdab0" d="m190.27 0-1.037 6.147-21.02 21.508L154.335 0zM297.298 266.436l-17.42-27.859 9.579-18.385 31.923 37.592zM306.456 108.929l4.607-33.972 3.66-3.39 31.776 60.032-34.437 5.691zM0 240.875l31.362 31.644-4.046 59.381L0 339.506zM159.625 168.653l46.702-.728-2.2 33.957-23.265 3.709-11.396-6.098-14.59-18.947z"/><path fill="#9f2bdc" stroke="#9f2bdc" d="m158.259 147.788-37.87-22.733 70.448-24.037 15.561 11.985z"/><path fill="#8bdab0" stroke="#8bdab0" d="m146.919 310.53 12.132 34.51 2.684 19.76-7.244 17.2h-3.024l-61.813-62.51 45.28-19.756zM0 51.72l14.62 16.185L0 92.629z"/><path fill="#9f2bdc" stroke="#9f2bdc" d="m222.333 224.876 63.94-33.658 3.184 28.974-9.578 18.385-31.177 34.476-8.087-3.672-19.55-24.02z"/><path fill="#8bdab0" stroke="#8bdab0" d="m173.973 255.012 18.137 1.683-4.058 42.03-41.133 11.804-11.986-10.795.09-14.383zM0 239.521l81.056-22.003.975 26.419-28.166 25.55-22.503 3.032L0 240.875z"/><path fill="#9f2bdc" stroke="#9f2bdc" d="m115.741 0 3.15 16.477-23.382 33.16-2.355.303-50.14-14.805L26.242 0z"/><path fill="#8bdab0" stroke="#8bdab0" d="m248.702 273.053 31.177-34.476 17.42 27.86-29.205 21.39-13.948-8.93z"/><path fill="#9f2bdc" stroke="#9f2bdc" d="m120.39 125.055-14.306-.63 13.184-41.761 44.793-18.6 9.53 6.951 17.246 30.003z"/><path fill="#8bdab0" stroke="#8bdab0" d="m308.737 331.625-4.433-23.507 23.846-11.07 18.202 42.906zM91.575 254.696 79.41 300.739l-25.545-31.253 28.166-25.55zM365.096 0 253.535 54.801l-8.903 2.816-5.686-16.57L256.872 0z"/><path fill="#9f2bdc" stroke="#9f2bdc" d="M89.654 319.49 151.467 382h-43.739l-23.6-59.326 2.254-2.263zM382 377.7l-35.648-37.746-18.202-42.906 21.735-30.876 12.794-4.782L382 264.786zM382 205.089l-18.971-10.667L382 171.73zM0 0h26.243l16.77 35.135-.59 3.22-27.803 29.55L0 51.719zM154.876 180.546l14.59 18.947-40.667 18.039-6.664-5.632 23.576-27.848zM157.966 164.685l-45.56-9.076-23.155-11.478 1.734-8.71 15.099-10.995 14.306.629 37.869 22.733z"/><path fill="#8bdab0" stroke="#8bdab0" d="m106.084 124.426-15.099 10.996-25.813-26.16.27-13.814L93.154 49.94l2.355-.304 23.759 33.028zM84.128 322.674l23.6 59.326h-48.71l-13.705-44.46zM44.115 49.846l-19.9 54.503L0 108.276V92.629l14.62-24.724 27.802-29.55z"/><path fill="#9f2bdc" stroke="#9f2bdc" d="m135.023 285.351-.09 14.383-45.28 19.756-3.27.921-6.973-19.672 12.165-46.043 37.9 21.665zM154.491 382l7.244-17.2 60.034-13.37 8.259 30.57z"/><path fill="#8bdab0" stroke="#8bdab0" d="m159.625 168.653-4.75 11.893-9.164 3.506-33.304-28.443 45.56 9.076zM133.701 224.461l-4.225 51.9-37.901-21.665-9.544-10.76-.975-26.418L87.3 203.59l34.835 8.31 6.664 5.632z"/><path fill="#9f2bdc" stroke="#9f2bdc" d="m87.3 203.59-6.244 13.928L0 239.521v-66.638l76.378-3.587zM65.172 109.262l-40.956-4.913 19.9-54.503 21.326 45.602z"/><path fill="#8bdab0" stroke="#8bdab0" d="m206.327 167.925 21.073-41.982 57.129 42.14 4.763 17.247-3.018 5.888-63.94 33.658-18.208-22.994z"/><path fill="#9f2bdc" stroke="#9f2bdc" d="m248.702 273.053 5.444 5.844-29.112 59.052-15.96-21.447-2.896-10.443 34.437-36.678z"/><path fill="#8bdab0" stroke="#8bdab0" d="m284.529 168.083 27.533-30.793 34.437-5.69 29.531 2.142-47.5 60.477-39.238-8.89zM0 382v-42.494l27.316-7.606 17.997 5.64L59.019 382z"/><path fill="#9f2bdc" stroke="#9f2bdc" d="m230.028 382-8.26-30.57 5.041-7.963 36.683-2.426 28.148 33.842 2.38 7.117z"/><path fill="#8bdab0" stroke="#8bdab0" d="m338.24 202.499 24.789-8.077L382 205.09v59.697l-19.321-3.396z"/><path fill="#9f2bdc" stroke="#9f2bdc" d="m164.061 64.064-44.793 18.6-23.759-33.028 23.382-33.159 38.773 24.283zM93.154 49.94 65.442 95.448 44.115 49.846l-1.693-11.49.591-3.221zM374.23 0l-42.51 49.028-78.185 5.773L365.096 0zM159.625 168.653l-1.659-3.968.293-16.897 48.139-34.785 19.277 7.707 1.725 5.233-21.073 41.982z"/><path fill="#8bdab0" stroke="#8bdab0" d="m221.065 245.36 19.55 24.02-34.437 36.68-18.126-7.335 4.058-42.03z"/></svg></g></svg>