<svg xmlns="http://www.w3.org/2000/svg" viewBox="0 0 382 382"><defs><clipPath id="a"><path d="M382 382H0V0h382z"/></clipPath></defs><g clip-path="url(#a)"><svg xmlns="http://www.w3.org/2000/svg" width="382" height="382" style="shape-rendering:geometricPrecision"><path fill="#88405d" stroke="#88405d" d="m246.596 200.735 21.267-10.93 3.244 22.548-29.2 45.379-37.639-10.642-2.73-4.21zM84.037 217.516l-35.913 74.91-23.174-16.2-2.993-16.363 30.345-48.593z"/><path fill="#793c0a" stroke="#793c0a" d="M346.636 182.46 382 175.621V238l-38.698 7.755-3.618-1.907-12.088-33.398zM382 59.473l-61.742 25.949 23.757-51.908L382 37.59zM85.13 217.115l30.98 78.185-56.553 24.76-2.917-1.648-8.516-25.987 35.913-74.909z"/><path fill="#88405d" stroke="#88405d" d="m160.294 160.446-5.212 47.424-63.581 4.394-13.484-69.52 6.259-3.86 36.774-10.07 1.89.147z"/><path fill="#793c0a" stroke="#793c0a" d="m53.915 382 6.852-59.398 18.775 16.413L82.67 382zM204.268 247.09l37.64 10.642 28.738 21.77 3.122 10.95-12.682 24.678-23.126.774-38.927-47.145zM382 104.815l-25.526 4.626-37.096-23.336.88-.683L382 59.473zM272.596 178.884l13.209-3.536 3.714 1.968 18.819 25.421-12.702 33.691-24.53-24.075-3.243-22.549z"/><path fill="#88405d" stroke="#88405d" d="m216.774 184.776 29.822 15.96-45.058 42.144-27.172-22.228z"/><path fill="#793c0a" stroke="#793c0a" d="m199.033 268.759 38.927 47.145-52.563 17.917-12.185-7.032z"/><path fill="#88405d" stroke="#88405d" d="m174.366 220.652 27.172 22.228 2.73 4.21-5.235 21.669-25.821 58.03-2.145.287-5.945-.334-36.812-30.923 34.388-80.238zM88.45 70.096l-4.174 68.787-6.26 3.86-1.788-.582-22.744-29.003 26.63-48.714zM134.304 66.365l-42.79 4.698-3.063-.967-8.336-5.652-2.454-3.792 7.473-35.053 55.355 1.123 1.708 28.438zM247.795 43.587 247.624 0h60.454l35.937 33.514-23.757 51.908-.88.683-10.609 1.769zM0 236.992l8.663.757 13.294 22.114 2.993 16.363-24.95.432z"/><path fill="#793c0a" stroke="#793c0a" d="m221.411 176.725-40.62-34.617 30.734-37.365 2.321-1.5 23.125 30.154 10.34 24.234z"/><path fill="#793c0a" stroke="#793c0a" d="m211.525 104.743-30.733 37.365-20.498 18.338-37.354-31.485 13.595-27.22 5.97-8.897zM287.318 172.111l41.165-20.573 2.886 24.697-41.85 1.081-3.714-1.968z"/><path fill="#88405d" stroke="#88405d" d="m128.31 295.82 36.812 30.922-6.195 5.632-70.162 12.61-9.223-5.97-18.775-16.412-1.21-2.542 56.553-24.76zM136.535 101.741l-38.22-19.913-6.801-10.765 42.79-4.698 8.201 26.48z"/><path fill="#793c0a" stroke="#793c0a" d="m224.36 75.21-82.163-20.05-1.708-28.438L159.419 0h88.205l.171 43.587z"/><path fill="#88405d" stroke="#88405d" d="m271.107 212.353 24.53 24.075 3.463 9.069-28.454 34.005-28.739-21.77z"/><path fill="#88405d" stroke="#88405d" d="m295.636 236.428 12.702-33.69 19.258 7.712 12.088 33.398-40.584 1.649zM382 171.674l-27.094-27.738 1.568-34.495L382 104.815z"/><path fill="#793c0a" stroke="#793c0a" d="m306.63 117.505 2.14-29.631 10.608-1.769 37.096 23.336-1.568 34.495-22.12-2.918zM85.13 217.115l-1.093.401-31.735-6.246-16.258-6.782-33.991-35.28 74.175-27.047 1.789.582 13.484 69.52zM340.37 382l4.378-19.785 16.975-4.067 3.453 13.634-.008 10.218z"/><path fill="#793c0a" stroke="#793c0a" d="m236.971 133.397-23.125-30.153L224.36 75.21l23.435-31.623 60.974 44.287-2.138 29.63-5.179 7.596zM77.661 60.652l-45.89-.089-7.615-34.178L78.305 8.302l6.83 17.297z"/><path fill="#88405d" stroke="#88405d" d="m219.124 382-33.727-48.179 52.563-17.917 23.126-.774 1.238 8.569L227.806 382z"/><path fill="#793c0a" stroke="#793c0a" d="M343.302 245.755 382 238v47.435l-22.479 9.831-7.97-1.528-16.888-7.858z"/><path fill="#88405d" stroke="#88405d" d="m122.94 128.961-1.89-.147-22.735-46.986 38.22 19.913zM227.806 382l34.518-58.301 15.4 16.761L261.569 382z"/><path fill="#793c0a" stroke="#793c0a" d="M53.484 113.158 0 100.395V91.7l31.771-31.137 45.89.089 2.454 3.792zM82.67 382l-3.128-42.985 9.223 5.97L120.637 382z"/><path fill="#88405d" stroke="#88405d" d="m211.525 104.743-69.02-11.899-8.2-26.479 7.892-11.205 82.163 20.05-10.514 28.034z"/><path fill="#793c0a" stroke="#793c0a" d="M0 382v-39.216l56.64-24.372 2.917 1.648 1.21 2.542L53.915 382zM334.663 285.88l16.887 7.858-1.278 19.443-8.033 15.251-25.162-28.316z"/><path fill="#88405d" stroke="#88405d" d="m221.411 176.725-4.637 8.051-42.408 35.876-11.668-5.07-7.616-7.712 5.212-47.424 20.498-18.338zM359.521 295.266 382 285.435v47.68l-5.355.31-12.627-22.69z"/><path fill="#793c0a" stroke="#793c0a" d="m164.536 382 6.531-54.924 2.145-.287 12.185 7.032L219.124 382z"/><path fill="#88405d" stroke="#88405d" d="M162.698 215.581 128.31 295.82l-12.2-.519-30.98-78.185 6.37-4.851 63.582-4.394z"/><path fill="#793c0a" stroke="#793c0a" d="m308.922 355.102 22.938-8.632 12.888 15.745L340.371 382h-35.374l.483-23.137zM382 175.622l-35.364 6.837-15.267-6.224-2.886-24.697 4.303-10.52 22.12 2.918L382 171.674z"/><path fill="#88405d" stroke="#88405d" d="M171.067 327.076 164.536 382H122.46l36.466-49.626 6.195-5.632zM365.168 382l.008-10.218 16.824-10V382zM0 0h78.265l.04 8.302-54.149 18.083L0 1.625z"/><path fill="#793c0a" stroke="#793c0a" d="m344.477 332.945 23.588 4.038-6.342 21.165-16.975 4.067-12.888-15.745zM272.596 178.884l-25.284-21.253-10.34-24.234 64.48-8.297-14.134 47.011-1.513 3.237zM221.411 176.725l25.9-19.094 25.285 21.253-4.733 10.92-21.267 10.931-29.822-15.959z"/><path fill="#793c0a" stroke="#793c0a" d="m301.452 125.1 5.179-7.595 26.155 23.513-4.303 10.52-41.165 20.573zM350.272 313.181l1.278-19.443 7.971 1.528 4.497 15.47z"/><path fill="#88405d" stroke="#88405d" d="m36.044 204.488-27.38 33.26L0 236.993V168.4l2.053.806z"/><path fill="#88405d" stroke="#88405d" d="m0 100.395 53.484 12.763 22.744 29.003-74.175 27.046L0 168.401zM299.1 245.497l40.584-1.649 3.618 1.907-8.64 40.125-17.585 14.236-5.266.813-38.043-10.477-3.122-10.95zM0 1.624l24.156 24.76 7.615 34.18L0 91.7zM159.418 0l-18.93 26.722-55.354-1.123-6.829-17.297L78.265 0zM273.768 290.452l38.043 10.477-2.89 54.173-3.441 3.76-27.755-18.402-15.401-16.761-1.238-8.57z"/><path fill="#793c0a" stroke="#793c0a" d="m261.568 382 16.157-41.54 27.755 18.403-.483 23.137z"/><path fill="#88405d" stroke="#88405d" d="m0 276.658 24.95-.432 23.174 16.2 8.516 25.986L0 342.784zM98.315 81.828l22.735 46.986-36.774 10.07 4.175-68.788 3.063.967z"/><path fill="#793c0a" stroke="#793c0a" d="m376.645 333.424 5.355-.308v28.666l-16.824 10-3.453-13.634 6.342-21.165z"/><path fill="#88405d" stroke="#88405d" d="m350.272 313.181 13.746-2.446 12.627 22.69-8.58 3.558-23.588-4.038-2.238-4.513zM120.637 382l-31.872-37.015 70.162-12.611L122.46 382z"/><path fill="#793c0a" stroke="#793c0a" d="m52.302 211.27-30.345 48.593-13.294-22.114 27.38-33.261zM317.077 300.116l25.162 28.316 2.238 4.513-12.617 13.525-22.938 8.632 2.89-54.173z"/><path fill="#88405d" stroke="#88405d" d="m382 37.59-37.985-4.076L308.078 0H382z"/><path fill="#793c0a" stroke="#793c0a" d="m289.519 177.316 41.85-1.081 15.267 6.224-19.04 27.99-19.258-7.712z"/></svg></g></svg>