<svg xmlns="http://www.w3.org/2000/svg" viewBox="0 0 382 382"><defs><clipPath id="a"><path d="M382 382H0V0h382z"/></clipPath></defs><g clip-path="url(#a)"><svg xmlns="http://www.w3.org/2000/svg" width="382" height="382" style="shape-rendering:geometricPrecision"><path fill="#0a1439" stroke="#0a1439" d="m244.269 299.054 19.826 6.798-3.107 6.126-57.525 55.639-13.304-28.461 25.4-36.454z"/><path fill="#0a1439" stroke="#0a1439" d="m186.617 266.51 18.9-21.186 38.752 53.73-28.71 3.648z"/><path fill="#23a98c" stroke="#23a98c" d="m6.726 382 45.914-53.788 30.835 10.352-1.481 5.634L53.943 382z"/><path fill="#0a1439" stroke="#0a1439" d="m306.489 136.028-10.835-59.623 18.509-42.021 4.013 4.536 3.594 107.423-7.309 2.345zM139.76 293.01l-11.162 59.34-5.65 6.87-32.24-21.154z"/><path fill="#23a98c" stroke="#23a98c" d="m186.617 266.51 28.942 36.192-25.4 36.454-16.404-14.662-20.553-40.606zM0 0h32.744l3.633 12.183L26.07 32.45 13.58 47.925 0 40.532zM215.588 222.488l-34.875-39.391 17.623-37.704 24.035-20.032 18.147 13.037 16.141 67.152-10.316 15.956z"/><path fill="#0a1439" stroke="#0a1439" d="M132.804 51.01 92.847 67.886 82.583 55.164 93.938 0h48.341l3.295 35.807-.391 3.794zM203.611 382l-.148-14.383 57.525-55.64 6.381 52.2L244.214 382z"/><path fill="#23a98c" stroke="#23a98c" d="m166.6 88.703-22.176-10.907-11.62-26.786 12.379-11.409 45.934 29.59zM244.269 299.054l-38.753-53.73 10.072-22.836 30.755-.982 39.044 36.256-11.33 41.292-2.715 3.145-7.247 3.653zM190.159 339.156l13.304 28.46.148 14.384h-71.934l-8.729-22.78 5.65-6.87 45.157-27.856z"/><path fill="#0a1439" stroke="#0a1439" d="m314.987 0-3.973 26.455-88.842 36.964-12.056-43.557L209.058 0z"/><path fill="#23a98c" stroke="#23a98c" d="m164.063 93.652-27.175 6.46 7.536-22.316L166.6 88.703zM306.568 156.423l7.893-7.735 7.309-2.345 10.947-.992 4.28 4.292 15.257 62.185-34.278-7.813-15.254-34.777zM63.118 48.962 35.143 63.057 26.07 32.45l10.307-20.267z"/><path fill="#23a98c" stroke="#23a98c" d="M198.336 145.393 166.756 120l-2.693-26.348 2.537-4.949 24.517-19.512 27.133 1.445 8.236 35.405-4.115 19.32z"/><path fill="#0a1439" stroke="#0a1439" d="m334.275 340.398 19.888-54.256L382 305.778v8.738L335.662 345zM120.91 112.996 92.26 75.538l.587-7.652 39.957-16.876 11.62 26.786-7.536 22.317z"/><path fill="#23a98c" stroke="#23a98c" d="m246.343 221.506 10.316-15.956 46.063-36.312 15.254 34.777-18.159 49.415-14.43 4.332z"/><path fill="#0a1439" stroke="#0a1439" d="M382 0v36.542l-22.774 35.175-41.05-32.797-4.013-4.536-3.149-7.93L314.987 0z"/><path fill="#23a98c" stroke="#23a98c" d="m306.568 156.423-66.05-18.025-18.147-13.037 4.115-19.32 43.443-3.493 36.56 33.48 7.972 12.66z"/><path fill="#0a1439" stroke="#0a1439" d="m110.404 168.72-12.771-1.21-33.56-65.111 28.187-26.86 28.65 37.457 1.392 6.741z"/><path fill="#23a98c" stroke="#23a98c" d="m35.143 63.057-12.28 8.465-9.283-23.597L26.07 32.45zM139.76 293.01l-49.052 45.056-3.303-.461 6.844-71.368 23.522-9.956 29.392 26.098zM321.77 146.343 318.176 38.92l41.05 32.797L382 91.219v9.43l-49.283 44.702z"/><path fill="#0a1439" stroke="#0a1439" d="m153.202 283.888 20.553 40.606-45.157 27.855 11.162-59.34 7.403-10.63zM186.617 266.51l-33.415 17.378-6.039-1.51-29.392-26.097 1.01-18.969 13.434-48.629 48.498-5.586 34.875 39.391-10.072 22.836z"/><path fill="#23a98c" stroke="#23a98c" d="M332.717 145.35 382 100.649v79.54l-45.004-30.545z"/><path fill="#0a1439" stroke="#0a1439" d="m209.058 0 1.058 19.862-64.542 15.945L142.28 0zM0 40.532l13.58 7.393 9.283 23.597-21.735 47.046-1.128.898z"/><path fill="#23a98c" stroke="#23a98c" d="M93.938 0 82.583 55.164l-19.465-6.202-26.74-36.779L32.743 0z"/><path fill="#0a1439" stroke="#0a1439" d="m256.66 205.55-16.142-67.152 66.05 18.025-3.846 12.815z"/><path fill="#23a98c" stroke="#23a98c" d="m285.387 257.762 14.43-4.332 43.793 8.365 6.077 19.398-32.004 30.667-43.626-12.806z"/><path fill="#0a1439" stroke="#0a1439" d="m382 91.22-22.774-19.503L382 36.542zM306.489 136.028l-36.56-33.48 25.725-26.143zM317.683 311.86l32.004-30.667 4.476 4.949-19.888 54.256z"/><path fill="#23a98c" stroke="#23a98c" d="m0 165.966 59.254 9.402 5.814 43.666-30.331 50.307-8.047 2.637L0 264.248zM264.095 305.852l7.247-3.653 37.797 62.91-41.77-.932-6.38-52.2zM64.072 102.399 1.128 118.568l21.735-47.046 12.28-8.465 27.975-14.095 19.465 6.202 10.264 12.722-.587 7.652z"/><path fill="#0a1439" stroke="#0a1439" d="m132.215 188.683-21.811-19.962 11.898-48.984 44.454.263 31.58 25.393-17.623 37.704zM0 382V264.249l26.69 7.729 25.95 56.234L6.726 382z"/><path fill="#23a98c" stroke="#23a98c" d="M382 382h-51.07l-2.465-5.737L335.662 345 382 314.516zM90.708 338.066l32.24 21.154 8.73 22.78H82.822l-.83-37.802 1.482-5.634 3.93-.959zM191.117 69.19l-45.934-29.589.391-3.794 64.542-15.945 12.056 43.557-3.922 7.217z"/><path fill="#23a98c" stroke="#23a98c" d="m94.249 266.237-6.844 71.368-3.93.96-30.835-10.353-25.95-56.234 8.047-2.637zM382 305.778l-27.837-19.636-4.476-4.949-6.077-19.398 33.253-34.73 5.137-1.63zM59.254 175.368 0 165.966v-46.5l1.128-.898 62.944-16.17 33.56 65.111z"/><path fill="#0a1439" stroke="#0a1439" d="m166.756 120-44.454-.263-1.392-6.741 15.978-12.883 27.175-6.461z"/><path fill="#23a98c" stroke="#23a98c" d="m226.486 106.041-8.236-35.405 3.922-7.217 88.842-36.964 3.149 7.929-18.509 42.02-25.725 26.144zM274.057 299.054l43.626 12.806 16.592 28.538 1.387 4.602-7.197 31.263-19.326-11.154-37.797-62.91zM94.249 266.237l-59.512 3.104 30.331-50.307 53.713 18.278-1.01 18.969zM244.214 382l23.155-17.823 41.77.932 19.326 11.154L330.93 382z"/><path fill="#0a1439" stroke="#0a1439" d="m352.254 211.828-15.258-62.185L382 180.189v45.247l-5.137 1.628z"/><path fill="#23a98c" stroke="#23a98c" d="m299.817 253.43 18.16-49.415 34.277 7.813 24.61 15.236-33.254 34.73z"/><path fill="#0a1439" stroke="#0a1439" d="m53.943 382 28.05-37.802.83 37.802z"/><path fill="#23a98c" stroke="#23a98c" d="m118.781 237.312-53.713-18.278-5.814-43.666 38.379-7.859 12.771 1.212 21.81 19.962z"/></svg></g></svg>