<svg xmlns="http://www.w3.org/2000/svg" viewBox="0 0 382 382"><defs><clipPath id="a"><path d="M382 382H0V0h382z"/></clipPath></defs><g clip-path="url(#a)"><svg xmlns="http://www.w3.org/2000/svg" width="382" height="382" style="shape-rendering:geometricPrecision"><path fill="#601d30" stroke="#601d30" d="m205.192 255.251 29.948 25.904L248.964 382h-93.28l7.17-107.948zM249.382 284.156l96.755-64.912 16.64 9.408L290 298.924z"/><path fill="#1b28c7" stroke="#1b28c7" d="m325.838 382 14.503-41.258L382 315.916V382z"/><path fill="#601d30" stroke="#601d30" d="m0 297.201 46.389-20.96 15.511 9.29-2.908 49.23L0 366.85zM295.574 382l-5.093-81.942 44.888 16.85 4.972 23.834L325.838 382z"/><path fill="#1b28c7" stroke="#1b28c7" d="m249.382 284.156 40.619 14.768.48 1.134L295.574 382h-46.61L235.14 281.155z"/><path fill="#601d30" stroke="#601d30" d="m149.09 161.994 53.644 62.817 7.888 18.59-5.43 11.85-42.338 18.801-1.862-.761-43.55-57.457-.527-31.574zM228.252 229.204l78.458-36.958 39.427 26.998-96.755 64.912-14.242-3.001-29.948-25.904 5.43-11.85zM117.442 215.834l43.55 57.457-23.377 4.432-53.996-1.906-15.284-50.614zM362.777 228.652l8.605 1.787-36.013 86.47-44.888-16.851-.48-1.134z"/><path fill="#1b28c7" stroke="#1b28c7" d="M0 382v-15.149l58.992-32.09 9.965 1.84L143.888 382z"/><path fill="#601d30" stroke="#601d30" d="m293.823 132.369 58.969-15.575L382 129.948V230.51l-10.618-.071-8.605-1.787-16.64-9.408-39.427-26.998z"/><path fill="#1b28c7" stroke="#1b28c7" d="m382 129.948-29.208-13.154 12.59-45.737L382 60.642zM155.737 105.994l-15.708 20.085-72.622-22.827-.133-4.937L95.652 77.01l41.757-7.5z"/><path fill="#601d30" stroke="#601d30" d="m0 16.477 67.274 81.838.133 4.937-12.043 34.556-29.049 23.802L0 162.683z"/><path fill="#1b28c7" stroke="#1b28c7" d="m55.364 137.808 61.551 46.452.527 31.574-49.107 9.369-22.56-5.991-19.46-57.602zM149.09 161.994l-32.175 22.266-61.55-46.452 12.042-34.556 72.622 22.827 11.418 30.907zM207.563 0l-70.154 69.51-41.757 7.501L112.174 0z"/><path fill="#1b28c7" stroke="#1b28c7" d="m234.917 99.211-79.18 6.783-18.328-36.484L207.563 0h26.057l19.314 60.833-.616 22.558z"/><path fill="#601d30" stroke="#601d30" d="M162.854 274.052 155.684 382h-11.796l-74.93-45.399 68.657-58.878 23.377-4.432z"/><path fill="#1b28c7" stroke="#1b28c7" d="m83.619 275.817 53.996 1.906-68.658 58.878-9.965-1.84 2.908-49.23z"/><path fill="#601d30" stroke="#601d30" d="m228.252 229.204 1.962-122.098 4.703-7.895 17.4-15.82 41.506 48.978 12.887 59.877z"/><path fill="#1b28c7" stroke="#1b28c7" d="m0 162.683 26.315-1.073 19.46 57.602-10.738 19.036L0 248.733zM196.214 143.335l6.52 81.476-53.643-62.817 2.356-5.008z"/><path fill="#601d30" stroke="#601d30" d="m382 60.642-16.618 10.415-89.994-10.784L382 25.02z"/><path fill="#1b28c7" stroke="#1b28c7" d="m196.214 143.335 34-36.23-1.962 122.099-17.63 14.198-7.888-18.591zM0 0h112.174L95.652 77.011 67.274 98.315 0 16.477z"/><path fill="#1b28c7" stroke="#1b28c7" d="m196.214 143.335-44.767 13.65-11.418-30.906 15.708-20.085 79.18-6.783-4.703 7.895zM68.335 225.203l15.284 50.614-21.719 9.715-15.511-9.29-11.352-37.994 10.738-19.036z"/><path fill="#601d30" stroke="#601d30" d="m0 248.733 35.037-10.485 11.352 37.994L0 297.2zM293.823 132.369 252.318 83.39l.616-22.558 22.454-.56 89.994 10.784-12.59 45.737z"/><path fill="#1b28c7" stroke="#1b28c7" d="M382 25.021 275.388 60.273l-22.454.56L233.62 0H382zM335.369 316.908l36.013-86.47 10.618.072v85.406l-41.66 24.826z"/></svg></g></svg>