<svg xmlns="http://www.w3.org/2000/svg" viewBox="0 0 382 382"><defs><clipPath id="a"><path d="M382 382H0V0h382z"/></clipPath></defs><g clip-path="url(#a)"><svg xmlns="http://www.w3.org/2000/svg" width="382" height="382" style="shape-rendering:geometricPrecision"><path fill="#4c7283" stroke="#4c7283" d="m148.247 97.258-7.823-29.364 11.301-27.842 52.696 4.218 5.402 11.028.14 47.785-13.95 13.112z"/><path fill="#9187b9" stroke="#9187b9" d="m315.364 117.977-.945 1.476-58.975-4.641-9.512-6.722 33.416-31.67zM382 243.577l-42.459-7.28 9.86-61.345L382 160.84z"/><path fill="#4c7283" stroke="#4c7283" d="m148.247 97.258-41.353 31.115-15.508 3.305-5.38-9.36 6.934-59.756 47.484 5.332zM209.767 228.5l-2.676-50.1.677-2.07 20.234 3.662 25.55 34.312.014.34-37.812 21.322z"/><path fill="#9187b9" stroke="#9187b9" d="m204.876 171.175-4.643-32.272 56.877 8.926 7.442 16.553-36.55 15.61-20.234-3.662zM0 347.43l54.425 8.9 3.162 2.668.581 23.002H0z"/><path fill="#9187b9" stroke="#9187b9" d="m195.834 124.104.178-7.909 13.952-13.112 21.498.424 14.47 4.583 9.512 6.722 1.666 33.017-56.877-8.926z"/><path fill="#4c7283" stroke="#4c7283" d="m57.44 233.963-4.701.91-52.739-27v-9.543l29.299-23.628 15.412 17.264zM330.463 239.409l9.078-3.112 42.459 7.28v53.895l-65.872 24.526-16.897-18.833z"/><path fill="#4c7283" stroke="#4c7283" d="m288.059 303.71 11.172-.545 16.897 18.833 2.799 6.222-5.623 53.78H257.54l-.61-7.62 25.777-65.652zM0 207.872l52.739 27.001L0 279.04z"/><path fill="#9187b9" stroke="#9187b9" d="m67.057 312.75 7.396 20.511-16.866 25.737-3.162-2.667-46.27-50.542 48.833-5.992z"/><path fill="#4c7283" stroke="#4c7283" d="m270.272 49.755-60.45 5.543-5.401-11.028.24-.71L288.782 22l.093.8-2.542 6.709-12.151 18.464z"/><path fill="#9187b9" stroke="#9187b9" d="m218.165 283.818 56.967 10.689 12.927 9.203-5.35 5.018-57.734 27.159-4.434.015-3.98-47.898zM160.83 217.485l-10.779-10.743 14.36-29.46 40.465-6.107 2.892 5.155-.677 2.07z"/><path fill="#4c7283" stroke="#4c7283" d="m253.551 214.304-25.549-34.312 36.55-15.61 22.507 5.751.896 7.66zM0 17.262 14.038 36.2 19.2 54.932l8.427 36.453L0 108.781zM224.975 335.887l57.733-27.16-25.776 65.653zM287.18 0l1.603 22.001-84.123 21.558L216.58 0zM160.83 217.485l2.814 11.685-12.898 38.291-28.355 5.106-4.606-2.817-23.644-19.518 37.934-49.78 17.976 6.29z"/><path fill="#4c7283" stroke="#4c7283" d="m150.746 267.461 5.624 3.193 18.866 41.54-28.66 7.01-27.928-12.85 3.743-33.787zM111.672 324.202l17.557 29.99L113.576 382H58.168l-.581-23.002 16.866-25.737zM216.579 0 204.66 43.56l-.24.71-52.695-4.218-11.463-27.096L136.022 0z"/><path fill="#9187b9" stroke="#9187b9" d="m92.94 62.562-6.935 59.756L37.756 90.52l25.546-34.639 1.476-1.89 14.024-4.557 13.336 12.2zM126.993 190.674l-32.654-17.2-7.983-31.48 5.03-10.316 15.508-3.305 38.49 28.888.571 6.098z"/><path fill="#4c7283" stroke="#4c7283" d="m217.31 247.611 37.753 5.6 20.069 41.296-56.967-10.689-9.151-16.331zM74.341 243.995l-17.353 55.802-48.832 5.992L0 302.575V279.04l52.739-44.167 4.7-.91 6.002 1.163zM113.576 382l15.653-27.808 26.105-1.467 30.946 3.887L191.206 382z"/><path fill="#9187b9" stroke="#9187b9" d="m145.384 157.261-38.49-28.888 41.353-31.115 47.765 18.937-.178 7.91zM315.364 117.977l-36.016-41.556-5.165-28.447 12.15-18.464 38.388 74.687-2.706 8.567z"/><path fill="#4c7283" stroke="#4c7283" d="m209.964 103.083-.141-47.785 60.449-5.543-38.81 53.752zM88.226 0l-9.424 49.435-14.024 4.557-4.248-2.74L29.38 0zM160.83 217.485l46.26-39.085 2.677 50.1-46.123.67zM178.72 316.458l9.435 36.36-1.875 3.794-30.946-3.887-8.757-33.521 28.66-7.01z"/><path fill="#9187b9" stroke="#9187b9" d="m253.566 214.645-.015-.341 34.404-36.512 32.19 54.342-54.913-3.709zM79.435 144.337l-34.724 47.63L29.3 174.701l-1.451-23.839z"/><path fill="#9187b9" stroke="#9187b9" d="m79.435 144.337-51.587 6.526L0 132.8V108.78l27.627-17.396 10.129-.864 48.25 31.797 5.38 9.36-5.03 10.317z"/><path fill="#4c7283" stroke="#4c7283" d="m287.059 170.133 25.279-27.846 37.063 32.665-9.86 61.345-9.078 3.112-10.318-7.275-32.19-54.342zM356.227 382h-42.923l5.623-53.78 46.445 17.063z"/><path fill="#4c7283" stroke="#4c7283" d="m315.364 117.977 6.65-5.213L382 124.702v36.139l-32.599 14.11-37.063-32.664 2.081-22.834z"/><path fill="#9187b9" stroke="#9187b9" d="m215.754 235.966 37.812-21.321 11.666 13.78-10.169 24.786-37.753-5.6z"/><path fill="#4c7283" stroke="#4c7283" d="M0 0h29.38l31.15 51.251-46.492-15.05L0 17.26z"/><path fill="#9187b9" stroke="#9187b9" d="M94.339 173.474 63.44 235.126l-6.002-1.163-12.728-41.997 34.724-47.63 6.921-2.341zM178.72 316.458l37.842-28.454 3.979 47.898-32.386 16.917zM94.141 250.232l23.644 19.518-50.728 43-10.069-12.953 17.353-55.802z"/><path fill="#4c7283" stroke="#4c7283" d="M324.72 104.197 286.335 29.51l2.542-6.709 54.978 31.804 3.228 13.58z"/><path fill="#9187b9" stroke="#9187b9" d="m0 302.575 8.156 3.214 46.269 50.542L0 347.43zM118.648 306.354l27.929 12.85 8.757 33.521-26.105 1.467-17.557-29.99zM150.051 206.742l-17.976-6.29-5.082-9.778 18.962-27.315 18.456 13.923z"/><path fill="#4c7283" stroke="#4c7283" d="m136.022 0 4.24 12.956-48.124 48.68-13.336-12.2L88.226 0zM204.876 171.175l-40.465 6.107-18.456-13.923-.57-6.098 50.45-33.157 4.398 14.799z"/><path fill="#9187b9" stroke="#9187b9" d="m265.232 228.425 54.913 3.709 10.318 7.275-31.232 63.756-11.172.545-12.927-9.203-20.069-41.296zM356.227 382l9.145-36.717 16.628.093V382zM122.391 272.567l-3.743 33.787-6.976 17.848-37.219 9.06-7.396-20.513 50.728-43z"/><path fill="#4c7283" stroke="#4c7283" d="m156.37 270.654 52.644-3.167 9.151 16.331-1.603 4.186-37.843 28.454-3.483-4.265zM224.975 335.887l31.957 38.493.609 7.62h-66.335l-4.926-25.388 1.875-3.793 32.386-16.917zM316.128 321.998 382 297.472v47.904l-16.628-.093-46.445-17.063z"/><path fill="#9187b9" stroke="#9187b9" d="m63.302 55.882-25.546 34.64-10.129.863L19.2 54.932zM324.72 104.197l22.362-36.011L382 75.752v48.95l-59.985-11.938z"/><path fill="#4c7283" stroke="#4c7283" d="M29.299 174.702 0 198.33v-65.531l27.848 18.064z"/><path fill="#9187b9" stroke="#9187b9" d="m126.993 190.674 5.082 9.778-37.934 49.78-19.8-6.237-10.9-8.869 30.898-61.652zM60.53 51.251l4.248 2.74-1.476 1.891-44.102-.95-5.162-18.731z"/><path fill="#4c7283" stroke="#4c7283" d="m257.11 147.83-1.666-33.018 58.975 4.641-2.081 22.834-25.279 27.846-22.507-5.75z"/><path fill="#9187b9" stroke="#9187b9" d="m245.932 108.09-14.47-4.583 38.81-53.752 3.91-1.78 5.166 28.446z"/><path fill="#4c7283" stroke="#4c7283" d="m382 75.752-34.918-7.566-3.228-13.58L382 3.043z"/><path fill="#9187b9" stroke="#9187b9" d="M382 0v3.044l-38.146 51.561-54.978-31.804-.093-.8L287.18 0z"/><path fill="#4c7283" stroke="#4c7283" d="m92.94 62.562-.802-.926 48.124-48.68 11.463 27.096-11.301 27.842zM163.644 229.17l46.123-.67 5.987 7.466 1.556 11.645-8.296 19.876-52.644 3.167-5.624-3.193z"/></svg></g></svg>