<svg xmlns="http://www.w3.org/2000/svg" viewBox="0 0 382 382"><defs><clipPath id="a"><path d="M382 382H0V0h382z"/></clipPath></defs><g clip-path="url(#a)"><svg xmlns="http://www.w3.org/2000/svg" width="382" height="382" style="shape-rendering:geometricPrecision"><path fill="#27f050" stroke="#27f050" d="m160.812 217.074 4.29-70.784 24.519-.57 4.572 3.568 16.822 39.184-39.176 30.687zM62.027 296.663 33.09 320.206 0 298.706v-62.65l30.516 6.052 27.758 24.205z"/><path fill="#27f050" stroke="#27f050" d="m74.776 195.27-44.26 46.838L0 236.056v-61.661l44.763-17.504 14.291 9.963z"/><path fill="#143d0d" stroke="#143d0d" d="m164.824 256.573 21.898-14.968 15 2.44-26.122 38.121-14.805-9.927z"/><path fill="#27f050" stroke="#27f050" d="M103.15 29.504 97.832 15.06 96.602 0h107.16l.795 12.052-81.466 31.48zM139.74 222.225l22.953 29.202 2.13 5.146-4.028 15.666-29.37 4.922-.487-.725-3.562-49.435 3.171-6.054z"/><path fill="#143d0d" stroke="#143d0d" d="m131.426 277.161-3.834 11.855-62.111 10.021-3.454-2.374-3.753-30.35 23.862-9.558 48.802 19.681z"/><path fill="#27f050" stroke="#27f050" d="m143.567 143.695-6.745-6.755-3.978-79.083 40.914 9.829 26.79 41.252-10.927 36.782-24.519.57zM44.763 156.891 0 174.395V82.459l53.647 16.492.36.855zM382 132.204 291.9 84.17l9.89-27.478 80.21 46.06zM59.44 382l33.163-45.38 10.1-.065L125.716 382z"/><path fill="#143d0d" stroke="#143d0d" d="m96.602 0 1.23 15.06-83.376 26.316L19.54 0zM160.812 217.074l11.027 2.085.251.67-9.397 31.598-22.953-29.202zM132.844 57.857l-9.753-14.325 81.466-31.48 9.423 14.55-2.946 15.064-37.276 26.02z"/><path fill="#27f050" stroke="#27f050" d="m254.87 0-6.676 28.512-34.214-1.91-9.423-14.55L203.763 0z"/><path fill="#143d0d" stroke="#143d0d" d="m175.6 282.166 21.059 24.167-2.588 13.406-21.683 16.77-44.461-44.644-.335-2.849 3.834-11.855 29.37-4.922z"/><path fill="#27f050" stroke="#27f050" d="m124.848 135.203-65.794 31.651-14.29-9.963 9.242-57.085z"/><path fill="#143d0d" stroke="#143d0d" d="m200.549 108.938-26.79-41.252 37.275-26.02 16.406 41.86z"/><path fill="#27f050" stroke="#27f050" d="m211.015 188.472-16.822-39.184 81.732-15.784 10.843 10.476-17.32 75.93-37.743-10.833z"/><path fill="#143d0d" stroke="#143d0d" d="M382 0v12.246l-47.678 30.818-32.924-13.96L311.922 0zM0 382v-43.57l32.38-15.045L45.75 382zM298.079 224.79l70.068-84.459L382 136.083v10.277l-37.342 83.76z"/><path fill="#27f050" stroke="#27f050" d="m163.566 382 3.259-36.342 5.563-9.15 21.683-16.769 70.547 49.93 1.6 12.331z"/><path fill="#143d0d" stroke="#143d0d" d="m269.448 219.91 17.32-75.93 81.379-3.649-70.068 84.46-19.943 5.69zM110.628 332.503l56.197 13.155L163.566 382h-37.849l-23.015-45.445zM124.848 135.203 54.006 99.806l-.36-.855 49.504-69.447 19.94 14.028 9.754 14.325 3.978 79.083z"/><path fill="#27f050" stroke="#27f050" d="m311.922 0-10.524 29.104-4.06 5.797-30.572 2.832-18.572-9.22L254.87 0z"/><path fill="#143d0d" stroke="#143d0d" d="m127.376 227.001 3.562 49.435-48.802-19.68 10.1-14.973zM65.481 299.037l27.122 37.582L59.44 382H45.75l-13.37-58.615.709-3.179 28.938-23.543z"/><path fill="#27f050" stroke="#27f050" d="m175.6 282.166 26.122-38.121 1.274-.198 17.54 42.745-23.877 19.74z"/><path fill="#143d0d" stroke="#143d0d" d="m275.925 133.504-3.386-28.82 19.362-20.513L382 132.204v3.879l-13.853 4.248-81.38 3.649z"/><path fill="#27f050" stroke="#27f050" d="m211.034 41.666 2.946-15.064 34.214 1.91 18.572 9.221-21.702 46.548-17.624-.754z"/><path fill="#143d0d" stroke="#143d0d" d="m0 298.706 33.089 21.5-.71 3.179L0 338.43z"/><path fill="#27f050" stroke="#27f050" d="M382 382H266.218l-1.6-12.33 25.313-68.248L382 380.41z"/><path fill="#143d0d" stroke="#143d0d" d="m220.537 286.592 57.225-12.684 12.884 20.384-.715 7.13-25.313 68.248-70.547-49.93 2.588-13.407z"/><path fill="#27f050" stroke="#27f050" d="m202.996 243.847 28.709-34.77 37.743 10.834 8.688 10.57-.374 43.427-57.225 12.684zM172.09 219.83l14.632 21.775-21.898 14.968-2.13-5.146z"/><path fill="#143d0d" stroke="#143d0d" d="m160.812 217.074-21.072 5.151-9.193-1.278-12.053-29.073 25.073-48.179 21.535 2.595z"/><path fill="#27f050" stroke="#27f050" d="m297.339 34.9 4.059-5.796 32.924 13.96L382 69.426v33.327l-80.21-46.06z"/><path fill="#143d0d" stroke="#143d0d" d="m189.621 145.72 10.928-36.782 26.891-25.411 17.624.754 27.475 20.402 3.386 28.821-81.732 15.784z"/><path fill="#27f050" stroke="#27f050" d="m278.136 230.482 19.943-5.691 46.58 5.33L382 265.75v20.028l-91.354 8.513-12.884-20.384zM127.927 291.865l-17.3 40.638-7.925 4.052-10.099.064-27.122-37.582 62.11-10.021zM382 265.75l-37.342-35.63L382 146.36z"/><path fill="#143d0d" stroke="#143d0d" d="m127.927 291.865 44.461 44.643-5.563 9.15-56.197-13.155zM382 69.426l-47.678-26.362L382 12.246z"/><path fill="#27f050" stroke="#27f050" d="M53.647 98.951 0 82.46V55.466l14.456-14.09L97.832 15.06l5.318 14.444z"/><path fill="#143d0d" stroke="#143d0d" d="m92.237 241.783-10.1 14.972-23.863 9.558-27.758-24.205 44.26-46.838 5.821 1.394z"/><path fill="#27f050" stroke="#27f050" d="m382 380.411-92.069-78.99.715-7.13L382 285.78zM80.597 196.664l-5.82-1.394-15.723-28.416 65.794-31.651 11.974 1.737 6.745 6.755-25.073 48.18zM245.064 84.281l21.702-46.548 30.573-2.832 4.45 21.792-9.888 27.478-19.362 20.512z"/><path fill="#143d0d" stroke="#143d0d" d="m19.54 0-5.084 41.376L0 55.466V0z"/><path fill="#27f050" stroke="#27f050" d="m171.84 219.159 39.175-30.687 20.69 20.605-28.709 34.77-1.274.198-15-2.44-14.632-21.776z"/><path fill="#143d0d" stroke="#143d0d" d="m127.376 227.001-35.14 14.782-11.639-45.12 37.897-4.789 12.053 29.073z"/></svg></g></svg>