<svg xmlns="http://www.w3.org/2000/svg" viewBox="0 0 382 382"><g fill="none" stroke="#23723d" stroke-width="2"><path d="M218.97 69.73q4 2.64-.81 4.25-.91.31-1.52.85-1.08.95-.19 2.04.35.43.08.9-.79 1.39-.53 2.94.02.11.09.19.13.14.31.11.32-.04.39-.36.29-1.27 1.13-2.21.51-.57 1.06-.04.86.83 1.05 1.93.11.6.71.62l1.5.05q.48.01.4.48-.61 3.58-2.29 6.05c-.39.58-.52 1.22-.46 1.91a.39.39 0 0 1-.51.4q-.21-.07-.27-.3a.49.49 0 0 0-.71-.29q-1.02.58-1.35 1.61-.25.78.53 1.03.66.21 1.17-.24a1.21 1.21 0 0 1 2.02.97q-.12 2.07-.85 4.82a.38.38 0 0 0 .56.43l.33-.19a1.79 1.77 82.6 0 0 .83-1.09l1.71-6.5a1.06 1.06 0 0 1 1.73-.52q.66.58 1.4.18a2.55 2.46 59.9 0 1 3.29.94q.98 1.57 1.78 3.59.25.65-.22 1.16-.63.67.11 1.23 1.27.96 1.5-.61l.24-1.59a.65.64 8.1 0 1 .73-.54q.78.13 1.35.74.48.53.62-.17.14-.75.08-1.57-.08-1.08-.9-.37-.17.14-.4.19-.69.13-.75-.56-.09-.99-1-1.28-.58-.19-.36-.75l.94-2.4a.71.7 44.4 0 0-.01-.5q-.55-1.37.84-1.98.91-.4 1.94-.35.79.03.33-.62-.56-.79-.01-1.61.4-.6-.33-.64l-1.51-.08a.75.74 90 0 1-.71-.72q-.03-.92.73-1.57a.21.21 0 0 0-.04-.35l-2.27-1.15q-.28-.14-.4.15-.18.42-.09.89.06.26-.12.46-.11.11-.28.1-.51-.05-.54-.57-.07-1.28-.59-2.41-.42-.9.57-.88.22.01.41-.09.46-.25.52-.77.1-.91-.26-1.67M233.99 73.04q.02.33.23.42a.59.58-55.1 0 0 .66-.12q.21-.23.05-.53M240.26 72.09q-.17.44-.22.86-.15 1.13.44 1.98.67.98 1.81 1.1a.66.65 82 0 0 .67-.9l-1.23-3.05M243.23 72.12q-.26.34.3.45a.68.46-37.3 0 0 .19-.01q.5-.12.28-.45M245.19 72.49q-.24 1.01-.06 2.05.08.5.52.27.58-.3.29-1.87M256.21 80.44q-1.34.58-.62 1.9.23.41-.07.78-.32.38-.07 1.06a.93.89-79 0 0 .21.33q.59.61-.17 1.35a.47.46 30 0 1-.45.12q-.3-.08-.51.1-.42.35-.05.76.63.69.02 1.42a.64.63 43.3 0 0 .03.86q.65.67.28 1.54-.19.43-.66.4l-1.48-.09q-.66-.04-.37.55l1.37 2.75q.56 1.14-.35 2.03-1.43 1.39-2.52-.04-.07-.1-.19-.1-.14-.01-.26.09-.3.26-.02.54 1.41 1.43.15 3.42-.48.77.34.38l1.85-.89a2.32 2.32 0 0 1 3.32 2.03l.1 3.55q.02.66.59.34l.3-.17q.56-.32 1.06.1.17.14.39.18.73.13.24-.42-1.98-2.29-.36-4.99.28-.49.56 0 .1.18.27.3.72.5.75-.38l.08-2.17q.03-.78-.72-.98l-.55-.15q-.76-.2-.3-.84c1.02-1.42 2.38-.77 3.7-1.64q.69-.46.88.35.55 2.41 2.44 1.51.42-.2.48.26.16 1.08 1.07 1.88.51.45 1.07.05 1.06-.76.29-1.82-.42-.58.29-.7.9-.16 1.84.09a.67.67 0 0 1 .5.76q-.13.79-.64 1.5-.33.47-.11 1.01l1.34 3.16q.12.3-.12.52-.23.19-.58.05a.41.4-85.8 0 0-.54.47q.05.23.22.39.46.42.32 1.04-.51 2.34-2.35 3.41a.32.31 57.7 0 0-.1.45q.66.91.65 2.05 0 .47-.37.76-.45.36-1.03.48-.44.09-.63.5-.17.37.04.72.33.55 1.03.59.63.04 1.22.16.55.12.61.67.16 1.48.05 2.87-.02.15.07.26.08.13.31.07.27-.08.35-.35.33-1.08 1.24-1.56 1.64-.85.82-2.65-.2-.43-.41-.84-.16-.3.14-.44l1.99-.92a.28.27 75.3 0 1 .39.23l.11 1.57q.06.92.86.47.73-.41 1.43.18a1.1 1.1 0 0 0 1.3.08l.56-.36q.7-.45.88.36c.22.96.75 1.36.68 2.42q-.21 2.95-1.42 5.64a1.02 1.01 38.9 0 0 .11 1l.26.34q.29.4-.06.75l-2.33 2.37a.41.4-65.9 0 0 .26.69l2.78.19q.47.03.81.34.4.35.76.04.39-.32.89-.2.3.08.51.31.49.52.74-.15.18-.47-.09-.88-.6-.91-1.49-1.57a.58.57-48.3 0 1-.05-.88l1.53-1.47q1.18-1.12 1.02.49-.1 1.13.63 1.8.41.37.86.07 1.48-.99 1.7-2.55.02-.15.13-.26.1-.1.23-.11a.43.42-1.3 0 1 .46.43q-.01 1.19 1.06 1.48.41.11.49.53.72 3.74-.03 5.97-.16.51.37.49.66-.03 1.02.52.26.39 0 .79-.82 1.3-.89 2.94-.03.67.58.39l2.88-1.31q.48-.21.84.15 1.13 1.13.74 2.91-.04.16.04.31.24.43.63-.09.16-.21.25-.45l.56-1.45q.26-.69-.47-.6-.16.02-.31-.01a.68.68 0 0 1-.57-.63l-.22-3.76a.75.75 0 0 0-.67-.71l-.5-.06q-.85-.1-.31-.77.62-.78.62-1.84 0-.66.56-1.01l1.64-1.03q.53-.33.65-.95.15-.79.13-1.55-.07-3.37 2.29-.88.62.65 2.45 1.64M298.58 196.72l-2.75-2.18q-.4-.32-.84-.06-.41.23-.66.67-.31.53.29.66 1.22.27 2.12 1.24a.58.58 0 0 1-.09.87q-.56.4-.23.94.26.4.09.85l-.92 2.41a1.13 1.09 42.7 0 0 .05.89q.48.95 1.67.7M289.35 252.79q-1.2-1.21-1.78-2.79-.18-.49.02-.97l.84-2.01q.22-.52-.02-1.04-.3-.69.07-1.33.32-.55-.32-.58-.56-.03-.99.33a.9.89-54.3 0 1-.93.16l-1.77-.73a.85.84-75.9 0 1-.52-.88q.22-1.85 1.39-3.65.23-.34.26-.74.07-.8-.73-1.22a.68.67-50 0 0-.74.07l-.22.18q-.66.55-.89-.27-.27-.95-.86-1.73a.92.92 0 0 1 .05-1.16c1.02-1.15 2.03-2.07 1.73-3.8q-.09-.55-.66-.55-.45.01-.89.2a2.52 2.16-18.9 0 1-3.36-1.33c-.3-1.36.87-3.83 1.3-5.16q.18-.55-.19-.99-1.12-1.38-1.31-3.15-.07-.63-.68-.77-.16-.04-.31 0-.68.13-.41.77l.42.99a1.04 1.03-35.3 0 1-.2 1.12q-1.12 1.19-.09 2.29.57.62-.25.82-2.17.53-2.37 2.65a.44.44 0 0 1-.73.28q-2.37-2.2-3.35-5.42-.05-.15-.2-.18-.2-.04-.36.04-.2.09-.22.31l-.15 1.77q-.05.53-.58.57l-1.79.13q-.76.06-.36.71c.58.95 1.93 1.32 2.97 1.32q.46 0 .59.44 1.06 3.61-1.6 6.04-.36.33-.22.77.2.61.75.27l.41-.25q.8-.49.86.44l.1 1.52q.06.91.8.38.89-.65 1.04-1.64.23-1.62 1.07-.21 1.16 1.93-.22 4.36-.23.41-.64.65-1.28.74-1.72 2.49-.11.43.08.84.31.7-.24 1.31a.82.81 43.3 0 1-1.18.03q-1.16-1.16-2.4-2.32-.51-.48-1.15-.22-.54.22-.23.7l.35.54q.27.42-.01.84-.29.41-.79.67a.64.63 53.8 0 1-.74-.12l-.2-.2q-.47-.49-.71.15-.1.27-.1.56-.01.45-.44.6-1.26.4-2.34 1.25a.55.54 47.8 0 0-.04.83l1.1 1.06a1.62 1.62 0 0 1-.15 2.47q-.74.55-1.61.8-.43.12-.33.55.06.3.31.51.57.48-.13.78-.75.32-1.72-.53a1.75 1.74-52.9 0 1-.31-2.28q.67-1.03.62-2.37-.03-.69-.72-.72l-2.62-.13a.82.82 0 0 1-.65-1.26l.81-1.26q.49-.78-.38-1.09-2.32-.83-.93-3.17a1.01 1 38.5 0 0-.14-1.2l-1.25-1.31a.88.88 0 0 1 .47-1.47q1.66-.32 1.35-2.2-.12-.74-.85-.86-1.12-.18-1.1-1.42.01-1.07.64-1.8 1.58-1.84-.36-3.96a.47.47 0 0 0-.68-.02l-.2.2q-.37.36-.04.76.57.72.63 1.58a.4.4 0 0 1-.68.32q-.68-.65-1.48-.15-.76.47-1.17-.32l-1.19-2.28a1.63 1.62 53.2 0 0-2.61-.38l-.65.67q-.43.44.18.54.38.05.49-.31a.55.55 0 0 1 .72-.36q.84.31 1.03 1.07a.85.84 56.8 0 1-.15.74q-.68.87-.55 1.98.06.55-.37.91-.28.24-.65.23a.89.87 23.9 0 0-.62.23q-.49.47-.33.99.24.77.86.25l.34-.29q.71-.59.72.33v.68a.54.54 0 0 0 .97.32q.27-.35.69-.24.81.21.37.92l-3.19 5.21q-.38.62-.67-.05l-1.24-2.92q-.35-.81-.67.01-.07.2-.08.41a.87.87 0 0 1-.5.77l-3.13 1.46a.85.84 62.3 0 0-.37 1.2l.83 1.4a.75.74-31.2 0 1-.26 1.03q-.84.51-1.85.18-.66-.22-.74-.91l-.18-1.45q-.08-.61-.59-.27l-.84.54a.95.95 0 0 1-1.47-.85q.08-1.27.6-2.3.23-.47-.14-.83l-1.16-1.15q-1.03-1.02.41-.89 1.05.1 1.31-.73.25-.79-.55-1.04l-1.08-.34a.63.63 0 0 1-.36-.92l.76-1.31q.29-.48.01-.97-.61-1.08-.67-2.31-.03-.51.23-.94.96-1.64.13-3.29-.25-.49-.04-.99.08-.22.18-.42.4-.88-.4-.35-1.37.91-.38 2.59.85 1.45-.69.78-1.44-.63-2.61-1.67a1.38 1.36-71.1 0 1-.48-1l-.16-3.55q-.01-.2-.19-.28-.17-.07-.31.01-.33.18-.39.55-.17 1.16-1.25 1.46-.47.13-.28.58l1.05 2.54a.74.73 39.8 0 1 .04.41q-.36 2.16-2.1 2.46-.59.1-.22.56 1.38 1.76 3.28 2.58a.93.92-54.8 0 1 .26 1.52l-2.43 2.31q-.36.34-.85.33-4.89-.07-4.62 4.84c.04.74-.18 1.64-.73 2.16q-1.2 1.12-1.21-.51l-.01-1.43q-.01-1.05-.71-.27l-.94 1.03q-1.3 1.45-1.31-.5v-1.48q0-.71-.62-1.07l-.88-.5q-.87-.5-.27-1.29l.32-.42q.46-.61-.28-.82-2.09-.59-.75-3.32.25-.51-.26-.77l-2.69-1.31q-.72-.36-.38-1.09l1.54-3.27q.26-.55-.06-1.08-1.11-1.87-.11-3.73.33-.6-.3-.34-.19.08-.3.24-.53.7-.94-.1-.08-.16-.3-.15-.62.04-.23.52.88 1.09.61 2.68-.15.89-.75.22-.31-.34-.76-.4-.8-.09-.26.52t1.21 1.03q.61.39.18.97-1.1 1.51-3.07 1.17a.36.36 0 0 0-.37.55l.49.79q.15.24.06.5-.05.16-.19.23-.47.24-.86-.1-1.2-1.03-2.31-.71M80.04 146.98q.54.06.63-.16a.59.58-61.7 0 0-.2-.68q-.47-.33-.7-.08M79.33 144.97q.93-.26 1.59.48.29.33.66.52.42.21.87.03.76-.28.18-.84t-.61-1.31q-.05-.9.76-.5.22.11.4.29.59.62.67-.24.06-.69-.37-1.29a1.05 1.03-59.9 0 1-.19-.74q.21-1.85-.35-3.89-.15-.57-.67-.29-.72.38-.94 1.09-.16.53.29.85.18.14.21.4.08.58-.46.34c-1.57-.69-1.38-2.83-2.06-4.25q-.21-.43.16-.74.82-.71 1.88-.94.51-.12.32-.6-.05-.14-.14-.26-.42-.52.02-1.02l1.11-1.27q.3-.34.24-.8-.08-.68-.54-1.22-.31-.37-.29-.85.01-.47.31-.83c.66-.8.69-1.88.08-2.71M83.13 123.41l2.02 4.13q.21.43.67.29.19-.06.24-.3.08-.33.41-.36.05-.01.09.02.6.31.05.69-.51.35-.58.95-.07.68.54.98l.87.42q.45.21.47.71l.19 3.49q.04.74.76.63.94-.15 1.62-.99.46-.58-.03-1.14-.18-.21-.18-.49a.58.57 6.5 0 1 .72-.57q1.85.47 3.29-.55.58-.41.71.29.12.66.42 1.24.26.49.05 1l-.93 2.21q-.2.47.01.94.32.74-.23 1.4-.44.53.24.63.75.1 1.28-.46a.77.76-55.9 0 1 .85-.17l1.93.82q.59.25.47.88-.35 1.89-1.52 3.72-.28.44-.18.92.14.6.79.9.31.14.61-.05l.31-.19q.48-.3.73.21l.98 2.08q.21.45-.03.9c-.86 1.58-1.93 1.42-1.82 3.74a.7.69-15.1 0 0 1.02.58q2.05-1.11 3.74.47.38.36.34.89-.18 2.59-1.55 4.98-.24.42.11.75 1.27 1.21 1.39 2.95.03.44.36.74.38.34.9.28.76-.08.28-.69-.26-.32-.39-.71a1.5 1.5 0 0 1 .26-1.42q.98-1.19.03-2.36-.48-.59.28-.67 2.01-.23 2.27-2.43a.6.59 26.5 0 1 1.02-.34q2.19 2.25 3.22 5.45.02.08.1.11.15.07.29.02.34-.11.3-.47-.11-.91.17-1.74.19-.58.79-.66l1.58-.22q.78-.1.23-.67-1.12-1.15-2.73-1.2a.86.83-6.3 0 1-.8-.62q-.93-3.37 1.54-5.8.51-.51.14-1.11-.42-.7-.8.03-.11.22-.35.27-.61.13-.66-.49l-.16-1.74q-.07-.77-.68-.29-.78.6-1.07 1.64-.56 2-1.32.06l-.22-.56q-.22-.55-.06-1.12l.63-2.3q.16-.57.69-.83 1.35-.68 1.76-2.42a.82.81 33.9 0 0-.14-.68q-.53-.7.11-1.36.8-.82 1.58 0 1.09 1.14 2.24 2.14.3.26.7.26.15 0 .29-.03.84-.19.22-.8-.41-.41-.22-1a.99.94 85.6 0 1 .44-.54q.95-.54 1.29-.07.62.84.74-.11l.08-.65a.87.86-4 0 1 .64-.73q1.08-.29 2.05-1 .48-.36.08-.81l-1.49-1.63a1.11 1.11 0 0 1 .21-1.68l1.88-1.22q.51-.34.1-.8-.22-.24-.16-.57.11-.67.76-.48 1.37.41 1.85 1.68a1.1 1.08-36.9 0 1-.16 1.06q-.99 1.27-.62 2.79.14.56.71.57l2.48.05a.65.64 82.3 0 1 .62.48q.24.93-.58 1.64a1 1 0 0 0 .58 1.75q.89.07 1.01.92.19 1.26-.5 2.35-.33.53.18.89.96.68 1.43 1.76.29.65-.4.85l-.91.26q-.49.14-.63.64-.56 2.11 1.23 2.52a.82.81-88.4 0 1 .62.66q.31 1.85-1.16 2.98-.49.38-.27.97l.75 1.99a.7.7 0 0 0 .91.41l.33-.13q.38-.15.18-.51-.68-1.25-.77-1.74-.05-.26.12-.47.29-.36.64-.06l.34.29q.49.43.94-.04.21-.22.53-.21.65.03.95.59l1.21 2.2a1.54 1.54 0 0 0 2.04.65q.85-.43 1.17-1.22.23-.58-.32-.29-.3.15-.51.41-.34.42-.78.12-.6-.39-.85-1.04a.67.67 0 0 1 .1-.66q.7-.92.57-2.12a.75.75 0 0 1 .51-.79q.47-.16.93-.38.76-.36.52-1.17a.48.48 0 0 0-.75-.24l-.43.32q-.68.52-.77-.33l-.06-.6q-.08-.72-.72-.38-.26.14-.56.21-1.43.3-.66-.95l3.14-5.06q.39-.62.68.05l1.27 2.87q.31.69.55-.03l.15-.43q.19-.57.73-.82l3.04-1.45q.56-.27.39-.86-.2-.7-.75-1.22a.99.99 0 0 1 .55-1.7q.72-.1 1.41.11.63.19.7.84l.13 1.1q.13 1.16 1.01.39.71-.63 1.5-.31.38.16.42.57.13 1.57-.64 2.73-.28.42.11.75l1.21 1.01a.45.45 0 0 1-.26.79q-1.19.07-1.35 1.13-.09.57.44.77l.91.35q.69.27.46.97-.16.51-.5.93-.4.49-.12 1.06 1.08 2.25.06 4.75-.3.74-.11 1.51.09.37.36.62.5.46.04.95-.2.21-.3.49-.19.56.36.33.77-.32 1-1.03.17-.52-.21-.91-.52-.54-.5-1.27.02-.5.5-.36 4.69 1.36 3.48 6.3-.04.13.07.21l.24.18q.51.4.59-.24.17-1.36 1.29-1.71.66-.21.37-.83-.36-.76-.72-1.57-.37-.81-.21-1.58.4-1.92 1.95-2.27.46-.1.17-.48-1.45-1.89-3.3-2.55a.74.74 0 0 1-.28-1.22l2.65-2.69q.38-.38.91-.35 2.37.15 4.01-1.57.38-.41.37-.96c-.04-1.45-.19-3.33.92-4.45q.93-.92.98.38l.06 1.41q.04.93.83.43.48-.32.87-.81 1.2-1.54 1.3.42l.09 1.93a.94.92-80.7 0 0 .58.82l.9.35q.88.35.32 1.1l-.58.78q-.37.49.24.59 2.02.33 1.26 2.55-.14.42-.39.78-.3.44.18.67l3.05 1.42q.52.24.29.77l-1.56 3.47q-.23.5.01 1 .69 1.46.52 3.02a.62.61 76.4 0 1-.27.45q-.34.23-.24.64.13.54.42.07l.3-.48q.43-.68.73.06.19.48.62.46.59-.03.21-.47-.97-1.11-.71-2.71.08-.47.55-.36.47.1.58.59.04.18.23.15l.31-.07q.26-.05.16-.29-.35-.9-1.18-1.33-.48-.25-.32-.78c.49-1.63 1.9-1.33 3.17-1.49q.79-.1.22-.66-.45-.45-.43-1.01.02-.69.64-.38l3.37 1.7a1.18 1.18 0 0 1 .63.83l.41 2.04q.13.64.77.52l.42-.08q.41-.08.38-.5-.05-.81-.38-1.48-.18-.37-.02-.75l1.5-3.39a.39.38 11.8 0 0-.36-.54q-.42.01-.72.35a.5.5 0 0 1-.86-.44q.11-.49-.29-.77-.72-.5-.62.37.08.62-.37.93-.55.38-.61-.28-.15-1.55-.84-2.88-.29-.55-.01-1.1.99-1.9.57-4.05-.05-.25-.31-.28-.21-.02-.37.16-.26.3-.21.7.09.55-.4.73a.42.41 67.9 0 1-.53-.23q-.09-.22-.34-.2-.61.05-.55.66.08.85-.23 1.6-.22.53-.69.19-1.72-1.26-.9-3.31.84-2.14.79-4.49-.04-1.35.9-.37.74.78 1.69.33.48-.24.29-.74l-.68-1.73q-.2-.48.03-.95 1.56-3.3-.95-6.68-.31-.41.11-.69.26-.17.59-.19a.77.77 0 0 1 .76.46l.16.36q.07.14.23.14.18.01.31-.09.34-.26.09-.61-.11-.15-.29-.21-.44-.16-.2-.56.82-1.43 2.05-.7.38.22.69-.1.57-.59 1.16-.07a.72.71 44.7 0 0 .95 0l1.29-1.15q.68-.61.72.3l.09 1.91q.01.12.13.15l.28.05a.36.35-80.4 0 0 .41-.3q.19-1.11.96-2a.79.78-46.4 0 1 1.17-.03q1.45 1.56.97 3.93-.09.4.31.51.32.1.59-.29a.58.53 62.4 0 0 .09-.34q-.03-.67.38-1.13a.72.72 0 0 1 .91-.13q.75.45.86 1.44.04.37.4.27l.27-.07q.19-.05.14-.24-.68-2.39-2.32-4.31-.35-.4-.44-.93l-.64-3.5q-.09-.51.13-.97l1.51-3.16a1.17 1.17 0 0 1 .87-.66q.63-.1.87-.64a.76.75-71.7 0 0-.52-1.04q-1.63-.36-1.48-2.26.09-1.06-.85-.56-.5.27-.73.81-.21.49.12.9.84 1.07.44 2.27-.21.63-.87.63l-3.31-.02q-.97-.01-.37.76.57.74.55 1.72-.02.44-.45.53l-.35.06q-.7.13-.98-.52l-.64-1.48q-.15-.35-.5-.18-.23.12-.45.03-.71-.31-.11-.8c.46-.36.66-.99.54-1.55q-.33-1.56-1.32-3.14-.18-.29-.45-.08l-.25.19q-.48.37-1 .08-.58-.31-.67-.91-.06-.42.21-.75.74-.92.01-1.86a.73.73 0 0 1-.12-.64q.82-2.87 3.04-3.76.32-.13.1-.39c-.96-1.2-.28-2.57.95-3.25q.06-.03.09-.09.48-.98-.47-.47-1.02.55-1.71-.56-.68-1.1-1.6-.97-.59.08-.63.67l-.23 2.81a.74.73-67.1 0 1-1.21.5q-1.51-1.32-2.89-.37-1 .67-.83-.52.27-1.9-.63-3.39-.27-.44.16-.75.15-.12.15-.34.02-.81-.56-.23-.66.66-1.57.99a.78.78 0 0 0-.53.79q.02.34.27.56.5.45.26 1.09l-.67 1.75q-.27.7-.72.1-.57-.74-1.34-.74a.57.57 0 0 0-.42.95q.97 1.07.08 2.05-.44.49-.06 1.02.52.73.69 1.55.13.66.67.26l.43-.32q.27-.2.55-.01.18.12.2.32.03.32-.12.6-.46.89-.77 1.85-.17.49-.68.45-3.43-.3-4.78-3-.23-.45-.65-.17l-.31.2a.54.53-7.4 0 1-.8-.61l.92-2.81q.16-.49.04-1c-.35-1.51-.65-4.33-1.54-5.49q-.67-.88-1.55-.07-.59.54-.75-.24-.47-2.28 1.54-2.58a.26.26 0 0 0 .19-.37l-.29-.57q-.27-.55.3-.79 1.5-.62 2.52-1.85a.74.74 0 0 1 .87-.2l.84.36q1.42.63.82-.81-.42-.98-1.06-2.05-.36-.6-.78-.04-.11.14-.27.21-.79.34-.75-.51l.16-3.28a.92.91-9.7 0 1 .57-.8l.51-.21q.64-.27.24-.83-.57-.8-.08-1.71 1.26-2.34.24-4.66M174 72.91q-.05.41.05.59.13.24.38.14.33-.13.58-.38a1.19 1.17-66.8 0 1 .9-.37q.71.03 1.02.63.24.45.01.91-.17.36-.49.61-.47.38-.12.87.44.61.94.86.7.35.69-.43 0-1.04.83-1.41.5-.22.8.24.4.6.56 1.29a.78.78 0 0 0 1 .57l.27-.08q.56-.18.41-.75l-.85-3.28q-.13-.51.37-.69l.97-.35q.78-.28.27-.93l-.76-.94M295.69 107.26q.21 1.52 1.32 2.28.41.29.84.03l1.2-.71" vector-effect="non-scaling-stroke"/><path d="M174 72.91q.26.17.56.04.27-.12.3-.4t-.13-.6M162.32 75.38q1.25 2.83 4.22 2.32M297.7 201.81q-.91.89-.39 1.9M219.43 310.2l-1.11-1.33q-.35-.43.05-.8l1.13-1.06q.44-.41.14-.93-.36-.64-1.15-.86a.57.57 0 0 0-.58.19q-.21.27-.53.29-.53.02-.79-.44-1.11-1.98-.07-4.31.51-1.13-.09-2.13-.3-.5.25-.67l.54-.17a.93.93 0 0 0 .66-.85l.12-3.14q.03-.71-.68-.71-.19 0-.25.12-.41.82-.86.01-.5-.91-.95-1.89-.95-2.09.97-.82.38.25.82.23.53-.02.89-.41 1.02-1.14 2.42-1.67a.51.5 57.6 0 0 .18-.83q-.15-.15-.22-.35-.17-.49.34-.61.13-.03.26-.04a1.07 1.06 7 0 0 1-.78q.19-.73.05-1.5-.13-.66-.72-.33-1.56.85-1.93-.87-.51-2.33-1.18-4.78-.15-.52.05-1.03.39-.96.72-2.03.21-.7-.1-1.27-.28-.5-.64-.05-.14.17-.33.26-.65.29-.75-.41c-.33-2.27-2.63-2.1-4.22-2.82q-.49-.23-.73.25l-1.19 2.35q-.08.17-.03.35.04.14.13.25.39.5.79 0 .14-.18.34-.29.5-.28.72.25l.61 1.51a1.41 1.39 48.7 0 1-.07 1.2q-.55.98.12 1.97.51.75-.4.73-.68-.02-1.2-.49-.58-.52-.87.2l-.64 1.58q-.19.47.1.88.27.37.34.83.11.65-.49.92-.84.38-1.65.83-.84.46-.45-.39.1-.24.34-.36a.31.31 0 0 0 .12-.45q-.99-1.4-.8-3.38.14-1.42-1-.58-.23.17-.5.25-.59.2-1.12-.12-.64-.38-1.36-.52-.9-.18-.93.74l-.1 2.54a.82.82 0 0 1-1.38.56l-1.73-1.65q-.37-.35-.8-.08l-.33.21q-.99.62-.3-.33.32-.45.78-.78c.85-.64 1.07-1.77.29-2.57q-.31-.31.09-.49 2.17-.93 3-3.81.12-.42-.14-.77-.66-.87.08-1.65a.82.81 55.1 0 0 .15-.89q-.28-.61-.91-.87-.37-.15-.7.08l-.28.2q-.44.31-.68-.18l-1.12-2.4q-.22-.49.03-.97.72-1.39.9-2.81M205.39 247.95l-.28-4.17M205.08 242.14q.67.49 1.3.66.64.18.63-.48-.04-2.68.67-5.12.51-1.76-.86-3a.44.44 0 0 0-.74.29l-.14 1.67q-.05.62-.67.59-.51-.03-.95-.82M204.14 234.28l-.04-1.25M216.2 311.14q-.2-.9-.84-1.12-.69-.24-1.1.31-.41.53-.02 1.5M210.92 312.71q.16-1.25.13-1.83-.09-1.73-.91-.2-.15.26-.1.56.08.6-.49.82-.72.27-1.27-.18-.37-.31-.33-.79.07-.73.57-1.32.45-.54-.24-.39-.07.01-.1.07-.26.51-.84.59-.62.08-1.06-.29-.5-.41-.21-.98l.44-.87q.26-.51-.05-.99-.25-.41-.64-.67-.46-.32-.67.21-.14.35-.12.75.02.55-.45.84-.34.22-.74.07c-.69-.25-.83-.91-.97-1.55q-.16-.72-.9-.63l-.44.06a.54.54 0 0 0-.44.7q.35 1.11.77 2.3.65 1.8-1.13 2-.65.08-.34.65.71 1.32.93 2.71.08.45.54.47l.39.03M206.52 314.6q-.41-.1-.76.1" vector-effect="non-scaling-stroke"/><path d="M205.22 314.8q-2.19-1.08-2.53-.03M181.3 96.16q-.31.14-.32.49-.01.67.48.22.2-.19.19-.51-.02-.36-.35-.2M180.81 97.96a.52.51-79.1 0 0-.48.33q-.15.42.04.57a.37.37 0 0 0 .58-.18q.22-.73-.14-.72M192.4 126.7q.32.1.31-.23 0-.31-.28-.37-.32-.07-.3.26.02.26.27.34M281.789 129.316a1.08.4-40.7 0 0-1.08.4 1.08.4-40.7 0 0-.558 1.008 1.08.4-40.7 0 0 1.08-.4 1.08.4-40.7 0 0 .558-1.008M129.31 157.22q-.32.44.13.67a.24.24 0 0 0 .26-.03q.3-.23.19-.55a.33.33 0 0 0-.58-.09M253.22 225.33a.29.29 0 0 0-.02.25q.21.54.56-.01a.29.28-63.8 0 0-.14-.42q-.26-.08-.4.18M202.06 285a.39.39 0 0 0 .61-.2q.14-.44.03-.58a.31.31 0 0 0-.54.09q-.21.6-.1.69M201.21 286.45a.3.3 0 0 0 .41.38q.43-.2.45-.71a.23.23 0 0 0-.3-.23q-.4.13-.56.56" vector-effect="non-scaling-stroke"/></g><path d="M218.97 69.73q4 2.64-.81 4.25-.91.31-1.52.85-1.08.95-.19 2.04.35.43.08.9-.79 1.39-.53 2.94.02.11.09.19.13.14.31.11.32-.04.39-.36.29-1.27 1.13-2.21.51-.57 1.06-.04.86.83 1.05 1.93.11.6.71.62l1.5.05q.48.01.4.48-.61 3.58-2.29 6.05c-.39.58-.52 1.22-.46 1.91a.39.39 0 0 1-.51.4q-.21-.07-.27-.3a.49.49 0 0 0-.71-.29q-1.02.58-1.35 1.61-.25.78.53 1.03.66.21 1.17-.24a1.21 1.21 0 0 1 2.02.97q-.12 2.07-.85 4.82a.38.38 0 0 0 .56.43l.33-.19a1.79 1.77 82.6 0 0 .83-1.09l1.71-6.5a1.06 1.06 0 0 1 1.73-.52q.66.58 1.4.18a2.55 2.46 59.9 0 1 3.29.94q.98 1.57 1.78 3.59.25.65-.22 1.16-.63.67.11 1.23 1.27.96 1.5-.61l.24-1.59a.65.64 8.1 0 1 .73-.54q.78.13 1.35.74.48.53.62-.17.14-.75.08-1.57-.08-1.08-.9-.37-.17.14-.4.19-.69.13-.75-.56-.09-.99-1-1.28-.58-.19-.36-.75l.94-2.4a.71.7 44.4 0 0-.01-.5q-.55-1.37.84-1.98.91-.4 1.94-.35.79.03.33-.62-.56-.79-.01-1.61.4-.6-.33-.64l-1.51-.08a.75.74 90 0 1-.71-.72q-.03-.92.73-1.57a.21.21 0 0 0-.04-.35l-2.27-1.15q-.28-.14-.4.15-.18.42-.09.89.06.26-.12.46-.11.11-.28.1-.51-.05-.54-.57-.07-1.28-.59-2.41-.42-.9.57-.88.22.01.41-.09.46-.25.52-.77.1-.91-.26-1.67 1.17-.56 2.32-.36.02.33.23.42a.59.58-55.1 0 0 .66-.12q.21-.23.05-.53 2.61-.8 5.33-.72-.17.44-.22.86-.15 1.13.44 1.98.67.98 1.81 1.1a.66.65 82 0 0 .67-.9l-1.23-3.05q.78-.12 1.5.04-.26.34.3.45a.68.46-37.3 0 0 .19-.01q.5-.12.28-.45.74 0 1.19.38-.24 1.01-.06 2.05.08.5.52.27.58-.3.29-1.87 1.23.34 2.2 1.16 3.92 3.33 8.07 6.34-1.34.58-.62 1.9.23.41-.07.78-.32.38-.07 1.06a.93.89-79 0 0 .21.33q.59.61-.17 1.35a.47.46 30 0 1-.45.12q-.3-.08-.51.1-.42.35-.05.76.63.69.02 1.42a.64.63 43.3 0 0 .03.86q.65.67.28 1.54-.19.43-.66.4l-1.48-.09q-.66-.04-.37.55l1.37 2.75q.56 1.14-.35 2.03-1.43 1.39-2.52-.04-.07-.1-.19-.1-.14-.01-.26.09-.3.26-.02.54 1.41 1.43.15 3.42-.48.77.34.38l1.85-.89a2.32 2.32 0 0 1 3.32 2.03l.1 3.55q.02.66.59.34l.3-.17q.56-.32 1.06.1.17.14.39.18.73.13.24-.42-1.98-2.29-.36-4.99.28-.49.56 0 .1.18.27.3.72.5.75-.38l.08-2.17q.03-.78-.72-.98l-.55-.15q-.76-.2-.3-.84c1.02-1.42 2.38-.77 3.7-1.64q.69-.46.88.35.55 2.41 2.44 1.51.42-.2.48.26.16 1.08 1.07 1.88.51.45 1.07.05 1.06-.76.29-1.82-.42-.58.29-.7.9-.16 1.84.09a.67.67 0 0 1 .5.76q-.13.79-.64 1.5-.33.47-.11 1.01l1.34 3.16q.12.3-.12.52-.23.19-.58.05a.41.4-85.8 0 0-.54.47q.05.23.22.39.46.42.32 1.04-.51 2.34-2.35 3.41a.32.31 57.7 0 0-.1.45q.66.91.65 2.05 0 .47-.37.76-.45.36-1.03.48-.44.09-.63.5-.17.37.04.72.33.55 1.03.59.63.04 1.22.16.55.12.61.67.16 1.48.05 2.87-.02.15.07.26.08.13.31.07.27-.08.35-.35.33-1.08 1.24-1.56 1.64-.85.82-2.65-.2-.43-.41-.84-.16-.3.14-.44l1.99-.92a.28.27 75.3 0 1 .39.23l.11 1.57q.06.92.86.47.73-.41 1.43.18a1.1 1.1 0 0 0 1.3.08l.56-.36q.7-.45.88.36c.22.96.75 1.36.68 2.42q-.21 2.95-1.42 5.64a1.02 1.01 38.9 0 0 .11 1l.26.34q.29.4-.06.75l-2.33 2.37a.41.4-65.9 0 0 .26.69l2.78.19q.47.03.81.34.4.35.76.04.39-.32.89-.2.3.08.51.31.49.52.74-.15.18-.47-.09-.88-.6-.91-1.49-1.57a.58.57-48.3 0 1-.05-.88l1.53-1.47q1.18-1.12 1.02.49-.1 1.13.63 1.8.41.37.86.07 1.48-.99 1.7-2.55.02-.15.13-.26.1-.1.23-.11a.43.42-1.3 0 1 .46.43q-.01 1.19 1.06 1.48.41.11.49.53.72 3.74-.03 5.97-.16.51.37.49.66-.03 1.02.52.26.39 0 .79-.82 1.3-.89 2.94-.03.67.58.39l2.88-1.31q.48-.21.84.15 1.13 1.13.74 2.91-.04.16.04.31.24.43.63-.09.16-.21.25-.45l.56-1.45q.26-.69-.47-.6-.16.02-.31-.01a.68.68 0 0 1-.57-.63l-.22-3.76a.75.75 0 0 0-.67-.71l-.5-.06q-.85-.1-.31-.77.62-.78.62-1.84 0-.66.56-1.01l1.64-1.03q.53-.33.65-.95.15-.79.13-1.55-.07-3.37 2.29-.88.62.65 2.45 1.64-.82 5.35-1.42 10.86-.22 2 .85 3.54c.9 1.32 2.01 2.57 2 4.28q-.05 11.29-.02 20.11c.02 2.99-.69 5.59-1.19 8.47q-2.26 12.93-4.4 25.89l-2.75-2.18q-.4-.32-.84-.06-.41.23-.66.67-.31.53.29.66 1.22.27 2.12 1.24a.58.58 0 0 1-.09.87q-.56.4-.23.94.26.4.09.85l-.92 2.41a1.13 1.09 42.7 0 0 .05.89q.48.95 1.67.7l-7.96 49.08q-1.2-1.21-1.78-2.79-.18-.49.02-.97l.84-2.01q.22-.52-.02-1.04-.3-.69.07-1.33.32-.55-.32-.58-.56-.03-.99.33a.9.89-54.3 0 1-.93.16l-1.77-.73a.85.84-75.9 0 1-.52-.88q.22-1.85 1.39-3.65.23-.34.26-.74.07-.8-.73-1.22a.68.67-50 0 0-.74.07l-.22.18q-.66.55-.89-.27-.27-.95-.86-1.73a.92.92 0 0 1 .05-1.16c1.02-1.15 2.03-2.07 1.73-3.8q-.09-.55-.66-.55-.45.01-.89.2a2.52 2.16-18.9 0 1-3.36-1.33c-.3-1.36.87-3.83 1.3-5.16q.18-.55-.19-.99-1.12-1.38-1.31-3.15-.07-.63-.68-.77-.16-.04-.31 0-.68.13-.41.77l.42.99a1.04 1.03-35.3 0 1-.2 1.12q-1.12 1.19-.09 2.29.57.62-.25.82-2.17.53-2.37 2.65a.44.44 0 0 1-.73.28q-2.37-2.2-3.35-5.42-.05-.15-.2-.18-.2-.04-.36.04-.2.09-.22.31l-.15 1.77q-.05.53-.58.57l-1.79.13q-.76.06-.36.71c.58.95 1.93 1.32 2.97 1.32q.46 0 .59.44 1.06 3.61-1.6 6.04-.36.33-.22.77.2.61.75.27l.41-.25q.8-.49.86.44l.1 1.52q.06.91.8.38.89-.65 1.04-1.64.23-1.62 1.07-.21 1.16 1.93-.22 4.36-.23.41-.64.65-1.28.74-1.72 2.49-.11.43.08.84.31.7-.24 1.31a.82.81 43.3 0 1-1.18.03q-1.16-1.16-2.4-2.32-.51-.48-1.15-.22-.54.22-.23.7l.35.54q.27.42-.01.84-.29.41-.79.67a.64.63 53.8 0 1-.74-.12l-.2-.2q-.47-.49-.71.15-.1.27-.1.56-.01.45-.44.6-1.26.4-2.34 1.25a.55.54 47.8 0 0-.04.83l1.1 1.06a1.62 1.62 0 0 1-.15 2.47q-.74.55-1.61.8-.43.12-.33.55.06.3.31.51.57.48-.13.78-.75.32-1.72-.53a1.75 1.74-52.9 0 1-.31-2.28q.67-1.03.62-2.37-.03-.69-.72-.72l-2.62-.13a.82.82 0 0 1-.65-1.26l.81-1.26q.49-.78-.38-1.09-2.32-.83-.93-3.17a1.01 1 38.5 0 0-.14-1.2l-1.25-1.31a.88.88 0 0 1 .47-1.47q1.66-.32 1.35-2.2-.12-.74-.85-.86-1.12-.18-1.1-1.42.01-1.07.64-1.8 1.58-1.84-.36-3.96a.47.47 0 0 0-.68-.02l-.2.2q-.37.36-.04.76.57.72.63 1.58a.4.4 0 0 1-.68.32q-.68-.65-1.48-.15-.76.47-1.17-.32l-1.19-2.28a1.63 1.62 53.2 0 0-2.61-.38l-.65.67q-.43.44.18.54.38.05.49-.31a.55.55 0 0 1 .72-.36q.84.31 1.03 1.07a.85.84 56.8 0 1-.15.74q-.68.87-.55 1.98.06.55-.37.91-.28.24-.65.23a.89.87 23.9 0 0-.62.23q-.49.47-.33.99.24.77.86.25l.34-.29q.71-.59.72.33v.68a.54.54 0 0 0 .97.32q.27-.35.69-.24.81.21.37.92l-3.19 5.21q-.38.62-.67-.05l-1.24-2.92q-.35-.81-.67.01-.07.2-.08.41a.87.87 0 0 1-.5.77l-3.13 1.46a.85.84 62.3 0 0-.37 1.2l.83 1.4a.75.74-31.2 0 1-.26 1.03q-.84.51-1.85.18-.66-.22-.74-.91l-.18-1.45q-.08-.61-.59-.27l-.84.54a.95.95 0 0 1-1.47-.85q.08-1.27.6-2.3.23-.47-.14-.83l-1.16-1.15q-1.03-1.02.41-.89 1.05.1 1.31-.73.25-.79-.55-1.04l-1.08-.34a.63.63 0 0 1-.36-.92l.76-1.31q.29-.48.01-.97-.61-1.08-.67-2.31-.03-.51.23-.94.96-1.64.13-3.29-.25-.49-.04-.99.08-.22.18-.42.4-.88-.4-.35-1.37.91-.38 2.59.85 1.45-.69.78-1.44-.63-2.61-1.67a1.38 1.36-71.1 0 1-.48-1l-.16-3.55q-.01-.2-.19-.28-.17-.07-.31.01-.33.18-.39.55-.17 1.16-1.25 1.46-.47.13-.28.58l1.05 2.54a.74.73 39.8 0 1 .04.41q-.36 2.16-2.1 2.46-.59.1-.22.56 1.38 1.76 3.28 2.58a.93.92-54.8 0 1 .26 1.52l-2.43 2.31q-.36.34-.85.33-4.89-.07-4.62 4.84c.04.74-.18 1.64-.73 2.16q-1.2 1.12-1.21-.51l-.01-1.43q-.01-1.05-.71-.27l-.94 1.03q-1.3 1.45-1.31-.5v-1.48q0-.71-.62-1.07l-.88-.5q-.87-.5-.27-1.29l.32-.42q.46-.61-.28-.82-2.09-.59-.75-3.32.25-.51-.26-.77l-2.69-1.31q-.72-.36-.38-1.09l1.54-3.27q.26-.55-.06-1.08-1.11-1.87-.11-3.73.33-.6-.3-.34-.19.08-.3.24-.53.7-.94-.1-.08-.16-.3-.15-.62.04-.23.52.88 1.09.61 2.68-.15.89-.75.22-.31-.34-.76-.4-.8-.09-.26.52t1.21 1.03q.61.39.18.97-1.1 1.51-3.07 1.17a.36.36 0 0 0-.37.55l.49.79q.15.24.06.5-.05.16-.19.23-.47.24-.86-.1-1.2-1.03-2.31-.71c-.92-9.04-6.19-14.46-14.84-15.77q-3.35-.51-6.58-.95c-6.57-.92-13.18-.24-19.63-.72-2.59-.19-5.45-1.56-7.55-3.27q-13.44-10.98-18.49-14.65-14.08-10.25-31.04-11.88c-4.89-.47-9.72-1.27-13.89-3.95q-9.2-5.9-10.56-17.05-.04-.36-.01-6.01.02-3.08-.81-6 .54.06.63-.16a.59.58-61.7 0 0-.2-.68q-.47-.33-.7-.08-.51-.48-.44-1.09.93-.26 1.59.48.29.33.66.52.42.21.87.03.76-.28.18-.84t-.61-1.31q-.05-.9.76-.5.22.11.4.29.59.62.67-.24.06-.69-.37-1.29a1.05 1.03-59.9 0 1-.19-.74q.21-1.85-.35-3.89-.15-.57-.67-.29-.72.38-.94 1.09-.16.53.29.85.18.14.21.4.08.58-.46.34c-1.57-.69-1.38-2.83-2.06-4.25q-.21-.43.16-.74.82-.71 1.88-.94.51-.12.32-.6-.05-.14-.14-.26-.42-.52.02-1.02l1.11-1.27q.3-.34.24-.8-.08-.68-.54-1.22-.31-.37-.29-.85.01-.47.31-.83c.66-.8.69-1.88.08-2.71l.67-.97 2.02 4.13q.21.43.67.29.19-.06.24-.3.08-.33.41-.36.05-.01.09.02.6.31.05.69-.51.35-.58.95-.07.68.54.98l.87.42q.45.21.47.71l.19 3.49q.04.74.76.63.94-.15 1.62-.99.46-.58-.03-1.14-.18-.21-.18-.49a.58.57 6.5 0 1 .72-.57q1.85.47 3.29-.55.58-.41.71.29.12.66.42 1.24.26.49.05 1l-.93 2.21q-.2.47.01.94.32.74-.23 1.4-.44.53.24.63.75.1 1.28-.46a.77.76-55.9 0 1 .85-.17l1.93.82q.59.25.47.88-.35 1.89-1.52 3.72-.28.44-.18.92.14.6.79.9.31.14.61-.05l.31-.19q.48-.3.73.21l.98 2.08q.21.45-.03.9c-.86 1.58-1.93 1.42-1.82 3.74a.7.69-15.1 0 0 1.02.58q2.05-1.11 3.74.47.38.36.34.89-.18 2.59-1.55 4.98-.24.42.11.75 1.27 1.21 1.39 2.95.03.44.36.74.38.34.9.28.76-.08.28-.69-.26-.32-.39-.71a1.5 1.5 0 0 1 .26-1.42q.98-1.19.03-2.36-.48-.59.28-.67 2.01-.23 2.27-2.43a.6.59 26.5 0 1 1.02-.34q2.19 2.25 3.22 5.45.02.08.1.11.15.07.29.02.34-.11.3-.47-.11-.91.17-1.74.19-.58.79-.66l1.58-.22q.78-.1.23-.67-1.12-1.15-2.73-1.2a.86.83-6.3 0 1-.8-.62q-.93-3.37 1.54-5.8.51-.51.14-1.11-.42-.7-.8.03-.11.22-.35.27-.61.13-.66-.49l-.16-1.74q-.07-.77-.68-.29-.78.6-1.07 1.64-.56 2-1.32.06l-.22-.56q-.22-.55-.06-1.12l.63-2.3q.16-.57.69-.83 1.35-.68 1.76-2.42a.82.81 33.9 0 0-.14-.68q-.53-.7.11-1.36.8-.82 1.58 0 1.09 1.14 2.24 2.14.3.26.7.26.15 0 .29-.03.84-.19.22-.8-.41-.41-.22-1a.99.94 85.6 0 1 .44-.54q.95-.54 1.29-.07.62.84.74-.11l.08-.65a.87.86-4 0 1 .64-.73q1.08-.29 2.05-1 .48-.36.08-.81l-1.49-1.63a1.11 1.11 0 0 1 .21-1.68l1.88-1.22q.51-.34.1-.8-.22-.24-.16-.57.11-.67.76-.48 1.37.41 1.85 1.68a1.1 1.08-36.9 0 1-.16 1.06q-.99 1.27-.62 2.79.14.56.71.57l2.48.05a.65.64 82.3 0 1 .62.48q.24.93-.58 1.64a1 1 0 0 0 .58 1.75q.89.07 1.01.92.19 1.26-.5 2.35-.33.53.18.89.96.68 1.43 1.76.29.65-.4.85l-.91.26q-.49.14-.63.64-.56 2.11 1.23 2.52a.82.81-88.4 0 1 .62.66q.31 1.85-1.16 2.98-.49.38-.27.97l.75 1.99a.7.7 0 0 0 .91.41l.33-.13q.38-.15.18-.51-.68-1.25-.77-1.74-.05-.26.12-.47.29-.36.64-.06l.34.29q.49.43.94-.04.21-.22.53-.21.65.03.95.59l1.21 2.2a1.54 1.54 0 0 0 2.04.65q.85-.43 1.17-1.22.23-.58-.32-.29-.3.15-.51.41-.34.42-.78.12-.6-.39-.85-1.04a.67.67 0 0 1 .1-.66q.7-.92.57-2.12a.75.75 0 0 1 .51-.79q.47-.16.93-.38.76-.36.52-1.17a.48.48 0 0 0-.75-.24l-.43.32q-.68.52-.77-.33l-.06-.6q-.08-.72-.72-.38-.26.14-.56.21-1.43.3-.66-.95l3.14-5.06q.39-.62.68.05l1.27 2.87q.31.69.55-.03l.15-.43q.19-.57.73-.82l3.04-1.45q.56-.27.39-.86-.2-.7-.75-1.22a.99.99 0 0 1 .55-1.7q.72-.1 1.41.11.63.19.7.84l.13 1.1q.13 1.16 1.01.39.71-.63 1.5-.31.38.16.42.57.13 1.57-.64 2.73-.28.42.11.75l1.21 1.01a.45.45 0 0 1-.26.79q-1.19.07-1.35 1.13-.09.57.44.77l.91.35q.69.27.46.97-.16.51-.5.93-.4.49-.12 1.06 1.08 2.25.06 4.75-.3.74-.11 1.51.09.37.36.62.5.46.04.95-.2.21-.3.49-.19.56.36.33.77-.32 1-1.03.17-.52-.21-.91-.52-.54-.5-1.27.02-.5.5-.36 4.69 1.36 3.48 6.3-.04.13.07.21l.24.18q.51.4.59-.24.17-1.36 1.29-1.71.66-.21.37-.83-.36-.76-.72-1.57-.37-.81-.21-1.58.4-1.92 1.95-2.27.46-.1.17-.48-1.45-1.89-3.3-2.55a.74.74 0 0 1-.28-1.22l2.65-2.69q.38-.38.91-.35 2.37.15 4.01-1.57.38-.41.37-.96c-.04-1.45-.19-3.33.92-4.45q.93-.92.98.38l.06 1.41q.04.93.83.43.48-.32.87-.81 1.2-1.54 1.3.42l.09 1.93a.94.92-80.7 0 0 .58.82l.9.35q.88.35.32 1.1l-.58.78q-.37.49.24.59 2.02.33 1.26 2.55-.14.42-.39.78-.3.44.18.67l3.05 1.42q.52.24.29.77l-1.56 3.47q-.23.5.01 1 .69 1.46.52 3.02a.62.61 76.4 0 1-.27.45q-.34.23-.24.64.13.54.42.07l.3-.48q.43-.68.73.06.19.48.62.46.59-.03.21-.47-.97-1.11-.71-2.71.08-.47.55-.36.47.1.58.59.04.18.23.15l.31-.07q.26-.05.16-.29-.35-.9-1.18-1.33-.48-.25-.32-.78c.49-1.63 1.9-1.33 3.17-1.49q.79-.1.22-.66-.45-.45-.43-1.01.02-.69.64-.38l3.37 1.7a1.18 1.18 0 0 1 .63.83l.41 2.04q.13.64.77.52l.42-.08q.41-.08.38-.5-.05-.81-.38-1.48-.18-.37-.02-.75l1.5-3.39a.39.38 11.8 0 0-.36-.54q-.42.01-.72.35a.5.5 0 0 1-.86-.44q.11-.49-.29-.77-.72-.5-.62.37.08.62-.37.93-.55.38-.61-.28-.15-1.55-.84-2.88-.29-.55-.01-1.1.99-1.9.57-4.05-.05-.25-.31-.28-.21-.02-.37.16-.26.3-.21.7.09.55-.4.73a.42.41 67.9 0 1-.53-.23q-.09-.22-.34-.2-.61.05-.55.66.08.85-.23 1.6-.22.53-.69.19-1.72-1.26-.9-3.31.84-2.14.79-4.49-.04-1.35.9-.37.74.78 1.69.33.48-.24.29-.74l-.68-1.73q-.2-.48.03-.95 1.56-3.3-.95-6.68-.31-.41.11-.69.26-.17.59-.19a.77.77 0 0 1 .76.46l.16.36q.07.14.23.14.18.01.31-.09.34-.26.09-.61-.11-.15-.29-.21-.44-.16-.2-.56.82-1.43 2.05-.7.38.22.69-.1.57-.59 1.16-.07a.72.71 44.7 0 0 .95 0l1.29-1.15q.68-.61.72.3l.09 1.91q.01.12.13.15l.28.05a.36.35-80.4 0 0 .41-.3q.19-1.11.96-2a.79.78-46.4 0 1 1.17-.03q1.45 1.56.97 3.93-.09.4.31.51.32.1.59-.29a.58.53 62.4 0 0 .09-.34q-.03-.67.38-1.13a.72.72 0 0 1 .91-.13q.75.45.86 1.44.04.37.4.27l.27-.07q.19-.05.14-.24-.68-2.39-2.32-4.31-.35-.4-.44-.93l-.64-3.5q-.09-.51.13-.97l1.51-3.16a1.17 1.17 0 0 1 .87-.66q.63-.1.87-.64a.76.75-71.7 0 0-.52-1.04q-1.63-.36-1.48-2.26.09-1.06-.85-.56-.5.27-.73.81-.21.49.12.9.84 1.07.44 2.27-.21.63-.87.63l-3.31-.02q-.97-.01-.37.76.57.74.55 1.72-.02.44-.45.53l-.35.06q-.7.13-.98-.52l-.64-1.48q-.15-.35-.5-.18-.23.12-.45.03-.71-.31-.11-.8c.46-.36.66-.99.54-1.55q-.33-1.56-1.32-3.14-.18-.29-.45-.08l-.25.19q-.48.37-1 .08-.58-.31-.67-.91-.06-.42.21-.75.74-.92.01-1.86a.73.73 0 0 1-.12-.64q.82-2.87 3.04-3.76.32-.13.1-.39c-.96-1.2-.28-2.57.95-3.25q.06-.03.09-.09.48-.98-.47-.47-1.02.55-1.71-.56-.68-1.1-1.6-.97-.59.08-.63.67l-.23 2.81a.74.73-67.1 0 1-1.21.5q-1.51-1.32-2.89-.37-1 .67-.83-.52.27-1.9-.63-3.39-.27-.44.16-.75.15-.12.15-.34.02-.81-.56-.23-.66.66-1.57.99a.78.78 0 0 0-.53.79q.02.34.27.56.5.45.26 1.09l-.67 1.75q-.27.7-.72.1-.57-.74-1.34-.74a.57.57 0 0 0-.42.95q.97 1.07.08 2.05-.44.49-.06 1.02.52.73.69 1.55.13.66.67.26l.43-.32q.27-.2.55-.01.18.12.2.32.03.32-.12.6-.46.89-.77 1.85-.17.49-.68.45-3.43-.3-4.78-3-.23-.45-.65-.17l-.31.2a.54.53-7.4 0 1-.8-.61l.92-2.81q.16-.49.04-1c-.35-1.51-.65-4.33-1.54-5.49q-.67-.88-1.55-.07-.59.54-.75-.24-.47-2.28 1.54-2.58a.26.26 0 0 0 .19-.37l-.29-.57q-.27-.55.3-.79 1.5-.62 2.52-1.85a.74.74 0 0 1 .87-.2l.84.36q1.42.63.82-.81-.42-.98-1.06-2.05-.36-.6-.78-.04-.11.14-.27.21-.79.34-.75-.51l.16-3.28a.92.91-9.7 0 1 .57-.8l.51-.21q.64-.27.24-.83-.57-.8-.08-1.71 1.26-2.34.24-4.66c4.8 1.91 5.31-2.13 7.46-4.79q-.05.41.05.59.13.24.38.14.33-.13.58-.38a1.19 1.17-66.8 0 1 .9-.37q.71.03 1.02.63.24.45.01.91-.17.36-.49.61-.47.38-.12.87.44.61.94.86.7.35.69-.43 0-1.04.83-1.41.5-.22.8.24.4.6.56 1.29a.78.78 0 0 0 1 .57l.27-.08q.56-.18.41-.75l-.85-3.28q-.13-.51.37-.69l.97-.35q.78-.28.27-.93l-.76-.94q5.04 2.37 8.64.98 5.46-2.11 8.08-2.31 3.65-.26 7.45-.09c2.03.09 3.81-.62 5.69-1.32 2.19-.82 3.24.73 4.98 1.46q1.21.51 2.3 1M181.3 96.16q-.31.14-.32.49-.01.67.48.22.2-.19.19-.51-.02-.36-.35-.2m-.49 1.8a.52.51-79.1 0 0-.48.33q-.15.42.04.57a.37.37 0 0 0 .58-.18q.22-.73-.14-.72m11.59 28.74q.32.1.31-.23 0-.31-.28-.37-.32-.07-.3.26.02.26.27.34m89.389 2.616a1.08.4-40.7 0 0-1.08.4 1.08.4-40.7 0 0-.558 1.008 1.08.4-40.7 0 0 1.08-.4 1.08.4-40.7 0 0 .558-1.008M129.31 157.22q-.32.44.13.67a.24.24 0 0 0 .26-.03q.3-.23.19-.55a.33.33 0 0 0-.58-.09m123.91 68.11a.29.29 0 0 0-.02.25q.21.54.56-.01a.29.28-63.8 0 0-.14-.42q-.26-.08-.4.18"/><path fill="#46e479" d="m181.83 70.01.76.94q.51.65-.27.93l-.97.35q-.5.18-.37.69l.85 3.28q.15.57-.41.75l-.27.08a.78.78 0 0 1-1-.57q-.16-.69-.56-1.29-.3-.46-.8-.24-.83.37-.83 1.41.01.78-.69.43-.5-.25-.94-.86-.35-.49.12-.87.32-.25.49-.61.23-.46-.01-.91-.31-.6-1.02-.63a1.19 1.17-66.8 0 0-.9.37q-.25.25-.58.38-.25.1-.38-.14-.1-.18-.05-.59.26.17.56.04.27-.12.3-.4t-.13-.6q2.28-2.85 7.1-1.94M231.67 73.4q.36.76.26 1.67-.06.52-.52.77-.19.1-.41.09-.99-.02-.57.88.52 1.13.59 2.41.03.52.54.57.17.01.28-.1.18-.2.12-.46-.09-.47.09-.89.12-.29.4-.15l2.27 1.15a.21.21 0 0 1 .04.35q-.76.65-.73 1.57a.75.74 90 0 0 .71.72l1.51.08q.73.04.33.64-.55.82.01 1.61.46.65-.33.62-1.03-.05-1.94.35-1.39.61-.84 1.98a.71.7 44.4 0 1 .01.5l-.94 2.4q-.22.56.36.75.91.29 1 1.28.06.69.75.56.23-.05.4-.19.82-.71.9.37.06.82-.08 1.57-.14.7-.62.17-.57-.61-1.35-.74a.65.64 8.1 0 0-.73.54l-.24 1.59q-.23 1.57-1.5.61-.74-.56-.11-1.23.47-.51.22-1.16-.8-2.02-1.78-3.59a2.55 2.46 59.9 0 0-3.29-.94q-.74.4-1.4-.18a1.06 1.06 0 0 0-1.73.52l-1.71 6.5a1.79 1.77 82.6 0 1-.83 1.09l-.33.19a.38.38 0 0 1-.56-.43q.73-2.75.85-4.82a1.21 1.21 0 0 0-2.02-.97q-.51.45-1.17.24-.78-.25-.53-1.03.33-1.03 1.35-1.61a.49.49 0 0 1 .71.29q.06.23.27.3a.39.39 0 0 0 .51-.4c-.06-.69.07-1.33.46-1.91q1.68-2.47 2.29-6.05.08-.47-.4-.48l-1.5-.05q-.6-.02-.71-.62-.19-1.1-1.05-1.93-.55-.53-1.06.04-.84.94-1.13 2.21-.07.32-.39.36-.18.03-.31-.11-.07-.08-.09-.19-.26-1.55.53-2.94.27-.47-.08-.9-.89-1.09.19-2.04.61-.54 1.52-.85 4.81-1.61.81-4.25z"/><path d="M174.73 71.95q.16.32.13.6t-.3.4q-.3.13-.56-.04.06-.55.73-.96"/><path fill="#46e479" d="m241.73 72.08 1.23 3.05a.66.65 82 0 1-.67.9q-1.14-.12-1.81-1.1-.59-.85-.44-1.98.05-.42.22-.86zM244 72.11q.22.33-.28.45a.68.46-37.3 0 1-.19.01q-.56-.11-.3-.45.39-.14.77-.01M245.19 72.49q.56.08.75.45.29 1.57-.29 1.87-.44.23-.52-.27-.18-1.04.06-2.05M234.93 72.81q.16.3-.05.53a.59.58-55.1 0 1-.66.12q-.21-.09-.23-.42.41-.35.94-.23M162.32 75.38q1.25 2.83 4.22 2.32 1.02 2.32-.24 4.66-.49.91.08 1.71.4.56-.24.83l-.51.21a.92.91-9.7 0 0-.57.8l-.16 3.28q-.04.85.75.51.16-.07.27-.21.42-.56.78.04.64 1.07 1.06 2.05.6 1.44-.82.81l-.84-.36a.74.74 0 0 0-.87.2q-1.02 1.23-2.52 1.85-.57.24-.3.79l.29.57a.26.26 0 0 1-.19.37q-2.01.3-1.54 2.58.16.78.75.24.88-.81 1.55.07c.89 1.16 1.19 3.98 1.54 5.49q.12.51-.04 1l-.92 2.81a.54.53-7.4 0 0 .8.61l.31-.2q.42-.28.65.17 1.35 2.7 4.78 3 .51.04.68-.45.31-.96.77-1.85.15-.28.12-.6-.02-.2-.2-.32-.28-.19-.55.01l-.43.32q-.54.4-.67-.26-.17-.82-.69-1.55-.38-.53.06-1.02.89-.98-.08-2.05a.57.57 0 0 1 .42-.95q.77 0 1.34.74.45.6.72-.1l.67-1.75q.24-.64-.26-1.09-.25-.22-.27-.56a.78.78 0 0 1 .53-.79q.91-.33 1.57-.99.58-.58.56.23 0 .22-.15.34-.43.31-.16.75.9 1.49.63 3.39-.17 1.19.83.52 1.38-.95 2.89.37a.74.73-67.1 0 0 1.21-.5l.23-2.81q.04-.59.63-.67.92-.13 1.6.97.69 1.11 1.71.56.95-.51.47.47-.03.06-.09.09c-1.23.68-1.91 2.05-.95 3.25q.22.26-.1.39-2.22.89-3.04 3.76a.73.73 0 0 0 .12.64q.73.94-.01 1.86-.27.33-.21.75.09.6.67.91.52.29 1-.08l.25-.19q.27-.21.45.08.99 1.58 1.32 3.14c.12.56-.08 1.19-.54 1.55q-.6.49.11.8.22.09.45-.03.35-.17.5.18l.64 1.48q.28.65.98.52l.35-.06q.43-.09.45-.53.02-.98-.55-1.72-.6-.77.37-.76l3.31.02q.66 0 .87-.63.4-1.2-.44-2.27-.33-.41-.12-.9.23-.54.73-.81.94-.5.85.56-.15 1.9 1.48 2.26a.76.75-71.7 0 1 .52 1.04q-.24.54-.87.64a1.17 1.17 0 0 0-.87.66l-1.51 3.16q-.22.46-.13.97l.64 3.5q.09.53.44.93 1.64 1.92 2.32 4.31.05.19-.14.24l-.27.07q-.36.1-.4-.27-.11-.99-.86-1.44a.72.72 0 0 0-.91.13q-.41.46-.38 1.13a.58.53 62.4 0 1-.09.34q-.27.39-.59.29-.4-.11-.31-.51.48-2.37-.97-3.93a.79.78-46.4 0 0-1.17.03q-.77.89-.96 2a.36.35-80.4 0 1-.41.3l-.28-.05q-.12-.03-.13-.15l-.09-1.91q-.04-.91-.72-.3l-1.29 1.15a.72.71 44.7 0 1-.95 0q-.59-.52-1.16.07-.31.32-.69.1-1.23-.73-2.05.7-.24.4.2.56.18.06.29.21.25.35-.09.61-.13.1-.31.09-.16 0-.23-.14l-.16-.36a.77.77 0 0 0-.76-.46q-.33.02-.59.19-.42.28-.11.69 2.51 3.38.95 6.68-.23.47-.03.95l.68 1.73q.19.5-.29.74-.95.45-1.69-.33-.94-.98-.9.37.05 2.35-.79 4.49-.82 2.05.9 3.31.47.34.69-.19.31-.75.23-1.6-.06-.61.55-.66.25-.02.34.2a.42.41 67.9 0 0 .53.23q.49-.18.4-.73-.05-.4.21-.7.16-.18.37-.16.26.03.31.28.42 2.15-.57 4.05-.28.55.01 1.1.69 1.33.84 2.88.06.66.61.28.45-.31.37-.93-.1-.87.62-.37.4.28.29.77a.5.5 0 0 0 .86.44q.3-.34.72-.35a.39.38 11.8 0 1 .36.54l-1.5 3.39q-.16.38.02.75.33.67.38 1.48.03.42-.38.5l-.42.08q-.64.12-.77-.52l-.41-2.04a1.18 1.18 0 0 0-.63-.83l-3.37-1.7q-.62-.31-.64.38-.02.56.43 1.01.57.56-.22.66c-1.27.16-2.68-.14-3.17 1.49q-.16.53.32.78.83.43 1.18 1.33.1.24-.16.29l-.31.07q-.19.03-.23-.15-.11-.49-.58-.59-.47-.11-.55.36-.26 1.6.71 2.71.38.44-.21.47-.43.02-.62-.46-.3-.74-.73-.06l-.3.48q-.29.47-.42-.07-.1-.41.24-.64a.62.61 76.4 0 0 .27-.45q.17-1.56-.52-3.02-.24-.5-.01-1l1.56-3.47q.23-.53-.29-.77l-3.05-1.42q-.48-.23-.18-.67.25-.36.39-.78.76-2.22-1.26-2.55-.61-.1-.24-.59l.58-.78q.56-.75-.32-1.1l-.9-.35a.94.92-80.7 0 1-.58-.82l-.09-1.93q-.1-1.96-1.3-.42-.39.49-.87.81-.79.5-.83-.43l-.06-1.41q-.05-1.3-.98-.38c-1.11 1.12-.96 3-.92 4.45q.01.55-.37.96-1.64 1.72-4.01 1.57-.53-.03-.91.35l-2.65 2.69a.74.74 0 0 0 .28 1.22q1.85.66 3.3 2.55.29.38-.17.48-1.55.35-1.95 2.27-.16.77.21 1.58.36.81.72 1.57.29.62-.37.83-1.12.35-1.29 1.71-.08.64-.59.24l-.24-.18q-.11-.08-.07-.21 1.21-4.94-3.48-6.3-.48-.14-.5.36-.02.73.5 1.27.38.39.21.91-.23.71-1 1.03-.55.23-.36-.33.1-.28.3-.49.46-.49-.04-.95-.27-.25-.36-.62-.19-.77.11-1.51 1.02-2.5-.06-4.75-.28-.57.12-1.06.34-.42.5-.93.23-.7-.46-.97l-.91-.35q-.53-.2-.44-.77.16-1.06 1.35-1.13a.45.45 0 0 0 .26-.79l-1.21-1.01q-.39-.33-.11-.75.77-1.16.64-2.73-.04-.41-.42-.57-.79-.32-1.5.31-.88.77-1.01-.39l-.13-1.1q-.07-.65-.7-.84-.69-.21-1.41-.11a.99.99 0 0 0-.55 1.7q.55.52.75 1.22.17.59-.39.86l-3.04 1.45q-.54.25-.73.82l-.15.43q-.24.72-.55.03l-1.27-2.87q-.29-.67-.68-.05l-3.14 5.06q-.77 1.25.66.95.3-.07.56-.21.64-.34.72.38l.06.6q.09.85.77.33l.43-.32a.48.48 0 0 1 .75.24q.24.81-.52 1.17-.46.22-.93.38a.75.75 0 0 0-.51.79q.13 1.2-.57 2.12a.67.67 0 0 0-.1.66q.25.65.85 1.04.44.3.78-.12.21-.26.51-.41.55-.29.32.29-.32.79-1.17 1.22a1.54 1.54 0 0 1-2.04-.65l-1.21-2.2q-.3-.56-.95-.59-.32-.01-.53.21-.45.47-.94.04l-.34-.29q-.35-.3-.64.06-.17.21-.12.47.09.49.77 1.74.2.36-.18.51l-.33.13a.7.7 0 0 1-.91-.41l-.75-1.99q-.22-.59.27-.97 1.47-1.13 1.16-2.98a.82.81-88.4 0 0-.62-.66q-1.79-.41-1.23-2.52.14-.5.63-.64l.91-.26q.69-.2.4-.85-.47-1.08-1.43-1.76-.51-.36-.18-.89.69-1.09.5-2.35-.12-.85-1.01-.92a1 1 0 0 1-.58-1.75q.82-.71.58-1.64a.65.64 82.3 0 0-.62-.48l-2.48-.05q-.57-.01-.71-.57-.37-1.52.62-2.79a1.1 1.08-36.9 0 0 .16-1.06q-.48-1.27-1.85-1.68-.65-.19-.76.48-.06.33.16.57.41.46-.1.8l-1.88 1.22a1.11 1.11 0 0 0-.21 1.68l1.49 1.63q.4.45-.08.81-.97.71-2.05 1a.87.86-4 0 0-.64.73l-.08.65q-.12.95-.74.11-.34-.47-1.29.07a.99.94 85.6 0 0-.44.54q-.19.59.22 1 .62.61-.22.8-.14.03-.29.03-.4 0-.7-.26-1.15-1-2.24-2.14-.78-.82-1.58 0-.64.66-.11 1.36a.82.81 33.9 0 1 .14.68q-.41 1.74-1.76 2.42-.53.26-.69.83l-.63 2.3q-.16.57.06 1.12l.22.56q.76 1.94 1.32-.06.29-1.04 1.07-1.64.61-.48.68.29l.16 1.74q.05.62.66.49.24-.05.35-.27.38-.73.8-.03.37.6-.14 1.11-2.47 2.43-1.54 5.8a.86.83-6.3 0 0 .8.62q1.61.05 2.73 1.2.55.57-.23.67l-1.58.22q-.6.08-.79.66-.28.83-.17 1.74.04.36-.3.47-.14.05-.29-.02-.08-.03-.1-.11-1.03-3.2-3.22-5.45a.6.59 26.5 0 0-1.02.34q-.26 2.2-2.27 2.43-.76.08-.28.67.95 1.17-.03 2.36a1.5 1.5 0 0 0-.26 1.42q.13.39.39.71.48.61-.28.69-.52.06-.9-.28-.33-.3-.36-.74-.12-1.74-1.39-2.95-.35-.33-.11-.75 1.37-2.39 1.55-4.98.04-.53-.34-.89-1.69-1.58-3.74-.47a.7.69-15.1 0 1-1.02-.58c-.11-2.32.96-2.16 1.82-3.74q.24-.45.03-.9l-.98-2.08q-.25-.51-.73-.21l-.31.19q-.3.19-.61.05-.65-.3-.79-.9-.1-.48.18-.92 1.17-1.83 1.52-3.72.12-.63-.47-.88l-1.93-.82a.77.76-55.9 0 0-.85.17q-.53.56-1.28.46-.68-.1-.24-.63.55-.66.23-1.4-.21-.47-.01-.94l.93-2.21q.21-.51-.05-1-.3-.58-.42-1.24-.13-.7-.71-.29-1.44 1.02-3.29.55a.58.57 6.5 0 0-.72.57q0 .28.18.49.49.56.03 1.14-.68.84-1.62.99-.72.11-.76-.63l-.19-3.49q-.02-.5-.47-.71l-.87-.42q-.61-.3-.54-.98.07-.6.58-.95.55-.38-.05-.69-.04-.03-.09-.02-.33.03-.41.36-.05.24-.24.3-.46.14-.67-.29l-2.02-4.13c1.81-3.36 3.72-7.57 6.05-10.12q3.94-4.33 10.1-5.8 13.58-3.24 26.53-6.7c13.37-3.57 21.98-9.77 24.23-23.88q.1-.62.57-1.03 5.3-4.64 11.71-.5"/><path d="M166.54 77.7q-2.97.51-4.22-2.32z"/><path fill="#46e479" d="M256.21 80.44q3.4 1.59 7.1 2.25 8.31 1.48 16.64 2.83c2.24.37 4.18 2.35 4.05 4.77q-.24 4.36 1.03 8.72c1.53 5.26 5.84 6.51 10.66 8.25q.21 1.52 1.32 2.28.41.29.84.03l1.2-.71c1.57.51 2.5 1.23 2.79 2.98q.96 5.8.92 11.73-1.83-.99-2.45-1.64-2.36-2.49-2.29.88.02.76-.13 1.55-.12.62-.65.95l-1.64 1.03q-.56.35-.56 1.01 0 1.06-.62 1.84-.54.67.31.77l.5.06a.75.75 0 0 1 .67.71l.22 3.76a.68.68 0 0 0 .57.63q.15.03.31.01.73-.09.47.6l-.56 1.45q-.09.24-.25.45-.39.52-.63.09-.08-.15-.04-.31.39-1.78-.74-2.91-.36-.36-.84-.15l-2.88 1.31q-.61.28-.58-.39.07-1.64.89-2.94.26-.4 0-.79-.36-.55-1.02-.52-.53.02-.37-.49.75-2.23.03-5.97-.08-.42-.49-.53-1.07-.29-1.06-1.48a.43.42-1.3 0 0-.46-.43q-.13.01-.23.11-.11.11-.13.26-.22 1.56-1.7 2.55-.45.3-.86-.07-.73-.67-.63-1.8.16-1.61-1.02-.49l-1.53 1.47a.58.57-48.3 0 0 .05.88q.89.66 1.49 1.57.27.41.09.88-.25.67-.74.15-.21-.23-.51-.31-.5-.12-.89.2-.36.31-.76-.04-.34-.31-.81-.34l-2.78-.19a.41.4-65.9 0 1-.26-.69l2.33-2.37q.35-.35.06-.75l-.26-.34a1.02 1.01 38.9 0 1-.11-1q1.21-2.69 1.42-5.64c.07-1.06-.46-1.46-.68-2.42q-.18-.81-.88-.36l-.56.36a1.1 1.1 0 0 1-1.3-.08q-.7-.59-1.43-.18-.8.45-.86-.47l-.11-1.57a.28.27 75.3 0 0-.39-.23l-1.99.92q-.3.14-.14.44.21.41.41.84.82 1.8-.82 2.65-.91.48-1.24 1.56-.08.27-.35.35-.23.06-.31-.07-.09-.11-.07-.26.11-1.39-.05-2.87-.06-.55-.61-.67-.59-.12-1.22-.16-.7-.04-1.03-.59-.21-.35-.04-.72.19-.41.63-.5.58-.12 1.03-.48.37-.29.37-.76.01-1.14-.65-2.05a.32.31 57.7 0 1 .1-.45q1.84-1.07 2.35-3.41.14-.62-.32-1.04-.17-.16-.22-.39a.41.4-85.8 0 1 .54-.47q.35.14.58-.05.24-.22.12-.52l-1.34-3.16q-.22-.54.11-1.01.51-.71.64-1.5a.67.67 0 0 0-.5-.76q-.94-.25-1.84-.09-.71.12-.29.7.77 1.06-.29 1.82-.56.4-1.07-.05-.91-.8-1.07-1.88-.06-.46-.48-.26-1.89.9-2.44-1.51-.19-.81-.88-.35c-1.32.87-2.68.22-3.7 1.64q-.46.64.3.84l.55.15q.75.2.72.98l-.08 2.17q-.03.88-.75.38-.17-.12-.27-.3-.28-.49-.56 0-1.62 2.7.36 4.99.49.55-.24.42-.22-.04-.39-.18-.5-.42-1.06-.1l-.3.17q-.57.32-.59-.34l-.1-3.55a2.32 2.32 0 0 0-3.32-2.03l-1.85.89q-.82.39-.34-.38 1.26-1.99-.15-3.42-.28-.28.02-.54.12-.1.26-.09.12 0 .19.1 1.09 1.43 2.52.04.91-.89.35-2.03l-1.37-2.75q-.29-.59.37-.55l1.48.09q.47.03.66-.4.37-.87-.28-1.54a.64.63 43.3 0 1-.03-.86q.61-.73-.02-1.42-.37-.41.05-.76.21-.18.51-.1a.47.46 30 0 0 .45-.12q.76-.74.17-1.35a.93.89-79 0 1-.21-.33q-.25-.68.07-1.06.3-.37.07-.78-.72-1.32.62-1.9M181.3 96.16q.33-.16.35.2.01.32-.19.51-.49.45-.48-.22.01-.35.32-.49M180.81 97.96q.36-.01.14.72a.37.37 0 0 1-.58.18q-.19-.15-.04-.57a.52.51-79.1 0 1 .48-.33"/><path d="m299.05 108.86-1.2.71q-.43.26-.84-.03-1.11-.76-1.32-2.28z"/><path fill="#46e479" d="M82.46 124.38c.61.83.58 1.91-.08 2.71q-.3.36-.31.83-.02.48.29.85.46.54.54 1.22.06.46-.24.8l-1.11 1.27q-.44.5-.02 1.02.09.12.14.26.19.48-.32.6-1.06.23-1.88.94-.37.31-.16.74c.68 1.42.49 3.56 2.06 4.25q.54.24.46-.34-.03-.26-.21-.4-.45-.32-.29-.85.22-.71.94-1.09.52-.28.67.29.56 2.04.35 3.89a1.05 1.03-59.9 0 0 .19.74q.43.6.37 1.29-.08.86-.67.24-.18-.18-.4-.29-.81-.4-.76.5.03.75.61 1.31t-.18.84q-.45.18-.87-.03-.37-.19-.66-.52-.66-.74-1.59-.48c-1.96-3.43-1.57-6.68-1.5-10.93q.04-2.06 1.08-3.82 1.75-2.94 3.55-5.84M192.4 126.7q-.25-.08-.27-.34-.02-.33.3-.26.28.06.28.37.01.33-.31.23"/><ellipse fill="#46e479" rx="1.08" ry=".4" transform="rotate(-40.7 315.76 -313.754)"/><path fill="#46e479" d="M80.04 146.98q-.38-.52-.27-.92.23-.25.7.08a.59.58-61.7 0 1 .2.68q-.09.22-.63.16M129.31 157.22a.33.33 0 0 1 .58.09q.11.32-.19.55a.24.24 0 0 1-.26.03q-.45-.23-.13-.67M298.58 196.72l-.88 5.09q-.91.89-.39 1.9-1.19.25-1.67-.7a1.13 1.09 42.7 0 1-.05-.89l.92-2.41q.17-.45-.09-.85-.33-.54.23-.94a.58.58 0 0 0 .09-.87q-.9-.97-2.12-1.24-.6-.13-.29-.66.25-.44.66-.67.44-.26.84.06z"/><path d="M297.7 201.81q.04.97-.39 1.9-.52-1.01.39-1.9"/><path fill="#46e479" d="M289.35 252.79q-.89 6.4.54 12.91.58 2.69-.73 4.62-.74 1.09-3.44 2.63c-6.48 3.69-12.75 7.31-19.29 11.82q-6.24 4.31-13.15 8.76-16.07 10.35-33.85 16.67l-1.11-1.33q-.35-.43.05-.8l1.13-1.06q.44-.41.14-.93-.36-.64-1.15-.86a.57.57 0 0 0-.58.19q-.21.27-.53.29-.53.02-.79-.44-1.11-1.98-.07-4.31.51-1.13-.09-2.13-.3-.5.25-.67l.54-.17a.93.93 0 0 0 .66-.85l.12-3.14q.03-.71-.68-.71-.19 0-.25.12-.41.82-.86.01-.5-.91-.95-1.89-.95-2.09.97-.82.38.25.82.23.53-.02.89-.41 1.02-1.14 2.42-1.67a.51.5 57.6 0 0 .18-.83q-.15-.15-.22-.35-.17-.49.34-.61.13-.03.26-.04a1.07 1.06 7 0 0 1-.78q.19-.73.05-1.5-.13-.66-.72-.33-1.56.85-1.93-.87-.51-2.33-1.18-4.78-.15-.52.05-1.03.39-.96.72-2.03.21-.7-.1-1.27-.28-.5-.64-.05-.14.17-.33.26-.65.29-.75-.41c-.33-2.27-2.63-2.1-4.22-2.82q-.49-.23-.73.25l-1.19 2.35q-.08.17-.03.35.04.14.13.25.39.5.79 0 .14-.18.34-.29.5-.28.72.25l.61 1.51a1.41 1.39 48.7 0 1-.07 1.2q-.55.98.12 1.97.51.75-.4.73-.68-.02-1.2-.49-.58-.52-.87.2l-.64 1.58q-.19.47.1.88.27.37.34.83.11.65-.49.92-.84.38-1.65.83-.84.46-.45-.39.1-.24.34-.36a.31.31 0 0 0 .12-.45q-.99-1.4-.8-3.38.14-1.42-1-.58-.23.17-.5.25-.59.2-1.12-.12-.64-.38-1.36-.52-.9-.18-.93.74l-.1 2.54a.82.82 0 0 1-1.38.56l-1.73-1.65q-.37-.35-.8-.08l-.33.21q-.99.62-.3-.33.32-.45.78-.78c.85-.64 1.07-1.77.29-2.57q-.31-.31.09-.49 2.17-.93 3-3.81.12-.42-.14-.77-.66-.87.08-1.65a.82.81 55.1 0 0 .15-.89q-.28-.61-.91-.87-.37-.15-.7.08l-.28.2q-.44.31-.68-.18l-1.12-2.4q-.22-.49.03-.97.72-1.39.9-2.81c3.26-5.08 6.92-8.57 5.49-15.31l-.28-4.17-.03-1.64q.67.49 1.3.66.64.18.63-.48-.04-2.68.67-5.12.51-1.76-.86-3a.44.44 0 0 0-.74.29l-.14 1.67q-.05.62-.67.59-.51-.03-.95-.82l-.18-1.65-.04-1.25-.66-5.8q1.11-.32 2.31.71.39.34.86.1.14-.07.19-.23.09-.26-.06-.5l-.49-.79a.36.36 0 0 1 .37-.55q1.97.34 3.07-1.17.43-.58-.18-.97-.67-.42-1.21-1.03t.26-.52q.45.06.76.4.6.67.75-.22.27-1.59-.61-2.68-.39-.48.23-.52.22-.01.3.15.41.8.94.1.11-.16.3-.24.63-.26.3.34-1 1.86.11 3.73.32.53.06 1.08l-1.54 3.27q-.34.73.38 1.09l2.69 1.31q.51.26.26.77-1.34 2.73.75 3.32.74.21.28.82l-.32.42q-.6.79.27 1.29l.88.5q.62.36.62 1.07v1.48q.01 1.95 1.31.5l.94-1.03q.7-.78.71.27l.01 1.43q.01 1.63 1.21.51c.55-.52.77-1.42.73-2.16q-.27-4.91 4.62-4.84.49.01.85-.33l2.43-2.31a.93.92-54.8 0 0-.26-1.52q-1.9-.82-3.28-2.58-.37-.46.22-.56 1.74-.3 2.1-2.46a.74.73 39.8 0 0-.04-.41l-1.05-2.54q-.19-.45.28-.58 1.08-.3 1.25-1.46.06-.37.39-.55.14-.08.31-.01.18.08.19.28l.16 3.55a1.38 1.36-71.1 0 0 .48 1q1.17 1.04 2.61 1.67 1.54.67.69-.78-.99-1.68.38-2.59.8-.53.4.35-.1.2-.18.42-.21.5.04.99.83 1.65-.13 3.29-.26.43-.23.94.06 1.23.67 2.31.28.49-.01.97l-.76 1.31a.63.63 0 0 0 .36.92l1.08.34q.8.25.55 1.04-.26.83-1.31.73-1.44-.13-.41.89l1.16 1.15q.37.36.14.83-.52 1.03-.6 2.3a.95.95 0 0 0 1.47.85l.84-.54q.51-.34.59.27l.18 1.45q.08.69.74.91 1.01.33 1.85-.18a.75.74-31.2 0 0 .26-1.03l-.83-1.4a.85.84 62.3 0 1 .37-1.2l3.13-1.46a.87.87 0 0 0 .5-.77q.01-.21.08-.41.32-.82.67-.01l1.24 2.92q.29.67.67.05l3.19-5.21q.44-.71-.37-.92-.42-.11-.69.24a.54.54 0 0 1-.97-.32v-.68q-.01-.92-.72-.33l-.34.29q-.62.52-.86-.25-.16-.52.33-.99a.89.87 23.9 0 1 .62-.23q.37.01.65-.23.43-.36.37-.91-.13-1.11.55-1.98a.85.84 56.8 0 0 .15-.74q-.19-.76-1.03-1.07a.55.55 0 0 0-.72.36q-.11.36-.49.31-.61-.1-.18-.54l.65-.67a1.63 1.62 53.2 0 1 2.61.38l1.19 2.28q.41.79 1.17.32.8-.5 1.48.15a.4.4 0 0 0 .68-.32q-.06-.86-.63-1.58-.33-.4.04-.76l.2-.2a.47.47 0 0 1 .68.02q1.94 2.12.36 3.96-.63.73-.64 1.8-.02 1.24 1.1 1.42.73.12.85.86.31 1.88-1.35 2.2a.88.88 0 0 0-.47 1.47l1.25 1.31a1.01 1 38.5 0 1 .14 1.2q-1.39 2.34.93 3.17.87.31.38 1.09l-.81 1.26a.82.82 0 0 0 .65 1.26l2.62.13q.69.03.72.72.05 1.34-.62 2.37a1.75 1.74-52.9 0 0 .31 2.28q.97.85 1.72.53.7-.3.13-.78-.25-.21-.31-.51-.1-.43.33-.55.87-.25 1.61-.8a1.62 1.62 0 0 0 .15-2.47l-1.1-1.06a.55.54 47.8 0 1 .04-.83q1.08-.85 2.34-1.25.43-.15.44-.6 0-.29.1-.56.24-.64.71-.15l.2.2a.64.63 53.8 0 0 .74.12q.5-.26.79-.67.28-.42.01-.84l-.35-.54q-.31-.48.23-.7.64-.26 1.15.22 1.24 1.16 2.4 2.32a.82.81 43.3 0 0 1.18-.03q.55-.61.24-1.31-.19-.41-.08-.84.44-1.75 1.72-2.49.41-.24.64-.65 1.38-2.43.22-4.36-.84-1.41-1.07.21-.15.99-1.04 1.64-.74.53-.8-.38l-.1-1.52q-.06-.93-.86-.44l-.41.25q-.55.34-.75-.27-.14-.44.22-.77 2.66-2.43 1.6-6.04-.13-.44-.59-.44c-1.04 0-2.39-.37-2.97-1.32q-.4-.65.36-.71l1.79-.13q.53-.04.58-.57l.15-1.77q.02-.22.22-.31.16-.08.36-.04.15.03.2.18.98 3.22 3.35 5.42a.44.44 0 0 0 .73-.28q.2-2.12 2.37-2.65.82-.2.25-.82-1.03-1.1.09-2.29a1.04 1.03-35.3 0 0 .2-1.12l-.42-.99q-.27-.64.41-.77.15-.04.31 0 .61.14.68.77.19 1.77 1.31 3.15.37.44.19.99c-.43 1.33-1.6 3.8-1.3 5.16a2.52 2.16-18.9 0 0 3.36 1.33q.44-.19.89-.2.57 0 .66.55c.3 1.73-.71 2.65-1.73 3.8a.92.92 0 0 0-.05 1.16q.59.78.86 1.73.23.82.89.27l.22-.18a.68.67-50 0 1 .74-.07q.8.42.73 1.22-.03.4-.26.74-1.17 1.8-1.39 3.65a.85.84-75.9 0 0 .52.88l1.77.73a.9.89-54.3 0 0 .93-.16q.43-.36.99-.33.64.03.32.58-.37.64-.07 1.33.24.52.02 1.04l-.84 2.01q-.2.48-.02.97.58 1.58 1.78 2.79"/><path fill="#46e479" d="M253.22 225.33q.14-.26.4-.18a.29.28-63.8 0 1 .14.42q-.35.55-.56.01a.29.29 0 0 1 .02-.25"/><path d="m204.14 234.28-.04-1.25zM205.08 242.14l-.76-6.21q.44.79.95.82.62.03.67-.59l.14-1.67a.44.44 0 0 1 .74-.29q1.37 1.24.86 3-.71 2.44-.67 5.12.01.66-.63.48-.63-.17-1.3-.66M205.39 247.95l-.28-4.17zM199.9 263.26q-.18 1.42-.9 2.81-.25.48-.03.97l1.12 2.4q.24.49.68.18l.28-.2q.33-.23.7-.08.63.26.91.87a.82.81 55.1 0 1-.15.89q-.74.78-.08 1.65.26.35.14.77-.83 2.88-3 3.81-.4.18-.09.49c.78.8.56 1.93-.29 2.57q-.46.33-.78.78-.69.95.3.33l.33-.21q.43-.27.8.08l1.73 1.65a.82.82 0 0 0 1.38-.56l.1-2.54q.03-.92.93-.74.72.14 1.36.52.53.32 1.12.12.27-.08.5-.25 1.14-.84 1 .58-.19 1.98.8 3.38a.31.31 0 0 1-.12.45q-.24.12-.34.36-.39.85.45.39.81-.45 1.65-.83.6-.27.49-.92-.07-.46-.34-.83-.29-.41-.1-.88l.64-1.58q.29-.72.87-.2.52.47 1.2.49.91.02.4-.73-.67-.99-.12-1.97a1.41 1.39 48.7 0 0 .07-1.2l-.61-1.51q-.22-.53-.72-.25-.2.11-.34.29-.4.5-.79 0-.09-.11-.13-.25-.05-.18.03-.35l1.19-2.35q.24-.48.73-.25c1.59.72 3.89.55 4.22 2.82q.1.7.75.41.19-.09.33-.26.36-.45.64.05.31.57.1 1.27-.33 1.07-.72 2.03-.2.51-.05 1.03.67 2.45 1.18 4.78.37 1.72 1.93.87.59-.33.72.33.14.77-.05 1.5a1.07 1.06 7 0 1-1 .78q-.13.01-.26.04-.51.12-.34.61.07.2.22.35a.51.5 57.6 0 1-.18.83q-1.4.53-2.42 1.67-.36.39-.89.41-.44.02-.82-.23-1.92-1.27-.97.82.45.98.95 1.89.45.81.86-.01.06-.12.25-.12.71 0 .68.71l-.12 3.14a.93.93 0 0 1-.66.85l-.54.17q-.55.17-.25.67.6 1 .09 2.13-1.04 2.33.07 4.31.26.46.79.44.32-.02.53-.29a.57.57 0 0 1 .58-.19q.79.22 1.15.86.3.52-.14.93l-1.13 1.06q-.4.37-.05.8l1.11 1.33-3.23.94q-.2-.9-.84-1.12-.69-.24-1.1.31-.41.53-.02 1.5l-3.32.88q.16-1.25.13-1.83-.09-1.73-.91-.2-.15.26-.1.56.08.6-.49.82-.72.27-1.27-.18-.37-.31-.33-.79.07-.73.57-1.32.45-.54-.24-.39-.07.01-.1.07-.26.51-.84.59-.62.08-1.06-.29-.5-.41-.21-.98l.44-.87q.26-.51-.05-.99-.25-.41-.64-.67-.46-.32-.67.21-.14.35-.12.75.02.55-.45.84-.34.22-.74.07c-.69-.25-.83-.91-.97-1.55q-.16-.72-.9-.63l-.44.06a.54.54 0 0 0-.44.7q.35 1.11.77 2.3.65 1.8-1.13 2-.65.08-.34.65.71 1.32.93 2.71.08.45.54.47l.39.03-8.15.01q-.57 0-.9-.47c-2.27-3.3-4.06-6.03-2.67-10.56q5.79-18.95 7.71-37.3.11-1.11 1.66-3.27m2.16 21.74a.39.39 0 0 0 .61-.2q.14-.44.03-.58a.31.31 0 0 0-.54.09q-.21.6-.1.69m-.85 1.45a.3.3 0 0 0 .41.38q.43-.2.45-.71a.23.23 0 0 0-.3-.23q-.4.13-.56.56"/><path fill="#46e479" d="M202.06 285q-.11-.09.1-.69a.31.31 0 0 1 .54-.09q.11.14-.03.58a.39.39 0 0 1-.61.2M201.21 286.45q.16-.43.56-.56a.23.23 0 0 1 .3.23q-.02.51-.45.71a.3.3 0 0 1-.41-.38M210.92 312.71l-4.4 1.89q-.41-.1-.76.1-.45.01-.54.1-2.19-1.08-2.53-.03l-.44.08-.39-.03q-.46-.02-.54-.47-.22-1.39-.93-2.71-.31-.57.34-.65 1.78-.2 1.13-2-.42-1.19-.77-2.3a.54.54 0 0 1 .44-.7l.44-.06q.74-.09.9.63c.14.64.28 1.3.97 1.55q.4.15.74-.07.47-.29.45-.84-.02-.4.12-.75.21-.53.67-.21.39.26.64.67.31.48.05.99l-.44.87q-.29.57.21.98.44.37 1.06.29.58-.08.84-.59.03-.06.1-.07.69-.15.24.39-.5.59-.57 1.32-.04.48.33.79.55.45 1.27.18.57-.22.49-.82-.05-.3.1-.56.82-1.53.91.2.03.58-.13 1.83M216.2 311.14l-1.96.69q-.39-.97.02-1.5.41-.55 1.1-.31.64.22.84 1.12"/><path d="M205.22 314.8q-1.26.19-2.53-.03.34-1.05 2.53.03M206.52 314.6q-.35.15-.76.1.35-.2.76-.1"/></svg>