<svg xmlns="http://www.w3.org/2000/svg" viewBox="0 0 382 382"><defs><clipPath id="a"><path d="M206.44 314.67h-12.95c-1.21-2.51-3.68-5.19-3.38-7.49.75-5.57 2.98-10.93 4.26-16.45 1.32-5.69 2.27-11.47 3.26-17.23.45-2.59 0-5.5 1.03-7.79 1.44-3.23 4.06-5.91 5.79-9.04.92-1.65 1.56-3.78 1.43-5.63-.52-7.52-1.58-15.01-2.06-22.53-.5-7.85-4.73-14.92-12.25-16.61-7.27-1.63-14.94-2.3-22.38-1.99-5.67.24-10.44-.05-14.85-3.97-4.27-3.81-9.03-7.07-13.42-10.76-10.97-9.21-23.3-14.58-37.79-15.62-13.59-.97-23.89-11.32-22.18-27.83.35-3.39-1.96-7.06-3.05-10.6v-8.98c2.87-4.82 6.05-9.49 8.52-14.51 2.88-5.83 7.45-8.74 13.57-10.16 9.19-2.13 18.35-4.43 27.43-6.98 11.92-3.35 20.95-9.71 22.65-23.23.12-.97 1.37-2.05 2.36-2.6 5.11-2.85 9.16.46 13.25 2.7 3.34 1.83 5.3 1.31 7.01-2.2 2.7-5.54 6.16-6.44 11.54-4.15 1.78.76 4.49 1 6.09.17 5.44-2.82 11-2.87 16.83-2.25 1.35.14 2.85-1.04 4.28-1.61h2.99c.54.52.99 1.31 1.63 1.51 5.05 1.63 10.13 3.21 15.24 4.64.82.23 1.86-.51 2.81-.58 3.67-.27 7.73-1.53 10.93-.39 3.66 1.3 6.42 4.96 9.83 7.21 2.03 1.34 4.48 2.32 6.87 2.81 5.88 1.22 11.85 2.03 17.76 3.08 3.22.57 4.62 2.39 4.46 5.87-.12 2.71.25 5.59 1.09 8.16 2.07 6.3 8.55 6.38 13.31 8.91 1.21.64 3.07 1.46 3.22 2.42.65 4.02 1.13 8.15.98 12.21-.15 4.04-1.57 8.05-1.56 12.07 0 1.96 2.01 3.91 3.1 5.87v22.94c-.77 4.18-1.59 8.36-2.3 12.55-1.89 11.1-3.76 22.2-5.6 33.31-1.17 7.08-2.2 14.17-3.41 21.24-.71 4.18-1.82 8.29-2.44 12.48-.7 4.73-1.27 9.5-1.46 14.27-.12 2.91.57 5.85.94 8.77.33 2.58-.56 4.1-3.01 5.47-6.85 3.82-13.69 7.76-20.12 12.23-17.42 12.11-35.35 23.07-56.19 28.34-1.42.36-2.71 1.27-4.06 1.93z"/></clipPath></defs><g clip-path="url(#a)"><svg xmlns="http://www.w3.org/2000/svg" width="382" height="382" style="shape-rendering:geometricPrecision"><path fill="#abef27" stroke="#abef27" d="m382 127.296-40.269 24.368-14.95-42.955L382 108.09zM133.471 382l3.628-27.788 43.399-6.017L169.137 382zM182.007 115.89l-33.46 32.936-11.395 3.528-6.352-2.353-18.443-26.402-6.33-16.825 23.67-16.429 33.687-11.077zM262.23 147.84l-26.56-47.143.752-4.796 5.073-3.608 72.967-.536 1.939 8.727-45.753 55.276z"/><path fill="#abef27" stroke="#abef27" d="m382 181.632-48.123-1.155 7.854-28.813L382 127.296z"/><path fill="#2cf88c" stroke="#2cf88c" d="m246.887 34.806-7.804-23.153L249.503 0h45.866l-14.028 36.933-8.434 4.378z"/><path fill="#abef27" stroke="#abef27" d="m270.648 155.76 45.753-55.276 10.38 8.225 14.95 42.955-7.854 28.813-2.553 1.914-13.88 5.547-16.567-2.326-27.774-21.94zM0 382V280.806l67.024-22.669 22.472 79.676L60.692 382zM124.362 258.462l36.088-12.388 38.528 48.548-.28 1.76-37.839 24.15-24.146-2.533z"/><path fill="#2cf88c" stroke="#2cf88c" d="m271.708 269.448 16.923 10.694 7.326 18.005 8.966 45.135-17.437 1.25-45.556-28.629-4.474-30.02 19.033-14.13z"/><path fill="#abef27" stroke="#abef27" d="m193.184 159.318-44.637-10.492 33.46-32.937 22.299 2.86-1.643 23.505-8.349 15.642z"/><path fill="#2cf88c" stroke="#2cf88c" d="m199.88 206.113 45.696 4.814 4.329 11.478-33.729 14.123-29.871-13.148z"/><path fill="#abef27" stroke="#abef27" d="m241.93 315.903 45.556 28.63-64.754 18.678-10.258-14.413zM314.462 91.757l2.099-10.162 9.132-6.366 48.834 22.708 7.473 6.959v3.194l-55.22.619-10.38-8.225z"/><path fill="#2cf88c" stroke="#2cf88c" d="M130.8 150 74.98 217.233 49.42 177.588l62.938-53.989zM220.248 382l2.484-18.79 64.754-18.678 17.437-1.25.906.848L323.222 382zM330.46 248.24 382 262.43v12.377l-86.043 23.34-7.326-18.005z"/><path fill="#abef27" stroke="#abef27" d="m60.692 382 28.804-44.187 40.42-.95 7.183 17.35L133.47 382zM203.588 189.189l19.194-31.29 6.732-4.792 32.716-5.267 8.418 7.92 2.455 7.913-3.649 2.902-64.912 28.853zM194.314 157.896l8.349-15.642 26.85 10.853-6.731 4.792zM300.877 185.612l16.568 2.326 13.016 60.302-41.83 31.902-16.923-10.694.529-31.01zM241.495 92.293l31.412-50.982 8.434-4.378 35.22 44.662-2.099 10.162z"/><path fill="#abef27" stroke="#abef27" d="M382 0v6.606L343.68 59.91l-17.987 15.32-9.132 6.366-35.22-44.662L295.369 0zM0 137.26l49.42 40.328 25.561 39.644 1.98 33.388-9.937 7.517L0 280.806z"/><path fill="#2cf88c" stroke="#2cf88c" d="M295.957 298.147 382 274.807v19.896l-76.171 49.427-.906-.848z"/><path fill="#abef27" stroke="#abef27" d="m216.176 236.528 33.729-14.123 22.332 16.032-.529 31.01-15.22 2.307zM204.542 195.428l64.912-28.853-23.878 44.352-45.697-4.814z"/><path fill="#2cf88c" stroke="#2cf88c" d="m160.86 320.532 20.3 27.238-.662.425-43.4 6.017-7.182-17.35L136.713 318z"/><path fill="#abef27" stroke="#abef27" d="M106.028 106.774 47.863 73.539 74.158 0h57.374l-1.835 90.345zM193.184 159.318l10.404 29.87.954 6.24-4.663 10.685-13.574 17.267-14.013 6.205-35.14-77.23 11.395-3.529z"/><path fill="#2cf88c" stroke="#2cf88c" d="m137.152 152.354 35.14 77.231-11.842 16.49-36.088 12.387-47.402-7.842-1.979-33.388 55.819-67.231z"/><path fill="#abef27" stroke="#abef27" d="M382 382h-58.778l-17.393-37.87L382 294.703z"/><path fill="#2cf88c" stroke="#2cf88c" d="m169.137 382 11.361-33.805.663-.425 25.458-3.82 5.855 4.848 10.258 14.413L220.248 382z"/><path fill="#abef27" stroke="#abef27" d="m229.514 153.107-26.851-10.853 1.643-23.506 31.365-18.051 26.559 47.143z"/><path fill="#2cf88c" stroke="#2cf88c" d="m198.978 294.622 38.478-8.74 4.474 30.021-29.456 32.895-5.855-4.848-7.922-47.567z"/><path fill="#2cf88c" stroke="#2cf88c" d="m186.305 223.38 29.871 13.148 40.313 35.226-19.033 14.128-38.478 8.74-38.528-48.548 11.842-16.489z"/><path fill="#abef27" stroke="#abef27" d="m112.357 123.6-62.938 53.988L0 137.26V97.822l47.863-24.283 58.165 33.235zM245.576 210.927l23.878-44.352 3.65-2.902 27.773 21.94-28.64 52.824-22.332-16.032z"/><path fill="#2cf88c" stroke="#2cf88c" d="m124.362 258.462 12.351 59.537-6.797 18.863-40.42.95-22.472-79.675 9.936-7.517z"/><path fill="#abef27" stroke="#abef27" d="m163.384 79.268-33.687 11.077L131.532 0h38.437l9.523 16.704 9.8 25.97.065 1.348z"/><path fill="#abef27" stroke="#abef27" d="m246.887 34.806-57.595 7.868-9.8-25.97 59.591-5.051z"/><path fill="#2cf88c" stroke="#2cf88c" d="m182.007 115.89-18.623-36.622 25.973-35.246L236.422 95.9l-.751 4.796-31.365 18.051zM382 262.43l-51.54-14.19-13.015-60.302 13.879-5.547L382 243.918z"/><path fill="#2cf88c" stroke="#2cf88c" d="m382 243.918-50.676-61.527 2.553-1.914L382 181.632zM198.697 296.383l7.922 47.567-25.458 3.82-20.302-27.238z"/><path fill="#abef27" stroke="#abef27" d="M374.527 97.937 325.693 75.23l17.986-15.32z"/><path fill="#2cf88c" stroke="#2cf88c" d="m249.503 0-10.42 11.653-59.591 5.051L169.969 0z"/><path fill="#abef27" stroke="#abef27" d="m189.357 44.022-.065-1.348 57.595-7.868 26.02 6.505-31.412 50.982-5.073 3.608z"/><path fill="#2cf88c" stroke="#2cf88c" d="M0 0h74.158L47.863 73.54 0 97.821z"/><path fill="#abef27" stroke="#abef27" d="m382 104.896-7.473-6.959-30.848-38.028L382 6.606zM193.184 159.318l1.13-1.422 28.468.003-19.194 31.29z"/></svg></g></svg>