<svg xmlns="http://www.w3.org/2000/svg" viewBox="0 0 382 382"><g fill="none" stroke="#096e26" stroke-width="2"><path d="m220.69 70.12-.93 2.32q-.2.48-.62.77l-2.33 1.6q-.49.34-.6.92-.25 1.28-.85 2.55-.51 1.07.43.35.64-.5 1.21-1.19.45-.55.96-.06 1.06 1.04 1.12 2.65a.97.95-78.1 0 0 .51.8q.71.37 1.58.16a.44.44 0 0 1 .51.25q.17.38-.06.61-.42.41-.17.94l.17.36q.19.39-.1.71l-1.97 2.2q-.36.4-.51.91-.32 1.06-1.37 1.31-.8.19-.2.75l.82.77q.47.44.14.99-1.66 2.82.13 6 .26.47.78.29.79-.28.2-.87-.66-.67.02-1.28.5-.44.02-.91-.34-.32-.25-.75.12-.66.69-.29.33.22.67.44 1.79 1.18 1.02-.82-.36-.92-.69-1.82-.42-1.11.56-1.73.45-.29.87.04.56.45.6 1.21.03.7.69.46 1.8-.63 2.32-2.05.53-1.44 1.01.01l1.68 5.04q.12.35-.23.49-.26.11-.14.44.19.5.71.35.16-.04.29-.02.46.07.28.5l-1.21 2.88q-.54 1.27.42.27l2.16-2.25q.47-.49.93 0l.61.64q.98 1.02 1.91-.04.54-.62.4-1.26-.17-.78-1.08-.75-.75.02-1.42-.12-.49-.1-.24-.53.07-.12.18-.19.74-.5-.08-.91l-.65-.33q-.52-.25-.47-.83.29-2.91 1.58-5.35a1.5 1.5 0 0 1 2.63-.02q.35.62.96.93.95.46.32-.38-.93-1.26-.15-2.48.61-.95-.48-.7-.64.15-1.15.55-.88.69-.77-.42.29-2.95-1.23-5.77a.6.6 0 0 0-1.07.01l-.78 1.56q-.89 1.79-1.06-.2-.18-2.18.93-4.75.47-1.07-.28-1.99M232.93 73.06q1.47 1.62 2.33-.33M240.53 72.12q-.8.4-1.32 1.2a.99.97-42.2 0 0-.06.96l1.14 2.28q.3.59.72.08l.63-.77q.47-.57-.17-.94-.21-.12-.26-.35-.12-.55.45-.56l.54-.01a.64.63 10.9 0 0 .59-.39q.3-.7-.03-1.54M244.26 72.27q-.4 1.01-.3 1.93.08.77.7.32.76-.56 1.56-.06.48.31.89-.09.29-.27.51-.73M256.68 80.75l-2.03.39q-.91.17-.53 1.02l1.46 3.2q.18.4-.22.6-.12.05-.25.04-.94-.1-1.07.83-.16 1.18.45 2.17.76 1.23-.68 1.02-1.61-.24-2.54 1.2a.33.33 0 0 0 .18.5q1.69.51 2.23 2.63.09.37-.15.65-1.97 2.33-4.13 3.22-.51.21-.18.65.78 1.03 2 1.1.79.05.71-.74-.06-.59.39-.94.55-.43.59.27.07 1.36 1.43 1.59a.73.73 0 0 1 .6.75q-.14 3.01 1.25 5.71.55 1.06.73-.12.17-1.14-.38-2.27a1.05 1.05 0 0 1-.05-.8l.68-2.04a.66.66 0 0 1 .86-.41q.71.27 1.28.75.53.46.58-.24.04-.58-.26-1.07-.4-.67-.14-1.38.21-.58-.17-1.06l-.99-1.24q-.38-.47-.2-1.05.24-.75.8-1.37a.56.56 0 0 1 .97.49q-.14.74.49 1.02a.49.49 0 0 0 .57-.12l.9-1.08q1.01-1.2 1.09.37l.11 2.29q.03.61.57.34 1.43-.7 2.41.93a1 .99-49.9 0 0 1.78-.16q.6-1.56 2.61-2.17.71-.22.29.39-1.46 2.09-.04 4.82.24.47.04.96l-.55 1.37q-.2.51.11.94l.24.33q.42.58-.28.75l-.36.09a1.06 1.06 0 0 0-.79.79q-.31 1.33-1.62 1.68-.57.16-.14.57l1.14 1.11q.84.82-.31 1-.94.15-1.75.95-.4.4.1.66 2.43 1.26 1.71 3.97-.14.53.16.99c.38.6.59 1.87.96 2.3q.1.11.24.1.27-.02.29-.29l.17-2.66a.98.97-8.4 0 1 .64-.85q.51-.18.91-.52.4-.35.43-.88.07-1.32-.74-2.23-.52-.58.25-.53l1.48.09q.83.05.91.88.02.28.17.51.33.48.76.08.52-.49 1.14-.16.49.26.99.02.95-.44 1.94-.57.78-.1.74.68-.12 2.17-.16 4.28c-.03 1.24-.46 2.39-1 3.48q-.22.44.07.84.37.49.37 1.11a.65.65 0 0 1-.53.63q-1.2.25-2.06 1.19-.44.49.19.69c.91.29 2.44 1.1 2.42 2.25q-.01.59-.43 1.03-.39.4-.07.86.35.53.83.83a.52.52 0 0 0 .79-.52q-.14-.85.04-1.58a.78.78 0 0 1 .73-.6l1.41-.06q.7-.03.39-.65l-1.33-2.66q-.28-.55.34-.6 2.19-.18 4.38.9a.42.42 0 0 0 .56-.57q-.18-.36-.21-.77-.07-1.09.89-.57 2.32 1.25 2.37 4.26.02 1.96-.39 3.74-.1.44.19.79.34.4.14.87-.54 1.29-1.07 2.59-.41 1.03.41.29.97-.89 2.29-.59.63.14.62.78-.04 1.61 1 2.62.56.53-.19.71-.14.03-.19.16-.45 1.06.35.23.65-.66 1.38.07.64.63.33-.2-.96-2.59-.1-5.61.17-.6-.27-1.06-1.7-1.78.24-4.29.16-.21.41-.14.14.03.22.15.4.5.73-.05 1.21-2.09 1.66-4.36a.98.97 31.2 0 1 1.72-.42l2.96 3.7M299.39 191.63l-2.57-1.13q-.7-.3-.31.35 1.08 1.83.25 5.66-.12.58-.71.55l-.79-.05q-1.62-.08-.56 1.16.81.96-.09 1.84-.56.56.03 1.09l.39.35q.88.79.82-.39-.13-2.54 2.32-2.2M289.19 253.78q-1.4-1.23-.8-2.52.25-.54.07-1.12-.6-1.96.98-4 .27-.35.18-.78-.17-.78-.96-1.02-.74-.22-.59.54.1.49-.28.8-.66.53-.71-.32-.06-1.33-1.39-1.48-.7-.08-.75-.78-.13-1.81 1.35-3.01a.91.91 0 0 0 .15-1.26q-.65-.85-1.5-.25-.52.36-.85-.18-1.01-1.66-1.09-3.36-.02-.5.4-.77.41-.27.89-.43.7-.24.12-.73-.13-.11-.2-.26a.63.63 0 0 1 .1-.69q.59-.64.64-1.52.05-.9-.64-.32l-1.38 1.17q-.39.33-.85.11l-1.56-.73a.92.9-76 0 1-.52-.89q.17-2.77 2.22-4.18.69-.47-.13-.62l-.37-.07a.72.71 4.7 0 1-.58-.67q-.09-1.95-.21-4.09-.01-.19-.18-.28-.05-.03-.1-.01-.42.1-.48.54-.22 1.57-.98 3-.27.5.05.97l.51.75a.32.31 25.3 0 1 .05.13q.06.68-1.03.5a.45.38 60.8 0 1-.19-.07l-.77-.48q-.49-.29-.87.12l-1 1.08a.44.44 0 0 1-.72-.12q-1.38-3.23-4.32-3.67-.63-.09-.46.52l1.63 5.98a1.4 1.4 0 0 1-.93 1.7q-1.46.46-1.15 2.03.14.74.86.92 1.62.41 1 1.9a.35.34 8.8 0 1-.28.2q-.18.02-.22.19-.21 1.16.58.29.55-.61 1.02.03a.5.5 0 0 0 .9-.26l.04-.74q.01-.18.13-.32.1-.11.24-.14.47-.11.59.35.9 3.43-.98 4.67c-1.31.86-1.85 2.73-2.05 4.25a.85.85 0 0 1-1.44.5q-1.14-1.1-1.75-2.54-.22-.53-.79-.39l-.29.07q-.46.11-.25.54.63 1.31-.48 2.94-.74 1.08-.81-.23-.03-.46-.19-.84-.29-.65-.48.03-.4 1.37-1.71 1.81-1.4.48-1.54 1.89-.1 1.07.74.41l.31-.24q.64-.5.8.31.48 2.51-2.11 3.47-.52.19-.33.71.38 1.09-.54 1.8-.43.34-.74-.12-1.96-2.86-.41-5.21a.8.79-50.8 0 0-.09-.99q-.44-.44-1.03-.21-.4.17-.7.46-.48.45-1 .06-1.01-.76-.95-1.79.02-.49.36-.85.43-.44.51-1.01.09-.6-.5-.74-.57-.13-1.05-.47a.84.84 0 0 1-.35-.82l.39-2.33q.09-.53-.25-.95l-.61-.78a.65.65 0 0 1 0-.82q1.03-1.27 2.06-2.42.14-.16.04-.36-.19-.4-.4-.01l-.24.44q-.45.82-.82-.04l-.93-2.2q-.29-.7.19-1.3l1.22-1.49q.53-.66.06-1.35l-.54-.78q-.68-1-.99.16-.55 2.02-2.54 1.23-.66-.26-.64-.98.03-1.29-.75-2.2-.54-.63.25-.91.07-.03.08-.1.25-1.07-.53-.3t-1.57 1.4q-.48.39-.15.91.69 1.11.6 2.43a.94.93-5.6 0 1-.71.85q-1.21.3-1.98 1.27-.37.47.22.35.45-.09.78-.43.63-.63.68.26l.12 1.83a.47.47 0 0 0 .81.3q.26-.26.62-.31.53-.08.44.44-.43 2.58-2.43 3.58-.49.24-.42.78.06.4-.03.8-.44 2.08-1.11.06-.28-.86-.84-1.54-.62-.76-.94.17-.08.24-.08.48a.86.85-10.5 0 1-.57.82q-1.01.36-1.71-.61a.38.38 0 0 0-.69.16q-.13.82-.59 1.59-.24.41-.07.85.54 1.42-1.06 2.11-.43.19-.74-.16-4.56-5.07-2.99-11.49.14-.61-.16-1.15-.4-.73-1.03-1.25-.46-.39-.04-.82 2.36-2.4 2.66-5.75.02-.2-.18-.24l-.3-.05a.31.3-77.9 0 0-.35.23q-.37 1.7-.81 1.97a2.33 2.26 71.5 0 1-3.46-1.79q-.13-1.24-.1-2.63.02-1.34-.89-.36-.96 1.04-1.63 2.81-.16.43.14.79.86 1.03-.16 2.11-1.05 1.12-2.06 2.07-.35.33.13.38.36.04.4-.31a.4.39-73.8 0 1 .56-.31q.79.36.64 1.37a.35.35 0 0 0 .55.33l.75-.53q.23-.16.45 0 .16.12.21.32.07.33-.07.63l-2.14 4.41q-.19.4-.62.5-.42.1-.71-.19-.36-.35-.35-.85 0-.35-.22-.62-.49-.57-.65.16l-.17.72a.68.68 0 0 1-.58.53l-1.42.17q-1.3.16-1.1 1.46.41 2.66-1.03 4.3a.53.53 0 0 1-.93-.34l-.06-1.85q-.02-.78-.66-.34-.2.14-.34.34-.37.53-1.02.44-.76-.1-.83-.88a1.76 1.75 15.1 0 0-.77-1.33q-1.8-1.23-.83-2.96.42-.75-.44-.79-.65-.02-.8-.64-.14-.62.2-1.19.76-1.28-.22-2.36-1.05-1.15-1.14-2.73-.03-.57.44-.88.31-.2.66-.28.52-.12.45-.65-.04-.29-.28-.45-.49-.31-.28-.85l.96-2.43a.36.35-68.4 0 0-.19-.45q-.26-.11-.38.08-.88 1.44-1.45 3.19-.22.69-.91.63-.77-.07-1.29-.75a.39.39 0 0 0-.69.32q.11.47-.11.9a.55.55 0 0 1-.89.13l-1.6-1.69a.72.72 0 0 1-.09-.85q.33-.57-.04-1.13-.28-.42-.3-.92l-.19-3.81q-.01-.17-.18-.16h-.31q-.23.01-.25.25l-.22 3.18a.64.63 3.6 0 1-.68.59l-2.48-.14a.8.8 0 0 0-.75 1.17q.8 1.49 2.09 2.46.58.44.9-.23.06-.13.21-.17.72-.18.72.56l-.02 5.68a1.17 1.17 0 0 1-.54.97q-1.11.7-1.31 1.96-.03.22.19.25l.26.04q.38.05.39-.33l.02-.88a.47.47 0 0 1 .82-.3l1.44 1.66a.39.39 0 0 0 .68-.25l.01-1.08q0-.39.39-.37l.33.02q.42.02.37.43-.47 3.83-.5 6.6-.03 2.68-1.98.85l-.87-.81q-.37-.36-.49.15-.33 1.48.37 2.85.25.49-.09.9-.18.22-.25.48-.18.71.06 1.4c.78 2.29 1.38 5.19-.49 7.16M79.29 144.99l1.93.53q.47.13.61-.34l1.53-5.35q.26-.88-.66-.87-.31 0-.41-.39-.11-.45.3-.67.29-.15.1-.5-.26-.52-.63-.08-.82.96-.97 2.16a.54.53 23.5 0 1-.88.34q-.58-.48-.87-1.14a.7.69-36 0 1 .12-.73q.84-.97.03-2-.3-.38.01-.76 1.98-2.42 3.32-5.96.17-.44-.08-.85l-.59-.95q-.33-.53-.11-1.11.24-.66.77-1.16.56-.52.9.16l.38.78a1.54 1.51 2.5 0 0 .59.63c2.8 1.69 1.76 4.34 3.02 6.78q.12.22.02.45-.07.15-.19.27-.61.55.19.73.86.19 1.58.75.57.45.66-.27.18-1.48-.61-2.61-.26-.37 0-.74.31-.44.77-.73a.6.59-42 0 1 .69.03q1.09.84 2.45.72.57-.05.64-.61l.15-1.09q.03-.23.23-.36.14-.09.28-.06.34.07.39.41.15 1.08-.47 1.88a.56.56 0 0 0 .06.76q.19.18.25.42.15.56-.07 1.04l-1.26 2.83q-.23.51.15.93.35.37.8.41.58.04.49-.53-.05-.4.15-.73.36-.61.71.01.21.37.29.8.11.55.65.69 1.87.46 1.2 2.27-.39 1.07-1.36 1.75a.67.67 0 0 0-.24.81q.21.51.75.73a1.05 1.03-47.1 0 0 .85-.04l.29-.16q.56-.28.78.31.38 1.04.8 2.17.72 1.95-1.15 2.38-.44.09-.2.47.71 1.1-.36 2.12a.36.36 0 0 0-.1.36l.14.52q.15.56.58.17l1.35-1.22q.36-.32.79-.12l1.75.83a.98.97 24 0 1 .49 1.26l-1.51 3.54a.29.29 0 0 1-.48.09q-.22-.24-.46.02-.55.59.25.69l.36.05q.73.1.75.83l.14 3.92q.01.09.09.13l.28.15a.26.26 0 0 0 .38-.22q.07-1.78.94-3.25.26-.45.07-.94-.18-.45-.49-.82-.19-.23-.13-.51.06-.29.51-.3a.58.56-27.7 0 1 .31.09l1.05.62q.51.3.92-.12l1.09-1.14q.46-.48.65.15.88 2.83 4.07 3.66a.53.53 0 0 0 .64-.66l-1.58-5.8a1.28 1.27 72.8 0 1 .81-1.55q1.57-.54 1.27-2.19-.1-.53-.59-.75l-1.11-.49a.74.73-54.2 0 1-.19-1.21q.34-.31.52-.71.38-.86-.42-.37-.13.08-.21.22-.25.4-.57.06-.3-.33-.7-.42-.73-.17-.57.57.15.68-.46.95-.74.32-.72-.49l.06-3.01q.01-.58.5-.9 2.35-1.51 2.62-4.78.07-.79.84-.61 1.57.37 2.07 2.11.31 1.05 1.35.88.71-.11.28-.69l-.31-.4q-.32-.42.03-.82.58-.67.69-1.63.08-.77.63-.23.42.43.33 1.12-.12.88.61.36.34-.25.32-.72-.03-.63.56-.84 1.55-.56 2.56-1.96a.53.53 0 0 0-.15-.76l-.22-.15a.46.46 0 0 0-.51.02l-.42.33q-.78.58-.85-.39-.2-2.51 2.27-3.38.42-.15.25-.56-.51-1.23.63-2.04.4-.29.67.13 2.01 3.08.3 5.42-.51.7.3 1 .86.32 1.63-.37.46-.4.97-.06.96.64.87 1.71c-.06.69-.61 1.18-.76 1.82q-.11.52.38.72 2.38.97.98 3.59a.74.74 0 0 0 .14.89l.9.89a.69.69 0 0 1 .02.97q-1 1.03-2.05 1.99-.21.19-.28.46-.11.42.3.28.28-.11.49-.33.64-.68.9.22.3 1.03.93 1.92.4.55-.04 1.07l-1.42 1.7a1.08 1.07-35 0 0-.19 1.04q.29.8.99 1.4.62.53.71-.28.22-2.04 2.33-1.41.7.21.72.93.04 1.51.98 2.59a.34.34 0 0 1-.19.56q-.24.04-.37.24-.11.15-.07.34.01.05.06.07.22.1.4-.05l1.8-1.5q.46-.38.15-.9-.65-1.04-.51-2.35.08-.67.7-.93 1.18-.47 2.05-1.47.03-.04 0-.07l-.19-.3q-.21-.31-.38.02-.27.53-.77.6a.51.5-2.3 0 1-.58-.53q.08-.96-.14-1.76-.18-.67-.69-.19l-.4.38a.41.41 0 0 1-.63-.09q-.23-.39-.02-.81.58-1.12 1.17-2.22a1.03 1.02 4.5 0 1 .57-.48q1.61-.56 1.16-2.55-.07-.28.21-.37l.29-.11q.21-.07.25.15.28 1.31 1.13 2.21 1.05 1.1 1.02-.42-.01-.63.52-.9.56-.28 1.09.07l.73.49q.49.33.69-.22l.56-1.49q.15-.42.01-.84-.5-1.53 1.25-2.11a.75.75 0 0 1 .83.25c1.7 2.21 3.5 5.12 2.91 7.99q-.1.5.13.95.55 1.06-.26 1.99a1.26 1.24 43.6 0 0 .05 1.69l1.19 1.24q.35.37-.02.72-2.46 2.34-2.55 5.74-.01.22.21.24l.29.01a.42.42 0 0 0 .45-.4q.16-2.82 2.8-1.69a1.89 1.88 10.5 0 1 1.14 1.65l.13 2.88q.02.52.54.53.54.01.77-.45.59-1.17 1.16-2.42.21-.46-.05-.9c-.98-1.69 1.2-3.45 2.37-4.35q.13-.1.01-.22l-.18-.18a.31.3 43.1 0 0-.44.01q-.19.22-.44.36-.65.36-.75-.38l-.07-.57q-.1-.8-.78-.37-.2.13-.35.32a.46.46 0 0 1-.72.03q-.15-.17-.15-.38 0-.34.17-.64 1.07-1.93 2.09-4.22.23-.53.8-.51.77.03.79.8.01.39.22.7.56.87.74-.15l.08-.48q.11-.65.76-.71l1.6-.17q.83-.08.78-.92c-.08-1.39-.24-3.94 1.19-4.72q.68-.38.74.4l.13 1.56q.09.97.86.39l.77-.57a.66.65-37.2 0 1 .9.12q.45.56.37 1.28-.05.39-.39.59-.28.16-.24.55.04.51.36.1l.32-.42q.3-.37.69-.09 1.91 1.38.77 3.05-.33.49.25.63.47.11.84.38.57.4.27 1.03l-.6 1.21q-.39.8.26 1.41 1.56 1.46 1.46 3.26-.03.61-.62.77l-.59.15a.54.54 0 0 0-.21.94q.27.22.39.55a.86.84 46.6 0 1-.01.63l-.8 1.91q-.11.25.02.5.11.23.35.12.24-.12.35-.36l1.41-3.05q.21-.46.69-.34.63.16 1.11.6.81.74.93-.35l.05-.52q.09-.81.75-.33 1.25.91 2.02 2.17.06.1.01.2l-.23.47a.83.81-42.3 0 0-.04.67q.83 2.31.52 4.67a.26.26 0 0 0 .25.3l.31.01a.27.27 0 0 0 .28-.25l.28-3.11q.05-.5.55-.51l2.36-.04a.99.99 0 0 0 .7-1.67l-1.61-1.68a.75.75 0 0 0-.85-.16l-.59.27a.49.48 74.3 0 1-.69-.39q-.4-3.85.6-6.82.14-.43-.22-.7-.82-.61-1.49-1.42-.53-.64-.74.16-.13.47-.17.96a.38.38 0 0 1-.38.36q-.32.01-.48-.2-.21-.25-.19-.55.2-2.73.58-5.5a1.44 1.37-51.8 0 0-.06-.62q-.36-1.06.61-1.74.39-.27.72.06l1.51 1.51a.35.34 25.9 0 0 .59-.2q.19-1.61-.44-2.81-.22-.41-.01-.82l.31-.64q.27-.54.07-1.11-.9-2.65-.83-5.36.03-1.43 1.02-.4.5.53 1.22.48.73-.05.75-.78l.06-1.9q.01-.24.25-.21l.27.02q.24.03.24.27-.01 1.17.63 1.33t.58-.49l-.05-.57q-.07-.79.58-.34.52.36.56 1.06a.73.73 0 0 0 1.02.62q.44-.19.8-.52.32-.28.72-.15.2.06.31.24.33.52-.07.97l-.55.62a.41.41 0 0 0 .14.65l.48.22q.45.2.72-.21.37-.54.4-1.19.01-.45.42-.63.52-.24.98.11.37.28.42.73.08.7.27 1.4.33 1.16 1.39.58.63-.35.93-.97.53-1.12-.68-.82-.32.08-.61-.05a.3.3 0 0 1-.09-.48q1.57-1.7 1.29-3.87-.05-.4.23-.68l1.83-1.85a.85.84 25.8 0 1 .7-.24q.74.1.92.86.04.17.21.16.15-.01.26-.11.35-.33-.06-.6-.67-.44-.11-.99.4-.39.15-.89l-.49-1.02q-.25-.51.13-.92l1.39-1.5q.63-.68-.28-.83-1-.17-1.76-.9-.09-.08-.16.02l-.15.21q-.24.37.14.6.75.45.76 1.27.01.75-.73.76-1.35.01-1.35 1.35 0 .38-.37.32-3.03-.44-2.8-2.97.06-.7-.57-.38-.28.14-.22.45a.55.52-38.1 0 1-.05.33q-.51 1.05-1.52 1.81a.75.74-29.2 0 0-.25.86q.14.36.43.62.36.33-.09.52l-.37.15q-.36.15-.64-.12-.86-.83-.64-2.05.08-.43-.33-.57l-1.01-.35q-.64-.22-.25-.78.35-.5.89-.83a.94.93-46.5 0 0-.04-1.62q-1.35-.73-.71-2.02.13-.25.03-.52-.2-.52-.68-.84a.51.5 42.7 0 0-.6.02q-1.02.83-1.88-.25a.77.77 0 0 1-.09-.84c.67-1.36.95-2.81 1.89-4.04q1.57-2.03 2.06-4.57.09-.47.56-.55l1.57-.24q.84-.14.26-.75l-.67-.71q-.56-.59-.91.15-.23.47-1.06-.03a1.25 1.24-59.9 0 1-.44-1.67q.85-1.53-.41-3.6-.08-.14-.2-.25-.32-.32-.8.34a.85.84-32.1 0 0-.15.64q.38 1.97-1.41 2.22-.69.1-.22.61 1 1.08.56 2.58-.18.64-.83.48-.82-.19-1.48-.67a1.02 1.01-41.7 0 0-1.08-.06l-.79.44a.78.77 55 0 1-.98-.18q-1.32-1.62-.32-3.6.28-.54-.13-.99l-1.35-1.46q-.69-.76-.87.25-.13.8.44 1.4.51.53-.06.99-1.18.94-1.48 2.43a.42.42 0 0 1-.12.24q-.26.31-.54.17-.2-.1-.24-.33l-.15-1.02q-.12-.77-.69-.24l-.79.73q-.54.49-.01.99.88.82.17 1.74-.52.69-.67 1.64-.23 1.6 1.34 1.79.69.09.72.79.04.83-.68 1.28-1.29.81-2.66 1.5-.67.33-.68-.42l-.04-2.45q-.01-.69-.67-.5-.18.05-.32.19-.46.44-.9-.03-.21-.23-.14-.55.12-.54-.42-.62-.39-.07-.59.25-.29.44-.72.13-.41-.3-.26-.63 1.16-2.54 1.93-4.97.2-.61-.42-.78-2.06-.58-1.41-3.21a.56.55 22.2 0 0-.26-.61q-.51-.28-.85.09-.49.55-.89-.07-.33-.52-.07-1.09.8-1.77 1.14-3.65a1.03 1.03 0 0 1 1.18-.85q3.67.57 3.75-3 .02-.94-.79-.46-1.01.61-1.83-.31-.34-.39-.12-.87 2.64-5.48 2.18-11.61M173.73 73.2q.12.79.42 1.22.4.59.77-.01.14-.22.41-.27.55-.09.59.47l.1 1.41q.12 1.6 1.18.4l.75-.86q1.45-1.64 1.2.54-.2 1.67 1.08 2.65.54.41.32-.23-1.43-4.3 2.63-6.33.46-.23.62-.72l.2-.57" vector-effect="non-scaling-stroke"/><path d="M162.27 75.35q.31.51 1.1 2.5.24.6.87.83.48.17.7-.29.45-.9 1.26-.89M219.47 310.18q.22-1.36.01-2.46-.09-.45.1-.86.55-1.18-.41-2.26-1.02-1.15-1.21.37l-.08.6a.38.37-66.4 0 1-.61.24l-.85-.73a.49.48 39.5 0 1-.07-.68q.41-.49.25-1.07-.12-.43-.09-.89.27-4.5 2.06-8.63.16-.39-.03-.77-.22-.41-.64-.67a.8.77 44.8 0 0-.81-.01l-.29.18q-.64.39-.75-.35-.27-1.77.93-2.72c.92-.72 2.2-.33 3.29-.53q.53-.1.65-.62.53-2.39 1.07-4.55.06-.25-.14-.42-.35-.3-.69.01l-.23.22q-.74.67-.82-.32l-.21-2.32a1.01 1-78 0 0-.52-.81l-.87-.46q-.52-.28-.33-.84.89-2.55 1.74-4.92.09-.25-.08-.48-.34-.48-.75-.06-.24.24-.55.27-.71.05-.67-.65.03-.61-.54-.68-.35-.05-.51.26-.09.18-.31.11-.46-.15-.47-.63l-.07-2.37q-.02-.73-.68-.41-1.7.85-3 1.93a1.04 1.04 0 0 0 .55 1.83q1.54.17 1.19 1.66-.25 1.06-.93 1.92a.66.66 0 0 0-.01.81q.38.5.5 1.12.13.65-.43.99l-.48.29a.33.32-23 0 1-.48-.19l-.36-1.28a.35.35 0 0 0-.68.03q-.29 1.64-1.61 2.51-.46.3-.22.79.34.7.54 1.41.38 1.4-.75.49-.83-.66-1.57-1.58-.34-.42-.07-.9 1.12-2.01-.39-3.6-.51-.54-1.04-.02-.35.35-.84.42a1.24 1.23-29.8 0 1-1.01-.27q-.65-.54-1.52-.58-.54-.03-.64.5-.3 1.54.56 2.83a.34.34 0 0 1-.24.53q-1.7.22-1.41 2.1.26 1.62-.97.55-1.71-1.48-.46-3.67.25-.44-.02-.88-.26-.41-.64-.67-.4-.28-.78.03-.78.64-1.45-.08M196.99 277.03q.75.18 1.37-.04.55-.19.57-.78.05-1.66.97-2.98 1.72-2.45 2.72-5.37.15-.42-.03-.81-.19-.43-.63-.7-.48-.29-.94.04-.78.55-1.42-.18-.33-.37-.19-.85.26-.84.2-1.66M184 70.9l-1.14.7q-.49.3-.88-.1l-.85-.85q-.43-.44-.96-.13-1.01.58-1.68-.61M294.75 106.96q1.13 1.57 1.69 2.88 1.14 2.64 1.64-.19.03-.16.33-1.15M215.96 311.19q.42-1.06-.45-2.06a.78.78 0 0 0-1.34.3q-.39 1.35.87 2M212.18 312.42q.08-.94-.23-1.77-.22-.62-.78-.27-.62.39-1.05 1.08-1.1 1.77-1.15-.32l-.06-2.48q-.03-.88-.7-.31l-.3.24q-.68.57-.86-.31l-.27-1.28q-.31-1.55-1.15-.2-.27.45-.7.76-1.22.9-.9-.59.33-1.49-1.31-2.55-.62-.41-.27.25 1.18 2.22-.85 5.1-.3.42-.81.57-.89.24-1.46 1.01-.46.63.29.4.23-.07.34-.3a.54.54 0 0 1 .84-.16l.88.77q.35.31.06.69l-.26.33q-.41.52.2.79.32.14.64.06.54-.14.6-.69l.07-.74q.07-.61.61-.33.22.12.28.47.36 1.93 2.41 2.03M182.24 97.22q-.19.42.23.64.39.2.41-.24.02-.35-.27-.52a.26.26 0 0 0-.37.12M190.82 137.63q-.02-.42-.35-.67a.3.29-77.4 0 0-.46.3q.08.38.4.6a.26.26 0 0 0 .41-.23M177.294 152a.88.46 98.9 0 0 .59-.799.88.46 98.9 0 0-.318-.94.88.46 98.9 0 0-.59.798.88.46 98.9 0 0 .318.94M135.35 157.131a.94.76-44.5 0 0-1.203.117.94.76-44.5 0 0-.137 1.2.94.76-44.5 0 0 1.203-.116.94.76-44.5 0 0 .138-1.2M180.19 159.55q-.18.5-.11 1.04.09.71.61.21.54-.52.24-1.26a.4.39 44 0 0-.74.01M153.318 162.792a1.09.39 129.4 0 0 .993-.595 1.09.39 129.4 0 0 .39-1.09 1.09.39 129.4 0 0-.992.595 1.09.39 129.4 0 0-.39 1.09M180.569 164.864a.38.32 79.6 0 0 .246-.432.38.32 79.6 0 0-.384-.316.38.32 79.6 0 0-.246.432.38.32 79.6 0 0 .384.316M202.22 218.48q.01.35.37.43.24.06.31-.17.1-.29-.13-.51a.33.33 0 0 0-.55.25M228.284 221.739a1.05.39 134.5 0 0 1.014-.476 1.05.39 134.5 0 0 .458-1.022 1.05.39 134.5 0 0-1.014.476 1.05.39 134.5 0 0-.458 1.022M248.25 224.29q-.55.4-.86.95a.42.41-68.4 0 0 .26.61q.34.09.7.07.68-.05.72-.73.03-.49-.27-.84a.41.41 0 0 0-.55-.06M218.3 236.19q-.29.23-.28.58a.26.25-15.3 0 0 .38.21q.32-.17.36-.53a.29.28 74.2 0 0-.46-.26" vector-effect="non-scaling-stroke"/><path d="M200.49 285.18a.28.27 71.7 0 0-.2.41q.1.19.3.15.23-.05.22-.29-.02-.32-.32-.27" vector-effect="non-scaling-stroke"/></g><path d="m220.69 70.12-.93 2.32q-.2.48-.62.77l-2.33 1.6q-.49.34-.6.92-.25 1.28-.85 2.55-.51 1.07.43.35.64-.5 1.21-1.19.45-.55.96-.06 1.06 1.04 1.12 2.65a.97.95-78.1 0 0 .51.8q.71.37 1.58.16a.44.44 0 0 1 .51.25q.17.38-.06.61-.42.41-.17.94l.17.36q.19.39-.1.71l-1.97 2.2q-.36.4-.51.91-.32 1.06-1.37 1.31-.8.19-.2.75l.82.77q.47.44.14.99-1.66 2.82.13 6 .26.47.78.29.79-.28.2-.87-.66-.67.02-1.28.5-.44.02-.91-.34-.32-.25-.75.12-.66.69-.29.33.22.67.44 1.79 1.18 1.02-.82-.36-.92-.69-1.82-.42-1.11.56-1.73.45-.29.87.04.56.45.6 1.21.03.7.69.46 1.8-.63 2.32-2.05.53-1.44 1.01.01l1.68 5.04q.12.35-.23.49-.26.11-.14.44.19.5.71.35.16-.04.29-.02.46.07.28.5l-1.21 2.88q-.54 1.27.42.27l2.16-2.25q.47-.49.93 0l.61.64q.98 1.02 1.91-.04.54-.62.4-1.26-.17-.78-1.08-.75-.75.02-1.42-.12-.49-.1-.24-.53.07-.12.18-.19.74-.5-.08-.91l-.65-.33q-.52-.25-.47-.83.29-2.91 1.58-5.35a1.5 1.5 0 0 1 2.63-.02q.35.62.96.93.95.46.32-.38-.93-1.26-.15-2.48.61-.95-.48-.7-.64.15-1.15.55-.88.69-.77-.42.29-2.95-1.23-5.77a.6.6 0 0 0-1.07.01l-.78 1.56q-.89 1.79-1.06-.2-.18-2.18.93-4.75.47-1.07-.28-1.99 1.3-.24 2.36-.03 1.47 1.62 2.33-.33l5.27-.61q-.8.4-1.32 1.2a.99.97-42.2 0 0-.06.96l1.14 2.28q.3.59.72.08l.63-.77q.47-.57-.17-.94-.21-.12-.26-.35-.12-.55.45-.56l.54-.01a.64.63 10.9 0 0 .59-.39q.3-.7-.03-1.54.77-.1 1.5.19-.4 1.01-.3 1.93.08.77.7.32.76-.56 1.56-.06.48.31.89-.09.29-.27.51-.73l9.06 7.11-2.03.39q-.91.17-.53 1.02l1.46 3.2q.18.4-.22.6-.12.05-.25.04-.94-.1-1.07.83-.16 1.18.45 2.17.76 1.23-.68 1.02-1.61-.24-2.54 1.2a.33.33 0 0 0 .18.5q1.69.51 2.23 2.63.09.37-.15.65-1.97 2.33-4.13 3.22-.51.21-.18.65.78 1.03 2 1.1.79.05.71-.74-.06-.59.39-.94.55-.43.59.27.07 1.36 1.43 1.59a.73.73 0 0 1 .6.75q-.14 3.01 1.25 5.71.55 1.06.73-.12.17-1.14-.38-2.27a1.05 1.05 0 0 1-.05-.8l.68-2.04a.66.66 0 0 1 .86-.41q.71.27 1.28.75.53.46.58-.24.04-.58-.26-1.07-.4-.67-.14-1.38.21-.58-.17-1.06l-.99-1.24q-.38-.47-.2-1.05.24-.75.8-1.37a.56.56 0 0 1 .97.49q-.14.74.49 1.02a.49.49 0 0 0 .57-.12l.9-1.08q1.01-1.2 1.09.37l.11 2.29q.03.61.57.34 1.43-.7 2.41.93a1 .99-49.9 0 0 1.78-.16q.6-1.56 2.61-2.17.71-.22.29.39-1.46 2.09-.04 4.82.24.47.04.96l-.55 1.37q-.2.51.11.94l.24.33q.42.58-.28.75l-.36.09a1.06 1.06 0 0 0-.79.79q-.31 1.33-1.62 1.68-.57.16-.14.57l1.14 1.11q.84.82-.31 1-.94.15-1.75.95-.4.4.1.66 2.43 1.26 1.71 3.97-.14.53.16.99c.38.6.59 1.87.96 2.3q.1.11.24.1.27-.02.29-.29l.17-2.66a.98.97-8.4 0 1 .64-.85q.51-.18.91-.52.4-.35.43-.88.07-1.32-.74-2.23-.52-.58.25-.53l1.48.09q.83.05.91.88.02.28.17.51.33.48.76.08.52-.49 1.14-.16.49.26.99.02.95-.44 1.94-.57.78-.1.74.68-.12 2.17-.16 4.28c-.03 1.24-.46 2.39-1 3.48q-.22.44.07.84.37.49.37 1.11a.65.65 0 0 1-.53.63q-1.2.25-2.06 1.19-.44.49.19.69c.91.29 2.44 1.1 2.42 2.25q-.01.59-.43 1.03-.39.4-.07.86.35.53.83.83a.52.52 0 0 0 .79-.52q-.14-.85.04-1.58a.78.78 0 0 1 .73-.6l1.41-.06q.7-.03.39-.65l-1.33-2.66q-.28-.55.34-.6 2.19-.18 4.38.9a.42.42 0 0 0 .56-.57q-.18-.36-.21-.77-.07-1.09.89-.57 2.32 1.25 2.37 4.26.02 1.96-.39 3.74-.1.44.19.79.34.4.14.87-.54 1.29-1.07 2.59-.41 1.03.41.29.97-.89 2.29-.59.63.14.62.78-.04 1.61 1 2.62.56.53-.19.71-.14.03-.19.16-.45 1.06.35.23.65-.66 1.38.07.64.63.33-.2-.96-2.59-.1-5.61.17-.6-.27-1.06-1.7-1.78.24-4.29.16-.21.41-.14.14.03.22.15.4.5.73-.05 1.21-2.09 1.66-4.36a.98.97 31.2 0 1 1.72-.42l2.96 3.7-1.09 7.78q-.08.54.2 1.02l2.68 4.59q.3.51.29 1.1-.02 8.75.03 17.78.03 4.55-1.2 11.35-1.87 10.36-3.61 20.7l-2.57-1.13q-.7-.3-.31.35 1.08 1.83.25 5.66-.12.58-.71.55l-.79-.05q-1.62-.08-.56 1.16.81.96-.09 1.84-.56.56.03 1.09l.39.35q.88.79.82-.39-.13-2.54 2.32-2.2l-8.98 54.92q-1.4-1.23-.8-2.52.25-.54.07-1.12-.6-1.96.98-4 .27-.35.18-.78-.17-.78-.96-1.02-.74-.22-.59.54.1.49-.28.8-.66.53-.71-.32-.06-1.33-1.39-1.48-.7-.08-.75-.78-.13-1.81 1.35-3.01a.91.91 0 0 0 .15-1.26q-.65-.85-1.5-.25-.52.36-.85-.18-1.01-1.66-1.09-3.36-.02-.5.4-.77.41-.27.89-.43.7-.24.12-.73-.13-.11-.2-.26a.63.63 0 0 1 .1-.69q.59-.64.64-1.52.05-.9-.64-.32l-1.38 1.17q-.39.33-.85.11l-1.56-.73a.92.9-76 0 1-.52-.89q.17-2.77 2.22-4.18.69-.47-.13-.62l-.37-.07a.72.71 4.7 0 1-.58-.67q-.09-1.95-.21-4.09-.01-.19-.18-.28-.05-.03-.1-.01-.42.1-.48.54-.22 1.57-.98 3-.27.5.05.97l.51.75a.32.31 25.3 0 1 .05.13q.06.68-1.03.5a.45.38 60.8 0 1-.19-.07l-.77-.48q-.49-.29-.87.12l-1 1.08a.44.44 0 0 1-.72-.12q-1.38-3.23-4.32-3.67-.63-.09-.46.52l1.63 5.98a1.4 1.4 0 0 1-.93 1.7q-1.46.46-1.15 2.03.14.74.86.92 1.62.41 1 1.9a.35.34 8.8 0 1-.28.2q-.18.02-.22.19-.21 1.16.58.29.55-.61 1.02.03a.5.5 0 0 0 .9-.26l.04-.74q.01-.18.13-.32.1-.11.24-.14.47-.11.59.35.9 3.43-.98 4.67c-1.31.86-1.85 2.73-2.05 4.25a.85.85 0 0 1-1.44.5q-1.14-1.1-1.75-2.54-.22-.53-.79-.39l-.29.07q-.46.11-.25.54.63 1.31-.48 2.94-.74 1.08-.81-.23-.03-.46-.19-.84-.29-.65-.48.03-.4 1.37-1.71 1.81-1.4.48-1.54 1.89-.1 1.07.74.41l.31-.24q.64-.5.8.31.48 2.51-2.11 3.47-.52.19-.33.71.38 1.09-.54 1.8-.43.34-.74-.12-1.96-2.86-.41-5.21a.8.79-50.8 0 0-.09-.99q-.44-.44-1.03-.21-.4.17-.7.46-.48.45-1 .06-1.01-.76-.95-1.79.02-.49.36-.85.43-.44.51-1.01.09-.6-.5-.74-.57-.13-1.05-.47a.84.84 0 0 1-.35-.82l.39-2.33q.09-.53-.25-.95l-.61-.78a.65.65 0 0 1 0-.82q1.03-1.27 2.06-2.42.14-.16.04-.36-.19-.4-.4-.01l-.24.44q-.45.82-.82-.04l-.93-2.2q-.29-.7.19-1.3l1.22-1.49q.53-.66.06-1.35l-.54-.78q-.68-1-.99.16-.55 2.02-2.54 1.23-.66-.26-.64-.98.03-1.29-.75-2.2-.54-.63.25-.91.07-.03.08-.1.25-1.07-.53-.3t-1.57 1.4q-.48.39-.15.91.69 1.11.6 2.43a.94.93-5.6 0 1-.71.85q-1.21.3-1.98 1.27-.37.47.22.35.45-.09.78-.43.63-.63.68.26l.12 1.83a.47.47 0 0 0 .81.3q.26-.26.62-.31.53-.08.44.44-.43 2.58-2.43 3.58-.49.24-.42.78.06.4-.03.8-.44 2.08-1.11.06-.28-.86-.84-1.54-.62-.76-.94.17-.08.24-.08.48a.86.85-10.5 0 1-.57.82q-1.01.36-1.71-.61a.38.38 0 0 0-.69.16q-.13.82-.59 1.59-.24.41-.07.85.54 1.42-1.06 2.11-.43.19-.74-.16-4.56-5.07-2.99-11.49.14-.61-.16-1.15-.4-.73-1.03-1.25-.46-.39-.04-.82 2.36-2.4 2.66-5.75.02-.2-.18-.24l-.3-.05a.31.3-77.9 0 0-.35.23q-.37 1.7-.81 1.97a2.33 2.26 71.5 0 1-3.46-1.79q-.13-1.24-.1-2.63.02-1.34-.89-.36-.96 1.04-1.63 2.81-.16.43.14.79.86 1.03-.16 2.11-1.05 1.12-2.06 2.07-.35.33.13.38.36.04.4-.31a.4.39-73.8 0 1 .56-.31q.79.36.64 1.37a.35.35 0 0 0 .55.33l.75-.53q.23-.16.45 0 .16.12.21.32.07.33-.07.63l-2.14 4.41q-.19.4-.62.5-.42.1-.71-.19-.36-.35-.35-.85 0-.35-.22-.62-.49-.57-.65.16l-.17.72a.68.68 0 0 1-.58.53l-1.42.17q-1.3.16-1.1 1.46.41 2.66-1.03 4.3a.53.53 0 0 1-.93-.34l-.06-1.85q-.02-.78-.66-.34-.2.14-.34.34-.37.53-1.02.44-.76-.1-.83-.88a1.76 1.75 15.1 0 0-.77-1.33q-1.8-1.23-.83-2.96.42-.75-.44-.79-.65-.02-.8-.64-.14-.62.2-1.19.76-1.28-.22-2.36-1.05-1.15-1.14-2.73-.03-.57.44-.88.31-.2.66-.28.52-.12.45-.65-.04-.29-.28-.45-.49-.31-.28-.85l.96-2.43a.36.35-68.4 0 0-.19-.45q-.26-.11-.38.08-.88 1.44-1.45 3.19-.22.69-.91.63-.77-.07-1.29-.75a.39.39 0 0 0-.69.32q.11.47-.11.9a.55.55 0 0 1-.89.13l-1.6-1.69a.72.72 0 0 1-.09-.85q.33-.57-.04-1.13-.28-.42-.3-.92l-.19-3.81q-.01-.17-.18-.16h-.31q-.23.01-.25.25l-.22 3.18a.64.63 3.6 0 1-.68.59l-2.48-.14a.8.8 0 0 0-.75 1.17q.8 1.49 2.09 2.46.58.44.9-.23.06-.13.21-.17.72-.18.72.56l-.02 5.68a1.17 1.17 0 0 1-.54.97q-1.11.7-1.31 1.96-.03.22.19.25l.26.04q.38.05.39-.33l.02-.88a.47.47 0 0 1 .82-.3l1.44 1.66a.39.39 0 0 0 .68-.25l.01-1.08q0-.39.39-.37l.33.02q.42.02.37.43-.47 3.83-.5 6.6-.03 2.68-1.98.85l-.87-.81q-.37-.36-.49.15-.33 1.48.37 2.85.25.49-.09.9-.18.22-.25.48-.18.71.06 1.4c.78 2.29 1.38 5.19-.49 7.16q-.92-11.68-2.05-23.15c-.68-6.95-4.35-13.58-11.33-15.65q-2.84-.85-9.43-1.68-5.51-.7-9.85-.66c-6.55.06-12.92.98-18.38-3.56q-10.88-9.04-19.22-15.08-13.65-9.86-29.87-11.3-4.6-.41-7.65-1.27-16.1-4.57-17.28-22.32-.13-1.92.11-3.96c.32-2.6-.68-5.04-1.49-7.5l1.93.53q.47.13.61-.34l1.53-5.35q.26-.88-.66-.87-.31 0-.41-.39-.11-.45.3-.67.29-.15.1-.5-.26-.52-.63-.08-.82.96-.97 2.16a.54.53 23.5 0 1-.88.34q-.58-.48-.87-1.14a.7.69-36 0 1 .12-.73q.84-.97.03-2-.3-.38.01-.76 1.98-2.42 3.32-5.96.17-.44-.08-.85l-.59-.95q-.33-.53-.11-1.11.24-.66.77-1.16.56-.52.9.16l.38.78a1.54 1.51 2.5 0 0 .59.63c2.8 1.69 1.76 4.34 3.02 6.78q.12.22.02.45-.07.15-.19.27-.61.55.19.73.86.19 1.58.75.57.45.66-.27.18-1.48-.61-2.61-.26-.37 0-.74.31-.44.77-.73a.6.59-42 0 1 .69.03q1.09.84 2.45.72.57-.05.64-.61l.15-1.09q.03-.23.23-.36.14-.09.28-.06.34.07.39.41.15 1.08-.47 1.88a.56.56 0 0 0 .06.76q.19.18.25.42.15.56-.07 1.04l-1.26 2.83q-.23.51.15.93.35.37.8.41.58.04.49-.53-.05-.4.15-.73.36-.61.71.01.21.37.29.8.11.55.65.69 1.87.46 1.2 2.27-.39 1.07-1.36 1.75a.67.67 0 0 0-.24.81q.21.51.75.73a1.05 1.03-47.1 0 0 .85-.04l.29-.16q.56-.28.78.31.38 1.04.8 2.17.72 1.95-1.15 2.38-.44.09-.2.47.71 1.1-.36 2.12a.36.36 0 0 0-.1.36l.14.52q.15.56.58.17l1.35-1.22q.36-.32.79-.12l1.75.83a.98.97 24 0 1 .49 1.26l-1.51 3.54a.29.29 0 0 1-.48.09q-.22-.24-.46.02-.55.59.25.69l.36.05q.73.1.75.83l.14 3.92q.01.09.09.13l.28.15a.26.26 0 0 0 .38-.22q.07-1.78.94-3.25.26-.45.07-.94-.18-.45-.49-.82-.19-.23-.13-.51.06-.29.51-.3a.58.56-27.7 0 1 .31.09l1.05.62q.51.3.92-.12l1.09-1.14q.46-.48.65.15.88 2.83 4.07 3.66a.53.53 0 0 0 .64-.66l-1.58-5.8a1.28 1.27 72.8 0 1 .81-1.55q1.57-.54 1.27-2.19-.1-.53-.59-.75l-1.11-.49a.74.73-54.2 0 1-.19-1.21q.34-.31.52-.71.38-.86-.42-.37-.13.08-.21.22-.25.4-.57.06-.3-.33-.7-.42-.73-.17-.57.57.15.68-.46.95-.74.32-.72-.49l.06-3.01q.01-.58.5-.9 2.35-1.51 2.62-4.78.07-.79.84-.61 1.57.37 2.07 2.11.31 1.05 1.35.88.71-.11.28-.69l-.31-.4q-.32-.42.03-.82.58-.67.69-1.63.08-.77.63-.23.42.43.33 1.12-.12.88.61.36.34-.25.32-.72-.03-.63.56-.84 1.55-.56 2.56-1.96a.53.53 0 0 0-.15-.76l-.22-.15a.46.46 0 0 0-.51.02l-.42.33q-.78.58-.85-.39-.2-2.51 2.27-3.38.42-.15.25-.56-.51-1.23.63-2.04.4-.29.67.13 2.01 3.08.3 5.42-.51.7.3 1 .86.32 1.63-.37.46-.4.97-.06.96.64.87 1.71c-.06.69-.61 1.18-.76 1.82q-.11.52.38.72 2.38.97.98 3.59a.74.74 0 0 0 .14.89l.9.89a.69.69 0 0 1 .02.97q-1 1.03-2.05 1.99-.21.19-.28.46-.11.42.3.28.28-.11.49-.33.64-.68.9.22.3 1.03.93 1.92.4.55-.04 1.07l-1.42 1.7a1.08 1.07-35 0 0-.19 1.04q.29.8.99 1.4.62.53.71-.28.22-2.04 2.33-1.41.7.21.72.93.04 1.51.98 2.59a.34.34 0 0 1-.19.56q-.24.04-.37.24-.11.15-.07.34.01.05.06.07.22.1.4-.05l1.8-1.5q.46-.38.15-.9-.65-1.04-.51-2.35.08-.67.7-.93 1.18-.47 2.05-1.47.03-.04 0-.07l-.19-.3q-.21-.31-.38.02-.27.53-.77.6a.51.5-2.3 0 1-.58-.53q.08-.96-.14-1.76-.18-.67-.69-.19l-.4.38a.41.41 0 0 1-.63-.09q-.23-.39-.02-.81.58-1.12 1.17-2.22a1.03 1.02 4.5 0 1 .57-.48q1.61-.56 1.16-2.55-.07-.28.21-.37l.29-.11q.21-.07.25.15.28 1.31 1.13 2.21 1.05 1.1 1.02-.42-.01-.63.52-.9.56-.28 1.09.07l.73.49q.49.33.69-.22l.56-1.49q.15-.42.01-.84-.5-1.53 1.25-2.11a.75.75 0 0 1 .83.25c1.7 2.21 3.5 5.12 2.91 7.99q-.1.5.13.95.55 1.06-.26 1.99a1.26 1.24 43.6 0 0 .05 1.69l1.19 1.24q.35.37-.02.72-2.46 2.34-2.55 5.74-.01.22.21.24l.29.01a.42.42 0 0 0 .45-.4q.16-2.82 2.8-1.69a1.89 1.88 10.5 0 1 1.14 1.65l.13 2.88q.02.52.54.53.54.01.77-.45.59-1.17 1.16-2.42.21-.46-.05-.9c-.98-1.69 1.2-3.45 2.37-4.35q.13-.1.01-.22l-.18-.18a.31.3 43.1 0 0-.44.01q-.19.22-.44.36-.65.36-.75-.38l-.07-.57q-.1-.8-.78-.37-.2.13-.35.32a.46.46 0 0 1-.72.03q-.15-.17-.15-.38 0-.34.17-.64 1.07-1.93 2.09-4.22.23-.53.8-.51.77.03.79.8.01.39.22.7.56.87.74-.15l.08-.48q.11-.65.76-.71l1.6-.17q.83-.08.78-.92c-.08-1.39-.24-3.94 1.19-4.72q.68-.38.74.4l.13 1.56q.09.97.86.39l.77-.57a.66.65-37.2 0 1 .9.12q.45.56.37 1.28-.05.39-.39.59-.28.16-.24.55.04.51.36.1l.32-.42q.3-.37.69-.09 1.91 1.38.77 3.05-.33.49.25.63.47.11.84.38.57.4.27 1.03l-.6 1.21q-.39.8.26 1.41 1.56 1.46 1.46 3.26-.03.61-.62.77l-.59.15a.54.54 0 0 0-.21.94q.27.22.39.55a.86.84 46.6 0 1-.01.63l-.8 1.91q-.11.25.02.5.11.23.35.12.24-.12.35-.36l1.41-3.05q.21-.46.69-.34.63.16 1.11.6.81.74.93-.35l.05-.52q.09-.81.75-.33 1.25.91 2.02 2.17.06.1.01.2l-.23.47a.83.81-42.3 0 0-.04.67q.83 2.31.52 4.67a.26.26 0 0 0 .25.3l.31.01a.27.27 0 0 0 .28-.25l.28-3.11q.05-.5.55-.51l2.36-.04a.99.99 0 0 0 .7-1.67l-1.61-1.68a.75.75 0 0 0-.85-.16l-.59.27a.49.48 74.3 0 1-.69-.39q-.4-3.85.6-6.82.14-.43-.22-.7-.82-.61-1.49-1.42-.53-.64-.74.16-.13.47-.17.96a.38.38 0 0 1-.38.36q-.32.01-.48-.2-.21-.25-.19-.55.2-2.73.58-5.5a1.44 1.37-51.8 0 0-.06-.62q-.36-1.06.61-1.74.39-.27.72.06l1.51 1.51a.35.34 25.9 0 0 .59-.2q.19-1.61-.44-2.81-.22-.41-.01-.82l.31-.64q.27-.54.07-1.11-.9-2.65-.83-5.36.03-1.43 1.02-.4.5.53 1.22.48.73-.05.75-.78l.06-1.9q.01-.24.25-.21l.27.02q.24.03.24.27-.01 1.17.63 1.33t.58-.49l-.05-.57q-.07-.79.58-.34.52.36.56 1.06a.73.73 0 0 0 1.02.62q.44-.19.8-.52.32-.28.72-.15.2.06.31.24.33.52-.07.97l-.55.62a.41.41 0 0 0 .14.65l.48.22q.45.2.72-.21.37-.54.4-1.19.01-.45.42-.63.52-.24.98.11.37.28.42.73.08.7.27 1.4.33 1.16 1.39.58.63-.35.93-.97.53-1.12-.68-.82-.32.08-.61-.05a.3.3 0 0 1-.09-.48q1.57-1.7 1.29-3.87-.05-.4.23-.68l1.83-1.85a.85.84 25.8 0 1 .7-.24q.74.1.92.86.04.17.21.16.15-.01.26-.11.35-.33-.06-.6-.67-.44-.11-.99.4-.39.15-.89l-.49-1.02q-.25-.51.13-.92l1.39-1.5q.63-.68-.28-.83-1-.17-1.76-.9-.09-.08-.16.02l-.15.21q-.24.37.14.6.75.45.76 1.27.01.75-.73.76-1.35.01-1.35 1.35 0 .38-.37.32-3.03-.44-2.8-2.97.06-.7-.57-.38-.28.14-.22.45a.55.52-38.1 0 1-.05.33q-.51 1.05-1.52 1.81a.75.74-29.2 0 0-.25.86q.14.36.43.62.36.33-.09.52l-.37.15q-.36.15-.64-.12-.86-.83-.64-2.05.08-.43-.33-.57l-1.01-.35q-.64-.22-.25-.78.35-.5.89-.83a.94.93-46.5 0 0-.04-1.62q-1.35-.73-.71-2.02.13-.25.03-.52-.2-.52-.68-.84a.51.5 42.7 0 0-.6.02q-1.02.83-1.88-.25a.77.77 0 0 1-.09-.84c.67-1.36.95-2.81 1.89-4.04q1.57-2.03 2.06-4.57.09-.47.56-.55l1.57-.24q.84-.14.26-.75l-.67-.71q-.56-.59-.91.15-.23.47-1.06-.03a1.25 1.24-59.9 0 1-.44-1.67q.85-1.53-.41-3.6-.08-.14-.2-.25-.32-.32-.8.34a.85.84-32.1 0 0-.15.64q.38 1.97-1.41 2.22-.69.1-.22.61 1 1.08.56 2.58-.18.64-.83.48-.82-.19-1.48-.67a1.02 1.01-41.7 0 0-1.08-.06l-.79.44a.78.77 55 0 1-.98-.18q-1.32-1.62-.32-3.6.28-.54-.13-.99l-1.35-1.46q-.69-.76-.87.25-.13.8.44 1.4.51.53-.06.99-1.18.94-1.48 2.43a.42.42 0 0 1-.12.24q-.26.31-.54.17-.2-.1-.24-.33l-.15-1.02q-.12-.77-.69-.24l-.79.73q-.54.49-.01.99.88.82.17 1.74-.52.69-.67 1.64-.23 1.6 1.34 1.79.69.09.72.79.04.83-.68 1.28-1.29.81-2.66 1.5-.67.33-.68-.42l-.04-2.45q-.01-.69-.67-.5-.18.05-.32.19-.46.44-.9-.03-.21-.23-.14-.55.12-.54-.42-.62-.39-.07-.59.25-.29.44-.72.13-.41-.3-.26-.63 1.16-2.54 1.93-4.97.2-.61-.42-.78-2.06-.58-1.41-3.21a.56.55 22.2 0 0-.26-.61q-.51-.28-.85.09-.49.55-.89-.07-.33-.52-.07-1.09.8-1.77 1.14-3.65a1.03 1.03 0 0 1 1.18-.85q3.67.57 3.75-3 .02-.94-.79-.46-1.01.61-1.83-.31-.34-.39-.12-.87 2.64-5.48 2.18-11.61c4.55 1.84 5.37-1.73 7.26-4.49q.12.79.42 1.22.4.59.77-.01.14-.22.41-.27.55-.09.59.47l.1 1.41q.12 1.6 1.18.4l.75-.86q1.45-1.64 1.2.54-.2 1.67 1.08 2.65.54.41.32-.23-1.43-4.3 2.63-6.33.46-.23.62-.72l.2-.57q4.37 1.23 6.28.19c4.85-2.64 10.41-2.75 15.81-2.49 1.88.09 3.7-.57 5.37-1.32a3.24 3.22 51.5 0 1 3.3.38q2.21 1.71 5.93 2.46m-38.45 27.1q-.19.42.23.64.39.2.41-.24.02-.35-.27-.52a.26.26 0 0 0-.37.12m8.58 40.41q-.02-.42-.35-.67a.3.29-77.4 0 0-.46.3q.08.38.4.6a.26.26 0 0 0 .41-.23M177.294 152a.88.46 98.9 0 0 .59-.799.88.46 98.9 0 0-.318-.94.88.46 98.9 0 0-.59.798.88.46 98.9 0 0 .318.94m-41.943 5.131a.94.76-44.5 0 0-1.204.117.94.76-44.5 0 0-.137 1.2.94.76-44.5 0 0 1.203-.116.94.76-44.5 0 0 .138-1.2m44.839 2.419q-.18.5-.11 1.04.09.71.61.21.54-.52.24-1.26a.4.39 44 0 0-.74.01m-26.872 3.242a1.09.39 129.4 0 0 .993-.595 1.09.39 129.4 0 0 .39-1.09 1.09.39 129.4 0 0-.992.595 1.09.39 129.4 0 0-.39 1.09m27.25 2.072a.38.32 79.6 0 0 .247-.432.38.32 79.6 0 0-.384-.316.38.32 79.6 0 0-.246.432.38.32 79.6 0 0 .384.316m21.652 53.616q.01.35.37.43.24.06.31-.17.1-.29-.13-.51a.33.33 0 0 0-.55.25m26.064 3.259a1.05.39 134.5 0 0 1.014-.476 1.05.39 134.5 0 0 .458-1.022 1.05.39 134.5 0 0-1.014.476 1.05.39 134.5 0 0-.458 1.022m19.966 2.551q-.55.4-.86.95a.42.41-68.4 0 0 .26.61q.34.09.7.07.68-.05.72-.73.03-.49-.27-.84a.41.41 0 0 0-.55-.06m-29.95 11.9q-.29.23-.28.58a.26.25-15.3 0 0 .38.21q.32-.17.36-.53a.29.28 74.2 0 0-.46-.26"/><path d="m184 70.9-1.14.7q-.49.3-.88-.1l-.85-.85q-.43-.44-.96-.13-1.01.58-1.68-.61 3.2-.34 5.51.99"/><path fill="#11dc4c" d="M178.49 69.91q.67 1.19 1.68.61.53-.31.96.13l.85.85q.39.4.88.1l1.14-.7-.2.57q-.16.49-.62.72-4.06 2.03-2.63 6.33.22.64-.32.23-1.28-.98-1.08-2.65.25-2.18-1.2-.54l-.75.86q-1.06 1.2-1.18-.4l-.1-1.41q-.04-.56-.59-.47-.27.05-.41.27-.37.6-.77.01-.3-.43-.42-1.22 1.69-2.92 4.76-3.29M220.69 70.12l9.88 2.97q.75.92.28 1.99-1.11 2.57-.93 4.75.17 1.99 1.06.2l.78-1.56a.6.6 0 0 1 1.07-.01q1.52 2.82 1.23 5.77-.11 1.11.77.42.51-.4 1.15-.55 1.09-.25.48.7-.78 1.22.15 2.48.63.84-.32.38-.61-.31-.96-.93a1.5 1.5 0 0 0-2.63.02q-1.29 2.44-1.58 5.35-.05.58.47.83l.65.33q.82.41.08.91-.11.07-.18.19-.25.43.24.53.67.14 1.42.12.91-.03 1.08.75.14.64-.4 1.26-.93 1.06-1.91.04l-.61-.64q-.46-.49-.93 0l-2.16 2.25q-.96 1-.42-.27l1.21-2.88q.18-.43-.28-.5-.13-.02-.29.02-.52.15-.71-.35-.12-.33.14-.44.35-.14.23-.49l-1.68-5.04q-.48-1.45-1.01-.01-.52 1.42-2.32 2.05-.66.24-.69-.46-.04-.76-.6-1.21-.42-.33-.87-.04-.98.62-.56 1.73.33.9.69 1.82.77 2-1.02.82-.34-.22-.67-.44-.57-.37-.69.29-.09.43.25.75.48.47-.02.91-.68.61-.02 1.28.59.59-.2.87-.52.18-.78-.29-1.79-3.18-.13-6 .33-.55-.14-.99l-.82-.77q-.6-.56.2-.75 1.05-.25 1.37-1.31.15-.51.51-.91l1.97-2.2q.29-.32.1-.71l-.17-.36q-.25-.53.17-.94.23-.23.06-.61a.44.44 0 0 0-.51-.25q-.87.21-1.58-.16a.97.95-78.1 0 1-.51-.8q-.06-1.61-1.12-2.65-.51-.49-.96.06-.57.69-1.21 1.19-.94.72-.43-.35.6-1.27.85-2.55.11-.58.6-.92l2.33-1.6q.42-.29.62-.77zM242.76 72.08q.33.84.03 1.54a.64.63 10.9 0 1-.59.39l-.54.01q-.57.01-.45.56.05.23.26.35.64.37.17.94l-.63.77q-.42.51-.72-.08l-1.14-2.28a.99.97-42.2 0 1 .06-.96q.52-.8 1.32-1.2zM247.62 73.64q-.22.46-.51.73-.41.4-.89.09-.8-.5-1.56.06-.62.45-.7-.32-.1-.92.3-1.93zM235.26 72.73q-.86 1.95-2.33.33zM162.27 75.35q.31.51 1.1 2.5.24.6.87.83.48.17.7-.29.45-.9 1.26-.89l.27.19q.46 6.13-2.18 11.61-.22.48.12.87.82.92 1.83.31.81-.48.79.46-.08 3.57-3.75 3a1.03 1.03 0 0 0-1.18.85q-.34 1.88-1.14 3.65-.26.57.07 1.09.4.62.89.07.34-.37.85-.09a.56.55 22.2 0 1 .26.61q-.65 2.63 1.41 3.21.62.17.42.78-.77 2.43-1.93 4.97-.15.33.26.63.43.31.72-.13.2-.32.59-.25.54.08.42.62-.07.32.14.55.44.47.9.03.14-.14.32-.19.66-.19.67.5l.04 2.45q.01.75.68.42 1.37-.69 2.66-1.5.72-.45.68-1.28-.03-.7-.72-.79-1.57-.19-1.34-1.79.15-.95.67-1.64.71-.92-.17-1.74-.53-.5.01-.99l.79-.73q.57-.53.69.24l.15 1.02q.04.23.24.33.28.14.54-.17a.42.42 0 0 0 .12-.24q.3-1.49 1.48-2.43.57-.46.06-.99-.57-.6-.44-1.4.18-1.01.87-.25l1.35 1.46q.41.45.13.99-1 1.98.32 3.6a.78.77 55 0 0 .98.18l.79-.44a1.02 1.01-41.7 0 1 1.08.06q.66.48 1.48.67.65.16.83-.48.44-1.5-.56-2.58-.47-.51.22-.61 1.79-.25 1.41-2.22a.85.84-32.1 0 1 .15-.64q.48-.66.8-.34.12.11.2.25 1.26 2.07.41 3.6a1.25 1.24-59.9 0 0 .44 1.67q.83.5 1.06.03.35-.74.91-.15l.67.71q.58.61-.26.75l-1.57.24q-.47.08-.56.55-.49 2.54-2.06 4.57c-.94 1.23-1.22 2.68-1.89 4.04a.77.77 0 0 0 .09.84q.86 1.08 1.88.25a.51.5 42.7 0 1 .6-.02q.48.32.68.84.1.27-.03.52-.64 1.29.71 2.02a.94.93-46.5 0 1 .04 1.62q-.54.33-.89.83-.39.56.25.78l1.01.35q.41.14.33.57-.22 1.22.64 2.05.28.27.64.12l.37-.15q.45-.19.09-.52-.29-.26-.43-.62a.75.74-29.2 0 1 .25-.86q1.01-.76 1.52-1.81a.55.52-38.1 0 0 .05-.33q-.06-.31.22-.45.63-.32.57.38-.23 2.53 2.8 2.97.37.06.37-.32 0-1.34 1.35-1.35.74-.01.73-.76-.01-.82-.76-1.27-.38-.23-.14-.6l.15-.21q.07-.1.16-.02.76.73 1.76.9.91.15.28.83l-1.39 1.5q-.38.41-.13.92l.49 1.02q.25.5-.15.89-.56.55.11.99.41.27.06.6-.11.1-.26.11-.17.01-.21-.16-.18-.76-.92-.86a.85.84 25.8 0 0-.7.24l-1.83 1.85q-.28.28-.23.68.28 2.17-1.29 3.87a.3.3 0 0 0 .09.48q.29.13.61.05 1.21-.3.68.82-.3.62-.93.97-1.06.58-1.39-.58-.19-.7-.27-1.4-.05-.45-.42-.73-.46-.35-.98-.11-.41.18-.42.63-.03.65-.4 1.19-.27.41-.72.21l-.48-.22a.41.41 0 0 1-.14-.65l.55-.62q.4-.45.07-.97-.11-.18-.31-.24-.4-.13-.72.15-.36.33-.8.52a.73.73 0 0 1-1.02-.62q-.04-.7-.56-1.06-.65-.45-.58.34l.05.57q.06.65-.58.49t-.63-1.33q0-.24-.24-.27l-.27-.02q-.24-.03-.25.21l-.06 1.9q-.02.73-.75.78-.72.05-1.22-.48-.99-1.03-1.02.4-.07 2.71.83 5.36.2.57-.07 1.11l-.31.64q-.21.41.01.82.63 1.2.44 2.81a.35.34 25.9 0 1-.59.2l-1.51-1.51q-.33-.33-.72-.06-.97.68-.61 1.74a1.44 1.37-51.8 0 1 .06.62q-.38 2.77-.58 5.5-.02.3.19.55.16.21.48.2a.38.38 0 0 0 .38-.36q.04-.49.17-.96.21-.8.74-.16.67.81 1.49 1.42.36.27.22.7-1 2.97-.6 6.82a.49.48 74.3 0 0 .69.39l.59-.27a.75.75 0 0 1 .85.16l1.61 1.68a.99.99 0 0 1-.7 1.67l-2.36.04q-.5.01-.55.51l-.28 3.11a.27.27 0 0 1-.28.25l-.31-.01a.26.26 0 0 1-.25-.3q.31-2.36-.52-4.67a.83.81-42.3 0 1 .04-.67l.23-.47q.05-.1-.01-.2-.77-1.26-2.02-2.17-.66-.48-.75.33l-.05.52q-.12 1.09-.93.35-.48-.44-1.11-.6-.48-.12-.69.34l-1.41 3.05q-.11.24-.35.36-.24.11-.35-.12-.13-.25-.02-.5l.8-1.91a.86.84 46.6 0 0 .01-.63q-.12-.33-.39-.55a.54.54 0 0 1 .21-.94l.59-.15q.59-.16.62-.77.1-1.8-1.46-3.26-.65-.61-.26-1.41l.6-1.21q.3-.63-.27-1.03-.37-.27-.84-.38-.58-.14-.25-.63 1.14-1.67-.77-3.05-.39-.28-.69.09l-.32.42q-.32.41-.36-.1-.04-.39.24-.55.34-.2.39-.59.08-.72-.37-1.28a.66.65-37.2 0 0-.9-.12l-.77.57q-.77.58-.86-.39l-.13-1.56q-.06-.78-.74-.4c-1.43.78-1.27 3.33-1.19 4.72q.05.84-.78.92l-1.6.17q-.65.06-.76.71l-.08.48q-.18 1.02-.74.15-.21-.31-.22-.7-.02-.77-.79-.8-.57-.02-.8.51-1.02 2.29-2.09 4.22-.17.3-.17.64 0 .21.15.38a.46.46 0 0 0 .72-.03q.15-.19.35-.32.68-.43.78.37l.07.57q.1.74.75.38.25-.14.44-.36a.31.3 43.1 0 1 .44-.01l.18.18q.12.12-.01.22c-1.17.9-3.35 2.66-2.37 4.35q.26.44.05.9-.57 1.25-1.16 2.42-.23.46-.77.45-.52-.01-.54-.53l-.13-2.88a1.89 1.88 10.5 0 0-1.14-1.65q-2.64-1.13-2.8 1.69a.42.42 0 0 1-.45.4l-.29-.01q-.22-.02-.21-.24.09-3.4 2.55-5.74.37-.35.02-.72l-1.19-1.24a1.26 1.24 43.6 0 1-.05-1.69q.81-.93.26-1.99-.23-.45-.13-.95c.59-2.87-1.21-5.78-2.91-7.99a.75.75 0 0 0-.83-.25q-1.75.58-1.25 2.11.14.42-.01.84l-.56 1.49q-.2.55-.69.22l-.73-.49q-.53-.35-1.09-.07-.53.27-.52.9.03 1.52-1.02.42-.85-.9-1.13-2.21-.04-.22-.25-.15l-.29.11q-.28.09-.21.37.45 1.99-1.16 2.55a1.03 1.02 4.5 0 0-.57.48q-.59 1.1-1.17 2.22-.21.42.02.81a.41.41 0 0 0 .63.09l.4-.38q.51-.48.69.19.22.8.14 1.76a.51.5-2.3 0 0 .58.53q.5-.07.77-.6.17-.33.38-.02l.19.3q.03.03 0 .07-.87 1-2.05 1.47-.62.26-.7.93-.14 1.31.51 2.35.31.52-.15.9l-1.8 1.5q-.18.15-.4.05-.05-.02-.06-.07-.04-.19.07-.34.13-.2.37-.24a.34.34 0 0 0 .19-.56q-.94-1.08-.98-2.59-.02-.72-.72-.93-2.11-.63-2.33 1.41-.09.81-.71.28-.7-.6-.99-1.4a1.08 1.07-35 0 1 .19-1.04l1.42-1.7q.44-.52.04-1.07-.63-.89-.93-1.92-.26-.9-.9-.22-.21.22-.49.33-.41.14-.3-.28.07-.27.28-.46 1.05-.96 2.05-1.99a.69.69 0 0 0-.02-.97l-.9-.89a.74.74 0 0 1-.14-.89q1.4-2.62-.98-3.59-.49-.2-.38-.72c.15-.64.7-1.13.76-1.82q.09-1.07-.87-1.71-.51-.34-.97.06-.77.69-1.63.37-.81-.3-.3-1 1.71-2.34-.3-5.42-.27-.42-.67-.13-1.14.81-.63 2.04.17.41-.25.56-2.47.87-2.27 3.38.07.97.85.39l.42-.33a.46.46 0 0 1 .51-.02l.22.15a.53.53 0 0 1 .15.76q-1.01 1.4-2.56 1.96-.59.21-.56.84.02.47-.32.72-.73.52-.61-.36.09-.69-.33-1.12-.55-.54-.63.23-.11.96-.69 1.63-.35.4-.03.82l.31.4q.43.58-.28.69-1.04.17-1.35-.88-.5-1.74-2.07-2.11-.77-.18-.84.61-.27 3.27-2.62 4.78-.49.32-.5.9l-.06 3.01q-.02.81.72.49.61-.27.46-.95-.16-.74.57-.57.4.09.7.42.32.34.57-.06.08-.14.21-.22.8-.49.42.37-.18.4-.52.71a.74.73-54.2 0 0 .19 1.21l1.11.49q.49.22.59.75.3 1.65-1.27 2.19a1.28 1.27 72.8 0 0-.81 1.55l1.58 5.8a.53.53 0 0 1-.64.66q-3.19-.83-4.07-3.66-.19-.63-.65-.15l-1.09 1.14q-.41.42-.92.12l-1.05-.62a.58.56-27.7 0 0-.31-.09q-.45.01-.51.3-.06.28.13.51.31.37.49.82.19.49-.07.94-.87 1.47-.94 3.25a.26.26 0 0 1-.38.22l-.28-.15q-.08-.04-.09-.13l-.14-3.92q-.02-.73-.75-.83l-.36-.05q-.8-.1-.25-.69.24-.26.46-.02a.29.29 0 0 0 .48-.09l1.51-3.54a.98.97 24 0 0-.49-1.26l-1.75-.83q-.43-.2-.79.12l-1.35 1.22q-.43.39-.58-.17l-.14-.52a.36.36 0 0 1 .1-.36q1.07-1.02.36-2.12-.24-.38.2-.47 1.87-.43 1.15-2.38-.42-1.13-.8-2.17-.22-.59-.78-.31l-.29.16a1.05 1.03-47.1 0 1-.85.04q-.54-.22-.75-.73a.67.67 0 0 1 .24-.81q.97-.68 1.36-1.75.67-1.81-1.2-2.27-.54-.14-.65-.69-.08-.43-.29-.8-.35-.62-.71-.01-.2.33-.15.73.09.57-.49.53-.45-.04-.8-.41-.38-.42-.15-.93l1.26-2.83q.22-.48.07-1.04-.06-.24-.25-.42a.56.56 0 0 1-.06-.76q.62-.8.47-1.88-.05-.34-.39-.41-.14-.03-.28.06-.2.13-.23.36l-.15 1.09q-.07.56-.64.61-1.36.12-2.45-.72a.6.59-42 0 0-.69-.03q-.46.29-.77.73-.26.37 0 .74.79 1.13.61 2.61-.09.72-.66.27-.72-.56-1.58-.75-.8-.18-.19-.73.12-.12.19-.27.1-.23-.02-.45c-1.26-2.44-.22-5.09-3.02-6.78a1.54 1.51 2.5 0 1-.59-.63l-.38-.78q-.34-.68-.9-.16-.53.5-.77 1.16-.22.58.11 1.11l.59.95q.25.41.08.85-1.34 3.54-3.32 5.96-.31.38-.01.76.81 1.03-.03 2a.7.69-36 0 0-.12.73q.29.66.87 1.14a.54.53 23.5 0 0 .88-.34q.15-1.2.97-2.16.37-.44.63.08.19.35-.1.5-.41.22-.3.67.1.39.41.39.92-.01.66.87l-1.53 5.35q-.14.47-.61.34l-1.93-.53c-2.04-3.71-1.58-7.43-1.43-12.53a2.49 2.44-27.9 0 1 .41-1.29q4.17-6.35 7.75-13.18c2.94-5.62 7.14-9.07 13.23-10.49q13.54-3.16 28.08-7.17c12.81-3.53 20.51-10.13 22.71-23.44q.1-.6.56-1 5.29-4.64 11.67-.54"/><path d="M166.2 77.5q-.81-.01-1.26.89-.22.46-.7.29-.63-.23-.87-.83-.79-1.99-1.1-2.5z"/><path fill="#11dc4c" d="M256.68 80.75q2.03.7 4.04 1.15 10.23 2.26 18.64 3.52c2.36.35 4.77 2.01 4.62 4.63q-.24 4.39 1.08 9.08c1.4 4.93 5.48 6.11 9.69 7.83q1.13 1.57 1.69 2.88 1.14 2.64 1.64-.19.03-.16.33-1.15 1.78.64 2.94 1.85.35.37.41.87c.67 5.51 1.66 10.45.33 16.09l-2.96-3.7a.98.97 31.2 0 0-1.72.42q-.45 2.27-1.66 4.36-.33.55-.73.05-.08-.12-.22-.15-.25-.07-.41.14-1.94 2.51-.24 4.29.44.46.27 1.06-.86 3.02.1 5.61.31.83-.33.2-.73-.73-1.38-.07-.8.83-.35-.23.05-.13.19-.16.75-.18.19-.71-1.04-1.01-1-2.62.01-.64-.62-.78-1.32-.3-2.29.59-.82.74-.41-.29.53-1.3 1.07-2.59.2-.47-.14-.87-.29-.35-.19-.79.41-1.78.39-3.74-.05-3.01-2.37-4.26-.96-.52-.89.57.03.41.21.77a.42.42 0 0 1-.56.57q-2.19-1.08-4.38-.9-.62.05-.34.6l1.33 2.66q.31.62-.39.65l-1.41.06a.78.78 0 0 0-.73.6q-.18.73-.04 1.58a.52.52 0 0 1-.79.52q-.48-.3-.83-.83-.32-.46.07-.86.42-.44.43-1.03c.02-1.15-1.51-1.96-2.42-2.25q-.63-.2-.19-.69.86-.94 2.06-1.19a.65.65 0 0 0 .53-.63q0-.62-.37-1.11-.29-.4-.07-.84c.54-1.09.97-2.24 1-3.48q.04-2.11.16-4.28.04-.78-.74-.68-.99.13-1.94.57-.5.24-.99-.02-.62-.33-1.14.16-.43.4-.76-.08-.15-.23-.17-.51-.08-.83-.91-.88l-1.48-.09q-.77-.05-.25.53.81.91.74 2.23-.03.53-.43.88-.4.34-.91.52a.98.97-8.4 0 0-.64.85l-.17 2.66q-.02.27-.29.29-.14.01-.24-.1c-.37-.43-.58-1.7-.96-2.3q-.3-.46-.16-.99.72-2.71-1.71-3.97-.5-.26-.1-.66.81-.8 1.75-.95 1.15-.18.31-1l-1.14-1.11q-.43-.41.14-.57 1.31-.35 1.62-1.68a1.06 1.06 0 0 1 .79-.79l.36-.09q.7-.17.28-.75l-.24-.33q-.31-.43-.11-.94l.55-1.37q.2-.49-.04-.96-1.42-2.73.04-4.82.42-.61-.29-.39-2.01.61-2.61 2.17a1 .99-49.9 0 1-1.78.16q-.98-1.63-2.41-.93-.54.27-.57-.34l-.11-2.29q-.08-1.57-1.09-.37l-.9 1.08a.49.49 0 0 1-.57.12q-.63-.28-.49-1.02a.56.56 0 0 0-.97-.49q-.56.62-.8 1.37-.18.58.2 1.05l.99 1.24q.38.48.17 1.06-.26.71.14 1.38.3.49.26 1.07-.05.7-.58.24-.57-.48-1.28-.75a.66.66 0 0 0-.86.41l-.68 2.04a1.05 1.05 0 0 0 .05.8q.55 1.13.38 2.27-.18 1.18-.73.12-1.39-2.7-1.25-5.71a.73.73 0 0 0-.6-.75q-1.36-.23-1.43-1.59-.04-.7-.59-.27-.45.35-.39.94.08.79-.71.74-1.22-.07-2-1.1-.33-.44.18-.65 2.16-.89 4.13-3.22.24-.28.15-.65-.54-2.12-2.23-2.63a.33.33 0 0 1-.18-.5q.93-1.44 2.54-1.2 1.44.21.68-1.02-.61-.99-.45-2.17.13-.93 1.07-.83.13.01.25-.04.4-.2.22-.6l-1.46-3.2q-.38-.85.53-1.02zM182.24 97.22a.26.26 0 0 1 .37-.12q.29.17.27.52-.02.44-.41.24-.42-.22-.23-.64"/><path d="M298.41 108.5q-.3.99-.33 1.15-.5 2.83-1.64.19-.56-1.31-1.69-2.88 1.98.48 3.66 1.54"/><path fill="#11dc4c" d="M190.82 137.63a.26.26 0 0 1-.41.23q-.32-.22-.4-.6a.3.29-77.4 0 1 .46-.3q.33.25.35.67"/><ellipse fill="#11dc4c" rx=".88" ry=".46" transform="rotate(98.9 24.062 151.469)"/><ellipse fill="#11dc4c" rx=".94" ry=".76" transform="rotate(-44.5 260.185 -85.706)"/><path fill="#11dc4c" d="M180.19 159.55a.4.39 44 0 1 .74-.01q.3.74-.24 1.26-.52.5-.61-.21-.07-.54.11-1.04"/><ellipse fill="#11dc4c" rx="1.09" ry=".39" transform="rotate(129.4 38.728 117.375)"/><ellipse fill="#11dc4c" rx=".38" ry=".32" transform="rotate(79.6 -8.464 190.566)"/><path fill="#11dc4c" d="m299.39 191.63-1.22 7.23q-2.45-.34-2.32 2.2.06 1.18-.82.39l-.39-.35q-.59-.53-.03-1.09.9-.88.09-1.84-1.06-1.24.56-1.16l.79.05q.59.03.71-.55.83-3.83-.25-5.66-.39-.65.31-.35zM289.19 253.78q-.08 2.4-.11 4.8c-.03 3.17.81 6.08.9 9.21.05 1.64-1.05 3.29-2.38 4.05-7.58 4.34-14.23 8.25-21.96 13.49-14.72 9.98-29.41 18.92-46.17 24.85q.22-1.36.01-2.46-.09-.45.1-.86.55-1.18-.41-2.26-1.02-1.15-1.21.37l-.08.6a.38.37-66.4 0 1-.61.24l-.85-.73a.49.48 39.5 0 1-.07-.68q.41-.49.25-1.07-.12-.43-.09-.89.27-4.5 2.06-8.63.16-.39-.03-.77-.22-.41-.64-.67a.8.77 44.8 0 0-.81-.01l-.29.18q-.64.39-.75-.35-.27-1.77.93-2.72c.92-.72 2.2-.33 3.29-.53q.53-.1.65-.62.53-2.39 1.07-4.55.06-.25-.14-.42-.35-.3-.69.01l-.23.22q-.74.67-.82-.32l-.21-2.32a1.01 1-78 0 0-.52-.81l-.87-.46q-.52-.28-.33-.84.89-2.55 1.74-4.92.09-.25-.08-.48-.34-.48-.75-.06-.24.24-.55.27-.71.05-.67-.65.03-.61-.54-.68-.35-.05-.51.26-.09.18-.31.11-.46-.15-.47-.63l-.07-2.37q-.02-.73-.68-.41-1.7.85-3 1.93a1.04 1.04 0 0 0 .55 1.83q1.54.17 1.19 1.66-.25 1.06-.93 1.92a.66.66 0 0 0-.01.81q.38.5.5 1.12.13.65-.43.99l-.48.29a.33.32-23 0 1-.48-.19l-.36-1.28a.35.35 0 0 0-.68.03q-.29 1.64-1.61 2.51-.46.3-.22.79.34.7.54 1.41.38 1.4-.75.49-.83-.66-1.57-1.58-.34-.42-.07-.9 1.12-2.01-.39-3.6-.51-.54-1.04-.02-.35.35-.84.42a1.24 1.23-29.8 0 1-1.01-.27q-.65-.54-1.52-.58-.54-.03-.64.5-.3 1.54.56 2.83a.34.34 0 0 1-.24.53q-1.7.22-1.41 2.1.26 1.62-.97.55-1.71-1.48-.46-3.67.25-.44-.02-.88-.26-.41-.64-.67-.4-.28-.78.03-.78.64-1.45-.08l.36-1.26q.75.18 1.37-.04.55-.19.57-.78.05-1.66.97-2.98 1.72-2.45 2.72-5.37.15-.42-.03-.81-.19-.43-.63-.7-.48-.29-.94.04-.78.55-1.42-.18-.33-.37-.19-.85.26-.84.2-1.66c2.48-3.74 6.12-7.77 6.12-12.58 1.87-1.97 1.27-4.87.49-7.16q-.24-.69-.06-1.4.07-.26.25-.48.34-.41.09-.9-.7-1.37-.37-2.85.12-.51.49-.15l.87.81q1.95 1.83 1.98-.85.03-2.77.5-6.6.05-.41-.37-.43l-.33-.02q-.39-.02-.39.37l-.01 1.08a.39.39 0 0 1-.68.25l-1.44-1.66a.47.47 0 0 0-.82.3l-.02.88q-.01.38-.39.33l-.26-.04q-.22-.03-.19-.25.2-1.26 1.31-1.96a1.17 1.17 0 0 0 .54-.97l.02-5.68q0-.74-.72-.56-.15.04-.21.17-.32.67-.9.23-1.29-.97-2.09-2.46a.8.8 0 0 1 .75-1.17l2.48.14a.64.63 3.6 0 0 .68-.59l.22-3.18q.02-.24.25-.25h.31q.17-.01.18.16l.19 3.81q.02.5.3.92.37.56.04 1.13a.72.72 0 0 0 .09.85l1.6 1.69a.55.55 0 0 0 .89-.13q.22-.43.11-.9a.39.39 0 0 1 .69-.32q.52.68 1.29.75.69.06.91-.63.57-1.75 1.45-3.19.12-.19.38-.08a.36.35-68.4 0 1 .19.45l-.96 2.43q-.21.54.28.85.24.16.28.45.07.53-.45.65-.35.08-.66.28-.47.31-.44.88.09 1.58 1.14 2.73.98 1.08.22 2.36-.34.57-.2 1.19.15.62.8.64.86.04.44.79-.97 1.73.83 2.96a1.76 1.75 15.1 0 1 .77 1.33q.07.78.83.88.65.09 1.02-.44.14-.2.34-.34.64-.44.66.34l.06 1.85a.53.53 0 0 0 .93.34q1.44-1.64 1.03-4.3-.2-1.3 1.1-1.46l1.42-.17a.68.68 0 0 0 .58-.53l.17-.72q.16-.73.65-.16.22.27.22.62-.01.5.35.85.29.29.71.19.43-.1.62-.5l2.14-4.41q.14-.3.07-.63-.05-.2-.21-.32-.22-.16-.45 0l-.75.53a.35.35 0 0 1-.55-.33q.15-1.01-.64-1.37a.4.39-73.8 0 0-.56.31q-.04.35-.4.31-.48-.05-.13-.38 1.01-.95 2.06-2.07 1.02-1.08.16-2.11-.3-.36-.14-.79.67-1.77 1.63-2.81.91-.98.89.36-.03 1.39.1 2.63a2.33 2.26 71.5 0 0 3.46 1.79q.44-.27.81-1.97a.31.3-77.9 0 1 .35-.23l.3.05q.2.04.18.24-.3 3.35-2.66 5.75-.42.43.04.82.63.52 1.03 1.25.3.54.16 1.15-1.57 6.42 2.99 11.49.31.35.74.16 1.6-.69 1.06-2.11-.17-.44.07-.85.46-.77.59-1.59a.38.38 0 0 1 .69-.16q.7.97 1.71.61a.86.85-10.5 0 0 .57-.82q0-.24.08-.48.32-.93.94-.17.56.68.84 1.54.67 2.02 1.11-.06.09-.4.03-.8-.07-.54.42-.78 2-1 2.43-3.58.09-.52-.44-.44-.36.05-.62.31a.47.47 0 0 1-.81-.3l-.12-1.83q-.05-.89-.68-.26-.33.34-.78.43-.59.12-.22-.35.77-.97 1.98-1.27a.94.93-5.6 0 0 .71-.85q.09-1.32-.6-2.43-.33-.52.15-.91.79-.63 1.57-1.4t.53.3q-.01.07-.08.1-.79.28-.25.91.78.91.75 2.2-.02.72.64.98 1.99.79 2.54-1.23.31-1.16.99-.16l.54.78q.47.69-.06 1.35l-1.22 1.49q-.48.6-.19 1.3l.93 2.2q.37.86.82.04l.24-.44q.21-.39.4.01.1.2-.04.36-1.03 1.15-2.06 2.42a.65.65 0 0 0 0 .82l.61.78q.34.42.25.95l-.39 2.33a.84.84 0 0 0 .35.82q.48.34 1.05.47.59.14.5.74-.08.57-.51 1.01-.34.36-.36.85-.06 1.03.95 1.79.52.39 1-.06.3-.29.7-.46.59-.23 1.03.21a.8.79-50.8 0 1 .09.99q-1.55 2.35.41 5.21.31.46.74.12.92-.71.54-1.8-.19-.52.33-.71 2.59-.96 2.11-3.47-.16-.81-.8-.31l-.31.24q-.84.66-.74-.41.14-1.41 1.54-1.89 1.31-.44 1.71-1.81.19-.68.48-.03.16.38.19.84.07 1.31.81.23 1.11-1.63.48-2.94-.21-.43.25-.54l.29-.07q.57-.14.79.39.61 1.44 1.75 2.54a.85.85 0 0 0 1.44-.5c.2-1.52.74-3.39 2.05-4.25q1.88-1.24.98-4.67-.12-.46-.59-.35-.14.03-.24.14-.12.14-.13.32l-.04.74a.5.5 0 0 1-.9.26q-.47-.64-1.02-.03-.79.87-.58-.29.04-.17.22-.19a.35.34 8.8 0 0 .28-.2q.62-1.49-1-1.9-.72-.18-.86-.92-.31-1.57 1.15-2.03a1.4 1.4 0 0 0 .93-1.7l-1.63-5.98q-.17-.61.46-.52 2.94.44 4.32 3.67a.44.44 0 0 0 .72.12l1-1.08q.38-.41.87-.12l.77.48a.45.38 60.8 0 0 .19.07q1.09.18 1.03-.5a.32.31 25.3 0 0-.05-.13l-.51-.75q-.32-.47-.05-.97.76-1.43.98-3 .06-.44.48-.54.05-.02.1.01.17.09.18.28.12 2.14.21 4.09a.72.71 4.7 0 0 .58.67l.37.07q.82.15.13.62-2.05 1.41-2.22 4.18a.92.9-76 0 0 .52.89l1.56.73q.46.22.85-.11l1.38-1.17q.69-.58.64.32-.05.88-.64 1.52a.63.63 0 0 0-.1.69q.07.15.2.26.58.49-.12.73-.48.16-.89.43-.42.27-.4.77.08 1.7 1.09 3.36.33.54.85.18.85-.6 1.5.25a.91.91 0 0 1-.15 1.26q-1.48 1.2-1.35 3.01.05.7.75.78 1.33.15 1.39 1.48.05.85.71.32.38-.31.28-.8-.15-.76.59-.54.79.24.96 1.02.09.43-.18.78-1.58 2.04-.98 4 .18.58-.07 1.12-.6 1.29.8 2.52M202.22 218.48a.33.33 0 0 1 .55-.25q.23.22.13.51-.07.23-.31.17-.36-.08-.37-.43"/><ellipse fill="#11dc4c" rx="1.05" ry=".39" transform="rotate(134.5 68.176 158.513)"/><path fill="#11dc4c" d="M248.25 224.29a.41.41 0 0 1 .55.06q.3.35.27.84-.04.68-.72.73-.36.02-.7-.07a.42.41-68.4 0 1-.26-.61q.31-.55.86-.95M218.3 236.19a.29.28 74.2 0 1 .46.26q-.04.36-.36.53a.26.25-15.3 0 1-.38-.21q-.01-.35.28-.58"/><path d="M199.61 263.7q.06.82-.2 1.66-.14.48.19.85.64.73 1.42.18.46-.33.94-.04.44.27.63.7.18.39.03.81-1 2.92-2.72 5.37-.92 1.32-.97 2.98-.02.59-.57.78-.62.22-1.37.04.51-5.07 1.23-10.12c.17-1.25.77-2.15 1.39-3.21M219.47 310.18l-3.51 1.01q.42-1.06-.45-2.06a.78.78 0 0 0-1.34.3q-.39 1.35.87 2-1.31.86-2.86.99.08-.94-.23-1.77-.22-.62-.78-.27-.62.39-1.05 1.08-1.1 1.77-1.15-.32l-.06-2.48q-.03-.88-.7-.31l-.3.24q-.68.57-.86-.31l-.27-1.28q-.31-1.55-1.15-.2-.27.45-.7.76-1.22.9-.9-.59.33-1.49-1.31-2.55-.62-.41-.27.25 1.18 2.22-.85 5.1-.3.42-.81.57-.89.24-1.46 1.01-.46.63.29.4.23-.07.34-.3a.54.54 0 0 1 .84-.16l.88.77q.35.31.06.69l-.26.33q-.41.52.2.79.32.14.64.06.54-.14.6-.69l.07-.74q.07-.61.61-.33.22.12.28.47.36 1.93 2.41 2.03l-12.25.13q-.52.01-.83-.42-1.81-2.55-2.86-5.04-.82-1.96.26-5.52 3.84-12.59 6.02-25.53.67.72 1.45.08.38-.31.78-.03.38.26.64.67.27.44.02.88-1.25 2.19.46 3.67 1.23 1.07.97-.55-.29-1.88 1.41-2.1a.34.34 0 0 0 .24-.53q-.86-1.29-.56-2.83.1-.53.64-.5.87.04 1.52.58a1.24 1.23-29.8 0 0 1.01.27q.49-.07.84-.42.53-.52 1.04.02 1.51 1.59.39 3.6-.27.48.07.9.74.92 1.57 1.58 1.13.91.75-.49-.2-.71-.54-1.41-.24-.49.22-.79 1.32-.87 1.61-2.51a.35.35 0 0 1 .68-.03l.36 1.28a.33.32-23 0 0 .48.19l.48-.29q.56-.34.43-.99-.12-.62-.5-1.12a.66.66 0 0 1 .01-.81q.68-.86.93-1.92.35-1.49-1.19-1.66a1.04 1.04 0 0 1-.55-1.83q1.3-1.08 3-1.93.66-.32.68.41l.07 2.37q.01.48.47.63.22.07.31-.11.16-.31.51-.26.57.07.54.68-.04.7.67.65.31-.03.55-.27.41-.42.75.06.17.23.08.48-.85 2.37-1.74 4.92-.19.56.33.84l.87.46a1.01 1-78 0 1 .52.81l.21 2.32q.08.99.82.32l.23-.22q.34-.31.69-.01.2.17.14.42-.54 2.16-1.07 4.55-.12.52-.65.62c-1.09.2-2.37-.19-3.29.53q-1.2.95-.93 2.72.11.74.75.35l.29-.18a.8.77 44.8 0 1 .81.01q.42.26.64.67.19.38.03.77-1.79 4.13-2.06 8.63-.03.46.09.89.16.58-.25 1.07a.49.48 39.5 0 0 .07.68l.85.73a.38.37-66.4 0 0 .61-.24l.08-.6q.19-1.52 1.21-.37.96 1.08.41 2.26-.19.41-.1.86.21 1.1-.01 2.46m-18.98-25a.28.27 71.7 0 0-.2.41q.1.19.3.15.23-.05.22-.29-.02-.32-.32-.27"/><path fill="#11dc4c" d="M200.49 285.18q.3-.05.32.27.01.24-.22.29-.2.04-.3-.15a.28.27 71.7 0 1 .2-.41M212.18 312.42l-5.89 2.25q-2.05-.1-2.41-2.03-.06-.35-.28-.47-.54-.28-.61.33l-.07.74q-.06.55-.6.69-.32.08-.64-.06-.61-.27-.2-.79l.26-.33q.29-.38-.06-.69l-.88-.77a.54.54 0 0 0-.84.16q-.11.23-.34.3-.75.23-.29-.4.57-.77 1.46-1.01.51-.15.81-.57 2.03-2.88.85-5.1-.35-.66.27-.25 1.64 1.06 1.31 2.55-.32 1.49.9.59.43-.31.7-.76.84-1.35 1.15.2l.27 1.28q.18.88.86.31l.3-.24q.67-.57.7.31l.06 2.48q.05 2.09 1.15.32.43-.69 1.05-1.08.56-.35.78.27.31.83.23 1.77M215.96 311.19q-.43.27-.92.24-1.26-.65-.87-2a.78.78 0 0 1 1.34-.3q.87 1 .45 2.06"/></svg>