<svg xmlns="http://www.w3.org/2000/svg" viewBox="0 0 382 382"><g fill="none" stroke-width="2"><path stroke="#a82358" d="M197.46 68.89q.34.33.41.75.15.84.78.28.33-.29.52-.67.22-.43.69-.5l.44-.07" vector-effect="non-scaling-stroke"/><path stroke="#9a2359" d="M200.3 68.68q.65.06 1.17-.15" vector-effect="non-scaling-stroke"/><path stroke="#753474" d="M200.3 68.59v.09" vector-effect="non-scaling-stroke"/><path stroke="#a82358" d="M199.948 72.057a.75.57 132 0 0 .926-.176.75.57 132 0 0 .078-.938.75.57 132 0 0-.926.176.75.57 132 0 0-.078.938M208.09 72.856a.64.53 30.6 0 0-.28-.782.64.53 30.6 0 0-.82.13.64.53 30.6 0 0 .28.782.64.53 30.6 0 0 .82-.13" vector-effect="non-scaling-stroke"/><path stroke="#9a2359" d="M192.97 74.53a.45.45 0 0 0-.45-.45.45.45 0 0 0-.45.45.45.45 0 0 0 .45.45.45.45 0 0 0 .45-.45" vector-effect="non-scaling-stroke"/><path stroke="#a82358" d="M234.203 75.775a.77.6 17.8 0 0-.55-.806.77.6 17.8 0 0-.916.336.77.6 17.8 0 0 .55.806.77.6 17.8 0 0 .916-.336" vector-effect="non-scaling-stroke"/><path stroke="#9a2359" d="M203.17 76.54a.56.56 0 0 0-.56-.56.56.56 0 0 0-.56.56.56.56 0 0 0 .56.56.56.56 0 0 0 .56-.56M206.99 76.54a.52.52 0 0 0-.52-.52.52.52 0 0 0-.52.52.52.52 0 0 0 .52.52.52.52 0 0 0 .52-.52M248.06 76.28q-.06.23.01.45a.42.42 0 0 0 .76.09q.21-.34.02-.65a.43.43 0 0 0-.79.11M193.055 78.967a.66.52 35.9 0 0-.23-.808.66.52 35.9 0 0-.84.034.66.52 35.9 0 0 .23.808.66.52 35.9 0 0 .84-.034M213.06 78.52a.53.53 0 0 0-.53-.53.53.53 0 0 0-.53.53.53.53 0 0 0 .53.53.53.53 0 0 0 .53-.53" vector-effect="non-scaling-stroke"/><path stroke="#a82358" d="M173.094 82.997a.73.55 41.8 0 0-.177-.897.73.55 41.8 0 0-.911-.077.73.55 41.8 0 0 .177.897.73.55 41.8 0 0 .911.077" vector-effect="non-scaling-stroke"/><path stroke="#9a2359" d="M250.14 83.55a.6.6 0 0 0-.6-.6.6.6 0 0 0-.6.6.6.6 0 0 0 .6.6.6.6 0 0 0 .6-.6M192 85.44a.52.52 0 0 0-.52-.52.52.52 0 0 0-.52.52.52.52 0 0 0 .52.52.52.52 0 0 0 .52-.52M252.81 87.32q-.35-.74-1.16-1.2-.66-.38-.56.38.12.93 1.25 1.34.86.31.47-.52M171.24 88.99q-.37.21-.25.7a.56.56 0 0 0 .74.38q.52-.2.29-.8a.55.54-25 0 0-.78-.28" vector-effect="non-scaling-stroke"/><path stroke="#da204b" d="M244.756 90.722a1 .6 70.4 0 0 .23-1.143 1 .6 70.4 0 0-.901-.741 1 .6 70.4 0 0-.23 1.143 1 .6 70.4 0 0 .9.741M170.03 92.103a1.46.35 47.3 0 0-.733-1.31 1.46.35 47.3 0 0-1.247-.836 1.46.35 47.3 0 0 .733 1.31 1.46.35 47.3 0 0 1.247.836" vector-effect="non-scaling-stroke"/><path stroke="#9a2359" d="M199.44 92.189a1.07.59 92.7 0 0 .64-1.041 1.07.59 92.7 0 0-.54-1.097 1.07.59 92.7 0 0-.64 1.041 1.07.59 92.7 0 0 .54 1.097M248.21 90.55a.6.6 0 0 0-.6-.6.6.6 0 0 0-.6.6.6.6 0 0 0 .6.6.6.6 0 0 0 .6-.6M252.994 92.982a.64.58-49.7 0 0-.856.113.64.58-49.7 0 0 .028.863.64.58-49.7 0 0 .856-.113.64.58-49.7 0 0-.028-.863M182.047 94.908a.59.51 32.6 0 0-.222-.748.59.51 32.6 0 0-.772.112.59.51 32.6 0 0 .222.748.59.51 32.6 0 0 .772-.112M209.03 96.42a.61.58-69.2 0 0 .26.61q.34.22.61-.06a.56.56 0 0 0-.28-.92q-.51-.12-.59.37" vector-effect="non-scaling-stroke"/><path stroke="#da204b" d="M271.817 99.233a.98.61-9.2 0 0-1.065-.445.98.61-9.2 0 0-.87.759.98.61-9.2 0 0 1.065.445.98.61-9.2 0 0 .87-.759" vector-effect="non-scaling-stroke"/><path stroke="#9a2359" d="M227.89 101.52q-.09.75.28 1.31a.52.52 0 0 0 .95-.2q.1-.64-.14-1.26-.09-.22-.31-.29-.17-.06-.36-.02a.54.54 0 0 0-.42.46" vector-effect="non-scaling-stroke"/><path stroke="#da204b" d="M270.89 102.52q.13.34.4.6.38.37.34-.15-.11-1.29-1.33-1.98-.63-.37-.32.3.18.38.52.68.26.23.39.55M167.23 104.491a.99.48-.5 0 0-.994-.471.99.48-.5 0 0-.986.489.99.48-.5 0 0 .994.471.99.48-.5 0 0 .986-.489" vector-effect="non-scaling-stroke"/><path stroke="#9a2359" d="M268.173 104.824a.66.5 21.7 0 0-.428-.709.66.5 21.7 0 0-.798.221.66.5 21.7 0 0 .428.709.66.5 21.7 0 0 .798-.221M247.02 109.09q-.15.43-.09.72.05.19.25.3t.4.14" vector-effect="non-scaling-stroke"/><path stroke="#d31843" d="m247.58 110.25-.88 5.82q-.15 1.01-.65.12l-4.79-8.64q-.38-.68-.96-.16l-3.37 3.02a2.13 2.12 71.9 0 0-.69 1.37q-.46 4.87-2.28 9.42-.12.3-.11-.02 0-.05-.05-.09-.11-.08-.24-.05-3.81.86-6.43 3.34c-1.87 1.78-4.31 2.16-6.64.82q-4.16-2.41-8.31-3.23-.58-.11-.5.48.09.67-.43 1.11-.41.36-.54.9c-.62 2.71-.71 5.43-1.67 8.07-.71 1.93-1.09 4.46.17 6.23 4.37 6.09 2.4 12.15 2.01 18.87-.18 2.96.52 5.92 1.32 8.77.66 2.31.48 4.8-1.11 6.69q-3.05 3.62-6.03 7.91-1.2 1.73-2.68 3.09-.36.33-.37.82-.05 2.39.11 4.7c.09 1.16 1.1 2.11 2.31 1.77" vector-effect="non-scaling-stroke"/><path stroke="#9a2359" d="M204.77 191.38q.06.56.49.7.4.13.94-.3" vector-effect="non-scaling-stroke"/><path stroke="#d31843" d="M206.2 191.78q.52.51.8 1.21" vector-effect="non-scaling-stroke"/><path stroke="#a82358" d="M207 192.99q-.23.68-.03 1.14" vector-effect="non-scaling-stroke"/><path stroke="#d31843" d="M206.97 194.13c1.52 2.09 4.53 7.02 7.79 4.92 6.06-3.91 10.4 1.02 14 5.2 2.29 2.66 2.92 6.08 3.85 9.36q.14.51.65.34 1.88-.63 2.35 1.29.06.27.32.37.05.02.11 0 .27-.09.28-.37.05-1.18.79-2.14.27-.35-.03-.68-.34-.37-.17-.83.21-.61.84-.76l.75-.17q.43-.1.53-.53.11-.44.55-.6a.96.96 0 0 1 .89.13q2.49 1.85 5.76 2.72c3.28.87 3.53 3.82 4.24 6.58a2.2 2.2 0 0 0 1.83 1.63q2.51.33 3.83-2 .69-1.21 1.27-2.48.15-.32.47-.43.18-.07.35.02.33.17.69.06 5.25-1.55 8.83-5.26a.79.78-29.7 0 1 1.33.36q1.3 5.35 4.84 9.54.43.51.86-.01.54-.64.72-1.49.1-.44.51-.63 2.66-1.25 2.87-4.29c.24-3.35.43-7.4-2.24-9.9q-2.6-2.42-2.73-6.44-.02-.61.54-.38.86.35 1.53-.33.44-.43.99-.16 3.1 1.52 6.06 3.19.17.1.03-.04-.05-.04-.02-.11.11-.22.35-.19.15.01.29.03.19.02.26-.15c2.09-5.15 3.79-9.94.45-14.97a1.55 1.51-58.4 0 1-.24-1.06l2.74-18.85q.08-.52.52-.8 2.95-1.84 5.35-4.94.73-.95.67-2.16c-.15-2.64-.63-4.63-3.59-5.31q-1.46-.34-1.08-1.79.42-1.57.15-3.16a.34.34 0 0 0-.57-.19q-2.7 2.5-5.99 3.29-1.28.31-1.34-1c-.25-5.69-4.61-8.34-1.37-14.63a.66.66 0 0 0-.31-.9l-2.08-.98q-.44-.21-.92-.12l-4.68.81q-.6.1-.67-.5c-.48-4.15-3.21-8.1-1.37-12.34a.96.95 9.2 0 0-.96-1.33q-3.58.33-5.86 2.43-2.46 2.27-2.89-1.05-.37-2.96-3.38-4.51-.52-.27-.89.17-.12.14-.33.11-.48-.09-.41-.57.79-5.2.06-10-.11-.68-.69-.33l-7.23 4.27" vector-effect="non-scaling-stroke"/><path stroke="#ae285d" d="M206.97 194.13q.72.17 1.08-.18a.51.5-50.4 0 0-.07-.77q-.38-.26-.98-.19" vector-effect="non-scaling-stroke"/><path stroke="#9f295f" d="M206.2 191.78q-.18-.52-.49-.68-.42-.2-.94.28M247.58 110.25q.31-.19.44-.44.31-.58-.34-.72-.28-.06-.66 0" vector-effect="non-scaling-stroke"/><path stroke="#9a2359" d="M222.03 108.54a.52.52 0 0 0-.52-.52.52.52 0 0 0-.52.52.52.52 0 0 0 .52.52.52.52 0 0 0 .52-.52" vector-effect="non-scaling-stroke"/><path stroke="#a82358" d="M197.046 109.915a.74.51 38.9 0 0-.256-.862.74.51 38.9 0 0-.896-.068.74.51 38.9 0 0 .256.862.74.51 38.9 0 0 .896.068" vector-effect="non-scaling-stroke"/><path stroke="#9a2359" d="M171.14 111.412a.68.58-16.9 0 0-.819-.357.68.58-16.9 0 0-.482.753.68.58-16.9 0 0 .82.357.68.58-16.9 0 0 .482-.753" vector-effect="non-scaling-stroke"/><path stroke="#da204b" d="M280.28 115.83q-.55.2-.62.73a.45.45 0 0 0 .63.47q.58-.26.54-.84a.41.41 0 0 0-.55-.36" vector-effect="non-scaling-stroke"/><path stroke="#a82358" d="M194.13 116.54a.58.58 0 0 0-.58-.58.58.58 0 0 0-.58.58.58.58 0 0 0 .58.58.58.58 0 0 0 .58-.58" vector-effect="non-scaling-stroke"/><path stroke="#9a2359" d="M198.26 120.12q-.34.16-.22.52a.44.44 0 0 0 .82.05q.09-.2-.01-.38-.21-.36-.59-.19" vector-effect="non-scaling-stroke"/><path stroke="#a82358" d="M81.781 129.148a.53.42-37.4 0 0-.676-.012.53.42-37.4 0 0-.166.656.53.42-37.4 0 0 .676.012.53.42-37.4 0 0 .166-.656" vector-effect="non-scaling-stroke"/><path stroke="#9a2359" d="M122.03 136.18q-.13.18-.17.42-.09.47.38.54.46.07.79-.51.25-.43-.11-.69" vector-effect="non-scaling-stroke"/><path stroke="#da204b" d="M122.92 135.94q.39-.58.47-1.04.11-.59-.45-.37-1.44.58-.91 1.65" vector-effect="non-scaling-stroke"/><path stroke="#a73167" d="M122.92 135.94q-.34-.06-.89.24" vector-effect="non-scaling-stroke"/><path stroke="#a82358" d="M199.89 135.48q.02.41.48.56a.54.54 0 0 0 .69-.67q-.13-.43-.65-.44a.51.51 0 0 0-.52.55" vector-effect="non-scaling-stroke"/><path stroke="#da204b" d="M281.43 135.81q-.35.4-.17.83a.34.34 0 0 0 .59.07q.38-.49.1-.88a.34.33-42.1 0 0-.52-.02" vector-effect="non-scaling-stroke"/><path stroke="#9a2359" d="M190.028 139.83a.63.51 29.5 0 0-.297-.754.63.51 29.5 0 0-.8.134.63.51 29.5 0 0 .298.754.63.51 29.5 0 0 .8-.134M287.17 139.56a.63.63 0 0 0-.63-.63.63.63 0 0 0-.63.63.63.63 0 0 0 .63.63.63.63 0 0 0 .63-.63" vector-effect="non-scaling-stroke"/><path stroke="#a82358" d="M186.26 141.48a.64.64 0 0 0-.64-.64.64.64 0 0 0-.64.64.64.64 0 0 0 .64.64.64.64 0 0 0 .64-.64M291.12 141.43a.64.64 0 0 0-.64-.64.64.64 0 0 0-.64.64.64.64 0 0 0 .64.64.64.64 0 0 0 .64-.64M96.21 143.14a.44.43-40.7 0 0-.06.76q.35.23.72.09a.42.41 56.3 0 0 .13-.68q-.37-.36-.79-.17" vector-effect="non-scaling-stroke"/><path stroke="#9a2359" d="M188.07 143.22q-.21.32.03.62.31.38.78.27a.4.39-7.7 0 0 .3-.38q-.01-.64-.67-.72-.28-.04-.44.21M121.07 145.27a.45.45 0 0 0 .25.77q.56.1.79-.47a.4.39-71.7 0 0-.26-.53q-.44-.1-.78.23M189.15 146.08q.14-.13.3-.21a.04.04 0 0 0-.03-.07q-.48.1-1.11.04-.68-.06-.37.55.09.17.11.37.07.8.7.3.35-.29.32-.78-.01-.12.08-.2M191.2 146.48a.68.68 0 0 0-.68-.68.68.68 0 0 0-.68.68.68.68 0 0 0 .68.68.68.68 0 0 0 .68-.68" vector-effect="non-scaling-stroke"/><path stroke="#a82358" d="M201.241 147.03a.66.58 121.9 0 0 .841-.254.66.58 121.9 0 0-.143-.866.66.58 121.9 0 0-.841.254.66.58 121.9 0 0 .143.866" vector-effect="non-scaling-stroke"/><path stroke="#9a2359" d="M87.1 149.44a.58.58 0 0 0-.58-.58.58.58 0 0 0-.58.58.58.58 0 0 0 .58.58.58.58 0 0 0 .58-.58M144.024 150.976a.75.52 42.4 0 0-.203-.89.75.52 42.4 0 0-.905-.122.75.52 42.4 0 0 .203.89.75.52 42.4 0 0 .905.122M88.15 151.524a.58.49-.6 0 0-.585-.484.58.49-.6 0 0-.575.496.58.49-.6 0 0 .585.484.58.49-.6 0 0 .575-.496" vector-effect="non-scaling-stroke"/><path stroke="#da204b" d="m120.06 153.38 1.93-1.81q.17-.16 0-.33l-.19-.2q-.22-.23-.45-.01l-1.79 1.69q-.23.22 0 .43l.23.23q.13.12.27 0M134.21 152.07q.34-.26.46-.64.16-.49-.25-.18-.68.53-1.04 1.32-.15.34.21.23.28-.09.39-.41.07-.2.23-.32" vector-effect="non-scaling-stroke"/><path stroke="#9a2359" d="M143.14 152.15a.45.44 51.8 0 0-.08.68q.44.47.94.07a.48.48 0 0 0-.11-.81q-.39-.16-.75.06" vector-effect="non-scaling-stroke"/><path stroke="#d31843" d="M183.92 157.8q.07.13.15.25.36.53.79.04l1.91-2.15q.46-.51.15-1.13-.71-1.4-2.33-2.25a.93.92-69.4 0 0-1.33.61l-.78 3.24q-.11.47.34.63l.43.16a1.17 1.17 0 0 1 .67.6" vector-effect="non-scaling-stroke"/><path stroke="#a82358" d="M114.917 157.154a.71.54 59.8 0 0 .11-.886.71.54 59.8 0 0-.824-.342.71.54 59.8 0 0-.11.886.71.54 59.8 0 0 .824.342" vector-effect="non-scaling-stroke"/><path stroke="#da204b" d="M194.885 157.779a.4.4 0 0 0-.518-.226l-.261.103a.4.4 0 0 0-.226.519l2.075 5.266a.4.4 0 0 0 .518.226l.261-.103a.4.4 0 0 0 .226-.519l-2.075-5.266M165.86 161.35a1.45.63 44.7 0 0-.587-1.468 1.45.63 44.7 0 0-1.474-.572 1.45.63 44.7 0 0 .588 1.468 1.45.63 44.7 0 0 1.474.572M186.07 160.87l.11.48q.13.59.56.16l.75-.76q.68-.69-.29-.8-.77-.08-1.26-.69-.11-.13-.28-.16-.2-.03-.33.12-.24.29.01.56l.35.38q.28.3.38.71" vector-effect="non-scaling-stroke"/><path stroke="#9a2359" d="M166.94 161.55q.17.65.81.53a.43.43 0 0 0 .13-.79l-.34-.19a.41.41 0 0 0-.6.45" vector-effect="non-scaling-stroke"/><path stroke="#da204b" d="M146.9 162.57q.06.41.27.72.38.6.56-.09.19-.71 0-1.51-.14-.59-.74-.59-.24 0-.45.08a.57.54-5.4 0 0-.35.4q-.09.42.32.55a.56.56 0 0 1 .39.44M192.66 162.11a.38.37 1.7 0 0-.45.42q.2 1.4 1.23 2.04.82.5.87-.46.08-1.65-1.65-2" vector-effect="non-scaling-stroke"/><path stroke="#a82358" d="M200.07 166.62a.6.6 0 0 0-.6-.6.6.6 0 0 0-.6.6.6.6 0 0 0 .6.6.6.6 0 0 0 .6-.6" vector-effect="non-scaling-stroke"/><path stroke="#9a2359" d="M91.07 167.44q-.03.35.31.48a.4.39-68 0 0 .49-.21q.1-.24-.04-.46a.42.41-58.8 0 0-.76.19" vector-effect="non-scaling-stroke"/><path stroke="#a82358" d="M199.31 168.53a.69.69 0 0 0-.69-.69.69.69 0 0 0-.69.69.69.69 0 0 0 .69.69.69.69 0 0 0 .69-.69" vector-effect="non-scaling-stroke"/><path stroke="#9a2359" d="M170.11 168.61a.53.53 0 0 0-.53-.53.53.53 0 0 0-.53.53.53.53 0 0 0 .53.53.53.53 0 0 0 .53-.53M119.116 171.109a.64.48-37.7 0 0-.8.011.64.48-37.7 0 0-.212.771.64.48-37.7 0 0 .8-.011.64.48-37.7 0 0 .212-.771M145.545 172.149a.62.44 86.8 0 0 .404-.644.62.44 86.8 0 0-.474-.594.62.44 86.8 0 0-.404.644.62.44 86.8 0 0 .474.594M120.097 173.055a.75.46 131.1 0 0 .84-.263.75.46 131.1 0 0 .146-.867.75.46 131.1 0 0-.84.263.75.46 131.1 0 0-.146.867" vector-effect="non-scaling-stroke"/><path stroke="#a82358" d="M138.216 172.813a.71.52 22.6 0 0-.456-.753.71.52 22.6 0 0-.855.207.71.52 22.6 0 0 .455.753.71.52 22.6 0 0 .855-.207" vector-effect="non-scaling-stroke"/><path stroke="#da204b" d="M152.414 176.784a1.06.4 51.9 0 0-.34-1.08 1.06.4 51.9 0 0-.968-.588 1.06.4 51.9 0 0 .34 1.08 1.06.4 51.9 0 0 .968.588" vector-effect="non-scaling-stroke"/><path stroke="#9a2359" d="M117.126 176.83a.64.53 25.9 0 0-.345-.757.64.53 25.9 0 0-.807.197.64.53 25.9 0 0 .344.757.64.53 25.9 0 0 .808-.197M127.713 180.116a1.03.63 77.5 0 0 .392-1.142 1.03.63 77.5 0 0-.838-.87 1.03.63 77.5 0 0-.392 1.142 1.03.63 77.5 0 0 .838.87" vector-effect="non-scaling-stroke"/><path stroke="#a82358" d="M154.85 182.11a.48.48 0 0 0-.45.06q-.51.37-.11.8a.38.38 0 0 0 .53.02q.67-.64.03-.88" vector-effect="non-scaling-stroke"/><path stroke="#9a2359" d="M298.159 183.474a.62.52-3.3 0 0-.649-.483.62.52-3.3 0 0-.589.555.62.52-3.3 0 0 .649.483.62.52-3.3 0 0 .589-.555M150.104 185.075a.69.58 129.2 0 0 .885-.168.69.58 129.2 0 0-.013-.902.69.58 129.2 0 0-.886.168.69.58 129.2 0 0 .014.902" vector-effect="non-scaling-stroke"/><path stroke="#a82358" d="M157.13 184.06q-.76-.41-1.16.33-.16.3-.02.62.25.6.79.22.41-.3.56-.76.08-.27-.17-.41" vector-effect="non-scaling-stroke"/><path stroke="#9a2359" d="M135.022 187.07a1.43.51 44.4 0 0-.665-1.364 1.43.51 44.4 0 0-1.379-.636 1.43.51 44.4 0 0 .665 1.364 1.43.51 44.4 0 0 1.379.637" vector-effect="non-scaling-stroke"/><path stroke="#da204b" d="m140.11 187.31-.88-2.03q-.34-.79-.51.05-.29 1.45 1 2.31.75.5.39-.33" vector-effect="non-scaling-stroke"/><path stroke="#9a2359" d="M131.853 188.05a.61.5 62.4 0 0 .16-.772.61.5 62.4 0 0-.726-.309.61.5 62.4 0 0-.16.773.61.5 62.4 0 0 .726.309" vector-effect="non-scaling-stroke"/><path stroke="#a82358" d="M175.1 189.04a.54.54 0 0 0-.04.96q.57.32 1-.09a.51.51 0 0 0-.09-.8q-.44-.26-.87-.07" vector-effect="non-scaling-stroke"/><path stroke="#9a2359" d="M153.02 191.46a.45.45 0 0 0-.45-.45.45.45 0 0 0-.45.45.45.45 0 0 0 .45.45.45.45 0 0 0 .45-.45M156.53 191.93q.29 0 .42-.25a.46.45-70 0 0-.3-.66q-.24-.05-.45.06a.42.42 0 0 0-.11.67q.18.18.44.18M173.074 192.027a.66.53 41.5 0 0-.143-.834.66.53 41.5 0 0-.845-.04.66.53 41.5 0 0 .143.834.66.53 41.5 0 0 .845.04" vector-effect="non-scaling-stroke"/><path stroke="#a82358" d="M177.17 191.68q.2.31.54.37.08.01.16-.02.38-.13.35-.53-.02-.29-.31-.41-.25-.11-.51-.03-.52.17-.23.62" vector-effect="non-scaling-stroke"/><path stroke="#9a2359" d="M175.36 194.1q.14-.05.28 0 .59.21.51-.41-.04-.23-.18-.41a.61.61 0 0 0-1 .06q-.09.15-.12.32-.13.66.51.44" vector-effect="non-scaling-stroke"/><path stroke="#a82358" d="M145.31 194.953a.88.51 30.2 0 0-.504-.884.88.51 30.2 0 0-1.017-.002.88.51 30.2 0 0 .505.884.88.51 30.2 0 0 1.017.002" vector-effect="non-scaling-stroke"/><path stroke="#9a2359" d="M147.147 194.358a.65.47-20.9 0 0-.775-.207.65.47-20.9 0 0-.44.67.65.47-20.9 0 0 .776.208.65.47-20.9 0 0 .44-.67" vector-effect="non-scaling-stroke"/><path stroke="#a82358" d="M154.32 201.345a.74.64 104.9 0 0 .809-.55.74.64 104.9 0 0-.429-.88.74.64 104.9 0 0-.808.55.74.64 104.9 0 0 .428.88" vector-effect="non-scaling-stroke"/><path stroke="#9a2359" d="M156.918 203.1a.67.6 56.7 0 0 .133-.89.67.6 56.7 0 0-.869-.23.67.6 56.7 0 0-.133.89.67.6 56.7 0 0 .869.23M172.91 206.23a.57.57 0 0 0 .23.83q.64.31 1.01-.26a.5.5 0 0 0-.14-.68q-.72-.47-1.1.11M214.14 214.47a.6.6 0 0 0-.6-.6.6.6 0 0 0-.6.6.6.6 0 0 0 .6.6.6.6 0 0 0 .6-.6M291.34 215.11a.29.29 0 0 0-.27.44q.23.38.64.46.5.1.32-.38-.19-.49-.69-.52M216.08 221.53a.54.54 0 0 0-.54-.54.54.54 0 0 0-.54.54.54.54 0 0 0 .54.54.54.54 0 0 0 .54-.54M240.105 231.005a.66.54 40.1 0 0-.157-.838.66.54 40.1 0 0-.853-.012.66.54 40.1 0 0 .157.838.66.54 40.1 0 0 .853.012M289.124 231.734a.6.45 19.9 0 0-.41-.627.6.45 19.9 0 0-.718.219.6.45 19.9 0 0 .41.627.6.45 19.9 0 0 .718-.219M239.81 233.3a.41.41 0 0 0 .33-.59l-.2-.42q-.16-.32-.49-.24-.56.14-.43.68.15.62.79.57M262.08 237.47a.45.45 0 0 0-.37-.49q-.54-.09-.7.37a.5.5 0 0 0 .66.62q.38-.14.41-.5M287.22 239.954a.72.58 32.2 0 0-.3-.875.72.58 32.2 0 0-.92.107.72.58 32.2 0 0 .3.875.72.58 32.2 0 0 .92-.107M260.14 246.14a.47.47 0 0 0 .01.84q.37.18.77-.02a.48.48 0 0 0-.09-.9q-.35-.09-.69.08M213.28 271.465a.78.67-1.1 0 0-.793-.655.78.67-1.1 0 0-.767.685.78.67-1.1 0 0 .793.655.78.67-1.1 0 0 .767-.685" vector-effect="non-scaling-stroke"/><path stroke="#da204b" d="M212.48 275.26q-.09-.04-.11.11-.02.24.11.19.41-.15 0-.3" vector-effect="non-scaling-stroke"/><path stroke="#9a2359" d="M202.049 288.878a.6.5 32 0 0-.244-.742.6.5 32 0 0-.774.106.6.5 32 0 0 .244.742.6.5 32 0 0 .774-.106" vector-effect="non-scaling-stroke"/><path stroke="#da204b" d="M214.778 292.791a1.47.35 46.2 0 0-.765-1.303 1.47.35 46.2 0 0-1.27-.819 1.47.35 46.2 0 0 .764 1.303 1.47.35 46.2 0 0 1.27.819" vector-effect="non-scaling-stroke"/><path stroke="#9a2359" d="M211.1 293.35q-.01.23.07.45a.4.4 0 0 0 .76-.07q.06-.33-.06-.61-.09-.23-.35-.2a.47.47 0 0 0-.42.43" vector-effect="non-scaling-stroke"/><path stroke="#a82358" d="M211.052 301a.76.52 41.2 0 0-.23-.891.76.52 41.2 0 0-.914-.11.76.52 41.2 0 0 .23.892.76.52 41.2 0 0 .914.11" vector-effect="non-scaling-stroke"/><path stroke="#9a2359" d="M199.122 312.615a.58.45 9.4 0 0-.499-.539.58.45 9.4 0 0-.645.35.58.45 9.4 0 0 .498.538.58.45 9.4 0 0 .646-.35" vector-effect="non-scaling-stroke"/><path stroke="#ae285d" d="M247.75 120.26q.19.67.87.82.64.13.47-.5-.18-.63-.9-.79-.62-.13-.44.47M212.023 125.134a.71.51-38.9 0 0-.873.05.71.51-38.9 0 0-.233.842.71.51-38.9 0 0 .873-.05.71.51-38.9 0 0 .233-.842" vector-effect="non-scaling-stroke"/><path stroke="#9f295f" d="M261.15 125.736a.52.43 19.8 0 0-.344-.58.52.43 19.8 0 0-.635.228.52.43 19.8 0 0 .343.58.52.43 19.8 0 0 .635-.228M230.07 127.032a.66.48 42 0 0-.169-.799.66.48 42 0 0-.812-.085.66.48 42 0 0 .17.799.66.48 42 0 0 .812.085M213.99 128l-.11-.58a.44.44 0 0 0-.49-.36q-.52.07-.5.5.1 1.6 1.45 2.27.84.41.37-.4-.24-.41-.49-.82a1.57 1.55-65.8 0 1-.23-.61" vector-effect="non-scaling-stroke"/><path stroke="#ae285d" d="M220.02 128.71q.23.51.87.28.52-.18.19-.63-.29-.39-.71-.31-.6.11-.35.66M254.07 130.29l.06.47q.1.73.68.28.17-.13.37-.19.37-.13.17-.46-.29-.46-.93-.48a.34.33-2.8 0 0-.35.38M247.537 135.168a.67.58 86 0 0 .532-.709.67.58 86 0 0-.626-.627.67.58 86 0 0-.532.709.67.58 86 0 0 .626.627M216.179 134.94a.69.57 34.5 0 0-.246-.86.69.57 34.5 0 0-.892.08.69.57 34.5 0 0 .246.86.69.57 34.5 0 0 .892-.08M220.146 135.442a.6.5-6.5 0 0-.653-.429.6.5-6.5 0 0-.54.565.6.5-6.5 0 0 .654.429.6.5-6.5 0 0 .54-.565M255.11 137.55q-.13-.58-.6-.82a.41.4-65.9 0 0-.57.22q-.23.65.33 1.04.27.19.58.03.14-.07.23-.21a.41.37 54.6 0 0 .03-.26" vector-effect="non-scaling-stroke"/><path stroke="#9f295f" d="M271.01 141.078a.72.55 46 0 0-.104-.9.72.55 46 0 0-.896-.136.72.55 46 0 0 .104.9.72.55 46 0 0 .896.136M266.04 143.235a.64.49-32.6 0 0-.804-.068.64.49-32.6 0 0-.275.758.64.49-32.6 0 0 .803.068.64.49-32.6 0 0 .275-.758M246.483 145.05a.96.59 91 0 0 .607-.95.96.59 91 0 0-.573-.97.96.59 91 0 0-.607.95.96.59 91 0 0 .573.97M235.15 144.54a.58.58 0 0 0-.58-.58.58.58 0 0 0-.58.58.58.58 0 0 0 .58.58.58.58 0 0 0 .58-.58M264.097 144.345a.56.49-22.6 0 0-.705-.237.56.49-22.6 0 0-.329.667.56.49-22.6 0 0 .705.237.56.49-22.6 0 0 .329-.667M227.17 146.936a1.27.5 134.5 0 0 1.247-.555 1.27.5 134.5 0 0 .533-1.257 1.27.5 134.5 0 0-1.247.555 1.27.5 134.5 0 0-.533 1.257" vector-effect="non-scaling-stroke"/><path stroke="#ae285d" d="M241.09 146.48a.55.55 0 0 0-.55-.55.55.55 0 0 0-.55.55.55.55 0 0 0 .55.55.55.55 0 0 0 .55-.55" vector-effect="non-scaling-stroke"/><path stroke="#9f295f" d="M256.08 148.72q.98.69 1.68-.09.32-.37.28-.93a.47.47 0 0 0-.71-.38q-.76.46-1.28 1.09a.21.21 0 0 0 .03.31M228.997 148.966a.67.47 50.4 0 0-.065-.816.67.47 50.4 0 0-.79-.216.67.47 50.4 0 0 .066.816.67.47 50.4 0 0 .79.216M226.13 148.56a.59.59 0 0 0-.59-.59.59.59 0 0 0-.59.59.59.59 0 0 0 .59.59.59.59 0 0 0 .59-.59M252.08 148.33a.45.45 0 0 0 .39.61q.59.04.58-.48a.44.44 0 0 0-.32-.41q-.49-.14-.65.28M248.136 149.843a.74.41 25.9 0 0-.487-.692.74.41 25.9 0 0-.845.046.74.41 25.9 0 0 .487.692.74.41 25.9 0 0 .845-.046M235.96 150.42a.5.5 0 0 0-.5-.5.5.5 0 0 0-.5.5.5.5 0 0 0 .5.5.5.5 0 0 0 .5-.5" vector-effect="non-scaling-stroke"/><path stroke="#ae285d" d="M244.066 150.968a.73.56 37.9 0 0-.232-.89.73.56 37.9 0 0-.92-.006.73.56 37.9 0 0 .232.89.73.56 37.9 0 0 .92.006" vector-effect="non-scaling-stroke"/><path stroke="#9f295f" d="M251.071 150.847a.56.36 30.8 0 0-.297-.596.56.36 30.8 0 0-.665.022.56.36 30.8 0 0 .297.596.56.36 30.8 0 0 .665-.022M267.06 151.51a.53.53 0 0 0-.53-.53.53.53 0 0 0-.53.53.53.53 0 0 0 .53.53.53.53 0 0 0 .53-.53M271.057 151.641a.52.43 20.4 0 0-.337-.584.52.43 20.4 0 0-.637.222.52.43 20.4 0 0 .337.584.52.43 20.4 0 0 .637-.222M249.08 152.34q-.15.5.34.67a.37.37 0 0 0 .49-.39q-.03-.31-.3-.48a.35.35 0 0 0-.53.2M251.83 154.03q.35.08.68-.03.63-.2.22-.73-.4-.49-1.01-.32-1 .27-1.51 1.37-.25.54.34.42.37-.07.57-.41.24-.42.71-.3M276.71 153.8q-.77.19-.78.96a.34.34 0 0 0 .43.34q.77-.21.72-1.03a.3.3 0 0 0-.37-.27M235.883 154.893a.58.41 38.7 0 0-.197-.683.58.41 38.7 0 0-.709-.043.58.41 38.7 0 0 .197.683.58.41 38.7 0 0 .709.043" vector-effect="non-scaling-stroke"/><path stroke="#ae285d" d="M245.93 154.61a.48.48 0 0 0-.48-.48.48.48 0 0 0-.48.48.48.48 0 0 0 .48.48.48.48 0 0 0 .48-.48M261.073 154.976a.59.46 139.2 0 0 .748-.038.59.46 139.2 0 0 .146-.733.59.46 139.2 0 0-.748.037.59.46 139.2 0 0-.146.734" vector-effect="non-scaling-stroke"/><path stroke="#9f295f" d="M240.02 155.46a.55.55 0 0 0-.55-.55.55.55 0 0 0-.55.55.55.55 0 0 0 .55.55.55.55 0 0 0 .55-.55M253.095 155.592a.58.46 13.2 0 0-.46-.58.58.46 13.2 0 0-.67.316.58.46 13.2 0 0 .46.58.58.46 13.2 0 0 .67-.316M292.05 157.37q-.01-.9-.06-1.85-.02-.55-.56-.44-.29.05-.36.35-.35 1.64.1 2.24.9 1.21.88-.3" vector-effect="non-scaling-stroke"/><path stroke="#ae285d" d="M237.148 156.083a.69.56-33.1 0 0-.884-.092.69.56-33.1 0 0-.272.846.69.56-33.1 0 0 .884.092.69.56-33.1 0 0 .272-.846M265.131 156.067a.68.53-31.3 0 0-.856-.1.68.53-31.3 0 0-.306.806.68.53-31.3 0 0 .856.1.68.53-31.3 0 0 .306-.806" vector-effect="non-scaling-stroke"/><path stroke="#9f295f" d="M235.055 156.889a.63.51 33.6 0 0-.243-.774.63.51 33.6 0 0-.807.076.63.51 33.6 0 0 .243.774.63.51 33.6 0 0 .807-.076M243.63 156.09q-.51.02-.55.48a.44.44 0 0 0 .82.28q.11-.17.12-.36a.37.37 0 0 0-.39-.4M257.01 156.56a.47.47 0 0 0-.47-.47.47.47 0 0 0-.47.47.47.47 0 0 0 .47.47.47.47 0 0 0 .47-.47M259.091 157.8a.59.43 31.8 0 0-.274-.675.59.43 31.8 0 0-.728.054.59.43 31.8 0 0 .274.677.59.43 31.8 0 0 .728-.055M256.87 158.27a.74.73-6.7 0 0-.9 1.13q.5.59 1.38.59.74 0 .45-.68-.31-.73-.93-1.04" vector-effect="non-scaling-stroke"/><path stroke="#753863" d="M255.71 163.83q2.12.12.45-1.19-1.45-1.13-1.21-2.92.11-.84-.62-.41l-1.51.89q-.52.3-.8.84-.56 1.07-1.41 1.91a.97.95-27.5 0 0-.28.86q.08.45.49.65.47.23.95.03 1.9-.78 3.94-.66" vector-effect="non-scaling-stroke"/><path stroke="#9f295f" d="M246.19 159.47q-.47.48-.2 1.14a.48.48 0 0 0 .77.18q.52-.49.25-1.17a.5.5 0 0 0-.82-.15M217.967 162.056a1.39.47 48.2 0 0-.577-1.35 1.39.47 48.2 0 0-1.276-.722 1.39.47 48.2 0 0 .576 1.35 1.39.47 48.2 0 0 1.276.722" vector-effect="non-scaling-stroke"/><path stroke="#ae285d" d="M240.92 161.52q.14.39.51.54a.35.35 0 0 0 .47-.42q-.58-2.02-2.25-1.51-.76.23-.2.78.35.34.73.22.56-.16.74.39M219.182 162.08a.68.59 114.1 0 0 .817-.38.68.59 114.1 0 0-.261-.86.68.59 114.1 0 0-.817.38.68.59 114.1 0 0 .261.86M249.097 161.547a.61.49 12 0 0-.495-.606.61.49 12 0 0-.699.352.61.49 12 0 0 .495.606.61.49 12 0 0 .699-.352" vector-effect="non-scaling-stroke"/><path stroke="#9f295f" d="M216.15 162.616a.56.47 2.7 0 0-.538-.496.56.47 2.7 0 0-.581.444.56.47 2.7 0 0 .537.496.56.47 2.7 0 0 .581-.444M217.13 164.98a.54.45 129 0 0 .69-.137.54.45 129 0 0-.01-.703.54.45 129 0 0-.69.137.54.45 129 0 0 .01.703M232.908 165.034a.57.43 51.1 0 0-.023-.714.57.43 51.1 0 0-.693-.174.57.43 51.1 0 0 .023.714.57.43 51.1 0 0 .693.174M260.34 164.73q.62.46 1.39.05.54-.28 0-.57-.62-.33-1.31-.07-.58.22-.08.59" vector-effect="non-scaling-stroke"/><path stroke="#ae285d" d="M213.95 165.56q.04.18.17.31.38.35.85.11a.41.4 58.9 0 0 .14-.59q-.23-.33-.64-.38a.47.47 0 0 0-.52.55" vector-effect="non-scaling-stroke"/><path stroke="#9f295f" d="M255.1 165.53a.56.56 0 0 0-.56-.56.56.56 0 0 0-.56.56.56.56 0 0 0 .56.56.56.56 0 0 0 .56-.56M257.16 165.53a.56.56 0 0 0-.56-.56.56.56 0 0 0-.56.56.56.56 0 0 0 .56.56.56.56 0 0 0 .56-.56" vector-effect="non-scaling-stroke"/><path stroke="#ae285d" d="M274.16 165.5a.6.6 0 0 0-.6-.6.6.6 0 0 0-.6.6.6.6 0 0 0 .6.6.6.6 0 0 0 .6-.6M250.03 166.54a.55.55 0 0 0-.55-.55.55.55 0 0 0-.55.55.55.55 0 0 0 .55.55.55.55 0 0 0 .55-.55" vector-effect="non-scaling-stroke"/><path stroke="#9f295f" d="M259.07 166.97q.54.02.8-.37.25-.36-.17-.48-.53-.15-.86.41-.25.42.23.44" vector-effect="non-scaling-stroke"/><path stroke="#ae285d" d="M255.27 167.45a.61.61 0 0 0-.61-.61.61.61 0 0 0-.61.61.61.61 0 0 0 .61.61.61.61 0 0 0 .61-.61M236.91 167.37q-.01.7.7.8a.47.47 0 0 0 .52-.6q-.11-.35-.39-.58a.51.51 0 0 0-.83.38M244.04 167.54a.56.56 0 0 0-.56-.56.56.56 0 0 0-.56.56.56.56 0 0 0 .56.56.56.56 0 0 0 .56-.56" vector-effect="non-scaling-stroke"/><path stroke="#9f295f" d="m252.5 168.15.55-.63a.22.21 40.7 0 0-.03-.32l-.22-.18q-.32-.25-.63.01-1.05.88-1.19 2.2-.03.32.23.5.1.07.22.11.45.12.53-.33l.06-.38q.1-.56.48-.98M257.03 167.2a.41.41 0 0 0 .14.74q.68.13.94-.47a.28.26-67.6 0 0-.14-.36q-.49-.22-.94.09M255.057 169.064a.62.52-35.1 0 0-.806-.07.62.52-35.1 0 0-.208.782.62.52-35.1 0 0 .806.07.62.52-35.1 0 0 .208-.782M257.14 169.53a.57.57 0 0 0-.57-.57.57.57 0 0 0-.57.57.57.57 0 0 0 .57.57.57.57 0 0 0 .57-.57" vector-effect="non-scaling-stroke"/><path stroke="#ae285d" d="M259.1 169.606a.64.48 1.4 0 0-.628-.496.64.48 1.4 0 0-.652.464.64.48 1.4 0 0 .628.496.64.48 1.4 0 0 .652-.464" vector-effect="non-scaling-stroke"/><path stroke="#9f295f" d="M219.03 170.952a.62.53 39.2 0 0-.145-.803.62.53 39.2 0 0-.815.02.62.53 39.2 0 0 .145.802.62.53 39.2 0 0 .815-.02M247.14 171.18q-.36.32-.03.68a.43.42-25.3 0 0 .41.14q.42-.08.57-.48a.39.38 18.7 0 0-.25-.5q-.39-.12-.7.16" vector-effect="non-scaling-stroke"/><path stroke="#ae285d" d="M250.16 171.52a.63.63 0 0 0-.63-.63.63.63 0 0 0-.63.63.63.63 0 0 0 .63.63.63.63 0 0 0 .63-.63" vector-effect="non-scaling-stroke"/><path stroke="#9f295f" d="M252.806 171.915a.51.43 44.1 0 0-.067-.664.51.43 44.1 0 0-.665-.046.51.43 44.1 0 0 .067.664.51.43 44.1 0 0 .665.046M236.84 173.1a.24.23 86.3 0 0 .25-.29q-.09-.38-.4-.64a.33.33 0 0 0-.54.32q.11.56.69.61" vector-effect="non-scaling-stroke"/><path stroke="#ae285d" d="M266.97 173.2a.47.47 0 0 0 .25.67q.65.25.77.06a.66.65-63.9 0 0-.33-.98q-.47-.16-.69.25M246.63 173.9q.41-.03.35-.44-.03-.19-.23-.23-.45-.11-.48.35-.02.34.36.32M242.11 174.57a.52.52 0 0 0-.52-.52.52.52 0 0 0-.52.52.52.52 0 0 0 .52.52.52.52 0 0 0 .52-.52" vector-effect="non-scaling-stroke"/><path stroke="#9f295f" d="M252.444 175.938a.97.6 93.3 0 0 .655-.933.97.6 93.3 0 0-.543-1.003.97.6 93.3 0 0-.655.933.97.6 93.3 0 0 .543 1.003" vector-effect="non-scaling-stroke"/><path stroke="#ae285d" d="M279.272 175.03a.59.45 120.3 0 0 .687-.283.59.45 120.3 0 0-.091-.736.59.45 120.3 0 0-.686.282.59.45 120.3 0 0 .09.736M210.17 176.51a.62.62 0 0 0-.62-.62.62.62 0 0 0-.62.62.62.62 0 0 0 .62.62.62.62 0 0 0 .62-.62" vector-effect="non-scaling-stroke"/><path stroke="#9f295f" d="M237.1 176.47a.62.62 0 0 0-.62-.62.62.62 0 0 0-.62.62.62.62 0 0 0 .62.62.62.62 0 0 0 .62-.62M251.1 176.493a.56.47-1.7 0 0-.574-.453.56.47-1.7 0 0-.546.487.56.47-1.7 0 0 .574.453.56.47-1.7 0 0 .546-.487M275.01 177.53a.49.49 0 0 0-.49-.49.49.49 0 0 0-.49.49.49.49 0 0 0 .49.49.49.49 0 0 0 .49-.49M238.96 178.6a.54.54 0 0 0-.54-.54.54.54 0 0 0-.54.54.54.54 0 0 0 .54.54.54.54 0 0 0 .54-.54M273.125 178.788a.6.43 22.3 0 0-.392-.626.6.43 22.3 0 0-.718.17.6.43 22.3 0 0 .392.626.6.43 22.3 0 0 .718-.17" vector-effect="non-scaling-stroke"/><path stroke="#ae285d" d="M227.116 180.102a.76.58-37.1 0 0-.956-.005.76.58-37.1 0 0-.256.921.76.58-37.1 0 0 .956.005.76.58-37.1 0 0 .256-.921" vector-effect="non-scaling-stroke"/><path stroke="#9f295f" d="M251.065 180.834a.57.5 27.6 0 0-.273-.707.57.5 27.6 0 0-.737.179.57.5 27.6 0 0 .273.707.57.5 27.6 0 0 .737-.179" vector-effect="non-scaling-stroke"/><path stroke="#ae285d" d="M258.01 181.54a.53.53 0 0 0-.53-.53.53.53 0 0 0-.53.53.53.53 0 0 0 .53.53.53.53 0 0 0 .53-.53M228.179 183.099a.76.57 118.4 0 0 .862-.398.76.57 118.4 0 0-.14-.94.76.57 118.4 0 0-.862.398.76.57 118.4 0 0 .14.94" vector-effect="non-scaling-stroke"/><path stroke="#9f295f" d="M281.99 183.44q.03.62.64.64a.46.46 0 0 0 .45-.6q-.16-.51-.69-.48a.42.42 0 0 0-.4.44M282.27 185.15a.48.47 42.4 0 0 .04.86q.47.2.8-.16a.47.47 0 0 0-.22-.76q-.33-.1-.62.06M237.11 188.57a.56.56 0 0 0-.56-.56.56.56 0 0 0-.56.56.56.56 0 0 0 .56.56.56.56 0 0 0 .56-.56" vector-effect="non-scaling-stroke"/><path stroke="#ae285d" d="M238.9 188.52a.48.48 0 0 0-.48-.48.48.48 0 0 0-.48.48.48.48 0 0 0 .48.48.48.48 0 0 0 .48-.48" vector-effect="non-scaling-stroke"/><path stroke="#9f295f" d="M207.05 189.29q-.19.57.36.78.21.08.42.02a.44.44 0 0 0 .26-.63q-.2-.38-.61-.43a.41.4 13.6 0 0-.43.26" vector-effect="non-scaling-stroke"/><path stroke="#ae285d" d="M211.11 191.57a.59.59 0 0 0-.59-.59.59.59 0 0 0-.59.59.59.59 0 0 0 .59.59.59.59 0 0 0 .59-.59" vector-effect="non-scaling-stroke"/><path stroke="#9f295f" d="M230.94 191.57a.43.43 0 0 0-.43-.43.43.43 0 0 0-.43.43.43.43 0 0 0 .43.43.43.43 0 0 0 .43-.43" vector-effect="non-scaling-stroke"/><path stroke="#ae285d" d="M226.99 191.57a.48.48 0 0 0-.48-.48.48.48 0 0 0-.48.48.48.48 0 0 0 .48.48.48.48 0 0 0 .48-.48M252.11 195.62a.58.58 0 0 0-.58-.58.58.58 0 0 0-.58.58.58.58 0 0 0 .58.58.58.58 0 0 0 .58-.58" vector-effect="non-scaling-stroke"/><path stroke="#e02550" d="M241.78 197.86a.52.52 0 0 0-.22-.73l-1.78-.89a.52.52 0 0 0-.75.45l-.17 4.32a.52.52 0 0 0 .97.28l1.95-3.43" vector-effect="non-scaling-stroke"/><path stroke="#9f295f" d="M249.828 197.946a1.29.48 45.9 0 0-.553-1.26 1.29.48 45.9 0 0-1.243-.592 1.29.48 45.9 0 0 .553 1.26 1.29.48 45.9 0 0 1.243.592" vector-effect="non-scaling-stroke"/><path stroke="#ae285d" d="M231.931 199.077a.81.47 134.6 0 0 .904-.247.81.47 134.6 0 0 .234-.907.81.47 134.6 0 0-.904.247.81.47 134.6 0 0-.234.907M227.04 199.026a.72.57 42.5 0 0-.145-.906.72.57 42.5 0 0-.916-.066.72.57 42.5 0 0 .146.906.72.57 42.5 0 0 .916.066" vector-effect="non-scaling-stroke"/><path stroke="#9f295f" d="M255.417 205.1a1.06.59 91.8 0 0 .623-1.041 1.06.59 91.8 0 0-.557-1.078 1.06.59 91.8 0 0-.623 1.04 1.06.59 91.8 0 0 .557 1.079" vector-effect="non-scaling-stroke"/><path stroke="#ae285d" d="M267.08 206.55a.58.58 0 0 0-.58-.58.58.58 0 0 0-.58.58.58.58 0 0 0 .58.58.58.58 0 0 0 .58-.58" vector-effect="non-scaling-stroke"/><path stroke="#9f295f" d="M261.973 211.26a.86.45 127.8 0 0 .883-.404.86.45 127.8 0 0 .171-.956.86.45 127.8 0 0-.883.404.86.45 127.8 0 0-.171.956" vector-effect="non-scaling-stroke"/><path stroke="#ae285d" d="M264.74 210.85q-1.1.32-.93.91a.63.63 0 0 0 1.15.15q.25-.41.21-.78-.05-.4-.43-.28" vector-effect="non-scaling-stroke"/></g><path fill="#cd123d" d="M197.46 68.89q.34.33.41.75.15.84.78.28.33-.29.52-.67.22-.43.69-.5l.44-.07q.65.06 1.17-.15 2.03-.15 4.11.13c2.2.29 3.33-.24 5.18-1.12q2.92-1.39 4.98.8.34.37.82.52l13.65 4.18a4.74 4.68-42.8 0 0 2.45.08c4.44-1.05 11.33-2.35 15.2.76 4.81 3.86 8.14 7.34 14.71 8.6q8.47 1.63 16.99 3.01c2.55.41 4.62 2.17 4.45 4.89q-.26 4.27 1.05 8.64c2.38 7.94 10.9 6.62 16.22 11.23q.4.34.47.86c.64 5.05 1.56 9.81.65 15.03q-.73 4.13-1.27 7.97c-.48 3.48 3.06 4.96 3.05 7.94q-.04 8.72.02 17.37.03 5.16-1.54 13.81-4.37 24.09-8.27 48.72-1.64 10.33-3.64 20.58c-.84 4.29-1.06 8.49-1.61 12.8-.44 3.48.04 6.74.72 10.13.81 4.02-.78 5.64-4.2 7.57-6.44 3.63-12.77 7.21-18.77 11.42-17.35 12.16-35.25 22.67-55.47 28.18-1.63.44-2.86 1.03-4.3 1.82q-.83.46-1.77.45-5.55-.05-11.31-.01-.58.01-.87-.49c-1.28-2.17-3.23-4.65-3.15-7.27q.07-2 .61-3.73 5.47-17.64 7.33-34.88.31-2.9 1.61-4.8c2.76-4.02 6.56-8.28 6.05-13.66q-1.04-10.81-1.9-21.15c-.49-5.82-2.64-11.62-7.52-14.8q-2.91-1.9-8.52-2.82-10.71-1.76-22.39-1.25c-3.92.17-7.83-1.27-10.95-3.89q-9.2-7.73-18.54-14.59-13.32-9.78-29.65-11.44-7.52-.76-11.4-2.39c-9.74-4.11-14.88-13.6-13.98-24.11q.26-2.96-.41-5.33-.63-2.24-1.58-4.25c-1.46-3.09-.96-7-1.02-10.35q-.02-1.77.9-3.17 4.16-6.33 7.64-13.04c2.54-4.9 6.84-8.48 12.17-9.76q12.69-3.04 27.83-7.07c10.15-2.7 19.25-7.79 22.43-18.2q.83-2.7 1.34-5.59a1.8 1.77-16 0 1 .57-1.01c5.18-4.57 10.29-1.69 15.07 1.37 1.9 1.21 4.65 1.58 5.97-.73 3.26-5.64 5.62-8.49 12.61-5.66 3.09 1.25 5.23.43 8.12-.76q2.43-1 5.05-1.18m2.488 3.167a.75.57 132 0 0 .926-.176.75.57 132 0 0 .078-.938.75.57 132 0 0-.926.176.75.57 132 0 0-.078.938m8.143.799a.64.53 30.6 0 0-.281-.782.64.53 30.6 0 0-.82.13.64.53 30.6 0 0 .28.782.64.53 30.6 0 0 .82-.13M192.97 74.53a.45.45 0 0 0-.45-.45.45.45 0 0 0-.45.45.45.45 0 0 0 .45.45.45.45 0 0 0 .45-.45m41.233 1.245a.77.6 17.8 0 0-.55-.806.77.6 17.8 0 0-.916.336.77.6 17.8 0 0 .55.806.77.6 17.8 0 0 .916-.336m-31.033.765a.56.56 0 0 0-.56-.56.56.56 0 0 0-.56.56.56.56 0 0 0 .56.56.56.56 0 0 0 .56-.56m3.82 0a.52.52 0 0 0-.52-.52.52.52 0 0 0-.52.52.52.52 0 0 0 .52.52.52.52 0 0 0 .52-.52m41.07-.26q-.06.23.01.45a.42.42 0 0 0 .76.09q.21-.34.02-.65a.43.43 0 0 0-.79.11m-55.005 2.687a.66.52 35.9 0 0-.23-.808.66.52 35.9 0 0-.84.034.66.52 35.9 0 0 .23.808.66.52 35.9 0 0 .84-.034m20.005-.447a.53.53 0 0 0-.53-.53.53.53 0 0 0-.53.53.53.53 0 0 0 .53.53.53.53 0 0 0 .53-.53m-39.966 4.477a.73.55 41.8 0 0-.177-.897.73.55 41.8 0 0-.911-.077.73.55 41.8 0 0 .177.897.73.55 41.8 0 0 .911.077m77.046.553a.6.6 0 0 0-.6-.6.6.6 0 0 0-.6.6.6.6 0 0 0 .6.6.6.6 0 0 0 .6-.6M192 85.44a.52.52 0 0 0-.52-.52.52.52 0 0 0-.52.52.52.52 0 0 0 .52.52.52.52 0 0 0 .52-.52m60.81 1.88q-.35-.74-1.16-1.2-.66-.38-.56.38.12.93 1.25 1.34.86.31.47-.52m-81.57 1.67q-.37.21-.25.7a.56.56 0 0 0 .74.38q.52-.2.29-.8a.55.54-25 0 0-.78-.28m73.516 1.732a1 .6 70.4 0 0 .23-1.143 1 .6 70.4 0 0-.901-.741 1 .6 70.4 0 0-.23 1.143 1 .6 70.4 0 0 .9.741m-74.726 1.381a1.46.35 47.3 0 0-.733-1.31 1.46.35 47.3 0 0-1.247-.836 1.46.35 47.3 0 0 .733 1.31 1.46.35 47.3 0 0 1.247.836m29.41.086a1.07.59 92.7 0 0 .64-1.041 1.07.59 92.7 0 0-.54-1.097 1.07.59 92.7 0 0-.64 1.041 1.07.59 92.7 0 0 .54 1.097m48.77-1.639a.6.6 0 0 0-.6-.6.6.6 0 0 0-.6.6.6.6 0 0 0 .6.6.6.6 0 0 0 .6-.6m4.784 2.432a.64.58-49.7 0 0-.856.113.64.58-49.7 0 0 .028.863.64.58-49.7 0 0 .856-.113.64.58-49.7 0 0-.028-.863m-70.947 1.926a.59.51 32.6 0 0-.222-.748.59.51 32.6 0 0-.772.112.59.51 32.6 0 0 .222.748.59.51 32.6 0 0 .772-.112m26.983 1.512a.61.58-69.2 0 0 .26.61q.34.22.61-.06a.56.56 0 0 0-.28-.92q-.51-.12-.59.37m62.787 2.813a.98.61-9.2 0 0-1.065-.445.98.61-9.2 0 0-.87.759.98.61-9.2 0 0 1.065.445.98.61-9.2 0 0 .87-.759m-43.927 2.287q-.09.75.28 1.31a.52.52 0 0 0 .95-.2q.1-.64-.14-1.26-.09-.22-.31-.29-.17-.06-.36-.02a.54.54 0 0 0-.42.46m43 1q.13.34.4.6.38.37.34-.15-.11-1.29-1.33-1.98-.63-.37-.32.3.18.38.52.68.26.23.39.55m-103.66 1.971a.99.48-.5 0 0-.994-.471.99.48-.5 0 0-.986.489.99.48-.5 0 0 .994.471.99.48-.5 0 0 .986-.489m100.943.333a.66.5 21.7 0 0-.428-.709.66.5 21.7 0 0-.798.221.66.5 21.7 0 0 .428.709.66.5 21.7 0 0 .798-.221m-21.153 4.266q-.15.43-.09.72.05.19.25.3t.4.14l-.88 5.82q-.15 1.01-.65.12l-4.79-8.64q-.38-.68-.96-.16l-3.37 3.02a2.13 2.12 71.9 0 0-.69 1.37q-.46 4.87-2.28 9.42-.12.3-.11-.02 0-.05-.05-.09-.11-.08-.24-.05-3.81.86-6.43 3.34c-1.87 1.78-4.31 2.16-6.64.82q-4.16-2.41-8.31-3.23-.58-.11-.5.48.09.67-.43 1.11-.41.36-.54.9c-.62 2.71-.71 5.43-1.67 8.07-.71 1.93-1.09 4.46.17 6.23 4.37 6.09 2.4 12.15 2.01 18.87-.18 2.96.52 5.92 1.32 8.77.66 2.31.48 4.8-1.11 6.69q-3.05 3.62-6.03 7.91-1.2 1.73-2.68 3.09-.36.33-.37.82-.05 2.39.11 4.7c.09 1.16 1.1 2.11 2.31 1.77q.06.56.49.7.4.13.94-.3.52.51.8 1.21-.23.68-.03 1.14c1.52 2.09 4.53 7.02 7.79 4.92 6.06-3.91 10.4 1.02 14 5.2 2.29 2.66 2.92 6.08 3.85 9.36q.14.51.65.34 1.88-.63 2.35 1.29.06.27.32.37.05.02.11 0 .27-.09.28-.37.05-1.18.79-2.14.27-.35-.03-.68-.34-.37-.17-.83.21-.61.84-.76l.75-.17q.43-.1.53-.53.11-.44.55-.6a.96.96 0 0 1 .89.13q2.49 1.85 5.76 2.72c3.28.87 3.53 3.82 4.24 6.58a2.2 2.2 0 0 0 1.83 1.63q2.51.33 3.83-2 .69-1.21 1.27-2.48.15-.32.47-.43.18-.07.35.02.33.17.69.06 5.25-1.55 8.83-5.26a.79.78-29.7 0 1 1.33.36q1.3 5.35 4.84 9.54.43.51.86-.01.54-.64.72-1.49.1-.44.51-.63 2.66-1.25 2.87-4.29c.24-3.35.43-7.4-2.24-9.9q-2.6-2.42-2.73-6.44-.02-.61.54-.38.86.35 1.53-.33.44-.43.99-.16 3.1 1.52 6.06 3.19.17.1.03-.04-.05-.04-.02-.11.11-.22.35-.19.15.01.29.03.19.02.26-.15c2.09-5.15 3.79-9.94.45-14.97a1.55 1.51-58.4 0 1-.24-1.06l2.74-18.85q.08-.52.52-.8 2.95-1.84 5.35-4.94.73-.95.67-2.16c-.15-2.64-.63-4.63-3.59-5.31q-1.46-.34-1.08-1.79.42-1.57.15-3.16a.34.34 0 0 0-.57-.19q-2.7 2.5-5.99 3.29-1.28.31-1.34-1c-.25-5.69-4.61-8.34-1.37-14.63a.66.66 0 0 0-.31-.9l-2.08-.98q-.44-.21-.92-.12l-4.68.81q-.6.1-.67-.5c-.48-4.15-3.21-8.1-1.37-12.34a.96.95 9.2 0 0-.96-1.33q-3.58.33-5.86 2.43-2.46 2.27-2.89-1.05-.37-2.96-3.38-4.51-.52-.27-.89.17-.12.14-.33.11-.48-.09-.41-.57.79-5.2.06-10-.11-.68-.69-.33zm-24.99-.55a.52.52 0 0 0-.52-.52.52.52 0 0 0-.52.52.52.52 0 0 0 .52.52.52.52 0 0 0 .52-.52m-24.984 1.375a.74.51 38.9 0 0-.256-.862.74.51 38.9 0 0-.896-.068.74.51 38.9 0 0 .256.862.74.51 38.9 0 0 .896.068m-25.905 1.497a.68.58-16.9 0 0-.82-.357.68.58-16.9 0 0-.482.753.68.58-16.9 0 0 .82.357.68.58-16.9 0 0 .482-.753m109.139 4.418q-.55.2-.62.73a.45.45 0 0 0 .63.47q.58-.26.54-.84a.41.41 0 0 0-.55-.36m-86.15.71a.58.58 0 0 0-.58-.58.58.58 0 0 0-.58.58.58.58 0 0 0 .58.58.58.58 0 0 0 .58-.58m4.13 3.58q-.34.16-.22.52a.44.44 0 0 0 .82.05q.09-.2-.01-.38-.21-.36-.59-.19m-116.479 9.028a.53.42-37.4 0 0-.676-.012.53.42-37.4 0 0-.166.656.53.42-37.4 0 0 .676.012.53.42-37.4 0 0 .166-.656m40.249 7.032q-.13.18-.17.42-.09.47.38.54.46.07.79-.51.25-.43-.11-.69.39-.58.47-1.04.11-.59-.45-.37-1.44.58-.91 1.65m77.86-.7q.02.41.48.56a.54.54 0 0 0 .69-.67q-.13-.43-.65-.44a.51.51 0 0 0-.52.55m81.54.33q-.35.4-.17.83a.34.34 0 0 0 .59.07q.38-.49.1-.88a.34.33-42.1 0 0-.52-.02m-91.402 4.02a.63.51 29.5 0 0-.297-.754.63.51 29.5 0 0-.8.134.63.51 29.5 0 0 .298.754.63.51 29.5 0 0 .8-.134m97.142-.27a.63.63 0 0 0-.63-.63.63.63 0 0 0-.63.63.63.63 0 0 0 .63.63.63.63 0 0 0 .63-.63m-100.91 1.92a.64.64 0 0 0-.64-.64.64.64 0 0 0-.64.64.64.64 0 0 0 .64.64.64.64 0 0 0 .64-.64m104.86-.05a.64.64 0 0 0-.64-.64.64.64 0 0 0-.64.64.64.64 0 0 0 .64.64.64.64 0 0 0 .64-.64m-194.91 1.71a.44.43-40.7 0 0-.06.76q.35.23.72.09a.42.41 56.3 0 0 .13-.68q-.37-.36-.79-.17m91.86.08q-.21.32.03.62.31.38.78.27a.4.39-7.7 0 0 .3-.38q-.01-.64-.67-.72-.28-.04-.44.21m-67 2.05a.45.45 0 0 0 .25.77q.56.1.79-.47a.4.39-71.7 0 0-.26-.53q-.44-.1-.78.23m68.08.81q.14-.13.3-.21a.04.04 0 0 0-.03-.07q-.48.1-1.11.04-.68-.06-.37.55.09.17.11.37.07.8.7.3.35-.29.32-.78-.01-.12.08-.2m2.05.4a.68.68 0 0 0-.68-.68.68.68 0 0 0-.68.68.68.68 0 0 0 .68.68.68.68 0 0 0 .68-.68m10.041.55a.66.58 121.9 0 0 .841-.254.66.58 121.9 0 0-.143-.866.66.58 121.9 0 0-.841.254.66.58 121.9 0 0 .143.866M87.1 149.44a.58.58 0 0 0-.58-.58.58.58 0 0 0-.58.58.58.58 0 0 0 .58.58.58.58 0 0 0 .58-.58m56.924 1.536a.75.52 42.4 0 0-.203-.89.75.52 42.4 0 0-.905-.122.75.52 42.4 0 0 .203.89.75.52 42.4 0 0 .905.122m-55.874.548a.58.49-.6 0 0-.585-.484.58.49-.6 0 0-.575.496.58.49-.6 0 0 .585.484.58.49-.6 0 0 .575-.496m31.91 1.856 1.93-1.81q.17-.16 0-.33l-.19-.2q-.22-.23-.45-.01l-1.79 1.69q-.23.22 0 .43l.23.23q.13.12.27 0m14.15-1.31q.34-.26.46-.64.16-.49-.25-.18-.68.53-1.04 1.32-.15.34.21.23.28-.09.39-.41.07-.2.23-.32m8.93.08a.45.44 51.8 0 0-.08.68q.44.47.94.07a.48.48 0 0 0-.11-.81q-.39-.16-.75.06m40.78 5.65q.07.13.15.25.36.53.79.04l1.91-2.15q.46-.51.15-1.13-.71-1.4-2.33-2.25a.93.92-69.4 0 0-1.33.61l-.78 3.24q-.11.47.34.63l.43.16a1.17 1.17 0 0 1 .67.6m-69.003-.646a.71.54 59.8 0 0 .11-.886.71.54 59.8 0 0-.824-.342.71.54 59.8 0 0-.11.886.71.54 59.8 0 0 .824.342m79.968.625a.4.4 0 0 0-.518-.226l-.261.103a.4.4 0 0 0-.226.519l2.075 5.266a.4.4 0 0 0 .518.226l.261-.103a.4.4 0 0 0 .226-.519zm-29.024 3.57a1.45.63 44.7 0 0-.588-1.467 1.45.63 44.7 0 0-1.474-.572 1.45.63 44.7 0 0 .588 1.468 1.45.63 44.7 0 0 1.474.572m20.209-.479.11.48q.13.59.56.16l.75-.76q.68-.69-.29-.8-.77-.08-1.26-.69-.11-.13-.28-.16-.2-.03-.33.12-.24.29.01.56l.35.38q.28.3.38.71m-19.13.68q.17.65.81.53a.43.43 0 0 0 .13-.79l-.34-.19a.41.41 0 0 0-.6.45m-20.04 1.02q.06.41.27.72.38.6.56-.09.19-.71 0-1.51-.14-.59-.74-.59-.24 0-.45.08a.57.54-5.4 0 0-.35.4q-.09.42.32.55a.56.56 0 0 1 .39.44m45.76-.46a.38.37 1.7 0 0-.45.42q.2 1.4 1.23 2.04.82.5.87-.46.08-1.65-1.65-2m7.41 4.51a.6.6 0 0 0-.6-.6.6.6 0 0 0-.6.6.6.6 0 0 0 .6.6.6.6 0 0 0 .6-.6m-109 .82q-.03.35.31.48a.4.39-68 0 0 .49-.21q.1-.24-.04-.46a.42.41-58.8 0 0-.76.19m108.24 1.09a.69.69 0 0 0-.69-.69.69.69 0 0 0-.69.69.69.69 0 0 0 .69.69.69.69 0 0 0 .69-.69m-29.2.08a.53.53 0 0 0-.53-.53.53.53 0 0 0-.53.53.53.53 0 0 0 .53.53.53.53 0 0 0 .53-.53m-50.994 2.499a.64.48-37.7 0 0-.8.011.64.48-37.7 0 0-.212.771.64.48-37.7 0 0 .8-.011.64.48-37.7 0 0 .212-.771m26.429 1.04a.62.44 86.8 0 0 .404-.644.62.44 86.8 0 0-.474-.594.62.44 86.8 0 0-.404.644.62.44 86.8 0 0 .474.594m-25.448.906a.75.46 131.1 0 0 .84-.263.75.46 131.1 0 0 .146-.867.75.46 131.1 0 0-.84.263.75.46 131.1 0 0-.146.867m18.118-.242a.71.52 22.6 0 0-.455-.753.71.52 22.6 0 0-.855.207.71.52 22.6 0 0 .455.753.71.52 22.6 0 0 .855-.207m14.2 3.971a1.06.4 51.9 0 0-.34-1.08 1.06.4 51.9 0 0-.97-.588 1.06.4 51.9 0 0 .34 1.08 1.06.4 51.9 0 0 .97.588m-35.29.046a.64.53 25.9 0 0-.344-.757.64.53 25.9 0 0-.807.197.64.53 25.9 0 0 .344.757.64.53 25.9 0 0 .808-.197m10.588 3.286a1.03.63 77.5 0 0 .392-1.142 1.03.63 77.5 0 0-.838-.87 1.03.63 77.5 0 0-.392 1.142 1.03.63 77.5 0 0 .838.87m27.137 1.994a.48.48 0 0 0-.45.06q-.51.37-.11.8a.38.38 0 0 0 .53.02q.67-.64.03-.88m143.309 1.364a.62.52-3.3 0 0-.649-.483.62.52-3.3 0 0-.589.555.62.52-3.3 0 0 .649.483.62.52-3.3 0 0 .589-.555m-148.055 1.6a.69.58 129.2 0 0 .885-.167.69.58 129.2 0 0-.013-.902.69.58 129.2 0 0-.886.168.69.58 129.2 0 0 .014.902m7.026-1.014q-.76-.41-1.16.33-.16.3-.02.62.25.6.79.22.41-.3.56-.76.08-.27-.17-.41m-22.108 3.01a1.43.51 44.4 0 0-.665-1.364 1.43.51 44.4 0 0-1.379-.636 1.43.51 44.4 0 0 .665 1.364 1.43.51 44.4 0 0 1.379.637m5.088.24-.88-2.03q-.34-.79-.51.05-.29 1.45 1 2.31.75.5.39-.33m-8.257.74a.61.5 62.4 0 0 .16-.772.61.5 62.4 0 0-.726-.309.61.5 62.4 0 0-.16.773.61.5 62.4 0 0 .726.309m43.247.99a.54.54 0 0 0-.04.96q.57.32 1-.09a.51.51 0 0 0-.09-.8q-.44-.26-.87-.07m-22.08 2.42a.45.45 0 0 0-.45-.45.45.45 0 0 0-.45.45.45.45 0 0 0 .45.45.45.45 0 0 0 .45-.45m3.51.47q.29 0 .42-.25a.46.45-70 0 0-.3-.66q-.24-.05-.45.06a.42.42 0 0 0-.11.67q.18.18.44.18m16.544.097a.66.53 41.5 0 0-.143-.834.66.53 41.5 0 0-.845-.04.66.53 41.5 0 0 .143.834.66.53 41.5 0 0 .845.04m4.096-.347q.2.31.54.37.08.01.16-.02.38-.13.35-.53-.02-.29-.31-.41-.25-.11-.51-.03-.52.17-.23.62m-1.81 2.42q.14-.05.28 0 .59.21.51-.41-.04-.23-.18-.41a.61.61 0 0 0-1 .06q-.09.15-.12.32-.13.66.51.44m-30.05.853a.88.51 30.2 0 0-.504-.884.88.51 30.2 0 0-1.017-.002.88.51 30.2 0 0 .505.884.88.51 30.2 0 0 1.017.002m1.837-.595a.65.47-20.9 0 0-.775-.207.65.47-20.9 0 0-.44.67.65.47-20.9 0 0 .776.208.65.47-20.9 0 0 .44-.67m7.173 6.987a.74.64 104.9 0 0 .809-.55.74.64 104.9 0 0-.429-.88.74.64 104.9 0 0-.808.55.74.64 104.9 0 0 .428.88m2.598 1.755a.67.6 56.7 0 0 .133-.89.67.6 56.7 0 0-.869-.23.67.6 56.7 0 0-.133.89.67.6 56.7 0 0 .869.23m15.992 3.13a.57.57 0 0 0 .23.83q.64.31 1.01-.26a.5.5 0 0 0-.14-.68q-.72-.47-1.1.11m41.23 8.24a.6.6 0 0 0-.6-.6.6.6 0 0 0-.6.6.6.6 0 0 0 .6.6.6.6 0 0 0 .6-.6m77.2.64a.29.29 0 0 0-.27.44q.23.38.64.46.5.1.32-.38-.19-.49-.69-.52m-75.26 6.42a.54.54 0 0 0-.54-.54.54.54 0 0 0-.54.54.54.54 0 0 0 .54.54.54.54 0 0 0 .54-.54m24.025 9.475a.66.54 40.1 0 0-.157-.838.66.54 40.1 0 0-.853-.012.66.54 40.1 0 0 .157.838.66.54 40.1 0 0 .853.012m49.02.73a.6.45 19.9 0 0-.412-.628.6.45 19.9 0 0-.717.219.6.45 19.9 0 0 .41.627.6.45 19.9 0 0 .718-.219M239.81 233.3a.41.41 0 0 0 .33-.59l-.2-.42q-.16-.32-.49-.24-.56.14-.43.68.15.62.79.57m22.27 4.17a.45.45 0 0 0-.37-.49q-.54-.09-.7.37a.5.5 0 0 0 .66.62q.38-.14.41-.5m25.14 2.484a.72.58 32.2 0 0-.3-.875.72.58 32.2 0 0-.92.107.72.58 32.2 0 0 .3.875.72.58 32.2 0 0 .92-.107m-27.08 6.186a.47.47 0 0 0 .01.84q.37.18.77-.02a.48.48 0 0 0-.09-.9q-.35-.09-.69.08m-46.86 25.325a.78.67-1.1 0 0-.793-.655.78.67-1.1 0 0-.767.685.78.67-1.1 0 0 .793.655.78.67-1.1 0 0 .767-.685m-.8 3.795q-.09-.04-.11.11-.02.24.11.19.41-.15 0-.3m-10.431 13.618a.6.5 32 0 0-.244-.742.6.5 32 0 0-.774.106.6.5 32 0 0 .244.742.6.5 32 0 0 .774-.106m12.728 3.913a1.47.35 46.2 0 0-.764-1.303 1.47.35 46.2 0 0-1.27-.819 1.47.35 46.2 0 0 .764 1.303 1.47.35 46.2 0 0 1.27.819m-3.677.559q-.01.23.07.45a.4.4 0 0 0 .76-.07q.06-.33-.06-.61-.09-.23-.35-.2a.47.47 0 0 0-.42.43m-.048 7.65a.76.52 41.2 0 0-.23-.891.76.52 41.2 0 0-.914-.11.76.52 41.2 0 0 .23.892.76.52 41.2 0 0 .914.11m-11.93 11.615a.58.45 9.4 0 0-.499-.539.58.45 9.4 0 0-.645.35.58.45 9.4 0 0 .498.538.58.45 9.4 0 0 .646-.35"/><path fill="#833372" d="M200.3 68.59v.09l-.44.07q-.47.07-.69.5-.19.38-.52.67-.63.56-.78-.28-.07-.42-.41-.75 1.41-.42 2.84-.3"/><path fill="#663475" d="M201.47 68.53q-.52.21-1.17.15v-.09z"/><ellipse fill="#833372" rx=".75" ry=".57" transform="rotate(132 84.308 80.373)"/><ellipse fill="#833372" rx=".64" ry=".53" transform="rotate(30.6 -28.793 415.584)"/><circle cx="192.52" cy="74.53" r=".45" fill="#663475"/><ellipse fill="#833372" rx=".77" ry=".6" transform="rotate(17.8 -124.46 783.224)"/><circle cx="202.61" cy="76.54" r=".56" fill="#663475"/><circle cx="206.47" cy="76.54" r=".52" fill="#663475"/><path fill="#663475" d="M248.06 76.28a.43.43 0 0 1 .79-.11q.19.31-.02.65a.42.42 0 0 1-.76-.09q-.07-.22-.01-.45"/><ellipse fill="#663475" rx=".66" ry=".52" transform="rotate(35.9 -25.022 336.43)"/><circle cx="212.53" cy="78.52" r=".53" fill="#663475"/><ellipse fill="#833372" rx=".73" ry=".55" transform="rotate(41.8 -21.761 267.187)"/><circle cx="249.54" cy="83.55" r=".6" fill="#663475"/><circle cx="191.48" cy="85.44" r=".52" fill="#663475"/><path fill="#663475" d="M252.81 87.32q.39.83-.47.52-1.13-.41-1.25-1.34-.1-.76.56-.38.81.46 1.16 1.2M171.24 88.99a.55.54-25 0 1 .78.28q.23.6-.29.8a.56.56 0 0 1-.74-.38q-.12-.49.25-.7"/><ellipse fill="#e72d58" rx="1" ry=".6" transform="rotate(70.4 58.574 218.134)"/><ellipse fill="#e72d58" rx="1.46" ry=".35" transform="rotate(47.3 -19.412 238.514)"/><ellipse fill="#663475" rx="1.07" ry=".59" transform="rotate(92.7 56.283 140.712)"/><circle cx="247.61" cy="90.55" r=".6" fill="#663475"/><ellipse fill="#663475" rx=".64" ry=".58" transform="rotate(-49.7 227.202 -225.956)"/><ellipse fill="#663475" rx=".59" ry=".51" transform="rotate(32.6 -70.961 357.721)"/><path fill="#663475" d="M209.03 96.42q.08-.49.59-.37a.56.56 0 0 1 .28.92q-.27.28-.61.06a.61.58-69.2 0 1-.26-.61"/><ellipse fill="#e72d58" rx=".98" ry=".61" transform="rotate(-9.2 753.076 -1633.48)"/><path fill="#663475" d="M227.89 101.52a.54.54 0 0 1 .42-.46q.19-.04.36.02.22.07.31.29.24.62.14 1.26a.52.52 0 0 1-.95.2q-.37-.56-.28-1.31"/><path fill="#e72d58" d="M270.5 101.97q-.34-.3-.52-.68-.31-.67.32-.3 1.22.69 1.33 1.98.04.52-.34.15-.27-.26-.4-.6-.13-.32-.39-.55"/><ellipse fill="#e72d58" rx=".99" ry=".48" transform="rotate(-.5 12057.862 -18997.33)"/><ellipse fill="#663475" rx=".66" ry=".5" transform="rotate(21.7 -139.04 750.28)"/><path fill="#d81d48" d="M206.97 194.13q.72.17 1.08-.18a.51.5-50.4 0 0-.07-.77q-.38-.26-.98-.19-.28-.7-.8-1.21-.18-.52-.49-.68-.42-.2-.94.28c-1.21.34-2.22-.61-2.31-1.77q-.16-2.31-.11-4.7.01-.49.37-.82 1.48-1.36 2.68-3.09 2.98-4.29 6.03-7.91c1.59-1.89 1.77-4.38 1.11-6.69-.8-2.85-1.5-5.81-1.32-8.77.39-6.72 2.36-12.78-2.01-18.87-1.26-1.77-.88-4.3-.17-6.23.96-2.64 1.05-5.36 1.67-8.07q.13-.54.54-.9.52-.44.43-1.11-.08-.59.5-.48 4.15.82 8.31 3.23c2.33 1.34 4.77.96 6.64-.82q2.62-2.48 6.43-3.34.13-.03.24.05.05.04.05.09-.01.32.11.02 1.82-4.55 2.28-9.42a2.13 2.12 71.9 0 1 .69-1.37l3.37-3.02q.58-.52.96.16l4.79 8.64q.5.89.65-.12l.88-5.82q.31-.19.44-.44.31-.58-.34-.72-.28-.06-.66 0l7.23-4.27q.58-.35.69.33.73 4.8-.06 10-.07.48.41.57.21.03.33-.11.37-.44.89-.17 3.01 1.55 3.38 4.51.43 3.32 2.89 1.05 2.28-2.1 5.86-2.43a.96.95 9.2 0 1 .96 1.33c-1.84 4.24.89 8.19 1.37 12.34q.07.6.67.5l4.68-.81q.48-.09.92.12l2.08.98a.66.66 0 0 1 .31.9c-3.24 6.29 1.12 8.94 1.37 14.63q.06 1.31 1.34 1 3.29-.79 5.99-3.29a.34.34 0 0 1 .57.19q.27 1.59-.15 3.16-.38 1.45 1.08 1.79c2.96.68 3.44 2.67 3.59 5.31q.06 1.21-.67 2.16-2.4 3.1-5.35 4.94-.44.28-.52.8l-2.74 18.85a1.55 1.51-58.4 0 0 .24 1.06c3.34 5.03 1.64 9.82-.45 14.97q-.07.17-.26.15-.14-.02-.29-.03-.24-.03-.35.19-.03.07.02.11.14.14-.03.04-2.96-1.67-6.06-3.19-.55-.27-.99.16-.67.68-1.53.33-.56-.23-.54.38.13 4.02 2.73 6.44c2.67 2.5 2.48 6.55 2.24 9.9q-.21 3.04-2.87 4.29-.41.19-.51.63-.18.85-.72 1.49-.43.52-.86.01-3.54-4.19-4.84-9.54a.79.78-29.7 0 0-1.33-.36q-3.58 3.71-8.83 5.26-.36.11-.69-.06-.17-.09-.35-.02-.32.11-.47.43-.58 1.27-1.27 2.48-1.32 2.33-3.83 2a2.2 2.2 0 0 1-1.83-1.63c-.71-2.76-.96-5.71-4.24-6.58q-3.27-.87-5.76-2.72a.96.96 0 0 0-.89-.13q-.44.16-.55.6-.1.43-.53.53l-.75.17q-.63.15-.84.76-.17.46.17.83.3.33.03.68-.74.96-.79 2.14-.01.28-.28.37-.06.02-.11 0-.26-.1-.32-.37-.47-1.92-2.35-1.29-.51.17-.65-.34c-.93-3.28-1.56-6.7-3.85-9.36-3.6-4.18-7.94-9.11-14-5.2-3.26 2.1-6.27-2.83-7.79-4.92m40.78-73.87q.19.67.87.82.64.13.47-.5-.18-.63-.9-.79-.62-.13-.44.47m-35.727 4.874a.71.51-38.9 0 0-.873.05.71.51-38.9 0 0-.233.842.71.51-38.9 0 0 .873-.05.71.51-38.9 0 0 .233-.842m49.126.602a.52.43 19.8 0 0-.343-.58.52.43 19.8 0 0-.635.228.52.43 19.8 0 0 .343.58.52.43 19.8 0 0 .635-.228m-31.078 1.296a.66.48 42 0 0-.17-.799.66.48 42 0 0-.812-.085.66.48 42 0 0 .17.799.66.48 42 0 0 .812.085M213.99 128l-.11-.58a.44.44 0 0 0-.49-.36q-.52.07-.5.5.1 1.6 1.45 2.27.84.41.37-.4-.24-.41-.49-.82a1.57 1.55-65.8 0 1-.23-.61m6.03.71q.23.51.87.28.52-.18.19-.63-.29-.39-.71-.31-.6.11-.35.66m34.05 1.58.06.47q.1.73.68.28.17-.13.37-.19.37-.13.17-.46-.29-.46-.93-.48a.34.33-2.8 0 0-.35.38m-6.533 4.878a.67.58 86 0 0 .532-.709.67.58 86 0 0-.626-.627.67.58 86 0 0-.532.709.67.58 86 0 0 .626.627m-31.358-.227a.69.57 34.5 0 0-.246-.86.69.57 34.5 0 0-.892.078.69.57 34.5 0 0 .246.86.69.57 34.5 0 0 .892-.078m3.967.501a.6.5-6.5 0 0-.653-.429.6.5-6.5 0 0-.54.565.6.5-6.5 0 0 .654.429.6.5-6.5 0 0 .54-.565m34.964 2.108q-.13-.58-.6-.82a.41.4-65.9 0 0-.57.22q-.23.65.33 1.04.27.19.58.03.14-.07.23-.21a.41.37 54.6 0 0 .03-.26m15.9 3.528a.72.55 46 0 0-.104-.9.72.55 46 0 0-.896-.136.72.55 46 0 0 .104.9.72.55 46 0 0 .896.136m-4.97 2.157a.64.49-32.6 0 0-.804-.068.64.49-32.6 0 0-.275.758.64.49-32.6 0 0 .803.068.64.49-32.6 0 0 .275-.758m-19.557 1.815a.96.59 91 0 0 .607-.95.96.59 91 0 0-.573-.97.96.59 91 0 0-.607.95.96.59 91 0 0 .573.97m-11.333-.51a.58.58 0 0 0-.58-.58.58.58 0 0 0-.58.58.58.58 0 0 0 .58.58.58.58 0 0 0 .58-.58m28.947-.195a.56.49-22.6 0 0-.705-.237.56.49-22.6 0 0-.329.667.56.49-22.6 0 0 .705.237.56.49-22.6 0 0 .329-.667m-36.927 2.59a1.27.5 134.5 0 0 1.247-.554 1.27.5 134.5 0 0 .533-1.257 1.27.5 134.5 0 0-1.247.555 1.27.5 134.5 0 0-.533 1.257m13.92-.455a.55.55 0 0 0-.55-.55.55.55 0 0 0-.55.55.55.55 0 0 0 .55.55.55.55 0 0 0 .55-.55m14.99 2.24q.98.69 1.68-.09.32-.37.28-.93a.47.47 0 0 0-.71-.38q-.76.46-1.28 1.09a.21.21 0 0 0 .03.31m-27.083.246a.67.47 50.4 0 0-.065-.816.67.47 50.4 0 0-.79-.216.67.47 50.4 0 0 .066.816.67.47 50.4 0 0 .79.216m-2.867-.406a.59.59 0 0 0-.59-.59.59.59 0 0 0-.59.59.59.59 0 0 0 .59.59.59.59 0 0 0 .59-.59m25.95-.23a.45.45 0 0 0 .39.61q.59.04.58-.48a.44.44 0 0 0-.32-.41q-.49-.14-.65.28m-3.944 1.513a.74.41 25.9 0 0-.487-.692.74.41 25.9 0 0-.845.046.74.41 25.9 0 0 .487.692.74.41 25.9 0 0 .845-.046m-12.176.577a.5.5 0 0 0-.5-.5.5.5 0 0 0-.5.5.5.5 0 0 0 .5.5.5.5 0 0 0 .5-.5m8.106.548a.73.56 37.9 0 0-.232-.89.73.56 37.9 0 0-.92-.006.73.56 37.9 0 0 .232.89.73.56 37.9 0 0 .92.006m7.005-.121a.56.36 30.8 0 0-.297-.596.56.36 30.8 0 0-.665.022.56.36 30.8 0 0 .297.596.56.36 30.8 0 0 .665-.022m15.989.663a.53.53 0 0 0-.53-.53.53.53 0 0 0-.53.53.53.53 0 0 0 .53.53.53.53 0 0 0 .53-.53m3.997.131a.52.43 20.4 0 0-.337-.584.52.43 20.4 0 0-.637.222.52.43 20.4 0 0 .337.584.52.43 20.4 0 0 .637-.222m-21.977.699q-.15.5.34.67a.37.37 0 0 0 .49-.39q-.03-.31-.3-.48a.35.35 0 0 0-.53.2m2.75 1.69q.35.08.68-.03.63-.2.22-.73-.4-.49-1.01-.32-1 .27-1.51 1.37-.25.54.34.42.37-.07.57-.41.24-.42.71-.3m24.88-.23q-.77.19-.78.96a.34.34 0 0 0 .43.34q.77-.21.72-1.03a.3.3 0 0 0-.37-.27m-40.827 1.093a.58.41 38.7 0 0-.197-.683.58.41 38.7 0 0-.709-.043.58.41 38.7 0 0 .197.683.58.41 38.7 0 0 .709.043m10.047-.283a.48.48 0 0 0-.48-.48.48.48 0 0 0-.48.48.48.48 0 0 0 .48.48.48.48 0 0 0 .48-.48m15.143.365a.59.46 139.2 0 0 .748-.037.59.46 139.2 0 0 .146-.733.59.46 139.2 0 0-.748.037.59.46 139.2 0 0-.146.734m-21.053.485a.55.55 0 0 0-.55-.55.55.55 0 0 0-.55.55.55.55 0 0 0 .55.55.55.55 0 0 0 .55-.55m13.075.132a.58.46 13.2 0 0-.46-.58.58.46 13.2 0 0-.67.316.58.46 13.2 0 0 .46.58.58.46 13.2 0 0 .67-.316m38.955 1.778q-.01-.9-.06-1.85-.02-.55-.56-.44-.29.05-.36.35-.35 1.64.1 2.24.9 1.21.88-.3m-54.902-1.287a.69.56-33.1 0 0-.884-.092.69.56-33.1 0 0-.272.846.69.56-33.1 0 0 .884.092.69.56-33.1 0 0 .272-.846m27.983-.016a.68.53-31.3 0 0-.856-.1.68.53-31.3 0 0-.306.806.68.53-31.3 0 0 .856.1.68.53-31.3 0 0 .306-.806m-30.076.822a.63.51 33.6 0 0-.243-.774.63.51 33.6 0 0-.807.076.63.51 33.6 0 0 .243.774.63.51 33.6 0 0 .807-.076m8.575-.799q-.51.02-.55.48a.44.44 0 0 0 .82.28q.11-.17.12-.36a.37.37 0 0 0-.39-.4m13.38.47a.47.47 0 0 0-.47-.47.47.47 0 0 0-.47.47.47.47 0 0 0 .47.47.47.47 0 0 0 .47-.47m2.081 1.24a.59.43 31.8 0 0-.274-.675.59.43 31.8 0 0-.728.054.59.43 31.8 0 0 .274.677.59.43 31.8 0 0 .728-.055m-2.221.47a.74.73-6.7 0 0-.9 1.13q.5.59 1.38.59.74 0 .45-.68-.31-.73-.93-1.04m-1.16 5.56q2.12.12.45-1.19-1.45-1.13-1.21-2.92.11-.84-.62-.41l-1.51.89q-.52.3-.8.84-.56 1.07-1.41 1.91a.97.95-27.5 0 0-.28.86q.08.45.49.65.47.23.95.03 1.9-.78 3.94-.66m-9.52-4.36q-.47.48-.2 1.14a.48.48 0 0 0 .77.18q.52-.49.25-1.17a.5.5 0 0 0-.82-.15m-28.223 2.586a1.39.47 48.2 0 0-.577-1.35 1.39.47 48.2 0 0-1.276-.722 1.39.47 48.2 0 0 .576 1.35 1.39.47 48.2 0 0 1.276.722m22.953-.536q.14.39.51.54a.35.35 0 0 0 .47-.42q-.58-2.02-2.25-1.51-.76.23-.2.78.35.34.73.22.56-.16.74.39m-21.738.56a.68.59 114.1 0 0 .817-.38.68.59 114.1 0 0-.261-.86.68.59 114.1 0 0-.817.38.68.59 114.1 0 0 .261.86m29.915-.533a.61.49 12 0 0-.495-.606.61.49 12 0 0-.699.352.61.49 12 0 0 .495.606.61.49 12 0 0 .699-.352m-32.948 1.07a.56.47 2.7 0 0-.537-.496.56.47 2.7 0 0-.581.443.56.47 2.7 0 0 .537.496.56.47 2.7 0 0 .581-.444m.981 2.363a.54.45 129 0 0 .69-.137.54.45 129 0 0-.01-.703.54.45 129 0 0-.69.137.54.45 129 0 0 .01.703m15.778.054a.57.43 51.1 0 0-.023-.714.57.43 51.1 0 0-.693-.174.57.43 51.1 0 0 .023.714.57.43 51.1 0 0 .693.174m27.432-.304q.62.46 1.39.05.54-.28 0-.57-.62-.33-1.31-.07-.58.22-.08.59m-46.39.83q.04.18.17.31.38.35.85.11a.41.4 58.9 0 0 .14-.59q-.23-.33-.64-.38a.47.47 0 0 0-.52.55m41.15-.03a.56.56 0 0 0-.56-.56.56.56 0 0 0-.56.56.56.56 0 0 0 .56.56.56.56 0 0 0 .56-.56m2.06 0a.56.56 0 0 0-.56-.56.56.56 0 0 0-.56.56.56.56 0 0 0 .56.56.56.56 0 0 0 .56-.56m17-.03a.6.6 0 0 0-.6-.6.6.6 0 0 0-.6.6.6.6 0 0 0 .6.6.6.6 0 0 0 .6-.6m-24.13 1.04a.55.55 0 0 0-.55-.55.55.55 0 0 0-.55.55.55.55 0 0 0 .55.55.55.55 0 0 0 .55-.55m9.04.43q.54.02.8-.37.25-.36-.17-.48-.53-.15-.86.41-.25.42.23.44m-3.8.48a.61.61 0 0 0-.61-.61.61.61 0 0 0-.61.61.61.61 0 0 0 .61.61.61.61 0 0 0 .61-.61m-18.36-.08q-.01.7.7.8a.47.47 0 0 0 .52-.6q-.11-.35-.39-.58a.51.51 0 0 0-.83.38m7.13.17a.56.56 0 0 0-.56-.56.56.56 0 0 0-.56.56.56.56 0 0 0 .56.56.56.56 0 0 0 .56-.56m8.46.61.55-.63a.22.21 40.7 0 0-.03-.32l-.22-.18q-.32-.25-.63.01-1.05.88-1.19 2.2-.03.32.23.5.1.07.22.11.45.12.53-.33l.06-.38q.1-.56.48-.98m4.53-.95a.41.41 0 0 0 .14.74q.68.13.94-.47a.28.26-67.6 0 0-.14-.36q-.49-.22-.94.09m-1.973 1.864a.62.52-35.1 0 0-.806-.07.62.52-35.1 0 0-.208.782.62.52-35.1 0 0 .806.07.62.52-35.1 0 0 .208-.782m2.083.466a.57.57 0 0 0-.57-.57.57.57 0 0 0-.57.57.57.57 0 0 0 .57.57.57.57 0 0 0 .57-.57m1.96.076a.64.48 1.4 0 0-.628-.496.64.48 1.4 0 0-.652.464.64.48 1.4 0 0 .628.496.64.48 1.4 0 0 .652-.464m-40.07 1.346a.62.53 39.2 0 0-.145-.803.62.53 39.2 0 0-.815.02.62.53 39.2 0 0 .145.802.62.53 39.2 0 0 .815-.02m28.11.228q-.36.32-.03.68a.43.42-25.3 0 0 .41.14q.42-.08.57-.48a.39.38 18.7 0 0-.25-.5q-.39-.12-.7.16m3.02.34a.63.63 0 0 0-.63-.63.63.63 0 0 0-.63.63.63.63 0 0 0 .63.63.63.63 0 0 0 .63-.63m2.646.395a.51.43 44.1 0 0-.067-.664.51.43 44.1 0 0-.665-.046.51.43 44.1 0 0 .067.664.51.43 44.1 0 0 .665.046M236.84 173.1a.24.23 86.3 0 0 .25-.29q-.09-.38-.4-.64a.33.33 0 0 0-.54.32q.11.56.69.61m30.13.1a.47.47 0 0 0 .25.67q.65.25.77.06a.66.65-63.9 0 0-.33-.98q-.47-.16-.69.25m-20.34.7q.41-.03.35-.44-.03-.19-.23-.23-.45-.11-.48.35-.02.34.36.32m-4.52.67a.52.52 0 0 0-.52-.52.52.52 0 0 0-.52.52.52.52 0 0 0 .52.52.52.52 0 0 0 .52-.52m10.334 1.368a.97.6 93.3 0 0 .655-.933.97.6 93.3 0 0-.543-1.003.97.6 93.3 0 0-.655.933.97.6 93.3 0 0 .543 1.003m26.828-.909a.59.45 120.3 0 0 .687-.282.59.45 120.3 0 0-.091-.736.59.45 120.3 0 0-.686.282.59.45 120.3 0 0 .09.736m-69.102 1.481a.62.62 0 0 0-.62-.62.62.62 0 0 0-.62.62.62.62 0 0 0 .62.62.62.62 0 0 0 .62-.62m26.93-.04a.62.62 0 0 0-.62-.62.62.62 0 0 0-.62.62.62.62 0 0 0 .62.62.62.62 0 0 0 .62-.62m14 .023a.56.47-1.7 0 0-.574-.453.56.47-1.7 0 0-.546.487.56.47-1.7 0 0 .574.453.56.47-1.7 0 0 .546-.487m23.91 1.037a.49.49 0 0 0-.49-.49.49.49 0 0 0-.49.49.49.49 0 0 0 .49.49.49.49 0 0 0 .49-.49m-36.05 1.07a.54.54 0 0 0-.54-.54.54.54 0 0 0-.54.54.54.54 0 0 0 .54.54.54.54 0 0 0 .54-.54m34.165.188a.6.43 22.3 0 0-.392-.626.6.43 22.3 0 0-.718.17.6.43 22.3 0 0 .392.626.6.43 22.3 0 0 .718-.17m-46.009 1.314a.76.58-37.1 0 0-.956-.005.76.58-37.1 0 0-.256.921.76.58-37.1 0 0 .956.005.76.58-37.1 0 0 .256-.921m23.95.732a.57.5 27.6 0 0-.274-.707.57.5 27.6 0 0-.737.179.57.5 27.6 0 0 .273.707.57.5 27.6 0 0 .737-.179m6.944.706a.53.53 0 0 0-.53-.53.53.53 0 0 0-.53.53.53.53 0 0 0 .53.53.53.53 0 0 0 .53-.53m-29.831 1.559a.76.57 118.4 0 0 .862-.398.76.57 118.4 0 0-.14-.94.76.57 118.4 0 0-.862.398.76.57 118.4 0 0 .14.94m53.811.341q.03.62.64.64a.46.46 0 0 0 .45-.6q-.16-.51-.69-.48a.42.42 0 0 0-.4.44m.28 1.71a.48.47 42.4 0 0 .04.86q.47.2.8-.16a.47.47 0 0 0-.22-.76q-.33-.1-.62.06m-45.16 3.42a.56.56 0 0 0-.56-.56.56.56 0 0 0-.56.56.56.56 0 0 0 .56.56.56.56 0 0 0 .56-.56m1.79-.05a.48.48 0 0 0-.48-.48.48.48 0 0 0-.48.48.48.48 0 0 0 .48.48.48.48 0 0 0 .48-.48m-31.85.77q-.19.57.36.78.21.08.42.02a.44.44 0 0 0 .26-.63q-.2-.38-.61-.43a.41.4 13.6 0 0-.43.26m4.06 2.28a.59.59 0 0 0-.59-.59.59.59 0 0 0-.59.59.59.59 0 0 0 .59.59.59.59 0 0 0 .59-.59m19.83 0a.43.43 0 0 0-.43-.43.43.43 0 0 0-.43.43.43.43 0 0 0 .43.43.43.43 0 0 0 .43-.43m-3.95 0a.48.48 0 0 0-.48-.48.48.48 0 0 0-.48.48.48.48 0 0 0 .48.48.48.48 0 0 0 .48-.48m25.12 4.05a.58.58 0 0 0-.58-.58.58.58 0 0 0-.58.58.58.58 0 0 0 .58.58.58.58 0 0 0 .58-.58m-10.33 2.24a.52.52 0 0 0-.22-.73l-1.78-.89a.52.52 0 0 0-.75.45l-.17 4.32a.52.52 0 0 0 .97.28zm8.048.086a1.29.48 45.9 0 0-.553-1.26 1.29.48 45.9 0 0-1.243-.592 1.29.48 45.9 0 0 .553 1.26 1.29.48 45.9 0 0 1.243.592m-17.897 1.13a.81.47 134.6 0 0 .904-.246.81.47 134.6 0 0 .234-.907.81.47 134.6 0 0-.904.247.81.47 134.6 0 0-.234.907m-4.89-.05a.72.57 42.5 0 0-.146-.906.72.57 42.5 0 0-.916-.066.72.57 42.5 0 0 .146.906.72.57 42.5 0 0 .916.066m28.376 6.073a1.06.59 91.8 0 0 .623-1.04 1.06.59 91.8 0 0-.557-1.078 1.06.59 91.8 0 0-.623 1.04 1.06.59 91.8 0 0 .557 1.079m11.663 1.451a.58.58 0 0 0-.58-.58.58.58 0 0 0-.58.58.58.58 0 0 0 .58.58.58.58 0 0 0 .58-.58m-5.107 4.71a.86.45 127.8 0 0 .883-.404.86.45 127.8 0 0 .171-.956.86.45 127.8 0 0-.883.404.86.45 127.8 0 0-.171.956m2.767-.41q-1.1.32-.93.91a.63.63 0 0 0 1.15.15q.25-.41.21-.78-.05-.4-.43-.28"/><circle cx="221.51" cy="108.54" r=".52" fill="#663475"/><ellipse fill="#833372" rx=".74" ry=".51" transform="rotate(38.9 -56.733 332.903)"/><path fill="#663475" d="M247.58 110.25q-.2-.03-.4-.14t-.25-.3q-.06-.29.09-.72.38-.06.66 0 .65.14.34.72-.13.25-.44.44"/><ellipse fill="#663475" rx=".68" ry=".58" transform="rotate(-16.9 460.887 -518.008)"/><path fill="#e72d58" d="M280.28 115.83a.41.41 0 0 1 .55.36q.04.58-.54.84a.45.45 0 0 1-.63-.47q.07-.53.62-.73"/><circle cx="193.55" cy="116.54" r=".58" fill="#833372"/><path fill="#833372" d="M248.19 119.79q.72.16.9.79.17.63-.47.5-.68-.15-.87-.82-.18-.6.44-.47"/><path fill="#663475" d="M198.26 120.12q.38-.17.59.19.1.18.01.38a.44.44 0 0 1-.82-.05q-.12-.36.22-.52"/><ellipse fill="#833372" rx=".71" ry=".51" transform="rotate(-38.9 283.541 -236.627)"/><ellipse fill="#663475" rx=".52" ry=".43" transform="rotate(19.8 -229.383 809.537)"/><ellipse fill="#663475" rx=".66" ry=".48" transform="rotate(42 -50.1 362.333)"/><path fill="#663475" d="M214.22 128.61q.25.41.49.82.47.81-.37.4-1.35-.67-1.45-2.27-.02-.43.5-.5a.44.44 0 0 1 .49.36l.11.58a1.57 1.55-65.8 0 0 .23.61"/><path fill="#833372" d="M220.37 128.05q.42-.08.71.31.33.45-.19.63-.64.23-.87-.28-.25-.55.35-.66"/><ellipse fill="#833372" rx=".53" ry=".42" transform="rotate(-37.4 231.931 -55.449)"/><path fill="#833372" d="M254.07 130.29a.34.33-2.8 0 1 .35-.38q.64.02.93.48.2.33-.17.46-.2.06-.37.19-.58.45-.68-.28z"/><ellipse fill="#833372" rx=".67" ry=".58" transform="rotate(86 51.628 199.95)"/><ellipse fill="#833372" rx=".69" ry=".57" transform="rotate(34.5 -108.856 414.464)"/><path fill="#e72d58" d="M122.92 135.94q-.34-.06-.89.24-.53-1.07.91-1.65.56-.22.45.37-.08.46-.47 1.04"/><path fill="#833372" d="M199.89 135.48a.51.51 0 0 1 .52-.55q.52.01.65.44a.54.54 0 0 1-.69.67q-.46-.15-.48-.56"/><ellipse fill="#833372" rx=".6" ry=".5" transform="rotate(-6.5 1302.978 -1865.444)"/><path fill="#e72d58" d="M281.43 135.81a.34.33-42.1 0 1 .52.02q.28.39-.1.88a.34.34 0 0 1-.59-.07q-.18-.43.17-.83"/><path fill="#663475" d="M122.92 135.94q.36.26.11.69-.33.58-.79.51-.47-.07-.38-.54.04-.24.17-.42.55-.3.89-.24"/><path fill="#833372" d="M255.11 137.55a.41.37 54.6 0 1-.03.26q-.09.14-.23.21-.31.16-.58-.03-.56-.39-.33-1.04a.41.4-65.9 0 1 .57-.22q.47.24.6.82"/><ellipse fill="#663475" rx=".63" ry=".51" transform="rotate(29.5 -170.227 429.608)"/><circle cx="286.54" cy="139.56" r=".63" fill="#663475"/><ellipse fill="#663475" rx=".72" ry=".55" transform="rotate(46 -30.314 388.92)"/><circle cx="185.62" cy="141.48" r=".64" fill="#833372"/><circle cx="290.48" cy="141.43" r=".64" fill="#833372"/><path fill="#833372" d="M96.21 143.14q.42-.19.79.17a.42.41 56.3 0 1-.13.68q-.37.14-.72-.09a.44.43-40.7 0 1 .06-.76"/><path fill="#663475" d="M188.07 143.22q.16-.25.44-.21.66.08.67.72a.4.39-7.7 0 1-.3.38q-.47.11-.78-.27-.24-.3-.03-.62"/><ellipse fill="#663475" rx=".64" ry=".49" transform="rotate(-32.6 378.253 -382.18)"/><ellipse fill="#663475" rx=".96" ry=".59" transform="rotate(91 52.452 193.162)"/><circle cx="234.57" cy="144.54" r=".58" fill="#663475"/><ellipse fill="#663475" rx=".56" ry=".49" transform="rotate(-22.6 493.516 -587.265)"/><path fill="#663475" d="M121.07 145.27q.34-.33.78-.23a.4.39-71.7 0 1 .26.53q-.23.57-.79.47a.45.45 0 0 1-.25-.77"/><ellipse fill="#663475" rx="1.27" ry=".5" transform="rotate(134.5 83.412 120.832)"/><path fill="#663475" d="M189.07 146.28q.03.49-.32.78-.63.5-.7-.3-.02-.2-.11-.37-.31-.61.37-.55.63.06 1.11-.04a.04.04 0 0 1 .03.07q-.16.08-.3.21-.09.08-.08.2"/><circle cx="190.52" cy="146.48" r=".68" fill="#663475"/><ellipse fill="#833372" rx=".66" ry=".58" transform="rotate(121.9 60.117 129.222)"/><circle cx="240.54" cy="146.48" r=".55" fill="#833372"/><path fill="#663475" d="M256.08 148.72a.21.21 0 0 1-.03-.31q.52-.63 1.28-1.09a.47.47 0 0 1 .71.38q.04.56-.28.93-.7.78-1.68.09"/><ellipse fill="#663475" rx=".67" ry=".47" transform="rotate(50.4 -43.451 317.093)"/><circle cx="225.54" cy="148.56" r=".59" fill="#663475"/><path fill="#663475" d="M252.08 148.33q.16-.42.65-.28a.44.44 0 0 1 .32.41q.01.52-.58.48a.45.45 0 0 1-.39-.61"/><circle cx="86.52" cy="149.44" r=".58" fill="#663475"/><ellipse fill="#663475" rx=".74" ry=".41" transform="rotate(25.9 -201.38 612.857)"/><ellipse fill="#663475" rx=".75" ry=".52" transform="rotate(42.4 -122.232 260.179)"/><circle cx="235.46" cy="150.42" r=".5" fill="#663475"/><ellipse fill="#833372" rx=".73" ry=".56" transform="rotate(37.9 -97.447 429.838)"/><ellipse fill="#663475" rx=".56" ry=".36" transform="rotate(30.8 -148.007 530.16)"/><ellipse fill="#663475" rx=".58" ry=".49" transform="rotate(-.6 14513.702 -8286.478)"/><path fill="#e72d58" d="M120.06 153.38q-.14.12-.27 0l-.23-.23q-.23-.21 0-.43l1.79-1.69q.23-.22.45.01l.19.2q.17.17 0 .33zM133.98 152.39q-.11.32-.39.41-.36.11-.21-.23.36-.79 1.04-1.32.41-.31.25.18-.12.38-.46.64-.16.12-.23.32"/><circle cx="266.53" cy="151.51" r=".53" fill="#663475"/><ellipse fill="#663475" rx=".52" ry=".43" transform="rotate(20.4 -285.605 827.612)"/><path fill="#663475" d="M143.14 152.15q.36-.22.75-.06a.48.48 0 0 1 .11.81q-.5.4-.94-.07a.45.44 51.8 0 1 .08-.68M249.08 152.34a.35.35 0 0 1 .53-.2q.27.17.3.48a.37.37 0 0 1-.49.39q-.49-.17-.34-.67"/><path fill="#d81d48" d="m183.25 157.2-.43-.16q-.45-.16-.34-.63l.78-3.24a.93.92-69.4 0 1 1.33-.61q1.62.85 2.33 2.25.31.62-.15 1.13l-1.91 2.15q-.43.49-.79-.04-.08-.12-.15-.25a1.17 1.17 0 0 0-.67-.6"/><path fill="#663475" d="M251.12 154.33q-.2.34-.57.41-.59.12-.34-.42.51-1.1 1.51-1.37.61-.17 1.01.32.41.53-.22.73-.33.11-.68.03-.47-.12-.71.3M276.71 153.8a.3.3 0 0 1 .37.27q.05.82-.72 1.03a.34.34 0 0 1-.43-.34q.01-.77.78-.96"/><ellipse fill="#663475" rx=".58" ry=".41" transform="rotate(38.7 -102.304 412.468)"/><circle cx="245.45" cy="154.61" r=".48" fill="#833372"/><ellipse fill="#833372" rx=".59" ry=".46" transform="rotate(139.2 102.014 125.924)"/><circle cx="239.47" cy="155.46" r=".55" fill="#663475"/><ellipse fill="#663475" rx=".58" ry=".46" transform="rotate(13.2 -545.536 1169.007)"/><path fill="#663475" d="M292.05 157.37q.02 1.51-.88.3-.45-.6-.1-2.24.07-.3.36-.35.54-.11.56.44.05.95.06 1.85"/><ellipse fill="#833372" rx=".71" ry=".54" transform="rotate(59.8 -78.836 177.883)"/><ellipse fill="#833372" rx=".69" ry=".56" transform="rotate(-33.1 381.541 -319.818)"/><ellipse fill="#833372" rx=".68" ry=".53" transform="rotate(-31.3 411.45 -393.955)"/><ellipse fill="#663475" rx=".63" ry=".51" transform="rotate(33.6 -141.978 466.67)"/><path fill="#663475" d="M243.63 156.09a.37.37 0 0 1 .39.4q-.01.19-.12.36a.44.44 0 0 1-.82-.28q.04-.46.55-.48"/><circle cx="256.54" cy="156.56" r=".47" fill="#663475"/><ellipse fill="#663475" rx=".59" ry=".43" transform="rotate(31.8 -147.141 532.639)"/><rect width="1.08" height="6.46" x="-.54" y="-3.23" fill="#e72d58" rx=".4" transform="rotate(-21.5 520.689 -434.348)"/><path fill="#663475" d="M256.87 158.27q.62.31.93 1.04.29.68-.45.68-.88 0-1.38-.59a.74.73-6.7 0 1 .9-1.13"/><path fill="#11527e" d="M255.71 163.83q-2.04-.12-3.94.66-.48.2-.95-.03-.41-.2-.49-.65a.97.95-27.5 0 1 .28-.86q.85-.84 1.41-1.91.28-.54.8-.84l1.51-.89q.73-.43.62.41-.24 1.79 1.21 2.92 1.67 1.31-.45 1.19"/><ellipse fill="#e72d58" rx="1.45" ry=".63" transform="rotate(44.7 -112.563 280.615)"/><path fill="#e72d58" d="m185.69 160.16-.35-.38q-.25-.27-.01-.56.13-.15.33-.12.17.03.28.16.49.61 1.26.69.97.11.29.8l-.75.76q-.43.43-.56-.16l-.11-.48q-.1-.41-.38-.71"/><path fill="#663475" d="M246.19 159.47a.5.5 0 0 1 .82.15q.27.68-.25 1.17a.48.48 0 0 1-.77-.18q-.27-.66.2-1.14"/><ellipse fill="#663475" rx="1.39" ry=".47" transform="rotate(48.2 -71.462 323.11)"/><path fill="#833372" d="M240.18 161.13q-.38.12-.73-.22-.56-.55.2-.78 1.67-.51 2.25 1.51a.35.35 0 0 1-.47.42q-.37-.15-.51-.54-.18-.55-.74-.39"/><ellipse fill="#833372" rx=".68" ry=".59" transform="rotate(114.1 57.403 151.853)"/><path fill="#663475" d="M166.94 161.55a.41.41 0 0 1 .6-.45l.34.19a.43.43 0 0 1-.13.79q-.64.12-.81-.53"/><ellipse fill="#833372" rx=".61" ry=".49" transform="rotate(12 -643.654 1262.87)"/><path fill="#e72d58" d="M146.51 162.13q-.41-.13-.32-.55a.57.54-5.4 0 1 .35-.4q.21-.08.45-.08.6 0 .74.59.19.8 0 1.51-.18.69-.56.09-.21-.31-.27-.72a.56.56 0 0 0-.39-.44M192.66 162.11q1.73.35 1.65 2-.05.96-.87.46-1.03-.64-1.23-2.04a.38.37 1.7 0 1 .45-.42"/><ellipse fill="#663475" rx=".56" ry=".47" transform="rotate(2.7 -3341.833 4655.41)"/><ellipse fill="#663475" rx=".54" ry=".45" transform="rotate(129 69.49 134.144)"/><ellipse fill="#663475" rx=".57" ry=".43" transform="rotate(51.1 -55.873 325.524)"/><path fill="#663475" d="M260.42 164.14q.69-.26 1.31.07.54.29 0 .57-.77.41-1.39-.05-.5-.37.08-.59"/><path fill="#833372" d="M213.95 165.56a.47.47 0 0 1 .52-.55q.41.05.64.38a.41.4 58.9 0 1-.14.59q-.47.24-.85-.11-.13-.13-.17-.31"/><circle cx="254.54" cy="165.53" r=".56" fill="#663475"/><circle cx="256.6" cy="165.53" r=".56" fill="#663475"/><circle cx="273.56" cy="165.5" r=".6" fill="#833372"/><circle cx="199.47" cy="166.62" r=".6" fill="#833372"/><circle cx="249.48" cy="166.54" r=".55" fill="#833372"/><path fill="#663475" d="M258.84 166.53q.33-.56.86-.41.42.12.17.48-.26.39-.8.37-.48-.02-.23-.44"/><circle cx="254.66" cy="167.45" r=".61" fill="#833372"/><path fill="#663475" d="M91.07 167.44a.42.41-58.8 0 1 .76-.19q.14.22.04.46a.4.39-68 0 1-.49.21q-.34-.13-.31-.48"/><path fill="#833372" d="M236.91 167.37a.51.51 0 0 1 .83-.38q.28.23.39.58a.47.47 0 0 1-.52.6q-.71-.1-.7-.8"/><circle cx="243.48" cy="167.54" r=".56" fill="#833372"/><path fill="#663475" d="m252.02 169.13-.06.38q-.08.45-.53.33-.12-.04-.22-.11-.26-.18-.23-.5.14-1.32 1.19-2.2.31-.26.63-.01l.22.18a.22.21 40.7 0 1 .03.32l-.55.63q-.38.42-.48.98M257.03 167.2q.45-.31.94-.09a.28.26-67.6 0 1 .14.36q-.26.6-.94.47a.41.41 0 0 1-.14-.74"/><circle cx="198.62" cy="168.53" r=".69" fill="#833372"/><circle cx="169.58" cy="168.61" r=".53" fill="#663475"/><ellipse fill="#663475" rx=".62" ry=".52" transform="rotate(-35.1 395.126 -317.73)"/><circle cx="256.57" cy="169.53" r=".57" fill="#663475"/><ellipse fill="#833372" rx=".64" ry=".48" transform="rotate(1.4 -6810.99 10661.888)"/><ellipse fill="#663475" rx=".62" ry=".53" transform="rotate(39.2 -130.22 392.16)"/><ellipse fill="#663475" rx=".64" ry=".48" transform="rotate(-37.7 310.475 -87.96)"/><ellipse fill="#663475" rx=".62" ry=".44" transform="rotate(86.8 -17.939 162.701)"/><path fill="#663475" d="M247.14 171.18q.31-.28.7-.16a.39.38 18.7 0 1 .25.5q-.15.4-.57.48a.43.42-25.3 0 1-.41-.14q-.33-.36.03-.68"/><circle cx="249.53" cy="171.52" r=".63" fill="#833372"/><ellipse fill="#663475" rx=".51" ry=".43" transform="rotate(44.1 -85.56 397.402)"/><ellipse fill="#663475" rx=".75" ry=".46" transform="rotate(131.1 21.082 113.66)"/><ellipse fill="#833372" rx=".71" ry=".52" transform="rotate(22.6 -362.96 430.48)"/><path fill="#663475" d="M236.84 173.1q-.58-.05-.69-.61a.33.33 0 0 1 .54-.32q.31.26.4.64a.24.23 86.3 0 1-.25.29"/><path fill="#833372" d="M266.97 173.2q.22-.41.69-.25a.66.65-63.9 0 1 .33.98q-.12.19-.77-.06a.47.47 0 0 1-.25-.67M246.63 173.9q-.38.02-.36-.32.03-.46.48-.35.2.04.23.23.06.41-.35.44"/><circle cx="241.59" cy="174.57" r=".52" fill="#833372"/><ellipse fill="#663475" rx=".97" ry=".6" transform="rotate(93.3 43.664 206.665)"/><ellipse fill="#833372" rx=".59" ry=".45" transform="rotate(120.3 89.71 167.478)"/><ellipse fill="#e72d58" rx="1.06" ry=".4" transform="rotate(51.9 -104.896 243.897)"/><ellipse fill="#663475" rx=".64" ry=".53" transform="rotate(25.9 -325.614 341.7)"/><circle cx="209.55" cy="176.51" r=".62" fill="#833372"/><circle cx="236.48" cy="176.47" r=".62" fill="#663475"/><ellipse fill="#663475" rx=".56" ry=".47" transform="rotate(-1.7 6073.82 -8355.175)"/><circle cx="274.52" cy="177.53" r=".49" fill="#663475"/><circle cx="238.42" cy="178.6" r=".54" fill="#663475"/><ellipse fill="#663475" rx=".6" ry=".43" transform="rotate(22.3 -316.686 780.736)"/><ellipse fill="#663475" rx="1.03" ry=".63" transform="rotate(77.5 -47.838 168.98)"/><ellipse fill="#833372" rx=".76" ry=".58" transform="rotate(-37.1 382.293 -247.224)"/><ellipse fill="#663475" rx=".57" ry=".5" transform="rotate(27.6 -242.295 600.334)"/><circle cx="257.48" cy="181.54" r=".53" fill="#833372"/><ellipse fill="#833372" rx=".76" ry=".57" transform="rotate(118.4 59.895 159.334)"/><path fill="#833372" d="M154.85 182.11q.64.24-.03.88a.38.38 0 0 1-.53-.02q-.4-.43.11-.8a.48.48 0 0 1 .45-.06"/><path fill="#663475" d="M281.99 183.44a.42.42 0 0 1 .4-.44q.53-.03.69.48a.46.46 0 0 1-.45.6q-.61-.02-.64-.64"/><ellipse fill="#663475" rx=".62" ry=".52" transform="rotate(-3.3 3334.055 -5072.813)"/><ellipse fill="#663475" rx=".69" ry=".58" transform="rotate(129.2 31.457 128.01)"/><path fill="#833372" d="M157.13 184.06q.25.14.17.41-.15.46-.56.76-.54.38-.79-.22-.14-.32.02-.62.4-.74 1.16-.33"/><ellipse fill="#663475" rx="1.43" ry=".51" transform="rotate(44.4 -160.975 257.213)"/><path fill="#e72d58" d="M140.11 187.31q.36.83-.39.33-1.29-.86-1-2.31.17-.84.51-.05z"/><path fill="#663475" d="M282.27 185.15q.29-.16.62-.06a.47.47 0 0 1 .22.76q-.33.36-.8.16a.48.47 42.4 0 1-.04-.86"/><ellipse fill="#663475" rx=".61" ry=".5" transform="rotate(62.4 -89.023 202.379)"/><circle cx="236.55" cy="188.57" r=".56" fill="#663475"/><circle cx="238.42" cy="188.52" r=".48" fill="#833372"/><path fill="#833372" d="M175.1 189.04q.43-.19.87.07a.51.51 0 0 1 .09.8q-.43.41-1 .09a.54.54 0 0 1 .04-.96"/><path fill="#663475" d="M207.05 189.29a.41.4 13.6 0 1 .43-.26q.41.05.61.43a.44.44 0 0 1-.26.63q-.21.06-.42-.02-.55-.21-.36-.78"/><circle cx="152.57" cy="191.46" r=".45" fill="#663475"/><path fill="#663475" d="M156.53 191.93q-.26 0-.44-.18a.42.42 0 0 1 .11-.67q.21-.11.45-.06a.46.45-70 0 1 .3.66q-.13.25-.42.25"/><ellipse fill="#663475" rx=".66" ry=".53" transform="rotate(41.5 -166.557 323.554)"/><path fill="#833372" d="M177.4 191.06q.26-.08.51.03.29.12.31.41.03.4-.35.53-.08.03-.16.02-.34-.06-.54-.37-.29-.45.23-.62"/><path fill="#663475" d="M206.2 191.78q-.54.43-.94.3-.43-.14-.49-.7.52-.48.94-.28.31.16.49.68"/><circle cx="210.52" cy="191.57" r=".59" fill="#833372"/><circle cx="230.51" cy="191.57" r=".43" fill="#663475"/><circle cx="226.51" cy="191.57" r=".48" fill="#833372"/><path fill="#663475" d="M175.36 194.1q-.64.22-.51-.44.03-.17.12-.32a.61.61 0 0 1 1-.06q.14.18.18.41.08.62-.51.41-.14-.05-.28 0"/><path fill="#833372" d="M206.97 194.13q-.2-.46.03-1.14.6-.07.98.19a.51.5-50.4 0 1 .07.77q-.36.35-1.08.18"/><ellipse fill="#833372" rx=".88" ry=".51" transform="rotate(30.2 -288.168 365.118)"/><ellipse fill="#663475" rx=".65" ry=".47" transform="rotate(-20.9 600.796 -299.969)"/><circle cx="251.53" cy="195.62" r=".58" fill="#833372"/><path fill="#e72d58" d="m241.78 197.86-1.95 3.43a.52.52 0 0 1-.97-.28l.17-4.32a.52.52 0 0 1 .75-.45l1.78.89a.52.52 0 0 1 .22.73"/><ellipse fill="#663475" rx="1.29" ry=".48" transform="rotate(45.9 -108.174 392.444)"/><ellipse fill="#833372" rx=".81" ry=".47" transform="rotate(134.6 74.733 147.878)"/><ellipse fill="#833372" rx=".72" ry=".57" transform="rotate(42.5 -142.017 390.505)"/><ellipse fill="#833372" rx=".74" ry=".64" transform="rotate(104.9 .141 159.702)"/><ellipse fill="#663475" rx=".67" ry=".6" transform="rotate(56.7 -109.411 246.339)"/><ellipse fill="#663475" rx="1.06" ry=".59" transform="rotate(91.8 28.86 225.794)"/><path fill="#663475" d="M172.91 206.23q.38-.58 1.1-.11a.5.5 0 0 1 .14.68q-.37.57-1.01.26a.57.57 0 0 1-.23-.83"/><circle cx="266.5" cy="206.55" r=".58" fill="#833372"/><ellipse fill="#663475" rx=".86" ry=".45" transform="rotate(127.8 79.669 169.589)"/><path fill="#833372" d="M264.74 210.85q.38-.12.43.28.04.37-.21.78a.63.63 0 0 1-1.15-.15q-.17-.59.93-.91"/><circle cx="213.54" cy="214.47" r=".6" fill="#663475"/><path fill="#663475" d="M291.34 215.11q.5.03.69.52.18.48-.32.38-.41-.08-.64-.46a.29.29 0 0 1 .27-.44"/><circle cx="215.54" cy="221.53" r=".54" fill="#663475"/><ellipse fill="#663475" rx=".66" ry=".54" transform="rotate(40.1 -196.099 443.546)"/><ellipse fill="#663475" rx=".6" ry=".45" transform="rotate(19.9 -515.623 938.214)"/><path fill="#663475" d="M239.81 233.3q-.64.05-.79-.57-.13-.54.43-.68.33-.08.49.24l.2.42a.41.41 0 0 1-.33.59M262.08 237.47q-.03.36-.41.5a.5.5 0 0 1-.66-.62q.16-.46.7-.37a.45.45 0 0 1 .37.49"/><ellipse fill="#663475" rx=".72" ry=".58" transform="rotate(32.2 -271.7 616.277)"/><path fill="#663475" d="M260.14 246.14q.34-.17.69-.08a.48.48 0 0 1 .09.9q-.4.2-.77.02a.47.47 0 0 1-.01-.84"/><ellipse fill="#663475" rx=".78" ry=".67" transform="rotate(-1.1 14246.414 -10932.423)"/><path fill="#e72d58" d="M212.48 275.26q.41.15 0 .3-.13.05-.11-.19.02-.15.11-.11"/><ellipse fill="#663475" rx=".6" ry=".5" transform="rotate(32 -402.394 495.707)"/><ellipse fill="#e72d58" rx="1.47" ry=".35" transform="rotate(46.2 -235.096 396.442)"/><path fill="#663475" d="M211.1 293.35a.47.47 0 0 1 .42-.43q.26-.03.35.2.12.28.06.61a.4.4 0 0 1-.76.07q-.08-.22-.07-.45"/><ellipse fill="#833372" rx=".76" ry=".52" transform="rotate(41.2 -294.494 430.236)"/><ellipse fill="#663475" rx=".58" ry=".45" transform="rotate(9.4 -1801.352 1363.765)"/></svg>