<svg xmlns="http://www.w3.org/2000/svg" viewBox="0 0 382 382"><defs><clipPath id="a"><path d="M206.44 314.67h-12.95c-1.21-2.51-3.68-5.19-3.38-7.49.75-5.57 2.98-10.93 4.26-16.45 1.32-5.69 2.27-11.47 3.26-17.23.45-2.59 0-5.5 1.03-7.79 1.44-3.23 4.06-5.91 5.79-9.04.92-1.65 1.56-3.78 1.43-5.63-.52-7.52-1.58-15.01-2.06-22.53-.5-7.85-4.73-14.92-12.25-16.61-7.27-1.63-14.94-2.3-22.38-1.99-5.67.24-10.44-.05-14.85-3.97-4.27-3.81-9.03-7.07-13.42-10.76-10.97-9.21-23.3-14.58-37.79-15.62-13.59-.97-23.89-11.32-22.18-27.83.35-3.39-1.96-7.06-3.05-10.6v-8.98c2.87-4.82 6.05-9.49 8.52-14.51 2.88-5.83 7.45-8.74 13.57-10.16 9.19-2.13 18.35-4.43 27.43-6.98 11.92-3.35 20.95-9.71 22.65-23.23.12-.97 1.37-2.05 2.36-2.6 5.11-2.85 9.16.46 13.25 2.7 3.34 1.83 5.3 1.31 7.01-2.2 2.7-5.54 6.16-6.44 11.54-4.15 1.78.76 4.49 1 6.09.17 5.44-2.82 11-2.87 16.83-2.25 1.35.14 2.85-1.04 4.28-1.61h2.99c.54.52.99 1.31 1.63 1.51 5.05 1.63 10.13 3.21 15.24 4.64.82.23 1.86-.51 2.81-.58 3.67-.27 7.73-1.53 10.93-.39 3.66 1.3 6.42 4.96 9.83 7.21 2.03 1.34 4.48 2.32 6.87 2.81 5.88 1.22 11.85 2.03 17.76 3.08 3.22.57 4.62 2.39 4.46 5.87-.12 2.71.25 5.59 1.09 8.16 2.07 6.3 8.55 6.38 13.31 8.91 1.21.64 3.07 1.46 3.22 2.42.65 4.02 1.13 8.15.98 12.21-.15 4.04-1.57 8.05-1.56 12.07 0 1.96 2.01 3.91 3.1 5.87v22.94c-.77 4.18-1.59 8.36-2.3 12.55-1.89 11.1-3.76 22.2-5.6 33.31-1.17 7.08-2.2 14.17-3.41 21.24-.71 4.18-1.82 8.29-2.44 12.48-.7 4.73-1.27 9.5-1.46 14.27-.12 2.91.57 5.85.94 8.77.33 2.58-.56 4.1-3.01 5.47-6.85 3.82-13.69 7.76-20.12 12.23-17.42 12.11-35.35 23.07-56.19 28.34-1.42.36-2.71 1.27-4.06 1.93z"/></clipPath></defs><g clip-path="url(#a)"><svg xmlns="http://www.w3.org/2000/svg" width="382" height="382" style="shape-rendering:geometricPrecision"><path fill="#e4e8e3" stroke="#e4e8e3" d="m50.515 175.069-17.357 23.452-13.475-19.37zM335.144 76.052l3.02-3.21 11.859-2.258L382 104.619v5.067l-19.205 1.024zM264.285 289.493l65.384-20.757 2.316 7.624-5.391 37.818-48.2 12.79z"/><path fill="#d10134" stroke="#d10134" d="m254.663 261.707 33.601-33.254 42.046 30.846-.641 9.437-65.384 20.757-10.914-12.867zM169.633 115.333l-7.165-37.16 52.849-5.56 6.786 7.487 5.803 18.154-50.908 23.35z"/><path fill="#e4e8e3" stroke="#e4e8e3" d="m55.143 193.252-20.385 7.937-1.6-2.668 17.357-23.452 6.385-1.247zM164.65 345.878 182.773 382H95.638l-9.05-30.716 19.017-27.71 37.272-4.606 7.413 1.725zM148.47 210.703l-1.315 26.573-3.69.74-43.47 5.571-.081-8.912 23.574-45.51 19.18 10.62z"/><path fill="#d10134" stroke="#d10134" d="m204.768 237.822 29.016 4.453 20.88 19.432-1.293 14.919-32.558 12.993-27.314-8.877-8.671-34.962z"/><path fill="#e4e8e3" stroke="#e4e8e3" d="m348.25 131.23-19.602-51.478 6.496-3.7 27.651 34.658z"/><path fill="#d10134" stroke="#d10134" d="m62.84 206.506-2.95 29.448-5.899 1.44-20.031-7.555-3.252-1.813 4.05-26.837 20.385-7.937 1.169 1.473z"/><path fill="#e4e8e3" stroke="#e4e8e3" d="m220.813 289.62 32.558-12.994 10.914 12.867 14.109 37.475L256.607 382h-39.42l3.156-88.801z"/><path fill="#d10134" stroke="#d10134" d="m158.28 165.195-15.612 34.59-19.18-10.62-1.687-2.406-5.112-32.806 15.134-10.901 17.527 8.719zM282.799 51.56 286.898 0h40.191l11.075 72.843-3.02 3.21-6.496 3.7-18.105 5.696z"/><path fill="#e4e8e3" stroke="#e4e8e3" d="m149.218 238.527 2.864 79.126-1.792 3.04-7.413-1.725-14.711-26.98 15.3-53.972 3.689-.74z"/><path fill="#d10134" stroke="#d10134" d="m53.991 237.395-17.433 62.35-1.312.797-23.818 1.695L33.96 229.84zM382 259.41l-33.574-14.36 10.709-34.633 22.865-22z"/><path fill="#e4e8e3" stroke="#e4e8e3" d="m122.007 86.542-94.252-3.224L0 68.139V55.622l115.834-27.317 22.42 5.306 1.392 38.685zM382 104.619l-31.977-34.035L382 57.007z"/><path fill="#d10134" stroke="#d10134" d="m169.633 115.333-37.515 21.517-10.11-50.308 17.638-14.246 22.822 5.877zM180.11 243.147l4.718 2.633 8.671 34.962-41.417 36.91-2.864-79.125zM158.28 165.195l-8.93-13.424 28.013-14.565 47.521 21.07.72 2.769-1.413 3.324-40.38 13.36z"/><path fill="#e4e8e3" stroke="#e4e8e3" d="m99.994 243.587-.572.496-39.533-8.13 2.95-29.447 24.829-11.892 2.805 3.03 9.44 37.031z"/><path fill="#d10134" stroke="#d10134" d="M382 382h-72.495l32.004-42.288L382 371.884zM298.025 194.553l21.482-42.23 23.714.868L382 174.448v13.969l-22.865 22-61.064-9.12z"/><path fill="#e4e8e3" stroke="#e4e8e3" d="M215.317 72.613 212.99 0h73.907l-4.1 51.56-60.695 28.54z"/><path fill="#d10134" stroke="#d10134" d="m182.773 382-18.123-36.122 55.693-52.68L217.187 382z"/><path fill="#e4e8e3" stroke="#e4e8e3" d="M0 382v-77.88l.328-.112 11.1-1.77 23.818-1.696L60.2 347.819 25.963 382zM382 371.884l-40.49-32.172-4.27-16.595 44.76-12.44z"/><path fill="#d10134" stroke="#d10134" d="m105.605 323.574-19.016 27.71L60.2 347.82l-24.954-47.277 1.312-.796L78 295.216zM98.927 251.501l29.239 40.488 14.71 26.98-37.27 4.605L78 295.216zM123.488 189.166l-23.574 45.51-9.44-37.033L121.8 186.76z"/><path fill="#e4e8e3" stroke="#e4e8e3" d="m0 168.869 19.683 10.281 13.475 19.371 1.6 2.668-4.05 26.837-11.91.46L0 222.529z"/><path fill="#d10134" stroke="#d10134" d="m50.515 175.069-30.832 4.081L0 168.87V68.139l27.755 15.179 45.961 68.877L56.9 173.822z"/><path fill="#e4e8e3" stroke="#e4e8e3" d="m185.97 210.03-8.18-16.712 6.02-15.589 40.38-13.36 2.834 17.692-15.354 22.28z"/><path fill="#d10134" stroke="#d10134" d="m149.35 151.77-17.527-8.718.295-6.202 37.515-21.517 7.365 6.272.365 15.601z"/><path fill="#e4e8e3" stroke="#e4e8e3" d="m33.96 229.84-22.532 72.397-11.1 1.77 18.47-75.52 11.91-.46z"/><path fill="#d10134" stroke="#d10134" d="m312.65 144.948-29.697-3.113-17.204-37.026 42.86-16.101zM164.65 345.878l-14.36-25.185 1.792-3.04 41.417-36.911 27.314 8.877-.47 3.58zM159.496 0l-21.243 33.611-22.419-5.306L96.744 0zM0 222.528l18.798 5.959-18.47 75.52-.328.113z"/><path fill="#e4e8e3" stroke="#e4e8e3" d="m298.025 194.553-47.706-33.996 32.634-18.722 29.696 3.113 6.858 7.374zM25.963 382 60.2 347.82l26.389 3.464L95.639 382zM177.79 193.318l-29.32 17.385-5.802-10.918 15.611-34.59 25.532 12.534zM256.607 382l21.787-55.032 48.2-12.79 10.645 8.939 4.27 16.595L309.505 382zM348.25 131.23l14.545-20.52L382 109.686v64.762l-38.78-21.257z"/><path fill="#d10134" stroke="#d10134" d="m330.31 259.3 18.116-14.25L382 259.41v32.08l-50.015-15.13-2.316-7.624z"/><path fill="#e4e8e3" stroke="#e4e8e3" d="m86.098 189.569-29.786 5.156-1.169-1.473 1.757-19.43 16.816-21.627 6.317 3.036z"/><path fill="#d10134" stroke="#d10134" d="m224.884 158.276 3.056-59.964 37.809 6.497 17.204 37.026-32.634 18.722-24.715.488z"/><path fill="#e4e8e3" stroke="#e4e8e3" d="m87.668 194.614-24.829 11.892-6.527-11.781 29.786-5.156zM288.304 219.804l9.767-18.508 61.064 9.121-10.709 34.634-18.116 14.248-42.046-30.846z"/><path fill="#d10134" stroke="#d10134" d="M227.906 98.254 222.103 80.1l60.696-28.54 27.744 33.89-1.934 3.258-42.86 16.1-37.81-6.496zM116.689 153.953l-36.656 1.278-6.317-3.036-45.961-68.877 94.252 3.224 10.11 50.308-.294 6.202zM224.19 164.37l1.414-3.325 24.715-.488 47.706 33.996.046 6.743-9.767 18.508-50.797-22.606-10.483-15.137z"/><path fill="#e4e8e3" stroke="#e4e8e3" d="m185.97 210.03 25.7-5.69-6.902 33.482-19.94 7.958-4.717-2.633z"/><path fill="#d10134" stroke="#d10134" d="m204.768 237.822 6.902-33.481 15.354-22.28 10.483 15.137-3.723 45.077z"/><path fill="#e4e8e3" stroke="#e4e8e3" d="M331.985 276.36 382 291.49v19.186l-44.76 12.44-10.646-8.938zM98.927 251.501 78 295.216l-41.443 4.53 17.433-62.351 5.898-1.441 39.533 8.13z"/><path fill="#d10134" stroke="#d10134" d="m143.466 238.016-15.3 53.973-29.24-40.488.496-7.418.572-.496zM224.884 158.276l-47.52-21.07-.366-15.601 50.908-23.351.034.058zM121.8 186.76l-31.327 10.883-2.805-3.03-1.57-5.044-6.065-34.338 36.656-1.278zM162.468 78.173l-22.822-5.877-1.393-38.685L159.496 0h53.495l2.326 72.613zM382 0v57.007l-31.977 13.577-11.859 2.259L327.09 0z"/><path fill="#e4e8e3" stroke="#e4e8e3" d="m312.65 144.948-4.04-56.24 1.933-3.259 18.105-5.697 19.602 51.477-5.03 21.962-23.713-.869z"/><path fill="#d10134" stroke="#d10134" d="m233.784 242.275 3.723-45.077 50.797 22.606-.04 8.649-33.6 33.254zM96.744 0l19.09 28.305L0 55.622V0z"/><path fill="#e4e8e3" stroke="#e4e8e3" d="m185.97 210.03-5.86 33.117-30.892-4.62-2.063-1.251 1.315-26.573 29.32-17.385z"/></svg></g></svg>