<svg xmlns="http://www.w3.org/2000/svg" viewBox="0 0 382 382"><defs><clipPath id="a"><path d="M206.44 314.67h-12.95c-1.21-2.51-3.68-5.19-3.38-7.49.75-5.57 2.98-10.93 4.26-16.45 1.32-5.69 2.27-11.47 3.26-17.23.45-2.59 0-5.5 1.03-7.79 1.44-3.23 4.06-5.91 5.79-9.04.92-1.65 1.56-3.78 1.43-5.63-.52-7.52-1.58-15.01-2.06-22.53-.5-7.85-4.73-14.92-12.25-16.61-7.27-1.63-14.94-2.3-22.38-1.99-5.67.24-10.44-.05-14.85-3.97-4.27-3.81-9.03-7.07-13.42-10.76-10.97-9.21-23.3-14.58-37.79-15.62-13.59-.97-23.89-11.32-22.18-27.83.35-3.39-1.96-7.06-3.05-10.6v-8.98c2.87-4.82 6.05-9.49 8.52-14.51 2.88-5.83 7.45-8.74 13.57-10.16 9.19-2.13 18.35-4.43 27.43-6.98 11.92-3.35 20.95-9.71 22.65-23.23.12-.97 1.37-2.05 2.36-2.6 5.11-2.85 9.16.46 13.25 2.7 3.34 1.83 5.3 1.31 7.01-2.2 2.7-5.54 6.16-6.44 11.54-4.15 1.78.76 4.49 1 6.09.17 5.44-2.82 11-2.87 16.83-2.25 1.35.14 2.85-1.04 4.28-1.61h2.99c.54.52.99 1.31 1.63 1.51 5.05 1.63 10.13 3.21 15.24 4.64.82.23 1.86-.51 2.81-.58 3.67-.27 7.73-1.53 10.93-.39 3.66 1.3 6.42 4.96 9.83 7.21 2.03 1.34 4.48 2.32 6.87 2.81 5.88 1.22 11.85 2.03 17.76 3.08 3.22.57 4.62 2.39 4.46 5.87-.12 2.71.25 5.59 1.09 8.16 2.07 6.3 8.55 6.38 13.31 8.91 1.21.64 3.07 1.46 3.22 2.42.65 4.02 1.13 8.15.98 12.21-.15 4.04-1.57 8.05-1.56 12.07 0 1.96 2.01 3.91 3.1 5.87v22.94c-.77 4.18-1.59 8.36-2.3 12.55-1.89 11.1-3.76 22.2-5.6 33.31-1.17 7.08-2.2 14.17-3.41 21.24-.71 4.18-1.82 8.29-2.44 12.48-.7 4.73-1.27 9.5-1.46 14.27-.12 2.91.57 5.85.94 8.77.33 2.58-.56 4.1-3.01 5.47-6.85 3.82-13.69 7.76-20.12 12.23-17.42 12.11-35.35 23.07-56.19 28.34-1.42.36-2.71 1.27-4.06 1.93z"/></clipPath></defs><g clip-path="url(#a)"><svg xmlns="http://www.w3.org/2000/svg" width="382" height="382" style="shape-rendering:geometricPrecision"><path fill="#f426e9" stroke="#f426e9" d="m90.045 175.705-35.816 18.24-23.422-11.38-2.42-31.28 53.347-15.74z"/><path fill="#197675" stroke="#197675" d="M86.494 127.688 51.811 92.194l7.303-41.762 13.755-4.157 46.666 6.715 9.34 50.765zM132.829 283.125l-17.26 25.451-42.22 7.012-17.658-18.453.266-1.371 44.36-54.045 12.303-1.963zM382 288.719l-21.29 5.957-2.068-41.923 23.358 7.77zM55.69 297.135 0 315.312v-35.265l29.095-19.031 11.857 6.179 15.005 28.569zM43.894 382l11.097-12.087 62.945-22.99L150.75 382z"/><path fill="#f426e9" stroke="#f426e9" d="m81.734 135.544-53.348 15.741L0 138.575V91.858l51.81.336 34.684 35.494zM115.57 308.576l2.366 38.347-62.945 22.99 18.357-54.325zM262.078 48.279l-47.9 11.65-.015-19.557L280.778 0h4.056l-22.189 47.772z"/><path fill="#197675" stroke="#197675" d="m156.923 133.346-16.072-24.031 49.22-25.088 20.046 39.906zM230.096 219.64l-51.63-39.01 54.201-36.94 26.598 38.002 4.603 24.517-.4.503z"/><path fill="#197675" stroke="#197675" d="m178.467 180.63-5.81-1.187-15.734-46.097 53.194-9.213 25.619 4.164-3.069 15.392z"/><path fill="#f426e9" stroke="#f426e9" d="m45.156 0-13.37 40.298L0 46.668V0zM94.788 240.815l-53.836 26.38-11.857-6.18.696-4.643 17.084-27.313 12.042-1.218z"/><path fill="#197675" stroke="#197675" d="m100.316 241.72-5.528-.905-35.871-12.974-4.688-33.896 35.816-18.24 30.534 46.551-7.959 17.5z"/><path fill="#197675" stroke="#197675" d="m58.917 227.841-12.042 1.218-32.026-18.5 15.958-27.994 23.422 11.38z"/><path fill="#f426e9" stroke="#f426e9" d="M197.318 78.952 167.104 9.183l47.059 31.19.015 19.555-10.614 18.262z"/><path fill="#197675" stroke="#197675" d="m100.316 241.72-44.36 54.044-15.004-28.57 53.836-26.38z"/><path fill="#f426e9" stroke="#f426e9" d="m280.778 0-66.615 40.372-47.059-31.189L159.854 0zM333.157 297.371l11.622-55.869 13.863 11.25 2.067 41.924-5.353 2.486z"/><path fill="#197675" stroke="#197675" d="m189.736 382 12.486-35.458 48.206-29.352 5.418 25.113L198.95 382z"/><path fill="#f426e9" stroke="#f426e9" d="m208.63 261.563-69.365-50.224 33.392-31.896 5.81 1.188 51.629 39.009-3.434 10.12-12.524 22.242z"/><path fill="#197675" stroke="#197675" d="M0 222.35v-6.788l14.849-5.003 32.026 18.5-17.084 27.313z"/><path fill="#f426e9" stroke="#f426e9" d="m382 357.365-26.644-60.203 5.353-2.486L382 288.719zM281.045 102.9l-18.4-55.128L284.834 0h3.925l19.84 48.731-16.299 52.32z"/><path fill="#197675" stroke="#197675" d="m0 222.35 29.791 34.022-.696 4.644L0 280.047z"/><path fill="#f426e9" stroke="#f426e9" d="m296.167 183.738 3.42-24.812 24.828-14.653 15.978 15.888z"/><path fill="#197675" stroke="#197675" d="m144.819 0-25.284 52.99-46.666-6.715L66.088 0z"/><path fill="#f426e9" stroke="#f426e9" d="M210.117 124.133 190.07 84.227l7.248-5.275 6.246-.762 29.577 16.24 11.433 21.92-8.838 11.947zM287.667 199.95l8.5-16.212 44.226-23.577L382 182.58v2.33l-40.185 30.844z"/><path fill="#197675" stroke="#197675" d="m339.976 225.774 1.839-10.019L382 184.91v75.614l-23.358-7.771-13.863-11.25-4.344-13.944z"/><path fill="#f426e9" stroke="#f426e9" d="m277.811 287.324 12.489-2.583 15.542 11.708 9.962 8.188-1.719 27.31-39.56 17.554-18.679-7.198-5.418-25.113-1.162-16.857z"/><path fill="#197675" stroke="#197675" d="M59.114 50.432 51.81 92.194 0 91.858v-45.19l31.785-6.37z"/><path fill="#f426e9" stroke="#f426e9" d="m265.082 273.414-38.42-43.655 3.434-10.12 33.372-12.927 27.69 56.714-.858 21.315-12.489 2.583zM0 382v-66.688l55.69-18.177 17.658 18.453-18.357 54.325L43.894 382z"/><path fill="#197675" stroke="#197675" d="m0 138.575 28.386 12.71 2.42 31.28L14.85 210.56 0 215.562zM152.961 289.35 187.864 382h-37.113l-32.815-35.077-2.367-38.347 17.26-25.451zM232.667 143.69l3.069-15.393 8.838-11.948 19.572-.649 16.013 26.218.212 1.697-21.106 38.077zM263.868 206.209l-4.603-24.517 21.106-38.077 19.216 15.311-3.42 24.812-8.5 16.213z"/><path fill="#f426e9" stroke="#f426e9" d="m198.95 382 56.896-39.697 18.68 7.198.743 32.499z"/><path fill="#197675" stroke="#197675" d="m291.159 263.426 48.817-37.652.46 1.785-34.594 68.89L290.3 284.74z"/><path fill="#f426e9" stroke="#f426e9" d="m208.63 261.563 5.508-9.56 50.944 21.41 12.73 13.911-28.546 13.01-33.532-11-10.665-12.617z"/><path fill="#197675" stroke="#197675" d="m305.842 296.449 34.593-68.89 4.344 13.943-11.622 55.869-17.353 7.266zM214.138 252.002l12.524-22.243 38.42 43.655z"/><path fill="#f426e9" stroke="#f426e9" d="m140.851 109.315-11.976-5.56-9.34-50.765L144.819 0h15.035l7.25 9.183 30.214 69.77-7.248 5.274zM139.265 211.339l-18.686 10.917-30.534-46.55-8.311-40.162 4.76-7.856 42.38-23.933 11.977 5.56 16.072 24.031 15.734 46.097z"/><path fill="#197675" stroke="#197675" d="M262.078 48.279 233.141 94.43 203.564 78.19l10.614-18.262zM275.269 382l-.744-32.499 39.56-17.554L345.487 382z"/><path fill="#f426e9" stroke="#f426e9" d="m280.371 143.615-.212-1.697 40.34-12.285 3.916 14.64-24.828 14.653zM292.3 101.051l16.298-52.32 35.674 33.115-12.657 23.926-10.089 6.658z"/><path fill="#197675" stroke="#197675" d="m215.734 289.334 33.532 11 1.162 16.856-48.206 29.352zM59.114 50.432 31.785 40.298 45.155 0h20.933l6.781 46.275zM333.157 297.371l22.2-.209L382 357.365V382h-36.513l-31.402-50.053 1.719-27.31z"/><path fill="#f426e9" stroke="#f426e9" d="m320.498 129.633 1.028-17.203 10.089-6.658L382 138.039v44.542l-41.607-22.42-15.978-15.888zM244.574 116.35 233.14 94.43l28.937-46.151.567-.507 18.4 55.128-16.899 12.8zM382 98.347l-33.999-17.75L382 32.708z"/><path fill="#197675" stroke="#197675" d="m208.63 261.563-3.561 15.154-52.108 12.634-20.132-6.226-20.209-43.37 7.959-17.499 18.686-10.917zM382 0v32.708l-33.999 47.89-3.729 1.248-35.674-33.115L288.76 0zM291.159 263.426l-27.691-56.714.4-.503 23.799-6.258 54.148 15.804-1.839 10.019zM320.498 129.633l-40.339 12.285-16.013-26.218 16.9-12.8 11.254-1.849 29.226 11.379z"/><path fill="#197675" stroke="#197675" d="m382 138.04-50.385-32.268 12.657-23.926 3.73-1.249L382 98.347z"/><path fill="#f426e9" stroke="#f426e9" d="m205.069 276.717 10.665 12.617-13.512 57.208L189.736 382h-1.872l-34.903-92.65z"/></svg></g></svg>