<svg xmlns="http://www.w3.org/2000/svg" viewBox="0 0 382 382"><defs><clipPath id="a"><path d="M206.44 314.67h-12.95c-1.21-2.51-3.68-5.19-3.38-7.49.75-5.57 2.98-10.93 4.26-16.45 1.32-5.69 2.27-11.47 3.26-17.23.45-2.59 0-5.5 1.03-7.79 1.44-3.23 4.06-5.91 5.79-9.04.92-1.65 1.56-3.78 1.43-5.63-.52-7.52-1.58-15.01-2.06-22.53-.5-7.85-4.73-14.92-12.25-16.61-7.27-1.63-14.94-2.3-22.38-1.99-5.67.24-10.44-.05-14.85-3.97-4.27-3.81-9.03-7.07-13.42-10.76-10.97-9.21-23.3-14.58-37.79-15.62-13.59-.97-23.89-11.32-22.18-27.83.35-3.39-1.96-7.06-3.05-10.6v-8.98c2.87-4.82 6.05-9.49 8.52-14.51 2.88-5.83 7.45-8.74 13.57-10.16 9.19-2.13 18.35-4.43 27.43-6.98 11.92-3.35 20.95-9.71 22.65-23.23.12-.97 1.37-2.05 2.36-2.6 5.11-2.85 9.16.46 13.25 2.7 3.34 1.83 5.3 1.31 7.01-2.2 2.7-5.54 6.16-6.44 11.54-4.15 1.78.76 4.49 1 6.09.17 5.44-2.82 11-2.87 16.83-2.25 1.35.14 2.85-1.04 4.28-1.61h2.99c.54.52.99 1.31 1.63 1.51 5.05 1.63 10.13 3.21 15.24 4.64.82.23 1.86-.51 2.81-.58 3.67-.27 7.73-1.53 10.93-.39 3.66 1.3 6.42 4.96 9.83 7.21 2.03 1.34 4.48 2.32 6.87 2.81 5.88 1.22 11.85 2.03 17.76 3.08 3.22.57 4.62 2.39 4.46 5.87-.12 2.71.25 5.59 1.09 8.16 2.07 6.3 8.55 6.38 13.31 8.91 1.21.64 3.07 1.46 3.22 2.42.65 4.02 1.13 8.15.98 12.21-.15 4.04-1.57 8.05-1.56 12.07 0 1.96 2.01 3.91 3.1 5.87v22.94c-.77 4.18-1.59 8.36-2.3 12.55-1.89 11.1-3.76 22.2-5.6 33.31-1.17 7.08-2.2 14.17-3.41 21.24-.71 4.18-1.82 8.29-2.44 12.48-.7 4.73-1.27 9.5-1.46 14.27-.12 2.91.57 5.85.94 8.77.33 2.58-.56 4.1-3.01 5.47-6.85 3.82-13.69 7.76-20.12 12.23-17.42 12.11-35.35 23.07-56.19 28.34-1.42.36-2.71 1.27-4.06 1.93z"/></clipPath></defs><g clip-path="url(#a)"><svg xmlns="http://www.w3.org/2000/svg" width="382" height="382" style="shape-rendering:geometricPrecision"><path fill="#ff0463" stroke="#ff0463" d="m242.862 295.663 18.712-.439 48.38 38.439-21.077 26.796-54.819-24.965z"/><path fill="#df520a" stroke="#df520a" d="m125.055 325.372 23.97 26.69-26.84 3.637-17.856-10.377zM0 19.467l61.547 25.37-9.097 12.061L0 79.481z"/><path fill="#ff0463" stroke="#ff0463" d="m382 183.174-58.931 16.186 5.624-25.538 5.435-2.514L382 162.872z"/><path fill="#df520a" stroke="#df520a" d="m147.599 287.18 44.642-54.322 18.255-.233 20.567 16.886-1.606 14.227-69.698 29.6zM160.988 113.706l-47.249 41.15-18.218-59.374 36.646-33.3z"/><path fill="#ff0463" stroke="#ff0463" d="m261.574 295.224 52.817-16.541 13.005 15.094-4.232 29.891-13.21 9.995z"/><path fill="#df520a" stroke="#df520a" d="m244.044 133.117-3.646-56.694 79.069-23.34 13.128 15.27-30.355 54.763-8.586 4.692-32.891 14.346zM104.46 186.176l-21.421 7.799-10.236-2.336 9.108-90.652 13.61-5.505 18.218 59.375-3.336 15.165zM122.185 355.699l3.49 26.301H62.683l-3.6-26.653 45.246-10.025z"/><path fill="#df520a" stroke="#df520a" d="m262.254 146.503-1.491-4.35 32.89-14.345 40.475 43.5-5.435 2.514-55.388-1.76-1.308-.438z"/><path fill="#ff0463" stroke="#ff0463" d="m147.666 205.316 47.403-34.223 13.998 53.8 1.43 7.732-18.256.233-37.447-9.582z"/><path fill="#df520a" stroke="#df520a" d="m119.127 189.816-14.667-3.64 5.943-16.154 70.825-37.197 5.344 4.086zM382 363.667l-58.836-39.999 4.232-29.891L382 280.814z"/><path fill="#ff0463" stroke="#ff0463" d="m181.228 132.825-20.24-19.12-28.82-51.523 8.053-44.232L147.871 0h22.49l51.294 42.868 18.743 33.555 3.646 56.694-40.84 11.682-16.632-7.888zM125.675 382l-3.49-26.301 26.84-3.637 43.143 16.454L190.477 382z"/><path fill="#df520a" stroke="#df520a" d="m382 155.671-79.76-32.555 30.355-54.763 2.408.287L382 86.113z"/><path fill="#ff0463" stroke="#ff0463" d="m154.794 223.276 37.447 9.582-44.642 54.322-10.447-3.246-1.57-18.642zM0 230.225l27.452 1.815 17.404 48.75L0 274.343z"/><path fill="#df520a" stroke="#df520a" d="m0 128.752 65.93 63.21-38.478 40.078L0 230.225z"/><path fill="#ff0463" stroke="#ff0463" d="m81.91 100.987-12.125.036L52.45 56.898l9.097-12.06 78.674-26.888-8.054 44.232-36.646 33.3zM382 0v8.451L335.003 68.64l-2.408-.287-13.128-15.27-9.99-39.392L311.873 0z"/><path fill="#df520a" stroke="#df520a" d="m0 274.344 44.856 6.445 10.038 19.733-11.63 28.883L0 330.89z"/><path fill="#ff0463" stroke="#ff0463" d="m323.069 199.36-1.936 1.503-47.828-28.8 55.388 1.759z"/><path fill="#df520a" stroke="#df520a" d="m190.477 382 1.69-13.484 2.832-6.273 39.06-26.75 54.818 24.966L294.27 382z"/><path fill="#ff0463" stroke="#ff0463" d="M382 86.113 335.003 68.64 382 8.45zM91.565 220.852l-17.407 69.95-19.264 9.72-10.038-19.733-17.404-48.75 38.477-40.078 6.874-.322 10.236 2.336z"/><path fill="#df520a" stroke="#df520a" d="m293.654 127.808 8.586-4.692L382 155.67v7.2l-47.872 8.437z"/><path fill="#ff0463" stroke="#ff0463" d="m209.067 224.892-13.998-53.8 8.135-26.293 40.84-11.682 16.719 9.037 1.491 4.35z"/><path fill="#df520a" stroke="#df520a" d="m147.666 205.316 7.128 17.96-19.211 42.016-44.018-44.44-8.526-26.877 21.421-7.8 14.667 3.641zM209.067 224.892l53.187-78.389 9.743 25.12-6.992 54.881-33.942 23.007-20.567-16.886zM147.666 205.316l-28.539-15.5 67.445-52.905 16.632 7.888-8.135 26.294zM159.759 293.339l69.698-29.6 13.405 31.924-8.804 39.83-39.06 26.75zM323.617 235.182 382 225.534v55.28l-54.604 12.963-13.005-15.094-5.118-32.171zM0 382v-51.109l43.263-1.486 15.82 25.942 3.6 26.653z"/><path fill="#ff0463" stroke="#ff0463" d="m231.063 249.51 33.942-23.006 44.268 20.008 5.118 32.17-52.817 16.542-18.712.439-13.405-31.925z"/><path fill="#df520a" stroke="#df520a" d="m74.158 290.802 61.079-5.746-10.182 40.316-20.726 19.95-45.247 10.025-15.819-25.942 11.63-28.883z"/><path fill="#ff0463" stroke="#ff0463" d="m181.228 132.825-70.825 37.197 3.336-15.165 47.249-41.151zM91.565 220.852l44.018 44.44 1.569 18.642-1.915 1.122-61.079 5.746z"/><path fill="#df520a" stroke="#df520a" d="M0 114.512v-35.03l52.45-22.584 17.335 44.125zM147.599 287.18l12.16 6.159 35.24 68.904-2.831 6.273-43.143-16.454-23.97-26.69 10.182-40.316 1.915-1.122zM319.467 53.084l-79.07 23.34-18.742-33.556 87.822-29.177zM382 382h-87.73l-5.393-21.541 21.076-26.796 13.21-9.995 58.837 40z"/><path fill="#ff0463" stroke="#ff0463" d="m265.005 226.504 6.992-54.88 1.308.438 47.828 28.801 2.484 34.319-14.344 11.33z"/><path fill="#df520a" stroke="#df520a" d="M0 0h147.87l-7.649 17.95-78.674 26.887L0 19.467z"/><path fill="#ff0463" stroke="#ff0463" d="M323.069 199.36 382 183.174v42.36l-58.383 9.648-2.484-34.319zM311.873 0l-2.396 13.691-87.822 29.177L170.36 0zM81.91 100.987l-9.107 90.652-6.874.322L0 128.752v-14.24l69.785-13.489z"/></svg></g></svg>