<svg xmlns="http://www.w3.org/2000/svg" viewBox="0 0 382 382"><g fill="none" stroke-width="2"><path stroke="#457c1c" d="M234.27 87.5q.3 3.18 1.66 1.2M270.71 105.62q-.7-.1-.73.38-.03.73-.57 1.14a.88.87-15.5 0 0-.35.61q-.02.24.06.47.3.86.66.02.34-.82 1.03-1.38.36-.28.29-.73l-.06-.4" vector-effect="non-scaling-stroke"/><path stroke="#2b6283" d="M271.52 105.82q-.39 1.01-.42 1.95a.96.96 0 0 0 .28.7l4.13 3.96q.41.4.98.43l3.44.19q.61.04.81.62.76 2.22 1.47 4.48.68 2.21 3.6 3.25 5.87 2.1 8.93-1.54c1.52-1.81 2.1-4.77 2.7-7.02a1.15 1.14-53.5 0 0-.13-.9l-.59-.94q-.28-.45-.1-.94.39-1.1-.32-1.78" vector-effect="non-scaling-stroke"/><path stroke="#387010" d="m263.31 126.18-3.69-5.01q-.31-.42-.84-.47-1.04-.09-2.07-.17-.24-.02-.44-.17-.26-.21-.02-.5a.58.56 60 0 0 .12-.49q-.13-.62-.63-.89" vector-effect="non-scaling-stroke"/><path stroke="#66993b" d="M255.74 118.48q-.12-.37-.5-.68" vector-effect="non-scaling-stroke"/><path stroke="#387010" d="M255.24 117.8q-2.28-1.45-3.89-1.14-4.37.83-7.9-3.05" vector-effect="non-scaling-stroke"/><path stroke="#578c2c" d="M243.45 113.61q.04-.23-.27-.37-.2-.09-.4-.02-.68.26-.91 1.49" vector-effect="non-scaling-stroke"/><path stroke="#387010" d="m241.87 114.71-.41 1.05" vector-effect="non-scaling-stroke"/><path stroke="#66993b" d="M241.46 115.76q-1.94.54-.4 3.32" vector-effect="non-scaling-stroke"/><path stroke="#387010" d="M241.06 119.08q1.18 1.09.59 1.96a.79.78-74.7 0 1-.62.36l-3.34.18q-.62.04-.15.44l1.74 1.5q.39.34 0 .68-2.25 1.96-5.02.3" vector-effect="non-scaling-stroke"/><path stroke="#578c2c" d="m234.26 124.5-.79-1.62q-.23-.47.01-.94.25-.52-.12-1-.44-.58-.65.12-.5 1.61.53 2.92" vector-effect="non-scaling-stroke"/><path stroke="#387010" d="M233.24 123.98q-.42 1.37-1.29 2.25-1.43.04-2.82-.19-1.56-.26-2.68-.09-1.33.2-2.62.34a1.13 1.13 0 0 0-.78.46l-.31.45" vector-effect="non-scaling-stroke"/><path stroke="#457c1c" d="M222.74 127.2q-.39-.17-.55-.03a.24.23-69.1 0 0 .18.41q.44-.05.37-.38" vector-effect="non-scaling-stroke"/><path stroke="#387010" d="M222.74 127.2q1.04.21.91-.38" vector-effect="non-scaling-stroke"/><path stroke="#66993b" d="M223.65 126.82q-.01.86.36 1.14" vector-effect="non-scaling-stroke"/><path stroke="#387010" d="M224.01 127.96q-1.69 2.74-4.46 4.14-.42.22-.28.67.05.16.22.24.69.29 0 .56-1.21.49-2.53.56" vector-effect="non-scaling-stroke"/><path stroke="#578c2c" d="M216.96 134.13q-.3.32 0 .66" vector-effect="non-scaling-stroke"/><path stroke="#387010" d="m216.96 134.79.84 1.27" vector-effect="non-scaling-stroke"/><path stroke="#66993b" d="M217.8 136.06q-.08.95.92.97" vector-effect="non-scaling-stroke"/><path stroke="#387010" d="M218.72 137.03q1.21-.17 1.44.83.21.97.08 1.97" vector-effect="non-scaling-stroke"/><path stroke="#66993b" d="M220.24 139.83q-.4-.41-.68-.53-.54-.23-.42.34.2.98.87 1.9" vector-effect="non-scaling-stroke"/><path stroke="#387010" d="M220.01 141.54q-.13 1.04.71 1.28 1.6.46 2.02.72M194.3 142.11q-.77-1.18-.76-2.44" vector-effect="non-scaling-stroke"/><path stroke="#578c2c" d="M193.54 139.67q-1.71.22-1.79-.5" vector-effect="non-scaling-stroke"/><path stroke="#387010" d="M191.75 139.17q-.98-.33-1.1-1.3-.06-.46-.39-.79l-.54-.52" vector-effect="non-scaling-stroke"/><path stroke="#66993b" d="M189.72 136.56q-1.55-3.05-3.6-.86" vector-effect="non-scaling-stroke"/><path stroke="#387010" d="M186.12 135.7q-1.64 1.18-2.15 3.24" vector-effect="non-scaling-stroke"/><path stroke="#2b6283" d="M175.79 133.32c.57-5.12.59-8.22-1.61-11.93-1.73-2.92-4.74-5.34-6.99-7.88q-.46-.51.17-.79.64-.27-.05-.36-.24-.04-.28.2a.33.33 0 0 1-.46.25l-1.22-.53M162.01 97.09q1.43-.59 1.25-2.16-.06-.53.41-.77l.59-.3q.48-.24.5-.77l.24-5.05" vector-effect="non-scaling-stroke"/><path stroke="#336b0b" d="M165 88.04q1.41.8 1.25 2.01-.07.46.33.72.94.59 1.55 1.44" vector-effect="non-scaling-stroke"/><path stroke="#457c1c" d="M168.13 92.21q-1.43 1.33.02 2.55.12.1.25.1.21.02.32-.09.25-.24-.04-.43-.16-.11-.35-.17-.39-.1-.36-.51.06-.86 1.18-1.2" vector-effect="non-scaling-stroke"/><path stroke="#336b0b" d="m169.15 92.46 1.69.07" vector-effect="non-scaling-stroke"/><path stroke="#457c1c" d="M170.84 92.53q.22.44.66.46.34.02.53-.26" vector-effect="non-scaling-stroke"/><path stroke="#336b0b" d="m172.03 92.73.61-1.07q.27-.47.79-.31l5.09 1.55" vector-effect="non-scaling-stroke"/><path stroke="#74a649" d="M178.52 92.9q-.33.27-.36.63a.27.27 0 0 0 .4.26q.25-.13.23-.34" vector-effect="non-scaling-stroke"/><path stroke="#336b0b" d="M178.79 93.45q1.31-1.17 1.34-2.12" vector-effect="non-scaling-stroke"/><path stroke="#74a649" d="M180.13 91.33q.38-1.07.1-1.81" vector-effect="non-scaling-stroke"/><path stroke="#336b0b" d="m180.23 89.52-.8-2.09" vector-effect="non-scaling-stroke"/><path stroke="#74a649" d="M179.43 87.43q.2-.27-.25-.6" vector-effect="non-scaling-stroke"/><path stroke="#336b0b" d="m179.18 86.83 1.48-1.98" vector-effect="non-scaling-stroke"/><path stroke="#74a649" d="m180.66 84.85.3-.22" vector-effect="non-scaling-stroke"/><path stroke="#336b0b" d="M180.96 84.63q2.07 0 1.84-1.35-.18-.98-1.15-2-.2-.2-.36.03-.08.13-.05.25.21.92-.32.14-1.5-2.22-1.92-5.06" vector-effect="non-scaling-stroke"/><path stroke="#6fa244" d="M255.24 117.8q-.42.54.19 1.12.22.21.33-.07.06-.13-.02-.37" vector-effect="non-scaling-stroke"/><path stroke="#3c7414" d="M254.98 125.47q-.48-.21-1.19-.09" vector-effect="non-scaling-stroke"/><path stroke="#6fa244" d="M220.01 141.54q2.21 1.9.23-1.71M218.72 137.03q.1-1.02-.92-.97" vector-effect="non-scaling-stroke"/><path stroke="#609535" d="M216.96 134.79q.56.17.95.07a.33.33 0 0 0 .11-.59q-.38-.25-1.06-.14" vector-effect="non-scaling-stroke"/><path stroke="#6fa244" d="M224.01 127.96q.43 1.04 1.09 1.65.43.41.37-.18-.17-1.65-1.82-2.61" vector-effect="non-scaling-stroke"/><path stroke="#609535" d="M231.95 126.23q-.12.6.61.65a.4.39-16.3 0 0 .35-.63q-.23-.3-.96-.02M233.24 123.98q.68.85 1.02.52" vector-effect="non-scaling-stroke"/><path stroke="#6fa244" d="M241.06 119.08q.4.03.63-.05.59-.19.13-.59-1.23-1.07-.1-2.12.24-.23 0-.45-.11-.09-.26-.11M189.72 136.56q-2.16-1.58-3.6-.86" vector-effect="non-scaling-stroke"/><path stroke="#609535" d="M243.45 113.61q-.55 2.46-1.58 1.1" vector-effect="non-scaling-stroke"/><path stroke="#78aa4c" d="M180.96 84.63q.48-.43 1.19-.72.52-.2.28-.71-.05-.12-.15-.21-.42-.38-.86-.02-1.93 1.63-.76 1.88M179.18 86.83q-.37-.47-.69-.59-.93-.36-.27.5.35.45 1.21.69M180.23 89.52q-.15-.17-.29-.24-.43-.23-.41.26.05.97.6 1.79M178.79 93.45q.12-.41-.27-.55" vector-effect="non-scaling-stroke"/><path stroke="#498020" d="M172.03 92.73q.17-.53-.3-.69-.64-.21-.89.49M169.15 92.46q-.89-.87-.09-2.14.05-.07-.03-.1l-.24-.09a.26.25 20.9 0 0-.33.14q-.37.94-.33 1.94" vector-effect="non-scaling-stroke"/><path stroke="#2f6686" d="M165 88.04q.64-2.68 1.43-4.98a2.51 2.51 0 0 0-1.79-3.26q-.41-.1-.62-.97" vector-effect="non-scaling-stroke"/><path stroke="#498020" d="M168.6 78.08q.2 1.36.7 2.45.52 1.18.48 1.86-.07.99-.47 1.96-.2.46.28.63l2.38.8" vector-effect="non-scaling-stroke"/><path stroke="#78aa4c" d="M171.97 85.78q.39.22.74-.07.21-.18.08-.41" vector-effect="non-scaling-stroke"/><path stroke="#498020" d="M172.79 85.3q.77-.29 1.44.21" vector-effect="non-scaling-stroke"/><path stroke="#6a9d3e" d="M174.23 85.51q.09.12.32.2" vector-effect="non-scaling-stroke"/><path stroke="#498020" d="M174.55 85.71q.54-.2 1.14-.71" vector-effect="non-scaling-stroke"/><path stroke="#73654e" d="M175.69 85q.57-.39.37-1.11-.08-.29-.44-.37" vector-effect="non-scaling-stroke"/><path stroke="#498020" d="M175.62 83.52q-.89-1.12-.81-2.3.03-.52.53-.67.73-.21 1.33-.75.35-.31-.08-.51-.27-.12-.44.06-.38.4-.85.1l-3.05-1.97" vector-effect="non-scaling-stroke"/><path stroke="#609535" d="M191.75 139.17q-1.51.37.77 1.32.8.34 1.02-.82" vector-effect="non-scaling-stroke"/><path stroke="#847660" d="M175.62 83.52q-.68.48-.52 1.2.05.24.29.29.14.02.3-.01" vector-effect="non-scaling-stroke"/><path stroke="#7cad50" d="M174.55 85.71q.14-.1.18-.22.08-.2-.11-.3-.3-.15-.39.32" vector-effect="non-scaling-stroke"/><path stroke="#89ba5e" d="M172.79 85.3q-.37-.34-.77-.01-.24.19-.05.49" vector-effect="non-scaling-stroke"/><path stroke="#578c2c" d="M189.12 77.96q-.05.4.18.68a.29.29 0 0 0 .47-.03q.25-.39.04-.78a.37.37 0 0 0-.69.13M194.16 79.38q.95.95 2.38.37.56-.23-.01-.42-.99-.32-2.37.05" vector-effect="non-scaling-stroke"/><path stroke="#336b0b" d="M194.16 79.38q.35-1.34-.65-1.6-.5-.12-.51.39-.01.36-.07.71-.09.53-.03-.01.01-.13-.04-.24-.26-.67-.57-.02-.28.59.03 1.09t.75.12q.53-.45 1.09-.44" vector-effect="non-scaling-stroke"/><path stroke="#578c2c" d="M203.76 78.68q.21.12.22-.13.03-.58-.54-.43a.27.26 82.1 0 0-.2.27q.01.35.36.26.08-.02.16.03" vector-effect="non-scaling-stroke"/><path stroke="#74a649" d="M207.032 80.98a1.3.35 133.7 0 0 1.151-.698 1.3.35 133.7 0 0 .645-1.182 1.3.35 133.7 0 0-1.151.698 1.3.35 133.7 0 0-.645 1.182" vector-effect="non-scaling-stroke"/><path stroke="#578c2c" d="M186.64 80.48a.31.31 0 0 0-.31-.31.31.31 0 0 0-.31.31.31.31 0 0 0 .31.31.31.31 0 0 0 .31-.31" vector-effect="non-scaling-stroke"/><path stroke="#74a649" d="M201.21 81.1q-.33.04-.44.37-.16.5.35.38 1.1-.28 1.63-1.13.15-.25.02-.48-.29-.5-.57.01l-.16.29q-.27.49-.83.56" vector-effect="non-scaling-stroke"/><path stroke="#66993b" d="M190.22 81.82q.43.3.44-.23.01-.45-.39-.27a.29.29 0 0 0-.05.5" vector-effect="non-scaling-stroke"/><path stroke="#74a649" d="M213.52 81.74q.56-.87-.3-.29-.59.4-1.13.91-.2.19-.16.47.03.17.18.27.4.23.65-.16l.76-1.2" vector-effect="non-scaling-stroke"/><path stroke="#6f614b" d="M196.944 83.11a.61.39 128 0 0 .683-.24.61.39 128 0 0 .069-.72.61.39 128 0 0-.683.24.61.39 128 0 0-.069.72" vector-effect="non-scaling-stroke"/><path stroke="#578c2c" d="M204.33 82.26q.17.17.41.1.33-.1.12-.36-.14-.18-.38-.15a.25.24-25.3 0 0-.15.41" vector-effect="non-scaling-stroke"/><path stroke="#66993b" d="M187.4 82.65q.06-.14-.02-.27-.22-.32-.2.07.01.09.03.19.07.31.19.01" vector-effect="non-scaling-stroke"/><path stroke="#74a649" d="M207.9 84.104a.63.33 56.3 0 0-.076-.707.63.33 56.3 0 0-.624-.341.63.33 56.3 0 0 .076.707.63.33 56.3 0 0 .624.341" vector-effect="non-scaling-stroke"/><path stroke="#2b6283" d="m226.45 84.33-1.84-.95q-.83-.42-.3.35.76 1.1 2.05 1.04.89-.03.09-.44" vector-effect="non-scaling-stroke"/><path stroke="#578c2c" d="M191.39 84.13q.35.13.35-.25-.01-.31-.32-.39-.15-.03-.23.1-.23.39.2.54" vector-effect="non-scaling-stroke"/><path stroke="#74a649" d="M193.89 83.94q.05-.13-.03-.25-.36-.49-.34.12.02 1.05.49 1.87a.35.34 24.2 0 0 .64-.24q-.15-.69-.71-1.27a.22.21 33.2 0 1-.05-.23M189.03 84.98q-.07.3.09.54a.43.43 0 0 0 .77-.09q.23-.63.12-1.23a.35.35 0 0 0-.65-.11q-.22.41-.33.89M209.05 84.44q.22.58.66 1.04.53.54.4-.2-.13-.68-.69-1.11-.66-.5-.37.27M200.24 85.87a.25.25 0 0 0 .32-.26q-.03-.22-.2-.38a.26.26 0 0 0-.43.11q-.13.39.31.53M205.6 85.33a.41.4 44.4 0 0 .01.48q.22.29.57.1.53-.29.08-.69-.36-.32-.66.11" vector-effect="non-scaling-stroke"/><path stroke="#578c2c" d="M220.14 87.3q.69.02.39-.6-.32-.68-1.33-.6-.86.08-.26.69.48.49 1.2.51M200.09 87.88q.27-.01.42-.24.2-.3-.05-.55-.26-.27-.51.01-.15.17-.19.39-.08.4.33.39" vector-effect="non-scaling-stroke"/><path stroke="#74a649" d="M204.885 88.305a.77.31 124.4 0 0 .69-.46.77.31 124.4 0 0 .18-.81.77.31 124.4 0 0-.69.46.77.31 124.4 0 0-.18.81M186.894 88.869a.49.43 77.8 0 0 .316-.57.49.43 77.8 0 0-.524-.388.49.43 77.8 0 0-.316.57.49.43 77.8 0 0 .523.388" vector-effect="non-scaling-stroke"/><path stroke="#457c1c" d="M196.41 88.89q.59-.14.37-.69a.35.35 0 0 0-.65-.02q-.11.26-.02.54a.26.25-14.9 0 0 .3.17" vector-effect="non-scaling-stroke"/><path stroke="#74a649" d="M218.36 89.08q.59-.22.7-.8.1-.56-.36-.23-1.14.8-1.51 2.36-.1.41.17.09.28-.35.42-.79a.99.97 88.3 0 1 .58-.63M208.65 89.9q-.3.22-.39.56-.15.54.36.32 1.3-.55 1.21-1.95-.05-.76-.53-.17-.21.27-.27.62a1.03 1.01-14.1 0 1-.38.62M211.17 88.39q-.13.69.2 1.28.27.49.37-.06.15-.79-.33-1.29-.19-.2-.24.07M190.61 90.72q.48-.2.8-.58.62-.74-.3-.46-.61.18-.8.77-.14.45.3.27M199.67 91.06q.11-.67-.24-1.34-.25-.47-.4.04-.21.72.21 1.38.33.53.43-.08" vector-effect="non-scaling-stroke"/><path stroke="#66993b" d="M197.477 91.55a1.18.27 43.4 0 0-.672-1.006 1.18.27 43.4 0 0-1.042-.615 1.18.27 43.4 0 0 .672 1.007 1.18.27 43.4 0 0 1.042.615" vector-effect="non-scaling-stroke"/><path stroke="#457c1c" d="M235 91.76q-.7.67-.6 1.49.04.42.38.5.53.12.45-.41l-.23-1.58" vector-effect="non-scaling-stroke"/><path stroke="#66993b" d="M235 91.76q1.1.01 1.13-1.01.01-.56-.39-.77-.56-.28-.61.34l-.13 1.44M183.36 90.78q-.08.27.09.49a.3.29-53.3 0 0 .51-.08q.11-.3-.11-.53a.3.29 30.9 0 0-.49.12M206.26 91.58a.22.22 0 0 0 .31-.16q.08-.52-.42-.63-.36-.08-.72.01-.59.15-.03.39l.86.39M212.68 91.62q.33.3.8.32.45.03.21-.35-.28-.44-.79-.49-.93-.1-.22.52M195.28 93.08q-.11-.82-.72-1.41-.73-.7-.31.22.29.63.57 1.31.71 1.71.46-.12" vector-effect="non-scaling-stroke"/><path stroke="#74a649" d="M202.24 92q-.3-.26-.64-.15-.46.15-.11.47.82.76 1.9.53.58-.12.12-.5-.32-.26-.78-.2a.65.64-27.3 0 1-.49-.15M210.57 91.91q-.26-.19-.33.13-.06.3.15.47.2.14.33-.06.19-.29-.15-.54" vector-effect="non-scaling-stroke"/><path stroke="#578c2c" d="M215.4 92.81q-.04.11.04.18.17.16.08-.05-.02-.05-.02-.11.03-.46-.1-.02M229.841 94.712a1.15.53 41.5 0 0-.51-1.159 1.15.53 41.5 0 0-1.212-.365 1.15.53 41.5 0 0 .51 1.159 1.15.53 41.5 0 0 1.212.365" vector-effect="non-scaling-stroke"/><path stroke="#6f614b" d="M223.06 95.28a1 .53 108.1 0 0 .814-.785 1 .53 108.1 0 0-.193-1.116 1 .53 108.1 0 0-.815.786 1 .53 108.1 0 0 .193 1.115" vector-effect="non-scaling-stroke"/><path stroke="#578c2c" d="M185.74 95q-.59-.1-.53.25a.33.32-15.4 0 0 .43.24q.25-.1.1-.49" vector-effect="non-scaling-stroke"/><path stroke="#66993b" d="M185.74 95q.18.15.76-.48a.32.32 0 0 0-.24-.53q-.52.02-.52 1.01M212.16 94.36q.01.43.42.58a.27.27 0 0 0 .33-.37l-.18-.36a.3.3 0 0 0-.57.15M204.69 94.96q.25-.33-.01-.55-.09-.09-.21-.04-.33.15-.16.54.15.36.38.05" vector-effect="non-scaling-stroke"/><path stroke="#74a649" d="M181.56 95.91q-.03-.39-.24-.73-.5-.85-.44.14.03.49.43.75.28.17.25-.16" vector-effect="non-scaling-stroke"/><path stroke="#578c2c" d="M226.98 96.19q.16.21.12.44a.37.37 0 0 0 .39.44l.43-.03q.11-.01.11-.11.11-2.43-2.29-1.91-.08.02-.13.09-.54.85-.31 1.52.27.78.64.04l.2-.4q.35-.71.84-.08" vector-effect="non-scaling-stroke"/><path stroke="#74a649" d="M215.885 98.11a1.55.57 62.1 0 0-.221-1.637 1.55.57 62.1 0 0-1.23-1.103 1.55.57 62.1 0 0 .222 1.637 1.55.57 62.1 0 0 1.23 1.103M173.26 96.12q-.31.59.01 1.06a.33.33 0 0 0 .59-.09q.17-.58-.14-1a.28.27-48.5 0 0-.46.03M178.74 96.53q.23.13.47.17.98.17.17-.42-.24-.17-.53-.18-.94-.03-.11.43M189.13 96.78q-.18-.28-.46-.43-.68-.37-.37.34.14.32.44.49 1.01.6.39-.4" vector-effect="non-scaling-stroke"/><path stroke="#66993b" d="M210.43 97.09q.11.18.23.01.14-.18.03-.36-.36-.61-.37-.12-.01.25.11.47" vector-effect="non-scaling-stroke"/><path stroke="#578c2c" d="M207.94 96.83q-.31.15-.4.48a.26.26 0 0 0 .42.27q.28-.22.29-.56a.21.21 0 0 0-.31-.19" vector-effect="non-scaling-stroke"/><path stroke="#66993b" d="M222.37 97.17q-.01.27.29.36.3.1.25-.21-.06-.41-.42-.32-.12.04-.12.17M229.498 98.832a.84.47 81.9 0 0 .347-.898.84.47 81.9 0 0-.583-.766.84.47 81.9 0 0-.347.898.84.47 81.9 0 0 .583.766M166.2 98.29q-.07-.48-.55-.51-.74-.04-1.06.52-.24.44.03.91.43.73 1.2.99.67.22.57-.47l-.19-1.44" vector-effect="non-scaling-stroke"/><path stroke="#578c2c" d="M227.85 98.55a.45.45 0 0 0-.45-.45.45.45 0 0 0-.45.45.45.45 0 0 0 .45.45.45.45 0 0 0 .45-.45" vector-effect="non-scaling-stroke"/><path stroke="#66993b" d="M199.9 99q-.16-.5-.62-.6a.32.32 0 0 0-.34.48q.3.49.79.4a.21.21 0 0 0 .17-.28M201.87 99.19l-.03-.47q-.03-.75-.66-.34-.17.11-.24.32-.22.7.42 1.06l1.77 1q.25.14.48-.01.21-.13.22-.33.06-.71-.61-.48-.81.29-1.23-.38-.11-.16-.12-.37" vector-effect="non-scaling-stroke"/><path stroke="#74a649" d="M209.11 98.56a.27.26 6.4 0 0 .27.33q.36-.02.48-.35a.29.29 0 0 0-.34-.39q-.33.08-.41.41M213.814 99.917a.87.28 44.2 0 0-.429-.808.87.28 44.2 0 0-.819-.405.87.28 44.2 0 0 .429.807.87.28 44.2 0 0 .819.406" vector-effect="non-scaling-stroke"/><path stroke="#66993b" d="M197.94 102.06q-.2.29-.01.54.28.37.73.27 1.31-.27 2.62-.07.29.05.28-.24l-.01-.3a.29.29 0 0 0-.32-.28q-3.46.37-3.57-3.2a.1.09 82 0 0-.11-.09l-.26.06q-.23.04-.21.27.09 1.28.87 2.47a.53.52 46.3 0 1-.01.57M189.96 99.64q-.25-.22-.45 0a.4.4 0 0 0 .18.66q1.62.44 2.8-.25.23-.14.24-.4.02-.23-.2-.34-.32-.15-.65-.01l-1.08.46q-.46.2-.84-.12" vector-effect="non-scaling-stroke"/><path stroke="#74a649" d="M208.26 99.63q.08.69.6 1.27.53.6.47-.2-.08-.9-.7-1.3-.44-.28-.37.23M220.913 100.794a1.01.42 129.1 0 0 .963-.52 1.01.42 129.1 0 0 .311-1.048 1.01.42 129.1 0 0-.963.52 1.01.42 129.1 0 0-.311 1.048" vector-effect="non-scaling-stroke"/><path stroke="#578c2c" d="M225.58 99.34q-.16-.26-.46-.2-.13.03-.23.15a.3.3 0 0 0 .13.46q1.03.36.56-.41" vector-effect="non-scaling-stroke"/><path stroke="#66993b" d="M235.92 101.3q-1.37 1.05-.16 2.49.54.64.81-.16.07-.19.05-.39-.07-.59.26-1.08l.79-1.15q.32-.48-.08-.89-.41-.41-.99-.53-.35-.07-.24.26.05.16.06.32a1.32 1.31 69 0 1-.5 1.13M173.01 101.42a.12.12 0 0 0 .21.09q.49-.54.16-1.32-.11-.25-.33-.37-.47-.24-.26.24.28.67.22 1.36" vector-effect="non-scaling-stroke"/><path stroke="#578c2c" d="M230.17 102.16q.61.24 1.07-.22.6-.61 1.36-.97a.53.53 0 0 0 .05-.93l-.29-.18q-.56-.33-.56.32 0 .82-.85 1.32-.32.18-.58-.08l-.25-.26q-.33-.34-.79-.22-2.83.72-3.13 3.33-.16 1.37.36.1 1.26-3.12 3.61-2.21M182.32 100.49q-.11.27.15.16.08-.03.12-.11.14-.24-.13-.17-.1.03-.14.12" vector-effect="non-scaling-stroke"/><path stroke="#74a649" d="M211.56 100.67q.06-.09.03-.19-.07-.25-.2-.04-.08.12 0 .23.09.14.17 0" vector-effect="non-scaling-stroke"/><path stroke="#66993b" d="M216.647 101.568a.93.27 44.2 0 0-.479-.842.93.27 44.2 0 0-.855-.454.93.27 44.2 0 0 .479.842.93.27 44.2 0 0 .855.454M246.433 102.306a1.06.34 70 0 0-.043-1.112 1.06.34 70 0 0-.682-.88 1.06.34 70 0 0 .042 1.112 1.06.34 70 0 0 .683.88M180.14 101.19q.19.21.45.11-.22-.05-.45-.11M190 101.56l-.23-.32a.34.34 0 0 0-.57.36q.51.89 2.04 1.63.87.42.3-.36-.42-.58-1.13-.95a1.32 1.18 83.1 0 1-.41-.36" vector-effect="non-scaling-stroke"/><path stroke="#578c2c" d="M167.6 103.54a.13.13 0 0 0 .01-.19l-1.98-2.16q-.17-.18-.35-.01l-.21.2q-.09.08-.01.16l1.95 2.16q.19.2.39.02l.2-.18M168.36 102.21q.3 1.19.8 1.4 1.28.51.57-.67-.65-1.06-1.37-.73" vector-effect="non-scaling-stroke"/><path stroke="#578c2c" d="M168.36 102.21q-.11-.83-.89-1.02a.26.26 0 0 0-.29.39q.38.63 1.18.63" vector-effect="non-scaling-stroke"/><path stroke="#74a649" d="M210.18 101.57q-.07.32.17.5a.32.32 0 0 0 .51-.18q.06-.25-.09-.44a.34.33 33.1 0 0-.59.12" vector-effect="non-scaling-stroke"/><path stroke="#578c2c" d="M177.2 102.92q-.11-.42-.09-.82.06-.87-.34-.1-.45.9.47 1.36.19.1.12-.11-.02-.08-.08-.15-.06-.08-.08-.18" vector-effect="non-scaling-stroke"/><path stroke="#66993b" d="M187.86 104.574a1.68.27 63.5 0 0-.508-1.624 1.68.27 63.5 0 0-.992-1.383 1.68.27 63.5 0 0 .508 1.624 1.68.27 63.5 0 0 .992 1.382" vector-effect="non-scaling-stroke"/><path stroke="#74a649" d="M208.82 102.56q.08-.18-.04-.37-.15-.23-.29 0-.16.26.04.43a.19.18 32.5 0 0 .29-.06" vector-effect="non-scaling-stroke"/><path stroke="#457c1c" d="M219.67 102.5q.2-.04.16-.24a.07.06-35 0 0-.12-.02l-.17.29q.06-.02.13-.03M171.97 102.58q-.02-.05-.05-.1-.08-.13-.19-.03-.26.23.01.57.29.36.49-.06.14-.28-.1-.28-.12.01-.16-.1" vector-effect="non-scaling-stroke"/><path stroke="#578c2c" d="M212.67 102.67q.04-.21-.17-.25-.19-.03-.11.14.04.1.13.16.12.09.15-.05" vector-effect="non-scaling-stroke"/><path stroke="#66993b" d="M196.601 104.639a.91.31 54.3 0 0-.28-.92.91.31 54.3 0 0-.782-.558.91.31 54.3 0 0 .28.92.91.31 54.3 0 0 .782.558" vector-effect="non-scaling-stroke"/><path stroke="#457c1c" d="M249.25 103.32q.21.58.83.77.49.14.35-.34-.2-.72-.9-.79a.27.27 0 0 0-.28.36" vector-effect="non-scaling-stroke"/><path stroke="#66993b" d="M221.62 103.51q-.37.48-.03 1.04a.56.56 0 0 0 .99-.07q.23-.54-.23-1.01a.49.49 0 0 0-.73.04" vector-effect="non-scaling-stroke"/><path stroke="#578c2c" d="M224.36 104.1q.3.48.33-.01 0-.07-.06-.11-.11-.06-.25.04a.07.07 0 0 0-.02.08M240.29 106.23l.47 1.86q.21.84.7.12.33-.49.03-1.02-.87-1.49-1.72-2.95-.3-.52-.88-.43t-.24.57q.5.71 1.22 1.23a1.11 1.08-80.1 0 1 .42.62" vector-effect="non-scaling-stroke"/><path stroke="#66993b" d="M199.27 106.79q.3.39.66.71.09.08.22.11.21.04.38-.17a.32.32 0 0 0 0-.38q-.33-.41-1.26-.27" vector-effect="non-scaling-stroke"/><path stroke="#74a649" d="M199.27 106.79q-.69-.86-.3-1.48.27-.43.73-.21.19.09.31.27a.61.6 52.3 0 0 .92.12q.33-.3.48-.7.31-.83-.56-.71-1.21.17-2.39 1.1a.77.77 0 0 0-.24.85q.19.56 1.05.76M215.09 105.09a.28.28 0 0 0 .11-.47q-.54-.5-1.38-.09-.57.27.02.52.55.24 1.25.04" vector-effect="non-scaling-stroke"/><path stroke="#578c2c" d="M231.528 105.785a.94.32 50.5 0 0-.351-.928.94.32 50.5 0 0-.845-.522.94.32 50.5 0 0 .351.928.94.32 50.5 0 0 .845.522" vector-effect="non-scaling-stroke"/><path stroke="#74a649" d="M193.15 104.9q-.39.16-.23.64a.4.4 0 0 0 .76-.01q.07-.2 0-.4a.4.4 0 0 0-.53-.23M211.7 105.07q-.34.23-.43.69-.08.4.28.2.44-.25.43-.74a.18.18 0 0 0-.28-.15" vector-effect="non-scaling-stroke"/><path stroke="#578c2c" d="M251.548 106.052a.75.45 37.1 0 0-.327-.81.75.45 37.1 0 0-.87-.094.75.45 37.1 0 0 .328.81.75.45 37.1 0 0 .87.094" vector-effect="non-scaling-stroke"/><path stroke="#66993b" d="M203.16 105.42q-.09.43.32.64.38.19.35-.23-.04-.51-.48-.55-.16-.02-.19.14" vector-effect="non-scaling-stroke"/><path stroke="#578c2c" d="M169.02 105.43q-.41.07-.14.39.57.68.58 1.68.03 2.26.92.18.49-1.15-.56-2.3-.08-.08-.19-.06l-.61.11M167.36 107.16l.28-.31a.51.5-52.3 0 0-.09-.76q-.78-.52-.68.68a1.77 1.77 0 0 1-.2 1q-.6 1.15.47 1.38.71.15.55-.56-.08-.36-.33-.64-.36-.39 0-.79M238.89 107.25q.11-.66-.29-1.16a.38.37 31.7 0 0-.66.15q-.18.84.51 1.23a.3.3 0 0 0 .44-.22" vector-effect="non-scaling-stroke"/><path stroke="#74a649" d="M190.144 107.471a.86.45 42.5 0 0-.33-.913.86.45 42.5 0 0-.938-.249.86.45 42.5 0 0 .33.913.86.45 42.5 0 0 .938.249" vector-effect="non-scaling-stroke"/><path stroke="#578c2c" d="M229.73 106.83q.2.03.08-.13-.11-.15-.26-.23-.41-.23-.14.15.12.17.32.21M234.15 106.74q.05.63.53.62a.39.38 67.9 0 0 .27-.65q-.26-.28-.47-.3-.36-.03-.33.33M204.74 107.35q.19-.15.36-.34.61-.7-.21-.24-.27.16-.35.45-.1.36.2.13M244.26 108.19q-1.13 1.73 2.74 4" vector-effect="non-scaling-stroke"/><path stroke="#336b0b" d="M247 112.19q.29.95 1.15 2.05.33.41.5-.09.61-1.74-.02-3.41" vector-effect="non-scaling-stroke"/><path stroke="#66993b" d="M248.63 110.74q.78-4.23-2.29-3.61" vector-effect="non-scaling-stroke"/><path stroke="#336b0b" d="M246.34 107.13q-.27-.82-2.08 1.06" vector-effect="non-scaling-stroke"/><path stroke="#6a9d3e" d="M246.34 107.13q1.54 1.29 2.29 3.61" vector-effect="non-scaling-stroke"/><path stroke="#5b9030" d="m247 112.19-2.74-4" vector-effect="non-scaling-stroke"/><path stroke="#578c2c" d="M236.07 107.76q-.01.31.24.53.37.35.48-.15.24-1.13-.89-1.54a.32.31-74.8 0 0-.42.25q-.06.37.32.52.27.11.27.39" vector-effect="non-scaling-stroke"/><path stroke="#457c1c" d="M185.51 108.47q-.22.94.67 1.99" vector-effect="non-scaling-stroke"/><path stroke="#66993b" d="M186.18 110.46q2.37 1.99 1.73.31" vector-effect="non-scaling-stroke"/><path stroke="#457c1c" d="M187.91 110.77q1.03-1.32.13-2.6a.53.53 0 0 0-.91.09l-.4.88q-.21.47-.56.08l-.66-.75" vector-effect="non-scaling-stroke"/><path stroke="#66993b" d="M185.51 108.47q.32-.63.21-.9a.42.42 0 0 0-.73-.11q-.21.27-.07.75.12.38.59.26" vector-effect="non-scaling-stroke"/><path stroke="#7cad50" d="M187.91 110.77q-1.58-1.3-1.73-.31" vector-effect="non-scaling-stroke"/><path stroke="#74a649" d="M194.36 107.62q.09.02.14-.05.12-.18-.09-.21-.1-.01-.14.07-.08.16.09.19" vector-effect="non-scaling-stroke"/><path stroke="#66993b" d="M254.36 108.5q-.24.1-.36-.04-.64-.75-.83.2-.07.34.01.72.09.44.53.32 1.52-.43 2.25-1.66.4-.67-.38-.76-.71-.08-.71.47-.01.54-.51.75" vector-effect="non-scaling-stroke"/><path stroke="#74a649" d="M192.88 109.04q-.35.35.12.61.33.18.44-.18.08-.22-.05-.39-.23-.32-.51-.04M196.14 109.69q-.07-.22-.24-.39-.52-.53-.49.21.01.3.24.51.87.78.49-.33" vector-effect="non-scaling-stroke"/><path stroke="#66993b" d="M225.61 110.594a1.29.44 31.5 0 0-.87-1.05 1.29.44 31.5 0 0-1.33-.298 1.29.44 31.5 0 0 .87 1.05 1.29.44 31.5 0 0 1.33.298M183.49 109.84q-.12.28-.04.57a.24.24 0 0 0 .47-.01q.09-.37-.17-.61-.17-.16-.26.05" vector-effect="non-scaling-stroke"/><path stroke="#578c2c" d="M220.02 114.52q.06.42.47.53.78.23.49-.54-.19-.51-.6-.87a.76.76 0 0 1-.2-.84q.42-1.11 1.44-1.89.19-.15.24-.38.04-.18-.03-.36-.31-.78-.83-.12l-2.44 3.13q-.39.5.22.67.18.05.37.02.76-.12.87.65" vector-effect="non-scaling-stroke"/><path stroke="#66993b" d="M169.643 112.588a1.12.47 86.8 0 0 .406-1.144 1.12.47 86.8 0 0-.531-1.092 1.12.47 86.8 0 0-.407 1.144 1.12.47 86.8 0 0 .532 1.092M172.09 110.75a.51.51 0 0 0-.51-.51.51.51 0 0 0-.51.51.51.51 0 0 0 .51.51.51.51 0 0 0 .51-.51" vector-effect="non-scaling-stroke"/><path stroke="#578c2c" d="M257.96 110.82q.16.28.54.34a.42.41 86.3 0 0 .46-.53q-.15-.49-.76-.36a.37.37 0 0 0-.24.55" vector-effect="non-scaling-stroke"/><path stroke="#66993b" d="M191.27 111.36h.1q.19-.01.12-.18-.1-.27-.38-.31a.28.28 0 0 0-.26.44q.13.19.33.08.04-.02.09-.03" vector-effect="non-scaling-stroke"/><path stroke="#74a649" d="M195.81 111.9q-.51.23-.46.75.05.53.37.1l.91-1.23q.3-.4-.2-.39-.38 0-.38.39a.4.4 0 0 1-.24.38" vector-effect="non-scaling-stroke"/><path stroke="#578c2c" d="M221.67 111.86q-.18.05-.3.18-.32.36.12.56l1.59.72q1.01.46.45-.5l-.9-1.54q-.17-.31-.48-.14-.16.08-.15.26.03.37-.33.46M224.95 111.75q0-.77-.53-.43a.3.3 0 0 0-.09.41q.23.36.49.23a.23.22 78.2 0 0 .13-.21M236.78 112.91q.08-.59-.08-1.12-.19-.63-.81-.41-.35.13-.54.4-.28.4.08.73l.7.63q.54.49.65-.23" vector-effect="non-scaling-stroke"/><path stroke="#74a649" d="M194.21 112.14q.17-.07.26-.22.49-.83-.27-.24-1 .79-.55 2.04.2.56.76.36.15-.05.24-.17.31-.45-.19-.66-.27-.12-.44-.34-.39-.51.19-.77" vector-effect="non-scaling-stroke"/><path stroke="#66993b" d="M218.142 111.537a1.87.47-33.9 0 0-1.814.653 1.87.47-33.9 0 0-1.29 1.433 1.87.47-33.9 0 0 1.814-.653 1.87.47-33.9 0 0 1.29-1.433M256.05 112.64q.06-.37.29-.7.48-.66-.32-.52-.65.11-.76.94a.93.92-62.2 0 0 .23.75q.67.74 1.05.34.2-.22-.01-.42-.19-.18-.44-.3a.09.09 0 0 1-.04-.09" vector-effect="non-scaling-stroke"/><path stroke="#74a649" d="M264.2 111.74q-.36.53-.17 1.1a.21.2-6.2 0 0 .18.14q.75.1.89-.64.08-.4-.21-.68a.46.45-51.4 0 0-.69.08" vector-effect="non-scaling-stroke"/><path stroke="#578c2c" d="M233.69 112.3q.44-.48-.21-.51-.63-.02-1.1.57a.33.33 0 0 0 .33.52q.58-.14.98-.58" vector-effect="non-scaling-stroke"/><path stroke="#66993b" d="M230.964 112.857a1.07.49 15 0 0-.907-.75 1.07.49 15 0 0-1.16.196 1.07.49 15 0 0 .906.75 1.07.49 15 0 0 1.16-.196" vector-effect="non-scaling-stroke"/><path stroke="#74a649" d="M186.56 112.27q-.49.02-.19.48.26.38.45-.03.22-.47-.26-.45" vector-effect="non-scaling-stroke"/><path stroke="#66993b" d="M183.85 113.31q.14.51.64.32a.37.36-41.6 0 0 .04-.67q-.39-.19-.65.17a.26.23 57.7 0 0-.03.18" vector-effect="non-scaling-stroke"/><path stroke="#74a649" d="M191.384 114.492a.75.23 57.4 0 0-.21-.756.75.23 57.4 0 0-.598-.508.75.23 57.4 0 0 .21.756.75.23 57.4 0 0 .598.508M188.53 113.94q.14-.12-.06-.19-.18-.06-.12.12.07.18-.01.36-.1.23.1.08.11-.1.18-.23.02-.05-.01-.1-.02-.02-.07-.01-.09.03-.01-.03" vector-effect="non-scaling-stroke"/><path stroke="#457c1c" d="M197.57 113.67q-.46.49.18.3.12-.03.23-.1a.17.16-52.9 0 0-.04-.3q-.22-.06-.37.1" vector-effect="non-scaling-stroke"/><path stroke="#66993b" d="M206.65 115.01q.51.77.18 1.7-.02.06.06.11l.28.19q.29.2.33-.15l.2-1.75q.06-.53-.42-.77-.77-.38-1.58-.53-.46-.08-.24.34.14.27.43.33.49.11.76.53M274.48 114.23a.43.43 0 0 0-.43-.43.43.43 0 0 0-.43.43.43.43 0 0 0 .43.43.43.43 0 0 0 .43-.43M226.04 114.1q-.62.66-.05 1.25a.5.49-55.8 0 0 .82-.16q.3-.73-.27-1.13a.39.39 0 0 0-.5.04" vector-effect="non-scaling-stroke"/><path stroke="#578c2c" d="M235.97 117.2q.03.43.2.79.35.71.45-.07.37-2.69-1.39-3.31-1.45-.51-.42.63c.52.57 1.11 1.11 1.16 1.96M258.53 114.6q.15.52.48.89.41.48.45-.15.07-.93-.67-1.04a.24.24 0 0 0-.26.3" vector-effect="non-scaling-stroke"/><path stroke="#66993b" d="M279.18 114.81q-.05.4.32.5a.32.32 0 0 0 .33-.52q-.14-.15-.32-.2-.29-.08-.33.22" vector-effect="non-scaling-stroke"/><path stroke="#578c2c" d="M204.12 115.01q0-.05-.03-.09-.31-.41-.31.1-.02 1.49-.31 2.72-.17.68.49.93 1.27.5 2.66.15a.26.26 0 0 0 .13-.42l-.23-.26a.13.12 50.1 0 0-.17-.02q-1.46 1.05-2.29-.29-.43-.7.39-.79l.48-.05q.79-.08.29-.7-.44-.54-.97-1.03-.12-.1-.13-.25" vector-effect="non-scaling-stroke"/><path stroke="#66993b" d="M233.37 116.17q.49-.53.25-1.21-.08-.22-.3-.2l-.48.04q-.35.03-.23.36.36 1-.08 1.96a1.01 1-53.3 0 0 .15 1.09q.15.18.34.29.8.48.37-.36-.29-.57-.31-1.21a1.08 1.07 66 0 1 .29-.76" vector-effect="non-scaling-stroke"/><path stroke="#2b6283" d="M177.55 133.06q-.22.17-.19.48.05.49.43.17c1.65-1.39 1.17-5.53 1.2-7.6.04-3.21-1.68-11.12-6.06-11.03q-1.29.02-.17.65 4.13 2.3 4.94 6.59.76 4.02.21 10.09-.04.4-.36.65" vector-effect="non-scaling-stroke"/><path stroke="#74a649" d="M194.667 116.607a.83.36 55.8 0 0-.17-.89.83.36 55.8 0 0-.764-.483.83.36 55.8 0 0 .17.888.83.36 55.8 0 0 .764.484" vector-effect="non-scaling-stroke"/><path stroke="#578c2c" d="M268.06 116.332a.57.23 61.8 0 0-.067-.61.57.23 61.8 0 0-.472-.394.57.23 61.8 0 0 .066.61.57.23 61.8 0 0 .472.394" vector-effect="non-scaling-stroke"/><path stroke="#2b6283" d="M297.19 121.35q-1.04 1.07-2.06 2.29a.2.2 0 0 0 .13.33l.81.12a.53.52-62.7 0 0 .45-.15q3.35-3.33 2.22-7.93-.4-1.61-.57.04c-.18 1.74.21 4.06-.98 5.3" vector-effect="non-scaling-stroke"/><path stroke="#66993b" d="M230.612 117.598a.94.53 57 0 0-.067-1.077.94.53 57 0 0-.957-.5.94.53 57 0 0 .067 1.078.94.53 57 0 0 .957.5" vector-effect="non-scaling-stroke"/><path stroke="#6f614b" d="M273.43 117.01q.38-.26.37-.71 0-.51-.37-.16-1.24 1.15-1.81 2.33-.38.8.33.28.65-.47 1.04-1.23.16-.31.44-.51" vector-effect="non-scaling-stroke"/><path stroke="#74a649" d="M191.23 116.65q-.29-.05-.59-.11-.78-.15-.18.36.8.7 1.6.21.29-.18.49-.46.43-.59-.23-.28l-.38.18q-.34.16-.71.1" vector-effect="non-scaling-stroke"/><path stroke="#578c2c" d="M217.18 117.76q.61-.43.05-.89-.1-.08-.22-.15-.95-.55-.74.53.28 1.44.97 2.55.12.19.28.04l.2-.18q.02-.02 0-.03-.7-.46-.81-1.26a.64.64 0 0 1 .27-.61" vector-effect="non-scaling-stroke"/><path stroke="#74a649" d="M268.652 117.909a.49.33 73.1 0 0 .174-.565.49.33 73.1 0 0-.458-.373.49.33 73.1 0 0-.174.565.49.33 73.1 0 0 .458.373M189.39 118.9c-.02-.45-.05-.9.21-1.31q.45-.7-.31-.36-.56.26-.63.82-.07.55.34 1.01.42.47.39-.16" vector-effect="non-scaling-stroke"/><path stroke="#6f614b" d="M261.06 117.59q.28.47.83.47.52-.01.23-.44-.33-.5-.84-.46a.28.28 0 0 0-.22.43" vector-effect="non-scaling-stroke"/><path stroke="#74a649" d="M278.765 118.015a1.29.53-8.7 0 0-1.355-.329 1.29.53-8.7 0 0-1.195.72 1.29.53-8.7 0 0 1.355.328 1.29.53-8.7 0 0 1.195-.72" vector-effect="non-scaling-stroke"/><path stroke="#578c2c" d="M201.35 118.62q-.02.34.29.46a.16.16 0 0 0 .22-.11q.07-.32-.19-.51-.3-.21-.32.16" vector-effect="non-scaling-stroke"/><path stroke="#66993b" d="M220.05 119.41q.15.2.39.27.3.09.52-.12.38-.37-.04-.69-.63-.47-1.43-.61-.76-.14-.26.45.26.29.6.5.13.08.22.2M263.96 119.5q-.07-.91-.62-1.25-.43-.27-.27.21.31.97.93 1.82.33.45.12-.07c-.09-.23-.14-.45-.16-.71" vector-effect="non-scaling-stroke"/><path stroke="#578c2c" d="m279.75 120-.3.17a.39.39 0 0 0 .13.72q.22.04.44-.02.3-.08.42-.35.39-.84-.03-1.83-.17-.38-.24.03-.04.22-.01.45.07.55-.41.83" vector-effect="non-scaling-stroke"/><path stroke="#6f614b" d="M226.885 119.794a.74.53 37.8 0 0-.26-.873.74.53 37.8 0 0-.91-.035.74.53 37.8 0 0 .26.873.74.53 37.8 0 0 .91.035" vector-effect="non-scaling-stroke"/><path stroke="#74a649" d="M211.7 119.83q-1 .28-1.52 1.13-.65 1.05.48.55l.91-.39a.95.95 0 0 0 .57-.77q.04-.44-.02-.89-.02-.11-.04-.01-.01.05-.03.1-.12.21-.35.28" vector-effect="non-scaling-stroke"/><path stroke="#285e3a" d="M282.72 120.44a.29.29 0 0 0-.29-.29.29.29 0 0 0-.29.29.29.29 0 0 0 .29.29.29.29 0 0 0 .29-.29" vector-effect="non-scaling-stroke"/><path stroke="#578c2c" d="m203.76 121.08 1.04-.07q.44-.03.18-.39-.56-.79-1.24-.02-.45.51-1.12.6-.73.1-.13.53.2.14.42.03.25-.13.39-.39.15-.27.46-.29" vector-effect="non-scaling-stroke"/><path stroke="#66993b" d="M191.1 121.8q-.35-.34-.5-.84-.12-.39-.28-.02-.12.26.08.39c.62.43.95.96 1.73 1.14q.63.15.13-.26-.13-.1-.29-.08-.5.03-.87-.33M205.8 121.28q-.58.27.02.48.77.26 1.47-.26.56-.42-.14-.47-.69-.05-1.35.25M230.214 122.858a1.02.59 64.2 0 0 .087-1.175 1.02.59 64.2 0 0-.975-.661 1.02.59 64.2 0 0-.087 1.175 1.02.59 64.2 0 0 .975.661M263.481 122.885a1.05.32 115.9 0 0 .747-.805 1.05.32 115.9 0 0 .17-1.084 1.05.32 115.9 0 0-.746.804 1.05.32 115.9 0 0-.17 1.085" vector-effect="non-scaling-stroke"/><path stroke="#578c2c" d="M211.89 121.78q-.11.47.22.82a.29.28 28.8 0 0 .49-.14q.08-.46-.27-.81a.26.26 0 0 0-.44.13" vector-effect="non-scaling-stroke"/><path stroke="#66993b" d="M208.488 124.78a1.4.41 90.5 0 0 .422-1.396 1.4.41 90.5 0 0-.398-1.404 1.4.41 90.5 0 0-.422 1.396 1.4.41 90.5 0 0 .398 1.404" vector-effect="non-scaling-stroke"/><path stroke="#578c2c" d="M203.63 122.58q.2.25.51.22a.25.25 0 0 0 .13-.45q-.26-.2-.56-.06-.23.1-.08.29" vector-effect="non-scaling-stroke"/><path stroke="#74a649" d="m270.4 123.17.76.35q.53.23.27-.29-.28-.56-.96-.67-.93-.15-1.51.63-.47.63.26.35l.95-.37a.3.27 42.1 0 1 .23 0" vector-effect="non-scaling-stroke"/><path stroke="#66993b" d="M202.04 127.83q.7.15 1.26.69.64.62.56-.27l-.05-.58q-.06-.68-.72-.79l-.84-.13" vector-effect="non-scaling-stroke"/><path stroke="#578c2c" d="m202.25 126.75-.69-1.6q-.33-.76.48-.59.48.09.69.53.23.46.66.18.32-.21.31-.58-.02-.63-.65-.68-.86-.08-1.23-.86-.29-.64-.73-.08-.74.96-.65 2.12a1.18 1.15-72.9 0 0 .41.8q1.16.95.36 2.16-.07.11-.03.23.04.13.16.22.17.12.28-.06l.42-.71" vector-effect="non-scaling-stroke"/><path stroke="#8ebd60" d="M202.25 126.75q-.31.06-.4.34-.14.43.19.74" vector-effect="non-scaling-stroke"/><path stroke="#74a649" d="M211.55 124.21q-.46-.75-1.18-1.13a.45.45 0 0 0-.65.46q.2 1.61 1.99 1.51.69-.04.23-.56-.17-.19-.39-.28" vector-effect="non-scaling-stroke"/><path stroke="#578c2c" d="M228.238 124.133a.68.39 46.5 0 0-.185-.761.68.39 46.5 0 0-.751-.225.68.39 46.5 0 0 .185.761.68.39 46.5 0 0 .751.225" vector-effect="non-scaling-stroke"/><path stroke="#74a649" d="M220.38 124.05a.36.35 48 0 0-.03.63q.67.38 1.45.07.66-.26.08-.66-.64-.44-1.5-.04" vector-effect="non-scaling-stroke"/><path stroke="#578c2c" d="M204.65 125.05q.14.66.77.94a.26.26 0 0 0 .35-.33q-.25-.68-.92-.81a.17.17 0 0 0-.2.2" vector-effect="non-scaling-stroke"/><path stroke="#66993b" d="M208.51 126.93q-.55-.53-.45-1.36a.48.47 6.9 0 0-.43-.54q-.73-.07-.67.84a1.37 1.34 22.9 0 0 .34.81q.68.78 1.63.7.36-.03.52-.36.15-.32.02-.65-.1-.25-.11.02-.01.18-.08.37-.25.67-.77.17" vector-effect="non-scaling-stroke"/><path stroke="#74a649" d="M212.21 127.1q.34-.32.52-.75.21-.54-.29-.25-1.19.68-1.14 2 .01.44.32.13.25-.24.3-.61.05-.31.29-.52" vector-effect="non-scaling-stroke"/><path stroke="#66993b" d="M218.57 128.28q.32.53.34-.09.03-.61-.15-1.24-.09-.3-.35-.47-.18-.11-.39-.12-.63-.06-.3.49l.85 1.43" vector-effect="non-scaling-stroke"/><path stroke="#74a649" d="M199.23 127.25a.38.38 0 0 0 .3.58q.34.02.42-.36.08-.32-.24-.42-.3-.1-.48.2" vector-effect="non-scaling-stroke"/><path stroke="#578c2c" d="M204.68 127.35q.04.65.66.85a.32.32 0 0 0 .41-.4q-.13-.41-.44-.73a.37.37 0 0 0-.63.28M198.42 129.32q-.16.42.28.62.39.18.41-.25.01-.31-.26-.5a.28.28 0 0 0-.43.13" vector-effect="non-scaling-stroke"/><path stroke="#66993b" d="m204.84 129.4-.26-.11q-.38-.18-.4.25 0 .19.1.35.2.31.51.11.7-.47 1.47.02.38.25.51-.19l.09-.32q.03-.09-.05-.16-.76-.65-1.41-.04-.25.24-.56.09" vector-effect="non-scaling-stroke"/><path stroke="#578c2c" d="M220.02 129.51q.08.15.23.23a.25.24 10 0 0 .35-.24q-.02-.31-.33-.35a.25.25 0 0 0-.25.36" vector-effect="non-scaling-stroke"/><path stroke="#66993b" d="M202.97 130.146a.97.53-16.4 0 0-1.08-.234.97.53-16.4 0 0-.78.782.97.53-16.4 0 0 1.08.234.97.53-16.4 0 0 .78-.782" vector-effect="non-scaling-stroke"/><path stroke="#578c2c" d="M216.23 131.08a.32.32 0 0 0-.32-.32.32.32 0 0 0-.32.32.32.32 0 0 0 .32.32.32.32 0 0 0 .32-.32M200.31 132.12q.64.45 1.31.8.66.35.21-.24-.71-.92-1.88-1.4-1.09-.45-1.38.8a.14.13 81.4 0 0 .2.15l.31-.17q.64-.37 1.23.06" vector-effect="non-scaling-stroke"/><path stroke="#457c1c" d="M186.68 131.32q-.13.17-.08.37.06.24.24.07.2-.2.05-.43a.13.13 0 0 0-.21-.01" vector-effect="non-scaling-stroke"/><path stroke="#66993b" d="M189.49 131.65q.15 1.38.59 2.01 1.13 1.58.6-.28-.26-.93-.92-1.84-.33-.45-.27.11M206.01 132.11q-.48.11-.58.24-.82 1.09.49.71.85-.25 1.65-.8.15-.1.21-.28.08-.27-.18-.48a.33.32-44.2 0 0-.41 0c-.38.29-.71.5-1.18.61M184.54 132.29q.11-.21-.06-.29-.12-.06-.15.08-.02.14.12.23a.06.06 0 0 0 .09-.02M192.76 132.28q-1.11.21-.01.47l1.52.36q.42.1.58-.31.08-.19.03-.4a.53.52 78.2 0 0-.61-.41l-1.51.29" vector-effect="non-scaling-stroke"/><path stroke="#578c2c" d="M186.68 133.41a.3.3 0 0 0-.3-.3.3.3 0 0 0-.3.3.3.3 0 0 0 .3.3.3.3 0 0 0 .3-.3M203.62 134.14q-.08-.12-.19-.21a.06.06 0 0 0-.09.06q.04.3.16.32.25.04.12-.17" vector-effect="non-scaling-stroke"/><path stroke="#66993b" d="M184.489 134.43a.68.51-3.4 0 0-.71-.47.68.51-3.4 0 0-.648.55.68.51-3.4 0 0 .71.47.68.51-3.4 0 0 .648-.55M201.96 134.43a.42.42 0 0 0-.42-.42.42.42 0 0 0-.42.42.42.42 0 0 0 .42.42.42.42 0 0 0 .42-.42" vector-effect="non-scaling-stroke"/><path stroke="#578c2c" d="M181.94 136.41q-.31-.98-.74-1.96-.06-.13-.19-.17-.15-.04-.29.12-.12.15-.07.33.3 1.13.95 1.87.62.71.34-.19" vector-effect="non-scaling-stroke"/><path stroke="#74a649" d="M194.09 136.35q.23.88.65.07.35-.68.64-1.54a.32.32 0 0 0-.43-.4q-1.22.53-.86 1.87" vector-effect="non-scaling-stroke"/><path stroke="#578c2c" d="M210.22 135.39q-.18.44.12.76a.33.33 0 0 0 .57-.2q.04-.56-.46-.67-.16-.04-.23.11M208.29 136.13q-.3.35-.11.77a.42.42 0 0 0 .78-.03q.14-.38-.08-.7a.37.37 0 0 0-.59-.04" vector-effect="non-scaling-stroke"/><path stroke="#66993b" d="M202.656 137.74a.98.33 47.2 0 0-.424-.944.98.33 47.2 0 0-.908-.495.98.33 47.2 0 0 .424.943.98.33 47.2 0 0 .908.495" vector-effect="non-scaling-stroke"/><path stroke="#6f614b" d="M213.07 138.05q-.42.76.28 1.37a.45.45 0 0 0 .71-.15q.35-.8-.34-1.35a.44.43-56.2 0 0-.65.13" vector-effect="non-scaling-stroke"/><path stroke="#578c2c" d="M195.38 138.67q.16.17.38.16.29-.01.31-.29.02-.32-.44-.37a.3.29-18.7 0 0-.25.5" vector-effect="non-scaling-stroke"/><path stroke="#66993b" d="M197.2 140.61q-.51.01-.75.42-.83 1.47.81 1.09 1.15-.26 2.21-1.14a.6.6 0 0 0 .03-.9l-1.99-1.88a.29.29 0 0 0-.42.02l-.17.21q-.19.22-.02.45l.69.96a.49.49 0 0 1-.39.77" vector-effect="non-scaling-stroke"/><path stroke="#578c2c" d="m207.32 141.82-1.59-1.71q-.11-.12-.26-.06l-.26.09q-.35.13-.11.41.78.93 1.13 2.02.23.72.97.52l.95-.27q.65-.18.24-.72-.18-.24-.51-.13a.53.53 0 0 1-.56-.15M213.67 141.15q-.16-.61-.76-.48a.56.56 0 0 0-.34.88q1.06 1.5 3.12.96.39-.1.3-.5l-.09-.38q-.11-.47-.54-.26l-.59.28a.79.79 0 0 1-1.1-.5" vector-effect="non-scaling-stroke"/><path stroke="#6a9d3e" d="M179.16 78.71q.14-.28.05-.57-.19-.58-.68-.21-.26.2-.3.54-.01.09.03.17.15.28.47.31.3.03.43-.24" vector-effect="non-scaling-stroke"/><path stroke="#5b9030" d="M168.94 85.82q-.77-.31-.45.45.34.83 1.2.93.64.08.31-.48-.35-.62-1.06-.9" vector-effect="non-scaling-stroke"/><path stroke="#73654e" d="M176 87.91q.34.03.59-.14.46-.32-.04-.57-.66-.32-1.31-.09-.65.24-.18.75.39.42.94.05" vector-effect="non-scaling-stroke"/><path stroke="#6a9d3e" d="M173.52 87.51q-.2-.12-.38 0-.16.11.04.12.6.05.34-.12" vector-effect="non-scaling-stroke"/><path stroke="#78aa4c" d="M177.36 90.58q-.22.4.09.71a.19.19 0 0 0 .3-.05q.16-.31 0-.65-.19-.39-.39-.01" vector-effect="non-scaling-stroke"/><path stroke="#847660" d="M172.29 80.57a.68.68 0 0 0-.68-.68.68.68 0 0 0-.68.68.68.68 0 0 0 .68.68.68.68 0 0 0 .68-.68M170.55 84.22a1.23.75 90 0 0 .75-1.23 1.23.75 90 0 0-.75-1.23 1.23.75 90 0 0-.75 1.23 1.23.75 90 0 0 .75 1.23" vector-effect="non-scaling-stroke"/><path stroke="#609535" d="M245.56 118.17q.31-.37.13-.79-.05-.12-.18-.17-.34-.15-.48.21a1.42 1.26-41.6 0 0-.07.58q.09.75-.27 1.59-.16.39.26.45l.25.03q.06.01.09-.05.26-.54.11-1.12a.81.8 57.8 0 1 .16-.73M250.45 119.76q-.42-1.18-1.79-1.1-.82.06-.1.45.73.39 1.24 1.02 1.37 1.67.65-.37" vector-effect="non-scaling-stroke"/><path stroke="#6fa244" d="M259.482 122.047a.84.42 38 0 0-.403-.848.84.42 38 0 0-.92-.186.84.42 38 0 0 .402.848.84.42 38 0 0 .92.186M255.09 122.59q-.32.61-.15 1.23a.37.37 0 0 0 .69.07q.3-.6.16-1.21a.38.37-37.5 0 0-.7-.09" vector-effect="non-scaling-stroke"/><path stroke="#609535" d="M227.87 126.31a.25.24 80.4 0 0-.18.26q.05.43.49.39.47-.05.22-.45-.18-.3-.53-.2" vector-effect="non-scaling-stroke"/><path stroke="#6fa244" d="M247.75 128.2q.55-.61.49-1.38-.06-.73-.59-.23-.7.64-.43 1.5.17.5.53.11M244.26 127.34c-.43.79-1.22.98-1.61 1.96q-.07.17-.02.35.04.14.15.21.46.26.73-.18.63-1.03.92-2.27.16-.69-.17-.07" vector-effect="non-scaling-stroke"/><path stroke="#609535" d="M235.312 133.772a.93.43 112 0 0 .747-.7.93.43 112 0 0-.05-1.024.93.43 112 0 0-.748.7.93.43 112 0 0 .05 1.024" vector-effect="non-scaling-stroke"/><path stroke="#6fa244" d="M221.44 134.41q-.26-.67-.88-1.04-.46-.28-.3.23.24.76.87 1.09.54.28.31-.28M227.79 137.06l.39-.61q.31-.47-.25-.47l-.42.01q-.19 0-.21.18-.22 1.78-.11 3.15.08 1.07.67.17.54-.81-.04-1.56-.32-.43-.03-.87" vector-effect="non-scaling-stroke"/><path stroke="#7caf52" d="M237.382 136.433a.97.54-21.6 0 0-1.1-.145.97.54-21.6 0 0-.704.86.97.54-21.6 0 0 1.1.144.97.54-21.6 0 0 .704-.86" vector-effect="non-scaling-stroke"/><path stroke="#609535" d="M223.96 139.36a.3.3 0 0 0-.07.53q.56.39 1.15.2.68-.22.08-.6-.56-.36-1.16-.13" vector-effect="non-scaling-stroke"/><path stroke="#6fa244" d="M188.89 138.61a.5.5 0 0 0-.5-.5.5.5 0 0 0-.5.5.5.5 0 0 0 .5.5.5.5 0 0 0 .5-.5" vector-effect="non-scaling-stroke"/></g><path fill="#2f6707" d="M234.27 87.5q.3 3.18 1.66 1.2 4.52 3.9 9.09 8.28 2.91 2.79 9.31 6.17c1.85.97 4.75 1.73 6.8 1.8q4.81.16 9.58.67-.7-.1-.73.38-.03.73-.57 1.14a.88.87-15.5 0 0-.35.61q-.02.24.06.47.3.86.66.02.34-.82 1.03-1.38.36-.28.29-.73l-.06-.4q.2.09.48.09-.39 1.01-.42 1.95a.96.96 0 0 0 .28.7l4.13 3.96q.41.4.98.43l3.44.19q.61.04.81.62.76 2.22 1.47 4.48.68 2.21 3.6 3.25 5.87 2.1 8.93-1.54c1.52-1.81 2.1-4.77 2.7-7.02a1.15 1.14-53.5 0 0-.13-.9l-.59-.94q-.28-.45-.1-.94.39-1.1-.32-1.78 2.35 1 5.83 3.09 1.66 1 1.69 2.8.09 6.42-1.31 12.66a1.36 1.36 0 0 1-2.17.77q-6.61-5.21-15.74-3.67-3.53.6-7.84.94-1.29.11-6.66 1.02-3.38.57-6.79.29l-3.69-5.01q-.31-.42-.84-.47-1.04-.09-2.07-.17-.24-.02-.44-.17-.26-.21-.02-.5a.58.56 60 0 0 .12-.49q-.13-.62-.63-.89-.12-.37-.5-.68-2.28-1.45-3.89-1.14-4.37.83-7.9-3.05.04-.23-.27-.37-.2-.09-.4-.02-.68.26-.91 1.49l-.41 1.05q-1.94.54-.4 3.32 1.18 1.09.59 1.96a.79.78-74.7 0 1-.62.36l-3.34.18q-.62.04-.15.44l1.74 1.5q.39.34 0 .68-2.25 1.96-5.02.3l-.79-1.62q-.23-.47.01-.94.25-.52-.12-1-.44-.58-.65.12-.5 1.61.53 2.92-.42 1.37-1.29 2.25-1.43.04-2.82-.19-1.56-.26-2.68-.09-1.33.2-2.62.34a1.13 1.13 0 0 0-.78.46l-.31.45q-.39-.17-.55-.03a.24.23-69.1 0 0 .18.41q.44-.05.37-.38 1.04.21.91-.38-.01.86.36 1.14-1.69 2.74-4.46 4.14-.42.22-.28.67.05.16.22.24.69.29 0 .56-1.21.49-2.53.56-.3.32 0 .66l.84 1.27q-.08.95.92.97 1.21-.17 1.44.83.21.97.08 1.97-.4-.41-.68-.53-.54-.23-.42.34.2.98.87 1.9-.13 1.04.71 1.28 1.6.46 2.02.72-9.39.82-18.78 0-.92-.07-1.84-.29c-2.62-.6-5.2-.42-7.82-1.14q-.77-1.18-.76-2.44-1.71.22-1.79-.5-.98-.33-1.1-1.3-.06-.46-.39-.79l-.54-.52q-1.55-3.05-3.6-.86-1.64 1.18-2.15 3.24l-8.18-5.62c.57-5.12.59-8.22-1.61-11.93-1.73-2.92-4.74-5.34-6.99-7.88q-.46-.51.17-.79.64-.27-.05-.36-.24-.04-.28.2a.33.33 0 0 1-.46.25l-1.22-.53-3.34-15.19q1.43-.59 1.25-2.16-.06-.53.41-.77l.59-.3q.48-.24.5-.77l.24-5.05q1.41.8 1.25 2.01-.07.46.33.72.94.59 1.55 1.44-1.43 1.33.02 2.55.12.1.25.1.21.02.32-.09.25-.24-.04-.43-.16-.11-.35-.17-.39-.1-.36-.51.06-.86 1.18-1.2l1.69.07q.22.44.66.46.34.02.53-.26l.61-1.07q.27-.47.79-.31l5.09 1.55q-.33.27-.36.63a.27.27 0 0 0 .4.26q.25-.13.23-.34 1.31-1.17 1.34-2.12.38-1.07.1-1.81l-.8-2.09q.2-.27-.25-.6l1.48-1.98.3-.22q2.07 0 1.84-1.35-.18-.98-1.15-2-.2-.2-.36.03-.08.13-.05.25.21.92-.32.14-1.5-2.22-1.92-5.06 1.09-.17 2.76-.25 9-.41 18.03-.38 9.58.03 15.51 1.71 10.34 2.94 18.97 9.78m-45.15-9.54q-.05.4.18.68a.29.29 0 0 0 .47-.03q.25-.39.04-.78a.37.37 0 0 0-.69.13m5.04 1.42q.95.95 2.38.37.56-.23-.01-.42-.99-.32-2.37.05.35-1.34-.65-1.6-.5-.12-.51.39-.01.36-.07.71-.09.53-.03-.01.01-.13-.04-.24-.26-.67-.57-.02-.28.59.03 1.09t.75.12q.53-.45 1.09-.44m9.6-.7q.21.12.22-.13.03-.58-.54-.43a.27.26 82.1 0 0-.2.27q.01.35.36.26.08-.02.16.03m3.272 2.3a1.3.35 133.7 0 0 1.151-.698 1.3.35 133.7 0 0 .645-1.182 1.3.35 133.7 0 0-1.151.698 1.3.35 133.7 0 0-.645 1.182m-20.392-.5a.31.31 0 0 0-.31-.31.31.31 0 0 0-.31.31.31.31 0 0 0 .31.31.31.31 0 0 0 .31-.31m14.57.62q-.33.04-.44.37-.16.5.35.38 1.1-.28 1.63-1.13.15-.25.02-.48-.29-.5-.57.01l-.16.29q-.27.49-.83.56m-10.99.72q.43.3.44-.23.01-.45-.39-.27a.29.29 0 0 0-.05.5m23.3-.08q.56-.87-.3-.29-.59.4-1.13.91-.2.19-.16.47.03.17.18.27.4.23.65-.16zm-16.576 1.37a.61.39 128 0 0 .683-.24.61.39 128 0 0 .069-.72.61.39 128 0 0-.683.24.61.39 128 0 0-.069.72m7.386-.85q.17.17.41.1.33-.1.12-.36-.14-.18-.38-.15a.25.24-25.3 0 0-.15.41m-16.93.39q.06-.14-.02-.27-.22-.32-.2.07.01.09.03.19.07.31.19.01m20.5 1.454a.63.33 56.3 0 0-.076-.707.63.33 56.3 0 0-.624-.341.63.33 56.3 0 0 .076.707.63.33 56.3 0 0 .624.341m18.55.226-1.84-.95q-.83-.42-.3.35.76 1.1 2.05 1.04.89-.03.09-.44m-35.06-.2q.35.13.35-.25-.01-.31-.32-.39-.15-.03-.23.1-.23.39.2.54m2.5-.19q.05-.13-.03-.25-.36-.49-.34.12.02 1.05.49 1.87a.35.34 24.2 0 0 .64-.24q-.15-.69-.71-1.27a.22.21 33.2 0 1-.05-.23m-4.86 1.04q-.07.3.09.54a.43.43 0 0 0 .77-.09q.23-.63.12-1.23a.35.35 0 0 0-.65-.11q-.22.41-.33.89m20.02-.54q.22.58.66 1.04.53.54.4-.2-.13-.68-.69-1.11-.66-.5-.37.27m-8.81 1.43a.25.25 0 0 0 .32-.26q-.03-.22-.2-.38a.26.26 0 0 0-.43.11q-.13.39.31.53m5.36-.54a.41.4 44.4 0 0 .01.48q.22.29.57.1.53-.29.08-.69-.36-.32-.66.11m14.54 1.97q.69.02.39-.6-.32-.68-1.33-.6-.86.08-.26.69.48.49 1.2.51m-20.05.58q.27-.01.42-.24.2-.3-.05-.55-.26-.27-.51.01-.15.17-.19.39-.08.4.33.39m4.795.425a.77.31 124.4 0 0 .69-.46.77.31 124.4 0 0 .18-.81.77.31 124.4 0 0-.69.46.77.31 124.4 0 0-.18.81m-17.992.564a.49.43 77.8 0 0 .317-.57.49.43 77.8 0 0-.524-.388.49.43 77.8 0 0-.316.57.49.43 77.8 0 0 .523.388m9.517.021q.59-.14.37-.69a.35.35 0 0 0-.65-.02q-.11.26-.02.54a.26.25-14.9 0 0 .3.17m21.95.19q.59-.22.7-.8.1-.56-.36-.23-1.14.8-1.51 2.36-.1.41.17.09.28-.35.42-.79a.99.97 88.3 0 1 .58-.63m-9.71.82q-.3.22-.39.56-.15.54.36.32 1.3-.55 1.21-1.95-.05-.76-.53-.17-.21.27-.27.62a1.03 1.01-14.1 0 1-.38.62m2.52-1.51q-.13.69.2 1.28.27.49.37-.06.15-.79-.33-1.29-.19-.2-.24.07m-20.56 2.33q.48-.2.8-.58.62-.74-.3-.46-.61.18-.8.77-.14.45.3.27m9.06.34q.11-.67-.24-1.34-.25-.47-.4.04-.21.72.21 1.38.33.53.43-.08m-2.193.49a1.18.27 43.4 0 0-.672-1.006 1.18.27 43.4 0 0-1.042-.615 1.18.27 43.4 0 0 .672 1.007 1.18.27 43.4 0 0 1.042.615m37.523.21q-.7.67-.6 1.49.04.42.38.5.53.12.45-.41zq1.1.01 1.13-1.01.01-.56-.39-.77-.56-.28-.61.34zm-51.64-.98q-.08.27.09.49a.3.29-53.3 0 0 .51-.08q.11-.3-.11-.53a.3.29 30.9 0 0-.49.12m22.9.8a.22.22 0 0 0 .31-.16q.08-.52-.42-.63-.36-.08-.72.01-.59.15-.03.39zm6.42.04q.33.3.8.32.45.03.21-.35-.28-.44-.79-.49-.93-.1-.22.52m-17.4 1.46q-.11-.82-.72-1.41-.73-.7-.31.22.29.63.57 1.31.71 1.71.46-.12m6.96-1.08q-.3-.26-.64-.15-.46.15-.11.47.82.76 1.9.53.58-.12.12-.5-.32-.26-.78-.2a.65.64-27.3 0 1-.49-.15m8.33-.09q-.26-.19-.33.13-.06.3.15.47.2.14.33-.06.19-.29-.15-.54m4.83.9q-.04.11.04.18.17.16.08-.05-.02-.05-.02-.11.03-.46-.1-.02m14.441 1.902a1.15.53 41.5 0 0-.51-1.159 1.15.53 41.5 0 0-1.212-.365 1.15.53 41.5 0 0 .51 1.159 1.15.53 41.5 0 0 1.212.365m-6.782.569a1 .53 108.1 0 0 .815-.786 1 .53 108.1 0 0-.193-1.116 1 .53 108.1 0 0-.815.786 1 .53 108.1 0 0 .193 1.115M185.74 95q-.59-.1-.53.25a.33.32-15.4 0 0 .43.24q.25-.1.1-.49.18.15.76-.48a.32.32 0 0 0-.24-.53q-.52.02-.52 1.01m26.42-.64q.01.43.42.58a.27.27 0 0 0 .33-.37l-.18-.36a.3.3 0 0 0-.57.15m-7.47.6q.25-.33-.01-.55-.09-.09-.21-.04-.33.15-.16.54.15.36.38.05m-23.13.95q-.03-.39-.24-.73-.5-.85-.44.14.03.49.43.75.28.17.25-.16m45.42.28q.16.21.12.44a.37.37 0 0 0 .39.44l.43-.03q.11-.01.11-.11.11-2.43-2.29-1.91-.08.02-.13.09-.54.85-.31 1.52.27.78.64.04l.2-.4q.35-.71.84-.08m-11.095 1.92a1.55.57 62.1 0 0-.221-1.637 1.55.57 62.1 0 0-1.23-1.103 1.55.57 62.1 0 0 .222 1.637 1.55.57 62.1 0 0 1.23 1.103m-42.625-1.99q-.31.59.01 1.06a.33.33 0 0 0 .59-.09q.17-.58-.14-1a.28.27-48.5 0 0-.46.03m5.48.41q.23.13.47.17.98.17.17-.42-.24-.17-.53-.18-.94-.03-.11.43m10.39.25q-.18-.28-.46-.43-.68-.37-.37.34.14.32.44.49 1.01.6.39-.4m21.3.31q.11.18.23.01.14-.18.03-.36-.36-.61-.37-.12-.01.25.11.47m-2.49-.26q-.31.15-.4.48a.26.26 0 0 0 .42.27q.28-.22.29-.56a.21.21 0 0 0-.31-.19m14.43.34q-.01.27.29.36.3.1.25-.21-.06-.41-.42-.32-.12.04-.12.17m7.128 1.662a.84.47 81.9 0 0 .347-.898.84.47 81.9 0 0-.583-.766.84.47 81.9 0 0-.347.898.84.47 81.9 0 0 .583.766M166.2 98.29q-.07-.48-.55-.51-.74-.04-1.06.52-.24.44.03.91.43.73 1.2.99.67.22.57-.47zm61.65.26a.45.45 0 0 0-.45-.45.45.45 0 0 0-.45.45.45.45 0 0 0 .45.45.45.45 0 0 0 .45-.45M199.9 99q-.16-.5-.62-.6a.32.32 0 0 0-.34.48q.3.49.79.4a.21.21 0 0 0 .17-.28m1.97.19-.03-.47q-.03-.75-.66-.34-.17.11-.24.32-.22.7.42 1.06l1.77 1q.25.14.48-.01.21-.13.22-.33.06-.71-.61-.48-.81.29-1.23-.38-.11-.16-.12-.37m7.24-.63a.27.26 6.4 0 0 .27.33q.36-.02.48-.35a.29.29 0 0 0-.34-.39q-.33.08-.41.41m4.704 1.356a.87.28 44.2 0 0-.429-.807.87.28 44.2 0 0-.819-.405.87.28 44.2 0 0 .429.807.87.28 44.2 0 0 .819.406m-15.874 2.144q-.2.29-.01.54.28.37.73.27 1.31-.27 2.62-.07.29.05.28-.24l-.01-.3a.29.29 0 0 0-.32-.28q-3.46.37-3.57-3.2a.1.09 82 0 0-.11-.09l-.26.06q-.23.04-.21.27.09 1.28.87 2.47a.53.52 46.3 0 1-.01.57m-7.98-2.42q-.25-.22-.45 0a.4.4 0 0 0 .18.66q1.62.44 2.8-.25.23-.14.24-.4.02-.23-.2-.34-.32-.15-.65-.01l-1.08.46q-.46.2-.84-.12m18.3-.01q.08.69.6 1.27.53.6.47-.2-.08-.9-.7-1.3-.44-.28-.37.23m12.653 1.164a1.01.42 129.1 0 0 .963-.52 1.01.42 129.1 0 0 .311-1.048 1.01.42 129.1 0 0-.963.52 1.01.42 129.1 0 0-.311 1.048m4.667-1.454q-.16-.26-.46-.2-.13.03-.23.15a.3.3 0 0 0 .13.46q1.03.36.56-.41m10.34 1.96q-1.37 1.05-.16 2.49.54.64.81-.16.07-.19.05-.39-.07-.59.26-1.08l.79-1.15q.32-.48-.08-.89-.41-.41-.99-.53-.35-.07-.24.26.05.16.06.32a1.32 1.31 69 0 1-.5 1.13m-62.91.12a.12.12 0 0 0 .21.09q.49-.54.16-1.32-.11-.25-.33-.37-.47-.24-.26.24.28.67.22 1.36m57.16.74q.61.24 1.07-.22.6-.61 1.36-.97a.53.53 0 0 0 .05-.93l-.29-.18q-.56-.33-.56.32 0 .82-.85 1.32-.32.18-.58-.08l-.25-.26q-.33-.34-.79-.22-2.83.72-3.13 3.33-.16 1.37.36.1 1.26-3.12 3.61-2.21m-47.85-1.67q-.11.27.15.16.08-.03.12-.11.14-.24-.13-.17-.1.03-.14.12m29.24.18q.06-.09.03-.19-.07-.25-.2-.04-.08.12 0 .23.09.14.17 0m5.087.898a.93.27 44.2 0 0-.479-.842.93.27 44.2 0 0-.855-.454.93.27 44.2 0 0 .479.842.93.27 44.2 0 0 .855.454m29.786.738a1.06.34 70 0 0-.043-1.112 1.06.34 70 0 0-.682-.88 1.06.34 70 0 0 .042 1.112 1.06.34 70 0 0 .683.88m-66.293-1.116q.19.21.45.11-.22-.05-.45-.11m9.86.37-.23-.32a.34.34 0 0 0-.57.36q.51.89 2.04 1.63.87.42.3-.36-.42-.58-1.13-.95a1.32 1.18 83.1 0 1-.41-.36m-22.4 1.98a.13.13 0 0 0 .01-.19l-1.98-2.16q-.17-.18-.35-.01l-.21.2q-.09.08-.01.16l1.95 2.16q.19.2.39.02zm.76-1.33q.3 1.19.8 1.4 1.28.51.57-.67-.65-1.06-1.37-.73-.11-.83-.89-1.02a.26.26 0 0 0-.29.39q.38.63 1.18.63m41.82-.64q-.07.32.17.5a.32.32 0 0 0 .51-.18q.06-.25-.09-.44a.34.33 33.1 0 0-.59.12m-32.98 1.35q-.11-.42-.09-.82.06-.87-.34-.1-.45.9.47 1.36.19.1.12-.11-.02-.08-.08-.15-.06-.08-.08-.18m10.66 1.653a1.68.27 63.5 0 0-.508-1.623 1.68.27 63.5 0 0-.992-1.383 1.68.27 63.5 0 0 .508 1.624 1.68.27 63.5 0 0 .992 1.382m20.96-2.013q.08-.18-.04-.37-.15-.23-.29 0-.16.26.04.43a.19.18 32.5 0 0 .29-.06m10.85-.06q.2-.04.16-.24a.07.06-35 0 0-.12-.02l-.17.29q.06-.02.13-.03m-47.7.08q-.02-.05-.05-.1-.08-.13-.19-.03-.26.23.01.57.29.36.49-.06.14-.28-.1-.28-.12.01-.16-.1m40.7.09q.04-.21-.17-.25-.19-.03-.11.14.04.1.13.16.12.09.15-.05m-16.069 1.969a.91.31 54.3 0 0-.28-.92.91.31 54.3 0 0-.782-.558.91.31 54.3 0 0 .28.92.91.31 54.3 0 0 .782.558m52.649-1.319q.21.58.83.77.49.14.35-.34-.2-.72-.9-.79a.27.27 0 0 0-.28.36m-27.63.19q-.37.48-.03 1.04a.56.56 0 0 0 .99-.07q.23-.54-.23-1.01a.49.49 0 0 0-.73.04m2.74.59q.3.48.33-.01 0-.07-.06-.11-.11-.06-.25.04a.07.07 0 0 0-.02.08m15.93 2.13.47 1.86q.21.84.7.12.33-.49.03-1.02-.87-1.49-1.72-2.95-.3-.52-.88-.43t-.24.57q.5.71 1.22 1.23a1.11 1.08-80.1 0 1 .42.62m-41.02.56q.3.39.66.71.09.08.22.11.21.04.38-.17a.32.32 0 0 0 0-.38q-.33-.41-1.26-.27-.69-.86-.3-1.48.27-.43.73-.21.19.09.31.27a.61.6 52.3 0 0 .92.12q.33-.3.48-.7.31-.83-.56-.71-1.21.17-2.39 1.1a.77.77 0 0 0-.24.85q.19.56 1.05.76m15.82-1.7a.28.28 0 0 0 .11-.47q-.54-.5-1.38-.09-.57.27.02.52.55.24 1.25.04m16.438.695a.94.32 50.5 0 0-.351-.928.94.32 50.5 0 0-.845-.522.94.32 50.5 0 0 .351.928.94.32 50.5 0 0 .845.522m-38.378-.885q-.39.16-.23.64a.4.4 0 0 0 .76-.01q.07-.2 0-.4a.4.4 0 0 0-.53-.23m18.55.17q-.34.23-.43.69-.08.4.28.2.44-.25.43-.74a.18.18 0 0 0-.28-.15m39.848.982a.75.45 37.1 0 0-.327-.81.75.45 37.1 0 0-.87-.094.75.45 37.1 0 0 .328.81.75.45 37.1 0 0 .87.094m-48.388-.632q-.09.43.32.64.38.19.35-.23-.04-.51-.48-.55-.16-.02-.19.14m-34.14.01q-.41.07-.14.39.57.68.58 1.68.03 2.26.92.18.49-1.15-.56-2.3-.08-.08-.19-.06zm-1.66 1.73.28-.31a.51.5-52.3 0 0-.09-.76q-.78-.52-.68.68a1.77 1.77 0 0 1-.2 1q-.6 1.15.47 1.38.71.15.55-.56-.08-.36-.33-.64-.36-.39 0-.79m71.53.09q.11-.66-.29-1.16a.38.37 31.7 0 0-.66.15q-.18.84.51 1.23a.3.3 0 0 0 .44-.22m-48.746.221a.86.45 42.5 0 0-.33-.913.86.45 42.5 0 0-.938-.249.86.45 42.5 0 0 .33.913.86.45 42.5 0 0 .938.249m39.586-.641q.2.03.08-.13-.11-.15-.26-.23-.41-.23-.14.15.12.17.32.21m4.42-.09q.05.63.53.62a.39.38 67.9 0 0 .27-.65q-.26-.28-.47-.3-.36-.03-.33.33m-29.41.61q.19-.15.36-.34.61-.7-.21-.24-.27.16-.35.45-.1.36.2.13m39.52.84q-1.13 1.73 2.74 4 .29.95 1.15 2.05.33.41.5-.09.61-1.74-.02-3.41.78-4.23-2.29-3.61-.27-.82-2.08 1.06m-8.19-.43q-.01.31.24.53.37.35.48-.15.24-1.13-.89-1.54a.32.31-74.8 0 0-.42.25q-.06.37.32.52.27.11.27.39m-50.56.71q-.22.94.67 1.99 2.37 1.99 1.73.31 1.03-1.32.13-2.6a.53.53 0 0 0-.91.09l-.4.88q-.21.47-.56.08zq.32-.63.21-.9a.42.42 0 0 0-.73-.11q-.21.27-.07.75.12.38.59.26m8.85-.85q.09.02.14-.05.12-.18-.09-.21-.1-.01-.14.07-.08.16.09.19m60 .88q-.24.1-.36-.04-.64-.75-.83.2-.07.34.01.72.09.44.53.32 1.52-.43 2.25-1.66.4-.67-.38-.76-.71-.08-.71.47-.01.54-.51.75m-61.48.54q-.35.35.12.61.33.18.44-.18.08-.22-.05-.39-.23-.32-.51-.04m3.26.65q-.07-.22-.24-.39-.52-.53-.49.21.01.3.24.51.87.78.49-.33m29.47.904a1.29.44 31.5 0 0-.87-1.05 1.29.44 31.5 0 0-1.33-.298 1.29.44 31.5 0 0 .87 1.05 1.29.44 31.5 0 0 1.33.298m-42.12-.754q-.12.28-.04.57a.24.24 0 0 0 .47-.01q.09-.37-.17-.61-.17-.16-.26.05m36.53 4.68q.06.42.47.53.78.23.49-.54-.19-.51-.6-.87a.76.76 0 0 1-.2-.84q.42-1.11 1.44-1.89.19-.15.24-.38.04-.18-.03-.36-.31-.78-.83-.12l-2.44 3.13q-.39.5.22.67.18.05.37.02.76-.12.87.65m-50.377-1.932a1.12.47 86.8 0 0 .406-1.144 1.12.47 86.8 0 0-.531-1.092 1.12.47 86.8 0 0-.407 1.144 1.12.47 86.8 0 0 .532 1.092m2.447-1.838a.51.51 0 0 0-.51-.51.51.51 0 0 0-.51.51.51.51 0 0 0 .51.51.51.51 0 0 0 .51-.51m85.87.07q.16.28.54.34a.42.41 86.3 0 0 .46-.53q-.15-.49-.76-.36a.37.37 0 0 0-.24.55m-66.69.54h.1q.19-.01.12-.18-.1-.27-.38-.31a.28.28 0 0 0-.26.44q.13.19.33.08.04-.02.09-.03m4.54.54q-.51.23-.46.75.05.53.37.1l.91-1.23q.3-.4-.2-.39-.38 0-.38.39a.4.4 0 0 1-.24.38m25.86-.04q-.18.05-.3.18-.32.36.12.56l1.59.72q1.01.46.45-.5l-.9-1.54q-.17-.31-.48-.14-.16.08-.15.26.03.37-.33.46m3.28-.11q0-.77-.53-.43a.3.3 0 0 0-.09.41q.23.36.49.23a.23.22 78.2 0 0 .13-.21m11.83 1.16q.08-.59-.08-1.12-.19-.63-.81-.41-.35.13-.54.4-.28.4.08.73l.7.63q.54.49.65-.23m-42.57-.77q.17-.07.26-.22.49-.83-.27-.24-1 .79-.55 2.04.2.56.76.36.15-.05.24-.17.31-.45-.19-.66-.27-.12-.44-.34-.39-.51.19-.77m23.932-.603a1.87.47-33.9 0 0-1.814.653 1.87.47-33.9 0 0-1.29 1.433 1.87.47-33.9 0 0 1.814-.653 1.87.47-33.9 0 0 1.29-1.433m37.908 1.103q.06-.37.29-.7.48-.66-.32-.52-.65.11-.76.94a.93.92-62.2 0 0 .23.75q.67.74 1.05.34.2-.22-.01-.42-.19-.18-.44-.3a.09.09 0 0 1-.04-.09m8.15-.9q-.36.53-.17 1.1a.21.2-6.2 0 0 .18.14q.75.1.89-.64.08-.4-.21-.68a.46.45-51.4 0 0-.69.08m-30.51.56q.44-.48-.21-.51-.63-.02-1.1.57a.33.33 0 0 0 .33.52q.58-.14.98-.58m-2.726.557a1.07.49 15 0 0-.907-.75 1.07.49 15 0 0-1.16.196 1.07.49 15 0 0 .906.75 1.07.49 15 0 0 1.16-.196m-44.404-.587q-.49.02-.19.48.26.38.45-.03.22-.47-.26-.45m-2.71 1.04q.14.51.64.32a.37.36-41.6 0 0 .04-.67q-.39-.19-.65.17a.26.23 57.7 0 0-.03.18m7.534 1.182a.75.23 57.4 0 0-.21-.756.75.23 57.4 0 0-.598-.508.75.23 57.4 0 0 .21.756.75.23 57.4 0 0 .598.508m-2.854-.552q.14-.12-.06-.19-.18-.06-.12.12.07.18-.01.36-.1.23.1.08.11-.1.18-.23.02-.05-.01-.1-.02-.02-.07-.01-.09.03-.01-.03m9.04-.27q-.46.49.18.3.12-.03.23-.1a.17.16-52.9 0 0-.04-.3q-.22-.06-.37.1m9.08 1.34q.51.77.18 1.7-.02.06.06.11l.28.19q.29.2.33-.15l.2-1.75q.06-.53-.42-.77-.77-.38-1.58-.53-.46-.08-.24.34.14.27.43.33.49.11.76.53m67.83-.78a.43.43 0 0 0-.43-.43.43.43 0 0 0-.43.43.43.43 0 0 0 .43.43.43.43 0 0 0 .43-.43m-48.44-.13q-.62.66-.05 1.25a.5.49-55.8 0 0 .82-.16q.3-.73-.27-1.13a.39.39 0 0 0-.5.04m9.93 3.1q.03.43.2.79.35.71.45-.07.37-2.69-1.39-3.31-1.45-.51-.42.63c.52.57 1.11 1.11 1.16 1.96m22.56-2.6q.15.52.48.89.41.48.45-.15.07-.93-.67-1.04a.24.24 0 0 0-.26.3m20.65.21q-.05.4.32.5a.32.32 0 0 0 .33-.52q-.14-.15-.32-.2-.29-.08-.33.22m-75.06.2q0-.05-.03-.09-.31-.41-.31.1-.02 1.49-.31 2.72-.17.68.49.93 1.27.5 2.66.15a.26.26 0 0 0 .13-.42l-.23-.26a.13.12 50.1 0 0-.17-.02q-1.46 1.05-2.29-.29-.43-.7.39-.79l.48-.05q.79-.08.29-.7-.44-.54-.97-1.03-.12-.1-.13-.25m29.25 1.16q.49-.53.25-1.21-.08-.22-.3-.2l-.48.04q-.35.03-.23.36.36 1-.08 1.96a1.01 1-53.3 0 0 .15 1.09q.15.18.34.29.8.48.37-.36-.29-.57-.31-1.21a1.08 1.07 66 0 1 .29-.76m-55.82 16.89q-.22.17-.19.48.05.49.43.17c1.65-1.39 1.17-5.53 1.2-7.6.04-3.21-1.68-11.12-6.06-11.03q-1.29.02-.17.65 4.13 2.3 4.94 6.59.76 4.02.21 10.09-.04.4-.36.65m17.117-16.454a.83.36 55.8 0 0-.17-.888.83.36 55.8 0 0-.764-.484.83.36 55.8 0 0 .17.888.83.36 55.8 0 0 .764.484m73.392-.274a.57.23 61.8 0 0-.066-.61.57.23 61.8 0 0-.472-.394.57.23 61.8 0 0 .066.61.57.23 61.8 0 0 .472.394m29.131 5.018q-1.04 1.07-2.06 2.29a.2.2 0 0 0 .13.33l.81.12a.53.52-62.7 0 0 .45-.15q3.35-3.33 2.22-7.93-.4-1.61-.57.04c-.18 1.74.21 4.06-.98 5.3m-66.578-3.752a.94.53 57 0 0-.067-1.077.94.53 57 0 0-.957-.5.94.53 57 0 0 .067 1.078.94.53 57 0 0 .957.5m42.818-.588q.38-.26.37-.71 0-.51-.37-.16-1.24 1.15-1.81 2.33-.38.8.33.28.65-.47 1.04-1.23.16-.31.44-.51m-82.2-.36q-.29-.05-.59-.11-.78-.15-.18.36.8.7 1.6.21.29-.18.49-.46.43-.59-.23-.28l-.38.18q-.34.16-.71.1m25.95 1.11q.61-.43.05-.89-.1-.08-.22-.15-.95-.55-.74.53.28 1.44.97 2.55.12.19.28.04l.2-.18q.02-.02 0-.03-.7-.46-.81-1.26a.64.64 0 0 1 .27-.61m51.472.149a.49.33 73.1 0 0 .174-.565.49.33 73.1 0 0-.458-.373.49.33 73.1 0 0-.174.565.49.33 73.1 0 0 .458.373m-79.262.991c-.02-.45-.05-.9.21-1.31q.45-.7-.31-.36-.56.26-.63.82-.07.55.34 1.01.42.47.39-.16m71.67-1.31q.28.47.83.47.52-.01.23-.44-.33-.5-.84-.46a.28.28 0 0 0-.22.43m17.705.425a1.29.53-8.7 0 0-1.355-.329 1.29.53-8.7 0 0-1.195.72 1.29.53-8.7 0 0 1.355.328 1.29.53-8.7 0 0 1.195-.72m-77.415.605q-.02.34.29.46a.16.16 0 0 0 .22-.11q.07-.32-.19-.51-.3-.21-.32.16m18.7.79q.15.2.39.27.3.09.52-.12.38-.37-.04-.69-.63-.47-1.43-.61-.76-.14-.26.45.26.29.6.5.13.08.22.2m43.91.09q-.07-.91-.62-1.25-.43-.27-.27.21.31.97.93 1.82.33.45.12-.07c-.09-.23-.14-.45-.16-.71m15.79.5-.3.17a.39.39 0 0 0 .13.72q.22.04.44-.02.3-.08.42-.35.39-.84-.03-1.83-.17-.38-.24.03-.04.22-.01.45.07.55-.41.83m-52.865-.206a.74.53 37.8 0 0-.26-.873.74.53 37.8 0 0-.91-.035.74.53 37.8 0 0 .26.873.74.53 37.8 0 0 .91.035m-15.185.036q-1 .28-1.52 1.13-.65 1.05.48.55l.91-.39a.95.95 0 0 0 .57-.77q.04-.44-.02-.89-.02-.11-.04-.01-.01.05-.03.1-.12.21-.35.28m71.02.61a.29.29 0 0 0-.29-.29.29.29 0 0 0-.29.29.29.29 0 0 0 .29.29.29.29 0 0 0 .29-.29m-78.96.64 1.04-.07q.44-.03.18-.39-.56-.79-1.24-.02-.45.51-1.12.6-.73.1-.13.53.2.14.42.03.25-.13.39-.39.15-.27.46-.29m-12.66.72q-.35-.34-.5-.84-.12-.39-.28-.02-.12.26.08.39c.62.43.95.96 1.73 1.14q.63.15.13-.26-.13-.1-.29-.08-.5.03-.87-.33m14.7-.52q-.58.27.02.48.77.26 1.47-.26.56-.42-.14-.47-.69-.05-1.35.25m24.414 1.578a1.02.59 64.2 0 0 .087-1.175 1.02.59 64.2 0 0-.975-.661 1.02.59 64.2 0 0-.087 1.175 1.02.59 64.2 0 0 .975.661m33.267.026a1.05.32 115.9 0 0 .747-.804 1.05.32 115.9 0 0 .17-1.084 1.05.32 115.9 0 0-.746.804 1.05.32 115.9 0 0-.17 1.085m-51.591-1.104q-.11.47.22.82a.29.28 28.8 0 0 .49-.14q.08-.46-.27-.81a.26.26 0 0 0-.44.13m-3.402 3a1.4.41 90.5 0 0 .422-1.396 1.4.41 90.5 0 0-.398-1.404 1.4.41 90.5 0 0-.422 1.396 1.4.41 90.5 0 0 .398 1.404m-4.858-2.2q.2.25.51.22a.25.25 0 0 0 .13-.45q-.26-.2-.56-.06-.23.1-.08.29m66.77.59.76.35q.53.23.27-.29-.28-.56-.96-.67-.93-.15-1.51.63-.47.63.26.35l.95-.37a.3.27 42.1 0 1 .23 0m-68.36 4.66q.7.15 1.26.69.64.62.56-.27l-.05-.58q-.06-.68-.72-.79l-.84-.13-.69-1.6q-.33-.76.48-.59.48.09.69.53.23.46.66.18.32-.21.31-.58-.02-.63-.65-.68-.86-.08-1.23-.86-.29-.64-.73-.08-.74.96-.65 2.12a1.18 1.15-72.9 0 0 .41.8q1.16.95.36 2.16-.07.11-.03.23.04.13.16.22.17.12.28-.06zm9.51-3.62q-.46-.75-1.18-1.13a.45.45 0 0 0-.65.46q.2 1.61 1.99 1.51.69-.04.23-.56-.17-.19-.39-.28m16.688-.077a.68.39 46.5 0 0-.185-.761.68.39 46.5 0 0-.751-.225.68.39 46.5 0 0 .185.761.68.39 46.5 0 0 .751.225m-7.858-.083a.36.35 48 0 0-.03.63q.67.38 1.45.07.66-.26.08-.66-.64-.44-1.5-.04m-15.73 1q.14.66.77.94a.26.26 0 0 0 .35-.33q-.25-.68-.92-.81a.17.17 0 0 0-.2.2m3.86 1.88q-.55-.53-.45-1.36a.48.47 6.9 0 0-.43-.54q-.73-.07-.67.84a1.37 1.34 22.9 0 0 .34.81q.68.78 1.63.7.36-.03.52-.36.15-.32.02-.65-.1-.25-.11.02-.01.18-.08.37-.25.67-.77.17m3.7.17q.34-.32.52-.75.21-.54-.29-.25-1.19.68-1.14 2 .01.44.32.13.25-.24.3-.61.05-.31.29-.52m6.36 1.18q.32.53.34-.09.03-.61-.15-1.24-.09-.3-.35-.47-.18-.11-.39-.12-.63-.06-.3.49zm-19.34-1.03a.38.38 0 0 0 .3.58q.34.02.42-.36.08-.32-.24-.42-.3-.1-.48.2m5.45.1q.04.65.66.85a.32.32 0 0 0 .41-.4q-.13-.41-.44-.73a.37.37 0 0 0-.63.28m-6.26 1.97q-.16.42.28.62.39.18.41-.25.01-.31-.26-.5a.28.28 0 0 0-.43.13m6.42.08-.26-.11q-.38-.18-.4.25 0 .19.1.35.2.31.51.11.7-.47 1.47.02.38.25.51-.19l.09-.32q.03-.09-.05-.16-.76-.65-1.41-.04-.25.24-.56.09m15.18.11q.08.15.23.23a.25.24 10 0 0 .35-.24q-.02-.31-.33-.35a.25.25 0 0 0-.25.36m-17.05.636a.97.53-16.4 0 0-1.08-.234.97.53-16.4 0 0-.78.782.97.53-16.4 0 0 1.08.234.97.53-16.4 0 0 .78-.782m13.26.934a.32.32 0 0 0-.32-.32.32.32 0 0 0-.32.32.32.32 0 0 0 .32.32.32.32 0 0 0 .32-.32m-15.92 1.04q.64.45 1.31.8.66.35.21-.24-.71-.92-1.88-1.4-1.09-.45-1.38.8a.14.13 81.4 0 0 .2.15l.31-.17q.64-.37 1.23.06m-13.63-.8q-.13.17-.08.37.06.24.24.07.2-.2.05-.43a.13.13 0 0 0-.21-.01m2.81.33q.15 1.38.59 2.01 1.13 1.58.6-.28-.26-.93-.92-1.84-.33-.45-.27.11m16.52.46q-.48.11-.58.24-.82 1.09.49.71.85-.25 1.65-.8.15-.1.21-.28.08-.27-.18-.48a.33.32-44.2 0 0-.41 0c-.38.29-.71.5-1.18.61m-21.47.18q.11-.21-.06-.29-.12-.06-.15.08-.02.14.12.23a.06.06 0 0 0 .09-.02m8.22-.01q-1.11.21-.01.47l1.52.36q.42.1.58-.31.08-.19.03-.4a.53.52 78.2 0 0-.61-.41zm-6.08 1.13a.3.3 0 0 0-.3-.3.3.3 0 0 0-.3.3.3.3 0 0 0 .3.3.3.3 0 0 0 .3-.3m16.94.73q-.08-.12-.19-.21a.06.06 0 0 0-.09.06q.04.3.16.32.25.04.12-.17m-19.131.29a.68.51-3.4 0 0-.71-.47.68.51-3.4 0 0-.648.55.68.51-3.4 0 0 .71.47.68.51-3.4 0 0 .648-.55m17.471 0a.42.42 0 0 0-.42-.42.42.42 0 0 0-.42.42.42.42 0 0 0 .42.42.42.42 0 0 0 .42-.42m-20.02 1.98q-.31-.98-.74-1.96-.06-.13-.19-.17-.15-.04-.29.12-.12.15-.07.33.3 1.13.95 1.87.62.71.34-.19m12.15-.06q.23.88.65.07.35-.68.64-1.54a.32.32 0 0 0-.43-.4q-1.22.53-.86 1.87m16.13-.96q-.18.44.12.76a.33.33 0 0 0 .57-.2q.04-.56-.46-.67-.16-.04-.23.11m-1.93.74q-.3.35-.11.77a.42.42 0 0 0 .78-.03q.14-.38-.08-.7a.37.37 0 0 0-.59-.04m-5.634 1.61a.98.33 47.2 0 0-.424-.944.98.33 47.2 0 0-.908-.495.98.33 47.2 0 0 .424.943.98.33 47.2 0 0 .908.495m10.414.31q-.42.76.28 1.37a.45.45 0 0 0 .71-.15q.35-.8-.34-1.35a.44.43-56.2 0 0-.65.13m-17.69.62q.16.17.38.16.29-.01.31-.29.02-.32-.44-.37a.3.29-18.7 0 0-.25.5m1.82 1.94q-.51.01-.75.42-.83 1.47.81 1.09 1.15-.26 2.21-1.14a.6.6 0 0 0 .03-.9l-1.99-1.88a.29.29 0 0 0-.42.02l-.17.21q-.19.22-.02.45l.69.96a.49.49 0 0 1-.39.77m10.12 1.21-1.59-1.71q-.11-.12-.26-.06l-.26.09q-.35.13-.11.41.78.93 1.13 2.02.23.72.97.52l.95-.27q.65-.18.24-.72-.18-.24-.51-.13a.53.53 0 0 1-.56-.15m6.35-.67q-.16-.61-.76-.48a.56.56 0 0 0-.34.88q1.06 1.5 3.12.96.39-.1.3-.5l-.09-.38q-.11-.47-.54-.26l-.59.28a.79.79 0 0 1-1.1-.5"/><path fill="#376f0e" d="M179 76.64q.42 2.84 1.92 5.06.53.78.32-.14-.03-.12.05-.25.16-.23.36-.03.97 1.02 1.15 2 .23 1.35-1.84 1.35.48-.43 1.19-.72.52-.2.28-.71-.05-.12-.15-.21-.42-.38-.86-.02-1.93 1.63-.76 1.88l-1.48 1.98q-.37-.47-.69-.59-.93-.36-.27.5.35.45 1.21.69l.8 2.09q-.15-.17-.29-.24-.43-.23-.41.26.05.97.6 1.79-.03.95-1.34 2.12.12-.41-.27-.55l-5.09-1.55q-.52-.16-.79.31l-.61 1.07q.17-.53-.3-.69-.64-.21-.89.49l-1.69-.07q-.89-.87-.09-2.14.05-.07-.03-.1l-.24-.09a.26.25 20.9 0 0-.33.14q-.37.94-.33 1.94-.61-.85-1.55-1.44-.4-.26-.33-.72.16-1.21-1.25-2.01.64-2.68 1.43-4.98a2.51 2.51 0 0 0-1.79-3.26q-.41-.1-.62-.97l4.58-.75q.2 1.36.7 2.45.52 1.18.48 1.86-.07.99-.47 1.96-.2.46.28.63l2.38.8q.39.22.74-.07.21-.18.08-.41.77-.29 1.44.21.09.12.32.2.54-.2 1.14-.71.57-.39.37-1.11-.08-.29-.44-.37-.89-1.12-.81-2.3.03-.52.53-.67.73-.21 1.33-.75.35-.31-.08-.51-.27-.12-.44.06-.38.4-.85.1l-3.05-1.97zm.16 2.07q.14-.28.05-.57-.19-.58-.68-.21-.26.2-.3.54-.01.09.03.17.15.28.47.31.3.03.43-.24m-10.22 7.11q-.77-.31-.45.45.34.83 1.2.93.64.08.31-.48-.35-.62-1.06-.9m7.06 2.09q.34.03.59-.14.46-.32-.04-.57-.66-.32-1.31-.09-.65.24-.18.75.39.42.94.05m-2.48-.4q-.2-.12-.38 0-.16.11.04.12.6.05.34-.12m3.84 3.07q-.22.4.09.71a.19.19 0 0 0 .3-.05q.16-.31 0-.65-.19-.39-.39-.01"/><path fill="#5a9031" d="m172.25 77.48 3.05 1.97q.47.3.85-.1.17-.18.44-.06.43.2.08.51-.6.54-1.33.75-.5.15-.53.67-.08 1.18.81 2.3-.68.48-.52 1.2.05.24.29.29.14.02.3-.01-.6.51-1.14.71.14-.1.18-.22.08-.2-.11-.3-.3-.15-.39.32-.67-.5-1.44-.21-.37-.34-.77-.01-.24.19-.05.49l-2.38-.8q-.48-.17-.28-.63.4-.97.47-1.96.04-.68-.48-1.86-.5-1.09-.7-2.45zm.04 3.09a.68.68 0 0 0-.68-.68.68.68 0 0 0-.68.68.68.68 0 0 0 .68.68.68.68 0 0 0 .68-.68m-1.74 3.65a1.23.75 90 0 0 .75-1.23 1.23.75 90 0 0-.75-1.23 1.23.75 90 0 0-.75 1.23 1.23.75 90 0 0 .75 1.23"/><path fill="#7fb051" d="M189.12 77.96a.37.37 0 0 1 .69-.13q.21.39-.04.78a.29.29 0 0 1-.47.03q-.23-.28-.18-.68"/><path fill="#9dca6e" d="M179.16 78.71q-.13.27-.43.24-.32-.03-.47-.31-.04-.08-.03-.17.04-.34.3-.54.49-.37.68.21.09.29-.05.57"/><path fill="#376f0e" d="M194.16 79.38q-.56-.01-1.09.44-.44.38-.75-.12t-.03-1.09q.31-.65.57.02.05.11.04.24-.06.54.03.01.06-.35.07-.71.01-.51.51-.39 1 .26.65 1.6"/><path fill="#7fb051" d="M203.6 78.65q-.35.09-.36-.26a.27.26 82.1 0 1 .2-.27q.57-.15.54.43-.01.25-.22.13-.08-.05-.16-.03"/><path fill="#265dfe" d="M164.02 78.83q.21.87.62.97a2.51 2.51 0 0 1 1.79 3.26q-.79 2.3-1.43 4.98l-.24 5.05q-.02.53-.5.77l-.59.3q-.47.24-.41.77.18 1.57-1.25 2.16c-3.67-9.78-12.7-4.56-18.85-1.09q-5.28 2.97-12.36 4.33-11.26 2.16-22.97 3.33-1.26.12-.89-1.09 1.72-5.72 3.47-11.31c1.87-5.95 7.01-7.59 12.18-9.95q2.66-1.21 5.47-1.28c5.75-.13 11.18-.97 17.16-.91q9.42.1 18.8-.29"/><ellipse fill="#b8e48a" rx="1.3" ry=".35" transform="rotate(133.7 86.854 84.472)"/><path fill="#7fb051" d="M194.16 79.38q1.38-.37 2.37-.05.57.19.01.42-1.43.58-2.38-.37"/><circle cx="171.61" cy="80.57" r=".68" fill="#ae5b8e"/><circle cx="186.33" cy="80.48" r=".31" fill="#7fb051"/><path fill="#b8e48a" d="m202.04 80.54.16-.29q.28-.51.57-.01.13.23-.02.48-.53.85-1.63 1.13-.51.12-.35-.38.11-.33.44-.37.56-.07.83-.56"/><path fill="#9dca6e" d="M190.22 81.82a.29.29 0 0 1 .05-.5q.4-.18.39.27-.01.53-.44.23"/><path fill="#b8e48a" d="m213.52 81.74-.76 1.2q-.25.39-.65.16-.15-.1-.18-.27-.04-.28.16-.47.54-.51 1.13-.91.86-.58.3.29"/><ellipse fill="#ae5b8e" rx="1.23" ry=".75" transform="rotate(90 43.78 126.77)"/><ellipse fill="#ae5b8e" rx=".61" ry=".39" transform="rotate(128 78.51 89.435)"/><path fill="#7fb051" d="M204.33 82.26a.25.24-25.3 0 1 .15-.41q.24-.03.38.15.21.26-.12.36-.24.07-.41-.1"/><path fill="#9dca6e" d="M187.21 82.64q-.02-.1-.03-.19-.02-.39.2-.07.08.13.02.27-.12.3-.19-.01"/><path fill="#b8e48a" d="m180.96 84.63-.3.22q-1.17-.25.76-1.88.44-.36.86.02.1.09.15.21.24.51-.28.71-.71.29-1.19.72"/><ellipse fill="#b8e48a" rx=".63" ry=".33" transform="rotate(56.3 25.673 235.736)"/><path fill="#265dfe" d="M226.45 84.33q.8.41-.09.44-1.29.06-2.05-1.04-.53-.77.3-.35z"/><path fill="#ae5b8e" d="M175.69 85q-.16.03-.3.01-.24-.05-.29-.29-.16-.72.52-1.2.36.08.44.37.2.72-.37 1.11"/><path fill="#7fb051" d="M191.39 84.13q-.43-.15-.2-.54.08-.13.23-.1.31.08.32.39 0 .38-.35.25"/><path fill="#b8e48a" d="M193.94 84.17q.56.58.71 1.27a.35.34 24.2 0 1-.64.24q-.47-.82-.49-1.87-.02-.61.34-.12.08.12.03.25a.22.21 33.2 0 0 .05.23M189.03 84.98q.11-.48.33-.89a.35.35 0 0 1 .65.11q.11.6-.12 1.23a.43.43 0 0 1-.77.09q-.16-.24-.09-.54M209.05 84.44q-.29-.77.37-.27.56.43.69 1.11.13.74-.4.2-.44-.46-.66-1.04M200.24 85.87q-.44-.14-.31-.53a.26.26 0 0 1 .43-.11q.17.16.2.38a.25.25 0 0 1-.32.26M205.6 85.33q.3-.43.66-.11.45.4-.08.69-.35.19-.57-.1a.41.4 44.4 0 1-.01-.48M172.79 85.3q.13.23-.08.41-.35.29-.74.07-.19-.3.05-.49.4-.33.77.01"/><path fill="#9dca6e" d="M174.55 85.71q-.23-.08-.32-.2.09-.47.39-.32.19.1.11.3-.04.12-.18.22"/><path fill="#7fb051" d="M168.94 85.82q.71.28 1.06.9.33.56-.31.48-.86-.1-1.2-.93-.32-.76.45-.45"/><path fill="#b8e48a" d="M179.18 86.83q.45.33.25.6-.86-.24-1.21-.69-.66-.86.27-.5.32.12.69.59"/><path fill="#7fb051" d="M220.14 87.3q-.72-.02-1.2-.51-.6-.61.26-.69 1.01-.08 1.33.6.3.62-.39.6"/><path fill="#ae5b8e" d="M176 87.91q-.55.37-.94-.05-.47-.51.18-.75.65-.23 1.31.09.5.25.04.57-.25.17-.59.14"/><path fill="#7fb051" d="M200.09 87.88q-.41.01-.33-.39.04-.22.19-.39.25-.28.51-.01.25.25.05.55-.15.23-.42.24"/><ellipse fill="#b8e48a" rx=".77" ry=".31" transform="rotate(124.4 79.548 97.961)"/><path fill="#9dca6e" d="M173.52 87.51q.26.17-.34.12-.2-.01-.04-.12.18-.12.38 0"/><path fill="#5a9031" d="M235.93 88.7q-1.36 1.98-1.66-1.2z"/><ellipse fill="#b8e48a" rx=".49" ry=".43" transform="rotate(77.8 38.624 159.94)"/><path fill="#5a9031" d="M196.41 88.89a.26.25-14.9 0 1-.3-.17q-.09-.28.02-.54a.35.35 0 0 1 .65.02q.22.55-.37.69"/><path fill="#b8e48a" d="M217.78 89.71q-.14.44-.42.79-.27.32-.17-.09.37-1.56 1.51-2.36.46-.33.36.23-.11.58-.7.8a.99.97 88.3 0 0-.58.63M209.03 89.28q.06-.35.27-.62.48-.59.53.17.09 1.4-1.21 1.95-.51.22-.36-.32.09-.34.39-.56a1.03 1.01-14.1 0 0 .38-.62M211.17 88.39q.05-.27.24-.07.48.5.33 1.29-.1.55-.37.06-.33-.59-.2-1.28M180.23 89.52q.28.74-.1 1.81-.55-.82-.6-1.79-.02-.49.41-.26.14.07.29.24M190.61 90.72q-.44.18-.3-.27.19-.59.8-.77.92-.28.3.46-.32.38-.8.58M199.67 91.06q-.1.61-.43.08-.42-.66-.21-1.38.15-.51.4-.04.35.67.24 1.34"/><path fill="#5a9031" d="M169.15 92.46q-1.12.34-1.18 1.2-.03.41.36.51.19.06.35.17.29.19.04.43-.11.11-.32.09-.13 0-.25-.1-1.45-1.22-.02-2.55-.04-1 .33-1.94a.26.25 20.9 0 1 .33-.14l.24.09q.08.03.03.1-.8 1.27.09 2.14"/><ellipse fill="#9dca6e" rx="1.18" ry=".27" transform="rotate(43.4 -15.7 292.412)"/><path fill="#9dca6e" d="m235 91.76.13-1.44q.05-.62.61-.34.4.21.39.77-.03 1.02-1.13 1.01"/><path fill="#b8e48a" d="M177.75 90.59q.16.34 0 .65a.19.19 0 0 1-.3.05q-.31-.31-.09-.71.2-.38.39.01"/><path fill="#9dca6e" d="M183.36 90.78a.3.29 30.9 0 1 .49-.12q.22.23.11.53a.3.29-53.3 0 1-.51.08q-.17-.22-.09-.49M206.26 91.58l-.86-.39q-.56-.24.03-.39.36-.09.72-.01.5.11.42.63a.22.22 0 0 1-.31.16M212.9 91.1q.51.05.79.49.24.38-.21.35-.47-.02-.8-.32-.71-.62.22-.52M194.82 93.2q-.28-.68-.57-1.31-.42-.92.31-.22.61.59.72 1.41.25 1.83-.46.12"/><path fill="#b8e48a" d="M202.73 92.15q.46-.06.78.2.46.38-.12.5-1.08.23-1.9-.53-.35-.32.11-.47.34-.11.64.15a.65.64-27.3 0 0 .49.15M210.57 91.91q.34.25.15.54-.13.2-.33.06-.21-.17-.15-.47.07-.32.33-.13"/><path fill="#5a9031" d="m235 91.76.23 1.58q.08.53-.45.41-.34-.08-.38-.5-.1-.82.6-1.49M172.03 92.73q-.19.28-.53.26-.44-.02-.66-.46.25-.7.89-.49.47.16.3.69"/><path fill="#7fb051" d="M215.5 92.83q0 .06.02.11.09.21-.08.05-.08-.07-.04-.18.13-.44.1.02"/><path fill="#b8e48a" d="M178.52 92.9q.39.14.27.55.02.21-.23.34a.27.27 0 0 1-.4-.26q.03-.36.36-.63"/><ellipse fill="#7fb051" rx="1.15" ry=".53" transform="rotate(41.5 -9.498 349.166)"/><ellipse fill="#ae5b8e" rx="1" ry=".53" transform="rotate(108.1 77.48 128.16)"/><path fill="#9dca6e" d="M185.74 95q0-.99.52-1.01a.32.32 0 0 1 .24.53q-.58.63-.76.48M212.16 94.36a.3.3 0 0 1 .57-.15l.18.36a.27.27 0 0 1-.33.37q-.41-.15-.42-.58M204.69 94.96q-.23.31-.38-.05-.17-.39.16-.54.12-.05.21.04.26.22.01.55"/><path fill="#b8e48a" d="M181.56 95.91q.03.33-.25.16-.4-.26-.43-.75-.06-.99.44-.14.21.34.24.73"/><path fill="#7fb051" d="m226.14 96.27-.2.4q-.37.74-.64-.04-.23-.67.31-1.52.05-.07.13-.09 2.4-.52 2.29 1.91 0 .1-.11.11l-.43.03a.37.37 0 0 1-.39-.44q.04-.23-.12-.44-.49-.63-.84.08M185.74 95q.15.39-.1.49a.33.32-15.4 0 1-.43-.24q-.06-.35.53-.25"/><ellipse fill="#b8e48a" rx="1.55" ry=".57" transform="rotate(62.1 27.238 227.06)"/><path fill="#b8e48a" d="M173.26 96.12a.28.27-48.5 0 1 .46-.03q.31.42.14 1a.33.33 0 0 1-.59.09q-.32-.47-.01-1.06M178.85 96.1q.29.01.53.18.81.59-.17.42-.24-.04-.47-.17-.83-.46.11-.43M188.74 97.18q-.3-.17-.44-.49-.31-.71.37-.34.28.15.46.43.62 1-.39.4"/><path fill="#9dca6e" d="M210.43 97.09q-.12-.22-.11-.47.01-.49.37.12.11.18-.03.36-.12.17-.23-.01"/><path fill="#7fb051" d="M207.94 96.83a.21.21 0 0 1 .31.19q-.01.34-.29.56a.26.26 0 0 1-.42-.27q.09-.33.4-.48"/><path fill="#9dca6e" d="M222.49 97q.36-.09.42.32.05.31-.25.21-.3-.09-.29-.36 0-.13.12-.17"/><ellipse fill="#9dca6e" rx=".84" ry=".47" transform="rotate(81.9 58.223 181.169)"/><path fill="#9dca6e" d="m166.2 98.29.19 1.44q.1.69-.57.47-.77-.26-1.2-.99-.27-.47-.03-.91.32-.56 1.06-.52.48.03.55.51"/><circle cx="227.4" cy="98.55" r=".45" fill="#7fb051"/><path fill="#9dca6e" d="M199.9 99a.21.21 0 0 1-.17.28q-.49.09-.79-.4a.32.32 0 0 1 .34-.48q.46.1.62.6M201.99 99.56q.42.67 1.23.38.67-.23.61.48-.01.2-.22.33-.23.15-.48.01l-1.77-1q-.64-.36-.42-1.06.07-.21.24-.32.63-.41.66.34l.03.47q.01.21.12.37"/><path fill="#b8e48a" d="M209.11 98.56q.08-.33.41-.41a.29.29 0 0 1 .34.39q-.12.33-.48.35a.27.26 6.4 0 1-.27-.33"/><ellipse fill="#b8e48a" rx=".87" ry=".28" transform="rotate(44.2 -15.69 312.167)"/><path fill="#9dca6e" d="M197.95 101.49q-.78-1.19-.87-2.47-.02-.23.21-.27l.26-.06a.1.09 82 0 1 .11.09q.11 3.57 3.57 3.2a.29.29 0 0 1 .32.28l.01.3q.01.29-.28.24-1.31-.2-2.62.07-.45.1-.73-.27-.19-.25.01-.54a.53.52 46.3 0 0 .01-.57M190.8 99.76l1.08-.46q.33-.14.65.01.22.11.2.34-.01.26-.24.4-1.18.69-2.8.25a.4.4 0 0 1-.18-.66q.2-.22.45 0 .38.32.84.12"/><path fill="#b8e48a" d="M208.26 99.63q-.07-.51.37-.23.62.4.7 1.3.06.8-.47.2-.52-.58-.6-1.27"/><ellipse fill="#b8e48a" rx="1.01" ry=".42" transform="rotate(129.1 86.977 102.723)"/><path fill="#7fb051" d="M225.58 99.34q.47.77-.56.41a.3.3 0 0 1-.13-.46q.1-.12.23-.15.3-.06.46.2"/><path fill="#9dca6e" d="M236.42 100.17q-.01-.16-.06-.32-.11-.33.24-.26.58.12.99.53.4.41.08.89l-.79 1.15q-.33.49-.26 1.08.02.2-.05.39-.27.8-.81.16-1.21-1.44.16-2.49a1.32 1.31 69 0 0 .5-1.13M173.01 101.42q.06-.69-.22-1.36-.21-.48.26-.24.22.12.33.37.33.78-.16 1.32a.12.12 0 0 1-.21-.09"/><path fill="#7fb051" d="M230.17 102.16q-2.35-.91-3.61 2.21-.52 1.27-.36-.1.3-2.61 3.13-3.33.46-.12.79.22l.25.26q.26.26.58.08.85-.5.85-1.32 0-.65.56-.32l.29.18a.53.53 0 0 1-.05.93q-.76.36-1.36.97-.46.46-1.07.22M182.32 100.49q.04-.09.14-.12.27-.07.13.17-.04.08-.12.11-.26.11-.15-.16"/><path fill="#b8e48a" d="M211.39 100.67q-.08-.11 0-.23.13-.21.2.04.03.1-.03.19-.08.14-.17 0"/><ellipse fill="#9dca6e" rx=".93" ry=".27" transform="rotate(44.2 -16.278 316.407)"/><ellipse fill="#9dca6e" rx="1.06" ry=".34" transform="rotate(70 50.692 226.367)"/><path fill="#9dca6e" d="M180.14 101.19q.23.06.45.11-.26.1-.45-.11M190.41 101.92q.71.37 1.13.95.57.78-.3.36-1.53-.74-2.04-1.63a.34.34 0 0 1 .57-.36l.23.32a1.32 1.18 83.1 0 0 .41.36"/><path fill="#7fb051" d="m167.01 103.7-1.95-2.16q-.08-.08.01-.16l.21-.2q.18-.17.35.01l1.98 2.16a.13.13 0 0 1-.01.19l-.2.18q-.2.18-.39-.02M168.36 102.21q-.8 0-1.18-.63a.26.26 0 0 1 .29-.39q.78.19.89 1.02"/><path fill="#b8e48a" d="M210.18 101.57a.34.33 33.1 0 1 .59-.12q.15.19.09.44a.32.32 0 0 1-.51.18q-.24-.18-.17-.5"/><path fill="#7fb051" d="M177.28 103.1q.06.07.08.15.07.21-.12.11-.92-.46-.47-1.36.4-.77.34.1-.02.4.09.82.02.1.08.18"/><ellipse fill="#9dca6e" rx="1.68" ry=".27" transform="rotate(63.5 10.275 202.718)"/><path fill="#b8e48a" d="M208.82 102.56a.19.18 32.5 0 1-.29.06q-.2-.17-.04-.43.14-.23.29 0 .12.19.04.37"/><path fill="#5a9031" d="m219.54 102.53.17-.29a.07.06-35 0 1 .12.02q.04.2-.16.24-.07.01-.13.03"/><path fill="#7fb051" d="M168.36 102.21q.72-.33 1.37.73.71 1.18-.57.67-.5-.21-.8-1.4"/><path fill="#5a9031" d="M172.13 102.68q.24 0 .1.28-.2.42-.49.06-.27-.34-.01-.57.11-.1.19.03.03.05.05.1.04.11.16.1"/><path fill="#7fb051" d="M212.52 102.72q-.09-.06-.13-.16-.08-.17.11-.14.21.04.17.25-.03.14-.15.05"/><ellipse fill="#9dca6e" rx=".91" ry=".31" transform="rotate(54.3 -3.266 243.116)"/><path fill="#5a9031" d="M249.25 103.32a.27.27 0 0 1 .28-.36q.7.07.9.79.14.48-.35.34-.62-.19-.83-.77"/><path fill="#9dca6e" d="M221.62 103.51a.49.49 0 0 1 .73-.04q.46.47.23 1.01a.56.56 0 0 1-.99.07q-.34-.56.03-1.04"/><path fill="#7fb051" d="M224.36 104.1a.07.07 0 0 1 .02-.08q.14-.1.25-.04.06.04.06.11-.03.49-.33.01M239.87 105.61q-.72-.52-1.22-1.23-.34-.48.24-.57t.88.43q.85 1.46 1.72 2.95.3.53-.03 1.02-.49.72-.7-.12l-.47-1.86a1.11 1.08-80.1 0 0-.42-.62"/><path fill="#b8e48a" d="M199.27 106.79q-.86-.2-1.05-.76a.77.77 0 0 1 .24-.85q1.18-.93 2.39-1.1.87-.12.56.71-.15.4-.48.7a.61.6 52.3 0 1-.92-.12q-.12-.18-.31-.27-.46-.22-.73.21-.39.62.3 1.48"/><path fill="#265dfe" d="M296.3 108.28q.71.68.32 1.78-.18.49.1.94l.59.94a1.15 1.14-53.5 0 1 .13.9c-.6 2.25-1.18 5.21-2.7 7.02q-3.06 3.64-8.93 1.54-2.92-1.04-3.6-3.25-.71-2.26-1.47-4.48-.2-.58-.81-.62l-3.44-.19q-.57-.03-.98-.43l-4.13-3.96a.96.96 0 0 1-.28-.7q.03-.94.42-1.95c3.26.44 5.04-.52 7.81-1.28q2.13-.58 4.32-.01 6.43 1.65 12.65 3.75"/><path fill="#b8e48a" d="M215.09 105.09q-.7.2-1.25-.04-.59-.25-.02-.52.84-.41 1.38.09a.28.28 0 0 1-.11.47"/><ellipse fill="#7fb051" rx=".94" ry=".32" transform="rotate(50.5 4.085 297.35)"/><path fill="#b8e48a" d="M193.15 104.9a.4.4 0 0 1 .53.23q.07.2 0 .4a.4.4 0 0 1-.76.01q-.16-.48.23-.64M211.7 105.07a.18.18 0 0 1 .28.15q.01.49-.43.74-.36.2-.28-.2.09-.46.43-.69"/><ellipse fill="#7fb051" rx=".75" ry=".45" transform="rotate(37.1 -31.871 426.72)"/><path fill="#9dca6e" d="M203.16 105.42q.03-.16.19-.14.44.04.48.55.03.42-.35.23-.41-.21-.32-.64"/><path fill="#7fb051" d="m169.02 105.43.61-.11q.11-.02.19.06 1.05 1.15.56 2.3-.89 2.08-.92-.18-.01-1-.58-1.68-.27-.32.14-.39"/><path fill="#5a9031" d="M270.71 105.62q.17.05.33.11l.06.4q.07.45-.29.73-.69.56-1.03 1.38-.36.84-.66-.02-.08-.23-.06-.47a.88.87-15.5 0 1 .35-.61q.54-.41.57-1.14.03-.48.73-.38"/><path fill="#7fb051" d="M167.36 107.95q.25.28.33.64.16.71-.55.56-1.07-.23-.47-1.38a1.77 1.77 0 0 0 .2-1q-.1-1.2.68-.68a.51.5-52.3 0 1 .09.76l-.28.31q-.36.4 0 .79M238.89 107.25a.3.3 0 0 1-.44.22q-.69-.39-.51-1.23a.38.37 31.7 0 1 .66-.15q.4.5.29 1.16"/><ellipse fill="#b8e48a" rx=".86" ry=".45" transform="rotate(42.5 -42.679 297.107)"/><path fill="#7fb051" d="M229.73 106.83q-.2-.04-.32-.21-.27-.38.14-.15.15.08.26.23.12.16-.08.13M234.48 106.41q.21.02.47.3a.39.38 67.9 0 1-.27.65q-.48.01-.53-.62-.03-.36.33-.33M204.74 107.35q-.3.23-.2-.13.08-.29.35-.45.82-.46.21.24-.17.19-.36.34"/><path fill="#376f0e" d="M246.34 107.13q1.54 1.29 2.29 3.61.63 1.67.02 3.41-.17.5-.5.09-.86-1.1-1.15-2.05l-2.74-4q1.81-1.88 2.08-1.06"/><path fill="#9dca6e" d="M199.27 106.79q.93-.14 1.26.27a.32.32 0 0 1 0 .38q-.17.21-.38.17-.13-.03-.22-.11-.36-.32-.66-.71"/><path fill="#7fb051" d="M235.8 107.37q-.38-.15-.32-.52a.32.31-74.8 0 1 .42-.25q1.13.41.89 1.54-.11.5-.48.15-.25-.22-.24-.53 0-.28-.27-.39"/><path fill="#9dca6e" d="M248.63 110.74q-.75-2.32-2.29-3.61 3.07-.62 2.29 3.61M185.51 108.47q-.47.12-.59-.26-.14-.48.07-.75a.42.42 0 0 1 .73.11q.11.27-.21.9"/><path fill="#b8e48a" d="M194.27 107.43q.04-.08.14-.07.21.03.09.21-.05.07-.14.05-.17-.03-.09-.19"/><path fill="#9dca6e" d="M254.87 107.75q0-.55.71-.47.78.09.38.76-.73 1.23-2.25 1.66-.44.12-.53-.32-.08-.38-.01-.72.19-.95.83-.2.12.14.36.04.5-.21.51-.75"/><path fill="#5a9031" d="M187.91 110.77q-1.58-1.3-1.73-.31-.89-1.05-.67-1.99l.66.75q.35.39.56-.08l.4-.88a.53.53 0 0 1 .91-.09q.9 1.28-.13 2.6"/><path fill="#7fb051" d="m244.26 108.19 2.74 4q-3.87-2.27-2.74-4"/><path fill="#b8e48a" d="M193.39 109.08q.13.17.05.39-.11.36-.44.18-.47-.26-.12-.61.28-.28.51.04M195.65 110.02q-.23-.21-.24-.51-.03-.74.49-.21.17.17.24.39.38 1.11-.49.33"/><ellipse fill="#9dca6e" rx="1.29" ry=".44" transform="rotate(31.5 -82.618 452.986)"/><path fill="#9dca6e" d="M183.49 109.84q.09-.21.26-.05.26.24.17.61a.24.24 0 0 1-.47.01q-.08-.29.04-.57"/><path fill="#7fb051" d="M219.15 113.87q-.19.03-.37-.02-.61-.17-.22-.67l2.44-3.13q.52-.66.83.12.07.18.03.36-.05.23-.24.38-1.02.78-1.44 1.89a.76.76 0 0 0 .2.84q.41.36.6.87.29.77-.49.54-.41-.11-.47-.53-.11-.77-.87-.65"/><path fill="#9dca6e" d="M187.91 110.77q.64 1.68-1.73-.31.15-.99 1.73.31"/><ellipse fill="#9dca6e" rx="1.12" ry=".47" transform="rotate(86.8 25.852 145.398)"/><circle cx="171.58" cy="110.75" r=".51" fill="#9dca6e"/><path fill="#7fb051" d="M257.96 110.82a.37.37 0 0 1 .24-.55q.61-.13.76.36a.42.41 86.3 0 1-.46.53q-.38-.06-.54-.34"/><path fill="#9dca6e" d="M191.18 111.39q-.2.11-.33-.08a.28.28 0 0 1 .26-.44q.28.04.38.31.07.17-.12.18h-.1q-.05.01-.09.03"/><path fill="#b8e48a" d="M196.05 111.52q0-.39.38-.39.5-.01.2.39l-.91 1.23q-.32.43-.37-.1-.05-.52.46-.75a.4.4 0 0 0 .24-.38"/><path fill="#7fb051" d="M222 111.4q-.01-.18.15-.26.31-.17.48.14l.9 1.54q.56.96-.45.5l-1.59-.72q-.44-.2-.12-.56.12-.13.3-.18.36-.09.33-.46M224.95 111.75a.23.22 78.2 0 1-.13.21q-.26.13-.49-.23a.3.3 0 0 1 .09-.41q.53-.34.53.43M236.78 112.91q-.11.72-.65.23l-.7-.63q-.36-.33-.08-.73.19-.27.54-.4.62-.22.81.41.16.53.08 1.12"/><path fill="#b8e48a" d="M194.02 112.91q.17.22.44.34.5.21.19.66-.09.12-.24.17-.56.2-.76-.36-.45-1.25.55-2.04.76-.59.27.24-.09.15-.26.22-.58.26-.19.77"/><ellipse fill="#9dca6e" rx="1.87" ry=".47" transform="rotate(-33.9 292.988 -299.036)"/><path fill="#9dca6e" d="M256.09 112.73q.25.12.44.3.21.2.01.42-.38.4-1.05-.34a.93.92-62.2 0 1-.23-.75q.11-.83.76-.94.8-.14.32.52-.23.33-.29.7a.09.09 0 0 0 .04.09"/><path fill="#b8e48a" d="M264.2 111.74a.46.45-51.4 0 1 .69-.08q.29.28.21.68-.14.74-.89.64a.21.2-6.2 0 1-.18-.14q-.19-.57.17-1.1"/><path fill="#7fb051" d="M233.69 112.3q-.4.44-.98.58a.33.33 0 0 1-.33-.52q.47-.59 1.1-.57.65.03.21.51"/><ellipse fill="#9dca6e" rx="1.07" ry=".49" transform="rotate(15 -312.6 929.536)"/><path fill="#265dfe" d="M175.79 133.32c-6.58-5.38-9.19-12.96-10.44-21.04l1.22.53a.33.33 0 0 0 .46-.25q.04-.24.28-.2.69.09.05.36-.63.28-.17.79c2.25 2.54 5.26 4.96 6.99 7.88 2.2 3.71 2.18 6.81 1.61 11.93"/><path fill="#b8e48a" d="M186.56 112.27q.48-.02.26.45-.19.41-.45.03-.3-.46.19-.48"/><path fill="#9dca6e" d="M183.85 113.31a.26.23 57.7 0 1 .03-.18q.26-.36.65-.17a.37.36-41.6 0 1-.04.67q-.5.19-.64-.32"/><ellipse fill="#b8e48a" rx=".75" ry=".23" transform="rotate(57.4 -8.495 231.346)"/><path fill="#7fb051" d="M243.45 113.61q-.55 2.46-1.58 1.1.23-1.23.91-1.49.2-.07.4.02.31.14.27.37"/><path fill="#b8e48a" d="M188.54 113.97q.05-.01.07.01.03.05.01.1-.07.13-.18.23-.2.15-.1-.08.08-.18.01-.36-.06-.18.12-.12.2.07.06.19-.08.06.01.03"/><path fill="#5a9031" d="M197.57 113.67q.15-.16.37-.1a.17.16-52.9 0 1 .04.3q-.11.07-.23.1-.64.19-.18-.3"/><path fill="#9dca6e" d="M205.89 114.48q-.29-.06-.43-.33-.22-.42.24-.34.81.15 1.58.53.48.24.42.77l-.2 1.75q-.04.35-.33.15l-.28-.19q-.08-.05-.06-.11.33-.93-.18-1.7-.27-.42-.76-.53"/><circle cx="274.05" cy="114.23" r=".43" fill="#9dca6e"/><path fill="#9dca6e" d="M226.04 114.1a.39.39 0 0 1 .5-.04q.57.4.27 1.13a.5.49-55.8 0 1-.82.16q-.57-.59.05-1.25"/><path fill="#407919" d="M243.45 113.61q3.53 3.88 7.9 3.05 1.61-.31 3.89 1.14-.42.54.19 1.12.22.21.33-.07.06-.13-.02-.37.5.27.63.89a.58.56 60 0 1-.12.49q-.24.29.02.5.2.15.44.17 1.03.08 2.07.17.53.05.84.47l3.69 5.01-8.33-.71q-.48-.21-1.19-.09-.97-.14-1.87.11-.48.14-.64.62-1.88 5.53-6.67 8.69c-6.14 4.06-14.15 7.73-21.87 8.74q-.42-.26-2.02-.72-.84-.24-.71-1.28 2.21 1.9.23-1.71.13-1-.08-1.97-.23-1-1.44-.83.1-1.02-.92-.97l-.84-1.27q.56.17.95.07a.33.33 0 0 0 .11-.59q-.38-.25-1.06-.14 1.32-.07 2.53-.56.69-.27 0-.56-.17-.08-.22-.24-.14-.45.28-.67 2.77-1.4 4.46-4.14.43 1.04 1.09 1.65.43.41.37-.18-.17-1.65-1.82-2.61.13.59-.91.38l.31-.45a1.13 1.13 0 0 1 .78-.46q1.29-.14 2.62-.34 1.12-.17 2.68.09 1.39.23 2.82.19-.12.6.61.65a.4.39-16.3 0 0 .35-.63q-.23-.3-.96-.02.87-.88 1.29-2.25.68.85 1.02.52 2.77 1.66 5.02-.3.39-.34 0-.68l-1.74-1.5q-.47-.4.15-.44l3.34-.18a.79.78-74.7 0 0 .62-.36q.59-.87-.59-1.96.4.03.63-.05.59-.19.13-.59-1.23-1.07-.1-2.12.24-.23 0-.45-.11-.09-.26-.11l.41-1.05q1.03 1.36 1.58-1.1m2.11 4.56q.31-.37.13-.79-.05-.12-.18-.17-.34-.15-.48.21a1.42 1.26-41.6 0 0-.07.58q.09.75-.27 1.59-.16.39.26.45l.25.03q.06.01.09-.05.26-.54.11-1.12a.81.8 57.8 0 1 .16-.73m4.89 1.59q-.42-1.18-1.79-1.1-.82.06-.1.45.73.39 1.24 1.02 1.37 1.67.65-.37m9.032 2.287a.84.42 38 0 0-.403-.848.84.42 38 0 0-.92-.186.84.42 38 0 0 .402.848.84.42 38 0 0 .92.186m-4.392.543q-.32.61-.15 1.23a.37.37 0 0 0 .69.07q.3-.6.16-1.21a.38.37-37.5 0 0-.7-.09m-27.22 3.72a.25.24 80.4 0 0-.18.26q.05.43.49.39.47-.05.22-.45-.18-.3-.53-.2m19.88 1.89q.55-.61.49-1.38-.06-.73-.59-.23-.7.64-.43 1.5.17.5.53.11m-3.49-.86c-.43.79-1.22.98-1.61 1.96q-.07.17-.02.35.04.14.15.21.46.26.73-.18.63-1.03.92-2.27.16-.69-.17-.07m-8.948 6.432a.93.43 112 0 0 .747-.7.93.43 112 0 0-.05-1.024.93.43 112 0 0-.748.7.93.43 112 0 0 .05 1.024m-13.872.638q-.26-.67-.88-1.04-.46-.28-.3.23.24.76.87 1.09.54.28.31-.28m6.35 2.65.39-.61q.31-.47-.25-.47l-.42.01q-.19 0-.21.18-.22 1.78-.11 3.15.08 1.07.67.17.54-.81-.04-1.56-.32-.43-.03-.87m9.592-.627a.97.54-21.6 0 0-1.1-.145.97.54-21.6 0 0-.704.86.97.54-21.6 0 0 1.1.144.97.54-21.6 0 0 .704-.86m-13.422 2.927a.3.3 0 0 0-.07.53q.56.39 1.15.2.68-.22.08-.6-.56-.36-1.16-.13"/><path fill="#7fb051" d="M235.97 117.2c-.05-.85-.64-1.39-1.16-1.96q-1.03-1.14.42-.63 1.76.62 1.39 3.31-.1.78-.45.07-.17-.36-.2-.79M258.53 114.6a.24.24 0 0 1 .26-.3q.74.11.67 1.04-.04.63-.45.15-.33-.37-.48-.89"/><path fill="#9dca6e" d="M279.18 114.81q.04-.3.33-.22.18.05.32.2a.32.32 0 0 1-.33.52q-.37-.1-.32-.5"/><path fill="#7fb051" d="M204.25 115.26q.53.49.97 1.03.5.62-.29.7l-.48.05q-.82.09-.39.79.83 1.34 2.29.29a.13.12 50.1 0 1 .17.02l.23.26a.26.26 0 0 1-.13.42q-1.39.35-2.66-.15-.66-.25-.49-.93.29-1.23.31-2.72 0-.51.31-.1.03.04.03.09.01.15.13.25"/><path fill="#9dca6e" d="M233.08 116.93q.02.64.31 1.21.43.84-.37.36-.19-.11-.34-.29a1.01 1-53.3 0 1-.15-1.09q.44-.96.08-1.96-.12-.33.23-.36l.48-.04q.22-.02.3.2.24.68-.25 1.21a1.08 1.07 66 0 0-.29.76"/><path fill="#265dfe" d="M177.91 132.41q.55-6.07-.21-10.09-.81-4.29-4.94-6.59-1.12-.63.17-.65c4.38-.09 6.1 7.82 6.06 11.03-.03 2.07.45 6.21-1.2 7.6q-.38.32-.43-.17-.03-.31.19-.48.32-.25.36-.65"/><ellipse fill="#b8e48a" rx=".83" ry=".36" transform="rotate(55.8 -12.367 241.35)"/><ellipse fill="#7fb051" rx=".57" ry=".23" transform="rotate(61.8 37.126 281.637)"/><path fill="#265dfe" d="M297.19 121.35c1.19-1.24.8-3.56.98-5.3q.17-1.65.57-.04 1.13 4.6-2.22 7.93a.53.52-62.7 0 1-.45.15l-.81-.12a.2.2 0 0 1-.13-.33q1.02-1.22 2.06-2.29"/><path fill="#9dca6e" d="M241.46 115.76q.15.02.26.11.24.22 0 .45-1.13 1.05.1 2.12.46.4-.13.59-.23.08-.63.05-1.54-2.78.4-3.32"/><ellipse fill="#9dca6e" rx=".94" ry=".53" transform="rotate(57 7.481 270.3)"/><path fill="#ae5b8e" d="M272.99 117.52q-.39.76-1.04 1.23-.71.52-.33-.28.57-1.18 1.81-2.33.37-.35.37.16.01.45-.37.71-.28.2-.44.51"/><path fill="#b8e48a" d="m191.94 116.55.38-.18q.66-.31.23.28-.2.28-.49.46-.8.49-1.6-.21-.6-.51.18-.36.3.06.59.11.37.06.71-.1"/><path fill="#7fb051" d="M216.91 118.37q.11.8.81 1.26.02.01 0 .03l-.2.18q-.16.15-.28-.04-.69-1.11-.97-2.55-.21-1.08.74-.53.12.07.22.15.56.46-.05.89a.64.64 0 0 0-.27.61"/><ellipse fill="#b8e48a" rx=".49" ry=".33" transform="rotate(73.1 55.044 239.824)"/><path fill="#b8e48a" d="M189.6 117.59c-.26.41-.23.86-.21 1.31q.03.63-.39.16-.41-.46-.34-1.01.07-.56.63-.82.76-.34.31.36"/><path fill="#7fb051" d="M245.4 118.9q.15.58-.11 1.12-.03.06-.09.05l-.25-.03q-.42-.06-.26-.45.36-.84.27-1.59a1.42 1.26-41.6 0 1 .07-.58q.14-.36.48-.21.13.05.18.17.18.42-.13.79a.81.8 57.8 0 0-.16.73"/><path fill="#ae5b8e" d="M261.06 117.59a.28.28 0 0 1 .22-.43q.51-.04.84.46.29.43-.23.44-.55 0-.83-.47"/><path fill="#9dca6e" d="M255.24 117.8q.38.31.5.68.08.24.02.37-.11.28-.33.07-.61-.58-.19-1.12"/><ellipse fill="#b8e48a" rx="1.29" ry=".53" transform="rotate(-8.7 915.747 -1764.854)"/><path fill="#7fb051" d="M201.67 118.46q.26.19.19.51a.16.16 0 0 1-.22.11q-.31-.12-.29-.46.02-.37.32-.16"/><path fill="#9dca6e" d="M219.83 119.21q-.34-.21-.6-.5-.5-.59.26-.45.8.14 1.43.61.42.32.04.69-.22.21-.52.12-.24-.07-.39-.27-.09-.12-.22-.2M263.96 119.5c.02.26.07.48.16.71q.21.52-.12.07-.62-.85-.93-1.82-.16-.48.27-.21.55.34.62 1.25"/><path fill="#7fb051" d="M280.16 119.17q-.03-.23.01-.45.07-.41.24-.03.42.99.03 1.83-.12.27-.42.35-.22.06-.44.02a.39.39 0 0 1-.13-.72l.3-.17q.48-.28.41-.83"/><ellipse fill="#ae5b8e" rx=".74" ry=".53" transform="rotate(37.8 -61.132 390.154)"/><path fill="#7fb051" d="M250.45 119.76q.72 2.04-.65.37-.51-.63-1.24-1.02-.72-.39.1-.45 1.37-.08 1.79 1.1"/><path fill="#b8e48a" d="M212.05 119.55q.02-.05.03-.1.02-.1.04.01.06.45.02.89a.95.95 0 0 1-.57.77l-.91.39q-1.13.5-.48-.55.52-.85 1.52-1.13.23-.07.35-.28"/><circle cx="282.43" cy="120.44" r=".29" fill="#20546d"/><path fill="#7fb051" d="M203.3 121.37q-.14.26-.39.39-.22.11-.42-.03-.6-.43.13-.53.67-.09 1.12-.6.68-.77 1.24.02.26.36-.18.39l-1.04.07q-.31.02-.46.29M234.26 124.5q-.34.33-1.02-.52-1.03-1.31-.53-2.92.21-.7.65-.12.37.48.12 1-.24.47-.01.94z"/><path fill="#9dca6e" d="M191.97 122.13q.16-.02.29.08.5.41-.13.26c-.78-.18-1.11-.71-1.73-1.14q-.2-.13-.08-.39.16-.37.28.02.15.5.5.84.37.36.87.33M205.8 121.28q.66-.3 1.35-.25.7.05.14.47-.7.52-1.47.26-.6-.21-.02-.48"/><ellipse fill="#9dca6e" rx="1.02" ry=".59" transform="rotate(64.2 17.69 244.112)"/><ellipse fill="#9dca6e" rx=".84" ry=".42" transform="rotate(38 -47.064 436.599)"/><ellipse fill="#9dca6e" rx="1.05" ry=".32" transform="rotate(115.9 93.798 143.594)"/><path fill="#7fb051" d="M211.89 121.78a.26.26 0 0 1 .44-.13q.35.35.27.81a.29.28 28.8 0 1-.49.14q-.33-.35-.22-.82"/><ellipse fill="#9dca6e" rx="1.4" ry=".41" transform="rotate(90.5 43.096 165.034)"/><path fill="#7fb051" d="M203.63 122.58q-.15-.19.08-.29.3-.14.56.06a.25.25 0 0 1-.13.45q-.31.03-.51-.22"/><path fill="#9dca6e" d="M255.09 122.59a.38.37-37.5 0 1 .7.09q.14.61-.16 1.21a.37.37 0 0 1-.69-.07q-.17-.62.15-1.23"/><path fill="#b8e48a" d="m270.17 123.17-.95.37q-.73.28-.26-.35.58-.78 1.51-.63.68.11.96.67.26.52-.27.29l-.76-.35a.3.27 42.1 0 0-.23 0"/><path fill="#7fb051" d="M202.25 126.75q-.31.06-.4.34-.14.43.19.74l-.42.71q-.11.18-.28.06-.12-.09-.16-.22-.04-.12.03-.23.8-1.21-.36-2.16a1.18 1.15-72.9 0 1-.41-.8q-.09-1.16.65-2.12.44-.56.73.08.37.78 1.23.86.63.05.65.68.01.37-.31.58-.43.28-.66-.18-.21-.44-.69-.53-.81-.17-.48.59z"/><path fill="#b8e48a" d="M211.55 124.21q.22.09.39.28.46.52-.23.56-1.79.1-1.99-1.51a.45.45 0 0 1 .65-.46q.72.38 1.18 1.13"/><ellipse fill="#7fb051" rx=".68" ry=".39" transform="rotate(46.5 -30.005 326.895)"/><path fill="#b8e48a" d="M220.38 124.05q.86-.4 1.5.04.58.4-.08.66-.78.31-1.45-.07a.36.35 48 0 1 .03-.63"/><path fill="#7fb051" d="M204.65 125.05a.17.17 0 0 1 .2-.2q.67.13.92.81a.26.26 0 0 1-.35.33q-.63-.28-.77-.94"/><path fill="#9dca6e" d="M209.28 126.76q.07-.19.08-.37.01-.27.11-.02.13.33-.02.65-.16.33-.52.36-.95.08-1.63-.7a1.37 1.34 22.9 0 1-.34-.81q-.06-.91.67-.84a.48.47 6.9 0 1 .43.54q-.1.83.45 1.36.52.5.77-.17"/><path fill="#376f0e" d="m254.98 125.47-1.19-.09q.71-.12 1.19.09"/><path fill="#b8e48a" d="M211.92 127.62q-.05.37-.3.61-.31.31-.32-.13-.05-1.32 1.14-2 .5-.29.29.25-.18.43-.52.75-.24.21-.29.52"/><path fill="#9dca6e" d="m218.57 128.28-.85-1.43q-.33-.55.3-.49.21.01.39.12.26.17.35.47.18.63.15 1.24-.02.62-.34.09"/><path fill="#7fb051" d="M227.87 126.31q.35-.1.53.2.25.4-.22.45-.44.04-.49-.39a.25.24 80.4 0 1 .18-.26M231.95 126.23q.73-.28.96.02a.4.39-16.3 0 1-.35.63q-.73-.05-.61-.65"/><path fill="#9dca6e" d="M247.75 128.2q-.36.39-.53-.11-.27-.86.43-1.5.53-.5.59.23.06.77-.49 1.38M202.25 126.75l.84.13q.66.11.72.79l.05.58q.08.89-.56.27-.56-.54-1.26-.69-.33-.31-.19-.74.09-.28.4-.34M224.01 127.96q-.37-.28-.36-1.14 1.65.96 1.82 2.61.06.59-.37.18-.66-.61-1.09-1.65"/><path fill="#b8e48a" d="M199.23 127.25q.18-.3.48-.2.32.1.24.42-.08.38-.42.36a.38.38 0 0 1-.3-.58"/><path fill="#7fb051" d="M204.68 127.35a.37.37 0 0 1 .63-.28q.31.32.44.73a.32.32 0 0 1-.41.4q-.62-.2-.66-.85"/><path fill="#9dca6e" d="M242.65 129.3c.39-.98 1.18-1.17 1.61-1.96q.33-.62.17.07-.29 1.24-.92 2.27-.27.44-.73.18-.11-.07-.15-.21-.05-.18.02-.35"/><path fill="#5a9031" d="M222.74 127.2q.07.33-.37.38a.24.23-69.1 0 1-.18-.41q.16-.14.55.03"/><path fill="#7fb051" d="M198.42 129.32a.28.28 0 0 1 .43-.13q.27.19.26.5-.02.43-.41.25-.44-.2-.28-.62"/><path fill="#9dca6e" d="M205.4 129.31q.65-.61 1.41.04.08.07.05.16l-.09.32q-.13.44-.51.19-.77-.49-1.47-.02-.31.2-.51-.11-.1-.16-.1-.35.02-.43.4-.25l.26.11q.31.15.56-.09"/><path fill="#7fb051" d="M220.02 129.51a.25.25 0 0 1 .25-.36q.31.04.33.35a.25.24 10 0 1-.35.24q-.15-.08-.23-.23"/><ellipse fill="#9dca6e" rx=".97" ry=".53" transform="rotate(-16.4 553.546 -635.82)"/><circle cx="215.91" cy="131.08" r=".32" fill="#7fb051"/><path fill="#7fb051" d="m199.08 132.06-.31.17a.14.13 81.4 0 1-.2-.15q.29-1.25 1.38-.8 1.17.48 1.88 1.4.45.59-.21.24-.67-.35-1.31-.8-.59-.43-1.23-.06"/><path fill="#5a9031" d="M186.68 131.32a.13.13 0 0 1 .21.01q.15.23-.05.43-.18.17-.24-.07-.05-.2.08-.37"/><path fill="#9dca6e" d="M189.49 131.65q-.06-.56.27-.11.66.91.92 1.84.53 1.86-.6.28-.44-.63-.59-2.01M206.01 132.11c.47-.11.8-.32 1.18-.61a.33.32-44.2 0 1 .41 0q.26.21.18.48-.06.18-.21.28-.8.55-1.65.8-1.31.38-.49-.71.1-.13.58-.24M184.54 132.29a.06.06 0 0 1-.09.02q-.14-.09-.12-.23.03-.14.15-.08.17.08.06.29M192.76 132.28l1.51-.29a.53.52 78.2 0 1 .61.41q.05.21-.03.4-.16.41-.58.31l-1.52-.36q-1.1-.26.01-.47"/><ellipse fill="#7fb051" rx=".93" ry=".43" transform="rotate(112 73.006 145.932)"/><circle cx="186.38" cy="133.41" r=".3" fill="#7fb051"/><path fill="#9dca6e" d="M221.44 134.41q.23.56-.31.28-.63-.33-.87-1.09-.16-.51.3-.23.62.37.88 1.04"/><path fill="#7fb051" d="M203.5 134.31q-.12-.02-.16-.32a.06.06 0 0 1 .09-.06q.11.09.19.21.13.21-.12.17"/><ellipse fill="#9dca6e" rx=".68" ry=".51" transform="rotate(-3.4 2357.288 -3029.367)"/><circle cx="201.54" cy="134.43" r=".42" fill="#9dca6e"/><path fill="#7fb051" d="M181.94 136.41q.28.9-.34.19-.65-.74-.95-1.87-.05-.18.07-.33.14-.16.29-.12.13.04.19.17.43.98.74 1.96M216.96 134.13q.68-.11 1.06.14a.33.33 0 0 1-.11.59q-.39.1-.95-.07-.3-.34 0-.66"/><path fill="#b8e48a" d="M194.09 136.35q-.36-1.34.86-1.87a.32.32 0 0 1 .43.4q-.29.86-.64 1.54-.42.81-.65-.07"/><path fill="#9dca6e" d="M189.72 136.56q-2.16-1.58-3.6-.86 2.05-2.19 3.6.86"/><path fill="#407919" d="m189.72 136.56.54.52q.33.33.39.79.12.97 1.1 1.3-1.51.37.77 1.32.8.34 1.02-.82-.01 1.26.76 2.44-5.55-.57-10.33-3.17.51-2.06 2.15-3.24 1.44-.72 3.6.86m-.83 2.05a.5.5 0 0 0-.5-.5.5.5 0 0 0-.5.5.5.5 0 0 0 .5.5.5.5 0 0 0 .5-.5"/><path fill="#7fb051" d="M210.22 135.39q.07-.15.23-.11.5.11.46.67a.33.33 0 0 1-.57.2q-.3-.32-.12-.76M208.29 136.13a.37.37 0 0 1 .59.04q.22.32.08.7a.42.42 0 0 1-.78.03q-.19-.42.11-.77"/><path fill="#9dca6e" d="M218.72 137.03q-1-.02-.92-.97 1.02-.05.92.97M227.82 137.93q.58.75.04 1.56-.59.9-.67-.17-.11-1.37.11-3.15.02-.18.21-.18l.42-.01q.56 0 .25.47l-.39.61q-.29.44.03.87"/><ellipse fill="#9dca6e" rx=".98" ry=".33" transform="rotate(47.2 -55.818 299.678)"/><ellipse fill="#b8e48a" rx=".97" ry=".54" transform="rotate(-21.6 476.78 -551.44)"/><path fill="#ae5b8e" d="M213.07 138.05a.44.43-56.2 0 1 .65-.13q.69.55.34 1.35a.45.45 0 0 1-.71.15q-.7-.61-.28-1.37"/><circle cx="188.39" cy="138.61" r=".5" fill="#9dca6e"/><path fill="#7fb051" d="M195.38 138.67a.3.29-18.7 0 1 .25-.5q.46.05.44.37-.02.28-.31.29-.22.01-.38-.16"/><path fill="#9dca6e" d="m197.59 139.84-.69-.96q-.17-.23.02-.45l.17-.21a.29.29 0 0 1 .42-.02l1.99 1.88a.6.6 0 0 1-.03.9q-1.06.88-2.21 1.14-1.64.38-.81-1.09.24-.41.75-.42a.49.49 0 0 0 .39-.77"/><path fill="#7fb051" d="M191.75 139.17q.08.72 1.79.5-.22 1.16-1.02.82-2.28-.95-.77-1.32"/><path fill="#9dca6e" d="M220.24 139.83q1.98 3.61-.23 1.71-.67-.92-.87-1.9-.12-.57.42-.34.28.12.68.53"/><path fill="#7fb051" d="M223.96 139.36q.6-.23 1.16.13.6.38-.08.6-.59.19-1.15-.2a.3.3 0 0 1 .07-.53M207.88 141.97q.33-.11.51.13.41.54-.24.72l-.95.27q-.74.2-.97-.52-.35-1.09-1.13-2.02-.24-.28.11-.41l.26-.09q.15-.06.26.06l1.59 1.71a.53.53 0 0 0 .56.15M214.77 141.65l.59-.28q.43-.21.54.26l.09.38q.09.4-.3.5-2.06.54-3.12-.96a.56.56 0 0 1 .34-.88q.6-.13.76.48a.79.79 0 0 0 1.1.5"/></svg>