<svg xmlns="http://www.w3.org/2000/svg" viewBox="0 0 382 382"><g fill="none" stroke-width="2"><path stroke="#84196d" d="M191.79 76.05c-.47 5.69 3.15 9.12 8.1 11.4" vector-effect="non-scaling-stroke"/><path stroke="#9e3388" d="M199.89 87.45q.52 1.26 1.69 1.33" vector-effect="non-scaling-stroke"/><path stroke="#84196d" d="m201.58 88.78 2.76 1.08" vector-effect="non-scaling-stroke"/><path stroke="#a73d92" d="M204.34 89.86q1-1.39 3.22-2.2" vector-effect="non-scaling-stroke"/><path stroke="#84196d" d="m207.56 87.66 1.58-1.26q.4-.33.92-.37.68-.06.79-.74.08-.49-.18-.91-.83-1.39.21-2.59.44-.5-.2-.67-.14-.04-.26 0-.63.22-.75-.47-.36-2.26-1.4-4.42" vector-effect="non-scaling-stroke"/><path stroke="#7e1367" d="M267.89 126.18q-1.76-1.96-4.04-2.7" vector-effect="non-scaling-stroke"/><path stroke="#a73d92" d="M263.85 123.48q.02-.27-.29-.4" vector-effect="non-scaling-stroke"/><path stroke="#7e1367" d="m263.56 123.08-1.96-2.69" vector-effect="non-scaling-stroke"/><path stroke="#a73d92" d="M261.6 120.39q.41-.82.23-1.51-.17-.64-.66-.2-.21.19-.37.56" vector-effect="non-scaling-stroke"/><path stroke="#7e1367" d="M260.8 119.24q-1.17.1-1.48.32-1.89 1.4-1.34-.88.11-.43.96-1.59" vector-effect="non-scaling-stroke"/><path stroke="#a73d92" d="M258.94 117.09q-.03-1.31-1.42-2.57-.45-.42-1.09.23" vector-effect="non-scaling-stroke"/><path stroke="#7e1367" d="M256.43 114.75q-.94-.14-2.05-.72" vector-effect="non-scaling-stroke"/><path stroke="#972c81" d="M254.38 114.03q1.11-.22 1.13-.76.09-2.44-1.03-2.77" vector-effect="non-scaling-stroke"/><path stroke="#7e1367" d="m254.48 110.5-1.77.36" vector-effect="non-scaling-stroke"/><path stroke="#9e3388" d="m252.71 110.86-.91-.08" vector-effect="non-scaling-stroke"/><path stroke="#7e1367" d="M251.8 110.78q-2.15 2.66-5.13 2.65" vector-effect="non-scaling-stroke"/><path stroke="#9e3388" d="M246.67 113.43q-1.43-.63-1.71-2.18-.11-.67-.59-.18l-.4.41" vector-effect="non-scaling-stroke"/><path stroke="#7e1367" d="M243.97 111.48q-1.47-.9-2.32-2.49-.23-.43-.71-.54-1.4-.32-1.82-1.17" vector-effect="non-scaling-stroke"/><path stroke="#9e3388" d="M239.12 107.28q-.1-.63-.37-1.04-.1-.13-.27-.12-.31.03-.26.33.24 1.59-.93 2.7" vector-effect="non-scaling-stroke"/><path stroke="#7e1367" d="M237.29 109.15q-2.55 1.16-2.19 4.26" vector-effect="non-scaling-stroke"/><path stroke="#972c81" d="m235.1 113.41 2.19 1.61" vector-effect="non-scaling-stroke"/><path stroke="#7e1367" d="M237.29 115.02q-.31 2.83-2.27 4.28" vector-effect="non-scaling-stroke"/><path stroke="#972c81" d="M235.02 119.3q-.64-.11-.95.46" vector-effect="non-scaling-stroke"/><path stroke="#7e1367" d="m234.07 119.76-4.83-1.99" vector-effect="non-scaling-stroke"/><path stroke="#883a8e" d="M229.24 117.77q-.25-1.34-1.55.46" vector-effect="non-scaling-stroke"/><path stroke="#7e1367" d="M227.69 118.23q-.96.81-1.08 1.88-.06.47-.52.56-.38.06-.61.21" vector-effect="non-scaling-stroke"/><path stroke="#9e3388" d="M225.48 120.88q-.34.25-.13.55.37.51 1.15.63" vector-effect="non-scaling-stroke"/><path stroke="#7e1367" d="m226.5 122.06-1.78.86" vector-effect="non-scaling-stroke"/><path stroke="#883a8e" d="M224.72 122.92q-.86-.34-1.19-.83" vector-effect="non-scaling-stroke"/><path stroke="#7e1367" d="m223.53 122.09.35-1.03" vector-effect="non-scaling-stroke"/><path stroke="#972c81" d="m223.88 121.06-.9-2.63a.57.56 70.4 0 0-.72-.35q-.33.12-.14.32" vector-effect="non-scaling-stroke"/><path stroke="#7e1367" d="m222.12 118.4-.89 1.17" vector-effect="non-scaling-stroke"/><path stroke="#9e3388" d="M221.23 119.57q-.67-.85-1.06-.63-1.62.96.25 1.16.46.05.54 1.22" vector-effect="non-scaling-stroke"/><path stroke="#7e1367" d="M220.96 121.32q-1.23-.04-1.4-.97-.09-.48-.56-.65-.83-.29-1.47.4-.4.44-.19.99.23.58-.33.85-1.64.81-1.09 2.43.06.18.21.06l.28-.23q.09-.07.12-.07.14.02.23.11.24.24-.05.41-.13.08-.28.05-.31-.05-.14.21.13.18.33.21.38.04.24.4-.1.24-.33.46" vector-effect="non-scaling-stroke"/><path stroke="#a73d92" d="M216.53 125.98q-.89.75-1.33 1.65" vector-effect="non-scaling-stroke"/><path stroke="#7e1367" d="M215.2 127.63q-.78-.15-1.46-.6" vector-effect="non-scaling-stroke"/><path stroke="#9e3388" d="M213.74 127.03q.09-.66-.3-1.02" vector-effect="non-scaling-stroke"/><path stroke="#7e1367" d="M213.44 126.01q.41-1.7-.73-2.9" vector-effect="non-scaling-stroke"/><path stroke="#9e3388" d="M212.71 123.11q.3-.69.14-1.12-.24-.61-.77-.22l-.63.47" vector-effect="non-scaling-stroke"/><path stroke="#7e1367" d="M211.45 122.24q-3.04.36-3.6 3.53" vector-effect="non-scaling-stroke"/><path stroke="#9e3388" d="M207.85 125.77q-.44.77.02 1.88" vector-effect="non-scaling-stroke"/><path stroke="#a73d92" d="M207.87 127.65q.21.67-.02 1.58" vector-effect="non-scaling-stroke"/><path stroke="#7e1367" d="M207.85 129.23q-.33.44-1.27.98-.55.33-.09.78l1.02 1.01q.55.53.25 1.23-.36.86.08 1.67.12.22.05.46-.04.15-.25.2a.22.22 0 0 1-.27-.21v-1.04q0-.63-.29-.07-.12.23-.18.5a.98.98 0 0 1-1.72.39q-.82-1.03-1.98-1.51-.59-.25-.26-.8.19-.32.64-.57" vector-effect="non-scaling-stroke"/><path stroke="#805066" d="M203.58 132.25q.6-.27.35-.83a.6.59 70.1 0 0-.69-.33q-.3.09-.45.36" vector-effect="non-scaling-stroke"/><path stroke="#7e1367" d="M202.79 131.45q-1.49.61-2.93-.12-.57-.29-.84.29-.38.81-1.09 1.43-.44.39-.16.91l.53 1.01" vector-effect="non-scaling-stroke"/><path stroke="#a73d92" d="M198.3 134.97q-.33.36-.2.75" vector-effect="non-scaling-stroke"/><path stroke="#7e1367" d="M198.1 135.72q.22.86-.83 1.55-1.24.82-1.43 2.65-.1.84.46.2.64-.73 1.03-1.88.27-.77.59-.02l.33.79q.18.42.61.28.13-.04.18-.17.16-.48.59-.21.28.18.4.51t-.11.6q-.77.93-1.71.87-.78-.06-.35.59l.91 1.38" vector-effect="non-scaling-stroke"/><path stroke="#9e3388" d="m191.21 141.66-.14-1.19q-.07-.57-.58-.3-.52.27-.68.99" vector-effect="non-scaling-stroke"/><path stroke="#972c81" d="M182.91 138.3q-.28-1.41 0-2.85a.3.3 0 0 0-.23-.35l-.25-.04q-.18-.04-.21.15l-.39 2.41" vector-effect="non-scaling-stroke"/><path stroke="#73085c" d="M162.31 97.96q.18-.41.2-.99.02-.67.69-.57.57.08.69-.5a.7.7 0 0 1 .62-.56l2.66-.25q.53-.05.61-.58l.28-1.78" vector-effect="non-scaling-stroke"/><path stroke="#a73d92" d="M168.06 92.73q.68 1.12 1.36 1.09.45-.03.24-.44-.39-.76-1.52-.83" vector-effect="non-scaling-stroke"/><path stroke="#73085c" d="m168.14 92.55.12-1.81" vector-effect="non-scaling-stroke"/><path stroke="#a73d92" d="M168.26 90.74q.15.13.34.14.46.04.29-.39-.22-.53-.79-.82-.52-.26-.33.29.15.41.49.78" vector-effect="non-scaling-stroke"/><path stroke="#73085c" d="M168.26 90.74q-1.16.17-2.54 1.22" vector-effect="non-scaling-stroke"/><path stroke="#883a8e" d="m165.72 91.96.35-4.43" vector-effect="non-scaling-stroke"/><path stroke="#73085c" d="M166.07 87.53q.58-1.16.46-2.42" vector-effect="non-scaling-stroke"/><path stroke="#a73d92" d="M166.53 85.11q.42-.41.22-1.03" vector-effect="non-scaling-stroke"/><path stroke="#73085c" d="M166.75 84.08q.89-.62.4-1.88a1.1 1.09-44.7 0 1 .01-.84l1.38-3.26" vector-effect="non-scaling-stroke"/><path stroke="#883a8e" d="M177.45 76.86q.15.67.61 1 .48.33.78-.17.26-.45.21-1.14" vector-effect="non-scaling-stroke"/><path stroke="#a3398e" d="M166.75 84.08q-.47-.1-.58.42-.11.58.36.61" vector-effect="non-scaling-stroke"/><path stroke="#85378b" d="M166.07 87.53q-.44-.35-.64.43-.73 2.78.29 4" vector-effect="non-scaling-stroke"/><path stroke="#a3398e" d="m168.14 92.55-.08.18" vector-effect="non-scaling-stroke"/><path stroke="#ce65bb" d="M211.74 126.32q-1.67.7-1.9 2.63-.07.55-.57.3-.35-.18-.35-.75 0-2.31-1.05-.85" vector-effect="non-scaling-stroke"/><path stroke="#a63b90" d="M243.97 111.48q-.19.83.92 1.17a.6.6 0 0 1 .39.78q-.24.63-.84.57-.2-.02-.34-.16-.1-.1-.13-.23a.37.37 0 0 0-.6-.21q-.57.47-.24 1.08.46.82 1.03.09.53-.68 1.24-.41.47.17.88-.13.3-.22.39-.6M251.8 110.78q-.12.59.05.79a.69.69 0 0 0 1.12-.11q.23-.4-.26-.6" vector-effect="non-scaling-stroke"/><path stroke="#9f3489" d="M254.48 110.5q-.21.52.2 1.54.18.45-.12.83-.65.81-.18 1.16" vector-effect="non-scaling-stroke"/><path stroke="#af459a" d="M256.43 114.75q.3 1.37 2.51 2.34M260.8 119.24q-.26.72.01 1.42.25.63.6.05l.19-.32M263.56 123.08q-.55.14-.75.71a.47.47 0 0 0 .6.59q.46-.15.44-.9M198.1 135.72l1.06.86q.43.36.81-.06.33-.38.02-1.01-.46-.96-1.69-.54" vector-effect="non-scaling-stroke"/><path stroke="#88586e" d="M202.79 131.45q.09.63.79.8" vector-effect="non-scaling-stroke"/><path stroke="#af459a" d="M207.85 129.23q3.18 1.66 3.89-2.91" vector-effect="non-scaling-stroke"/><path stroke="#a63b90" d="M211.74 126.32q-1.12-.01-1.7-.85-.28-.41-.77-.53-1.16-.3-1.42.83M211.45 122.24q-.03.91 1.26.87M213.44 126.01q-.24.04-.33.21a.86.84-53.7 0 0 .14.97q.14.15.49-.16" vector-effect="non-scaling-stroke"/><path stroke="#af459a" d="M215.2 127.63q.47-.01.98-.29.45-.26.75.16.25.33.29.81.02.25.27.23l.26-.02a.14.14 0 0 0 .13-.17q-.21-1.5-1.35-2.37" vector-effect="non-scaling-stroke"/><path stroke="#a63b90" d="M220.96 121.32q2.02.16.27-1.75" vector-effect="non-scaling-stroke"/><path stroke="#9f3489" d="M222.12 118.4q.78 2.33 1.76 2.66" vector-effect="non-scaling-stroke"/><path stroke="#904296" d="M223.53 122.09q-.54-.05-.83-.01-.77.12-.06.45 1 .45 1.54 1.32.29.46.79.24l.23-.1q.84-.36.04-.79l-.52-.28" vector-effect="non-scaling-stroke"/><path stroke="#a63b90" d="M226.5 122.06q.36-.25.37-.51.02-.25-.3-.43-.48-.27-1.09-.24" vector-effect="non-scaling-stroke"/><path stroke="#904296" d="M227.69 118.23q-.01 1.01-.41 2.11-.14.4.28.31l.58-.11a.59.58-87.3 0 0 .44-.41l.66-2.36" vector-effect="non-scaling-stroke"/><path stroke="#9f3489" d="M234.07 119.76q-.43 1.72 1.17 2.07a.38.38 0 0 0 .44-.48l-.66-2.05M237.29 115.02q1.53-.62-2.19-1.61" vector-effect="non-scaling-stroke"/><path stroke="#b54a9f" d="M207.56 87.66q-2.43-1.35-3.22 2.2" vector-effect="non-scaling-stroke"/><path stroke="#ac4196" d="M201.58 88.78q-.78-1.69-1.69-1.33" vector-effect="non-scaling-stroke"/><path stroke="#a63b90" d="m239.12 107.28-.01.56q-.02.73.66.51.26-.08.39.15.29.5-.28.64-1.71.41-2.59.01" vector-effect="non-scaling-stroke"/><path stroke="#972c81" d="M188.468 79.78a.81.37 92.3 0 0 .402-.795.81.37 92.3 0 0-.338-.824.81.37 92.3 0 0-.402.794.81.37 92.3 0 0 .338.824M188.51 81.38q.33-.99-.38-.23-1.59 1.69-.84 4.55.03.13.15.1l.36-.06q.24-.04.19-.28-.32-1.58.52-4.08" vector-effect="non-scaling-stroke"/><path stroke="#883a8e" d="M170.83 85.66q-.75.43-.99 1.15-.17.52-.66.27-.29-.16-.43-.46-.15-.34-.48-.18l-.27.12a.31.3 62.3 0 0-.13.43q.54.88 1.38 1.34a.58.57 31.2 0 0 .75-.18l2.35-3.34q.18-.25.22-.57.02-.24-.16-.29-.81-.19-.42-.92.51-.96-.27-1.55-1.33-.99-1.06.64.23 1.34-.01 2.64-.04.24.18.35.5.27 0 .55" vector-effect="non-scaling-stroke"/><path stroke="#972c81" d="M219.75 84.12q.3.09.5-.14a.57.57 0 0 0-.25-.9q-1.32-.46-2.02-1.63a.57.57 0 0 0-.95-.05q-.7.95-1.69 1.64a.51.5-56 0 0 .17.9q.91.2 1.01 1.11.08.67-.58.82-.39.08-.52.44-.19.51.34.62l.41.09q.49.1.83-.26 1.34-1.36 2.75-2.64M176.08 84.88q-.33.42-.14.88.25.63.69.13.39-.44.15-.94a.41.41 0 0 0-.7-.07" vector-effect="non-scaling-stroke"/><path stroke="#9e3388" d="M172.14 87.31q.12.14.3.11a.09.08-14.6 0 0 .07-.11q-.07-.2-.31-.17-.19.03-.06.17M186.13 88.44c.66 1.36 1.16 2.56.95 4.13a.11.11 0 0 0 .1.13l.26.03a.27.27 0 0 0 .3-.26q.09-2.37-.61-4.18a.5.49-21.6 0 0-.64-.27l-.24.1a.24.23 66.5 0 0-.12.32" vector-effect="non-scaling-stroke"/><path stroke="#a73d92" d="M214.26 88.29q-.33.7.09 1.28a.42.42 0 0 0 .76-.25q0-.55-.22-1.02a.35.34 45.7 0 0-.63-.01" vector-effect="non-scaling-stroke"/><path stroke="#972c81" d="M194.541 90.88a1.28.44 65 0 0-.142-1.346 1.28.44 65 0 0-.94-.974 1.28.44 65 0 0 .142 1.346 1.28.44 65 0 0 .94.974" vector-effect="non-scaling-stroke"/><path stroke="#a73d92" d="M177.04 89.63q-.19.32.17.4.55.11 1.1-.02.59-.14.51-.75a.63.63 0 0 0-.94-.46q-.52.31-.84.83M173.426 90.216a1.48.42 15.5 0 0-1.314-.8 1.48.42 15.5 0 0-1.538.008 1.48.42 15.5 0 0 1.314.8 1.48.42 15.5 0 0 1.538-.008" vector-effect="non-scaling-stroke"/><path stroke="#7e1367" d="m234.05 91.71-.94 4.31" vector-effect="non-scaling-stroke"/><path stroke="#805066" d="M233.11 96.02q-.37.9 1.35.95" vector-effect="non-scaling-stroke"/><path stroke="#7e1367" d="m234.46 96.97.63 1.06" vector-effect="non-scaling-stroke"/><path stroke="#9e3388" d="M235.09 98.03q-.03.27.06.5.08.19.26.29 2.88 1.54 5.25 2.8 2.55 1.34.55-.73-.27-.29-1.11-.29-.55-.01-.89-.45-.96-1.27-2.72-1.1" vector-effect="non-scaling-stroke"/><path stroke="#7e1367" d="M236.49 99.05q.69-1.42 1.8-1.38" vector-effect="non-scaling-stroke"/><path stroke="#9e3388" d="M238.29 97.67q1.01-.36 1.99.11.32.15.51-.15.11-.18-.02-.35-.33-.45-.95-.5" vector-effect="non-scaling-stroke"/><path stroke="#7e1367" d="m239.82 96.78-1.87-3.14" vector-effect="non-scaling-stroke"/><path stroke="#9e3388" d="M237.95 93.64q-.63-.62-1.69-.97a.65.65 0 0 1-.4-.85q.7-1.79-1.22-2.37-1.61-.49-.56.83.31.38-.03 1.43" vector-effect="non-scaling-stroke"/><path stroke="#a63b90" d="M237.95 93.64q-1.63.97-3.9-1.93M239.82 96.78q-2 .19-1.53.89M236.49 99.05q-.63-1.62-1.4-1.02" vector-effect="non-scaling-stroke"/><path stroke="#88586e" d="M234.46 96.97q.12-.09.18-.19.16-.3-.13-.48-.65-.41-1.4-.28" vector-effect="non-scaling-stroke"/><path stroke="#9e3388" d="M182.96 90.63q.31 1 .36-.05.01-.2-.14-.35t-.22.06q-.05.17 0 .34" vector-effect="non-scaling-stroke"/><path stroke="#a73d92" d="m214.47 91.79-.15-.31q-.29-.61-.63-.03-.85 1.45.59 2.46a.64.64 0 0 0 1-.59q-.06-.51-.4-.9-.25-.29-.41-.63" vector-effect="non-scaling-stroke"/><path stroke="#972c81" d="M210.143 93.866a1.42.38 81.8 0 0 .173-1.46 1.42.38 81.8 0 0-.578-1.352 1.42.38 81.8 0 0-.174 1.46 1.42.38 81.8 0 0 .579 1.352M197.95 94.6q-.68-.25-1.35.09-.5.25-.32.78.25.76.96 1.05.54.22.99-.17c1.08-.94 2.46-3.09 1.56-4.56q-.42-.7-.38.12.06 1.25-.45 2.29a.82.81 23 0 1-1.01.4M189.35 92.12q-.73-.48-.31.29.62 1.17 1.88 1.89.88.5.28-.31-.9-1.23-1.85-1.87M220.33 92.47q-.14-.12-.3-.1-.49.08-.26.51l.88 1.69q.39.76.67-.04.26-.74.33-1.52.08-1-1.07-.5-.14.06-.25-.04M223.622 94.294a.53.44 81.1 0 0 .353-.592.53.44 81.1 0 0-.517-.456.53.44 81.1 0 0-.353.592.53.44 81.1 0 0 .517.456M212.64 93.48q-.51.31-.45.91.06.62.56.25.54-.41.3-1.02a.28.28 0 0 0-.41-.14" vector-effect="non-scaling-stroke"/><path stroke="#a73d92" d="M172.67 94.7q-.22.23-.3.53-.19.76.41.25l.98-.84a.43.43 0 0 0 .06-.59q-.15-.2-.39-.25-.48-.11-.65.36-.09.27-.11.54" vector-effect="non-scaling-stroke"/><path stroke="#972c81" d="M182.45 94.74q.44-.12.19-.51a.36.36 0 0 0-.47-.13q-.94.46-.69 1.36a.14.13 73.7 0 0 .16.09q.38-.08.48-.48a.47.47 0 0 1 .33-.33" vector-effect="non-scaling-stroke"/><path stroke="#a73d92" d="M204.248 95.968a.89.36 122.8 0 0 .785-.553.89.36 122.8 0 0 .18-.943.89.36 122.8 0 0-.786.553.89.36 122.8 0 0-.18.943" vector-effect="non-scaling-stroke"/><path stroke="#9e3388" d="M187.19 99.59q-.18.19-.09.43.72 1.88 1.26-.06.83-2.97-.83-4.6-.47-.46-.44.2.05.92.49 1.73.66 1.2-.39 2.3" vector-effect="non-scaling-stroke"/><path stroke="#972c81" d="M210.81 99.08q.22.03.45-.02a.62.61-36 0 0 .18-1.12q-1.25-.76-1.34-2.01-.05-.56-.6-.56-.82 0-1.56-.24-.07-.02-.08.04l-.05.26q-.06.25.2.32l1.21.32a.6.6 0 0 1 .45.65l-.26 2.28q-.06.5.18.95.33.58-.06 1.18-.38.58.24.26 1.12-.57.61-1.76-.27-.65.43-.55" vector-effect="non-scaling-stroke"/><path stroke="#883a8e" d="M226.3 96.59q-.22-.22-.23-.53-.04-.66-.7-.65-.62 0-.79.81a.81.79-68.7 0 0 .36.84q1.58.99 3.39.81.75-.08.18-.57-.56-.47-1.27-.38-.56.08-.94-.33" vector-effect="non-scaling-stroke"/><path stroke="#972c81" d="m175.23 96.93-.54-.46q-.57-.49-.31.22.19.51.67.89.45.35.87-.04.7-.66.83-1.4.07-.42-.28-.18-.4.28-.49.71-.15.77-.75.26" vector-effect="non-scaling-stroke"/><path stroke="#9e3388" d="m183.65 97.4.64-1.11q.44-.76-.28-.26l-1.52 1.04a.57.56 63.5 0 0-.21.65q.2.59.71.95a.41.41 0 0 0 .63-.42l-.06-.28q-.07-.3.09-.57M178.77 96.64q.05.37.39.53a.44.44 0 0 0 .58-.59q-.16-.35-.55-.39-.49-.04-.42.45" vector-effect="non-scaling-stroke"/><path stroke="#972c81" d="M163.74 97.76q.21-.59-.28-.96-.42-.33-.49.2-.08.55.36.88a.27.26 28.1 0 0 .41-.12M202.11 99.02l-.43.13q-1.11.32-.32 1.16.43.44 1.03.51.72.09 1.06-.55.65-1.18.37-2.77-.2-1.18-.59-.05l-.26.75q-.21.63-.86.82M218.21 101.28l.84-.91q.44-.47.28-1.1l-.44-1.84q-.13-.53-.57-.2l-.3.23q-.11.08-.03.2 1.26 1.99-.61 3.7a.44.43-57 0 0 .15.73q.46.15.72.57.38.62.46-.1.03-.27-.26-.37a.56.56 0 0 1-.24-.91" vector-effect="non-scaling-stroke"/><path stroke="#a73d92" d="M166.34 97.83q.25.04.48-.1.41-.24 0-.46-1.17-.64-1.63.65-.12.34-.34.62-1.38 1.7.55 1.87.59.05.48-.53-.17-.96.19-1.9.07-.19.27-.15" vector-effect="non-scaling-stroke"/><path stroke="#9e3388" d="m215.56 98.09.59 1q.42.71.52-.11l.14-1.12q.09-.68-.6-.72-.24-.01-.45.12-.51.31-.2.83" vector-effect="non-scaling-stroke"/><path stroke="#883a8e" d="m190.01 98.08-.1.36q-.19.62.45.71l.43.07q.6.08.36-.47-.2-.46-.52-.81-.44-.48-.62.14" vector-effect="non-scaling-stroke"/><path stroke="#972c81" d="M199.52 98.3q-.35-.01-.28.33.05.23.28.32.36.14.36-.25-.01-.39-.36-.4" vector-effect="non-scaling-stroke"/><path stroke="#a73d92" d="M169.37 100.92q-1.07-1-1.85-2.23-.06-.09-.14-.03l-.21.16a.3.29 56.1 0 0-.07.4q1.08 1.74 1.89 2.21 2.48 1.45.38-.51" vector-effect="non-scaling-stroke"/><path stroke="#972c81" d="M224.3 99.93q-1.44.11-2.66-.84-.15-.12-.35-.08-.05 0-.08.05-.17.2.02.39 2.14 2.17 3.76 1.01.55-.39 1.04.07.23.21.51.03.66-.41-.02-.79l-1.37-.76q-.14-.08-.21.07-.05.13-.06.27-.04.54-.58.58" vector-effect="non-scaling-stroke"/><path stroke="#883a8e" d="M206.97 100.17q-.11.63.41.92a.34.34 0 0 0 .5-.22q.12-.5-.19-.89a.41.41 0 0 0-.72.19" vector-effect="non-scaling-stroke"/><path stroke="#a73d92" d="M228.11 100.91q-.05.35.2.6a.38.38 0 0 0 .6-.07q.78-1.3-1.07-1.74-.75-.18-.2.36l.27.27q.24.24.2.58M178.88 102.31l.34-1.21q.18-.66-.47-.47-.97.27-.82 1.22.06.39.36.64.44.38.59-.18" vector-effect="non-scaling-stroke"/><path stroke="#972c81" d="M172.68 101.77a.27.27 0 0 0 .32.3q.4-.08.48-.48a.28.27-87.7 0 0-.3-.33q-.43.06-.5.51M182.56 101.9q-.04-.47-.53-.68-.48-.2-.92-.03-.91.34.02.6 1.25.35 1.4 1.48.04.29.31.43.22.11.47.09.69-.07.19-.55l-.55-.54q-.34-.33-.39-.8" vector-effect="non-scaling-stroke"/><path stroke="#a73d92" d="M246.91 102.53q-.1.36.26.43.8.16 1.08-.76.2-.69-.5-.52-.64.16-.84.85" vector-effect="non-scaling-stroke"/><path stroke="#9e3388" d="M216.97 102.05a.18.18 0 0 0-.14-.26q-1.64-.08-2.13 1.59-.19.65.42.36 1.26-.59 1.85-1.69" vector-effect="non-scaling-stroke"/><path stroke="#a73d92" d="M203.856 102.862a.68.46 39.4 0 0-.234-.787.68.46 39.4 0 0-.818-.077.68.46 39.4 0 0 .234.787.68.46 39.4 0 0 .817.077" vector-effect="non-scaling-stroke"/><path stroke="#972c81" d="M219.97 102.34q-.18.17-.09.4.44 1.12.85-.01.09-.26-.13-.43-.33-.24-.63.04" vector-effect="non-scaling-stroke"/><path stroke="#a73d92" d="M223.36 103.41a.87.45 45.5 0 0-.289-.935.87.45 45.5 0 0-.93-.305.87.45 45.5 0 0 .288.935.87.45 45.5 0 0 .93.305" vector-effect="non-scaling-stroke"/><path stroke="#972c81" d="M236.33 102.14q-.42.07-.12.44.26.33.4-.07.15-.44-.28-.37M195.664 103.708a1.01.66 36.3 0 0-.423-1.13 1.01.66 36.3 0 0-1.205-.066 1.01.66 36.3 0 0 .423 1.13 1.01.66 36.3 0 0 1.205.066M225.04 103.97l-.05.42q-.06.47.41.4.3-.04.35-.32.31-1.57-1.26-2.25-.15-.07-.22.08l-.1.23q-.13.27.14.41.33.17.56.45.22.25.17.58M165.66 102.58q-.35-.51-.36.11 0 1.13.82 1.95.71.7.42-.25-.3-.98-.88-1.81M244.05 103.06q.05.16.16.28a.5.49-46.3 0 0 .78-.02q.31-.43-.32-.76a.43.43 0 0 0-.62.5" vector-effect="non-scaling-stroke"/><path stroke="#a73d92" d="M169.1 103.15a.25.24-27.1 0 0-.13.39q.52.64 1.39.3a.37.37 0 0 0-.03-.7q-.6-.16-1.23.01M172.69 103.47q.34-.68-.34-.33-.65.33-1.2.9-.25.25-.06.55.09.14.22.22.49.3.78-.2.33-.59.6-1.14M251.44 104.81q-.34.09-.54.37-.97 1.34.58.74 1.15-.45 1.81-1.63a.4.4 0 0 0-.36-.59q-.57.02-.81.55-.21.44-.68.56" vector-effect="non-scaling-stroke"/><path stroke="#805066" d="M232.52 105.24q.67-.17.53-.86-.18-.87-.8-.24-.92.93-1.19 2.15-.19.81.59.51.69-.28.49-.8-.23-.59.38-.76" vector-effect="non-scaling-stroke"/><path stroke="#972c81" d="M189.18 106.203a1.04.43 36.1 0 0-.587-.96 1.04.43 36.1 0 0-1.093-.266 1.04.43 36.1 0 0 .587.96 1.04.43 36.1 0 0 1.093.266M168.57 105.66q0 .09.06.18.17.22.1-.05l-.04-.12q-.15-.51-.12-.01M216.012 107.145a1.32.43 44.5 0 0-.64-1.232 1.32.43 44.5 0 0-1.244-.618 1.32.43 44.5 0 0 .64 1.232 1.32.43 44.5 0 0 1.244.618M166.34 106.24q-.39.57.07.98a.21.2 40 0 0 .29-.02q.4-.44.15-.93a.3.3 0 0 0-.51-.03" vector-effect="non-scaling-stroke"/><path stroke="#9e3388" d="M212.352 109.406a1.69.57 97.4 0 0 .783-1.603 1.69.57 97.4 0 0-.347-1.749 1.69.57 97.4 0 0-.783 1.603 1.69.57 97.4 0 0 .347 1.749" vector-effect="non-scaling-stroke"/><path stroke="#a73d92" d="M235.82 106.49a.44.44 0 0 0-.44-.44.44.44 0 0 0-.44.44.44.44 0 0 0 .44.44.44.44 0 0 0 .44-.44" vector-effect="non-scaling-stroke"/><path stroke="#972c81" d="M199.3 109.02q.46.12.57.54.25 1.06.5 2.16.09.38.48.39.28 0 .47-.33a.61.6 57.4 0 0 .07-.32q-.27-2.65-2.81-3.63a.94.93 7.9 0 1-.59-.77q-.05-.54-.55-.69-.68-.21-.37.42l1.41 2.86q.11.23.3.05.13-.13.1-.3-.07-.5.42-.38" vector-effect="non-scaling-stroke"/><path stroke="#a73d92" d="M248.772 107.76a1.02.27 45.7 0 0-.519-.919 1.02.27 45.7 0 0-.905-.541 1.02.27 45.7 0 0 .519.919 1.02.27 45.7 0 0 .905.541" vector-effect="non-scaling-stroke"/><path stroke="#972c81" d="M168.61 107.66q.46.07.74-.25a.51.51 0 0 0-.48-.83q-.43.08-.6.47a.45.44-74.6 0 0 .34.61M192.63 108.25q.2.38.52.66a.32.31-72.9 0 0 .52-.28q-.13-1.01-.74-1.86-.4-.57-.94-.12l-.63.51q-.61.49.17.57l.39.04q.49.05.71.48" vector-effect="non-scaling-stroke"/><path stroke="#9e3388" d="M229.04 107.753a.71.5 126.2 0 0 .823-.278.71.5 126.2 0 0 .016-.868.71.5 126.2 0 0-.822.278.71.5 126.2 0 0-.016.868" vector-effect="non-scaling-stroke"/><path stroke="#972c81" d="M217.15 107.77q-.01.67.33 1.2a.28.28 0 0 0 .51-.1q.17-.78-.34-1.3-.49-.51-.5.2" vector-effect="non-scaling-stroke"/><path stroke="#a73d92" d="M227.023 108.922a.53.35 136.9 0 0 .626-.106.53.35 136.9 0 0 .148-.618.53.35 136.9 0 0-.626.106.53.35 136.9 0 0-.148.618" vector-effect="non-scaling-stroke"/><path stroke="#9e3388" d="M233.398 109.467a1.14.64 36.4 0 0-.538-1.192 1.14.64 36.4 0 0-1.298-.162 1.14.64 36.4 0 0 .538 1.192 1.14.64 36.4 0 0 1.298.161M260.07 108.52a.25.24 86.5 0 0 .21.19q.33.04.37-.3a.28.28 0 0 0-.39-.28q-.25.11-.19.39M262.39 108.45q.43.4 1.07.42a.29.29 0 0 0 .2-.52q-.48-.41-1.12-.35-.57.06-.15.45" vector-effect="non-scaling-stroke"/><path stroke="#a73d92" d="M257.75 108.86q.75 1.77 1.19 2.09 1.86 1.33.59-.56-.64-.96-1.46-1.75-.7-.67-.32.22M167.53 109.9q-.35-.58-.8-1.09-.5-.57-.78.14-.43 1.09 1.04 1.6 1.15.4.54-.65" vector-effect="non-scaling-stroke"/><path stroke="#9e3388" d="M168.94 109.61a.53.53 0 0 0-.53-.53.53.53 0 0 0-.53.53.53.53 0 0 0 .53.53.53.53 0 0 0 .53-.53" vector-effect="non-scaling-stroke"/><path stroke="#a73d92" d="M245.53 109.51a.59.59 0 0 0-.59-.59.59.59 0 0 0-.59.59.59.59 0 0 0 .59.59.59.59 0 0 0 .59-.59" vector-effect="non-scaling-stroke"/><path stroke="#972c81" d="M219.36 110.46q.6.41.58-.32-.04-1.01-1.03-1.04-.72-.03-.33.58.3.46.78.78" vector-effect="non-scaling-stroke"/><path stroke="#a73d92" d="M297.949 111.772a.95.43 65.2 0 0-.009-1.042.95.43 65.2 0 0-.788-.682.95.43 65.2 0 0 .008 1.042.95.43 65.2 0 0 .788.682M206.59 110.58a.37.37 0 0 0-.37-.37.37.37 0 0 0-.37.37.37.37 0 0 0 .37.37.37.37 0 0 0 .37-.37" vector-effect="non-scaling-stroke"/><path stroke="#9e3388" d="M229.21 111.35q-.28-.37-.52-.8-.41-.72-.54.09-.07.39.16.77.84 1.38 2.17 1.36.77-.01.14-.46-.41-.28-.88-.52-.32-.15-.53-.44" vector-effect="non-scaling-stroke"/><path stroke="#972c81" d="M267.29 112.26q.19.48.33-.02.23-.79.1-1.65-.11-.7-.38-.04-.36.88-.05 1.71" vector-effect="non-scaling-stroke"/><path stroke="#a73d92" d="M212.91 110.6q-.42.24-.57.72-.24.81.42.29.4-.31.41-.85a.18.17 75.9 0 0-.26-.16M168.89 111.65q-.07-.36-.37-.6-.55-.46-.41.24l.52 2.51q.08.4.46.27l.62-.21q.41-.14.17-.5l-.74-1.12q-.18-.27-.25-.59" vector-effect="non-scaling-stroke"/><path stroke="#972c81" d="M198.054 112.824a.95.51 72 0 0 .191-1.062.95.51 72 0 0-.779-.746.95.51 72 0 0-.191 1.062.95.51 72 0 0 .779.745M265.5 111.65q0-.08-.07-.11-.12-.05-.17.07-.13.4.07.7a.3.3 0 0 0 .54-.1q.08-.35-.26-.43-.1-.02-.11-.13" vector-effect="non-scaling-stroke"/><path stroke="#a73d92" d="m187.12 113.64.01 1q.01.72.7.5 1.16-.37.89-1.56a3.53 3.43-73.7 0 0-.86-1.63q-.54-.58-1.05.07-.2.26-.09.57.11.34.3.67a.81.76 32 0 1 .1.38M171.75 113.05q-.31.17-.39.49-.08.35.21.14.63-.45 1.01-1.12.17-.31-.17-.21-.25.08-.35.35-.09.23-.31.35" vector-effect="non-scaling-stroke"/><path stroke="#972c81" d="M206.37 113.16q.22-.04.36-.21.18-.21.04-.44-.15-.22-.44-.22a.56.56 0 0 0-.49.29q-.67 1.26.26 2.89.16.29.44.12.32-.2.24-.74a.62.55 23.2 0 0-.16-.34q-.43-.48-.47-1.06a.27.26 83.1 0 1 .22-.29" vector-effect="non-scaling-stroke"/><path stroke="#9e3388" d="M201.601 114.857a1.16.37 52.2 0 0-.419-1.144 1.16.37 52.2 0 0-1.003-.69 1.16.37 52.2 0 0 .419 1.144 1.16.37 52.2 0 0 1.003.69" vector-effect="non-scaling-stroke"/><path stroke="#a73d92" d="M273.437 114.58a.83.35 35.4 0 0-.474-.765.83.35 35.4 0 0-.88-.196.83.35 35.4 0 0 .474.766.83.35 35.4 0 0 .88.196M263.6 117.4c.82-1.11 1.01-1.69 2.25-2.51q.22-.14.07-.36l-.16-.24q-.12-.17-.3-.07-1.89 1.13-2.13 3.08-.06.54.27.1M278.946 115.67a.78.34 116.2 0 0 .65-.55.78.34 116.2 0 0 .038-.85.78.34 116.2 0 0-.65.55.78.34 116.2 0 0-.038.85M192.02 114.98q-.17.56.27.8a.35.34 18.5 0 0 .51-.25q.07-.44-.2-.7-.41-.39-.58.15" vector-effect="non-scaling-stroke"/><path stroke="#9e3388" d="M204.14 116.62q.43.47.63-.13.28-.85.06-1.65-.23-.83-.74-.13-.75 1.02.05 1.91" vector-effect="non-scaling-stroke"/><path stroke="#a73d92" d="M183.31 116.4q-.09.5.4.38.27-.06.42-.29a.34.34 0 0 0-.29-.52q-.46.01-.53.43" vector-effect="non-scaling-stroke"/><path stroke="#972c81" d="M198.33 116.73q.34.2.41-.18.05-.24-.08-.41-.22-.3-.45-.01-.27.35.12.6" vector-effect="non-scaling-stroke"/><path stroke="#a73d92" d="M267.46 117.51q.08-.51.02-1.01-.04-.32-.33-.47-.37-.2-.74-.03-.48.21-.1.57.46.43.63.98.35 1.11.52-.04M272.83 116.28q-.21-.38-.41.08-.16.37.23.26.33-.09.18-.34" vector-effect="non-scaling-stroke"/><path stroke="#9e3388" d="M190.77 117.12q-.22-.37-.53-.66-.6-.57-.57.26.02.6.53.9 1.42.84 2.81 1.57.7.37.31-.32-.53-.92-1.56-1.07-.66-.1-.99-.68" vector-effect="non-scaling-stroke"/><path stroke="#a73d92" d="M201.71 118.25q.42-.31.42-.88 0-.88-.65-.28l-1.01.93q-.53.49-.02 1 .41.42.95.62a.37.37 0 0 0 .5-.27q.04-.17-.12-.26-.71-.39-.07-.86M275.92 117.92q-.17-.03-.33.04-.68.34-.13.87l.57.54q.36.36.65-.07l.99-1.51q.54-.8-.42-.66-.7.1-1.13.71-.07.11-.2.08" vector-effect="non-scaling-stroke"/><path stroke="#972c81" d="M279.15 117.75q-.11.24.07.35.06.04.12-.02.15-.14.03-.34-.12-.21-.22.01" vector-effect="non-scaling-stroke"/><path stroke="#9e3388" d="M196.21 119.9q0 1.58-1.08 3.05-.23.33.05.61l.24.25q.15.16.32.02 1.76-1.34 1.01-4.37-.2-.8-.94-1.12-.68-.29-.2.27l.21.24q.4.45.39 1.05" vector-effect="non-scaling-stroke"/><path stroke="#a73d92" d="M271.02 120.053a.95.23 111.6 0 0 .564-.798.95.23 111.6 0 0 .136-.968.95.23 111.6 0 0-.564.798.95.23 111.6 0 0-.136.968M273.23 118.44a.28.27-86.5 0 0 .33.38q.18-.06.2-.24.05-.35-.31-.3-.15.02-.22.16M188.11 118.71q-.6.14-.84.71-.21.48.3.36.58-.15.85-.67.27-.53-.31-.4" vector-effect="non-scaling-stroke"/><path stroke="#972c81" d="M276.45 122.02q-1.49.27-3.02-.37-.25-.1-.37.14-.09.18.07.29 2.07 1.44 3.32-.06" vector-effect="non-scaling-stroke"/><path stroke="#a73d92" d="M276.45 122.02q1.44-.28 2.59-1.52.31-.33.04-.7-.09-.14-.17-.28-.39-.81-.74.05-.5 1.25-1.72 2.45" vector-effect="non-scaling-stroke"/><path stroke="#883a8e" d="m199.9 121.71-.03 1.12q0 .18.18.18l.36.01q.64.02.56-.62-.26-1.98-2.59-2.25-.24-.03-.25.21l-.02.26q-.01.08.07.11l1.28.38q.46.13.44.6" vector-effect="non-scaling-stroke"/><path stroke="#9e3388" d="M191.76 121.41a.35.35 0 0 0 .06.58q.48.25.75-.17a.37.37 0 0 0-.25-.56q-.33-.05-.56.15" vector-effect="non-scaling-stroke"/><path stroke="#a73d92" d="M265.14 121.85q.14.51.71.47a.39.39 0 0 0 .29-.61q-.17-.25-.47-.35a.41.41 0 0 0-.53.49M189.76 123.08q-.08-.84-.79-1.02a.6.6 0 0 0-.65.91q.67 1.05 1.78 1.42.46.16.16-.22-.09-.11-.17-.22-.29-.39-.33-.87M267.872 122.81a.66.36 36.3 0 0-.319-.68.66.36 36.3 0 0-.745-.1.66.36 36.3 0 0 .319.68.66.36 36.3 0 0 .745.1" vector-effect="non-scaling-stroke"/><path stroke="#73085c" d="M199.12 124.001a.71.58 40.5 0 0-.163-.902.71.58 40.5 0 0-.917-.02.71.58 40.5 0 0 .163.902.71.58 40.5 0 0 .917.02" vector-effect="non-scaling-stroke"/><path stroke="#a73d92" d="M191.14 123.57a.31.31 0 0 0 .26.48q.62-.01 1.07-.47a.37.36 21.6 0 0-.27-.62q-.66.01-1.06.61" vector-effect="non-scaling-stroke"/><path stroke="#9e3388" d="M190.88 127.36q-.1-.17-.23-.3-.35-.35-.82-.14-.14.06-.26.13-.57.32.02.6 1.55.74 2.99.22.21-.08.13-.29v-.01q0-.01-.01-.01-.22-.47-.57-.08a.79.78 50.3 0 1-1.25-.12" vector-effect="non-scaling-stroke"/><path stroke="#972c81" d="M184.41 138.082a1.1.47 123.1 0 0 .994-.665 1.1.47 123.1 0 0 .207-1.179 1.1.47 123.1 0 0-.995.665 1.1.47 123.1 0 0-.207 1.179M188.317 138.022a.48.42 79.6 0 0 .326-.548.48.42 79.6 0 0-.5-.396.48.42 79.6 0 0-.326.548.48.42 79.6 0 0 .5.396" vector-effect="non-scaling-stroke"/><path stroke="#a73d92" d="M191.569 139.809a1.09.55 125.4 0 0 1.08-.57 1.09.55 125.4 0 0 .182-1.208 1.09.55 125.4 0 0-1.08.57 1.09.55 125.4 0 0-.182 1.208" vector-effect="non-scaling-stroke"/><path stroke="#b54a9f" d="M198.13 79.17q-.03.49.41.78.34.21.34-.19.01-.57-.48-.76a.2.19 11.9 0 0-.27.17" vector-effect="non-scaling-stroke"/><path stroke="#ac4196" d="m197.46 81.69.19-.18a.08.08 0 0 0 0-.12l-2.03-2.02q-.17-.17-.34-.01l-.19.19q-.03.03 0 .07 1.11 1.01 1.99 2.05.18.22.38.02" vector-effect="non-scaling-stroke"/><path stroke="#b54a9f" d="M204.73 82.1q.32-.13.46-.32a.49.49 0 0 0-.27-.77q-.79-.2-1.47.18" vector-effect="non-scaling-stroke"/><path stroke="#a5398e" d="M203.45 81.19q-.28.56-.79.7a.68.68 0 0 1-.84-.45q-.15-.48-.66-.54-.7-.07-.36.54.52.94 1.33 1.2.48.15.92-.09.71-.39 1.68-.45" vector-effect="non-scaling-stroke"/><path stroke="#c75db3" d="M203.45 81.19q-.06.28.01.49.08.22.34.31.41.16.93.11" vector-effect="non-scaling-stroke"/><path stroke="#a63b90" d="M236.04 112.25q-.22.19.07.17.67-.04 1.21-.38.47-.3.97-.06l.89.43q.7.33.31-.34-.43-.77-1.17-1.14-.47-.23-.87.11l-1.41 1.21" vector-effect="non-scaling-stroke"/><path stroke="#af459a" d="M241.4 113.82q.26.23.54.02.32-.24.01-.5t-.57-.01q-.25.25.02.49" vector-effect="non-scaling-stroke"/><path stroke="#9f3489" d="M249.59 116.84q.59-.37.47-1.12-.14-.86-.64-.14c-1.15 1.71-1.87 4.38-4.74 2.86q-.16-.09-.25.08h-.01q-.08.16.08.23 1.81.91 4.27.48.37-.07.37-.45l-.02-1.07q-.01-.57.47-.87" vector-effect="non-scaling-stroke"/><path stroke="#a63b90" d="M239.92 116.38a.35.35 0 0 0-.44-.43q-.26.07-.34.33a.33.33 0 0 0 .27.43q.41.06.51-.33" vector-effect="non-scaling-stroke"/><path stroke="#7e1367" d="M255.979 118.619a.45.39 24.8 0 0-.245-.543.45.39 24.8 0 0-.573.165.45.39 24.8 0 0 .245.543.45.39 24.8 0 0 .572-.165" vector-effect="non-scaling-stroke"/><path stroke="#9f3489" d="M236.74 120.46q.1.55.66.65.45.08.36-.37-.09-.48-.46-.68a.39.38 9.1 0 0-.56.4" vector-effect="non-scaling-stroke"/><path stroke="#904296" d="M251.75 120.93q-.56.1-.99-.21-.57-.42-.87.22-.16.33-.04.69.18.51.71.51 1.52.03 2.35-1.22.34-.52-.27-.6-.34-.04-.5.3a.56.53-82 0 1-.39.31" vector-effect="non-scaling-stroke"/><path stroke="#a63b90" d="M242.05 122.86q1.55-.18.19-.94-.72-.4-1.45-.55a.64.63-23 0 0-.47 1.16q.71.45 1.73.33" vector-effect="non-scaling-stroke"/><path stroke="#af459a" d="M227.73 122.68q-.16-.17-.4-.24-.38-.12-.12.18l.9 1.07q.4.48.98.26 1.15-.43 1.71-1.47.12-.22-.01-.45-.26-.42-.62-.07-.78.75-1.82.93-.36.06-.62-.21" vector-effect="non-scaling-stroke"/><path stroke="#9f3489" d="M233.21 122.508a.78.33-29.3 0 0-.841.094.78.33-29.3 0 0-.52.67.78.33-29.3 0 0 .843-.094.78.33-29.3 0 0 .518-.67M219.03 123.9q0-.32-.13-.57-.47-.86-.34.11.21 1.59 1.01 2.42.44.46.67-.15.23-.65-.56-.9a.93.93 0 0 1-.65-.91" vector-effect="non-scaling-stroke"/><path stroke="#af459a" d="m242.4 125.98-1.55-2.04q-.35-.45-.71 0-.09.12-.1.27-.05.5.39.73 1.61.86 2.46 2.5.65 1.25 1.13-.08.5-1.38 1.67-2.06.49-.28.35-.82l-.08-.29q-.11-.43-.52-.28-1.26.48-1.51 1.72-.38 1.85-1.53.35" vector-effect="non-scaling-stroke"/><path stroke="#a63b90" d="m235.96 124.48 2 1.79q.4.36.65-.12l.22-.4q.22-.41-.22-.58l-2.48-.96q-.85-.33-.17.27" vector-effect="non-scaling-stroke"/><path stroke="#af459a" d="M246.1 125.93q-.42.66.29 1.1a.35.35 0 0 0 .52-.4l-.17-.61a.35.35 0 0 0-.64-.09M233 127.17q-.12.47.42.72a.43.43 0 0 0 .59-.28q.12-.5-.42-.73-.47-.2-.59.29M226.9 127.3q-.23-.11-.41-.29a.23.23 0 0 0-.39.2q.29 1.85 1.78 1.28.24-.09.48-.27.79-.6-.2-.66l-.41-.03a2.23.74 33.4 0 1-.85-.23M241.11 127.5q-.46.75.06 1.26a.45.44 39.7 0 0 .68-.06q.46-.67.06-1.23a.48.48 0 0 0-.8.03M246.68 129.17q.22.21.49.21a.31.31 0 0 0 .23-.5l-.52-.63a.44.44 0 0 0-.7.03q-.13.19-.14.41-.02.33.3.42.17.04.34.06M211.399 131.82a.86.44 92.1 0 0 .47-.844.86.44 92.1 0 0-.407-.875.86.44 92.1 0 0-.472.843.86.44 92.1 0 0 .409.875" vector-effect="non-scaling-stroke"/><path stroke="#904296" d="M219.67 131.62q.65.1 1.24-.23a.59.59 0 0 0 .24-.79l-.14-.28a.65.65 0 0 0-1.03-.17q-.71.68-1.64.96-.15.05-.1.19l.08.28a.37.37 0 0 0 .47.23l.49-.16q.19-.07.39-.03" vector-effect="non-scaling-stroke"/><path stroke="#af459a" d="M213.56 131.883a.69.41 81.7 0 0 .306-.742.69.41 81.7 0 0-.506-.624.69.41 81.7 0 0-.306.742.69.41 81.7 0 0 .506.624M209.14 131.23a.37.37 0 0 0 .11.64q.48.17.81-.26.33-.45-.22-.55-.37-.08-.7.17" vector-effect="non-scaling-stroke"/><path stroke="#a63b90" d="M238.96 133.01q.27.12.51-.11a.65.64 43.8 0 0-.02-.94q-.74-.67-1.54-.05-.7.56-.36 1.39.12.31.39.13.12-.09.2-.21.3-.46.82-.21" vector-effect="non-scaling-stroke"/><path stroke="#88586e" d="M234.9 132.91c-.35-.26-.55-.64-.89-.9q-.27-.21-.59-.08-.42.17-.31.57a2.16 1.74 86.8 0 0 1.38 1.53q.59.13.65-.61.02-.17-.06-.31-.06-.12-.18-.2M241.108 134.02a1.31.53 134.1 0 0 1.293-.571 1.31.53 134.1 0 0 .53-1.31 1.31.53 134.1 0 0-1.292.572 1.31.53 134.1 0 0-.53 1.31" vector-effect="non-scaling-stroke"/><path stroke="#904296" d="M226.55 138.02q-.24.19-.24.53-.01.57.41.2 1.7-1.51 2.09-4.47.06-.41-.34-.54l-.48-.15q-.64-.21-.73.47l-.4 3.39q-.04.35-.31.57" vector-effect="non-scaling-stroke"/><path stroke="#af459a" d="M216.642 134.586a.45.37 16.2 0 0-.329-.481.45.37 16.2 0 0-.535.23.45.37 16.2 0 0 .329.48.45.37 16.2 0 0 .535-.23M235.545 137.438a1.1.35 131.2 0 0 .988-.597 1.1.35 131.2 0 0 .462-1.059 1.1.35 131.2 0 0-.988.597 1.1.35 131.2 0 0-.462 1.059M221.03 137.75q-.42.97-.03 1.91.17.42.64.5.38.06.73-.03.77-.19.38-.88-.35-.64-1.03-.89-.71-.27-.56-1.02.09-.43-.16-.75-.45-.59-.26.13.07.26.23.48a.58.58 0 0 1 .06.55M202.68 136.93q1.24 1.03 1.37 2.39.01.06.07.07l.3.01q.2 0 .19-.2-.09-2.4-1.74-2.68-.84-.14-.19.41M201.85 137.41a.43.43 0 0 0-.43-.43.43.43 0 0 0-.43.43.43.43 0 0 0 .43.43.43.43 0 0 0 .43-.43M233.254 138.112a.85.5-22.7 0 0-.977-.133.85.5-22.7 0 0-.591.789.85.5-22.7 0 0 .977.133.85.5-22.7 0 0 .591-.789M224.413 140.13a.94.49 90.4 0 0 .497-.937.94.49 90.4 0 0-.483-.943.94.49 90.4 0 0-.497.937.94.49 90.4 0 0 .483.943" vector-effect="non-scaling-stroke"/><path stroke="#7e1367" d="M210.36 138.96q-.41.26-.42.78a.4.39-10.8 0 0 .55.37q.54-.22.46-.87a.39.38-19 0 0-.59-.28" vector-effect="non-scaling-stroke"/><path stroke="#9f3489" d="M208.16 139.48q-.48 1.01-.66 2.19-.13.79.32.12.82-1.21.76-2.23-.05-.86-.42-.08" vector-effect="non-scaling-stroke"/><path stroke="#af459a" d="M226.09 140.33q-.17.62.03 1.19a.49.49 0 0 0 .94-.03q.2-.71-.19-1.28a.44.43 36 0 0-.78.12" vector-effect="non-scaling-stroke"/><path stroke="#88586e" d="M229.55 140.6a.83.56 0 0 0-.83-.56.83.56 0 0 0-.83.56.83.56 0 0 0 .83.56.83.56 0 0 0 .83-.56" vector-effect="non-scaling-stroke"/><path stroke="#a63b90" d="M222.79 141.02q-1.43.82.18 1.17.21.04 1-.3.31-.13.39-.32a.45.45 0 0 0-.32-.6q-.86-.18-1.25.05" vector-effect="non-scaling-stroke"/></g><path fill="#760b5f" d="M191.79 76.05c-.47 5.69 3.15 9.12 8.1 11.4q.52 1.26 1.69 1.33l2.76 1.08q1-1.39 3.22-2.2l1.58-1.26q.4-.33.92-.37.68-.06.79-.74.08-.49-.18-.91-.83-1.39.21-2.59.44-.5-.2-.67-.14-.04-.26 0-.63.22-.75-.47-.36-2.26-1.4-4.42 13.15 1.91 23.88 9.63 5.57 4.01 11.56 9.85c3.96 3.86 11.32 9.12 17.41 9.27q5.98.14 12.41.97 1.58.2 6.46-1.73c.75-.3 1.77-.22 2.55-.01q5.21 1.42 10.68 3.02 4.79 1.4 9.2 4.32 1.32.88 1.37 2.43.18 6.35-1.28 12.87a1.32 1.31 24.2 0 1-2.06.78c-4.3-3.14-7.97-4.32-13.65-3.84q-9.57.81-18.91 2.39-1.76-1.96-4.04-2.7.02-.27-.29-.4l-1.96-2.69q.41-.82.23-1.51-.17-.64-.66-.2-.21.19-.37.56-1.17.1-1.48.32-1.89 1.4-1.34-.88.11-.43.96-1.59-.03-1.31-1.42-2.57-.45-.42-1.09.23-.94-.14-2.05-.72 1.11-.22 1.13-.76.09-2.44-1.03-2.77l-1.77.36-.91-.08q-2.15 2.66-5.13 2.65-1.43-.63-1.71-2.18-.11-.67-.59-.18l-.4.41q-1.47-.9-2.32-2.49-.23-.43-.71-.54-1.4-.32-1.82-1.17-.1-.63-.37-1.04-.1-.13-.27-.12-.31.03-.26.33.24 1.59-.93 2.7-2.55 1.16-2.19 4.26l2.19 1.61q-.31 2.83-2.27 4.28-.64-.11-.95.46l-4.83-1.99q-.25-1.34-1.55.46-.96.81-1.08 1.88-.06.47-.52.56-.38.06-.61.21-.34.25-.13.55.37.51 1.15.63l-1.78.86q-.86-.34-1.19-.83l.35-1.03-.9-2.63a.57.56 70.4 0 0-.72-.35q-.33.12-.14.32l-.89 1.17q-.67-.85-1.06-.63-1.62.96.25 1.16.46.05.54 1.22-1.23-.04-1.4-.97-.09-.48-.56-.65-.83-.29-1.47.4-.4.44-.19.99.23.58-.33.85-1.64.81-1.09 2.43.06.18.21.06l.28-.23q.09-.07.12-.07.14.02.23.11.24.24-.05.41-.13.08-.28.05-.31-.05-.14.21.13.18.33.21.38.04.24.4-.1.24-.33.46-.89.75-1.33 1.65-.78-.15-1.46-.6.09-.66-.3-1.02.41-1.7-.73-2.9.3-.69.14-1.12-.24-.61-.77-.22l-.63.47q-3.04.36-3.6 3.53-.44.77.02 1.88.21.67-.02 1.58-.33.44-1.27.98-.55.33-.09.78l1.02 1.01q.55.53.25 1.23-.36.86.08 1.67.12.22.05.46-.04.15-.25.2a.22.22 0 0 1-.27-.21v-1.04q0-.63-.29-.07-.12.23-.18.5a.98.98 0 0 1-1.72.39q-.82-1.03-1.98-1.51-.59-.25-.26-.8.19-.32.64-.57.6-.27.35-.83a.6.59 70.1 0 0-.69-.33q-.3.09-.45.36-1.49.61-2.93-.12-.57-.29-.84.29-.38.81-1.09 1.43-.44.39-.16.91l.53 1.01q-.33.36-.2.75.22.86-.83 1.55-1.24.82-1.43 2.65-.1.84.46.2.64-.73 1.03-1.88.27-.77.59-.02l.33.79q.18.42.61.28.13-.04.18-.17.16-.48.59-.21.28.18.4.51t-.11.6q-.77.93-1.71.87-.78-.06-.35.59l.91 1.38-7.56-1.2-.14-1.19q-.07-.57-.58-.3-.52.27-.68.99-3.65-.78-6.9-2.86-.28-1.41 0-2.85a.3.3 0 0 0-.23-.35l-.25-.04q-.18-.04-.21.15l-.39 2.41q-13.2-7.26-15.73-21.18-2.31-12.72-3.79-18.48.18-.41.2-.99.02-.67.69-.57.57.08.69-.5a.7.7 0 0 1 .62-.56l2.66-.25q.53-.05.61-.58l.28-1.78q.68 1.12 1.36 1.09.45-.03.24-.44-.39-.76-1.52-.83l.12-1.81q.15.13.34.14.46.04.29-.39-.22-.53-.79-.82-.52-.26-.33.29.15.41.49.78-1.16.17-2.54 1.22l.35-4.43q.58-1.16.46-2.42.42-.41.22-1.03.89-.62.4-1.88a1.1 1.09-44.7 0 1 .01-.84l1.38-3.26 8.91-1.24q.15.67.61 1 .48.33.78-.17.26-.45.21-1.14zm-3.322 3.73a.81.37 92.3 0 0 .402-.795.81.37 92.3 0 0-.338-.824.81.37 92.3 0 0-.402.794.81.37 92.3 0 0 .338.824m.042 1.6q.33-.99-.38-.23-1.59 1.69-.84 4.55.03.13.15.1l.36-.06q.24-.04.19-.28-.32-1.58.52-4.08m-17.68 4.28q-.75.43-.99 1.15-.17.52-.66.27-.29-.16-.43-.46-.15-.34-.48-.18l-.27.12a.31.3 62.3 0 0-.13.43q.54.88 1.38 1.34a.58.57 31.2 0 0 .75-.18l2.35-3.34q.18-.25.22-.57.02-.24-.16-.29-.81-.19-.42-.92.51-.96-.27-1.55-1.33-.99-1.06.64.23 1.34-.01 2.64-.04.24.18.35.5.27 0 .55m48.92-1.54q.3.09.5-.14a.57.57 0 0 0-.25-.9q-1.32-.46-2.02-1.63a.57.57 0 0 0-.95-.05q-.7.95-1.69 1.64a.51.5-56 0 0 .17.9q.91.2 1.01 1.11.08.67-.58.82-.39.08-.52.44-.19.51.34.62l.41.09q.49.1.83-.26 1.34-1.36 2.75-2.64m-43.67.76q-.33.42-.14.88.25.63.69.13.39-.44.15-.94a.41.41 0 0 0-.7-.07m-3.94 2.43q.12.14.3.11a.09.08-14.6 0 0 .07-.11q-.07-.2-.31-.17-.19.03-.06.17m13.99 1.13c.66 1.36 1.16 2.56.95 4.13a.11.11 0 0 0 .1.13l.26.03a.27.27 0 0 0 .3-.26q.09-2.37-.61-4.18a.5.49-21.6 0 0-.64-.27l-.24.1a.24.23 66.5 0 0-.12.32m28.13-.15q-.33.7.09 1.28a.42.42 0 0 0 .76-.25q0-.55-.22-1.02a.35.34 45.7 0 0-.63-.01m-19.719 2.59a1.28.44 65 0 0-.142-1.346 1.28.44 65 0 0-.94-.974 1.28.44 65 0 0 .142 1.346 1.28.44 65 0 0 .94.974m-17.501-1.25q-.19.32.17.4.55.11 1.1-.02.59-.14.51-.75a.63.63 0 0 0-.94-.46q-.52.31-.84.83m-3.614.586a1.48.42 15.5 0 0-1.314-.8 1.48.42 15.5 0 0-1.538.008 1.48.42 15.5 0 0 1.314.8 1.48.42 15.5 0 0 1.538-.008m60.624 1.494-.94 4.31q-.37.9 1.35.95l.63 1.06q-.03.27.06.5.08.19.26.29 2.88 1.54 5.25 2.8 2.55 1.34.55-.73-.27-.29-1.11-.29-.55-.01-.89-.45-.96-1.27-2.72-1.1.69-1.42 1.8-1.38 1.01-.36 1.99.11.32.15.51-.15.11-.18-.02-.35-.33-.45-.95-.5l-1.87-3.14q-.63-.62-1.69-.97a.65.65 0 0 1-.4-.85q.7-1.79-1.22-2.37-1.61-.49-.56.83.31.38-.03 1.43m-51.09-1.08q.31 1 .36-.05.01-.2-.14-.35t-.22.06q-.05.17 0 .34m31.51 1.16-.15-.31q-.29-.61-.63-.03-.85 1.45.59 2.46a.64.64 0 0 0 1-.59q-.06-.51-.4-.9-.25-.29-.41-.63m-4.327 2.075a1.42.38 81.8 0 0 .173-1.46 1.42.38 81.8 0 0-.578-1.35 1.42.38 81.8 0 0-.174 1.46 1.42.38 81.8 0 0 .579 1.35m-12.193.735q-.68-.25-1.35.09-.5.25-.32.78.25.76.96 1.05.54.22.99-.17c1.08-.94 2.46-3.09 1.56-4.56q-.42-.7-.38.12.06 1.25-.45 2.29a.82.81 23 0 1-1.01.4m-8.6-2.48q-.73-.48-.31.29.62 1.17 1.88 1.89.88.5.28-.31-.9-1.23-1.85-1.87m30.98.35q-.14-.12-.3-.1-.49.08-.26.51l.88 1.69q.39.76.67-.04.26-.74.33-1.52.08-1-1.07-.5-.14.06-.25-.04m3.292 1.824a.53.44 81.1 0 0 .353-.592.53.44 81.1 0 0-.517-.456.53.44 81.1 0 0-.353.592.53.44 81.1 0 0 .517.456m-10.982-.814q-.51.31-.45.91.06.62.56.25.54-.41.3-1.02a.28.28 0 0 0-.41-.14m-39.97 1.22q-.22.23-.3.53-.19.76.41.25l.98-.84a.43.43 0 0 0 .06-.59q-.15-.2-.39-.25-.48-.11-.65.36-.09.27-.11.54m9.78.04q.44-.12.19-.51a.36.36 0 0 0-.47-.13q-.94.46-.69 1.36a.14.13 73.7 0 0 .16.09q.38-.08.48-.48a.47.47 0 0 1 .33-.33m21.798 1.228a.89.36 122.8 0 0 .785-.553.89.36 122.8 0 0 .18-.943.89.36 122.8 0 0-.786.553.89.36 122.8 0 0-.18.943M187.19 99.59q-.18.19-.09.43.72 1.88 1.26-.06.83-2.97-.83-4.6-.47-.46-.44.2.05.92.49 1.73.66 1.2-.39 2.3m23.62-.51q.22.03.45-.02a.62.61-36 0 0 .18-1.12q-1.25-.76-1.34-2.01-.05-.56-.6-.56-.82 0-1.56-.24-.07-.02-.08.04l-.05.26q-.06.25.2.32l1.21.32a.6.6 0 0 1 .45.65l-.26 2.28q-.06.5.18.95.33.58-.06 1.18-.38.58.24.26 1.12-.57.61-1.76-.27-.65.43-.55m15.49-2.49q-.22-.22-.23-.53-.04-.66-.7-.65-.62 0-.79.81a.81.79-68.7 0 0 .36.84q1.58.99 3.39.81.75-.08.18-.57-.56-.47-1.27-.38-.56.08-.94-.33m-51.07.34-.54-.46q-.57-.49-.31.22.19.51.67.89.45.35.87-.04.7-.66.83-1.4.07-.42-.28-.18-.4.28-.49.71-.15.77-.75.26m8.42.47.64-1.11q.44-.76-.28-.26l-1.52 1.04a.57.56 63.5 0 0-.21.65q.2.59.71.95a.41.41 0 0 0 .63-.42l-.06-.28q-.07-.3.09-.57m-4.88-.76q.05.37.39.53a.44.44 0 0 0 .58-.59q-.16-.35-.55-.39-.49-.04-.42.45m-15.03 1.12q.21-.59-.28-.96-.42-.33-.49.2-.08.55.36.88a.27.26 28.1 0 0 .41-.12m38.37 1.26-.43.13q-1.11.32-.32 1.16.43.44 1.03.51.72.09 1.06-.55.65-1.18.37-2.77-.2-1.18-.59-.05l-.26.75q-.21.63-.86.82m16.1 2.26.84-.91q.44-.47.28-1.1l-.44-1.84q-.13-.53-.57-.2l-.3.23q-.11.08-.03.2 1.26 1.99-.61 3.7a.44.43-57 0 0 .15.73q.46.15.72.57.38.62.46-.1.03-.27-.26-.37a.56.56 0 0 1-.24-.91m-51.87-3.45q.25.04.48-.1.41-.24 0-.46-1.17-.64-1.63.65-.12.34-.34.62-1.38 1.7.55 1.87.59.05.48-.53-.17-.96.19-1.9.07-.19.27-.15m49.22.26.59 1q.42.71.52-.11l.14-1.12q.09-.68-.6-.72-.24-.01-.45.12-.51.31-.2.83m-25.55-.01-.1.36q-.19.62.45.71l.43.07q.6.08.36-.47-.2-.46-.52-.81-.44-.48-.62.14m9.51.22q-.35-.01-.28.33.05.23.28.32.36.14.36-.25-.01-.39-.36-.4m-30.15 2.62q-1.07-1-1.85-2.23-.06-.09-.14-.03l-.21.16a.3.29 56.1 0 0-.07.4q1.08 1.74 1.89 2.21 2.48 1.45.38-.51m54.93-.99q-1.44.11-2.66-.84-.15-.12-.35-.08-.05 0-.08.05-.17.2.02.39 2.14 2.17 3.76 1.01.55-.39 1.04.07.23.21.51.03.66-.41-.02-.79l-1.37-.76q-.14-.08-.21.07-.05.13-.06.27-.04.54-.58.58m-17.33.24q-.11.63.41.92a.34.34 0 0 0 .5-.22q.12-.5-.19-.89a.41.41 0 0 0-.72.19m21.14.74q-.05.35.2.6a.38.38 0 0 0 .6-.07q.78-1.3-1.07-1.74-.75-.18-.2.36l.27.27q.24.24.2.58m-49.23 1.4.34-1.21q.18-.66-.47-.47-.97.27-.82 1.22.06.39.36.64.44.38.59-.18m-6.2-.54a.27.27 0 0 0 .32.3q.4-.08.48-.48a.28.27-87.7 0 0-.3-.33q-.43.06-.5.51m9.88.13q-.04-.47-.53-.68-.48-.2-.92-.03-.91.34.02.6 1.25.35 1.4 1.48.04.29.31.43.22.11.47.09.69-.07.19-.55l-.55-.54q-.34-.33-.39-.8m64.35.63q-.1.36.26.43.8.16 1.08-.76.2-.69-.5-.52-.64.16-.84.85m-29.94-.48a.18.18 0 0 0-.14-.26q-1.64-.08-2.13 1.59-.19.65.42.36 1.26-.59 1.85-1.69m-13.114.812a.68.46 39.4 0 0-.234-.787.68.46 39.4 0 0-.818-.077.68.46 39.4 0 0 .234.787.68.46 39.4 0 0 .817.077m16.114-.522q-.18.17-.09.4.44 1.12.85-.01.09-.26-.13-.43-.33-.24-.63.04m3.39 1.07a.87.45 45.5 0 0-.289-.935.87.45 45.5 0 0-.93-.305.87.45 45.5 0 0 .288.935.87.45 45.5 0 0 .93.305m12.97-1.27q-.42.07-.12.44.26.33.4-.07.15-.44-.28-.37m-40.666 1.568a1.01.66 36.3 0 0-.423-1.13 1.01.66 36.3 0 0-1.205-.066 1.01.66 36.3 0 0 .423 1.13 1.01.66 36.3 0 0 1.205.066m29.376.262-.05.42q-.06.47.41.4.3-.04.35-.32.31-1.57-1.26-2.25-.15-.07-.22.08l-.1.23q-.13.27.14.41.33.17.56.45.22.25.17.58m-59.38-1.39q-.35-.51-.36.11 0 1.13.82 1.95.71.7.42-.25-.3-.98-.88-1.81m78.39.48q.05.16.16.28a.5.49-46.3 0 0 .78-.02q.31-.43-.32-.76a.43.43 0 0 0-.62.5m-74.95.09a.25.24-27.1 0 0-.13.39q.52.64 1.39.3a.37.37 0 0 0-.03-.7q-.6-.16-1.23.01m3.59.32q.34-.68-.34-.33-.65.33-1.2.9-.25.25-.06.55.09.14.22.22.49.3.78-.2.33-.59.6-1.14m78.75 1.34q-.34.09-.54.37-.97 1.34.58.74 1.15-.45 1.81-1.63a.4.4 0 0 0-.36-.59q-.57.02-.81.55-.21.44-.68.56m-18.92.43q.67-.17.53-.86-.18-.87-.8-.24-.92.93-1.19 2.15-.19.81.59.51.69-.28.49-.8-.23-.59.38-.76m-43.34.963a1.04.43 36.1 0 0-.587-.96 1.04.43 36.1 0 0-1.093-.266 1.04.43 36.1 0 0 .587.96 1.04.43 36.1 0 0 1.093.266m-20.61-.543q0 .09.06.18.17.22.1-.05l-.04-.12q-.15-.51-.12-.01m47.442 1.485a1.32.43 44.5 0 0-.64-1.232 1.32.43 44.5 0 0-1.244-.618 1.32.43 44.5 0 0 .64 1.232 1.32.43 44.5 0 0 1.244.618m-49.672-.905q-.39.57.07.98a.21.2 40 0 0 .29-.02q.4-.44.15-.93a.3.3 0 0 0-.51-.03m46.012 3.166a1.69.57 97.4 0 0 .783-1.603 1.69.57 97.4 0 0-.347-1.749 1.69.57 97.4 0 0-.783 1.603 1.69.57 97.4 0 0 .347 1.749m23.468-2.916a.44.44 0 0 0-.44-.44.44.44 0 0 0-.44.44.44.44 0 0 0 .44.44.44.44 0 0 0 .44-.44m-36.52 2.53q.46.12.57.54.25 1.06.5 2.16.09.38.48.39.28 0 .47-.33a.61.6 57.4 0 0 .07-.32q-.27-2.65-2.81-3.63a.94.93 7.9 0 1-.59-.77q-.05-.54-.55-.69-.68-.21-.37.42l1.41 2.86q.11.23.3.05.13-.13.1-.3-.07-.5.42-.38m49.472-1.26a1.02.27 45.7 0 0-.519-.919 1.02.27 45.7 0 0-.905-.541 1.02.27 45.7 0 0 .519.919 1.02.27 45.7 0 0 .905.541m-80.162-.1q.46.07.74-.25a.51.51 0 0 0-.48-.83q-.43.08-.6.47a.45.44-74.6 0 0 .34.61m24.02.59q.2.38.52.66a.32.31-72.9 0 0 .52-.28q-.13-1.01-.74-1.86-.4-.57-.94-.12l-.63.51q-.61.49.17.57l.39.04q.49.05.71.48m36.41-.497a.71.5 126.2 0 0 .823-.278.71.5 126.2 0 0 .016-.868.71.5 126.2 0 0-.822.278.71.5 126.2 0 0-.016.868m-11.89.017q-.01.67.33 1.2a.28.28 0 0 0 .51-.1q.17-.78-.34-1.3-.49-.51-.5.2m9.873 1.152a.53.35 136.9 0 0 .626-.106.53.35 136.9 0 0 .148-.618.53.35 136.9 0 0-.626.106.53.35 136.9 0 0-.148.618m6.375.544a1.14.64 36.4 0 0-.538-1.191 1.14.64 36.4 0 0-1.298-.162 1.14.64 36.4 0 0 .538 1.192 1.14.64 36.4 0 0 1.298.161m26.672-.946a.25.24 86.5 0 0 .21.19q.33.04.37-.3a.28.28 0 0 0-.39-.28q-.25.11-.19.39m2.32-.07q.43.4 1.07.42a.29.29 0 0 0 .2-.52q-.48-.41-1.12-.35-.57.06-.15.45m-4.64.41q.75 1.77 1.19 2.09 1.86 1.33.59-.56-.64-.96-1.46-1.75-.7-.67-.32.22m-90.22 1.04q-.35-.58-.8-1.09-.5-.57-.78.14-.43 1.09 1.04 1.6 1.15.4.54-.65m1.41-.29a.53.53 0 0 0-.53-.53.53.53 0 0 0-.53.53.53.53 0 0 0 .53.53.53.53 0 0 0 .53-.53m76.59-.1a.59.59 0 0 0-.59-.59.59.59 0 0 0-.59.59.59.59 0 0 0 .59.59.59.59 0 0 0 .59-.59m-26.17.95q.6.41.58-.32-.04-1.01-1.03-1.04-.72-.03-.33.58.3.46.78.78m78.589 1.312a.95.43 65.2 0 0-.009-1.042.95.43 65.2 0 0-.788-.682.95.43 65.2 0 0 .008 1.042.95.43 65.2 0 0 .788.682m-91.359-1.192a.37.37 0 0 0-.37-.37.37.37 0 0 0-.37.37.37.37 0 0 0 .37.37.37.37 0 0 0 .37-.37m22.62.77q-.28-.37-.52-.8-.41-.72-.54.09-.07.39.16.77.84 1.38 2.17 1.36.77-.01.14-.46-.41-.28-.88-.52-.32-.15-.53-.44m38.08.91q.19.48.33-.02.23-.79.1-1.65-.11-.7-.38-.04-.36.88-.05 1.71m-54.38-1.66q-.42.24-.57.72-.24.81.42.29.4-.31.41-.85a.18.17 75.9 0 0-.26-.16m-44.02 1.05q-.07-.36-.37-.6-.55-.46-.41.24l.52 2.51q.08.4.46.27l.62-.21q.41-.14.17-.5l-.74-1.12q-.18-.27-.25-.59m29.164 1.173a.95.51 72 0 0 .191-1.06.95.51 72 0 0-.779-.747.95.51 72 0 0-.191 1.062.95.51 72 0 0 .779.745m67.446-1.173q0-.08-.07-.11-.12-.05-.17.07-.13.4.07.7a.3.3 0 0 0 .54-.1q.08-.35-.26-.43-.1-.02-.11-.13m-78.38 1.99.01 1q.01.72.7.5 1.16-.37.89-1.56a3.53 3.43-73.7 0 0-.86-1.63q-.54-.58-1.05.07-.2.26-.09.57.11.34.3.67a.81.76 32 0 1 .1.38m-15.37-.59q-.31.17-.39.49-.08.35.21.14.63-.45 1.01-1.12.17-.31-.17-.21-.25.08-.35.35-.09.23-.31.35m34.62.11q.22-.04.36-.21.18-.21.04-.44-.15-.22-.44-.22a.56.56 0 0 0-.49.29q-.67 1.26.26 2.89.16.29.44.12.32-.2.24-.74a.62.55 23.2 0 0-.16-.34q-.43-.48-.47-1.06a.27.26 83.1 0 1 .22-.29m-4.769 1.697a1.16.37 52.2 0 0-.419-1.144 1.16.37 52.2 0 0-1.003-.69 1.16.37 52.2 0 0 .419 1.144 1.16.37 52.2 0 0 1.003.69m71.836-.276a.83.35 35.4 0 0-.474-.766.83.35 35.4 0 0-.88-.196.83.35 35.4 0 0 .474.766.83.35 35.4 0 0 .88.196M263.6 117.4c.82-1.11 1.01-1.69 2.25-2.51q.22-.14.07-.36l-.16-.24q-.12-.17-.3-.07-1.89 1.13-2.13 3.08-.06.54.27.1m15.346-1.73a.78.34 116.2 0 0 .65-.55.78.34 116.2 0 0 .038-.85.78.34 116.2 0 0-.65.55.78.34 116.2 0 0-.038.85m-86.926-.69q-.17.56.27.8a.35.34 18.5 0 0 .51-.25q.07-.44-.2-.7-.41-.39-.58.15m12.12 1.64q.43.47.63-.13.28-.85.06-1.65-.23-.83-.74-.13-.75 1.02.05 1.91m-20.83-.22q-.09.5.4.38.27-.06.42-.29a.34.34 0 0 0-.29-.52q-.46.01-.53.43m15.02.33q.34.2.41-.18.05-.24-.08-.41-.22-.3-.45-.01-.27.35.12.6m69.13.78q.08-.51.02-1.01-.04-.32-.33-.47-.37-.2-.74-.03-.48.21-.1.57.46.43.63.98.35 1.11.52-.04m5.37-1.23q-.21-.38-.41.08-.16.37.23.26.33-.09.18-.34m-82.06.84q-.22-.37-.53-.66-.6-.57-.57.26.02.6.53.9 1.42.84 2.81 1.57.7.37.31-.32-.53-.92-1.56-1.07-.66-.1-.99-.68m10.94 1.13q.42-.31.42-.88 0-.88-.65-.28l-1.01.93q-.53.49-.02 1 .41.42.95.62a.37.37 0 0 0 .5-.27q.04-.17-.12-.26-.71-.39-.07-.86m74.21-.33q-.17-.03-.33.04-.68.34-.13.87l.57.54q.36.36.65-.07l.99-1.51q.54-.8-.42-.66-.7.1-1.13.71-.07.11-.2.08m3.23-.17q-.11.24.07.35.06.04.12-.02.15-.14.03-.34-.12-.21-.22.01m-82.94 2.15q0 1.58-1.08 3.05-.23.33.05.61l.24.25q.15.16.32.02 1.76-1.34 1.01-4.37-.2-.8-.94-1.12-.68-.29-.2.27l.21.24q.4.45.39 1.05m74.81.153a.95.23 111.6 0 0 .564-.798.95.23 111.6 0 0 .136-.968.95.23 111.6 0 0-.564.798.95.23 111.6 0 0-.136.968m2.21-1.613a.28.27-86.5 0 0 .33.38q.18-.06.2-.24.05-.35-.31-.3-.15.02-.22.16m-85.12.27q-.6.14-.84.71-.21.48.3.36.58-.15.85-.67.27-.53-.31-.4m88.34 3.31q-1.49.27-3.02-.37-.25-.1-.37.14-.09.18.07.29 2.07 1.44 3.32-.06 1.44-.28 2.59-1.52.31-.33.04-.7-.09-.14-.17-.28-.39-.81-.74.05-.5 1.25-1.72 2.45m-76.55-.31-.03 1.12q0 .18.18.18l.36.01q.64.02.56-.62-.26-1.98-2.59-2.25-.24-.03-.25.21l-.02.26q-.01.08.07.11l1.28.38q.46.13.44.6m-8.14-.3a.35.35 0 0 0 .06.58q.48.25.75-.17a.37.37 0 0 0-.25-.56q-.33-.05-.56.15m73.38.44q.14.51.71.47a.39.39 0 0 0 .29-.61q-.17-.25-.47-.35a.41.41 0 0 0-.53.49m-75.38 1.23q-.08-.84-.79-1.02a.6.6 0 0 0-.65.91q.67 1.05 1.78 1.42.46.16.16-.22-.09-.11-.17-.22-.29-.39-.33-.87m78.112-.27a.66.36 36.3 0 0-.319-.68.66.36 36.3 0 0-.745-.1.66.36 36.3 0 0 .319.68.66.36 36.3 0 0 .745.1m-68.752 1.191a.71.58 40.5 0 0-.163-.902.71.58 40.5 0 0-.917-.02.71.58 40.5 0 0 .163.902.71.58 40.5 0 0 .917.02m-7.98-.431a.31.31 0 0 0 .26.48q.62-.01 1.07-.47a.37.36 21.6 0 0-.27-.62q-.66.01-1.06.61m-.26 3.79q-.1-.17-.23-.3-.35-.35-.82-.14-.14.06-.26.13-.57.32.02.6 1.55.74 2.99.22.21-.08.13-.29v-.01q0-.01-.01-.01-.22-.47-.57-.08a.79.78 50.3 0 1-1.25-.12m-6.47 10.722a1.1.47 123.1 0 0 .994-.665 1.1.47 123.1 0 0 .207-1.179 1.1.47 123.1 0 0-.995.665 1.1.47 123.1 0 0-.207 1.179m3.907-.06a.48.42 79.6 0 0 .326-.548.48.42 79.6 0 0-.5-.396.48.42 79.6 0 0-.326.548.48.42 79.6 0 0 .5.396m3.252 1.787a1.09.55 125.4 0 0 1.08-.57 1.09.55 125.4 0 0 .182-1.208 1.09.55 125.4 0 0-1.08.57 1.09.55 125.4 0 0-.182 1.208"/><path fill="#92267a" d="M208.27 76.23q1.04 2.16 1.4 4.42.12.69.75.47.12-.04.26 0 .64.17.2.67-1.04 1.2-.21 2.59.26.42.18.91-.11.68-.79.74-.52.04-.92.37l-1.58 1.26q-2.43-1.35-3.22 2.2l-2.76-1.08q-.78-1.69-1.69-1.33c-4.95-2.28-8.57-5.71-8.1-11.4zm-10.14 2.94q-.03.49.41.78.34.21.34-.19.01-.57-.48-.76a.2.19 11.9 0 0-.27.17m-.67 2.52.19-.18a.08.08 0 0 0 0-.12l-2.03-2.02q-.17-.17-.34-.01l-.19.19q-.03.03 0 .07 1.11 1.01 1.99 2.05.18.22.38.02m7.27.41q.32-.13.46-.32a.49.49 0 0 0-.27-.77q-.79-.2-1.47.18-.28.56-.79.7a.68.68 0 0 1-.84-.45q-.15-.48-.66-.54-.7-.07-.36.54.52.94 1.33 1.2.48.15.92-.09.71-.39 1.68-.45"/><path fill="#9a69bd" d="M179.05 76.55q.05.69-.21 1.14-.3.5-.78.17-.46-.33-.61-1z"/><path fill="#6f0458" d="m168.54 78.1-1.38 3.26a1.1 1.09-44.7 0 0-.01.84q.49 1.26-.4 1.88-.47-.1-.58.42-.11.58.36.61.12 1.26-.46 2.42-.44-.35-.64.43-.73 2.78.29 4 1.38-1.05 2.54-1.22l-.12 1.81-.08.18-.28 1.78q-.08.53-.61.58l-2.66.25a.7.7 0 0 0-.62.56q-.12.58-.69.5-.67-.1-.69.57-.02.58-.2.99-3.29-10.31-13.47-4.82-7.16 3.85-11.9 5.51-4.85 1.7-12.52 2.85-8.52 1.28-16.54 2.18-1.3.14-.94-1.11 1.81-6.32 3.71-11.92c1.85-5.46 7.39-7.3 12.2-9.46q2.62-1.17 5.46-1.18c5.24 0 10.31-1.04 15.54-.93 8.53.18 16.23.22 24.69-.98"/><ellipse fill="#b74ca2" rx=".81" ry=".37" transform="rotate(92.3 56.319 130.026)"/><path fill="#d76ec4" d="M198.13 79.17a.2.19 11.9 0 1 .27-.17q.49.19.48.76 0 .4-.34.19-.44-.29-.41-.78"/><path fill="#c55bb1" d="M197.08 81.67q-.88-1.04-1.99-2.05-.03-.04 0-.07l.19-.19q.17-.16.34.01l2.03 2.02a.08.08 0 0 1 0 .12l-.19.18q-.2.2-.38-.02"/><path fill="#b74ca2" d="M188.51 81.38q-.84 2.5-.52 4.08.05.24-.19.28l-.36.06q-.12.03-.15-.1-.75-2.86.84-4.55.71-.76.38.23M203.45 81.19q-.06.28.01.49.08.22.34.31.41.16.93.11-.97.06-1.68.45-.44.24-.92.09-.81-.26-1.33-1.2-.34-.61.36-.54.51.06.66.54a.68.68 0 0 0 .84.45q.51-.14.79-.7"/><path fill="#d76ec4" d="M204.73 82.1q-.52.05-.93-.11-.26-.09-.34-.31-.07-.21-.01-.49.68-.38 1.47-.18a.49.49 0 0 1 .27.77q-.14.19-.46.32"/><path fill="#9a69bd" d="M170.83 85.11q-.22-.11-.18-.35.24-1.3.01-2.64-.27-1.63 1.06-.64.78.59.27 1.55-.39.73.42.92.18.05.16.29-.04.32-.22.57L170 88.15a.58.57 31.2 0 1-.75.18q-.84-.46-1.38-1.34a.31.3 62.3 0 1 .13-.43l.27-.12q.33-.16.48.18.14.3.43.46.49.25.66-.27.24-.72.99-1.15.5-.28 0-.55"/><path fill="#b74ca2" d="M219.75 84.12q-1.41 1.28-2.75 2.64-.34.36-.83.26l-.41-.09q-.53-.11-.34-.62.13-.36.52-.44.66-.15.58-.82-.1-.91-1.01-1.11a.51.5-56 0 1-.17-.9q.99-.69 1.69-1.64a.57.57 0 0 1 .95.05q.7 1.17 2.02 1.63a.57.57 0 0 1 .25.9q-.2.23-.5.14"/><path fill="#d76ec4" d="M166.75 84.08q.2.62-.22 1.03-.47-.03-.36-.61.11-.52.58-.42"/><path fill="#b74ca2" d="M176.08 84.88a.41.41 0 0 1 .7.07q.24.5-.15.94-.44.5-.69-.13-.19-.46.14-.88"/><path fill="#c55bb1" d="M172.2 87.14q.24-.03.31.17a.09.08-14.6 0 1-.07.11q-.18.03-.3-.11-.13-.14.06-.17"/><path fill="#9a69bd" d="m166.07 87.53-.35 4.43q-1.02-1.22-.29-4 .2-.78.64-.43"/><path fill="#c55bb1" d="M201.58 88.78q-1.17-.07-1.69-1.33.91-.36 1.69 1.33"/><path fill="#d76ec4" d="M207.56 87.66q-2.22.81-3.22 2.2.79-3.55 3.22-2.2"/><path fill="#c55bb1" d="M187.08 92.57c.21-1.57-.29-2.77-.95-4.13a.24.23 66.5 0 1 .12-.32l.24-.1a.5.49-21.6 0 1 .64.27q.7 1.81.61 4.18a.27.27 0 0 1-.3.26l-.26-.03a.11.11 0 0 1-.1-.13"/><path fill="#d76ec4" d="M214.26 88.29a.35.34 45.7 0 1 .63.01q.22.47.22 1.02a.42.42 0 0 1-.76.25q-.42-.58-.09-1.28"/><ellipse fill="#b74ca2" rx="1.28" ry=".44" transform="rotate(65 26.584 197.12)"/><path fill="#d76ec4" d="M177.04 89.63q.32-.52.84-.83a.63.63 0 0 1 .94.46q.08.61-.51.75-.55.13-1.1.02-.36-.08-.17-.4"/><ellipse fill="#d76ec4" rx="1.48" ry=".42" transform="rotate(15.5 -243.992 676.826)"/><path fill="#c55bb1" d="M237.95 93.64q-1.63.97-3.9-1.93.34-1.05.03-1.43-1.05-1.32.56-.83 1.92.58 1.22 2.37a.65.65 0 0 0 .4.85q1.06.35 1.69.97"/><path fill="#d76ec4" d="M168.26 90.74q-.34-.37-.49-.78-.19-.55.33-.29.57.29.79.82.17.43-.29.39-.19-.01-.34-.14"/><path fill="#c55bb1" d="M182.96 90.63q-.05-.17 0-.34.07-.21.22-.06t.14.35q-.05 1.05-.36.05"/><path fill="#d76ec4" d="M214.88 92.42q.34.39.4.9a.64.64 0 0 1-1 .59q-1.44-1.01-.59-2.46.34-.58.63.03l.15.31q.16.34.41.63"/><ellipse fill="#b74ca2" rx="1.42" ry=".38" transform="rotate(81.8 51.6 167.41)"/><path fill="#b74ca2" d="M198.96 94.2q.51-1.04.45-2.29-.04-.82.38-.12c.9 1.47-.48 3.62-1.56 4.56q-.45.39-.99.17-.71-.29-.96-1.05-.18-.53.32-.78.67-.34 1.35-.09a.82.81 23 0 0 1.01-.4"/><path fill="#861b6f" d="m237.95 93.64 1.87 3.14q-2 .19-1.53.89-1.11-.04-1.8 1.38-.63-1.62-1.4-1.02l-.63-1.06q.12-.09.18-.19.16-.3-.13-.48-.65-.41-1.4-.28l.94-4.31q2.27 2.9 3.9 1.93"/><path fill="#b74ca2" d="M189.35 92.12q.95.64 1.85 1.87.6.81-.28.31-1.26-.72-1.88-1.89-.42-.77.31-.29M220.58 92.51q1.15-.5 1.07.5-.07.78-.33 1.52-.28.8-.67.04l-.88-1.69q-.23-.43.26-.51.16-.02.3.1.11.1.25.04"/><path fill="#d76ec4" d="m168.06 92.73.08-.18q1.13.07 1.52.83.21.41-.24.44-.68.03-1.36-1.09"/><ellipse fill="#b74ca2" rx=".53" ry=".44" transform="rotate(81.1 56.972 177.52)"/><path fill="#b74ca2" d="M212.64 93.48a.28.28 0 0 1 .41.14q.24.61-.3 1.02-.5.37-.56-.25-.06-.6.45-.91"/><path fill="#d76ec4" d="M172.67 94.7q.02-.27.11-.54.17-.47.65-.36.24.05.39.25a.43.43 0 0 1-.06.59l-.98.84q-.6.51-.41-.25.08-.3.3-.53"/><path fill="#b74ca2" d="M182.12 95.07q-.1.4-.48.48a.14.13 73.7 0 1-.16-.09q-.25-.9.69-1.36a.36.36 0 0 1 .47.13q.25.39-.19.51a.47.47 0 0 0-.33.33"/><ellipse fill="#d76ec4" rx=".89" ry=".36" transform="rotate(122.8 76.407 103.421)"/><path fill="#c55bb1" d="M187.58 97.29q-.44-.81-.49-1.73-.03-.66.44-.2 1.66 1.63.83 4.6-.54 1.94-1.26.06-.09-.24.09-.43 1.05-1.1.39-2.3"/><path fill="#b74ca2" d="M210.38 99.63q.51 1.19-.61 1.76-.62.32-.24-.26.39-.6.06-1.18-.24-.45-.18-.95l.26-2.28a.6.6 0 0 0-.45-.65l-1.21-.32q-.26-.07-.2-.32l.05-.26q.01-.06.08-.04.74.24 1.56.24.55 0 .6.56.09 1.25 1.34 2.01a.62.61-36 0 1-.18 1.12q-.23.05-.45.02-.7-.1-.43.55"/><path fill="#9a69bd" d="M227.24 96.92q.71-.09 1.27.38.57.49-.18.57-1.81.18-3.39-.81a.81.79-68.7 0 1-.36-.84q.17-.81.79-.81.66-.01.7.65.01.31.23.53.38.41.94.33"/><path fill="#b74ca2" d="M175.98 96.67q.09-.43.49-.71.35-.24.28.18-.13.74-.83 1.4-.42.39-.87.04-.48-.38-.67-.89-.26-.71.31-.22l.54.46q.6.51.75-.26"/><path fill="#c55bb1" d="m183.56 97.97.06.28a.41.41 0 0 1-.63.42q-.51-.36-.71-.95a.57.56 63.5 0 1 .21-.65l1.52-1.04q.72-.5.28.26l-.64 1.11q-.16.27-.09.57"/><path fill="#8a956c" d="M234.46 96.97q-1.72-.05-1.35-.95.75-.13 1.4.28.29.18.13.48-.06.1-.18.19"/><path fill="#c55bb1" d="M178.77 96.64q-.07-.49.42-.45.39.04.55.39a.44.44 0 0 1-.58.59q-.34-.16-.39-.53"/><path fill="#b74ca2" d="M163.74 97.76a.27.26 28.1 0 1-.41.12q-.44-.33-.36-.88.07-.53.49-.2.49.37.28.96"/><path fill="#c55bb1" d="M239.82 96.78q.62.05.95.5.13.17.02.35-.19.3-.51.15-.98-.47-1.99-.11-.47-.7 1.53-.89"/><path fill="#b74ca2" d="m202.97 98.2.26-.75q.39-1.13.59.05.28 1.59-.37 2.77-.34.64-1.06.55-.6-.07-1.03-.51-.79-.84.32-1.16l.43-.13q.65-.19.86-.82M218.45 102.19q.29.1.26.37-.08.72-.46.1-.26-.42-.72-.57a.44.43-57 0 1-.15-.73q1.87-1.71.61-3.7-.08-.12.03-.2l.3-.23q.44-.33.57.2l.44 1.84q.16.63-.28 1.1l-.84.91a.56.56 0 0 0 .24.91"/><path fill="#d76ec4" d="M166.07 97.98q-.36.94-.19 1.9.11.58-.48.53-1.93-.17-.55-1.87.22-.28.34-.62.46-1.29 1.63-.65.41.22 0 .46-.23.14-.48.1-.2-.04-.27.15"/><path fill="#c55bb1" d="M215.76 97.26q.21-.13.45-.12.69.04.6.72l-.14 1.12q-.1.82-.52.11l-.59-1q-.31-.52.2-.83"/><path fill="#9a69bd" d="M190.63 97.94q.32.35.52.81.24.55-.36.47l-.43-.07q-.64-.09-.45-.71l.1-.36q.18-.62.62-.14"/><path fill="#c55bb1" d="M236.49 99.05q1.76-.17 2.72 1.1.34.44.89.45.84 0 1.11.29 2 2.07-.55.73-2.37-1.26-5.25-2.8-.18-.1-.26-.29-.09-.23-.06-.5.77-.6 1.4 1.02"/><path fill="#b74ca2" d="M199.52 98.3q.35.01.36.4 0 .39-.36.25-.23-.09-.28-.32-.07-.34.28-.33"/><path fill="#d76ec4" d="M169.37 100.92q2.1 1.96-.38.51-.81-.47-1.89-2.21a.3.29 56.1 0 1 .07-.4l.21-.16q.08-.06.14.03.78 1.23 1.85 2.23"/><path fill="#b74ca2" d="M224.88 99.35q.01-.14.06-.27.07-.15.21-.07l1.37.76q.68.38.02.79-.28.18-.51-.03-.49-.46-1.04-.07-1.62 1.16-3.76-1.01-.19-.19-.02-.39.03-.05.08-.05.2-.04.35.08 1.22.95 2.66.84.54-.04.58-.58"/><path fill="#9a69bd" d="M206.97 100.17a.41.41 0 0 1 .72-.19q.31.39.19.89a.34.34 0 0 1-.5.22q-.52-.29-.41-.92"/><path fill="#d76ec4" d="m227.91 100.33-.27-.27q-.55-.54.2-.36 1.85.44 1.07 1.74a.38.38 0 0 1-.6.07q-.25-.25-.2-.6.04-.34-.2-.58M178.88 102.31q-.15.56-.59.18-.3-.25-.36-.64-.15-.95.82-1.22.65-.19.47.47z"/><path fill="#b74ca2" d="M172.68 101.77q.07-.45.5-.51a.28.27-87.7 0 1 .3.33q-.08.4-.48.48a.27.27 0 0 1-.32-.3M182.95 102.7l.55.54q.5.48-.19.55-.25.02-.47-.09-.27-.14-.31-.43-.15-1.13-1.4-1.48-.93-.26-.02-.6.44-.17.92.03.49.21.53.68.05.47.39.8"/><path fill="#d76ec4" d="M246.91 102.53q.2-.69.84-.85.7-.17.5.52-.28.92-1.08.76-.36-.07-.26-.43"/><path fill="#c55bb1" d="M216.97 102.05q-.59 1.1-1.85 1.69-.61.29-.42-.36.49-1.67 2.13-1.59a.18.18 0 0 1 .14.26"/><ellipse fill="#d76ec4" rx=".68" ry=".46" transform="rotate(39.4 -41.373 335.154)"/><path fill="#b74ca2" d="M220.6 102.3q.22.17.13.43-.41 1.13-.85.01-.09-.23.09-.4.3-.28.63-.04"/><ellipse fill="#d76ec4" rx=".87" ry=".45" transform="rotate(45.5 -11.188 316.994)"/><path fill="#b74ca2" d="M236.33 102.14q.43-.07.28.37-.14.4-.4.07-.3-.37.12-.44"/><ellipse fill="#b74ca2" rx="1.01" ry=".66" transform="rotate(36.3 -59.843 348.749)"/><path fill="#b74ca2" d="M224.87 103.39q-.23-.28-.56-.45-.27-.14-.14-.41l.1-.23q.07-.15.22-.08 1.57.68 1.26 2.25-.05.28-.35.32-.47.07-.41-.4l.05-.42q.05-.33-.17-.58M165.66 102.58q.58.83.88 1.81.29.95-.42.25-.82-.82-.82-1.95.01-.62.36-.11M244.05 103.06a.43.43 0 0 1 .62-.5q.63.33.32.76a.5.49-46.3 0 1-.78.02q-.11-.12-.16-.28"/><path fill="#d76ec4" d="M169.1 103.15q.63-.17 1.23-.01a.37.37 0 0 1 .03.7q-.87.34-1.39-.3a.25.24-27.1 0 1 .13-.39M172.69 103.47q-.27.55-.6 1.14-.29.5-.78.2-.13-.08-.22-.22-.19-.3.06-.55.55-.57 1.2-.9.68-.35.34.33M252.12 104.25q.24-.53.81-.55a.4.4 0 0 1 .36.59q-.66 1.18-1.81 1.63-1.55.6-.58-.74.2-.28.54-.37.47-.12.68-.56"/><path fill="#8a956c" d="M232.14 106q.2.52-.49.8-.78.3-.59-.51.27-1.22 1.19-2.15.62-.63.8.24.14.69-.53.86-.61.17-.38.76"/><ellipse fill="#b74ca2" rx="1.04" ry=".43" transform="rotate(36.1 -67.835 341.762)"/><path fill="#b74ca2" d="m168.69 105.67.04.12q.07.27-.1.05-.06-.09-.06-.18-.03-.5.12.01"/><ellipse fill="#b74ca2" rx="1.32" ry=".43" transform="rotate(44.5 -22.283 315.96)"/><path fill="#b74ca2" d="M166.34 106.24a.3.3 0 0 1 .51.03q.25.49-.15.93a.21.2 40 0 1-.29.02q-.46-.41-.07-.98"/><ellipse fill="#c55bb1" rx="1.69" ry=".57" transform="rotate(97.4 58.963 147.239)"/><circle cx="235.38" cy="106.49" r=".44" fill="#d76ec4"/><path fill="#c55bb1" d="m239.12 107.28-.01.56q-.02.73.66.51.26-.08.39.15.29.5-.28.64-1.71.41-2.59.01 1.17-1.11.93-2.7-.05-.3.26-.33.17-.01.27.12.27.41.37 1.04"/><path fill="#b74ca2" d="M198.88 109.4q.03.17-.1.3-.19.18-.3-.05l-1.41-2.86q-.31-.63.37-.42.5.15.55.69a.94.93 7.9 0 0 .59.77q2.54.98 2.81 3.63a.61.6 57.4 0 1-.07.32q-.19.33-.47.33-.39-.01-.48-.39-.25-1.1-.5-2.16-.11-.42-.57-.54-.49-.12-.42.38"/><ellipse fill="#d76ec4" rx="1.02" ry=".27" transform="rotate(45.7 -2.967 347.851)"/><path fill="#b74ca2" d="M168.61 107.66a.45.44-74.6 0 1-.34-.61q.17-.39.6-.47a.51.51 0 0 1 .48.83q-.28.32-.74.25M191.92 107.77l-.39-.04q-.78-.08-.17-.57l.63-.51q.54-.45.94.12.61.85.74 1.86a.32.31-72.9 0 1-.52.28q-.32-.28-.52-.66-.22-.43-.71-.48"/><ellipse fill="#c55bb1" rx=".71" ry=".5" transform="rotate(126.2 87.542 111.796)"/><path fill="#b74ca2" d="M217.15 107.77q.01-.71.5-.2.51.52.34 1.3a.28.28 0 0 1-.51.1q-.34-.53-.33-1.2"/><path fill="#861b6f" d="M243.97 111.48q-.19.83.92 1.17a.6.6 0 0 1 .39.78q-.24.63-.84.57-.2-.02-.34-.16-.1-.1-.13-.23a.37.37 0 0 0-.6-.21q-.57.47-.24 1.08.46.82 1.03.09.53-.68 1.24-.41.47.17.88-.13.3-.22.39-.6 2.98.01 5.13-2.65-.12.59.05.79a.69.69 0 0 0 1.12-.11q.23-.4-.26-.6l1.77-.36q-.21.52.2 1.54.18.45-.12.83-.65.81-.18 1.16 1.11.58 2.05.72.3 1.37 2.51 2.34-.85 1.16-.96 1.59-.55 2.28 1.34.88.31-.22 1.48-.32-.26.72.01 1.42.25.63.6.05l.19-.32 1.96 2.69q-.55.14-.75.71a.47.47 0 0 0 .6.59q.46-.15.44-.9 2.28.74 4.04 2.7-7.37.09-14.65-.83-1.83-.23-2.21 1.36-.29 1.2-.87 2.23-2.44 4.34-9.2 7.97-11.1 5.95-18.76 6.72-5.34.53-15.72.3-2-.05-4.08-.57-1.9-.49-3.63-.5l-.91-1.38q-.43-.65.35-.59.94.06 1.71-.87.23-.27.11-.6t-.4-.51q-.43-.27-.59.21-.05.13-.18.17-.43.14-.61-.28l-.33-.79q-.32-.75-.59.02-.39 1.15-1.03 1.88-.56.64-.46-.2.19-1.83 1.43-2.65 1.05-.69.83-1.55l1.06.86q.43.36.81-.06.33-.38.02-1.01-.46-.96-1.69-.54l-.53-1.01q-.28-.52.16-.91.71-.62 1.09-1.43.27-.58.84-.29 1.44.73 2.93.12.09.63.79.8-.45.25-.64.57-.33.55.26.8 1.16.48 1.98 1.51a.98.98 0 0 0 1.72-.39q.06-.27.18-.5.29-.56.29.07v1.04a.22.22 0 0 0 .27.21q.21-.05.25-.2.07-.24-.05-.46-.44-.81-.08-1.67.3-.7-.25-1.23l-1.02-1.01q-.46-.45.09-.78.94-.54 1.27-.98 3.18 1.66 3.89-2.91-1.12-.01-1.7-.85-.28-.41-.77-.53-1.16-.3-1.42.83.56-3.17 3.6-3.53-.03.91 1.26.87 1.14 1.2.73 2.9-.24.04-.33.21a.86.84-53.7 0 0 .14.97q.14.15.49-.16.68.45 1.46.6.47-.01.98-.29.45-.26.75.16.25.33.29.81.02.25.27.23l.26-.02a.14.14 0 0 0 .13-.17q-.21-1.5-1.35-2.37.23-.22.33-.46.14-.36-.24-.4-.2-.03-.33-.21-.17-.26.14-.21.15.03.28-.05.29-.17.05-.41-.09-.09-.23-.11-.03 0-.12.07l-.28.23q-.15.12-.21-.06-.55-1.62 1.09-2.43.56-.27.33-.85-.21-.55.19-.99.64-.69 1.47-.4.47.17.56.65.17.93 1.4.97 2.02.16.27-1.75l.89-1.17q.78 2.33 1.76 2.66l-.35 1.03q-.54-.05-.83-.01-.77.12-.06.45 1 .45 1.54 1.32.29.46.79.24l.23-.1q.84-.36.04-.79l-.52-.28 1.78-.86q.36-.25.37-.51.02-.25-.3-.43-.48-.27-1.09-.24.23-.15.61-.21.46-.09.52-.56.12-1.07 1.08-1.88-.01 1.01-.41 2.11-.14.4.28.31l.58-.11a.59.58-87.3 0 0 .44-.41l.66-2.36 4.83 1.99q-.43 1.72 1.17 2.07a.38.38 0 0 0 .44-.48l-.66-2.05q1.96-1.45 2.27-4.28 1.53-.62-2.19-1.61-.36-3.1 2.19-4.26.88.4 2.59-.01.57-.14.28-.64-.13-.23-.39-.15-.68.22-.66-.51l.01-.56q.42.85 1.82 1.17.48.11.71.54.85 1.59 2.32 2.49m-7.93.77q-.22.19.07.17.67-.04 1.21-.38.47-.3.97-.06l.89.43q.7.33.31-.34-.43-.77-1.17-1.14-.47-.23-.87.11zm5.36 1.57q.26.23.54.02.32-.24.01-.5t-.57-.01q-.25.25.02.49m8.19 3.02q.59-.37.47-1.12-.14-.86-.64-.14c-1.15 1.71-1.87 4.38-4.74 2.86q-.16-.09-.25.08h-.01q-.08.16.08.23 1.81.91 4.27.48.37-.07.37-.45l-.02-1.07q-.01-.57.47-.87m-9.67-.46a.35.35 0 0 0-.44-.43q-.26.07-.34.33a.33.33 0 0 0 .27.43q.41.06.51-.33m16.059 2.239a.45.39 24.8 0 0-.245-.543.45.39 24.8 0 0-.573.165.45.39 24.8 0 0 .245.543.45.39 24.8 0 0 .572-.165m-19.239 1.841q.1.55.66.65.45.08.36-.37-.09-.48-.46-.68a.39.38 9.1 0 0-.56.4m15.01.47q-.56.1-.99-.21-.57-.42-.87.22-.16.33-.04.69.18.51.71.51 1.52.03 2.35-1.22.34-.52-.27-.6-.34-.04-.5.3a.56.53-82 0 1-.39.31m-9.7 1.93q1.55-.18.19-.94-.72-.4-1.45-.55a.64.63-23 0 0-.47 1.16q.71.45 1.73.33m-14.32-.18q-.16-.17-.4-.24-.38-.12-.12.18l.9 1.07q.4.48.98.26 1.15-.43 1.71-1.47.12-.22-.01-.45-.26-.42-.62-.07-.78.75-1.82.93-.36.06-.62-.21m5.48-.172a.78.33-29.3 0 0-.841.094.78.33-29.3 0 0-.52.67.78.33-29.3 0 0 .843-.094.78.33-29.3 0 0 .518-.67m-14.18 1.392q0-.32-.13-.57-.47-.86-.34.11.21 1.59 1.01 2.42.44.46.67-.15.23-.65-.56-.9a.93.93 0 0 1-.65-.91m23.37 2.08-1.55-2.04q-.35-.45-.71 0-.09.12-.1.27-.05.5.39.73 1.61.86 2.46 2.5.65 1.25 1.13-.08.5-1.38 1.67-2.06.49-.28.35-.82l-.08-.29q-.11-.43-.52-.28-1.26.48-1.51 1.72-.38 1.85-1.53.35m-6.44-1.5 2 1.79q.4.36.65-.12l.22-.4q.22-.41-.22-.58l-2.48-.96q-.85-.33-.17.27m10.14 1.45q-.42.66.29 1.1a.35.35 0 0 0 .52-.4l-.17-.61a.35.35 0 0 0-.64-.09m-13.1 1.24q-.12.47.42.72a.43.43 0 0 0 .59-.28q.12-.5-.42-.73-.47-.2-.59.29m-6.1.13q-.23-.11-.41-.29a.23.23 0 0 0-.39.2q.29 1.85 1.78 1.28.24-.09.48-.27.79-.6-.2-.66l-.41-.03a2.23.74 33.4 0 1-.85-.23m14.21.2q-.46.75.06 1.26a.45.44 39.7 0 0 .68-.06q.46-.67.06-1.23a.48.48 0 0 0-.8.03m5.57 1.67q.22.21.49.21a.31.31 0 0 0 .23-.5l-.52-.63a.44.44 0 0 0-.7.03q-.13.19-.14.41-.02.33.3.42.17.04.34.06m-35.281 2.65a.86.44 92.1 0 0 .47-.844.86.44 92.1 0 0-.407-.875.86.44 92.1 0 0-.472.843.86.44 92.1 0 0 .409.875m8.271-.2q.65.1 1.24-.23a.59.59 0 0 0 .24-.79l-.14-.28a.65.65 0 0 0-1.03-.17q-.71.68-1.64.96-.15.05-.1.19l.08.28a.37.37 0 0 0 .47.23l.49-.16q.19-.07.39-.03m-6.11.263a.69.41 81.7 0 0 .306-.742.69.41 81.7 0 0-.506-.624.69.41 81.7 0 0-.306.742.69.41 81.7 0 0 .506.624m-4.42-.653a.37.37 0 0 0 .11.64q.48.17.81-.26.33-.45-.22-.55-.37-.08-.7.17m29.82 1.78q.27.12.51-.11a.65.64 43.8 0 0-.02-.94q-.74-.67-1.54-.05-.7.56-.36 1.39.12.31.39.13.12-.09.2-.21.3-.46.82-.21m-4.06-.1c-.35-.26-.55-.64-.89-.9q-.27-.21-.59-.08-.42.17-.31.57a2.16 1.74 86.8 0 0 1.38 1.53q.59.13.65-.61.02-.17-.06-.31-.06-.12-.18-.2m6.208 1.11a1.31.53 134.1 0 0 1.293-.571 1.31.53 134.1 0 0 .53-1.31 1.31.53 134.1 0 0-1.292.572 1.31.53 134.1 0 0-.53 1.31m-14.558 4q-.24.19-.24.53-.01.57.41.2 1.7-1.51 2.09-4.47.06-.41-.34-.54l-.48-.15q-.64-.21-.73.47l-.4 3.39q-.04.35-.31.57m-9.908-3.435a.45.37 16.2 0 0-.329-.48.45.37 16.2 0 0-.535.23.45.37 16.2 0 0 .329.48.45.37 16.2 0 0 .535-.23m18.903 2.853a1.1.35 131.2 0 0 .988-.597 1.1.35 131.2 0 0 .462-1.059 1.1.35 131.2 0 0-.988.597 1.1.35 131.2 0 0-.462 1.059m-14.515.312q-.42.97-.03 1.91.17.42.64.5.38.06.73-.03.77-.19.38-.88-.35-.64-1.03-.89-.71-.27-.56-1.02.09-.43-.16-.75-.45-.59-.26.13.07.26.23.48a.58.58 0 0 1 .06.55m-18.35-.82q1.24 1.03 1.37 2.39.01.06.07.07l.3.01q.2 0 .19-.2-.09-2.4-1.74-2.68-.84-.14-.19.41m-.83.48a.43.43 0 0 0-.43-.43.43.43 0 0 0-.43.43.43.43 0 0 0 .43.43.43.43 0 0 0 .43-.43m31.404.702a.85.5-22.7 0 0-.977-.133.85.5-22.7 0 0-.591.789.85.5-22.7 0 0 .977.133.85.5-22.7 0 0 .591-.789m-8.84 2.018a.94.49 90.4 0 0 .496-.937.94.49 90.4 0 0-.483-.943.94.49 90.4 0 0-.497.937.94.49 90.4 0 0 .483.943m-14.054-1.17q-.41.26-.42.78a.4.39-10.8 0 0 .55.37q.54-.22.46-.87a.39.38-19 0 0-.59-.28m-2.2.52q-.48 1.01-.66 2.19-.13.79.32.12.82-1.21.76-2.23-.05-.86-.42-.08m17.93.85q-.17.62.03 1.19a.49.49 0 0 0 .94-.03q.2-.71-.19-1.28a.44.43 36 0 0-.78.12m3.46.27a.83.56 0 0 0-.83-.56.83.56 0 0 0-.83.56.83.56 0 0 0 .83.56.83.56 0 0 0 .83-.56m-6.76.42q-1.43.82.18 1.17.21.04 1-.3.31-.13.39-.32a.45.45 0 0 0-.32-.6q-.86-.18-1.25.05"/><ellipse fill="#d76ec4" rx=".53" ry=".35" transform="rotate(136.9 92.269 99.184)"/><ellipse fill="#c55bb1" rx="1.14" ry=".64" transform="rotate(36.4 -49.203 407.941)"/><path fill="#c55bb1" d="M260.07 108.52q-.06-.28.19-.39a.28.28 0 0 1 .39.28q-.04.34-.37.3a.25.24 86.5 0 1-.21-.19M262.39 108.45q-.42-.39.15-.45.64-.06 1.12.35a.29.29 0 0 1-.2.52q-.64-.02-1.07-.42"/><path fill="#d76ec4" d="M257.75 108.86q-.38-.89.32-.22.82.79 1.46 1.75 1.27 1.89-.59.56-.44-.32-1.19-2.09M167.53 109.9q.61 1.05-.54.65-1.47-.51-1.04-1.6.28-.71.78-.14.45.51.8 1.09"/><circle cx="168.41" cy="109.61" r=".53" fill="#c55bb1"/><circle cx="244.94" cy="109.51" r=".59" fill="#d76ec4"/><path fill="#b74ca2" d="M219.36 110.46q-.48-.32-.78-.78-.39-.61.33-.58.99.03 1.03 1.04.02.73-.58.32"/><ellipse fill="#d76ec4" rx=".95" ry=".43" transform="rotate(65.2 62.062 288.088)"/><circle cx="206.22" cy="110.58" r=".37" fill="#d76ec4"/><path fill="#c55bb1" d="M229.74 111.79q.47.24.88.52.63.45-.14.46-1.33.02-2.17-1.36-.23-.38-.16-.77.13-.81.54-.09.24.43.52.8.21.29.53.44"/><path fill="#b74ca2" d="M267.29 112.26q-.31-.83.05-1.71.27-.66.38.04.13.86-.1 1.65-.14.5-.33.02"/><path fill="#d76ec4" d="M212.91 110.6a.18.17 75.9 0 1 .26.16q-.01.54-.41.85-.66.52-.42-.29.15-.48.57-.72"/><path fill="#b74ca2" d="M254.38 114.03q-.47-.35.18-1.16.3-.38.12-.83-.41-1.02-.2-1.54 1.12.33 1.03 2.77-.02.54-1.13.76"/><path fill="#c55bb1" d="m236.04 112.25 1.41-1.21q.4-.34.87-.11.74.37 1.17 1.14.39.67-.31.34l-.89-.43q-.5-.24-.97.06-.54.34-1.21.38-.29.02-.07-.17M252.71 110.86q.49.2.26.6a.69.69 0 0 1-1.12.11q-.17-.2-.05-.79z"/><path fill="#d76ec4" d="m169.14 112.24.74 1.12q.24.36-.17.5l-.62.21q-.38.13-.46-.27l-.52-2.51q-.14-.7.41-.24.3.24.37.6.07.32.25.59"/><ellipse fill="#b74ca2" rx=".95" ry=".51" transform="rotate(72 21.858 192.057)"/><path fill="#c55bb1" d="M246.67 113.43q-.09.38-.39.6-.41.3-.88.13-.71-.27-1.24.41-.57.73-1.03-.09-.33-.61.24-1.08a.37.37 0 0 1 .6.21q.03.13.13.23.14.14.34.16.6.06.84-.57a.6.6 0 0 0-.39-.78q-1.11-.34-.92-1.17l.4-.41q.48-.49.59.18.28 1.55 1.71 2.18"/><path fill="#b74ca2" d="M265.61 111.78q.34.08.26.43a.3.3 0 0 1-.54.1q-.2-.3-.07-.7.05-.12.17-.07.07.03.07.11.01.11.11.13"/><path fill="#d76ec4" d="M187.02 113.26q-.19-.33-.3-.67-.11-.31.09-.57.51-.65 1.05-.07a3.53 3.43-73.7 0 1 .86 1.63q.27 1.19-.89 1.56-.69.22-.7-.5l-.01-1a.81.76 32 0 0-.1-.38M172.06 112.7q.1-.27.35-.35.34-.1.17.21-.38.67-1.01 1.12-.29.21-.21-.14.08-.32.39-.49.22-.12.31-.35"/><path fill="#b74ca2" d="M206.15 113.45q.04.58.47 1.06a.62.55 23.2 0 1 .16.34q.08.54-.24.74-.28.17-.44-.12-.93-1.63-.26-2.89a.56.56 0 0 1 .49-.29q.29 0 .44.22.14.23-.04.44-.14.17-.36.21a.27.26 83.1 0 0-.22.29"/><ellipse fill="#c55bb1" rx="1.16" ry=".37" transform="rotate(52.2 -15.845 262.004)"/><path fill="#b74ca2" d="m237.29 115.02-2.19-1.61q3.72.99 2.19 1.61"/><path fill="#d76ec4" d="M241.38 113.33q.26-.25.57.01t-.01.5q-.28.21-.54-.02-.27-.24-.02-.49"/><ellipse fill="#d76ec4" rx=".83" ry=".35" transform="rotate(35.4 -42.381 484.385)"/><path fill="#d76ec4" d="M265.85 114.89c-1.24.82-1.43 1.4-2.25 2.51q-.33.44-.27-.1.24-1.95 2.13-3.08.18-.1.3.07l.16.24q.15.22-.07.36"/><ellipse fill="#d76ec4" rx=".78" ry=".34" transform="rotate(116.2 103.864 144.406)"/><path fill="#d76ec4" d="M192.02 114.98q.17-.54.58-.15.27.26.2.7a.35.34 18.5 0 1-.51.25q-.44-.24-.27-.8"/><path fill="#c55bb1" d="M204.14 116.62q-.8-.89-.05-1.91.51-.7.74.13.22.8-.06 1.65-.2.6-.63.13"/><path fill="#d76ec4" d="M258.94 117.09q-2.21-.97-2.51-2.34.64-.65 1.09-.23 1.39 1.26 1.42 2.57"/><path fill="#b74ca2" d="m249.12 117.71.02 1.07q0 .38-.37.45-2.46.43-4.27-.48-.16-.07-.08-.23h.01q.09-.17.25-.08c2.87 1.52 3.59-1.15 4.74-2.86q.5-.72.64.14.12.75-.47 1.12-.48.3-.47.87"/><path fill="#d76ec4" d="M183.31 116.4q.07-.42.53-.43a.34.34 0 0 1 .29.52q-.15.23-.42.29-.49.12-.4-.38"/><path fill="#b74ca2" d="M198.33 116.73q-.39-.25-.12-.6.23-.29.45.01.13.17.08.41-.07.38-.41.18"/><path fill="#c55bb1" d="M239.92 116.38q-.1.39-.51.33a.33.33 0 0 1-.27-.43q.08-.26.34-.33a.35.35 0 0 1 .44.43"/><path fill="#d76ec4" d="M266.94 117.55q-.17-.55-.63-.98-.38-.36.1-.57.37-.17.74.03.29.15.33.47.06.5-.02 1.01-.17 1.15-.52.04M272.83 116.28q.15.25-.18.34-.39.11-.23-.26.2-.46.41-.08"/><path fill="#c55bb1" d="M191.76 117.8q1.03.15 1.56 1.07.39.69-.31.32-1.39-.73-2.81-1.57-.51-.3-.53-.9-.03-.83.57-.26.31.29.53.66.33.58.99.68"/><path fill="#d76ec4" d="M201.78 119.11q.16.09.12.26a.37.37 0 0 1-.5.27q-.54-.2-.95-.62-.51-.51.02-1l1.01-.93q.65-.6.65.28 0 .57-.42.88-.64.47.07.86M276.12 117.84q.43-.61 1.13-.71.96-.14.42.66l-.99 1.51q-.29.43-.65.07l-.57-.54q-.55-.53.13-.87.16-.07.33-.04.13.03.2-.08"/><path fill="#9a69bd" d="m229.24 117.77-.66 2.36a.59.58-87.3 0 1-.44.41l-.58.11q-.42.09-.28-.31.4-1.1.41-2.11 1.3-1.8 1.55-.46"/><path fill="#b74ca2" d="M279.37 117.74q.12.2-.03.34-.06.06-.12.02-.18-.11-.07-.35.1-.22.22-.01M223.88 121.06q-.98-.33-1.76-2.66-.19-.2.14-.32a.57.56 70.4 0 1 .72.35z"/><ellipse fill="#760b5f" rx=".45" ry=".39" transform="rotate(24.8 -141.54 640.415)"/><path fill="#c55bb1" d="m195.82 118.85-.21-.24q-.48-.56.2-.27.74.32.94 1.12.75 3.03-1.01 4.37-.17.14-.32-.02l-.24-.25q-.28-.28-.05-.61 1.08-1.47 1.08-3.05.01-.6-.39-1.05"/><path fill="#d76ec4" d="m261.6 120.39-.19.32q-.35.58-.6-.05-.27-.7-.01-1.42.16-.37.37-.56.49-.44.66.2.18.69-.23 1.51"/><ellipse fill="#d76ec4" rx=".95" ry=".23" transform="rotate(111.6 95.191 151.796)"/><path fill="#d76ec4" d="M273.23 118.44q.07-.14.22-.16.36-.05.31.3-.02.18-.2.24a.28.27-86.5 0 1-.33-.38M188.11 118.71q.58-.13.31.4-.27.52-.85.67-.51.12-.3-.36.24-.57.84-.71"/><path fill="#c55bb1" d="M221.23 119.57q1.75 1.91-.27 1.75-.08-1.17-.54-1.22-1.87-.2-.25-1.16.39-.22 1.06.63"/><path fill="#d76ec4" d="M276.45 122.02q1.22-1.2 1.72-2.45.35-.86.74-.05.08.14.17.28.27.37-.04.7-1.15 1.24-2.59 1.52"/><path fill="#b74ca2" d="m235.02 119.3.66 2.05a.38.38 0 0 1-.44.48q-1.6-.35-1.17-2.07.31-.57.95-.46M236.74 120.46a.39.38 9.1 0 1 .56-.4q.37.2.46.68.09.45-.36.37-.56-.1-.66-.65"/><path fill="#9a69bd" d="m199.46 121.11-1.28-.38q-.08-.03-.07-.11l.02-.26q.01-.24.25-.21 2.33.27 2.59 2.25.08.64-.56.62l-.36-.01q-.18 0-.18-.18l.03-1.12q.02-.47-.44-.6M252.14 120.62q.16-.34.5-.3.61.08.27.6-.83 1.25-2.35 1.22-.53 0-.71-.51-.12-.36.04-.69.3-.64.87-.22.43.31.99.21a.56.53-82 0 0 .39-.31"/><path fill="#c55bb1" d="M225.48 120.88q.61-.03 1.09.24.32.18.3.43-.01.26-.37.51-.78-.12-1.15-.63-.21-.3.13-.55M191.76 121.41q.23-.2.56-.15a.37.37 0 0 1 .25.56q-.27.42-.75.17a.35.35 0 0 1-.06-.58M242.05 122.86q-1.02.12-1.73-.33a.64.63-23 0 1 .47-1.16q.73.15 1.45.55 1.36.76-.19.94"/><path fill="#d76ec4" d="M265.14 121.85a.41.41 0 0 1 .53-.49q.3.1.47.35a.39.39 0 0 1-.29.61q-.57.04-.71-.47"/><path fill="#c55bb1" d="M212.71 123.11q-1.29.04-1.26-.87l.63-.47q.53-.39.77.22.16.43-.14 1.12"/><path fill="#d76ec4" d="M228.35 122.89q1.04-.18 1.82-.93.36-.35.62.07.13.23.01.45-.56 1.04-1.71 1.47-.58.22-.98-.26l-.9-1.07q-.26-.3.12-.18.24.07.4.24.26.27.62.21"/><path fill="#b74ca2" d="M276.45 122.02q-1.25 1.5-3.32.06-.16-.11-.07-.29.12-.24.37-.14 1.53.64 3.02.37"/><path fill="#d76ec4" d="M190.09 123.95q.08.11.17.22.3.38-.16.22-1.11-.37-1.78-1.42a.6.6 0 0 1 .65-.91q.71.18.79 1.02.04.48.33.87"/><path fill="#9a69bd" d="M223.53 122.09q.33.49 1.19.83l.52.28q.8.43-.04.79l-.23.1q-.5.22-.79-.24-.54-.87-1.54-1.32-.71-.33.06-.45.29-.04.83.01"/><ellipse fill="#d76ec4" rx=".66" ry=".36" transform="rotate(36.3 -53.05 468.969)"/><ellipse fill="#b74ca2" rx=".78" ry=".33" transform="rotate(-29.3 351.315 -383.312)"/><ellipse fill="#6f0458" rx=".71" ry=".58" transform="rotate(40.5 -68.145 330.907)"/><path fill="#d76ec4" d="M191.14 123.57q.4-.6 1.06-.61a.37.36 21.6 0 1 .27.62q-.45.46-1.07.47a.31.31 0 0 1-.26-.48"/><path fill="#b74ca2" d="M219.68 124.81q.79.25.56.9-.23.61-.67.15-.8-.83-1.01-2.42-.13-.97.34-.11.13.25.13.57a.93.93 0 0 0 .65.91"/><path fill="#d76ec4" d="M263.56 123.08q.31.13.29.4.02.75-.44.9a.47.47 0 0 1-.6-.59q.2-.57.75-.71M242.4 125.98q1.15 1.5 1.53-.35.25-1.24 1.51-1.72.41-.15.52.28l.08.29q.14.54-.35.82-1.17.68-1.67 2.06-.48 1.33-1.13.08-.85-1.64-2.46-2.5-.44-.23-.39-.73.01-.15.1-.27.36-.45.71 0z"/><path fill="#c55bb1" d="m237.96 126.27-2-1.79q-.68-.6.17-.27l2.48.96q.44.17.22.58l-.22.4q-.25.48-.65.12M211.74 126.32q-1.67.7-1.9 2.63-.07.55-.57.3-.35-.18-.35-.75 0-2.31-1.05-.85-.46-1.11-.02-1.88.26-1.13 1.42-.83.49.12.77.53.58.84 1.7.85"/><path fill="#d76ec4" d="M246.1 125.93a.35.35 0 0 1 .64.09l.17.61a.35.35 0 0 1-.52.4q-.71-.44-.29-1.1"/><path fill="#c55bb1" d="M213.44 126.01q.39.36.3 1.02-.35.31-.49.16a.86.84-53.7 0 1-.14-.97q.09-.17.33-.21"/><path fill="#d76ec4" d="M216.53 125.98q1.14.87 1.35 2.37a.14.14 0 0 1-.13.17l-.26.02q-.25.02-.27-.23-.04-.48-.29-.81-.3-.42-.75-.16-.51.28-.98.29.44-.9 1.33-1.65M211.74 126.32q-.71 4.57-3.89 2.91.23-.91.02-1.58 1.05-1.46 1.05.85 0 .57.35.75.5.25.57-.3.23-1.93 1.9-2.63"/><path fill="#c55bb1" d="M190.88 127.36a.79.78 50.3 0 0 1.25.12q.35-.39.57.08.01 0 .01.01v.01q.08.21-.13.29-1.44.52-2.99-.22-.59-.28-.02-.6.12-.07.26-.13.47-.21.82.14.13.13.23.3"/><path fill="#d76ec4" d="M233 127.17q.12-.49.59-.29.54.23.42.73a.43.43 0 0 1-.59.28q-.54-.25-.42-.72M227.75 127.53l.41.03q.99.06.2.66-.24.18-.48.27-1.49.57-1.78-1.28a.23.23 0 0 1 .39-.2q.18.18.41.29a2.23.74 33.4 0 0 .85.23M241.11 127.5a.48.48 0 0 1 .8-.03q.4.56-.06 1.23a.45.44 39.7 0 1-.68.06q-.52-.51-.06-1.26M246.68 129.17q-.17-.02-.34-.06-.32-.09-.3-.42.01-.22.14-.41a.44.44 0 0 1 .7-.03l.52.63a.31.31 0 0 1-.23.5q-.27 0-.49-.21"/><ellipse fill="#d76ec4" rx=".86" ry=".44" transform="rotate(92.1 42.592 167.39)"/><path fill="#9a69bd" d="m219.28 131.65-.49.16a.37.37 0 0 1-.47-.23l-.08-.28q-.05-.14.1-.19.93-.28 1.64-.96a.65.65 0 0 1 1.03.17l.14.28a.59.59 0 0 1-.24.79q-.59.33-1.24.23-.2-.04-.39.03"/><ellipse fill="#d76ec4" rx=".69" ry=".41" transform="rotate(81.7 30.866 189.03)"/><path fill="#8a956c" d="M203.58 132.25q-.7-.17-.79-.8.15-.27.45-.36a.6.59 70.1 0 1 .69.33q.25.56-.35.83"/><path fill="#d76ec4" d="M209.14 131.23q.33-.25.7-.17.55.1.22.55-.33.43-.81.26a.37.37 0 0 1-.11-.64"/><path fill="#c55bb1" d="M238.14 133.22q-.08.12-.2.21-.27.18-.39-.13-.34-.83.36-1.39.8-.62 1.54.05a.65.64 43.8 0 1 .02.94q-.24.23-.51.11-.52-.25-.82.21"/><path fill="#8a956c" d="M234.9 132.91q.12.08.18.2.08.14.06.31-.06.74-.65.61a2.16 1.74 86.8 0 1-1.38-1.53q-.11-.4.31-.57.32-.13.59.08c.34.26.54.64.89.9"/><ellipse fill="#8a956c" rx="1.31" ry=".53" transform="rotate(134.1 92.834 117.781)"/><path fill="#9a69bd" d="m226.86 137.45.4-3.39q.09-.68.73-.47l.48.15q.4.13.34.54-.39 2.96-2.09 4.47-.42.37-.41-.2 0-.34.24-.53.27-.22.31-.57"/><ellipse fill="#d76ec4" rx=".45" ry=".37" transform="rotate(16.2 -364.278 826.815)"/><path fill="#b74ca2" d="M182.91 138.3q-.74-.34-1.08-.68l.39-2.41q.03-.19.21-.15l.25.04a.3.3 0 0 1 .23.35q-.28 1.44 0 2.85"/><path fill="#d76ec4" d="M198.3 134.97q1.23-.42 1.69.54.31.63-.02 1.01-.38.42-.81.06l-1.06-.86q-.13-.39.2-.75"/><ellipse fill="#d76ec4" rx="1.1" ry=".35" transform="rotate(131.2 87.15 121.893)"/><ellipse fill="#b74ca2" rx="1.1" ry=".47" transform="rotate(123.1 55.347 118.702)"/><path fill="#d76ec4" d="M220.97 137.2q-.16-.22-.23-.48-.19-.72.26-.13.25.32.16.75-.15.75.56 1.02.68.25 1.03.89.39.69-.38.88-.35.09-.73.03-.47-.08-.64-.5-.39-.94.03-1.91a.58.58 0 0 0-.06-.55M202.68 136.93q-.65-.55.19-.41 1.65.28 1.74 2.68.01.2-.19.2l-.3-.01q-.06-.01-.07-.07-.13-1.36-1.37-2.39"/><ellipse fill="#b74ca2" rx=".48" ry=".42" transform="rotate(79.6 11.569 181.735)"/><circle cx="201.42" cy="137.41" r=".43" fill="#d76ec4"/><ellipse fill="#d76ec4" rx="1.09" ry=".55" transform="rotate(125.4 60.249 119.06)"/><ellipse fill="#d76ec4" rx=".85" ry=".5" transform="rotate(-22.7 461.08 -509.849)"/><ellipse fill="#d76ec4" rx=".94" ry=".49" transform="rotate(90.4 43.1 181.024)"/><path fill="#760b5f" d="M210.36 138.96a.39.38-19 0 1 .59.28q.08.65-.46.87a.4.39-10.8 0 1-.55-.37q.01-.52.42-.78"/><path fill="#b74ca2" d="M208.16 139.48q.37-.78.42.08.06 1.02-.76 2.23-.45.67-.32-.12.18-1.18.66-2.19"/><path fill="#c55bb1" d="M191.21 141.66q-.65-.08-1.4-.5.16-.72.68-.99.51-.27.58.3z"/><path fill="#d76ec4" d="M226.09 140.33a.44.43 36 0 1 .78-.12q.39.57.19 1.28a.49.49 0 0 1-.94.03q-.2-.57-.03-1.19"/><ellipse cx="228.72" cy="140.6" fill="#8a956c" rx=".83" ry=".56"/><path fill="#c55bb1" d="M222.79 141.02q.39-.23 1.25-.05a.45.45 0 0 1 .32.6q-.08.19-.39.32-.79.34-1 .3-1.61-.35-.18-1.17"/></svg>