<svg xmlns="http://www.w3.org/2000/svg" viewBox="0 0 382 382"><g fill="none" stroke-width="2"><path stroke="#550f57" d="M186.75 76.02q-.27 2.34.19 4.56.07.33.41.35.17.01.29.13.14.16.18.36.17.9.1 1.86-.05.64.59.63.26 0 .4-.21.53-.73.77.13 1.04 3.66 1.43 7.53" vector-effect="non-scaling-stroke"/><path stroke="#712b72" d="M191.11 91.36q-.65.57-.68 1.12-.03.63.43.19l.63-.63" vector-effect="non-scaling-stroke"/><path stroke="#550f57" d="M191.49 92.04q1.23-1.72 2.47-2.25a2.11 2.11 0 0 1 2.05.23q2.91 2.09 6.35 2.56 1.28.17 2.38.86.4.25.73-.08.49-.49 1.13-.72.56-.2 1.1.04c2.51 1.11 5.66-1.21 7.12 1.79q.22.46-.16.8-.38.35-.57.83-.03.11.04.18l.32.33q.3.3.5-.08l.51-1.02q.22-.45.7-.31 1.1.33 1.2 1.54.05.6-.5.38-.16-.06-.32.01-.75.3-.1.79 1.27.94 2.94.1.49-.25.26-.75-.22-.45-.63-.76-.57-.43-.41-1.12.29-1.33-.1-2.61-.16-.53.32-.79.46-.24.9-.49.63-.35.4.34-.08.22.05.45.32.55.62-.01l.94-1.77q.3-.56-.33-.64-.62-.08-1.11.21-.5.31-.93-.09l-1.57-1.46a.43.43 0 0 1 .14-.72l3.12-1.14q.52-.19.15-.6l-2.8-3.15" vector-effect="non-scaling-stroke"/><path stroke="#712b72" d="M218.4 82.92q1.23-.85 1.19-1.4-.02-.36-.43-.33-.3.02-.63.29" vector-effect="non-scaling-stroke"/><path stroke="#550f57" d="M218.53 81.48c-2.83 1.1-3.4-1.65-3.53-3.74M253.58 102.86q.41 4.43-2.92 6.27" vector-effect="non-scaling-stroke"/><path stroke="#712b72" d="M250.66 109.13q-1.01-4.4-4.65-2.51" vector-effect="non-scaling-stroke"/><path stroke="#550f57" d="M246.01 106.62q-1.98 2.15-4.69 2.82" vector-effect="non-scaling-stroke"/><path stroke="#712b72" d="M241.32 109.44q-.13-.24-.38-.34-.35-.15-.65.13" vector-effect="non-scaling-stroke"/><path stroke="#550f57" d="m240.29 109.23-2.63.24" vector-effect="non-scaling-stroke"/><path stroke="#712b72" d="m237.66 109.47-.63-1.76" vector-effect="non-scaling-stroke"/><path stroke="#550f57" d="M237.03 107.71q-1.9-.61-4.05-.12-.46.11-.62-.33l-.5-1.31q-.18-.49.17-.87 2.19-2.38 4.96-1.95" vector-effect="non-scaling-stroke"/><path stroke="#712b72" d="M236.99 103.13q.27.07.36-.05.07-.09-.04-.28-.21-.35-.5-.67" vector-effect="non-scaling-stroke"/><path stroke="#550f57" d="m236.81 102.13-4.33-7.4a.73.68-61.2 0 1-.1-.4q.03-.58-.48-.69-.66-.14-.77-.82-.04-.23-.27-.35-.58-.29-.53.35.52 6.26-1.04 12.13-.17.66.19 1.24.47.76.51 1.55a2.38 2.3-86.7 0 1-2.69 2.48q-.49-.08-1.48-1.19" vector-effect="non-scaling-stroke"/><path stroke="#712b72" d="M225.82 109.03q-1.1-1.52-1.46-1.89-1.82-1.85-3.2.52" vector-effect="non-scaling-stroke"/><path stroke="#550f57" d="M221.16 107.66q-2.03.45-3.36-.04" vector-effect="non-scaling-stroke"/><path stroke="#712b72" d="M217.8 107.62q-.78-1.82-3.17-1.98-.49-.04-.84-.39-.29-.29-.64-.53-.44-.29-.16.16.81 1.33 2.49 1.83" vector-effect="non-scaling-stroke"/><path stroke="#550f57" d="M215.48 106.71q.09 1.06-.13 1.89" vector-effect="non-scaling-stroke"/><path stroke="#712b72" d="M215.35 108.6q-1.06 1.83.15 1.39" vector-effect="non-scaling-stroke"/><path stroke="#550f57" d="M215.5 109.99q-.46 5 .88 9.31" vector-effect="non-scaling-stroke"/><path stroke="#712b72" d="m216.38 119.3 1.11 2.52" vector-effect="non-scaling-stroke"/><path stroke="#550f57" d="M217.49 121.82q-.54 2.9-3.28 4.19" vector-effect="non-scaling-stroke"/><path stroke="#712b72" d="M214.21 126.01q.07-1.07-.93-1.48" vector-effect="non-scaling-stroke"/><path stroke="#550f57" d="m213.28 124.53-1.05 1.42q-.13.16-.33.22-.14.04-.23-.06-.36-.42-.3.13.13 1.23.44 2.34.13.48-.23.81-2.38 2.2-5.21 3.41a1.1 1.09 68.3 0 1-1.45-.63c-1.4-3.73-1.21-6.94-3.41-11" vector-effect="non-scaling-stroke"/><path stroke="#712b72" d="M201.51 121.17q.61-1.35-1.28-1.61" vector-effect="non-scaling-stroke"/><path stroke="#550f57" d="M200.23 119.56q-1.03.18-.61 1.82.08.32-.25.31-.19-.01-.22-.2-.06-.44-.38-.12-.93.94-2.07 1.4-.12.05-.18.16t-.08.24q-.07.5.4.31.15-.06.3-.11.56-.18.63.41.29 2.52-.29 4.84a1.2 1.19-63.5 0 1-1.9.64l-1.9-1.52" vector-effect="non-scaling-stroke"/><path stroke="#712b72" d="M193.68 127.74q.13-.3-.18-.48-.36-.21-.79.02" vector-effect="non-scaling-stroke"/><path stroke="#550f57" d="M192.71 127.28q-1.8 1.39-2.61 2.91-.8 1.49-1.04-.18l-.18-1.23a.52.51-12.1 0 0-.66-.42l-.31.1q-.48.15-.24.6.51.93.1 1.85-.28.64-.24 1.33l.57 8.49" vector-effect="non-scaling-stroke"/><path stroke="#773077" d="M236.81 102.13q-1.13.07.18 1M237.03 107.71q-.92-.42-1.4-.18-.55.27.06.31.68.04 1.07.49.31.35.34.82.11 1.61.56.32M240.29 109.23q-.18.47-.04.64a.54.54 0 0 0 .66.15q.41-.2.41-.58M246.01 106.62q2.24.09 4.65 2.51" vector-effect="non-scaling-stroke"/><path stroke="#550f57" d="M267.24 105.27q.44.24 1.05.09M269.78 105.52q-.62.42-.48.69.1.2.29.29.45.2-.05.23-.13 0-.27.06-.08.04-.1.14c-.95 3.74.66 7.28-4.7 8.31" vector-effect="non-scaling-stroke"/><path stroke="#773077" d="M264.47 115.24q.16-.22.19-.45.11-.9-.44-.21-.19.23-.02.61.14.31.27.05" vector-effect="non-scaling-stroke"/><path stroke="#550f57" d="M264.47 115.24q1.21 2.6 3.54 3.94.5.29.74-.24.06-.13.18-.26.29-.28.69-.22 4.71.76 9.47-1.38" vector-effect="non-scaling-stroke"/><path stroke="#89428a" d="M279.09 117.08q-.81 1.16-.57 1.76.45 1.07 1.16.15.29-.38.24-1.96" vector-effect="non-scaling-stroke"/><path stroke="#550f57" d="M279.92 117.03q1.36 3.33-.16 7.54" vector-effect="non-scaling-stroke"/><path stroke="#773077" d="M192.71 127.28q-.13.39.3.55.35.12.67-.09M200.23 119.56l1.28 1.61M213.28 124.53q0 1.52.93 1.48M217.49 121.82q.25-1.79-1.11-2.52M215.5 109.99q.56-1.47-.15-1.39M215.48 106.71l2.32.91M221.16 107.66q2.29-.8 3.68.49.35.33.29.81-.06.4.18.75.18.27.42.06.23-.2.09-.74M218.53 81.48l-.13 1.44M191.49 92.04q.28-.45.25-.76-.02-.25-.27-.22-.18.02-.36.3" vector-effect="non-scaling-stroke"/><path stroke="#833d84" d="M279.92 117.03q-1 .31-.83.05M172.37 81.66q-.01.06.02.11a.16.15-42.2 0 0 .27.01q.05-.09-.01-.19-.24-.41-.28.07" vector-effect="non-scaling-stroke"/><path stroke="#712b72" d="M167.35 86.53q-.53-.29-.21.22.47.73 1.23 1.13.64.34.22-.26-.47-.66-1.24-1.09M180.9 89.55q-.1-.16-.26-.26a.36.35 9.9 0 0-.53.37q.16.84.85 1.1.48.18.98-.13.57-.34.89-.84.5-.75-.37-.51-.47.13-.83.41a.5.49-33.7 0 1-.73-.14M173.42 91.35a.15.15 0 0 0 .04.27q.3.09.62-.09a.18.18 0 0 0-.07-.33q-.31-.03-.59.15M167.3 93.52q-.04.26.22.27.23.01.25-.19.03-.33-.29-.27-.14.02-.18.19M190.24 94.38q-.01.23.16.29.25.08.29-.19.05-.27-.25-.27a.19.19 0 0 0-.2.17M167.08 98.49q.15-1.22-.41-2.16-.43-.74-.51.11-.12 1.14.39 2.14.42.84.53-.09M201.89 97.77q-.32.7.28 1.24.56.49.73-.24.26-1.15-.26-2.39-.29-.7-.55.02-.14.39-.1.8.03.3-.1.57M164.78 97.94q.18-.47-.24-.76a.42.42 0 0 0-.59.12q-.27.41.08.79a.45.45 0 0 0 .75-.15M178.43 99.06q-.21-.01-.37.11-.68.52.17.41.98-.13 1.45-1.13.18-.38-.22-.25-.39.14-.53.53-.12.35-.5.33M167.84 99.37q.22.26.54.35.39.1.24-.27-.18-.46-.61-.45a.23.23 0 0 0-.17.37" vector-effect="non-scaling-stroke"/><path stroke="#833d84" d="M172.84 99.41q-.17.33.11.56a.41.41 0 0 0 .64-.47q-.13-.34-.48-.28a.38.38 0 0 0-.27.19" vector-effect="non-scaling-stroke"/><path stroke="#712b72" d="M184.49 99.62q.11.08.27.06a.08.07-23.3 0 0 .05-.12q-.1-.14-.25-.15-.38-.02-.07.21M205.547 99.799a.43.37 26 0 0-.225-.522.43.37 26 0 0-.548.144.43.37 26 0 0 .224.522.43.37 26 0 0 .549-.144M171.74 101.51q-.02.53.51.62.55.1.42-.45-.07-.31-.35-.49a.38.38 0 0 0-.58.32M166.52 102.51q-.02.24.24.25.22.02.19-.2-.02-.17-.16-.22a.2.2 0 0 0-.27.17M226.56 104.086a.99.47 119 0 0 .891-.638.99.47 119 0 0 .069-1.094.99.47 119 0 0-.891.638.99.47 119 0 0-.069 1.094M167.73 102.89q.16.56.71.79.4.17.26-.24-.24-.68-.86-.68-.14-.01-.11.13M204.44 104.52q.27.15.24-.16-.02-.2-.22-.14a.17.16-41.4 0 0-.02.3" vector-effect="non-scaling-stroke"/><path stroke="#833d84" d="M168.269 108.164a1 .52 96.4 0 0 .628-.936 1 .52 96.4 0 0-.405-1.052 1 .52 96.4 0 0-.629.936 1 .52 96.4 0 0 .405 1.052" vector-effect="non-scaling-stroke"/><path stroke="#712b72" d="M203.023 108.258a1.43.43 42.6 0 0-.762-1.284 1.43.43 42.6 0 0-1.344-.652 1.43.43 42.6 0 0 .762 1.284 1.43.43 42.6 0 0 1.344.652M204.09 106.88q.01.46.44.66.38.18.37-.25-.01-.33-.16-.59a.35.35 0 0 0-.65.18M205.66 107.85q.1.61.65.89a.39.39 0 0 0 .54-.47q-.24-.69-.94-.71a.25.25 0 0 0-.25.29M190.47 110.41q-.11-.77-.84-1.13-.57-.29-.39.33.19.65.74 1.09.61.48.49-.29M170.34 109.92q.45.52 1.08.68.52.13.24-.33-.37-.59-1.13-.69-.54-.07-.19.34M191.74 112.54q.05.04.11.01.28-.12.02-.3-.24-.17-.51-.07a.19.18 71.6 0 0-.11.23q.07.27.3.12.1-.07.19.01M206.76 114.04q-.13-.41-.5-.64-.47-.3-.27.22.45 1.16 1.39 1.98.35.31.27-.15-.08-.47-.48-.8-.29-.24-.41-.61M193.82 122.91q.08-.16-.02-.27-.28-.32-.53.02-.47.63-.81 1.26-.35.63.32.35.49-.2.98.04 1.01.51.39-.46l-.3-.47q-.14-.23-.03-.47M187.34 125.15l-.47.93q-.39.76.37.39l.5-.24q.41-.21.21-.62-.09-.19-.14-.4-.15-.67-.47-.06" vector-effect="non-scaling-stroke"/><path stroke="#773077" d="M216.38 85.92q.23-.2.13-.47-.17-.5-.57-.16-.95.8-1.28 2.05-.13.49.37.62l.38.09q.57.15.61-.45l.06-1.07q.02-.37.3-.61M216.927 95.058a1.13.39 48.6 0 0-.454-1.106 1.13.39 48.6 0 0-1.04-.59 1.13.39 48.6 0 0 .454 1.106 1.13.39 48.6 0 0 1.04.59M229.77 105.48q.04.08.13.1.06.02.13.01.16-.03-.19-.18-.12-.05-.07.07M259.08 109.52a.23.23 0 0 0 .33-.3q-.38-.74-.95-1.16-.49-.37-.33.23.21.8.95 1.23M230.83 108.54q-.04-.08-.13-.1-.11-.03-.05.07.02.04.06.08.31.34.12-.05M217.48 110.49a.15.14 81.1 0 0 .15-.21q-.14-.27-.14-.08-.2.27-.01.29M258.54 110.48q-.43.34-.32.91.07.41.32.08.33-.41.23-.9-.05-.23-.23-.09M226.22 111.978a.67.51 134.5 0 0 .834-.12.67.51 134.5 0 0 .106-.836.67.51 134.5 0 0-.834.12.67.51 134.5 0 0-.106.836M246.63 111.27l-.04 2.45q0 .06.03.01l1.07-2.07a.5.49-62.1 0 0-.2-.66q-.24-.14-.52-.11a.38.37 87.5 0 0-.34.38M222.1 111.98l-.16 1.24q-.13.94.53.27.75-.76-.02-1.62a.2.2 0 0 0-.35.11M219.98 114.55q-.42.77-1.46.91-.23.03-.2.26l.03.27q.02.21.23.17 1.39-.33 2.35-1.65.22-.3-.15-.36-1.12-.18-.9-1.35a.33.32-18.2 0 0-.56-.28q-.2.21-.21.5-.01.24.13.43.16.21.41.29.66.2.33.81M240.59 113.65q.36-.18.05-.44-.24-.21-.52-.02a.26.26 0 0 0-.04.38q.21.24.51.08M216.11 116.34q-.08.61.21 1.16.23.44.35-.04.16-.67-.19-1.21-.31-.46-.37.09" vector-effect="non-scaling-stroke"/><path stroke="#89428a" d="M238.433 117.84a1 .4 129.6 0 0 .945-.515 1 .4 129.6 0 0 .33-1.026 1 .4 129.6 0 0-.946.516 1 .4 129.6 0 0-.33 1.026M243.767 117.84a.89.43 61.3 0 0-.05-.987.89.43 61.3 0 0-.804-.574.89.43 61.3 0 0 .05.987.89.43 61.3 0 0 .804.575" vector-effect="non-scaling-stroke"/><path stroke="#773077" d="M258.187 117.905a.87.37 131.2 0 0 .851-.411.87.37 131.2 0 0 .295-.899.87.37 131.2 0 0-.851.411.87.37 131.2 0 0-.295.899M256.45 117.82a.48.48 0 0 0-.54-.74q-.52.17-.57.78a.42.42 0 0 0 .58.42q.31-.14.53-.46M222.99 118.48q.12.18.32.23.79.2.35-.49-.39-.6-1.14-.82-.57-.17-.35.38.17.41.6.53a.4.37 80.7 0 1 .22.17" vector-effect="non-scaling-stroke"/><path stroke="#89428a" d="M220.93 118.24q-.34.29-.18.69a.27.26-12.4 0 0 .26.16q.62-.01.85-.61a.34.34 0 0 0-.31-.46q-.35-.01-.62.22" vector-effect="non-scaling-stroke"/><path stroke="#773077" d="M218.3 118.46a.18.18 0 0 0 .36-.01q.03-.16-.13-.22-.05-.02-.1-.01-.17.06-.13.24M242.698 120.537a1.04.35 39.9 0 0-.573-.936 1.04.35 39.9 0 0-1.023-.398 1.04.35 39.9 0 0 .573.935 1.04.35 39.9 0 0 1.023.4M259.77 120.952a.95.37 47.6 0 0-.367-.951.95.37 47.6 0 0-.914-.453.95.37 47.6 0 0 .368.951.95.37 47.6 0 0 .914.453M232.16 120.33q-.05.41.27.56a.33.33 0 0 0 .47-.34q-.06-.45-.45-.46a.29.28-84.3 0 0-.29.24M279.16 121.59q-.02.19.16.31.26.17.43-.09.11-.17 0-.36-.49-.76-.59.14M235.28 121.26q-.51-.11-.24.33.24.39.69.5.88.2.24-.44-.29-.29-.69-.39M223.04 122.53q.28.2.19-.13-.09-.32-.33-.56-.53-.53-.26.17.11.31.4.52M199.57 125.61q.05-.13-.03-.24-.06-.1-.14-.01-.09.11-.06.24.09.36.23.01M219.2 127.32q-.01.64.01 1.21 0 .17.14.28.12.1.26.06.27-.1.3-.38.09-1.01-.07-1.88-.11-.58-.42-.08-.22.34-.22.79M201.354 128.825a.62.4 114.4 0 0 .62-.4.62.4 114.4 0 0-.108-.73.62.4 114.4 0 0-.62.4.62.4 114.4 0 0 .108.73M232.47 128.43q.24.4.67.56a.32.32 0 0 0 .38-.47q-.27-.43-.76-.52a.29.28 79.2 0 0-.29.43M237.87 130.11l-.38.02q-.29.01-.3.31-.01.15.07.29.25.46.61.08.57-.59 1.39-.8.78-.2.83-1.01l.03-.46q.08-1.17-.66-.26-.54.67-.95 1.44-.21.37-.64.39M216.05 128.59q.41.62 1.1.86.51.18.29-.31-.36-.83-1.15-.93-.54-.08-.24.38M214.372 130.872a1.1.52 59.9 0 0-.102-1.213 1.1.52 59.9 0 0-1.002-.69 1.1.52 59.9 0 0 .102 1.212 1.1.52 59.9 0 0 1.002.69M221.01 129.66q.1.37.43.24.21-.08.23-.31t-.18-.33a.35.34-84.6 0 0-.48.4M217.59 133.04q-.18.06-.21.2-.16.83.53.33.78-.56.48-1.5-.18-.56-.73-.75-.52-.17-.32.34l.41 1.05q.1.25-.16.33" vector-effect="non-scaling-stroke"/><path stroke="#89428a" d="M192.8 132.5a.33.33 0 0 0-.33-.33.33.33 0 0 0-.33.33.33.33 0 0 0 .33.33.33.33 0 0 0 .33-.33" vector-effect="non-scaling-stroke"/><path stroke="#773077" d="M239.34 133.04q-.13-.05-.19.08-.12.26-.08.57a.29.29 0 0 0 .55.1q.26-.52-.28-.75" vector-effect="non-scaling-stroke"/><path stroke="#89428a" d="M223.47 135.153a.8.46 38 0 0-.347-.855.8.46 38 0 0-.913-.13.8.46 38 0 0 .347.855.8.46 38 0 0 .913.13" vector-effect="non-scaling-stroke"/><path stroke="#773077" d="M204.93 136.16q.72-.24.92-.84a.24.24 0 0 0-.39-.26l-.76.7a.24.24 0 0 0 .23.4M223.81 136.8c.54.48.89.61 1.36 1.24q.5.68.39-.16-.13-1.03-1.14-1.87-.21-.17-.46-.06-.15.07-.24.2-.23.36.09.65" vector-effect="non-scaling-stroke"/><path stroke="#89428a" d="M227.03 138.61q-.19.64.38.87a.48.48 0 0 0 .64-.33q.09-.36-.09-.66a.51.51 0 0 0-.93.12" vector-effect="non-scaling-stroke"/><path stroke="#773077" d="M200.84 141.18q.23-.96-.22-1.71-.38-.64-.47.1-.12.92.29 1.67.27.48.4-.06M194.92 140.21q.11.37.44.55a.36.36 0 0 0 .53-.35q-.05-.5-.51-.65a.37.36.5 0 0-.46.45" vector-effect="non-scaling-stroke"/><path stroke="#89428a" d="M211.949 140.712a.67.44 37.9 0 0-.259-.76.67.44 37.9 0 0-.799-.064.67.44 37.9 0 0 .259.76.67.44 37.9 0 0 .799.064" vector-effect="non-scaling-stroke"/><path stroke="#773077" d="M198.24 140.3q-.23.32.08.56.34.25.61-.14a.34.33-57.5 0 0-.1-.47q-.38-.25-.59.05M220 141.26a.88.42 40.4 0 0-.398-.89.88.42 40.4 0 0-.942-.25.88.42 40.4 0 0 .398.89.88.42 40.4 0 0 .942.25" vector-effect="non-scaling-stroke"/><path stroke="#712b72" d="M274.71 114.26q.57.65 1.42.61.66-.03.2-.51-.68-.71-1.43-.62-.59.07-.19.52M281.29 114.4q-.26.23-.26.57a.23.23 0 0 0 .4.15q.27-.3.12-.66a.17.16 57.8 0 0-.26-.06" vector-effect="non-scaling-stroke"/></g><path fill="#4f0a51" d="M186.75 76.02q-.27 2.34.19 4.56.07.33.41.35.17.01.29.13.14.16.18.36.17.9.1 1.86-.05.64.59.63.26 0 .4-.21.53-.73.77.13 1.04 3.66 1.43 7.53-.65.57-.68 1.12-.03.63.43.19l.63-.63q1.23-1.72 2.47-2.25a2.11 2.11 0 0 1 2.05.23q2.91 2.09 6.35 2.56 1.28.17 2.38.86.4.25.73-.08.49-.49 1.13-.72.56-.2 1.1.04c2.51 1.11 5.66-1.21 7.12 1.79q.22.46-.16.8-.38.35-.57.83-.03.11.04.18l.32.33q.3.3.5-.08l.51-1.02q.22-.45.7-.31 1.1.33 1.2 1.54.05.6-.5.38-.16-.06-.32.01-.75.3-.1.79 1.27.94 2.94.1.49-.25.26-.75-.22-.45-.63-.76-.57-.43-.41-1.12.29-1.33-.1-2.61-.16-.53.32-.79.46-.24.9-.49.63-.35.4.34-.08.22.05.45.32.55.62-.01l.94-1.77q.3-.56-.33-.64-.62-.08-1.11.21-.5.31-.93-.09l-1.57-1.46a.43.43 0 0 1 .14-.72l3.12-1.14q.52-.19.15-.6l-2.8-3.15q1.23-.85 1.19-1.4-.02-.36-.43-.33-.3.02-.63.29c-2.83 1.1-3.4-1.65-3.53-3.74q3.57.79 4.71 1.29c9.78 4.24 17.27 9.85 24.76 17.51q2.4 2.45 9.11 6.32.41 4.43-2.92 6.27-1.01-4.4-4.65-2.51-1.98 2.15-4.69 2.82-.13-.24-.38-.34-.35-.15-.65.13l-2.63.24-.63-1.76q-1.9-.61-4.05-.12-.46.11-.62-.33l-.5-1.31q-.18-.49.17-.87 2.19-2.38 4.96-1.95.27.07.36-.05.07-.09-.04-.28-.21-.35-.5-.67l-4.33-7.4a.73.68-61.2 0 1-.1-.4q.03-.58-.48-.69-.66-.14-.77-.82-.04-.23-.27-.35-.58-.29-.53.35.52 6.26-1.04 12.13-.17.66.19 1.24.47.76.51 1.55a2.38 2.3-86.7 0 1-2.69 2.48q-.49-.08-1.48-1.19-1.1-1.52-1.46-1.89-1.82-1.85-3.2.52-2.03.45-3.36-.04-.78-1.82-3.17-1.98-.49-.04-.84-.39-.29-.29-.64-.53-.44-.29-.16.16.81 1.33 2.49 1.83.09 1.06-.13 1.89-1.06 1.83.15 1.39-.46 5 .88 9.31l1.11 2.52q-.54 2.9-3.28 4.19.07-1.07-.93-1.48l-1.05 1.42q-.13.16-.33.22-.14.04-.23-.06-.36-.42-.3.13.13 1.23.44 2.34.13.48-.23.81-2.38 2.2-5.21 3.41a1.1 1.09 68.3 0 1-1.45-.63c-1.4-3.73-1.21-6.94-3.41-11q.61-1.35-1.28-1.61-1.03.18-.61 1.82.08.32-.25.31-.19-.01-.22-.2-.06-.44-.38-.12-.93.94-2.07 1.4-.12.05-.18.16t-.08.24q-.07.5.4.31.15-.06.3-.11.56-.18.63.41.29 2.52-.29 4.84a1.2 1.19-63.5 0 1-1.9.64l-1.9-1.52q.13-.3-.18-.48-.36-.21-.79.02-1.8 1.39-2.61 2.91-.8 1.49-1.04-.18l-.18-1.23a.52.51-12.1 0 0-.66-.42l-.31.1q-.48.15-.24.6.51.93.1 1.85-.28.64-.24 1.33l.57 8.49q-11.96-4.46-18.47-14.68c-1.48-2.32-2.07-5.16-3-7.81q-.55-1.57-.81-3.27-1.82-11.89-4.08-18.39c-2.12-6.08-7.75-6.11-12.66-3.52-5.91 3.12-11.71 6.04-18.27 7.28q-12.06 2.27-22.98 3.31-1.24.12-.89-1.08 1.85-6.34 3.71-11.92c1.8-5.39 7.35-7.31 12.13-9.44q2.68-1.19 5.49-1.19c5.22-.02 10.41-1 15.69-.92 9.53.13 18.22.16 27.84-1.53q7.43-1.3 14.95-1.55m-14.38 5.64q-.01.06.02.11a.16.15-42.2 0 0 .27.01q.05-.09-.01-.19-.24-.41-.28.07m-5.02 4.87q-.53-.29-.21.22.47.73 1.23 1.13.64.34.22-.26-.47-.66-1.24-1.09m13.55 3.02q-.1-.16-.26-.26a.36.35 9.9 0 0-.53.37q.16.84.85 1.1.48.18.98-.13.57-.34.89-.84.5-.75-.37-.51-.47.13-.83.41a.5.49-33.7 0 1-.73-.14m-7.48 1.8a.15.15 0 0 0 .04.27q.3.09.62-.09a.18.18 0 0 0-.07-.33q-.31-.03-.59.15m-6.12 2.17q-.04.26.22.27.23.01.25-.19.03-.33-.29-.27-.14.02-.18.19m22.94.86q-.01.23.16.29.25.08.29-.19.05-.27-.25-.27a.19.19 0 0 0-.2.17m-23.16 4.11q.15-1.22-.41-2.16-.43-.74-.51.11-.12 1.14.39 2.14.42.84.53-.09m34.81-.72q-.32.7.28 1.24.56.49.73-.24.26-1.15-.26-2.39-.29-.7-.55.02-.14.39-.1.8.03.3-.1.57m-37.11.17q.18-.47-.24-.76a.42.42 0 0 0-.59.12q-.27.41.08.79a.45.45 0 0 0 .75-.15m13.65 1.12q-.21-.01-.37.11-.68.52.17.41.98-.13 1.45-1.13.18-.38-.22-.25-.39.14-.53.53-.12.35-.5.33m-10.59.31q.22.26.54.35.39.1.24-.27-.18-.46-.61-.45a.23.23 0 0 0-.17.37m5 .04q-.17.33.11.56a.41.41 0 0 0 .64-.47q-.13-.34-.48-.28a.38.38 0 0 0-.27.19m11.65.21q.11.08.27.06a.08.07-23.3 0 0 .05-.12q-.1-.14-.25-.15-.38-.02-.07.21m21.057.178a.43.37 26 0 0-.225-.52.43.37 26 0 0-.548.143.43.37 26 0 0 .224.522.43.37 26 0 0 .549-.144m-33.807 1.712q-.02.53.51.62.55.1.42-.45-.07-.31-.35-.49a.38.38 0 0 0-.58.32m-5.22 1q-.02.24.24.25.22.02.19-.2-.02-.17-.16-.22a.2.2 0 0 0-.27.17m60.04 1.576a.99.47 119 0 0 .891-.638.99.47 119 0 0 .069-1.094.99.47 119 0 0-.891.638.99.47 119 0 0-.069 1.094m-58.83-1.196q.16.56.71.79.4.17.26-.24-.24-.68-.86-.68-.14-.01-.11.13m36.71 1.63q.27.15.24-.16-.02-.2-.22-.14a.17.16-41.4 0 0-.02.3m-36.172 3.644a1 .52 96.4 0 0 .629-.936 1 .52 96.4 0 0-.405-1.052 1 .52 96.4 0 0-.629.936 1 .52 96.4 0 0 .405 1.052m34.755.094a1.43.43 42.6 0 0-.762-1.284 1.43.43 42.6 0 0-1.344-.652 1.43.43 42.6 0 0 .762 1.284 1.43.43 42.6 0 0 1.344.652m1.067-1.378q.01.46.44.66.38.18.37-.25-.01-.33-.16-.59a.35.35 0 0 0-.65.18m1.57.97q.1.61.65.89a.39.39 0 0 0 .54-.47q-.24-.69-.94-.71a.25.25 0 0 0-.25.29m-15.19 2.56q-.11-.77-.84-1.13-.57-.29-.39.33.19.65.74 1.09.61.48.49-.29m-20.13-.49q.45.52 1.08.68.52.13.24-.33-.37-.59-1.13-.69-.54-.07-.19.34m21.4 2.62q.05.04.11.01.28-.12.02-.3-.24-.17-.51-.07a.19.18 71.6 0 0-.11.23q.07.27.3.12.1-.07.19.01m15.02 1.5q-.13-.41-.5-.64-.47-.3-.27.22.45 1.16 1.39 1.98.35.31.27-.15-.08-.47-.48-.8-.29-.24-.41-.61m-12.94 8.87q.08-.16-.02-.27-.28-.32-.53.02-.47.63-.81 1.26-.35.63.32.35.49-.2.98.04 1.01.51.39-.46l-.3-.47q-.14-.23-.03-.47m-6.48 2.24-.47.93q-.39.76.37.39l.5-.24q.41-.21.21-.62-.09-.19-.14-.4-.15-.67-.47-.06"/><path fill="#5a145c" d="M215 77.74c.13 2.09.7 4.84 3.53 3.74l-.13 1.44 2.8 3.15q.37.41-.15.6l-3.12 1.14a.43.43 0 0 0-.14.72l1.57 1.46q.43.4.93.09.49-.29 1.11-.21.63.08.33.64l-.94 1.77q-.3.56-.62.01-.13-.23-.05-.45.23-.69-.4-.34-.44.25-.9.49-.48.26-.32.79.39 1.28.1 2.61-.16.69.41 1.12.41.31.63.76.23.5-.26.75-1.67.84-2.94-.1-.65-.49.1-.79.16-.07.32-.01.55.22.5-.38-.1-1.21-1.2-1.54-.48-.14-.7.31l-.51 1.02q-.2.38-.5.08l-.32-.33q-.07-.07-.04-.18.19-.48.57-.83.38-.34.16-.8c-1.46-3-4.61-.68-7.12-1.79q-.54-.24-1.1-.04-.64.23-1.13.72-.33.33-.73.08-1.1-.69-2.38-.86-3.44-.47-6.35-2.56a2.11 2.11 0 0 0-2.05-.23q-1.24.53-2.47 2.25.28-.45.25-.76-.02-.25-.27-.22-.18.02-.36.3-.39-3.87-1.43-7.53-.24-.86-.77-.13-.14.21-.4.21-.64.01-.59-.63.07-.96-.1-1.86-.04-.2-.18-.36-.12-.12-.29-.13-.34-.02-.41-.35-.46-2.22-.19-4.56 15.8-.2 21.5.16 1.68.11 6.75 1.56m1.38 8.18q.23-.2.13-.47-.17-.5-.57-.16-.95.8-1.28 2.05-.13.49.37.62l.38.09q.57.15.61-.45l.06-1.07q.02-.37.3-.61m.547 9.138a1.13.39 48.6 0 0-.454-1.106 1.13.39 48.6 0 0-1.04-.59 1.13.39 48.6 0 0 .454 1.106 1.13.39 48.6 0 0 1.04.59"/><path fill="#b770b7" d="M172.65 81.59q.06.1.01.19a.16.15-42.2 0 1-.27-.01q-.03-.05-.02-.11.04-.48.28-.07"/><path fill="#934c92" d="m218.4 82.92.13-1.44q.33-.27.63-.29.41-.03.43.33.04.55-1.19 1.4M216.08 86.53l-.06 1.07q-.04.6-.61.45l-.38-.09q-.5-.13-.37-.62.33-1.25 1.28-2.05.4-.34.57.16.1.27-.13.47-.28.24-.3.61M167.35 86.53q.77.43 1.24 1.09.42.6-.22.26-.76-.4-1.23-1.13-.32-.51.21-.22M181.63 89.69q.36-.28.83-.41.87-.24.37.51-.32.5-.89.84-.5.31-.98.13-.69-.26-.85-1.1a.36.35 9.9 0 1 .53-.37q.16.1.26.26a.5.49-33.7 0 0 .73.14M191.49 92.04l-.63.63q-.46.44-.43-.19.03-.55.68-1.12.18-.28.36-.3.25-.03.27.22.03.31-.25.76M173.42 91.35q.28-.18.59-.15a.18.18 0 0 1 .07.33q-.32.18-.62.09a.15.15 0 0 1-.04-.27"/><path fill="#5a145c" d="M236.81 102.13q-1.13.07.18 1-2.77-.43-4.96 1.95-.35.38-.17.87l.5 1.31q.16.44.62.33 2.15-.49 4.05.12-.92-.42-1.4-.18-.55.27.06.31.68.04 1.07.49.31.35.34.82.11 1.61.56.32l2.63-.24q-.18.47-.04.64a.54.54 0 0 0 .66.15q.41-.2.41-.58 2.71-.67 4.69-2.82 2.24.09 4.65 2.51 3.33-1.84 2.92-6.27c4.65 2.15 7.96 2.18 13.66 2.41q.44.24 1.05.09l1.49.16q-.62.42-.48.69.1.2.29.29.45.2-.05.23-.13 0-.27.06-.08.04-.1.14c-.95 3.74.66 7.28-4.7 8.31q.16-.22.19-.45.11-.9-.44-.21-.19.23-.02.61.14.31.27.05 1.21 2.6 3.54 3.94.5.29.74-.24.06-.13.18-.26.29-.28.69-.22 4.71.76 9.47-1.38-.81 1.16-.57 1.76.45 1.07 1.16.15.29-.38.24-1.96 1.36 3.33-.16 7.54c-2.46.38-4.85.27-7.31.85q-4.12.98-7.66.82-5.95-.26-12.11-.97a1.47 1.47 0 0 0-1.63 1.38c-.18 2.75-4.78 7.21-7.07 8.6-5.31 3.23-12.22 6.85-18.3 7.76-2 .3-3.87.76-5.93.83q-8.14.27-15.6.01c-.88-.03-2.04-.73-3.14-.79q-6.7-.42-12.91-2.33l-.57-8.49q-.04-.69.24-1.33.41-.92-.1-1.85-.24-.45.24-.6l.31-.1a.52.51-12.1 0 1 .66.42l.18 1.23q.24 1.67 1.04.18.81-1.52 2.61-2.91-.13.39.3.55.35.12.67-.09l1.9 1.52a1.2 1.19-63.5 0 0 1.9-.64q.58-2.32.29-4.84-.07-.59-.63-.41-.15.05-.3.11-.47.19-.4-.31.02-.13.08-.24t.18-.16q1.14-.46 2.07-1.4.32-.32.38.12.03.19.22.2.33.01.25-.31-.42-1.64.61-1.82l1.28 1.61c2.2 4.06 2.01 7.27 3.41 11a1.1 1.09 68.3 0 0 1.45.63q2.83-1.21 5.21-3.41.36-.33.23-.81-.31-1.11-.44-2.34-.06-.55.3-.13.09.1.23.06.2-.06.33-.22l1.05-1.42q0 1.52.93 1.48 2.74-1.29 3.28-4.19.25-1.79-1.11-2.52-1.34-4.31-.88-9.31.56-1.47-.15-1.39.22-.83.13-1.89l2.32.91q1.33.49 3.36.04 2.29-.8 3.68.49.35.33.29.81-.06.4.18.75.18.27.42.06.23-.2.09-.74.99 1.11 1.48 1.19a2.38 2.3-86.7 0 0 2.69-2.48q-.04-.79-.51-1.55-.36-.58-.19-1.24 1.56-5.87 1.04-12.13-.05-.64.53-.35.23.12.27.35.11.68.77.82.51.11.48.69a.73.68-61.2 0 0 .1.4zm-7.04 3.35q.04.08.13.1.06.02.13.01.16-.03-.19-.18-.12-.05-.07.07m29.31 4.04a.23.23 0 0 0 .33-.3q-.38-.74-.95-1.16-.49-.37-.33.23.21.8.95 1.23m-28.25-.98q-.04-.08-.13-.1-.11-.03-.05.07.02.04.06.08.31.34.12-.05m-13.35 1.95a.15.14 81.1 0 0 .15-.21q-.14-.27-.14-.08-.2.27-.01.29m41.06-.01q-.43.34-.32.91.07.41.32.08.33-.41.23-.9-.05-.23-.23-.09m-32.32 1.498a.67.51 134.5 0 0 .834-.12.67.51 134.5 0 0 .106-.836.67.51 134.5 0 0-.834.12.67.51 134.5 0 0-.106.836m20.41-.708-.04 2.45q0 .06.03.01l1.07-2.07a.5.49-62.1 0 0-.2-.66q-.24-.14-.52-.11a.38.37 87.5 0 0-.34.38m-24.53.71-.16 1.24q-.13.94.53.27.75-.76-.02-1.62a.2.2 0 0 0-.35.11m-2.12 2.57q-.42.77-1.46.91-.23.03-.2.26l.03.27q.02.21.23.17 1.39-.33 2.35-1.65.22-.3-.15-.36-1.12-.18-.9-1.35a.33.32-18.2 0 0-.56-.28q-.2.21-.21.5-.01.24.13.43.16.21.41.29.66.2.33.81m20.61-.9q.36-.18.05-.44-.24-.21-.52-.02a.26.26 0 0 0-.04.38q.21.24.51.08m-24.48 2.69q-.08.61.21 1.16.23.44.35-.04.16-.67-.19-1.21-.31-.46-.37.09m22.323 1.5a1 .4 129.6 0 0 .945-.515 1 .4 129.6 0 0 .33-1.026 1 .4 129.6 0 0-.946.516 1 .4 129.6 0 0-.33 1.026m5.334 0a.89.43 61.3 0 0-.05-.987.89.43 61.3 0 0-.804-.574.89.43 61.3 0 0 .05.987.89.43 61.3 0 0 .804.575m14.42.065a.87.37 131.2 0 0 .851-.411.87.37 131.2 0 0 .295-.899.87.37 131.2 0 0-.851.411.87.37 131.2 0 0-.295.899m-1.737-.085a.48.48 0 0 0-.54-.74q-.52.17-.57.78a.42.42 0 0 0 .58.42q.31-.14.53-.46m-33.46.66q.12.18.32.23.79.2.35-.49-.39-.6-1.14-.82-.57-.17-.35.38.17.41.6.53a.4.37 80.7 0 1 .22.17m-2.06-.24q-.34.29-.18.69a.27.26-12.4 0 0 .26.16q.62-.01.85-.61a.34.34 0 0 0-.31-.46q-.35-.01-.62.22m-2.63.22a.18.18 0 0 0 .36-.01q.03-.16-.13-.22-.05-.02-.1-.01-.17.06-.13.24m24.398 2.077a1.04.35 39.9 0 0-.573-.936 1.04.35 39.9 0 0-1.023-.398 1.04.35 39.9 0 0 .573.935 1.04.35 39.9 0 0 1.023.4m17.073.414a.95.37 47.6 0 0-.368-.95.95.37 47.6 0 0-.914-.453.95.37 47.6 0 0 .368.951.95.37 47.6 0 0 .914.453m-27.611-.621q-.05.41.27.56a.33.33 0 0 0 .47-.34q-.06-.45-.45-.46a.29.28-84.3 0 0-.29.24m47 1.26q-.02.19.16.31.26.17.43-.09.11-.17 0-.36-.49-.76-.59.14m-43.88-.33q-.51-.11-.24.33.24.39.69.5.88.2.24-.44-.29-.29-.69-.39m-12.24 1.27q.28.2.19-.13-.09-.32-.33-.56-.53-.53-.26.17.11.31.4.52m-23.47 3.08q.05-.13-.03-.24-.06-.1-.14-.01-.09.11-.06.24.09.36.23.01m19.63 1.71q-.01.64.01 1.21 0 .17.14.28.12.1.26.06.27-.1.3-.38.09-1.01-.07-1.88-.11-.58-.42-.08-.22.34-.22.79m-17.846 1.505a.62.4 114.4 0 0 .62-.4.62.4 114.4 0 0-.108-.73.62.4 114.4 0 0-.62.4.62.4 114.4 0 0 .108.73m31.116-.395q.24.4.67.56a.32.32 0 0 0 .38-.47q-.27-.43-.76-.52a.29.28 79.2 0 0-.29.43m5.4 1.68-.38.02q-.29.01-.3.31-.01.15.07.29.25.46.61.08.57-.59 1.39-.8.78-.2.83-1.01l.03-.46q.08-1.17-.66-.26-.54.67-.95 1.44-.21.37-.64.39m-21.82-1.52q.41.62 1.1.86.51.18.29-.31-.36-.83-1.15-.93-.54-.08-.24.38m-1.678 2.282a1.1.52 59.9 0 0-.102-1.213 1.1.52 59.9 0 0-1.002-.69 1.1.52 59.9 0 0 .102 1.212 1.1.52 59.9 0 0 1.002.69m6.638-1.212q.1.37.43.24.21-.08.23-.31t-.18-.33a.35.34-84.6 0 0-.48.4m-3.42 3.38q-.18.06-.21.2-.16.83.53.33.78-.56.48-1.5-.18-.56-.73-.75-.52-.17-.32.34l.41 1.05q.1.25-.16.33m-24.79-.54a.33.33 0 0 0-.33-.33.33.33 0 0 0-.33.33.33.33 0 0 0 .33.33.33.33 0 0 0 .33-.33m46.54.54q-.13-.05-.19.08-.12.26-.08.57a.29.29 0 0 0 .55.1q.26-.52-.28-.75m-15.87 2.113a.8.46 38 0 0-.347-.855.8.46 38 0 0-.913-.13.8.46 38 0 0 .347.855.8.46 38 0 0 .913.13m-18.54 1.007q.72-.24.92-.84a.24.24 0 0 0-.39-.26l-.76.7a.24.24 0 0 0 .23.4m18.88.64c.54.48.89.61 1.36 1.24q.5.68.39-.16-.13-1.03-1.14-1.87-.21-.17-.46-.06-.15.07-.24.2-.23.36.09.65m3.22 1.81q-.19.64.38.87a.48.48 0 0 0 .64-.33q.09-.36-.09-.66a.51.51 0 0 0-.93.12m-26.19 2.57q.23-.96-.22-1.71-.38-.64-.47.1-.12.92.29 1.67.27.48.4-.06m-5.92-.97q.11.37.44.55a.36.36 0 0 0 .53-.35q-.05-.5-.51-.65a.37.36.5 0 0-.46.45m17.029.502a.67.44 37.9 0 0-.259-.76.67.44 37.9 0 0-.799-.064.67.44 37.9 0 0 .259.76.67.44 37.9 0 0 .799.064m-13.709-.412q-.23.32.08.56.34.25.61-.14a.34.33-57.5 0 0-.1-.47q-.38-.25-.59.05m21.76.96a.88.42 40.4 0 0-.398-.89.88.42 40.4 0 0-.942-.25.88.42 40.4 0 0 .398.89.88.42 40.4 0 0 .942.25"/><path fill="#934c92" d="M167.3 93.52q.04-.17.18-.19.32-.06.29.27-.02.2-.25.19-.26-.01-.22-.27"/><ellipse fill="#934c92" rx="1.13" ry=".39" transform="rotate(48.6 3.764 286.498)"/><path fill="#934c92" d="M190.24 94.38a.19.19 0 0 1 .2-.17q.3 0 .25.27-.04.27-.29.19-.17-.06-.16-.29M167.08 98.49q-.11.93-.53.09-.51-1-.39-2.14.08-.85.51-.11.56.94.41 2.16M201.99 97.2q-.04-.41.1-.8.26-.72.55-.02.52 1.24.26 2.39-.17.73-.73.24-.6-.54-.28-1.24.13-.27.1-.57M164.78 97.94a.45.45 0 0 1-.75.15q-.35-.38-.08-.79a.42.42 0 0 1 .59-.12q.42.29.24.76M178.93 98.73q.14-.39.53-.53.4-.13.22.25-.47 1-1.45 1.13-.85.11-.17-.41.16-.12.37-.11.38.02.5-.33M167.84 99.37a.23.23 0 0 1 .17-.37q.43-.01.61.45.15.37-.24.27-.32-.09-.54-.35"/><path fill="#b770b7" d="M172.84 99.41a.38.38 0 0 1 .27-.19q.35-.06.48.28a.41.41 0 0 1-.64.47q-.28-.23-.11-.56"/><path fill="#934c92" d="M184.56 99.41q.15.01.25.15a.08.07-23.3 0 1-.05.12q-.16.02-.27-.06-.31-.23.07-.21"/><ellipse fill="#934c92" rx=".43" ry=".37" transform="rotate(26 -113.15 494.128)"/><path fill="#934c92" d="M171.74 101.51a.38.38 0 0 1 .58-.32q.28.18.35.49.13.55-.42.45-.53-.09-.51-.62M166.52 102.51a.2.2 0 0 1 .27-.17q.14.05.16.22.03.22-.19.2-.26-.01-.24-.25"/><ellipse fill="#934c92" rx=".99" ry=".47" transform="rotate(119 83.12 118.478)"/><path fill="#934c92" d="M236.81 102.13q.29.32.5.67.11.19.04.28-.09.12-.36.05-1.31-.93-.18-1M167.73 102.89q-.03-.14.11-.13.62 0 .86.68.14.41-.26.24-.55-.23-.71-.79M204.44 104.52a.17.16-41.4 0 1 .02-.3q.2-.06.22.14.03.31-.24.16"/><path fill="#4f0a51" d="M279.76 124.57q1.52-4.21.16-7.54-1 .31-.83.05-4.76 2.14-9.47 1.38-.4-.06-.69.22-.12.13-.18.26-.24.53-.74.24-2.33-1.34-3.54-3.94c5.36-1.03 3.75-4.57 4.7-8.31q.02-.1.1-.14.14-.06.27-.06.5-.03.05-.23-.19-.09-.29-.29-.14-.27.48-.69 5.23 1.21 10.14-1.36.34-.17 1.37-.14.65.01 1.27.19c6.54 1.8 13.4 3.26 19.47 7.03q1.72 1.06 1.77 2.82.19 5.95-1.27 12.78a1.3 1.3 0 0 1-1.98.81c-3.68-2.4-7.27-4.28-11.8-4.03q-4.38.25-8.99.95m-5.05-10.31q.57.65 1.42.61.66-.03.2-.51-.68-.71-1.43-.62-.59.07-.19.52m6.58.14q-.26.23-.26.57a.23.23 0 0 0 .4.15q.27-.3.12-.66a.17.16 57.8 0 0-.26-.06"/><path fill="#934c92" d="m217.8 107.62-2.32-.91q-1.68-.5-2.49-1.83-.28-.45.16-.16.35.24.64.53.35.35.84.39 2.39.16 3.17 1.98M229.77 105.48q-.05-.12.07-.07.35.15.19.18-.07.01-.13-.01-.09-.02-.13-.1"/><path fill="#4f0a51" d="M268.29 105.36q-.61.15-1.05-.09z"/><path fill="#934c92" d="M250.66 109.13q-2.41-2.42-4.65-2.51 3.64-1.89 4.65 2.51"/><ellipse fill="#b770b7" rx="1" ry=".52" transform="rotate(96.4 36.28 128.86)"/><ellipse fill="#934c92" rx="1.43" ry=".43" transform="rotate(42.6 -36.607 312.658)"/><path fill="#934c92" d="M204.09 106.88a.35.35 0 0 1 .65-.18q.15.26.16.59.01.43-.37.25-.43-.2-.44-.66M225.82 109.03q.14.54-.09.74-.24.21-.42-.06-.24-.35-.18-.75.06-.48-.29-.81-1.39-1.29-3.68-.49 1.38-2.37 3.2-.52.36.37 1.46 1.89M205.66 107.85a.25.25 0 0 1 .25-.29q.7.02.94.71a.39.39 0 0 1-.54.47q-.55-.28-.65-.89M237.03 107.71l.63 1.76q-.45 1.29-.56-.32-.03-.47-.34-.82-.39-.45-1.07-.49-.61-.04-.06-.31.48-.24 1.4.18M259.08 109.52q-.74-.43-.95-1.23-.16-.6.33-.23.57.42.95 1.16a.23.23 0 0 1-.33.3M230.71 108.59q-.04-.04-.06-.08-.06-.1.05-.07.09.02.13.1.19.39-.12.05M215.5 109.99q-1.21.44-.15-1.39.71-.08.15 1.39M241.32 109.44q0 .38-.41.58a.54.54 0 0 1-.66-.15q-.14-.17.04-.64.3-.28.65-.13.25.1.38.34M190.47 110.41q.12.77-.49.29-.55-.44-.74-1.09-.18-.62.39-.33.73.36.84 1.13M170.53 109.58q.76.1 1.13.69.28.46-.24.33-.63-.16-1.08-.68-.35-.41.19-.34M217.48 110.49q-.19-.02.01-.29 0-.19.14.08a.15.14 81.1 0 1-.15.21M258.54 110.48q.18-.14.23.09.1.49-.23.9-.25.33-.32-.08-.11-.57.32-.91"/><ellipse fill="#934c92" rx=".67" ry=".51" transform="rotate(134.5 89.967 103.28)"/><path fill="#934c92" d="m246.59 113.72.04-2.45a.38.37 87.5 0 1 .34-.38q.28-.03.52.11a.5.49-62.1 0 1 .2.66l-1.07 2.07q-.03.05-.03-.01M222.1 111.98a.2.2 0 0 1 .35-.11q.77.86.02 1.62-.66.67-.53-.27zM191.55 112.53q-.23.15-.3-.12a.19.18 71.6 0 1 .11-.23q.27-.1.51.07.26.18-.02.3-.06.03-.11-.01-.09-.08-.19-.01M219.65 113.74q-.25-.08-.41-.29-.14-.19-.13-.43.01-.29.21-.5a.33.32-18.2 0 1 .56.28q-.22 1.17.9 1.35.37.06.15.36-.96 1.32-2.35 1.65-.21.04-.23-.17l-.03-.27q-.03-.23.2-.26 1.04-.14 1.46-.91.33-.61-.33-.81M240.59 113.65q-.3.16-.51-.08a.26.26 0 0 1 .04-.38q.28-.19.52.02.31.26-.05.44M207.17 114.65q.4.33.48.8.08.46-.27.15-.94-.82-1.39-1.98-.2-.52.27-.22.37.23.5.64.12.37.41.61M274.71 114.26q-.4-.45.19-.52.75-.09 1.43.62.46.48-.2.51-.85.04-1.42-.61M264.47 115.24q-.13.26-.27-.05-.17-.38.02-.61.55-.69.44.21-.03.23-.19.45M281.29 114.4a.17.16 57.8 0 1 .26.06q.15.36-.12.66a.23.23 0 0 1-.4-.15q0-.34.26-.57M216.11 116.34q.06-.55.37-.09.35.54.19 1.21-.12.48-.35.04-.29-.55-.21-1.16"/><ellipse fill="#b770b7" rx="1" ry=".4" transform="rotate(129.6 91.99 114.784)"/><ellipse fill="#b770b7" rx=".89" ry=".43" transform="rotate(61.3 22.898 263.854)"/><ellipse fill="#934c92" rx=".87" ry=".37" transform="rotate(131.2 102.787 117.314)"/><path fill="#934c92" d="M256.45 117.82q-.22.32-.53.46a.42.42 0 0 1-.58-.42q.05-.61.57-.78a.48.48 0 0 1 .54.74"/><path fill="#b770b7" d="M279.92 117.03q.05 1.58-.24 1.96-.71.92-1.16-.15-.24-.6.57-1.76-.17.26.83-.05"/><path fill="#934c92" d="M222.77 118.31q-.43-.12-.6-.53-.22-.55.35-.38.75.22 1.14.82.44.69-.35.49-.2-.05-.32-.23a.4.37 80.7 0 0-.22-.17"/><path fill="#b770b7" d="M220.93 118.24q.27-.23.62-.22a.34.34 0 0 1 .31.46q-.23.6-.85.61a.27.26-12.4 0 1-.26-.16q-.16-.4.18-.69"/><path fill="#934c92" d="M218.3 118.46q-.04-.18.13-.24.05-.01.1.01.16.06.13.22a.18.18 0 0 1-.36.01M217.49 121.82l-1.11-2.52q1.36.73 1.11 2.52"/><ellipse fill="#934c92" rx="1.04" ry=".35" transform="rotate(39.9 -44.168 393.147)"/><path fill="#934c92" d="m201.51 121.17-1.28-1.61q1.89.26 1.28 1.61"/><ellipse fill="#934c92" rx=".95" ry=".37" transform="rotate(47.6 -6.757 353.888)"/><path fill="#934c92" d="M232.16 120.33a.29.28-84.3 0 1 .29-.24q.39.01.45.46a.33.33 0 0 1-.47.34q-.32-.15-.27-.56M279.16 121.59q.1-.9.59-.14.11.19 0 .36-.17.26-.43.09-.18-.12-.16-.31M235.28 121.26q.4.1.69.39.64.64-.24.44-.45-.11-.69-.5-.27-.44.24-.33M223.04 122.53q-.29-.21-.4-.52-.27-.7.26-.17.24.24.33.56.09.33-.19.13M193.85 123.38l.3.47q.62.97-.39.46-.49-.24-.98-.04-.67.28-.32-.35.34-.63.81-1.26.25-.34.53-.02.1.11.02.27-.11.24.03.47M214.21 126.01q-.93.04-.93-1.48 1 .41.93 1.48M186.87 126.08l.47-.93q.32-.61.47.06.05.21.14.4.2.41-.21.62l-.5.24q-.76.37-.37-.39M199.34 125.6q-.03-.13.06-.24.08-.09.14.01.08.11.03.24-.14.35-.23-.01M219.2 127.32q0-.45.22-.79.31-.5.42.08.16.87.07 1.88-.03.28-.3.38-.14.04-.26-.06-.14-.11-.14-.28-.02-.57-.01-1.21M193.68 127.74q-.32.21-.67.09-.43-.16-.3-.55.43-.23.79-.02.31.18.18.48"/><ellipse fill="#934c92" rx=".62" ry=".4" transform="rotate(114.4 59.476 129.094)"/><path fill="#934c92" d="M232.47 128.43a.29.28 79.2 0 1 .29-.43q.49.09.76.52a.32.32 0 0 1-.38.47q-.43-.16-.67-.56M238.51 129.72q.41-.77.95-1.44.74-.91.66.26l-.03.46q-.05.81-.83 1.01-.82.21-1.39.8-.36.38-.61-.08-.08-.14-.07-.29.01-.3.3-.31l.38-.02q.43-.02.64-.39M216.05 128.59q-.3-.46.24-.38.79.1 1.15.93.22.49-.29.31-.69-.24-1.1-.86"/><ellipse fill="#934c92" rx="1.1" ry=".52" transform="rotate(59.9 -5.831 250.507)"/><path fill="#934c92" d="M221.01 129.66a.35.34-84.6 0 1 .48-.4q.2.1.18.33t-.23.31q-.33.13-.43-.24M217.75 132.71l-.41-1.05q-.2-.51.32-.34.55.19.73.75.3.94-.48 1.5-.69.5-.53-.33.03-.14.21-.2.26-.08.16-.33"/><circle cx="192.47" cy="132.5" r=".33" fill="#b770b7"/><path fill="#934c92" d="M239.34 133.04q.54.23.28.75a.29.29 0 0 1-.55-.1q-.04-.31.08-.57.06-.13.19-.08"/><ellipse fill="#b770b7" rx=".8" ry=".46" transform="rotate(38 -84.12 390.917)"/><path fill="#934c92" d="M204.93 136.16a.24.24 0 0 1-.23-.4l.76-.7a.24.24 0 0 1 .39.26q-.2.6-.92.84M225.17 138.04c-.47-.63-.82-.76-1.36-1.24q-.32-.29-.09-.65.09-.13.24-.2.25-.11.46.06 1.01.84 1.14 1.87.11.84-.39.16"/><path fill="#b770b7" d="M227.03 138.61a.51.51 0 0 1 .93-.12q.18.3.09.66a.48.48 0 0 1-.64.33q-.57-.23-.38-.87"/><path fill="#934c92" d="M200.84 141.18q-.13.54-.4.06-.41-.75-.29-1.67.09-.74.47-.1.45.75.22 1.71M194.92 140.21a.37.36.5 0 1 .46-.45q.46.15.51.65a.36.36 0 0 1-.53.35q-.33-.18-.44-.55"/><ellipse fill="#b770b7" rx=".67" ry=".44" transform="rotate(37.9 -98.6 378.027)"/><path fill="#934c92" d="M198.24 140.3q.21-.3.59-.05a.34.33-57.5 0 1 .1.47q-.27.39-.61.14-.31-.24-.08-.56"/><ellipse fill="#934c92" rx=".88" ry=".42" transform="rotate(40.4 -81.527 368.406)"/></svg>