<svg xmlns="http://www.w3.org/2000/svg" viewBox="0 0 382 382"><g fill="none" stroke-width="2"><path stroke="#6f9467" d="m189.8 76-1.6 4.7q-.18.54.06 1.05.62 1.33 1.9 2.36a.76.75 31 0 0 1.17-.29l.44-1.03q.31-.71.81-.12 1.18 1.37 1.61 3.13" vector-effect="non-scaling-stroke"/><path stroke="#8baf84" d="M194.19 85.8q.31 1.16 1.28 2.18.38.4 0 .81l-.47.51a.49.47-38.7 0 0-.07.56q.23.41.84.16" vector-effect="non-scaling-stroke"/><path stroke="#6f9467" d="M195.77 90.02q1.45 1.66 1.7 2.57 1.11 4 2.7 7.72" vector-effect="non-scaling-stroke"/><path stroke="#82a67b" d="M200.17 100.31q.1.35.36.53a.56.56 0 0 0 .82-.22q.06-.12-.1-.32" vector-effect="non-scaling-stroke"/><path stroke="#6f9467" d="m201.25 100.3 3.37-6.46q.24-.45-.04-.88-.86-1.29-2.13-2.24-1.42-1.07.17-1.86 2.7-1.33 5.71-1.53a.91.91 0 0 0 .84-.97q-.28-4.21.45-8.65.09-.54-.44-.67l-4.17-1.05" vector-effect="non-scaling-stroke"/><path stroke="#6b9064" d="m264.35 126.25-6.26-12.38a.63.63 0 0 0-.72-.32q-.73.18-.55.48.36.6-.33.63-2.53.11-3.66 2.54-.24.5-.69.17l-4.39-3.24" vector-effect="non-scaling-stroke"/><path stroke="#8baf84" d="M247.75 114.13q-.87-.46-.28-2.61a.44.43-84.1 0 0-.44-.55q-.76.02-.38 1.24" vector-effect="non-scaling-stroke"/><path stroke="#6b9064" d="m246.65 112.21-2.12.81" vector-effect="non-scaling-stroke"/><path stroke="#82a67b" d="M244.53 113.02q-.33-.25-.65-.11-.2.09-.2.28" vector-effect="non-scaling-stroke"/><path stroke="#6b9064" d="M243.68 113.19q-1.27-.09-2.38-.58-.6-.26-.15-.73l1.22-1.29a1.14 1.13-25.3 0 0 .31-.85q-.11-1.65-1.62-2.69-.55-.39-.46-1.05c.12-.83-.03-2.23-.89-2.67q-.47-.24-.76.22-.27.43-.77.39-1.45-.11-1.75 1.51-.12.69-.78.46-2.19-.78-2.98-3.25" vector-effect="non-scaling-stroke"/><path stroke="#82a67b" d="M232.67 102.66q-.16-.57-.72-.69" vector-effect="non-scaling-stroke"/><path stroke="#6b9064" d="M231.95 101.97c-.98-.91-1.23-2.06-2.33-2.74q-.71-.43-1.46-.72" vector-effect="non-scaling-stroke"/><path stroke="#8baf84" d="M228.16 98.51q-.92-2.95-2.16-2.09" vector-effect="non-scaling-stroke"/><path stroke="#6b9064" d="M226 96.42q-.86.29-1.64.15-.55-.1-.92-.52-.36-.42-.86-.57-.58-.18-.68.42l-.35 2.08" vector-effect="non-scaling-stroke"/><path stroke="#8baf84" d="M221.55 97.98q-.56.21-.46.94.05.35.37.52" vector-effect="non-scaling-stroke"/><path stroke="#6b9064" d="M221.46 99.44q.05 1.12-.77 1.95" vector-effect="non-scaling-stroke"/><path stroke="#82a67b" d="M220.69 101.39q-.2-.01-.33.15-.25.33 0 .66l.17.21q.15.21-.01.41-.77.91-.05 1.72" vector-effect="non-scaling-stroke"/><path stroke="#6b9064" d="M220.47 104.54q-1.45.63-2.35 1.79-.29.37-.26.84.08 1.11-.11 2.31-.14.8-.36.02-.14-.46.17-.82.15-.19-.01-.37-.04-.04-.09-.06-.28-.1-.38.19-2.28 6.64-7.86 10.31" vector-effect="non-scaling-stroke"/><path stroke="#8baf84" d="M209.22 118.75q-.93-1.77-.96 1.17" vector-effect="non-scaling-stroke"/><path stroke="#6b9064" d="m208.26 119.92-3.84 3q-.42.32-.46.85c-.23 2.47.25 4.85-.05 7.35q-.3 2.56-.62 5.17" vector-effect="non-scaling-stroke"/><path stroke="#82a67b" d="M203.29 136.29q-.12.14-.07.29.08.28.37.24.28-.04.51-.36" vector-effect="non-scaling-stroke"/><path stroke="#6b9064" d="M204.1 136.46q1.43-.01 1.48 1.03.05 1.12-.39 2.02-.17.35.22.39.87.09 1.5.98.31.44-.2.26-.38-.13-.65-.42-.4-.45-.71.07-.15.23-.07.47.4 1.31.72 2.67" vector-effect="non-scaling-stroke"/><path stroke="#658a5e" d="m164.25 105.73-.23-6.54q-.01-.35.19-.64l.23-.32q.25-.35.37-.76l.64-2.08q.13-.45.6-.49l2.46-.2q.63-.05.6-.68-.09-1.68-1.67-3.04" vector-effect="non-scaling-stroke"/><path stroke="#82a67b" d="M167.44 90.98q.35-.66-.35-.67" vector-effect="non-scaling-stroke"/><path stroke="#658a5e" d="M167.09 90.31q-.35-.79-.91-1.3" vector-effect="non-scaling-stroke"/><path stroke="#8baf84" d="M166.18 89.01q.5-.03.6-.51t-.33-.89" vector-effect="non-scaling-stroke"/><path stroke="#658a5e" d="m166.45 87.61 3.26-9.62" vector-effect="non-scaling-stroke"/><path stroke="#89ad82" d="M166.45 87.61q-.48.17-.65.65-.18.54.38.75" vector-effect="non-scaling-stroke"/><path stroke="#80a479" d="M167.09 90.31q-.4.21-.54.46-.37.68.43.5.24-.05.46-.29" vector-effect="non-scaling-stroke"/><path stroke="#8aae82" d="M201.25 100.3q-.45-.38-1.08.01" vector-effect="non-scaling-stroke"/><path stroke="#93b78b" d="M195.77 90.02q.45-.5.67-1.05.19-.47-.08-.91-.37-.6-.45-1.32-.06-.54-.54-.79-.53-.28-1.18-.15" vector-effect="non-scaling-stroke"/><path stroke="#8fb388" d="M226 96.42q.9.82 1.11 2.07.1.57.59.58.3 0 .41-.28.06-.15.05-.28" vector-effect="non-scaling-stroke"/><path stroke="#86aa7f" d="M231.95 101.97q-.42.11-.44.39a.62.62 0 0 0 .61.66q.4 0 .55-.36M243.68 113.19q.17.84.82.67.63-.17.03-.84" vector-effect="non-scaling-stroke"/><path stroke="#8fb388" d="M246.65 112.21q.07.74-.35 1.85-.18.47.25.72 1.73.97 1.2-.65" vector-effect="non-scaling-stroke"/><path stroke="#86aa7f" d="M204.1 136.46q.66-.53.77-.97.09-.39-.29-.25-.67.25-1.29 1.05" vector-effect="non-scaling-stroke"/><path stroke="#8fb388" d="M208.26 119.92q.64.63.96-1.17" vector-effect="non-scaling-stroke"/><path stroke="#86aa7f" d="m220.47 104.54 1.09-1.63q.3-.44-.09-.8l-.78-.72" vector-effect="non-scaling-stroke"/><path stroke="#8fb388" d="M221.46 99.44q.48-.17.54-.69.06-.61-.45-.77" vector-effect="non-scaling-stroke"/><path stroke="#82a67b" d="M179.27 83.48q-.5.91.35 1.53a.75.74-76 0 0 1.17-.71q-.11-.78-.9-1.05a.52.51 24.1 0 0-.62.23" vector-effect="non-scaling-stroke"/><path stroke="#8baf84" d="M215.17 84.57q.13.25.37.36a.2.19-73.8 0 0 .27-.15q.06-.41-.3-.57a.26.26 0 0 0-.34.36" vector-effect="non-scaling-stroke"/><path stroke="#658a5e" d="M169.87 84.84q-.75-.1-1 .6a.55.54 17.1 0 0 .38.71q.53.13.89-.29.3-.34.11-.75a.5.48 79.5 0 0-.38-.27" vector-effect="non-scaling-stroke"/><path stroke="#82a67b" d="M176.3 86.65q.31.47.47-.07.19-.63-.12-1.32-.26-.57-.49 0-.3.72.14 1.39" vector-effect="non-scaling-stroke"/><path stroke="#8baf84" d="M216.98 88.31q.18.2.42.35 1.38.88.22-.28-.76-.77-1.88-1.44-.53-.32-.82.22-.11.2-.1.43.02.55.55.44.6-.11 1.19.03.25.06.42.25" vector-effect="non-scaling-stroke"/><path stroke="#82a67b" d="M190.754 89.813a1.08.4 45.7 0 0-.468-1.052 1.08.4 45.7 0 0-1.04-.494 1.08.4 45.7 0 0 .468 1.052 1.08.4 45.7 0 0 1.04.494M177.94 88.87q-.19.61.22.98a.39.39 0 0 0 .65-.24q.06-.58-.31-.9a.35.34-60.6 0 0-.56.16" vector-effect="non-scaling-stroke"/><path stroke="#8baf84" d="M217.07 90.36q-.56.41-.75 1.04-.19.68.38.26.58-.42.67-1.12a.19.19 0 0 0-.3-.18M172.512 91.874a.67.56 57.3 0 0 .11-.867.67.56 57.3 0 0-.834-.26.67.56 57.3 0 0-.11.865.67.56 57.3 0 0 .834.262" vector-effect="non-scaling-stroke"/><path stroke="#82a67b" d="M192.336 93.457a1.54.37 48.7 0 0-.738-1.401 1.54.37 48.7 0 0-1.294-.913 1.54.37 48.7 0 0 .738 1.401 1.54.37 48.7 0 0 1.294.913M172.56 93.45q-.02-.08-.09-.11-.12-.06-.16.06-.11.25.11.41.55.41.45-.27-.01-.11-.08-.03-.16.16-.23-.06M181.23 95.23q0 .25-.01.5 0 .32.32.39.23.05.39-.12.17-.18.11-.43-.49-1.85-2.27-2.4-.23-.06-.28.16l-.08.29a.07.06 11.1 0 0 .06.08q.99.06 1.54.81.23.31.22.72M191.36 94.81q-.28-.14-.48-.4-.15-.21-.38-.08l-.27.15q-.07.04.02.19.72 1.31 2.13 1.21a.73.73 0 0 0 .65-.55q.15-.61-.33-1.08a.25.25 0 0 0-.36.02l-.3.39q-.28.35-.68.15M173.03 95.49q.13.41.52.22.05-.02.08-.06.24-.36-.16-.54a.32.32 0 0 0-.44.38" vector-effect="non-scaling-stroke"/><path stroke="#8baf84" d="M230.694 96.832a1.12.39 36.2 0 0-.674-.977 1.12.39 36.2 0 0-1.134-.347 1.12.39 36.2 0 0 .674.977 1.12.39 36.2 0 0 1.134.347M207.058 101.011a1.39.48 132.1 0 0 1.288-.71 1.39.48 132.1 0 0 .576-1.352 1.39.48 132.1 0 0-1.288.71 1.39.48 132.1 0 0-.576 1.352" vector-effect="non-scaling-stroke"/><path stroke="#82a67b" d="M188.82 100.07q-.58.12-.87.6a.52.52 0 0 0 .19.73q.9.51 1.6-.43a.55.54-57.2 0 0-.17-.8q-.33-.19-.75-.1M165.802 103.803a1.17.57 67.8 0 0 .086-1.298 1.17.57 67.8 0 0-.97-.868 1.17.57 67.8 0 0-.086 1.298 1.17.57 67.8 0 0 .97.868M186.25 103.48q-.29.53-.09 1.09.3.88.62.01.22-.61-.17-1.12a.22.21 41.4 0 0-.36.02M169.86 106.98l.08.7q.03.29.31.32.21.02.36-.08.3-.18.15-.5l-1.02-2.08q-.27-.56-.42.04-.13.52.24.93.25.29.3.67M199.73 106.64q.26-.46-.27-.41-.66.06-.95.87-.2.58.36.33.54-.24.86-.79" vector-effect="non-scaling-stroke"/><path stroke="#8baf84" d="M267.226 107.959a.9.6 105.1 0 0 .813-.713.9.6 105.1 0 0-.344-1.025.9.6 105.1 0 0-.814.713.9.6 105.1 0 0 .345 1.025M190.16 108.39q-.47.62.03 1.21a.37.37 0 0 0 .63-.1q.22-.54-.05-1.06a.36.36 0 0 0-.61-.05" vector-effect="non-scaling-stroke"/><path stroke="#82a67b" d="M202.4 109.709a.68.27 93.4 0 0 .31-.663.68.27 93.4 0 0-.23-.695.68.27 93.4 0 0-.31.663.68.27 93.4 0 0 .23.695" vector-effect="non-scaling-stroke"/><path stroke="#8baf84" d="M254.04 110.2q.1-.87-.58-.31-.63.52-.73 1.49a.43.43 0 0 0 .79.29q.44-.65.52-1.47M190.38 112.41q.45.27.61-.22.05-.14.05-.28.01-.45-.37-.71-.67-.44-1.4-.24-.92.25-.1.74l1.21.71" vector-effect="non-scaling-stroke"/><path stroke="#82a67b" d="M172.3 111.47q-.28.48.3.79.19.11.31-.08.08-.12.15-.26.19-.41-.23-.58-.18-.08-.37-.01a.26.24-84 0 0-.16.14M170.36 113.12q.68-.74.07-1.42-.62-.69-.7.23l-.17 2.11q-.06.6.25.08.13-.23.22-.46.11-.3.33-.54M200.17 111.89q-.17.39-.01.76a.34.34 0 0 0 .6.04q.27-.44-.01-.85a.33.33 0 0 0-.58.05" vector-effect="non-scaling-stroke"/><path stroke="#8baf84" d="M267.86 112.55q.61-.4-.25-.66a.48.47-62.9 0 0-.51.17q-.34.45.21.59a.7.69 34 0 0 .55-.1M193.6 113.723a1.02.41 45.9 0 0-.416-1.018 1.02.41 45.9 0 0-1.004-.448 1.02.41 45.9 0 0 .416 1.018 1.02.41 45.9 0 0 1.004.447" vector-effect="non-scaling-stroke"/><path stroke="#82a67b" d="M197.32 112.94q-.61.54-.32 1.19a.41.4 58.4 0 0 .64.16q.58-.49.4-1.16-.08-.29-.4-.3a.46.45-63 0 0-.32.11M190.25 114.27q.53-.27.59-.82.07-.75-.48-.23-.71.67-1.15 1.46a.25.25 0 0 0 .28.37q.63-.17.76-.78M274.28 115.25q.35-.78.33-1.57-.01-.75-.4-.11-.8 1.36-.58 3.04.02.14.15.19.14.05.28.05.55 0 .36-.52l-.16-.45q-.11-.32.02-.63M277.23 118.27q.12-.1.26-.16.69-.3.23-.89-.31-.39-.78-.59a.6.6 0 0 0-.78.78q.74 1.77-.78 2.77a.29.28 66.7 0 0-.12.31q.15.52.63.26.72-.38 1.52-.45a.68.68 0 0 0 .54-1q-.18-.34-.57-.43a.35.35 0 0 1-.15-.6M265.23 117.2c1.09.3 2.49.73 2.97 1.8q.33.74.46-.06.14-.77-.58-1.24-1.35-.9-2.81-.83-1.01.05-.04.33M193.07 117.62a.56.56 0 0 0-.56-.56.56.56 0 0 0-.56.56.56.56 0 0 0 .56.56.56.56 0 0 0 .56-.56M272.42 118.68q-.27.38-.19.85a.27.27 0 0 0 .5.1q.28-.44.06-.91a.22.21-38.8 0 0-.37-.04M192.17 122.03q-.07.25.1.41.79.76.38-.26-.48-1.19-1.16-2.22-.44-.66-.41.13.04.9.88 1.43a.47.47 0 0 1 .21.51" vector-effect="non-scaling-stroke"/><path stroke="#8baf84" d="M267.72 120q-.33.13-.51.41a.62.62 0 0 0 .54.96q.33 0 .53-.28.11-.13.11-.3 0-.32-.15-.6a.42.41 64.4 0 0-.52-.19M194.15 121.52q-.19.44-.06.89a.38.38 0 0 0 .56.23q.52-.3.52-.93 0-.36-.34-.49-.48-.17-.68.3M185.21 132.7q-.18.82.39 1.24.38.29.36-.19-.02-.57-.34-1.12-.29-.5-.41.07" vector-effect="non-scaling-stroke"/><path stroke="#82a67b" d="M191.97 133.34q-.69.66-.18 1.39.2.28.49.1.75-.46.58-1.32a.45.45 0 0 0-.4-.35q-.28-.02-.49.18" vector-effect="non-scaling-stroke"/><path stroke="#8baf84" d="M190.19 136.25q-.22-.68-.86-1.01a.46.45-88.9 0 0-.62.6q.31.69.93.93.82.32.55-.52M196.299 137.153a1.09.56 102.8 0 0 .787-.939 1.09.56 102.8 0 0-.305-1.187 1.09.56 102.8 0 0-.787.939 1.09.56 102.8 0 0 .304 1.187M191.14 138.62q-.1-.31-.38-.4a.41.41 0 0 0-.52.52q.27.77 1 1.04.53.19.46-.37-.04-.31-.36-.52a.5.49 9.2 0 1-.2-.27" vector-effect="non-scaling-stroke"/><path stroke="#93b78b" d="M197.81 78.94q.16-.57-.32-.89a.23.23 0 0 0-.35.14q-.1.47.27.84.28.3.4-.09" vector-effect="non-scaling-stroke"/><path stroke="#8aae82" d="M198.83 81.74q.13.52.53.88.41.37.3-.17-.32-1.58-1.6-2.54-.5-.38-.29.21.16.47.56.81.38.32.5.81M198.29 87.28q-.15.56.15 1.04.28.43.45-.06.23-.66-.17-1.09a.26.26 0 0 0-.43.11" vector-effect="non-scaling-stroke"/><path stroke="#86aa7f" d="M228.12 102.35q.47-.22.62-.69.23-.75-.44-.34l-1.17.72q-.25.15-.15.43.07.2.21.33a.47.46 42 0 0 .66-.03q.18-.19.27-.42M223.43 106.63q-.53.29-.56.93a.48.47-13.9 0 0 .72.43q.78-.45.32-1.23a.36.35 59.7 0 0-.48-.13M222.1 109.56a1.53.37 68.1 0 0-.227-1.558 1.53.37 68.1 0 0-.914-1.282 1.53.37 68.1 0 0 .228 1.558 1.53.37 68.1 0 0 .914 1.282M229.19 107.22q.11.71.67 1.09.45.31.34-.23-.15-.74-.75-1.05a.18.18 0 0 0-.26.19" vector-effect="non-scaling-stroke"/><path stroke="#8fb388" d="M237.93 112.034a1.86.34 49 0 0-.963-1.627 1.86.34 49 0 0-1.477-1.18 1.86.34 49 0 0 .963 1.626 1.86.34 49 0 0 1.477 1.18" vector-effect="non-scaling-stroke"/><path stroke="#86aa7f" d="M238.39 112.69q-.21-.13-.21.12.01.48.4.78a.17.17 0 0 0 .28-.15q-.04-.49-.47-.75M249.17 115.81q-.17.89-.07 1.8.02.19.2.18l.35-.03a.26.25 82.9 0 0 .23-.3l-.25-1.64q-.21-1.35-.46-.01" vector-effect="non-scaling-stroke"/><path stroke="#8fb388" d="M243.35 115.89q-.42.25-.43.73a.35.35 0 0 0 .52.31q.42-.25.44-.72a.35.35 0 0 0-.53-.32M245.58 117.16q-.3.12-.23.37.07.3.34.16l1.57-.8q.61-.31.06-.72-.27-.21-.59-.16-.69.09-.88.85a.43.41-4.3 0 1-.27.3M221.15 118.47a.2.2 0 0 0 .04.2q.48.48.77-.18.2-.46-.29-.4-.37.04-.52.38M228.739 120.844a1.17.36 47.6 0 0-.523-1.107 1.17.36 47.6 0 0-1.055-.621 1.17.36 47.6 0 0 .523 1.107 1.17.36 47.6 0 0 1.055.621M246.77 119.5q0 .85.66 1.39a.32.32 0 0 0 .52-.27q-.03-.72-.5-1.34a.38.38 0 0 0-.68.22M261.33 122.68q-.04.66.37 1.15.26.32.67.3.18 0 .34-.07.43-.16.2-.56-.79-1.37-1.63-2.61-.19-.28-.52-.42-.53-.23-.24.26l.6 1.05q.25.42.21.9M251.02 122.92l.22.21q.14.13.29 0 1.01-.89 1.57-2.12.1-.22-.04-.4-.31-.39-.61.01l-1.46 1.96q-.14.19.03.34M222.06 120.95q-.23.51.06.94a.55.55 0 0 0 .95-.08q.25-.55-.09-.98a.55.54 37.4 0 0-.92.12M227.48 122.15a.39.38 42 0 0 .04.73q.41.11.76-.19t-.05-.51q-.34-.19-.75-.03" vector-effect="non-scaling-stroke"/><path stroke="#86aa7f" d="M238.12 122.19q-1.08.37-.46 1.45a.58.57 67.5 0 0 .64.27q.76-.21.64-1.21a.63.63 0 0 0-.82-.51" vector-effect="non-scaling-stroke"/><path stroke="#8fb388" d="M258.225 122.969a.77.39 30.3 0 0-.468-.726.77.39 30.3 0 0-.862-.051.77.39 30.3 0 0 .468.725.77.39 30.3 0 0 .862.052M249.86 123.79q.21-.34.11-.77-.14-.63-.62-.2-.69.6-.32 1.5a.3.29 71.2 0 0 .34.17q.26-.08.32-.29.06-.22.17-.41M219.21 123.45q-.36.34.09.49.3.11.39-.19.31-1.05-.48-.3" vector-effect="non-scaling-stroke"/><path stroke="#86aa7f" d="M224.08 125.29q.01 1.04-.7 1.91-.27.32.11.5l.27.11q.22.1.3-.13l.84-2.3q.07-.2-.13-.28l-.26-.11q-.44-.18-.43.3M228.68 126.28q-.6-.56-1.27-.85a.27.27 0 0 0-.36.35q.44 1.06 1.43 1.03.74-.03.2-.53" vector-effect="non-scaling-stroke"/><path stroke="#8fb388" d="M237.48 125.61a.18.17-.9 0 0-.23-.22q-1.3.52-1.24 1.74.03.62.63.74l.35.08q.8.16.51-.59-.34-.87-.02-1.75" vector-effect="non-scaling-stroke"/><path stroke="#86aa7f" d="M232.128 127.508a.78.39 63.5 0 0 .001-.872.78.39 63.5 0 0-.697-.524.78.39 63.5 0 0-.001.872.78.39 63.5 0 0 .697.524" vector-effect="non-scaling-stroke"/><path stroke="#8fb388" d="M210.22 127.46a.27.26 11.8 0 0 .2.3q.2.04.26-.17a.26.26 0 0 0-.24-.33q-.19-.01-.22.2M232.87 129.38q.2.06.39-.07.47-.33.06-.73l-.34-.34q-.59-.57-.99.15-.36.66-.95 1.1-.57.42.14.37.64-.04 1.2-.41.23-.15.49-.07" vector-effect="non-scaling-stroke"/><path stroke="#86aa7f" d="M220.92 128.94q-.13-.53-.41-.05-.39.68-.31 1.53.06.58.41.11.52-.72.31-1.59" vector-effect="non-scaling-stroke"/><path stroke="#8fb388" d="M209.72 130.59q.72-.35.95-1.05.24-.74-.44-.35-.67.39-.88 1.09-.16.57.37.31" vector-effect="non-scaling-stroke"/><path stroke="#86aa7f" d="M240.998 130.226a.91.65 36.9 0 0-.338-1.066.91.65 36.9 0 0-1.118-.026.91.65 36.9 0 0 .338 1.066.91.65 36.9 0 0 1.118.026" vector-effect="non-scaling-stroke"/><path stroke="#8fb388" d="M246.504 132.174a1.45.57 95.4 0 0 .704-1.39 1.45.57 95.4 0 0-.431-1.498 1.45.57 95.4 0 0-.704 1.39 1.45.57 95.4 0 0 .43 1.498M214.17 131.39q.02.39.41.52a.49.49 0 0 0 .64-.46q.01-.45-.16-.9a.51.51 0 0 0-.94-.02q-.12.29-.01.58.05.13.06.28M223.46 132.224a.97.37 33.4 0 0-.606-.843.97.37 33.4 0 0-1.014-.225.97.37 33.4 0 0 .606.843.97.37 33.4 0 0 1.014.225" vector-effect="non-scaling-stroke"/><path stroke="#86aa7f" d="M206.67 131.71q.49-.68-.29-.37-.75.29-1.05 1.22-.05.16.02.3.19.41.45.05l.87-1.2" vector-effect="non-scaling-stroke"/><path stroke="#8fb388" d="M212.62 133.85q-.82-.53-1.69-.49-.88.05-.07.4.76.33 1.33.87.31.31.67.06.21-.15.28-.39.09-.31-.21-.42-.14-.05-.31-.03M207.454 138.509a.74.45 86.6 0 0 .405-.766.74.45 86.6 0 0-.493-.712.74.45 86.6 0 0-.405.766.74.45 86.6 0 0 .493.712M225.87 139.35l-.38-.38q-.87-.86-.47.3.6 1.75 2.3 1.9a.73.72 14.4 0 0 .72-.42q.24-.55-.09-1.07-.2-.31-.56-.21l-.49.15q-.59.17-1.03-.27" vector-effect="non-scaling-stroke"/></g><path fill="#678c60" d="m189.8 76-1.6 4.7q-.18.54.06 1.05.62 1.33 1.9 2.36a.76.75 31 0 0 1.17-.29l.44-1.03q.31-.71.81-.12 1.18 1.37 1.61 3.13.31 1.16 1.28 2.18.38.4 0 .81l-.47.51a.49.47-38.7 0 0-.07.56q.23.41.84.16 1.45 1.66 1.7 2.57 1.11 4 2.7 7.72.1.35.36.53a.56.56 0 0 0 .82-.22q.06-.12-.1-.32l3.37-6.46q.24-.45-.04-.88-.86-1.29-2.13-2.24-1.42-1.07.17-1.86 2.7-1.33 5.71-1.53a.91.91 0 0 0 .84-.97q-.28-4.21.45-8.65.09-.54-.44-.67l-4.17-1.05q14.8 1.02 27.01 9.74 4.79 3.42 9.04 7.49c4.52 4.33 9.82 9.11 15.86 10.93 4.7 1.41 9.99.87 14.84 1.68 2.85.47 5.63-.53 8.17-1.6q1.1-.46 2.27-.12c7.19 2.11 14.45 3.41 20.52 7.69q1.13.8 1.13 2.4-.02 6.48-1.3 12.59a1.35 1.35 0 0 1-2.11.83c-4.33-3.09-7.98-4.36-13.65-3.82q-5 .48-10.38 1.06-.6.06-5.98.98-3.04.51-6.08.41l-6.26-12.38a.63.63 0 0 0-.72-.32q-.73.18-.55.48.36.6-.33.63-2.53.11-3.66 2.54-.24.5-.69.17l-4.39-3.24q-.87-.46-.28-2.61a.44.43-84.1 0 0-.44-.55q-.76.02-.38 1.24l-2.12.81q-.33-.25-.65-.11-.2.09-.2.28-1.27-.09-2.38-.58-.6-.26-.15-.73l1.22-1.29a1.14 1.13-25.3 0 0 .31-.85q-.11-1.65-1.62-2.69-.55-.39-.46-1.05c.12-.83-.03-2.23-.89-2.67q-.47-.24-.76.22-.27.43-.77.39-1.45-.11-1.75 1.51-.12.69-.78.46-2.19-.78-2.98-3.25-.16-.57-.72-.69c-.98-.91-1.23-2.06-2.33-2.74q-.71-.43-1.46-.72-.92-2.95-2.16-2.09-.86.29-1.64.15-.55-.1-.92-.52-.36-.42-.86-.57-.58-.18-.68.42l-.35 2.08q-.56.21-.46.94.05.35.37.52.05 1.12-.77 1.95-.2-.01-.33.15-.25.33 0 .66l.17.21q.15.21-.01.41-.77.91-.05 1.72-1.45.63-2.35 1.79-.29.37-.26.84.08 1.11-.11 2.31-.14.8-.36.02-.14-.46.17-.82.15-.19-.01-.37-.04-.04-.09-.06-.28-.1-.38.19-2.28 6.64-7.86 10.31-.93-1.77-.96 1.17l-3.84 3q-.42.32-.46.85c-.23 2.47.25 4.85-.05 7.35q-.3 2.56-.62 5.17-.12.14-.07.29.08.28.37.24.28-.04.51-.36 1.43-.01 1.48 1.03.05 1.12-.39 2.02-.17.35.22.39.87.09 1.5.98.31.44-.2.26-.38-.13-.65-.42-.4-.45-.71.07-.15.23-.07.47.4 1.31.72 2.67-11.33-1.48-15.5-2.43c-5.42-1.25-11.42-5.07-15.49-8.79q-6.42-5.85-8.48-14.75-1.41-6.06-2.28-12.23l-.23-6.54q-.01-.35.19-.64l.23-.32q.25-.35.37-.76l.64-2.08q.13-.45.6-.49l2.46-.2q.63-.05.6-.68-.09-1.68-1.67-3.04.35-.66-.35-.67-.35-.79-.91-1.3.5-.03.6-.51t-.33-.89l3.26-9.62q9.93-2.03 20.09-1.99m-10.53 7.48q-.5.91.35 1.53a.75.74-76 0 0 1.17-.71q-.11-.78-.9-1.05a.52.51 24.1 0 0-.62.23m35.9 1.09q.13.25.37.36a.2.19-73.8 0 0 .27-.15q.06-.41-.3-.57a.26.26 0 0 0-.34.36m-45.3.27q-.75-.1-1 .6a.55.54 17.1 0 0 .38.71q.53.13.89-.29.3-.34.11-.75a.5.48 79.5 0 0-.38-.27m6.43 1.81q.31.47.47-.07.19-.63-.12-1.32-.26-.57-.49 0-.3.72.14 1.39m40.68 1.66q.18.2.42.35 1.38.88.22-.28-.76-.77-1.88-1.44-.53-.32-.82.22-.11.2-.1.43.02.55.55.44.6-.11 1.19.03.25.06.42.25m-26.226 1.503a1.08.4 45.7 0 0-.468-1.052 1.08.4 45.7 0 0-1.04-.494 1.08.4 45.7 0 0 .468 1.052 1.08.4 45.7 0 0 1.04.494m-12.814-.943q-.19.61.22.98a.39.39 0 0 0 .65-.24q.06-.58-.31-.9a.35.34-60.6 0 0-.56.16m39.13 1.49q-.56.41-.75 1.04-.19.68.38.26.58-.42.67-1.12a.19.19 0 0 0-.3-.18m-44.558 1.514a.67.56 57.3 0 0 .11-.867.67.56 57.3 0 0-.834-.26.67.56 57.3 0 0-.11.865.67.56 57.3 0 0 .834.262m19.824 1.583a1.54.37 48.7 0 0-.738-1.401 1.54.37 48.7 0 0-1.294-.913 1.54.37 48.7 0 0 .738 1.401 1.54.37 48.7 0 0 1.294.913m-19.776-.007q-.02-.08-.09-.11-.12-.06-.16.06-.11.25.11.41.55.41.45-.27-.01-.11-.08-.03-.16.16-.23-.06m8.67 1.78q0 .25-.01.5 0 .32.32.39.23.05.39-.12.17-.18.11-.43-.49-1.85-2.27-2.4-.23-.06-.28.16l-.08.29a.07.06 11.1 0 0 .06.08q.99.06 1.54.81.23.31.22.72m10.13-.42q-.28-.14-.48-.4-.15-.21-.38-.08l-.27.15q-.07.04.02.19.72 1.31 2.13 1.21a.73.73 0 0 0 .65-.55q.15-.61-.33-1.08a.25.25 0 0 0-.36.02l-.3.39q-.28.35-.68.15m-18.33.68q.13.41.52.22.05-.02.08-.06.24-.36-.16-.54a.32.32 0 0 0-.44.38m57.664 1.342a1.12.39 36.2 0 0-.674-.977 1.12.39 36.2 0 0-1.134-.347 1.12.39 36.2 0 0 .674.977 1.12.39 36.2 0 0 1.134.347m-23.636 4.18a1.39.48 132.1 0 0 1.288-.71 1.39.48 132.1 0 0 .576-1.353 1.39.48 132.1 0 0-1.288.71 1.39.48 132.1 0 0-.576 1.352m-18.238-.942q-.58.12-.87.6a.52.52 0 0 0 .19.73q.9.51 1.6-.43a.55.54-57.2 0 0-.17-.8q-.33-.19-.75-.1m-23.018 3.733a1.17.57 67.8 0 0 .086-1.298 1.17.57 67.8 0 0-.97-.868 1.17.57 67.8 0 0-.086 1.298 1.17.57 67.8 0 0 .97.868m20.448-.323q-.29.53-.09 1.09.3.88.62.01.22-.61-.17-1.12a.22.21 41.4 0 0-.36.02m-16.39 3.5.08.7q.03.29.31.32.21.02.36-.08.3-.18.15-.5l-1.02-2.08q-.27-.56-.42.04-.13.52.24.93.25.29.3.67m29.87-.34q.26-.46-.27-.41-.66.06-.95.87-.2.58.36.33.54-.24.86-.79m67.496 1.319a.9.6 105.1 0 0 .813-.713.9.6 105.1 0 0-.344-1.025.9.6 105.1 0 0-.814.713.9.6 105.1 0 0 .345 1.025m-77.066.431q-.47.62.03 1.21a.37.37 0 0 0 .63-.1q.22-.54-.05-1.06a.36.36 0 0 0-.61-.05m12.24 1.319a.68.27 93.4 0 0 .31-.663.68.27 93.4 0 0-.23-.695.68.27 93.4 0 0-.31.663.68.27 93.4 0 0 .23.695m51.64.491q.1-.87-.58-.31-.63.52-.73 1.49a.43.43 0 0 0 .79.29q.44-.65.52-1.47m-63.66 2.21q.45.27.61-.22.05-.14.05-.28.01-.45-.37-.71-.67-.44-1.4-.24-.92.25-.1.74zm-18.08-.94q-.28.48.3.79.19.11.31-.08.08-.12.15-.26.19-.41-.23-.58-.18-.08-.37-.01a.26.24-84 0 0-.16.14m-1.94 1.65q.68-.74.07-1.42-.62-.69-.7.23l-.17 2.11q-.06.6.25.08.13-.23.22-.46.11-.3.33-.54m29.81-1.23q-.17.39-.01.76a.34.34 0 0 0 .6.04q.27-.44-.01-.85a.33.33 0 0 0-.58.05m67.69.66q.61-.4-.25-.66a.48.47-62.9 0 0-.51.17q-.34.45.21.59a.7.69 34 0 0 .55-.1m-74.26 1.172a1.02.41 45.9 0 0-.416-1.017 1.02.41 45.9 0 0-1.004-.448 1.02.41 45.9 0 0 .416 1.018 1.02.41 45.9 0 0 1.004.447m3.72-.782q-.61.54-.32 1.19a.41.4 58.4 0 0 .64.16q.58-.49.4-1.16-.08-.29-.4-.3a.46.45-63 0 0-.32.11m-7.07 1.33q.53-.27.59-.82.07-.75-.48-.23-.71.67-1.15 1.46a.25.25 0 0 0 .28.37q.63-.17.76-.78m84.03.98q.35-.78.33-1.57-.01-.75-.4-.11-.8 1.36-.58 3.04.02.14.15.19.14.05.28.05.55 0 .36-.52l-.16-.45q-.11-.32.02-.63m2.95 3.02q.12-.1.26-.16.69-.3.23-.89-.31-.39-.78-.59a.6.6 0 0 0-.78.78q.74 1.77-.78 2.77a.29.28 66.7 0 0-.12.31q.15.52.63.26.72-.38 1.52-.45a.68.68 0 0 0 .54-1q-.18-.34-.57-.43a.35.35 0 0 1-.15-.6m-12-1.07c1.09.3 2.49.73 2.97 1.8q.33.74.46-.06.14-.77-.58-1.24-1.35-.9-2.81-.83-1.01.05-.04.33m-72.16.42a.56.56 0 0 0-.56-.56.56.56 0 0 0-.56.56.56.56 0 0 0 .56.56.56.56 0 0 0 .56-.56m79.35 1.06q-.27.38-.19.85a.27.27 0 0 0 .5.1q.28-.44.06-.91a.22.21-38.8 0 0-.37-.04m-80.25 3.35q-.07.25.1.41.79.76.38-.26-.48-1.19-1.16-2.22-.44-.66-.41.13.04.9.88 1.43a.47.47 0 0 1 .21.51m75.55-2.03q-.33.13-.51.41a.62.62 0 0 0 .54.96q.33 0 .53-.28.11-.13.11-.3 0-.32-.15-.6a.42.41 64.4 0 0-.52-.19m-73.57 1.52q-.19.44-.06.89a.38.38 0 0 0 .56.23q.52-.3.52-.93 0-.36-.34-.49-.48-.17-.68.3m-8.94 11.18q-.18.82.39 1.24.38.29.36-.19-.02-.57-.34-1.12-.29-.5-.41.07m6.76.64q-.69.66-.18 1.39.2.28.49.1.75-.46.58-1.32a.45.45 0 0 0-.4-.35q-.28-.02-.49.18m-1.78 2.91q-.22-.68-.86-1.01a.46.45-88.9 0 0-.62.6q.31.69.93.93.82.32.55-.52m6.108.903a1.09.56 102.8 0 0 .788-.939 1.09.56 102.8 0 0-.305-1.187 1.09.56 102.8 0 0-.787.939 1.09.56 102.8 0 0 .304 1.187m-5.158 1.467q-.1-.31-.38-.4a.41.41 0 0 0-.52.52q.27.77 1 1.04.53.19.46-.37-.04-.31-.36-.52a.5.49 9.2 0 1-.2-.27"/><path fill="#769b6e" d="m205.01 75.99 4.17 1.05q.53.13.44.67-.73 4.44-.45 8.65a.91.91 0 0 1-.84.97q-3.01.2-5.71 1.53-1.59.79-.17 1.86 1.27.95 2.13 2.24.28.43.04.88l-3.37 6.46q-.45-.38-1.08.01-1.59-3.72-2.7-7.72-.25-.91-1.7-2.57.45-.5.67-1.05.19-.47-.08-.91-.37-.6-.45-1.32-.06-.54-.54-.79-.53-.28-1.18-.15-.43-1.76-1.61-3.13-.5-.59-.81.12l-.44 1.03a.76.75 31 0 1-1.17.29q-1.28-1.03-1.9-2.36-.24-.51-.06-1.05l1.6-4.7zm-7.2 2.95q.16-.57-.32-.89a.23.23 0 0 0-.35.14q-.1.47.27.84.28.3.4-.09m1.02 2.8q.13.52.53.88.41.37.3-.17-.32-1.58-1.6-2.54-.5-.38-.29.21.16.47.56.81.38.32.5.81m-.54 5.54q-.15.56.15 1.04.28.43.45-.06.23-.66-.17-1.09a.26.26 0 0 0-.43.11"/><path fill="#62875b" d="m169.71 77.99-3.26 9.62q-.48.17-.65.65-.18.54.38.75.56.51.91 1.3-.4.21-.54.46-.37.68.43.5.24-.05.46-.29 1.58 1.36 1.67 3.04.03.63-.6.68l-2.46.2q-.47.04-.6.49l-.64 2.08q-.12.41-.37.76l-.23.32q-.2.29-.19.64l.23 6.54q-1.49-6.9-2.57-9.42c-3.8-8.81-12.42-3.57-18.17-.46q-5.99 3.24-13.22 4.59-11.28 2.11-22.45 3.22-1.26.13-.9-1.09 1.71-5.82 3.62-11.73c1.79-5.53 7.44-7.52 12.41-9.71q2.45-1.08 5.15-1.11c5.35-.05 10.56-.98 15.97-.93q7.53.08 14.33-.03c3.8-.06 7.49-.71 11.29-1.07"/><path fill="#afd2a8" d="M197.41 79.03q-.37-.37-.27-.84a.23.23 0 0 1 .35-.14q.48.32.32.89-.12.39-.4.09"/><path fill="#9dc096" d="M198.33 80.93q-.4-.34-.56-.81-.21-.59.29-.21 1.28.96 1.6 2.54.11.54-.3.17-.4-.36-.53-.88-.12-.49-.5-.81M179.27 83.48a.52.51 24.1 0 1 .62-.23q.79.27.9 1.05a.75.74-76 0 1-1.17.71q-.85-.62-.35-1.53"/><path fill="#afd2a8" d="M215.17 84.57a.26.26 0 0 1 .34-.36q.36.16.3.57a.2.19-73.8 0 1-.27.15q-.24-.11-.37-.36"/><path fill="#62875b" d="M169.87 84.84a.5.48 79.5 0 1 .38.27q.19.41-.11.75-.36.42-.89.29a.55.54 17.1 0 1-.38-.71q.25-.7 1-.6"/><path fill="#9dc096" d="M176.3 86.65q-.44-.67-.14-1.39.23-.57.49 0 .31.69.12 1.32-.16.54-.47.07"/><path fill="#afd2a8" d="M194.19 85.8q.65-.13 1.18.15.48.25.54.79.08.72.45 1.32.27.44.08.91-.22.55-.67 1.05-.61.25-.84-.16a.49.47-38.7 0 1 .07-.56l.47-.51q.38-.41 0-.81-.97-1.02-1.28-2.18M216.56 88.06q-.59-.14-1.19-.03-.53.11-.55-.44-.01-.23.1-.43.29-.54.82-.22 1.12.67 1.88 1.44 1.16 1.16-.22.28-.24-.15-.42-.35-.17-.19-.42-.25"/><path fill="#9dc096" d="M198.29 87.28a.26.26 0 0 1 .43-.11q.4.43.17 1.09-.17.49-.45.06-.3-.48-.15-1.04"/><path fill="#afd2a8" d="M166.45 87.61q.43.41.33.89t-.6.51q-.56-.21-.38-.75.17-.48.65-.65"/><ellipse fill="#9dc096" rx="1.08" ry=".4" transform="rotate(45.7 -10.65 269.965)"/><path fill="#9dc096" d="M177.94 88.87a.35.34-60.6 0 1 .56-.16q.37.32.31.9a.39.39 0 0 1-.65.24q-.41-.37-.22-.98M167.44 90.98q-.22.24-.46.29-.8.18-.43-.5.14-.25.54-.46.7.01.35.67"/><path fill="#afd2a8" d="M217.07 90.36a.19.19 0 0 1 .3.18q-.09.7-.67 1.12-.57.42-.38-.26.19-.63.75-1.04"/><ellipse fill="#afd2a8" rx=".67" ry=".56" transform="rotate(57.3 2.511 203.2)"/><ellipse fill="#9dc096" rx="1.54" ry=".37" transform="rotate(48.7 -6.314 257.521)"/><path fill="#9dc096" d="M172.79 93.51q.07-.08.08.03.1.68-.45.27-.22-.16-.11-.41.04-.12.16-.06.07.03.09.11.07.22.23.06M181.01 94.51q-.55-.75-1.54-.81a.07.06 11.1 0 1-.06-.08l.08-.29q.05-.22.28-.16 1.78.55 2.27 2.4.06.25-.11.43-.16.17-.39.12-.32-.07-.32-.39.01-.25.01-.5.01-.41-.22-.72M192.04 94.66l.3-.39a.25.25 0 0 1 .36-.02q.48.47.33 1.08a.73.73 0 0 1-.65.55q-1.41.1-2.13-1.21-.09-.15-.02-.19l.27-.15q.23-.13.38.08.2.26.48.4.4.2.68-.15M173.03 95.49a.32.32 0 0 1 .44-.38q.4.18.16.54-.03.04-.08.06-.39.19-.52-.22"/><path fill="#6e9367" d="M226 96.42q.9.82 1.11 2.07.1.57.59.58.3 0 .41-.28.06-.15.05-.28.75.29 1.46.72c1.1.68 1.35 1.83 2.33 2.74q-.42.11-.44.39a.62.62 0 0 0 .61.66q.4 0 .55-.36.79 2.47 2.98 3.25.66.23.78-.46.3-1.62 1.75-1.51.5.04.77-.39.29-.46.76-.22c.86.44 1.01 1.84.89 2.67q-.09.66.46 1.05 1.51 1.04 1.62 2.69a1.14 1.13-25.3 0 1-.31.85l-1.22 1.29q-.45.47.15.73 1.11.49 2.38.58.17.84.82.67.63-.17.03-.84l2.12-.81q.07.74-.35 1.85-.18.47.25.72 1.73.97 1.2-.65l4.39 3.24q.45.33.69-.17 1.13-2.43 3.66-2.54.69-.03.33-.63-.18-.3.55-.48a.63.63 0 0 1 .72.32l6.26 12.38q-5.76-.4-11.34-.88-1.75-.15-1.97 1.26c-.47 3.11-4.6 7.07-6.85 8.48-4.96 3.09-12.29 7.01-18.24 7.82-1.72.24-3.33.75-5.05.83q-7.4.34-14.9.17-.32-1.36-.72-2.67-.08-.24.07-.47.31-.52.71-.07.27.29.65.42.51.18.2-.26-.63-.89-1.5-.98-.39-.04-.22-.39.44-.9.39-2.02-.05-1.04-1.48-1.03.66-.53.77-.97.09-.39-.29-.25-.67.25-1.29 1.05.32-2.61.62-5.17c.3-2.5-.18-4.88.05-7.35q.04-.53.46-.85l3.84-3q.64.63.96-1.17 5.58-3.67 7.86-10.31.1-.29.38-.19.05.02.09.06.16.18.01.37-.31.36-.17.82.22.78.36-.02.19-1.2.11-2.31-.03-.47.26-.84.9-1.16 2.35-1.79l1.09-1.63q.3-.44-.09-.8l-.78-.72q.82-.83.77-1.95.48-.17.54-.69.06-.61-.45-.77l.35-2.08q.1-.6.68-.42.5.15.86.57.37.42.92.52.78.14 1.64-.15m2.12 5.93q.47-.22.62-.69.23-.75-.44-.34l-1.17.72q-.25.15-.15.43.07.2.21.33a.47.46 42 0 0 .66-.03q.18-.19.27-.42m-4.69 4.28q-.53.29-.56.93a.48.47-13.9 0 0 .72.43q.78-.45.32-1.23a.36.35 59.7 0 0-.48-.13m-1.33 2.93a1.53.37 68.1 0 0-.227-1.558 1.53.37 68.1 0 0-.914-1.282 1.53.37 68.1 0 0 .228 1.558 1.53.37 68.1 0 0 .914 1.282m7.09-2.34q.11.71.67 1.09.45.31.34-.23-.15-.74-.75-1.05a.18.18 0 0 0-.26.19m8.74 4.814a1.86.34 49 0 0-.963-1.627 1.86.34 49 0 0-1.477-1.18 1.86.34 49 0 0 .963 1.626 1.86.34 49 0 0 1.477 1.18m.46.656q-.21-.13-.21.12.01.48.4.78a.17.17 0 0 0 .28-.15q-.04-.49-.47-.75m10.78 3.12q-.17.89-.07 1.8.02.19.2.18l.35-.03a.26.25 82.9 0 0 .23-.3l-.25-1.64q-.21-1.35-.46-.01m-5.82.08q-.42.25-.43.73a.35.35 0 0 0 .52.31q.42-.25.44-.72a.35.35 0 0 0-.53-.32m2.23 1.27q-.3.12-.23.37.07.3.34.16l1.57-.8q.61-.31.06-.72-.27-.21-.59-.16-.69.09-.88.85a.43.41-4.3 0 1-.27.3m-24.43 1.31a.2.2 0 0 0 .04.2q.48.48.77-.18.2-.46-.29-.4-.37.04-.52.38m7.589 2.374a1.17.36 47.6 0 0-.523-1.107 1.17.36 47.6 0 0-1.055-.621 1.17.36 47.6 0 0 .523 1.107 1.17.36 47.6 0 0 1.055.621m18.031-1.344q0 .85.66 1.39a.32.32 0 0 0 .52-.27q-.03-.72-.5-1.34a.38.38 0 0 0-.68.22m14.56 3.18q-.04.66.37 1.15.26.32.67.3.18 0 .34-.07.43-.16.2-.56-.79-1.37-1.63-2.61-.19-.28-.52-.42-.53-.23-.24.26l.6 1.05q.25.42.21.9m-10.31.24.22.21q.14.13.29 0 1.01-.89 1.57-2.12.1-.22-.04-.4-.31-.39-.61.01l-1.46 1.96q-.14.19.03.34m-28.96-1.97q-.23.51.06.94a.55.55 0 0 0 .95-.08q.25-.55-.09-.98a.55.54 37.4 0 0-.92.12m5.42 1.2a.39.38 42 0 0 .04.73q.41.11.76-.19t-.05-.51q-.34-.19-.75-.03m10.64.04q-1.08.37-.46 1.45a.58.57 67.5 0 0 .64.27q.76-.21.64-1.21a.63.63 0 0 0-.82-.51m20.105.779a.77.39 30.3 0 0-.468-.726.77.39 30.3 0 0-.862-.051.77.39 30.3 0 0 .468.725.77.39 30.3 0 0 .862.052m-8.365.821q.21-.34.11-.77-.14-.63-.62-.2-.69.6-.32 1.5a.3.29 71.2 0 0 .34.17q.26-.08.32-.29.06-.22.17-.41m-30.65-.34q-.36.34.09.49.3.11.39-.19.31-1.05-.48-.3m4.87 1.84q.01 1.04-.7 1.91-.27.32.11.5l.27.11q.22.1.3-.13l.84-2.3q.07-.2-.13-.28l-.26-.11q-.44-.18-.43.3m4.6.99q-.6-.56-1.27-.85a.27.27 0 0 0-.36.35q.44 1.06 1.43 1.03.74-.03.2-.53m8.8-.67a.18.17-.9 0 0-.23-.22q-1.3.52-1.24 1.74.03.62.63.74l.35.08q.8.16.51-.59-.34-.87-.02-1.75m-5.352 1.898a.78.39 63.5 0 0 .001-.872.78.39 63.5 0 0-.697-.524.78.39 63.5 0 0-.001.872.78.39 63.5 0 0 .697.524m-21.908-.048a.27.26 11.8 0 0 .2.3q.2.04.26-.17a.26.26 0 0 0-.24-.33q-.19-.01-.22.2m22.65 1.92q.2.06.39-.07.47-.33.06-.73l-.34-.34q-.59-.57-.99.15-.36.66-.95 1.1-.57.42.14.37.64-.04 1.2-.41.23-.15.49-.07m-11.95-.44q-.13-.53-.41-.05-.39.68-.31 1.53.06.58.41.11.52-.72.31-1.59m-11.2 1.65q.72-.35.95-1.05.24-.74-.44-.35-.67.39-.88 1.09-.16.57.37.31m31.278-.364a.91.65 36.9 0 0-.338-1.066.91.65 36.9 0 0-1.118-.026.91.65 36.9 0 0 .338 1.066.91.65 36.9 0 0 1.118.026m5.506 1.948a1.45.57 95.4 0 0 .704-1.39 1.45.57 95.4 0 0-.431-1.498 1.45.57 95.4 0 0-.704 1.39 1.45.57 95.4 0 0 .43 1.498m-32.334-.784q.02.39.41.52a.49.49 0 0 0 .64-.46q.01-.45-.16-.9a.51.51 0 0 0-.94-.02q-.12.29-.01.58.05.13.06.28m9.29.834a.97.37 33.4 0 0-.606-.843.97.37 33.4 0 0-1.014-.225.97.37 33.4 0 0 .606.843.97.37 33.4 0 0 1.014.225m-16.79-.514q.49-.68-.29-.37-.75.29-1.05 1.22-.05.16.02.3.19.41.45.05zm5.95 2.14q-.82-.53-1.69-.49-.88.05-.07.4.76.33 1.33.87.31.31.67.06.21-.15.28-.39.09-.31-.21-.42-.14-.05-.31-.03m-5.166 4.659a.74.45 86.6 0 0 .405-.766.74.45 86.6 0 0-.493-.712.74.45 86.6 0 0-.405.766.74.45 86.6 0 0 .493.712m18.416.841-.38-.38q-.87-.86-.47.3.6 1.75 2.3 1.9a.73.72 14.4 0 0 .72-.42q.24-.55-.09-1.07-.2-.31-.56-.21l-.49.15q-.59.17-1.03-.27"/><ellipse fill="#afd2a8" rx="1.12" ry=".39" transform="rotate(36.2 -32.221 399.607)"/><path fill="#afd2a8" d="M228.16 98.51q.01.13-.05.28-.11.28-.41.28-.49-.01-.59-.58-.21-1.25-1.11-2.07 1.24-.86 2.16 2.09M221.55 97.98q.51.16.45.77-.06.52-.54.69-.32-.17-.37-.52-.1-.73.46-.94"/><ellipse fill="#afd2a8" rx="1.39" ry=".48" transform="rotate(132.1 81.79 96.183)"/><path fill="#9dc096" d="M188.82 100.07q.42-.09.75.1a.55.54-57.2 0 1 .17.8q-.7.94-1.6.43a.52.52 0 0 1-.19-.73q.29-.48.87-.6M201.25 100.3q.16.2.1.32a.56.56 0 0 1-.82.22q-.26-.18-.36-.53.63-.39 1.08-.01M220.69 101.39l.78.72q.39.36.09.8l-1.09 1.63q-.72-.81.05-1.72.16-.2.01-.41l-.17-.21q-.25-.33 0-.66.13-.16.33-.15M228.12 102.35q-.09.23-.27.42a.47.46 42 0 1-.66.03q-.14-.13-.21-.33-.1-.28.15-.43l1.17-.72q.67-.41.44.34-.15.47-.62.69"/><ellipse fill="#9dc096" rx="1.17" ry=".57" transform="rotate(67.8 6.248 174.4)"/><path fill="#9dc096" d="M231.95 101.97q.56.12.72.69-.15.36-.55.36a.62.62 0 0 1-.61-.66q.02-.28.44-.39M186.25 103.48a.22.21 41.4 0 1 .36-.02q.39.51.17 1.12-.32.87-.62-.01-.2-.56.09-1.09M169.56 106.31q-.37-.41-.24-.93.15-.6.42-.04l1.02 2.08q.15.32-.15.5-.15.1-.36.08-.28-.03-.31-.32l-.08-.7q-.05-.38-.3-.67M199.73 106.64q-.32.55-.86.79-.56.25-.36-.33.29-.81.95-.87.53-.05.27.41"/><ellipse fill="#afd2a8" rx=".9" ry=".6" transform="rotate(105.1 92.718 155.974)"/><path fill="#9dc096" d="M223.43 106.63a.36.35 59.7 0 1 .48.13q.46.78-.32 1.23a.48.47-13.9 0 1-.72-.43q.03-.64.56-.93"/><ellipse fill="#9dc096" rx="1.53" ry=".37" transform="rotate(68.1 30.754 217.977)"/><path fill="#9dc096" d="M229.19 107.22a.18.18 0 0 1 .26-.19q.6.31.75 1.05.11.54-.34.23-.56-.38-.67-1.09"/><path fill="#afd2a8" d="M190.16 108.39a.36.36 0 0 1 .61.05q.27.52.05 1.06a.37.37 0 0 1-.63.1q-.5-.59-.03-1.21"/><ellipse fill="#9dc096" rx=".68" ry=".27" transform="rotate(93.4 49.848 149.9)"/><ellipse fill="#afd2a8" rx="1.86" ry=".34" transform="rotate(49 -3.023 315.021)"/><path fill="#afd2a8" d="M254.04 110.2q-.08.82-.52 1.47a.43.43 0 0 1-.79-.29q.1-.97.73-1.49.68-.56.58.31M190.38 112.41l-1.21-.71q-.82-.49.1-.74.73-.2 1.4.24.38.26.37.71 0 .14-.05.28-.16.49-.61.22M247.75 114.13q.53 1.62-1.2.65-.43-.25-.25-.72.42-1.11.35-1.85-.38-1.22.38-1.24a.44.43-84.1 0 1 .44.55q-.59 2.15.28 2.61"/><path fill="#9dc096" d="M172.3 111.47a.26.24-84 0 1 .16-.14q.19-.07.37.01.42.17.23.58-.07.14-.15.26-.12.19-.31.08-.58-.31-.3-.79M170.03 113.66q-.09.23-.22.46-.31.52-.25-.08l.17-2.11q.08-.92.7-.23.61.68-.07 1.42-.22.24-.33.54M200.17 111.89a.33.33 0 0 1 .58-.05q.28.41.01.85a.34.34 0 0 1-.6-.04q-.16-.37.01-.76"/><path fill="#afd2a8" d="M267.86 112.55a.7.69 34 0 1-.55.1q-.55-.14-.21-.59a.48.47-62.9 0 1 .51-.17q.86.26.25.66"/><ellipse fill="#afd2a8" rx="1.02" ry=".41" transform="rotate(45.9 -36.972 284.258)"/><path fill="#9dc096" d="M238.39 112.69q.43.26.47.75a.17.17 0 0 1-.28.15q-.39-.3-.4-.78 0-.25.21-.12M197.32 112.94a.46.45-63 0 1 .32-.11q.32.01.4.3.18.67-.4 1.16a.41.4 58.4 0 1-.64-.16q-.29-.65.32-1.19M244.53 113.02q.6.67-.03.84-.65.17-.82-.67 0-.19.2-.28.32-.14.65.11M190.25 114.27q-.13.61-.76.78a.25.25 0 0 1-.28-.37q.44-.79 1.15-1.46.55-.52.48.23-.06.55-.59.82M274.26 115.88l.16.45q.19.52-.36.52-.14 0-.28-.05-.13-.05-.15-.19-.22-1.68.58-3.04.39-.64.4.11.02.79-.33 1.57-.13.31-.02.63M249.17 115.81q.25-1.34.46.01l.25 1.64a.26.25 82.9 0 1-.23.3l-.35.03q-.18.01-.2-.18-.1-.91.07-1.8"/><path fill="#afd2a8" d="M243.35 115.89a.35.35 0 0 1 .53.32q-.02.47-.44.72a.35.35 0 0 1-.52-.31q.01-.48.43-.73M245.85 116.86q.19-.76.88-.85.32-.05.59.16.55.41-.06.72l-1.57.8q-.27.14-.34-.16-.07-.25.23-.37a.43.41-4.3 0 0 .27-.3"/><path fill="#9dc096" d="M277.38 118.87q.39.09.57.43a.68.68 0 0 1-.54 1q-.8.07-1.52.45-.48.26-.63-.26a.29.28 66.7 0 1 .12-.31q1.52-1 .78-2.77a.6.6 0 0 1 .78-.78q.47.2.78.59.46.59-.23.89-.14.06-.26.16a.35.35 0 0 0 .15.6M268.2 119c-.48-1.07-1.88-1.5-2.97-1.8q-.97-.28.04-.33 1.46-.07 2.81.83.72.47.58 1.24-.13.8-.46.06"/><circle cx="192.51" cy="117.62" r=".56" fill="#9dc096"/><path fill="#afd2a8" d="M209.22 118.75q-.32 1.8-.96 1.17.03-2.94.96-1.17M221.15 118.47q.15-.34.52-.38.49-.06.29.4-.29.66-.77.18a.2.2 0 0 1-.04-.2"/><path fill="#9dc096" d="M272.42 118.68a.22.21-38.8 0 1 .37.04q.22.47-.06.91a.27.27 0 0 1-.5-.1q-.08-.47.19-.85"/><ellipse fill="#afd2a8" rx="1.17" ry=".36" transform="rotate(47.6 -22.04 318.406)"/><path fill="#afd2a8" d="M247.45 119.28q.47.62.5 1.34a.32.32 0 0 1-.52.27q-.66-.54-.66-1.39a.38.38 0 0 1 .68-.22"/><path fill="#9dc096" d="M191.96 121.52q-.84-.53-.88-1.43-.03-.79.41-.13.68 1.03 1.16 2.22.41 1.02-.38.26-.17-.16-.1-.41a.47.47 0 0 0-.21-.51"/><path fill="#afd2a8" d="M267.72 120a.42.41 64.4 0 1 .52.19q.15.28.15.6 0 .17-.11.3-.2.28-.53.28a.62.62 0 0 1-.54-.96q.18-.28.51-.41M261.12 121.78l-.6-1.05q-.29-.49.24-.26.33.14.52.42.84 1.24 1.63 2.61.23.4-.2.56-.16.07-.34.07-.41.02-.67-.3-.41-.49-.37-1.15.04-.48-.21-.9M250.99 122.58l1.46-1.96q.3-.4.61-.01.14.18.04.4-.56 1.23-1.57 2.12-.15.13-.29 0l-.22-.21q-.17-.15-.03-.34M222.06 120.95a.55.54 37.4 0 1 .92-.12q.34.43.09.98a.55.55 0 0 1-.95.08q-.29-.43-.06-.94M194.15 121.52q.2-.47.68-.3.34.13.34.49 0 .63-.52.93a.38.38 0 0 1-.56-.23q-.13-.45.06-.89M227.48 122.15q.41-.16.75.03.4.21.05.51t-.76.19a.39.38 42 0 1-.04-.73"/><path fill="#9dc096" d="M238.12 122.19a.63.63 0 0 1 .82.51q.12 1-.64 1.21a.58.57 67.5 0 1-.64-.27q-.62-1.08.46-1.45"/><ellipse fill="#afd2a8" rx=".77" ry=".39" transform="rotate(30.3 -97.585 536.92)"/><path fill="#afd2a8" d="M249.69 124.2q-.06.21-.32.29a.3.29 71.2 0 1-.34-.17q-.37-.9.32-1.5.48-.43.62.2.1.43-.11.77-.11.19-.17.41M219.21 123.45q.79-.75.48.3-.09.3-.39.19-.45-.15-.09-.49"/><path fill="#9dc096" d="M224.08 125.29q-.01-.48.43-.3l.26.11q.2.08.13.28l-.84 2.3q-.08.23-.3.13l-.27-.11q-.38-.18-.11-.5.71-.87.7-1.91M228.48 126.81q-.99.03-1.43-1.03a.27.27 0 0 1 .36-.35q.67.29 1.27.85.54.5-.2.53"/><path fill="#afd2a8" d="M237.48 125.61q-.32.88.02 1.75.29.75-.51.59l-.35-.08q-.6-.12-.63-.74-.06-1.22 1.24-1.74a.18.17-.9 0 1 .23.22"/><ellipse fill="#9dc096" rx=".78" ry=".39" transform="rotate(63.5 13.429 250.681)"/><path fill="#afd2a8" d="M210.22 127.46q.03-.21.22-.2a.26.26 0 0 1 .24.33q-.06.21-.26.17a.27.26 11.8 0 1-.2-.3M232.38 129.45q-.56.37-1.2.41-.71.05-.14-.37.59-.44.95-1.1.4-.72.99-.15l.34.34q.41.4-.06.73-.19.13-.39.07-.26-.08-.49.07"/><path fill="#9dc096" d="M220.92 128.94q.21.87-.31 1.59-.35.47-.41-.11-.08-.85.31-1.53.28-.48.41.05"/><path fill="#afd2a8" d="M209.72 130.59q-.53.26-.37-.31.21-.7.88-1.09.68-.39.44.35-.23.7-.95 1.05"/><ellipse fill="#9dc096" rx=".91" ry=".65" transform="rotate(36.9 -74.215 424.93)"/><ellipse fill="#afd2a8" rx="1.45" ry=".57" transform="rotate(95.4 63.842 177.578)"/><path fill="#afd2a8" d="M214.11 131.11q-.11-.29.01-.58a.51.51 0 0 1 .94.02q.17.45.16.9a.49.49 0 0 1-.64.46q-.39-.13-.41-.52-.01-.15-.06-.28"/><ellipse fill="#afd2a8" rx=".97" ry=".37" transform="rotate(33.4 -108.148 436.91)"/><path fill="#9dc096" d="m206.67 131.71-.87 1.2q-.26.36-.45-.05-.07-.14-.02-.3.3-.93 1.05-1.22.78-.31.29.37"/><path fill="#afd2a8" d="M185.62 132.63q.32.55.34 1.12.02.48-.36.19-.57-.42-.39-1.24.12-.57.41-.07"/><path fill="#9dc096" d="M191.97 133.34q.21-.2.49-.18a.45.45 0 0 1 .4.35q.17.86-.58 1.32-.29.18-.49-.1-.51-.73.18-1.39"/><path fill="#afd2a8" d="M212.62 133.85q.17-.02.31.03.3.11.21.42-.07.24-.28.39-.36.25-.67-.06-.57-.54-1.33-.87-.81-.35.07-.4.87-.04 1.69.49M190.19 136.25q.27.84-.55.52-.62-.24-.93-.93a.46.45-88.9 0 1 .62-.6q.64.33.86 1.01"/><ellipse fill="#afd2a8" rx="1.09" ry=".56" transform="rotate(102.8 43.95 146.493)"/><path fill="#9dc096" d="M204.1 136.46q-.23.32-.51.36-.29.04-.37-.24-.05-.15.07-.29.62-.8 1.29-1.05.38-.14.29.25-.11.44-.77.97"/><ellipse fill="#afd2a8" rx=".74" ry=".45" transform="rotate(86.6 30.606 178.934)"/><path fill="#afd2a8" d="M191.34 138.89q.32.21.36.52.07.56-.46.37-.73-.27-1-1.04a.41.41 0 0 1 .52-.52q.28.09.38.4a.5.49 9.2 0 0 .2.27M226.9 139.62l.49-.15q.36-.1.56.21.33.52.09 1.07a.73.72 14.4 0 1-.72.42q-1.7-.15-2.3-1.9-.4-1.16.47-.3l.38.38q.44.44 1.03.27"/></svg>