<svg xmlns="http://www.w3.org/2000/svg" viewBox="0 0 382 382"><defs><clipPath id="a"><path d="M382 382H0V0h382z"/></clipPath></defs><g clip-path="url(#a)"><svg xmlns="http://www.w3.org/2000/svg" width="382" height="382" style="shape-rendering:geometricPrecision"><path fill="#f02b8a" stroke="#f02b8a" d="m110.588 0 3.184 11.643-54.006 91.168-34.822 13.582-.995-.42L93.109 0z"/><path fill="#98752b" stroke="#98752b" d="m200.364 0 .238 12.885-18.355 2.159L174.518 0z"/><path fill="#f02b8a" stroke="#f02b8a" d="m130.388 205.486 12.116 64.225-21.76 12.874-23.2-14.146.515-32.02 16.838-31.323z"/><path fill="#98752b" stroke="#98752b" d="m256.277 274.406 15.655-12.433 23.235 5.747.622 6.674-5.031 13.928-29.255 9.647zM306.168 171.005l-53.298-55.787 5.356-6.145 22.509-3.666 20.785 9.33z"/><path fill="#f02b8a" stroke="#f02b8a" d="m301.52 114.737-20.785-9.33 7.994-12.847 39.93-12.053 2.328 30.631z"/><path fill="#98752b" stroke="#98752b" d="m294.314 56.18-41.656 18.647-16.956-31.906 22.853-25.23z"/><path fill="#f02b8a" stroke="#f02b8a" d="m98.06 236.42-.516 32.019-.9.127-40.55-11.483-5.65-26.395z"/><path fill="#98752b" stroke="#98752b" d="m0 111.668 23.949 4.305.995.42 34.153 38.925 6.163 16.345-18.558 52.746-13.518 2.727L0 221.493zM46.002 271.635l6.095 38.184L0 324.057v-50.96l12.608-4.474zM210.465 223.814l-8.354 36.38-6.694 12.408-52.913-2.89-12.116-64.226 28.516-14.568 25.246 7.666zM0 328.052 60.755 382H46.72L0 368.026zM382 72.06l-16.743 21.25-14.486-28.46L382 61.215z"/><path fill="#f02b8a" stroke="#f02b8a" d="m213.805 45.083-13.203-32.198L200.364 0h64.417l-6.226 17.691-22.853 25.23zM238.461 174.718l-29.686-29.068 2.132-15.058 20.925-11.286 16.91-1.42 4.328 40.75z"/><path fill="#98752b" stroke="#98752b" d="m306.168 171.005-4.648-56.268 29.467-3.599 6.923 4.76.201 16.972-24.696 53.924-.339.116z"/><path fill="#f02b8a" stroke="#f02b8a" d="m259.762 300.657 1.741-2.688 29.255-9.647 12.215 35.988-3.339 7.214zM193.18 124.844l-15.066-1.476L160.8 70.075l25.01-10.596 8.423-.442.466 1.105z"/><path fill="#f02b8a" stroke="#f02b8a" d="m160.8 70.075 17.314 53.293L147.508 143l-5.646-3.415-19.71-55.352 12.824-15.929zM317.852 382l5.108-4.104L382 337.754V382z"/><path fill="#98752b" stroke="#98752b" d="m210.907 130.592-17.726-5.748 1.518-64.702 37.133 59.164z"/><path fill="#f02b8a" stroke="#f02b8a" d="M231.832 119.306 194.7 60.142l-.466-1.105 19.572-13.954 21.897-2.162 16.956 31.906 5.568 34.246-5.356 6.145-4.129 2.667zM382 0v61.215l-31.229 3.635-7.192-3.681-2.844-12.071 8.53-24.335L374.352 0z"/><path fill="#98752b" stroke="#98752b" d="m122.152 84.233-62.386 18.578 54.006-91.168 21.204 56.661z"/><path fill="#f02b8a" stroke="#f02b8a" d="m114.897 205.096-16.838 31.323-47.614-5.731-3.743-6.28 18.558-52.745zM195.417 272.602l4.242 22.64-17.399 18.67-62.678-18.4 1.162-12.927 21.76-12.874zM160.8 70.075l-25.824-1.77-21.204-56.662L110.588 0h30.784l28.972 22.977L185.81 59.48z"/><path fill="#98752b" stroke="#98752b" d="M54.682 310.847 75.843 382H60.755L0 328.052v-3.995l52.097-14.238 2.566 1.01zM382 254.908l-11.21-3.103-13.724-62.966L382 177.598zM305.54 194.652l7.536-7.742.34-.116 43.65 2.045 13.724 62.966-22.62 5.876-33.538-16.94-11.32-41.746zM56.093 257.083l-10.09 14.552-33.395-3.012 20.576-41.487 13.518-2.727 3.743 6.279zM345.707 306.975 382 324.855v12.899l-59.04 40.142 19.666-70.304z"/><path fill="#f02b8a" stroke="#f02b8a" d="M294.314 56.18 258.555 17.69 264.781 0h14.284l30.025 43.198.274 1.97-14.876 11.086z"/><path fill="#98752b" stroke="#98752b" d="m161.992 382 7.098-25.108 73.33 2.595L258.683 382zM329.136 77.983 297.372 65.43l-2.884-9.177 14.876-11.086 31.371 3.93 2.844 12.07z"/><path fill="#f02b8a" stroke="#f02b8a" d="m208.775 145.65-24.625 52.934-25.246-7.666L147.508 143l30.606-19.632 15.067 1.476 17.726 5.748z"/><path fill="#98752b" stroke="#98752b" d="m259.762 300.657 39.872 30.867L288.132 382h-29.45l-16.262-22.513-12.126-36.382z"/><path fill="#f02b8a" stroke="#f02b8a" d="m309.09 43.198 6.656-26.552 33.52 8.117-8.53 24.335-31.372-3.93zM313.415 186.794l24.696-53.924L382 157.623v19.975l-24.934 11.24zM238.461 174.718l-12.718 43.743-15.278 5.353-26.315-25.23 24.625-52.934zM230.294 323.105l12.126 36.382-73.33-2.595-5.583-20.526 18.753-22.455 17.4-18.669z"/><path fill="#98752b" stroke="#98752b" d="m174.518 0 7.729 15.044-11.903 7.933L141.372 0z"/><path fill="#f02b8a" stroke="#f02b8a" d="m158.904 190.918-28.516 14.568-15.491-.39-49.637-33.433-6.163-16.345 82.765-15.733 5.646 3.415z"/><path fill="#98752b" stroke="#98752b" d="m318.281 286.45 28.403-22.696-.977 43.22-3.08.618-11.433.608zM119.582 295.512l62.678 18.4-18.753 22.454-17.033-4.01-29.985-14.85z"/><path fill="#f02b8a" stroke="#f02b8a" d="m122.152 84.233 19.71 55.352-82.765 15.733-34.153-38.925 34.822-13.582z"/><path fill="#98752b" stroke="#98752b" d="m258.226 109.073-5.568-34.246 41.656-18.648.174.075 2.884 9.177-8.643 27.129-7.994 12.847z"/><path fill="#f02b8a" stroke="#f02b8a" d="m116.489 317.506 29.985 14.85L120.072 382H87.633l28.195-63.966zM0 221.493l33.184 5.643-20.576 41.487L0 273.098z"/><path fill="#98752b" stroke="#98752b" d="m382 113.392-14.158-5.47-2.585-14.612L382 72.06z"/><path fill="#f02b8a" stroke="#f02b8a" d="m329.136 77.983-.477 2.524-39.93 12.053 8.643-27.13z"/><path fill="#98752b" stroke="#98752b" d="M169.09 356.892 161.992 382h-41.92l26.402-49.644 17.033 4.01zM225.743 218.46l21.162.613 25.027 42.9-15.655 12.433-54.166-14.213 8.354-36.379z"/><path fill="#f02b8a" stroke="#f02b8a" d="m56.093 257.083 40.552 11.483-41.982 42.263-2.566-1.01-6.095-38.184z"/><path fill="#98752b" stroke="#98752b" d="m238.461 174.718 14.61-16.083 52.469 36.017-2.228 4.343-56.407 20.078-21.162-.612zM314.632 240.741l33.538 16.94-1.486 6.073-28.403 22.697-22.492-12.057-.622-6.674z"/><path fill="#98752b" stroke="#98752b" d="m348.17 257.68 22.62-5.875 11.21 3.103v69.948l-36.293-17.881.977-43.22zM309.09 43.198 279.065 0h17.896l18.785 16.646z"/><path fill="#f02b8a" stroke="#f02b8a" d="m374.351 0-25.085 24.763-33.52-8.117L296.961 0z"/><path fill="#98752b" stroke="#98752b" d="m302.973 324.31 28.22-16.11 11.433-.608-19.666 70.304-5.108 4.104h-29.72l11.502-50.476z"/><path fill="#f02b8a" stroke="#f02b8a" d="M0 0h93.11L23.949 115.973 0 111.668zM246.905 219.073l56.407-20.078 11.32 41.746-19.465 26.979-23.235-5.747zM0 368.026 46.721 382H0z"/><path fill="#98752b" stroke="#98752b" d="m256.277 274.406 5.226 23.563-1.74 2.688-29.47 22.448-30.634-27.863-4.242-22.64 6.694-12.409zM382 157.623l-43.889-24.753-.2-16.973 29.93-7.975 14.159 5.47z"/><path fill="#f02b8a" stroke="#f02b8a" d="m295.79 274.394 22.491 12.057 12.913 21.75-28.221 16.109-12.215-35.988zM253.07 158.635l-4.329-40.75 4.129-2.667 53.298 55.787 6.908 15.905-7.536 7.742z"/><path fill="#98752b" stroke="#98752b" d="m330.987 111.138-2.328-30.631.477-2.524 14.443-16.814 7.192 3.681 14.486 28.46 2.585 14.612-29.932 7.975z"/><path fill="#f02b8a" stroke="#f02b8a" d="m119.582 295.512-3.093 21.994-.66.528-61.147-7.187-.02-.018 41.983-42.263.899-.127 23.2 14.146zM115.828 318.034 87.633 382h-11.79l-21.161-71.153z"/><path fill="#98752b" stroke="#98752b" d="m194.233 59.037-8.423.442-15.466-36.502 11.903-7.933 18.355-2.159 13.203 32.198z"/></svg></g></svg>