<svg xmlns="http://www.w3.org/2000/svg" viewBox="0 0 382 382"><defs><clipPath id="a"><path d="M382 382H0V0h382z"/></clipPath></defs><g clip-path="url(#a)"><svg xmlns="http://www.w3.org/2000/svg" width="382" height="382" style="shape-rendering:geometricPrecision"><path fill="#9dd0d5" stroke="#9dd0d5" d="m174.952 197.851 13.798 15.066-7.82 50.16-50.26-10.66 2.746-7.307 30.334-44.794 5.59-4.216z"/><path fill="#d42cbe" stroke="#d42cbe" d="m100.76 152.352-25.725 17.604-5.158-18.106 26.458-7.802z"/><path fill="#9dd0d5" stroke="#9dd0d5" d="m234.725 191.063 22.237-18.167 16.03.367 9.497 29.466-16.508 18.73-34.673-5.354z"/><path fill="#9dd0d5" stroke="#9dd0d5" d="m211.542 170.819 18.315 7.342 4.868 12.902-3.417 25.042-.348.138-42.21-3.326-13.798-15.066.726-.87zM233.048 297.536l62.284-10.757 4.923 11.904-43.806 9.568zM226.176 271.76l53.626-12.61 13.275 12.213.238.615 2.017 14.801-62.284 10.757-31.633 1.814zM83.236 0l1.565 21.87-42.88 17.007L0 24.027V0z"/><path fill="#d42cbe" stroke="#d42cbe" d="m118.626 106.848-22.792 5.175L75.789 84.97 76.2 82l42.243-27.963z"/><path fill="#9dd0d5" stroke="#9dd0d5" d="M118.443 54.037 76.2 82.001l-8.212-23.765 27.323-22.32 21.926 5.872 1.965 10.861z"/><path fill="#d42cbe" stroke="#d42cbe" d="M310.865 188.416 295.26 148.36l40.682 12.885-.002 1.533z"/><path fill="#9dd0d5" stroke="#9dd0d5" d="m210.459 93.614-26.667-20.54 26.612-59.248L231.667 0h2.889l20.394 36.375-42.74 57.199zM117.237 41.788l-21.926-5.871L84.8 21.87 83.236 0h60.575l.212 1.236zM282.489 202.73l23.26-1.853 21.321 15.39 1.348 8.647-35.34 46.449-13.276-12.213-13.821-37.691z"/><path fill="#d42cbe" stroke="#d42cbe" d="m213.866 160.043-2.324 10.776-35.864 26.162 22.477-53.036zM272.992 173.263l11.697-32.377 10.57 7.473 15.606 40.057-5.115 12.461-23.261 1.852z"/><path fill="#9dd0d5" stroke="#9dd0d5" d="m94.576 114.794-39.37 16.261-12.409-36.233L75.79 84.97l20.045 27.053z"/><path fill="#d42cbe" stroke="#d42cbe" d="m56.06 253.652-42.216 50.41L0 301.408v-77.044l44.458 11.324z"/><path fill="#9dd0d5" stroke="#9dd0d5" d="m382 133.621-40.31 18.711-21.03-34.218 6.277-7.256L382 118.549z"/><path fill="#9dd0d5" stroke="#9dd0d5" d="m284.69 140.886-3.203-12.416 39.173-10.356 21.03 34.218-5.749 8.912-40.682-12.885zM158.637 138.583l6.812 52.392-51.32-19.654-1.48-6.909 32.282-31.096z"/><path fill="#d42cbe" stroke="#d42cbe" d="m293.077 271.363 35.341-46.45 37.682 28.942-72.785 18.123zM62.257 193.682l-17.8 42.005L0 224.363v-6.108l36.555-44.994z"/><path fill="#9dd0d5" stroke="#9dd0d5" d="m102.432 276.771 28.039 37.796-77.41 43.878-8.804-25.542z"/><path fill="#d42cbe" stroke="#d42cbe" d="m144.931 133.316-32.281 31.096-11.89-12.06-4.425-8.304-1.759-29.254 1.258-2.771 22.792-5.175 8.981 1.882z"/><path fill="#9dd0d5" stroke="#9dd0d5" d="m310.865 188.416 25.074-25.64 19.946 29.873-4.528 5.789-24.287 17.828-21.32-15.389z"/><path fill="#d42cbe" stroke="#d42cbe" d="m231.308 216.105 34.673 5.354 13.82 37.691-53.625 12.61 4.784-55.517zM0 301.407l13.844 2.656 30.413 28.84 8.805 25.542.244 23.555H0zM335.941 161.244l5.75-8.912L382 133.622v54.417l-5.75 2.075-20.365 2.535-19.946-29.872zM98.716 208.037l-3.88 54.676-38.776-9.06-11.602-17.966 17.8-42.005 3.918-.528 28.31 6.35z"/><path fill="#9dd0d5" stroke="#9dd0d5" d="m75.789 84.97-32.992 9.852-2.296-.482L0 75.53V24.029l41.92 14.849 26.068 19.36L76.2 82zM293.315 271.978l72.785-18.123 7.159 2.728 8.741 6.758v8.67l-81.513 27.13-.232-.458-4.923-11.904z"/><path fill="#d42cbe" stroke="#d42cbe" d="M382 0v22.96l-33.364 20.084-75.327.332-9.076-5.276L297.664 0zM183.66 73.024 159.464 15.6l50.94-1.775-26.612 59.249zM213.866 160.043l-15.711-16.098-3.82-25.755 16.124-24.576 1.75-.04 32.5 22.13-8.782 34.646zM355.885 192.649l20.365-2.535-6.498 45.347-18.395-37.023z"/><path fill="#9dd0d5" stroke="#9dd0d5" d="m96.335 144.048-26.458 7.802-23.325-6.902 8.653-13.893 39.371-16.261zM95.31 35.917l-27.322 22.32-26.068-19.36L84.801 21.87zM167.298 75.793l-39.69 32.937-8.982-1.882-.183-52.811.759-1.388z"/><path fill="#d42cbe" stroke="#d42cbe" d="m244.708 115.704-32.498-22.13 42.74-57.2 9.283 1.726 9.076 5.276 12.761 44.879-15.177 30.715z"/><path fill="#9dd0d5" stroke="#9dd0d5" d="m297.664 0-33.43 38.1-9.284-1.725L234.556 0z"/><path fill="#d42cbe" stroke="#d42cbe" d="m201.415 299.35 31.633-1.814 23.4 10.715-9.56 19.034-56.937-1.968 7.732-23.502zM270.893 118.97l15.177-30.715 41.292-13.048-.425 35.651-6.277 7.256-39.173 10.356z"/><path fill="#d42cbe" stroke="#d42cbe" d="m180.93 263.076 16.753 38.74-7.732 23.5-12.09 17.958-47.39-28.707-28.039-37.796-1.328-8.026 29.567-16.328z"/><path fill="#d42cbe" stroke="#d42cbe" d="M177.982 348.758 173.444 382H53.306l-.244-23.555 77.409-43.878 47.39 28.707zM246.887 327.285l9.562-19.034 43.806-9.568.232.458 4.92 36.768zM286.07 88.255 273.31 43.376l75.327-.332-21.274 32.163zM235.927 150.35l8.781-34.646 26.185 3.266 10.594 9.5 3.202 12.416-11.697 32.377-16.03-.367-19.316-16.08z"/><path fill="#d42cbe" stroke="#d42cbe" d="m213.866 160.043 22.061-9.693 1.72 6.467-7.79 21.344-18.315-7.342zM382 118.55l-55.063-7.692.425-35.65 21.274-32.164L382 22.96zM382 382h-50.192l-12.62-17.683-13.781-28.408-4.92-36.768L382 272.011z"/><path fill="#9dd0d5" stroke="#9dd0d5" d="m327.07 216.266 24.287-17.828 18.395 37.023 3.507 21.122-7.159-2.728-37.682-28.941z"/><path fill="#d42cbe" stroke="#d42cbe" d="m165.449 190.975 3.89 5.125-5.59 4.216-42.266 10.92-22.767-3.2-4.23-8.533 19.643-28.182zM158.637 138.583l-13.706-5.267-17.324-24.586 39.691-32.937 16.362-2.77.132.052 26.667 20.539-16.125 24.576z"/><path fill="#9dd0d5" stroke="#9dd0d5" d="m163.75 200.316-30.334 44.794-11.933-33.874z"/><path fill="#d42cbe" stroke="#d42cbe" d="m231.667 0-21.263 13.826-50.94 1.775-15.441-14.365L143.81 0z"/><path fill="#9dd0d5" stroke="#9dd0d5" d="m229.857 178.16 7.79-21.343 19.315 16.079-22.237 18.167zM382 263.341l-8.741-6.758-3.507-21.122 6.498-45.347 5.75-2.075z"/><path fill="#d42cbe" stroke="#d42cbe" d="m0 143.936 22.825 7.315 7.704 3.905 6.026 18.105L0 218.255zM167.298 75.793l-48.096-23.144-1.965-10.861 26.786-40.552L159.464 15.6l24.196 57.423zM198.155 143.945l-22.477 53.036-.726.87-5.612-1.751-3.891-5.125-6.812-52.392 35.697-20.393zM98.716 208.037l22.767 3.199 11.933 33.874-2.745 7.307-29.567 16.328-6.267-6.032zM246.887 327.285l58.52 8.624 13.78 28.408-141.205-15.56-.122-5.483 12.09-17.957z"/><path fill="#9dd0d5" stroke="#9dd0d5" d="m69.877 151.85 5.158 18.106-8.86 23.198-3.918.528-25.702-20.421-6.026-18.105 16.023-10.208zM0 75.53l40.5 18.81-17.675 56.91L0 143.937z"/><path fill="#d42cbe" stroke="#d42cbe" d="m173.444 382 4.538-33.242 141.206 15.559L331.808 382zM114.13 171.32l-19.645 28.183-28.31-6.35 8.86-23.197 25.725-17.604 11.89 12.06z"/><path fill="#9dd0d5" stroke="#9dd0d5" d="m101.104 268.745 1.328 8.026-58.175 56.132-30.413-28.84 42.216-50.41 38.777 9.06z"/><path fill="#d42cbe" stroke="#d42cbe" d="m46.552 144.948-16.023 10.208-7.704-3.905 17.676-56.91 2.296.481 12.408 36.233z"/><path fill="#9dd0d5" stroke="#9dd0d5" d="m188.75 212.917 42.21 3.326-4.784 55.517-24.761 27.59-3.732 2.465-16.752-38.739z"/></svg></g></svg>