<svg xmlns="http://www.w3.org/2000/svg" viewBox="0 0 382 382"><defs><clipPath id="a"><path d="M382 382H0V0h382z"/></clipPath></defs><g clip-path="url(#a)"><svg xmlns="http://www.w3.org/2000/svg" width="382" height="382" style="shape-rendering:geometricPrecision"><path fill="#a717a5" stroke="#a717a5" d="M232.384 49.6 194.505 0h57.731l5.756 20.702z"/><path fill="#c14a94" stroke="#c14a94" d="m170.861 126.677-30.957 4.016-.875-1.033 19.13-32.096 6.756 3.686 1.2 1.269z"/><path fill="#a717a5" stroke="#a717a5" d="m17.622 199.283.832 97.075-.798 1.093L0 200.627v-13.165l8.54 1.137 2.403 1.6zM101.315 269.19 89.69 316.433l-62.382 6.947L8.81 310.615l8.847-13.164.798-1.093 48.002-48.256 28.346-.29zM228.894 88.461l-6.918-12.875L232.384 49.6l25.608-28.898 26.175 16.717-15.07 41.933-31.43 8.02z"/><path fill="#a717a5" stroke="#a717a5" d="m66.456 248.102-48.002 48.256-.832-97.075zM127.472 0l-1.82 7.885-68.198 55.788-3.488-.887-19.102-20.56L46.36 0z"/><path fill="#c14a94" stroke="#c14a94" d="m80.62 382 .838-15.916 31.5-24.532 3.812 1.29L145.189 382zM138.537 68.662l-4.31-3.299-8.575-57.478L127.472 0H160.9l33.532 47.044-28.945 23.348z"/><path fill="#a717a5" stroke="#a717a5" d="m223.506 110.26-57.392-7.741-1.199-1.269 33.2-25.951 17.931-2.326 5.93 2.613 6.918 12.875zM0 200.627l17.656 96.824-8.847 13.164-8.809.183z"/><path fill="#c14a94" stroke="#c14a94" d="m0 19.893 23.895 22.009-13.791 12.305L0 61.347z"/><path fill="#a717a5" stroke="#a717a5" d="m124.256 124.745-16.826-25.26 26.796-34.122 4.31 3.299 19.622 28.902-19.129 32.096z"/><path fill="#c14a94" stroke="#c14a94" d="M359.835 244.44 382 246.753v62.545l-59.984-35.041zM255.893 230.368l11.37-16.908 49.454 1.635 3.822 14.519-25.502 22.143-25.263-2.949zM170.861 126.677l-4.747-24.158 57.392 7.741.11 7.646-1.282 3.004-37.003 21.397zM158.158 97.564l-19.621-28.902 26.949 1.73 32.63 4.907-33.2 25.951zM109.184 229.724l-14.382 18.088-28.346.29-48.834-48.819-6.68-9.085 75.776-3.968 6.425 2.602 21.413 15.675.003.045z"/><path fill="#a717a5" stroke="#a717a5" d="m32.917 76.375-31.19 24.302L0 100.86V61.348l10.104-7.141z"/><path fill="#c14a94" stroke="#c14a94" d="m291.454 93.151-8.1-5.855 34.064-52.398L382 25.711v75.704l-29.332 5.655zM269.024 206.858l48.406-6.812-.713 15.05-49.454-1.636zM252.437 292.944l17.337-44.136 25.263 2.949 12.736 26.406-5.291 39.73-.31-.007-48.528-12.278-2.899-3.332z"/><path fill="#a717a5" stroke="#a717a5" d="m109.184 229.724 75.312 31.697-.93 31.405-24.757 5.636-57.494-29.272-6.513-21.378z"/><path fill="#c14a94" stroke="#c14a94" d="m173.49 167.44-22.674 1.43-10.912-38.177 30.957-4.016 14.47 15.63zM198.115 75.299l-32.629-4.907 28.945-23.348 21.615 25.929z"/><path fill="#a717a5" stroke="#a717a5" d="m307.773 278.163 14.243-3.906L382 309.298v12.994l-62.081 7.553-17.437-11.952z"/><path fill="#c14a94" stroke="#c14a94" d="m155.889 382 32.993-72.934L230.24 382zM150.816 168.87l-20.932 13.822-11.597-23.677-.76-22.962 6.729-11.308 14.773 4.915.875 1.033z"/><path fill="#a717a5" stroke="#a717a5" d="m306.79 382 13.129-52.155L382 322.292V382zM276.298 116.08l-38.63-28.708 31.43-8.02 14.256 7.944 8.1 5.855zM27.307 323.38l62.382-6.947 23.27 25.119-31.5 24.532-42.906-13.275z"/><path fill="#c14a94" stroke="#c14a94" d="m117.527 136.053.76 22.962L94.9 145.831l-1.262-2.627z"/><path fill="#a717a5" stroke="#a717a5" d="m183.566 292.826 4.83 5.226.486 11.014L155.89 382h-10.7l-28.42-39.158 42.04-44.38z"/><path fill="#c14a94" stroke="#c14a94" d="m117.527 136.053-23.888 7.15-17.062-12.674 8.033-25.593 22.82-5.451 16.826 25.26z"/><path fill="#a717a5" stroke="#a717a5" d="m167.572 214.75 20.325 41.069-3.401 5.602-75.312-31.697 5.375-25.172z"/><path fill="#c14a94" stroke="#c14a94" d="m222.334 120.91 1.282-3.004 35.87 12.294 24.64 27.505-2.62 10.424-2.574 1.686-52.31-32.422zM276.298 116.08l15.156-22.929 61.214 13.919-53.226 33.42-23.16-24.273z"/><path fill="#a717a5" stroke="#a717a5" d="m382 246.753-22.165-2.313-39.296-14.826-3.822-14.519.713-15.049 1.151-8.515L382 154.091zM101.315 269.19l57.494 29.272-42.04 44.38-3.81-1.29-23.27-25.12z"/><path fill="#c14a94" stroke="#c14a94" d="m278.932 169.815 2.573-1.686 37.076 23.402-1.151 8.515-48.406 6.812 5-32.128z"/><path fill="#a717a5" stroke="#a717a5" d="m234.29 382 .51-1.262 51.81-44.741L269.265 382z"/><path fill="#c14a94" stroke="#c14a94" d="M189.022 184.057 173.49 167.44l11.84-25.132 37.003-21.397 4.288 16.483.72 41.06-13.533 16.263zM53.966 62.786 32.917 76.375 10.104 54.207l13.79-12.305 10.97.325zM222.198 224.471l33.695 5.897 13.881 18.44-17.337 44.136-39.908-57.131z"/><path fill="#a717a5" stroke="#a717a5" d="m187.897 255.819 24.632-20.006 39.908 57.13-1.692 9.333-62.349-4.224-4.83-5.226.93-31.405zM94.9 145.83l-1.757 43.002-6.425-2.602-21.932-45.902 11.791-9.8 17.062 12.676zM382 25.711l-64.582 9.187-33.251 2.52-26.175-16.716L252.236 0H382z"/><path fill="#c14a94" stroke="#c14a94" d="m167.572 214.75 21.45-30.693 24.787 10.659 8.39 29.755-9.67 11.342-24.632 20.006z"/><path fill="#a717a5" stroke="#a717a5" d="m283.354 87.296-14.257-7.944 15.07-41.933 33.25-2.52z"/><path fill="#c14a94" stroke="#c14a94" d="m284.127 157.705 15.315-17.216 53.226-33.419L382 101.415v52.676l-63.419 37.44-37.076-23.402z"/><path fill="#a717a5" stroke="#a717a5" d="m223.506 110.26 5.388-21.799 8.773-1.09 38.63 28.71-.015.136-16.796 13.983-35.87-12.294zM8.54 188.6 0 187.461V100.86l1.726-.183 30.191 11.083 19.098 31.667zM36.538 382l2.015-29.191 42.905 13.275L80.62 382zM227.343 178.454l-.721-41.061 52.31 32.422-4.908 4.915z"/><path fill="#c14a94" stroke="#c14a94" d="M84.61 104.936 69.74 92.373l-12.285-28.7 68.198-55.788 8.574 57.478-26.796 34.122z"/><path fill="#a717a5" stroke="#a717a5" d="m188.396 298.052 62.35 4.224 2.898 3.332-18.845 75.13-.51 1.262h-4.05l-41.357-72.934zM216.046 72.973l-21.615-25.929L160.899 0h33.606l37.88 49.6-10.409 25.986z"/><path fill="#c14a94" stroke="#c14a94" d="m129.884 182.692-15.328 21.815-21.413-15.675 1.758-43.001 23.386 13.184z"/><path fill="#a717a5" stroke="#a717a5" d="m31.917 111.76-30.19-11.083 31.19-24.302 21.05-13.589 3.487.887 12.285 28.7zM0 0h46.36L34.864 42.227l-10.97-.325L0 19.892z"/><path fill="#c14a94" stroke="#c14a94" d="M0 382v-71.202l8.809-.183 18.498 12.765 11.246 29.429L36.538 382z"/><path fill="#a717a5" stroke="#a717a5" d="m302.482 317.893 17.437 11.952L306.79 382h-37.526l17.347-46.003 15.56-18.11z"/><path fill="#a717a5" stroke="#a717a5" d="m253.644 305.608 48.528 12.278-15.561 18.11-51.812 44.742z"/><path fill="#c14a94" stroke="#c14a94" d="m64.786 140.328 21.932 45.902-75.775 3.968L8.54 188.6l42.474-45.172zM307.773 278.163l-12.736-26.406 25.502-22.143 39.296 14.826-37.82 29.817zM284.127 157.705l-24.64-27.505 16.795-13.983 23.16 24.272zM167.572 214.75l-53.013-10.198-.003-.045 15.328-21.815 20.932-13.823 22.675-1.43 15.53 16.618z"/><path fill="#a717a5" stroke="#a717a5" d="m64.786 140.328-13.771 3.099-19.098-31.667L69.74 92.373l14.871 12.563-8.033 25.593zM213.809 194.716l13.534-16.262 46.68-3.724-5 32.128-1.76 6.602-11.37 16.908-33.695-5.897z"/></svg></g></svg>