<svg xmlns="http://www.w3.org/2000/svg" viewBox="0 0 382 382"><defs><clipPath id="a"><path d="M382 382H0V0h382z"/></clipPath></defs><g clip-path="url(#a)"><svg xmlns="http://www.w3.org/2000/svg" width="382" height="382" style="shape-rendering:geometricPrecision"><path fill="#274978" stroke="#274978" d="m309.67 0-17.266 24.227-63.002 20.566-5.754-1.36-2.477-8.45L222.174 0zM137.121 368.458 140.516 382H64.534l-13.912-62.842 24.618-1.977 50.06 35.457zM307.096 382l-24.931-47.78 25.756-30.997 9.156-2.688L373.517 382zM155.877 217.523l-15.37-8.247-10.77-18.49 52.717-29.941 14.137 11.814z"/><path fill="#92971d" stroke="#92971d" d="m163.14 263.107 9.578 15.347 2.288 26.962-37.885 63.042-11.82-15.82 7.194-75.927 10.75-11.833zM71.267 48.804l-6.64-12.695-1.432-15.276 68.6.09.1.689-4.962 34.391-41.59 1.932z"/><path fill="#92971d" stroke="#92971d" d="m118.455 242.335 24.79 22.543-10.75 11.833-37.824 9.51 3-41.317 10.464-6.79zM0 305.148l1.621.213 39.28 11.94L44.155 382H0z"/><path fill="#274978" stroke="#274978" d="m243.3 253.985-34.927-27.139.829-48.48 35.367-10.653 38.914 3.764-5.565 63.26-16.196 13.143zM57.037 55.504l-6.777 28.86-7.521 2.342-12.222-27.2.251-.277z"/><path fill="#92971d" stroke="#92971d" d="m382 127.355-71.78-16.692 8.515-21.213L382 38.746zM243.237 321.39l34.695-38.504 15.79 5.061 14.199 15.276-25.756 30.997z"/><path fill="#274978" stroke="#274978" d="m161.768 133.564-7.148-11.312.975-31.43 64.162 10.918-41.617 50.153z"/><path fill="#92971d" stroke="#92971d" d="m132.23 0-.434 20.924-68.601-.09L52.415 0zM382 0v38.746L318.735 89.45l-28.873-30.265 2.542-34.958L309.67 0zM128.607 59.413l-1.674-3.41 4.961-34.391 89.277 13.371 2.477 8.45-.945 1.578-69.12 38.211zM87.969 291.042 75.24 317.181l-24.618 1.977L40.9 317.3 1.621 305.361l67.077-45.183 11.082 16.086z"/><path fill="#274978" stroke="#274978" d="m266.78 98.14-6.386-31.692 29.468-7.263 28.873 30.265-8.514 21.213-8.865 11.073z"/><path fill="#92971d" stroke="#92971d" d="m108.135 238.114-10.465 6.79-2.2.36-24.773 2.27-48.453-52.822 71.783-.917zM289.862 59.185l-29.468 7.263-30.992-21.655 63.002-20.566z"/><path fill="#92971d" stroke="#92971d" d="m95.47 245.264-15.69 31-11.082-16.086 2-12.645zM104.967 185.689l-10.94 8.106-71.783.917L0 188.27v-7.045l34.836-40.37 49.162-16.77 18.525 12.233 2.985 45.385zM68.257 82.469 50.26 84.363l6.777-28.859 14.23-6.7 14.075 9.131z"/><path fill="#274978" stroke="#274978" d="m223.938 100.247-1.235-55.236.945-1.579 5.754 1.36 30.992 21.656 6.386 31.692-37.139 6.357z"/><path fill="#92971d" stroke="#92971d" d="m277.932 282.886-16.21-35.006 16.196-13.142 19.715 11.724-3.911 41.485zM155.877 217.523l10.985 39.28-3.723 6.304-19.894 1.77-24.79-22.542 22.052-33.06z"/><path fill="#274978" stroke="#274978" d="m140.507 209.276-22.052 33.06-10.32-4.222-14.108-44.319 10.94-8.106 24.77 5.096z"/><path fill="#92971d" stroke="#92971d" d="m83.998 124.085-49.162 16.768 1.354-41.308 6.549-12.839 7.52-2.343 17.998-1.894 16.957 34.622zM22 0l13.532 42.045-4.764 17.184-.251.277L0 59.352V0z"/><path fill="#274978" stroke="#274978" d="m222.174 0-1.003 34.983-89.277-13.371-.098-.688L132.23 0z"/><path fill="#92971d" stroke="#92971d" d="m180.442 247.908 27.931-21.062 34.926 27.139-9.619 25.908z"/><path fill="#274978" stroke="#274978" d="m71.267 48.804-14.23 6.7-26.269 3.725 4.764-17.184 29.094-5.936zM382 382h-8.484l-56.439-81.465.166-.17 64.757-18.8zM182.454 160.845l-52.716 29.94-24.771-5.096.54-3.987 56.26-48.138 16.373 18.33zM97.67 244.904l-2.999 41.317-6.702 4.821-8.19-14.778 15.69-31zM205.935 382l26.834-53.81 8.221-6.994 2.247.194 38.928 12.83L307.096 382z"/><path fill="#92971d" stroke="#92971d" d="m302.478 247.647 11.154-2.926 36.733 11.398-32.333 18.201zM36.19 99.545 0 78.725V59.353l30.517.154 12.222 27.2z"/><path fill="#92971d" stroke="#92971d" d="m318.032 274.32 32.333-18.2 31.635-.184v25.63l-64.757 18.799z"/><path fill="#274978" stroke="#274978" d="m293.722 287.947 3.91-41.485 4.846 1.185 15.554 26.673-.79 26.045-.165.17-9.156 2.688z"/><path fill="#92971d" stroke="#92971d" d="m0 78.726 36.19 20.82-1.354 41.307L0 181.224z"/><path fill="#274978" stroke="#274978" d="M50.622 319.158 64.534 382H44.156L40.9 317.3z"/><path fill="#92971d" stroke="#92971d" d="m155.877 217.523 40.714-44.864 12.61 5.707-.828 48.48-27.931 21.062-13.58 8.896zM172.718 278.454l59.353 6.879 8.92 35.863-8.222 6.994-57.763-22.774zM301.356 121.736l8.865-11.073L382 127.355v64.412l-25.4-4.028-62.027-22.804z"/><path fill="#274978" stroke="#274978" d="m180.442 247.908 53.238 31.985-1.61 5.44-59.352-6.879-9.579-15.347 3.723-6.303z"/><path fill="#92971d" stroke="#92971d" d="m244.569 167.713-14.928-63.216 37.139-6.357 34.576 23.596-6.783 43.2-11.09 6.541z"/><path fill="#92971d" stroke="#92971d" d="m182.454 160.845-4.314-8.952 41.617-50.153 4.18-1.493 5.704 4.25 14.928 63.216-35.367 10.653-12.611-5.707z"/><path fill="#274978" stroke="#274978" d="M128.607 59.413 85.214 117.09 68.257 82.469l17.085-24.534 41.59-1.932z"/><path fill="#92971d" stroke="#92971d" d="M219.757 101.74 155.595 90.82l-2.012-7.599 69.12-38.21 1.235 55.235z"/><path fill="#274978" stroke="#274978" d="M313.632 244.72 356.6 187.74l25.4 4.028v64.169l-31.635.183z"/><path fill="#92971d" stroke="#92971d" d="m102.523 136.317-18.525-12.232 1.216-6.994 43.393-57.678 24.976 23.81 2.012 7.598-.975 31.431zM52.415 0l10.78 20.833 1.431 15.276-29.094 5.936L22 0z"/><path fill="#274978" stroke="#274978" d="m175.006 305.416 57.763 22.774L205.935 382h-65.42l-3.394-13.542zM161.768 133.564l-56.26 48.138-2.985-45.385 52.097-14.065zM243.3 253.985l18.422-6.105 16.21 35.006-34.695 38.504-2.247-.194-8.92-35.863 1.61-5.44z"/><path fill="#92971d" stroke="#92971d" d="m283.483 171.477 11.09-6.542L356.6 187.74l-42.968 56.982-11.154 2.926-4.845-1.185-19.715-11.724zM94.671 286.22l37.824-9.51-7.194 75.928L75.24 317.18l12.729-26.139zM68.698 260.178 1.621 305.36 0 305.148V188.269l22.244 6.443 48.453 52.821z"/></svg></g></svg>