<svg xmlns="http://www.w3.org/2000/svg" viewBox="0 0 382 382"><defs><clipPath id="a"><path d="M382 382H0V0h382z"/></clipPath></defs><g clip-path="url(#a)"><svg xmlns="http://www.w3.org/2000/svg" width="382" height="382" style="shape-rendering:geometricPrecision"><path fill="#56ba03" stroke="#56ba03" d="m309.678 114.843 9.517-4.853 59.935-1.86 2.87.817v66.602l-51.493 13.035-13.635-13.522z"/><path fill="#023671" stroke="#023671" d="m382 312.184-19.89-2.202-10.273-6.647-13.581-57.786L382 236.005zM206.05 137.47l27.9 10.213 13.918 33.805-55.674 17.269z"/><path fill="#56ba03" stroke="#56ba03" d="m233.95 147.683 35.915-30.827.555 59.994-14.684 7.837-7.868-3.2z"/><path fill="#023671" stroke="#023671" d="m294.139 328.32 22.793 35.937L312.376 382h-11.07l-19.878-22.515z"/><path fill="#56ba03" stroke="#56ba03" d="m161.88 157.436 3.173 34.93-55.475 14.172-7.341-5.507-3.932-49.467 10.665-28.949 7.928-2.417zM183.051 101.949l-38.649-1.344-8.08-56.885 56.002 17.802 3.55 9.532z"/><path fill="#023671" stroke="#023671" d="m351.837 303.335 10.273 6.647-13.32 23.527-31.858 30.748-22.793-35.936-2.67-22.134zM206.05 137.47l-13.856 61.287-1.3 1.266-25.841-7.657-3.172-34.93 34.987-34.49z"/><path fill="#56ba03" stroke="#56ba03" d="m131.35 382-10.819-34.765 54.925-19.812 38.853 8.537-1.755 16.732L200.678 382zM190.894 200.023l.507 1.823-59.555 70.312-6.647.12-15.621-65.74 55.475-14.172z"/><path fill="#56ba03" stroke="#56ba03" d="m109.578 206.538 15.621 65.74-30.051 41.887-28.27.287-11.496-.77-8.464-79.087 4.303-10.915 25.547-16.807 25.469-5.842z"/><path fill="#023671" stroke="#023671" d="M330.507 188.584 382 175.55v60.456l-43.744 9.544-10.154-10.892-6.88-9.245zM382 108.947l-2.87-.816-48.36-79.886L325.814 0H382z"/><path fill="#56ba03" stroke="#56ba03" d="m319.195 109.99 11.575-81.745 48.36 79.886zM289.61 0l-51.036 33.836-43.207-13.939L183.868 0zM86.383 0 75.91 34.27 49.988 57.453 0 97.048V0z"/><path fill="#023671" stroke="#023671" d="M0 382v-48.384l55.382-19.933 11.496.77L71.883 382zM98.305 151.564l3.932 49.467-25.469 5.842-67.779-60.51z"/><path fill="#56ba03" stroke="#56ba03" d="M192.324 61.522 136.322 43.72 113.63 0h70.238l11.5 19.897z"/><path fill="#023671" stroke="#023671" d="m191.401 201.846 4.738 11.31-10.225 37.192-44.626 22.639-9.442-.83z"/><path fill="#023671" stroke="#023671" d="m192.194 198.757 55.674-17.27 7.868 3.2 7.289 48.005-31.206 4.214-35.68-23.75-4.738-11.31-.507-1.823zM231.81 310.595l13.852-1.643 20.986 49.924-5.91 7.888-43.45-12.303-4.734-1.769 1.755-16.732 17.442-25.32z"/><path fill="#56ba03" stroke="#56ba03" d="m75.911 34.27 20.36 76.013-30.757-1.572-15.526-51.258z"/><path fill="#023671" stroke="#023671" d="m206.05 137.47-9.182-14.523-.92-4.978 58.5-20.495 16.39 17.58-.973 1.802-35.915 30.827z"/><path fill="#56ba03" stroke="#56ba03" d="m288.674 304.787 39.428-70.13 10.154 10.892 13.58 57.786-60.368 2.852zM312.376 382l4.556-17.743 31.858-30.748 1.262 33.92L317.267 382zM0 143.011l8.99 3.352 67.778 60.51-25.547 16.807L0 194.36z"/><path fill="#023671" stroke="#023671" d="m108.97 122.615-10.665 28.949-89.316-5.201L0 143.01v-32.3l65.514-2 30.758 1.572z"/><path fill="#56ba03" stroke="#56ba03" d="m196.14 213.157 35.679 23.749-14.792 34.23-16.182-7.183-14.93-13.605z"/><path fill="#56ba03" stroke="#56ba03" d="m141.288 272.987 44.626-22.639 14.931 13.605-23.736 25.846-9.115-.78z"/><path fill="#023671" stroke="#023671" d="m317.267 382 32.785-14.57L361.49 382zM232.526 65.295l6.048-31.459L289.61 0h12.123L285.33 49.631l-33.007 34.146zM281.428 359.485 301.306 382h-41.512l.945-15.236 5.91-7.888zM288.674 304.787l2.794 1.4 2.67 22.134-12.71 31.164-14.78-.61-20.986-49.923 25.647-10.833z"/><path fill="#56ba03" stroke="#56ba03" d="m270.42 176.85-.555-59.994.974-1.802 38.48-.319.36.108 7.193 60.22zM232.526 65.295l-36.652 5.76-3.55-9.533 3.043-41.625 43.207 13.94z"/><path fill="#56ba03" stroke="#56ba03" d="m254.447 97.474-2.123-13.697 33.007-34.146 23.988 65.104-38.48.319zM167.994 289.018l9.115.781 54.642 20.841-17.442 25.32-38.853-8.537z"/><path fill="#023671" stroke="#023671" d="m141.288 272.987 26.706 16.031 7.462 38.405-54.925 19.812-25.383-33.07 30.051-41.886 6.647-.121zM217.288 354.46l40.45 27.54h-57.06l11.876-29.308z"/><path fill="#023671" stroke="#023671" d="M120.531 347.235 131.351 382H71.882l-5.005-67.548 28.27-.287z"/><path fill="#56ba03" stroke="#56ba03" d="M309.32 114.735 285.33 49.631 301.733 0h24.08l4.957 28.245-11.575 81.745-9.517 4.853zM382 382h-20.51l-11.438-14.57-1.262-33.921 13.32-23.527 19.89 2.202zM0 97.048l49.988-39.595 15.526 51.258-65.514 2z"/><path fill="#023671" stroke="#023671" d="m263.025 232.692 11.096 8.338-2.812 57.09-25.647 10.832-13.851 1.643-14.784-39.46 14.792-34.23z"/><path fill="#56ba03" stroke="#56ba03" d="m195.948 117.97-12.897-16.021 12.823-30.895 36.652-5.76 19.798 18.483 2.123 13.697z"/><path fill="#023671" stroke="#023671" d="m288.674 304.787-17.365-6.668 2.812-57.09 47.102-15.617 6.879 9.245zM196.868 122.947l-34.987 34.49-44.983-37.239 27.504-19.593 38.65 1.344 12.896 16.02zM257.739 382l-40.451-27.54 43.45 12.304-.944 15.236z"/><path fill="#56ba03" stroke="#56ba03" d="m0 194.36 51.221 29.32-4.303 10.915L0 246.515zM270.42 176.85l46.452-1.788 13.635 13.522-9.284 36.828-47.102 15.618-11.096-8.338-7.289-48.005z"/><path fill="#023671" stroke="#023671" d="m116.898 120.198-7.928 2.417-12.698-12.332-20.36-76.013L86.381 0h27.248l22.692 43.72 8.08 56.885z"/><path fill="#56ba03" stroke="#56ba03" d="m217.027 271.136 14.784 39.46-.06.044-54.642-20.84 23.736-25.847z"/><path fill="#023671" stroke="#023671" d="m0 246.515 46.918-11.92 8.464 79.088L0 333.616z"/></svg></g></svg>