<svg xmlns="http://www.w3.org/2000/svg" viewBox="0 0 382 382"><defs><clipPath id="a"><path d="M382 382H0V0h382z"/></clipPath></defs><g clip-path="url(#a)"><svg xmlns="http://www.w3.org/2000/svg" width="382" height="382" style="shape-rendering:geometricPrecision"><path fill="#2ec9e2" stroke="#2ec9e2" d="m0 247.547 93.817 15.674-8.772 11.334L0 306.847zM309.188 100.48l-5.262 7.503-17.585-36.6 13.076-15.387 16.798 11.318zM223.262 219.25l70.565-28.274 10.757 7.03 7.788 41.458.151 1.035-53.679 16.055-35.594-37.15z"/><path fill="#2ec9e2" stroke="#2ec9e2" d="m0 172.558 1.296.337 78.462 50.901L103.16 255.8l-9.342 7.422L0 247.547zM181.748 88.118 168.472 61.67l10.685-18.27 4.681-1.846 60.43 16.356z"/><path fill="#8d369b" stroke="#8d369b" d="m258.844 256.554 53.679-16.055 16.662 16.202L382 317.036V382h-29.887l-88.591-62.652-6.797-37.484zM235.72 111.41l15.842-38.095.46.056 51.166 38.18-.358 10.508-26.76 18.894-16.854-3.722z"/><path fill="#2ec9e2" stroke="#2ec9e2" d="m382 51.231-85.35-18.637L275.285 0H382z"/><path fill="#8d369b" stroke="#8d369b" d="m160.241 161.031-47.784 94.863-9.298-.095-23.4-32.003 15.45-62.686 36.84-14.004 27.823 12.826z"/><path fill="#2ec9e2" stroke="#2ec9e2" d="m159.872 159.932-27.823-12.826-17.558-30.504 16.188-53.015 37.793-1.918 13.276 26.45 8.492 21.828zM169.65 274.637l4.835-3.712 82.24 10.94 6.797 37.483-47.167 2.957-6.653-2.152-29.485-23.39z"/><path fill="#8d369b" stroke="#8d369b" d="m174.485 270.925 48.765-51.521 35.594 37.15-2.12 25.31zM160.164 337.217l20.053-40.454 29.485 23.39-32.055 50.945zM299.417 55.996l-2.766-23.402L382 51.23v5.225l-65.785 10.858z"/><path fill="#2ec9e2" stroke="#2ec9e2" d="m382 62.303-72.812 38.177 7.027-33.166L382 56.456z"/><path fill="#8d369b" stroke="#8d369b" d="m244.268 57.909-60.43-16.356L225.892 0h43.162l-22.07 58.277zM276.07 140.953l26.76-18.894 24.364 6.78 14.117 51.043-36.727 18.124-10.757-7.03z"/><path fill="#2ec9e2" stroke="#2ec9e2" d="m312.372 239.464 42.077-33.507-25.264 50.744-16.662-16.202zM132.05 147.106 95.21 161.11l-22.639-7.76.443-3.59 21.758-33.566 12.619-.977 7.1 1.385z"/><path fill="#8d369b" stroke="#8d369b" d="m130.68 63.587-38.29-24.85L81.339 0h78.656l19.163 43.4-10.685 18.269z"/><path fill="#2ec9e2" stroke="#2ec9e2" d="M309.188 100.48 382 62.303v47.912l-54.806 18.623-24.364-6.779.358-10.508.738-3.568zM114.49 116.602l-7.1-1.385-35.609-47.742 20.61-28.739 38.288 24.851z"/><path fill="#8d369b" stroke="#8d369b" d="m382 182.834-11.877.263-28.812-3.215-14.117-51.044L382 110.215zM95.21 161.11l-15.452 62.686-78.462-50.901 71.275-19.545zM211.128 193.002l48.088-55.77 16.855 3.721 17.756 50.023-70.565 28.273zM251.562 73.315l-4.578-15.038L269.054 0h6.23l21.367 32.594 2.766 23.402-13.076 15.386-34.318 1.99zM169.65 274.637l10.567 22.126-20.053 40.454-26.443 7.96-8.288-.821-4.212-83z"/><path fill="#2ec9e2" stroke="#2ec9e2" d="m160.164 337.217 17.483 33.881-.04 10.902h-15.855l-28.03-36.823zM0 382v-75.153l85.045-32.292L65.505 382z"/><path fill="#8d369b" stroke="#8d369b" d="m94.772 116.194-.825-.139L57.17 80.31l14.612-12.835 35.61 47.742z"/><path fill="#2ec9e2" stroke="#2ec9e2" d="m225.892 0-42.054 41.553-4.68 1.847L159.993 0zM286.341 71.382l17.585 36.601-.738 3.568-51.165-38.18zM235.72 111.41l-45.48-1.463-8.492-21.829 62.52-30.21 2.716.369 4.578 15.038zM209.702 320.153l6.653 2.152-.947 59.695h-37.8l.039-10.902zM160.241 161.031l50.887 31.97 12.134 26.248-.012.155-48.765 51.52-4.836 3.713-48.428-13.281-8.764-5.462z"/><path fill="#8d369b" stroke="#8d369b" d="m81.203 382 44.23-37.644 8.288.821L161.751 382zM94.772 116.194l-21.758 33.565-3.581-29.237 24.514-4.467z"/><path fill="#8d369b" stroke="#8d369b" d="m121.22 261.356 4.213 83L81.203 382H65.506l19.539-107.445 8.772-11.334 9.342-7.422 9.298.095zM72.571 153.35 1.296 172.895 0 172.558v-69.3l27.306-6.16 42.127 23.424 3.58 29.237zM160.241 161.031l-.37-1.1 30.369-49.984 45.48 1.463 23.496 25.821-48.088 55.77z"/><path fill="#2ec9e2" stroke="#2ec9e2" d="m93.947 116.055-24.514 4.467-42.127-23.425L57.169 80.31z"/><path fill="#8d369b" stroke="#8d369b" d="m304.584 198.006 36.727-18.124 28.812 3.215-15.674 22.86-42.077 33.507z"/><path fill="#2ec9e2" stroke="#2ec9e2" d="m382 317.036-52.815-60.335 25.264-50.744 15.674-22.86 11.877-.263zM81.338 0 92.39 38.736 71.78 67.475 57.17 80.31 27.306 97.097 0 103.258V0zM215.408 382l.947-59.695 47.167-2.957L352.112 382z"/></svg></g></svg>