<svg xmlns="http://www.w3.org/2000/svg" viewBox="0 0 382 382"><defs><clipPath id="a"><path d="M382 382H0V0h382z"/></clipPath></defs><g clip-path="url(#a)"><svg xmlns="http://www.w3.org/2000/svg" width="382" height="382" style="shape-rendering:geometricPrecision"><path fill="#e2b62e" stroke="#e2b62e" d="M382 382h-33.006l-17.135-19.39-29.42-52.557 76.591-56.119 2.97.507zM286.527 0l-1.4 13.03-5.424 19.828-35.243 33.266L208.288 0z"/><path fill="#bd74a1" stroke="#bd74a1" d="m115.91 239.33 25.126 75.203-14.65 11.571-70.549-65.676-2.784-9.56z"/><path fill="#e2b62e" stroke="#e2b62e" d="m98.795 169.664 46.57 43.2-29.456 26.465-62.856 11.538L0 191.461v-5.554l63.877-37.019z"/><path fill="#bd74a1" stroke="#bd74a1" d="m382 254.44-2.97-.506-46.327-40.267 43.617-55.446 5.68-2.343zM200.588 164.76l14.958-40.302 16.109-29.125.554-.436 38.069 40.28-30.07 94.45-9.54 5.976-16.391-16.13zM308.506 164.337l34.123-15.39 33.691 9.274-43.617 55.446-37.269-5.395z"/><path fill="#e2b62e" stroke="#e2b62e" d="M63.877 148.888 0 185.908V65.851l102.853-31.95-10.685 64.274z"/><path fill="#bd74a1" stroke="#bd74a1" d="M159.096 131.57 92.168 98.175 102.853 33.9l.277-.618 65.913 47.584 3.178 25.012zM232.209 94.897l.864-1.503 77.478 7.964 1.762 5.781-12.696 24.143-29.34 3.894z"/><path fill="#bd74a1" stroke="#bd74a1" d="m108.26 0-5.13 33.283-.277.618L0 65.851V0zM214.277 219.473l16.39 16.13-.291 33.378-6.705 9.072-82.635 36.48-25.127-75.204 29.456-26.465z"/><path fill="#e2b62e" stroke="#e2b62e" d="m23.942 382 15.69-75.6 72.886 57.35-3.777 18.25zM176.178 150.015l-17.082-18.446 13.125-25.69 43.325 18.58-14.958 40.302z"/><path fill="#bd74a1" stroke="#bd74a1" d="m231.655 95.333-62.612-14.466-65.913-47.584L108.26 0h41.763l85.413 78.614-2.363 14.78-.864 1.503z"/><path fill="#e2b62e" stroke="#e2b62e" d="m369.798 0-19.053 66.995-2.831-.28-4.547-8.84L340.663 0z"/><path fill="#bd74a1" stroke="#bd74a1" d="m310.55 101.358 3.716-16.249 33.648-18.394 2.83.28L382 78.457v32.177l-56.059 2.872-13.628-6.367zM250.815 382l4.913-12.664 76.131-6.727L348.994 382z"/><path fill="#bd74a1" stroke="#bd74a1" d="m235.436 78.614 9.024-12.49 35.243-33.266 34.563 52.251-3.715 16.249-77.478-7.964z"/><path fill="#e2b62e" stroke="#e2b62e" d="m0 311.034 39.269-6.574.364 1.94L23.942 382H0zM230.376 268.98l72.063 41.073 29.42 52.556-76.131 6.727-31.908-82.591-.15-8.692z"/><path fill="#bd74a1" stroke="#bd74a1" d="m342.629 148.947-16.688-35.44L382 110.633v45.244l-5.68 2.343z"/><path fill="#e2b62e" stroke="#e2b62e" d="m240.208 229.628 55.226-21.356 37.269 5.395 46.327 40.267-76.591 56.119-72.063-41.072.292-33.378z"/><path fill="#bd74a1" stroke="#bd74a1" d="m279.703 32.858 5.423-19.828 58.24 44.846 4.548 8.84-33.648 18.393zM340.663 0l2.704 57.876-58.24-44.846 1.4-13.03zM0 191.461l53.053 59.406 2.784 9.561L39.27 304.46 0 311.034zM240.208 229.628l30.07-94.452 29.34-3.894 8.888 33.055-13.072 43.935zM141.036 314.533l82.635-36.48.149 8.692L204.247 382H108.74l3.777-18.25 13.869-37.646z"/><path fill="#e2b62e" stroke="#e2b62e" d="m55.837 260.428 70.55 65.676-13.869 37.646-72.885-57.35-.364-1.94zM176.178 150.015l24.41 14.746 13.689 54.712-68.912-6.609-46.57-43.2z"/><path fill="#bd74a1" stroke="#bd74a1" d="m204.247 382 19.573-95.255 31.908 82.591L250.815 382zM172.22 105.88l-3.177-25.013 62.612 14.466-16.109 29.125zM382 0v78.457l-31.255-11.462L369.798 0zM299.617 131.282l12.696-24.143 13.628 6.367 16.688 35.441-34.123 15.39zM176.178 150.015l-77.383 19.65-34.918-20.777 28.29-50.712 66.929 33.393zM235.436 78.614 150.023 0h58.265l36.172 66.124z"/></svg></g></svg>