<svg xmlns="http://www.w3.org/2000/svg" viewBox="0 0 382 382"><defs><clipPath id="a"><path d="M382 382H0V0h382z"/></clipPath></defs><g clip-path="url(#a)"><svg xmlns="http://www.w3.org/2000/svg" width="382" height="382" style="shape-rendering:geometricPrecision"><path fill="#1f4d65" stroke="#1f4d65" d="m185.027 225.285-1.523 34.898-33.8 16.738-26.155-.43 2.059-8.268 45.62-40.639z"/><path fill="#e7a66f" stroke="#e7a66f" d="M38.405 92.16 0 68.198V27.585l68.155 33.5L63.63 74.62zM297.037 145.514l-31.152-39.08 39.196-22.082zM221.606 321.305l76.568-8.288L275.82 382h-74.529l-1.535-31.52 15.219-23.478z"/><path fill="#e7a66f" stroke="#e7a66f" d="m275.82 382 22.354-68.983 10.485-5.689 21.154 11.28L339.585 382z"/><path fill="#1f4d65" stroke="#1f4d65" d="M382 382h-42.415l-9.772-63.393L382 315.446z"/><path fill="#1f4d65" stroke="#1f4d65" d="m316.187 263.372 27.848-20.872L382 244.977v70.469l-52.187 3.161-21.154-11.279-1.752-22.375zM305.658 0l-4.363 11.932-47.118 9.665L236.302 0zM137.2 73.15 85.203 38.086 77.952 0h40.026l19.234 20.605.398 51.567z"/><path fill="#e7a66f" stroke="#e7a66f" d="M382 0v86.868l-65.765-16.066-18.948-19.594 4.008-39.276L305.658 0z"/><path fill="#1f4d65" stroke="#1f4d65" d="m186.083 224.043-35.232-47.29 62.224-8.287 3.333 5.922 6.348 19.128-3.81 12.786-13.343 9.984z"/><path fill="#e7a66f" stroke="#e7a66f" d="m257.38 53.424-44.697-43.385L208.192 0h28.11l17.875 21.597z"/><path fill="#1f4d65" stroke="#1f4d65" d="m252.903 142.4-39.2 11.947-8.35-30.354 6.398-23.212 4.632-3.506 16.077-9.57 20.33 13.973zM247.764 243.495l-28.817-37.193 3.81-12.786 36.992-.286 8.8.916 4.688 15.052-11.94 37.578z"/><path fill="#e7a66f" stroke="#e7a66f" d="m186.083 224.043 19.52-7.757 10.623 56.375-2.913 5.217-29.81-17.695 1.524-34.898zM216.383 97.275l-26.768-48.196.201-12.514 41.549 39.598 3.025 5.988-1.93 5.555z"/><path fill="#1f4d65" stroke="#1f4d65" d="m186.083 224.043-1.056 1.242-13.799 2.3-30.775-11.872 7.811-39.69 2.587.73z"/><path fill="#e7a66f" stroke="#e7a66f" d="m91.395 113.77-11.811 62.095-.923.52-38.151-38.128 2.822-18.01zM77.952 0l7.252 38.086-17.049 22.999L0 27.585V0z"/><path fill="#1f4d65" stroke="#1f4d65" d="m194.457 0-4.033 6.101-53.212 14.504L117.978 0z"/><path fill="#e7a66f" stroke="#e7a66f" d="m84.21 314.414 6.205 28.833-26.335 22.13-28.626-32.647z"/><path fill="#1f4d65" stroke="#1f4d65" d="M0 382v-51.498l35.454 2.228 28.626 32.646L58.847 382z"/><path fill="#e7a66f" stroke="#e7a66f" d="M134.352 357.06 132.14 382h-29.118l-3.645-31.254 13.72-.462z"/><path fill="#1f4d65" stroke="#1f4d65" d="M211.751 100.781 172.01 82.763l17.605-33.684 26.768 48.196z"/><path fill="#e7a66f" stroke="#e7a66f" d="m125.608 268.223-2.059 8.268-4.002 3.318-24.696 4.17-15.835-11.177L57.32 225l20.095-39.592L126 229.768zM213.075 168.466l.628-14.12 39.2-11.945 20.348 8.38-14.504 10.018-42.339 13.59z"/><path fill="#1f4d65" stroke="#1f4d65" d="m132.14 382 2.212-24.94 27.163-16.564 38.241 9.983L201.291 382zM91.395 113.77l-48.063 6.478-.012-.34 50.513-24.743 8.801 3.416z"/><path fill="#e7a66f" stroke="#e7a66f" d="m119.547 279.809 18.25 34.062-24.7 36.413-13.72.462-8.962-7.499-6.205-28.833 10.64-30.435zM149.703 276.921l65.272 50.081-15.219 23.477-38.241-9.983-23.718-26.625-18.25-34.062 4.002-3.318zM382 244.977l-37.965-2.477 7.338-23.115L382 200.75z"/><path fill="#1f4d65" stroke="#1f4d65" d="m148.264 176.024-17.123-16.473 6.986-20.89 67.226-14.668 8.35 30.354-.628 14.119-62.224 8.286z"/><path fill="#e7a66f" stroke="#e7a66f" d="m205.353 123.993-67.226 14.668-10.145-44.687 9.529-19.302 34.499 8.09 39.741 18.02zM216.226 272.66l31.538-29.165 13.533 3.281 45.61 38.177 1.752 22.375-10.485 5.689-76.568 8.288-8.293-43.427z"/><path fill="#1f4d65" stroke="#1f4d65" d="m102.634 98.581-8.801-3.416L63.63 74.62l4.525-13.535 17.049-23 51.995 35.065.312 1.522-9.529 19.302z"/><path fill="#e7a66f" stroke="#e7a66f" d="m131.141 159.551-51.557 16.314 11.811-62.095 11.24-15.189 25.347-4.607 10.145 44.687zM93.833 95.165 43.32 119.907 38.405 92.16 63.63 74.62z"/><path fill="#1f4d65" stroke="#1f4d65" d="m297.037 145.514 8.044-61.162 11.154-13.55L382 86.868v44.75l-63.947 29.903-7.12-1.487-11.764-9.793zM231.365 76.163 212.683 10.04l44.698 43.385 1.348 4.688-24.34 24.039z"/><path fill="#1f4d65" stroke="#1f4d65" d="m252.79 101.678-20.33-13.972 1.93-5.555 24.339-24.04 38.558-6.903 18.948 19.594-11.154 13.55-39.196 22.082z"/><path fill="#e7a66f" stroke="#e7a66f" d="m205.603 216.286 13.344-9.984 28.817 37.193-31.538 29.166zM185.387 24.233l-47.777 47.94-.398-51.568L190.424 6.1z"/><path fill="#e7a66f" stroke="#e7a66f" d="m172.01 82.763-34.499-8.091-.312-1.522.41-.978 47.778-47.939 4.43 12.332-.202 12.514zM0 68.198 38.405 92.16l4.915 27.747.012.34-2.822 18.01L0 147.81z"/><path fill="#1f4d65" stroke="#1f4d65" d="m308.501 225.843 10.833-51.702 32.039 45.244-7.338 23.115-27.848 20.872z"/><path fill="#1f4d65" stroke="#1f4d65" d="m261.297 246.776 11.94-37.578 35.264 16.645 7.686 37.53-9.28 21.58z"/><path fill="#e7a66f" stroke="#e7a66f" d="M77.415 185.408 57.32 225 0 230.4v-41.997l78.274-10.638z"/><path fill="#e7a66f" stroke="#e7a66f" d="M0 230.399 57.32 225l21.696 47.802L0 296.474z"/><path fill="#1f4d65" stroke="#1f4d65" d="m252.903 142.4-.112-40.722 13.094 4.756 31.152 39.08 2.132 4.727-25.918.54zM382 200.749l-30.627 18.636-32.039-45.244-1.28-12.62L382 131.619zM58.847 382l5.233-16.624 26.335-22.129 8.962 7.5L103.022 382z"/><path fill="#e7a66f" stroke="#e7a66f" d="m171.228 227.584-45.62 40.64.392-38.457 14.453-14.054z"/><path fill="#1f4d65" stroke="#1f4d65" d="m149.703 276.921 33.8-16.738 29.81 17.695 8.293 43.427-6.631 5.697zM222.756 193.516l-6.348-19.128 42.339-13.589 1.002 32.43zM148.264 176.024l-7.81 39.689L126 229.767l-48.585-44.36.859-7.643.387-1.38.923-.52 51.557-16.313z"/><path fill="#e7a66f" stroke="#e7a66f" d="m257.38 53.424-3.203-31.827 47.118-9.665-4.008 39.276-38.558 6.904z"/><path fill="#1f4d65" stroke="#1f4d65" d="m231.365 76.163-41.549-39.598-4.43-12.332 5.038-18.132L194.457 0h13.735l4.491 10.039zM259.749 193.23l-1.002-32.43 14.504-10.019 25.918-.54 11.764 9.793-42.384 34.112zM137.797 313.871l23.718 26.625-27.163 16.564-21.255-6.776zM78.274 177.764 0 188.402V147.81l40.51-9.553 38.15 38.128z"/><path fill="#e7a66f" stroke="#e7a66f" d="m94.85 283.98-10.64 30.434-48.756 18.316L0 330.502v-34.028l79.016-23.672z"/><path fill="#1f4d65" stroke="#1f4d65" d="m268.55 194.146 42.383-34.112 7.12 1.487 1.281 12.62-10.833 51.702-35.264-16.645z"/></svg></g></svg>