<svg xmlns="http://www.w3.org/2000/svg" viewBox="0 0 382 382"><defs><clipPath id="a"><path d="M382 382H0V0h382z"/></clipPath></defs><g clip-path="url(#a)"><svg xmlns="http://www.w3.org/2000/svg" width="382" height="382" style="shape-rendering:geometricPrecision"><path fill="#451092" stroke="#451092" d="m0 236.559 54.666-3.585L54 295.473l-12.987-.808L0 244.18zM92.53 225.129l-2.502.894-19.666-46.914 21.272 1.201 12.197 28.27z"/><path fill="#4c960d" stroke="#4c960d" d="m61.61 116.744-.065-.029-21.583-28.75-3.508-11.82 4.46-28.352 16.783-16.19 31.42 75.303-12.369 9.617zM285.493 244.565l31.752-43.974 26.488 4.447 4.362 16.536-9.355 41.001-4.774 11.4z"/><path fill="#451092" stroke="#451092" d="m363.523 0-4.969 5.536-28.47 18.737-54.039 20.02-18.82-17.453L250.934 0zM61.61 116.744l-7.603 48.918-10.7-.179-8.12-35.131 26.358-13.637zM187.411 230.373l-11.599-14.024 5.195-40.194 47.138-21.122.013.016 4.685 29.088z"/><path fill="#4c960d" stroke="#4c960d" d="M1.772 132.905 0 132.522V93.664l36.454-17.519 3.508 11.82-35.245 43.753z"/><path fill="#451092" stroke="#451092" d="m229.175 382 .78-15.762 62.03-36.473 2.9 2.048.563 7.082-1.433 7.893L270.973 382zM382 382h-48.782l-5.783-14.26-3.443-41.463 10.37-6.55L382 375.929zM166.33 292.53 161.198 382h-38.784l-29.903-57.976 1.482-5.61 66.354-27.743z"/><path fill="#4c960d" stroke="#4c960d" d="m318.92 89.092 11.164-64.819 28.47-18.737-12.093 98.03zM70.362 179.11l19.666 46.913-7.77 3.903-18.27-.586-7.818-26.204.187-34.28z"/><path fill="#451092" stroke="#451092" d="m0 244.18 41.014 50.485-13.278 10.76L0 294.093z"/><path fill="#4c960d" stroke="#4c960d" d="m292.062 300.22-4.925-10.167-8.425-44.275 6.781-1.213 48.473 29.41 1.11 2.863z"/><path fill="#4c960d" stroke="#4c960d" d="m292.062 300.22 43.014-23.382 9.898 11.225-10.612 31.664-10.37 6.55-29.107 5.536-2.9-2.048-7.435-13.135z"/><path fill="#451092" stroke="#451092" d="m192.554 256.812 62.074.661-10.29 28.81-7.313 15.81-17.948 11.97-52.545-21.55z"/><path fill="#4c960d" stroke="#4c960d" d="m338.74 262.575 39.77-18.814 3.49 1.015v46.252l-37.026-2.965-9.898-11.225-1.11-2.863zM382 226.211l-30.653-2.865-3.252-1.772-4.362-16.536L382 175.08z"/><path fill="#4c960d" stroke="#4c960d" d="m338.74 262.575 9.355-41.001 3.252 1.772 27.164 20.415zM382 375.929l-47.638-56.202 10.612-31.664L382 291.028z"/><path fill="#451092" stroke="#451092" d="M148.641 78.933 102.671 0h91.695l8.334 51.298-19.434 34.215zM56.357 168.857l-.187 34.279-35.266-22.92 5.407-10.073 16.997-4.66 10.7.179 1.437.893zM228.145 155.033l-.037-1.072 47.575-48.758 54.903 32.018-33.314 33.768-69.114-15.94zM135.995 190.108l-6.778 2.41-34.213-40.08 23.183-7.539 27.242 37.068z"/><path fill="#451092" stroke="#451092" d="m90.593 155.4-35.148 11.155-1.438-.893 7.603-48.918 15.138-.221 16.209 35.924z"/><path fill="#4c960d" stroke="#4c960d" d="M0 382v-21.632l8.356-4.65 54.389-9.262L66.506 382z"/><path fill="#451092" stroke="#451092" d="m330.586 137.221-54.903-32.018 7.36-16.93 35.877.82 27.54 14.474 13.861 21.518zM147.102 261.852l13.245 28.819-66.354 27.744-1.764-2.224-9.971-86.265 7.77-3.903 2.502-.894z"/><path fill="#4c960d" stroke="#4c960d" d="M0 0h79.875L57.697 31.603l-16.782 16.19L0 47.203zM93.993 318.415l-1.482 5.61-29.766 22.43-54.389 9.264 19.38-50.294 13.278-10.76 12.987.808 38.228 20.718z"/><path fill="#451092" stroke="#451092" d="m274.984 56.487-82.927 38.034-8.791-9.008L202.7 51.298l54.524-24.458 18.821 17.452z"/><path fill="#4c960d" stroke="#4c960d" d="m195.258 248.614 43.385-39 24.377 35.183-8.392 12.676-62.074-.661zM294.885 331.813l29.107-5.536 3.443 41.462-31.987-28.844z"/><path fill="#451092" stroke="#451092" d="m228.108 153.96-36.05-59.44 82.926-38.033 8.058 31.786-7.359 16.93z"/><path fill="#4c960d" stroke="#4c960d" d="m263.02 244.797 15.692.98 8.425 44.276-42.8-3.77 10.29-28.81zM237.025 302.094l47.525 14.536 7.436 13.135-62.032 36.473-10.877-52.175zM382 0v132.605l-21.679-7.52-13.86-21.518 12.093-98.03L363.523 0z"/><path fill="#451092" stroke="#451092" d="m153.469 237.223-6.367 24.629-54.572-36.723 11.301-16.549 25.386-16.062 6.778-2.41z"/><path fill="#4c960d" stroke="#4c960d" d="m135.443 93.93-46.326 12.976-31.42-75.303L79.875 0h22.796l45.97 78.933zM175.812 216.35l-22.343 20.873-17.474-47.115 9.434-8.141 18.331-5.456 17.247-.356zM274.984 56.487l1.061-12.195 54.04-20.019-11.165 64.82-35.878-.82zM35.188 130.352l-30.471 1.366 35.245-43.752 21.583 28.75z"/><path fill="#451092" stroke="#451092" d="m295.448 338.895 31.987 28.844L333.218 382h-21.26l-17.943-35.212zM0 294.093l27.736 11.332-19.38 50.294L0 360.368zM0 132.522l1.772.383 24.539 37.238-5.407 10.073L0 203.904z"/><path fill="#4c960d" stroke="#4c960d" d="m91.634 180.31-21.272-1.2-14.005-10.253-.912-2.302L90.593 155.4zM129.217 192.518l-25.386 16.062-12.197-28.27-1.041-24.91 2.364-2.953 2.047-.008zM187.411 230.373l45.432-46.236 5.8 25.477-43.385 39z"/><path fill="#451092" stroke="#451092" d="m382 244.776-3.49-1.015-27.163-20.415L382 226.211z"/><path fill="#4c960d" stroke="#4c960d" d="m270.973 382 23.042-35.212L311.959 382z"/><path fill="#451092" stroke="#451092" d="m66.506 382-3.761-35.544 29.766-22.432L122.414 382zM202.7 51.298 194.366 0h56.57l6.288 26.84zM297.272 170.989l33.314-33.768 29.735-12.136 21.679 7.52v42.476l-38.267 29.957-26.488-4.447zM244.337 286.284l42.8 3.769 4.925 10.167-7.512 16.41-47.525-14.536z"/><path fill="#4c960d" stroke="#4c960d" d="m82.258 229.926 9.97 86.265-38.227-20.718.665-62.499 9.322-3.634z"/><path fill="#451092" stroke="#451092" d="m166.532 292.513 52.545 21.55 10.877 52.175-.779 15.762h-67.977l5.132-89.47z"/><path fill="#4c960d" stroke="#4c960d" d="m181.007 176.155-17.247.356-30.817-63.354 2.5-19.228 13.198-14.996 34.625 6.58 8.791 9.008 36.051 59.44.037 1.072zM187.411 230.373l7.847 18.24-2.704 8.199-26.022 35.7-.202.018-5.983-1.86-13.245-28.818 6.367-24.629 22.343-20.874zM43.308 165.483l-16.997 4.66-24.539-37.238 2.945-1.187 30.47-1.366z"/><path fill="#451092" stroke="#451092" d="m163.76 176.51-18.331 5.457-27.242-37.068 14.756-31.742zM232.843 184.137l-4.685-29.088 69.114 15.94 19.973 29.602-31.752 43.974-6.781 1.213-15.692-.98-24.377-35.184zM0 47.203l40.915.59-4.461 28.352L0 93.664zM63.988 229.34l-9.322 3.634L0 236.56v-32.655l20.904-23.688 35.266 22.92z"/><path fill="#451092" stroke="#451092" d="m95.004 152.439-2.047.008-16.209-35.924 12.369-9.617 46.326-12.977-2.5 19.228-14.756 31.742z"/></svg></g></svg>