<svg xmlns="http://www.w3.org/2000/svg" viewBox="0 0 382 382"><defs><clipPath id="a"><path d="M382 382H0V0h382z"/></clipPath></defs><g clip-path="url(#a)"><svg xmlns="http://www.w3.org/2000/svg" width="382" height="382" style="shape-rendering:geometricPrecision"><path fill="#788a51" stroke="#788a51" d="M64.013 98.927 0 130.71V54.987l68.88-30.17 10.354 42.547z"/><path fill="#51b406" stroke="#51b406" d="m241.913 175.612-31.01-19.684 2.749-35.298 36.41-71.528 3.24 3.229 42.866 77.178-13.46 22.146-28.827 22.466-2.525.563zM136.253 282.614l-8.62 13.279-71.676-2.456 1.09-18.37 55.686-45.422 30.3 11.946 2.212 4.827zM80.93 0 68.88 24.817 0 54.987V0z"/><path fill="#788a51" stroke="#788a51" d="m55.957 293.437-12.283 14.01L0 298.826v-109.71l40.198 43.494 16.85 42.458zM266.519 271.505l-29.382-67.224 4.776-28.67 9.443-.927 55.73 106.703-3.703.772zM213.652 120.63l-35.169-30.87L219.262 0h24.156l6.644 49.102zM202.871 250.08l51.85 25.298-42.357 37.772-18.395-58.101z"/><path fill="#788a51" stroke="#788a51" d="m307.086 281.387-55.73-106.703 2.525-.563 52.45 33.165 10.232 63.252-4.717 10.5z"/><path fill="#51b406" stroke="#51b406" d="m163.148 382 48.99-52.922 45.786 15.67L276.772 382zM0 382v-83.175l43.674 8.623 4.365 21.404L34.884 382zM382 183.39l-16.563.807-82.729-32.542 13.46-22.146 65.305-29.461L382 96.908z"/><path fill="#51b406" stroke="#51b406" d="M382 382H276.772l-18.848-37.252 45.459-62.589 3.703-.772 4.76-.35L382 349.77zM81.595 170.144 0 178.857V130.71l64.013-31.783 33.925 54.86z"/><path fill="#788a51" stroke="#788a51" d="m193.969 255.049 18.395 58.1-1.183 4.236-74.928-34.771 8.992-36.196zM129.1 101.572 79.234 67.364 68.879 24.817 80.931 0h78.724L149.23 79.672z"/><path fill="#788a51" stroke="#788a51" d="m136.253 282.614 74.928 34.77.957 11.694L163.148 382h-15.434l-11.985-23.106-8.097-63.001zM176.503 163.535l-45.295-23.014-2.108-38.95 20.131-21.899 29.252 10.088 35.169 30.87-2.75 35.298z"/><path fill="#51b406" stroke="#51b406" d="m202.871 250.08-8.902 4.969-48.724-8.63-2.212-4.828 33.47-78.056 34.4-7.607 31.01 19.684-4.776 28.669zM106.41 223.258l-66.212 9.351L0 189.116v-10.259l81.595-8.713zM212.364 313.15l42.357-37.772 11.798-3.873 36.864 10.654-45.459 62.589-45.786-15.67-.957-11.693z"/><path fill="#788a51" stroke="#788a51" d="m131.208 140.521-33.27 13.267-33.925-54.86 15.221-31.564 49.866 34.208z"/><path fill="#51b406" stroke="#51b406" d="m219.262 0-40.779 89.76-29.252-10.088L159.655 0z"/><path fill="#788a51" stroke="#788a51" d="m306.33 207.286-52.45-33.165 28.828-22.466 82.73 32.542z"/><path fill="#788a51" stroke="#788a51" d="m382 213.36-65.437 57.178-10.233-63.252 59.107-23.09L382 183.39z"/><path fill="#51b406" stroke="#51b406" d="m55.957 293.437 71.675 2.456 8.097 63-87.69-30.041-4.365-21.404zM382 349.77l-70.154-68.732 4.717-10.5L382 213.36z"/><path fill="#788a51" stroke="#788a51" d="m176.503 163.535-33.47 78.056-30.3-11.946-6.322-6.387-24.816-53.114 16.343-16.356 33.27-13.267z"/><path fill="#51b406" stroke="#51b406" d="m34.884 382 13.155-53.148 87.69 30.042L147.714 382zM112.733 229.645l-55.685 45.422-16.85-42.458 66.213-9.35z"/><path fill="#788a51" stroke="#788a51" d="m202.871 250.08 34.266-45.8 29.382 67.225-11.798 3.873zM296.168 129.509 253.302 52.33l108.17 47.717z"/><path fill="#51b406" stroke="#51b406" d="m382 96.907-20.527 3.14-108.17-47.716-3.24-3.229L243.417 0H382z"/></svg></g></svg>