<svg xmlns="http://www.w3.org/2000/svg" viewBox="0 0 382 382"><defs><clipPath id="a"><path d="M382 382H0V0h382z"/></clipPath></defs><g clip-path="url(#a)"><svg xmlns="http://www.w3.org/2000/svg" width="382" height="382" style="shape-rendering:geometricPrecision"><path fill="#58ecca" stroke="#58ecca" d="m292.45 382 22.425-36.713 26.1 36.713zM382 191.35l-38.313 13.64-23.97-65.684 10.3-3.216L382 179.089z"/><path fill="#77f587" stroke="#77f587" d="m72.17 185.803-1.52 2.025-41.793-3.163-15.909-7.331 37.642-60.96 14.687-2.961 8.896.577 10.926 12.27 2.109 5.104-3.137 29.72z"/><path fill="#77f587" stroke="#77f587" d="m163.777 60.444-47.855 48.217-30.823 17.6-10.926-12.271 11.373-48.044 29.122-43.236z"/><path fill="#58ecca" stroke="#58ecca" d="m293.353 113.184-26.979-28.347 45.973-71.847 3.516 4.98 13.041 32.168-33.025 64.04z"/><path fill="#77f587" stroke="#77f587" d="m260.004 286.527 28.852 33.814-18.35 35.34-27.837-31.214z"/><path fill="#58ecca" stroke="#58ecca" d="m70.276 240.568-20.408 40.999L0 281.88v-43.74l22.334-8.555 46.347 6.154z"/><path fill="#58ecca" stroke="#58ecca" d="m70.65 187.828 1.105 27.037-3.074 20.875-46.347-6.154 6.523-44.921z"/><path fill="#77f587" stroke="#77f587" d="m0 35.342 38.098 20.73-3.561 18.35L0 67.436z"/><path fill="#58ecca" stroke="#58ecca" d="m158.027 332.513-.452 2.789-93.52-30.107-.476-2.14 53.044-26.291z"/><path fill="#77f587" stroke="#77f587" d="m279.227 239.814 2.266.024 66.151 71.28-33.024 14.446-25.764-5.223-28.852-33.814-1.319-3.895 3.569-20.037z"/><path fill="#77f587" stroke="#77f587" d="M347.644 311.119 382 309.695v18.727L342.795 382h-1.82l-26.1-36.713-.255-19.723z"/><path fill="#58ecca" stroke="#58ecca" d="m163.777 60.444-49.11-37.734L109.866 0h71.38l22.788 45.833-9.624 26.845zM146.546 226.782 112.1 255.93l-41.824-15.362-1.595-4.828 3.074-20.875 59.8 2.903zM120.311 205.612l11.245 12.156-59.801-2.903-1.106-27.037 1.52-2.025zM270.701 220.192l1.618-39.84 40.369-42.953 7.03 1.907 23.969 65.683-9.899 20.425-52.295 14.424-2.266-.024-7.655-17.255z"/><path fill="#77f587" stroke="#77f587" d="m171.537 186.24 1.081 23.3-3.222 11.516-22.85 5.726-14.99-9.014-11.245-12.156-.59-25.93zM112.1 255.93l4.523 20.834-53.044 26.291-13.711-21.488 20.408-41z"/><path fill="#58ecca" stroke="#58ecca" d="m382 83.34-53.096-33.202-13.041-32.169L382 26.443zM288.856 320.341l25.764 5.223.255 19.723L292.45 382h-29.983l8.04-26.32z"/><path fill="#77f587" stroke="#77f587" d="m230.823 204.168 39.878 16.024.871 2.367-99.632 2.894-2.544-4.397 3.222-11.517z"/><path fill="#77f587" stroke="#77f587" d="m180.044 241.896-9.24 71.258-12.777 19.359-41.404-55.749-4.523-20.834 34.446-29.148 22.85-5.726 2.544 4.397zM0 112.169l50.59 4.205-37.642 60.96L0 176.6z"/><path fill="#58ecca" stroke="#58ecca" d="m170.804 313.154 87.881-30.522 1.319 3.895-17.335 37.94L196.199 382h-35.095l-3.529-46.698.452-2.79zM180.044 241.896l-8.104-16.443 99.632-2.894 7.655 17.255-16.973 22.781z"/><path fill="#77f587" stroke="#77f587" d="m171.537 186.24-51.816-6.558-35.65-18.598 3.137-29.72L180.19 151.7z"/><path fill="#58ecca" stroke="#58ecca" d="M0 0h10l37.744 45.709 1.883 6.78-11.53 3.583L0 35.342z"/><path fill="#77f587" stroke="#77f587" d="m382 272.686-48.212-47.272 9.899-20.425L382 191.35z"/><path fill="#58ecca" stroke="#58ecca" d="m194.51 110.99-78.588-2.329 47.855-48.217 30.632 12.234 2.21 3.667z"/><path fill="#58ecca" stroke="#58ecca" d="m196.618 76.345-2.209-3.667 9.624-26.845L235.546 0h54.656l-50.634 74.459z"/><path fill="#77f587" stroke="#77f587" d="m230.823 204.168-14.936-60.545 56.432 36.73-1.618 39.84zM68.609 0 47.744 45.709 10 0z"/><path fill="#58ecca" stroke="#58ecca" d="m119.72 179.682.591 25.93-48.142-19.81 11.902-24.718zM382 26.443l-66.137-8.474-3.516-4.98L306.857 0H382zM306.857 0l5.49 12.99-45.973 71.847-26.806-10.378L290.202 0z"/><path fill="#77f587" stroke="#77f587" d="m196.199 382 46.47-57.533 27.838 31.214-8.04 26.319z"/><path fill="#58ecca" stroke="#58ecca" d="m43.096 382 20.96-76.805 93.52 30.107L161.103 382z"/><path fill="#77f587" stroke="#77f587" d="m382 179.089-51.983-42.999L382 110.191zM281.493 239.838l52.295-14.424L382 272.686v37.009l-34.356 1.424zM0 176.6l12.948.734 15.909 7.33-6.523 44.922L0 238.14z"/><path fill="#77f587" stroke="#77f587" d="m312.688 137.4-16.809-23.223 33.025-64.039L382 83.34v26.851l-51.983 25.899-10.3 3.216zM0 67.436l34.537 6.986 30.74 38.99-14.687 2.962L0 112.169z"/><path fill="#58ecca" stroke="#58ecca" d="m272.32 180.353-56.433-36.73-1.805-1.745 79.271-28.694 2.526.993 16.809 23.222z"/><path fill="#77f587" stroke="#77f587" d="m74.173 113.99-8.896-.577-30.74-38.991 3.56-18.35 11.53-3.583 35.919 13.457zM342.795 382 382 328.422V382z"/><path fill="#58ecca" stroke="#58ecca" d="m230.823 204.168-58.205 5.371-1.08-23.299 8.652-34.54 15.807-16.813 18.085 6.991 1.805 1.745zM293.353 113.184l-79.27 28.694-18.086-6.991-1.488-23.897 2.11-34.645 42.949-1.886 26.806 10.378zM180.044 241.896l82.21 20.699-3.569 20.037-87.881 30.522zM0 382V281.88l49.868-.313 13.71 21.488.478 2.14L43.096 382z"/><path fill="#77f587" stroke="#77f587" d="m180.19 151.7-92.982-20.336-2.11-5.103 30.824-17.6 78.587 2.329 1.488 23.897zM85.546 65.946 49.627 52.49l-1.883-6.78L68.609 0h41.256l4.803 22.71z"/><path fill="#58ecca" stroke="#58ecca" d="m235.546 0-31.513 45.833L181.245 0z"/></svg></g></svg>