<svg xmlns="http://www.w3.org/2000/svg" viewBox="0 0 382 382"><defs><clipPath id="a"><path d="M382 382H0V0h382z"/></clipPath></defs><g clip-path="url(#a)"><svg xmlns="http://www.w3.org/2000/svg" width="382" height="382" style="shape-rendering:geometricPrecision"><path fill="#dd2e99" stroke="#dd2e99" d="m245.803 219.425 31.85 5.265 21.473 13.349 10.668 9.533-28.582 48.078-9.976-3.557-48.728-57.378-5.084-10.873.794-.57z"/><path fill="#dd2e99" stroke="#dd2e99" d="m240.625 172.234 61.937 2.065-56.759 45.126-27.585 3.847z"/><path fill="#f8668f" stroke="#f8668f" d="m79.245 111.495 16.766 44.637-35.31 24.19-11.423-7.491-4.072-43.533z"/><path fill="#dd2e99" stroke="#dd2e99" d="m96.927 287.859-26.08 28.195L0 304.918v-55.49l43.408-4.808 28.284 19.928z"/><path fill="#f8668f" stroke="#f8668f" d="M361.226 0 293.98 90.526l-17.335-23.434L271.56 0zM79.245 111.495l23.825-37.778 60.007 60.102-7.359 42.764-59.707-20.45z"/><path fill="#dd2e99" stroke="#dd2e99" d="M162.808 356.113 163.985 382H86.018l-1.506-22.829 62.45-16.348z"/><path fill="#f8668f" stroke="#f8668f" d="m163.985 382-1.177-25.887 31.711-25.887 11.376-3.085 13.237 2.418L263.67 382z"/><path fill="#dd2e99" stroke="#dd2e99" d="m277.653 224.69 36.383-28.426-14.91 41.775z"/><path fill="#f8668f" stroke="#f8668f" d="m314.036 196.264 1.962-2.058 57.56 38.267-8.225 3.155-55.54 11.944-10.667-9.533zM100.936 209.298l-29.244 55.25-28.284-19.928 26.811-41.47z"/><path fill="#dd2e99" stroke="#dd2e99" d="m70.22 203.15-26.812 41.47L0 249.428v-24.47l30.977-46.421 18.3-5.706 11.423 7.49z"/><path fill="#f8668f" stroke="#f8668f" d="M382 0v93.462l-63.48 6.763-22.49-1.455-2.05-8.244L361.227 0zM281.212 295.65l15.508 17.686 2.186 3.742L313.862 382H263.67l-44.538-52.44 52.104-37.467zM305.094 173.062l2.298-13.165 51.272-.247L382 166.168v66.568l-8.441-.263-57.56-38.267z"/><path fill="#dd2e99" stroke="#dd2e99" d="m4.687 382 65.821-40.788 14.004 17.96L86.018 382z"/><path fill="#f8668f" stroke="#f8668f" d="m288.66 112.356 7.37-13.586 22.49 1.455 40.144 59.425-51.272.247zM373.559 232.473l8.441.263v44.805l-83.094 39.537-2.186-3.742 68.613-77.708z"/><path fill="#dd2e99" stroke="#dd2e99" d="m166.983 217.412-10.12 20.023-41.95 48.283-17.986 2.14-25.235-23.31 29.244-55.25 62.714 3.243z"/><path fill="#f8668f" stroke="#f8668f" d="m240.625 172.234-22.407 51.038-.794.57-50.44-6.43-3.334-4.87-7.932-35.96 7.359-42.763 35.483-23.073 51.29 18.949zM245.803 219.425l56.759-45.126 2.532-1.237 10.904 21.144-1.962 2.058-36.383 28.426z"/><path fill="#dd2e99" stroke="#dd2e99" d="m79.245 111.495-34.039 17.803L0 111.986V58.88l95.1-43.042 1.989 10.683 5.981 47.196z"/><path fill="#f8668f" stroke="#f8668f" d="m156.864 237.435 37.655 92.791-31.711 25.887-15.846-13.29-32.05-57.105zM199.963 97.76 97.089 26.521l-1.99-10.683L101.661 0h79.993l26.928 61.96zM313.862 382l-14.956-64.922L382 277.541V382zM222.508 234.715l48.728 57.378-52.104 37.466-13.237-2.418z"/><path fill="#dd2e99" stroke="#dd2e99" d="m309.794 247.572 55.539-11.944-68.613 77.708-15.508-17.686zM101.66 0 95.1 15.838 0 58.88V0zM0 382v-77.082l70.847 11.136-.339 25.158L4.687 382z"/><path fill="#f8668f" stroke="#f8668f" d="m49.278 172.83-18.3 5.707L0 160.428v-48.442l45.206 17.312z"/><path fill="#dd2e99" stroke="#dd2e99" d="m382 166.168-23.336-6.518-40.145-59.425L382 93.462zM240.625 172.234l9.225-42.54 38.81-17.338 18.732 47.541-2.298 13.165-2.532 1.237z"/><path fill="#f8668f" stroke="#f8668f" d="m114.913 285.718 32.05 57.105-62.451 16.348-14.004-17.959.339-25.158 26.08-28.195z"/><path fill="#dd2e99" stroke="#dd2e99" d="m0 160.428 30.977 18.109L0 224.958z"/><path fill="#f8668f" stroke="#f8668f" d="m271.561 0 5.085 67.092-68.064-5.133L181.654 0z"/><path fill="#dd2e99" stroke="#dd2e99" d="m198.56 110.746-35.483 23.073-60.007-60.102-5.981-47.196L199.963 97.76zM155.718 176.583l7.932 35.958-62.714-3.243-30.717-6.149-9.519-22.827 35.311-24.19z"/><path fill="#f8668f" stroke="#f8668f" d="m288.66 112.356-38.81 17.339-51.29-18.949 1.403-12.986 8.619-35.8 68.064 5.132 17.335 23.434 2.049 8.244zM217.424 223.842l5.084 10.873-16.613 92.426-11.376 3.085-37.655-92.79 10.12-20.024z"/></svg></g></svg>