<svg xmlns="http://www.w3.org/2000/svg" viewBox="0 0 382 382"><defs><clipPath id="a"><path d="M382 382H0V0h382z"/></clipPath></defs><g clip-path="url(#a)"><svg xmlns="http://www.w3.org/2000/svg" width="382" height="382" style="shape-rendering:geometricPrecision"><path fill="#be6ebb" stroke="#be6ebb" d="m248.294 137.787-42.693 28.604-5.448-47.07zM51.076 147.89l-18.31 1.517L0 119.027V75.57l51.413-5.273 4.818 23.05zM161.6 323.105l50.955 30.792-48.948 15.757-7.288-41.43z"/><path fill="#5bfc56" stroke="#5bfc56" d="m310.186 253.058 10.506-4.341 9.357 10.604 9.83 50.115-30.705 12.537-6.504-8.747z"/><path fill="#be6ebb" stroke="#be6ebb" d="m382 183.063-81.932-3.686 35.126-81.24L382 102.162zM101.285 193.018 65.127 209.11 52.678 191.33l7.803-26.065 24.243-1.342z"/><path fill="#5bfc56" stroke="#5bfc56" d="m48.833 310.401 44.335 36.346L80.515 382H73.9l-39.71-38.139-.162-1.738z"/><path fill="#be6ebb" stroke="#be6ebb" d="M156.217 205.544 79.936 260.2l-3.473-.717-4.974-35.196 14.796-7.838 41.948-14.376 26.86 2.825z"/><path fill="#5bfc56" stroke="#5bfc56" d="m125.571 121.354-25.269 6-44.07-34.007-4.82-23.05 8.05-8.502 55.345 30.915 18.365 21.15z"/><path fill="#be6ebb" stroke="#be6ebb" d="m175.524 79.28-23.045-16.33-37.51-44.2 76.282 10.563 14.604 34.92-.349 3.414-15.523 12.169zM5.808 382l28.383-38.139L73.9 382z"/><path fill="#be6ebb" stroke="#be6ebb" d="m248.294 137.787-48.141-18.466-5.12-4.749-5.05-34.756 15.523-12.17 73.462 26.45-18.404 39.055-9.763 4.386z"/><path fill="#5bfc56" stroke="#5bfc56" d="m157.46 140.275-35.402 12.236 3.513-31.157 7.601-7.495 4.751-.007z"/><path fill="#be6ebb" stroke="#be6ebb" d="m152.479 62.95-37.672 29.76-55.345-30.915 11.246-23.85 22.82-35.392 21.44 16.197z"/><path fill="#5bfc56" stroke="#5bfc56" d="m290.567 182.756 9.5-3.379L382 183.063v17.815l-55.856 28.08-44.082-26.704z"/><path fill="#be6ebb" stroke="#be6ebb" d="m0 5.84 70.708 32.105-11.246 23.85-8.05 8.502L0 75.57zM257.643 0l-51.788 64.232-14.604-34.92L195.145 0z"/><path fill="#5bfc56" stroke="#5bfc56" d="m158.435 205.788-27.407 71.615L106.3 281.4 79.936 260.2l76.28-54.657zM236.034 252.307l66.636 60.92 6.504 8.746-3.096 7.302-4.009 6.086-17.375 16.37-43.552-13.215-7.462-85.5z"/><path fill="#be6ebb" stroke="#be6ebb" d="m172.168 187.515-7.74 17.679-5.993.594-2.218-.244-1.124-.645-37.78-43.179 4.745-9.21 35.402-12.235 8.321 6.527z"/><path fill="#5bfc56" stroke="#5bfc56" d="m195.033 114.572-29.252 32.23-8.32-6.527-19.538-26.423 37.6-34.571 14.46.535zM238.587 185.989l15.624 38.403-13.383 23.142-4.794 4.773-2.354.708-19.796.054-49.457-47.875 7.741-17.68 32.55-19.784z"/><path fill="#be6ebb" stroke="#be6ebb" d="m339.879 309.436 42.121-1.68v35.132l-23.51 28.883-52.412-42.496 3.096-7.302z"/><path fill="#be6ebb" stroke="#be6ebb" d="M330.049 259.321 382 247.778v59.979l-42.121 1.679zM335.151 0l-2.804 17.18-41.591 26.338L264.144 0zM278.968 94.095l-73.462-26.448.349-3.415L257.643 0h6.501l26.612 43.518 3.905 42.214z"/><path fill="#5bfc56" stroke="#5bfc56" d="m106.3 281.399 6.66 49.474-5.191 5.96-14.601 9.914-44.335-36.346-9.808-31.368 37.438-19.55 3.473.718z"/><path fill="#be6ebb" stroke="#be6ebb" d="M382 0v56.063L332.347 17.18 335.151 0z"/><path fill="#5bfc56" stroke="#5bfc56" d="m238.587 185.989 12.214-48.452 9.763-4.386 30.003 49.605-8.505 19.498-27.85 22.138z"/><path fill="#be6ebb" stroke="#be6ebb" d="M163.607 369.654 159.352 382h-10.674l-40.909-45.167 5.19-5.96 43.36-2.648z"/><path fill="#5bfc56" stroke="#5bfc56" d="m356.294 382 2.196-10.23L382 342.889V382zM159.352 382l4.255-12.346 48.948-15.757 1.124.104 3.82 27.999zM240.828 247.534l69.358 5.524-7.516 60.168-66.636-60.92zM279.817 382l4.877-30.269 17.375-16.37L335.29 382z"/><path fill="#be6ebb" stroke="#be6ebb" d="m76.463 259.484-37.438 19.549L0 271.224v-62.522l52.678-17.372 12.45 17.78 6.361 15.178zM0 119.026l32.767 30.38L0 158.79z"/><path fill="#5bfc56" stroke="#5bfc56" d="m204.717 167.73-32.549 19.785-6.387-40.713 29.252-32.23 5.12 4.75 5.448 47.069z"/><path fill="#be6ebb" stroke="#be6ebb" d="m117.313 161.72 37.78 43.18-26.86-2.826-23.343-7.14-3.605-1.916-16.561-29.095 12.007-5.101zM238.587 185.989l-33.87-18.259.884-1.34 42.693-28.603 2.507-.25z"/><path fill="#5bfc56" stroke="#5bfc56" d="M382 56.063v46.098l-46.806-4.023-40.533-12.406-3.905-42.214 41.591-26.337zM84.724 163.923l-24.243 1.342-9.405-17.375 5.155-54.543 44.071 34.007-3.57 31.468z"/><path fill="#be6ebb" stroke="#be6ebb" d="m48.833 310.401-14.804 31.722L0 334.368v-63.144l39.025 7.809z"/><path fill="#5bfc56" stroke="#5bfc56" d="m158.435 205.788 5.992-.594 49.457 47.875-24.27 30.598-13.859 9.223-44.727-15.487z"/><path fill="#be6ebb" stroke="#be6ebb" d="M104.89 194.934 86.285 216.45l-14.796 7.838-6.362-15.179 36.158-16.09z"/><path fill="#5bfc56" stroke="#5bfc56" d="m254.211 224.392 27.851-22.138 44.082 26.704-5.452 19.759-10.506 4.341-69.358-5.524z"/><path fill="#be6ebb" stroke="#be6ebb" d="m260.564 133.15 18.404-39.055 15.693-8.363 40.533 12.406-35.126 81.24-9.501 3.378z"/><path fill="#5bfc56" stroke="#5bfc56" d="m241.142 338.516 43.552 13.215L279.817 382h-62.318l-3.82-28 5.046-6.087z"/><path fill="#be6ebb" stroke="#be6ebb" d="m51.076 147.89 9.405 17.375-7.803 26.065L0 208.702V158.79l32.767-9.382zM117.313 161.72l-20.582-2.898 3.571-31.468 25.27-6-3.514 31.157z"/><path fill="#5bfc56" stroke="#5bfc56" d="M175.755 292.89 161.6 323.105l-5.28 5.12-43.36 2.648-6.659-49.474 24.728-3.996zM326.144 228.958 382 200.878v46.9l-51.951 11.543-9.357-10.604zM128.233 202.074 86.285 216.45l18.605-21.516z"/><path fill="#be6ebb" stroke="#be6ebb" d="m233.68 253.015 7.462 85.5-22.417 9.398-29.112-64.246 24.271-30.598z"/><path fill="#5bfc56" stroke="#5bfc56" d="M0 382v-47.632l34.029 7.755.162 1.738L5.808 382zM195.145 0l-3.894 29.313-76.283-10.563-21.44-16.197L93.71 0z"/><path fill="#be6ebb" stroke="#be6ebb" d="m335.29 382-33.22-46.639 4.008-6.086 52.412 42.496L356.294 382zM189.613 283.667l29.112 64.246L213.68 354l-1.124-.104-50.956-30.792 14.156-30.215zM148.678 382H80.515l12.653-35.253 14.601-9.914zM0 0h93.71l-.183 2.553-22.82 35.392L0 5.84zM175.524 79.28l-37.6 34.572-4.752.007-18.365-21.149 37.672-29.76z"/></svg></g></svg>