<svg xmlns="http://www.w3.org/2000/svg" viewBox="0 0 382 382"><defs><clipPath id="a"><path d="M382 382H0V0h382z"/></clipPath></defs><g clip-path="url(#a)"><svg xmlns="http://www.w3.org/2000/svg" width="382" height="382" style="shape-rendering:geometricPrecision"><path fill="#1b04f4" stroke="#1b04f4" d="m19.146 382 20.718-25.932 76.585-6.686L124.321 382z"/><path fill="#24b550" stroke="#24b550" d="m382 362.833-42.67-1.2L382 306.956z"/><path fill="#1b04f4" stroke="#1b04f4" d="m123.38 162.778-58.387-8.254-21.416-9.756 4.712-13.319 60.566-49.81 42.279 10.239 8.67 37.118zM267.571 129.056l-31.22-26.268 5.64-28.227 18.202 12.208 18.333 32.437zM0 382v-96.291l35.148 7.185 17.815 10.731-7.175 37.977-5.924 14.466L19.146 382zM163.93 311.764l33.98 60.842-2.898 9.394h-37.795l-11.112-75.864zM227.086 0l6.596 68.277-75.167 13.213L168.384 0z"/><path fill="#24b550" stroke="#24b550" d="m159.803 128.996-8.67-37.118 7.382-10.388 75.167-13.213 6.205 2.79 2.104 3.494-5.64 28.227-28.012 49.113-2.033.42-46.361-23.218z"/><path fill="#24b550" stroke="#24b550" d="m208.192 209.506-1.886-57.185 2.033-.42 38.311 2.18.885 1.328-3.446 62.82-13.225 2.503zM165.442 235.247l8.566-.268 43.768 51.18-53.847 25.605-17.824-5.628-2.987-1.11-15.423-37.837 25.127-27.724zM246.65 154.08l-38.31-2.179 28.011-49.113 31.22 26.268-16.684 21.392zM333.128 0l-93.24 71.068-6.206-2.791L227.086 0zM232.943 288.603l-2.079-67.87 13.225-2.504 20.746.602 15.247 15.063-34.719 62.33zM320.413 235.575l5.634-2.14L382 241.75v36.388l-68.031 30.699-22.31-11.602z"/><path fill="#1b04f4" stroke="#1b04f4" d="m118.808 335.733-2.359 13.649-76.585 6.686 5.924-14.466 52.388-14.901z"/><path fill="#24b550" stroke="#24b550" d="m308.43 174.973 36.774-16.207L382 179.259v62.492l-55.953-8.316-20.34-53.087z"/><path fill="#1b04f4" stroke="#1b04f4" d="m174.008 234.979 34.184-25.473 22.672 11.226 2.079 67.87-15.167-2.442zM313.969 308.838l68.031-30.7v28.818l-42.67 54.677-17.625 13.2z"/><path fill="#24b550" stroke="#24b550" d="M146.105 306.136 157.217 382H124.32l-7.872-32.618 2.36-13.649 24.309-30.707zM0 9.394l50.744 41.737-25.221 22.131-6.249-.244L0 68.838zM244.09 218.229l3.445-62.82 26.719 29.244-9.419 34.178z"/><path fill="#1b04f4" stroke="#1b04f4" d="m92.518 260.65-23.709 32.69-15.846 10.285-17.815-10.731 6.106-62.091 5.821-2.415 27.594 8.96z"/><path fill="#24b550" stroke="#24b550" d="m245.363 296.225 34.719-62.33 40.331 1.68-28.755 61.661-43.002 3.854z"/><path fill="#1b04f4" stroke="#1b04f4" d="m195.012 382 2.899-9.394 48.8-41.238L299.247 382zM382 382h-64.041l3.746-7.167 17.624-13.2 42.671 1.2zM165.442 235.247l-12.62 4.218-33.475-54.826 4.032-21.86 36.424-33.783.142.107z"/><path fill="#1b04f4" stroke="#1b04f4" d="m152.822 239.465-25.127 27.724-35.177-6.539-17.85-23.301 16.546-29.361 28.133-23.35zM0 0h53.186l9.275 47.495-11.717 3.636L0 9.394z"/><path fill="#24b550" stroke="#24b550" d="m75.23 183.85-29.253 35-12.81-67.549 10.41-6.533 21.416 9.756zM68.809 293.34l29.367 33.36-52.388 14.902 7.175-37.977z"/><path fill="#1b04f4" stroke="#1b04f4" d="m382 113.294-46.005 17.767-20.194-20.542 15.7-50.172L364.088 0H382z"/><path fill="#24b550" stroke="#24b550" d="m0 68.838 19.274 4.18L0 121.93zM232.943 288.603l12.42 7.622 3.293 4.865-1.945 30.278-48.8 41.238-33.982-60.842 53.847-25.604zM165.442 235.247l-5.497-106.144 46.361 23.218 1.886 57.185-34.184 25.473z"/><path fill="#1b04f4" stroke="#1b04f4" d="m382 179.259-36.796-20.493-9.209-27.705L382 113.294zM0 238.612l41.254-7.81-6.106 62.092L0 285.709z"/><path fill="#24b550" stroke="#24b550" d="m241.991 74.561-2.104-3.493L333.127 0h30.96l-32.585 60.347-71.31 26.422zM41.254 230.803 0 238.612V152.41l33.168-1.109 12.81 67.549 1.097 9.538z"/><path fill="#1b04f4" stroke="#1b04f4" d="m264.835 218.83 9.419-34.177 31.454-4.305 20.34 53.087-5.635 2.14-40.331-1.68z"/><path fill="#24b550" stroke="#24b550" d="m247.535 155.409-.885-1.328 4.237-3.633 50.18 7.245 7.363 17.28-2.722 5.375-31.454 4.305z"/><path fill="#1b04f4" stroke="#1b04f4" d="m278.526 119.206-18.333-32.437 71.309-26.422-15.7 50.172-14.153 7.676z"/><path fill="#24b550" stroke="#24b550" d="m301.066 157.693-50.179-7.245 16.684-21.392 10.955-9.85 23.123-1.011z"/><path fill="#1b04f4" stroke="#1b04f4" d="m108.855 81.64-60.566 49.809-22.766-58.187 25.22-22.13 11.718-3.637L81.86 52.92z"/><path fill="#24b550" stroke="#24b550" d="m119.347 184.639-28.133 23.349L75.23 183.85l-10.238-29.326 58.386 8.254zM108.855 81.64 81.859 52.92 106.98 0h61.405l-9.87 81.49-7.38 10.388z"/><path fill="#1b04f4" stroke="#1b04f4" d="m91.214 207.988-16.545 29.36-27.594-8.96-1.098-9.538 29.254-35zM127.695 267.189l15.423 37.837-24.31 30.707-20.632-9.032L68.81 293.34l23.709-32.69z"/><path fill="#24b550" stroke="#24b550" d="M33.168 151.301 0 152.41v-30.48l19.274-48.912 6.249.244 22.766 58.187-4.712 13.32zM301.066 157.693l.583-39.498 14.152-7.676 20.194 20.542 9.209 27.705-36.774 16.207z"/><path fill="#1b04f4" stroke="#1b04f4" d="m248.656 301.09 43.002-3.854 22.31 11.602 7.737 65.995L317.96 382h-18.712l-52.536-50.632z"/><path fill="#24b550" stroke="#24b550" d="M106.98 0 81.86 52.921 62.46 47.495 53.186 0z"/></svg></g></svg>