<svg xmlns="http://www.w3.org/2000/svg" viewBox="0 0 382 382"><defs><clipPath id="a"><path d="M382 382H0V0h382z"/></clipPath></defs><g clip-path="url(#a)"><svg xmlns="http://www.w3.org/2000/svg" width="382" height="382" style="shape-rendering:geometricPrecision"><path fill="#d8ff81" stroke="#d8ff81" d="m253.693 311.768 3.702 2.44 7.211 53.348L255.273 382h-41.248l-.451-1.38 21.246-49.146z"/><path fill="#0e70b5" stroke="#0e70b5" d="m74.096 92.698 12.51 66.791-49.46-1.338 10.078-52.463 14.77-14.324z"/><path fill="#d8ff81" stroke="#d8ff81" d="m186.82 338.562 19.807 35.295-76.039-16.299-2.587-4.255 7.884-11.16 5.6-5.9 40.043-1.65z"/><path fill="#0e70b5" stroke="#0e70b5" d="m137.55 192.265-5.96 24.288-32.719 27.175-26.5-8.154 10.13-51.685 11.355-21.39 29.42 3.826 14.983 20.144z"/><path fill="#d8ff81" stroke="#d8ff81" d="m144.935 311.749-3.45 24.494-5.6 5.9-15.212-30.254 8.823-6.991 15.003 5.6zM89.91 323.57l14.081 25.044L75.199 382H27.477l42.667-58.934z"/><path fill="#0e70b5" stroke="#0e70b5" d="m198.042 66.657-72.074 58.715-5.8-37.572 38.386-33.59 34.419-2.883z"/><path fill="#d8ff81" stroke="#d8ff81" d="m317.706 269.272 51.913 6.311L382 286.03v15.129l-23.175 10.164-30.846-2.435-10.524-5.403-6.721-16.933z"/><path fill="#0e70b5" stroke="#0e70b5" d="m363.978 0-5.173 28.473-46.28-9.045L306.864 0zM317.706 269.272l.165-12.151 30.785-17.255 20.963 35.717z"/><path fill="#d8ff81" stroke="#d8ff81" d="m127.68 154.143-4.403 12.182-29.421-3.826-7.25-3.01-12.51-66.791 18.312-12.574 27.76 7.676 5.8 37.572z"/><path fill="#0e70b5" stroke="#0e70b5" d="m307.791 39.39 4.734-19.962 46.28 9.045 6.799 7.579-44.663 19.182zM213.574 380.62l.45 1.38h-81.779l-1.657-24.442 76.039 16.299zM382 60.65l-40.941 24.776-20.118-30.192 44.663-19.182L382 51.189z"/><path fill="#d8ff81" stroke="#d8ff81" d="m276.419 107.353 7.193-51.565 24.179-16.398 13.15 15.844 20.118 30.192-2.932 7.204-18.609 12.632z"/><path fill="#0e70b5" stroke="#0e70b5" d="m196.786 100.866-69.107 53.277-1.71-28.771 72.073-58.715 9.349 23.886zM219.528 138.692l1.58-2.656 46.363 54.543-52.103 7.328zM164.055 259.996l29.955 5.465 9.912 20.126-26.21 3.844-18.563-13.92-2.482-5.298.517-7.765zM364.326 382l-27.956-24.06 20.806-38.605L365.98 382zM298.272 320.91l14.756 27.349-14.368 6.293-15.829-10.11-.599-16.48z"/><path fill="#d8ff81" stroke="#d8ff81" d="m120.673 311.89 15.212 30.252-7.884 11.16-24.01-4.688-14.08-25.044 2.56-5.427zM382 0v51.19l-16.396-15.138-6.8-7.579L363.979 0zM253.693 311.768l-1.987-34.61 59.028 9.393 6.721 16.933-19.183 17.425-16.04 7.053-24.837-13.753z"/><path fill="#0e70b5" stroke="#0e70b5" d="m75.199 382 28.792-33.386 24.01 4.689 2.587 4.255L132.245 382z"/><path fill="#d8ff81" stroke="#d8ff81" d="m211.798 224.125 38.53 39.478-1.385 9.294-16.757 3.034-32.738-23.852-4.596-9.998zM137.55 192.265l55.604 50.032-29.1 17.7-6.87 2.45-25.595-45.894zM207.323 308.285l27.497 23.19-21.246 49.145-6.947-6.763-19.806-35.295 14.218-24.557z"/><path fill="#0e70b5" stroke="#0e70b5" d="m324.043 349.81 5.626 6.485L306.738 382h-5.491l-2.587-27.448 14.368-6.293z"/><path fill="#d8ff81" stroke="#d8ff81" d="m317.455 303.484 10.524 5.403-3.936 40.924-11.015-1.552-14.756-27.35z"/><path fill="#0e70b5" stroke="#0e70b5" d="m37.903 196.494 8.748 35.007-2.45 1.4L0 216.671v-54.569l22.028.559z"/><path fill="#0e70b5" stroke="#0e70b5" d="m37.146 158.151-15.118 4.51L0 162.102v-70.62l47.224 14.206zM248.943 272.897l2.763 4.262 1.987 34.61-18.873 19.705-27.497-23.189 2.052-21.734 22.81-10.62z"/><path fill="#d8ff81" stroke="#d8ff81" d="m177.73 299.246-.018-9.815 26.21-3.844 5.453.964-2.052 21.734-6.284 5.72z"/><path fill="#0e70b5" stroke="#0e70b5" d="m283.137 216.74 34.734 40.38-.165 12.152-6.972 17.28-59.028-9.393-2.763-4.262 1.386-9.294zM306.738 382l22.93-25.705 6.702 1.645L364.326 382z"/><path fill="#d8ff81" stroke="#d8ff81" d="m221.109 136.036 3.109-30.832 49.298 4.232 14.621 81.54-2.82 2.6-17.846-2.997z"/><path fill="#0e70b5" stroke="#0e70b5" d="m144.935 311.749 29.501 3.15 7.092 19.695-40.042 1.65zM158.554 54.21l-61.33-41.372L96.456 0h115.503l-2.745 18.726-16.241 32.6z"/><path fill="#d8ff81" stroke="#d8ff81" d="m219.528 138.692-4.16 59.215-4.752 2.58-48.789-15.549 16.027-16.435zM215.368 197.907l52.103-7.328 17.846 2.996-2.18 23.165-32.808 46.863-38.53-39.478-1.183-23.637zM61.993 91.364l-14.77 14.324L0 91.481v-2.685l37.77-24.461z"/><path fill="#0e70b5" stroke="#0e70b5" d="m207.391 90.543-9.35-23.886-5.068-15.33 16.241-32.601 74.398 37.062-7.193 51.565-2.903 2.083-49.298-4.232z"/><path fill="#d8ff81" stroke="#d8ff81" d="m199.448 252.079 32.738 23.852-22.81 10.62-5.454-.964-9.912-20.126zM137.55 192.265l.709-5.796 23.568-1.53 48.789 15.549 1.182 23.637-16.946 17.956-1.698.216zM257.395 314.209l24.837 13.753.6 16.48-18.226 23.114zM126.814 299.602l2.682 5.296-8.823 6.991-28.202 6.254 3.899-28.248z"/><path fill="#0e70b5" stroke="#0e70b5" d="M158.554 54.21 120.168 87.8l-27.76-7.676-10.4-45.96 15.216-21.326z"/><path fill="#0e70b5" stroke="#0e70b5" d="M82.008 34.164 42.312 44.76 25.666 27.842 33.39 0h63.067l.768 12.838z"/><path fill="#d8ff81" stroke="#d8ff81" d="m177.73 299.246 23.31 14.759-14.22 24.557-5.292-3.968-7.092-19.695z"/><path fill="#0e70b5" stroke="#0e70b5" d="m64.794 235.047-9.551 45.136-4.662 2.287-30.858-9.191L44.202 232.9l2.45-1.4 11.788.713z"/><path fill="#d8ff81" stroke="#d8ff81" d="M354.278 222.387 382 221.36v64.67l-12.38-10.447-20.964-35.717zM365.981 382l-8.805-62.665 1.649-8.013L382 301.158V382zM0 28.65l25.666-.808 16.646 16.92-4.543 19.573L0 88.796z"/><path fill="#0e70b5" stroke="#0e70b5" d="m95.445 273.725 36.81 5.679-5.441 20.198-30.444-9.707-2.138-14.108z"/><path fill="#d8ff81" stroke="#d8ff81" d="m324.043 349.81 3.936-40.923 30.846 2.435-1.65 8.013-20.805 38.605-6.701-1.645z"/><path fill="#0e70b5" stroke="#0e70b5" d="m132.255 279.404 24.412-9.19 2.482 5.296-14.65 34.988-15.003-5.6-2.682-5.296z"/><path fill="#d8ff81" stroke="#d8ff81" d="m96.37 289.895-3.899 28.248-2.56 5.427-19.767-.504-13.058-10.946-6.505-29.65 4.662-2.287 38.989-4.396z"/><path fill="#0e70b5" stroke="#0e70b5" d="m283.612 55.788-74.398-37.062L211.96 0h94.905l5.66 19.428-4.733 19.962z"/><path fill="#d8ff81" stroke="#d8ff81" d="M336.403 170.807 382 154.16v67.2l-27.722 1.027-31.261-37.833z"/><path fill="#d8ff81" stroke="#d8ff81" d="m288.137 190.975 34.88-6.421 31.261 37.833-5.622 17.479-30.785 17.255-34.734-40.38 2.18-23.166zM93.856 162.499l-11.355 21.39-18.878 23.791-25.72-11.186-15.875-33.833 15.118-4.51 49.46 1.338zM82.501 183.889l-10.13 51.685-7.577-.527-6.354-2.833 5.183-24.534zM382 138.68l-43.873-46.05 2.932-7.204L382 60.649z"/><path fill="#0e70b5" stroke="#0e70b5" d="m194.852 242.08 4.596 9.999-5.438 13.382-29.955-5.465 29.099-17.699zM196.786 100.866l-18.932 67.637-16.027 16.435-23.568 1.531-14.982-20.144 4.402-12.182zM177.73 299.246l-3.294 15.653-29.5-3.15-.437-1.251 14.65-34.988 18.563 13.92zM288.137 190.975l-14.621-81.539 2.903-2.083 43.099-2.091 16.885 65.545-13.386 13.747z"/><path fill="#d8ff81" stroke="#d8ff81" d="m37.903 196.494 25.72 11.186-5.183 24.534-11.789-.713zM219.528 138.692l-41.674 29.811 18.932-67.637 10.605-10.323 16.827 14.661-3.11 30.832zM74.096 92.698l-12.103-1.334-24.224-27.03 4.543-19.573 39.696-10.597 10.4 45.96z"/><path fill="#0e70b5" stroke="#0e70b5" d="m0 278.013 19.723-4.734 30.858 9.191 6.505 29.65L0 332.586z"/><path fill="#d8ff81" stroke="#d8ff81" d="M0 0h33.39l-7.724 27.842L0 28.65zM95.445 273.725l-1.213 2.062-38.99 4.396 9.552-45.136 7.577.527 26.5 8.154zM282.831 344.441l15.83 10.11L301.246 382h-45.974l9.333-14.444z"/><path fill="#0e70b5" stroke="#0e70b5" d="m157.184 262.448-.517 7.765-24.412 9.191-36.81-5.679 3.426-29.997 32.718-27.175zM382 154.16l-45.597 16.647-16.885-65.545 18.609-12.632L382 138.68zM0 332.586l57.086-20.466 13.058 10.946L27.477 382H0zM0 216.671l44.202 16.23-24.48 40.378L0 278.013z"/></svg></g></svg>