<svg xmlns="http://www.w3.org/2000/svg" viewBox="0 0 382 382"><defs><clipPath id="a"><path d="M382 382H0V0h382z"/></clipPath></defs><g clip-path="url(#a)"><svg xmlns="http://www.w3.org/2000/svg" width="382" height="382" style="shape-rendering:geometricPrecision"><path fill="#f9a34e" stroke="#f9a34e" d="m106.678 184.848-.226 14.77-98.928 36.864 28.944-45.822zM330.726 0l-41.602 44.936L273.427 0h57.3Z"/><path fill="#f9a34e" stroke="#f9a34e" d="M382 0v45.466l-14 6.394-77.859 19.173-.917-.623-4.179-11.943 4.079-13.53L330.726 0zM174.554 0l-18.452 51.286-54.812-28.614L106.497 0zm158.391 302.596-24.358-47.474 14.348-7.507 16.905 15.113 20.627 39.735-14.187 2.916zM250.282 91.967l-32.047-37.26 43.53-8.12 23.28 11.88 4.179 11.943z"/><path fill="#d8ae54" stroke="#d8ae54" d="M0 309.552 49.594 382H0zM230.9 382l1.372-5.566 20.064-50.24 10.397-2.694 15.477 6.828 43.337 41.016L328.795 382zm2.927-260.842 16.455-29.19 38.942-21.558.917.623 22.408 55.246 1.997 11.36-15.31 1.656-64.296-14.359z"/><path fill="#f9a34e" stroke="#f9a34e" d="m382 305.645-21.533-3.182-20.627-39.735 42.16 4.82z"/><path fill="#d8ae54" stroke="#d8ae54" d="m109.966 209.875-19.57 33.298-65.721 25.458L0 260.05v-16.666l7.524-6.902 98.928-36.865zm102.837 12.618 30.399-8.179 7.47 2.6 14.434 100.397-2.373 6.19-10.397 2.693-8.68-4.898-31.685-34.069-3.893-60.992zm-19.108-60.92-65.403 2.38 52.072-24.928 14.546 18.325zM382 382h-53.205l-7.248-10.656 24.733-65.965 14.187-2.916L382 305.645z"/><path fill="#f9a34e" stroke="#f9a34e" d="m253.896 217.193 79.201-47.208 18.892 15.01-10.36 38.108-18.694 24.512-14.348 7.507-.708.087z"/><path fill="#d8ae54" stroke="#d8ae54" d="m91.715 72.982-34.303-.563-40.628-38.574 74.84 8.437 4.896 22.357z"/><path fill="#f9a34e" stroke="#f9a34e" d="M312.55 126.28 368 51.86l14-6.394v50.627l-61.228 47.062-6.226-5.515-1.997-11.36Zm-47.444 191.031-14.435-100.398 3.225.28 53.983 38.016z"/><path fill="#d8ae54" stroke="#d8ae54" d="m109.966 209.875 39.553 31.934-7.313 28.382-28.202 11.425-10.512-5.27-13.096-33.173z"/><path fill="#f9a34e" stroke="#f9a34e" d="m262.171 0-7.423 18.251-58.922-16.274L194.671 0z"/><path fill="#d8ae54" stroke="#d8ae54" d="m312.55 126.28-22.41-55.248L368 51.859l-55.452 74.42Z"/><path fill="#f9a34e" stroke="#f9a34e" d="m131.987 323.417 37.304 5.665.89 2.048-82.327 42.914 1.781-17.686 14.17-18.965zM254.748 18.251l-2.208 8.314-44.903-2.63-11.81-21.958z"/><path fill="#f9a34e" stroke="#f9a34e" d="m214.056 53.274-6.419-29.34 44.903 2.631 9.226 20.022-43.531 8.12-4.18-1.433Zm-20.361 108.299 1.215-4.223 36.844-22.848 14.983 48.2-3.535 31.612-30.4 8.179-18.958-59.351-.149-1.57Zm-35.987-42.948-16.695-2.734 4.178-38.517 10.627-7.631 22.627 5.84 5.562 18.59z"/><path fill="#d8ae54" stroke="#d8ae54" d="m106.497 0-5.207 22.672-9.667 19.61-74.839-8.437L0 29.148V0z"/><path fill="#f9a34e" stroke="#f9a34e" d="m159.457 184.943 34.387-21.801 18.959 59.35-4.725 3.743-8.215.015z"/><path fill="#d8ae54" stroke="#d8ae54" d="m199.863 226.25 8.215-.015 3.893 60.992-39.298 11.401-19.214-11.345-11.253-17.092 7.313-28.382z"/><path fill="#d8ae54" stroke="#d8ae54" d="m159.457 184.943 40.406 41.307-50.344 15.56-39.553-31.935-3.514-10.258.226-14.769 5.095-20.928 10.776 1.381z"/><path fill="#f9a34e" stroke="#f9a34e" d="m142.206 270.191 11.253 17.092-21.472 36.134-28.181 13.976 10.198-55.777z"/><path fill="#d8ae54" stroke="#d8ae54" d="M222.252 114.622 204.007 64.98l10.049-11.706 4.179 1.433 32.047 37.26-16.455 29.191z"/><path fill="#f9a34e" stroke="#f9a34e" d="m141.013 115.891-33.538 36.44-.772-.572-21.257-52.512 6.27-26.265 4.804-8.343 48.67 12.735z"/><path fill="#d8ae54" stroke="#d8ae54" d="m322.935 247.615 18.694-24.512L382 260.685v6.863l-42.16-4.82zM52.4 290.38l37.235 65.978-1.78 17.686L86.5 382H49.594L0 309.552V260.05l24.675 8.58zM382 183.343l-30.01 1.653-18.893-15.011-12.325-26.83L382 96.093zM254.748 18.251 262.171 0h11.256l15.697 44.936-4.079 13.531-23.28-11.88-9.225-20.022zm10.358 299.06 42.773-62.102.708-.087 24.358 47.474-54.735 27.732-15.477-6.828z"/><path fill="#f9a34e" stroke="#f9a34e" d="m382 260.685-40.371-37.582 10.36-38.107L382 183.343z"/><path fill="#d8ae54" stroke="#d8ae54" d="M145.19 77.374 96.52 64.64l-4.897-22.357 9.667-19.61 54.812 28.614-.284 18.457-10.627 7.631ZM90.396 243.173l13.096 33.172-51.091 14.035-27.726-21.75zm156.341-60.471-14.983-48.2 3.186-9.566 64.297 14.359z"/><path fill="#f9a34e" stroke="#f9a34e" d="m0 59.534 40.353 37.673 2.455 4.129-11.76 39.286L0 140.72zm122.549 105.767-10.776-1.38-4.298-11.59 33.538-36.44 16.695 2.734 20.56 8.838 2.096 11.562-52.072 24.928zM162.063 382l13.735-37.864 56.474 32.298L230.9 382zm21.944-287.828-5.562-18.589 25.562-10.603 18.245 49.642-26.657-2.866z"/><path fill="#d8ae54" stroke="#d8ae54" d="m86.501 382 1.353-7.956 82.326-42.914 6.054 8.54-.436 4.466L162.063 382H86.5Z"/><path fill="#f9a34e" stroke="#f9a34e" d="m114.004 281.616-10.198 55.777-14.17 18.965L52.4 290.38l51.091-14.035 10.512 5.271Z"/><path fill="#d8ae54" stroke="#d8ae54" d="m278.21 330.328 54.735-27.732 13.335 2.783-24.733 65.965zM159.457 184.943 122.55 165.3l5.743-1.348 65.403-2.38.15 1.569-34.388 21.8Z"/><path fill="#f9a34e" stroke="#f9a34e" d="m85.446 99.247-42.638 2.089-2.455-4.13L57.412 72.42l34.303.563-6.269 26.265Z"/><path fill="#d8ae54" stroke="#d8ae54" d="m178.269 127.463-20.56-8.838 26.298-24.453 11.588 17.584z"/><path fill="#f9a34e" stroke="#f9a34e" d="m180.364 139.025-2.095-11.562 17.326-15.707 26.657 2.866 11.575 6.536 1.113 3.778-3.186 9.566-36.844 22.848zm-73.686 45.823-70.21 5.812 3.002-43.745 67.233 4.844.772.573 4.298 11.588z"/><path fill="#d8ae54" stroke="#d8ae54" d="m211.97 287.227 31.687 34.069-67.423 18.373-6.054-8.539-.89-2.048 3.383-30.454 39.298-11.4Z"/><path fill="#f9a34e" stroke="#f9a34e" d="M57.412 72.42 40.353 97.206 0 59.534V29.148l16.784 4.697zm49.291 79.339-67.233-4.844-8.422-6.293 11.76-39.286 42.638-2.089z"/><path fill="#d8ae54" stroke="#d8ae54" d="m246.737 182.702 52.5-43.407 15.31-1.655 6.225 5.515 12.325 26.83-79.201 47.208-3.225-.28-7.47-2.599zM39.47 146.915l-3.002 43.745-28.944 45.822L0 243.384V140.72l31.048-.098z"/><path fill="#f9a34e" stroke="#f9a34e" d="m131.987 323.417 21.472-36.134 19.214 11.345-3.382 30.454zm111.67-2.121 8.679 4.898-20.064 50.24-56.474-32.298.436-4.467z"/><path fill="#d8ae54" stroke="#d8ae54" d="m178.445 75.583-22.627-5.84.284-18.457L174.554 0h20.117l1.155 1.977 11.811 21.957 6.419 29.34-10.049 11.706z"/></svg></g></svg>