<svg xmlns="http://www.w3.org/2000/svg" viewBox="0 0 382 382"><defs><clipPath id="a"><path d="M382 382H0V0h382z"/></clipPath></defs><g clip-path="url(#a)"><svg xmlns="http://www.w3.org/2000/svg" width="382" height="382" style="shape-rendering:geometricPrecision"><path fill="#3a67b0" stroke="#3a67b0" d="M141.035 327.164 142.962 382H76.237l-22.862-75.261 74.476 5.05zM210.858 284.538l51.905 6.488 7.583 31.018-51.76-1.85-10.658-25.763z"/><path fill="#b783c5" stroke="#b783c5" d="m270.346 322.044-7.583-31.018 35.575-23.83 6.276 17.242-32.54 39.388zM176.099 56.963l-.122-.952 57.564-33.417 1.66 36.405-49.168 7.677z"/><path fill="#3a67b0" stroke="#3a67b0" d="m382 217.775-26.053-18.905-27.125-47.022 15.86-18.038L382 130.543z"/><path fill="#b783c5" stroke="#b783c5" d="m186.742 219.905 30.534 17.749-8.22 34.862-76.957-11.396-10.5-23.154 21.536-14.71zM235.201 59l-1.66-36.406L240.077 0h9.688l38.616 40.628-8.428 22.382-18.667 19.833-16.107.763zM116.105 48.49l-5.05-4.897L129.578 0h38.6l.118 44.171z"/><path fill="#3a67b0" stroke="#3a67b0" d="m240.354 221.476-30.02-58.261 38.081-22.3 33.598 17.857-18.364 57.657z"/><path fill="#b783c5" stroke="#b783c5" d="m150.659 139.588-7.524 83.669-21.536 14.71-30.317-10.348-13.264-18.91 13.593-68.782 37.492-9.528zM175.447 152.907l-13.22-12.178 4.14-3.613 66.167-31.265 15.881 35.064-38.08 22.3z"/><path fill="#3a67b0" stroke="#3a67b0" d="M78.018 208.709 0 216.67v-63.582l81.63-19.482 9.98 6.32zM382 130.543l-37.317 3.267-3.479-47.297L382 63.615z"/><path fill="#b783c5" stroke="#b783c5" d="m91.282 227.62-39.865 77.605L0 301.638V216.67l78.018-7.962zM240.354 221.476l23.295-5.047 12.892 9.44 22.666 36.744-.869 4.583-35.575 23.83-51.905-6.488-1.803-12.022 8.221-34.862z"/><path fill="#b783c5" stroke="#b783c5" d="m132.1 261.12-4.25 50.67-74.475-5.051-1.958-1.514 39.865-77.606 30.317 10.347zM382 43.687l-31.062-9.42L336.742 0H382zM280.276 331.244l23.882-.048L321.95 382h-28.378l-15.337-35.685zM186.742 219.905l-43.607 3.352 7.524-83.669 11.568 1.14 13.22 12.18z"/><path fill="#3a67b0" stroke="#3a67b0" d="m231.364 382 46.871-35.685L293.572 382zM270.346 322.044l1.728 1.782 1.606 2.975-50.682 44.205-4.412-50.812z"/><path fill="#b783c5" stroke="#b783c5" d="m0 63.287 17.339 1.524 5.76 32.01L0 100.436zM91.61 139.927l-9.98-6.32-21.27-38.984.012-33.107 4.942-16.845 45.741-1.078 5.05 4.897 17.203 53.855-4.205 28.054z"/><path fill="#b783c5" stroke="#b783c5" d="m176.099 56.963-42.79 45.382-17.204-53.855 52.19-4.319 7.682 11.84z"/><path fill="#b783c5" stroke="#b783c5" d="m150.659 139.588-21.556-9.189 4.205-28.054L176.1 56.963l9.934 9.713 5.506 13.67-25.171 56.77-4.141 3.613zM288.38 40.628 249.766 0h69.911l-5.749 40.472z"/><path fill="#3a67b0" stroke="#3a67b0" d="m296.37 150.568-6.172-46.052 27.136-21.542 9.204-3.33 14.666 6.869 3.479 47.297-15.861 18.038z"/><path fill="#b783c5" stroke="#b783c5" d="m290.198 104.516-28.912-21.673 18.667-19.833 37.38 19.964z"/><path fill="#3a67b0" stroke="#3a67b0" d="m207.928 294.43 10.658 25.764 4.412 50.812L221.56 382h-78.599l-1.927-54.836zM326.538 79.644l-10.619-37.646 35.02-7.73L382 43.687v19.927l-40.796 22.898z"/><path fill="#b783c5" stroke="#b783c5" d="M60.36 94.623 23.1 96.822l-5.761-32.01 43.033-3.296z"/><path fill="#3a67b0" stroke="#3a67b0" d="M0 0h41.662l23.652 44.67-4.942 16.846-43.033 3.295L0 63.287z"/><path fill="#b783c5" stroke="#b783c5" d="m272.074 323.826 32.54-39.388 15.017 24.868-15.473 21.89-23.882.048-6.596-4.443z"/><path fill="#3a67b0" stroke="#3a67b0" d="m129.578 0-18.523 43.593-45.741 1.078L41.662 0zM81.63 133.607 0 153.089v-52.654l23.1-3.613 37.26-2.2zM191.539 80.347l-5.506-13.67 49.168-7.678 9.978 24.607-10.968 15.056z"/><path fill="#b783c5" stroke="#b783c5" d="m175.977 56.011-7.681-11.84L168.178 0h71.899l-6.536 22.594z"/><path fill="#3a67b0" stroke="#3a67b0" d="m232.534 105.851 1.677-7.19 10.968-15.055 16.107-.763 28.912 21.673 6.173 46.052-14.358 8.204-33.598-17.857zM263.65 216.43l18.363-57.658 14.358-8.204 32.45 1.28 27.126 47.022-79.406 26.998z"/><path fill="#b783c5" stroke="#b783c5" d="m279.953 63.01 8.428-22.382 25.546-.156 1.992 1.526 10.619 37.646-9.204 3.33z"/><path fill="#3a67b0" stroke="#3a67b0" d="m276.54 225.868 79.407-26.998L382 217.775v27.759l-82.793 17.079z"/><path fill="#3a67b0" stroke="#3a67b0" d="M299.207 262.613 382 245.533v72.743l-62.37-8.97-15.016-24.868-6.276-17.242z"/><path fill="#b783c5" stroke="#b783c5" d="m132.1 261.12 76.955 11.396 1.803 12.022-2.93 9.893-66.893 32.733-13.184-15.374z"/><path fill="#3a67b0" stroke="#3a67b0" d="m232.534 105.851-66.166 31.265 25.17-56.77 42.673 18.316zM186.742 219.905l-11.295-66.998 34.888 10.308 30.02 58.26-23.079 16.179z"/><path fill="#b783c5" stroke="#b783c5" d="m0 301.638 51.417 3.587 1.958 1.514L76.237 382H0zM321.95 382l-17.792-50.804 15.473-21.89 62.369 8.97V382zM221.561 382l1.437-10.994L273.68 326.8l6.596 4.443-2.04 15.071L231.363 382z"/><path fill="#3a67b0" stroke="#3a67b0" d="M313.927 40.472 319.677 0h17.065l14.196 34.267-35.019 7.731z"/></svg></g></svg>