<svg xmlns="http://www.w3.org/2000/svg" viewBox="0 0 382 382"><defs><clipPath id="a"><path d="M382 382H0V0h382z"/></clipPath></defs><g clip-path="url(#a)"><svg xmlns="http://www.w3.org/2000/svg" width="382" height="382" style="shape-rendering:geometricPrecision"><path fill="#33e986" stroke="#33e986" d="m51.787 184.227 6.272 21.585L0 216.61v-18.15l32.799-25.913 6.149-1.384zM330.66 114.55l-10.614-44.797 21.55-19.438L382 71.82v36.165l-45.094 12.872z"/><path fill="#ca7621" stroke="#ca7621" d="m266.528 343.4 34.318-56.234 19.4 8.377 15.364 18.719 18.906 30.043-87.015 13.952z"/><path fill="#33e986" stroke="#33e986" d="m173.991 0-8.72 28.33-6.951-.432L100.478 0zM382 178.52l-46.59-42.04 1.496-15.623L382 107.985z"/><path fill="#ca7621" stroke="#ca7621" d="m178.43 128.698-15.22 11.996-54.232 8.462 21.302-60.25 36.97-4.962z"/><path fill="#33e986" stroke="#33e986" d="m290.247 168.275-2.593 3.784-41.03-35.66 4.892-31.067 26.438 12.356z"/><path fill="#ca7621" stroke="#ca7621" d="m185.822 268.403 19.79 27.52-4.607 28.69-20.77 7.362-27.191-38.334 2.924-7.167z"/><path fill="#33e986" stroke="#33e986" d="M0 0h96.422L81.106 34.421 11.782 54.477 0 50.073zM0 50.073l11.782 4.404 36.854 33.616-8.819 45.352-25.075 5.304L0 137.165z"/><path fill="#ca7621" stroke="#ca7621" d="m203.395 174.732 1.363-11.811 34.583-14.626 20.053 45.17-51.913-10.935z"/><path fill="#33e986" stroke="#33e986" d="m173.096 181 30.3-6.268 4.085 7.798-8.67 51.362-39.764-13.156-4.703-25.493zM106.933 169.722l-15.355 38.923-31.62-2.138-1.9-.695-6.27-21.585 37.074-33.337 4.976-.3 9.597 4.204zM216.311 327.756l27.665-18.133 22.552 33.777.973 14.857-18.443 22.997zM162.324 155.882l-23.506 27.637-31.885-13.797-3.498-14.928 5.543-5.638 54.233-8.462z"/><path fill="#ca7621" stroke="#ca7621" d="m131.903 37.872-15.44 14.503-4.273-29.803z"/><path fill="#33e986" stroke="#33e986" d="m250.573 103.68-1.141-6.792 40.808-36.322 29.806 9.187 10.613 44.796-52.705 3.14-26.438-12.357zM335.217 272.228 382 245.224v10.384l-46.39 58.654-15.364-18.72z"/><path fill="#ca7621" stroke="#ca7621" d="m382 71.82-40.404-21.505L349.852 0H382zM382 365.269l-27.484-20.964-18.906-30.043L382 255.608zM0 137.165l14.742 1.584 18.057 33.798L0 198.459zM201.256 237.248l46.69-7.313 21.8 48.89-18.152 9.75-18.049-6.462-32.875-38.837zM88.862 150.89l-37.075 33.337-12.84-13.064 16.293-23.605z"/><path fill="#33e986" stroke="#33e986" d="m323.356 212.991 15.6-1.174-3.739 60.411-14.97 23.315-19.401-8.377-1.34-1.112 11.846-56.445zM233.545 282.113l18.05 6.463-7.619 21.047-27.665 18.133-15.306-3.143 4.608-28.69z"/><path fill="#33e986" stroke="#33e986" d="m290.247 168.275 38.91-22.516 10.462 65.79-.664.268-15.599 1.174-39.98-26.727 4.278-14.205z"/><path fill="#ca7621" stroke="#ca7621" d="M270.14 0h79.712l-8.256 50.315-21.55 19.438-29.806-9.187zM239.341 148.295l7.283-11.896 41.03 35.66-4.278 14.205-19.993 9.844-3.989-2.643z"/><path fill="#33e986" stroke="#33e986" d="m88.862 150.89-33.622-3.332-15.423-14.113 8.819-45.352 19.645 4.29 25.557 58.208zM269.747 278.825l-21.802-48.89 10.027-14.45 27.288 17.264-2.778 47.868z"/><path fill="#33e986" stroke="#33e986" d="m68.28 92.383-19.644-4.29-36.854-33.616 69.324-20.056 26.078 35.585.767 4.276zM204.758 162.92l-14.769-27.013 60.584-32.227.943 1.652-4.892 31.067-7.283 11.896zM180.812 67.503 165.27 28.331 173.99 0h76.575l-36.572 65.932z"/><path fill="#ca7621" stroke="#ca7621" d="M59.958 206.507 45.227 265.51 0 281.068V216.61l58.059-10.798z"/><path fill="#33e986" stroke="#33e986" d="m38.948 171.163-6.15 1.384-18.056-33.798 25.075-5.304 15.423 14.113z"/><path fill="#ca7621" stroke="#ca7621" d="m57.312 382 39.181-61.426 29.402-14.56 35.71 75.09-.234.896zM269.747 278.825l12.735 1.792 17.024 5.437 1.34 1.112-34.318 56.234-22.552-33.777 7.618-21.047zM198.811 233.892l2.445 3.356-.586 6.028-14.848 25.127-29.854 18.071-22.036-47.514 25.115-18.224z"/><path fill="#33e986" stroke="#33e986" d="m198.811 233.892 8.67-51.362 51.913 10.935 3.99 2.643-5.412 19.378-10.027 14.449-46.689 7.313z"/><path fill="#ca7621" stroke="#ca7621" d="m94.405 248.919 40.045 50.36-8.555 6.735-29.402 14.56-14.93-59.984z"/><path fill="#33e986" stroke="#33e986" d="m130.28 88.906-21.302 60.25-5.543 5.638-9.597-4.203L68.28 92.383l39.67-18.1zM154.344 195.243l4.703 25.493-25.115 18.224-32.26-2.479-10.094-27.836 15.355-38.923 31.885 13.797zM290.247 168.275l-12.293-50.587 52.705-3.139 6.247 6.308-1.495 15.623-6.254 9.279z"/><path fill="#ca7621" stroke="#ca7621" d="m178.43 128.698-11.18-44.754 13.562-16.44 33.182-1.572 35.438 30.956 1.141 6.792-60.584 32.227z"/><path fill="#33e986" stroke="#33e986" d="m173.096 181-10.772-25.118.887-15.188 15.22-11.996 11.558 7.209 14.77 27.014-1.364 11.811z"/><path fill="#ca7621" stroke="#ca7621" d="M382 382H248.857l.2-.746 18.444-22.997 87.015-13.952L382 365.269z"/><path fill="#33e986" stroke="#33e986" d="m339.619 211.55 42.381-.118v33.792l-46.783 27.004 3.738-60.41zM329.157 145.759l6.254-9.279L382 178.52v32.912l-42.381.117z"/><path fill="#ca7621" stroke="#ca7621" d="m200.67 243.276 32.875 38.837-27.932 13.81-19.791-27.52z"/><path fill="#33e986" stroke="#33e986" d="m94.405 248.919-12.843 11.67-36.335 4.92 14.73-59.002 31.621 2.138 10.095 27.836zM131.903 37.872l-19.713-15.3L100.33 0h.148l57.842 27.898z"/><path fill="#ca7621" stroke="#ca7621" d="M107.184 70.006 81.106 34.42 96.422 0h3.908l11.86 22.572 4.274 29.803zM0 382V281.068l45.227-15.558 36.335-4.92 14.931 59.984L57.312 382zM153.044 293.641l27.19 38.334-18.629 49.13-35.71-75.091 8.555-6.735zM133.932 238.96l22.036 47.514-2.924 7.167-18.594 5.638-40.045-50.36 7.268-12.438z"/><path fill="#ca7621" stroke="#ca7621" d="m216.311 327.756 32.747 53.498-.2.746H161.37l.234-.895 18.63-49.13 20.77-7.362z"/><path fill="#33e986" stroke="#33e986" d="m130.28 88.906-22.329-14.624-.767-4.276 9.28-17.63 15.44-14.504 26.416-9.974 6.95.433 15.542 39.172-13.563 16.44z"/><path fill="#ca7621" stroke="#ca7621" d="m263.383 196.108 19.993-9.844 39.98 26.727-12.004 16.618-26.092 3.14-27.288-17.263z"/><path fill="#33e986" stroke="#33e986" d="m173.096 181-18.752 14.243-15.526-11.724 23.506-27.637z"/><path fill="#ca7621" stroke="#ca7621" d="m249.432 96.888-35.438-30.956L250.566 0h19.575l20.1 60.566zM285.26 232.749l26.092-3.14-11.846 56.445-17.024-5.437z"/></svg></g></svg>