<svg xmlns="http://www.w3.org/2000/svg" viewBox="0 0 382 382"><defs><clipPath id="a"><path d="M382 382H0V0h382z"/></clipPath></defs><g clip-path="url(#a)"><svg xmlns="http://www.w3.org/2000/svg" width="382" height="382" style="shape-rendering:geometricPrecision"><path fill="#f53a0c" stroke="#f53a0c" d="m71.316 144.077-33.575 13.46-12.832-32.22 43.47-11.34 8.47.838 4.269 6.52zM266.077 264.789l78.172-31.481.17.031.798 12.229-54.57 56.799-22.472 3.522-20.15-12.38z"/><path fill="#98da55" stroke="#98da55" d="m182.503 69.892-6.747-17.795L185.843 0h35.565l2.152 4.611zM226.271 165.844l-.076-2.433 27.011-10.834 33.253 6.865-8.918 31.176z"/><path fill="#f53a0c" stroke="#f53a0c" d="m151.737 178.815-7.3 8.256-69.01-18.298-4.11-24.696 9.8-22.743 21.885 2.253 48.798 21.28zM352.213 0l-14.802 59.965-34.914-58.303.417-1.662zM101.254 0l-1.26 4.464-30.398 22.899L66.902 0zM93.011 307.862 120.258 382H55.45l5.981-66.199 17.506-8.585zM290.646 302.367l54.57-56.8 14.156 57.562zM63.377 250.05 41.87 261.234l-18.027-11.208 19.353-32.318 20.456 2.947z"/><path fill="#98da55" stroke="#98da55" d="m277.574 191.049 33.503 16.436.561.69-44.059 41.87-2.293-42.52zM187.103 86.414l-57.777-2.943-8.323-30.245 65.006 30.927z"/><path fill="#98da55" stroke="#98da55" d="m194.704 95.938-7.601-9.524-1.094-2.26-3.506-14.262L223.56 4.611l4.208 6.864 9.824 53.078-8.898 13.801zM0 0h27.824L68.46 29.825l.478 30.961L0 47.34zM145.53 256.047l58.867-4.293 37.42 42.346-9.863 10.617-26.83 19.162-47.019-4.96-32.243-22.946z"/><path fill="#f53a0c" stroke="#f53a0c" d="m212.276 202.474 53.01 5.05 2.293 42.52-1.502 14.745-18.052 28.72-6.209.59-37.42-42.345.246-42.992zM231.954 304.717 245.817 382h-9.531l-35.282-38.289 4.12-19.832zM267.58 250.044l44.058-41.87 32.611 25.134-78.172 31.481z"/><path fill="#98da55" stroke="#98da55" d="m187.419 382 13.585-38.289L236.286 382zM145.53 256.047l-19.668 39.926-18.145 5.078-16.033-81.771 34.464-1.977zM23.843 250.025l-5.69 7.766L0 243.846V210.55l29.342-.103 13.854 7.26z"/><path fill="#f53a0c" stroke="#f53a0c" d="m118.036 49.275-7.627-.249L99.995 4.464 101.255 0h43.112l-7.623 33.426z"/><path fill="#98da55" stroke="#98da55" d="m291.966 116.636 23.196-34.118 25.763-7.455 27.012 7.614-19.975 74.011-18.9-.511-30.026-10.732z"/><path fill="#f53a0c" stroke="#f53a0c" d="m278.904 53.658 5.944-30.451 17.649-21.545 34.914 58.303 3.514 15.098-25.763 7.455zM110.409 49.026l-36.65 16.306-4.82-4.546-.478-30.96 1.135-2.463L99.995 4.464z"/><path fill="#98da55" stroke="#98da55" d="M61.431 315.801 55.45 382H25.247L10.27 316.165l25.226-4.534z"/><path fill="#f53a0c" stroke="#f53a0c" d="m71.366 216.207 20.318 3.073 16.033 81.77-14.706 6.812-14.074-.646-15.56-57.165.275-29.397zM226.195 163.411l-23.05-37.642 49.116 4.28.945 22.528z"/><path fill="#98da55" stroke="#98da55" d="m278.904 53.658-41.312 10.895-9.824-53.078 57.08 11.732zM0 243.846l18.153 13.945-.023.822-2.363 1.721L0 261.717zM76.849 114.815l-8.47-.838L0 88.531V47.34l68.94 13.445 4.818 4.546zM277.54 190.618l8.919-31.176 12.577-13.997 30.027 10.732-17.986 51.308-33.503-16.436z"/><path fill="#f53a0c" stroke="#f53a0c" d="m311.077 207.485 17.986-51.308 18.899.511L382 189.944v17.701l-37.581 25.694-.17-.031-32.61-25.134zM0 261.717l15.767-1.383L0 282.794z"/><path fill="#98da55" stroke="#98da55" d="m0 166.56 29.986-2.909-.644 46.796L0 210.55z"/><path fill="#f53a0c" stroke="#f53a0c" d="m0 113.228 21.843 12.845-.045.294-5.669 16.956L0 142.017zM23.843 250.025l18.027 11.208-13.362 9.614-10.378-12.234.023-.822zM190.79 113.874l-38.99 30.993-48.798-21.28 26.324-40.116 57.777 2.943 7.601 9.524z"/><path fill="#98da55" stroke="#98da55" d="m75.427 168.773-4.061 47.434-7.714 4.447-20.456-2.947-13.854-7.26.644-46.796 2.525-3.425 5.074-2.626.156-.063 33.575-13.46zM382 189.944l-34.038-33.256 19.975-74.011L382 79.574z"/><path fill="#f53a0c" stroke="#f53a0c" d="m0 315.53 10.27.635L25.247 382H0zM144.438 187.07l-18.29 30.233-34.464 1.977-20.318-3.073 4.061-47.434z"/><path fill="#98da55" stroke="#98da55" d="m0 142.017 16.13 1.306 16.381 16.903-2.525 3.425L0 166.56zM135.941 382l22.164-63.08 47.019 4.959-4.12 19.832L187.419 382zM382 79.574l-14.063 3.103-27.012-7.614-3.514-15.098L352.213 0H382zM24.909 125.316l12.832 32.22-.156.064-15.787-31.233.045-.294zM204.642 208.762l-.245 42.992-58.866 4.293-19.383-38.744 18.29-30.232 7.299-8.256zM28.508 270.847l6.988 40.784-25.226 4.534L0 315.531v-32.738l15.767-22.459 2.363-1.721zM382 323.226l-22.628-20.097-14.155-57.561-.798-12.229L382 207.645zM158.105 318.92 135.941 382h-15.683l-27.247-74.138 14.706-6.811 18.145-5.078z"/><path fill="#98da55" stroke="#98da55" d="m24.909 125.316-3.066.757L0 113.228V88.531l68.378 25.446zM248.025 293.51l20.15 12.379 21.487 40.466L255.806 382h-9.99l-13.862-77.283 9.862-10.617z"/><path fill="#f53a0c" stroke="#f53a0c" d="m66.902 0 2.694 27.363-1.135 2.462L27.824 0z"/><path fill="#98da55" stroke="#98da55" d="m252.261 130.049-49.117-4.28-12.353-11.895 3.913-17.936 33.99-17.584 47.693 35.17z"/><path fill="#f53a0c" stroke="#f53a0c" d="m253.206 152.577-.945-22.528 24.126-16.525 15.58 3.112 7.07 28.81-12.578 13.996z"/><path fill="#98da55" stroke="#98da55" d="m255.806 382 33.856-35.645L329.065 382zM276.387 113.524l-47.693-35.17 8.898-13.801 41.312-10.895 36.258 28.86-23.196 34.118zM226.271 165.844l-13.995 36.63-7.634 6.288-52.905-29.947.063-33.948 38.99-30.993 12.354 11.895 23.051 37.642z"/><path fill="#f53a0c" stroke="#f53a0c" d="m185.843 0-10.087 52.097-39.012-18.671L144.367 0z"/><path fill="#98da55" stroke="#98da55" d="m186.01 84.153-65.007-30.927-2.967-3.95 18.708-15.85 39.012 18.671 6.747 17.795z"/><path fill="#98da55" stroke="#98da55" d="m103.002 123.587-21.884-2.253-4.27-6.519-3.09-49.483 36.65-16.306 7.628.25 2.967 3.95 8.323 30.245zM302.914 0l-.417 1.662-17.649 21.545-57.08-11.732-4.208-6.864L221.408 0zM21.798 126.367 37.585 157.6l-5.074 2.626-16.382-16.903z"/><path fill="#f53a0c" stroke="#f53a0c" d="M382 382h-52.935l-39.403-35.645-21.487-40.466 22.471-3.522 68.726.762L382 323.226z"/><path fill="#98da55" stroke="#98da55" d="m226.271 165.844 51.27 24.774.033.431-12.288 16.476-53.01-5.05zM63.377 250.05l15.56 57.166-17.506 8.585-25.935-4.17-6.988-40.784 13.362-9.614z"/></svg></g></svg>