<svg xmlns="http://www.w3.org/2000/svg" viewBox="0 0 382 382"><defs><clipPath id="a"><path d="M382 382H0V0h382z"/></clipPath></defs><g clip-path="url(#a)"><svg xmlns="http://www.w3.org/2000/svg" width="382" height="382" style="shape-rendering:geometricPrecision"><path fill="#bd261c" stroke="#bd261c" d="M94.396 77.68 54.86 105.11l-2.42-.84-17.88-20.972 16.447-39.396 29.058-9.914 26.524 29.883z"/><path fill="#b5d6ad" stroke="#b5d6ad" d="m0 176.833 12.294 1.321 5.246 45.33-8.062 18.197L0 248.155z"/><path fill="#bd261c" stroke="#bd261c" d="m110.356 162.35-8.083-.588-8.305-1.523-.354-13.293 26.708-45.444-3.624 51.887zM326.244 42.375l-3.915-30.81L323.283 0h23.124L382 43.327v9.46l-8.379 3.165-46.338-10.782z"/><path fill="#b5d6ad" stroke="#b5d6ad" d="M243.889 139.267 191.69 127.56l-3.36-10.053L225.77 88.07l23.352-6.416 26.004 8.587-5.877 43.823zM0 93.633l28.611 15.345-11.657 17.673L0 112.257z"/><path fill="#bd261c" stroke="#bd261c" d="m52.234 184.569-6.013 36.828-18.08 17.653-18.663 2.63 8.062-18.195z"/><path fill="#b5d6ad" stroke="#b5d6ad" d="m178.9 111.463-39.127-42.84 15.997-16.96 38.155-5.334 16.83 2.571 15.014 39.17-37.437 29.436zM382 382H281.686l22.665-111.59 9.451-15.685L382 280.451zM323.069 105.692l-27.872-22.345 32.086-38.177 46.338 10.782-19.1 35.724z"/><path fill="#bd261c" stroke="#bd261c" d="m120.63 346.285 30.307 18.282.342 17.433H98.84l7.92-32.057zM0 0h74.593l5.472 33.988-29.058 9.914L0 46.71zM190.356 146.072l-43.843 48.514-36.157-32.236 6.342-8.961 62.203-41.926 9.43 6.043 3.36 10.053zM50.624 170.625l-38.33 7.529L0 176.833V142.76l17.715-6.053L43.98 151.85z"/><path fill="#b5d6ad" stroke="#b5d6ad" d="m129.89 312.467-9.26 33.818-13.871 3.658-3.074-2.49 10.69-33.81zM382 280.45l-68.198-25.725-.85-4.07 47.372-46.928L382 199.638z"/><path fill="#bd261c" stroke="#bd261c" d="m382 199.638-21.676 4.09-20.75-49.238 3.017-5.894 39.409-8.12zM244.96 169.973l-1.071-30.706 25.359-5.203 10.551 13.916 9.585 38.17-3.309 9.316-29.713-7.907z"/><path fill="#b5d6ad" stroke="#b5d6ad" d="m91.778 313.88-12.035 16.217-7.508 1.937-6.52-2.66-37.444-30.599 32.278-19.656 27.482-6.06zM76.707 231.823l-26.224 11.252-22.342-4.025 18.08-17.653 28.638 8.076z"/><path fill="#bd261c" stroke="#bd261c" d="m102.273 161.762-3.492 58.784-28.58-50.058 22.818-9.978.95-.271zM147.291 216.255l-39.357 26.794-.122.043-.553-.409-8.478-22.137 3.492-58.784 8.083.588 36.157 32.236z"/><path fill="#b5d6ad" stroke="#b5d6ad" d="M382 43.327 346.407 0H382zM178.9 111.463l-62.202 41.926 3.624-51.887 6.625-33.877 3.699-.098 9.127 1.096zM289.384 186.15l50.19-31.66 20.75 49.237-47.372 46.927-19.204-24.742-7.673-30.446zM216.367 196.019l-21.958-44.45 50.55 18.404 11.403 17.586z"/><path fill="#bd261c" stroke="#bd261c" d="m216.948 279.667 25.688 77.678-70.769-25.185-9.44-24.656 5.854-12.244 30.037-30.72zM52.234 184.569 17.54 223.485l-5.246-45.331 38.33-7.529 2.882 2.048-1.173 11.723zM259.831 34.745l3.519-29.296 22.89 21.648 1.835 5.233-5.31 17.44zM216.367 196.019l-1.737 4.787-30.27 36.052-37.069-20.603-.778-21.67 43.843-48.513 4.053 5.496z"/><path fill="#bd261c" stroke="#bd261c" d="m214.63 200.806 33.717 32.207-50.064 31.076-13.923-27.231z"/><path fill="#bd261c" stroke="#bd261c" d="m198.283 264.089 50.064-31.076 45.4-7.101 19.205 24.742.85 4.071-9.451 15.685-87.403 9.257-18.63-15.126zM244.96 169.973l-50.55-18.405-4.054-5.496 1.335-18.513 52.198 11.708zM0 296.96l28.27 1.815 37.445 30.6L9.661 382H0zM107.812 243.092l-6.496 16.541-13.285 13.425-27.482 6.061-10.066-36.044 26.224-11.252 30.552 10.86z"/><path fill="#b5d6ad" stroke="#b5d6ad" d="m223.024 0 1.314 33.647L210.754 48.9l-16.829-2.57L215.302 0zM52.234 184.569l.1-.173 22.525 45.077-28.638-8.076zM52.44 104.27l-23.829 4.708L0 93.633V73.684l34.56 9.614z"/><path fill="#b5d6ad" stroke="#b5d6ad" d="M34.56 83.298 0 73.684V46.71l51.007-2.808zM216.367 196.019l39.995-8.46 29.713 7.907 7.673 30.446-45.401 7.101-33.717-32.207z"/><path fill="#bd261c" stroke="#bd261c" d="m162.427 307.504 9.44 24.656-20.93 32.407-30.308-18.282 9.26-33.818 4.032-3.166z"/><path fill="#b5d6ad" stroke="#b5d6ad" d="m93.968 160.239-.949.27-28.918-42.889 27.025 14.844 2.488 14.482z"/><path fill="#bd261c" stroke="#bd261c" d="m70.2 170.488-16.694 2.185-2.882-2.048-6.645-18.775 10.96-43.375 9.162 9.145 28.918 42.89zM292.784 83.384l-10.02-33.614 5.311-17.44 38.17 10.045 1.038 2.795-32.086 38.177zM382 128.193l-27.48-36.517 19.101-35.724L382 52.786zM224.338 33.647 223.024 0h38.773l1.553 5.45-3.519 29.295-12.546 16.972z"/><path fill="#bd261c" stroke="#bd261c" d="M54.94 108.475 43.98 151.85l-26.265-15.142-.761-10.057 11.657-17.673 23.829-4.708 2.42.84z"/><path fill="#b5d6ad" stroke="#b5d6ad" d="m120.322 101.502-26.708 45.444-2.488-14.482 3.27-54.785 12.193-13.808 20.358 3.754z"/><path fill="#b5d6ad" stroke="#b5d6ad" d="m94.396 77.68-3.27 54.784L64.1 117.62l-9.162-9.145-.08-3.365zM41.885 382l27.06-21.335L97.497 382zM216.948 279.667l87.403-9.257L281.686 382h-14.434l-24.616-24.655z"/><path fill="#bd261c" stroke="#bd261c" d="m215.302 0-21.377 46.33-38.155 5.333L176.837 0zM289.384 186.15l-9.585-38.17 45.812-26.709 16.98 27.325-3.016 5.894z"/><path fill="#bd261c" stroke="#bd261c" d="m325.611 121.271-2.542-15.579 31.451-14.016L382 128.193v12.284l-39.41 8.119z"/><path fill="#b5d6ad" stroke="#b5d6ad" d="m0 112.257 16.954 14.394.761 10.057L0 142.76zM269.248 134.064l5.877-43.823 17.659-6.857 2.413-.037 27.872 22.345 2.542 15.579L279.8 147.98zM225.769 88.07 210.754 48.9l13.584-15.253 22.947 18.07 1.836 29.937zM151.28 382l-.343-17.433 20.93-32.407 70.77 25.185L267.251 382z"/><path fill="#bd261c" stroke="#bd261c" d="m139.773 68.623-9.127-1.096L133.927 0h42.91L155.77 51.663zM106.759 349.943 98.839 382h-1.342l-28.552-21.335 3.29-28.63 7.508-1.938 23.942 17.356z"/><path fill="#b5d6ad" stroke="#b5d6ad" d="m114.375 313.643-10.69 33.81-23.942-17.356 12.035-16.216z"/><path fill="#bd261c" stroke="#bd261c" d="m107.934 243.049 60.347 52.211-5.854 12.244-28.506 1.797-32.605-49.668 6.496-16.54z"/><path fill="#b5d6ad" stroke="#b5d6ad" d="m50.483 243.075 10.066 36.044-32.278 19.656L0 296.96v-48.805l9.478-6.474 18.663-2.63zM70.2 170.488l28.581 50.058 8.478 22.137-30.552-10.86-1.848-2.35-22.526-45.077 1.173-11.723z"/><path fill="#bd261c" stroke="#bd261c" d="m288.075 32.33-1.834-5.233 36.088-15.532 3.915 30.81zM249.121 81.654l-1.836-29.937 12.546-16.972 22.934 15.025 10.019 33.614-17.659 6.857z"/><path fill="#b5d6ad" stroke="#b5d6ad" d="m133.927 0-3.281 67.527-3.7.098-20.357-3.754-26.524-29.883L74.593 0zM72.235 332.034l-3.29 28.631L41.885 382H9.66l56.054-52.626z"/><path fill="#bd261c" stroke="#bd261c" d="m101.316 259.633 32.605 49.668-4.031 3.166-15.515 1.176-22.597.238-3.747-40.823z"/><path fill="#b5d6ad" stroke="#b5d6ad" d="m198.283 264.089.035.452-30.037 30.72-60.347-52.212 39.357-26.794 37.07 20.603z"/><path fill="#bd261c" stroke="#bd261c" d="M263.35 5.45 261.797 0h61.486l-.954 11.565-36.088 15.532z"/></svg></g></svg>