<svg xmlns="http://www.w3.org/2000/svg" viewBox="0 0 382 382"><g fill="none" stroke="#270901" stroke-width="2"><path d="M84.99 147.66q1.08.73 2.06.86.56.07.69-.49.27-1.2 1.43-.88.4.11.28-.28-.3-.95-.75-1.63-.43-.64-.72.07-.25.63-.53 1.21-.15.32-.46.5-.31.17-.63.07-.49-.16-.51-.68-.04-1.26-.88-1.36M134.78 149.75a.51.51 0 0 0-.97.06q-.19.73.01 1.53a.52.52 0 0 0 .97.09q.35-.75-.01-1.68" vector-effect="non-scaling-stroke"/></g><path fill="#0a0401" d="M84.99 147.66q1.08.73 2.06.86.56.07.69-.49.27-1.2 1.43-.88.4.11.28-.28-.3-.95-.75-1.63-.43-.64-.72.07-.25.63-.53 1.21-.15.32-.46.5-.31.17-.63.07-.49-.16-.51-.68-.04-1.26-.88-1.36c-.4-1.74-2.12-1.91-3.48-2.44q-.58-.23-.29-.79c2.66-5.17 23.6 3.22 28.33 5.02q4.78 1.82 9.06 2.12 6.55.45 11.44-.34 7.05-1.13 12.75-1.97c6.05-.88 10.62 3.31 16.19 4.3 2.85.51 4.9 1.87 7.5 2.97 4.31 1.83 9.2 2.97 13.73 4.34 2.45.75 5.13.79 7.67 1.08 2.84.34 5.62-.07 8.46.29 2.42.31 4.54-.71 6.99-.41a1.19 1.19 0 0 1 .97 1.6l-3.75 9.73q-1.03 2.67-1.68-.12l-1.53-6.57q-.61-2.63-1.49-.07-1.54 4.49-2.63 9.66-.74 3.53-1.96.14-1.83-5.04-3.27-10.42-.46-1.73-1.22-.11-1.24 2.68-1.14 5.6.07 2.12-1.29.49-1.74-2.1-3.05-5.31-1.18-2.9-1.35.22-.13 2.18-.17 4.17-.12 5.07-2.51.6-1.81-3.35-2.93-7.66-1.01-3.89-2.4-.12-1.08 2.94-1.55 5.85-.12.75-.71.28c-2.77-2.19-3.19-5.28-3.5-8.62q-.28-3.08-1.28-.15-.57 1.67-1 3.34a.78.78 0 0 1-1.11.5c-2.15-1.07-3.03-5.97-3.59-8.11q-.28-1.08-.76-.07-1.8 3.83-2.92 7.89a1.34 1.34 0 0 1-1.25.99q-1.44.04-1.74-1.21-.92-3.9-1.74-7.26-.27-1.08-1.13-1.8-.51-.42-.66.22l-1.04 4.46q-.12.52-.6.76-1.27.61-2.19-.74-1.66-2.44-2.61-5.12a.34.34 0 0 0-.65.01q-2.08 6.22-2.27 12.51-.01.53-.96.4a.98.95-19.3 0 1-.52-.24c-3.71-3.27-4.15-7.49-5.5-11.94q-.28-.92-.42.03l-.7 4.96a.88.88 0 0 1-1.42.57q-2.2-1.75-3.38-4.52a.34.33 54.6 0 0-.56-.1c-2.97 3.3-4 7.59-5 11.88a.96.95 89 0 1-.67.7q-.91.25-1.36-.47-2.84-4.46-2.88-9.08-.02-2.2-.27-4.59-.18-1.73-.68-.06-1.25 4.27-1.47 8.36-.19 3.59-2.31.68-2.71-3.74-3.48-8.97-.34-2.3-1.3-.18-3.23 7.07-4.29 14.98-.09.69-.78.57-1.19-.22-1.82-1.33c-3.32-5.85-3.17-11.92-1.8-18.48q.04-.22-.17-.17l-.36.08q-.1.02-.15.11-1.05 2.19-1.65 4.24-.69 2.36-1.7.12-.43-.95-.68-2-.26-1.1-.76-.09-2.25 4.54-2.66 9.89a.61.61 0 0 1-.65.56c-1.54-.08-1.82-1.27-2.52-2.31q-3.26-4.89-1.76-10.72m49.79 2.09a.51.51 0 0 0-.97.06q-.19.73.01 1.53a.52.52 0 0 0 .97.09q.35-.75-.01-1.68"/><path fill="#440e00" d="m84.99 147.66-.02-2.61q.84.1.88 1.36.02.52.51.68.32.1.63-.07.31-.18.46-.5.28-.58.53-1.21.29-.71.72-.07.45.68.75 1.63.12.39-.28.28-1.16-.32-1.43.88-.13.56-.69.49-.98-.13-2.06-.86M134.78 149.75q.36.93.01 1.68a.52.52 0 0 1-.97-.09q-.2-.8-.01-1.53a.51.51 0 0 1 .97-.06"/></svg>