<svg xmlns="http://www.w3.org/2000/svg" viewBox="0 0 382 382"><path fill="#21ae95" d="M159.15 154.6q-.26-1.24-.79-.08-1.53 3.34-2.6 7.07-.32 1.11-1.37 1.41a1.6 1.59 74.2 0 1-1.98-1.11q-.95-3.48-1.5-6.59c-.14-.81-.57-1.44-.97-2.14q-.52-.94-.81.1l-1.31 4.66a.94.94 0 0 1-1.31.6c-2.01-.95-3.03-3.69-3.89-5.6q-.42-.96-.76.03-1.92 5.63-1.96 10.67-.02 3.12-2.31 1c-3.06-2.83-4.06-7.46-4.93-11.51q-.04-.19-.23-.2-.16-.01-.26.08-.1.08-.1.2.04 2.36-.41 4.66a1.14 1.14 0 0 1-1.88.63q-1.81-1.61-2.87-3.84-.46-.98-1.1-.11-2.15 2.89-3.36 6.66c-.63 1.97-.41 4.01-1.94 5.55a.62.61-42.1 0 1-.92-.04c-3.26-4.01-3.69-8.52-3.6-13.6q0-.35-.22-.66-.41-.56-.56.12-1.07 4.76-1.4 9.56a.81.81 0 0 1-1.42.48q-3.69-4.15-4.38-9.93-.3-2.52-1.28-.18-2.02 4.86-3.39 10.04-.43 1.61-.52 3.42-.18 3.74-2.66.93c-3.84-4.36-3.66-13.34-2.22-18.66q.02-.07-.04-.13-.12-.1-.25-.1-.11.01-.17.1-1.19 2.13-1.63 4.44-.09.48-.49.75-.34.24-.74.14-.38-.09-.52-.45l-.73-1.88q-.51-1.3-1.05-.02-1.63 3.82-2.13 7.82-.48 3.89-2.81.75-1.79-2.41-2.74-5.74c-.85-2.99.33-5.46.28-8.39a2.12 2.11 10.3 0 0-1.35-1.94l-2.19-.85a.64.63 23.4 0 1-.35-.87c.4-.84 1.27-1.62 2.23-1.69q5.74-.44 10.88 1.22 9.12 2.94 17.82 6.07c5.25 1.89 12.93 1.96 18.77.96q5.7-.98 11.28-1.88c6.47-1.04 11.26 3.16 17.18 4.33q2.67.53 5.02 1.82c4.19 2.31 9.07 3.28 13.53 4.7 5.9 1.88 11.37 2 17.26 1.86 1.27-.02 2.34.53 3.65.2q2.32-.58 4.64-.37a1.35 1.35 0 0 1 1.13 1.83l-3.85 9.91q-1.1 2.84-1.8-.12l-1.59-6.66q-.57-2.39-1.28-.03-1.42 4.68-2.65 9.72-.81 3.32-2.05.13-1.87-4.8-3.37-10.79-.28-1.1-.8-.1-1.53 2.89-1.21 6.37a.53.53 0 0 1-.78.52c-1.9-1.06-3.08-4.11-3.94-6.05q-1.09-2.43-1.12.23l-.07 6.28a.61.61 0 0 1-.65.6q-1.17-.06-1.77-1.24-2.39-4.66-3.62-9.53a.74.74 0 0 0-1.11-.45q-.23.14-.33.39-1.39 3.6-1.92 7.04a.51.51 0 0 1-.82.32q-3.87-3.14-3.61-9.65a.51.5-69.7 0 0-.17-.38q-.35-.3-.62-.04-.22.22-.24.5-.18 2.16-1.11 3.83a1.32 1.32 0 0 1-2.33-.06q-1.66-3.35-2.46-7.04"/></svg>