<svg xmlns="http://www.w3.org/2000/svg" viewBox="0 0 382 382"><g fill="none" stroke="#303948" stroke-width="2"><path d="M97.54 142.55q-.6.69-.5 1.56.06.52.57.42 1.45-.3 2.8.63a1.77 1.76 43.8 0 1 .06 2.86q-1.62 1.22-1.53 3.36a.46.46 0 0 0 .77.32l1.44-1.36q.65-.62.79.27l.13.84q.1.61.6.25l.62-.45q.38-.26.68.08.1.13.12.29.06.46-.26.81-.61.68-.72 1.44-.5 3.75.47 7.4M82.58 143.12q.67-.91.1-2.91M108.81 146.32q.02.72.25 1.11.28.45.72.15.76-.51 1.2-.31M110.98 147.27l1.37 1.67q.64.78-.18 1.37-1.72 1.22-.69 2.85.14.21.08.46-.37 1.76.96 3.13.2.22.41.01.19-.2.45-.33.51-.26.26.25-.87 1.83-2.08 1.15c-1.21-.68-1.77-1.73-2.98-2.4M129.2 148.69q-.15 1.24-.74 2.39-.25.48.02.96.38.65-.15 1.19-.23.23.01.45l.19.17a.09.08 42.1 0 0 .11 0q.68-.73 1.36-1.37.38-.36.85-.13.82.4 1.97.28M149.25 147.27q-.04 1.51-.75 2.77-.23.42-.02.85l.72 1.44M133.34 155.96q.81-.41 1.22-1.15.17-.31-.02-.61l-.24-.38q-.27-.41-.16-.88.47-2.24 2.13-3.14.49-.26.23-.74l-.78-1.46M152.64 148.71q.82 2.52 2.94 4.62.57.56-.23.58-1.42.04-1.4 1.43.01.71-.22 1.37-.13.37-.4.6-.68.58.13.96.78.36 1.09 1.14.28.71-.35.28l-.44-.3q-.48-.33-.89.08-.4.41-.78.6" vector-effect="non-scaling-stroke"/><path d="m151.89 159.44.76-.46q.39-.23.25-.67-.12-.41-.59-.44a.27.26 6 0 1-.25-.3q.21-2.03-1.03-2.62M169.15 154.94l-.02 1.31q-.01.54.51.68.42.12.8-.11.38-.22.45-.67.06-.37.03-.77M169.31 158.75q.18.14.38-.01a.3.29-46.6 0 0-.01-.46q-.18-.14-.36-.01-.32.23-.01.48" vector-effect="non-scaling-stroke"/></g><path d="M97.54 142.55q-.6.69-.5 1.56.06.52.57.42 1.45-.3 2.8.63a1.77 1.76 43.8 0 1 .06 2.86q-1.62 1.22-1.53 3.36a.46.46 0 0 0 .77.32l1.44-1.36q.65-.62.79.27l.13.84q.1.61.6.25l.62-.45q.38-.26.68.08.1.13.12.29.06.46-.26.81-.61.68-.72 1.44-.5 3.75.47 7.4-.73 2.25-.69 5.5a1.09 1.09 0 0 1-.48.92q-.94.63-1.66-.11c-4.29-4.37-4.3-12.61-3.04-18.56q.36-1.7-.53-.21-1.04 1.71-1.29 3.61-.11.9-1.02 1.01-.51.06-.71-.42l-.8-1.92q-.52-1.27-1.06-.01-1.76 4.14-2.29 8.99a1.03 1.03 0 0 1-1.8.56q-5.26-6.01-3.3-13.64.79-3.07-2.33-3.87.67-.91.1-2.91 7.55-.71 14.86 2.34"/><path fill="#607290" d="M82.68 140.21q.57 2-.1 2.91-.84-.11-1.33-.45-.43-.32-.19-.8.46-.95 1.62-1.66M108.81 146.32q.02.72.25 1.11.28.45.72.15.76-.51 1.2-.31l1.37 1.67q.64.78-.18 1.37-1.72 1.22-.69 2.85.14.21.08.46-.37 1.76.96 3.13.2.22.41.01.19-.2.45-.33.51-.26.26.25-.87 1.83-2.08 1.15c-1.21-.68-1.77-1.73-2.98-2.4q-.52-1.62-.65-3.44-.03-.42-.37-.55-.05-.02-.1-.01-.26.01-.36.24-1.87 4.4-3.52 9.6-.97-3.65-.47-7.4.11-.76.72-1.44.32-.35.26-.81-.02-.16-.12-.29-.3-.34-.68-.08l-.62.45q-.5.36-.6-.25l-.13-.84q-.14-.89-.79-.27l-1.44 1.36a.46.46 0 0 1-.77-.32q-.09-2.14 1.53-3.36a1.77 1.76 43.8 0 0-.06-2.86q-1.35-.93-2.8-.63-.51.1-.57-.42-.1-.87.5-1.56z"/><path d="M110.98 147.27q-.44-.2-1.2.31-.44.3-.72-.15-.23-.39-.25-1.11zM149.25 147.27q-.04 1.51-.75 2.77-.23.42-.02.85l.72 1.44-1.41 5.42a1.16 1.15 31.4 0 1-1.98.48q-2.02-2.24-3.01-4.98-.56-1.56-1.07.02-1.91 5.89-1.88 11.65 0 .61-.6.48c-3.55-.77-5.42-6.83-5.91-9.44q.81-.41 1.22-1.15.17-.31-.02-.61l-.24-.38q-.27-.41-.16-.88.47-2.24 2.13-3.14.49-.26.23-.74l-.78-1.46q2.72-.58 5.45-1.07 4.12-.74 8.08.74M129.2 148.69q-.15 1.24-.74 2.39-.25.48.02.96.38.65-.15 1.19-.23.23.01.45l.19.17a.09.08 42.1 0 0 .11 0q.68-.73 1.36-1.37.38-.36.85-.13.82.4 1.97.28-1.18 1.2-.94 3.4.16 1.38-.47 2.12-1.18 1.4-2.24-.1l-2.56-3.66q-.32-.46-.67-.01-3.27 4.24-4.15 9.86c-.15.94-.48 1.75-1.18 2.42a.83.82 50.8 0 1-1.24-.13c-3.35-4.8-3.22-8.57-3.52-13.86q-.08-1.39-.46-.06-1.34 4.69-1.51 8.71-.13 2.78-2 .73-2.25-2.45-3.3-6.62c1.21.67 1.77 1.72 2.98 2.4q1.21.68 2.08-1.15.25-.51-.26-.25-.26.13-.45.33-.21.21-.41-.01-1.33-1.37-.96-3.13.06-.25-.08-.46-1.03-1.63.69-2.85.82-.59.18-1.37l-1.37-1.67q8.88 2.6 18.22 1.42"/><path fill="#607290" d="M152.64 148.71q.82 2.52 2.94 4.62.57.56-.23.58-1.42.04-1.4 1.43.01.71-.22 1.37-.13.37-.4.6-.68.58.13.96.78.36 1.09 1.14.28.71-.35.28l-.44-.3q-.48-.33-.89.08-.4.41-.78.6l-.2-.63.76-.46q.39-.23.25-.67-.12-.41-.59-.44a.27.26 6 0 1-.25-.3q.21-2.03-1.03-2.62l-1.83-2.62-.72-1.44q-.21-.43.02-.85.71-1.26.75-2.77zM135.72 147.6l.78 1.46q.26.48-.23.74-1.66.9-2.13 3.14-.11.47.16.88l.24.38q.19.3.02.61-.41.74-1.22 1.15l-.52-3.33q-1.15.12-1.97-.28-.47-.23-.85.13-.68.64-1.36 1.37a.09.08 42.1 0 1-.11 0l-.19-.17q-.24-.22-.01-.45.53-.54.15-1.19-.27-.48-.02-.96.59-1.15.74-2.39z"/><path d="m169.15 154.94-.02 1.31q-.01.54.51.68.42.12.8-.11.38-.22.45-.67.06-.37.03-.77 3.79.99 7.52 2.18 3.21 1.02 5.85 1.34c3.91.47 7.78.14 11.62.51 2.64.25 4.83-.58 7.37-.34a1.36 1.36 0 0 1 1.14 1.85l-3.85 9.9q-1.1 2.84-1.81-.13l-1.64-6.92q-.49-2.06-1.12-.04-1.54 4.87-2.68 9.84-.82 3.57-2.14.16-1.94-4.99-3.3-10.61-.28-1.15-.86-.11-1.21 2.18-1.19 4.2.03 4.84-2.55.75-1.2-1.89-2.2-4.16-1.06-2.38-1.09.22l-.08 6.19a.72.72 0 0 1-.82.7q-1-.15-1.52-1.12-2.16-4.02-3.4-8.62-.88-3.26-2.09-.11-1.07 2.79-1.55 6.01a.5.5 0 0 1-.77.34c-2.97-2-3.89-6.38-3.74-9.73a.43.42-85.8 0 0-.38-.45l-.27-.03q-.01 0-.05.11l-1.16 4.14a1.37 1.37 0 0 1-2.55.23q-1.61-3.33-2.45-6.97-.29-1.24-.84-.09-1.41 2.98-2.5 6.82-.53 1.89-2.34 1.51-.49-.1-.78-.52-.73-1.09-.61-2.36.38-.19.78-.6.41-.41.89-.08l.44.3q.63.43.35-.28-.31-.78-1.09-1.14-.81-.38-.13-.96.27-.23.4-.6.23-.66.22-1.37-.02-1.39 1.4-1.43.8-.02.23-.58-2.12-2.1-2.94-4.62 2.74 1.29 5.39 1.93 3.56.86 5.39 1.71 2.85 1.32 5.73 2.59m.16 3.81q.18.14.38-.01a.3.29-46.6 0 0-.01-.46q-.18-.14-.36-.01-.32.23-.01.48"/><path d="M151.89 159.44q-.89-2.08-.86-4.49 1.24.59 1.03 2.62a.27.26 6 0 0 .25.3q.47.03.59.44.14.44-.25.67z"/><path fill="#607290" d="M170.92 155.38q.03.4-.03.77-.07.45-.45.67-.38.23-.8.11-.52-.14-.51-.68l.02-1.31zM169.32 158.27q.18-.13.36.01a.3.29-46.6 0 1 .01.46q-.2.15-.38.01-.31-.25.01-.48"/></svg>