<svg xmlns="http://www.w3.org/2000/svg" viewBox="0 0 382 382"><defs><clipPath id="a"><path d="M206.44 314.67h-12.95c-1.21-2.51-3.68-5.19-3.38-7.49.75-5.57 2.98-10.93 4.26-16.45 1.32-5.69 2.27-11.47 3.26-17.23.45-2.59 0-5.5 1.03-7.79 1.44-3.23 4.06-5.91 5.79-9.04.92-1.65 1.56-3.78 1.43-5.63-.52-7.52-1.58-15.01-2.06-22.53-.5-7.85-4.73-14.92-12.25-16.61-7.27-1.63-14.94-2.3-22.38-1.99-5.67.24-10.44-.05-14.85-3.97-4.27-3.81-9.03-7.07-13.42-10.76-10.97-9.21-23.3-14.58-37.79-15.62-13.59-.97-23.89-11.32-22.18-27.83.35-3.39-1.96-7.06-3.05-10.6v-8.98c2.87-4.82 6.05-9.49 8.52-14.51 2.88-5.83 7.45-8.74 13.57-10.16 9.19-2.13 18.35-4.43 27.43-6.98 11.92-3.35 20.95-9.71 22.65-23.23.12-.97 1.37-2.05 2.36-2.6 5.11-2.85 9.16.46 13.25 2.7 3.34 1.83 5.3 1.31 7.01-2.2 2.7-5.54 6.16-6.44 11.54-4.15 1.78.76 4.49 1 6.09.17 5.44-2.82 11-2.87 16.83-2.25 1.35.14 2.85-1.04 4.28-1.61h2.99c.54.52.99 1.31 1.63 1.51 5.05 1.63 10.13 3.21 15.24 4.64.82.23 1.86-.51 2.81-.58 3.67-.27 7.73-1.53 10.93-.39 3.66 1.3 6.42 4.96 9.83 7.21 2.03 1.34 4.48 2.32 6.87 2.81 5.88 1.22 11.85 2.03 17.76 3.08 3.22.57 4.62 2.39 4.46 5.87-.12 2.71.25 5.59 1.09 8.16 2.07 6.3 8.55 6.38 13.31 8.91 1.21.64 3.07 1.46 3.22 2.42.65 4.02 1.13 8.15.98 12.21-.15 4.04-1.57 8.05-1.56 12.07 0 1.96 2.01 3.91 3.1 5.87v22.94c-.77 4.18-1.59 8.36-2.3 12.55-1.89 11.1-3.76 22.2-5.6 33.31-1.17 7.08-2.2 14.17-3.41 21.24-.71 4.18-1.82 8.29-2.44 12.48-.7 4.73-1.27 9.5-1.46 14.27-.12 2.91.57 5.85.94 8.77.33 2.58-.56 4.1-3.01 5.47-6.85 3.82-13.69 7.76-20.12 12.23-17.42 12.11-35.35 23.07-56.19 28.34-1.42.36-2.71 1.27-4.06 1.93z"/></clipPath></defs><g clip-path="url(#a)"><svg xmlns="http://www.w3.org/2000/svg" width="382" height="382" style="shape-rendering:geometricPrecision"><path fill="#e1586f" stroke="#e1586f" d="m382 134.911-6.899-6.863-30.954-45.226-.042-4.614L363.185 0H382zM218.35 260.42l40.408-11.136 15.6 23.623-.42 13.46-4.802 14.46-26.628 2.492-20.13-12.735z"/><path fill="#dc5b79" stroke="#dc5b79" d="m0 197.433 27.752 12.416 23.776 81.12-16.702 25.511-6.03 3.506L0 326.466z"/><path fill="#dc5b79" stroke="#dc5b79" d="m0 196.362 77.692-20.28-11.54 35.963-16.447 6.117-21.953-8.313L0 197.433z"/><path fill="#e1586f" stroke="#e1586f" d="m157.03 44.443-35-11.983 26.074-23.83 1.415 2.867 8.975 29.05zM106.54 316.238l21.285 33.342L123.53 382h-16.09l-78.645-62.014 6.031-3.506 70.846-.775z"/><path fill="#dc5b79" stroke="#dc5b79" d="M382 232.336v76.747l-.464.294-69.913 30.445 10.69-46.827 17.273-26.667zM94.067 198.981l-13.5 10.09-14.416 2.974 11.54-35.963 16.689-10.645 9.568.716 3.83 2.464zM216.214 218.982l-3.158-50.983 17.411-16.951 21.652 38.632-2.688 22.018zM45.385 100.962l-.724-.4-2.599-33.132.838-5.18 47.363-11.718 2.832 4.331-40.727 41.782z"/><path fill="#e1586f" stroke="#e1586f" d="m236.557 0-18.21 14.867-68.828-3.37-1.415-2.867L145.521 0z"/><path fill="#dc5b79" stroke="#dc5b79" d="m252.119 189.68-21.652-38.632 2.618-11.92 25.57-14.658 94.207 73.103-6.196 1.741z"/><path fill="#e1586f" stroke="#e1586f" d="m259.782 122.338-16.955-59.142L260.167 0h13.669l13.433 38.161 5.24 50.286-17.88 23.124zM236.744 322.097l62.32 37.023-1.621 22.88H216.99l-6.098-23.662z"/><path fill="#dc5b79" stroke="#dc5b79" d="m262.51 238.777 70.08-31.648-50.354 63.42-7.878 2.358-15.6-23.623z"/><path fill="#e1586f" stroke="#e1586f" d="m216.214 218.982-22.358 26.315-9.728-.88-25.978-37.901.013-11.02L213.056 168z"/><path fill="#dc5b79" stroke="#dc5b79" d="m130.918 117.208-9.864-10.565 2.684-32.954 27.689-8.596 8.844 6.99 10.838 34.31-26.674 10.69zM208.398 103.468l-18.675-32.714 9.612-8.1 15.85 18.18z"/><path fill="#e1586f" stroke="#e1586f" d="m213.056 168-54.893 27.497-14.649-18.816 20.629-33.919 27.24-20.51 20.282 2.849 21.42 14.027-2.618 11.92z"/><path fill="#dc5b79" stroke="#dc5b79" d="m164.143 142.762-8.78-9.463-10.928-16.216 26.674-10.69 20.274 15.86z"/><path fill="#e1586f" stroke="#e1586f" d="M210.893 358.338 216.991 382h-93.46l4.294-32.42 2.328-1.636 58.243-24.112zM346.666 199.314l6.196-1.74L382 200.44v31.896l-42.414 33.992-57.35 4.22 50.354-63.42z"/><path fill="#e1586f" stroke="#e1586f" d="m152.35 299.565-22.197 48.38-2.328 1.635-21.285-33.342 35.5-25.504z"/><path fill="#dc5b79" stroke="#dc5b79" d="m216.214 218.982 33.217-7.284 13.079 27.08-3.752 10.506-40.409 11.137-24.493-15.124zM188.366 321.568l.03 2.264-58.243 24.112 22.197-48.38 24.59 5.876z"/><path fill="#e1586f" stroke="#e1586f" d="m76.008 259.308-24.48 31.66-23.776-81.119 21.953 8.313z"/><path fill="#dc5b79" stroke="#dc5b79" d="m242.508 303.319 26.628-2.493 30.462 54.687-.535 3.607-62.319-37.023zM211.665 125.1l-3.267-21.632 6.786-22.634 14.624-14.01 13.02-3.628 16.954 59.142-1.127 2.132-25.57 14.658z"/><path fill="#e1586f" stroke="#e1586f" d="m229.808 66.823-29.212-6.047 2.617-30.483 15.134-15.426L236.557 0h23.61l-17.34 63.196zM107.957 252.241l-13.398 6.513-18.551.554-26.303-41.146 16.446-6.117 14.416-2.973 30.197 35.49zM94.141 120.214l-12.313-4.095 3.287-31.521 11.151-25.83 27.472 14.921-2.684 32.954z"/><path fill="#dc5b79" stroke="#dc5b79" d="m128.622 168.998-20.844-.381-3.83-2.464-9.807-45.94 26.913-13.57 9.864 10.565-.046 18.697zM85.115 84.598l-3.287 31.521-18.874 3.803-17.57-18.96 6.984-4.317z"/><path fill="#e1586f" stroke="#e1586f" d="m182.458 246.86-5.519 58.58-24.589-5.875-10.31-8.83-2.004-18.24zM155.364 133.299l-24.492 2.606.046-18.697 13.517-.125z"/><path fill="#dc5b79" stroke="#dc5b79" d="M90.263 50.532 42.9 62.25 29.58 49.188 59.895 0h22.477l7.908 44.639z"/><path fill="#e1586f" stroke="#e1586f" d="M123.738 73.689 96.266 58.768l-3.17-3.905-2.833-4.331.017-5.893 31.75-12.179 35 11.983-5.603 20.65z"/><path fill="#dc5b79" stroke="#dc5b79" d="m191.383 122.252-20.274-15.86-10.838-34.31 29.452-1.328 18.675 32.714 3.267 21.633zM382 200.44l-29.138-2.867-94.207-73.103 1.127-2.132 14.847-10.767 100.472 16.477L382 134.91zM0 0h59.895L29.58 49.188 0 42.136zM44.661 100.561 0 114.431V87.621L42.062 67.43z"/><path fill="#e1586f" stroke="#e1586f" d="m382 352.304-33.327 11.02 32.863-53.947.464-.294zM77.692 176.082 0 196.362v-12.729l55.58-37.418 38.8 19.222z"/><path fill="#dc5b79" stroke="#dc5b79" d="m145.52 0 2.584 8.63-26.074 23.83L90.28 44.64 82.372 0zM249.43 211.698l2.689-22.018 94.547 9.634-14.076 7.815-70.08 31.648z"/><path fill="#e1586f" stroke="#e1586f" d="M0 382v-55.534l28.795-6.48L107.44 382zM229.808 66.823l-14.624 14.011-15.849-18.18 1.26-1.878zM282.236 270.549l57.35-4.22-17.273 26.666-48.375-6.627.42-13.46z"/><path fill="#dc5b79" stroke="#dc5b79" d="m126.232 266.157-20.676 46.129-10.997-53.532 13.398-6.513z"/><path fill="#e1586f" stroke="#e1586f" d="m299.598 355.513 12.025-15.69 69.913-30.446-32.863 53.947L320.558 382h-23.115l1.62-22.88zM140.036 272.495l2.003 18.24-35.499 25.503-.868-.533-.116-3.42 20.676-46.128zM85.115 84.598 52.368 96.645l40.727-41.782 3.171 3.905zM0 42.136l29.579 7.052L42.9 62.25l-.838 5.18L0 87.622z"/><path fill="#dc5b79" stroke="#dc5b79" d="m222.378 290.584 20.13 12.735-5.764 18.778-25.85 36.24-22.498-34.505-.03-2.264zM158.15 206.516l-35.299 22.106-28.784-29.64 13.711-30.365 20.844.38 14.892 7.684 14.649 18.816z"/><path fill="#e1586f" stroke="#e1586f" d="m160.271 72.083-8.844-6.99 5.603-20.65 1.464-3.896 44.719-10.254-2.617 30.483-1.26 1.877-9.613 8.101zM103.948 166.153l-9.568-.716-38.8-19.222 7.374-26.293 18.874-3.803 12.313 4.095z"/><path fill="#dc5b79" stroke="#dc5b79" d="m344.105 78.208.042 4.614-51.638 5.625-5.24-50.286zM218.35 260.42l4.028 30.164-34.012 30.984-11.427-16.128 5.519-58.58 1.67-2.443 9.728.88z"/><path fill="#e1586f" stroke="#e1586f" d="m94.067 198.981 28.784 29.641-12.087 15.94-30.197-35.49z"/><path fill="#dc5b79" stroke="#dc5b79" d="M55.58 146.215 0 183.633V114.43l44.661-13.869.724.401 17.569 18.96zM203.213 30.293l-44.719 10.254-8.975-29.05 68.828 3.37zM184.128 244.417l-1.67 2.444-42.422 25.634-13.804-6.338-18.275-13.916 2.807-7.678 12.087-15.94 35.3-22.107zM375.101 128.048 274.63 111.57l17.88-23.124 51.638-5.625zM94.56 258.754l10.996 53.532.116 3.419-70.846.775 16.702-25.512 24.48-31.66zM363.185 0l-19.08 78.208-56.836-40.047L273.836 0z"/><path fill="#e1586f" stroke="#e1586f" d="m320.558 382 28.115-18.676L382 352.304V382z"/><path fill="#dc5b79" stroke="#dc5b79" d="m273.938 286.368 48.375 6.627-10.69 46.827-12.025 15.691-30.462-54.687zM164.143 142.762l-20.629 33.92-14.892-7.684 2.25-33.093 24.492-2.606z"/></svg></g></svg>